0, 0, Header, 1, 26, 480
1, 0, Start_track
1, 0, Title_t, "untitled"
1, 0, SMPTE_offset, 96, 0, 3, 0, 0
1, 0, Time_signature, 2, 1, 48, 8
1, 0, Key_signature, 0, "major"
1, 0, Tempo, 394737
1, 0, Marker_t, "3rd Movement, Rondo.Allegro"
1, 687300, Tempo, 427046
1, 688340, Tempo, 458015
1, 689340, Tempo, 495868
1, 691140, Tempo, 597015
1, 693060, Tempo, 670391
1, 695020, Tempo, 461538
1, 695540, Tempo, 427046
1, 696860, Tempo, 410959
1, 752640, Tempo, 428571
1, 753640, Tempo, 458015
1, 754560, Tempo, 545455
1, 754560, End_track
2, 0, Start_track
2, 0, Title_t, "Oboe"
2, 0, Control_c, 0, 0, 0
2, 0, Control_c, 0, 7, 100
2, 0, Control_c, 0, 10, 50
2, 0, Control_c, 0, 91, 82
2, 0, Control_c, 0, 93, 82
2, 1, Control_c, 0, 32, 1
2, 2, Program_c, 0, 68
2, 16310, Note_on_c, 0, 76, 84
2, 16738, Note_on_c, 0, 76, 0
2, 16790, Note_on_c, 0, 76, 84
2, 17218, Note_on_c, 0, 76, 0
2, 17270, Note_on_c, 0, 76, 84
2, 18122, Note_on_c, 0, 76, 0
2, 18230, Note_on_c, 0, 79, 83
2, 18470, Note_on_c, 0, 77, 83
2, 18514, Note_on_c, 0, 79, 0
2, 18666, Note_on_c, 0, 77, 0
2, 18710, Note_on_c, 0, 76, 82
2, 18950, Note_on_c, 0, 77, 96
2, 19002, Note_on_c, 0, 76, 0
2, 19162, Note_on_c, 0, 77, 0
2, 19190, Note_on_c, 0, 79, 114
2, 19430, Note_on_c, 0, 76, 127
2, 19490, Note_on_c, 0, 79, 0
2, 19670, Note_on_c, 0, 76, 0
2, 19670, Note_on_c, 0, 72, 82
2, 20150, Note_on_c, 0, 72, 0
2, 20150, Note_on_c, 0, 84, 100
2, 20818, Note_on_c, 0, 84, 0
2, 20870, Note_on_c, 0, 83, 99
2, 21058, Note_on_c, 0, 83, 0
2, 21110, Note_on_c, 0, 83, 98
2, 21350, Note_on_c, 0, 81, 98
2, 21394, Note_on_c, 0, 83, 0
2, 21590, Note_on_c, 0, 79, 100
2, 21634, Note_on_c, 0, 81, 0
2, 22018, Note_on_c, 0, 79, 0
2, 22070, Note_on_c, 0, 84, 100
2, 22730, Note_on_c, 0, 84, 0
2, 22790, Note_on_c, 0, 83, 93
2, 22970, Note_on_c, 0, 83, 0
2, 23030, Note_on_c, 0, 83, 94
2, 23270, Note_on_c, 0, 81, 96
2, 23306, Note_on_c, 0, 83, 0
2, 23510, Note_on_c, 0, 79, 98
2, 23562, Note_on_c, 0, 81, 0
2, 23922, Note_on_c, 0, 79, 0
2, 23990, Note_on_c, 0, 72, 97
2, 24410, Note_on_c, 0, 72, 0
2, 24470, Note_on_c, 0, 72, 96
2, 24890, Note_on_c, 0, 72, 0
2, 24950, Note_on_c, 0, 72, 95
2, 25858, Note_on_c, 0, 72, 0
2, 25910, Note_on_c, 0, 76, 100
2, 26150, Note_on_c, 0, 74, 100
2, 26210, Note_on_c, 0, 76, 0
2, 26322, Note_on_c, 0, 74, 0
2, 26390, Note_on_c, 0, 72, 97
2, 26630, Note_on_c, 0, 74, 95
2, 26674, Note_on_c, 0, 72, 0
2, 26810, Note_on_c, 0, 74, 0
2, 26870, Note_on_c, 0, 76, 96
2, 27290, Note_on_c, 0, 76, 0
2, 27350, Note_on_c, 0, 76, 104
2, 27762, Note_on_c, 0, 76, 0
2, 27830, Note_on_c, 0, 79, 105
2, 28070, Note_on_c, 0, 77, 105
2, 28098, Note_on_c, 0, 79, 0
2, 28258, Note_on_c, 0, 77, 0
2, 28310, Note_on_c, 0, 76, 101
2, 28550, Note_on_c, 0, 77, 100
2, 28602, Note_on_c, 0, 76, 0
2, 28722, Note_on_c, 0, 77, 0
2, 28790, Note_on_c, 0, 79, 100
2, 29194, Note_on_c, 0, 79, 0
2, 29270, Note_on_c, 0, 76, 100
2, 29698, Note_on_c, 0, 76, 0
2, 29750, Note_on_c, 0, 79, 94
2, 29990, Note_on_c, 0, 77, 96
2, 30050, Note_on_c, 0, 79, 0
2, 30162, Note_on_c, 0, 77, 0
2, 30230, Note_on_c, 0, 76, 100
2, 30470, Note_on_c, 0, 74, 103
2, 30522, Note_on_c, 0, 76, 0
2, 30634, Note_on_c, 0, 74, 0
2, 30710, Note_on_c, 0, 72, 105
2, 31190, Note_on_c, 0, 72, 0
2, 34550, Note_on_c, 0, 79, 105
2, 38314, Note_on_c, 0, 79, 0
2, 38390, Note_on_c, 0, 79, 105
2, 38666, Note_on_c, 0, 79, 0
2, 38870, Note_on_c, 0, 77, 112
2, 39830, Note_on_c, 0, 76, 95
2, 39922, Note_on_c, 0, 77, 0
2, 40234, Note_on_c, 0, 76, 0
2, 42710, Note_on_c, 0, 77, 97
2, 43670, Note_on_c, 0, 76, 70
2, 43770, Note_on_c, 0, 77, 0
2, 44058, Note_on_c, 0, 76, 0
2, 49910, Note_on_c, 0, 74, 89
2, 51746, Note_on_c, 0, 74, 0
2, 51830, Note_on_c, 0, 77, 95
2, 53674, Note_on_c, 0, 77, 0
2, 53750, Note_on_c, 0, 76, 90
2, 53968, Control_c, 0, 7, 89
2, 54048, Control_c, 0, 7, 86
2, 54068, Control_c, 0, 7, 82
2, 54080, Control_c, 0, 7, 80
2, 54096, Control_c, 0, 7, 74
2, 54106, Note_on_c, 0, 76, 0
2, 54108, Control_c, 0, 7, 68
2, 54124, Control_c, 0, 7, 63
2, 54136, Control_c, 0, 7, 53
2, 54152, Control_c, 0, 7, 37
2, 54164, Control_c, 0, 7, 18
2, 54180, Control_c, 0, 7, 11
2, 54200, Control_c, 0, 7, 8
2, 54536, Control_c, 0, 7, 89
2, 67670, Note_on_c, 0, 79, 97
2, 68390, Note_on_c, 0, 76, 99
2, 68450, Note_on_c, 0, 79, 0
2, 68630, Note_on_c, 0, 77, 106
2, 68690, Note_on_c, 0, 76, 0
2, 68870, Note_on_c, 0, 74, 95
2, 68946, Note_on_c, 0, 77, 0
2, 69074, Note_on_c, 0, 74, 0
2, 69110, Note_on_c, 0, 72, 85
2, 69590, Note_on_c, 0, 72, 0
2, 76790, Note_on_c, 0, 79, 80
2, 80066, Note_on_c, 0, 79, 0
2, 80150, Note_on_c, 0, 77, 100
2, 80390, Note_on_c, 0, 74, 90
2, 80434, Note_on_c, 0, 77, 0
2, 80586, Note_on_c, 0, 74, 0
2, 80630, Note_on_c, 0, 72, 83
2, 81110, Note_on_c, 0, 72, 0
2, 84950, Note_on_c, 0, 72, 123
2, 85046, Note_on_c, 0, 72, 0
2, 85190, Note_on_c, 0, 72, 123
2, 85286, Note_on_c, 0, 72, 0
2, 85430, Note_on_c, 0, 71, 121
2, 85670, Note_on_c, 0, 74, 119
2, 85746, Note_on_c, 0, 71, 0
2, 85834, Note_on_c, 0, 74, 0
2, 85910, Note_on_c, 0, 77, 116
2, 86006, Note_on_c, 0, 77, 0
2, 86150, Note_on_c, 0, 77, 112
2, 86246, Note_on_c, 0, 77, 0
2, 86390, Note_on_c, 0, 72, 112
2, 86630, Note_on_c, 0, 76, 113
2, 86706, Note_on_c, 0, 72, 0
2, 86778, Note_on_c, 0, 76, 0
2, 86870, Note_on_c, 0, 79, 113
2, 86966, Note_on_c, 0, 79, 0
2, 87110, Note_on_c, 0, 79, 115
2, 87206, Note_on_c, 0, 79, 0
2, 87350, Note_on_c, 0, 74, 115
2, 87590, Note_on_c, 0, 79, 114
2, 87642, Note_on_c, 0, 74, 0
2, 87722, Note_on_c, 0, 79, 0
2, 87830, Note_on_c, 0, 83, 114
2, 87926, Note_on_c, 0, 83, 0
2, 88070, Note_on_c, 0, 83, 114
2, 88166, Note_on_c, 0, 83, 0
2, 88310, Note_on_c, 0, 84, 114
2, 88714, Note_on_c, 0, 84, 0
2, 88790, Note_on_c, 0, 72, 120
2, 88886, Note_on_c, 0, 72, 0
2, 89030, Note_on_c, 0, 72, 121
2, 89126, Note_on_c, 0, 72, 0
2, 89270, Note_on_c, 0, 71, 123
2, 89510, Note_on_c, 0, 74, 120
2, 89578, Note_on_c, 0, 71, 0
2, 89674, Note_on_c, 0, 74, 0
2, 89750, Note_on_c, 0, 77, 120
2, 89846, Note_on_c, 0, 77, 0
2, 89990, Note_on_c, 0, 77, 118
2, 90086, Note_on_c, 0, 77, 0
2, 90230, Note_on_c, 0, 72, 117
2, 90470, Note_on_c, 0, 76, 115
2, 90554, Note_on_c, 0, 72, 0
2, 90626, Note_on_c, 0, 76, 0
2, 90710, Note_on_c, 0, 79, 115
2, 90806, Note_on_c, 0, 79, 0
2, 90950, Note_on_c, 0, 79, 115
2, 91046, Note_on_c, 0, 79, 0
2, 91190, Note_on_c, 0, 74, 115
2, 91430, Note_on_c, 0, 79, 116
2, 91506, Note_on_c, 0, 74, 0
2, 91594, Note_on_c, 0, 79, 0
2, 91670, Note_on_c, 0, 83, 119
2, 91766, Note_on_c, 0, 83, 0
2, 91910, Note_on_c, 0, 83, 105
2, 92010, Note_on_c, 0, 83, 0
2, 92150, Note_on_c, 0, 84, 105
2, 94946, Note_on_c, 0, 84, 0
2, 95030, Note_on_c, 0, 83, 105
2, 95922, Note_on_c, 0, 83, 0
2, 95990, Note_on_c, 0, 84, 105
2, 96950, Note_on_c, 0, 84, 0
2, 99830, Note_on_c, 0, 72, 90
2, 101690, Note_on_c, 0, 72, 0
2, 101750, Note_on_c, 0, 74, 97
2, 103610, Note_on_c, 0, 74, 0
2, 103670, Note_on_c, 0, 76, 104
2, 103910, Note_on_c, 0, 79, 116
2, 103970, Note_on_c, 0, 76, 0
2, 104058, Note_on_c, 0, 79, 0
2, 104150, Note_on_c, 0, 76, 123
2, 104246, Note_on_c, 0, 76, 0
2, 104390, Note_on_c, 0, 74, 121
2, 104486, Note_on_c, 0, 74, 0
2, 104630, Note_on_c, 0, 72, 110
2, 105110, Note_on_c, 0, 74, 100
2, 105170, Note_on_c, 0, 72, 0
2, 105490, Note_on_c, 0, 74, 0
2, 105590, Note_on_c, 0, 76, 101
2, 105830, Note_on_c, 0, 79, 109
2, 105866, Note_on_c, 0, 76, 0
2, 105946, Note_on_c, 0, 79, 0
2, 106070, Note_on_c, 0, 76, 120
2, 106166, Note_on_c, 0, 76, 0
2, 106310, Note_on_c, 0, 74, 119
2, 106406, Note_on_c, 0, 74, 0
2, 106550, Note_on_c, 0, 72, 112
2, 107030, Note_on_c, 0, 74, 97
2, 107090, Note_on_c, 0, 72, 0
2, 107410, Note_on_c, 0, 74, 0
2, 107510, Note_on_c, 0, 76, 104
2, 107750, Note_on_c, 0, 79, 113
2, 107826, Note_on_c, 0, 76, 0
2, 107874, Note_on_c, 0, 79, 0
2, 107990, Note_on_c, 0, 76, 116
2, 108086, Note_on_c, 0, 76, 0
2, 108230, Note_on_c, 0, 74, 116
2, 108326, Note_on_c, 0, 74, 0
2, 108470, Note_on_c, 0, 72, 108
2, 108950, Note_on_c, 0, 76, 99
2, 109034, Note_on_c, 0, 72, 0
2, 109190, Note_on_c, 0, 74, 98
2, 109250, Note_on_c, 0, 76, 0
2, 109354, Note_on_c, 0, 74, 0
2, 109430, Note_on_c, 0, 72, 103
2, 109910, Note_on_c, 0, 72, 0
2, 145910, Note_on_c, 0, 72, 105
2, 146290, Note_on_c, 0, 72, 0
2, 146390, Note_on_c, 0, 72, 105
2, 146570, Note_on_c, 0, 72, 0
2, 146630, Note_on_c, 0, 72, 105
2, 146778, Note_on_c, 0, 72, 0
2, 146870, Note_on_c, 0, 72, 105
2, 147282, Note_on_c, 0, 72, 0
2, 147350, Note_on_c, 0, 72, 105
2, 147762, Note_on_c, 0, 72, 0
2, 147830, Note_on_c, 0, 72, 105
2, 148210, Note_on_c, 0, 72, 0
2, 148310, Note_on_c, 0, 76, 105
2, 148498, Note_on_c, 0, 76, 0
2, 148550, Note_on_c, 0, 76, 105
2, 148738, Note_on_c, 0, 76, 0
2, 148790, Note_on_c, 0, 76, 105
2, 149194, Note_on_c, 0, 76, 0
2, 149270, Note_on_c, 0, 76, 105
2, 149750, Note_on_c, 0, 76, 0
2, 201590, Note_on_c, 0, 79, 90
2, 202550, Note_on_c, 0, 79, 0
2, 203510, Note_on_c, 0, 78, 90
2, 204470, Note_on_c, 0, 78, 0
2, 205430, Note_on_c, 0, 85, 90
2, 206390, Note_on_c, 0, 85, 0
2, 207350, Note_on_c, 0, 86, 70
2, 214070, Note_on_c, 0, 86, 0
2, 214070, Note_on_c, 0, 78, 105
2, 215030, Note_on_c, 0, 78, 0
2, 215030, Note_on_c, 0, 79, 105
2, 215510, Note_on_c, 0, 79, 0
2, 246230, Note_on_c, 0, 79, 70
2, 246638, Note_on_c, 0, 79, 0
2, 246710, Note_on_c, 0, 79, 70
2, 247106, Note_on_c, 0, 79, 0
2, 247190, Note_on_c, 0, 79, 70
2, 247670, Note_on_c, 0, 79, 0
2, 247670, Note_on_c, 0, 81, 70
2, 248390, Note_on_c, 0, 83, 70
2, 248462, Note_on_c, 0, 81, 0
2, 248630, Note_on_c, 0, 79, 70
2, 248702, Note_on_c, 0, 83, 0
2, 248966, Note_on_c, 0, 79, 0
2, 249110, Note_on_c, 0, 79, 70
2, 249350, Note_on_c, 0, 79, 0
2, 249590, Note_on_c, 0, 81, 70
2, 250310, Note_on_c, 0, 83, 70
2, 250382, Note_on_c, 0, 81, 0
2, 250550, Note_on_c, 0, 79, 70
2, 250634, Note_on_c, 0, 83, 0
2, 250934, Note_on_c, 0, 79, 0
2, 251030, Note_on_c, 0, 84, 70
2, 251474, Note_on_c, 0, 84, 0
2, 251510, Note_on_c, 0, 83, 70
2, 252470, Note_on_c, 0, 81, 70
2, 252566, Note_on_c, 0, 83, 0
2, 252950, Note_on_c, 0, 81, 0
2, 253910, Note_on_c, 0, 81, 70
2, 254318, Note_on_c, 0, 81, 0
2, 254390, Note_on_c, 0, 81, 70
2, 254798, Note_on_c, 0, 81, 0
2, 254870, Note_on_c, 0, 81, 70
2, 255314, Note_on_c, 0, 81, 0
2, 255350, Note_on_c, 0, 83, 70
2, 256070, Note_on_c, 0, 84, 70
2, 256106, Note_on_c, 0, 83, 0
2, 256310, Note_on_c, 0, 81, 70
2, 256358, Note_on_c, 0, 84, 0
2, 256718, Note_on_c, 0, 81, 0
2, 256790, Note_on_c, 0, 81, 70
2, 257018, Note_on_c, 0, 81, 0
2, 257270, Note_on_c, 0, 83, 70
2, 257990, Note_on_c, 0, 84, 70
2, 258062, Note_on_c, 0, 83, 0
2, 258230, Note_on_c, 0, 81, 70
2, 258290, Note_on_c, 0, 84, 0
2, 258626, Note_on_c, 0, 81, 0
2, 258710, Note_on_c, 0, 86, 70
2, 259130, Note_on_c, 0, 86, 0
2, 259190, Note_on_c, 0, 84, 70
2, 260150, Note_on_c, 0, 83, 70
2, 260234, Note_on_c, 0, 84, 0
2, 260630, Note_on_c, 0, 83, 0
2, 329270, Note_on_c, 0, 84, 70
2, 330230, Note_on_c, 0, 84, 0
2, 330230, Note_on_c, 0, 83, 70
2, 331190, Note_on_c, 0, 83, 0
2, 331190, Note_on_c, 0, 81, 70
2, 332150, Note_on_c, 0, 81, 0
2, 332150, Note_on_c, 0, 79, 70
2, 332630, Note_on_c, 0, 79, 0
2, 342710, Note_on_c, 0, 74, 70
2, 342950, Note_on_c, 0, 74, 0
2, 342950, Note_on_c, 0, 77, 70
2, 343190, Note_on_c, 0, 77, 0
2, 343190, Note_on_c, 0, 76, 70
2, 343430, Note_on_c, 0, 76, 0
2, 343430, Note_on_c, 0, 79, 70
2, 343670, Note_on_c, 0, 79, 0
2, 343670, Note_on_c, 0, 77, 70
2, 344150, Note_on_c, 0, 77, 0
2, 346550, Note_on_c, 0, 74, 70
2, 346790, Note_on_c, 0, 74, 0
2, 346790, Note_on_c, 0, 77, 70
2, 347030, Note_on_c, 0, 77, 0
2, 347030, Note_on_c, 0, 76, 70
2, 347270, Note_on_c, 0, 76, 0
2, 347270, Note_on_c, 0, 79, 70
2, 347510, Note_on_c, 0, 79, 0
2, 347510, Note_on_c, 0, 77, 70
2, 347990, Note_on_c, 0, 77, 0
2, 363830, Note_on_c, 0, 76, 105
2, 364310, Note_on_c, 0, 76, 0
2, 364310, Note_on_c, 0, 76, 105
2, 364790, Note_on_c, 0, 76, 0
2, 364790, Note_on_c, 0, 76, 105
2, 365750, Note_on_c, 0, 76, 0
2, 365750, Note_on_c, 0, 79, 105
2, 365990, Note_on_c, 0, 79, 0
2, 365990, Note_on_c, 0, 77, 105
2, 366230, Note_on_c, 0, 77, 0
2, 366230, Note_on_c, 0, 76, 105
2, 366470, Note_on_c, 0, 76, 0
2, 366470, Note_on_c, 0, 77, 105
2, 366710, Note_on_c, 0, 77, 0
2, 366710, Note_on_c, 0, 76, 105
2, 367190, Note_on_c, 0, 76, 0
2, 367670, Note_on_c, 0, 84, 105
2, 368390, Note_on_c, 0, 84, 0
2, 368390, Note_on_c, 0, 83, 105
2, 368630, Note_on_c, 0, 83, 0
2, 368630, Note_on_c, 0, 83, 105
2, 368870, Note_on_c, 0, 83, 0
2, 368870, Note_on_c, 0, 81, 105
2, 369110, Note_on_c, 0, 81, 0
2, 369110, Note_on_c, 0, 79, 105
2, 369590, Note_on_c, 0, 79, 0
2, 369590, Note_on_c, 0, 84, 105
2, 370310, Note_on_c, 0, 84, 0
2, 370310, Note_on_c, 0, 83, 105
2, 370550, Note_on_c, 0, 83, 0
2, 370550, Note_on_c, 0, 83, 105
2, 370790, Note_on_c, 0, 83, 0
2, 370790, Note_on_c, 0, 81, 105
2, 371030, Note_on_c, 0, 81, 0
2, 371030, Note_on_c, 0, 79, 105
2, 371510, Note_on_c, 0, 79, 0
2, 371510, Note_on_c, 0, 72, 105
2, 371990, Note_on_c, 0, 72, 0
2, 371990, Note_on_c, 0, 72, 105
2, 372470, Note_on_c, 0, 72, 0
2, 372470, Note_on_c, 0, 72, 105
2, 373430, Note_on_c, 0, 72, 0
2, 373430, Note_on_c, 0, 76, 105
2, 373670, Note_on_c, 0, 76, 0
2, 373670, Note_on_c, 0, 74, 105
2, 373910, Note_on_c, 0, 74, 0
2, 373910, Note_on_c, 0, 72, 105
2, 374150, Note_on_c, 0, 72, 0
2, 374150, Note_on_c, 0, 74, 105
2, 374390, Note_on_c, 0, 74, 0
2, 374390, Note_on_c, 0, 76, 105
2, 374870, Note_on_c, 0, 76, 0
2, 374870, Note_on_c, 0, 76, 105
2, 375350, Note_on_c, 0, 76, 0
2, 375350, Note_on_c, 0, 79, 105
2, 375590, Note_on_c, 0, 79, 0
2, 375590, Note_on_c, 0, 77, 105
2, 375830, Note_on_c, 0, 77, 0
2, 375830, Note_on_c, 0, 76, 105
2, 376070, Note_on_c, 0, 76, 0
2, 376070, Note_on_c, 0, 77, 105
2, 376310, Note_on_c, 0, 77, 0
2, 376310, Note_on_c, 0, 79, 105
2, 376790, Note_on_c, 0, 79, 0
2, 376790, Note_on_c, 0, 76, 105
2, 377270, Note_on_c, 0, 76, 0
2, 377270, Note_on_c, 0, 79, 105
2, 377510, Note_on_c, 0, 79, 0
2, 377510, Note_on_c, 0, 77, 105
2, 377750, Note_on_c, 0, 77, 0
2, 377750, Note_on_c, 0, 76, 105
2, 377990, Note_on_c, 0, 76, 0
2, 377990, Note_on_c, 0, 74, 105
2, 378230, Note_on_c, 0, 74, 0
2, 378230, Note_on_c, 0, 72, 105
2, 378710, Note_on_c, 0, 72, 0
2, 382550, Note_on_c, 0, 72, 105
2, 382646, Note_on_c, 0, 72, 0
2, 382790, Note_on_c, 0, 72, 105
2, 382886, Note_on_c, 0, 72, 0
2, 383030, Note_on_c, 0, 71, 105
2, 383270, Note_on_c, 0, 71, 0
2, 383270, Note_on_c, 0, 74, 105
2, 383510, Note_on_c, 0, 74, 0
2, 383510, Note_on_c, 0, 77, 105
2, 383606, Note_on_c, 0, 77, 0
2, 383750, Note_on_c, 0, 77, 105
2, 383846, Note_on_c, 0, 77, 0
2, 383990, Note_on_c, 0, 72, 105
2, 384230, Note_on_c, 0, 72, 0
2, 384230, Note_on_c, 0, 76, 105
2, 384470, Note_on_c, 0, 76, 0
2, 384470, Note_on_c, 0, 79, 105
2, 384566, Note_on_c, 0, 79, 0
2, 384710, Note_on_c, 0, 79, 105
2, 384806, Note_on_c, 0, 79, 0
2, 384950, Note_on_c, 0, 74, 105
2, 385190, Note_on_c, 0, 74, 0
2, 385190, Note_on_c, 0, 79, 105
2, 385430, Note_on_c, 0, 79, 0
2, 385430, Note_on_c, 0, 83, 105
2, 385526, Note_on_c, 0, 83, 0
2, 385670, Note_on_c, 0, 83, 105
2, 385766, Note_on_c, 0, 83, 0
2, 385910, Note_on_c, 0, 84, 105
2, 386390, Note_on_c, 0, 84, 0
2, 386390, Note_on_c, 0, 72, 105
2, 386486, Note_on_c, 0, 72, 0
2, 386630, Note_on_c, 0, 72, 105
2, 386726, Note_on_c, 0, 72, 0
2, 386870, Note_on_c, 0, 71, 105
2, 387110, Note_on_c, 0, 71, 0
2, 387110, Note_on_c, 0, 74, 105
2, 387350, Note_on_c, 0, 74, 0
2, 387350, Note_on_c, 0, 77, 105
2, 387446, Note_on_c, 0, 77, 0
2, 387590, Note_on_c, 0, 77, 105
2, 387686, Note_on_c, 0, 77, 0
2, 387830, Note_on_c, 0, 72, 105
2, 388070, Note_on_c, 0, 72, 0
2, 388070, Note_on_c, 0, 76, 105
2, 388310, Note_on_c, 0, 76, 0
2, 388310, Note_on_c, 0, 79, 105
2, 388406, Note_on_c, 0, 79, 0
2, 388550, Note_on_c, 0, 79, 105
2, 388646, Note_on_c, 0, 79, 0
2, 388790, Note_on_c, 0, 71, 105
2, 389030, Note_on_c, 0, 71, 0
2, 389030, Note_on_c, 0, 76, 105
2, 389270, Note_on_c, 0, 76, 0
2, 389270, Note_on_c, 0, 80, 105
2, 389366, Note_on_c, 0, 80, 0
2, 389510, Note_on_c, 0, 80, 105
2, 389606, Note_on_c, 0, 80, 0
2, 389750, Note_on_c, 0, 81, 105
2, 390230, Note_on_c, 0, 81, 0
2, 390230, Note_on_c, 0, 69, 105
2, 390326, Note_on_c, 0, 69, 0
2, 390470, Note_on_c, 0, 69, 105
2, 390566, Note_on_c, 0, 69, 0
2, 390710, Note_on_c, 0, 68, 105
2, 390950, Note_on_c, 0, 68, 0
2, 390950, Note_on_c, 0, 71, 105
2, 391190, Note_on_c, 0, 71, 0
2, 391190, Note_on_c, 0, 74, 105
2, 391286, Note_on_c, 0, 74, 0
2, 391430, Note_on_c, 0, 74, 105
2, 391526, Note_on_c, 0, 74, 0
2, 391670, Note_on_c, 0, 69, 105
2, 391910, Note_on_c, 0, 69, 0
2, 391910, Note_on_c, 0, 72, 105
2, 392150, Note_on_c, 0, 72, 0
2, 392150, Note_on_c, 0, 76, 105
2, 392246, Note_on_c, 0, 76, 0
2, 392390, Note_on_c, 0, 76, 105
2, 392486, Note_on_c, 0, 76, 0
2, 392630, Note_on_c, 0, 82, 105
2, 392870, Note_on_c, 0, 82, 0
2, 392870, Note_on_c, 0, 79, 105
2, 393110, Note_on_c, 0, 79, 0
2, 393110, Note_on_c, 0, 76, 105
2, 393206, Note_on_c, 0, 76, 0
2, 393350, Note_on_c, 0, 76, 105
2, 393446, Note_on_c, 0, 76, 0
2, 393590, Note_on_c, 0, 77, 105
2, 394070, Note_on_c, 0, 77, 0
2, 394070, Note_on_c, 0, 65, 105
2, 394166, Note_on_c, 0, 65, 0
2, 394310, Note_on_c, 0, 65, 105
2, 394406, Note_on_c, 0, 65, 0
2, 394550, Note_on_c, 0, 64, 105
2, 394790, Note_on_c, 0, 64, 0
2, 394790, Note_on_c, 0, 67, 105
2, 395030, Note_on_c, 0, 67, 0
2, 395030, Note_on_c, 0, 70, 105
2, 395126, Note_on_c, 0, 70, 0
2, 395270, Note_on_c, 0, 70, 105
2, 395366, Note_on_c, 0, 70, 0
2, 395510, Note_on_c, 0, 65, 105
2, 395750, Note_on_c, 0, 65, 0
2, 395750, Note_on_c, 0, 69, 105
2, 395990, Note_on_c, 0, 69, 0
2, 395990, Note_on_c, 0, 72, 105
2, 396086, Note_on_c, 0, 72, 0
2, 396230, Note_on_c, 0, 72, 105
2, 396326, Note_on_c, 0, 72, 0
2, 396470, Note_on_c, 0, 67, 105
2, 396710, Note_on_c, 0, 67, 0
2, 396710, Note_on_c, 0, 72, 105
2, 396950, Note_on_c, 0, 72, 0
2, 396950, Note_on_c, 0, 76, 105
2, 397046, Note_on_c, 0, 76, 0
2, 397190, Note_on_c, 0, 76, 105
2, 397286, Note_on_c, 0, 76, 0
2, 397430, Note_on_c, 0, 77, 105
2, 397910, Note_on_c, 0, 77, 0
2, 412790, Note_on_c, 0, 72, 70
2, 418550, Note_on_c, 0, 72, 0
2, 418550, Note_on_c, 0, 74, 70
2, 419510, Note_on_c, 0, 74, 0
2, 419510, Note_on_c, 0, 72, 70
2, 420470, Note_on_c, 0, 72, 0
2, 426230, Note_on_c, 0, 77, 70
2, 428150, Note_on_c, 0, 77, 0
2, 428150, Note_on_c, 0, 79, 70
2, 430070, Note_on_c, 0, 79, 0
2, 430070, Note_on_c, 0, 81, 70
2, 430310, Note_on_c, 0, 81, 0
2, 430310, Note_on_c, 0, 84, 70
2, 430550, Note_on_c, 0, 84, 0
2, 430550, Note_on_c, 0, 81, 70
2, 430646, Note_on_c, 0, 81, 0
2, 430790, Note_on_c, 0, 79, 70
2, 430886, Note_on_c, 0, 79, 0
2, 431030, Note_on_c, 0, 77, 70
2, 431510, Note_on_c, 0, 77, 0
2, 431510, Note_on_c, 0, 79, 70
2, 431990, Note_on_c, 0, 79, 0
2, 431990, Note_on_c, 0, 81, 70
2, 432230, Note_on_c, 0, 81, 0
2, 432230, Note_on_c, 0, 84, 70
2, 432470, Note_on_c, 0, 84, 0
2, 432470, Note_on_c, 0, 81, 70
2, 432566, Note_on_c, 0, 81, 0
2, 432710, Note_on_c, 0, 79, 70
2, 432806, Note_on_c, 0, 79, 0
2, 432950, Note_on_c, 0, 77, 70
2, 433430, Note_on_c, 0, 77, 0
2, 433430, Note_on_c, 0, 79, 70
2, 433910, Note_on_c, 0, 79, 0
2, 433910, Note_on_c, 0, 81, 70
2, 434150, Note_on_c, 0, 81, 0
2, 434150, Note_on_c, 0, 84, 70
2, 434390, Note_on_c, 0, 84, 0
2, 434390, Note_on_c, 0, 81, 70
2, 434486, Note_on_c, 0, 81, 0
2, 434630, Note_on_c, 0, 79, 70
2, 434726, Note_on_c, 0, 79, 0
2, 434870, Note_on_c, 0, 77, 70
2, 435350, Note_on_c, 0, 77, 0
2, 435350, Note_on_c, 0, 81, 70
2, 435590, Note_on_c, 0, 81, 0
2, 435590, Note_on_c, 0, 79, 70
2, 435830, Note_on_c, 0, 79, 0
2, 435830, Note_on_c, 0, 77, 70
2, 436310, Note_on_c, 0, 77, 0
2, 493430, Note_on_c, 0, 74, 70
2, 494390, Note_on_c, 0, 74, 0
2, 494390, Note_on_c, 0, 75, 70
2, 495350, Note_on_c, 0, 75, 0
2, 495350, Note_on_c, 0, 74, 70
2, 496310, Note_on_c, 0, 74, 0
2, 496310, Note_on_c, 0, 75, 70
2, 497270, Note_on_c, 0, 75, 0
2, 497270, Note_on_c, 0, 74, 70
2, 498230, Note_on_c, 0, 74, 0
2, 498230, Note_on_c, 0, 76, 70
2, 499190, Note_on_c, 0, 76, 0
2, 499190, Note_on_c, 0, 77, 70
2, 500150, Note_on_c, 0, 77, 0
2, 500150, Note_on_c, 0, 74, 70
2, 501110, Note_on_c, 0, 74, 0
2, 501110, Note_on_c, 0, 76, 70
2, 501590, Note_on_c, 0, 76, 0
2, 529910, Note_on_c, 0, 84, 90
2, 530870, Note_on_c, 0, 84, 0
2, 531830, Note_on_c, 0, 83, 90
2, 532790, Note_on_c, 0, 83, 0
2, 533750, Note_on_c, 0, 78, 90
2, 534710, Note_on_c, 0, 78, 0
2, 535670, Note_on_c, 0, 79, 70
2, 542390, Note_on_c, 0, 79, 0
2, 542390, Note_on_c, 0, 83, 90
2, 543350, Note_on_c, 0, 83, 0
2, 543350, Note_on_c, 0, 84, 90
2, 543830, Note_on_c, 0, 84, 0
2, 600950, Note_on_c, 0, 83, 70
2, 601430, Note_on_c, 0, 83, 0
2, 601430, Note_on_c, 0, 83, 70
2, 601670, Note_on_c, 0, 83, 0
2, 601670, Note_on_c, 0, 83, 70
2, 601910, Note_on_c, 0, 83, 0
2, 601910, Note_on_c, 0, 83, 70
2, 602390, Note_on_c, 0, 83, 0
2, 602390, Note_on_c, 0, 83, 70
2, 602870, Note_on_c, 0, 83, 0
2, 602870, Note_on_c, 0, 84, 70
2, 603350, Note_on_c, 0, 84, 0
2, 603350, Note_on_c, 0, 77, 90
2, 604310, Note_on_c, 0, 77, 0
2, 604310, Note_on_c, 0, 76, 70
2, 604790, Note_on_c, 0, 76, 0
2, 607190, Note_on_c, 0, 77, 90
2, 608150, Note_on_c, 0, 77, 0
2, 608150, Note_on_c, 0, 76, 70
2, 608630, Note_on_c, 0, 76, 0
2, 614390, Note_on_c, 0, 74, 70
2, 616310, Note_on_c, 0, 74, 0
2, 616310, Note_on_c, 0, 77, 70
2, 618230, Note_on_c, 0, 77, 0
2, 618230, Note_on_c, 0, 76, 70
2, 618710, Note_on_c, 0, 76, 0
2, 683510, Note_on_c, 0, 84, 90
2, 687350, Note_on_c, 0, 84, 0
2, 687350, Note_on_c, 0, 81, 105
2, 688310, Note_on_c, 0, 81, 0
2, 688310, Note_on_c, 0, 83, 105
2, 689270, Note_on_c, 0, 83, 0
2, 689270, Note_on_c, 0, 84, 105
2, 690230, Note_on_c, 0, 84, 0
2, 690230, Note_on_c, 0, 78, 105
2, 691190, Note_on_c, 0, 78, 0
2, 691190, Note_on_c, 0, 79, 105
2, 692150, Note_on_c, 0, 79, 0
2, 695030, Note_on_c, 0, 72, 90
2, 695510, Note_on_c, 0, 72, 0
2, 696950, Note_on_c, 0, 67, 105
2, 697430, Note_on_c, 0, 67, 0
2, 698870, Note_on_c, 0, 79, 105
2, 702710, Note_on_c, 0, 79, 0
2, 702710, Note_on_c, 0, 79, 105
2, 703670, Note_on_c, 0, 79, 0
2, 703670, Note_on_c, 0, 84, 105
2, 705590, Note_on_c, 0, 84, 0
2, 705590, Note_on_c, 0, 83, 105
2, 706550, Note_on_c, 0, 83, 0
2, 706550, Note_on_c, 0, 84, 105
2, 707510, Note_on_c, 0, 84, 0
2, 737270, Note_on_c, 0, 72, 70
2, 739190, Note_on_c, 0, 72, 0
2, 739190, Note_on_c, 0, 74, 70
2, 741110, Note_on_c, 0, 74, 0
2, 741110, Note_on_c, 0, 76, 70
2, 741350, Note_on_c, 0, 76, 0
2, 741350, Note_on_c, 0, 79, 70
2, 741590, Note_on_c, 0, 79, 0
2, 741590, Note_on_c, 0, 76, 70
2, 741686, Note_on_c, 0, 76, 0
2, 741830, Note_on_c, 0, 74, 70
2, 741926, Note_on_c, 0, 74, 0
2, 742070, Note_on_c, 0, 72, 70
2, 742550, Note_on_c, 0, 72, 0
2, 742550, Note_on_c, 0, 74, 70
2, 743030, Note_on_c, 0, 74, 0
2, 743030, Note_on_c, 0, 76, 70
2, 743270, Note_on_c, 0, 76, 0
2, 743270, Note_on_c, 0, 79, 70
2, 743510, Note_on_c, 0, 79, 0
2, 743510, Note_on_c, 0, 76, 70
2, 743606, Note_on_c, 0, 76, 0
2, 743750, Note_on_c, 0, 74, 70
2, 743846, Note_on_c, 0, 74, 0
2, 743990, Note_on_c, 0, 72, 70
2, 744470, Note_on_c, 0, 72, 0
2, 744470, Note_on_c, 0, 74, 70
2, 744950, Note_on_c, 0, 74, 0
2, 744950, Note_on_c, 0, 76, 70
2, 745190, Note_on_c, 0, 76, 0
2, 745190, Note_on_c, 0, 79, 70
2, 745430, Note_on_c, 0, 79, 0
2, 745430, Note_on_c, 0, 76, 70
2, 745526, Note_on_c, 0, 76, 0
2, 745670, Note_on_c, 0, 74, 70
2, 745766, Note_on_c, 0, 74, 0
2, 745910, Note_on_c, 0, 72, 70
2, 746390, Note_on_c, 0, 72, 0
2, 746390, Note_on_c, 0, 76, 70
2, 746630, Note_on_c, 0, 76, 0
2, 746630, Note_on_c, 0, 74, 70
2, 746870, Note_on_c, 0, 74, 0
2, 746870, Note_on_c, 0, 72, 70
2, 747350, Note_on_c, 0, 72, 0
2, 748310, Note_on_c, 0, 74, 105
2, 748790, Note_on_c, 0, 74, 0
2, 748790, Note_on_c, 0, 76, 105
2, 749750, Note_on_c, 0, 76, 0
2, 750230, Note_on_c, 0, 74, 105
2, 750710, Note_on_c, 0, 74, 0
2, 750710, Note_on_c, 0, 76, 105
2, 751670, Note_on_c, 0, 76, 0
2, 752150, Note_on_c, 0, 74, 105
2, 752630, Note_on_c, 0, 74, 0
2, 752630, Note_on_c, 0, 76, 105
2, 753590, Note_on_c, 0, 76, 0
2, 753590, Note_on_c, 0, 79, 105
2, 754550, Note_on_c, 0, 79, 0
2, 754550, Note_on_c, 0, 84, 105
2, 755510, Note_on_c, 0, 84, 0
2, 755510, End_track
3, 0, Start_track
3, 0, Title_t, "Oboe"
3, 0, Control_c, 1, 0, 0
3, 0, Control_c, 1, 7, 100
3, 0, Control_c, 1, 10, 60
3, 0, Control_c, 1, 91, 103
3, 0, Control_c, 1, 93, 94
3, 1, Control_c, 1, 32, 1
3, 2, Program_c, 1, 68
3, 16310, Note_on_c, 1, 72, 84
3, 16714, Note_on_c, 1, 72, 0
3, 16790, Note_on_c, 1, 72, 84
3, 17186, Note_on_c, 1, 72, 0
3, 17270, Note_on_c, 1, 72, 84
3, 18130, Note_on_c, 1, 72, 0
3, 18230, Note_on_c, 1, 76, 83
3, 18470, Note_on_c, 1, 74, 83
3, 18522, Note_on_c, 1, 76, 0
3, 18658, Note_on_c, 1, 74, 0
3, 18710, Note_on_c, 1, 72, 82
3, 18950, Note_on_c, 1, 74, 96
3, 19010, Note_on_c, 1, 72, 0
3, 19154, Note_on_c, 1, 74, 0
3, 20150, Note_on_c, 1, 76, 100
3, 20810, Note_on_c, 1, 76, 0
3, 20870, Note_on_c, 1, 79, 99
3, 21066, Note_on_c, 1, 79, 0
3, 21110, Note_on_c, 1, 79, 98
3, 21350, Note_on_c, 1, 77, 98
3, 21386, Note_on_c, 1, 79, 0
3, 21590, Note_on_c, 1, 76, 100
3, 21634, Note_on_c, 1, 77, 0
3, 22010, Note_on_c, 1, 76, 0
3, 22070, Note_on_c, 1, 76, 100
3, 22722, Note_on_c, 1, 76, 0
3, 22790, Note_on_c, 1, 79, 93
3, 22970, Note_on_c, 1, 79, 0
3, 23030, Note_on_c, 1, 79, 94
3, 23270, Note_on_c, 1, 77, 96
3, 23314, Note_on_c, 1, 79, 0
3, 23510, Note_on_c, 1, 76, 98
3, 23570, Note_on_c, 1, 77, 0
3, 23930, Note_on_c, 1, 76, 0
3, 23990, Note_on_c, 1, 67, 97
3, 24418, Note_on_c, 1, 67, 0
3, 24470, Note_on_c, 1, 67, 96
3, 24890, Note_on_c, 1, 67, 0
3, 24950, Note_on_c, 1, 67, 95
3, 25858, Note_on_c, 1, 67, 0
3, 25910, Note_on_c, 1, 72, 100
3, 26150, Note_on_c, 1, 71, 100
3, 26202, Note_on_c, 1, 72, 0
3, 26346, Note_on_c, 1, 71, 0
3, 26390, Note_on_c, 1, 69, 97
3, 26630, Note_on_c, 1, 71, 95
3, 26666, Note_on_c, 1, 69, 0
3, 26810, Note_on_c, 1, 71, 0
3, 26870, Note_on_c, 1, 72, 96
3, 27258, Note_on_c, 1, 72, 0
3, 27350, Note_on_c, 1, 72, 104
3, 27754, Note_on_c, 1, 72, 0
3, 27830, Note_on_c, 1, 76, 105
3, 28070, Note_on_c, 1, 74, 105
3, 28098, Note_on_c, 1, 76, 0
3, 28274, Note_on_c, 1, 74, 0
3, 28310, Note_on_c, 1, 72, 101
3, 28550, Note_on_c, 1, 74, 100
3, 28610, Note_on_c, 1, 72, 0
3, 28738, Note_on_c, 1, 74, 0
3, 28790, Note_on_c, 1, 76, 100
3, 29202, Note_on_c, 1, 76, 0
3, 29270, Note_on_c, 1, 72, 100
3, 29698, Note_on_c, 1, 72, 0
3, 29750, Note_on_c, 1, 76, 94
3, 29990, Note_on_c, 1, 74, 96
3, 30042, Note_on_c, 1, 76, 0
3, 30170, Note_on_c, 1, 74, 0
3, 30230, Note_on_c, 1, 72, 100
3, 30470, Note_on_c, 1, 71, 103
3, 30514, Note_on_c, 1, 72, 0
3, 30634, Note_on_c, 1, 71, 0
3, 34550, Note_on_c, 1, 76, 105
3, 36470, Note_on_c, 1, 77, 105
3, 36562, Note_on_c, 1, 76, 0
3, 38314, Note_on_c, 1, 77, 0
3, 38390, Note_on_c, 1, 76, 105
3, 38666, Note_on_c, 1, 76, 0
3, 49910, Note_on_c, 1, 71, 89
3, 51830, Note_on_c, 1, 74, 95
3, 51914, Note_on_c, 1, 71, 0
3, 53666, Note_on_c, 1, 74, 0
3, 53750, Note_on_c, 1, 72, 90
3, 53968, Control_c, 1, 7, 89
3, 54048, Control_c, 1, 7, 86
3, 54068, Control_c, 1, 7, 82
3, 54080, Control_c, 1, 7, 80
3, 54096, Control_c, 1, 7, 74
3, 54108, Control_c, 1, 7, 68
3, 54114, Note_on_c, 1, 72, 0
3, 54124, Control_c, 1, 7, 63
3, 54136, Control_c, 1, 7, 53
3, 54152, Control_c, 1, 7, 37
3, 54164, Control_c, 1, 7, 18
3, 54180, Control_c, 1, 7, 11
3, 54200, Control_c, 1, 7, 8
3, 54536, Control_c, 1, 7, 89
3, 67670, Note_on_c, 1, 76, 97
3, 68338, Note_on_c, 1, 76, 0
3, 68390, Note_on_c, 1, 72, 99
3, 68630, Note_on_c, 1, 74, 106
3, 68722, Note_on_c, 1, 72, 0
3, 68834, Note_on_c, 1, 74, 0
3, 68870, Note_on_c, 1, 71, 95
3, 69058, Note_on_c, 1, 71, 0
3, 76790, Note_on_c, 1, 67, 80
3, 80066, Note_on_c, 1, 67, 0
3, 80150, Note_on_c, 1, 74, 100
3, 80346, Note_on_c, 1, 74, 0
3, 80390, Note_on_c, 1, 71, 90
3, 80586, Note_on_c, 1, 71, 0
3, 93110, Note_on_c, 1, 76, 105
3, 94002, Note_on_c, 1, 76, 0
3, 94070, Note_on_c, 1, 74, 105
3, 95938, Note_on_c, 1, 74, 0
3, 95990, Note_on_c, 1, 76, 105
3, 96950, Note_on_c, 1, 76, 0
3, 99830, Note_on_c, 1, 67, 90
3, 101698, Note_on_c, 1, 67, 0
3, 101750, Note_on_c, 1, 71, 97
3, 103618, Note_on_c, 1, 71, 0
3, 103670, Note_on_c, 1, 72, 104
3, 104150, Note_on_c, 1, 72, 0
3, 104150, Note_on_c, 1, 67, 123
3, 105110, Note_on_c, 1, 71, 100
3, 105186, Note_on_c, 1, 67, 0
3, 105474, Note_on_c, 1, 71, 0
3, 105590, Note_on_c, 1, 72, 101
3, 106058, Note_on_c, 1, 72, 0
3, 106070, Note_on_c, 1, 67, 120
3, 107030, Note_on_c, 1, 71, 97
3, 107130, Note_on_c, 1, 67, 0
3, 107410, Note_on_c, 1, 71, 0
3, 107510, Note_on_c, 1, 72, 104
3, 107990, Note_on_c, 1, 72, 0
3, 107990, Note_on_c, 1, 67, 116
3, 108230, Note_on_c, 1, 74, 116
3, 108326, Note_on_c, 1, 74, 0
3, 108470, Note_on_c, 1, 72, 108
3, 108950, Note_on_c, 1, 71, 99
3, 109034, Note_on_c, 1, 72, 0
3, 109042, Note_on_c, 1, 67, 0
3, 109362, Note_on_c, 1, 71, 0
3, 145910, Note_on_c, 1, 64, 105
3, 146290, Note_on_c, 1, 64, 0
3, 146390, Note_on_c, 1, 64, 105
3, 146554, Note_on_c, 1, 64, 0
3, 146630, Note_on_c, 1, 64, 105
3, 146786, Note_on_c, 1, 64, 0
3, 146870, Note_on_c, 1, 64, 105
3, 147282, Note_on_c, 1, 64, 0
3, 147350, Note_on_c, 1, 64, 105
3, 147770, Note_on_c, 1, 64, 0
3, 147830, Note_on_c, 1, 64, 105
3, 148234, Note_on_c, 1, 64, 0
3, 148310, Note_on_c, 1, 72, 105
3, 148490, Note_on_c, 1, 72, 0
3, 148550, Note_on_c, 1, 72, 105
3, 148738, Note_on_c, 1, 72, 0
3, 148790, Note_on_c, 1, 72, 105
3, 149170, Note_on_c, 1, 72, 0
3, 149270, Note_on_c, 1, 72, 105
3, 149750, Note_on_c, 1, 72, 0
3, 201590, Note_on_c, 1, 73, 90
3, 202550, Note_on_c, 1, 73, 0
3, 203510, Note_on_c, 1, 74, 90
3, 204470, Note_on_c, 1, 74, 0
3, 205430, Note_on_c, 1, 79, 90
3, 206390, Note_on_c, 1, 79, 0
3, 207350, Note_on_c, 1, 78, 70
3, 207830, Note_on_c, 1, 78, 0
3, 211190, Note_on_c, 1, 74, 105
3, 214070, Note_on_c, 1, 74, 0
3, 214070, Note_on_c, 1, 72, 105
3, 215030, Note_on_c, 1, 72, 0
3, 215030, Note_on_c, 1, 71, 105
3, 215510, Note_on_c, 1, 71, 0
3, 246230, Note_on_c, 1, 71, 70
3, 246710, Note_on_c, 1, 74, 70
3, 246782, Note_on_c, 1, 71, 0
3, 247286, Note_on_c, 1, 74, 0
3, 247670, Note_on_c, 1, 78, 70
3, 248702, Note_on_c, 1, 78, 0
3, 249110, Note_on_c, 1, 74, 70
3, 249350, Note_on_c, 1, 74, 0
3, 249590, Note_on_c, 1, 78, 70
3, 250622, Note_on_c, 1, 78, 0
3, 251030, Note_on_c, 1, 79, 70
3, 251462, Note_on_c, 1, 79, 0
3, 251510, Note_on_c, 1, 79, 70
3, 252470, Note_on_c, 1, 78, 70
3, 252590, Note_on_c, 1, 79, 0
3, 252950, Note_on_c, 1, 78, 0
3, 253910, Note_on_c, 1, 78, 70
3, 254342, Note_on_c, 1, 78, 0
3, 254390, Note_on_c, 1, 78, 70
3, 254798, Note_on_c, 1, 78, 0
3, 254870, Note_on_c, 1, 78, 70
3, 255302, Note_on_c, 1, 78, 0
3, 255350, Note_on_c, 1, 79, 70
3, 256070, Note_on_c, 1, 81, 70
3, 256118, Note_on_c, 1, 79, 0
3, 256310, Note_on_c, 1, 81, 0
3, 256310, Note_on_c, 1, 78, 70
3, 256706, Note_on_c, 1, 78, 0
3, 256790, Note_on_c, 1, 78, 70
3, 257018, Note_on_c, 1, 78, 0
3, 257270, Note_on_c, 1, 79, 70
3, 257990, Note_on_c, 1, 81, 70
3, 258050, Note_on_c, 1, 79, 0
3, 258230, Note_on_c, 1, 81, 0
3, 258230, Note_on_c, 1, 78, 70
3, 258626, Note_on_c, 1, 78, 0
3, 258710, Note_on_c, 1, 81, 70
3, 259106, Note_on_c, 1, 81, 0
3, 259190, Note_on_c, 1, 81, 70
3, 260150, Note_on_c, 1, 79, 70
3, 260234, Note_on_c, 1, 81, 0
3, 260630, Note_on_c, 1, 79, 0
3, 329270, Note_on_c, 1, 81, 70
3, 330230, Note_on_c, 1, 81, 0
3, 330230, Note_on_c, 1, 79, 70
3, 331190, Note_on_c, 1, 79, 0
3, 331190, Note_on_c, 1, 72, 70
3, 332150, Note_on_c, 1, 72, 0
3, 332150, Note_on_c, 1, 71, 70
3, 332630, Note_on_c, 1, 71, 0
3, 342710, Note_on_c, 1, 71, 70
3, 342950, Note_on_c, 1, 71, 0
3, 342950, Note_on_c, 1, 74, 70
3, 343190, Note_on_c, 1, 74, 0
3, 343190, Note_on_c, 1, 73, 70
3, 343430, Note_on_c, 1, 73, 0
3, 343430, Note_on_c, 1, 76, 70
3, 343670, Note_on_c, 1, 76, 0
3, 343670, Note_on_c, 1, 74, 70
3, 344150, Note_on_c, 1, 74, 0
3, 346550, Note_on_c, 1, 71, 70
3, 346790, Note_on_c, 1, 71, 0
3, 346790, Note_on_c, 1, 74, 70
3, 347030, Note_on_c, 1, 74, 0
3, 347030, Note_on_c, 1, 73, 70
3, 347270, Note_on_c, 1, 73, 0
3, 347270, Note_on_c, 1, 76, 70
3, 347510, Note_on_c, 1, 76, 0
3, 347510, Note_on_c, 1, 74, 70
3, 347990, Note_on_c, 1, 74, 0
3, 363830, Note_on_c, 1, 72, 105
3, 364310, Note_on_c, 1, 72, 0
3, 364310, Note_on_c, 1, 72, 105
3, 364790, Note_on_c, 1, 72, 0
3, 364790, Note_on_c, 1, 72, 105
3, 365750, Note_on_c, 1, 72, 0
3, 365750, Note_on_c, 1, 71, 105
3, 366710, Note_on_c, 1, 71, 0
3, 366710, Note_on_c, 1, 72, 105
3, 367190, Note_on_c, 1, 72, 0
3, 371510, Note_on_c, 1, 67, 105
3, 371990, Note_on_c, 1, 67, 0
3, 371990, Note_on_c, 1, 67, 105
3, 372470, Note_on_c, 1, 67, 0
3, 372470, Note_on_c, 1, 67, 105
3, 373430, Note_on_c, 1, 67, 0
3, 373430, Note_on_c, 1, 72, 105
3, 373670, Note_on_c, 1, 72, 0
3, 373670, Note_on_c, 1, 71, 105
3, 373910, Note_on_c, 1, 71, 0
3, 373910, Note_on_c, 1, 69, 105
3, 374150, Note_on_c, 1, 69, 0
3, 374150, Note_on_c, 1, 71, 105
3, 374390, Note_on_c, 1, 71, 0
3, 374390, Note_on_c, 1, 72, 105
3, 374870, Note_on_c, 1, 72, 0
3, 374870, Note_on_c, 1, 72, 105
3, 375350, Note_on_c, 1, 72, 0
3, 375350, Note_on_c, 1, 71, 105
3, 376310, Note_on_c, 1, 71, 0
3, 376310, Note_on_c, 1, 67, 105
3, 376790, Note_on_c, 1, 67, 0
3, 376790, Note_on_c, 1, 72, 105
3, 377270, Note_on_c, 1, 72, 0
3, 377270, Note_on_c, 1, 76, 105
3, 377510, Note_on_c, 1, 76, 0
3, 377510, Note_on_c, 1, 74, 105
3, 377750, Note_on_c, 1, 74, 0
3, 377750, Note_on_c, 1, 72, 105
3, 377990, Note_on_c, 1, 72, 0
3, 377990, Note_on_c, 1, 71, 105
3, 378230, Note_on_c, 1, 71, 0
3, 412790, Note_on_c, 1, 69, 70
3, 418550, Note_on_c, 1, 69, 0
3, 418550, Note_on_c, 1, 70, 70
3, 419510, Note_on_c, 1, 70, 0
3, 419510, Note_on_c, 1, 69, 70
3, 420470, Note_on_c, 1, 69, 0
3, 426230, Note_on_c, 1, 72, 70
3, 428150, Note_on_c, 1, 72, 0
3, 428150, Note_on_c, 1, 76, 70
3, 430070, Note_on_c, 1, 76, 0
3, 430070, Note_on_c, 1, 77, 70
3, 430550, Note_on_c, 1, 77, 0
3, 430550, Note_on_c, 1, 72, 70
3, 431510, Note_on_c, 1, 72, 0
3, 431510, Note_on_c, 1, 76, 70
3, 431990, Note_on_c, 1, 76, 0
3, 431990, Note_on_c, 1, 77, 70
3, 432470, Note_on_c, 1, 77, 0
3, 432470, Note_on_c, 1, 72, 70
3, 433430, Note_on_c, 1, 72, 0
3, 433430, Note_on_c, 1, 76, 70
3, 433910, Note_on_c, 1, 76, 0
3, 433910, Note_on_c, 1, 77, 70
3, 434390, Note_on_c, 1, 77, 0
3, 434390, Note_on_c, 1, 72, 70
3, 435350, Note_on_c, 1, 72, 0
3, 435350, Note_on_c, 1, 76, 70
3, 435830, Note_on_c, 1, 76, 0
3, 493430, Note_on_c, 1, 71, 70
3, 494390, Note_on_c, 1, 71, 0
3, 494390, Note_on_c, 1, 72, 70
3, 495350, Note_on_c, 1, 72, 0
3, 495350, Note_on_c, 1, 71, 70
3, 496310, Note_on_c, 1, 71, 0
3, 496310, Note_on_c, 1, 72, 70
3, 497270, Note_on_c, 1, 72, 0
3, 497270, Note_on_c, 1, 71, 70
3, 498230, Note_on_c, 1, 71, 0
3, 498230, Note_on_c, 1, 73, 70
3, 499190, Note_on_c, 1, 73, 0
3, 499190, Note_on_c, 1, 74, 70
3, 500150, Note_on_c, 1, 74, 0
3, 500150, Note_on_c, 1, 71, 70
3, 501110, Note_on_c, 1, 71, 0
3, 501110, Note_on_c, 1, 72, 70
3, 501590, Note_on_c, 1, 72, 0
3, 529910, Note_on_c, 1, 78, 90
3, 530870, Note_on_c, 1, 78, 0
3, 531830, Note_on_c, 1, 79, 90
3, 532790, Note_on_c, 1, 79, 0
3, 533750, Note_on_c, 1, 72, 90
3, 534710, Note_on_c, 1, 72, 0
3, 535670, Note_on_c, 1, 71, 70
3, 536150, Note_on_c, 1, 71, 0
3, 542390, Note_on_c, 1, 77, 90
3, 543350, Note_on_c, 1, 77, 0
3, 543350, Note_on_c, 1, 76, 90
3, 543830, Note_on_c, 1, 76, 0
3, 600950, Note_on_c, 1, 77, 70
3, 601430, Note_on_c, 1, 77, 0
3, 601430, Note_on_c, 1, 77, 70
3, 601670, Note_on_c, 1, 77, 0
3, 601670, Note_on_c, 1, 77, 70
3, 601910, Note_on_c, 1, 77, 0
3, 601910, Note_on_c, 1, 77, 70
3, 602390, Note_on_c, 1, 77, 0
3, 602390, Note_on_c, 1, 77, 70
3, 602870, Note_on_c, 1, 77, 0
3, 602870, Note_on_c, 1, 76, 70
3, 603350, Note_on_c, 1, 76, 0
3, 614390, Note_on_c, 1, 71, 70
3, 616310, Note_on_c, 1, 71, 0
3, 616310, Note_on_c, 1, 74, 70
3, 618230, Note_on_c, 1, 74, 0
3, 618230, Note_on_c, 1, 72, 70
3, 618710, Note_on_c, 1, 72, 0
3, 683510, Note_on_c, 1, 76, 90
3, 687350, Note_on_c, 1, 76, 0
3, 687350, Note_on_c, 1, 77, 105
3, 689270, Note_on_c, 1, 77, 0
3, 690230, Note_on_c, 1, 72, 105
3, 691190, Note_on_c, 1, 72, 0
3, 691190, Note_on_c, 1, 72, 105
3, 692150, Note_on_c, 1, 72, 0
3, 698870, Note_on_c, 1, 76, 105
3, 700790, Note_on_c, 1, 76, 0
3, 700790, Note_on_c, 1, 77, 105
3, 702710, Note_on_c, 1, 77, 0
3, 702710, Note_on_c, 1, 76, 105
3, 704630, Note_on_c, 1, 76, 0
3, 704630, Note_on_c, 1, 74, 105
3, 706550, Note_on_c, 1, 74, 0
3, 706550, Note_on_c, 1, 72, 105
3, 707510, Note_on_c, 1, 72, 0
3, 737270, Note_on_c, 1, 67, 70
3, 739190, Note_on_c, 1, 67, 0
3, 739190, Note_on_c, 1, 71, 70
3, 741110, Note_on_c, 1, 71, 0
3, 741110, Note_on_c, 1, 72, 70
3, 741590, Note_on_c, 1, 72, 0
3, 741590, Note_on_c, 1, 67, 70
3, 742550, Note_on_c, 1, 67, 0
3, 742550, Note_on_c, 1, 71, 70
3, 743030, Note_on_c, 1, 71, 0
3, 743030, Note_on_c, 1, 72, 70
3, 743510, Note_on_c, 1, 72, 0
3, 743510, Note_on_c, 1, 67, 70
3, 744470, Note_on_c, 1, 67, 0
3, 744470, Note_on_c, 1, 71, 70
3, 744950, Note_on_c, 1, 71, 0
3, 744950, Note_on_c, 1, 72, 70
3, 745430, Note_on_c, 1, 72, 0
3, 745430, Note_on_c, 1, 67, 70
3, 746390, Note_on_c, 1, 67, 0
3, 746630, Note_on_c, 1, 71, 70
3, 746870, Note_on_c, 1, 71, 0
3, 748310, Note_on_c, 1, 71, 105
3, 748790, Note_on_c, 1, 71, 0
3, 748790, Note_on_c, 1, 72, 105
3, 749750, Note_on_c, 1, 72, 0
3, 750230, Note_on_c, 1, 71, 105
3, 750710, Note_on_c, 1, 71, 0
3, 750710, Note_on_c, 1, 72, 105
3, 751670, Note_on_c, 1, 72, 0
3, 752150, Note_on_c, 1, 71, 105
3, 752630, Note_on_c, 1, 71, 0
3, 752630, Note_on_c, 1, 72, 105
3, 753590, Note_on_c, 1, 72, 0
3, 753590, Note_on_c, 1, 76, 105
3, 754550, Note_on_c, 1, 76, 0
3, 754550, Note_on_c, 1, 76, 105
3, 755510, Note_on_c, 1, 76, 0
3, 755510, End_track
4, 0, Start_track
4, 0, Title_t, "Corni in C"
4, 0, Control_c, 2, 0, 0
4, 0, Control_c, 2, 7, 100
4, 0, Control_c, 2, 10, 80
4, 0, Control_c, 2, 91, 88
4, 0, Control_c, 2, 93, 97
4, 1, Control_c, 2, 32, 1
4, 2, Program_c, 2, 60
4, 16320, Note_on_c, 2, 55, 65
4, 16320, Note_on_c, 2, 64, 65
4, 16716, Note_on_c, 2, 64, 0
4, 16716, Note_on_c, 2, 55, 0
4, 16800, Note_on_c, 2, 55, 65
4, 16800, Note_on_c, 2, 64, 65
4, 17188, Note_on_c, 2, 55, 0
4, 17212, Note_on_c, 2, 64, 0
4, 17280, Note_on_c, 2, 60, 65
4, 17280, Note_on_c, 2, 64, 65
4, 18172, Note_on_c, 2, 64, 0
4, 18180, Note_on_c, 2, 60, 0
4, 18240, Note_on_c, 2, 64, 64
4, 18240, Note_on_c, 2, 67, 64
4, 18480, Note_on_c, 2, 62, 64
4, 18480, Note_on_c, 2, 65, 64
4, 18524, Note_on_c, 2, 64, 0
4, 18532, Note_on_c, 2, 67, 0
4, 18668, Note_on_c, 2, 65, 0
4, 18676, Note_on_c, 2, 62, 0
4, 18720, Note_on_c, 2, 60, 63
4, 18720, Note_on_c, 2, 64, 63
4, 18960, Note_on_c, 2, 62, 63
4, 18960, Note_on_c, 2, 65, 63
4, 19004, Note_on_c, 2, 64, 0
4, 19012, Note_on_c, 2, 60, 0
4, 19164, Note_on_c, 2, 62, 0
4, 19172, Note_on_c, 2, 65, 0
4, 19200, Note_on_c, 2, 64, 63
4, 19200, Note_on_c, 2, 67, 63
4, 19680, Note_on_c, 2, 67, 0
4, 19680, Note_on_c, 2, 64, 0
4, 20160, Note_on_c, 2, 48, 85
4, 20160, Note_on_c, 2, 60, 85
4, 21600, Note_on_c, 2, 60, 0
4, 21600, Note_on_c, 2, 48, 0
4, 22080, Note_on_c, 2, 48, 70
4, 22080, Note_on_c, 2, 60, 70
4, 23520, Note_on_c, 2, 60, 0
4, 23520, Note_on_c, 2, 48, 0
4, 24000, Note_on_c, 2, 52, 70
4, 24000, Note_on_c, 2, 60, 70
4, 24396, Note_on_c, 2, 60, 0
4, 24396, Note_on_c, 2, 52, 0
4, 24480, Note_on_c, 2, 52, 70
4, 24480, Note_on_c, 2, 60, 70
4, 24868, Note_on_c, 2, 52, 0
4, 24892, Note_on_c, 2, 60, 0
4, 24960, Note_on_c, 2, 52, 70
4, 24960, Note_on_c, 2, 60, 70
4, 25852, Note_on_c, 2, 60, 0
4, 25852, Note_on_c, 2, 52, 0
4, 25920, Note_on_c, 2, 60, 70
4, 25920, Note_on_c, 2, 64, 70
4, 26160, Note_on_c, 2, 55, 70
4, 26160, Note_on_c, 2, 62, 70
4, 26204, Note_on_c, 2, 64, 0
4, 26220, Note_on_c, 2, 60, 0
4, 26308, Note_on_c, 2, 55, 0
4, 26332, Note_on_c, 2, 62, 0
4, 26400, Note_on_c, 2, 55, 70
4, 26400, Note_on_c, 2, 60, 70
4, 26640, Note_on_c, 2, 62, 70
4, 26692, Note_on_c, 2, 60, 0
4, 26812, Note_on_c, 2, 55, 0
4, 26820, Note_on_c, 2, 62, 0
4, 26880, Note_on_c, 2, 60, 70
4, 26880, Note_on_c, 2, 64, 70
4, 27236, Note_on_c, 2, 60, 0
4, 27260, Note_on_c, 2, 64, 0
4, 27360, Note_on_c, 2, 60, 70
4, 27360, Note_on_c, 2, 64, 70
4, 27756, Note_on_c, 2, 60, 0
4, 27764, Note_on_c, 2, 64, 0
4, 27840, Note_on_c, 2, 64, 70
4, 27840, Note_on_c, 2, 67, 70
4, 28080, Note_on_c, 2, 62, 70
4, 28080, Note_on_c, 2, 65, 70
4, 28132, Note_on_c, 2, 64, 0
4, 28140, Note_on_c, 2, 67, 0
4, 28252, Note_on_c, 2, 62, 0
4, 28260, Note_on_c, 2, 65, 0
4, 28320, Note_on_c, 2, 60, 70
4, 28320, Note_on_c, 2, 64, 70
4, 28560, Note_on_c, 2, 62, 70
4, 28560, Note_on_c, 2, 65, 70
4, 28612, Note_on_c, 2, 64, 0
4, 28620, Note_on_c, 2, 60, 0
4, 28732, Note_on_c, 2, 62, 0
4, 28732, Note_on_c, 2, 65, 0
4, 28800, Note_on_c, 2, 64, 70
4, 28800, Note_on_c, 2, 67, 70
4, 29692, Note_on_c, 2, 67, 0
4, 29708, Note_on_c, 2, 64, 0
4, 29760, Note_on_c, 2, 64, 70
4, 29760, Note_on_c, 2, 67, 70
4, 30000, Note_on_c, 2, 62, 70
4, 30000, Note_on_c, 2, 65, 70
4, 30052, Note_on_c, 2, 67, 0
4, 30060, Note_on_c, 2, 64, 0
4, 30172, Note_on_c, 2, 62, 0
4, 30172, Note_on_c, 2, 65, 0
4, 30240, Note_on_c, 2, 55, 70
4, 30240, Note_on_c, 2, 64, 70
4, 30436, Note_on_c, 2, 55, 0
4, 30480, Note_on_c, 2, 55, 70
4, 30480, Note_on_c, 2, 62, 70
4, 30540, Note_on_c, 2, 64, 0
4, 30668, Note_on_c, 2, 62, 0
4, 30676, Note_on_c, 2, 55, 0
4, 30720, Note_on_c, 2, 52, 105
4, 30720, Note_on_c, 2, 60, 105
4, 31200, Note_on_c, 2, 60, 0
4, 31200, Note_on_c, 2, 52, 0
4, 34560, Note_on_c, 2, 60, 105
4, 34560, Note_on_c, 2, 64, 105
4, 36412, Note_on_c, 2, 60, 0
4, 36428, Note_on_c, 2, 64, 0
4, 36480, Note_on_c, 2, 55, 105
4, 36480, Note_on_c, 2, 62, 105
4, 38316, Note_on_c, 2, 62, 0
4, 38316, Note_on_c, 2, 55, 0
4, 38400, Note_on_c, 2, 60, 105
4, 38400, Note_on_c, 2, 64, 105
4, 38716, Note_on_c, 2, 60, 0
4, 38724, Note_on_c, 2, 64, 0
4, 38880, Note_on_c, 2, 48, 105
4, 38880, Note_on_c, 2, 60, 105
4, 40172, Note_on_c, 2, 60, 0
4, 40196, Note_on_c, 2, 48, 0
4, 40320, Note_on_c, 2, 48, 70
4, 40320, Note_on_c, 2, 60, 70
4, 42172, Note_on_c, 2, 60, 0
4, 42172, Note_on_c, 2, 48, 0
4, 42240, Note_on_c, 2, 48, 70
4, 42240, Note_on_c, 2, 60, 70
4, 42516, Note_on_c, 2, 60, 0
4, 42548, Note_on_c, 2, 48, 0
4, 42720, Note_on_c, 2, 48, 105
4, 42720, Note_on_c, 2, 60, 105
4, 44116, Note_on_c, 2, 60, 0
4, 44124, Note_on_c, 2, 48, 0
4, 44160, Note_on_c, 2, 48, 70
4, 44160, Note_on_c, 2, 60, 70
4, 49868, Note_on_c, 2, 60, 0
4, 49868, Note_on_c, 2, 48, 0
4, 49920, Note_on_c, 2, 55, 70
4, 50284, Note_on_c, 2, 55, 0
4, 67680, Note_on_c, 2, 60, 83
4, 67680, Note_on_c, 2, 64, 83
4, 68564, Note_on_c, 2, 60, 0
4, 68572, Note_on_c, 2, 64, 0
4, 68640, Note_on_c, 2, 55, 81
4, 68640, Note_on_c, 2, 62, 81
4, 68996, Note_on_c, 2, 62, 0
4, 69004, Note_on_c, 2, 55, 0
4, 69120, Note_on_c, 2, 48, 81
4, 69120, Note_on_c, 2, 60, 81
4, 76692, Note_on_c, 2, 60, 0
4, 76708, Note_on_c, 2, 48, 0
4, 76800, Note_on_c, 2, 55, 87
4, 80500, Note_on_c, 2, 55, 0
4, 80640, Note_on_c, 2, 52, 70
4, 80640, Note_on_c, 2, 60, 70
4, 81120, Note_on_c, 2, 60, 0
4, 81120, Note_on_c, 2, 52, 0
4, 84000, Note_on_c, 2, 55, 116
4, 84132, Note_on_c, 2, 55, 0
4, 84240, Note_on_c, 2, 55, 114
4, 84380, Note_on_c, 2, 55, 0
4, 84480, Note_on_c, 2, 60, 105
4, 84892, Note_on_c, 2, 60, 0
4, 84960, Note_on_c, 2, 55, 117
4, 85124, Note_on_c, 2, 55, 0
4, 85200, Note_on_c, 2, 55, 121
4, 85356, Note_on_c, 2, 55, 0
4, 85440, Note_on_c, 2, 62, 105
4, 85868, Note_on_c, 2, 62, 0
4, 85920, Note_on_c, 2, 55, 114
4, 86084, Note_on_c, 2, 55, 0
4, 86160, Note_on_c, 2, 55, 114
4, 86364, Note_on_c, 2, 55, 0
4, 86400, Note_on_c, 2, 64, 105
4, 86880, Note_on_c, 2, 64, 0
4, 87840, Note_on_c, 2, 55, 116
4, 88004, Note_on_c, 2, 55, 0
4, 88080, Note_on_c, 2, 55, 116
4, 88252, Note_on_c, 2, 55, 0
4, 88320, Note_on_c, 2, 60, 105
4, 88732, Note_on_c, 2, 60, 0
4, 88800, Note_on_c, 2, 55, 114
4, 88956, Note_on_c, 2, 55, 0
4, 89040, Note_on_c, 2, 55, 117
4, 89228, Note_on_c, 2, 55, 0
4, 89280, Note_on_c, 2, 62, 105
4, 89668, Note_on_c, 2, 62, 0
4, 89760, Note_on_c, 2, 55, 113
4, 89924, Note_on_c, 2, 55, 0
4, 90000, Note_on_c, 2, 55, 115
4, 90172, Note_on_c, 2, 55, 0
4, 90240, Note_on_c, 2, 64, 105
4, 90720, Note_on_c, 2, 64, 0
4, 91680, Note_on_c, 2, 55, 105
4, 91860, Note_on_c, 2, 55, 0
4, 91920, Note_on_c, 2, 55, 105
4, 92108, Note_on_c, 2, 55, 0
4, 92160, Note_on_c, 2, 60, 105
4, 92556, Note_on_c, 2, 60, 0
4, 92640, Note_on_c, 2, 60, 105
4, 92640, Note_on_c, 2, 64, 105
4, 93120, Note_on_c, 2, 64, 0
4, 93120, Note_on_c, 2, 60, 0
4, 93600, Note_on_c, 2, 60, 105
4, 93600, Note_on_c, 2, 64, 105
4, 94080, Note_on_c, 2, 64, 0
4, 94080, Note_on_c, 2, 60, 0
4, 94560, Note_on_c, 2, 60, 105
4, 94560, Note_on_c, 2, 62, 105
4, 95040, Note_on_c, 2, 62, 0
4, 95040, Note_on_c, 2, 60, 0
4, 95520, Note_on_c, 2, 55, 105
4, 95520, Note_on_c, 2, 62, 105
4, 95940, Note_on_c, 2, 55, 0
4, 95948, Note_on_c, 2, 62, 0
4, 96000, Note_on_c, 2, 60, 105
4, 96000, Note_on_c, 2, 64, 105
4, 96960, Note_on_c, 2, 64, 0
4, 96960, Note_on_c, 2, 60, 0
4, 99840, Note_on_c, 2, 52, 70
4, 99840, Note_on_c, 2, 60, 70
4, 101708, Note_on_c, 2, 60, 0
4, 101732, Note_on_c, 2, 52, 0
4, 101760, Note_on_c, 2, 55, 70
4, 101760, Note_on_c, 2, 62, 70
4, 103612, Note_on_c, 2, 62, 0
4, 103612, Note_on_c, 2, 55, 0
4, 103680, Note_on_c, 2, 60, 86
4, 103680, Note_on_c, 2, 64, 86
4, 104160, Note_on_c, 2, 60, 0
4, 104400, Note_on_c, 2, 62, 70
4, 104468, Note_on_c, 2, 64, 0
4, 104640, Note_on_c, 2, 52, 70
4, 104640, Note_on_c, 2, 60, 70
4, 104676, Note_on_c, 2, 62, 0
4, 105020, Note_on_c, 2, 52, 0
4, 105120, Note_on_c, 2, 55, 70
4, 105120, Note_on_c, 2, 62, 70
4, 105172, Note_on_c, 2, 60, 0
4, 105492, Note_on_c, 2, 55, 0
4, 105500, Note_on_c, 2, 62, 0
4, 105600, Note_on_c, 2, 60, 94
4, 105600, Note_on_c, 2, 64, 94
4, 106080, Note_on_c, 2, 60, 0
4, 106320, Note_on_c, 2, 62, 70
4, 106404, Note_on_c, 2, 64, 0
4, 106560, Note_on_c, 2, 52, 70
4, 106560, Note_on_c, 2, 60, 70
4, 106628, Note_on_c, 2, 62, 0
4, 106908, Note_on_c, 2, 52, 0
4, 107040, Note_on_c, 2, 60, 0
4, 107040, Note_on_c, 2, 55, 70
4, 107040, Note_on_c, 2, 62, 70
4, 107436, Note_on_c, 2, 62, 0
4, 107436, Note_on_c, 2, 55, 0
4, 107520, Note_on_c, 2, 60, 97
4, 107520, Note_on_c, 2, 64, 97
4, 108000, Note_on_c, 2, 60, 0
4, 108240, Note_on_c, 2, 62, 70
4, 108316, Note_on_c, 2, 64, 0
4, 108480, Note_on_c, 2, 52, 70
4, 108480, Note_on_c, 2, 60, 70
4, 108556, Note_on_c, 2, 62, 0
4, 108860, Note_on_c, 2, 52, 0
4, 108960, Note_on_c, 2, 60, 0
4, 108960, Note_on_c, 2, 55, 70
4, 108960, Note_on_c, 2, 62, 70
4, 109356, Note_on_c, 2, 62, 0
4, 109372, Note_on_c, 2, 55, 0
4, 109440, Note_on_c, 2, 52, 92
4, 109440, Note_on_c, 2, 60, 92
4, 109920, Note_on_c, 2, 60, 0
4, 109920, Note_on_c, 2, 52, 0
4, 145920, Note_on_c, 2, 52, 105
4, 145920, Note_on_c, 2, 60, 105
4, 146340, Note_on_c, 2, 60, 0
4, 146348, Note_on_c, 2, 52, 0
4, 146400, Note_on_c, 2, 52, 105
4, 146400, Note_on_c, 2, 60, 105
4, 146580, Note_on_c, 2, 60, 0
4, 146580, Note_on_c, 2, 52, 0
4, 146640, Note_on_c, 2, 52, 105
4, 146640, Note_on_c, 2, 60, 105
4, 146812, Note_on_c, 2, 60, 0
4, 146820, Note_on_c, 2, 52, 0
4, 146880, Note_on_c, 2, 52, 105
4, 146880, Note_on_c, 2, 60, 105
4, 147276, Note_on_c, 2, 52, 0
4, 147292, Note_on_c, 2, 60, 0
4, 147360, Note_on_c, 2, 52, 105
4, 147360, Note_on_c, 2, 60, 105
4, 147772, Note_on_c, 2, 52, 0
4, 147780, Note_on_c, 2, 60, 0
4, 147840, Note_on_c, 2, 52, 105
4, 147840, Note_on_c, 2, 60, 105
4, 148244, Note_on_c, 2, 60, 0
4, 148260, Note_on_c, 2, 52, 0
4, 148320, Note_on_c, 2, 60, 105
4, 148320, Note_on_c, 2, 64, 105
4, 148500, Note_on_c, 2, 64, 0
4, 148500, Note_on_c, 2, 60, 0
4, 148560, Note_on_c, 2, 60, 105
4, 148560, Note_on_c, 2, 64, 105
4, 148740, Note_on_c, 2, 60, 0
4, 148756, Note_on_c, 2, 64, 0
4, 148800, Note_on_c, 2, 60, 105
4, 148800, Note_on_c, 2, 64, 105
4, 149212, Note_on_c, 2, 64, 0
4, 149212, Note_on_c, 2, 60, 0
4, 149280, Note_on_c, 2, 60, 105
4, 149280, Note_on_c, 2, 64, 105
4, 149684, Note_on_c, 2, 60, 0
4, 149692, Note_on_c, 2, 64, 0
4, 149760, Note_on_c, 2, 60, 105
4, 149760, Note_on_c, 2, 64, 105
4, 150240, Note_on_c, 2, 64, 0
4, 150240, Note_on_c, 2, 60, 0
4, 201600, Note_on_c, 2, 64, 90
4, 202560, Note_on_c, 2, 64, 0
4, 203520, Note_on_c, 2, 62, 90
4, 204480, Note_on_c, 2, 62, 0
4, 205440, Note_on_c, 2, 64, 90
4, 206400, Note_on_c, 2, 64, 0
4, 207360, Note_on_c, 2, 62, 70
4, 207840, Note_on_c, 2, 62, 0
4, 211200, Note_on_c, 2, 62, 105
4, 215040, Note_on_c, 2, 55, 105
4, 215520, Note_on_c, 2, 55, 0
4, 215520, Note_on_c, 2, 62, 0
4, 332160, Note_on_c, 2, 43, 70
4, 332160, Note_on_c, 2, 55, 70
4, 348000, Note_on_c, 2, 55, 0
4, 348000, Note_on_c, 2, 43, 0
4, 363840, Note_on_c, 2, 60, 105
4, 363840, Note_on_c, 2, 64, 105
4, 364320, Note_on_c, 2, 64, 0
4, 364320, Note_on_c, 2, 60, 0
4, 364320, Note_on_c, 2, 60, 105
4, 364320, Note_on_c, 2, 64, 105
4, 364800, Note_on_c, 2, 64, 0
4, 364800, Note_on_c, 2, 60, 0
4, 364800, Note_on_c, 2, 60, 105
4, 364800, Note_on_c, 2, 64, 105
4, 365760, Note_on_c, 2, 64, 0
4, 365760, Note_on_c, 2, 60, 0
4, 365760, Note_on_c, 2, 55, 105
4, 365760, Note_on_c, 2, 64, 105
4, 366000, Note_on_c, 2, 64, 0
4, 366000, Note_on_c, 2, 62, 105
4, 366240, Note_on_c, 2, 62, 0
4, 366240, Note_on_c, 2, 60, 105
4, 366480, Note_on_c, 2, 60, 0
4, 366480, Note_on_c, 2, 62, 105
4, 366720, Note_on_c, 2, 62, 0
4, 366720, Note_on_c, 2, 55, 0
4, 366720, Note_on_c, 2, 52, 105
4, 366720, Note_on_c, 2, 60, 105
4, 367200, Note_on_c, 2, 60, 0
4, 367200, Note_on_c, 2, 52, 0
4, 367680, Note_on_c, 2, 48, 105
4, 367680, Note_on_c, 2, 60, 105
4, 369600, Note_on_c, 2, 60, 0
4, 369600, Note_on_c, 2, 48, 0
4, 369600, Note_on_c, 2, 48, 105
4, 369600, Note_on_c, 2, 60, 105
4, 371520, Note_on_c, 2, 60, 0
4, 371520, Note_on_c, 2, 48, 0
4, 373440, Note_on_c, 2, 55, 105
4, 373920, Note_on_c, 2, 55, 0
4, 373920, Note_on_c, 2, 55, 105
4, 374400, Note_on_c, 2, 55, 0
4, 374400, Note_on_c, 2, 52, 105
4, 374400, Note_on_c, 2, 60, 105
4, 375360, Note_on_c, 2, 60, 0
4, 375360, Note_on_c, 2, 52, 0
4, 375360, Note_on_c, 2, 55, 105
4, 375360, Note_on_c, 2, 64, 105
4, 375600, Note_on_c, 2, 64, 0
4, 375600, Note_on_c, 2, 62, 105
4, 375840, Note_on_c, 2, 62, 0
4, 375840, Note_on_c, 2, 60, 105
4, 376080, Note_on_c, 2, 60, 0
4, 376080, Note_on_c, 2, 62, 105
4, 376320, Note_on_c, 2, 62, 0
4, 376320, Note_on_c, 2, 55, 0
4, 376320, Note_on_c, 2, 60, 105
4, 376320, Note_on_c, 2, 64, 105
4, 376800, Note_on_c, 2, 64, 0
4, 376800, Note_on_c, 2, 60, 0
4, 376800, Note_on_c, 2, 64, 105
4, 376800, Note_on_c, 2, 67, 105
4, 377280, Note_on_c, 2, 67, 0
4, 377280, Note_on_c, 2, 64, 0
4, 377280, Note_on_c, 2, 64, 105
4, 377280, Note_on_c, 2, 67, 105
4, 377520, Note_on_c, 2, 67, 0
4, 377520, Note_on_c, 2, 64, 0
4, 377520, Note_on_c, 2, 62, 105
4, 377520, Note_on_c, 2, 65, 105
4, 377760, Note_on_c, 2, 65, 0
4, 377760, Note_on_c, 2, 62, 0
4, 377760, Note_on_c, 2, 60, 105
4, 377760, Note_on_c, 2, 64, 105
4, 378000, Note_on_c, 2, 64, 0
4, 378000, Note_on_c, 2, 60, 0
4, 378000, Note_on_c, 2, 55, 105
4, 378000, Note_on_c, 2, 62, 105
4, 378240, Note_on_c, 2, 62, 0
4, 378240, Note_on_c, 2, 55, 0
4, 378240, Note_on_c, 2, 52, 105
4, 378240, Note_on_c, 2, 60, 105
4, 378720, Note_on_c, 2, 60, 0
4, 378720, Note_on_c, 2, 52, 0
4, 381600, Note_on_c, 2, 55, 105
4, 381840, Note_on_c, 2, 55, 0
4, 381840, Note_on_c, 2, 55, 105
4, 382080, Note_on_c, 2, 55, 0
4, 382080, Note_on_c, 2, 60, 105
4, 382560, Note_on_c, 2, 60, 0
4, 382560, Note_on_c, 2, 55, 105
4, 382800, Note_on_c, 2, 55, 0
4, 382800, Note_on_c, 2, 55, 105
4, 383040, Note_on_c, 2, 55, 0
4, 383040, Note_on_c, 2, 62, 105
4, 383520, Note_on_c, 2, 62, 0
4, 383520, Note_on_c, 2, 55, 105
4, 383760, Note_on_c, 2, 55, 0
4, 383760, Note_on_c, 2, 55, 105
4, 384000, Note_on_c, 2, 55, 0
4, 384000, Note_on_c, 2, 64, 105
4, 384480, Note_on_c, 2, 64, 0
4, 385440, Note_on_c, 2, 55, 105
4, 385680, Note_on_c, 2, 55, 0
4, 385680, Note_on_c, 2, 55, 105
4, 385920, Note_on_c, 2, 55, 0
4, 385920, Note_on_c, 2, 60, 105
4, 386400, Note_on_c, 2, 60, 0
4, 386400, Note_on_c, 2, 55, 105
4, 386640, Note_on_c, 2, 55, 0
4, 386640, Note_on_c, 2, 55, 105
4, 386880, Note_on_c, 2, 55, 0
4, 386880, Note_on_c, 2, 62, 105
4, 387360, Note_on_c, 2, 62, 0
4, 387360, Note_on_c, 2, 55, 105
4, 387600, Note_on_c, 2, 55, 0
4, 387600, Note_on_c, 2, 55, 105
4, 387840, Note_on_c, 2, 55, 0
4, 387840, Note_on_c, 2, 64, 105
4, 388320, Note_on_c, 2, 64, 0
4, 389280, Note_on_c, 2, 52, 105
4, 389280, Note_on_c, 2, 64, 105
4, 389520, Note_on_c, 2, 64, 0
4, 389520, Note_on_c, 2, 52, 0
4, 389520, Note_on_c, 2, 52, 105
4, 389520, Note_on_c, 2, 64, 105
4, 389760, Note_on_c, 2, 64, 0
4, 389760, Note_on_c, 2, 52, 0
4, 389760, Note_on_c, 2, 52, 105
4, 389760, Note_on_c, 2, 64, 105
4, 390240, Note_on_c, 2, 64, 0
4, 390240, Note_on_c, 2, 52, 0
4, 390240, Note_on_c, 2, 52, 105
4, 390240, Note_on_c, 2, 64, 105
4, 390480, Note_on_c, 2, 64, 0
4, 390480, Note_on_c, 2, 52, 0
4, 390480, Note_on_c, 2, 52, 105
4, 390480, Note_on_c, 2, 64, 105
4, 390720, Note_on_c, 2, 64, 0
4, 390720, Note_on_c, 2, 52, 0
4, 390720, Note_on_c, 2, 52, 105
4, 390720, Note_on_c, 2, 64, 105
4, 391200, Note_on_c, 2, 64, 0
4, 391200, Note_on_c, 2, 52, 0
4, 391200, Note_on_c, 2, 52, 105
4, 391200, Note_on_c, 2, 64, 105
4, 391440, Note_on_c, 2, 64, 0
4, 391440, Note_on_c, 2, 52, 0
4, 391440, Note_on_c, 2, 52, 105
4, 391440, Note_on_c, 2, 64, 105
4, 391680, Note_on_c, 2, 64, 0
4, 391680, Note_on_c, 2, 52, 0
4, 391680, Note_on_c, 2, 52, 105
4, 391680, Note_on_c, 2, 64, 105
4, 392160, Note_on_c, 2, 64, 0
4, 392160, Note_on_c, 2, 52, 0
4, 393120, Note_on_c, 2, 48, 105
4, 393120, Note_on_c, 2, 60, 105
4, 393360, Note_on_c, 2, 60, 0
4, 393360, Note_on_c, 2, 48, 0
4, 393360, Note_on_c, 2, 48, 105
4, 393360, Note_on_c, 2, 60, 105
4, 393600, Note_on_c, 2, 60, 0
4, 393600, Note_on_c, 2, 48, 0
4, 393600, Note_on_c, 2, 48, 105
4, 393600, Note_on_c, 2, 60, 105
4, 394080, Note_on_c, 2, 60, 0
4, 394080, Note_on_c, 2, 48, 0
4, 394080, Note_on_c, 2, 48, 105
4, 394080, Note_on_c, 2, 60, 105
4, 394320, Note_on_c, 2, 60, 0
4, 394320, Note_on_c, 2, 48, 0
4, 394320, Note_on_c, 2, 48, 105
4, 394320, Note_on_c, 2, 60, 105
4, 394560, Note_on_c, 2, 60, 0
4, 394560, Note_on_c, 2, 48, 0
4, 394560, Note_on_c, 2, 48, 105
4, 394560, Note_on_c, 2, 60, 105
4, 395040, Note_on_c, 2, 60, 0
4, 395040, Note_on_c, 2, 48, 0
4, 395040, Note_on_c, 2, 48, 105
4, 395040, Note_on_c, 2, 60, 105
4, 395280, Note_on_c, 2, 60, 0
4, 395280, Note_on_c, 2, 48, 0
4, 395280, Note_on_c, 2, 48, 105
4, 395280, Note_on_c, 2, 60, 105
4, 395520, Note_on_c, 2, 60, 0
4, 395520, Note_on_c, 2, 48, 0
4, 395520, Note_on_c, 2, 48, 105
4, 395520, Note_on_c, 2, 60, 105
4, 396000, Note_on_c, 2, 60, 0
4, 396000, Note_on_c, 2, 48, 0
4, 396960, Note_on_c, 2, 48, 105
4, 396960, Note_on_c, 2, 60, 105
4, 397200, Note_on_c, 2, 60, 0
4, 397200, Note_on_c, 2, 48, 0
4, 397200, Note_on_c, 2, 48, 105
4, 397200, Note_on_c, 2, 60, 105
4, 397440, Note_on_c, 2, 60, 0
4, 397440, Note_on_c, 2, 48, 0
4, 397440, Note_on_c, 2, 48, 105
4, 397440, Note_on_c, 2, 60, 105
4, 397920, Note_on_c, 2, 60, 0
4, 397920, Note_on_c, 2, 48, 0
4, 470400, Note_on_c, 2, 43, 70
4, 470400, Note_on_c, 2, 55, 70
4, 476160, Note_on_c, 2, 55, 0
4, 476160, Note_on_c, 2, 43, 0
4, 493440, Note_on_c, 2, 55, 70
4, 501120, Note_on_c, 2, 55, 0
4, 501120, Note_on_c, 2, 48, 70
4, 501120, Note_on_c, 2, 60, 70
4, 501600, Note_on_c, 2, 60, 0
4, 501600, Note_on_c, 2, 48, 0
4, 529920, Note_on_c, 2, 48, 90
4, 529920, Note_on_c, 2, 60, 90
4, 530880, Note_on_c, 2, 60, 0
4, 530880, Note_on_c, 2, 48, 0
4, 531840, Note_on_c, 2, 55, 90
4, 531840, Note_on_c, 2, 62, 90
4, 532800, Note_on_c, 2, 62, 0
4, 532800, Note_on_c, 2, 55, 0
4, 533760, Note_on_c, 2, 48, 90
4, 533760, Note_on_c, 2, 60, 90
4, 534720, Note_on_c, 2, 60, 0
4, 534720, Note_on_c, 2, 48, 0
4, 535680, Note_on_c, 2, 55, 70
4, 535680, Note_on_c, 2, 62, 70
4, 536160, Note_on_c, 2, 62, 0
4, 536160, Note_on_c, 2, 55, 0
4, 539520, Note_on_c, 2, 55, 90
4, 539520, Note_on_c, 2, 67, 90
4, 543360, Note_on_c, 2, 55, 0
4, 543360, Note_on_c, 2, 60, 90
4, 543840, Note_on_c, 2, 60, 0
4, 543840, Note_on_c, 2, 67, 0
4, 574560, Note_on_c, 2, 52, 70
4, 574560, Note_on_c, 2, 60, 70
4, 575040, Note_on_c, 2, 60, 0
4, 575040, Note_on_c, 2, 52, 0
4, 575040, Note_on_c, 2, 52, 70
4, 575040, Note_on_c, 2, 60, 70
4, 575520, Note_on_c, 2, 60, 0
4, 575520, Note_on_c, 2, 52, 0
4, 575520, Note_on_c, 2, 52, 70
4, 575520, Note_on_c, 2, 60, 70
4, 576000, Note_on_c, 2, 60, 0
4, 576000, Note_on_c, 2, 52, 0
4, 576000, Note_on_c, 2, 55, 70
4, 576000, Note_on_c, 2, 62, 70
4, 576720, Note_on_c, 2, 62, 0
4, 576720, Note_on_c, 2, 64, 70
4, 576960, Note_on_c, 2, 64, 0
4, 576960, Note_on_c, 2, 55, 0
4, 576960, Note_on_c, 2, 52, 70
4, 576960, Note_on_c, 2, 60, 70
4, 577440, Note_on_c, 2, 60, 0
4, 577440, Note_on_c, 2, 52, 0
4, 577440, Note_on_c, 2, 52, 70
4, 577440, Note_on_c, 2, 60, 70
4, 577920, Note_on_c, 2, 60, 0
4, 577920, Note_on_c, 2, 52, 0
4, 577920, Note_on_c, 2, 55, 70
4, 577920, Note_on_c, 2, 62, 70
4, 578640, Note_on_c, 2, 62, 0
4, 578640, Note_on_c, 2, 64, 70
4, 578880, Note_on_c, 2, 64, 0
4, 578880, Note_on_c, 2, 55, 0
4, 578880, Note_on_c, 2, 55, 70
4, 578880, Note_on_c, 2, 60, 70
4, 579360, Note_on_c, 2, 60, 0
4, 579360, Note_on_c, 2, 55, 0
4, 579360, Note_on_c, 2, 62, 70
4, 579360, Note_on_c, 2, 65, 70
4, 579840, Note_on_c, 2, 65, 0
4, 579840, Note_on_c, 2, 62, 0
4, 579840, Note_on_c, 2, 60, 70
4, 579840, Note_on_c, 2, 64, 70
4, 580800, Note_on_c, 2, 64, 0
4, 580800, Note_on_c, 2, 60, 0
4, 580800, Note_on_c, 2, 55, 70
4, 580800, Note_on_c, 2, 62, 70
4, 581280, Note_on_c, 2, 62, 0
4, 581280, Note_on_c, 2, 55, 0
4, 582240, Note_on_c, 2, 55, 70
4, 582240, Note_on_c, 2, 62, 70
4, 582720, Note_on_c, 2, 62, 0
4, 582720, Note_on_c, 2, 55, 0
4, 582720, Note_on_c, 2, 55, 70
4, 582720, Note_on_c, 2, 62, 70
4, 583200, Note_on_c, 2, 62, 0
4, 583200, Note_on_c, 2, 55, 0
4, 583200, Note_on_c, 2, 55, 70
4, 583200, Note_on_c, 2, 62, 70
4, 583680, Note_on_c, 2, 62, 0
4, 583680, Note_on_c, 2, 55, 0
4, 583680, Note_on_c, 2, 60, 70
4, 583680, Note_on_c, 2, 64, 70
4, 584160, Note_on_c, 2, 64, 0
4, 584160, Note_on_c, 2, 60, 0
4, 584160, Note_on_c, 2, 64, 70
4, 584400, Note_on_c, 2, 64, 0
4, 584400, Note_on_c, 2, 65, 70
4, 584640, Note_on_c, 2, 65, 0
4, 584640, Note_on_c, 2, 62, 70
4, 585120, Note_on_c, 2, 62, 0
4, 585120, Note_on_c, 2, 59, 70
4, 585120, Note_on_c, 2, 62, 70
4, 585600, Note_on_c, 2, 62, 0
4, 585600, Note_on_c, 2, 59, 0
4, 585600, Note_on_c, 2, 60, 70
4, 585600, Note_on_c, 2, 64, 70
4, 586080, Note_on_c, 2, 64, 0
4, 586080, Note_on_c, 2, 60, 0
4, 586080, Note_on_c, 2, 64, 70
4, 586320, Note_on_c, 2, 64, 0
4, 586320, Note_on_c, 2, 65, 70
4, 586560, Note_on_c, 2, 65, 0
4, 586560, Note_on_c, 2, 62, 70
4, 587040, Note_on_c, 2, 62, 0
4, 587040, Note_on_c, 2, 59, 70
4, 587040, Note_on_c, 2, 67, 70
4, 587520, Note_on_c, 2, 67, 0
4, 587520, Note_on_c, 2, 59, 0
4, 587520, Note_on_c, 2, 62, 70
4, 587520, Note_on_c, 2, 65, 70
4, 588480, Note_on_c, 2, 65, 0
4, 588480, Note_on_c, 2, 62, 0
4, 588480, Note_on_c, 2, 60, 70
4, 588480, Note_on_c, 2, 64, 70
4, 588960, Note_on_c, 2, 64, 0
4, 588960, Note_on_c, 2, 60, 0
4, 600960, Note_on_c, 2, 55, 70
4, 600960, Note_on_c, 2, 62, 70
4, 601440, Note_on_c, 2, 62, 0
4, 601440, Note_on_c, 2, 55, 0
4, 601440, Note_on_c, 2, 55, 70
4, 601440, Note_on_c, 2, 62, 70
4, 601680, Note_on_c, 2, 62, 0
4, 601680, Note_on_c, 2, 55, 0
4, 601680, Note_on_c, 2, 55, 70
4, 601680, Note_on_c, 2, 62, 70
4, 601920, Note_on_c, 2, 62, 0
4, 601920, Note_on_c, 2, 55, 0
4, 601920, Note_on_c, 2, 55, 70
4, 601920, Note_on_c, 2, 62, 70
4, 602400, Note_on_c, 2, 62, 0
4, 602400, Note_on_c, 2, 55, 0
4, 602400, Note_on_c, 2, 55, 70
4, 602400, Note_on_c, 2, 62, 70
4, 602880, Note_on_c, 2, 62, 0
4, 602880, Note_on_c, 2, 55, 0
4, 602880, Note_on_c, 2, 48, 70
4, 602880, Note_on_c, 2, 60, 70
4, 603360, Note_on_c, 2, 60, 0
4, 603360, Note_on_c, 2, 48, 0
4, 603360, Note_on_c, 2, 48, 90
4, 603360, Note_on_c, 2, 60, 90
4, 604320, Note_on_c, 2, 60, 0
4, 604320, Note_on_c, 2, 48, 0
4, 604320, Note_on_c, 2, 48, 70
4, 604320, Note_on_c, 2, 60, 70
4, 607200, Note_on_c, 2, 60, 0
4, 607200, Note_on_c, 2, 48, 0
4, 607200, Note_on_c, 2, 48, 90
4, 607200, Note_on_c, 2, 60, 90
4, 608160, Note_on_c, 2, 60, 0
4, 608160, Note_on_c, 2, 48, 0
4, 608160, Note_on_c, 2, 48, 70
4, 608160, Note_on_c, 2, 60, 70
4, 614400, Note_on_c, 2, 60, 0
4, 614400, Note_on_c, 2, 48, 0
4, 614400, Note_on_c, 2, 55, 70
4, 614880, Note_on_c, 2, 55, 0
4, 633600, Note_on_c, 2, 48, 70
4, 633600, Note_on_c, 2, 60, 70
4, 641280, Note_on_c, 2, 60, 0
4, 641280, Note_on_c, 2, 48, 0
4, 641280, Note_on_c, 2, 55, 70
4, 645120, Note_on_c, 2, 55, 0
4, 645120, Note_on_c, 2, 52, 70
4, 645120, Note_on_c, 2, 60, 70
4, 645600, Note_on_c, 2, 60, 0
4, 645600, Note_on_c, 2, 52, 0
4, 683520, Note_on_c, 2, 60, 90
4, 683520, Note_on_c, 2, 64, 90
4, 687360, Note_on_c, 2, 64, 0
4, 687360, Note_on_c, 2, 60, 0
4, 687360, Note_on_c, 2, 60, 105
4, 687360, Note_on_c, 2, 65, 105
4, 688320, Note_on_c, 2, 65, 0
4, 688320, Note_on_c, 2, 60, 0
4, 688320, Note_on_c, 2, 55, 105
4, 688320, Note_on_c, 2, 62, 105
4, 689280, Note_on_c, 2, 62, 0
4, 689280, Note_on_c, 2, 55, 0
4, 689280, Note_on_c, 2, 55, 105
4, 689280, Note_on_c, 2, 64, 105
4, 690240, Note_on_c, 2, 64, 0
4, 690240, Note_on_c, 2, 55, 0
4, 690240, Note_on_c, 2, 48, 105
4, 690240, Note_on_c, 2, 60, 105
4, 691200, Note_on_c, 2, 60, 0
4, 691200, Note_on_c, 2, 48, 0
4, 691200, Note_on_c, 2, 60, 105
4, 691200, Note_on_c, 2, 64, 105
4, 692160, Note_on_c, 2, 64, 0
4, 692160, Note_on_c, 2, 60, 0
4, 695040, Note_on_c, 2, 60, 101
4, 695520, Note_on_c, 2, 60, 0
4, 696960, Note_on_c, 2, 55, 84
4, 697440, Note_on_c, 2, 55, 0
4, 698880, Note_on_c, 2, 60, 105
4, 698880, Note_on_c, 2, 64, 105
4, 700800, Note_on_c, 2, 64, 0
4, 700800, Note_on_c, 2, 60, 0
4, 700800, Note_on_c, 2, 55, 105
4, 700800, Note_on_c, 2, 62, 105
4, 702720, Note_on_c, 2, 62, 0
4, 702720, Note_on_c, 2, 55, 0
4, 702720, Note_on_c, 2, 60, 105
4, 703200, Note_on_c, 2, 60, 0
4, 703200, Note_on_c, 2, 60, 105
4, 703200, Note_on_c, 2, 64, 105
4, 703680, Note_on_c, 2, 64, 0
4, 703680, Note_on_c, 2, 60, 0
4, 704160, Note_on_c, 2, 60, 105
4, 704160, Note_on_c, 2, 64, 105
4, 704640, Note_on_c, 2, 64, 0
4, 704640, Note_on_c, 2, 60, 0
4, 705120, Note_on_c, 2, 60, 105
4, 705120, Note_on_c, 2, 62, 105
4, 705600, Note_on_c, 2, 62, 0
4, 705600, Note_on_c, 2, 60, 0
4, 706080, Note_on_c, 2, 55, 105
4, 706080, Note_on_c, 2, 62, 105
4, 706560, Note_on_c, 2, 62, 0
4, 706560, Note_on_c, 2, 55, 0
4, 706560, Note_on_c, 2, 48, 105
4, 706560, Note_on_c, 2, 60, 105
4, 707520, Note_on_c, 2, 60, 0
4, 707520, Note_on_c, 2, 48, 0
4, 722880, Note_on_c, 2, 60, 78
4, 722880, Note_on_c, 2, 64, 78
4, 723360, Note_on_c, 2, 64, 0
4, 723360, Note_on_c, 2, 60, 0
4, 723360, Note_on_c, 2, 60, 78
4, 723360, Note_on_c, 2, 64, 78
4, 723840, Note_on_c, 2, 64, 0
4, 723840, Note_on_c, 2, 60, 0
4, 723840, Note_on_c, 2, 60, 78
4, 723840, Note_on_c, 2, 64, 78
4, 724800, Note_on_c, 2, 64, 0
4, 724800, Note_on_c, 2, 60, 0
4, 724800, Note_on_c, 2, 67, 78
4, 725040, Note_on_c, 2, 67, 0
4, 725040, Note_on_c, 2, 62, 78
4, 725040, Note_on_c, 2, 65, 78
4, 725280, Note_on_c, 2, 65, 0
4, 725280, Note_on_c, 2, 62, 0
4, 725280, Note_on_c, 2, 60, 78
4, 725280, Note_on_c, 2, 64, 78
4, 725520, Note_on_c, 2, 64, 0
4, 725520, Note_on_c, 2, 60, 0
4, 725520, Note_on_c, 2, 62, 78
4, 725520, Note_on_c, 2, 65, 78
4, 725760, Note_on_c, 2, 65, 0
4, 725760, Note_on_c, 2, 62, 0
4, 725760, Note_on_c, 2, 64, 78
4, 725760, Note_on_c, 2, 67, 78
4, 726240, Note_on_c, 2, 67, 0
4, 726240, Note_on_c, 2, 64, 0
4, 730560, Note_on_c, 2, 52, 81
4, 730560, Note_on_c, 2, 60, 81
4, 731040, Note_on_c, 2, 60, 0
4, 731040, Note_on_c, 2, 52, 0
4, 731040, Note_on_c, 2, 52, 81
4, 731040, Note_on_c, 2, 60, 81
4, 731520, Note_on_c, 2, 60, 0
4, 731520, Note_on_c, 2, 52, 0
4, 731520, Note_on_c, 2, 52, 81
4, 731520, Note_on_c, 2, 60, 81
4, 732480, Note_on_c, 2, 60, 0
4, 732480, Note_on_c, 2, 52, 0
4, 732480, Note_on_c, 2, 55, 81
4, 732480, Note_on_c, 2, 62, 81
4, 733440, Note_on_c, 2, 62, 0
4, 733440, Note_on_c, 2, 55, 0
4, 733440, Note_on_c, 2, 60, 81
4, 733440, Note_on_c, 2, 64, 81
4, 734400, Note_on_c, 2, 64, 0
4, 734400, Note_on_c, 2, 60, 0
4, 734400, Note_on_c, 2, 62, 81
4, 734400, Note_on_c, 2, 65, 81
4, 735360, Note_on_c, 2, 65, 0
4, 735360, Note_on_c, 2, 62, 0
4, 735360, Note_on_c, 2, 64, 81
4, 735360, Note_on_c, 2, 67, 81
4, 736320, Note_on_c, 2, 67, 0
4, 736320, Note_on_c, 2, 64, 0
4, 736320, Note_on_c, 2, 64, 78
4, 736320, Note_on_c, 2, 67, 78
4, 736560, Note_on_c, 2, 67, 0
4, 736560, Note_on_c, 2, 64, 0
4, 736560, Note_on_c, 2, 62, 78
4, 736560, Note_on_c, 2, 65, 78
4, 736800, Note_on_c, 2, 65, 0
4, 736800, Note_on_c, 2, 62, 0
4, 736800, Note_on_c, 2, 60, 78
4, 736800, Note_on_c, 2, 64, 78
4, 737040, Note_on_c, 2, 64, 0
4, 737040, Note_on_c, 2, 60, 0
4, 737040, Note_on_c, 2, 55, 78
4, 737040, Note_on_c, 2, 62, 78
4, 737280, Note_on_c, 2, 62, 0
4, 737280, Note_on_c, 2, 55, 0
4, 737280, Note_on_c, 2, 52, 94
4, 737280, Note_on_c, 2, 60, 94
4, 739200, Note_on_c, 2, 60, 0
4, 739200, Note_on_c, 2, 52, 0
4, 739200, Note_on_c, 2, 55, 102
4, 739200, Note_on_c, 2, 62, 102
4, 741120, Note_on_c, 2, 62, 0
4, 741120, Note_on_c, 2, 55, 0
4, 741120, Note_on_c, 2, 60, 102
4, 741120, Note_on_c, 2, 64, 102
4, 741840, Note_on_c, 2, 64, 0
4, 741840, Note_on_c, 2, 60, 0
4, 741840, Note_on_c, 2, 62, 79
4, 742080, Note_on_c, 2, 62, 0
4, 742080, Note_on_c, 2, 52, 79
4, 742080, Note_on_c, 2, 60, 79
4, 742560, Note_on_c, 2, 60, 0
4, 742560, Note_on_c, 2, 52, 0
4, 742560, Note_on_c, 2, 55, 79
4, 742560, Note_on_c, 2, 62, 79
4, 743040, Note_on_c, 2, 62, 0
4, 743040, Note_on_c, 2, 55, 0
4, 743040, Note_on_c, 2, 60, 79
4, 743040, Note_on_c, 2, 64, 79
4, 743760, Note_on_c, 2, 64, 0
4, 743760, Note_on_c, 2, 60, 0
4, 743760, Note_on_c, 2, 62, 79
4, 744000, Note_on_c, 2, 62, 0
4, 744000, Note_on_c, 2, 52, 79
4, 744000, Note_on_c, 2, 60, 79
4, 744480, Note_on_c, 2, 60, 0
4, 744480, Note_on_c, 2, 52, 0
4, 744480, Note_on_c, 2, 55, 79
4, 744480, Note_on_c, 2, 62, 79
4, 744960, Note_on_c, 2, 62, 0
4, 744960, Note_on_c, 2, 55, 0
4, 744960, Note_on_c, 2, 60, 79
4, 744960, Note_on_c, 2, 64, 79
4, 745680, Note_on_c, 2, 64, 0
4, 745680, Note_on_c, 2, 60, 0
4, 745680, Note_on_c, 2, 62, 79
4, 745920, Note_on_c, 2, 62, 0
4, 745920, Note_on_c, 2, 52, 79
4, 745920, Note_on_c, 2, 60, 79
4, 746400, Note_on_c, 2, 60, 0
4, 746400, Note_on_c, 2, 52, 0
4, 746400, Note_on_c, 2, 55, 79
4, 746400, Note_on_c, 2, 62, 79
4, 746880, Note_on_c, 2, 62, 0
4, 746880, Note_on_c, 2, 55, 0
4, 746880, Note_on_c, 2, 52, 79
4, 746880, Note_on_c, 2, 60, 79
4, 747360, Note_on_c, 2, 60, 0
4, 747360, Note_on_c, 2, 52, 0
4, 749280, Note_on_c, 2, 48, 105
4, 749280, Note_on_c, 2, 60, 105
4, 749760, Note_on_c, 2, 60, 0
4, 749760, Note_on_c, 2, 48, 0
4, 749760, Note_on_c, 2, 52, 105
4, 749760, Note_on_c, 2, 64, 105
4, 750240, Note_on_c, 2, 64, 0
4, 750240, Note_on_c, 2, 52, 0
4, 750240, Note_on_c, 2, 55, 105
4, 750240, Note_on_c, 2, 67, 105
4, 750720, Note_on_c, 2, 67, 0
4, 750720, Note_on_c, 2, 55, 0
4, 751200, Note_on_c, 2, 48, 105
4, 751200, Note_on_c, 2, 60, 105
4, 751680, Note_on_c, 2, 60, 0
4, 751680, Note_on_c, 2, 48, 0
4, 751680, Note_on_c, 2, 52, 105
4, 751680, Note_on_c, 2, 64, 105
4, 752160, Note_on_c, 2, 64, 0
4, 752160, Note_on_c, 2, 52, 0
4, 752160, Note_on_c, 2, 55, 105
4, 752160, Note_on_c, 2, 67, 105
4, 752640, Note_on_c, 2, 67, 0
4, 752640, Note_on_c, 2, 55, 0
4, 752640, Note_on_c, 2, 60, 105
4, 752640, Note_on_c, 2, 64, 105
4, 753600, Note_on_c, 2, 64, 0
4, 753600, Note_on_c, 2, 60, 0
4, 753600, Note_on_c, 2, 60, 105
4, 753600, Note_on_c, 2, 64, 105
4, 754560, Note_on_c, 2, 64, 0
4, 754560, Note_on_c, 2, 60, 0
4, 754560, Note_on_c, 2, 60, 105
4, 754560, Note_on_c, 2, 64, 105
4, 755520, Note_on_c, 2, 64, 0
4, 755520, Note_on_c, 2, 60, 0
4, 755520, End_track
5, 0, Start_track
5, 0, Title_t, "Flute"
5, 0, Control_c, 3, 0, 0
5, 0, Control_c, 3, 7, 100
5, 0, Control_c, 3, 10, 60
5, 0, Control_c, 3, 91, 85
5, 0, Control_c, 3, 93, 94
5, 1, Control_c, 3, 32, 1
5, 2, Program_c, 3, 73
5, 126720, Note_on_c, 3, 72, 90
5, 126960, Note_on_c, 3, 71, 90
5, 127004, Note_on_c, 3, 72, 0
5, 127200, Note_on_c, 3, 72, 90
5, 127228, Note_on_c, 3, 71, 0
5, 127440, Note_on_c, 3, 71, 90
5, 127484, Note_on_c, 3, 72, 0
5, 127680, Note_on_c, 3, 72, 90
5, 127724, Note_on_c, 3, 71, 0
5, 127920, Note_on_c, 3, 76, 90
5, 127972, Note_on_c, 3, 72, 0
5, 128160, Note_on_c, 3, 79, 90
5, 128220, Note_on_c, 3, 76, 0
5, 128400, Note_on_c, 3, 76, 90
5, 128452, Note_on_c, 3, 79, 0
5, 128640, Note_on_c, 3, 74, 90
5, 128692, Note_on_c, 3, 76, 0
5, 128880, Note_on_c, 3, 72, 90
5, 128932, Note_on_c, 3, 74, 0
5, 129052, Note_on_c, 3, 72, 0
5, 129120, Note_on_c, 3, 72, 90
5, 129360, Note_on_c, 3, 72, 0
5, 129360, Note_on_c, 3, 71, 90
5, 129600, Note_on_c, 3, 71, 0
5, 129600, Note_on_c, 3, 72, 90
5, 130080, Note_on_c, 3, 72, 0
5, 130560, Note_on_c, 3, 77, 90
5, 130800, Note_on_c, 3, 76, 90
5, 130852, Note_on_c, 3, 77, 0
5, 131040, Note_on_c, 3, 77, 90
5, 131068, Note_on_c, 3, 76, 0
5, 131280, Note_on_c, 3, 76, 90
5, 131332, Note_on_c, 3, 77, 0
5, 131520, Note_on_c, 3, 77, 90
5, 131556, Note_on_c, 3, 76, 0
5, 131760, Note_on_c, 3, 81, 90
5, 131788, Note_on_c, 3, 77, 0
5, 132000, Note_on_c, 3, 84, 90
5, 132028, Note_on_c, 3, 81, 0
5, 132240, Note_on_c, 3, 81, 90
5, 132292, Note_on_c, 3, 84, 0
5, 132436, Note_on_c, 3, 81, 0
5, 132480, Note_on_c, 3, 78, 90
5, 133440, Note_on_c, 3, 79, 90
5, 133500, Note_on_c, 3, 78, 0
5, 133920, Note_on_c, 3, 79, 0
5, 134400, Note_on_c, 3, 86, 90
5, 134460, Note_on_c, 3, 84, 90
5, 134480, Note_on_c, 3, 86, 0
5, 134520, Note_on_c, 3, 86, 90
5, 134540, Note_on_c, 3, 84, 0
5, 134580, Note_on_c, 3, 84, 90
5, 134600, Note_on_c, 3, 86, 0
5, 134640, Note_on_c, 3, 83, 90
5, 134660, Note_on_c, 3, 84, 0
5, 134880, Note_on_c, 3, 84, 90
5, 134928, Note_on_c, 3, 83, 0
5, 135120, Note_on_c, 3, 86, 90
5, 135168, Note_on_c, 3, 84, 0
5, 135360, Note_on_c, 3, 88, 90
5, 135408, Note_on_c, 3, 86, 0
5, 135600, Note_on_c, 3, 84, 90
5, 135648, Note_on_c, 3, 88, 0
5, 135840, Note_on_c, 3, 79, 90
5, 135888, Note_on_c, 3, 84, 0
5, 136080, Note_on_c, 3, 76, 90
5, 136128, Note_on_c, 3, 79, 0
5, 136220, Note_on_c, 3, 76, 0
5, 136320, Note_on_c, 3, 77, 90
5, 136560, Note_on_c, 3, 74, 90
5, 136608, Note_on_c, 3, 77, 0
5, 136800, Note_on_c, 3, 83, 90
5, 136848, Note_on_c, 3, 74, 0
5, 137040, Note_on_c, 3, 79, 90
5, 137088, Note_on_c, 3, 83, 0
5, 137280, Note_on_c, 3, 86, 90
5, 137328, Note_on_c, 3, 79, 0
5, 137520, Note_on_c, 3, 83, 90
5, 137568, Note_on_c, 3, 86, 0
5, 137760, Note_on_c, 3, 79, 90
5, 137808, Note_on_c, 3, 83, 0
5, 138000, Note_on_c, 3, 77, 90
5, 138048, Note_on_c, 3, 79, 0
5, 138140, Note_on_c, 3, 77, 0
5, 138240, Note_on_c, 3, 77, 90
5, 138480, Note_on_c, 3, 76, 90
5, 138548, Note_on_c, 3, 77, 0
5, 138628, Note_on_c, 3, 76, 0
5, 138720, Note_on_c, 3, 79, 90
5, 138816, Note_on_c, 3, 79, 0
5, 138960, Note_on_c, 3, 76, 90
5, 139056, Note_on_c, 3, 76, 0
5, 139200, Note_on_c, 3, 76, 90
5, 139440, Note_on_c, 3, 74, 90
5, 139500, Note_on_c, 3, 76, 0
5, 139588, Note_on_c, 3, 74, 0
5, 139680, Note_on_c, 3, 72, 90
5, 139776, Note_on_c, 3, 72, 0
5, 139920, Note_on_c, 3, 71, 90
5, 140016, Note_on_c, 3, 71, 0
5, 140160, Note_on_c, 3, 72, 91
5, 140256, Note_on_c, 3, 72, 0
5, 140400, Note_on_c, 3, 74, 93
5, 140496, Note_on_c, 3, 74, 0
5, 140640, Note_on_c, 3, 76, 95
5, 140736, Note_on_c, 3, 76, 0
5, 140880, Note_on_c, 3, 77, 97
5, 140976, Note_on_c, 3, 77, 0
5, 141120, Note_on_c, 3, 79, 99
5, 141216, Note_on_c, 3, 79, 0
5, 141360, Note_on_c, 3, 81, 101
5, 141456, Note_on_c, 3, 81, 0
5, 141600, Note_on_c, 3, 83, 103
5, 141696, Note_on_c, 3, 83, 0
5, 141840, Note_on_c, 3, 84, 105
5, 141936, Note_on_c, 3, 84, 0
5, 142080, Note_on_c, 3, 86, 107
5, 142176, Note_on_c, 3, 86, 0
5, 142320, Note_on_c, 3, 84, 107
5, 142416, Note_on_c, 3, 84, 0
5, 142560, Note_on_c, 3, 83, 105
5, 142656, Note_on_c, 3, 83, 0
5, 142800, Note_on_c, 3, 81, 103
5, 142896, Note_on_c, 3, 81, 0
5, 143040, Note_on_c, 3, 79, 101
5, 143136, Note_on_c, 3, 79, 0
5, 143280, Note_on_c, 3, 77, 99
5, 143376, Note_on_c, 3, 77, 0
5, 143520, Note_on_c, 3, 76, 98
5, 143616, Note_on_c, 3, 76, 0
5, 143760, Note_on_c, 3, 74, 96
5, 143856, Note_on_c, 3, 74, 0
5, 144000, Note_on_c, 3, 72, 94
5, 144240, Note_on_c, 3, 76, 90
5, 144288, Note_on_c, 3, 72, 0
5, 144480, Note_on_c, 3, 79, 90
5, 144528, Note_on_c, 3, 76, 0
5, 144720, Note_on_c, 3, 76, 90
5, 144768, Note_on_c, 3, 79, 0
5, 144844, Note_on_c, 3, 76, 0
5, 144960, Note_on_c, 3, 76, 90
5, 145200, Note_on_c, 3, 74, 90
5, 145248, Note_on_c, 3, 76, 0
5, 145440, Note_on_c, 3, 72, 90
5, 145488, Note_on_c, 3, 74, 0
5, 145680, Note_on_c, 3, 71, 90
5, 145728, Note_on_c, 3, 72, 0
5, 145860, Note_on_c, 3, 71, 0
5, 145920, Note_on_c, 3, 72, 90
5, 146400, Note_on_c, 3, 72, 0
5, 150000, Note_on_c, 3, 72, 90
5, 150240, Note_on_c, 3, 71, 90
5, 150308, Note_on_c, 3, 72, 0
5, 150480, Note_on_c, 3, 72, 90
5, 150548, Note_on_c, 3, 71, 0
5, 150720, Note_on_c, 3, 71, 90
5, 150788, Note_on_c, 3, 72, 0
5, 150960, Note_on_c, 3, 72, 90
5, 151028, Note_on_c, 3, 71, 0
5, 151200, Note_on_c, 3, 76, 90
5, 151268, Note_on_c, 3, 72, 0
5, 151440, Note_on_c, 3, 72, 90
5, 151508, Note_on_c, 3, 76, 0
5, 151604, Note_on_c, 3, 72, 0
5, 151680, Note_on_c, 3, 71, 107
5, 151880, Note_on_c, 3, 69, 99
5, 152004, Note_on_c, 3, 71, 0
5, 152088, Note_on_c, 3, 71, 106
5, 152204, Note_on_c, 3, 69, 0
5, 152280, Note_on_c, 3, 69, 100
5, 152340, Note_on_c, 3, 71, 0
5, 152400, Note_on_c, 3, 71, 95
5, 152444, Note_on_c, 3, 69, 0
5, 152504, Note_on_c, 3, 69, 90
5, 152564, Note_on_c, 3, 71, 0
5, 152608, Note_on_c, 3, 71, 90
5, 152668, Note_on_c, 3, 69, 0
5, 152688, Note_on_c, 3, 69, 92
5, 152716, Note_on_c, 3, 71, 0
5, 152760, Note_on_c, 3, 71, 93
5, 152788, Note_on_c, 3, 69, 0
5, 152820, Note_on_c, 3, 69, 97
5, 152840, Note_on_c, 3, 71, 0
5, 152880, Note_on_c, 3, 71, 98
5, 152900, Note_on_c, 3, 69, 0
5, 152940, Note_on_c, 3, 69, 100
5, 152960, Note_on_c, 3, 71, 0
5, 153000, Note_on_c, 3, 71, 100
5, 153020, Note_on_c, 3, 69, 0
5, 153060, Note_on_c, 3, 69, 100
5, 153080, Note_on_c, 3, 71, 0
5, 153120, Note_on_c, 3, 71, 99
5, 153140, Note_on_c, 3, 69, 0
5, 153180, Note_on_c, 3, 69, 98
5, 153200, Note_on_c, 3, 71, 0
5, 153240, Note_on_c, 3, 71, 94
5, 153260, Note_on_c, 3, 69, 0
5, 153300, Note_on_c, 3, 69, 93
5, 153320, Note_on_c, 3, 71, 0
5, 153360, Note_on_c, 3, 67, 91
5, 153380, Note_on_c, 3, 69, 0
5, 153480, Note_on_c, 3, 69, 89
5, 153524, Note_on_c, 3, 67, 0
5, 153600, Note_on_c, 3, 67, 93
5, 153644, Note_on_c, 3, 69, 0
5, 153764, Note_on_c, 3, 67, 0
5, 154080, Note_on_c, 3, 72, 84
5, 154320, Note_on_c, 3, 76, 89
5, 154396, Note_on_c, 3, 72, 0
5, 154560, Note_on_c, 3, 79, 95
5, 154620, Note_on_c, 3, 76, 0
5, 154800, Note_on_c, 3, 84, 95
5, 154836, Note_on_c, 3, 79, 0
5, 154940, Note_on_c, 3, 84, 0
5, 155040, Note_on_c, 3, 79, 87
5, 155136, Note_on_c, 3, 79, 0
5, 155280, Note_on_c, 3, 76, 85
5, 155376, Note_on_c, 3, 76, 0
5, 155520, Note_on_c, 3, 79, 90
5, 156420, Note_on_c, 3, 79, 0
5, 156480, Note_on_c, 3, 79, 87
5, 156600, Note_on_c, 3, 77, 90
5, 156632, Note_on_c, 3, 79, 0
5, 156720, Note_on_c, 3, 79, 90
5, 156752, Note_on_c, 3, 77, 0
5, 156840, Note_on_c, 3, 77, 84
5, 156872, Note_on_c, 3, 79, 0
5, 156960, Note_on_c, 3, 79, 77
5, 156960, Note_on_c, 3, 79, 77
5, 156992, Note_on_c, 3, 77, 0
5, 157020, Note_on_c, 3, 77, 77
5, 157020, Note_on_c, 3, 77, 77
5, 157057, Note_on_c, 3, 79, 0
5, 157057, Note_on_c, 3, 79, 0
5, 157080, Note_on_c, 3, 79, 72
5, 157080, Note_on_c, 3, 79, 72
5, 157117, Note_on_c, 3, 77, 0
5, 157117, Note_on_c, 3, 77, 0
5, 157140, Note_on_c, 3, 77, 72
5, 157140, Note_on_c, 3, 77, 72
5, 157177, Note_on_c, 3, 79, 0
5, 157177, Note_on_c, 3, 79, 0
5, 157200, Note_on_c, 3, 76, 75
5, 157237, Note_on_c, 3, 77, 0
5, 157237, Note_on_c, 3, 77, 0
5, 157320, Note_on_c, 3, 77, 78
5, 157352, Note_on_c, 3, 76, 0
5, 157440, Note_on_c, 3, 76, 91
5, 157472, Note_on_c, 3, 77, 0
5, 157680, Note_on_c, 3, 76, 0
5, 157680, Note_on_c, 3, 79, 90
5, 157680, Note_on_c, 3, 79, 90
5, 157680, Note_on_c, 3, 79, 90
5, 157920, Note_on_c, 3, 81, 97
5, 157944, Note_on_c, 3, 79, 0
5, 157944, Note_on_c, 3, 79, 0
5, 157944, Note_on_c, 3, 79, 0
5, 157980, Note_on_c, 3, 79, 100
5, 158017, Note_on_c, 3, 81, 0
5, 158040, Note_on_c, 3, 81, 98
5, 158077, Note_on_c, 3, 79, 0
5, 158100, Note_on_c, 3, 79, 93
5, 158137, Note_on_c, 3, 81, 0
5, 158160, Note_on_c, 3, 78, 90
5, 158160, Note_on_c, 3, 78, 90
5, 158160, Note_on_c, 3, 78, 90
5, 158197, Note_on_c, 3, 79, 0
5, 158280, Note_on_c, 3, 79, 84
5, 158312, Note_on_c, 3, 78, 0
5, 158312, Note_on_c, 3, 78, 0
5, 158312, Note_on_c, 3, 78, 0
5, 158400, Note_on_c, 3, 79, 0
5, 158400, Note_on_c, 3, 77, 84
5, 158640, Note_on_c, 3, 76, 91
5, 158705, Note_on_c, 3, 77, 0
5, 158880, Note_on_c, 3, 74, 93
5, 158945, Note_on_c, 3, 76, 0
5, 159120, Note_on_c, 3, 72, 89
5, 159185, Note_on_c, 3, 74, 0
5, 159360, Note_on_c, 3, 71, 84
5, 159425, Note_on_c, 3, 72, 0
5, 159480, Note_on_c, 3, 69, 84
5, 159512, Note_on_c, 3, 71, 0
5, 159600, Note_on_c, 3, 71, 85
5, 159632, Note_on_c, 3, 69, 0
5, 159720, Note_on_c, 3, 69, 93
5, 159752, Note_on_c, 3, 71, 0
5, 159840, Note_on_c, 3, 71, 94
5, 159872, Note_on_c, 3, 69, 0
5, 159900, Note_on_c, 3, 69, 94
5, 159937, Note_on_c, 3, 71, 0
5, 159960, Note_on_c, 3, 71, 94
5, 159997, Note_on_c, 3, 69, 0
5, 160020, Note_on_c, 3, 69, 94
5, 160057, Note_on_c, 3, 71, 0
5, 160080, Note_on_c, 3, 71, 93
5, 160117, Note_on_c, 3, 69, 0
5, 160140, Note_on_c, 3, 69, 93
5, 160177, Note_on_c, 3, 71, 0
5, 160200, Note_on_c, 3, 71, 93
5, 160237, Note_on_c, 3, 69, 0
5, 160260, Note_on_c, 3, 69, 90
5, 160297, Note_on_c, 3, 71, 0
5, 160320, Note_on_c, 3, 71, 90
5, 160357, Note_on_c, 3, 69, 0
5, 160380, Note_on_c, 3, 69, 88
5, 160417, Note_on_c, 3, 71, 0
5, 160440, Note_on_c, 3, 71, 88
5, 160477, Note_on_c, 3, 69, 0
5, 160500, Note_on_c, 3, 69, 85
5, 160537, Note_on_c, 3, 71, 0
5, 160560, Note_on_c, 3, 71, 85
5, 160597, Note_on_c, 3, 69, 0
5, 160620, Note_on_c, 3, 69, 83
5, 160657, Note_on_c, 3, 71, 0
5, 160680, Note_on_c, 3, 71, 83
5, 160717, Note_on_c, 3, 69, 0
5, 160740, Note_on_c, 3, 69, 83
5, 160777, Note_on_c, 3, 71, 0
5, 160800, Note_on_c, 3, 71, 80
5, 160837, Note_on_c, 3, 69, 0
5, 160860, Note_on_c, 3, 69, 80
5, 160897, Note_on_c, 3, 71, 0
5, 160920, Note_on_c, 3, 71, 80
5, 160957, Note_on_c, 3, 69, 0
5, 160980, Note_on_c, 3, 69, 81
5, 161017, Note_on_c, 3, 71, 0
5, 161040, Note_on_c, 3, 67, 87
5, 161077, Note_on_c, 3, 69, 0
5, 161160, Note_on_c, 3, 69, 92
5, 161192, Note_on_c, 3, 67, 0
5, 161280, Note_on_c, 3, 67, 92
5, 161312, Note_on_c, 3, 69, 0
5, 161520, Note_on_c, 3, 67, 0
5, 161520, Note_on_c, 3, 72, 79
5, 161760, Note_on_c, 3, 72, 0
5, 161760, Note_on_c, 3, 76, 90
5, 162000, Note_on_c, 3, 76, 0
5, 162000, Note_on_c, 3, 79, 95
5, 162240, Note_on_c, 3, 79, 0
5, 162240, Note_on_c, 3, 84, 103
5, 162480, Note_on_c, 3, 84, 0
5, 162480, Note_on_c, 3, 88, 110
5, 162720, Note_on_c, 3, 88, 0
5, 162720, Note_on_c, 3, 84, 113
5, 162960, Note_on_c, 3, 84, 0
5, 162960, Note_on_c, 3, 79, 111
5, 163140, Note_on_c, 3, 79, 0
5, 163200, Note_on_c, 3, 79, 101
5, 164100, Note_on_c, 3, 79, 0
5, 164160, Note_on_c, 3, 79, 90
5, 164280, Note_on_c, 3, 77, 80
5, 164312, Note_on_c, 3, 79, 0
5, 164400, Note_on_c, 3, 79, 82
5, 164432, Note_on_c, 3, 77, 0
5, 164520, Note_on_c, 3, 77, 85
5, 164552, Note_on_c, 3, 79, 0
5, 164640, Note_on_c, 3, 79, 88
5, 164672, Note_on_c, 3, 77, 0
5, 164700, Note_on_c, 3, 77, 91
5, 164737, Note_on_c, 3, 79, 0
5, 164760, Note_on_c, 3, 79, 88
5, 164797, Note_on_c, 3, 77, 0
5, 164820, Note_on_c, 3, 77, 85
5, 164857, Note_on_c, 3, 79, 0
5, 164880, Note_on_c, 3, 76, 83
5, 164917, Note_on_c, 3, 77, 0
5, 165000, Note_on_c, 3, 77, 80
5, 165032, Note_on_c, 3, 76, 0
5, 165084, Note_on_c, 3, 76, 80
5, 165122, Note_on_c, 3, 77, 0
5, 165206, Note_on_c, 3, 76, 0
5, 165360, Note_on_c, 3, 76, 83
5, 165600, Note_on_c, 3, 76, 0
5, 165600, Note_on_c, 3, 77, 93
5, 165660, Note_on_c, 3, 76, 96
5, 165697, Note_on_c, 3, 77, 0
5, 165720, Note_on_c, 3, 77, 96
5, 165757, Note_on_c, 3, 76, 0
5, 165780, Note_on_c, 3, 76, 96
5, 165817, Note_on_c, 3, 77, 0
5, 165840, Note_on_c, 3, 74, 90
5, 165877, Note_on_c, 3, 76, 0
5, 165960, Note_on_c, 3, 76, 85
5, 165992, Note_on_c, 3, 74, 0
5, 166048, Note_on_c, 3, 76, 0
5, 166080, Note_on_c, 3, 77, 87
5, 166290, Note_on_c, 3, 77, 0
5, 166320, Note_on_c, 3, 77, 93
5, 166560, Note_on_c, 3, 79, 101
5, 166575, Note_on_c, 3, 77, 0
5, 166620, Note_on_c, 3, 77, 101
5, 166657, Note_on_c, 3, 79, 0
5, 166680, Note_on_c, 3, 79, 101
5, 166717, Note_on_c, 3, 77, 0
5, 166740, Note_on_c, 3, 77, 101
5, 166777, Note_on_c, 3, 79, 0
5, 166800, Note_on_c, 3, 76, 99
5, 166837, Note_on_c, 3, 77, 0
5, 166920, Note_on_c, 3, 77, 95
5, 166952, Note_on_c, 3, 76, 0
5, 167007, Note_on_c, 3, 77, 0
5, 167040, Note_on_c, 3, 79, 90
5, 167246, Note_on_c, 3, 79, 0
5, 167280, Note_on_c, 3, 79, 87
5, 167520, Note_on_c, 3, 81, 94
5, 167540, Note_on_c, 3, 79, 0
5, 167580, Note_on_c, 3, 79, 97
5, 167617, Note_on_c, 3, 81, 0
5, 167640, Note_on_c, 3, 81, 97
5, 167677, Note_on_c, 3, 79, 0
5, 167700, Note_on_c, 3, 79, 97
5, 167737, Note_on_c, 3, 81, 0
5, 167760, Note_on_c, 3, 77, 99
5, 167797, Note_on_c, 3, 79, 0
5, 167880, Note_on_c, 3, 79, 99
5, 167912, Note_on_c, 3, 77, 0
5, 167964, Note_on_c, 3, 79, 0
5, 168000, Note_on_c, 3, 81, 99
5, 168202, Note_on_c, 3, 81, 0
5, 168240, Note_on_c, 3, 81, 91
5, 168480, Note_on_c, 3, 83, 95
5, 168507, Note_on_c, 3, 81, 0
5, 168540, Note_on_c, 3, 81, 98
5, 168577, Note_on_c, 3, 83, 0
5, 168600, Note_on_c, 3, 83, 100
5, 168637, Note_on_c, 3, 81, 0
5, 168660, Note_on_c, 3, 81, 106
5, 168697, Note_on_c, 3, 83, 0
5, 168720, Note_on_c, 3, 79, 106
5, 168757, Note_on_c, 3, 81, 0
5, 168840, Note_on_c, 3, 81, 108
5, 168872, Note_on_c, 3, 79, 0
5, 168932, Note_on_c, 3, 81, 0
5, 168960, Note_on_c, 3, 83, 111
5, 169440, Note_on_c, 3, 84, 107
5, 169488, Note_on_c, 3, 83, 0
5, 169788, Note_on_c, 3, 84, 0
5, 169920, Note_on_c, 3, 77, 99
5, 170340, Note_on_c, 3, 77, 0
5, 170400, Note_on_c, 3, 76, 93
5, 170796, Note_on_c, 3, 76, 0
5, 170880, Note_on_c, 3, 79, 91
5, 171600, Note_on_c, 3, 76, 83
5, 171648, Note_on_c, 3, 79, 0
5, 171840, Note_on_c, 3, 74, 83
5, 171924, Note_on_c, 3, 76, 0
5, 172188, Note_on_c, 3, 74, 0
5, 172800, Note_on_c, 3, 74, 90
5, 174240, Note_on_c, 3, 74, 0
5, 174240, Note_on_c, 3, 71, 90
5, 174480, Note_on_c, 3, 71, 0
5, 174480, Note_on_c, 3, 72, 90
5, 174720, Note_on_c, 3, 72, 0
5, 174720, Note_on_c, 3, 74, 90
5, 175152, Note_on_c, 3, 74, 0
5, 175200, Note_on_c, 3, 74, 90
5, 175644, Note_on_c, 3, 74, 0
5, 175680, Note_on_c, 3, 74, 90
5, 176136, Note_on_c, 3, 74, 0
5, 176160, Note_on_c, 3, 74, 90
5, 176604, Note_on_c, 3, 74, 0
5, 176640, Note_on_c, 3, 74, 90
5, 177360, Note_on_c, 3, 83, 90
5, 177420, Note_on_c, 3, 74, 0
5, 177528, Note_on_c, 3, 83, 0
5, 177600, Note_on_c, 3, 83, 90
5, 179520, Note_on_c, 3, 83, 0
5, 179520, Note_on_c, 3, 74, 90
5, 180480, Note_on_c, 3, 74, 0
5, 180480, Note_on_c, 3, 72, 90
5, 181920, Note_on_c, 3, 72, 0
5, 181920, Note_on_c, 3, 69, 90
5, 182160, Note_on_c, 3, 69, 0
5, 182160, Note_on_c, 3, 71, 90
5, 182400, Note_on_c, 3, 71, 0
5, 182400, Note_on_c, 3, 72, 90
5, 182808, Note_on_c, 3, 72, 0
5, 182880, Note_on_c, 3, 72, 90
5, 183312, Note_on_c, 3, 72, 0
5, 183360, Note_on_c, 3, 72, 90
5, 183804, Note_on_c, 3, 72, 0
5, 183840, Note_on_c, 3, 72, 90
5, 184260, Note_on_c, 3, 72, 0
5, 184320, Note_on_c, 3, 72, 90
5, 185040, Note_on_c, 3, 81, 90
5, 185064, Note_on_c, 3, 72, 0
5, 185196, Note_on_c, 3, 81, 0
5, 185280, Note_on_c, 3, 81, 90
5, 187200, Note_on_c, 3, 81, 0
5, 187200, Note_on_c, 3, 72, 90
5, 188160, Note_on_c, 3, 72, 0
5, 188160, Note_on_c, 3, 71, 90
5, 188640, Note_on_c, 3, 71, 0
5, 215520, Note_on_c, 3, 79, 105
5, 215928, Note_on_c, 3, 79, 0
5, 216000, Note_on_c, 3, 79, 94
5, 216432, Note_on_c, 3, 79, 0
5, 216480, Note_on_c, 3, 79, 109
5, 216912, Note_on_c, 3, 79, 0
5, 216960, Note_on_c, 3, 81, 105
5, 217440, Note_on_c, 3, 83, 103
5, 217461, Note_on_c, 3, 81, 0
5, 217500, Note_on_c, 3, 81, 102
5, 217548, Note_on_c, 3, 83, 0
5, 217560, Note_on_c, 3, 79, 100
5, 217608, Note_on_c, 3, 81, 0
5, 217620, Note_on_c, 3, 81, 97
5, 217668, Note_on_c, 3, 79, 0
5, 217680, Note_on_c, 3, 83, 97
5, 217728, Note_on_c, 3, 81, 0
5, 217920, Note_on_c, 3, 79, 105
5, 217968, Note_on_c, 3, 83, 0
5, 218316, Note_on_c, 3, 79, 0
5, 218400, Note_on_c, 3, 79, 105
5, 218808, Note_on_c, 3, 79, 0
5, 218880, Note_on_c, 3, 81, 105
5, 219360, Note_on_c, 3, 81, 0
5, 219360, Note_on_c, 3, 83, 101
5, 219420, Note_on_c, 3, 81, 106
5, 219468, Note_on_c, 3, 83, 0
5, 219480, Note_on_c, 3, 79, 106
5, 219528, Note_on_c, 3, 81, 0
5, 219540, Note_on_c, 3, 81, 104
5, 219588, Note_on_c, 3, 79, 0
5, 219600, Note_on_c, 3, 83, 101
5, 219648, Note_on_c, 3, 81, 0
5, 219840, Note_on_c, 3, 79, 105
5, 219888, Note_on_c, 3, 83, 0
5, 220212, Note_on_c, 3, 79, 0
5, 220320, Note_on_c, 3, 84, 105
5, 220704, Note_on_c, 3, 84, 0
5, 220800, Note_on_c, 3, 83, 112
5, 221760, Note_on_c, 3, 81, 105
5, 221808, Note_on_c, 3, 83, 0
5, 222240, Note_on_c, 3, 81, 0
5, 223200, Note_on_c, 3, 81, 105
5, 223608, Note_on_c, 3, 81, 0
5, 223680, Note_on_c, 3, 81, 105
5, 224076, Note_on_c, 3, 81, 0
5, 224160, Note_on_c, 3, 81, 105
5, 224568, Note_on_c, 3, 81, 0
5, 224640, Note_on_c, 3, 83, 105
5, 225120, Note_on_c, 3, 84, 100
5, 225144, Note_on_c, 3, 83, 0
5, 225180, Note_on_c, 3, 83, 102
5, 225228, Note_on_c, 3, 84, 0
5, 225240, Note_on_c, 3, 81, 107
5, 225288, Note_on_c, 3, 83, 0
5, 225300, Note_on_c, 3, 83, 110
5, 225348, Note_on_c, 3, 81, 0
5, 225360, Note_on_c, 3, 84, 107
5, 225408, Note_on_c, 3, 83, 0
5, 225600, Note_on_c, 3, 81, 105
5, 225660, Note_on_c, 3, 84, 0
5, 225972, Note_on_c, 3, 81, 0
5, 226080, Note_on_c, 3, 81, 96
5, 226500, Note_on_c, 3, 81, 0
5, 226560, Note_on_c, 3, 83, 105
5, 227040, Note_on_c, 3, 84, 104
5, 227064, Note_on_c, 3, 83, 0
5, 227100, Note_on_c, 3, 83, 104
5, 227148, Note_on_c, 3, 84, 0
5, 227160, Note_on_c, 3, 81, 107
5, 227208, Note_on_c, 3, 83, 0
5, 227220, Note_on_c, 3, 83, 105
5, 227268, Note_on_c, 3, 81, 0
5, 227280, Note_on_c, 3, 84, 105
5, 227328, Note_on_c, 3, 83, 0
5, 227520, Note_on_c, 3, 81, 105
5, 227580, Note_on_c, 3, 84, 0
5, 227904, Note_on_c, 3, 81, 0
5, 228000, Note_on_c, 3, 86, 98
5, 228360, Note_on_c, 3, 86, 0
5, 228480, Note_on_c, 3, 84, 117
5, 229440, Note_on_c, 3, 83, 105
5, 229536, Note_on_c, 3, 84, 0
5, 229920, Note_on_c, 3, 83, 0
5, 230640, Note_on_c, 3, 86, 105
5, 230880, Note_on_c, 3, 85, 105
5, 230940, Note_on_c, 3, 86, 0
5, 231120, Note_on_c, 3, 86, 105
5, 231180, Note_on_c, 3, 85, 0
5, 231276, Note_on_c, 3, 86, 0
5, 231360, Note_on_c, 3, 84, 105
5, 231600, Note_on_c, 3, 83, 105
5, 231684, Note_on_c, 3, 84, 0
5, 231840, Note_on_c, 3, 81, 105
5, 231900, Note_on_c, 3, 83, 0
5, 232080, Note_on_c, 3, 79, 105
5, 232140, Note_on_c, 3, 81, 0
5, 232260, Note_on_c, 3, 79, 0
5, 232320, Note_on_c, 3, 88, 105
5, 233040, Note_on_c, 3, 84, 105
5, 233112, Note_on_c, 3, 88, 0
5, 233196, Note_on_c, 3, 84, 0
5, 233280, Note_on_c, 3, 81, 117
5, 233403, Note_on_c, 3, 81, 0
5, 234240, Note_on_c, 3, 86, 105
5, 234960, Note_on_c, 3, 83, 105
5, 235008, Note_on_c, 3, 86, 0
5, 235140, Note_on_c, 3, 83, 0
5, 235200, Note_on_c, 3, 79, 114
5, 235326, Note_on_c, 3, 79, 0
5, 236160, Note_on_c, 3, 78, 105
5, 236880, Note_on_c, 3, 81, 105
5, 236940, Note_on_c, 3, 78, 0
5, 237072, Note_on_c, 3, 81, 0
5, 237120, Note_on_c, 3, 84, 121
5, 237245, Note_on_c, 3, 84, 0
5, 238560, Note_on_c, 3, 83, 105
5, 238944, Note_on_c, 3, 83, 0
5, 239040, Note_on_c, 3, 83, 105
5, 239364, Note_on_c, 3, 83, 0
5, 239520, Note_on_c, 3, 83, 105
5, 239832, Note_on_c, 3, 83, 0
5, 240000, Note_on_c, 3, 83, 105
5, 240480, Note_on_c, 3, 84, 105
5, 240540, Note_on_c, 3, 83, 0
5, 240720, Note_on_c, 3, 86, 105
5, 240780, Note_on_c, 3, 84, 0
5, 240888, Note_on_c, 3, 86, 0
5, 240960, Note_on_c, 3, 88, 105
5, 241440, Note_on_c, 3, 88, 0
5, 241440, Note_on_c, 3, 84, 105
5, 241680, Note_on_c, 3, 83, 105
5, 241740, Note_on_c, 3, 84, 0
5, 241920, Note_on_c, 3, 83, 0
5, 241920, Note_on_c, 3, 83, 105
5, 242040, Note_on_c, 3, 81, 105
5, 242070, Note_on_c, 3, 83, 0
5, 242160, Note_on_c, 3, 83, 105
5, 242190, Note_on_c, 3, 81, 0
5, 242280, Note_on_c, 3, 81, 105
5, 242310, Note_on_c, 3, 83, 0
5, 242400, Note_on_c, 3, 83, 105
5, 242430, Note_on_c, 3, 81, 0
5, 242460, Note_on_c, 3, 81, 105
5, 242508, Note_on_c, 3, 83, 0
5, 242520, Note_on_c, 3, 83, 105
5, 242568, Note_on_c, 3, 81, 0
5, 242580, Note_on_c, 3, 81, 105
5, 242628, Note_on_c, 3, 83, 0
5, 242640, Note_on_c, 3, 83, 105
5, 242688, Note_on_c, 3, 81, 0
5, 242700, Note_on_c, 3, 81, 105
5, 242748, Note_on_c, 3, 83, 0
5, 242760, Note_on_c, 3, 83, 105
5, 242808, Note_on_c, 3, 81, 0
5, 242820, Note_on_c, 3, 81, 105
5, 242868, Note_on_c, 3, 83, 0
5, 242880, Note_on_c, 3, 83, 105
5, 242928, Note_on_c, 3, 81, 0
5, 242940, Note_on_c, 3, 81, 105
5, 242988, Note_on_c, 3, 83, 0
5, 243000, Note_on_c, 3, 83, 105
5, 243048, Note_on_c, 3, 81, 0
5, 243060, Note_on_c, 3, 81, 105
5, 243108, Note_on_c, 3, 83, 0
5, 243120, Note_on_c, 3, 83, 105
5, 243168, Note_on_c, 3, 81, 0
5, 243180, Note_on_c, 3, 81, 105
5, 243228, Note_on_c, 3, 83, 0
5, 243240, Note_on_c, 3, 83, 105
5, 243288, Note_on_c, 3, 81, 0
5, 243300, Note_on_c, 3, 81, 105
5, 243348, Note_on_c, 3, 83, 0
5, 243360, Note_on_c, 3, 83, 105
5, 243408, Note_on_c, 3, 81, 0
5, 243420, Note_on_c, 3, 81, 105
5, 243468, Note_on_c, 3, 83, 0
5, 243480, Note_on_c, 3, 83, 105
5, 243528, Note_on_c, 3, 81, 0
5, 243540, Note_on_c, 3, 81, 105
5, 243588, Note_on_c, 3, 83, 0
5, 243600, Note_on_c, 3, 79, 105
5, 243648, Note_on_c, 3, 81, 0
5, 243720, Note_on_c, 3, 81, 105
5, 243750, Note_on_c, 3, 79, 0
5, 243840, Note_on_c, 3, 79, 105
5, 243870, Note_on_c, 3, 81, 0
5, 244320, Note_on_c, 3, 79, 0
5, 251760, Note_on_c, 3, 86, 104
5, 252000, Note_on_c, 3, 85, 101
5, 252060, Note_on_c, 3, 86, 0
5, 252240, Note_on_c, 3, 86, 102
5, 252300, Note_on_c, 3, 85, 0
5, 252480, Note_on_c, 3, 85, 105
5, 252540, Note_on_c, 3, 86, 0
5, 252720, Note_on_c, 3, 86, 103
5, 252780, Note_on_c, 3, 85, 0
5, 252960, Note_on_c, 3, 85, 101
5, 253020, Note_on_c, 3, 86, 0
5, 253200, Note_on_c, 3, 86, 102
5, 253260, Note_on_c, 3, 85, 0
5, 253440, Note_on_c, 3, 74, 100
5, 253500, Note_on_c, 3, 86, 0
5, 259200, Note_on_c, 3, 74, 0
5, 259440, Note_on_c, 3, 79, 105
5, 259680, Note_on_c, 3, 78, 105
5, 259740, Note_on_c, 3, 79, 0
5, 259920, Note_on_c, 3, 79, 105
5, 259980, Note_on_c, 3, 78, 0
5, 260160, Note_on_c, 3, 78, 105
5, 260220, Note_on_c, 3, 79, 0
5, 260400, Note_on_c, 3, 79, 105
5, 260460, Note_on_c, 3, 78, 0
5, 260640, Note_on_c, 3, 78, 105
5, 260700, Note_on_c, 3, 79, 0
5, 260880, Note_on_c, 3, 79, 105
5, 260940, Note_on_c, 3, 78, 0
5, 261120, Note_on_c, 3, 67, 105
5, 261180, Note_on_c, 3, 79, 0
5, 261972, Note_on_c, 3, 67, 0
5, 262080, Note_on_c, 3, 86, 105
5, 262992, Note_on_c, 3, 86, 0
5, 263040, Note_on_c, 3, 88, 105
5, 263520, Note_on_c, 3, 88, 0
5, 264000, Note_on_c, 3, 81, 105
5, 264480, Note_on_c, 3, 81, 0
5, 264480, Note_on_c, 3, 84, 105
5, 264720, Note_on_c, 3, 84, 0
5, 264720, Note_on_c, 3, 88, 105
5, 264960, Note_on_c, 3, 88, 0
5, 264960, Note_on_c, 3, 86, 105
5, 265440, Note_on_c, 3, 86, 0
5, 265920, Note_on_c, 3, 79, 105
5, 266400, Note_on_c, 3, 79, 0
5, 266400, Note_on_c, 3, 83, 105
5, 266640, Note_on_c, 3, 83, 0
5, 266640, Note_on_c, 3, 86, 105
5, 266880, Note_on_c, 3, 86, 0
5, 266880, Note_on_c, 3, 84, 105
5, 267360, Note_on_c, 3, 84, 0
5, 267840, Note_on_c, 3, 72, 105
5, 268320, Note_on_c, 3, 72, 0
5, 268320, Note_on_c, 3, 69, 105
5, 268560, Note_on_c, 3, 69, 0
5, 268560, Note_on_c, 3, 62, 105
5, 268800, Note_on_c, 3, 62, 0
5, 268800, Note_on_c, 3, 67, 105
5, 270720, Note_on_c, 3, 67, 0
5, 270720, Note_on_c, 3, 79, 105
5, 272640, Note_on_c, 3, 79, 0
5, 272640, Note_on_c, 3, 74, 105
5, 273600, Note_on_c, 3, 74, 0
5, 273600, Note_on_c, 3, 62, 105
5, 274560, Note_on_c, 3, 62, 0
5, 274560, Note_on_c, 3, 67, 105
5, 275040, Note_on_c, 3, 67, 0
5, 278880, Note_on_c, 3, 67, 116
5, 278976, Note_on_c, 3, 67, 0
5, 279120, Note_on_c, 3, 67, 116
5, 279216, Note_on_c, 3, 67, 0
5, 279360, Note_on_c, 3, 66, 105
5, 279600, Note_on_c, 3, 69, 105
5, 279660, Note_on_c, 3, 66, 0
5, 279780, Note_on_c, 3, 69, 0
5, 279840, Note_on_c, 3, 72, 115
5, 279936, Note_on_c, 3, 72, 0
5, 280080, Note_on_c, 3, 72, 119
5, 280176, Note_on_c, 3, 72, 0
5, 280320, Note_on_c, 3, 67, 105
5, 280560, Note_on_c, 3, 71, 105
5, 280608, Note_on_c, 3, 67, 0
5, 280752, Note_on_c, 3, 71, 0
5, 280800, Note_on_c, 3, 74, 117
5, 280896, Note_on_c, 3, 74, 0
5, 281040, Note_on_c, 3, 74, 119
5, 281136, Note_on_c, 3, 74, 0
5, 281280, Note_on_c, 3, 69, 105
5, 281520, Note_on_c, 3, 74, 105
5, 281592, Note_on_c, 3, 69, 0
5, 281700, Note_on_c, 3, 74, 0
5, 281760, Note_on_c, 3, 78, 122
5, 281856, Note_on_c, 3, 78, 0
5, 282000, Note_on_c, 3, 78, 113
5, 282096, Note_on_c, 3, 78, 0
5, 282240, Note_on_c, 3, 79, 105
5, 282600, Note_on_c, 3, 79, 0
5, 282720, Note_on_c, 3, 67, 118
5, 282816, Note_on_c, 3, 67, 0
5, 282960, Note_on_c, 3, 67, 116
5, 283056, Note_on_c, 3, 67, 0
5, 283200, Note_on_c, 3, 66, 105
5, 283440, Note_on_c, 3, 69, 105
5, 283488, Note_on_c, 3, 66, 0
5, 283632, Note_on_c, 3, 69, 0
5, 283680, Note_on_c, 3, 72, 115
5, 283776, Note_on_c, 3, 72, 0
5, 283920, Note_on_c, 3, 72, 117
5, 284016, Note_on_c, 3, 72, 0
5, 284160, Note_on_c, 3, 67, 105
5, 284400, Note_on_c, 3, 71, 105
5, 284472, Note_on_c, 3, 67, 0
5, 284592, Note_on_c, 3, 71, 0
5, 284640, Note_on_c, 3, 74, 116
5, 284736, Note_on_c, 3, 74, 0
5, 284880, Note_on_c, 3, 74, 115
5, 284976, Note_on_c, 3, 74, 0
5, 285120, Note_on_c, 3, 69, 105
5, 285360, Note_on_c, 3, 74, 105
5, 285420, Note_on_c, 3, 69, 0
5, 285552, Note_on_c, 3, 74, 0
5, 285600, Note_on_c, 3, 78, 121
5, 285696, Note_on_c, 3, 78, 0
5, 285840, Note_on_c, 3, 78, 120
5, 285936, Note_on_c, 3, 78, 0
5, 286080, Note_on_c, 3, 79, 105
5, 286560, Note_on_c, 3, 79, 0
5, 305280, Note_on_c, 3, 79, 105
5, 306660, Note_on_c, 3, 79, 0
5, 306720, Note_on_c, 3, 81, 105
5, 306960, Note_on_c, 3, 83, 105
5, 307020, Note_on_c, 3, 81, 0
5, 307200, Note_on_c, 3, 79, 105
5, 307284, Note_on_c, 3, 83, 0
5, 307596, Note_on_c, 3, 79, 0
5, 307680, Note_on_c, 3, 81, 105
5, 307920, Note_on_c, 3, 83, 105
5, 307980, Note_on_c, 3, 81, 0
5, 308160, Note_on_c, 3, 79, 105
5, 308244, Note_on_c, 3, 83, 0
5, 308544, Note_on_c, 3, 79, 0
5, 308640, Note_on_c, 3, 81, 105
5, 308880, Note_on_c, 3, 83, 105
5, 308940, Note_on_c, 3, 81, 0
5, 309120, Note_on_c, 3, 79, 105
5, 309204, Note_on_c, 3, 83, 0
5, 309492, Note_on_c, 3, 79, 0
5, 309600, Note_on_c, 3, 83, 105
5, 309948, Note_on_c, 3, 83, 0
5, 310080, Note_on_c, 3, 86, 105
5, 311388, Note_on_c, 3, 86, 0
5, 311520, Note_on_c, 3, 84, 105
5, 311760, Note_on_c, 3, 83, 105
5, 311832, Note_on_c, 3, 84, 0
5, 311940, Note_on_c, 3, 83, 0
5, 312000, Note_on_c, 3, 83, 105
5, 312240, Note_on_c, 3, 81, 105
5, 312288, Note_on_c, 3, 83, 0
5, 312420, Note_on_c, 3, 81, 0
5, 312480, Note_on_c, 3, 79, 105
5, 312720, Note_on_c, 3, 81, 105
5, 312804, Note_on_c, 3, 79, 0
5, 312960, Note_on_c, 3, 79, 105
5, 313032, Note_on_c, 3, 81, 0
5, 314160, Note_on_c, 3, 83, 105
5, 314208, Note_on_c, 3, 79, 0
5, 314400, Note_on_c, 3, 81, 105
5, 314460, Note_on_c, 3, 83, 0
5, 314640, Note_on_c, 3, 83, 105
5, 314700, Note_on_c, 3, 81, 0
5, 314880, Note_on_c, 3, 79, 105
5, 314940, Note_on_c, 3, 83, 0
5, 315120, Note_on_c, 3, 83, 105
5, 315180, Note_on_c, 3, 79, 0
5, 315360, Note_on_c, 3, 81, 105
5, 315420, Note_on_c, 3, 83, 0
5, 315600, Note_on_c, 3, 83, 105
5, 315660, Note_on_c, 3, 81, 0
5, 315840, Note_on_c, 3, 79, 105
5, 315900, Note_on_c, 3, 83, 0
5, 316080, Note_on_c, 3, 83, 105
5, 316140, Note_on_c, 3, 79, 0
5, 316320, Note_on_c, 3, 81, 105
5, 316380, Note_on_c, 3, 83, 0
5, 316560, Note_on_c, 3, 83, 105
5, 316620, Note_on_c, 3, 81, 0
5, 316800, Note_on_c, 3, 79, 105
5, 316860, Note_on_c, 3, 83, 0
5, 317100, Note_on_c, 3, 79, 0
5, 317280, Note_on_c, 3, 83, 105
5, 317580, Note_on_c, 3, 83, 0
5, 317760, Note_on_c, 3, 86, 105
5, 319200, Note_on_c, 3, 86, 0
5, 319200, Note_on_c, 3, 84, 105
5, 319440, Note_on_c, 3, 83, 105
5, 319512, Note_on_c, 3, 84, 0
5, 319596, Note_on_c, 3, 83, 0
5, 319680, Note_on_c, 3, 83, 105
5, 319920, Note_on_c, 3, 81, 105
5, 319980, Note_on_c, 3, 83, 0
5, 320064, Note_on_c, 3, 81, 0
5, 320160, Note_on_c, 3, 79, 105
5, 320400, Note_on_c, 3, 81, 105
5, 320448, Note_on_c, 3, 79, 0
5, 320640, Note_on_c, 3, 79, 105
5, 320700, Note_on_c, 3, 81, 0
5, 321120, Note_on_c, 3, 79, 0
5, 324480, Note_on_c, 3, 74, 80
5, 328320, Note_on_c, 3, 74, 0
5, 328320, Note_on_c, 3, 86, 90
5, 332160, Note_on_c, 3, 86, 0
5, 332160, Note_on_c, 3, 67, 90
5, 332640, Note_on_c, 3, 67, 0
5, 336000, Note_on_c, 3, 81, 97
5, 336240, Note_on_c, 3, 79, 95
5, 336264, Note_on_c, 3, 81, 0
5, 336480, Note_on_c, 3, 78, 97
5, 336504, Note_on_c, 3, 79, 0
5, 336720, Note_on_c, 3, 79, 96
5, 336744, Note_on_c, 3, 78, 0
5, 336960, Note_on_c, 3, 78, 87
5, 336984, Note_on_c, 3, 79, 0
5, 337200, Note_on_c, 3, 79, 92
5, 337224, Note_on_c, 3, 78, 0
5, 337440, Note_on_c, 3, 81, 90
5, 337464, Note_on_c, 3, 79, 0
5, 337680, Note_on_c, 3, 79, 85
5, 337704, Note_on_c, 3, 81, 0
5, 337824, Note_on_c, 3, 79, 0
5, 337920, Note_on_c, 3, 79, 94
5, 338160, Note_on_c, 3, 77, 88
5, 338184, Note_on_c, 3, 79, 0
5, 338400, Note_on_c, 3, 76, 90
5, 338424, Note_on_c, 3, 77, 0
5, 338640, Note_on_c, 3, 77, 90
5, 338664, Note_on_c, 3, 76, 0
5, 338880, Note_on_c, 3, 76, 92
5, 338904, Note_on_c, 3, 77, 0
5, 339120, Note_on_c, 3, 77, 91
5, 339144, Note_on_c, 3, 76, 0
5, 339360, Note_on_c, 3, 79, 80
5, 339384, Note_on_c, 3, 77, 0
5, 339600, Note_on_c, 3, 77, 79
5, 339624, Note_on_c, 3, 79, 0
5, 339744, Note_on_c, 3, 77, 0
5, 339840, Note_on_c, 3, 74, 90
5, 340080, Note_on_c, 3, 77, 88
5, 340142, Note_on_c, 3, 74, 0
5, 340320, Note_on_c, 3, 76, 98
5, 340382, Note_on_c, 3, 77, 0
5, 340560, Note_on_c, 3, 79, 101
5, 340622, Note_on_c, 3, 76, 0
5, 340800, Note_on_c, 3, 77, 106
5, 340862, Note_on_c, 3, 79, 0
5, 341280, Note_on_c, 3, 77, 0
5, 341760, Note_on_c, 3, 74, 80
5, 342000, Note_on_c, 3, 77, 92
5, 342062, Note_on_c, 3, 74, 0
5, 342240, Note_on_c, 3, 76, 94
5, 342302, Note_on_c, 3, 77, 0
5, 342480, Note_on_c, 3, 79, 99
5, 342542, Note_on_c, 3, 76, 0
5, 342720, Note_on_c, 3, 77, 94
5, 342782, Note_on_c, 3, 79, 0
5, 343200, Note_on_c, 3, 77, 0
5, 343680, Note_on_c, 3, 74, 90
5, 343920, Note_on_c, 3, 77, 91
5, 343982, Note_on_c, 3, 74, 0
5, 344160, Note_on_c, 3, 76, 102
5, 344222, Note_on_c, 3, 77, 0
5, 344400, Note_on_c, 3, 79, 102
5, 344462, Note_on_c, 3, 76, 0
5, 344640, Note_on_c, 3, 77, 100
5, 344702, Note_on_c, 3, 79, 0
5, 344880, Note_on_c, 3, 79, 93
5, 344942, Note_on_c, 3, 77, 0
5, 345120, Note_on_c, 3, 76, 94
5, 345182, Note_on_c, 3, 79, 0
5, 345360, Note_on_c, 3, 77, 97
5, 345422, Note_on_c, 3, 76, 0
5, 345516, Note_on_c, 3, 77, 0
5, 345600, Note_on_c, 3, 74, 72
5, 345840, Note_on_c, 3, 77, 83
5, 345902, Note_on_c, 3, 74, 0
5, 346080, Note_on_c, 3, 76, 88
5, 346142, Note_on_c, 3, 77, 0
5, 346320, Note_on_c, 3, 79, 84
5, 346382, Note_on_c, 3, 76, 0
5, 346560, Note_on_c, 3, 77, 73
5, 346622, Note_on_c, 3, 79, 0
5, 347040, Note_on_c, 3, 77, 0
5, 348480, Note_on_c, 3, 76, 80
5, 348840, Note_on_c, 3, 76, 0
5, 348960, Note_on_c, 3, 76, 80
5, 349308, Note_on_c, 3, 76, 0
5, 349440, Note_on_c, 3, 76, 80
5, 350316, Note_on_c, 3, 76, 0
5, 350400, Note_on_c, 3, 79, 80
5, 350640, Note_on_c, 3, 77, 80
5, 350702, Note_on_c, 3, 79, 0
5, 350880, Note_on_c, 3, 76, 80
5, 350942, Note_on_c, 3, 77, 0
5, 351120, Note_on_c, 3, 77, 80
5, 351182, Note_on_c, 3, 76, 0
5, 351300, Note_on_c, 3, 77, 0
5, 351360, Note_on_c, 3, 79, 80
5, 351600, Note_on_c, 3, 76, 80
5, 351662, Note_on_c, 3, 79, 0
5, 351840, Note_on_c, 3, 72, 80
5, 351902, Note_on_c, 3, 76, 0
5, 352224, Note_on_c, 3, 72, 0
5, 352320, Note_on_c, 3, 84, 80
5, 353040, Note_on_c, 3, 83, 80
5, 353124, Note_on_c, 3, 84, 0
5, 353220, Note_on_c, 3, 83, 0
5, 353280, Note_on_c, 3, 83, 80
5, 353520, Note_on_c, 3, 81, 80
5, 353592, Note_on_c, 3, 83, 0
5, 353700, Note_on_c, 3, 81, 0
5, 353760, Note_on_c, 3, 79, 80
5, 354240, Note_on_c, 3, 79, 0
5, 354240, Note_on_c, 3, 84, 80
5, 354960, Note_on_c, 3, 83, 80
5, 355056, Note_on_c, 3, 84, 0
5, 355140, Note_on_c, 3, 83, 0
5, 355200, Note_on_c, 3, 83, 80
5, 355440, Note_on_c, 3, 81, 80
5, 355488, Note_on_c, 3, 83, 0
5, 355608, Note_on_c, 3, 81, 0
5, 355680, Note_on_c, 3, 79, 80
5, 356076, Note_on_c, 3, 79, 0
5, 356160, Note_on_c, 3, 72, 90
5, 356568, Note_on_c, 3, 72, 0
5, 356640, Note_on_c, 3, 72, 90
5, 357048, Note_on_c, 3, 72, 0
5, 357120, Note_on_c, 3, 72, 90
5, 358008, Note_on_c, 3, 72, 0
5, 358080, Note_on_c, 3, 76, 90
5, 358320, Note_on_c, 3, 74, 90
5, 358382, Note_on_c, 3, 76, 0
5, 358560, Note_on_c, 3, 72, 90
5, 358622, Note_on_c, 3, 74, 0
5, 358800, Note_on_c, 3, 74, 90
5, 358862, Note_on_c, 3, 72, 0
5, 358968, Note_on_c, 3, 74, 0
5, 359040, Note_on_c, 3, 76, 90
5, 359376, Note_on_c, 3, 76, 0
5, 359520, Note_on_c, 3, 76, 90
5, 359856, Note_on_c, 3, 76, 0
5, 360000, Note_on_c, 3, 79, 90
5, 360240, Note_on_c, 3, 77, 90
5, 360302, Note_on_c, 3, 79, 0
5, 360480, Note_on_c, 3, 76, 90
5, 360542, Note_on_c, 3, 77, 0
5, 360720, Note_on_c, 3, 77, 90
5, 360782, Note_on_c, 3, 76, 0
5, 360888, Note_on_c, 3, 77, 0
5, 360960, Note_on_c, 3, 79, 90
5, 361356, Note_on_c, 3, 79, 0
5, 361440, Note_on_c, 3, 79, 90
5, 361920, Note_on_c, 3, 79, 0
5, 361920, Note_on_c, 3, 81, 90
5, 362160, Note_on_c, 3, 79, 90
5, 362222, Note_on_c, 3, 81, 0
5, 362400, Note_on_c, 3, 77, 90
5, 362462, Note_on_c, 3, 79, 0
5, 362496, Note_on_c, 3, 77, 0
5, 362640, Note_on_c, 3, 76, 90
5, 362736, Note_on_c, 3, 76, 0
5, 362880, Note_on_c, 3, 76, 90
5, 363360, Note_on_c, 3, 74, 90
5, 363432, Note_on_c, 3, 76, 0
5, 363756, Note_on_c, 3, 74, 0
5, 397332, Note_on_c, 3, 72, 122
5, 397440, Note_on_c, 3, 84, 122
5, 397584, Note_on_c, 3, 72, 0
5, 399276, Note_on_c, 3, 84, 0
5, 399360, Note_on_c, 3, 81, 90
5, 400260, Note_on_c, 3, 81, 0
5, 400320, Note_on_c, 3, 77, 90
5, 401232, Note_on_c, 3, 77, 0
5, 401280, Note_on_c, 3, 72, 90
5, 402720, Note_on_c, 3, 77, 90
5, 402768, Note_on_c, 3, 72, 0
5, 403068, Note_on_c, 3, 77, 0
5, 403200, Note_on_c, 3, 76, 90
5, 403620, Note_on_c, 3, 76, 0
5, 403680, Note_on_c, 3, 76, 98
5, 403740, Note_on_c, 3, 74, 106
5, 403791, Note_on_c, 3, 76, 0
5, 403800, Note_on_c, 3, 76, 108
5, 403851, Note_on_c, 3, 74, 0
5, 403860, Note_on_c, 3, 74, 108
5, 403911, Note_on_c, 3, 76, 0
5, 403920, Note_on_c, 3, 72, 104
5, 403971, Note_on_c, 3, 74, 0
5, 404040, Note_on_c, 3, 74, 92
5, 404076, Note_on_c, 3, 72, 0
5, 404160, Note_on_c, 3, 72, 98
5, 404220, Note_on_c, 3, 74, 0
5, 405120, Note_on_c, 3, 72, 0
5, 405360, Note_on_c, 3, 77, 95
5, 405600, Note_on_c, 3, 76, 100
5, 405660, Note_on_c, 3, 77, 0
5, 405840, Note_on_c, 3, 77, 91
5, 405900, Note_on_c, 3, 76, 0
5, 406080, Note_on_c, 3, 76, 85
5, 406140, Note_on_c, 3, 77, 0
5, 406320, Note_on_c, 3, 77, 87
5, 406380, Note_on_c, 3, 76, 0
5, 406560, Note_on_c, 3, 79, 95
5, 406620, Note_on_c, 3, 77, 0
5, 406728, Note_on_c, 3, 79, 0
5, 406800, Note_on_c, 3, 81, 97
5, 406932, Note_on_c, 3, 81, 0
5, 407040, Note_on_c, 3, 78, 102
5, 408000, Note_on_c, 3, 78, 0
5, 408000, Note_on_c, 3, 79, 99
5, 409116, Note_on_c, 3, 79, 0
5, 409200, Note_on_c, 3, 81, 99
5, 409440, Note_on_c, 3, 82, 93
5, 409500, Note_on_c, 3, 81, 0
5, 409680, Note_on_c, 3, 81, 93
5, 409740, Note_on_c, 3, 82, 0
5, 409920, Note_on_c, 3, 84, 100
5, 409980, Note_on_c, 3, 81, 0
5, 410160, Note_on_c, 3, 82, 100
5, 410220, Note_on_c, 3, 84, 0
5, 410400, Note_on_c, 3, 81, 93
5, 410460, Note_on_c, 3, 82, 0
5, 410640, Note_on_c, 3, 79, 88
5, 410700, Note_on_c, 3, 81, 0
5, 410772, Note_on_c, 3, 79, 0
5, 410880, Note_on_c, 3, 77, 90
5, 411120, Note_on_c, 3, 79, 95
5, 411144, Note_on_c, 3, 77, 0
5, 411180, Note_on_c, 3, 77, 97
5, 411224, Note_on_c, 3, 79, 0
5, 411240, Note_on_c, 3, 76, 96
5, 411284, Note_on_c, 3, 77, 0
5, 411360, Note_on_c, 3, 77, 90
5, 411372, Note_on_c, 3, 76, 0
5, 411528, Note_on_c, 3, 77, 0
5, 411600, Note_on_c, 3, 79, 84
5, 411696, Note_on_c, 3, 79, 0
5, 411840, Note_on_c, 3, 81, 84
5, 412080, Note_on_c, 3, 82, 93
5, 412104, Note_on_c, 3, 81, 0
5, 412140, Note_on_c, 3, 81, 93
5, 412184, Note_on_c, 3, 82, 0
5, 412200, Note_on_c, 3, 79, 93
5, 412244, Note_on_c, 3, 81, 0
5, 412320, Note_on_c, 3, 81, 85
5, 412332, Note_on_c, 3, 79, 0
5, 412476, Note_on_c, 3, 81, 0
5, 412560, Note_on_c, 3, 82, 87
5, 412680, Note_on_c, 3, 82, 0
5, 412800, Note_on_c, 3, 72, 103
5, 413040, Note_on_c, 3, 84, 101
5, 413088, Note_on_c, 3, 72, 0
5, 413184, Note_on_c, 3, 84, 0
5, 413280, Note_on_c, 3, 84, 96
5, 413376, Note_on_c, 3, 84, 0
5, 413520, Note_on_c, 3, 84, 90
5, 413616, Note_on_c, 3, 84, 0
5, 413760, Note_on_c, 3, 84, 88
5, 413856, Note_on_c, 3, 84, 0
5, 414000, Note_on_c, 3, 84, 90
5, 414096, Note_on_c, 3, 84, 0
5, 414240, Note_on_c, 3, 84, 90
5, 414336, Note_on_c, 3, 84, 0
5, 414480, Note_on_c, 3, 84, 90
5, 414576, Note_on_c, 3, 84, 0
5, 414720, Note_on_c, 3, 69, 100
5, 414960, Note_on_c, 3, 81, 100
5, 414984, Note_on_c, 3, 69, 0
5, 415104, Note_on_c, 3, 81, 0
5, 415200, Note_on_c, 3, 81, 90
5, 415296, Note_on_c, 3, 81, 0
5, 415440, Note_on_c, 3, 81, 90
5, 415536, Note_on_c, 3, 81, 0
5, 415680, Note_on_c, 3, 65, 104
5, 415920, Note_on_c, 3, 77, 97
5, 415968, Note_on_c, 3, 65, 0
5, 416088, Note_on_c, 3, 77, 0
5, 416160, Note_on_c, 3, 77, 90
5, 416256, Note_on_c, 3, 77, 0
5, 416400, Note_on_c, 3, 77, 90
5, 416496, Note_on_c, 3, 77, 0
5, 416640, Note_on_c, 3, 72, 90
5, 416964, Note_on_c, 3, 72, 0
5, 417120, Note_on_c, 3, 72, 90
5, 417756, Note_on_c, 3, 72, 0
5, 417840, Note_on_c, 3, 74, 89
5, 418080, Note_on_c, 3, 76, 94
5, 418128, Note_on_c, 3, 74, 0
5, 418320, Note_on_c, 3, 77, 99
5, 418380, Note_on_c, 3, 76, 0
5, 418488, Note_on_c, 3, 77, 0
5, 418560, Note_on_c, 3, 76, 90
5, 418968, Note_on_c, 3, 76, 0
5, 419040, Note_on_c, 3, 76, 88
5, 419100, Note_on_c, 3, 74, 94
5, 419144, Note_on_c, 3, 76, 0
5, 419160, Note_on_c, 3, 76, 94
5, 419204, Note_on_c, 3, 74, 0
5, 419220, Note_on_c, 3, 74, 93
5, 419264, Note_on_c, 3, 76, 0
5, 419280, Note_on_c, 3, 72, 86
5, 419324, Note_on_c, 3, 74, 0
5, 419400, Note_on_c, 3, 74, 81
5, 419440, Note_on_c, 3, 72, 0
5, 419496, Note_on_c, 3, 74, 0
5, 419520, Note_on_c, 3, 72, 90
5, 420480, Note_on_c, 3, 72, 0
5, 420720, Note_on_c, 3, 84, 92
5, 420960, Note_on_c, 3, 83, 97
5, 421039, Note_on_c, 3, 84, 0
5, 421200, Note_on_c, 3, 84, 100
5, 421279, Note_on_c, 3, 83, 0
5, 421440, Note_on_c, 3, 86, 105
5, 421519, Note_on_c, 3, 84, 0
5, 421680, Note_on_c, 3, 84, 105
5, 421759, Note_on_c, 3, 86, 0
5, 421920, Note_on_c, 3, 82, 103
5, 421999, Note_on_c, 3, 84, 0
5, 422160, Note_on_c, 3, 81, 96
5, 422239, Note_on_c, 3, 82, 0
5, 422328, Note_on_c, 3, 81, 0
5, 422400, Note_on_c, 3, 78, 83
5, 422640, Note_on_c, 3, 79, 99
5, 422700, Note_on_c, 3, 78, 0
5, 422784, Note_on_c, 3, 79, 0
5, 422880, Note_on_c, 3, 85, 90
5, 423120, Note_on_c, 3, 86, 102
5, 423180, Note_on_c, 3, 85, 0
5, 423252, Note_on_c, 3, 86, 0
5, 423360, Note_on_c, 3, 81, 90
5, 423600, Note_on_c, 3, 82, 102
5, 423648, Note_on_c, 3, 81, 0
5, 423744, Note_on_c, 3, 82, 0
5, 423840, Note_on_c, 3, 78, 90
5, 424080, Note_on_c, 3, 79, 97
5, 424140, Note_on_c, 3, 78, 0
5, 424224, Note_on_c, 3, 79, 0
5, 424320, Note_on_c, 3, 77, 99
5, 425280, Note_on_c, 3, 77, 0
5, 425280, Note_on_c, 3, 81, 100
5, 425340, Note_on_c, 3, 79, 103
5, 425384, Note_on_c, 3, 81, 0
5, 425400, Note_on_c, 3, 81, 103
5, 425444, Note_on_c, 3, 79, 0
5, 425460, Note_on_c, 3, 79, 104
5, 425504, Note_on_c, 3, 81, 0
5, 425520, Note_on_c, 3, 81, 109
5, 425564, Note_on_c, 3, 79, 0
5, 425580, Note_on_c, 3, 79, 106
5, 425624, Note_on_c, 3, 81, 0
5, 425640, Note_on_c, 3, 81, 104
5, 425684, Note_on_c, 3, 79, 0
5, 425700, Note_on_c, 3, 79, 98
5, 425744, Note_on_c, 3, 81, 0
5, 425760, Note_on_c, 3, 81, 93
5, 425804, Note_on_c, 3, 79, 0
5, 425820, Note_on_c, 3, 79, 91
5, 425864, Note_on_c, 3, 81, 0
5, 425880, Note_on_c, 3, 81, 88
5, 425924, Note_on_c, 3, 79, 0
5, 425940, Note_on_c, 3, 79, 83
5, 425984, Note_on_c, 3, 81, 0
5, 426000, Note_on_c, 3, 77, 82
5, 426079, Note_on_c, 3, 79, 0
5, 426120, Note_on_c, 3, 79, 82
5, 426160, Note_on_c, 3, 77, 0
5, 426240, Note_on_c, 3, 77, 92
5, 426280, Note_on_c, 3, 79, 0
5, 426720, Note_on_c, 3, 77, 0
5, 430080, Note_on_c, 3, 84, 90
5, 435732, Note_on_c, 3, 84, 0
5, 435840, Note_on_c, 3, 84, 90
5, 436560, Note_on_c, 3, 81, 90
5, 436608, Note_on_c, 3, 84, 0
5, 436740, Note_on_c, 3, 81, 0
5, 436800, Note_on_c, 3, 89, 90
5, 436956, Note_on_c, 3, 89, 0
5, 449280, Note_on_c, 3, 67, 90
5, 452892, Note_on_c, 3, 67, 0
5, 453120, Note_on_c, 3, 86, 90
5, 453360, Note_on_c, 3, 86, 0
5, 453360, Note_on_c, 3, 84, 90
5, 453600, Note_on_c, 3, 84, 0
5, 453600, Note_on_c, 3, 83, 90
5, 453840, Note_on_c, 3, 83, 0
5, 453840, Note_on_c, 3, 81, 90
5, 454080, Note_on_c, 3, 81, 0
5, 454080, Note_on_c, 3, 79, 90
5, 454320, Note_on_c, 3, 79, 0
5, 454320, Note_on_c, 3, 77, 90
5, 454560, Note_on_c, 3, 77, 0
5, 454560, Note_on_c, 3, 76, 90
5, 454800, Note_on_c, 3, 76, 0
5, 454800, Note_on_c, 3, 74, 90
5, 455040, Note_on_c, 3, 74, 0
5, 455040, Note_on_c, 3, 72, 90
5, 455280, Note_on_c, 3, 72, 0
5, 455280, Note_on_c, 3, 74, 90
5, 455520, Note_on_c, 3, 74, 0
5, 455520, Note_on_c, 3, 76, 90
5, 455760, Note_on_c, 3, 76, 0
5, 455760, Note_on_c, 3, 77, 90
5, 456000, Note_on_c, 3, 77, 0
5, 456000, Note_on_c, 3, 79, 90
5, 456240, Note_on_c, 3, 79, 0
5, 456240, Note_on_c, 3, 81, 90
5, 456480, Note_on_c, 3, 81, 0
5, 456480, Note_on_c, 3, 83, 90
5, 456720, Note_on_c, 3, 83, 0
5, 456720, Note_on_c, 3, 84, 90
5, 456960, Note_on_c, 3, 84, 0
5, 456960, Note_on_c, 3, 83, 90
5, 457200, Note_on_c, 3, 83, 0
5, 457200, Note_on_c, 3, 81, 90
5, 457440, Note_on_c, 3, 81, 0
5, 457440, Note_on_c, 3, 80, 90
5, 457680, Note_on_c, 3, 80, 0
5, 457680, Note_on_c, 3, 77, 90
5, 457920, Note_on_c, 3, 77, 0
5, 457920, Note_on_c, 3, 76, 90
5, 458160, Note_on_c, 3, 76, 0
5, 458160, Note_on_c, 3, 74, 90
5, 458400, Note_on_c, 3, 74, 0
5, 458400, Note_on_c, 3, 72, 90
5, 458640, Note_on_c, 3, 72, 0
5, 458640, Note_on_c, 3, 71, 90
5, 458880, Note_on_c, 3, 71, 0
5, 458880, Note_on_c, 3, 69, 90
5, 459120, Note_on_c, 3, 69, 0
5, 459120, Note_on_c, 3, 71, 90
5, 459360, Note_on_c, 3, 71, 0
5, 459360, Note_on_c, 3, 72, 90
5, 459600, Note_on_c, 3, 72, 0
5, 459600, Note_on_c, 3, 74, 90
5, 459840, Note_on_c, 3, 74, 0
5, 459840, Note_on_c, 3, 76, 90
5, 460080, Note_on_c, 3, 76, 0
5, 460080, Note_on_c, 3, 77, 90
5, 460320, Note_on_c, 3, 77, 0
5, 460320, Note_on_c, 3, 80, 90
5, 460560, Note_on_c, 3, 80, 0
5, 460560, Note_on_c, 3, 81, 90
5, 460800, Note_on_c, 3, 81, 0
5, 460800, Note_on_c, 3, 79, 90
5, 461040, Note_on_c, 3, 79, 0
5, 461040, Note_on_c, 3, 77, 90
5, 461280, Note_on_c, 3, 77, 0
5, 461280, Note_on_c, 3, 76, 90
5, 461520, Note_on_c, 3, 76, 0
5, 461520, Note_on_c, 3, 74, 90
5, 461760, Note_on_c, 3, 74, 0
5, 461760, Note_on_c, 3, 72, 90
5, 462000, Note_on_c, 3, 72, 0
5, 462000, Note_on_c, 3, 70, 90
5, 462240, Note_on_c, 3, 70, 0
5, 462240, Note_on_c, 3, 69, 90
5, 462480, Note_on_c, 3, 69, 0
5, 462480, Note_on_c, 3, 67, 90
5, 462720, Note_on_c, 3, 67, 0
5, 462720, Note_on_c, 3, 65, 90
5, 463200, Note_on_c, 3, 65, 0
5, 466560, Note_on_c, 3, 71, 90
5, 466800, Note_on_c, 3, 71, 0
5, 466800, Note_on_c, 3, 67, 90
5, 467040, Note_on_c, 3, 67, 0
5, 467040, Note_on_c, 3, 69, 90
5, 467280, Note_on_c, 3, 69, 0
5, 467280, Note_on_c, 3, 71, 90
5, 467520, Note_on_c, 3, 71, 0
5, 467520, Note_on_c, 3, 72, 90
5, 467760, Note_on_c, 3, 72, 0
5, 467760, Note_on_c, 3, 74, 90
5, 468000, Note_on_c, 3, 74, 0
5, 468000, Note_on_c, 3, 76, 90
5, 468240, Note_on_c, 3, 76, 0
5, 468240, Note_on_c, 3, 78, 90
5, 468480, Note_on_c, 3, 78, 0
5, 468480, Note_on_c, 3, 79, 90
5, 468720, Note_on_c, 3, 79, 0
5, 468720, Note_on_c, 3, 78, 90
5, 468960, Note_on_c, 3, 78, 0
5, 468960, Note_on_c, 3, 79, 90
5, 469200, Note_on_c, 3, 79, 0
5, 469200, Note_on_c, 3, 78, 90
5, 469440, Note_on_c, 3, 78, 0
5, 469440, Note_on_c, 3, 79, 90
5, 469680, Note_on_c, 3, 79, 0
5, 469680, Note_on_c, 3, 78, 90
5, 469920, Note_on_c, 3, 78, 0
5, 469920, Note_on_c, 3, 79, 90
5, 470160, Note_on_c, 3, 79, 0
5, 470160, Note_on_c, 3, 78, 90
5, 470400, Note_on_c, 3, 78, 0
5, 470400, Note_on_c, 3, 79, 90
5, 478560, Note_on_c, 3, 79, 0
5, 478800, Note_on_c, 3, 79, 90
5, 478992, Note_on_c, 3, 79, 0
5, 479040, Note_on_c, 3, 78, 90
5, 479280, Note_on_c, 3, 79, 90
5, 479354, Note_on_c, 3, 78, 0
5, 479520, Note_on_c, 3, 78, 90
5, 479594, Note_on_c, 3, 79, 0
5, 479760, Note_on_c, 3, 79, 90
5, 479834, Note_on_c, 3, 78, 0
5, 479952, Note_on_c, 3, 79, 0
5, 480000, Note_on_c, 3, 84, 90
5, 480480, Note_on_c, 3, 82, 90
5, 480528, Note_on_c, 3, 84, 0
5, 480960, Note_on_c, 3, 80, 90
5, 481008, Note_on_c, 3, 82, 0
5, 481440, Note_on_c, 3, 79, 90
5, 481488, Note_on_c, 3, 80, 0
5, 481812, Note_on_c, 3, 79, 0
5, 481920, Note_on_c, 3, 79, 90
5, 482640, Note_on_c, 3, 78, 90
5, 482724, Note_on_c, 3, 79, 0
5, 482820, Note_on_c, 3, 78, 0
5, 482880, Note_on_c, 3, 78, 90
5, 484236, Note_on_c, 3, 78, 0
5, 484320, Note_on_c, 3, 75, 90
5, 484800, Note_on_c, 3, 75, 0
5, 484800, Note_on_c, 3, 74, 90
5, 485280, Note_on_c, 3, 74, 0
5, 485280, Note_on_c, 3, 72, 90
5, 485676, Note_on_c, 3, 72, 0
5, 485760, Note_on_c, 3, 71, 90
5, 486000, Note_on_c, 3, 74, 90
5, 486048, Note_on_c, 3, 71, 0
5, 486156, Note_on_c, 3, 74, 0
5, 486240, Note_on_c, 3, 79, 90
5, 486336, Note_on_c, 3, 79, 0
5, 486480, Note_on_c, 3, 79, 90
5, 486576, Note_on_c, 3, 79, 0
5, 486720, Note_on_c, 3, 79, 90
5, 488028, Note_on_c, 3, 79, 0
5, 488160, Note_on_c, 3, 83, 90
5, 488256, Note_on_c, 3, 83, 0
5, 488400, Note_on_c, 3, 86, 90
5, 488496, Note_on_c, 3, 86, 0
5, 488640, Note_on_c, 3, 84, 90
5, 488880, Note_on_c, 3, 83, 90
5, 488964, Note_on_c, 3, 84, 0
5, 489060, Note_on_c, 3, 83, 0
5, 489120, Note_on_c, 3, 81, 90
5, 489216, Note_on_c, 3, 81, 0
5, 489360, Note_on_c, 3, 79, 90
5, 489456, Note_on_c, 3, 79, 0
5, 489600, Note_on_c, 3, 79, 90
5, 490080, Note_on_c, 3, 78, 90
5, 490152, Note_on_c, 3, 79, 0
5, 490476, Note_on_c, 3, 78, 0
5, 490560, Note_on_c, 3, 87, 90
5, 491928, Note_on_c, 3, 87, 0
5, 492000, Note_on_c, 3, 84, 90
5, 492480, Note_on_c, 3, 87, 90
5, 492564, Note_on_c, 3, 84, 0
5, 492960, Note_on_c, 3, 78, 90
5, 493032, Note_on_c, 3, 87, 0
5, 493332, Note_on_c, 3, 78, 0
5, 493440, Note_on_c, 3, 79, 90
5, 493920, Note_on_c, 3, 79, 0
5, 494400, Note_on_c, 3, 84, 90
5, 494880, Note_on_c, 3, 78, 90
5, 494928, Note_on_c, 3, 84, 0
5, 495264, Note_on_c, 3, 78, 0
5, 495360, Note_on_c, 3, 79, 90
5, 495840, Note_on_c, 3, 79, 0
5, 496320, Note_on_c, 3, 84, 90
5, 496800, Note_on_c, 3, 78, 90
5, 496848, Note_on_c, 3, 84, 0
5, 497160, Note_on_c, 3, 78, 0
5, 497280, Note_on_c, 3, 79, 90
5, 497664, Note_on_c, 3, 79, 0
5, 498240, Note_on_c, 3, 79, 90
5, 498600, Note_on_c, 3, 79, 0
5, 499200, Note_on_c, 3, 79, 90
5, 499440, Note_on_c, 3, 78, 90
5, 499505, Note_on_c, 3, 79, 0
5, 499680, Note_on_c, 3, 79, 90
5, 499745, Note_on_c, 3, 78, 0
5, 499920, Note_on_c, 3, 78, 90
5, 499985, Note_on_c, 3, 79, 0
5, 500160, Note_on_c, 3, 79, 90
5, 500225, Note_on_c, 3, 78, 0
5, 500400, Note_on_c, 3, 78, 90
5, 500465, Note_on_c, 3, 79, 0
5, 500640, Note_on_c, 3, 79, 90
5, 500705, Note_on_c, 3, 78, 0
5, 500880, Note_on_c, 3, 78, 90
5, 500945, Note_on_c, 3, 79, 0
5, 501036, Note_on_c, 3, 78, 0
5, 501120, Note_on_c, 3, 79, 90
5, 502560, Note_on_c, 3, 79, 0
5, 502560, Note_on_c, 3, 76, 90
5, 502800, Note_on_c, 3, 76, 0
5, 502800, Note_on_c, 3, 77, 90
5, 503040, Note_on_c, 3, 77, 0
5, 503040, Note_on_c, 3, 79, 90
5, 503460, Note_on_c, 3, 79, 0
5, 503520, Note_on_c, 3, 79, 90
5, 503952, Note_on_c, 3, 79, 0
5, 504000, Note_on_c, 3, 79, 90
5, 504396, Note_on_c, 3, 79, 0
5, 504480, Note_on_c, 3, 79, 90
5, 504900, Note_on_c, 3, 79, 0
5, 504960, Note_on_c, 3, 79, 90
5, 505680, Note_on_c, 3, 88, 90
5, 505704, Note_on_c, 3, 79, 0
5, 505872, Note_on_c, 3, 88, 0
5, 505920, Note_on_c, 3, 88, 90
5, 507780, Note_on_c, 3, 88, 0
5, 507840, Note_on_c, 3, 79, 90
5, 508800, Note_on_c, 3, 79, 0
5, 508800, Note_on_c, 3, 77, 90
5, 510240, Note_on_c, 3, 77, 0
5, 510240, Note_on_c, 3, 74, 90
5, 510480, Note_on_c, 3, 74, 0
5, 510480, Note_on_c, 3, 76, 90
5, 510720, Note_on_c, 3, 76, 0
5, 510720, Note_on_c, 3, 77, 90
5, 511152, Note_on_c, 3, 77, 0
5, 511200, Note_on_c, 3, 77, 90
5, 511632, Note_on_c, 3, 77, 0
5, 511680, Note_on_c, 3, 77, 90
5, 512112, Note_on_c, 3, 77, 0
5, 512160, Note_on_c, 3, 77, 90
5, 512604, Note_on_c, 3, 77, 0
5, 512640, Note_on_c, 3, 77, 90
5, 513360, Note_on_c, 3, 86, 90
5, 513420, Note_on_c, 3, 77, 0
5, 513528, Note_on_c, 3, 86, 0
5, 513600, Note_on_c, 3, 86, 90
5, 515520, Note_on_c, 3, 86, 0
5, 515520, Note_on_c, 3, 77, 90
5, 516480, Note_on_c, 3, 77, 0
5, 516480, Note_on_c, 3, 76, 90
5, 516960, Note_on_c, 3, 76, 0
5, 543840, Note_on_c, 3, 72, 90
5, 544272, Note_on_c, 3, 72, 0
5, 544320, Note_on_c, 3, 72, 90
5, 544728, Note_on_c, 3, 72, 0
5, 544800, Note_on_c, 3, 72, 90
5, 545208, Note_on_c, 3, 72, 0
5, 545280, Note_on_c, 3, 74, 90
5, 545760, Note_on_c, 3, 74, 0
5, 545760, Note_on_c, 3, 76, 96
5, 545820, Note_on_c, 3, 74, 101
5, 545859, Note_on_c, 3, 76, 0
5, 545880, Note_on_c, 3, 72, 103
5, 545919, Note_on_c, 3, 74, 0
5, 545940, Note_on_c, 3, 74, 93
5, 545979, Note_on_c, 3, 72, 0
5, 546000, Note_on_c, 3, 76, 85
5, 546039, Note_on_c, 3, 74, 0
5, 546144, Note_on_c, 3, 76, 0
5, 546240, Note_on_c, 3, 72, 90
5, 546648, Note_on_c, 3, 72, 0
5, 546720, Note_on_c, 3, 72, 90
5, 547128, Note_on_c, 3, 72, 0
5, 547200, Note_on_c, 3, 74, 90
5, 547680, Note_on_c, 3, 74, 0
5, 547680, Note_on_c, 3, 76, 97
5, 547740, Note_on_c, 3, 74, 102
5, 547779, Note_on_c, 3, 76, 0
5, 547800, Note_on_c, 3, 72, 102
5, 547839, Note_on_c, 3, 74, 0
5, 547860, Note_on_c, 3, 74, 100
5, 547899, Note_on_c, 3, 72, 0
5, 547920, Note_on_c, 3, 76, 96
5, 547959, Note_on_c, 3, 74, 0
5, 548088, Note_on_c, 3, 76, 0
5, 548160, Note_on_c, 3, 72, 90
5, 548544, Note_on_c, 3, 72, 0
5, 548640, Note_on_c, 3, 77, 90
5, 549072, Note_on_c, 3, 77, 0
5, 549120, Note_on_c, 3, 76, 90
5, 550080, Note_on_c, 3, 74, 90
5, 550152, Note_on_c, 3, 76, 0
5, 550560, Note_on_c, 3, 74, 0
5, 551520, Note_on_c, 3, 74, 90
5, 551940, Note_on_c, 3, 74, 0
5, 552000, Note_on_c, 3, 74, 90
5, 552396, Note_on_c, 3, 74, 0
5, 552480, Note_on_c, 3, 74, 90
5, 552876, Note_on_c, 3, 74, 0
5, 552960, Note_on_c, 3, 76, 90
5, 553440, Note_on_c, 3, 76, 0
5, 553440, Note_on_c, 3, 77, 90
5, 553500, Note_on_c, 3, 76, 90
5, 553539, Note_on_c, 3, 77, 0
5, 553560, Note_on_c, 3, 74, 90
5, 553599, Note_on_c, 3, 76, 0
5, 553620, Note_on_c, 3, 76, 90
5, 553659, Note_on_c, 3, 74, 0
5, 553680, Note_on_c, 3, 77, 90
5, 553719, Note_on_c, 3, 76, 0
5, 553812, Note_on_c, 3, 77, 0
5, 553920, Note_on_c, 3, 74, 90
5, 554340, Note_on_c, 3, 74, 0
5, 554400, Note_on_c, 3, 74, 90
5, 554820, Note_on_c, 3, 74, 0
5, 554880, Note_on_c, 3, 76, 90
5, 555360, Note_on_c, 3, 76, 0
5, 555360, Note_on_c, 3, 77, 90
5, 555420, Note_on_c, 3, 76, 90
5, 555459, Note_on_c, 3, 77, 0
5, 555480, Note_on_c, 3, 74, 90
5, 555519, Note_on_c, 3, 76, 0
5, 555540, Note_on_c, 3, 76, 90
5, 555579, Note_on_c, 3, 74, 0
5, 555600, Note_on_c, 3, 77, 90
5, 555639, Note_on_c, 3, 76, 0
5, 555768, Note_on_c, 3, 77, 0
5, 555840, Note_on_c, 3, 74, 90
5, 556236, Note_on_c, 3, 74, 0
5, 556320, Note_on_c, 3, 79, 90
5, 556740, Note_on_c, 3, 79, 0
5, 556800, Note_on_c, 3, 77, 90
5, 557760, Note_on_c, 3, 76, 90
5, 557820, Note_on_c, 3, 77, 0
5, 558240, Note_on_c, 3, 76, 0
5, 558960, Note_on_c, 3, 79, 90
5, 559200, Note_on_c, 3, 78, 90
5, 559270, Note_on_c, 3, 79, 0
5, 559440, Note_on_c, 3, 79, 90
5, 559510, Note_on_c, 3, 78, 0
5, 559596, Note_on_c, 3, 79, 0
5, 559680, Note_on_c, 3, 77, 90
5, 559920, Note_on_c, 3, 76, 90
5, 559990, Note_on_c, 3, 77, 0
5, 560160, Note_on_c, 3, 74, 90
5, 560230, Note_on_c, 3, 76, 0
5, 560400, Note_on_c, 3, 72, 90
5, 560470, Note_on_c, 3, 74, 0
5, 560544, Note_on_c, 3, 72, 0
5, 560640, Note_on_c, 3, 81, 90
5, 561360, Note_on_c, 3, 77, 90
5, 561408, Note_on_c, 3, 81, 0
5, 561516, Note_on_c, 3, 77, 0
5, 561600, Note_on_c, 3, 74, 90
5, 561744, Note_on_c, 3, 74, 0
5, 562560, Note_on_c, 3, 79, 90
5, 563280, Note_on_c, 3, 76, 90
5, 563340, Note_on_c, 3, 79, 0
5, 563460, Note_on_c, 3, 76, 0
5, 563520, Note_on_c, 3, 72, 90
5, 563652, Note_on_c, 3, 72, 0
5, 564480, Note_on_c, 3, 71, 90
5, 565200, Note_on_c, 3, 74, 90
5, 565248, Note_on_c, 3, 71, 0
5, 565368, Note_on_c, 3, 74, 0
5, 565440, Note_on_c, 3, 77, 90
5, 565572, Note_on_c, 3, 77, 0
5, 566880, Note_on_c, 3, 76, 90
5, 567288, Note_on_c, 3, 76, 0
5, 567360, Note_on_c, 3, 76, 90
5, 567780, Note_on_c, 3, 76, 0
5, 567840, Note_on_c, 3, 76, 90
5, 568236, Note_on_c, 3, 76, 0
5, 568320, Note_on_c, 3, 76, 90
5, 568764, Note_on_c, 3, 76, 0
5, 568800, Note_on_c, 3, 77, 89
5, 568992, Note_on_c, 3, 77, 0
5, 569040, Note_on_c, 3, 79, 91
5, 569232, Note_on_c, 3, 79, 0
5, 569280, Note_on_c, 3, 81, 99
5, 569688, Note_on_c, 3, 81, 0
5, 569760, Note_on_c, 3, 77, 99
5, 569964, Note_on_c, 3, 77, 0
5, 570000, Note_on_c, 3, 76, 97
5, 570180, Note_on_c, 3, 76, 0
5, 570240, Note_on_c, 3, 76, 87
5, 570360, Note_on_c, 3, 74, 93
5, 570395, Note_on_c, 3, 76, 0
5, 570480, Note_on_c, 3, 76, 96
5, 570515, Note_on_c, 3, 74, 0
5, 570600, Note_on_c, 3, 74, 101
5, 570635, Note_on_c, 3, 76, 0
5, 570720, Note_on_c, 3, 76, 101
5, 570755, Note_on_c, 3, 74, 0
5, 570780, Note_on_c, 3, 74, 97
5, 570820, Note_on_c, 3, 76, 0
5, 570840, Note_on_c, 3, 76, 94
5, 570880, Note_on_c, 3, 74, 0
5, 570900, Note_on_c, 3, 74, 92
5, 570940, Note_on_c, 3, 76, 0
5, 570960, Note_on_c, 3, 76, 87
5, 571000, Note_on_c, 3, 74, 0
5, 571020, Note_on_c, 3, 74, 87
5, 571060, Note_on_c, 3, 76, 0
5, 571080, Note_on_c, 3, 76, 84
5, 571120, Note_on_c, 3, 74, 0
5, 571140, Note_on_c, 3, 74, 82
5, 571180, Note_on_c, 3, 76, 0
5, 571200, Note_on_c, 3, 76, 82
5, 571240, Note_on_c, 3, 74, 0
5, 571260, Note_on_c, 3, 74, 82
5, 571300, Note_on_c, 3, 76, 0
5, 571320, Note_on_c, 3, 76, 79
5, 571360, Note_on_c, 3, 74, 0
5, 571380, Note_on_c, 3, 74, 77
5, 571420, Note_on_c, 3, 76, 0
5, 571440, Note_on_c, 3, 76, 77
5, 571480, Note_on_c, 3, 74, 0
5, 571500, Note_on_c, 3, 74, 77
5, 571540, Note_on_c, 3, 76, 0
5, 571560, Note_on_c, 3, 76, 77
5, 571600, Note_on_c, 3, 74, 0
5, 571620, Note_on_c, 3, 74, 77
5, 571660, Note_on_c, 3, 76, 0
5, 571680, Note_on_c, 3, 76, 77
5, 571720, Note_on_c, 3, 74, 0
5, 571740, Note_on_c, 3, 74, 77
5, 571780, Note_on_c, 3, 76, 0
5, 571800, Note_on_c, 3, 76, 77
5, 571840, Note_on_c, 3, 74, 0
5, 571860, Note_on_c, 3, 74, 77
5, 571900, Note_on_c, 3, 76, 0
5, 571920, Note_on_c, 3, 72, 77
5, 571960, Note_on_c, 3, 74, 0
5, 572040, Note_on_c, 3, 74, 81
5, 572075, Note_on_c, 3, 72, 0
5, 572160, Note_on_c, 3, 72, 86
5, 572195, Note_on_c, 3, 74, 0
5, 572640, Note_on_c, 3, 72, 0
5, 580080, Note_on_c, 3, 79, 90
5, 580320, Note_on_c, 3, 78, 90
5, 580368, Note_on_c, 3, 79, 0
5, 580560, Note_on_c, 3, 79, 90
5, 580608, Note_on_c, 3, 78, 0
5, 580800, Note_on_c, 3, 78, 90
5, 580848, Note_on_c, 3, 79, 0
5, 581040, Note_on_c, 3, 79, 90
5, 581088, Note_on_c, 3, 78, 0
5, 581280, Note_on_c, 3, 78, 90
5, 581328, Note_on_c, 3, 79, 0
5, 581520, Note_on_c, 3, 79, 90
5, 581568, Note_on_c, 3, 78, 0
5, 581700, Note_on_c, 3, 79, 0
5, 581760, Note_on_c, 3, 67, 90
5, 587520, Note_on_c, 3, 67, 0
5, 587760, Note_on_c, 3, 84, 90
5, 588000, Note_on_c, 3, 83, 90
5, 588048, Note_on_c, 3, 84, 0
5, 588240, Note_on_c, 3, 84, 90
5, 588288, Note_on_c, 3, 83, 0
5, 588480, Note_on_c, 3, 83, 90
5, 588528, Note_on_c, 3, 84, 0
5, 588720, Note_on_c, 3, 84, 90
5, 588768, Note_on_c, 3, 83, 0
5, 588960, Note_on_c, 3, 83, 90
5, 589008, Note_on_c, 3, 84, 0
5, 589200, Note_on_c, 3, 84, 90
5, 589248, Note_on_c, 3, 83, 0
5, 589368, Note_on_c, 3, 84, 0
5, 589440, Note_on_c, 3, 64, 90
5, 590328, Note_on_c, 3, 64, 0
5, 590400, Note_on_c, 3, 79, 90
5, 591312, Note_on_c, 3, 79, 0
5, 591360, Note_on_c, 3, 81, 90
5, 591840, Note_on_c, 3, 81, 0
5, 592320, Note_on_c, 3, 86, 90
5, 592512, Note_on_c, 3, 86, 0
5, 592560, Note_on_c, 3, 85, 90
5, 592764, Note_on_c, 3, 85, 0
5, 592800, Note_on_c, 3, 86, 90
5, 592992, Note_on_c, 3, 86, 0
5, 593040, Note_on_c, 3, 83, 90
5, 593244, Note_on_c, 3, 83, 0
5, 593280, Note_on_c, 3, 79, 90
5, 593760, Note_on_c, 3, 79, 0
5, 594240, Note_on_c, 3, 84, 90
5, 594432, Note_on_c, 3, 84, 0
5, 594480, Note_on_c, 3, 83, 90
5, 594684, Note_on_c, 3, 83, 0
5, 594720, Note_on_c, 3, 84, 90
5, 594912, Note_on_c, 3, 84, 0
5, 594960, Note_on_c, 3, 81, 90
5, 595164, Note_on_c, 3, 81, 0
5, 595200, Note_on_c, 3, 77, 90
5, 595860, Note_on_c, 3, 77, 0
5, 595920, Note_on_c, 3, 76, 90
5, 596112, Note_on_c, 3, 76, 0
5, 596160, Note_on_c, 3, 74, 90
5, 596352, Note_on_c, 3, 74, 0
5, 596400, Note_on_c, 3, 72, 90
5, 596604, Note_on_c, 3, 72, 0
5, 596640, Note_on_c, 3, 74, 90
5, 596808, Note_on_c, 3, 74, 0
5, 596880, Note_on_c, 3, 71, 90
5, 597072, Note_on_c, 3, 71, 0
5, 597120, Note_on_c, 3, 72, 90
5, 599484, Note_on_c, 3, 72, 0
5, 599520, Note_on_c, 3, 84, 90
5, 599952, Note_on_c, 3, 84, 0
5, 600000, Note_on_c, 3, 84, 90
5, 600396, Note_on_c, 3, 84, 0
5, 600480, Note_on_c, 3, 84, 90
5, 600924, Note_on_c, 3, 84, 0
5, 600960, Note_on_c, 3, 79, 90
5, 601860, Note_on_c, 3, 79, 0
5, 601920, Note_on_c, 3, 67, 90
5, 602820, Note_on_c, 3, 67, 0
5, 602880, Note_on_c, 3, 72, 90
5, 603360, Note_on_c, 3, 72, 0
5, 614400, Note_on_c, 3, 81, 90
5, 614520, Note_on_c, 3, 79, 97
5, 614544, Note_on_c, 3, 81, 0
5, 614640, Note_on_c, 3, 81, 103
5, 614664, Note_on_c, 3, 79, 0
5, 614760, Note_on_c, 3, 79, 101
5, 614784, Note_on_c, 3, 81, 0
5, 614880, Note_on_c, 3, 81, 91
5, 614904, Note_on_c, 3, 79, 0
5, 614940, Note_on_c, 3, 79, 88
5, 614980, Note_on_c, 3, 81, 0
5, 615000, Note_on_c, 3, 81, 86
5, 615040, Note_on_c, 3, 79, 0
5, 615060, Note_on_c, 3, 79, 86
5, 615100, Note_on_c, 3, 81, 0
5, 615120, Note_on_c, 3, 81, 87
5, 615160, Note_on_c, 3, 79, 0
5, 615180, Note_on_c, 3, 79, 87
5, 615220, Note_on_c, 3, 81, 0
5, 615240, Note_on_c, 3, 81, 90
5, 615280, Note_on_c, 3, 79, 0
5, 615300, Note_on_c, 3, 79, 95
5, 615340, Note_on_c, 3, 81, 0
5, 615360, Note_on_c, 3, 81, 100
5, 615400, Note_on_c, 3, 79, 0
5, 615420, Note_on_c, 3, 79, 100
5, 615460, Note_on_c, 3, 81, 0
5, 615480, Note_on_c, 3, 81, 100
5, 615520, Note_on_c, 3, 79, 0
5, 615540, Note_on_c, 3, 79, 97
5, 615580, Note_on_c, 3, 81, 0
5, 615600, Note_on_c, 3, 81, 92
5, 615640, Note_on_c, 3, 79, 0
5, 615660, Note_on_c, 3, 79, 90
5, 615700, Note_on_c, 3, 81, 0
5, 615720, Note_on_c, 3, 81, 87
5, 615760, Note_on_c, 3, 79, 0
5, 615780, Note_on_c, 3, 79, 82
5, 615820, Note_on_c, 3, 81, 0
5, 615840, Note_on_c, 3, 81, 79
5, 615880, Note_on_c, 3, 79, 0
5, 615900, Note_on_c, 3, 79, 79
5, 615940, Note_on_c, 3, 81, 0
5, 615960, Note_on_c, 3, 81, 79
5, 616000, Note_on_c, 3, 79, 0
5, 616020, Note_on_c, 3, 79, 81
5, 616060, Note_on_c, 3, 81, 0
5, 616080, Note_on_c, 3, 81, 86
5, 616120, Note_on_c, 3, 79, 0
5, 616140, Note_on_c, 3, 79, 91
5, 616180, Note_on_c, 3, 81, 0
5, 616200, Note_on_c, 3, 81, 96
5, 616240, Note_on_c, 3, 79, 0
5, 616260, Note_on_c, 3, 79, 99
5, 616300, Note_on_c, 3, 81, 0
5, 616320, Note_on_c, 3, 81, 101
5, 616360, Note_on_c, 3, 79, 0
5, 616380, Note_on_c, 3, 79, 101
5, 616420, Note_on_c, 3, 81, 0
5, 616440, Note_on_c, 3, 81, 100
5, 616480, Note_on_c, 3, 79, 0
5, 616500, Note_on_c, 3, 79, 97
5, 616540, Note_on_c, 3, 81, 0
5, 616560, Note_on_c, 3, 81, 92
5, 616600, Note_on_c, 3, 79, 0
5, 616620, Note_on_c, 3, 79, 90
5, 616660, Note_on_c, 3, 81, 0
5, 616680, Note_on_c, 3, 81, 87
5, 616720, Note_on_c, 3, 79, 0
5, 616740, Note_on_c, 3, 79, 82
5, 616780, Note_on_c, 3, 81, 0
5, 616800, Note_on_c, 3, 81, 77
5, 616840, Note_on_c, 3, 79, 0
5, 616860, Note_on_c, 3, 79, 77
5, 616900, Note_on_c, 3, 81, 0
5, 616920, Note_on_c, 3, 81, 76
5, 616960, Note_on_c, 3, 79, 0
5, 616980, Note_on_c, 3, 79, 80
5, 617020, Note_on_c, 3, 81, 0
5, 617040, Note_on_c, 3, 81, 85
5, 617080, Note_on_c, 3, 79, 0
5, 617100, Note_on_c, 3, 79, 90
5, 617140, Note_on_c, 3, 81, 0
5, 617160, Note_on_c, 3, 81, 95
5, 617200, Note_on_c, 3, 79, 0
5, 617220, Note_on_c, 3, 79, 98
5, 617260, Note_on_c, 3, 81, 0
5, 617280, Note_on_c, 3, 81, 100
5, 617320, Note_on_c, 3, 79, 0
5, 617340, Note_on_c, 3, 79, 100
5, 617380, Note_on_c, 3, 81, 0
5, 617400, Note_on_c, 3, 81, 99
5, 617440, Note_on_c, 3, 79, 0
5, 617460, Note_on_c, 3, 79, 99
5, 617500, Note_on_c, 3, 81, 0
5, 617520, Note_on_c, 3, 81, 93
5, 617560, Note_on_c, 3, 79, 0
5, 617580, Note_on_c, 3, 79, 88
5, 617620, Note_on_c, 3, 81, 0
5, 617640, Note_on_c, 3, 81, 83
5, 617680, Note_on_c, 3, 79, 0
5, 617700, Note_on_c, 3, 79, 81
5, 617740, Note_on_c, 3, 81, 0
5, 617760, Note_on_c, 3, 81, 81
5, 617800, Note_on_c, 3, 79, 0
5, 617820, Note_on_c, 3, 79, 80
5, 617860, Note_on_c, 3, 81, 0
5, 617880, Note_on_c, 3, 81, 80
5, 617920, Note_on_c, 3, 79, 0
5, 617940, Note_on_c, 3, 79, 82
5, 617980, Note_on_c, 3, 81, 0
5, 618000, Note_on_c, 3, 78, 82
5, 618040, Note_on_c, 3, 79, 0
5, 618120, Note_on_c, 3, 79, 85
5, 618144, Note_on_c, 3, 78, 0
5, 618192, Note_on_c, 3, 79, 0
5, 618240, Note_on_c, 3, 79, 90
5, 618720, Note_on_c, 3, 79, 0
5, 621120, Note_on_c, 3, 79, 104
5, 621600, Note_on_c, 3, 77, 90
5, 621648, Note_on_c, 3, 79, 0
5, 621972, Note_on_c, 3, 77, 0
5, 624960, Note_on_c, 3, 72, 109
5, 625440, Note_on_c, 3, 71, 90
5, 625512, Note_on_c, 3, 72, 0
5, 625836, Note_on_c, 3, 71, 0
5, 632160, Note_on_c, 3, 79, 90
5, 633012, Note_on_c, 3, 79, 0
5, 633120, Note_on_c, 3, 84, 91
5, 633180, Note_on_c, 3, 83, 93
5, 633220, Note_on_c, 3, 84, 0
5, 633240, Note_on_c, 3, 84, 96
5, 633280, Note_on_c, 3, 83, 0
5, 633300, Note_on_c, 3, 83, 98
5, 633340, Note_on_c, 3, 84, 0
5, 633360, Note_on_c, 3, 81, 101
5, 633400, Note_on_c, 3, 83, 0
5, 633480, Note_on_c, 3, 83, 103
5, 633516, Note_on_c, 3, 81, 0
5, 633564, Note_on_c, 3, 83, 0
5, 633600, Note_on_c, 3, 84, 96
5, 641520, Note_on_c, 3, 79, 90
5, 641568, Note_on_c, 3, 84, 0
5, 641688, Note_on_c, 3, 79, 0
5, 641760, Note_on_c, 3, 79, 90
5, 642648, Note_on_c, 3, 79, 0
5, 642720, Note_on_c, 3, 77, 90
5, 642888, Note_on_c, 3, 77, 0
5, 642960, Note_on_c, 3, 76, 90
5, 643128, Note_on_c, 3, 76, 0
5, 643200, Note_on_c, 3, 76, 90
5, 643440, Note_on_c, 3, 74, 90
5, 643488, Note_on_c, 3, 76, 0
5, 643608, Note_on_c, 3, 74, 0
5, 643680, Note_on_c, 3, 72, 90
5, 644640, Note_on_c, 3, 71, 90
5, 644688, Note_on_c, 3, 72, 0
5, 645060, Note_on_c, 3, 71, 0
5, 645120, Note_on_c, 3, 72, 90
5, 645600, Note_on_c, 3, 72, 0
5, 649440, Note_on_c, 3, 72, 105
5, 649536, Note_on_c, 3, 72, 0
5, 649680, Note_on_c, 3, 72, 104
5, 649776, Note_on_c, 3, 72, 0
5, 649920, Note_on_c, 3, 71, 105
5, 650160, Note_on_c, 3, 74, 90
5, 650220, Note_on_c, 3, 71, 0
5, 650328, Note_on_c, 3, 74, 0
5, 650400, Note_on_c, 3, 77, 105
5, 650496, Note_on_c, 3, 77, 0
5, 650640, Note_on_c, 3, 77, 105
5, 650736, Note_on_c, 3, 77, 0
5, 650880, Note_on_c, 3, 72, 105
5, 651120, Note_on_c, 3, 76, 90
5, 651192, Note_on_c, 3, 72, 0
5, 651288, Note_on_c, 3, 76, 0
5, 651360, Note_on_c, 3, 79, 102
5, 651456, Note_on_c, 3, 79, 0
5, 651600, Note_on_c, 3, 79, 102
5, 651696, Note_on_c, 3, 79, 0
5, 651840, Note_on_c, 3, 74, 104
5, 652080, Note_on_c, 3, 79, 90
5, 652164, Note_on_c, 3, 74, 0
5, 652248, Note_on_c, 3, 79, 0
5, 652320, Note_on_c, 3, 83, 103
5, 652416, Note_on_c, 3, 83, 0
5, 652560, Note_on_c, 3, 83, 106
5, 652656, Note_on_c, 3, 83, 0
5, 652800, Note_on_c, 3, 84, 106
5, 653172, Note_on_c, 3, 84, 0
5, 653280, Note_on_c, 3, 72, 99
5, 653376, Note_on_c, 3, 72, 0
5, 653520, Note_on_c, 3, 72, 99
5, 653616, Note_on_c, 3, 72, 0
5, 653760, Note_on_c, 3, 71, 101
5, 654000, Note_on_c, 3, 74, 90
5, 654084, Note_on_c, 3, 71, 0
5, 654192, Note_on_c, 3, 74, 0
5, 654240, Note_on_c, 3, 77, 90
5, 654336, Note_on_c, 3, 77, 0
5, 654480, Note_on_c, 3, 77, 99
5, 654576, Note_on_c, 3, 77, 0
5, 654720, Note_on_c, 3, 72, 101
5, 654960, Note_on_c, 3, 76, 90
5, 655020, Note_on_c, 3, 72, 0
5, 655140, Note_on_c, 3, 76, 0
5, 655200, Note_on_c, 3, 79, 99
5, 655296, Note_on_c, 3, 79, 0
5, 655440, Note_on_c, 3, 79, 101
5, 655536, Note_on_c, 3, 79, 0
5, 655680, Note_on_c, 3, 74, 103
5, 655920, Note_on_c, 3, 79, 90
5, 655992, Note_on_c, 3, 74, 0
5, 656112, Note_on_c, 3, 79, 0
5, 656160, Note_on_c, 3, 83, 100
5, 656256, Note_on_c, 3, 83, 0
5, 656400, Note_on_c, 3, 83, 100
5, 656496, Note_on_c, 3, 83, 0
5, 656640, Note_on_c, 3, 84, 100
5, 657120, Note_on_c, 3, 84, 0
5, 675840, Note_on_c, 3, 72, 90
5, 676272, Note_on_c, 3, 72, 0
5, 676320, Note_on_c, 3, 84, 90
5, 677184, Note_on_c, 3, 84, 0
5, 677280, Note_on_c, 3, 83, 90
5, 677484, Note_on_c, 3, 83, 0
5, 677520, Note_on_c, 3, 81, 90
5, 677712, Note_on_c, 3, 81, 0
5, 677760, Note_on_c, 3, 81, 90
5, 677976, Note_on_c, 3, 81, 0
5, 678000, Note_on_c, 3, 79, 90
5, 678180, Note_on_c, 3, 79, 0
5, 678240, Note_on_c, 3, 77, 90
5, 678444, Note_on_c, 3, 77, 0
5, 678480, Note_on_c, 3, 76, 90
5, 678672, Note_on_c, 3, 76, 0
5, 678720, Note_on_c, 3, 76, 90
5, 678936, Note_on_c, 3, 76, 0
5, 678960, Note_on_c, 3, 74, 90
5, 679152, Note_on_c, 3, 74, 0
5, 679200, Note_on_c, 3, 72, 90
5, 679380, Note_on_c, 3, 72, 0
5, 679440, Note_on_c, 3, 71, 90
5, 679620, Note_on_c, 3, 71, 0
5, 679680, Note_on_c, 3, 72, 90
5, 680124, Note_on_c, 3, 72, 0
5, 680160, Note_on_c, 3, 84, 90
5, 681084, Note_on_c, 3, 84, 0
5, 681120, Note_on_c, 3, 83, 90
5, 681324, Note_on_c, 3, 83, 0
5, 681360, Note_on_c, 3, 81, 90
5, 681564, Note_on_c, 3, 81, 0
5, 681600, Note_on_c, 3, 81, 90
5, 681804, Note_on_c, 3, 81, 0
5, 681840, Note_on_c, 3, 79, 90
5, 682044, Note_on_c, 3, 79, 0
5, 682080, Note_on_c, 3, 77, 90
5, 682260, Note_on_c, 3, 77, 0
5, 682320, Note_on_c, 3, 76, 90
5, 682524, Note_on_c, 3, 76, 0
5, 682560, Note_on_c, 3, 76, 90
5, 682764, Note_on_c, 3, 76, 0
5, 682800, Note_on_c, 3, 74, 90
5, 682980, Note_on_c, 3, 74, 0
5, 683040, Note_on_c, 3, 72, 90
5, 683220, Note_on_c, 3, 72, 0
5, 683280, Note_on_c, 3, 71, 90
5, 683484, Note_on_c, 3, 71, 0
5, 683520, Note_on_c, 3, 72, 90
5, 684000, Note_on_c, 3, 72, 0
5, 691200, Note_on_c, 3, 84, 90
5, 693256, Control_c, 3, 7, 89
5, 693572, Control_c, 3, 7, 87
5, 693588, Control_c, 3, 7, 84
5, 693600, Note_on_c, 3, 84, 0
5, 693616, Control_c, 3, 7, 82
5, 693636, Control_c, 3, 7, 79
5, 693664, Control_c, 3, 7, 77
5, 693676, Control_c, 3, 7, 72
5, 693692, Control_c, 3, 7, 69
5, 693704, Control_c, 3, 7, 64
5, 693720, Control_c, 3, 7, 59
5, 693736, Control_c, 3, 7, 49
5, 693748, Control_c, 3, 7, 38
5, 693764, Control_c, 3, 7, 17
5, 693776, Control_c, 3, 7, 0
5, 693852, Control_c, 3, 7, 89
5, 693864, Note_on_c, 3, 84, 90
5, 694010, Note_on_c, 3, 84, 0
5, 694080, Note_on_c, 3, 84, 90
5, 694200, Note_on_c, 3, 83, 90
5, 694226, Note_on_c, 3, 84, 0
5, 694320, Note_on_c, 3, 84, 90
5, 694346, Note_on_c, 3, 83, 0
5, 694380, Note_on_c, 3, 83, 90
5, 694420, Note_on_c, 3, 84, 0
5, 694440, Note_on_c, 3, 84, 90
5, 694480, Note_on_c, 3, 83, 0
5, 694500, Note_on_c, 3, 83, 90
5, 694540, Note_on_c, 3, 84, 0
5, 694560, Note_on_c, 3, 84, 90
5, 694600, Note_on_c, 3, 83, 0
5, 694620, Note_on_c, 3, 83, 90
5, 694660, Note_on_c, 3, 84, 0
5, 694680, Note_on_c, 3, 84, 90
5, 694720, Note_on_c, 3, 83, 0
5, 694740, Note_on_c, 3, 83, 90
5, 694780, Note_on_c, 3, 84, 0
5, 694800, Note_on_c, 3, 81, 90
5, 694840, Note_on_c, 3, 83, 0
5, 694920, Note_on_c, 3, 83, 90
5, 694946, Note_on_c, 3, 81, 0
5, 695040, Note_on_c, 3, 83, 0
5, 695040, Note_on_c, 3, 84, 90
5, 695520, Note_on_c, 3, 84, 0
5, 708480, Note_on_c, 3, 72, 90
5, 709380, Note_on_c, 3, 72, 0
5, 709440, Note_on_c, 3, 71, 90
5, 710280, Note_on_c, 3, 71, 0
5, 710400, Note_on_c, 3, 72, 90
5, 710808, Note_on_c, 3, 72, 0
5, 710880, Note_on_c, 3, 67, 90
5, 711072, Note_on_c, 3, 67, 0
5, 711120, Note_on_c, 3, 64, 90
5, 711324, Note_on_c, 3, 64, 0
5, 711360, Note_on_c, 3, 60, 90
5, 711840, Note_on_c, 3, 60, 0
5, 712320, Note_on_c, 3, 72, 90
5, 712512, Note_on_c, 3, 72, 0
5, 712560, Note_on_c, 3, 71, 90
5, 712764, Note_on_c, 3, 71, 0
5, 712800, Note_on_c, 3, 72, 90
5, 713004, Note_on_c, 3, 72, 0
5, 713040, Note_on_c, 3, 71, 90
5, 713232, Note_on_c, 3, 71, 0
5, 713280, Note_on_c, 3, 72, 90
5, 713760, Note_on_c, 3, 72, 0
5, 714240, Note_on_c, 3, 84, 90
5, 714456, Note_on_c, 3, 84, 0
5, 714480, Note_on_c, 3, 83, 90
5, 714684, Note_on_c, 3, 83, 0
5, 714720, Note_on_c, 3, 84, 90
5, 714924, Note_on_c, 3, 84, 0
5, 714960, Note_on_c, 3, 83, 90
5, 715164, Note_on_c, 3, 83, 0
5, 715200, Note_on_c, 3, 84, 90
5, 715680, Note_on_c, 3, 84, 0
5, 716160, Note_on_c, 3, 79, 90
5, 719004, Note_on_c, 3, 79, 0
5, 719040, Note_on_c, 3, 71, 90
5, 719964, Note_on_c, 3, 71, 0
5, 720000, Note_on_c, 3, 72, 90
5, 720432, Note_on_c, 3, 72, 0
5, 720480, Note_on_c, 3, 76, 90
5, 720900, Note_on_c, 3, 76, 0
5, 720960, Note_on_c, 3, 77, 90
5, 721188, Note_on_c, 3, 77, 0
5, 721200, Note_on_c, 3, 76, 90
5, 721428, Note_on_c, 3, 76, 0
5, 721440, Note_on_c, 3, 74, 90
5, 721632, Note_on_c, 3, 74, 0
5, 721680, Note_on_c, 3, 72, 90
5, 721872, Note_on_c, 3, 72, 0
5, 721920, Note_on_c, 3, 72, 90
5, 722400, Note_on_c, 3, 71, 90
5, 722460, Note_on_c, 3, 72, 0
5, 722784, Note_on_c, 3, 71, 0
5, 722880, Note_on_c, 3, 76, 90
5, 723300, Note_on_c, 3, 76, 0
5, 723360, Note_on_c, 3, 76, 90
5, 723756, Note_on_c, 3, 76, 0
5, 723840, Note_on_c, 3, 76, 90
5, 724764, Note_on_c, 3, 76, 0
5, 724800, Note_on_c, 3, 79, 90
5, 725016, Note_on_c, 3, 79, 0
5, 725040, Note_on_c, 3, 77, 90
5, 725256, Note_on_c, 3, 77, 0
5, 725280, Note_on_c, 3, 76, 90
5, 725496, Note_on_c, 3, 76, 0
5, 725520, Note_on_c, 3, 77, 90
5, 725736, Note_on_c, 3, 77, 0
5, 725760, Note_on_c, 3, 79, 90
5, 725976, Note_on_c, 3, 79, 0
5, 726000, Note_on_c, 3, 76, 90
5, 726216, Note_on_c, 3, 76, 0
5, 726240, Note_on_c, 3, 72, 90
5, 726720, Note_on_c, 3, 72, 0
5, 726720, Note_on_c, 3, 84, 90
5, 727356, Note_on_c, 3, 84, 0
5, 727440, Note_on_c, 3, 83, 90
5, 727656, Note_on_c, 3, 83, 0
5, 727680, Note_on_c, 3, 83, 90
5, 727896, Note_on_c, 3, 83, 0
5, 727920, Note_on_c, 3, 81, 90
5, 728136, Note_on_c, 3, 81, 0
5, 728160, Note_on_c, 3, 79, 90
5, 728604, Note_on_c, 3, 79, 0
5, 728640, Note_on_c, 3, 84, 90
5, 729288, Note_on_c, 3, 84, 0
5, 729360, Note_on_c, 3, 83, 90
5, 729576, Note_on_c, 3, 83, 0
5, 729600, Note_on_c, 3, 83, 90
5, 729816, Note_on_c, 3, 83, 0
5, 729840, Note_on_c, 3, 81, 90
5, 730056, Note_on_c, 3, 81, 0
5, 730080, Note_on_c, 3, 79, 90
5, 730524, Note_on_c, 3, 79, 0
5, 730560, Note_on_c, 3, 72, 90
5, 731004, Note_on_c, 3, 72, 0
5, 731040, Note_on_c, 3, 72, 90
5, 731472, Note_on_c, 3, 72, 0
5, 731520, Note_on_c, 3, 72, 90
5, 732420, Note_on_c, 3, 72, 0
5, 732492, Note_on_c, 3, 76, 90
5, 732672, Note_on_c, 3, 76, 0
5, 732720, Note_on_c, 3, 74, 90
5, 732936, Note_on_c, 3, 74, 0
5, 732960, Note_on_c, 3, 72, 90
5, 733176, Note_on_c, 3, 72, 0
5, 733200, Note_on_c, 3, 74, 90
5, 733416, Note_on_c, 3, 74, 0
5, 733440, Note_on_c, 3, 76, 90
5, 733872, Note_on_c, 3, 76, 0
5, 733920, Note_on_c, 3, 76, 90
5, 734352, Note_on_c, 3, 76, 0
5, 734400, Note_on_c, 3, 79, 90
5, 734616, Note_on_c, 3, 79, 0
5, 734640, Note_on_c, 3, 77, 90
5, 734856, Note_on_c, 3, 77, 0
5, 734880, Note_on_c, 3, 76, 90
5, 735096, Note_on_c, 3, 76, 0
5, 735120, Note_on_c, 3, 77, 90
5, 735336, Note_on_c, 3, 77, 0
5, 735360, Note_on_c, 3, 79, 90
5, 735576, Note_on_c, 3, 79, 0
5, 735600, Note_on_c, 3, 76, 90
5, 735816, Note_on_c, 3, 76, 0
5, 735840, Note_on_c, 3, 79, 90
5, 736056, Note_on_c, 3, 79, 0
5, 736080, Note_on_c, 3, 76, 90
5, 736296, Note_on_c, 3, 76, 0
5, 736320, Note_on_c, 3, 79, 90
5, 736560, Note_on_c, 3, 77, 90
5, 736620, Note_on_c, 3, 79, 0
5, 736740, Note_on_c, 3, 77, 0
5, 736800, Note_on_c, 3, 76, 100
5, 736908, Note_on_c, 3, 76, 0
5, 737040, Note_on_c, 3, 74, 100
5, 737124, Note_on_c, 3, 74, 0
5, 737280, Note_on_c, 3, 72, 100
5, 737760, Note_on_c, 3, 72, 0
5, 741120, Note_on_c, 3, 81, 90
5, 741240, Note_on_c, 3, 79, 87
5, 741270, Note_on_c, 3, 81, 0
5, 741360, Note_on_c, 3, 81, 90
5, 741390, Note_on_c, 3, 79, 0
5, 741480, Note_on_c, 3, 79, 93
5, 741510, Note_on_c, 3, 81, 0
5, 741600, Note_on_c, 3, 81, 95
5, 741630, Note_on_c, 3, 79, 0
5, 741660, Note_on_c, 3, 79, 98
5, 741701, Note_on_c, 3, 81, 0
5, 741720, Note_on_c, 3, 81, 101
5, 741761, Note_on_c, 3, 79, 0
5, 741780, Note_on_c, 3, 79, 101
5, 741821, Note_on_c, 3, 81, 0
5, 741840, Note_on_c, 3, 81, 101
5, 741881, Note_on_c, 3, 79, 0
5, 741900, Note_on_c, 3, 79, 101
5, 741941, Note_on_c, 3, 81, 0
5, 741960, Note_on_c, 3, 81, 103
5, 742001, Note_on_c, 3, 79, 0
5, 742020, Note_on_c, 3, 79, 103
5, 742061, Note_on_c, 3, 81, 0
5, 742080, Note_on_c, 3, 81, 103
5, 742121, Note_on_c, 3, 79, 0
5, 742140, Note_on_c, 3, 79, 103
5, 742181, Note_on_c, 3, 81, 0
5, 742200, Note_on_c, 3, 81, 103
5, 742241, Note_on_c, 3, 79, 0
5, 742260, Note_on_c, 3, 79, 102
5, 742301, Note_on_c, 3, 81, 0
5, 742320, Note_on_c, 3, 81, 97
5, 742361, Note_on_c, 3, 79, 0
5, 742380, Note_on_c, 3, 79, 94
5, 742421, Note_on_c, 3, 81, 0
5, 742440, Note_on_c, 3, 81, 91
5, 742481, Note_on_c, 3, 79, 0
5, 742500, Note_on_c, 3, 79, 89
5, 742541, Note_on_c, 3, 81, 0
5, 742560, Note_on_c, 3, 81, 86
5, 742601, Note_on_c, 3, 79, 0
5, 742620, Note_on_c, 3, 79, 84
5, 742661, Note_on_c, 3, 81, 0
5, 742680, Note_on_c, 3, 81, 84
5, 742721, Note_on_c, 3, 79, 0
5, 742740, Note_on_c, 3, 79, 84
5, 742781, Note_on_c, 3, 81, 0
5, 742800, Note_on_c, 3, 81, 81
5, 742841, Note_on_c, 3, 79, 0
5, 742860, Note_on_c, 3, 79, 81
5, 742901, Note_on_c, 3, 81, 0
5, 742920, Note_on_c, 3, 81, 79
5, 742961, Note_on_c, 3, 79, 0
5, 742980, Note_on_c, 3, 79, 79
5, 743021, Note_on_c, 3, 81, 0
5, 743040, Note_on_c, 3, 81, 79
5, 743081, Note_on_c, 3, 79, 0
5, 743100, Note_on_c, 3, 79, 80
5, 743141, Note_on_c, 3, 81, 0
5, 743160, Note_on_c, 3, 81, 80
5, 743201, Note_on_c, 3, 79, 0
5, 743220, Note_on_c, 3, 79, 83
5, 743261, Note_on_c, 3, 81, 0
5, 743280, Note_on_c, 3, 81, 83
5, 743321, Note_on_c, 3, 79, 0
5, 743340, Note_on_c, 3, 79, 83
5, 743381, Note_on_c, 3, 81, 0
5, 743400, Note_on_c, 3, 81, 85
5, 743441, Note_on_c, 3, 79, 0
5, 743460, Note_on_c, 3, 79, 85
5, 743501, Note_on_c, 3, 81, 0
5, 743520, Note_on_c, 3, 81, 88
5, 743561, Note_on_c, 3, 79, 0
5, 743580, Note_on_c, 3, 79, 88
5, 743621, Note_on_c, 3, 81, 0
5, 743640, Note_on_c, 3, 81, 90
5, 743681, Note_on_c, 3, 79, 0
5, 743700, Note_on_c, 3, 79, 93
5, 743741, Note_on_c, 3, 81, 0
5, 743760, Note_on_c, 3, 81, 96
5, 743801, Note_on_c, 3, 79, 0
5, 743820, Note_on_c, 3, 79, 96
5, 743861, Note_on_c, 3, 81, 0
5, 743880, Note_on_c, 3, 81, 96
5, 743921, Note_on_c, 3, 79, 0
5, 743940, Note_on_c, 3, 79, 96
5, 743981, Note_on_c, 3, 81, 0
5, 744000, Note_on_c, 3, 81, 96
5, 744041, Note_on_c, 3, 79, 0
5, 744060, Note_on_c, 3, 79, 96
5, 744101, Note_on_c, 3, 81, 0
5, 744120, Note_on_c, 3, 81, 96
5, 744161, Note_on_c, 3, 79, 0
5, 744180, Note_on_c, 3, 79, 94
5, 744221, Note_on_c, 3, 81, 0
5, 744240, Note_on_c, 3, 81, 94
5, 744281, Note_on_c, 3, 79, 0
5, 744300, Note_on_c, 3, 79, 91
5, 744341, Note_on_c, 3, 81, 0
5, 744360, Note_on_c, 3, 81, 89
5, 744401, Note_on_c, 3, 79, 0
5, 744420, Note_on_c, 3, 79, 86
5, 744461, Note_on_c, 3, 81, 0
5, 744480, Note_on_c, 3, 81, 86
5, 744521, Note_on_c, 3, 79, 0
5, 744540, Note_on_c, 3, 79, 86
5, 744581, Note_on_c, 3, 81, 0
5, 744600, Note_on_c, 3, 81, 86
5, 744641, Note_on_c, 3, 79, 0
5, 744660, Note_on_c, 3, 79, 86
5, 744701, Note_on_c, 3, 81, 0
5, 744720, Note_on_c, 3, 81, 86
5, 744761, Note_on_c, 3, 79, 0
5, 744780, Note_on_c, 3, 79, 86
5, 744821, Note_on_c, 3, 81, 0
5, 744840, Note_on_c, 3, 81, 86
5, 744881, Note_on_c, 3, 79, 0
5, 744900, Note_on_c, 3, 79, 88
5, 744941, Note_on_c, 3, 81, 0
5, 744960, Note_on_c, 3, 81, 88
5, 745001, Note_on_c, 3, 79, 0
5, 745020, Note_on_c, 3, 79, 90
5, 745061, Note_on_c, 3, 81, 0
5, 745080, Note_on_c, 3, 81, 93
5, 745121, Note_on_c, 3, 79, 0
5, 745140, Note_on_c, 3, 79, 93
5, 745181, Note_on_c, 3, 81, 0
5, 745200, Note_on_c, 3, 81, 96
5, 745241, Note_on_c, 3, 79, 0
5, 745260, Note_on_c, 3, 79, 96
5, 745301, Note_on_c, 3, 81, 0
5, 745320, Note_on_c, 3, 81, 96
5, 745361, Note_on_c, 3, 79, 0
5, 745380, Note_on_c, 3, 79, 98
5, 745421, Note_on_c, 3, 81, 0
5, 745440, Note_on_c, 3, 81, 98
5, 745481, Note_on_c, 3, 79, 0
5, 745500, Note_on_c, 3, 79, 98
5, 745541, Note_on_c, 3, 81, 0
5, 745560, Note_on_c, 3, 81, 101
5, 745601, Note_on_c, 3, 79, 0
5, 745620, Note_on_c, 3, 79, 103
5, 745661, Note_on_c, 3, 81, 0
5, 745680, Note_on_c, 3, 81, 103
5, 745721, Note_on_c, 3, 79, 0
5, 745740, Note_on_c, 3, 79, 103
5, 745781, Note_on_c, 3, 81, 0
5, 745800, Note_on_c, 3, 81, 103
5, 745841, Note_on_c, 3, 79, 0
5, 745860, Note_on_c, 3, 79, 103
5, 745901, Note_on_c, 3, 81, 0
5, 745920, Note_on_c, 3, 81, 103
5, 745961, Note_on_c, 3, 79, 0
5, 745980, Note_on_c, 3, 79, 103
5, 746021, Note_on_c, 3, 81, 0
5, 746040, Note_on_c, 3, 81, 102
5, 746081, Note_on_c, 3, 79, 0
5, 746100, Note_on_c, 3, 79, 102
5, 746141, Note_on_c, 3, 81, 0
5, 746160, Note_on_c, 3, 81, 99
5, 746201, Note_on_c, 3, 79, 0
5, 746220, Note_on_c, 3, 79, 99
5, 746261, Note_on_c, 3, 81, 0
5, 746280, Note_on_c, 3, 81, 99
5, 746321, Note_on_c, 3, 79, 0
5, 746340, Note_on_c, 3, 79, 99
5, 746381, Note_on_c, 3, 81, 0
5, 746400, Note_on_c, 3, 81, 99
5, 746441, Note_on_c, 3, 79, 0
5, 746460, Note_on_c, 3, 79, 99
5, 746501, Note_on_c, 3, 81, 0
5, 746520, Note_on_c, 3, 81, 99
5, 746561, Note_on_c, 3, 79, 0
5, 746580, Note_on_c, 3, 79, 103
5, 746621, Note_on_c, 3, 81, 0
5, 746640, Note_on_c, 3, 78, 103
5, 746681, Note_on_c, 3, 79, 0
5, 746760, Note_on_c, 3, 79, 106
5, 746784, Note_on_c, 3, 78, 0
5, 746844, Note_on_c, 3, 79, 0
5, 746880, Note_on_c, 3, 79, 108
5, 747504, Note_on_c, 3, 79, 0
5, 747600, Note_on_c, 3, 76, 110
5, 747840, Note_on_c, 3, 84, 117
5, 747936, Note_on_c, 3, 76, 0
5, 748320, Note_on_c, 3, 84, 0
5, 748320, End_track
6, 0, Start_track
6, 0, Title_t, "Harp"
6, 0, Control_c, 4, 0, 0
6, 0, Control_c, 4, 7, 90
6, 0, Control_c, 4, 10, 70
6, 0, Control_c, 4, 91, 88
6, 0, Control_c, 4, 93, 82
6, 1, Control_c, 4, 32, 1
6, 2, Program_c, 4, 46
6, 111360, Note_on_c, 4, 72, 90
6, 111360, Note_on_c, 4, 60, 90
6, 111600, Note_on_c, 4, 60, 0
6, 111600, Note_on_c, 4, 72, 0
6, 111600, Note_on_c, 4, 71, 90
6, 111600, Note_on_c, 4, 67, 90
6, 111840, Note_on_c, 4, 67, 0
6, 111840, Note_on_c, 4, 71, 0
6, 111840, Note_on_c, 4, 72, 90
6, 111840, Note_on_c, 4, 64, 90
6, 112080, Note_on_c, 4, 64, 0
6, 112080, Note_on_c, 4, 72, 0
6, 112080, Note_on_c, 4, 71, 90
6, 112080, Note_on_c, 4, 67, 90
6, 112320, Note_on_c, 4, 67, 0
6, 112320, Note_on_c, 4, 71, 0
6, 112320, Note_on_c, 4, 72, 90
6, 112320, Note_on_c, 4, 60, 90
6, 112560, Note_on_c, 4, 60, 0
6, 112560, Note_on_c, 4, 67, 90
6, 112800, Note_on_c, 4, 67, 0
6, 112800, Note_on_c, 4, 72, 0
6, 112800, Note_on_c, 4, 76, 90
6, 112800, Note_on_c, 4, 64, 90
6, 113040, Note_on_c, 4, 64, 0
6, 113040, Note_on_c, 4, 67, 90
6, 113280, Note_on_c, 4, 67, 0
6, 113280, Note_on_c, 4, 76, 0
6, 113280, Note_on_c, 4, 74, 90
6, 113280, Note_on_c, 4, 60, 90
6, 113520, Note_on_c, 4, 60, 0
6, 113520, Note_on_c, 4, 74, 0
6, 113520, Note_on_c, 4, 72, 90
6, 113520, Note_on_c, 4, 67, 90
6, 113760, Note_on_c, 4, 67, 0
6, 113760, Note_on_c, 4, 72, 0
6, 113760, Note_on_c, 4, 72, 90
6, 113760, Note_on_c, 4, 64, 90
6, 114000, Note_on_c, 4, 64, 0
6, 114000, Note_on_c, 4, 72, 0
6, 114000, Note_on_c, 4, 71, 90
6, 114000, Note_on_c, 4, 67, 90
6, 114240, Note_on_c, 4, 67, 0
6, 114240, Note_on_c, 4, 71, 0
6, 114240, Note_on_c, 4, 72, 90
6, 114240, Note_on_c, 4, 60, 90
6, 114480, Note_on_c, 4, 60, 0
6, 114480, Note_on_c, 4, 67, 90
6, 114720, Note_on_c, 4, 67, 0
6, 114720, Note_on_c, 4, 72, 0
6, 114720, Note_on_c, 4, 64, 90
6, 114960, Note_on_c, 4, 64, 0
6, 114960, Note_on_c, 4, 67, 90
6, 115200, Note_on_c, 4, 67, 0
6, 115200, Note_on_c, 4, 77, 90
6, 115200, Note_on_c, 4, 60, 90
6, 115440, Note_on_c, 4, 60, 0
6, 115440, Note_on_c, 4, 77, 0
6, 115440, Note_on_c, 4, 76, 90
6, 115440, Note_on_c, 4, 69, 90
6, 115680, Note_on_c, 4, 69, 0
6, 115680, Note_on_c, 4, 76, 0
6, 115680, Note_on_c, 4, 77, 90
6, 115680, Note_on_c, 4, 65, 90
6, 115920, Note_on_c, 4, 65, 0
6, 115920, Note_on_c, 4, 77, 0
6, 115920, Note_on_c, 4, 76, 90
6, 115920, Note_on_c, 4, 69, 90
6, 116160, Note_on_c, 4, 69, 0
6, 116160, Note_on_c, 4, 76, 0
6, 116160, Note_on_c, 4, 77, 90
6, 116160, Note_on_c, 4, 60, 90
6, 116400, Note_on_c, 4, 60, 0
6, 116400, Note_on_c, 4, 69, 90
6, 116640, Note_on_c, 4, 69, 0
6, 116640, Note_on_c, 4, 77, 0
6, 116640, Note_on_c, 4, 81, 90
6, 116640, Note_on_c, 4, 65, 90
6, 116880, Note_on_c, 4, 65, 0
6, 116880, Note_on_c, 4, 69, 90
6, 117120, Note_on_c, 4, 69, 0
6, 117120, Note_on_c, 4, 81, 0
6, 117120, Note_on_c, 4, 78, 90
6, 117120, Note_on_c, 4, 60, 90
6, 117360, Note_on_c, 4, 60, 0
6, 117360, Note_on_c, 4, 78, 0
6, 117360, Note_on_c, 4, 79, 90
6, 117360, Note_on_c, 4, 67, 90
6, 117600, Note_on_c, 4, 67, 0
6, 117600, Note_on_c, 4, 79, 0
6, 117600, Note_on_c, 4, 79, 90
6, 117600, Note_on_c, 4, 64, 90
6, 117840, Note_on_c, 4, 64, 0
6, 117840, Note_on_c, 4, 79, 0
6, 117840, Note_on_c, 4, 78, 90
6, 117840, Note_on_c, 4, 67, 90
6, 118080, Note_on_c, 4, 67, 0
6, 118080, Note_on_c, 4, 78, 0
6, 118080, Note_on_c, 4, 79, 90
6, 118080, Note_on_c, 4, 60, 90
6, 118320, Note_on_c, 4, 60, 0
6, 118320, Note_on_c, 4, 67, 90
6, 118560, Note_on_c, 4, 67, 0
6, 118560, Note_on_c, 4, 79, 0
6, 118560, Note_on_c, 4, 64, 90
6, 118800, Note_on_c, 4, 64, 0
6, 118800, Note_on_c, 4, 67, 90
6, 119040, Note_on_c, 4, 67, 0
6, 119040, Note_on_c, 4, 84, 90
6, 119040, Note_on_c, 4, 60, 90
6, 119280, Note_on_c, 4, 60, 0
6, 119280, Note_on_c, 4, 84, 0
6, 119280, Note_on_c, 4, 83, 90
6, 119280, Note_on_c, 4, 67, 90
6, 119520, Note_on_c, 4, 67, 0
6, 119520, Note_on_c, 4, 83, 0
6, 119520, Note_on_c, 4, 84, 90
6, 119520, Note_on_c, 4, 64, 90
6, 119760, Note_on_c, 4, 64, 0
6, 119760, Note_on_c, 4, 84, 0
6, 119760, Note_on_c, 4, 83, 90
6, 119760, Note_on_c, 4, 67, 90
6, 120000, Note_on_c, 4, 67, 0
6, 120000, Note_on_c, 4, 83, 0
6, 120000, Note_on_c, 4, 84, 90
6, 120000, Note_on_c, 4, 60, 90
6, 120240, Note_on_c, 4, 60, 0
6, 120240, Note_on_c, 4, 67, 90
6, 120480, Note_on_c, 4, 67, 0
6, 120480, Note_on_c, 4, 84, 0
6, 120480, Note_on_c, 4, 76, 90
6, 120480, Note_on_c, 4, 64, 90
6, 120720, Note_on_c, 4, 64, 0
6, 120720, Note_on_c, 4, 67, 90
6, 120960, Note_on_c, 4, 67, 0
6, 120960, Note_on_c, 4, 76, 0
6, 120960, Note_on_c, 4, 79, 90
6, 120960, Note_on_c, 4, 60, 90
6, 121200, Note_on_c, 4, 60, 0
6, 121200, Note_on_c, 4, 79, 0
6, 121200, Note_on_c, 4, 77, 90
6, 121200, Note_on_c, 4, 69, 90
6, 121440, Note_on_c, 4, 69, 0
6, 121440, Note_on_c, 4, 77, 0
6, 121440, Note_on_c, 4, 77, 90
6, 121440, Note_on_c, 4, 62, 90
6, 121680, Note_on_c, 4, 62, 0
6, 121680, Note_on_c, 4, 77, 0
6, 121680, Note_on_c, 4, 74, 90
6, 121680, Note_on_c, 4, 69, 90
6, 121920, Note_on_c, 4, 69, 0
6, 121920, Note_on_c, 4, 74, 0
6, 121920, Note_on_c, 4, 86, 90
6, 121920, Note_on_c, 4, 59, 90
6, 122160, Note_on_c, 4, 59, 0
6, 122160, Note_on_c, 4, 67, 90
6, 122400, Note_on_c, 4, 67, 0
6, 122400, Note_on_c, 4, 86, 0
6, 122400, Note_on_c, 4, 62, 90
6, 122640, Note_on_c, 4, 62, 0
6, 122640, Note_on_c, 4, 77, 90
6, 122640, Note_on_c, 4, 67, 90
6, 122880, Note_on_c, 4, 67, 0
6, 122880, Note_on_c, 4, 77, 0
6, 122880, Note_on_c, 4, 76, 90
6, 122880, Note_on_c, 4, 60, 90
6, 123120, Note_on_c, 4, 76, 0
6, 123120, Note_on_c, 4, 79, 90
6, 123360, Note_on_c, 4, 79, 0
6, 123360, Note_on_c, 4, 60, 0
6, 123360, Note_on_c, 4, 72, 90
6, 123360, Note_on_c, 4, 57, 90
6, 123600, Note_on_c, 4, 72, 0
6, 123600, Note_on_c, 4, 76, 90
6, 123840, Note_on_c, 4, 76, 0
6, 123840, Note_on_c, 4, 57, 0
6, 123840, Note_on_c, 4, 74, 90
6, 123840, Note_on_c, 4, 53, 90
6, 124080, Note_on_c, 4, 74, 0
6, 124080, Note_on_c, 4, 77, 90
6, 124320, Note_on_c, 4, 77, 0
6, 124320, Note_on_c, 4, 53, 0
6, 124320, Note_on_c, 4, 71, 90
6, 124320, Note_on_c, 4, 55, 90
6, 124560, Note_on_c, 4, 71, 0
6, 124560, Note_on_c, 4, 74, 90
6, 124800, Note_on_c, 4, 74, 0
6, 124800, Note_on_c, 4, 55, 0
6, 124800, Note_on_c, 4, 72, 90
6, 124800, Note_on_c, 4, 48, 90
6, 125040, Note_on_c, 4, 72, 0
6, 125040, Note_on_c, 4, 76, 90
6, 125280, Note_on_c, 4, 76, 0
6, 125280, Note_on_c, 4, 48, 0
6, 125280, Note_on_c, 4, 67, 90
6, 125520, Note_on_c, 4, 67, 0
6, 125520, Note_on_c, 4, 72, 90
6, 125760, Note_on_c, 4, 72, 0
6, 125760, Note_on_c, 4, 64, 90
6, 126000, Note_on_c, 4, 64, 0
6, 126000, Note_on_c, 4, 67, 90
6, 126240, Note_on_c, 4, 67, 0
6, 126240, Note_on_c, 4, 65, 90
6, 126480, Note_on_c, 4, 65, 0
6, 126480, Note_on_c, 4, 62, 90
6, 126720, Note_on_c, 4, 62, 0
6, 126720, Note_on_c, 4, 60, 90
6, 126720, Note_on_c, 4, 48, 90
6, 126960, Note_on_c, 4, 60, 0
6, 126960, Note_on_c, 4, 67, 90
6, 127200, Note_on_c, 4, 67, 0
6, 127200, Note_on_c, 4, 48, 0
6, 127200, Note_on_c, 4, 64, 90
6, 127200, Note_on_c, 4, 52, 90
6, 127440, Note_on_c, 4, 64, 0
6, 127440, Note_on_c, 4, 67, 90
6, 127680, Note_on_c, 4, 67, 0
6, 127680, Note_on_c, 4, 52, 0
6, 127680, Note_on_c, 4, 60, 90
6, 127680, Note_on_c, 4, 55, 90
6, 127920, Note_on_c, 4, 60, 0
6, 127920, Note_on_c, 4, 67, 90
6, 128160, Note_on_c, 4, 67, 0
6, 128160, Note_on_c, 4, 55, 0
6, 128160, Note_on_c, 4, 64, 90
6, 128160, Note_on_c, 4, 52, 90
6, 128400, Note_on_c, 4, 64, 0
6, 128400, Note_on_c, 4, 67, 90
6, 128640, Note_on_c, 4, 67, 0
6, 128640, Note_on_c, 4, 52, 0
6, 128640, Note_on_c, 4, 60, 90
6, 128640, Note_on_c, 4, 48, 90
6, 128880, Note_on_c, 4, 60, 0
6, 128880, Note_on_c, 4, 67, 90
6, 129120, Note_on_c, 4, 67, 0
6, 129120, Note_on_c, 4, 48, 0
6, 129120, Note_on_c, 4, 64, 90
6, 129120, Note_on_c, 4, 52, 90
6, 129360, Note_on_c, 4, 64, 0
6, 129360, Note_on_c, 4, 67, 90
6, 129600, Note_on_c, 4, 67, 0
6, 129600, Note_on_c, 4, 52, 0
6, 129600, Note_on_c, 4, 60, 90
6, 129600, Note_on_c, 4, 55, 90
6, 129840, Note_on_c, 4, 60, 0
6, 129840, Note_on_c, 4, 67, 90
6, 130080, Note_on_c, 4, 67, 0
6, 130080, Note_on_c, 4, 55, 0
6, 130080, Note_on_c, 4, 64, 90
6, 130080, Note_on_c, 4, 52, 90
6, 130320, Note_on_c, 4, 64, 0
6, 130320, Note_on_c, 4, 67, 90
6, 130560, Note_on_c, 4, 67, 0
6, 130560, Note_on_c, 4, 52, 0
6, 130560, Note_on_c, 4, 60, 90
6, 130560, Note_on_c, 4, 48, 90
6, 130800, Note_on_c, 4, 60, 0
6, 130800, Note_on_c, 4, 69, 90
6, 131040, Note_on_c, 4, 69, 0
6, 131040, Note_on_c, 4, 48, 0
6, 131040, Note_on_c, 4, 65, 90
6, 131040, Note_on_c, 4, 53, 90
6, 131280, Note_on_c, 4, 65, 0
6, 131280, Note_on_c, 4, 69, 90
6, 131520, Note_on_c, 4, 69, 0
6, 131520, Note_on_c, 4, 53, 0
6, 131520, Note_on_c, 4, 60, 90
6, 131520, Note_on_c, 4, 57, 90
6, 131760, Note_on_c, 4, 60, 0
6, 131760, Note_on_c, 4, 69, 90
6, 132000, Note_on_c, 4, 69, 0
6, 132000, Note_on_c, 4, 57, 0
6, 132000, Note_on_c, 4, 65, 90
6, 132000, Note_on_c, 4, 53, 90
6, 132240, Note_on_c, 4, 65, 0
6, 132240, Note_on_c, 4, 69, 90
6, 132480, Note_on_c, 4, 69, 0
6, 132480, Note_on_c, 4, 53, 0
6, 132480, Note_on_c, 4, 60, 90
6, 132480, Note_on_c, 4, 48, 90
6, 132720, Note_on_c, 4, 60, 0
6, 132720, Note_on_c, 4, 67, 90
6, 132960, Note_on_c, 4, 67, 0
6, 132960, Note_on_c, 4, 48, 0
6, 132960, Note_on_c, 4, 64, 90
6, 132960, Note_on_c, 4, 52, 90
6, 133200, Note_on_c, 4, 64, 0
6, 133200, Note_on_c, 4, 67, 90
6, 133440, Note_on_c, 4, 67, 0
6, 133440, Note_on_c, 4, 52, 0
6, 133440, Note_on_c, 4, 60, 90
6, 133440, Note_on_c, 4, 55, 90
6, 133680, Note_on_c, 4, 60, 0
6, 133680, Note_on_c, 4, 67, 90
6, 133920, Note_on_c, 4, 67, 0
6, 133920, Note_on_c, 4, 55, 0
6, 133920, Note_on_c, 4, 64, 90
6, 133920, Note_on_c, 4, 52, 90
6, 134160, Note_on_c, 4, 64, 0
6, 134160, Note_on_c, 4, 67, 90
6, 134400, Note_on_c, 4, 67, 0
6, 134400, Note_on_c, 4, 52, 0
6, 134400, Note_on_c, 4, 60, 90
6, 134400, Note_on_c, 4, 48, 90
6, 134640, Note_on_c, 4, 60, 0
6, 134640, Note_on_c, 4, 67, 90
6, 134880, Note_on_c, 4, 67, 0
6, 134880, Note_on_c, 4, 48, 0
6, 134880, Note_on_c, 4, 64, 90
6, 134880, Note_on_c, 4, 52, 90
6, 135120, Note_on_c, 4, 64, 0
6, 135120, Note_on_c, 4, 67, 90
6, 135360, Note_on_c, 4, 67, 0
6, 135360, Note_on_c, 4, 52, 0
6, 135360, Note_on_c, 4, 60, 90
6, 135360, Note_on_c, 4, 55, 90
6, 135600, Note_on_c, 4, 60, 0
6, 135600, Note_on_c, 4, 67, 90
6, 135840, Note_on_c, 4, 67, 0
6, 135840, Note_on_c, 4, 55, 0
6, 135840, Note_on_c, 4, 64, 90
6, 135840, Note_on_c, 4, 52, 90
6, 136080, Note_on_c, 4, 64, 0
6, 136080, Note_on_c, 4, 67, 90
6, 136320, Note_on_c, 4, 67, 0
6, 136320, Note_on_c, 4, 52, 0
6, 136320, Note_on_c, 4, 62, 90
6, 136320, Note_on_c, 4, 47, 90
6, 136560, Note_on_c, 4, 62, 0
6, 136560, Note_on_c, 4, 67, 90
6, 136800, Note_on_c, 4, 67, 0
6, 136800, Note_on_c, 4, 47, 0
6, 136800, Note_on_c, 4, 65, 90
6, 136800, Note_on_c, 4, 50, 90
6, 137040, Note_on_c, 4, 65, 0
6, 137040, Note_on_c, 4, 67, 90
6, 137280, Note_on_c, 4, 67, 0
6, 137280, Note_on_c, 4, 50, 0
6, 137280, Note_on_c, 4, 62, 90
6, 137280, Note_on_c, 4, 55, 90
6, 137520, Note_on_c, 4, 62, 0
6, 137520, Note_on_c, 4, 67, 90
6, 137760, Note_on_c, 4, 67, 0
6, 137760, Note_on_c, 4, 55, 0
6, 137760, Note_on_c, 4, 65, 90
6, 137760, Note_on_c, 4, 47, 90
6, 138000, Note_on_c, 4, 65, 0
6, 138000, Note_on_c, 4, 67, 90
6, 138240, Note_on_c, 4, 67, 0
6, 138240, Note_on_c, 4, 47, 0
6, 138240, Note_on_c, 4, 60, 90
6, 138240, Note_on_c, 4, 48, 90
6, 138720, Note_on_c, 4, 48, 0
6, 138720, Note_on_c, 4, 60, 0
6, 138720, Note_on_c, 4, 52, 90
6, 139200, Note_on_c, 4, 52, 0
6, 139200, Note_on_c, 4, 53, 90
6, 139680, Note_on_c, 4, 53, 0
6, 139680, Note_on_c, 4, 55, 90
6, 140160, Note_on_c, 4, 55, 0
6, 140160, Note_on_c, 4, 76, 90
6, 140160, Note_on_c, 4, 60, 90
6, 140256, Note_on_c, 4, 76, 0
6, 140400, Note_on_c, 4, 77, 90
6, 140496, Note_on_c, 4, 77, 0
6, 140640, Note_on_c, 4, 60, 0
6, 140640, Note_on_c, 4, 79, 90
6, 140736, Note_on_c, 4, 79, 0
6, 140880, Note_on_c, 4, 81, 90
6, 140976, Note_on_c, 4, 81, 0
6, 141120, Note_on_c, 4, 83, 90
6, 141216, Note_on_c, 4, 83, 0
6, 141360, Note_on_c, 4, 84, 90
6, 141456, Note_on_c, 4, 84, 0
6, 141600, Note_on_c, 4, 86, 90
6, 141696, Note_on_c, 4, 86, 0
6, 141840, Note_on_c, 4, 88, 90
6, 141936, Note_on_c, 4, 88, 0
6, 142080, Note_on_c, 4, 89, 90
6, 142080, Note_on_c, 4, 59, 90
6, 142176, Note_on_c, 4, 89, 0
6, 142320, Note_on_c, 4, 88, 90
6, 142416, Note_on_c, 4, 88, 0
6, 142560, Note_on_c, 4, 59, 0
6, 142560, Note_on_c, 4, 86, 90
6, 142656, Note_on_c, 4, 86, 0
6, 142800, Note_on_c, 4, 84, 90
6, 142896, Note_on_c, 4, 84, 0
6, 143040, Note_on_c, 4, 83, 90
6, 143136, Note_on_c, 4, 83, 0
6, 143280, Note_on_c, 4, 81, 90
6, 143376, Note_on_c, 4, 81, 0
6, 143520, Note_on_c, 4, 79, 90
6, 143616, Note_on_c, 4, 79, 0
6, 143760, Note_on_c, 4, 77, 90
6, 143856, Note_on_c, 4, 77, 0
6, 144000, Note_on_c, 4, 76, 90
6, 144000, Note_on_c, 4, 60, 90
6, 144240, Note_on_c, 4, 76, 0
6, 144240, Note_on_c, 4, 79, 90
6, 144480, Note_on_c, 4, 79, 0
6, 144480, Note_on_c, 4, 60, 0
6, 144480, Note_on_c, 4, 84, 90
6, 144480, Note_on_c, 4, 64, 90
6, 144720, Note_on_c, 4, 84, 0
6, 144720, Note_on_c, 4, 79, 90
6, 144960, Note_on_c, 4, 79, 0
6, 144960, Note_on_c, 4, 64, 0
6, 144960, Note_on_c, 4, 79, 90
6, 144960, Note_on_c, 4, 67, 90
6, 145200, Note_on_c, 4, 79, 0
6, 145200, Note_on_c, 4, 77, 90
6, 145440, Note_on_c, 4, 77, 0
6, 145440, Note_on_c, 4, 67, 0
6, 145440, Note_on_c, 4, 76, 90
6, 145440, Note_on_c, 4, 55, 90
6, 145680, Note_on_c, 4, 76, 0
6, 145680, Note_on_c, 4, 74, 90
6, 145920, Note_on_c, 4, 74, 0
6, 145920, Note_on_c, 4, 55, 0
6, 145920, Note_on_c, 4, 72, 90
6, 145920, Note_on_c, 4, 60, 90
6, 146400, Note_on_c, 4, 60, 0
6, 146400, Note_on_c, 4, 72, 0
6, 172800, Note_on_c, 4, 71, 90
6, 172800, Note_on_c, 4, 55, 90
6, 173040, Note_on_c, 4, 71, 0
6, 173040, Note_on_c, 4, 67, 90
6, 173280, Note_on_c, 4, 67, 0
6, 173280, Note_on_c, 4, 55, 0
6, 173280, Note_on_c, 4, 62, 90
6, 173520, Note_on_c, 4, 62, 0
6, 173520, Note_on_c, 4, 60, 90
6, 173760, Note_on_c, 4, 60, 0
6, 173760, Note_on_c, 4, 59, 90
6, 174000, Note_on_c, 4, 59, 0
6, 174000, Note_on_c, 4, 62, 90
6, 174240, Note_on_c, 4, 62, 0
6, 174240, Note_on_c, 4, 67, 90
6, 174480, Note_on_c, 4, 67, 0
6, 174480, Note_on_c, 4, 69, 90
6, 174720, Note_on_c, 4, 69, 0
6, 174720, Note_on_c, 4, 71, 90
6, 174720, Note_on_c, 4, 43, 90
6, 174960, Note_on_c, 4, 71, 0
6, 174960, Note_on_c, 4, 67, 90
6, 175200, Note_on_c, 4, 67, 0
6, 175200, Note_on_c, 4, 43, 0
6, 175200, Note_on_c, 4, 62, 90
6, 175440, Note_on_c, 4, 62, 0
6, 175440, Note_on_c, 4, 60, 90
6, 175680, Note_on_c, 4, 60, 0
6, 175680, Note_on_c, 4, 59, 90
6, 175920, Note_on_c, 4, 59, 0
6, 175920, Note_on_c, 4, 62, 90
6, 176160, Note_on_c, 4, 62, 0
6, 176160, Note_on_c, 4, 67, 90
6, 176400, Note_on_c, 4, 67, 0
6, 176400, Note_on_c, 4, 71, 90
6, 176640, Note_on_c, 4, 71, 0
6, 176640, Note_on_c, 4, 71, 90
6, 176640, Note_on_c, 4, 40, 90
6, 176640, Note_on_c, 4, 52, 90
6, 176880, Note_on_c, 4, 71, 0
6, 176880, Note_on_c, 4, 62, 90
6, 177120, Note_on_c, 4, 62, 0
6, 177120, Note_on_c, 4, 52, 0
6, 177120, Note_on_c, 4, 40, 0
6, 177120, Note_on_c, 4, 68, 90
6, 177360, Note_on_c, 4, 68, 0
6, 177360, Note_on_c, 4, 71, 90
6, 177600, Note_on_c, 4, 71, 0
6, 177600, Note_on_c, 4, 74, 90
6, 177840, Note_on_c, 4, 74, 0
6, 177840, Note_on_c, 4, 68, 90
6, 178080, Note_on_c, 4, 68, 0
6, 178080, Note_on_c, 4, 71, 90
6, 178320, Note_on_c, 4, 71, 0
6, 178320, Note_on_c, 4, 74, 90
6, 178560, Note_on_c, 4, 74, 0
6, 178560, Note_on_c, 4, 80, 90
6, 178800, Note_on_c, 4, 80, 0
6, 178800, Note_on_c, 4, 71, 90
6, 179040, Note_on_c, 4, 71, 0
6, 179040, Note_on_c, 4, 74, 90
6, 179280, Note_on_c, 4, 74, 0
6, 179280, Note_on_c, 4, 80, 90
6, 179520, Note_on_c, 4, 80, 0
6, 179520, Note_on_c, 4, 83, 90
6, 179760, Note_on_c, 4, 59, 90
6, 180000, Note_on_c, 4, 59, 0
6, 180000, Note_on_c, 4, 83, 0
6, 180000, Note_on_c, 4, 56, 90
6, 180240, Note_on_c, 4, 56, 0
6, 180240, Note_on_c, 4, 52, 90
6, 180480, Note_on_c, 4, 52, 0
6, 180480, Note_on_c, 4, 69, 90
6, 180480, Note_on_c, 4, 57, 90
6, 180720, Note_on_c, 4, 69, 0
6, 180720, Note_on_c, 4, 64, 90
6, 180960, Note_on_c, 4, 64, 0
6, 180960, Note_on_c, 4, 57, 0
6, 180960, Note_on_c, 4, 60, 90
6, 181200, Note_on_c, 4, 60, 0
6, 181200, Note_on_c, 4, 59, 90
6, 181440, Note_on_c, 4, 59, 0
6, 181440, Note_on_c, 4, 57, 90
6, 181680, Note_on_c, 4, 57, 0
6, 181680, Note_on_c, 4, 60, 90
6, 181920, Note_on_c, 4, 60, 0
6, 181920, Note_on_c, 4, 64, 90
6, 182160, Note_on_c, 4, 64, 0
6, 182160, Note_on_c, 4, 68, 90
6, 182400, Note_on_c, 4, 68, 0
6, 182400, Note_on_c, 4, 69, 90
6, 182400, Note_on_c, 4, 45, 90
6, 182640, Note_on_c, 4, 69, 0
6, 182640, Note_on_c, 4, 64, 90
6, 182880, Note_on_c, 4, 64, 0
6, 182880, Note_on_c, 4, 45, 0
6, 182880, Note_on_c, 4, 60, 90
6, 183120, Note_on_c, 4, 60, 0
6, 183120, Note_on_c, 4, 59, 90
6, 183360, Note_on_c, 4, 59, 0
6, 183360, Note_on_c, 4, 57, 90
6, 183600, Note_on_c, 4, 57, 0
6, 183600, Note_on_c, 4, 60, 90
6, 183840, Note_on_c, 4, 60, 0
6, 183840, Note_on_c, 4, 64, 90
6, 184080, Note_on_c, 4, 64, 0
6, 184080, Note_on_c, 4, 67, 90
6, 184320, Note_on_c, 4, 67, 0
6, 184320, Note_on_c, 4, 66, 90
6, 184320, Note_on_c, 4, 38, 90
6, 184320, Note_on_c, 4, 50, 90
6, 184560, Note_on_c, 4, 66, 0
6, 184560, Note_on_c, 4, 62, 90
6, 184800, Note_on_c, 4, 62, 0
6, 184800, Note_on_c, 4, 50, 0
6, 184800, Note_on_c, 4, 38, 0
6, 184800, Note_on_c, 4, 66, 90
6, 185040, Note_on_c, 4, 66, 0
6, 185040, Note_on_c, 4, 69, 90
6, 185280, Note_on_c, 4, 69, 0
6, 185280, Note_on_c, 4, 72, 90
6, 185520, Note_on_c, 4, 72, 0
6, 185520, Note_on_c, 4, 66, 90
6, 185760, Note_on_c, 4, 66, 0
6, 185760, Note_on_c, 4, 69, 90
6, 186000, Note_on_c, 4, 69, 0
6, 186000, Note_on_c, 4, 72, 90
6, 186240, Note_on_c, 4, 72, 0
6, 186240, Note_on_c, 4, 78, 90
6, 186480, Note_on_c, 4, 78, 0
6, 186480, Note_on_c, 4, 69, 90
6, 186720, Note_on_c, 4, 69, 0
6, 186720, Note_on_c, 4, 72, 90
6, 186960, Note_on_c, 4, 72, 0
6, 186960, Note_on_c, 4, 78, 90
6, 187200, Note_on_c, 4, 78, 0
6, 187200, Note_on_c, 4, 81, 90
6, 187440, Note_on_c, 4, 57, 90
6, 187680, Note_on_c, 4, 57, 0
6, 187680, Note_on_c, 4, 81, 0
6, 187680, Note_on_c, 4, 54, 90
6, 187920, Note_on_c, 4, 54, 0
6, 187920, Note_on_c, 4, 50, 90
6, 188160, Note_on_c, 4, 50, 0
6, 188160, Note_on_c, 4, 55, 90
6, 188400, Note_on_c, 4, 71, 90
6, 188640, Note_on_c, 4, 71, 0
6, 188640, Note_on_c, 4, 55, 0
6, 188640, Note_on_c, 4, 74, 90
6, 188880, Note_on_c, 4, 74, 0
6, 188880, Note_on_c, 4, 79, 90
6, 189120, Note_on_c, 4, 79, 0
6, 189120, Note_on_c, 4, 78, 90
6, 189120, Note_on_c, 4, 48, 90
6, 189120, Note_on_c, 4, 60, 90
6, 189360, Note_on_c, 4, 78, 0
6, 189360, Note_on_c, 4, 74, 90
6, 189600, Note_on_c, 4, 74, 0
6, 189600, Note_on_c, 4, 60, 0
6, 189600, Note_on_c, 4, 48, 0
6, 189600, Note_on_c, 4, 81, 90
6, 189840, Note_on_c, 4, 81, 0
6, 189840, Note_on_c, 4, 78, 90
6, 190080, Note_on_c, 4, 78, 0
6, 190080, Note_on_c, 4, 79, 90
6, 190080, Note_on_c, 4, 47, 90
6, 190080, Note_on_c, 4, 59, 90
6, 190320, Note_on_c, 4, 79, 0
6, 190320, Note_on_c, 4, 74, 90
6, 190560, Note_on_c, 4, 74, 0
6, 190560, Note_on_c, 4, 59, 0
6, 190560, Note_on_c, 4, 47, 0
6, 190560, Note_on_c, 4, 83, 90
6, 190800, Note_on_c, 4, 83, 0
6, 190800, Note_on_c, 4, 79, 90
6, 191040, Note_on_c, 4, 79, 0
6, 191040, Note_on_c, 4, 81, 90
6, 191040, Note_on_c, 4, 42, 90
6, 191040, Note_on_c, 4, 54, 90
6, 191280, Note_on_c, 4, 81, 0
6, 191280, Note_on_c, 4, 74, 90
6, 191520, Note_on_c, 4, 74, 0
6, 191520, Note_on_c, 4, 54, 0
6, 191520, Note_on_c, 4, 42, 0
6, 191520, Note_on_c, 4, 84, 90
6, 191760, Note_on_c, 4, 84, 0
6, 191760, Note_on_c, 4, 81, 90
6, 192000, Note_on_c, 4, 81, 0
6, 192000, Note_on_c, 4, 83, 90
6, 192000, Note_on_c, 4, 43, 90
6, 192000, Note_on_c, 4, 55, 90
6, 192240, Note_on_c, 4, 83, 0
6, 192240, Note_on_c, 4, 74, 90
6, 192480, Note_on_c, 4, 74, 0
6, 192480, Note_on_c, 4, 55, 0
6, 192480, Note_on_c, 4, 43, 0
6, 192480, Note_on_c, 4, 86, 90
6, 192720, Note_on_c, 4, 86, 0
6, 192720, Note_on_c, 4, 83, 90
6, 192960, Note_on_c, 4, 83, 0
6, 192960, Note_on_c, 4, 78, 90
6, 192960, Note_on_c, 4, 48, 90
6, 192960, Note_on_c, 4, 60, 90
6, 193200, Note_on_c, 4, 78, 0
6, 193200, Note_on_c, 4, 74, 90
6, 193440, Note_on_c, 4, 74, 0
6, 193440, Note_on_c, 4, 60, 0
6, 193440, Note_on_c, 4, 48, 0
6, 193440, Note_on_c, 4, 81, 90
6, 193680, Note_on_c, 4, 81, 0
6, 193680, Note_on_c, 4, 78, 90
6, 193920, Note_on_c, 4, 78, 0
6, 193920, Note_on_c, 4, 79, 90
6, 193920, Note_on_c, 4, 47, 90
6, 193920, Note_on_c, 4, 59, 90
6, 194160, Note_on_c, 4, 79, 0
6, 194160, Note_on_c, 4, 74, 90
6, 194400, Note_on_c, 4, 74, 0
6, 194400, Note_on_c, 4, 59, 0
6, 194400, Note_on_c, 4, 47, 0
6, 194400, Note_on_c, 4, 83, 90
6, 194640, Note_on_c, 4, 83, 0
6, 194640, Note_on_c, 4, 79, 90
6, 194880, Note_on_c, 4, 79, 0
6, 194880, Note_on_c, 4, 81, 90
6, 194880, Note_on_c, 4, 42, 90
6, 194880, Note_on_c, 4, 54, 90
6, 195120, Note_on_c, 4, 81, 0
6, 195120, Note_on_c, 4, 74, 90
6, 195360, Note_on_c, 4, 74, 0
6, 195360, Note_on_c, 4, 54, 0
6, 195360, Note_on_c, 4, 42, 0
6, 195360, Note_on_c, 4, 84, 90
6, 195600, Note_on_c, 4, 84, 0
6, 195600, Note_on_c, 4, 81, 90
6, 195840, Note_on_c, 4, 81, 0
6, 195840, Note_on_c, 4, 83, 90
6, 195840, Note_on_c, 4, 43, 90
6, 195840, Note_on_c, 4, 55, 90
6, 196080, Note_on_c, 4, 83, 0
6, 196080, Note_on_c, 4, 74, 90
6, 196320, Note_on_c, 4, 74, 0
6, 196320, Note_on_c, 4, 55, 0
6, 196320, Note_on_c, 4, 43, 0
6, 196320, Note_on_c, 4, 86, 90
6, 196560, Note_on_c, 4, 86, 0
6, 196560, Note_on_c, 4, 83, 90
6, 196800, Note_on_c, 4, 83, 0
6, 196800, Note_on_c, 4, 76, 90
6, 196800, Note_on_c, 4, 60, 90
6, 197040, Note_on_c, 4, 60, 0
6, 197040, Note_on_c, 4, 76, 0
6, 197040, Note_on_c, 4, 80, 90
6, 197040, Note_on_c, 4, 64, 90
6, 197280, Note_on_c, 4, 64, 0
6, 197280, Note_on_c, 4, 80, 0
6, 197280, Note_on_c, 4, 81, 90
6, 197280, Note_on_c, 4, 66, 90
6, 197520, Note_on_c, 4, 66, 0
6, 197520, Note_on_c, 4, 81, 0
6, 197520, Note_on_c, 4, 84, 90
6, 197520, Note_on_c, 4, 69, 90
6, 197760, Note_on_c, 4, 69, 0
6, 197760, Note_on_c, 4, 84, 0
6, 197760, Note_on_c, 4, 74, 90
6, 197760, Note_on_c, 4, 59, 90
6, 198000, Note_on_c, 4, 59, 0
6, 198000, Note_on_c, 4, 74, 0
6, 198000, Note_on_c, 4, 78, 90
6, 198000, Note_on_c, 4, 62, 90
6, 198240, Note_on_c, 4, 62, 0
6, 198240, Note_on_c, 4, 78, 0
6, 198240, Note_on_c, 4, 79, 90
6, 198240, Note_on_c, 4, 64, 90
6, 198480, Note_on_c, 4, 64, 0
6, 198480, Note_on_c, 4, 79, 0
6, 198480, Note_on_c, 4, 83, 90
6, 198480, Note_on_c, 4, 67, 90
6, 198720, Note_on_c, 4, 67, 0
6, 198720, Note_on_c, 4, 83, 0
6, 198720, Note_on_c, 4, 72, 90
6, 198720, Note_on_c, 4, 57, 90
6, 198960, Note_on_c, 4, 57, 0
6, 198960, Note_on_c, 4, 72, 0
6, 198960, Note_on_c, 4, 76, 90
6, 198960, Note_on_c, 4, 60, 90
6, 199200, Note_on_c, 4, 60, 0
6, 199200, Note_on_c, 4, 76, 0
6, 199200, Note_on_c, 4, 78, 90
6, 199200, Note_on_c, 4, 62, 90
6, 199440, Note_on_c, 4, 62, 0
6, 199440, Note_on_c, 4, 78, 0
6, 199440, Note_on_c, 4, 81, 90
6, 199440, Note_on_c, 4, 66, 90
6, 199680, Note_on_c, 4, 66, 0
6, 199680, Note_on_c, 4, 81, 0
6, 199680, Note_on_c, 4, 71, 90
6, 199680, Note_on_c, 4, 55, 90
6, 199920, Note_on_c, 4, 55, 0
6, 199920, Note_on_c, 4, 71, 0
6, 199920, Note_on_c, 4, 75, 90
6, 199920, Note_on_c, 4, 59, 90
6, 200160, Note_on_c, 4, 59, 0
6, 200160, Note_on_c, 4, 75, 0
6, 200160, Note_on_c, 4, 76, 90
6, 200160, Note_on_c, 4, 61, 90
6, 200400, Note_on_c, 4, 61, 0
6, 200400, Note_on_c, 4, 76, 0
6, 200400, Note_on_c, 4, 79, 90
6, 200400, Note_on_c, 4, 64, 90
6, 200640, Note_on_c, 4, 64, 0
6, 200640, Note_on_c, 4, 79, 0
6, 200640, Note_on_c, 4, 69, 90
6, 200640, Note_on_c, 4, 54, 90
6, 200880, Note_on_c, 4, 54, 0
6, 200880, Note_on_c, 4, 69, 0
6, 200880, Note_on_c, 4, 73, 90
6, 200880, Note_on_c, 4, 57, 90
6, 201120, Note_on_c, 4, 57, 0
6, 201120, Note_on_c, 4, 73, 0
6, 201120, Note_on_c, 4, 74, 90
6, 201120, Note_on_c, 4, 59, 90
6, 201360, Note_on_c, 4, 59, 0
6, 201360, Note_on_c, 4, 74, 0
6, 201360, Note_on_c, 4, 78, 90
6, 201360, Note_on_c, 4, 62, 90
6, 201600, Note_on_c, 4, 62, 0
6, 201600, Note_on_c, 4, 78, 0
6, 201600, Note_on_c, 4, 67, 90
6, 201600, Note_on_c, 4, 52, 90
6, 201600, Note_on_c, 4, 55, 90
6, 201600, Note_on_c, 4, 57, 90
6, 201600, Note_on_c, 4, 61, 90
6, 201840, Note_on_c, 4, 67, 0
6, 201840, Note_on_c, 4, 69, 90
6, 202080, Note_on_c, 4, 69, 0
6, 202080, Note_on_c, 4, 73, 90
6, 202320, Note_on_c, 4, 73, 0
6, 202320, Note_on_c, 4, 76, 90
6, 202560, Note_on_c, 4, 76, 0
6, 202560, Note_on_c, 4, 61, 0
6, 202560, Note_on_c, 4, 52, 0
6, 202560, Note_on_c, 4, 55, 0
6, 202560, Note_on_c, 4, 57, 0
6, 202560, Note_on_c, 4, 79, 90
6, 202800, Note_on_c, 4, 79, 0
6, 202800, Note_on_c, 4, 76, 90
6, 203040, Note_on_c, 4, 76, 0
6, 203040, Note_on_c, 4, 73, 90
6, 203280, Note_on_c, 4, 73, 0
6, 203280, Note_on_c, 4, 67, 90
6, 203520, Note_on_c, 4, 67, 0
6, 203520, Note_on_c, 4, 66, 90
6, 203520, Note_on_c, 4, 50, 90
6, 203520, Note_on_c, 4, 54, 90
6, 203520, Note_on_c, 4, 57, 90
6, 203520, Note_on_c, 4, 62, 90
6, 203760, Note_on_c, 4, 66, 0
6, 203760, Note_on_c, 4, 69, 90
6, 204000, Note_on_c, 4, 69, 0
6, 204000, Note_on_c, 4, 74, 90
6, 204240, Note_on_c, 4, 74, 0
6, 204240, Note_on_c, 4, 78, 90
6, 204480, Note_on_c, 4, 78, 0
6, 204480, Note_on_c, 4, 62, 0
6, 204480, Note_on_c, 4, 50, 0
6, 204480, Note_on_c, 4, 54, 0
6, 204480, Note_on_c, 4, 57, 0
6, 204480, Note_on_c, 4, 81, 90
6, 204720, Note_on_c, 4, 81, 0
6, 204720, Note_on_c, 4, 78, 90
6, 204960, Note_on_c, 4, 78, 0
6, 204960, Note_on_c, 4, 74, 90
6, 205200, Note_on_c, 4, 74, 0
6, 205200, Note_on_c, 4, 69, 90
6, 205440, Note_on_c, 4, 69, 0
6, 205440, Note_on_c, 4, 67, 90
6, 205440, Note_on_c, 4, 52, 90
6, 205440, Note_on_c, 4, 55, 90
6, 205440, Note_on_c, 4, 57, 90
6, 205440, Note_on_c, 4, 61, 90
6, 205680, Note_on_c, 4, 67, 0
6, 205680, Note_on_c, 4, 69, 90
6, 205920, Note_on_c, 4, 69, 0
6, 205920, Note_on_c, 4, 73, 90
6, 206160, Note_on_c, 4, 73, 0
6, 206160, Note_on_c, 4, 76, 90
6, 206400, Note_on_c, 4, 76, 0
6, 206400, Note_on_c, 4, 61, 0
6, 206400, Note_on_c, 4, 52, 0
6, 206400, Note_on_c, 4, 55, 0
6, 206400, Note_on_c, 4, 57, 0
6, 206400, Note_on_c, 4, 79, 90
6, 206640, Note_on_c, 4, 79, 0
6, 206640, Note_on_c, 4, 76, 90
6, 206880, Note_on_c, 4, 76, 0
6, 206880, Note_on_c, 4, 73, 90
6, 207120, Note_on_c, 4, 73, 0
6, 207120, Note_on_c, 4, 67, 90
6, 207360, Note_on_c, 4, 67, 0
6, 207360, Note_on_c, 4, 66, 90
6, 207360, Note_on_c, 4, 50, 90
6, 207600, Note_on_c, 4, 66, 0
6, 207600, Note_on_c, 4, 62, 90
6, 207840, Note_on_c, 4, 62, 0
6, 207840, Note_on_c, 4, 50, 0
6, 207840, Note_on_c, 4, 66, 90
6, 207840, Note_on_c, 4, 54, 90
6, 208080, Note_on_c, 4, 54, 0
6, 208080, Note_on_c, 4, 66, 0
6, 208080, Note_on_c, 4, 69, 90
6, 208080, Note_on_c, 4, 57, 90
6, 208320, Note_on_c, 4, 57, 0
6, 208320, Note_on_c, 4, 69, 0
6, 208320, Note_on_c, 4, 74, 90
6, 208320, Note_on_c, 4, 62, 90
6, 208560, Note_on_c, 4, 62, 0
6, 208560, Note_on_c, 4, 74, 0
6, 208560, Note_on_c, 4, 73, 90
6, 208560, Note_on_c, 4, 61, 90
6, 208800, Note_on_c, 4, 61, 0
6, 208800, Note_on_c, 4, 73, 0
6, 208800, Note_on_c, 4, 74, 90
6, 208800, Note_on_c, 4, 62, 90
6, 209040, Note_on_c, 4, 62, 0
6, 209040, Note_on_c, 4, 74, 0
6, 209040, Note_on_c, 4, 73, 90
6, 209040, Note_on_c, 4, 61, 90
6, 209280, Note_on_c, 4, 61, 0
6, 209280, Note_on_c, 4, 73, 0
6, 209280, Note_on_c, 4, 74, 90
6, 209280, Note_on_c, 4, 62, 90
6, 209520, Note_on_c, 4, 62, 0
6, 209520, Note_on_c, 4, 50, 90
6, 209760, Note_on_c, 4, 50, 0
6, 209760, Note_on_c, 4, 74, 0
6, 209760, Note_on_c, 4, 78, 90
6, 209760, Note_on_c, 4, 54, 90
6, 210000, Note_on_c, 4, 54, 0
6, 210000, Note_on_c, 4, 78, 0
6, 210000, Note_on_c, 4, 81, 90
6, 210000, Note_on_c, 4, 57, 90
6, 210240, Note_on_c, 4, 57, 0
6, 210240, Note_on_c, 4, 81, 0
6, 210240, Note_on_c, 4, 86, 90
6, 210240, Note_on_c, 4, 62, 90
6, 210480, Note_on_c, 4, 62, 0
6, 210480, Note_on_c, 4, 86, 0
6, 210480, Note_on_c, 4, 85, 90
6, 210480, Note_on_c, 4, 61, 90
6, 210720, Note_on_c, 4, 61, 0
6, 210720, Note_on_c, 4, 85, 0
6, 210720, Note_on_c, 4, 86, 90
6, 210720, Note_on_c, 4, 62, 90
6, 210960, Note_on_c, 4, 62, 0
6, 210960, Note_on_c, 4, 86, 0
6, 210960, Note_on_c, 4, 85, 90
6, 210960, Note_on_c, 4, 61, 90
6, 211200, Note_on_c, 4, 61, 0
6, 211200, Note_on_c, 4, 85, 0
6, 211200, Note_on_c, 4, 86, 105
6, 211200, Note_on_c, 4, 62, 105
6, 211680, Note_on_c, 4, 62, 0
6, 211680, Note_on_c, 4, 86, 0
6, 245760, Note_on_c, 4, 55, 105
6, 246000, Note_on_c, 4, 55, 0
6, 246000, Note_on_c, 4, 62, 105
6, 246240, Note_on_c, 4, 62, 0
6, 246240, Note_on_c, 4, 67, 105
6, 246240, Note_on_c, 4, 59, 105
6, 246480, Note_on_c, 4, 59, 0
6, 246480, Note_on_c, 4, 62, 105
6, 246720, Note_on_c, 4, 62, 0
6, 246720, Note_on_c, 4, 67, 0
6, 246720, Note_on_c, 4, 67, 105
6, 246720, Note_on_c, 4, 55, 105
6, 246960, Note_on_c, 4, 55, 0
6, 246960, Note_on_c, 4, 62, 105
6, 247200, Note_on_c, 4, 62, 0
6, 247200, Note_on_c, 4, 67, 0
6, 247200, Note_on_c, 4, 67, 105
6, 247200, Note_on_c, 4, 59, 105
6, 247440, Note_on_c, 4, 59, 0
6, 247440, Note_on_c, 4, 62, 105
6, 247680, Note_on_c, 4, 62, 0
6, 247680, Note_on_c, 4, 67, 0
6, 247680, Note_on_c, 4, 69, 105
6, 247680, Note_on_c, 4, 50, 105
6, 247920, Note_on_c, 4, 50, 0
6, 247920, Note_on_c, 4, 62, 105
6, 248160, Note_on_c, 4, 62, 0
6, 248160, Note_on_c, 4, 60, 105
6, 248400, Note_on_c, 4, 60, 0
6, 248400, Note_on_c, 4, 69, 0
6, 248400, Note_on_c, 4, 71, 105
6, 248400, Note_on_c, 4, 62, 105
6, 248640, Note_on_c, 4, 62, 0
6, 248640, Note_on_c, 4, 71, 0
6, 248640, Note_on_c, 4, 67, 105
6, 248640, Note_on_c, 4, 55, 105
6, 248880, Note_on_c, 4, 55, 0
6, 248880, Note_on_c, 4, 62, 105
6, 249120, Note_on_c, 4, 62, 0
6, 249120, Note_on_c, 4, 67, 0
6, 249120, Note_on_c, 4, 67, 105
6, 249120, Note_on_c, 4, 59, 105
6, 249360, Note_on_c, 4, 59, 0
6, 249360, Note_on_c, 4, 62, 105
6, 249600, Note_on_c, 4, 62, 0
6, 249600, Note_on_c, 4, 67, 0
6, 249600, Note_on_c, 4, 69, 105
6, 249600, Note_on_c, 4, 50, 105
6, 249840, Note_on_c, 4, 50, 0
6, 249840, Note_on_c, 4, 62, 105
6, 250080, Note_on_c, 4, 62, 0
6, 250080, Note_on_c, 4, 60, 105
6, 250320, Note_on_c, 4, 60, 0
6, 250320, Note_on_c, 4, 69, 0
6, 250320, Note_on_c, 4, 71, 105
6, 250320, Note_on_c, 4, 62, 105
6, 250560, Note_on_c, 4, 62, 0
6, 250560, Note_on_c, 4, 71, 0
6, 250560, Note_on_c, 4, 67, 105
6, 250560, Note_on_c, 4, 55, 105
6, 250800, Note_on_c, 4, 55, 0
6, 250800, Note_on_c, 4, 59, 105
6, 251040, Note_on_c, 4, 59, 0
6, 251040, Note_on_c, 4, 67, 0
6, 251040, Note_on_c, 4, 67, 105
6, 251040, Note_on_c, 4, 72, 105
6, 251040, Note_on_c, 4, 52, 105
6, 251280, Note_on_c, 4, 52, 0
6, 251280, Note_on_c, 4, 55, 105
6, 251520, Note_on_c, 4, 55, 0
6, 251520, Note_on_c, 4, 72, 0
6, 251520, Note_on_c, 4, 67, 0
6, 251520, Note_on_c, 4, 67, 105
6, 251520, Note_on_c, 4, 71, 105
6, 251520, Note_on_c, 4, 50, 105
6, 251760, Note_on_c, 4, 50, 0
6, 251760, Note_on_c, 4, 62, 105
6, 252000, Note_on_c, 4, 62, 0
6, 252000, Note_on_c, 4, 61, 105
6, 252240, Note_on_c, 4, 61, 0
6, 252240, Note_on_c, 4, 62, 105
6, 252480, Note_on_c, 4, 62, 0
6, 252480, Note_on_c, 4, 71, 0
6, 252480, Note_on_c, 4, 67, 0
6, 252480, Note_on_c, 4, 66, 105
6, 252480, Note_on_c, 4, 69, 105
6, 252480, Note_on_c, 4, 61, 105
6, 252720, Note_on_c, 4, 61, 0
6, 252720, Note_on_c, 4, 62, 105
6, 252960, Note_on_c, 4, 62, 0
6, 252960, Note_on_c, 4, 69, 0
6, 252960, Note_on_c, 4, 66, 0
6, 252960, Note_on_c, 4, 61, 105
6, 253200, Note_on_c, 4, 61, 0
6, 253200, Note_on_c, 4, 62, 105
6, 253440, Note_on_c, 4, 62, 0
6, 253440, Note_on_c, 4, 50, 105
6, 253680, Note_on_c, 4, 50, 0
6, 253680, Note_on_c, 4, 57, 105
6, 253920, Note_on_c, 4, 57, 0
6, 253920, Note_on_c, 4, 69, 105
6, 253920, Note_on_c, 4, 54, 105
6, 254160, Note_on_c, 4, 54, 0
6, 254160, Note_on_c, 4, 57, 105
6, 254400, Note_on_c, 4, 57, 0
6, 254400, Note_on_c, 4, 69, 0
6, 254400, Note_on_c, 4, 69, 105
6, 254400, Note_on_c, 4, 50, 105
6, 254640, Note_on_c, 4, 50, 0
6, 254640, Note_on_c, 4, 57, 105
6, 254880, Note_on_c, 4, 57, 0
6, 254880, Note_on_c, 4, 69, 0
6, 254880, Note_on_c, 4, 69, 105
6, 254880, Note_on_c, 4, 54, 105
6, 255120, Note_on_c, 4, 54, 0
6, 255120, Note_on_c, 4, 57, 105
6, 255360, Note_on_c, 4, 57, 0
6, 255360, Note_on_c, 4, 69, 0
6, 255360, Note_on_c, 4, 71, 105
6, 255360, Note_on_c, 4, 50, 105
6, 255600, Note_on_c, 4, 50, 0
6, 255600, Note_on_c, 4, 59, 105
6, 255840, Note_on_c, 4, 59, 0
6, 255840, Note_on_c, 4, 55, 105
6, 256080, Note_on_c, 4, 55, 0
6, 256080, Note_on_c, 4, 71, 0
6, 256080, Note_on_c, 4, 72, 105
6, 256080, Note_on_c, 4, 59, 105
6, 256320, Note_on_c, 4, 59, 0
6, 256320, Note_on_c, 4, 72, 0
6, 256320, Note_on_c, 4, 69, 105
6, 256320, Note_on_c, 4, 50, 105
6, 256560, Note_on_c, 4, 50, 0
6, 256560, Note_on_c, 4, 57, 105
6, 256800, Note_on_c, 4, 57, 0
6, 256800, Note_on_c, 4, 69, 0
6, 256800, Note_on_c, 4, 69, 105
6, 256800, Note_on_c, 4, 54, 105
6, 257040, Note_on_c, 4, 54, 0
6, 257040, Note_on_c, 4, 57, 105
6, 257280, Note_on_c, 4, 57, 0
6, 257280, Note_on_c, 4, 69, 0
6, 257280, Note_on_c, 4, 71, 105
6, 257280, Note_on_c, 4, 50, 105
6, 257520, Note_on_c, 4, 50, 0
6, 257520, Note_on_c, 4, 59, 105
6, 257760, Note_on_c, 4, 59, 0
6, 257760, Note_on_c, 4, 55, 105
6, 258000, Note_on_c, 4, 55, 0
6, 258000, Note_on_c, 4, 71, 0
6, 258000, Note_on_c, 4, 72, 105
6, 258000, Note_on_c, 4, 59, 105
6, 258240, Note_on_c, 4, 59, 0
6, 258240, Note_on_c, 4, 72, 0
6, 258240, Note_on_c, 4, 69, 105
6, 258240, Note_on_c, 4, 50, 105
6, 258480, Note_on_c, 4, 50, 0
6, 258480, Note_on_c, 4, 57, 105
6, 258720, Note_on_c, 4, 57, 0
6, 258720, Note_on_c, 4, 69, 0
6, 258720, Note_on_c, 4, 74, 105
6, 258720, Note_on_c, 4, 54, 105
6, 258960, Note_on_c, 4, 54, 0
6, 258960, Note_on_c, 4, 57, 105
6, 259200, Note_on_c, 4, 57, 0
6, 259200, Note_on_c, 4, 74, 0
6, 259200, Note_on_c, 4, 69, 105
6, 259200, Note_on_c, 4, 72, 105
6, 259200, Note_on_c, 4, 43, 105
6, 259440, Note_on_c, 4, 43, 0
6, 259440, Note_on_c, 4, 55, 105
6, 259680, Note_on_c, 4, 55, 0
6, 259680, Note_on_c, 4, 54, 105
6, 259920, Note_on_c, 4, 54, 0
6, 259920, Note_on_c, 4, 55, 105
6, 260160, Note_on_c, 4, 55, 0
6, 260160, Note_on_c, 4, 72, 0
6, 260160, Note_on_c, 4, 69, 0
6, 260160, Note_on_c, 4, 67, 105
6, 260160, Note_on_c, 4, 71, 105
6, 260160, Note_on_c, 4, 54, 105
6, 260400, Note_on_c, 4, 54, 0
6, 260400, Note_on_c, 4, 55, 105
6, 260640, Note_on_c, 4, 55, 0
6, 260640, Note_on_c, 4, 71, 0
6, 260640, Note_on_c, 4, 67, 0
6, 260640, Note_on_c, 4, 54, 105
6, 260880, Note_on_c, 4, 54, 0
6, 260880, Note_on_c, 4, 55, 105
6, 261120, Note_on_c, 4, 55, 0
6, 261120, Note_on_c, 4, 43, 105
6, 261360, Note_on_c, 4, 74, 105
6, 261600, Note_on_c, 4, 74, 0
6, 261600, Note_on_c, 4, 73, 105
6, 261840, Note_on_c, 4, 73, 0
6, 261840, Note_on_c, 4, 74, 105
6, 262080, Note_on_c, 4, 74, 0
6, 262080, Note_on_c, 4, 43, 0
6, 262080, Note_on_c, 4, 72, 105
6, 262320, Note_on_c, 4, 72, 0
6, 262320, Note_on_c, 4, 71, 105
6, 262560, Note_on_c, 4, 71, 0
6, 262560, Note_on_c, 4, 69, 105
6, 262560, Note_on_c, 4, 47, 105
6, 262800, Note_on_c, 4, 69, 0
6, 262800, Note_on_c, 4, 67, 105
6, 263040, Note_on_c, 4, 67, 0
6, 263040, Note_on_c, 4, 47, 0
6, 263040, Note_on_c, 4, 76, 105
6, 263040, Note_on_c, 4, 48, 105
6, 263280, Note_on_c, 4, 48, 0
6, 263280, Note_on_c, 4, 52, 105
6, 263520, Note_on_c, 4, 52, 0
6, 263520, Note_on_c, 4, 76, 0
6, 263520, Note_on_c, 4, 76, 105
6, 263520, Note_on_c, 4, 57, 105
6, 263760, Note_on_c, 4, 57, 0
6, 263760, Note_on_c, 4, 76, 0
6, 263760, Note_on_c, 4, 72, 105
6, 263760, Note_on_c, 4, 60, 105
6, 264000, Note_on_c, 4, 60, 0
6, 264000, Note_on_c, 4, 72, 0
6, 264000, Note_on_c, 4, 69, 105
6, 264000, Note_on_c, 4, 48, 105
6, 264240, Note_on_c, 4, 48, 0
6, 264240, Note_on_c, 4, 52, 105
6, 264480, Note_on_c, 4, 52, 0
6, 264480, Note_on_c, 4, 69, 0
6, 264480, Note_on_c, 4, 57, 105
6, 264720, Note_on_c, 4, 57, 0
6, 264720, Note_on_c, 4, 60, 105
6, 264960, Note_on_c, 4, 60, 0
6, 264960, Note_on_c, 4, 74, 105
6, 264960, Note_on_c, 4, 47, 105
6, 265200, Note_on_c, 4, 47, 0
6, 265200, Note_on_c, 4, 50, 105
6, 265440, Note_on_c, 4, 50, 0
6, 265440, Note_on_c, 4, 74, 0
6, 265440, Note_on_c, 4, 74, 105
6, 265440, Note_on_c, 4, 55, 105
6, 265680, Note_on_c, 4, 55, 0
6, 265680, Note_on_c, 4, 74, 0
6, 265680, Note_on_c, 4, 71, 105
6, 265680, Note_on_c, 4, 59, 105
6, 265920, Note_on_c, 4, 59, 0
6, 265920, Note_on_c, 4, 71, 0
6, 265920, Note_on_c, 4, 67, 105
6, 265920, Note_on_c, 4, 47, 105
6, 266160, Note_on_c, 4, 47, 0
6, 266160, Note_on_c, 4, 50, 105
6, 266400, Note_on_c, 4, 50, 0
6, 266400, Note_on_c, 4, 67, 0
6, 266400, Note_on_c, 4, 55, 105
6, 266640, Note_on_c, 4, 55, 0
6, 266640, Note_on_c, 4, 59, 105
6, 266880, Note_on_c, 4, 59, 0
6, 266880, Note_on_c, 4, 66, 105
6, 266880, Note_on_c, 4, 45, 105
6, 267120, Note_on_c, 4, 45, 0
6, 267120, Note_on_c, 4, 48, 105
6, 267360, Note_on_c, 4, 48, 0
6, 267360, Note_on_c, 4, 66, 0
6, 267360, Note_on_c, 4, 66, 105
6, 267360, Note_on_c, 4, 50, 105
6, 267600, Note_on_c, 4, 50, 0
6, 267600, Note_on_c, 4, 66, 0
6, 267600, Note_on_c, 4, 69, 105
6, 267600, Note_on_c, 4, 54, 105
6, 267840, Note_on_c, 4, 54, 0
6, 267840, Note_on_c, 4, 69, 0
6, 267840, Note_on_c, 4, 72, 105
6, 267840, Note_on_c, 4, 45, 105
6, 268080, Note_on_c, 4, 45, 0
6, 268080, Note_on_c, 4, 48, 105
6, 268320, Note_on_c, 4, 48, 0
6, 268320, Note_on_c, 4, 72, 0
6, 268320, Note_on_c, 4, 50, 105
6, 268560, Note_on_c, 4, 50, 0
6, 268560, Note_on_c, 4, 54, 105
6, 268800, Note_on_c, 4, 54, 0
6, 268800, Note_on_c, 4, 55, 105
6, 269040, Note_on_c, 4, 71, 105
6, 269280, Note_on_c, 4, 71, 0
6, 269280, Note_on_c, 4, 55, 0
6, 269280, Note_on_c, 4, 72, 105
6, 269280, Note_on_c, 4, 57, 105
6, 269520, Note_on_c, 4, 57, 0
6, 269520, Note_on_c, 4, 72, 0
6, 269520, Note_on_c, 4, 74, 105
6, 269520, Note_on_c, 4, 59, 105
6, 269760, Note_on_c, 4, 59, 0
6, 269760, Note_on_c, 4, 74, 0
6, 269760, Note_on_c, 4, 76, 105
6, 269760, Note_on_c, 4, 60, 105
6, 270000, Note_on_c, 4, 60, 0
6, 270000, Note_on_c, 4, 76, 0
6, 270000, Note_on_c, 4, 78, 105
6, 270000, Note_on_c, 4, 62, 105
6, 270240, Note_on_c, 4, 62, 0
6, 270240, Note_on_c, 4, 78, 0
6, 270240, Note_on_c, 4, 79, 105
6, 270240, Note_on_c, 4, 64, 105
6, 270480, Note_on_c, 4, 64, 0
6, 270480, Note_on_c, 4, 79, 0
6, 270480, Note_on_c, 4, 81, 105
6, 270480, Note_on_c, 4, 66, 105
6, 270720, Note_on_c, 4, 66, 0
6, 270720, Note_on_c, 4, 81, 0
6, 270720, Note_on_c, 4, 83, 105
6, 270720, Note_on_c, 4, 67, 105
6, 271200, Note_on_c, 4, 67, 0
6, 271200, Note_on_c, 4, 83, 0
6, 271200, Note_on_c, 4, 84, 105
6, 271200, Note_on_c, 4, 69, 105
6, 271680, Note_on_c, 4, 69, 0
6, 271680, Note_on_c, 4, 84, 0
6, 271680, Note_on_c, 4, 86, 105
6, 271680, Note_on_c, 4, 71, 105
6, 272160, Note_on_c, 4, 71, 0
6, 272160, Note_on_c, 4, 86, 0
6, 272160, Note_on_c, 4, 88, 105
6, 272160, Note_on_c, 4, 72, 105
6, 272640, Note_on_c, 4, 72, 0
6, 272640, Note_on_c, 4, 88, 0
6, 272640, Note_on_c, 4, 83, 105
6, 272640, Note_on_c, 4, 67, 105
6, 272760, Note_on_c, 4, 67, 0
6, 272760, Note_on_c, 4, 83, 0
6, 272760, Note_on_c, 4, 81, 105
6, 272760, Note_on_c, 4, 66, 105
6, 272880, Note_on_c, 4, 66, 0
6, 272880, Note_on_c, 4, 81, 0
6, 272880, Note_on_c, 4, 83, 105
6, 272880, Note_on_c, 4, 67, 105
6, 273000, Note_on_c, 4, 67, 0
6, 273000, Note_on_c, 4, 83, 0
6, 273000, Note_on_c, 4, 81, 105
6, 273000, Note_on_c, 4, 66, 105
6, 273120, Note_on_c, 4, 66, 0
6, 273120, Note_on_c, 4, 81, 0
6, 273120, Note_on_c, 4, 83, 105
6, 273120, Note_on_c, 4, 67, 105
6, 273180, Note_on_c, 4, 67, 0
6, 273180, Note_on_c, 4, 83, 0
6, 273180, Note_on_c, 4, 81, 105
6, 273180, Note_on_c, 4, 66, 105
6, 273240, Note_on_c, 4, 66, 0
6, 273240, Note_on_c, 4, 81, 0
6, 273240, Note_on_c, 4, 83, 105
6, 273240, Note_on_c, 4, 67, 105
6, 273300, Note_on_c, 4, 67, 0
6, 273300, Note_on_c, 4, 83, 0
6, 273300, Note_on_c, 4, 81, 105
6, 273300, Note_on_c, 4, 66, 105
6, 273360, Note_on_c, 4, 66, 0
6, 273360, Note_on_c, 4, 81, 0
6, 273360, Note_on_c, 4, 83, 105
6, 273360, Note_on_c, 4, 67, 105
6, 273420, Note_on_c, 4, 67, 0
6, 273420, Note_on_c, 4, 83, 0
6, 273420, Note_on_c, 4, 81, 105
6, 273420, Note_on_c, 4, 66, 105
6, 273480, Note_on_c, 4, 66, 0
6, 273480, Note_on_c, 4, 81, 0
6, 273480, Note_on_c, 4, 83, 105
6, 273480, Note_on_c, 4, 67, 105
6, 273540, Note_on_c, 4, 67, 0
6, 273540, Note_on_c, 4, 83, 0
6, 273540, Note_on_c, 4, 81, 105
6, 273540, Note_on_c, 4, 66, 105
6, 273600, Note_on_c, 4, 66, 0
6, 273600, Note_on_c, 4, 81, 0
6, 273600, Note_on_c, 4, 83, 105
6, 273600, Note_on_c, 4, 67, 105
6, 273660, Note_on_c, 4, 67, 0
6, 273660, Note_on_c, 4, 83, 0
6, 273660, Note_on_c, 4, 81, 105
6, 273660, Note_on_c, 4, 66, 105
6, 273720, Note_on_c, 4, 66, 0
6, 273720, Note_on_c, 4, 81, 0
6, 273720, Note_on_c, 4, 83, 105
6, 273720, Note_on_c, 4, 67, 105
6, 273780, Note_on_c, 4, 67, 0
6, 273780, Note_on_c, 4, 83, 0
6, 273780, Note_on_c, 4, 81, 105
6, 273780, Note_on_c, 4, 66, 105
6, 273840, Note_on_c, 4, 66, 0
6, 273840, Note_on_c, 4, 81, 0
6, 273840, Note_on_c, 4, 83, 105
6, 273840, Note_on_c, 4, 67, 105
6, 273900, Note_on_c, 4, 67, 0
6, 273900, Note_on_c, 4, 83, 0
6, 273900, Note_on_c, 4, 81, 105
6, 273900, Note_on_c, 4, 66, 105
6, 273960, Note_on_c, 4, 66, 0
6, 273960, Note_on_c, 4, 81, 0
6, 273960, Note_on_c, 4, 83, 105
6, 273960, Note_on_c, 4, 67, 105
6, 274020, Note_on_c, 4, 67, 0
6, 274020, Note_on_c, 4, 83, 0
6, 274020, Note_on_c, 4, 81, 105
6, 274020, Note_on_c, 4, 66, 105
6, 274080, Note_on_c, 4, 66, 0
6, 274080, Note_on_c, 4, 81, 0
6, 274080, Note_on_c, 4, 83, 105
6, 274080, Note_on_c, 4, 67, 105
6, 274140, Note_on_c, 4, 67, 0
6, 274140, Note_on_c, 4, 83, 0
6, 274140, Note_on_c, 4, 81, 105
6, 274140, Note_on_c, 4, 66, 105
6, 274200, Note_on_c, 4, 66, 0
6, 274200, Note_on_c, 4, 81, 0
6, 274200, Note_on_c, 4, 83, 105
6, 274200, Note_on_c, 4, 67, 105
6, 274260, Note_on_c, 4, 67, 0
6, 274260, Note_on_c, 4, 83, 0
6, 274260, Note_on_c, 4, 81, 105
6, 274260, Note_on_c, 4, 66, 105
6, 274320, Note_on_c, 4, 66, 0
6, 274320, Note_on_c, 4, 81, 0
6, 274320, Note_on_c, 4, 79, 105
6, 274320, Note_on_c, 4, 64, 105
6, 274440, Note_on_c, 4, 64, 0
6, 274440, Note_on_c, 4, 79, 0
6, 274440, Note_on_c, 4, 81, 105
6, 274440, Note_on_c, 4, 66, 105
6, 274560, Note_on_c, 4, 66, 0
6, 274560, Note_on_c, 4, 81, 0
6, 274560, Note_on_c, 4, 79, 105
6, 274560, Note_on_c, 4, 67, 105
6, 275040, Note_on_c, 4, 67, 0
6, 275040, Note_on_c, 4, 79, 0
6, 275040, Note_on_c, 4, 67, 105
6, 275040, Note_on_c, 4, 55, 105
6, 275280, Note_on_c, 4, 55, 0
6, 275280, Note_on_c, 4, 67, 0
6, 275280, Note_on_c, 4, 67, 105
6, 275280, Note_on_c, 4, 55, 105
6, 275520, Note_on_c, 4, 55, 0
6, 275520, Note_on_c, 4, 67, 0
6, 275520, Note_on_c, 4, 66, 105
6, 275520, Note_on_c, 4, 54, 105
6, 275760, Note_on_c, 4, 54, 0
6, 275760, Note_on_c, 4, 66, 0
6, 275760, Note_on_c, 4, 69, 105
6, 275760, Note_on_c, 4, 57, 105
6, 276000, Note_on_c, 4, 57, 0
6, 276000, Note_on_c, 4, 69, 0
6, 276000, Note_on_c, 4, 72, 105
6, 276000, Note_on_c, 4, 60, 105
6, 276240, Note_on_c, 4, 60, 0
6, 276240, Note_on_c, 4, 72, 0
6, 276240, Note_on_c, 4, 72, 105
6, 276240, Note_on_c, 4, 60, 105
6, 276480, Note_on_c, 4, 60, 0
6, 276480, Note_on_c, 4, 72, 0
6, 276480, Note_on_c, 4, 71, 105
6, 276480, Note_on_c, 4, 59, 105
6, 276720, Note_on_c, 4, 59, 0
6, 276720, Note_on_c, 4, 71, 0
6, 276720, Note_on_c, 4, 74, 105
6, 276720, Note_on_c, 4, 62, 105
6, 276960, Note_on_c, 4, 62, 0
6, 276960, Note_on_c, 4, 74, 0
6, 276960, Note_on_c, 4, 79, 105
6, 276960, Note_on_c, 4, 67, 105
6, 277200, Note_on_c, 4, 67, 0
6, 277200, Note_on_c, 4, 79, 0
6, 277200, Note_on_c, 4, 79, 105
6, 277200, Note_on_c, 4, 67, 105
6, 277440, Note_on_c, 4, 67, 0
6, 277440, Note_on_c, 4, 79, 0
6, 277440, Note_on_c, 4, 78, 105
6, 277440, Note_on_c, 4, 66, 105
6, 277680, Note_on_c, 4, 66, 0
6, 277680, Note_on_c, 4, 78, 0
6, 277680, Note_on_c, 4, 81, 105
6, 277680, Note_on_c, 4, 69, 105
6, 277920, Note_on_c, 4, 69, 0
6, 277920, Note_on_c, 4, 81, 0
6, 277920, Note_on_c, 4, 84, 105
6, 277920, Note_on_c, 4, 72, 105
6, 278160, Note_on_c, 4, 72, 0
6, 278160, Note_on_c, 4, 84, 0
6, 278160, Note_on_c, 4, 84, 105
6, 278160, Note_on_c, 4, 72, 105
6, 278400, Note_on_c, 4, 72, 0
6, 278400, Note_on_c, 4, 84, 0
6, 278400, Note_on_c, 4, 83, 105
6, 278400, Note_on_c, 4, 71, 105
6, 278788, Note_on_c, 4, 74, 105
6, 278820, Note_on_c, 4, 79, 105
6, 278848, Note_on_c, 4, 83, 105
6, 278880, Note_on_c, 4, 71, 0
6, 278880, Note_on_c, 4, 83, 0
6, 278880, Note_on_c, 4, 86, 105
6, 278880, Note_on_c, 4, 62, 105
6, 279120, Note_on_c, 4, 62, 0
6, 279120, Note_on_c, 4, 62, 105
6, 279360, Note_on_c, 4, 62, 0
6, 279360, Note_on_c, 4, 86, 0
6, 279360, Note_on_c, 4, 83, 0
6, 279360, Note_on_c, 4, 74, 0
6, 279360, Note_on_c, 4, 79, 0
6, 279360, Note_on_c, 4, 69, 105
6, 279748, Note_on_c, 4, 74, 105
6, 279780, Note_on_c, 4, 78, 105
6, 279808, Note_on_c, 4, 81, 105
6, 279840, Note_on_c, 4, 69, 0
6, 279840, Note_on_c, 4, 86, 105
6, 279840, Note_on_c, 4, 62, 105
6, 280080, Note_on_c, 4, 62, 0
6, 280080, Note_on_c, 4, 62, 105
6, 280320, Note_on_c, 4, 62, 0
6, 280320, Note_on_c, 4, 86, 0
6, 280320, Note_on_c, 4, 81, 0
6, 280320, Note_on_c, 4, 78, 0
6, 280320, Note_on_c, 4, 74, 0
6, 280320, Note_on_c, 4, 71, 105
6, 280708, Note_on_c, 4, 74, 105
6, 280740, Note_on_c, 4, 79, 105
6, 280768, Note_on_c, 4, 83, 105
6, 280800, Note_on_c, 4, 71, 0
6, 280800, Note_on_c, 4, 86, 105
6, 280800, Note_on_c, 4, 62, 105
6, 281040, Note_on_c, 4, 62, 0
6, 281040, Note_on_c, 4, 62, 105
6, 281280, Note_on_c, 4, 62, 0
6, 281280, Note_on_c, 4, 86, 0
6, 281280, Note_on_c, 4, 83, 0
6, 281280, Note_on_c, 4, 79, 0
6, 281280, Note_on_c, 4, 74, 0
6, 281280, Note_on_c, 4, 66, 105
6, 281668, Note_on_c, 4, 74, 105
6, 281700, Note_on_c, 4, 81, 105
6, 281728, Note_on_c, 4, 84, 105
6, 281760, Note_on_c, 4, 66, 0
6, 281760, Note_on_c, 4, 86, 105
6, 281760, Note_on_c, 4, 62, 105
6, 282000, Note_on_c, 4, 62, 0
6, 282000, Note_on_c, 4, 62, 105
6, 282240, Note_on_c, 4, 62, 0
6, 282240, Note_on_c, 4, 86, 0
6, 282240, Note_on_c, 4, 84, 0
6, 282240, Note_on_c, 4, 81, 0
6, 282240, Note_on_c, 4, 74, 0
6, 282240, Note_on_c, 4, 67, 105
6, 282628, Note_on_c, 4, 74, 105
6, 282660, Note_on_c, 4, 79, 105
6, 282688, Note_on_c, 4, 83, 105
6, 282720, Note_on_c, 4, 67, 0
6, 282720, Note_on_c, 4, 86, 105
6, 282720, Note_on_c, 4, 62, 105
6, 282960, Note_on_c, 4, 62, 0
6, 282960, Note_on_c, 4, 62, 105
6, 283200, Note_on_c, 4, 62, 0
6, 283200, Note_on_c, 4, 86, 0
6, 283200, Note_on_c, 4, 83, 0
6, 283200, Note_on_c, 4, 79, 0
6, 283200, Note_on_c, 4, 74, 0
6, 283200, Note_on_c, 4, 69, 105
6, 283588, Note_on_c, 4, 74, 105
6, 283620, Note_on_c, 4, 78, 105
6, 283648, Note_on_c, 4, 81, 105
6, 283680, Note_on_c, 4, 69, 0
6, 283680, Note_on_c, 4, 86, 105
6, 283680, Note_on_c, 4, 62, 105
6, 283920, Note_on_c, 4, 62, 0
6, 283920, Note_on_c, 4, 62, 105
6, 284160, Note_on_c, 4, 62, 0
6, 284160, Note_on_c, 4, 86, 0
6, 284160, Note_on_c, 4, 81, 0
6, 284160, Note_on_c, 4, 78, 0
6, 284160, Note_on_c, 4, 74, 0
6, 284160, Note_on_c, 4, 71, 105
6, 284548, Note_on_c, 4, 74, 105
6, 284580, Note_on_c, 4, 79, 105
6, 284608, Note_on_c, 4, 83, 105
6, 284640, Note_on_c, 4, 71, 0
6, 284640, Note_on_c, 4, 86, 105
6, 284640, Note_on_c, 4, 62, 105
6, 284880, Note_on_c, 4, 62, 0
6, 284880, Note_on_c, 4, 62, 105
6, 285120, Note_on_c, 4, 62, 0
6, 285120, Note_on_c, 4, 86, 0
6, 285120, Note_on_c, 4, 83, 0
6, 285120, Note_on_c, 4, 79, 0
6, 285120, Note_on_c, 4, 74, 0
6, 285120, Note_on_c, 4, 66, 105
6, 285508, Note_on_c, 4, 74, 105
6, 285540, Note_on_c, 4, 81, 105
6, 285568, Note_on_c, 4, 84, 105
6, 285600, Note_on_c, 4, 66, 0
6, 285600, Note_on_c, 4, 86, 105
6, 285600, Note_on_c, 4, 62, 105
6, 285840, Note_on_c, 4, 62, 0
6, 285840, Note_on_c, 4, 62, 105
6, 286080, Note_on_c, 4, 62, 0
6, 286080, Note_on_c, 4, 86, 0
6, 286080, Note_on_c, 4, 84, 0
6, 286080, Note_on_c, 4, 81, 0
6, 286080, Note_on_c, 4, 74, 0
6, 286080, Note_on_c, 4, 67, 105
6, 286236, Note_on_c, 4, 83, 105
6, 286400, Note_on_c, 4, 83, 0
6, 286400, Note_on_c, 4, 84, 105
6, 286560, Note_on_c, 4, 84, 0
6, 286560, Note_on_c, 4, 67, 0
6, 286560, Note_on_c, 4, 86, 105
6, 286716, Note_on_c, 4, 86, 0
6, 286716, Note_on_c, 4, 84, 105
6, 286880, Note_on_c, 4, 84, 0
6, 286880, Note_on_c, 4, 83, 105
6, 287040, Note_on_c, 4, 83, 0
6, 287040, Note_on_c, 4, 64, 105
6, 287196, Note_on_c, 4, 79, 105
6, 287360, Note_on_c, 4, 79, 0
6, 287360, Note_on_c, 4, 81, 105
6, 287520, Note_on_c, 4, 81, 0
6, 287520, Note_on_c, 4, 64, 0
6, 287520, Note_on_c, 4, 83, 105
6, 287676, Note_on_c, 4, 83, 0
6, 287676, Note_on_c, 4, 81, 105
6, 287840, Note_on_c, 4, 81, 0
6, 287840, Note_on_c, 4, 79, 105
6, 288000, Note_on_c, 4, 79, 0
6, 288000, Note_on_c, 4, 60, 105
6, 288156, Note_on_c, 4, 76, 105
6, 288320, Note_on_c, 4, 76, 0
6, 288320, Note_on_c, 4, 78, 105
6, 288480, Note_on_c, 4, 78, 0
6, 288480, Note_on_c, 4, 60, 0
6, 288480, Note_on_c, 4, 79, 105
6, 288636, Note_on_c, 4, 79, 0
6, 288636, Note_on_c, 4, 78, 105
6, 288800, Note_on_c, 4, 78, 0
6, 288800, Note_on_c, 4, 76, 105
6, 288960, Note_on_c, 4, 76, 0
6, 288960, Note_on_c, 4, 57, 105
6, 289116, Note_on_c, 4, 72, 105
6, 289280, Note_on_c, 4, 72, 0
6, 289280, Note_on_c, 4, 74, 105
6, 289440, Note_on_c, 4, 74, 0
6, 289440, Note_on_c, 4, 57, 0
6, 289440, Note_on_c, 4, 76, 105
6, 289596, Note_on_c, 4, 76, 0
6, 289596, Note_on_c, 4, 74, 105
6, 289760, Note_on_c, 4, 74, 0
6, 289760, Note_on_c, 4, 72, 105
6, 289920, Note_on_c, 4, 72, 0
6, 289920, Note_on_c, 4, 74, 105
6, 289920, Note_on_c, 4, 81, 105
6, 289920, Note_on_c, 4, 84, 105
6, 290160, Note_on_c, 4, 50, 105
6, 290256, Note_on_c, 4, 50, 0
6, 290400, Note_on_c, 4, 52, 105
6, 290496, Note_on_c, 4, 52, 0
6, 290640, Note_on_c, 4, 54, 105
6, 290736, Note_on_c, 4, 54, 0
6, 290880, Note_on_c, 4, 74, 0
6, 290880, Note_on_c, 4, 81, 0
6, 290880, Note_on_c, 4, 84, 0
6, 290880, Note_on_c, 4, 74, 105
6, 290880, Note_on_c, 4, 79, 105
6, 290880, Note_on_c, 4, 83, 105
6, 290880, Note_on_c, 4, 55, 105
6, 290976, Note_on_c, 4, 55, 0
6, 291120, Note_on_c, 4, 57, 105
6, 291216, Note_on_c, 4, 57, 0
6, 291360, Note_on_c, 4, 83, 0
6, 291360, Note_on_c, 4, 79, 0
6, 291360, Note_on_c, 4, 74, 0
6, 291360, Note_on_c, 4, 71, 105
6, 291360, Note_on_c, 4, 74, 105
6, 291360, Note_on_c, 4, 79, 105
6, 291360, Note_on_c, 4, 59, 105
6, 291456, Note_on_c, 4, 59, 0
6, 291600, Note_on_c, 4, 60, 105
6, 291696, Note_on_c, 4, 60, 0
6, 291840, Note_on_c, 4, 79, 0
6, 291840, Note_on_c, 4, 74, 0
6, 291840, Note_on_c, 4, 71, 0
6, 291840, Note_on_c, 4, 69, 105
6, 291840, Note_on_c, 4, 74, 105
6, 291840, Note_on_c, 4, 78, 105
6, 291840, Note_on_c, 4, 62, 105
6, 292320, Note_on_c, 4, 62, 0
6, 292320, Note_on_c, 4, 69, 0
6, 292320, Note_on_c, 4, 74, 0
6, 292320, Note_on_c, 4, 78, 0
6, 292320, Note_on_c, 4, 71, 105
6, 292320, Note_on_c, 4, 74, 105
6, 292320, Note_on_c, 4, 79, 105
6, 292320, Note_on_c, 4, 59, 105
6, 292800, Note_on_c, 4, 59, 0
6, 292800, Note_on_c, 4, 71, 0
6, 292800, Note_on_c, 4, 74, 0
6, 292800, Note_on_c, 4, 79, 0
6, 292800, Note_on_c, 4, 69, 105
6, 292800, Note_on_c, 4, 76, 105
6, 292800, Note_on_c, 4, 81, 105
6, 292800, Note_on_c, 4, 60, 105
6, 293280, Note_on_c, 4, 60, 0
6, 293280, Note_on_c, 4, 69, 0
6, 293280, Note_on_c, 4, 76, 0
6, 293280, Note_on_c, 4, 81, 0
6, 293280, Note_on_c, 4, 69, 105
6, 293280, Note_on_c, 4, 72, 105
6, 293280, Note_on_c, 4, 78, 105
6, 293280, Note_on_c, 4, 62, 105
6, 293760, Note_on_c, 4, 62, 0
6, 293760, Note_on_c, 4, 69, 0
6, 293760, Note_on_c, 4, 72, 0
6, 293760, Note_on_c, 4, 78, 0
6, 293760, Note_on_c, 4, 67, 105
6, 293916, Note_on_c, 4, 83, 105
6, 294080, Note_on_c, 4, 83, 0
6, 294080, Note_on_c, 4, 84, 105
6, 294240, Note_on_c, 4, 84, 0
6, 294240, Note_on_c, 4, 67, 0
6, 294240, Note_on_c, 4, 86, 105
6, 294396, Note_on_c, 4, 86, 0
6, 294396, Note_on_c, 4, 84, 105
6, 294560, Note_on_c, 4, 84, 0
6, 294560, Note_on_c, 4, 83, 105
6, 294720, Note_on_c, 4, 83, 0
6, 294720, Note_on_c, 4, 64, 105
6, 294876, Note_on_c, 4, 79, 105
6, 295040, Note_on_c, 4, 79, 0
6, 295040, Note_on_c, 4, 81, 105
6, 295200, Note_on_c, 4, 81, 0
6, 295200, Note_on_c, 4, 64, 0
6, 295200, Note_on_c, 4, 83, 105
6, 295356, Note_on_c, 4, 83, 0
6, 295356, Note_on_c, 4, 81, 105
6, 295520, Note_on_c, 4, 81, 0
6, 295520, Note_on_c, 4, 79, 105
6, 295680, Note_on_c, 4, 79, 0
6, 295680, Note_on_c, 4, 60, 105
6, 295836, Note_on_c, 4, 76, 105
6, 296000, Note_on_c, 4, 76, 0
6, 296000, Note_on_c, 4, 78, 105
6, 296160, Note_on_c, 4, 78, 0
6, 296160, Note_on_c, 4, 60, 0
6, 296160, Note_on_c, 4, 79, 105
6, 296316, Note_on_c, 4, 79, 0
6, 296316, Note_on_c, 4, 78, 105
6, 296480, Note_on_c, 4, 78, 0
6, 296480, Note_on_c, 4, 76, 105
6, 296640, Note_on_c, 4, 76, 0
6, 296640, Note_on_c, 4, 57, 105
6, 296796, Note_on_c, 4, 72, 105
6, 296960, Note_on_c, 4, 72, 0
6, 296960, Note_on_c, 4, 74, 105
6, 297120, Note_on_c, 4, 74, 0
6, 297120, Note_on_c, 4, 57, 0
6, 297120, Note_on_c, 4, 76, 105
6, 297276, Note_on_c, 4, 76, 0
6, 297276, Note_on_c, 4, 74, 105
6, 297440, Note_on_c, 4, 74, 0
6, 297440, Note_on_c, 4, 72, 105
6, 297600, Note_on_c, 4, 72, 0
6, 297600, Note_on_c, 4, 74, 105
6, 297600, Note_on_c, 4, 81, 105
6, 297600, Note_on_c, 4, 84, 105
6, 297840, Note_on_c, 4, 50, 105
6, 297936, Note_on_c, 4, 50, 0
6, 298080, Note_on_c, 4, 52, 105
6, 298176, Note_on_c, 4, 52, 0
6, 298320, Note_on_c, 4, 54, 105
6, 298416, Note_on_c, 4, 54, 0
6, 298560, Note_on_c, 4, 74, 0
6, 298560, Note_on_c, 4, 81, 0
6, 298560, Note_on_c, 4, 84, 0
6, 298560, Note_on_c, 4, 74, 105
6, 298560, Note_on_c, 4, 79, 105
6, 298560, Note_on_c, 4, 83, 105
6, 298560, Note_on_c, 4, 55, 105
6, 298656, Note_on_c, 4, 55, 0
6, 298800, Note_on_c, 4, 57, 105
6, 298896, Note_on_c, 4, 57, 0
6, 299040, Note_on_c, 4, 83, 0
6, 299040, Note_on_c, 4, 79, 0
6, 299040, Note_on_c, 4, 74, 0
6, 299040, Note_on_c, 4, 71, 105
6, 299040, Note_on_c, 4, 74, 105
6, 299040, Note_on_c, 4, 79, 105
6, 299040, Note_on_c, 4, 59, 105
6, 299136, Note_on_c, 4, 59, 0
6, 299280, Note_on_c, 4, 60, 105
6, 299376, Note_on_c, 4, 60, 0
6, 299520, Note_on_c, 4, 79, 0
6, 299520, Note_on_c, 4, 74, 0
6, 299520, Note_on_c, 4, 71, 0
6, 299520, Note_on_c, 4, 69, 105
6, 299520, Note_on_c, 4, 74, 105
6, 299520, Note_on_c, 4, 78, 105
6, 299520, Note_on_c, 4, 62, 105
6, 300000, Note_on_c, 4, 62, 0
6, 300000, Note_on_c, 4, 69, 0
6, 300000, Note_on_c, 4, 74, 0
6, 300000, Note_on_c, 4, 78, 0
6, 300000, Note_on_c, 4, 71, 105
6, 300000, Note_on_c, 4, 74, 105
6, 300000, Note_on_c, 4, 79, 105
6, 300000, Note_on_c, 4, 59, 105
6, 300480, Note_on_c, 4, 59, 0
6, 300480, Note_on_c, 4, 71, 0
6, 300480, Note_on_c, 4, 74, 0
6, 300480, Note_on_c, 4, 79, 0
6, 300480, Note_on_c, 4, 69, 105
6, 300480, Note_on_c, 4, 76, 105
6, 300480, Note_on_c, 4, 81, 105
6, 300480, Note_on_c, 4, 60, 105
6, 300960, Note_on_c, 4, 60, 0
6, 300960, Note_on_c, 4, 69, 0
6, 300960, Note_on_c, 4, 76, 0
6, 300960, Note_on_c, 4, 81, 0
6, 300960, Note_on_c, 4, 69, 105
6, 300960, Note_on_c, 4, 72, 105
6, 300960, Note_on_c, 4, 78, 105
6, 300960, Note_on_c, 4, 62, 105
6, 301440, Note_on_c, 4, 62, 0
6, 301440, Note_on_c, 4, 69, 0
6, 301440, Note_on_c, 4, 72, 0
6, 301440, Note_on_c, 4, 78, 0
6, 301440, Note_on_c, 4, 74, 105
6, 301440, Note_on_c, 4, 81, 105
6, 301440, Note_on_c, 4, 84, 105
6, 301680, Note_on_c, 4, 50, 105
6, 301776, Note_on_c, 4, 50, 0
6, 301920, Note_on_c, 4, 52, 105
6, 302016, Note_on_c, 4, 52, 0
6, 302160, Note_on_c, 4, 54, 105
6, 302256, Note_on_c, 4, 54, 0
6, 302400, Note_on_c, 4, 74, 0
6, 302400, Note_on_c, 4, 81, 0
6, 302400, Note_on_c, 4, 84, 0
6, 302400, Note_on_c, 4, 74, 105
6, 302400, Note_on_c, 4, 79, 105
6, 302400, Note_on_c, 4, 83, 105
6, 302400, Note_on_c, 4, 55, 105
6, 302496, Note_on_c, 4, 55, 0
6, 302640, Note_on_c, 4, 57, 105
6, 302736, Note_on_c, 4, 57, 0
6, 302880, Note_on_c, 4, 83, 0
6, 302880, Note_on_c, 4, 79, 0
6, 302880, Note_on_c, 4, 74, 0
6, 302880, Note_on_c, 4, 71, 105
6, 302880, Note_on_c, 4, 74, 105
6, 302880, Note_on_c, 4, 79, 105
6, 302880, Note_on_c, 4, 59, 105
6, 302976, Note_on_c, 4, 59, 0
6, 303120, Note_on_c, 4, 60, 105
6, 303216, Note_on_c, 4, 60, 0
6, 303360, Note_on_c, 4, 79, 0
6, 303360, Note_on_c, 4, 74, 0
6, 303360, Note_on_c, 4, 71, 0
6, 303360, Note_on_c, 4, 69, 105
6, 303360, Note_on_c, 4, 74, 105
6, 303360, Note_on_c, 4, 78, 105
6, 303360, Note_on_c, 4, 62, 105
6, 303840, Note_on_c, 4, 62, 0
6, 303840, Note_on_c, 4, 69, 0
6, 303840, Note_on_c, 4, 74, 0
6, 303840, Note_on_c, 4, 78, 0
6, 303840, Note_on_c, 4, 71, 105
6, 303840, Note_on_c, 4, 74, 105
6, 303840, Note_on_c, 4, 79, 105
6, 303840, Note_on_c, 4, 59, 105
6, 304320, Note_on_c, 4, 59, 0
6, 304320, Note_on_c, 4, 71, 0
6, 304320, Note_on_c, 4, 74, 0
6, 304320, Note_on_c, 4, 79, 0
6, 304320, Note_on_c, 4, 69, 105
6, 304320, Note_on_c, 4, 76, 105
6, 304320, Note_on_c, 4, 81, 105
6, 304320, Note_on_c, 4, 60, 105
6, 304800, Note_on_c, 4, 60, 0
6, 304800, Note_on_c, 4, 69, 0
6, 304800, Note_on_c, 4, 76, 0
6, 304800, Note_on_c, 4, 81, 0
6, 304800, Note_on_c, 4, 69, 105
6, 304800, Note_on_c, 4, 72, 105
6, 304800, Note_on_c, 4, 78, 105
6, 304800, Note_on_c, 4, 62, 105
6, 305280, Note_on_c, 4, 62, 0
6, 305280, Note_on_c, 4, 69, 0
6, 305280, Note_on_c, 4, 72, 0
6, 305280, Note_on_c, 4, 78, 0
6, 305280, Note_on_c, 4, 71, 105
6, 305280, Note_on_c, 4, 74, 105
6, 305280, Note_on_c, 4, 79, 105
6, 305280, Note_on_c, 4, 55, 105
6, 305760, Note_on_c, 4, 55, 0
6, 305760, Note_on_c, 4, 71, 0
6, 305760, Note_on_c, 4, 74, 0
6, 305760, Note_on_c, 4, 79, 0
6, 312960, Note_on_c, 4, 71, 105
6, 312960, Note_on_c, 4, 67, 105
6, 313200, Note_on_c, 4, 67, 0
6, 313200, Note_on_c, 4, 71, 0
6, 313200, Note_on_c, 4, 74, 105
6, 313200, Note_on_c, 4, 59, 105
6, 313440, Note_on_c, 4, 59, 0
6, 313440, Note_on_c, 4, 74, 0
6, 313440, Note_on_c, 4, 71, 105
6, 313440, Note_on_c, 4, 67, 105
6, 313680, Note_on_c, 4, 67, 0
6, 313680, Note_on_c, 4, 71, 0
6, 313680, Note_on_c, 4, 74, 105
6, 313680, Note_on_c, 4, 59, 105
6, 313920, Note_on_c, 4, 59, 0
6, 313920, Note_on_c, 4, 74, 0
6, 313920, Note_on_c, 4, 71, 105
6, 313920, Note_on_c, 4, 67, 105
6, 314160, Note_on_c, 4, 67, 0
6, 314160, Note_on_c, 4, 71, 0
6, 314160, Note_on_c, 4, 74, 105
6, 314160, Note_on_c, 4, 59, 105
6, 314400, Note_on_c, 4, 59, 0
6, 314400, Note_on_c, 4, 74, 0
6, 314400, Note_on_c, 4, 72, 105
6, 314400, Note_on_c, 4, 66, 105
6, 314640, Note_on_c, 4, 66, 0
6, 314640, Note_on_c, 4, 72, 0
6, 314640, Note_on_c, 4, 74, 105
6, 314640, Note_on_c, 4, 59, 105
6, 314880, Note_on_c, 4, 59, 0
6, 314880, Note_on_c, 4, 74, 0
6, 314880, Note_on_c, 4, 71, 105
6, 314880, Note_on_c, 4, 67, 105
6, 315120, Note_on_c, 4, 67, 0
6, 315120, Note_on_c, 4, 71, 0
6, 315120, Note_on_c, 4, 74, 105
6, 315120, Note_on_c, 4, 59, 105
6, 315360, Note_on_c, 4, 59, 0
6, 315360, Note_on_c, 4, 74, 0
6, 315360, Note_on_c, 4, 72, 105
6, 315360, Note_on_c, 4, 66, 105
6, 315600, Note_on_c, 4, 66, 0
6, 315600, Note_on_c, 4, 72, 0
6, 315600, Note_on_c, 4, 74, 105
6, 315600, Note_on_c, 4, 59, 105
6, 315840, Note_on_c, 4, 59, 0
6, 315840, Note_on_c, 4, 74, 0
6, 315840, Note_on_c, 4, 71, 105
6, 315840, Note_on_c, 4, 67, 105
6, 316080, Note_on_c, 4, 67, 0
6, 316080, Note_on_c, 4, 71, 0
6, 316080, Note_on_c, 4, 74, 105
6, 316080, Note_on_c, 4, 59, 105
6, 316320, Note_on_c, 4, 59, 0
6, 316320, Note_on_c, 4, 74, 0
6, 316320, Note_on_c, 4, 72, 105
6, 316320, Note_on_c, 4, 66, 105
6, 316560, Note_on_c, 4, 66, 0
6, 316560, Note_on_c, 4, 72, 0
6, 316560, Note_on_c, 4, 74, 105
6, 316560, Note_on_c, 4, 59, 105
6, 316800, Note_on_c, 4, 59, 0
6, 316800, Note_on_c, 4, 74, 0
6, 316800, Note_on_c, 4, 71, 105
6, 316800, Note_on_c, 4, 67, 105
6, 317040, Note_on_c, 4, 67, 0
6, 317040, Note_on_c, 4, 71, 0
6, 317040, Note_on_c, 4, 74, 105
6, 317040, Note_on_c, 4, 59, 105
6, 317280, Note_on_c, 4, 59, 0
6, 317280, Note_on_c, 4, 74, 0
6, 317280, Note_on_c, 4, 71, 105
6, 317280, Note_on_c, 4, 67, 105
6, 317520, Note_on_c, 4, 67, 0
6, 317520, Note_on_c, 4, 71, 0
6, 317520, Note_on_c, 4, 74, 105
6, 317520, Note_on_c, 4, 59, 105
6, 317760, Note_on_c, 4, 59, 0
6, 317760, Note_on_c, 4, 74, 0
6, 317760, Note_on_c, 4, 71, 105
6, 317760, Note_on_c, 4, 67, 105
6, 318000, Note_on_c, 4, 67, 0
6, 318000, Note_on_c, 4, 71, 0
6, 318000, Note_on_c, 4, 74, 105
6, 318000, Note_on_c, 4, 59, 105
6, 318240, Note_on_c, 4, 59, 0
6, 318240, Note_on_c, 4, 74, 0
6, 318240, Note_on_c, 4, 71, 105
6, 318240, Note_on_c, 4, 67, 105
6, 318480, Note_on_c, 4, 67, 0
6, 318480, Note_on_c, 4, 71, 0
6, 318480, Note_on_c, 4, 74, 105
6, 318480, Note_on_c, 4, 59, 105
6, 318720, Note_on_c, 4, 59, 0
6, 318720, Note_on_c, 4, 74, 0
6, 318720, Note_on_c, 4, 71, 105
6, 318720, Note_on_c, 4, 67, 105
6, 319200, Note_on_c, 4, 67, 0
6, 319200, Note_on_c, 4, 71, 0
6, 319200, Note_on_c, 4, 69, 105
6, 319200, Note_on_c, 4, 59, 105
6, 319440, Note_on_c, 4, 69, 0
6, 319440, Note_on_c, 4, 67, 105
6, 319680, Note_on_c, 4, 67, 0
6, 319680, Note_on_c, 4, 59, 0
6, 319680, Note_on_c, 4, 67, 105
6, 319680, Note_on_c, 4, 62, 105
6, 319920, Note_on_c, 4, 67, 0
6, 319920, Note_on_c, 4, 66, 105
6, 320160, Note_on_c, 4, 66, 0
6, 320160, Note_on_c, 4, 62, 0
6, 320160, Note_on_c, 4, 64, 105
6, 320160, Note_on_c, 4, 50, 105
6, 320400, Note_on_c, 4, 64, 0
6, 320400, Note_on_c, 4, 66, 105
6, 320640, Note_on_c, 4, 66, 0
6, 320640, Note_on_c, 4, 50, 0
6, 320640, Note_on_c, 4, 67, 105
6, 320640, Note_on_c, 4, 55, 105
6, 320880, Note_on_c, 4, 55, 0
6, 320880, Note_on_c, 4, 59, 105
6, 321120, Note_on_c, 4, 59, 0
6, 321120, Note_on_c, 4, 67, 0
6, 321120, Note_on_c, 4, 62, 105
6, 321360, Note_on_c, 4, 62, 0
6, 321360, Note_on_c, 4, 62, 105
6, 321540, Note_on_c, 4, 69, 105
6, 321600, Note_on_c, 4, 69, 0
6, 321600, Note_on_c, 4, 62, 0
6, 321600, Note_on_c, 4, 81, 105
6, 321600, Note_on_c, 4, 54, 105
6, 321840, Note_on_c, 4, 54, 0
6, 321840, Note_on_c, 4, 57, 105
6, 322020, Note_on_c, 4, 74, 105
6, 322080, Note_on_c, 4, 74, 0
6, 322080, Note_on_c, 4, 57, 0
6, 322080, Note_on_c, 4, 81, 0
6, 322080, Note_on_c, 4, 86, 105
6, 322080, Note_on_c, 4, 62, 105
6, 322320, Note_on_c, 4, 62, 0
6, 322320, Note_on_c, 4, 62, 105
6, 322500, Note_on_c, 4, 71, 105
6, 322560, Note_on_c, 4, 71, 0
6, 322560, Note_on_c, 4, 62, 0
6, 322560, Note_on_c, 4, 86, 0
6, 322560, Note_on_c, 4, 83, 105
6, 322560, Note_on_c, 4, 55, 105
6, 322800, Note_on_c, 4, 55, 0
6, 322800, Note_on_c, 4, 59, 105
6, 323040, Note_on_c, 4, 59, 0
6, 323040, Note_on_c, 4, 83, 0
6, 323040, Note_on_c, 4, 62, 105
6, 323280, Note_on_c, 4, 62, 0
6, 323280, Note_on_c, 4, 62, 105
6, 323460, Note_on_c, 4, 69, 105
6, 323520, Note_on_c, 4, 69, 0
6, 323520, Note_on_c, 4, 62, 0
6, 323520, Note_on_c, 4, 81, 105
6, 323520, Note_on_c, 4, 50, 105
6, 323760, Note_on_c, 4, 50, 0
6, 323760, Note_on_c, 4, 54, 105
6, 323940, Note_on_c, 4, 74, 105
6, 324000, Note_on_c, 4, 74, 0
6, 324000, Note_on_c, 4, 54, 0
6, 324000, Note_on_c, 4, 81, 0
6, 324000, Note_on_c, 4, 86, 105
6, 324000, Note_on_c, 4, 62, 105
6, 324240, Note_on_c, 4, 62, 0
6, 324240, Note_on_c, 4, 62, 105
6, 324420, Note_on_c, 4, 67, 105
6, 324480, Note_on_c, 4, 67, 0
6, 324480, Note_on_c, 4, 62, 0
6, 324480, Note_on_c, 4, 86, 0
6, 324480, Note_on_c, 4, 79, 105
6, 324480, Note_on_c, 4, 55, 105
6, 324720, Note_on_c, 4, 55, 0
6, 324720, Note_on_c, 4, 59, 105
6, 324960, Note_on_c, 4, 59, 0
6, 324960, Note_on_c, 4, 79, 0
6, 324960, Note_on_c, 4, 62, 105
6, 325200, Note_on_c, 4, 62, 0
6, 325200, Note_on_c, 4, 62, 105
6, 325380, Note_on_c, 4, 69, 105
6, 325440, Note_on_c, 4, 69, 0
6, 325440, Note_on_c, 4, 62, 0
6, 325440, Note_on_c, 4, 81, 105
6, 325440, Note_on_c, 4, 54, 105
6, 325680, Note_on_c, 4, 54, 0
6, 325680, Note_on_c, 4, 57, 105
6, 325860, Note_on_c, 4, 74, 105
6, 325920, Note_on_c, 4, 74, 0
6, 325920, Note_on_c, 4, 57, 0
6, 325920, Note_on_c, 4, 81, 0
6, 325920, Note_on_c, 4, 86, 105
6, 325920, Note_on_c, 4, 62, 105
6, 326160, Note_on_c, 4, 62, 0
6, 326160, Note_on_c, 4, 62, 105
6, 326340, Note_on_c, 4, 71, 105
6, 326400, Note_on_c, 4, 71, 0
6, 326400, Note_on_c, 4, 62, 0
6, 326400, Note_on_c, 4, 86, 0
6, 326400, Note_on_c, 4, 83, 105
6, 326400, Note_on_c, 4, 55, 105
6, 326640, Note_on_c, 4, 55, 0
6, 326640, Note_on_c, 4, 59, 105
6, 326820, Note_on_c, 4, 74, 105
6, 326880, Note_on_c, 4, 74, 0
6, 326880, Note_on_c, 4, 59, 0
6, 326880, Note_on_c, 4, 83, 0
6, 326880, Note_on_c, 4, 86, 105
6, 326880, Note_on_c, 4, 62, 105
6, 327120, Note_on_c, 4, 62, 0
6, 327120, Note_on_c, 4, 62, 105
6, 327300, Note_on_c, 4, 69, 105
6, 327360, Note_on_c, 4, 69, 0
6, 327360, Note_on_c, 4, 62, 0
6, 327360, Note_on_c, 4, 86, 0
6, 327360, Note_on_c, 4, 81, 105
6, 327360, Note_on_c, 4, 50, 105
6, 327600, Note_on_c, 4, 50, 0
6, 327600, Note_on_c, 4, 54, 105
6, 327780, Note_on_c, 4, 74, 105
6, 327840, Note_on_c, 4, 74, 0
6, 327840, Note_on_c, 4, 54, 0
6, 327840, Note_on_c, 4, 81, 0
6, 327840, Note_on_c, 4, 86, 105
6, 327840, Note_on_c, 4, 62, 105
6, 328080, Note_on_c, 4, 62, 0
6, 328080, Note_on_c, 4, 62, 105
6, 328260, Note_on_c, 4, 67, 105
6, 328320, Note_on_c, 4, 67, 0
6, 328320, Note_on_c, 4, 62, 0
6, 328320, Note_on_c, 4, 86, 0
6, 328320, Note_on_c, 4, 79, 105
6, 328320, Note_on_c, 4, 55, 105
6, 328560, Note_on_c, 4, 55, 0
6, 328560, Note_on_c, 4, 59, 105
6, 328740, Note_on_c, 4, 74, 105
6, 328800, Note_on_c, 4, 74, 0
6, 328800, Note_on_c, 4, 59, 0
6, 328800, Note_on_c, 4, 79, 0
6, 328800, Note_on_c, 4, 86, 105
6, 328800, Note_on_c, 4, 62, 105
6, 329040, Note_on_c, 4, 62, 0
6, 329040, Note_on_c, 4, 62, 105
6, 329220, Note_on_c, 4, 69, 105
6, 329280, Note_on_c, 4, 69, 0
6, 329280, Note_on_c, 4, 62, 0
6, 329280, Note_on_c, 4, 86, 0
6, 329280, Note_on_c, 4, 81, 105
6, 329280, Note_on_c, 4, 54, 105
6, 329520, Note_on_c, 4, 54, 0
6, 329520, Note_on_c, 4, 57, 105
6, 329700, Note_on_c, 4, 74, 105
6, 329760, Note_on_c, 4, 74, 0
6, 329760, Note_on_c, 4, 57, 0
6, 329760, Note_on_c, 4, 81, 0
6, 329760, Note_on_c, 4, 86, 105
6, 329760, Note_on_c, 4, 62, 105
6, 330000, Note_on_c, 4, 62, 0
6, 330000, Note_on_c, 4, 62, 105
6, 330180, Note_on_c, 4, 71, 105
6, 330240, Note_on_c, 4, 71, 0
6, 330240, Note_on_c, 4, 62, 0
6, 330240, Note_on_c, 4, 86, 0
6, 330240, Note_on_c, 4, 83, 105
6, 330240, Note_on_c, 4, 55, 105
6, 330480, Note_on_c, 4, 55, 0
6, 330480, Note_on_c, 4, 59, 105
6, 330660, Note_on_c, 4, 74, 105
6, 330720, Note_on_c, 4, 74, 0
6, 330720, Note_on_c, 4, 59, 0
6, 330720, Note_on_c, 4, 83, 0
6, 330720, Note_on_c, 4, 86, 105
6, 330720, Note_on_c, 4, 62, 105
6, 330960, Note_on_c, 4, 62, 0
6, 330960, Note_on_c, 4, 62, 105
6, 331140, Note_on_c, 4, 69, 105
6, 331200, Note_on_c, 4, 69, 0
6, 331200, Note_on_c, 4, 62, 0
6, 331200, Note_on_c, 4, 86, 0
6, 331200, Note_on_c, 4, 81, 105
6, 331200, Note_on_c, 4, 50, 105
6, 331440, Note_on_c, 4, 50, 0
6, 331440, Note_on_c, 4, 54, 105
6, 331620, Note_on_c, 4, 74, 105
6, 331680, Note_on_c, 4, 74, 0
6, 331680, Note_on_c, 4, 54, 0
6, 331680, Note_on_c, 4, 81, 0
6, 331680, Note_on_c, 4, 86, 105
6, 331680, Note_on_c, 4, 62, 105
6, 331920, Note_on_c, 4, 62, 0
6, 331920, Note_on_c, 4, 62, 105
6, 332160, Note_on_c, 4, 62, 0
6, 332160, Note_on_c, 4, 86, 0
6, 332160, Note_on_c, 4, 81, 105
6, 332160, Note_on_c, 4, 55, 105
6, 332160, Note_on_c, 4, 59, 105
6, 332400, Note_on_c, 4, 81, 0
6, 332400, Note_on_c, 4, 79, 105
6, 332640, Note_on_c, 4, 79, 0
6, 332640, Note_on_c, 4, 59, 0
6, 332640, Note_on_c, 4, 55, 0
6, 332640, Note_on_c, 4, 78, 80
6, 332880, Note_on_c, 4, 78, 0
6, 332880, Note_on_c, 4, 79, 80
6, 333120, Note_on_c, 4, 79, 0
6, 333120, Note_on_c, 4, 78, 80
6, 333360, Note_on_c, 4, 78, 0
6, 333360, Note_on_c, 4, 79, 80
6, 333600, Note_on_c, 4, 79, 0
6, 333600, Note_on_c, 4, 81, 80
6, 333840, Note_on_c, 4, 81, 0
6, 333840, Note_on_c, 4, 79, 80
6, 334080, Note_on_c, 4, 79, 0
6, 334080, Note_on_c, 4, 79, 80
6, 334320, Note_on_c, 4, 79, 0
6, 334320, Note_on_c, 4, 77, 80
6, 334560, Note_on_c, 4, 77, 0
6, 334560, Note_on_c, 4, 76, 80
6, 334800, Note_on_c, 4, 76, 0
6, 334800, Note_on_c, 4, 77, 80
6, 335040, Note_on_c, 4, 77, 0
6, 335040, Note_on_c, 4, 76, 80
6, 335280, Note_on_c, 4, 76, 0
6, 335280, Note_on_c, 4, 77, 80
6, 335520, Note_on_c, 4, 77, 0
6, 335520, Note_on_c, 4, 79, 80
6, 335760, Note_on_c, 4, 79, 0
6, 335760, Note_on_c, 4, 77, 80
6, 336000, Note_on_c, 4, 77, 0
6, 336000, Note_on_c, 4, 77, 80
6, 336240, Note_on_c, 4, 77, 0
6, 336240, Note_on_c, 4, 76, 80
6, 336480, Note_on_c, 4, 76, 0
6, 336480, Note_on_c, 4, 75, 80
6, 336720, Note_on_c, 4, 75, 0
6, 336720, Note_on_c, 4, 76, 80
6, 336960, Note_on_c, 4, 76, 0
6, 336960, Note_on_c, 4, 75, 80
6, 337200, Note_on_c, 4, 75, 0
6, 337200, Note_on_c, 4, 76, 80
6, 337440, Note_on_c, 4, 76, 0
6, 337440, Note_on_c, 4, 77, 80
6, 337680, Note_on_c, 4, 77, 0
6, 337680, Note_on_c, 4, 76, 80
6, 337920, Note_on_c, 4, 76, 0
6, 337920, Note_on_c, 4, 76, 80
6, 338160, Note_on_c, 4, 76, 0
6, 338160, Note_on_c, 4, 74, 80
6, 338400, Note_on_c, 4, 74, 0
6, 338400, Note_on_c, 4, 73, 80
6, 338640, Note_on_c, 4, 73, 0
6, 338640, Note_on_c, 4, 74, 80
6, 338880, Note_on_c, 4, 74, 0
6, 338880, Note_on_c, 4, 73, 80
6, 339120, Note_on_c, 4, 73, 0
6, 339120, Note_on_c, 4, 74, 80
6, 339360, Note_on_c, 4, 74, 0
6, 339360, Note_on_c, 4, 76, 80
6, 339600, Note_on_c, 4, 76, 0
6, 339600, Note_on_c, 4, 74, 80
6, 339840, Note_on_c, 4, 74, 0
6, 339840, Note_on_c, 4, 71, 90
6, 340080, Note_on_c, 4, 71, 0
6, 340080, Note_on_c, 4, 74, 90
6, 340320, Note_on_c, 4, 74, 0
6, 340320, Note_on_c, 4, 72, 90
6, 340560, Note_on_c, 4, 72, 0
6, 340560, Note_on_c, 4, 76, 90
6, 340800, Note_on_c, 4, 76, 0
6, 340800, Note_on_c, 4, 74, 90
6, 341280, Note_on_c, 4, 74, 0
6, 341280, Note_on_c, 4, 55, 90
6, 341280, Note_on_c, 4, 67, 90
6, 341760, Note_on_c, 4, 67, 0
6, 341760, Note_on_c, 4, 55, 0
6, 341760, Note_on_c, 4, 71, 80
6, 342000, Note_on_c, 4, 71, 0
6, 342000, Note_on_c, 4, 74, 80
6, 342240, Note_on_c, 4, 74, 0
6, 342240, Note_on_c, 4, 73, 80
6, 342480, Note_on_c, 4, 73, 0
6, 342480, Note_on_c, 4, 76, 80
6, 342720, Note_on_c, 4, 76, 0
6, 342720, Note_on_c, 4, 74, 80
6, 343200, Note_on_c, 4, 74, 0
6, 343200, Note_on_c, 4, 55, 80
6, 343200, Note_on_c, 4, 67, 80
6, 343680, Note_on_c, 4, 67, 0
6, 343680, Note_on_c, 4, 55, 0
6, 343680, Note_on_c, 4, 71, 90
6, 343920, Note_on_c, 4, 71, 0
6, 343920, Note_on_c, 4, 74, 90
6, 344160, Note_on_c, 4, 74, 0
6, 344160, Note_on_c, 4, 72, 90
6, 344400, Note_on_c, 4, 72, 0
6, 344400, Note_on_c, 4, 76, 90
6, 344640, Note_on_c, 4, 76, 0
6, 344640, Note_on_c, 4, 74, 90
6, 344880, Note_on_c, 4, 74, 0
6, 344880, Note_on_c, 4, 76, 90
6, 345120, Note_on_c, 4, 76, 0
6, 345120, Note_on_c, 4, 72, 90
6, 345360, Note_on_c, 4, 72, 0
6, 345360, Note_on_c, 4, 74, 90
6, 345600, Note_on_c, 4, 74, 0
6, 345600, Note_on_c, 4, 71, 80
6, 345840, Note_on_c, 4, 71, 0
6, 345840, Note_on_c, 4, 74, 80
6, 346080, Note_on_c, 4, 74, 0
6, 346080, Note_on_c, 4, 73, 80
6, 346320, Note_on_c, 4, 73, 0
6, 346320, Note_on_c, 4, 76, 80
6, 346560, Note_on_c, 4, 76, 0
6, 346560, Note_on_c, 4, 74, 80
6, 347040, Note_on_c, 4, 74, 0
6, 348480, Note_on_c, 4, 60, 80
6, 348720, Note_on_c, 4, 60, 0
6, 348720, Note_on_c, 4, 55, 80
6, 348960, Note_on_c, 4, 55, 0
6, 348960, Note_on_c, 4, 60, 80
6, 349200, Note_on_c, 4, 60, 0
6, 349200, Note_on_c, 4, 55, 80
6, 349440, Note_on_c, 4, 55, 0
6, 349440, Note_on_c, 4, 60, 80
6, 349440, Note_on_c, 4, 48, 80
6, 349680, Note_on_c, 4, 60, 0
6, 349680, Note_on_c, 4, 64, 80
6, 349920, Note_on_c, 4, 64, 0
6, 349920, Note_on_c, 4, 48, 0
6, 349920, Note_on_c, 4, 67, 80
6, 350160, Note_on_c, 4, 67, 0
6, 350160, Note_on_c, 4, 60, 80
6, 350400, Note_on_c, 4, 60, 0
6, 350400, Note_on_c, 4, 59, 80
6, 350400, Note_on_c, 4, 43, 80
6, 350640, Note_on_c, 4, 59, 0
6, 350640, Note_on_c, 4, 62, 80
6, 350880, Note_on_c, 4, 62, 0
6, 350880, Note_on_c, 4, 43, 0
6, 350880, Note_on_c, 4, 67, 80
6, 351120, Note_on_c, 4, 67, 0
6, 351120, Note_on_c, 4, 62, 80
6, 351360, Note_on_c, 4, 62, 0
6, 351360, Note_on_c, 4, 64, 80
6, 351360, Note_on_c, 4, 36, 80
6, 351600, Note_on_c, 4, 64, 0
6, 351600, Note_on_c, 4, 67, 80
6, 351840, Note_on_c, 4, 67, 0
6, 351840, Note_on_c, 4, 36, 0
6, 351840, Note_on_c, 4, 72, 80
6, 352080, Note_on_c, 4, 72, 0
6, 352080, Note_on_c, 4, 67, 80
6, 352320, Note_on_c, 4, 67, 0
6, 352320, Note_on_c, 4, 64, 80
6, 352560, Note_on_c, 4, 64, 0
6, 352560, Note_on_c, 4, 60, 80
6, 352800, Note_on_c, 4, 60, 0
6, 352800, Note_on_c, 4, 64, 80
6, 353040, Note_on_c, 4, 64, 0
6, 353040, Note_on_c, 4, 60, 80
6, 353280, Note_on_c, 4, 60, 0
6, 353280, Note_on_c, 4, 65, 80
6, 353280, Note_on_c, 4, 48, 80
6, 353520, Note_on_c, 4, 65, 0
6, 353520, Note_on_c, 4, 60, 80
6, 353760, Note_on_c, 4, 60, 0
6, 353760, Note_on_c, 4, 48, 0
6, 353760, Note_on_c, 4, 64, 80
6, 354000, Note_on_c, 4, 64, 0
6, 354000, Note_on_c, 4, 60, 80
6, 354240, Note_on_c, 4, 60, 0
6, 354240, Note_on_c, 4, 64, 80
6, 354480, Note_on_c, 4, 64, 0
6, 354480, Note_on_c, 4, 60, 80
6, 354720, Note_on_c, 4, 60, 0
6, 354720, Note_on_c, 4, 64, 80
6, 354960, Note_on_c, 4, 64, 0
6, 354960, Note_on_c, 4, 60, 80
6, 355200, Note_on_c, 4, 60, 0
6, 355200, Note_on_c, 4, 65, 80
6, 355200, Note_on_c, 4, 48, 80
6, 355440, Note_on_c, 4, 65, 0
6, 355440, Note_on_c, 4, 60, 80
6, 355680, Note_on_c, 4, 60, 0
6, 355680, Note_on_c, 4, 48, 0
6, 355680, Note_on_c, 4, 64, 80
6, 355920, Note_on_c, 4, 64, 0
6, 355920, Note_on_c, 4, 60, 80
6, 356160, Note_on_c, 4, 60, 0
6, 356160, Note_on_c, 4, 64, 90
6, 356400, Note_on_c, 4, 64, 0
6, 356400, Note_on_c, 4, 65, 90
6, 356640, Note_on_c, 4, 65, 0
6, 356640, Note_on_c, 4, 67, 90
6, 356880, Note_on_c, 4, 67, 0
6, 356880, Note_on_c, 4, 64, 90
6, 357120, Note_on_c, 4, 64, 0
6, 357120, Note_on_c, 4, 60, 90
6, 357120, Note_on_c, 4, 52, 80
6, 357360, Note_on_c, 4, 60, 0
6, 357360, Note_on_c, 4, 64, 90
6, 357600, Note_on_c, 4, 64, 0
6, 357600, Note_on_c, 4, 52, 0
6, 357600, Note_on_c, 4, 67, 90
6, 357840, Note_on_c, 4, 67, 0
6, 357840, Note_on_c, 4, 72, 90
6, 358080, Note_on_c, 4, 72, 0
6, 358080, Note_on_c, 4, 59, 90
6, 358080, Note_on_c, 4, 55, 80
6, 358320, Note_on_c, 4, 59, 0
6, 358320, Note_on_c, 4, 62, 90
6, 358560, Note_on_c, 4, 62, 0
6, 358560, Note_on_c, 4, 55, 0
6, 358560, Note_on_c, 4, 67, 90
6, 358800, Note_on_c, 4, 67, 0
6, 358800, Note_on_c, 4, 71, 90
6, 359040, Note_on_c, 4, 71, 0
6, 359040, Note_on_c, 4, 60, 90
6, 359040, Note_on_c, 4, 48, 80
6, 359280, Note_on_c, 4, 60, 0
6, 359280, Note_on_c, 4, 64, 90
6, 359520, Note_on_c, 4, 64, 0
6, 359520, Note_on_c, 4, 48, 0
6, 359520, Note_on_c, 4, 67, 90
6, 359760, Note_on_c, 4, 67, 0
6, 359760, Note_on_c, 4, 72, 90
6, 360000, Note_on_c, 4, 72, 0
6, 360000, Note_on_c, 4, 62, 90
6, 360000, Note_on_c, 4, 43, 80
6, 360240, Note_on_c, 4, 62, 0
6, 360240, Note_on_c, 4, 67, 90
6, 360480, Note_on_c, 4, 67, 0
6, 360480, Note_on_c, 4, 43, 0
6, 360480, Note_on_c, 4, 71, 90
6, 360720, Note_on_c, 4, 71, 0
6, 360720, Note_on_c, 4, 74, 90
6, 360960, Note_on_c, 4, 74, 0
6, 360960, Note_on_c, 4, 64, 90
6, 360960, Note_on_c, 4, 48, 80
6, 361200, Note_on_c, 4, 64, 0
6, 361200, Note_on_c, 4, 67, 90
6, 361440, Note_on_c, 4, 67, 0
6, 361440, Note_on_c, 4, 48, 0
6, 361440, Note_on_c, 4, 72, 90
6, 361680, Note_on_c, 4, 72, 0
6, 361680, Note_on_c, 4, 76, 90
6, 361920, Note_on_c, 4, 76, 0
6, 361920, Note_on_c, 4, 77, 90
6, 361920, Note_on_c, 4, 60, 80
6, 362160, Note_on_c, 4, 77, 0
6, 362160, Note_on_c, 4, 76, 90
6, 362400, Note_on_c, 4, 76, 0
6, 362400, Note_on_c, 4, 60, 0
6, 362400, Note_on_c, 4, 74, 90
6, 362640, Note_on_c, 4, 74, 0
6, 362640, Note_on_c, 4, 72, 90
6, 362880, Note_on_c, 4, 72, 0
6, 362880, Note_on_c, 4, 67, 90
6, 362880, Note_on_c, 4, 55, 80
6, 363120, Note_on_c, 4, 67, 0
6, 363120, Note_on_c, 4, 72, 90
6, 363360, Note_on_c, 4, 72, 0
6, 363360, Note_on_c, 4, 71, 90
6, 363600, Note_on_c, 4, 71, 0
6, 363600, Note_on_c, 4, 69, 90
6, 363840, Note_on_c, 4, 69, 0
6, 363840, Note_on_c, 4, 55, 0
6, 363840, Note_on_c, 4, 67, 90
6, 364080, Note_on_c, 4, 67, 0
6, 364080, Note_on_c, 4, 65, 90
6, 364320, Note_on_c, 4, 65, 0
6, 364320, Note_on_c, 4, 64, 90
6, 364560, Note_on_c, 4, 64, 0
6, 364560, Note_on_c, 4, 62, 90
6, 364800, Note_on_c, 4, 62, 0
6, 364800, Note_on_c, 4, 60, 90
6, 365280, Note_on_c, 4, 60, 0
6, 430080, Note_on_c, 4, 69, 90
6, 430080, Note_on_c, 4, 65, 80
6, 430320, Note_on_c, 4, 65, 0
6, 430320, Note_on_c, 4, 69, 0
6, 430320, Note_on_c, 4, 65, 90
6, 430320, Note_on_c, 4, 60, 80
6, 430560, Note_on_c, 4, 60, 0
6, 430560, Note_on_c, 4, 65, 0
6, 430560, Note_on_c, 4, 69, 90
6, 430560, Note_on_c, 4, 65, 80
6, 430800, Note_on_c, 4, 65, 0
6, 430800, Note_on_c, 4, 69, 0
6, 430800, Note_on_c, 4, 70, 90
6, 430800, Note_on_c, 4, 67, 80
6, 431040, Note_on_c, 4, 67, 0
6, 431040, Note_on_c, 4, 70, 0
6, 431040, Note_on_c, 4, 72, 90
6, 431040, Note_on_c, 4, 69, 80
6, 431280, Note_on_c, 4, 69, 0
6, 431280, Note_on_c, 4, 72, 0
6, 431280, Note_on_c, 4, 69, 90
6, 431280, Note_on_c, 4, 65, 80
6, 431520, Note_on_c, 4, 65, 0
6, 431520, Note_on_c, 4, 69, 0
6, 431520, Note_on_c, 4, 70, 90
6, 431520, Note_on_c, 4, 67, 80
6, 431760, Note_on_c, 4, 67, 0
6, 431760, Note_on_c, 4, 70, 0
6, 431760, Note_on_c, 4, 67, 90
6, 431760, Note_on_c, 4, 64, 80
6, 432000, Note_on_c, 4, 64, 0
6, 432000, Note_on_c, 4, 67, 0
6, 432000, Note_on_c, 4, 69, 90
6, 432000, Note_on_c, 4, 65, 80
6, 432240, Note_on_c, 4, 65, 0
6, 432240, Note_on_c, 4, 69, 0
6, 432240, Note_on_c, 4, 65, 90
6, 432240, Note_on_c, 4, 60, 80
6, 432480, Note_on_c, 4, 60, 0
6, 432480, Note_on_c, 4, 65, 0
6, 432480, Note_on_c, 4, 69, 90
6, 432480, Note_on_c, 4, 65, 80
6, 432720, Note_on_c, 4, 65, 0
6, 432720, Note_on_c, 4, 69, 0
6, 432720, Note_on_c, 4, 70, 90
6, 432720, Note_on_c, 4, 67, 80
6, 432960, Note_on_c, 4, 67, 0
6, 432960, Note_on_c, 4, 70, 0
6, 432960, Note_on_c, 4, 72, 90
6, 432960, Note_on_c, 4, 69, 80
6, 433200, Note_on_c, 4, 69, 0
6, 433200, Note_on_c, 4, 72, 0
6, 433200, Note_on_c, 4, 69, 90
6, 433200, Note_on_c, 4, 65, 80
6, 433440, Note_on_c, 4, 65, 0
6, 433440, Note_on_c, 4, 69, 0
6, 433440, Note_on_c, 4, 70, 90
6, 433440, Note_on_c, 4, 67, 80
6, 433680, Note_on_c, 4, 67, 0
6, 433680, Note_on_c, 4, 70, 0
6, 433680, Note_on_c, 4, 67, 90
6, 433680, Note_on_c, 4, 64, 80
6, 433920, Note_on_c, 4, 64, 0
6, 433920, Note_on_c, 4, 67, 0
6, 433920, Note_on_c, 4, 69, 90
6, 433920, Note_on_c, 4, 65, 80
6, 434160, Note_on_c, 4, 65, 0
6, 434160, Note_on_c, 4, 69, 0
6, 434160, Note_on_c, 4, 65, 90
6, 434160, Note_on_c, 4, 60, 80
6, 434400, Note_on_c, 4, 60, 0
6, 434400, Note_on_c, 4, 65, 0
6, 434400, Note_on_c, 4, 69, 90
6, 434400, Note_on_c, 4, 65, 80
6, 434640, Note_on_c, 4, 65, 0
6, 434640, Note_on_c, 4, 69, 0
6, 434640, Note_on_c, 4, 70, 90
6, 434640, Note_on_c, 4, 67, 80
6, 434880, Note_on_c, 4, 67, 0
6, 434880, Note_on_c, 4, 70, 0
6, 434880, Note_on_c, 4, 72, 90
6, 434880, Note_on_c, 4, 69, 80
6, 435120, Note_on_c, 4, 69, 0
6, 435120, Note_on_c, 4, 72, 0
6, 435120, Note_on_c, 4, 69, 90
6, 435120, Note_on_c, 4, 65, 80
6, 435360, Note_on_c, 4, 65, 0
6, 435360, Note_on_c, 4, 69, 0
6, 435360, Note_on_c, 4, 70, 90
6, 435360, Note_on_c, 4, 67, 80
6, 435600, Note_on_c, 4, 67, 0
6, 435600, Note_on_c, 4, 70, 0
6, 435600, Note_on_c, 4, 67, 90
6, 435600, Note_on_c, 4, 64, 80
6, 435840, Note_on_c, 4, 64, 0
6, 435840, Note_on_c, 4, 67, 0
6, 435840, Note_on_c, 4, 65, 80
6, 436080, Note_on_c, 4, 65, 0
6, 436080, Note_on_c, 4, 65, 90
6, 436320, Note_on_c, 4, 65, 0
6, 436320, Note_on_c, 4, 69, 90
6, 436560, Note_on_c, 4, 69, 0
6, 436560, Note_on_c, 4, 65, 90
6, 436800, Note_on_c, 4, 65, 0
6, 436800, Note_on_c, 4, 72, 90
6, 437040, Note_on_c, 4, 72, 0
6, 437040, Note_on_c, 4, 69, 90
6, 437280, Note_on_c, 4, 69, 0
6, 437280, Note_on_c, 4, 72, 90
6, 437520, Note_on_c, 4, 72, 0
6, 437520, Note_on_c, 4, 69, 90
6, 437760, Note_on_c, 4, 69, 0
6, 437760, Note_on_c, 4, 77, 90
6, 437760, Note_on_c, 4, 65, 80
6, 438000, Note_on_c, 4, 65, 0
6, 438000, Note_on_c, 4, 77, 0
6, 438000, Note_on_c, 4, 76, 90
6, 438000, Note_on_c, 4, 72, 80
6, 438240, Note_on_c, 4, 72, 0
6, 438240, Note_on_c, 4, 76, 0
6, 438240, Note_on_c, 4, 77, 90
6, 438240, Note_on_c, 4, 69, 80
6, 438480, Note_on_c, 4, 69, 0
6, 438480, Note_on_c, 4, 77, 0
6, 438480, Note_on_c, 4, 76, 90
6, 438480, Note_on_c, 4, 72, 80
6, 438720, Note_on_c, 4, 72, 0
6, 438720, Note_on_c, 4, 76, 0
6, 438720, Note_on_c, 4, 77, 90
6, 438720, Note_on_c, 4, 65, 80
6, 438960, Note_on_c, 4, 65, 0
6, 438960, Note_on_c, 4, 72, 80
6, 439200, Note_on_c, 4, 72, 0
6, 439200, Note_on_c, 4, 77, 0
6, 439200, Note_on_c, 4, 81, 90
6, 439200, Note_on_c, 4, 69, 80
6, 439440, Note_on_c, 4, 69, 0
6, 439440, Note_on_c, 4, 72, 80
6, 439680, Note_on_c, 4, 72, 0
6, 439680, Note_on_c, 4, 81, 0
6, 439680, Note_on_c, 4, 81, 90
6, 439680, Note_on_c, 4, 64, 80
6, 439920, Note_on_c, 4, 64, 0
6, 439920, Note_on_c, 4, 81, 0
6, 439920, Note_on_c, 4, 79, 90
6, 439920, Note_on_c, 4, 73, 80
6, 440160, Note_on_c, 4, 73, 0
6, 440160, Note_on_c, 4, 79, 0
6, 440160, Note_on_c, 4, 79, 90
6, 440160, Note_on_c, 4, 69, 80
6, 440400, Note_on_c, 4, 69, 0
6, 440400, Note_on_c, 4, 79, 0
6, 440400, Note_on_c, 4, 78, 90
6, 440400, Note_on_c, 4, 73, 80
6, 440640, Note_on_c, 4, 73, 0
6, 440640, Note_on_c, 4, 78, 0
6, 440640, Note_on_c, 4, 79, 90
6, 440640, Note_on_c, 4, 64, 80
6, 440880, Note_on_c, 4, 64, 0
6, 440880, Note_on_c, 4, 73, 80
6, 441120, Note_on_c, 4, 73, 0
6, 441120, Note_on_c, 4, 79, 0
6, 441120, Note_on_c, 4, 69, 80
6, 441360, Note_on_c, 4, 69, 0
6, 441360, Note_on_c, 4, 73, 80
6, 441600, Note_on_c, 4, 73, 0
6, 441600, Note_on_c, 4, 88, 90
6, 441600, Note_on_c, 4, 61, 80
6, 441840, Note_on_c, 4, 61, 0
6, 441840, Note_on_c, 4, 88, 0
6, 441840, Note_on_c, 4, 87, 90
6, 441840, Note_on_c, 4, 69, 80
6, 442080, Note_on_c, 4, 69, 0
6, 442080, Note_on_c, 4, 87, 0
6, 442080, Note_on_c, 4, 88, 90
6, 442080, Note_on_c, 4, 64, 80
6, 442320, Note_on_c, 4, 64, 0
6, 442320, Note_on_c, 4, 88, 0
6, 442320, Note_on_c, 4, 87, 90
6, 442320, Note_on_c, 4, 69, 80
6, 442560, Note_on_c, 4, 69, 0
6, 442560, Note_on_c, 4, 87, 0
6, 442560, Note_on_c, 4, 88, 90
6, 442560, Note_on_c, 4, 61, 80
6, 442800, Note_on_c, 4, 61, 0
6, 442800, Note_on_c, 4, 69, 80
6, 443040, Note_on_c, 4, 69, 0
6, 443040, Note_on_c, 4, 88, 0
6, 443040, Note_on_c, 4, 76, 90
6, 443040, Note_on_c, 4, 64, 80
6, 443280, Note_on_c, 4, 64, 0
6, 443280, Note_on_c, 4, 69, 80
6, 443520, Note_on_c, 4, 69, 0
6, 443520, Note_on_c, 4, 76, 0
6, 443520, Note_on_c, 4, 79, 90
6, 443520, Note_on_c, 4, 62, 80
6, 443760, Note_on_c, 4, 62, 0
6, 443760, Note_on_c, 4, 79, 0
6, 443760, Note_on_c, 4, 77, 90
6, 443760, Note_on_c, 4, 69, 80
6, 444000, Note_on_c, 4, 69, 0
6, 444000, Note_on_c, 4, 77, 0
6, 444000, Note_on_c, 4, 77, 90
6, 444000, Note_on_c, 4, 65, 80
6, 444240, Note_on_c, 4, 65, 0
6, 444240, Note_on_c, 4, 77, 0
6, 444240, Note_on_c, 4, 76, 90
6, 444240, Note_on_c, 4, 69, 80
6, 444480, Note_on_c, 4, 69, 0
6, 444480, Note_on_c, 4, 76, 0
6, 444480, Note_on_c, 4, 77, 90
6, 444480, Note_on_c, 4, 62, 80
6, 444720, Note_on_c, 4, 62, 0
6, 444720, Note_on_c, 4, 69, 80
6, 444960, Note_on_c, 4, 69, 0
6, 444960, Note_on_c, 4, 77, 0
6, 444960, Note_on_c, 4, 65, 80
6, 445200, Note_on_c, 4, 65, 0
6, 445200, Note_on_c, 4, 69, 80
6, 445440, Note_on_c, 4, 69, 0
6, 445440, Note_on_c, 4, 77, 90
6, 445440, Note_on_c, 4, 62, 80
6, 445680, Note_on_c, 4, 62, 0
6, 445680, Note_on_c, 4, 77, 0
6, 445680, Note_on_c, 4, 76, 90
6, 445680, Note_on_c, 4, 69, 80
6, 445920, Note_on_c, 4, 69, 0
6, 445920, Note_on_c, 4, 76, 0
6, 445920, Note_on_c, 4, 77, 90
6, 445920, Note_on_c, 4, 65, 80
6, 446160, Note_on_c, 4, 65, 0
6, 446160, Note_on_c, 4, 77, 0
6, 446160, Note_on_c, 4, 76, 90
6, 446160, Note_on_c, 4, 69, 80
6, 446400, Note_on_c, 4, 69, 0
6, 446400, Note_on_c, 4, 76, 0
6, 446400, Note_on_c, 4, 77, 90
6, 446400, Note_on_c, 4, 60, 80
6, 446640, Note_on_c, 4, 60, 0
6, 446640, Note_on_c, 4, 68, 80
6, 446880, Note_on_c, 4, 68, 0
6, 446880, Note_on_c, 4, 77, 0
6, 446880, Note_on_c, 4, 77, 90
6, 446880, Note_on_c, 4, 62, 80
6, 447120, Note_on_c, 4, 62, 0
6, 447120, Note_on_c, 4, 68, 80
6, 447300, Note_on_c, 4, 77, 90
6, 447360, Note_on_c, 4, 77, 0
6, 447360, Note_on_c, 4, 68, 0
6, 447360, Note_on_c, 4, 77, 0
6, 447360, Note_on_c, 4, 89, 90
6, 447360, Note_on_c, 4, 59, 80
6, 447600, Note_on_c, 4, 59, 0
6, 447600, Note_on_c, 4, 67, 80
6, 447840, Note_on_c, 4, 67, 0
6, 447840, Note_on_c, 4, 89, 0
6, 447840, Note_on_c, 4, 89, 90
6, 447840, Note_on_c, 4, 62, 80
6, 448080, Note_on_c, 4, 62, 0
6, 448080, Note_on_c, 4, 89, 0
6, 448080, Note_on_c, 4, 88, 90
6, 448080, Note_on_c, 4, 67, 80
6, 448320, Note_on_c, 4, 67, 0
6, 448320, Note_on_c, 4, 88, 0
6, 448320, Note_on_c, 4, 89, 90
6, 448320, Note_on_c, 4, 59, 80
6, 448560, Note_on_c, 4, 59, 0
6, 448560, Note_on_c, 4, 67, 80
6, 448800, Note_on_c, 4, 67, 0
6, 448800, Note_on_c, 4, 89, 0
6, 448800, Note_on_c, 4, 62, 80
6, 449040, Note_on_c, 4, 62, 0
6, 449040, Note_on_c, 4, 67, 80
6, 449280, Note_on_c, 4, 67, 0
6, 449280, Note_on_c, 4, 89, 90
6, 449280, Note_on_c, 4, 59, 80
6, 449280, Note_on_c, 4, 67, 80
6, 449520, Note_on_c, 4, 89, 0
6, 449520, Note_on_c, 4, 88, 90
6, 449760, Note_on_c, 4, 88, 0
6, 449760, Note_on_c, 4, 86, 90
6, 450000, Note_on_c, 4, 86, 0
6, 450000, Note_on_c, 4, 84, 90
6, 450240, Note_on_c, 4, 84, 0
6, 450240, Note_on_c, 4, 67, 0
6, 450240, Note_on_c, 4, 59, 0
6, 450240, Note_on_c, 4, 83, 90
6, 450480, Note_on_c, 4, 83, 0
6, 450480, Note_on_c, 4, 81, 90
6, 450720, Note_on_c, 4, 81, 0
6, 450720, Note_on_c, 4, 79, 90
6, 450720, Note_on_c, 4, 59, 80
6, 450720, Note_on_c, 4, 67, 80
6, 450960, Note_on_c, 4, 79, 0
6, 450960, Note_on_c, 4, 77, 90
6, 451200, Note_on_c, 4, 77, 0
6, 451200, Note_on_c, 4, 67, 0
6, 451200, Note_on_c, 4, 59, 0
6, 451200, Note_on_c, 4, 76, 90
6, 451200, Note_on_c, 4, 60, 80
6, 451200, Note_on_c, 4, 67, 80
6, 451440, Note_on_c, 4, 76, 0
6, 451440, Note_on_c, 4, 77, 90
6, 451680, Note_on_c, 4, 77, 0
6, 451680, Note_on_c, 4, 79, 90
6, 451920, Note_on_c, 4, 79, 0
6, 451920, Note_on_c, 4, 81, 90
6, 452160, Note_on_c, 4, 81, 0
6, 452160, Note_on_c, 4, 67, 0
6, 452160, Note_on_c, 4, 60, 0
6, 452160, Note_on_c, 4, 83, 90
6, 452400, Note_on_c, 4, 83, 0
6, 452400, Note_on_c, 4, 84, 90
6, 452640, Note_on_c, 4, 84, 0
6, 452640, Note_on_c, 4, 86, 90
6, 452640, Note_on_c, 4, 60, 80
6, 452640, Note_on_c, 4, 67, 80
6, 452880, Note_on_c, 4, 86, 0
6, 452880, Note_on_c, 4, 88, 90
6, 453120, Note_on_c, 4, 88, 0
6, 453120, Note_on_c, 4, 67, 0
6, 453120, Note_on_c, 4, 60, 0
6, 453120, Note_on_c, 4, 89, 90
6, 453120, Note_on_c, 4, 59, 80
6, 453120, Note_on_c, 4, 67, 80
6, 453360, Note_on_c, 4, 89, 0
6, 453360, Note_on_c, 4, 88, 90
6, 453600, Note_on_c, 4, 88, 0
6, 453600, Note_on_c, 4, 86, 90
6, 453840, Note_on_c, 4, 86, 0
6, 453840, Note_on_c, 4, 84, 90
6, 454080, Note_on_c, 4, 84, 0
6, 454080, Note_on_c, 4, 67, 0
6, 454080, Note_on_c, 4, 59, 0
6, 454080, Note_on_c, 4, 83, 90
6, 454320, Note_on_c, 4, 83, 0
6, 454320, Note_on_c, 4, 81, 90
6, 454560, Note_on_c, 4, 81, 0
6, 454560, Note_on_c, 4, 79, 90
6, 454560, Note_on_c, 4, 59, 80
6, 454560, Note_on_c, 4, 67, 80
6, 454800, Note_on_c, 4, 79, 0
6, 454800, Note_on_c, 4, 77, 90
6, 455040, Note_on_c, 4, 77, 0
6, 455040, Note_on_c, 4, 67, 0
6, 455040, Note_on_c, 4, 59, 0
6, 455040, Note_on_c, 4, 76, 90
6, 455040, Note_on_c, 4, 60, 80
6, 455040, Note_on_c, 4, 67, 80
6, 455280, Note_on_c, 4, 76, 0
6, 455280, Note_on_c, 4, 77, 90
6, 455520, Note_on_c, 4, 77, 0
6, 455520, Note_on_c, 4, 79, 90
6, 455760, Note_on_c, 4, 79, 0
6, 455760, Note_on_c, 4, 81, 90
6, 456000, Note_on_c, 4, 81, 0
6, 456000, Note_on_c, 4, 67, 0
6, 456000, Note_on_c, 4, 60, 0
6, 456000, Note_on_c, 4, 83, 90
6, 456240, Note_on_c, 4, 83, 0
6, 456240, Note_on_c, 4, 84, 90
6, 456480, Note_on_c, 4, 84, 0
6, 456480, Note_on_c, 4, 86, 90
6, 456480, Note_on_c, 4, 60, 80
6, 456480, Note_on_c, 4, 67, 80
6, 456720, Note_on_c, 4, 86, 0
6, 456720, Note_on_c, 4, 88, 90
6, 456960, Note_on_c, 4, 88, 0
6, 456960, Note_on_c, 4, 67, 0
6, 456960, Note_on_c, 4, 60, 0
6, 456960, Note_on_c, 4, 86, 90
6, 456960, Note_on_c, 4, 56, 80
6, 456960, Note_on_c, 4, 64, 80
6, 457200, Note_on_c, 4, 86, 0
6, 457200, Note_on_c, 4, 84, 90
6, 457440, Note_on_c, 4, 84, 0
6, 457440, Note_on_c, 4, 83, 90
6, 457680, Note_on_c, 4, 83, 0
6, 457680, Note_on_c, 4, 81, 90
6, 457920, Note_on_c, 4, 81, 0
6, 457920, Note_on_c, 4, 64, 0
6, 457920, Note_on_c, 4, 56, 0
6, 457920, Note_on_c, 4, 80, 90
6, 458160, Note_on_c, 4, 80, 0
6, 458160, Note_on_c, 4, 77, 90
6, 458400, Note_on_c, 4, 77, 0
6, 458400, Note_on_c, 4, 76, 90
6, 458400, Note_on_c, 4, 56, 80
6, 458400, Note_on_c, 4, 64, 80
6, 458640, Note_on_c, 4, 76, 0
6, 458640, Note_on_c, 4, 74, 90
6, 458880, Note_on_c, 4, 74, 0
6, 458880, Note_on_c, 4, 64, 0
6, 458880, Note_on_c, 4, 56, 0
6, 458880, Note_on_c, 4, 72, 90
6, 458880, Note_on_c, 4, 57, 80
6, 458880, Note_on_c, 4, 64, 80
6, 459120, Note_on_c, 4, 72, 0
6, 459120, Note_on_c, 4, 74, 90
6, 459360, Note_on_c, 4, 74, 0
6, 459360, Note_on_c, 4, 76, 90
6, 459600, Note_on_c, 4, 76, 0
6, 459600, Note_on_c, 4, 77, 90
6, 459840, Note_on_c, 4, 77, 0
6, 459840, Note_on_c, 4, 64, 0
6, 459840, Note_on_c, 4, 57, 0
6, 459840, Note_on_c, 4, 80, 90
6, 460080, Note_on_c, 4, 80, 0
6, 460080, Note_on_c, 4, 81, 90
6, 460320, Note_on_c, 4, 81, 0
6, 460320, Note_on_c, 4, 83, 90
6, 460320, Note_on_c, 4, 57, 80
6, 460320, Note_on_c, 4, 64, 80
6, 460560, Note_on_c, 4, 83, 0
6, 460560, Note_on_c, 4, 84, 90
6, 460800, Note_on_c, 4, 84, 0
6, 460800, Note_on_c, 4, 64, 0
6, 460800, Note_on_c, 4, 57, 0
6, 460800, Note_on_c, 4, 82, 90
6, 460800, Note_on_c, 4, 52, 80
6, 460800, Note_on_c, 4, 60, 80
6, 461040, Note_on_c, 4, 82, 0
6, 461040, Note_on_c, 4, 81, 90
6, 461280, Note_on_c, 4, 81, 0
6, 461280, Note_on_c, 4, 79, 90
6, 461520, Note_on_c, 4, 79, 0
6, 461520, Note_on_c, 4, 77, 90
6, 461760, Note_on_c, 4, 77, 0
6, 461760, Note_on_c, 4, 60, 0
6, 461760, Note_on_c, 4, 52, 0
6, 461760, Note_on_c, 4, 76, 90
6, 462000, Note_on_c, 4, 76, 0
6, 462000, Note_on_c, 4, 74, 90
6, 462240, Note_on_c, 4, 74, 0
6, 462240, Note_on_c, 4, 72, 90
6, 462240, Note_on_c, 4, 52, 80
6, 462240, Note_on_c, 4, 60, 80
6, 462480, Note_on_c, 4, 72, 0
6, 462480, Note_on_c, 4, 70, 90
6, 462720, Note_on_c, 4, 70, 0
6, 462720, Note_on_c, 4, 60, 0
6, 462720, Note_on_c, 4, 52, 0
6, 462720, Note_on_c, 4, 69, 90
6, 462720, Note_on_c, 4, 53, 80
6, 462720, Note_on_c, 4, 60, 80
6, 462960, Note_on_c, 4, 69, 0
6, 462960, Note_on_c, 4, 74, 90
6, 463200, Note_on_c, 4, 74, 0
6, 463200, Note_on_c, 4, 60, 0
6, 463200, Note_on_c, 4, 53, 0
6, 463200, Note_on_c, 4, 73, 90
6, 463440, Note_on_c, 4, 73, 0
6, 463440, Note_on_c, 4, 76, 90
6, 463680, Note_on_c, 4, 76, 0
6, 463680, Note_on_c, 4, 74, 90
6, 463920, Note_on_c, 4, 74, 0
6, 463920, Note_on_c, 4, 77, 90
6, 464160, Note_on_c, 4, 77, 0
6, 464160, Note_on_c, 4, 76, 90
6, 464400, Note_on_c, 4, 76, 0
6, 464400, Note_on_c, 4, 79, 90
6, 464640, Note_on_c, 4, 79, 0
6, 464640, Note_on_c, 4, 77, 90
6, 464880, Note_on_c, 4, 77, 0
6, 464880, Note_on_c, 4, 81, 90
6, 465120, Note_on_c, 4, 81, 0
6, 465120, Note_on_c, 4, 79, 90
6, 465360, Note_on_c, 4, 79, 0
6, 465360, Note_on_c, 4, 82, 90
6, 465600, Note_on_c, 4, 82, 0
6, 465600, Note_on_c, 4, 81, 90
6, 465600, Note_on_c, 4, 53, 80
6, 465840, Note_on_c, 4, 81, 0
6, 465840, Note_on_c, 4, 77, 90
6, 466080, Note_on_c, 4, 77, 0
6, 466080, Note_on_c, 4, 53, 0
6, 466080, Note_on_c, 4, 74, 90
6, 466080, Note_on_c, 4, 54, 80
6, 466320, Note_on_c, 4, 74, 0
6, 466320, Note_on_c, 4, 72, 90
6, 466560, Note_on_c, 4, 72, 0
6, 466560, Note_on_c, 4, 54, 0
6, 466560, Note_on_c, 4, 71, 90
6, 466560, Note_on_c, 4, 74, 90
6, 466560, Note_on_c, 4, 79, 90
6, 466560, Note_on_c, 4, 55, 80
6, 467040, Note_on_c, 4, 55, 0
6, 467040, Note_on_c, 4, 71, 0
6, 467040, Note_on_c, 4, 74, 0
6, 467040, Note_on_c, 4, 79, 0
6, 471360, Note_on_c, 4, 72, 90
6, 471360, Note_on_c, 4, 75, 90
6, 471360, Note_on_c, 4, 60, 80
6, 471360, Note_on_c, 4, 63, 80
6, 471840, Note_on_c, 4, 63, 0
6, 471840, Note_on_c, 4, 72, 0
6, 471840, Note_on_c, 4, 75, 0
6, 471840, Note_on_c, 4, 60, 0
6, 471840, Note_on_c, 4, 72, 90
6, 471840, Note_on_c, 4, 75, 90
6, 471840, Note_on_c, 4, 60, 80
6, 471840, Note_on_c, 4, 63, 80
6, 472320, Note_on_c, 4, 63, 0
6, 472320, Note_on_c, 4, 72, 0
6, 472320, Note_on_c, 4, 75, 0
6, 472320, Note_on_c, 4, 60, 0
6, 472320, Note_on_c, 4, 72, 90
6, 472320, Note_on_c, 4, 75, 90
6, 472320, Note_on_c, 4, 60, 80
6, 472320, Note_on_c, 4, 63, 80
6, 473280, Note_on_c, 4, 63, 0
6, 473280, Note_on_c, 4, 72, 0
6, 473280, Note_on_c, 4, 75, 0
6, 473280, Note_on_c, 4, 60, 0
6, 473280, Note_on_c, 4, 79, 90
6, 473280, Note_on_c, 4, 67, 80
6, 473520, Note_on_c, 4, 67, 0
6, 473520, Note_on_c, 4, 79, 0
6, 473520, Note_on_c, 4, 74, 90
6, 473520, Note_on_c, 4, 77, 90
6, 473520, Note_on_c, 4, 62, 80
6, 473520, Note_on_c, 4, 65, 80
6, 473760, Note_on_c, 4, 65, 0
6, 473760, Note_on_c, 4, 74, 0
6, 473760, Note_on_c, 4, 77, 0
6, 473760, Note_on_c, 4, 62, 0
6, 473760, Note_on_c, 4, 72, 90
6, 473760, Note_on_c, 4, 75, 90
6, 473760, Note_on_c, 4, 60, 80
6, 473760, Note_on_c, 4, 63, 80
6, 474000, Note_on_c, 4, 63, 0
6, 474000, Note_on_c, 4, 72, 0
6, 474000, Note_on_c, 4, 75, 0
6, 474000, Note_on_c, 4, 60, 0
6, 474000, Note_on_c, 4, 74, 90
6, 474000, Note_on_c, 4, 77, 90
6, 474000, Note_on_c, 4, 62, 80
6, 474000, Note_on_c, 4, 65, 80
6, 474240, Note_on_c, 4, 65, 0
6, 474240, Note_on_c, 4, 74, 0
6, 474240, Note_on_c, 4, 77, 0
6, 474240, Note_on_c, 4, 62, 0
6, 474240, Note_on_c, 4, 75, 90
6, 474240, Note_on_c, 4, 79, 90
6, 474240, Note_on_c, 4, 63, 80
6, 474240, Note_on_c, 4, 67, 80
6, 474480, Note_on_c, 4, 67, 0
6, 474480, Note_on_c, 4, 75, 0
6, 474480, Note_on_c, 4, 79, 0
6, 474480, Note_on_c, 4, 63, 0
6, 474480, Note_on_c, 4, 75, 90
6, 474480, Note_on_c, 4, 63, 80
6, 474720, Note_on_c, 4, 63, 0
6, 474720, Note_on_c, 4, 75, 0
6, 474720, Note_on_c, 4, 72, 90
6, 474720, Note_on_c, 4, 60, 80
6, 475200, Note_on_c, 4, 60, 0
6, 475200, Note_on_c, 4, 72, 0
6, 475200, Note_on_c, 4, 71, 90
6, 475200, Note_on_c, 4, 74, 90
6, 475200, Note_on_c, 4, 59, 80
6, 475200, Note_on_c, 4, 62, 80
6, 475680, Note_on_c, 4, 62, 0
6, 475680, Note_on_c, 4, 71, 0
6, 475680, Note_on_c, 4, 74, 0
6, 475680, Note_on_c, 4, 59, 0
6, 475680, Note_on_c, 4, 71, 90
6, 475680, Note_on_c, 4, 74, 90
6, 475680, Note_on_c, 4, 59, 80
6, 475680, Note_on_c, 4, 62, 80
6, 476160, Note_on_c, 4, 62, 0
6, 476160, Note_on_c, 4, 71, 0
6, 476160, Note_on_c, 4, 74, 0
6, 476160, Note_on_c, 4, 59, 0
6, 476160, Note_on_c, 4, 71, 90
6, 476160, Note_on_c, 4, 74, 90
6, 476160, Note_on_c, 4, 59, 80
6, 476160, Note_on_c, 4, 62, 80
6, 477120, Note_on_c, 4, 62, 0
6, 477120, Note_on_c, 4, 71, 0
6, 477120, Note_on_c, 4, 74, 0
6, 477120, Note_on_c, 4, 59, 0
6, 477120, Note_on_c, 4, 77, 90
6, 477120, Note_on_c, 4, 65, 80
6, 477360, Note_on_c, 4, 65, 0
6, 477360, Note_on_c, 4, 77, 0
6, 477360, Note_on_c, 4, 72, 90
6, 477360, Note_on_c, 4, 75, 90
6, 477360, Note_on_c, 4, 60, 80
6, 477360, Note_on_c, 4, 63, 80
6, 477600, Note_on_c, 4, 63, 0
6, 477600, Note_on_c, 4, 72, 0
6, 477600, Note_on_c, 4, 75, 0
6, 477600, Note_on_c, 4, 60, 0
6, 477600, Note_on_c, 4, 71, 90
6, 477600, Note_on_c, 4, 74, 90
6, 477600, Note_on_c, 4, 59, 80
6, 477600, Note_on_c, 4, 62, 80
6, 477840, Note_on_c, 4, 62, 0
6, 477840, Note_on_c, 4, 71, 0
6, 477840, Note_on_c, 4, 74, 0
6, 477840, Note_on_c, 4, 59, 0
6, 477840, Note_on_c, 4, 72, 90
6, 477840, Note_on_c, 4, 75, 90
6, 477840, Note_on_c, 4, 60, 80
6, 477840, Note_on_c, 4, 63, 80
6, 478080, Note_on_c, 4, 63, 0
6, 478080, Note_on_c, 4, 72, 0
6, 478080, Note_on_c, 4, 75, 0
6, 478080, Note_on_c, 4, 60, 0
6, 478080, Note_on_c, 4, 74, 90
6, 478080, Note_on_c, 4, 77, 90
6, 478080, Note_on_c, 4, 62, 80
6, 478080, Note_on_c, 4, 65, 80
6, 478320, Note_on_c, 4, 65, 0
6, 478320, Note_on_c, 4, 74, 0
6, 478320, Note_on_c, 4, 77, 0
6, 478320, Note_on_c, 4, 62, 0
6, 478320, Note_on_c, 4, 74, 90
6, 478320, Note_on_c, 4, 62, 80
6, 478560, Note_on_c, 4, 62, 0
6, 478560, Note_on_c, 4, 74, 0
6, 478560, Note_on_c, 4, 71, 90
6, 478560, Note_on_c, 4, 59, 80
6, 479040, Note_on_c, 4, 59, 0
6, 479040, Note_on_c, 4, 71, 0
6, 480000, Note_on_c, 4, 67, 90
6, 480000, Note_on_c, 4, 72, 90
6, 480000, Note_on_c, 4, 63, 80
6, 480480, Note_on_c, 4, 63, 0
6, 480480, Note_on_c, 4, 72, 0
6, 480480, Note_on_c, 4, 67, 0
6, 480480, Note_on_c, 4, 65, 90
6, 480480, Note_on_c, 4, 70, 90
6, 480480, Note_on_c, 4, 62, 80
6, 480960, Note_on_c, 4, 62, 0
6, 480960, Note_on_c, 4, 70, 0
6, 480960, Note_on_c, 4, 65, 0
6, 480960, Note_on_c, 4, 63, 90
6, 480960, Note_on_c, 4, 68, 90
6, 480960, Note_on_c, 4, 60, 80
6, 481440, Note_on_c, 4, 60, 0
6, 481440, Note_on_c, 4, 68, 0
6, 481440, Note_on_c, 4, 63, 0
6, 481440, Note_on_c, 4, 62, 90
6, 481440, Note_on_c, 4, 67, 90
6, 481440, Note_on_c, 4, 58, 80
6, 481920, Note_on_c, 4, 58, 0
6, 481920, Note_on_c, 4, 67, 0
6, 481920, Note_on_c, 4, 62, 0
6, 481920, Note_on_c, 4, 44, 80
6, 481920, Note_on_c, 4, 56, 80
6, 482160, Note_on_c, 4, 60, 90
6, 482400, Note_on_c, 4, 60, 0
6, 482400, Note_on_c, 4, 56, 0
6, 482400, Note_on_c, 4, 44, 0
6, 482400, Note_on_c, 4, 63, 90
6, 482640, Note_on_c, 4, 63, 0
6, 482640, Note_on_c, 4, 66, 90
6, 482880, Note_on_c, 4, 66, 0
6, 482880, Note_on_c, 4, 72, 90
6, 483120, Note_on_c, 4, 72, 0
6, 483120, Note_on_c, 4, 66, 90
6, 483360, Note_on_c, 4, 66, 0
6, 483360, Note_on_c, 4, 63, 90
6, 483600, Note_on_c, 4, 63, 0
6, 483600, Note_on_c, 4, 60, 90
6, 483840, Note_on_c, 4, 60, 0
6, 483840, Note_on_c, 4, 44, 80
6, 483840, Note_on_c, 4, 56, 80
6, 484080, Note_on_c, 4, 60, 90
6, 484320, Note_on_c, 4, 60, 0
6, 484320, Note_on_c, 4, 56, 0
6, 484320, Note_on_c, 4, 44, 0
6, 484320, Note_on_c, 4, 63, 90
6, 484560, Note_on_c, 4, 63, 0
6, 484560, Note_on_c, 4, 66, 90
6, 484800, Note_on_c, 4, 66, 0
6, 484800, Note_on_c, 4, 72, 90
6, 485040, Note_on_c, 4, 72, 0
6, 485040, Note_on_c, 4, 66, 90
6, 485280, Note_on_c, 4, 66, 0
6, 485280, Note_on_c, 4, 63, 90
6, 485520, Note_on_c, 4, 63, 0
6, 485520, Note_on_c, 4, 60, 90
6, 485760, Note_on_c, 4, 60, 0
6, 485760, Note_on_c, 4, 43, 80
6, 485760, Note_on_c, 4, 55, 80
6, 486000, Note_on_c, 4, 62, 90
6, 486240, Note_on_c, 4, 62, 0
6, 486240, Note_on_c, 4, 55, 0
6, 486240, Note_on_c, 4, 43, 0
6, 486240, Note_on_c, 4, 67, 90
6, 486480, Note_on_c, 4, 67, 0
6, 486480, Note_on_c, 4, 71, 90
6, 486720, Note_on_c, 4, 71, 0
6, 486720, Note_on_c, 4, 74, 90
6, 486960, Note_on_c, 4, 74, 0
6, 486960, Note_on_c, 4, 71, 90
6, 487200, Note_on_c, 4, 71, 0
6, 487200, Note_on_c, 4, 67, 90
6, 487440, Note_on_c, 4, 67, 0
6, 487440, Note_on_c, 4, 62, 90
6, 487680, Note_on_c, 4, 62, 0
6, 487680, Note_on_c, 4, 59, 90
6, 487680, Note_on_c, 4, 43, 80
6, 487680, Note_on_c, 4, 55, 80
6, 487920, Note_on_c, 4, 59, 0
6, 487920, Note_on_c, 4, 62, 90
6, 488160, Note_on_c, 4, 62, 0
6, 488160, Note_on_c, 4, 55, 0
6, 488160, Note_on_c, 4, 43, 0
6, 488160, Note_on_c, 4, 67, 90
6, 488400, Note_on_c, 4, 67, 0
6, 488400, Note_on_c, 4, 71, 90
6, 488640, Note_on_c, 4, 71, 0
6, 488640, Note_on_c, 4, 75, 90
6, 488880, Note_on_c, 4, 75, 0
6, 488880, Note_on_c, 4, 74, 90
6, 489120, Note_on_c, 4, 74, 0
6, 489120, Note_on_c, 4, 72, 90
6, 489360, Note_on_c, 4, 72, 0
6, 489360, Note_on_c, 4, 71, 90
6, 489600, Note_on_c, 4, 71, 0
6, 489600, Note_on_c, 4, 72, 90
6, 489600, Note_on_c, 4, 44, 80
6, 489600, Note_on_c, 4, 56, 80
6, 489840, Note_on_c, 4, 72, 0
6, 489840, Note_on_c, 4, 60, 90
6, 490080, Note_on_c, 4, 60, 0
6, 490080, Note_on_c, 4, 56, 0
6, 490080, Note_on_c, 4, 44, 0
6, 490080, Note_on_c, 4, 63, 90
6, 490320, Note_on_c, 4, 63, 0
6, 490320, Note_on_c, 4, 66, 90
6, 490560, Note_on_c, 4, 66, 0
6, 490560, Note_on_c, 4, 72, 90
6, 490800, Note_on_c, 4, 72, 0
6, 490800, Note_on_c, 4, 66, 90
6, 491040, Note_on_c, 4, 66, 0
6, 491040, Note_on_c, 4, 63, 90
6, 491280, Note_on_c, 4, 63, 0
6, 491280, Note_on_c, 4, 60, 90
6, 491520, Note_on_c, 4, 60, 0
6, 491520, Note_on_c, 4, 44, 80
6, 491520, Note_on_c, 4, 56, 80
6, 491760, Note_on_c, 4, 60, 90
6, 492000, Note_on_c, 4, 60, 0
6, 492000, Note_on_c, 4, 56, 0
6, 492000, Note_on_c, 4, 44, 0
6, 492000, Note_on_c, 4, 63, 90
6, 492240, Note_on_c, 4, 63, 0
6, 492240, Note_on_c, 4, 66, 90
6, 492480, Note_on_c, 4, 66, 0
6, 492480, Note_on_c, 4, 72, 90
6, 492720, Note_on_c, 4, 72, 0
6, 492720, Note_on_c, 4, 66, 90
6, 492960, Note_on_c, 4, 66, 0
6, 492960, Note_on_c, 4, 63, 90
6, 493200, Note_on_c, 4, 63, 0
6, 493200, Note_on_c, 4, 60, 90
6, 493440, Note_on_c, 4, 60, 0
6, 493440, Note_on_c, 4, 43, 80
6, 493440, Note_on_c, 4, 55, 80
6, 493680, Note_on_c, 4, 59, 90
6, 493920, Note_on_c, 4, 59, 0
6, 493920, Note_on_c, 4, 55, 0
6, 493920, Note_on_c, 4, 43, 0
6, 493920, Note_on_c, 4, 62, 90
6, 494160, Note_on_c, 4, 62, 0
6, 494160, Note_on_c, 4, 67, 90
6, 494400, Note_on_c, 4, 67, 0
6, 494400, Note_on_c, 4, 55, 80
6, 494640, Note_on_c, 4, 60, 90
6, 494880, Note_on_c, 4, 60, 0
6, 494880, Note_on_c, 4, 55, 0
6, 494880, Note_on_c, 4, 63, 90
6, 495120, Note_on_c, 4, 63, 0
6, 495120, Note_on_c, 4, 66, 90
6, 495360, Note_on_c, 4, 66, 0
6, 495360, Note_on_c, 4, 43, 80
6, 495360, Note_on_c, 4, 55, 80
6, 495600, Note_on_c, 4, 59, 90
6, 495840, Note_on_c, 4, 59, 0
6, 495840, Note_on_c, 4, 55, 0
6, 495840, Note_on_c, 4, 43, 0
6, 495840, Note_on_c, 4, 62, 90
6, 496080, Note_on_c, 4, 62, 0
6, 496080, Note_on_c, 4, 67, 90
6, 496320, Note_on_c, 4, 67, 0
6, 496320, Note_on_c, 4, 55, 80
6, 496560, Note_on_c, 4, 60, 90
6, 496800, Note_on_c, 4, 60, 0
6, 496800, Note_on_c, 4, 55, 0
6, 496800, Note_on_c, 4, 63, 90
6, 497040, Note_on_c, 4, 63, 0
6, 497040, Note_on_c, 4, 66, 90
6, 497280, Note_on_c, 4, 66, 0
6, 497280, Note_on_c, 4, 55, 80
6, 497520, Note_on_c, 4, 59, 90
6, 497760, Note_on_c, 4, 59, 0
6, 497760, Note_on_c, 4, 55, 0
6, 497760, Note_on_c, 4, 62, 90
6, 498000, Note_on_c, 4, 62, 0
6, 498000, Note_on_c, 4, 59, 90
6, 498240, Note_on_c, 4, 59, 0
6, 498240, Note_on_c, 4, 55, 80
6, 498480, Note_on_c, 4, 61, 90
6, 498720, Note_on_c, 4, 61, 0
6, 498720, Note_on_c, 4, 55, 0
6, 498720, Note_on_c, 4, 64, 90
6, 498960, Note_on_c, 4, 64, 0
6, 498960, Note_on_c, 4, 61, 90
6, 499200, Note_on_c, 4, 61, 0
6, 499200, Note_on_c, 4, 55, 80
6, 499440, Note_on_c, 4, 62, 90
6, 499680, Note_on_c, 4, 62, 0
6, 499680, Note_on_c, 4, 55, 0
6, 499680, Note_on_c, 4, 65, 90
6, 499920, Note_on_c, 4, 65, 0
6, 499920, Note_on_c, 4, 62, 90
6, 500160, Note_on_c, 4, 62, 0
6, 500160, Note_on_c, 4, 55, 80
6, 500400, Note_on_c, 4, 59, 90
6, 500640, Note_on_c, 4, 59, 0
6, 500640, Note_on_c, 4, 55, 0
6, 500640, Note_on_c, 4, 62, 90
6, 500880, Note_on_c, 4, 62, 0
6, 500880, Note_on_c, 4, 59, 90
6, 501120, Note_on_c, 4, 59, 0
6, 501120, Note_on_c, 4, 60, 90
6, 501120, Note_on_c, 4, 48, 80
6, 501360, Note_on_c, 4, 60, 0
6, 501360, Note_on_c, 4, 64, 90
6, 501600, Note_on_c, 4, 64, 0
6, 501600, Note_on_c, 4, 48, 0
6, 501600, Note_on_c, 4, 67, 90
6, 501840, Note_on_c, 4, 67, 0
6, 501840, Note_on_c, 4, 65, 90
6, 502080, Note_on_c, 4, 65, 0
6, 502080, Note_on_c, 4, 64, 90
6, 502320, Note_on_c, 4, 64, 0
6, 502320, Note_on_c, 4, 67, 90
6, 502560, Note_on_c, 4, 67, 0
6, 502560, Note_on_c, 4, 72, 90
6, 502800, Note_on_c, 4, 72, 0
6, 502800, Note_on_c, 4, 74, 90
6, 503040, Note_on_c, 4, 74, 0
6, 503040, Note_on_c, 4, 76, 90
6, 503040, Note_on_c, 4, 36, 80
6, 503280, Note_on_c, 4, 76, 0
6, 503280, Note_on_c, 4, 72, 90
6, 503520, Note_on_c, 4, 72, 0
6, 503520, Note_on_c, 4, 36, 0
6, 503520, Note_on_c, 4, 67, 90
6, 503760, Note_on_c, 4, 67, 0
6, 503760, Note_on_c, 4, 65, 90
6, 504000, Note_on_c, 4, 65, 0
6, 504000, Note_on_c, 4, 64, 90
6, 504240, Note_on_c, 4, 64, 0
6, 504240, Note_on_c, 4, 67, 90
6, 504480, Note_on_c, 4, 67, 0
6, 504480, Note_on_c, 4, 72, 90
6, 504720, Note_on_c, 4, 72, 0
6, 504720, Note_on_c, 4, 74, 90
6, 504960, Note_on_c, 4, 74, 0
6, 504960, Note_on_c, 4, 76, 90
6, 504960, Note_on_c, 4, 45, 80
6, 504960, Note_on_c, 4, 57, 80
6, 505200, Note_on_c, 4, 76, 0
6, 505200, Note_on_c, 4, 69, 90
6, 505440, Note_on_c, 4, 69, 0
6, 505440, Note_on_c, 4, 57, 0
6, 505440, Note_on_c, 4, 45, 0
6, 505440, Note_on_c, 4, 73, 90
6, 505680, Note_on_c, 4, 73, 0
6, 505680, Note_on_c, 4, 76, 90
6, 505920, Note_on_c, 4, 76, 0
6, 505920, Note_on_c, 4, 79, 90
6, 506160, Note_on_c, 4, 79, 0
6, 506160, Note_on_c, 4, 73, 90
6, 506400, Note_on_c, 4, 73, 0
6, 506400, Note_on_c, 4, 76, 90
6, 506640, Note_on_c, 4, 76, 0
6, 506640, Note_on_c, 4, 79, 90
6, 506880, Note_on_c, 4, 79, 0
6, 506880, Note_on_c, 4, 85, 90
6, 507120, Note_on_c, 4, 85, 0
6, 507120, Note_on_c, 4, 76, 90
6, 507360, Note_on_c, 4, 76, 0
6, 507360, Note_on_c, 4, 79, 90
6, 507600, Note_on_c, 4, 79, 0
6, 507600, Note_on_c, 4, 85, 90
6, 507840, Note_on_c, 4, 85, 0
6, 507840, Note_on_c, 4, 88, 90
6, 508080, Note_on_c, 4, 64, 80
6, 508320, Note_on_c, 4, 64, 0
6, 508320, Note_on_c, 4, 88, 0
6, 508320, Note_on_c, 4, 61, 80
6, 508560, Note_on_c, 4, 61, 0
6, 508560, Note_on_c, 4, 57, 80
6, 508800, Note_on_c, 4, 57, 0
6, 508800, Note_on_c, 4, 74, 90
6, 508800, Note_on_c, 4, 62, 80
6, 509040, Note_on_c, 4, 74, 0
6, 509040, Note_on_c, 4, 69, 90
6, 509280, Note_on_c, 4, 69, 0
6, 509280, Note_on_c, 4, 62, 0
6, 509280, Note_on_c, 4, 65, 90
6, 509520, Note_on_c, 4, 65, 0
6, 509520, Note_on_c, 4, 64, 90
6, 509760, Note_on_c, 4, 64, 0
6, 509760, Note_on_c, 4, 62, 90
6, 510000, Note_on_c, 4, 62, 0
6, 510000, Note_on_c, 4, 65, 90
6, 510240, Note_on_c, 4, 65, 0
6, 510240, Note_on_c, 4, 69, 90
6, 510480, Note_on_c, 4, 69, 0
6, 510480, Note_on_c, 4, 73, 90
6, 510720, Note_on_c, 4, 73, 0
6, 510720, Note_on_c, 4, 74, 90
6, 510720, Note_on_c, 4, 50, 80
6, 510960, Note_on_c, 4, 74, 0
6, 510960, Note_on_c, 4, 69, 90
6, 511200, Note_on_c, 4, 69, 0
6, 511200, Note_on_c, 4, 50, 0
6, 511200, Note_on_c, 4, 65, 90
6, 511440, Note_on_c, 4, 65, 0
6, 511440, Note_on_c, 4, 64, 90
6, 511680, Note_on_c, 4, 64, 0
6, 511680, Note_on_c, 4, 62, 90
6, 511920, Note_on_c, 4, 62, 0
6, 511920, Note_on_c, 4, 65, 90
6, 512160, Note_on_c, 4, 65, 0
6, 512160, Note_on_c, 4, 69, 90
6, 512400, Note_on_c, 4, 69, 0
6, 512400, Note_on_c, 4, 72, 90
6, 512640, Note_on_c, 4, 72, 0
6, 512640, Note_on_c, 4, 71, 90
6, 512640, Note_on_c, 4, 43, 80
6, 512640, Note_on_c, 4, 55, 80
6, 512880, Note_on_c, 4, 71, 0
6, 512880, Note_on_c, 4, 67, 90
6, 513120, Note_on_c, 4, 67, 0
6, 513120, Note_on_c, 4, 55, 0
6, 513120, Note_on_c, 4, 43, 0
6, 513120, Note_on_c, 4, 71, 90
6, 513360, Note_on_c, 4, 71, 0
6, 513360, Note_on_c, 4, 74, 90
6, 513600, Note_on_c, 4, 74, 0
6, 513600, Note_on_c, 4, 77, 90
6, 513840, Note_on_c, 4, 77, 0
6, 513840, Note_on_c, 4, 71, 90
6, 514080, Note_on_c, 4, 71, 0
6, 514080, Note_on_c, 4, 74, 90
6, 514320, Note_on_c, 4, 74, 0
6, 514320, Note_on_c, 4, 77, 90
6, 514560, Note_on_c, 4, 77, 0
6, 514560, Note_on_c, 4, 83, 90
6, 514800, Note_on_c, 4, 83, 0
6, 514800, Note_on_c, 4, 74, 90
6, 515040, Note_on_c, 4, 74, 0
6, 515040, Note_on_c, 4, 77, 90
6, 515280, Note_on_c, 4, 77, 0
6, 515280, Note_on_c, 4, 83, 90
6, 515520, Note_on_c, 4, 83, 0
6, 515520, Note_on_c, 4, 86, 90
6, 515760, Note_on_c, 4, 62, 80
6, 516000, Note_on_c, 4, 62, 0
6, 516000, Note_on_c, 4, 86, 0
6, 516000, Note_on_c, 4, 59, 80
6, 516240, Note_on_c, 4, 59, 0
6, 516240, Note_on_c, 4, 55, 80
6, 516480, Note_on_c, 4, 55, 0
6, 516480, Note_on_c, 4, 60, 80
6, 516720, Note_on_c, 4, 79, 90
6, 516960, Note_on_c, 4, 79, 0
6, 516960, Note_on_c, 4, 60, 0
6, 516960, Note_on_c, 4, 76, 90
6, 517200, Note_on_c, 4, 76, 0
6, 517200, Note_on_c, 4, 72, 90
6, 517440, Note_on_c, 4, 72, 0
6, 517440, Note_on_c, 4, 71, 90
6, 517440, Note_on_c, 4, 41, 80
6, 517440, Note_on_c, 4, 53, 80
6, 517680, Note_on_c, 4, 71, 0
6, 517680, Note_on_c, 4, 67, 90
6, 517920, Note_on_c, 4, 67, 0
6, 517920, Note_on_c, 4, 53, 0
6, 517920, Note_on_c, 4, 41, 0
6, 517920, Note_on_c, 4, 74, 90
6, 518160, Note_on_c, 4, 74, 0
6, 518160, Note_on_c, 4, 71, 90
6, 518400, Note_on_c, 4, 71, 0
6, 518400, Note_on_c, 4, 72, 90
6, 518400, Note_on_c, 4, 40, 80
6, 518400, Note_on_c, 4, 52, 80
6, 518640, Note_on_c, 4, 72, 0
6, 518640, Note_on_c, 4, 67, 90
6, 518880, Note_on_c, 4, 67, 0
6, 518880, Note_on_c, 4, 52, 0
6, 518880, Note_on_c, 4, 40, 0
6, 518880, Note_on_c, 4, 76, 90
6, 519120, Note_on_c, 4, 76, 0
6, 519120, Note_on_c, 4, 72, 90
6, 519360, Note_on_c, 4, 72, 0
6, 519360, Note_on_c, 4, 74, 90
6, 519360, Note_on_c, 4, 47, 80
6, 519360, Note_on_c, 4, 59, 80
6, 519600, Note_on_c, 4, 74, 0
6, 519600, Note_on_c, 4, 67, 90
6, 519840, Note_on_c, 4, 67, 0
6, 519840, Note_on_c, 4, 59, 0
6, 519840, Note_on_c, 4, 47, 0
6, 519840, Note_on_c, 4, 77, 90
6, 520080, Note_on_c, 4, 77, 0
6, 520080, Note_on_c, 4, 74, 90
6, 520320, Note_on_c, 4, 74, 0
6, 520320, Note_on_c, 4, 76, 90
6, 520320, Note_on_c, 4, 48, 80
6, 520320, Note_on_c, 4, 60, 80
6, 520560, Note_on_c, 4, 76, 0
6, 520560, Note_on_c, 4, 72, 90
6, 520800, Note_on_c, 4, 72, 0
6, 520800, Note_on_c, 4, 60, 0
6, 520800, Note_on_c, 4, 48, 0
6, 520800, Note_on_c, 4, 84, 90
6, 521040, Note_on_c, 4, 84, 0
6, 521040, Note_on_c, 4, 79, 90
6, 521280, Note_on_c, 4, 79, 0
6, 521280, Note_on_c, 4, 83, 90
6, 521280, Note_on_c, 4, 53, 80
6, 521280, Note_on_c, 4, 65, 80
6, 521520, Note_on_c, 4, 83, 0
6, 521520, Note_on_c, 4, 79, 90
6, 521760, Note_on_c, 4, 79, 0
6, 521760, Note_on_c, 4, 65, 0
6, 521760, Note_on_c, 4, 53, 0
6, 521760, Note_on_c, 4, 86, 90
6, 522000, Note_on_c, 4, 86, 0
6, 522000, Note_on_c, 4, 83, 90
6, 522240, Note_on_c, 4, 83, 0
6, 522240, Note_on_c, 4, 84, 90
6, 522240, Note_on_c, 4, 52, 80
6, 522240, Note_on_c, 4, 64, 80
6, 522480, Note_on_c, 4, 84, 0
6, 522480, Note_on_c, 4, 79, 90
6, 522720, Note_on_c, 4, 79, 0
6, 522720, Note_on_c, 4, 64, 0
6, 522720, Note_on_c, 4, 52, 0
6, 522720, Note_on_c, 4, 88, 90
6, 522960, Note_on_c, 4, 88, 0
6, 522960, Note_on_c, 4, 84, 90
6, 523200, Note_on_c, 4, 84, 0
6, 523200, Note_on_c, 4, 86, 90
6, 523200, Note_on_c, 4, 59, 80
6, 523200, Note_on_c, 4, 71, 80
6, 523440, Note_on_c, 4, 86, 0
6, 523440, Note_on_c, 4, 79, 90
6, 523680, Note_on_c, 4, 79, 0
6, 523680, Note_on_c, 4, 71, 0
6, 523680, Note_on_c, 4, 59, 0
6, 523680, Note_on_c, 4, 89, 90
6, 523920, Note_on_c, 4, 89, 0
6, 523920, Note_on_c, 4, 86, 90
6, 524160, Note_on_c, 4, 86, 0
6, 524160, Note_on_c, 4, 88, 90
6, 524160, Note_on_c, 4, 60, 80
6, 524160, Note_on_c, 4, 72, 80
6, 524400, Note_on_c, 4, 88, 0
6, 524400, Note_on_c, 4, 84, 90
6, 524640, Note_on_c, 4, 84, 0
6, 524640, Note_on_c, 4, 72, 0
6, 524640, Note_on_c, 4, 60, 0
6, 524640, Note_on_c, 4, 76, 90
6, 524880, Note_on_c, 4, 76, 0
6, 524880, Note_on_c, 4, 78, 90
6, 525120, Note_on_c, 4, 78, 0
6, 525120, Note_on_c, 4, 81, 90
6, 525120, Note_on_c, 4, 65, 80
6, 525360, Note_on_c, 4, 65, 0
6, 525360, Note_on_c, 4, 81, 0
6, 525360, Note_on_c, 4, 85, 90
6, 525360, Note_on_c, 4, 69, 80
6, 525600, Note_on_c, 4, 69, 0
6, 525600, Note_on_c, 4, 85, 0
6, 525600, Note_on_c, 4, 86, 90
6, 525600, Note_on_c, 4, 71, 80
6, 525840, Note_on_c, 4, 71, 0
6, 525840, Note_on_c, 4, 86, 0
6, 525840, Note_on_c, 4, 89, 90
6, 525840, Note_on_c, 4, 74, 80
6, 526080, Note_on_c, 4, 74, 0
6, 526080, Note_on_c, 4, 89, 0
6, 526080, Note_on_c, 4, 79, 90
6, 526080, Note_on_c, 4, 64, 80
6, 526320, Note_on_c, 4, 64, 0
6, 526320, Note_on_c, 4, 79, 0
6, 526320, Note_on_c, 4, 83, 90
6, 526320, Note_on_c, 4, 67, 80
6, 526560, Note_on_c, 4, 67, 0
6, 526560, Note_on_c, 4, 83, 0
6, 526560, Note_on_c, 4, 84, 90
6, 526560, Note_on_c, 4, 69, 80
6, 526800, Note_on_c, 4, 69, 0
6, 526800, Note_on_c, 4, 84, 0
6, 526800, Note_on_c, 4, 88, 90
6, 526800, Note_on_c, 4, 72, 80
6, 527040, Note_on_c, 4, 72, 0
6, 527040, Note_on_c, 4, 88, 0
6, 527040, Note_on_c, 4, 77, 90
6, 527040, Note_on_c, 4, 62, 80
6, 527280, Note_on_c, 4, 62, 0
6, 527280, Note_on_c, 4, 77, 0
6, 527280, Note_on_c, 4, 81, 90
6, 527280, Note_on_c, 4, 65, 80
6, 527520, Note_on_c, 4, 65, 0
6, 527520, Note_on_c, 4, 81, 0
6, 527520, Note_on_c, 4, 83, 90
6, 527520, Note_on_c, 4, 67, 80
6, 527760, Note_on_c, 4, 67, 0
6, 527760, Note_on_c, 4, 83, 0
6, 527760, Note_on_c, 4, 86, 90
6, 527760, Note_on_c, 4, 71, 80
6, 528000, Note_on_c, 4, 71, 0
6, 528000, Note_on_c, 4, 86, 0
6, 528000, Note_on_c, 4, 76, 90
6, 528000, Note_on_c, 4, 60, 80
6, 528240, Note_on_c, 4, 60, 0
6, 528240, Note_on_c, 4, 76, 0
6, 528240, Note_on_c, 4, 80, 90
6, 528240, Note_on_c, 4, 64, 80
6, 528480, Note_on_c, 4, 64, 0
6, 528480, Note_on_c, 4, 80, 0
6, 528480, Note_on_c, 4, 81, 90
6, 528480, Note_on_c, 4, 66, 80
6, 528720, Note_on_c, 4, 66, 0
6, 528720, Note_on_c, 4, 81, 0
6, 528720, Note_on_c, 4, 84, 90
6, 528720, Note_on_c, 4, 69, 80
6, 528960, Note_on_c, 4, 69, 0
6, 528960, Note_on_c, 4, 84, 0
6, 528960, Note_on_c, 4, 74, 90
6, 528960, Note_on_c, 4, 59, 80
6, 529200, Note_on_c, 4, 59, 0
6, 529200, Note_on_c, 4, 74, 0
6, 529200, Note_on_c, 4, 78, 90
6, 529200, Note_on_c, 4, 62, 80
6, 529440, Note_on_c, 4, 62, 0
6, 529440, Note_on_c, 4, 78, 0
6, 529440, Note_on_c, 4, 79, 90
6, 529440, Note_on_c, 4, 64, 80
6, 529680, Note_on_c, 4, 64, 0
6, 529680, Note_on_c, 4, 79, 0
6, 529680, Note_on_c, 4, 83, 90
6, 529680, Note_on_c, 4, 67, 80
6, 529920, Note_on_c, 4, 67, 0
6, 529920, Note_on_c, 4, 83, 0
6, 529920, Note_on_c, 4, 72, 90
6, 529920, Note_on_c, 4, 57, 80
6, 529920, Note_on_c, 4, 60, 80
6, 529920, Note_on_c, 4, 62, 80
6, 529920, Note_on_c, 4, 66, 80
6, 530160, Note_on_c, 4, 72, 0
6, 530160, Note_on_c, 4, 74, 90
6, 530400, Note_on_c, 4, 74, 0
6, 530400, Note_on_c, 4, 78, 90
6, 530640, Note_on_c, 4, 78, 0
6, 530640, Note_on_c, 4, 81, 90
6, 530880, Note_on_c, 4, 81, 0
6, 530880, Note_on_c, 4, 66, 0
6, 530880, Note_on_c, 4, 57, 0
6, 530880, Note_on_c, 4, 60, 0
6, 530880, Note_on_c, 4, 62, 0
6, 530880, Note_on_c, 4, 84, 90
6, 531120, Note_on_c, 4, 84, 0
6, 531120, Note_on_c, 4, 81, 90
6, 531360, Note_on_c, 4, 81, 0
6, 531360, Note_on_c, 4, 78, 90
6, 531600, Note_on_c, 4, 78, 0
6, 531600, Note_on_c, 4, 72, 90
6, 531840, Note_on_c, 4, 72, 0
6, 531840, Note_on_c, 4, 71, 90
6, 531840, Note_on_c, 4, 55, 80
6, 531840, Note_on_c, 4, 59, 80
6, 531840, Note_on_c, 4, 62, 80
6, 531840, Note_on_c, 4, 67, 80
6, 532080, Note_on_c, 4, 71, 0
6, 532080, Note_on_c, 4, 74, 90
6, 532320, Note_on_c, 4, 74, 0
6, 532320, Note_on_c, 4, 79, 90
6, 532560, Note_on_c, 4, 79, 0
6, 532560, Note_on_c, 4, 83, 90
6, 532800, Note_on_c, 4, 83, 0
6, 532800, Note_on_c, 4, 67, 0
6, 532800, Note_on_c, 4, 55, 0
6, 532800, Note_on_c, 4, 59, 0
6, 532800, Note_on_c, 4, 62, 0
6, 532800, Note_on_c, 4, 86, 90
6, 533040, Note_on_c, 4, 86, 0
6, 533040, Note_on_c, 4, 83, 90
6, 533280, Note_on_c, 4, 83, 0
6, 533280, Note_on_c, 4, 79, 90
6, 533520, Note_on_c, 4, 79, 0
6, 533520, Note_on_c, 4, 74, 90
6, 533760, Note_on_c, 4, 74, 0
6, 533760, Note_on_c, 4, 72, 90
6, 533760, Note_on_c, 4, 45, 80
6, 533760, Note_on_c, 4, 48, 80
6, 533760, Note_on_c, 4, 50, 80
6, 533760, Note_on_c, 4, 54, 80
6, 534000, Note_on_c, 4, 72, 0
6, 534000, Note_on_c, 4, 74, 90
6, 534240, Note_on_c, 4, 74, 0
6, 534240, Note_on_c, 4, 78, 90
6, 534480, Note_on_c, 4, 78, 0
6, 534480, Note_on_c, 4, 81, 90
6, 534720, Note_on_c, 4, 81, 0
6, 534720, Note_on_c, 4, 54, 0
6, 534720, Note_on_c, 4, 45, 0
6, 534720, Note_on_c, 4, 48, 0
6, 534720, Note_on_c, 4, 50, 0
6, 534720, Note_on_c, 4, 84, 90
6, 534960, Note_on_c, 4, 84, 0
6, 534960, Note_on_c, 4, 81, 90
6, 535200, Note_on_c, 4, 81, 0
6, 535200, Note_on_c, 4, 78, 90
6, 535440, Note_on_c, 4, 78, 0
6, 535440, Note_on_c, 4, 72, 90
6, 535680, Note_on_c, 4, 72, 0
6, 535680, Note_on_c, 4, 71, 90
6, 535680, Note_on_c, 4, 43, 80
6, 535920, Note_on_c, 4, 71, 0
6, 535920, Note_on_c, 4, 67, 90
6, 536160, Note_on_c, 4, 67, 0
6, 536160, Note_on_c, 4, 43, 0
6, 536160, Note_on_c, 4, 71, 90
6, 536160, Note_on_c, 4, 47, 80
6, 536400, Note_on_c, 4, 47, 0
6, 536400, Note_on_c, 4, 71, 0
6, 536400, Note_on_c, 4, 74, 90
6, 536400, Note_on_c, 4, 50, 80
6, 536640, Note_on_c, 4, 50, 0
6, 536640, Note_on_c, 4, 74, 0
6, 536640, Note_on_c, 4, 79, 90
6, 536640, Note_on_c, 4, 55, 80
6, 536880, Note_on_c, 4, 55, 0
6, 536880, Note_on_c, 4, 79, 0
6, 536880, Note_on_c, 4, 78, 90
6, 536880, Note_on_c, 4, 54, 80
6, 537120, Note_on_c, 4, 54, 0
6, 537120, Note_on_c, 4, 78, 0
6, 537120, Note_on_c, 4, 79, 90
6, 537120, Note_on_c, 4, 55, 80
6, 537360, Note_on_c, 4, 55, 0
6, 537360, Note_on_c, 4, 79, 0
6, 537360, Note_on_c, 4, 78, 90
6, 537360, Note_on_c, 4, 54, 80
6, 537600, Note_on_c, 4, 54, 0
6, 537600, Note_on_c, 4, 78, 0
6, 537600, Note_on_c, 4, 79, 90
6, 537600, Note_on_c, 4, 55, 80
6, 537840, Note_on_c, 4, 55, 0
6, 537840, Note_on_c, 4, 79, 0
6, 537840, Note_on_c, 4, 67, 90
6, 537840, Note_on_c, 4, 55, 80
6, 538080, Note_on_c, 4, 55, 0
6, 538080, Note_on_c, 4, 67, 0
6, 538080, Note_on_c, 4, 71, 90
6, 538080, Note_on_c, 4, 59, 80
6, 538320, Note_on_c, 4, 59, 0
6, 538320, Note_on_c, 4, 71, 0
6, 538320, Note_on_c, 4, 74, 90
6, 538320, Note_on_c, 4, 62, 80
6, 538560, Note_on_c, 4, 62, 0
6, 538560, Note_on_c, 4, 74, 0
6, 538560, Note_on_c, 4, 79, 90
6, 538560, Note_on_c, 4, 67, 80
6, 538800, Note_on_c, 4, 67, 0
6, 538800, Note_on_c, 4, 79, 0
6, 538800, Note_on_c, 4, 78, 90
6, 538800, Note_on_c, 4, 66, 80
6, 539040, Note_on_c, 4, 66, 0
6, 539040, Note_on_c, 4, 78, 0
6, 539040, Note_on_c, 4, 79, 90
6, 539040, Note_on_c, 4, 67, 80
6, 539280, Note_on_c, 4, 67, 0
6, 539280, Note_on_c, 4, 79, 0
6, 539280, Note_on_c, 4, 78, 90
6, 539280, Note_on_c, 4, 66, 80
6, 539520, Note_on_c, 4, 66, 0
6, 539520, Note_on_c, 4, 78, 0
6, 539520, Note_on_c, 4, 79, 90
6, 539520, Note_on_c, 4, 67, 80
6, 540000, Note_on_c, 4, 67, 0
6, 540000, Note_on_c, 4, 79, 0
6, 574080, Note_on_c, 4, 60, 80
6, 574320, Note_on_c, 4, 60, 0
6, 574320, Note_on_c, 4, 67, 80
6, 574560, Note_on_c, 4, 67, 0
6, 574560, Note_on_c, 4, 72, 90
6, 574560, Note_on_c, 4, 64, 80
6, 574800, Note_on_c, 4, 64, 0
6, 574800, Note_on_c, 4, 67, 80
6, 575040, Note_on_c, 4, 67, 0
6, 575040, Note_on_c, 4, 72, 0
6, 575040, Note_on_c, 4, 72, 90
6, 575040, Note_on_c, 4, 60, 80
6, 575280, Note_on_c, 4, 60, 0
6, 575280, Note_on_c, 4, 67, 80
6, 575520, Note_on_c, 4, 67, 0
6, 575520, Note_on_c, 4, 72, 0
6, 575520, Note_on_c, 4, 72, 90
6, 575520, Note_on_c, 4, 64, 80
6, 575760, Note_on_c, 4, 64, 0
6, 575760, Note_on_c, 4, 67, 80
6, 576000, Note_on_c, 4, 67, 0
6, 576000, Note_on_c, 4, 72, 0
6, 576000, Note_on_c, 4, 74, 90
6, 576000, Note_on_c, 4, 55, 80
6, 576240, Note_on_c, 4, 55, 0
6, 576240, Note_on_c, 4, 67, 80
6, 576480, Note_on_c, 4, 67, 0
6, 576480, Note_on_c, 4, 74, 0
6, 576480, Note_on_c, 4, 74, 90
6, 576480, Note_on_c, 4, 65, 80
6, 576720, Note_on_c, 4, 65, 0
6, 576720, Note_on_c, 4, 74, 0
6, 576720, Note_on_c, 4, 76, 90
6, 576720, Note_on_c, 4, 67, 80
6, 576960, Note_on_c, 4, 67, 0
6, 576960, Note_on_c, 4, 76, 0
6, 576960, Note_on_c, 4, 72, 90
6, 576960, Note_on_c, 4, 64, 80
6, 577200, Note_on_c, 4, 64, 0
6, 577200, Note_on_c, 4, 67, 80
6, 577440, Note_on_c, 4, 67, 0
6, 577440, Note_on_c, 4, 72, 0
6, 577440, Note_on_c, 4, 72, 90
6, 577440, Note_on_c, 4, 60, 80
6, 577680, Note_on_c, 4, 60, 0
6, 577680, Note_on_c, 4, 67, 80
6, 577920, Note_on_c, 4, 67, 0
6, 577920, Note_on_c, 4, 72, 0
6, 577920, Note_on_c, 4, 74, 90
6, 577920, Note_on_c, 4, 55, 80
6, 578160, Note_on_c, 4, 55, 0
6, 578160, Note_on_c, 4, 67, 80
6, 578400, Note_on_c, 4, 67, 0
6, 578400, Note_on_c, 4, 74, 0
6, 578400, Note_on_c, 4, 74, 90
6, 578400, Note_on_c, 4, 65, 80
6, 578640, Note_on_c, 4, 65, 0
6, 578640, Note_on_c, 4, 74, 0
6, 578640, Note_on_c, 4, 76, 90
6, 578640, Note_on_c, 4, 67, 80
6, 578880, Note_on_c, 4, 67, 0
6, 578880, Note_on_c, 4, 76, 0
6, 578880, Note_on_c, 4, 72, 90
6, 578880, Note_on_c, 4, 64, 80
6, 579120, Note_on_c, 4, 64, 0
6, 579120, Note_on_c, 4, 67, 80
6, 579360, Note_on_c, 4, 67, 0
6, 579360, Note_on_c, 4, 72, 0
6, 579360, Note_on_c, 4, 74, 90
6, 579360, Note_on_c, 4, 77, 90
6, 579360, Note_on_c, 4, 55, 80
6, 579600, Note_on_c, 4, 55, 0
6, 579600, Note_on_c, 4, 67, 80
6, 579840, Note_on_c, 4, 67, 0
6, 579840, Note_on_c, 4, 77, 0
6, 579840, Note_on_c, 4, 74, 0
6, 579840, Note_on_c, 4, 72, 90
6, 579840, Note_on_c, 4, 76, 90
6, 579840, Note_on_c, 4, 55, 80
6, 580080, Note_on_c, 4, 55, 0
6, 580080, Note_on_c, 4, 67, 80
6, 580320, Note_on_c, 4, 67, 0
6, 580320, Note_on_c, 4, 66, 80
6, 580560, Note_on_c, 4, 66, 0
6, 580560, Note_on_c, 4, 67, 80
6, 580800, Note_on_c, 4, 67, 0
6, 580800, Note_on_c, 4, 76, 0
6, 580800, Note_on_c, 4, 72, 0
6, 580800, Note_on_c, 4, 71, 90
6, 580800, Note_on_c, 4, 74, 90
6, 580800, Note_on_c, 4, 66, 80
6, 581040, Note_on_c, 4, 66, 0
6, 581040, Note_on_c, 4, 67, 80
6, 581280, Note_on_c, 4, 67, 0
6, 581280, Note_on_c, 4, 74, 0
6, 581280, Note_on_c, 4, 71, 0
6, 581280, Note_on_c, 4, 66, 80
6, 581520, Note_on_c, 4, 66, 0
6, 581520, Note_on_c, 4, 67, 80
6, 581760, Note_on_c, 4, 67, 0
6, 581760, Note_on_c, 4, 55, 80
6, 582000, Note_on_c, 4, 55, 0
6, 582000, Note_on_c, 4, 62, 80
6, 582240, Note_on_c, 4, 62, 0
6, 582240, Note_on_c, 4, 71, 90
6, 582240, Note_on_c, 4, 74, 90
6, 582240, Note_on_c, 4, 59, 80
6, 582480, Note_on_c, 4, 59, 0
6, 582480, Note_on_c, 4, 62, 80
6, 582720, Note_on_c, 4, 62, 0
6, 582720, Note_on_c, 4, 74, 0
6, 582720, Note_on_c, 4, 71, 0
6, 582720, Note_on_c, 4, 71, 90
6, 582720, Note_on_c, 4, 74, 90
6, 582720, Note_on_c, 4, 55, 80
6, 582960, Note_on_c, 4, 55, 0
6, 582960, Note_on_c, 4, 62, 80
6, 583200, Note_on_c, 4, 62, 0
6, 583200, Note_on_c, 4, 74, 0
6, 583200, Note_on_c, 4, 71, 0
6, 583200, Note_on_c, 4, 71, 90
6, 583200, Note_on_c, 4, 74, 90
6, 583200, Note_on_c, 4, 59, 80
6, 583440, Note_on_c, 4, 59, 0
6, 583440, Note_on_c, 4, 62, 80
6, 583680, Note_on_c, 4, 62, 0
6, 583680, Note_on_c, 4, 74, 0
6, 583680, Note_on_c, 4, 71, 0
6, 583680, Note_on_c, 4, 72, 90
6, 583680, Note_on_c, 4, 76, 90
6, 583680, Note_on_c, 4, 55, 80
6, 583920, Note_on_c, 4, 55, 0
6, 583920, Note_on_c, 4, 64, 80
6, 584160, Note_on_c, 4, 64, 0
6, 584160, Note_on_c, 4, 76, 0
6, 584160, Note_on_c, 4, 72, 0
6, 584160, Note_on_c, 4, 76, 90
6, 584160, Note_on_c, 4, 60, 80
6, 584400, Note_on_c, 4, 60, 0
6, 584400, Note_on_c, 4, 76, 0
6, 584400, Note_on_c, 4, 77, 90
6, 584400, Note_on_c, 4, 64, 80
6, 584640, Note_on_c, 4, 64, 0
6, 584640, Note_on_c, 4, 77, 0
6, 584640, Note_on_c, 4, 74, 90
6, 584640, Note_on_c, 4, 55, 80
6, 584880, Note_on_c, 4, 55, 0
6, 584880, Note_on_c, 4, 62, 80
6, 585120, Note_on_c, 4, 62, 0
6, 585120, Note_on_c, 4, 74, 0
6, 585120, Note_on_c, 4, 71, 90
6, 585120, Note_on_c, 4, 74, 90
6, 585120, Note_on_c, 4, 59, 80
6, 585360, Note_on_c, 4, 59, 0
6, 585360, Note_on_c, 4, 62, 80
6, 585600, Note_on_c, 4, 62, 0
6, 585600, Note_on_c, 4, 74, 0
6, 585600, Note_on_c, 4, 71, 0
6, 585600, Note_on_c, 4, 72, 90
6, 585600, Note_on_c, 4, 76, 90
6, 585600, Note_on_c, 4, 55, 80
6, 585840, Note_on_c, 4, 55, 0
6, 585840, Note_on_c, 4, 64, 80
6, 586080, Note_on_c, 4, 64, 0
6, 586080, Note_on_c, 4, 76, 0
6, 586080, Note_on_c, 4, 72, 0
6, 586080, Note_on_c, 4, 76, 90
6, 586080, Note_on_c, 4, 60, 80
6, 586320, Note_on_c, 4, 60, 0
6, 586320, Note_on_c, 4, 76, 0
6, 586320, Note_on_c, 4, 77, 90
6, 586320, Note_on_c, 4, 64, 80
6, 586560, Note_on_c, 4, 64, 0
6, 586560, Note_on_c, 4, 77, 0
6, 586560, Note_on_c, 4, 74, 90
6, 586560, Note_on_c, 4, 55, 80
6, 586800, Note_on_c, 4, 55, 0
6, 586800, Note_on_c, 4, 62, 80
6, 587040, Note_on_c, 4, 62, 0
6, 587040, Note_on_c, 4, 74, 0
6, 587040, Note_on_c, 4, 71, 90
6, 587040, Note_on_c, 4, 79, 90
6, 587040, Note_on_c, 4, 59, 80
6, 587280, Note_on_c, 4, 59, 0
6, 587280, Note_on_c, 4, 62, 80
6, 587520, Note_on_c, 4, 62, 0
6, 587520, Note_on_c, 4, 79, 0
6, 587520, Note_on_c, 4, 71, 0
6, 587520, Note_on_c, 4, 74, 90
6, 587520, Note_on_c, 4, 77, 90
6, 587520, Note_on_c, 4, 48, 80
6, 587760, Note_on_c, 4, 48, 0
6, 587760, Note_on_c, 4, 60, 80
6, 588000, Note_on_c, 4, 60, 0
6, 588000, Note_on_c, 4, 59, 80
6, 588240, Note_on_c, 4, 59, 0
6, 588240, Note_on_c, 4, 60, 80
6, 588480, Note_on_c, 4, 60, 0
6, 588480, Note_on_c, 4, 77, 0
6, 588480, Note_on_c, 4, 74, 0
6, 588480, Note_on_c, 4, 72, 90
6, 588480, Note_on_c, 4, 76, 90
6, 588480, Note_on_c, 4, 59, 80
6, 588720, Note_on_c, 4, 59, 0
6, 588720, Note_on_c, 4, 60, 80
6, 588960, Note_on_c, 4, 60, 0
6, 588960, Note_on_c, 4, 76, 0
6, 588960, Note_on_c, 4, 72, 0
6, 588960, Note_on_c, 4, 59, 80
6, 589200, Note_on_c, 4, 59, 0
6, 589200, Note_on_c, 4, 60, 80
6, 589440, Note_on_c, 4, 60, 0
6, 589440, Note_on_c, 4, 48, 80
6, 589680, Note_on_c, 4, 79, 90
6, 589920, Note_on_c, 4, 79, 0
6, 589920, Note_on_c, 4, 78, 90
6, 590160, Note_on_c, 4, 78, 0
6, 590160, Note_on_c, 4, 79, 90
6, 590400, Note_on_c, 4, 79, 0
6, 590400, Note_on_c, 4, 48, 0
6, 590400, Note_on_c, 4, 77, 90
6, 590640, Note_on_c, 4, 77, 0
6, 590640, Note_on_c, 4, 76, 90
6, 590880, Note_on_c, 4, 76, 0
6, 590880, Note_on_c, 4, 74, 90
6, 590880, Note_on_c, 4, 52, 80
6, 591120, Note_on_c, 4, 74, 0
6, 591120, Note_on_c, 4, 72, 90
6, 591360, Note_on_c, 4, 72, 0
6, 591360, Note_on_c, 4, 52, 0
6, 591360, Note_on_c, 4, 81, 90
6, 591360, Note_on_c, 4, 53, 80
6, 591600, Note_on_c, 4, 81, 0
6, 591600, Note_on_c, 4, 80, 90
6, 591840, Note_on_c, 4, 80, 0
6, 591840, Note_on_c, 4, 53, 0
6, 591840, Note_on_c, 4, 81, 90
6, 591840, Note_on_c, 4, 65, 80
6, 592080, Note_on_c, 4, 65, 0
6, 592080, Note_on_c, 4, 81, 0
6, 592080, Note_on_c, 4, 77, 90
6, 592080, Note_on_c, 4, 62, 80
6, 592320, Note_on_c, 4, 62, 0
6, 592320, Note_on_c, 4, 77, 0
6, 592320, Note_on_c, 4, 74, 90
6, 592320, Note_on_c, 4, 59, 80
6, 592800, Note_on_c, 4, 59, 0
6, 592800, Note_on_c, 4, 74, 0
6, 592800, Note_on_c, 4, 59, 80
6, 593040, Note_on_c, 4, 59, 0
6, 593040, Note_on_c, 4, 55, 80
6, 593280, Note_on_c, 4, 55, 0
6, 593280, Note_on_c, 4, 79, 90
6, 593280, Note_on_c, 4, 52, 80
6, 593520, Note_on_c, 4, 79, 0
6, 593520, Note_on_c, 4, 78, 90
6, 593760, Note_on_c, 4, 78, 0
6, 593760, Note_on_c, 4, 52, 0
6, 593760, Note_on_c, 4, 79, 90
6, 593760, Note_on_c, 4, 64, 80
6, 594000, Note_on_c, 4, 64, 0
6, 594000, Note_on_c, 4, 79, 0
6, 594000, Note_on_c, 4, 76, 90
6, 594000, Note_on_c, 4, 60, 80
6, 594240, Note_on_c, 4, 60, 0
6, 594240, Note_on_c, 4, 76, 0
6, 594240, Note_on_c, 4, 72, 90
6, 594240, Note_on_c, 4, 57, 80
6, 594720, Note_on_c, 4, 57, 0
6, 594720, Note_on_c, 4, 72, 0
6, 594720, Note_on_c, 4, 57, 80
6, 594960, Note_on_c, 4, 57, 0
6, 594960, Note_on_c, 4, 53, 80
6, 595200, Note_on_c, 4, 53, 0
6, 595200, Note_on_c, 4, 71, 90
6, 595200, Note_on_c, 4, 50, 80
6, 595440, Note_on_c, 4, 71, 0
6, 595440, Note_on_c, 4, 72, 90
6, 595680, Note_on_c, 4, 72, 0
6, 595680, Note_on_c, 4, 50, 0
6, 595680, Note_on_c, 4, 74, 90
6, 595680, Note_on_c, 4, 62, 80
6, 595920, Note_on_c, 4, 62, 0
6, 595920, Note_on_c, 4, 74, 0
6, 595920, Note_on_c, 4, 76, 90
6, 595920, Note_on_c, 4, 60, 80
6, 596160, Note_on_c, 4, 60, 0
6, 596160, Note_on_c, 4, 76, 0
6, 596160, Note_on_c, 4, 77, 90
6, 596160, Note_on_c, 4, 59, 80
6, 596400, Note_on_c, 4, 59, 0
6, 596400, Note_on_c, 4, 57, 80
6, 596640, Note_on_c, 4, 57, 0
6, 596640, Note_on_c, 4, 77, 0
6, 596640, Note_on_c, 4, 59, 80
6, 596880, Note_on_c, 4, 59, 0
6, 596880, Note_on_c, 4, 55, 80
6, 597120, Note_on_c, 4, 55, 0
6, 597120, Note_on_c, 4, 60, 80
6, 597360, Note_on_c, 4, 76, 90
6, 597600, Note_on_c, 4, 76, 0
6, 597600, Note_on_c, 4, 60, 0
6, 597600, Note_on_c, 4, 77, 90
6, 597600, Note_on_c, 4, 62, 80
6, 597840, Note_on_c, 4, 62, 0
6, 597840, Note_on_c, 4, 77, 0
6, 597840, Note_on_c, 4, 79, 90
6, 597840, Note_on_c, 4, 64, 80
6, 598080, Note_on_c, 4, 64, 0
6, 598080, Note_on_c, 4, 79, 0
6, 598080, Note_on_c, 4, 81, 90
6, 598080, Note_on_c, 4, 65, 80
6, 598320, Note_on_c, 4, 65, 0
6, 598320, Note_on_c, 4, 81, 0
6, 598320, Note_on_c, 4, 83, 90
6, 598320, Note_on_c, 4, 67, 80
6, 598560, Note_on_c, 4, 67, 0
6, 598560, Note_on_c, 4, 83, 0
6, 598560, Note_on_c, 4, 84, 90
6, 598560, Note_on_c, 4, 69, 80
6, 598800, Note_on_c, 4, 69, 0
6, 598800, Note_on_c, 4, 84, 0
6, 598800, Note_on_c, 4, 86, 90
6, 598800, Note_on_c, 4, 71, 80
6, 599040, Note_on_c, 4, 71, 0
6, 599040, Note_on_c, 4, 86, 0
6, 599040, Note_on_c, 4, 88, 90
6, 599040, Note_on_c, 4, 72, 80
6, 599280, Note_on_c, 4, 72, 0
6, 599280, Note_on_c, 4, 88, 0
6, 599280, Note_on_c, 4, 86, 90
6, 599280, Note_on_c, 4, 71, 80
6, 599520, Note_on_c, 4, 71, 0
6, 599520, Note_on_c, 4, 86, 0
6, 599520, Note_on_c, 4, 84, 90
6, 599520, Note_on_c, 4, 69, 80
6, 599760, Note_on_c, 4, 69, 0
6, 599760, Note_on_c, 4, 84, 0
6, 599760, Note_on_c, 4, 83, 90
6, 599760, Note_on_c, 4, 67, 80
6, 600000, Note_on_c, 4, 67, 0
6, 600000, Note_on_c, 4, 83, 0
6, 600000, Note_on_c, 4, 81, 90
6, 600000, Note_on_c, 4, 65, 80
6, 600240, Note_on_c, 4, 65, 0
6, 600240, Note_on_c, 4, 81, 0
6, 600240, Note_on_c, 4, 79, 90
6, 600240, Note_on_c, 4, 64, 80
6, 600480, Note_on_c, 4, 64, 0
6, 600480, Note_on_c, 4, 79, 0
6, 600480, Note_on_c, 4, 77, 90
6, 600480, Note_on_c, 4, 62, 80
6, 600720, Note_on_c, 4, 62, 0
6, 600720, Note_on_c, 4, 77, 0
6, 600720, Note_on_c, 4, 76, 90
6, 600720, Note_on_c, 4, 60, 80
6, 600960, Note_on_c, 4, 60, 0
6, 600960, Note_on_c, 4, 76, 0
6, 600960, Note_on_c, 4, 76, 90
6, 600960, Note_on_c, 4, 60, 80
6, 601080, Note_on_c, 4, 60, 0
6, 601080, Note_on_c, 4, 76, 0
6, 601080, Note_on_c, 4, 74, 90
6, 601080, Note_on_c, 4, 59, 80
6, 601200, Note_on_c, 4, 59, 0
6, 601200, Note_on_c, 4, 74, 0
6, 601200, Note_on_c, 4, 76, 90
6, 601200, Note_on_c, 4, 60, 80
6, 601320, Note_on_c, 4, 60, 0
6, 601320, Note_on_c, 4, 76, 0
6, 601320, Note_on_c, 4, 74, 90
6, 601320, Note_on_c, 4, 59, 80
6, 601440, Note_on_c, 4, 59, 0
6, 601440, Note_on_c, 4, 74, 0
6, 601440, Note_on_c, 4, 76, 90
6, 601440, Note_on_c, 4, 60, 80
6, 601500, Note_on_c, 4, 60, 0
6, 601500, Note_on_c, 4, 76, 0
6, 601500, Note_on_c, 4, 74, 90
6, 601500, Note_on_c, 4, 59, 80
6, 601560, Note_on_c, 4, 59, 0
6, 601560, Note_on_c, 4, 74, 0
6, 601560, Note_on_c, 4, 76, 90
6, 601560, Note_on_c, 4, 60, 80
6, 601620, Note_on_c, 4, 60, 0
6, 601620, Note_on_c, 4, 76, 0
6, 601620, Note_on_c, 4, 74, 90
6, 601620, Note_on_c, 4, 59, 80
6, 601680, Note_on_c, 4, 59, 0
6, 601680, Note_on_c, 4, 74, 0
6, 601680, Note_on_c, 4, 76, 90
6, 601680, Note_on_c, 4, 60, 80
6, 601740, Note_on_c, 4, 60, 0
6, 601740, Note_on_c, 4, 76, 0
6, 601740, Note_on_c, 4, 74, 90
6, 601740, Note_on_c, 4, 59, 80
6, 601800, Note_on_c, 4, 59, 0
6, 601800, Note_on_c, 4, 74, 0
6, 601800, Note_on_c, 4, 76, 90
6, 601800, Note_on_c, 4, 60, 80
6, 601860, Note_on_c, 4, 60, 0
6, 601860, Note_on_c, 4, 76, 0
6, 601860, Note_on_c, 4, 74, 90
6, 601860, Note_on_c, 4, 59, 80
6, 601920, Note_on_c, 4, 59, 0
6, 601920, Note_on_c, 4, 74, 0
6, 601920, Note_on_c, 4, 76, 90
6, 601920, Note_on_c, 4, 60, 80
6, 601980, Note_on_c, 4, 60, 0
6, 601980, Note_on_c, 4, 76, 0
6, 601980, Note_on_c, 4, 74, 90
6, 601980, Note_on_c, 4, 59, 80
6, 602040, Note_on_c, 4, 59, 0
6, 602040, Note_on_c, 4, 74, 0
6, 602040, Note_on_c, 4, 76, 90
6, 602040, Note_on_c, 4, 60, 80
6, 602100, Note_on_c, 4, 60, 0
6, 602100, Note_on_c, 4, 76, 0
6, 602100, Note_on_c, 4, 74, 90
6, 602100, Note_on_c, 4, 59, 80
6, 602160, Note_on_c, 4, 59, 0
6, 602160, Note_on_c, 4, 74, 0
6, 602160, Note_on_c, 4, 76, 90
6, 602160, Note_on_c, 4, 60, 80
6, 602220, Note_on_c, 4, 60, 0
6, 602220, Note_on_c, 4, 76, 0
6, 602220, Note_on_c, 4, 74, 90
6, 602220, Note_on_c, 4, 59, 80
6, 602280, Note_on_c, 4, 59, 0
6, 602280, Note_on_c, 4, 74, 0
6, 602280, Note_on_c, 4, 76, 90
6, 602280, Note_on_c, 4, 60, 80
6, 602340, Note_on_c, 4, 60, 0
6, 602340, Note_on_c, 4, 76, 0
6, 602340, Note_on_c, 4, 74, 90
6, 602340, Note_on_c, 4, 59, 80
6, 602400, Note_on_c, 4, 59, 0
6, 602400, Note_on_c, 4, 74, 0
6, 602400, Note_on_c, 4, 76, 90
6, 602400, Note_on_c, 4, 60, 80
6, 602460, Note_on_c, 4, 60, 0
6, 602460, Note_on_c, 4, 76, 0
6, 602460, Note_on_c, 4, 74, 90
6, 602460, Note_on_c, 4, 59, 80
6, 602520, Note_on_c, 4, 59, 0
6, 602520, Note_on_c, 4, 74, 0
6, 602520, Note_on_c, 4, 76, 90
6, 602520, Note_on_c, 4, 60, 80
6, 602580, Note_on_c, 4, 60, 0
6, 602580, Note_on_c, 4, 76, 0
6, 602580, Note_on_c, 4, 74, 90
6, 602580, Note_on_c, 4, 59, 80
6, 602640, Note_on_c, 4, 59, 0
6, 602640, Note_on_c, 4, 74, 0
6, 602640, Note_on_c, 4, 72, 90
6, 602640, Note_on_c, 4, 57, 80
6, 602760, Note_on_c, 4, 57, 0
6, 602760, Note_on_c, 4, 72, 0
6, 602760, Note_on_c, 4, 74, 90
6, 602760, Note_on_c, 4, 59, 80
6, 602880, Note_on_c, 4, 59, 0
6, 602880, Note_on_c, 4, 74, 0
6, 602880, Note_on_c, 4, 72, 90
6, 602880, Note_on_c, 4, 60, 80
6, 603360, Note_on_c, 4, 60, 0
6, 603360, Note_on_c, 4, 72, 0
6, 614400, Note_on_c, 4, 62, 90
6, 614400, Note_on_c, 4, 47, 80
6, 614556, Note_on_c, 4, 62, 0
6, 614556, Note_on_c, 4, 65, 90
6, 614640, Note_on_c, 4, 47, 0
6, 614640, Note_on_c, 4, 43, 80
6, 614720, Note_on_c, 4, 65, 0
6, 614720, Note_on_c, 4, 67, 90
6, 614880, Note_on_c, 4, 67, 0
6, 614880, Note_on_c, 4, 43, 0
6, 614880, Note_on_c, 4, 71, 90
6, 614880, Note_on_c, 4, 50, 80
6, 615036, Note_on_c, 4, 71, 0
6, 615036, Note_on_c, 4, 67, 90
6, 615120, Note_on_c, 4, 50, 0
6, 615120, Note_on_c, 4, 43, 80
6, 615200, Note_on_c, 4, 67, 0
6, 615200, Note_on_c, 4, 65, 90
6, 615360, Note_on_c, 4, 65, 0
6, 615360, Note_on_c, 4, 43, 0
6, 615360, Note_on_c, 4, 62, 90
6, 615360, Note_on_c, 4, 47, 80
6, 615516, Note_on_c, 4, 62, 0
6, 615516, Note_on_c, 4, 65, 90
6, 615600, Note_on_c, 4, 47, 0
6, 615600, Note_on_c, 4, 43, 80
6, 615680, Note_on_c, 4, 65, 0
6, 615680, Note_on_c, 4, 67, 90
6, 615840, Note_on_c, 4, 67, 0
6, 615840, Note_on_c, 4, 43, 0
6, 615840, Note_on_c, 4, 71, 90
6, 615840, Note_on_c, 4, 50, 80
6, 615996, Note_on_c, 4, 71, 0
6, 615996, Note_on_c, 4, 67, 90
6, 616080, Note_on_c, 4, 50, 0
6, 616080, Note_on_c, 4, 43, 80
6, 616160, Note_on_c, 4, 67, 0
6, 616160, Note_on_c, 4, 65, 90
6, 616320, Note_on_c, 4, 65, 0
6, 616320, Note_on_c, 4, 43, 0
6, 616320, Note_on_c, 4, 62, 90
6, 616320, Note_on_c, 4, 47, 80
6, 616476, Note_on_c, 4, 62, 0
6, 616476, Note_on_c, 4, 65, 90
6, 616560, Note_on_c, 4, 47, 0
6, 616560, Note_on_c, 4, 43, 80
6, 616640, Note_on_c, 4, 65, 0
6, 616640, Note_on_c, 4, 67, 90
6, 616800, Note_on_c, 4, 67, 0
6, 616800, Note_on_c, 4, 43, 0
6, 616800, Note_on_c, 4, 71, 90
6, 616800, Note_on_c, 4, 50, 80
6, 616956, Note_on_c, 4, 71, 0
6, 616956, Note_on_c, 4, 67, 90
6, 617040, Note_on_c, 4, 50, 0
6, 617040, Note_on_c, 4, 43, 80
6, 617120, Note_on_c, 4, 67, 0
6, 617120, Note_on_c, 4, 65, 90
6, 617280, Note_on_c, 4, 65, 0
6, 617280, Note_on_c, 4, 43, 0
6, 617280, Note_on_c, 4, 62, 90
6, 617280, Note_on_c, 4, 47, 80
6, 617436, Note_on_c, 4, 62, 0
6, 617436, Note_on_c, 4, 65, 90
6, 617520, Note_on_c, 4, 47, 0
6, 617520, Note_on_c, 4, 43, 80
6, 617600, Note_on_c, 4, 65, 0
6, 617600, Note_on_c, 4, 67, 90
6, 617760, Note_on_c, 4, 67, 0
6, 617760, Note_on_c, 4, 43, 0
6, 617760, Note_on_c, 4, 71, 90
6, 617760, Note_on_c, 4, 50, 80
6, 617916, Note_on_c, 4, 71, 0
6, 617916, Note_on_c, 4, 67, 90
6, 618000, Note_on_c, 4, 50, 0
6, 618000, Note_on_c, 4, 43, 80
6, 618080, Note_on_c, 4, 67, 0
6, 618080, Note_on_c, 4, 65, 90
6, 618240, Note_on_c, 4, 65, 0
6, 618240, Note_on_c, 4, 43, 0
6, 618240, Note_on_c, 4, 64, 90
6, 618240, Note_on_c, 4, 67, 90
6, 618240, Note_on_c, 4, 72, 90
6, 618240, Note_on_c, 4, 48, 80
6, 618720, Note_on_c, 4, 48, 0
6, 618720, Note_on_c, 4, 64, 0
6, 618720, Note_on_c, 4, 67, 0
6, 618720, Note_on_c, 4, 72, 0
6, 621028, Note_on_c, 4, 62, 90
6, 621028, Note_on_c, 4, 43, 80
6, 621060, Note_on_c, 4, 65, 90
6, 621060, Note_on_c, 4, 47, 80
6, 621088, Note_on_c, 4, 67, 90
6, 621088, Note_on_c, 4, 50, 80
6, 621120, Note_on_c, 4, 71, 90
6, 621120, Note_on_c, 4, 55, 80
6, 621600, Note_on_c, 4, 55, 0
6, 621600, Note_on_c, 4, 62, 0
6, 621600, Note_on_c, 4, 67, 0
6, 621600, Note_on_c, 4, 43, 0
6, 621600, Note_on_c, 4, 65, 0
6, 621600, Note_on_c, 4, 47, 0
6, 621600, Note_on_c, 4, 50, 0
6, 621600, Note_on_c, 4, 71, 0
6, 624868, Note_on_c, 4, 55, 90
6, 624880, Note_on_c, 4, 43, 80
6, 624900, Note_on_c, 4, 62, 90
6, 624920, Note_on_c, 4, 50, 80
6, 624928, Note_on_c, 4, 65, 90
6, 624960, Note_on_c, 4, 67, 90
6, 624960, Note_on_c, 4, 53, 80
6, 625440, Note_on_c, 4, 53, 0
6, 625440, Note_on_c, 4, 65, 0
6, 625440, Note_on_c, 4, 43, 0
6, 625440, Note_on_c, 4, 62, 0
6, 625440, Note_on_c, 4, 55, 0
6, 625440, Note_on_c, 4, 67, 0
6, 625440, Note_on_c, 4, 50, 0
6, 632160, Note_on_c, 4, 76, 90
6, 632160, Note_on_c, 4, 79, 90
6, 632640, Note_on_c, 4, 60, 80
6, 632640, Note_on_c, 4, 64, 80
6, 632880, Note_on_c, 4, 79, 0
6, 632880, Note_on_c, 4, 76, 0
6, 632880, Note_on_c, 4, 72, 90
6, 632880, Note_on_c, 4, 76, 90
6, 633120, Note_on_c, 4, 76, 0
6, 633120, Note_on_c, 4, 64, 0
6, 633120, Note_on_c, 4, 60, 0
6, 633120, Note_on_c, 4, 72, 0
6, 633120, Note_on_c, 4, 74, 90
6, 633120, Note_on_c, 4, 77, 90
6, 633120, Note_on_c, 4, 55, 80
6, 633120, Note_on_c, 4, 62, 80
6, 633360, Note_on_c, 4, 77, 0
6, 633360, Note_on_c, 4, 74, 0
6, 633360, Note_on_c, 4, 71, 90
6, 633360, Note_on_c, 4, 74, 90
6, 633600, Note_on_c, 4, 74, 0
6, 633600, Note_on_c, 4, 62, 0
6, 633600, Note_on_c, 4, 55, 0
6, 633600, Note_on_c, 4, 71, 0
6, 633600, Note_on_c, 4, 72, 90
6, 633600, Note_on_c, 4, 52, 80
6, 633600, Note_on_c, 4, 60, 80
6, 634080, Note_on_c, 4, 60, 0
6, 634080, Note_on_c, 4, 52, 0
6, 634080, Note_on_c, 4, 72, 0
6, 645028, Note_on_c, 4, 72, 90
6, 645060, Note_on_c, 4, 76, 90
6, 645088, Note_on_c, 4, 79, 90
6, 645120, Note_on_c, 4, 84, 90
6, 645120, Note_on_c, 4, 60, 80
6, 645600, Note_on_c, 4, 60, 0
6, 645600, Note_on_c, 4, 79, 0
6, 645600, Note_on_c, 4, 72, 0
6, 645600, Note_on_c, 4, 76, 0
6, 645600, Note_on_c, 4, 84, 0
6, 645600, Note_on_c, 4, 60, 90
6, 645600, Note_on_c, 4, 48, 80
6, 645840, Note_on_c, 4, 48, 0
6, 645840, Note_on_c, 4, 60, 0
6, 645840, Note_on_c, 4, 60, 90
6, 645840, Note_on_c, 4, 48, 80
6, 646080, Note_on_c, 4, 48, 0
6, 646080, Note_on_c, 4, 60, 0
6, 646080, Note_on_c, 4, 59, 90
6, 646080, Note_on_c, 4, 47, 80
6, 646320, Note_on_c, 4, 47, 0
6, 646320, Note_on_c, 4, 59, 0
6, 646320, Note_on_c, 4, 62, 90
6, 646320, Note_on_c, 4, 50, 80
6, 646560, Note_on_c, 4, 50, 0
6, 646560, Note_on_c, 4, 62, 0
6, 646560, Note_on_c, 4, 65, 90
6, 646560, Note_on_c, 4, 53, 80
6, 646800, Note_on_c, 4, 53, 0
6, 646800, Note_on_c, 4, 65, 0
6, 646800, Note_on_c, 4, 65, 90
6, 646800, Note_on_c, 4, 53, 80
6, 647040, Note_on_c, 4, 53, 0
6, 647040, Note_on_c, 4, 65, 0
6, 647040, Note_on_c, 4, 64, 90
6, 647040, Note_on_c, 4, 52, 80
6, 647280, Note_on_c, 4, 52, 0
6, 647280, Note_on_c, 4, 64, 0
6, 647280, Note_on_c, 4, 67, 90
6, 647280, Note_on_c, 4, 55, 80
6, 647520, Note_on_c, 4, 55, 0
6, 647520, Note_on_c, 4, 67, 0
6, 647520, Note_on_c, 4, 72, 90
6, 647520, Note_on_c, 4, 60, 80
6, 647760, Note_on_c, 4, 60, 0
6, 647760, Note_on_c, 4, 72, 0
6, 647760, Note_on_c, 4, 72, 90
6, 647760, Note_on_c, 4, 60, 80
6, 648000, Note_on_c, 4, 60, 0
6, 648000, Note_on_c, 4, 72, 0
6, 648000, Note_on_c, 4, 71, 90
6, 648000, Note_on_c, 4, 59, 80
6, 648240, Note_on_c, 4, 59, 0
6, 648240, Note_on_c, 4, 71, 0
6, 648240, Note_on_c, 4, 74, 90
6, 648240, Note_on_c, 4, 62, 80
6, 648480, Note_on_c, 4, 62, 0
6, 648480, Note_on_c, 4, 74, 0
6, 648480, Note_on_c, 4, 77, 90
6, 648480, Note_on_c, 4, 65, 80
6, 648720, Note_on_c, 4, 65, 0
6, 648720, Note_on_c, 4, 77, 0
6, 648720, Note_on_c, 4, 77, 90
6, 648720, Note_on_c, 4, 65, 80
6, 648960, Note_on_c, 4, 65, 0
6, 648960, Note_on_c, 4, 77, 0
6, 648960, Note_on_c, 4, 76, 90
6, 648960, Note_on_c, 4, 60, 80
6, 649348, Note_on_c, 4, 67, 90
6, 649380, Note_on_c, 4, 72, 90
6, 649408, Note_on_c, 4, 76, 90
6, 649440, Note_on_c, 4, 60, 0
6, 649440, Note_on_c, 4, 76, 0
6, 649440, Note_on_c, 4, 79, 90
6, 649440, Note_on_c, 4, 55, 80
6, 649680, Note_on_c, 4, 55, 0
6, 649680, Note_on_c, 4, 55, 80
6, 649920, Note_on_c, 4, 55, 0
6, 649920, Note_on_c, 4, 79, 0
6, 649920, Note_on_c, 4, 76, 0
6, 649920, Note_on_c, 4, 67, 0
6, 649920, Note_on_c, 4, 72, 0
6, 649920, Note_on_c, 4, 62, 80
6, 650308, Note_on_c, 4, 67, 90
6, 650340, Note_on_c, 4, 71, 90
6, 650368, Note_on_c, 4, 74, 90
6, 650400, Note_on_c, 4, 62, 0
6, 650400, Note_on_c, 4, 79, 90
6, 650400, Note_on_c, 4, 55, 80
6, 650640, Note_on_c, 4, 55, 0
6, 650640, Note_on_c, 4, 55, 80
6, 650880, Note_on_c, 4, 55, 0
6, 650880, Note_on_c, 4, 79, 0
6, 650880, Note_on_c, 4, 74, 0
6, 650880, Note_on_c, 4, 71, 0
6, 650880, Note_on_c, 4, 67, 0
6, 650880, Note_on_c, 4, 64, 80
6, 651268, Note_on_c, 4, 67, 90
6, 651300, Note_on_c, 4, 72, 90
6, 651328, Note_on_c, 4, 76, 90
6, 651360, Note_on_c, 4, 64, 0
6, 651360, Note_on_c, 4, 79, 90
6, 651360, Note_on_c, 4, 55, 80
6, 651600, Note_on_c, 4, 55, 0
6, 651600, Note_on_c, 4, 55, 80
6, 651840, Note_on_c, 4, 55, 0
6, 651840, Note_on_c, 4, 79, 0
6, 651840, Note_on_c, 4, 76, 0
6, 651840, Note_on_c, 4, 72, 0
6, 651840, Note_on_c, 4, 67, 0
6, 651840, Note_on_c, 4, 59, 80
6, 652228, Note_on_c, 4, 67, 90
6, 652260, Note_on_c, 4, 74, 90
6, 652288, Note_on_c, 4, 77, 90
6, 652320, Note_on_c, 4, 59, 0
6, 652320, Note_on_c, 4, 79, 90
6, 652320, Note_on_c, 4, 55, 80
6, 652560, Note_on_c, 4, 55, 0
6, 652560, Note_on_c, 4, 55, 80
6, 652800, Note_on_c, 4, 55, 0
6, 652800, Note_on_c, 4, 79, 0
6, 652800, Note_on_c, 4, 77, 0
6, 652800, Note_on_c, 4, 74, 0
6, 652800, Note_on_c, 4, 67, 0
6, 652800, Note_on_c, 4, 60, 80
6, 653188, Note_on_c, 4, 67, 90
6, 653220, Note_on_c, 4, 72, 90
6, 653248, Note_on_c, 4, 76, 90
6, 653280, Note_on_c, 4, 60, 0
6, 653280, Note_on_c, 4, 79, 90
6, 653280, Note_on_c, 4, 55, 80
6, 653520, Note_on_c, 4, 55, 0
6, 653520, Note_on_c, 4, 55, 80
6, 653760, Note_on_c, 4, 55, 0
6, 653760, Note_on_c, 4, 79, 0
6, 653760, Note_on_c, 4, 76, 0
6, 653760, Note_on_c, 4, 72, 0
6, 653760, Note_on_c, 4, 67, 0
6, 653760, Note_on_c, 4, 62, 80
6, 654148, Note_on_c, 4, 67, 90
6, 654180, Note_on_c, 4, 71, 90
6, 654208, Note_on_c, 4, 74, 90
6, 654240, Note_on_c, 4, 62, 0
6, 654240, Note_on_c, 4, 79, 90
6, 654240, Note_on_c, 4, 55, 80
6, 654480, Note_on_c, 4, 55, 0
6, 654480, Note_on_c, 4, 55, 80
6, 654720, Note_on_c, 4, 55, 0
6, 654720, Note_on_c, 4, 79, 0
6, 654720, Note_on_c, 4, 74, 0
6, 654720, Note_on_c, 4, 71, 0
6, 654720, Note_on_c, 4, 67, 0
6, 654720, Note_on_c, 4, 64, 80
6, 655108, Note_on_c, 4, 67, 90
6, 655140, Note_on_c, 4, 72, 90
6, 655168, Note_on_c, 4, 76, 90
6, 655200, Note_on_c, 4, 64, 0
6, 655200, Note_on_c, 4, 79, 90
6, 655200, Note_on_c, 4, 55, 80
6, 655440, Note_on_c, 4, 55, 0
6, 655440, Note_on_c, 4, 55, 80
6, 655680, Note_on_c, 4, 55, 0
6, 655680, Note_on_c, 4, 79, 0
6, 655680, Note_on_c, 4, 76, 0
6, 655680, Note_on_c, 4, 72, 0
6, 655680, Note_on_c, 4, 67, 0
6, 655680, Note_on_c, 4, 59, 80
6, 656068, Note_on_c, 4, 67, 90
6, 656100, Note_on_c, 4, 74, 90
6, 656128, Note_on_c, 4, 77, 90
6, 656160, Note_on_c, 4, 59, 0
6, 656160, Note_on_c, 4, 79, 90
6, 656160, Note_on_c, 4, 55, 80
6, 656400, Note_on_c, 4, 55, 0
6, 656400, Note_on_c, 4, 55, 80
6, 656640, Note_on_c, 4, 55, 0
6, 656640, Note_on_c, 4, 79, 0
6, 656640, Note_on_c, 4, 77, 0
6, 656640, Note_on_c, 4, 74, 0
6, 656640, Note_on_c, 4, 67, 0
6, 656640, Note_on_c, 4, 60, 80
6, 656796, Note_on_c, 4, 76, 90
6, 656960, Note_on_c, 4, 76, 0
6, 656960, Note_on_c, 4, 77, 90
6, 657120, Note_on_c, 4, 77, 0
6, 657120, Note_on_c, 4, 60, 0
6, 657120, Note_on_c, 4, 79, 90
6, 657276, Note_on_c, 4, 79, 0
6, 657276, Note_on_c, 4, 77, 90
6, 657440, Note_on_c, 4, 77, 0
6, 657440, Note_on_c, 4, 76, 90
6, 657600, Note_on_c, 4, 76, 0
6, 657600, Note_on_c, 4, 57, 80
6, 657756, Note_on_c, 4, 72, 90
6, 657920, Note_on_c, 4, 72, 0
6, 657920, Note_on_c, 4, 74, 90
6, 658080, Note_on_c, 4, 74, 0
6, 658080, Note_on_c, 4, 57, 0
6, 658080, Note_on_c, 4, 76, 90
6, 658236, Note_on_c, 4, 76, 0
6, 658236, Note_on_c, 4, 74, 90
6, 658400, Note_on_c, 4, 74, 0
6, 658400, Note_on_c, 4, 72, 90
6, 658560, Note_on_c, 4, 72, 0
6, 658560, Note_on_c, 4, 53, 80
6, 658716, Note_on_c, 4, 69, 90
6, 658880, Note_on_c, 4, 69, 0
6, 658880, Note_on_c, 4, 71, 90
6, 659040, Note_on_c, 4, 71, 0
6, 659040, Note_on_c, 4, 53, 0
6, 659040, Note_on_c, 4, 72, 90
6, 659196, Note_on_c, 4, 72, 0
6, 659196, Note_on_c, 4, 71, 90
6, 659360, Note_on_c, 4, 71, 0
6, 659360, Note_on_c, 4, 69, 90
6, 659520, Note_on_c, 4, 69, 0
6, 659520, Note_on_c, 4, 50, 80
6, 659676, Note_on_c, 4, 65, 90
6, 659840, Note_on_c, 4, 65, 0
6, 659840, Note_on_c, 4, 67, 90
6, 660000, Note_on_c, 4, 67, 0
6, 660000, Note_on_c, 4, 50, 0
6, 660000, Note_on_c, 4, 69, 90
6, 660156, Note_on_c, 4, 69, 0
6, 660156, Note_on_c, 4, 67, 90
6, 660320, Note_on_c, 4, 67, 0
6, 660320, Note_on_c, 4, 65, 90
6, 660480, Note_on_c, 4, 65, 0
6, 660480, Note_on_c, 4, 74, 90
6, 660480, Note_on_c, 4, 79, 90
6, 660480, Note_on_c, 4, 83, 90
6, 660720, Note_on_c, 4, 55, 80
6, 660960, Note_on_c, 4, 55, 0
6, 660960, Note_on_c, 4, 54, 80
6, 661200, Note_on_c, 4, 54, 0
6, 661200, Note_on_c, 4, 53, 80
6, 661440, Note_on_c, 4, 53, 0
6, 661440, Note_on_c, 4, 74, 0
6, 661440, Note_on_c, 4, 79, 0
6, 661440, Note_on_c, 4, 83, 0
6, 661440, Note_on_c, 4, 72, 90
6, 661440, Note_on_c, 4, 76, 90
6, 661440, Note_on_c, 4, 79, 90
6, 661440, Note_on_c, 4, 84, 90
6, 661440, Note_on_c, 4, 52, 80
6, 661680, Note_on_c, 4, 52, 0
6, 661680, Note_on_c, 4, 60, 80
6, 661920, Note_on_c, 4, 60, 0
6, 661920, Note_on_c, 4, 84, 0
6, 661920, Note_on_c, 4, 72, 0
6, 661920, Note_on_c, 4, 76, 0
6, 661920, Note_on_c, 4, 79, 0
6, 661920, Note_on_c, 4, 67, 90
6, 661920, Note_on_c, 4, 72, 90
6, 661920, Note_on_c, 4, 76, 90
6, 661920, Note_on_c, 4, 59, 80
6, 662160, Note_on_c, 4, 59, 0
6, 662160, Note_on_c, 4, 58, 80
6, 662400, Note_on_c, 4, 58, 0
6, 662400, Note_on_c, 4, 76, 0
6, 662400, Note_on_c, 4, 72, 0
6, 662400, Note_on_c, 4, 67, 0
6, 662400, Note_on_c, 4, 69, 90
6, 662400, Note_on_c, 4, 72, 90
6, 662400, Note_on_c, 4, 77, 90
6, 662400, Note_on_c, 4, 57, 80
6, 662880, Note_on_c, 4, 57, 0
6, 662880, Note_on_c, 4, 69, 0
6, 662880, Note_on_c, 4, 72, 0
6, 662880, Note_on_c, 4, 77, 0
6, 662880, Note_on_c, 4, 72, 90
6, 662880, Note_on_c, 4, 77, 90
6, 662880, Note_on_c, 4, 81, 90
6, 662880, Note_on_c, 4, 53, 80
6, 663360, Note_on_c, 4, 53, 0
6, 663360, Note_on_c, 4, 72, 0
6, 663360, Note_on_c, 4, 77, 0
6, 663360, Note_on_c, 4, 81, 0
6, 663360, Note_on_c, 4, 72, 90
6, 663360, Note_on_c, 4, 76, 90
6, 663360, Note_on_c, 4, 79, 90
6, 663360, Note_on_c, 4, 55, 80
6, 663840, Note_on_c, 4, 55, 0
6, 663840, Note_on_c, 4, 72, 0
6, 663840, Note_on_c, 4, 76, 0
6, 663840, Note_on_c, 4, 79, 0
6, 663840, Note_on_c, 4, 62, 90
6, 663840, Note_on_c, 4, 67, 90
6, 663840, Note_on_c, 4, 71, 90
6, 663840, Note_on_c, 4, 43, 80
6, 664320, Note_on_c, 4, 43, 0
6, 664320, Note_on_c, 4, 62, 0
6, 664320, Note_on_c, 4, 67, 0
6, 664320, Note_on_c, 4, 71, 0
6, 664320, Note_on_c, 4, 72, 80
6, 664476, Note_on_c, 4, 88, 90
6, 664640, Note_on_c, 4, 88, 0
6, 664640, Note_on_c, 4, 86, 90
6, 664800, Note_on_c, 4, 86, 0
6, 664800, Note_on_c, 4, 72, 0
6, 664800, Note_on_c, 4, 84, 90
6, 664956, Note_on_c, 4, 84, 0
6, 664956, Note_on_c, 4, 86, 90
6, 665120, Note_on_c, 4, 86, 0
6, 665120, Note_on_c, 4, 88, 90
6, 665280, Note_on_c, 4, 88, 0
6, 665280, Note_on_c, 4, 69, 80
6, 665436, Note_on_c, 4, 84, 90
6, 665600, Note_on_c, 4, 84, 0
6, 665600, Note_on_c, 4, 83, 90
6, 665760, Note_on_c, 4, 83, 0
6, 665760, Note_on_c, 4, 69, 0
6, 665760, Note_on_c, 4, 81, 90
6, 665916, Note_on_c, 4, 81, 0
6, 665916, Note_on_c, 4, 83, 90
6, 666080, Note_on_c, 4, 83, 0
6, 666080, Note_on_c, 4, 84, 90
6, 666240, Note_on_c, 4, 84, 0
6, 666240, Note_on_c, 4, 65, 80
6, 666396, Note_on_c, 4, 81, 90
6, 666560, Note_on_c, 4, 81, 0
6, 666560, Note_on_c, 4, 79, 90
6, 666720, Note_on_c, 4, 79, 0
6, 666720, Note_on_c, 4, 65, 0
6, 666720, Note_on_c, 4, 77, 90
6, 666876, Note_on_c, 4, 77, 0
6, 666876, Note_on_c, 4, 79, 90
6, 667040, Note_on_c, 4, 79, 0
6, 667040, Note_on_c, 4, 81, 90
6, 667200, Note_on_c, 4, 81, 0
6, 667200, Note_on_c, 4, 62, 80
6, 667356, Note_on_c, 4, 77, 90
6, 667520, Note_on_c, 4, 77, 0
6, 667520, Note_on_c, 4, 76, 90
6, 667680, Note_on_c, 4, 76, 0
6, 667680, Note_on_c, 4, 62, 0
6, 667680, Note_on_c, 4, 74, 90
6, 667836, Note_on_c, 4, 74, 0
6, 667836, Note_on_c, 4, 76, 90
6, 668000, Note_on_c, 4, 76, 0
6, 668000, Note_on_c, 4, 77, 90
6, 668160, Note_on_c, 4, 77, 0
6, 668160, Note_on_c, 4, 74, 90
6, 668160, Note_on_c, 4, 79, 90
6, 668160, Note_on_c, 4, 83, 90
6, 668400, Note_on_c, 4, 55, 80
6, 668640, Note_on_c, 4, 55, 0
6, 668640, Note_on_c, 4, 54, 80
6, 668880, Note_on_c, 4, 54, 0
6, 668880, Note_on_c, 4, 53, 80
6, 669120, Note_on_c, 4, 53, 0
6, 669120, Note_on_c, 4, 74, 0
6, 669120, Note_on_c, 4, 79, 0
6, 669120, Note_on_c, 4, 83, 0
6, 669120, Note_on_c, 4, 72, 90
6, 669120, Note_on_c, 4, 76, 90
6, 669120, Note_on_c, 4, 79, 90
6, 669120, Note_on_c, 4, 84, 90
6, 669120, Note_on_c, 4, 52, 80
6, 669360, Note_on_c, 4, 52, 0
6, 669360, Note_on_c, 4, 60, 80
6, 669600, Note_on_c, 4, 60, 0
6, 669600, Note_on_c, 4, 84, 0
6, 669600, Note_on_c, 4, 72, 0
6, 669600, Note_on_c, 4, 76, 0
6, 669600, Note_on_c, 4, 79, 0
6, 669600, Note_on_c, 4, 67, 90
6, 669600, Note_on_c, 4, 72, 90
6, 669600, Note_on_c, 4, 76, 90
6, 669600, Note_on_c, 4, 59, 80
6, 669840, Note_on_c, 4, 59, 0
6, 669840, Note_on_c, 4, 58, 80
6, 670080, Note_on_c, 4, 58, 0
6, 670080, Note_on_c, 4, 76, 0
6, 670080, Note_on_c, 4, 72, 0
6, 670080, Note_on_c, 4, 67, 0
6, 670080, Note_on_c, 4, 69, 90
6, 670080, Note_on_c, 4, 72, 90
6, 670080, Note_on_c, 4, 77, 90
6, 670080, Note_on_c, 4, 57, 80
6, 670560, Note_on_c, 4, 57, 0
6, 670560, Note_on_c, 4, 69, 0
6, 670560, Note_on_c, 4, 72, 0
6, 670560, Note_on_c, 4, 77, 0
6, 670560, Note_on_c, 4, 72, 90
6, 670560, Note_on_c, 4, 77, 90
6, 670560, Note_on_c, 4, 81, 90
6, 670560, Note_on_c, 4, 53, 80
6, 671040, Note_on_c, 4, 53, 0
6, 671040, Note_on_c, 4, 72, 0
6, 671040, Note_on_c, 4, 77, 0
6, 671040, Note_on_c, 4, 81, 0
6, 671040, Note_on_c, 4, 72, 90
6, 671040, Note_on_c, 4, 76, 90
6, 671040, Note_on_c, 4, 79, 90
6, 671040, Note_on_c, 4, 55, 80
6, 671520, Note_on_c, 4, 55, 0
6, 671520, Note_on_c, 4, 72, 0
6, 671520, Note_on_c, 4, 76, 0
6, 671520, Note_on_c, 4, 79, 0
6, 671520, Note_on_c, 4, 62, 90
6, 671520, Note_on_c, 4, 67, 90
6, 671520, Note_on_c, 4, 71, 90
6, 671520, Note_on_c, 4, 43, 80
6, 672000, Note_on_c, 4, 43, 0
6, 672000, Note_on_c, 4, 62, 0
6, 672000, Note_on_c, 4, 67, 0
6, 672000, Note_on_c, 4, 71, 0
6, 672000, Note_on_c, 4, 74, 90
6, 672000, Note_on_c, 4, 79, 90
6, 672000, Note_on_c, 4, 83, 90
6, 672240, Note_on_c, 4, 55, 80
6, 672480, Note_on_c, 4, 55, 0
6, 672480, Note_on_c, 4, 54, 80
6, 672720, Note_on_c, 4, 54, 0
6, 672720, Note_on_c, 4, 53, 80
6, 672960, Note_on_c, 4, 53, 0
6, 672960, Note_on_c, 4, 74, 0
6, 672960, Note_on_c, 4, 79, 0
6, 672960, Note_on_c, 4, 83, 0
6, 672960, Note_on_c, 4, 72, 90
6, 672960, Note_on_c, 4, 76, 90
6, 672960, Note_on_c, 4, 79, 90
6, 672960, Note_on_c, 4, 84, 90
6, 672960, Note_on_c, 4, 52, 80
6, 673200, Note_on_c, 4, 52, 0
6, 673200, Note_on_c, 4, 60, 80
6, 673440, Note_on_c, 4, 60, 0
6, 673440, Note_on_c, 4, 84, 0
6, 673440, Note_on_c, 4, 72, 0
6, 673440, Note_on_c, 4, 76, 0
6, 673440, Note_on_c, 4, 79, 0
6, 673440, Note_on_c, 4, 67, 90
6, 673440, Note_on_c, 4, 72, 90
6, 673440, Note_on_c, 4, 76, 90
6, 673440, Note_on_c, 4, 59, 80
6, 673680, Note_on_c, 4, 59, 0
6, 673680, Note_on_c, 4, 58, 80
6, 673920, Note_on_c, 4, 58, 0
6, 673920, Note_on_c, 4, 76, 0
6, 673920, Note_on_c, 4, 72, 0
6, 673920, Note_on_c, 4, 67, 0
6, 673920, Note_on_c, 4, 69, 90
6, 673920, Note_on_c, 4, 72, 90
6, 673920, Note_on_c, 4, 77, 90
6, 673920, Note_on_c, 4, 57, 80
6, 674400, Note_on_c, 4, 57, 0
6, 674400, Note_on_c, 4, 69, 0
6, 674400, Note_on_c, 4, 72, 0
6, 674400, Note_on_c, 4, 77, 0
6, 674400, Note_on_c, 4, 72, 90
6, 674400, Note_on_c, 4, 77, 90
6, 674400, Note_on_c, 4, 81, 90
6, 674400, Note_on_c, 4, 53, 80
6, 674880, Note_on_c, 4, 53, 0
6, 674880, Note_on_c, 4, 72, 0
6, 674880, Note_on_c, 4, 77, 0
6, 674880, Note_on_c, 4, 81, 0
6, 674880, Note_on_c, 4, 72, 90
6, 674880, Note_on_c, 4, 76, 90
6, 674880, Note_on_c, 4, 79, 90
6, 674880, Note_on_c, 4, 55, 80
6, 675360, Note_on_c, 4, 55, 0
6, 675360, Note_on_c, 4, 72, 0
6, 675360, Note_on_c, 4, 76, 0
6, 675360, Note_on_c, 4, 79, 0
6, 675360, Note_on_c, 4, 62, 90
6, 675360, Note_on_c, 4, 67, 90
6, 675360, Note_on_c, 4, 71, 90
6, 675360, Note_on_c, 4, 43, 80
6, 675840, Note_on_c, 4, 43, 0
6, 675840, Note_on_c, 4, 62, 0
6, 675840, Note_on_c, 4, 67, 0
6, 675840, Note_on_c, 4, 71, 0
6, 675840, Note_on_c, 4, 64, 90
6, 675840, Note_on_c, 4, 72, 90
6, 675840, Note_on_c, 4, 45, 80
6, 676080, Note_on_c, 4, 45, 0
6, 676080, Note_on_c, 4, 48, 80
6, 676320, Note_on_c, 4, 48, 0
6, 676320, Note_on_c, 4, 72, 0
6, 676320, Note_on_c, 4, 64, 0
6, 676320, Note_on_c, 4, 52, 80
6, 676560, Note_on_c, 4, 52, 0
6, 676560, Note_on_c, 4, 57, 80
6, 676800, Note_on_c, 4, 57, 0
6, 676800, Note_on_c, 4, 62, 90
6, 676800, Note_on_c, 4, 65, 90
6, 676800, Note_on_c, 4, 69, 90
6, 676800, Note_on_c, 4, 72, 90
6, 676800, Note_on_c, 4, 41, 80
6, 677040, Note_on_c, 4, 41, 0
6, 677040, Note_on_c, 4, 45, 80
6, 677280, Note_on_c, 4, 45, 0
6, 677280, Note_on_c, 4, 72, 0
6, 677280, Note_on_c, 4, 62, 0
6, 677280, Note_on_c, 4, 65, 0
6, 677280, Note_on_c, 4, 69, 0
6, 677280, Note_on_c, 4, 50, 80
6, 677520, Note_on_c, 4, 50, 0
6, 677520, Note_on_c, 4, 53, 80
6, 677760, Note_on_c, 4, 53, 0
6, 677760, Note_on_c, 4, 64, 90
6, 677760, Note_on_c, 4, 67, 90
6, 677760, Note_on_c, 4, 72, 90
6, 677760, Note_on_c, 4, 43, 80
6, 678000, Note_on_c, 4, 43, 0
6, 678000, Note_on_c, 4, 48, 80
6, 678240, Note_on_c, 4, 48, 0
6, 678240, Note_on_c, 4, 72, 0
6, 678240, Note_on_c, 4, 67, 0
6, 678240, Note_on_c, 4, 64, 0
6, 678240, Note_on_c, 4, 52, 80
6, 678480, Note_on_c, 4, 52, 0
6, 678480, Note_on_c, 4, 55, 80
6, 678720, Note_on_c, 4, 55, 0
6, 678720, Note_on_c, 4, 62, 90
6, 678720, Note_on_c, 4, 65, 90
6, 678720, Note_on_c, 4, 71, 90
6, 678720, Note_on_c, 4, 43, 80
6, 678960, Note_on_c, 4, 43, 0
6, 678960, Note_on_c, 4, 50, 80
6, 679200, Note_on_c, 4, 50, 0
6, 679200, Note_on_c, 4, 71, 0
6, 679200, Note_on_c, 4, 65, 0
6, 679200, Note_on_c, 4, 62, 0
6, 679200, Note_on_c, 4, 53, 80
6, 679440, Note_on_c, 4, 53, 0
6, 679440, Note_on_c, 4, 55, 80
6, 679680, Note_on_c, 4, 55, 0
6, 679680, Note_on_c, 4, 60, 90
6, 679680, Note_on_c, 4, 64, 90
6, 679680, Note_on_c, 4, 69, 90
6, 679680, Note_on_c, 4, 72, 90
6, 679680, Note_on_c, 4, 45, 80
6, 679920, Note_on_c, 4, 45, 0
6, 679920, Note_on_c, 4, 48, 80
6, 680160, Note_on_c, 4, 48, 0
6, 680160, Note_on_c, 4, 72, 0
6, 680160, Note_on_c, 4, 60, 0
6, 680160, Note_on_c, 4, 64, 0
6, 680160, Note_on_c, 4, 69, 0
6, 680160, Note_on_c, 4, 52, 80
6, 680400, Note_on_c, 4, 52, 0
6, 680400, Note_on_c, 4, 57, 80
6, 680640, Note_on_c, 4, 57, 0
6, 680640, Note_on_c, 4, 62, 90
6, 680640, Note_on_c, 4, 65, 90
6, 680640, Note_on_c, 4, 69, 90
6, 680640, Note_on_c, 4, 72, 90
6, 680640, Note_on_c, 4, 41, 80
6, 680880, Note_on_c, 4, 41, 0
6, 680880, Note_on_c, 4, 45, 80
6, 681120, Note_on_c, 4, 45, 0
6, 681120, Note_on_c, 4, 72, 0
6, 681120, Note_on_c, 4, 62, 0
6, 681120, Note_on_c, 4, 65, 0
6, 681120, Note_on_c, 4, 69, 0
6, 681120, Note_on_c, 4, 50, 80
6, 681360, Note_on_c, 4, 50, 0
6, 681360, Note_on_c, 4, 53, 80
6, 681600, Note_on_c, 4, 53, 0
6, 681600, Note_on_c, 4, 64, 90
6, 681600, Note_on_c, 4, 67, 90
6, 681600, Note_on_c, 4, 72, 90
6, 681600, Note_on_c, 4, 43, 80
6, 681840, Note_on_c, 4, 43, 0
6, 681840, Note_on_c, 4, 48, 80
6, 682080, Note_on_c, 4, 48, 0
6, 682080, Note_on_c, 4, 72, 0
6, 682080, Note_on_c, 4, 67, 0
6, 682080, Note_on_c, 4, 64, 0
6, 682080, Note_on_c, 4, 52, 80
6, 682320, Note_on_c, 4, 52, 0
6, 682320, Note_on_c, 4, 55, 80
6, 682560, Note_on_c, 4, 55, 0
6, 682560, Note_on_c, 4, 62, 90
6, 682560, Note_on_c, 4, 65, 90
6, 682560, Note_on_c, 4, 67, 90
6, 682560, Note_on_c, 4, 71, 90
6, 682560, Note_on_c, 4, 43, 80
6, 682800, Note_on_c, 4, 43, 0
6, 682800, Note_on_c, 4, 47, 80
6, 683040, Note_on_c, 4, 47, 0
6, 683040, Note_on_c, 4, 71, 0
6, 683040, Note_on_c, 4, 62, 0
6, 683040, Note_on_c, 4, 65, 0
6, 683040, Note_on_c, 4, 67, 0
6, 683040, Note_on_c, 4, 50, 80
6, 683280, Note_on_c, 4, 50, 0
6, 683280, Note_on_c, 4, 55, 80
6, 683520, Note_on_c, 4, 55, 0
6, 683520, Note_on_c, 4, 60, 90
6, 683520, Note_on_c, 4, 64, 90
6, 683520, Note_on_c, 4, 67, 90
6, 683520, Note_on_c, 4, 72, 90
6, 683520, Note_on_c, 4, 48, 80
6, 684000, Note_on_c, 4, 48, 0
6, 684000, Note_on_c, 4, 67, 0
6, 684000, Note_on_c, 4, 60, 0
6, 684000, Note_on_c, 4, 64, 0
6, 684000, Note_on_c, 4, 72, 0
6, 691200, Note_on_c, 4, 76, 90
6, 691200, Note_on_c, 4, 43, 80
6, 691200, Note_on_c, 4, 55, 80
6, 693108, Note_on_c, 4, 76, 0
6, 693120, Note_on_c, 4, 55, 0
6, 693132, Note_on_c, 4, 43, 0
6, 693864, Note_on_c, 4, 76, 90
6, 693984, Note_on_c, 4, 76, 0
6, 694080, Note_on_c, 4, 76, 90
6, 694200, Note_on_c, 4, 76, 0
6, 694200, Note_on_c, 4, 74, 90
6, 694320, Note_on_c, 4, 74, 0
6, 694320, Note_on_c, 4, 76, 90
6, 694380, Note_on_c, 4, 74, 90
6, 694420, Note_on_c, 4, 76, 0
6, 694440, Note_on_c, 4, 76, 90
6, 694480, Note_on_c, 4, 74, 0
6, 694500, Note_on_c, 4, 74, 90
6, 694540, Note_on_c, 4, 76, 0
6, 694560, Note_on_c, 4, 76, 90
6, 694600, Note_on_c, 4, 74, 0
6, 694620, Note_on_c, 4, 74, 90
6, 694660, Note_on_c, 4, 76, 0
6, 694680, Note_on_c, 4, 76, 90
6, 694720, Note_on_c, 4, 74, 0
6, 694740, Note_on_c, 4, 74, 90
6, 694780, Note_on_c, 4, 76, 0
6, 694800, Note_on_c, 4, 72, 90
6, 694840, Note_on_c, 4, 74, 0
6, 694920, Note_on_c, 4, 72, 0
6, 694920, Note_on_c, 4, 74, 90
6, 695040, Note_on_c, 4, 74, 0
6, 695040, Note_on_c, 4, 72, 90
6, 695040, Note_on_c, 4, 48, 80
6, 695040, Note_on_c, 4, 52, 80
6, 695040, Note_on_c, 4, 55, 80
6, 695040, Note_on_c, 4, 60, 80
6, 695520, Note_on_c, 4, 60, 0
6, 695520, Note_on_c, 4, 52, 0
6, 695520, Note_on_c, 4, 72, 0
6, 695520, Note_on_c, 4, 48, 0
6, 695520, Note_on_c, 4, 55, 0
6, 707520, Note_on_c, 4, 76, 90
6, 707520, Note_on_c, 4, 60, 80
6, 707760, Note_on_c, 4, 60, 0
6, 707760, Note_on_c, 4, 64, 80
6, 708000, Note_on_c, 4, 64, 0
6, 708000, Note_on_c, 4, 76, 0
6, 708000, Note_on_c, 4, 76, 90
6, 708000, Note_on_c, 4, 67, 80
6, 708240, Note_on_c, 4, 67, 0
6, 708240, Note_on_c, 4, 64, 80
6, 708480, Note_on_c, 4, 64, 0
6, 708480, Note_on_c, 4, 76, 0
6, 708480, Note_on_c, 4, 76, 90
6, 708480, Note_on_c, 4, 60, 80
6, 708720, Note_on_c, 4, 60, 0
6, 708720, Note_on_c, 4, 55, 80
6, 708960, Note_on_c, 4, 55, 0
6, 708960, Note_on_c, 4, 60, 80
6, 709200, Note_on_c, 4, 60, 0
6, 709200, Note_on_c, 4, 55, 80
6, 709440, Note_on_c, 4, 55, 0
6, 709440, Note_on_c, 4, 76, 0
6, 709440, Note_on_c, 4, 79, 90
6, 709440, Note_on_c, 4, 62, 80
6, 709680, Note_on_c, 4, 62, 0
6, 709680, Note_on_c, 4, 79, 0
6, 709680, Note_on_c, 4, 77, 90
6, 709680, Note_on_c, 4, 55, 80
6, 709920, Note_on_c, 4, 55, 0
6, 709920, Note_on_c, 4, 77, 0
6, 709920, Note_on_c, 4, 76, 90
6, 709920, Note_on_c, 4, 62, 80
6, 710160, Note_on_c, 4, 62, 0
6, 710160, Note_on_c, 4, 76, 0
6, 710160, Note_on_c, 4, 77, 90
6, 710160, Note_on_c, 4, 55, 80
6, 710400, Note_on_c, 4, 55, 0
6, 710400, Note_on_c, 4, 77, 0
6, 710400, Note_on_c, 4, 79, 90
6, 710400, Note_on_c, 4, 64, 80
6, 710640, Note_on_c, 4, 64, 0
6, 710640, Note_on_c, 4, 79, 0
6, 710640, Note_on_c, 4, 76, 90
6, 710640, Note_on_c, 4, 60, 80
6, 710880, Note_on_c, 4, 60, 0
6, 710880, Note_on_c, 4, 76, 0
6, 710880, Note_on_c, 4, 72, 90
6, 710880, Note_on_c, 4, 64, 80
6, 711120, Note_on_c, 4, 64, 0
6, 711120, Note_on_c, 4, 67, 80
6, 711360, Note_on_c, 4, 67, 0
6, 711360, Note_on_c, 4, 72, 0
6, 711360, Note_on_c, 4, 84, 90
6, 711360, Note_on_c, 4, 64, 80
6, 711600, Note_on_c, 4, 64, 0
6, 711600, Note_on_c, 4, 60, 80
6, 711840, Note_on_c, 4, 60, 0
6, 711840, Note_on_c, 4, 64, 80
6, 712080, Note_on_c, 4, 64, 0
6, 712080, Note_on_c, 4, 84, 0
6, 712080, Note_on_c, 4, 83, 90
6, 712080, Note_on_c, 4, 60, 80
6, 712320, Note_on_c, 4, 60, 0
6, 712320, Note_on_c, 4, 83, 0
6, 712320, Note_on_c, 4, 83, 90
6, 712320, Note_on_c, 4, 65, 80
6, 712560, Note_on_c, 4, 65, 0
6, 712560, Note_on_c, 4, 83, 0
6, 712560, Note_on_c, 4, 81, 90
6, 712560, Note_on_c, 4, 60, 80
6, 712800, Note_on_c, 4, 60, 0
6, 712800, Note_on_c, 4, 81, 0
6, 712800, Note_on_c, 4, 79, 90
6, 712800, Note_on_c, 4, 64, 80
6, 713040, Note_on_c, 4, 64, 0
6, 713040, Note_on_c, 4, 60, 80
6, 713280, Note_on_c, 4, 60, 0
6, 713280, Note_on_c, 4, 79, 0
6, 713280, Note_on_c, 4, 84, 90
6, 713280, Note_on_c, 4, 64, 80
6, 713520, Note_on_c, 4, 64, 0
6, 713520, Note_on_c, 4, 60, 80
6, 713760, Note_on_c, 4, 60, 0
6, 713760, Note_on_c, 4, 64, 80
6, 714000, Note_on_c, 4, 64, 0
6, 714000, Note_on_c, 4, 84, 0
6, 714000, Note_on_c, 4, 83, 90
6, 714000, Note_on_c, 4, 60, 80
6, 714240, Note_on_c, 4, 60, 0
6, 714240, Note_on_c, 4, 83, 0
6, 714240, Note_on_c, 4, 83, 90
6, 714240, Note_on_c, 4, 65, 80
6, 714480, Note_on_c, 4, 65, 0
6, 714480, Note_on_c, 4, 83, 0
6, 714480, Note_on_c, 4, 81, 90
6, 714480, Note_on_c, 4, 60, 80
6, 714720, Note_on_c, 4, 60, 0
6, 714720, Note_on_c, 4, 81, 0
6, 714720, Note_on_c, 4, 79, 90
6, 714720, Note_on_c, 4, 64, 80
6, 714960, Note_on_c, 4, 64, 0
6, 714960, Note_on_c, 4, 60, 80
6, 715200, Note_on_c, 4, 60, 0
6, 715200, Note_on_c, 4, 79, 0
6, 715200, Note_on_c, 4, 72, 90
6, 715200, Note_on_c, 4, 64, 80
6, 715440, Note_on_c, 4, 64, 0
6, 715440, Note_on_c, 4, 65, 80
6, 715680, Note_on_c, 4, 65, 0
6, 715680, Note_on_c, 4, 72, 0
6, 715680, Note_on_c, 4, 72, 90
6, 715680, Note_on_c, 4, 67, 80
6, 715920, Note_on_c, 4, 67, 0
6, 715920, Note_on_c, 4, 64, 80
6, 716160, Note_on_c, 4, 64, 0
6, 716160, Note_on_c, 4, 72, 0
6, 716160, Note_on_c, 4, 72, 90
6, 716160, Note_on_c, 4, 60, 80
6, 716400, Note_on_c, 4, 60, 0
6, 716400, Note_on_c, 4, 55, 80
6, 716640, Note_on_c, 4, 55, 0
6, 716640, Note_on_c, 4, 60, 80
6, 716880, Note_on_c, 4, 60, 0
6, 716880, Note_on_c, 4, 55, 80
6, 717120, Note_on_c, 4, 55, 0
6, 717120, Note_on_c, 4, 72, 0
6, 717120, Note_on_c, 4, 76, 90
6, 717120, Note_on_c, 4, 59, 80
6, 717360, Note_on_c, 4, 59, 0
6, 717360, Note_on_c, 4, 76, 0
6, 717360, Note_on_c, 4, 74, 90
6, 717360, Note_on_c, 4, 55, 80
6, 717600, Note_on_c, 4, 55, 0
6, 717600, Note_on_c, 4, 74, 0
6, 717600, Note_on_c, 4, 72, 90
6, 717600, Note_on_c, 4, 59, 80
6, 717840, Note_on_c, 4, 59, 0
6, 717840, Note_on_c, 4, 72, 0
6, 717840, Note_on_c, 4, 74, 90
6, 717840, Note_on_c, 4, 55, 80
6, 718080, Note_on_c, 4, 55, 0
6, 718080, Note_on_c, 4, 74, 0
6, 718080, Note_on_c, 4, 76, 90
6, 718080, Note_on_c, 4, 60, 80
6, 718320, Note_on_c, 4, 60, 0
6, 718320, Note_on_c, 4, 55, 80
6, 718560, Note_on_c, 4, 55, 0
6, 718560, Note_on_c, 4, 76, 0
6, 718560, Note_on_c, 4, 76, 90
6, 718560, Note_on_c, 4, 60, 80
6, 718800, Note_on_c, 4, 60, 0
6, 718800, Note_on_c, 4, 55, 80
6, 719040, Note_on_c, 4, 55, 0
6, 719040, Note_on_c, 4, 76, 0
6, 719040, Note_on_c, 4, 79, 90
6, 719040, Note_on_c, 4, 62, 80
6, 719280, Note_on_c, 4, 62, 0
6, 719280, Note_on_c, 4, 79, 0
6, 719280, Note_on_c, 4, 77, 90
6, 719280, Note_on_c, 4, 55, 80
6, 719520, Note_on_c, 4, 55, 0
6, 719520, Note_on_c, 4, 77, 0
6, 719520, Note_on_c, 4, 76, 90
6, 719520, Note_on_c, 4, 62, 80
6, 719760, Note_on_c, 4, 62, 0
6, 719760, Note_on_c, 4, 76, 0
6, 719760, Note_on_c, 4, 77, 90
6, 719760, Note_on_c, 4, 55, 80
6, 720000, Note_on_c, 4, 55, 0
6, 720000, Note_on_c, 4, 77, 0
6, 720000, Note_on_c, 4, 79, 90
6, 720000, Note_on_c, 4, 64, 80
6, 720240, Note_on_c, 4, 64, 0
6, 720240, Note_on_c, 4, 60, 80
6, 720480, Note_on_c, 4, 60, 0
6, 720480, Note_on_c, 4, 79, 0
6, 720480, Note_on_c, 4, 79, 90
6, 720480, Note_on_c, 4, 55, 80
6, 720720, Note_on_c, 4, 55, 0
6, 720720, Note_on_c, 4, 52, 80
6, 720960, Note_on_c, 4, 52, 0
6, 720960, Note_on_c, 4, 79, 0
6, 720960, Note_on_c, 4, 81, 90
6, 720960, Note_on_c, 4, 48, 80
6, 721200, Note_on_c, 4, 81, 0
6, 721200, Note_on_c, 4, 79, 90
6, 721440, Note_on_c, 4, 79, 0
6, 721440, Note_on_c, 4, 48, 0
6, 721440, Note_on_c, 4, 77, 90
6, 721440, Note_on_c, 4, 60, 80
6, 721680, Note_on_c, 4, 77, 0
6, 721680, Note_on_c, 4, 76, 90
6, 721920, Note_on_c, 4, 76, 0
6, 721920, Note_on_c, 4, 60, 0
6, 721920, Note_on_c, 4, 76, 90
6, 721920, Note_on_c, 4, 55, 80
6, 722400, Note_on_c, 4, 55, 0
6, 722400, Note_on_c, 4, 76, 0
6, 722400, Note_on_c, 4, 74, 90
6, 722400, Note_on_c, 4, 67, 80
6, 722640, Note_on_c, 4, 67, 0
6, 722640, Note_on_c, 4, 66, 80
6, 722880, Note_on_c, 4, 66, 0
6, 722880, Note_on_c, 4, 74, 0
6, 722880, Note_on_c, 4, 67, 80
6, 723120, Note_on_c, 4, 67, 0
6, 723120, Note_on_c, 4, 65, 80
6, 723360, Note_on_c, 4, 65, 0
6, 723360, Note_on_c, 4, 64, 80
6, 723600, Note_on_c, 4, 64, 0
6, 723600, Note_on_c, 4, 62, 80
6, 723840, Note_on_c, 4, 62, 0
6, 723840, Note_on_c, 4, 72, 90
6, 723840, Note_on_c, 4, 60, 80
6, 724080, Note_on_c, 4, 72, 0
6, 724080, Note_on_c, 4, 67, 90
6, 724320, Note_on_c, 4, 67, 0
6, 724320, Note_on_c, 4, 60, 0
6, 724320, Note_on_c, 4, 64, 90
6, 724560, Note_on_c, 4, 64, 0
6, 724560, Note_on_c, 4, 72, 90
6, 724800, Note_on_c, 4, 72, 0
6, 724800, Note_on_c, 4, 71, 90
6, 724800, Note_on_c, 4, 55, 80
6, 725040, Note_on_c, 4, 71, 0
6, 725040, Note_on_c, 4, 67, 90
6, 725280, Note_on_c, 4, 67, 0
6, 725280, Note_on_c, 4, 55, 0
6, 725280, Note_on_c, 4, 62, 90
6, 725520, Note_on_c, 4, 62, 0
6, 725520, Note_on_c, 4, 71, 90
6, 725760, Note_on_c, 4, 71, 0
6, 725760, Note_on_c, 4, 72, 90
6, 725760, Note_on_c, 4, 48, 80
6, 726000, Note_on_c, 4, 72, 0
6, 726000, Note_on_c, 4, 67, 90
6, 726240, Note_on_c, 4, 67, 0
6, 726240, Note_on_c, 4, 48, 0
6, 726240, Note_on_c, 4, 64, 90
6, 726480, Note_on_c, 4, 64, 0
6, 726480, Note_on_c, 4, 67, 90
6, 726720, Note_on_c, 4, 67, 0
6, 726720, Note_on_c, 4, 72, 90
6, 726720, Note_on_c, 4, 64, 80
6, 726960, Note_on_c, 4, 64, 0
6, 726960, Note_on_c, 4, 60, 80
6, 727200, Note_on_c, 4, 60, 0
6, 727200, Note_on_c, 4, 72, 0
6, 727200, Note_on_c, 4, 64, 80
6, 727440, Note_on_c, 4, 64, 0
6, 727440, Note_on_c, 4, 60, 80
6, 727680, Note_on_c, 4, 60, 0
6, 727680, Note_on_c, 4, 72, 90
6, 727680, Note_on_c, 4, 65, 80
6, 727920, Note_on_c, 4, 65, 0
6, 727920, Note_on_c, 4, 72, 0
6, 727920, Note_on_c, 4, 71, 90
6, 727920, Note_on_c, 4, 60, 80
6, 728160, Note_on_c, 4, 60, 0
6, 728160, Note_on_c, 4, 71, 0
6, 728160, Note_on_c, 4, 72, 90
6, 728160, Note_on_c, 4, 64, 80
6, 728400, Note_on_c, 4, 64, 0
6, 728400, Note_on_c, 4, 72, 0
6, 728400, Note_on_c, 4, 71, 90
6, 728400, Note_on_c, 4, 60, 80
6, 728640, Note_on_c, 4, 60, 0
6, 728640, Note_on_c, 4, 71, 0
6, 728640, Note_on_c, 4, 72, 90
6, 728640, Note_on_c, 4, 64, 80
6, 728880, Note_on_c, 4, 64, 0
6, 728880, Note_on_c, 4, 60, 80
6, 729120, Note_on_c, 4, 60, 0
6, 729120, Note_on_c, 4, 72, 0
6, 729120, Note_on_c, 4, 64, 80
6, 729360, Note_on_c, 4, 64, 0
6, 729360, Note_on_c, 4, 60, 80
6, 729600, Note_on_c, 4, 60, 0
6, 729600, Note_on_c, 4, 84, 90
6, 729600, Note_on_c, 4, 65, 80
6, 729840, Note_on_c, 4, 65, 0
6, 729840, Note_on_c, 4, 84, 0
6, 729840, Note_on_c, 4, 83, 90
6, 729840, Note_on_c, 4, 60, 80
6, 730080, Note_on_c, 4, 60, 0
6, 730080, Note_on_c, 4, 83, 0
6, 730080, Note_on_c, 4, 84, 90
6, 730080, Note_on_c, 4, 64, 80
6, 730320, Note_on_c, 4, 64, 0
6, 730320, Note_on_c, 4, 84, 0
6, 730320, Note_on_c, 4, 83, 90
6, 730320, Note_on_c, 4, 60, 80
6, 730560, Note_on_c, 4, 60, 0
6, 730560, Note_on_c, 4, 83, 0
6, 730560, Note_on_c, 4, 84, 90
6, 730560, Note_on_c, 4, 64, 80
6, 730800, Note_on_c, 4, 64, 0
6, 730800, Note_on_c, 4, 60, 80
6, 731040, Note_on_c, 4, 60, 0
6, 731040, Note_on_c, 4, 84, 0
6, 731040, Note_on_c, 4, 64, 80
6, 731280, Note_on_c, 4, 64, 0
6, 731280, Note_on_c, 4, 60, 80
6, 731520, Note_on_c, 4, 60, 0
6, 731520, Note_on_c, 4, 60, 90
6, 731520, Note_on_c, 4, 48, 80
6, 731760, Note_on_c, 4, 60, 0
6, 731760, Note_on_c, 4, 64, 90
6, 732000, Note_on_c, 4, 64, 0
6, 732000, Note_on_c, 4, 48, 0
6, 732000, Note_on_c, 4, 67, 90
6, 732240, Note_on_c, 4, 67, 0
6, 732240, Note_on_c, 4, 72, 90
6, 732480, Note_on_c, 4, 72, 0
6, 732480, Note_on_c, 4, 59, 90
6, 732480, Note_on_c, 4, 43, 80
6, 732720, Note_on_c, 4, 59, 0
6, 732720, Note_on_c, 4, 62, 90
6, 732960, Note_on_c, 4, 62, 0
6, 732960, Note_on_c, 4, 43, 0
6, 732960, Note_on_c, 4, 67, 90
6, 733200, Note_on_c, 4, 67, 0
6, 733200, Note_on_c, 4, 71, 90
6, 733440, Note_on_c, 4, 71, 0
6, 733440, Note_on_c, 4, 60, 90
6, 733440, Note_on_c, 4, 48, 80
6, 733680, Note_on_c, 4, 60, 0
6, 733680, Note_on_c, 4, 64, 90
6, 733920, Note_on_c, 4, 64, 0
6, 733920, Note_on_c, 4, 48, 0
6, 733920, Note_on_c, 4, 67, 90
6, 734160, Note_on_c, 4, 67, 0
6, 734160, Note_on_c, 4, 72, 90
6, 734400, Note_on_c, 4, 72, 0
6, 734400, Note_on_c, 4, 62, 90
6, 734400, Note_on_c, 4, 55, 80
6, 734640, Note_on_c, 4, 62, 0
6, 734640, Note_on_c, 4, 67, 90
6, 734880, Note_on_c, 4, 67, 0
6, 734880, Note_on_c, 4, 55, 0
6, 734880, Note_on_c, 4, 71, 90
6, 735120, Note_on_c, 4, 71, 0
6, 735120, Note_on_c, 4, 74, 90
6, 735360, Note_on_c, 4, 74, 0
6, 735360, Note_on_c, 4, 76, 90
6, 735360, Note_on_c, 4, 52, 80
6, 735600, Note_on_c, 4, 76, 0
6, 735600, Note_on_c, 4, 72, 90
6, 735840, Note_on_c, 4, 72, 0
6, 735840, Note_on_c, 4, 52, 0
6, 735840, Note_on_c, 4, 76, 90
6, 735840, Note_on_c, 4, 48, 80
6, 736080, Note_on_c, 4, 76, 0
6, 736080, Note_on_c, 4, 72, 90
6, 736320, Note_on_c, 4, 72, 0
6, 736320, Note_on_c, 4, 48, 0
6, 736320, Note_on_c, 4, 76, 90
6, 736320, Note_on_c, 4, 55, 80
6, 736560, Note_on_c, 4, 76, 0
6, 736560, Note_on_c, 4, 74, 90
6, 736800, Note_on_c, 4, 74, 0
6, 736800, Note_on_c, 4, 55, 0
6, 736800, Note_on_c, 4, 72, 90
6, 736800, Note_on_c, 4, 43, 80
6, 737040, Note_on_c, 4, 72, 0
6, 737040, Note_on_c, 4, 71, 90
6, 737280, Note_on_c, 4, 71, 0
6, 737280, Note_on_c, 4, 43, 0
6, 737280, Note_on_c, 4, 72, 90
6, 737280, Note_on_c, 4, 48, 80
6, 737760, Note_on_c, 4, 48, 0
6, 737760, Note_on_c, 4, 72, 0
6, 741120, Note_on_c, 4, 64, 90
6, 741120, Note_on_c, 4, 60, 80
6, 741360, Note_on_c, 4, 60, 0
6, 741360, Note_on_c, 4, 64, 0
6, 741360, Note_on_c, 4, 60, 90
6, 741360, Note_on_c, 4, 55, 80
6, 741600, Note_on_c, 4, 55, 0
6, 741600, Note_on_c, 4, 60, 0
6, 741600, Note_on_c, 4, 64, 90
6, 741600, Note_on_c, 4, 60, 80
6, 741840, Note_on_c, 4, 60, 0
6, 741840, Note_on_c, 4, 64, 0
6, 741840, Note_on_c, 4, 65, 90
6, 741840, Note_on_c, 4, 62, 80
6, 742080, Note_on_c, 4, 62, 0
6, 742080, Note_on_c, 4, 65, 0
6, 742080, Note_on_c, 4, 67, 90
6, 742080, Note_on_c, 4, 64, 80
6, 742320, Note_on_c, 4, 64, 0
6, 742320, Note_on_c, 4, 67, 0
6, 742320, Note_on_c, 4, 64, 90
6, 742320, Note_on_c, 4, 60, 80
6, 742560, Note_on_c, 4, 60, 0
6, 742560, Note_on_c, 4, 64, 0
6, 742560, Note_on_c, 4, 65, 90
6, 742560, Note_on_c, 4, 62, 80
6, 742800, Note_on_c, 4, 62, 0
6, 742800, Note_on_c, 4, 65, 0
6, 742800, Note_on_c, 4, 62, 90
6, 742800, Note_on_c, 4, 59, 80
6, 743040, Note_on_c, 4, 59, 0
6, 743040, Note_on_c, 4, 62, 0
6, 743040, Note_on_c, 4, 64, 90
6, 743040, Note_on_c, 4, 60, 80
6, 743280, Note_on_c, 4, 60, 0
6, 743280, Note_on_c, 4, 64, 0
6, 743280, Note_on_c, 4, 60, 90
6, 743280, Note_on_c, 4, 55, 80
6, 743520, Note_on_c, 4, 55, 0
6, 743520, Note_on_c, 4, 60, 0
6, 743520, Note_on_c, 4, 64, 90
6, 743520, Note_on_c, 4, 60, 80
6, 743760, Note_on_c, 4, 60, 0
6, 743760, Note_on_c, 4, 64, 0
6, 743760, Note_on_c, 4, 65, 90
6, 743760, Note_on_c, 4, 62, 80
6, 744000, Note_on_c, 4, 62, 0
6, 744000, Note_on_c, 4, 65, 0
6, 744000, Note_on_c, 4, 67, 90
6, 744000, Note_on_c, 4, 64, 80
6, 744240, Note_on_c, 4, 64, 0
6, 744240, Note_on_c, 4, 67, 0
6, 744240, Note_on_c, 4, 64, 90
6, 744240, Note_on_c, 4, 60, 80
6, 744480, Note_on_c, 4, 60, 0
6, 744480, Note_on_c, 4, 64, 0
6, 744480, Note_on_c, 4, 65, 90
6, 744480, Note_on_c, 4, 62, 80
6, 744720, Note_on_c, 4, 62, 0
6, 744720, Note_on_c, 4, 65, 0
6, 744720, Note_on_c, 4, 62, 90
6, 744720, Note_on_c, 4, 59, 80
6, 744960, Note_on_c, 4, 59, 0
6, 744960, Note_on_c, 4, 62, 0
6, 744960, Note_on_c, 4, 64, 90
6, 744960, Note_on_c, 4, 60, 80
6, 745200, Note_on_c, 4, 60, 0
6, 745200, Note_on_c, 4, 64, 0
6, 745200, Note_on_c, 4, 60, 90
6, 745200, Note_on_c, 4, 55, 80
6, 745440, Note_on_c, 4, 55, 0
6, 745440, Note_on_c, 4, 60, 0
6, 745440, Note_on_c, 4, 64, 90
6, 745440, Note_on_c, 4, 60, 80
6, 745680, Note_on_c, 4, 60, 0
6, 745680, Note_on_c, 4, 64, 0
6, 745680, Note_on_c, 4, 65, 90
6, 745680, Note_on_c, 4, 62, 80
6, 745920, Note_on_c, 4, 62, 0
6, 745920, Note_on_c, 4, 65, 0
6, 745920, Note_on_c, 4, 67, 90
6, 745920, Note_on_c, 4, 64, 80
6, 746160, Note_on_c, 4, 64, 0
6, 746160, Note_on_c, 4, 67, 0
6, 746160, Note_on_c, 4, 64, 90
6, 746160, Note_on_c, 4, 60, 80
6, 746400, Note_on_c, 4, 60, 0
6, 746400, Note_on_c, 4, 64, 0
6, 746400, Note_on_c, 4, 65, 90
6, 746400, Note_on_c, 4, 62, 80
6, 746640, Note_on_c, 4, 62, 0
6, 746640, Note_on_c, 4, 65, 0
6, 746640, Note_on_c, 4, 62, 90
6, 746640, Note_on_c, 4, 59, 80
6, 746880, Note_on_c, 4, 59, 0
6, 746880, Note_on_c, 4, 62, 0
6, 746880, Note_on_c, 4, 64, 90
6, 746880, Note_on_c, 4, 60, 80
6, 747120, Note_on_c, 4, 60, 0
6, 747120, Note_on_c, 4, 64, 0
6, 747120, Note_on_c, 4, 60, 90
6, 747120, Note_on_c, 4, 55, 80
6, 747360, Note_on_c, 4, 55, 0
6, 747360, Note_on_c, 4, 60, 0
6, 747360, Note_on_c, 4, 64, 90
6, 747360, Note_on_c, 4, 60, 80
6, 747600, Note_on_c, 4, 60, 0
6, 747600, Note_on_c, 4, 64, 0
6, 747600, Note_on_c, 4, 67, 90
6, 747600, Note_on_c, 4, 64, 80
6, 747840, Note_on_c, 4, 64, 0
6, 747840, Note_on_c, 4, 67, 0
6, 747840, Note_on_c, 4, 64, 90
6, 747840, Note_on_c, 4, 60, 80
6, 748320, Note_on_c, 4, 60, 0
6, 748320, Note_on_c, 4, 64, 0
6, 748320, End_track
7, 0, Start_track
7, 0, Title_t, "Violin I"
7, 0, Control_c, 5, 0, 0
7, 0, Control_c, 5, 7, 100
7, 0, Control_c, 5, 10, 30
7, 0, Control_c, 5, 91, 94
7, 0, Control_c, 5, 93, 94
7, 1, Control_c, 5, 32, 1
7, 2, Program_c, 5, 48
7, 960, Note_on_c, 5, 76, 76
7, 1092, Note_on_c, 5, 76, 0
7, 1440, Note_on_c, 5, 76, 75
7, 1580, Note_on_c, 5, 76, 0
7, 1920, Note_on_c, 5, 76, 74
7, 2844, Note_on_c, 5, 76, 0
7, 2880, Note_on_c, 5, 79, 70
7, 3120, Note_on_c, 5, 77, 70
7, 3180, Note_on_c, 5, 79, 0
7, 3236, Note_on_c, 5, 77, 0
7, 3360, Note_on_c, 5, 76, 70
7, 3600, Note_on_c, 5, 77, 70
7, 3668, Note_on_c, 5, 76, 0
7, 3740, Note_on_c, 5, 77, 0
7, 3840, Note_on_c, 5, 79, 70
7, 4080, Note_on_c, 5, 76, 70
7, 4140, Note_on_c, 5, 79, 0
7, 4228, Note_on_c, 5, 76, 0
7, 4320, Note_on_c, 5, 72, 70
7, 4548, Note_on_c, 5, 72, 0
7, 4800, Note_on_c, 5, 84, 70
7, 5520, Note_on_c, 5, 83, 70
7, 5596, Note_on_c, 5, 84, 0
7, 5668, Note_on_c, 5, 83, 0
7, 5760, Note_on_c, 5, 83, 70
7, 6000, Note_on_c, 5, 81, 70
7, 6076, Note_on_c, 5, 83, 0
7, 6240, Note_on_c, 5, 79, 70
7, 6276, Note_on_c, 5, 81, 0
7, 6404, Note_on_c, 5, 79, 0
7, 6720, Note_on_c, 5, 84, 70
7, 7440, Note_on_c, 5, 83, 70
7, 7516, Note_on_c, 5, 84, 0
7, 7588, Note_on_c, 5, 83, 0
7, 7680, Note_on_c, 5, 83, 70
7, 7920, Note_on_c, 5, 81, 70
7, 7988, Note_on_c, 5, 83, 0
7, 8160, Note_on_c, 5, 79, 70
7, 8212, Note_on_c, 5, 81, 0
7, 8364, Note_on_c, 5, 79, 0
7, 8640, Note_on_c, 5, 72, 70
7, 8804, Note_on_c, 5, 72, 0
7, 9120, Note_on_c, 5, 72, 70
7, 9252, Note_on_c, 5, 72, 0
7, 9600, Note_on_c, 5, 72, 70
7, 10492, Note_on_c, 5, 72, 0
7, 10560, Note_on_c, 5, 76, 70
7, 10800, Note_on_c, 5, 74, 70
7, 10852, Note_on_c, 5, 76, 0
7, 10940, Note_on_c, 5, 74, 0
7, 11040, Note_on_c, 5, 72, 70
7, 11280, Note_on_c, 5, 74, 70
7, 11340, Note_on_c, 5, 72, 0
7, 11428, Note_on_c, 5, 74, 0
7, 11520, Note_on_c, 5, 76, 70
7, 11684, Note_on_c, 5, 76, 0
7, 12000, Note_on_c, 5, 76, 70
7, 12156, Note_on_c, 5, 76, 0
7, 12480, Note_on_c, 5, 79, 70
7, 12720, Note_on_c, 5, 77, 70
7, 12764, Note_on_c, 5, 79, 0
7, 12844, Note_on_c, 5, 77, 0
7, 12960, Note_on_c, 5, 76, 70
7, 13200, Note_on_c, 5, 77, 70
7, 13276, Note_on_c, 5, 76, 0
7, 13356, Note_on_c, 5, 77, 0
7, 13440, Note_on_c, 5, 79, 70
7, 13588, Note_on_c, 5, 79, 0
7, 13920, Note_on_c, 5, 79, 70
7, 14060, Note_on_c, 5, 79, 0
7, 14400, Note_on_c, 5, 81, 70
7, 14640, Note_on_c, 5, 79, 70
7, 14708, Note_on_c, 5, 81, 0
7, 14764, Note_on_c, 5, 79, 0
7, 14880, Note_on_c, 5, 77, 70
7, 14976, Note_on_c, 5, 77, 0
7, 15120, Note_on_c, 5, 76, 70
7, 15216, Note_on_c, 5, 76, 0
7, 15360, Note_on_c, 5, 76, 70
7, 15840, Note_on_c, 5, 74, 70
7, 15932, Note_on_c, 5, 76, 0
7, 16180, Note_on_c, 5, 74, 0
7, 17280, Note_on_c, 5, 72, 70
7, 17376, Note_on_c, 5, 72, 0
7, 17520, Note_on_c, 5, 67, 70
7, 17616, Note_on_c, 5, 67, 0
7, 17760, Note_on_c, 5, 72, 70
7, 17856, Note_on_c, 5, 72, 0
7, 18000, Note_on_c, 5, 67, 70
7, 18096, Note_on_c, 5, 67, 0
7, 18240, Note_on_c, 5, 71, 70
7, 18336, Note_on_c, 5, 71, 0
7, 18480, Note_on_c, 5, 67, 70
7, 18576, Note_on_c, 5, 67, 0
7, 18720, Note_on_c, 5, 71, 70
7, 18816, Note_on_c, 5, 71, 0
7, 18960, Note_on_c, 5, 67, 70
7, 19056, Note_on_c, 5, 67, 0
7, 19200, Note_on_c, 5, 72, 70
7, 19296, Note_on_c, 5, 72, 0
7, 19440, Note_on_c, 5, 76, 70
7, 19536, Note_on_c, 5, 76, 0
7, 19680, Note_on_c, 5, 79, 70
7, 19776, Note_on_c, 5, 79, 0
7, 19920, Note_on_c, 5, 76, 70
7, 20016, Note_on_c, 5, 76, 0
7, 20160, Note_on_c, 5, 72, 70
7, 20640, Note_on_c, 5, 72, 0
7, 21120, Note_on_c, 5, 72, 70
7, 21360, Note_on_c, 5, 71, 70
7, 21428, Note_on_c, 5, 72, 0
7, 21600, Note_on_c, 5, 72, 70
7, 21668, Note_on_c, 5, 71, 0
7, 21840, Note_on_c, 5, 71, 70
7, 21908, Note_on_c, 5, 72, 0
7, 21988, Note_on_c, 5, 71, 0
7, 22080, Note_on_c, 5, 72, 70
7, 22560, Note_on_c, 5, 72, 0
7, 23040, Note_on_c, 5, 84, 70
7, 23280, Note_on_c, 5, 83, 70
7, 23348, Note_on_c, 5, 84, 0
7, 23520, Note_on_c, 5, 84, 70
7, 23588, Note_on_c, 5, 83, 0
7, 23760, Note_on_c, 5, 83, 70
7, 23828, Note_on_c, 5, 84, 0
7, 23900, Note_on_c, 5, 83, 0
7, 24000, Note_on_c, 5, 84, 70
7, 24480, Note_on_c, 5, 84, 0
7, 25440, Note_on_c, 5, 79, 87
7, 25680, Note_on_c, 5, 76, 70
7, 25732, Note_on_c, 5, 79, 0
7, 25828, Note_on_c, 5, 76, 0
7, 26400, Note_on_c, 5, 77, 87
7, 26640, Note_on_c, 5, 74, 70
7, 26700, Note_on_c, 5, 77, 0
7, 26780, Note_on_c, 5, 74, 0
7, 27360, Note_on_c, 5, 76, 80
7, 27600, Note_on_c, 5, 72, 70
7, 27660, Note_on_c, 5, 76, 0
7, 27740, Note_on_c, 5, 72, 0
7, 28320, Note_on_c, 5, 74, 85
7, 28560, Note_on_c, 5, 71, 70
7, 28652, Note_on_c, 5, 74, 0
7, 28716, Note_on_c, 5, 71, 0
7, 28800, Note_on_c, 5, 72, 70
7, 29040, Note_on_c, 5, 67, 70
7, 29100, Note_on_c, 5, 72, 0
7, 29280, Note_on_c, 5, 64, 70
7, 29396, Note_on_c, 5, 67, 0
7, 29520, Note_on_c, 5, 67, 70
7, 29612, Note_on_c, 5, 64, 0
7, 29676, Note_on_c, 5, 67, 0
7, 29760, Note_on_c, 5, 67, 70
7, 30000, Note_on_c, 5, 65, 70
7, 30076, Note_on_c, 5, 67, 0
7, 30240, Note_on_c, 5, 64, 70
7, 30324, Note_on_c, 5, 65, 0
7, 30480, Note_on_c, 5, 62, 70
7, 30556, Note_on_c, 5, 64, 0
7, 30660, Note_on_c, 5, 62, 0
7, 30720, Note_on_c, 5, 60, 105
7, 31200, Note_on_c, 5, 60, 0
7, 31440, Note_on_c, 5, 84, 105
7, 31612, Note_on_c, 5, 84, 0
7, 31680, Note_on_c, 5, 84, 105
7, 31844, Note_on_c, 5, 84, 0
7, 31920, Note_on_c, 5, 84, 105
7, 32060, Note_on_c, 5, 84, 0
7, 32160, Note_on_c, 5, 84, 105
7, 32308, Note_on_c, 5, 84, 0
7, 32400, Note_on_c, 5, 84, 105
7, 32564, Note_on_c, 5, 84, 0
7, 32640, Note_on_c, 5, 83, 105
7, 32700, Note_on_c, 5, 84, 109
7, 32760, Note_on_c, 5, 86, 115
7, 32772, Note_on_c, 5, 83, 0
7, 32856, Note_on_c, 5, 84, 0
7, 33120, Note_on_c, 5, 86, 0
7, 33360, Note_on_c, 5, 77, 105
7, 33532, Note_on_c, 5, 77, 0
7, 33600, Note_on_c, 5, 77, 105
7, 33740, Note_on_c, 5, 77, 0
7, 33840, Note_on_c, 5, 77, 105
7, 33988, Note_on_c, 5, 77, 0
7, 34080, Note_on_c, 5, 77, 105
7, 34228, Note_on_c, 5, 77, 0
7, 34320, Note_on_c, 5, 77, 105
7, 34444, Note_on_c, 5, 77, 0
7, 34560, Note_on_c, 5, 76, 105
7, 34620, Note_on_c, 5, 77, 110
7, 34668, Note_on_c, 5, 76, 0
7, 34680, Note_on_c, 5, 79, 115
7, 34744, Note_on_c, 5, 77, 0
7, 35040, Note_on_c, 5, 79, 0
7, 35280, Note_on_c, 5, 84, 105
7, 35436, Note_on_c, 5, 84, 0
7, 35520, Note_on_c, 5, 84, 105
7, 35652, Note_on_c, 5, 84, 0
7, 35760, Note_on_c, 5, 84, 105
7, 35892, Note_on_c, 5, 84, 0
7, 36000, Note_on_c, 5, 84, 105
7, 36132, Note_on_c, 5, 84, 0
7, 36240, Note_on_c, 5, 84, 105
7, 36372, Note_on_c, 5, 84, 0
7, 36480, Note_on_c, 5, 83, 104
7, 36540, Note_on_c, 5, 84, 107
7, 36600, Note_on_c, 5, 86, 111
7, 36620, Note_on_c, 5, 83, 0
7, 36712, Note_on_c, 5, 84, 0
7, 36960, Note_on_c, 5, 86, 0
7, 37200, Note_on_c, 5, 77, 105
7, 37340, Note_on_c, 5, 77, 0
7, 37440, Note_on_c, 5, 77, 105
7, 37596, Note_on_c, 5, 77, 0
7, 37680, Note_on_c, 5, 77, 105
7, 37820, Note_on_c, 5, 77, 0
7, 37920, Note_on_c, 5, 77, 105
7, 38076, Note_on_c, 5, 77, 0
7, 38160, Note_on_c, 5, 77, 105
7, 38308, Note_on_c, 5, 77, 0
7, 38400, Note_on_c, 5, 76, 95
7, 38612, Note_on_c, 5, 76, 0
7, 38880, Note_on_c, 5, 77, 105
7, 39692, Note_on_c, 5, 77, 0
7, 39840, Note_on_c, 5, 76, 80
7, 40032, Note_on_c, 5, 76, 0
7, 40320, Note_on_c, 5, 81, 70
7, 40512, Note_on_c, 5, 81, 0
7, 40800, Note_on_c, 5, 79, 70
7, 40992, Note_on_c, 5, 79, 0
7, 41280, Note_on_c, 5, 77, 70
7, 41472, Note_on_c, 5, 77, 0
7, 41760, Note_on_c, 5, 76, 70
7, 41952, Note_on_c, 5, 76, 0
7, 42240, Note_on_c, 5, 74, 81
7, 42452, Note_on_c, 5, 74, 0
7, 42720, Note_on_c, 5, 77, 105
7, 43540, Note_on_c, 5, 77, 0
7, 43680, Note_on_c, 5, 76, 80
7, 43872, Note_on_c, 5, 76, 0
7, 44160, Note_on_c, 5, 81, 70
7, 44352, Note_on_c, 5, 81, 0
7, 44640, Note_on_c, 5, 79, 70
7, 44832, Note_on_c, 5, 79, 0
7, 45120, Note_on_c, 5, 77, 70
7, 45312, Note_on_c, 5, 77, 0
7, 45600, Note_on_c, 5, 76, 70
7, 45792, Note_on_c, 5, 76, 0
7, 46080, Note_on_c, 5, 74, 70
7, 46560, Note_on_c, 5, 74, 0
7, 46920, Note_on_c, 5, 76, 82
7, 47040, Note_on_c, 5, 74, 70
7, 47116, Note_on_c, 5, 76, 0
7, 47520, Note_on_c, 5, 74, 0
7, 47880, Note_on_c, 5, 76, 80
7, 48000, Note_on_c, 5, 74, 70
7, 48060, Note_on_c, 5, 76, 0
7, 48480, Note_on_c, 5, 74, 0
7, 48840, Note_on_c, 5, 76, 80
7, 48960, Note_on_c, 5, 74, 70
7, 49044, Note_on_c, 5, 76, 0
7, 49440, Note_on_c, 5, 74, 0
7, 49800, Note_on_c, 5, 76, 84
7, 49920, Note_on_c, 5, 74, 70
7, 50004, Note_on_c, 5, 76, 0
7, 50400, Note_on_c, 5, 74, 0
7, 53760, Note_on_c, 5, 79, 70
7, 54900, Note_on_c, 5, 79, 0
7, 55200, Note_on_c, 5, 84, 70
7, 55320, Note_on_c, 5, 76, 70
7, 55396, Note_on_c, 5, 84, 0
7, 55524, Note_on_c, 5, 76, 0
7, 55680, Note_on_c, 5, 79, 70
7, 56160, Note_on_c, 5, 77, 70
7, 56260, Note_on_c, 5, 79, 0
7, 56476, Note_on_c, 5, 77, 0
7, 57600, Note_on_c, 5, 76, 70
7, 58772, Note_on_c, 5, 76, 0
7, 59040, Note_on_c, 5, 77, 70
7, 59160, Note_on_c, 5, 81, 70
7, 59244, Note_on_c, 5, 77, 0
7, 59364, Note_on_c, 5, 81, 0
7, 59520, Note_on_c, 5, 72, 70
7, 60000, Note_on_c, 5, 71, 70
7, 60108, Note_on_c, 5, 72, 0
7, 60308, Note_on_c, 5, 71, 0
7, 61440, Note_on_c, 5, 72, 70
7, 62880, Note_on_c, 5, 74, 70
7, 62956, Note_on_c, 5, 72, 0
7, 63120, Note_on_c, 5, 76, 70
7, 63204, Note_on_c, 5, 74, 0
7, 63260, Note_on_c, 5, 76, 0
7, 63360, Note_on_c, 5, 77, 70
7, 64800, Note_on_c, 5, 79, 70
7, 64876, Note_on_c, 5, 77, 0
7, 65040, Note_on_c, 5, 81, 70
7, 65140, Note_on_c, 5, 79, 0
7, 65212, Note_on_c, 5, 81, 0
7, 65280, Note_on_c, 5, 79, 70
7, 65760, Note_on_c, 5, 72, 70
7, 65884, Note_on_c, 5, 79, 0
7, 66060, Note_on_c, 5, 72, 0
7, 66240, Note_on_c, 5, 74, 70
7, 66720, Note_on_c, 5, 77, 70
7, 66860, Note_on_c, 5, 74, 0
7, 67044, Note_on_c, 5, 77, 0
7, 67200, Note_on_c, 5, 75, 70
7, 67680, Note_on_c, 5, 76, 70
7, 67796, Note_on_c, 5, 75, 0
7, 68004, Note_on_c, 5, 76, 0
7, 69120, Note_on_c, 5, 72, 70
7, 70560, Note_on_c, 5, 74, 70
7, 70620, Note_on_c, 5, 72, 0
7, 70800, Note_on_c, 5, 76, 70
7, 70892, Note_on_c, 5, 74, 0
7, 70964, Note_on_c, 5, 76, 0
7, 71040, Note_on_c, 5, 77, 70
7, 71428, Note_on_c, 5, 77, 0
7, 71520, Note_on_c, 5, 77, 70
7, 71900, Note_on_c, 5, 77, 0
7, 72000, Note_on_c, 5, 77, 70
7, 72480, Note_on_c, 5, 79, 70
7, 72580, Note_on_c, 5, 77, 0
7, 72720, Note_on_c, 5, 81, 70
7, 72788, Note_on_c, 5, 79, 0
7, 72900, Note_on_c, 5, 81, 0
7, 72960, Note_on_c, 5, 79, 70
7, 73200, Note_on_c, 5, 81, 70
7, 73268, Note_on_c, 5, 79, 0
7, 73440, Note_on_c, 5, 83, 70
7, 73508, Note_on_c, 5, 81, 0
7, 73680, Note_on_c, 5, 84, 70
7, 73748, Note_on_c, 5, 83, 0
7, 73920, Note_on_c, 5, 83, 70
7, 73988, Note_on_c, 5, 84, 0
7, 74160, Note_on_c, 5, 84, 70
7, 74228, Note_on_c, 5, 83, 0
7, 74400, Note_on_c, 5, 83, 70
7, 74468, Note_on_c, 5, 84, 0
7, 74640, Note_on_c, 5, 84, 70
7, 74708, Note_on_c, 5, 83, 0
7, 74812, Note_on_c, 5, 84, 0
7, 74880, Note_on_c, 5, 80, 70
7, 75120, Note_on_c, 5, 81, 70
7, 75188, Note_on_c, 5, 80, 0
7, 75360, Note_on_c, 5, 80, 70
7, 75428, Note_on_c, 5, 81, 0
7, 75600, Note_on_c, 5, 81, 70
7, 75668, Note_on_c, 5, 80, 0
7, 75788, Note_on_c, 5, 81, 0
7, 75840, Note_on_c, 5, 76, 70
7, 76080, Note_on_c, 5, 77, 70
7, 76148, Note_on_c, 5, 76, 0
7, 76320, Note_on_c, 5, 76, 70
7, 76388, Note_on_c, 5, 77, 0
7, 76560, Note_on_c, 5, 77, 70
7, 76628, Note_on_c, 5, 76, 0
7, 76740, Note_on_c, 5, 77, 0
7, 76800, Note_on_c, 5, 76, 70
7, 77280, Note_on_c, 5, 79, 70
7, 77364, Note_on_c, 5, 76, 0
7, 78156, Note_on_c, 5, 79, 0
7, 78240, Note_on_c, 5, 77, 70
7, 78444, Note_on_c, 5, 77, 0
7, 78480, Note_on_c, 5, 76, 70
7, 78668, Note_on_c, 5, 76, 0
7, 78720, Note_on_c, 5, 76, 70
7, 78960, Note_on_c, 5, 74, 70
7, 79004, Note_on_c, 5, 76, 0
7, 79200, Note_on_c, 5, 72, 70
7, 79252, Note_on_c, 5, 74, 0
7, 80160, Note_on_c, 5, 71, 70
7, 80260, Note_on_c, 5, 72, 0
7, 80500, Note_on_c, 5, 71, 0
7, 80640, Note_on_c, 5, 72, 70
7, 80972, Note_on_c, 5, 72, 0
7, 81120, Note_on_c, 5, 60, 105
7, 81216, Note_on_c, 5, 60, 0
7, 81360, Note_on_c, 5, 60, 105
7, 81456, Note_on_c, 5, 60, 0
7, 81600, Note_on_c, 5, 59, 105
7, 81840, Note_on_c, 5, 62, 105
7, 81916, Note_on_c, 5, 59, 0
7, 81980, Note_on_c, 5, 62, 0
7, 82080, Note_on_c, 5, 65, 105
7, 82176, Note_on_c, 5, 65, 0
7, 82320, Note_on_c, 5, 65, 105
7, 82416, Note_on_c, 5, 65, 0
7, 82560, Note_on_c, 5, 64, 105
7, 82800, Note_on_c, 5, 67, 105
7, 82868, Note_on_c, 5, 64, 0
7, 82956, Note_on_c, 5, 67, 0
7, 83040, Note_on_c, 5, 72, 105
7, 83136, Note_on_c, 5, 72, 0
7, 83280, Note_on_c, 5, 72, 105
7, 83376, Note_on_c, 5, 72, 0
7, 83520, Note_on_c, 5, 71, 105
7, 83760, Note_on_c, 5, 74, 105
7, 83844, Note_on_c, 5, 71, 0
7, 83892, Note_on_c, 5, 74, 0
7, 84000, Note_on_c, 5, 77, 105
7, 84096, Note_on_c, 5, 77, 0
7, 84240, Note_on_c, 5, 77, 105
7, 84336, Note_on_c, 5, 77, 0
7, 84480, Note_on_c, 5, 76, 105
7, 84812, Note_on_c, 5, 76, 0
7, 84880, Note_on_c, 5, 64, 104
7, 84920, Note_on_c, 5, 72, 105
7, 84960, Note_on_c, 5, 79, 109
7, 85068, Note_on_c, 5, 64, 0
7, 85440, Note_on_c, 5, 79, 0
7, 85444, Note_on_c, 5, 72, 0
7, 85920, Note_on_c, 5, 83, 105
7, 86400, Note_on_c, 5, 83, 0
7, 86880, Note_on_c, 5, 84, 105
7, 87360, Note_on_c, 5, 84, 0
7, 87840, Note_on_c, 5, 77, 105
7, 88252, Note_on_c, 5, 77, 0
7, 88320, Note_on_c, 5, 76, 105
7, 88692, Note_on_c, 5, 76, 0
7, 88696, Note_on_c, 5, 64, 105
7, 88752, Note_on_c, 5, 72, 112
7, 88800, Note_on_c, 5, 79, 113
7, 88908, Note_on_c, 5, 64, 0
7, 89232, Note_on_c, 5, 72, 0
7, 89280, Note_on_c, 5, 79, 0
7, 89760, Note_on_c, 5, 83, 105
7, 90240, Note_on_c, 5, 83, 0
7, 90720, Note_on_c, 5, 84, 105
7, 91200, Note_on_c, 5, 84, 0
7, 91680, Note_on_c, 5, 77, 105
7, 92108, Note_on_c, 5, 77, 0
7, 92160, Note_on_c, 5, 76, 105
7, 92588, Note_on_c, 5, 76, 0
7, 93000, Note_on_c, 5, 76, 105
7, 93000, Note_on_c, 5, 84, 105
7, 93084, Note_on_c, 5, 84, 0
7, 93084, Note_on_c, 5, 76, 0
7, 93120, Note_on_c, 5, 76, 113
7, 93120, Note_on_c, 5, 84, 113
7, 93600, Note_on_c, 5, 84, 0
7, 93600, Note_on_c, 5, 76, 0
7, 93960, Note_on_c, 5, 76, 105
7, 93960, Note_on_c, 5, 84, 105
7, 94044, Note_on_c, 5, 84, 0
7, 94060, Note_on_c, 5, 76, 0
7, 94080, Note_on_c, 5, 74, 117
7, 94080, Note_on_c, 5, 84, 117
7, 94560, Note_on_c, 5, 84, 0
7, 94560, Note_on_c, 5, 74, 0
7, 94920, Note_on_c, 5, 74, 105
7, 94920, Note_on_c, 5, 84, 105
7, 95012, Note_on_c, 5, 84, 0
7, 95012, Note_on_c, 5, 74, 0
7, 95040, Note_on_c, 5, 74, 115
7, 95040, Note_on_c, 5, 83, 115
7, 95520, Note_on_c, 5, 83, 0
7, 95520, Note_on_c, 5, 74, 0
7, 95880, Note_on_c, 5, 74, 105
7, 95880, Note_on_c, 5, 83, 105
7, 95964, Note_on_c, 5, 83, 0
7, 95964, Note_on_c, 5, 74, 0
7, 96000, Note_on_c, 5, 76, 114
7, 96000, Note_on_c, 5, 84, 114
7, 96884, Note_on_c, 5, 84, 0
7, 96884, Note_on_c, 5, 76, 0
7, 96960, Note_on_c, 5, 60, 118
7, 97200, Note_on_c, 5, 55, 105
7, 97252, Note_on_c, 5, 60, 0
7, 97348, Note_on_c, 5, 55, 0
7, 97440, Note_on_c, 5, 64, 105
7, 97536, Note_on_c, 5, 64, 0
7, 97680, Note_on_c, 5, 64, 105
7, 97776, Note_on_c, 5, 64, 0
7, 97920, Note_on_c, 5, 64, 120
7, 98160, Note_on_c, 5, 60, 105
7, 98236, Note_on_c, 5, 64, 0
7, 98316, Note_on_c, 5, 60, 0
7, 98400, Note_on_c, 5, 67, 105
7, 98496, Note_on_c, 5, 67, 0
7, 98640, Note_on_c, 5, 67, 105
7, 98736, Note_on_c, 5, 67, 0
7, 98880, Note_on_c, 5, 67, 118
7, 99120, Note_on_c, 5, 64, 105
7, 99180, Note_on_c, 5, 67, 0
7, 99260, Note_on_c, 5, 64, 0
7, 99360, Note_on_c, 5, 72, 105
7, 99456, Note_on_c, 5, 72, 0
7, 99600, Note_on_c, 5, 72, 105
7, 99696, Note_on_c, 5, 72, 0
7, 99840, Note_on_c, 5, 72, 117
7, 100548, Note_on_c, 5, 72, 0
7, 104160, Note_on_c, 5, 79, 72
7, 104256, Note_on_c, 5, 79, 0
7, 104640, Note_on_c, 5, 79, 85
7, 104736, Note_on_c, 5, 79, 0
7, 105120, Note_on_c, 5, 79, 75
7, 105216, Note_on_c, 5, 79, 0
7, 105600, Note_on_c, 5, 79, 90
7, 105696, Note_on_c, 5, 79, 0
7, 106080, Note_on_c, 5, 79, 79
7, 106176, Note_on_c, 5, 79, 0
7, 106560, Note_on_c, 5, 79, 95
7, 106656, Note_on_c, 5, 79, 0
7, 107040, Note_on_c, 5, 79, 82
7, 107136, Note_on_c, 5, 79, 0
7, 107520, Note_on_c, 5, 79, 99
7, 107616, Note_on_c, 5, 79, 0
7, 108000, Note_on_c, 5, 79, 85
7, 108096, Note_on_c, 5, 79, 0
7, 108480, Note_on_c, 5, 79, 97
7, 108576, Note_on_c, 5, 79, 0
7, 108960, Note_on_c, 5, 79, 89
7, 109056, Note_on_c, 5, 79, 0
7, 109440, Note_on_c, 5, 79, 91
7, 110160, Note_on_c, 5, 76, 94
7, 110228, Note_on_c, 5, 79, 0
7, 110324, Note_on_c, 5, 76, 0
7, 110400, Note_on_c, 5, 84, 94
7, 110880, Note_on_c, 5, 84, 0
7, 146880, Note_on_c, 5, 64, 105
7, 146880, Note_on_c, 5, 72, 105
7, 147260, Note_on_c, 5, 72, 0
7, 147260, Note_on_c, 5, 64, 0
7, 147360, Note_on_c, 5, 72, 105
7, 147360, Note_on_c, 5, 76, 105
7, 147376, Note_on_c, 5, 67, 105
7, 147788, Note_on_c, 5, 67, 0
7, 147788, Note_on_c, 5, 76, 0
7, 147788, Note_on_c, 5, 72, 0
7, 147840, Note_on_c, 5, 72, 105
7, 147840, Note_on_c, 5, 79, 105
7, 148320, Note_on_c, 5, 79, 0
7, 148320, Note_on_c, 5, 72, 0
7, 148800, Note_on_c, 5, 72, 105
7, 148800, Note_on_c, 5, 76, 105
7, 148808, Note_on_c, 5, 67, 105
7, 149180, Note_on_c, 5, 72, 0
7, 149188, Note_on_c, 5, 67, 0
7, 149188, Note_on_c, 5, 76, 0
7, 149280, Note_on_c, 5, 79, 105
7, 149700, Note_on_c, 5, 79, 0
7, 149760, Note_on_c, 5, 76, 105
7, 149760, Note_on_c, 5, 84, 105
7, 150240, Note_on_c, 5, 84, 0
7, 150240, Note_on_c, 5, 76, 0
7, 151680, Note_on_c, 5, 65, 70
7, 152112, Note_on_c, 5, 65, 0
7, 152160, Note_on_c, 5, 65, 70
7, 152592, Note_on_c, 5, 65, 0
7, 152640, Note_on_c, 5, 65, 70
7, 153072, Note_on_c, 5, 65, 0
7, 153120, Note_on_c, 5, 65, 70
7, 153552, Note_on_c, 5, 65, 0
7, 153600, Note_on_c, 5, 64, 70
7, 155412, Note_on_c, 5, 64, 0
7, 155520, Note_on_c, 5, 64, 70
7, 155952, Note_on_c, 5, 64, 0
7, 156000, Note_on_c, 5, 64, 70
7, 156432, Note_on_c, 5, 64, 0
7, 156480, Note_on_c, 5, 62, 70
7, 156912, Note_on_c, 5, 62, 0
7, 156960, Note_on_c, 5, 62, 70
7, 157392, Note_on_c, 5, 62, 0
7, 157440, Note_on_c, 5, 60, 70
7, 158400, Note_on_c, 5, 67, 70
7, 158492, Note_on_c, 5, 60, 0
7, 159252, Note_on_c, 5, 67, 0
7, 159360, Note_on_c, 5, 65, 84
7, 159600, Note_on_c, 5, 60, 70
7, 159668, Note_on_c, 5, 65, 0
7, 159840, Note_on_c, 5, 65, 87
7, 159908, Note_on_c, 5, 60, 0
7, 160080, Note_on_c, 5, 60, 70
7, 160148, Note_on_c, 5, 65, 0
7, 160320, Note_on_c, 5, 65, 82
7, 160388, Note_on_c, 5, 60, 0
7, 160560, Note_on_c, 5, 60, 70
7, 160628, Note_on_c, 5, 65, 0
7, 160800, Note_on_c, 5, 65, 82
7, 160868, Note_on_c, 5, 60, 0
7, 161040, Note_on_c, 5, 60, 70
7, 161108, Note_on_c, 5, 65, 0
7, 161220, Note_on_c, 5, 60, 0
7, 161280, Note_on_c, 5, 64, 76
7, 163092, Note_on_c, 5, 64, 0
7, 163200, Note_on_c, 5, 64, 92
7, 163440, Note_on_c, 5, 55, 70
7, 163508, Note_on_c, 5, 64, 0
7, 163680, Note_on_c, 5, 64, 91
7, 163748, Note_on_c, 5, 55, 0
7, 163920, Note_on_c, 5, 55, 70
7, 163988, Note_on_c, 5, 64, 0
7, 164160, Note_on_c, 5, 62, 82
7, 164228, Note_on_c, 5, 55, 0
7, 164400, Note_on_c, 5, 55, 70
7, 164468, Note_on_c, 5, 62, 0
7, 164640, Note_on_c, 5, 62, 80
7, 164708, Note_on_c, 5, 55, 0
7, 164880, Note_on_c, 5, 55, 70
7, 164948, Note_on_c, 5, 62, 0
7, 165060, Note_on_c, 5, 55, 0
7, 165600, Note_on_c, 5, 72, 70
7, 166468, Note_on_c, 5, 72, 0
7, 166560, Note_on_c, 5, 72, 70
7, 167436, Note_on_c, 5, 72, 0
7, 167520, Note_on_c, 5, 72, 70
7, 168412, Note_on_c, 5, 72, 0
7, 168480, Note_on_c, 5, 72, 70
7, 168960, Note_on_c, 5, 72, 0
7, 168960, Note_on_c, 5, 77, 70
7, 169396, Note_on_c, 5, 77, 0
7, 169440, Note_on_c, 5, 76, 70
7, 169860, Note_on_c, 5, 76, 0
7, 169920, Note_on_c, 5, 74, 70
7, 170400, Note_on_c, 5, 72, 70
7, 170476, Note_on_c, 5, 74, 0
7, 170724, Note_on_c, 5, 72, 0
7, 170880, Note_on_c, 5, 76, 70
7, 171600, Note_on_c, 5, 72, 70
7, 171676, Note_on_c, 5, 76, 0
7, 171772, Note_on_c, 5, 72, 0
7, 171840, Note_on_c, 5, 71, 70
7, 172320, Note_on_c, 5, 71, 0
7, 189600, Note_on_c, 5, 67, 70
7, 189660, Note_on_c, 5, 67, 0
7, 189660, Note_on_c, 5, 66, 70
7, 189720, Note_on_c, 5, 66, 0
7, 189720, Note_on_c, 5, 67, 70
7, 189780, Note_on_c, 5, 67, 0
7, 189780, Note_on_c, 5, 66, 70
7, 189840, Note_on_c, 5, 66, 0
7, 189840, Note_on_c, 5, 67, 70
7, 189900, Note_on_c, 5, 67, 0
7, 189900, Note_on_c, 5, 66, 70
7, 189960, Note_on_c, 5, 66, 0
7, 189960, Note_on_c, 5, 67, 70
7, 190020, Note_on_c, 5, 67, 0
7, 190020, Note_on_c, 5, 66, 70
7, 190080, Note_on_c, 5, 66, 0
7, 190080, Note_on_c, 5, 67, 70
7, 190560, Note_on_c, 5, 67, 0
7, 190560, Note_on_c, 5, 71, 70
7, 190752, Note_on_c, 5, 71, 0
7, 191040, Note_on_c, 5, 69, 70
7, 191232, Note_on_c, 5, 69, 0
7, 191520, Note_on_c, 5, 72, 70
7, 191712, Note_on_c, 5, 72, 0
7, 192000, Note_on_c, 5, 71, 70
7, 192480, Note_on_c, 5, 71, 0
7, 192480, Note_on_c, 5, 74, 70
7, 192960, Note_on_c, 5, 74, 0
7, 193440, Note_on_c, 5, 67, 70
7, 193500, Note_on_c, 5, 67, 0
7, 193500, Note_on_c, 5, 66, 70
7, 193560, Note_on_c, 5, 66, 0
7, 193560, Note_on_c, 5, 67, 70
7, 193620, Note_on_c, 5, 67, 0
7, 193620, Note_on_c, 5, 66, 70
7, 193680, Note_on_c, 5, 66, 0
7, 193680, Note_on_c, 5, 67, 70
7, 193740, Note_on_c, 5, 67, 0
7, 193740, Note_on_c, 5, 66, 70
7, 193800, Note_on_c, 5, 66, 0
7, 193800, Note_on_c, 5, 67, 70
7, 193860, Note_on_c, 5, 67, 0
7, 193860, Note_on_c, 5, 66, 70
7, 193920, Note_on_c, 5, 66, 0
7, 193920, Note_on_c, 5, 67, 70
7, 194400, Note_on_c, 5, 67, 0
7, 194400, Note_on_c, 5, 71, 70
7, 194592, Note_on_c, 5, 71, 0
7, 194880, Note_on_c, 5, 69, 70
7, 195072, Note_on_c, 5, 69, 0
7, 195360, Note_on_c, 5, 72, 70
7, 195552, Note_on_c, 5, 72, 0
7, 195840, Note_on_c, 5, 71, 70
7, 196320, Note_on_c, 5, 71, 0
7, 196320, Note_on_c, 5, 74, 70
7, 197280, Note_on_c, 5, 74, 0
7, 197280, Note_on_c, 5, 72, 70
7, 198240, Note_on_c, 5, 72, 0
7, 198240, Note_on_c, 5, 71, 70
7, 199200, Note_on_c, 5, 71, 0
7, 199200, Note_on_c, 5, 69, 70
7, 200160, Note_on_c, 5, 69, 0
7, 200160, Note_on_c, 5, 67, 70
7, 201120, Note_on_c, 5, 67, 0
7, 201120, Note_on_c, 5, 66, 70
7, 201600, Note_on_c, 5, 66, 0
7, 201600, Note_on_c, 5, 64, 90
7, 201600, Note_on_c, 5, 73, 90
7, 202560, Note_on_c, 5, 73, 0
7, 202560, Note_on_c, 5, 64, 0
7, 203520, Note_on_c, 5, 62, 90
7, 203520, Note_on_c, 5, 74, 90
7, 204480, Note_on_c, 5, 74, 0
7, 204480, Note_on_c, 5, 62, 0
7, 205440, Note_on_c, 5, 64, 90
7, 205440, Note_on_c, 5, 73, 90
7, 206400, Note_on_c, 5, 73, 0
7, 206400, Note_on_c, 5, 64, 0
7, 207360, Note_on_c, 5, 62, 70
7, 207360, Note_on_c, 5, 74, 70
7, 207840, Note_on_c, 5, 74, 0
7, 207840, Note_on_c, 5, 62, 0
7, 209520, Note_on_c, 5, 62, 70
7, 209760, Note_on_c, 5, 62, 0
7, 209760, Note_on_c, 5, 66, 70
7, 210000, Note_on_c, 5, 66, 0
7, 210000, Note_on_c, 5, 69, 70
7, 210240, Note_on_c, 5, 69, 0
7, 210240, Note_on_c, 5, 74, 70
7, 210480, Note_on_c, 5, 74, 0
7, 210480, Note_on_c, 5, 73, 70
7, 210720, Note_on_c, 5, 73, 0
7, 210720, Note_on_c, 5, 74, 70
7, 210960, Note_on_c, 5, 74, 0
7, 210960, Note_on_c, 5, 73, 70
7, 211200, Note_on_c, 5, 73, 0
7, 211200, Note_on_c, 5, 74, 105
7, 211440, Note_on_c, 5, 74, 0
7, 211440, Note_on_c, 5, 73, 105
7, 211680, Note_on_c, 5, 73, 0
7, 211680, Note_on_c, 5, 74, 105
7, 211920, Note_on_c, 5, 74, 0
7, 211920, Note_on_c, 5, 76, 105
7, 212160, Note_on_c, 5, 76, 0
7, 212160, Note_on_c, 5, 72, 105
7, 212400, Note_on_c, 5, 72, 0
7, 212400, Note_on_c, 5, 71, 105
7, 212640, Note_on_c, 5, 71, 0
7, 212640, Note_on_c, 5, 72, 105
7, 212880, Note_on_c, 5, 72, 0
7, 212880, Note_on_c, 5, 74, 105
7, 213120, Note_on_c, 5, 74, 0
7, 213120, Note_on_c, 5, 71, 105
7, 213360, Note_on_c, 5, 71, 0
7, 213360, Note_on_c, 5, 70, 105
7, 213600, Note_on_c, 5, 70, 0
7, 213600, Note_on_c, 5, 71, 105
7, 213840, Note_on_c, 5, 71, 0
7, 213840, Note_on_c, 5, 72, 105
7, 214080, Note_on_c, 5, 72, 0
7, 214080, Note_on_c, 5, 69, 105
7, 214320, Note_on_c, 5, 69, 0
7, 214320, Note_on_c, 5, 68, 105
7, 214560, Note_on_c, 5, 68, 0
7, 214560, Note_on_c, 5, 69, 105
7, 214800, Note_on_c, 5, 69, 0
7, 214800, Note_on_c, 5, 71, 105
7, 215040, Note_on_c, 5, 71, 0
7, 215040, Note_on_c, 5, 67, 105
7, 215520, Note_on_c, 5, 67, 0
7, 216960, Note_on_c, 5, 66, 70
7, 217920, Note_on_c, 5, 66, 0
7, 217920, Note_on_c, 5, 67, 70
7, 218400, Note_on_c, 5, 67, 0
7, 218880, Note_on_c, 5, 66, 70
7, 219840, Note_on_c, 5, 66, 0
7, 219840, Note_on_c, 5, 67, 70
7, 220320, Note_on_c, 5, 67, 0
7, 220320, Note_on_c, 5, 72, 70
7, 220800, Note_on_c, 5, 72, 0
7, 220800, Note_on_c, 5, 71, 70
7, 221760, Note_on_c, 5, 71, 0
7, 221760, Note_on_c, 5, 69, 70
7, 222240, Note_on_c, 5, 69, 0
7, 222720, Note_on_c, 5, 57, 70
7, 223200, Note_on_c, 5, 57, 0
7, 224640, Note_on_c, 5, 59, 70
7, 225600, Note_on_c, 5, 59, 0
7, 225600, Note_on_c, 5, 60, 70
7, 226080, Note_on_c, 5, 60, 0
7, 226560, Note_on_c, 5, 71, 70
7, 227520, Note_on_c, 5, 71, 0
7, 227520, Note_on_c, 5, 72, 70
7, 228000, Note_on_c, 5, 72, 0
7, 228000, Note_on_c, 5, 74, 70
7, 228480, Note_on_c, 5, 74, 0
7, 228480, Note_on_c, 5, 72, 70
7, 229440, Note_on_c, 5, 72, 0
7, 229440, Note_on_c, 5, 71, 70
7, 229920, Note_on_c, 5, 71, 0
7, 230880, Note_on_c, 5, 62, 70
7, 231360, Note_on_c, 5, 62, 0
7, 231360, Note_on_c, 5, 74, 70
7, 231840, Note_on_c, 5, 74, 0
7, 231840, Note_on_c, 5, 71, 70
7, 232320, Note_on_c, 5, 71, 0
7, 232320, Note_on_c, 5, 69, 70
7, 232800, Note_on_c, 5, 69, 0
7, 233520, Note_on_c, 5, 76, 70
7, 233760, Note_on_c, 5, 76, 0
7, 233760, Note_on_c, 5, 72, 70
7, 234000, Note_on_c, 5, 72, 0
7, 234000, Note_on_c, 5, 69, 70
7, 234240, Note_on_c, 5, 69, 0
7, 234240, Note_on_c, 5, 67, 70
7, 234720, Note_on_c, 5, 67, 0
7, 235440, Note_on_c, 5, 74, 70
7, 235680, Note_on_c, 5, 74, 0
7, 235680, Note_on_c, 5, 71, 70
7, 235920, Note_on_c, 5, 71, 0
7, 235920, Note_on_c, 5, 67, 70
7, 236160, Note_on_c, 5, 67, 0
7, 236160, Note_on_c, 5, 66, 70
7, 236640, Note_on_c, 5, 66, 0
7, 237360, Note_on_c, 5, 62, 70
7, 237600, Note_on_c, 5, 62, 0
7, 237600, Note_on_c, 5, 64, 70
7, 237840, Note_on_c, 5, 64, 0
7, 237840, Note_on_c, 5, 66, 70
7, 238080, Note_on_c, 5, 66, 0
7, 238080, Note_on_c, 5, 67, 70
7, 238560, Note_on_c, 5, 67, 0
7, 238560, Note_on_c, 5, 66, 70
7, 238560, Note_on_c, 5, 69, 70
7, 239040, Note_on_c, 5, 69, 0
7, 239040, Note_on_c, 5, 66, 0
7, 239040, Note_on_c, 5, 67, 70
7, 239520, Note_on_c, 5, 67, 0
7, 239520, Note_on_c, 5, 66, 70
7, 239520, Note_on_c, 5, 69, 70
7, 240000, Note_on_c, 5, 69, 0
7, 240000, Note_on_c, 5, 66, 0
7, 240000, Note_on_c, 5, 67, 70
7, 240480, Note_on_c, 5, 67, 0
7, 240960, Note_on_c, 5, 69, 70
7, 241440, Note_on_c, 5, 69, 0
7, 241920, Note_on_c, 5, 69, 70
7, 242160, Note_on_c, 5, 69, 0
7, 242160, Note_on_c, 5, 72, 70
7, 242400, Note_on_c, 5, 72, 0
7, 242400, Note_on_c, 5, 71, 70
7, 242640, Note_on_c, 5, 71, 0
7, 242640, Note_on_c, 5, 72, 70
7, 242880, Note_on_c, 5, 72, 0
7, 242880, Note_on_c, 5, 74, 70
7, 243120, Note_on_c, 5, 74, 0
7, 243120, Note_on_c, 5, 72, 70
7, 243360, Note_on_c, 5, 72, 0
7, 243360, Note_on_c, 5, 71, 70
7, 243600, Note_on_c, 5, 71, 0
7, 243600, Note_on_c, 5, 72, 70
7, 243840, Note_on_c, 5, 72, 0
7, 243840, Note_on_c, 5, 71, 70
7, 244320, Note_on_c, 5, 71, 0
7, 261120, Note_on_c, 5, 67, 70
7, 261600, Note_on_c, 5, 67, 0
7, 261600, Note_on_c, 5, 71, 70
7, 262080, Note_on_c, 5, 71, 0
7, 262080, Note_on_c, 5, 74, 70
7, 262560, Note_on_c, 5, 74, 0
7, 262560, Note_on_c, 5, 79, 70
7, 263040, Note_on_c, 5, 79, 0
7, 263040, Note_on_c, 5, 76, 70
7, 263520, Note_on_c, 5, 76, 0
7, 263520, Note_on_c, 5, 72, 70
7, 264000, Note_on_c, 5, 72, 0
7, 264000, Note_on_c, 5, 69, 70
7, 264480, Note_on_c, 5, 69, 0
7, 264480, Note_on_c, 5, 64, 70
7, 264960, Note_on_c, 5, 64, 0
7, 264960, Note_on_c, 5, 74, 70
7, 265440, Note_on_c, 5, 74, 0
7, 265440, Note_on_c, 5, 71, 70
7, 265920, Note_on_c, 5, 71, 0
7, 265920, Note_on_c, 5, 67, 70
7, 266400, Note_on_c, 5, 67, 0
7, 266400, Note_on_c, 5, 62, 70
7, 266880, Note_on_c, 5, 62, 0
7, 266880, Note_on_c, 5, 72, 70
7, 267360, Note_on_c, 5, 72, 0
7, 267360, Note_on_c, 5, 69, 70
7, 267840, Note_on_c, 5, 69, 0
7, 267840, Note_on_c, 5, 66, 70
7, 268320, Note_on_c, 5, 66, 0
7, 268320, Note_on_c, 5, 60, 70
7, 268800, Note_on_c, 5, 60, 0
7, 268800, Note_on_c, 5, 59, 70
7, 269280, Note_on_c, 5, 59, 0
7, 270720, Note_on_c, 5, 71, 70
7, 270720, Note_on_c, 5, 79, 70
7, 271200, Note_on_c, 5, 79, 0
7, 271200, Note_on_c, 5, 71, 0
7, 272640, Note_on_c, 5, 62, 70
7, 273120, Note_on_c, 5, 62, 0
7, 273120, Note_on_c, 5, 84, 70
7, 273600, Note_on_c, 5, 84, 0
7, 273600, Note_on_c, 5, 62, 70
7, 274080, Note_on_c, 5, 62, 0
7, 274080, Note_on_c, 5, 72, 70
7, 274080, Note_on_c, 5, 81, 70
7, 274560, Note_on_c, 5, 81, 0
7, 274560, Note_on_c, 5, 72, 0
7, 274560, Note_on_c, 5, 71, 70
7, 274560, Note_on_c, 5, 79, 70
7, 275040, Note_on_c, 5, 79, 0
7, 275040, Note_on_c, 5, 71, 0
7, 279360, Note_on_c, 5, 69, 70
7, 279360, Note_on_c, 5, 78, 70
7, 279840, Note_on_c, 5, 78, 0
7, 279840, Note_on_c, 5, 69, 0
7, 280320, Note_on_c, 5, 71, 70
7, 280320, Note_on_c, 5, 79, 70
7, 280800, Note_on_c, 5, 79, 0
7, 280800, Note_on_c, 5, 71, 0
7, 281280, Note_on_c, 5, 74, 70
7, 281280, Note_on_c, 5, 81, 70
7, 281760, Note_on_c, 5, 81, 0
7, 281760, Note_on_c, 5, 74, 0
7, 282240, Note_on_c, 5, 74, 70
7, 282240, Note_on_c, 5, 83, 70
7, 282720, Note_on_c, 5, 83, 0
7, 282720, Note_on_c, 5, 74, 0
7, 283200, Note_on_c, 5, 69, 70
7, 283200, Note_on_c, 5, 78, 70
7, 283680, Note_on_c, 5, 78, 0
7, 283680, Note_on_c, 5, 69, 0
7, 284160, Note_on_c, 5, 71, 70
7, 284160, Note_on_c, 5, 79, 70
7, 284640, Note_on_c, 5, 79, 0
7, 284640, Note_on_c, 5, 71, 0
7, 285120, Note_on_c, 5, 74, 70
7, 285120, Note_on_c, 5, 81, 70
7, 285600, Note_on_c, 5, 81, 0
7, 285600, Note_on_c, 5, 74, 0
7, 286080, Note_on_c, 5, 74, 70
7, 286080, Note_on_c, 5, 83, 70
7, 286560, Note_on_c, 5, 83, 0
7, 286560, Note_on_c, 5, 74, 0
7, 294240, Note_on_c, 5, 86, 70
7, 294720, Note_on_c, 5, 86, 0
7, 295200, Note_on_c, 5, 79, 70
7, 295680, Note_on_c, 5, 79, 0
7, 296160, Note_on_c, 5, 76, 70
7, 296640, Note_on_c, 5, 76, 0
7, 297120, Note_on_c, 5, 72, 70
7, 297600, Note_on_c, 5, 72, 0
7, 297600, Note_on_c, 5, 72, 90
7, 298560, Note_on_c, 5, 72, 0
7, 298560, Note_on_c, 5, 71, 70
7, 299040, Note_on_c, 5, 71, 0
7, 301440, Note_on_c, 5, 72, 90
7, 302400, Note_on_c, 5, 72, 0
7, 302400, Note_on_c, 5, 71, 70
7, 302880, Note_on_c, 5, 71, 0
7, 305280, Note_on_c, 5, 71, 70
7, 305520, Note_on_c, 5, 71, 0
7, 305520, Note_on_c, 5, 74, 70
7, 305760, Note_on_c, 5, 74, 0
7, 305760, Note_on_c, 5, 71, 70
7, 306000, Note_on_c, 5, 71, 0
7, 306000, Note_on_c, 5, 74, 70
7, 306240, Note_on_c, 5, 74, 0
7, 306240, Note_on_c, 5, 71, 70
7, 306480, Note_on_c, 5, 71, 0
7, 306480, Note_on_c, 5, 74, 70
7, 306720, Note_on_c, 5, 74, 0
7, 306720, Note_on_c, 5, 72, 70
7, 306960, Note_on_c, 5, 72, 0
7, 306960, Note_on_c, 5, 74, 70
7, 307200, Note_on_c, 5, 74, 0
7, 307200, Note_on_c, 5, 71, 70
7, 307440, Note_on_c, 5, 71, 0
7, 307440, Note_on_c, 5, 74, 70
7, 307680, Note_on_c, 5, 74, 0
7, 307680, Note_on_c, 5, 72, 70
7, 307920, Note_on_c, 5, 72, 0
7, 307920, Note_on_c, 5, 74, 70
7, 308160, Note_on_c, 5, 74, 0
7, 308160, Note_on_c, 5, 71, 70
7, 308400, Note_on_c, 5, 71, 0
7, 308400, Note_on_c, 5, 74, 70
7, 308640, Note_on_c, 5, 74, 0
7, 308640, Note_on_c, 5, 72, 70
7, 308880, Note_on_c, 5, 72, 0
7, 308880, Note_on_c, 5, 74, 70
7, 309120, Note_on_c, 5, 74, 0
7, 309120, Note_on_c, 5, 71, 70
7, 309360, Note_on_c, 5, 71, 0
7, 309360, Note_on_c, 5, 74, 70
7, 309600, Note_on_c, 5, 74, 0
7, 309600, Note_on_c, 5, 71, 70
7, 309840, Note_on_c, 5, 71, 0
7, 309840, Note_on_c, 5, 74, 70
7, 310080, Note_on_c, 5, 74, 0
7, 310080, Note_on_c, 5, 71, 70
7, 310320, Note_on_c, 5, 71, 0
7, 310320, Note_on_c, 5, 74, 70
7, 310560, Note_on_c, 5, 74, 0
7, 310560, Note_on_c, 5, 71, 70
7, 310800, Note_on_c, 5, 71, 0
7, 310800, Note_on_c, 5, 74, 70
7, 311040, Note_on_c, 5, 74, 0
7, 311040, Note_on_c, 5, 71, 70
7, 311280, Note_on_c, 5, 71, 0
7, 311280, Note_on_c, 5, 74, 70
7, 311520, Note_on_c, 5, 74, 0
7, 311520, Note_on_c, 5, 71, 70
7, 311760, Note_on_c, 5, 71, 0
7, 311760, Note_on_c, 5, 74, 70
7, 312000, Note_on_c, 5, 74, 0
7, 312000, Note_on_c, 5, 72, 70
7, 312240, Note_on_c, 5, 72, 0
7, 312240, Note_on_c, 5, 74, 70
7, 312480, Note_on_c, 5, 74, 0
7, 312480, Note_on_c, 5, 72, 70
7, 312720, Note_on_c, 5, 72, 0
7, 312720, Note_on_c, 5, 74, 70
7, 312960, Note_on_c, 5, 74, 0
7, 312960, Note_on_c, 5, 71, 70
7, 313920, Note_on_c, 5, 71, 0
7, 314400, Note_on_c, 5, 78, 70
7, 314880, Note_on_c, 5, 78, 0
7, 314880, Note_on_c, 5, 79, 70
7, 315360, Note_on_c, 5, 79, 0
7, 315360, Note_on_c, 5, 78, 70
7, 315840, Note_on_c, 5, 78, 0
7, 315840, Note_on_c, 5, 79, 70
7, 316320, Note_on_c, 5, 79, 0
7, 316320, Note_on_c, 5, 78, 70
7, 316800, Note_on_c, 5, 78, 0
7, 316800, Note_on_c, 5, 79, 70
7, 317280, Note_on_c, 5, 79, 0
7, 317760, Note_on_c, 5, 67, 70
7, 318240, Note_on_c, 5, 67, 0
7, 318240, Note_on_c, 5, 71, 70
7, 318720, Note_on_c, 5, 71, 0
7, 318720, Note_on_c, 5, 74, 70
7, 319200, Note_on_c, 5, 74, 0
7, 319680, Note_on_c, 5, 62, 70
7, 320160, Note_on_c, 5, 62, 0
7, 320640, Note_on_c, 5, 67, 70
7, 321120, Note_on_c, 5, 67, 0
7, 325440, Note_on_c, 5, 72, 70
7, 326400, Note_on_c, 5, 72, 0
7, 326400, Note_on_c, 5, 71, 70
7, 327360, Note_on_c, 5, 71, 0
7, 327360, Note_on_c, 5, 69, 70
7, 328320, Note_on_c, 5, 69, 0
7, 328320, Note_on_c, 5, 67, 70
7, 329280, Note_on_c, 5, 67, 0
7, 329280, Note_on_c, 5, 72, 70
7, 330240, Note_on_c, 5, 72, 0
7, 330240, Note_on_c, 5, 71, 70
7, 331200, Note_on_c, 5, 71, 0
7, 331200, Note_on_c, 5, 69, 70
7, 332160, Note_on_c, 5, 69, 0
7, 332160, Note_on_c, 5, 67, 70
7, 332640, Note_on_c, 5, 67, 0
7, 340800, Note_on_c, 5, 62, 70
7, 341040, Note_on_c, 5, 62, 0
7, 341040, Note_on_c, 5, 65, 70
7, 341280, Note_on_c, 5, 65, 0
7, 341280, Note_on_c, 5, 64, 70
7, 341520, Note_on_c, 5, 64, 0
7, 341520, Note_on_c, 5, 67, 70
7, 341760, Note_on_c, 5, 67, 0
7, 341760, Note_on_c, 5, 65, 70
7, 342240, Note_on_c, 5, 65, 0
7, 346560, Note_on_c, 5, 62, 70
7, 346800, Note_on_c, 5, 62, 0
7, 346800, Note_on_c, 5, 65, 70
7, 347040, Note_on_c, 5, 65, 0
7, 347040, Note_on_c, 5, 64, 70
7, 347280, Note_on_c, 5, 64, 0
7, 347280, Note_on_c, 5, 67, 70
7, 347520, Note_on_c, 5, 67, 0
7, 347520, Note_on_c, 5, 65, 70
7, 348000, Note_on_c, 5, 65, 0
7, 363840, Note_on_c, 5, 76, 105
7, 364032, Note_on_c, 5, 76, 0
7, 364320, Note_on_c, 5, 76, 105
7, 364512, Note_on_c, 5, 76, 0
7, 364800, Note_on_c, 5, 76, 105
7, 365760, Note_on_c, 5, 76, 0
7, 365760, Note_on_c, 5, 79, 105
7, 366000, Note_on_c, 5, 79, 0
7, 366000, Note_on_c, 5, 77, 105
7, 366240, Note_on_c, 5, 77, 0
7, 366240, Note_on_c, 5, 76, 105
7, 366480, Note_on_c, 5, 76, 0
7, 366480, Note_on_c, 5, 77, 105
7, 366720, Note_on_c, 5, 77, 0
7, 366720, Note_on_c, 5, 79, 105
7, 366960, Note_on_c, 5, 79, 0
7, 366960, Note_on_c, 5, 76, 105
7, 367200, Note_on_c, 5, 76, 0
7, 367200, Note_on_c, 5, 72, 105
7, 367680, Note_on_c, 5, 72, 0
7, 367680, Note_on_c, 5, 84, 105
7, 368400, Note_on_c, 5, 84, 0
7, 368400, Note_on_c, 5, 83, 105
7, 368640, Note_on_c, 5, 83, 0
7, 368640, Note_on_c, 5, 83, 105
7, 368880, Note_on_c, 5, 83, 0
7, 368880, Note_on_c, 5, 81, 105
7, 369120, Note_on_c, 5, 81, 0
7, 369120, Note_on_c, 5, 79, 105
7, 369600, Note_on_c, 5, 79, 0
7, 369600, Note_on_c, 5, 84, 105
7, 370320, Note_on_c, 5, 84, 0
7, 370320, Note_on_c, 5, 83, 105
7, 370560, Note_on_c, 5, 83, 0
7, 370560, Note_on_c, 5, 83, 105
7, 370800, Note_on_c, 5, 83, 0
7, 370800, Note_on_c, 5, 81, 105
7, 371040, Note_on_c, 5, 81, 0
7, 371040, Note_on_c, 5, 79, 105
7, 371520, Note_on_c, 5, 79, 0
7, 371520, Note_on_c, 5, 72, 105
7, 372000, Note_on_c, 5, 72, 0
7, 372000, Note_on_c, 5, 72, 105
7, 372480, Note_on_c, 5, 72, 0
7, 372480, Note_on_c, 5, 72, 105
7, 373440, Note_on_c, 5, 72, 0
7, 373440, Note_on_c, 5, 76, 105
7, 373680, Note_on_c, 5, 76, 0
7, 373680, Note_on_c, 5, 74, 105
7, 373920, Note_on_c, 5, 74, 0
7, 373920, Note_on_c, 5, 72, 105
7, 374160, Note_on_c, 5, 72, 0
7, 374160, Note_on_c, 5, 74, 105
7, 374400, Note_on_c, 5, 74, 0
7, 374400, Note_on_c, 5, 76, 105
7, 374880, Note_on_c, 5, 76, 0
7, 374880, Note_on_c, 5, 76, 105
7, 375360, Note_on_c, 5, 76, 0
7, 375360, Note_on_c, 5, 79, 105
7, 375600, Note_on_c, 5, 79, 0
7, 375600, Note_on_c, 5, 77, 105
7, 375840, Note_on_c, 5, 77, 0
7, 375840, Note_on_c, 5, 76, 105
7, 376080, Note_on_c, 5, 76, 0
7, 376080, Note_on_c, 5, 77, 105
7, 376320, Note_on_c, 5, 77, 0
7, 376320, Note_on_c, 5, 79, 105
7, 376800, Note_on_c, 5, 79, 0
7, 376800, Note_on_c, 5, 76, 105
7, 377280, Note_on_c, 5, 76, 0
7, 377280, Note_on_c, 5, 79, 105
7, 377520, Note_on_c, 5, 79, 0
7, 377520, Note_on_c, 5, 77, 105
7, 377760, Note_on_c, 5, 77, 0
7, 377760, Note_on_c, 5, 76, 105
7, 378000, Note_on_c, 5, 76, 0
7, 378000, Note_on_c, 5, 74, 105
7, 378240, Note_on_c, 5, 74, 0
7, 378720, Note_on_c, 5, 60, 105
7, 378816, Note_on_c, 5, 60, 0
7, 378960, Note_on_c, 5, 60, 105
7, 379056, Note_on_c, 5, 60, 0
7, 379200, Note_on_c, 5, 59, 105
7, 379440, Note_on_c, 5, 59, 0
7, 379440, Note_on_c, 5, 62, 105
7, 379680, Note_on_c, 5, 62, 0
7, 379680, Note_on_c, 5, 65, 105
7, 379776, Note_on_c, 5, 65, 0
7, 379920, Note_on_c, 5, 65, 105
7, 380016, Note_on_c, 5, 65, 0
7, 380160, Note_on_c, 5, 64, 105
7, 380400, Note_on_c, 5, 64, 0
7, 380400, Note_on_c, 5, 67, 105
7, 380640, Note_on_c, 5, 67, 0
7, 380640, Note_on_c, 5, 72, 105
7, 380736, Note_on_c, 5, 72, 0
7, 380880, Note_on_c, 5, 72, 105
7, 380976, Note_on_c, 5, 72, 0
7, 381120, Note_on_c, 5, 71, 105
7, 381360, Note_on_c, 5, 71, 0
7, 381360, Note_on_c, 5, 74, 105
7, 381600, Note_on_c, 5, 74, 0
7, 381600, Note_on_c, 5, 77, 105
7, 381696, Note_on_c, 5, 77, 0
7, 381840, Note_on_c, 5, 77, 105
7, 381936, Note_on_c, 5, 77, 0
7, 382080, Note_on_c, 5, 76, 105
7, 382560, Note_on_c, 5, 76, 0
7, 382560, Note_on_c, 5, 72, 105
7, 382560, Note_on_c, 5, 79, 105
7, 383040, Note_on_c, 5, 79, 0
7, 383040, Note_on_c, 5, 72, 0
7, 383520, Note_on_c, 5, 83, 105
7, 384000, Note_on_c, 5, 83, 0
7, 384480, Note_on_c, 5, 84, 105
7, 384960, Note_on_c, 5, 84, 0
7, 385440, Note_on_c, 5, 79, 105
7, 385920, Note_on_c, 5, 79, 0
7, 385920, Note_on_c, 5, 76, 105
7, 386400, Note_on_c, 5, 76, 0
7, 386400, Note_on_c, 5, 64, 105
7, 386400, Note_on_c, 5, 72, 105
7, 386400, Note_on_c, 5, 79, 105
7, 386880, Note_on_c, 5, 79, 0
7, 386880, Note_on_c, 5, 72, 0
7, 386880, Note_on_c, 5, 64, 0
7, 387360, Note_on_c, 5, 83, 105
7, 387840, Note_on_c, 5, 83, 0
7, 388320, Note_on_c, 5, 84, 105
7, 388800, Note_on_c, 5, 84, 0
7, 389280, Note_on_c, 5, 64, 105
7, 389280, Note_on_c, 5, 74, 105
7, 389760, Note_on_c, 5, 74, 0
7, 389760, Note_on_c, 5, 64, 0
7, 389760, Note_on_c, 5, 64, 105
7, 389760, Note_on_c, 5, 72, 105
7, 390240, Note_on_c, 5, 72, 0
7, 390240, Note_on_c, 5, 64, 0
7, 390240, Note_on_c, 5, 76, 105
7, 390720, Note_on_c, 5, 76, 0
7, 391200, Note_on_c, 5, 64, 105
7, 391200, Note_on_c, 5, 71, 105
7, 391200, Note_on_c, 5, 80, 105
7, 391680, Note_on_c, 5, 80, 0
7, 391680, Note_on_c, 5, 71, 0
7, 391680, Note_on_c, 5, 64, 0
7, 392160, Note_on_c, 5, 64, 105
7, 392160, Note_on_c, 5, 72, 105
7, 392160, Note_on_c, 5, 81, 105
7, 392640, Note_on_c, 5, 81, 0
7, 392640, Note_on_c, 5, 72, 0
7, 392640, Note_on_c, 5, 64, 0
7, 393120, Note_on_c, 5, 67, 105
7, 393120, Note_on_c, 5, 70, 105
7, 393600, Note_on_c, 5, 70, 0
7, 393600, Note_on_c, 5, 67, 0
7, 393600, Note_on_c, 5, 65, 105
7, 393600, Note_on_c, 5, 69, 105
7, 394080, Note_on_c, 5, 69, 0
7, 394080, Note_on_c, 5, 65, 0
7, 394080, Note_on_c, 5, 72, 105
7, 394560, Note_on_c, 5, 72, 0
7, 395040, Note_on_c, 5, 76, 105
7, 395520, Note_on_c, 5, 76, 0
7, 396000, Note_on_c, 5, 77, 105
7, 396480, Note_on_c, 5, 77, 0
7, 396960, Note_on_c, 5, 64, 105
7, 396960, Note_on_c, 5, 72, 105
7, 396960, Note_on_c, 5, 82, 105
7, 397440, Note_on_c, 5, 82, 0
7, 397440, Note_on_c, 5, 72, 0
7, 397440, Note_on_c, 5, 64, 0
7, 397440, Note_on_c, 5, 65, 105
7, 397440, Note_on_c, 5, 72, 105
7, 397440, Note_on_c, 5, 81, 105
7, 397920, Note_on_c, 5, 81, 0
7, 397920, Note_on_c, 5, 72, 0
7, 397920, Note_on_c, 5, 65, 0
7, 397920, Note_on_c, 5, 65, 70
7, 398160, Note_on_c, 5, 65, 0
7, 398160, Note_on_c, 5, 57, 70
7, 398400, Note_on_c, 5, 57, 0
7, 398400, Note_on_c, 5, 65, 70
7, 398640, Note_on_c, 5, 65, 0
7, 398640, Note_on_c, 5, 57, 70
7, 398880, Note_on_c, 5, 57, 0
7, 398880, Note_on_c, 5, 65, 70
7, 399120, Note_on_c, 5, 65, 0
7, 399120, Note_on_c, 5, 57, 70
7, 399360, Note_on_c, 5, 57, 0
7, 399360, Note_on_c, 5, 65, 70
7, 399600, Note_on_c, 5, 65, 0
7, 399600, Note_on_c, 5, 57, 70
7, 399840, Note_on_c, 5, 57, 0
7, 399840, Note_on_c, 5, 65, 70
7, 400080, Note_on_c, 5, 65, 0
7, 400080, Note_on_c, 5, 57, 70
7, 400320, Note_on_c, 5, 57, 0
7, 400320, Note_on_c, 5, 65, 70
7, 400560, Note_on_c, 5, 65, 0
7, 400560, Note_on_c, 5, 57, 70
7, 400800, Note_on_c, 5, 57, 0
7, 400800, Note_on_c, 5, 65, 70
7, 401040, Note_on_c, 5, 65, 0
7, 401040, Note_on_c, 5, 57, 70
7, 401280, Note_on_c, 5, 57, 0
7, 401280, Note_on_c, 5, 65, 70
7, 401520, Note_on_c, 5, 65, 0
7, 401520, Note_on_c, 5, 57, 70
7, 401760, Note_on_c, 5, 57, 0
7, 401760, Note_on_c, 5, 65, 70
7, 402000, Note_on_c, 5, 65, 0
7, 402000, Note_on_c, 5, 57, 70
7, 402240, Note_on_c, 5, 57, 0
7, 402240, Note_on_c, 5, 65, 70
7, 402480, Note_on_c, 5, 65, 0
7, 402480, Note_on_c, 5, 57, 70
7, 402720, Note_on_c, 5, 57, 0
7, 402720, Note_on_c, 5, 65, 70
7, 402960, Note_on_c, 5, 65, 0
7, 402960, Note_on_c, 5, 57, 70
7, 403200, Note_on_c, 5, 57, 0
7, 403200, Note_on_c, 5, 65, 70
7, 403440, Note_on_c, 5, 65, 0
7, 403440, Note_on_c, 5, 58, 70
7, 403680, Note_on_c, 5, 58, 0
7, 403680, Note_on_c, 5, 65, 70
7, 403920, Note_on_c, 5, 65, 0
7, 403920, Note_on_c, 5, 58, 70
7, 404160, Note_on_c, 5, 58, 0
7, 404160, Note_on_c, 5, 65, 70
7, 404400, Note_on_c, 5, 65, 0
7, 404400, Note_on_c, 5, 57, 70
7, 404640, Note_on_c, 5, 57, 0
7, 404640, Note_on_c, 5, 65, 70
7, 404880, Note_on_c, 5, 65, 0
7, 404880, Note_on_c, 5, 57, 70
7, 405120, Note_on_c, 5, 57, 0
7, 405120, Note_on_c, 5, 60, 70
7, 407040, Note_on_c, 5, 60, 0
7, 407280, Note_on_c, 5, 74, 70
7, 407520, Note_on_c, 5, 74, 0
7, 407520, Note_on_c, 5, 72, 70
7, 407760, Note_on_c, 5, 72, 0
7, 407760, Note_on_c, 5, 74, 70
7, 408000, Note_on_c, 5, 74, 0
7, 408000, Note_on_c, 5, 70, 70
7, 408240, Note_on_c, 5, 70, 0
7, 408240, Note_on_c, 5, 69, 70
7, 408480, Note_on_c, 5, 69, 0
7, 408480, Note_on_c, 5, 67, 70
7, 408720, Note_on_c, 5, 67, 0
7, 408720, Note_on_c, 5, 65, 70
7, 408960, Note_on_c, 5, 65, 0
7, 408960, Note_on_c, 5, 64, 70
7, 409200, Note_on_c, 5, 64, 0
7, 409200, Note_on_c, 5, 65, 70
7, 409440, Note_on_c, 5, 65, 0
7, 409440, Note_on_c, 5, 67, 70
7, 409680, Note_on_c, 5, 67, 0
7, 409680, Note_on_c, 5, 65, 70
7, 409920, Note_on_c, 5, 65, 0
7, 409920, Note_on_c, 5, 69, 70
7, 410160, Note_on_c, 5, 69, 0
7, 410160, Note_on_c, 5, 67, 70
7, 410400, Note_on_c, 5, 67, 0
7, 410400, Note_on_c, 5, 65, 70
7, 410640, Note_on_c, 5, 65, 0
7, 410640, Note_on_c, 5, 64, 70
7, 410880, Note_on_c, 5, 64, 0
7, 410880, Note_on_c, 5, 65, 70
7, 411360, Note_on_c, 5, 65, 0
7, 412800, Note_on_c, 5, 65, 70
7, 413040, Note_on_c, 5, 65, 0
7, 413040, Note_on_c, 5, 57, 70
7, 413280, Note_on_c, 5, 57, 0
7, 413280, Note_on_c, 5, 65, 70
7, 413520, Note_on_c, 5, 65, 0
7, 413520, Note_on_c, 5, 57, 70
7, 413760, Note_on_c, 5, 57, 0
7, 413760, Note_on_c, 5, 65, 70
7, 414000, Note_on_c, 5, 65, 0
7, 414000, Note_on_c, 5, 57, 70
7, 414240, Note_on_c, 5, 57, 0
7, 414240, Note_on_c, 5, 65, 70
7, 414480, Note_on_c, 5, 65, 0
7, 414480, Note_on_c, 5, 57, 70
7, 414720, Note_on_c, 5, 57, 0
7, 414720, Note_on_c, 5, 65, 70
7, 414960, Note_on_c, 5, 65, 0
7, 414960, Note_on_c, 5, 57, 70
7, 415200, Note_on_c, 5, 57, 0
7, 415200, Note_on_c, 5, 65, 70
7, 415440, Note_on_c, 5, 65, 0
7, 415440, Note_on_c, 5, 57, 70
7, 415680, Note_on_c, 5, 57, 0
7, 415680, Note_on_c, 5, 65, 70
7, 415920, Note_on_c, 5, 65, 0
7, 415920, Note_on_c, 5, 57, 70
7, 416160, Note_on_c, 5, 57, 0
7, 416160, Note_on_c, 5, 65, 70
7, 416400, Note_on_c, 5, 65, 0
7, 416400, Note_on_c, 5, 57, 70
7, 416640, Note_on_c, 5, 57, 0
7, 416640, Note_on_c, 5, 65, 70
7, 416880, Note_on_c, 5, 65, 0
7, 416880, Note_on_c, 5, 57, 70
7, 417120, Note_on_c, 5, 57, 0
7, 417120, Note_on_c, 5, 65, 70
7, 417360, Note_on_c, 5, 65, 0
7, 417360, Note_on_c, 5, 57, 70
7, 417600, Note_on_c, 5, 57, 0
7, 417600, Note_on_c, 5, 65, 70
7, 417840, Note_on_c, 5, 65, 0
7, 417840, Note_on_c, 5, 57, 70
7, 418080, Note_on_c, 5, 57, 0
7, 418080, Note_on_c, 5, 65, 70
7, 418320, Note_on_c, 5, 65, 0
7, 418320, Note_on_c, 5, 57, 70
7, 418560, Note_on_c, 5, 57, 0
7, 418560, Note_on_c, 5, 65, 70
7, 418800, Note_on_c, 5, 65, 0
7, 418800, Note_on_c, 5, 58, 70
7, 419040, Note_on_c, 5, 58, 0
7, 419040, Note_on_c, 5, 65, 70
7, 419280, Note_on_c, 5, 65, 0
7, 419280, Note_on_c, 5, 58, 70
7, 419520, Note_on_c, 5, 58, 0
7, 419520, Note_on_c, 5, 65, 70
7, 419760, Note_on_c, 5, 65, 0
7, 419760, Note_on_c, 5, 57, 70
7, 420000, Note_on_c, 5, 57, 0
7, 420000, Note_on_c, 5, 65, 70
7, 420240, Note_on_c, 5, 65, 0
7, 420240, Note_on_c, 5, 57, 70
7, 420480, Note_on_c, 5, 57, 0
7, 420480, Note_on_c, 5, 60, 70
7, 422400, Note_on_c, 5, 60, 0
7, 422400, Note_on_c, 5, 67, 70
7, 424320, Note_on_c, 5, 67, 0
7, 424320, Note_on_c, 5, 69, 70
7, 425280, Note_on_c, 5, 69, 0
7, 425280, Note_on_c, 5, 69, 70
7, 425340, Note_on_c, 5, 69, 0
7, 425340, Note_on_c, 5, 67, 70
7, 425400, Note_on_c, 5, 67, 0
7, 425400, Note_on_c, 5, 69, 70
7, 425460, Note_on_c, 5, 69, 0
7, 425460, Note_on_c, 5, 67, 70
7, 425520, Note_on_c, 5, 67, 0
7, 425520, Note_on_c, 5, 69, 70
7, 425580, Note_on_c, 5, 69, 0
7, 425580, Note_on_c, 5, 67, 70
7, 425640, Note_on_c, 5, 67, 0
7, 425640, Note_on_c, 5, 69, 70
7, 425700, Note_on_c, 5, 69, 0
7, 425700, Note_on_c, 5, 67, 70
7, 425760, Note_on_c, 5, 67, 0
7, 425760, Note_on_c, 5, 69, 70
7, 425820, Note_on_c, 5, 69, 0
7, 425820, Note_on_c, 5, 67, 70
7, 425880, Note_on_c, 5, 67, 0
7, 425880, Note_on_c, 5, 69, 70
7, 425940, Note_on_c, 5, 69, 0
7, 425940, Note_on_c, 5, 67, 70
7, 426000, Note_on_c, 5, 67, 0
7, 426000, Note_on_c, 5, 65, 70
7, 426120, Note_on_c, 5, 65, 0
7, 426120, Note_on_c, 5, 67, 70
7, 426240, Note_on_c, 5, 67, 0
7, 426240, Note_on_c, 5, 65, 70
7, 426720, Note_on_c, 5, 65, 0
7, 472320, Note_on_c, 5, 63, 70
7, 472560, Note_on_c, 5, 63, 0
7, 472560, Note_on_c, 5, 60, 70
7, 472800, Note_on_c, 5, 60, 0
7, 472800, Note_on_c, 5, 63, 70
7, 473040, Note_on_c, 5, 63, 0
7, 473040, Note_on_c, 5, 60, 70
7, 473280, Note_on_c, 5, 60, 0
7, 473280, Note_on_c, 5, 62, 70
7, 473520, Note_on_c, 5, 62, 0
7, 473520, Note_on_c, 5, 59, 70
7, 473760, Note_on_c, 5, 59, 0
7, 473760, Note_on_c, 5, 62, 70
7, 474000, Note_on_c, 5, 62, 0
7, 474000, Note_on_c, 5, 59, 70
7, 474240, Note_on_c, 5, 59, 0
7, 474240, Note_on_c, 5, 60, 70
7, 474720, Note_on_c, 5, 60, 0
7, 476160, Note_on_c, 5, 62, 70
7, 476400, Note_on_c, 5, 62, 0
7, 476400, Note_on_c, 5, 59, 70
7, 476640, Note_on_c, 5, 59, 0
7, 476640, Note_on_c, 5, 62, 70
7, 476880, Note_on_c, 5, 62, 0
7, 476880, Note_on_c, 5, 59, 70
7, 477120, Note_on_c, 5, 59, 0
7, 477120, Note_on_c, 5, 63, 70
7, 477360, Note_on_c, 5, 63, 0
7, 477360, Note_on_c, 5, 60, 70
7, 477600, Note_on_c, 5, 60, 0
7, 477600, Note_on_c, 5, 63, 70
7, 477840, Note_on_c, 5, 63, 0
7, 477840, Note_on_c, 5, 60, 70
7, 478080, Note_on_c, 5, 60, 0
7, 478080, Note_on_c, 5, 62, 70
7, 478560, Note_on_c, 5, 62, 0
7, 482400, Note_on_c, 5, 72, 70
7, 482880, Note_on_c, 5, 72, 0
7, 482880, Note_on_c, 5, 75, 70
7, 483360, Note_on_c, 5, 75, 0
7, 483360, Note_on_c, 5, 66, 70
7, 483840, Note_on_c, 5, 66, 0
7, 484320, Note_on_c, 5, 66, 70
7, 485280, Note_on_c, 5, 66, 0
7, 485280, Note_on_c, 5, 66, 70
7, 485760, Note_on_c, 5, 66, 0
7, 486240, Note_on_c, 5, 71, 70
7, 486720, Note_on_c, 5, 71, 0
7, 486720, Note_on_c, 5, 74, 70
7, 487200, Note_on_c, 5, 74, 0
7, 487200, Note_on_c, 5, 71, 70
7, 487680, Note_on_c, 5, 71, 0
7, 488160, Note_on_c, 5, 79, 70
7, 488640, Note_on_c, 5, 79, 0
7, 488640, Note_on_c, 5, 78, 70
7, 489120, Note_on_c, 5, 78, 0
7, 489120, Note_on_c, 5, 79, 70
7, 489600, Note_on_c, 5, 79, 0
7, 490080, Note_on_c, 5, 72, 70
7, 490560, Note_on_c, 5, 72, 0
7, 490560, Note_on_c, 5, 75, 70
7, 491040, Note_on_c, 5, 75, 0
7, 491040, Note_on_c, 5, 66, 70
7, 491520, Note_on_c, 5, 66, 0
7, 492000, Note_on_c, 5, 63, 70
7, 492480, Note_on_c, 5, 63, 0
7, 492480, Note_on_c, 5, 60, 70
7, 492960, Note_on_c, 5, 60, 0
7, 492960, Note_on_c, 5, 72, 70
7, 493440, Note_on_c, 5, 72, 0
7, 493440, Note_on_c, 5, 71, 70
7, 493920, Note_on_c, 5, 71, 0
7, 493920, Note_on_c, 5, 79, 70
7, 494112, Note_on_c, 5, 79, 0
7, 495840, Note_on_c, 5, 79, 70
7, 496032, Note_on_c, 5, 79, 0
7, 497760, Note_on_c, 5, 79, 70
7, 498240, Note_on_c, 5, 79, 0
7, 498720, Note_on_c, 5, 79, 70
7, 499200, Note_on_c, 5, 79, 0
7, 499200, Note_on_c, 5, 79, 70
7, 499440, Note_on_c, 5, 79, 0
7, 499680, Note_on_c, 5, 79, 70
7, 499920, Note_on_c, 5, 79, 0
7, 500160, Note_on_c, 5, 79, 70
7, 500400, Note_on_c, 5, 79, 0
7, 500640, Note_on_c, 5, 79, 70
7, 500880, Note_on_c, 5, 79, 0
7, 501120, Note_on_c, 5, 79, 70
7, 501600, Note_on_c, 5, 79, 0
7, 516480, Note_on_c, 5, 67, 70
7, 521280, Note_on_c, 5, 67, 0
7, 521760, Note_on_c, 5, 72, 70
7, 521820, Note_on_c, 5, 72, 0
7, 521820, Note_on_c, 5, 71, 70
7, 521880, Note_on_c, 5, 71, 0
7, 521880, Note_on_c, 5, 72, 70
7, 521940, Note_on_c, 5, 72, 0
7, 521940, Note_on_c, 5, 71, 70
7, 522000, Note_on_c, 5, 71, 0
7, 522000, Note_on_c, 5, 69, 70
7, 522120, Note_on_c, 5, 69, 0
7, 522120, Note_on_c, 5, 71, 70
7, 522240, Note_on_c, 5, 71, 0
7, 522240, Note_on_c, 5, 72, 70
7, 522720, Note_on_c, 5, 72, 0
7, 522720, Note_on_c, 5, 76, 70
7, 522912, Note_on_c, 5, 76, 0
7, 523200, Note_on_c, 5, 74, 70
7, 523392, Note_on_c, 5, 74, 0
7, 523680, Note_on_c, 5, 77, 70
7, 523872, Note_on_c, 5, 77, 0
7, 524160, Note_on_c, 5, 76, 70
7, 524640, Note_on_c, 5, 76, 0
7, 524640, Note_on_c, 5, 79, 70
7, 525600, Note_on_c, 5, 79, 0
7, 525600, Note_on_c, 5, 77, 70
7, 526560, Note_on_c, 5, 77, 0
7, 526560, Note_on_c, 5, 76, 70
7, 527520, Note_on_c, 5, 76, 0
7, 527520, Note_on_c, 5, 74, 70
7, 528480, Note_on_c, 5, 74, 0
7, 528480, Note_on_c, 5, 72, 70
7, 529440, Note_on_c, 5, 72, 0
7, 529440, Note_on_c, 5, 71, 70
7, 529920, Note_on_c, 5, 71, 0
7, 529920, Note_on_c, 5, 69, 90
7, 529920, Note_on_c, 5, 78, 90
7, 530880, Note_on_c, 5, 78, 0
7, 530880, Note_on_c, 5, 69, 0
7, 531840, Note_on_c, 5, 62, 90
7, 531840, Note_on_c, 5, 71, 90
7, 531840, Note_on_c, 5, 79, 90
7, 532320, Note_on_c, 5, 71, 0
7, 532320, Note_on_c, 5, 62, 0
7, 532800, Note_on_c, 5, 79, 0
7, 533760, Note_on_c, 5, 69, 90
7, 533760, Note_on_c, 5, 78, 90
7, 534720, Note_on_c, 5, 78, 0
7, 534720, Note_on_c, 5, 69, 0
7, 535680, Note_on_c, 5, 62, 70
7, 535680, Note_on_c, 5, 71, 70
7, 535680, Note_on_c, 5, 79, 70
7, 536160, Note_on_c, 5, 79, 0
7, 536160, Note_on_c, 5, 71, 0
7, 536160, Note_on_c, 5, 62, 0
7, 537840, Note_on_c, 5, 67, 70
7, 538080, Note_on_c, 5, 67, 0
7, 538080, Note_on_c, 5, 71, 70
7, 538320, Note_on_c, 5, 71, 0
7, 538320, Note_on_c, 5, 74, 70
7, 538560, Note_on_c, 5, 74, 0
7, 538560, Note_on_c, 5, 79, 70
7, 538800, Note_on_c, 5, 79, 0
7, 538800, Note_on_c, 5, 78, 70
7, 539040, Note_on_c, 5, 78, 0
7, 539040, Note_on_c, 5, 79, 70
7, 539280, Note_on_c, 5, 79, 0
7, 539280, Note_on_c, 5, 78, 70
7, 539520, Note_on_c, 5, 78, 0
7, 539520, Note_on_c, 5, 79, 70
7, 540000, Note_on_c, 5, 79, 0
7, 540000, Note_on_c, 5, 67, 90
7, 540240, Note_on_c, 5, 67, 0
7, 540240, Note_on_c, 5, 69, 90
7, 540480, Note_on_c, 5, 69, 0
7, 540480, Note_on_c, 5, 65, 90
7, 540720, Note_on_c, 5, 65, 0
7, 540720, Note_on_c, 5, 64, 90
7, 540960, Note_on_c, 5, 64, 0
7, 540960, Note_on_c, 5, 65, 90
7, 541200, Note_on_c, 5, 65, 0
7, 541200, Note_on_c, 5, 67, 90
7, 541440, Note_on_c, 5, 67, 0
7, 541440, Note_on_c, 5, 64, 90
7, 541680, Note_on_c, 5, 64, 0
7, 541680, Note_on_c, 5, 63, 90
7, 541920, Note_on_c, 5, 63, 0
7, 541920, Note_on_c, 5, 64, 90
7, 542160, Note_on_c, 5, 64, 0
7, 542160, Note_on_c, 5, 65, 90
7, 542400, Note_on_c, 5, 65, 0
7, 542400, Note_on_c, 5, 62, 90
7, 542640, Note_on_c, 5, 62, 0
7, 542640, Note_on_c, 5, 61, 90
7, 542880, Note_on_c, 5, 61, 0
7, 542880, Note_on_c, 5, 62, 90
7, 543120, Note_on_c, 5, 62, 0
7, 543120, Note_on_c, 5, 64, 90
7, 543360, Note_on_c, 5, 64, 0
7, 543360, Note_on_c, 5, 60, 90
7, 543840, Note_on_c, 5, 60, 0
7, 545280, Note_on_c, 5, 59, 70
7, 546240, Note_on_c, 5, 59, 0
7, 546240, Note_on_c, 5, 60, 70
7, 546720, Note_on_c, 5, 60, 0
7, 547200, Note_on_c, 5, 59, 70
7, 548160, Note_on_c, 5, 59, 0
7, 548160, Note_on_c, 5, 60, 70
7, 548640, Note_on_c, 5, 60, 0
7, 548640, Note_on_c, 5, 65, 70
7, 549120, Note_on_c, 5, 65, 0
7, 549120, Note_on_c, 5, 64, 70
7, 550080, Note_on_c, 5, 64, 0
7, 550080, Note_on_c, 5, 62, 70
7, 550560, Note_on_c, 5, 62, 0
7, 551040, Note_on_c, 5, 62, 70
7, 551520, Note_on_c, 5, 62, 0
7, 552960, Note_on_c, 5, 64, 70
7, 553920, Note_on_c, 5, 64, 0
7, 553920, Note_on_c, 5, 65, 70
7, 554400, Note_on_c, 5, 65, 0
7, 554880, Note_on_c, 5, 64, 70
7, 555840, Note_on_c, 5, 64, 0
7, 555840, Note_on_c, 5, 65, 70
7, 556320, Note_on_c, 5, 65, 0
7, 556320, Note_on_c, 5, 67, 70
7, 556800, Note_on_c, 5, 67, 0
7, 556800, Note_on_c, 5, 65, 70
7, 557760, Note_on_c, 5, 65, 0
7, 557760, Note_on_c, 5, 64, 70
7, 558240, Note_on_c, 5, 64, 0
7, 559200, Note_on_c, 5, 55, 70
7, 559680, Note_on_c, 5, 55, 0
7, 559680, Note_on_c, 5, 67, 70
7, 560160, Note_on_c, 5, 67, 0
7, 560160, Note_on_c, 5, 64, 70
7, 560640, Note_on_c, 5, 64, 0
7, 560640, Note_on_c, 5, 62, 70
7, 561120, Note_on_c, 5, 62, 0
7, 561840, Note_on_c, 5, 69, 70
7, 561936, Note_on_c, 5, 69, 0
7, 562080, Note_on_c, 5, 65, 70
7, 562176, Note_on_c, 5, 65, 0
7, 562320, Note_on_c, 5, 62, 70
7, 562416, Note_on_c, 5, 62, 0
7, 562560, Note_on_c, 5, 60, 70
7, 563040, Note_on_c, 5, 60, 0
7, 563760, Note_on_c, 5, 67, 70
7, 563856, Note_on_c, 5, 67, 0
7, 564000, Note_on_c, 5, 64, 70
7, 564096, Note_on_c, 5, 64, 0
7, 564240, Note_on_c, 5, 60, 70
7, 564336, Note_on_c, 5, 60, 0
7, 564480, Note_on_c, 5, 59, 70
7, 564960, Note_on_c, 5, 59, 0
7, 565680, Note_on_c, 5, 55, 70
7, 565776, Note_on_c, 5, 55, 0
7, 565920, Note_on_c, 5, 57, 70
7, 566016, Note_on_c, 5, 57, 0
7, 566160, Note_on_c, 5, 59, 70
7, 566256, Note_on_c, 5, 59, 0
7, 566400, Note_on_c, 5, 60, 70
7, 566880, Note_on_c, 5, 60, 0
7, 566880, Note_on_c, 5, 74, 70
7, 567360, Note_on_c, 5, 74, 0
7, 567360, Note_on_c, 5, 72, 70
7, 567840, Note_on_c, 5, 72, 0
7, 567840, Note_on_c, 5, 74, 70
7, 568320, Note_on_c, 5, 74, 0
7, 568320, Note_on_c, 5, 72, 70
7, 568800, Note_on_c, 5, 72, 0
7, 569280, Note_on_c, 5, 74, 70
7, 569760, Note_on_c, 5, 74, 0
7, 570240, Note_on_c, 5, 62, 70
7, 570480, Note_on_c, 5, 62, 0
7, 570480, Note_on_c, 5, 65, 70
7, 570720, Note_on_c, 5, 65, 0
7, 570720, Note_on_c, 5, 64, 70
7, 570960, Note_on_c, 5, 64, 0
7, 570960, Note_on_c, 5, 65, 70
7, 571200, Note_on_c, 5, 65, 0
7, 571200, Note_on_c, 5, 67, 70
7, 571440, Note_on_c, 5, 67, 0
7, 571440, Note_on_c, 5, 65, 70
7, 571680, Note_on_c, 5, 65, 0
7, 571680, Note_on_c, 5, 64, 70
7, 571920, Note_on_c, 5, 64, 0
7, 571920, Note_on_c, 5, 65, 70
7, 572160, Note_on_c, 5, 65, 0
7, 572160, Note_on_c, 5, 64, 70
7, 572640, Note_on_c, 5, 64, 0
7, 589440, Note_on_c, 5, 72, 70
7, 589920, Note_on_c, 5, 72, 0
7, 589920, Note_on_c, 5, 76, 70
7, 590400, Note_on_c, 5, 76, 0
7, 590400, Note_on_c, 5, 79, 70
7, 590880, Note_on_c, 5, 79, 0
7, 590880, Note_on_c, 5, 84, 70
7, 591360, Note_on_c, 5, 84, 0
7, 591360, Note_on_c, 5, 81, 70
7, 591840, Note_on_c, 5, 81, 0
7, 591840, Note_on_c, 5, 77, 70
7, 592320, Note_on_c, 5, 77, 0
7, 592320, Note_on_c, 5, 74, 70
7, 592800, Note_on_c, 5, 74, 0
7, 592800, Note_on_c, 5, 71, 70
7, 593280, Note_on_c, 5, 71, 0
7, 593280, Note_on_c, 5, 79, 70
7, 593760, Note_on_c, 5, 79, 0
7, 593760, Note_on_c, 5, 76, 70
7, 594240, Note_on_c, 5, 76, 0
7, 594240, Note_on_c, 5, 72, 70
7, 594720, Note_on_c, 5, 72, 0
7, 594720, Note_on_c, 5, 69, 70
7, 595200, Note_on_c, 5, 69, 0
7, 595200, Note_on_c, 5, 77, 70
7, 595680, Note_on_c, 5, 77, 0
7, 595680, Note_on_c, 5, 74, 70
7, 596160, Note_on_c, 5, 74, 0
7, 596160, Note_on_c, 5, 71, 70
7, 596640, Note_on_c, 5, 71, 0
7, 596640, Note_on_c, 5, 65, 70
7, 597120, Note_on_c, 5, 65, 0
7, 597120, Note_on_c, 5, 64, 70
7, 597600, Note_on_c, 5, 64, 0
7, 599040, Note_on_c, 5, 76, 70
7, 599040, Note_on_c, 5, 84, 70
7, 599520, Note_on_c, 5, 84, 0
7, 599520, Note_on_c, 5, 76, 0
7, 603360, Note_on_c, 5, 77, 90
7, 604320, Note_on_c, 5, 77, 0
7, 604320, Note_on_c, 5, 76, 70
7, 604512, Note_on_c, 5, 76, 0
7, 604800, Note_on_c, 5, 81, 70
7, 604992, Note_on_c, 5, 81, 0
7, 605280, Note_on_c, 5, 79, 70
7, 605472, Note_on_c, 5, 79, 0
7, 605760, Note_on_c, 5, 77, 70
7, 605952, Note_on_c, 5, 77, 0
7, 606240, Note_on_c, 5, 76, 70
7, 606432, Note_on_c, 5, 76, 0
7, 606720, Note_on_c, 5, 74, 70
7, 607200, Note_on_c, 5, 74, 0
7, 607200, Note_on_c, 5, 77, 90
7, 608160, Note_on_c, 5, 77, 0
7, 608160, Note_on_c, 5, 76, 70
7, 608352, Note_on_c, 5, 76, 0
7, 608640, Note_on_c, 5, 81, 70
7, 608832, Note_on_c, 5, 81, 0
7, 609120, Note_on_c, 5, 79, 70
7, 609312, Note_on_c, 5, 79, 0
7, 609600, Note_on_c, 5, 77, 70
7, 609792, Note_on_c, 5, 77, 0
7, 610080, Note_on_c, 5, 76, 70
7, 610272, Note_on_c, 5, 76, 0
7, 610560, Note_on_c, 5, 74, 70
7, 611040, Note_on_c, 5, 74, 0
7, 611400, Note_on_c, 5, 76, 70
7, 611520, Note_on_c, 5, 76, 0
7, 611520, Note_on_c, 5, 74, 70
7, 612000, Note_on_c, 5, 74, 0
7, 612360, Note_on_c, 5, 76, 70
7, 612480, Note_on_c, 5, 76, 0
7, 612480, Note_on_c, 5, 74, 70
7, 612960, Note_on_c, 5, 74, 0
7, 613320, Note_on_c, 5, 76, 70
7, 613440, Note_on_c, 5, 76, 0
7, 613440, Note_on_c, 5, 74, 70
7, 613920, Note_on_c, 5, 74, 0
7, 614280, Note_on_c, 5, 76, 70
7, 614400, Note_on_c, 5, 76, 0
7, 614400, Note_on_c, 5, 74, 70
7, 614880, Note_on_c, 5, 74, 0
7, 618240, Note_on_c, 5, 79, 70
7, 619680, Note_on_c, 5, 79, 0
7, 619680, Note_on_c, 5, 84, 70
7, 619800, Note_on_c, 5, 84, 0
7, 619800, Note_on_c, 5, 76, 70
7, 620160, Note_on_c, 5, 76, 0
7, 620160, Note_on_c, 5, 79, 70
7, 620640, Note_on_c, 5, 79, 0
7, 620640, Note_on_c, 5, 77, 70
7, 621120, Note_on_c, 5, 77, 0
7, 622080, Note_on_c, 5, 76, 70
7, 623520, Note_on_c, 5, 76, 0
7, 623520, Note_on_c, 5, 77, 70
7, 623640, Note_on_c, 5, 77, 0
7, 623640, Note_on_c, 5, 81, 70
7, 624000, Note_on_c, 5, 81, 0
7, 624000, Note_on_c, 5, 72, 70
7, 624480, Note_on_c, 5, 72, 0
7, 624480, Note_on_c, 5, 71, 70
7, 624960, Note_on_c, 5, 71, 0
7, 625920, Note_on_c, 5, 72, 70
7, 627360, Note_on_c, 5, 72, 0
7, 627360, Note_on_c, 5, 74, 70
7, 627600, Note_on_c, 5, 74, 0
7, 627600, Note_on_c, 5, 76, 70
7, 627840, Note_on_c, 5, 76, 0
7, 627840, Note_on_c, 5, 77, 70
7, 629280, Note_on_c, 5, 77, 0
7, 629280, Note_on_c, 5, 79, 70
7, 629520, Note_on_c, 5, 79, 0
7, 629520, Note_on_c, 5, 81, 70
7, 629760, Note_on_c, 5, 81, 0
7, 629760, Note_on_c, 5, 79, 70
7, 630240, Note_on_c, 5, 79, 0
7, 630240, Note_on_c, 5, 72, 70
7, 630720, Note_on_c, 5, 72, 0
7, 630720, Note_on_c, 5, 74, 70
7, 631200, Note_on_c, 5, 74, 0
7, 631200, Note_on_c, 5, 77, 70
7, 631680, Note_on_c, 5, 77, 0
7, 631680, Note_on_c, 5, 75, 70
7, 632160, Note_on_c, 5, 75, 0
7, 632160, Note_on_c, 5, 76, 70
7, 632640, Note_on_c, 5, 76, 0
7, 633600, Note_on_c, 5, 72, 70
7, 635040, Note_on_c, 5, 72, 0
7, 635040, Note_on_c, 5, 74, 70
7, 635280, Note_on_c, 5, 74, 0
7, 635280, Note_on_c, 5, 76, 70
7, 635520, Note_on_c, 5, 76, 0
7, 635520, Note_on_c, 5, 77, 70
7, 636000, Note_on_c, 5, 77, 0
7, 636000, Note_on_c, 5, 77, 70
7, 636480, Note_on_c, 5, 77, 0
7, 636480, Note_on_c, 5, 77, 70
7, 636960, Note_on_c, 5, 77, 0
7, 636960, Note_on_c, 5, 79, 70
7, 637200, Note_on_c, 5, 79, 0
7, 637200, Note_on_c, 5, 81, 70
7, 637440, Note_on_c, 5, 81, 0
7, 637440, Note_on_c, 5, 79, 70
7, 637680, Note_on_c, 5, 79, 0
7, 637680, Note_on_c, 5, 81, 70
7, 637920, Note_on_c, 5, 81, 0
7, 637920, Note_on_c, 5, 83, 70
7, 638160, Note_on_c, 5, 83, 0
7, 638160, Note_on_c, 5, 84, 70
7, 638400, Note_on_c, 5, 84, 0
7, 638400, Note_on_c, 5, 83, 70
7, 638640, Note_on_c, 5, 83, 0
7, 638640, Note_on_c, 5, 84, 70
7, 638880, Note_on_c, 5, 84, 0
7, 638880, Note_on_c, 5, 83, 70
7, 639120, Note_on_c, 5, 83, 0
7, 639120, Note_on_c, 5, 84, 70
7, 639360, Note_on_c, 5, 84, 0
7, 639360, Note_on_c, 5, 80, 70
7, 639600, Note_on_c, 5, 80, 0
7, 639600, Note_on_c, 5, 81, 70
7, 639840, Note_on_c, 5, 81, 0
7, 639840, Note_on_c, 5, 80, 70
7, 640080, Note_on_c, 5, 80, 0
7, 640080, Note_on_c, 5, 81, 70
7, 640320, Note_on_c, 5, 81, 0
7, 640320, Note_on_c, 5, 76, 70
7, 640560, Note_on_c, 5, 76, 0
7, 640560, Note_on_c, 5, 77, 70
7, 640800, Note_on_c, 5, 77, 0
7, 640800, Note_on_c, 5, 76, 70
7, 641040, Note_on_c, 5, 76, 0
7, 641040, Note_on_c, 5, 77, 70
7, 641280, Note_on_c, 5, 77, 0
7, 641280, Note_on_c, 5, 76, 70
7, 641520, Note_on_c, 5, 76, 0
7, 641520, Note_on_c, 5, 67, 70
7, 641760, Note_on_c, 5, 67, 0
7, 641760, Note_on_c, 5, 64, 70
7, 642000, Note_on_c, 5, 64, 0
7, 642000, Note_on_c, 5, 67, 70
7, 642240, Note_on_c, 5, 67, 0
7, 642240, Note_on_c, 5, 64, 70
7, 642480, Note_on_c, 5, 64, 0
7, 642480, Note_on_c, 5, 67, 70
7, 642720, Note_on_c, 5, 67, 0
7, 642720, Note_on_c, 5, 65, 70
7, 642960, Note_on_c, 5, 65, 0
7, 642960, Note_on_c, 5, 64, 70
7, 643200, Note_on_c, 5, 64, 0
7, 643200, Note_on_c, 5, 67, 70
7, 643440, Note_on_c, 5, 67, 0
7, 643440, Note_on_c, 5, 65, 70
7, 643680, Note_on_c, 5, 65, 0
7, 643680, Note_on_c, 5, 64, 70
7, 643776, Note_on_c, 5, 64, 0
7, 643920, Note_on_c, 5, 64, 70
7, 644016, Note_on_c, 5, 64, 0
7, 644160, Note_on_c, 5, 64, 70
7, 644400, Note_on_c, 5, 64, 0
7, 644400, Note_on_c, 5, 67, 70
7, 644640, Note_on_c, 5, 67, 0
7, 644640, Note_on_c, 5, 65, 70
7, 644880, Note_on_c, 5, 65, 0
7, 644880, Note_on_c, 5, 62, 70
7, 645120, Note_on_c, 5, 62, 0
7, 645120, Note_on_c, 5, 60, 70
7, 645600, Note_on_c, 5, 60, 0
7, 649920, Note_on_c, 5, 62, 70
7, 649920, Note_on_c, 5, 71, 70
7, 650400, Note_on_c, 5, 71, 0
7, 650400, Note_on_c, 5, 62, 0
7, 650880, Note_on_c, 5, 64, 70
7, 650880, Note_on_c, 5, 72, 70
7, 651360, Note_on_c, 5, 72, 0
7, 651360, Note_on_c, 5, 64, 0
7, 651840, Note_on_c, 5, 67, 70
7, 651840, Note_on_c, 5, 74, 70
7, 652320, Note_on_c, 5, 74, 0
7, 652320, Note_on_c, 5, 67, 0
7, 652800, Note_on_c, 5, 67, 70
7, 652800, Note_on_c, 5, 72, 70
7, 652800, Note_on_c, 5, 76, 70
7, 653280, Note_on_c, 5, 76, 0
7, 653280, Note_on_c, 5, 72, 0
7, 653280, Note_on_c, 5, 67, 0
7, 653760, Note_on_c, 5, 74, 70
7, 653760, Note_on_c, 5, 83, 70
7, 654240, Note_on_c, 5, 83, 0
7, 654240, Note_on_c, 5, 74, 0
7, 654720, Note_on_c, 5, 76, 70
7, 654720, Note_on_c, 5, 84, 70
7, 655200, Note_on_c, 5, 84, 0
7, 655200, Note_on_c, 5, 76, 0
7, 655680, Note_on_c, 5, 74, 70
7, 655680, Note_on_c, 5, 77, 70
7, 656160, Note_on_c, 5, 77, 0
7, 656160, Note_on_c, 5, 74, 0
7, 656640, Note_on_c, 5, 67, 70
7, 656640, Note_on_c, 5, 72, 70
7, 656640, Note_on_c, 5, 76, 70
7, 657120, Note_on_c, 5, 76, 0
7, 657120, Note_on_c, 5, 72, 0
7, 657120, Note_on_c, 5, 67, 0
7, 664800, Note_on_c, 5, 76, 70
7, 665280, Note_on_c, 5, 76, 0
7, 665760, Note_on_c, 5, 84, 70
7, 666240, Note_on_c, 5, 84, 0
7, 666720, Note_on_c, 5, 81, 70
7, 667200, Note_on_c, 5, 81, 0
7, 667680, Note_on_c, 5, 77, 70
7, 668160, Note_on_c, 5, 77, 0
7, 668160, Note_on_c, 5, 71, 80
7, 669120, Note_on_c, 5, 71, 0
7, 669120, Note_on_c, 5, 72, 70
7, 669600, Note_on_c, 5, 72, 0
7, 672000, Note_on_c, 5, 71, 80
7, 672960, Note_on_c, 5, 71, 0
7, 672960, Note_on_c, 5, 72, 70
7, 673440, Note_on_c, 5, 72, 0
7, 679500, Note_on_c, 5, 74, 70
7, 679560, Note_on_c, 5, 74, 0
7, 679560, Note_on_c, 5, 72, 70
7, 679620, Note_on_c, 5, 72, 0
7, 679620, Note_on_c, 5, 71, 70
7, 679680, Note_on_c, 5, 71, 0
7, 679680, Note_on_c, 5, 72, 70
7, 680160, Note_on_c, 5, 72, 0
7, 680460, Note_on_c, 5, 83, 70
7, 680520, Note_on_c, 5, 83, 0
7, 680520, Note_on_c, 5, 81, 70
7, 680580, Note_on_c, 5, 81, 0
7, 680580, Note_on_c, 5, 79, 70
7, 680640, Note_on_c, 5, 79, 0
7, 680640, Note_on_c, 5, 81, 70
7, 681120, Note_on_c, 5, 81, 0
7, 681420, Note_on_c, 5, 81, 70
7, 681480, Note_on_c, 5, 81, 0
7, 681480, Note_on_c, 5, 79, 70
7, 681540, Note_on_c, 5, 79, 0
7, 681540, Note_on_c, 5, 78, 70
7, 681600, Note_on_c, 5, 78, 0
7, 681600, Note_on_c, 5, 79, 80
7, 682080, Note_on_c, 5, 79, 0
7, 682380, Note_on_c, 5, 72, 80
7, 682440, Note_on_c, 5, 72, 0
7, 682440, Note_on_c, 5, 71, 80
7, 682500, Note_on_c, 5, 71, 0
7, 682500, Note_on_c, 5, 69, 80
7, 682560, Note_on_c, 5, 69, 0
7, 682560, Note_on_c, 5, 71, 80
7, 683040, Note_on_c, 5, 71, 0
7, 683520, Note_on_c, 5, 72, 90
7, 683760, Note_on_c, 5, 72, 0
7, 683760, Note_on_c, 5, 71, 105
7, 684000, Note_on_c, 5, 71, 0
7, 684000, Note_on_c, 5, 72, 105
7, 684240, Note_on_c, 5, 72, 0
7, 684240, Note_on_c, 5, 74, 105
7, 684480, Note_on_c, 5, 74, 0
7, 684480, Note_on_c, 5, 76, 105
7, 684720, Note_on_c, 5, 76, 0
7, 684720, Note_on_c, 5, 74, 105
7, 684960, Note_on_c, 5, 74, 0
7, 684960, Note_on_c, 5, 72, 105
7, 685200, Note_on_c, 5, 72, 0
7, 685200, Note_on_c, 5, 71, 105
7, 685440, Note_on_c, 5, 71, 0
7, 685440, Note_on_c, 5, 69, 105
7, 685680, Note_on_c, 5, 69, 0
7, 685680, Note_on_c, 5, 68, 105
7, 685920, Note_on_c, 5, 68, 0
7, 685920, Note_on_c, 5, 69, 105
7, 686160, Note_on_c, 5, 69, 0
7, 686160, Note_on_c, 5, 71, 105
7, 686400, Note_on_c, 5, 71, 0
7, 686400, Note_on_c, 5, 72, 105
7, 686640, Note_on_c, 5, 72, 0
7, 686640, Note_on_c, 5, 71, 105
7, 686880, Note_on_c, 5, 71, 0
7, 686880, Note_on_c, 5, 69, 105
7, 687120, Note_on_c, 5, 69, 0
7, 687120, Note_on_c, 5, 67, 105
7, 687360, Note_on_c, 5, 67, 0
7, 687360, Note_on_c, 5, 65, 105
7, 687840, Note_on_c, 5, 65, 0
7, 687840, Note_on_c, 5, 72, 105
7, 687840, Note_on_c, 5, 81, 105
7, 688320, Note_on_c, 5, 81, 0
7, 688320, Note_on_c, 5, 72, 0
7, 688800, Note_on_c, 5, 74, 105
7, 688800, Note_on_c, 5, 83, 105
7, 689280, Note_on_c, 5, 83, 0
7, 689280, Note_on_c, 5, 74, 0
7, 689760, Note_on_c, 5, 76, 105
7, 689760, Note_on_c, 5, 84, 105
7, 690240, Note_on_c, 5, 84, 0
7, 690240, Note_on_c, 5, 76, 0
7, 690720, Note_on_c, 5, 78, 105
7, 691200, Note_on_c, 5, 78, 0
7, 691200, Note_on_c, 5, 72, 105
7, 691200, Note_on_c, 5, 79, 105
7, 691680, Note_on_c, 5, 72, 0
7, 692160, Note_on_c, 5, 79, 0
7, 695040, Note_on_c, 5, 55, 90
7, 695040, Note_on_c, 5, 64, 90
7, 695040, Note_on_c, 5, 72, 90
7, 695520, Note_on_c, 5, 72, 0
7, 695520, Note_on_c, 5, 64, 0
7, 695520, Note_on_c, 5, 55, 0
7, 695760, Note_on_c, 5, 84, 105
7, 696000, Note_on_c, 5, 84, 0
7, 696000, Note_on_c, 5, 84, 105
7, 696240, Note_on_c, 5, 84, 0
7, 696240, Note_on_c, 5, 84, 105
7, 696480, Note_on_c, 5, 84, 0
7, 696480, Note_on_c, 5, 84, 105
7, 696720, Note_on_c, 5, 84, 0
7, 696720, Note_on_c, 5, 84, 105
7, 696960, Note_on_c, 5, 84, 0
7, 696960, Note_on_c, 5, 83, 105
7, 697020, Note_on_c, 5, 83, 0
7, 697020, Note_on_c, 5, 84, 105
7, 697080, Note_on_c, 5, 84, 0
7, 697080, Note_on_c, 5, 86, 105
7, 697440, Note_on_c, 5, 86, 0
7, 697680, Note_on_c, 5, 77, 105
7, 697920, Note_on_c, 5, 77, 0
7, 697920, Note_on_c, 5, 77, 105
7, 698160, Note_on_c, 5, 77, 0
7, 698160, Note_on_c, 5, 77, 105
7, 698400, Note_on_c, 5, 77, 0
7, 698400, Note_on_c, 5, 77, 105
7, 698640, Note_on_c, 5, 77, 0
7, 698640, Note_on_c, 5, 77, 105
7, 698880, Note_on_c, 5, 77, 0
7, 698880, Note_on_c, 5, 76, 105
7, 698940, Note_on_c, 5, 76, 0
7, 698940, Note_on_c, 5, 77, 105
7, 699000, Note_on_c, 5, 77, 0
7, 699000, Note_on_c, 5, 79, 105
7, 699360, Note_on_c, 5, 79, 0
7, 699600, Note_on_c, 5, 84, 105
7, 699840, Note_on_c, 5, 84, 0
7, 699840, Note_on_c, 5, 84, 105
7, 700080, Note_on_c, 5, 84, 0
7, 700080, Note_on_c, 5, 84, 105
7, 700320, Note_on_c, 5, 84, 0
7, 700320, Note_on_c, 5, 84, 105
7, 700560, Note_on_c, 5, 84, 0
7, 700560, Note_on_c, 5, 84, 105
7, 700800, Note_on_c, 5, 84, 0
7, 700800, Note_on_c, 5, 83, 105
7, 700860, Note_on_c, 5, 83, 0
7, 700860, Note_on_c, 5, 84, 105
7, 700920, Note_on_c, 5, 84, 0
7, 700920, Note_on_c, 5, 86, 105
7, 701280, Note_on_c, 5, 86, 0
7, 701520, Note_on_c, 5, 77, 105
7, 701760, Note_on_c, 5, 77, 0
7, 701760, Note_on_c, 5, 77, 105
7, 702000, Note_on_c, 5, 77, 0
7, 702000, Note_on_c, 5, 77, 105
7, 702240, Note_on_c, 5, 77, 0
7, 702240, Note_on_c, 5, 77, 105
7, 702480, Note_on_c, 5, 77, 0
7, 702480, Note_on_c, 5, 77, 105
7, 702720, Note_on_c, 5, 77, 0
7, 702720, Note_on_c, 5, 76, 105
7, 703200, Note_on_c, 5, 76, 0
7, 703560, Note_on_c, 5, 76, 105
7, 703560, Note_on_c, 5, 84, 105
7, 703680, Note_on_c, 5, 84, 0
7, 703680, Note_on_c, 5, 76, 0
7, 703680, Note_on_c, 5, 76, 105
7, 703680, Note_on_c, 5, 84, 105
7, 704160, Note_on_c, 5, 84, 0
7, 704160, Note_on_c, 5, 76, 0
7, 704520, Note_on_c, 5, 76, 105
7, 704520, Note_on_c, 5, 84, 105
7, 704640, Note_on_c, 5, 84, 0
7, 704640, Note_on_c, 5, 76, 0
7, 704640, Note_on_c, 5, 74, 105
7, 704640, Note_on_c, 5, 84, 105
7, 705120, Note_on_c, 5, 84, 0
7, 705120, Note_on_c, 5, 74, 0
7, 705480, Note_on_c, 5, 74, 105
7, 705480, Note_on_c, 5, 84, 105
7, 705600, Note_on_c, 5, 84, 0
7, 705600, Note_on_c, 5, 74, 0
7, 705600, Note_on_c, 5, 74, 105
7, 705600, Note_on_c, 5, 83, 105
7, 706080, Note_on_c, 5, 83, 0
7, 706080, Note_on_c, 5, 74, 0
7, 706440, Note_on_c, 5, 74, 105
7, 706440, Note_on_c, 5, 83, 105
7, 706560, Note_on_c, 5, 83, 0
7, 706560, Note_on_c, 5, 74, 0
7, 706560, Note_on_c, 5, 76, 105
7, 706560, Note_on_c, 5, 84, 105
7, 707520, Note_on_c, 5, 84, 0
7, 707520, Note_on_c, 5, 76, 0
7, 725760, Note_on_c, 5, 60, 70
7, 726000, Note_on_c, 5, 60, 0
7, 726000, Note_on_c, 5, 59, 70
7, 726240, Note_on_c, 5, 59, 0
7, 726240, Note_on_c, 5, 60, 70
7, 726480, Note_on_c, 5, 60, 0
7, 726480, Note_on_c, 5, 59, 70
7, 726720, Note_on_c, 5, 59, 0
7, 726720, Note_on_c, 5, 60, 70
7, 726960, Note_on_c, 5, 60, 0
7, 726960, Note_on_c, 5, 59, 70
7, 727200, Note_on_c, 5, 59, 0
7, 727200, Note_on_c, 5, 60, 70
7, 727440, Note_on_c, 5, 60, 0
7, 727440, Note_on_c, 5, 59, 70
7, 727680, Note_on_c, 5, 59, 0
7, 727680, Note_on_c, 5, 60, 70
7, 727920, Note_on_c, 5, 60, 0
7, 727920, Note_on_c, 5, 59, 70
7, 728160, Note_on_c, 5, 59, 0
7, 728160, Note_on_c, 5, 60, 70
7, 728400, Note_on_c, 5, 60, 0
7, 728400, Note_on_c, 5, 59, 70
7, 728640, Note_on_c, 5, 59, 0
7, 728640, Note_on_c, 5, 60, 70
7, 728880, Note_on_c, 5, 60, 0
7, 728880, Note_on_c, 5, 59, 70
7, 729120, Note_on_c, 5, 59, 0
7, 729120, Note_on_c, 5, 60, 70
7, 729360, Note_on_c, 5, 60, 0
7, 729360, Note_on_c, 5, 59, 70
7, 729600, Note_on_c, 5, 59, 0
7, 729600, Note_on_c, 5, 60, 70
7, 729840, Note_on_c, 5, 60, 0
7, 729840, Note_on_c, 5, 59, 70
7, 730080, Note_on_c, 5, 59, 0
7, 730080, Note_on_c, 5, 60, 70
7, 730320, Note_on_c, 5, 60, 0
7, 730320, Note_on_c, 5, 59, 70
7, 730560, Note_on_c, 5, 59, 0
7, 730560, Note_on_c, 5, 60, 70
7, 731040, Note_on_c, 5, 60, 0
7, 731520, Note_on_c, 5, 67, 70
7, 731760, Note_on_c, 5, 67, 0
7, 731760, Note_on_c, 5, 66, 70
7, 732000, Note_on_c, 5, 66, 0
7, 732000, Note_on_c, 5, 67, 70
7, 732240, Note_on_c, 5, 67, 0
7, 732240, Note_on_c, 5, 66, 70
7, 732480, Note_on_c, 5, 66, 0
7, 732480, Note_on_c, 5, 67, 70
7, 732720, Note_on_c, 5, 67, 0
7, 732720, Note_on_c, 5, 66, 70
7, 732960, Note_on_c, 5, 66, 0
7, 732960, Note_on_c, 5, 67, 70
7, 733200, Note_on_c, 5, 67, 0
7, 733200, Note_on_c, 5, 66, 70
7, 733440, Note_on_c, 5, 66, 0
7, 733440, Note_on_c, 5, 67, 70
7, 733680, Note_on_c, 5, 67, 0
7, 733680, Note_on_c, 5, 66, 70
7, 733920, Note_on_c, 5, 66, 0
7, 733920, Note_on_c, 5, 67, 70
7, 734160, Note_on_c, 5, 67, 0
7, 734160, Note_on_c, 5, 66, 70
7, 734400, Note_on_c, 5, 66, 0
7, 734400, Note_on_c, 5, 67, 70
7, 734640, Note_on_c, 5, 67, 0
7, 734640, Note_on_c, 5, 66, 70
7, 734880, Note_on_c, 5, 66, 0
7, 734880, Note_on_c, 5, 67, 70
7, 735120, Note_on_c, 5, 67, 0
7, 735120, Note_on_c, 5, 65, 70
7, 735360, Note_on_c, 5, 65, 0
7, 735360, Note_on_c, 5, 64, 70
7, 735600, Note_on_c, 5, 64, 0
7, 735600, Note_on_c, 5, 60, 70
7, 735840, Note_on_c, 5, 60, 0
7, 735840, Note_on_c, 5, 64, 70
7, 736080, Note_on_c, 5, 64, 0
7, 736080, Note_on_c, 5, 67, 70
7, 736320, Note_on_c, 5, 67, 0
7, 736320, Note_on_c, 5, 67, 70
7, 736560, Note_on_c, 5, 67, 0
7, 736560, Note_on_c, 5, 65, 70
7, 736800, Note_on_c, 5, 65, 0
7, 736800, Note_on_c, 5, 64, 70
7, 736896, Note_on_c, 5, 64, 0
7, 737040, Note_on_c, 5, 62, 70
7, 737136, Note_on_c, 5, 62, 0
7, 737280, Note_on_c, 5, 60, 70
7, 737760, Note_on_c, 5, 60, 0
7, 748320, Note_on_c, 5, 74, 105
7, 748320, Note_on_c, 5, 83, 105
7, 748800, Note_on_c, 5, 83, 0
7, 748800, Note_on_c, 5, 74, 0
7, 748800, Note_on_c, 5, 76, 105
7, 748800, Note_on_c, 5, 84, 105
7, 749760, Note_on_c, 5, 84, 0
7, 749760, Note_on_c, 5, 76, 0
7, 750240, Note_on_c, 5, 74, 105
7, 750240, Note_on_c, 5, 83, 105
7, 750720, Note_on_c, 5, 83, 0
7, 750720, Note_on_c, 5, 74, 0
7, 750720, Note_on_c, 5, 76, 105
7, 750720, Note_on_c, 5, 84, 105
7, 751680, Note_on_c, 5, 84, 0
7, 751680, Note_on_c, 5, 76, 0
7, 752160, Note_on_c, 5, 74, 105
7, 752160, Note_on_c, 5, 83, 105
7, 752640, Note_on_c, 5, 83, 0
7, 752640, Note_on_c, 5, 74, 0
7, 752640, Note_on_c, 5, 76, 105
7, 752640, Note_on_c, 5, 84, 105
7, 753600, Note_on_c, 5, 84, 0
7, 753600, Note_on_c, 5, 76, 0
7, 753600, Note_on_c, 5, 76, 105
7, 753600, Note_on_c, 5, 84, 105
7, 754560, Note_on_c, 5, 84, 0
7, 754560, Note_on_c, 5, 76, 0
7, 754560, Note_on_c, 5, 76, 105
7, 754560, Note_on_c, 5, 84, 105
7, 755520, Note_on_c, 5, 84, 0
7, 755520, Note_on_c, 5, 76, 0
7, 755520, End_track
8, 0, Start_track
8, 0, Title_t, "Violin II"
8, 0, Control_c, 6, 0, 0
8, 0, Control_c, 6, 7, 100
8, 0, Control_c, 6, 10, 100
8, 0, Control_c, 6, 91, 91
8, 0, Control_c, 6, 93, 94
8, 1, Control_c, 6, 32, 1
8, 2, Program_c, 6, 48
8, 960, Note_on_c, 6, 60, 70
8, 1056, Note_on_c, 6, 60, 0
8, 1200, Note_on_c, 6, 64, 70
8, 1296, Note_on_c, 6, 64, 0
8, 1440, Note_on_c, 6, 67, 70
8, 1536, Note_on_c, 6, 67, 0
8, 1680, Note_on_c, 6, 64, 70
8, 1776, Note_on_c, 6, 64, 0
8, 1920, Note_on_c, 6, 60, 70
8, 2016, Note_on_c, 6, 60, 0
8, 2160, Note_on_c, 6, 55, 70
8, 2256, Note_on_c, 6, 55, 0
8, 2400, Note_on_c, 6, 60, 70
8, 2496, Note_on_c, 6, 60, 0
8, 2640, Note_on_c, 6, 55, 70
8, 2736, Note_on_c, 6, 55, 0
8, 2880, Note_on_c, 6, 62, 70
8, 2976, Note_on_c, 6, 62, 0
8, 3120, Note_on_c, 6, 55, 70
8, 3216, Note_on_c, 6, 55, 0
8, 3360, Note_on_c, 6, 62, 70
8, 3456, Note_on_c, 6, 62, 0
8, 3600, Note_on_c, 6, 55, 70
8, 3696, Note_on_c, 6, 55, 0
8, 3840, Note_on_c, 6, 64, 70
8, 3936, Note_on_c, 6, 64, 0
8, 4080, Note_on_c, 6, 60, 70
8, 4176, Note_on_c, 6, 60, 0
8, 4320, Note_on_c, 6, 64, 70
8, 4416, Note_on_c, 6, 64, 0
8, 4560, Note_on_c, 6, 67, 70
8, 4656, Note_on_c, 6, 67, 0
8, 4800, Note_on_c, 6, 64, 70
8, 4896, Note_on_c, 6, 64, 0
8, 5040, Note_on_c, 6, 60, 70
8, 5136, Note_on_c, 6, 60, 0
8, 5280, Note_on_c, 6, 64, 70
8, 5376, Note_on_c, 6, 64, 0
8, 5520, Note_on_c, 6, 60, 70
8, 5616, Note_on_c, 6, 60, 0
8, 5760, Note_on_c, 6, 65, 70
8, 5856, Note_on_c, 6, 65, 0
8, 6000, Note_on_c, 6, 60, 70
8, 6096, Note_on_c, 6, 60, 0
8, 6240, Note_on_c, 6, 64, 70
8, 6336, Note_on_c, 6, 64, 0
8, 6480, Note_on_c, 6, 60, 70
8, 6576, Note_on_c, 6, 60, 0
8, 6720, Note_on_c, 6, 64, 70
8, 6816, Note_on_c, 6, 64, 0
8, 6960, Note_on_c, 6, 60, 70
8, 7056, Note_on_c, 6, 60, 0
8, 7200, Note_on_c, 6, 64, 70
8, 7296, Note_on_c, 6, 64, 0
8, 7440, Note_on_c, 6, 60, 70
8, 7536, Note_on_c, 6, 60, 0
8, 7680, Note_on_c, 6, 65, 70
8, 7776, Note_on_c, 6, 65, 0
8, 7920, Note_on_c, 6, 60, 70
8, 8016, Note_on_c, 6, 60, 0
8, 8160, Note_on_c, 6, 64, 70
8, 8256, Note_on_c, 6, 64, 0
8, 8400, Note_on_c, 6, 65, 70
8, 8496, Note_on_c, 6, 65, 0
8, 8640, Note_on_c, 6, 67, 70
8, 8880, Note_on_c, 6, 67, 0
8, 8880, Note_on_c, 6, 65, 70
8, 9120, Note_on_c, 6, 65, 0
8, 9120, Note_on_c, 6, 64, 70
8, 9360, Note_on_c, 6, 64, 0
8, 9360, Note_on_c, 6, 62, 70
8, 9600, Note_on_c, 6, 62, 0
8, 9600, Note_on_c, 6, 60, 70
8, 9840, Note_on_c, 6, 60, 0
8, 9840, Note_on_c, 6, 64, 70
8, 10080, Note_on_c, 6, 64, 0
8, 10080, Note_on_c, 6, 67, 70
8, 10320, Note_on_c, 6, 67, 0
8, 10320, Note_on_c, 6, 72, 70
8, 10560, Note_on_c, 6, 72, 0
8, 10560, Note_on_c, 6, 59, 70
8, 10800, Note_on_c, 6, 59, 0
8, 10800, Note_on_c, 6, 62, 70
8, 11040, Note_on_c, 6, 62, 0
8, 11040, Note_on_c, 6, 67, 70
8, 11280, Note_on_c, 6, 67, 0
8, 11280, Note_on_c, 6, 71, 70
8, 11520, Note_on_c, 6, 71, 0
8, 11520, Note_on_c, 6, 60, 70
8, 11760, Note_on_c, 6, 60, 0
8, 11760, Note_on_c, 6, 64, 70
8, 12000, Note_on_c, 6, 64, 0
8, 12000, Note_on_c, 6, 67, 70
8, 12240, Note_on_c, 6, 67, 0
8, 12240, Note_on_c, 6, 72, 70
8, 12480, Note_on_c, 6, 72, 0
8, 12480, Note_on_c, 6, 62, 70
8, 12720, Note_on_c, 6, 62, 0
8, 12720, Note_on_c, 6, 67, 70
8, 12960, Note_on_c, 6, 67, 0
8, 12960, Note_on_c, 6, 71, 70
8, 13200, Note_on_c, 6, 71, 0
8, 13200, Note_on_c, 6, 74, 70
8, 13440, Note_on_c, 6, 74, 0
8, 13440, Note_on_c, 6, 64, 70
8, 13680, Note_on_c, 6, 64, 0
8, 13680, Note_on_c, 6, 67, 70
8, 13920, Note_on_c, 6, 67, 0
8, 13920, Note_on_c, 6, 72, 70
8, 14160, Note_on_c, 6, 72, 0
8, 14160, Note_on_c, 6, 76, 70
8, 14400, Note_on_c, 6, 76, 0
8, 14400, Note_on_c, 6, 77, 70
8, 14640, Note_on_c, 6, 77, 0
8, 14640, Note_on_c, 6, 76, 70
8, 14880, Note_on_c, 6, 76, 0
8, 14880, Note_on_c, 6, 74, 70
8, 14976, Note_on_c, 6, 74, 0
8, 15120, Note_on_c, 6, 72, 70
8, 15216, Note_on_c, 6, 72, 0
8, 15360, Note_on_c, 6, 67, 70
8, 15600, Note_on_c, 6, 67, 0
8, 15600, Note_on_c, 6, 72, 70
8, 15840, Note_on_c, 6, 72, 0
8, 15840, Note_on_c, 6, 71, 70
8, 16080, Note_on_c, 6, 71, 0
8, 16080, Note_on_c, 6, 69, 70
8, 16320, Note_on_c, 6, 69, 0
8, 16320, Note_on_c, 6, 67, 70
8, 16560, Note_on_c, 6, 67, 0
8, 16560, Note_on_c, 6, 65, 70
8, 16800, Note_on_c, 6, 65, 0
8, 16800, Note_on_c, 6, 64, 70
8, 17040, Note_on_c, 6, 64, 0
8, 17040, Note_on_c, 6, 62, 70
8, 17280, Note_on_c, 6, 62, 0
8, 17280, Note_on_c, 6, 60, 70
8, 17376, Note_on_c, 6, 60, 0
8, 17520, Note_on_c, 6, 55, 70
8, 17616, Note_on_c, 6, 55, 0
8, 17760, Note_on_c, 6, 60, 70
8, 17856, Note_on_c, 6, 60, 0
8, 18000, Note_on_c, 6, 55, 70
8, 18096, Note_on_c, 6, 55, 0
8, 18240, Note_on_c, 6, 59, 70
8, 18336, Note_on_c, 6, 59, 0
8, 18480, Note_on_c, 6, 55, 70
8, 18576, Note_on_c, 6, 55, 0
8, 18720, Note_on_c, 6, 59, 70
8, 18816, Note_on_c, 6, 59, 0
8, 18960, Note_on_c, 6, 55, 70
8, 19056, Note_on_c, 6, 55, 0
8, 19200, Note_on_c, 6, 60, 70
8, 19296, Note_on_c, 6, 60, 0
8, 19440, Note_on_c, 6, 64, 70
8, 19536, Note_on_c, 6, 64, 0
8, 19680, Note_on_c, 6, 67, 70
8, 19776, Note_on_c, 6, 67, 0
8, 19920, Note_on_c, 6, 64, 70
8, 20016, Note_on_c, 6, 64, 0
8, 20160, Note_on_c, 6, 60, 81
8, 20400, Note_on_c, 6, 59, 70
8, 20468, Note_on_c, 6, 60, 0
8, 20640, Note_on_c, 6, 60, 70
8, 20708, Note_on_c, 6, 59, 0
8, 20880, Note_on_c, 6, 59, 70
8, 20948, Note_on_c, 6, 60, 0
8, 21060, Note_on_c, 6, 59, 0
8, 21120, Note_on_c, 6, 60, 70
8, 21428, Note_on_c, 6, 60, 0
8, 22080, Note_on_c, 6, 60, 81
8, 22320, Note_on_c, 6, 59, 70
8, 22388, Note_on_c, 6, 60, 0
8, 22560, Note_on_c, 6, 60, 70
8, 22628, Note_on_c, 6, 59, 0
8, 22800, Note_on_c, 6, 59, 70
8, 22868, Note_on_c, 6, 60, 0
8, 22972, Note_on_c, 6, 59, 0
8, 23040, Note_on_c, 6, 60, 70
8, 23412, Note_on_c, 6, 60, 0
8, 24960, Note_on_c, 6, 64, 86
8, 25200, Note_on_c, 6, 67, 70
8, 25268, Note_on_c, 6, 64, 0
8, 25388, Note_on_c, 6, 67, 0
8, 25920, Note_on_c, 6, 62, 84
8, 26160, Note_on_c, 6, 65, 70
8, 26260, Note_on_c, 6, 62, 0
8, 26340, Note_on_c, 6, 65, 0
8, 26880, Note_on_c, 6, 60, 84
8, 27120, Note_on_c, 6, 64, 70
8, 27188, Note_on_c, 6, 60, 0
8, 27300, Note_on_c, 6, 64, 0
8, 27840, Note_on_c, 6, 59, 82
8, 28080, Note_on_c, 6, 62, 70
8, 28156, Note_on_c, 6, 59, 0
8, 28252, Note_on_c, 6, 62, 0
8, 28800, Note_on_c, 6, 55, 70
8, 29040, Note_on_c, 6, 64, 70
8, 29116, Note_on_c, 6, 55, 0
8, 29280, Note_on_c, 6, 60, 70
8, 29356, Note_on_c, 6, 64, 0
8, 29520, Note_on_c, 6, 64, 70
8, 29620, Note_on_c, 6, 60, 0
8, 29676, Note_on_c, 6, 64, 0
8, 29760, Note_on_c, 6, 64, 70
8, 30000, Note_on_c, 6, 62, 70
8, 30076, Note_on_c, 6, 64, 0
8, 30240, Note_on_c, 6, 60, 70
8, 30340, Note_on_c, 6, 62, 0
8, 30480, Note_on_c, 6, 59, 70
8, 30572, Note_on_c, 6, 60, 0
8, 30644, Note_on_c, 6, 59, 0
8, 30720, Note_on_c, 6, 60, 105
8, 31200, Note_on_c, 6, 60, 0
8, 31440, Note_on_c, 6, 72, 105
8, 31604, Note_on_c, 6, 72, 0
8, 31680, Note_on_c, 6, 72, 105
8, 31844, Note_on_c, 6, 72, 0
8, 31920, Note_on_c, 6, 72, 105
8, 32092, Note_on_c, 6, 72, 0
8, 32160, Note_on_c, 6, 72, 105
8, 32308, Note_on_c, 6, 72, 0
8, 32400, Note_on_c, 6, 72, 105
8, 32556, Note_on_c, 6, 72, 0
8, 32640, Note_on_c, 6, 71, 103
8, 32700, Note_on_c, 6, 72, 108
8, 32760, Note_on_c, 6, 74, 109
8, 32772, Note_on_c, 6, 71, 0
8, 32840, Note_on_c, 6, 72, 0
8, 33012, Note_on_c, 6, 74, 0
8, 33360, Note_on_c, 6, 65, 105
8, 33548, Note_on_c, 6, 65, 0
8, 33600, Note_on_c, 6, 65, 105
8, 33748, Note_on_c, 6, 65, 0
8, 33840, Note_on_c, 6, 65, 105
8, 33988, Note_on_c, 6, 65, 0
8, 34080, Note_on_c, 6, 65, 105
8, 34236, Note_on_c, 6, 65, 0
8, 34320, Note_on_c, 6, 65, 105
8, 34460, Note_on_c, 6, 65, 0
8, 34560, Note_on_c, 6, 64, 106
8, 34620, Note_on_c, 6, 65, 107
8, 34680, Note_on_c, 6, 67, 111
8, 34684, Note_on_c, 6, 64, 0
8, 34768, Note_on_c, 6, 65, 0
8, 34940, Note_on_c, 6, 67, 0
8, 35280, Note_on_c, 6, 72, 105
8, 35444, Note_on_c, 6, 72, 0
8, 35520, Note_on_c, 6, 72, 105
8, 35676, Note_on_c, 6, 72, 0
8, 35760, Note_on_c, 6, 72, 105
8, 35948, Note_on_c, 6, 72, 0
8, 36000, Note_on_c, 6, 72, 105
8, 36180, Note_on_c, 6, 72, 0
8, 36240, Note_on_c, 6, 72, 105
8, 36412, Note_on_c, 6, 72, 0
8, 36480, Note_on_c, 6, 71, 108
8, 36540, Note_on_c, 6, 72, 112
8, 36600, Note_on_c, 6, 74, 117
8, 36612, Note_on_c, 6, 71, 0
8, 36688, Note_on_c, 6, 72, 0
8, 36844, Note_on_c, 6, 74, 0
8, 37200, Note_on_c, 6, 65, 105
8, 37372, Note_on_c, 6, 65, 0
8, 37440, Note_on_c, 6, 65, 105
8, 37620, Note_on_c, 6, 65, 0
8, 37680, Note_on_c, 6, 65, 105
8, 37844, Note_on_c, 6, 65, 0
8, 37920, Note_on_c, 6, 65, 105
8, 38084, Note_on_c, 6, 65, 0
8, 38160, Note_on_c, 6, 65, 105
8, 38340, Note_on_c, 6, 65, 0
8, 38400, Note_on_c, 6, 64, 105
8, 38476, Note_on_c, 6, 64, 0
8, 38520, Note_on_c, 6, 60, 105
8, 38596, Note_on_c, 6, 60, 0
8, 38640, Note_on_c, 6, 60, 105
8, 38716, Note_on_c, 6, 60, 0
8, 38760, Note_on_c, 6, 60, 105
8, 38836, Note_on_c, 6, 60, 0
8, 38880, Note_on_c, 6, 60, 105
8, 38956, Note_on_c, 6, 60, 0
8, 39000, Note_on_c, 6, 60, 105
8, 39076, Note_on_c, 6, 60, 0
8, 39120, Note_on_c, 6, 60, 105
8, 39196, Note_on_c, 6, 60, 0
8, 39240, Note_on_c, 6, 60, 105
8, 39316, Note_on_c, 6, 60, 0
8, 39360, Note_on_c, 6, 60, 105
8, 39436, Note_on_c, 6, 60, 0
8, 39480, Note_on_c, 6, 60, 105
8, 39556, Note_on_c, 6, 60, 0
8, 39600, Note_on_c, 6, 60, 105
8, 39676, Note_on_c, 6, 60, 0
8, 39720, Note_on_c, 6, 60, 105
8, 39796, Note_on_c, 6, 60, 0
8, 39840, Note_on_c, 6, 60, 80
8, 39916, Note_on_c, 6, 60, 0
8, 39960, Note_on_c, 6, 60, 80
8, 40036, Note_on_c, 6, 60, 0
8, 40080, Note_on_c, 6, 60, 80
8, 40156, Note_on_c, 6, 60, 0
8, 40200, Note_on_c, 6, 60, 80
8, 40276, Note_on_c, 6, 60, 0
8, 40320, Note_on_c, 6, 60, 70
8, 40396, Note_on_c, 6, 60, 0
8, 40440, Note_on_c, 6, 60, 70
8, 40516, Note_on_c, 6, 60, 0
8, 40560, Note_on_c, 6, 60, 70
8, 40636, Note_on_c, 6, 60, 0
8, 40680, Note_on_c, 6, 60, 70
8, 40756, Note_on_c, 6, 60, 0
8, 40800, Note_on_c, 6, 60, 70
8, 40876, Note_on_c, 6, 60, 0
8, 40920, Note_on_c, 6, 60, 70
8, 40996, Note_on_c, 6, 60, 0
8, 41040, Note_on_c, 6, 60, 70
8, 41116, Note_on_c, 6, 60, 0
8, 41160, Note_on_c, 6, 60, 70
8, 41236, Note_on_c, 6, 60, 0
8, 41280, Note_on_c, 6, 60, 70
8, 41356, Note_on_c, 6, 60, 0
8, 41400, Note_on_c, 6, 60, 70
8, 41476, Note_on_c, 6, 60, 0
8, 41520, Note_on_c, 6, 60, 70
8, 41596, Note_on_c, 6, 60, 0
8, 41640, Note_on_c, 6, 60, 70
8, 41716, Note_on_c, 6, 60, 0
8, 41760, Note_on_c, 6, 60, 70
8, 41836, Note_on_c, 6, 60, 0
8, 41880, Note_on_c, 6, 60, 70
8, 41956, Note_on_c, 6, 60, 0
8, 42000, Note_on_c, 6, 60, 70
8, 42076, Note_on_c, 6, 60, 0
8, 42120, Note_on_c, 6, 60, 70
8, 42196, Note_on_c, 6, 60, 0
8, 42240, Note_on_c, 6, 60, 90
8, 42316, Note_on_c, 6, 60, 0
8, 42360, Note_on_c, 6, 60, 90
8, 42436, Note_on_c, 6, 60, 0
8, 42480, Note_on_c, 6, 60, 90
8, 42556, Note_on_c, 6, 60, 0
8, 42600, Note_on_c, 6, 60, 90
8, 42676, Note_on_c, 6, 60, 0
8, 42720, Note_on_c, 6, 60, 90
8, 42796, Note_on_c, 6, 60, 0
8, 42840, Note_on_c, 6, 60, 90
8, 42916, Note_on_c, 6, 60, 0
8, 42960, Note_on_c, 6, 60, 90
8, 43036, Note_on_c, 6, 60, 0
8, 43080, Note_on_c, 6, 60, 90
8, 43156, Note_on_c, 6, 60, 0
8, 43200, Note_on_c, 6, 60, 90
8, 43276, Note_on_c, 6, 60, 0
8, 43320, Note_on_c, 6, 60, 90
8, 43396, Note_on_c, 6, 60, 0
8, 43440, Note_on_c, 6, 60, 90
8, 43516, Note_on_c, 6, 60, 0
8, 43560, Note_on_c, 6, 60, 90
8, 43636, Note_on_c, 6, 60, 0
8, 43680, Note_on_c, 6, 60, 80
8, 43756, Note_on_c, 6, 60, 0
8, 43800, Note_on_c, 6, 60, 80
8, 43876, Note_on_c, 6, 60, 0
8, 43920, Note_on_c, 6, 60, 80
8, 43996, Note_on_c, 6, 60, 0
8, 44040, Note_on_c, 6, 60, 80
8, 44116, Note_on_c, 6, 60, 0
8, 44160, Note_on_c, 6, 60, 70
8, 44236, Note_on_c, 6, 60, 0
8, 44280, Note_on_c, 6, 60, 70
8, 44356, Note_on_c, 6, 60, 0
8, 44400, Note_on_c, 6, 60, 70
8, 44476, Note_on_c, 6, 60, 0
8, 44520, Note_on_c, 6, 60, 70
8, 44596, Note_on_c, 6, 60, 0
8, 44640, Note_on_c, 6, 60, 70
8, 44716, Note_on_c, 6, 60, 0
8, 44760, Note_on_c, 6, 60, 70
8, 44836, Note_on_c, 6, 60, 0
8, 44880, Note_on_c, 6, 60, 70
8, 44956, Note_on_c, 6, 60, 0
8, 45000, Note_on_c, 6, 60, 70
8, 45076, Note_on_c, 6, 60, 0
8, 45120, Note_on_c, 6, 60, 70
8, 45196, Note_on_c, 6, 60, 0
8, 45240, Note_on_c, 6, 60, 70
8, 45316, Note_on_c, 6, 60, 0
8, 45360, Note_on_c, 6, 60, 70
8, 45436, Note_on_c, 6, 60, 0
8, 45480, Note_on_c, 6, 60, 70
8, 45556, Note_on_c, 6, 60, 0
8, 45600, Note_on_c, 6, 60, 70
8, 45676, Note_on_c, 6, 60, 0
8, 45720, Note_on_c, 6, 60, 70
8, 45796, Note_on_c, 6, 60, 0
8, 45840, Note_on_c, 6, 60, 70
8, 45916, Note_on_c, 6, 60, 0
8, 45960, Note_on_c, 6, 60, 70
8, 46036, Note_on_c, 6, 60, 0
8, 46080, Note_on_c, 6, 60, 70
8, 46320, Note_on_c, 6, 57, 70
8, 46428, Note_on_c, 6, 60, 0
8, 46560, Note_on_c, 6, 60, 70
8, 46644, Note_on_c, 6, 57, 0
8, 46800, Note_on_c, 6, 57, 70
8, 46868, Note_on_c, 6, 60, 0
8, 46964, Note_on_c, 6, 57, 0
8, 47040, Note_on_c, 6, 60, 70
8, 47280, Note_on_c, 6, 57, 70
8, 47372, Note_on_c, 6, 60, 0
8, 47520, Note_on_c, 6, 60, 70
8, 47604, Note_on_c, 6, 57, 0
8, 47760, Note_on_c, 6, 57, 70
8, 47852, Note_on_c, 6, 60, 0
8, 47916, Note_on_c, 6, 57, 0
8, 48000, Note_on_c, 6, 60, 70
8, 48240, Note_on_c, 6, 57, 70
8, 48324, Note_on_c, 6, 60, 0
8, 48480, Note_on_c, 6, 60, 70
8, 48580, Note_on_c, 6, 57, 0
8, 48720, Note_on_c, 6, 57, 70
8, 48804, Note_on_c, 6, 60, 0
8, 48900, Note_on_c, 6, 57, 0
8, 48960, Note_on_c, 6, 60, 70
8, 49200, Note_on_c, 6, 57, 70
8, 49292, Note_on_c, 6, 60, 0
8, 49440, Note_on_c, 6, 60, 70
8, 49524, Note_on_c, 6, 57, 0
8, 49680, Note_on_c, 6, 57, 70
8, 49772, Note_on_c, 6, 60, 0
8, 49836, Note_on_c, 6, 57, 0
8, 49920, Note_on_c, 6, 55, 70
8, 50016, Note_on_c, 6, 55, 0
8, 50160, Note_on_c, 6, 62, 70
8, 50256, Note_on_c, 6, 62, 0
8, 50400, Note_on_c, 6, 59, 70
8, 50496, Note_on_c, 6, 59, 0
8, 50640, Note_on_c, 6, 62, 70
8, 50736, Note_on_c, 6, 62, 0
8, 50880, Note_on_c, 6, 55, 70
8, 50976, Note_on_c, 6, 55, 0
8, 51120, Note_on_c, 6, 62, 70
8, 51216, Note_on_c, 6, 62, 0
8, 51360, Note_on_c, 6, 59, 70
8, 51456, Note_on_c, 6, 59, 0
8, 51600, Note_on_c, 6, 62, 70
8, 51696, Note_on_c, 6, 62, 0
8, 51840, Note_on_c, 6, 55, 70
8, 51936, Note_on_c, 6, 55, 0
8, 52080, Note_on_c, 6, 62, 70
8, 52176, Note_on_c, 6, 62, 0
8, 52320, Note_on_c, 6, 59, 70
8, 52416, Note_on_c, 6, 59, 0
8, 52560, Note_on_c, 6, 62, 70
8, 52656, Note_on_c, 6, 62, 0
8, 52800, Note_on_c, 6, 55, 70
8, 52896, Note_on_c, 6, 55, 0
8, 53040, Note_on_c, 6, 62, 70
8, 53136, Note_on_c, 6, 62, 0
8, 53280, Note_on_c, 6, 59, 70
8, 53376, Note_on_c, 6, 59, 0
8, 53520, Note_on_c, 6, 62, 70
8, 53616, Note_on_c, 6, 62, 0
8, 53760, Note_on_c, 6, 67, 70
8, 54940, Note_on_c, 6, 67, 0
8, 55200, Note_on_c, 6, 72, 79
8, 55320, Note_on_c, 6, 64, 70
8, 55428, Note_on_c, 6, 72, 0
8, 55500, Note_on_c, 6, 64, 0
8, 55680, Note_on_c, 6, 67, 82
8, 56160, Note_on_c, 6, 65, 70
8, 56260, Note_on_c, 6, 67, 0
8, 56452, Note_on_c, 6, 65, 0
8, 57600, Note_on_c, 6, 64, 70
8, 58820, Note_on_c, 6, 64, 0
8, 59040, Note_on_c, 6, 65, 80
8, 59160, Note_on_c, 6, 69, 70
8, 59212, Note_on_c, 6, 65, 0
8, 59364, Note_on_c, 6, 69, 0
8, 59520, Note_on_c, 6, 60, 80
8, 60000, Note_on_c, 6, 59, 70
8, 60084, Note_on_c, 6, 60, 0
8, 60308, Note_on_c, 6, 59, 0
8, 61440, Note_on_c, 6, 60, 70
8, 62880, Note_on_c, 6, 62, 70
8, 62964, Note_on_c, 6, 60, 0
8, 63120, Note_on_c, 6, 64, 70
8, 63212, Note_on_c, 6, 62, 0
8, 63260, Note_on_c, 6, 64, 0
8, 63360, Note_on_c, 6, 65, 70
8, 64800, Note_on_c, 6, 67, 70
8, 64924, Note_on_c, 6, 65, 0
8, 65040, Note_on_c, 6, 69, 70
8, 65132, Note_on_c, 6, 67, 0
8, 65172, Note_on_c, 6, 69, 0
8, 65280, Note_on_c, 6, 67, 70
8, 65760, Note_on_c, 6, 60, 70
8, 65868, Note_on_c, 6, 67, 0
8, 66068, Note_on_c, 6, 60, 0
8, 66240, Note_on_c, 6, 62, 70
8, 66720, Note_on_c, 6, 65, 70
8, 66844, Note_on_c, 6, 62, 0
8, 67012, Note_on_c, 6, 65, 0
8, 67200, Note_on_c, 6, 63, 70
8, 67680, Note_on_c, 6, 64, 70
8, 67820, Note_on_c, 6, 63, 0
8, 67988, Note_on_c, 6, 64, 0
8, 69120, Note_on_c, 6, 60, 70
8, 70560, Note_on_c, 6, 62, 70
8, 70692, Note_on_c, 6, 60, 0
8, 70800, Note_on_c, 6, 64, 70
8, 70876, Note_on_c, 6, 62, 0
8, 70956, Note_on_c, 6, 64, 0
8, 71040, Note_on_c, 6, 65, 70
8, 71404, Note_on_c, 6, 65, 0
8, 71520, Note_on_c, 6, 65, 70
8, 71876, Note_on_c, 6, 65, 0
8, 72000, Note_on_c, 6, 65, 70
8, 72480, Note_on_c, 6, 67, 70
8, 72604, Note_on_c, 6, 65, 0
8, 72720, Note_on_c, 6, 69, 70
8, 72796, Note_on_c, 6, 67, 0
8, 72892, Note_on_c, 6, 69, 0
8, 72960, Note_on_c, 6, 67, 70
8, 73200, Note_on_c, 6, 69, 70
8, 73268, Note_on_c, 6, 67, 0
8, 73440, Note_on_c, 6, 71, 70
8, 73508, Note_on_c, 6, 69, 0
8, 73680, Note_on_c, 6, 72, 70
8, 73748, Note_on_c, 6, 71, 0
8, 73920, Note_on_c, 6, 71, 70
8, 73988, Note_on_c, 6, 72, 0
8, 74160, Note_on_c, 6, 72, 70
8, 74228, Note_on_c, 6, 71, 0
8, 74400, Note_on_c, 6, 71, 70
8, 74468, Note_on_c, 6, 72, 0
8, 74640, Note_on_c, 6, 72, 70
8, 74708, Note_on_c, 6, 71, 0
8, 74796, Note_on_c, 6, 72, 0
8, 74880, Note_on_c, 6, 68, 70
8, 75120, Note_on_c, 6, 69, 70
8, 75188, Note_on_c, 6, 68, 0
8, 75360, Note_on_c, 6, 68, 70
8, 75428, Note_on_c, 6, 69, 0
8, 75600, Note_on_c, 6, 69, 70
8, 75668, Note_on_c, 6, 68, 0
8, 75764, Note_on_c, 6, 69, 0
8, 75840, Note_on_c, 6, 64, 70
8, 76080, Note_on_c, 6, 65, 70
8, 76148, Note_on_c, 6, 64, 0
8, 76320, Note_on_c, 6, 64, 70
8, 76388, Note_on_c, 6, 65, 0
8, 76560, Note_on_c, 6, 65, 70
8, 76628, Note_on_c, 6, 64, 0
8, 76732, Note_on_c, 6, 65, 0
8, 76800, Note_on_c, 6, 64, 70
8, 77040, Note_on_c, 6, 60, 70
8, 77108, Note_on_c, 6, 64, 0
8, 77280, Note_on_c, 6, 64, 70
8, 77348, Note_on_c, 6, 60, 0
8, 77520, Note_on_c, 6, 60, 70
8, 77588, Note_on_c, 6, 64, 0
8, 77760, Note_on_c, 6, 64, 70
8, 77828, Note_on_c, 6, 60, 0
8, 77884, Note_on_c, 6, 64, 0
8, 78000, Note_on_c, 6, 64, 70
8, 78240, Note_on_c, 6, 65, 70
8, 78300, Note_on_c, 6, 64, 0
8, 78480, Note_on_c, 6, 67, 70
8, 78532, Note_on_c, 6, 65, 0
8, 78636, Note_on_c, 6, 67, 0
8, 78720, Note_on_c, 6, 67, 70
8, 78960, Note_on_c, 6, 65, 70
8, 79028, Note_on_c, 6, 67, 0
8, 79200, Note_on_c, 6, 64, 70
8, 79268, Note_on_c, 6, 65, 0
8, 79440, Note_on_c, 6, 67, 70
8, 79508, Note_on_c, 6, 64, 0
8, 79680, Note_on_c, 6, 64, 70
8, 79748, Note_on_c, 6, 67, 0
8, 79920, Note_on_c, 6, 67, 70
8, 79988, Note_on_c, 6, 64, 0
8, 80160, Note_on_c, 6, 65, 70
8, 80228, Note_on_c, 6, 67, 0
8, 80400, Note_on_c, 6, 62, 70
8, 80468, Note_on_c, 6, 65, 0
8, 80572, Note_on_c, 6, 62, 0
8, 80640, Note_on_c, 6, 60, 70
8, 80988, Note_on_c, 6, 60, 0
8, 85920, Note_on_c, 6, 74, 105
8, 85920, Note_on_c, 6, 77, 105
8, 86400, Note_on_c, 6, 77, 0
8, 86400, Note_on_c, 6, 74, 0
8, 86880, Note_on_c, 6, 72, 105
8, 86880, Note_on_c, 6, 76, 105
8, 87360, Note_on_c, 6, 76, 0
8, 87360, Note_on_c, 6, 72, 0
8, 87840, Note_on_c, 6, 67, 105
8, 87840, Note_on_c, 6, 74, 105
8, 88276, Note_on_c, 6, 74, 0
8, 88284, Note_on_c, 6, 67, 0
8, 88320, Note_on_c, 6, 64, 105
8, 88320, Note_on_c, 6, 72, 105
8, 88684, Note_on_c, 6, 72, 0
8, 88684, Note_on_c, 6, 64, 0
8, 88712, Note_on_c, 6, 67, 105
8, 88752, Note_on_c, 6, 72, 112
8, 88800, Note_on_c, 6, 76, 115
8, 88900, Note_on_c, 6, 67, 0
8, 89280, Note_on_c, 6, 76, 0
8, 89292, Note_on_c, 6, 72, 0
8, 89760, Note_on_c, 6, 74, 105
8, 89760, Note_on_c, 6, 77, 105
8, 90240, Note_on_c, 6, 77, 0
8, 90240, Note_on_c, 6, 74, 0
8, 90720, Note_on_c, 6, 72, 105
8, 90720, Note_on_c, 6, 76, 105
8, 91200, Note_on_c, 6, 76, 0
8, 91200, Note_on_c, 6, 72, 0
8, 91680, Note_on_c, 6, 67, 105
8, 91680, Note_on_c, 6, 74, 105
8, 92092, Note_on_c, 6, 74, 0
8, 92108, Note_on_c, 6, 67, 0
8, 92160, Note_on_c, 6, 64, 105
8, 92160, Note_on_c, 6, 72, 105
8, 92516, Note_on_c, 6, 72, 0
8, 92516, Note_on_c, 6, 64, 0
8, 92552, Note_on_c, 6, 64, 107
8, 92592, Note_on_c, 6, 72, 111
8, 92640, Note_on_c, 6, 79, 116
8, 92740, Note_on_c, 6, 64, 0
8, 93120, Note_on_c, 6, 79, 0
8, 93132, Note_on_c, 6, 72, 0
8, 93512, Note_on_c, 6, 64, 106
8, 93560, Note_on_c, 6, 72, 111
8, 93600, Note_on_c, 6, 81, 116
8, 93700, Note_on_c, 6, 64, 0
8, 94080, Note_on_c, 6, 81, 0
8, 94084, Note_on_c, 6, 72, 0
8, 94480, Note_on_c, 6, 62, 103
8, 94520, Note_on_c, 6, 72, 107
8, 94560, Note_on_c, 6, 81, 112
8, 94684, Note_on_c, 6, 62, 0
8, 95040, Note_on_c, 6, 81, 0
8, 95052, Note_on_c, 6, 72, 0
8, 95424, Note_on_c, 6, 62, 105
8, 95472, Note_on_c, 6, 71, 112
8, 95520, Note_on_c, 6, 79, 119
8, 95604, Note_on_c, 6, 62, 0
8, 95844, Note_on_c, 6, 71, 0
8, 95852, Note_on_c, 6, 79, 0
8, 95896, Note_on_c, 6, 64, 107
8, 95952, Note_on_c, 6, 72, 116
8, 96000, Note_on_c, 6, 79, 122
8, 96084, Note_on_c, 6, 64, 0
8, 96860, Note_on_c, 6, 72, 0
8, 96916, Note_on_c, 6, 79, 0
8, 103680, Note_on_c, 6, 64, 92
8, 103776, Note_on_c, 6, 64, 0
8, 103920, Note_on_c, 6, 60, 72
8, 104016, Note_on_c, 6, 60, 0
8, 104160, Note_on_c, 6, 64, 73
8, 104256, Note_on_c, 6, 64, 0
8, 104400, Note_on_c, 6, 65, 74
8, 104496, Note_on_c, 6, 65, 0
8, 104640, Note_on_c, 6, 67, 95
8, 104736, Note_on_c, 6, 67, 0
8, 104880, Note_on_c, 6, 64, 76
8, 104976, Note_on_c, 6, 64, 0
8, 105120, Note_on_c, 6, 65, 77
8, 105216, Note_on_c, 6, 65, 0
8, 105360, Note_on_c, 6, 62, 78
8, 105456, Note_on_c, 6, 62, 0
8, 105600, Note_on_c, 6, 64, 98
8, 105696, Note_on_c, 6, 64, 0
8, 105840, Note_on_c, 6, 60, 79
8, 105936, Note_on_c, 6, 60, 0
8, 106080, Note_on_c, 6, 64, 80
8, 106176, Note_on_c, 6, 64, 0
8, 106320, Note_on_c, 6, 65, 81
8, 106416, Note_on_c, 6, 65, 0
8, 106560, Note_on_c, 6, 67, 98
8, 106656, Note_on_c, 6, 67, 0
8, 106800, Note_on_c, 6, 64, 83
8, 106896, Note_on_c, 6, 64, 0
8, 107040, Note_on_c, 6, 65, 84
8, 107136, Note_on_c, 6, 65, 0
8, 107280, Note_on_c, 6, 62, 84
8, 107376, Note_on_c, 6, 62, 0
8, 107520, Note_on_c, 6, 64, 100
8, 107616, Note_on_c, 6, 64, 0
8, 107760, Note_on_c, 6, 60, 86
8, 107856, Note_on_c, 6, 60, 0
8, 108000, Note_on_c, 6, 64, 87
8, 108096, Note_on_c, 6, 64, 0
8, 108240, Note_on_c, 6, 65, 88
8, 108336, Note_on_c, 6, 65, 0
8, 108480, Note_on_c, 6, 67, 96
8, 108576, Note_on_c, 6, 67, 0
8, 108720, Note_on_c, 6, 64, 90
8, 108816, Note_on_c, 6, 64, 0
8, 108960, Note_on_c, 6, 65, 91
8, 109056, Note_on_c, 6, 65, 0
8, 109200, Note_on_c, 6, 62, 91
8, 109296, Note_on_c, 6, 62, 0
8, 109440, Note_on_c, 6, 60, 92
8, 109536, Note_on_c, 6, 60, 0
8, 109680, Note_on_c, 6, 67, 93
8, 109776, Note_on_c, 6, 67, 0
8, 109920, Note_on_c, 6, 64, 92
8, 110016, Note_on_c, 6, 64, 0
8, 110160, Note_on_c, 6, 67, 91
8, 110256, Note_on_c, 6, 67, 0
8, 110400, Note_on_c, 6, 64, 90
8, 110880, Note_on_c, 6, 64, 0
8, 146888, Note_on_c, 6, 55, 105
8, 147292, Note_on_c, 6, 55, 0
8, 151680, Note_on_c, 6, 60, 70
8, 152112, Note_on_c, 6, 60, 0
8, 152160, Note_on_c, 6, 60, 70
8, 152592, Note_on_c, 6, 60, 0
8, 152640, Note_on_c, 6, 60, 70
8, 153072, Note_on_c, 6, 60, 0
8, 153120, Note_on_c, 6, 60, 70
8, 153552, Note_on_c, 6, 60, 0
8, 153600, Note_on_c, 6, 60, 70
8, 155452, Note_on_c, 6, 60, 0
8, 155520, Note_on_c, 6, 55, 70
8, 155952, Note_on_c, 6, 55, 0
8, 156000, Note_on_c, 6, 55, 70
8, 156432, Note_on_c, 6, 55, 0
8, 156480, Note_on_c, 6, 55, 70
8, 156912, Note_on_c, 6, 55, 0
8, 156960, Note_on_c, 6, 55, 70
8, 157392, Note_on_c, 6, 55, 0
8, 157440, Note_on_c, 6, 60, 70
8, 159716, Note_on_c, 6, 60, 0
8, 159840, Note_on_c, 6, 60, 70
8, 160236, Note_on_c, 6, 60, 0
8, 160320, Note_on_c, 6, 60, 70
8, 160716, Note_on_c, 6, 60, 0
8, 160800, Note_on_c, 6, 60, 70
8, 161212, Note_on_c, 6, 60, 0
8, 161280, Note_on_c, 6, 60, 70
8, 163200, Note_on_c, 6, 60, 0
8, 163200, Note_on_c, 6, 55, 70
8, 163604, Note_on_c, 6, 55, 0
8, 163680, Note_on_c, 6, 55, 70
8, 164060, Note_on_c, 6, 55, 0
8, 164160, Note_on_c, 6, 55, 70
8, 164556, Note_on_c, 6, 55, 0
8, 164640, Note_on_c, 6, 55, 70
8, 165044, Note_on_c, 6, 55, 0
8, 165120, Note_on_c, 6, 60, 70
8, 165732, Note_on_c, 6, 60, 0
8, 165840, Note_on_c, 6, 60, 70
8, 166012, Note_on_c, 6, 60, 0
8, 166080, Note_on_c, 6, 62, 70
8, 166716, Note_on_c, 6, 62, 0
8, 166800, Note_on_c, 6, 62, 70
8, 166988, Note_on_c, 6, 62, 0
8, 167040, Note_on_c, 6, 64, 70
8, 167668, Note_on_c, 6, 64, 0
8, 167760, Note_on_c, 6, 64, 70
8, 167956, Note_on_c, 6, 64, 0
8, 168000, Note_on_c, 6, 65, 70
8, 168644, Note_on_c, 6, 65, 0
8, 168720, Note_on_c, 6, 65, 70
8, 168900, Note_on_c, 6, 65, 0
8, 168960, Note_on_c, 6, 62, 70
8, 169388, Note_on_c, 6, 62, 0
8, 169440, Note_on_c, 6, 60, 70
8, 169852, Note_on_c, 6, 60, 0
8, 169920, Note_on_c, 6, 59, 70
8, 170400, Note_on_c, 6, 60, 70
8, 170484, Note_on_c, 6, 59, 0
8, 170820, Note_on_c, 6, 60, 0
8, 171120, Note_on_c, 6, 67, 70
8, 171360, Note_on_c, 6, 66, 70
8, 171412, Note_on_c, 6, 67, 0
8, 171600, Note_on_c, 6, 67, 70
8, 171652, Note_on_c, 6, 66, 0
8, 171772, Note_on_c, 6, 67, 0
8, 171840, Note_on_c, 6, 66, 70
8, 172080, Note_on_c, 6, 67, 70
8, 172148, Note_on_c, 6, 66, 0
8, 172236, Note_on_c, 6, 67, 0
8, 172320, Note_on_c, 6, 62, 70
8, 172416, Note_on_c, 6, 62, 0
8, 172560, Note_on_c, 6, 59, 70
8, 172656, Note_on_c, 6, 59, 0
8, 172800, Note_on_c, 6, 55, 70
8, 173280, Note_on_c, 6, 55, 0
8, 188160, Note_on_c, 6, 62, 70
8, 196320, Note_on_c, 6, 62, 0
8, 196800, Note_on_c, 6, 76, 70
8, 197760, Note_on_c, 6, 76, 0
8, 197760, Note_on_c, 6, 74, 70
8, 198720, Note_on_c, 6, 74, 0
8, 198720, Note_on_c, 6, 72, 70
8, 199680, Note_on_c, 6, 72, 0
8, 199680, Note_on_c, 6, 71, 70
8, 200640, Note_on_c, 6, 71, 0
8, 200640, Note_on_c, 6, 69, 70
8, 201600, Note_on_c, 6, 69, 0
8, 201600, Note_on_c, 6, 67, 90
8, 201600, Note_on_c, 6, 69, 90
8, 202560, Note_on_c, 6, 69, 0
8, 202560, Note_on_c, 6, 67, 0
8, 203520, Note_on_c, 6, 66, 90
8, 203520, Note_on_c, 6, 69, 90
8, 204480, Note_on_c, 6, 69, 0
8, 204480, Note_on_c, 6, 66, 0
8, 205440, Note_on_c, 6, 67, 90
8, 205440, Note_on_c, 6, 69, 90
8, 206400, Note_on_c, 6, 69, 0
8, 206400, Note_on_c, 6, 67, 0
8, 207360, Note_on_c, 6, 66, 70
8, 207360, Note_on_c, 6, 69, 70
8, 207840, Note_on_c, 6, 69, 0
8, 207840, Note_on_c, 6, 66, 0
8, 221040, Note_on_c, 6, 74, 70
8, 221280, Note_on_c, 6, 74, 0
8, 221280, Note_on_c, 6, 73, 70
8, 221520, Note_on_c, 6, 73, 0
8, 221520, Note_on_c, 6, 74, 70
8, 221760, Note_on_c, 6, 74, 0
8, 221760, Note_on_c, 6, 73, 70
8, 222000, Note_on_c, 6, 73, 0
8, 222000, Note_on_c, 6, 74, 70
8, 222240, Note_on_c, 6, 74, 0
8, 222240, Note_on_c, 6, 73, 70
8, 222480, Note_on_c, 6, 73, 0
8, 222480, Note_on_c, 6, 74, 70
8, 222720, Note_on_c, 6, 74, 0
8, 222720, Note_on_c, 6, 62, 70
8, 228480, Note_on_c, 6, 62, 0
8, 228720, Note_on_c, 6, 79, 70
8, 228960, Note_on_c, 6, 79, 0
8, 228960, Note_on_c, 6, 78, 70
8, 229200, Note_on_c, 6, 78, 0
8, 229200, Note_on_c, 6, 79, 70
8, 229440, Note_on_c, 6, 79, 0
8, 229440, Note_on_c, 6, 78, 70
8, 229680, Note_on_c, 6, 78, 0
8, 229680, Note_on_c, 6, 79, 70
8, 229920, Note_on_c, 6, 79, 0
8, 229920, Note_on_c, 6, 78, 70
8, 230160, Note_on_c, 6, 78, 0
8, 230160, Note_on_c, 6, 79, 70
8, 230400, Note_on_c, 6, 79, 0
8, 230400, Note_on_c, 6, 67, 70
8, 232320, Note_on_c, 6, 67, 0
8, 232320, Note_on_c, 6, 64, 70
8, 232560, Note_on_c, 6, 64, 0
8, 232560, Note_on_c, 6, 68, 70
8, 232800, Note_on_c, 6, 68, 0
8, 232800, Note_on_c, 6, 69, 70
8, 233040, Note_on_c, 6, 69, 0
8, 233040, Note_on_c, 6, 72, 70
8, 233280, Note_on_c, 6, 72, 0
8, 233280, Note_on_c, 6, 76, 70
8, 233760, Note_on_c, 6, 76, 0
8, 234240, Note_on_c, 6, 62, 70
8, 234480, Note_on_c, 6, 62, 0
8, 234480, Note_on_c, 6, 66, 70
8, 234720, Note_on_c, 6, 66, 0
8, 234720, Note_on_c, 6, 67, 70
8, 234960, Note_on_c, 6, 67, 0
8, 234960, Note_on_c, 6, 71, 70
8, 235200, Note_on_c, 6, 71, 0
8, 235200, Note_on_c, 6, 74, 70
8, 235680, Note_on_c, 6, 74, 0
8, 236160, Note_on_c, 6, 72, 70
8, 236400, Note_on_c, 6, 72, 0
8, 236400, Note_on_c, 6, 69, 70
8, 236640, Note_on_c, 6, 69, 0
8, 236640, Note_on_c, 6, 72, 70
8, 236880, Note_on_c, 6, 72, 0
8, 236880, Note_on_c, 6, 69, 70
8, 237120, Note_on_c, 6, 69, 0
8, 237120, Note_on_c, 6, 66, 70
8, 237600, Note_on_c, 6, 66, 0
8, 237600, Note_on_c, 6, 67, 70
8, 237840, Note_on_c, 6, 67, 0
8, 237840, Note_on_c, 6, 69, 70
8, 238080, Note_on_c, 6, 69, 0
8, 238080, Note_on_c, 6, 71, 70
8, 238560, Note_on_c, 6, 71, 0
8, 238560, Note_on_c, 6, 71, 70
8, 239520, Note_on_c, 6, 71, 0
8, 239520, Note_on_c, 6, 71, 70
8, 240480, Note_on_c, 6, 71, 0
8, 240960, Note_on_c, 6, 67, 70
8, 241440, Note_on_c, 6, 67, 0
8, 241920, Note_on_c, 6, 67, 70
8, 242400, Note_on_c, 6, 67, 0
8, 242400, Note_on_c, 6, 67, 70
8, 242880, Note_on_c, 6, 67, 0
8, 242880, Note_on_c, 6, 66, 70
8, 243360, Note_on_c, 6, 66, 0
8, 243360, Note_on_c, 6, 66, 70
8, 243840, Note_on_c, 6, 66, 0
8, 243840, Note_on_c, 6, 67, 70
8, 244080, Note_on_c, 6, 67, 0
8, 244080, Note_on_c, 6, 71, 70
8, 244320, Note_on_c, 6, 71, 0
8, 244320, Note_on_c, 6, 69, 70
8, 244560, Note_on_c, 6, 69, 0
8, 244560, Note_on_c, 6, 67, 70
8, 244800, Note_on_c, 6, 67, 0
8, 244800, Note_on_c, 6, 66, 70
8, 245040, Note_on_c, 6, 66, 0
8, 245040, Note_on_c, 6, 64, 70
8, 245280, Note_on_c, 6, 64, 0
8, 245280, Note_on_c, 6, 62, 70
8, 245520, Note_on_c, 6, 62, 0
8, 245520, Note_on_c, 6, 60, 70
8, 245760, Note_on_c, 6, 60, 0
8, 245760, Note_on_c, 6, 59, 70
8, 246240, Note_on_c, 6, 59, 0
8, 261120, Note_on_c, 6, 62, 70
8, 262080, Note_on_c, 6, 62, 0
8, 262560, Note_on_c, 6, 74, 70
8, 263040, Note_on_c, 6, 74, 0
8, 263040, Note_on_c, 6, 72, 70
8, 263520, Note_on_c, 6, 72, 0
8, 263520, Note_on_c, 6, 69, 70
8, 264000, Note_on_c, 6, 69, 0
8, 264000, Note_on_c, 6, 64, 70
8, 264480, Note_on_c, 6, 64, 0
8, 264480, Note_on_c, 6, 60, 70
8, 264960, Note_on_c, 6, 60, 0
8, 264960, Note_on_c, 6, 71, 70
8, 265440, Note_on_c, 6, 71, 0
8, 265440, Note_on_c, 6, 67, 70
8, 265920, Note_on_c, 6, 67, 0
8, 265920, Note_on_c, 6, 62, 70
8, 266400, Note_on_c, 6, 62, 0
8, 266400, Note_on_c, 6, 59, 70
8, 266880, Note_on_c, 6, 59, 0
8, 266880, Note_on_c, 6, 69, 70
8, 267360, Note_on_c, 6, 69, 0
8, 267360, Note_on_c, 6, 66, 70
8, 267840, Note_on_c, 6, 66, 0
8, 267840, Note_on_c, 6, 60, 70
8, 268320, Note_on_c, 6, 60, 0
8, 268320, Note_on_c, 6, 57, 70
8, 268800, Note_on_c, 6, 57, 0
8, 268800, Note_on_c, 6, 62, 70
8, 269280, Note_on_c, 6, 62, 0
8, 270720, Note_on_c, 6, 55, 70
8, 270720, Note_on_c, 6, 62, 70
8, 271200, Note_on_c, 6, 62, 0
8, 271200, Note_on_c, 6, 55, 0
8, 273120, Note_on_c, 6, 81, 70
8, 273600, Note_on_c, 6, 81, 0
8, 274080, Note_on_c, 6, 69, 70
8, 274080, Note_on_c, 6, 78, 70
8, 274560, Note_on_c, 6, 78, 0
8, 274560, Note_on_c, 6, 69, 0
8, 274560, Note_on_c, 6, 55, 70
8, 274560, Note_on_c, 6, 62, 70
8, 275040, Note_on_c, 6, 62, 0
8, 275040, Note_on_c, 6, 55, 0
8, 279360, Note_on_c, 6, 62, 70
8, 279360, Note_on_c, 6, 72, 70
8, 279840, Note_on_c, 6, 72, 0
8, 279840, Note_on_c, 6, 62, 0
8, 280320, Note_on_c, 6, 62, 70
8, 280320, Note_on_c, 6, 74, 70
8, 280800, Note_on_c, 6, 74, 0
8, 280800, Note_on_c, 6, 62, 0
8, 281280, Note_on_c, 6, 62, 70
8, 281280, Note_on_c, 6, 72, 70
8, 281760, Note_on_c, 6, 72, 0
8, 281760, Note_on_c, 6, 62, 0
8, 282240, Note_on_c, 6, 62, 70
8, 282240, Note_on_c, 6, 71, 70
8, 282720, Note_on_c, 6, 71, 0
8, 282720, Note_on_c, 6, 62, 0
8, 283200, Note_on_c, 6, 62, 70
8, 283200, Note_on_c, 6, 72, 70
8, 283680, Note_on_c, 6, 72, 0
8, 283680, Note_on_c, 6, 62, 0
8, 284160, Note_on_c, 6, 62, 70
8, 284160, Note_on_c, 6, 74, 70
8, 284640, Note_on_c, 6, 74, 0
8, 284640, Note_on_c, 6, 62, 0
8, 285120, Note_on_c, 6, 62, 70
8, 285120, Note_on_c, 6, 72, 70
8, 285600, Note_on_c, 6, 72, 0
8, 285600, Note_on_c, 6, 62, 0
8, 286080, Note_on_c, 6, 62, 70
8, 286080, Note_on_c, 6, 71, 70
8, 286560, Note_on_c, 6, 71, 0
8, 286560, Note_on_c, 6, 62, 0
8, 294240, Note_on_c, 6, 67, 70
8, 294720, Note_on_c, 6, 67, 0
8, 295200, Note_on_c, 6, 64, 70
8, 295680, Note_on_c, 6, 64, 0
8, 296160, Note_on_c, 6, 60, 70
8, 296640, Note_on_c, 6, 60, 0
8, 297120, Note_on_c, 6, 57, 70
8, 297600, Note_on_c, 6, 57, 0
8, 297600, Note_on_c, 6, 69, 90
8, 298560, Note_on_c, 6, 69, 0
8, 298560, Note_on_c, 6, 67, 70
8, 299040, Note_on_c, 6, 67, 0
8, 301440, Note_on_c, 6, 69, 90
8, 302400, Note_on_c, 6, 69, 0
8, 302400, Note_on_c, 6, 67, 70
8, 302880, Note_on_c, 6, 67, 0
8, 305280, Note_on_c, 6, 59, 70
8, 305520, Note_on_c, 6, 59, 0
8, 305520, Note_on_c, 6, 62, 70
8, 305760, Note_on_c, 6, 62, 0
8, 305760, Note_on_c, 6, 59, 70
8, 306000, Note_on_c, 6, 59, 0
8, 306000, Note_on_c, 6, 62, 70
8, 306240, Note_on_c, 6, 62, 0
8, 306240, Note_on_c, 6, 59, 70
8, 306480, Note_on_c, 6, 59, 0
8, 306480, Note_on_c, 6, 62, 70
8, 306720, Note_on_c, 6, 62, 0
8, 306720, Note_on_c, 6, 60, 70
8, 306960, Note_on_c, 6, 60, 0
8, 306960, Note_on_c, 6, 62, 70
8, 307200, Note_on_c, 6, 62, 0
8, 307200, Note_on_c, 6, 59, 70
8, 307440, Note_on_c, 6, 59, 0
8, 307440, Note_on_c, 6, 62, 70
8, 307680, Note_on_c, 6, 62, 0
8, 307680, Note_on_c, 6, 60, 70
8, 307920, Note_on_c, 6, 60, 0
8, 307920, Note_on_c, 6, 62, 70
8, 308160, Note_on_c, 6, 62, 0
8, 308160, Note_on_c, 6, 59, 70
8, 308400, Note_on_c, 6, 59, 0
8, 308400, Note_on_c, 6, 62, 70
8, 308640, Note_on_c, 6, 62, 0
8, 308640, Note_on_c, 6, 60, 70
8, 308880, Note_on_c, 6, 60, 0
8, 308880, Note_on_c, 6, 62, 70
8, 309120, Note_on_c, 6, 62, 0
8, 309120, Note_on_c, 6, 59, 70
8, 309360, Note_on_c, 6, 59, 0
8, 309360, Note_on_c, 6, 62, 70
8, 309600, Note_on_c, 6, 62, 0
8, 309600, Note_on_c, 6, 59, 70
8, 309840, Note_on_c, 6, 59, 0
8, 309840, Note_on_c, 6, 62, 70
8, 310080, Note_on_c, 6, 62, 0
8, 310080, Note_on_c, 6, 59, 70
8, 310320, Note_on_c, 6, 59, 0
8, 310320, Note_on_c, 6, 62, 70
8, 310560, Note_on_c, 6, 62, 0
8, 310560, Note_on_c, 6, 59, 70
8, 310800, Note_on_c, 6, 59, 0
8, 310800, Note_on_c, 6, 62, 70
8, 311040, Note_on_c, 6, 62, 0
8, 311040, Note_on_c, 6, 59, 70
8, 311280, Note_on_c, 6, 59, 0
8, 311280, Note_on_c, 6, 62, 70
8, 311520, Note_on_c, 6, 62, 0
8, 311520, Note_on_c, 6, 59, 70
8, 311760, Note_on_c, 6, 59, 0
8, 311760, Note_on_c, 6, 62, 70
8, 312000, Note_on_c, 6, 62, 0
8, 312000, Note_on_c, 6, 60, 70
8, 312240, Note_on_c, 6, 60, 0
8, 312240, Note_on_c, 6, 62, 70
8, 312480, Note_on_c, 6, 62, 0
8, 312480, Note_on_c, 6, 60, 70
8, 312720, Note_on_c, 6, 60, 0
8, 312720, Note_on_c, 6, 62, 70
8, 312960, Note_on_c, 6, 62, 0
8, 312960, Note_on_c, 6, 59, 70
8, 313920, Note_on_c, 6, 59, 0
8, 314400, Note_on_c, 6, 62, 70
8, 314400, Note_on_c, 6, 72, 70
8, 314880, Note_on_c, 6, 72, 0
8, 314880, Note_on_c, 6, 62, 0
8, 314880, Note_on_c, 6, 62, 70
8, 314880, Note_on_c, 6, 71, 70
8, 315360, Note_on_c, 6, 71, 0
8, 315360, Note_on_c, 6, 62, 0
8, 315360, Note_on_c, 6, 62, 70
8, 315360, Note_on_c, 6, 72, 70
8, 315840, Note_on_c, 6, 72, 0
8, 315840, Note_on_c, 6, 62, 0
8, 315840, Note_on_c, 6, 62, 70
8, 315840, Note_on_c, 6, 71, 70
8, 316320, Note_on_c, 6, 71, 0
8, 316320, Note_on_c, 6, 62, 0
8, 316320, Note_on_c, 6, 62, 70
8, 316320, Note_on_c, 6, 72, 70
8, 316800, Note_on_c, 6, 72, 0
8, 316800, Note_on_c, 6, 62, 0
8, 316800, Note_on_c, 6, 62, 70
8, 316800, Note_on_c, 6, 71, 70
8, 317280, Note_on_c, 6, 71, 0
8, 317280, Note_on_c, 6, 62, 0
8, 325440, Note_on_c, 6, 69, 70
8, 326400, Note_on_c, 6, 69, 0
8, 326400, Note_on_c, 6, 67, 70
8, 327360, Note_on_c, 6, 67, 0
8, 327360, Note_on_c, 6, 60, 70
8, 328320, Note_on_c, 6, 60, 0
8, 328320, Note_on_c, 6, 59, 70
8, 329280, Note_on_c, 6, 59, 0
8, 329280, Note_on_c, 6, 69, 70
8, 330240, Note_on_c, 6, 69, 0
8, 330240, Note_on_c, 6, 67, 70
8, 331200, Note_on_c, 6, 67, 0
8, 331200, Note_on_c, 6, 60, 70
8, 332160, Note_on_c, 6, 60, 0
8, 332160, Note_on_c, 6, 59, 70
8, 332640, Note_on_c, 6, 59, 0
8, 340800, Note_on_c, 6, 59, 70
8, 341040, Note_on_c, 6, 59, 0
8, 341040, Note_on_c, 6, 62, 70
8, 341280, Note_on_c, 6, 62, 0
8, 341280, Note_on_c, 6, 60, 70
8, 341520, Note_on_c, 6, 60, 0
8, 341520, Note_on_c, 6, 64, 70
8, 341760, Note_on_c, 6, 64, 0
8, 341760, Note_on_c, 6, 62, 70
8, 342240, Note_on_c, 6, 62, 0
8, 346560, Note_on_c, 6, 59, 70
8, 346800, Note_on_c, 6, 59, 0
8, 346800, Note_on_c, 6, 62, 70
8, 347040, Note_on_c, 6, 62, 0
8, 347040, Note_on_c, 6, 61, 70
8, 347280, Note_on_c, 6, 61, 0
8, 347280, Note_on_c, 6, 64, 70
8, 347520, Note_on_c, 6, 64, 0
8, 347520, Note_on_c, 6, 62, 70
8, 348000, Note_on_c, 6, 62, 0
8, 363840, Note_on_c, 6, 67, 105
8, 363936, Note_on_c, 6, 67, 0
8, 364080, Note_on_c, 6, 65, 105
8, 364176, Note_on_c, 6, 65, 0
8, 364320, Note_on_c, 6, 64, 105
8, 364416, Note_on_c, 6, 64, 0
8, 364560, Note_on_c, 6, 62, 105
8, 364656, Note_on_c, 6, 62, 0
8, 364800, Note_on_c, 6, 60, 105
8, 364896, Note_on_c, 6, 60, 0
8, 365040, Note_on_c, 6, 55, 105
8, 365136, Note_on_c, 6, 55, 0
8, 365280, Note_on_c, 6, 60, 105
8, 365376, Note_on_c, 6, 60, 0
8, 365520, Note_on_c, 6, 55, 105
8, 365616, Note_on_c, 6, 55, 0
8, 365760, Note_on_c, 6, 62, 105
8, 365856, Note_on_c, 6, 62, 0
8, 366000, Note_on_c, 6, 55, 105
8, 366096, Note_on_c, 6, 55, 0
8, 366240, Note_on_c, 6, 62, 105
8, 366336, Note_on_c, 6, 62, 0
8, 366480, Note_on_c, 6, 55, 105
8, 366576, Note_on_c, 6, 55, 0
8, 366720, Note_on_c, 6, 64, 105
8, 366816, Note_on_c, 6, 64, 0
8, 366960, Note_on_c, 6, 60, 105
8, 367056, Note_on_c, 6, 60, 0
8, 367200, Note_on_c, 6, 64, 105
8, 367296, Note_on_c, 6, 64, 0
8, 367440, Note_on_c, 6, 67, 105
8, 367536, Note_on_c, 6, 67, 0
8, 367680, Note_on_c, 6, 64, 105
8, 367776, Note_on_c, 6, 64, 0
8, 367920, Note_on_c, 6, 60, 105
8, 368016, Note_on_c, 6, 60, 0
8, 368160, Note_on_c, 6, 64, 105
8, 368256, Note_on_c, 6, 64, 0
8, 368400, Note_on_c, 6, 60, 105
8, 368496, Note_on_c, 6, 60, 0
8, 368640, Note_on_c, 6, 65, 105
8, 368736, Note_on_c, 6, 65, 0
8, 368880, Note_on_c, 6, 60, 105
8, 368976, Note_on_c, 6, 60, 0
8, 369120, Note_on_c, 6, 64, 105
8, 369216, Note_on_c, 6, 64, 0
8, 369360, Note_on_c, 6, 60, 105
8, 369456, Note_on_c, 6, 60, 0
8, 369600, Note_on_c, 6, 64, 105
8, 369696, Note_on_c, 6, 64, 0
8, 369840, Note_on_c, 6, 60, 105
8, 369936, Note_on_c, 6, 60, 0
8, 370080, Note_on_c, 6, 64, 105
8, 370176, Note_on_c, 6, 64, 0
8, 370320, Note_on_c, 6, 60, 105
8, 370416, Note_on_c, 6, 60, 0
8, 370560, Note_on_c, 6, 65, 105
8, 370656, Note_on_c, 6, 65, 0
8, 370800, Note_on_c, 6, 60, 105
8, 370896, Note_on_c, 6, 60, 0
8, 371040, Note_on_c, 6, 64, 105
8, 371136, Note_on_c, 6, 64, 0
8, 371280, Note_on_c, 6, 60, 105
8, 371376, Note_on_c, 6, 60, 0
8, 371520, Note_on_c, 6, 64, 105
8, 371616, Note_on_c, 6, 64, 0
8, 371760, Note_on_c, 6, 65, 105
8, 371856, Note_on_c, 6, 65, 0
8, 372000, Note_on_c, 6, 67, 105
8, 372096, Note_on_c, 6, 67, 0
8, 372240, Note_on_c, 6, 64, 105
8, 372336, Note_on_c, 6, 64, 0
8, 372480, Note_on_c, 6, 60, 105
8, 372720, Note_on_c, 6, 60, 0
8, 372720, Note_on_c, 6, 64, 105
8, 372960, Note_on_c, 6, 64, 0
8, 372960, Note_on_c, 6, 67, 105
8, 373200, Note_on_c, 6, 67, 0
8, 373200, Note_on_c, 6, 72, 105
8, 373440, Note_on_c, 6, 72, 0
8, 373440, Note_on_c, 6, 59, 105
8, 373680, Note_on_c, 6, 59, 0
8, 373680, Note_on_c, 6, 62, 105
8, 373920, Note_on_c, 6, 62, 0
8, 373920, Note_on_c, 6, 67, 105
8, 374160, Note_on_c, 6, 67, 0
8, 374160, Note_on_c, 6, 71, 105
8, 374400, Note_on_c, 6, 71, 0
8, 374400, Note_on_c, 6, 60, 105
8, 374640, Note_on_c, 6, 60, 0
8, 374640, Note_on_c, 6, 64, 105
8, 374880, Note_on_c, 6, 64, 0
8, 374880, Note_on_c, 6, 67, 105
8, 375120, Note_on_c, 6, 67, 0
8, 375120, Note_on_c, 6, 72, 105
8, 375360, Note_on_c, 6, 72, 0
8, 375360, Note_on_c, 6, 62, 105
8, 375600, Note_on_c, 6, 62, 0
8, 375600, Note_on_c, 6, 67, 105
8, 375840, Note_on_c, 6, 67, 0
8, 375840, Note_on_c, 6, 71, 105
8, 376080, Note_on_c, 6, 71, 0
8, 376080, Note_on_c, 6, 74, 105
8, 376320, Note_on_c, 6, 74, 0
8, 376320, Note_on_c, 6, 72, 105
8, 376800, Note_on_c, 6, 72, 0
8, 376800, Note_on_c, 6, 72, 105
8, 377280, Note_on_c, 6, 72, 0
8, 377280, Note_on_c, 6, 76, 105
8, 377520, Note_on_c, 6, 76, 0
8, 377520, Note_on_c, 6, 74, 105
8, 377760, Note_on_c, 6, 74, 0
8, 377760, Note_on_c, 6, 72, 105
8, 378000, Note_on_c, 6, 72, 0
8, 378000, Note_on_c, 6, 71, 105
8, 378240, Note_on_c, 6, 71, 0
8, 378240, Note_on_c, 6, 72, 105
8, 378720, Note_on_c, 6, 72, 0
8, 382560, Note_on_c, 6, 64, 105
8, 383040, Note_on_c, 6, 64, 0
8, 383520, Note_on_c, 6, 74, 105
8, 383520, Note_on_c, 6, 77, 105
8, 384000, Note_on_c, 6, 77, 0
8, 384000, Note_on_c, 6, 74, 0
8, 384480, Note_on_c, 6, 72, 105
8, 384480, Note_on_c, 6, 76, 105
8, 384960, Note_on_c, 6, 76, 0
8, 384960, Note_on_c, 6, 72, 0
8, 385440, Note_on_c, 6, 67, 105
8, 385440, Note_on_c, 6, 74, 105
8, 385920, Note_on_c, 6, 74, 0
8, 385920, Note_on_c, 6, 67, 0
8, 385920, Note_on_c, 6, 64, 105
8, 385920, Note_on_c, 6, 72, 105
8, 386400, Note_on_c, 6, 72, 0
8, 386400, Note_on_c, 6, 64, 0
8, 386400, Note_on_c, 6, 67, 105
8, 386400, Note_on_c, 6, 72, 105
8, 386400, Note_on_c, 6, 76, 105
8, 386880, Note_on_c, 6, 76, 0
8, 386880, Note_on_c, 6, 72, 0
8, 386880, Note_on_c, 6, 67, 0
8, 387360, Note_on_c, 6, 74, 105
8, 387360, Note_on_c, 6, 77, 105
8, 387840, Note_on_c, 6, 77, 0
8, 387840, Note_on_c, 6, 74, 0
8, 388320, Note_on_c, 6, 72, 105
8, 388320, Note_on_c, 6, 76, 105
8, 388800, Note_on_c, 6, 76, 0
8, 388800, Note_on_c, 6, 72, 0
8, 389280, Note_on_c, 6, 68, 105
8, 389280, Note_on_c, 6, 71, 105
8, 389760, Note_on_c, 6, 71, 0
8, 389760, Note_on_c, 6, 68, 0
8, 389760, Note_on_c, 6, 69, 105
8, 390240, Note_on_c, 6, 69, 0
8, 390240, Note_on_c, 6, 57, 105
8, 390240, Note_on_c, 6, 64, 105
8, 390240, Note_on_c, 6, 72, 105
8, 390720, Note_on_c, 6, 72, 0
8, 390720, Note_on_c, 6, 64, 0
8, 390720, Note_on_c, 6, 57, 0
8, 391200, Note_on_c, 6, 64, 105
8, 391200, Note_on_c, 6, 74, 105
8, 391680, Note_on_c, 6, 74, 0
8, 391680, Note_on_c, 6, 64, 0
8, 392160, Note_on_c, 6, 69, 105
8, 392160, Note_on_c, 6, 76, 105
8, 392640, Note_on_c, 6, 76, 0
8, 392640, Note_on_c, 6, 69, 0
8, 393120, Note_on_c, 6, 55, 105
8, 393120, Note_on_c, 6, 64, 105
8, 393600, Note_on_c, 6, 64, 0
8, 393600, Note_on_c, 6, 55, 0
8, 393600, Note_on_c, 6, 57, 105
8, 393600, Note_on_c, 6, 65, 105
8, 394080, Note_on_c, 6, 65, 0
8, 394080, Note_on_c, 6, 57, 0
8, 394080, Note_on_c, 6, 65, 105
8, 394080, Note_on_c, 6, 69, 105
8, 394560, Note_on_c, 6, 69, 0
8, 394560, Note_on_c, 6, 65, 0
8, 395040, Note_on_c, 6, 67, 105
8, 395040, Note_on_c, 6, 70, 105
8, 395520, Note_on_c, 6, 70, 0
8, 395520, Note_on_c, 6, 67, 0
8, 396000, Note_on_c, 6, 69, 105
8, 396000, Note_on_c, 6, 72, 105
8, 396480, Note_on_c, 6, 72, 0
8, 396480, Note_on_c, 6, 69, 0
8, 396960, Note_on_c, 6, 79, 105
8, 397440, Note_on_c, 6, 79, 0
8, 397440, Note_on_c, 6, 77, 105
8, 397920, Note_on_c, 6, 77, 0
8, 397920, Note_on_c, 6, 57, 70
8, 398160, Note_on_c, 6, 57, 0
8, 398160, Note_on_c, 6, 60, 70
8, 398400, Note_on_c, 6, 60, 0
8, 398400, Note_on_c, 6, 57, 70
8, 398640, Note_on_c, 6, 57, 0
8, 398640, Note_on_c, 6, 60, 70
8, 398880, Note_on_c, 6, 60, 0
8, 398880, Note_on_c, 6, 57, 70
8, 399120, Note_on_c, 6, 57, 0
8, 399120, Note_on_c, 6, 60, 70
8, 399360, Note_on_c, 6, 60, 0
8, 399360, Note_on_c, 6, 57, 70
8, 399600, Note_on_c, 6, 57, 0
8, 399600, Note_on_c, 6, 60, 70
8, 399840, Note_on_c, 6, 60, 0
8, 399840, Note_on_c, 6, 57, 70
8, 400080, Note_on_c, 6, 57, 0
8, 400080, Note_on_c, 6, 60, 70
8, 400320, Note_on_c, 6, 60, 0
8, 400320, Note_on_c, 6, 57, 70
8, 400560, Note_on_c, 6, 57, 0
8, 400560, Note_on_c, 6, 60, 70
8, 400800, Note_on_c, 6, 60, 0
8, 400800, Note_on_c, 6, 57, 70
8, 401040, Note_on_c, 6, 57, 0
8, 401040, Note_on_c, 6, 60, 70
8, 401280, Note_on_c, 6, 60, 0
8, 401280, Note_on_c, 6, 57, 70
8, 401520, Note_on_c, 6, 57, 0
8, 401520, Note_on_c, 6, 60, 70
8, 401760, Note_on_c, 6, 60, 0
8, 401760, Note_on_c, 6, 57, 70
8, 402000, Note_on_c, 6, 57, 0
8, 402000, Note_on_c, 6, 60, 70
8, 402240, Note_on_c, 6, 60, 0
8, 402240, Note_on_c, 6, 57, 70
8, 402480, Note_on_c, 6, 57, 0
8, 402480, Note_on_c, 6, 60, 70
8, 402720, Note_on_c, 6, 60, 0
8, 402720, Note_on_c, 6, 57, 70
8, 402960, Note_on_c, 6, 57, 0
8, 402960, Note_on_c, 6, 60, 70
8, 403200, Note_on_c, 6, 60, 0
8, 403200, Note_on_c, 6, 58, 70
8, 403440, Note_on_c, 6, 58, 0
8, 403440, Note_on_c, 6, 65, 70
8, 403680, Note_on_c, 6, 65, 0
8, 403680, Note_on_c, 6, 58, 70
8, 403920, Note_on_c, 6, 58, 0
8, 403920, Note_on_c, 6, 65, 70
8, 404160, Note_on_c, 6, 65, 0
8, 404160, Note_on_c, 6, 57, 70
8, 404400, Note_on_c, 6, 57, 0
8, 404400, Note_on_c, 6, 60, 70
8, 404640, Note_on_c, 6, 60, 0
8, 404640, Note_on_c, 6, 57, 70
8, 404880, Note_on_c, 6, 57, 0
8, 404880, Note_on_c, 6, 60, 70
8, 405120, Note_on_c, 6, 60, 0
8, 405120, Note_on_c, 6, 65, 70
8, 407040, Note_on_c, 6, 65, 0
8, 407040, Note_on_c, 6, 62, 70
8, 408960, Note_on_c, 6, 62, 0
8, 408960, Note_on_c, 6, 60, 70
8, 409440, Note_on_c, 6, 60, 0
8, 409440, Note_on_c, 6, 60, 70
8, 410400, Note_on_c, 6, 60, 0
8, 410400, Note_on_c, 6, 60, 70
8, 410640, Note_on_c, 6, 60, 0
8, 410640, Note_on_c, 6, 58, 70
8, 410880, Note_on_c, 6, 58, 0
8, 410880, Note_on_c, 6, 57, 70
8, 411360, Note_on_c, 6, 57, 0
8, 412800, Note_on_c, 6, 57, 70
8, 413040, Note_on_c, 6, 57, 0
8, 413040, Note_on_c, 6, 60, 70
8, 413280, Note_on_c, 6, 60, 0
8, 413280, Note_on_c, 6, 57, 70
8, 413520, Note_on_c, 6, 57, 0
8, 413520, Note_on_c, 6, 60, 70
8, 413760, Note_on_c, 6, 60, 0
8, 413760, Note_on_c, 6, 57, 70
8, 414000, Note_on_c, 6, 57, 0
8, 414000, Note_on_c, 6, 60, 70
8, 414240, Note_on_c, 6, 60, 0
8, 414240, Note_on_c, 6, 57, 70
8, 414480, Note_on_c, 6, 57, 0
8, 414480, Note_on_c, 6, 60, 70
8, 414720, Note_on_c, 6, 60, 0
8, 414720, Note_on_c, 6, 57, 70
8, 414960, Note_on_c, 6, 57, 0
8, 414960, Note_on_c, 6, 60, 70
8, 415200, Note_on_c, 6, 60, 0
8, 415200, Note_on_c, 6, 57, 70
8, 415440, Note_on_c, 6, 57, 0
8, 415440, Note_on_c, 6, 60, 70
8, 415680, Note_on_c, 6, 60, 0
8, 415680, Note_on_c, 6, 57, 70
8, 415920, Note_on_c, 6, 57, 0
8, 415920, Note_on_c, 6, 60, 70
8, 416160, Note_on_c, 6, 60, 0
8, 416160, Note_on_c, 6, 57, 70
8, 416400, Note_on_c, 6, 57, 0
8, 416400, Note_on_c, 6, 60, 70
8, 416640, Note_on_c, 6, 60, 0
8, 416640, Note_on_c, 6, 57, 70
8, 416880, Note_on_c, 6, 57, 0
8, 416880, Note_on_c, 6, 60, 70
8, 417120, Note_on_c, 6, 60, 0
8, 417120, Note_on_c, 6, 57, 70
8, 417360, Note_on_c, 6, 57, 0
8, 417360, Note_on_c, 6, 60, 70
8, 417600, Note_on_c, 6, 60, 0
8, 417600, Note_on_c, 6, 57, 70
8, 417840, Note_on_c, 6, 57, 0
8, 417840, Note_on_c, 6, 60, 70
8, 418080, Note_on_c, 6, 60, 0
8, 418080, Note_on_c, 6, 57, 70
8, 418320, Note_on_c, 6, 57, 0
8, 418320, Note_on_c, 6, 60, 70
8, 418560, Note_on_c, 6, 60, 0
8, 418560, Note_on_c, 6, 58, 70
8, 418800, Note_on_c, 6, 58, 0
8, 418800, Note_on_c, 6, 65, 70
8, 419040, Note_on_c, 6, 65, 0
8, 419040, Note_on_c, 6, 58, 70
8, 419280, Note_on_c, 6, 58, 0
8, 419280, Note_on_c, 6, 65, 70
8, 419520, Note_on_c, 6, 65, 0
8, 419520, Note_on_c, 6, 57, 70
8, 419760, Note_on_c, 6, 57, 0
8, 419760, Note_on_c, 6, 60, 70
8, 420000, Note_on_c, 6, 60, 0
8, 420000, Note_on_c, 6, 57, 70
8, 420240, Note_on_c, 6, 57, 0
8, 420240, Note_on_c, 6, 60, 70
8, 420480, Note_on_c, 6, 60, 0
8, 420480, Note_on_c, 6, 65, 70
8, 424320, Note_on_c, 6, 65, 0
8, 424320, Note_on_c, 6, 65, 70
8, 425760, Note_on_c, 6, 65, 0
8, 425760, Note_on_c, 6, 64, 70
8, 426240, Note_on_c, 6, 64, 0
8, 426240, Note_on_c, 6, 65, 70
8, 426720, Note_on_c, 6, 65, 0
8, 472320, Note_on_c, 6, 60, 70
8, 472560, Note_on_c, 6, 60, 0
8, 472560, Note_on_c, 6, 55, 70
8, 472800, Note_on_c, 6, 55, 0
8, 472800, Note_on_c, 6, 60, 70
8, 473040, Note_on_c, 6, 60, 0
8, 473040, Note_on_c, 6, 55, 70
8, 473280, Note_on_c, 6, 55, 0
8, 473280, Note_on_c, 6, 59, 70
8, 473520, Note_on_c, 6, 59, 0
8, 473520, Note_on_c, 6, 55, 70
8, 473760, Note_on_c, 6, 55, 0
8, 473760, Note_on_c, 6, 59, 70
8, 474000, Note_on_c, 6, 59, 0
8, 474000, Note_on_c, 6, 55, 70
8, 474240, Note_on_c, 6, 55, 0
8, 476160, Note_on_c, 6, 59, 70
8, 476400, Note_on_c, 6, 59, 0
8, 476400, Note_on_c, 6, 55, 70
8, 476640, Note_on_c, 6, 55, 0
8, 476640, Note_on_c, 6, 59, 70
8, 476880, Note_on_c, 6, 59, 0
8, 476880, Note_on_c, 6, 55, 70
8, 477120, Note_on_c, 6, 55, 0
8, 477120, Note_on_c, 6, 60, 70
8, 477360, Note_on_c, 6, 60, 0
8, 477360, Note_on_c, 6, 55, 70
8, 477600, Note_on_c, 6, 55, 0
8, 477600, Note_on_c, 6, 60, 70
8, 477840, Note_on_c, 6, 60, 0
8, 477840, Note_on_c, 6, 55, 70
8, 478080, Note_on_c, 6, 55, 0
8, 478080, Note_on_c, 6, 59, 70
8, 478560, Note_on_c, 6, 59, 0
8, 482400, Note_on_c, 6, 63, 70
8, 482880, Note_on_c, 6, 63, 0
8, 482880, Note_on_c, 6, 60, 70
8, 483360, Note_on_c, 6, 60, 0
8, 483360, Note_on_c, 6, 63, 70
8, 483840, Note_on_c, 6, 63, 0
8, 484320, Note_on_c, 6, 60, 70
8, 484800, Note_on_c, 6, 60, 0
8, 484800, Note_on_c, 6, 62, 70
8, 485280, Note_on_c, 6, 62, 0
8, 485280, Note_on_c, 6, 63, 70
8, 485760, Note_on_c, 6, 63, 0
8, 486240, Note_on_c, 6, 62, 70
8, 486720, Note_on_c, 6, 62, 0
8, 486720, Note_on_c, 6, 59, 70
8, 487200, Note_on_c, 6, 59, 0
8, 487200, Note_on_c, 6, 62, 70
8, 487680, Note_on_c, 6, 62, 0
8, 488160, Note_on_c, 6, 67, 70
8, 488640, Note_on_c, 6, 67, 0
8, 488640, Note_on_c, 6, 66, 70
8, 489120, Note_on_c, 6, 66, 0
8, 489120, Note_on_c, 6, 67, 70
8, 489600, Note_on_c, 6, 67, 0
8, 490080, Note_on_c, 6, 63, 70
8, 490560, Note_on_c, 6, 63, 0
8, 490560, Note_on_c, 6, 60, 70
8, 491040, Note_on_c, 6, 60, 0
8, 491040, Note_on_c, 6, 63, 70
8, 491520, Note_on_c, 6, 63, 0
8, 492000, Note_on_c, 6, 66, 70
8, 492960, Note_on_c, 6, 66, 0
8, 492960, Note_on_c, 6, 66, 70
8, 493440, Note_on_c, 6, 66, 0
8, 493440, Note_on_c, 6, 67, 70
8, 493920, Note_on_c, 6, 67, 0
8, 493920, Note_on_c, 6, 67, 70
8, 494112, Note_on_c, 6, 67, 0
8, 495840, Note_on_c, 6, 67, 70
8, 496032, Note_on_c, 6, 67, 0
8, 497760, Note_on_c, 6, 67, 70
8, 498240, Note_on_c, 6, 67, 0
8, 498720, Note_on_c, 6, 67, 70
8, 499200, Note_on_c, 6, 67, 0
8, 499200, Note_on_c, 6, 67, 70
8, 499440, Note_on_c, 6, 67, 0
8, 499680, Note_on_c, 6, 67, 70
8, 499920, Note_on_c, 6, 67, 0
8, 500160, Note_on_c, 6, 67, 70
8, 500400, Note_on_c, 6, 67, 0
8, 500640, Note_on_c, 6, 67, 70
8, 500880, Note_on_c, 6, 67, 0
8, 501120, Note_on_c, 6, 67, 70
8, 501600, Note_on_c, 6, 67, 0
8, 517920, Note_on_c, 6, 60, 70
8, 517980, Note_on_c, 6, 60, 0
8, 517980, Note_on_c, 6, 59, 70
8, 518040, Note_on_c, 6, 59, 0
8, 518040, Note_on_c, 6, 60, 70
8, 518100, Note_on_c, 6, 60, 0
8, 518100, Note_on_c, 6, 59, 70
8, 518160, Note_on_c, 6, 59, 0
8, 518160, Note_on_c, 6, 57, 70
8, 518280, Note_on_c, 6, 57, 0
8, 518280, Note_on_c, 6, 59, 70
8, 518400, Note_on_c, 6, 59, 0
8, 518400, Note_on_c, 6, 60, 70
8, 518880, Note_on_c, 6, 60, 0
8, 518880, Note_on_c, 6, 64, 70
8, 519072, Note_on_c, 6, 64, 0
8, 519360, Note_on_c, 6, 62, 70
8, 519552, Note_on_c, 6, 62, 0
8, 519840, Note_on_c, 6, 65, 70
8, 520032, Note_on_c, 6, 65, 0
8, 520320, Note_on_c, 6, 64, 70
8, 520800, Note_on_c, 6, 64, 0
8, 520800, Note_on_c, 6, 67, 70
8, 524640, Note_on_c, 6, 67, 0
8, 525120, Note_on_c, 6, 81, 70
8, 526080, Note_on_c, 6, 81, 0
8, 526080, Note_on_c, 6, 79, 70
8, 527040, Note_on_c, 6, 79, 0
8, 527040, Note_on_c, 6, 77, 70
8, 528000, Note_on_c, 6, 77, 0
8, 528000, Note_on_c, 6, 76, 70
8, 528960, Note_on_c, 6, 76, 0
8, 528960, Note_on_c, 6, 74, 70
8, 529920, Note_on_c, 6, 74, 0
8, 529920, Note_on_c, 6, 62, 90
8, 529920, Note_on_c, 6, 72, 90
8, 530880, Note_on_c, 6, 72, 0
8, 530880, Note_on_c, 6, 62, 0
8, 531840, Note_on_c, 6, 55, 90
8, 532320, Note_on_c, 6, 55, 0
8, 533760, Note_on_c, 6, 62, 90
8, 533760, Note_on_c, 6, 72, 90
8, 534720, Note_on_c, 6, 72, 0
8, 534720, Note_on_c, 6, 62, 0
8, 535680, Note_on_c, 6, 55, 70
8, 535680, Note_on_c, 6, 62, 70
8, 536160, Note_on_c, 6, 62, 0
8, 536160, Note_on_c, 6, 55, 0
8, 549360, Note_on_c, 6, 79, 70
8, 549600, Note_on_c, 6, 79, 0
8, 549600, Note_on_c, 6, 78, 70
8, 549840, Note_on_c, 6, 78, 0
8, 549840, Note_on_c, 6, 79, 70
8, 550080, Note_on_c, 6, 79, 0
8, 550080, Note_on_c, 6, 78, 70
8, 550320, Note_on_c, 6, 78, 0
8, 550320, Note_on_c, 6, 79, 70
8, 550560, Note_on_c, 6, 79, 0
8, 550560, Note_on_c, 6, 78, 70
8, 550800, Note_on_c, 6, 78, 0
8, 550800, Note_on_c, 6, 79, 70
8, 551040, Note_on_c, 6, 79, 0
8, 551040, Note_on_c, 6, 67, 70
8, 554880, Note_on_c, 6, 67, 0
8, 554880, Note_on_c, 6, 55, 70
8, 556800, Note_on_c, 6, 55, 0
8, 557040, Note_on_c, 6, 72, 70
8, 557280, Note_on_c, 6, 72, 0
8, 557280, Note_on_c, 6, 71, 70
8, 557520, Note_on_c, 6, 71, 0
8, 557520, Note_on_c, 6, 72, 70
8, 557760, Note_on_c, 6, 72, 0
8, 557760, Note_on_c, 6, 71, 70
8, 558000, Note_on_c, 6, 71, 0
8, 558000, Note_on_c, 6, 72, 70
8, 558240, Note_on_c, 6, 72, 0
8, 558240, Note_on_c, 6, 71, 70
8, 558480, Note_on_c, 6, 71, 0
8, 558480, Note_on_c, 6, 72, 70
8, 558720, Note_on_c, 6, 72, 0
8, 558720, Note_on_c, 6, 60, 70
8, 560640, Note_on_c, 6, 60, 0
8, 560640, Note_on_c, 6, 57, 70
8, 560880, Note_on_c, 6, 57, 0
8, 560880, Note_on_c, 6, 61, 70
8, 561120, Note_on_c, 6, 61, 0
8, 561120, Note_on_c, 6, 62, 70
8, 561360, Note_on_c, 6, 62, 0
8, 561360, Note_on_c, 6, 65, 70
8, 561600, Note_on_c, 6, 65, 0
8, 561600, Note_on_c, 6, 69, 70
8, 562080, Note_on_c, 6, 69, 0
8, 562560, Note_on_c, 6, 55, 70
8, 562800, Note_on_c, 6, 55, 0
8, 562800, Note_on_c, 6, 59, 70
8, 563040, Note_on_c, 6, 59, 0
8, 563040, Note_on_c, 6, 60, 70
8, 563280, Note_on_c, 6, 60, 0
8, 563280, Note_on_c, 6, 64, 70
8, 563520, Note_on_c, 6, 64, 0
8, 563520, Note_on_c, 6, 67, 70
8, 564000, Note_on_c, 6, 67, 0
8, 564480, Note_on_c, 6, 65, 70
8, 564720, Note_on_c, 6, 65, 0
8, 564720, Note_on_c, 6, 62, 70
8, 564960, Note_on_c, 6, 62, 0
8, 564960, Note_on_c, 6, 65, 70
8, 565200, Note_on_c, 6, 65, 0
8, 565200, Note_on_c, 6, 62, 70
8, 565440, Note_on_c, 6, 62, 0
8, 565440, Note_on_c, 6, 59, 70
8, 565920, Note_on_c, 6, 59, 0
8, 565920, Note_on_c, 6, 60, 70
8, 566160, Note_on_c, 6, 60, 0
8, 566160, Note_on_c, 6, 62, 70
8, 566400, Note_on_c, 6, 62, 0
8, 566400, Note_on_c, 6, 64, 70
8, 566880, Note_on_c, 6, 64, 0
8, 566880, Note_on_c, 6, 71, 70
8, 567360, Note_on_c, 6, 71, 0
8, 567360, Note_on_c, 6, 69, 70
8, 567840, Note_on_c, 6, 69, 0
8, 567840, Note_on_c, 6, 71, 70
8, 568320, Note_on_c, 6, 71, 0
8, 568320, Note_on_c, 6, 69, 70
8, 568800, Note_on_c, 6, 69, 0
8, 569280, Note_on_c, 6, 72, 70
8, 569760, Note_on_c, 6, 72, 0
8, 570240, Note_on_c, 6, 72, 70
8, 570720, Note_on_c, 6, 72, 0
8, 570720, Note_on_c, 6, 72, 70
8, 571200, Note_on_c, 6, 72, 0
8, 571200, Note_on_c, 6, 71, 70
8, 571680, Note_on_c, 6, 71, 0
8, 571680, Note_on_c, 6, 71, 70
8, 572160, Note_on_c, 6, 71, 0
8, 572160, Note_on_c, 6, 72, 70
8, 572400, Note_on_c, 6, 72, 0
8, 572400, Note_on_c, 6, 76, 70
8, 572640, Note_on_c, 6, 76, 0
8, 572640, Note_on_c, 6, 74, 70
8, 572880, Note_on_c, 6, 74, 0
8, 572880, Note_on_c, 6, 72, 70
8, 573120, Note_on_c, 6, 72, 0
8, 573120, Note_on_c, 6, 71, 70
8, 573360, Note_on_c, 6, 71, 0
8, 573360, Note_on_c, 6, 69, 70
8, 573600, Note_on_c, 6, 69, 0
8, 573600, Note_on_c, 6, 67, 70
8, 573840, Note_on_c, 6, 67, 0
8, 573840, Note_on_c, 6, 65, 70
8, 574080, Note_on_c, 6, 65, 0
8, 574080, Note_on_c, 6, 64, 70
8, 574560, Note_on_c, 6, 64, 0
8, 589440, Note_on_c, 6, 64, 70
8, 590400, Note_on_c, 6, 64, 0
8, 590880, Note_on_c, 6, 67, 70
8, 591360, Note_on_c, 6, 67, 0
8, 591360, Note_on_c, 6, 69, 70
8, 591840, Note_on_c, 6, 69, 0
8, 591840, Note_on_c, 6, 74, 70
8, 592320, Note_on_c, 6, 74, 0
8, 592320, Note_on_c, 6, 77, 70
8, 592800, Note_on_c, 6, 77, 0
8, 592800, Note_on_c, 6, 81, 70
8, 593280, Note_on_c, 6, 81, 0
8, 593280, Note_on_c, 6, 67, 70
8, 593760, Note_on_c, 6, 67, 0
8, 593760, Note_on_c, 6, 72, 70
8, 594240, Note_on_c, 6, 72, 0
8, 594240, Note_on_c, 6, 76, 70
8, 594720, Note_on_c, 6, 76, 0
8, 594720, Note_on_c, 6, 79, 70
8, 595200, Note_on_c, 6, 79, 0
8, 595200, Note_on_c, 6, 65, 70
8, 595680, Note_on_c, 6, 65, 0
8, 595680, Note_on_c, 6, 71, 70
8, 596160, Note_on_c, 6, 71, 0
8, 596160, Note_on_c, 6, 74, 70
8, 596640, Note_on_c, 6, 74, 0
8, 596640, Note_on_c, 6, 77, 70
8, 597120, Note_on_c, 6, 77, 0
8, 597120, Note_on_c, 6, 72, 70
8, 597600, Note_on_c, 6, 72, 0
8, 599040, Note_on_c, 6, 64, 70
8, 599040, Note_on_c, 6, 79, 70
8, 599520, Note_on_c, 6, 79, 0
8, 599520, Note_on_c, 6, 64, 0
8, 602880, Note_on_c, 6, 60, 90
8, 603000, Note_on_c, 6, 60, 0
8, 603000, Note_on_c, 6, 60, 90
8, 603120, Note_on_c, 6, 60, 0
8, 603120, Note_on_c, 6, 60, 90
8, 603240, Note_on_c, 6, 60, 0
8, 603240, Note_on_c, 6, 60, 90
8, 603360, Note_on_c, 6, 60, 0
8, 603360, Note_on_c, 6, 60, 90
8, 603480, Note_on_c, 6, 60, 0
8, 603480, Note_on_c, 6, 60, 90
8, 603600, Note_on_c, 6, 60, 0
8, 603600, Note_on_c, 6, 60, 90
8, 603720, Note_on_c, 6, 60, 0
8, 603720, Note_on_c, 6, 60, 90
8, 603840, Note_on_c, 6, 60, 0
8, 603840, Note_on_c, 6, 60, 90
8, 603960, Note_on_c, 6, 60, 0
8, 603960, Note_on_c, 6, 60, 90
8, 604080, Note_on_c, 6, 60, 0
8, 604080, Note_on_c, 6, 60, 90
8, 604200, Note_on_c, 6, 60, 0
8, 604200, Note_on_c, 6, 60, 90
8, 604320, Note_on_c, 6, 60, 0
8, 604320, Note_on_c, 6, 60, 70
8, 604440, Note_on_c, 6, 60, 0
8, 604440, Note_on_c, 6, 60, 70
8, 604560, Note_on_c, 6, 60, 0
8, 604560, Note_on_c, 6, 60, 70
8, 604680, Note_on_c, 6, 60, 0
8, 604680, Note_on_c, 6, 60, 70
8, 604800, Note_on_c, 6, 60, 0
8, 604800, Note_on_c, 6, 60, 70
8, 604920, Note_on_c, 6, 60, 0
8, 604920, Note_on_c, 6, 60, 70
8, 605040, Note_on_c, 6, 60, 0
8, 605040, Note_on_c, 6, 60, 70
8, 605160, Note_on_c, 6, 60, 0
8, 605160, Note_on_c, 6, 60, 70
8, 605280, Note_on_c, 6, 60, 0
8, 605280, Note_on_c, 6, 60, 70
8, 605400, Note_on_c, 6, 60, 0
8, 605400, Note_on_c, 6, 60, 70
8, 605520, Note_on_c, 6, 60, 0
8, 605520, Note_on_c, 6, 60, 70
8, 605640, Note_on_c, 6, 60, 0
8, 605640, Note_on_c, 6, 60, 70
8, 605760, Note_on_c, 6, 60, 0
8, 605760, Note_on_c, 6, 60, 70
8, 605880, Note_on_c, 6, 60, 0
8, 605880, Note_on_c, 6, 60, 70
8, 606000, Note_on_c, 6, 60, 0
8, 606000, Note_on_c, 6, 60, 70
8, 606120, Note_on_c, 6, 60, 0
8, 606120, Note_on_c, 6, 60, 70
8, 606240, Note_on_c, 6, 60, 0
8, 606240, Note_on_c, 6, 60, 70
8, 606360, Note_on_c, 6, 60, 0
8, 606360, Note_on_c, 6, 60, 70
8, 606480, Note_on_c, 6, 60, 0
8, 606480, Note_on_c, 6, 60, 70
8, 606600, Note_on_c, 6, 60, 0
8, 606600, Note_on_c, 6, 60, 70
8, 606720, Note_on_c, 6, 60, 0
8, 606720, Note_on_c, 6, 60, 90
8, 606840, Note_on_c, 6, 60, 0
8, 606840, Note_on_c, 6, 60, 90
8, 606960, Note_on_c, 6, 60, 0
8, 606960, Note_on_c, 6, 60, 90
8, 607080, Note_on_c, 6, 60, 0
8, 607080, Note_on_c, 6, 60, 90
8, 607200, Note_on_c, 6, 60, 0
8, 607200, Note_on_c, 6, 60, 90
8, 607320, Note_on_c, 6, 60, 0
8, 607320, Note_on_c, 6, 60, 90
8, 607440, Note_on_c, 6, 60, 0
8, 607440, Note_on_c, 6, 60, 90
8, 607560, Note_on_c, 6, 60, 0
8, 607560, Note_on_c, 6, 60, 90
8, 607680, Note_on_c, 6, 60, 0
8, 607680, Note_on_c, 6, 60, 90
8, 607800, Note_on_c, 6, 60, 0
8, 607800, Note_on_c, 6, 60, 90
8, 607920, Note_on_c, 6, 60, 0
8, 607920, Note_on_c, 6, 60, 90
8, 608040, Note_on_c, 6, 60, 0
8, 608040, Note_on_c, 6, 60, 90
8, 608160, Note_on_c, 6, 60, 0
8, 608160, Note_on_c, 6, 60, 70
8, 608280, Note_on_c, 6, 60, 0
8, 608280, Note_on_c, 6, 60, 70
8, 608400, Note_on_c, 6, 60, 0
8, 608400, Note_on_c, 6, 60, 70
8, 608520, Note_on_c, 6, 60, 0
8, 608520, Note_on_c, 6, 60, 70
8, 608640, Note_on_c, 6, 60, 0
8, 608640, Note_on_c, 6, 60, 70
8, 608760, Note_on_c, 6, 60, 0
8, 608760, Note_on_c, 6, 60, 70
8, 608880, Note_on_c, 6, 60, 0
8, 608880, Note_on_c, 6, 60, 70
8, 609000, Note_on_c, 6, 60, 0
8, 609000, Note_on_c, 6, 60, 70
8, 609120, Note_on_c, 6, 60, 0
8, 609120, Note_on_c, 6, 60, 70
8, 609240, Note_on_c, 6, 60, 0
8, 609240, Note_on_c, 6, 60, 70
8, 609360, Note_on_c, 6, 60, 0
8, 609360, Note_on_c, 6, 60, 70
8, 609480, Note_on_c, 6, 60, 0
8, 609480, Note_on_c, 6, 60, 70
8, 609600, Note_on_c, 6, 60, 0
8, 609600, Note_on_c, 6, 60, 70
8, 609720, Note_on_c, 6, 60, 0
8, 609720, Note_on_c, 6, 60, 70
8, 609840, Note_on_c, 6, 60, 0
8, 609840, Note_on_c, 6, 60, 70
8, 609960, Note_on_c, 6, 60, 0
8, 609960, Note_on_c, 6, 60, 70
8, 610080, Note_on_c, 6, 60, 0
8, 610080, Note_on_c, 6, 60, 70
8, 610200, Note_on_c, 6, 60, 0
8, 610200, Note_on_c, 6, 60, 70
8, 610320, Note_on_c, 6, 60, 0
8, 610320, Note_on_c, 6, 60, 70
8, 610440, Note_on_c, 6, 60, 0
8, 610440, Note_on_c, 6, 60, 70
8, 610560, Note_on_c, 6, 60, 0
8, 610560, Note_on_c, 6, 60, 70
8, 610800, Note_on_c, 6, 60, 0
8, 610800, Note_on_c, 6, 57, 70
8, 611040, Note_on_c, 6, 57, 0
8, 611040, Note_on_c, 6, 60, 70
8, 611280, Note_on_c, 6, 60, 0
8, 611280, Note_on_c, 6, 57, 70
8, 611520, Note_on_c, 6, 57, 0
8, 611520, Note_on_c, 6, 60, 70
8, 611760, Note_on_c, 6, 60, 0
8, 611760, Note_on_c, 6, 57, 70
8, 612000, Note_on_c, 6, 57, 0
8, 612000, Note_on_c, 6, 60, 70
8, 612240, Note_on_c, 6, 60, 0
8, 612240, Note_on_c, 6, 57, 70
8, 612480, Note_on_c, 6, 57, 0
8, 612480, Note_on_c, 6, 60, 70
8, 612720, Note_on_c, 6, 60, 0
8, 612720, Note_on_c, 6, 57, 70
8, 612960, Note_on_c, 6, 57, 0
8, 612960, Note_on_c, 6, 60, 70
8, 613200, Note_on_c, 6, 60, 0
8, 613200, Note_on_c, 6, 57, 70
8, 613440, Note_on_c, 6, 57, 0
8, 613440, Note_on_c, 6, 60, 70
8, 613680, Note_on_c, 6, 60, 0
8, 613680, Note_on_c, 6, 57, 70
8, 613920, Note_on_c, 6, 57, 0
8, 613920, Note_on_c, 6, 60, 70
8, 614160, Note_on_c, 6, 60, 0
8, 614160, Note_on_c, 6, 57, 70
8, 614400, Note_on_c, 6, 57, 0
8, 614400, Note_on_c, 6, 59, 70
8, 614496, Note_on_c, 6, 59, 0
8, 614640, Note_on_c, 6, 62, 70
8, 614736, Note_on_c, 6, 62, 0
8, 614880, Note_on_c, 6, 59, 70
8, 614976, Note_on_c, 6, 59, 0
8, 615120, Note_on_c, 6, 62, 70
8, 615216, Note_on_c, 6, 62, 0
8, 615360, Note_on_c, 6, 55, 70
8, 615456, Note_on_c, 6, 55, 0
8, 615600, Note_on_c, 6, 62, 70
8, 615696, Note_on_c, 6, 62, 0
8, 615840, Note_on_c, 6, 59, 70
8, 615936, Note_on_c, 6, 59, 0
8, 616080, Note_on_c, 6, 62, 70
8, 616176, Note_on_c, 6, 62, 0
8, 616320, Note_on_c, 6, 55, 70
8, 616416, Note_on_c, 6, 55, 0
8, 616560, Note_on_c, 6, 62, 70
8, 616656, Note_on_c, 6, 62, 0
8, 616800, Note_on_c, 6, 59, 70
8, 616896, Note_on_c, 6, 59, 0
8, 617040, Note_on_c, 6, 62, 70
8, 617136, Note_on_c, 6, 62, 0
8, 617280, Note_on_c, 6, 55, 70
8, 617376, Note_on_c, 6, 55, 0
8, 617520, Note_on_c, 6, 62, 70
8, 617616, Note_on_c, 6, 62, 0
8, 617760, Note_on_c, 6, 59, 70
8, 617856, Note_on_c, 6, 59, 0
8, 618000, Note_on_c, 6, 62, 70
8, 618096, Note_on_c, 6, 62, 0
8, 618240, Note_on_c, 6, 67, 70
8, 619680, Note_on_c, 6, 67, 0
8, 619680, Note_on_c, 6, 72, 70
8, 619800, Note_on_c, 6, 72, 0
8, 619800, Note_on_c, 6, 64, 70
8, 620160, Note_on_c, 6, 64, 0
8, 620160, Note_on_c, 6, 67, 70
8, 620640, Note_on_c, 6, 67, 0
8, 620640, Note_on_c, 6, 65, 70
8, 621120, Note_on_c, 6, 65, 0
8, 622080, Note_on_c, 6, 64, 70
8, 623520, Note_on_c, 6, 64, 0
8, 623520, Note_on_c, 6, 65, 70
8, 623640, Note_on_c, 6, 65, 0
8, 623640, Note_on_c, 6, 69, 70
8, 624000, Note_on_c, 6, 69, 0
8, 624000, Note_on_c, 6, 60, 70
8, 624480, Note_on_c, 6, 60, 0
8, 624480, Note_on_c, 6, 59, 70
8, 624960, Note_on_c, 6, 59, 0
8, 625920, Note_on_c, 6, 60, 70
8, 627360, Note_on_c, 6, 60, 0
8, 627360, Note_on_c, 6, 62, 70
8, 627600, Note_on_c, 6, 62, 0
8, 627600, Note_on_c, 6, 64, 70
8, 627840, Note_on_c, 6, 64, 0
8, 627840, Note_on_c, 6, 65, 70
8, 629280, Note_on_c, 6, 65, 0
8, 629280, Note_on_c, 6, 67, 70
8, 629520, Note_on_c, 6, 67, 0
8, 629520, Note_on_c, 6, 69, 70
8, 629760, Note_on_c, 6, 69, 0
8, 629760, Note_on_c, 6, 67, 70
8, 630240, Note_on_c, 6, 67, 0
8, 630240, Note_on_c, 6, 60, 70
8, 630720, Note_on_c, 6, 60, 0
8, 630720, Note_on_c, 6, 62, 70
8, 631200, Note_on_c, 6, 62, 0
8, 631200, Note_on_c, 6, 65, 70
8, 631680, Note_on_c, 6, 65, 0
8, 631680, Note_on_c, 6, 63, 70
8, 632160, Note_on_c, 6, 63, 0
8, 632160, Note_on_c, 6, 64, 70
8, 632640, Note_on_c, 6, 64, 0
8, 633600, Note_on_c, 6, 60, 70
8, 635040, Note_on_c, 6, 60, 0
8, 635040, Note_on_c, 6, 62, 70
8, 635280, Note_on_c, 6, 62, 0
8, 635280, Note_on_c, 6, 64, 70
8, 635520, Note_on_c, 6, 64, 0
8, 635520, Note_on_c, 6, 65, 70
8, 636000, Note_on_c, 6, 65, 0
8, 636000, Note_on_c, 6, 65, 70
8, 636480, Note_on_c, 6, 65, 0
8, 636480, Note_on_c, 6, 65, 70
8, 636960, Note_on_c, 6, 65, 0
8, 636960, Note_on_c, 6, 67, 70
8, 637200, Note_on_c, 6, 67, 0
8, 637200, Note_on_c, 6, 69, 70
8, 637440, Note_on_c, 6, 69, 0
8, 637440, Note_on_c, 6, 67, 70
8, 637680, Note_on_c, 6, 67, 0
8, 637680, Note_on_c, 6, 69, 70
8, 637920, Note_on_c, 6, 69, 0
8, 637920, Note_on_c, 6, 71, 70
8, 638160, Note_on_c, 6, 71, 0
8, 638160, Note_on_c, 6, 72, 70
8, 638400, Note_on_c, 6, 72, 0
8, 638400, Note_on_c, 6, 71, 70
8, 638640, Note_on_c, 6, 71, 0
8, 638640, Note_on_c, 6, 72, 70
8, 638880, Note_on_c, 6, 72, 0
8, 638880, Note_on_c, 6, 71, 70
8, 639120, Note_on_c, 6, 71, 0
8, 639120, Note_on_c, 6, 72, 70
8, 639360, Note_on_c, 6, 72, 0
8, 639360, Note_on_c, 6, 68, 70
8, 639600, Note_on_c, 6, 68, 0
8, 639600, Note_on_c, 6, 69, 70
8, 639840, Note_on_c, 6, 69, 0
8, 639840, Note_on_c, 6, 68, 70
8, 640080, Note_on_c, 6, 68, 0
8, 640080, Note_on_c, 6, 69, 70
8, 640320, Note_on_c, 6, 69, 0
8, 640320, Note_on_c, 6, 64, 70
8, 640560, Note_on_c, 6, 64, 0
8, 640560, Note_on_c, 6, 65, 70
8, 640800, Note_on_c, 6, 65, 0
8, 640800, Note_on_c, 6, 64, 70
8, 641040, Note_on_c, 6, 64, 0
8, 641040, Note_on_c, 6, 65, 70
8, 641280, Note_on_c, 6, 65, 0
8, 641280, Note_on_c, 6, 64, 70
8, 641520, Note_on_c, 6, 64, 0
8, 641520, Note_on_c, 6, 64, 70
8, 641760, Note_on_c, 6, 64, 0
8, 641760, Note_on_c, 6, 60, 70
8, 642000, Note_on_c, 6, 60, 0
8, 642000, Note_on_c, 6, 64, 70
8, 642240, Note_on_c, 6, 64, 0
8, 642240, Note_on_c, 6, 60, 70
8, 642480, Note_on_c, 6, 60, 0
8, 642480, Note_on_c, 6, 64, 70
8, 642720, Note_on_c, 6, 64, 0
8, 642720, Note_on_c, 6, 62, 70
8, 642960, Note_on_c, 6, 62, 0
8, 642960, Note_on_c, 6, 60, 70
8, 643200, Note_on_c, 6, 60, 0
8, 643200, Note_on_c, 6, 64, 70
8, 643440, Note_on_c, 6, 64, 0
8, 643440, Note_on_c, 6, 62, 70
8, 643680, Note_on_c, 6, 62, 0
8, 643680, Note_on_c, 6, 60, 70
8, 643776, Note_on_c, 6, 60, 0
8, 643920, Note_on_c, 6, 60, 70
8, 644016, Note_on_c, 6, 60, 0
8, 644160, Note_on_c, 6, 60, 70
8, 644400, Note_on_c, 6, 60, 0
8, 644400, Note_on_c, 6, 64, 70
8, 644640, Note_on_c, 6, 64, 0
8, 644640, Note_on_c, 6, 62, 70
8, 644880, Note_on_c, 6, 62, 0
8, 644880, Note_on_c, 6, 59, 70
8, 645120, Note_on_c, 6, 59, 0
8, 645120, Note_on_c, 6, 60, 70
8, 645600, Note_on_c, 6, 60, 0
8, 649920, Note_on_c, 6, 55, 70
8, 649920, Note_on_c, 6, 65, 70
8, 650400, Note_on_c, 6, 65, 0
8, 650400, Note_on_c, 6, 55, 0
8, 650880, Note_on_c, 6, 55, 70
8, 650880, Note_on_c, 6, 67, 70
8, 651360, Note_on_c, 6, 67, 0
8, 651360, Note_on_c, 6, 55, 0
8, 651840, Note_on_c, 6, 55, 70
8, 651840, Note_on_c, 6, 65, 70
8, 652320, Note_on_c, 6, 65, 0
8, 652320, Note_on_c, 6, 55, 0
8, 652800, Note_on_c, 6, 55, 70
8, 652800, Note_on_c, 6, 64, 70
8, 653280, Note_on_c, 6, 64, 0
8, 653280, Note_on_c, 6, 55, 0
8, 653760, Note_on_c, 6, 67, 70
8, 653760, Note_on_c, 6, 77, 70
8, 654240, Note_on_c, 6, 77, 0
8, 654240, Note_on_c, 6, 67, 0
8, 654720, Note_on_c, 6, 67, 70
8, 654720, Note_on_c, 6, 79, 70
8, 655200, Note_on_c, 6, 79, 0
8, 655200, Note_on_c, 6, 67, 0
8, 655680, Note_on_c, 6, 67, 70
8, 655680, Note_on_c, 6, 74, 70
8, 656160, Note_on_c, 6, 74, 0
8, 656160, Note_on_c, 6, 67, 0
8, 656640, Note_on_c, 6, 64, 70
8, 656640, Note_on_c, 6, 72, 70
8, 657120, Note_on_c, 6, 72, 0
8, 657120, Note_on_c, 6, 64, 0
8, 664800, Note_on_c, 6, 60, 70
8, 665280, Note_on_c, 6, 60, 0
8, 665760, Note_on_c, 6, 69, 70
8, 666240, Note_on_c, 6, 69, 0
8, 666720, Note_on_c, 6, 65, 70
8, 667200, Note_on_c, 6, 65, 0
8, 667680, Note_on_c, 6, 62, 70
8, 668160, Note_on_c, 6, 62, 0
8, 668160, Note_on_c, 6, 62, 80
8, 669120, Note_on_c, 6, 62, 0
8, 669120, Note_on_c, 6, 64, 70
8, 669600, Note_on_c, 6, 64, 0
8, 672000, Note_on_c, 6, 62, 80
8, 672960, Note_on_c, 6, 62, 0
8, 672960, Note_on_c, 6, 64, 70
8, 673440, Note_on_c, 6, 64, 0
8, 679680, Note_on_c, 6, 72, 70
8, 682560, Note_on_c, 6, 72, 0
8, 682560, Note_on_c, 6, 65, 80
8, 683520, Note_on_c, 6, 65, 0
8, 683520, Note_on_c, 6, 64, 90
8, 684000, Note_on_c, 6, 64, 0
8, 687840, Note_on_c, 6, 77, 105
8, 688320, Note_on_c, 6, 77, 0
8, 688800, Note_on_c, 6, 77, 105
8, 689280, Note_on_c, 6, 77, 0
8, 689760, Note_on_c, 6, 67, 105
8, 689760, Note_on_c, 6, 72, 105
8, 690240, Note_on_c, 6, 72, 0
8, 690240, Note_on_c, 6, 67, 0
8, 690720, Note_on_c, 6, 72, 105
8, 691200, Note_on_c, 6, 72, 0
8, 691200, Note_on_c, 6, 55, 105
8, 691200, Note_on_c, 6, 64, 105
8, 691680, Note_on_c, 6, 64, 0
8, 691680, Note_on_c, 6, 55, 0
8, 695040, Note_on_c, 6, 55, 90
8, 695040, Note_on_c, 6, 64, 90
8, 695040, Note_on_c, 6, 72, 90
8, 695520, Note_on_c, 6, 72, 0
8, 695520, Note_on_c, 6, 64, 0
8, 695520, Note_on_c, 6, 55, 0
8, 695760, Note_on_c, 6, 72, 105
8, 696000, Note_on_c, 6, 72, 0
8, 696000, Note_on_c, 6, 72, 105
8, 696240, Note_on_c, 6, 72, 0
8, 696240, Note_on_c, 6, 72, 105
8, 696480, Note_on_c, 6, 72, 0
8, 696480, Note_on_c, 6, 72, 105
8, 696720, Note_on_c, 6, 72, 0
8, 696720, Note_on_c, 6, 72, 105
8, 696960, Note_on_c, 6, 72, 0
8, 696960, Note_on_c, 6, 71, 105
8, 697020, Note_on_c, 6, 71, 0
8, 697020, Note_on_c, 6, 72, 105
8, 697080, Note_on_c, 6, 72, 0
8, 697080, Note_on_c, 6, 74, 105
8, 697440, Note_on_c, 6, 74, 0
8, 697680, Note_on_c, 6, 65, 105
8, 697920, Note_on_c, 6, 65, 0
8, 697920, Note_on_c, 6, 65, 105
8, 698160, Note_on_c, 6, 65, 0
8, 698160, Note_on_c, 6, 65, 105
8, 698400, Note_on_c, 6, 65, 0
8, 698400, Note_on_c, 6, 65, 105
8, 698640, Note_on_c, 6, 65, 0
8, 698640, Note_on_c, 6, 65, 105
8, 698880, Note_on_c, 6, 65, 0
8, 698880, Note_on_c, 6, 64, 105
8, 698940, Note_on_c, 6, 64, 0
8, 698940, Note_on_c, 6, 65, 105
8, 699000, Note_on_c, 6, 65, 0
8, 699000, Note_on_c, 6, 67, 105
8, 699360, Note_on_c, 6, 67, 0
8, 699600, Note_on_c, 6, 72, 105
8, 699840, Note_on_c, 6, 72, 0
8, 699840, Note_on_c, 6, 72, 105
8, 700080, Note_on_c, 6, 72, 0
8, 700080, Note_on_c, 6, 72, 105
8, 700320, Note_on_c, 6, 72, 0
8, 700320, Note_on_c, 6, 72, 105
8, 700560, Note_on_c, 6, 72, 0
8, 700560, Note_on_c, 6, 72, 105
8, 700800, Note_on_c, 6, 72, 0
8, 700800, Note_on_c, 6, 71, 105
8, 700860, Note_on_c, 6, 71, 0
8, 700860, Note_on_c, 6, 72, 105
8, 700920, Note_on_c, 6, 72, 0
8, 700920, Note_on_c, 6, 74, 105
8, 701280, Note_on_c, 6, 74, 0
8, 701520, Note_on_c, 6, 65, 105
8, 701760, Note_on_c, 6, 65, 0
8, 701760, Note_on_c, 6, 65, 105
8, 702000, Note_on_c, 6, 65, 0
8, 702000, Note_on_c, 6, 65, 105
8, 702240, Note_on_c, 6, 65, 0
8, 702240, Note_on_c, 6, 65, 105
8, 702480, Note_on_c, 6, 65, 0
8, 702480, Note_on_c, 6, 65, 105
8, 702720, Note_on_c, 6, 65, 0
8, 702720, Note_on_c, 6, 64, 105
8, 703200, Note_on_c, 6, 64, 0
8, 703200, Note_on_c, 6, 64, 105
8, 703200, Note_on_c, 6, 72, 105
8, 703200, Note_on_c, 6, 79, 105
8, 703680, Note_on_c, 6, 79, 0
8, 703680, Note_on_c, 6, 72, 0
8, 703680, Note_on_c, 6, 64, 0
8, 704160, Note_on_c, 6, 64, 105
8, 704160, Note_on_c, 6, 72, 105
8, 704160, Note_on_c, 6, 81, 105
8, 704640, Note_on_c, 6, 81, 0
8, 704640, Note_on_c, 6, 72, 0
8, 704640, Note_on_c, 6, 64, 0
8, 705120, Note_on_c, 6, 62, 105
8, 705120, Note_on_c, 6, 72, 105
8, 705120, Note_on_c, 6, 81, 105
8, 705600, Note_on_c, 6, 81, 0
8, 705600, Note_on_c, 6, 72, 0
8, 705600, Note_on_c, 6, 62, 0
8, 706080, Note_on_c, 6, 62, 105
8, 706080, Note_on_c, 6, 71, 105
8, 706080, Note_on_c, 6, 79, 105
8, 706560, Note_on_c, 6, 79, 0
8, 706560, Note_on_c, 6, 71, 0
8, 706560, Note_on_c, 6, 62, 0
8, 706560, Note_on_c, 6, 64, 105
8, 706560, Note_on_c, 6, 72, 105
8, 706560, Note_on_c, 6, 79, 105
8, 707040, Note_on_c, 6, 72, 0
8, 707040, Note_on_c, 6, 64, 0
8, 707520, Note_on_c, 6, 79, 0
8, 735840, Note_on_c, 6, 60, 70
8, 736080, Note_on_c, 6, 60, 0
8, 736080, Note_on_c, 6, 64, 70
8, 736320, Note_on_c, 6, 64, 0
8, 736320, Note_on_c, 6, 64, 70
8, 736560, Note_on_c, 6, 64, 0
8, 736560, Note_on_c, 6, 62, 70
8, 736800, Note_on_c, 6, 62, 0
8, 736800, Note_on_c, 6, 60, 70
8, 736896, Note_on_c, 6, 60, 0
8, 737040, Note_on_c, 6, 59, 70
8, 737136, Note_on_c, 6, 59, 0
8, 749280, Note_on_c, 6, 55, 105
8, 749280, Note_on_c, 6, 64, 105
8, 749280, Note_on_c, 6, 72, 105
8, 749760, Note_on_c, 6, 72, 0
8, 749760, Note_on_c, 6, 64, 0
8, 749760, Note_on_c, 6, 55, 0
8, 749760, Note_on_c, 6, 67, 105
8, 749760, Note_on_c, 6, 72, 105
8, 749760, Note_on_c, 6, 76, 105
8, 750240, Note_on_c, 6, 76, 0
8, 750240, Note_on_c, 6, 72, 0
8, 750240, Note_on_c, 6, 67, 0
8, 750240, Note_on_c, 6, 62, 105
8, 750240, Note_on_c, 6, 71, 105
8, 750240, Note_on_c, 6, 79, 105
8, 750720, Note_on_c, 6, 79, 0
8, 750720, Note_on_c, 6, 71, 0
8, 750720, Note_on_c, 6, 62, 0
8, 751200, Note_on_c, 6, 55, 105
8, 751200, Note_on_c, 6, 64, 105
8, 751200, Note_on_c, 6, 72, 105
8, 751680, Note_on_c, 6, 72, 0
8, 751680, Note_on_c, 6, 64, 0
8, 751680, Note_on_c, 6, 55, 0
8, 751680, Note_on_c, 6, 67, 105
8, 751680, Note_on_c, 6, 72, 105
8, 751680, Note_on_c, 6, 76, 105
8, 752160, Note_on_c, 6, 76, 0
8, 752160, Note_on_c, 6, 72, 0
8, 752160, Note_on_c, 6, 67, 0
8, 752160, Note_on_c, 6, 62, 105
8, 752160, Note_on_c, 6, 71, 105
8, 752160, Note_on_c, 6, 79, 105
8, 752640, Note_on_c, 6, 79, 0
8, 752640, Note_on_c, 6, 71, 0
8, 752640, Note_on_c, 6, 62, 0
8, 752640, Note_on_c, 6, 67, 105
8, 752640, Note_on_c, 6, 72, 105
8, 753600, Note_on_c, 6, 72, 0
8, 753600, Note_on_c, 6, 67, 0
8, 753600, Note_on_c, 6, 67, 105
8, 753600, Note_on_c, 6, 72, 105
8, 754560, Note_on_c, 6, 72, 0
8, 754560, Note_on_c, 6, 67, 0
8, 754560, Note_on_c, 6, 67, 105
8, 754560, Note_on_c, 6, 72, 105
8, 755520, Note_on_c, 6, 72, 0
8, 755520, Note_on_c, 6, 67, 0
8, 755520, End_track
9, 0, Start_track
9, 0, Title_t, "Viola"
9, 0, Control_c, 7, 0, 0
9, 0, Control_c, 7, 7, 100
9, 0, Control_c, 7, 10, 45
9, 0, Control_c, 7, 91, 103
9, 0, Control_c, 7, 93, 97
9, 1, Control_c, 7, 32, 1
9, 2, Program_c, 7, 48
9, 1920, Note_on_c, 7, 60, 70
9, 2316, Note_on_c, 7, 60, 0
9, 2880, Note_on_c, 7, 55, 70
9, 3260, Note_on_c, 7, 55, 0
9, 3840, Note_on_c, 7, 48, 70
9, 4692, Note_on_c, 7, 48, 0
9, 5760, Note_on_c, 7, 60, 70
9, 6604, Note_on_c, 7, 60, 0
9, 7680, Note_on_c, 7, 48, 70
9, 8508, Note_on_c, 7, 48, 0
9, 9600, Note_on_c, 7, 52, 70
9, 10560, Note_on_c, 7, 55, 70
9, 10628, Note_on_c, 7, 52, 0
9, 11348, Note_on_c, 7, 55, 0
9, 11520, Note_on_c, 7, 60, 70
9, 12480, Note_on_c, 7, 55, 70
9, 12572, Note_on_c, 7, 60, 0
9, 13300, Note_on_c, 7, 55, 0
9, 13440, Note_on_c, 7, 48, 70
9, 13920, Note_on_c, 7, 48, 0
9, 14400, Note_on_c, 7, 60, 70
9, 14880, Note_on_c, 7, 60, 0
9, 14880, Note_on_c, 7, 48, 70
9, 15360, Note_on_c, 7, 48, 0
9, 15360, Note_on_c, 7, 55, 70
9, 16320, Note_on_c, 7, 55, 0
9, 30720, Note_on_c, 7, 64, 105
9, 30924, Note_on_c, 7, 64, 0
9, 30960, Note_on_c, 7, 65, 105
9, 31156, Note_on_c, 7, 65, 0
9, 31200, Note_on_c, 7, 67, 105
9, 31388, Note_on_c, 7, 67, 0
9, 31440, Note_on_c, 7, 65, 105
9, 31604, Note_on_c, 7, 65, 0
9, 31680, Note_on_c, 7, 64, 105
9, 31876, Note_on_c, 7, 64, 0
9, 31920, Note_on_c, 7, 65, 105
9, 32116, Note_on_c, 7, 65, 0
9, 32160, Note_on_c, 7, 67, 105
9, 32356, Note_on_c, 7, 67, 0
9, 32400, Note_on_c, 7, 69, 105
9, 32556, Note_on_c, 7, 69, 0
9, 32640, Note_on_c, 7, 62, 105
9, 32828, Note_on_c, 7, 62, 0
9, 32880, Note_on_c, 7, 60, 105
9, 33052, Note_on_c, 7, 60, 0
9, 33120, Note_on_c, 7, 62, 105
9, 33316, Note_on_c, 7, 62, 0
9, 33360, Note_on_c, 7, 60, 105
9, 33548, Note_on_c, 7, 60, 0
9, 33600, Note_on_c, 7, 59, 105
9, 33780, Note_on_c, 7, 59, 0
9, 33840, Note_on_c, 7, 60, 105
9, 34020, Note_on_c, 7, 60, 0
9, 34080, Note_on_c, 7, 62, 105
9, 34252, Note_on_c, 7, 62, 0
9, 34320, Note_on_c, 7, 59, 105
9, 34508, Note_on_c, 7, 59, 0
9, 34560, Note_on_c, 7, 55, 105
9, 34560, Note_on_c, 7, 67, 105
9, 34972, Note_on_c, 7, 67, 0
9, 34972, Note_on_c, 7, 55, 0
9, 35040, Note_on_c, 7, 55, 105
9, 35040, Note_on_c, 7, 67, 105
9, 35868, Note_on_c, 7, 67, 0
9, 35908, Note_on_c, 7, 55, 0
9, 36000, Note_on_c, 7, 55, 105
9, 36000, Note_on_c, 7, 67, 105
9, 36868, Note_on_c, 7, 67, 0
9, 36892, Note_on_c, 7, 55, 0
9, 36960, Note_on_c, 7, 55, 105
9, 36960, Note_on_c, 7, 67, 105
9, 37852, Note_on_c, 7, 67, 0
9, 37852, Note_on_c, 7, 55, 0
9, 37920, Note_on_c, 7, 55, 105
9, 37920, Note_on_c, 7, 67, 105
9, 38308, Note_on_c, 7, 67, 0
9, 38324, Note_on_c, 7, 55, 0
9, 38400, Note_on_c, 7, 55, 105
9, 38400, Note_on_c, 7, 67, 105
9, 38812, Note_on_c, 7, 55, 0
9, 38820, Note_on_c, 7, 67, 0
9, 38880, Note_on_c, 7, 69, 105
9, 39756, Note_on_c, 7, 69, 0
9, 39840, Note_on_c, 7, 67, 80
9, 40032, Note_on_c, 7, 67, 0
9, 40320, Note_on_c, 7, 65, 70
9, 40512, Note_on_c, 7, 65, 0
9, 40800, Note_on_c, 7, 64, 70
9, 40992, Note_on_c, 7, 64, 0
9, 41280, Note_on_c, 7, 69, 70
9, 41472, Note_on_c, 7, 69, 0
9, 41760, Note_on_c, 7, 67, 70
9, 41952, Note_on_c, 7, 67, 0
9, 42240, Note_on_c, 7, 65, 70
9, 42564, Note_on_c, 7, 65, 0
9, 42720, Note_on_c, 7, 69, 105
9, 43580, Note_on_c, 7, 69, 0
9, 43680, Note_on_c, 7, 67, 80
9, 43872, Note_on_c, 7, 67, 0
9, 44160, Note_on_c, 7, 65, 70
9, 44352, Note_on_c, 7, 65, 0
9, 44640, Note_on_c, 7, 64, 70
9, 44832, Note_on_c, 7, 64, 0
9, 45120, Note_on_c, 7, 69, 70
9, 45312, Note_on_c, 7, 69, 0
9, 45600, Note_on_c, 7, 67, 70
9, 45792, Note_on_c, 7, 67, 0
9, 46080, Note_on_c, 7, 69, 70
9, 49836, Note_on_c, 7, 69, 0
9, 49920, Note_on_c, 7, 71, 70
9, 50400, Note_on_c, 7, 71, 0
9, 54240, Note_on_c, 7, 60, 70
9, 54432, Note_on_c, 7, 60, 0
9, 54720, Note_on_c, 7, 64, 70
9, 54912, Note_on_c, 7, 64, 0
9, 55200, Note_on_c, 7, 60, 70
9, 55392, Note_on_c, 7, 60, 0
9, 56160, Note_on_c, 7, 62, 70
9, 56352, Note_on_c, 7, 62, 0
9, 56640, Note_on_c, 7, 59, 70
9, 56832, Note_on_c, 7, 59, 0
9, 57120, Note_on_c, 7, 55, 70
9, 57312, Note_on_c, 7, 55, 0
9, 58080, Note_on_c, 7, 60, 70
9, 58272, Note_on_c, 7, 60, 0
9, 58560, Note_on_c, 7, 69, 70
9, 58752, Note_on_c, 7, 69, 0
9, 59040, Note_on_c, 7, 65, 70
9, 59232, Note_on_c, 7, 65, 0
9, 60000, Note_on_c, 7, 67, 70
9, 60192, Note_on_c, 7, 67, 0
9, 60480, Note_on_c, 7, 55, 70
9, 60672, Note_on_c, 7, 55, 0
9, 60960, Note_on_c, 7, 65, 70
9, 61152, Note_on_c, 7, 65, 0
9, 61920, Note_on_c, 7, 64, 70
9, 62112, Note_on_c, 7, 64, 0
9, 62400, Note_on_c, 7, 62, 70
9, 62592, Note_on_c, 7, 62, 0
9, 62880, Note_on_c, 7, 60, 70
9, 63072, Note_on_c, 7, 60, 0
9, 63840, Note_on_c, 7, 69, 70
9, 64032, Note_on_c, 7, 69, 0
9, 64320, Note_on_c, 7, 67, 70
9, 64512, Note_on_c, 7, 67, 0
9, 64800, Note_on_c, 7, 65, 70
9, 64992, Note_on_c, 7, 65, 0
9, 65280, Note_on_c, 7, 64, 70
9, 65668, Note_on_c, 7, 64, 0
9, 65760, Note_on_c, 7, 60, 70
9, 66720, Note_on_c, 7, 59, 70
9, 66860, Note_on_c, 7, 60, 0
9, 67084, Note_on_c, 7, 59, 0
9, 67200, Note_on_c, 7, 59, 70
9, 67680, Note_on_c, 7, 60, 70
9, 67764, Note_on_c, 7, 59, 0
9, 67972, Note_on_c, 7, 60, 0
9, 69120, Note_on_c, 7, 52, 70
9, 70080, Note_on_c, 7, 55, 70
9, 70164, Note_on_c, 7, 52, 0
9, 70948, Note_on_c, 7, 55, 0
9, 71040, Note_on_c, 7, 48, 70
9, 71520, Note_on_c, 7, 60, 70
9, 71596, Note_on_c, 7, 48, 0
9, 72364, Note_on_c, 7, 60, 0
9, 72480, Note_on_c, 7, 65, 70
9, 72892, Note_on_c, 7, 65, 0
9, 72960, Note_on_c, 7, 64, 70
9, 74804, Note_on_c, 7, 64, 0
9, 74880, Note_on_c, 7, 65, 70
9, 75840, Note_on_c, 7, 60, 70
9, 75924, Note_on_c, 7, 65, 0
9, 76684, Note_on_c, 7, 60, 0
9, 76800, Note_on_c, 7, 60, 70
9, 77040, Note_on_c, 7, 55, 70
9, 77108, Note_on_c, 7, 60, 0
9, 77280, Note_on_c, 7, 60, 70
9, 77348, Note_on_c, 7, 55, 0
9, 77520, Note_on_c, 7, 55, 70
9, 77588, Note_on_c, 7, 60, 0
9, 77760, Note_on_c, 7, 60, 70
9, 77832, Note_on_c, 7, 55, 0
9, 77908, Note_on_c, 7, 60, 0
9, 78000, Note_on_c, 7, 60, 70
9, 78240, Note_on_c, 7, 62, 70
9, 78308, Note_on_c, 7, 60, 0
9, 78480, Note_on_c, 7, 64, 70
9, 78548, Note_on_c, 7, 62, 0
9, 78668, Note_on_c, 7, 64, 0
9, 78720, Note_on_c, 7, 64, 70
9, 78960, Note_on_c, 7, 62, 70
9, 79028, Note_on_c, 7, 64, 0
9, 79200, Note_on_c, 7, 60, 70
9, 79268, Note_on_c, 7, 62, 0
9, 79440, Note_on_c, 7, 64, 70
9, 79508, Note_on_c, 7, 60, 0
9, 79680, Note_on_c, 7, 60, 70
9, 79748, Note_on_c, 7, 64, 0
9, 79920, Note_on_c, 7, 64, 70
9, 79988, Note_on_c, 7, 60, 0
9, 80160, Note_on_c, 7, 62, 70
9, 80228, Note_on_c, 7, 64, 0
9, 80400, Note_on_c, 7, 59, 70
9, 80468, Note_on_c, 7, 62, 0
9, 80564, Note_on_c, 7, 59, 0
9, 80640, Note_on_c, 7, 60, 70
9, 80956, Note_on_c, 7, 60, 0
9, 84000, Note_on_c, 7, 67, 105
9, 84164, Note_on_c, 7, 67, 0
9, 84240, Note_on_c, 7, 67, 105
9, 84396, Note_on_c, 7, 67, 0
9, 84480, Note_on_c, 7, 67, 105
9, 84852, Note_on_c, 7, 67, 0
9, 84960, Note_on_c, 7, 67, 105
9, 85852, Note_on_c, 7, 67, 0
9, 85920, Note_on_c, 7, 67, 105
9, 86796, Note_on_c, 7, 67, 0
9, 86880, Note_on_c, 7, 67, 105
9, 87756, Note_on_c, 7, 67, 0
9, 87840, Note_on_c, 7, 67, 105
9, 88700, Note_on_c, 7, 67, 0
9, 88800, Note_on_c, 7, 55, 105
9, 88800, Note_on_c, 7, 67, 105
9, 89652, Note_on_c, 7, 67, 0
9, 89676, Note_on_c, 7, 55, 0
9, 89760, Note_on_c, 7, 55, 105
9, 89760, Note_on_c, 7, 67, 105
9, 90620, Note_on_c, 7, 55, 0
9, 90636, Note_on_c, 7, 67, 0
9, 90720, Note_on_c, 7, 55, 105
9, 90720, Note_on_c, 7, 67, 105
9, 91564, Note_on_c, 7, 55, 0
9, 91580, Note_on_c, 7, 67, 0
9, 91680, Note_on_c, 7, 55, 105
9, 91680, Note_on_c, 7, 67, 105
9, 92068, Note_on_c, 7, 67, 0
9, 92160, Note_on_c, 7, 55, 0
9, 92160, Note_on_c, 7, 67, 105
9, 92348, Note_on_c, 7, 67, 0
9, 92400, Note_on_c, 7, 67, 105
9, 92564, Note_on_c, 7, 67, 0
9, 92640, Note_on_c, 7, 67, 105
9, 92812, Note_on_c, 7, 67, 0
9, 92880, Note_on_c, 7, 67, 105
9, 93060, Note_on_c, 7, 67, 0
9, 93120, Note_on_c, 7, 69, 105
9, 93316, Note_on_c, 7, 69, 0
9, 93360, Note_on_c, 7, 69, 105
9, 93524, Note_on_c, 7, 69, 0
9, 93600, Note_on_c, 7, 64, 105
9, 93764, Note_on_c, 7, 64, 0
9, 93840, Note_on_c, 7, 64, 105
9, 94020, Note_on_c, 7, 64, 0
9, 94080, Note_on_c, 7, 65, 105
9, 94260, Note_on_c, 7, 65, 0
9, 94320, Note_on_c, 7, 65, 105
9, 94508, Note_on_c, 7, 65, 0
9, 94560, Note_on_c, 7, 65, 105
9, 94716, Note_on_c, 7, 65, 0
9, 94800, Note_on_c, 7, 65, 105
9, 94972, Note_on_c, 7, 65, 0
9, 95040, Note_on_c, 7, 67, 105
9, 95220, Note_on_c, 7, 67, 0
9, 95280, Note_on_c, 7, 67, 105
9, 95452, Note_on_c, 7, 67, 0
9, 95520, Note_on_c, 7, 67, 105
9, 95684, Note_on_c, 7, 67, 0
9, 95760, Note_on_c, 7, 67, 105
9, 95932, Note_on_c, 7, 67, 0
9, 96000, Note_on_c, 7, 67, 105
9, 96960, Note_on_c, 7, 67, 0
9, 103680, Note_on_c, 7, 60, 90
9, 103776, Note_on_c, 7, 60, 0
9, 103920, Note_on_c, 7, 55, 74
9, 104016, Note_on_c, 7, 55, 0
9, 104160, Note_on_c, 7, 60, 75
9, 104256, Note_on_c, 7, 60, 0
9, 104400, Note_on_c, 7, 62, 76
9, 104496, Note_on_c, 7, 62, 0
9, 104640, Note_on_c, 7, 64, 92
9, 104736, Note_on_c, 7, 64, 0
9, 104880, Note_on_c, 7, 60, 78
9, 104976, Note_on_c, 7, 60, 0
9, 105120, Note_on_c, 7, 62, 79
9, 105216, Note_on_c, 7, 62, 0
9, 105360, Note_on_c, 7, 59, 79
9, 105456, Note_on_c, 7, 59, 0
9, 105600, Note_on_c, 7, 60, 93
9, 105696, Note_on_c, 7, 60, 0
9, 105840, Note_on_c, 7, 55, 81
9, 105936, Note_on_c, 7, 55, 0
9, 106080, Note_on_c, 7, 60, 82
9, 106176, Note_on_c, 7, 60, 0
9, 106320, Note_on_c, 7, 62, 83
9, 106416, Note_on_c, 7, 62, 0
9, 106560, Note_on_c, 7, 64, 99
9, 106656, Note_on_c, 7, 64, 0
9, 106800, Note_on_c, 7, 60, 85
9, 106896, Note_on_c, 7, 60, 0
9, 107040, Note_on_c, 7, 62, 85
9, 107136, Note_on_c, 7, 62, 0
9, 107280, Note_on_c, 7, 59, 86
9, 107376, Note_on_c, 7, 59, 0
9, 107520, Note_on_c, 7, 60, 99
9, 107616, Note_on_c, 7, 60, 0
9, 107760, Note_on_c, 7, 55, 88
9, 107856, Note_on_c, 7, 55, 0
9, 108000, Note_on_c, 7, 60, 89
9, 108096, Note_on_c, 7, 60, 0
9, 108240, Note_on_c, 7, 62, 90
9, 108336, Note_on_c, 7, 62, 0
9, 108480, Note_on_c, 7, 64, 98
9, 108576, Note_on_c, 7, 64, 0
9, 108720, Note_on_c, 7, 60, 91
9, 108816, Note_on_c, 7, 60, 0
9, 108960, Note_on_c, 7, 62, 92
9, 109056, Note_on_c, 7, 62, 0
9, 109200, Note_on_c, 7, 59, 93
9, 109296, Note_on_c, 7, 59, 0
9, 109440, Note_on_c, 7, 60, 94
9, 109536, Note_on_c, 7, 60, 0
9, 109680, Note_on_c, 7, 64, 92
9, 109776, Note_on_c, 7, 64, 0
9, 109920, Note_on_c, 7, 60, 89
9, 110016, Note_on_c, 7, 60, 0
9, 110160, Note_on_c, 7, 64, 87
9, 110256, Note_on_c, 7, 64, 0
9, 110400, Note_on_c, 7, 60, 84
9, 110880, Note_on_c, 7, 60, 0
9, 145920, Note_on_c, 7, 72, 105
9, 146136, Note_on_c, 7, 72, 0
9, 146160, Note_on_c, 7, 76, 105
9, 146376, Note_on_c, 7, 76, 0
9, 146400, Note_on_c, 7, 74, 105
9, 146616, Note_on_c, 7, 74, 0
9, 146640, Note_on_c, 7, 72, 105
9, 146856, Note_on_c, 7, 72, 0
9, 146880, Note_on_c, 7, 71, 105
9, 147096, Note_on_c, 7, 71, 0
9, 147120, Note_on_c, 7, 69, 105
9, 147336, Note_on_c, 7, 69, 0
9, 147360, Note_on_c, 7, 67, 105
9, 147576, Note_on_c, 7, 67, 0
9, 147600, Note_on_c, 7, 65, 105
9, 147816, Note_on_c, 7, 65, 0
9, 147840, Note_on_c, 7, 64, 105
9, 148056, Note_on_c, 7, 64, 0
9, 148080, Note_on_c, 7, 72, 105
9, 148296, Note_on_c, 7, 72, 0
9, 148320, Note_on_c, 7, 71, 105
9, 148536, Note_on_c, 7, 71, 0
9, 148560, Note_on_c, 7, 69, 105
9, 148776, Note_on_c, 7, 69, 0
9, 148800, Note_on_c, 7, 67, 105
9, 149016, Note_on_c, 7, 67, 0
9, 149040, Note_on_c, 7, 65, 105
9, 149256, Note_on_c, 7, 65, 0
9, 149280, Note_on_c, 7, 64, 105
9, 149496, Note_on_c, 7, 64, 0
9, 149520, Note_on_c, 7, 62, 105
9, 149736, Note_on_c, 7, 62, 0
9, 149760, Note_on_c, 7, 60, 105
9, 150240, Note_on_c, 7, 60, 0
9, 188160, Note_on_c, 7, 55, 70
9, 189120, Note_on_c, 7, 55, 0
9, 189120, Note_on_c, 7, 60, 70
9, 190080, Note_on_c, 7, 60, 0
9, 190080, Note_on_c, 7, 59, 70
9, 191040, Note_on_c, 7, 59, 0
9, 191040, Note_on_c, 7, 54, 70
9, 192000, Note_on_c, 7, 54, 0
9, 192000, Note_on_c, 7, 55, 70
9, 192960, Note_on_c, 7, 55, 0
9, 192960, Note_on_c, 7, 60, 70
9, 193920, Note_on_c, 7, 60, 0
9, 193920, Note_on_c, 7, 59, 70
9, 194880, Note_on_c, 7, 59, 0
9, 194880, Note_on_c, 7, 54, 70
9, 195840, Note_on_c, 7, 54, 0
9, 195840, Note_on_c, 7, 55, 70
9, 196320, Note_on_c, 7, 55, 0
9, 196800, Note_on_c, 7, 60, 70
9, 197760, Note_on_c, 7, 60, 0
9, 197760, Note_on_c, 7, 59, 70
9, 198720, Note_on_c, 7, 59, 0
9, 198720, Note_on_c, 7, 57, 70
9, 199680, Note_on_c, 7, 57, 0
9, 199680, Note_on_c, 7, 55, 70
9, 200640, Note_on_c, 7, 55, 0
9, 200640, Note_on_c, 7, 54, 70
9, 201600, Note_on_c, 7, 54, 0
9, 201600, Note_on_c, 7, 52, 90
9, 202560, Note_on_c, 7, 52, 0
9, 203520, Note_on_c, 7, 50, 90
9, 204480, Note_on_c, 7, 50, 0
9, 205440, Note_on_c, 7, 52, 90
9, 206400, Note_on_c, 7, 52, 0
9, 207360, Note_on_c, 7, 50, 70
9, 207840, Note_on_c, 7, 50, 0
9, 209520, Note_on_c, 7, 50, 70
9, 209760, Note_on_c, 7, 50, 0
9, 209760, Note_on_c, 7, 54, 70
9, 210000, Note_on_c, 7, 54, 0
9, 210000, Note_on_c, 7, 57, 70
9, 210240, Note_on_c, 7, 57, 0
9, 210240, Note_on_c, 7, 62, 70
9, 210480, Note_on_c, 7, 62, 0
9, 210480, Note_on_c, 7, 61, 70
9, 210720, Note_on_c, 7, 61, 0
9, 210720, Note_on_c, 7, 62, 70
9, 210960, Note_on_c, 7, 62, 0
9, 210960, Note_on_c, 7, 61, 70
9, 211200, Note_on_c, 7, 61, 0
9, 216960, Note_on_c, 7, 60, 70
9, 216960, Note_on_c, 7, 62, 70
9, 217920, Note_on_c, 7, 60, 0
9, 217920, Note_on_c, 7, 59, 70
9, 218400, Note_on_c, 7, 59, 0
9, 218400, Note_on_c, 7, 62, 0
9, 218880, Note_on_c, 7, 60, 70
9, 218880, Note_on_c, 7, 62, 70
9, 219840, Note_on_c, 7, 60, 0
9, 219840, Note_on_c, 7, 59, 70
9, 220320, Note_on_c, 7, 59, 0
9, 220320, Note_on_c, 7, 62, 0
9, 220320, Note_on_c, 7, 67, 70
9, 220800, Note_on_c, 7, 67, 0
9, 220800, Note_on_c, 7, 67, 70
9, 221760, Note_on_c, 7, 67, 0
9, 221760, Note_on_c, 7, 66, 70
9, 222240, Note_on_c, 7, 66, 0
9, 222720, Note_on_c, 7, 54, 70
9, 223200, Note_on_c, 7, 54, 0
9, 224640, Note_on_c, 7, 55, 70
9, 225600, Note_on_c, 7, 55, 0
9, 225600, Note_on_c, 7, 57, 70
9, 226080, Note_on_c, 7, 57, 0
9, 226560, Note_on_c, 7, 67, 70
9, 227520, Note_on_c, 7, 67, 0
9, 227520, Note_on_c, 7, 69, 70
9, 228000, Note_on_c, 7, 69, 0
9, 228000, Note_on_c, 7, 66, 70
9, 228480, Note_on_c, 7, 66, 0
9, 228480, Note_on_c, 7, 69, 70
9, 229440, Note_on_c, 7, 69, 0
9, 229440, Note_on_c, 7, 67, 70
9, 229920, Note_on_c, 7, 67, 0
9, 230400, Note_on_c, 7, 59, 70
9, 232320, Note_on_c, 7, 59, 0
9, 232320, Note_on_c, 7, 60, 70
9, 232800, Note_on_c, 7, 60, 0
9, 233280, Note_on_c, 7, 60, 70
9, 233760, Note_on_c, 7, 60, 0
9, 234240, Note_on_c, 7, 59, 70
9, 234720, Note_on_c, 7, 59, 0
9, 235200, Note_on_c, 7, 59, 70
9, 235680, Note_on_c, 7, 59, 0
9, 236160, Note_on_c, 7, 57, 70
9, 236400, Note_on_c, 7, 57, 0
9, 236400, Note_on_c, 7, 54, 70
9, 236640, Note_on_c, 7, 54, 0
9, 236640, Note_on_c, 7, 57, 70
9, 236880, Note_on_c, 7, 57, 0
9, 236880, Note_on_c, 7, 54, 70
9, 237120, Note_on_c, 7, 54, 0
9, 237120, Note_on_c, 7, 50, 70
9, 237600, Note_on_c, 7, 50, 0
9, 238560, Note_on_c, 7, 63, 70
9, 239040, Note_on_c, 7, 63, 0
9, 239040, Note_on_c, 7, 64, 70
9, 239520, Note_on_c, 7, 64, 0
9, 239520, Note_on_c, 7, 63, 70
9, 240000, Note_on_c, 7, 63, 0
9, 240000, Note_on_c, 7, 64, 70
9, 240480, Note_on_c, 7, 64, 0
9, 240960, Note_on_c, 7, 60, 70
9, 240960, Note_on_c, 7, 64, 70
9, 241440, Note_on_c, 7, 64, 0
9, 241440, Note_on_c, 7, 60, 0
9, 241920, Note_on_c, 7, 62, 70
9, 242400, Note_on_c, 7, 62, 0
9, 242400, Note_on_c, 7, 62, 70
9, 242880, Note_on_c, 7, 62, 0
9, 242880, Note_on_c, 7, 62, 70
9, 243360, Note_on_c, 7, 62, 0
9, 243360, Note_on_c, 7, 62, 70
9, 243840, Note_on_c, 7, 62, 0
9, 243840, Note_on_c, 7, 55, 70
9, 244080, Note_on_c, 7, 55, 0
9, 244080, Note_on_c, 7, 67, 70
9, 244320, Note_on_c, 7, 67, 0
9, 244320, Note_on_c, 7, 66, 70
9, 244560, Note_on_c, 7, 66, 0
9, 244560, Note_on_c, 7, 64, 70
9, 244800, Note_on_c, 7, 64, 0
9, 244800, Note_on_c, 7, 62, 70
9, 245040, Note_on_c, 7, 62, 0
9, 245040, Note_on_c, 7, 60, 70
9, 245280, Note_on_c, 7, 60, 0
9, 245280, Note_on_c, 7, 59, 70
9, 245520, Note_on_c, 7, 59, 0
9, 245520, Note_on_c, 7, 57, 70
9, 245760, Note_on_c, 7, 57, 0
9, 245760, Note_on_c, 7, 55, 70
9, 246240, Note_on_c, 7, 55, 0
9, 261120, Note_on_c, 7, 59, 70
9, 262080, Note_on_c, 7, 59, 0
9, 262560, Note_on_c, 7, 50, 70
9, 263040, Note_on_c, 7, 50, 0
9, 263040, Note_on_c, 7, 52, 70
9, 263520, Note_on_c, 7, 52, 0
9, 263520, Note_on_c, 7, 57, 70
9, 264000, Note_on_c, 7, 57, 0
9, 264000, Note_on_c, 7, 60, 70
9, 264480, Note_on_c, 7, 60, 0
9, 264480, Note_on_c, 7, 64, 70
9, 264960, Note_on_c, 7, 64, 0
9, 264960, Note_on_c, 7, 50, 70
9, 265440, Note_on_c, 7, 50, 0
9, 265440, Note_on_c, 7, 55, 70
9, 265920, Note_on_c, 7, 55, 0
9, 265920, Note_on_c, 7, 59, 70
9, 266400, Note_on_c, 7, 59, 0
9, 266400, Note_on_c, 7, 62, 70
9, 266880, Note_on_c, 7, 62, 0
9, 266880, Note_on_c, 7, 48, 70
9, 267360, Note_on_c, 7, 48, 0
9, 267360, Note_on_c, 7, 54, 70
9, 267840, Note_on_c, 7, 54, 0
9, 267840, Note_on_c, 7, 57, 70
9, 268320, Note_on_c, 7, 57, 0
9, 268320, Note_on_c, 7, 60, 70
9, 268800, Note_on_c, 7, 60, 0
9, 268800, Note_on_c, 7, 55, 70
9, 269280, Note_on_c, 7, 55, 0
9, 272640, Note_on_c, 7, 62, 70
9, 273120, Note_on_c, 7, 62, 0
9, 273120, Note_on_c, 7, 74, 70
9, 273600, Note_on_c, 7, 74, 0
9, 273600, Note_on_c, 7, 62, 70
9, 274080, Note_on_c, 7, 62, 0
9, 274080, Note_on_c, 7, 74, 70
9, 274560, Note_on_c, 7, 74, 0
9, 274560, Note_on_c, 7, 55, 70
9, 274560, Note_on_c, 7, 67, 70
9, 275040, Note_on_c, 7, 67, 0
9, 275040, Note_on_c, 7, 55, 0
9, 279360, Note_on_c, 7, 69, 70
9, 279840, Note_on_c, 7, 69, 0
9, 280320, Note_on_c, 7, 71, 70
9, 280800, Note_on_c, 7, 71, 0
9, 281280, Note_on_c, 7, 66, 70
9, 281760, Note_on_c, 7, 66, 0
9, 282240, Note_on_c, 7, 67, 70
9, 282720, Note_on_c, 7, 67, 0
9, 283200, Note_on_c, 7, 69, 70
9, 283680, Note_on_c, 7, 69, 0
9, 284160, Note_on_c, 7, 71, 70
9, 284640, Note_on_c, 7, 71, 0
9, 285120, Note_on_c, 7, 66, 70
9, 285600, Note_on_c, 7, 66, 0
9, 286080, Note_on_c, 7, 67, 70
9, 286560, Note_on_c, 7, 67, 0
9, 293760, Note_on_c, 7, 67, 70
9, 294240, Note_on_c, 7, 67, 0
9, 294720, Note_on_c, 7, 64, 70
9, 295200, Note_on_c, 7, 64, 0
9, 295680, Note_on_c, 7, 60, 70
9, 296160, Note_on_c, 7, 60, 0
9, 296640, Note_on_c, 7, 57, 70
9, 297120, Note_on_c, 7, 57, 0
9, 297600, Note_on_c, 7, 62, 90
9, 299040, Note_on_c, 7, 62, 0
9, 301440, Note_on_c, 7, 62, 90
9, 302880, Note_on_c, 7, 62, 0
9, 305280, Note_on_c, 7, 67, 70
9, 306720, Note_on_c, 7, 67, 0
9, 306720, Note_on_c, 7, 66, 70
9, 307200, Note_on_c, 7, 66, 0
9, 307200, Note_on_c, 7, 67, 70
9, 307680, Note_on_c, 7, 67, 0
9, 307680, Note_on_c, 7, 66, 70
9, 308160, Note_on_c, 7, 66, 0
9, 308160, Note_on_c, 7, 67, 70
9, 308640, Note_on_c, 7, 67, 0
9, 308640, Note_on_c, 7, 66, 70
9, 309120, Note_on_c, 7, 66, 0
9, 309120, Note_on_c, 7, 67, 70
9, 311040, Note_on_c, 7, 67, 0
9, 311040, Note_on_c, 7, 55, 70
9, 311040, Note_on_c, 7, 67, 70
9, 312000, Note_on_c, 7, 67, 0
9, 312000, Note_on_c, 7, 55, 0
9, 312000, Note_on_c, 7, 57, 70
9, 312000, Note_on_c, 7, 66, 70
9, 312960, Note_on_c, 7, 66, 0
9, 312960, Note_on_c, 7, 57, 0
9, 312960, Note_on_c, 7, 55, 70
9, 312960, Note_on_c, 7, 67, 70
9, 313920, Note_on_c, 7, 67, 0
9, 313920, Note_on_c, 7, 55, 0
9, 314400, Note_on_c, 7, 62, 70
9, 314400, Note_on_c, 7, 69, 70
9, 314880, Note_on_c, 7, 69, 0
9, 314880, Note_on_c, 7, 62, 0
9, 314880, Note_on_c, 7, 67, 70
9, 315360, Note_on_c, 7, 67, 0
9, 315360, Note_on_c, 7, 62, 70
9, 315360, Note_on_c, 7, 69, 70
9, 315840, Note_on_c, 7, 69, 0
9, 315840, Note_on_c, 7, 62, 0
9, 315840, Note_on_c, 7, 67, 70
9, 316320, Note_on_c, 7, 67, 0
9, 316320, Note_on_c, 7, 62, 70
9, 316320, Note_on_c, 7, 69, 70
9, 316800, Note_on_c, 7, 69, 0
9, 316800, Note_on_c, 7, 62, 0
9, 316800, Note_on_c, 7, 67, 70
9, 317280, Note_on_c, 7, 67, 0
9, 328320, Note_on_c, 7, 62, 70
9, 332640, Note_on_c, 7, 62, 0
9, 363840, Note_on_c, 7, 67, 105
9, 363936, Note_on_c, 7, 67, 0
9, 364080, Note_on_c, 7, 65, 105
9, 364176, Note_on_c, 7, 65, 0
9, 364320, Note_on_c, 7, 64, 105
9, 364416, Note_on_c, 7, 64, 0
9, 364560, Note_on_c, 7, 62, 105
9, 364656, Note_on_c, 7, 62, 0
9, 364800, Note_on_c, 7, 60, 105
9, 364896, Note_on_c, 7, 60, 0
9, 365040, Note_on_c, 7, 55, 105
9, 365136, Note_on_c, 7, 55, 0
9, 365280, Note_on_c, 7, 60, 105
9, 365376, Note_on_c, 7, 60, 0
9, 365520, Note_on_c, 7, 55, 105
9, 365616, Note_on_c, 7, 55, 0
9, 365760, Note_on_c, 7, 62, 105
9, 365856, Note_on_c, 7, 62, 0
9, 366000, Note_on_c, 7, 55, 105
9, 366096, Note_on_c, 7, 55, 0
9, 366240, Note_on_c, 7, 62, 105
9, 366336, Note_on_c, 7, 62, 0
9, 366480, Note_on_c, 7, 55, 105
9, 366576, Note_on_c, 7, 55, 0
9, 366720, Note_on_c, 7, 64, 105
9, 366816, Note_on_c, 7, 64, 0
9, 366960, Note_on_c, 7, 60, 105
9, 367056, Note_on_c, 7, 60, 0
9, 367200, Note_on_c, 7, 64, 105
9, 367296, Note_on_c, 7, 64, 0
9, 367440, Note_on_c, 7, 67, 105
9, 367536, Note_on_c, 7, 67, 0
9, 367680, Note_on_c, 7, 64, 105
9, 367776, Note_on_c, 7, 64, 0
9, 367920, Note_on_c, 7, 60, 105
9, 368016, Note_on_c, 7, 60, 0
9, 368160, Note_on_c, 7, 64, 105
9, 368256, Note_on_c, 7, 64, 0
9, 368400, Note_on_c, 7, 60, 105
9, 368496, Note_on_c, 7, 60, 0
9, 368640, Note_on_c, 7, 65, 105
9, 368736, Note_on_c, 7, 65, 0
9, 368880, Note_on_c, 7, 60, 105
9, 368976, Note_on_c, 7, 60, 0
9, 369120, Note_on_c, 7, 64, 105
9, 369216, Note_on_c, 7, 64, 0
9, 369360, Note_on_c, 7, 60, 105
9, 369456, Note_on_c, 7, 60, 0
9, 369600, Note_on_c, 7, 64, 105
9, 369696, Note_on_c, 7, 64, 0
9, 369840, Note_on_c, 7, 60, 105
9, 369936, Note_on_c, 7, 60, 0
9, 370080, Note_on_c, 7, 64, 105
9, 370176, Note_on_c, 7, 64, 0
9, 370320, Note_on_c, 7, 60, 105
9, 370416, Note_on_c, 7, 60, 0
9, 370560, Note_on_c, 7, 65, 105
9, 370656, Note_on_c, 7, 65, 0
9, 370800, Note_on_c, 7, 60, 105
9, 370896, Note_on_c, 7, 60, 0
9, 371040, Note_on_c, 7, 64, 105
9, 371136, Note_on_c, 7, 64, 0
9, 371280, Note_on_c, 7, 60, 105
9, 371376, Note_on_c, 7, 60, 0
9, 371520, Note_on_c, 7, 64, 105
9, 371616, Note_on_c, 7, 64, 0
9, 371760, Note_on_c, 7, 65, 105
9, 371856, Note_on_c, 7, 65, 0
9, 372000, Note_on_c, 7, 67, 105
9, 372096, Note_on_c, 7, 67, 0
9, 372240, Note_on_c, 7, 64, 105
9, 372336, Note_on_c, 7, 64, 0
9, 372480, Note_on_c, 7, 60, 105
9, 372720, Note_on_c, 7, 60, 0
9, 372720, Note_on_c, 7, 64, 105
9, 372960, Note_on_c, 7, 64, 0
9, 372960, Note_on_c, 7, 67, 105
9, 373200, Note_on_c, 7, 67, 0
9, 373200, Note_on_c, 7, 72, 105
9, 373440, Note_on_c, 7, 72, 0
9, 373440, Note_on_c, 7, 59, 105
9, 373680, Note_on_c, 7, 59, 0
9, 373680, Note_on_c, 7, 62, 105
9, 373920, Note_on_c, 7, 62, 0
9, 373920, Note_on_c, 7, 67, 105
9, 374160, Note_on_c, 7, 67, 0
9, 374160, Note_on_c, 7, 71, 105
9, 374400, Note_on_c, 7, 71, 0
9, 374400, Note_on_c, 7, 60, 105
9, 374640, Note_on_c, 7, 60, 0
9, 374640, Note_on_c, 7, 64, 105
9, 374880, Note_on_c, 7, 64, 0
9, 374880, Note_on_c, 7, 67, 105
9, 375120, Note_on_c, 7, 67, 0
9, 375120, Note_on_c, 7, 72, 105
9, 375360, Note_on_c, 7, 72, 0
9, 375360, Note_on_c, 7, 62, 105
9, 375600, Note_on_c, 7, 62, 0
9, 375600, Note_on_c, 7, 67, 105
9, 375840, Note_on_c, 7, 67, 0
9, 375840, Note_on_c, 7, 71, 105
9, 376080, Note_on_c, 7, 71, 0
9, 376080, Note_on_c, 7, 74, 105
9, 376320, Note_on_c, 7, 74, 0
9, 376320, Note_on_c, 7, 67, 105
9, 376800, Note_on_c, 7, 67, 0
9, 376800, Note_on_c, 7, 67, 105
9, 377760, Note_on_c, 7, 67, 0
9, 377760, Note_on_c, 7, 67, 105
9, 378000, Note_on_c, 7, 67, 0
9, 378000, Note_on_c, 7, 65, 105
9, 378240, Note_on_c, 7, 65, 0
9, 378240, Note_on_c, 7, 64, 105
9, 378720, Note_on_c, 7, 64, 0
9, 382560, Note_on_c, 7, 67, 105
9, 383520, Note_on_c, 7, 67, 0
9, 383520, Note_on_c, 7, 67, 105
9, 384480, Note_on_c, 7, 67, 0
9, 384480, Note_on_c, 7, 67, 105
9, 385440, Note_on_c, 7, 67, 0
9, 385440, Note_on_c, 7, 67, 105
9, 386400, Note_on_c, 7, 67, 0
9, 386400, Note_on_c, 7, 55, 105
9, 386400, Note_on_c, 7, 67, 105
9, 387360, Note_on_c, 7, 67, 0
9, 387360, Note_on_c, 7, 55, 0
9, 387360, Note_on_c, 7, 55, 105
9, 387360, Note_on_c, 7, 67, 105
9, 388320, Note_on_c, 7, 67, 0
9, 388320, Note_on_c, 7, 55, 0
9, 388320, Note_on_c, 7, 67, 105
9, 388800, Note_on_c, 7, 67, 0
9, 388800, Note_on_c, 7, 64, 105
9, 390240, Note_on_c, 7, 64, 0
9, 390240, Note_on_c, 7, 64, 105
9, 391200, Note_on_c, 7, 64, 0
9, 391200, Note_on_c, 7, 64, 105
9, 392160, Note_on_c, 7, 64, 0
9, 392160, Note_on_c, 7, 64, 105
9, 392640, Note_on_c, 7, 64, 0
9, 392640, Note_on_c, 7, 60, 105
9, 394080, Note_on_c, 7, 60, 0
9, 394080, Note_on_c, 7, 60, 105
9, 395040, Note_on_c, 7, 60, 0
9, 395040, Note_on_c, 7, 60, 105
9, 396000, Note_on_c, 7, 60, 0
9, 396000, Note_on_c, 7, 48, 105
9, 396000, Note_on_c, 7, 60, 105
9, 396960, Note_on_c, 7, 60, 0
9, 396960, Note_on_c, 7, 48, 0
9, 396960, Note_on_c, 7, 60, 105
9, 397440, Note_on_c, 7, 60, 0
9, 397440, Note_on_c, 7, 48, 105
9, 397440, Note_on_c, 7, 60, 105
9, 397920, Note_on_c, 7, 60, 0
9, 397920, Note_on_c, 7, 48, 0
9, 397920, Note_on_c, 7, 53, 70
9, 398112, Note_on_c, 7, 53, 0
9, 398400, Note_on_c, 7, 53, 70
9, 398592, Note_on_c, 7, 53, 0
9, 398880, Note_on_c, 7, 53, 70
9, 399072, Note_on_c, 7, 53, 0
9, 399360, Note_on_c, 7, 53, 70
9, 399552, Note_on_c, 7, 53, 0
9, 399840, Note_on_c, 7, 53, 70
9, 400032, Note_on_c, 7, 53, 0
9, 400320, Note_on_c, 7, 53, 70
9, 400512, Note_on_c, 7, 53, 0
9, 400800, Note_on_c, 7, 53, 70
9, 400992, Note_on_c, 7, 53, 0
9, 401280, Note_on_c, 7, 53, 70
9, 401472, Note_on_c, 7, 53, 0
9, 401760, Note_on_c, 7, 53, 70
9, 401952, Note_on_c, 7, 53, 0
9, 402240, Note_on_c, 7, 53, 70
9, 402432, Note_on_c, 7, 53, 0
9, 402720, Note_on_c, 7, 53, 70
9, 402912, Note_on_c, 7, 53, 0
9, 403200, Note_on_c, 7, 53, 70
9, 403392, Note_on_c, 7, 53, 0
9, 403680, Note_on_c, 7, 53, 70
9, 403872, Note_on_c, 7, 53, 0
9, 404160, Note_on_c, 7, 53, 70
9, 404352, Note_on_c, 7, 53, 0
9, 404640, Note_on_c, 7, 53, 70
9, 404832, Note_on_c, 7, 53, 0
9, 405120, Note_on_c, 7, 57, 70
9, 407040, Note_on_c, 7, 57, 0
9, 407040, Note_on_c, 7, 58, 70
9, 408960, Note_on_c, 7, 58, 0
9, 408960, Note_on_c, 7, 60, 70
9, 409440, Note_on_c, 7, 60, 0
9, 409440, Note_on_c, 7, 48, 70
9, 409920, Note_on_c, 7, 48, 0
9, 409920, Note_on_c, 7, 48, 70
9, 410400, Note_on_c, 7, 48, 0
9, 410400, Note_on_c, 7, 48, 70
9, 410880, Note_on_c, 7, 48, 0
9, 410880, Note_on_c, 7, 53, 70
9, 411360, Note_on_c, 7, 53, 0
9, 412800, Note_on_c, 7, 60, 70
9, 413040, Note_on_c, 7, 60, 0
9, 413040, Note_on_c, 7, 53, 70
9, 413280, Note_on_c, 7, 53, 0
9, 413280, Note_on_c, 7, 60, 70
9, 413520, Note_on_c, 7, 60, 0
9, 413520, Note_on_c, 7, 53, 70
9, 413760, Note_on_c, 7, 53, 0
9, 413760, Note_on_c, 7, 60, 70
9, 414000, Note_on_c, 7, 60, 0
9, 414000, Note_on_c, 7, 53, 70
9, 414240, Note_on_c, 7, 53, 0
9, 414240, Note_on_c, 7, 60, 70
9, 414480, Note_on_c, 7, 60, 0
9, 414480, Note_on_c, 7, 53, 70
9, 414720, Note_on_c, 7, 53, 0
9, 414720, Note_on_c, 7, 60, 70
9, 414960, Note_on_c, 7, 60, 0
9, 414960, Note_on_c, 7, 53, 70
9, 415200, Note_on_c, 7, 53, 0
9, 415200, Note_on_c, 7, 60, 70
9, 415440, Note_on_c, 7, 60, 0
9, 415440, Note_on_c, 7, 53, 70
9, 415680, Note_on_c, 7, 53, 0
9, 415680, Note_on_c, 7, 60, 70
9, 415920, Note_on_c, 7, 60, 0
9, 415920, Note_on_c, 7, 53, 70
9, 416160, Note_on_c, 7, 53, 0
9, 416160, Note_on_c, 7, 60, 70
9, 416400, Note_on_c, 7, 60, 0
9, 416400, Note_on_c, 7, 53, 70
9, 416640, Note_on_c, 7, 53, 0
9, 416640, Note_on_c, 7, 60, 70
9, 416880, Note_on_c, 7, 60, 0
9, 416880, Note_on_c, 7, 53, 70
9, 417120, Note_on_c, 7, 53, 0
9, 417120, Note_on_c, 7, 60, 70
9, 417360, Note_on_c, 7, 60, 0
9, 417360, Note_on_c, 7, 53, 70
9, 417600, Note_on_c, 7, 53, 0
9, 417600, Note_on_c, 7, 60, 70
9, 417840, Note_on_c, 7, 60, 0
9, 417840, Note_on_c, 7, 53, 70
9, 418080, Note_on_c, 7, 53, 0
9, 418080, Note_on_c, 7, 60, 70
9, 418320, Note_on_c, 7, 60, 0
9, 418320, Note_on_c, 7, 53, 70
9, 418560, Note_on_c, 7, 53, 0
9, 418560, Note_on_c, 7, 58, 70
9, 419520, Note_on_c, 7, 58, 0
9, 419520, Note_on_c, 7, 60, 70
9, 419760, Note_on_c, 7, 60, 0
9, 419760, Note_on_c, 7, 53, 70
9, 420000, Note_on_c, 7, 53, 0
9, 420000, Note_on_c, 7, 60, 70
9, 420240, Note_on_c, 7, 60, 0
9, 420240, Note_on_c, 7, 53, 70
9, 420480, Note_on_c, 7, 53, 0
9, 420480, Note_on_c, 7, 57, 70
9, 422400, Note_on_c, 7, 57, 0
9, 422400, Note_on_c, 7, 58, 70
9, 422400, Note_on_c, 7, 62, 70
9, 424320, Note_on_c, 7, 62, 0
9, 424320, Note_on_c, 7, 58, 0
9, 424320, Note_on_c, 7, 60, 70
9, 424800, Note_on_c, 7, 60, 0
9, 424800, Note_on_c, 7, 62, 70
9, 425280, Note_on_c, 7, 62, 0
9, 425280, Note_on_c, 7, 58, 70
9, 425760, Note_on_c, 7, 58, 0
9, 425760, Note_on_c, 7, 60, 70
9, 426240, Note_on_c, 7, 60, 0
9, 426240, Note_on_c, 7, 57, 70
9, 426240, Note_on_c, 7, 65, 70
9, 428160, Note_on_c, 7, 65, 0
9, 428160, Note_on_c, 7, 57, 0
9, 428160, Note_on_c, 7, 60, 70
9, 428160, Note_on_c, 7, 67, 70
9, 430080, Note_on_c, 7, 67, 0
9, 430080, Note_on_c, 7, 60, 0
9, 430080, Note_on_c, 7, 65, 70
9, 430080, Note_on_c, 7, 69, 70
9, 430800, Note_on_c, 7, 69, 0
9, 430800, Note_on_c, 7, 65, 0
9, 430800, Note_on_c, 7, 67, 70
9, 431040, Note_on_c, 7, 67, 0
9, 431040, Note_on_c, 7, 57, 70
9, 431040, Note_on_c, 7, 65, 70
9, 431520, Note_on_c, 7, 65, 0
9, 431520, Note_on_c, 7, 57, 0
9, 431520, Note_on_c, 7, 60, 70
9, 431520, Note_on_c, 7, 67, 70
9, 432000, Note_on_c, 7, 67, 0
9, 432000, Note_on_c, 7, 60, 0
9, 432000, Note_on_c, 7, 65, 70
9, 432000, Note_on_c, 7, 69, 70
9, 432720, Note_on_c, 7, 69, 0
9, 432720, Note_on_c, 7, 65, 0
9, 432720, Note_on_c, 7, 67, 70
9, 432960, Note_on_c, 7, 67, 0
9, 432960, Note_on_c, 7, 57, 70
9, 432960, Note_on_c, 7, 65, 70
9, 433440, Note_on_c, 7, 65, 0
9, 433440, Note_on_c, 7, 57, 0
9, 433440, Note_on_c, 7, 60, 70
9, 433440, Note_on_c, 7, 67, 70
9, 433920, Note_on_c, 7, 67, 0
9, 433920, Note_on_c, 7, 60, 0
9, 433920, Note_on_c, 7, 57, 70
9, 433920, Note_on_c, 7, 65, 70
9, 434400, Note_on_c, 7, 65, 0
9, 434400, Note_on_c, 7, 57, 0
9, 472320, Note_on_c, 7, 67, 70
9, 474720, Note_on_c, 7, 67, 0
9, 476160, Note_on_c, 7, 67, 70
9, 478560, Note_on_c, 7, 67, 0
9, 481920, Note_on_c, 7, 56, 70
9, 482400, Note_on_c, 7, 56, 0
9, 483840, Note_on_c, 7, 56, 70
9, 484320, Note_on_c, 7, 56, 0
9, 485760, Note_on_c, 7, 55, 70
9, 486240, Note_on_c, 7, 55, 0
9, 487680, Note_on_c, 7, 55, 70
9, 488160, Note_on_c, 7, 55, 0
9, 489600, Note_on_c, 7, 56, 70
9, 490080, Note_on_c, 7, 56, 0
9, 491520, Note_on_c, 7, 56, 70
9, 492000, Note_on_c, 7, 56, 0
9, 493440, Note_on_c, 7, 55, 70
9, 493920, Note_on_c, 7, 55, 0
9, 495360, Note_on_c, 7, 55, 70
9, 495840, Note_on_c, 7, 55, 0
9, 497280, Note_on_c, 7, 59, 70
9, 497280, Note_on_c, 7, 62, 70
9, 498240, Note_on_c, 7, 62, 0
9, 498240, Note_on_c, 7, 59, 0
9, 498240, Note_on_c, 7, 61, 70
9, 498240, Note_on_c, 7, 64, 70
9, 499200, Note_on_c, 7, 64, 0
9, 499200, Note_on_c, 7, 61, 0
9, 499200, Note_on_c, 7, 62, 70
9, 499200, Note_on_c, 7, 65, 70
9, 500160, Note_on_c, 7, 65, 0
9, 500160, Note_on_c, 7, 62, 0
9, 500160, Note_on_c, 7, 59, 70
9, 500160, Note_on_c, 7, 62, 70
9, 501120, Note_on_c, 7, 62, 0
9, 501120, Note_on_c, 7, 59, 0
9, 501120, Note_on_c, 7, 60, 70
9, 501120, Note_on_c, 7, 64, 70
9, 501600, Note_on_c, 7, 64, 0
9, 501600, Note_on_c, 7, 60, 0
9, 516480, Note_on_c, 7, 48, 70
9, 517440, Note_on_c, 7, 48, 0
9, 517440, Note_on_c, 7, 53, 70
9, 518400, Note_on_c, 7, 53, 0
9, 518400, Note_on_c, 7, 52, 70
9, 519360, Note_on_c, 7, 52, 0
9, 519360, Note_on_c, 7, 59, 70
9, 520320, Note_on_c, 7, 59, 0
9, 520320, Note_on_c, 7, 60, 70
9, 521280, Note_on_c, 7, 60, 0
9, 521280, Note_on_c, 7, 65, 70
9, 522240, Note_on_c, 7, 65, 0
9, 522240, Note_on_c, 7, 64, 70
9, 523200, Note_on_c, 7, 64, 0
9, 523200, Note_on_c, 7, 59, 70
9, 524160, Note_on_c, 7, 59, 0
9, 524160, Note_on_c, 7, 60, 70
9, 524640, Note_on_c, 7, 60, 0
9, 525120, Note_on_c, 7, 65, 70
9, 526080, Note_on_c, 7, 65, 0
9, 526080, Note_on_c, 7, 64, 70
9, 527040, Note_on_c, 7, 64, 0
9, 527040, Note_on_c, 7, 62, 70
9, 528000, Note_on_c, 7, 62, 0
9, 528000, Note_on_c, 7, 60, 70
9, 528960, Note_on_c, 7, 60, 0
9, 528960, Note_on_c, 7, 59, 70
9, 529920, Note_on_c, 7, 59, 0
9, 537840, Note_on_c, 7, 55, 70
9, 538080, Note_on_c, 7, 55, 0
9, 538080, Note_on_c, 7, 59, 70
9, 538320, Note_on_c, 7, 59, 0
9, 538320, Note_on_c, 7, 62, 70
9, 538560, Note_on_c, 7, 62, 0
9, 538560, Note_on_c, 7, 67, 70
9, 538800, Note_on_c, 7, 67, 0
9, 538800, Note_on_c, 7, 66, 70
9, 539040, Note_on_c, 7, 66, 0
9, 539040, Note_on_c, 7, 67, 70
9, 539280, Note_on_c, 7, 67, 0
9, 539280, Note_on_c, 7, 66, 70
9, 539520, Note_on_c, 7, 66, 0
9, 539520, Note_on_c, 7, 67, 70
9, 540000, Note_on_c, 7, 67, 0
9, 545280, Note_on_c, 7, 53, 70
9, 545280, Note_on_c, 7, 55, 70
9, 546240, Note_on_c, 7, 55, 0
9, 546240, Note_on_c, 7, 53, 0
9, 546240, Note_on_c, 7, 52, 70
9, 546240, Note_on_c, 7, 55, 70
9, 546720, Note_on_c, 7, 55, 0
9, 546720, Note_on_c, 7, 52, 0
9, 547200, Note_on_c, 7, 53, 70
9, 547200, Note_on_c, 7, 55, 70
9, 548160, Note_on_c, 7, 55, 0
9, 548160, Note_on_c, 7, 53, 0
9, 548160, Note_on_c, 7, 52, 70
9, 548160, Note_on_c, 7, 55, 70
9, 548640, Note_on_c, 7, 55, 0
9, 548640, Note_on_c, 7, 52, 0
9, 548640, Note_on_c, 7, 60, 70
9, 549120, Note_on_c, 7, 60, 0
9, 549120, Note_on_c, 7, 60, 70
9, 550080, Note_on_c, 7, 60, 0
9, 550080, Note_on_c, 7, 59, 70
9, 550560, Note_on_c, 7, 59, 0
9, 551040, Note_on_c, 7, 59, 70
9, 551520, Note_on_c, 7, 59, 0
9, 552960, Note_on_c, 7, 60, 70
9, 553920, Note_on_c, 7, 60, 0
9, 553920, Note_on_c, 7, 62, 70
9, 554400, Note_on_c, 7, 62, 0
9, 554880, Note_on_c, 7, 60, 70
9, 555840, Note_on_c, 7, 60, 0
9, 555840, Note_on_c, 7, 62, 70
9, 556320, Note_on_c, 7, 62, 0
9, 556320, Note_on_c, 7, 59, 70
9, 556800, Note_on_c, 7, 59, 0
9, 556800, Note_on_c, 7, 62, 70
9, 557760, Note_on_c, 7, 62, 0
9, 557760, Note_on_c, 7, 60, 70
9, 558240, Note_on_c, 7, 60, 0
9, 558720, Note_on_c, 7, 52, 70
9, 560640, Note_on_c, 7, 52, 0
9, 560640, Note_on_c, 7, 53, 70
9, 561120, Note_on_c, 7, 53, 0
9, 561600, Note_on_c, 7, 53, 70
9, 562080, Note_on_c, 7, 53, 0
9, 562560, Note_on_c, 7, 52, 70
9, 563040, Note_on_c, 7, 52, 0
9, 563520, Note_on_c, 7, 64, 70
9, 564000, Note_on_c, 7, 64, 0
9, 564480, Note_on_c, 7, 62, 70
9, 564720, Note_on_c, 7, 62, 0
9, 564720, Note_on_c, 7, 59, 70
9, 564960, Note_on_c, 7, 59, 0
9, 564960, Note_on_c, 7, 62, 70
9, 565200, Note_on_c, 7, 62, 0
9, 565200, Note_on_c, 7, 59, 70
9, 565440, Note_on_c, 7, 59, 0
9, 565440, Note_on_c, 7, 55, 70
9, 565920, Note_on_c, 7, 55, 0
9, 566880, Note_on_c, 7, 56, 70
9, 567360, Note_on_c, 7, 56, 0
9, 567360, Note_on_c, 7, 57, 70
9, 567840, Note_on_c, 7, 57, 0
9, 567840, Note_on_c, 7, 56, 70
9, 568320, Note_on_c, 7, 56, 0
9, 568320, Note_on_c, 7, 57, 70
9, 568800, Note_on_c, 7, 57, 0
9, 569280, Note_on_c, 7, 65, 70
9, 569280, Note_on_c, 7, 69, 70
9, 569760, Note_on_c, 7, 69, 0
9, 569760, Note_on_c, 7, 65, 0
9, 570240, Note_on_c, 7, 67, 70
9, 570720, Note_on_c, 7, 67, 0
9, 570720, Note_on_c, 7, 55, 70
9, 571200, Note_on_c, 7, 55, 0
9, 571200, Note_on_c, 7, 55, 70
9, 571680, Note_on_c, 7, 55, 0
9, 571680, Note_on_c, 7, 55, 70
9, 572160, Note_on_c, 7, 55, 0
9, 572160, Note_on_c, 7, 60, 70
9, 572400, Note_on_c, 7, 60, 0
9, 572400, Note_on_c, 7, 60, 70
9, 572640, Note_on_c, 7, 60, 0
9, 572640, Note_on_c, 7, 59, 70
9, 572880, Note_on_c, 7, 59, 0
9, 572880, Note_on_c, 7, 57, 70
9, 573120, Note_on_c, 7, 57, 0
9, 573120, Note_on_c, 7, 55, 70
9, 573360, Note_on_c, 7, 55, 0
9, 573360, Note_on_c, 7, 53, 70
9, 573600, Note_on_c, 7, 53, 0
9, 573600, Note_on_c, 7, 52, 70
9, 573840, Note_on_c, 7, 52, 0
9, 573840, Note_on_c, 7, 50, 70
9, 574080, Note_on_c, 7, 50, 0
9, 574080, Note_on_c, 7, 48, 70
9, 574560, Note_on_c, 7, 48, 0
9, 589440, Note_on_c, 7, 55, 70
9, 589920, Note_on_c, 7, 55, 0
9, 589920, Note_on_c, 7, 60, 70
9, 590400, Note_on_c, 7, 60, 0
9, 590400, Note_on_c, 7, 64, 70
9, 590880, Note_on_c, 7, 64, 0
9, 590880, Note_on_c, 7, 67, 70
9, 591360, Note_on_c, 7, 67, 0
9, 591360, Note_on_c, 7, 65, 70
9, 591840, Note_on_c, 7, 65, 0
9, 591840, Note_on_c, 7, 62, 70
9, 592320, Note_on_c, 7, 62, 0
9, 592320, Note_on_c, 7, 59, 70
9, 592800, Note_on_c, 7, 59, 0
9, 592800, Note_on_c, 7, 53, 70
9, 593280, Note_on_c, 7, 53, 0
9, 593280, Note_on_c, 7, 64, 70
9, 593760, Note_on_c, 7, 64, 0
9, 593760, Note_on_c, 7, 60, 70
9, 594240, Note_on_c, 7, 60, 0
9, 594240, Note_on_c, 7, 57, 70
9, 594720, Note_on_c, 7, 57, 0
9, 594720, Note_on_c, 7, 52, 70
9, 595200, Note_on_c, 7, 52, 0
9, 595200, Note_on_c, 7, 62, 70
9, 595680, Note_on_c, 7, 62, 0
9, 595680, Note_on_c, 7, 59, 70
9, 596160, Note_on_c, 7, 59, 0
9, 596160, Note_on_c, 7, 55, 70
9, 596640, Note_on_c, 7, 55, 0
9, 596640, Note_on_c, 7, 50, 70
9, 597120, Note_on_c, 7, 50, 0
9, 597120, Note_on_c, 7, 55, 70
9, 597600, Note_on_c, 7, 55, 0
9, 599040, Note_on_c, 7, 48, 70
9, 599040, Note_on_c, 7, 60, 70
9, 599520, Note_on_c, 7, 60, 0
9, 599520, Note_on_c, 7, 48, 0
9, 603360, Note_on_c, 7, 69, 90
9, 604320, Note_on_c, 7, 69, 0
9, 604320, Note_on_c, 7, 67, 70
9, 604800, Note_on_c, 7, 67, 0
9, 604800, Note_on_c, 7, 65, 70
9, 604992, Note_on_c, 7, 65, 0
9, 605280, Note_on_c, 7, 64, 70
9, 605472, Note_on_c, 7, 64, 0
9, 605760, Note_on_c, 7, 69, 70
9, 605952, Note_on_c, 7, 69, 0
9, 606240, Note_on_c, 7, 67, 70
9, 606432, Note_on_c, 7, 67, 0
9, 606720, Note_on_c, 7, 65, 70
9, 607200, Note_on_c, 7, 65, 0
9, 607200, Note_on_c, 7, 69, 90
9, 608160, Note_on_c, 7, 69, 0
9, 608160, Note_on_c, 7, 67, 70
9, 608352, Note_on_c, 7, 67, 0
9, 608640, Note_on_c, 7, 65, 70
9, 608832, Note_on_c, 7, 65, 0
9, 609120, Note_on_c, 7, 64, 70
9, 609312, Note_on_c, 7, 64, 0
9, 609600, Note_on_c, 7, 69, 70
9, 609792, Note_on_c, 7, 69, 0
9, 610080, Note_on_c, 7, 67, 70
9, 610272, Note_on_c, 7, 67, 0
9, 610560, Note_on_c, 7, 69, 70
9, 614400, Note_on_c, 7, 69, 0
9, 614400, Note_on_c, 7, 71, 70
9, 614880, Note_on_c, 7, 71, 0
9, 618720, Note_on_c, 7, 60, 70
9, 618912, Note_on_c, 7, 60, 0
9, 619200, Note_on_c, 7, 64, 70
9, 619392, Note_on_c, 7, 64, 0
9, 619680, Note_on_c, 7, 60, 70
9, 619872, Note_on_c, 7, 60, 0
9, 620640, Note_on_c, 7, 62, 70
9, 620832, Note_on_c, 7, 62, 0
9, 621120, Note_on_c, 7, 59, 70
9, 621312, Note_on_c, 7, 59, 0
9, 621600, Note_on_c, 7, 55, 70
9, 621792, Note_on_c, 7, 55, 0
9, 622560, Note_on_c, 7, 60, 70
9, 622752, Note_on_c, 7, 60, 0
9, 623040, Note_on_c, 7, 69, 70
9, 623232, Note_on_c, 7, 69, 0
9, 623520, Note_on_c, 7, 65, 70
9, 623712, Note_on_c, 7, 65, 0
9, 624480, Note_on_c, 7, 67, 70
9, 624672, Note_on_c, 7, 67, 0
9, 624960, Note_on_c, 7, 55, 70
9, 625152, Note_on_c, 7, 55, 0
9, 625440, Note_on_c, 7, 65, 70
9, 625632, Note_on_c, 7, 65, 0
9, 626400, Note_on_c, 7, 64, 70
9, 626592, Note_on_c, 7, 64, 0
9, 626880, Note_on_c, 7, 62, 70
9, 627072, Note_on_c, 7, 62, 0
9, 627360, Note_on_c, 7, 60, 70
9, 627552, Note_on_c, 7, 60, 0
9, 628320, Note_on_c, 7, 69, 70
9, 628512, Note_on_c, 7, 69, 0
9, 628800, Note_on_c, 7, 67, 70
9, 628992, Note_on_c, 7, 67, 0
9, 629280, Note_on_c, 7, 65, 70
9, 629472, Note_on_c, 7, 65, 0
9, 629760, Note_on_c, 7, 64, 70
9, 629952, Note_on_c, 7, 64, 0
9, 630240, Note_on_c, 7, 60, 70
9, 631200, Note_on_c, 7, 60, 0
9, 631200, Note_on_c, 7, 59, 70
9, 631680, Note_on_c, 7, 59, 0
9, 631680, Note_on_c, 7, 59, 70
9, 632160, Note_on_c, 7, 59, 0
9, 632160, Note_on_c, 7, 60, 70
9, 632640, Note_on_c, 7, 60, 0
9, 633600, Note_on_c, 7, 52, 70
9, 634560, Note_on_c, 7, 52, 0
9, 634560, Note_on_c, 7, 55, 70
9, 635520, Note_on_c, 7, 55, 0
9, 635520, Note_on_c, 7, 48, 70
9, 636000, Note_on_c, 7, 48, 0
9, 636000, Note_on_c, 7, 60, 70
9, 636960, Note_on_c, 7, 60, 0
9, 636960, Note_on_c, 7, 65, 70
9, 637440, Note_on_c, 7, 65, 0
9, 637440, Note_on_c, 7, 64, 70
9, 639360, Note_on_c, 7, 64, 0
9, 639360, Note_on_c, 7, 65, 70
9, 640320, Note_on_c, 7, 65, 0
9, 640320, Note_on_c, 7, 60, 70
9, 641280, Note_on_c, 7, 60, 0
9, 641280, Note_on_c, 7, 60, 70
9, 642240, Note_on_c, 7, 60, 0
9, 642240, Note_on_c, 7, 67, 70
9, 645600, Note_on_c, 7, 67, 0
9, 649920, Note_on_c, 7, 62, 70
9, 650400, Note_on_c, 7, 62, 0
9, 650880, Note_on_c, 7, 64, 70
9, 651360, Note_on_c, 7, 64, 0
9, 651840, Note_on_c, 7, 59, 70
9, 652320, Note_on_c, 7, 59, 0
9, 652800, Note_on_c, 7, 60, 70
9, 653280, Note_on_c, 7, 60, 0
9, 653760, Note_on_c, 7, 62, 70
9, 654240, Note_on_c, 7, 62, 0
9, 654720, Note_on_c, 7, 64, 70
9, 655200, Note_on_c, 7, 64, 0
9, 655680, Note_on_c, 7, 59, 70
9, 656160, Note_on_c, 7, 59, 0
9, 656640, Note_on_c, 7, 60, 70
9, 657120, Note_on_c, 7, 60, 0
9, 664320, Note_on_c, 7, 60, 70
9, 664800, Note_on_c, 7, 60, 0
9, 665280, Note_on_c, 7, 69, 70
9, 665760, Note_on_c, 7, 69, 0
9, 666240, Note_on_c, 7, 65, 70
9, 666720, Note_on_c, 7, 65, 0
9, 667200, Note_on_c, 7, 62, 70
9, 667680, Note_on_c, 7, 62, 0
9, 668160, Note_on_c, 7, 67, 70
9, 669600, Note_on_c, 7, 67, 0
9, 672000, Note_on_c, 7, 67, 70
9, 673440, Note_on_c, 7, 67, 0
9, 679680, Note_on_c, 7, 64, 70
9, 680640, Note_on_c, 7, 64, 0
9, 680640, Note_on_c, 7, 62, 70
9, 681600, Note_on_c, 7, 62, 0
9, 681600, Note_on_c, 7, 64, 80
9, 682560, Note_on_c, 7, 64, 0
9, 682560, Note_on_c, 7, 67, 80
9, 683520, Note_on_c, 7, 67, 0
9, 683520, Note_on_c, 7, 67, 90
9, 684000, Note_on_c, 7, 67, 0
9, 688320, Note_on_c, 7, 62, 105
9, 688800, Note_on_c, 7, 62, 0
9, 689280, Note_on_c, 7, 60, 105
9, 689760, Note_on_c, 7, 60, 0
9, 690240, Note_on_c, 7, 69, 105
9, 690720, Note_on_c, 7, 69, 0
9, 691200, Note_on_c, 7, 67, 105
9, 692160, Note_on_c, 7, 67, 0
9, 695040, Note_on_c, 7, 64, 90
9, 695280, Note_on_c, 7, 64, 0
9, 695280, Note_on_c, 7, 65, 90
9, 695520, Note_on_c, 7, 65, 0
9, 695520, Note_on_c, 7, 67, 90
9, 695760, Note_on_c, 7, 67, 0
9, 695760, Note_on_c, 7, 65, 105
9, 696000, Note_on_c, 7, 65, 0
9, 696000, Note_on_c, 7, 64, 105
9, 696240, Note_on_c, 7, 64, 0
9, 696240, Note_on_c, 7, 65, 105
9, 696480, Note_on_c, 7, 65, 0
9, 696480, Note_on_c, 7, 67, 105
9, 696720, Note_on_c, 7, 67, 0
9, 696720, Note_on_c, 7, 69, 105
9, 696960, Note_on_c, 7, 69, 0
9, 696960, Note_on_c, 7, 62, 105
9, 697200, Note_on_c, 7, 62, 0
9, 697200, Note_on_c, 7, 60, 105
9, 697440, Note_on_c, 7, 60, 0
9, 697440, Note_on_c, 7, 62, 105
9, 697680, Note_on_c, 7, 62, 0
9, 697680, Note_on_c, 7, 60, 105
9, 697920, Note_on_c, 7, 60, 0
9, 697920, Note_on_c, 7, 59, 105
9, 698160, Note_on_c, 7, 59, 0
9, 698160, Note_on_c, 7, 60, 105
9, 698400, Note_on_c, 7, 60, 0
9, 698400, Note_on_c, 7, 62, 105
9, 698640, Note_on_c, 7, 62, 0
9, 698640, Note_on_c, 7, 59, 105
9, 698880, Note_on_c, 7, 59, 0
9, 698880, Note_on_c, 7, 55, 105
9, 698880, Note_on_c, 7, 67, 105
9, 699360, Note_on_c, 7, 67, 0
9, 699360, Note_on_c, 7, 55, 0
9, 699360, Note_on_c, 7, 55, 105
9, 699360, Note_on_c, 7, 67, 105
9, 700320, Note_on_c, 7, 67, 0
9, 700320, Note_on_c, 7, 55, 0
9, 700320, Note_on_c, 7, 55, 105
9, 700320, Note_on_c, 7, 67, 105
9, 701280, Note_on_c, 7, 67, 0
9, 701280, Note_on_c, 7, 55, 0
9, 701280, Note_on_c, 7, 55, 105
9, 701280, Note_on_c, 7, 67, 105
9, 702240, Note_on_c, 7, 67, 0
9, 702240, Note_on_c, 7, 55, 0
9, 702240, Note_on_c, 7, 55, 105
9, 702240, Note_on_c, 7, 67, 105
9, 702720, Note_on_c, 7, 67, 0
9, 702720, Note_on_c, 7, 55, 0
9, 702720, Note_on_c, 7, 55, 105
9, 702720, Note_on_c, 7, 67, 105
9, 703200, Note_on_c, 7, 67, 0
9, 703200, Note_on_c, 7, 55, 0
9, 703200, Note_on_c, 7, 67, 105
9, 703440, Note_on_c, 7, 67, 0
9, 703440, Note_on_c, 7, 67, 105
9, 703680, Note_on_c, 7, 67, 0
9, 703680, Note_on_c, 7, 69, 105
9, 703920, Note_on_c, 7, 69, 0
9, 703920, Note_on_c, 7, 69, 105
9, 704160, Note_on_c, 7, 69, 0
9, 704160, Note_on_c, 7, 64, 105
9, 704400, Note_on_c, 7, 64, 0
9, 704400, Note_on_c, 7, 64, 105
9, 704640, Note_on_c, 7, 64, 0
9, 704640, Note_on_c, 7, 65, 105
9, 704880, Note_on_c, 7, 65, 0
9, 704880, Note_on_c, 7, 65, 105
9, 705120, Note_on_c, 7, 65, 0
9, 705120, Note_on_c, 7, 65, 105
9, 705360, Note_on_c, 7, 65, 0
9, 705360, Note_on_c, 7, 65, 105
9, 705600, Note_on_c, 7, 65, 0
9, 705600, Note_on_c, 7, 67, 105
9, 705840, Note_on_c, 7, 67, 0
9, 705840, Note_on_c, 7, 67, 105
9, 706080, Note_on_c, 7, 67, 0
9, 706080, Note_on_c, 7, 67, 105
9, 706320, Note_on_c, 7, 67, 0
9, 706320, Note_on_c, 7, 67, 105
9, 706560, Note_on_c, 7, 67, 0
9, 706560, Note_on_c, 7, 67, 105
9, 707520, Note_on_c, 7, 67, 0
9, 748320, Note_on_c, 7, 67, 105
9, 748800, Note_on_c, 7, 67, 0
9, 748800, Note_on_c, 7, 55, 105
9, 748800, Note_on_c, 7, 67, 105
9, 749760, Note_on_c, 7, 67, 0
9, 749760, Note_on_c, 7, 55, 0
9, 750240, Note_on_c, 7, 67, 105
9, 750720, Note_on_c, 7, 67, 0
9, 750720, Note_on_c, 7, 55, 105
9, 750720, Note_on_c, 7, 67, 105
9, 751680, Note_on_c, 7, 67, 0
9, 751680, Note_on_c, 7, 55, 0
9, 752160, Note_on_c, 7, 67, 105
9, 752640, Note_on_c, 7, 67, 0
9, 752640, Note_on_c, 7, 55, 105
9, 752640, Note_on_c, 7, 67, 105
9, 753600, Note_on_c, 7, 67, 0
9, 753600, Note_on_c, 7, 55, 0
9, 753600, Note_on_c, 7, 55, 105
9, 753600, Note_on_c, 7, 64, 105
9, 754560, Note_on_c, 7, 64, 0
9, 754560, Note_on_c, 7, 55, 0
9, 754560, Note_on_c, 7, 55, 105
9, 754560, Note_on_c, 7, 64, 105
9, 755520, Note_on_c, 7, 64, 0
9, 755520, Note_on_c, 7, 55, 0
9, 755520, End_track
10, 0, Start_track
10, 0, Title_t, "Celli e K. Bass"
10, 0, Control_c, 8, 0, 0
10, 0, Control_c, 8, 7, 90
10, 0, Control_c, 8, 10, 85
10, 0, Control_c, 8, 91, 109
10, 0, Control_c, 8, 93, 97
10, 1, Control_c, 8, 32, 1
10, 2, Program_c, 8, 48
10, 17280, Note_on_c, 8, 60, 70
10, 17652, Note_on_c, 8, 60, 0
10, 18240, Note_on_c, 8, 55, 70
10, 18644, Note_on_c, 8, 55, 0
10, 19200, Note_on_c, 8, 48, 70
10, 20036, Note_on_c, 8, 48, 0
10, 21120, Note_on_c, 8, 48, 70
10, 21964, Note_on_c, 8, 48, 0
10, 23040, Note_on_c, 8, 48, 70
10, 23924, Note_on_c, 8, 48, 0
10, 24960, Note_on_c, 8, 48, 70
10, 25920, Note_on_c, 8, 55, 70
10, 26028, Note_on_c, 8, 48, 0
10, 26772, Note_on_c, 8, 55, 0
10, 26880, Note_on_c, 8, 60, 70
10, 27840, Note_on_c, 8, 55, 70
10, 27924, Note_on_c, 8, 60, 0
10, 28700, Note_on_c, 8, 55, 0
10, 28800, Note_on_c, 8, 52, 70
10, 29760, Note_on_c, 8, 55, 70
10, 29844, Note_on_c, 8, 52, 0
10, 30644, Note_on_c, 8, 55, 0
10, 30720, Note_on_c, 8, 48, 105
10, 30908, Note_on_c, 8, 48, 0
10, 30960, Note_on_c, 8, 50, 105
10, 31148, Note_on_c, 8, 50, 0
10, 31200, Note_on_c, 8, 52, 105
10, 31388, Note_on_c, 8, 52, 0
10, 31440, Note_on_c, 8, 50, 105
10, 31628, Note_on_c, 8, 50, 0
10, 31680, Note_on_c, 8, 48, 105
10, 31868, Note_on_c, 8, 48, 0
10, 31920, Note_on_c, 8, 50, 105
10, 32108, Note_on_c, 8, 50, 0
10, 32160, Note_on_c, 8, 52, 105
10, 32348, Note_on_c, 8, 52, 0
10, 32400, Note_on_c, 8, 53, 105
10, 32588, Note_on_c, 8, 53, 0
10, 32640, Note_on_c, 8, 55, 105
10, 32828, Note_on_c, 8, 55, 0
10, 32880, Note_on_c, 8, 57, 105
10, 33068, Note_on_c, 8, 57, 0
10, 33120, Note_on_c, 8, 59, 105
10, 33308, Note_on_c, 8, 59, 0
10, 33360, Note_on_c, 8, 57, 105
10, 33548, Note_on_c, 8, 57, 0
10, 33600, Note_on_c, 8, 55, 105
10, 33788, Note_on_c, 8, 55, 0
10, 33840, Note_on_c, 8, 57, 105
10, 34028, Note_on_c, 8, 57, 0
10, 34080, Note_on_c, 8, 59, 105
10, 34268, Note_on_c, 8, 59, 0
10, 34320, Note_on_c, 8, 55, 105
10, 34508, Note_on_c, 8, 55, 0
10, 34560, Note_on_c, 8, 60, 105
10, 34748, Note_on_c, 8, 60, 0
10, 34800, Note_on_c, 8, 64, 105
10, 34988, Note_on_c, 8, 64, 0
10, 35040, Note_on_c, 8, 60, 105
10, 35228, Note_on_c, 8, 60, 0
10, 35280, Note_on_c, 8, 55, 105
10, 35468, Note_on_c, 8, 55, 0
10, 35520, Note_on_c, 8, 52, 105
10, 35708, Note_on_c, 8, 52, 0
10, 35760, Note_on_c, 8, 55, 105
10, 35948, Note_on_c, 8, 55, 0
10, 36000, Note_on_c, 8, 52, 105
10, 36188, Note_on_c, 8, 52, 0
10, 36240, Note_on_c, 8, 48, 105
10, 36428, Note_on_c, 8, 48, 0
10, 36480, Note_on_c, 8, 43, 105
10, 36668, Note_on_c, 8, 43, 0
10, 36720, Note_on_c, 8, 47, 105
10, 36908, Note_on_c, 8, 47, 0
10, 36960, Note_on_c, 8, 50, 105
10, 37148, Note_on_c, 8, 50, 0
10, 37200, Note_on_c, 8, 55, 105
10, 37388, Note_on_c, 8, 55, 0
10, 37440, Note_on_c, 8, 59, 105
10, 37628, Note_on_c, 8, 59, 0
10, 37680, Note_on_c, 8, 62, 105
10, 37868, Note_on_c, 8, 62, 0
10, 37920, Note_on_c, 8, 59, 105
10, 38108, Note_on_c, 8, 59, 0
10, 38160, Note_on_c, 8, 55, 105
10, 38348, Note_on_c, 8, 55, 0
10, 38400, Note_on_c, 8, 60, 105
10, 38788, Note_on_c, 8, 60, 0
10, 38880, Note_on_c, 8, 57, 105
10, 39700, Note_on_c, 8, 57, 0
10, 39840, Note_on_c, 8, 55, 80
10, 40032, Note_on_c, 8, 55, 0
10, 40320, Note_on_c, 8, 53, 70
10, 40512, Note_on_c, 8, 53, 0
10, 40800, Note_on_c, 8, 52, 70
10, 40992, Note_on_c, 8, 52, 0
10, 41280, Note_on_c, 8, 57, 70
10, 41472, Note_on_c, 8, 57, 0
10, 41760, Note_on_c, 8, 55, 70
10, 41952, Note_on_c, 8, 55, 0
10, 42240, Note_on_c, 8, 53, 70
10, 42620, Note_on_c, 8, 53, 0
10, 42720, Note_on_c, 8, 57, 105
10, 43596, Note_on_c, 8, 57, 0
10, 43680, Note_on_c, 8, 55, 80
10, 43872, Note_on_c, 8, 55, 0
10, 44160, Note_on_c, 8, 53, 70
10, 44352, Note_on_c, 8, 53, 0
10, 44640, Note_on_c, 8, 52, 70
10, 44832, Note_on_c, 8, 52, 0
10, 45120, Note_on_c, 8, 57, 70
10, 45312, Note_on_c, 8, 57, 0
10, 45600, Note_on_c, 8, 55, 70
10, 45792, Note_on_c, 8, 55, 0
10, 46080, Note_on_c, 8, 53, 70
10, 48000, Note_on_c, 8, 54, 70
10, 48068, Note_on_c, 8, 53, 0
10, 49812, Note_on_c, 8, 54, 0
10, 49920, Note_on_c, 8, 55, 70
10, 50348, Note_on_c, 8, 55, 0
10, 54240, Note_on_c, 8, 48, 70
10, 54432, Note_on_c, 8, 48, 0
10, 54720, Note_on_c, 8, 52, 70
10, 54912, Note_on_c, 8, 52, 0
10, 55200, Note_on_c, 8, 48, 70
10, 55392, Note_on_c, 8, 48, 0
10, 56160, Note_on_c, 8, 50, 70
10, 56352, Note_on_c, 8, 50, 0
10, 56640, Note_on_c, 8, 47, 70
10, 56832, Note_on_c, 8, 47, 0
10, 57120, Note_on_c, 8, 43, 70
10, 57312, Note_on_c, 8, 43, 0
10, 58080, Note_on_c, 8, 48, 70
10, 58272, Note_on_c, 8, 48, 0
10, 58560, Note_on_c, 8, 57, 70
10, 58752, Note_on_c, 8, 57, 0
10, 59040, Note_on_c, 8, 53, 70
10, 59232, Note_on_c, 8, 53, 0
10, 60000, Note_on_c, 8, 55, 70
10, 60192, Note_on_c, 8, 55, 0
10, 60480, Note_on_c, 8, 43, 70
10, 60672, Note_on_c, 8, 43, 0
10, 60960, Note_on_c, 8, 53, 70
10, 61152, Note_on_c, 8, 53, 0
10, 61920, Note_on_c, 8, 52, 70
10, 62112, Note_on_c, 8, 52, 0
10, 62400, Note_on_c, 8, 50, 70
10, 62592, Note_on_c, 8, 50, 0
10, 62880, Note_on_c, 8, 48, 70
10, 63072, Note_on_c, 8, 48, 0
10, 63840, Note_on_c, 8, 57, 70
10, 64032, Note_on_c, 8, 57, 0
10, 64320, Note_on_c, 8, 55, 70
10, 64512, Note_on_c, 8, 55, 0
10, 64800, Note_on_c, 8, 53, 70
10, 64992, Note_on_c, 8, 53, 0
10, 65280, Note_on_c, 8, 52, 70
10, 65508, Note_on_c, 8, 52, 0
10, 65760, Note_on_c, 8, 57, 70
10, 65932, Note_on_c, 8, 57, 0
10, 66240, Note_on_c, 8, 53, 70
10, 66476, Note_on_c, 8, 53, 0
10, 66720, Note_on_c, 8, 55, 70
10, 66908, Note_on_c, 8, 55, 0
10, 67680, Note_on_c, 8, 48, 70
10, 67900, Note_on_c, 8, 48, 0
10, 68160, Note_on_c, 8, 52, 70
10, 68388, Note_on_c, 8, 52, 0
10, 68640, Note_on_c, 8, 55, 70
10, 68836, Note_on_c, 8, 55, 0
10, 69600, Note_on_c, 8, 60, 70
10, 70080, Note_on_c, 8, 59, 70
10, 70196, Note_on_c, 8, 60, 0
10, 70560, Note_on_c, 8, 58, 70
10, 70660, Note_on_c, 8, 59, 0
10, 71040, Note_on_c, 8, 57, 70
10, 71148, Note_on_c, 8, 58, 0
10, 71372, Note_on_c, 8, 57, 0
10, 71520, Note_on_c, 8, 60, 70
10, 71964, Note_on_c, 8, 60, 0
10, 72000, Note_on_c, 8, 57, 70
10, 72428, Note_on_c, 8, 57, 0
10, 72480, Note_on_c, 8, 53, 70
10, 72892, Note_on_c, 8, 53, 0
10, 72960, Note_on_c, 8, 52, 70
10, 74796, Note_on_c, 8, 52, 0
10, 74880, Note_on_c, 8, 53, 70
10, 75840, Note_on_c, 8, 57, 70
10, 75908, Note_on_c, 8, 53, 0
10, 76708, Note_on_c, 8, 57, 0
10, 76800, Note_on_c, 8, 55, 70
10, 78644, Note_on_c, 8, 55, 0
10, 78720, Note_on_c, 8, 43, 70
10, 80556, Note_on_c, 8, 43, 0
10, 80640, Note_on_c, 8, 48, 70
10, 80988, Note_on_c, 8, 48, 0
10, 81120, Note_on_c, 8, 48, 105
10, 81216, Note_on_c, 8, 48, 0
10, 81360, Note_on_c, 8, 48, 105
10, 81456, Note_on_c, 8, 48, 0
10, 81600, Note_on_c, 8, 47, 105
10, 81840, Note_on_c, 8, 50, 105
10, 81908, Note_on_c, 8, 47, 0
10, 81964, Note_on_c, 8, 50, 0
10, 82080, Note_on_c, 8, 53, 105
10, 82176, Note_on_c, 8, 53, 0
10, 82320, Note_on_c, 8, 53, 105
10, 82416, Note_on_c, 8, 53, 0
10, 82560, Note_on_c, 8, 52, 105
10, 82800, Note_on_c, 8, 55, 105
10, 82836, Note_on_c, 8, 52, 0
10, 82964, Note_on_c, 8, 55, 0
10, 83040, Note_on_c, 8, 60, 105
10, 83136, Note_on_c, 8, 60, 0
10, 83280, Note_on_c, 8, 60, 105
10, 83376, Note_on_c, 8, 60, 0
10, 83520, Note_on_c, 8, 59, 105
10, 83900, Note_on_c, 8, 59, 0
10, 84000, Note_on_c, 8, 55, 105
10, 84180, Note_on_c, 8, 55, 0
10, 84240, Note_on_c, 8, 55, 105
10, 84428, Note_on_c, 8, 55, 0
10, 84480, Note_on_c, 8, 60, 105
10, 84852, Note_on_c, 8, 60, 0
10, 84960, Note_on_c, 8, 55, 105
10, 85116, Note_on_c, 8, 55, 0
10, 85200, Note_on_c, 8, 55, 105
10, 85364, Note_on_c, 8, 55, 0
10, 85440, Note_on_c, 8, 62, 105
10, 85788, Note_on_c, 8, 62, 0
10, 85920, Note_on_c, 8, 55, 105
10, 86100, Note_on_c, 8, 55, 0
10, 86160, Note_on_c, 8, 55, 105
10, 86332, Note_on_c, 8, 55, 0
10, 86400, Note_on_c, 8, 64, 105
10, 86756, Note_on_c, 8, 64, 0
10, 86880, Note_on_c, 8, 55, 105
10, 87044, Note_on_c, 8, 55, 0
10, 87120, Note_on_c, 8, 55, 105
10, 87276, Note_on_c, 8, 55, 0
10, 87360, Note_on_c, 8, 59, 105
10, 87732, Note_on_c, 8, 59, 0
10, 87840, Note_on_c, 8, 55, 105
10, 87996, Note_on_c, 8, 55, 0
10, 88080, Note_on_c, 8, 55, 105
10, 88228, Note_on_c, 8, 55, 0
10, 88320, Note_on_c, 8, 60, 105
10, 88684, Note_on_c, 8, 60, 0
10, 88800, Note_on_c, 8, 55, 105
10, 88900, Note_on_c, 8, 55, 0
10, 89040, Note_on_c, 8, 55, 105
10, 89148, Note_on_c, 8, 55, 0
10, 89280, Note_on_c, 8, 62, 105
10, 89628, Note_on_c, 8, 62, 0
10, 89760, Note_on_c, 8, 55, 105
10, 89900, Note_on_c, 8, 55, 0
10, 90000, Note_on_c, 8, 55, 105
10, 90156, Note_on_c, 8, 55, 0
10, 90240, Note_on_c, 8, 64, 105
10, 90596, Note_on_c, 8, 64, 0
10, 90720, Note_on_c, 8, 55, 105
10, 90892, Note_on_c, 8, 55, 0
10, 90960, Note_on_c, 8, 55, 105
10, 91140, Note_on_c, 8, 55, 0
10, 91200, Note_on_c, 8, 59, 105
10, 91548, Note_on_c, 8, 59, 0
10, 91680, Note_on_c, 8, 55, 105
10, 91844, Note_on_c, 8, 55, 0
10, 91920, Note_on_c, 8, 55, 105
10, 92076, Note_on_c, 8, 55, 0
10, 92160, Note_on_c, 8, 60, 105
10, 92640, Note_on_c, 8, 60, 0
10, 93000, Note_on_c, 8, 60, 105
10, 93120, Note_on_c, 8, 57, 118
10, 93204, Note_on_c, 8, 60, 0
10, 93600, Note_on_c, 8, 57, 0
10, 93960, Note_on_c, 8, 57, 105
10, 94080, Note_on_c, 8, 53, 119
10, 94164, Note_on_c, 8, 57, 0
10, 94560, Note_on_c, 8, 53, 0
10, 94920, Note_on_c, 8, 53, 105
10, 95040, Note_on_c, 8, 55, 119
10, 95092, Note_on_c, 8, 53, 0
10, 95520, Note_on_c, 8, 55, 0
10, 95880, Note_on_c, 8, 55, 105
10, 96000, Note_on_c, 8, 48, 117
10, 96084, Note_on_c, 8, 55, 0
10, 96828, Note_on_c, 8, 48, 0
10, 96960, Note_on_c, 8, 48, 120
10, 97200, Note_on_c, 8, 43, 105
10, 97268, Note_on_c, 8, 48, 0
10, 97340, Note_on_c, 8, 43, 0
10, 97440, Note_on_c, 8, 52, 105
10, 97536, Note_on_c, 8, 52, 0
10, 97680, Note_on_c, 8, 52, 105
10, 97776, Note_on_c, 8, 52, 0
10, 97920, Note_on_c, 8, 52, 117
10, 98160, Note_on_c, 8, 48, 105
10, 98204, Note_on_c, 8, 52, 0
10, 98292, Note_on_c, 8, 48, 0
10, 98400, Note_on_c, 8, 55, 105
10, 98496, Note_on_c, 8, 55, 0
10, 98640, Note_on_c, 8, 55, 105
10, 98736, Note_on_c, 8, 55, 0
10, 98880, Note_on_c, 8, 55, 121
10, 99120, Note_on_c, 8, 52, 105
10, 99188, Note_on_c, 8, 55, 0
10, 99276, Note_on_c, 8, 52, 0
10, 99360, Note_on_c, 8, 60, 105
10, 99456, Note_on_c, 8, 60, 0
10, 99600, Note_on_c, 8, 60, 105
10, 99696, Note_on_c, 8, 60, 0
10, 99840, Note_on_c, 8, 60, 119
10, 100556, Note_on_c, 8, 60, 0
10, 103680, Program_c, 8, 45
10, 105120, Note_on_c, 8, 55, 117
10, 105380, Note_on_c, 8, 55, 0
10, 105600, Note_on_c, 8, 60, 117
10, 105844, Note_on_c, 8, 60, 0
10, 107040, Note_on_c, 8, 55, 117
10, 107284, Note_on_c, 8, 55, 0
10, 107520, Note_on_c, 8, 60, 117
10, 107820, Note_on_c, 8, 60, 0
10, 108960, Note_on_c, 8, 55, 117
10, 109212, Note_on_c, 8, 55, 0
10, 109440, Note_on_c, 8, 60, 117
10, 109740, Note_on_c, 8, 60, 0
10, 109920, Note_on_c, 8, 55, 117
10, 110172, Note_on_c, 8, 55, 0
10, 110400, Note_on_c, 8, 48, 117
10, 110628, Note_on_c, 8, 48, 0
10, 113280, Program_c, 8, 42
10, 145920, Note_on_c, 8, 60, 105
10, 146136, Note_on_c, 8, 60, 0
10, 146160, Note_on_c, 8, 64, 105
10, 146376, Note_on_c, 8, 64, 0
10, 146400, Note_on_c, 8, 62, 105
10, 146616, Note_on_c, 8, 62, 0
10, 146640, Note_on_c, 8, 60, 105
10, 146856, Note_on_c, 8, 60, 0
10, 146880, Note_on_c, 8, 59, 105
10, 147096, Note_on_c, 8, 59, 0
10, 147120, Note_on_c, 8, 57, 105
10, 147336, Note_on_c, 8, 57, 0
10, 147360, Note_on_c, 8, 55, 105
10, 147576, Note_on_c, 8, 55, 0
10, 147600, Note_on_c, 8, 53, 105
10, 147816, Note_on_c, 8, 53, 0
10, 147840, Note_on_c, 8, 48, 105
10, 148056, Note_on_c, 8, 48, 0
10, 148080, Note_on_c, 8, 60, 105
10, 148296, Note_on_c, 8, 60, 0
10, 148320, Note_on_c, 8, 59, 105
10, 148536, Note_on_c, 8, 59, 0
10, 148560, Note_on_c, 8, 57, 105
10, 148776, Note_on_c, 8, 57, 0
10, 148800, Note_on_c, 8, 55, 105
10, 149016, Note_on_c, 8, 55, 0
10, 149040, Note_on_c, 8, 53, 105
10, 149256, Note_on_c, 8, 53, 0
10, 149280, Note_on_c, 8, 52, 105
10, 149496, Note_on_c, 8, 52, 0
10, 149520, Note_on_c, 8, 50, 105
10, 149736, Note_on_c, 8, 50, 0
10, 149760, Note_on_c, 8, 48, 105
10, 150240, Note_on_c, 8, 48, 0
10, 201600, Note_on_c, 8, 52, 90
10, 202560, Note_on_c, 8, 52, 0
10, 203520, Note_on_c, 8, 50, 90
10, 204480, Note_on_c, 8, 50, 0
10, 205440, Note_on_c, 8, 52, 90
10, 206400, Note_on_c, 8, 52, 0
10, 207360, Note_on_c, 8, 50, 70
10, 207840, Note_on_c, 8, 50, 0
10, 211200, Note_on_c, 8, 62, 105
10, 211440, Note_on_c, 8, 62, 0
10, 211440, Note_on_c, 8, 61, 105
10, 211680, Note_on_c, 8, 61, 0
10, 211680, Note_on_c, 8, 62, 105
10, 211920, Note_on_c, 8, 62, 0
10, 211920, Note_on_c, 8, 64, 105
10, 212160, Note_on_c, 8, 64, 0
10, 212160, Note_on_c, 8, 60, 105
10, 212400, Note_on_c, 8, 60, 0
10, 212400, Note_on_c, 8, 59, 105
10, 212640, Note_on_c, 8, 59, 0
10, 212640, Note_on_c, 8, 60, 105
10, 212880, Note_on_c, 8, 60, 0
10, 212880, Note_on_c, 8, 62, 105
10, 213120, Note_on_c, 8, 62, 0
10, 213120, Note_on_c, 8, 59, 105
10, 213360, Note_on_c, 8, 59, 0
10, 213360, Note_on_c, 8, 58, 105
10, 213600, Note_on_c, 8, 58, 0
10, 213600, Note_on_c, 8, 59, 105
10, 213840, Note_on_c, 8, 59, 0
10, 213840, Note_on_c, 8, 60, 105
10, 214080, Note_on_c, 8, 60, 0
10, 214080, Note_on_c, 8, 57, 105
10, 214320, Note_on_c, 8, 57, 0
10, 214320, Note_on_c, 8, 56, 105
10, 214560, Note_on_c, 8, 56, 0
10, 214560, Note_on_c, 8, 57, 105
10, 214800, Note_on_c, 8, 57, 0
10, 214800, Note_on_c, 8, 59, 105
10, 215040, Note_on_c, 8, 59, 0
10, 215040, Note_on_c, 8, 55, 105
10, 215520, Note_on_c, 8, 55, 0
10, 216960, Note_on_c, 8, 50, 70
10, 217920, Note_on_c, 8, 50, 0
10, 217920, Note_on_c, 8, 55, 70
10, 218400, Note_on_c, 8, 55, 0
10, 218880, Note_on_c, 8, 50, 70
10, 219840, Note_on_c, 8, 50, 0
10, 219840, Note_on_c, 8, 55, 70
10, 220320, Note_on_c, 8, 55, 0
10, 220320, Note_on_c, 8, 64, 70
10, 220800, Note_on_c, 8, 64, 0
10, 220800, Note_on_c, 8, 62, 70
10, 221760, Note_on_c, 8, 62, 0
10, 222720, Note_on_c, 8, 50, 70
10, 223200, Note_on_c, 8, 50, 0
10, 224640, Note_on_c, 8, 55, 70
10, 225600, Note_on_c, 8, 55, 0
10, 225600, Note_on_c, 8, 54, 70
10, 226080, Note_on_c, 8, 54, 0
10, 226560, Note_on_c, 8, 55, 70
10, 227520, Note_on_c, 8, 55, 0
10, 227520, Note_on_c, 8, 54, 70
10, 228000, Note_on_c, 8, 54, 0
10, 228000, Note_on_c, 8, 50, 70
10, 228480, Note_on_c, 8, 50, 0
10, 228480, Note_on_c, 8, 55, 70
10, 229440, Note_on_c, 8, 55, 0
10, 261120, Note_on_c, 8, 43, 70
10, 262080, Note_on_c, 8, 43, 0
10, 262560, Note_on_c, 8, 47, 70
10, 263040, Note_on_c, 8, 47, 0
10, 263040, Note_on_c, 8, 48, 70
10, 263520, Note_on_c, 8, 48, 0
10, 263520, Note_on_c, 8, 52, 70
10, 264000, Note_on_c, 8, 52, 0
10, 264000, Note_on_c, 8, 57, 70
10, 264480, Note_on_c, 8, 57, 0
10, 264480, Note_on_c, 8, 60, 70
10, 264960, Note_on_c, 8, 60, 0
10, 264960, Note_on_c, 8, 47, 70
10, 265440, Note_on_c, 8, 47, 0
10, 265440, Note_on_c, 8, 50, 70
10, 265920, Note_on_c, 8, 50, 0
10, 265920, Note_on_c, 8, 55, 70
10, 266400, Note_on_c, 8, 55, 0
10, 266400, Note_on_c, 8, 59, 70
10, 266880, Note_on_c, 8, 59, 0
10, 266880, Note_on_c, 8, 45, 70
10, 267360, Note_on_c, 8, 45, 0
10, 267360, Note_on_c, 8, 48, 70
10, 267840, Note_on_c, 8, 48, 0
10, 267840, Note_on_c, 8, 54, 70
10, 268320, Note_on_c, 8, 54, 0
10, 268320, Note_on_c, 8, 57, 70
10, 268800, Note_on_c, 8, 57, 0
10, 268800, Note_on_c, 8, 55, 70
10, 269280, Note_on_c, 8, 55, 0
10, 305280, Note_on_c, 8, 55, 84
10, 310560, Note_on_c, 8, 55, 0
10, 310560, Note_on_c, 8, 59, 70
10, 311040, Note_on_c, 8, 59, 0
10, 311040, Note_on_c, 8, 62, 70
10, 312000, Note_on_c, 8, 62, 0
10, 312000, Note_on_c, 8, 50, 70
10, 312960, Note_on_c, 8, 50, 0
10, 312960, Note_on_c, 8, 55, 70
10, 313920, Note_on_c, 8, 55, 0
10, 314400, Note_on_c, 8, 50, 70
10, 314880, Note_on_c, 8, 50, 0
10, 314880, Note_on_c, 8, 55, 70
10, 315360, Note_on_c, 8, 55, 0
10, 315360, Note_on_c, 8, 50, 70
10, 315840, Note_on_c, 8, 50, 0
10, 315840, Note_on_c, 8, 55, 70
10, 316320, Note_on_c, 8, 55, 0
10, 316320, Note_on_c, 8, 50, 70
10, 316800, Note_on_c, 8, 50, 0
10, 316800, Note_on_c, 8, 55, 70
10, 317280, Note_on_c, 8, 55, 0
10, 317760, Note_on_c, 8, 55, 70
10, 318240, Note_on_c, 8, 55, 0
10, 318240, Note_on_c, 8, 59, 70
10, 318720, Note_on_c, 8, 59, 0
10, 318720, Note_on_c, 8, 62, 70
10, 319200, Note_on_c, 8, 62, 0
10, 319680, Note_on_c, 8, 50, 70
10, 320160, Note_on_c, 8, 50, 0
10, 320640, Note_on_c, 8, 55, 70
10, 321120, Note_on_c, 8, 55, 0
10, 325440, Note_on_c, 8, 54, 70
10, 326400, Note_on_c, 8, 54, 0
10, 326400, Note_on_c, 8, 55, 70
10, 327360, Note_on_c, 8, 55, 0
10, 327360, Note_on_c, 8, 50, 70
10, 328320, Note_on_c, 8, 50, 0
10, 328320, Note_on_c, 8, 43, 70
10, 329280, Note_on_c, 8, 43, 0
10, 329280, Note_on_c, 8, 54, 70
10, 330240, Note_on_c, 8, 54, 0
10, 330240, Note_on_c, 8, 55, 70
10, 331200, Note_on_c, 8, 55, 0
10, 331200, Note_on_c, 8, 50, 70
10, 332160, Note_on_c, 8, 50, 0
10, 332160, Note_on_c, 8, 43, 70
10, 332640, Note_on_c, 8, 43, 0
10, 339840, Note_on_c, 8, 43, 70
10, 346560, Note_on_c, 8, 43, 0
10, 364800, Note_on_c, 8, 60, 105
10, 365280, Note_on_c, 8, 60, 0
10, 365760, Note_on_c, 8, 55, 105
10, 366240, Note_on_c, 8, 55, 0
10, 366720, Note_on_c, 8, 48, 105
10, 367680, Note_on_c, 8, 48, 0
10, 368640, Note_on_c, 8, 48, 105
10, 369600, Note_on_c, 8, 48, 0
10, 370560, Note_on_c, 8, 48, 105
10, 371520, Note_on_c, 8, 48, 0
10, 372480, Note_on_c, 8, 52, 105
10, 373440, Note_on_c, 8, 52, 0
10, 373440, Note_on_c, 8, 55, 105
10, 374400, Note_on_c, 8, 55, 0
10, 374400, Note_on_c, 8, 60, 105
10, 375360, Note_on_c, 8, 60, 0
10, 375360, Note_on_c, 8, 55, 105
10, 376320, Note_on_c, 8, 55, 0
10, 376320, Note_on_c, 8, 52, 105
10, 376800, Note_on_c, 8, 52, 0
10, 376800, Note_on_c, 8, 48, 105
10, 377280, Note_on_c, 8, 48, 0
10, 377280, Note_on_c, 8, 55, 105
10, 377760, Note_on_c, 8, 55, 0
10, 377760, Note_on_c, 8, 43, 105
10, 378240, Note_on_c, 8, 43, 0
10, 378240, Note_on_c, 8, 48, 105
10, 378720, Note_on_c, 8, 48, 0
10, 378720, Note_on_c, 8, 48, 105
10, 378816, Note_on_c, 8, 48, 0
10, 378960, Note_on_c, 8, 48, 105
10, 379056, Note_on_c, 8, 48, 0
10, 379200, Note_on_c, 8, 47, 105
10, 379440, Note_on_c, 8, 47, 0
10, 379440, Note_on_c, 8, 50, 105
10, 379680, Note_on_c, 8, 50, 0
10, 379680, Note_on_c, 8, 53, 105
10, 379776, Note_on_c, 8, 53, 0
10, 379920, Note_on_c, 8, 53, 105
10, 380016, Note_on_c, 8, 53, 0
10, 380160, Note_on_c, 8, 52, 105
10, 380400, Note_on_c, 8, 52, 0
10, 380400, Note_on_c, 8, 55, 105
10, 380640, Note_on_c, 8, 55, 0
10, 380640, Note_on_c, 8, 60, 105
10, 380736, Note_on_c, 8, 60, 0
10, 380880, Note_on_c, 8, 60, 105
10, 380976, Note_on_c, 8, 60, 0
10, 381120, Note_on_c, 8, 59, 105
10, 381600, Note_on_c, 8, 59, 0
10, 381600, Note_on_c, 8, 55, 105
10, 381840, Note_on_c, 8, 55, 0
10, 381840, Note_on_c, 8, 55, 105
10, 382080, Note_on_c, 8, 55, 0
10, 382080, Note_on_c, 8, 60, 105
10, 382560, Note_on_c, 8, 60, 0
10, 382560, Note_on_c, 8, 55, 105
10, 382800, Note_on_c, 8, 55, 0
10, 382800, Note_on_c, 8, 55, 105
10, 383040, Note_on_c, 8, 55, 0
10, 383040, Note_on_c, 8, 62, 105
10, 383520, Note_on_c, 8, 62, 0
10, 383520, Note_on_c, 8, 55, 105
10, 383760, Note_on_c, 8, 55, 0
10, 383760, Note_on_c, 8, 55, 105
10, 384000, Note_on_c, 8, 55, 0
10, 384000, Note_on_c, 8, 64, 105
10, 384480, Note_on_c, 8, 64, 0
10, 384480, Note_on_c, 8, 55, 105
10, 384720, Note_on_c, 8, 55, 0
10, 384720, Note_on_c, 8, 55, 105
10, 384960, Note_on_c, 8, 55, 0
10, 384960, Note_on_c, 8, 59, 105
10, 385440, Note_on_c, 8, 59, 0
10, 385440, Note_on_c, 8, 55, 105
10, 385680, Note_on_c, 8, 55, 0
10, 385680, Note_on_c, 8, 55, 105
10, 385920, Note_on_c, 8, 55, 0
10, 385920, Note_on_c, 8, 60, 105
10, 386400, Note_on_c, 8, 60, 0
10, 386400, Note_on_c, 8, 55, 105
10, 386640, Note_on_c, 8, 55, 0
10, 386640, Note_on_c, 8, 55, 105
10, 386880, Note_on_c, 8, 55, 0
10, 386880, Note_on_c, 8, 62, 105
10, 387360, Note_on_c, 8, 62, 0
10, 387360, Note_on_c, 8, 55, 105
10, 387600, Note_on_c, 8, 55, 0
10, 387600, Note_on_c, 8, 55, 105
10, 387840, Note_on_c, 8, 55, 0
10, 387840, Note_on_c, 8, 64, 105
10, 388320, Note_on_c, 8, 64, 0
10, 388320, Note_on_c, 8, 55, 105
10, 388560, Note_on_c, 8, 55, 0
10, 388560, Note_on_c, 8, 55, 105
10, 388800, Note_on_c, 8, 55, 0
10, 388800, Note_on_c, 8, 56, 105
10, 389280, Note_on_c, 8, 56, 0
10, 389280, Note_on_c, 8, 52, 105
10, 389520, Note_on_c, 8, 52, 0
10, 389520, Note_on_c, 8, 52, 105
10, 389760, Note_on_c, 8, 52, 0
10, 389760, Note_on_c, 8, 57, 105
10, 390240, Note_on_c, 8, 57, 0
10, 390240, Note_on_c, 8, 52, 105
10, 390480, Note_on_c, 8, 52, 0
10, 390480, Note_on_c, 8, 52, 105
10, 390720, Note_on_c, 8, 52, 0
10, 390720, Note_on_c, 8, 59, 105
10, 391200, Note_on_c, 8, 59, 0
10, 391200, Note_on_c, 8, 52, 105
10, 391440, Note_on_c, 8, 52, 0
10, 391440, Note_on_c, 8, 52, 105
10, 391680, Note_on_c, 8, 52, 0
10, 391680, Note_on_c, 8, 60, 105
10, 392160, Note_on_c, 8, 60, 0
10, 392160, Note_on_c, 8, 48, 105
10, 392400, Note_on_c, 8, 48, 0
10, 392400, Note_on_c, 8, 48, 105
10, 392640, Note_on_c, 8, 48, 0
10, 392640, Note_on_c, 8, 52, 105
10, 393120, Note_on_c, 8, 52, 0
10, 393120, Note_on_c, 8, 48, 105
10, 393360, Note_on_c, 8, 48, 0
10, 393360, Note_on_c, 8, 48, 105
10, 393600, Note_on_c, 8, 48, 0
10, 393600, Note_on_c, 8, 53, 105
10, 394080, Note_on_c, 8, 53, 0
10, 394080, Note_on_c, 8, 48, 105
10, 394320, Note_on_c, 8, 48, 0
10, 394320, Note_on_c, 8, 48, 105
10, 394560, Note_on_c, 8, 48, 0
10, 394560, Note_on_c, 8, 55, 105
10, 395040, Note_on_c, 8, 55, 0
10, 395040, Note_on_c, 8, 48, 105
10, 395280, Note_on_c, 8, 48, 0
10, 395280, Note_on_c, 8, 48, 105
10, 395520, Note_on_c, 8, 48, 0
10, 395520, Note_on_c, 8, 57, 105
10, 396000, Note_on_c, 8, 57, 0
10, 396000, Note_on_c, 8, 48, 105
10, 396240, Note_on_c, 8, 48, 0
10, 396240, Note_on_c, 8, 48, 105
10, 396480, Note_on_c, 8, 48, 0
10, 396480, Note_on_c, 8, 52, 105
10, 396960, Note_on_c, 8, 52, 0
10, 396960, Note_on_c, 8, 48, 105
10, 397200, Note_on_c, 8, 48, 0
10, 397200, Note_on_c, 8, 48, 105
10, 397440, Note_on_c, 8, 48, 0
10, 397440, Note_on_c, 8, 53, 105
10, 397920, Note_on_c, 8, 53, 0
10, 412800, Note_on_c, 8, 53, 70
10, 412992, Note_on_c, 8, 53, 0
10, 413280, Note_on_c, 8, 53, 70
10, 413472, Note_on_c, 8, 53, 0
10, 413760, Note_on_c, 8, 53, 70
10, 413952, Note_on_c, 8, 53, 0
10, 414240, Note_on_c, 8, 53, 70
10, 414432, Note_on_c, 8, 53, 0
10, 414720, Note_on_c, 8, 53, 70
10, 414912, Note_on_c, 8, 53, 0
10, 415200, Note_on_c, 8, 53, 70
10, 415392, Note_on_c, 8, 53, 0
10, 415680, Note_on_c, 8, 53, 70
10, 415872, Note_on_c, 8, 53, 0
10, 416160, Note_on_c, 8, 53, 70
10, 416352, Note_on_c, 8, 53, 0
10, 416640, Note_on_c, 8, 53, 70
10, 416832, Note_on_c, 8, 53, 0
10, 417120, Note_on_c, 8, 53, 70
10, 417312, Note_on_c, 8, 53, 0
10, 417600, Note_on_c, 8, 53, 70
10, 417792, Note_on_c, 8, 53, 0
10, 418080, Note_on_c, 8, 53, 70
10, 418272, Note_on_c, 8, 53, 0
10, 418560, Note_on_c, 8, 53, 70
10, 418752, Note_on_c, 8, 53, 0
10, 419040, Note_on_c, 8, 53, 70
10, 419232, Note_on_c, 8, 53, 0
10, 419520, Note_on_c, 8, 53, 70
10, 420480, Note_on_c, 8, 53, 0
10, 472320, Note_on_c, 8, 60, 70
10, 472800, Note_on_c, 8, 60, 0
10, 473280, Note_on_c, 8, 55, 70
10, 473760, Note_on_c, 8, 55, 0
10, 474240, Note_on_c, 8, 48, 70
10, 474720, Note_on_c, 8, 48, 0
10, 476160, Note_on_c, 8, 55, 70
10, 476640, Note_on_c, 8, 55, 0
10, 477120, Note_on_c, 8, 48, 70
10, 477600, Note_on_c, 8, 48, 0
10, 478080, Note_on_c, 8, 43, 70
10, 478560, Note_on_c, 8, 43, 0
10, 493440, Note_on_c, 8, 55, 70
10, 493920, Note_on_c, 8, 55, 0
10, 495360, Note_on_c, 8, 55, 70
10, 495840, Note_on_c, 8, 55, 0
10, 497280, Note_on_c, 8, 55, 70
10, 501120, Note_on_c, 8, 55, 0
10, 501120, Note_on_c, 8, 48, 70
10, 501600, Note_on_c, 8, 48, 0
10, 529920, Note_on_c, 8, 57, 90
10, 530880, Note_on_c, 8, 57, 0
10, 531840, Note_on_c, 8, 55, 90
10, 532800, Note_on_c, 8, 55, 0
10, 533760, Note_on_c, 8, 57, 90
10, 534720, Note_on_c, 8, 57, 0
10, 535680, Note_on_c, 8, 55, 70
10, 536160, Note_on_c, 8, 55, 0
10, 539520, Note_on_c, 8, 55, 90
10, 539760, Note_on_c, 8, 55, 0
10, 539760, Note_on_c, 8, 54, 90
10, 540000, Note_on_c, 8, 54, 0
10, 540000, Note_on_c, 8, 55, 90
10, 540240, Note_on_c, 8, 55, 0
10, 540240, Note_on_c, 8, 57, 90
10, 540480, Note_on_c, 8, 57, 0
10, 540480, Note_on_c, 8, 53, 90
10, 540720, Note_on_c, 8, 53, 0
10, 540720, Note_on_c, 8, 52, 90
10, 540960, Note_on_c, 8, 52, 0
10, 540960, Note_on_c, 8, 53, 90
10, 541200, Note_on_c, 8, 53, 0
10, 541200, Note_on_c, 8, 55, 90
10, 541440, Note_on_c, 8, 55, 0
10, 541440, Note_on_c, 8, 52, 90
10, 541680, Note_on_c, 8, 52, 0
10, 541680, Note_on_c, 8, 51, 90
10, 541920, Note_on_c, 8, 51, 0
10, 541920, Note_on_c, 8, 52, 90
10, 542160, Note_on_c, 8, 52, 0
10, 542160, Note_on_c, 8, 53, 90
10, 542400, Note_on_c, 8, 53, 0
10, 542400, Note_on_c, 8, 50, 90
10, 542640, Note_on_c, 8, 50, 0
10, 542640, Note_on_c, 8, 49, 90
10, 542880, Note_on_c, 8, 49, 0
10, 542880, Note_on_c, 8, 50, 90
10, 543120, Note_on_c, 8, 50, 0
10, 543120, Note_on_c, 8, 52, 90
10, 543360, Note_on_c, 8, 52, 0
10, 543360, Note_on_c, 8, 48, 90
10, 543840, Note_on_c, 8, 48, 0
10, 545280, Note_on_c, 8, 43, 70
10, 546240, Note_on_c, 8, 43, 0
10, 546240, Note_on_c, 8, 48, 70
10, 546720, Note_on_c, 8, 48, 0
10, 547200, Note_on_c, 8, 43, 70
10, 548160, Note_on_c, 8, 43, 0
10, 548160, Note_on_c, 8, 48, 70
10, 548640, Note_on_c, 8, 48, 0
10, 548640, Note_on_c, 8, 57, 70
10, 549120, Note_on_c, 8, 57, 0
10, 549120, Note_on_c, 8, 55, 70
10, 550080, Note_on_c, 8, 55, 0
10, 551040, Note_on_c, 8, 43, 70
10, 551520, Note_on_c, 8, 43, 0
10, 552960, Note_on_c, 8, 48, 70
10, 553920, Note_on_c, 8, 48, 0
10, 553920, Note_on_c, 8, 47, 70
10, 554400, Note_on_c, 8, 47, 0
10, 554880, Note_on_c, 8, 48, 70
10, 555840, Note_on_c, 8, 48, 0
10, 555840, Note_on_c, 8, 47, 70
10, 556320, Note_on_c, 8, 47, 0
10, 556320, Note_on_c, 8, 43, 70
10, 556800, Note_on_c, 8, 43, 0
10, 556800, Note_on_c, 8, 48, 70
10, 557760, Note_on_c, 8, 48, 0
10, 576000, Note_on_c, 8, 43, 70
10, 576960, Note_on_c, 8, 43, 0
10, 576960, Note_on_c, 8, 48, 70
10, 577440, Note_on_c, 8, 48, 0
10, 577920, Note_on_c, 8, 43, 70
10, 578880, Note_on_c, 8, 43, 0
10, 578880, Note_on_c, 8, 48, 70
10, 579360, Note_on_c, 8, 48, 0
10, 579360, Note_on_c, 8, 47, 70
10, 579840, Note_on_c, 8, 47, 0
10, 579840, Note_on_c, 8, 48, 70
10, 580320, Note_on_c, 8, 48, 0
10, 580320, Note_on_c, 8, 52, 70
10, 580800, Note_on_c, 8, 52, 0
10, 580800, Note_on_c, 8, 55, 70
10, 581280, Note_on_c, 8, 55, 0
10, 581760, Note_on_c, 8, 55, 70
10, 582720, Note_on_c, 8, 55, 0
10, 583680, Note_on_c, 8, 43, 70
10, 584640, Note_on_c, 8, 43, 0
10, 585600, Note_on_c, 8, 43, 70
10, 586560, Note_on_c, 8, 43, 0
10, 587040, Note_on_c, 8, 43, 70
10, 587520, Note_on_c, 8, 43, 0
10, 587520, Note_on_c, 8, 48, 70
10, 588000, Note_on_c, 8, 48, 0
10, 588000, Note_on_c, 8, 55, 70
10, 588480, Note_on_c, 8, 55, 0
10, 588480, Note_on_c, 8, 60, 70
10, 588960, Note_on_c, 8, 60, 0
10, 589440, Note_on_c, 8, 48, 70
10, 590400, Note_on_c, 8, 48, 0
10, 590880, Note_on_c, 8, 52, 70
10, 591360, Note_on_c, 8, 52, 0
10, 591360, Note_on_c, 8, 53, 70
10, 591840, Note_on_c, 8, 53, 0
10, 591840, Note_on_c, 8, 57, 70
10, 592320, Note_on_c, 8, 57, 0
10, 592320, Note_on_c, 8, 62, 70
10, 592800, Note_on_c, 8, 62, 0
10, 592800, Note_on_c, 8, 65, 70
10, 593280, Note_on_c, 8, 65, 0
10, 593280, Note_on_c, 8, 52, 70
10, 593760, Note_on_c, 8, 52, 0
10, 593760, Note_on_c, 8, 55, 70
10, 594240, Note_on_c, 8, 55, 0
10, 594240, Note_on_c, 8, 60, 70
10, 594720, Note_on_c, 8, 60, 0
10, 594720, Note_on_c, 8, 64, 70
10, 595200, Note_on_c, 8, 64, 0
10, 595200, Note_on_c, 8, 50, 70
10, 595680, Note_on_c, 8, 50, 0
10, 595680, Note_on_c, 8, 53, 70
10, 596160, Note_on_c, 8, 53, 0
10, 596160, Note_on_c, 8, 59, 70
10, 596640, Note_on_c, 8, 59, 0
10, 596640, Note_on_c, 8, 62, 70
10, 597120, Note_on_c, 8, 62, 0
10, 597120, Note_on_c, 8, 60, 70
10, 597600, Note_on_c, 8, 60, 0
10, 603360, Note_on_c, 8, 57, 90
10, 604320, Note_on_c, 8, 57, 0
10, 604320, Note_on_c, 8, 55, 70
10, 604512, Note_on_c, 8, 55, 0
10, 604800, Note_on_c, 8, 53, 70
10, 604992, Note_on_c, 8, 53, 0
10, 605280, Note_on_c, 8, 52, 70
10, 605472, Note_on_c, 8, 52, 0
10, 605760, Note_on_c, 8, 57, 70
10, 605952, Note_on_c, 8, 57, 0
10, 606240, Note_on_c, 8, 55, 70
10, 606432, Note_on_c, 8, 55, 0
10, 606720, Note_on_c, 8, 53, 70
10, 607200, Note_on_c, 8, 53, 0
10, 607200, Note_on_c, 8, 57, 90
10, 608160, Note_on_c, 8, 57, 0
10, 608160, Note_on_c, 8, 55, 70
10, 608352, Note_on_c, 8, 55, 0
10, 608640, Note_on_c, 8, 53, 70
10, 608832, Note_on_c, 8, 53, 0
10, 609120, Note_on_c, 8, 52, 70
10, 609312, Note_on_c, 8, 52, 0
10, 609600, Note_on_c, 8, 57, 70
10, 609792, Note_on_c, 8, 57, 0
10, 610080, Note_on_c, 8, 55, 70
10, 610272, Note_on_c, 8, 55, 0
10, 610560, Note_on_c, 8, 53, 70
10, 612480, Note_on_c, 8, 53, 0
10, 612480, Note_on_c, 8, 54, 70
10, 614400, Note_on_c, 8, 54, 0
10, 614400, Note_on_c, 8, 55, 70
10, 614880, Note_on_c, 8, 55, 0
10, 618720, Note_on_c, 8, 48, 70
10, 618912, Note_on_c, 8, 48, 0
10, 619200, Note_on_c, 8, 52, 70
10, 619392, Note_on_c, 8, 52, 0
10, 619680, Note_on_c, 8, 48, 70
10, 619872, Note_on_c, 8, 48, 0
10, 620640, Note_on_c, 8, 50, 70
10, 620832, Note_on_c, 8, 50, 0
10, 621120, Note_on_c, 8, 47, 70
10, 621312, Note_on_c, 8, 47, 0
10, 621600, Note_on_c, 8, 43, 70
10, 621792, Note_on_c, 8, 43, 0
10, 622560, Note_on_c, 8, 48, 70
10, 622752, Note_on_c, 8, 48, 0
10, 623040, Note_on_c, 8, 57, 70
10, 623232, Note_on_c, 8, 57, 0
10, 623520, Note_on_c, 8, 53, 70
10, 623712, Note_on_c, 8, 53, 0
10, 624480, Note_on_c, 8, 55, 70
10, 624672, Note_on_c, 8, 55, 0
10, 624960, Note_on_c, 8, 43, 70
10, 625152, Note_on_c, 8, 43, 0
10, 625440, Note_on_c, 8, 53, 70
10, 625632, Note_on_c, 8, 53, 0
10, 626400, Note_on_c, 8, 52, 70
10, 626592, Note_on_c, 8, 52, 0
10, 626880, Note_on_c, 8, 50, 70
10, 627072, Note_on_c, 8, 50, 0
10, 627360, Note_on_c, 8, 48, 70
10, 627552, Note_on_c, 8, 48, 0
10, 628320, Note_on_c, 8, 57, 70
10, 628512, Note_on_c, 8, 57, 0
10, 628800, Note_on_c, 8, 55, 70
10, 628992, Note_on_c, 8, 55, 0
10, 629280, Note_on_c, 8, 53, 70
10, 629472, Note_on_c, 8, 53, 0
10, 629760, Note_on_c, 8, 52, 70
10, 629952, Note_on_c, 8, 52, 0
10, 630240, Note_on_c, 8, 57, 70
10, 630432, Note_on_c, 8, 57, 0
10, 630720, Note_on_c, 8, 53, 70
10, 630912, Note_on_c, 8, 53, 0
10, 631200, Note_on_c, 8, 55, 70
10, 631392, Note_on_c, 8, 55, 0
10, 632160, Note_on_c, 8, 48, 70
10, 632352, Note_on_c, 8, 48, 0
10, 632640, Note_on_c, 8, 52, 70
10, 632832, Note_on_c, 8, 52, 0
10, 633120, Note_on_c, 8, 55, 70
10, 633312, Note_on_c, 8, 55, 0
10, 634080, Note_on_c, 8, 60, 70
10, 634560, Note_on_c, 8, 60, 0
10, 634560, Note_on_c, 8, 59, 70
10, 635040, Note_on_c, 8, 59, 0
10, 635040, Note_on_c, 8, 58, 70
10, 635520, Note_on_c, 8, 58, 0
10, 635520, Note_on_c, 8, 57, 70
10, 636000, Note_on_c, 8, 57, 0
10, 636000, Note_on_c, 8, 60, 70
10, 636480, Note_on_c, 8, 60, 0
10, 636480, Note_on_c, 8, 57, 70
10, 636960, Note_on_c, 8, 57, 0
10, 636960, Note_on_c, 8, 53, 70
10, 637440, Note_on_c, 8, 53, 0
10, 637440, Note_on_c, 8, 52, 70
10, 639360, Note_on_c, 8, 52, 0
10, 639360, Note_on_c, 8, 53, 70
10, 640320, Note_on_c, 8, 53, 0
10, 640320, Note_on_c, 8, 57, 70
10, 641280, Note_on_c, 8, 57, 0
10, 641280, Note_on_c, 8, 55, 70
10, 643200, Note_on_c, 8, 55, 0
10, 643200, Note_on_c, 8, 43, 70
10, 645120, Note_on_c, 8, 43, 0
10, 645120, Note_on_c, 8, 48, 70
10, 645600, Note_on_c, 8, 48, 0
10, 679680, Note_on_c, 8, 57, 70
10, 680160, Note_on_c, 8, 57, 0
10, 680640, Note_on_c, 8, 53, 70
10, 681120, Note_on_c, 8, 53, 0
10, 681600, Note_on_c, 8, 55, 80
10, 682080, Note_on_c, 8, 55, 0
10, 682560, Note_on_c, 8, 43, 80
10, 683040, Note_on_c, 8, 43, 0
10, 683520, Note_on_c, 8, 60, 90
10, 683760, Note_on_c, 8, 60, 0
10, 683760, Note_on_c, 8, 59, 105
10, 684000, Note_on_c, 8, 59, 0
10, 684000, Note_on_c, 8, 60, 105
10, 684240, Note_on_c, 8, 60, 0
10, 684240, Note_on_c, 8, 62, 105
10, 684480, Note_on_c, 8, 62, 0
10, 684480, Note_on_c, 8, 64, 105
10, 684720, Note_on_c, 8, 64, 0
10, 684720, Note_on_c, 8, 62, 105
10, 684960, Note_on_c, 8, 62, 0
10, 684960, Note_on_c, 8, 60, 105
10, 685200, Note_on_c, 8, 60, 0
10, 685200, Note_on_c, 8, 59, 105
10, 685440, Note_on_c, 8, 59, 0
10, 685440, Note_on_c, 8, 57, 105
10, 685680, Note_on_c, 8, 57, 0
10, 685680, Note_on_c, 8, 56, 105
10, 685920, Note_on_c, 8, 56, 0
10, 685920, Note_on_c, 8, 57, 105
10, 686160, Note_on_c, 8, 57, 0
10, 686160, Note_on_c, 8, 59, 105
10, 686400, Note_on_c, 8, 59, 0
10, 686400, Note_on_c, 8, 60, 105
10, 686640, Note_on_c, 8, 60, 0
10, 686640, Note_on_c, 8, 59, 105
10, 686880, Note_on_c, 8, 59, 0
10, 686880, Note_on_c, 8, 57, 105
10, 687120, Note_on_c, 8, 57, 0
10, 687120, Note_on_c, 8, 55, 105
10, 687360, Note_on_c, 8, 55, 0
10, 687360, Note_on_c, 8, 53, 105
10, 687840, Note_on_c, 8, 53, 0
10, 688320, Note_on_c, 8, 50, 105
10, 688800, Note_on_c, 8, 50, 0
10, 689280, Note_on_c, 8, 48, 105
10, 689760, Note_on_c, 8, 48, 0
10, 690240, Note_on_c, 8, 57, 105
10, 690720, Note_on_c, 8, 57, 0
10, 691200, Note_on_c, 8, 55, 105
10, 692160, Note_on_c, 8, 55, 0
10, 695040, Note_on_c, 8, 48, 90
10, 695280, Note_on_c, 8, 48, 0
10, 695280, Note_on_c, 8, 50, 90
10, 695520, Note_on_c, 8, 50, 0
10, 695520, Note_on_c, 8, 52, 90
10, 695760, Note_on_c, 8, 52, 0
10, 695760, Note_on_c, 8, 50, 105
10, 696000, Note_on_c, 8, 50, 0
10, 696000, Note_on_c, 8, 48, 105
10, 696240, Note_on_c, 8, 48, 0
10, 696240, Note_on_c, 8, 50, 105
10, 696480, Note_on_c, 8, 50, 0
10, 696480, Note_on_c, 8, 52, 105
10, 696720, Note_on_c, 8, 52, 0
10, 696720, Note_on_c, 8, 53, 105
10, 696960, Note_on_c, 8, 53, 0
10, 696960, Note_on_c, 8, 55, 105
10, 697200, Note_on_c, 8, 55, 0
10, 697200, Note_on_c, 8, 57, 105
10, 697440, Note_on_c, 8, 57, 0
10, 697440, Note_on_c, 8, 59, 105
10, 697680, Note_on_c, 8, 59, 0
10, 697680, Note_on_c, 8, 57, 105
10, 697920, Note_on_c, 8, 57, 0
10, 697920, Note_on_c, 8, 55, 105
10, 698160, Note_on_c, 8, 55, 0
10, 698160, Note_on_c, 8, 57, 105
10, 698400, Note_on_c, 8, 57, 0
10, 698400, Note_on_c, 8, 59, 105
10, 698640, Note_on_c, 8, 59, 0
10, 698640, Note_on_c, 8, 55, 105
10, 698880, Note_on_c, 8, 55, 0
10, 698880, Note_on_c, 8, 60, 105
10, 699120, Note_on_c, 8, 60, 0
10, 699120, Note_on_c, 8, 64, 105
10, 699360, Note_on_c, 8, 64, 0
10, 699360, Note_on_c, 8, 60, 105
10, 699600, Note_on_c, 8, 60, 0
10, 699600, Note_on_c, 8, 55, 105
10, 699840, Note_on_c, 8, 55, 0
10, 699840, Note_on_c, 8, 52, 105
10, 700080, Note_on_c, 8, 52, 0
10, 700080, Note_on_c, 8, 55, 105
10, 700320, Note_on_c, 8, 55, 0
10, 700320, Note_on_c, 8, 52, 105
10, 700560, Note_on_c, 8, 52, 0
10, 700560, Note_on_c, 8, 48, 105
10, 700800, Note_on_c, 8, 48, 0
10, 700800, Note_on_c, 8, 43, 105
10, 701040, Note_on_c, 8, 43, 0
10, 701040, Note_on_c, 8, 47, 105
10, 701280, Note_on_c, 8, 47, 0
10, 701280, Note_on_c, 8, 50, 105
10, 701520, Note_on_c, 8, 50, 0
10, 701520, Note_on_c, 8, 55, 105
10, 701760, Note_on_c, 8, 55, 0
10, 701760, Note_on_c, 8, 59, 105
10, 702000, Note_on_c, 8, 59, 0
10, 702000, Note_on_c, 8, 62, 105
10, 702240, Note_on_c, 8, 62, 0
10, 702240, Note_on_c, 8, 59, 105
10, 702480, Note_on_c, 8, 59, 0
10, 702480, Note_on_c, 8, 55, 105
10, 702720, Note_on_c, 8, 55, 0
10, 702720, Note_on_c, 8, 60, 105
10, 703200, Note_on_c, 8, 60, 0
10, 703560, Note_on_c, 8, 60, 105
10, 703680, Note_on_c, 8, 60, 0
10, 703680, Note_on_c, 8, 57, 105
10, 704160, Note_on_c, 8, 57, 0
10, 704520, Note_on_c, 8, 57, 105
10, 704640, Note_on_c, 8, 57, 0
10, 704640, Note_on_c, 8, 53, 105
10, 705120, Note_on_c, 8, 53, 0
10, 705480, Note_on_c, 8, 53, 105
10, 705600, Note_on_c, 8, 53, 0
10, 705600, Note_on_c, 8, 55, 105
10, 706080, Note_on_c, 8, 55, 0
10, 706440, Note_on_c, 8, 55, 105
10, 706560, Note_on_c, 8, 55, 0
10, 706560, Note_on_c, 8, 48, 105
10, 707520, Note_on_c, 8, 48, 0
10, 748320, Note_on_c, 8, 55, 105
10, 748800, Note_on_c, 8, 55, 0
10, 748800, Note_on_c, 8, 60, 105
10, 749760, Note_on_c, 8, 60, 0
10, 750240, Note_on_c, 8, 55, 105
10, 750720, Note_on_c, 8, 55, 0
10, 750720, Note_on_c, 8, 60, 105
10, 751680, Note_on_c, 8, 60, 0
10, 752160, Note_on_c, 8, 55, 105
10, 752640, Note_on_c, 8, 55, 0
10, 752640, Note_on_c, 8, 60, 105
10, 753600, Note_on_c, 8, 60, 0
10, 753600, Note_on_c, 8, 60, 105
10, 754560, Note_on_c, 8, 60, 0
10, 754560, Note_on_c, 8, 48, 105
10, 755520, Note_on_c, 8, 48, 0
10, 755520, End_track
11, 0, Start_track
11, 0, Title_t, "K. Bass"
11, 0, Control_c, 10, 0, 0
11, 0, Control_c, 10, 7, 70
11, 0, Control_c, 10, 10, 100
11, 0, Control_c, 10, 91, 94
11, 0, Control_c, 10, 93, 82
11, 1, Control_c, 10, 32, 1
11, 2, Program_c, 10, 48
11, 17280, Note_on_c, 10, 48, 70
11, 17652, Note_on_c, 10, 48, 0
11, 18240, Note_on_c, 10, 43, 70
11, 18644, Note_on_c, 10, 43, 0
11, 19200, Note_on_c, 10, 36, 70
11, 20036, Note_on_c, 10, 36, 0
11, 21120, Note_on_c, 10, 36, 70
11, 21964, Note_on_c, 10, 36, 0
11, 23040, Note_on_c, 10, 36, 70
11, 23924, Note_on_c, 10, 36, 0
11, 24960, Note_on_c, 10, 36, 70
11, 25920, Note_on_c, 10, 43, 70
11, 26028, Note_on_c, 10, 36, 0
11, 26772, Note_on_c, 10, 43, 0
11, 26880, Note_on_c, 10, 48, 70
11, 27840, Note_on_c, 10, 43, 70
11, 27924, Note_on_c, 10, 48, 0
11, 28700, Note_on_c, 10, 43, 0
11, 28800, Note_on_c, 10, 40, 70
11, 29760, Note_on_c, 10, 43, 70
11, 29844, Note_on_c, 10, 40, 0
11, 30644, Note_on_c, 10, 43, 0
11, 30720, Note_on_c, 10, 36, 105
11, 30908, Note_on_c, 10, 36, 0
11, 30960, Note_on_c, 10, 38, 105
11, 31148, Note_on_c, 10, 38, 0
11, 31200, Note_on_c, 10, 40, 105
11, 31388, Note_on_c, 10, 40, 0
11, 31440, Note_on_c, 10, 38, 105
11, 31628, Note_on_c, 10, 38, 0
11, 31680, Note_on_c, 10, 36, 105
11, 31868, Note_on_c, 10, 36, 0
11, 31920, Note_on_c, 10, 38, 105
11, 32108, Note_on_c, 10, 38, 0
11, 32160, Note_on_c, 10, 40, 105
11, 32348, Note_on_c, 10, 40, 0
11, 32400, Note_on_c, 10, 41, 105
11, 32588, Note_on_c, 10, 41, 0
11, 32640, Note_on_c, 10, 43, 105
11, 32828, Note_on_c, 10, 43, 0
11, 32880, Note_on_c, 10, 45, 105
11, 33068, Note_on_c, 10, 45, 0
11, 33120, Note_on_c, 10, 47, 105
11, 33308, Note_on_c, 10, 47, 0
11, 33360, Note_on_c, 10, 45, 105
11, 33548, Note_on_c, 10, 45, 0
11, 33600, Note_on_c, 10, 43, 105
11, 33788, Note_on_c, 10, 43, 0
11, 33840, Note_on_c, 10, 45, 105
11, 34028, Note_on_c, 10, 45, 0
11, 34080, Note_on_c, 10, 47, 105
11, 34268, Note_on_c, 10, 47, 0
11, 34320, Note_on_c, 10, 43, 105
11, 34508, Note_on_c, 10, 43, 0
11, 34560, Note_on_c, 10, 48, 105
11, 34748, Note_on_c, 10, 48, 0
11, 34800, Note_on_c, 10, 52, 105
11, 34988, Note_on_c, 10, 52, 0
11, 35040, Note_on_c, 10, 48, 105
11, 35228, Note_on_c, 10, 48, 0
11, 35280, Note_on_c, 10, 43, 105
11, 35468, Note_on_c, 10, 43, 0
11, 35520, Note_on_c, 10, 40, 105
11, 35708, Note_on_c, 10, 40, 0
11, 35760, Note_on_c, 10, 43, 105
11, 35948, Note_on_c, 10, 43, 0
11, 36000, Note_on_c, 10, 40, 105
11, 36188, Note_on_c, 10, 40, 0
11, 36240, Note_on_c, 10, 36, 105
11, 36428, Note_on_c, 10, 36, 0
11, 36480, Note_on_c, 10, 31, 105
11, 36668, Note_on_c, 10, 31, 0
11, 36720, Note_on_c, 10, 35, 105
11, 36908, Note_on_c, 10, 35, 0
11, 36960, Note_on_c, 10, 38, 105
11, 37148, Note_on_c, 10, 38, 0
11, 37200, Note_on_c, 10, 43, 105
11, 37388, Note_on_c, 10, 43, 0
11, 37440, Note_on_c, 10, 47, 105
11, 37628, Note_on_c, 10, 47, 0
11, 37680, Note_on_c, 10, 50, 105
11, 37868, Note_on_c, 10, 50, 0
11, 37920, Note_on_c, 10, 47, 105
11, 38108, Note_on_c, 10, 47, 0
11, 38160, Note_on_c, 10, 43, 105
11, 38348, Note_on_c, 10, 43, 0
11, 38400, Note_on_c, 10, 48, 105
11, 38788, Note_on_c, 10, 48, 0
11, 38880, Note_on_c, 10, 45, 105
11, 39700, Note_on_c, 10, 45, 0
11, 39840, Note_on_c, 10, 43, 80
11, 40032, Note_on_c, 10, 43, 0
11, 40320, Note_on_c, 10, 41, 70
11, 40512, Note_on_c, 10, 41, 0
11, 40800, Note_on_c, 10, 40, 70
11, 40992, Note_on_c, 10, 40, 0
11, 41280, Note_on_c, 10, 45, 70
11, 41472, Note_on_c, 10, 45, 0
11, 41760, Note_on_c, 10, 43, 70
11, 41952, Note_on_c, 10, 43, 0
11, 42240, Note_on_c, 10, 41, 70
11, 42620, Note_on_c, 10, 41, 0
11, 42720, Note_on_c, 10, 45, 105
11, 43596, Note_on_c, 10, 45, 0
11, 43680, Note_on_c, 10, 43, 80
11, 43872, Note_on_c, 10, 43, 0
11, 44160, Note_on_c, 10, 41, 70
11, 44352, Note_on_c, 10, 41, 0
11, 44640, Note_on_c, 10, 40, 70
11, 44832, Note_on_c, 10, 40, 0
11, 45120, Note_on_c, 10, 45, 70
11, 45312, Note_on_c, 10, 45, 0
11, 45600, Note_on_c, 10, 43, 70
11, 45792, Note_on_c, 10, 43, 0
11, 46080, Note_on_c, 10, 41, 70
11, 48000, Note_on_c, 10, 42, 70
11, 48068, Note_on_c, 10, 41, 0
11, 49812, Note_on_c, 10, 42, 0
11, 49920, Note_on_c, 10, 43, 70
11, 50348, Note_on_c, 10, 43, 0
11, 54240, Note_on_c, 10, 36, 70
11, 54432, Note_on_c, 10, 36, 0
11, 54720, Note_on_c, 10, 40, 70
11, 54912, Note_on_c, 10, 40, 0
11, 55200, Note_on_c, 10, 36, 70
11, 55392, Note_on_c, 10, 36, 0
11, 56160, Note_on_c, 10, 38, 70
11, 56352, Note_on_c, 10, 38, 0
11, 56640, Note_on_c, 10, 35, 70
11, 56832, Note_on_c, 10, 35, 0
11, 57120, Note_on_c, 10, 31, 70
11, 57312, Note_on_c, 10, 31, 0
11, 58080, Note_on_c, 10, 36, 70
11, 58272, Note_on_c, 10, 36, 0
11, 58560, Note_on_c, 10, 45, 70
11, 58752, Note_on_c, 10, 45, 0
11, 59040, Note_on_c, 10, 41, 70
11, 59232, Note_on_c, 10, 41, 0
11, 60000, Note_on_c, 10, 43, 70
11, 60192, Note_on_c, 10, 43, 0
11, 60480, Note_on_c, 10, 31, 70
11, 60672, Note_on_c, 10, 31, 0
11, 60960, Note_on_c, 10, 41, 70
11, 61152, Note_on_c, 10, 41, 0
11, 61920, Note_on_c, 10, 40, 70
11, 62112, Note_on_c, 10, 40, 0
11, 62400, Note_on_c, 10, 38, 70
11, 62592, Note_on_c, 10, 38, 0
11, 62880, Note_on_c, 10, 36, 70
11, 63072, Note_on_c, 10, 36, 0
11, 63840, Note_on_c, 10, 45, 70
11, 64032, Note_on_c, 10, 45, 0
11, 64320, Note_on_c, 10, 43, 70
11, 64512, Note_on_c, 10, 43, 0
11, 64800, Note_on_c, 10, 41, 70
11, 64992, Note_on_c, 10, 41, 0
11, 65280, Note_on_c, 10, 40, 70
11, 65508, Note_on_c, 10, 40, 0
11, 65760, Note_on_c, 10, 45, 70
11, 65932, Note_on_c, 10, 45, 0
11, 66240, Note_on_c, 10, 41, 70
11, 66476, Note_on_c, 10, 41, 0
11, 66720, Note_on_c, 10, 43, 70
11, 66908, Note_on_c, 10, 43, 0
11, 67680, Note_on_c, 10, 36, 70
11, 67900, Note_on_c, 10, 36, 0
11, 68160, Note_on_c, 10, 40, 70
11, 68388, Note_on_c, 10, 40, 0
11, 68640, Note_on_c, 10, 43, 70
11, 68836, Note_on_c, 10, 43, 0
11, 69600, Note_on_c, 10, 48, 70
11, 70080, Note_on_c, 10, 47, 70
11, 70196, Note_on_c, 10, 48, 0
11, 70560, Note_on_c, 10, 46, 70
11, 70660, Note_on_c, 10, 47, 0
11, 71040, Note_on_c, 10, 45, 70
11, 71148, Note_on_c, 10, 46, 0
11, 71372, Note_on_c, 10, 45, 0
11, 71520, Note_on_c, 10, 48, 70
11, 71964, Note_on_c, 10, 48, 0
11, 72000, Note_on_c, 10, 45, 70
11, 72428, Note_on_c, 10, 45, 0
11, 72480, Note_on_c, 10, 41, 70
11, 72892, Note_on_c, 10, 41, 0
11, 72960, Note_on_c, 10, 40, 70
11, 74796, Note_on_c, 10, 40, 0
11, 74880, Note_on_c, 10, 41, 70
11, 75840, Note_on_c, 10, 45, 70
11, 75908, Note_on_c, 10, 41, 0
11, 76708, Note_on_c, 10, 45, 0
11, 76800, Note_on_c, 10, 43, 70
11, 78644, Note_on_c, 10, 43, 0
11, 78720, Note_on_c, 10, 31, 70
11, 80556, Note_on_c, 10, 31, 0
11, 80640, Note_on_c, 10, 36, 70
11, 80988, Note_on_c, 10, 36, 0
11, 81120, Note_on_c, 10, 36, 105
11, 81216, Note_on_c, 10, 36, 0
11, 81360, Note_on_c, 10, 36, 105
11, 81456, Note_on_c, 10, 36, 0
11, 81600, Note_on_c, 10, 35, 105
11, 81840, Note_on_c, 10, 38, 105
11, 81908, Note_on_c, 10, 35, 0
11, 81964, Note_on_c, 10, 38, 0
11, 82080, Note_on_c, 10, 41, 105
11, 82176, Note_on_c, 10, 41, 0
11, 82320, Note_on_c, 10, 41, 105
11, 82416, Note_on_c, 10, 41, 0
11, 82560, Note_on_c, 10, 40, 105
11, 82800, Note_on_c, 10, 43, 105
11, 82836, Note_on_c, 10, 40, 0
11, 82964, Note_on_c, 10, 43, 0
11, 83040, Note_on_c, 10, 48, 105
11, 83136, Note_on_c, 10, 48, 0
11, 83280, Note_on_c, 10, 48, 105
11, 83376, Note_on_c, 10, 48, 0
11, 83520, Note_on_c, 10, 47, 105
11, 83900, Note_on_c, 10, 47, 0
11, 84000, Note_on_c, 10, 43, 105
11, 84180, Note_on_c, 10, 43, 0
11, 84240, Note_on_c, 10, 43, 105
11, 84428, Note_on_c, 10, 43, 0
11, 84480, Note_on_c, 10, 48, 105
11, 84852, Note_on_c, 10, 48, 0
11, 84960, Note_on_c, 10, 43, 105
11, 85116, Note_on_c, 10, 43, 0
11, 85200, Note_on_c, 10, 43, 105
11, 85364, Note_on_c, 10, 43, 0
11, 85440, Note_on_c, 10, 50, 105
11, 85788, Note_on_c, 10, 50, 0
11, 85920, Note_on_c, 10, 43, 105
11, 86100, Note_on_c, 10, 43, 0
11, 86160, Note_on_c, 10, 43, 105
11, 86332, Note_on_c, 10, 43, 0
11, 86400, Note_on_c, 10, 52, 105
11, 86756, Note_on_c, 10, 52, 0
11, 86880, Note_on_c, 10, 43, 105
11, 87044, Note_on_c, 10, 43, 0
11, 87120, Note_on_c, 10, 43, 105
11, 87276, Note_on_c, 10, 43, 0
11, 87360, Note_on_c, 10, 47, 105
11, 87732, Note_on_c, 10, 47, 0
11, 87840, Note_on_c, 10, 43, 105
11, 87996, Note_on_c, 10, 43, 0
11, 88080, Note_on_c, 10, 43, 105
11, 88228, Note_on_c, 10, 43, 0
11, 88320, Note_on_c, 10, 48, 105
11, 88684, Note_on_c, 10, 48, 0
11, 88800, Note_on_c, 10, 43, 105
11, 88900, Note_on_c, 10, 43, 0
11, 89040, Note_on_c, 10, 43, 105
11, 89148, Note_on_c, 10, 43, 0
11, 89280, Note_on_c, 10, 50, 105
11, 89628, Note_on_c, 10, 50, 0
11, 89760, Note_on_c, 10, 43, 105
11, 89900, Note_on_c, 10, 43, 0
11, 90000, Note_on_c, 10, 43, 105
11, 90156, Note_on_c, 10, 43, 0
11, 90240, Note_on_c, 10, 52, 105
11, 90596, Note_on_c, 10, 52, 0
11, 90720, Note_on_c, 10, 43, 105
11, 90892, Note_on_c, 10, 43, 0
11, 90960, Note_on_c, 10, 43, 105
11, 91140, Note_on_c, 10, 43, 0
11, 91200, Note_on_c, 10, 47, 105
11, 91548, Note_on_c, 10, 47, 0
11, 91680, Note_on_c, 10, 43, 105
11, 91844, Note_on_c, 10, 43, 0
11, 91920, Note_on_c, 10, 43, 105
11, 92076, Note_on_c, 10, 43, 0
11, 92160, Note_on_c, 10, 48, 105
11, 92640, Note_on_c, 10, 48, 0
11, 93000, Note_on_c, 10, 48, 105
11, 93120, Note_on_c, 10, 45, 118
11, 93204, Note_on_c, 10, 48, 0
11, 93600, Note_on_c, 10, 45, 0
11, 93960, Note_on_c, 10, 45, 105
11, 94080, Note_on_c, 10, 41, 119
11, 94164, Note_on_c, 10, 45, 0
11, 94560, Note_on_c, 10, 41, 0
11, 94920, Note_on_c, 10, 41, 105
11, 95040, Note_on_c, 10, 43, 119
11, 95092, Note_on_c, 10, 41, 0
11, 95520, Note_on_c, 10, 43, 0
11, 95880, Note_on_c, 10, 43, 105
11, 96000, Note_on_c, 10, 36, 117
11, 96084, Note_on_c, 10, 43, 0
11, 96828, Note_on_c, 10, 36, 0
11, 96960, Note_on_c, 10, 36, 120
11, 97200, Note_on_c, 10, 31, 105
11, 97268, Note_on_c, 10, 36, 0
11, 97340, Note_on_c, 10, 31, 0
11, 97440, Note_on_c, 10, 40, 105
11, 97536, Note_on_c, 10, 40, 0
11, 97680, Note_on_c, 10, 40, 105
11, 97776, Note_on_c, 10, 40, 0
11, 97920, Note_on_c, 10, 40, 117
11, 98160, Note_on_c, 10, 36, 105
11, 98204, Note_on_c, 10, 40, 0
11, 98292, Note_on_c, 10, 36, 0
11, 98400, Note_on_c, 10, 43, 105
11, 98496, Note_on_c, 10, 43, 0
11, 98640, Note_on_c, 10, 43, 105
11, 98736, Note_on_c, 10, 43, 0
11, 98880, Note_on_c, 10, 43, 121
11, 99120, Note_on_c, 10, 40, 105
11, 99188, Note_on_c, 10, 43, 0
11, 99276, Note_on_c, 10, 40, 0
11, 99360, Note_on_c, 10, 48, 105
11, 99456, Note_on_c, 10, 48, 0
11, 99600, Note_on_c, 10, 48, 105
11, 99696, Note_on_c, 10, 48, 0
11, 99840, Note_on_c, 10, 48, 119
11, 100556, Note_on_c, 10, 48, 0
11, 103680, Program_c, 10, 45
11, 105120, Note_on_c, 10, 43, 117
11, 105380, Note_on_c, 10, 43, 0
11, 105600, Note_on_c, 10, 48, 117
11, 105844, Note_on_c, 10, 48, 0
11, 107040, Note_on_c, 10, 43, 117
11, 107284, Note_on_c, 10, 43, 0
11, 107520, Note_on_c, 10, 48, 117
11, 107820, Note_on_c, 10, 48, 0
11, 108960, Note_on_c, 10, 43, 117
11, 109212, Note_on_c, 10, 43, 0
11, 109440, Note_on_c, 10, 48, 117
11, 109740, Note_on_c, 10, 48, 0
11, 109920, Note_on_c, 10, 43, 117
11, 110172, Note_on_c, 10, 43, 0
11, 110400, Note_on_c, 10, 36, 117
11, 110628, Note_on_c, 10, 36, 0
11, 113280, Program_c, 10, 42
11, 145920, Note_on_c, 10, 48, 105
11, 146136, Note_on_c, 10, 48, 0
11, 146160, Note_on_c, 10, 52, 105
11, 146376, Note_on_c, 10, 52, 0
11, 146400, Note_on_c, 10, 50, 105
11, 146616, Note_on_c, 10, 50, 0
11, 146640, Note_on_c, 10, 48, 105
11, 146856, Note_on_c, 10, 48, 0
11, 146880, Note_on_c, 10, 47, 105
11, 147096, Note_on_c, 10, 47, 0
11, 147120, Note_on_c, 10, 45, 105
11, 147336, Note_on_c, 10, 45, 0
11, 147360, Note_on_c, 10, 43, 105
11, 147576, Note_on_c, 10, 43, 0
11, 147600, Note_on_c, 10, 41, 105
11, 147816, Note_on_c, 10, 41, 0
11, 147840, Note_on_c, 10, 36, 105
11, 148056, Note_on_c, 10, 36, 0
11, 148080, Note_on_c, 10, 48, 105
11, 148296, Note_on_c, 10, 48, 0
11, 148320, Note_on_c, 10, 47, 105
11, 148536, Note_on_c, 10, 47, 0
11, 148560, Note_on_c, 10, 45, 105
11, 148776, Note_on_c, 10, 45, 0
11, 148800, Note_on_c, 10, 43, 105
11, 149016, Note_on_c, 10, 43, 0
11, 149040, Note_on_c, 10, 41, 105
11, 149256, Note_on_c, 10, 41, 0
11, 149280, Note_on_c, 10, 40, 105
11, 149496, Note_on_c, 10, 40, 0
11, 149520, Note_on_c, 10, 38, 105
11, 149736, Note_on_c, 10, 38, 0
11, 149760, Note_on_c, 10, 36, 105
11, 150240, Note_on_c, 10, 36, 0
11, 201600, Note_on_c, 10, 40, 90
11, 202560, Note_on_c, 10, 40, 0
11, 203520, Note_on_c, 10, 38, 90
11, 204480, Note_on_c, 10, 38, 0
11, 205440, Note_on_c, 10, 40, 90
11, 206400, Note_on_c, 10, 40, 0
11, 207360, Note_on_c, 10, 38, 70
11, 207840, Note_on_c, 10, 38, 0
11, 211200, Note_on_c, 10, 50, 105
11, 211440, Note_on_c, 10, 50, 0
11, 211440, Note_on_c, 10, 49, 105
11, 211680, Note_on_c, 10, 49, 0
11, 211680, Note_on_c, 10, 50, 105
11, 211920, Note_on_c, 10, 50, 0
11, 211920, Note_on_c, 10, 52, 105
11, 212160, Note_on_c, 10, 52, 0
11, 212160, Note_on_c, 10, 48, 105
11, 212400, Note_on_c, 10, 48, 0
11, 212400, Note_on_c, 10, 47, 105
11, 212640, Note_on_c, 10, 47, 0
11, 212640, Note_on_c, 10, 48, 105
11, 212880, Note_on_c, 10, 48, 0
11, 212880, Note_on_c, 10, 50, 105
11, 213120, Note_on_c, 10, 50, 0
11, 213120, Note_on_c, 10, 47, 105
11, 213360, Note_on_c, 10, 47, 0
11, 213360, Note_on_c, 10, 46, 105
11, 213600, Note_on_c, 10, 46, 0
11, 213600, Note_on_c, 10, 47, 105
11, 213840, Note_on_c, 10, 47, 0
11, 213840, Note_on_c, 10, 48, 105
11, 214080, Note_on_c, 10, 48, 0
11, 214080, Note_on_c, 10, 45, 105
11, 214320, Note_on_c, 10, 45, 0
11, 214320, Note_on_c, 10, 44, 105
11, 214560, Note_on_c, 10, 44, 0
11, 214560, Note_on_c, 10, 45, 105
11, 214800, Note_on_c, 10, 45, 0
11, 214800, Note_on_c, 10, 47, 105
11, 215040, Note_on_c, 10, 47, 0
11, 215040, Note_on_c, 10, 43, 105
11, 215520, Note_on_c, 10, 43, 0
11, 216960, Note_on_c, 10, 38, 70
11, 217920, Note_on_c, 10, 38, 0
11, 217920, Note_on_c, 10, 43, 70
11, 218400, Note_on_c, 10, 43, 0
11, 218880, Note_on_c, 10, 38, 70
11, 219840, Note_on_c, 10, 38, 0
11, 219840, Note_on_c, 10, 43, 70
11, 220320, Note_on_c, 10, 43, 0
11, 220320, Note_on_c, 10, 52, 70
11, 220800, Note_on_c, 10, 52, 0
11, 220800, Note_on_c, 10, 50, 70
11, 221760, Note_on_c, 10, 50, 0
11, 222720, Note_on_c, 10, 38, 70
11, 223200, Note_on_c, 10, 38, 0
11, 224640, Note_on_c, 10, 43, 70
11, 225600, Note_on_c, 10, 43, 0
11, 225600, Note_on_c, 10, 42, 70
11, 226080, Note_on_c, 10, 42, 0
11, 226560, Note_on_c, 10, 43, 70
11, 227520, Note_on_c, 10, 43, 0
11, 227520, Note_on_c, 10, 42, 70
11, 228000, Note_on_c, 10, 42, 0
11, 228000, Note_on_c, 10, 38, 70
11, 228480, Note_on_c, 10, 38, 0
11, 228480, Note_on_c, 10, 43, 70
11, 229440, Note_on_c, 10, 43, 0
11, 261120, Note_on_c, 10, 31, 70
11, 262080, Note_on_c, 10, 31, 0
11, 262560, Note_on_c, 10, 35, 70
11, 263040, Note_on_c, 10, 35, 0
11, 263040, Note_on_c, 10, 36, 70
11, 263520, Note_on_c, 10, 36, 0
11, 263520, Note_on_c, 10, 40, 70
11, 264000, Note_on_c, 10, 40, 0
11, 264000, Note_on_c, 10, 45, 70
11, 264480, Note_on_c, 10, 45, 0
11, 264480, Note_on_c, 10, 48, 70
11, 264960, Note_on_c, 10, 48, 0
11, 264960, Note_on_c, 10, 35, 70
11, 265440, Note_on_c, 10, 35, 0
11, 265440, Note_on_c, 10, 38, 70
11, 265920, Note_on_c, 10, 38, 0
11, 265920, Note_on_c, 10, 43, 70
11, 266400, Note_on_c, 10, 43, 0
11, 266400, Note_on_c, 10, 47, 70
11, 266880, Note_on_c, 10, 47, 0
11, 266880, Note_on_c, 10, 33, 70
11, 267360, Note_on_c, 10, 33, 0
11, 267360, Note_on_c, 10, 36, 70
11, 267840, Note_on_c, 10, 36, 0
11, 267840, Note_on_c, 10, 42, 70
11, 268320, Note_on_c, 10, 42, 0
11, 268320, Note_on_c, 10, 45, 70
11, 268800, Note_on_c, 10, 45, 0
11, 268800, Note_on_c, 10, 43, 70
11, 269280, Note_on_c, 10, 43, 0
11, 305280, Note_on_c, 10, 43, 70
11, 310560, Note_on_c, 10, 43, 0
11, 310560, Note_on_c, 10, 47, 70
11, 311040, Note_on_c, 10, 47, 0
11, 311040, Note_on_c, 10, 50, 70
11, 312000, Note_on_c, 10, 50, 0
11, 312000, Note_on_c, 10, 38, 70
11, 312960, Note_on_c, 10, 38, 0
11, 312960, Note_on_c, 10, 43, 70
11, 313920, Note_on_c, 10, 43, 0
11, 314400, Note_on_c, 10, 38, 70
11, 314880, Note_on_c, 10, 38, 0
11, 314880, Note_on_c, 10, 43, 70
11, 315360, Note_on_c, 10, 43, 0
11, 315360, Note_on_c, 10, 38, 70
11, 315840, Note_on_c, 10, 38, 0
11, 315840, Note_on_c, 10, 43, 70
11, 316320, Note_on_c, 10, 43, 0
11, 316320, Note_on_c, 10, 38, 70
11, 316800, Note_on_c, 10, 38, 0
11, 316800, Note_on_c, 10, 43, 70
11, 317280, Note_on_c, 10, 43, 0
11, 317760, Note_on_c, 10, 43, 70
11, 318240, Note_on_c, 10, 43, 0
11, 318240, Note_on_c, 10, 47, 70
11, 318720, Note_on_c, 10, 47, 0
11, 318720, Note_on_c, 10, 50, 70
11, 319200, Note_on_c, 10, 50, 0
11, 319680, Note_on_c, 10, 38, 70
11, 320160, Note_on_c, 10, 38, 0
11, 320640, Note_on_c, 10, 43, 70
11, 321120, Note_on_c, 10, 43, 0
11, 325440, Note_on_c, 10, 42, 70
11, 326400, Note_on_c, 10, 42, 0
11, 326400, Note_on_c, 10, 43, 70
11, 327360, Note_on_c, 10, 43, 0
11, 327360, Note_on_c, 10, 38, 70
11, 328320, Note_on_c, 10, 38, 0
11, 328320, Note_on_c, 10, 31, 70
11, 329280, Note_on_c, 10, 31, 0
11, 329280, Note_on_c, 10, 42, 70
11, 330240, Note_on_c, 10, 42, 0
11, 330240, Note_on_c, 10, 43, 70
11, 331200, Note_on_c, 10, 43, 0
11, 331200, Note_on_c, 10, 38, 70
11, 332160, Note_on_c, 10, 38, 0
11, 332160, Note_on_c, 10, 31, 70
11, 332640, Note_on_c, 10, 31, 0
11, 339840, Note_on_c, 10, 31, 70
11, 346560, Note_on_c, 10, 31, 0
11, 364800, Note_on_c, 10, 48, 105
11, 365280, Note_on_c, 10, 48, 0
11, 365760, Note_on_c, 10, 43, 105
11, 366240, Note_on_c, 10, 43, 0
11, 366720, Note_on_c, 10, 36, 105
11, 367680, Note_on_c, 10, 36, 0
11, 368640, Note_on_c, 10, 36, 105
11, 369600, Note_on_c, 10, 36, 0
11, 370560, Note_on_c, 10, 36, 105
11, 371520, Note_on_c, 10, 36, 0
11, 372480, Note_on_c, 10, 40, 105
11, 373440, Note_on_c, 10, 40, 0
11, 373440, Note_on_c, 10, 43, 105
11, 374400, Note_on_c, 10, 43, 0
11, 374400, Note_on_c, 10, 48, 105
11, 375360, Note_on_c, 10, 48, 0
11, 375360, Note_on_c, 10, 43, 105
11, 376320, Note_on_c, 10, 43, 0
11, 376320, Note_on_c, 10, 40, 105
11, 376800, Note_on_c, 10, 40, 0
11, 376800, Note_on_c, 10, 36, 105
11, 377280, Note_on_c, 10, 36, 0
11, 377280, Note_on_c, 10, 43, 105
11, 377760, Note_on_c, 10, 43, 0
11, 377760, Note_on_c, 10, 31, 105
11, 378240, Note_on_c, 10, 31, 0
11, 378240, Note_on_c, 10, 36, 105
11, 378720, Note_on_c, 10, 36, 0
11, 378720, Note_on_c, 10, 36, 105
11, 378816, Note_on_c, 10, 36, 0
11, 378960, Note_on_c, 10, 36, 105
11, 379056, Note_on_c, 10, 36, 0
11, 379200, Note_on_c, 10, 35, 105
11, 379440, Note_on_c, 10, 35, 0
11, 379440, Note_on_c, 10, 38, 105
11, 379680, Note_on_c, 10, 38, 0
11, 379680, Note_on_c, 10, 41, 105
11, 379776, Note_on_c, 10, 41, 0
11, 379920, Note_on_c, 10, 41, 105
11, 380016, Note_on_c, 10, 41, 0
11, 380160, Note_on_c, 10, 40, 105
11, 380400, Note_on_c, 10, 40, 0
11, 380400, Note_on_c, 10, 43, 105
11, 380640, Note_on_c, 10, 43, 0
11, 380640, Note_on_c, 10, 48, 105
11, 380736, Note_on_c, 10, 48, 0
11, 380880, Note_on_c, 10, 48, 105
11, 380976, Note_on_c, 10, 48, 0
11, 381120, Note_on_c, 10, 47, 105
11, 381600, Note_on_c, 10, 47, 0
11, 381600, Note_on_c, 10, 43, 105
11, 381840, Note_on_c, 10, 43, 0
11, 381840, Note_on_c, 10, 43, 105
11, 382080, Note_on_c, 10, 43, 0
11, 382080, Note_on_c, 10, 48, 105
11, 382560, Note_on_c, 10, 48, 0
11, 382560, Note_on_c, 10, 43, 105
11, 382800, Note_on_c, 10, 43, 0
11, 382800, Note_on_c, 10, 43, 105
11, 383040, Note_on_c, 10, 43, 0
11, 383040, Note_on_c, 10, 50, 105
11, 383520, Note_on_c, 10, 50, 0
11, 383520, Note_on_c, 10, 43, 105
11, 383760, Note_on_c, 10, 43, 0
11, 383760, Note_on_c, 10, 43, 105
11, 384000, Note_on_c, 10, 43, 0
11, 384000, Note_on_c, 10, 52, 105
11, 384480, Note_on_c, 10, 52, 0
11, 384480, Note_on_c, 10, 43, 105
11, 384720, Note_on_c, 10, 43, 0
11, 384720, Note_on_c, 10, 43, 105
11, 384960, Note_on_c, 10, 43, 0
11, 384960, Note_on_c, 10, 47, 105
11, 385440, Note_on_c, 10, 47, 0
11, 385440, Note_on_c, 10, 43, 105
11, 385680, Note_on_c, 10, 43, 0
11, 385680, Note_on_c, 10, 43, 105
11, 385920, Note_on_c, 10, 43, 0
11, 385920, Note_on_c, 10, 48, 105
11, 386400, Note_on_c, 10, 48, 0
11, 386400, Note_on_c, 10, 43, 105
11, 386640, Note_on_c, 10, 43, 0
11, 386640, Note_on_c, 10, 43, 105
11, 386880, Note_on_c, 10, 43, 0
11, 386880, Note_on_c, 10, 50, 105
11, 387360, Note_on_c, 10, 50, 0
11, 387360, Note_on_c, 10, 43, 105
11, 387600, Note_on_c, 10, 43, 0
11, 387600, Note_on_c, 10, 43, 105
11, 387840, Note_on_c, 10, 43, 0
11, 387840, Note_on_c, 10, 52, 105
11, 388320, Note_on_c, 10, 52, 0
11, 388320, Note_on_c, 10, 43, 105
11, 388560, Note_on_c, 10, 43, 0
11, 388560, Note_on_c, 10, 43, 105
11, 388800, Note_on_c, 10, 43, 0
11, 388800, Note_on_c, 10, 44, 105
11, 389280, Note_on_c, 10, 44, 0
11, 389280, Note_on_c, 10, 40, 105
11, 389520, Note_on_c, 10, 40, 0
11, 389520, Note_on_c, 10, 40, 105
11, 389760, Note_on_c, 10, 40, 0
11, 389760, Note_on_c, 10, 45, 105
11, 390240, Note_on_c, 10, 45, 0
11, 390240, Note_on_c, 10, 40, 105
11, 390480, Note_on_c, 10, 40, 0
11, 390480, Note_on_c, 10, 40, 105
11, 390720, Note_on_c, 10, 40, 0
11, 390720, Note_on_c, 10, 47, 105
11, 391200, Note_on_c, 10, 47, 0
11, 391200, Note_on_c, 10, 40, 105
11, 391440, Note_on_c, 10, 40, 0
11, 391440, Note_on_c, 10, 40, 105
11, 391680, Note_on_c, 10, 40, 0
11, 391680, Note_on_c, 10, 48, 105
11, 392160, Note_on_c, 10, 48, 0
11, 392160, Note_on_c, 10, 36, 105
11, 392400, Note_on_c, 10, 36, 0
11, 392400, Note_on_c, 10, 36, 105
11, 392640, Note_on_c, 10, 36, 0
11, 392640, Note_on_c, 10, 40, 105
11, 393120, Note_on_c, 10, 40, 0
11, 393120, Note_on_c, 10, 36, 105
11, 393360, Note_on_c, 10, 36, 0
11, 393360, Note_on_c, 10, 36, 105
11, 393600, Note_on_c, 10, 36, 0
11, 393600, Note_on_c, 10, 41, 105
11, 394080, Note_on_c, 10, 41, 0
11, 394080, Note_on_c, 10, 36, 105
11, 394320, Note_on_c, 10, 36, 0
11, 394320, Note_on_c, 10, 36, 105
11, 394560, Note_on_c, 10, 36, 0
11, 394560, Note_on_c, 10, 43, 105
11, 395040, Note_on_c, 10, 43, 0
11, 395040, Note_on_c, 10, 36, 105
11, 395280, Note_on_c, 10, 36, 0
11, 395280, Note_on_c, 10, 36, 105
11, 395520, Note_on_c, 10, 36, 0
11, 395520, Note_on_c, 10, 45, 105
11, 396000, Note_on_c, 10, 45, 0
11, 396000, Note_on_c, 10, 36, 105
11, 396240, Note_on_c, 10, 36, 0
11, 396240, Note_on_c, 10, 36, 105
11, 396480, Note_on_c, 10, 36, 0
11, 396480, Note_on_c, 10, 40, 105
11, 396960, Note_on_c, 10, 40, 0
11, 396960, Note_on_c, 10, 36, 105
11, 397200, Note_on_c, 10, 36, 0
11, 397200, Note_on_c, 10, 36, 105
11, 397440, Note_on_c, 10, 36, 0
11, 397440, Note_on_c, 10, 41, 105
11, 397920, Note_on_c, 10, 41, 0
11, 412800, Note_on_c, 10, 41, 70
11, 412992, Note_on_c, 10, 41, 0
11, 413280, Note_on_c, 10, 41, 70
11, 413472, Note_on_c, 10, 41, 0
11, 413760, Note_on_c, 10, 41, 70
11, 413952, Note_on_c, 10, 41, 0
11, 414240, Note_on_c, 10, 41, 70
11, 414432, Note_on_c, 10, 41, 0
11, 414720, Note_on_c, 10, 41, 70
11, 414912, Note_on_c, 10, 41, 0
11, 415200, Note_on_c, 10, 41, 70
11, 415392, Note_on_c, 10, 41, 0
11, 415680, Note_on_c, 10, 41, 70
11, 415872, Note_on_c, 10, 41, 0
11, 416160, Note_on_c, 10, 41, 70
11, 416352, Note_on_c, 10, 41, 0
11, 416640, Note_on_c, 10, 41, 70
11, 416832, Note_on_c, 10, 41, 0
11, 417120, Note_on_c, 10, 41, 70
11, 417312, Note_on_c, 10, 41, 0
11, 417600, Note_on_c, 10, 41, 70
11, 417792, Note_on_c, 10, 41, 0
11, 418080, Note_on_c, 10, 41, 70
11, 418272, Note_on_c, 10, 41, 0
11, 418560, Note_on_c, 10, 41, 70
11, 418752, Note_on_c, 10, 41, 0
11, 419040, Note_on_c, 10, 41, 70
11, 419232, Note_on_c, 10, 41, 0
11, 419520, Note_on_c, 10, 41, 70
11, 420480, Note_on_c, 10, 41, 0
11, 472320, Note_on_c, 10, 48, 70
11, 472800, Note_on_c, 10, 48, 0
11, 473280, Note_on_c, 10, 43, 70
11, 473760, Note_on_c, 10, 43, 0
11, 474240, Note_on_c, 10, 36, 70
11, 474720, Note_on_c, 10, 36, 0
11, 476160, Note_on_c, 10, 43, 70
11, 476640, Note_on_c, 10, 43, 0
11, 477120, Note_on_c, 10, 36, 70
11, 477600, Note_on_c, 10, 36, 0
11, 478080, Note_on_c, 10, 31, 70
11, 478560, Note_on_c, 10, 31, 0
11, 493440, Note_on_c, 10, 43, 70
11, 493920, Note_on_c, 10, 43, 0
11, 495360, Note_on_c, 10, 43, 70
11, 495840, Note_on_c, 10, 43, 0
11, 497280, Note_on_c, 10, 43, 70
11, 501120, Note_on_c, 10, 43, 0
11, 501120, Note_on_c, 10, 36, 70
11, 501600, Note_on_c, 10, 36, 0
11, 529920, Note_on_c, 10, 45, 90
11, 530880, Note_on_c, 10, 45, 0
11, 531840, Note_on_c, 10, 43, 90
11, 532800, Note_on_c, 10, 43, 0
11, 533760, Note_on_c, 10, 45, 90
11, 534720, Note_on_c, 10, 45, 0
11, 535680, Note_on_c, 10, 43, 70
11, 536160, Note_on_c, 10, 43, 0
11, 539520, Note_on_c, 10, 43, 90
11, 539760, Note_on_c, 10, 43, 0
11, 539760, Note_on_c, 10, 42, 90
11, 540000, Note_on_c, 10, 42, 0
11, 540000, Note_on_c, 10, 43, 90
11, 540240, Note_on_c, 10, 43, 0
11, 540240, Note_on_c, 10, 45, 90
11, 540480, Note_on_c, 10, 45, 0
11, 540480, Note_on_c, 10, 41, 90
11, 540720, Note_on_c, 10, 41, 0
11, 540720, Note_on_c, 10, 40, 90
11, 540960, Note_on_c, 10, 40, 0
11, 540960, Note_on_c, 10, 41, 90
11, 541200, Note_on_c, 10, 41, 0
11, 541200, Note_on_c, 10, 43, 90
11, 541440, Note_on_c, 10, 43, 0
11, 541440, Note_on_c, 10, 40, 90
11, 541680, Note_on_c, 10, 40, 0
11, 541680, Note_on_c, 10, 39, 90
11, 541920, Note_on_c, 10, 39, 0
11, 541920, Note_on_c, 10, 40, 90
11, 542160, Note_on_c, 10, 40, 0
11, 542160, Note_on_c, 10, 41, 90
11, 542400, Note_on_c, 10, 41, 0
11, 542400, Note_on_c, 10, 38, 90
11, 542640, Note_on_c, 10, 38, 0
11, 542640, Note_on_c, 10, 37, 90
11, 542880, Note_on_c, 10, 37, 0
11, 542880, Note_on_c, 10, 38, 90
11, 543120, Note_on_c, 10, 38, 0
11, 543120, Note_on_c, 10, 40, 90
11, 543360, Note_on_c, 10, 40, 0
11, 543360, Note_on_c, 10, 36, 90
11, 543840, Note_on_c, 10, 36, 0
11, 545280, Note_on_c, 10, 31, 70
11, 546240, Note_on_c, 10, 31, 0
11, 546240, Note_on_c, 10, 36, 70
11, 546720, Note_on_c, 10, 36, 0
11, 547200, Note_on_c, 10, 31, 70
11, 548160, Note_on_c, 10, 31, 0
11, 548160, Note_on_c, 10, 36, 70
11, 548640, Note_on_c, 10, 36, 0
11, 548640, Note_on_c, 10, 45, 70
11, 549120, Note_on_c, 10, 45, 0
11, 549120, Note_on_c, 10, 43, 70
11, 550080, Note_on_c, 10, 43, 0
11, 551040, Note_on_c, 10, 31, 70
11, 551520, Note_on_c, 10, 31, 0
11, 552960, Note_on_c, 10, 36, 70
11, 553920, Note_on_c, 10, 36, 0
11, 553920, Note_on_c, 10, 35, 70
11, 554400, Note_on_c, 10, 35, 0
11, 554880, Note_on_c, 10, 36, 70
11, 555840, Note_on_c, 10, 36, 0
11, 555840, Note_on_c, 10, 35, 70
11, 556320, Note_on_c, 10, 35, 0
11, 556320, Note_on_c, 10, 31, 70
11, 556800, Note_on_c, 10, 31, 0
11, 556800, Note_on_c, 10, 36, 70
11, 557760, Note_on_c, 10, 36, 0
11, 576000, Note_on_c, 10, 31, 70
11, 576960, Note_on_c, 10, 31, 0
11, 576960, Note_on_c, 10, 36, 70
11, 577440, Note_on_c, 10, 36, 0
11, 577920, Note_on_c, 10, 31, 70
11, 578880, Note_on_c, 10, 31, 0
11, 578880, Note_on_c, 10, 36, 70
11, 579360, Note_on_c, 10, 36, 0
11, 579360, Note_on_c, 10, 35, 70
11, 579840, Note_on_c, 10, 35, 0
11, 579840, Note_on_c, 10, 36, 70
11, 580320, Note_on_c, 10, 36, 0
11, 580320, Note_on_c, 10, 40, 70
11, 580800, Note_on_c, 10, 40, 0
11, 580800, Note_on_c, 10, 43, 70
11, 581280, Note_on_c, 10, 43, 0
11, 581760, Note_on_c, 10, 43, 70
11, 582720, Note_on_c, 10, 43, 0
11, 583680, Note_on_c, 10, 31, 70
11, 584640, Note_on_c, 10, 31, 0
11, 585600, Note_on_c, 10, 31, 70
11, 586560, Note_on_c, 10, 31, 0
11, 587040, Note_on_c, 10, 31, 70
11, 587520, Note_on_c, 10, 31, 0
11, 587520, Note_on_c, 10, 36, 70
11, 588000, Note_on_c, 10, 36, 0
11, 588000, Note_on_c, 10, 43, 70
11, 588480, Note_on_c, 10, 43, 0
11, 588480, Note_on_c, 10, 48, 70
11, 588960, Note_on_c, 10, 48, 0
11, 589440, Note_on_c, 10, 36, 70
11, 590400, Note_on_c, 10, 36, 0
11, 590880, Note_on_c, 10, 40, 70
11, 591360, Note_on_c, 10, 40, 0
11, 591360, Note_on_c, 10, 41, 70
11, 591840, Note_on_c, 10, 41, 0
11, 591840, Note_on_c, 10, 45, 70
11, 592320, Note_on_c, 10, 45, 0
11, 592320, Note_on_c, 10, 50, 70
11, 592800, Note_on_c, 10, 50, 0
11, 592800, Note_on_c, 10, 53, 70
11, 593280, Note_on_c, 10, 53, 0
11, 593280, Note_on_c, 10, 40, 70
11, 593760, Note_on_c, 10, 40, 0
11, 593760, Note_on_c, 10, 43, 70
11, 594240, Note_on_c, 10, 43, 0
11, 594240, Note_on_c, 10, 48, 70
11, 594720, Note_on_c, 10, 48, 0
11, 594720, Note_on_c, 10, 52, 70
11, 595200, Note_on_c, 10, 52, 0
11, 595200, Note_on_c, 10, 38, 70
11, 595680, Note_on_c, 10, 38, 0
11, 595680, Note_on_c, 10, 41, 70
11, 596160, Note_on_c, 10, 41, 0
11, 596160, Note_on_c, 10, 47, 70
11, 596640, Note_on_c, 10, 47, 0
11, 596640, Note_on_c, 10, 50, 70
11, 597120, Note_on_c, 10, 50, 0
11, 597120, Note_on_c, 10, 48, 70
11, 597600, Note_on_c, 10, 48, 0
11, 603360, Note_on_c, 10, 45, 90
11, 604320, Note_on_c, 10, 45, 0
11, 604320, Note_on_c, 10, 43, 70
11, 604512, Note_on_c, 10, 43, 0
11, 604800, Note_on_c, 10, 41, 70
11, 604992, Note_on_c, 10, 41, 0
11, 605280, Note_on_c, 10, 40, 70
11, 605472, Note_on_c, 10, 40, 0
11, 605760, Note_on_c, 10, 45, 70
11, 605952, Note_on_c, 10, 45, 0
11, 606240, Note_on_c, 10, 43, 70
11, 606432, Note_on_c, 10, 43, 0
11, 606720, Note_on_c, 10, 41, 70
11, 607200, Note_on_c, 10, 41, 0
11, 607200, Note_on_c, 10, 45, 90
11, 608160, Note_on_c, 10, 45, 0
11, 608160, Note_on_c, 10, 43, 70
11, 608352, Note_on_c, 10, 43, 0
11, 608640, Note_on_c, 10, 41, 70
11, 608832, Note_on_c, 10, 41, 0
11, 609120, Note_on_c, 10, 40, 70
11, 609312, Note_on_c, 10, 40, 0
11, 609600, Note_on_c, 10, 45, 70
11, 609792, Note_on_c, 10, 45, 0
11, 610080, Note_on_c, 10, 43, 70
11, 610272, Note_on_c, 10, 43, 0
11, 610560, Note_on_c, 10, 41, 70
11, 612480, Note_on_c, 10, 41, 0
11, 612480, Note_on_c, 10, 42, 70
11, 614400, Note_on_c, 10, 42, 0
11, 614400, Note_on_c, 10, 43, 70
11, 614880, Note_on_c, 10, 43, 0
11, 618720, Note_on_c, 10, 36, 70
11, 618912, Note_on_c, 10, 36, 0
11, 619200, Note_on_c, 10, 40, 70
11, 619392, Note_on_c, 10, 40, 0
11, 619680, Note_on_c, 10, 36, 70
11, 619872, Note_on_c, 10, 36, 0
11, 620640, Note_on_c, 10, 38, 70
11, 620832, Note_on_c, 10, 38, 0
11, 621120, Note_on_c, 10, 35, 70
11, 621312, Note_on_c, 10, 35, 0
11, 621600, Note_on_c, 10, 31, 70
11, 621792, Note_on_c, 10, 31, 0
11, 622560, Note_on_c, 10, 36, 70
11, 622752, Note_on_c, 10, 36, 0
11, 623040, Note_on_c, 10, 45, 70
11, 623232, Note_on_c, 10, 45, 0
11, 623520, Note_on_c, 10, 41, 70
11, 623712, Note_on_c, 10, 41, 0
11, 624480, Note_on_c, 10, 43, 70
11, 624672, Note_on_c, 10, 43, 0
11, 624960, Note_on_c, 10, 31, 70
11, 625152, Note_on_c, 10, 31, 0
11, 625440, Note_on_c, 10, 41, 70
11, 625632, Note_on_c, 10, 41, 0
11, 626400, Note_on_c, 10, 40, 70
11, 626592, Note_on_c, 10, 40, 0
11, 626880, Note_on_c, 10, 38, 70
11, 627072, Note_on_c, 10, 38, 0
11, 627360, Note_on_c, 10, 36, 70
11, 627552, Note_on_c, 10, 36, 0
11, 628320, Note_on_c, 10, 45, 70
11, 628512, Note_on_c, 10, 45, 0
11, 628800, Note_on_c, 10, 43, 70
11, 628992, Note_on_c, 10, 43, 0
11, 629280, Note_on_c, 10, 41, 70
11, 629472, Note_on_c, 10, 41, 0
11, 629760, Note_on_c, 10, 40, 70
11, 629952, Note_on_c, 10, 40, 0
11, 630240, Note_on_c, 10, 45, 70
11, 630432, Note_on_c, 10, 45, 0
11, 630720, Note_on_c, 10, 41, 70
11, 630912, Note_on_c, 10, 41, 0
11, 631200, Note_on_c, 10, 43, 70
11, 631392, Note_on_c, 10, 43, 0
11, 632160, Note_on_c, 10, 36, 70
11, 632352, Note_on_c, 10, 36, 0
11, 632640, Note_on_c, 10, 40, 70
11, 632832, Note_on_c, 10, 40, 0
11, 633120, Note_on_c, 10, 43, 70
11, 633312, Note_on_c, 10, 43, 0
11, 634080, Note_on_c, 10, 48, 70
11, 634560, Note_on_c, 10, 48, 0
11, 634560, Note_on_c, 10, 47, 70
11, 635040, Note_on_c, 10, 47, 0
11, 635040, Note_on_c, 10, 46, 70
11, 635520, Note_on_c, 10, 46, 0
11, 635520, Note_on_c, 10, 45, 70
11, 636000, Note_on_c, 10, 45, 0
11, 636000, Note_on_c, 10, 48, 70
11, 636480, Note_on_c, 10, 48, 0
11, 636480, Note_on_c, 10, 45, 70
11, 636960, Note_on_c, 10, 45, 0
11, 636960, Note_on_c, 10, 41, 70
11, 637440, Note_on_c, 10, 41, 0
11, 637440, Note_on_c, 10, 40, 70
11, 639360, Note_on_c, 10, 40, 0
11, 639360, Note_on_c, 10, 41, 70
11, 640320, Note_on_c, 10, 41, 0
11, 640320, Note_on_c, 10, 45, 70
11, 641280, Note_on_c, 10, 45, 0
11, 641280, Note_on_c, 10, 43, 70
11, 643200, Note_on_c, 10, 43, 0
11, 643200, Note_on_c, 10, 31, 70
11, 645120, Note_on_c, 10, 31, 0
11, 645120, Note_on_c, 10, 36, 70
11, 645600, Note_on_c, 10, 36, 0
11, 679680, Note_on_c, 10, 45, 70
11, 680160, Note_on_c, 10, 45, 0
11, 680640, Note_on_c, 10, 41, 70
11, 681120, Note_on_c, 10, 41, 0
11, 681600, Note_on_c, 10, 43, 80
11, 682080, Note_on_c, 10, 43, 0
11, 682560, Note_on_c, 10, 31, 80
11, 683040, Note_on_c, 10, 31, 0
11, 683520, Note_on_c, 10, 48, 90
11, 683760, Note_on_c, 10, 48, 0
11, 683760, Note_on_c, 10, 47, 105
11, 684000, Note_on_c, 10, 47, 0
11, 684000, Note_on_c, 10, 48, 105
11, 684240, Note_on_c, 10, 48, 0
11, 684240, Note_on_c, 10, 50, 105
11, 684480, Note_on_c, 10, 50, 0
11, 684480, Note_on_c, 10, 52, 105
11, 684720, Note_on_c, 10, 52, 0
11, 684720, Note_on_c, 10, 50, 105
11, 684960, Note_on_c, 10, 50, 0
11, 684960, Note_on_c, 10, 48, 105
11, 685200, Note_on_c, 10, 48, 0
11, 685200, Note_on_c, 10, 47, 105
11, 685440, Note_on_c, 10, 47, 0
11, 685440, Note_on_c, 10, 45, 105
11, 685680, Note_on_c, 10, 45, 0
11, 685680, Note_on_c, 10, 44, 105
11, 685920, Note_on_c, 10, 44, 0
11, 685920, Note_on_c, 10, 45, 105
11, 686160, Note_on_c, 10, 45, 0
11, 686160, Note_on_c, 10, 47, 105
11, 686400, Note_on_c, 10, 47, 0
11, 686400, Note_on_c, 10, 48, 105
11, 686640, Note_on_c, 10, 48, 0
11, 686640, Note_on_c, 10, 47, 105
11, 686880, Note_on_c, 10, 47, 0
11, 686880, Note_on_c, 10, 45, 105
11, 687120, Note_on_c, 10, 45, 0
11, 687120, Note_on_c, 10, 43, 105
11, 687360, Note_on_c, 10, 43, 0
11, 687360, Note_on_c, 10, 41, 105
11, 687840, Note_on_c, 10, 41, 0
11, 688320, Note_on_c, 10, 38, 105
11, 688800, Note_on_c, 10, 38, 0
11, 689280, Note_on_c, 10, 36, 105
11, 689760, Note_on_c, 10, 36, 0
11, 690240, Note_on_c, 10, 45, 105
11, 690720, Note_on_c, 10, 45, 0
11, 691200, Note_on_c, 10, 43, 105
11, 692160, Note_on_c, 10, 43, 0
11, 695040, Note_on_c, 10, 36, 90
11, 695280, Note_on_c, 10, 36, 0
11, 695280, Note_on_c, 10, 38, 90
11, 695520, Note_on_c, 10, 38, 0
11, 695520, Note_on_c, 10, 40, 90
11, 695760, Note_on_c, 10, 40, 0
11, 695760, Note_on_c, 10, 38, 105
11, 696000, Note_on_c, 10, 38, 0
11, 696000, Note_on_c, 10, 36, 105
11, 696240, Note_on_c, 10, 36, 0
11, 696240, Note_on_c, 10, 38, 105
11, 696480, Note_on_c, 10, 38, 0
11, 696480, Note_on_c, 10, 40, 105
11, 696720, Note_on_c, 10, 40, 0
11, 696720, Note_on_c, 10, 41, 105
11, 696960, Note_on_c, 10, 41, 0
11, 696960, Note_on_c, 10, 43, 105
11, 697200, Note_on_c, 10, 43, 0
11, 697200, Note_on_c, 10, 45, 105
11, 697440, Note_on_c, 10, 45, 0
11, 697440, Note_on_c, 10, 47, 105
11, 697680, Note_on_c, 10, 47, 0
11, 697680, Note_on_c, 10, 45, 105
11, 697920, Note_on_c, 10, 45, 0
11, 697920, Note_on_c, 10, 43, 105
11, 698160, Note_on_c, 10, 43, 0
11, 698160, Note_on_c, 10, 45, 105
11, 698400, Note_on_c, 10, 45, 0
11, 698400, Note_on_c, 10, 47, 105
11, 698640, Note_on_c, 10, 47, 0
11, 698640, Note_on_c, 10, 43, 105
11, 698880, Note_on_c, 10, 43, 0
11, 698880, Note_on_c, 10, 48, 105
11, 699120, Note_on_c, 10, 48, 0
11, 699120, Note_on_c, 10, 52, 105
11, 699360, Note_on_c, 10, 52, 0
11, 699360, Note_on_c, 10, 48, 105
11, 699600, Note_on_c, 10, 48, 0
11, 699600, Note_on_c, 10, 43, 105
11, 699840, Note_on_c, 10, 43, 0
11, 699840, Note_on_c, 10, 40, 105
11, 700080, Note_on_c, 10, 40, 0
11, 700080, Note_on_c, 10, 43, 105
11, 700320, Note_on_c, 10, 43, 0
11, 700320, Note_on_c, 10, 40, 105
11, 700560, Note_on_c, 10, 40, 0
11, 700560, Note_on_c, 10, 36, 105
11, 700800, Note_on_c, 10, 36, 0
11, 700800, Note_on_c, 10, 31, 105
11, 701040, Note_on_c, 10, 31, 0
11, 701040, Note_on_c, 10, 35, 105
11, 701280, Note_on_c, 10, 35, 0
11, 701280, Note_on_c, 10, 38, 105
11, 701520, Note_on_c, 10, 38, 0
11, 701520, Note_on_c, 10, 43, 105
11, 701760, Note_on_c, 10, 43, 0
11, 701760, Note_on_c, 10, 47, 105
11, 702000, Note_on_c, 10, 47, 0
11, 702000, Note_on_c, 10, 50, 105
11, 702240, Note_on_c, 10, 50, 0
11, 702240, Note_on_c, 10, 47, 105
11, 702480, Note_on_c, 10, 47, 0
11, 702480, Note_on_c, 10, 43, 105
11, 702720, Note_on_c, 10, 43, 0
11, 702720, Note_on_c, 10, 48, 105
11, 703200, Note_on_c, 10, 48, 0
11, 703560, Note_on_c, 10, 48, 105
11, 703680, Note_on_c, 10, 48, 0
11, 703680, Note_on_c, 10, 45, 105
11, 704160, Note_on_c, 10, 45, 0
11, 704520, Note_on_c, 10, 45, 105
11, 704640, Note_on_c, 10, 45, 0
11, 704640, Note_on_c, 10, 41, 105
11, 705120, Note_on_c, 10, 41, 0
11, 705480, Note_on_c, 10, 41, 105
11, 705600, Note_on_c, 10, 41, 0
11, 705600, Note_on_c, 10, 43, 105
11, 706080, Note_on_c, 10, 43, 0
11, 706440, Note_on_c, 10, 43, 105
11, 706560, Note_on_c, 10, 43, 0
11, 706560, Note_on_c, 10, 36, 105
11, 707520, Note_on_c, 10, 36, 0
11, 748320, Note_on_c, 10, 43, 105
11, 748800, Note_on_c, 10, 43, 0
11, 748800, Note_on_c, 10, 48, 105
11, 749760, Note_on_c, 10, 48, 0
11, 750240, Note_on_c, 10, 43, 105
11, 750720, Note_on_c, 10, 43, 0
11, 750720, Note_on_c, 10, 48, 105
11, 751680, Note_on_c, 10, 48, 0
11, 752160, Note_on_c, 10, 43, 105
11, 752640, Note_on_c, 10, 43, 0
11, 752640, Note_on_c, 10, 48, 105
11, 753600, Note_on_c, 10, 48, 0
11, 753600, Note_on_c, 10, 48, 105
11, 754560, Note_on_c, 10, 48, 0
11, 754560, Note_on_c, 10, 36, 105
11, 755520, Note_on_c, 10, 36, 0
11, 755520, End_track
12, 0, Start_track
12, 0, Title_t, "Mozart Concerto for Flute and Harp in C,"
12, 0, Control_c, 0, 91, 0
12, 0, Control_c, 0, 93, 0
12, 0, End_track
13, 0, Start_track
13, 0, Title_t, "K.299 (1778)"
13, 0, Control_c, 0, 91, 0
13, 0, Control_c, 0, 93, 0
13, 0, End_track
14, 0, Start_track
14, 0, Title_t, "Sequenced by Randy Reid, 1996"
14, 0, Control_c, 0, 91, 0
14, 0, Control_c, 0, 93, 0
14, 0, End_track
15, 0, Start_track
15, 0, Title_t, "Troppo@msn.com"
15, 0, Control_c, 0, 91, 0
15, 0, Control_c, 0, 93, 0
15, 0, End_track
16, 0, Start_track
16, 0, Title_t, "Harp"
16, 0, Control_c, 4, 0, 0
16, 0, Control_c, 4, 7, 90
16, 0, Control_c, 4, 10, 70
16, 0, Control_c, 4, 91, 0
16, 0, Control_c, 4, 93, 0
16, 1, Control_c, 4, 32, 1
16, 2, Program_c, 4, 46
16, 2, End_track
17, 0, Start_track
17, 0, Title_t, "Violin I"
17, 0, Control_c, 5, 0, 0
17, 0, Control_c, 5, 7, 100
17, 0, Control_c, 5, 10, 30
17, 0, Control_c, 5, 91, 0
17, 0, Control_c, 5, 93, 0
17, 1, Control_c, 5, 32, 1
17, 2, Program_c, 5, 48
17, 2, End_track
18, 0, Start_track
18, 0, Title_t, "Violin II"
18, 0, Control_c, 6, 0, 0
18, 0, Control_c, 6, 7, 100
18, 0, Control_c, 6, 10, 100
18, 0, Control_c, 6, 91, 0
18, 0, Control_c, 6, 93, 0
18, 1, Control_c, 6, 32, 1
18, 2, Program_c, 6, 48
18, 2, End_track
19, 0, Start_track
19, 0, Title_t, "Viola"
19, 0, Control_c, 7, 0, 0
19, 0, Control_c, 7, 7, 100
19, 0, Control_c, 7, 10, 45
19, 0, Control_c, 7, 91, 0
19, 0, Control_c, 7, 93, 0
19, 1, Control_c, 7, 32, 1
19, 2, Program_c, 7, 48
19, 2, End_track
20, 0, Start_track
20, 0, Title_t, "Celli e K. Bass"
20, 0, Control_c, 8, 0, 0
20, 0, Control_c, 8, 7, 90
20, 0, Control_c, 8, 10, 85
20, 0, Control_c, 8, 91, 0
20, 0, Control_c, 8, 93, 0
20, 1, Control_c, 8, 32, 1
20, 2, Program_c, 8, 48
20, 2, End_track
21, 0, Start_track
21, 0, Title_t, "K. Bass"
21, 0, Control_c, 10, 0, 0
21, 0, Control_c, 10, 7, 70
21, 0, Control_c, 10, 10, 100
21, 0, Control_c, 10, 91, 0
21, 0, Control_c, 10, 93, 0
21, 1, Control_c, 10, 32, 1
21, 2, Program_c, 10, 48
21, 2, End_track
22, 0, Start_track
22, 0, Title_t, "Mozart Concerto for Flute and Harp in C,"
22, 0, Control_c, 0, 91, 0
22, 0, Control_c, 0, 93, 0
22, 0, End_track
23, 0, Start_track
23, 0, Title_t, "K.299 (1778)"
23, 0, Control_c, 0, 91, 0
23, 0, Control_c, 0, 93, 0
23, 0, End_track
24, 0, Start_track
24, 0, Title_t, "Sequenced by Randy Reid, 1996"
24, 0, Control_c, 0, 91, 0
24, 0, Control_c, 0, 93, 0
24, 0, End_track
25, 0, Start_track
25, 0, Title_t, "Troppo@msn.com"
25, 0, Control_c, 0, 91, 0
25, 0, Control_c, 0, 93, 0
25, 0, End_track
26, 0, Start_track
26, 0, Title_t, "Console Automation Data"
26, 0, Control_c, 1, 40, 103
26, 0, Control_c, 0, 40, 103
26, 0, Control_c, 1, 93, 64
26, 0, Control_c, 1, 92, 0
26, 0, Control_c, 1, 96, 64
26, 0, Control_c, 1, 95, 127
26, 0, Control_c, 0, 93, 64
26, 0, Control_c, 0, 92, 0
26, 0, Control_c, 0, 96, 64
26, 0, Control_c, 0, 95, 127
26, 0, Control_c, 0, 91, 0
26, 0, End_track
0, 0, End_of_file