0, 0, Header, 1, 19, 480
1, 0, Start_track
1, 0, Tempo, 923070
1, 0, Time_signature, 4, 2, 24, 8
1, 0, Key_signature, 0, "major"
1, 170880, Tempo, 967741
1, 172800, Tempo, 1000000
1, 174720, Tempo, 1034482
1, 174720, End_track
2, 0, Start_track
2, 0, Title_t, "Basfagott"
2, 0, MIDI_port, 0
2, 0, Channel_prefix, 0
2, 0, Control_c, 0, 7, 111
2, 0, Control_c, 0, 10, 84
2, 0, Control_c, 0, 0, 0
2, 0, Control_c, 0, 32, 0
2, 0, Control_c, 0, 93, 0
2, 0, Program_c, 0, 70
2, 0, Note_on_c, 0, 51, 80
2, 936, Note_on_c, 0, 55, 83
2, 971, Note_off_c, 0, 51, 0
2, 1908, Note_on_c, 0, 58, 81
2, 1933, Note_off_c, 0, 55, 0
2, 2860, Note_on_c, 0, 46, 83
2, 2873, Note_off_c, 0, 58, 0
2, 3717, Note_off_c, 0, 46, 0
2, 3800, Note_on_c, 0, 51, 83
2, 3840, Control_c, 0, 32, 0
2, 3840, Control_c, 0, 0, 0
2, 3840, Program_c, 0, 70
2, 4303, Note_on_c, 0, 55, 90
2, 4317, Note_off_c, 0, 51, 0
2, 4775, Note_on_c, 0, 58, 72
2, 4800, Note_off_c, 0, 55, 0
2, 5268, Note_on_c, 0, 51, 81
2, 5328, Note_off_c, 0, 58, 0
2, 5752, Note_on_c, 0, 50, 73
2, 5765, Note_off_c, 0, 51, 0
2, 6211, Note_on_c, 0, 53, 83
2, 6235, Note_off_c, 0, 50, 0
2, 6692, Note_on_c, 0, 58, 80
2, 6706, Note_off_c, 0, 53, 0
2, 7175, Note_on_c, 0, 50, 82
2, 7211, Note_off_c, 0, 58, 0
2, 7668, Note_on_c, 0, 48, 80
2, 7693, Note_off_c, 0, 50, 0
2, 8173, Note_on_c, 0, 51, 90
2, 8198, Note_off_c, 0, 48, 0
2, 8645, Note_off_c, 0, 51, 0
2, 8645, Note_on_c, 0, 55, 82
2, 9127, Note_off_c, 0, 55, 0
2, 9127, Note_on_c, 0, 43, 103
2, 9585, Note_on_c, 0, 44, 82
2, 9610, Note_off_c, 0, 43, 0
2, 10068, Note_off_c, 0, 44, 0
2, 10068, Note_on_c, 0, 53, 73
2, 10515, Note_on_c, 0, 46, 90
2, 10540, Note_off_c, 0, 53, 0
2, 10996, Note_on_c, 0, 58, 80
2, 11010, Note_off_c, 0, 46, 0
2, 11421, Note_off_c, 0, 58, 0
2, 11515, Note_on_c, 0, 51, 83
2, 11972, Note_on_c, 0, 55, 90
2, 11997, Note_off_c, 0, 51, 0
2, 12443, Note_on_c, 0, 58, 80
2, 12467, Note_off_c, 0, 55, 0
2, 12925, Note_on_c, 0, 51, 66
2, 12973, Note_off_c, 0, 58, 0
2, 13408, Note_on_c, 0, 50, 73
2, 13433, Note_off_c, 0, 51, 0
2, 13890, Note_on_c, 0, 53, 83
2, 13926, Note_off_c, 0, 50, 0
2, 14372, Note_off_c, 0, 53, 0
2, 14372, Note_on_c, 0, 58, 90
2, 14853, Note_on_c, 0, 50, 82
2, 14878, Note_off_c, 0, 58, 0
2, 15323, Note_on_c, 0, 48, 72
2, 15350, Note_off_c, 0, 50, 0
2, 15841, Note_on_c, 0, 51, 103
2, 15880, Note_off_c, 0, 48, 0
2, 16313, Note_off_c, 0, 51, 0
2, 16313, Note_on_c, 0, 55, 80
2, 16783, Note_on_c, 0, 48, 80
2, 16871, Note_off_c, 0, 55, 0
2, 17257, Note_on_c, 0, 43, 83
2, 17258, Note_off_c, 0, 48, 0
2, 17728, Note_off_c, 0, 43, 0
2, 17728, Note_on_c, 0, 46, 83
2, 18187, Note_on_c, 0, 51, 66
2, 18200, Note_off_c, 0, 46, 0
2, 18692, Note_on_c, 0, 43, 83
2, 18730, Note_off_c, 0, 51, 0
2, 19175, Note_on_c, 0, 44, 103
2, 19201, Note_off_c, 0, 43, 0
2, 19668, Note_on_c, 0, 48, 82
2, 19682, Note_off_c, 0, 44, 0
2, 20140, Note_on_c, 0, 51, 82
2, 20165, Note_off_c, 0, 48, 0
2, 20610, Note_on_c, 0, 45, 82
2, 20635, Note_off_c, 0, 51, 0
2, 21092, Note_on_c, 0, 46, 81
2, 21117, Note_off_c, 0, 45, 0
2, 21575, Note_on_c, 0, 50, 81
2, 21600, Note_off_c, 0, 46, 0
2, 22045, Note_on_c, 0, 53, 73
2, 22046, Note_off_c, 0, 50, 0
2, 22527, Note_on_c, 0, 47, 81
2, 22541, Note_off_c, 0, 53, 0
2, 23021, Note_on_c, 0, 48, 82
2, 23046, Note_off_c, 0, 47, 0
2, 23492, Note_on_c, 0, 51, 90
2, 23528, Note_off_c, 0, 48, 0
2, 23973, Note_on_c, 0, 55, 81
2, 23975, Note_off_c, 0, 51, 0
2, 24443, Note_on_c, 0, 48, 81
2, 24481, Note_off_c, 0, 55, 0
2, 24940, Note_on_c, 0, 56, 82
2, 24941, Note_off_c, 0, 48, 0
2, 25421, Note_on_c, 0, 55, 80
2, 25422, Note_off_c, 0, 56, 0
2, 25915, Note_on_c, 0, 53, 81
2, 25928, Note_off_c, 0, 55, 0
2, 26397, Note_on_c, 0, 51, 103
2, 26422, Note_off_c, 0, 53, 0
2, 26880, Note_on_c, 0, 50, 73
2, 26892, Note_off_c, 0, 51, 0
2, 27350, Note_on_c, 0, 48, 82
2, 27386, Note_off_c, 0, 50, 0
2, 27832, Note_on_c, 0, 46, 90
2, 27857, Note_off_c, 0, 48, 0
2, 28302, Note_on_c, 0, 44, 83
2, 28315, Note_off_c, 0, 46, 0
2, 28772, Note_on_c, 0, 43, 82
2, 28785, Note_off_c, 0, 44, 0
2, 29254, Note_on_c, 0, 51, 73
2, 29256, Note_off_c, 0, 43, 0
2, 29736, Note_on_c, 0, 44, 83
2, 29772, Note_off_c, 0, 51, 0
2, 30218, Note_on_c, 0, 53, 83
2, 30221, Note_off_c, 0, 44, 0
2, 30712, Note_on_c, 0, 46, 83
2, 30725, Note_off_c, 0, 53, 0
2, 31122, Note_on_c, 0, 51, 81
2, 31196, Note_off_c, 0, 46, 0
2, 31630, Note_on_c, 0, 50, 80
2, 31642, Note_off_c, 0, 51, 0
2, 32146, Note_on_c, 0, 46, 81
2, 32171, Note_off_c, 0, 50, 0
2, 32653, Note_off_c, 0, 46, 0
2, 33133, Note_on_c, 0, 51, 82
2, 33605, Note_on_c, 0, 53, 81
2, 33630, Note_off_c, 0, 51, 0
2, 34098, Note_on_c, 0, 46, 82
2, 34135, Note_off_c, 0, 53, 0
2, 34560, Control_c, 0, 32, 0
2, 34560, Control_c, 0, 0, 0
2, 34560, Program_c, 0, 70
2, 34593, Note_off_c, 0, 46, 0
2, 35015, Note_on_c, 0, 51, 90
2, 35472, Note_on_c, 0, 53, 83
2, 35497, Note_off_c, 0, 51, 0
2, 35967, Note_on_c, 0, 46, 83
2, 35992, Note_off_c, 0, 53, 0
2, 36461, Note_off_c, 0, 46, 0
2, 36907, Note_on_c, 0, 51, 103
2, 37363, Note_on_c, 0, 53, 81
2, 37377, Note_off_c, 0, 51, 0
2, 37870, Note_on_c, 0, 46, 83
2, 37906, Note_off_c, 0, 53, 0
2, 38376, Note_off_c, 0, 46, 0
2, 38400, Control_c, 0, 32, 0
2, 38400, Control_c, 0, 0, 0
2, 38400, Program_c, 0, 70
2, 38400, Note_on_c, 0, 51, 111
2, 38477, Note_on_c, 0, 51, 83
2, 38850, Note_on_c, 0, 55, 90
2, 38866, Note_off_c, 0, 51, 0
2, 38961, Note_off_c, 0, 51, 0
2, 39316, Note_on_c, 0, 58, 124
2, 39331, Note_off_c, 0, 55, 0
2, 39808, Note_on_c, 0, 51, 124
2, 39810, Note_off_c, 0, 58, 0
2, 40276, Note_on_c, 0, 50, 90
2, 40305, Note_off_c, 0, 51, 0
2, 40757, Note_on_c, 0, 53, 90
2, 40785, Note_off_c, 0, 50, 0
2, 40788, Note_on_c, 0, 53, 73
2, 41237, Note_on_c, 0, 58, 124
2, 41260, Note_off_c, 0, 53, 0
2, 41265, Note_off_c, 0, 53, 0
2, 41718, Note_off_c, 0, 58, 0
2, 41732, Note_on_c, 0, 50, 82
2, 42197, Note_on_c, 0, 48, 103
2, 42200, Note_off_c, 0, 50, 0
2, 42678, Note_on_c, 0, 51, 103
2, 42706, Note_off_c, 0, 48, 0
2, 43158, Note_on_c, 0, 57, 90
2, 43173, Note_off_c, 0, 51, 0
2, 43652, Note_on_c, 0, 48, 82
2, 43666, Note_off_c, 0, 57, 0
2, 44120, Note_on_c, 0, 46, 103
2, 44121, Note_off_c, 0, 48, 0
2, 44610, Note_on_c, 0, 53, 83
2, 44612, Note_on_c, 0, 53, 82
2, 44615, Note_off_c, 0, 46, 0
2, 45067, Note_on_c, 0, 58, 83
2, 45092, Note_off_c, 0, 53, 0
2, 45092, Note_on_c, 0, 58, 90
2, 45095, Note_off_c, 0, 53, 0
2, 45573, Note_on_c, 0, 55, 83
2, 45598, Note_off_c, 0, 58, 0
2, 45601, Note_off_c, 0, 58, 0
2, 45990, Note_off_c, 0, 55, 0
2, 46067, Note_on_c, 0, 52, 90
2, 46560, Note_on_c, 0, 58, 111
2, 46575, Note_off_c, 0, 52, 0
2, 47002, Note_off_c, 0, 58, 0
2, 47053, Note_on_c, 0, 53, 111
2, 47508, Note_off_c, 0, 53, 0
2, 47521, Note_on_c, 0, 58, 111
2, 47948, Note_off_c, 0, 58, 0
2, 48002, Note_on_c, 0, 55, 103
2, 48493, Note_on_c, 0, 58, 111
2, 48521, Note_off_c, 0, 55, 0
2, 48936, Note_off_c, 0, 58, 0
2, 48975, Note_on_c, 0, 53, 83
2, 49441, Note_on_c, 0, 58, 83
2, 49482, Note_off_c, 0, 53, 0
2, 49883, Note_off_c, 0, 58, 0
2, 49948, Note_on_c, 0, 52, 90
2, 50416, Note_on_c, 0, 58, 111
2, 50443, Note_off_c, 0, 52, 0
2, 50846, Note_off_c, 0, 58, 0
2, 50897, Note_on_c, 0, 53, 103
2, 51365, Note_on_c, 0, 58, 81
2, 51420, Note_off_c, 0, 53, 0
2, 51782, Note_off_c, 0, 58, 0
2, 51835, Note_on_c, 0, 55, 83
2, 52313, Note_on_c, 0, 58, 83
2, 52356, Note_off_c, 0, 55, 0
2, 52757, Note_off_c, 0, 58, 0
2, 52765, Note_on_c, 0, 53, 73
2, 52796, Note_on_c, 0, 53, 103
2, 53250, Note_on_c, 0, 58, 83
2, 53261, Note_off_c, 0, 53, 0
2, 53291, Note_off_c, 0, 53, 0
2, 53691, Note_off_c, 0, 58, 0
2, 53722, Note_on_c, 0, 51, 83
2, 54201, Note_on_c, 0, 55, 103
2, 54228, Note_off_c, 0, 51, 0
2, 54682, Note_on_c, 0, 58, 90
2, 54710, Note_off_c, 0, 55, 0
2, 55137, Note_on_c, 0, 51, 81
2, 55151, Note_off_c, 0, 58, 0
2, 55643, Note_on_c, 0, 52, 82
2, 55657, Note_off_c, 0, 51, 0
2, 56123, Note_on_c, 0, 55, 82
2, 56141, Note_on_c, 0, 55, 80
2, 56151, Note_off_c, 0, 52, 0
2, 56605, Note_off_c, 0, 55, 0
2, 56618, Note_on_c, 0, 58, 90
2, 56648, Note_off_c, 0, 55, 0
2, 57072, Note_off_c, 0, 58, 0
2, 57098, Note_on_c, 0, 52, 82
2, 57578, Note_on_c, 0, 53, 82
2, 57593, Note_off_c, 0, 52, 0
2, 58060, Note_on_c, 0, 58, 111
2, 58075, Note_off_c, 0, 53, 0
2, 58516, Note_off_c, 0, 58, 0
2, 58528, Note_on_c, 0, 62, 90
2, 59008, Note_off_c, 0, 62, 0
2, 59035, Note_on_c, 0, 65, 90
2, 59502, Note_on_c, 0, 53, 83
2, 59503, Note_off_c, 0, 65, 0
2, 59956, Note_on_c, 0, 52, 83
2, 59983, Note_off_c, 0, 53, 0
2, 60437, Note_off_c, 0, 52, 0
2, 60490, Note_on_c, 0, 53, 80
2, 60933, Note_off_c, 0, 53, 0
2, 60961, Note_on_c, 0, 41, 73
2, 61393, Note_off_c, 0, 41, 0
2, 61458, Note_on_c, 0, 46, 83
2, 62365, Note_off_c, 0, 46, 0
2, 63360, Note_on_c, 0, 53, 82
2, 64177, Note_off_c, 0, 53, 0
2, 64320, Note_on_c, 0, 41, 80
2, 65085, Note_off_c, 0, 41, 0
2, 65266, Note_on_c, 0, 46, 81
2, 65746, Note_off_c, 0, 46, 0
2, 65760, Note_on_c, 0, 61, 81
2, 66201, Note_off_c, 0, 61, 0
2, 66241, Note_on_c, 0, 58, 83
2, 66695, Note_off_c, 0, 58, 0
2, 66722, Note_on_c, 0, 56, 83
2, 67176, Note_off_c, 0, 56, 0
2, 67188, Note_on_c, 0, 55, 81
2, 67642, Note_on_c, 0, 58, 82
2, 67671, Note_off_c, 0, 55, 0
2, 68125, Note_on_c, 0, 55, 80
2, 68126, Note_off_c, 0, 58, 0
2, 68605, Note_on_c, 0, 53, 80
2, 68618, Note_off_c, 0, 55, 0
2, 69086, Note_off_c, 0, 53, 0
2, 69100, Note_on_c, 0, 52, 80
2, 69578, Note_on_c, 0, 55, 81
2, 69593, Note_off_c, 0, 52, 0
2, 70061, Note_off_c, 0, 55, 0
2, 70061, Note_on_c, 0, 48, 73
2, 70555, Note_off_c, 0, 48, 0
2, 70567, Note_on_c, 0, 52, 80
2, 71021, Note_off_c, 0, 52, 0
2, 71036, Note_on_c, 0, 53, 72
2, 71515, Note_on_c, 0, 56, 80
2, 71542, Note_off_c, 0, 53, 0
2, 71932, Control_c, 0, 1, 37
2, 71983, Note_on_c, 0, 53, 66
2, 71998, Note_off_c, 0, 56, 0
2, 72463, Note_on_c, 0, 51, 65
2, 72492, Note_off_c, 0, 53, 0
2, 72947, Control_c, 0, 1, 29
2, 72961, Control_c, 0, 1, 21
2, 72972, Note_on_c, 0, 49, 72
2, 72976, Control_c, 0, 1, 12
2, 72988, Note_off_c, 0, 51, 0
2, 72991, Control_c, 0, 1, 6
2, 73005, Control_c, 0, 1, 2
2, 73017, Control_c, 0, 1, 0
2, 73461, Note_on_c, 0, 53, 82
2, 73475, Note_off_c, 0, 49, 0
2, 73946, Note_on_c, 0, 49, 73
2, 73960, Note_off_c, 0, 53, 0
2, 74417, Note_on_c, 0, 48, 73
2, 74431, Note_off_c, 0, 49, 0
2, 74890, Note_on_c, 0, 47, 80
2, 74891, Note_off_c, 0, 48, 0
2, 75361, Note_on_c, 0, 50, 81
2, 75362, Note_off_c, 0, 47, 0
2, 75821, Note_off_c, 0, 50, 0
2, 75833, Note_on_c, 0, 43, 83
2, 76331, Note_off_c, 0, 43, 0
2, 76343, Note_on_c, 0, 47, 82
2, 76740, Note_off_c, 0, 47, 0
2, 76791, Note_on_c, 0, 48, 82
2, 77275, Note_on_c, 0, 60, 83
2, 77290, Note_off_c, 0, 48, 0
2, 77760, Note_on_c, 0, 56, 80
2, 77761, Note_off_c, 0, 60, 0
2, 78202, Note_off_c, 0, 56, 0
2, 78228, Note_on_c, 0, 55, 83
2, 78712, Note_off_c, 0, 55, 0
2, 78726, Note_on_c, 0, 54, 81
2, 79210, Note_on_c, 0, 60, 81
2, 79211, Note_off_c, 0, 54, 0
2, 79681, Note_off_c, 0, 60, 0
2, 79695, Note_on_c, 0, 55, 81
2, 80178, Note_off_c, 0, 55, 0
2, 80192, Note_on_c, 0, 60, 66
2, 80652, Note_on_c, 0, 56, 73
2, 80662, Note_off_c, 0, 60, 0
2, 81054, Note_off_c, 0, 56, 0
2, 81111, Note_on_c, 0, 60, 80
2, 81595, Note_off_c, 0, 60, 0
2, 81608, Note_on_c, 0, 55, 83
2, 82080, Note_on_c, 0, 60, 73
2, 82093, Note_off_c, 0, 55, 0
2, 82501, Note_off_c, 0, 60, 0
2, 82540, Note_on_c, 0, 54, 90
2, 83023, Note_off_c, 0, 54, 0
2, 83023, Note_on_c, 0, 60, 80
2, 83482, Note_off_c, 0, 60, 0
2, 83521, Note_on_c, 0, 55, 83
2, 84017, Note_on_c, 0, 60, 73
2, 84045, Note_off_c, 0, 55, 0
2, 84452, Note_off_c, 0, 60, 0
2, 84491, Note_on_c, 0, 56, 83
2, 84961, Note_on_c, 0, 60, 80
2, 84988, Note_off_c, 0, 56, 0
2, 85407, Note_off_c, 0, 60, 0
2, 85435, Note_on_c, 0, 55, 81
2, 85892, Note_on_c, 0, 60, 63
2, 85945, Note_off_c, 0, 55, 0
2, 86327, Note_off_c, 0, 60, 0
2, 86366, Note_on_c, 0, 54, 82
2, 86862, Note_on_c, 0, 60, 63
2, 86902, Note_off_c, 0, 54, 0
2, 87296, Note_off_c, 0, 60, 0
2, 87335, Note_on_c, 0, 55, 82
2, 87845, Note_on_c, 0, 60, 72
2, 87872, Note_off_c, 0, 55, 0
2, 88292, Note_off_c, 0, 60, 0
2, 88318, Note_on_c, 0, 57, 82
2, 88776, Note_on_c, 0, 62, 81
2, 88777, Note_off_c, 0, 57, 0
2, 89260, Note_off_c, 0, 62, 0
2, 89286, Note_on_c, 0, 58, 103
2, 89783, Note_off_c, 0, 58, 0
2, 89783, Note_on_c, 0, 62, 73
2, 90205, Note_off_c, 0, 62, 0
2, 90242, Note_on_c, 0, 60, 83
2, 90713, Note_off_c, 0, 60, 0
2, 90726, Note_on_c, 0, 57, 82
2, 91158, Note_off_c, 0, 57, 0
2, 91210, Note_on_c, 0, 62, 90
2, 91695, Note_off_c, 0, 62, 0
2, 91708, Note_on_c, 0, 50, 83
2, 92078, Note_off_c, 0, 50, 0
2, 92167, Note_on_c, 0, 55, 83
2, 92588, Note_off_c, 0, 55, 0
2, 92626, Note_on_c, 0, 58, 111
2, 93071, Note_off_c, 0, 58, 0
2, 93110, Note_on_c, 0, 61, 80
2, 93556, Note_off_c, 0, 61, 0
2, 93582, Note_on_c, 0, 53, 81
2, 94065, Note_on_c, 0, 52, 82
2, 94067, Note_off_c, 0, 53, 0
2, 94500, Note_off_c, 0, 52, 0
2, 94526, Note_on_c, 0, 55, 81
2, 94996, Note_on_c, 0, 58, 73
2, 94997, Note_off_c, 0, 55, 0
2, 95456, Note_off_c, 0, 58, 0
2, 95482, Note_on_c, 0, 52, 80
2, 95915, Note_off_c, 0, 52, 0
2, 95980, Note_on_c, 0, 53, 82
2, 96463, Note_off_c, 0, 53, 0
2, 96463, Note_on_c, 0, 56, 82
2, 96936, Note_on_c, 0, 59, 83
2, 96951, Note_off_c, 0, 56, 0
2, 97383, Note_off_c, 0, 59, 0
2, 97410, Note_on_c, 0, 51, 83
2, 97893, Note_on_c, 0, 50, 80
2, 97895, Note_off_c, 0, 51, 0
2, 98377, Note_on_c, 0, 53, 82
2, 98392, Note_off_c, 0, 50, 0
2, 98862, Note_on_c, 0, 56, 83
2, 98877, Note_off_c, 0, 53, 0
2, 99312, Note_off_c, 0, 56, 0
2, 99326, Note_on_c, 0, 50, 72
2, 99772, Note_off_c, 0, 50, 0
2, 99836, Note_on_c, 0, 51, 73
2, 99840, Control_c, 0, 32, 0
2, 99840, Control_c, 0, 0, 0
2, 99840, Program_c, 0, 70
2, 99860, Note_on_c, 0, 51, 124
2, 100312, Note_on_c, 0, 55, 83
2, 100326, Note_off_c, 0, 51, 0
2, 100370, Note_off_c, 0, 51, 0
2, 100803, Note_on_c, 0, 58, 83
2, 100843, Note_off_c, 0, 55, 0
2, 101296, Note_on_c, 0, 51, 103
2, 101297, Note_off_c, 0, 58, 0
2, 101777, Note_off_c, 0, 51, 0
2, 101791, Note_on_c, 0, 50, 90
2, 102255, Note_on_c, 0, 53, 83
2, 102282, Note_off_c, 0, 50, 0
2, 102708, Note_on_c, 0, 58, 90
2, 102735, Note_off_c, 0, 53, 0
2, 103190, Note_on_c, 0, 50, 82
2, 103191, Note_off_c, 0, 58, 0
2, 103617, Note_off_c, 0, 50, 0
2, 103656, Note_on_c, 0, 51, 124
2, 104133, Note_on_c, 0, 55, 82
2, 104148, Note_off_c, 0, 51, 0
2, 104600, Note_on_c, 0, 58, 103
2, 104653, Note_off_c, 0, 55, 0
2, 105080, Note_on_c, 0, 51, 111
2, 105081, Note_off_c, 0, 58, 0
2, 105597, Note_on_c, 0, 50, 82
2, 105598, Note_off_c, 0, 51, 0
2, 106063, Note_on_c, 0, 53, 82
2, 106090, Note_off_c, 0, 50, 0
2, 106542, Note_on_c, 0, 58, 90
2, 106570, Note_off_c, 0, 53, 0
2, 107047, Note_off_c, 0, 58, 0
2, 107047, Note_on_c, 0, 50, 90
2, 107500, Note_off_c, 0, 50, 0
2, 107527, Note_on_c, 0, 48, 82
2, 107978, Note_on_c, 0, 51, 111
2, 108007, Note_off_c, 0, 48, 0
2, 108458, Note_on_c, 0, 55, 82
2, 108486, Note_off_c, 0, 51, 0
2, 108923, Note_on_c, 0, 48, 90
2, 108938, Note_off_c, 0, 55, 0
2, 109365, Note_off_c, 0, 48, 0
2, 109417, Note_on_c, 0, 43, 90
2, 109895, Note_on_c, 0, 46, 111
2, 109935, Note_off_c, 0, 43, 0
2, 110361, Note_on_c, 0, 51, 111
2, 110375, Note_off_c, 0, 46, 0
2, 110790, Note_off_c, 0, 51, 0
2, 110842, Note_on_c, 0, 43, 90
2, 111320, Note_off_c, 0, 43, 0
2, 111333, Note_on_c, 0, 44, 124
2, 111798, Note_off_c, 0, 44, 0
2, 111838, Note_on_c, 0, 48, 82
2, 112303, Note_off_c, 0, 48, 0
2, 112303, Note_on_c, 0, 51, 90
2, 112795, Note_on_c, 0, 45, 103
2, 112796, Note_off_c, 0, 51, 0
2, 113248, Note_off_c, 0, 45, 0
2, 113262, Note_on_c, 0, 46, 111
2, 113727, Note_off_c, 0, 46, 0
2, 113740, Note_on_c, 0, 50, 90
2, 114206, Note_off_c, 0, 50, 0
2, 114218, Note_on_c, 0, 53, 83
2, 114700, Note_off_c, 0, 53, 0
2, 114700, Note_on_c, 0, 47, 103
2, 115177, Note_on_c, 0, 48, 82
2, 115178, Note_off_c, 0, 47, 0
2, 115671, Note_off_c, 0, 48, 0
2, 115671, Note_on_c, 0, 51, 124
2, 116148, Note_on_c, 0, 55, 82
2, 116163, Note_off_c, 0, 51, 0
2, 116577, Note_off_c, 0, 55, 0
2, 116616, Note_on_c, 0, 48, 90
2, 117095, Note_off_c, 0, 48, 0
2, 117107, Note_on_c, 0, 56, 111
2, 117585, Note_on_c, 0, 55, 90
2, 117613, Note_off_c, 0, 56, 0
2, 118052, Note_on_c, 0, 53, 103
2, 118080, Note_off_c, 0, 55, 0
2, 118518, Note_on_c, 0, 51, 111
2, 118545, Note_off_c, 0, 53, 0
2, 119008, Note_on_c, 0, 50, 103
2, 119037, Note_off_c, 0, 51, 0
2, 119501, Note_on_c, 0, 48, 90
2, 119502, Note_off_c, 0, 50, 0
2, 119980, Note_on_c, 0, 46, 111
2, 120008, Note_off_c, 0, 48, 0
2, 120461, Note_off_c, 0, 46, 0
2, 120475, Note_on_c, 0, 44, 111
2, 120952, Note_on_c, 0, 43, 90
2, 120953, Note_off_c, 0, 44, 0
2, 121430, Note_on_c, 0, 51, 111
2, 121486, Note_off_c, 0, 43, 0
2, 121886, Note_off_c, 0, 51, 0
2, 121912, Note_on_c, 0, 44, 111
2, 122403, Note_on_c, 0, 53, 82
2, 122405, Note_off_c, 0, 44, 0
2, 122858, Note_off_c, 0, 53, 0
2, 122871, Note_on_c, 0, 46, 111
2, 123348, Note_on_c, 0, 51, 103
2, 123363, Note_off_c, 0, 46, 0
2, 123788, Note_on_c, 0, 50, 80
2, 123830, Note_off_c, 0, 51, 0
2, 124320, Note_on_c, 0, 46, 103
2, 124335, Note_off_c, 0, 50, 0
2, 124746, Note_off_c, 0, 46, 0
2, 124823, Note_on_c, 0, 39, 111
2, 125223, Note_off_c, 0, 39, 0
2, 125315, Note_on_c, 0, 51, 124
2, 125780, Note_on_c, 0, 53, 83
2, 125807, Note_off_c, 0, 51, 0
2, 126246, Note_on_c, 0, 46, 90
2, 126247, Note_off_c, 0, 53, 0
2, 126673, Note_off_c, 0, 46, 0
2, 127177, Note_on_c, 0, 51, 124
2, 127630, Note_off_c, 0, 51, 0
2, 127656, Note_on_c, 0, 53, 90
2, 128146, Note_on_c, 0, 46, 82
2, 128161, Note_off_c, 0, 53, 0
2, 128638, Note_off_c, 0, 46, 0
2, 129116, Note_on_c, 0, 51, 111
2, 129593, Note_on_c, 0, 53, 81
2, 129636, Note_off_c, 0, 51, 0
2, 130061, Note_on_c, 0, 46, 73
2, 130088, Note_off_c, 0, 53, 0
2, 130502, Note_off_c, 0, 46, 0
2, 130541, Note_on_c, 0, 51, 103
2, 131018, Note_on_c, 0, 55, 90
2, 131046, Note_off_c, 0, 51, 0
2, 131510, Note_on_c, 0, 58, 90
2, 131525, Note_off_c, 0, 55, 0
2, 131977, Note_off_c, 0, 58, 0
2, 131977, Note_on_c, 0, 49, 103
2, 132442, Note_on_c, 0, 48, 82
2, 132443, Note_off_c, 0, 49, 0
2, 132947, Note_on_c, 0, 51, 111
2, 133013, Note_off_c, 0, 48, 0
2, 133413, Note_on_c, 0, 56, 103
2, 133440, Note_off_c, 0, 51, 0
2, 133892, Note_on_c, 0, 48, 82
2, 133893, Note_off_c, 0, 56, 0
2, 134346, Note_off_c, 0, 48, 0
2, 134372, Note_on_c, 0, 46, 111
2, 134875, Note_on_c, 0, 49, 90
2, 134890, Note_off_c, 0, 46, 0
2, 135341, Note_on_c, 0, 55, 90
2, 135368, Note_off_c, 0, 49, 0
2, 135846, Note_on_c, 0, 46, 111
2, 135886, Note_off_c, 0, 55, 0
2, 136312, Note_on_c, 0, 44, 83
2, 136313, Note_off_c, 0, 46, 0
2, 136765, Note_on_c, 0, 51, 73
2, 136792, Note_off_c, 0, 44, 0
2, 137245, Note_off_c, 0, 51, 0
2, 137245, Note_on_c, 0, 48, 81
2, 137741, Note_on_c, 0, 46, 82
2, 137770, Note_off_c, 0, 48, 0
2, 138223, Note_off_c, 0, 46, 0
2, 138236, Note_on_c, 0, 45, 103
2, 138712, Note_on_c, 0, 51, 83
2, 138741, Note_off_c, 0, 45, 0
2, 139205, Note_on_c, 0, 46, 111
2, 139232, Note_off_c, 0, 51, 0
2, 139696, Note_on_c, 0, 51, 103
2, 139711, Note_off_c, 0, 46, 0
2, 140190, Note_on_c, 0, 48, 103
2, 140203, Note_off_c, 0, 51, 0
2, 140655, Note_on_c, 0, 51, 111
2, 140682, Note_off_c, 0, 48, 0
2, 141121, Note_off_c, 0, 51, 0
2, 141135, Note_on_c, 0, 46, 124
2, 141600, Note_on_c, 0, 51, 111
2, 141601, Note_off_c, 0, 46, 0
2, 142078, Note_off_c, 0, 51, 0
2, 142092, Note_on_c, 0, 45, 124
2, 142568, Note_on_c, 0, 51, 90
2, 142610, Note_off_c, 0, 45, 0
2, 143022, Note_on_c, 0, 46, 111
2, 143023, Note_off_c, 0, 51, 0
2, 143501, Note_on_c, 0, 51, 83
2, 143528, Note_off_c, 0, 46, 0
2, 143981, Note_off_c, 0, 51, 0
2, 143995, Note_on_c, 0, 48, 90
2, 144486, Note_on_c, 0, 51, 103
2, 144512, Note_off_c, 0, 48, 0
2, 144965, Note_off_c, 0, 51, 0
2, 144977, Note_on_c, 0, 46, 124
2, 145442, Note_on_c, 0, 51, 103
2, 145457, Note_off_c, 0, 46, 0
2, 145897, Note_off_c, 0, 51, 0
2, 145923, Note_on_c, 0, 44, 111
2, 146376, Note_on_c, 0, 48, 81
2, 146402, Note_off_c, 0, 44, 0
2, 146841, Note_on_c, 0, 51, 82
2, 146882, Note_off_c, 0, 48, 0
2, 147308, Note_off_c, 0, 51, 0
2, 147321, Note_on_c, 0, 44, 111
2, 147825, Note_off_c, 0, 44, 0
2, 147838, Note_on_c, 0, 45, 103
2, 148320, Note_on_c, 0, 48, 103
2, 148321, Note_off_c, 0, 45, 0
2, 148785, Note_on_c, 0, 51, 103
2, 148800, Note_off_c, 0, 48, 0
2, 149277, Note_on_c, 0, 45, 83
2, 149278, Note_off_c, 0, 51, 0
2, 149743, Note_off_c, 0, 45, 0
2, 149757, Note_on_c, 0, 46, 124
2, 150235, Note_on_c, 0, 51, 81
2, 150251, Note_off_c, 0, 46, 0
2, 150701, Note_on_c, 0, 55, 83
2, 150716, Note_off_c, 0, 51, 0
2, 151218, Note_on_c, 0, 58, 90
2, 151246, Note_off_c, 0, 55, 0
2, 151711, Note_on_c, 0, 46, 83
2, 151737, Note_off_c, 0, 58, 0
2, 152176, Note_on_c, 0, 45, 82
2, 152191, Note_off_c, 0, 46, 0
2, 152641, Note_on_c, 0, 46, 90
2, 152670, Note_off_c, 0, 45, 0
2, 153006, Note_off_c, 0, 46, 0
2, 153136, Note_on_c, 0, 46, 103
2, 153511, Note_off_c, 0, 46, 0
2, 153613, Note_on_c, 0, 51, 103
2, 154581, Note_off_c, 0, 51, 0
2, 155508, Note_on_c, 0, 58, 111
2, 156463, Note_off_c, 0, 58, 0
2, 156477, Note_on_c, 0, 46, 103
2, 157316, Note_off_c, 0, 46, 0
2, 157420, Note_on_c, 0, 51, 66
2, 157808, Note_off_c, 0, 51, 0
2, 157925, Note_on_c, 0, 51, 111
2, 158222, Note_off_c, 0, 51, 0
2, 158428, Note_on_c, 0, 51, 90
2, 158701, Note_off_c, 0, 51, 0
2, 158895, Note_on_c, 0, 51, 103
2, 159155, Note_off_c, 0, 51, 0
2, 159375, Note_on_c, 0, 51, 111
2, 159661, Note_off_c, 0, 51, 0
2, 159893, Note_on_c, 0, 51, 103
2, 160128, Note_off_c, 0, 51, 0
2, 160336, Note_on_c, 0, 51, 90
2, 160608, Note_off_c, 0, 51, 0
2, 160801, Note_on_c, 0, 51, 111
2, 161113, Note_off_c, 0, 51, 0
2, 161282, Note_on_c, 0, 51, 103
2, 161592, Note_off_c, 0, 51, 0
2, 161747, Note_on_c, 0, 51, 103
2, 162007, Note_off_c, 0, 51, 0
2, 162201, Note_on_c, 0, 51, 90
2, 162487, Note_off_c, 0, 51, 0
2, 162693, Note_on_c, 0, 51, 83
2, 162927, Note_off_c, 0, 51, 0
2, 163172, Note_on_c, 0, 51, 90
2, 163536, Note_off_c, 0, 51, 0
2, 163691, Note_on_c, 0, 51, 103
2, 164002, Note_off_c, 0, 51, 0
2, 164157, Note_on_c, 0, 51, 103
2, 164483, Note_off_c, 0, 51, 0
2, 164638, Note_on_c, 0, 51, 90
2, 164923, Note_off_c, 0, 51, 0
2, 165117, Note_on_c, 0, 51, 90
2, 165416, Note_off_c, 0, 51, 0
2, 165585, Note_on_c, 0, 51, 103
2, 165845, Note_off_c, 0, 51, 0
2, 166090, Note_on_c, 0, 51, 90
2, 166376, Note_off_c, 0, 51, 0
2, 166570, Note_on_c, 0, 51, 103
2, 166830, Note_off_c, 0, 51, 0
2, 167036, Note_on_c, 0, 51, 103
2, 167360, Note_off_c, 0, 51, 0
2, 167528, Note_on_c, 0, 51, 90
2, 167788, Note_off_c, 0, 51, 0
2, 167995, Note_on_c, 0, 51, 83
2, 168280, Note_off_c, 0, 51, 0
2, 168473, Note_on_c, 0, 51, 90
2, 168747, Note_off_c, 0, 51, 0
2, 168953, Note_on_c, 0, 51, 83
2, 169393, Note_off_c, 0, 51, 0
2, 169883, Note_on_c, 0, 58, 111
2, 170850, Note_on_c, 0, 51, 82
2, 170865, Note_off_c, 0, 58, 0
2, 171265, Note_off_c, 0, 51, 0
2, 171818, Note_on_c, 0, 58, 103
2, 172760, Note_on_c, 0, 51, 80
2, 172775, Note_off_c, 0, 58, 0
2, 173252, Note_off_c, 0, 51, 0
2, 173756, Note_on_c, 0, 46, 82
2, 174736, Note_on_c, 0, 39, 80
2, 174763, Note_off_c, 0, 46, 0
2, 175216, Note_off_c, 0, 39, 0
2, 175216, End_track
3, 0, Start_track
3, 0, Title_t, "Oboekomp"
3, 0, MIDI_port, 0
3, 0, Channel_prefix, 1
3, 0, Control_c, 1, 7, 70
3, 0, Control_c, 1, 10, 26
3, 0, Control_c, 1, 0, 0
3, 0, Control_c, 1, 32, 0
3, 0, Control_c, 1, 93, 0
3, 0, Program_c, 1, 68
3, 3857, Note_on_c, 1, 63, 80
3, 3965, Note_off_c, 1, 63, 0
3, 4083, Note_on_c, 1, 63, 45
3, 4201, Note_off_c, 1, 63, 0
3, 4541, Note_on_c, 1, 63, 82
3, 4683, Note_off_c, 1, 63, 0
3, 4777, Note_on_c, 1, 63, 80
3, 4861, Note_off_c, 1, 63, 0
3, 5015, Note_on_c, 1, 63, 52
3, 5087, Note_off_c, 1, 63, 0
3, 5508, Note_on_c, 1, 63, 80
3, 5735, Note_on_c, 1, 70, 82
3, 5758, Note_off_c, 1, 63, 0
3, 5842, Note_off_c, 1, 70, 0
3, 5983, Note_on_c, 1, 70, 82
3, 6078, Note_off_c, 1, 70, 0
3, 6455, Note_on_c, 1, 70, 90
3, 6607, Note_off_c, 1, 70, 0
3, 6690, Note_on_c, 1, 70, 103
3, 6796, Note_off_c, 1, 70, 0
3, 6937, Note_on_c, 1, 70, 103
3, 7021, Note_off_c, 1, 70, 0
3, 7418, Note_on_c, 1, 70, 111
3, 7643, Note_off_c, 1, 70, 0
3, 7655, Note_on_c, 1, 75, 103
3, 7785, Note_off_c, 1, 75, 0
3, 7926, Note_on_c, 1, 75, 103
3, 8045, Note_off_c, 1, 75, 0
3, 8396, Note_on_c, 1, 75, 103
3, 8515, Note_off_c, 1, 75, 0
3, 8632, Note_on_c, 1, 75, 90
3, 8703, Note_off_c, 1, 75, 0
3, 8880, Note_on_c, 1, 75, 83
3, 8975, Note_off_c, 1, 75, 0
3, 9351, Note_on_c, 1, 67, 82
3, 9553, Note_off_c, 1, 67, 0
3, 9577, Note_on_c, 1, 65, 73
3, 9720, Note_off_c, 1, 65, 0
3, 9837, Note_on_c, 1, 65, 73
3, 9933, Note_off_c, 1, 65, 0
3, 10307, Note_on_c, 1, 65, 90
3, 10545, Note_on_c, 1, 68, 72
3, 10546, Note_off_c, 1, 65, 0
3, 10653, Note_off_c, 1, 68, 0
3, 10795, Note_on_c, 1, 68, 81
3, 10877, Note_off_c, 1, 68, 0
3, 11253, Note_on_c, 1, 65, 73
3, 11477, Note_off_c, 1, 65, 0
3, 11501, Note_on_c, 1, 63, 72
3, 11596, Note_off_c, 1, 63, 0
3, 11750, Note_on_c, 1, 63, 72
3, 11821, Note_off_c, 1, 63, 0
3, 12231, Note_on_c, 1, 63, 66
3, 12396, Note_off_c, 1, 63, 0
3, 12456, Note_on_c, 1, 63, 80
3, 12540, Note_off_c, 1, 63, 0
3, 12692, Note_on_c, 1, 63, 66
3, 12765, Note_off_c, 1, 63, 0
3, 13187, Note_on_c, 1, 63, 82
3, 13388, Note_off_c, 1, 63, 0
3, 13412, Note_on_c, 1, 70, 81
3, 13518, Note_off_c, 1, 70, 0
3, 13660, Note_on_c, 1, 70, 82
3, 13755, Note_off_c, 1, 70, 0
3, 14142, Note_on_c, 1, 70, 90
3, 14318, Note_off_c, 1, 70, 0
3, 14378, Note_on_c, 1, 70, 111
3, 14472, Note_off_c, 1, 70, 0
3, 14626, Note_on_c, 1, 70, 103
3, 14708, Note_off_c, 1, 70, 0
3, 15107, Note_on_c, 1, 70, 111
3, 15330, Note_on_c, 1, 75, 81
3, 15332, Note_off_c, 1, 70, 0
3, 15450, Note_off_c, 1, 75, 0
3, 15578, Note_on_c, 1, 75, 82
3, 15673, Note_off_c, 1, 75, 0
3, 16072, Note_on_c, 1, 67, 80
3, 16226, Note_off_c, 1, 67, 0
3, 16308, Note_on_c, 1, 67, 80
3, 16368, Note_off_c, 1, 67, 0
3, 16556, Note_on_c, 1, 67, 73
3, 16617, Note_off_c, 1, 67, 0
3, 17027, Note_on_c, 1, 67, 90
3, 17228, Note_off_c, 1, 67, 0
3, 17252, Note_on_c, 1, 70, 83
3, 17347, Note_off_c, 1, 70, 0
3, 17500, Note_on_c, 1, 70, 83
3, 17572, Note_off_c, 1, 70, 0
3, 17970, Note_on_c, 1, 70, 103
3, 18136, Note_off_c, 1, 70, 0
3, 18218, Note_on_c, 1, 70, 103
3, 18278, Note_off_c, 1, 70, 0
3, 18455, Note_on_c, 1, 70, 103
3, 18526, Note_off_c, 1, 70, 0
3, 18936, Note_on_c, 1, 70, 103
3, 19137, Note_off_c, 1, 70, 0
3, 19172, Note_on_c, 1, 72, 82
3, 19256, Note_off_c, 1, 72, 0
3, 19432, Note_on_c, 1, 72, 82
3, 19516, Note_off_c, 1, 72, 0
3, 19902, Note_on_c, 1, 72, 82
3, 20056, Note_off_c, 1, 72, 0
3, 20138, Note_on_c, 1, 72, 83
3, 20198, Note_off_c, 1, 72, 0
3, 20375, Note_on_c, 1, 72, 81
3, 20435, Note_off_c, 1, 72, 0
3, 20856, Note_on_c, 1, 72, 83
3, 21068, Note_off_c, 1, 72, 0
3, 21092, Note_on_c, 1, 68, 83
3, 21176, Note_off_c, 1, 68, 0
3, 21328, Note_on_c, 1, 68, 83
3, 21412, Note_off_c, 1, 68, 0
3, 21810, Note_on_c, 1, 68, 103
3, 21965, Note_off_c, 1, 68, 0
3, 22047, Note_on_c, 1, 68, 83
3, 22131, Note_off_c, 1, 68, 0
3, 22295, Note_on_c, 1, 68, 81
3, 22356, Note_off_c, 1, 68, 0
3, 22788, Note_on_c, 1, 68, 103
3, 22966, Note_off_c, 1, 68, 0
3, 23013, Note_on_c, 1, 68, 103
3, 23085, Note_off_c, 1, 68, 0
3, 23261, Note_on_c, 1, 68, 82
3, 23345, Note_off_c, 1, 68, 0
3, 23743, Note_on_c, 1, 68, 103
3, 23943, Note_off_c, 1, 68, 0
3, 23978, Note_on_c, 1, 67, 80
3, 24075, Note_off_c, 1, 67, 0
3, 24227, Note_on_c, 1, 67, 73
3, 24311, Note_off_c, 1, 67, 0
3, 24710, Note_on_c, 1, 67, 103
3, 24933, Note_on_c, 1, 72, 73
3, 24970, Note_off_c, 1, 67, 0
3, 25087, Note_off_c, 1, 72, 0
3, 25205, Note_on_c, 1, 72, 81
3, 25300, Note_off_c, 1, 72, 0
3, 25675, Note_on_c, 1, 72, 90
3, 25840, Note_off_c, 1, 72, 0
3, 25911, Note_on_c, 1, 72, 83
3, 26017, Note_off_c, 1, 72, 0
3, 26158, Note_on_c, 1, 72, 82
3, 26253, Note_off_c, 1, 72, 0
3, 26652, Note_on_c, 1, 72, 82
3, 26863, Note_on_c, 1, 70, 90
3, 26865, Note_off_c, 1, 72, 0
3, 26948, Note_off_c, 1, 70, 0
3, 27101, Note_on_c, 1, 70, 90
3, 27196, Note_off_c, 1, 70, 0
3, 27582, Note_on_c, 1, 70, 111
3, 27771, Note_off_c, 1, 70, 0
3, 27818, Note_on_c, 1, 70, 82
3, 27878, Note_off_c, 1, 70, 0
3, 28078, Note_on_c, 1, 70, 72
3, 28150, Note_off_c, 1, 70, 0
3, 28548, Note_on_c, 1, 70, 103
3, 28750, Note_off_c, 1, 70, 0
3, 28808, Note_on_c, 1, 68, 103
3, 28857, Note_off_c, 1, 68, 0
3, 29021, Note_on_c, 1, 70, 80
3, 29117, Note_off_c, 1, 70, 0
3, 29491, Note_on_c, 1, 70, 111
3, 29726, Note_on_c, 1, 68, 83
3, 29740, Note_off_c, 1, 70, 0
3, 29846, Note_off_c, 1, 68, 0
3, 29975, Note_on_c, 1, 68, 111
3, 30047, Note_off_c, 1, 68, 0
3, 30481, Note_on_c, 1, 68, 111
3, 30705, Note_off_c, 1, 68, 0
3, 30717, Note_on_c, 1, 67, 82
3, 30835, Note_off_c, 1, 67, 0
3, 30953, Note_on_c, 1, 67, 81
3, 31048, Note_off_c, 1, 67, 0
3, 31422, Note_on_c, 1, 67, 90
3, 31647, Note_off_c, 1, 67, 0
3, 31647, Note_on_c, 1, 65, 82
3, 31742, Note_off_c, 1, 65, 0
3, 31907, Note_on_c, 1, 65, 90
3, 31978, Note_off_c, 1, 65, 0
3, 32388, Note_on_c, 1, 62, 80
3, 32625, Note_on_c, 1, 63, 81
3, 32626, Note_off_c, 1, 62, 0
3, 33563, Note_off_c, 1, 63, 0
3, 34595, Note_on_c, 1, 70, 82
3, 37141, Control_c, 1, 1, 2
3, 37165, Control_c, 1, 1, 4
3, 37188, Control_c, 1, 1, 6
3, 37212, Control_c, 1, 1, 8
3, 37237, Control_c, 1, 1, 10
3, 37261, Control_c, 1, 1, 12
3, 37273, Control_c, 1, 1, 14
3, 37298, Control_c, 1, 1, 17
3, 37323, Control_c, 1, 1, 21
3, 37347, Control_c, 1, 1, 25
3, 37383, Control_c, 1, 1, 29
3, 37407, Control_c, 1, 1, 33
3, 37456, Control_c, 1, 1, 37
3, 37492, Control_c, 1, 1, 41
3, 37516, Control_c, 1, 1, 45
3, 37553, Control_c, 1, 1, 49
3, 37721, Control_c, 1, 1, 37
3, 37745, Control_c, 1, 1, 33
3, 37770, Control_c, 1, 1, 29
3, 37806, Control_c, 1, 1, 25
3, 37841, Control_c, 1, 1, 21
3, 37890, Control_c, 1, 1, 17
3, 37926, Control_c, 1, 1, 14
3, 37986, Control_c, 1, 1, 12
3, 38093, Control_c, 1, 1, 10
3, 38130, Control_c, 1, 1, 8
3, 38153, Control_c, 1, 1, 6
3, 38177, Control_c, 1, 1, 4
3, 38213, Control_c, 1, 1, 2
3, 38273, Control_c, 1, 1, 0
3, 38400, Control_c, 1, 32, 0
3, 38400, Control_c, 1, 0, 0
3, 38400, Program_c, 1, 68
3, 38400, Note_on_c, 1, 70, 73
3, 38923, Note_off_c, 1, 70, 0
3, 39341, Note_off_c, 1, 70, 0
3, 40302, Note_on_c, 1, 70, 103
3, 40392, Note_off_c, 1, 70, 0
3, 40533, Note_on_c, 1, 70, 103
3, 40662, Note_off_c, 1, 70, 0
3, 41020, Note_on_c, 1, 70, 111
3, 41187, Note_off_c, 1, 70, 0
3, 41263, Note_on_c, 1, 70, 111
3, 41342, Note_off_c, 1, 70, 0
3, 41482, Note_on_c, 1, 70, 103
3, 41586, Note_off_c, 1, 70, 0
3, 41968, Note_on_c, 1, 70, 111
3, 42161, Note_off_c, 1, 70, 0
3, 42200, Note_on_c, 1, 69, 111
3, 42316, Note_off_c, 1, 69, 0
3, 42456, Note_on_c, 1, 69, 111
3, 42547, Note_off_c, 1, 69, 0
3, 42916, Note_on_c, 1, 69, 111
3, 43147, Note_on_c, 1, 72, 90
3, 43162, Note_off_c, 1, 69, 0
3, 43316, Note_off_c, 1, 72, 0
3, 43392, Note_on_c, 1, 72, 111
3, 43521, Note_off_c, 1, 72, 0
3, 43905, Note_on_c, 1, 72, 111
3, 44135, Note_on_c, 1, 74, 83
3, 44136, Note_off_c, 1, 72, 0
3, 44240, Note_off_c, 1, 74, 0
3, 44353, Note_on_c, 1, 74, 103
3, 44470, Note_off_c, 1, 74, 0
3, 44841, Note_on_c, 1, 74, 111
3, 45045, Note_off_c, 1, 74, 0
3, 45072, Note_on_c, 1, 70, 111
3, 45175, Note_off_c, 1, 70, 0
3, 45315, Note_on_c, 1, 70, 124
3, 45393, Note_off_c, 1, 70, 0
3, 45801, Note_on_c, 1, 70, 111
3, 45968, Note_off_c, 1, 70, 0
3, 46033, Note_on_c, 1, 70, 111
3, 46136, Note_off_c, 1, 70, 0
3, 46290, Note_on_c, 1, 70, 111
3, 46381, Note_off_c, 1, 70, 0
3, 46788, Note_on_c, 1, 70, 111
3, 46970, Note_off_c, 1, 70, 0
3, 47032, Note_on_c, 1, 70, 111
3, 47150, Note_off_c, 1, 70, 0
3, 47290, Note_on_c, 1, 70, 90
3, 47380, Note_off_c, 1, 70, 0
3, 47750, Note_on_c, 1, 70, 111
3, 47930, Note_off_c, 1, 70, 0
3, 47993, Note_on_c, 1, 70, 111
3, 48122, Note_off_c, 1, 70, 0
3, 48251, Note_on_c, 1, 70, 103
3, 48366, Note_off_c, 1, 70, 0
3, 48711, Note_on_c, 1, 70, 111
3, 48865, Note_off_c, 1, 70, 0
3, 48955, Note_on_c, 1, 70, 124
3, 49032, Note_off_c, 1, 70, 0
3, 49198, Note_on_c, 1, 70, 103
3, 49302, Note_off_c, 1, 70, 0
3, 49672, Note_on_c, 1, 70, 111
3, 49827, Note_off_c, 1, 70, 0
3, 49917, Note_on_c, 1, 70, 124
3, 50007, Note_off_c, 1, 70, 0
3, 50173, Note_on_c, 1, 70, 111
3, 50277, Note_off_c, 1, 70, 0
3, 50647, Note_on_c, 1, 70, 111
3, 50802, Note_off_c, 1, 70, 0
3, 50903, Note_on_c, 1, 70, 111
3, 50993, Note_off_c, 1, 70, 0
3, 51148, Note_on_c, 1, 70, 103
3, 51251, Note_off_c, 1, 70, 0
3, 51595, Note_on_c, 1, 70, 124
3, 51737, Note_off_c, 1, 70, 0
3, 51827, Note_on_c, 1, 70, 111
3, 51942, Note_off_c, 1, 70, 0
3, 52083, Note_on_c, 1, 70, 103
3, 52175, Note_off_c, 1, 70, 0
3, 52545, Note_on_c, 1, 70, 124
3, 52698, Note_off_c, 1, 70, 0
3, 52802, Note_on_c, 1, 70, 124
3, 52892, Note_off_c, 1, 70, 0
3, 53032, Note_on_c, 1, 70, 111
3, 53123, Note_off_c, 1, 70, 0
3, 53506, Note_on_c, 1, 70, 124
3, 53686, Note_off_c, 1, 70, 0
3, 53723, Note_on_c, 1, 72, 103
3, 53853, Note_off_c, 1, 72, 0
3, 53981, Note_on_c, 1, 72, 90
3, 54096, Note_off_c, 1, 72, 0
3, 54441, Note_on_c, 1, 72, 124
3, 54608, Note_off_c, 1, 72, 0
3, 54685, Note_on_c, 1, 72, 103
3, 54776, Note_off_c, 1, 72, 0
3, 54930, Note_on_c, 1, 72, 83
3, 55007, Note_off_c, 1, 72, 0
3, 55390, Note_on_c, 1, 72, 111
3, 55620, Note_on_c, 1, 73, 103
3, 55647, Note_off_c, 1, 72, 0
3, 55762, Note_off_c, 1, 73, 0
3, 55878, Note_on_c, 1, 73, 124
3, 56006, Note_off_c, 1, 73, 0
3, 56363, Note_on_c, 1, 73, 111
3, 56531, Note_off_c, 1, 73, 0
3, 56595, Note_on_c, 1, 73, 124
3, 56698, Note_off_c, 1, 73, 0
3, 56838, Note_on_c, 1, 73, 124
3, 56928, Note_off_c, 1, 73, 0
3, 57325, Note_on_c, 1, 73, 124
3, 57517, Note_off_c, 1, 73, 0
3, 57556, Note_on_c, 1, 74, 103
3, 57685, Note_off_c, 1, 74, 0
3, 57812, Note_on_c, 1, 74, 90
3, 57928, Note_off_c, 1, 74, 0
3, 58286, Note_on_c, 1, 74, 111
3, 58441, Note_off_c, 1, 74, 0
3, 58530, Note_on_c, 1, 74, 103
3, 58608, Note_off_c, 1, 74, 0
3, 58761, Note_on_c, 1, 74, 103
3, 58840, Note_off_c, 1, 74, 0
3, 59260, Note_on_c, 1, 70, 124
3, 59466, Note_off_c, 1, 70, 0
3, 59492, Note_on_c, 1, 77, 111
3, 59596, Note_off_c, 1, 77, 0
3, 59736, Note_on_c, 1, 77, 83
3, 59840, Note_off_c, 1, 77, 0
3, 60197, Note_on_c, 1, 77, 103
3, 60377, Note_off_c, 1, 77, 0
3, 60441, Note_on_c, 1, 77, 111
3, 60518, Note_off_c, 1, 77, 0
3, 60685, Note_on_c, 1, 77, 90
3, 60751, Note_off_c, 1, 77, 0
3, 61185, Note_on_c, 1, 77, 90
3, 61263, Note_off_c, 1, 77, 0
3, 61430, Note_on_c, 1, 70, 111
3, 62208, Note_off_c, 1, 70, 0
3, 65281, Note_on_c, 1, 70, 83
3, 65385, Note_off_c, 1, 70, 0
3, 65525, Note_on_c, 1, 70, 90
3, 65653, Note_off_c, 1, 70, 0
3, 66000, Note_on_c, 1, 70, 103
3, 66167, Note_off_c, 1, 70, 0
3, 66231, Note_on_c, 1, 70, 103
3, 66346, Note_off_c, 1, 70, 0
3, 66487, Note_on_c, 1, 70, 103
3, 66578, Note_off_c, 1, 70, 0
3, 66947, Note_on_c, 1, 70, 103
3, 67090, Note_off_c, 1, 70, 0
3, 67191, Note_on_c, 1, 70, 103
3, 67295, Note_off_c, 1, 70, 0
3, 67423, Note_on_c, 1, 70, 90
3, 67538, Note_off_c, 1, 70, 0
3, 67883, Note_on_c, 1, 70, 111
3, 68037, Note_off_c, 1, 70, 0
3, 68128, Note_on_c, 1, 70, 103
3, 68218, Note_off_c, 1, 70, 0
3, 68358, Note_on_c, 1, 70, 103
3, 68475, Note_off_c, 1, 70, 0
3, 68845, Note_on_c, 1, 70, 103
3, 68923, Note_off_c, 1, 70, 0
3, 69076, Note_on_c, 1, 70, 103
3, 69206, Note_off_c, 1, 70, 0
3, 69321, Note_on_c, 1, 70, 81
3, 69436, Note_off_c, 1, 70, 0
3, 69807, Note_on_c, 1, 70, 124
3, 69962, Note_off_c, 1, 70, 0
3, 70051, Note_on_c, 1, 70, 103
3, 70141, Note_off_c, 1, 70, 0
3, 70282, Note_on_c, 1, 70, 90
3, 70372, Note_off_c, 1, 70, 0
3, 70793, Note_on_c, 1, 70, 111
3, 70987, Note_off_c, 1, 70, 0
3, 71026, Note_on_c, 1, 68, 111
3, 71141, Note_off_c, 1, 68, 0
3, 71268, Note_on_c, 1, 68, 103
3, 71347, Note_off_c, 1, 68, 0
3, 71742, Note_on_c, 1, 68, 111
3, 71885, Note_off_c, 1, 68, 0
3, 71973, Note_on_c, 1, 68, 103
3, 72051, Note_off_c, 1, 68, 0
3, 72217, Note_on_c, 1, 68, 103
3, 72296, Note_off_c, 1, 68, 0
3, 72703, Note_on_c, 1, 68, 111
3, 72858, Note_off_c, 1, 68, 0
3, 72936, Note_on_c, 1, 71, 103
3, 73038, Note_off_c, 1, 71, 0
3, 73192, Note_on_c, 1, 71, 90
3, 73296, Note_off_c, 1, 71, 0
3, 73666, Note_on_c, 1, 71, 111
3, 73833, Note_off_c, 1, 71, 0
3, 73911, Note_on_c, 1, 71, 111
3, 74001, Note_off_c, 1, 71, 0
3, 74155, Note_on_c, 1, 71, 103
3, 74258, Note_off_c, 1, 71, 0
3, 74653, Note_on_c, 1, 72, 111
3, 74833, Note_off_c, 1, 72, 0
3, 74885, Note_on_c, 1, 74, 111
3, 74988, Note_off_c, 1, 74, 0
3, 75128, Note_on_c, 1, 74, 103
3, 75245, Note_off_c, 1, 74, 0
3, 75590, Note_on_c, 1, 74, 111
3, 75743, Note_off_c, 1, 74, 0
3, 75808, Note_on_c, 1, 74, 90
3, 75898, Note_off_c, 1, 74, 0
3, 76053, Note_on_c, 1, 74, 90
3, 76118, Note_off_c, 1, 74, 0
3, 76565, Note_on_c, 1, 67, 111
3, 76706, Note_off_c, 1, 67, 0
3, 76808, Note_on_c, 1, 67, 103
3, 76963, Note_off_c, 1, 67, 0
3, 77052, Note_on_c, 1, 67, 81
3, 77130, Note_off_c, 1, 67, 0
3, 77526, Note_on_c, 1, 67, 103
3, 77732, Note_off_c, 1, 67, 0
3, 77745, Note_on_c, 1, 72, 111
3, 77900, Note_off_c, 1, 72, 0
3, 78015, Note_on_c, 1, 72, 90
3, 78080, Note_off_c, 1, 72, 0
3, 78488, Note_on_c, 1, 72, 111
3, 78628, Note_off_c, 1, 72, 0
3, 78718, Note_on_c, 1, 72, 111
3, 78861, Note_off_c, 1, 72, 0
3, 78962, Note_on_c, 1, 72, 103
3, 79041, Note_off_c, 1, 72, 0
3, 79448, Note_on_c, 1, 72, 111
3, 79591, Note_off_c, 1, 72, 0
3, 79680, Note_on_c, 1, 72, 111
3, 79821, Note_off_c, 1, 72, 0
3, 79923, Note_on_c, 1, 72, 103
3, 79988, Note_off_c, 1, 72, 0
3, 80435, Note_on_c, 1, 72, 124
3, 80551, Note_off_c, 1, 72, 0
3, 80677, Note_on_c, 1, 72, 124
3, 80820, Note_off_c, 1, 72, 0
3, 80935, Note_on_c, 1, 72, 111
3, 81025, Note_off_c, 1, 72, 0
3, 81345, Note_on_c, 1, 72, 111
3, 81486, Note_off_c, 1, 72, 0
3, 81587, Note_on_c, 1, 72, 111
3, 81678, Note_off_c, 1, 72, 0
3, 81818, Note_on_c, 1, 72, 90
3, 81922, Note_off_c, 1, 72, 0
3, 82318, Note_on_c, 1, 72, 90
3, 82536, Note_on_c, 1, 84, 83
3, 82537, Note_off_c, 1, 72, 0
3, 82677, Note_off_c, 1, 84, 0
3, 82780, Note_on_c, 1, 84, 83
3, 82871, Note_off_c, 1, 84, 0
3, 83281, Note_on_c, 1, 84, 103
3, 83397, Note_off_c, 1, 84, 0
3, 83487, Note_on_c, 1, 84, 66
3, 83591, Note_off_c, 1, 84, 0
3, 83757, Note_on_c, 1, 84, 66
3, 83835, Note_off_c, 1, 84, 0
3, 84256, Note_on_c, 1, 84, 103
3, 84386, Note_off_c, 1, 84, 0
3, 84487, Note_on_c, 1, 84, 90
3, 84590, Note_off_c, 1, 84, 0
3, 84731, Note_on_c, 1, 84, 82
3, 84810, Note_off_c, 1, 84, 0
3, 85205, Note_on_c, 1, 84, 90
3, 85358, Note_off_c, 1, 84, 0
3, 85436, Note_on_c, 1, 84, 103
3, 85513, Note_off_c, 1, 84, 0
3, 85667, Note_on_c, 1, 84, 90
3, 85746, Note_off_c, 1, 84, 0
3, 86141, Note_on_c, 1, 84, 103
3, 86321, Note_off_c, 1, 84, 0
3, 86372, Note_on_c, 1, 72, 83
3, 86463, Note_off_c, 1, 72, 0
3, 86616, Note_on_c, 1, 72, 90
3, 86707, Note_off_c, 1, 72, 0
3, 87116, Note_on_c, 1, 72, 124
3, 87270, Note_off_c, 1, 72, 0
3, 87347, Note_on_c, 1, 72, 111
3, 87437, Note_off_c, 1, 72, 0
3, 87591, Note_on_c, 1, 72, 111
3, 87668, Note_off_c, 1, 72, 0
3, 88090, Note_on_c, 1, 72, 111
3, 88270, Note_off_c, 1, 72, 0
3, 88320, Control_c, 1, 32, 0
3, 88320, Control_c, 1, 0, 0
3, 88320, Program_c, 1, 68
3, 88326, Note_on_c, 1, 72, 83
3, 88430, Note_off_c, 1, 72, 0
3, 88545, Note_on_c, 1, 72, 82
3, 88647, Note_off_c, 1, 72, 0
3, 89018, Note_on_c, 1, 72, 103
3, 89198, Note_off_c, 1, 72, 0
3, 89262, Note_on_c, 1, 70, 111
3, 89353, Note_off_c, 1, 70, 0
3, 89506, Note_on_c, 1, 70, 111
3, 89583, Note_off_c, 1, 70, 0
3, 90003, Note_on_c, 1, 70, 124
3, 90183, Note_off_c, 1, 70, 0
3, 90236, Note_on_c, 1, 69, 111
3, 90340, Note_off_c, 1, 69, 0
3, 90467, Note_on_c, 1, 69, 111
3, 90557, Note_off_c, 1, 69, 0
3, 90952, Note_on_c, 1, 69, 124
3, 91120, Note_off_c, 1, 69, 0
3, 91171, Note_on_c, 1, 74, 103
3, 91261, Note_off_c, 1, 74, 0
3, 91415, Note_on_c, 1, 74, 90
3, 91518, Note_off_c, 1, 74, 0
3, 91940, Note_on_c, 1, 74, 111
3, 92095, Note_off_c, 1, 74, 0
3, 92170, Note_on_c, 1, 74, 111
3, 92275, Note_off_c, 1, 74, 0
3, 92402, Note_on_c, 1, 74, 103
3, 92480, Note_off_c, 1, 74, 0
3, 92888, Note_on_c, 1, 70, 124
3, 93003, Note_off_c, 1, 70, 0
3, 93106, Note_on_c, 1, 70, 124
3, 93183, Note_off_c, 1, 70, 0
3, 93350, Note_on_c, 1, 70, 124
3, 93441, Note_off_c, 1, 70, 0
3, 93835, Note_on_c, 1, 70, 124
3, 93977, Note_off_c, 1, 70, 0
3, 94066, Note_on_c, 1, 70, 111
3, 94145, Note_off_c, 1, 70, 0
3, 94311, Note_on_c, 1, 70, 111
3, 94388, Note_off_c, 1, 70, 0
3, 96693, Note_on_c, 1, 68, 111
3, 96833, Note_off_c, 1, 68, 0
3, 96937, Note_on_c, 1, 68, 111
3, 97015, Note_off_c, 1, 68, 0
3, 97181, Note_on_c, 1, 68, 103
3, 97258, Note_off_c, 1, 68, 0
3, 97667, Note_on_c, 1, 68, 111
3, 97796, Note_off_c, 1, 68, 0
3, 97897, Note_on_c, 1, 68, 111
3, 97963, Note_off_c, 1, 68, 0
3, 98142, Note_on_c, 1, 68, 111
3, 98206, Note_off_c, 1, 68, 0
3, 99840, Control_c, 1, 32, 0
3, 99840, Control_c, 1, 0, 0
3, 99840, Program_c, 1, 68
3, 103690, Note_on_c, 1, 63, 103
3, 103807, Note_off_c, 1, 63, 0
3, 103923, Note_on_c, 1, 63, 82
3, 104041, Note_off_c, 1, 63, 0
3, 104388, Note_on_c, 1, 63, 111
3, 104558, Note_off_c, 1, 63, 0
3, 104623, Note_on_c, 1, 63, 103
3, 104715, Note_off_c, 1, 63, 0
3, 104870, Note_on_c, 1, 63, 83
3, 104962, Note_off_c, 1, 63, 0
3, 105348, Note_on_c, 1, 63, 111
3, 105543, Note_off_c, 1, 63, 0
3, 105570, Note_on_c, 1, 70, 124
3, 105688, Note_off_c, 1, 70, 0
3, 105843, Note_on_c, 1, 70, 124
3, 105935, Note_off_c, 1, 70, 0
3, 106321, Note_on_c, 1, 70, 111
3, 106491, Note_off_c, 1, 70, 0
3, 106556, Note_on_c, 1, 70, 111
3, 106673, Note_off_c, 1, 70, 0
3, 106788, Note_on_c, 1, 70, 124
3, 106893, Note_off_c, 1, 70, 0
3, 107292, Note_on_c, 1, 70, 124
3, 107488, Note_off_c, 1, 70, 0
3, 107527, Note_on_c, 1, 75, 111
3, 107632, Note_off_c, 1, 75, 0
3, 107760, Note_on_c, 1, 75, 124
3, 107840, Note_off_c, 1, 75, 0
3, 108238, Note_on_c, 1, 67, 124
3, 108407, Note_off_c, 1, 67, 0
3, 108486, Note_on_c, 1, 67, 111
3, 108577, Note_off_c, 1, 67, 0
3, 108732, Note_on_c, 1, 67, 103
3, 108798, Note_off_c, 1, 67, 0
3, 109186, Note_on_c, 1, 67, 124
3, 109353, Note_off_c, 1, 67, 0
3, 109420, Note_on_c, 1, 70, 124
3, 109511, Note_off_c, 1, 70, 0
3, 109666, Note_on_c, 1, 70, 124
3, 109771, Note_off_c, 1, 70, 0
3, 110132, Note_on_c, 1, 70, 124
3, 110301, Note_off_c, 1, 70, 0
3, 110378, Note_on_c, 1, 70, 124
3, 110457, Note_off_c, 1, 70, 0
3, 110626, Note_on_c, 1, 70, 111
3, 110717, Note_off_c, 1, 70, 0
3, 111091, Note_on_c, 1, 70, 124
3, 111298, Note_off_c, 1, 70, 0
3, 111325, Note_on_c, 1, 72, 103
3, 111442, Note_off_c, 1, 72, 0
3, 111585, Note_on_c, 1, 72, 90
3, 111675, Note_off_c, 1, 72, 0
3, 112076, Note_on_c, 1, 72, 90
3, 112245, Note_off_c, 1, 72, 0
3, 112310, Note_on_c, 1, 72, 111
3, 112401, Note_off_c, 1, 72, 0
3, 112556, Note_on_c, 1, 72, 90
3, 112661, Note_off_c, 1, 72, 0
3, 113035, Note_on_c, 1, 72, 111
3, 113217, Note_off_c, 1, 72, 0
3, 113268, Note_on_c, 1, 68, 111
3, 113372, Note_off_c, 1, 68, 0
3, 113513, Note_on_c, 1, 68, 111
3, 113607, Note_off_c, 1, 68, 0
3, 113980, Note_on_c, 1, 68, 124
3, 114123, Note_off_c, 1, 68, 0
3, 114201, Note_on_c, 1, 68, 124
3, 114280, Note_off_c, 1, 68, 0
3, 114447, Note_on_c, 1, 68, 111
3, 114526, Note_off_c, 1, 68, 0
3, 114938, Note_on_c, 1, 68, 111
3, 115095, Note_off_c, 1, 68, 0
3, 115185, Note_on_c, 1, 68, 124
3, 115251, Note_off_c, 1, 68, 0
3, 115420, Note_on_c, 1, 68, 111
3, 115511, Note_off_c, 1, 68, 0
3, 115885, Note_on_c, 1, 68, 124
3, 116131, Note_on_c, 1, 67, 103
3, 116132, Note_off_c, 1, 68, 0
3, 116248, Note_off_c, 1, 67, 0
3, 116391, Note_on_c, 1, 67, 103
3, 116496, Note_off_c, 1, 67, 0
3, 116870, Note_on_c, 1, 67, 111
3, 117051, Note_off_c, 1, 67, 0
3, 117091, Note_on_c, 1, 72, 82
3, 117221, Note_off_c, 1, 72, 0
3, 117350, Note_on_c, 1, 72, 83
3, 117467, Note_off_c, 1, 72, 0
3, 117828, Note_on_c, 1, 72, 111
3, 118010, Note_off_c, 1, 72, 0
3, 118076, Note_on_c, 1, 72, 103
3, 118180, Note_off_c, 1, 72, 0
3, 118308, Note_on_c, 1, 72, 90
3, 118387, Note_off_c, 1, 72, 0
3, 118775, Note_on_c, 1, 72, 111
3, 118968, Note_off_c, 1, 72, 0
3, 118996, Note_on_c, 1, 70, 124
3, 119113, Note_off_c, 1, 70, 0
3, 119253, Note_on_c, 1, 70, 103
3, 119360, Note_off_c, 1, 70, 0
3, 119747, Note_on_c, 1, 70, 111
3, 119902, Note_off_c, 1, 70, 0
3, 119980, Note_on_c, 1, 70, 124
3, 120072, Note_off_c, 1, 70, 0
3, 120227, Note_on_c, 1, 70, 111
3, 120320, Note_off_c, 1, 70, 0
3, 120707, Note_on_c, 1, 70, 124
3, 120875, Note_off_c, 1, 70, 0
3, 120953, Note_on_c, 1, 70, 124
3, 121071, Note_off_c, 1, 70, 0
3, 121187, Note_on_c, 1, 70, 124
3, 121277, Note_off_c, 1, 70, 0
3, 121678, Note_on_c, 1, 70, 125
3, 121885, Note_off_c, 1, 70, 0
3, 121925, Note_on_c, 1, 68, 111
3, 122028, Note_off_c, 1, 68, 0
3, 122158, Note_on_c, 1, 68, 111
3, 122236, Note_off_c, 1, 68, 0
3, 122637, Note_on_c, 1, 68, 124
3, 122831, Note_off_c, 1, 68, 0
3, 122871, Note_on_c, 1, 67, 111
3, 122975, Note_off_c, 1, 67, 0
3, 123103, Note_on_c, 1, 67, 90
3, 123208, Note_off_c, 1, 67, 0
3, 123596, Note_on_c, 1, 67, 124
3, 123816, Note_on_c, 1, 65, 103
3, 123817, Note_off_c, 1, 67, 0
3, 123935, Note_off_c, 1, 65, 0
3, 124063, Note_on_c, 1, 65, 83
3, 124155, Note_off_c, 1, 65, 0
3, 124555, Note_on_c, 1, 62, 103
3, 124698, Note_off_c, 1, 62, 0
3, 124815, Note_on_c, 1, 63, 111
3, 125846, Note_off_c, 1, 63, 0
3, 126742, Note_on_c, 1, 70, 111
3, 128623, Note_off_c, 1, 70, 0
3, 128637, Note_on_c, 1, 82, 111
3, 129700, Control_c, 1, 32, 0
3, 129700, Control_c, 1, 0, 0
3, 129700, Program_c, 1, 68
3, 131522, Note_off_c, 1, 82, 0
3, 134395, Note_on_c, 1, 67, 90
3, 134473, Note_off_c, 1, 67, 0
3, 134642, Note_on_c, 1, 67, 83
3, 134747, Note_off_c, 1, 67, 0
3, 135121, Note_on_c, 1, 67, 111
3, 135263, Note_off_c, 1, 67, 0
3, 135341, Note_on_c, 1, 67, 103
3, 135446, Note_off_c, 1, 67, 0
3, 135602, Note_on_c, 1, 67, 90
3, 135681, Note_off_c, 1, 67, 0
3, 136093, Note_on_c, 1, 67, 111
3, 136288, Note_off_c, 1, 67, 0
3, 136315, Note_on_c, 1, 68, 111
3, 136418, Note_off_c, 1, 68, 0
3, 136561, Note_on_c, 1, 68, 111
3, 136626, Note_off_c, 1, 68, 0
3, 137026, Note_on_c, 1, 68, 111
3, 137221, Note_off_c, 1, 68, 0
3, 137260, Note_on_c, 1, 63, 103
3, 137365, Note_off_c, 1, 63, 0
3, 137506, Note_on_c, 1, 63, 90
3, 137598, Note_off_c, 1, 63, 0
3, 137998, Note_on_c, 1, 63, 111
3, 138167, Note_off_c, 1, 63, 0
3, 138246, Note_on_c, 1, 63, 111
3, 138337, Note_off_c, 1, 63, 0
3, 138478, Note_on_c, 1, 63, 103
3, 138583, Note_off_c, 1, 63, 0
3, 138971, Note_on_c, 1, 63, 103
3, 139138, Note_off_c, 1, 63, 0
3, 139205, Note_on_c, 1, 63, 103
3, 139296, Note_off_c, 1, 63, 0
3, 139451, Note_on_c, 1, 63, 103
3, 139555, Note_off_c, 1, 63, 0
3, 139930, Note_on_c, 1, 63, 124
3, 140086, Note_off_c, 1, 63, 0
3, 140176, Note_on_c, 1, 63, 111
3, 140267, Note_off_c, 1, 63, 0
3, 140410, Note_on_c, 1, 63, 90
3, 140501, Note_off_c, 1, 63, 0
3, 140876, Note_on_c, 1, 63, 111
3, 141018, Note_off_c, 1, 63, 0
3, 141122, Note_on_c, 1, 63, 103
3, 141187, Note_off_c, 1, 63, 0
3, 141368, Note_on_c, 1, 63, 103
3, 141447, Note_off_c, 1, 63, 0
3, 141847, Note_on_c, 1, 63, 111
3, 142030, Note_off_c, 1, 63, 0
3, 142081, Note_on_c, 1, 75, 103
3, 142173, Note_off_c, 1, 75, 0
3, 142327, Note_on_c, 1, 75, 124
3, 142420, Note_off_c, 1, 75, 0
3, 142832, Note_on_c, 1, 75, 124
3, 142988, Note_off_c, 1, 75, 0
3, 143066, Note_on_c, 1, 75, 124
3, 143145, Note_off_c, 1, 75, 0
3, 143300, Note_on_c, 1, 75, 111
3, 143367, Note_off_c, 1, 75, 0
3, 143766, Note_on_c, 1, 75, 124
3, 143910, Note_off_c, 1, 75, 0
3, 143986, Note_on_c, 1, 75, 124
3, 144066, Note_off_c, 1, 75, 0
3, 144233, Note_on_c, 1, 75, 111
3, 144300, Note_off_c, 1, 75, 0
3, 144712, Note_on_c, 1, 75, 124
3, 144842, Note_off_c, 1, 75, 0
3, 144946, Note_on_c, 1, 75, 124
3, 145025, Note_off_c, 1, 75, 0
3, 145206, Note_on_c, 1, 75, 103
3, 145247, Note_off_c, 1, 75, 0
3, 145686, Note_on_c, 1, 67, 111
3, 145867, Note_off_c, 1, 67, 0
3, 145906, Note_on_c, 1, 65, 90
3, 146011, Note_off_c, 1, 65, 0
3, 146152, Note_on_c, 1, 65, 83
3, 146257, Note_off_c, 1, 65, 0
3, 146632, Note_on_c, 1, 65, 124
3, 146788, Note_off_c, 1, 65, 0
3, 146866, Note_on_c, 1, 65, 111
3, 146957, Note_off_c, 1, 65, 0
3, 147112, Note_on_c, 1, 65, 111
3, 147205, Note_off_c, 1, 65, 0
3, 147577, Note_on_c, 1, 77, 124
3, 147735, Note_off_c, 1, 77, 0
3, 147811, Note_on_c, 1, 78, 124
3, 147928, Note_off_c, 1, 78, 0
3, 148071, Note_on_c, 1, 78, 124
3, 148176, Note_off_c, 1, 78, 0
3, 148563, Note_on_c, 1, 78, 124
3, 148745, Note_off_c, 1, 78, 0
3, 148797, Note_on_c, 1, 78, 124
3, 148888, Note_off_c, 1, 78, 0
3, 149056, Note_on_c, 1, 78, 124
3, 149161, Note_off_c, 1, 78, 0
3, 149536, Note_on_c, 1, 78, 124
3, 149768, Note_on_c, 1, 79, 80
3, 149770, Note_off_c, 1, 78, 0
3, 149887, Note_off_c, 1, 79, 0
3, 150028, Note_on_c, 1, 79, 82
3, 150133, Note_off_c, 1, 79, 0
3, 150495, Note_on_c, 1, 75, 124
3, 150665, Note_off_c, 1, 75, 0
3, 150728, Note_on_c, 1, 70, 111
3, 150807, Note_off_c, 1, 70, 0
3, 150975, Note_on_c, 1, 70, 111
3, 151055, Note_off_c, 1, 70, 0
3, 151467, Note_on_c, 1, 67, 82
3, 151662, Note_off_c, 1, 67, 0
3, 151688, Note_on_c, 1, 75, 124
3, 151780, Note_off_c, 1, 75, 0
3, 151936, Note_on_c, 1, 75, 111
3, 152002, Note_off_c, 1, 75, 0
3, 152388, Note_on_c, 1, 75, 80
3, 152565, Note_off_c, 1, 75, 0
3, 152630, Note_on_c, 1, 82, 111
3, 152695, Note_off_c, 1, 82, 0
3, 152863, Note_on_c, 1, 82, 111
3, 152981, Note_off_c, 1, 82, 0
3, 153393, Note_on_c, 1, 70, 90
3, 153498, Note_off_c, 1, 70, 0
3, 153641, Note_on_c, 1, 82, 111
3, 154723, Note_off_c, 1, 82, 0
3, 154776, Note_on_c, 1, 81, 90
3, 154983, Note_off_c, 1, 81, 0
3, 155010, Note_on_c, 1, 80, 111
3, 155230, Note_off_c, 1, 80, 0
3, 155256, Note_on_c, 1, 79, 103
3, 155438, Note_off_c, 1, 79, 0
3, 155490, Note_on_c, 1, 79, 111
3, 156676, Note_off_c, 1, 79, 0
3, 156702, Note_on_c, 1, 77, 90
3, 156936, Note_on_c, 1, 75, 124
3, 156950, Note_off_c, 1, 77, 0
3, 157157, Note_on_c, 1, 77, 83
3, 157171, Note_off_c, 1, 75, 0
3, 157340, Note_off_c, 1, 77, 0
3, 157405, Note_on_c, 1, 75, 111
3, 158347, Note_off_c, 1, 75, 0
3, 163201, Note_on_c, 1, 63, 90
3, 163306, Note_off_c, 1, 63, 0
3, 163448, Note_on_c, 1, 63, 90
3, 163566, Note_off_c, 1, 63, 0
3, 163940, Note_on_c, 1, 63, 90
3, 164096, Note_off_c, 1, 63, 0
3, 164173, Note_on_c, 1, 63, 90
3, 164303, Note_off_c, 1, 63, 0
3, 164433, Note_on_c, 1, 63, 90
3, 164551, Note_off_c, 1, 63, 0
3, 164898, Note_on_c, 1, 63, 111
3, 165030, Note_off_c, 1, 63, 0
3, 165132, Note_on_c, 1, 63, 111
3, 165237, Note_off_c, 1, 63, 0
3, 165392, Note_on_c, 1, 63, 103
3, 165535, Note_off_c, 1, 63, 0
3, 165857, Note_on_c, 1, 63, 111
3, 165962, Note_off_c, 1, 63, 0
3, 166092, Note_on_c, 1, 63, 103
3, 166171, Note_off_c, 1, 63, 0
3, 166338, Note_on_c, 1, 63, 111
3, 166443, Note_off_c, 1, 63, 0
3, 166830, Note_on_c, 1, 63, 111
3, 166973, Note_off_c, 1, 63, 0
3, 167090, Note_on_c, 1, 63, 111
3, 167181, Note_off_c, 1, 63, 0
3, 167323, Note_on_c, 1, 63, 83
3, 167402, Note_off_c, 1, 63, 0
3, 167776, Note_on_c, 1, 63, 111
3, 167881, Note_off_c, 1, 63, 0
3, 167997, Note_on_c, 1, 63, 103
3, 168088, Note_off_c, 1, 63, 0
3, 168245, Note_on_c, 1, 63, 103
3, 168323, Note_off_c, 1, 63, 0
3, 168711, Note_on_c, 1, 63, 90
3, 168815, Note_off_c, 1, 63, 0
3, 168971, Note_on_c, 1, 63, 103
3, 169293, Note_off_c, 1, 63, 0
3, 169900, Note_on_c, 1, 80, 124
3, 170611, Note_on_c, 1, 79, 103
3, 170625, Note_off_c, 1, 80, 0
3, 170742, Note_off_c, 1, 79, 0
3, 170858, Note_on_c, 1, 79, 90
3, 171182, Note_off_c, 1, 79, 0
3, 171815, Note_on_c, 1, 77, 90
3, 172537, Note_on_c, 1, 75, 103
3, 172538, Note_off_c, 1, 77, 0
3, 172643, Note_off_c, 1, 75, 0
3, 172786, Note_on_c, 1, 75, 103
3, 173161, Note_off_c, 1, 75, 0
3, 173755, Note_on_c, 1, 74, 111
3, 174477, Note_on_c, 1, 75, 124
3, 174491, Note_off_c, 1, 74, 0
3, 174595, Note_off_c, 1, 75, 0
3, 174750, Note_on_c, 1, 75, 124
3, 175280, Note_off_c, 1, 75, 0
3, 175280, End_track
4, 0, Start_track
4, 0, Title_t, "Klarkomp"
4, 0, MIDI_port, 0
4, 0, Channel_prefix, 2
4, 0, Control_c, 2, 7, 72
4, 0, Control_c, 2, 10, 55
4, 0, Control_c, 2, 0, 0
4, 0, Control_c, 2, 32, 0
4, 0, Control_c, 2, 93, 0
4, 0, Program_c, 2, 71
4, 3850, Note_on_c, 2, 58, 66
4, 3945, Note_off_c, 2, 58, 0
4, 4086, Note_on_c, 2, 58, 52
4, 4205, Note_off_c, 2, 58, 0
4, 4545, Note_on_c, 2, 58, 83
4, 4710, Note_off_c, 2, 58, 0
4, 4781, Note_on_c, 2, 58, 80
4, 4888, Note_off_c, 2, 58, 0
4, 5017, Note_on_c, 2, 58, 63
4, 5090, Note_off_c, 2, 58, 0
4, 5511, Note_on_c, 2, 58, 82
4, 5735, Note_on_c, 2, 65, 90
4, 5760, Note_off_c, 2, 58, 0
4, 5855, Note_off_c, 2, 65, 0
4, 5983, Note_on_c, 2, 65, 83
4, 6102, Note_off_c, 2, 65, 0
4, 6465, Note_on_c, 2, 65, 90
4, 6630, Note_off_c, 2, 65, 0
4, 6690, Note_on_c, 2, 65, 83
4, 6796, Note_off_c, 2, 65, 0
4, 6925, Note_on_c, 2, 65, 72
4, 7010, Note_off_c, 2, 65, 0
4, 7420, Note_on_c, 2, 65, 90
4, 7643, Note_on_c, 2, 63, 82
4, 7668, Note_off_c, 2, 65, 0
4, 7763, Note_off_c, 2, 63, 0
4, 7892, Note_on_c, 2, 63, 90
4, 7975, Note_off_c, 2, 63, 0
4, 8385, Note_on_c, 2, 67, 83
4, 8575, Note_off_c, 2, 67, 0
4, 8610, Note_on_c, 2, 67, 82
4, 8716, Note_off_c, 2, 67, 0
4, 8858, Note_on_c, 2, 67, 82
4, 8930, Note_off_c, 2, 67, 0
4, 9363, Note_on_c, 2, 63, 80
4, 9528, Note_off_c, 2, 63, 0
4, 9600, Note_on_c, 2, 63, 83
4, 9695, Note_off_c, 2, 63, 0
4, 9836, Note_on_c, 2, 63, 80
4, 9920, Note_off_c, 2, 63, 0
4, 10317, Note_on_c, 2, 63, 103
4, 10507, Note_off_c, 2, 63, 0
4, 10542, Note_on_c, 2, 62, 72
4, 10661, Note_off_c, 2, 62, 0
4, 10791, Note_on_c, 2, 62, 45
4, 10886, Note_off_c, 2, 62, 0
4, 11261, Note_on_c, 2, 62, 83
4, 11485, Note_off_c, 2, 62, 0
4, 11497, Note_on_c, 2, 63, 82
4, 11722, Note_off_c, 2, 63, 0
4, 11746, Note_on_c, 2, 58, 73
4, 11876, Note_off_c, 2, 58, 0
4, 12228, Note_on_c, 2, 58, 90
4, 12416, Note_off_c, 2, 58, 0
4, 12463, Note_on_c, 2, 58, 83
4, 12550, Note_off_c, 2, 58, 0
4, 12691, Note_on_c, 2, 58, 63
4, 12775, Note_off_c, 2, 58, 0
4, 13185, Note_on_c, 2, 63, 80
4, 13408, Note_on_c, 2, 65, 54
4, 13445, Note_off_c, 2, 63, 0
4, 13541, Note_off_c, 2, 65, 0
4, 13657, Note_on_c, 2, 65, 81
4, 13788, Note_off_c, 2, 65, 0
4, 14162, Note_on_c, 2, 65, 82
4, 14328, Note_off_c, 2, 65, 0
4, 14387, Note_on_c, 2, 65, 82
4, 14471, Note_off_c, 2, 65, 0
4, 14635, Note_on_c, 2, 65, 63
4, 14731, Note_off_c, 2, 65, 0
4, 15093, Note_on_c, 2, 65, 82
4, 15328, Note_on_c, 2, 67, 82
4, 15365, Note_off_c, 2, 65, 0
4, 15461, Note_off_c, 2, 67, 0
4, 15590, Note_on_c, 2, 67, 72
4, 15696, Note_off_c, 2, 67, 0
4, 16083, Note_on_c, 2, 63, 73
4, 16261, Note_off_c, 2, 63, 0
4, 16308, Note_on_c, 2, 63, 90
4, 16391, Note_off_c, 2, 63, 0
4, 16556, Note_on_c, 2, 63, 66
4, 16627, Note_off_c, 2, 63, 0
4, 17038, Note_on_c, 2, 63, 83
4, 17215, Note_off_c, 2, 63, 0
4, 17263, Note_on_c, 2, 63, 83
4, 17346, Note_off_c, 2, 63, 0
4, 17511, Note_on_c, 2, 63, 82
4, 17593, Note_off_c, 2, 63, 0
4, 17981, Note_on_c, 2, 67, 73
4, 18170, Note_off_c, 2, 67, 0
4, 18216, Note_on_c, 2, 67, 73
4, 18288, Note_off_c, 2, 67, 0
4, 18453, Note_on_c, 2, 67, 56
4, 18548, Note_off_c, 2, 67, 0
4, 18923, Note_on_c, 2, 67, 82
4, 19171, Note_on_c, 2, 65, 80
4, 19185, Note_off_c, 2, 67, 0
4, 19278, Note_off_c, 2, 65, 0
4, 19420, Note_on_c, 2, 65, 66
4, 19516, Note_off_c, 2, 65, 0
4, 19913, Note_on_c, 2, 65, 82
4, 20091, Note_off_c, 2, 65, 0
4, 20151, Note_on_c, 2, 65, 66
4, 20233, Note_off_c, 2, 65, 0
4, 20387, Note_on_c, 2, 65, 72
4, 20482, Note_off_c, 2, 65, 0
4, 20868, Note_on_c, 2, 65, 82
4, 21035, Note_off_c, 2, 65, 0
4, 21105, Note_on_c, 2, 65, 82
4, 21212, Note_off_c, 2, 65, 0
4, 21341, Note_on_c, 2, 65, 72
4, 21436, Note_off_c, 2, 65, 0
4, 21812, Note_on_c, 2, 65, 82
4, 22000, Note_off_c, 2, 65, 0
4, 22060, Note_on_c, 2, 65, 73
4, 22131, Note_off_c, 2, 65, 0
4, 22296, Note_on_c, 2, 65, 72
4, 22378, Note_off_c, 2, 65, 0
4, 22778, Note_on_c, 2, 65, 82
4, 22991, Note_off_c, 2, 65, 0
4, 23026, Note_on_c, 2, 65, 80
4, 23121, Note_off_c, 2, 65, 0
4, 23286, Note_on_c, 2, 65, 56
4, 23358, Note_off_c, 2, 65, 0
4, 23745, Note_on_c, 2, 65, 83
4, 23981, Note_on_c, 2, 63, 72
4, 23995, Note_off_c, 2, 65, 0
4, 24077, Note_off_c, 2, 63, 0
4, 24218, Note_on_c, 2, 63, 63
4, 24291, Note_off_c, 2, 63, 0
4, 24713, Note_on_c, 2, 67, 81
4, 24960, Note_on_c, 2, 63, 81
4, 24973, Note_off_c, 2, 67, 0
4, 25056, Note_off_c, 2, 63, 0
4, 25197, Note_on_c, 2, 63, 73
4, 25281, Note_off_c, 2, 63, 0
4, 25668, Note_on_c, 2, 70, 82
4, 25903, Note_on_c, 2, 68, 81
4, 25905, Note_off_c, 2, 70, 0
4, 26022, Note_off_c, 2, 68, 0
4, 26152, Note_on_c, 2, 68, 82
4, 26258, Note_off_c, 2, 68, 0
4, 26645, Note_on_c, 2, 67, 83
4, 26868, Note_on_c, 2, 65, 80
4, 26905, Note_off_c, 2, 67, 0
4, 27011, Note_off_c, 2, 65, 0
4, 27117, Note_on_c, 2, 65, 80
4, 27260, Note_off_c, 2, 65, 0
4, 27611, Note_on_c, 2, 63, 103
4, 27822, Note_on_c, 2, 62, 73
4, 27860, Note_off_c, 2, 63, 0
4, 27953, Note_off_c, 2, 62, 0
4, 28072, Note_on_c, 2, 62, 82
4, 28261, Note_off_c, 2, 62, 0
4, 28578, Note_on_c, 2, 74, 83
4, 28801, Note_on_c, 2, 75, 81
4, 28815, Note_off_c, 2, 74, 0
4, 28933, Note_off_c, 2, 75, 0
4, 29062, Note_on_c, 2, 75, 72
4, 29203, Note_off_c, 2, 75, 0
4, 29521, Note_on_c, 2, 67, 83
4, 29686, Note_off_c, 2, 67, 0
4, 29745, Note_on_c, 2, 67, 72
4, 29828, Note_off_c, 2, 67, 0
4, 29981, Note_on_c, 2, 65, 72
4, 30101, Note_off_c, 2, 65, 0
4, 30475, Note_on_c, 2, 65, 83
4, 30698, Note_on_c, 2, 63, 72
4, 30725, Note_off_c, 2, 65, 0
4, 30820, Note_off_c, 2, 63, 0
4, 30961, Note_on_c, 2, 63, 73
4, 31068, Note_off_c, 2, 63, 0
4, 31443, Note_on_c, 2, 63, 80
4, 31655, Note_on_c, 2, 70, 82
4, 31692, Note_off_c, 2, 63, 0
4, 31751, Note_off_c, 2, 70, 0
4, 31892, Note_on_c, 2, 70, 83
4, 32011, Note_off_c, 2, 70, 0
4, 32397, Note_on_c, 2, 58, 82
4, 32587, Note_off_c, 2, 58, 0
4, 32633, Note_on_c, 2, 58, 82
4, 32728, Note_off_c, 2, 58, 0
4, 32881, Note_on_c, 2, 58, 81
4, 32966, Note_off_c, 2, 58, 0
4, 33376, Note_on_c, 2, 63, 111
4, 33600, Note_off_c, 2, 63, 0
4, 33612, Note_on_c, 2, 62, 90
4, 33718, Note_off_c, 2, 62, 0
4, 33848, Note_on_c, 2, 62, 81
4, 33943, Note_off_c, 2, 62, 0
4, 34330, Note_on_c, 2, 65, 83
4, 34553, Note_on_c, 2, 63, 73
4, 34577, Note_off_c, 2, 65, 0
4, 34650, Note_off_c, 2, 63, 0
4, 34802, Note_on_c, 2, 63, 81
4, 34908, Note_off_c, 2, 63, 0
4, 35272, Note_on_c, 2, 63, 111
4, 35496, Note_on_c, 2, 62, 80
4, 35521, Note_off_c, 2, 63, 0
4, 35603, Note_off_c, 2, 62, 0
4, 35745, Note_on_c, 2, 62, 81
4, 35865, Note_off_c, 2, 62, 0
4, 36228, Note_on_c, 2, 65, 90
4, 36452, Note_on_c, 2, 63, 73
4, 36476, Note_off_c, 2, 65, 0
4, 36582, Note_off_c, 2, 63, 0
4, 36700, Note_on_c, 2, 63, 83
4, 36783, Note_off_c, 2, 63, 0
4, 37181, Note_on_c, 2, 63, 111
4, 37405, Note_on_c, 2, 62, 80
4, 37430, Note_off_c, 2, 63, 0
4, 37525, Note_off_c, 2, 62, 0
4, 37653, Note_on_c, 2, 62, 82
4, 37748, Note_off_c, 2, 62, 0
4, 38136, Note_on_c, 2, 65, 83
4, 38372, Note_off_c, 2, 65, 0
4, 38400, Control_c, 2, 32, 0
4, 38400, Control_c, 2, 0, 0
4, 38400, Program_c, 2, 71
4, 38407, Note_on_c, 2, 63, 124
4, 38438, Note_on_c, 2, 63, 81
4, 38511, Note_off_c, 2, 63, 0
4, 38545, Note_off_c, 2, 63, 0
4, 38650, Note_on_c, 2, 63, 124
4, 38767, Note_off_c, 2, 63, 0
4, 39072, Note_on_c, 2, 63, 124
4, 39213, Note_off_c, 2, 63, 0
4, 39291, Note_on_c, 2, 63, 124
4, 39393, Note_off_c, 2, 63, 0
4, 39535, Note_on_c, 2, 63, 124
4, 39625, Note_off_c, 2, 63, 0
4, 40020, Note_on_c, 2, 63, 124
4, 40225, Note_off_c, 2, 63, 0
4, 40277, Note_on_c, 2, 65, 103
4, 40355, Note_off_c, 2, 65, 0
4, 40520, Note_on_c, 2, 65, 103
4, 40598, Note_off_c, 2, 65, 0
4, 41006, Note_on_c, 2, 65, 124
4, 41147, Note_off_c, 2, 65, 0
4, 41237, Note_on_c, 2, 65, 124
4, 41341, Note_off_c, 2, 65, 0
4, 41467, Note_on_c, 2, 65, 111
4, 41546, Note_off_c, 2, 65, 0
4, 41980, Note_on_c, 2, 65, 124
4, 42121, Note_off_c, 2, 65, 0
4, 42210, Note_on_c, 2, 65, 124
4, 42313, Note_off_c, 2, 65, 0
4, 42441, Note_on_c, 2, 65, 111
4, 42532, Note_off_c, 2, 65, 0
4, 42915, Note_on_c, 2, 65, 111
4, 43043, Note_off_c, 2, 65, 0
4, 43145, Note_on_c, 2, 65, 124
4, 43236, Note_off_c, 2, 65, 0
4, 43376, Note_on_c, 2, 65, 111
4, 43453, Note_off_c, 2, 65, 0
4, 43875, Note_on_c, 2, 66, 83
4, 43876, Note_on_c, 2, 65, 90
4, 43943, Note_off_c, 2, 66, 0
4, 44021, Note_off_c, 2, 65, 0
4, 44136, Note_on_c, 2, 65, 111
4, 44240, Note_off_c, 2, 65, 0
4, 44353, Note_on_c, 2, 65, 103
4, 44432, Note_off_c, 2, 65, 0
4, 44840, Note_on_c, 2, 65, 111
4, 44982, Note_off_c, 2, 65, 0
4, 45071, Note_on_c, 2, 65, 111
4, 45136, Note_off_c, 2, 65, 0
4, 45302, Note_on_c, 2, 65, 103
4, 45367, Note_off_c, 2, 65, 0
4, 45801, Note_on_c, 2, 67, 111
4, 45930, Note_off_c, 2, 67, 0
4, 46046, Note_on_c, 2, 67, 111
4, 46148, Note_off_c, 2, 67, 0
4, 46276, Note_on_c, 2, 67, 103
4, 46355, Note_off_c, 2, 67, 0
4, 46800, Note_on_c, 2, 67, 111
4, 46981, Note_off_c, 2, 67, 0
4, 47032, Note_on_c, 2, 65, 111
4, 47135, Note_off_c, 2, 65, 0
4, 47262, Note_on_c, 2, 65, 103
4, 47353, Note_off_c, 2, 65, 0
4, 47750, Note_on_c, 2, 65, 111
4, 47917, Note_off_c, 2, 65, 0
4, 47981, Note_on_c, 2, 63, 111
4, 48072, Note_off_c, 2, 63, 0
4, 48225, Note_on_c, 2, 63, 124
4, 48316, Note_off_c, 2, 63, 0
4, 48723, Note_on_c, 2, 63, 124
4, 48903, Note_off_c, 2, 63, 0
4, 48955, Note_on_c, 2, 65, 103
4, 49071, Note_off_c, 2, 65, 0
4, 49198, Note_on_c, 2, 65, 90
4, 49288, Note_off_c, 2, 65, 0
4, 49685, Note_on_c, 2, 65, 111
4, 49826, Note_off_c, 2, 65, 0
4, 49916, Note_on_c, 2, 67, 111
4, 50031, Note_off_c, 2, 67, 0
4, 50158, Note_on_c, 2, 67, 103
4, 50263, Note_off_c, 2, 67, 0
4, 50645, Note_on_c, 2, 67, 111
4, 50825, Note_off_c, 2, 67, 0
4, 50876, Note_on_c, 2, 65, 111
4, 51005, Note_off_c, 2, 65, 0
4, 51120, Note_on_c, 2, 65, 103
4, 51223, Note_off_c, 2, 65, 0
4, 51593, Note_on_c, 2, 65, 103
4, 51773, Note_off_c, 2, 65, 0
4, 51837, Note_on_c, 2, 63, 124
4, 51941, Note_off_c, 2, 63, 0
4, 52081, Note_on_c, 2, 63, 111
4, 52172, Note_off_c, 2, 63, 0
4, 52567, Note_on_c, 2, 63, 111
4, 52733, Note_off_c, 2, 63, 0
4, 52798, Note_on_c, 2, 65, 82
4, 52902, Note_off_c, 2, 65, 0
4, 53043, Note_on_c, 2, 65, 90
4, 53135, Note_off_c, 2, 65, 0
4, 53517, Note_on_c, 2, 70, 124
4, 53646, Note_off_c, 2, 70, 0
4, 53761, Note_on_c, 2, 70, 124
4, 53863, Note_off_c, 2, 70, 0
4, 53991, Note_on_c, 2, 70, 103
4, 54108, Note_off_c, 2, 70, 0
4, 54440, Note_on_c, 2, 70, 111
4, 54593, Note_off_c, 2, 70, 0
4, 54683, Note_on_c, 2, 70, 111
4, 54800, Note_off_c, 2, 70, 0
4, 54927, Note_on_c, 2, 70, 103
4, 55018, Note_off_c, 2, 70, 0
4, 55401, Note_on_c, 2, 70, 111
4, 55580, Note_off_c, 2, 70, 0
4, 55643, Note_on_c, 2, 70, 124
4, 55735, Note_off_c, 2, 70, 0
4, 55875, Note_on_c, 2, 70, 103
4, 55978, Note_off_c, 2, 70, 0
4, 56361, Note_on_c, 2, 70, 124
4, 56502, Note_off_c, 2, 70, 0
4, 56603, Note_on_c, 2, 70, 111
4, 56708, Note_off_c, 2, 70, 0
4, 56835, Note_on_c, 2, 70, 111
4, 56938, Note_off_c, 2, 70, 0
4, 57346, Note_on_c, 2, 70, 124
4, 57501, Note_off_c, 2, 70, 0
4, 57591, Note_on_c, 2, 70, 124
4, 57681, Note_off_c, 2, 70, 0
4, 57822, Note_on_c, 2, 70, 103
4, 57900, Note_off_c, 2, 70, 0
4, 58307, Note_on_c, 2, 70, 111
4, 58436, Note_off_c, 2, 70, 0
4, 58538, Note_on_c, 2, 70, 124
4, 58617, Note_off_c, 2, 70, 0
4, 58770, Note_on_c, 2, 70, 111
4, 58848, Note_off_c, 2, 70, 0
4, 59286, Note_on_c, 2, 65, 103
4, 59453, Note_off_c, 2, 65, 0
4, 59492, Note_on_c, 2, 74, 80
4, 59608, Note_off_c, 2, 74, 0
4, 59736, Note_on_c, 2, 74, 82
4, 59840, Note_off_c, 2, 74, 0
4, 60197, Note_on_c, 2, 63, 80
4, 60262, Note_off_c, 2, 63, 0
4, 60441, Note_on_c, 2, 65, 83
4, 60507, Note_off_c, 2, 65, 0
4, 60673, Note_on_c, 2, 63, 111
4, 60751, Note_off_c, 2, 63, 0
4, 61172, Note_on_c, 2, 63, 103
4, 61263, Note_off_c, 2, 63, 0
4, 61431, Note_on_c, 2, 62, 82
4, 62083, Note_off_c, 2, 62, 0
4, 62147, Note_on_c, 2, 74, 82
4, 62327, Note_off_c, 2, 74, 0
4, 62366, Note_on_c, 2, 75, 83
4, 62596, Note_off_c, 2, 75, 0
4, 62610, Note_on_c, 2, 74, 82
4, 62828, Note_on_c, 2, 72, 82
4, 62842, Note_off_c, 2, 74, 0
4, 63035, Note_off_c, 2, 72, 0
4, 63060, Note_on_c, 2, 70, 124
4, 63240, Note_off_c, 2, 70, 0
4, 63292, Note_on_c, 2, 70, 82
4, 64197, Note_off_c, 2, 70, 0
4, 64273, Note_on_c, 2, 70, 111
4, 64543, Note_on_c, 2, 69, 103
4, 64558, Note_off_c, 2, 70, 0
4, 64775, Note_on_c, 2, 67, 90
4, 64803, Note_off_c, 2, 69, 0
4, 65007, Note_on_c, 2, 69, 90
4, 65046, Note_off_c, 2, 67, 0
4, 65201, Note_off_c, 2, 69, 0
4, 65265, Note_on_c, 2, 70, 111
4, 65496, Note_off_c, 2, 70, 0
4, 65510, Note_on_c, 2, 65, 82
4, 65677, Note_off_c, 2, 65, 0
4, 66008, Note_on_c, 2, 65, 83
4, 66176, Note_off_c, 2, 65, 0
4, 66241, Note_on_c, 2, 65, 90
4, 66370, Note_off_c, 2, 65, 0
4, 66483, Note_on_c, 2, 65, 81
4, 66601, Note_off_c, 2, 65, 0
4, 66958, Note_on_c, 2, 65, 90
4, 67188, Note_on_c, 2, 64, 83
4, 67215, Note_off_c, 2, 65, 0
4, 67343, Note_off_c, 2, 64, 0
4, 67433, Note_on_c, 2, 64, 82
4, 67588, Note_off_c, 2, 64, 0
4, 67907, Note_on_c, 2, 64, 103
4, 68075, Note_off_c, 2, 64, 0
4, 68152, Note_on_c, 2, 64, 81
4, 68281, Note_off_c, 2, 64, 0
4, 68383, Note_on_c, 2, 64, 83
4, 68486, Note_off_c, 2, 64, 0
4, 68856, Note_on_c, 2, 65, 103
4, 69086, Note_on_c, 2, 67, 90
4, 69101, Note_off_c, 2, 65, 0
4, 69217, Note_off_c, 2, 67, 0
4, 69331, Note_on_c, 2, 67, 83
4, 69436, Note_off_c, 2, 67, 0
4, 69817, Note_on_c, 2, 67, 103
4, 69985, Note_off_c, 2, 67, 0
4, 70061, Note_on_c, 2, 67, 103
4, 70177, Note_off_c, 2, 67, 0
4, 70305, Note_on_c, 2, 67, 90
4, 70408, Note_off_c, 2, 67, 0
4, 70803, Note_on_c, 2, 67, 111
4, 70996, Note_off_c, 2, 67, 0
4, 71035, Note_on_c, 2, 65, 103
4, 71151, Note_off_c, 2, 65, 0
4, 71280, Note_on_c, 2, 65, 90
4, 71382, Note_off_c, 2, 65, 0
4, 71752, Note_on_c, 2, 65, 103
4, 71907, Note_off_c, 2, 65, 0
4, 71983, Note_on_c, 2, 65, 103
4, 72087, Note_off_c, 2, 65, 0
4, 72215, Note_on_c, 2, 65, 90
4, 72306, Note_off_c, 2, 65, 0
4, 72713, Note_on_c, 2, 65, 111
4, 72842, Note_off_c, 2, 65, 0
4, 72957, Note_on_c, 2, 65, 111
4, 73061, Note_off_c, 2, 65, 0
4, 73201, Note_on_c, 2, 65, 90
4, 73305, Note_off_c, 2, 65, 0
4, 73687, Note_on_c, 2, 65, 124
4, 73828, Note_off_c, 2, 65, 0
4, 73917, Note_on_c, 2, 65, 103
4, 74021, Note_off_c, 2, 65, 0
4, 74161, Note_on_c, 2, 65, 90
4, 74265, Note_off_c, 2, 65, 0
4, 74648, Note_on_c, 2, 65, 124
4, 74776, Note_off_c, 2, 65, 0
4, 74877, Note_on_c, 2, 65, 111
4, 74982, Note_off_c, 2, 65, 0
4, 75122, Note_on_c, 2, 65, 90
4, 75212, Note_off_c, 2, 65, 0
4, 75595, Note_on_c, 2, 65, 111
4, 75750, Note_off_c, 2, 65, 0
4, 75840, Note_on_c, 2, 65, 103
4, 75930, Note_off_c, 2, 65, 0
4, 76058, Note_on_c, 2, 65, 90
4, 76162, Note_off_c, 2, 65, 0
4, 76570, Note_on_c, 2, 62, 103
4, 76750, Note_off_c, 2, 62, 0
4, 76801, Note_on_c, 2, 63, 111
4, 76917, Note_off_c, 2, 63, 0
4, 77058, Note_on_c, 2, 63, 103
4, 77136, Note_off_c, 2, 63, 0
4, 77518, Note_on_c, 2, 63, 124
4, 77672, Note_off_c, 2, 63, 0
4, 77750, Note_on_c, 2, 63, 124
4, 77827, Note_off_c, 2, 63, 0
4, 77993, Note_on_c, 2, 63, 111
4, 78083, Note_off_c, 2, 63, 0
4, 78453, Note_on_c, 2, 63, 124
4, 78647, Note_off_c, 2, 63, 0
4, 78697, Note_on_c, 2, 62, 90
4, 78802, Note_off_c, 2, 62, 0
4, 78956, Note_on_c, 2, 62, 83
4, 79072, Note_off_c, 2, 62, 0
4, 79455, Note_on_c, 2, 62, 103
4, 79648, Note_off_c, 2, 62, 0
4, 79687, Note_on_c, 2, 64, 103
4, 79791, Note_off_c, 2, 64, 0
4, 79931, Note_on_c, 2, 64, 90
4, 80021, Note_off_c, 2, 64, 0
4, 80417, Note_on_c, 2, 64, 103
4, 80597, Note_off_c, 2, 64, 0
4, 80648, Note_on_c, 2, 65, 111
4, 80763, Note_off_c, 2, 65, 0
4, 80906, Note_on_c, 2, 65, 103
4, 81008, Note_off_c, 2, 65, 0
4, 81352, Note_on_c, 2, 65, 103
4, 81546, Note_off_c, 2, 65, 0
4, 81597, Note_on_c, 2, 67, 103
4, 81688, Note_off_c, 2, 67, 0
4, 81841, Note_on_c, 2, 67, 103
4, 81921, Note_off_c, 2, 67, 0
4, 82303, Note_on_c, 2, 63, 111
4, 82458, Note_off_c, 2, 63, 0
4, 82560, Note_on_c, 2, 62, 83
4, 82677, Note_off_c, 2, 62, 0
4, 82791, Note_on_c, 2, 62, 82
4, 82895, Note_off_c, 2, 62, 0
4, 83277, Note_on_c, 2, 62, 103
4, 83496, Note_off_c, 2, 62, 0
4, 83522, Note_on_c, 2, 64, 103
4, 83638, Note_off_c, 2, 64, 0
4, 83753, Note_on_c, 2, 64, 111
4, 83857, Note_off_c, 2, 64, 0
4, 84265, Note_on_c, 2, 64, 90
4, 84471, Note_off_c, 2, 64, 0
4, 84497, Note_on_c, 2, 65, 111
4, 84612, Note_off_c, 2, 65, 0
4, 84740, Note_on_c, 2, 65, 111
4, 84831, Note_off_c, 2, 65, 0
4, 85201, Note_on_c, 2, 65, 103
4, 85381, Note_off_c, 2, 65, 0
4, 85432, Note_on_c, 2, 67, 103
4, 85536, Note_off_c, 2, 67, 0
4, 85676, Note_on_c, 2, 67, 83
4, 85780, Note_off_c, 2, 67, 0
4, 86137, Note_on_c, 2, 63, 111
4, 86267, Note_off_c, 2, 63, 0
4, 86368, Note_on_c, 2, 62, 90
4, 86483, Note_off_c, 2, 62, 0
4, 86612, Note_on_c, 2, 62, 90
4, 86728, Note_off_c, 2, 62, 0
4, 87111, Note_on_c, 2, 62, 111
4, 87355, Note_on_c, 2, 64, 111
4, 87393, Note_off_c, 2, 62, 0
4, 87510, Note_off_c, 2, 64, 0
4, 87598, Note_on_c, 2, 64, 103
4, 87728, Note_off_c, 2, 64, 0
4, 88085, Note_on_c, 2, 64, 103
4, 88277, Note_off_c, 2, 64, 0
4, 88316, Note_on_c, 2, 66, 124
4, 88458, Note_off_c, 2, 66, 0
4, 88560, Note_on_c, 2, 66, 124
4, 88676, Note_off_c, 2, 66, 0
4, 89020, Note_on_c, 2, 66, 124
4, 89226, Note_off_c, 2, 66, 0
4, 89263, Note_on_c, 2, 67, 103
4, 89393, Note_off_c, 2, 67, 0
4, 89507, Note_on_c, 2, 67, 90
4, 89623, Note_off_c, 2, 67, 0
4, 90006, Note_on_c, 2, 67, 111
4, 90211, Note_off_c, 2, 67, 0
4, 90237, Note_on_c, 2, 63, 124
4, 90353, Note_off_c, 2, 63, 0
4, 90493, Note_on_c, 2, 63, 111
4, 90597, Note_off_c, 2, 63, 0
4, 90953, Note_on_c, 2, 63, 124
4, 91121, Note_off_c, 2, 63, 0
4, 91198, Note_on_c, 2, 67, 90
4, 91301, Note_off_c, 2, 67, 0
4, 91442, Note_on_c, 2, 67, 90
4, 91520, Note_off_c, 2, 67, 0
4, 91928, Note_on_c, 2, 66, 111
4, 92006, Note_off_c, 2, 66, 0
4, 92160, Note_on_c, 2, 67, 90
4, 92276, Note_off_c, 2, 67, 0
4, 92416, Note_on_c, 2, 67, 103
4, 92507, Note_off_c, 2, 67, 0
4, 92863, Note_on_c, 2, 67, 111
4, 93006, Note_off_c, 2, 67, 0
4, 93108, Note_on_c, 2, 67, 103
4, 93198, Note_off_c, 2, 67, 0
4, 93351, Note_on_c, 2, 67, 103
4, 93430, Note_off_c, 2, 67, 0
4, 93825, Note_on_c, 2, 67, 103
4, 93953, Note_off_c, 2, 67, 0
4, 94081, Note_on_c, 2, 67, 103
4, 94160, Note_off_c, 2, 67, 0
4, 94312, Note_on_c, 2, 67, 103
4, 94365, Note_off_c, 2, 67, 0
4, 94786, Note_on_c, 2, 60, 111
4, 94952, Note_off_c, 2, 60, 0
4, 95030, Note_on_c, 2, 60, 103
4, 95132, Note_off_c, 2, 60, 0
4, 95261, Note_on_c, 2, 60, 83
4, 95351, Note_off_c, 2, 60, 0
4, 95772, Note_on_c, 2, 60, 111
4, 95927, Note_off_c, 2, 60, 0
4, 96017, Note_on_c, 2, 60, 90
4, 96108, Note_off_c, 2, 60, 0
4, 96248, Note_on_c, 2, 60, 83
4, 96340, Note_off_c, 2, 60, 0
4, 96722, Note_on_c, 2, 65, 111
4, 96876, Note_off_c, 2, 65, 0
4, 96952, Note_on_c, 2, 65, 111
4, 97057, Note_off_c, 2, 65, 0
4, 97183, Note_on_c, 2, 65, 111
4, 97273, Note_off_c, 2, 65, 0
4, 97670, Note_on_c, 2, 65, 111
4, 97812, Note_off_c, 2, 65, 0
4, 97913, Note_on_c, 2, 65, 111
4, 98005, Note_off_c, 2, 65, 0
4, 98131, Note_on_c, 2, 65, 83
4, 98248, Note_off_c, 2, 65, 0
4, 98630, Note_on_c, 2, 58, 124
4, 98772, Note_off_c, 2, 58, 0
4, 98873, Note_on_c, 2, 58, 124
4, 98965, Note_off_c, 2, 58, 0
4, 99118, Note_on_c, 2, 58, 111
4, 99196, Note_off_c, 2, 58, 0
4, 99578, Note_on_c, 2, 58, 124
4, 99720, Note_off_c, 2, 58, 0
4, 99835, Note_on_c, 2, 63, 124
4, 99840, Control_c, 2, 32, 0
4, 99840, Control_c, 2, 0, 0
4, 99840, Program_c, 2, 71
4, 99840, Note_on_c, 2, 63, 82
4, 100715, Note_off_c, 2, 63, 0
4, 100792, Note_off_c, 2, 63, 0
4, 103696, Note_on_c, 2, 58, 111
4, 103801, Note_off_c, 2, 58, 0
4, 103931, Note_on_c, 2, 58, 103
4, 104036, Note_off_c, 2, 58, 0
4, 104396, Note_on_c, 2, 58, 124
4, 104552, Note_off_c, 2, 58, 0
4, 104631, Note_on_c, 2, 58, 111
4, 104735, Note_off_c, 2, 58, 0
4, 104877, Note_on_c, 2, 58, 124
4, 104968, Note_off_c, 2, 58, 0
4, 105342, Note_on_c, 2, 63, 111
4, 105511, Note_off_c, 2, 63, 0
4, 105563, Note_on_c, 2, 65, 103
4, 105681, Note_off_c, 2, 65, 0
4, 105810, Note_on_c, 2, 65, 103
4, 105927, Note_off_c, 2, 65, 0
4, 106315, Note_on_c, 2, 65, 111
4, 106457, Note_off_c, 2, 65, 0
4, 106547, Note_on_c, 2, 65, 103
4, 106640, Note_off_c, 2, 65, 0
4, 106793, Note_on_c, 2, 65, 103
4, 106873, Note_off_c, 2, 65, 0
4, 107286, Note_on_c, 2, 65, 111
4, 107467, Note_off_c, 2, 65, 0
4, 107520, Note_on_c, 2, 67, 90
4, 107625, Note_off_c, 2, 67, 0
4, 107753, Note_on_c, 2, 67, 103
4, 107871, Note_off_c, 2, 67, 0
4, 108232, Note_on_c, 2, 63, 111
4, 108376, Note_off_c, 2, 63, 0
4, 108478, Note_on_c, 2, 63, 124
4, 108557, Note_off_c, 2, 63, 0
4, 108712, Note_on_c, 2, 63, 111
4, 108805, Note_off_c, 2, 63, 0
4, 109178, Note_on_c, 2, 63, 124
4, 109322, Note_off_c, 2, 63, 0
4, 109412, Note_on_c, 2, 63, 111
4, 109516, Note_off_c, 2, 63, 0
4, 109671, Note_on_c, 2, 63, 124
4, 109750, Note_off_c, 2, 63, 0
4, 110150, Note_on_c, 2, 67, 111
4, 110307, Note_off_c, 2, 67, 0
4, 110397, Note_on_c, 2, 67, 111
4, 110475, Note_off_c, 2, 67, 0
4, 110630, Note_on_c, 2, 67, 103
4, 110735, Note_off_c, 2, 67, 0
4, 111096, Note_on_c, 2, 67, 111
4, 111278, Note_off_c, 2, 67, 0
4, 111342, Note_on_c, 2, 65, 111
4, 111435, Note_off_c, 2, 65, 0
4, 111576, Note_on_c, 2, 65, 103
4, 111681, Note_off_c, 2, 65, 0
4, 112067, Note_on_c, 2, 65, 111
4, 112237, Note_off_c, 2, 65, 0
4, 112302, Note_on_c, 2, 65, 103
4, 112393, Note_off_c, 2, 65, 0
4, 112548, Note_on_c, 2, 65, 103
4, 112653, Note_off_c, 2, 65, 0
4, 113041, Note_on_c, 2, 65, 111
4, 113210, Note_off_c, 2, 65, 0
4, 113275, Note_on_c, 2, 65, 111
4, 113391, Note_off_c, 2, 65, 0
4, 113507, Note_on_c, 2, 65, 103
4, 113625, Note_off_c, 2, 65, 0
4, 113986, Note_on_c, 2, 65, 111
4, 114142, Note_off_c, 2, 65, 0
4, 114220, Note_on_c, 2, 65, 103
4, 114298, Note_off_c, 2, 65, 0
4, 114453, Note_on_c, 2, 65, 103
4, 114545, Note_off_c, 2, 65, 0
4, 114945, Note_on_c, 2, 65, 111
4, 115088, Note_off_c, 2, 65, 0
4, 115191, Note_on_c, 2, 65, 111
4, 115283, Note_off_c, 2, 65, 0
4, 115438, Note_on_c, 2, 65, 103
4, 115542, Note_off_c, 2, 65, 0
4, 115903, Note_on_c, 2, 65, 111
4, 116110, Note_off_c, 2, 65, 0
4, 116123, Note_on_c, 2, 63, 103
4, 116253, Note_off_c, 2, 63, 0
4, 116382, Note_on_c, 2, 63, 124
4, 116486, Note_off_c, 2, 63, 0
4, 116873, Note_on_c, 2, 67, 111
4, 117055, Note_off_c, 2, 67, 0
4, 117107, Note_on_c, 2, 63, 111
4, 117212, Note_off_c, 2, 63, 0
4, 117367, Note_on_c, 2, 63, 111
4, 117458, Note_off_c, 2, 63, 0
4, 117832, Note_on_c, 2, 70, 125
4, 118053, Note_off_c, 2, 70, 0
4, 118066, Note_on_c, 2, 68, 111
4, 118183, Note_off_c, 2, 68, 0
4, 118326, Note_on_c, 2, 68, 111
4, 118442, Note_off_c, 2, 68, 0
4, 118791, Note_on_c, 2, 67, 111
4, 118961, Note_off_c, 2, 67, 0
4, 119012, Note_on_c, 2, 65, 90
4, 119142, Note_off_c, 2, 65, 0
4, 119258, Note_on_c, 2, 65, 90
4, 119390, Note_off_c, 2, 65, 0
4, 119751, Note_on_c, 2, 63, 124
4, 119933, Note_off_c, 2, 63, 0
4, 119972, Note_on_c, 2, 62, 103
4, 120102, Note_off_c, 2, 62, 0
4, 120231, Note_on_c, 2, 62, 90
4, 120362, Note_off_c, 2, 62, 0
4, 120723, Note_on_c, 2, 74, 111
4, 120917, Note_off_c, 2, 74, 0
4, 120956, Note_on_c, 2, 75, 124
4, 121073, Note_off_c, 2, 75, 0
4, 121215, Note_on_c, 2, 75, 111
4, 121346, Note_off_c, 2, 75, 0
4, 121668, Note_on_c, 2, 67, 111
4, 121902, Note_off_c, 2, 67, 0
4, 121915, Note_on_c, 2, 65, 90
4, 122046, Note_off_c, 2, 65, 0
4, 122162, Note_on_c, 2, 65, 83
4, 122280, Note_off_c, 2, 65, 0
4, 122641, Note_on_c, 2, 65, 111
4, 122836, Note_off_c, 2, 65, 0
4, 122875, Note_on_c, 2, 63, 111
4, 122978, Note_off_c, 2, 63, 0
4, 123121, Note_on_c, 2, 63, 124
4, 123226, Note_off_c, 2, 63, 0
4, 123600, Note_on_c, 2, 63, 124
4, 123756, Note_off_c, 2, 63, 0
4, 123821, Note_on_c, 2, 70, 124
4, 123937, Note_off_c, 2, 70, 0
4, 124067, Note_on_c, 2, 70, 103
4, 124171, Note_off_c, 2, 70, 0
4, 124557, Note_on_c, 2, 58, 111
4, 124715, Note_off_c, 2, 58, 0
4, 124805, Note_on_c, 2, 58, 103
4, 124910, Note_off_c, 2, 58, 0
4, 125065, Note_on_c, 2, 58, 103
4, 125170, Note_off_c, 2, 58, 0
4, 125543, Note_on_c, 2, 63, 125
4, 125765, Note_off_c, 2, 63, 0
4, 125777, Note_on_c, 2, 62, 124
4, 125895, Note_off_c, 2, 62, 0
4, 126037, Note_on_c, 2, 62, 103
4, 126116, Note_off_c, 2, 62, 0
4, 126516, Note_on_c, 2, 65, 103
4, 126698, Note_off_c, 2, 65, 0
4, 126737, Note_on_c, 2, 63, 124
4, 126828, Note_off_c, 2, 63, 0
4, 126983, Note_on_c, 2, 63, 111
4, 127076, Note_off_c, 2, 63, 0
4, 127436, Note_on_c, 2, 63, 124
4, 127670, Note_on_c, 2, 62, 83
4, 127685, Note_off_c, 2, 63, 0
4, 127763, Note_off_c, 2, 62, 0
4, 127918, Note_on_c, 2, 62, 90
4, 128011, Note_off_c, 2, 62, 0
4, 128411, Note_on_c, 2, 65, 111
4, 128593, Note_off_c, 2, 65, 0
4, 128645, Note_on_c, 2, 63, 124
4, 128748, Note_off_c, 2, 63, 0
4, 128891, Note_on_c, 2, 63, 111
4, 128996, Note_off_c, 2, 63, 0
4, 129370, Note_on_c, 2, 63, 124
4, 129565, Note_off_c, 2, 63, 0
4, 129603, Note_on_c, 2, 62, 103
4, 129708, Note_off_c, 2, 62, 0
4, 129863, Note_on_c, 2, 62, 103
4, 129955, Note_off_c, 2, 62, 0
4, 130302, Note_on_c, 2, 65, 111
4, 130510, Note_off_c, 2, 65, 0
4, 130536, Note_on_c, 2, 63, 124
4, 130627, Note_off_c, 2, 63, 0
4, 130796, Note_on_c, 2, 63, 111
4, 130901, Note_off_c, 2, 63, 0
4, 131262, Note_on_c, 2, 63, 111
4, 131405, Note_off_c, 2, 63, 0
4, 131496, Note_on_c, 2, 63, 111
4, 131600, Note_off_c, 2, 63, 0
4, 131741, Note_on_c, 2, 63, 124
4, 131833, Note_off_c, 2, 63, 0
4, 132221, Note_on_c, 2, 63, 111
4, 132376, Note_off_c, 2, 63, 0
4, 132467, Note_on_c, 2, 63, 124
4, 132558, Note_off_c, 2, 63, 0
4, 132713, Note_on_c, 2, 63, 111
4, 132792, Note_off_c, 2, 63, 0
4, 133180, Note_on_c, 2, 63, 111
4, 133323, Note_off_c, 2, 63, 0
4, 133413, Note_on_c, 2, 63, 124
4, 133517, Note_off_c, 2, 63, 0
4, 133673, Note_on_c, 2, 63, 111
4, 133751, Note_off_c, 2, 63, 0
4, 134152, Note_on_c, 2, 63, 124
4, 134307, Note_off_c, 2, 63, 0
4, 134386, Note_on_c, 2, 63, 124
4, 134477, Note_off_c, 2, 63, 0
4, 134632, Note_on_c, 2, 63, 111
4, 134725, Note_off_c, 2, 63, 0
4, 135111, Note_on_c, 2, 63, 124
4, 135242, Note_off_c, 2, 63, 0
4, 135345, Note_on_c, 2, 63, 124
4, 135437, Note_off_c, 2, 63, 0
4, 135591, Note_on_c, 2, 63, 103
4, 135683, Note_off_c, 2, 63, 0
4, 136083, Note_on_c, 2, 63, 124
4, 136227, Note_off_c, 2, 63, 0
4, 136330, Note_on_c, 2, 63, 111
4, 136435, Note_off_c, 2, 63, 0
4, 136563, Note_on_c, 2, 63, 111
4, 136655, Note_off_c, 2, 63, 0
4, 137030, Note_on_c, 2, 63, 124
4, 137172, Note_off_c, 2, 63, 0
4, 137276, Note_on_c, 2, 63, 111
4, 137380, Note_off_c, 2, 63, 0
4, 137508, Note_on_c, 2, 63, 124
4, 137601, Note_off_c, 2, 63, 0
4, 137988, Note_on_c, 2, 58, 124
4, 138145, Note_off_c, 2, 58, 0
4, 138222, Note_on_c, 2, 58, 111
4, 138340, Note_off_c, 2, 58, 0
4, 138468, Note_on_c, 2, 58, 103
4, 138522, Note_off_c, 2, 58, 0
4, 138960, Note_on_c, 2, 58, 103
4, 139052, Note_off_c, 2, 58, 0
4, 139220, Note_on_c, 2, 60, 83
4, 139286, Note_off_c, 2, 60, 0
4, 139467, Note_on_c, 2, 58, 55
4, 139495, Note_off_c, 2, 58, 0
4, 139923, Note_on_c, 2, 58, 124
4, 140067, Note_off_c, 2, 58, 0
4, 140157, Note_on_c, 2, 56, 111
4, 140262, Note_off_c, 2, 56, 0
4, 140417, Note_on_c, 2, 56, 111
4, 140521, Note_off_c, 2, 56, 0
4, 140895, Note_on_c, 2, 56, 111
4, 141063, Note_off_c, 2, 56, 0
4, 141130, Note_on_c, 2, 58, 111
4, 141233, Note_off_c, 2, 58, 0
4, 141362, Note_on_c, 2, 58, 103
4, 141453, Note_off_c, 2, 58, 0
4, 141853, Note_on_c, 2, 58, 124
4, 142048, Note_off_c, 2, 58, 0
4, 142088, Note_on_c, 2, 60, 103
4, 142218, Note_off_c, 2, 60, 0
4, 142335, Note_on_c, 2, 60, 83
4, 142465, Note_off_c, 2, 60, 0
4, 142801, Note_on_c, 2, 72, 103
4, 143021, Note_off_c, 2, 72, 0
4, 143047, Note_on_c, 2, 70, 111
4, 143165, Note_off_c, 2, 70, 0
4, 143293, Note_on_c, 2, 70, 111
4, 143397, Note_off_c, 2, 70, 0
4, 143772, Note_on_c, 2, 70, 124
4, 143953, Note_off_c, 2, 70, 0
4, 144006, Note_on_c, 2, 68, 111
4, 144110, Note_off_c, 2, 68, 0
4, 144252, Note_on_c, 2, 68, 111
4, 144356, Note_off_c, 2, 68, 0
4, 144743, Note_on_c, 2, 68, 111
4, 144925, Note_off_c, 2, 68, 0
4, 144965, Note_on_c, 2, 70, 111
4, 145068, Note_off_c, 2, 70, 0
4, 145211, Note_on_c, 2, 70, 111
4, 145330, Note_off_c, 2, 70, 0
4, 145677, Note_on_c, 2, 63, 111
4, 145835, Note_off_c, 2, 63, 0
4, 145911, Note_on_c, 2, 63, 124
4, 146028, Note_off_c, 2, 63, 0
4, 146157, Note_on_c, 2, 63, 124
4, 146288, Note_off_c, 2, 63, 0
4, 146636, Note_on_c, 2, 63, 125
4, 146792, Note_off_c, 2, 63, 0
4, 146882, Note_on_c, 2, 63, 124
4, 147001, Note_off_c, 2, 63, 0
4, 147116, Note_on_c, 2, 63, 124
4, 147260, Note_off_c, 2, 63, 0
4, 147595, Note_on_c, 2, 68, 125
4, 147777, Note_off_c, 2, 68, 0
4, 147828, Note_on_c, 2, 72, 111
4, 147972, Note_off_c, 2, 72, 0
4, 148075, Note_on_c, 2, 72, 111
4, 148231, Note_off_c, 2, 72, 0
4, 148567, Note_on_c, 2, 72, 124
4, 148723, Note_off_c, 2, 72, 0
4, 148800, Note_on_c, 2, 72, 124
4, 148917, Note_off_c, 2, 72, 0
4, 149060, Note_on_c, 2, 72, 124
4, 149190, Note_off_c, 2, 72, 0
4, 149537, Note_on_c, 2, 72, 111
4, 149707, Note_off_c, 2, 72, 0
4, 149771, Note_on_c, 2, 75, 111
4, 149901, Note_off_c, 2, 75, 0
4, 150018, Note_on_c, 2, 75, 124
4, 150148, Note_off_c, 2, 75, 0
4, 150483, Note_on_c, 2, 70, 111
4, 150652, Note_off_c, 2, 70, 0
4, 150717, Note_on_c, 2, 67, 90
4, 150835, Note_off_c, 2, 67, 0
4, 150963, Note_on_c, 2, 67, 103
4, 151081, Note_off_c, 2, 67, 0
4, 151467, Note_on_c, 2, 63, 124
4, 151637, Note_off_c, 2, 63, 0
4, 151702, Note_on_c, 2, 70, 124
4, 151767, Note_off_c, 2, 70, 0
4, 151936, Note_on_c, 2, 70, 124
4, 152015, Note_off_c, 2, 70, 0
4, 152427, Note_on_c, 2, 70, 124
4, 152570, Note_off_c, 2, 70, 0
4, 152635, Note_on_c, 2, 74, 90
4, 152740, Note_off_c, 2, 74, 0
4, 152881, Note_on_c, 2, 74, 90
4, 152998, Note_off_c, 2, 74, 0
4, 153372, Note_on_c, 2, 70, 111
4, 153491, Note_off_c, 2, 70, 0
4, 153620, Note_on_c, 2, 79, 103
4, 154728, Note_off_c, 2, 79, 0
4, 154767, Note_on_c, 2, 78, 124
4, 154962, Note_off_c, 2, 78, 0
4, 155001, Note_on_c, 2, 77, 83
4, 155196, Note_off_c, 2, 77, 0
4, 155235, Note_on_c, 2, 75, 103
4, 155366, Note_off_c, 2, 75, 0
4, 155481, Note_on_c, 2, 75, 124
4, 156693, Note_off_c, 2, 75, 0
4, 156708, Note_on_c, 2, 74, 103
4, 156915, Note_on_c, 2, 72, 83
4, 156943, Note_off_c, 2, 74, 0
4, 157150, Note_on_c, 2, 74, 103
4, 157177, Note_off_c, 2, 72, 0
4, 157358, Note_off_c, 2, 74, 0
4, 157386, Note_on_c, 2, 75, 83
4, 158430, Note_off_c, 2, 75, 0
4, 163168, Note_on_c, 2, 63, 111
4, 163286, Note_off_c, 2, 63, 0
4, 163427, Note_on_c, 2, 63, 111
4, 163520, Note_off_c, 2, 63, 0
4, 163932, Note_on_c, 2, 63, 111
4, 164062, Note_off_c, 2, 63, 0
4, 164166, Note_on_c, 2, 63, 111
4, 164271, Note_off_c, 2, 63, 0
4, 164426, Note_on_c, 2, 63, 111
4, 164517, Note_off_c, 2, 63, 0
4, 164895, Note_on_c, 2, 63, 111
4, 165012, Note_off_c, 2, 63, 0
4, 165142, Note_on_c, 2, 63, 124
4, 165221, Note_off_c, 2, 63, 0
4, 165388, Note_on_c, 2, 63, 103
4, 165467, Note_off_c, 2, 63, 0
4, 165842, Note_on_c, 2, 63, 111
4, 165972, Note_off_c, 2, 63, 0
4, 166075, Note_on_c, 2, 63, 111
4, 166167, Note_off_c, 2, 63, 0
4, 166335, Note_on_c, 2, 63, 111
4, 166402, Note_off_c, 2, 63, 0
4, 166813, Note_on_c, 2, 63, 111
4, 166945, Note_off_c, 2, 63, 0
4, 167061, Note_on_c, 2, 63, 124
4, 167140, Note_off_c, 2, 63, 0
4, 167307, Note_on_c, 2, 63, 111
4, 167373, Note_off_c, 2, 63, 0
4, 167761, Note_on_c, 2, 63, 111
4, 167852, Note_off_c, 2, 63, 0
4, 168021, Note_on_c, 2, 63, 111
4, 168100, Note_off_c, 2, 63, 0
4, 168255, Note_on_c, 2, 63, 124
4, 168333, Note_off_c, 2, 63, 0
4, 168708, Note_on_c, 2, 63, 111
4, 168787, Note_off_c, 2, 63, 0
4, 168955, Note_on_c, 2, 63, 111
4, 169432, Note_off_c, 2, 63, 0
4, 169885, Note_on_c, 2, 77, 103
4, 170607, Note_on_c, 2, 75, 124
4, 170621, Note_off_c, 2, 77, 0
4, 170725, Note_off_c, 2, 75, 0
4, 170867, Note_on_c, 2, 75, 111
4, 171307, Note_off_c, 2, 75, 0
4, 171822, Note_on_c, 2, 74, 111
4, 172532, Note_off_c, 2, 74, 0
4, 172546, Note_on_c, 2, 75, 103
4, 172676, Note_off_c, 2, 75, 0
4, 172792, Note_on_c, 2, 75, 111
4, 173257, Note_off_c, 2, 75, 0
4, 173747, Note_on_c, 2, 65, 124
4, 174470, Note_on_c, 2, 63, 124
4, 174496, Note_off_c, 2, 65, 0
4, 174601, Note_off_c, 2, 63, 0
4, 174742, Note_on_c, 2, 63, 111
4, 175285, Note_off_c, 2, 63, 0
4, 175285, End_track
5, 0, Start_track
5, 0, Title_t, "Basettkomp"
5, 0, MIDI_port, 0
5, 0, Channel_prefix, 3
5, 0, Control_c, 3, 7, 72
5, 0, Control_c, 3, 10, 11
5, 0, Control_c, 3, 0, 0
5, 0, Control_c, 3, 32, 0
5, 0, Control_c, 3, 93, 0
5, 0, Program_c, 3, 71
5, 3862, Note_on_c, 3, 55, 82
5, 3957, Note_off_c, 3, 55, 0
5, 4087, Note_on_c, 3, 55, 72
5, 4195, Note_off_c, 3, 55, 0
5, 4546, Note_on_c, 3, 55, 82
5, 4727, Note_off_c, 3, 55, 0
5, 4776, Note_on_c, 3, 55, 73
5, 4882, Note_off_c, 3, 55, 0
5, 5011, Note_on_c, 3, 55, 66
5, 5082, Note_off_c, 3, 55, 0
5, 5505, Note_on_c, 3, 55, 90
5, 5682, Note_off_c, 3, 55, 0
5, 5730, Note_on_c, 3, 55, 90
5, 5836, Note_off_c, 3, 55, 0
5, 5965, Note_on_c, 3, 55, 82
5, 6061, Note_off_c, 3, 55, 0
5, 6448, Note_on_c, 3, 62, 83
5, 6626, Note_off_c, 3, 62, 0
5, 6672, Note_on_c, 3, 62, 83
5, 6767, Note_off_c, 3, 62, 0
5, 6908, Note_on_c, 3, 62, 81
5, 6992, Note_off_c, 3, 62, 0
5, 7402, Note_on_c, 3, 62, 111
5, 7637, Note_on_c, 3, 60, 80
5, 7662, Note_off_c, 3, 62, 0
5, 7768, Note_off_c, 3, 60, 0
5, 7875, Note_on_c, 3, 60, 81
5, 7981, Note_off_c, 3, 60, 0
5, 8413, Note_on_c, 3, 63, 111
5, 8568, Note_off_c, 3, 63, 0
5, 8616, Note_on_c, 3, 63, 111
5, 8710, Note_off_c, 3, 63, 0
5, 8851, Note_on_c, 3, 63, 111
5, 8922, Note_off_c, 3, 63, 0
5, 9368, Note_on_c, 3, 58, 111
5, 9581, Note_off_c, 3, 58, 0
5, 9581, Note_on_c, 3, 60, 81
5, 9700, Note_off_c, 3, 60, 0
5, 9805, Note_on_c, 3, 60, 80
5, 9901, Note_off_c, 3, 60, 0
5, 10333, Note_on_c, 3, 60, 103
5, 10522, Note_on_c, 3, 58, 80
5, 10548, Note_off_c, 3, 60, 0
5, 10655, Note_off_c, 3, 58, 0
5, 10783, Note_on_c, 3, 58, 55
5, 10880, Note_off_c, 3, 58, 0
5, 11242, Note_on_c, 3, 58, 90
5, 11408, Note_off_c, 3, 58, 0
5, 11467, Note_on_c, 3, 58, 103
5, 11585, Note_off_c, 3, 58, 0
5, 11726, Note_on_c, 3, 55, 73
5, 11833, Note_off_c, 3, 55, 0
5, 12197, Note_on_c, 3, 55, 80
5, 12386, Note_off_c, 3, 55, 0
5, 12445, Note_on_c, 3, 55, 80
5, 12528, Note_off_c, 3, 55, 0
5, 12658, Note_on_c, 3, 55, 72
5, 12753, Note_off_c, 3, 55, 0
5, 13163, Note_on_c, 3, 58, 82
5, 13387, Note_on_c, 3, 62, 82
5, 13425, Note_off_c, 3, 58, 0
5, 13520, Note_off_c, 3, 62, 0
5, 13625, Note_on_c, 3, 62, 80
5, 13731, Note_off_c, 3, 62, 0
5, 14130, Note_on_c, 3, 62, 82
5, 14318, Note_off_c, 3, 62, 0
5, 14378, Note_on_c, 3, 62, 81
5, 14462, Note_off_c, 3, 62, 0
5, 14603, Note_on_c, 3, 62, 80
5, 14698, Note_off_c, 3, 62, 0
5, 15096, Note_on_c, 3, 62, 83
5, 15286, Note_off_c, 3, 62, 0
5, 15322, Note_on_c, 3, 63, 82
5, 15452, Note_off_c, 3, 63, 0
5, 15557, Note_on_c, 3, 63, 73
5, 15653, Note_off_c, 3, 63, 0
5, 16075, Note_on_c, 3, 60, 82
5, 16241, Note_off_c, 3, 60, 0
5, 16311, Note_on_c, 3, 60, 72
5, 16407, Note_off_c, 3, 60, 0
5, 16548, Note_on_c, 3, 60, 63
5, 16632, Note_off_c, 3, 60, 0
5, 17020, Note_on_c, 3, 60, 80
5, 17231, Note_off_c, 3, 60, 0
5, 17256, Note_on_c, 3, 58, 83
5, 17362, Note_off_c, 3, 58, 0
5, 17503, Note_on_c, 3, 58, 72
5, 17610, Note_off_c, 3, 58, 0
5, 18010, Note_on_c, 3, 58, 73
5, 18022, Note_on_c, 3, 63, 19
5, 18085, Note_off_c, 3, 58, 0
5, 18156, Note_off_c, 3, 63, 0
5, 18216, Note_on_c, 3, 63, 81
5, 18298, Note_off_c, 3, 63, 0
5, 18440, Note_on_c, 3, 63, 82
5, 18547, Note_off_c, 3, 63, 0
5, 18933, Note_on_c, 3, 63, 90
5, 19110, Note_off_c, 3, 63, 0
5, 19170, Note_on_c, 3, 63, 90
5, 19276, Note_off_c, 3, 63, 0
5, 19417, Note_on_c, 3, 63, 83
5, 19512, Note_off_c, 3, 63, 0
5, 19922, Note_on_c, 3, 63, 103
5, 20077, Note_off_c, 3, 63, 0
5, 20158, Note_on_c, 3, 63, 90
5, 20255, Note_off_c, 3, 63, 0
5, 20383, Note_on_c, 3, 63, 82
5, 20467, Note_off_c, 3, 63, 0
5, 20888, Note_on_c, 3, 63, 103
5, 21053, Note_off_c, 3, 63, 0
5, 21113, Note_on_c, 3, 62, 66
5, 21175, Note_off_c, 3, 62, 0
5, 21327, Note_on_c, 3, 62, 80
5, 21422, Note_off_c, 3, 62, 0
5, 21821, Note_on_c, 3, 62, 90
5, 21986, Note_off_c, 3, 62, 0
5, 22045, Note_on_c, 3, 62, 82
5, 22152, Note_off_c, 3, 62, 0
5, 22293, Note_on_c, 3, 62, 65
5, 22377, Note_off_c, 3, 62, 0
5, 22776, Note_on_c, 3, 62, 83
5, 23000, Note_off_c, 3, 62, 0
5, 23036, Note_on_c, 3, 62, 80
5, 23155, Note_off_c, 3, 62, 0
5, 23272, Note_on_c, 3, 62, 54
5, 23380, Note_off_c, 3, 62, 0
5, 23742, Note_on_c, 3, 62, 103
5, 23966, Note_on_c, 3, 63, 80
5, 24026, Note_off_c, 3, 62, 0
5, 24097, Note_off_c, 3, 63, 0
5, 24227, Note_on_c, 3, 63, 73
5, 24333, Note_off_c, 3, 63, 0
5, 24685, Note_on_c, 3, 63, 90
5, 24920, Note_off_c, 3, 63, 0
5, 24945, Note_on_c, 3, 60, 80
5, 25075, Note_off_c, 3, 60, 0
5, 25192, Note_on_c, 3, 60, 82
5, 25311, Note_off_c, 3, 60, 0
5, 25662, Note_on_c, 3, 64, 83
5, 25886, Note_on_c, 3, 65, 73
5, 25898, Note_off_c, 3, 64, 0
5, 26041, Note_off_c, 3, 65, 0
5, 26135, Note_on_c, 3, 65, 72
5, 26277, Note_off_c, 3, 65, 0
5, 26617, Note_on_c, 3, 67, 81
5, 26841, Note_off_c, 3, 67, 0
5, 26877, Note_on_c, 3, 68, 82
5, 28295, Note_on_c, 3, 65, 82
5, 28320, Note_off_c, 3, 68, 0
5, 28788, Note_on_c, 3, 67, 80
5, 28813, Note_off_c, 3, 65, 0
5, 28931, Note_off_c, 3, 67, 0
5, 29037, Note_on_c, 3, 67, 81
5, 29202, Note_off_c, 3, 67, 0
5, 29496, Note_on_c, 3, 63, 90
5, 29732, Note_off_c, 3, 63, 0
5, 29732, Note_on_c, 3, 60, 66
5, 29875, Note_off_c, 3, 60, 0
5, 29981, Note_on_c, 3, 60, 39
5, 30100, Note_off_c, 3, 60, 0
5, 30475, Note_on_c, 3, 60, 73
5, 30665, Note_off_c, 3, 60, 0
5, 30688, Note_on_c, 3, 58, 72
5, 30796, Note_off_c, 3, 58, 0
5, 30948, Note_on_c, 3, 58, 73
5, 31045, Note_off_c, 3, 58, 0
5, 31443, Note_on_c, 3, 58, 55
5, 31597, Note_off_c, 3, 58, 0
5, 31656, Note_on_c, 3, 58, 80
5, 31751, Note_off_c, 3, 58, 0
5, 31880, Note_on_c, 3, 58, 82
5, 31976, Note_off_c, 3, 58, 0
5, 32375, Note_on_c, 3, 56, 80
5, 32622, Note_on_c, 3, 55, 81
5, 32623, Note_off_c, 3, 56, 0
5, 32765, Note_off_c, 3, 55, 0
5, 32871, Note_on_c, 3, 55, 81
5, 33001, Note_off_c, 3, 55, 0
5, 33411, Note_on_c, 3, 58, 83
5, 33577, Note_off_c, 3, 58, 0
5, 33613, Note_on_c, 3, 58, 83
5, 33696, Note_off_c, 3, 58, 0
5, 33850, Note_on_c, 3, 58, 66
5, 33945, Note_off_c, 3, 58, 0
5, 34343, Note_on_c, 3, 58, 90
5, 34508, Note_off_c, 3, 58, 0
5, 34568, Note_on_c, 3, 58, 90
5, 34675, Note_off_c, 3, 58, 0
5, 34816, Note_on_c, 3, 58, 90
5, 34911, Note_off_c, 3, 58, 0
5, 35262, Note_on_c, 3, 58, 111
5, 35417, Note_off_c, 3, 58, 0
5, 35498, Note_on_c, 3, 58, 73
5, 35583, Note_off_c, 3, 58, 0
5, 35736, Note_on_c, 3, 58, 83
5, 35808, Note_off_c, 3, 58, 0
5, 36220, Note_on_c, 3, 58, 90
5, 36350, Note_off_c, 3, 58, 0
5, 36455, Note_on_c, 3, 58, 83
5, 36538, Note_off_c, 3, 58, 0
5, 36680, Note_on_c, 3, 58, 83
5, 36763, Note_off_c, 3, 58, 0
5, 37161, Note_on_c, 3, 58, 90
5, 37327, Note_off_c, 3, 58, 0
5, 37398, Note_on_c, 3, 58, 103
5, 37470, Note_off_c, 3, 58, 0
5, 37646, Note_on_c, 3, 58, 90
5, 37706, Note_off_c, 3, 58, 0
5, 38117, Note_on_c, 3, 58, 83
5, 38260, Note_off_c, 3, 58, 0
5, 38353, Note_on_c, 3, 58, 103
5, 38400, Control_c, 3, 32, 0
5, 38400, Control_c, 3, 0, 0
5, 38400, Program_c, 3, 71
5, 38411, Note_on_c, 3, 58, 111
5, 38438, Note_off_c, 3, 58, 0
5, 38502, Note_off_c, 3, 58, 0
5, 38642, Note_on_c, 3, 58, 124
5, 38733, Note_off_c, 3, 58, 0
5, 39090, Note_on_c, 3, 58, 124
5, 39232, Note_off_c, 3, 58, 0
5, 39307, Note_on_c, 3, 58, 111
5, 39387, Note_off_c, 3, 58, 0
5, 39540, Note_on_c, 3, 58, 124
5, 39617, Note_off_c, 3, 58, 0
5, 40038, Note_on_c, 3, 58, 124
5, 40205, Note_off_c, 3, 58, 0
5, 40257, Note_on_c, 3, 62, 103
5, 40347, Note_off_c, 3, 62, 0
5, 40501, Note_on_c, 3, 62, 103
5, 40605, Note_off_c, 3, 62, 0
5, 41000, Note_on_c, 3, 62, 111
5, 41167, Note_off_c, 3, 62, 0
5, 41243, Note_on_c, 3, 62, 103
5, 41333, Note_off_c, 3, 62, 0
5, 41487, Note_on_c, 3, 62, 103
5, 41566, Note_off_c, 3, 62, 0
5, 41973, Note_on_c, 3, 62, 111
5, 42166, Note_off_c, 3, 62, 0
5, 42217, Note_on_c, 3, 63, 124
5, 42308, Note_off_c, 3, 63, 0
5, 42447, Note_on_c, 3, 63, 124
5, 42526, Note_off_c, 3, 63, 0
5, 42933, Note_on_c, 3, 63, 125
5, 43113, Note_off_c, 3, 63, 0
5, 43165, Note_on_c, 3, 60, 90
5, 43268, Note_off_c, 3, 60, 0
5, 43396, Note_on_c, 3, 60, 111
5, 43498, Note_off_c, 3, 60, 0
5, 43893, Note_on_c, 3, 60, 111
5, 44086, Note_off_c, 3, 60, 0
5, 44125, Note_on_c, 3, 62, 103
5, 44228, Note_off_c, 3, 62, 0
5, 44370, Note_on_c, 3, 62, 103
5, 44472, Note_off_c, 3, 62, 0
5, 44855, Note_on_c, 3, 62, 90
5, 44996, Note_off_c, 3, 62, 0
5, 45086, Note_on_c, 3, 62, 103
5, 45176, Note_off_c, 3, 62, 0
5, 45317, Note_on_c, 3, 62, 82
5, 45408, Note_off_c, 3, 62, 0
5, 45816, Note_on_c, 3, 62, 111
5, 45996, Note_off_c, 3, 62, 0
5, 46035, Note_on_c, 3, 60, 103
5, 46151, Note_off_c, 3, 60, 0
5, 46291, Note_on_c, 3, 60, 82
5, 46382, Note_off_c, 3, 60, 0
5, 46790, Note_on_c, 3, 60, 103
5, 46982, Note_off_c, 3, 60, 0
5, 47008, Note_on_c, 3, 62, 103
5, 47125, Note_off_c, 3, 62, 0
5, 47265, Note_on_c, 3, 62, 103
5, 47368, Note_off_c, 3, 62, 0
5, 47751, Note_on_c, 3, 62, 103
5, 47931, Note_off_c, 3, 62, 0
5, 47970, Note_on_c, 3, 63, 124
5, 48072, Note_off_c, 3, 63, 0
5, 48213, Note_on_c, 3, 63, 103
5, 48303, Note_off_c, 3, 63, 0
5, 48711, Note_on_c, 3, 63, 124
5, 48892, Note_off_c, 3, 63, 0
5, 48956, Note_on_c, 3, 62, 103
5, 49046, Note_off_c, 3, 62, 0
5, 49187, Note_on_c, 3, 62, 83
5, 49278, Note_off_c, 3, 62, 0
5, 49660, Note_on_c, 3, 62, 103
5, 49841, Note_off_c, 3, 62, 0
5, 49892, Note_on_c, 3, 60, 90
5, 49995, Note_off_c, 3, 60, 0
5, 50148, Note_on_c, 3, 60, 83
5, 50226, Note_off_c, 3, 60, 0
5, 50647, Note_on_c, 3, 60, 103
5, 50827, Note_off_c, 3, 60, 0
5, 50878, Note_on_c, 3, 62, 103
5, 50957, Note_off_c, 3, 62, 0
5, 51123, Note_on_c, 3, 62, 90
5, 51200, Note_off_c, 3, 62, 0
5, 51596, Note_on_c, 3, 62, 103
5, 51776, Note_off_c, 3, 62, 0
5, 51827, Note_on_c, 3, 63, 111
5, 51905, Note_off_c, 3, 63, 0
5, 52058, Note_on_c, 3, 63, 111
5, 52137, Note_off_c, 3, 63, 0
5, 52545, Note_on_c, 3, 63, 111
5, 52700, Note_off_c, 3, 63, 0
5, 52790, Note_on_c, 3, 62, 83
5, 52892, Note_off_c, 3, 62, 0
5, 53033, Note_on_c, 3, 62, 83
5, 53111, Note_off_c, 3, 62, 0
5, 53507, Note_on_c, 3, 65, 111
5, 53712, Note_off_c, 3, 65, 0
5, 53750, Note_on_c, 3, 67, 83
5, 53866, Note_off_c, 3, 67, 0
5, 53995, Note_on_c, 3, 67, 82
5, 54123, Note_off_c, 3, 67, 0
5, 54455, Note_on_c, 3, 67, 124
5, 54610, Note_off_c, 3, 67, 0
5, 54686, Note_on_c, 3, 67, 103
5, 54776, Note_off_c, 3, 67, 0
5, 54943, Note_on_c, 3, 67, 81
5, 55033, Note_off_c, 3, 67, 0
5, 55403, Note_on_c, 3, 67, 111
5, 55532, Note_off_c, 3, 67, 0
5, 55635, Note_on_c, 3, 67, 90
5, 55751, Note_off_c, 3, 67, 0
5, 55891, Note_on_c, 3, 67, 90
5, 55995, Note_off_c, 3, 67, 0
5, 56377, Note_on_c, 3, 67, 111
5, 56506, Note_off_c, 3, 67, 0
5, 56608, Note_on_c, 3, 67, 103
5, 56712, Note_off_c, 3, 67, 0
5, 56865, Note_on_c, 3, 67, 103
5, 56956, Note_off_c, 3, 67, 0
5, 57338, Note_on_c, 3, 67, 103
5, 57531, Note_off_c, 3, 67, 0
5, 57583, Note_on_c, 3, 65, 103
5, 57686, Note_off_c, 3, 65, 0
5, 57827, Note_on_c, 3, 65, 90
5, 57930, Note_off_c, 3, 65, 0
5, 58300, Note_on_c, 3, 65, 111
5, 58505, Note_off_c, 3, 65, 0
5, 58545, Note_on_c, 3, 62, 90
5, 58635, Note_off_c, 3, 62, 0
5, 58776, Note_on_c, 3, 62, 90
5, 58878, Note_off_c, 3, 62, 0
5, 59273, Note_on_c, 3, 53, 83
5, 59326, Note_off_c, 3, 53, 0
5, 59518, Note_on_c, 3, 70, 124
5, 59596, Note_off_c, 3, 70, 0
5, 59748, Note_on_c, 3, 70, 111
5, 59865, Note_off_c, 3, 70, 0
5, 60198, Note_on_c, 3, 58, 124
5, 60403, Note_off_c, 3, 58, 0
5, 60442, Note_on_c, 3, 57, 81
5, 60533, Note_off_c, 3, 57, 0
5, 60686, Note_on_c, 3, 57, 82
5, 60777, Note_off_c, 3, 57, 0
5, 61147, Note_on_c, 3, 57, 81
5, 61263, Note_off_c, 3, 57, 0
5, 61403, Note_on_c, 3, 58, 111
5, 62031, Note_off_c, 3, 58, 0
5, 62158, Note_on_c, 3, 65, 111
5, 62363, Note_off_c, 3, 65, 0
5, 62390, Note_on_c, 3, 67, 90
5, 62620, Note_on_c, 3, 65, 103
5, 62633, Note_off_c, 3, 67, 0
5, 62826, Note_on_c, 3, 63, 124
5, 62841, Note_off_c, 3, 65, 0
5, 63032, Note_off_c, 3, 63, 0
5, 63058, Note_on_c, 3, 62, 103
5, 63175, Note_off_c, 3, 62, 0
5, 63302, Note_on_c, 3, 62, 90
5, 64106, Note_off_c, 3, 62, 0
5, 64297, Note_on_c, 3, 62, 103
5, 64528, Note_on_c, 3, 60, 82
5, 64556, Note_off_c, 3, 62, 0
5, 64761, Note_on_c, 3, 58, 82
5, 64787, Note_off_c, 3, 60, 0
5, 65005, Note_on_c, 3, 60, 66
5, 65032, Note_off_c, 3, 58, 0
5, 65238, Note_off_c, 3, 60, 0
5, 65251, Note_on_c, 3, 61, 83
5, 65406, Note_off_c, 3, 61, 0
5, 65521, Note_on_c, 3, 61, 73
5, 65611, Note_off_c, 3, 61, 0
5, 65993, Note_on_c, 3, 61, 83
5, 66148, Note_off_c, 3, 61, 0
5, 66251, Note_on_c, 3, 61, 90
5, 66330, Note_off_c, 3, 61, 0
5, 66482, Note_on_c, 3, 61, 82
5, 66587, Note_off_c, 3, 61, 0
5, 66970, Note_on_c, 3, 61, 90
5, 67125, Note_off_c, 3, 61, 0
5, 67201, Note_on_c, 3, 61, 90
5, 67305, Note_off_c, 3, 61, 0
5, 67445, Note_on_c, 3, 61, 82
5, 67535, Note_off_c, 3, 61, 0
5, 67892, Note_on_c, 3, 61, 90
5, 68047, Note_off_c, 3, 61, 0
5, 68137, Note_on_c, 3, 61, 83
5, 68227, Note_off_c, 3, 61, 0
5, 68368, Note_on_c, 3, 61, 81
5, 68446, Note_off_c, 3, 61, 0
5, 68853, Note_on_c, 3, 61, 90
5, 69033, Note_off_c, 3, 61, 0
5, 69085, Note_on_c, 3, 60, 81
5, 69188, Note_off_c, 3, 60, 0
5, 69330, Note_on_c, 3, 60, 82
5, 69433, Note_off_c, 3, 60, 0
5, 69815, Note_on_c, 3, 64, 90
5, 69945, Note_off_c, 3, 64, 0
5, 70060, Note_on_c, 3, 64, 90
5, 70150, Note_off_c, 3, 64, 0
5, 70290, Note_on_c, 3, 64, 90
5, 70393, Note_off_c, 3, 64, 0
5, 70790, Note_on_c, 3, 60, 90
5, 70931, Note_off_c, 3, 60, 0
5, 71045, Note_on_c, 3, 60, 103
5, 71137, Note_off_c, 3, 60, 0
5, 71277, Note_on_c, 3, 60, 81
5, 71355, Note_off_c, 3, 60, 0
5, 71763, Note_on_c, 3, 60, 83
5, 71880, Note_off_c, 3, 60, 0
5, 71981, Note_on_c, 3, 60, 82
5, 72060, Note_off_c, 3, 60, 0
5, 72227, Note_on_c, 3, 60, 54
5, 72317, Note_off_c, 3, 60, 0
5, 72700, Note_on_c, 3, 60, 83
5, 72881, Note_off_c, 3, 60, 0
5, 72932, Note_on_c, 3, 56, 83
5, 73048, Note_off_c, 3, 56, 0
5, 73176, Note_on_c, 3, 56, 111
5, 73280, Note_off_c, 3, 56, 0
5, 73688, Note_on_c, 3, 56, 111
5, 73830, Note_off_c, 3, 56, 0
5, 73918, Note_on_c, 3, 56, 103
5, 74010, Note_off_c, 3, 56, 0
5, 74176, Note_on_c, 3, 56, 103
5, 74253, Note_off_c, 3, 56, 0
5, 74648, Note_on_c, 3, 56, 111
5, 74841, Note_off_c, 3, 56, 0
5, 74893, Note_on_c, 3, 55, 90
5, 74996, Note_off_c, 3, 55, 0
5, 75137, Note_on_c, 3, 55, 90
5, 75240, Note_off_c, 3, 55, 0
5, 75597, Note_on_c, 3, 55, 83
5, 75738, Note_off_c, 3, 55, 0
5, 75828, Note_on_c, 3, 55, 90
5, 75932, Note_off_c, 3, 55, 0
5, 76086, Note_on_c, 3, 55, 83
5, 76177, Note_off_c, 3, 55, 0
5, 76586, Note_on_c, 3, 53, 82
5, 76752, Note_off_c, 3, 53, 0
5, 76817, Note_on_c, 3, 51, 82
5, 76933, Note_off_c, 3, 51, 0
5, 77048, Note_on_c, 3, 51, 81
5, 77178, Note_off_c, 3, 51, 0
5, 77522, Note_on_c, 3, 60, 83
5, 77677, Note_off_c, 3, 60, 0
5, 77767, Note_on_c, 3, 60, 83
5, 77871, Note_off_c, 3, 60, 0
5, 77998, Note_on_c, 3, 60, 83
5, 78077, Note_off_c, 3, 60, 0
5, 78473, Note_on_c, 3, 55, 111
5, 78653, Note_off_c, 3, 55, 0
5, 78705, Note_on_c, 3, 57, 83
5, 78821, Note_off_c, 3, 57, 0
5, 78962, Note_on_c, 3, 57, 82
5, 79052, Note_off_c, 3, 57, 0
5, 79438, Note_on_c, 3, 57, 83
5, 79621, Note_off_c, 3, 57, 0
5, 79673, Note_on_c, 3, 58, 111
5, 79802, Note_off_c, 3, 58, 0
5, 79928, Note_on_c, 3, 58, 90
5, 80046, Note_off_c, 3, 58, 0
5, 80402, Note_on_c, 3, 58, 111
5, 80583, Note_off_c, 3, 58, 0
5, 80635, Note_on_c, 3, 60, 90
5, 80738, Note_off_c, 3, 60, 0
5, 80891, Note_on_c, 3, 60, 83
5, 80982, Note_off_c, 3, 60, 0
5, 81352, Note_on_c, 3, 60, 103
5, 81520, Note_off_c, 3, 60, 0
5, 81583, Note_on_c, 3, 63, 103
5, 81687, Note_off_c, 3, 63, 0
5, 81827, Note_on_c, 3, 63, 90
5, 81918, Note_off_c, 3, 63, 0
5, 82315, Note_on_c, 3, 55, 103
5, 82532, Note_off_c, 3, 55, 0
5, 82546, Note_on_c, 3, 57, 103
5, 82675, Note_off_c, 3, 57, 0
5, 82790, Note_on_c, 3, 57, 83
5, 82893, Note_off_c, 3, 57, 0
5, 83276, Note_on_c, 3, 57, 90
5, 83456, Note_off_c, 3, 57, 0
5, 83507, Note_on_c, 3, 58, 111
5, 83611, Note_off_c, 3, 58, 0
5, 83751, Note_on_c, 3, 58, 103
5, 83867, Note_off_c, 3, 58, 0
5, 84262, Note_on_c, 3, 58, 103
5, 84467, Note_off_c, 3, 58, 0
5, 84493, Note_on_c, 3, 60, 80
5, 84611, Note_off_c, 3, 60, 0
5, 84738, Note_on_c, 3, 60, 80
5, 84842, Note_off_c, 3, 60, 0
5, 85198, Note_on_c, 3, 60, 103
5, 85378, Note_off_c, 3, 60, 0
5, 85431, Note_on_c, 3, 63, 103
5, 85533, Note_off_c, 3, 63, 0
5, 85661, Note_on_c, 3, 63, 111
5, 85765, Note_off_c, 3, 63, 0
5, 86122, Note_on_c, 3, 55, 103
5, 86353, Note_on_c, 3, 57, 83
5, 86380, Note_off_c, 3, 55, 0
5, 86508, Note_off_c, 3, 57, 0
5, 86597, Note_on_c, 3, 57, 83
5, 86738, Note_off_c, 3, 57, 0
5, 87096, Note_on_c, 3, 57, 90
5, 87313, Note_on_c, 3, 58, 103
5, 87341, Note_off_c, 3, 57, 0
5, 87468, Note_off_c, 3, 58, 0
5, 87571, Note_on_c, 3, 58, 103
5, 87700, Note_off_c, 3, 58, 0
5, 88056, Note_on_c, 3, 58, 111
5, 88262, Note_off_c, 3, 58, 0
5, 88301, Note_on_c, 3, 60, 90
5, 88416, Note_off_c, 3, 60, 0
5, 88545, Note_on_c, 3, 60, 82
5, 88648, Note_off_c, 3, 60, 0
5, 89017, Note_on_c, 3, 60, 90
5, 89223, Note_off_c, 3, 60, 0
5, 89237, Note_on_c, 3, 58, 90
5, 89366, Note_off_c, 3, 58, 0
5, 89481, Note_on_c, 3, 58, 103
5, 89597, Note_off_c, 3, 58, 0
5, 90006, Note_on_c, 3, 58, 111
5, 90198, Note_off_c, 3, 58, 0
5, 90236, Note_on_c, 3, 60, 90
5, 90353, Note_off_c, 3, 60, 0
5, 90480, Note_on_c, 3, 60, 90
5, 90597, Note_off_c, 3, 60, 0
5, 90966, Note_on_c, 3, 60, 103
5, 91133, Note_off_c, 3, 60, 0
5, 91185, Note_on_c, 3, 62, 103
5, 91288, Note_off_c, 3, 62, 0
5, 91430, Note_on_c, 3, 62, 90
5, 91546, Note_off_c, 3, 62, 0
5, 91927, Note_on_c, 3, 62, 103
5, 92018, Note_off_c, 3, 62, 0
5, 92172, Note_on_c, 3, 62, 103
5, 92287, Note_off_c, 3, 62, 0
5, 92428, Note_on_c, 3, 62, 90
5, 92532, Note_off_c, 3, 62, 0
5, 92876, Note_on_c, 3, 62, 111
5, 93095, Note_off_c, 3, 62, 0
5, 93107, Note_on_c, 3, 61, 103
5, 93223, Note_off_c, 3, 61, 0
5, 93351, Note_on_c, 3, 61, 83
5, 93467, Note_off_c, 3, 61, 0
5, 93811, Note_on_c, 3, 61, 90
5, 93991, Note_off_c, 3, 61, 0
5, 94055, Note_on_c, 3, 60, 82
5, 94172, Note_off_c, 3, 60, 0
5, 94312, Note_on_c, 3, 60, 82
5, 94415, Note_off_c, 3, 60, 0
5, 94772, Note_on_c, 3, 60, 103
5, 94940, Note_off_c, 3, 60, 0
5, 95003, Note_on_c, 3, 60, 90
5, 95095, Note_off_c, 3, 60, 0
5, 95248, Note_on_c, 3, 60, 82
5, 95326, Note_off_c, 3, 60, 0
5, 95733, Note_on_c, 3, 60, 83
5, 95927, Note_off_c, 3, 60, 0
5, 95991, Note_on_c, 3, 58, 90
5, 96043, Note_off_c, 3, 58, 0
5, 96235, Note_on_c, 3, 56, 111
5, 96327, Note_off_c, 3, 56, 0
5, 96683, Note_on_c, 3, 56, 82
5, 96737, Note_off_c, 3, 56, 0
5, 96942, Note_on_c, 3, 59, 83
5, 97020, Note_off_c, 3, 59, 0
5, 97175, Note_on_c, 3, 59, 83
5, 97277, Note_off_c, 3, 59, 0
5, 97647, Note_on_c, 3, 59, 111
5, 97827, Note_off_c, 3, 59, 0
5, 97891, Note_on_c, 3, 58, 103
5, 97995, Note_off_c, 3, 58, 0
5, 98122, Note_on_c, 3, 58, 103
5, 98226, Note_off_c, 3, 58, 0
5, 98608, Note_on_c, 3, 56, 103
5, 98763, Note_off_c, 3, 56, 0
5, 98852, Note_on_c, 3, 56, 90
5, 98945, Note_off_c, 3, 56, 0
5, 99097, Note_on_c, 3, 56, 103
5, 99187, Note_off_c, 3, 56, 0
5, 99571, Note_on_c, 3, 46, 103
5, 99700, Note_off_c, 3, 46, 0
5, 99840, Control_c, 3, 32, 0
5, 99840, Control_c, 3, 0, 0
5, 99840, Program_c, 3, 71
5, 103706, Note_on_c, 3, 55, 111
5, 103798, Note_off_c, 3, 55, 0
5, 103940, Note_on_c, 3, 55, 103
5, 104045, Note_off_c, 3, 55, 0
5, 104392, Note_on_c, 3, 55, 124
5, 104548, Note_off_c, 3, 55, 0
5, 104627, Note_on_c, 3, 55, 111
5, 104718, Note_off_c, 3, 55, 0
5, 104860, Note_on_c, 3, 55, 90
5, 104951, Note_off_c, 3, 55, 0
5, 105338, Note_on_c, 3, 58, 124
5, 105507, Note_off_c, 3, 58, 0
5, 105560, Note_on_c, 3, 62, 111
5, 105663, Note_off_c, 3, 62, 0
5, 105806, Note_on_c, 3, 62, 111
5, 105922, Note_off_c, 3, 62, 0
5, 106310, Note_on_c, 3, 62, 111
5, 106478, Note_off_c, 3, 62, 0
5, 106543, Note_on_c, 3, 62, 111
5, 106661, Note_off_c, 3, 62, 0
5, 106791, Note_on_c, 3, 62, 103
5, 106881, Note_off_c, 3, 62, 0
5, 107282, Note_on_c, 3, 62, 103
5, 107463, Note_off_c, 3, 62, 0
5, 107516, Note_on_c, 3, 63, 124
5, 107633, Note_off_c, 3, 63, 0
5, 107761, Note_on_c, 3, 63, 124
5, 107853, Note_off_c, 3, 63, 0
5, 108227, Note_on_c, 3, 60, 124
5, 108385, Note_off_c, 3, 60, 0
5, 108475, Note_on_c, 3, 60, 103
5, 108553, Note_off_c, 3, 60, 0
5, 108708, Note_on_c, 3, 60, 81
5, 108800, Note_off_c, 3, 60, 0
5, 109187, Note_on_c, 3, 60, 90
5, 109370, Note_off_c, 3, 60, 0
5, 109408, Note_on_c, 3, 58, 111
5, 109512, Note_off_c, 3, 58, 0
5, 109653, Note_on_c, 3, 58, 124
5, 109747, Note_off_c, 3, 58, 0
5, 110146, Note_on_c, 3, 63, 124
5, 110302, Note_off_c, 3, 63, 0
5, 110366, Note_on_c, 3, 63, 124
5, 110458, Note_off_c, 3, 63, 0
5, 110626, Note_on_c, 3, 63, 111
5, 110693, Note_off_c, 3, 63, 0
5, 111092, Note_on_c, 3, 63, 111
5, 111248, Note_off_c, 3, 63, 0
5, 111326, Note_on_c, 3, 63, 124
5, 111417, Note_off_c, 3, 63, 0
5, 111573, Note_on_c, 3, 63, 124
5, 111665, Note_off_c, 3, 63, 0
5, 112065, Note_on_c, 3, 63, 124
5, 112207, Note_off_c, 3, 63, 0
5, 112285, Note_on_c, 3, 63, 124
5, 112376, Note_off_c, 3, 63, 0
5, 112545, Note_on_c, 3, 63, 111
5, 112611, Note_off_c, 3, 63, 0
5, 113022, Note_on_c, 3, 63, 124
5, 113205, Note_off_c, 3, 63, 0
5, 113257, Note_on_c, 3, 62, 90
5, 113362, Note_off_c, 3, 62, 0
5, 113491, Note_on_c, 3, 62, 90
5, 113582, Note_off_c, 3, 62, 0
5, 113981, Note_on_c, 3, 62, 111
5, 114126, Note_off_c, 3, 62, 0
5, 114203, Note_on_c, 3, 62, 124
5, 114295, Note_off_c, 3, 62, 0
5, 114462, Note_on_c, 3, 62, 103
5, 114567, Note_off_c, 3, 62, 0
5, 114940, Note_on_c, 3, 62, 111
5, 115097, Note_off_c, 3, 62, 0
5, 115188, Note_on_c, 3, 62, 111
5, 115266, Note_off_c, 3, 62, 0
5, 115435, Note_on_c, 3, 62, 83
5, 115527, Note_off_c, 3, 62, 0
5, 115913, Note_on_c, 3, 62, 111
5, 116096, Note_off_c, 3, 62, 0
5, 116148, Note_on_c, 3, 63, 111
5, 116252, Note_off_c, 3, 63, 0
5, 116395, Note_on_c, 3, 63, 124
5, 116472, Note_off_c, 3, 63, 0
5, 116847, Note_on_c, 3, 64, 103
5, 117028, Note_off_c, 3, 64, 0
5, 117093, Note_on_c, 3, 65, 103
5, 117211, Note_off_c, 3, 65, 0
5, 117352, Note_on_c, 3, 65, 90
5, 117483, Note_off_c, 3, 65, 0
5, 117843, Note_on_c, 3, 65, 103
5, 117988, Note_off_c, 3, 65, 0
5, 118066, Note_on_c, 3, 65, 83
5, 118132, Note_off_c, 3, 65, 0
5, 118301, Note_on_c, 3, 65, 90
5, 118380, Note_off_c, 3, 65, 0
5, 118778, Note_on_c, 3, 67, 103
5, 118872, Note_off_c, 3, 67, 0
5, 119013, Note_on_c, 3, 68, 111
5, 120457, Note_off_c, 3, 68, 0
5, 120471, Note_on_c, 3, 65, 103
5, 120948, Note_on_c, 3, 67, 90
5, 120976, Note_off_c, 3, 65, 0
5, 121093, Note_off_c, 3, 67, 0
5, 121196, Note_on_c, 3, 67, 103
5, 121313, Note_off_c, 3, 67, 0
5, 121688, Note_on_c, 3, 63, 124
5, 121882, Note_off_c, 3, 63, 0
5, 121910, Note_on_c, 3, 60, 90
5, 122027, Note_off_c, 3, 60, 0
5, 122156, Note_on_c, 3, 60, 90
5, 122261, Note_off_c, 3, 60, 0
5, 122635, Note_on_c, 3, 60, 103
5, 122830, Note_off_c, 3, 60, 0
5, 122870, Note_on_c, 3, 58, 124
5, 122961, Note_off_c, 3, 58, 0
5, 123128, Note_on_c, 3, 58, 124
5, 123207, Note_off_c, 3, 58, 0
5, 123595, Note_on_c, 3, 58, 124
5, 123725, Note_off_c, 3, 58, 0
5, 123828, Note_on_c, 3, 58, 111
5, 123907, Note_off_c, 3, 58, 0
5, 124075, Note_on_c, 3, 58, 111
5, 124180, Note_off_c, 3, 58, 0
5, 124541, Note_on_c, 3, 56, 124
5, 124773, Note_on_c, 3, 55, 83
5, 124775, Note_off_c, 3, 56, 0
5, 124892, Note_off_c, 3, 55, 0
5, 125033, Note_on_c, 3, 55, 90
5, 125138, Note_off_c, 3, 55, 0
5, 125538, Note_on_c, 3, 58, 124
5, 125721, Note_off_c, 3, 58, 0
5, 125773, Note_on_c, 3, 58, 103
5, 125865, Note_off_c, 3, 58, 0
5, 126020, Note_on_c, 3, 58, 90
5, 126112, Note_off_c, 3, 58, 0
5, 126486, Note_on_c, 3, 58, 111
5, 126655, Note_off_c, 3, 58, 0
5, 126720, Note_on_c, 3, 58, 111
5, 126812, Note_off_c, 3, 58, 0
5, 126953, Note_on_c, 3, 58, 111
5, 127032, Note_off_c, 3, 58, 0
5, 127433, Note_on_c, 3, 58, 124
5, 127615, Note_off_c, 3, 58, 0
5, 127666, Note_on_c, 3, 58, 83
5, 127758, Note_off_c, 3, 58, 0
5, 127915, Note_on_c, 3, 58, 103
5, 127993, Note_off_c, 3, 58, 0
5, 128380, Note_on_c, 3, 58, 124
5, 128548, Note_off_c, 3, 58, 0
5, 128613, Note_on_c, 3, 58, 124
5, 128705, Note_off_c, 3, 58, 0
5, 128872, Note_on_c, 3, 58, 111
5, 128952, Note_off_c, 3, 58, 0
5, 129338, Note_on_c, 3, 58, 124
5, 129520, Note_off_c, 3, 58, 0
5, 129585, Note_on_c, 3, 58, 111
5, 129663, Note_off_c, 3, 58, 0
5, 129831, Note_on_c, 3, 58, 103
5, 129911, Note_off_c, 3, 58, 0
5, 130311, Note_on_c, 3, 58, 124
5, 130453, Note_off_c, 3, 58, 0
5, 130543, Note_on_c, 3, 58, 111
5, 130648, Note_off_c, 3, 58, 0
5, 130790, Note_on_c, 3, 58, 111
5, 130868, Note_off_c, 3, 58, 0
5, 131268, Note_on_c, 3, 58, 111
5, 131412, Note_off_c, 3, 58, 0
5, 131502, Note_on_c, 3, 58, 124
5, 131581, Note_off_c, 3, 58, 0
5, 131748, Note_on_c, 3, 58, 111
5, 131815, Note_off_c, 3, 58, 0
5, 132215, Note_on_c, 3, 58, 111
5, 132410, Note_off_c, 3, 58, 0
5, 132461, Note_on_c, 3, 60, 103
5, 132552, Note_off_c, 3, 60, 0
5, 132708, Note_on_c, 3, 60, 90
5, 132800, Note_off_c, 3, 60, 0
5, 133200, Note_on_c, 3, 60, 103
5, 133370, Note_off_c, 3, 60, 0
5, 133433, Note_on_c, 3, 60, 103
5, 133538, Note_off_c, 3, 60, 0
5, 133667, Note_on_c, 3, 60, 90
5, 133760, Note_off_c, 3, 60, 0
5, 134146, Note_on_c, 3, 60, 103
5, 134328, Note_off_c, 3, 60, 0
5, 134380, Note_on_c, 3, 61, 103
5, 134497, Note_off_c, 3, 61, 0
5, 134626, Note_on_c, 3, 61, 90
5, 134718, Note_off_c, 3, 61, 0
5, 135118, Note_on_c, 3, 61, 90
5, 135261, Note_off_c, 3, 61, 0
5, 135365, Note_on_c, 3, 61, 90
5, 135456, Note_off_c, 3, 61, 0
5, 135598, Note_on_c, 3, 61, 83
5, 135677, Note_off_c, 3, 61, 0
5, 136090, Note_on_c, 3, 61, 90
5, 136261, Note_off_c, 3, 61, 0
5, 136325, Note_on_c, 3, 60, 90
5, 136428, Note_off_c, 3, 60, 0
5, 136558, Note_on_c, 3, 60, 82
5, 136651, Note_off_c, 3, 60, 0
5, 137050, Note_on_c, 3, 60, 90
5, 137220, Note_off_c, 3, 60, 0
5, 137296, Note_on_c, 3, 60, 90
5, 137401, Note_off_c, 3, 60, 0
5, 137505, Note_on_c, 3, 60, 90
5, 137610, Note_off_c, 3, 60, 0
5, 137983, Note_on_c, 3, 55, 103
5, 138166, Note_off_c, 3, 55, 0
5, 138231, Note_on_c, 3, 53, 90
5, 138348, Note_off_c, 3, 53, 0
5, 138477, Note_on_c, 3, 53, 83
5, 138582, Note_off_c, 3, 53, 0
5, 138957, Note_on_c, 3, 53, 83
5, 139113, Note_off_c, 3, 53, 0
5, 139191, Note_on_c, 3, 55, 103
5, 139283, Note_off_c, 3, 55, 0
5, 139451, Note_on_c, 3, 55, 90
5, 139543, Note_off_c, 3, 55, 0
5, 139931, Note_on_c, 3, 55, 90
5, 140061, Note_off_c, 3, 55, 0
5, 140151, Note_on_c, 3, 56, 124
5, 140256, Note_off_c, 3, 56, 0
5, 140397, Note_on_c, 3, 56, 111
5, 140502, Note_off_c, 3, 56, 0
5, 140888, Note_on_c, 3, 56, 124
5, 141071, Note_off_c, 3, 56, 0
5, 141122, Note_on_c, 3, 55, 111
5, 141226, Note_off_c, 3, 55, 0
5, 141368, Note_on_c, 3, 55, 83
5, 141512, Note_off_c, 3, 55, 0
5, 141860, Note_on_c, 3, 55, 103
5, 142017, Note_off_c, 3, 55, 0
5, 142093, Note_on_c, 3, 53, 83
5, 142225, Note_off_c, 3, 53, 0
5, 142327, Note_on_c, 3, 53, 90
5, 142486, Note_off_c, 3, 53, 0
5, 142808, Note_on_c, 3, 65, 103
5, 143002, Note_off_c, 3, 65, 0
5, 143055, Note_on_c, 3, 67, 83
5, 143172, Note_off_c, 3, 67, 0
5, 143288, Note_on_c, 3, 67, 90
5, 143446, Note_off_c, 3, 67, 0
5, 143742, Note_on_c, 3, 67, 111
5, 143925, Note_off_c, 3, 67, 0
5, 143976, Note_on_c, 3, 68, 111
5, 144106, Note_off_c, 3, 68, 0
5, 144222, Note_on_c, 3, 68, 111
5, 144340, Note_off_c, 3, 68, 0
5, 144726, Note_on_c, 3, 68, 111
5, 144870, Note_off_c, 3, 68, 0
5, 144947, Note_on_c, 3, 67, 90
5, 145077, Note_off_c, 3, 67, 0
5, 145206, Note_on_c, 3, 67, 90
5, 145376, Note_off_c, 3, 67, 0
5, 145686, Note_on_c, 3, 60, 111
5, 145856, Note_off_c, 3, 60, 0
5, 146181, Note_on_c, 3, 58, 111
5, 146246, Note_off_c, 3, 58, 0
5, 146633, Note_on_c, 3, 60, 103
5, 146777, Note_off_c, 3, 60, 0
5, 146880, Note_on_c, 3, 60, 103
5, 146985, Note_off_c, 3, 60, 0
5, 147126, Note_on_c, 3, 60, 90
5, 147231, Note_off_c, 3, 60, 0
5, 147605, Note_on_c, 3, 60, 111
5, 147748, Note_off_c, 3, 60, 0
5, 147826, Note_on_c, 3, 60, 111
5, 147943, Note_off_c, 3, 60, 0
5, 148060, Note_on_c, 3, 60, 111
5, 148177, Note_off_c, 3, 60, 0
5, 148551, Note_on_c, 3, 60, 124
5, 148707, Note_off_c, 3, 60, 0
5, 148797, Note_on_c, 3, 60, 111
5, 148902, Note_off_c, 3, 60, 0
5, 149043, Note_on_c, 3, 60, 111
5, 149136, Note_off_c, 3, 60, 0
5, 149521, Note_on_c, 3, 60, 103
5, 149716, Note_off_c, 3, 60, 0
5, 149768, Note_on_c, 3, 58, 124
5, 149873, Note_off_c, 3, 58, 0
5, 150002, Note_on_c, 3, 58, 124
5, 150120, Note_off_c, 3, 58, 0
5, 150480, Note_on_c, 3, 55, 83
5, 150650, Note_off_c, 3, 55, 0
5, 150702, Note_on_c, 3, 51, 111
5, 150793, Note_off_c, 3, 51, 0
5, 150948, Note_on_c, 3, 51, 111
5, 151080, Note_off_c, 3, 51, 0
5, 151466, Note_on_c, 3, 46, 111
5, 151545, Note_off_c, 3, 46, 0
5, 151712, Note_on_c, 3, 63, 111
5, 151792, Note_off_c, 3, 63, 0
5, 151947, Note_on_c, 3, 63, 103
5, 152051, Note_off_c, 3, 63, 0
5, 152412, Note_on_c, 3, 63, 111
5, 152570, Note_off_c, 3, 63, 0
5, 152647, Note_on_c, 3, 70, 124
5, 152752, Note_off_c, 3, 70, 0
5, 152882, Note_on_c, 3, 70, 103
5, 152973, Note_off_c, 3, 70, 0
5, 153360, Note_on_c, 3, 62, 90
5, 153452, Note_off_c, 3, 62, 0
5, 153618, Note_on_c, 3, 70, 111
5, 154690, Note_off_c, 3, 70, 0
5, 154755, Note_on_c, 3, 69, 103
5, 154976, Note_off_c, 3, 69, 0
5, 154990, Note_on_c, 3, 68, 111
5, 155158, Note_off_c, 3, 68, 0
5, 155223, Note_on_c, 3, 67, 103
5, 155327, Note_off_c, 3, 67, 0
5, 155482, Note_on_c, 3, 67, 111
5, 156708, Note_on_c, 3, 65, 103
5, 156722, Note_off_c, 3, 67, 0
5, 156916, Note_on_c, 3, 63, 111
5, 156943, Note_off_c, 3, 65, 0
5, 157150, Note_on_c, 3, 65, 103
5, 157151, Note_off_c, 3, 63, 0
5, 157371, Note_off_c, 3, 65, 0
5, 157398, Note_on_c, 3, 63, 124
5, 158378, Note_off_c, 3, 63, 0
5, 163181, Note_on_c, 3, 51, 103
5, 163286, Note_off_c, 3, 51, 0
5, 163441, Note_on_c, 3, 51, 90
5, 163520, Note_off_c, 3, 51, 0
5, 163932, Note_on_c, 3, 51, 82
5, 164037, Note_off_c, 3, 51, 0
5, 164167, Note_on_c, 3, 51, 81
5, 164246, Note_off_c, 3, 51, 0
5, 164413, Note_on_c, 3, 51, 81
5, 164492, Note_off_c, 3, 51, 0
5, 164892, Note_on_c, 3, 51, 82
5, 164985, Note_off_c, 3, 51, 0
5, 165126, Note_on_c, 3, 51, 83
5, 165205, Note_off_c, 3, 51, 0
5, 165373, Note_on_c, 3, 51, 83
5, 165466, Note_off_c, 3, 51, 0
5, 165826, Note_on_c, 3, 51, 82
5, 165906, Note_off_c, 3, 51, 0
5, 166061, Note_on_c, 3, 51, 83
5, 166141, Note_off_c, 3, 51, 0
5, 166322, Note_on_c, 3, 51, 83
5, 166401, Note_off_c, 3, 51, 0
5, 166813, Note_on_c, 3, 51, 83
5, 166931, Note_off_c, 3, 51, 0
5, 167060, Note_on_c, 3, 51, 83
5, 167151, Note_off_c, 3, 51, 0
5, 167306, Note_on_c, 3, 51, 82
5, 167386, Note_off_c, 3, 51, 0
5, 167772, Note_on_c, 3, 51, 82
5, 167865, Note_off_c, 3, 51, 0
5, 168020, Note_on_c, 3, 51, 83
5, 168086, Note_off_c, 3, 51, 0
5, 168255, Note_on_c, 3, 51, 83
5, 168333, Note_off_c, 3, 51, 0
5, 168733, Note_on_c, 3, 51, 82
5, 168786, Note_off_c, 3, 51, 0
5, 168981, Note_on_c, 3, 51, 80
5, 169368, Note_off_c, 3, 51, 0
5, 169910, Note_on_c, 3, 65, 103
5, 170620, Note_on_c, 3, 67, 90
5, 170621, Note_off_c, 3, 65, 0
5, 170726, Note_off_c, 3, 67, 0
5, 170853, Note_on_c, 3, 67, 83
5, 171230, Note_off_c, 3, 67, 0
5, 171836, Note_on_c, 3, 68, 90
5, 172533, Note_off_c, 3, 68, 0
5, 172560, Note_on_c, 3, 67, 80
5, 172678, Note_off_c, 3, 67, 0
5, 172820, Note_on_c, 3, 67, 80
5, 173298, Note_off_c, 3, 67, 0
5, 173737, Note_on_c, 3, 58, 81
5, 174562, Note_off_c, 3, 58, 0
5, 174731, Note_on_c, 3, 58, 65
5, 175298, Note_off_c, 3, 58, 0
5, 175298, End_track
6, 0, Start_track
6, 0, Title_t, "Fagottkomp"
6, 0, MIDI_port, 0
6, 0, Channel_prefix, 4
6, 0, Control_c, 4, 7, 72
6, 0, Control_c, 4, 10, 0
6, 0, Control_c, 4, 0, 0
6, 0, Control_c, 4, 32, 0
6, 0, Control_c, 4, 93, 0
6, 0, Program_c, 4, 70
6, 3863, Note_on_c, 4, 51, 82
6, 3936, Note_off_c, 4, 51, 0
6, 4065, Note_on_c, 4, 51, 72
6, 4148, Note_off_c, 4, 51, 0
6, 4547, Note_on_c, 4, 51, 103
6, 4712, Note_off_c, 4, 51, 0
6, 4771, Note_on_c, 4, 51, 90
6, 4877, Note_off_c, 4, 51, 0
6, 5007, Note_on_c, 4, 51, 90
6, 5091, Note_off_c, 4, 51, 0
6, 5513, Note_on_c, 4, 51, 111
6, 5726, Note_off_c, 4, 51, 0
6, 5738, Note_on_c, 4, 53, 103
6, 5845, Note_off_c, 4, 53, 0
6, 5962, Note_on_c, 4, 53, 103
6, 6057, Note_off_c, 4, 53, 0
6, 6467, Note_on_c, 4, 56, 83
6, 6516, Note_off_c, 4, 56, 0
6, 6680, Note_on_c, 4, 58, 103
6, 6763, Note_off_c, 4, 58, 0
6, 6905, Note_on_c, 4, 58, 103
6, 6988, Note_off_c, 4, 58, 0
6, 7410, Note_on_c, 4, 58, 90
6, 7611, Note_off_c, 4, 58, 0
6, 7623, Note_on_c, 4, 55, 82
6, 7753, Note_off_c, 4, 55, 0
6, 7871, Note_on_c, 4, 55, 83
6, 7966, Note_off_c, 4, 55, 0
6, 8387, Note_on_c, 4, 60, 103
6, 8622, Note_on_c, 4, 58, 103
6, 8625, Note_off_c, 4, 60, 0
6, 8718, Note_off_c, 4, 58, 0
6, 8848, Note_on_c, 4, 58, 90
6, 8955, Note_off_c, 4, 58, 0
6, 9353, Note_on_c, 4, 55, 83
6, 9577, Note_on_c, 4, 56, 83
6, 9591, Note_off_c, 4, 55, 0
6, 9720, Note_off_c, 4, 56, 0
6, 9826, Note_on_c, 4, 56, 111
6, 9943, Note_off_c, 4, 56, 0
6, 10318, Note_on_c, 4, 56, 90
6, 10530, Note_on_c, 4, 53, 72
6, 10545, Note_off_c, 4, 56, 0
6, 10697, Note_off_c, 4, 53, 0
6, 10768, Note_on_c, 4, 53, 81
6, 10911, Note_off_c, 4, 53, 0
6, 11250, Note_on_c, 4, 56, 124
6, 11451, Note_off_c, 4, 56, 0
6, 11475, Note_on_c, 4, 55, 103
6, 11722, Note_on_c, 4, 51, 103
6, 11723, Note_off_c, 4, 55, 0
6, 11888, Note_off_c, 4, 51, 0
6, 12205, Note_on_c, 4, 51, 103
6, 12358, Note_off_c, 4, 51, 0
6, 12430, Note_on_c, 4, 51, 83
6, 12537, Note_off_c, 4, 51, 0
6, 12677, Note_on_c, 4, 51, 83
6, 12785, Note_off_c, 4, 51, 0
6, 13160, Note_on_c, 4, 55, 83
6, 13372, Note_off_c, 4, 55, 0
6, 13396, Note_on_c, 4, 58, 111
6, 13538, Note_off_c, 4, 58, 0
6, 13632, Note_on_c, 4, 58, 103
6, 13775, Note_off_c, 4, 58, 0
6, 14126, Note_on_c, 4, 58, 81
6, 14268, Note_off_c, 4, 58, 0
6, 14362, Note_on_c, 4, 58, 83
6, 14493, Note_off_c, 4, 58, 0
6, 14610, Note_on_c, 4, 58, 81
6, 14717, Note_off_c, 4, 58, 0
6, 15092, Note_on_c, 4, 58, 103
6, 15305, Note_off_c, 4, 58, 0
6, 15328, Note_on_c, 4, 55, 83
6, 15436, Note_off_c, 4, 55, 0
6, 15565, Note_on_c, 4, 55, 83
6, 15682, Note_off_c, 4, 55, 0
6, 16070, Note_on_c, 4, 55, 111
6, 16257, Note_off_c, 4, 55, 0
6, 16305, Note_on_c, 4, 55, 103
6, 16436, Note_off_c, 4, 55, 0
6, 16541, Note_on_c, 4, 55, 83
6, 16637, Note_off_c, 4, 55, 0
6, 17023, Note_on_c, 4, 55, 111
6, 17201, Note_off_c, 4, 55, 0
6, 17258, Note_on_c, 4, 55, 83
6, 17402, Note_off_c, 4, 55, 0
6, 17496, Note_on_c, 4, 55, 82
6, 17615, Note_off_c, 4, 55, 0
6, 17968, Note_on_c, 4, 55, 72
6, 17992, Note_on_c, 4, 58, 81
6, 18030, Note_off_c, 4, 55, 0
6, 18136, Note_off_c, 4, 58, 0
6, 18218, Note_on_c, 4, 58, 111
6, 18336, Note_off_c, 4, 58, 0
6, 18442, Note_on_c, 4, 58, 124
6, 18572, Note_off_c, 4, 58, 0
6, 18935, Note_on_c, 4, 58, 111
6, 19077, Note_off_c, 4, 58, 0
6, 19148, Note_on_c, 4, 60, 83
6, 19325, Note_off_c, 4, 60, 0
6, 19407, Note_on_c, 4, 60, 90
6, 19551, Note_off_c, 4, 60, 0
6, 19902, Note_on_c, 4, 60, 83
6, 20102, Note_off_c, 4, 60, 0
6, 20126, Note_on_c, 4, 56, 103
6, 20292, Note_off_c, 4, 56, 0
6, 20375, Note_on_c, 4, 56, 124
6, 20482, Note_off_c, 4, 56, 0
6, 20891, Note_on_c, 4, 57, 103
6, 21057, Note_off_c, 4, 57, 0
6, 21105, Note_on_c, 4, 58, 124
6, 21223, Note_off_c, 4, 58, 0
6, 21341, Note_on_c, 4, 58, 111
6, 21495, Note_off_c, 4, 58, 0
6, 21822, Note_on_c, 4, 58, 111
6, 22000, Note_off_c, 4, 58, 0
6, 22046, Note_on_c, 4, 58, 103
6, 22177, Note_off_c, 4, 58, 0
6, 22282, Note_on_c, 4, 58, 111
6, 22377, Note_off_c, 4, 58, 0
6, 22752, Note_on_c, 4, 59, 103
6, 22860, Note_off_c, 4, 59, 0
6, 23023, Note_on_c, 4, 59, 111
6, 23973, Note_on_c, 4, 60, 80
6, 23975, Note_off_c, 4, 59, 0
6, 25392, Note_off_c, 4, 60, 0
6, 25440, Note_on_c, 4, 55, 82
6, 25897, Note_on_c, 4, 56, 90
6, 25898, Note_off_c, 4, 55, 0
6, 26380, Note_on_c, 4, 51, 90
6, 26381, Note_off_c, 4, 56, 0
6, 26862, Note_off_c, 4, 51, 0
6, 26873, Note_on_c, 4, 58, 111
6, 28816, Note_off_c, 4, 58, 0
6, 29028, Note_on_c, 4, 58, 83
6, 29158, Note_off_c, 4, 58, 0
6, 29510, Note_on_c, 4, 55, 81
6, 29722, Note_off_c, 4, 55, 0
6, 29735, Note_on_c, 4, 60, 90
6, 29981, Note_on_c, 4, 56, 90
6, 29995, Note_off_c, 4, 60, 0
6, 30136, Note_off_c, 4, 56, 0
6, 30465, Note_on_c, 4, 53, 83
6, 30690, Note_off_c, 4, 53, 0
6, 30736, Note_on_c, 4, 58, 111
6, 30937, Note_off_c, 4, 58, 0
6, 30950, Note_on_c, 4, 55, 90
6, 31103, Note_off_c, 4, 55, 0
6, 31432, Note_on_c, 4, 51, 111
6, 31645, Note_off_c, 4, 51, 0
6, 31657, Note_on_c, 4, 56, 83
6, 31776, Note_off_c, 4, 56, 0
6, 31893, Note_on_c, 4, 56, 82
6, 32071, Note_off_c, 4, 56, 0
6, 32387, Note_on_c, 4, 53, 81
6, 32598, Note_on_c, 4, 51, 80
6, 32625, Note_off_c, 4, 53, 0
6, 32777, Note_off_c, 4, 51, 0
6, 32860, Note_on_c, 4, 51, 103
6, 33002, Note_off_c, 4, 51, 0
6, 33377, Note_on_c, 4, 55, 83
6, 33601, Note_on_c, 4, 56, 124
6, 33615, Note_off_c, 4, 55, 0
6, 33732, Note_off_c, 4, 56, 0
6, 33850, Note_on_c, 4, 56, 111
6, 33980, Note_off_c, 4, 56, 0
6, 34343, Note_on_c, 4, 56, 103
6, 34555, Note_on_c, 4, 55, 82
6, 34567, Note_off_c, 4, 56, 0
6, 34686, Note_off_c, 4, 55, 0
6, 34803, Note_on_c, 4, 55, 81
6, 34933, Note_off_c, 4, 55, 0
6, 35273, Note_on_c, 4, 55, 82
6, 35487, Note_off_c, 4, 55, 0
6, 35498, Note_on_c, 4, 56, 82
6, 35618, Note_off_c, 4, 56, 0
6, 35747, Note_on_c, 4, 56, 55
6, 35842, Note_off_c, 4, 56, 0
6, 36206, Note_on_c, 4, 56, 90
6, 36371, Note_off_c, 4, 56, 0
6, 36430, Note_on_c, 4, 55, 81
6, 36548, Note_off_c, 4, 55, 0
6, 36677, Note_on_c, 4, 55, 72
6, 36773, Note_off_c, 4, 55, 0
6, 37160, Note_on_c, 4, 55, 81
6, 37350, Note_off_c, 4, 55, 0
6, 37385, Note_on_c, 4, 56, 81
6, 37503, Note_off_c, 4, 56, 0
6, 37645, Note_on_c, 4, 56, 82
6, 37740, Note_off_c, 4, 56, 0
6, 38115, Note_on_c, 4, 56, 82
6, 38327, Note_off_c, 4, 56, 0
6, 38340, Note_on_c, 4, 55, 73
6, 38400, Control_c, 4, 32, 0
6, 38400, Control_c, 4, 0, 0
6, 38400, Program_c, 4, 70
6, 38412, Note_on_c, 4, 55, 111
6, 38447, Note_off_c, 4, 55, 0
6, 38490, Note_off_c, 4, 55, 0
6, 38642, Note_on_c, 4, 55, 111
6, 38733, Note_off_c, 4, 55, 0
6, 39090, Note_on_c, 4, 55, 111
6, 39231, Note_off_c, 4, 55, 0
6, 39307, Note_on_c, 4, 55, 124
6, 39411, Note_off_c, 4, 55, 0
6, 39551, Note_on_c, 4, 55, 111
6, 39641, Note_off_c, 4, 55, 0
6, 40035, Note_on_c, 4, 55, 124
6, 40215, Note_off_c, 4, 55, 0
6, 40253, Note_on_c, 4, 58, 124
6, 40368, Note_off_c, 4, 58, 0
6, 40496, Note_on_c, 4, 58, 125
6, 40600, Note_off_c, 4, 58, 0
6, 40993, Note_on_c, 4, 58, 111
6, 41161, Note_off_c, 4, 58, 0
6, 41225, Note_on_c, 4, 58, 124
6, 41340, Note_off_c, 4, 58, 0
6, 41468, Note_on_c, 4, 58, 124
6, 41557, Note_off_c, 4, 58, 0
6, 41965, Note_on_c, 4, 58, 124
6, 42157, Note_off_c, 4, 58, 0
6, 42196, Note_on_c, 4, 60, 90
6, 42312, Note_off_c, 4, 60, 0
6, 42427, Note_on_c, 4, 60, 90
6, 42530, Note_off_c, 4, 60, 0
6, 42912, Note_on_c, 4, 60, 111
6, 43117, Note_off_c, 4, 60, 0
6, 43142, Note_on_c, 4, 57, 111
6, 43246, Note_off_c, 4, 57, 0
6, 43386, Note_on_c, 4, 57, 111
6, 43476, Note_off_c, 4, 57, 0
6, 43897, Note_on_c, 4, 57, 111
6, 44101, Note_off_c, 4, 57, 0
6, 44115, Note_on_c, 4, 58, 124
6, 44231, Note_off_c, 4, 58, 0
6, 44357, Note_on_c, 4, 58, 124
6, 44461, Note_off_c, 4, 58, 0
6, 44843, Note_on_c, 4, 58, 124
6, 45010, Note_off_c, 4, 58, 0
6, 45073, Note_on_c, 4, 58, 111
6, 45165, Note_off_c, 4, 58, 0
6, 45317, Note_on_c, 4, 58, 111
6, 45407, Note_off_c, 4, 58, 0
6, 49896, Note_on_c, 4, 58, 103
6, 50877, Note_on_c, 4, 56, 124
6, 50878, Note_off_c, 4, 58, 0
6, 51833, Note_off_c, 4, 56, 0
6, 51833, Note_on_c, 4, 55, 124
6, 52776, Note_off_c, 4, 55, 0
6, 52790, Note_on_c, 4, 58, 125
6, 53452, Note_off_c, 4, 58, 0
6, 53491, Note_on_c, 4, 62, 103
6, 53696, Note_off_c, 4, 62, 0
6, 53733, Note_on_c, 4, 63, 124
6, 55603, Note_off_c, 4, 63, 0
6, 55643, Note_on_c, 4, 64, 103
6, 57577, Note_off_c, 4, 64, 0
6, 57602, Note_on_c, 4, 65, 103
6, 58981, Control_c, 4, 1, 6
6, 59007, Control_c, 4, 1, 8
6, 59033, Control_c, 4, 1, 10
6, 59072, Control_c, 4, 1, 12
6, 59112, Control_c, 4, 1, 14
6, 59163, Control_c, 4, 1, 17
6, 59242, Control_c, 4, 1, 21
6, 59281, Control_c, 4, 1, 25
6, 59320, Control_c, 4, 1, 29
6, 59333, Control_c, 4, 1, 33
6, 59361, Control_c, 4, 1, 37
6, 59386, Control_c, 4, 1, 41
6, 59413, Control_c, 4, 1, 45
6, 59452, Control_c, 4, 1, 49
6, 59478, Control_c, 4, 1, 53
6, 59518, Control_c, 4, 1, 57
6, 59558, Control_c, 4, 1, 61
6, 59792, Control_c, 4, 1, 49
6, 59818, Control_c, 4, 1, 45
6, 59845, Control_c, 4, 1, 41
6, 59897, Control_c, 4, 1, 37
6, 59961, Control_c, 4, 1, 33
6, 60001, Control_c, 4, 1, 29
6, 60028, Control_c, 4, 1, 25
6, 60053, Control_c, 4, 1, 21
6, 60157, Control_c, 4, 1, 17
6, 60183, Note_off_c, 4, 65, 0
6, 60208, Note_on_c, 4, 62, 124
6, 60225, Control_c, 4, 1, 14
6, 60353, Control_c, 4, 1, 12
6, 60443, Note_off_c, 4, 62, 0
6, 60908, Note_on_c, 4, 65, 90
6, 61246, Control_c, 4, 1, 10
6, 61323, Control_c, 4, 1, 17
6, 61336, Note_off_c, 4, 65, 0
6, 61338, Control_c, 4, 1, 21
6, 61378, Control_c, 4, 1, 25
6, 61405, Control_c, 4, 1, 29
6, 61416, Note_on_c, 4, 65, 111
6, 61548, Control_c, 4, 1, 17
6, 61575, Control_c, 4, 1, 14
6, 61588, Control_c, 4, 1, 12
6, 61601, Control_c, 4, 1, 10
6, 61615, Control_c, 4, 1, 8
6, 61628, Control_c, 4, 1, 4
6, 61642, Control_c, 4, 1, 2
6, 61655, Control_c, 4, 1, 0
6, 62137, Note_off_c, 4, 65, 0
6, 62150, Note_on_c, 4, 62, 124
6, 62367, Note_on_c, 4, 63, 124
6, 62381, Note_off_c, 4, 62, 0
6, 62585, Note_on_c, 4, 62, 103
6, 62611, Note_off_c, 4, 63, 0
6, 62802, Note_off_c, 4, 62, 0
6, 62802, Note_on_c, 4, 60, 82
6, 63031, Note_on_c, 4, 58, 111
6, 63058, Note_off_c, 4, 60, 0
6, 63161, Note_off_c, 4, 58, 0
6, 63288, Note_on_c, 4, 58, 124
6, 64202, Note_off_c, 4, 58, 0
6, 64280, Note_on_c, 4, 58, 124
6, 64522, Note_on_c, 4, 57, 83
6, 64548, Note_off_c, 4, 58, 0
6, 64752, Note_on_c, 4, 55, 83
6, 64766, Note_off_c, 4, 57, 0
6, 64995, Note_on_c, 4, 57, 90
6, 65035, Note_off_c, 4, 55, 0
6, 65240, Note_on_c, 4, 58, 111
6, 65253, Note_off_c, 4, 57, 0
6, 65407, Note_off_c, 4, 58, 0
6, 65508, Note_on_c, 4, 58, 124
6, 65650, Note_off_c, 4, 58, 0
6, 65978, Note_on_c, 4, 58, 124
6, 66197, Note_off_c, 4, 58, 0
6, 66235, Note_on_c, 4, 58, 124
6, 66363, Note_off_c, 4, 58, 0
6, 66465, Note_on_c, 4, 58, 103
6, 66606, Note_off_c, 4, 58, 0
6, 66950, Note_on_c, 4, 58, 124
6, 67155, Note_off_c, 4, 58, 0
6, 67192, Note_on_c, 4, 58, 111
6, 67308, Note_off_c, 4, 58, 0
6, 67435, Note_on_c, 4, 58, 103
6, 67538, Note_off_c, 4, 58, 0
6, 67886, Note_on_c, 4, 58, 124
6, 68065, Note_off_c, 4, 58, 0
6, 68128, Note_on_c, 4, 58, 103
6, 68232, Note_off_c, 4, 58, 0
6, 68372, Note_on_c, 4, 58, 111
6, 68462, Note_off_c, 4, 58, 0
6, 68856, Note_on_c, 4, 56, 125
6, 69086, Note_off_c, 4, 56, 0
6, 69086, Note_on_c, 4, 55, 90
6, 69227, Note_off_c, 4, 55, 0
6, 69330, Note_on_c, 4, 55, 111
6, 69432, Note_off_c, 4, 55, 0
6, 69812, Note_on_c, 4, 60, 111
6, 70005, Note_off_c, 4, 60, 0
6, 70043, Note_on_c, 4, 60, 83
6, 70132, Note_off_c, 4, 60, 0
6, 70286, Note_on_c, 4, 60, 90
6, 70388, Note_off_c, 4, 60, 0
6, 70770, Note_on_c, 4, 58, 124
6, 70987, Note_off_c, 4, 58, 0
6, 71000, Note_on_c, 4, 56, 111
6, 71116, Note_off_c, 4, 56, 0
6, 71256, Note_on_c, 4, 56, 103
6, 71346, Note_off_c, 4, 56, 0
6, 71740, Note_on_c, 4, 56, 111
6, 71906, Note_off_c, 4, 56, 0
6, 71970, Note_on_c, 4, 56, 111
6, 72060, Note_off_c, 4, 56, 0
6, 72212, Note_on_c, 4, 56, 111
6, 72316, Note_off_c, 4, 56, 0
6, 72696, Note_on_c, 4, 56, 124
6, 72901, Note_off_c, 4, 56, 0
6, 72940, Note_on_c, 4, 53, 111
6, 73055, Note_off_c, 4, 53, 0
6, 73195, Note_on_c, 4, 53, 103
6, 73310, Note_off_c, 4, 53, 0
6, 73666, Note_on_c, 4, 53, 103
6, 73846, Note_off_c, 4, 53, 0
6, 73908, Note_on_c, 4, 53, 103
6, 74012, Note_off_c, 4, 53, 0
6, 74151, Note_on_c, 4, 53, 103
6, 74242, Note_off_c, 4, 53, 0
6, 74636, Note_on_c, 4, 53, 111
6, 74802, Note_off_c, 4, 53, 0
6, 74866, Note_on_c, 4, 53, 103
6, 74956, Note_off_c, 4, 53, 0
6, 75096, Note_on_c, 4, 53, 111
6, 75186, Note_off_c, 4, 53, 0
6, 75580, Note_on_c, 4, 53, 111
6, 75746, Note_off_c, 4, 53, 0
6, 75810, Note_on_c, 4, 53, 103
6, 75875, Note_off_c, 4, 53, 0
6, 76052, Note_on_c, 4, 53, 90
6, 76131, Note_off_c, 4, 53, 0
6, 76537, Note_on_c, 4, 50, 111
6, 76767, Note_off_c, 4, 50, 0
6, 76780, Note_on_c, 4, 48, 82
6, 76935, Note_off_c, 4, 48, 0
6, 77011, Note_on_c, 4, 48, 82
6, 77140, Note_off_c, 4, 48, 0
6, 77507, Note_on_c, 4, 55, 111
6, 77700, Note_off_c, 4, 55, 0
6, 77726, Note_on_c, 4, 56, 111
6, 77827, Note_off_c, 4, 56, 0
6, 77981, Note_on_c, 4, 56, 124
6, 78083, Note_off_c, 4, 56, 0
6, 78452, Note_on_c, 4, 60, 90
6, 78555, Note_off_c, 4, 60, 0
6, 78682, Note_on_c, 4, 60, 103
6, 82088, Control_c, 4, 1, 6
6, 82116, Control_c, 4, 1, 8
6, 82153, Control_c, 4, 1, 10
6, 82257, Control_c, 4, 1, 12
6, 82361, Control_c, 4, 1, 14
6, 88257, Note_off_c, 4, 60, 0
6, 88335, Note_on_c, 4, 62, 124
6, 90241, Note_on_c, 4, 60, 103
6, 90270, Note_off_c, 4, 62, 0
6, 90708, Note_on_c, 4, 57, 90
6, 90721, Note_off_c, 4, 60, 0
6, 91186, Note_off_c, 4, 57, 0
6, 91200, Note_on_c, 4, 62, 111
6, 91613, Note_off_c, 4, 62, 0
6, 91652, Note_on_c, 4, 50, 90
6, 92145, Note_off_c, 4, 50, 0
6, 92157, Note_on_c, 4, 58, 124
6, 92287, Note_off_c, 4, 58, 0
6, 92417, Note_on_c, 4, 58, 124
6, 92535, Note_off_c, 4, 58, 0
6, 92856, Note_on_c, 4, 58, 124
6, 93038, Note_off_c, 4, 58, 0
6, 93103, Note_on_c, 4, 58, 111
6, 93207, Note_off_c, 4, 58, 0
6, 93337, Note_on_c, 4, 58, 103
6, 93467, Note_off_c, 4, 58, 0
6, 93802, Note_on_c, 4, 58, 111
6, 94023, Note_off_c, 4, 58, 0
6, 94037, Note_on_c, 4, 55, 103
6, 94153, Note_off_c, 4, 55, 0
6, 94296, Note_on_c, 4, 55, 90
6, 94413, Note_off_c, 4, 55, 0
6, 94750, Note_on_c, 4, 55, 103
6, 94918, Note_off_c, 4, 55, 0
6, 94996, Note_on_c, 4, 55, 90
6, 95087, Note_off_c, 4, 55, 0
6, 95242, Note_on_c, 4, 55, 90
6, 95361, Note_off_c, 4, 55, 0
6, 95722, Note_on_c, 4, 55, 103
6, 95943, Note_off_c, 4, 55, 0
6, 95956, Note_on_c, 4, 53, 83
6, 96100, Note_off_c, 4, 53, 0
6, 96216, Note_on_c, 4, 53, 90
6, 96360, Note_off_c, 4, 53, 0
6, 96695, Note_on_c, 4, 56, 124
6, 96863, Note_off_c, 4, 56, 0
6, 96916, Note_on_c, 4, 56, 124
6, 97046, Note_off_c, 4, 56, 0
6, 97162, Note_on_c, 4, 56, 124
6, 97278, Note_off_c, 4, 56, 0
6, 97641, Note_on_c, 4, 56, 111
6, 97810, Note_off_c, 4, 56, 0
6, 97875, Note_on_c, 4, 56, 111
6, 97965, Note_off_c, 4, 56, 0
6, 98121, Note_on_c, 4, 56, 111
6, 98226, Note_off_c, 4, 56, 0
6, 98600, Note_on_c, 4, 56, 111
6, 98808, Note_off_c, 4, 56, 0
6, 98835, Note_on_c, 4, 53, 103
6, 98940, Note_off_c, 4, 53, 0
6, 99095, Note_on_c, 4, 53, 81
6, 99227, Note_off_c, 4, 53, 0
6, 99577, Note_on_c, 4, 46, 124
6, 99668, Note_off_c, 4, 46, 0
6, 99811, Note_on_c, 4, 39, 124
6, 99840, Control_c, 4, 32, 0
6, 99840, Control_c, 4, 0, 0
6, 99840, Program_c, 4, 70
6, 99856, Note_on_c, 4, 39, 124
6, 99961, Note_off_c, 4, 39, 0
6, 100102, Note_on_c, 4, 39, 124
6, 100220, Note_off_c, 4, 39, 0
6, 100237, Note_off_c, 4, 39, 0
6, 100556, Note_on_c, 4, 39, 124
6, 100712, Note_off_c, 4, 39, 0
6, 100777, Note_on_c, 4, 39, 111
6, 100895, Note_off_c, 4, 39, 0
6, 101036, Note_on_c, 4, 39, 111
6, 101140, Note_off_c, 4, 39, 0
6, 101517, Note_on_c, 4, 39, 111
6, 101737, Note_off_c, 4, 39, 0
6, 101751, Note_on_c, 4, 46, 83
6, 101895, Note_off_c, 4, 46, 0
6, 101997, Note_on_c, 4, 46, 111
6, 102127, Note_off_c, 4, 46, 0
6, 102513, Note_on_c, 4, 46, 124
6, 102683, Note_off_c, 4, 46, 0
6, 102735, Note_on_c, 4, 46, 124
6, 102838, Note_off_c, 4, 46, 0
6, 102995, Note_on_c, 4, 46, 103
6, 103098, Note_off_c, 4, 46, 0
6, 103447, Note_on_c, 4, 46, 124
6, 103642, Note_off_c, 4, 46, 0
6, 103667, Note_on_c, 4, 51, 124
6, 103772, Note_off_c, 4, 51, 0
6, 103940, Note_on_c, 4, 51, 124
6, 104057, Note_off_c, 4, 51, 0
6, 104393, Note_on_c, 4, 51, 124
6, 104562, Note_off_c, 4, 51, 0
6, 104640, Note_on_c, 4, 51, 111
6, 104731, Note_off_c, 4, 51, 0
6, 104872, Note_on_c, 4, 51, 124
6, 104965, Note_off_c, 4, 51, 0
6, 105338, Note_on_c, 4, 55, 111
6, 105521, Note_off_c, 4, 55, 0
6, 105560, Note_on_c, 4, 58, 124
6, 105665, Note_off_c, 4, 58, 0
6, 105806, Note_on_c, 4, 58, 124
6, 105923, Note_off_c, 4, 58, 0
6, 106297, Note_on_c, 4, 58, 124
6, 106440, Note_off_c, 4, 58, 0
6, 106531, Note_on_c, 4, 58, 111
6, 106635, Note_off_c, 4, 58, 0
6, 106777, Note_on_c, 4, 58, 125
6, 106868, Note_off_c, 4, 58, 0
6, 107295, Note_on_c, 4, 58, 111
6, 107477, Note_off_c, 4, 58, 0
6, 107516, Note_on_c, 4, 60, 103
6, 107646, Note_off_c, 4, 60, 0
6, 107763, Note_on_c, 4, 60, 103
6, 107893, Note_off_c, 4, 60, 0
6, 108227, Note_on_c, 4, 55, 103
6, 108423, Note_off_c, 4, 55, 0
6, 108475, Note_on_c, 4, 55, 83
6, 108592, Note_off_c, 4, 55, 0
6, 108735, Note_on_c, 4, 55, 81
6, 108852, Note_off_c, 4, 55, 0
6, 109187, Note_on_c, 4, 55, 90
6, 109357, Note_off_c, 4, 55, 0
6, 109422, Note_on_c, 4, 55, 90
6, 109540, Note_off_c, 4, 55, 0
6, 109682, Note_on_c, 4, 55, 80
6, 109773, Note_off_c, 4, 55, 0
6, 110146, Note_on_c, 4, 58, 124
6, 110303, Note_off_c, 4, 58, 0
6, 110381, Note_on_c, 4, 58, 124
6, 110486, Note_off_c, 4, 58, 0
6, 110627, Note_on_c, 4, 58, 124
6, 110732, Note_off_c, 4, 58, 0
6, 111093, Note_on_c, 4, 58, 124
6, 111263, Note_off_c, 4, 58, 0
6, 111328, Note_on_c, 4, 60, 111
6, 111458, Note_off_c, 4, 60, 0
6, 111587, Note_on_c, 4, 60, 90
6, 111705, Note_off_c, 4, 60, 0
6, 112078, Note_on_c, 4, 60, 111
6, 112287, Note_off_c, 4, 60, 0
6, 112301, Note_on_c, 4, 56, 124
6, 112417, Note_off_c, 4, 56, 0
6, 112546, Note_on_c, 4, 56, 124
6, 112676, Note_off_c, 4, 56, 0
6, 113025, Note_on_c, 4, 57, 111
6, 113220, Note_off_c, 4, 57, 0
6, 113246, Note_on_c, 4, 58, 124
6, 113376, Note_off_c, 4, 58, 0
6, 113505, Note_on_c, 4, 58, 124
6, 113622, Note_off_c, 4, 58, 0
6, 113996, Note_on_c, 4, 58, 124
6, 114152, Note_off_c, 4, 58, 0
6, 114230, Note_on_c, 4, 58, 124
6, 114335, Note_off_c, 4, 58, 0
6, 114462, Note_on_c, 4, 58, 124
6, 114581, Note_off_c, 4, 58, 0
6, 114942, Note_on_c, 4, 59, 111
6, 115072, Note_off_c, 4, 59, 0
6, 115201, Note_on_c, 4, 59, 103
6, 116103, Note_off_c, 4, 59, 0
6, 116130, Note_on_c, 4, 60, 90
6, 117395, Control_c, 4, 1, 17
6, 117587, Note_on_c, 4, 55, 111
6, 117588, Note_off_c, 4, 60, 0
6, 118041, Note_off_c, 4, 55, 0
6, 118067, Note_on_c, 4, 56, 111
6, 118532, Note_on_c, 4, 51, 124
6, 118558, Note_off_c, 4, 56, 0
6, 118972, Note_off_c, 4, 51, 0
6, 119023, Note_on_c, 4, 58, 125
6, 121072, Note_off_c, 4, 58, 0
6, 121198, Note_on_c, 4, 58, 124
6, 121307, Note_off_c, 4, 58, 0
6, 121680, Note_on_c, 4, 55, 111
6, 121850, Note_off_c, 4, 55, 0
6, 121915, Note_on_c, 4, 60, 83
6, 122147, Note_on_c, 4, 56, 111
6, 122175, Note_off_c, 4, 60, 0
6, 122305, Note_off_c, 4, 56, 0
6, 122640, Note_on_c, 4, 53, 103
6, 122653, Note_on_c, 4, 56, 73
6, 122668, Note_off_c, 4, 56, 0
6, 122785, Note_off_c, 4, 53, 0
6, 122862, Note_on_c, 4, 58, 111
6, 123096, Note_on_c, 4, 55, 90
6, 123110, Note_off_c, 4, 58, 0
6, 123278, Note_off_c, 4, 55, 0
6, 123601, Note_on_c, 4, 51, 124
6, 123783, Note_off_c, 4, 51, 0
6, 123822, Note_on_c, 4, 56, 111
6, 123952, Note_off_c, 4, 56, 0
6, 124056, Note_on_c, 4, 56, 111
6, 124186, Note_off_c, 4, 56, 0
6, 124576, Note_on_c, 4, 53, 103
6, 124756, Note_off_c, 4, 53, 0
6, 124782, Note_on_c, 4, 51, 124
6, 124886, Note_off_c, 4, 51, 0
6, 125041, Note_on_c, 4, 51, 124
6, 125158, Note_off_c, 4, 51, 0
6, 125572, Note_on_c, 4, 55, 124
6, 125766, Note_off_c, 4, 55, 0
6, 125792, Note_on_c, 4, 56, 124
6, 125922, Note_off_c, 4, 56, 0
6, 126038, Note_on_c, 4, 56, 124
6, 126143, Note_off_c, 4, 56, 0
6, 126478, Note_on_c, 4, 56, 124
6, 126700, Note_off_c, 4, 56, 0
6, 126725, Note_on_c, 4, 55, 90
6, 126817, Note_off_c, 4, 55, 0
6, 126972, Note_on_c, 4, 55, 83
6, 127065, Note_off_c, 4, 55, 0
6, 127438, Note_on_c, 4, 55, 111
6, 127658, Note_on_c, 4, 56, 103
6, 127673, Note_off_c, 4, 55, 0
6, 127777, Note_off_c, 4, 56, 0
6, 127907, Note_on_c, 4, 56, 111
6, 128011, Note_off_c, 4, 56, 0
6, 128385, Note_on_c, 4, 56, 111
6, 128606, Note_off_c, 4, 56, 0
6, 128618, Note_on_c, 4, 55, 82
6, 128723, Note_off_c, 4, 55, 0
6, 128866, Note_on_c, 4, 55, 82
6, 128971, Note_off_c, 4, 55, 0
6, 129357, Note_on_c, 4, 55, 103
6, 129578, Note_off_c, 4, 55, 0
6, 129578, Note_on_c, 4, 56, 90
6, 129708, Note_off_c, 4, 56, 0
6, 129838, Note_on_c, 4, 56, 103
6, 129930, Note_off_c, 4, 56, 0
6, 130303, Note_on_c, 4, 56, 103
6, 130500, Note_off_c, 4, 56, 0
6, 130538, Note_on_c, 4, 55, 83
6, 130643, Note_off_c, 4, 55, 0
6, 130798, Note_on_c, 4, 55, 82
6, 130916, Note_off_c, 4, 55, 0
6, 131266, Note_on_c, 4, 55, 103
6, 131435, Note_off_c, 4, 55, 0
6, 131500, Note_on_c, 4, 55, 83
6, 131603, Note_off_c, 4, 55, 0
6, 131760, Note_on_c, 4, 55, 82
6, 131877, Note_off_c, 4, 55, 0
6, 132226, Note_on_c, 4, 55, 103
6, 132395, Note_off_c, 4, 55, 0
6, 132447, Note_on_c, 4, 56, 111
6, 132551, Note_off_c, 4, 56, 0
6, 132706, Note_on_c, 4, 56, 103
6, 132811, Note_off_c, 4, 56, 0
6, 133225, Note_on_c, 4, 56, 124
6, 133367, Note_off_c, 4, 56, 0
6, 133432, Note_on_c, 4, 56, 103
6, 133550, Note_off_c, 4, 56, 0
6, 133666, Note_on_c, 4, 56, 103
6, 133770, Note_off_c, 4, 56, 0
6, 134145, Note_on_c, 4, 56, 124
6, 134287, Note_off_c, 4, 56, 0
6, 134377, Note_on_c, 4, 58, 125
6, 134495, Note_off_c, 4, 58, 0
6, 134625, Note_on_c, 4, 58, 111
6, 134741, Note_off_c, 4, 58, 0
6, 135116, Note_on_c, 4, 58, 124
6, 135258, Note_off_c, 4, 58, 0
6, 135350, Note_on_c, 4, 58, 124
6, 135453, Note_off_c, 4, 58, 0
6, 135595, Note_on_c, 4, 58, 111
6, 135713, Note_off_c, 4, 58, 0
6, 136088, Note_on_c, 4, 58, 124
6, 136245, Note_off_c, 4, 58, 0
6, 136322, Note_on_c, 4, 56, 111
6, 136413, Note_off_c, 4, 56, 0
6, 136555, Note_on_c, 4, 56, 111
6, 136647, Note_off_c, 4, 56, 0
6, 137047, Note_on_c, 4, 56, 111
6, 137190, Note_off_c, 4, 56, 0
6, 137293, Note_on_c, 4, 56, 111
6, 137385, Note_off_c, 4, 56, 0
6, 137527, Note_on_c, 4, 56, 111
6, 137632, Note_off_c, 4, 56, 0
6, 142126, Note_on_c, 4, 63, 124
6, 143030, Note_off_c, 4, 63, 0
6, 143055, Note_on_c, 4, 61, 124
6, 143996, Note_on_c, 4, 60, 111
6, 143997, Note_off_c, 4, 61, 0
6, 144951, Note_on_c, 4, 58, 125
6, 144978, Note_off_c, 4, 60, 0
6, 145882, Note_off_c, 4, 58, 0
6, 145921, Note_on_c, 4, 56, 125
6, 147815, Note_off_c, 4, 56, 0
6, 147828, Note_on_c, 4, 57, 111
6, 149787, Note_on_c, 4, 58, 125
6, 149801, Note_off_c, 4, 57, 0
6, 152507, Note_off_c, 4, 58, 0
6, 152662, Note_on_c, 4, 58, 124
6, 152870, Note_on_c, 4, 56, 124
6, 152871, Note_off_c, 4, 58, 0
6, 153103, Note_on_c, 4, 55, 81
6, 153105, Note_off_c, 4, 56, 0
6, 153337, Note_on_c, 4, 56, 111
6, 153378, Note_off_c, 4, 55, 0
6, 153611, Note_on_c, 4, 55, 90
6, 153612, Note_off_c, 4, 56, 0
6, 154501, Note_off_c, 4, 55, 0
6, 155507, Note_on_c, 4, 58, 124
6, 156422, Note_on_c, 4, 56, 124
6, 156437, Note_off_c, 4, 58, 0
6, 157405, Note_on_c, 4, 55, 83
6, 157418, Note_off_c, 4, 56, 0
6, 158411, Note_off_c, 4, 55, 0
6, 163176, Note_on_c, 4, 39, 103
6, 163293, Note_off_c, 4, 39, 0
6, 163436, Note_on_c, 4, 39, 111
6, 163552, Note_off_c, 4, 39, 0
6, 163927, Note_on_c, 4, 39, 103
6, 164096, Note_off_c, 4, 39, 0
6, 164175, Note_on_c, 4, 39, 103
6, 164292, Note_off_c, 4, 39, 0
6, 164408, Note_on_c, 4, 39, 90
6, 164538, Note_off_c, 4, 39, 0
6, 164875, Note_on_c, 4, 39, 103
6, 164991, Note_off_c, 4, 39, 0
6, 165133, Note_on_c, 4, 39, 111
6, 165263, Note_off_c, 4, 39, 0
6, 165380, Note_on_c, 4, 39, 90
6, 165498, Note_off_c, 4, 39, 0
6, 165833, Note_on_c, 4, 39, 103
6, 165977, Note_off_c, 4, 39, 0
6, 166080, Note_on_c, 4, 39, 111
6, 166197, Note_off_c, 4, 39, 0
6, 166313, Note_on_c, 4, 39, 103
6, 166445, Note_off_c, 4, 39, 0
6, 166806, Note_on_c, 4, 39, 111
6, 166937, Note_off_c, 4, 39, 0
6, 167066, Note_on_c, 4, 39, 111
6, 167170, Note_off_c, 4, 39, 0
6, 167312, Note_on_c, 4, 39, 111
6, 167417, Note_off_c, 4, 39, 0
6, 167766, Note_on_c, 4, 39, 111
6, 167896, Note_off_c, 4, 39, 0
6, 168012, Note_on_c, 4, 39, 111
6, 168117, Note_off_c, 4, 39, 0
6, 168246, Note_on_c, 4, 39, 111
6, 168351, Note_off_c, 4, 39, 0
6, 168712, Note_on_c, 4, 39, 103
6, 168817, Note_off_c, 4, 39, 0
6, 168972, Note_on_c, 4, 39, 103
6, 169438, Note_off_c, 4, 39, 0
6, 169888, Note_on_c, 4, 62, 90
6, 170573, Note_off_c, 4, 62, 0
6, 170600, Note_on_c, 4, 63, 111
6, 170730, Note_off_c, 4, 63, 0
6, 170846, Note_on_c, 4, 63, 124
6, 171311, Note_off_c, 4, 63, 0
6, 171802, Note_on_c, 4, 65, 103
6, 172550, Note_on_c, 4, 63, 124
6, 172565, Note_off_c, 4, 65, 0
6, 172668, Note_off_c, 4, 63, 0
6, 172811, Note_on_c, 4, 63, 111
6, 173288, Note_off_c, 4, 63, 0
6, 173741, Note_on_c, 4, 56, 111
6, 174463, Note_off_c, 4, 56, 0
6, 174477, Note_on_c, 4, 55, 90
6, 174620, Note_off_c, 4, 55, 0
6, 174737, Note_on_c, 4, 55, 83
6, 175317, Note_off_c, 4, 55, 0
6, 175317, End_track
7, 0, Start_track
7, 0, Title_t, "Horn"
7, 0, MIDI_port, 0
7, 0, Channel_prefix, 5
7, 0, Control_c, 5, 7, 74
7, 0, Control_c, 5, 10, 66
7, 0, Control_c, 5, 0, 0
7, 0, Control_c, 5, 32, 0
7, 0, Control_c, 5, 93, 0
7, 0, Program_c, 5, 60
7, 0, Note_on_c, 5, 51, 82
7, 12, Note_on_c, 5, 63, 83
7, 902, Note_on_c, 5, 67, 83
7, 916, Note_on_c, 5, 55, 83
7, 917, Note_off_c, 5, 51, 0
7, 930, Note_off_c, 5, 63, 0
7, 1881, Note_on_c, 5, 70, 83
7, 1882, Note_off_c, 5, 55, 0
7, 1895, Note_on_c, 5, 58, 72
7, 1932, Note_off_c, 5, 67, 0
7, 2708, Note_off_c, 5, 58, 0
7, 2838, Note_off_c, 5, 70, 0
7, 2851, Note_on_c, 5, 58, 80
7, 2852, Note_on_c, 5, 46, 81
7, 3661, Note_off_c, 5, 46, 0
7, 3698, Note_off_c, 5, 58, 0
7, 3805, Note_on_c, 5, 51, 82
7, 3805, Note_on_c, 5, 63, 80
7, 5738, Note_on_c, 5, 58, 73
7, 5738, Note_on_c, 5, 65, 82
7, 5776, Note_off_c, 5, 63, 0
7, 5788, Note_off_c, 5, 51, 0
7, 7630, Note_on_c, 5, 63, 73
7, 7630, Note_on_c, 5, 67, 73
7, 7631, Note_off_c, 5, 58, 0
7, 7678, Note_off_c, 5, 65, 0
7, 9576, Note_on_c, 5, 65, 81
7, 9612, Note_off_c, 5, 67, 0
7, 10538, Note_on_c, 5, 58, 73
7, 10575, Note_off_c, 5, 63, 0
7, 11477, Note_on_c, 5, 51, 72
7, 11477, Note_on_c, 5, 63, 73
7, 11503, Note_off_c, 5, 58, 0
7, 11528, Note_off_c, 5, 65, 0
7, 12747, Note_off_c, 5, 63, 0
7, 12760, Note_off_c, 5, 51, 0
7, 28800, Control_c, 5, 32, 0
7, 28800, Control_c, 5, 0, 0
7, 28800, Program_c, 5, 60
7, 32640, Note_on_c, 5, 58, 103
7, 32641, Note_on_c, 5, 46, 82
7, 38423, Note_off_c, 5, 46, 0
7, 38425, Note_on_c, 5, 51, 80
7, 38437, Note_off_c, 5, 58, 0
7, 39415, Note_off_c, 5, 51, 0
7, 40320, Control_c, 5, 32, 0
7, 40320, Control_c, 5, 0, 0
7, 40320, Program_c, 5, 60
7, 44147, Note_on_c, 5, 58, 90
7, 44148, Note_on_c, 5, 46, 111
7, 45903, Note_off_c, 5, 58, 0
7, 45905, Note_off_c, 5, 46, 0
7, 46047, Note_on_c, 5, 46, 103
7, 46047, Note_on_c, 5, 58, 111
7, 49835, Note_off_c, 5, 58, 0
7, 49836, Note_off_c, 5, 46, 0
7, 49901, Note_on_c, 5, 58, 111
7, 49902, Note_on_c, 5, 46, 90
7, 53550, Note_off_c, 5, 46, 0
7, 53550, Note_off_c, 5, 58, 0
7, 53731, Note_on_c, 5, 58, 111
7, 53745, Note_on_c, 5, 46, 103
7, 57596, Note_off_c, 5, 46, 0
7, 57611, Note_off_c, 5, 58, 0
7, 63301, Note_on_c, 5, 65, 103
7, 64281, Note_on_c, 5, 63, 124
7, 65250, Note_on_c, 5, 58, 124
7, 65251, Note_off_c, 5, 63, 0
7, 66218, Note_off_c, 5, 58, 0
7, 66232, Note_off_c, 5, 65, 0
7, 99840, Control_c, 5, 32, 0
7, 99840, Control_c, 5, 0, 0
7, 99840, Program_c, 5, 60
7, 99843, Note_on_c, 5, 51, 111
7, 99975, Note_off_c, 5, 51, 0
7, 100103, Note_on_c, 5, 51, 124
7, 100246, Note_off_c, 5, 51, 0
7, 100557, Note_on_c, 5, 51, 124
7, 100713, Note_off_c, 5, 51, 0
7, 100803, Note_on_c, 5, 51, 124
7, 100920, Note_off_c, 5, 51, 0
7, 101050, Note_on_c, 5, 51, 124
7, 101192, Note_off_c, 5, 51, 0
7, 101541, Note_on_c, 5, 51, 124
7, 101697, Note_off_c, 5, 51, 0
7, 101761, Note_on_c, 5, 58, 124
7, 101905, Note_off_c, 5, 58, 0
7, 102021, Note_on_c, 5, 58, 124
7, 102151, Note_off_c, 5, 58, 0
7, 102500, Note_on_c, 5, 58, 124
7, 102643, Note_off_c, 5, 58, 0
7, 102733, Note_on_c, 5, 58, 124
7, 102851, Note_off_c, 5, 58, 0
7, 102967, Note_on_c, 5, 58, 124
7, 103085, Note_off_c, 5, 58, 0
7, 103432, Note_on_c, 5, 58, 111
7, 103520, Note_off_c, 5, 58, 0
7, 103680, Note_on_c, 5, 55, 83
7, 103680, Note_on_c, 5, 63, 111
7, 104635, Note_off_c, 5, 63, 0
7, 104635, Note_off_c, 5, 55, 0
7, 124801, Note_on_c, 5, 46, 111
7, 124801, Note_on_c, 5, 58, 111
7, 126567, Note_off_c, 5, 58, 0
7, 126582, Note_off_c, 5, 46, 0
7, 126737, Note_on_c, 5, 46, 103
7, 126751, Note_on_c, 5, 58, 103
7, 130228, Note_off_c, 5, 46, 0
7, 130256, Note_off_c, 5, 58, 0
7, 130552, Note_on_c, 5, 63, 90
7, 130553, Note_on_c, 5, 51, 111
7, 132295, Note_off_c, 5, 63, 0
7, 132323, Note_off_c, 5, 51, 0
7, 132465, Note_on_c, 5, 63, 103
7, 132466, Note_on_c, 5, 51, 111
7, 136192, Note_off_c, 5, 51, 0
7, 136192, Note_off_c, 5, 63, 0
7, 136308, Note_on_c, 5, 63, 111
7, 136310, Note_on_c, 5, 51, 103
7, 138063, Note_off_c, 5, 63, 0
7, 138065, Note_off_c, 5, 51, 0
7, 138233, Note_on_c, 5, 51, 111
7, 138233, Note_on_c, 5, 63, 111
7, 141793, Note_off_c, 5, 63, 0
7, 141795, Note_off_c, 5, 51, 0
7, 142091, Note_on_c, 5, 63, 103
7, 142092, Note_on_c, 5, 51, 103
7, 145867, Note_off_c, 5, 63, 0
7, 145868, Note_off_c, 5, 51, 0
7, 145920, Note_on_c, 5, 51, 111
7, 145920, Note_on_c, 5, 63, 124
7, 147662, Note_off_c, 5, 63, 0
7, 147662, Note_off_c, 5, 51, 0
7, 147843, Note_on_c, 5, 63, 124
7, 147845, Note_on_c, 5, 51, 111
7, 149391, Note_off_c, 5, 63, 0
7, 149445, Note_off_c, 5, 51, 0
7, 149753, Note_on_c, 5, 58, 103
7, 149755, Note_on_c, 5, 46, 111
7, 153606, Note_on_c, 5, 51, 111
7, 153635, Note_off_c, 5, 46, 0
7, 153635, Note_off_c, 5, 58, 0
7, 154436, Note_off_c, 5, 51, 0
7, 155480, Note_on_c, 5, 58, 83
7, 155481, Note_on_c, 5, 46, 82
7, 157182, Note_off_c, 5, 46, 0
7, 157333, Note_off_c, 5, 58, 0
7, 157398, Note_on_c, 5, 63, 83
7, 157412, Note_on_c, 5, 51, 111
7, 157543, Note_off_c, 5, 63, 0
7, 157556, Note_off_c, 5, 51, 0
7, 157660, Note_on_c, 5, 63, 90
7, 157661, Note_on_c, 5, 51, 90
7, 157805, Note_off_c, 5, 51, 0
7, 157805, Note_off_c, 5, 63, 0
7, 158146, Note_on_c, 5, 63, 111
7, 158147, Note_on_c, 5, 51, 111
7, 158317, Note_off_c, 5, 51, 0
7, 158317, Note_off_c, 5, 63, 0
7, 158382, Note_on_c, 5, 51, 103
7, 158382, Note_on_c, 5, 63, 103
7, 158501, Note_off_c, 5, 63, 0
7, 158502, Note_off_c, 5, 51, 0
7, 158643, Note_on_c, 5, 63, 103
7, 158645, Note_on_c, 5, 51, 103
7, 158762, Note_off_c, 5, 51, 0
7, 158778, Note_off_c, 5, 63, 0
7, 159127, Note_on_c, 5, 63, 124
7, 159128, Note_on_c, 5, 51, 111
7, 159258, Note_off_c, 5, 51, 0
7, 159272, Note_off_c, 5, 63, 0
7, 159363, Note_on_c, 5, 51, 103
7, 159363, Note_on_c, 5, 63, 111
7, 159481, Note_off_c, 5, 63, 0
7, 159482, Note_off_c, 5, 51, 0
7, 159611, Note_on_c, 5, 63, 103
7, 159612, Note_on_c, 5, 51, 103
7, 159730, Note_off_c, 5, 63, 0
7, 159731, Note_off_c, 5, 51, 0
7, 160106, Note_on_c, 5, 51, 103
7, 160106, Note_on_c, 5, 63, 111
7, 160276, Note_off_c, 5, 63, 0
7, 160276, Note_off_c, 5, 51, 0
7, 160353, Note_on_c, 5, 63, 111
7, 160355, Note_on_c, 5, 51, 103
7, 160460, Note_off_c, 5, 63, 0
7, 160461, Note_off_c, 5, 51, 0
7, 160590, Note_on_c, 5, 51, 103
7, 160590, Note_on_c, 5, 63, 111
7, 160708, Note_off_c, 5, 51, 0
7, 160722, Note_off_c, 5, 63, 0
7, 161045, Note_on_c, 5, 63, 111
7, 161060, Note_on_c, 5, 51, 103
7, 161190, Note_off_c, 5, 51, 0
7, 161190, Note_off_c, 5, 63, 0
7, 161281, Note_on_c, 5, 51, 111
7, 161281, Note_on_c, 5, 63, 111
7, 161375, Note_off_c, 5, 63, 0
7, 161376, Note_off_c, 5, 51, 0
7, 161530, Note_on_c, 5, 63, 103
7, 161531, Note_on_c, 5, 51, 103
7, 161648, Note_off_c, 5, 63, 0
7, 161650, Note_off_c, 5, 51, 0
7, 162000, Note_on_c, 5, 63, 111
7, 162001, Note_on_c, 5, 51, 111
7, 162131, Note_off_c, 5, 51, 0
7, 162131, Note_off_c, 5, 63, 0
7, 162236, Note_on_c, 5, 51, 111
7, 162236, Note_on_c, 5, 63, 111
7, 162341, Note_off_c, 5, 63, 0
7, 162341, Note_off_c, 5, 51, 0
7, 162471, Note_on_c, 5, 51, 111
7, 162471, Note_on_c, 5, 63, 103
7, 162590, Note_off_c, 5, 63, 0
7, 162590, Note_off_c, 5, 51, 0
7, 162931, Note_on_c, 5, 63, 103
7, 162932, Note_on_c, 5, 51, 111
7, 163051, Note_off_c, 5, 63, 0
7, 163052, Note_off_c, 5, 51, 0
7, 163193, Note_on_c, 5, 51, 111
7, 169428, Note_off_c, 5, 51, 0
7, 169905, Note_on_c, 5, 58, 111
7, 169906, Note_on_c, 5, 46, 103
7, 170651, Note_off_c, 5, 46, 0
7, 170825, Note_on_c, 5, 63, 103
7, 170826, Note_on_c, 5, 51, 103
7, 170827, Note_off_c, 5, 58, 0
7, 171292, Note_off_c, 5, 51, 0
7, 171318, Note_off_c, 5, 63, 0
7, 171835, Note_on_c, 5, 58, 90
7, 171835, Note_on_c, 5, 70, 103
7, 172467, Note_off_c, 5, 70, 0
7, 172791, Note_on_c, 5, 63, 81
7, 172792, Note_on_c, 5, 51, 90
7, 172793, Note_off_c, 5, 58, 0
7, 173285, Note_off_c, 5, 63, 0
7, 173311, Note_off_c, 5, 51, 0
7, 173698, Note_on_c, 5, 58, 82
7, 173713, Note_on_c, 5, 46, 80
7, 174720, Note_on_c, 5, 51, 103
7, 174721, Note_off_c, 5, 58, 0
7, 174735, Note_off_c, 5, 46, 0
7, 175276, Note_off_c, 5, 51, 0
7, 175276, End_track
8, 0, Start_track
8, 0, Title_t, "Oboesolo"
8, 0, MIDI_port, 0
8, 0, Channel_prefix, 6
8, 0, Control_c, 6, 7, 89
8, 0, Control_c, 6, 10, 102
8, 0, Control_c, 6, 0, 0
8, 0, Control_c, 6, 32, 0
8, 0, Control_c, 6, 93, 0
8, 0, Program_c, 6, 68
8, 11525, Note_on_c, 6, 82, 111
8, 13712, Control_c, 6, 1, 6
8, 13772, Control_c, 6, 1, 8
8, 13832, Control_c, 6, 1, 10
8, 13868, Control_c, 6, 1, 12
8, 13987, Control_c, 6, 1, 14
8, 14023, Control_c, 6, 1, 17
8, 14060, Control_c, 6, 1, 21
8, 14107, Control_c, 6, 1, 25
8, 14156, Control_c, 6, 1, 29
8, 14192, Control_c, 6, 1, 33
8, 14240, Control_c, 6, 1, 37
8, 14312, Control_c, 6, 1, 41
8, 14815, Control_c, 6, 1, 29
8, 14836, Note_on_c, 6, 80, 111
8, 14852, Control_c, 6, 1, 25
8, 14865, Control_c, 6, 1, 21
8, 14876, Note_off_c, 6, 82, 0
8, 14890, Control_c, 6, 1, 17
8, 15067, Note_on_c, 6, 79, 90
8, 15092, Note_off_c, 6, 80, 0
8, 15096, Control_c, 6, 1, 29
8, 15120, Control_c, 6, 1, 33
8, 15145, Control_c, 6, 1, 37
8, 15298, Note_on_c, 6, 77, 90
8, 15300, Note_off_c, 6, 79, 0
8, 15315, Control_c, 6, 1, 41
8, 15802, Note_on_c, 6, 75, 111
8, 15852, Note_off_c, 6, 77, 0
8, 16093, Control_c, 6, 1, 29
8, 16128, Control_c, 6, 1, 25
8, 16177, Control_c, 6, 1, 21
8, 16226, Control_c, 6, 1, 17
8, 16250, Control_c, 6, 1, 14
8, 16273, Control_c, 6, 1, 12
8, 16298, Control_c, 6, 1, 10
8, 16322, Control_c, 6, 1, 8
8, 16346, Control_c, 6, 1, 6
8, 16395, Control_c, 6, 1, 4
8, 16453, Control_c, 6, 1, 2
8, 16478, Control_c, 6, 1, 0
8, 16548, Note_on_c, 6, 74, 90
8, 16561, Note_off_c, 6, 75, 0
8, 16667, Note_on_c, 6, 75, 124
8, 16692, Note_off_c, 6, 74, 0
8, 16775, Note_on_c, 6, 77, 90
8, 16787, Note_off_c, 6, 75, 0
8, 16882, Note_on_c, 6, 75, 111
8, 16906, Note_off_c, 6, 77, 0
8, 16988, Note_on_c, 6, 74, 103
8, 17013, Note_off_c, 6, 75, 0
8, 17096, Note_on_c, 6, 72, 90
8, 17108, Note_off_c, 6, 74, 0
8, 17250, Note_on_c, 6, 70, 111
8, 17263, Note_off_c, 6, 72, 0
8, 18670, Note_off_c, 6, 70, 0
8, 30720, Control_c, 6, 32, 0
8, 30720, Control_c, 6, 0, 0
8, 30720, Program_c, 6, 68
8, 36447, Note_on_c, 6, 67, 111
8, 36542, Note_off_c, 6, 67, 0
8, 36566, Note_on_c, 6, 68, 111
8, 36638, Note_off_c, 6, 68, 0
8, 36661, Note_on_c, 6, 70, 111
8, 36721, Note_off_c, 6, 70, 0
8, 36780, Note_on_c, 6, 72, 103
8, 36840, Note_off_c, 6, 72, 0
8, 36887, Note_on_c, 6, 74, 103
8, 36958, Note_off_c, 6, 74, 0
8, 37006, Note_on_c, 6, 75, 103
8, 37052, Note_off_c, 6, 75, 0
8, 37112, Note_on_c, 6, 77, 103
8, 37172, Note_off_c, 6, 77, 0
8, 37242, Note_on_c, 6, 79, 103
8, 37302, Note_off_c, 6, 79, 0
8, 37408, Note_on_c, 6, 80, 103
8, 38077, Note_off_c, 6, 80, 0
8, 38100, Note_on_c, 6, 74, 90
8, 38290, Note_off_c, 6, 74, 0
8, 38348, Note_on_c, 6, 77, 111
8, 38571, Note_on_c, 6, 75, 111
8, 38596, Note_off_c, 6, 77, 0
8, 38678, Note_off_c, 6, 75, 0
8, 38831, Note_on_c, 6, 75, 90
8, 39371, Note_off_c, 6, 75, 0
8, 40422, Control_c, 6, 32, 0
8, 40422, Control_c, 6, 0, 0
8, 40422, Program_c, 6, 68
8, 42261, Note_on_c, 6, 65, 103
8, 42960, Note_off_c, 6, 65, 0
8, 43138, Note_on_c, 6, 84, 90
8, 44103, Note_off_c, 6, 84, 0
8, 44130, Note_on_c, 6, 86, 90
8, 44473, Note_off_c, 6, 86, 0
8, 44498, Note_on_c, 6, 82, 111
8, 44576, Note_off_c, 6, 82, 0
8, 44615, Note_on_c, 6, 82, 83
8, 45276, Note_off_c, 6, 82, 0
8, 48015, Note_on_c, 6, 82, 124
8, 48891, Note_off_c, 6, 82, 0
8, 48942, Note_on_c, 6, 84, 103
8, 49045, Note_on_c, 6, 82, 82
8, 49083, Note_off_c, 6, 84, 0
8, 49161, Note_on_c, 6, 81, 83
8, 49201, Note_off_c, 6, 82, 0
8, 49291, Note_off_c, 6, 81, 0
8, 49297, Note_on_c, 6, 79, 100
8, 49387, Note_off_c, 6, 79, 80
8, 49406, Note_on_c, 6, 79, 103
8, 49535, Note_on_c, 6, 77, 83
8, 49561, Note_off_c, 6, 79, 0
8, 49638, Note_off_c, 6, 77, 0
8, 49652, Note_on_c, 6, 75, 103
8, 49716, Note_off_c, 6, 75, 0
8, 49755, Note_on_c, 6, 74, 103
8, 49857, Note_off_c, 6, 74, 0
8, 49908, Note_on_c, 6, 72, 83
8, 50823, Note_off_c, 6, 72, 0
8, 55162, Note_on_c, 6, 72, 103
8, 55602, Note_off_c, 6, 72, 0
8, 55630, Note_on_c, 6, 82, 103
8, 58293, Note_on_c, 6, 77, 111
8, 58320, Note_off_c, 6, 82, 0
8, 58473, Note_off_c, 6, 77, 0
8, 58523, Note_on_c, 6, 77, 111
8, 58945, Note_off_c, 6, 77, 0
8, 58982, Note_on_c, 6, 75, 111
8, 59187, Note_off_c, 6, 75, 0
8, 59226, Note_on_c, 6, 74, 90
8, 59431, Note_off_c, 6, 74, 0
8, 59507, Note_on_c, 6, 74, 103
8, 60447, Note_on_c, 6, 72, 111
8, 60448, Note_off_c, 6, 74, 0
8, 60512, Note_on_c, 6, 74, 103
8, 60513, Note_off_c, 6, 72, 0
8, 60552, Note_on_c, 6, 72, 83
8, 60566, Note_off_c, 6, 74, 0
8, 60605, Note_on_c, 6, 74, 90
8, 60606, Note_off_c, 6, 72, 0
8, 60645, Note_on_c, 6, 72, 81
8, 60646, Note_off_c, 6, 74, 0
8, 60683, Note_on_c, 6, 74, 83
8, 60698, Note_off_c, 6, 72, 0
8, 60725, Note_on_c, 6, 72, 81
8, 60738, Note_off_c, 6, 74, 0
8, 60765, Note_on_c, 6, 74, 83
8, 60778, Note_off_c, 6, 72, 0
8, 60805, Note_on_c, 6, 72, 73
8, 60818, Note_off_c, 6, 74, 0
8, 60857, Note_on_c, 6, 74, 83
8, 60885, Note_off_c, 6, 74, 0
8, 60911, Note_on_c, 6, 74, 82
8, 60938, Note_off_c, 6, 72, 0
8, 60965, Note_on_c, 6, 72, 65
8, 60966, Note_off_c, 6, 74, 0
8, 60978, Note_on_c, 6, 74, 81
8, 61006, Note_off_c, 6, 72, 0
8, 61031, Note_on_c, 6, 72, 66
8, 61032, Note_off_c, 6, 74, 0
8, 61058, Note_on_c, 6, 74, 80
8, 61073, Note_off_c, 6, 72, 0
8, 61165, Note_on_c, 6, 72, 56
8, 61178, Note_off_c, 6, 74, 0
8, 61293, Note_off_c, 6, 72, 0
8, 61293, Note_on_c, 6, 70, 90
8, 61346, Note_off_c, 6, 70, 0
8, 61346, Note_on_c, 6, 72, 72
8, 61385, Note_on_c, 6, 70, 103
8, 61400, Note_off_c, 6, 72, 0
8, 62021, Note_off_c, 6, 70, 0
8, 62136, Note_on_c, 6, 77, 111
8, 62341, Note_off_c, 6, 77, 0
8, 62367, Note_on_c, 6, 79, 90
8, 62583, Note_on_c, 6, 77, 103
8, 62622, Note_off_c, 6, 79, 0
8, 62813, Note_on_c, 6, 75, 111
8, 62827, Note_off_c, 6, 77, 0
8, 63006, Note_off_c, 6, 75, 0
8, 63045, Note_on_c, 6, 74, 103
8, 63160, Note_off_c, 6, 74, 0
8, 63287, Note_on_c, 6, 74, 103
8, 64151, Note_off_c, 6, 74, 0
8, 64305, Note_on_c, 6, 74, 103
8, 64535, Note_on_c, 6, 72, 83
8, 64560, Note_off_c, 6, 74, 0
8, 64751, Note_on_c, 6, 70, 82
8, 64778, Note_off_c, 6, 72, 0
8, 64970, Note_off_c, 6, 70, 0
8, 64983, Note_on_c, 6, 72, 83
8, 65123, Note_off_c, 6, 72, 0
8, 65251, Note_on_c, 6, 70, 124
8, 67105, Note_off_c, 6, 70, 0
8, 67181, Note_on_c, 6, 85, 90
8, 68773, Control_c, 6, 1, 4
8, 68812, Control_c, 6, 1, 6
8, 68851, Control_c, 6, 1, 8
8, 68878, Control_c, 6, 1, 10
8, 68905, Control_c, 6, 1, 12
8, 68956, Control_c, 6, 1, 14
8, 68982, Control_c, 6, 1, 17
8, 69008, Control_c, 6, 1, 21
8, 69047, Control_c, 6, 1, 25
8, 69097, Note_on_c, 6, 84, 81
8, 69126, Note_off_c, 6, 85, 0
8, 69296, Control_c, 6, 1, 14
8, 69322, Control_c, 6, 1, 17
8, 69375, Control_c, 6, 1, 21
8, 69491, Control_c, 6, 1, 25
8, 69543, Control_c, 6, 1, 29
8, 69892, Control_c, 6, 1, 33
8, 69920, Control_c, 6, 1, 37
8, 69932, Control_c, 6, 1, 41
8, 69946, Control_c, 6, 1, 45
8, 69972, Control_c, 6, 1, 49
8, 70000, Control_c, 6, 1, 53
8, 70206, Control_c, 6, 1, 41
8, 70298, Control_c, 6, 1, 37
8, 70337, Control_c, 6, 1, 33
8, 70377, Control_c, 6, 1, 29
8, 70455, Control_c, 6, 1, 25
8, 70480, Note_off_c, 6, 84, 0
8, 70520, Note_on_c, 6, 84, 90
8, 70573, Control_c, 6, 1, 21
8, 70650, Note_on_c, 6, 82, 124
8, 70665, Control_c, 6, 1, 17
8, 70691, Note_off_c, 6, 84, 0
8, 70745, Control_c, 6, 1, 14
8, 70768, Note_on_c, 6, 80, 103
8, 70783, Note_off_c, 6, 82, 0
8, 70886, Note_on_c, 6, 82, 124
8, 70901, Note_off_c, 6, 80, 0
8, 70905, Control_c, 6, 1, 25
8, 70995, Control_c, 6, 1, 21
8, 71020, Note_on_c, 6, 80, 124
8, 71021, Note_off_c, 6, 82, 0
8, 71050, Control_c, 6, 1, 17
8, 71231, Control_c, 6, 1, 14
8, 71270, Control_c, 6, 1, 12
8, 71282, Control_c, 6, 1, 10
8, 71310, Control_c, 6, 1, 8
8, 71361, Control_c, 6, 1, 6
8, 71477, Control_c, 6, 1, 4
8, 71530, Control_c, 6, 1, 2
8, 71581, Control_c, 6, 1, 0
8, 72206, Note_off_c, 6, 80, 0
8, 80678, Note_on_c, 6, 84, 90
8, 81556, Note_off_c, 6, 84, 0
8, 81607, Note_on_c, 6, 86, 90
8, 81708, Note_on_c, 6, 84, 103
8, 81736, Note_off_c, 6, 86, 0
8, 81800, Note_on_c, 6, 82, 124
8, 81826, Note_off_c, 6, 84, 0
8, 81937, Note_on_c, 6, 80, 100
8, 81942, Note_off_c, 6, 82, 0
8, 82015, Note_off_c, 6, 80, 80
8, 82028, Note_on_c, 6, 80, 100
8, 82157, Note_on_c, 6, 79, 100
8, 82208, Note_off_c, 6, 80, 80
8, 82313, Note_on_c, 6, 77, 100
8, 82337, Note_off_c, 6, 79, 80
8, 82404, Note_on_c, 6, 75, 100
8, 82493, Note_off_c, 6, 77, 80
8, 82548, Note_on_c, 6, 74, 83
8, 82584, Note_off_c, 6, 75, 80
8, 83488, Note_off_c, 6, 74, 0
8, 86876, Note_on_c, 6, 72, 83
8, 87310, Note_off_c, 6, 72, 0
8, 87347, Note_on_c, 6, 84, 82
8, 89241, Note_on_c, 6, 82, 124
8, 89256, Note_off_c, 6, 84, 0
8, 90473, Note_on_c, 6, 81, 124
8, 90501, Note_off_c, 6, 82, 0
8, 90705, Note_on_c, 6, 84, 90
8, 90706, Note_off_c, 6, 81, 0
8, 90947, Note_on_c, 6, 81, 90
8, 90962, Note_off_c, 6, 84, 0
8, 91191, Note_on_c, 6, 79, 81
8, 91203, Note_off_c, 6, 81, 0
8, 91661, Note_on_c, 6, 78, 103
8, 91676, Note_off_c, 6, 79, 0
8, 92032, Note_off_c, 6, 78, 0
8, 92173, Note_on_c, 6, 79, 83
8, 92682, Note_off_c, 6, 79, 0
8, 93100, Note_on_c, 6, 82, 111
8, 94246, Control_c, 6, 1, 6
8, 94298, Control_c, 6, 1, 8
8, 94337, Control_c, 6, 1, 10
8, 94351, Control_c, 6, 1, 12
8, 94377, Control_c, 6, 1, 14
8, 94391, Control_c, 6, 1, 17
8, 94416, Control_c, 6, 1, 21
8, 94443, Control_c, 6, 1, 25
8, 94456, Control_c, 6, 1, 29
8, 94470, Control_c, 6, 1, 33
8, 94496, Control_c, 6, 1, 37
8, 94510, Control_c, 6, 1, 41
8, 94536, Control_c, 6, 1, 45
8, 94550, Control_c, 6, 1, 49
8, 94577, Control_c, 6, 1, 53
8, 94771, Control_c, 6, 1, 41
8, 94811, Control_c, 6, 1, 37
8, 94850, Control_c, 6, 1, 33
8, 94876, Control_c, 6, 1, 29
8, 94902, Control_c, 6, 1, 25
8, 94930, Control_c, 6, 1, 21
8, 94942, Control_c, 6, 1, 17
8, 94956, Control_c, 6, 1, 14
8, 94982, Control_c, 6, 1, 12
8, 94996, Control_c, 6, 1, 10
8, 95021, Note_on_c, 6, 70, 83
8, 95035, Note_off_c, 6, 82, 0
8, 95217, Control_c, 6, 1, 17
8, 95245, Control_c, 6, 1, 21
8, 95257, Control_c, 6, 1, 29
8, 95271, Control_c, 6, 1, 33
8, 95285, Control_c, 6, 1, 37
8, 95311, Control_c, 6, 1, 41
8, 95737, Control_c, 6, 1, 29
8, 95765, Control_c, 6, 1, 25
8, 95790, Control_c, 6, 1, 21
8, 95830, Control_c, 6, 1, 17
8, 95957, Note_on_c, 6, 68, 90
8, 95971, Note_off_c, 6, 70, 0
8, 96026, Control_c, 6, 1, 14
8, 96038, Control_c, 6, 1, 12
8, 96220, Control_c, 6, 1, 10
8, 96233, Control_c, 6, 1, 8
8, 96260, Control_c, 6, 1, 6
8, 96273, Control_c, 6, 1, 4
8, 96363, Control_c, 6, 1, 2
8, 96403, Control_c, 6, 1, 0
8, 96595, Note_off_c, 6, 68, 0
8, 96927, Note_on_c, 6, 80, 111
8, 97902, Control_c, 6, 1, 6
8, 97941, Control_c, 6, 1, 8
8, 97981, Control_c, 6, 1, 10
8, 98058, Control_c, 6, 1, 12
8, 98111, Control_c, 6, 1, 14
8, 98136, Control_c, 6, 1, 17
8, 98201, Control_c, 6, 1, 21
8, 98317, Control_c, 6, 1, 25
8, 98370, Control_c, 6, 1, 29
8, 98410, Control_c, 6, 1, 33
8, 98526, Control_c, 6, 1, 37
8, 98668, Control_c, 6, 1, 25
8, 98721, Control_c, 6, 1, 21
8, 98811, Control_c, 6, 1, 17
8, 98875, Note_on_c, 6, 68, 124
8, 98876, Note_off_c, 6, 80, 0
8, 99265, Control_c, 6, 1, 14
8, 99291, Control_c, 6, 1, 12
8, 99331, Control_c, 6, 1, 10
8, 99356, Control_c, 6, 1, 8
8, 99370, Control_c, 6, 1, 6
8, 99383, Control_c, 6, 1, 4
8, 99397, Control_c, 6, 1, 2
8, 99411, Control_c, 6, 1, 0
8, 99796, Note_off_c, 6, 68, 0
8, 99822, Note_on_c, 6, 67, 103
8, 99840, Control_c, 6, 32, 0
8, 99840, Control_c, 6, 0, 0
8, 99840, Program_c, 6, 68
8, 100563, Note_off_c, 6, 67, 0
8, 103721, Note_on_c, 6, 82, 124
8, 105342, Control_c, 6, 1, 2
8, 105418, Control_c, 6, 1, 6
8, 105483, Control_c, 6, 1, 8
8, 105548, Control_c, 6, 1, 10
8, 105601, Control_c, 6, 1, 12
8, 105665, Control_c, 6, 1, 14
8, 105756, Control_c, 6, 1, 17
8, 105860, Control_c, 6, 1, 21
8, 105962, Control_c, 6, 1, 25
8, 106002, Control_c, 6, 1, 29
8, 106067, Control_c, 6, 1, 33
8, 106146, Control_c, 6, 1, 37
8, 106315, Control_c, 6, 1, 41
8, 106380, Control_c, 6, 1, 45
8, 106652, Control_c, 6, 1, 33
8, 106795, Control_c, 6, 1, 29
8, 106872, Control_c, 6, 1, 25
8, 106937, Control_c, 6, 1, 21
8, 107038, Note_on_c, 6, 80, 124
8, 107053, Note_off_c, 6, 82, 0
8, 107082, Control_c, 6, 1, 33
8, 107133, Control_c, 6, 1, 37
8, 107200, Control_c, 6, 1, 29
8, 107225, Control_c, 6, 1, 25
8, 107262, Note_on_c, 6, 79, 103
8, 107277, Note_off_c, 6, 80, 0
8, 107485, Note_off_c, 6, 79, 0
8, 107510, Note_on_c, 6, 77, 111
8, 107515, Control_c, 6, 1, 33
8, 107656, Control_c, 6, 1, 21
8, 107682, Control_c, 6, 1, 17
8, 107696, Control_c, 6, 1, 14
8, 107722, Control_c, 6, 1, 12
8, 107762, Control_c, 6, 1, 10
8, 107775, Control_c, 6, 1, 8
8, 107813, Control_c, 6, 1, 6
8, 107853, Control_c, 6, 1, 4
8, 107943, Control_c, 6, 1, 2
8, 108007, Note_on_c, 6, 75, 111
8, 108022, Note_off_c, 6, 77, 0
8, 108716, Note_on_c, 6, 74, 111
8, 108718, Note_off_c, 6, 75, 0
8, 108808, Note_on_c, 6, 75, 124
8, 108835, Note_off_c, 6, 74, 0
8, 108863, Control_c, 6, 1, 8
8, 108890, Control_c, 6, 1, 6
8, 108927, Note_on_c, 6, 77, 111
8, 108953, Note_off_c, 6, 75, 0
8, 109045, Note_on_c, 6, 75, 111
8, 109083, Note_off_c, 6, 77, 0
8, 109148, Note_on_c, 6, 74, 103
8, 109175, Note_off_c, 6, 75, 0
8, 109253, Note_on_c, 6, 72, 83
8, 109255, Note_off_c, 6, 74, 0
8, 109396, Note_on_c, 6, 70, 103
8, 109422, Note_off_c, 6, 72, 0
8, 110567, Note_off_c, 6, 70, 0
8, 110827, Control_c, 6, 1, 4
8, 110853, Control_c, 6, 1, 2
8, 110867, Control_c, 6, 1, 0
8, 128633, Note_on_c, 6, 67, 124
8, 128736, Note_on_c, 6, 68, 111
8, 128763, Note_off_c, 6, 67, 0
8, 128815, Note_off_c, 6, 68, 0
8, 128841, Note_on_c, 6, 70, 124
8, 128905, Note_off_c, 6, 70, 0
8, 128968, Note_on_c, 6, 72, 103
8, 129033, Note_off_c, 6, 72, 0
8, 129072, Note_on_c, 6, 74, 111
8, 129150, Note_off_c, 6, 74, 0
8, 129188, Note_on_c, 6, 75, 111
8, 129252, Note_off_c, 6, 75, 0
8, 129316, Note_on_c, 6, 77, 103
8, 129381, Note_off_c, 6, 77, 0
8, 129432, Note_on_c, 6, 79, 111
8, 129510, Note_off_c, 6, 79, 0
8, 129573, Note_on_c, 6, 80, 124
8, 130260, Note_off_c, 6, 80, 0
8, 130298, Note_on_c, 6, 74, 111
8, 130478, Note_off_c, 6, 74, 0
8, 130530, Note_on_c, 6, 77, 124
8, 130760, Note_on_c, 6, 75, 124
8, 130773, Note_off_c, 6, 77, 0
8, 130862, Note_off_c, 6, 75, 0
8, 131015, Note_on_c, 6, 75, 124
8, 131562, Note_off_c, 6, 75, 0
8, 134391, Note_on_c, 6, 63, 111
8, 135305, Note_off_c, 6, 63, 0
8, 135343, Note_on_c, 6, 82, 124
8, 136270, Note_off_c, 6, 82, 0
8, 136321, Note_on_c, 6, 84, 111
8, 136590, Note_off_c, 6, 84, 0
8, 136678, Note_on_c, 6, 80, 111
8, 136756, Note_off_c, 6, 80, 0
8, 136795, Note_on_c, 6, 80, 103
8, 137303, Note_off_c, 6, 80, 0
8, 140195, Note_on_c, 6, 75, 111
8, 141085, Note_off_c, 6, 75, 0
8, 141136, Note_on_c, 6, 77, 111
8, 141250, Note_on_c, 6, 75, 124
8, 141265, Note_off_c, 6, 77, 0
8, 141341, Note_off_c, 6, 75, 0
8, 141355, Note_on_c, 6, 74, 103
8, 141445, Note_off_c, 6, 74, 0
8, 141457, Note_on_c, 6, 72, 90
8, 141535, Note_off_c, 6, 72, 0
8, 141586, Note_on_c, 6, 72, 103
8, 141701, Note_on_c, 6, 70, 111
8, 141728, Note_off_c, 6, 72, 0
8, 141805, Note_on_c, 6, 68, 103
8, 141831, Note_off_c, 6, 70, 0
8, 141896, Note_off_c, 6, 68, 0
8, 141922, Note_on_c, 6, 67, 90
8, 142025, Note_off_c, 6, 67, 0
8, 142076, Note_on_c, 6, 65, 103
8, 143053, Note_off_c, 6, 65, 0
8, 147340, Note_on_c, 6, 75, 124
8, 147760, Note_off_c, 6, 75, 0
8, 147837, Note_on_c, 6, 84, 111
8, 148756, Control_c, 6, 1, 6
8, 148795, Control_c, 6, 1, 8
8, 148833, Control_c, 6, 1, 10
8, 148861, Control_c, 6, 1, 12
8, 148886, Control_c, 6, 1, 14
8, 148900, Control_c, 6, 1, 17
8, 148926, Control_c, 6, 1, 21
8, 148953, Control_c, 6, 1, 25
8, 148991, Control_c, 6, 1, 29
8, 149031, Control_c, 6, 1, 33
8, 149071, Control_c, 6, 1, 37
8, 149097, Control_c, 6, 1, 41
8, 149123, Control_c, 6, 1, 45
8, 149215, Control_c, 6, 1, 49
8, 149267, Control_c, 6, 1, 53
8, 149293, Control_c, 6, 1, 57
8, 149320, Control_c, 6, 1, 61
8, 149372, Control_c, 6, 1, 65
8, 149463, Control_c, 6, 1, 53
8, 149477, Control_c, 6, 1, 49
8, 149491, Control_c, 6, 1, 45
8, 149505, Control_c, 6, 1, 41
8, 149530, Control_c, 6, 1, 37
8, 149543, Control_c, 6, 1, 33
8, 149570, Control_c, 6, 1, 29
8, 149610, Control_c, 6, 1, 25
8, 149648, Control_c, 6, 1, 21
8, 149701, Control_c, 6, 1, 17
8, 149727, Control_c, 6, 1, 14
8, 149753, Control_c, 6, 1, 12
8, 149765, Note_off_c, 6, 84, 0
8, 149778, Note_on_c, 6, 82, 111
8, 149821, Control_c, 6, 1, 10
8, 149860, Control_c, 6, 1, 8
8, 149886, Control_c, 6, 1, 6
8, 149912, Control_c, 6, 1, 4
8, 149926, Control_c, 6, 1, 2
8, 149977, Control_c, 6, 1, 0
8, 150247, Control_c, 6, 1, 6
8, 150312, Control_c, 6, 1, 8
8, 150377, Control_c, 6, 1, 10
8, 150416, Control_c, 6, 1, 12
8, 150468, Control_c, 6, 1, 14
8, 150713, Control_c, 6, 1, 8
8, 150805, Control_c, 6, 1, 6
8, 150868, Control_c, 6, 1, 4
8, 150906, Note_off_c, 6, 82, 0
8, 150932, Note_on_c, 6, 81, 90
8, 151177, Note_on_c, 6, 80, 103
8, 151178, Note_off_c, 6, 81, 0
8, 151182, Control_c, 6, 1, 2
8, 151400, Note_on_c, 6, 79, 83
8, 151412, Note_off_c, 6, 80, 0
8, 151455, Control_c, 6, 1, 0
8, 151607, Note_off_c, 6, 79, 0
8, 151672, Note_on_c, 6, 79, 124
8, 152883, Note_on_c, 6, 77, 103
8, 152897, Note_off_c, 6, 79, 0
8, 153101, Note_on_c, 6, 75, 124
8, 153127, Note_off_c, 6, 77, 0
8, 153331, Note_on_c, 6, 77, 82
8, 153346, Note_off_c, 6, 75, 0
8, 153548, Note_off_c, 6, 77, 0
8, 153588, Note_on_c, 6, 75, 83
8, 154488, Note_off_c, 6, 75, 0
8, 159400, Note_on_c, 6, 82, 111
8, 160132, Control_c, 6, 1, 6
8, 160196, Control_c, 6, 1, 8
8, 160248, Control_c, 6, 1, 10
8, 160275, Control_c, 6, 1, 12
8, 160326, Control_c, 6, 1, 14
8, 160391, Control_c, 6, 1, 17
8, 160431, Control_c, 6, 1, 21
8, 160482, Control_c, 6, 1, 25
8, 160548, Control_c, 6, 1, 29
8, 160691, Control_c, 6, 1, 33
8, 160756, Control_c, 6, 1, 37
8, 160857, Note_on_c, 6, 83, 83
8, 160871, Note_off_c, 6, 82, 0
8, 161093, Control_c, 6, 1, 25
8, 161198, Control_c, 6, 1, 21
8, 161338, Note_on_c, 6, 84, 90
8, 161353, Note_off_c, 6, 83, 0
8, 161510, Control_c, 6, 1, 17
8, 161601, Control_c, 6, 1, 14
8, 161627, Control_c, 6, 1, 12
8, 161666, Control_c, 6, 1, 10
8, 161693, Control_c, 6, 1, 8
8, 161757, Control_c, 6, 1, 6
8, 161783, Control_c, 6, 1, 4
8, 161795, Note_on_c, 6, 82, 90
8, 161836, Note_off_c, 6, 84, 0
8, 161837, Control_c, 6, 1, 2
8, 161877, Control_c, 6, 1, 0
8, 162016, Note_on_c, 6, 80, 103
8, 162043, Note_off_c, 6, 82, 0
8, 162237, Note_on_c, 6, 79, 82
8, 162251, Note_off_c, 6, 80, 0
8, 162457, Note_on_c, 6, 77, 81
8, 162471, Note_off_c, 6, 79, 0
8, 162677, Note_on_c, 6, 75, 90
8, 162717, Note_off_c, 6, 77, 0
8, 162911, Note_on_c, 6, 74, 82
8, 162938, Note_off_c, 6, 75, 0
8, 163131, Note_off_c, 6, 74, 0
8, 163157, Note_on_c, 6, 75, 103
8, 163877, Note_off_c, 6, 75, 0
8, 165122, Note_on_c, 6, 82, 111
8, 165943, Control_c, 6, 1, 6
8, 166021, Control_c, 6, 1, 8
8, 166086, Control_c, 6, 1, 10
8, 166151, Control_c, 6, 1, 12
8, 166228, Control_c, 6, 1, 14
8, 166281, Control_c, 6, 1, 17
8, 166333, Control_c, 6, 1, 21
8, 166398, Control_c, 6, 1, 25
8, 166437, Control_c, 6, 1, 29
8, 166565, Note_on_c, 6, 83, 103
8, 166592, Note_off_c, 6, 82, 0
8, 166801, Control_c, 6, 1, 33
8, 166943, Control_c, 6, 1, 21
8, 166957, Control_c, 6, 1, 17
8, 166983, Control_c, 6, 1, 14
8, 167022, Control_c, 6, 1, 12
8, 167036, Control_c, 6, 1, 10
8, 167061, Note_on_c, 6, 84, 90
8, 167063, Control_c, 6, 1, 6
8, 167076, Note_off_c, 6, 83, 0
8, 167092, Control_c, 6, 1, 4
8, 167105, Control_c, 6, 1, 2
8, 167117, Control_c, 6, 1, 0
8, 167565, Note_on_c, 6, 82, 90
8, 167578, Note_off_c, 6, 84, 0
8, 167785, Note_on_c, 6, 80, 80
8, 167811, Note_off_c, 6, 82, 0
8, 167978, Note_off_c, 6, 80, 0
8, 167991, Note_on_c, 6, 79, 81
8, 168223, Note_on_c, 6, 77, 80
8, 168250, Note_off_c, 6, 79, 0
8, 168468, Note_on_c, 6, 75, 82
8, 168496, Note_off_c, 6, 77, 0
8, 168688, Note_on_c, 6, 74, 80
8, 168716, Note_off_c, 6, 75, 0
8, 168870, Note_off_c, 6, 74, 0
8, 168947, Note_on_c, 6, 75, 125
8, 169191, Note_on_c, 6, 70, 83
8, 169192, Note_off_c, 6, 75, 0
8, 169397, Note_on_c, 6, 75, 83
8, 169426, Note_off_c, 6, 70, 0
8, 169618, Note_on_c, 6, 79, 83
8, 169657, Note_off_c, 6, 75, 0
8, 169826, Note_off_c, 6, 79, 0
8, 169852, Note_on_c, 6, 82, 83
8, 170416, Note_off_c, 6, 82, 0
8, 171093, Note_on_c, 6, 70, 111
8, 171301, Note_off_c, 6, 70, 0
8, 171313, Note_on_c, 6, 75, 81
8, 171481, Note_off_c, 6, 75, 0
8, 171533, Note_on_c, 6, 79, 83
8, 171701, Note_off_c, 6, 79, 0
8, 171766, Note_on_c, 6, 82, 83
8, 172432, Note_off_c, 6, 82, 0
8, 173046, Note_on_c, 6, 70, 111
8, 173240, Note_off_c, 6, 70, 0
8, 173252, Note_on_c, 6, 75, 83
8, 173420, Note_off_c, 6, 75, 0
8, 173485, Note_on_c, 6, 79, 80
8, 173627, Note_off_c, 6, 79, 0
8, 173730, Note_on_c, 6, 82, 103
8, 174331, Note_off_c, 6, 82, 0
8, 174728, Note_on_c, 6, 87, 80
8, 175266, Note_off_c, 6, 87, 0
8, 175266, End_track
9, 0, Start_track
9, 0, Title_t, "Klarsolo"
9, 0, MIDI_port, 0
9, 0, Channel_prefix, 7
9, 0, Control_c, 7, 7, 91
9, 0, Control_c, 7, 10, 127
9, 0, Control_c, 7, 0, 0
9, 0, Control_c, 7, 32, 0
9, 0, Control_c, 7, 93, 0
9, 0, Program_c, 7, 71
9, 17283, Note_on_c, 7, 75, 124
9, 18421, Note_off_c, 7, 75, 0
9, 18421, Note_on_c, 7, 77, 90
9, 18468, Note_on_c, 7, 75, 103
9, 18493, Note_off_c, 7, 77, 0
9, 18528, Note_on_c, 7, 74, 83
9, 18530, Note_off_c, 7, 75, 0
9, 18588, Note_on_c, 7, 75, 124
9, 18613, Note_off_c, 7, 74, 0
9, 18648, Note_on_c, 7, 77, 111
9, 18650, Note_off_c, 7, 75, 0
9, 18885, Note_on_c, 7, 79, 83
9, 18886, Note_off_c, 7, 77, 0
9, 19145, Note_off_c, 7, 79, 0
9, 19168, Note_on_c, 7, 76, 111
9, 19836, Note_on_c, 7, 77, 80
9, 19861, Note_off_c, 7, 76, 0
9, 20050, Note_off_c, 7, 77, 0
9, 20121, Note_on_c, 7, 77, 83
9, 21023, Note_off_c, 7, 77, 0
9, 21120, Note_on_c, 7, 79, 90
9, 21351, Note_on_c, 7, 77, 103
9, 21380, Note_off_c, 7, 79, 0
9, 21577, Note_off_c, 7, 77, 0
9, 21600, Note_on_c, 7, 75, 111
9, 21777, Note_on_c, 7, 74, 103
9, 21860, Note_off_c, 7, 75, 0
9, 22016, Note_on_c, 7, 72, 103
9, 22026, Note_off_c, 7, 74, 0
9, 22272, Note_on_c, 7, 70, 111
9, 22308, Note_off_c, 7, 72, 0
9, 22731, Note_on_c, 7, 68, 124
9, 22732, Note_off_c, 7, 70, 0
9, 22883, Note_off_c, 7, 68, 0
9, 22883, Note_on_c, 7, 70, 111
9, 22933, Note_on_c, 7, 68, 111
9, 22935, Note_off_c, 7, 70, 0
9, 22981, Note_on_c, 7, 70, 111
9, 22982, Note_off_c, 7, 68, 0
9, 23020, Note_off_c, 7, 70, 0
9, 23040, Note_on_c, 7, 68, 111
9, 23043, Note_on_c, 7, 70, 81
9, 23081, Note_off_c, 7, 70, 0
9, 23520, Note_off_c, 7, 68, 0
9, 23520, Note_on_c, 7, 67, 109
9, 24120, Note_off_c, 7, 67, 0
9, 32648, Note_on_c, 7, 67, 103
9, 32883, Note_on_c, 7, 70, 124
9, 32897, Note_off_c, 7, 67, 0
9, 33086, Note_off_c, 7, 70, 0
9, 33121, Note_on_c, 7, 75, 111
9, 33286, Note_off_c, 7, 75, 0
9, 33368, Note_on_c, 7, 79, 103
9, 33581, Note_off_c, 7, 79, 0
9, 33616, Note_on_c, 7, 80, 124
9, 34331, Note_on_c, 7, 74, 82
9, 34332, Note_off_c, 7, 80, 0
9, 34591, Note_on_c, 7, 77, 111
9, 34616, Note_off_c, 7, 74, 0
9, 34826, Note_on_c, 7, 75, 111
9, 34863, Note_off_c, 7, 77, 0
9, 35005, Note_off_c, 7, 75, 0
9, 35051, Note_on_c, 7, 75, 103
9, 35615, Note_off_c, 7, 75, 0
9, 38400, Control_c, 7, 32, 0
9, 38400, Control_c, 7, 0, 0
9, 38400, Program_c, 7, 71
9, 40288, Note_on_c, 7, 53, 103
9, 41077, Note_off_c, 7, 53, 0
9, 41230, Note_on_c, 7, 70, 124
9, 42182, Note_off_c, 7, 70, 0
9, 42208, Note_on_c, 7, 75, 124
9, 43135, Note_off_c, 7, 75, 0
9, 43148, Note_on_c, 7, 63, 124
9, 44101, Note_off_c, 7, 63, 0
9, 44127, Note_on_c, 7, 62, 90
9, 45106, Note_off_c, 7, 62, 0
9, 45537, Note_on_c, 7, 70, 124
9, 45996, Note_off_c, 7, 70, 0
9, 46035, Note_on_c, 7, 72, 90
9, 47025, Note_on_c, 7, 74, 124
9, 47026, Note_off_c, 7, 72, 0
9, 47940, Note_off_c, 7, 74, 0
9, 47953, Note_on_c, 7, 75, 103
9, 48982, Note_off_c, 7, 75, 0
9, 49655, Note_on_c, 7, 70, 124
9, 49858, Note_off_c, 7, 70, 0
9, 49910, Note_on_c, 7, 72, 90
9, 50863, Note_off_c, 7, 72, 0
9, 50863, Note_on_c, 7, 74, 111
9, 51791, Note_off_c, 7, 74, 0
9, 51830, Note_on_c, 7, 75, 111
9, 52820, Note_off_c, 7, 75, 0
9, 53746, Note_on_c, 7, 79, 83
9, 56136, Control_c, 7, 1, 6
9, 56162, Control_c, 7, 1, 8
9, 56176, Control_c, 7, 1, 10
9, 56202, Control_c, 7, 1, 12
9, 56215, Control_c, 7, 1, 14
9, 56228, Control_c, 7, 1, 17
9, 56256, Control_c, 7, 1, 21
9, 56295, Control_c, 7, 1, 25
9, 56333, Control_c, 7, 1, 29
9, 56361, Control_c, 7, 1, 33
9, 56386, Control_c, 7, 1, 37
9, 56413, Control_c, 7, 1, 41
9, 56452, Control_c, 7, 1, 45
9, 56530, Control_c, 7, 1, 49
9, 56570, Control_c, 7, 1, 53
9, 56596, Control_c, 7, 1, 57
9, 56636, Control_c, 7, 1, 61
9, 56740, Control_c, 7, 1, 65
9, 56806, Control_c, 7, 1, 69
9, 56845, Control_c, 7, 1, 73
9, 57015, Control_c, 7, 1, 61
9, 57028, Control_c, 7, 1, 57
9, 57055, Control_c, 7, 1, 53
9, 57068, Control_c, 7, 1, 49
9, 57095, Control_c, 7, 1, 45
9, 57108, Control_c, 7, 1, 41
9, 57122, Control_c, 7, 1, 37
9, 57135, Control_c, 7, 1, 33
9, 57148, Control_c, 7, 1, 29
9, 57162, Control_c, 7, 1, 25
9, 57176, Control_c, 7, 1, 21
9, 57190, Control_c, 7, 1, 17
9, 57280, Control_c, 7, 1, 14
9, 57306, Control_c, 7, 1, 12
9, 57332, Control_c, 7, 1, 10
9, 57346, Control_c, 7, 1, 8
9, 57358, Control_c, 7, 1, 6
9, 57372, Control_c, 7, 1, 4
9, 57386, Control_c, 7, 1, 0
9, 57563, Note_off_c, 7, 79, 0
9, 57576, Note_on_c, 7, 77, 111
9, 58212, Note_off_c, 7, 77, 0
9, 58251, Note_on_c, 7, 74, 103
9, 58455, Note_off_c, 7, 74, 0
9, 58520, Note_on_c, 7, 74, 111
9, 58977, Note_off_c, 7, 74, 0
9, 58991, Note_on_c, 7, 72, 103
9, 59208, Note_off_c, 7, 72, 0
9, 59208, Note_on_c, 7, 70, 111
9, 59388, Note_off_c, 7, 70, 0
9, 59490, Note_on_c, 7, 70, 124
9, 60391, Note_off_c, 7, 70, 0
9, 60430, Note_on_c, 7, 69, 124
9, 60507, Note_on_c, 7, 70, 103
9, 60508, Note_off_c, 7, 69, 0
9, 60560, Note_on_c, 7, 69, 83
9, 60573, Note_off_c, 7, 70, 0
9, 60626, Note_off_c, 7, 69, 0
9, 60626, Note_on_c, 7, 70, 111
9, 60677, Note_on_c, 7, 69, 90
9, 60678, Note_off_c, 7, 70, 0
9, 60730, Note_on_c, 7, 70, 111
9, 60743, Note_off_c, 7, 69, 0
9, 60782, Note_on_c, 7, 69, 83
9, 60783, Note_off_c, 7, 70, 0
9, 60835, Note_on_c, 7, 70, 103
9, 60836, Note_off_c, 7, 69, 0
9, 60862, Note_off_c, 7, 70, 0
9, 60876, Note_on_c, 7, 69, 80
9, 60902, Note_on_c, 7, 70, 111
9, 60916, Note_off_c, 7, 69, 0
9, 60955, Note_on_c, 7, 69, 81
9, 60956, Note_off_c, 7, 70, 0
9, 60968, Note_on_c, 7, 70, 83
9, 61035, Note_off_c, 7, 70, 0
9, 61150, Note_on_c, 7, 67, 83
9, 61165, Note_off_c, 7, 69, 0
9, 61265, Note_on_c, 7, 69, 111
9, 61292, Note_off_c, 7, 67, 0
9, 61395, Note_off_c, 7, 69, 0
9, 61407, Note_on_c, 7, 70, 111
9, 62183, Note_off_c, 7, 70, 0
9, 78226, Note_on_c, 7, 72, 103
9, 78697, Note_on_c, 7, 74, 103
9, 78711, Note_off_c, 7, 72, 0
9, 79703, Note_on_c, 7, 76, 111
9, 79705, Note_off_c, 7, 74, 0
9, 80606, Note_off_c, 7, 76, 0
9, 80645, Note_on_c, 7, 77, 111
9, 81597, Note_off_c, 7, 77, 0
9, 82307, Note_on_c, 7, 72, 111
9, 82550, Note_on_c, 7, 74, 111
9, 82565, Note_off_c, 7, 72, 0
9, 83502, Note_on_c, 7, 76, 90
9, 83530, Note_off_c, 7, 74, 0
9, 84468, Note_on_c, 7, 77, 90
9, 84496, Note_off_c, 7, 76, 0
9, 85422, Note_off_c, 7, 77, 0
9, 85892, Note_on_c, 7, 72, 90
9, 86388, Note_on_c, 7, 74, 90
9, 86416, Note_off_c, 7, 72, 0
9, 87342, Note_on_c, 7, 76, 90
9, 87368, Note_off_c, 7, 74, 0
9, 88307, Note_on_c, 7, 78, 124
9, 88335, Note_off_c, 7, 76, 0
9, 89235, Note_on_c, 7, 79, 103
9, 89250, Note_off_c, 7, 78, 0
9, 90240, Note_on_c, 7, 75, 125
9, 90253, Note_off_c, 7, 79, 0
9, 91193, Note_on_c, 7, 74, 111
9, 91195, Note_off_c, 7, 75, 0
9, 91665, Note_on_c, 7, 72, 83
9, 91678, Note_off_c, 7, 74, 0
9, 92161, Note_on_c, 7, 70, 124
9, 92201, Note_off_c, 7, 72, 0
9, 92786, Note_off_c, 7, 70, 0
9, 93102, Note_on_c, 7, 79, 124
9, 94993, Note_off_c, 7, 79, 0
9, 95007, Note_on_c, 7, 67, 90
9, 95972, Note_on_c, 7, 65, 83
9, 95998, Note_off_c, 7, 67, 0
9, 96572, Note_off_c, 7, 65, 0
9, 96940, Note_on_c, 7, 77, 111
9, 98161, Control_c, 7, 1, 2
9, 98201, Control_c, 7, 1, 6
9, 98215, Control_c, 7, 1, 8
9, 98227, Control_c, 7, 1, 10
9, 98253, Control_c, 7, 1, 12
9, 98306, Control_c, 7, 1, 14
9, 98332, Control_c, 7, 1, 17
9, 98345, Control_c, 7, 1, 21
9, 98385, Control_c, 7, 1, 25
9, 98423, Control_c, 7, 1, 29
9, 98450, Control_c, 7, 1, 33
9, 98490, Control_c, 7, 1, 37
9, 98516, Control_c, 7, 1, 41
9, 98672, Control_c, 7, 1, 29
9, 98698, Control_c, 7, 1, 25
9, 98711, Control_c, 7, 1, 21
9, 98751, Control_c, 7, 1, 17
9, 98816, Control_c, 7, 1, 14
9, 98840, Note_on_c, 7, 65, 82
9, 98856, Note_off_c, 7, 77, 0
9, 98858, Control_c, 7, 1, 12
9, 98871, Control_c, 7, 1, 10
9, 98885, Control_c, 7, 1, 8
9, 99220, Control_c, 7, 1, 6
9, 99323, Control_c, 7, 1, 4
9, 99350, Control_c, 7, 1, 2
9, 99363, Control_c, 7, 1, 0
9, 99810, Note_on_c, 7, 63, 103
9, 99836, Note_off_c, 7, 65, 0
9, 99840, Control_c, 7, 32, 0
9, 99840, Control_c, 7, 0, 0
9, 99840, Program_c, 7, 71
9, 100601, Note_off_c, 7, 63, 0
9, 109428, Note_on_c, 7, 75, 111
9, 110581, Note_off_c, 7, 75, 0
9, 110595, Note_on_c, 7, 77, 103
9, 110646, Note_on_c, 7, 75, 90
9, 110673, Note_off_c, 7, 77, 0
9, 110712, Note_on_c, 7, 74, 82
9, 110713, Note_off_c, 7, 75, 0
9, 110765, Note_on_c, 7, 75, 111
9, 110792, Note_off_c, 7, 74, 0
9, 110831, Note_off_c, 7, 75, 0
9, 110845, Note_on_c, 7, 77, 103
9, 111050, Note_off_c, 7, 77, 0
9, 111090, Note_on_c, 7, 79, 90
9, 111346, Note_on_c, 7, 76, 111
9, 111360, Note_off_c, 7, 79, 0
9, 112038, Note_on_c, 7, 77, 82
9, 112052, Note_off_c, 7, 76, 0
9, 112233, Note_off_c, 7, 77, 0
9, 112260, Note_on_c, 7, 77, 82
9, 113198, Note_off_c, 7, 77, 0
9, 113251, Note_on_c, 7, 79, 103
9, 113483, Note_off_c, 7, 79, 0
9, 113496, Note_on_c, 7, 77, 90
9, 113716, Note_off_c, 7, 77, 0
9, 113730, Note_on_c, 7, 75, 111
9, 113950, Note_on_c, 7, 74, 90
9, 113962, Note_off_c, 7, 75, 0
9, 114170, Note_off_c, 7, 74, 0
9, 114183, Note_on_c, 7, 72, 90
9, 114427, Note_on_c, 7, 70, 111
9, 114456, Note_off_c, 7, 72, 0
9, 114918, Note_on_c, 7, 68, 111
9, 114933, Note_off_c, 7, 70, 0
9, 115127, Note_off_c, 7, 68, 0
9, 115166, Note_on_c, 7, 70, 125
9, 115361, Note_off_c, 7, 70, 0
9, 115361, Note_on_c, 7, 68, 124
9, 115426, Note_on_c, 7, 70, 124
9, 115427, Note_off_c, 7, 68, 0
9, 115480, Note_on_c, 7, 68, 124
9, 115492, Note_off_c, 7, 70, 0
9, 115545, Note_on_c, 7, 70, 124
9, 115546, Note_off_c, 7, 68, 0
9, 115598, Note_off_c, 7, 70, 0
9, 115598, Note_on_c, 7, 68, 111
9, 115651, Note_on_c, 7, 70, 111
9, 115652, Note_off_c, 7, 68, 0
9, 115691, Note_on_c, 7, 68, 90
9, 115692, Note_off_c, 7, 70, 0
9, 115731, Note_on_c, 7, 70, 103
9, 115746, Note_off_c, 7, 68, 0
9, 115771, Note_on_c, 7, 68, 83
9, 115772, Note_off_c, 7, 70, 0
9, 115812, Note_on_c, 7, 70, 90
9, 115813, Note_off_c, 7, 68, 0
9, 115852, Note_on_c, 7, 68, 83
9, 115853, Note_off_c, 7, 70, 0
9, 115880, Note_on_c, 7, 70, 82
9, 115893, Note_off_c, 7, 68, 0
9, 115920, Note_on_c, 7, 68, 82
9, 115935, Note_off_c, 7, 70, 0
9, 116063, Note_on_c, 7, 67, 83
9, 116065, Note_off_c, 7, 68, 0
9, 116103, Note_on_c, 7, 68, 90
9, 116117, Note_off_c, 7, 67, 0
9, 116145, Note_off_c, 7, 68, 0
9, 116145, Note_on_c, 7, 67, 82
9, 117083, Note_off_c, 7, 67, 0
9, 124806, Note_on_c, 7, 67, 103
9, 125025, Note_off_c, 7, 67, 0
9, 125037, Note_on_c, 7, 70, 124
9, 125231, Note_off_c, 7, 70, 0
9, 125257, Note_on_c, 7, 75, 111
9, 125463, Note_off_c, 7, 75, 0
9, 125502, Note_on_c, 7, 79, 90
9, 125746, Note_off_c, 7, 79, 0
9, 125798, Note_on_c, 7, 80, 124
9, 125840, Control_c, 7, 1, 6
9, 125903, Control_c, 7, 1, 8
9, 125970, Control_c, 7, 1, 10
9, 126008, Control_c, 7, 1, 12
9, 126073, Control_c, 7, 1, 14
9, 126176, Control_c, 7, 1, 17
9, 126228, Control_c, 7, 1, 21
9, 126281, Control_c, 7, 1, 25
9, 126320, Control_c, 7, 1, 29
9, 126462, Control_c, 7, 1, 17
9, 126476, Control_c, 7, 1, 14
9, 126488, Note_off_c, 7, 80, 0
9, 126491, Control_c, 7, 1, 12
9, 126502, Note_on_c, 7, 74, 111
9, 126518, Control_c, 7, 1, 10
9, 126532, Control_c, 7, 1, 8
9, 126546, Control_c, 7, 1, 6
9, 126572, Control_c, 7, 1, 4
9, 126698, Note_off_c, 7, 74, 0
9, 126715, Control_c, 7, 1, 10
9, 126727, Control_c, 7, 1, 12
9, 126740, Note_on_c, 7, 77, 103
9, 126742, Control_c, 7, 1, 14
9, 126756, Control_c, 7, 1, 17
9, 126770, Control_c, 7, 1, 25
9, 126796, Control_c, 7, 1, 29
9, 126810, Control_c, 7, 1, 33
9, 126836, Control_c, 7, 1, 37
9, 126976, Note_on_c, 7, 75, 111
9, 127003, Note_off_c, 7, 77, 0
9, 127018, Control_c, 7, 1, 25
9, 127046, Control_c, 7, 1, 21
9, 127085, Control_c, 7, 1, 17
9, 127123, Note_off_c, 7, 75, 0
9, 127125, Control_c, 7, 1, 14
9, 127152, Control_c, 7, 1, 12
9, 127166, Control_c, 7, 1, 10
9, 127180, Control_c, 7, 1, 8
9, 127192, Control_c, 7, 1, 6
9, 127206, Control_c, 7, 1, 4
9, 127218, Control_c, 7, 1, 2
9, 127231, Note_on_c, 7, 75, 90
9, 127233, Control_c, 7, 1, 0
9, 127755, Note_off_c, 7, 75, 0
9, 132473, Note_on_c, 7, 51, 124
9, 133426, Note_off_c, 7, 51, 0
9, 133438, Note_on_c, 7, 68, 124
9, 134342, Note_off_c, 7, 68, 0
9, 134380, Note_on_c, 7, 73, 83
9, 135320, Note_off_c, 7, 73, 0
9, 135332, Note_on_c, 7, 55, 111
9, 136325, Note_on_c, 7, 56, 111
9, 136352, Note_off_c, 7, 55, 0
9, 137243, Note_off_c, 7, 56, 0
9, 137738, Note_on_c, 7, 63, 124
9, 138222, Note_on_c, 7, 65, 90
9, 138236, Note_off_c, 7, 63, 0
9, 139201, Note_on_c, 7, 67, 111
9, 139227, Note_off_c, 7, 65, 0
9, 140167, Note_on_c, 7, 68, 124
9, 140193, Note_off_c, 7, 67, 0
9, 141070, Note_off_c, 7, 68, 0
9, 141831, Note_on_c, 7, 75, 124
9, 142036, Note_off_c, 7, 75, 0
9, 142073, Note_on_c, 7, 77, 103
9, 143015, Note_off_c, 7, 77, 0
9, 143040, Note_on_c, 7, 79, 103
9, 143967, Note_off_c, 7, 79, 0
9, 143992, Note_on_c, 7, 80, 111
9, 144933, Note_off_c, 7, 80, 0
9, 146190, Note_on_c, 7, 72, 80
9, 147801, Note_on_c, 7, 75, 124
9, 147830, Note_off_c, 7, 72, 0
9, 149732, Note_off_c, 7, 75, 0
9, 149771, Note_on_c, 7, 70, 111
9, 150938, Note_on_c, 7, 69, 103
9, 150940, Note_off_c, 7, 70, 0
9, 151168, Note_on_c, 7, 68, 111
9, 151196, Note_off_c, 7, 69, 0
9, 151398, Note_on_c, 7, 67, 80
9, 151413, Note_off_c, 7, 68, 0
9, 151580, Note_off_c, 7, 67, 0
9, 151668, Note_on_c, 7, 67, 83
9, 152863, Note_on_c, 7, 65, 82
9, 152877, Note_off_c, 7, 67, 0
9, 153093, Note_on_c, 7, 63, 81
9, 153121, Note_off_c, 7, 65, 0
9, 153337, Note_on_c, 7, 65, 73
9, 153352, Note_off_c, 7, 63, 0
9, 153593, Note_on_c, 7, 63, 80
9, 153608, Note_off_c, 7, 65, 0
9, 154535, Note_off_c, 7, 63, 0
9, 159406, Note_on_c, 7, 73, 111
9, 160515, Control_c, 7, 1, 6
9, 160566, Control_c, 7, 1, 8
9, 160606, Control_c, 7, 1, 10
9, 160632, Control_c, 7, 1, 12
9, 160657, Control_c, 7, 1, 14
9, 160671, Control_c, 7, 1, 17
9, 160697, Control_c, 7, 1, 21
9, 160737, Control_c, 7, 1, 25
9, 160762, Control_c, 7, 1, 29
9, 160790, Control_c, 7, 1, 33
9, 160816, Control_c, 7, 1, 37
9, 161088, Control_c, 7, 1, 25
9, 161320, Note_on_c, 7, 72, 82
9, 161333, Note_off_c, 7, 73, 0
9, 161465, Control_c, 7, 1, 21
9, 161773, Note_on_c, 7, 75, 83
9, 161801, Note_off_c, 7, 72, 0
9, 162227, Note_on_c, 7, 72, 81
9, 162241, Note_off_c, 7, 75, 0
9, 162360, Control_c, 7, 1, 17
9, 162398, Control_c, 7, 1, 14
9, 162668, Note_on_c, 7, 68, 82
9, 162682, Note_off_c, 7, 72, 0
9, 163147, Note_on_c, 7, 67, 80
9, 163148, Note_off_c, 7, 68, 0
9, 163408, Control_c, 7, 1, 12
9, 163422, Control_c, 7, 1, 10
9, 163473, Control_c, 7, 1, 8
9, 163500, Control_c, 7, 1, 6
9, 163552, Control_c, 7, 1, 4
9, 163591, Control_c, 7, 1, 2
9, 163617, Control_c, 7, 1, 0
9, 163746, Note_off_c, 7, 67, 0
9, 165152, Note_on_c, 7, 73, 111
9, 165843, Control_c, 7, 1, 6
9, 165895, Control_c, 7, 1, 8
9, 165960, Control_c, 7, 1, 10
9, 166050, Control_c, 7, 1, 12
9, 166128, Control_c, 7, 1, 14
9, 166206, Control_c, 7, 1, 17
9, 166310, Control_c, 7, 1, 21
9, 166387, Control_c, 7, 1, 25
9, 166503, Control_c, 7, 1, 29
9, 166570, Control_c, 7, 1, 33
9, 166635, Control_c, 7, 1, 37
9, 166918, Control_c, 7, 1, 25
9, 166946, Control_c, 7, 1, 21
9, 166985, Control_c, 7, 1, 17
9, 167037, Control_c, 7, 1, 14
9, 167076, Note_on_c, 7, 72, 82
9, 167103, Note_off_c, 7, 73, 0
9, 167145, Control_c, 7, 1, 12
9, 167222, Control_c, 7, 1, 10
9, 167417, Control_c, 7, 1, 8
9, 167543, Note_on_c, 7, 75, 81
9, 167571, Note_off_c, 7, 72, 0
9, 168010, Note_on_c, 7, 72, 82
9, 168023, Note_off_c, 7, 75, 0
9, 168475, Note_on_c, 7, 68, 81
9, 168488, Note_off_c, 7, 72, 0
9, 168940, Note_on_c, 7, 67, 83
9, 168941, Note_off_c, 7, 68, 0
9, 169173, Note_on_c, 7, 58, 103
9, 169188, Note_off_c, 7, 67, 0
9, 169408, Note_on_c, 7, 63, 124
9, 169423, Note_off_c, 7, 58, 0
9, 169566, Note_off_c, 7, 63, 0
9, 169617, Note_on_c, 7, 67, 83
9, 169786, Note_off_c, 7, 67, 0
9, 169876, Note_on_c, 7, 70, 82
9, 170392, Note_off_c, 7, 70, 0
9, 171088, Note_on_c, 7, 58, 103
9, 171321, Note_on_c, 7, 63, 111
9, 171348, Note_off_c, 7, 58, 0
9, 171503, Note_off_c, 7, 63, 0
9, 171543, Note_on_c, 7, 67, 83
9, 171712, Note_off_c, 7, 67, 0
9, 171790, Note_on_c, 7, 70, 103
9, 172357, Note_off_c, 7, 70, 0
9, 173027, Note_on_c, 7, 58, 103
9, 173261, Note_off_c, 7, 58, 0
9, 173275, Note_on_c, 7, 63, 124
9, 173403, Note_off_c, 7, 63, 0
9, 173495, Note_on_c, 7, 67, 81
9, 173651, Note_off_c, 7, 67, 0
9, 173741, Note_on_c, 7, 70, 103
9, 174258, Note_off_c, 7, 70, 0
9, 174747, Note_on_c, 7, 75, 82
9, 175263, Note_off_c, 7, 75, 0
9, 175263, End_track
10, 0, Start_track
10, 0, Title_t, "Bassettsolo"
10, 0, MIDI_port, 0
10, 0, Channel_prefix, 8
10, 0, Control_c, 8, 7, 105
10, 0, Control_c, 8, 10, 82
10, 0, Control_c, 8, 0, 0
10, 0, Control_c, 8, 32, 0
10, 0, Control_c, 8, 93, 2
10, 0, Program_c, 8, 71
10, 24960, Note_on_c, 8, 72, 80
10, 25888, Note_off_c, 8, 72, 0
10, 25920, Note_on_c, 8, 60, 83
10, 26756, Note_off_c, 8, 60, 0
10, 26880, Note_on_c, 8, 77, 92
10, 27821, Note_off_c, 8, 77, 0
10, 27840, Note_on_c, 8, 50, 111
10, 28752, Note_off_c, 8, 50, 0
10, 28790, Note_on_c, 8, 51, 111
10, 29216, Note_off_c, 8, 51, 0
10, 29275, Note_on_c, 8, 75, 83
10, 29745, Note_on_c, 8, 74, 81
10, 29782, Note_off_c, 8, 75, 0
10, 29947, Note_on_c, 8, 72, 83
10, 29960, Note_off_c, 8, 74, 0
10, 30196, Note_on_c, 8, 70, 90
10, 30197, Note_off_c, 8, 72, 0
10, 30432, Note_on_c, 8, 68, 80
10, 30446, Note_off_c, 8, 70, 0
10, 30681, Note_on_c, 8, 67, 83
10, 30706, Note_off_c, 8, 68, 0
10, 30941, Note_on_c, 8, 68, 111
10, 30967, Note_off_c, 8, 67, 0
10, 31167, Note_on_c, 8, 69, 90
10, 31192, Note_off_c, 8, 68, 0
10, 31380, Note_on_c, 8, 70, 81
10, 31405, Note_off_c, 8, 69, 0
10, 31593, Note_off_c, 8, 70, 0
10, 31652, Note_on_c, 8, 70, 124
10, 31912, Note_on_c, 8, 68, 124
10, 31925, Note_off_c, 8, 70, 0
10, 32136, Note_on_c, 8, 67, 81
10, 32161, Note_off_c, 8, 68, 0
10, 32350, Note_on_c, 8, 65, 82
10, 32375, Note_off_c, 8, 67, 0
10, 32610, Note_on_c, 8, 63, 83
10, 32622, Note_off_c, 8, 65, 0
10, 33375, Note_off_c, 8, 63, 0
10, 34573, Note_on_c, 8, 55, 90
10, 34786, Note_off_c, 8, 55, 0
10, 34810, Note_on_c, 8, 58, 111
10, 35011, Note_off_c, 8, 58, 0
10, 35046, Note_on_c, 8, 63, 124
10, 35260, Note_off_c, 8, 63, 0
10, 35283, Note_on_c, 8, 67, 90
10, 35496, Note_off_c, 8, 67, 0
10, 35532, Note_on_c, 8, 68, 90
10, 36178, Note_off_c, 8, 68, 0
10, 36215, Note_on_c, 8, 62, 111
10, 36427, Note_off_c, 8, 62, 0
10, 36451, Note_on_c, 8, 65, 103
10, 36697, Note_on_c, 8, 63, 111
10, 36711, Note_off_c, 8, 65, 0
10, 36852, Note_off_c, 8, 63, 0
10, 36960, Note_on_c, 8, 63, 124
10, 37453, Note_off_c, 8, 63, 0
10, 38400, Control_c, 8, 32, 0
10, 38400, Control_c, 8, 0, 0
10, 38400, Program_c, 8, 71
10, 38451, Note_on_c, 8, 51, 124
10, 39216, Note_off_c, 8, 51, 0
10, 39307, Note_on_c, 8, 67, 103
10, 40213, Note_off_c, 8, 67, 0
10, 40266, Note_on_c, 8, 70, 111
10, 41067, Note_off_c, 8, 70, 0
10, 41246, Note_on_c, 8, 50, 124
10, 42202, Note_off_c, 8, 50, 0
10, 42215, Note_on_c, 8, 48, 111
10, 42941, Note_off_c, 8, 48, 0
10, 43158, Note_on_c, 8, 69, 124
10, 44062, Note_off_c, 8, 69, 0
10, 44113, Note_on_c, 8, 70, 124
10, 45095, Note_off_c, 8, 70, 0
10, 51858, Note_on_c, 8, 70, 124
10, 52737, Note_off_c, 8, 70, 0
10, 52788, Note_on_c, 8, 72, 103
10, 52916, Note_on_c, 8, 70, 124
10, 52931, Note_off_c, 8, 72, 0
10, 53020, Note_on_c, 8, 69, 90
10, 53046, Note_off_c, 8, 70, 0
10, 53123, Note_on_c, 8, 67, 103
10, 53150, Note_off_c, 8, 69, 0
10, 53202, Note_off_c, 8, 67, 0
10, 53253, Note_on_c, 8, 67, 103
10, 53368, Note_on_c, 8, 65, 83
10, 53382, Note_off_c, 8, 67, 0
10, 53473, Note_on_c, 8, 63, 103
10, 53487, Note_off_c, 8, 65, 0
10, 53563, Note_off_c, 8, 63, 0
10, 53590, Note_on_c, 8, 62, 103
10, 53693, Note_off_c, 8, 62, 0
10, 53732, Note_on_c, 8, 60, 83
10, 55640, Note_on_c, 8, 61, 111
10, 55667, Note_off_c, 8, 60, 0
10, 57537, Note_off_c, 8, 61, 0
10, 57588, Note_on_c, 8, 62, 111
10, 58021, Note_off_c, 8, 62, 0
10, 58047, Note_on_c, 8, 53, 103
10, 58520, Note_on_c, 8, 58, 125
10, 58521, Note_off_c, 8, 53, 0
10, 58967, Note_off_c, 8, 58, 0
10, 59006, Note_on_c, 8, 62, 111
10, 59452, Note_off_c, 8, 62, 0
10, 59478, Note_on_c, 8, 65, 90
10, 60446, Note_off_c, 8, 65, 0
10, 60460, Note_on_c, 8, 63, 124
10, 60511, Note_on_c, 8, 65, 90
10, 60525, Note_off_c, 8, 63, 0
10, 60576, Note_on_c, 8, 63, 124
10, 60590, Note_off_c, 8, 65, 0
10, 60641, Note_on_c, 8, 65, 90
10, 60643, Note_off_c, 8, 63, 0
10, 60695, Note_on_c, 8, 63, 111
10, 60707, Note_off_c, 8, 65, 0
10, 60747, Note_on_c, 8, 65, 103
10, 60748, Note_off_c, 8, 63, 0
10, 60787, Note_on_c, 8, 63, 103
10, 60801, Note_off_c, 8, 65, 0
10, 60840, Note_on_c, 8, 65, 103
10, 60841, Note_off_c, 8, 63, 0
10, 60880, Note_on_c, 8, 63, 103
10, 60892, Note_off_c, 8, 65, 0
10, 60932, Note_on_c, 8, 65, 90
10, 60933, Note_off_c, 8, 63, 0
10, 60972, Note_on_c, 8, 63, 90
10, 60973, Note_off_c, 8, 65, 0
10, 61012, Note_on_c, 8, 65, 103
10, 61027, Note_off_c, 8, 63, 0
10, 61053, Note_on_c, 8, 63, 83
10, 61067, Note_off_c, 8, 65, 0
10, 61080, Note_on_c, 8, 65, 90
10, 61096, Note_off_c, 8, 63, 0
10, 61122, Note_on_c, 8, 63, 82
10, 61136, Note_off_c, 8, 65, 0
10, 61162, Note_on_c, 8, 65, 66
10, 61190, Note_off_c, 8, 65, 0
10, 61278, Note_on_c, 8, 62, 82
10, 61280, Note_off_c, 8, 63, 0
10, 61331, Note_on_c, 8, 63, 103
10, 61345, Note_off_c, 8, 62, 0
10, 61396, Note_on_c, 8, 62, 83
10, 61397, Note_off_c, 8, 63, 0
10, 62148, Note_off_c, 8, 62, 0
10, 71036, Note_on_c, 8, 53, 109
10, 72933, Note_off_c, 8, 53, 0
10, 72960, Note_on_c, 8, 68, 111
10, 74840, Note_off_c, 8, 68, 0
10, 74872, Note_on_c, 8, 67, 104
10, 76235, Note_off_c, 8, 67, 0
10, 76300, Note_on_c, 8, 67, 111
10, 76401, Note_on_c, 8, 65, 103
10, 76441, Note_off_c, 8, 67, 0
10, 76517, Note_on_c, 8, 63, 124
10, 76532, Note_off_c, 8, 65, 0
10, 76635, Note_on_c, 8, 65, 103
10, 76648, Note_off_c, 8, 63, 0
10, 76776, Note_on_c, 8, 63, 124
10, 76815, Note_off_c, 8, 65, 0
10, 77897, Note_off_c, 8, 63, 0
10, 84508, Note_on_c, 8, 72, 111
10, 85401, Note_off_c, 8, 72, 0
10, 85452, Note_on_c, 8, 74, 83
10, 85555, Note_on_c, 8, 72, 90
10, 85581, Note_off_c, 8, 74, 0
10, 85645, Note_on_c, 8, 70, 111
10, 85672, Note_off_c, 8, 72, 0
10, 85748, Note_on_c, 8, 68, 111
10, 85775, Note_off_c, 8, 70, 0
10, 85827, Note_off_c, 8, 68, 0
10, 85877, Note_on_c, 8, 68, 90
10, 85918, Note_on_c, 8, 67, 14
10, 85933, Note_off_c, 8, 67, 0
10, 85996, Note_on_c, 8, 67, 81
10, 86011, Note_off_c, 8, 68, 0
10, 86116, Note_on_c, 8, 65, 103
10, 86130, Note_off_c, 8, 67, 0
10, 86206, Note_off_c, 8, 65, 0
10, 86220, Note_on_c, 8, 63, 111
10, 86323, Note_off_c, 8, 63, 0
10, 86348, Note_on_c, 8, 62, 103
10, 87342, Note_off_c, 8, 62, 0
10, 88795, Note_on_c, 8, 62, 111
10, 89203, Note_off_c, 8, 62, 0
10, 89242, Note_on_c, 8, 74, 103
10, 90426, Note_off_c, 8, 74, 0
10, 90465, Note_on_c, 8, 72, 111
10, 90695, Note_off_c, 8, 72, 0
10, 90708, Note_on_c, 8, 75, 103
10, 90926, Note_off_c, 8, 75, 0
10, 90938, Note_on_c, 8, 72, 90
10, 91131, Note_off_c, 8, 72, 0
10, 91170, Note_on_c, 8, 70, 111
10, 91616, Note_off_c, 8, 70, 0
10, 91667, Note_on_c, 8, 69, 111
10, 92127, Note_off_c, 8, 69, 0
10, 92166, Note_on_c, 8, 67, 103
10, 93108, Note_off_c, 8, 67, 0
10, 94073, Note_on_c, 8, 73, 111
10, 94650, Note_off_c, 8, 73, 0
10, 94725, Note_on_c, 8, 72, 103
10, 94917, Note_off_c, 8, 72, 0
10, 94995, Note_on_c, 8, 72, 83
10, 95708, Note_off_c, 8, 72, 0
10, 97882, Note_on_c, 8, 71, 124
10, 98571, Note_off_c, 8, 71, 0
10, 98610, Note_on_c, 8, 70, 124
10, 98738, Note_off_c, 8, 70, 0
10, 98852, Note_on_c, 8, 70, 124
10, 99732, Note_off_c, 8, 70, 0
10, 99840, Control_c, 8, 32, 0
10, 99840, Control_c, 8, 0, 0
10, 99840, Program_c, 8, 71
10, 117111, Note_on_c, 8, 72, 111
10, 118052, Note_on_c, 8, 60, 90
10, 118053, Note_off_c, 8, 72, 0
10, 119007, Note_off_c, 8, 60, 0
10, 119033, Note_on_c, 8, 77, 111
10, 119961, Note_off_c, 8, 77, 0
10, 119988, Note_on_c, 8, 50, 124
10, 120953, Note_on_c, 8, 51, 125
10, 120968, Note_off_c, 8, 50, 0
10, 121418, Note_off_c, 8, 51, 0
10, 121432, Note_on_c, 8, 75, 124
10, 121897, Note_off_c, 8, 75, 0
10, 121925, Note_on_c, 8, 74, 111
10, 122157, Note_on_c, 8, 72, 103
10, 122171, Note_off_c, 8, 74, 0
10, 122365, Note_on_c, 8, 70, 124
10, 122392, Note_off_c, 8, 72, 0
10, 122600, Note_on_c, 8, 68, 124
10, 122601, Note_off_c, 8, 70, 0
10, 122833, Note_on_c, 8, 67, 90
10, 122835, Note_off_c, 8, 68, 0
10, 123105, Note_on_c, 8, 68, 124
10, 123132, Note_off_c, 8, 67, 0
10, 123338, Note_on_c, 8, 69, 90
10, 123353, Note_off_c, 8, 68, 0
10, 123560, Note_on_c, 8, 70, 124
10, 123587, Note_off_c, 8, 69, 0
10, 123717, Note_off_c, 8, 70, 0
10, 123833, Note_on_c, 8, 70, 124
10, 124078, Note_on_c, 8, 68, 124
10, 124106, Note_off_c, 8, 70, 0
10, 124311, Note_on_c, 8, 67, 83
10, 124340, Note_off_c, 8, 68, 0
10, 124533, Note_off_c, 8, 67, 0
10, 124533, Note_on_c, 8, 65, 83
10, 124780, Note_on_c, 8, 63, 103
10, 124793, Note_off_c, 8, 65, 0
10, 125760, Note_off_c, 8, 63, 0
10, 126726, Note_on_c, 8, 55, 90
10, 126960, Note_on_c, 8, 58, 124
10, 126973, Note_off_c, 8, 55, 0
10, 127193, Note_on_c, 8, 63, 124
10, 127195, Note_off_c, 8, 58, 0
10, 127375, Note_off_c, 8, 63, 0
10, 127440, Note_on_c, 8, 67, 111
10, 127622, Note_off_c, 8, 67, 0
10, 127673, Note_on_c, 8, 68, 111
10, 127921, Control_c, 8, 1, 6
10, 127933, Control_c, 8, 1, 4
10, 127947, Control_c, 8, 1, 2
10, 127961, Control_c, 8, 1, 0
10, 128342, Note_off_c, 8, 68, 0
10, 128393, Note_on_c, 8, 62, 124
10, 128560, Note_off_c, 8, 62, 0
10, 128636, Note_on_c, 8, 65, 111
10, 128866, Note_on_c, 8, 63, 124
10, 128892, Note_off_c, 8, 65, 0
10, 129020, Note_off_c, 8, 63, 0
10, 129108, Note_on_c, 8, 63, 124
10, 129591, Note_off_c, 8, 63, 0
10, 130556, Note_on_c, 8, 51, 124
10, 131471, Note_off_c, 8, 51, 0
10, 131510, Note_on_c, 8, 67, 124
10, 132411, Note_off_c, 8, 67, 0
10, 132462, Note_on_c, 8, 68, 124
10, 133365, Note_off_c, 8, 68, 0
10, 133416, Note_on_c, 8, 48, 124
10, 134356, Note_off_c, 8, 48, 0
10, 134368, Note_on_c, 8, 46, 124
10, 135296, Note_off_c, 8, 46, 0
10, 135347, Note_on_c, 8, 73, 124
10, 136287, Note_off_c, 8, 73, 0
10, 136338, Note_on_c, 8, 72, 103
10, 137278, Note_off_c, 8, 72, 0
10, 144008, Note_on_c, 8, 63, 124
10, 144897, Note_off_c, 8, 63, 0
10, 144961, Note_on_c, 8, 65, 111
10, 145051, Note_on_c, 8, 63, 124
10, 145077, Note_off_c, 8, 65, 0
10, 145153, Note_on_c, 8, 62, 103
10, 145193, Note_off_c, 8, 63, 0
10, 145270, Note_on_c, 8, 60, 90
10, 145285, Note_off_c, 8, 62, 0
10, 145336, Note_off_c, 8, 60, 0
10, 145400, Note_on_c, 8, 60, 103
10, 145515, Note_on_c, 8, 58, 90
10, 145541, Note_off_c, 8, 60, 0
10, 145606, Note_off_c, 8, 58, 0
10, 145632, Note_on_c, 8, 56, 103
10, 145736, Note_off_c, 8, 56, 0
10, 145748, Note_on_c, 8, 55, 82
10, 145852, Note_off_c, 8, 55, 0
10, 145902, Note_on_c, 8, 53, 111
10, 146095, Control_c, 8, 32, 0
10, 146095, Control_c, 8, 0, 0
10, 146095, Program_c, 8, 71
10, 147793, Note_off_c, 8, 53, 0
10, 147832, Note_on_c, 8, 66, 124
10, 149712, Note_off_c, 8, 66, 0
10, 149787, Note_on_c, 8, 67, 90
10, 150956, Note_on_c, 8, 66, 124
10, 150957, Note_off_c, 8, 67, 0
10, 151173, Note_off_c, 8, 66, 0
10, 151187, Note_on_c, 8, 65, 83
10, 151266, Note_on_c, 8, 64, 35
10, 151370, Note_off_c, 8, 64, 0
10, 151370, Note_off_c, 8, 65, 0
10, 151433, Note_on_c, 8, 63, 103
10, 151447, Note_on_c, 8, 62, 56
10, 151516, Note_off_c, 8, 62, 0
10, 151543, Note_off_c, 8, 63, 0
10, 151645, Note_on_c, 8, 63, 111
10, 152852, Note_off_c, 8, 63, 0
10, 152866, Note_on_c, 8, 62, 81
10, 153095, Note_on_c, 8, 60, 66
10, 153122, Note_off_c, 8, 62, 0
10, 153338, Note_on_c, 8, 62, 73
10, 153365, Note_off_c, 8, 60, 0
10, 153520, Note_off_c, 8, 62, 0
10, 153583, Note_on_c, 8, 63, 83
10, 154522, Note_off_c, 8, 63, 0
10, 159406, Note_on_c, 8, 67, 103
10, 161308, Note_on_c, 8, 68, 111
10, 161322, Note_off_c, 8, 67, 0
10, 161781, Note_on_c, 8, 72, 90
10, 161795, Note_off_c, 8, 68, 0
10, 162238, Note_on_c, 8, 68, 111
10, 162266, Note_off_c, 8, 72, 0
10, 162700, Note_off_c, 8, 68, 0
10, 162712, Note_on_c, 8, 65, 90
10, 163171, Note_off_c, 8, 65, 0
10, 163171, Note_on_c, 8, 63, 90
10, 163807, Note_off_c, 8, 63, 0
10, 165140, Note_on_c, 8, 67, 90
10, 167056, Note_on_c, 8, 68, 111
10, 167083, Note_off_c, 8, 67, 0
10, 167553, Note_on_c, 8, 72, 81
10, 167567, Note_off_c, 8, 68, 0
10, 168011, Note_on_c, 8, 68, 111
10, 168026, Note_off_c, 8, 72, 0
10, 168457, Note_on_c, 8, 65, 83
10, 168472, Note_off_c, 8, 68, 0
10, 168930, Note_on_c, 8, 63, 103
10, 168958, Note_off_c, 8, 65, 0
10, 169148, Note_on_c, 8, 46, 90
10, 169328, Note_off_c, 8, 63, 0
10, 169368, Note_off_c, 8, 46, 0
10, 169395, Note_on_c, 8, 51, 83
10, 169573, Note_off_c, 8, 51, 0
10, 169625, Note_on_c, 8, 55, 81
10, 169805, Note_off_c, 8, 55, 0
10, 169868, Note_on_c, 8, 58, 82
10, 170441, Note_off_c, 8, 58, 0
10, 171088, Note_on_c, 8, 46, 103
10, 171318, Note_on_c, 8, 51, 90
10, 171332, Note_off_c, 8, 46, 0
10, 171422, Note_off_c, 8, 51, 0
10, 171550, Note_on_c, 8, 55, 82
10, 171690, Note_off_c, 8, 55, 0
10, 171792, Note_on_c, 8, 58, 82
10, 172365, Note_off_c, 8, 58, 0
10, 173025, Note_on_c, 8, 46, 103
10, 173255, Note_on_c, 8, 51, 81
10, 173270, Note_off_c, 8, 46, 0
10, 173385, Note_off_c, 8, 51, 0
10, 173498, Note_on_c, 8, 55, 80
10, 173640, Note_off_c, 8, 55, 0
10, 173742, Note_on_c, 8, 58, 80
10, 174238, Note_off_c, 8, 58, 0
10, 174733, Note_on_c, 8, 63, 80
10, 175280, Note_off_c, 8, 63, 0
10, 175280, End_track
11, 0, Start_track
11, 0, Title_t, "Kontrabas"
11, 0, MIDI_port, 0
11, 0, Channel_prefix, 11
11, 0, Control_c, 11, 7, 103
11, 0, Control_c, 11, 10, 51
11, 0, Control_c, 11, 0, 0
11, 0, Control_c, 11, 32, 0
11, 0, Control_c, 11, 93, 6
11, 0, Program_c, 11, 43
11, 0, Note_on_c, 11, 39, 80
11, 936, Note_on_c, 11, 43, 83
11, 971, Note_off_c, 11, 39, 0
11, 1908, Note_on_c, 11, 46, 81
11, 1933, Note_off_c, 11, 43, 0
11, 2860, Note_on_c, 11, 34, 83
11, 2873, Note_off_c, 11, 46, 0
11, 3717, Note_off_c, 11, 34, 0
11, 3800, Note_on_c, 11, 39, 83
11, 4303, Note_on_c, 11, 43, 90
11, 4317, Note_off_c, 11, 39, 0
11, 4775, Note_on_c, 11, 46, 72
11, 4800, Note_off_c, 11, 43, 0
11, 5268, Note_on_c, 11, 39, 81
11, 5328, Note_off_c, 11, 46, 0
11, 5752, Note_on_c, 11, 38, 73
11, 5765, Note_off_c, 11, 39, 0
11, 6211, Note_on_c, 11, 41, 83
11, 6235, Note_off_c, 11, 38, 0
11, 6692, Note_on_c, 11, 46, 80
11, 6706, Note_off_c, 11, 41, 0
11, 7175, Note_on_c, 11, 38, 82
11, 7211, Note_off_c, 11, 46, 0
11, 7668, Note_on_c, 11, 36, 80
11, 7693, Note_off_c, 11, 38, 0
11, 8173, Note_on_c, 11, 39, 90
11, 8198, Note_off_c, 11, 36, 0
11, 8645, Note_off_c, 11, 39, 0
11, 8645, Note_on_c, 11, 43, 82
11, 9127, Note_off_c, 11, 43, 0
11, 9127, Note_on_c, 11, 31, 103
11, 9585, Note_on_c, 11, 32, 82
11, 9610, Note_off_c, 11, 31, 0
11, 10068, Note_off_c, 11, 32, 0
11, 10068, Note_on_c, 11, 41, 73
11, 10515, Note_on_c, 11, 34, 90
11, 10540, Note_off_c, 11, 41, 0
11, 10996, Note_on_c, 11, 46, 80
11, 11010, Note_off_c, 11, 34, 0
11, 11421, Note_off_c, 11, 46, 0
11, 11515, Note_on_c, 11, 39, 83
11, 11972, Note_on_c, 11, 43, 90
11, 11997, Note_off_c, 11, 39, 0
11, 12443, Note_on_c, 11, 46, 80
11, 12467, Note_off_c, 11, 43, 0
11, 12925, Note_on_c, 11, 39, 66
11, 12973, Note_off_c, 11, 46, 0
11, 13408, Note_on_c, 11, 38, 73
11, 13433, Note_off_c, 11, 39, 0
11, 13890, Note_on_c, 11, 41, 83
11, 13926, Note_off_c, 11, 38, 0
11, 14372, Note_off_c, 11, 41, 0
11, 14372, Note_on_c, 11, 46, 90
11, 14853, Note_on_c, 11, 38, 82
11, 14878, Note_off_c, 11, 46, 0
11, 15323, Note_on_c, 11, 36, 72
11, 15350, Note_off_c, 11, 38, 0
11, 15841, Note_on_c, 11, 39, 103
11, 15880, Note_off_c, 11, 36, 0
11, 16313, Note_off_c, 11, 39, 0
11, 16313, Note_on_c, 11, 43, 80
11, 16783, Note_on_c, 11, 36, 80
11, 16871, Note_off_c, 11, 43, 0
11, 17257, Note_on_c, 11, 31, 83
11, 17258, Note_off_c, 11, 36, 0
11, 17728, Note_off_c, 11, 31, 0
11, 17728, Note_on_c, 11, 34, 83
11, 18187, Note_on_c, 11, 39, 66
11, 18200, Note_off_c, 11, 34, 0
11, 18692, Note_on_c, 11, 31, 83
11, 18730, Note_off_c, 11, 39, 0
11, 19200, Note_on_c, 11, 32, 103
11, 19201, Note_off_c, 11, 31, 0
11, 19680, Note_on_c, 11, 36, 82
11, 19707, Note_off_c, 11, 32, 0
11, 20040, Note_on_c, 11, 39, 82
11, 20176, Note_off_c, 11, 36, 0
11, 20520, Note_on_c, 11, 33, 82
11, 20535, Note_off_c, 11, 39, 0
11, 21000, Note_on_c, 11, 34, 81
11, 21027, Note_off_c, 11, 33, 0
11, 21480, Note_on_c, 11, 38, 81
11, 21507, Note_off_c, 11, 34, 0
11, 21951, Note_off_c, 11, 38, 0
11, 22080, Note_on_c, 11, 41, 73
11, 22527, Note_on_c, 11, 35, 81
11, 22576, Note_off_c, 11, 41, 0
11, 22920, Note_on_c, 11, 36, 82
11, 23046, Note_off_c, 11, 35, 0
11, 23400, Note_on_c, 11, 39, 90
11, 23427, Note_off_c, 11, 36, 0
11, 23882, Note_off_c, 11, 39, 0
11, 23973, Note_on_c, 11, 43, 81
11, 24443, Note_on_c, 11, 36, 81
11, 24481, Note_off_c, 11, 43, 0
11, 24940, Note_on_c, 11, 44, 82
11, 24941, Note_off_c, 11, 36, 0
11, 25421, Note_on_c, 11, 43, 80
11, 25422, Note_off_c, 11, 44, 0
11, 25915, Note_on_c, 11, 41, 81
11, 25928, Note_off_c, 11, 43, 0
11, 26397, Note_on_c, 11, 39, 103
11, 26422, Note_off_c, 11, 41, 0
11, 26880, Note_on_c, 11, 38, 73
11, 26892, Note_off_c, 11, 39, 0
11, 27350, Note_on_c, 11, 36, 82
11, 27386, Note_off_c, 11, 38, 0
11, 27832, Note_on_c, 11, 34, 90
11, 27857, Note_off_c, 11, 36, 0
11, 28302, Note_on_c, 11, 32, 83
11, 28315, Note_off_c, 11, 34, 0
11, 28772, Note_on_c, 11, 31, 82
11, 28785, Note_off_c, 11, 32, 0
11, 29243, Note_on_c, 11, 39, 73
11, 29256, Note_off_c, 11, 31, 0
11, 29736, Note_on_c, 11, 32, 83
11, 29761, Note_off_c, 11, 39, 0
11, 30218, Note_on_c, 11, 41, 83
11, 30221, Note_off_c, 11, 32, 0
11, 30712, Note_on_c, 11, 34, 83
11, 30725, Note_off_c, 11, 41, 0
11, 31171, Note_on_c, 11, 39, 81
11, 31196, Note_off_c, 11, 34, 0
11, 31630, Note_on_c, 11, 38, 80
11, 31643, Note_off_c, 11, 39, 0
11, 32146, Note_on_c, 11, 34, 81
11, 32171, Note_off_c, 11, 38, 0
11, 32653, Note_off_c, 11, 34, 0
11, 32653, Note_on_c, 11, 27, 83
11, 33133, Note_on_c, 11, 39, 82
11, 33158, Note_off_c, 11, 27, 0
11, 33605, Note_on_c, 11, 41, 81
11, 33630, Note_off_c, 11, 39, 0
11, 34098, Note_on_c, 11, 34, 82
11, 34135, Note_off_c, 11, 41, 0
11, 34593, Note_off_c, 11, 34, 0
11, 35015, Note_on_c, 11, 39, 90
11, 35472, Note_on_c, 11, 41, 83
11, 35497, Note_off_c, 11, 39, 0
11, 35822, Note_off_c, 11, 41, 0
11, 35967, Note_on_c, 11, 34, 83
11, 36382, Note_off_c, 11, 34, 0
11, 36960, Note_on_c, 11, 39, 103
11, 37430, Note_off_c, 11, 39, 0
11, 37465, Note_on_c, 11, 41, 81
11, 37842, Note_off_c, 11, 41, 0
11, 37958, Note_on_c, 11, 34, 100
11, 38322, Note_off_c, 11, 34, 80
11, 38412, Note_on_c, 11, 39, 111
11, 38878, Note_off_c, 11, 39, 0
11, 38880, Note_on_c, 11, 43, 90
11, 39316, Note_on_c, 11, 46, 124
11, 39361, Note_off_c, 11, 43, 0
11, 39808, Note_on_c, 11, 39, 124
11, 39810, Note_off_c, 11, 46, 0
11, 40276, Note_on_c, 11, 38, 90
11, 40305, Note_off_c, 11, 39, 0
11, 40757, Note_on_c, 11, 41, 90
11, 40785, Note_off_c, 11, 38, 0
11, 41237, Note_on_c, 11, 46, 124
11, 41265, Note_off_c, 11, 41, 0
11, 41718, Note_off_c, 11, 46, 0
11, 41732, Note_on_c, 11, 38, 82
11, 42197, Note_on_c, 11, 36, 103
11, 42200, Note_off_c, 11, 38, 0
11, 42678, Note_on_c, 11, 39, 103
11, 42706, Note_off_c, 11, 36, 0
11, 43158, Note_on_c, 11, 45, 90
11, 43173, Note_off_c, 11, 39, 0
11, 43652, Note_on_c, 11, 36, 82
11, 43666, Note_off_c, 11, 45, 0
11, 44120, Note_on_c, 11, 34, 103
11, 44121, Note_off_c, 11, 36, 0
11, 44612, Note_on_c, 11, 41, 82
11, 44615, Note_off_c, 11, 34, 0
11, 45067, Note_on_c, 11, 46, 83
11, 45095, Note_off_c, 11, 41, 0
11, 45573, Note_on_c, 11, 43, 83
11, 45601, Note_off_c, 11, 46, 0
11, 45990, Note_off_c, 11, 43, 0
11, 46067, Note_on_c, 11, 40, 90
11, 46560, Note_on_c, 11, 46, 111
11, 46575, Note_off_c, 11, 40, 0
11, 47002, Note_off_c, 11, 46, 0
11, 47053, Note_on_c, 11, 41, 111
11, 47508, Note_off_c, 11, 41, 0
11, 47521, Note_on_c, 11, 46, 111
11, 47948, Note_off_c, 11, 46, 0
11, 48002, Note_on_c, 11, 43, 103
11, 48493, Note_on_c, 11, 46, 111
11, 48521, Note_off_c, 11, 43, 0
11, 48936, Note_off_c, 11, 46, 0
11, 48975, Note_on_c, 11, 41, 83
11, 49441, Note_on_c, 11, 46, 83
11, 49482, Note_off_c, 11, 41, 0
11, 49883, Note_off_c, 11, 46, 0
11, 49948, Note_on_c, 11, 40, 90
11, 50416, Note_on_c, 11, 46, 111
11, 50443, Note_off_c, 11, 40, 0
11, 50846, Note_off_c, 11, 46, 0
11, 50897, Note_on_c, 11, 41, 103
11, 51365, Note_on_c, 11, 46, 81
11, 51420, Note_off_c, 11, 41, 0
11, 51782, Note_off_c, 11, 46, 0
11, 51835, Note_on_c, 11, 43, 83
11, 52313, Note_on_c, 11, 46, 83
11, 52356, Note_off_c, 11, 43, 0
11, 52757, Note_off_c, 11, 46, 0
11, 52796, Note_on_c, 11, 41, 103
11, 53250, Note_on_c, 11, 46, 83
11, 53291, Note_off_c, 11, 41, 0
11, 53501, Note_off_c, 11, 46, 0
11, 53722, Note_on_c, 11, 39, 83
11, 54201, Note_on_c, 11, 43, 103
11, 54228, Note_off_c, 11, 39, 0
11, 54682, Note_on_c, 11, 46, 90
11, 54710, Note_off_c, 11, 43, 0
11, 55137, Note_on_c, 11, 39, 81
11, 55151, Note_off_c, 11, 46, 0
11, 55643, Note_on_c, 11, 40, 82
11, 55657, Note_off_c, 11, 39, 0
11, 56123, Note_on_c, 11, 43, 82
11, 56151, Note_off_c, 11, 40, 0
11, 56605, Note_off_c, 11, 43, 0
11, 56618, Note_on_c, 11, 46, 90
11, 57072, Note_off_c, 11, 46, 0
11, 57098, Note_on_c, 11, 40, 82
11, 57578, Note_on_c, 11, 41, 82
11, 57593, Note_off_c, 11, 40, 0
11, 58060, Note_on_c, 11, 46, 111
11, 58075, Note_off_c, 11, 41, 0
11, 58516, Note_off_c, 11, 46, 0
11, 58528, Note_on_c, 11, 50, 90
11, 59008, Note_off_c, 11, 50, 0
11, 59035, Note_on_c, 11, 53, 90
11, 59502, Note_on_c, 11, 41, 83
11, 59503, Note_off_c, 11, 53, 0
11, 59956, Note_on_c, 11, 40, 83
11, 59983, Note_off_c, 11, 41, 0
11, 60437, Note_off_c, 11, 40, 0
11, 60490, Note_on_c, 11, 41, 80
11, 60933, Note_off_c, 11, 41, 0
11, 60961, Note_on_c, 11, 29, 73
11, 61393, Note_off_c, 11, 29, 0
11, 61458, Note_on_c, 11, 34, 83
11, 62365, Note_off_c, 11, 34, 0
11, 63360, Note_on_c, 11, 41, 82
11, 64177, Note_off_c, 11, 41, 0
11, 64320, Note_on_c, 11, 29, 80
11, 65085, Note_off_c, 11, 29, 0
11, 65266, Note_on_c, 11, 34, 81
11, 65746, Note_off_c, 11, 34, 0
11, 65760, Note_on_c, 11, 49, 81
11, 66201, Note_off_c, 11, 49, 0
11, 66241, Note_on_c, 11, 46, 83
11, 66695, Note_off_c, 11, 46, 0
11, 66722, Note_on_c, 11, 44, 83
11, 67176, Note_off_c, 11, 44, 0
11, 67188, Note_on_c, 11, 43, 81
11, 67642, Note_on_c, 11, 46, 82
11, 67671, Note_off_c, 11, 43, 0
11, 68125, Note_on_c, 11, 43, 80
11, 68126, Note_off_c, 11, 46, 0
11, 68605, Note_on_c, 11, 41, 80
11, 68618, Note_off_c, 11, 43, 0
11, 69086, Note_off_c, 11, 41, 0
11, 69100, Note_on_c, 11, 40, 80
11, 69578, Note_on_c, 11, 43, 81
11, 69593, Note_off_c, 11, 40, 0
11, 70061, Note_off_c, 11, 43, 0
11, 70061, Note_on_c, 11, 36, 73
11, 70555, Note_off_c, 11, 36, 0
11, 70567, Note_on_c, 11, 40, 80
11, 71021, Note_off_c, 11, 40, 0
11, 71036, Note_on_c, 11, 41, 72
11, 71515, Note_on_c, 11, 44, 80
11, 71542, Note_off_c, 11, 41, 0
11, 71932, Control_c, 11, 1, 37
11, 71983, Note_on_c, 11, 41, 66
11, 71998, Note_off_c, 11, 44, 0
11, 72463, Note_on_c, 11, 39, 65
11, 72492, Note_off_c, 11, 41, 0
11, 72947, Control_c, 11, 1, 29
11, 72961, Control_c, 11, 1, 21
11, 72972, Note_on_c, 11, 37, 72
11, 72976, Control_c, 11, 1, 12
11, 72988, Note_off_c, 11, 39, 0
11, 72991, Control_c, 11, 1, 6
11, 73005, Control_c, 11, 1, 2
11, 73017, Control_c, 11, 1, 0
11, 73461, Note_on_c, 11, 41, 82
11, 73475, Note_off_c, 11, 37, 0
11, 73946, Note_on_c, 11, 37, 73
11, 73960, Note_off_c, 11, 41, 0
11, 74417, Note_on_c, 11, 36, 73
11, 74431, Note_off_c, 11, 37, 0
11, 74890, Note_on_c, 11, 35, 80
11, 74891, Note_off_c, 11, 36, 0
11, 75361, Note_on_c, 11, 38, 81
11, 75362, Note_off_c, 11, 35, 0
11, 75821, Note_off_c, 11, 38, 0
11, 75833, Note_on_c, 11, 31, 83
11, 76331, Note_off_c, 11, 31, 0
11, 76343, Note_on_c, 11, 35, 82
11, 76740, Note_off_c, 11, 35, 0
11, 76791, Note_on_c, 11, 36, 82
11, 77275, Note_on_c, 11, 48, 83
11, 77290, Note_off_c, 11, 36, 0
11, 77760, Note_on_c, 11, 44, 80
11, 77761, Note_off_c, 11, 48, 0
11, 78202, Note_off_c, 11, 44, 0
11, 78228, Note_on_c, 11, 43, 83
11, 78712, Note_off_c, 11, 43, 0
11, 78726, Note_on_c, 11, 42, 81
11, 79210, Note_on_c, 11, 48, 81
11, 79211, Note_off_c, 11, 42, 0
11, 79681, Note_off_c, 11, 48, 0
11, 79695, Note_on_c, 11, 43, 81
11, 80178, Note_off_c, 11, 43, 0
11, 80192, Note_on_c, 11, 48, 66
11, 80640, Note_on_c, 11, 44, 73
11, 80662, Note_off_c, 11, 48, 0
11, 81094, Note_off_c, 11, 44, 0
11, 81111, Note_on_c, 11, 48, 80
11, 81595, Note_off_c, 11, 48, 0
11, 81608, Note_on_c, 11, 43, 83
11, 82080, Note_on_c, 11, 48, 73
11, 82093, Note_off_c, 11, 43, 0
11, 82501, Note_off_c, 11, 48, 0
11, 82540, Note_on_c, 11, 42, 90
11, 83023, Note_off_c, 11, 42, 0
11, 83023, Note_on_c, 11, 48, 80
11, 83482, Note_off_c, 11, 48, 0
11, 83521, Note_on_c, 11, 43, 83
11, 84017, Note_on_c, 11, 48, 73
11, 84045, Note_off_c, 11, 43, 0
11, 84452, Note_off_c, 11, 48, 0
11, 84491, Note_on_c, 11, 44, 83
11, 84961, Note_on_c, 11, 48, 80
11, 84988, Note_off_c, 11, 44, 0
11, 85407, Note_off_c, 11, 48, 0
11, 85435, Note_on_c, 11, 43, 81
11, 85892, Note_on_c, 11, 48, 63
11, 85945, Note_off_c, 11, 43, 0
11, 86327, Note_off_c, 11, 48, 0
11, 86366, Note_on_c, 11, 42, 82
11, 86862, Note_on_c, 11, 48, 63
11, 86902, Note_off_c, 11, 42, 0
11, 87296, Note_off_c, 11, 48, 0
11, 87335, Note_on_c, 11, 43, 82
11, 87845, Note_on_c, 11, 48, 72
11, 87872, Note_off_c, 11, 43, 0
11, 88292, Note_off_c, 11, 48, 0
11, 88318, Note_on_c, 11, 45, 82
11, 88776, Note_on_c, 11, 50, 81
11, 88777, Note_off_c, 11, 45, 0
11, 89260, Note_off_c, 11, 50, 0
11, 89286, Note_on_c, 11, 46, 103
11, 89783, Note_off_c, 11, 46, 0
11, 89783, Note_on_c, 11, 50, 73
11, 90205, Note_off_c, 11, 50, 0
11, 90242, Note_on_c, 11, 48, 83
11, 90713, Note_off_c, 11, 48, 0
11, 90726, Note_on_c, 11, 45, 82
11, 91158, Note_off_c, 11, 45, 0
11, 91210, Note_on_c, 11, 50, 90
11, 91695, Note_off_c, 11, 50, 0
11, 91708, Note_on_c, 11, 38, 83
11, 92078, Note_off_c, 11, 38, 0
11, 92167, Note_on_c, 11, 43, 83
11, 92588, Note_off_c, 11, 43, 0
11, 92626, Note_on_c, 11, 46, 111
11, 93071, Note_off_c, 11, 46, 0
11, 93110, Note_on_c, 11, 49, 80
11, 93556, Note_off_c, 11, 49, 0
11, 93582, Note_on_c, 11, 41, 81
11, 94065, Note_on_c, 11, 40, 82
11, 94067, Note_off_c, 11, 41, 0
11, 94500, Note_off_c, 11, 40, 0
11, 94526, Note_on_c, 11, 43, 81
11, 94996, Note_on_c, 11, 46, 73
11, 94997, Note_off_c, 11, 43, 0
11, 95456, Note_off_c, 11, 46, 0
11, 95482, Note_on_c, 11, 40, 80
11, 95915, Note_off_c, 11, 40, 0
11, 95980, Note_on_c, 11, 41, 82
11, 96463, Note_off_c, 11, 41, 0
11, 96463, Note_on_c, 11, 44, 82
11, 96936, Note_on_c, 11, 47, 83
11, 96951, Note_off_c, 11, 44, 0
11, 97383, Note_off_c, 11, 47, 0
11, 97410, Note_on_c, 11, 39, 83
11, 97893, Note_on_c, 11, 38, 80
11, 97895, Note_off_c, 11, 39, 0
11, 98377, Note_on_c, 11, 41, 82
11, 98392, Note_off_c, 11, 38, 0
11, 98862, Note_on_c, 11, 44, 83
11, 98877, Note_off_c, 11, 41, 0
11, 99312, Note_off_c, 11, 44, 0
11, 99326, Note_on_c, 11, 38, 72
11, 99772, Note_off_c, 11, 38, 0
11, 99827, Note_on_c, 11, 39, 124
11, 99840, Control_c, 11, 0, 0
11, 99840, Control_c, 11, 32, 0
11, 99840, Program_c, 11, 43
11, 100297, Note_off_c, 11, 39, 0
11, 100352, Note_on_c, 11, 43, 83
11, 100843, Note_on_c, 11, 46, 83
11, 100883, Note_off_c, 11, 43, 0
11, 101267, Note_on_c, 11, 39, 103
11, 101337, Note_off_c, 11, 46, 0
11, 101748, Note_off_c, 11, 39, 0
11, 101760, Note_on_c, 11, 38, 90
11, 102251, Note_off_c, 11, 38, 0
11, 102295, Note_on_c, 11, 41, 83
11, 102748, Note_on_c, 11, 46, 90
11, 102775, Note_off_c, 11, 41, 0
11, 103230, Note_on_c, 11, 38, 82
11, 103231, Note_off_c, 11, 46, 0
11, 103657, Note_off_c, 11, 38, 0
11, 103696, Note_on_c, 11, 39, 124
11, 104173, Note_on_c, 11, 43, 82
11, 104188, Note_off_c, 11, 39, 0
11, 104640, Note_on_c, 11, 46, 103
11, 104693, Note_off_c, 11, 43, 0
11, 105120, Note_on_c, 11, 39, 111
11, 105121, Note_off_c, 11, 46, 0
11, 105637, Note_on_c, 11, 38, 82
11, 105638, Note_off_c, 11, 39, 0
11, 106103, Note_on_c, 11, 41, 82
11, 106130, Note_off_c, 11, 38, 0
11, 106582, Note_on_c, 11, 46, 90
11, 106610, Note_off_c, 11, 41, 0
11, 107087, Note_off_c, 11, 46, 0
11, 107087, Note_on_c, 11, 38, 90
11, 107540, Note_off_c, 11, 38, 0
11, 107567, Note_on_c, 11, 36, 82
11, 108018, Note_on_c, 11, 39, 111
11, 108047, Note_off_c, 11, 36, 0
11, 108498, Note_on_c, 11, 43, 82
11, 108526, Note_off_c, 11, 39, 0
11, 108963, Note_on_c, 11, 36, 90
11, 108978, Note_off_c, 11, 43, 0
11, 109405, Note_off_c, 11, 36, 0
11, 109457, Note_on_c, 11, 31, 90
11, 109935, Note_on_c, 11, 34, 111
11, 109975, Note_off_c, 11, 31, 0
11, 110401, Note_on_c, 11, 39, 111
11, 110415, Note_off_c, 11, 34, 0
11, 110830, Note_off_c, 11, 39, 0
11, 110882, Note_on_c, 11, 31, 90
11, 111360, Note_off_c, 11, 31, 0
11, 111373, Note_on_c, 11, 32, 124
11, 111838, Note_off_c, 11, 32, 0
11, 111878, Note_on_c, 11, 36, 82
11, 112343, Note_off_c, 11, 36, 0
11, 112343, Note_on_c, 11, 39, 90
11, 112835, Note_on_c, 11, 33, 103
11, 112836, Note_off_c, 11, 39, 0
11, 113288, Note_off_c, 11, 33, 0
11, 113302, Note_on_c, 11, 34, 111
11, 113767, Note_off_c, 11, 34, 0
11, 113780, Note_on_c, 11, 38, 90
11, 114246, Note_off_c, 11, 38, 0
11, 114258, Note_on_c, 11, 41, 83
11, 114740, Note_off_c, 11, 41, 0
11, 114740, Note_on_c, 11, 35, 103
11, 115217, Note_on_c, 11, 36, 82
11, 115218, Note_off_c, 11, 35, 0
11, 115711, Note_off_c, 11, 36, 0
11, 115711, Note_on_c, 11, 39, 124
11, 116188, Note_on_c, 11, 43, 82
11, 116203, Note_off_c, 11, 39, 0
11, 116617, Note_off_c, 11, 43, 0
11, 116656, Note_on_c, 11, 36, 90
11, 117135, Note_off_c, 11, 36, 0
11, 117147, Note_on_c, 11, 44, 111
11, 117625, Note_on_c, 11, 43, 90
11, 117653, Note_off_c, 11, 44, 0
11, 118092, Note_on_c, 11, 41, 103
11, 118120, Note_off_c, 11, 43, 0
11, 118558, Note_on_c, 11, 39, 111
11, 118585, Note_off_c, 11, 41, 0
11, 119048, Note_on_c, 11, 38, 103
11, 119077, Note_off_c, 11, 39, 0
11, 119541, Note_on_c, 11, 36, 90
11, 119542, Note_off_c, 11, 38, 0
11, 120020, Note_on_c, 11, 34, 111
11, 120048, Note_off_c, 11, 36, 0
11, 120501, Note_off_c, 11, 34, 0
11, 120515, Note_on_c, 11, 32, 111
11, 120992, Note_on_c, 11, 31, 90
11, 120993, Note_off_c, 11, 32, 0
11, 121470, Note_on_c, 11, 39, 111
11, 121526, Note_off_c, 11, 31, 0
11, 121926, Note_off_c, 11, 39, 0
11, 121952, Note_on_c, 11, 32, 111
11, 122443, Note_on_c, 11, 41, 82
11, 122445, Note_off_c, 11, 32, 0
11, 122898, Note_off_c, 11, 41, 0
11, 122911, Note_on_c, 11, 34, 111
11, 123388, Note_on_c, 11, 39, 103
11, 123403, Note_off_c, 11, 34, 0
11, 123828, Note_on_c, 11, 38, 80
11, 123870, Note_off_c, 11, 39, 0
11, 124360, Note_on_c, 11, 34, 103
11, 124375, Note_off_c, 11, 38, 0
11, 124786, Note_off_c, 11, 34, 0
11, 124863, Note_on_c, 11, 27, 111
11, 125263, Note_off_c, 11, 27, 0
11, 125355, Note_on_c, 11, 39, 124
11, 125820, Note_on_c, 11, 41, 83
11, 125847, Note_off_c, 11, 39, 0
11, 126286, Note_on_c, 11, 34, 90
11, 126287, Note_off_c, 11, 41, 0
11, 126713, Note_off_c, 11, 34, 0
11, 127217, Note_on_c, 11, 39, 124
11, 127670, Note_off_c, 11, 39, 0
11, 127696, Note_on_c, 11, 41, 90
11, 128186, Note_on_c, 11, 34, 82
11, 128201, Note_off_c, 11, 41, 0
11, 128678, Note_off_c, 11, 34, 0
11, 129156, Note_on_c, 11, 39, 111
11, 129633, Note_on_c, 11, 41, 81
11, 129676, Note_off_c, 11, 39, 0
11, 130101, Note_on_c, 11, 34, 73
11, 130128, Note_off_c, 11, 41, 0
11, 130542, Note_off_c, 11, 34, 0
11, 130581, Note_on_c, 11, 39, 103
11, 131058, Note_on_c, 11, 43, 90
11, 131086, Note_off_c, 11, 39, 0
11, 131550, Note_on_c, 11, 46, 90
11, 131565, Note_off_c, 11, 43, 0
11, 132017, Note_off_c, 11, 46, 0
11, 132017, Note_on_c, 11, 37, 103
11, 132482, Note_on_c, 11, 36, 82
11, 132483, Note_off_c, 11, 37, 0
11, 132987, Note_on_c, 11, 39, 111
11, 133053, Note_off_c, 11, 36, 0
11, 133453, Note_on_c, 11, 44, 103
11, 133480, Note_off_c, 11, 39, 0
11, 133932, Note_on_c, 11, 36, 82
11, 133933, Note_off_c, 11, 44, 0
11, 134386, Note_off_c, 11, 36, 0
11, 134412, Note_on_c, 11, 34, 111
11, 134915, Note_on_c, 11, 37, 90
11, 134930, Note_off_c, 11, 34, 0
11, 135381, Note_on_c, 11, 43, 90
11, 135408, Note_off_c, 11, 37, 0
11, 135886, Note_on_c, 11, 34, 111
11, 135926, Note_off_c, 11, 43, 0
11, 136352, Note_on_c, 11, 32, 83
11, 136353, Note_off_c, 11, 34, 0
11, 136805, Note_on_c, 11, 39, 73
11, 136832, Note_off_c, 11, 32, 0
11, 137285, Note_off_c, 11, 39, 0
11, 137285, Note_on_c, 11, 36, 81
11, 137781, Note_on_c, 11, 34, 82
11, 137810, Note_off_c, 11, 36, 0
11, 138263, Note_off_c, 11, 34, 0
11, 138276, Note_on_c, 11, 33, 103
11, 138752, Note_on_c, 11, 39, 83
11, 138781, Note_off_c, 11, 33, 0
11, 139245, Note_on_c, 11, 34, 111
11, 139272, Note_off_c, 11, 39, 0
11, 139736, Note_on_c, 11, 39, 103
11, 139751, Note_off_c, 11, 34, 0
11, 140230, Note_on_c, 11, 36, 103
11, 140243, Note_off_c, 11, 39, 0
11, 140695, Note_on_c, 11, 39, 111
11, 140722, Note_off_c, 11, 36, 0
11, 141161, Note_off_c, 11, 39, 0
11, 141175, Note_on_c, 11, 34, 124
11, 141640, Note_on_c, 11, 39, 111
11, 141641, Note_off_c, 11, 34, 0
11, 142118, Note_off_c, 11, 39, 0
11, 142132, Note_on_c, 11, 33, 124
11, 142608, Note_on_c, 11, 39, 90
11, 142650, Note_off_c, 11, 33, 0
11, 143062, Note_on_c, 11, 34, 111
11, 143063, Note_off_c, 11, 39, 0
11, 143541, Note_on_c, 11, 39, 83
11, 143568, Note_off_c, 11, 34, 0
11, 144021, Note_off_c, 11, 39, 0
11, 144035, Note_on_c, 11, 36, 90
11, 144526, Note_on_c, 11, 39, 103
11, 144552, Note_off_c, 11, 36, 0
11, 145005, Note_off_c, 11, 39, 0
11, 145017, Note_on_c, 11, 34, 124
11, 145482, Note_on_c, 11, 39, 103
11, 145497, Note_off_c, 11, 34, 0
11, 145937, Note_off_c, 11, 39, 0
11, 145963, Note_on_c, 11, 32, 111
11, 146416, Note_on_c, 11, 36, 81
11, 146442, Note_off_c, 11, 32, 0
11, 146881, Note_on_c, 11, 39, 82
11, 146922, Note_off_c, 11, 36, 0
11, 147348, Note_off_c, 11, 39, 0
11, 147361, Note_on_c, 11, 32, 111
11, 147865, Note_off_c, 11, 32, 0
11, 147878, Note_on_c, 11, 33, 103
11, 148360, Note_on_c, 11, 36, 103
11, 148361, Note_off_c, 11, 33, 0
11, 148825, Note_on_c, 11, 39, 103
11, 148840, Note_off_c, 11, 36, 0
11, 149317, Note_on_c, 11, 33, 83
11, 149318, Note_off_c, 11, 39, 0
11, 149783, Note_off_c, 11, 33, 0
11, 149797, Note_on_c, 11, 34, 124
11, 150275, Note_on_c, 11, 39, 81
11, 150291, Note_off_c, 11, 34, 0
11, 150741, Note_on_c, 11, 43, 83
11, 150756, Note_off_c, 11, 39, 0
11, 151258, Note_on_c, 11, 46, 90
11, 151286, Note_off_c, 11, 43, 0
11, 151751, Note_on_c, 11, 34, 83
11, 151777, Note_off_c, 11, 46, 0
11, 152216, Note_on_c, 11, 33, 82
11, 152231, Note_off_c, 11, 34, 0
11, 152681, Note_on_c, 11, 34, 90
11, 152710, Note_off_c, 11, 33, 0
11, 153046, Note_off_c, 11, 34, 0
11, 153176, Note_on_c, 11, 34, 103
11, 153551, Note_off_c, 11, 34, 0
11, 153653, Note_on_c, 11, 39, 103
11, 154621, Note_off_c, 11, 39, 0
11, 155548, Note_on_c, 11, 46, 111
11, 156503, Note_off_c, 11, 46, 0
11, 156517, Note_on_c, 11, 34, 103
11, 157356, Note_off_c, 11, 34, 0
11, 157460, Note_on_c, 11, 39, 66
11, 157848, Note_off_c, 11, 39, 0
11, 157965, Note_on_c, 11, 39, 111
11, 158262, Note_off_c, 11, 39, 0
11, 158468, Note_on_c, 11, 39, 90
11, 158741, Note_off_c, 11, 39, 0
11, 158935, Note_on_c, 11, 39, 103
11, 159195, Note_off_c, 11, 39, 0
11, 159415, Note_on_c, 11, 39, 111
11, 159701, Note_off_c, 11, 39, 0
11, 159933, Note_on_c, 11, 39, 103
11, 160168, Note_off_c, 11, 39, 0
11, 160376, Note_on_c, 11, 39, 90
11, 160648, Note_off_c, 11, 39, 0
11, 160841, Note_on_c, 11, 39, 111
11, 161153, Note_off_c, 11, 39, 0
11, 161322, Note_on_c, 11, 39, 103
11, 161632, Note_off_c, 11, 39, 0
11, 161787, Note_on_c, 11, 39, 103
11, 162047, Note_off_c, 11, 39, 0
11, 162241, Note_on_c, 11, 39, 90
11, 162527, Note_off_c, 11, 39, 0
11, 162733, Note_on_c, 11, 39, 83
11, 162967, Note_off_c, 11, 39, 0
11, 163212, Note_on_c, 11, 39, 90
11, 163576, Note_off_c, 11, 39, 0
11, 163731, Note_on_c, 11, 39, 103
11, 164042, Note_off_c, 11, 39, 0
11, 164197, Note_on_c, 11, 39, 103
11, 164523, Note_off_c, 11, 39, 0
11, 164678, Note_on_c, 11, 39, 90
11, 164963, Note_off_c, 11, 39, 0
11, 165157, Note_on_c, 11, 39, 90
11, 165456, Note_off_c, 11, 39, 0
11, 165625, Note_on_c, 11, 39, 103
11, 165885, Note_off_c, 11, 39, 0
11, 166130, Note_on_c, 11, 39, 90
11, 166416, Note_off_c, 11, 39, 0
11, 166610, Note_on_c, 11, 39, 103
11, 166870, Note_off_c, 11, 39, 0
11, 167076, Note_on_c, 11, 39, 103
11, 167400, Note_off_c, 11, 39, 0
11, 167568, Note_on_c, 11, 39, 90
11, 167828, Note_off_c, 11, 39, 0
11, 168035, Note_on_c, 11, 39, 83
11, 168320, Note_off_c, 11, 39, 0
11, 168513, Note_on_c, 11, 39, 90
11, 168787, Note_off_c, 11, 39, 0
11, 168993, Note_on_c, 11, 39, 83
11, 169433, Note_off_c, 11, 39, 0
11, 169923, Note_on_c, 11, 46, 111
11, 170890, Note_on_c, 11, 39, 82
11, 170905, Note_off_c, 11, 46, 0
11, 171305, Note_off_c, 11, 39, 0
11, 171858, Note_on_c, 11, 46, 103
11, 172800, Note_on_c, 11, 39, 80
11, 172815, Note_off_c, 11, 46, 0
11, 173292, Note_off_c, 11, 39, 0
11, 173796, Note_on_c, 11, 34, 82
11, 174776, Note_on_c, 11, 27, 80
11, 174803, Note_off_c, 11, 34, 0
11, 175256, Note_off_c, 11, 27, 0
11, 175256, End_track
12, 0, Start_track
12, 0, Title_t, "MOZART: SERENADE"
12, 0, MIDI_port, 0
12, 0, End_track
13, 0, Start_track
13, 0, Title_t, "for 12 wind instruments"
13, 0, MIDI_port, 0
13, 0, End_track
14, 0, Start_track
14, 0, Title_t, "and double bass"
14, 0, MIDI_port, 0
14, 0, End_track
15, 0, Start_track
15, 0, Title_t, "Bb major,  Koechel 361"
15, 0, MIDI_port, 0
15, 0, End_track
16, 0, Start_track
16, 0, Title_t, "3rd movement, Adagio"
16, 0, MIDI_port, 0
16, 0, End_track
17, 0, Start_track
17, 0, Title_t, "by Goran Martling"
17, 0, MIDI_port, 0
17, 0, End_track
18, 0, Start_track
18, 0, Title_t, "Enskede, Sweden"
18, 0, MIDI_port, 0
18, 0, End_track
19, 0, Start_track
19, 0, Title_t, "May 1998."
19, 0, MIDI_port, 0
19, 0, End_track
0, 0, End_of_file