0, 0, Header, 1, 4, 120
1, 0, Start_track
1, 0, Title_t, "March in G"
1, 0, Title_t, "The Chelsea Notebook"
1, 0, Text_t, "Composed by Wolfgang Amadeus Mozart (1756-1791)\012"
1, 0, Text_t, "Programmed for MIDI by Lory Werths\012"
1, 0, Text_t, "Composed in 1764 at the age of 8.\012"
1, 0, Time_signature, 2, 2, 24, 8
1, 0, Key_signature, 1, "major"
1, 0, Tempo, 521739
1, 1920, Tempo, 521739
1, 1920, End_track
2, 0, Start_track
2, 0, Control_c, 0, 0, 0
2, 0, Control_c, 0, 32, 0
2, 0, Program_c, 0, 0
2, 0, Control_c, 0, 7, 105
2, 0, Control_c, 0, 10, 32
2, 0, Note_on_c, 0, 79, 100
2, 0, Note_on_c, 0, 71, 100
2, 119, Note_on_c, 0, 71, 0
2, 119, Note_on_c, 0, 79, 0
2, 120, Note_on_c, 0, 79, 100
2, 149, Note_on_c, 0, 79, 0
2, 150, Note_on_c, 0, 78, 100
2, 179, Note_on_c, 0, 78, 0
2, 180, Note_on_c, 0, 76, 100
2, 209, Note_on_c, 0, 76, 0
2, 210, Note_on_c, 0, 74, 100
2, 239, Note_on_c, 0, 74, 0
2, 240, Note_on_c, 0, 79, 100
2, 299, Note_on_c, 0, 79, 0
2, 300, Note_on_c, 0, 74, 100
2, 359, Note_on_c, 0, 74, 0
2, 360, Note_on_c, 0, 71, 100
2, 419, Note_on_c, 0, 71, 0
2, 420, Note_on_c, 0, 67, 100
2, 479, Note_on_c, 0, 67, 0
2, 480, Note_on_c, 0, 76, 100
2, 480, Note_on_c, 0, 72, 100
2, 599, Note_on_c, 0, 72, 0
2, 599, Note_on_c, 0, 76, 0
2, 600, Note_on_c, 0, 78, 100
2, 600, Note_on_c, 0, 69, 100
2, 719, Note_on_c, 0, 69, 0
2, 719, Note_on_c, 0, 78, 0
2, 720, Note_on_c, 0, 79, 100
2, 720, Note_on_c, 0, 71, 100
2, 779, Note_on_c, 0, 71, 0
2, 779, Note_on_c, 0, 79, 0
2, 780, Note_on_c, 0, 74, 100
2, 839, Note_on_c, 0, 74, 0
2, 840, Note_on_c, 0, 71, 100
2, 899, Note_on_c, 0, 71, 0
2, 900, Note_on_c, 0, 67, 100
2, 959, Note_on_c, 0, 67, 0
2, 960, Note_on_c, 0, 81, 100
2, 989, Note_on_c, 0, 81, 0
2, 990, Note_on_c, 0, 79, 100
2, 1019, Note_on_c, 0, 79, 0
2, 1020, Note_on_c, 0, 81, 100
2, 1049, Note_on_c, 0, 81, 0
2, 1050, Note_on_c, 0, 83, 100
2, 1079, Note_on_c, 0, 83, 0
2, 1080, Note_on_c, 0, 81, 100
2, 1105, Note_on_c, 0, 81, 0
2, 1140, Note_on_c, 0, 83, 100
2, 1165, Note_on_c, 0, 83, 0
2, 1200, Note_on_c, 0, 81, 100
2, 1229, Note_on_c, 0, 81, 0
2, 1230, Note_on_c, 0, 79, 100
2, 1259, Note_on_c, 0, 79, 0
2, 1260, Note_on_c, 0, 81, 100
2, 1289, Note_on_c, 0, 81, 0
2, 1290, Note_on_c, 0, 83, 100
2, 1319, Note_on_c, 0, 83, 0
2, 1320, Note_on_c, 0, 81, 100
2, 1345, Note_on_c, 0, 81, 0
2, 1380, Note_on_c, 0, 83, 100
2, 1405, Note_on_c, 0, 83, 0
2, 1440, Note_on_c, 0, 81, 100
2, 1529, Note_on_c, 0, 81, 0
2, 1530, Note_on_c, 0, 79, 100
2, 1559, Note_on_c, 0, 79, 0
2, 1560, Note_on_c, 0, 78, 100
2, 1619, Note_on_c, 0, 78, 0
2, 1620, Note_on_c, 0, 76, 100
2, 1679, Note_on_c, 0, 76, 0
2, 1680, Note_on_c, 0, 74, 100
2, 1799, Note_on_c, 0, 74, 0
2, 1800, Note_on_c, 0, 74, 100
2, 1919, Note_on_c, 0, 74, 0
2, 1920, Note_on_c, 0, 79, 100
2, 1920, Note_on_c, 0, 71, 100
2, 2039, Note_on_c, 0, 71, 0
2, 2039, Note_on_c, 0, 79, 0
2, 2040, Note_on_c, 0, 79, 100
2, 2069, Note_on_c, 0, 79, 0
2, 2070, Note_on_c, 0, 78, 100
2, 2099, Note_on_c, 0, 78, 0
2, 2100, Note_on_c, 0, 76, 100
2, 2129, Note_on_c, 0, 76, 0
2, 2130, Note_on_c, 0, 74, 100
2, 2159, Note_on_c, 0, 74, 0
2, 2160, Note_on_c, 0, 79, 100
2, 2219, Note_on_c, 0, 79, 0
2, 2220, Note_on_c, 0, 74, 100
2, 2279, Note_on_c, 0, 74, 0
2, 2280, Note_on_c, 0, 71, 100
2, 2339, Note_on_c, 0, 71, 0
2, 2340, Note_on_c, 0, 67, 100
2, 2399, Note_on_c, 0, 67, 0
2, 2400, Note_on_c, 0, 76, 100
2, 2400, Note_on_c, 0, 72, 100
2, 2519, Note_on_c, 0, 72, 0
2, 2519, Note_on_c, 0, 76, 0
2, 2520, Note_on_c, 0, 78, 100
2, 2520, Note_on_c, 0, 69, 100
2, 2639, Note_on_c, 0, 69, 0
2, 2639, Note_on_c, 0, 78, 0
2, 2640, Note_on_c, 0, 79, 100
2, 2640, Note_on_c, 0, 71, 100
2, 2699, Note_on_c, 0, 71, 0
2, 2699, Note_on_c, 0, 79, 0
2, 2700, Note_on_c, 0, 74, 100
2, 2759, Note_on_c, 0, 74, 0
2, 2760, Note_on_c, 0, 71, 100
2, 2819, Note_on_c, 0, 71, 0
2, 2820, Note_on_c, 0, 67, 100
2, 2879, Note_on_c, 0, 67, 0
2, 2880, Note_on_c, 0, 81, 100
2, 2909, Note_on_c, 0, 81, 0
2, 2910, Note_on_c, 0, 79, 100
2, 2939, Note_on_c, 0, 79, 0
2, 2940, Note_on_c, 0, 81, 100
2, 2969, Note_on_c, 0, 81, 0
2, 2970, Note_on_c, 0, 83, 100
2, 2999, Note_on_c, 0, 83, 0
2, 3000, Note_on_c, 0, 81, 100
2, 3025, Note_on_c, 0, 81, 0
2, 3060, Note_on_c, 0, 83, 100
2, 3085, Note_on_c, 0, 83, 0
2, 3120, Note_on_c, 0, 81, 100
2, 3149, Note_on_c, 0, 81, 0
2, 3150, Note_on_c, 0, 79, 100
2, 3179, Note_on_c, 0, 79, 0
2, 3180, Note_on_c, 0, 81, 100
2, 3209, Note_on_c, 0, 81, 0
2, 3210, Note_on_c, 0, 83, 100
2, 3239, Note_on_c, 0, 83, 0
2, 3240, Note_on_c, 0, 81, 100
2, 3265, Note_on_c, 0, 81, 0
2, 3300, Note_on_c, 0, 83, 100
2, 3325, Note_on_c, 0, 83, 0
2, 3360, Note_on_c, 0, 81, 100
2, 3449, Note_on_c, 0, 81, 0
2, 3450, Note_on_c, 0, 79, 100
2, 3479, Note_on_c, 0, 79, 0
2, 3480, Note_on_c, 0, 78, 100
2, 3539, Note_on_c, 0, 78, 0
2, 3540, Note_on_c, 0, 76, 100
2, 3599, Note_on_c, 0, 76, 0
2, 3600, Note_on_c, 0, 74, 100
2, 3719, Note_on_c, 0, 74, 0
2, 3720, Note_on_c, 0, 74, 100
2, 3839, Note_on_c, 0, 74, 0
2, 3840, Note_on_c, 0, 74, 100
2, 3869, Note_on_c, 0, 74, 0
2, 3870, Note_on_c, 0, 76, 100
2, 3899, Note_on_c, 0, 76, 0
2, 3900, Note_on_c, 0, 74, 100
2, 3929, Note_on_c, 0, 74, 0
2, 3930, Note_on_c, 0, 71, 100
2, 3959, Note_on_c, 0, 71, 0
2, 3960, Note_on_c, 0, 74, 100
2, 3989, Note_on_c, 0, 74, 0
2, 3990, Note_on_c, 0, 72, 100
2, 4019, Note_on_c, 0, 72, 0
2, 4020, Note_on_c, 0, 71, 100
2, 4049, Note_on_c, 0, 71, 0
2, 4050, Note_on_c, 0, 69, 100
2, 4079, Note_on_c, 0, 69, 0
2, 4080, Note_on_c, 0, 69, 100
2, 4080, Note_on_c, 0, 64, 100
2, 4105, Note_on_c, 0, 64, 0
2, 4105, Note_on_c, 0, 69, 0
2, 4140, Note_on_c, 0, 69, 100
2, 4140, Note_on_c, 0, 64, 100
2, 4165, Note_on_c, 0, 64, 0
2, 4165, Note_on_c, 0, 69, 0
2, 4200, Note_on_c, 0, 69, 100
2, 4200, Note_on_c, 0, 64, 100
2, 4319, Note_on_c, 0, 64, 0
2, 4319, Note_on_c, 0, 69, 0
2, 4320, Note_on_c, 0, 72, 100
2, 4349, Note_on_c, 0, 72, 0
2, 4350, Note_on_c, 0, 74, 100
2, 4379, Note_on_c, 0, 74, 0
2, 4380, Note_on_c, 0, 72, 100
2, 4409, Note_on_c, 0, 72, 0
2, 4410, Note_on_c, 0, 69, 100
2, 4439, Note_on_c, 0, 69, 0
2, 4440, Note_on_c, 0, 72, 100
2, 4469, Note_on_c, 0, 72, 0
2, 4470, Note_on_c, 0, 71, 100
2, 4499, Note_on_c, 0, 71, 0
2, 4500, Note_on_c, 0, 69, 100
2, 4529, Note_on_c, 0, 69, 0
2, 4530, Note_on_c, 0, 67, 100
2, 4559, Note_on_c, 0, 67, 0
2, 4560, Note_on_c, 0, 67, 100
2, 4560, Note_on_c, 0, 62, 100
2, 4585, Note_on_c, 0, 62, 0
2, 4585, Note_on_c, 0, 67, 0
2, 4620, Note_on_c, 0, 67, 100
2, 4620, Note_on_c, 0, 62, 100
2, 4645, Note_on_c, 0, 62, 0
2, 4645, Note_on_c, 0, 67, 0
2, 4680, Note_on_c, 0, 67, 100
2, 4680, Note_on_c, 0, 62, 100
2, 4799, Note_on_c, 0, 62, 0
2, 4799, Note_on_c, 0, 67, 0
2, 4800, Note_on_c, 0, 74, 100
2, 4829, Note_on_c, 0, 74, 0
2, 4830, Note_on_c, 0, 72, 100
2, 4859, Note_on_c, 0, 72, 0
2, 4860, Note_on_c, 0, 74, 100
2, 4889, Note_on_c, 0, 74, 0
2, 4890, Note_on_c, 0, 76, 100
2, 4919, Note_on_c, 0, 76, 0
2, 4920, Note_on_c, 0, 74, 100
2, 4945, Note_on_c, 0, 74, 0
2, 4980, Note_on_c, 0, 76, 100
2, 5005, Note_on_c, 0, 76, 0
2, 5040, Note_on_c, 0, 74, 100
2, 5069, Note_on_c, 0, 74, 0
2, 5070, Note_on_c, 0, 72, 100
2, 5099, Note_on_c, 0, 72, 0
2, 5100, Note_on_c, 0, 74, 100
2, 5129, Note_on_c, 0, 74, 0
2, 5130, Note_on_c, 0, 76, 100
2, 5159, Note_on_c, 0, 76, 0
2, 5160, Note_on_c, 0, 74, 100
2, 5185, Note_on_c, 0, 74, 0
2, 5220, Note_on_c, 0, 76, 100
2, 5245, Note_on_c, 0, 76, 0
2, 5280, Note_on_c, 0, 74, 100
2, 5369, Note_on_c, 0, 74, 0
2, 5370, Note_on_c, 0, 72, 100
2, 5399, Note_on_c, 0, 72, 0
2, 5400, Note_on_c, 0, 71, 100
2, 5459, Note_on_c, 0, 71, 0
2, 5460, Note_on_c, 0, 69, 100
2, 5519, Note_on_c, 0, 69, 0
2, 5520, Note_on_c, 0, 67, 100
2, 5639, Note_on_c, 0, 67, 0
2, 5640, Note_on_c, 0, 67, 100
2, 5759, Note_on_c, 0, 67, 0
2, 5760, Note_on_c, 0, 74, 100
2, 5789, Note_on_c, 0, 74, 0
2, 5790, Note_on_c, 0, 76, 100
2, 5819, Note_on_c, 0, 76, 0
2, 5820, Note_on_c, 0, 74, 100
2, 5849, Note_on_c, 0, 74, 0
2, 5850, Note_on_c, 0, 71, 100
2, 5879, Note_on_c, 0, 71, 0
2, 5880, Note_on_c, 0, 74, 100
2, 5909, Note_on_c, 0, 74, 0
2, 5910, Note_on_c, 0, 72, 100
2, 5939, Note_on_c, 0, 72, 0
2, 5940, Note_on_c, 0, 71, 100
2, 5969, Note_on_c, 0, 71, 0
2, 5970, Note_on_c, 0, 69, 100
2, 5999, Note_on_c, 0, 69, 0
2, 6000, Note_on_c, 0, 69, 100
2, 6000, Note_on_c, 0, 64, 100
2, 6025, Note_on_c, 0, 64, 0
2, 6025, Note_on_c, 0, 69, 0
2, 6060, Note_on_c, 0, 69, 100
2, 6060, Note_on_c, 0, 64, 100
2, 6085, Note_on_c, 0, 64, 0
2, 6085, Note_on_c, 0, 69, 0
2, 6120, Note_on_c, 0, 69, 100
2, 6120, Note_on_c, 0, 64, 100
2, 6239, Note_on_c, 0, 64, 0
2, 6239, Note_on_c, 0, 69, 0
2, 6240, Note_on_c, 0, 72, 100
2, 6269, Note_on_c, 0, 72, 0
2, 6270, Note_on_c, 0, 74, 100
2, 6299, Note_on_c, 0, 74, 0
2, 6300, Note_on_c, 0, 72, 100
2, 6329, Note_on_c, 0, 72, 0
2, 6330, Note_on_c, 0, 69, 100
2, 6359, Note_on_c, 0, 69, 0
2, 6360, Note_on_c, 0, 72, 100
2, 6389, Note_on_c, 0, 72, 0
2, 6390, Note_on_c, 0, 71, 100
2, 6419, Note_on_c, 0, 71, 0
2, 6420, Note_on_c, 0, 69, 100
2, 6449, Note_on_c, 0, 69, 0
2, 6450, Note_on_c, 0, 67, 100
2, 6479, Note_on_c, 0, 67, 0
2, 6480, Note_on_c, 0, 67, 100
2, 6480, Note_on_c, 0, 62, 100
2, 6505, Note_on_c, 0, 62, 0
2, 6505, Note_on_c, 0, 67, 0
2, 6540, Note_on_c, 0, 67, 100
2, 6540, Note_on_c, 0, 62, 100
2, 6565, Note_on_c, 0, 62, 0
2, 6565, Note_on_c, 0, 67, 0
2, 6600, Note_on_c, 0, 67, 100
2, 6600, Note_on_c, 0, 62, 100
2, 6719, Note_on_c, 0, 62, 0
2, 6719, Note_on_c, 0, 67, 0
2, 6720, Note_on_c, 0, 74, 100
2, 6749, Note_on_c, 0, 74, 0
2, 6750, Note_on_c, 0, 72, 100
2, 6779, Note_on_c, 0, 72, 0
2, 6780, Note_on_c, 0, 74, 100
2, 6809, Note_on_c, 0, 74, 0
2, 6810, Note_on_c, 0, 76, 100
2, 6839, Note_on_c, 0, 76, 0
2, 6840, Note_on_c, 0, 74, 100
2, 6865, Note_on_c, 0, 74, 0
2, 6900, Note_on_c, 0, 76, 100
2, 6925, Note_on_c, 0, 76, 0
2, 6960, Note_on_c, 0, 74, 100
2, 6989, Note_on_c, 0, 74, 0
2, 6990, Note_on_c, 0, 72, 100
2, 7019, Note_on_c, 0, 72, 0
2, 7020, Note_on_c, 0, 74, 100
2, 7049, Note_on_c, 0, 74, 0
2, 7050, Note_on_c, 0, 76, 100
2, 7079, Note_on_c, 0, 76, 0
2, 7080, Note_on_c, 0, 74, 100
2, 7105, Note_on_c, 0, 74, 0
2, 7140, Note_on_c, 0, 76, 100
2, 7165, Note_on_c, 0, 76, 0
2, 7200, Note_on_c, 0, 74, 100
2, 7289, Note_on_c, 0, 74, 0
2, 7290, Note_on_c, 0, 72, 100
2, 7319, Note_on_c, 0, 72, 0
2, 7320, Note_on_c, 0, 71, 100
2, 7379, Note_on_c, 0, 71, 0
2, 7380, Note_on_c, 0, 69, 100
2, 7439, Note_on_c, 0, 69, 0
2, 7440, Note_on_c, 0, 67, 100
2, 7559, Note_on_c, 0, 67, 0
2, 7560, Note_on_c, 0, 67, 100
2, 7679, Note_on_c, 0, 67, 0
2, 7679, End_track
3, 0, Start_track
3, 0, Control_c, 1, 0, 0
3, 0, Control_c, 1, 32, 0
3, 0, Program_c, 1, 0
3, 0, Control_c, 1, 7, 100
3, 0, Control_c, 1, 10, 95
3, 0, Note_on_c, 1, 55, 100
3, 119, Note_on_c, 1, 55, 0
3, 120, Note_on_c, 1, 50, 100
3, 239, Note_on_c, 1, 50, 0
3, 240, Note_on_c, 1, 55, 100
3, 299, Note_on_c, 1, 55, 0
3, 300, Note_on_c, 1, 50, 100
3, 359, Note_on_c, 1, 50, 0
3, 360, Note_on_c, 1, 47, 100
3, 419, Note_on_c, 1, 47, 0
3, 420, Note_on_c, 1, 43, 100
3, 479, Note_on_c, 1, 43, 0
3, 480, Note_on_c, 1, 55, 100
3, 539, Note_on_c, 1, 55, 0
3, 540, Note_on_c, 1, 55, 100
3, 599, Note_on_c, 1, 55, 0
3, 600, Note_on_c, 1, 55, 100
3, 659, Note_on_c, 1, 55, 0
3, 660, Note_on_c, 1, 55, 100
3, 719, Note_on_c, 1, 55, 0
3, 720, Note_on_c, 1, 55, 100
3, 779, Note_on_c, 1, 55, 0
3, 780, Note_on_c, 1, 62, 100
3, 839, Note_on_c, 1, 62, 0
3, 840, Note_on_c, 1, 59, 100
3, 899, Note_on_c, 1, 59, 0
3, 900, Note_on_c, 1, 55, 100
3, 959, Note_on_c, 1, 55, 0
3, 960, Note_on_c, 1, 54, 100
3, 960, Note_on_c, 1, 50, 100
3, 989, Note_on_c, 1, 54, 0
3, 990, Note_on_c, 1, 52, 100
3, 1019, Note_on_c, 1, 52, 0
3, 1020, Note_on_c, 1, 54, 100
3, 1049, Note_on_c, 1, 54, 0
3, 1050, Note_on_c, 1, 55, 100
3, 1079, Note_on_c, 1, 55, 0
3, 1080, Note_on_c, 1, 54, 100
3, 1105, Note_on_c, 1, 54, 0
3, 1140, Note_on_c, 1, 55, 100
3, 1165, Note_on_c, 1, 55, 0
3, 1199, Note_on_c, 1, 50, 0
3, 1200, Note_on_c, 1, 54, 100
3, 1200, Note_on_c, 1, 50, 100
3, 1229, Note_on_c, 1, 54, 0
3, 1230, Note_on_c, 1, 52, 100
3, 1259, Note_on_c, 1, 52, 0
3, 1260, Note_on_c, 1, 54, 100
3, 1289, Note_on_c, 1, 54, 0
3, 1290, Note_on_c, 1, 55, 100
3, 1319, Note_on_c, 1, 55, 0
3, 1320, Note_on_c, 1, 54, 100
3, 1345, Note_on_c, 1, 54, 0
3, 1380, Note_on_c, 1, 55, 100
3, 1405, Note_on_c, 1, 55, 0
3, 1439, Note_on_c, 1, 50, 0
3, 1440, Note_on_c, 1, 54, 100
3, 1440, Note_on_c, 1, 45, 100
3, 1529, Note_on_c, 1, 54, 0
3, 1530, Note_on_c, 1, 52, 100
3, 1559, Note_on_c, 1, 52, 0
3, 1560, Note_on_c, 1, 50, 100
3, 1619, Note_on_c, 1, 50, 0
3, 1620, Note_on_c, 1, 49, 100
3, 1679, Note_on_c, 1, 49, 0
3, 1679, Note_on_c, 1, 45, 0
3, 1680, Note_on_c, 1, 50, 100
3, 1680, Note_on_c, 1, 38, 100
3, 1799, Note_on_c, 1, 38, 0
3, 1799, Note_on_c, 1, 50, 0
3, 1800, Note_on_c, 1, 50, 100
3, 1800, Note_on_c, 1, 38, 100
3, 1919, Note_on_c, 1, 38, 0
3, 1919, Note_on_c, 1, 50, 0
3, 1920, Note_on_c, 1, 55, 100
3, 2039, Note_on_c, 1, 55, 0
3, 2040, Note_on_c, 1, 50, 100
3, 2159, Note_on_c, 1, 50, 0
3, 2160, Note_on_c, 1, 55, 100
3, 2219, Note_on_c, 1, 55, 0
3, 2220, Note_on_c, 1, 50, 100
3, 2279, Note_on_c, 1, 50, 0
3, 2280, Note_on_c, 1, 47, 100
3, 2339, Note_on_c, 1, 47, 0
3, 2340, Note_on_c, 1, 43, 100
3, 2399, Note_on_c, 1, 43, 0
3, 2400, Note_on_c, 1, 55, 100
3, 2459, Note_on_c, 1, 55, 0
3, 2460, Note_on_c, 1, 55, 100
3, 2519, Note_on_c, 1, 55, 0
3, 2520, Note_on_c, 1, 55, 100
3, 2579, Note_on_c, 1, 55, 0
3, 2580, Note_on_c, 1, 55, 100
3, 2639, Note_on_c, 1, 55, 0
3, 2640, Note_on_c, 1, 55, 100
3, 2699, Note_on_c, 1, 55, 0
3, 2700, Note_on_c, 1, 62, 100
3, 2759, Note_on_c, 1, 62, 0
3, 2760, Note_on_c, 1, 59, 100
3, 2819, Note_on_c, 1, 59, 0
3, 2820, Note_on_c, 1, 55, 100
3, 2879, Note_on_c, 1, 55, 0
3, 2880, Note_on_c, 1, 54, 100
3, 2880, Note_on_c, 1, 50, 100
3, 2909, Note_on_c, 1, 54, 0
3, 2910, Note_on_c, 1, 52, 100
3, 2939, Note_on_c, 1, 52, 0
3, 2940, Note_on_c, 1, 54, 100
3, 2969, Note_on_c, 1, 54, 0
3, 2970, Note_on_c, 1, 55, 100
3, 2999, Note_on_c, 1, 55, 0
3, 3000, Note_on_c, 1, 54, 100
3, 3025, Note_on_c, 1, 54, 0
3, 3060, Note_on_c, 1, 55, 100
3, 3085, Note_on_c, 1, 55, 0
3, 3119, Note_on_c, 1, 50, 0
3, 3120, Note_on_c, 1, 54, 100
3, 3120, Note_on_c, 1, 50, 100
3, 3149, Note_on_c, 1, 54, 0
3, 3150, Note_on_c, 1, 52, 100
3, 3179, Note_on_c, 1, 52, 0
3, 3180, Note_on_c, 1, 54, 100
3, 3209, Note_on_c, 1, 54, 0
3, 3210, Note_on_c, 1, 55, 100
3, 3239, Note_on_c, 1, 55, 0
3, 3240, Note_on_c, 1, 54, 100
3, 3265, Note_on_c, 1, 54, 0
3, 3300, Note_on_c, 1, 55, 100
3, 3325, Note_on_c, 1, 55, 0
3, 3359, Note_on_c, 1, 50, 0
3, 3360, Note_on_c, 1, 54, 100
3, 3360, Note_on_c, 1, 45, 100
3, 3449, Note_on_c, 1, 54, 0
3, 3450, Note_on_c, 1, 52, 100
3, 3479, Note_on_c, 1, 52, 0
3, 3480, Note_on_c, 1, 50, 100
3, 3539, Note_on_c, 1, 50, 0
3, 3540, Note_on_c, 1, 49, 100
3, 3599, Note_on_c, 1, 49, 0
3, 3599, Note_on_c, 1, 45, 0
3, 3600, Note_on_c, 1, 50, 100
3, 3600, Note_on_c, 1, 38, 100
3, 3719, Note_on_c, 1, 38, 0
3, 3719, Note_on_c, 1, 50, 0
3, 3720, Note_on_c, 1, 50, 100
3, 3720, Note_on_c, 1, 38, 100
3, 3839, Note_on_c, 1, 38, 0
3, 3839, Note_on_c, 1, 50, 0
3, 3840, Note_on_c, 1, 56, 100
3, 3959, Note_on_c, 1, 56, 0
3, 3960, Note_on_c, 1, 57, 100
3, 4079, Note_on_c, 1, 57, 0
3, 4080, Note_on_c, 1, 60, 100
3, 4105, Note_on_c, 1, 60, 0
3, 4140, Note_on_c, 1, 60, 100
3, 4165, Note_on_c, 1, 60, 0
3, 4200, Note_on_c, 1, 60, 100
3, 4319, Note_on_c, 1, 60, 0
3, 4320, Note_on_c, 1, 54, 100
3, 4439, Note_on_c, 1, 54, 0
3, 4440, Note_on_c, 1, 55, 100
3, 4559, Note_on_c, 1, 55, 0
3, 4560, Note_on_c, 1, 59, 100
3, 4585, Note_on_c, 1, 59, 0
3, 4620, Note_on_c, 1, 59, 100
3, 4645, Note_on_c, 1, 59, 0
3, 4680, Note_on_c, 1, 59, 100
3, 4799, Note_on_c, 1, 59, 0
3, 4800, Note_on_c, 1, 59, 100
3, 4800, Note_on_c, 1, 55, 100
3, 4829, Note_on_c, 1, 59, 0
3, 4830, Note_on_c, 1, 57, 100
3, 4859, Note_on_c, 1, 57, 0
3, 4860, Note_on_c, 1, 59, 100
3, 4889, Note_on_c, 1, 59, 0
3, 4890, Note_on_c, 1, 60, 100
3, 4919, Note_on_c, 1, 60, 0
3, 4920, Note_on_c, 1, 59, 100
3, 4945, Note_on_c, 1, 59, 0
3, 4980, Note_on_c, 1, 60, 100
3, 5005, Note_on_c, 1, 60, 0
3, 5039, Note_on_c, 1, 55, 0
3, 5040, Note_on_c, 1, 59, 100
3, 5040, Note_on_c, 1, 55, 100
3, 5069, Note_on_c, 1, 59, 0
3, 5070, Note_on_c, 1, 57, 100
3, 5099, Note_on_c, 1, 57, 0
3, 5100, Note_on_c, 1, 59, 100
3, 5129, Note_on_c, 1, 59, 0
3, 5130, Note_on_c, 1, 60, 100
3, 5159, Note_on_c, 1, 60, 0
3, 5160, Note_on_c, 1, 59, 100
3, 5185, Note_on_c, 1, 59, 0
3, 5220, Note_on_c, 1, 60, 100
3, 5245, Note_on_c, 1, 60, 0
3, 5279, Note_on_c, 1, 55, 0
3, 5280, Note_on_c, 1, 59, 100
3, 5280, Note_on_c, 1, 50, 100
3, 5399, Note_on_c, 1, 50, 0
3, 5399, Note_on_c, 1, 59, 0
3, 5400, Note_on_c, 1, 59, 100
3, 5400, Note_on_c, 1, 50, 100
3, 5519, Note_on_c, 1, 50, 0
3, 5519, Note_on_c, 1, 59, 0
3, 5520, Note_on_c, 1, 55, 100
3, 5639, Note_on_c, 1, 55, 0
3, 5640, Note_on_c, 1, 55, 100
3, 5759, Note_on_c, 1, 55, 0
3, 5760, Note_on_c, 1, 56, 100
3, 5879, Note_on_c, 1, 56, 0
3, 5880, Note_on_c, 1, 57, 100
3, 5999, Note_on_c, 1, 57, 0
3, 6000, Note_on_c, 1, 60, 100
3, 6025, Note_on_c, 1, 60, 0
3, 6060, Note_on_c, 1, 60, 100
3, 6085, Note_on_c, 1, 60, 0
3, 6120, Note_on_c, 1, 60, 100
3, 6239, Note_on_c, 1, 60, 0
3, 6240, Note_on_c, 1, 54, 100
3, 6359, Note_on_c, 1, 54, 0
3, 6360, Note_on_c, 1, 55, 100
3, 6479, Note_on_c, 1, 55, 0
3, 6480, Note_on_c, 1, 59, 100
3, 6505, Note_on_c, 1, 59, 0
3, 6540, Note_on_c, 1, 59, 100
3, 6565, Note_on_c, 1, 59, 0
3, 6600, Note_on_c, 1, 59, 100
3, 6719, Note_on_c, 1, 59, 0
3, 6720, Note_on_c, 1, 59, 100
3, 6720, Note_on_c, 1, 55, 100
3, 6749, Note_on_c, 1, 59, 0
3, 6750, Note_on_c, 1, 57, 100
3, 6779, Note_on_c, 1, 57, 0
3, 6780, Note_on_c, 1, 59, 100
3, 6809, Note_on_c, 1, 59, 0
3, 6810, Note_on_c, 1, 60, 100
3, 6839, Note_on_c, 1, 60, 0
3, 6840, Note_on_c, 1, 59, 100
3, 6865, Note_on_c, 1, 59, 0
3, 6900, Note_on_c, 1, 60, 100
3, 6925, Note_on_c, 1, 60, 0
3, 6959, Note_on_c, 1, 55, 0
3, 6960, Note_on_c, 1, 59, 100
3, 6960, Note_on_c, 1, 55, 100
3, 6989, Note_on_c, 1, 59, 0
3, 6990, Note_on_c, 1, 57, 100
3, 7019, Note_on_c, 1, 57, 0
3, 7020, Note_on_c, 1, 59, 100
3, 7049, Note_on_c, 1, 59, 0
3, 7050, Note_on_c, 1, 60, 100
3, 7079, Note_on_c, 1, 60, 0
3, 7080, Note_on_c, 1, 59, 100
3, 7105, Note_on_c, 1, 59, 0
3, 7140, Note_on_c, 1, 60, 100
3, 7165, Note_on_c, 1, 60, 0
3, 7199, Note_on_c, 1, 55, 0
3, 7200, Note_on_c, 1, 59, 100
3, 7200, Note_on_c, 1, 50, 100
3, 7319, Note_on_c, 1, 50, 0
3, 7319, Note_on_c, 1, 59, 0
3, 7320, Note_on_c, 1, 59, 100
3, 7320, Note_on_c, 1, 50, 100
3, 7439, Note_on_c, 1, 50, 0
3, 7439, Note_on_c, 1, 59, 0
3, 7440, Note_on_c, 1, 55, 100
3, 7559, Note_on_c, 1, 55, 0
3, 7560, Note_on_c, 1, 55, 100
3, 7679, Note_on_c, 1, 55, 0
3, 7679, End_track
4, 0, Start_track
4, 0, End_track
0, 0, End_of_file