0, 0, Header, 1, 20, 240
1, 0, Start_track
1, 0, Sequencer_specific, 0A, 00, 00, 5B, 23, 01, 00, 05, 04, 23, 00
1, 0, Title_t, "W. A. Mozart - Requiem K. 626"
1, 0, Instrument_name_t, "Conductor Track"
1, 0, SMPTE_offset, 96, 0, 3, 0, 0
1, 0, MIDI_port, 0
1, 0, Key_signature, -2, "major"
1, 0, Tempo, 1200000
1, 0, Time_signature, 4, 2, 24, 8
1, 50880, Tempo, 500000
1, 50880, Time_signature, 3, 2, 24, 8
1, 68880, Tempo, 500000
1, 68880, End_track
2, 0, Start_track
2, 0, Title_t, "No. 11 - Benedictus"
2, 0, MIDI_port, 0
2, 0, End_track
3, 0, Start_track
3, 0, Title_t, "Sequenced by D. Viens 9-27-97"
3, 0, MIDI_port, 0
3, 0, End_track
4, 0, Start_track
4, 0, Title_t, "dlviens@ix.netcom.com"
4, 0, MIDI_port, 0
4, 0, End_track
5, 0, Start_track
5, 0, MIDI_port, 0
5, 0, End_track
6, 0, Start_track
6, 0, Title_t, "Corni di Bassetto in F"
6, 0, MIDI_port, 0
6, 0, Control_c, 0, 7, 96
6, 0, Control_c, 0, 10, 75
6, 0, Control_c, 0, 11, 127
6, 0, Program_c, 0, 71
6, 0, Note_on_c, 0, 65, 66
6, 359, Note_on_c, 0, 65, 0
6, 360, Note_on_c, 0, 74, 66
6, 360, Note_on_c, 0, 65, 66
6, 479, Note_on_c, 0, 74, 0
6, 479, Note_on_c, 0, 65, 0
6, 480, Note_on_c, 0, 72, 66
6, 480, Note_on_c, 0, 63, 66
6, 539, Note_on_c, 0, 72, 0
6, 540, Note_on_c, 0, 69, 66
6, 599, Note_on_c, 0, 63, 0
6, 599, Note_on_c, 0, 69, 0
6, 600, Note_on_c, 0, 62, 66
6, 600, Note_on_c, 0, 70, 66
6, 719, Note_on_c, 0, 62, 0
6, 719, Note_on_c, 0, 70, 0
6, 840, Note_on_c, 0, 74, 66
6, 840, Note_on_c, 0, 65, 66
6, 959, Note_on_c, 0, 74, 0
6, 959, Note_on_c, 0, 65, 0
6, 960, Note_on_c, 0, 72, 66
6, 960, Note_on_c, 0, 63, 66
6, 1019, Note_on_c, 0, 72, 0
6, 1020, Note_on_c, 0, 69, 66
6, 1079, Note_on_c, 0, 63, 0
6, 1079, Note_on_c, 0, 69, 0
6, 1080, Note_on_c, 0, 62, 66
6, 1080, Note_on_c, 0, 70, 66
6, 1199, Note_on_c, 0, 62, 0
6, 1199, Note_on_c, 0, 70, 0
6, 1320, Note_on_c, 0, 70, 66
6, 1320, Note_on_c, 0, 65, 66
6, 1439, Note_on_c, 0, 70, 0
6, 1439, Note_on_c, 0, 65, 0
6, 1440, Note_on_c, 0, 67, 66
6, 1440, Note_on_c, 0, 70, 66
6, 1559, Note_on_c, 0, 70, 0
6, 1560, Note_on_c, 0, 69, 66
6, 1619, Note_on_c, 0, 69, 0
6, 1620, Note_on_c, 0, 70, 66
6, 1679, Note_on_c, 0, 67, 0
6, 1679, Note_on_c, 0, 70, 0
6, 1680, Note_on_c, 0, 65, 66
6, 1680, Note_on_c, 0, 72, 66
6, 1739, Note_on_c, 0, 72, 0
6, 1740, Note_on_c, 0, 70, 66
6, 1799, Note_on_c, 0, 70, 0
6, 1800, Note_on_c, 0, 69, 66
6, 1859, Note_on_c, 0, 69, 0
6, 1860, Note_on_c, 0, 67, 66
6, 1919, Note_on_c, 0, 65, 0
6, 1919, Note_on_c, 0, 67, 0
6, 1920, Note_on_c, 0, 65, 66
6, 2040, Note_on_c, 0, 55, 66
6, 2099, Note_on_c, 0, 65, 0
6, 2100, Note_on_c, 0, 63, 66
6, 2159, Note_on_c, 0, 55, 0
6, 2159, Note_on_c, 0, 63, 0
6, 2160, Note_on_c, 0, 63, 66
6, 2174, Note_on_c, 0, 63, 0
6, 2175, Note_on_c, 0, 65, 66
6, 2189, Note_on_c, 0, 65, 0
6, 2190, Note_on_c, 0, 63, 66
6, 2204, Note_on_c, 0, 63, 0
6, 2205, Note_on_c, 0, 65, 66
6, 2219, Note_on_c, 0, 65, 0
6, 2220, Note_on_c, 0, 63, 66
6, 2234, Note_on_c, 0, 63, 0
6, 2235, Note_on_c, 0, 65, 66
6, 2249, Note_on_c, 0, 65, 0
6, 2250, Note_on_c, 0, 63, 66
6, 2264, Note_on_c, 0, 63, 0
6, 2265, Note_on_c, 0, 65, 66
6, 2279, Note_on_c, 0, 65, 0
6, 2280, Note_on_c, 0, 63, 66
6, 2280, Note_on_c, 0, 60, 66
6, 2294, Note_on_c, 0, 63, 0
6, 2295, Note_on_c, 0, 65, 66
6, 2309, Note_on_c, 0, 65, 0
6, 2310, Note_on_c, 0, 63, 66
6, 2324, Note_on_c, 0, 63, 0
6, 2325, Note_on_c, 0, 65, 66
6, 2339, Note_on_c, 0, 65, 0
6, 2340, Note_on_c, 0, 63, 66
6, 2354, Note_on_c, 0, 63, 0
6, 2355, Note_on_c, 0, 65, 66
6, 2369, Note_on_c, 0, 65, 0
6, 2370, Note_on_c, 0, 62, 66
6, 2384, Note_on_c, 0, 62, 0
6, 2385, Note_on_c, 0, 63, 66
6, 2399, Note_on_c, 0, 60, 0
6, 2399, Note_on_c, 0, 63, 0
6, 2400, Note_on_c, 0, 62, 66
6, 2400, Note_on_c, 0, 58, 66
6, 2639, Note_on_c, 0, 62, 0
6, 2639, Note_on_c, 0, 58, 0
6, 5880, Note_on_c, 0, 74, 66
6, 5999, Note_on_c, 0, 74, 0
6, 6000, Note_on_c, 0, 77, 66
6, 6059, Note_on_c, 0, 77, 0
6, 6060, Note_on_c, 0, 74, 66
6, 6119, Note_on_c, 0, 74, 0
6, 6120, Note_on_c, 0, 74, 66
6, 6179, Note_on_c, 0, 74, 0
6, 6360, Note_on_c, 0, 72, 66
6, 6479, Note_on_c, 0, 72, 0
6, 6480, Note_on_c, 0, 77, 66
6, 6539, Note_on_c, 0, 77, 0
6, 6540, Note_on_c, 0, 72, 66
6, 6599, Note_on_c, 0, 72, 0
6, 6600, Note_on_c, 0, 72, 66
6, 6659, Note_on_c, 0, 72, 0
6, 7260, Note_on_c, 0, 62, 66
6, 7319, Note_on_c, 0, 62, 0
6, 7320, Note_on_c, 0, 64, 66
6, 7379, Note_on_c, 0, 64, 0
6, 7380, Note_on_c, 0, 65, 66
6, 7439, Note_on_c, 0, 65, 0
6, 7440, Note_on_c, 0, 67, 66
6, 7499, Note_on_c, 0, 67, 0
6, 7500, Note_on_c, 0, 69, 66
6, 7559, Note_on_c, 0, 69, 0
6, 7560, Note_on_c, 0, 65, 66
6, 7619, Note_on_c, 0, 65, 0
6, 7620, Note_on_c, 0, 67, 66
6, 7679, Note_on_c, 0, 67, 0
6, 7680, Note_on_c, 0, 64, 66
6, 7919, Note_on_c, 0, 64, 0
6, 8640, Note_on_c, 0, 69, 48
6, 8640, Note_on_c, 0, 65, 48
6, 9119, Note_on_c, 0, 69, 0
6, 9119, Note_on_c, 0, 65, 0
6, 9120, Note_on_c, 0, 72, 48
6, 9120, Note_on_c, 0, 60, 48
6, 10799, Note_on_c, 0, 60, 0
6, 10800, Note_on_c, 0, 69, 48
6, 10919, Note_on_c, 0, 69, 0
6, 10920, Note_on_c, 0, 67, 48
6, 11039, Note_on_c, 0, 67, 0
6, 11040, Note_on_c, 0, 66, 48
6, 11159, Note_on_c, 0, 66, 0
6, 11160, Note_on_c, 0, 69, 48
6, 11279, Note_on_c, 0, 69, 0
6, 11280, Note_on_c, 0, 62, 48
6, 11399, Note_on_c, 0, 62, 0
6, 11400, Note_on_c, 0, 64, 48
6, 11459, Note_on_c, 0, 64, 0
6, 11460, Note_on_c, 0, 66, 48
6, 11519, Note_on_c, 0, 72, 0
6, 11519, Note_on_c, 0, 66, 0
6, 11520, Note_on_c, 0, 71, 48
6, 11520, Note_on_c, 0, 67, 48
6, 11639, Note_on_c, 0, 71, 0
6, 11640, Note_on_c, 0, 74, 48
6, 11759, Note_on_c, 0, 74, 0
6, 11760, Note_on_c, 0, 67, 48
6, 11879, Note_on_c, 0, 67, 0
6, 11879, Note_on_c, 0, 67, 0
6, 11880, Note_on_c, 0, 65, 48
6, 11880, Note_on_c, 0, 69, 48
6, 11939, Note_on_c, 0, 69, 0
6, 11940, Note_on_c, 0, 71, 48
6, 11999, Note_on_c, 0, 65, 0
6, 11999, Note_on_c, 0, 71, 0
6, 12000, Note_on_c, 0, 72, 48
6, 12000, Note_on_c, 0, 64, 48
6, 12119, Note_on_c, 0, 64, 0
6, 12120, Note_on_c, 0, 67, 48
6, 12239, Note_on_c, 0, 67, 0
6, 12240, Note_on_c, 0, 60, 48
6, 12359, Note_on_c, 0, 72, 0
6, 12359, Note_on_c, 0, 60, 0
6, 12360, Note_on_c, 0, 62, 48
6, 12360, Note_on_c, 0, 70, 48
6, 12419, Note_on_c, 0, 62, 0
6, 12420, Note_on_c, 0, 64, 48
6, 12479, Note_on_c, 0, 70, 0
6, 12479, Note_on_c, 0, 64, 0
6, 12480, Note_on_c, 0, 69, 48
6, 12480, Note_on_c, 0, 65, 48
6, 12599, Note_on_c, 0, 69, 0
6, 12599, Note_on_c, 0, 65, 0
6, 12600, Note_on_c, 0, 70, 48
6, 12600, Note_on_c, 0, 67, 48
6, 12719, Note_on_c, 0, 70, 0
6, 12719, Note_on_c, 0, 67, 0
6, 12720, Note_on_c, 0, 71, 48
6, 12720, Note_on_c, 0, 68, 48
6, 12839, Note_on_c, 0, 71, 0
6, 12839, Note_on_c, 0, 68, 0
6, 12840, Note_on_c, 0, 72, 48
6, 12840, Note_on_c, 0, 69, 48
6, 12959, Note_on_c, 0, 72, 0
6, 12959, Note_on_c, 0, 69, 0
6, 12960, Note_on_c, 0, 73, 48
6, 12960, Note_on_c, 0, 69, 48
6, 13079, Note_on_c, 0, 73, 0
6, 13079, Note_on_c, 0, 69, 0
6, 13080, Note_on_c, 0, 74, 48
6, 13080, Note_on_c, 0, 70, 48
6, 13199, Note_on_c, 0, 74, 0
6, 13199, Note_on_c, 0, 70, 0
6, 13200, Note_on_c, 0, 72, 48
6, 13200, Note_on_c, 0, 67, 48
6, 13259, Note_on_c, 0, 72, 0
6, 13259, Note_on_c, 0, 67, 0
6, 13260, Note_on_c, 0, 70, 48
6, 13260, Note_on_c, 0, 65, 48
6, 13319, Note_on_c, 0, 70, 0
6, 13319, Note_on_c, 0, 65, 0
6, 13320, Note_on_c, 0, 69, 48
6, 13320, Note_on_c, 0, 64, 48
6, 13379, Note_on_c, 0, 69, 0
6, 13379, Note_on_c, 0, 64, 0
6, 13380, Note_on_c, 0, 67, 48
6, 13380, Note_on_c, 0, 62, 48
6, 13439, Note_on_c, 0, 67, 0
6, 13439, Note_on_c, 0, 62, 0
6, 13440, Note_on_c, 0, 65, 48
6, 13440, Note_on_c, 0, 60, 48
6, 13769, Note_on_c, 0, 65, 0
6, 13770, Note_on_c, 0, 69, 48
6, 13799, Note_on_c, 0, 60, 0
6, 13799, Note_on_c, 0, 69, 0
6, 13800, Note_on_c, 0, 58, 48
6, 13800, Note_on_c, 0, 67, 48
6, 13919, Note_on_c, 0, 58, 0
6, 13919, Note_on_c, 0, 67, 0
6, 13920, Note_on_c, 0, 65, 48
6, 13920, Note_on_c, 0, 57, 48
6, 14039, Note_on_c, 0, 65, 0
6, 14039, Note_on_c, 0, 57, 0
6, 14040, Note_on_c, 0, 74, 48
6, 14040, Note_on_c, 0, 65, 48
6, 14159, Note_on_c, 0, 74, 0
6, 14159, Note_on_c, 0, 65, 0
6, 14160, Note_on_c, 0, 77, 48
6, 14160, Note_on_c, 0, 69, 48
6, 14279, Note_on_c, 0, 77, 0
6, 14279, Note_on_c, 0, 69, 0
6, 14280, Note_on_c, 0, 74, 48
6, 14280, Note_on_c, 0, 65, 48
6, 14399, Note_on_c, 0, 74, 0
6, 14399, Note_on_c, 0, 65, 0
6, 14520, Note_on_c, 0, 69, 48
6, 14639, Note_on_c, 0, 69, 0
6, 14640, Note_on_c, 0, 71, 48
6, 14759, Note_on_c, 0, 71, 0
6, 14760, Note_on_c, 0, 72, 48
6, 14879, Note_on_c, 0, 72, 0
6, 14880, Note_on_c, 0, 74, 48
6, 14999, Note_on_c, 0, 74, 0
6, 15000, Note_on_c, 0, 72, 48
6, 15119, Note_on_c, 0, 72, 0
6, 15120, Note_on_c, 0, 71, 48
6, 15239, Note_on_c, 0, 71, 0
6, 15240, Note_on_c, 0, 71, 48
6, 15359, Note_on_c, 0, 71, 0
6, 15360, Note_on_c, 0, 72, 48
6, 15479, Note_on_c, 0, 72, 0
6, 15480, Note_on_c, 0, 70, 48
6, 15599, Note_on_c, 0, 70, 0
6, 15600, Note_on_c, 0, 70, 48
6, 15600, Note_on_c, 0, 67, 48
6, 15719, Note_on_c, 0, 70, 0
6, 15719, Note_on_c, 0, 67, 0
6, 15720, Note_on_c, 0, 70, 48
6, 15720, Note_on_c, 0, 67, 48
6, 15839, Note_on_c, 0, 70, 0
6, 15839, Note_on_c, 0, 67, 0
6, 15840, Note_on_c, 0, 72, 48
6, 15840, Note_on_c, 0, 69, 48
6, 15959, Note_on_c, 0, 72, 0
6, 15960, Note_on_c, 0, 75, 48
6, 16079, Note_on_c, 0, 75, 0
6, 16080, Note_on_c, 0, 74, 48
6, 16199, Note_on_c, 0, 69, 0
6, 16199, Note_on_c, 0, 74, 0
6, 16200, Note_on_c, 0, 77, 48
6, 16200, Note_on_c, 0, 65, 48
6, 16319, Note_on_c, 0, 77, 0
6, 16319, Note_on_c, 0, 65, 0
6, 16320, Note_on_c, 0, 65, 48
6, 16320, Note_on_c, 0, 60, 48
6, 16649, Note_on_c, 0, 65, 0
6, 16650, Note_on_c, 0, 69, 48
6, 16679, Note_on_c, 0, 60, 0
6, 16679, Note_on_c, 0, 69, 0
6, 16680, Note_on_c, 0, 64, 48
6, 16680, Note_on_c, 0, 67, 48
6, 16799, Note_on_c, 0, 64, 0
6, 16799, Note_on_c, 0, 67, 0
6, 16800, Note_on_c, 0, 65, 48
6, 16919, Note_on_c, 0, 65, 0
6, 16920, Note_on_c, 0, 65, 84
6, 16920, Note_on_c, 0, 69, 84
6, 17039, Note_on_c, 0, 65, 0
6, 17039, Note_on_c, 0, 69, 0
6, 17040, Note_on_c, 0, 65, 84
6, 17040, Note_on_c, 0, 69, 84
6, 17159, Note_on_c, 0, 65, 0
6, 17159, Note_on_c, 0, 69, 0
6, 17160, Note_on_c, 0, 65, 84
6, 17160, Note_on_c, 0, 69, 84
6, 17279, Note_on_c, 0, 65, 0
6, 17279, Note_on_c, 0, 69, 0
6, 17280, Note_on_c, 0, 69, 84
6, 17280, Note_on_c, 0, 65, 84
6, 17759, Note_on_c, 0, 69, 0
6, 17759, Note_on_c, 0, 65, 0
6, 17880, Note_on_c, 0, 69, 84
6, 17880, Note_on_c, 0, 65, 84
6, 17999, Note_on_c, 0, 69, 0
6, 17999, Note_on_c, 0, 65, 0
6, 18000, Note_on_c, 0, 69, 84
6, 18000, Note_on_c, 0, 65, 84
6, 18119, Note_on_c, 0, 69, 0
6, 18119, Note_on_c, 0, 65, 0
6, 18120, Note_on_c, 0, 69, 84
6, 18120, Note_on_c, 0, 65, 84
6, 18239, Note_on_c, 0, 69, 0
6, 18239, Note_on_c, 0, 65, 0
6, 18240, Note_on_c, 0, 69, 84
6, 18240, Note_on_c, 0, 65, 84
6, 18719, Note_on_c, 0, 69, 0
6, 18719, Note_on_c, 0, 65, 0
6, 18840, Note_on_c, 0, 70, 84
6, 18840, Note_on_c, 0, 74, 84
6, 18959, Note_on_c, 0, 70, 0
6, 18959, Note_on_c, 0, 74, 0
6, 18960, Note_on_c, 0, 70, 84
6, 18960, Note_on_c, 0, 74, 84
6, 19079, Note_on_c, 0, 70, 0
6, 19079, Note_on_c, 0, 74, 0
6, 19080, Note_on_c, 0, 70, 84
6, 19080, Note_on_c, 0, 74, 84
6, 19199, Note_on_c, 0, 70, 0
6, 19199, Note_on_c, 0, 74, 0
6, 19200, Note_on_c, 0, 77, 78
6, 19200, Note_on_c, 0, 74, 78
6, 19439, Note_on_c, 0, 77, 0
6, 19439, Note_on_c, 0, 74, 0
6, 19440, Note_on_c, 0, 76, 56
6, 19440, Note_on_c, 0, 72, 56
6, 19559, Note_on_c, 0, 76, 0
6, 19559, Note_on_c, 0, 72, 0
6, 19560, Note_on_c, 0, 74, 56
6, 19560, Note_on_c, 0, 70, 56
6, 19679, Note_on_c, 0, 74, 0
6, 19679, Note_on_c, 0, 70, 0
6, 19680, Note_on_c, 0, 72, 56
6, 19680, Note_on_c, 0, 69, 56
6, 19919, Note_on_c, 0, 72, 0
6, 19919, Note_on_c, 0, 69, 0
6, 19920, Note_on_c, 0, 70, 56
6, 19920, Note_on_c, 0, 67, 56
6, 20039, Note_on_c, 0, 70, 0
6, 20039, Note_on_c, 0, 67, 0
6, 20040, Note_on_c, 0, 69, 56
6, 20040, Note_on_c, 0, 65, 56
6, 20159, Note_on_c, 0, 69, 0
6, 20159, Note_on_c, 0, 65, 0
6, 20160, Note_on_c, 0, 67, 56
6, 20160, Note_on_c, 0, 65, 56
6, 20399, Note_on_c, 0, 65, 0
6, 20400, Note_on_c, 0, 64, 56
6, 20519, Note_on_c, 0, 67, 0
6, 20519, Note_on_c, 0, 64, 0
6, 20520, Note_on_c, 0, 65, 56
6, 20520, Note_on_c, 0, 67, 56
6, 20639, Note_on_c, 0, 65, 0
6, 20639, Note_on_c, 0, 67, 0
6, 20640, Note_on_c, 0, 67, 56
6, 20640, Note_on_c, 0, 64, 56
6, 20759, Note_on_c, 0, 67, 0
6, 20759, Note_on_c, 0, 64, 0
6, 20760, Note_on_c, 0, 69, 56
6, 20760, Note_on_c, 0, 65, 56
6, 20819, Note_on_c, 0, 69, 0
6, 20819, Note_on_c, 0, 65, 0
6, 20820, Note_on_c, 0, 67, 56
6, 20820, Note_on_c, 0, 64, 56
6, 20879, Note_on_c, 0, 67, 0
6, 20879, Note_on_c, 0, 64, 0
6, 20880, Note_on_c, 0, 67, 56
6, 20880, Note_on_c, 0, 64, 56
6, 21119, Note_on_c, 0, 67, 0
6, 21119, Note_on_c, 0, 64, 0
6, 21600, Note_on_c, 0, 65, 48
6, 21600, Note_on_c, 0, 60, 48
6, 21959, Note_on_c, 0, 65, 0
6, 21959, Note_on_c, 0, 60, 0
6, 21960, Note_on_c, 0, 65, 48
6, 21960, Note_on_c, 0, 60, 48
6, 22079, Note_on_c, 0, 65, 0
6, 22079, Note_on_c, 0, 60, 0
6, 22080, Note_on_c, 0, 69, 48
6, 22080, Note_on_c, 0, 65, 48
6, 22199, Note_on_c, 0, 69, 0
6, 22199, Note_on_c, 0, 65, 0
6, 22200, Note_on_c, 0, 65, 48
6, 22200, Note_on_c, 0, 60, 48
6, 22319, Note_on_c, 0, 65, 0
6, 22319, Note_on_c, 0, 60, 0
6, 22920, Note_on_c, 0, 69, 48
6, 22920, Note_on_c, 0, 65, 48
6, 23039, Note_on_c, 0, 69, 0
6, 23039, Note_on_c, 0, 65, 0
6, 23040, Note_on_c, 0, 69, 48
6, 23040, Note_on_c, 0, 72, 48
6, 23159, Note_on_c, 0, 69, 0
6, 23159, Note_on_c, 0, 72, 0
6, 23160, Note_on_c, 0, 69, 48
6, 23160, Note_on_c, 0, 65, 48
6, 23279, Note_on_c, 0, 69, 0
6, 23279, Note_on_c, 0, 65, 0
6, 23880, Note_on_c, 0, 75, 48
6, 23880, Note_on_c, 0, 67, 48
6, 23999, Note_on_c, 0, 75, 0
6, 23999, Note_on_c, 0, 67, 0
6, 24000, Note_on_c, 0, 79, 48
6, 24000, Note_on_c, 0, 72, 48
6, 24239, Note_on_c, 0, 79, 0
6, 24239, Note_on_c, 0, 72, 0
6, 24240, Note_on_c, 0, 77, 48
6, 24240, Note_on_c, 0, 65, 48
6, 24359, Note_on_c, 0, 77, 0
6, 24359, Note_on_c, 0, 65, 0
6, 24360, Note_on_c, 0, 65, 48
6, 24360, Note_on_c, 0, 75, 48
6, 24479, Note_on_c, 0, 65, 0
6, 24479, Note_on_c, 0, 75, 0
6, 24480, Note_on_c, 0, 74, 48
6, 24480, Note_on_c, 0, 65, 48
6, 24719, Note_on_c, 0, 65, 0
6, 24720, Note_on_c, 0, 67, 48
6, 24839, Note_on_c, 0, 74, 0
6, 24840, Note_on_c, 0, 77, 48
6, 24899, Note_on_c, 0, 77, 0
6, 24900, Note_on_c, 0, 75, 48
6, 24929, Note_on_c, 0, 75, 0
6, 24930, Note_on_c, 0, 74, 48
6, 24959, Note_on_c, 0, 67, 0
6, 24959, Note_on_c, 0, 74, 0
6, 24960, Note_on_c, 0, 65, 48
6, 24960, Note_on_c, 0, 72, 48
6, 25199, Note_on_c, 0, 65, 0
6, 25199, Note_on_c, 0, 72, 0
6, 30720, Note_on_c, 0, 70, 48
6, 30720, Note_on_c, 0, 58, 48
6, 32639, Note_on_c, 0, 70, 0
6, 32639, Note_on_c, 0, 58, 0
6, 33000, Note_on_c, 0, 67, 48
6, 33119, Note_on_c, 0, 67, 0
6, 33120, Note_on_c, 0, 67, 48
6, 34199, Note_on_c, 0, 67, 0
6, 34200, Note_on_c, 0, 65, 48
6, 34259, Note_on_c, 0, 65, 0
6, 34260, Note_on_c, 0, 63, 48
6, 34319, Note_on_c, 0, 63, 0
6, 34320, Note_on_c, 0, 65, 48
6, 34379, Note_on_c, 0, 65, 0
6, 34440, Note_on_c, 0, 63, 48
6, 34499, Note_on_c, 0, 63, 0
6, 34560, Note_on_c, 0, 62, 48
6, 34679, Note_on_c, 0, 62, 0
6, 34680, Note_on_c, 0, 65, 54
6, 34799, Note_on_c, 0, 65, 0
6, 34800, Note_on_c, 0, 70, 60
6, 34859, Note_on_c, 0, 70, 0
6, 34920, Note_on_c, 0, 70, 66
6, 34979, Note_on_c, 0, 70, 0
6, 35040, Note_on_c, 0, 70, 72
6, 35519, Note_on_c, 0, 70, 0
6, 35520, Note_on_c, 0, 69, 72
6, 35759, Note_on_c, 0, 69, 0
6, 35880, Note_on_c, 0, 70, 48
6, 35880, Note_on_c, 0, 74, 48
6, 35999, Note_on_c, 0, 70, 0
6, 35999, Note_on_c, 0, 74, 0
6, 36000, Note_on_c, 0, 75, 48
6, 36000, Note_on_c, 0, 72, 48
6, 36239, Note_on_c, 0, 75, 0
6, 36239, Note_on_c, 0, 72, 0
6, 36360, Note_on_c, 0, 72, 48
6, 36360, Note_on_c, 0, 69, 48
6, 36479, Note_on_c, 0, 72, 0
6, 36479, Note_on_c, 0, 69, 0
6, 36480, Note_on_c, 0, 74, 48
6, 36480, Note_on_c, 0, 70, 48
6, 36719, Note_on_c, 0, 74, 0
6, 36719, Note_on_c, 0, 70, 0
6, 36840, Note_on_c, 0, 74, 48
6, 36840, Note_on_c, 0, 70, 48
6, 36959, Note_on_c, 0, 74, 0
6, 36959, Note_on_c, 0, 70, 0
6, 36960, Note_on_c, 0, 75, 48
6, 36960, Note_on_c, 0, 72, 48
6, 37199, Note_on_c, 0, 75, 0
6, 37199, Note_on_c, 0, 72, 0
6, 37320, Note_on_c, 0, 72, 48
6, 37320, Note_on_c, 0, 69, 48
6, 37439, Note_on_c, 0, 72, 0
6, 37439, Note_on_c, 0, 69, 0
6, 37440, Note_on_c, 0, 74, 48
6, 37440, Note_on_c, 0, 70, 48
6, 37679, Note_on_c, 0, 74, 0
6, 37679, Note_on_c, 0, 70, 0
6, 37680, Note_on_c, 0, 74, 48
6, 37680, Note_on_c, 0, 77, 48
6, 37799, Note_on_c, 0, 74, 0
6, 37799, Note_on_c, 0, 77, 0
6, 37800, Note_on_c, 0, 77, 48
6, 37800, Note_on_c, 0, 72, 48
6, 37919, Note_on_c, 0, 77, 0
6, 37919, Note_on_c, 0, 72, 0
6, 37920, Note_on_c, 0, 77, 48
6, 37920, Note_on_c, 0, 71, 48
6, 38159, Note_on_c, 0, 77, 0
6, 38159, Note_on_c, 0, 71, 0
6, 38280, Note_on_c, 0, 77, 48
6, 38280, Note_on_c, 0, 71, 48
6, 38399, Note_on_c, 0, 77, 0
6, 38399, Note_on_c, 0, 71, 0
6, 38400, Note_on_c, 0, 76, 48
6, 38400, Note_on_c, 0, 72, 48
6, 38639, Note_on_c, 0, 76, 0
6, 38639, Note_on_c, 0, 72, 0
6, 38760, Note_on_c, 0, 76, 48
6, 38760, Note_on_c, 0, 72, 48
6, 38879, Note_on_c, 0, 76, 0
6, 38879, Note_on_c, 0, 72, 0
6, 38880, Note_on_c, 0, 77, 48
6, 38880, Note_on_c, 0, 72, 48
6, 39119, Note_on_c, 0, 77, 0
6, 39119, Note_on_c, 0, 72, 0
6, 39240, Note_on_c, 0, 75, 48
6, 39240, Note_on_c, 0, 72, 48
6, 39359, Note_on_c, 0, 75, 0
6, 39359, Note_on_c, 0, 72, 0
6, 39360, Note_on_c, 0, 74, 48
6, 39360, Note_on_c, 0, 70, 48
6, 39479, Note_on_c, 0, 74, 0
6, 39479, Note_on_c, 0, 70, 0
6, 44040, Note_on_c, 0, 70, 72
6, 44040, Note_on_c, 0, 74, 72
6, 44159, Note_on_c, 0, 70, 0
6, 44159, Note_on_c, 0, 74, 0
6, 44160, Note_on_c, 0, 74, 72
6, 44160, Note_on_c, 0, 77, 72
6, 44279, Note_on_c, 0, 74, 0
6, 44279, Note_on_c, 0, 77, 0
6, 44280, Note_on_c, 0, 74, 72
6, 44280, Note_on_c, 0, 70, 72
6, 44399, Note_on_c, 0, 74, 0
6, 44399, Note_on_c, 0, 70, 0
6, 44520, Note_on_c, 0, 74, 72
6, 44520, Note_on_c, 0, 70, 72
6, 44639, Note_on_c, 0, 74, 0
6, 44639, Note_on_c, 0, 70, 0
6, 44640, Note_on_c, 0, 74, 72
6, 44640, Note_on_c, 0, 77, 72
6, 44759, Note_on_c, 0, 74, 0
6, 44759, Note_on_c, 0, 77, 0
6, 44760, Note_on_c, 0, 74, 72
6, 44760, Note_on_c, 0, 70, 72
6, 44879, Note_on_c, 0, 74, 0
6, 44879, Note_on_c, 0, 70, 0
6, 45000, Note_on_c, 0, 74, 72
6, 45000, Note_on_c, 0, 70, 72
6, 45119, Note_on_c, 0, 74, 0
6, 45119, Note_on_c, 0, 70, 0
6, 45120, Note_on_c, 0, 73, 72
6, 45120, Note_on_c, 0, 70, 72
6, 45479, Note_on_c, 0, 73, 0
6, 45479, Note_on_c, 0, 70, 0
6, 45480, Note_on_c, 0, 73, 72
6, 45480, Note_on_c, 0, 70, 72
6, 45599, Note_on_c, 0, 73, 0
6, 45599, Note_on_c, 0, 70, 0
6, 45600, Note_on_c, 0, 72, 72
6, 45600, Note_on_c, 0, 69, 72
6, 45959, Note_on_c, 0, 72, 0
6, 45959, Note_on_c, 0, 69, 0
6, 45960, Note_on_c, 0, 72, 72
6, 45960, Note_on_c, 0, 69, 72
6, 46079, Note_on_c, 0, 72, 0
6, 46079, Note_on_c, 0, 69, 0
6, 46080, Note_on_c, 0, 77, 72
6, 46080, Note_on_c, 0, 70, 72
6, 46319, Note_on_c, 0, 77, 0
6, 46319, Note_on_c, 0, 70, 0
6, 47160, Note_on_c, 0, 70, 84
6, 47160, Note_on_c, 0, 62, 84
6, 47279, Note_on_c, 0, 70, 0
6, 47279, Note_on_c, 0, 62, 0
6, 47280, Note_on_c, 0, 70, 84
6, 47280, Note_on_c, 0, 62, 84
6, 47399, Note_on_c, 0, 70, 0
6, 47399, Note_on_c, 0, 62, 0
6, 47400, Note_on_c, 0, 70, 84
6, 47400, Note_on_c, 0, 62, 84
6, 47519, Note_on_c, 0, 70, 0
6, 47519, Note_on_c, 0, 62, 0
6, 47520, Note_on_c, 0, 70, 84
6, 47520, Note_on_c, 0, 62, 84
6, 47999, Note_on_c, 0, 70, 0
6, 47999, Note_on_c, 0, 62, 0
6, 48120, Note_on_c, 0, 74, 84
6, 48120, Note_on_c, 0, 70, 84
6, 48239, Note_on_c, 0, 74, 0
6, 48239, Note_on_c, 0, 70, 0
6, 48240, Note_on_c, 0, 74, 84
6, 48240, Note_on_c, 0, 70, 84
6, 48359, Note_on_c, 0, 74, 0
6, 48359, Note_on_c, 0, 70, 0
6, 48360, Note_on_c, 0, 74, 84
6, 48360, Note_on_c, 0, 70, 84
6, 48479, Note_on_c, 0, 74, 0
6, 48479, Note_on_c, 0, 70, 0
6, 48480, Note_on_c, 0, 74, 84
6, 48480, Note_on_c, 0, 70, 84
6, 48959, Note_on_c, 0, 74, 0
6, 48959, Note_on_c, 0, 70, 0
6, 49080, Note_on_c, 0, 75, 84
6, 49080, Note_on_c, 0, 67, 84
6, 49199, Note_on_c, 0, 75, 0
6, 49199, Note_on_c, 0, 67, 0
6, 49200, Note_on_c, 0, 75, 84
6, 49200, Note_on_c, 0, 67, 84
6, 49319, Note_on_c, 0, 75, 0
6, 49319, Note_on_c, 0, 67, 0
6, 49320, Note_on_c, 0, 75, 84
6, 49320, Note_on_c, 0, 67, 84
6, 49439, Note_on_c, 0, 75, 0
6, 49439, Note_on_c, 0, 67, 0
6, 49440, Note_on_c, 0, 75, 84
6, 49440, Note_on_c, 0, 67, 84
6, 49679, Note_on_c, 0, 75, 0
6, 49679, Note_on_c, 0, 67, 0
6, 50520, Note_on_c, 0, 65, 72
6, 50520, Note_on_c, 0, 62, 72
6, 50759, Note_on_c, 0, 65, 0
6, 50759, Note_on_c, 0, 62, 0
6, 50760, Note_on_c, 0, 69, 72
6, 50760, Note_on_c, 0, 60, 72
6, 50879, Note_on_c, 0, 69, 0
6, 50879, Note_on_c, 0, 60, 0
6, 50880, Note_on_c, 0, 70, 72
6, 50880, Note_on_c, 0, 62, 72
6, 51119, Note_on_c, 0, 70, 0
6, 51119, Note_on_c, 0, 62, 0
6, 54000, Note_on_c, 0, 65, 72
6, 54479, Note_on_c, 0, 65, 0
6, 54480, Note_on_c, 0, 62, 72
6, 54719, Note_on_c, 0, 62, 0
6, 54720, Note_on_c, 0, 70, 72
6, 55199, Note_on_c, 0, 70, 0
6, 55200, Note_on_c, 0, 69, 72
6, 55439, Note_on_c, 0, 69, 0
6, 55440, Note_on_c, 0, 65, 72
6, 55679, Note_on_c, 0, 65, 0
6, 55680, Note_on_c, 0, 72, 72
6, 55919, Note_on_c, 0, 72, 0
6, 55920, Note_on_c, 0, 74, 72
6, 56279, Note_on_c, 0, 74, 0
6, 56280, Note_on_c, 0, 72, 72
6, 56399, Note_on_c, 0, 72, 0
6, 56400, Note_on_c, 0, 70, 72
6, 56519, Note_on_c, 0, 70, 0
6, 56520, Note_on_c, 0, 69, 72
6, 56639, Note_on_c, 0, 69, 0
6, 56640, Note_on_c, 0, 67, 72
6, 56759, Note_on_c, 0, 67, 0
6, 56760, Note_on_c, 0, 65, 72
6, 56879, Note_on_c, 0, 65, 0
6, 56880, Note_on_c, 0, 64, 72
6, 56880, Note_on_c, 0, 70, 72
6, 56999, Note_on_c, 0, 64, 0
6, 57000, Note_on_c, 0, 65, 72
6, 57119, Note_on_c, 0, 65, 0
6, 57120, Note_on_c, 0, 62, 72
6, 57239, Note_on_c, 0, 62, 0
6, 57240, Note_on_c, 0, 64, 72
6, 57359, Note_on_c, 0, 70, 0
6, 57359, Note_on_c, 0, 64, 0
6, 57360, Note_on_c, 0, 65, 72
6, 57360, Note_on_c, 0, 69, 72
6, 57599, Note_on_c, 0, 65, 0
6, 57599, Note_on_c, 0, 69, 0
6, 57600, Note_on_c, 0, 75, 72
6, 57840, Note_on_c, 0, 65, 72
6, 58079, Note_on_c, 0, 75, 0
6, 58079, Note_on_c, 0, 65, 0
6, 58080, Note_on_c, 0, 65, 72
6, 58080, Note_on_c, 0, 74, 72
6, 58319, Note_on_c, 0, 65, 0
6, 58319, Note_on_c, 0, 74, 0
6, 58320, Note_on_c, 0, 63, 72
6, 58320, Note_on_c, 0, 70, 72
6, 58559, Note_on_c, 0, 63, 0
6, 58559, Note_on_c, 0, 70, 0
6, 58560, Note_on_c, 0, 62, 72
6, 58560, Note_on_c, 0, 77, 72
6, 58799, Note_on_c, 0, 62, 0
6, 58799, Note_on_c, 0, 77, 0
6, 58800, Note_on_c, 0, 79, 72
6, 58800, Note_on_c, 0, 70, 72
6, 59039, Note_on_c, 0, 70, 0
6, 59040, Note_on_c, 0, 69, 72
6, 59159, Note_on_c, 0, 79, 0
6, 59160, Note_on_c, 0, 77, 72
6, 59279, Note_on_c, 0, 69, 0
6, 59279, Note_on_c, 0, 77, 0
6, 59280, Note_on_c, 0, 75, 72
6, 59280, Note_on_c, 0, 70, 72
6, 59399, Note_on_c, 0, 75, 0
6, 59399, Note_on_c, 0, 70, 0
6, 59400, Note_on_c, 0, 74, 72
6, 59400, Note_on_c, 0, 69, 72
6, 59519, Note_on_c, 0, 74, 0
6, 59519, Note_on_c, 0, 69, 0
6, 59520, Note_on_c, 0, 72, 72
6, 59520, Note_on_c, 0, 67, 72
6, 59639, Note_on_c, 0, 72, 0
6, 59639, Note_on_c, 0, 67, 0
6, 59640, Note_on_c, 0, 70, 72
6, 59640, Note_on_c, 0, 65, 72
6, 59759, Note_on_c, 0, 70, 0
6, 59759, Note_on_c, 0, 65, 0
6, 59760, Note_on_c, 0, 69, 72
6, 59760, Note_on_c, 0, 63, 72
6, 59879, Note_on_c, 0, 69, 0
6, 59880, Note_on_c, 0, 70, 72
6, 59999, Note_on_c, 0, 70, 0
6, 60000, Note_on_c, 0, 67, 72
6, 60119, Note_on_c, 0, 67, 0
6, 60120, Note_on_c, 0, 69, 72
6, 60239, Note_on_c, 0, 63, 0
6, 60239, Note_on_c, 0, 69, 0
6, 60240, Note_on_c, 0, 70, 72
6, 60240, Note_on_c, 0, 65, 72
6, 60359, Note_on_c, 0, 65, 0
6, 60360, Note_on_c, 0, 63, 72
6, 60479, Note_on_c, 0, 70, 0
6, 60479, Note_on_c, 0, 63, 0
6, 60480, Note_on_c, 0, 62, 72
6, 60599, Note_on_c, 0, 62, 0
6, 60600, Note_on_c, 0, 64, 72
6, 60719, Note_on_c, 0, 64, 0
6, 60720, Note_on_c, 0, 74, 72
6, 60720, Note_on_c, 0, 65, 72
6, 60839, Note_on_c, 0, 65, 0
6, 60840, Note_on_c, 0, 67, 72
6, 60959, Note_on_c, 0, 74, 0
6, 60959, Note_on_c, 0, 67, 0
6, 60960, Note_on_c, 0, 65, 72
6, 60960, Note_on_c, 0, 72, 72
6, 61079, Note_on_c, 0, 72, 0
6, 61080, Note_on_c, 0, 70, 72
6, 61199, Note_on_c, 0, 65, 0
6, 61199, Note_on_c, 0, 70, 0
6, 61200, Note_on_c, 0, 69, 72
6, 61319, Note_on_c, 0, 69, 0
6, 61320, Note_on_c, 0, 70, 72
6, 61439, Note_on_c, 0, 70, 0
6, 61440, Note_on_c, 0, 65, 72
6, 61440, Note_on_c, 0, 67, 72
6, 61559, Note_on_c, 0, 67, 0
6, 61560, Note_on_c, 0, 69, 72
6, 61679, Note_on_c, 0, 65, 0
6, 61679, Note_on_c, 0, 69, 0
6, 61680, Note_on_c, 0, 70, 72
6, 61680, Note_on_c, 0, 65, 72
6, 61799, Note_on_c, 0, 70, 0
6, 61800, Note_on_c, 0, 69, 72
6, 61919, Note_on_c, 0, 69, 0
6, 61920, Note_on_c, 0, 70, 72
6, 62039, Note_on_c, 0, 70, 0
6, 62040, Note_on_c, 0, 72, 72
6, 62159, Note_on_c, 0, 72, 0
6, 62160, Note_on_c, 0, 74, 72
6, 62279, Note_on_c, 0, 74, 0
6, 62280, Note_on_c, 0, 72, 72
6, 62399, Note_on_c, 0, 65, 0
6, 62399, Note_on_c, 0, 72, 0
6, 62400, Note_on_c, 0, 70, 72
6, 62400, Note_on_c, 0, 67, 72
6, 62519, Note_on_c, 0, 70, 0
6, 62520, Note_on_c, 0, 69, 72
6, 62639, Note_on_c, 0, 67, 0
6, 62639, Note_on_c, 0, 69, 0
6, 62640, Note_on_c, 0, 67, 72
6, 62640, Note_on_c, 0, 60, 72
6, 62759, Note_on_c, 0, 67, 0
6, 62760, Note_on_c, 0, 69, 72
6, 62879, Note_on_c, 0, 60, 0
6, 62879, Note_on_c, 0, 69, 0
6, 62880, Note_on_c, 0, 65, 72
6, 62880, Note_on_c, 0, 60, 72
6, 62999, Note_on_c, 0, 65, 0
6, 63000, Note_on_c, 0, 67, 72
6, 63119, Note_on_c, 0, 60, 0
6, 63119, Note_on_c, 0, 67, 0
6, 63120, Note_on_c, 0, 69, 72
6, 63120, Note_on_c, 0, 65, 72
6, 63359, Note_on_c, 0, 69, 0
6, 63359, Note_on_c, 0, 65, 0
6, 63360, Note_on_c, 0, 70, 72
6, 63360, Note_on_c, 0, 67, 72
6, 63599, Note_on_c, 0, 70, 0
6, 63599, Note_on_c, 0, 67, 0
6, 63600, Note_on_c, 0, 72, 72
6, 63600, Note_on_c, 0, 69, 72
6, 63839, Note_on_c, 0, 72, 0
6, 63839, Note_on_c, 0, 69, 0
6, 63840, Note_on_c, 0, 74, 72
6, 63840, Note_on_c, 0, 70, 72
6, 64559, Note_on_c, 0, 74, 0
6, 64559, Note_on_c, 0, 70, 0
6, 64560, Note_on_c, 0, 75, 72
6, 64560, Note_on_c, 0, 67, 72
6, 65279, Note_on_c, 0, 75, 0
6, 65279, Note_on_c, 0, 67, 0
6, 65280, Note_on_c, 0, 72, 72
6, 65280, Note_on_c, 0, 69, 72
6, 65759, Note_on_c, 0, 72, 0
6, 65760, Note_on_c, 0, 77, 72
6, 65999, Note_on_c, 0, 69, 0
6, 65999, Note_on_c, 0, 77, 0
6, 66000, Note_on_c, 0, 74, 72
6, 66000, Note_on_c, 0, 70, 72
6, 66239, Note_on_c, 0, 74, 0
6, 66240, Note_on_c, 0, 72, 72
6, 66479, Note_on_c, 0, 70, 0
6, 66480, Note_on_c, 0, 69, 72
6, 66719, Note_on_c, 0, 72, 0
6, 66719, Note_on_c, 0, 69, 0
6, 66720, Note_on_c, 0, 70, 72
6, 66959, Note_on_c, 0, 70, 0
6, 66959, End_track
7, 0, Start_track
7, 0, Title_t, "Bassoon"
7, 0, MIDI_port, 0
7, 0, Program_c, 1, 70
7, 0, Control_c, 1, 7, 96
7, 0, Control_c, 1, 10, 65
7, 0, Control_c, 1, 11, 127
7, 120, Note_on_c, 1, 65, 66
7, 120, Note_on_c, 1, 62, 66
7, 239, Note_on_c, 1, 65, 0
7, 239, Note_on_c, 1, 62, 0
7, 240, Note_on_c, 1, 63, 66
7, 240, Note_on_c, 1, 60, 66
7, 359, Note_on_c, 1, 63, 0
7, 359, Note_on_c, 1, 60, 0
7, 360, Note_on_c, 1, 62, 66
7, 360, Note_on_c, 1, 58, 66
7, 479, Note_on_c, 1, 62, 0
7, 479, Note_on_c, 1, 58, 0
7, 600, Note_on_c, 1, 62, 66
7, 600, Note_on_c, 1, 58, 66
7, 719, Note_on_c, 1, 62, 0
7, 719, Note_on_c, 1, 58, 0
7, 720, Note_on_c, 1, 65, 66
7, 720, Note_on_c, 1, 62, 66
7, 839, Note_on_c, 1, 65, 0
7, 839, Note_on_c, 1, 62, 0
7, 840, Note_on_c, 1, 62, 66
7, 840, Note_on_c, 1, 58, 66
7, 959, Note_on_c, 1, 62, 0
7, 959, Note_on_c, 1, 58, 0
7, 1080, Note_on_c, 1, 62, 66
7, 1080, Note_on_c, 1, 58, 66
7, 1199, Note_on_c, 1, 62, 0
7, 1199, Note_on_c, 1, 58, 0
7, 1200, Note_on_c, 1, 63, 66
7, 1200, Note_on_c, 1, 60, 66
7, 1319, Note_on_c, 1, 63, 0
7, 1319, Note_on_c, 1, 60, 0
7, 1320, Note_on_c, 1, 65, 66
7, 1320, Note_on_c, 1, 62, 66
7, 1439, Note_on_c, 1, 65, 0
7, 1439, Note_on_c, 1, 62, 0
7, 1440, Note_on_c, 1, 67, 66
7, 1440, Note_on_c, 1, 63, 66
7, 1559, Note_on_c, 1, 67, 0
7, 1559, Note_on_c, 1, 63, 0
7, 1800, Note_on_c, 1, 58, 66
7, 1979, Note_on_c, 1, 58, 0
7, 1980, Note_on_c, 1, 55, 66
7, 2039, Note_on_c, 1, 55, 0
7, 2040, Note_on_c, 1, 60, 66
7, 2099, Note_on_c, 1, 60, 0
7, 2100, Note_on_c, 1, 58, 66
7, 2159, Note_on_c, 1, 58, 0
7, 2160, Note_on_c, 1, 57, 66
7, 2219, Note_on_c, 1, 57, 0
7, 2220, Note_on_c, 1, 58, 66
7, 2279, Note_on_c, 1, 58, 0
7, 2280, Note_on_c, 1, 55, 66
7, 2339, Note_on_c, 1, 55, 0
7, 2340, Note_on_c, 1, 57, 66
7, 2399, Note_on_c, 1, 57, 0
7, 2400, Note_on_c, 1, 58, 66
7, 2639, Note_on_c, 1, 58, 0
7, 3000, Note_on_c, 1, 65, 40
7, 3000, Note_on_c, 1, 62, 40
7, 3119, Note_on_c, 1, 65, 0
7, 3119, Note_on_c, 1, 62, 0
7, 3120, Note_on_c, 1, 63, 40
7, 3120, Note_on_c, 1, 60, 40
7, 3239, Note_on_c, 1, 63, 0
7, 3239, Note_on_c, 1, 60, 0
7, 3240, Note_on_c, 1, 62, 40
7, 3240, Note_on_c, 1, 58, 40
7, 3359, Note_on_c, 1, 62, 0
7, 3359, Note_on_c, 1, 58, 0
7, 3480, Note_on_c, 1, 62, 40
7, 3480, Note_on_c, 1, 58, 40
7, 3599, Note_on_c, 1, 62, 0
7, 3599, Note_on_c, 1, 58, 0
7, 3600, Note_on_c, 1, 65, 40
7, 3600, Note_on_c, 1, 62, 40
7, 3719, Note_on_c, 1, 65, 0
7, 3719, Note_on_c, 1, 62, 0
7, 3720, Note_on_c, 1, 62, 40
7, 3720, Note_on_c, 1, 58, 40
7, 3839, Note_on_c, 1, 62, 0
7, 3839, Note_on_c, 1, 58, 0
7, 3960, Note_on_c, 1, 65, 40
7, 3960, Note_on_c, 1, 62, 40
7, 4079, Note_on_c, 1, 65, 0
7, 4079, Note_on_c, 1, 62, 0
7, 4080, Note_on_c, 1, 63, 40
7, 4080, Note_on_c, 1, 60, 40
7, 4199, Note_on_c, 1, 63, 0
7, 4199, Note_on_c, 1, 60, 0
7, 4200, Note_on_c, 1, 62, 40
7, 4200, Note_on_c, 1, 58, 40
7, 4319, Note_on_c, 1, 62, 0
7, 4319, Note_on_c, 1, 58, 0
7, 4320, Note_on_c, 1, 67, 40
7, 4320, Note_on_c, 1, 63, 40
7, 4439, Note_on_c, 1, 67, 0
7, 4439, Note_on_c, 1, 63, 0
7, 4680, Note_on_c, 1, 65, 48
7, 4859, Note_on_c, 1, 65, 0
7, 4860, Note_on_c, 1, 62, 48
7, 4919, Note_on_c, 1, 62, 0
7, 4920, Note_on_c, 1, 67, 48
7, 4979, Note_on_c, 1, 67, 0
7, 4980, Note_on_c, 1, 65, 48
7, 5039, Note_on_c, 1, 65, 0
7, 5040, Note_on_c, 1, 63, 48
7, 5099, Note_on_c, 1, 63, 0
7, 5100, Note_on_c, 1, 65, 48
7, 5159, Note_on_c, 1, 65, 0
7, 5160, Note_on_c, 1, 62, 48
7, 5219, Note_on_c, 1, 62, 0
7, 5220, Note_on_c, 1, 63, 48
7, 5279, Note_on_c, 1, 63, 0
7, 5280, Note_on_c, 1, 65, 48
7, 5519, Note_on_c, 1, 65, 0
7, 9000, Note_on_c, 1, 53, 48
7, 9119, Note_on_c, 1, 53, 0
7, 9120, Note_on_c, 1, 52, 48
7, 9239, Note_on_c, 1, 52, 0
7, 9240, Note_on_c, 1, 55, 48
7, 9359, Note_on_c, 1, 55, 0
7, 9360, Note_on_c, 1, 48, 48
7, 9419, Note_on_c, 1, 48, 0
7, 9480, Note_on_c, 1, 58, 48
7, 9539, Note_on_c, 1, 58, 0
7, 9600, Note_on_c, 1, 57, 48
7, 9839, Note_on_c, 1, 57, 0
7, 9960, Note_on_c, 1, 53, 48
7, 10079, Note_on_c, 1, 53, 0
7, 10080, Note_on_c, 1, 52, 48
7, 10199, Note_on_c, 1, 52, 0
7, 10200, Note_on_c, 1, 55, 48
7, 10319, Note_on_c, 1, 55, 0
7, 10320, Note_on_c, 1, 48, 48
7, 10379, Note_on_c, 1, 48, 0
7, 10440, Note_on_c, 1, 58, 48
7, 10499, Note_on_c, 1, 58, 0
7, 10560, Note_on_c, 1, 57, 48
7, 10799, Note_on_c, 1, 57, 0
7, 10800, Note_on_c, 1, 53, 48
7, 10919, Note_on_c, 1, 53, 0
7, 10920, Note_on_c, 1, 51, 48
7, 11039, Note_on_c, 1, 51, 0
7, 11040, Note_on_c, 1, 50, 48
7, 11159, Note_on_c, 1, 50, 0
7, 11160, Note_on_c, 1, 54, 48
7, 11279, Note_on_c, 1, 54, 0
7, 11400, Note_on_c, 1, 50, 48
7, 11519, Note_on_c, 1, 50, 0
7, 11520, Note_on_c, 1, 55, 48
7, 11639, Note_on_c, 1, 55, 0
7, 11640, Note_on_c, 1, 59, 48
7, 11759, Note_on_c, 1, 59, 0
7, 11880, Note_on_c, 1, 55, 48
7, 11999, Note_on_c, 1, 55, 0
7, 12000, Note_on_c, 1, 48, 48
7, 12119, Note_on_c, 1, 48, 0
7, 12120, Note_on_c, 1, 52, 48
7, 12239, Note_on_c, 1, 52, 0
7, 12360, Note_on_c, 1, 48, 48
7, 12479, Note_on_c, 1, 48, 0
7, 12480, Note_on_c, 1, 65, 48
7, 12480, Note_on_c, 1, 53, 48
7, 12959, Note_on_c, 1, 53, 0
7, 12960, Note_on_c, 1, 46, 48
7, 13199, Note_on_c, 1, 65, 0
7, 13200, Note_on_c, 1, 64, 48
7, 13259, Note_on_c, 1, 64, 0
7, 13260, Note_on_c, 1, 62, 48
7, 13319, Note_on_c, 1, 46, 0
7, 13319, Note_on_c, 1, 62, 0
7, 13320, Note_on_c, 1, 60, 48
7, 13320, Note_on_c, 1, 46, 48
7, 13379, Note_on_c, 1, 60, 0
7, 13380, Note_on_c, 1, 58, 48
7, 13439, Note_on_c, 1, 46, 0
7, 13439, Note_on_c, 1, 58, 0
7, 13440, Note_on_c, 1, 57, 48
7, 13440, Note_on_c, 1, 48, 48
7, 13799, Note_on_c, 1, 57, 0
7, 13799, Note_on_c, 1, 48, 0
7, 13800, Note_on_c, 1, 52, 48
7, 13800, Note_on_c, 1, 49, 48
7, 13919, Note_on_c, 1, 52, 0
7, 13919, Note_on_c, 1, 49, 0
7, 13920, Note_on_c, 1, 53, 48
7, 13920, Note_on_c, 1, 50, 48
7, 14159, Note_on_c, 1, 53, 0
7, 14159, Note_on_c, 1, 50, 0
7, 14280, Note_on_c, 1, 57, 48
7, 14280, Note_on_c, 1, 50, 48
7, 14399, Note_on_c, 1, 57, 0
7, 14399, Note_on_c, 1, 50, 0
7, 14400, Note_on_c, 1, 65, 48
7, 14400, Note_on_c, 1, 62, 48
7, 14519, Note_on_c, 1, 65, 0
7, 14519, Note_on_c, 1, 62, 0
7, 14520, Note_on_c, 1, 64, 48
7, 14520, Note_on_c, 1, 60, 48
7, 14639, Note_on_c, 1, 64, 0
7, 14639, Note_on_c, 1, 60, 0
7, 14640, Note_on_c, 1, 62, 48
7, 14640, Note_on_c, 1, 59, 48
7, 14759, Note_on_c, 1, 62, 0
7, 14759, Note_on_c, 1, 59, 0
7, 14760, Note_on_c, 1, 60, 48
7, 14760, Note_on_c, 1, 57, 48
7, 14879, Note_on_c, 1, 60, 0
7, 14879, Note_on_c, 1, 57, 0
7, 14880, Note_on_c, 1, 59, 48
7, 14880, Note_on_c, 1, 55, 48
7, 14999, Note_on_c, 1, 59, 0
7, 14999, Note_on_c, 1, 55, 0
7, 15000, Note_on_c, 1, 60, 48
7, 15000, Note_on_c, 1, 43, 48
7, 15119, Note_on_c, 1, 60, 0
7, 15119, Note_on_c, 1, 43, 0
7, 15120, Note_on_c, 1, 62, 48
7, 15239, Note_on_c, 1, 62, 0
7, 15240, Note_on_c, 1, 62, 48
7, 15240, Note_on_c, 1, 55, 48
7, 15359, Note_on_c, 1, 62, 0
7, 15359, Note_on_c, 1, 55, 0
7, 15360, Note_on_c, 1, 67, 48
7, 15360, Note_on_c, 1, 48, 48
7, 15479, Note_on_c, 1, 48, 0
7, 15480, Note_on_c, 1, 60, 48
7, 15539, Note_on_c, 1, 67, 0
7, 15540, Note_on_c, 1, 64, 48
7, 15599, Note_on_c, 1, 60, 0
7, 15599, Note_on_c, 1, 64, 0
7, 15600, Note_on_c, 1, 64, 48
7, 15719, Note_on_c, 1, 64, 0
7, 15720, Note_on_c, 1, 62, 48
7, 15720, Note_on_c, 1, 52, 48
7, 15779, Note_on_c, 1, 62, 0
7, 15780, Note_on_c, 1, 60, 48
7, 15839, Note_on_c, 1, 52, 0
7, 15839, Note_on_c, 1, 60, 0
7, 15840, Note_on_c, 1, 53, 48
7, 15840, Note_on_c, 1, 60, 48
7, 15959, Note_on_c, 1, 53, 0
7, 15959, Note_on_c, 1, 60, 0
7, 15960, Note_on_c, 1, 51, 48
7, 15960, Note_on_c, 1, 57, 48
7, 16079, Note_on_c, 1, 51, 0
7, 16079, Note_on_c, 1, 57, 0
7, 16080, Note_on_c, 1, 50, 48
7, 16080, Note_on_c, 1, 58, 48
7, 16199, Note_on_c, 1, 50, 0
7, 16199, Note_on_c, 1, 58, 0
7, 16200, Note_on_c, 1, 46, 48
7, 16200, Note_on_c, 1, 58, 48
7, 16319, Note_on_c, 1, 46, 0
7, 16319, Note_on_c, 1, 58, 0
7, 16320, Note_on_c, 1, 57, 48
7, 16320, Note_on_c, 1, 48, 48
7, 16439, Note_on_c, 1, 48, 0
7, 16440, Note_on_c, 1, 48, 48
7, 16559, Note_on_c, 1, 48, 0
7, 16560, Note_on_c, 1, 48, 48
7, 16679, Note_on_c, 1, 57, 0
7, 16679, Note_on_c, 1, 48, 0
7, 16680, Note_on_c, 1, 48, 48
7, 16680, Note_on_c, 1, 58, 48
7, 16799, Note_on_c, 1, 48, 0
7, 16799, Note_on_c, 1, 58, 0
7, 16800, Note_on_c, 1, 57, 48
7, 16919, Note_on_c, 1, 57, 0
7, 16920, Note_on_c, 1, 60, 84
7, 16920, Note_on_c, 1, 41, 84
7, 17039, Note_on_c, 1, 60, 0
7, 17039, Note_on_c, 1, 41, 0
7, 17040, Note_on_c, 1, 60, 84
7, 17040, Note_on_c, 1, 41, 84
7, 17159, Note_on_c, 1, 60, 0
7, 17159, Note_on_c, 1, 41, 0
7, 17160, Note_on_c, 1, 60, 84
7, 17160, Note_on_c, 1, 41, 84
7, 17279, Note_on_c, 1, 60, 0
7, 17279, Note_on_c, 1, 41, 0
7, 17280, Note_on_c, 1, 60, 84
7, 17280, Note_on_c, 1, 41, 84
7, 17759, Note_on_c, 1, 60, 0
7, 17759, Note_on_c, 1, 41, 0
7, 17880, Note_on_c, 1, 62, 84
7, 17880, Note_on_c, 1, 38, 84
7, 17999, Note_on_c, 1, 62, 0
7, 17999, Note_on_c, 1, 38, 0
7, 18000, Note_on_c, 1, 62, 84
7, 18000, Note_on_c, 1, 38, 84
7, 18119, Note_on_c, 1, 62, 0
7, 18119, Note_on_c, 1, 38, 0
7, 18120, Note_on_c, 1, 62, 84
7, 18120, Note_on_c, 1, 38, 84
7, 18239, Note_on_c, 1, 62, 0
7, 18239, Note_on_c, 1, 38, 0
7, 18240, Note_on_c, 1, 62, 84
7, 18240, Note_on_c, 1, 38, 84
7, 18719, Note_on_c, 1, 62, 0
7, 18719, Note_on_c, 1, 38, 0
7, 18840, Note_on_c, 1, 65, 84
7, 18840, Note_on_c, 1, 34, 84
7, 18959, Note_on_c, 1, 65, 0
7, 18959, Note_on_c, 1, 34, 0
7, 18960, Note_on_c, 1, 65, 84
7, 18960, Note_on_c, 1, 34, 84
7, 19079, Note_on_c, 1, 65, 0
7, 19079, Note_on_c, 1, 34, 0
7, 19080, Note_on_c, 1, 65, 84
7, 19080, Note_on_c, 1, 34, 84
7, 19199, Note_on_c, 1, 65, 0
7, 19199, Note_on_c, 1, 34, 0
7, 19200, Note_on_c, 1, 65, 84
7, 19200, Note_on_c, 1, 34, 84
7, 19439, Note_on_c, 1, 65, 0
7, 19439, Note_on_c, 1, 34, 0
7, 21240, Note_on_c, 1, 53, 48
7, 21359, Note_on_c, 1, 53, 0
7, 21360, Note_on_c, 1, 57, 48
7, 21479, Note_on_c, 1, 57, 0
7, 21480, Note_on_c, 1, 53, 48
7, 21599, Note_on_c, 1, 53, 0
7, 21600, Note_on_c, 1, 57, 48
7, 21720, Note_on_c, 1, 53, 48
7, 21839, Note_on_c, 1, 53, 0
7, 21840, Note_on_c, 1, 57, 48
7, 21959, Note_on_c, 1, 57, 0
7, 21959, Note_on_c, 1, 57, 0
7, 21960, Note_on_c, 1, 53, 48
7, 21960, Note_on_c, 1, 57, 48
7, 22079, Note_on_c, 1, 53, 0
7, 22079, Note_on_c, 1, 57, 0
7, 22080, Note_on_c, 1, 60, 48
7, 22199, Note_on_c, 1, 60, 0
7, 22200, Note_on_c, 1, 57, 48
7, 22200, Note_on_c, 1, 53, 48
7, 22319, Note_on_c, 1, 57, 0
7, 22319, Note_on_c, 1, 53, 0
7, 22320, Note_on_c, 1, 57, 48
7, 22439, Note_on_c, 1, 57, 0
7, 22440, Note_on_c, 1, 53, 48
7, 22559, Note_on_c, 1, 53, 0
7, 22680, Note_on_c, 1, 53, 48
7, 22799, Note_on_c, 1, 53, 0
7, 22800, Note_on_c, 1, 57, 48
7, 22919, Note_on_c, 1, 57, 0
7, 22920, Note_on_c, 1, 53, 48
7, 22920, Note_on_c, 1, 60, 48
7, 23039, Note_on_c, 1, 53, 0
7, 23039, Note_on_c, 1, 60, 0
7, 23040, Note_on_c, 1, 65, 48
7, 23159, Note_on_c, 1, 65, 0
7, 23160, Note_on_c, 1, 60, 48
7, 23160, Note_on_c, 1, 53, 48
7, 23279, Note_on_c, 1, 60, 0
7, 23279, Note_on_c, 1, 53, 0
7, 23280, Note_on_c, 1, 57, 48
7, 23399, Note_on_c, 1, 57, 0
7, 23400, Note_on_c, 1, 53, 48
7, 23519, Note_on_c, 1, 53, 0
7, 23640, Note_on_c, 1, 63, 48
7, 23759, Note_on_c, 1, 63, 0
7, 23760, Note_on_c, 1, 60, 48
7, 23879, Note_on_c, 1, 60, 0
7, 23880, Note_on_c, 1, 58, 48
7, 23880, Note_on_c, 1, 60, 48
7, 23999, Note_on_c, 1, 58, 0
7, 23999, Note_on_c, 1, 60, 0
7, 24000, Note_on_c, 1, 63, 48
7, 24120, Note_on_c, 1, 57, 48
7, 24239, Note_on_c, 1, 63, 0
7, 24239, Note_on_c, 1, 57, 0
7, 24240, Note_on_c, 1, 45, 48
7, 24240, Note_on_c, 1, 62, 48
7, 24359, Note_on_c, 1, 45, 0
7, 24359, Note_on_c, 1, 62, 0
7, 24360, Note_on_c, 1, 57, 48
7, 24360, Note_on_c, 1, 60, 48
7, 24479, Note_on_c, 1, 57, 0
7, 24479, Note_on_c, 1, 60, 0
7, 24480, Note_on_c, 1, 58, 48
7, 24600, Note_on_c, 1, 46, 48
7, 24719, Note_on_c, 1, 46, 0
7, 24720, Note_on_c, 1, 55, 48
7, 24839, Note_on_c, 1, 58, 0
7, 24839, Note_on_c, 1, 55, 0
7, 24840, Note_on_c, 1, 51, 48
7, 24840, Note_on_c, 1, 62, 48
7, 24899, Note_on_c, 1, 62, 0
7, 24900, Note_on_c, 1, 60, 48
7, 24959, Note_on_c, 1, 51, 0
7, 24959, Note_on_c, 1, 60, 0
7, 24960, Note_on_c, 1, 58, 48
7, 24960, Note_on_c, 1, 53, 48
7, 25079, Note_on_c, 1, 58, 0
7, 25080, Note_on_c, 1, 57, 48
7, 25139, Note_on_c, 1, 57, 0
7, 25140, Note_on_c, 1, 65, 48
7, 25199, Note_on_c, 1, 53, 0
7, 25199, Note_on_c, 1, 65, 0
7, 25200, Note_on_c, 1, 65, 48
7, 25259, Note_on_c, 1, 65, 0
7, 25260, Note_on_c, 1, 64, 48
7, 25319, Note_on_c, 1, 64, 0
7, 25320, Note_on_c, 1, 67, 75
7, 25379, Note_on_c, 1, 67, 0
7, 25380, Note_on_c, 1, 65, 72
7, 25439, Note_on_c, 1, 65, 0
7, 25440, Note_on_c, 1, 63, 48
7, 25499, Note_on_c, 1, 63, 0
7, 25500, Note_on_c, 1, 62, 48
7, 25559, Note_on_c, 1, 62, 0
7, 25560, Note_on_c, 1, 65, 75
7, 25619, Note_on_c, 1, 65, 0
7, 25620, Note_on_c, 1, 63, 72
7, 25679, Note_on_c, 1, 63, 0
7, 25680, Note_on_c, 1, 60, 72
7, 25739, Note_on_c, 1, 60, 0
7, 25740, Note_on_c, 1, 57, 72
7, 25799, Note_on_c, 1, 57, 0
7, 25800, Note_on_c, 1, 55, 72
7, 25859, Note_on_c, 1, 55, 0
7, 25860, Note_on_c, 1, 53, 72
7, 25919, Note_on_c, 1, 53, 0
7, 25920, Note_on_c, 1, 53, 72
7, 26159, Note_on_c, 1, 53, 0
7, 32640, Note_on_c, 1, 58, 48
7, 32879, Note_on_c, 1, 58, 0
7, 32880, Note_on_c, 1, 59, 48
7, 32999, Note_on_c, 1, 59, 0
7, 33000, Note_on_c, 1, 60, 48
7, 33119, Note_on_c, 1, 60, 0
7, 33120, Note_on_c, 1, 62, 48
7, 33239, Note_on_c, 1, 62, 0
7, 33240, Note_on_c, 1, 60, 48
7, 33299, Note_on_c, 1, 60, 0
7, 33300, Note_on_c, 1, 59, 48
7, 33359, Note_on_c, 1, 59, 0
7, 33360, Note_on_c, 1, 60, 48
7, 33419, Note_on_c, 1, 60, 0
7, 33480, Note_on_c, 1, 59, 48
7, 33539, Note_on_c, 1, 59, 0
7, 33600, Note_on_c, 1, 60, 48
7, 33719, Note_on_c, 1, 60, 0
7, 33720, Note_on_c, 1, 63, 48
7, 34199, Note_on_c, 1, 63, 0
7, 34200, Note_on_c, 1, 62, 48
7, 34259, Note_on_c, 1, 62, 0
7, 34260, Note_on_c, 1, 60, 48
7, 34319, Note_on_c, 1, 60, 0
7, 34320, Note_on_c, 1, 58, 48
7, 34439, Note_on_c, 1, 58, 0
7, 34440, Note_on_c, 1, 60, 48
7, 34559, Note_on_c, 1, 60, 0
7, 34560, Note_on_c, 1, 58, 48
7, 34799, Note_on_c, 1, 58, 0
7, 34800, Note_on_c, 1, 62, 54
7, 34919, Note_on_c, 1, 62, 0
7, 34920, Note_on_c, 1, 65, 60
7, 35039, Note_on_c, 1, 65, 0
7, 35040, Note_on_c, 1, 58, 72
7, 35519, Note_on_c, 1, 58, 0
7, 35520, Note_on_c, 1, 60, 72
7, 35759, Note_on_c, 1, 60, 0
7, 35880, Note_on_c, 1, 58, 48
7, 35880, Note_on_c, 1, 62, 48
7, 35999, Note_on_c, 1, 58, 0
7, 35999, Note_on_c, 1, 62, 0
7, 36000, Note_on_c, 1, 60, 48
7, 36000, Note_on_c, 1, 63, 48
7, 36239, Note_on_c, 1, 60, 0
7, 36239, Note_on_c, 1, 63, 0
7, 36360, Note_on_c, 1, 60, 48
7, 36360, Note_on_c, 1, 57, 48
7, 36479, Note_on_c, 1, 60, 0
7, 36479, Note_on_c, 1, 57, 0
7, 36480, Note_on_c, 1, 62, 48
7, 36480, Note_on_c, 1, 58, 48
7, 36719, Note_on_c, 1, 62, 0
7, 36719, Note_on_c, 1, 58, 0
7, 36840, Note_on_c, 1, 62, 48
7, 36840, Note_on_c, 1, 58, 48
7, 36959, Note_on_c, 1, 62, 0
7, 36959, Note_on_c, 1, 58, 0
7, 36960, Note_on_c, 1, 63, 48
7, 36960, Note_on_c, 1, 60, 48
7, 37199, Note_on_c, 1, 63, 0
7, 37199, Note_on_c, 1, 60, 0
7, 37320, Note_on_c, 1, 60, 48
7, 37320, Note_on_c, 1, 57, 48
7, 37439, Note_on_c, 1, 60, 0
7, 37439, Note_on_c, 1, 57, 0
7, 37440, Note_on_c, 1, 46, 48
7, 37679, Note_on_c, 1, 46, 0
7, 37680, Note_on_c, 1, 58, 48
7, 37799, Note_on_c, 1, 58, 0
7, 37800, Note_on_c, 1, 56, 48
7, 37919, Note_on_c, 1, 56, 0
7, 37920, Note_on_c, 1, 55, 48
7, 38039, Note_on_c, 1, 55, 0
7, 38070, Note_on_c, 1, 43, 48
7, 38189, Note_on_c, 1, 43, 0
7, 38280, Note_on_c, 1, 55, 48
7, 38399, Note_on_c, 1, 55, 0
7, 38400, Note_on_c, 1, 60, 48
7, 38519, Note_on_c, 1, 60, 0
7, 38520, Note_on_c, 1, 48, 48
7, 38639, Note_on_c, 1, 48, 0
7, 38760, Note_on_c, 1, 48, 48
7, 38879, Note_on_c, 1, 48, 0
7, 38880, Note_on_c, 1, 53, 48
7, 38999, Note_on_c, 1, 53, 0
7, 39000, Note_on_c, 1, 41, 48
7, 39119, Note_on_c, 1, 41, 0
7, 39240, Note_on_c, 1, 53, 48
7, 39359, Note_on_c, 1, 53, 0
7, 39360, Note_on_c, 1, 58, 48
7, 39479, Note_on_c, 1, 58, 0
7, 39480, Note_on_c, 1, 46, 48
7, 39599, Note_on_c, 1, 46, 0
7, 39720, Note_on_c, 1, 46, 48
7, 39839, Note_on_c, 1, 46, 0
7, 39840, Note_on_c, 1, 51, 48
7, 39959, Note_on_c, 1, 51, 0
7, 39960, Note_on_c, 1, 63, 48
7, 40079, Note_on_c, 1, 63, 0
7, 40200, Note_on_c, 1, 51, 48
7, 40319, Note_on_c, 1, 51, 0
7, 40320, Note_on_c, 1, 53, 48
7, 40439, Note_on_c, 1, 53, 0
7, 40440, Note_on_c, 1, 41, 48
7, 40559, Note_on_c, 1, 41, 0
7, 40680, Note_on_c, 1, 54, 48
7, 40799, Note_on_c, 1, 54, 0
7, 40800, Note_on_c, 1, 55, 48
7, 40919, Note_on_c, 1, 55, 0
7, 40920, Note_on_c, 1, 43, 48
7, 41039, Note_on_c, 1, 43, 0
7, 41160, Note_on_c, 1, 55, 48
7, 41279, Note_on_c, 1, 55, 0
7, 41280, Note_on_c, 1, 67, 48
7, 41399, Note_on_c, 1, 67, 0
7, 41400, Note_on_c, 1, 65, 48
7, 41519, Note_on_c, 1, 65, 0
7, 41520, Note_on_c, 1, 64, 48
7, 41639, Note_on_c, 1, 64, 0
7, 41640, Note_on_c, 1, 62, 48
7, 41759, Note_on_c, 1, 62, 0
7, 41760, Note_on_c, 1, 60, 48
7, 41879, Note_on_c, 1, 60, 0
7, 41880, Note_on_c, 1, 48, 48
7, 41999, Note_on_c, 1, 48, 0
7, 42120, Note_on_c, 1, 48, 48
7, 42239, Note_on_c, 1, 48, 0
7, 42240, Note_on_c, 1, 53, 48
7, 42359, Note_on_c, 1, 53, 0
7, 42360, Note_on_c, 1, 41, 48
7, 42479, Note_on_c, 1, 41, 0
7, 42600, Note_on_c, 1, 53, 48
7, 42719, Note_on_c, 1, 53, 0
7, 42720, Note_on_c, 1, 58, 48
7, 42839, Note_on_c, 1, 58, 0
7, 42840, Note_on_c, 1, 56, 48
7, 42959, Note_on_c, 1, 56, 0
7, 42960, Note_on_c, 1, 55, 48
7, 43079, Note_on_c, 1, 55, 0
7, 43080, Note_on_c, 1, 51, 48
7, 43199, Note_on_c, 1, 51, 0
7, 43200, Note_on_c, 1, 53, 48
7, 43319, Note_on_c, 1, 53, 0
7, 43320, Note_on_c, 1, 53, 48
7, 43439, Note_on_c, 1, 53, 0
7, 43440, Note_on_c, 1, 53, 48
7, 43559, Note_on_c, 1, 53, 0
7, 43560, Note_on_c, 1, 53, 48
7, 43679, Note_on_c, 1, 53, 0
7, 43680, Note_on_c, 1, 46, 48
7, 43799, Note_on_c, 1, 46, 0
7, 43800, Note_on_c, 1, 58, 72
7, 43800, Note_on_c, 1, 62, 72
7, 43919, Note_on_c, 1, 58, 0
7, 43919, Note_on_c, 1, 62, 0
7, 43920, Note_on_c, 1, 65, 72
7, 43920, Note_on_c, 1, 62, 72
7, 44039, Note_on_c, 1, 65, 0
7, 44039, Note_on_c, 1, 62, 0
7, 44040, Note_on_c, 1, 62, 72
7, 44040, Note_on_c, 1, 58, 72
7, 44159, Note_on_c, 1, 62, 0
7, 44159, Note_on_c, 1, 58, 0
7, 44280, Note_on_c, 1, 62, 72
7, 44280, Note_on_c, 1, 58, 72
7, 44399, Note_on_c, 1, 62, 0
7, 44399, Note_on_c, 1, 58, 0
7, 44400, Note_on_c, 1, 65, 72
7, 44400, Note_on_c, 1, 62, 72
7, 44519, Note_on_c, 1, 65, 0
7, 44519, Note_on_c, 1, 62, 0
7, 44520, Note_on_c, 1, 62, 72
7, 44520, Note_on_c, 1, 58, 72
7, 44639, Note_on_c, 1, 62, 0
7, 44639, Note_on_c, 1, 58, 0
7, 44760, Note_on_c, 1, 58, 72
7, 44760, Note_on_c, 1, 55, 72
7, 44879, Note_on_c, 1, 58, 0
7, 44879, Note_on_c, 1, 55, 0
7, 44880, Note_on_c, 1, 62, 72
7, 44880, Note_on_c, 1, 58, 72
7, 44999, Note_on_c, 1, 62, 0
7, 44999, Note_on_c, 1, 58, 0
7, 45000, Note_on_c, 1, 58, 72
7, 45000, Note_on_c, 1, 55, 72
7, 45119, Note_on_c, 1, 58, 0
7, 45119, Note_on_c, 1, 55, 0
7, 45240, Note_on_c, 1, 61, 72
7, 45240, Note_on_c, 1, 58, 72
7, 45359, Note_on_c, 1, 61, 0
7, 45359, Note_on_c, 1, 58, 0
7, 45360, Note_on_c, 1, 61, 72
7, 45360, Note_on_c, 1, 58, 72
7, 45479, Note_on_c, 1, 61, 0
7, 45479, Note_on_c, 1, 58, 0
7, 45480, Note_on_c, 1, 61, 72
7, 45480, Note_on_c, 1, 58, 72
7, 45599, Note_on_c, 1, 61, 0
7, 45599, Note_on_c, 1, 58, 0
7, 45720, Note_on_c, 1, 60, 72
7, 45720, Note_on_c, 1, 57, 72
7, 45839, Note_on_c, 1, 60, 0
7, 45839, Note_on_c, 1, 57, 0
7, 45840, Note_on_c, 1, 60, 72
7, 45840, Note_on_c, 1, 57, 72
7, 45959, Note_on_c, 1, 60, 0
7, 45959, Note_on_c, 1, 57, 0
7, 45960, Note_on_c, 1, 60, 72
7, 45960, Note_on_c, 1, 57, 72
7, 46079, Note_on_c, 1, 60, 0
7, 46079, Note_on_c, 1, 57, 0
7, 46080, Note_on_c, 1, 62, 72
7, 46080, Note_on_c, 1, 53, 72
7, 46319, Note_on_c, 1, 62, 0
7, 46319, Note_on_c, 1, 53, 0
7, 47160, Note_on_c, 1, 65, 84
7, 47160, Note_on_c, 1, 46, 84
7, 47279, Note_on_c, 1, 65, 0
7, 47279, Note_on_c, 1, 46, 0
7, 47280, Note_on_c, 1, 65, 84
7, 47280, Note_on_c, 1, 46, 84
7, 47399, Note_on_c, 1, 65, 0
7, 47399, Note_on_c, 1, 46, 0
7, 47400, Note_on_c, 1, 65, 84
7, 47400, Note_on_c, 1, 46, 84
7, 47519, Note_on_c, 1, 65, 0
7, 47519, Note_on_c, 1, 46, 0
7, 47520, Note_on_c, 1, 65, 84
7, 47520, Note_on_c, 1, 46, 84
7, 47999, Note_on_c, 1, 65, 0
7, 47999, Note_on_c, 1, 46, 0
7, 48120, Note_on_c, 1, 67, 84
7, 48120, Note_on_c, 1, 43, 84
7, 48239, Note_on_c, 1, 67, 0
7, 48239, Note_on_c, 1, 43, 0
7, 48240, Note_on_c, 1, 67, 84
7, 48240, Note_on_c, 1, 43, 84
7, 48359, Note_on_c, 1, 67, 0
7, 48359, Note_on_c, 1, 43, 0
7, 48360, Note_on_c, 1, 67, 84
7, 48360, Note_on_c, 1, 43, 84
7, 48479, Note_on_c, 1, 67, 0
7, 48479, Note_on_c, 1, 43, 0
7, 48480, Note_on_c, 1, 67, 84
7, 48480, Note_on_c, 1, 43, 84
7, 48959, Note_on_c, 1, 67, 0
7, 48959, Note_on_c, 1, 43, 0
7, 49080, Note_on_c, 1, 63, 84
7, 49080, Note_on_c, 1, 39, 84
7, 49199, Note_on_c, 1, 63, 0
7, 49199, Note_on_c, 1, 39, 0
7, 49200, Note_on_c, 1, 63, 84
7, 49200, Note_on_c, 1, 39, 84
7, 49319, Note_on_c, 1, 63, 0
7, 49319, Note_on_c, 1, 39, 0
7, 49320, Note_on_c, 1, 63, 84
7, 49320, Note_on_c, 1, 39, 84
7, 49439, Note_on_c, 1, 63, 0
7, 49439, Note_on_c, 1, 39, 0
7, 49440, Note_on_c, 1, 63, 84
7, 49440, Note_on_c, 1, 45, 84
7, 49559, Note_on_c, 1, 63, 0
7, 49559, Note_on_c, 1, 45, 0
7, 49560, Note_on_c, 1, 63, 84
7, 49560, Note_on_c, 1, 67, 84
7, 49679, Note_on_c, 1, 63, 0
7, 49679, Note_on_c, 1, 67, 0
7, 49680, Note_on_c, 1, 65, 84
7, 49680, Note_on_c, 1, 62, 84
7, 49799, Note_on_c, 1, 65, 0
7, 49799, Note_on_c, 1, 62, 0
7, 49800, Note_on_c, 1, 63, 72
7, 49800, Note_on_c, 1, 60, 72
7, 49919, Note_on_c, 1, 63, 0
7, 49919, Note_on_c, 1, 60, 0
7, 49920, Note_on_c, 1, 62, 72
7, 49920, Note_on_c, 1, 58, 72
7, 50039, Note_on_c, 1, 62, 0
7, 50039, Note_on_c, 1, 58, 0
7, 50040, Note_on_c, 1, 62, 72
7, 50040, Note_on_c, 1, 65, 72
7, 50159, Note_on_c, 1, 62, 0
7, 50159, Note_on_c, 1, 65, 0
7, 50160, Note_on_c, 1, 67, 72
7, 50160, Note_on_c, 1, 63, 72
7, 50279, Note_on_c, 1, 67, 0
7, 50279, Note_on_c, 1, 63, 0
7, 50280, Note_on_c, 1, 63, 72
7, 50280, Note_on_c, 1, 60, 72
7, 50399, Note_on_c, 1, 63, 0
7, 50399, Note_on_c, 1, 60, 0
7, 50400, Note_on_c, 1, 62, 72
7, 50400, Note_on_c, 1, 58, 72
7, 50759, Note_on_c, 1, 62, 0
7, 50759, Note_on_c, 1, 58, 0
7, 50760, Note_on_c, 1, 63, 72
7, 50760, Note_on_c, 1, 57, 72
7, 50879, Note_on_c, 1, 63, 0
7, 50879, Note_on_c, 1, 57, 0
7, 50880, Note_on_c, 1, 62, 72
7, 50880, Note_on_c, 1, 58, 72
7, 51119, Note_on_c, 1, 62, 0
7, 51119, Note_on_c, 1, 58, 0
7, 51120, Note_on_c, 1, 58, 72
7, 51599, Note_on_c, 1, 58, 0
7, 51600, Note_on_c, 1, 57, 72
7, 51839, Note_on_c, 1, 57, 0
7, 51840, Note_on_c, 1, 63, 72
7, 52319, Note_on_c, 1, 63, 0
7, 52320, Note_on_c, 1, 62, 72
7, 52559, Note_on_c, 1, 62, 0
7, 52560, Note_on_c, 1, 58, 72
7, 52799, Note_on_c, 1, 58, 0
7, 52800, Note_on_c, 1, 65, 72
7, 53039, Note_on_c, 1, 65, 0
7, 53040, Note_on_c, 1, 67, 72
7, 53399, Note_on_c, 1, 67, 0
7, 53400, Note_on_c, 1, 65, 72
7, 53519, Note_on_c, 1, 65, 0
7, 53520, Note_on_c, 1, 63, 72
7, 53639, Note_on_c, 1, 63, 0
7, 53640, Note_on_c, 1, 62, 72
7, 53759, Note_on_c, 1, 62, 0
7, 53760, Note_on_c, 1, 60, 72
7, 53879, Note_on_c, 1, 60, 0
7, 53880, Note_on_c, 1, 58, 72
7, 53999, Note_on_c, 1, 58, 0
7, 54000, Note_on_c, 1, 57, 72
7, 54119, Note_on_c, 1, 57, 0
7, 54120, Note_on_c, 1, 58, 72
7, 54239, Note_on_c, 1, 58, 0
7, 54240, Note_on_c, 1, 55, 72
7, 54359, Note_on_c, 1, 55, 0
7, 54360, Note_on_c, 1, 57, 72
7, 54479, Note_on_c, 1, 57, 0
7, 54480, Note_on_c, 1, 58, 72
7, 54719, Note_on_c, 1, 58, 0
7, 54720, Note_on_c, 1, 55, 72
7, 54959, Note_on_c, 1, 55, 0
7, 54960, Note_on_c, 1, 60, 72
7, 55199, Note_on_c, 1, 60, 0
7, 55200, Note_on_c, 1, 53, 72
7, 55439, Note_on_c, 1, 53, 0
7, 55440, Note_on_c, 1, 55, 72
7, 55679, Note_on_c, 1, 55, 0
7, 55680, Note_on_c, 1, 57, 72
7, 55919, Note_on_c, 1, 57, 0
7, 55920, Note_on_c, 1, 58, 72
7, 56159, Note_on_c, 1, 58, 0
7, 56160, Note_on_c, 1, 60, 72
7, 56399, Note_on_c, 1, 60, 0
7, 56400, Note_on_c, 1, 62, 72
7, 56639, Note_on_c, 1, 62, 0
7, 56640, Note_on_c, 1, 58, 72
7, 57119, Note_on_c, 1, 58, 0
7, 57120, Note_on_c, 1, 60, 72
7, 57479, Note_on_c, 1, 60, 0
7, 57480, Note_on_c, 1, 58, 72
7, 57599, Note_on_c, 1, 58, 0
7, 57600, Note_on_c, 1, 57, 72
7, 57719, Note_on_c, 1, 57, 0
7, 57720, Note_on_c, 1, 58, 72
7, 57839, Note_on_c, 1, 58, 0
7, 57840, Note_on_c, 1, 55, 72
7, 57959, Note_on_c, 1, 55, 0
7, 57960, Note_on_c, 1, 57, 72
7, 58079, Note_on_c, 1, 57, 0
7, 58080, Note_on_c, 1, 58, 72
7, 58319, Note_on_c, 1, 58, 0
7, 58320, Note_on_c, 1, 60, 72
7, 58559, Note_on_c, 1, 60, 0
7, 58560, Note_on_c, 1, 62, 72
7, 58799, Note_on_c, 1, 62, 0
7, 58800, Note_on_c, 1, 63, 72
7, 59039, Note_on_c, 1, 63, 0
7, 59040, Note_on_c, 1, 65, 72
7, 59279, Note_on_c, 1, 65, 0
7, 59280, Note_on_c, 1, 67, 72
7, 59399, Note_on_c, 1, 67, 0
7, 59400, Note_on_c, 1, 65, 72
7, 59519, Note_on_c, 1, 65, 0
7, 59520, Note_on_c, 1, 63, 72
7, 59639, Note_on_c, 1, 63, 0
7, 59640, Note_on_c, 1, 62, 72
7, 59759, Note_on_c, 1, 62, 0
7, 59760, Note_on_c, 1, 60, 72
7, 59760, Note_on_c, 1, 53, 72
7, 59879, Note_on_c, 1, 60, 0
7, 59880, Note_on_c, 1, 62, 72
7, 59999, Note_on_c, 1, 62, 0
7, 60000, Note_on_c, 1, 58, 72
7, 60119, Note_on_c, 1, 58, 0
7, 60120, Note_on_c, 1, 60, 72
7, 60239, Note_on_c, 1, 53, 0
7, 60239, Note_on_c, 1, 60, 0
7, 60240, Note_on_c, 1, 50, 72
7, 60240, Note_on_c, 1, 62, 72
7, 60359, Note_on_c, 1, 62, 0
7, 60360, Note_on_c, 1, 63, 72
7, 60479, Note_on_c, 1, 50, 0
7, 60479, Note_on_c, 1, 63, 0
7, 60480, Note_on_c, 1, 58, 72
7, 60480, Note_on_c, 1, 65, 72
7, 60599, Note_on_c, 1, 65, 0
7, 60600, Note_on_c, 1, 67, 72
7, 60719, Note_on_c, 1, 67, 0
7, 60720, Note_on_c, 1, 62, 72
7, 60839, Note_on_c, 1, 62, 0
7, 60840, Note_on_c, 1, 64, 72
7, 60959, Note_on_c, 1, 58, 0
7, 60959, Note_on_c, 1, 64, 0
7, 60960, Note_on_c, 1, 65, 72
7, 60960, Note_on_c, 1, 57, 72
7, 61199, Note_on_c, 1, 57, 0
7, 61200, Note_on_c, 1, 53, 72
7, 61439, Note_on_c, 1, 65, 0
7, 61439, Note_on_c, 1, 53, 0
7, 61440, Note_on_c, 1, 63, 72
7, 61440, Note_on_c, 1, 60, 72
7, 61679, Note_on_c, 1, 63, 0
7, 61679, Note_on_c, 1, 60, 0
7, 61680, Note_on_c, 1, 62, 72
7, 62039, Note_on_c, 1, 62, 0
7, 62040, Note_on_c, 1, 60, 72
7, 62159, Note_on_c, 1, 60, 0
7, 62160, Note_on_c, 1, 58, 72
7, 62279, Note_on_c, 1, 58, 0
7, 62280, Note_on_c, 1, 57, 72
7, 62399, Note_on_c, 1, 57, 0
7, 62400, Note_on_c, 1, 55, 72
7, 62519, Note_on_c, 1, 55, 0
7, 62520, Note_on_c, 1, 53, 72
7, 62639, Note_on_c, 1, 53, 0
7, 62640, Note_on_c, 1, 52, 72
7, 62640, Note_on_c, 1, 58, 72
7, 62759, Note_on_c, 1, 52, 0
7, 62760, Note_on_c, 1, 53, 72
7, 62879, Note_on_c, 1, 53, 0
7, 62880, Note_on_c, 1, 50, 72
7, 62999, Note_on_c, 1, 50, 0
7, 63000, Note_on_c, 1, 52, 72
7, 63119, Note_on_c, 1, 58, 0
7, 63119, Note_on_c, 1, 52, 0
7, 63120, Note_on_c, 1, 53, 72
7, 63120, Note_on_c, 1, 57, 72
7, 63239, Note_on_c, 1, 53, 0
7, 63240, Note_on_c, 1, 51, 72
7, 63359, Note_on_c, 1, 57, 0
7, 63359, Note_on_c, 1, 51, 0
7, 63360, Note_on_c, 1, 63, 72
7, 63360, Note_on_c, 1, 50, 72
7, 63479, Note_on_c, 1, 50, 0
7, 63480, Note_on_c, 1, 51, 72
7, 63599, Note_on_c, 1, 51, 0
7, 63600, Note_on_c, 1, 48, 72
7, 63719, Note_on_c, 1, 48, 0
7, 63720, Note_on_c, 1, 50, 72
7, 63839, Note_on_c, 1, 63, 0
7, 63839, Note_on_c, 1, 50, 0
7, 63840, Note_on_c, 1, 62, 72
7, 63840, Note_on_c, 1, 46, 72
7, 64079, Note_on_c, 1, 62, 0
7, 64080, Note_on_c, 1, 58, 72
7, 64319, Note_on_c, 1, 46, 0
7, 64319, Note_on_c, 1, 58, 0
7, 64320, Note_on_c, 1, 58, 72
7, 64320, Note_on_c, 1, 65, 72
7, 64559, Note_on_c, 1, 58, 0
7, 64559, Note_on_c, 1, 65, 0
7, 64560, Note_on_c, 1, 67, 72
7, 64560, Note_on_c, 1, 51, 72
7, 65039, Note_on_c, 1, 67, 0
7, 65039, Note_on_c, 1, 51, 0
7, 65040, Note_on_c, 1, 63, 72
7, 65040, Note_on_c, 1, 51, 72
7, 65279, Note_on_c, 1, 63, 0
7, 65279, Note_on_c, 1, 51, 0
7, 65280, Note_on_c, 1, 63, 72
7, 65280, Note_on_c, 1, 53, 72
7, 65759, Note_on_c, 1, 63, 0
7, 65759, Note_on_c, 1, 53, 0
7, 65760, Note_on_c, 1, 60, 72
7, 65760, Note_on_c, 1, 53, 72
7, 65999, Note_on_c, 1, 60, 0
7, 65999, Note_on_c, 1, 53, 0
7, 66000, Note_on_c, 1, 58, 72
7, 66000, Note_on_c, 1, 55, 72
7, 66239, Note_on_c, 1, 58, 0
7, 66239, Note_on_c, 1, 55, 0
7, 66240, Note_on_c, 1, 67, 72
7, 66240, Note_on_c, 1, 51, 72
7, 66479, Note_on_c, 1, 67, 0
7, 66479, Note_on_c, 1, 51, 0
7, 66480, Note_on_c, 1, 65, 72
7, 66480, Note_on_c, 1, 53, 72
7, 66719, Note_on_c, 1, 65, 0
7, 66719, Note_on_c, 1, 53, 0
7, 66720, Note_on_c, 1, 62, 72
7, 66720, Note_on_c, 1, 58, 72
7, 66959, Note_on_c, 1, 62, 0
7, 66959, Note_on_c, 1, 58, 0
7, 66959, End_track
8, 0, Start_track
8, 0, Title_t, "Trumpet in B-flat"
8, 0, MIDI_port, 0
8, 0, Program_c, 2, 56
8, 0, Control_c, 2, 7, 96
8, 0, Control_c, 2, 10, 60
8, 0, Control_c, 2, 11, 127
8, 16920, Note_on_c, 2, 65, 84
8, 16920, Note_on_c, 2, 53, 84
8, 17039, Note_on_c, 2, 65, 0
8, 17039, Note_on_c, 2, 53, 0
8, 17040, Note_on_c, 2, 65, 84
8, 17040, Note_on_c, 2, 53, 84
8, 17159, Note_on_c, 2, 65, 0
8, 17159, Note_on_c, 2, 53, 0
8, 17160, Note_on_c, 2, 65, 84
8, 17160, Note_on_c, 2, 53, 84
8, 17279, Note_on_c, 2, 65, 0
8, 17279, Note_on_c, 2, 53, 0
8, 17280, Note_on_c, 2, 65, 84
8, 17280, Note_on_c, 2, 53, 84
8, 17759, Note_on_c, 2, 65, 0
8, 17759, Note_on_c, 2, 53, 0
8, 17880, Note_on_c, 2, 65, 84
8, 17999, Note_on_c, 2, 65, 0
8, 18000, Note_on_c, 2, 65, 84
8, 18119, Note_on_c, 2, 65, 0
8, 18120, Note_on_c, 2, 65, 84
8, 18239, Note_on_c, 2, 65, 0
8, 18240, Note_on_c, 2, 65, 84
8, 18719, Note_on_c, 2, 65, 0
8, 18840, Note_on_c, 2, 70, 84
8, 18840, Note_on_c, 2, 58, 84
8, 18959, Note_on_c, 2, 70, 0
8, 18959, Note_on_c, 2, 58, 0
8, 18960, Note_on_c, 2, 70, 84
8, 18960, Note_on_c, 2, 58, 84
8, 19079, Note_on_c, 2, 70, 0
8, 19079, Note_on_c, 2, 58, 0
8, 19080, Note_on_c, 2, 70, 84
8, 19080, Note_on_c, 2, 58, 84
8, 19199, Note_on_c, 2, 70, 0
8, 19199, Note_on_c, 2, 58, 0
8, 19200, Note_on_c, 2, 70, 84
8, 19200, Note_on_c, 2, 58, 84
8, 19439, Note_on_c, 2, 70, 0
8, 19439, Note_on_c, 2, 58, 0
8, 47160, Note_on_c, 2, 58, 84
8, 47160, Note_on_c, 2, 70, 84
8, 47279, Note_on_c, 2, 58, 0
8, 47279, Note_on_c, 2, 70, 0
8, 47280, Note_on_c, 2, 58, 84
8, 47280, Note_on_c, 2, 70, 84
8, 47399, Note_on_c, 2, 58, 0
8, 47399, Note_on_c, 2, 70, 0
8, 47400, Note_on_c, 2, 58, 84
8, 47400, Note_on_c, 2, 70, 84
8, 47519, Note_on_c, 2, 58, 0
8, 47519, Note_on_c, 2, 70, 0
8, 47520, Note_on_c, 2, 70, 84
8, 47520, Note_on_c, 2, 58, 84
8, 47999, Note_on_c, 2, 70, 0
8, 47999, Note_on_c, 2, 58, 0
8, 48120, Note_on_c, 2, 70, 84
8, 48120, Note_on_c, 2, 62, 84
8, 48239, Note_on_c, 2, 70, 0
8, 48239, Note_on_c, 2, 62, 0
8, 48240, Note_on_c, 2, 70, 84
8, 48240, Note_on_c, 2, 62, 84
8, 48359, Note_on_c, 2, 70, 0
8, 48359, Note_on_c, 2, 62, 0
8, 48360, Note_on_c, 2, 70, 84
8, 48360, Note_on_c, 2, 62, 84
8, 48479, Note_on_c, 2, 70, 0
8, 48479, Note_on_c, 2, 62, 0
8, 48480, Note_on_c, 2, 70, 84
8, 48480, Note_on_c, 2, 62, 84
8, 48959, Note_on_c, 2, 70, 0
8, 48959, Note_on_c, 2, 62, 0
8, 49080, Note_on_c, 2, 70, 84
8, 49199, Note_on_c, 2, 70, 0
8, 49200, Note_on_c, 2, 70, 84
8, 49319, Note_on_c, 2, 70, 0
8, 49320, Note_on_c, 2, 70, 84
8, 49439, Note_on_c, 2, 70, 0
8, 49440, Note_on_c, 2, 72, 72
8, 49679, Note_on_c, 2, 72, 0
8, 49920, Note_on_c, 2, 70, 72
8, 50039, Note_on_c, 2, 70, 0
8, 50400, Note_on_c, 2, 65, 72
8, 50519, Note_on_c, 2, 65, 0
8, 50640, Note_on_c, 2, 65, 72
8, 50759, Note_on_c, 2, 65, 0
8, 50880, Note_on_c, 2, 62, 72
8, 50880, Note_on_c, 2, 58, 72
8, 51119, Note_on_c, 2, 62, 0
8, 51119, Note_on_c, 2, 58, 0
8, 53760, Note_on_c, 2, 72, 60
8, 53879, Note_on_c, 2, 72, 0
8, 53880, Note_on_c, 2, 70, 60
8, 53999, Note_on_c, 2, 70, 0
8, 54000, Note_on_c, 2, 69, 60
8, 54119, Note_on_c, 2, 69, 0
8, 54120, Note_on_c, 2, 70, 60
8, 54239, Note_on_c, 2, 70, 0
8, 54240, Note_on_c, 2, 67, 60
8, 54359, Note_on_c, 2, 67, 0
8, 54360, Note_on_c, 2, 69, 60
8, 54479, Note_on_c, 2, 69, 0
8, 59760, Note_on_c, 2, 72, 72
8, 59760, Note_on_c, 2, 65, 72
8, 60239, Note_on_c, 2, 72, 0
8, 60239, Note_on_c, 2, 65, 0
8, 60240, Note_on_c, 2, 74, 72
8, 60240, Note_on_c, 2, 70, 72
8, 60479, Note_on_c, 2, 74, 0
8, 60479, Note_on_c, 2, 70, 0
8, 60960, Note_on_c, 2, 72, 72
8, 60960, Note_on_c, 2, 65, 72
8, 61679, Note_on_c, 2, 72, 0
8, 61679, Note_on_c, 2, 65, 0
8, 61680, Note_on_c, 2, 70, 72
8, 61680, Note_on_c, 2, 62, 72
8, 61919, Note_on_c, 2, 70, 0
8, 61919, Note_on_c, 2, 62, 0
8, 63840, Note_on_c, 2, 70, 72
8, 63840, Note_on_c, 2, 58, 72
8, 64559, Note_on_c, 2, 70, 0
8, 64559, Note_on_c, 2, 58, 0
8, 64560, Note_on_c, 2, 70, 72
8, 64560, Note_on_c, 2, 58, 72
8, 64799, Note_on_c, 2, 70, 0
8, 64799, Note_on_c, 2, 58, 0
8, 65280, Note_on_c, 2, 72, 72
8, 65280, Note_on_c, 2, 65, 72
8, 65759, Note_on_c, 2, 72, 0
8, 65759, Note_on_c, 2, 65, 0
8, 65760, Note_on_c, 2, 77, 72
8, 65760, Note_on_c, 2, 67, 72
8, 65999, Note_on_c, 2, 77, 0
8, 65999, Note_on_c, 2, 67, 0
8, 66000, Note_on_c, 2, 74, 72
8, 66000, Note_on_c, 2, 70, 72
8, 66239, Note_on_c, 2, 74, 0
8, 66239, Note_on_c, 2, 70, 0
8, 66240, Note_on_c, 2, 70, 72
8, 66240, Note_on_c, 2, 72, 72
8, 66479, Note_on_c, 2, 70, 0
8, 66480, Note_on_c, 2, 65, 72
8, 66719, Note_on_c, 2, 72, 0
8, 66719, Note_on_c, 2, 65, 0
8, 66720, Note_on_c, 2, 70, 72
8, 66720, Note_on_c, 2, 62, 72
8, 66959, Note_on_c, 2, 70, 0
8, 66959, Note_on_c, 2, 62, 0
8, 66959, End_track
9, 0, Start_track
9, 0, Title_t, "Alto Trombone"
9, 0, MIDI_port, 0
9, 0, Control_c, 3, 7, 96
9, 0, Control_c, 3, 10, 96
9, 0, Control_c, 3, 11, 127
9, 0, Program_c, 3, 57
9, 360, Note_on_c, 3, 62, 66
9, 479, Note_on_c, 3, 62, 0
9, 480, Note_on_c, 3, 60, 66
9, 599, Note_on_c, 3, 60, 0
9, 600, Note_on_c, 3, 62, 66
9, 719, Note_on_c, 3, 62, 0
9, 840, Note_on_c, 3, 62, 66
9, 959, Note_on_c, 3, 62, 0
9, 960, Note_on_c, 3, 60, 66
9, 1079, Note_on_c, 3, 60, 0
9, 1080, Note_on_c, 3, 62, 66
9, 1199, Note_on_c, 3, 62, 0
9, 1320, Note_on_c, 3, 65, 66
9, 1379, Note_on_c, 3, 65, 0
9, 1440, Note_on_c, 3, 67, 66
9, 1499, Note_on_c, 3, 67, 0
9, 1680, Note_on_c, 3, 65, 66
9, 1739, Note_on_c, 3, 65, 0
9, 2520, Note_on_c, 3, 62, 48
9, 2639, Note_on_c, 3, 62, 0
9, 2640, Note_on_c, 3, 62, 48
9, 2759, Note_on_c, 3, 62, 0
9, 2760, Note_on_c, 3, 62, 48
9, 2879, Note_on_c, 3, 62, 0
9, 2880, Note_on_c, 3, 62, 48
9, 3119, Note_on_c, 3, 62, 0
9, 8760, Note_on_c, 3, 60, 48
9, 8879, Note_on_c, 3, 60, 0
9, 8880, Note_on_c, 3, 65, 48
9, 8999, Note_on_c, 3, 65, 0
9, 9000, Note_on_c, 3, 60, 48
9, 9119, Note_on_c, 3, 60, 0
9, 9240, Note_on_c, 3, 60, 48
9, 9359, Note_on_c, 3, 60, 0
9, 9360, Note_on_c, 3, 67, 48
9, 9479, Note_on_c, 3, 67, 0
9, 9480, Note_on_c, 3, 60, 48
9, 9599, Note_on_c, 3, 60, 0
9, 9720, Note_on_c, 3, 57, 48
9, 9839, Note_on_c, 3, 57, 0
9, 9840, Note_on_c, 3, 69, 48
9, 9959, Note_on_c, 3, 69, 0
9, 9960, Note_on_c, 3, 69, 48
9, 10079, Note_on_c, 3, 69, 0
9, 10080, Note_on_c, 3, 70, 48
9, 10199, Note_on_c, 3, 70, 0
9, 10200, Note_on_c, 3, 67, 48
9, 10319, Note_on_c, 3, 67, 0
9, 10320, Note_on_c, 3, 64, 48
9, 10439, Note_on_c, 3, 64, 0
9, 10440, Note_on_c, 3, 60, 48
9, 10559, Note_on_c, 3, 60, 0
9, 10560, Note_on_c, 3, 60, 48
9, 10799, Note_on_c, 3, 60, 0
9, 10920, Note_on_c, 3, 67, 48
9, 11039, Note_on_c, 3, 67, 0
9, 11040, Note_on_c, 3, 66, 48
9, 11159, Note_on_c, 3, 66, 0
9, 11160, Note_on_c, 3, 69, 48
9, 11279, Note_on_c, 3, 69, 0
9, 11280, Note_on_c, 3, 62, 48
9, 11399, Note_on_c, 3, 62, 0
9, 11400, Note_on_c, 3, 64, 48
9, 11459, Note_on_c, 3, 64, 0
9, 11460, Note_on_c, 3, 65, 48
9, 11519, Note_on_c, 3, 65, 0
9, 11520, Note_on_c, 3, 67, 48
9, 12479, Note_on_c, 3, 67, 0
9, 12480, Note_on_c, 3, 65, 48
9, 12599, Note_on_c, 3, 65, 0
9, 12600, Note_on_c, 3, 67, 48
9, 12719, Note_on_c, 3, 67, 0
9, 12720, Note_on_c, 3, 68, 48
9, 12839, Note_on_c, 3, 68, 0
9, 12840, Note_on_c, 3, 69, 48
9, 12959, Note_on_c, 3, 69, 0
9, 12960, Note_on_c, 3, 69, 48
9, 13079, Note_on_c, 3, 69, 0
9, 13080, Note_on_c, 3, 70, 48
9, 13199, Note_on_c, 3, 70, 0
9, 13200, Note_on_c, 3, 67, 48
9, 13259, Note_on_c, 3, 67, 0
9, 13260, Note_on_c, 3, 65, 48
9, 13319, Note_on_c, 3, 65, 0
9, 13320, Note_on_c, 3, 64, 48
9, 13379, Note_on_c, 3, 64, 0
9, 13380, Note_on_c, 3, 62, 48
9, 13439, Note_on_c, 3, 62, 0
9, 13440, Note_on_c, 3, 60, 48
9, 13799, Note_on_c, 3, 60, 0
9, 13800, Note_on_c, 3, 64, 48
9, 13919, Note_on_c, 3, 64, 0
9, 13920, Note_on_c, 3, 65, 48
9, 14159, Note_on_c, 3, 65, 0
9, 14280, Note_on_c, 3, 57, 48
9, 14399, Note_on_c, 3, 57, 0
9, 14400, Note_on_c, 3, 65, 48
9, 14519, Note_on_c, 3, 65, 0
9, 14520, Note_on_c, 3, 64, 48
9, 14639, Note_on_c, 3, 64, 0
9, 14640, Note_on_c, 3, 62, 48
9, 14759, Note_on_c, 3, 62, 0
9, 14760, Note_on_c, 3, 60, 48
9, 14879, Note_on_c, 3, 60, 0
9, 14880, Note_on_c, 3, 59, 48
9, 14999, Note_on_c, 3, 59, 0
9, 15000, Note_on_c, 3, 60, 48
9, 15119, Note_on_c, 3, 60, 0
9, 15120, Note_on_c, 3, 62, 48
9, 15239, Note_on_c, 3, 62, 0
9, 15240, Note_on_c, 3, 67, 48
9, 15359, Note_on_c, 3, 67, 0
9, 15360, Note_on_c, 3, 67, 48
9, 15539, Note_on_c, 3, 67, 0
9, 15540, Note_on_c, 3, 64, 48
9, 15599, Note_on_c, 3, 64, 0
9, 15600, Note_on_c, 3, 64, 48
9, 15719, Note_on_c, 3, 64, 0
9, 15720, Note_on_c, 3, 62, 48
9, 15779, Note_on_c, 3, 62, 0
9, 15780, Note_on_c, 3, 60, 48
9, 15839, Note_on_c, 3, 60, 0
9, 15840, Note_on_c, 3, 60, 48
9, 15959, Note_on_c, 3, 60, 0
9, 15960, Note_on_c, 3, 65, 48
9, 16199, Note_on_c, 3, 65, 0
9, 16200, Note_on_c, 3, 62, 48
9, 16319, Note_on_c, 3, 62, 0
9, 16320, Note_on_c, 3, 60, 48
9, 16679, Note_on_c, 3, 60, 0
9, 16680, Note_on_c, 3, 64, 48
9, 16799, Note_on_c, 3, 64, 0
9, 16800, Note_on_c, 3, 65, 48
9, 16919, Note_on_c, 3, 65, 0
9, 16920, Note_on_c, 3, 65, 84
9, 17039, Note_on_c, 3, 65, 0
9, 17040, Note_on_c, 3, 65, 84
9, 17159, Note_on_c, 3, 65, 0
9, 17160, Note_on_c, 3, 65, 84
9, 17279, Note_on_c, 3, 65, 0
9, 17280, Note_on_c, 3, 65, 84
9, 17759, Note_on_c, 3, 65, 0
9, 17880, Note_on_c, 3, 69, 84
9, 17999, Note_on_c, 3, 69, 0
9, 18000, Note_on_c, 3, 69, 84
9, 18119, Note_on_c, 3, 69, 0
9, 18120, Note_on_c, 3, 69, 84
9, 18239, Note_on_c, 3, 69, 0
9, 18240, Note_on_c, 3, 69, 84
9, 18719, Note_on_c, 3, 69, 0
9, 18840, Note_on_c, 3, 70, 84
9, 18959, Note_on_c, 3, 70, 0
9, 18960, Note_on_c, 3, 70, 84
9, 19079, Note_on_c, 3, 70, 0
9, 19080, Note_on_c, 3, 70, 84
9, 19199, Note_on_c, 3, 70, 0
9, 19200, Note_on_c, 3, 70, 84
9, 19439, Note_on_c, 3, 70, 0
9, 23880, Note_on_c, 3, 67, 66
9, 23999, Note_on_c, 3, 67, 0
9, 24000, Note_on_c, 3, 67, 66
9, 24239, Note_on_c, 3, 67, 0
9, 24240, Note_on_c, 3, 65, 66
9, 24359, Note_on_c, 3, 65, 0
9, 24360, Note_on_c, 3, 65, 66
9, 24479, Note_on_c, 3, 65, 0
9, 24480, Note_on_c, 3, 65, 66
9, 24719, Note_on_c, 3, 65, 0
9, 24720, Note_on_c, 3, 67, 66
9, 24959, Note_on_c, 3, 67, 0
9, 24960, Note_on_c, 3, 65, 66
9, 25199, Note_on_c, 3, 65, 0
9, 35520, Note_on_c, 3, 65, 48
9, 37439, Note_on_c, 3, 65, 0
9, 43800, Note_on_c, 3, 62, 72
9, 43919, Note_on_c, 3, 62, 0
9, 43920, Note_on_c, 3, 65, 72
9, 44039, Note_on_c, 3, 65, 0
9, 44040, Note_on_c, 3, 62, 72
9, 44159, Note_on_c, 3, 62, 0
9, 44280, Note_on_c, 3, 62, 72
9, 44399, Note_on_c, 3, 62, 0
9, 44400, Note_on_c, 3, 65, 72
9, 44519, Note_on_c, 3, 65, 0
9, 44520, Note_on_c, 3, 62, 72
9, 44639, Note_on_c, 3, 62, 0
9, 44760, Note_on_c, 3, 58, 72
9, 44879, Note_on_c, 3, 58, 0
9, 44880, Note_on_c, 3, 62, 72
9, 44999, Note_on_c, 3, 62, 0
9, 45000, Note_on_c, 3, 58, 72
9, 45119, Note_on_c, 3, 58, 0
9, 45240, Note_on_c, 3, 67, 72
9, 45359, Note_on_c, 3, 67, 0
9, 45360, Note_on_c, 3, 67, 72
9, 45479, Note_on_c, 3, 67, 0
9, 45480, Note_on_c, 3, 67, 72
9, 45599, Note_on_c, 3, 67, 0
9, 45720, Note_on_c, 3, 65, 72
9, 45839, Note_on_c, 3, 65, 0
9, 45840, Note_on_c, 3, 65, 72
9, 45959, Note_on_c, 3, 65, 0
9, 45960, Note_on_c, 3, 65, 72
9, 46079, Note_on_c, 3, 65, 0
9, 46080, Note_on_c, 3, 65, 72
9, 46319, Note_on_c, 3, 65, 0
9, 47160, Note_on_c, 3, 62, 84
9, 47279, Note_on_c, 3, 62, 0
9, 47280, Note_on_c, 3, 62, 84
9, 47399, Note_on_c, 3, 62, 0
9, 47400, Note_on_c, 3, 62, 84
9, 47519, Note_on_c, 3, 62, 0
9, 47520, Note_on_c, 3, 62, 84
9, 47999, Note_on_c, 3, 62, 0
9, 48120, Note_on_c, 3, 62, 84
9, 48239, Note_on_c, 3, 62, 0
9, 48240, Note_on_c, 3, 62, 84
9, 48359, Note_on_c, 3, 62, 0
9, 48360, Note_on_c, 3, 62, 84
9, 48479, Note_on_c, 3, 62, 0
9, 48480, Note_on_c, 3, 62, 84
9, 48959, Note_on_c, 3, 62, 0
9, 49080, Note_on_c, 3, 67, 84
9, 49199, Note_on_c, 3, 67, 0
9, 49200, Note_on_c, 3, 67, 84
9, 49319, Note_on_c, 3, 67, 0
9, 49320, Note_on_c, 3, 67, 84
9, 49439, Note_on_c, 3, 67, 0
9, 49440, Note_on_c, 3, 63, 72
9, 49679, Note_on_c, 3, 63, 0
9, 49920, Note_on_c, 3, 65, 72
9, 50039, Note_on_c, 3, 65, 0
9, 50160, Note_on_c, 3, 67, 72
9, 50279, Note_on_c, 3, 67, 0
9, 50400, Note_on_c, 3, 62, 72
9, 50519, Note_on_c, 3, 62, 0
9, 50640, Note_on_c, 3, 60, 72
9, 50759, Note_on_c, 3, 60, 0
9, 50880, Note_on_c, 3, 58, 72
9, 51119, Note_on_c, 3, 58, 0
9, 54000, Note_on_c, 3, 65, 72
9, 54479, Note_on_c, 3, 65, 0
9, 54480, Note_on_c, 3, 62, 72
9, 54719, Note_on_c, 3, 62, 0
9, 54720, Note_on_c, 3, 70, 72
9, 55199, Note_on_c, 3, 70, 0
9, 55200, Note_on_c, 3, 69, 72
9, 55439, Note_on_c, 3, 69, 0
9, 55440, Note_on_c, 3, 65, 72
9, 55679, Note_on_c, 3, 65, 0
9, 55680, Note_on_c, 3, 72, 72
9, 55919, Note_on_c, 3, 72, 0
9, 55920, Note_on_c, 3, 74, 72
9, 56279, Note_on_c, 3, 74, 0
9, 56280, Note_on_c, 3, 72, 72
9, 56399, Note_on_c, 3, 72, 0
9, 56400, Note_on_c, 3, 70, 72
9, 56519, Note_on_c, 3, 70, 0
9, 56520, Note_on_c, 3, 69, 72
9, 56639, Note_on_c, 3, 69, 0
9, 56640, Note_on_c, 3, 67, 72
9, 56759, Note_on_c, 3, 67, 0
9, 56760, Note_on_c, 3, 65, 72
9, 56879, Note_on_c, 3, 65, 0
9, 56880, Note_on_c, 3, 64, 72
9, 56999, Note_on_c, 3, 64, 0
9, 57000, Note_on_c, 3, 65, 72
9, 57119, Note_on_c, 3, 65, 0
9, 57120, Note_on_c, 3, 62, 72
9, 57239, Note_on_c, 3, 62, 0
9, 57240, Note_on_c, 3, 63, 72
9, 57359, Note_on_c, 3, 63, 0
9, 57360, Note_on_c, 3, 65, 72
9, 57599, Note_on_c, 3, 65, 0
9, 57840, Note_on_c, 3, 65, 72
9, 58079, Note_on_c, 3, 65, 0
9, 58080, Note_on_c, 3, 65, 72
9, 58319, Note_on_c, 3, 65, 0
9, 58320, Note_on_c, 3, 63, 72
9, 58559, Note_on_c, 3, 63, 0
9, 58560, Note_on_c, 3, 62, 72
9, 58799, Note_on_c, 3, 62, 0
9, 58800, Note_on_c, 3, 70, 72
9, 59039, Note_on_c, 3, 70, 0
9, 59040, Note_on_c, 3, 69, 72
9, 59279, Note_on_c, 3, 69, 0
9, 59280, Note_on_c, 3, 70, 72
9, 59399, Note_on_c, 3, 70, 0
9, 59400, Note_on_c, 3, 69, 72
9, 59519, Note_on_c, 3, 69, 0
9, 59520, Note_on_c, 3, 67, 72
9, 59639, Note_on_c, 3, 67, 0
9, 59640, Note_on_c, 3, 65, 72
9, 59759, Note_on_c, 3, 65, 0
9, 59760, Note_on_c, 3, 63, 72
9, 60239, Note_on_c, 3, 63, 0
9, 60240, Note_on_c, 3, 65, 72
9, 60359, Note_on_c, 3, 65, 0
9, 60360, Note_on_c, 3, 63, 72
9, 60479, Note_on_c, 3, 63, 0
9, 60480, Note_on_c, 3, 62, 72
9, 60599, Note_on_c, 3, 62, 0
9, 60600, Note_on_c, 3, 64, 72
9, 60719, Note_on_c, 3, 64, 0
9, 60720, Note_on_c, 3, 65, 72
9, 60839, Note_on_c, 3, 65, 0
9, 60840, Note_on_c, 3, 67, 72
9, 60959, Note_on_c, 3, 67, 0
9, 60960, Note_on_c, 3, 65, 72
9, 61199, Note_on_c, 3, 65, 0
9, 61440, Note_on_c, 3, 65, 72
9, 61679, Note_on_c, 3, 65, 0
9, 61680, Note_on_c, 3, 65, 72
9, 62399, Note_on_c, 3, 65, 0
9, 62400, Note_on_c, 3, 67, 72
9, 62639, Note_on_c, 3, 67, 0
9, 62640, Note_on_c, 3, 60, 72
9, 62879, Note_on_c, 3, 60, 0
9, 62880, Note_on_c, 3, 60, 72
9, 63119, Note_on_c, 3, 60, 0
9, 63120, Note_on_c, 3, 65, 72
9, 63359, Note_on_c, 3, 65, 0
9, 63360, Note_on_c, 3, 67, 72
9, 63599, Note_on_c, 3, 67, 0
9, 63600, Note_on_c, 3, 69, 72
9, 63839, Note_on_c, 3, 69, 0
9, 63840, Note_on_c, 3, 70, 72
9, 64559, Note_on_c, 3, 70, 0
9, 64560, Note_on_c, 3, 70, 72
9, 64799, Note_on_c, 3, 70, 0
9, 64800, Note_on_c, 3, 72, 72
9, 65279, Note_on_c, 3, 72, 0
9, 65280, Note_on_c, 3, 69, 72
9, 65759, Note_on_c, 3, 69, 0
9, 65760, Note_on_c, 3, 69, 72
9, 65999, Note_on_c, 3, 69, 0
9, 66000, Note_on_c, 3, 70, 72
9, 66239, Note_on_c, 3, 70, 0
9, 66240, Note_on_c, 3, 67, 72
9, 66479, Note_on_c, 3, 67, 0
9, 66480, Note_on_c, 3, 65, 72
9, 66719, Note_on_c, 3, 65, 0
9, 66720, Note_on_c, 3, 65, 72
9, 66959, Note_on_c, 3, 65, 0
9, 66959, End_track
10, 0, Start_track
10, 0, Title_t, "Tenor Trombone"
10, 0, MIDI_port, 0
10, 0, Control_c, 3, 7, 96
10, 0, Control_c, 3, 10, 96
10, 0, Control_c, 3, 11, 127
10, 0, Program_c, 3, 57
10, 360, Note_on_c, 3, 58, 66
10, 479, Note_on_c, 3, 58, 0
10, 480, Note_on_c, 3, 53, 66
10, 599, Note_on_c, 3, 53, 0
10, 600, Note_on_c, 3, 58, 66
10, 719, Note_on_c, 3, 58, 0
10, 840, Note_on_c, 3, 58, 66
10, 959, Note_on_c, 3, 58, 0
10, 960, Note_on_c, 3, 53, 66
10, 1079, Note_on_c, 3, 53, 0
10, 1080, Note_on_c, 3, 58, 66
10, 1199, Note_on_c, 3, 58, 0
10, 1320, Note_on_c, 3, 58, 66
10, 1379, Note_on_c, 3, 58, 0
10, 1440, Note_on_c, 3, 58, 66
10, 1499, Note_on_c, 3, 58, 0
10, 1680, Note_on_c, 3, 58, 66
10, 1739, Note_on_c, 3, 58, 0
10, 2520, Note_on_c, 3, 55, 48
10, 2639, Note_on_c, 3, 55, 0
10, 2640, Note_on_c, 3, 55, 48
10, 2759, Note_on_c, 3, 55, 0
10, 2760, Note_on_c, 3, 55, 48
10, 2879, Note_on_c, 3, 55, 0
10, 2880, Note_on_c, 3, 55, 48
10, 3119, Note_on_c, 3, 55, 0
10, 9480, Note_on_c, 3, 64, 48
10, 9599, Note_on_c, 3, 64, 0
10, 9600, Note_on_c, 3, 65, 48
10, 9719, Note_on_c, 3, 65, 0
10, 9720, Note_on_c, 3, 60, 48
10, 9839, Note_on_c, 3, 60, 0
10, 10440, Note_on_c, 3, 64, 48
10, 10559, Note_on_c, 3, 64, 0
10, 10560, Note_on_c, 3, 65, 48
10, 10679, Note_on_c, 3, 65, 0
10, 10680, Note_on_c, 3, 60, 48
10, 10799, Note_on_c, 3, 60, 0
10, 11880, Note_on_c, 3, 65, 48
10, 11999, Note_on_c, 3, 65, 0
10, 12000, Note_on_c, 3, 64, 48
10, 12119, Note_on_c, 3, 64, 0
10, 12120, Note_on_c, 3, 67, 48
10, 12239, Note_on_c, 3, 67, 0
10, 12240, Note_on_c, 3, 60, 48
10, 12359, Note_on_c, 3, 60, 0
10, 12360, Note_on_c, 3, 64, 48
10, 12479, Note_on_c, 3, 64, 0
10, 12480, Note_on_c, 3, 65, 48
10, 13199, Note_on_c, 3, 65, 0
10, 13200, Note_on_c, 3, 64, 48
10, 13259, Note_on_c, 3, 64, 0
10, 13260, Note_on_c, 3, 62, 48
10, 13319, Note_on_c, 3, 62, 0
10, 13320, Note_on_c, 3, 60, 48
10, 13379, Note_on_c, 3, 60, 0
10, 13380, Note_on_c, 3, 58, 48
10, 13439, Note_on_c, 3, 58, 0
10, 13440, Note_on_c, 3, 57, 48
10, 13799, Note_on_c, 3, 57, 0
10, 13800, Note_on_c, 3, 58, 48
10, 13919, Note_on_c, 3, 58, 0
10, 13920, Note_on_c, 3, 57, 48
10, 14159, Note_on_c, 3, 57, 0
10, 14280, Note_on_c, 3, 50, 48
10, 14399, Note_on_c, 3, 50, 0
10, 14400, Note_on_c, 3, 62, 48
10, 14519, Note_on_c, 3, 62, 0
10, 14520, Note_on_c, 3, 60, 48
10, 14639, Note_on_c, 3, 60, 0
10, 14640, Note_on_c, 3, 59, 48
10, 14759, Note_on_c, 3, 59, 0
10, 14760, Note_on_c, 3, 57, 48
10, 14879, Note_on_c, 3, 57, 0
10, 14880, Note_on_c, 3, 55, 48
10, 15119, Note_on_c, 3, 55, 0
10, 15240, Note_on_c, 3, 62, 48
10, 15359, Note_on_c, 3, 62, 0
10, 15360, Note_on_c, 3, 60, 48
10, 15719, Note_on_c, 3, 60, 0
10, 15720, Note_on_c, 3, 60, 48
10, 15839, Note_on_c, 3, 60, 0
10, 15840, Note_on_c, 3, 65, 48
10, 15959, Note_on_c, 3, 65, 0
10, 15960, Note_on_c, 3, 57, 48
10, 16079, Note_on_c, 3, 57, 0
10, 16080, Note_on_c, 3, 58, 48
10, 16199, Note_on_c, 3, 58, 0
10, 16200, Note_on_c, 3, 58, 48
10, 16319, Note_on_c, 3, 58, 0
10, 16320, Note_on_c, 3, 57, 48
10, 16679, Note_on_c, 3, 57, 0
10, 16680, Note_on_c, 3, 55, 48
10, 16799, Note_on_c, 3, 55, 0
10, 16800, Note_on_c, 3, 57, 48
10, 16919, Note_on_c, 3, 57, 0
10, 16920, Note_on_c, 3, 57, 84
10, 17039, Note_on_c, 3, 57, 0
10, 17040, Note_on_c, 3, 57, 84
10, 17159, Note_on_c, 3, 57, 0
10, 17160, Note_on_c, 3, 57, 84
10, 17279, Note_on_c, 3, 57, 0
10, 17280, Note_on_c, 3, 57, 84
10, 17759, Note_on_c, 3, 57, 0
10, 17880, Note_on_c, 3, 65, 84
10, 17999, Note_on_c, 3, 65, 0
10, 18000, Note_on_c, 3, 65, 84
10, 18119, Note_on_c, 3, 65, 0
10, 18120, Note_on_c, 3, 65, 84
10, 18239, Note_on_c, 3, 65, 0
10, 18240, Note_on_c, 3, 65, 84
10, 18719, Note_on_c, 3, 65, 0
10, 18840, Note_on_c, 3, 62, 84
10, 18959, Note_on_c, 3, 62, 0
10, 18960, Note_on_c, 3, 62, 84
10, 19079, Note_on_c, 3, 62, 0
10, 19080, Note_on_c, 3, 62, 84
10, 19199, Note_on_c, 3, 62, 0
10, 19200, Note_on_c, 3, 62, 84
10, 19439, Note_on_c, 3, 62, 0
10, 23880, Note_on_c, 3, 63, 66
10, 23999, Note_on_c, 3, 63, 0
10, 24000, Note_on_c, 3, 63, 66
10, 24239, Note_on_c, 3, 63, 0
10, 24240, Note_on_c, 3, 62, 66
10, 24359, Note_on_c, 3, 62, 0
10, 24360, Note_on_c, 3, 60, 66
10, 24479, Note_on_c, 3, 60, 0
10, 24480, Note_on_c, 3, 58, 66
10, 24839, Note_on_c, 3, 58, 0
10, 24840, Note_on_c, 3, 62, 66
10, 24899, Note_on_c, 3, 62, 0
10, 24900, Note_on_c, 3, 60, 66
10, 24959, Note_on_c, 3, 60, 0
10, 24960, Note_on_c, 3, 58, 66
10, 25019, Note_on_c, 3, 58, 0
10, 25020, Note_on_c, 3, 57, 66
10, 25199, Note_on_c, 3, 57, 0
10, 35520, Note_on_c, 3, 53, 48
10, 37439, Note_on_c, 3, 53, 0
10, 43800, Note_on_c, 3, 58, 72
10, 43919, Note_on_c, 3, 58, 0
10, 43920, Note_on_c, 3, 62, 72
10, 44039, Note_on_c, 3, 62, 0
10, 44040, Note_on_c, 3, 58, 72
10, 44159, Note_on_c, 3, 58, 0
10, 44280, Note_on_c, 3, 58, 72
10, 44399, Note_on_c, 3, 58, 0
10, 44400, Note_on_c, 3, 62, 72
10, 44519, Note_on_c, 3, 62, 0
10, 44520, Note_on_c, 3, 58, 72
10, 44639, Note_on_c, 3, 58, 0
10, 44760, Note_on_c, 3, 55, 72
10, 44879, Note_on_c, 3, 55, 0
10, 44880, Note_on_c, 3, 58, 72
10, 44999, Note_on_c, 3, 58, 0
10, 45000, Note_on_c, 3, 55, 72
10, 45119, Note_on_c, 3, 55, 0
10, 45240, Note_on_c, 3, 55, 72
10, 45359, Note_on_c, 3, 55, 0
10, 45360, Note_on_c, 3, 55, 72
10, 45479, Note_on_c, 3, 55, 0
10, 45480, Note_on_c, 3, 55, 72
10, 45599, Note_on_c, 3, 55, 0
10, 45720, Note_on_c, 3, 57, 72
10, 45839, Note_on_c, 3, 57, 0
10, 45840, Note_on_c, 3, 57, 72
10, 45959, Note_on_c, 3, 57, 0
10, 45960, Note_on_c, 3, 57, 72
10, 46079, Note_on_c, 3, 57, 0
10, 46080, Note_on_c, 3, 58, 72
10, 46319, Note_on_c, 3, 58, 0
10, 47160, Note_on_c, 3, 53, 84
10, 47279, Note_on_c, 3, 53, 0
10, 47280, Note_on_c, 3, 53, 84
10, 47399, Note_on_c, 3, 53, 0
10, 47400, Note_on_c, 3, 53, 84
10, 47519, Note_on_c, 3, 53, 0
10, 47520, Note_on_c, 3, 53, 84
10, 47999, Note_on_c, 3, 53, 0
10, 48120, Note_on_c, 3, 58, 84
10, 48239, Note_on_c, 3, 58, 0
10, 48240, Note_on_c, 3, 58, 84
10, 48359, Note_on_c, 3, 58, 0
10, 48360, Note_on_c, 3, 58, 84
10, 48479, Note_on_c, 3, 58, 0
10, 48480, Note_on_c, 3, 58, 84
10, 48959, Note_on_c, 3, 58, 0
10, 49080, Note_on_c, 3, 58, 84
10, 49199, Note_on_c, 3, 58, 0
10, 49200, Note_on_c, 3, 58, 84
10, 49319, Note_on_c, 3, 58, 0
10, 49320, Note_on_c, 3, 58, 84
10, 49439, Note_on_c, 3, 58, 0
10, 49440, Note_on_c, 3, 60, 72
10, 49679, Note_on_c, 3, 60, 0
10, 49920, Note_on_c, 3, 58, 72
10, 50039, Note_on_c, 3, 58, 0
10, 50160, Note_on_c, 3, 58, 72
10, 50279, Note_on_c, 3, 58, 0
10, 50400, Note_on_c, 3, 58, 72
10, 50519, Note_on_c, 3, 58, 0
10, 50640, Note_on_c, 3, 57, 72
10, 50759, Note_on_c, 3, 57, 0
10, 50880, Note_on_c, 3, 58, 72
10, 51119, Note_on_c, 3, 58, 0
10, 51120, Note_on_c, 3, 58, 72
10, 51599, Note_on_c, 3, 58, 0
10, 51600, Note_on_c, 3, 57, 72
10, 51839, Note_on_c, 3, 57, 0
10, 51840, Note_on_c, 3, 63, 72
10, 52319, Note_on_c, 3, 63, 0
10, 52320, Note_on_c, 3, 62, 72
10, 52559, Note_on_c, 3, 62, 0
10, 52560, Note_on_c, 3, 58, 72
10, 52799, Note_on_c, 3, 58, 0
10, 52800, Note_on_c, 3, 65, 72
10, 53039, Note_on_c, 3, 65, 0
10, 53040, Note_on_c, 3, 67, 72
10, 53399, Note_on_c, 3, 67, 0
10, 53400, Note_on_c, 3, 65, 72
10, 53519, Note_on_c, 3, 65, 0
10, 53520, Note_on_c, 3, 63, 72
10, 53639, Note_on_c, 3, 63, 0
10, 53640, Note_on_c, 3, 62, 72
10, 53759, Note_on_c, 3, 62, 0
10, 53760, Note_on_c, 3, 60, 72
10, 53879, Note_on_c, 3, 60, 0
10, 53880, Note_on_c, 3, 58, 72
10, 53999, Note_on_c, 3, 58, 0
10, 54000, Note_on_c, 3, 57, 72
10, 54119, Note_on_c, 3, 57, 0
10, 54120, Note_on_c, 3, 58, 72
10, 54239, Note_on_c, 3, 58, 0
10, 54240, Note_on_c, 3, 55, 72
10, 54359, Note_on_c, 3, 55, 0
10, 54360, Note_on_c, 3, 57, 72
10, 54479, Note_on_c, 3, 57, 0
10, 54480, Note_on_c, 3, 58, 72
10, 54719, Note_on_c, 3, 58, 0
10, 54720, Note_on_c, 3, 55, 72
10, 54959, Note_on_c, 3, 55, 0
10, 54960, Note_on_c, 3, 60, 72
10, 55199, Note_on_c, 3, 60, 0
10, 55200, Note_on_c, 3, 53, 72
10, 55439, Note_on_c, 3, 53, 0
10, 55440, Note_on_c, 3, 55, 72
10, 55679, Note_on_c, 3, 55, 0
10, 55680, Note_on_c, 3, 57, 72
10, 55919, Note_on_c, 3, 57, 0
10, 55920, Note_on_c, 3, 58, 72
10, 56159, Note_on_c, 3, 58, 0
10, 56160, Note_on_c, 3, 60, 72
10, 56399, Note_on_c, 3, 60, 0
10, 56400, Note_on_c, 3, 62, 72
10, 56639, Note_on_c, 3, 62, 0
10, 56640, Note_on_c, 3, 58, 72
10, 57119, Note_on_c, 3, 58, 0
10, 57120, Note_on_c, 3, 60, 72
10, 57479, Note_on_c, 3, 60, 0
10, 57480, Note_on_c, 3, 58, 72
10, 57599, Note_on_c, 3, 58, 0
10, 57600, Note_on_c, 3, 57, 72
10, 57719, Note_on_c, 3, 57, 0
10, 57720, Note_on_c, 3, 58, 72
10, 57839, Note_on_c, 3, 58, 0
10, 57840, Note_on_c, 3, 55, 72
10, 57959, Note_on_c, 3, 55, 0
10, 57960, Note_on_c, 3, 57, 72
10, 58079, Note_on_c, 3, 57, 0
10, 58080, Note_on_c, 3, 58, 72
10, 58319, Note_on_c, 3, 58, 0
10, 58320, Note_on_c, 3, 60, 72
10, 58559, Note_on_c, 3, 60, 0
10, 58560, Note_on_c, 3, 62, 72
10, 58799, Note_on_c, 3, 62, 0
10, 58800, Note_on_c, 3, 63, 72
10, 59039, Note_on_c, 3, 63, 0
10, 59040, Note_on_c, 3, 65, 72
10, 59279, Note_on_c, 3, 65, 0
10, 59280, Note_on_c, 3, 67, 72
10, 59399, Note_on_c, 3, 67, 0
10, 59400, Note_on_c, 3, 65, 72
10, 59519, Note_on_c, 3, 65, 0
10, 59520, Note_on_c, 3, 63, 72
10, 59639, Note_on_c, 3, 63, 0
10, 59640, Note_on_c, 3, 62, 72
10, 59759, Note_on_c, 3, 62, 0
10, 59760, Note_on_c, 3, 60, 72
10, 59879, Note_on_c, 3, 60, 0
10, 59880, Note_on_c, 3, 62, 72
10, 59999, Note_on_c, 3, 62, 0
10, 60000, Note_on_c, 3, 58, 72
10, 60119, Note_on_c, 3, 58, 0
10, 60120, Note_on_c, 3, 60, 72
10, 60239, Note_on_c, 3, 60, 0
10, 60240, Note_on_c, 3, 62, 72
10, 60359, Note_on_c, 3, 62, 0
10, 60360, Note_on_c, 3, 63, 72
10, 60479, Note_on_c, 3, 63, 0
10, 60480, Note_on_c, 3, 65, 72
10, 60599, Note_on_c, 3, 65, 0
10, 60600, Note_on_c, 3, 67, 72
10, 60719, Note_on_c, 3, 67, 0
10, 60720, Note_on_c, 3, 62, 72
10, 60839, Note_on_c, 3, 62, 0
10, 60840, Note_on_c, 3, 64, 72
10, 60959, Note_on_c, 3, 64, 0
10, 60960, Note_on_c, 3, 65, 72
10, 61439, Note_on_c, 3, 65, 0
10, 61440, Note_on_c, 3, 63, 72
10, 61679, Note_on_c, 3, 63, 0
10, 61680, Note_on_c, 3, 62, 72
10, 61919, Note_on_c, 3, 62, 0
10, 62640, Note_on_c, 3, 58, 72
10, 63119, Note_on_c, 3, 58, 0
10, 63120, Note_on_c, 3, 57, 72
10, 63359, Note_on_c, 3, 57, 0
10, 63360, Note_on_c, 3, 63, 72
10, 63839, Note_on_c, 3, 63, 0
10, 63840, Note_on_c, 3, 62, 72
10, 64079, Note_on_c, 3, 62, 0
10, 64080, Note_on_c, 3, 58, 72
10, 64319, Note_on_c, 3, 58, 0
10, 64320, Note_on_c, 3, 65, 72
10, 64559, Note_on_c, 3, 65, 0
10, 64560, Note_on_c, 3, 67, 72
10, 65039, Note_on_c, 3, 67, 0
10, 65040, Note_on_c, 3, 63, 72
10, 65279, Note_on_c, 3, 63, 0
10, 65280, Note_on_c, 3, 63, 72
10, 65759, Note_on_c, 3, 63, 0
10, 65760, Note_on_c, 3, 60, 72
10, 65999, Note_on_c, 3, 60, 0
10, 66000, Note_on_c, 3, 58, 72
10, 66479, Note_on_c, 3, 58, 0
10, 66480, Note_on_c, 3, 57, 72
10, 66719, Note_on_c, 3, 57, 0
10, 66720, Note_on_c, 3, 58, 72
10, 66959, Note_on_c, 3, 58, 0
10, 66959, End_track
11, 0, Start_track
11, 0, Title_t, "Baritone Trombone"
11, 0, MIDI_port, 0
11, 0, Control_c, 3, 7, 96
11, 0, Control_c, 3, 10, 96
11, 0, Control_c, 3, 11, 127
11, 0, Program_c, 3, 57
11, 16920, Note_on_c, 3, 53, 84
11, 17039, Note_on_c, 3, 53, 0
11, 17040, Note_on_c, 3, 53, 84
11, 17159, Note_on_c, 3, 53, 0
11, 17160, Note_on_c, 3, 53, 84
11, 17279, Note_on_c, 3, 53, 0
11, 17280, Note_on_c, 3, 53, 84
11, 17759, Note_on_c, 3, 53, 0
11, 17880, Note_on_c, 3, 50, 84
11, 17999, Note_on_c, 3, 50, 0
11, 18000, Note_on_c, 3, 50, 84
11, 18119, Note_on_c, 3, 50, 0
11, 18120, Note_on_c, 3, 50, 84
11, 18239, Note_on_c, 3, 50, 0
11, 18240, Note_on_c, 3, 50, 84
11, 18719, Note_on_c, 3, 50, 0
11, 18840, Note_on_c, 3, 46, 84
11, 18959, Note_on_c, 3, 46, 0
11, 18960, Note_on_c, 3, 46, 84
11, 19079, Note_on_c, 3, 46, 0
11, 19080, Note_on_c, 3, 46, 84
11, 19199, Note_on_c, 3, 46, 0
11, 19200, Note_on_c, 3, 46, 84
11, 19439, Note_on_c, 3, 46, 0
11, 47160, Note_on_c, 3, 46, 84
11, 47279, Note_on_c, 3, 46, 0
11, 47280, Note_on_c, 3, 46, 84
11, 47399, Note_on_c, 3, 46, 0
11, 47400, Note_on_c, 3, 46, 84
11, 47519, Note_on_c, 3, 46, 0
11, 47520, Note_on_c, 3, 46, 84
11, 47999, Note_on_c, 3, 46, 0
11, 48120, Note_on_c, 3, 55, 84
11, 48239, Note_on_c, 3, 55, 0
11, 48240, Note_on_c, 3, 55, 84
11, 48359, Note_on_c, 3, 55, 0
11, 48360, Note_on_c, 3, 55, 84
11, 48479, Note_on_c, 3, 55, 0
11, 48480, Note_on_c, 3, 55, 84
11, 48959, Note_on_c, 3, 55, 0
11, 49080, Note_on_c, 3, 51, 84
11, 49199, Note_on_c, 3, 51, 0
11, 49200, Note_on_c, 3, 51, 84
11, 49319, Note_on_c, 3, 51, 0
11, 49320, Note_on_c, 3, 51, 84
11, 49439, Note_on_c, 3, 51, 0
11, 49440, Note_on_c, 3, 45, 72
11, 49679, Note_on_c, 3, 45, 0
11, 49920, Note_on_c, 3, 46, 72
11, 50039, Note_on_c, 3, 46, 0
11, 50160, Note_on_c, 3, 51, 72
11, 50279, Note_on_c, 3, 51, 0
11, 50400, Note_on_c, 3, 53, 72
11, 50519, Note_on_c, 3, 53, 0
11, 50640, Note_on_c, 3, 53, 72
11, 50759, Note_on_c, 3, 53, 0
11, 50880, Note_on_c, 3, 46, 72
11, 51119, Note_on_c, 3, 46, 0
11, 59760, Note_on_c, 3, 53, 72
11, 60239, Note_on_c, 3, 53, 0
11, 60240, Note_on_c, 3, 50, 72
11, 60479, Note_on_c, 3, 50, 0
11, 60480, Note_on_c, 3, 58, 72
11, 60959, Note_on_c, 3, 58, 0
11, 60960, Note_on_c, 3, 57, 72
11, 61199, Note_on_c, 3, 57, 0
11, 61200, Note_on_c, 3, 53, 72
11, 61439, Note_on_c, 3, 53, 0
11, 61440, Note_on_c, 3, 60, 72
11, 61679, Note_on_c, 3, 60, 0
11, 61680, Note_on_c, 3, 62, 72
11, 62039, Note_on_c, 3, 62, 0
11, 62040, Note_on_c, 3, 60, 72
11, 62159, Note_on_c, 3, 60, 0
11, 62160, Note_on_c, 3, 58, 72
11, 62279, Note_on_c, 3, 58, 0
11, 62280, Note_on_c, 3, 57, 72
11, 62399, Note_on_c, 3, 57, 0
11, 62400, Note_on_c, 3, 55, 72
11, 62519, Note_on_c, 3, 55, 0
11, 62520, Note_on_c, 3, 53, 72
11, 62639, Note_on_c, 3, 53, 0
11, 62640, Note_on_c, 3, 52, 72
11, 62759, Note_on_c, 3, 52, 0
11, 62760, Note_on_c, 3, 53, 72
11, 62879, Note_on_c, 3, 53, 0
11, 62880, Note_on_c, 3, 50, 72
11, 62999, Note_on_c, 3, 50, 0
11, 63000, Note_on_c, 3, 52, 72
11, 63119, Note_on_c, 3, 52, 0
11, 63120, Note_on_c, 3, 53, 72
11, 63239, Note_on_c, 3, 53, 0
11, 63240, Note_on_c, 3, 51, 72
11, 63359, Note_on_c, 3, 51, 0
11, 63360, Note_on_c, 3, 50, 72
11, 63479, Note_on_c, 3, 50, 0
11, 63480, Note_on_c, 3, 51, 72
11, 63599, Note_on_c, 3, 51, 0
11, 63600, Note_on_c, 3, 48, 72
11, 63719, Note_on_c, 3, 48, 0
11, 63720, Note_on_c, 3, 50, 72
11, 63839, Note_on_c, 3, 50, 0
11, 63840, Note_on_c, 3, 46, 72
11, 64319, Note_on_c, 3, 46, 0
11, 64320, Note_on_c, 3, 58, 72
11, 64559, Note_on_c, 3, 58, 0
11, 64560, Note_on_c, 3, 51, 72
11, 65039, Note_on_c, 3, 51, 0
11, 65040, Note_on_c, 3, 51, 72
11, 65279, Note_on_c, 3, 51, 0
11, 65280, Note_on_c, 3, 53, 72
11, 65759, Note_on_c, 3, 53, 0
11, 65760, Note_on_c, 3, 53, 72
11, 65999, Note_on_c, 3, 53, 0
11, 66000, Note_on_c, 3, 55, 72
11, 66239, Note_on_c, 3, 55, 0
11, 66240, Note_on_c, 3, 51, 72
11, 66479, Note_on_c, 3, 51, 0
11, 66480, Note_on_c, 3, 53, 72
11, 66719, Note_on_c, 3, 53, 0
11, 66720, Note_on_c, 3, 46, 72
11, 66959, Note_on_c, 3, 46, 0
11, 66959, End_track
12, 0, Start_track
12, 0, Title_t, "Violin I"
12, 0, MIDI_port, 0
12, 0, Program_c, 4, 48
12, 0, Control_c, 4, 7, 96
12, 0, Control_c, 4, 10, 48
12, 0, Control_c, 4, 11, 127
12, 0, Note_on_c, 4, 65, 66
12, 359, Note_on_c, 4, 65, 0
12, 360, Note_on_c, 4, 74, 66
12, 479, Note_on_c, 4, 74, 0
12, 480, Note_on_c, 4, 72, 66
12, 539, Note_on_c, 4, 72, 0
12, 540, Note_on_c, 4, 69, 66
12, 599, Note_on_c, 4, 69, 0
12, 600, Note_on_c, 4, 70, 66
12, 659, Note_on_c, 4, 70, 0
12, 660, Note_on_c, 4, 70, 66
12, 689, Note_on_c, 4, 70, 0
12, 720, Note_on_c, 4, 74, 66
12, 779, Note_on_c, 4, 74, 0
12, 780, Note_on_c, 4, 77, 66
12, 839, Note_on_c, 4, 77, 0
12, 840, Note_on_c, 4, 82, 66
12, 899, Note_on_c, 4, 82, 0
12, 900, Note_on_c, 4, 86, 66
12, 959, Note_on_c, 4, 86, 0
12, 960, Note_on_c, 4, 84, 66
12, 1019, Note_on_c, 4, 84, 0
12, 1020, Note_on_c, 4, 81, 66
12, 1079, Note_on_c, 4, 81, 0
12, 1080, Note_on_c, 4, 82, 66
12, 1139, Note_on_c, 4, 82, 0
12, 1320, Note_on_c, 4, 82, 66
12, 1439, Note_on_c, 4, 82, 0
12, 1440, Note_on_c, 4, 82, 66
12, 1559, Note_on_c, 4, 82, 0
12, 1560, Note_on_c, 4, 81, 66
12, 1619, Note_on_c, 4, 81, 0
12, 1620, Note_on_c, 4, 82, 66
12, 1679, Note_on_c, 4, 82, 0
12, 1680, Note_on_c, 4, 84, 66
12, 1739, Note_on_c, 4, 84, 0
12, 1740, Note_on_c, 4, 82, 66
12, 1799, Note_on_c, 4, 82, 0
12, 1800, Note_on_c, 4, 81, 66
12, 1859, Note_on_c, 4, 81, 0
12, 1860, Note_on_c, 4, 79, 66
12, 1919, Note_on_c, 4, 79, 0
12, 1920, Note_on_c, 4, 77, 66
12, 2099, Note_on_c, 4, 77, 0
12, 2100, Note_on_c, 4, 75, 66
12, 2159, Note_on_c, 4, 75, 0
12, 2160, Note_on_c, 4, 75, 66
12, 2174, Note_on_c, 4, 75, 0
12, 2175, Note_on_c, 4, 77, 66
12, 2189, Note_on_c, 4, 77, 0
12, 2190, Note_on_c, 4, 75, 66
12, 2204, Note_on_c, 4, 75, 0
12, 2205, Note_on_c, 4, 77, 66
12, 2219, Note_on_c, 4, 77, 0
12, 2220, Note_on_c, 4, 75, 66
12, 2234, Note_on_c, 4, 75, 0
12, 2235, Note_on_c, 4, 77, 66
12, 2249, Note_on_c, 4, 77, 0
12, 2250, Note_on_c, 4, 75, 66
12, 2264, Note_on_c, 4, 75, 0
12, 2265, Note_on_c, 4, 77, 66
12, 2279, Note_on_c, 4, 77, 0
12, 2280, Note_on_c, 4, 75, 66
12, 2294, Note_on_c, 4, 75, 0
12, 2295, Note_on_c, 4, 77, 66
12, 2309, Note_on_c, 4, 77, 0
12, 2310, Note_on_c, 4, 75, 66
12, 2324, Note_on_c, 4, 75, 0
12, 2325, Note_on_c, 4, 77, 66
12, 2339, Note_on_c, 4, 77, 0
12, 2340, Note_on_c, 4, 75, 66
12, 2354, Note_on_c, 4, 75, 0
12, 2355, Note_on_c, 4, 77, 66
12, 2369, Note_on_c, 4, 77, 0
12, 2370, Note_on_c, 4, 74, 66
12, 2384, Note_on_c, 4, 74, 0
12, 2385, Note_on_c, 4, 75, 66
12, 2399, Note_on_c, 4, 75, 0
12, 2400, Note_on_c, 4, 74, 66
12, 2639, Note_on_c, 4, 74, 0
12, 2880, Note_on_c, 4, 65, 48
12, 3239, Note_on_c, 4, 65, 0
12, 3240, Note_on_c, 4, 74, 48
12, 3359, Note_on_c, 4, 74, 0
12, 3360, Note_on_c, 4, 72, 48
12, 3419, Note_on_c, 4, 72, 0
12, 3420, Note_on_c, 4, 69, 48
12, 3479, Note_on_c, 4, 69, 0
12, 3480, Note_on_c, 4, 70, 48
12, 3539, Note_on_c, 4, 70, 0
12, 3540, Note_on_c, 4, 70, 48
12, 3569, Note_on_c, 4, 70, 0
12, 3600, Note_on_c, 4, 74, 48
12, 3659, Note_on_c, 4, 74, 0
12, 3660, Note_on_c, 4, 77, 48
12, 3719, Note_on_c, 4, 77, 0
12, 3720, Note_on_c, 4, 82, 48
12, 3779, Note_on_c, 4, 82, 0
12, 3780, Note_on_c, 4, 86, 48
12, 3839, Note_on_c, 4, 86, 0
12, 3840, Note_on_c, 4, 84, 48
12, 3899, Note_on_c, 4, 84, 0
12, 3900, Note_on_c, 4, 81, 48
12, 3959, Note_on_c, 4, 81, 0
12, 3960, Note_on_c, 4, 82, 48
12, 4019, Note_on_c, 4, 82, 0
12, 4200, Note_on_c, 4, 82, 48
12, 4319, Note_on_c, 4, 82, 0
12, 4320, Note_on_c, 4, 82, 48
12, 4439, Note_on_c, 4, 82, 0
12, 4440, Note_on_c, 4, 81, 48
12, 4499, Note_on_c, 4, 81, 0
12, 4500, Note_on_c, 4, 82, 48
12, 4559, Note_on_c, 4, 82, 0
12, 4560, Note_on_c, 4, 84, 48
12, 4619, Note_on_c, 4, 84, 0
12, 4620, Note_on_c, 4, 82, 48
12, 4679, Note_on_c, 4, 82, 0
12, 4680, Note_on_c, 4, 81, 48
12, 4739, Note_on_c, 4, 81, 0
12, 4740, Note_on_c, 4, 79, 48
12, 4799, Note_on_c, 4, 79, 0
12, 4800, Note_on_c, 4, 77, 48
12, 5039, Note_on_c, 4, 77, 0
12, 5040, Note_on_c, 4, 75, 48
12, 5054, Note_on_c, 4, 75, 0
12, 5055, Note_on_c, 4, 77, 48
12, 5069, Note_on_c, 4, 77, 0
12, 5070, Note_on_c, 4, 75, 48
12, 5084, Note_on_c, 4, 75, 0
12, 5085, Note_on_c, 4, 77, 48
12, 5099, Note_on_c, 4, 77, 0
12, 5100, Note_on_c, 4, 75, 48
12, 5114, Note_on_c, 4, 75, 0
12, 5115, Note_on_c, 4, 77, 48
12, 5129, Note_on_c, 4, 77, 0
12, 5130, Note_on_c, 4, 75, 48
12, 5144, Note_on_c, 4, 75, 0
12, 5145, Note_on_c, 4, 77, 48
12, 5159, Note_on_c, 4, 77, 0
12, 5160, Note_on_c, 4, 75, 48
12, 5174, Note_on_c, 4, 75, 0
12, 5175, Note_on_c, 4, 77, 48
12, 5189, Note_on_c, 4, 77, 0
12, 5190, Note_on_c, 4, 75, 48
12, 5204, Note_on_c, 4, 75, 0
12, 5205, Note_on_c, 4, 77, 48
12, 5219, Note_on_c, 4, 77, 0
12, 5220, Note_on_c, 4, 74, 48
12, 5279, Note_on_c, 4, 74, 0
12, 5280, Note_on_c, 4, 74, 48
12, 5519, Note_on_c, 4, 74, 0
12, 5640, Note_on_c, 4, 74, 48
12, 5759, Note_on_c, 4, 74, 0
12, 5760, Note_on_c, 4, 77, 48
12, 5879, Note_on_c, 4, 77, 0
12, 5880, Note_on_c, 4, 74, 48
12, 5999, Note_on_c, 4, 74, 0
12, 6120, Note_on_c, 4, 74, 48
12, 6239, Note_on_c, 4, 74, 0
12, 6240, Note_on_c, 4, 77, 48
12, 6359, Note_on_c, 4, 77, 0
12, 6360, Note_on_c, 4, 72, 48
12, 6479, Note_on_c, 4, 72, 0
12, 6600, Note_on_c, 4, 72, 48
12, 6719, Note_on_c, 4, 72, 0
12, 6720, Note_on_c, 4, 77, 48
12, 6839, Note_on_c, 4, 77, 0
12, 6840, Note_on_c, 4, 76, 48
12, 6959, Note_on_c, 4, 76, 0
12, 6960, Note_on_c, 4, 74, 48
12, 7079, Note_on_c, 4, 74, 0
12, 7080, Note_on_c, 4, 72, 48
12, 7199, Note_on_c, 4, 72, 0
12, 7200, Note_on_c, 4, 70, 48
12, 7259, Note_on_c, 4, 70, 0
12, 7320, Note_on_c, 4, 74, 48
12, 7439, Note_on_c, 4, 74, 0
12, 7440, Note_on_c, 4, 76, 48
12, 7559, Note_on_c, 4, 76, 0
12, 7560, Note_on_c, 4, 77, 48
12, 7679, Note_on_c, 4, 77, 0
12, 7680, Note_on_c, 4, 79, 48
12, 7919, Note_on_c, 4, 79, 0
12, 8280, Note_on_c, 4, 72, 48
12, 8519, Note_on_c, 4, 72, 0
12, 8520, Note_on_c, 4, 70, 48
12, 8639, Note_on_c, 4, 70, 0
12, 8640, Note_on_c, 4, 69, 60
12, 8879, Note_on_c, 4, 69, 0
12, 9000, Note_on_c, 4, 81, 60
12, 9059, Note_on_c, 4, 81, 0
12, 9120, Note_on_c, 4, 82, 60
12, 9299, Note_on_c, 4, 82, 0
12, 9300, Note_on_c, 4, 79, 60
12, 9359, Note_on_c, 4, 79, 0
12, 9360, Note_on_c, 4, 76, 60
12, 9419, Note_on_c, 4, 76, 0
12, 9420, Note_on_c, 4, 72, 60
12, 9449, Note_on_c, 4, 72, 0
12, 9480, Note_on_c, 4, 72, 60
12, 9509, Note_on_c, 4, 72, 0
12, 9540, Note_on_c, 4, 72, 60
12, 9569, Note_on_c, 4, 72, 0
12, 9600, Note_on_c, 4, 72, 60
12, 9719, Note_on_c, 4, 72, 0
12, 9720, Note_on_c, 4, 77, 60
12, 9839, Note_on_c, 4, 77, 0
12, 9840, Note_on_c, 4, 72, 60
12, 9959, Note_on_c, 4, 72, 0
12, 9960, Note_on_c, 4, 81, 60
12, 10019, Note_on_c, 4, 81, 0
12, 10080, Note_on_c, 4, 82, 60
12, 10259, Note_on_c, 4, 82, 0
12, 10260, Note_on_c, 4, 79, 60
12, 10319, Note_on_c, 4, 79, 0
12, 10320, Note_on_c, 4, 76, 60
12, 10379, Note_on_c, 4, 76, 0
12, 10380, Note_on_c, 4, 72, 60
12, 10409, Note_on_c, 4, 72, 0
12, 10440, Note_on_c, 4, 72, 60
12, 10469, Note_on_c, 4, 72, 0
12, 10500, Note_on_c, 4, 72, 60
12, 10529, Note_on_c, 4, 72, 0
12, 10560, Note_on_c, 4, 72, 60
12, 10679, Note_on_c, 4, 72, 0
12, 10680, Note_on_c, 4, 77, 60
12, 10799, Note_on_c, 4, 77, 0
12, 10800, Note_on_c, 4, 81, 60
12, 10919, Note_on_c, 4, 81, 0
12, 10920, Note_on_c, 4, 79, 60
12, 11039, Note_on_c, 4, 79, 0
12, 11040, Note_on_c, 4, 78, 60
12, 11159, Note_on_c, 4, 78, 0
12, 11160, Note_on_c, 4, 81, 60
12, 11279, Note_on_c, 4, 81, 0
12, 11280, Note_on_c, 4, 74, 60
12, 11399, Note_on_c, 4, 74, 0
12, 11400, Note_on_c, 4, 76, 60
12, 11459, Note_on_c, 4, 76, 0
12, 11460, Note_on_c, 4, 78, 60
12, 11519, Note_on_c, 4, 78, 0
12, 11520, Note_on_c, 4, 79, 60
12, 11879, Note_on_c, 4, 79, 0
12, 11880, Note_on_c, 4, 77, 60
12, 11999, Note_on_c, 4, 77, 0
12, 12000, Note_on_c, 4, 76, 60
12, 12119, Note_on_c, 4, 76, 0
12, 12120, Note_on_c, 4, 79, 60
12, 12239, Note_on_c, 4, 79, 0
12, 12240, Note_on_c, 4, 72, 60
12, 12359, Note_on_c, 4, 72, 0
12, 12360, Note_on_c, 4, 74, 60
12, 12419, Note_on_c, 4, 74, 0
12, 12420, Note_on_c, 4, 76, 60
12, 12479, Note_on_c, 4, 76, 0
12, 12480, Note_on_c, 4, 77, 60
12, 12599, Note_on_c, 4, 77, 0
12, 12600, Note_on_c, 4, 77, 60
12, 12839, Note_on_c, 4, 77, 0
12, 12840, Note_on_c, 4, 77, 60
12, 12959, Note_on_c, 4, 77, 0
12, 12960, Note_on_c, 4, 85, 60
12, 13079, Note_on_c, 4, 85, 0
12, 13080, Note_on_c, 4, 86, 60
12, 13199, Note_on_c, 4, 86, 0
12, 13200, Note_on_c, 4, 84, 60
12, 13259, Note_on_c, 4, 84, 0
12, 13260, Note_on_c, 4, 82, 60
12, 13319, Note_on_c, 4, 82, 0
12, 13320, Note_on_c, 4, 81, 60
12, 13379, Note_on_c, 4, 81, 0
12, 13380, Note_on_c, 4, 79, 60
12, 13439, Note_on_c, 4, 79, 0
12, 13440, Note_on_c, 4, 77, 60
12, 13769, Note_on_c, 4, 77, 0
12, 13770, Note_on_c, 4, 81, 60
12, 13799, Note_on_c, 4, 81, 0
12, 13800, Note_on_c, 4, 79, 60
12, 13919, Note_on_c, 4, 79, 0
12, 13920, Note_on_c, 4, 77, 60
12, 14039, Note_on_c, 4, 77, 0
12, 14040, Note_on_c, 4, 74, 60
12, 14099, Note_on_c, 4, 74, 0
12, 14160, Note_on_c, 4, 77, 60
12, 14279, Note_on_c, 4, 77, 0
12, 14280, Note_on_c, 4, 74, 60
12, 14399, Note_on_c, 4, 74, 0
12, 14760, Note_on_c, 4, 77, 60
12, 14879, Note_on_c, 4, 77, 0
12, 14880, Note_on_c, 4, 77, 60
12, 14999, Note_on_c, 4, 77, 0
12, 15000, Note_on_c, 4, 81, 60
12, 15119, Note_on_c, 4, 81, 0
12, 15120, Note_on_c, 4, 79, 60
12, 15239, Note_on_c, 4, 79, 0
12, 15240, Note_on_c, 4, 77, 60
12, 15359, Note_on_c, 4, 77, 0
12, 15360, Note_on_c, 4, 77, 60
12, 15419, Note_on_c, 4, 77, 0
12, 15420, Note_on_c, 4, 76, 60
12, 15479, Note_on_c, 4, 76, 0
12, 15480, Note_on_c, 4, 77, 60
12, 15539, Note_on_c, 4, 77, 0
12, 15540, Note_on_c, 4, 79, 60
12, 15599, Note_on_c, 4, 79, 0
12, 15600, Note_on_c, 4, 70, 60
12, 15659, Note_on_c, 4, 70, 0
12, 15720, Note_on_c, 4, 70, 60
12, 15779, Note_on_c, 4, 70, 0
12, 15840, Note_on_c, 4, 69, 60
12, 15959, Note_on_c, 4, 69, 0
12, 15960, Note_on_c, 4, 72, 60
12, 16079, Note_on_c, 4, 72, 0
12, 16080, Note_on_c, 4, 70, 60
12, 16199, Note_on_c, 4, 70, 0
12, 16200, Note_on_c, 4, 74, 60
12, 16319, Note_on_c, 4, 74, 0
12, 16320, Program_c, 4, 44
12, 16320, Note_on_c, 4, 65, 60
12, 16559, Note_on_c, 4, 65, 0
12, 16560, Program_c, 4, 48
12, 16560, Note_on_c, 4, 65, 60
12, 16619, Note_on_c, 4, 65, 0
12, 16620, Note_on_c, 4, 65, 60
12, 16679, Note_on_c, 4, 65, 0
12, 16680, Note_on_c, 4, 67, 60
12, 16739, Note_on_c, 4, 67, 0
12, 16740, Note_on_c, 4, 67, 60
12, 16799, Note_on_c, 4, 67, 0
12, 16800, Note_on_c, 4, 65, 60
12, 17039, Note_on_c, 4, 65, 0
12, 17370, Note_on_c, 4, 67, 84
12, 17399, Note_on_c, 4, 67, 0
12, 17400, Note_on_c, 4, 65, 84
12, 17459, Note_on_c, 4, 65, 0
12, 17460, Note_on_c, 4, 63, 84
12, 17489, Note_on_c, 4, 63, 0
12, 17490, Note_on_c, 4, 65, 84
12, 17519, Note_on_c, 4, 65, 0
12, 17520, Note_on_c, 4, 69, 84
12, 17579, Note_on_c, 4, 69, 0
12, 17640, Note_on_c, 4, 65, 84
12, 17699, Note_on_c, 4, 65, 0
12, 17760, Note_on_c, 4, 62, 84
12, 17999, Note_on_c, 4, 62, 0
12, 18330, Note_on_c, 4, 64, 84
12, 18359, Note_on_c, 4, 64, 0
12, 18360, Note_on_c, 4, 62, 84
12, 18419, Note_on_c, 4, 62, 0
12, 18420, Note_on_c, 4, 61, 84
12, 18449, Note_on_c, 4, 61, 0
12, 18450, Note_on_c, 4, 62, 84
12, 18479, Note_on_c, 4, 62, 0
12, 18480, Note_on_c, 4, 65, 84
12, 18539, Note_on_c, 4, 65, 0
12, 18600, Note_on_c, 4, 62, 84
12, 18659, Note_on_c, 4, 62, 0
12, 18720, Note_on_c, 4, 58, 84
12, 18959, Note_on_c, 4, 58, 0
12, 19200, Note_on_c, 4, 77, 84
12, 19200, Note_on_c, 4, 70, 84
12, 19200, Note_on_c, 4, 62, 84
12, 19439, Note_on_c, 4, 77, 0
12, 19439, Note_on_c, 4, 70, 0
12, 19439, Note_on_c, 4, 62, 0
12, 21120, Note_on_c, 4, 77, 66
12, 21479, Note_on_c, 4, 77, 0
12, 21480, Note_on_c, 4, 77, 66
12, 21599, Note_on_c, 4, 77, 0
12, 21600, Note_on_c, 4, 81, 66
12, 21719, Note_on_c, 4, 81, 0
12, 21720, Note_on_c, 4, 77, 66
12, 21839, Note_on_c, 4, 77, 0
12, 21840, Note_on_c, 4, 72, 66
12, 21959, Note_on_c, 4, 72, 0
12, 21960, Note_on_c, 4, 77, 66
12, 22079, Note_on_c, 4, 77, 0
12, 22080, Note_on_c, 4, 81, 66
12, 22199, Note_on_c, 4, 81, 0
12, 22200, Note_on_c, 4, 77, 66
12, 22319, Note_on_c, 4, 77, 0
12, 22320, Note_on_c, 4, 72, 66
12, 22439, Note_on_c, 4, 72, 0
12, 22440, Note_on_c, 4, 81, 66
12, 22559, Note_on_c, 4, 81, 0
12, 22560, Note_on_c, 4, 84, 66
12, 22679, Note_on_c, 4, 84, 0
12, 22680, Note_on_c, 4, 81, 66
12, 22799, Note_on_c, 4, 81, 0
12, 22800, Note_on_c, 4, 77, 66
12, 22919, Note_on_c, 4, 77, 0
12, 22920, Note_on_c, 4, 81, 66
12, 23039, Note_on_c, 4, 81, 0
12, 23040, Note_on_c, 4, 84, 66
12, 23159, Note_on_c, 4, 84, 0
12, 23160, Note_on_c, 4, 81, 66
12, 23279, Note_on_c, 4, 81, 0
12, 23280, Note_on_c, 4, 77, 66
12, 23399, Note_on_c, 4, 77, 0
12, 23400, Note_on_c, 4, 81, 66
12, 23519, Note_on_c, 4, 81, 0
12, 23520, Note_on_c, 4, 84, 66
12, 23639, Note_on_c, 4, 84, 0
12, 23640, Note_on_c, 4, 72, 66
12, 23759, Note_on_c, 4, 72, 0
12, 23760, Note_on_c, 4, 75, 66
12, 23879, Note_on_c, 4, 75, 0
12, 23880, Note_on_c, 4, 79, 66
12, 23999, Note_on_c, 4, 79, 0
12, 24000, Note_on_c, 4, 79, 66
12, 24119, Note_on_c, 4, 79, 0
12, 24120, Note_on_c, 4, 72, 66
12, 24239, Note_on_c, 4, 72, 0
12, 24240, Note_on_c, 4, 77, 66
12, 24359, Note_on_c, 4, 77, 0
12, 24360, Note_on_c, 4, 75, 66
12, 24479, Note_on_c, 4, 75, 0
12, 24480, Note_on_c, 4, 75, 66
12, 24539, Note_on_c, 4, 75, 0
12, 24540, Note_on_c, 4, 74, 66
12, 24599, Note_on_c, 4, 74, 0
12, 24600, Note_on_c, 4, 74, 66
12, 24629, Note_on_c, 4, 74, 0
12, 24660, Note_on_c, 4, 74, 66
12, 24689, Note_on_c, 4, 74, 0
12, 24720, Note_on_c, 4, 74, 66
12, 24779, Note_on_c, 4, 74, 0
12, 24780, Note_on_c, 4, 70, 66
12, 24839, Note_on_c, 4, 70, 0
12, 24840, Note_on_c, 4, 77, 66
12, 24899, Note_on_c, 4, 77, 0
12, 24900, Note_on_c, 4, 75, 66
12, 24959, Note_on_c, 4, 75, 0
12, 24960, Note_on_c, 4, 74, 66
12, 25079, Note_on_c, 4, 74, 0
12, 25080, Note_on_c, 4, 72, 66
12, 25139, Note_on_c, 4, 72, 0
12, 25140, Note_on_c, 4, 77, 66
12, 25169, Note_on_c, 4, 77, 0
12, 25200, Note_on_c, 4, 77, 66
12, 25259, Note_on_c, 4, 77, 0
12, 25260, Note_on_c, 4, 76, 66
12, 25319, Note_on_c, 4, 76, 0
12, 25320, Note_on_c, 4, 79, 75
12, 25379, Note_on_c, 4, 79, 0
12, 25380, Note_on_c, 4, 77, 72
12, 25439, Note_on_c, 4, 77, 0
12, 25440, Note_on_c, 4, 75, 48
12, 25499, Note_on_c, 4, 75, 0
12, 25500, Note_on_c, 4, 74, 48
12, 25559, Note_on_c, 4, 74, 0
12, 25560, Note_on_c, 4, 77, 75
12, 25619, Note_on_c, 4, 77, 0
12, 25620, Note_on_c, 4, 75, 72
12, 25679, Note_on_c, 4, 75, 0
12, 25680, Note_on_c, 4, 72, 72
12, 25739, Note_on_c, 4, 72, 0
12, 25740, Note_on_c, 4, 69, 72
12, 25799, Note_on_c, 4, 69, 0
12, 25800, Note_on_c, 4, 67, 72
12, 25859, Note_on_c, 4, 67, 0
12, 25860, Note_on_c, 4, 65, 72
12, 25919, Note_on_c, 4, 65, 0
12, 25920, Note_on_c, 4, 65, 48
12, 26159, Note_on_c, 4, 65, 0
12, 26160, Note_on_c, 4, 70, 48
12, 26279, Note_on_c, 4, 70, 0
12, 26280, Note_on_c, 4, 74, 48
12, 26399, Note_on_c, 4, 74, 0
12, 26400, Note_on_c, 4, 72, 48
12, 26459, Note_on_c, 4, 72, 0
12, 26460, Note_on_c, 4, 69, 48
12, 26519, Note_on_c, 4, 69, 0
12, 26520, Note_on_c, 4, 70, 48
12, 26579, Note_on_c, 4, 70, 0
12, 26580, Note_on_c, 4, 74, 48
12, 26639, Note_on_c, 4, 74, 0
12, 26640, Note_on_c, 4, 77, 48
12, 26699, Note_on_c, 4, 77, 0
12, 26700, Note_on_c, 4, 74, 48
12, 26759, Note_on_c, 4, 74, 0
12, 26760, Note_on_c, 4, 70, 48
12, 26819, Note_on_c, 4, 70, 0
12, 26820, Note_on_c, 4, 74, 48
12, 26879, Note_on_c, 4, 74, 0
12, 26880, Note_on_c, 4, 72, 48
12, 26939, Note_on_c, 4, 72, 0
12, 26940, Note_on_c, 4, 69, 48
12, 26999, Note_on_c, 4, 69, 0
12, 27000, Note_on_c, 4, 70, 48
12, 27059, Note_on_c, 4, 70, 0
12, 27060, Note_on_c, 4, 74, 48
12, 27119, Note_on_c, 4, 74, 0
12, 27120, Note_on_c, 4, 77, 48
12, 27179, Note_on_c, 4, 77, 0
12, 27180, Note_on_c, 4, 74, 48
12, 27239, Note_on_c, 4, 74, 0
12, 27240, Note_on_c, 4, 77, 48
12, 27299, Note_on_c, 4, 77, 0
12, 27300, Note_on_c, 4, 82, 48
12, 27359, Note_on_c, 4, 82, 0
12, 27360, Note_on_c, 4, 82, 48
12, 27479, Note_on_c, 4, 82, 0
12, 27600, Note_on_c, 4, 82, 48
12, 27719, Note_on_c, 4, 82, 0
12, 27900, Note_on_c, 4, 79, 48
12, 27959, Note_on_c, 4, 79, 0
12, 27960, Note_on_c, 4, 84, 48
12, 28019, Note_on_c, 4, 84, 0
12, 28020, Note_on_c, 4, 82, 48
12, 28079, Note_on_c, 4, 82, 0
12, 28080, Note_on_c, 4, 81, 48
12, 28139, Note_on_c, 4, 81, 0
12, 28140, Note_on_c, 4, 82, 48
12, 28199, Note_on_c, 4, 82, 0
12, 28200, Note_on_c, 4, 79, 48
12, 28259, Note_on_c, 4, 79, 0
12, 28260, Note_on_c, 4, 81, 48
12, 28319, Note_on_c, 4, 81, 0
12, 28320, Note_on_c, 4, 82, 48
12, 28439, Note_on_c, 4, 82, 0
12, 28440, Note_on_c, 4, 70, 48
12, 28559, Note_on_c, 4, 70, 0
12, 28560, Note_on_c, 4, 74, 48
12, 28619, Note_on_c, 4, 74, 0
12, 28620, Note_on_c, 4, 70, 48
12, 28679, Note_on_c, 4, 70, 0
12, 28680, Note_on_c, 4, 70, 48
12, 28739, Note_on_c, 4, 70, 0
12, 28920, Note_on_c, 4, 74, 48
12, 28979, Note_on_c, 4, 74, 0
12, 29040, Note_on_c, 4, 77, 48
12, 29099, Note_on_c, 4, 77, 0
12, 29100, Note_on_c, 4, 74, 48
12, 29159, Note_on_c, 4, 74, 0
12, 29160, Note_on_c, 4, 74, 48
12, 29219, Note_on_c, 4, 74, 0
12, 29400, Note_on_c, 4, 70, 48
12, 29519, Note_on_c, 4, 70, 0
12, 29520, Note_on_c, 4, 75, 48
12, 29579, Note_on_c, 4, 75, 0
12, 29580, Note_on_c, 4, 70, 48
12, 29639, Note_on_c, 4, 70, 0
12, 29640, Note_on_c, 4, 70, 48
12, 29699, Note_on_c, 4, 70, 0
12, 29880, Note_on_c, 4, 79, 48
12, 29999, Note_on_c, 4, 79, 0
12, 30000, Note_on_c, 4, 77, 48
12, 30059, Note_on_c, 4, 77, 0
12, 30060, Note_on_c, 4, 75, 48
12, 30119, Note_on_c, 4, 75, 0
12, 30120, Note_on_c, 4, 74, 48
12, 30179, Note_on_c, 4, 74, 0
12, 30180, Note_on_c, 4, 72, 48
12, 30239, Note_on_c, 4, 72, 0
12, 30240, Note_on_c, 4, 70, 48
12, 30299, Note_on_c, 4, 70, 0
12, 30480, Note_on_c, 4, 68, 48
12, 30539, Note_on_c, 4, 68, 0
12, 30720, Note_on_c, 4, 67, 48
12, 30779, Note_on_c, 4, 67, 0
12, 30840, Note_on_c, 4, 70, 48
12, 30959, Note_on_c, 4, 70, 0
12, 30960, Note_on_c, 4, 75, 48
12, 31079, Note_on_c, 4, 75, 0
12, 31080, Note_on_c, 4, 70, 48
12, 31199, Note_on_c, 4, 70, 0
12, 31200, Note_on_c, 4, 80, 48
12, 31379, Note_on_c, 4, 80, 0
12, 31380, Note_on_c, 4, 77, 48
12, 31439, Note_on_c, 4, 77, 0
12, 31440, Note_on_c, 4, 74, 48
12, 31559, Note_on_c, 4, 74, 0
12, 31560, Note_on_c, 4, 70, 48
12, 31619, Note_on_c, 4, 70, 0
12, 31680, Note_on_c, 4, 75, 48
12, 31799, Note_on_c, 4, 75, 0
12, 31800, Note_on_c, 4, 70, 48
12, 31919, Note_on_c, 4, 70, 0
12, 31920, Note_on_c, 4, 75, 48
12, 32039, Note_on_c, 4, 75, 0
12, 32040, Note_on_c, 4, 70, 48
12, 32159, Note_on_c, 4, 70, 0
12, 32160, Note_on_c, 4, 80, 48
12, 32339, Note_on_c, 4, 80, 0
12, 32340, Note_on_c, 4, 77, 48
12, 32399, Note_on_c, 4, 77, 0
12, 32400, Note_on_c, 4, 74, 48
12, 32519, Note_on_c, 4, 74, 0
12, 32520, Note_on_c, 4, 74, 48
12, 32579, Note_on_c, 4, 74, 0
12, 32640, Note_on_c, 4, 75, 48
12, 32879, Note_on_c, 4, 75, 0
12, 32880, Note_on_c, 4, 77, 48
12, 32999, Note_on_c, 4, 77, 0
12, 33000, Note_on_c, 4, 75, 48
12, 33119, Note_on_c, 4, 75, 0
12, 33120, Note_on_c, 4, 74, 48
12, 33239, Note_on_c, 4, 74, 0
12, 33240, Note_on_c, 4, 75, 48
12, 33299, Note_on_c, 4, 75, 0
12, 33300, Note_on_c, 4, 77, 48
12, 33359, Note_on_c, 4, 77, 0
12, 33360, Note_on_c, 4, 75, 48
12, 33479, Note_on_c, 4, 75, 0
12, 33480, Note_on_c, 4, 74, 48
12, 33599, Note_on_c, 4, 74, 0
12, 33600, Note_on_c, 4, 75, 48
12, 33959, Note_on_c, 4, 75, 0
12, 33960, Note_on_c, 4, 74, 48
12, 34079, Note_on_c, 4, 74, 0
12, 34080, Note_on_c, 4, 72, 48
12, 34199, Note_on_c, 4, 72, 0
12, 34200, Note_on_c, 4, 74, 48
12, 34259, Note_on_c, 4, 74, 0
12, 34260, Note_on_c, 4, 75, 48
12, 34319, Note_on_c, 4, 75, 0
12, 34320, Note_on_c, 4, 74, 48
12, 34439, Note_on_c, 4, 74, 0
12, 34440, Note_on_c, 4, 72, 48
12, 34559, Note_on_c, 4, 72, 0
12, 34560, Program_c, 4, 44
12, 34560, Note_on_c, 4, 74, 48
12, 34799, Note_on_c, 4, 74, 0
12, 34800, Note_on_c, 4, 74, 54
12, 35039, Note_on_c, 4, 74, 0
12, 35040, Note_on_c, 4, 76, 60
12, 35279, Note_on_c, 4, 76, 0
12, 35280, Note_on_c, 4, 76, 66
12, 35519, Note_on_c, 4, 76, 0
12, 35520, Program_c, 4, 48
12, 35520, Note_on_c, 4, 77, 72
12, 35640, Control_c, 4, 11, 80
12, 35819, Note_on_c, 4, 77, 0
12, 35820, Control_c, 4, 11, 127
12, 35820, Note_on_c, 4, 82, 48
12, 35879, Note_on_c, 4, 82, 0
12, 35880, Note_on_c, 4, 74, 48
12, 35909, Note_on_c, 4, 74, 0
12, 35940, Note_on_c, 4, 74, 48
12, 35969, Note_on_c, 4, 74, 0
12, 36000, Note_on_c, 4, 75, 48
12, 36179, Note_on_c, 4, 75, 0
12, 36180, Note_on_c, 4, 72, 48
12, 36239, Note_on_c, 4, 72, 0
12, 36240, Note_on_c, 4, 69, 48
12, 36359, Note_on_c, 4, 69, 0
12, 36360, Note_on_c, 4, 77, 48
12, 36419, Note_on_c, 4, 77, 0
12, 36480, Note_on_c, 4, 77, 48
12, 36659, Note_on_c, 4, 77, 0
12, 36660, Note_on_c, 4, 74, 48
12, 36719, Note_on_c, 4, 74, 0
12, 36720, Note_on_c, 4, 70, 48
12, 36839, Note_on_c, 4, 70, 0
12, 36840, Note_on_c, 4, 74, 48
12, 36899, Note_on_c, 4, 74, 0
12, 36960, Note_on_c, 4, 75, 48
12, 37139, Note_on_c, 4, 75, 0
12, 37140, Note_on_c, 4, 72, 48
12, 37199, Note_on_c, 4, 72, 0
12, 37200, Note_on_c, 4, 69, 48
12, 37319, Note_on_c, 4, 69, 0
12, 37320, Note_on_c, 4, 77, 48
12, 37379, Note_on_c, 4, 77, 0
12, 37440, Note_on_c, 4, 77, 48
12, 37619, Note_on_c, 4, 77, 0
12, 37620, Note_on_c, 4, 74, 48
12, 37679, Note_on_c, 4, 74, 0
12, 37680, Note_on_c, 4, 70, 48
12, 37799, Note_on_c, 4, 70, 0
12, 37800, Note_on_c, 4, 72, 48
12, 37859, Note_on_c, 4, 72, 0
12, 37920, Note_on_c, 4, 74, 48
12, 38159, Note_on_c, 4, 74, 0
12, 38280, Note_on_c, 4, 77, 48
12, 38399, Note_on_c, 4, 77, 0
12, 38400, Note_on_c, 4, 76, 48
12, 38519, Note_on_c, 4, 76, 0
12, 38520, Note_on_c, 4, 79, 48
12, 38639, Note_on_c, 4, 79, 0
12, 38640, Note_on_c, 4, 72, 48
12, 38759, Note_on_c, 4, 72, 0
12, 38760, Note_on_c, 4, 74, 48
12, 38819, Note_on_c, 4, 74, 0
12, 38820, Note_on_c, 4, 76, 48
12, 38879, Note_on_c, 4, 76, 0
12, 38880, Note_on_c, 4, 77, 48
12, 39239, Note_on_c, 4, 77, 0
12, 39240, Note_on_c, 4, 75, 48
12, 39359, Note_on_c, 4, 75, 0
12, 39360, Note_on_c, 4, 74, 48
12, 39479, Note_on_c, 4, 74, 0
12, 39480, Note_on_c, 4, 75, 48
12, 39599, Note_on_c, 4, 75, 0
12, 39600, Note_on_c, 4, 76, 48
12, 39719, Note_on_c, 4, 76, 0
12, 39720, Note_on_c, 4, 77, 48
12, 39839, Note_on_c, 4, 77, 0
12, 39840, Note_on_c, 4, 78, 48
12, 39959, Note_on_c, 4, 78, 0
12, 39960, Note_on_c, 4, 79, 48
12, 40079, Note_on_c, 4, 79, 0
12, 40080, Note_on_c, 4, 77, 48
12, 40139, Note_on_c, 4, 77, 0
12, 40140, Note_on_c, 4, 75, 48
12, 40199, Note_on_c, 4, 75, 0
12, 40200, Note_on_c, 4, 74, 48
12, 40259, Note_on_c, 4, 74, 0
12, 40260, Note_on_c, 4, 72, 48
12, 40319, Note_on_c, 4, 72, 0
12, 40320, Note_on_c, 4, 70, 48
12, 40649, Note_on_c, 4, 70, 0
12, 40650, Note_on_c, 4, 74, 48
12, 40679, Note_on_c, 4, 74, 0
12, 40680, Note_on_c, 4, 72, 48
12, 40799, Note_on_c, 4, 72, 0
12, 40800, Note_on_c, 4, 70, 48
12, 40919, Note_on_c, 4, 70, 0
12, 40920, Note_on_c, 4, 70, 48
12, 41039, Note_on_c, 4, 70, 0
12, 41040, Note_on_c, 4, 74, 48
12, 41159, Note_on_c, 4, 74, 0
12, 41160, Note_on_c, 4, 70, 48
12, 41279, Note_on_c, 4, 70, 0
12, 41400, Note_on_c, 4, 74, 48
12, 41519, Note_on_c, 4, 74, 0
12, 41520, Note_on_c, 4, 76, 48
12, 41639, Note_on_c, 4, 76, 0
12, 41640, Note_on_c, 4, 77, 48
12, 41759, Note_on_c, 4, 77, 0
12, 41760, Note_on_c, 4, 79, 48
12, 41939, Note_on_c, 4, 79, 0
12, 41940, Note_on_c, 4, 76, 48
12, 41999, Note_on_c, 4, 76, 0
12, 42000, Note_on_c, 4, 70, 48
12, 42059, Note_on_c, 4, 70, 0
12, 42120, Note_on_c, 4, 70, 48
12, 42179, Note_on_c, 4, 70, 0
12, 42240, Note_on_c, 4, 69, 48
12, 42419, Note_on_c, 4, 69, 0
12, 42420, Note_on_c, 4, 72, 48
12, 42479, Note_on_c, 4, 72, 0
12, 42480, Note_on_c, 4, 75, 48
12, 42599, Note_on_c, 4, 75, 0
12, 42600, Note_on_c, 4, 75, 48
12, 42659, Note_on_c, 4, 75, 0
12, 42720, Note_on_c, 4, 75, 48
12, 42779, Note_on_c, 4, 75, 0
12, 42780, Note_on_c, 4, 74, 48
12, 42839, Note_on_c, 4, 74, 0
12, 42840, Note_on_c, 4, 75, 48
12, 42899, Note_on_c, 4, 75, 0
12, 42900, Note_on_c, 4, 77, 48
12, 42959, Note_on_c, 4, 77, 0
12, 42960, Note_on_c, 4, 77, 48
12, 43019, Note_on_c, 4, 77, 0
12, 43020, Note_on_c, 4, 75, 48
12, 43079, Note_on_c, 4, 75, 0
12, 43080, Note_on_c, 4, 77, 48
12, 43139, Note_on_c, 4, 77, 0
12, 43140, Note_on_c, 4, 79, 48
12, 43169, Note_on_c, 4, 79, 0
12, 43170, Note_on_c, 4, 79, 48
12, 43199, Note_on_c, 4, 79, 0
12, 43200, Note_on_c, 4, 70, 48
12, 43559, Note_on_c, 4, 70, 0
12, 43560, Note_on_c, 4, 72, 48
12, 43679, Note_on_c, 4, 72, 0
12, 43680, Note_on_c, 4, 70, 72
12, 43739, Note_on_c, 4, 70, 0
12, 43740, Note_on_c, 4, 65, 72
12, 43799, Note_on_c, 4, 65, 0
12, 43800, Note_on_c, 4, 62, 72
12, 43859, Note_on_c, 4, 62, 0
12, 43860, Note_on_c, 4, 65, 72
12, 43919, Note_on_c, 4, 65, 0
12, 43920, Note_on_c, 4, 70, 72
12, 43979, Note_on_c, 4, 70, 0
12, 43980, Note_on_c, 4, 65, 72
12, 44039, Note_on_c, 4, 65, 0
12, 44040, Note_on_c, 4, 70, 72
12, 44099, Note_on_c, 4, 70, 0
12, 44100, Note_on_c, 4, 74, 72
12, 44159, Note_on_c, 4, 74, 0
12, 44160, Note_on_c, 4, 77, 72
12, 44219, Note_on_c, 4, 77, 0
12, 44220, Note_on_c, 4, 74, 72
12, 44279, Note_on_c, 4, 74, 0
12, 44280, Note_on_c, 4, 70, 72
12, 44339, Note_on_c, 4, 70, 0
12, 44340, Note_on_c, 4, 65, 72
12, 44399, Note_on_c, 4, 65, 0
12, 44400, Note_on_c, 4, 70, 72
12, 44459, Note_on_c, 4, 70, 0
12, 44460, Note_on_c, 4, 65, 72
12, 44519, Note_on_c, 4, 65, 0
12, 44520, Note_on_c, 4, 70, 72
12, 44579, Note_on_c, 4, 70, 0
12, 44580, Note_on_c, 4, 74, 72
12, 44639, Note_on_c, 4, 74, 0
12, 44640, Note_on_c, 4, 77, 72
12, 44699, Note_on_c, 4, 77, 0
12, 44700, Note_on_c, 4, 74, 72
12, 44759, Note_on_c, 4, 74, 0
12, 44760, Note_on_c, 4, 70, 72
12, 44819, Note_on_c, 4, 70, 0
12, 44820, Note_on_c, 4, 65, 72
12, 44879, Note_on_c, 4, 65, 0
12, 44880, Note_on_c, 4, 70, 72
12, 44939, Note_on_c, 4, 70, 0
12, 44940, Note_on_c, 4, 65, 72
12, 44999, Note_on_c, 4, 65, 0
12, 45000, Note_on_c, 4, 70, 72
12, 45059, Note_on_c, 4, 70, 0
12, 45060, Note_on_c, 4, 74, 72
12, 45119, Note_on_c, 4, 74, 0
12, 45120, Program_c, 4, 44
12, 45120, Note_on_c, 4, 79, 72
12, 45599, Note_on_c, 4, 79, 0
12, 45600, Note_on_c, 4, 72, 72
12, 46079, Note_on_c, 4, 72, 0
12, 46080, Program_c, 4, 48
12, 46080, Note_on_c, 4, 77, 48
12, 46379, Note_on_c, 4, 77, 0
12, 46380, Note_on_c, 4, 74, 48
12, 46439, Note_on_c, 4, 74, 0
12, 46440, Note_on_c, 4, 75, 48
12, 46499, Note_on_c, 4, 75, 0
12, 46500, Note_on_c, 4, 72, 48
12, 46559, Note_on_c, 4, 72, 0
12, 46560, Program_c, 4, 44
12, 46560, Note_on_c, 4, 70, 48
12, 46799, Note_on_c, 4, 70, 0
12, 46800, Program_c, 4, 48
12, 46800, Note_on_c, 4, 70, 48
12, 46829, Note_on_c, 4, 70, 0
12, 46860, Note_on_c, 4, 70, 48
12, 46919, Note_on_c, 4, 70, 0
12, 46920, Note_on_c, 4, 74, 48
12, 46979, Note_on_c, 4, 74, 0
12, 46980, Note_on_c, 4, 72, 48
12, 47039, Note_on_c, 4, 72, 0
12, 47040, Note_on_c, 4, 70, 48
12, 47279, Note_on_c, 4, 70, 0
12, 47610, Note_on_c, 4, 72, 84
12, 47639, Note_on_c, 4, 72, 0
12, 47640, Note_on_c, 4, 70, 84
12, 47699, Note_on_c, 4, 70, 0
12, 47700, Note_on_c, 4, 69, 84
12, 47729, Note_on_c, 4, 69, 0
12, 47730, Note_on_c, 4, 70, 84
12, 47759, Note_on_c, 4, 70, 0
12, 47760, Note_on_c, 4, 74, 84
12, 47819, Note_on_c, 4, 74, 0
12, 47880, Note_on_c, 4, 70, 84
12, 47939, Note_on_c, 4, 70, 0
12, 48000, Note_on_c, 4, 67, 84
12, 48239, Note_on_c, 4, 67, 0
12, 48570, Note_on_c, 4, 69, 84
12, 48599, Note_on_c, 4, 69, 0
12, 48600, Note_on_c, 4, 67, 84
12, 48659, Note_on_c, 4, 67, 0
12, 48660, Note_on_c, 4, 66, 84
12, 48689, Note_on_c, 4, 66, 0
12, 48690, Note_on_c, 4, 67, 84
12, 48719, Note_on_c, 4, 67, 0
12, 48720, Note_on_c, 4, 70, 84
12, 48779, Note_on_c, 4, 70, 0
12, 48840, Note_on_c, 4, 67, 84
12, 48899, Note_on_c, 4, 67, 0
12, 48960, Note_on_c, 4, 63, 84
12, 49199, Note_on_c, 4, 63, 0
12, 49440, Note_on_c, 4, 79, 75
12, 49440, Note_on_c, 4, 72, 75
12, 49440, Note_on_c, 4, 63, 75
12, 49679, Note_on_c, 4, 79, 0
12, 49679, Note_on_c, 4, 72, 0
12, 49679, Note_on_c, 4, 63, 0
12, 49680, Note_on_c, 4, 77, 72
12, 49799, Note_on_c, 4, 77, 0
12, 49800, Note_on_c, 4, 75, 72
12, 49919, Note_on_c, 4, 75, 0
12, 49920, Note_on_c, 4, 74, 72
12, 49979, Note_on_c, 4, 74, 0
12, 49980, Note_on_c, 4, 82, 72
12, 50039, Note_on_c, 4, 82, 0
12, 50040, Note_on_c, 4, 82, 72
12, 50069, Note_on_c, 4, 82, 0
12, 50100, Note_on_c, 4, 82, 72
12, 50129, Note_on_c, 4, 82, 0
12, 50160, Note_on_c, 4, 72, 72
12, 50219, Note_on_c, 4, 72, 0
12, 50220, Note_on_c, 4, 82, 72
12, 50279, Note_on_c, 4, 82, 0
12, 50280, Note_on_c, 4, 82, 72
12, 50309, Note_on_c, 4, 82, 0
12, 50340, Note_on_c, 4, 82, 72
12, 50369, Note_on_c, 4, 82, 0
12, 50400, Note_on_c, 4, 70, 72
12, 50699, Note_on_c, 4, 70, 0
12, 50700, Note_on_c, 4, 72, 72
12, 50714, Note_on_c, 4, 72, 0
12, 50715, Note_on_c, 4, 70, 72
12, 50729, Note_on_c, 4, 70, 0
12, 50730, Note_on_c, 4, 69, 72
12, 50744, Note_on_c, 4, 69, 0
12, 50745, Note_on_c, 4, 70, 72
12, 50759, Note_on_c, 4, 70, 0
12, 50760, Note_on_c, 4, 74, 72
12, 50819, Note_on_c, 4, 74, 0
12, 50820, Note_on_c, 4, 72, 72
12, 50879, Note_on_c, 4, 72, 0
12, 50880, Note_on_c, 4, 70, 72
12, 51119, Note_on_c, 4, 70, 0
12, 56880, Note_on_c, 4, 70, 72
12, 57359, Note_on_c, 4, 70, 0
12, 57360, Note_on_c, 4, 69, 72
12, 57599, Note_on_c, 4, 69, 0
12, 57600, Note_on_c, 4, 75, 72
12, 58079, Note_on_c, 4, 75, 0
12, 58080, Note_on_c, 4, 74, 72
12, 58319, Note_on_c, 4, 74, 0
12, 58320, Note_on_c, 4, 70, 72
12, 58559, Note_on_c, 4, 70, 0
12, 58560, Note_on_c, 4, 77, 72
12, 58679, Note_on_c, 4, 77, 0
12, 58800, Note_on_c, 4, 79, 72
12, 59159, Note_on_c, 4, 79, 0
12, 59160, Note_on_c, 4, 77, 72
12, 59279, Note_on_c, 4, 77, 0
12, 59280, Note_on_c, 4, 75, 72
12, 59399, Note_on_c, 4, 75, 0
12, 59400, Note_on_c, 4, 74, 72
12, 59519, Note_on_c, 4, 74, 0
12, 59520, Note_on_c, 4, 72, 72
12, 59639, Note_on_c, 4, 72, 0
12, 59640, Note_on_c, 4, 70, 72
12, 59759, Note_on_c, 4, 70, 0
12, 59760, Note_on_c, 4, 69, 72
12, 59879, Note_on_c, 4, 69, 0
12, 59880, Note_on_c, 4, 70, 72
12, 59999, Note_on_c, 4, 70, 0
12, 60000, Note_on_c, 4, 67, 72
12, 60119, Note_on_c, 4, 67, 0
12, 60120, Note_on_c, 4, 69, 72
12, 60239, Note_on_c, 4, 69, 0
12, 60240, Note_on_c, 4, 70, 72
12, 60479, Note_on_c, 4, 70, 0
12, 60720, Note_on_c, 4, 74, 72
12, 60959, Note_on_c, 4, 74, 0
12, 60960, Note_on_c, 4, 72, 72
12, 61079, Note_on_c, 4, 72, 0
12, 61080, Note_on_c, 4, 70, 72
12, 61199, Note_on_c, 4, 70, 0
12, 61200, Note_on_c, 4, 69, 72
12, 61319, Note_on_c, 4, 69, 0
12, 61320, Note_on_c, 4, 70, 72
12, 61439, Note_on_c, 4, 70, 0
12, 61440, Note_on_c, 4, 67, 72
12, 61559, Note_on_c, 4, 67, 0
12, 61560, Note_on_c, 4, 69, 72
12, 61679, Note_on_c, 4, 69, 0
12, 61680, Note_on_c, 4, 70, 72
12, 61799, Note_on_c, 4, 70, 0
12, 61800, Note_on_c, 4, 69, 72
12, 61919, Note_on_c, 4, 69, 0
12, 61920, Note_on_c, 4, 70, 72
12, 62039, Note_on_c, 4, 70, 0
12, 62040, Note_on_c, 4, 72, 72
12, 62159, Note_on_c, 4, 72, 0
12, 62160, Note_on_c, 4, 74, 72
12, 62279, Note_on_c, 4, 74, 0
12, 62280, Note_on_c, 4, 72, 72
12, 62399, Note_on_c, 4, 72, 0
12, 62400, Note_on_c, 4, 70, 72
12, 62519, Note_on_c, 4, 70, 0
12, 62520, Note_on_c, 4, 69, 72
12, 62639, Note_on_c, 4, 69, 0
12, 62640, Note_on_c, 4, 67, 72
12, 62759, Note_on_c, 4, 67, 0
12, 62760, Note_on_c, 4, 69, 72
12, 62879, Note_on_c, 4, 69, 0
12, 62880, Note_on_c, 4, 65, 72
12, 62999, Note_on_c, 4, 65, 0
12, 63000, Note_on_c, 4, 67, 72
12, 63119, Note_on_c, 4, 67, 0
12, 63120, Note_on_c, 4, 69, 72
12, 63359, Note_on_c, 4, 69, 0
12, 63360, Note_on_c, 4, 70, 72
12, 63599, Note_on_c, 4, 70, 0
12, 63600, Note_on_c, 4, 72, 72
12, 63839, Note_on_c, 4, 72, 0
12, 63840, Note_on_c, 4, 74, 72
12, 63899, Note_on_c, 4, 74, 0
12, 63960, Note_on_c, 4, 82, 72
12, 64019, Note_on_c, 4, 82, 0
12, 64080, Note_on_c, 4, 86, 72
12, 64139, Note_on_c, 4, 86, 0
12, 64200, Note_on_c, 4, 84, 72
12, 64259, Note_on_c, 4, 84, 0
12, 64320, Note_on_c, 4, 82, 72
12, 64379, Note_on_c, 4, 82, 0
12, 64440, Note_on_c, 4, 81, 72
12, 64499, Note_on_c, 4, 81, 0
12, 64560, Note_on_c, 4, 79, 72
12, 64619, Note_on_c, 4, 79, 0
12, 64680, Note_on_c, 4, 77, 72
12, 64739, Note_on_c, 4, 77, 0
12, 64800, Note_on_c, 4, 75, 72
12, 64859, Note_on_c, 4, 75, 0
12, 64920, Note_on_c, 4, 74, 72
12, 64979, Note_on_c, 4, 74, 0
12, 65040, Note_on_c, 4, 72, 72
12, 65099, Note_on_c, 4, 72, 0
12, 65160, Note_on_c, 4, 70, 72
12, 65219, Note_on_c, 4, 70, 0
12, 65280, Note_on_c, 4, 69, 72
12, 65339, Note_on_c, 4, 69, 0
12, 65400, Note_on_c, 4, 72, 72
12, 65459, Note_on_c, 4, 72, 0
12, 65520, Note_on_c, 4, 75, 72
12, 65579, Note_on_c, 4, 75, 0
12, 65640, Note_on_c, 4, 77, 72
12, 65699, Note_on_c, 4, 77, 0
12, 65760, Note_on_c, 4, 79, 72
12, 65819, Note_on_c, 4, 79, 0
12, 65880, Note_on_c, 4, 81, 72
12, 65939, Note_on_c, 4, 81, 0
12, 66000, Note_on_c, 4, 82, 72
12, 66000, Note_on_c, 4, 74, 72
12, 66119, Note_on_c, 4, 82, 0
12, 66119, Note_on_c, 4, 74, 0
12, 66240, Note_on_c, 4, 82, 72
12, 66240, Note_on_c, 4, 72, 72
12, 66359, Note_on_c, 4, 82, 0
12, 66359, Note_on_c, 4, 72, 0
12, 66480, Note_on_c, 4, 81, 72
12, 66480, Note_on_c, 4, 72, 72
12, 66599, Note_on_c, 4, 81, 0
12, 66599, Note_on_c, 4, 72, 0
12, 66720, Note_on_c, 4, 82, 72
12, 66720, Note_on_c, 4, 70, 72
12, 66959, Note_on_c, 4, 82, 0
12, 66959, Note_on_c, 4, 70, 0
12, 66959, End_track
13, 0, Start_track
13, 0, Title_t, "Violin II"
13, 0, MIDI_port, 0
13, 0, Program_c, 5, 48
13, 0, Control_c, 5, 7, 96
13, 0, Control_c, 5, 10, 24
13, 0, Control_c, 5, 11, 127
13, 120, Note_on_c, 5, 65, 66
13, 239, Note_on_c, 5, 65, 0
13, 240, Note_on_c, 5, 57, 66
13, 359, Note_on_c, 5, 57, 0
13, 360, Note_on_c, 5, 58, 66
13, 479, Note_on_c, 5, 58, 0
13, 480, Note_on_c, 5, 63, 66
13, 599, Note_on_c, 5, 63, 0
13, 600, Note_on_c, 5, 62, 66
13, 719, Note_on_c, 5, 62, 0
13, 720, Note_on_c, 5, 65, 66
13, 839, Note_on_c, 5, 65, 0
13, 840, Note_on_c, 5, 62, 66
13, 959, Note_on_c, 5, 62, 0
13, 960, Note_on_c, 5, 63, 66
13, 1079, Note_on_c, 5, 63, 0
13, 1080, Note_on_c, 5, 62, 66
13, 1199, Note_on_c, 5, 62, 0
13, 1200, Note_on_c, 5, 63, 66
13, 1319, Note_on_c, 5, 63, 0
13, 1320, Note_on_c, 5, 65, 66
13, 1439, Note_on_c, 5, 65, 0
13, 1440, Note_on_c, 5, 67, 66
13, 1530, Note_on_c, 5, 67, 66
13, 1559, Note_on_c, 5, 67, 0
13, 1649, Note_on_c, 5, 67, 0
13, 1800, Note_on_c, 5, 70, 66
13, 1919, Note_on_c, 5, 70, 0
13, 2040, Note_on_c, 5, 67, 66
13, 2159, Note_on_c, 5, 67, 0
13, 2280, Note_on_c, 5, 72, 66
13, 2399, Note_on_c, 5, 72, 0
13, 2400, Note_on_c, 5, 65, 66
13, 2639, Note_on_c, 5, 65, 0
13, 3240, Note_on_c, 5, 65, 48
13, 3359, Note_on_c, 5, 65, 0
13, 3360, Note_on_c, 5, 65, 48
13, 3599, Note_on_c, 5, 65, 0
13, 3720, Note_on_c, 5, 74, 48
13, 3839, Note_on_c, 5, 74, 0
13, 3840, Note_on_c, 5, 72, 48
13, 3959, Note_on_c, 5, 72, 0
13, 3960, Note_on_c, 5, 74, 48
13, 4079, Note_on_c, 5, 74, 0
13, 4200, Note_on_c, 5, 65, 48
13, 4319, Note_on_c, 5, 65, 0
13, 4320, Note_on_c, 5, 67, 48
13, 4439, Note_on_c, 5, 67, 0
13, 4440, Note_on_c, 5, 67, 48
13, 4559, Note_on_c, 5, 67, 0
13, 4680, Note_on_c, 5, 70, 48
13, 4799, Note_on_c, 5, 70, 0
13, 4920, Note_on_c, 5, 67, 48
13, 5039, Note_on_c, 5, 67, 0
13, 5160, Note_on_c, 5, 65, 48
13, 5279, Note_on_c, 5, 65, 0
13, 5280, Note_on_c, 5, 65, 48
13, 5519, Note_on_c, 5, 65, 0
13, 5640, Note_on_c, 5, 70, 48
13, 5759, Note_on_c, 5, 70, 0
13, 5760, Note_on_c, 5, 74, 48
13, 5879, Note_on_c, 5, 74, 0
13, 5880, Note_on_c, 5, 70, 48
13, 5999, Note_on_c, 5, 70, 0
13, 6120, Note_on_c, 5, 70, 48
13, 6239, Note_on_c, 5, 70, 0
13, 6240, Note_on_c, 5, 72, 48
13, 6359, Note_on_c, 5, 72, 0
13, 6360, Note_on_c, 5, 69, 48
13, 6479, Note_on_c, 5, 69, 0
13, 6600, Note_on_c, 5, 69, 48
13, 6719, Note_on_c, 5, 69, 0
13, 6720, Note_on_c, 5, 69, 48
13, 6839, Note_on_c, 5, 69, 0
13, 6840, Note_on_c, 5, 72, 48
13, 6959, Note_on_c, 5, 72, 0
13, 7080, Note_on_c, 5, 69, 48
13, 7199, Note_on_c, 5, 69, 0
13, 7260, Note_on_c, 5, 62, 48
13, 7319, Note_on_c, 5, 62, 0
13, 7320, Note_on_c, 5, 64, 48
13, 7379, Note_on_c, 5, 64, 0
13, 7380, Note_on_c, 5, 65, 48
13, 7439, Note_on_c, 5, 65, 0
13, 7440, Note_on_c, 5, 67, 48
13, 7499, Note_on_c, 5, 67, 0
13, 7500, Note_on_c, 5, 69, 48
13, 7559, Note_on_c, 5, 69, 0
13, 7560, Note_on_c, 5, 65, 48
13, 7619, Note_on_c, 5, 65, 0
13, 7620, Note_on_c, 5, 67, 48
13, 7679, Note_on_c, 5, 67, 0
13, 7680, Note_on_c, 5, 64, 48
13, 7919, Note_on_c, 5, 64, 0
13, 8280, Note_on_c, 5, 60, 48
13, 8519, Note_on_c, 5, 60, 0
13, 8520, Note_on_c, 5, 60, 48
13, 8639, Note_on_c, 5, 60, 0
13, 8640, Note_on_c, 5, 60, 48
13, 8759, Note_on_c, 5, 60, 0
13, 8760, Note_on_c, 5, 60, 48
13, 8819, Note_on_c, 5, 60, 0
13, 8880, Note_on_c, 5, 65, 48
13, 8999, Note_on_c, 5, 65, 0
13, 9000, Note_on_c, 5, 60, 48
13, 9119, Note_on_c, 5, 60, 0
13, 9240, Note_on_c, 5, 64, 48
13, 9299, Note_on_c, 5, 64, 0
13, 9360, Note_on_c, 5, 67, 48
13, 9479, Note_on_c, 5, 67, 0
13, 9480, Note_on_c, 5, 64, 48
13, 9599, Note_on_c, 5, 64, 0
13, 9720, Note_on_c, 5, 60, 48
13, 9779, Note_on_c, 5, 60, 0
13, 9840, Note_on_c, 5, 69, 48
13, 9959, Note_on_c, 5, 69, 0
13, 9960, Note_on_c, 5, 65, 48
13, 10079, Note_on_c, 5, 65, 0
13, 10200, Note_on_c, 5, 64, 48
13, 10259, Note_on_c, 5, 64, 0
13, 10320, Note_on_c, 5, 67, 48
13, 10439, Note_on_c, 5, 67, 0
13, 10440, Note_on_c, 5, 64, 48
13, 10559, Note_on_c, 5, 64, 0
13, 10680, Note_on_c, 5, 65, 48
13, 10799, Note_on_c, 5, 65, 0
13, 10800, Note_on_c, 5, 72, 48
13, 10919, Note_on_c, 5, 72, 0
13, 10920, Note_on_c, 5, 72, 48
13, 11039, Note_on_c, 5, 72, 0
13, 11040, Note_on_c, 5, 72, 48
13, 11399, Note_on_c, 5, 72, 0
13, 11400, Note_on_c, 5, 72, 48
13, 11519, Note_on_c, 5, 72, 0
13, 11520, Note_on_c, 5, 71, 48
13, 11639, Note_on_c, 5, 71, 0
13, 11640, Note_on_c, 5, 74, 48
13, 11759, Note_on_c, 5, 74, 0
13, 11760, Note_on_c, 5, 67, 48
13, 11879, Note_on_c, 5, 67, 0
13, 11880, Note_on_c, 5, 69, 48
13, 11939, Note_on_c, 5, 69, 0
13, 11940, Note_on_c, 5, 71, 48
13, 11999, Note_on_c, 5, 71, 0
13, 12000, Note_on_c, 5, 72, 48
13, 12359, Note_on_c, 5, 72, 0
13, 12360, Note_on_c, 5, 70, 48
13, 12479, Note_on_c, 5, 70, 0
13, 12480, Note_on_c, 5, 69, 48
13, 12599, Note_on_c, 5, 69, 0
13, 12600, Note_on_c, 5, 70, 48
13, 12719, Note_on_c, 5, 70, 0
13, 12720, Note_on_c, 5, 71, 48
13, 12839, Note_on_c, 5, 71, 0
13, 12840, Note_on_c, 5, 72, 48
13, 12959, Note_on_c, 5, 72, 0
13, 12960, Note_on_c, 5, 73, 48
13, 13079, Note_on_c, 5, 73, 0
13, 13080, Note_on_c, 5, 74, 48
13, 13199, Note_on_c, 5, 74, 0
13, 13200, Note_on_c, 5, 76, 48
13, 13259, Note_on_c, 5, 76, 0
13, 13260, Note_on_c, 5, 74, 48
13, 13319, Note_on_c, 5, 74, 0
13, 13320, Note_on_c, 5, 72, 48
13, 13379, Note_on_c, 5, 72, 0
13, 13380, Note_on_c, 5, 70, 48
13, 13439, Note_on_c, 5, 70, 0
13, 13440, Note_on_c, 5, 69, 48
13, 13769, Note_on_c, 5, 69, 0
13, 13770, Note_on_c, 5, 72, 48
13, 13799, Note_on_c, 5, 72, 0
13, 13800, Note_on_c, 5, 70, 48
13, 13919, Note_on_c, 5, 70, 0
13, 13920, Note_on_c, 5, 69, 48
13, 14039, Note_on_c, 5, 69, 0
13, 14040, Note_on_c, 5, 65, 48
13, 14099, Note_on_c, 5, 65, 0
13, 14160, Note_on_c, 5, 69, 48
13, 14279, Note_on_c, 5, 69, 0
13, 14280, Note_on_c, 5, 65, 48
13, 14399, Note_on_c, 5, 65, 0
13, 14520, Note_on_c, 5, 69, 48
13, 14639, Note_on_c, 5, 69, 0
13, 14640, Note_on_c, 5, 71, 48
13, 14759, Note_on_c, 5, 71, 0
13, 14760, Note_on_c, 5, 72, 48
13, 14879, Note_on_c, 5, 72, 0
13, 14880, Note_on_c, 5, 74, 48
13, 14999, Note_on_c, 5, 74, 0
13, 15000, Note_on_c, 5, 72, 48
13, 15119, Note_on_c, 5, 72, 0
13, 15120, Note_on_c, 5, 71, 48
13, 15239, Note_on_c, 5, 71, 0
13, 15240, Note_on_c, 5, 71, 48
13, 15359, Note_on_c, 5, 71, 0
13, 15360, Note_on_c, 5, 72, 48
13, 15479, Note_on_c, 5, 72, 0
13, 15480, Note_on_c, 5, 70, 48
13, 15599, Note_on_c, 5, 70, 0
13, 15600, Note_on_c, 5, 67, 48
13, 15659, Note_on_c, 5, 67, 0
13, 15720, Note_on_c, 5, 67, 48
13, 15779, Note_on_c, 5, 67, 0
13, 15840, Note_on_c, 5, 65, 48
13, 16199, Note_on_c, 5, 65, 0
13, 16200, Note_on_c, 5, 62, 48
13, 16319, Note_on_c, 5, 62, 0
13, 16320, Program_c, 5, 44
13, 16320, Note_on_c, 5, 60, 60
13, 16559, Note_on_c, 5, 60, 0
13, 16560, Program_c, 5, 48
13, 16560, Note_on_c, 5, 60, 60
13, 16619, Note_on_c, 5, 60, 0
13, 16620, Note_on_c, 5, 60, 60
13, 16679, Note_on_c, 5, 60, 0
13, 16680, Note_on_c, 5, 64, 60
13, 16739, Note_on_c, 5, 64, 0
13, 16740, Note_on_c, 5, 64, 60
13, 16799, Note_on_c, 5, 64, 0
13, 16800, Note_on_c, 5, 65, 60
13, 17039, Note_on_c, 5, 65, 0
13, 17370, Note_on_c, 5, 67, 84
13, 17399, Note_on_c, 5, 67, 0
13, 17400, Note_on_c, 5, 65, 84
13, 17459, Note_on_c, 5, 65, 0
13, 17460, Note_on_c, 5, 63, 84
13, 17489, Note_on_c, 5, 63, 0
13, 17490, Note_on_c, 5, 65, 84
13, 17519, Note_on_c, 5, 65, 0
13, 17520, Note_on_c, 5, 69, 84
13, 17579, Note_on_c, 5, 69, 0
13, 17640, Note_on_c, 5, 65, 84
13, 17699, Note_on_c, 5, 65, 0
13, 17760, Note_on_c, 5, 62, 84
13, 17999, Note_on_c, 5, 62, 0
13, 18330, Note_on_c, 5, 64, 84
13, 18359, Note_on_c, 5, 64, 0
13, 18360, Note_on_c, 5, 62, 84
13, 18419, Note_on_c, 5, 62, 0
13, 18420, Note_on_c, 5, 61, 84
13, 18449, Note_on_c, 5, 61, 0
13, 18450, Note_on_c, 5, 62, 84
13, 18479, Note_on_c, 5, 62, 0
13, 18480, Note_on_c, 5, 65, 84
13, 18539, Note_on_c, 5, 65, 0
13, 18600, Note_on_c, 5, 62, 84
13, 18659, Note_on_c, 5, 62, 0
13, 18720, Note_on_c, 5, 58, 84
13, 18959, Note_on_c, 5, 58, 0
13, 19200, Note_on_c, 5, 74, 84
13, 19200, Note_on_c, 5, 65, 84
13, 19200, Note_on_c, 5, 58, 84
13, 19439, Note_on_c, 5, 74, 0
13, 19439, Note_on_c, 5, 65, 0
13, 19439, Note_on_c, 5, 58, 0
13, 21240, Note_on_c, 5, 57, 66
13, 21299, Note_on_c, 5, 57, 0
13, 21300, Note_on_c, 5, 60, 66
13, 21359, Note_on_c, 5, 60, 0
13, 21360, Note_on_c, 5, 65, 66
13, 21419, Note_on_c, 5, 65, 0
13, 21420, Note_on_c, 5, 60, 66
13, 21479, Note_on_c, 5, 60, 0
13, 21480, Note_on_c, 5, 57, 66
13, 21539, Note_on_c, 5, 57, 0
13, 21540, Note_on_c, 5, 60, 66
13, 21599, Note_on_c, 5, 60, 0
13, 21600, Note_on_c, 5, 65, 66
13, 21659, Note_on_c, 5, 65, 0
13, 21660, Note_on_c, 5, 60, 66
13, 21719, Note_on_c, 5, 60, 0
13, 21720, Note_on_c, 5, 57, 66
13, 21779, Note_on_c, 5, 57, 0
13, 21780, Note_on_c, 5, 60, 66
13, 21839, Note_on_c, 5, 60, 0
13, 21840, Note_on_c, 5, 65, 66
13, 21899, Note_on_c, 5, 65, 0
13, 21900, Note_on_c, 5, 60, 66
13, 21959, Note_on_c, 5, 60, 0
13, 21960, Note_on_c, 5, 57, 66
13, 22019, Note_on_c, 5, 57, 0
13, 22020, Note_on_c, 5, 60, 66
13, 22079, Note_on_c, 5, 60, 0
13, 22080, Note_on_c, 5, 65, 66
13, 22139, Note_on_c, 5, 65, 0
13, 22140, Note_on_c, 5, 60, 66
13, 22199, Note_on_c, 5, 60, 0
13, 22200, Note_on_c, 5, 57, 66
13, 22259, Note_on_c, 5, 57, 0
13, 22260, Note_on_c, 5, 60, 66
13, 22319, Note_on_c, 5, 60, 0
13, 22320, Note_on_c, 5, 65, 66
13, 22379, Note_on_c, 5, 65, 0
13, 22380, Note_on_c, 5, 60, 66
13, 22439, Note_on_c, 5, 60, 0
13, 22440, Note_on_c, 5, 57, 66
13, 22499, Note_on_c, 5, 57, 0
13, 22500, Note_on_c, 5, 60, 66
13, 22559, Note_on_c, 5, 60, 0
13, 22560, Note_on_c, 5, 69, 66
13, 22619, Note_on_c, 5, 69, 0
13, 22620, Note_on_c, 5, 65, 66
13, 22679, Note_on_c, 5, 65, 0
13, 22680, Note_on_c, 5, 60, 66
13, 22739, Note_on_c, 5, 60, 0
13, 22740, Note_on_c, 5, 65, 66
13, 22799, Note_on_c, 5, 65, 0
13, 22800, Note_on_c, 5, 72, 66
13, 22859, Note_on_c, 5, 72, 0
13, 22860, Note_on_c, 5, 69, 66
13, 22919, Note_on_c, 5, 69, 0
13, 22920, Note_on_c, 5, 65, 66
13, 22979, Note_on_c, 5, 65, 0
13, 22980, Note_on_c, 5, 69, 66
13, 23039, Note_on_c, 5, 69, 0
13, 23040, Note_on_c, 5, 69, 66
13, 23099, Note_on_c, 5, 69, 0
13, 23100, Note_on_c, 5, 65, 66
13, 23159, Note_on_c, 5, 65, 0
13, 23160, Note_on_c, 5, 60, 66
13, 23219, Note_on_c, 5, 60, 0
13, 23220, Note_on_c, 5, 65, 66
13, 23279, Note_on_c, 5, 65, 0
13, 23280, Note_on_c, 5, 69, 66
13, 23339, Note_on_c, 5, 69, 0
13, 23340, Note_on_c, 5, 65, 66
13, 23399, Note_on_c, 5, 65, 0
13, 23400, Note_on_c, 5, 60, 66
13, 23459, Note_on_c, 5, 60, 0
13, 23460, Note_on_c, 5, 65, 66
13, 23519, Note_on_c, 5, 65, 0
13, 23520, Note_on_c, 5, 69, 66
13, 23579, Note_on_c, 5, 69, 0
13, 23580, Note_on_c, 5, 65, 66
13, 23639, Note_on_c, 5, 65, 0
13, 23640, Note_on_c, 5, 60, 66
13, 23699, Note_on_c, 5, 60, 0
13, 23700, Note_on_c, 5, 65, 66
13, 23759, Note_on_c, 5, 65, 0
13, 23760, Note_on_c, 5, 69, 66
13, 23819, Note_on_c, 5, 69, 0
13, 23820, Note_on_c, 5, 72, 66
13, 23879, Note_on_c, 5, 72, 0
13, 23880, Note_on_c, 5, 75, 66
13, 23939, Note_on_c, 5, 75, 0
13, 23940, Note_on_c, 5, 72, 66
13, 23999, Note_on_c, 5, 72, 0
13, 24000, Note_on_c, 5, 75, 66
13, 24059, Note_on_c, 5, 75, 0
13, 24060, Note_on_c, 5, 72, 66
13, 24119, Note_on_c, 5, 72, 0
13, 24120, Note_on_c, 5, 69, 66
13, 24179, Note_on_c, 5, 69, 0
13, 24180, Note_on_c, 5, 65, 66
13, 24239, Note_on_c, 5, 65, 0
13, 24240, Note_on_c, 5, 74, 66
13, 24299, Note_on_c, 5, 74, 0
13, 24300, Note_on_c, 5, 65, 66
13, 24359, Note_on_c, 5, 65, 0
13, 24360, Note_on_c, 5, 72, 66
13, 24419, Note_on_c, 5, 72, 0
13, 24420, Note_on_c, 5, 65, 66
13, 24479, Note_on_c, 5, 65, 0
13, 24480, Note_on_c, 5, 72, 66
13, 24539, Note_on_c, 5, 72, 0
13, 24540, Note_on_c, 5, 70, 66
13, 24599, Note_on_c, 5, 70, 0
13, 24600, Note_on_c, 5, 70, 66
13, 24629, Note_on_c, 5, 70, 0
13, 24660, Note_on_c, 5, 70, 66
13, 24689, Note_on_c, 5, 70, 0
13, 24720, Note_on_c, 5, 70, 66
13, 24779, Note_on_c, 5, 70, 0
13, 24780, Note_on_c, 5, 62, 66
13, 24839, Note_on_c, 5, 62, 0
13, 24840, Note_on_c, 5, 74, 66
13, 24899, Note_on_c, 5, 74, 0
13, 24900, Note_on_c, 5, 72, 66
13, 24959, Note_on_c, 5, 72, 0
13, 24960, Note_on_c, 5, 70, 66
13, 25079, Note_on_c, 5, 70, 0
13, 25080, Note_on_c, 5, 69, 66
13, 25199, Note_on_c, 5, 69, 0
13, 26040, Note_on_c, 5, 58, 48
13, 26159, Note_on_c, 5, 58, 0
13, 26160, Note_on_c, 5, 62, 48
13, 26279, Note_on_c, 5, 62, 0
13, 26280, Note_on_c, 5, 65, 48
13, 26399, Note_on_c, 5, 65, 0
13, 26520, Note_on_c, 5, 58, 48
13, 26639, Note_on_c, 5, 58, 0
13, 26640, Note_on_c, 5, 62, 48
13, 26759, Note_on_c, 5, 62, 0
13, 26760, Note_on_c, 5, 65, 48
13, 26879, Note_on_c, 5, 65, 0
13, 27000, Note_on_c, 5, 58, 48
13, 27119, Note_on_c, 5, 58, 0
13, 27120, Note_on_c, 5, 62, 48
13, 27239, Note_on_c, 5, 62, 0
13, 27240, Note_on_c, 5, 65, 48
13, 27359, Note_on_c, 5, 65, 0
13, 27360, Note_on_c, 5, 67, 48
13, 27479, Note_on_c, 5, 67, 0
13, 27600, Note_on_c, 5, 65, 48
13, 27719, Note_on_c, 5, 65, 0
13, 27900, Note_on_c, 5, 67, 48
13, 27959, Note_on_c, 5, 67, 0
13, 27960, Note_on_c, 5, 72, 48
13, 28019, Note_on_c, 5, 72, 0
13, 28020, Note_on_c, 5, 70, 48
13, 28079, Note_on_c, 5, 70, 0
13, 28080, Note_on_c, 5, 69, 48
13, 28139, Note_on_c, 5, 69, 0
13, 28140, Note_on_c, 5, 70, 48
13, 28199, Note_on_c, 5, 70, 0
13, 28200, Note_on_c, 5, 67, 48
13, 28259, Note_on_c, 5, 67, 0
13, 28260, Note_on_c, 5, 69, 48
13, 28319, Note_on_c, 5, 69, 0
13, 28320, Note_on_c, 5, 70, 48
13, 28439, Note_on_c, 5, 70, 0
13, 28440, Note_on_c, 5, 62, 48
13, 28559, Note_on_c, 5, 62, 0
13, 28560, Note_on_c, 5, 65, 48
13, 28619, Note_on_c, 5, 65, 0
13, 28620, Note_on_c, 5, 62, 48
13, 28679, Note_on_c, 5, 62, 0
13, 28680, Note_on_c, 5, 62, 48
13, 28739, Note_on_c, 5, 62, 0
13, 28920, Note_on_c, 5, 58, 48
13, 29039, Note_on_c, 5, 58, 0
13, 29040, Note_on_c, 5, 62, 48
13, 29099, Note_on_c, 5, 62, 0
13, 29100, Note_on_c, 5, 58, 48
13, 29159, Note_on_c, 5, 58, 0
13, 29160, Note_on_c, 5, 58, 48
13, 29219, Note_on_c, 5, 58, 0
13, 29400, Note_on_c, 5, 63, 48
13, 29519, Note_on_c, 5, 63, 0
13, 29520, Note_on_c, 5, 70, 48
13, 29579, Note_on_c, 5, 70, 0
13, 29580, Note_on_c, 5, 67, 48
13, 29639, Note_on_c, 5, 67, 0
13, 29640, Note_on_c, 5, 67, 48
13, 29699, Note_on_c, 5, 67, 0
13, 29880, Note_on_c, 5, 70, 48
13, 29999, Note_on_c, 5, 70, 0
13, 30000, Note_on_c, 5, 67, 48
13, 30119, Note_on_c, 5, 67, 0
13, 30120, Note_on_c, 5, 63, 48
13, 30239, Note_on_c, 5, 63, 0
13, 30300, Note_on_c, 5, 60, 48
13, 30359, Note_on_c, 5, 60, 0
13, 30360, Note_on_c, 5, 65, 48
13, 30419, Note_on_c, 5, 65, 0
13, 30420, Note_on_c, 5, 63, 48
13, 30479, Note_on_c, 5, 63, 0
13, 30480, Note_on_c, 5, 62, 48
13, 30539, Note_on_c, 5, 62, 0
13, 30540, Note_on_c, 5, 63, 48
13, 30599, Note_on_c, 5, 63, 0
13, 30600, Note_on_c, 5, 60, 48
13, 30659, Note_on_c, 5, 60, 0
13, 30660, Note_on_c, 5, 62, 48
13, 30719, Note_on_c, 5, 62, 0
13, 30720, Note_on_c, 5, 63, 48
13, 30779, Note_on_c, 5, 63, 0
13, 30780, Note_on_c, 5, 58, 48
13, 30839, Note_on_c, 5, 58, 0
13, 30840, Note_on_c, 5, 55, 48
13, 30899, Note_on_c, 5, 55, 0
13, 30900, Note_on_c, 5, 58, 48
13, 30959, Note_on_c, 5, 58, 0
13, 30960, Note_on_c, 5, 67, 48
13, 31019, Note_on_c, 5, 67, 0
13, 31020, Note_on_c, 5, 63, 48
13, 31079, Note_on_c, 5, 63, 0
13, 31080, Note_on_c, 5, 58, 48
13, 31139, Note_on_c, 5, 58, 0
13, 31140, Note_on_c, 5, 63, 48
13, 31199, Note_on_c, 5, 63, 0
13, 31200, Note_on_c, 5, 65, 48
13, 31259, Note_on_c, 5, 65, 0
13, 31260, Note_on_c, 5, 62, 48
13, 31319, Note_on_c, 5, 62, 0
13, 31320, Note_on_c, 5, 58, 48
13, 31379, Note_on_c, 5, 58, 0
13, 31380, Note_on_c, 5, 65, 48
13, 31439, Note_on_c, 5, 65, 0
13, 31440, Note_on_c, 5, 68, 48
13, 31499, Note_on_c, 5, 68, 0
13, 31500, Note_on_c, 5, 65, 48
13, 31559, Note_on_c, 5, 65, 0
13, 31560, Note_on_c, 5, 58, 48
13, 31619, Note_on_c, 5, 58, 0
13, 31620, Note_on_c, 5, 65, 48
13, 31679, Note_on_c, 5, 65, 0
13, 31680, Note_on_c, 5, 67, 48
13, 31739, Note_on_c, 5, 67, 0
13, 31740, Note_on_c, 5, 63, 48
13, 31799, Note_on_c, 5, 63, 0
13, 31800, Note_on_c, 5, 58, 48
13, 31859, Note_on_c, 5, 58, 0
13, 31860, Note_on_c, 5, 63, 48
13, 31919, Note_on_c, 5, 63, 0
13, 31920, Note_on_c, 5, 67, 48
13, 31979, Note_on_c, 5, 67, 0
13, 31980, Note_on_c, 5, 63, 48
13, 32039, Note_on_c, 5, 63, 0
13, 32040, Note_on_c, 5, 58, 48
13, 32099, Note_on_c, 5, 58, 0
13, 32100, Note_on_c, 5, 63, 48
13, 32159, Note_on_c, 5, 63, 0
13, 32160, Note_on_c, 5, 65, 48
13, 32219, Note_on_c, 5, 65, 0
13, 32220, Note_on_c, 5, 62, 48
13, 32279, Note_on_c, 5, 62, 0
13, 32280, Note_on_c, 5, 58, 48
13, 32339, Note_on_c, 5, 58, 0
13, 32340, Note_on_c, 5, 62, 48
13, 32399, Note_on_c, 5, 62, 0
13, 32400, Note_on_c, 5, 68, 48
13, 32459, Note_on_c, 5, 68, 0
13, 32460, Note_on_c, 5, 65, 48
13, 32519, Note_on_c, 5, 65, 0
13, 32520, Note_on_c, 5, 58, 48
13, 32579, Note_on_c, 5, 58, 0
13, 32580, Note_on_c, 5, 65, 48
13, 32639, Note_on_c, 5, 65, 0
13, 32640, Note_on_c, 5, 67, 48
13, 32699, Note_on_c, 5, 67, 0
13, 32700, Note_on_c, 5, 63, 48
13, 32759, Note_on_c, 5, 63, 0
13, 32760, Note_on_c, 5, 58, 48
13, 32819, Note_on_c, 5, 58, 0
13, 32820, Note_on_c, 5, 67, 48
13, 32879, Note_on_c, 5, 67, 0
13, 32880, Note_on_c, 5, 59, 48
13, 32939, Note_on_c, 5, 59, 0
13, 32940, Note_on_c, 5, 67, 48
13, 32999, Note_on_c, 5, 67, 0
13, 33000, Note_on_c, 5, 60, 48
13, 33059, Note_on_c, 5, 60, 0
13, 33060, Note_on_c, 5, 67, 48
13, 33119, Note_on_c, 5, 67, 0
13, 33120, Note_on_c, 5, 65, 48
13, 33179, Note_on_c, 5, 65, 0
13, 33180, Note_on_c, 5, 62, 48
13, 33239, Note_on_c, 5, 62, 0
13, 33240, Note_on_c, 5, 55, 48
13, 33299, Note_on_c, 5, 55, 0
13, 33300, Note_on_c, 5, 62, 48
13, 33359, Note_on_c, 5, 62, 0
13, 33360, Note_on_c, 5, 60, 48
13, 33419, Note_on_c, 5, 60, 0
13, 33420, Note_on_c, 5, 55, 48
13, 33479, Note_on_c, 5, 55, 0
13, 33480, Note_on_c, 5, 59, 48
13, 33539, Note_on_c, 5, 59, 0
13, 33540, Note_on_c, 5, 55, 48
13, 33599, Note_on_c, 5, 55, 0
13, 33600, Note_on_c, 5, 60, 48
13, 33659, Note_on_c, 5, 60, 0
13, 33660, Note_on_c, 5, 55, 48
13, 33719, Note_on_c, 5, 55, 0
13, 33720, Note_on_c, 5, 60, 48
13, 33779, Note_on_c, 5, 60, 0
13, 33780, Note_on_c, 5, 55, 48
13, 33839, Note_on_c, 5, 55, 0
13, 33840, Note_on_c, 5, 60, 48
13, 33899, Note_on_c, 5, 60, 0
13, 33900, Note_on_c, 5, 55, 48
13, 33959, Note_on_c, 5, 55, 0
13, 33960, Note_on_c, 5, 58, 48
13, 34019, Note_on_c, 5, 58, 0
13, 34020, Note_on_c, 5, 62, 48
13, 34079, Note_on_c, 5, 62, 0
13, 34080, Note_on_c, 5, 63, 48
13, 34199, Note_on_c, 5, 63, 0
13, 34200, Note_on_c, 5, 62, 48
13, 34259, Note_on_c, 5, 62, 0
13, 34260, Note_on_c, 5, 60, 48
13, 34319, Note_on_c, 5, 60, 0
13, 34320, Note_on_c, 5, 58, 48
13, 34379, Note_on_c, 5, 58, 0
13, 34380, Note_on_c, 5, 65, 48
13, 34439, Note_on_c, 5, 65, 0
13, 34440, Note_on_c, 5, 57, 48
13, 34499, Note_on_c, 5, 57, 0
13, 34500, Note_on_c, 5, 65, 48
13, 34559, Note_on_c, 5, 65, 0
13, 34560, Program_c, 5, 44
13, 34560, Note_on_c, 5, 65, 54
13, 34799, Note_on_c, 5, 65, 0
13, 34800, Note_on_c, 5, 70, 60
13, 35039, Note_on_c, 5, 70, 0
13, 35040, Note_on_c, 5, 70, 66
13, 35519, Note_on_c, 5, 70, 0
13, 35520, Program_c, 5, 48
13, 35520, Note_on_c, 5, 69, 72
13, 35579, Note_on_c, 5, 69, 0
13, 35580, Note_on_c, 5, 65, 48
13, 35639, Note_on_c, 5, 65, 0
13, 35640, Note_on_c, 5, 65, 48
13, 35699, Note_on_c, 5, 65, 0
13, 35700, Note_on_c, 5, 65, 48
13, 35759, Note_on_c, 5, 65, 0
13, 35760, Program_c, 5, 44
13, 35760, Note_on_c, 5, 65, 48
13, 35999, Note_on_c, 5, 65, 0
13, 36000, Note_on_c, 5, 65, 48
13, 36479, Note_on_c, 5, 65, 0
13, 36480, Note_on_c, 5, 65, 48
13, 36959, Note_on_c, 5, 65, 0
13, 36960, Note_on_c, 5, 65, 48
13, 37439, Note_on_c, 5, 65, 0
13, 37440, Note_on_c, 5, 65, 48
13, 37919, Note_on_c, 5, 65, 0
13, 37920, Program_c, 5, 48
13, 37920, Note_on_c, 5, 65, 48
13, 38039, Note_on_c, 5, 65, 0
13, 38040, Note_on_c, 5, 63, 48
13, 38099, Note_on_c, 5, 63, 0
13, 38100, Note_on_c, 5, 65, 48
13, 38159, Note_on_c, 5, 65, 0
13, 38160, Note_on_c, 5, 67, 48
13, 38279, Note_on_c, 5, 67, 0
13, 38280, Note_on_c, 5, 67, 48
13, 38399, Note_on_c, 5, 67, 0
13, 38400, Note_on_c, 5, 67, 48
13, 38639, Note_on_c, 5, 67, 0
13, 38760, Note_on_c, 5, 72, 48
13, 38879, Note_on_c, 5, 72, 0
13, 38880, Note_on_c, 5, 72, 48
13, 39119, Note_on_c, 5, 72, 0
13, 39120, Note_on_c, 5, 69, 48
13, 39239, Note_on_c, 5, 69, 0
13, 39240, Note_on_c, 5, 72, 48
13, 39359, Note_on_c, 5, 72, 0
13, 39360, Note_on_c, 5, 70, 48
13, 40199, Note_on_c, 5, 70, 0
13, 40200, Note_on_c, 5, 69, 48
13, 40259, Note_on_c, 5, 69, 0
13, 40260, Note_on_c, 5, 67, 48
13, 40319, Note_on_c, 5, 67, 0
13, 40320, Program_c, 5, 44
13, 40320, Note_on_c, 5, 65, 48
13, 40559, Note_on_c, 5, 65, 0
13, 40560, Note_on_c, 5, 65, 48
13, 40560, Program_c, 5, 48
13, 40679, Note_on_c, 5, 65, 0
13, 40680, Note_on_c, 5, 69, 48
13, 40799, Note_on_c, 5, 69, 0
13, 40800, Note_on_c, 5, 70, 48
13, 41039, Note_on_c, 5, 70, 0
13, 41160, Note_on_c, 5, 62, 48
13, 41279, Note_on_c, 5, 62, 0
13, 41280, Note_on_c, 5, 70, 48
13, 41399, Note_on_c, 5, 70, 0
13, 41400, Note_on_c, 5, 69, 48
13, 41519, Note_on_c, 5, 69, 0
13, 41520, Note_on_c, 5, 67, 48
13, 41639, Note_on_c, 5, 67, 0
13, 41640, Note_on_c, 5, 65, 48
13, 41759, Note_on_c, 5, 65, 0
13, 41760, Note_on_c, 5, 64, 48
13, 41939, Note_on_c, 5, 64, 0
13, 41940, Note_on_c, 5, 67, 48
13, 41999, Note_on_c, 5, 67, 0
13, 42000, Note_on_c, 5, 67, 48
13, 42059, Note_on_c, 5, 67, 0
13, 42120, Note_on_c, 5, 67, 48
13, 42179, Note_on_c, 5, 67, 0
13, 42240, Note_on_c, 5, 65, 48
13, 42599, Note_on_c, 5, 65, 0
13, 42600, Note_on_c, 5, 65, 48
13, 42659, Note_on_c, 5, 65, 0
13, 42720, Note_on_c, 5, 65, 48
13, 42959, Note_on_c, 5, 65, 0
13, 42960, Note_on_c, 5, 67, 48
13, 43079, Note_on_c, 5, 67, 0
13, 43080, Note_on_c, 5, 67, 48
13, 43199, Note_on_c, 5, 67, 0
13, 43200, Note_on_c, 5, 65, 48
13, 43319, Note_on_c, 5, 65, 0
13, 43320, Note_on_c, 5, 65, 48
13, 43439, Note_on_c, 5, 65, 0
13, 43440, Note_on_c, 5, 65, 48
13, 43559, Note_on_c, 5, 65, 0
13, 43560, Note_on_c, 5, 69, 48
13, 43679, Note_on_c, 5, 69, 0
13, 43680, Note_on_c, 5, 70, 48
13, 43799, Note_on_c, 5, 70, 0
13, 43800, Note_on_c, 5, 62, 72
13, 43859, Note_on_c, 5, 62, 0
13, 43920, Note_on_c, 5, 65, 72
13, 44039, Note_on_c, 5, 65, 0
13, 44040, Note_on_c, 5, 62, 72
13, 44159, Note_on_c, 5, 62, 0
13, 44280, Note_on_c, 5, 62, 72
13, 44339, Note_on_c, 5, 62, 0
13, 44400, Note_on_c, 5, 65, 72
13, 44519, Note_on_c, 5, 65, 0
13, 44520, Note_on_c, 5, 62, 72
13, 44639, Note_on_c, 5, 62, 0
13, 44760, Note_on_c, 5, 58, 72
13, 44819, Note_on_c, 5, 58, 0
13, 44880, Note_on_c, 5, 62, 72
13, 44999, Note_on_c, 5, 62, 0
13, 45000, Note_on_c, 5, 58, 72
13, 45119, Note_on_c, 5, 58, 0
13, 45120, Program_c, 5, 44
13, 45120, Note_on_c, 5, 70, 72
13, 45599, Note_on_c, 5, 70, 0
13, 45600, Note_on_c, 5, 69, 72
13, 46079, Note_on_c, 5, 69, 0
13, 46080, Program_c, 5, 48
13, 46080, Note_on_c, 5, 70, 48
13, 46319, Note_on_c, 5, 70, 0
13, 46320, Note_on_c, 5, 67, 48
13, 46439, Note_on_c, 5, 67, 0
13, 46440, Note_on_c, 5, 67, 48
13, 46499, Note_on_c, 5, 67, 0
13, 46560, Note_on_c, 5, 65, 48
13, 46560, Program_c, 5, 44
13, 46799, Note_on_c, 5, 65, 0
13, 46800, Program_c, 5, 48
13, 46800, Note_on_c, 5, 65, 48
13, 46859, Note_on_c, 5, 65, 0
13, 46860, Note_on_c, 5, 65, 48
13, 46919, Note_on_c, 5, 65, 0
13, 46920, Note_on_c, 5, 63, 48
13, 46979, Note_on_c, 5, 63, 0
13, 46980, Note_on_c, 5, 63, 48
13, 47039, Note_on_c, 5, 63, 0
13, 47040, Note_on_c, 5, 62, 48
13, 47279, Note_on_c, 5, 62, 0
13, 47610, Note_on_c, 5, 72, 84
13, 47639, Note_on_c, 5, 72, 0
13, 47640, Note_on_c, 5, 70, 84
13, 47699, Note_on_c, 5, 70, 0
13, 47700, Note_on_c, 5, 69, 84
13, 47729, Note_on_c, 5, 69, 0
13, 47730, Note_on_c, 5, 70, 84
13, 47759, Note_on_c, 5, 70, 0
13, 47760, Note_on_c, 5, 74, 84
13, 47819, Note_on_c, 5, 74, 0
13, 47880, Note_on_c, 5, 70, 84
13, 47939, Note_on_c, 5, 70, 0
13, 48000, Note_on_c, 5, 67, 84
13, 48239, Note_on_c, 5, 67, 0
13, 48570, Note_on_c, 5, 69, 84
13, 48599, Note_on_c, 5, 69, 0
13, 48600, Note_on_c, 5, 67, 84
13, 48659, Note_on_c, 5, 67, 0
13, 48660, Note_on_c, 5, 66, 84
13, 48689, Note_on_c, 5, 66, 0
13, 48690, Note_on_c, 5, 67, 84
13, 48719, Note_on_c, 5, 67, 0
13, 48720, Note_on_c, 5, 70, 84
13, 48779, Note_on_c, 5, 70, 0
13, 48840, Note_on_c, 5, 67, 84
13, 48899, Note_on_c, 5, 67, 0
13, 48960, Note_on_c, 5, 63, 84
13, 49199, Note_on_c, 5, 63, 0
13, 49440, Note_on_c, 5, 75, 75
13, 49440, Note_on_c, 5, 63, 75
13, 49679, Note_on_c, 5, 75, 0
13, 49679, Note_on_c, 5, 63, 0
13, 49680, Note_on_c, 5, 74, 72
13, 49799, Note_on_c, 5, 74, 0
13, 49800, Note_on_c, 5, 72, 72
13, 49919, Note_on_c, 5, 72, 0
13, 49920, Note_on_c, 5, 70, 72
13, 50039, Note_on_c, 5, 70, 0
13, 50040, Note_on_c, 5, 62, 72
13, 50159, Note_on_c, 5, 62, 0
13, 50160, Note_on_c, 5, 67, 72
13, 50279, Note_on_c, 5, 67, 0
13, 50280, Note_on_c, 5, 63, 72
13, 50399, Note_on_c, 5, 63, 0
13, 50400, Note_on_c, 5, 62, 72
13, 50459, Note_on_c, 5, 62, 0
13, 50460, Note_on_c, 5, 65, 72
13, 50519, Note_on_c, 5, 65, 0
13, 50520, Note_on_c, 5, 65, 72
13, 50549, Note_on_c, 5, 65, 0
13, 50580, Note_on_c, 5, 65, 72
13, 50609, Note_on_c, 5, 65, 0
13, 50640, Note_on_c, 5, 62, 72
13, 50699, Note_on_c, 5, 62, 0
13, 50700, Note_on_c, 5, 63, 72
13, 50759, Note_on_c, 5, 63, 0
13, 50760, Note_on_c, 5, 63, 72
13, 50789, Note_on_c, 5, 63, 0
13, 50820, Note_on_c, 5, 63, 72
13, 50849, Note_on_c, 5, 63, 0
13, 50880, Note_on_c, 5, 62, 72
13, 51119, Note_on_c, 5, 62, 0
13, 54000, Note_on_c, 5, 65, 72
13, 54479, Note_on_c, 5, 65, 0
13, 54480, Note_on_c, 5, 62, 72
13, 54719, Note_on_c, 5, 62, 0
13, 54720, Note_on_c, 5, 70, 72
13, 55199, Note_on_c, 5, 70, 0
13, 55200, Note_on_c, 5, 69, 72
13, 55439, Note_on_c, 5, 69, 0
13, 55440, Note_on_c, 5, 65, 72
13, 55679, Note_on_c, 5, 65, 0
13, 55680, Note_on_c, 5, 72, 72
13, 55799, Note_on_c, 5, 72, 0
13, 55920, Note_on_c, 5, 74, 72
13, 56279, Note_on_c, 5, 74, 0
13, 56280, Note_on_c, 5, 72, 72
13, 56399, Note_on_c, 5, 72, 0
13, 56400, Note_on_c, 5, 70, 72
13, 56519, Note_on_c, 5, 70, 0
13, 56520, Note_on_c, 5, 69, 72
13, 56639, Note_on_c, 5, 69, 0
13, 56640, Note_on_c, 5, 67, 72
13, 56759, Note_on_c, 5, 67, 0
13, 56760, Note_on_c, 5, 65, 72
13, 56879, Note_on_c, 5, 65, 0
13, 56880, Note_on_c, 5, 64, 72
13, 56999, Note_on_c, 5, 64, 0
13, 57000, Note_on_c, 5, 65, 72
13, 57119, Note_on_c, 5, 65, 0
13, 57120, Note_on_c, 5, 62, 72
13, 57239, Note_on_c, 5, 62, 0
13, 57240, Note_on_c, 5, 64, 72
13, 57359, Note_on_c, 5, 64, 0
13, 57360, Note_on_c, 5, 65, 72
13, 57599, Note_on_c, 5, 65, 0
13, 57840, Note_on_c, 5, 65, 72
13, 57959, Note_on_c, 5, 65, 0
13, 58080, Note_on_c, 5, 65, 72
13, 58319, Note_on_c, 5, 65, 0
13, 58320, Note_on_c, 5, 63, 72
13, 58559, Note_on_c, 5, 63, 0
13, 58560, Note_on_c, 5, 62, 72
13, 58799, Note_on_c, 5, 62, 0
13, 58800, Note_on_c, 5, 70, 72
13, 59039, Note_on_c, 5, 70, 0
13, 59040, Note_on_c, 5, 69, 72
13, 59279, Note_on_c, 5, 69, 0
13, 59280, Note_on_c, 5, 70, 72
13, 59399, Note_on_c, 5, 70, 0
13, 59400, Note_on_c, 5, 69, 72
13, 59519, Note_on_c, 5, 69, 0
13, 59520, Note_on_c, 5, 67, 72
13, 59639, Note_on_c, 5, 67, 0
13, 59640, Note_on_c, 5, 65, 72
13, 59759, Note_on_c, 5, 65, 0
13, 59760, Note_on_c, 5, 63, 72
13, 60239, Note_on_c, 5, 63, 0
13, 60240, Note_on_c, 5, 65, 72
13, 60359, Note_on_c, 5, 65, 0
13, 60360, Note_on_c, 5, 63, 72
13, 60479, Note_on_c, 5, 63, 0
13, 60480, Note_on_c, 5, 62, 72
13, 60599, Note_on_c, 5, 62, 0
13, 60600, Note_on_c, 5, 64, 72
13, 60719, Note_on_c, 5, 64, 0
13, 60720, Note_on_c, 5, 65, 72
13, 60839, Note_on_c, 5, 65, 0
13, 60840, Note_on_c, 5, 67, 72
13, 60959, Note_on_c, 5, 67, 0
13, 60960, Note_on_c, 5, 65, 72
13, 61199, Note_on_c, 5, 65, 0
13, 61440, Note_on_c, 5, 65, 72
13, 61679, Note_on_c, 5, 65, 0
13, 61680, Note_on_c, 5, 65, 72
13, 62399, Note_on_c, 5, 65, 0
13, 62400, Note_on_c, 5, 67, 72
13, 62639, Note_on_c, 5, 67, 0
13, 62640, Note_on_c, 5, 60, 72
13, 62879, Note_on_c, 5, 60, 0
13, 62880, Note_on_c, 5, 60, 72
13, 63119, Note_on_c, 5, 60, 0
13, 63120, Note_on_c, 5, 65, 72
13, 63359, Note_on_c, 5, 65, 0
13, 63360, Note_on_c, 5, 67, 72
13, 63599, Note_on_c, 5, 67, 0
13, 63600, Note_on_c, 5, 69, 72
13, 63839, Note_on_c, 5, 69, 0
13, 63840, Note_on_c, 5, 70, 72
13, 63959, Note_on_c, 5, 70, 0
13, 64080, Note_on_c, 5, 82, 72
13, 64139, Note_on_c, 5, 82, 0
13, 64200, Note_on_c, 5, 81, 72
13, 64259, Note_on_c, 5, 81, 0
13, 64320, Note_on_c, 5, 79, 72
13, 64379, Note_on_c, 5, 79, 0
13, 64440, Note_on_c, 5, 77, 72
13, 64499, Note_on_c, 5, 77, 0
13, 64560, Note_on_c, 5, 75, 72
13, 64619, Note_on_c, 5, 75, 0
13, 64680, Note_on_c, 5, 74, 72
13, 64739, Note_on_c, 5, 74, 0
13, 64800, Note_on_c, 5, 72, 72
13, 64859, Note_on_c, 5, 72, 0
13, 64920, Note_on_c, 5, 70, 72
13, 64979, Note_on_c, 5, 70, 0
13, 65040, Note_on_c, 5, 69, 72
13, 65099, Note_on_c, 5, 69, 0
13, 65160, Note_on_c, 5, 67, 72
13, 65219, Note_on_c, 5, 67, 0
13, 65280, Note_on_c, 5, 65, 72
13, 65339, Note_on_c, 5, 65, 0
13, 65400, Note_on_c, 5, 69, 72
13, 65459, Note_on_c, 5, 69, 0
13, 65520, Note_on_c, 5, 72, 72
13, 65579, Note_on_c, 5, 72, 0
13, 65640, Note_on_c, 5, 74, 72
13, 65699, Note_on_c, 5, 74, 0
13, 65760, Note_on_c, 5, 75, 72
13, 65819, Note_on_c, 5, 75, 0
13, 65880, Note_on_c, 5, 72, 72
13, 65939, Note_on_c, 5, 72, 0
13, 66120, Note_on_c, 5, 70, 72
13, 66120, Note_on_c, 5, 62, 72
13, 66239, Note_on_c, 5, 70, 0
13, 66239, Note_on_c, 5, 62, 0
13, 66360, Note_on_c, 5, 79, 72
13, 66360, Note_on_c, 5, 70, 72
13, 66479, Note_on_c, 5, 79, 0
13, 66479, Note_on_c, 5, 70, 0
13, 66600, Note_on_c, 5, 75, 72
13, 66600, Note_on_c, 5, 65, 72
13, 66719, Note_on_c, 5, 75, 0
13, 66719, Note_on_c, 5, 65, 0
13, 66720, Note_on_c, 5, 74, 72
13, 66720, Note_on_c, 5, 65, 72
13, 66959, Note_on_c, 5, 74, 0
13, 66959, Note_on_c, 5, 65, 0
13, 66959, End_track
14, 0, Start_track
14, 0, Title_t, "Viola"
14, 0, MIDI_port, 0
14, 0, Program_c, 6, 48
14, 0, Control_c, 6, 7, 96
14, 0, Control_c, 6, 10, 80
14, 0, Control_c, 6, 11, 127
14, 120, Note_on_c, 6, 62, 66
14, 239, Note_on_c, 6, 62, 0
14, 240, Note_on_c, 6, 63, 66
14, 359, Note_on_c, 6, 63, 0
14, 360, Note_on_c, 6, 62, 66
14, 479, Note_on_c, 6, 62, 0
14, 480, Note_on_c, 6, 65, 66
14, 719, Note_on_c, 6, 65, 0
14, 720, Note_on_c, 6, 62, 66
14, 839, Note_on_c, 6, 62, 0
14, 840, Note_on_c, 6, 58, 66
14, 959, Note_on_c, 6, 58, 0
14, 960, Note_on_c, 6, 60, 66
14, 1079, Note_on_c, 6, 60, 0
14, 1080, Note_on_c, 6, 58, 66
14, 1199, Note_on_c, 6, 58, 0
14, 1200, Note_on_c, 6, 60, 66
14, 1319, Note_on_c, 6, 60, 0
14, 1320, Note_on_c, 6, 62, 66
14, 1439, Note_on_c, 6, 62, 0
14, 1440, Note_on_c, 6, 63, 66
14, 1559, Note_on_c, 6, 63, 0
14, 1560, Note_on_c, 6, 63, 66
14, 1679, Note_on_c, 6, 63, 0
14, 1800, Note_on_c, 6, 62, 66
14, 1919, Note_on_c, 6, 62, 0
14, 1980, Note_on_c, 6, 55, 66
14, 2039, Note_on_c, 6, 55, 0
14, 2040, Note_on_c, 6, 60, 66
14, 2099, Note_on_c, 6, 60, 0
14, 2100, Note_on_c, 6, 58, 66
14, 2159, Note_on_c, 6, 58, 0
14, 2160, Note_on_c, 6, 57, 66
14, 2219, Note_on_c, 6, 57, 0
14, 2220, Note_on_c, 6, 58, 66
14, 2279, Note_on_c, 6, 58, 0
14, 2280, Note_on_c, 6, 55, 66
14, 2339, Note_on_c, 6, 55, 0
14, 2340, Note_on_c, 6, 57, 66
14, 2399, Note_on_c, 6, 57, 0
14, 2400, Note_on_c, 6, 58, 66
14, 2519, Note_on_c, 6, 58, 0
14, 2520, Note_on_c, 6, 70, 66
14, 2639, Note_on_c, 6, 70, 0
14, 2640, Note_on_c, 6, 65, 66
14, 2759, Note_on_c, 6, 65, 0
14, 2760, Note_on_c, 6, 62, 66
14, 2879, Note_on_c, 6, 62, 0
14, 2880, Note_on_c, 6, 58, 48
14, 3119, Note_on_c, 6, 58, 0
14, 3240, Note_on_c, 6, 58, 48
14, 3359, Note_on_c, 6, 58, 0
14, 3360, Note_on_c, 6, 63, 48
14, 3479, Note_on_c, 6, 63, 0
14, 3480, Note_on_c, 6, 62, 48
14, 3599, Note_on_c, 6, 62, 0
14, 3720, Note_on_c, 6, 70, 48
14, 3839, Note_on_c, 6, 70, 0
14, 3840, Note_on_c, 6, 69, 48
14, 3959, Note_on_c, 6, 69, 0
14, 3960, Note_on_c, 6, 70, 48
14, 4079, Note_on_c, 6, 70, 0
14, 4200, Note_on_c, 6, 62, 48
14, 4319, Note_on_c, 6, 62, 0
14, 4320, Note_on_c, 6, 63, 48
14, 4439, Note_on_c, 6, 63, 0
14, 4440, Note_on_c, 6, 63, 48
14, 4559, Note_on_c, 6, 63, 0
14, 4680, Note_on_c, 6, 62, 48
14, 4799, Note_on_c, 6, 62, 0
14, 4860, Note_on_c, 6, 55, 48
14, 4919, Note_on_c, 6, 55, 0
14, 4920, Note_on_c, 6, 60, 48
14, 4979, Note_on_c, 6, 60, 0
14, 4980, Note_on_c, 6, 58, 48
14, 5039, Note_on_c, 6, 58, 0
14, 5040, Note_on_c, 6, 57, 48
14, 5099, Note_on_c, 6, 57, 0
14, 5100, Note_on_c, 6, 58, 48
14, 5159, Note_on_c, 6, 58, 0
14, 5160, Note_on_c, 6, 55, 48
14, 5219, Note_on_c, 6, 55, 0
14, 5220, Note_on_c, 6, 57, 48
14, 5279, Note_on_c, 6, 57, 0
14, 5280, Note_on_c, 6, 58, 48
14, 5399, Note_on_c, 6, 58, 0
14, 5400, Note_on_c, 6, 62, 48
14, 5519, Note_on_c, 6, 62, 0
14, 5520, Note_on_c, 6, 65, 48
14, 5639, Note_on_c, 6, 65, 0
14, 5640, Note_on_c, 6, 62, 48
14, 5759, Note_on_c, 6, 62, 0
14, 5880, Note_on_c, 6, 62, 48
14, 5999, Note_on_c, 6, 62, 0
14, 6000, Note_on_c, 6, 65, 48
14, 6119, Note_on_c, 6, 65, 0
14, 6120, Note_on_c, 6, 62, 48
14, 6239, Note_on_c, 6, 62, 0
14, 6360, Note_on_c, 6, 60, 48
14, 6479, Note_on_c, 6, 60, 0
14, 6480, Note_on_c, 6, 69, 48
14, 6599, Note_on_c, 6, 69, 0
14, 6600, Note_on_c, 6, 60, 48
14, 6719, Note_on_c, 6, 60, 0
14, 6840, Note_on_c, 6, 57, 48
14, 6959, Note_on_c, 6, 57, 0
14, 6960, Note_on_c, 6, 65, 48
14, 7079, Note_on_c, 6, 65, 0
14, 7080, Note_on_c, 6, 57, 48
14, 7199, Note_on_c, 6, 57, 0
14, 7200, Note_on_c, 6, 55, 48
14, 7319, Note_on_c, 6, 55, 0
14, 7320, Note_on_c, 6, 53, 48
14, 7439, Note_on_c, 6, 53, 0
14, 7440, Note_on_c, 6, 52, 48
14, 7559, Note_on_c, 6, 52, 0
14, 7560, Note_on_c, 6, 50, 48
14, 7679, Note_on_c, 6, 50, 0
14, 7680, Note_on_c, 6, 48, 48
14, 7919, Note_on_c, 6, 48, 0
14, 8280, Note_on_c, 6, 52, 48
14, 8399, Note_on_c, 6, 52, 0
14, 8400, Note_on_c, 6, 53, 48
14, 8519, Note_on_c, 6, 53, 0
14, 8520, Note_on_c, 6, 55, 48
14, 8639, Note_on_c, 6, 55, 0
14, 8640, Note_on_c, 6, 53, 48
14, 8879, Note_on_c, 6, 53, 0
14, 9480, Note_on_c, 6, 58, 48
14, 9599, Note_on_c, 6, 58, 0
14, 9600, Note_on_c, 6, 57, 48
14, 9719, Note_on_c, 6, 57, 0
14, 9720, Note_on_c, 6, 60, 48
14, 9779, Note_on_c, 6, 60, 0
14, 9840, Note_on_c, 6, 65, 48
14, 9959, Note_on_c, 6, 65, 0
14, 9960, Note_on_c, 6, 60, 48
14, 10079, Note_on_c, 6, 60, 0
14, 10080, Note_on_c, 6, 67, 48
14, 10319, Note_on_c, 6, 67, 0
14, 10440, Note_on_c, 6, 58, 48
14, 10559, Note_on_c, 6, 58, 0
14, 10560, Note_on_c, 6, 57, 48
14, 10679, Note_on_c, 6, 57, 0
14, 10680, Note_on_c, 6, 60, 48
14, 10799, Note_on_c, 6, 60, 0
14, 10800, Note_on_c, 6, 65, 48
14, 10919, Note_on_c, 6, 65, 0
14, 10920, Note_on_c, 6, 63, 48
14, 11039, Note_on_c, 6, 63, 0
14, 11040, Note_on_c, 6, 62, 48
14, 11159, Note_on_c, 6, 62, 0
14, 11160, Note_on_c, 6, 66, 48
14, 11279, Note_on_c, 6, 66, 0
14, 11280, Note_on_c, 6, 69, 48
14, 11399, Note_on_c, 6, 69, 0
14, 11400, Note_on_c, 6, 62, 48
14, 11519, Note_on_c, 6, 62, 0
14, 11520, Note_on_c, 6, 62, 48
14, 11759, Note_on_c, 6, 62, 0
14, 11880, Note_on_c, 6, 62, 48
14, 11999, Note_on_c, 6, 62, 0
14, 12000, Note_on_c, 6, 60, 48
14, 12119, Note_on_c, 6, 60, 0
14, 12120, Note_on_c, 6, 64, 48
14, 12239, Note_on_c, 6, 64, 0
14, 12240, Note_on_c, 6, 67, 48
14, 12359, Note_on_c, 6, 67, 0
14, 12360, Note_on_c, 6, 60, 48
14, 12479, Note_on_c, 6, 60, 0
14, 12480, Note_on_c, 6, 65, 48
14, 12599, Note_on_c, 6, 65, 0
14, 12600, Note_on_c, 6, 67, 48
14, 12719, Note_on_c, 6, 67, 0
14, 12720, Note_on_c, 6, 68, 48
14, 12839, Note_on_c, 6, 68, 0
14, 12840, Note_on_c, 6, 69, 48
14, 12959, Note_on_c, 6, 69, 0
14, 12960, Note_on_c, 6, 69, 48
14, 13079, Note_on_c, 6, 69, 0
14, 13080, Note_on_c, 6, 70, 48
14, 13199, Note_on_c, 6, 70, 0
14, 13200, Note_on_c, 6, 67, 48
14, 13259, Note_on_c, 6, 67, 0
14, 13260, Note_on_c, 6, 65, 48
14, 13319, Note_on_c, 6, 65, 0
14, 13320, Note_on_c, 6, 64, 48
14, 13379, Note_on_c, 6, 64, 0
14, 13380, Note_on_c, 6, 62, 48
14, 13439, Note_on_c, 6, 62, 0
14, 13440, Note_on_c, 6, 60, 48
14, 13559, Note_on_c, 6, 60, 0
14, 13560, Note_on_c, 6, 60, 48
14, 13679, Note_on_c, 6, 60, 0
14, 13680, Note_on_c, 6, 60, 48
14, 13799, Note_on_c, 6, 60, 0
14, 13800, Note_on_c, 6, 61, 48
14, 13919, Note_on_c, 6, 61, 0
14, 13920, Note_on_c, 6, 62, 48
14, 14039, Note_on_c, 6, 62, 0
14, 14040, Note_on_c, 6, 74, 48
14, 14159, Note_on_c, 6, 74, 0
14, 14280, Note_on_c, 6, 62, 48
14, 14399, Note_on_c, 6, 62, 0
14, 14400, Note_on_c, 6, 65, 48
14, 14519, Note_on_c, 6, 65, 0
14, 14520, Note_on_c, 6, 64, 48
14, 14639, Note_on_c, 6, 64, 0
14, 14640, Note_on_c, 6, 62, 48
14, 14759, Note_on_c, 6, 62, 0
14, 14760, Note_on_c, 6, 60, 48
14, 14879, Note_on_c, 6, 60, 0
14, 14880, Note_on_c, 6, 59, 48
14, 14999, Note_on_c, 6, 59, 0
14, 15000, Note_on_c, 6, 60, 48
14, 15119, Note_on_c, 6, 60, 0
14, 15120, Note_on_c, 6, 62, 48
14, 15239, Note_on_c, 6, 62, 0
14, 15240, Note_on_c, 6, 62, 48
14, 15359, Note_on_c, 6, 62, 0
14, 15360, Note_on_c, 6, 67, 48
14, 15539, Note_on_c, 6, 67, 0
14, 15540, Note_on_c, 6, 64, 48
14, 15599, Note_on_c, 6, 64, 0
14, 15600, Note_on_c, 6, 64, 48
14, 15719, Note_on_c, 6, 64, 0
14, 15720, Note_on_c, 6, 62, 48
14, 15779, Note_on_c, 6, 62, 0
14, 15780, Note_on_c, 6, 60, 48
14, 15839, Note_on_c, 6, 60, 0
14, 15840, Note_on_c, 6, 60, 48
14, 15959, Note_on_c, 6, 60, 0
14, 15960, Note_on_c, 6, 57, 48
14, 16079, Note_on_c, 6, 57, 0
14, 16080, Note_on_c, 6, 58, 48
14, 16139, Note_on_c, 6, 58, 0
14, 16200, Note_on_c, 6, 58, 48
14, 16259, Note_on_c, 6, 58, 0
14, 16320, Program_c, 6, 44
14, 16320, Note_on_c, 6, 57, 48
14, 16559, Note_on_c, 6, 57, 0
14, 16560, Program_c, 6, 48
14, 16560, Note_on_c, 6, 57, 48
14, 16619, Note_on_c, 6, 57, 0
14, 16620, Note_on_c, 6, 57, 48
14, 16679, Note_on_c, 6, 57, 0
14, 16680, Note_on_c, 6, 58, 48
14, 16739, Note_on_c, 6, 58, 0
14, 16740, Note_on_c, 6, 58, 48
14, 16799, Note_on_c, 6, 58, 0
14, 16800, Note_on_c, 6, 57, 48
14, 17039, Note_on_c, 6, 57, 0
14, 17370, Note_on_c, 6, 55, 84
14, 17399, Note_on_c, 6, 55, 0
14, 17400, Note_on_c, 6, 53, 84
14, 17459, Note_on_c, 6, 53, 0
14, 17460, Note_on_c, 6, 51, 84
14, 17489, Note_on_c, 6, 51, 0
14, 17490, Note_on_c, 6, 53, 84
14, 17519, Note_on_c, 6, 53, 0
14, 17520, Note_on_c, 6, 57, 84
14, 17579, Note_on_c, 6, 57, 0
14, 17640, Note_on_c, 6, 53, 84
14, 17699, Note_on_c, 6, 53, 0
14, 17760, Note_on_c, 6, 50, 84
14, 17999, Note_on_c, 6, 50, 0
14, 18330, Note_on_c, 6, 52, 84
14, 18359, Note_on_c, 6, 52, 0
14, 18360, Note_on_c, 6, 50, 84
14, 18419, Note_on_c, 6, 50, 0
14, 18420, Note_on_c, 6, 49, 84
14, 18449, Note_on_c, 6, 49, 0
14, 18450, Note_on_c, 6, 50, 84
14, 18479, Note_on_c, 6, 50, 0
14, 18480, Note_on_c, 6, 53, 84
14, 18539, Note_on_c, 6, 53, 0
14, 18600, Note_on_c, 6, 50, 84
14, 18659, Note_on_c, 6, 50, 0
14, 18720, Note_on_c, 6, 58, 84
14, 18959, Note_on_c, 6, 58, 0
14, 19200, Note_on_c, 6, 58, 84
14, 19200, Note_on_c, 6, 70, 84
14, 19200, Note_on_c, 6, 65, 84
14, 19439, Note_on_c, 6, 58, 0
14, 19439, Note_on_c, 6, 70, 0
14, 19439, Note_on_c, 6, 65, 0
14, 21240, Note_on_c, 6, 57, 66
14, 21359, Note_on_c, 6, 57, 0
14, 21360, Note_on_c, 6, 60, 66
14, 21479, Note_on_c, 6, 60, 0
14, 21480, Note_on_c, 6, 65, 66
14, 21599, Note_on_c, 6, 65, 0
14, 21720, Note_on_c, 6, 57, 66
14, 21839, Note_on_c, 6, 57, 0
14, 21840, Note_on_c, 6, 60, 66
14, 21959, Note_on_c, 6, 60, 0
14, 21960, Note_on_c, 6, 65, 66
14, 22079, Note_on_c, 6, 65, 0
14, 22200, Note_on_c, 6, 57, 66
14, 22319, Note_on_c, 6, 57, 0
14, 22320, Note_on_c, 6, 60, 66
14, 22439, Note_on_c, 6, 60, 0
14, 22440, Note_on_c, 6, 65, 66
14, 22559, Note_on_c, 6, 65, 0
14, 22680, Note_on_c, 6, 57, 66
14, 22799, Note_on_c, 6, 57, 0
14, 22800, Note_on_c, 6, 60, 66
14, 22919, Note_on_c, 6, 60, 0
14, 22920, Note_on_c, 6, 65, 66
14, 23039, Note_on_c, 6, 65, 0
14, 23160, Note_on_c, 6, 57, 66
14, 23279, Note_on_c, 6, 57, 0
14, 23280, Note_on_c, 6, 60, 66
14, 23399, Note_on_c, 6, 60, 0
14, 23400, Note_on_c, 6, 65, 66
14, 23519, Note_on_c, 6, 65, 0
14, 23640, Note_on_c, 6, 57, 66
14, 23759, Note_on_c, 6, 57, 0
14, 23760, Note_on_c, 6, 60, 66
14, 23879, Note_on_c, 6, 60, 0
14, 23880, Note_on_c, 6, 63, 66
14, 23999, Note_on_c, 6, 63, 0
14, 24120, Note_on_c, 6, 57, 66
14, 24239, Note_on_c, 6, 57, 0
14, 24240, Note_on_c, 6, 65, 66
14, 24359, Note_on_c, 6, 65, 0
14, 24360, Note_on_c, 6, 57, 66
14, 24479, Note_on_c, 6, 57, 0
14, 24600, Note_on_c, 6, 58, 66
14, 24719, Note_on_c, 6, 58, 0
14, 24720, Note_on_c, 6, 62, 66
14, 24839, Note_on_c, 6, 62, 0
14, 24840, Note_on_c, 6, 67, 66
14, 24959, Note_on_c, 6, 67, 0
14, 24960, Note_on_c, 6, 65, 66
14, 25199, Note_on_c, 6, 65, 0
14, 25920, Note_on_c, 6, 62, 48
14, 26159, Note_on_c, 6, 62, 0
14, 26280, Note_on_c, 6, 58, 48
14, 26399, Note_on_c, 6, 58, 0
14, 26400, Note_on_c, 6, 65, 48
14, 26639, Note_on_c, 6, 65, 0
14, 26760, Note_on_c, 6, 62, 48
14, 26879, Note_on_c, 6, 62, 0
14, 26880, Note_on_c, 6, 65, 48
14, 27119, Note_on_c, 6, 65, 0
14, 27240, Note_on_c, 6, 58, 48
14, 27359, Note_on_c, 6, 58, 0
14, 27360, Note_on_c, 6, 60, 48
14, 27479, Note_on_c, 6, 60, 0
14, 27600, Note_on_c, 6, 58, 48
14, 27719, Note_on_c, 6, 58, 0
14, 27840, Note_on_c, 6, 57, 48
14, 27959, Note_on_c, 6, 57, 0
14, 28080, Note_on_c, 6, 65, 48
14, 28199, Note_on_c, 6, 65, 0
14, 28320, Note_on_c, 6, 62, 48
14, 28559, Note_on_c, 6, 62, 0
14, 28680, Note_on_c, 6, 53, 48
14, 28799, Note_on_c, 6, 53, 0
14, 28800, Note_on_c, 6, 55, 48
14, 28919, Note_on_c, 6, 55, 0
14, 28920, Note_on_c, 6, 53, 48
14, 29039, Note_on_c, 6, 53, 0
14, 29160, Note_on_c, 6, 58, 48
14, 29279, Note_on_c, 6, 58, 0
14, 29280, Note_on_c, 6, 58, 48
14, 29399, Note_on_c, 6, 58, 0
14, 29400, Note_on_c, 6, 55, 48
14, 29519, Note_on_c, 6, 55, 0
14, 29640, Note_on_c, 6, 58, 48
14, 29759, Note_on_c, 6, 58, 0
14, 29760, Note_on_c, 6, 57, 48
14, 29879, Note_on_c, 6, 57, 0
14, 29880, Note_on_c, 6, 58, 48
14, 29999, Note_on_c, 6, 58, 0
14, 30120, Note_on_c, 6, 55, 48
14, 30239, Note_on_c, 6, 55, 0
14, 30300, Note_on_c, 6, 48, 48
14, 30359, Note_on_c, 6, 48, 0
14, 30360, Note_on_c, 6, 53, 48
14, 30419, Note_on_c, 6, 53, 0
14, 30420, Note_on_c, 6, 51, 48
14, 30479, Note_on_c, 6, 51, 0
14, 30480, Note_on_c, 6, 50, 48
14, 30539, Note_on_c, 6, 50, 0
14, 30540, Note_on_c, 6, 51, 48
14, 30599, Note_on_c, 6, 51, 0
14, 30600, Note_on_c, 6, 48, 48
14, 30659, Note_on_c, 6, 48, 0
14, 30660, Note_on_c, 6, 50, 48
14, 30719, Note_on_c, 6, 50, 0
14, 30720, Note_on_c, 6, 51, 48
14, 30959, Note_on_c, 6, 51, 0
14, 31080, Note_on_c, 6, 63, 48
14, 31199, Note_on_c, 6, 63, 0
14, 31200, Note_on_c, 6, 62, 48
14, 31319, Note_on_c, 6, 62, 0
14, 31320, Note_on_c, 6, 65, 48
14, 31439, Note_on_c, 6, 65, 0
14, 31440, Note_on_c, 6, 58, 48
14, 31559, Note_on_c, 6, 58, 0
14, 31560, Note_on_c, 6, 68, 48
14, 31679, Note_on_c, 6, 68, 0
14, 31680, Note_on_c, 6, 67, 48
14, 31919, Note_on_c, 6, 67, 0
14, 32040, Note_on_c, 6, 63, 48
14, 32159, Note_on_c, 6, 63, 0
14, 32160, Note_on_c, 6, 62, 48
14, 32279, Note_on_c, 6, 62, 0
14, 32280, Note_on_c, 6, 65, 48
14, 32399, Note_on_c, 6, 65, 0
14, 32400, Note_on_c, 6, 58, 48
14, 32519, Note_on_c, 6, 58, 0
14, 32520, Note_on_c, 6, 68, 48
14, 32639, Note_on_c, 6, 68, 0
14, 32640, Note_on_c, 6, 67, 48
14, 32759, Note_on_c, 6, 67, 0
14, 32760, Note_on_c, 6, 63, 48
14, 32879, Note_on_c, 6, 63, 0
14, 32880, Note_on_c, 6, 62, 48
14, 32999, Note_on_c, 6, 62, 0
14, 33000, Note_on_c, 6, 60, 48
14, 33119, Note_on_c, 6, 60, 0
14, 33120, Note_on_c, 6, 59, 48
14, 33239, Note_on_c, 6, 59, 0
14, 33240, Note_on_c, 6, 62, 48
14, 33359, Note_on_c, 6, 62, 0
14, 33360, Note_on_c, 6, 55, 48
14, 33479, Note_on_c, 6, 55, 0
14, 33480, Note_on_c, 6, 65, 48
14, 33599, Note_on_c, 6, 65, 0
14, 33600, Note_on_c, 6, 63, 48
14, 33719, Note_on_c, 6, 63, 0
14, 33720, Note_on_c, 6, 67, 48
14, 33839, Note_on_c, 6, 67, 0
14, 33840, Note_on_c, 6, 60, 48
14, 33959, Note_on_c, 6, 60, 0
14, 33960, Note_on_c, 6, 58, 48
14, 34079, Note_on_c, 6, 58, 0
14, 34080, Note_on_c, 6, 57, 48
14, 34199, Note_on_c, 6, 57, 0
14, 34200, Note_on_c, 6, 60, 48
14, 34319, Note_on_c, 6, 60, 0
14, 34320, Note_on_c, 6, 53, 48
14, 34439, Note_on_c, 6, 53, 0
14, 34440, Note_on_c, 6, 57, 48
14, 34559, Note_on_c, 6, 57, 0
14, 34560, Program_c, 6, 44
14, 34560, Note_on_c, 6, 58, 54
14, 34799, Note_on_c, 6, 58, 0
14, 34800, Note_on_c, 6, 65, 60
14, 35039, Note_on_c, 6, 65, 0
14, 35040, Note_on_c, 6, 67, 66
14, 35519, Note_on_c, 6, 67, 0
14, 35520, Program_c, 6, 48
14, 35520, Note_on_c, 6, 60, 72
14, 35640, Control_c, 6, 11, 80
14, 35759, Note_on_c, 6, 60, 0
14, 35880, Control_c, 6, 11, 127
14, 35880, Note_on_c, 6, 58, 48
14, 35999, Note_on_c, 6, 58, 0
14, 36000, Note_on_c, 6, 57, 48
14, 36239, Note_on_c, 6, 57, 0
14, 36240, Note_on_c, 6, 60, 48
14, 36359, Note_on_c, 6, 60, 0
14, 36360, Note_on_c, 6, 63, 48
14, 36479, Note_on_c, 6, 63, 0
14, 36480, Note_on_c, 6, 62, 48
14, 36839, Note_on_c, 6, 62, 0
14, 36840, Note_on_c, 6, 58, 48
14, 36959, Note_on_c, 6, 58, 0
14, 36960, Note_on_c, 6, 57, 48
14, 37199, Note_on_c, 6, 57, 0
14, 37200, Note_on_c, 6, 60, 48
14, 37319, Note_on_c, 6, 60, 0
14, 37320, Note_on_c, 6, 63, 48
14, 37439, Note_on_c, 6, 63, 0
14, 37440, Note_on_c, 6, 62, 48
14, 37799, Note_on_c, 6, 62, 0
14, 37800, Note_on_c, 6, 60, 48
14, 37919, Note_on_c, 6, 60, 0
14, 37920, Note_on_c, 6, 59, 48
14, 38039, Note_on_c, 6, 59, 0
14, 38040, Note_on_c, 6, 60, 48
14, 38099, Note_on_c, 6, 60, 0
14, 38100, Note_on_c, 6, 62, 48
14, 38159, Note_on_c, 6, 62, 0
14, 38160, Note_on_c, 6, 63, 48
14, 38279, Note_on_c, 6, 63, 0
14, 38280, Note_on_c, 6, 62, 48
14, 38399, Note_on_c, 6, 62, 0
14, 38400, Note_on_c, 6, 60, 48
14, 38639, Note_on_c, 6, 60, 0
14, 38640, Note_on_c, 6, 64, 48
14, 38759, Note_on_c, 6, 64, 0
14, 38760, Note_on_c, 6, 67, 48
14, 38879, Note_on_c, 6, 67, 0
14, 38880, Note_on_c, 6, 57, 48
14, 38999, Note_on_c, 6, 57, 0
14, 39000, Note_on_c, 6, 60, 48
14, 39119, Note_on_c, 6, 60, 0
14, 39120, Note_on_c, 6, 65, 48
14, 39239, Note_on_c, 6, 65, 0
14, 39240, Note_on_c, 6, 57, 48
14, 39359, Note_on_c, 6, 57, 0
14, 39360, Note_on_c, 6, 58, 48
14, 39479, Note_on_c, 6, 58, 0
14, 39480, Note_on_c, 6, 60, 48
14, 39599, Note_on_c, 6, 60, 0
14, 39600, Note_on_c, 6, 61, 48
14, 39719, Note_on_c, 6, 61, 0
14, 39720, Note_on_c, 6, 62, 48
14, 39839, Note_on_c, 6, 62, 0
14, 39840, Note_on_c, 6, 62, 48
14, 39959, Note_on_c, 6, 62, 0
14, 39960, Note_on_c, 6, 63, 48
14, 40079, Note_on_c, 6, 63, 0
14, 40080, Note_on_c, 6, 68, 48
14, 40139, Note_on_c, 6, 68, 0
14, 40140, Note_on_c, 6, 67, 48
14, 40199, Note_on_c, 6, 67, 0
14, 40200, Note_on_c, 6, 65, 48
14, 40259, Note_on_c, 6, 65, 0
14, 40260, Note_on_c, 6, 63, 48
14, 40319, Note_on_c, 6, 63, 0
14, 40320, Note_on_c, 6, 62, 48
14, 40379, Note_on_c, 6, 62, 0
14, 40440, Note_on_c, 6, 62, 48
14, 40499, Note_on_c, 6, 62, 0
14, 40560, Note_on_c, 6, 62, 48
14, 40679, Note_on_c, 6, 62, 0
14, 40680, Note_on_c, 6, 63, 48
14, 40799, Note_on_c, 6, 63, 0
14, 40800, Note_on_c, 6, 62, 48
14, 40919, Note_on_c, 6, 62, 0
14, 40920, Note_on_c, 6, 55, 48
14, 41039, Note_on_c, 6, 55, 0
14, 41040, Note_on_c, 6, 58, 48
14, 41159, Note_on_c, 6, 58, 0
14, 41160, Note_on_c, 6, 55, 48
14, 41279, Note_on_c, 6, 55, 0
14, 41280, Note_on_c, 6, 67, 48
14, 41399, Note_on_c, 6, 67, 0
14, 41400, Note_on_c, 6, 65, 48
14, 41519, Note_on_c, 6, 65, 0
14, 41520, Note_on_c, 6, 64, 48
14, 41639, Note_on_c, 6, 64, 0
14, 41640, Note_on_c, 6, 62, 48
14, 41759, Note_on_c, 6, 62, 0
14, 41760, Note_on_c, 6, 60, 48
14, 41879, Note_on_c, 6, 60, 0
14, 41880, Note_on_c, 6, 48, 48
14, 41999, Note_on_c, 6, 48, 0
14, 42120, Note_on_c, 6, 63, 48
14, 42239, Note_on_c, 6, 63, 0
14, 42240, Note_on_c, 6, 65, 48
14, 42479, Note_on_c, 6, 65, 0
14, 42480, Note_on_c, 6, 57, 48
14, 42599, Note_on_c, 6, 57, 0
14, 42600, Note_on_c, 6, 57, 48
14, 42659, Note_on_c, 6, 57, 0
14, 42720, Note_on_c, 6, 58, 48
14, 43079, Note_on_c, 6, 58, 0
14, 43080, Note_on_c, 6, 58, 48
14, 43199, Note_on_c, 6, 58, 0
14, 43200, Note_on_c, 6, 62, 48
14, 43319, Note_on_c, 6, 62, 0
14, 43320, Note_on_c, 6, 62, 48
14, 43439, Note_on_c, 6, 62, 0
14, 43440, Note_on_c, 6, 62, 48
14, 43559, Note_on_c, 6, 62, 0
14, 43560, Note_on_c, 6, 63, 48
14, 43679, Note_on_c, 6, 63, 0
14, 43680, Note_on_c, 6, 62, 48
14, 43799, Note_on_c, 6, 62, 0
14, 43800, Note_on_c, 6, 58, 72
14, 43859, Note_on_c, 6, 58, 0
14, 43920, Note_on_c, 6, 62, 72
14, 44039, Note_on_c, 6, 62, 0
14, 44040, Note_on_c, 6, 58, 72
14, 44159, Note_on_c, 6, 58, 0
14, 44280, Note_on_c, 6, 58, 72
14, 44339, Note_on_c, 6, 58, 0
14, 44400, Note_on_c, 6, 62, 72
14, 44519, Note_on_c, 6, 62, 0
14, 44520, Note_on_c, 6, 58, 72
14, 44639, Note_on_c, 6, 58, 0
14, 44760, Note_on_c, 6, 55, 72
14, 44819, Note_on_c, 6, 55, 0
14, 44880, Note_on_c, 6, 58, 72
14, 44999, Note_on_c, 6, 58, 0
14, 45000, Note_on_c, 6, 55, 72
14, 45119, Note_on_c, 6, 55, 0
14, 45120, Program_c, 6, 44
14, 45120, Note_on_c, 6, 61, 72
14, 45599, Note_on_c, 6, 61, 0
14, 45600, Program_c, 6, 48
14, 45600, Note_on_c, 6, 60, 72
14, 45659, Note_on_c, 6, 60, 0
14, 45660, Note_on_c, 6, 65, 72
14, 45719, Note_on_c, 6, 65, 0
14, 45720, Note_on_c, 6, 65, 72
14, 45779, Note_on_c, 6, 65, 0
14, 45780, Note_on_c, 6, 65, 72
14, 45839, Note_on_c, 6, 65, 0
14, 45840, Program_c, 6, 44
14, 45840, Note_on_c, 6, 65, 72
14, 46079, Note_on_c, 6, 65, 0
14, 46080, Program_c, 6, 48
14, 46080, Note_on_c, 6, 65, 48
14, 46319, Note_on_c, 6, 65, 0
14, 46320, Note_on_c, 6, 58, 48
14, 46439, Note_on_c, 6, 58, 0
14, 46440, Note_on_c, 6, 63, 48
14, 46499, Note_on_c, 6, 63, 0
14, 46560, Program_c, 6, 44
14, 46560, Note_on_c, 6, 62, 48
14, 46799, Note_on_c, 6, 62, 0
14, 46800, Program_c, 6, 48
14, 46800, Note_on_c, 6, 62, 48
14, 46859, Note_on_c, 6, 62, 0
14, 46860, Note_on_c, 6, 62, 48
14, 46919, Note_on_c, 6, 62, 0
14, 46920, Note_on_c, 6, 57, 48
14, 46979, Note_on_c, 6, 57, 0
14, 46980, Note_on_c, 6, 57, 48
14, 47039, Note_on_c, 6, 57, 0
14, 47040, Note_on_c, 6, 58, 48
14, 47279, Note_on_c, 6, 58, 0
14, 47610, Note_on_c, 6, 60, 84
14, 47639, Note_on_c, 6, 60, 0
14, 47640, Note_on_c, 6, 58, 84
14, 47699, Note_on_c, 6, 58, 0
14, 47700, Note_on_c, 6, 57, 84
14, 47729, Note_on_c, 6, 57, 0
14, 47730, Note_on_c, 6, 58, 84
14, 47759, Note_on_c, 6, 58, 0
14, 47760, Note_on_c, 6, 62, 84
14, 47819, Note_on_c, 6, 62, 0
14, 47820, Note_on_c, 6, 58, 84
14, 47879, Note_on_c, 6, 58, 0
14, 48000, Note_on_c, 6, 55, 84
14, 48239, Note_on_c, 6, 55, 0
14, 48570, Note_on_c, 6, 57, 84
14, 48599, Note_on_c, 6, 57, 0
14, 48600, Note_on_c, 6, 55, 84
14, 48659, Note_on_c, 6, 55, 0
14, 48660, Note_on_c, 6, 54, 84
14, 48689, Note_on_c, 6, 54, 0
14, 48690, Note_on_c, 6, 55, 84
14, 48719, Note_on_c, 6, 55, 0
14, 48720, Note_on_c, 6, 58, 84
14, 48779, Note_on_c, 6, 58, 0
14, 48840, Note_on_c, 6, 55, 84
14, 48899, Note_on_c, 6, 55, 0
14, 48960, Note_on_c, 6, 51, 84
14, 49199, Note_on_c, 6, 51, 0
14, 49440, Note_on_c, 6, 57, 75
14, 49919, Note_on_c, 6, 57, 0
14, 49920, Note_on_c, 6, 58, 72
14, 50039, Note_on_c, 6, 58, 0
14, 50040, Note_on_c, 6, 65, 72
14, 50159, Note_on_c, 6, 65, 0
14, 50160, Note_on_c, 6, 63, 72
14, 50279, Note_on_c, 6, 63, 0
14, 50280, Note_on_c, 6, 60, 72
14, 50399, Note_on_c, 6, 60, 0
14, 50400, Note_on_c, 6, 58, 72
14, 50459, Note_on_c, 6, 58, 0
14, 50460, Note_on_c, 6, 62, 72
14, 50519, Note_on_c, 6, 62, 0
14, 50520, Note_on_c, 6, 62, 72
14, 50549, Note_on_c, 6, 62, 0
14, 50580, Note_on_c, 6, 62, 72
14, 50609, Note_on_c, 6, 62, 0
14, 50640, Note_on_c, 6, 58, 72
14, 50699, Note_on_c, 6, 58, 0
14, 50700, Note_on_c, 6, 57, 72
14, 50759, Note_on_c, 6, 57, 0
14, 50760, Note_on_c, 6, 57, 72
14, 50789, Note_on_c, 6, 57, 0
14, 50820, Note_on_c, 6, 57, 72
14, 50849, Note_on_c, 6, 57, 0
14, 50880, Note_on_c, 6, 58, 72
14, 51119, Note_on_c, 6, 58, 0
14, 51120, Note_on_c, 6, 58, 72
14, 51599, Note_on_c, 6, 58, 0
14, 51600, Note_on_c, 6, 57, 72
14, 51839, Note_on_c, 6, 57, 0
14, 51840, Note_on_c, 6, 63, 72
14, 52319, Note_on_c, 6, 63, 0
14, 52320, Note_on_c, 6, 62, 72
14, 52559, Note_on_c, 6, 62, 0
14, 52560, Note_on_c, 6, 58, 72
14, 52799, Note_on_c, 6, 58, 0
14, 52800, Note_on_c, 6, 65, 72
14, 52919, Note_on_c, 6, 65, 0
14, 53040, Note_on_c, 6, 67, 72
14, 53399, Note_on_c, 6, 67, 0
14, 53400, Note_on_c, 6, 65, 72
14, 53519, Note_on_c, 6, 65, 0
14, 53520, Note_on_c, 6, 63, 72
14, 53639, Note_on_c, 6, 63, 0
14, 53640, Note_on_c, 6, 62, 72
14, 53759, Note_on_c, 6, 62, 0
14, 53760, Note_on_c, 6, 60, 72
14, 53879, Note_on_c, 6, 60, 0
14, 53880, Note_on_c, 6, 58, 72
14, 53999, Note_on_c, 6, 58, 0
14, 54000, Note_on_c, 6, 57, 72
14, 54119, Note_on_c, 6, 57, 0
14, 54120, Note_on_c, 6, 58, 72
14, 54239, Note_on_c, 6, 58, 0
14, 54240, Note_on_c, 6, 55, 72
14, 54359, Note_on_c, 6, 55, 0
14, 54360, Note_on_c, 6, 57, 72
14, 54479, Note_on_c, 6, 57, 0
14, 54480, Note_on_c, 6, 58, 72
14, 54719, Note_on_c, 6, 58, 0
14, 54720, Note_on_c, 6, 55, 72
14, 54959, Note_on_c, 6, 55, 0
14, 54960, Note_on_c, 6, 60, 72
14, 55079, Note_on_c, 6, 60, 0
14, 55200, Note_on_c, 6, 53, 72
14, 55439, Note_on_c, 6, 53, 0
14, 55440, Note_on_c, 6, 55, 72
14, 55679, Note_on_c, 6, 55, 0
14, 55680, Note_on_c, 6, 57, 72
14, 55799, Note_on_c, 6, 57, 0
14, 55920, Note_on_c, 6, 58, 72
14, 56159, Note_on_c, 6, 58, 0
14, 56160, Note_on_c, 6, 60, 72
14, 56399, Note_on_c, 6, 60, 0
14, 56400, Note_on_c, 6, 62, 72
14, 56519, Note_on_c, 6, 62, 0
14, 56640, Note_on_c, 6, 58, 72
14, 57119, Note_on_c, 6, 58, 0
14, 57120, Note_on_c, 6, 60, 72
14, 57479, Note_on_c, 6, 60, 0
14, 57480, Note_on_c, 6, 58, 72
14, 57599, Note_on_c, 6, 58, 0
14, 57600, Note_on_c, 6, 57, 72
14, 57719, Note_on_c, 6, 57, 0
14, 57720, Note_on_c, 6, 58, 72
14, 57839, Note_on_c, 6, 58, 0
14, 57840, Note_on_c, 6, 55, 72
14, 57959, Note_on_c, 6, 55, 0
14, 57960, Note_on_c, 6, 57, 72
14, 58079, Note_on_c, 6, 57, 0
14, 58080, Note_on_c, 6, 58, 72
14, 58319, Note_on_c, 6, 58, 0
14, 58320, Note_on_c, 6, 60, 72
14, 58559, Note_on_c, 6, 60, 0
14, 58560, Note_on_c, 6, 62, 72
14, 58679, Note_on_c, 6, 62, 0
14, 58800, Note_on_c, 6, 63, 72
14, 59039, Note_on_c, 6, 63, 0
14, 59040, Note_on_c, 6, 65, 72
14, 59279, Note_on_c, 6, 65, 0
14, 59280, Note_on_c, 6, 67, 72
14, 59399, Note_on_c, 6, 67, 0
14, 59400, Note_on_c, 6, 65, 72
14, 59519, Note_on_c, 6, 65, 0
14, 59520, Note_on_c, 6, 63, 72
14, 59639, Note_on_c, 6, 63, 0
14, 59640, Note_on_c, 6, 62, 72
14, 59759, Note_on_c, 6, 62, 0
14, 59760, Note_on_c, 6, 60, 72
14, 59879, Note_on_c, 6, 60, 0
14, 59880, Note_on_c, 6, 62, 72
14, 59999, Note_on_c, 6, 62, 0
14, 60000, Note_on_c, 6, 58, 72
14, 60119, Note_on_c, 6, 58, 0
14, 60120, Note_on_c, 6, 60, 72
14, 60239, Note_on_c, 6, 60, 0
14, 60240, Note_on_c, 6, 62, 72
14, 60359, Note_on_c, 6, 62, 0
14, 60360, Note_on_c, 6, 63, 72
14, 60479, Note_on_c, 6, 63, 0
14, 60480, Note_on_c, 6, 65, 72
14, 60599, Note_on_c, 6, 65, 0
14, 60600, Note_on_c, 6, 67, 72
14, 60719, Note_on_c, 6, 67, 0
14, 60720, Note_on_c, 6, 62, 72
14, 60839, Note_on_c, 6, 62, 0
14, 60840, Note_on_c, 6, 64, 72
14, 60959, Note_on_c, 6, 64, 0
14, 60960, Note_on_c, 6, 65, 72
14, 61439, Note_on_c, 6, 65, 0
14, 61440, Note_on_c, 6, 63, 72
14, 61679, Note_on_c, 6, 63, 0
14, 61680, Note_on_c, 6, 62, 72
14, 61919, Note_on_c, 6, 62, 0
14, 62640, Note_on_c, 6, 58, 72
14, 63119, Note_on_c, 6, 58, 0
14, 63120, Note_on_c, 6, 57, 72
14, 63359, Note_on_c, 6, 57, 0
14, 63360, Note_on_c, 6, 63, 72
14, 63839, Note_on_c, 6, 63, 0
14, 63840, Note_on_c, 6, 62, 72
14, 64079, Note_on_c, 6, 62, 0
14, 64080, Note_on_c, 6, 58, 72
14, 64319, Note_on_c, 6, 58, 0
14, 64320, Note_on_c, 6, 65, 72
14, 64559, Note_on_c, 6, 65, 0
14, 64560, Note_on_c, 6, 67, 72
14, 65039, Note_on_c, 6, 67, 0
14, 65040, Note_on_c, 6, 63, 72
14, 65279, Note_on_c, 6, 63, 0
14, 65280, Note_on_c, 6, 63, 72
14, 65759, Note_on_c, 6, 63, 0
14, 65760, Note_on_c, 6, 60, 72
14, 65999, Note_on_c, 6, 60, 0
14, 66000, Note_on_c, 6, 58, 72
14, 66119, Note_on_c, 6, 58, 0
14, 66240, Note_on_c, 6, 63, 72
14, 66359, Note_on_c, 6, 63, 0
14, 66480, Note_on_c, 6, 65, 72
14, 66599, Note_on_c, 6, 65, 0
14, 66720, Note_on_c, 6, 58, 72
14, 66959, Note_on_c, 6, 58, 0
14, 66959, End_track
15, 0, Start_track
15, 0, Title_t, "Cello"
15, 0, MIDI_port, 0
15, 0, Program_c, 7, 48
15, 0, Control_c, 7, 7, 96
15, 0, Control_c, 7, 10, 96
15, 0, Control_c, 7, 11, 127
15, 3240, Note_on_c, 7, 58, 48
15, 3359, Note_on_c, 7, 58, 0
15, 3360, Note_on_c, 7, 63, 48
15, 3479, Note_on_c, 7, 63, 0
15, 3480, Note_on_c, 7, 62, 48
15, 3599, Note_on_c, 7, 62, 0
15, 3720, Note_on_c, 7, 58, 48
15, 3839, Note_on_c, 7, 58, 0
15, 3840, Note_on_c, 7, 63, 48
15, 3959, Note_on_c, 7, 63, 0
15, 3960, Note_on_c, 7, 62, 48
15, 4079, Note_on_c, 7, 62, 0
15, 19800, Note_on_c, 7, 60, 48
15, 19919, Note_on_c, 7, 60, 0
15, 19920, Note_on_c, 7, 61, 48
15, 20039, Note_on_c, 7, 61, 0
15, 20040, Note_on_c, 7, 62, 48
15, 20159, Note_on_c, 7, 62, 0
15, 20160, Note_on_c, 7, 58, 48
15, 20279, Note_on_c, 7, 58, 0
15, 20280, Note_on_c, 7, 59, 48
15, 20399, Note_on_c, 7, 59, 0
15, 20400, Note_on_c, 7, 60, 48
15, 20519, Note_on_c, 7, 60, 0
15, 20520, Note_on_c, 7, 59, 48
15, 20639, Note_on_c, 7, 59, 0
15, 20640, Note_on_c, 7, 60, 48
15, 20699, Note_on_c, 7, 60, 0
15, 20760, Note_on_c, 7, 53, 48
15, 20819, Note_on_c, 7, 53, 0
15, 20880, Note_on_c, 7, 60, 48
15, 21119, Note_on_c, 7, 60, 0
15, 41160, Note_on_c, 7, 55, 48
15, 41279, Note_on_c, 7, 55, 0
15, 41280, Note_on_c, 7, 67, 48
15, 41399, Note_on_c, 7, 67, 0
15, 41400, Note_on_c, 7, 65, 48
15, 41519, Note_on_c, 7, 65, 0
15, 41520, Note_on_c, 7, 64, 48
15, 41639, Note_on_c, 7, 64, 0
15, 41640, Note_on_c, 7, 62, 48
15, 41759, Note_on_c, 7, 62, 0
15, 41760, Note_on_c, 7, 60, 48
15, 41879, Note_on_c, 7, 60, 0
15, 41880, Note_on_c, 7, 48, 48
15, 41999, Note_on_c, 7, 48, 0
15, 51120, Note_on_c, 7, 58, 72
15, 51599, Note_on_c, 7, 58, 0
15, 51600, Note_on_c, 7, 57, 72
15, 51839, Note_on_c, 7, 57, 0
15, 51840, Note_on_c, 7, 63, 72
15, 52319, Note_on_c, 7, 63, 0
15, 52320, Note_on_c, 7, 62, 72
15, 52559, Note_on_c, 7, 62, 0
15, 52560, Note_on_c, 7, 58, 72
15, 52799, Note_on_c, 7, 58, 0
15, 52800, Note_on_c, 7, 65, 72
15, 53039, Note_on_c, 7, 65, 0
15, 53040, Note_on_c, 7, 67, 72
15, 53399, Note_on_c, 7, 67, 0
15, 53400, Note_on_c, 7, 65, 72
15, 53519, Note_on_c, 7, 65, 0
15, 53520, Note_on_c, 7, 63, 72
15, 53639, Note_on_c, 7, 63, 0
15, 53640, Note_on_c, 7, 62, 72
15, 53759, Note_on_c, 7, 62, 0
15, 54000, Note_on_c, 7, 65, 72
15, 54479, Note_on_c, 7, 65, 0
15, 54480, Note_on_c, 7, 62, 72
15, 54719, Note_on_c, 7, 62, 0
15, 54720, Note_on_c, 7, 70, 72
15, 55199, Note_on_c, 7, 70, 0
15, 55200, Note_on_c, 7, 69, 72
15, 55439, Note_on_c, 7, 69, 0
15, 55440, Note_on_c, 7, 65, 72
15, 55679, Note_on_c, 7, 65, 0
15, 55680, Note_on_c, 7, 72, 72
15, 55919, Note_on_c, 7, 72, 0
15, 55920, Note_on_c, 7, 74, 72
15, 56279, Note_on_c, 7, 74, 0
15, 56280, Note_on_c, 7, 72, 72
15, 56399, Note_on_c, 7, 72, 0
15, 56400, Note_on_c, 7, 70, 72
15, 56519, Note_on_c, 7, 70, 0
15, 56520, Note_on_c, 7, 69, 72
15, 56639, Note_on_c, 7, 69, 0
15, 56640, Note_on_c, 7, 67, 72
15, 56759, Note_on_c, 7, 67, 0
15, 56760, Note_on_c, 7, 65, 72
15, 56879, Note_on_c, 7, 65, 0
15, 56880, Note_on_c, 7, 64, 72
15, 56999, Note_on_c, 7, 64, 0
15, 57000, Note_on_c, 7, 65, 72
15, 57119, Note_on_c, 7, 65, 0
15, 57120, Note_on_c, 7, 62, 72
15, 57239, Note_on_c, 7, 62, 0
15, 57240, Note_on_c, 7, 64, 72
15, 57359, Note_on_c, 7, 64, 0
15, 57360, Note_on_c, 7, 65, 72
15, 57360, Note_on_c, 7, 69, 72
15, 57599, Note_on_c, 7, 65, 0
15, 57599, Note_on_c, 7, 69, 0
15, 57600, Note_on_c, 7, 75, 72
15, 57840, Note_on_c, 7, 65, 72
15, 58079, Note_on_c, 7, 75, 0
15, 58079, Note_on_c, 7, 65, 0
15, 58080, Note_on_c, 7, 58, 72
15, 58319, Note_on_c, 7, 58, 0
15, 58320, Note_on_c, 7, 60, 72
15, 58559, Note_on_c, 7, 60, 0
15, 58560, Note_on_c, 7, 62, 72
15, 58679, Note_on_c, 7, 62, 0
15, 58800, Note_on_c, 7, 63, 72
15, 59039, Note_on_c, 7, 63, 0
15, 59040, Note_on_c, 7, 65, 72
15, 59279, Note_on_c, 7, 65, 0
15, 59280, Note_on_c, 7, 67, 72
15, 59399, Note_on_c, 7, 67, 0
15, 59400, Note_on_c, 7, 65, 72
15, 59519, Note_on_c, 7, 65, 0
15, 59520, Note_on_c, 7, 63, 72
15, 59639, Note_on_c, 7, 63, 0
15, 59640, Note_on_c, 7, 62, 72
15, 59759, Note_on_c, 7, 62, 0
15, 59759, End_track
16, 0, Start_track
16, 0, Title_t, "Contrabass"
16, 0, MIDI_port, 0
16, 0, Program_c, 8, 48
16, 0, Control_c, 8, 7, 104
16, 0, Control_c, 8, 10, 112
16, 0, Control_c, 8, 11, 127
16, 360, Note_on_c, 8, 46, 66
16, 479, Note_on_c, 8, 46, 0
16, 480, Note_on_c, 8, 41, 66
16, 599, Note_on_c, 8, 41, 0
16, 600, Note_on_c, 8, 34, 66
16, 719, Note_on_c, 8, 34, 0
16, 840, Note_on_c, 8, 46, 66
16, 959, Note_on_c, 8, 46, 0
16, 960, Note_on_c, 8, 41, 66
16, 1079, Note_on_c, 8, 41, 0
16, 1080, Note_on_c, 8, 34, 66
16, 1199, Note_on_c, 8, 34, 0
16, 1320, Note_on_c, 8, 34, 66
16, 1439, Note_on_c, 8, 34, 0
16, 1440, Note_on_c, 8, 39, 66
16, 1559, Note_on_c, 8, 39, 0
16, 1680, Note_on_c, 8, 38, 66
16, 1799, Note_on_c, 8, 38, 0
16, 1920, Note_on_c, 8, 36, 66
16, 2039, Note_on_c, 8, 36, 0
16, 2160, Note_on_c, 8, 29, 66
16, 2279, Note_on_c, 8, 29, 0
16, 2400, Note_on_c, 8, 34, 66
16, 2519, Note_on_c, 8, 34, 0
16, 2520, Note_on_c, 8, 46, 66
16, 2639, Note_on_c, 8, 46, 0
16, 2640, Note_on_c, 8, 41, 66
16, 2759, Note_on_c, 8, 41, 0
16, 2760, Note_on_c, 8, 38, 66
16, 2879, Note_on_c, 8, 38, 0
16, 2880, Note_on_c, 8, 34, 66
16, 3119, Note_on_c, 8, 34, 0
16, 4200, Note_on_c, 8, 34, 48
16, 4319, Note_on_c, 8, 34, 0
16, 4320, Note_on_c, 8, 39, 48
16, 4439, Note_on_c, 8, 39, 0
16, 4560, Note_on_c, 8, 38, 48
16, 4679, Note_on_c, 8, 38, 0
16, 4800, Note_on_c, 8, 36, 48
16, 4919, Note_on_c, 8, 36, 0
16, 5040, Note_on_c, 8, 29, 48
16, 5159, Note_on_c, 8, 29, 0
16, 5280, Note_on_c, 8, 34, 48
16, 5399, Note_on_c, 8, 34, 0
16, 5400, Note_on_c, 8, 46, 48
16, 5519, Note_on_c, 8, 46, 0
16, 5520, Note_on_c, 8, 50, 48
16, 5639, Note_on_c, 8, 50, 0
16, 5640, Note_on_c, 8, 46, 48
16, 5759, Note_on_c, 8, 46, 0
16, 5880, Note_on_c, 8, 46, 48
16, 5999, Note_on_c, 8, 46, 0
16, 6000, Note_on_c, 8, 50, 48
16, 6119, Note_on_c, 8, 50, 0
16, 6120, Note_on_c, 8, 46, 48
16, 6239, Note_on_c, 8, 46, 0
16, 6360, Note_on_c, 8, 45, 48
16, 6479, Note_on_c, 8, 45, 0
16, 6480, Note_on_c, 8, 50, 48
16, 6599, Note_on_c, 8, 50, 0
16, 6600, Note_on_c, 8, 45, 48
16, 6719, Note_on_c, 8, 45, 0
16, 6840, Note_on_c, 8, 41, 48
16, 6959, Note_on_c, 8, 41, 0
16, 6960, Note_on_c, 8, 41, 48
16, 7079, Note_on_c, 8, 41, 0
16, 7080, Note_on_c, 8, 42, 48
16, 7199, Note_on_c, 8, 42, 0
16, 7200, Note_on_c, 8, 43, 48
16, 7319, Note_on_c, 8, 43, 0
16, 7320, Note_on_c, 8, 41, 48
16, 7439, Note_on_c, 8, 41, 0
16, 7440, Note_on_c, 8, 40, 48
16, 7559, Note_on_c, 8, 40, 0
16, 7560, Note_on_c, 8, 38, 48
16, 7679, Note_on_c, 8, 38, 0
16, 7680, Note_on_c, 8, 36, 48
16, 7919, Note_on_c, 8, 36, 0
16, 8280, Note_on_c, 8, 36, 48
16, 8399, Note_on_c, 8, 36, 0
16, 8400, Note_on_c, 8, 38, 48
16, 8519, Note_on_c, 8, 38, 0
16, 8520, Note_on_c, 8, 40, 48
16, 8639, Note_on_c, 8, 40, 0
16, 8640, Note_on_c, 8, 41, 48
16, 8879, Note_on_c, 8, 41, 0
16, 9000, Note_on_c, 8, 41, 48
16, 9119, Note_on_c, 8, 41, 0
16, 9120, Note_on_c, 8, 40, 48
16, 9239, Note_on_c, 8, 40, 0
16, 9240, Note_on_c, 8, 43, 48
16, 9359, Note_on_c, 8, 43, 0
16, 9360, Note_on_c, 8, 36, 48
16, 9419, Note_on_c, 8, 36, 0
16, 9480, Note_on_c, 8, 46, 48
16, 9539, Note_on_c, 8, 46, 0
16, 9600, Note_on_c, 8, 45, 48
16, 9839, Note_on_c, 8, 45, 0
16, 9960, Note_on_c, 8, 41, 48
16, 10079, Note_on_c, 8, 41, 0
16, 10080, Note_on_c, 8, 40, 48
16, 10199, Note_on_c, 8, 40, 0
16, 10200, Note_on_c, 8, 43, 48
16, 10319, Note_on_c, 8, 43, 0
16, 10320, Note_on_c, 8, 36, 48
16, 10379, Note_on_c, 8, 36, 0
16, 10440, Note_on_c, 8, 46, 48
16, 10499, Note_on_c, 8, 46, 0
16, 10560, Note_on_c, 8, 45, 48
16, 10799, Note_on_c, 8, 45, 0
16, 10800, Note_on_c, 8, 41, 48
16, 10919, Note_on_c, 8, 41, 0
16, 10920, Note_on_c, 8, 39, 48
16, 11039, Note_on_c, 8, 39, 0
16, 11040, Note_on_c, 8, 38, 48
16, 11159, Note_on_c, 8, 38, 0
16, 11160, Note_on_c, 8, 42, 48
16, 11279, Note_on_c, 8, 42, 0
16, 11400, Note_on_c, 8, 38, 48
16, 11519, Note_on_c, 8, 38, 0
16, 11520, Note_on_c, 8, 43, 48
16, 11639, Note_on_c, 8, 43, 0
16, 11640, Note_on_c, 8, 47, 48
16, 11759, Note_on_c, 8, 47, 0
16, 11880, Note_on_c, 8, 43, 48
16, 11999, Note_on_c, 8, 43, 0
16, 12000, Note_on_c, 8, 36, 48
16, 12119, Note_on_c, 8, 36, 0
16, 12120, Note_on_c, 8, 40, 48
16, 12239, Note_on_c, 8, 40, 0
16, 12360, Note_on_c, 8, 36, 48
16, 12479, Note_on_c, 8, 36, 0
16, 12480, Note_on_c, 8, 41, 48
16, 12599, Note_on_c, 8, 41, 0
16, 12600, Note_on_c, 8, 29, 48
16, 12719, Note_on_c, 8, 29, 0
16, 12840, Note_on_c, 8, 41, 48
16, 12959, Note_on_c, 8, 41, 0
16, 12960, Note_on_c, 8, 34, 48
16, 13079, Note_on_c, 8, 34, 0
16, 13080, Note_on_c, 8, 46, 48
16, 13199, Note_on_c, 8, 46, 0
16, 13320, Note_on_c, 8, 34, 48
16, 13439, Note_on_c, 8, 34, 0
16, 13440, Note_on_c, 8, 36, 48
16, 13559, Note_on_c, 8, 36, 0
16, 13560, Note_on_c, 8, 48, 48
16, 13679, Note_on_c, 8, 48, 0
16, 13800, Note_on_c, 8, 37, 48
16, 13919, Note_on_c, 8, 37, 0
16, 13920, Note_on_c, 8, 38, 48
16, 14039, Note_on_c, 8, 38, 0
16, 14040, Note_on_c, 8, 50, 48
16, 14159, Note_on_c, 8, 50, 0
16, 14280, Note_on_c, 8, 38, 48
16, 14399, Note_on_c, 8, 38, 0
16, 14400, Note_on_c, 8, 50, 48
16, 14519, Note_on_c, 8, 50, 0
16, 14520, Note_on_c, 8, 48, 48
16, 14639, Note_on_c, 8, 48, 0
16, 14640, Note_on_c, 8, 47, 48
16, 14759, Note_on_c, 8, 47, 0
16, 14760, Note_on_c, 8, 45, 48
16, 14879, Note_on_c, 8, 45, 0
16, 14880, Note_on_c, 8, 43, 48
16, 14999, Note_on_c, 8, 43, 0
16, 15000, Note_on_c, 8, 31, 48
16, 15119, Note_on_c, 8, 31, 0
16, 15240, Note_on_c, 8, 43, 48
16, 15359, Note_on_c, 8, 43, 0
16, 15360, Note_on_c, 8, 36, 48
16, 15479, Note_on_c, 8, 36, 0
16, 15480, Note_on_c, 8, 48, 48
16, 15599, Note_on_c, 8, 48, 0
16, 15720, Note_on_c, 8, 40, 48
16, 15839, Note_on_c, 8, 40, 0
16, 15840, Note_on_c, 8, 41, 48
16, 15959, Note_on_c, 8, 41, 0
16, 15960, Note_on_c, 8, 39, 48
16, 16079, Note_on_c, 8, 39, 0
16, 16080, Note_on_c, 8, 38, 48
16, 16199, Note_on_c, 8, 38, 0
16, 16200, Note_on_c, 8, 34, 48
16, 16319, Note_on_c, 8, 34, 0
16, 16320, Note_on_c, 8, 36, 48
16, 16439, Note_on_c, 8, 36, 0
16, 16440, Note_on_c, 8, 36, 48
16, 16559, Note_on_c, 8, 36, 0
16, 16560, Note_on_c, 8, 36, 48
16, 16679, Note_on_c, 8, 36, 0
16, 16680, Note_on_c, 8, 36, 48
16, 16799, Note_on_c, 8, 36, 0
16, 16800, Note_on_c, 8, 41, 48
16, 17039, Note_on_c, 8, 41, 0
16, 17400, Note_on_c, 8, 41, 84
16, 17519, Note_on_c, 8, 41, 0
16, 17520, Note_on_c, 8, 45, 84
16, 17639, Note_on_c, 8, 45, 0
16, 17640, Note_on_c, 8, 41, 84
16, 17759, Note_on_c, 8, 41, 0
16, 17760, Note_on_c, 8, 38, 84
16, 17999, Note_on_c, 8, 38, 0
16, 18360, Note_on_c, 8, 38, 84
16, 18479, Note_on_c, 8, 38, 0
16, 18480, Note_on_c, 8, 41, 84
16, 18599, Note_on_c, 8, 41, 0
16, 18600, Note_on_c, 8, 38, 84
16, 18719, Note_on_c, 8, 38, 0
16, 18720, Note_on_c, 8, 34, 84
16, 18959, Note_on_c, 8, 34, 0
16, 19200, Note_on_c, 8, 46, 84
16, 19439, Note_on_c, 8, 46, 0
16, 21240, Note_on_c, 8, 41, 66
16, 21359, Note_on_c, 8, 41, 0
16, 21360, Note_on_c, 8, 45, 66
16, 21479, Note_on_c, 8, 45, 0
16, 21480, Note_on_c, 8, 41, 66
16, 21599, Note_on_c, 8, 41, 0
16, 21720, Note_on_c, 8, 41, 66
16, 21839, Note_on_c, 8, 41, 0
16, 21840, Note_on_c, 8, 45, 66
16, 21959, Note_on_c, 8, 45, 0
16, 21960, Note_on_c, 8, 41, 66
16, 22079, Note_on_c, 8, 41, 0
16, 22200, Note_on_c, 8, 41, 66
16, 22319, Note_on_c, 8, 41, 0
16, 22320, Note_on_c, 8, 45, 66
16, 22439, Note_on_c, 8, 45, 0
16, 22440, Note_on_c, 8, 41, 66
16, 22559, Note_on_c, 8, 41, 0
16, 22680, Note_on_c, 8, 41, 66
16, 22799, Note_on_c, 8, 41, 0
16, 22800, Note_on_c, 8, 45, 66
16, 22919, Note_on_c, 8, 45, 0
16, 22920, Note_on_c, 8, 41, 66
16, 23039, Note_on_c, 8, 41, 0
16, 23160, Note_on_c, 8, 41, 66
16, 23279, Note_on_c, 8, 41, 0
16, 23280, Note_on_c, 8, 45, 66
16, 23399, Note_on_c, 8, 45, 0
16, 23400, Note_on_c, 8, 41, 66
16, 23519, Note_on_c, 8, 41, 0
16, 23640, Note_on_c, 8, 51, 66
16, 23759, Note_on_c, 8, 51, 0
16, 23760, Note_on_c, 8, 48, 66
16, 23879, Note_on_c, 8, 48, 0
16, 23880, Note_on_c, 8, 46, 66
16, 23999, Note_on_c, 8, 46, 0
16, 24120, Note_on_c, 8, 45, 66
16, 24239, Note_on_c, 8, 45, 0
16, 24240, Note_on_c, 8, 33, 66
16, 24359, Note_on_c, 8, 33, 0
16, 24360, Note_on_c, 8, 45, 66
16, 24479, Note_on_c, 8, 45, 0
16, 24600, Note_on_c, 8, 34, 66
16, 24719, Note_on_c, 8, 34, 0
16, 24720, Note_on_c, 8, 43, 66
16, 24839, Note_on_c, 8, 43, 0
16, 24840, Note_on_c, 8, 39, 66
16, 24959, Note_on_c, 8, 39, 0
16, 24960, Note_on_c, 8, 41, 66
16, 25199, Note_on_c, 8, 41, 0
16, 25440, Note_on_c, 8, 29, 66
16, 25679, Note_on_c, 8, 29, 0
16, 25920, Note_on_c, 8, 34, 48
16, 26159, Note_on_c, 8, 34, 0
16, 26280, Note_on_c, 8, 34, 48
16, 26399, Note_on_c, 8, 34, 0
16, 26400, Note_on_c, 8, 39, 48
16, 26519, Note_on_c, 8, 39, 0
16, 26520, Note_on_c, 8, 38, 48
16, 26639, Note_on_c, 8, 38, 0
16, 26760, Note_on_c, 8, 34, 48
16, 26879, Note_on_c, 8, 34, 0
16, 26880, Note_on_c, 8, 39, 48
16, 26999, Note_on_c, 8, 39, 0
16, 27000, Note_on_c, 8, 38, 48
16, 27119, Note_on_c, 8, 38, 0
16, 27240, Note_on_c, 8, 38, 48
16, 27359, Note_on_c, 8, 38, 0
16, 27360, Note_on_c, 8, 39, 48
16, 27479, Note_on_c, 8, 39, 0
16, 27600, Note_on_c, 8, 38, 48
16, 27719, Note_on_c, 8, 38, 0
16, 27840, Note_on_c, 8, 36, 48
16, 27959, Note_on_c, 8, 36, 0
16, 28080, Note_on_c, 8, 29, 48
16, 28199, Note_on_c, 8, 29, 0
16, 28320, Note_on_c, 8, 34, 48
16, 28559, Note_on_c, 8, 34, 0
16, 28680, Note_on_c, 8, 46, 48
16, 28799, Note_on_c, 8, 46, 0
16, 28800, Note_on_c, 8, 34, 48
16, 28919, Note_on_c, 8, 34, 0
16, 28920, Note_on_c, 8, 46, 48
16, 29039, Note_on_c, 8, 46, 0
16, 29160, Note_on_c, 8, 46, 48
16, 29279, Note_on_c, 8, 46, 0
16, 29280, Note_on_c, 8, 43, 48
16, 29399, Note_on_c, 8, 43, 0
16, 29400, Note_on_c, 8, 31, 48
16, 29519, Note_on_c, 8, 31, 0
16, 29640, Note_on_c, 8, 43, 48
16, 29759, Note_on_c, 8, 43, 0
16, 29760, Note_on_c, 8, 39, 48
16, 29879, Note_on_c, 8, 39, 0
16, 29880, Note_on_c, 8, 51, 48
16, 29999, Note_on_c, 8, 51, 0
16, 30120, Note_on_c, 8, 39, 48
16, 30239, Note_on_c, 8, 39, 0
16, 30240, Note_on_c, 8, 41, 48
16, 30359, Note_on_c, 8, 41, 0
16, 30360, Note_on_c, 8, 29, 48
16, 30479, Note_on_c, 8, 29, 0
16, 30600, Note_on_c, 8, 34, 48
16, 30719, Note_on_c, 8, 34, 0
16, 30720, Note_on_c, 8, 39, 48
16, 30959, Note_on_c, 8, 39, 0
16, 31080, Note_on_c, 8, 39, 48
16, 31199, Note_on_c, 8, 39, 0
16, 31200, Note_on_c, 8, 38, 48
16, 31319, Note_on_c, 8, 38, 0
16, 31320, Note_on_c, 8, 41, 48
16, 31439, Note_on_c, 8, 41, 0
16, 31440, Note_on_c, 8, 34, 48
16, 31559, Note_on_c, 8, 34, 0
16, 31560, Note_on_c, 8, 44, 48
16, 31679, Note_on_c, 8, 44, 0
16, 31680, Note_on_c, 8, 43, 48
16, 31919, Note_on_c, 8, 43, 0
16, 32040, Note_on_c, 8, 39, 48
16, 32159, Note_on_c, 8, 39, 0
16, 32160, Note_on_c, 8, 38, 48
16, 32279, Note_on_c, 8, 38, 0
16, 32280, Note_on_c, 8, 41, 48
16, 32399, Note_on_c, 8, 41, 0
16, 32400, Note_on_c, 8, 34, 48
16, 32519, Note_on_c, 8, 34, 0
16, 32520, Note_on_c, 8, 44, 48
16, 32639, Note_on_c, 8, 44, 0
16, 32640, Note_on_c, 8, 43, 48
16, 32759, Note_on_c, 8, 43, 0
16, 32760, Note_on_c, 8, 39, 48
16, 32879, Note_on_c, 8, 39, 0
16, 32880, Note_on_c, 8, 38, 48
16, 32999, Note_on_c, 8, 38, 0
16, 33000, Note_on_c, 8, 36, 48
16, 33119, Note_on_c, 8, 36, 0
16, 33120, Note_on_c, 8, 35, 48
16, 33239, Note_on_c, 8, 35, 0
16, 33240, Note_on_c, 8, 38, 48
16, 33359, Note_on_c, 8, 38, 0
16, 33360, Note_on_c, 8, 31, 48
16, 33479, Note_on_c, 8, 31, 0
16, 33480, Note_on_c, 8, 41, 48
16, 33599, Note_on_c, 8, 41, 0
16, 33600, Note_on_c, 8, 39, 48
16, 33719, Note_on_c, 8, 39, 0
16, 33720, Note_on_c, 8, 43, 48
16, 33839, Note_on_c, 8, 43, 0
16, 33840, Note_on_c, 8, 36, 48
16, 33959, Note_on_c, 8, 36, 0
16, 33960, Note_on_c, 8, 46, 48
16, 34079, Note_on_c, 8, 46, 0
16, 34080, Note_on_c, 8, 45, 48
16, 34199, Note_on_c, 8, 45, 0
16, 34200, Note_on_c, 8, 48, 48
16, 34319, Note_on_c, 8, 48, 0
16, 34320, Note_on_c, 8, 41, 48
16, 34439, Note_on_c, 8, 41, 0
16, 34440, Note_on_c, 8, 45, 48
16, 34559, Note_on_c, 8, 45, 0
16, 34560, Note_on_c, 8, 46, 48
16, 34679, Note_on_c, 8, 46, 0
16, 34680, Note_on_c, 8, 50, 48
16, 34799, Note_on_c, 8, 50, 0
16, 34800, Note_on_c, 8, 46, 54
16, 34919, Note_on_c, 8, 46, 0
16, 34920, Note_on_c, 8, 45, 60
16, 35039, Note_on_c, 8, 45, 0
16, 35040, Note_on_c, 8, 43, 63
16, 35159, Note_on_c, 8, 43, 0
16, 35160, Note_on_c, 8, 46, 66
16, 35279, Note_on_c, 8, 46, 0
16, 35280, Note_on_c, 8, 43, 69
16, 35399, Note_on_c, 8, 43, 0
16, 35400, Note_on_c, 8, 43, 72
16, 35519, Note_on_c, 8, 43, 0
16, 35520, Note_on_c, 8, 41, 72
16, 35640, Control_c, 8, 11, 80
16, 35759, Note_on_c, 8, 41, 0
16, 36000, Control_c, 8, 11, 127
16, 36000, Note_on_c, 8, 29, 48
16, 36239, Note_on_c, 8, 29, 0
16, 36480, Note_on_c, 8, 34, 48
16, 36719, Note_on_c, 8, 34, 0
16, 36960, Note_on_c, 8, 41, 48
16, 37199, Note_on_c, 8, 41, 0
16, 37440, Note_on_c, 8, 34, 48
16, 37679, Note_on_c, 8, 34, 0
16, 37680, Note_on_c, 8, 46, 48
16, 37799, Note_on_c, 8, 46, 0
16, 37800, Note_on_c, 8, 44, 48
16, 37919, Note_on_c, 8, 44, 0
16, 37920, Note_on_c, 8, 43, 48
16, 38039, Note_on_c, 8, 43, 0
16, 38040, Note_on_c, 8, 31, 48
16, 38159, Note_on_c, 8, 31, 0
16, 38280, Note_on_c, 8, 43, 48
16, 38399, Note_on_c, 8, 43, 0
16, 38400, Note_on_c, 8, 48, 48
16, 38519, Note_on_c, 8, 48, 0
16, 38520, Note_on_c, 8, 36, 48
16, 38639, Note_on_c, 8, 36, 0
16, 38760, Note_on_c, 8, 36, 48
16, 38879, Note_on_c, 8, 36, 0
16, 38880, Note_on_c, 8, 41, 48
16, 38999, Note_on_c, 8, 41, 0
16, 39000, Note_on_c, 8, 29, 48
16, 39119, Note_on_c, 8, 29, 0
16, 39240, Note_on_c, 8, 41, 48
16, 39359, Note_on_c, 8, 41, 0
16, 39360, Note_on_c, 8, 46, 48
16, 39479, Note_on_c, 8, 46, 0
16, 39480, Note_on_c, 8, 34, 48
16, 39599, Note_on_c, 8, 34, 0
16, 39720, Note_on_c, 8, 34, 48
16, 39839, Note_on_c, 8, 34, 0
16, 39840, Note_on_c, 8, 39, 48
16, 39959, Note_on_c, 8, 39, 0
16, 39960, Note_on_c, 8, 51, 48
16, 40079, Note_on_c, 8, 51, 0
16, 40200, Note_on_c, 8, 39, 48
16, 40319, Note_on_c, 8, 39, 0
16, 40320, Note_on_c, 8, 41, 48
16, 40439, Note_on_c, 8, 41, 0
16, 40440, Note_on_c, 8, 29, 48
16, 40559, Note_on_c, 8, 29, 0
16, 40680, Note_on_c, 8, 42, 48
16, 40799, Note_on_c, 8, 42, 0
16, 40800, Note_on_c, 8, 43, 48
16, 40919, Note_on_c, 8, 43, 0
16, 40920, Note_on_c, 8, 31, 48
16, 41039, Note_on_c, 8, 31, 0
16, 42120, Note_on_c, 8, 36, 48
16, 42239, Note_on_c, 8, 36, 0
16, 42240, Note_on_c, 8, 41, 48
16, 42359, Note_on_c, 8, 41, 0
16, 42360, Note_on_c, 8, 29, 48
16, 42479, Note_on_c, 8, 29, 0
16, 42600, Note_on_c, 8, 41, 48
16, 42719, Note_on_c, 8, 41, 0
16, 42720, Note_on_c, 8, 46, 48
16, 42839, Note_on_c, 8, 46, 0
16, 42840, Note_on_c, 8, 44, 48
16, 42959, Note_on_c, 8, 44, 0
16, 42960, Note_on_c, 8, 43, 48
16, 43079, Note_on_c, 8, 43, 0
16, 43080, Note_on_c, 8, 39, 48
16, 43199, Note_on_c, 8, 39, 0
16, 43200, Note_on_c, 8, 41, 48
16, 43319, Note_on_c, 8, 41, 0
16, 43320, Note_on_c, 8, 41, 48
16, 43439, Note_on_c, 8, 41, 0
16, 43440, Note_on_c, 8, 41, 48
16, 43559, Note_on_c, 8, 41, 0
16, 43560, Note_on_c, 8, 41, 48
16, 43679, Note_on_c, 8, 41, 0
16, 43680, Note_on_c, 8, 34, 48
16, 43919, Note_on_c, 8, 34, 0
16, 44040, Note_on_c, 8, 46, 72
16, 44159, Note_on_c, 8, 46, 0
16, 44160, Note_on_c, 8, 34, 72
16, 44399, Note_on_c, 8, 34, 0
16, 44520, Note_on_c, 8, 46, 72
16, 44639, Note_on_c, 8, 46, 0
16, 44640, Note_on_c, 8, 43, 72
16, 44879, Note_on_c, 8, 43, 0
16, 45000, Note_on_c, 8, 43, 72
16, 45119, Note_on_c, 8, 43, 0
16, 45120, Note_on_c, 8, 40, 72
16, 45359, Note_on_c, 8, 40, 0
16, 45480, Note_on_c, 8, 40, 72
16, 45599, Note_on_c, 8, 40, 0
16, 45600, Note_on_c, 8, 39, 72
16, 45839, Note_on_c, 8, 39, 0
16, 45960, Note_on_c, 8, 39, 72
16, 46079, Note_on_c, 8, 39, 0
16, 46080, Note_on_c, 8, 38, 48
16, 46199, Note_on_c, 8, 38, 0
16, 46200, Note_on_c, 8, 38, 48
16, 46319, Note_on_c, 8, 38, 0
16, 46320, Note_on_c, 8, 39, 48
16, 46439, Note_on_c, 8, 39, 0
16, 46440, Note_on_c, 8, 39, 48
16, 46559, Note_on_c, 8, 39, 0
16, 46560, Note_on_c, 8, 41, 48
16, 46679, Note_on_c, 8, 41, 0
16, 46680, Note_on_c, 8, 41, 48
16, 46799, Note_on_c, 8, 41, 0
16, 46800, Note_on_c, 8, 29, 48
16, 46919, Note_on_c, 8, 29, 0
16, 46920, Note_on_c, 8, 29, 48
16, 47039, Note_on_c, 8, 29, 0
16, 47040, Note_on_c, 8, 34, 48
16, 47279, Note_on_c, 8, 34, 0
16, 47640, Note_on_c, 8, 46, 84
16, 47759, Note_on_c, 8, 46, 0
16, 47760, Note_on_c, 8, 50, 84
16, 47879, Note_on_c, 8, 50, 0
16, 47880, Note_on_c, 8, 46, 84
16, 47999, Note_on_c, 8, 46, 0
16, 48000, Note_on_c, 8, 43, 84
16, 48239, Note_on_c, 8, 43, 0
16, 48600, Note_on_c, 8, 43, 84
16, 48719, Note_on_c, 8, 43, 0
16, 48720, Note_on_c, 8, 46, 84
16, 48839, Note_on_c, 8, 46, 0
16, 48840, Note_on_c, 8, 43, 84
16, 48959, Note_on_c, 8, 43, 0
16, 48960, Note_on_c, 8, 39, 84
16, 49199, Note_on_c, 8, 39, 0
16, 49440, Note_on_c, 8, 33, 75
16, 49919, Note_on_c, 8, 33, 0
16, 49920, Note_on_c, 8, 34, 72
16, 50039, Note_on_c, 8, 34, 0
16, 50160, Note_on_c, 8, 39, 72
16, 50279, Note_on_c, 8, 39, 0
16, 50400, Note_on_c, 8, 41, 72
16, 50519, Note_on_c, 8, 41, 0
16, 50640, Note_on_c, 8, 29, 72
16, 50759, Note_on_c, 8, 29, 0
16, 50880, Note_on_c, 8, 34, 72
16, 51119, Note_on_c, 8, 34, 0
16, 53760, Note_on_c, 8, 48, 72
16, 53879, Note_on_c, 8, 48, 0
16, 53880, Note_on_c, 8, 46, 72
16, 53999, Note_on_c, 8, 46, 0
16, 54000, Note_on_c, 8, 45, 72
16, 54119, Note_on_c, 8, 45, 0
16, 54120, Note_on_c, 8, 46, 72
16, 54239, Note_on_c, 8, 46, 0
16, 54240, Note_on_c, 8, 43, 72
16, 54359, Note_on_c, 8, 43, 0
16, 54360, Note_on_c, 8, 45, 72
16, 54479, Note_on_c, 8, 45, 0
16, 54480, Note_on_c, 8, 46, 72
16, 54719, Note_on_c, 8, 46, 0
16, 54720, Note_on_c, 8, 43, 72
16, 54959, Note_on_c, 8, 43, 0
16, 54960, Note_on_c, 8, 48, 72
16, 55199, Note_on_c, 8, 48, 0
16, 55200, Note_on_c, 8, 41, 72
16, 55439, Note_on_c, 8, 41, 0
16, 55440, Note_on_c, 8, 43, 72
16, 55679, Note_on_c, 8, 43, 0
16, 55680, Note_on_c, 8, 45, 72
16, 55919, Note_on_c, 8, 45, 0
16, 55920, Note_on_c, 8, 46, 72
16, 56159, Note_on_c, 8, 46, 0
16, 56160, Note_on_c, 8, 48, 72
16, 56399, Note_on_c, 8, 48, 0
16, 56400, Note_on_c, 8, 50, 72
16, 56639, Note_on_c, 8, 50, 0
16, 56640, Note_on_c, 8, 46, 72
16, 57119, Note_on_c, 8, 46, 0
16, 57120, Note_on_c, 8, 48, 72
16, 57479, Note_on_c, 8, 48, 0
16, 57480, Note_on_c, 8, 46, 72
16, 57599, Note_on_c, 8, 46, 0
16, 57600, Note_on_c, 8, 45, 72
16, 57719, Note_on_c, 8, 45, 0
16, 57720, Note_on_c, 8, 46, 72
16, 57839, Note_on_c, 8, 46, 0
16, 57840, Note_on_c, 8, 43, 72
16, 57959, Note_on_c, 8, 43, 0
16, 57960, Note_on_c, 8, 45, 72
16, 58079, Note_on_c, 8, 45, 0
16, 59760, Note_on_c, 8, 41, 72
16, 60239, Note_on_c, 8, 41, 0
16, 60240, Note_on_c, 8, 38, 72
16, 60479, Note_on_c, 8, 38, 0
16, 60480, Note_on_c, 8, 46, 72
16, 60959, Note_on_c, 8, 46, 0
16, 60960, Note_on_c, 8, 45, 72
16, 61199, Note_on_c, 8, 45, 0
16, 61200, Note_on_c, 8, 41, 72
16, 61439, Note_on_c, 8, 41, 0
16, 61440, Note_on_c, 8, 48, 72
16, 61679, Note_on_c, 8, 48, 0
16, 61680, Note_on_c, 8, 50, 72
16, 62039, Note_on_c, 8, 50, 0
16, 62040, Note_on_c, 8, 48, 72
16, 62159, Note_on_c, 8, 48, 0
16, 62160, Note_on_c, 8, 46, 72
16, 62279, Note_on_c, 8, 46, 0
16, 62280, Note_on_c, 8, 45, 72
16, 62399, Note_on_c, 8, 45, 0
16, 62400, Note_on_c, 8, 43, 72
16, 62519, Note_on_c, 8, 43, 0
16, 62520, Note_on_c, 8, 41, 72
16, 62639, Note_on_c, 8, 41, 0
16, 62640, Note_on_c, 8, 40, 72
16, 62759, Note_on_c, 8, 40, 0
16, 62760, Note_on_c, 8, 41, 72
16, 62879, Note_on_c, 8, 41, 0
16, 62880, Note_on_c, 8, 38, 72
16, 62999, Note_on_c, 8, 38, 0
16, 63000, Note_on_c, 8, 40, 72
16, 63119, Note_on_c, 8, 40, 0
16, 63120, Note_on_c, 8, 41, 72
16, 63239, Note_on_c, 8, 41, 0
16, 63240, Note_on_c, 8, 39, 72
16, 63359, Note_on_c, 8, 39, 0
16, 63360, Note_on_c, 8, 38, 72
16, 63479, Note_on_c, 8, 38, 0
16, 63480, Note_on_c, 8, 39, 72
16, 63599, Note_on_c, 8, 39, 0
16, 63600, Note_on_c, 8, 36, 72
16, 63719, Note_on_c, 8, 36, 0
16, 63720, Note_on_c, 8, 38, 72
16, 63839, Note_on_c, 8, 38, 0
16, 63840, Note_on_c, 8, 34, 72
16, 64079, Note_on_c, 8, 34, 0
16, 64560, Note_on_c, 8, 39, 72
16, 64799, Note_on_c, 8, 39, 0
16, 65280, Note_on_c, 8, 41, 72
16, 65519, Note_on_c, 8, 41, 0
16, 66000, Note_on_c, 8, 43, 72
16, 66119, Note_on_c, 8, 43, 0
16, 66240, Note_on_c, 8, 39, 72
16, 66359, Note_on_c, 8, 39, 0
16, 66480, Note_on_c, 8, 41, 72
16, 66599, Note_on_c, 8, 41, 0
16, 66720, Note_on_c, 8, 34, 72
16, 66959, Note_on_c, 8, 34, 0
16, 66959, End_track
17, 0, Start_track
17, 0, Title_t, "Soprano "
17, 0, MIDI_port, 0
17, 0, Program_c, 10, 73
17, 0, Control_c, 10, 7, 127
17, 0, Control_c, 10, 10, 50
17, 0, Control_c, 10, 11, 127
17, 5280, Note_on_c, 10, 70, 60
17, 5639, Note_on_c, 10, 70, 0
17, 5640, Note_on_c, 10, 74, 60
17, 5759, Note_on_c, 10, 74, 0
17, 5760, Note_on_c, 10, 77, 60
17, 5819, Note_on_c, 10, 77, 0
17, 5820, Note_on_c, 10, 74, 60
17, 5879, Note_on_c, 10, 74, 0
17, 5880, Note_on_c, 10, 74, 60
17, 5999, Note_on_c, 10, 74, 0
17, 6120, Note_on_c, 10, 74, 60
17, 6239, Note_on_c, 10, 74, 0
17, 6240, Note_on_c, 10, 77, 60
17, 6299, Note_on_c, 10, 77, 0
17, 6300, Note_on_c, 10, 72, 60
17, 6359, Note_on_c, 10, 72, 0
17, 6360, Note_on_c, 10, 72, 60
17, 6479, Note_on_c, 10, 72, 0
17, 6600, Note_on_c, 10, 72, 60
17, 6719, Note_on_c, 10, 72, 0
17, 6720, Note_on_c, 10, 77, 60
17, 6839, Note_on_c, 10, 77, 0
17, 6840, Note_on_c, 10, 76, 60
17, 6959, Note_on_c, 10, 76, 0
17, 6960, Note_on_c, 10, 74, 60
17, 7079, Note_on_c, 10, 74, 0
17, 7080, Note_on_c, 10, 72, 60
17, 7199, Note_on_c, 10, 72, 0
17, 7200, Note_on_c, 10, 70, 60
17, 7289, Note_on_c, 10, 70, 0
17, 7290, Note_on_c, 10, 70, 60
17, 7319, Note_on_c, 10, 70, 0
17, 7320, Note_on_c, 10, 70, 60
17, 7439, Note_on_c, 10, 70, 0
17, 7560, Note_on_c, 10, 70, 60
17, 7679, Note_on_c, 10, 70, 0
17, 7680, Note_on_c, 10, 79, 60
17, 7919, Note_on_c, 10, 79, 0
17, 7920, Note_on_c, 10, 77, 60
17, 7979, Note_on_c, 10, 77, 0
17, 7980, Note_on_c, 10, 76, 60
17, 8039, Note_on_c, 10, 76, 0
17, 8040, Note_on_c, 10, 74, 60
17, 8099, Note_on_c, 10, 74, 0
17, 8100, Note_on_c, 10, 72, 60
17, 8159, Note_on_c, 10, 72, 0
17, 8160, Note_on_c, 10, 72, 60
17, 8399, Note_on_c, 10, 72, 0
17, 8400, Note_on_c, 10, 70, 60
17, 8429, Note_on_c, 10, 70, 0
17, 8430, Note_on_c, 10, 72, 60
17, 8459, Note_on_c, 10, 72, 0
17, 8460, Note_on_c, 10, 70, 60
17, 8489, Note_on_c, 10, 70, 0
17, 8490, Note_on_c, 10, 72, 60
17, 8519, Note_on_c, 10, 72, 0
17, 8520, Note_on_c, 10, 70, 60
17, 8549, Note_on_c, 10, 70, 0
17, 8550, Note_on_c, 10, 72, 60
17, 8579, Note_on_c, 10, 72, 0
17, 8580, Note_on_c, 10, 69, 60
17, 8639, Note_on_c, 10, 69, 0
17, 8640, Note_on_c, 10, 69, 60
17, 8879, Note_on_c, 10, 69, 0
17, 9480, Note_on_c, 10, 72, 60
17, 9539, Note_on_c, 10, 72, 0
17, 9540, Note_on_c, 10, 72, 60
17, 9599, Note_on_c, 10, 72, 0
17, 9600, Note_on_c, 10, 72, 60
17, 9719, Note_on_c, 10, 72, 0
17, 9720, Note_on_c, 10, 77, 60
17, 9839, Note_on_c, 10, 77, 0
17, 9840, Note_on_c, 10, 72, 60
17, 9959, Note_on_c, 10, 72, 0
17, 10440, Note_on_c, 10, 72, 60
17, 10559, Note_on_c, 10, 72, 0
17, 10560, Note_on_c, 10, 72, 60
17, 10679, Note_on_c, 10, 72, 0
17, 10680, Note_on_c, 10, 77, 60
17, 10799, Note_on_c, 10, 77, 0
17, 10800, Note_on_c, 10, 72, 60
17, 10919, Note_on_c, 10, 72, 0
17, 11400, Note_on_c, 10, 72, 60
17, 11459, Note_on_c, 10, 72, 0
17, 11460, Note_on_c, 10, 72, 60
17, 11519, Note_on_c, 10, 72, 0
17, 11520, Note_on_c, 10, 71, 60
17, 11639, Note_on_c, 10, 71, 0
17, 11640, Note_on_c, 10, 74, 60
17, 11759, Note_on_c, 10, 74, 0
17, 11760, Note_on_c, 10, 67, 60
17, 11879, Note_on_c, 10, 67, 0
17, 11880, Note_on_c, 10, 71, 60
17, 11999, Note_on_c, 10, 71, 0
17, 12000, Note_on_c, 10, 72, 60
17, 12239, Note_on_c, 10, 72, 0
17, 12240, Note_on_c, 10, 72, 60
17, 12359, Note_on_c, 10, 72, 0
17, 12360, Note_on_c, 10, 70, 60
17, 12479, Note_on_c, 10, 70, 0
17, 12480, Note_on_c, 10, 69, 60
17, 12599, Note_on_c, 10, 69, 0
17, 12600, Note_on_c, 10, 70, 60
17, 12719, Note_on_c, 10, 70, 0
17, 12720, Note_on_c, 10, 71, 60
17, 12839, Note_on_c, 10, 71, 0
17, 12840, Note_on_c, 10, 72, 60
17, 12959, Note_on_c, 10, 72, 0
17, 12960, Note_on_c, 10, 73, 60
17, 13079, Note_on_c, 10, 73, 0
17, 13080, Note_on_c, 10, 74, 60
17, 13199, Note_on_c, 10, 74, 0
17, 13200, Note_on_c, 10, 72, 60
17, 13259, Note_on_c, 10, 72, 0
17, 13260, Note_on_c, 10, 70, 60
17, 13319, Note_on_c, 10, 70, 0
17, 13320, Note_on_c, 10, 69, 60
17, 13379, Note_on_c, 10, 69, 0
17, 13380, Note_on_c, 10, 67, 60
17, 13439, Note_on_c, 10, 67, 0
17, 13440, Note_on_c, 10, 65, 60
17, 13769, Note_on_c, 10, 65, 0
17, 13770, Note_on_c, 10, 69, 60
17, 13799, Note_on_c, 10, 69, 0
17, 13800, Note_on_c, 10, 67, 60
17, 13919, Note_on_c, 10, 67, 0
17, 13920, Note_on_c, 10, 65, 60
17, 14039, Note_on_c, 10, 65, 0
17, 14040, Note_on_c, 10, 74, 60
17, 14099, Note_on_c, 10, 74, 0
17, 14100, Note_on_c, 10, 74, 60
17, 14159, Note_on_c, 10, 74, 0
17, 14160, Note_on_c, 10, 77, 60
17, 14279, Note_on_c, 10, 77, 0
17, 14280, Note_on_c, 10, 74, 60
17, 14399, Note_on_c, 10, 74, 0
17, 14760, Note_on_c, 10, 77, 60
17, 14879, Note_on_c, 10, 77, 0
17, 14880, Note_on_c, 10, 77, 60
17, 14999, Note_on_c, 10, 77, 0
17, 15000, Note_on_c, 10, 81, 60
17, 15119, Note_on_c, 10, 81, 0
17, 15120, Note_on_c, 10, 79, 60
17, 15239, Note_on_c, 10, 79, 0
17, 15240, Note_on_c, 10, 77, 60
17, 15359, Note_on_c, 10, 77, 0
17, 15360, Note_on_c, 10, 77, 60
17, 15419, Note_on_c, 10, 77, 0
17, 15420, Note_on_c, 10, 76, 60
17, 15479, Note_on_c, 10, 76, 0
17, 15480, Note_on_c, 10, 77, 60
17, 15539, Note_on_c, 10, 77, 0
17, 15540, Note_on_c, 10, 79, 60
17, 15599, Note_on_c, 10, 79, 0
17, 15600, Note_on_c, 10, 70, 60
17, 15719, Note_on_c, 10, 70, 0
17, 15720, Note_on_c, 10, 70, 60
17, 15839, Note_on_c, 10, 70, 0
17, 15840, Note_on_c, 10, 69, 60
17, 15959, Note_on_c, 10, 69, 0
17, 15960, Note_on_c, 10, 72, 60
17, 16079, Note_on_c, 10, 72, 0
17, 16080, Note_on_c, 10, 70, 60
17, 16199, Note_on_c, 10, 70, 0
17, 16200, Note_on_c, 10, 74, 60
17, 16319, Note_on_c, 10, 74, 0
17, 16320, Note_on_c, 10, 65, 60
17, 16679, Note_on_c, 10, 65, 0
17, 16680, Note_on_c, 10, 67, 60
17, 16799, Note_on_c, 10, 67, 0
17, 16800, Note_on_c, 10, 65, 60
17, 17039, Note_on_c, 10, 65, 0
17, 21600, Note_on_c, 10, 65, 60
17, 21959, Note_on_c, 10, 65, 0
17, 21960, Note_on_c, 10, 65, 60
17, 22079, Note_on_c, 10, 65, 0
17, 22080, Note_on_c, 10, 69, 60
17, 22199, Note_on_c, 10, 69, 0
17, 22200, Note_on_c, 10, 65, 60
17, 22319, Note_on_c, 10, 65, 0
17, 22920, Note_on_c, 10, 69, 60
17, 23039, Note_on_c, 10, 69, 0
17, 23040, Note_on_c, 10, 72, 60
17, 23159, Note_on_c, 10, 72, 0
17, 23160, Note_on_c, 10, 69, 60
17, 23279, Note_on_c, 10, 69, 0
17, 23880, Note_on_c, 10, 75, 60
17, 23999, Note_on_c, 10, 75, 0
17, 24000, Note_on_c, 10, 79, 60
17, 24239, Note_on_c, 10, 79, 0
17, 24240, Note_on_c, 10, 77, 60
17, 24359, Note_on_c, 10, 77, 0
17, 24360, Note_on_c, 10, 75, 60
17, 24479, Note_on_c, 10, 75, 0
17, 24480, Note_on_c, 10, 74, 60
17, 24839, Note_on_c, 10, 74, 0
17, 24840, Note_on_c, 10, 77, 60
17, 24899, Note_on_c, 10, 77, 0
17, 24900, Note_on_c, 10, 75, 60
17, 24929, Note_on_c, 10, 75, 0
17, 24930, Note_on_c, 10, 74, 60
17, 24959, Note_on_c, 10, 74, 0
17, 24960, Note_on_c, 10, 72, 60
17, 25199, Note_on_c, 10, 72, 0
17, 30840, Note_on_c, 10, 70, 60
17, 30899, Note_on_c, 10, 70, 0
17, 30900, Note_on_c, 10, 70, 60
17, 30959, Note_on_c, 10, 70, 0
17, 30960, Note_on_c, 10, 75, 60
17, 31079, Note_on_c, 10, 75, 0
17, 31080, Note_on_c, 10, 70, 60
17, 31199, Note_on_c, 10, 70, 0
17, 31560, Note_on_c, 10, 70, 60
17, 31679, Note_on_c, 10, 70, 0
17, 31680, Note_on_c, 10, 75, 60
17, 31799, Note_on_c, 10, 75, 0
17, 31800, Note_on_c, 10, 70, 60
17, 31919, Note_on_c, 10, 70, 0
17, 32520, Note_on_c, 10, 74, 60
17, 32639, Note_on_c, 10, 74, 0
17, 32640, Note_on_c, 10, 75, 60
17, 32879, Note_on_c, 10, 75, 0
17, 32880, Note_on_c, 10, 77, 60
17, 32999, Note_on_c, 10, 77, 0
17, 33000, Note_on_c, 10, 75, 60
17, 33119, Note_on_c, 10, 75, 0
17, 33120, Note_on_c, 10, 74, 60
17, 33239, Note_on_c, 10, 74, 0
17, 33240, Note_on_c, 10, 75, 60
17, 33299, Note_on_c, 10, 75, 0
17, 33300, Note_on_c, 10, 77, 60
17, 33359, Note_on_c, 10, 77, 0
17, 33360, Note_on_c, 10, 75, 60
17, 33479, Note_on_c, 10, 75, 0
17, 33480, Note_on_c, 10, 74, 60
17, 33599, Note_on_c, 10, 74, 0
17, 33600, Note_on_c, 10, 75, 60
17, 33839, Note_on_c, 10, 75, 0
17, 33960, Note_on_c, 10, 74, 60
17, 34079, Note_on_c, 10, 74, 0
17, 34080, Note_on_c, 10, 72, 60
17, 34199, Note_on_c, 10, 72, 0
17, 34200, Note_on_c, 10, 74, 60
17, 34259, Note_on_c, 10, 74, 0
17, 34260, Note_on_c, 10, 75, 60
17, 34319, Note_on_c, 10, 75, 0
17, 34320, Note_on_c, 10, 74, 60
17, 34439, Note_on_c, 10, 74, 0
17, 34440, Note_on_c, 10, 72, 60
17, 34559, Note_on_c, 10, 72, 0
17, 34560, Note_on_c, 10, 74, 60
17, 34799, Note_on_c, 10, 74, 0
17, 34800, Note_on_c, 10, 74, 60
17, 34919, Note_on_c, 10, 74, 0
17, 34920, Note_on_c, 10, 74, 60
17, 35039, Note_on_c, 10, 74, 0
17, 35040, Note_on_c, 10, 76, 60
17, 35069, Note_on_c, 10, 76, 0
17, 35070, Note_on_c, 10, 77, 60
17, 35099, Note_on_c, 10, 77, 0
17, 35100, Note_on_c, 10, 76, 60
17, 35129, Note_on_c, 10, 76, 0
17, 35130, Note_on_c, 10, 77, 60
17, 35159, Note_on_c, 10, 77, 0
17, 35160, Note_on_c, 10, 76, 60
17, 35189, Note_on_c, 10, 76, 0
17, 35190, Note_on_c, 10, 77, 60
17, 35219, Note_on_c, 10, 77, 0
17, 35220, Note_on_c, 10, 76, 60
17, 35249, Note_on_c, 10, 76, 0
17, 35250, Note_on_c, 10, 77, 60
17, 35279, Note_on_c, 10, 77, 0
17, 35280, Note_on_c, 10, 76, 60
17, 35309, Note_on_c, 10, 76, 0
17, 35310, Note_on_c, 10, 77, 60
17, 35339, Note_on_c, 10, 77, 0
17, 35340, Note_on_c, 10, 76, 60
17, 35369, Note_on_c, 10, 76, 0
17, 35370, Note_on_c, 10, 77, 60
17, 35399, Note_on_c, 10, 77, 0
17, 35400, Note_on_c, 10, 76, 60
17, 35519, Note_on_c, 10, 76, 0
17, 35520, Note_on_c, 10, 77, 60
17, 35759, Note_on_c, 10, 77, 0
17, 36360, Note_on_c, 10, 77, 60
17, 36419, Note_on_c, 10, 77, 0
17, 36420, Note_on_c, 10, 77, 60
17, 36479, Note_on_c, 10, 77, 0
17, 36480, Note_on_c, 10, 77, 60
17, 36659, Note_on_c, 10, 77, 0
17, 36660, Note_on_c, 10, 74, 60
17, 36719, Note_on_c, 10, 74, 0
17, 36720, Note_on_c, 10, 70, 60
17, 36959, Note_on_c, 10, 70, 0
17, 37320, Note_on_c, 10, 77, 60
17, 37439, Note_on_c, 10, 77, 0
17, 37440, Note_on_c, 10, 77, 60
17, 37619, Note_on_c, 10, 77, 0
17, 37620, Note_on_c, 10, 74, 60
17, 37679, Note_on_c, 10, 74, 0
17, 37680, Note_on_c, 10, 70, 60
17, 37799, Note_on_c, 10, 70, 0
17, 38280, Note_on_c, 10, 77, 60
17, 38339, Note_on_c, 10, 77, 0
17, 38340, Note_on_c, 10, 77, 60
17, 38399, Note_on_c, 10, 77, 0
17, 38400, Note_on_c, 10, 76, 60
17, 38519, Note_on_c, 10, 76, 0
17, 38520, Note_on_c, 10, 79, 60
17, 38639, Note_on_c, 10, 79, 0
17, 38640, Note_on_c, 10, 72, 60
17, 38759, Note_on_c, 10, 72, 0
17, 38760, Note_on_c, 10, 76, 60
17, 38879, Note_on_c, 10, 76, 0
17, 38880, Note_on_c, 10, 77, 60
17, 39119, Note_on_c, 10, 77, 0
17, 39120, Note_on_c, 10, 77, 60
17, 39239, Note_on_c, 10, 77, 0
17, 39240, Note_on_c, 10, 75, 60
17, 39359, Note_on_c, 10, 75, 0
17, 39360, Note_on_c, 10, 74, 60
17, 39479, Note_on_c, 10, 74, 0
17, 39480, Note_on_c, 10, 75, 60
17, 39599, Note_on_c, 10, 75, 0
17, 39600, Note_on_c, 10, 76, 60
17, 39719, Note_on_c, 10, 76, 0
17, 39720, Note_on_c, 10, 77, 60
17, 39839, Note_on_c, 10, 77, 0
17, 39840, Note_on_c, 10, 78, 60
17, 39959, Note_on_c, 10, 78, 0
17, 39960, Note_on_c, 10, 79, 60
17, 40079, Note_on_c, 10, 79, 0
17, 40080, Note_on_c, 10, 77, 60
17, 40139, Note_on_c, 10, 77, 0
17, 40140, Note_on_c, 10, 75, 60
17, 40199, Note_on_c, 10, 75, 0
17, 40200, Note_on_c, 10, 74, 60
17, 40259, Note_on_c, 10, 74, 0
17, 40260, Note_on_c, 10, 72, 60
17, 40319, Note_on_c, 10, 72, 0
17, 40320, Note_on_c, 10, 70, 60
17, 40649, Note_on_c, 10, 70, 0
17, 40650, Note_on_c, 10, 74, 60
17, 40679, Note_on_c, 10, 74, 0
17, 40680, Note_on_c, 10, 72, 60
17, 40799, Note_on_c, 10, 72, 0
17, 40800, Note_on_c, 10, 70, 60
17, 40919, Note_on_c, 10, 70, 0
17, 40920, Note_on_c, 10, 70, 60
17, 40979, Note_on_c, 10, 70, 0
17, 40980, Note_on_c, 10, 70, 60
17, 41039, Note_on_c, 10, 70, 0
17, 41040, Note_on_c, 10, 74, 60
17, 41159, Note_on_c, 10, 74, 0
17, 41160, Note_on_c, 10, 70, 60
17, 41279, Note_on_c, 10, 70, 0
17, 41400, Note_on_c, 10, 74, 60
17, 41519, Note_on_c, 10, 74, 0
17, 41520, Note_on_c, 10, 76, 60
17, 41639, Note_on_c, 10, 76, 0
17, 41640, Note_on_c, 10, 77, 60
17, 41759, Note_on_c, 10, 77, 0
17, 41760, Note_on_c, 10, 79, 60
17, 41939, Note_on_c, 10, 79, 0
17, 41940, Note_on_c, 10, 76, 60
17, 41999, Note_on_c, 10, 76, 0
17, 42000, Note_on_c, 10, 70, 60
17, 42119, Note_on_c, 10, 70, 0
17, 42120, Note_on_c, 10, 70, 60
17, 42239, Note_on_c, 10, 70, 0
17, 42240, Note_on_c, 10, 69, 60
17, 42419, Note_on_c, 10, 69, 0
17, 42420, Note_on_c, 10, 72, 60
17, 42479, Note_on_c, 10, 72, 0
17, 42480, Note_on_c, 10, 75, 60
17, 42599, Note_on_c, 10, 75, 0
17, 42600, Note_on_c, 10, 75, 60
17, 42719, Note_on_c, 10, 75, 0
17, 42720, Note_on_c, 10, 75, 60
17, 42779, Note_on_c, 10, 75, 0
17, 42780, Note_on_c, 10, 74, 60
17, 42839, Note_on_c, 10, 74, 0
17, 42840, Note_on_c, 10, 75, 60
17, 42899, Note_on_c, 10, 75, 0
17, 42900, Note_on_c, 10, 77, 60
17, 42959, Note_on_c, 10, 77, 0
17, 42960, Note_on_c, 10, 77, 60
17, 43019, Note_on_c, 10, 77, 0
17, 43020, Note_on_c, 10, 75, 60
17, 43079, Note_on_c, 10, 75, 0
17, 43080, Note_on_c, 10, 77, 60
17, 43139, Note_on_c, 10, 77, 0
17, 43140, Note_on_c, 10, 79, 60
17, 43169, Note_on_c, 10, 79, 0
17, 43170, Note_on_c, 10, 79, 60
17, 43199, Note_on_c, 10, 79, 0
17, 43200, Note_on_c, 10, 70, 60
17, 43559, Note_on_c, 10, 70, 0
17, 43560, Note_on_c, 10, 72, 60
17, 43679, Note_on_c, 10, 72, 0
17, 43680, Note_on_c, 10, 70, 60
17, 43919, Note_on_c, 10, 70, 0
17, 44040, Note_on_c, 10, 74, 72
17, 44099, Note_on_c, 10, 74, 0
17, 44100, Note_on_c, 10, 74, 72
17, 44159, Note_on_c, 10, 74, 0
17, 44160, Note_on_c, 10, 77, 72
17, 44279, Note_on_c, 10, 77, 0
17, 44280, Note_on_c, 10, 74, 72
17, 44399, Note_on_c, 10, 74, 0
17, 44520, Note_on_c, 10, 74, 72
17, 44639, Note_on_c, 10, 74, 0
17, 44640, Note_on_c, 10, 77, 72
17, 44759, Note_on_c, 10, 77, 0
17, 44760, Note_on_c, 10, 74, 72
17, 44879, Note_on_c, 10, 74, 0
17, 45000, Note_on_c, 10, 74, 72
17, 45119, Note_on_c, 10, 74, 0
17, 45120, Note_on_c, 10, 79, 72
17, 45359, Note_on_c, 10, 79, 0
17, 45360, Note_on_c, 10, 79, 72
17, 45479, Note_on_c, 10, 79, 0
17, 45480, Note_on_c, 10, 79, 72
17, 45599, Note_on_c, 10, 79, 0
17, 45600, Note_on_c, 10, 72, 72
17, 45839, Note_on_c, 10, 72, 0
17, 45840, Note_on_c, 10, 72, 72
17, 45959, Note_on_c, 10, 72, 0
17, 45960, Note_on_c, 10, 72, 72
17, 46079, Note_on_c, 10, 72, 0
17, 46080, Note_on_c, 10, 77, 72
17, 46379, Note_on_c, 10, 77, 0
17, 46380, Note_on_c, 10, 74, 72
17, 46439, Note_on_c, 10, 74, 0
17, 46440, Note_on_c, 10, 75, 72
17, 46499, Note_on_c, 10, 75, 0
17, 46500, Note_on_c, 10, 72, 72
17, 46559, Note_on_c, 10, 72, 0
17, 46560, Note_on_c, 10, 70, 72
17, 46889, Note_on_c, 10, 70, 0
17, 46890, Note_on_c, 10, 74, 72
17, 46919, Note_on_c, 10, 74, 0
17, 46920, Note_on_c, 10, 72, 72
17, 47039, Note_on_c, 10, 72, 0
17, 47040, Note_on_c, 10, 70, 72
17, 47279, Note_on_c, 10, 70, 0
17, 56880, Control_c, 10, 10, 24
17, 56880, Note_on_c, 10, 70, 72
17, 57359, Note_on_c, 10, 70, 0
17, 57360, Note_on_c, 10, 69, 72
17, 57599, Note_on_c, 10, 69, 0
17, 57600, Note_on_c, 10, 75, 72
17, 58079, Note_on_c, 10, 75, 0
17, 58080, Note_on_c, 10, 74, 72
17, 58319, Note_on_c, 10, 74, 0
17, 58320, Note_on_c, 10, 70, 72
17, 58559, Note_on_c, 10, 70, 0
17, 58560, Note_on_c, 10, 77, 72
17, 58799, Note_on_c, 10, 77, 0
17, 58800, Note_on_c, 10, 79, 72
17, 59159, Note_on_c, 10, 79, 0
17, 59160, Note_on_c, 10, 77, 72
17, 59279, Note_on_c, 10, 77, 0
17, 59280, Note_on_c, 10, 75, 72
17, 59399, Note_on_c, 10, 75, 0
17, 59400, Note_on_c, 10, 74, 72
17, 59519, Note_on_c, 10, 74, 0
17, 59520, Note_on_c, 10, 72, 72
17, 59639, Note_on_c, 10, 72, 0
17, 59640, Note_on_c, 10, 70, 72
17, 59759, Note_on_c, 10, 70, 0
17, 59760, Note_on_c, 10, 69, 72
17, 59879, Note_on_c, 10, 69, 0
17, 59880, Note_on_c, 10, 70, 72
17, 59999, Note_on_c, 10, 70, 0
17, 60000, Note_on_c, 10, 67, 72
17, 60119, Note_on_c, 10, 67, 0
17, 60120, Note_on_c, 10, 69, 72
17, 60239, Note_on_c, 10, 69, 0
17, 60240, Note_on_c, 10, 70, 72
17, 60479, Note_on_c, 10, 70, 0
17, 60720, Note_on_c, 10, 74, 72
17, 60959, Note_on_c, 10, 74, 0
17, 60960, Note_on_c, 10, 72, 72
17, 61079, Note_on_c, 10, 72, 0
17, 61080, Note_on_c, 10, 70, 72
17, 61199, Note_on_c, 10, 70, 0
17, 61200, Note_on_c, 10, 69, 72
17, 61319, Note_on_c, 10, 69, 0
17, 61320, Note_on_c, 10, 70, 72
17, 61439, Note_on_c, 10, 70, 0
17, 61440, Note_on_c, 10, 67, 72
17, 61559, Note_on_c, 10, 67, 0
17, 61560, Note_on_c, 10, 69, 72
17, 61679, Note_on_c, 10, 69, 0
17, 61680, Note_on_c, 10, 70, 72
17, 61799, Note_on_c, 10, 70, 0
17, 61800, Note_on_c, 10, 69, 72
17, 61919, Note_on_c, 10, 69, 0
17, 61920, Note_on_c, 10, 70, 72
17, 62039, Note_on_c, 10, 70, 0
17, 62040, Note_on_c, 10, 72, 72
17, 62159, Note_on_c, 10, 72, 0
17, 62160, Note_on_c, 10, 74, 72
17, 62279, Note_on_c, 10, 74, 0
17, 62280, Note_on_c, 10, 72, 72
17, 62399, Note_on_c, 10, 72, 0
17, 62400, Note_on_c, 10, 70, 72
17, 62519, Note_on_c, 10, 70, 0
17, 62520, Note_on_c, 10, 69, 72
17, 62639, Note_on_c, 10, 69, 0
17, 62640, Note_on_c, 10, 67, 72
17, 62759, Note_on_c, 10, 67, 0
17, 62760, Note_on_c, 10, 69, 72
17, 62879, Note_on_c, 10, 69, 0
17, 62880, Note_on_c, 10, 65, 72
17, 62999, Note_on_c, 10, 65, 0
17, 63000, Note_on_c, 10, 67, 72
17, 63119, Note_on_c, 10, 67, 0
17, 63120, Note_on_c, 10, 69, 72
17, 63359, Note_on_c, 10, 69, 0
17, 63360, Note_on_c, 10, 70, 72
17, 63599, Note_on_c, 10, 70, 0
17, 63600, Note_on_c, 10, 72, 72
17, 63839, Note_on_c, 10, 72, 0
17, 63840, Note_on_c, 10, 74, 72
17, 64559, Note_on_c, 10, 74, 0
17, 64560, Note_on_c, 10, 75, 72
17, 65039, Note_on_c, 10, 75, 0
17, 65040, Note_on_c, 10, 79, 72
17, 65279, Note_on_c, 10, 79, 0
17, 65280, Note_on_c, 10, 72, 72
17, 65759, Note_on_c, 10, 72, 0
17, 65760, Note_on_c, 10, 77, 72
17, 65999, Note_on_c, 10, 77, 0
17, 66000, Note_on_c, 10, 74, 72
17, 66239, Note_on_c, 10, 74, 0
17, 66240, Note_on_c, 10, 72, 72
17, 66719, Note_on_c, 10, 72, 0
17, 66720, Note_on_c, 10, 70, 72
17, 66959, Note_on_c, 10, 70, 0
17, 66959, End_track
18, 0, Start_track
18, 0, Title_t, "Alto "
18, 0, MIDI_port, 0
18, 0, Program_c, 11, 73
18, 0, Control_c, 11, 7, 127
18, 0, Control_c, 11, 10, 60
18, 0, Control_c, 11, 11, 127
18, 2880, Note_on_c, 11, 65, 60
18, 3239, Note_on_c, 11, 65, 0
18, 3240, Note_on_c, 11, 74, 60
18, 3359, Note_on_c, 11, 74, 0
18, 3360, Note_on_c, 11, 72, 60
18, 3419, Note_on_c, 11, 72, 0
18, 3420, Note_on_c, 11, 69, 60
18, 3479, Note_on_c, 11, 69, 0
18, 3480, Note_on_c, 11, 70, 60
18, 3599, Note_on_c, 11, 70, 0
18, 3720, Note_on_c, 11, 74, 60
18, 3839, Note_on_c, 11, 74, 0
18, 3840, Note_on_c, 11, 72, 60
18, 3899, Note_on_c, 11, 72, 0
18, 3900, Note_on_c, 11, 69, 60
18, 3959, Note_on_c, 11, 69, 0
18, 3960, Note_on_c, 11, 70, 60
18, 4079, Note_on_c, 11, 70, 0
18, 4200, Note_on_c, 11, 70, 60
18, 4319, Note_on_c, 11, 70, 0
18, 4320, Note_on_c, 11, 70, 60
18, 4439, Note_on_c, 11, 70, 0
18, 4440, Note_on_c, 11, 69, 60
18, 4499, Note_on_c, 11, 69, 0
18, 4500, Note_on_c, 11, 70, 60
18, 4559, Note_on_c, 11, 70, 0
18, 4560, Note_on_c, 11, 72, 60
18, 4619, Note_on_c, 11, 72, 0
18, 4620, Note_on_c, 11, 70, 60
18, 4679, Note_on_c, 11, 70, 0
18, 4680, Note_on_c, 11, 69, 60
18, 4739, Note_on_c, 11, 69, 0
18, 4740, Note_on_c, 11, 67, 60
18, 4799, Note_on_c, 11, 67, 0
18, 4800, Note_on_c, 11, 65, 60
18, 5039, Note_on_c, 11, 65, 0
18, 5040, Note_on_c, 11, 63, 60
18, 5069, Note_on_c, 11, 63, 0
18, 5070, Note_on_c, 11, 65, 60
18, 5099, Note_on_c, 11, 65, 0
18, 5100, Note_on_c, 11, 63, 60
18, 5129, Note_on_c, 11, 63, 0
18, 5130, Note_on_c, 11, 65, 60
18, 5159, Note_on_c, 11, 65, 0
18, 5160, Note_on_c, 11, 63, 60
18, 5189, Note_on_c, 11, 63, 0
18, 5190, Note_on_c, 11, 65, 60
18, 5219, Note_on_c, 11, 65, 0
18, 5220, Note_on_c, 11, 62, 60
18, 5279, Note_on_c, 11, 62, 0
18, 5280, Note_on_c, 11, 62, 60
18, 5519, Note_on_c, 11, 62, 0
18, 8760, Note_on_c, 11, 60, 60
18, 8819, Note_on_c, 11, 60, 0
18, 8820, Note_on_c, 11, 60, 60
18, 8879, Note_on_c, 11, 60, 0
18, 8880, Note_on_c, 11, 65, 60
18, 8999, Note_on_c, 11, 65, 0
18, 9000, Note_on_c, 11, 60, 60
18, 9119, Note_on_c, 11, 60, 0
18, 9240, Note_on_c, 11, 60, 60
18, 9359, Note_on_c, 11, 60, 0
18, 9360, Note_on_c, 11, 67, 60
18, 9479, Note_on_c, 11, 67, 0
18, 9480, Note_on_c, 11, 60, 60
18, 9599, Note_on_c, 11, 60, 0
18, 9720, Note_on_c, 11, 60, 60
18, 9839, Note_on_c, 11, 60, 0
18, 9840, Note_on_c, 11, 69, 60
18, 9959, Note_on_c, 11, 69, 0
18, 9960, Note_on_c, 11, 69, 60
18, 10019, Note_on_c, 11, 69, 0
18, 10020, Note_on_c, 11, 69, 60
18, 10079, Note_on_c, 11, 69, 0
18, 10080, Note_on_c, 11, 70, 60
18, 10199, Note_on_c, 11, 70, 0
18, 10200, Note_on_c, 11, 67, 60
18, 10319, Note_on_c, 11, 67, 0
18, 10320, Note_on_c, 11, 64, 60
18, 10439, Note_on_c, 11, 64, 0
18, 10440, Note_on_c, 11, 60, 60
18, 10559, Note_on_c, 11, 60, 0
18, 10560, Note_on_c, 11, 60, 60
18, 10799, Note_on_c, 11, 60, 0
18, 10920, Note_on_c, 11, 67, 60
18, 10979, Note_on_c, 11, 67, 0
18, 10980, Note_on_c, 11, 67, 60
18, 11039, Note_on_c, 11, 67, 0
18, 11040, Note_on_c, 11, 66, 60
18, 11159, Note_on_c, 11, 66, 0
18, 11160, Note_on_c, 11, 69, 60
18, 11279, Note_on_c, 11, 69, 0
18, 11280, Note_on_c, 11, 62, 60
18, 11399, Note_on_c, 11, 62, 0
18, 11400, Note_on_c, 11, 65, 60
18, 11519, Note_on_c, 11, 65, 0
18, 11520, Note_on_c, 11, 67, 60
18, 12239, Note_on_c, 11, 67, 0
18, 12240, Note_on_c, 11, 67, 60
18, 12359, Note_on_c, 11, 67, 0
18, 12360, Note_on_c, 11, 67, 60
18, 12479, Note_on_c, 11, 67, 0
18, 12480, Note_on_c, 11, 65, 60
18, 12599, Note_on_c, 11, 65, 0
18, 12600, Note_on_c, 11, 67, 60
18, 12719, Note_on_c, 11, 67, 0
18, 12720, Note_on_c, 11, 68, 60
18, 12839, Note_on_c, 11, 68, 0
18, 12840, Note_on_c, 11, 69, 60
18, 12959, Note_on_c, 11, 69, 0
18, 12960, Note_on_c, 11, 69, 60
18, 13079, Note_on_c, 11, 69, 0
18, 13080, Note_on_c, 11, 70, 60
18, 13199, Note_on_c, 11, 70, 0
18, 13200, Note_on_c, 11, 67, 60
18, 13259, Note_on_c, 11, 67, 0
18, 13260, Note_on_c, 11, 65, 60
18, 13319, Note_on_c, 11, 65, 0
18, 13320, Note_on_c, 11, 64, 60
18, 13379, Note_on_c, 11, 64, 0
18, 13380, Note_on_c, 11, 62, 60
18, 13439, Note_on_c, 11, 62, 0
18, 13440, Note_on_c, 11, 60, 60
18, 13799, Note_on_c, 11, 60, 0
18, 13800, Note_on_c, 11, 64, 60
18, 13919, Note_on_c, 11, 64, 0
18, 13920, Note_on_c, 11, 65, 60
18, 14039, Note_on_c, 11, 65, 0
18, 14040, Note_on_c, 11, 65, 60
18, 14099, Note_on_c, 11, 65, 0
18, 14100, Note_on_c, 11, 65, 60
18, 14159, Note_on_c, 11, 65, 0
18, 14160, Note_on_c, 11, 69, 60
18, 14279, Note_on_c, 11, 69, 0
18, 14280, Note_on_c, 11, 65, 60
18, 14399, Note_on_c, 11, 65, 0
18, 14520, Note_on_c, 11, 69, 60
18, 14639, Note_on_c, 11, 69, 0
18, 14640, Note_on_c, 11, 71, 60
18, 14759, Note_on_c, 11, 71, 0
18, 14760, Note_on_c, 11, 72, 60
18, 14879, Note_on_c, 11, 72, 0
18, 14880, Note_on_c, 11, 74, 60
18, 14999, Note_on_c, 11, 74, 0
18, 15000, Note_on_c, 11, 72, 60
18, 15119, Note_on_c, 11, 72, 0
18, 15120, Note_on_c, 11, 71, 60
18, 15239, Note_on_c, 11, 71, 0
18, 15240, Note_on_c, 11, 71, 60
18, 15359, Note_on_c, 11, 71, 0
18, 15360, Note_on_c, 11, 72, 60
18, 15479, Note_on_c, 11, 72, 0
18, 15480, Note_on_c, 11, 70, 60
18, 15599, Note_on_c, 11, 70, 0
18, 15600, Note_on_c, 11, 67, 60
18, 15719, Note_on_c, 11, 67, 0
18, 15720, Note_on_c, 11, 67, 60
18, 15839, Note_on_c, 11, 67, 0
18, 15840, Note_on_c, 11, 65, 60
18, 16079, Note_on_c, 11, 65, 0
18, 16080, Note_on_c, 11, 65, 60
18, 16199, Note_on_c, 11, 65, 0
18, 16200, Note_on_c, 11, 62, 60
18, 16319, Note_on_c, 11, 62, 0
18, 16320, Note_on_c, 11, 60, 60
18, 16679, Note_on_c, 11, 60, 0
18, 16680, Note_on_c, 11, 64, 60
18, 16799, Note_on_c, 11, 64, 0
18, 16800, Note_on_c, 11, 65, 60
18, 17039, Note_on_c, 11, 65, 0
18, 21600, Note_on_c, 11, 60, 60
18, 21959, Note_on_c, 11, 60, 0
18, 21960, Note_on_c, 11, 60, 60
18, 22079, Note_on_c, 11, 60, 0
18, 22080, Note_on_c, 11, 65, 60
18, 22199, Note_on_c, 11, 65, 0
18, 22200, Note_on_c, 11, 60, 60
18, 22319, Note_on_c, 11, 60, 0
18, 22920, Note_on_c, 11, 65, 60
18, 23039, Note_on_c, 11, 65, 0
18, 23040, Note_on_c, 11, 69, 60
18, 23159, Note_on_c, 11, 69, 0
18, 23160, Note_on_c, 11, 65, 60
18, 23279, Note_on_c, 11, 65, 0
18, 23880, Note_on_c, 11, 69, 60
18, 23999, Note_on_c, 11, 69, 0
18, 24000, Note_on_c, 11, 72, 60
18, 24239, Note_on_c, 11, 72, 0
18, 24240, Note_on_c, 11, 65, 60
18, 24359, Note_on_c, 11, 65, 0
18, 24360, Note_on_c, 11, 65, 60
18, 24479, Note_on_c, 11, 65, 0
18, 24480, Note_on_c, 11, 65, 60
18, 24719, Note_on_c, 11, 65, 0
18, 24720, Note_on_c, 11, 67, 60
18, 24959, Note_on_c, 11, 67, 0
18, 24960, Note_on_c, 11, 65, 60
18, 25199, Note_on_c, 11, 65, 0
18, 31080, Note_on_c, 11, 67, 60
18, 31139, Note_on_c, 11, 67, 0
18, 31140, Note_on_c, 11, 67, 60
18, 31199, Note_on_c, 11, 67, 0
18, 31200, Note_on_c, 11, 68, 60
18, 31379, Note_on_c, 11, 68, 0
18, 31380, Note_on_c, 11, 65, 60
18, 31439, Note_on_c, 11, 65, 0
18, 31440, Note_on_c, 11, 62, 60
18, 31679, Note_on_c, 11, 62, 0
18, 32040, Note_on_c, 11, 67, 60
18, 32159, Note_on_c, 11, 67, 0
18, 32160, Note_on_c, 11, 68, 60
18, 32339, Note_on_c, 11, 68, 0
18, 32340, Note_on_c, 11, 65, 60
18, 32399, Note_on_c, 11, 65, 0
18, 32400, Note_on_c, 11, 62, 60
18, 32639, Note_on_c, 11, 62, 0
18, 33000, Note_on_c, 11, 67, 60
18, 33119, Note_on_c, 11, 67, 0
18, 33120, Note_on_c, 11, 67, 60
18, 33359, Note_on_c, 11, 67, 0
18, 33360, Note_on_c, 11, 67, 60
18, 33479, Note_on_c, 11, 67, 0
18, 33480, Note_on_c, 11, 67, 60
18, 33599, Note_on_c, 11, 67, 0
18, 33600, Note_on_c, 11, 67, 60
18, 33779, Note_on_c, 11, 67, 0
18, 33780, Note_on_c, 11, 67, 60
18, 33839, Note_on_c, 11, 67, 0
18, 33840, Note_on_c, 11, 67, 60
18, 33959, Note_on_c, 11, 67, 0
18, 33960, Note_on_c, 11, 67, 60
18, 34079, Note_on_c, 11, 67, 0
18, 34080, Note_on_c, 11, 67, 60
18, 34199, Note_on_c, 11, 67, 0
18, 34200, Note_on_c, 11, 65, 60
18, 34259, Note_on_c, 11, 65, 0
18, 34260, Note_on_c, 11, 63, 60
18, 34319, Note_on_c, 11, 63, 0
18, 34320, Note_on_c, 11, 65, 60
18, 34439, Note_on_c, 11, 65, 0
18, 34440, Note_on_c, 11, 63, 60
18, 34559, Note_on_c, 11, 63, 0
18, 34560, Note_on_c, 11, 62, 60
18, 34679, Note_on_c, 11, 62, 0
18, 34680, Note_on_c, 11, 65, 60
18, 34799, Note_on_c, 11, 65, 0
18, 34800, Note_on_c, 11, 70, 60
18, 34919, Note_on_c, 11, 70, 0
18, 34920, Note_on_c, 11, 70, 60
18, 35039, Note_on_c, 11, 70, 0
18, 35040, Note_on_c, 11, 70, 60
18, 35399, Note_on_c, 11, 70, 0
18, 35400, Note_on_c, 11, 70, 60
18, 35519, Note_on_c, 11, 70, 0
18, 35520, Note_on_c, 11, 69, 60
18, 35759, Note_on_c, 11, 69, 0
18, 35880, Note_on_c, 11, 70, 60
18, 35939, Note_on_c, 11, 70, 0
18, 35940, Note_on_c, 11, 70, 60
18, 35999, Note_on_c, 11, 70, 0
18, 36000, Note_on_c, 11, 69, 60
18, 36179, Note_on_c, 11, 69, 0
18, 36180, Note_on_c, 11, 72, 60
18, 36239, Note_on_c, 11, 72, 0
18, 36240, Note_on_c, 11, 65, 60
18, 36479, Note_on_c, 11, 65, 0
18, 36840, Note_on_c, 11, 70, 60
18, 36959, Note_on_c, 11, 70, 0
18, 36960, Note_on_c, 11, 69, 60
18, 37139, Note_on_c, 11, 69, 0
18, 37140, Note_on_c, 11, 72, 60
18, 37199, Note_on_c, 11, 72, 0
18, 37200, Note_on_c, 11, 65, 60
18, 37439, Note_on_c, 11, 65, 0
18, 37560, Note_on_c, 11, 65, 60
18, 37679, Note_on_c, 11, 65, 0
18, 37680, Note_on_c, 11, 65, 60
18, 37799, Note_on_c, 11, 65, 0
18, 37800, Note_on_c, 11, 65, 60
18, 37859, Note_on_c, 11, 65, 0
18, 37860, Note_on_c, 11, 65, 60
18, 37919, Note_on_c, 11, 65, 0
18, 37920, Note_on_c, 11, 65, 60
18, 38039, Note_on_c, 11, 65, 0
18, 38040, Note_on_c, 11, 63, 60
18, 38099, Note_on_c, 11, 63, 0
18, 38100, Note_on_c, 11, 65, 60
18, 38159, Note_on_c, 11, 65, 0
18, 38160, Note_on_c, 11, 67, 60
18, 38279, Note_on_c, 11, 67, 0
18, 38280, Note_on_c, 11, 67, 60
18, 38399, Note_on_c, 11, 67, 0
18, 38400, Note_on_c, 11, 67, 60
18, 38639, Note_on_c, 11, 67, 0
18, 38760, Note_on_c, 11, 72, 60
18, 38879, Note_on_c, 11, 72, 0
18, 38880, Note_on_c, 11, 72, 60
18, 39119, Note_on_c, 11, 72, 0
18, 39120, Note_on_c, 11, 69, 60
18, 39239, Note_on_c, 11, 69, 0
18, 39240, Note_on_c, 11, 72, 60
18, 39359, Note_on_c, 11, 72, 0
18, 39360, Note_on_c, 11, 70, 60
18, 40079, Note_on_c, 11, 70, 0
18, 40080, Note_on_c, 11, 70, 60
18, 40199, Note_on_c, 11, 70, 0
18, 40200, Note_on_c, 11, 69, 60
18, 40259, Note_on_c, 11, 69, 0
18, 40260, Note_on_c, 11, 67, 60
18, 40319, Note_on_c, 11, 67, 0
18, 40320, Note_on_c, 11, 65, 60
18, 40679, Note_on_c, 11, 65, 0
18, 40680, Note_on_c, 11, 69, 60
18, 40799, Note_on_c, 11, 69, 0
18, 40800, Note_on_c, 11, 70, 60
18, 41039, Note_on_c, 11, 70, 0
18, 41160, Note_on_c, 11, 62, 60
18, 41219, Note_on_c, 11, 62, 0
18, 41220, Note_on_c, 11, 62, 60
18, 41279, Note_on_c, 11, 62, 0
18, 41280, Note_on_c, 11, 70, 60
18, 41399, Note_on_c, 11, 70, 0
18, 41400, Note_on_c, 11, 69, 60
18, 41519, Note_on_c, 11, 69, 0
18, 41520, Note_on_c, 11, 67, 60
18, 41639, Note_on_c, 11, 67, 0
18, 41640, Note_on_c, 11, 65, 60
18, 41759, Note_on_c, 11, 65, 0
18, 41760, Note_on_c, 11, 64, 60
18, 41939, Note_on_c, 11, 64, 0
18, 41940, Note_on_c, 11, 67, 60
18, 41999, Note_on_c, 11, 67, 0
18, 42000, Note_on_c, 11, 67, 60
18, 42119, Note_on_c, 11, 67, 0
18, 42120, Note_on_c, 11, 67, 60
18, 42239, Note_on_c, 11, 67, 0
18, 42240, Note_on_c, 11, 65, 60
18, 42419, Note_on_c, 11, 65, 0
18, 42420, Note_on_c, 11, 65, 60
18, 42479, Note_on_c, 11, 65, 0
18, 42480, Note_on_c, 11, 65, 60
18, 42599, Note_on_c, 11, 65, 0
18, 42600, Note_on_c, 11, 65, 60
18, 42719, Note_on_c, 11, 65, 0
18, 42720, Note_on_c, 11, 65, 60
18, 42959, Note_on_c, 11, 65, 0
18, 42960, Note_on_c, 11, 67, 60
18, 43079, Note_on_c, 11, 67, 0
18, 43080, Note_on_c, 11, 67, 60
18, 43199, Note_on_c, 11, 67, 0
18, 43200, Note_on_c, 11, 65, 60
18, 43559, Note_on_c, 11, 65, 0
18, 43560, Note_on_c, 11, 69, 60
18, 43679, Note_on_c, 11, 69, 0
18, 43680, Note_on_c, 11, 70, 60
18, 43919, Note_on_c, 11, 70, 0
18, 44040, Note_on_c, 11, 70, 72
18, 44099, Note_on_c, 11, 70, 0
18, 44100, Note_on_c, 11, 70, 72
18, 44159, Note_on_c, 11, 70, 0
18, 44160, Note_on_c, 11, 74, 72
18, 44279, Note_on_c, 11, 74, 0
18, 44280, Note_on_c, 11, 70, 72
18, 44399, Note_on_c, 11, 70, 0
18, 44520, Note_on_c, 11, 70, 72
18, 44639, Note_on_c, 11, 70, 0
18, 44640, Note_on_c, 11, 74, 72
18, 44759, Note_on_c, 11, 74, 0
18, 44760, Note_on_c, 11, 70, 72
18, 44879, Note_on_c, 11, 70, 0
18, 45000, Note_on_c, 11, 70, 72
18, 45119, Note_on_c, 11, 70, 0
18, 45120, Note_on_c, 11, 70, 72
18, 45359, Note_on_c, 11, 70, 0
18, 45360, Note_on_c, 11, 70, 72
18, 45479, Note_on_c, 11, 70, 0
18, 45480, Note_on_c, 11, 70, 72
18, 45599, Note_on_c, 11, 70, 0
18, 45600, Note_on_c, 11, 69, 72
18, 45839, Note_on_c, 11, 69, 0
18, 45840, Note_on_c, 11, 69, 72
18, 45959, Note_on_c, 11, 69, 0
18, 45960, Note_on_c, 11, 69, 72
18, 46079, Note_on_c, 11, 69, 0
18, 46080, Note_on_c, 11, 70, 72
18, 46319, Note_on_c, 11, 70, 0
18, 46320, Note_on_c, 11, 67, 72
18, 46439, Note_on_c, 11, 67, 0
18, 46440, Note_on_c, 11, 67, 72
18, 46559, Note_on_c, 11, 67, 0
18, 46560, Note_on_c, 11, 65, 72
18, 46919, Note_on_c, 11, 65, 0
18, 46920, Note_on_c, 11, 63, 72
18, 47039, Note_on_c, 11, 63, 0
18, 47040, Note_on_c, 11, 62, 72
18, 47279, Note_on_c, 11, 62, 0
18, 54000, Control_c, 11, 10, 96
18, 54000, Note_on_c, 11, 65, 72
18, 54479, Note_on_c, 11, 65, 0
18, 54480, Note_on_c, 11, 62, 72
18, 54719, Note_on_c, 11, 62, 0
18, 54720, Note_on_c, 11, 70, 72
18, 55199, Note_on_c, 11, 70, 0
18, 55200, Note_on_c, 11, 69, 72
18, 55439, Note_on_c, 11, 69, 0
18, 55440, Note_on_c, 11, 65, 72
18, 55679, Note_on_c, 11, 65, 0
18, 55680, Note_on_c, 11, 72, 72
18, 55919, Note_on_c, 11, 72, 0
18, 55920, Note_on_c, 11, 74, 72
18, 56279, Note_on_c, 11, 74, 0
18, 56280, Note_on_c, 11, 72, 72
18, 56399, Note_on_c, 11, 72, 0
18, 56400, Note_on_c, 11, 70, 72
18, 56519, Note_on_c, 11, 70, 0
18, 56520, Note_on_c, 11, 69, 72
18, 56639, Note_on_c, 11, 69, 0
18, 56640, Note_on_c, 11, 67, 72
18, 56759, Note_on_c, 11, 67, 0
18, 56760, Note_on_c, 11, 65, 72
18, 56879, Note_on_c, 11, 65, 0
18, 56880, Note_on_c, 11, 64, 72
18, 56999, Note_on_c, 11, 64, 0
18, 57000, Note_on_c, 11, 65, 72
18, 57119, Note_on_c, 11, 65, 0
18, 57120, Note_on_c, 11, 62, 72
18, 57239, Note_on_c, 11, 62, 0
18, 57240, Note_on_c, 11, 64, 72
18, 57359, Note_on_c, 11, 64, 0
18, 57360, Note_on_c, 11, 65, 72
18, 57599, Note_on_c, 11, 65, 0
18, 57840, Note_on_c, 11, 65, 72
18, 58079, Note_on_c, 11, 65, 0
18, 58080, Note_on_c, 11, 65, 72
18, 58319, Note_on_c, 11, 65, 0
18, 58320, Note_on_c, 11, 63, 72
18, 58559, Note_on_c, 11, 63, 0
18, 58560, Note_on_c, 11, 62, 72
18, 58799, Note_on_c, 11, 62, 0
18, 58800, Note_on_c, 11, 70, 72
18, 59039, Note_on_c, 11, 70, 0
18, 59040, Note_on_c, 11, 69, 72
18, 59279, Note_on_c, 11, 69, 0
18, 59280, Note_on_c, 11, 70, 72
18, 59399, Note_on_c, 11, 70, 0
18, 59400, Note_on_c, 11, 69, 72
18, 59519, Note_on_c, 11, 69, 0
18, 59520, Note_on_c, 11, 67, 72
18, 59639, Note_on_c, 11, 67, 0
18, 59640, Note_on_c, 11, 65, 72
18, 59759, Note_on_c, 11, 65, 0
18, 59760, Note_on_c, 11, 63, 72
18, 60239, Note_on_c, 11, 63, 0
18, 60240, Note_on_c, 11, 65, 72
18, 60359, Note_on_c, 11, 65, 0
18, 60360, Note_on_c, 11, 63, 72
18, 60479, Note_on_c, 11, 63, 0
18, 60480, Note_on_c, 11, 62, 72
18, 60599, Note_on_c, 11, 62, 0
18, 60600, Note_on_c, 11, 64, 72
18, 60719, Note_on_c, 11, 64, 0
18, 60720, Note_on_c, 11, 65, 72
18, 60839, Note_on_c, 11, 65, 0
18, 60840, Note_on_c, 11, 67, 72
18, 60959, Note_on_c, 11, 67, 0
18, 60960, Note_on_c, 11, 65, 72
18, 61199, Note_on_c, 11, 65, 0
18, 61440, Note_on_c, 11, 65, 72
18, 61679, Note_on_c, 11, 65, 0
18, 61680, Note_on_c, 11, 65, 72
18, 62399, Note_on_c, 11, 65, 0
18, 62400, Note_on_c, 11, 67, 72
18, 62639, Note_on_c, 11, 67, 0
18, 62640, Note_on_c, 11, 60, 72
18, 62879, Note_on_c, 11, 60, 0
18, 62880, Note_on_c, 11, 60, 72
18, 63119, Note_on_c, 11, 60, 0
18, 63120, Note_on_c, 11, 65, 72
18, 63359, Note_on_c, 11, 65, 0
18, 63360, Note_on_c, 11, 67, 72
18, 63599, Note_on_c, 11, 67, 0
18, 63600, Note_on_c, 11, 69, 72
18, 63839, Note_on_c, 11, 69, 0
18, 63840, Note_on_c, 11, 70, 72
18, 64559, Note_on_c, 11, 70, 0
18, 64560, Note_on_c, 11, 70, 72
18, 64799, Note_on_c, 11, 70, 0
18, 64800, Note_on_c, 11, 72, 72
18, 65279, Note_on_c, 11, 72, 0
18, 65280, Note_on_c, 11, 69, 72
18, 65759, Note_on_c, 11, 69, 0
18, 65760, Note_on_c, 11, 69, 72
18, 65999, Note_on_c, 11, 69, 0
18, 66000, Note_on_c, 11, 70, 72
18, 66239, Note_on_c, 11, 70, 0
18, 66240, Note_on_c, 11, 67, 72
18, 66479, Note_on_c, 11, 67, 0
18, 66480, Note_on_c, 11, 65, 72
18, 66719, Note_on_c, 11, 65, 0
18, 66720, Note_on_c, 11, 65, 72
18, 66959, Note_on_c, 11, 65, 0
18, 66959, End_track
19, 0, Start_track
19, 0, Title_t, "Tenor "
19, 0, MIDI_port, 0
19, 0, Program_c, 12, 70
19, 0, Control_c, 12, 7, 127
19, 0, Control_c, 12, 10, 70
19, 0, Control_c, 12, 11, 127
19, 9480, Note_on_c, 12, 64, 60
19, 9539, Note_on_c, 12, 64, 0
19, 9540, Note_on_c, 12, 64, 60
19, 9599, Note_on_c, 12, 64, 0
19, 9600, Note_on_c, 12, 65, 60
19, 9719, Note_on_c, 12, 65, 0
19, 9720, Note_on_c, 12, 60, 60
19, 9839, Note_on_c, 12, 60, 0
19, 10440, Note_on_c, 12, 64, 60
19, 10559, Note_on_c, 12, 64, 0
19, 10560, Note_on_c, 12, 65, 60
19, 10679, Note_on_c, 12, 65, 0
19, 10680, Note_on_c, 12, 60, 60
19, 10799, Note_on_c, 12, 60, 0
19, 11880, Note_on_c, 12, 65, 60
19, 11939, Note_on_c, 12, 65, 0
19, 11940, Note_on_c, 12, 65, 60
19, 11999, Note_on_c, 12, 65, 0
19, 12000, Note_on_c, 12, 64, 60
19, 12119, Note_on_c, 12, 64, 0
19, 12120, Note_on_c, 12, 67, 60
19, 12239, Note_on_c, 12, 67, 0
19, 12240, Note_on_c, 12, 60, 60
19, 12359, Note_on_c, 12, 60, 0
19, 12360, Note_on_c, 12, 64, 60
19, 12479, Note_on_c, 12, 64, 0
19, 12480, Note_on_c, 12, 65, 60
19, 12719, Note_on_c, 12, 65, 0
19, 12720, Note_on_c, 12, 65, 60
19, 12839, Note_on_c, 12, 65, 0
19, 12840, Note_on_c, 12, 65, 60
19, 12959, Note_on_c, 12, 65, 0
19, 12960, Note_on_c, 12, 65, 60
19, 13199, Note_on_c, 12, 65, 0
19, 13200, Note_on_c, 12, 64, 60
19, 13259, Note_on_c, 12, 64, 0
19, 13260, Note_on_c, 12, 62, 60
19, 13319, Note_on_c, 12, 62, 0
19, 13320, Note_on_c, 12, 60, 60
19, 13379, Note_on_c, 12, 60, 0
19, 13380, Note_on_c, 12, 58, 60
19, 13439, Note_on_c, 12, 58, 0
19, 13440, Note_on_c, 12, 57, 60
19, 13799, Note_on_c, 12, 57, 0
19, 13800, Note_on_c, 12, 58, 60
19, 13919, Note_on_c, 12, 58, 0
19, 13920, Note_on_c, 12, 57, 60
19, 14159, Note_on_c, 12, 57, 0
19, 14280, Note_on_c, 12, 57, 60
19, 14339, Note_on_c, 12, 57, 0
19, 14340, Note_on_c, 12, 57, 60
19, 14399, Note_on_c, 12, 57, 0
19, 14400, Note_on_c, 12, 65, 60
19, 14519, Note_on_c, 12, 65, 0
19, 14520, Note_on_c, 12, 64, 60
19, 14639, Note_on_c, 12, 64, 0
19, 14640, Note_on_c, 12, 62, 60
19, 14759, Note_on_c, 12, 62, 0
19, 14760, Note_on_c, 12, 60, 60
19, 14879, Note_on_c, 12, 60, 0
19, 14880, Note_on_c, 12, 59, 60
19, 14999, Note_on_c, 12, 59, 0
19, 15000, Note_on_c, 12, 60, 60
19, 15119, Note_on_c, 12, 60, 0
19, 15120, Note_on_c, 12, 62, 60
19, 15239, Note_on_c, 12, 62, 0
19, 15240, Note_on_c, 12, 62, 60
19, 15359, Note_on_c, 12, 62, 0
19, 15360, Note_on_c, 12, 67, 60
19, 15539, Note_on_c, 12, 67, 0
19, 15540, Note_on_c, 12, 64, 60
19, 15599, Note_on_c, 12, 64, 0
19, 15600, Note_on_c, 12, 64, 60
19, 15719, Note_on_c, 12, 64, 0
19, 15720, Note_on_c, 12, 62, 60
19, 15779, Note_on_c, 12, 62, 0
19, 15780, Note_on_c, 12, 60, 60
19, 15839, Note_on_c, 12, 60, 0
19, 15840, Note_on_c, 12, 60, 60
19, 15959, Note_on_c, 12, 60, 0
19, 15960, Note_on_c, 12, 57, 60
19, 16079, Note_on_c, 12, 57, 0
19, 16080, Note_on_c, 12, 58, 60
19, 16199, Note_on_c, 12, 58, 0
19, 16200, Note_on_c, 12, 58, 60
19, 16319, Note_on_c, 12, 58, 0
19, 16320, Note_on_c, 12, 57, 60
19, 16679, Note_on_c, 12, 57, 0
19, 16680, Note_on_c, 12, 58, 60
19, 16799, Note_on_c, 12, 58, 0
19, 16800, Note_on_c, 12, 57, 60
19, 17039, Note_on_c, 12, 57, 0
19, 21600, Note_on_c, 12, 57, 60
19, 21959, Note_on_c, 12, 57, 0
19, 21960, Note_on_c, 12, 57, 60
19, 22079, Note_on_c, 12, 57, 0
19, 22080, Note_on_c, 12, 60, 60
19, 22199, Note_on_c, 12, 60, 0
19, 22200, Note_on_c, 12, 57, 60
19, 22319, Note_on_c, 12, 57, 0
19, 22920, Note_on_c, 12, 60, 60
19, 23039, Note_on_c, 12, 60, 0
19, 23040, Note_on_c, 12, 65, 60
19, 23159, Note_on_c, 12, 65, 0
19, 23160, Note_on_c, 12, 60, 60
19, 23279, Note_on_c, 12, 60, 0
19, 23880, Note_on_c, 12, 60, 60
19, 23999, Note_on_c, 12, 60, 0
19, 24000, Note_on_c, 12, 63, 60
19, 24239, Note_on_c, 12, 63, 0
19, 24240, Note_on_c, 12, 62, 60
19, 24359, Note_on_c, 12, 62, 0
19, 24360, Note_on_c, 12, 60, 60
19, 24479, Note_on_c, 12, 60, 0
19, 24480, Note_on_c, 12, 58, 60
19, 24839, Note_on_c, 12, 58, 0
19, 24840, Note_on_c, 12, 62, 60
19, 24899, Note_on_c, 12, 62, 0
19, 24900, Note_on_c, 12, 60, 60
19, 24929, Note_on_c, 12, 60, 0
19, 24930, Note_on_c, 12, 58, 60
19, 24959, Note_on_c, 12, 58, 0
19, 24960, Note_on_c, 12, 57, 60
19, 25199, Note_on_c, 12, 57, 0
19, 28320, Note_on_c, 12, 58, 60
19, 28679, Note_on_c, 12, 58, 0
19, 28680, Note_on_c, 12, 62, 60
19, 28799, Note_on_c, 12, 62, 0
19, 28800, Note_on_c, 12, 65, 60
19, 28859, Note_on_c, 12, 65, 0
19, 28860, Note_on_c, 12, 62, 60
19, 28919, Note_on_c, 12, 62, 0
19, 28920, Note_on_c, 12, 62, 60
19, 29039, Note_on_c, 12, 62, 0
19, 29160, Note_on_c, 12, 62, 60
19, 29279, Note_on_c, 12, 62, 0
19, 29280, Note_on_c, 12, 63, 60
19, 29339, Note_on_c, 12, 63, 0
19, 29340, Note_on_c, 12, 58, 60
19, 29399, Note_on_c, 12, 58, 0
19, 29400, Note_on_c, 12, 58, 60
19, 29519, Note_on_c, 12, 58, 0
19, 29640, Note_on_c, 12, 58, 60
19, 29759, Note_on_c, 12, 58, 0
19, 29760, Note_on_c, 12, 63, 60
19, 29879, Note_on_c, 12, 63, 0
19, 29880, Note_on_c, 12, 67, 60
19, 29999, Note_on_c, 12, 67, 0
19, 30000, Note_on_c, 12, 65, 60
19, 30059, Note_on_c, 12, 65, 0
19, 30060, Note_on_c, 12, 63, 60
19, 30119, Note_on_c, 12, 63, 0
19, 30120, Note_on_c, 12, 62, 60
19, 30179, Note_on_c, 12, 62, 0
19, 30180, Note_on_c, 12, 60, 60
19, 30239, Note_on_c, 12, 60, 0
19, 30240, Note_on_c, 12, 58, 60
19, 30479, Note_on_c, 12, 58, 0
19, 30480, Note_on_c, 12, 56, 60
19, 30659, Note_on_c, 12, 56, 0
19, 30660, Note_on_c, 12, 55, 60
19, 30719, Note_on_c, 12, 55, 0
19, 30720, Note_on_c, 12, 55, 60
19, 30959, Note_on_c, 12, 55, 0
19, 31800, Note_on_c, 12, 58, 60
19, 31859, Note_on_c, 12, 58, 0
19, 31860, Note_on_c, 12, 58, 60
19, 31919, Note_on_c, 12, 58, 0
19, 31920, Note_on_c, 12, 63, 60
19, 32039, Note_on_c, 12, 63, 0
19, 32040, Note_on_c, 12, 58, 60
19, 32159, Note_on_c, 12, 58, 0
19, 32520, Note_on_c, 12, 58, 60
19, 32639, Note_on_c, 12, 58, 0
19, 32640, Note_on_c, 12, 58, 60
19, 32879, Note_on_c, 12, 58, 0
19, 32880, Note_on_c, 12, 59, 60
19, 32999, Note_on_c, 12, 59, 0
19, 33000, Note_on_c, 12, 60, 60
19, 33119, Note_on_c, 12, 60, 0
19, 33120, Note_on_c, 12, 62, 60
19, 33239, Note_on_c, 12, 62, 0
19, 33240, Note_on_c, 12, 60, 60
19, 33299, Note_on_c, 12, 60, 0
19, 33300, Note_on_c, 12, 59, 60
19, 33359, Note_on_c, 12, 59, 0
19, 33360, Note_on_c, 12, 60, 60
19, 33479, Note_on_c, 12, 60, 0
19, 33480, Note_on_c, 12, 59, 60
19, 33599, Note_on_c, 12, 59, 0
19, 33600, Note_on_c, 12, 60, 60
19, 33779, Note_on_c, 12, 60, 0
19, 33780, Note_on_c, 12, 63, 60
19, 33839, Note_on_c, 12, 63, 0
19, 33840, Note_on_c, 12, 63, 60
19, 33959, Note_on_c, 12, 63, 0
19, 33960, Note_on_c, 12, 63, 60
19, 34079, Note_on_c, 12, 63, 0
19, 34080, Note_on_c, 12, 63, 60
19, 34199, Note_on_c, 12, 63, 0
19, 34200, Note_on_c, 12, 62, 60
19, 34259, Note_on_c, 12, 62, 0
19, 34260, Note_on_c, 12, 60, 60
19, 34319, Note_on_c, 12, 60, 0
19, 34320, Note_on_c, 12, 58, 60
19, 34439, Note_on_c, 12, 58, 0
19, 34440, Note_on_c, 12, 60, 60
19, 34559, Note_on_c, 12, 60, 0
19, 34560, Note_on_c, 12, 58, 60
19, 34799, Note_on_c, 12, 58, 0
19, 34800, Note_on_c, 12, 62, 60
19, 34919, Note_on_c, 12, 62, 0
19, 34920, Note_on_c, 12, 65, 60
19, 35039, Note_on_c, 12, 65, 0
19, 35040, Note_on_c, 12, 58, 60
19, 35399, Note_on_c, 12, 58, 0
19, 35400, Note_on_c, 12, 58, 60
19, 35519, Note_on_c, 12, 58, 0
19, 35520, Note_on_c, 12, 60, 60
19, 35759, Note_on_c, 12, 60, 0
19, 35880, Note_on_c, 12, 62, 60
19, 35939, Note_on_c, 12, 62, 0
19, 35940, Note_on_c, 12, 62, 60
19, 35999, Note_on_c, 12, 62, 0
19, 36000, Note_on_c, 12, 63, 60
19, 36179, Note_on_c, 12, 63, 0
19, 36180, Note_on_c, 12, 60, 60
19, 36239, Note_on_c, 12, 60, 0
19, 36240, Note_on_c, 12, 57, 60
19, 36479, Note_on_c, 12, 57, 0
19, 36840, Note_on_c, 12, 62, 60
19, 36959, Note_on_c, 12, 62, 0
19, 36960, Note_on_c, 12, 63, 60
19, 37139, Note_on_c, 12, 63, 0
19, 37140, Note_on_c, 12, 60, 60
19, 37199, Note_on_c, 12, 60, 0
19, 37200, Note_on_c, 12, 57, 60
19, 37439, Note_on_c, 12, 57, 0
19, 37560, Note_on_c, 12, 62, 60
19, 37679, Note_on_c, 12, 62, 0
19, 37680, Note_on_c, 12, 62, 60
19, 37799, Note_on_c, 12, 62, 0
19, 37800, Note_on_c, 12, 60, 60
19, 37859, Note_on_c, 12, 60, 0
19, 37860, Note_on_c, 12, 60, 60
19, 37919, Note_on_c, 12, 60, 0
19, 37920, Note_on_c, 12, 59, 60
19, 38039, Note_on_c, 12, 59, 0
19, 38040, Note_on_c, 12, 60, 60
19, 38099, Note_on_c, 12, 60, 0
19, 38100, Note_on_c, 12, 62, 60
19, 38159, Note_on_c, 12, 62, 0
19, 38160, Note_on_c, 12, 63, 60
19, 38279, Note_on_c, 12, 63, 0
19, 38280, Note_on_c, 12, 62, 60
19, 38399, Note_on_c, 12, 62, 0
19, 38400, Note_on_c, 12, 60, 60
19, 38639, Note_on_c, 12, 60, 0
19, 38640, Note_on_c, 12, 64, 60
19, 38759, Note_on_c, 12, 64, 0
19, 38760, Note_on_c, 12, 67, 60
19, 38879, Note_on_c, 12, 67, 0
19, 38880, Note_on_c, 12, 60, 60
19, 39119, Note_on_c, 12, 60, 0
19, 39120, Note_on_c, 12, 65, 60
19, 39239, Note_on_c, 12, 65, 0
19, 39240, Note_on_c, 12, 65, 60
19, 39359, Note_on_c, 12, 65, 0
19, 39360, Note_on_c, 12, 58, 60
19, 39479, Note_on_c, 12, 58, 0
19, 39480, Note_on_c, 12, 60, 60
19, 39599, Note_on_c, 12, 60, 0
19, 39600, Note_on_c, 12, 61, 60
19, 39719, Note_on_c, 12, 61, 0
19, 39720, Note_on_c, 12, 62, 60
19, 39839, Note_on_c, 12, 62, 0
19, 39840, Note_on_c, 12, 62, 60
19, 39959, Note_on_c, 12, 62, 0
19, 39960, Note_on_c, 12, 63, 60
19, 40079, Note_on_c, 12, 63, 0
19, 40080, Note_on_c, 12, 68, 60
19, 40139, Note_on_c, 12, 68, 0
19, 40140, Note_on_c, 12, 67, 60
19, 40199, Note_on_c, 12, 67, 0
19, 40200, Note_on_c, 12, 65, 60
19, 40259, Note_on_c, 12, 65, 0
19, 40260, Note_on_c, 12, 63, 60
19, 40319, Note_on_c, 12, 63, 0
19, 40320, Note_on_c, 12, 62, 60
19, 40679, Note_on_c, 12, 62, 0
19, 40680, Note_on_c, 12, 63, 60
19, 40799, Note_on_c, 12, 63, 0
19, 40800, Note_on_c, 12, 62, 60
19, 41039, Note_on_c, 12, 62, 0
19, 41160, Note_on_c, 12, 55, 60
19, 41219, Note_on_c, 12, 55, 0
19, 41220, Note_on_c, 12, 55, 60
19, 41279, Note_on_c, 12, 55, 0
19, 41280, Note_on_c, 12, 67, 60
19, 41399, Note_on_c, 12, 67, 0
19, 41400, Note_on_c, 12, 65, 60
19, 41519, Note_on_c, 12, 65, 0
19, 41520, Note_on_c, 12, 64, 60
19, 41639, Note_on_c, 12, 64, 0
19, 41640, Note_on_c, 12, 62, 60
19, 41759, Note_on_c, 12, 62, 0
19, 41760, Note_on_c, 12, 60, 60
19, 41999, Note_on_c, 12, 60, 0
19, 42000, Note_on_c, 12, 64, 60
19, 42119, Note_on_c, 12, 64, 0
19, 42120, Note_on_c, 12, 64, 60
19, 42239, Note_on_c, 12, 64, 0
19, 42240, Note_on_c, 12, 65, 60
19, 42419, Note_on_c, 12, 65, 0
19, 42420, Note_on_c, 12, 57, 60
19, 42479, Note_on_c, 12, 57, 0
19, 42480, Note_on_c, 12, 57, 60
19, 42599, Note_on_c, 12, 57, 0
19, 42600, Note_on_c, 12, 57, 60
19, 42719, Note_on_c, 12, 57, 0
19, 42720, Note_on_c, 12, 58, 60
19, 42959, Note_on_c, 12, 58, 0
19, 42960, Note_on_c, 12, 58, 60
19, 43079, Note_on_c, 12, 58, 0
19, 43080, Note_on_c, 12, 58, 60
19, 43199, Note_on_c, 12, 58, 0
19, 43200, Note_on_c, 12, 62, 60
19, 43559, Note_on_c, 12, 62, 0
19, 43560, Note_on_c, 12, 63, 60
19, 43679, Note_on_c, 12, 63, 0
19, 43680, Note_on_c, 12, 62, 60
19, 43799, Note_on_c, 12, 62, 0
19, 43800, Note_on_c, 12, 62, 72
19, 43859, Note_on_c, 12, 62, 0
19, 43860, Note_on_c, 12, 62, 72
19, 43919, Note_on_c, 12, 62, 0
19, 43920, Note_on_c, 12, 65, 72
19, 44039, Note_on_c, 12, 65, 0
19, 44040, Note_on_c, 12, 62, 72
19, 44159, Note_on_c, 12, 62, 0
19, 44280, Note_on_c, 12, 62, 72
19, 44399, Note_on_c, 12, 62, 0
19, 44400, Note_on_c, 12, 65, 72
19, 44519, Note_on_c, 12, 65, 0
19, 44520, Note_on_c, 12, 62, 72
19, 44639, Note_on_c, 12, 62, 0
19, 44760, Note_on_c, 12, 58, 72
19, 44879, Note_on_c, 12, 58, 0
19, 44880, Note_on_c, 12, 62, 72
19, 44999, Note_on_c, 12, 62, 0
19, 45000, Note_on_c, 12, 58, 72
19, 45119, Note_on_c, 12, 58, 0
19, 45240, Note_on_c, 12, 61, 72
19, 45359, Note_on_c, 12, 61, 0
19, 45360, Note_on_c, 12, 61, 72
19, 45479, Note_on_c, 12, 61, 0
19, 45480, Note_on_c, 12, 61, 72
19, 45539, Note_on_c, 12, 61, 0
19, 45540, Note_on_c, 12, 61, 72
19, 45599, Note_on_c, 12, 61, 0
19, 45600, Note_on_c, 12, 60, 72
19, 45779, Note_on_c, 12, 60, 0
19, 45780, Note_on_c, 12, 65, 72
19, 45839, Note_on_c, 12, 65, 0
19, 45840, Note_on_c, 12, 65, 72
19, 45959, Note_on_c, 12, 65, 0
19, 45960, Note_on_c, 12, 65, 72
19, 46079, Note_on_c, 12, 65, 0
19, 46080, Note_on_c, 12, 65, 72
19, 46319, Note_on_c, 12, 65, 0
19, 46320, Note_on_c, 12, 58, 72
19, 46439, Note_on_c, 12, 58, 0
19, 46440, Note_on_c, 12, 63, 72
19, 46559, Note_on_c, 12, 63, 0
19, 46560, Note_on_c, 12, 62, 72
19, 46919, Note_on_c, 12, 62, 0
19, 46920, Note_on_c, 12, 57, 72
19, 47039, Note_on_c, 12, 57, 0
19, 47040, Note_on_c, 12, 58, 72
19, 47279, Note_on_c, 12, 58, 0
19, 50880, Control_c, 12, 10, 48
19, 51120, Note_on_c, 12, 58, 84
19, 51599, Note_on_c, 12, 58, 0
19, 51600, Note_on_c, 12, 57, 84
19, 51839, Note_on_c, 12, 57, 0
19, 51840, Note_on_c, 12, 63, 84
19, 52319, Note_on_c, 12, 63, 0
19, 52320, Note_on_c, 12, 62, 84
19, 52559, Note_on_c, 12, 62, 0
19, 52560, Note_on_c, 12, 58, 84
19, 52799, Note_on_c, 12, 58, 0
19, 52800, Note_on_c, 12, 65, 84
19, 53039, Note_on_c, 12, 65, 0
19, 53040, Note_on_c, 12, 67, 84
19, 53399, Note_on_c, 12, 67, 0
19, 53400, Note_on_c, 12, 65, 84
19, 53519, Note_on_c, 12, 65, 0
19, 53520, Note_on_c, 12, 63, 84
19, 53639, Note_on_c, 12, 63, 0
19, 53640, Note_on_c, 12, 62, 84
19, 53759, Note_on_c, 12, 62, 0
19, 53760, Note_on_c, 12, 60, 84
19, 53879, Note_on_c, 12, 60, 0
19, 53880, Note_on_c, 12, 58, 84
19, 53999, Note_on_c, 12, 58, 0
19, 54000, Note_on_c, 12, 57, 84
19, 54119, Note_on_c, 12, 57, 0
19, 54120, Note_on_c, 12, 58, 84
19, 54239, Note_on_c, 12, 58, 0
19, 54240, Note_on_c, 12, 55, 84
19, 54359, Note_on_c, 12, 55, 0
19, 54360, Note_on_c, 12, 57, 84
19, 54479, Note_on_c, 12, 57, 0
19, 54480, Note_on_c, 12, 58, 84
19, 54719, Note_on_c, 12, 58, 0
19, 54720, Note_on_c, 12, 55, 84
19, 54959, Note_on_c, 12, 55, 0
19, 54960, Note_on_c, 12, 60, 84
19, 55199, Note_on_c, 12, 60, 0
19, 55200, Note_on_c, 12, 53, 84
19, 55439, Note_on_c, 12, 53, 0
19, 55440, Note_on_c, 12, 55, 84
19, 55679, Note_on_c, 12, 55, 0
19, 55680, Note_on_c, 12, 57, 84
19, 55919, Note_on_c, 12, 57, 0
19, 55920, Note_on_c, 12, 58, 84
19, 56159, Note_on_c, 12, 58, 0
19, 56160, Note_on_c, 12, 60, 84
19, 56399, Note_on_c, 12, 60, 0
19, 56400, Note_on_c, 12, 62, 84
19, 56639, Note_on_c, 12, 62, 0
19, 56640, Note_on_c, 12, 58, 84
19, 57119, Note_on_c, 12, 58, 0
19, 57120, Note_on_c, 12, 60, 84
19, 57479, Note_on_c, 12, 60, 0
19, 57480, Note_on_c, 12, 58, 84
19, 57599, Note_on_c, 12, 58, 0
19, 57600, Note_on_c, 12, 57, 84
19, 57719, Note_on_c, 12, 57, 0
19, 57720, Note_on_c, 12, 58, 84
19, 57839, Note_on_c, 12, 58, 0
19, 57840, Note_on_c, 12, 55, 84
19, 57959, Note_on_c, 12, 55, 0
19, 57960, Note_on_c, 12, 57, 84
19, 58079, Note_on_c, 12, 57, 0
19, 58080, Note_on_c, 12, 58, 84
19, 58319, Note_on_c, 12, 58, 0
19, 58320, Note_on_c, 12, 60, 84
19, 58559, Note_on_c, 12, 60, 0
19, 58560, Note_on_c, 12, 62, 84
19, 58799, Note_on_c, 12, 62, 0
19, 58800, Note_on_c, 12, 63, 84
19, 59039, Note_on_c, 12, 63, 0
19, 59040, Note_on_c, 12, 65, 84
19, 59279, Note_on_c, 12, 65, 0
19, 59280, Note_on_c, 12, 67, 84
19, 59399, Note_on_c, 12, 67, 0
19, 59400, Note_on_c, 12, 65, 84
19, 59519, Note_on_c, 12, 65, 0
19, 59520, Note_on_c, 12, 63, 84
19, 59639, Note_on_c, 12, 63, 0
19, 59640, Note_on_c, 12, 62, 84
19, 59759, Note_on_c, 12, 62, 0
19, 59760, Note_on_c, 12, 60, 84
19, 59879, Note_on_c, 12, 60, 0
19, 59880, Note_on_c, 12, 62, 84
19, 59999, Note_on_c, 12, 62, 0
19, 60000, Note_on_c, 12, 58, 84
19, 60119, Note_on_c, 12, 58, 0
19, 60120, Note_on_c, 12, 60, 84
19, 60239, Note_on_c, 12, 60, 0
19, 60240, Note_on_c, 12, 62, 84
19, 60359, Note_on_c, 12, 62, 0
19, 60360, Note_on_c, 12, 63, 84
19, 60479, Note_on_c, 12, 63, 0
19, 60480, Note_on_c, 12, 65, 84
19, 60599, Note_on_c, 12, 65, 0
19, 60600, Note_on_c, 12, 67, 84
19, 60719, Note_on_c, 12, 67, 0
19, 60720, Note_on_c, 12, 62, 84
19, 60839, Note_on_c, 12, 62, 0
19, 60840, Note_on_c, 12, 64, 84
19, 60959, Note_on_c, 12, 64, 0
19, 60960, Note_on_c, 12, 65, 84
19, 61439, Note_on_c, 12, 65, 0
19, 61440, Note_on_c, 12, 63, 84
19, 61679, Note_on_c, 12, 63, 0
19, 61680, Note_on_c, 12, 62, 84
19, 61919, Note_on_c, 12, 62, 0
19, 62640, Note_on_c, 12, 58, 84
19, 63119, Note_on_c, 12, 58, 0
19, 63120, Note_on_c, 12, 57, 84
19, 63359, Note_on_c, 12, 57, 0
19, 63360, Note_on_c, 12, 63, 84
19, 63839, Note_on_c, 12, 63, 0
19, 63840, Note_on_c, 12, 62, 84
19, 64079, Note_on_c, 12, 62, 0
19, 64080, Note_on_c, 12, 58, 84
19, 64319, Note_on_c, 12, 58, 0
19, 64320, Note_on_c, 12, 65, 84
19, 64559, Note_on_c, 12, 65, 0
19, 64560, Note_on_c, 12, 67, 84
19, 65039, Note_on_c, 12, 67, 0
19, 65040, Note_on_c, 12, 63, 84
19, 65279, Note_on_c, 12, 63, 0
19, 65280, Note_on_c, 12, 63, 84
19, 65759, Note_on_c, 12, 63, 0
19, 65760, Note_on_c, 12, 60, 84
19, 65999, Note_on_c, 12, 60, 0
19, 66000, Note_on_c, 12, 58, 84
19, 66479, Note_on_c, 12, 58, 0
19, 66480, Note_on_c, 12, 57, 84
19, 66719, Note_on_c, 12, 57, 0
19, 66720, Note_on_c, 12, 58, 84
19, 66959, Note_on_c, 12, 58, 0
19, 66959, End_track
20, 0, Start_track
20, 0, Title_t, "Bass "
20, 0, MIDI_port, 0
20, 0, Program_c, 13, 60
20, 0, Control_c, 13, 7, 127
20, 0, Control_c, 13, 10, 80
20, 0, Control_c, 13, 11, 127
20, 9000, Note_on_c, 13, 53, 60
20, 9059, Note_on_c, 13, 53, 0
20, 9060, Note_on_c, 13, 53, 60
20, 9119, Note_on_c, 13, 53, 0
20, 9120, Note_on_c, 13, 52, 60
20, 9239, Note_on_c, 13, 52, 0
20, 9240, Note_on_c, 13, 55, 60
20, 9359, Note_on_c, 13, 55, 0
20, 9360, Note_on_c, 13, 48, 60
20, 9479, Note_on_c, 13, 48, 0
20, 9960, Note_on_c, 13, 53, 60
20, 10079, Note_on_c, 13, 53, 0
20, 10080, Note_on_c, 13, 52, 60
20, 10199, Note_on_c, 13, 52, 0
20, 10200, Note_on_c, 13, 55, 60
20, 10319, Note_on_c, 13, 55, 0
20, 10320, Note_on_c, 13, 48, 60
20, 10439, Note_on_c, 13, 48, 0
20, 10680, Note_on_c, 13, 57, 60
20, 10799, Note_on_c, 13, 57, 0
20, 10800, Note_on_c, 13, 53, 60
20, 10919, Note_on_c, 13, 53, 0
20, 10920, Note_on_c, 13, 51, 60
20, 10979, Note_on_c, 13, 51, 0
20, 10980, Note_on_c, 13, 51, 60
20, 11039, Note_on_c, 13, 51, 0
20, 11040, Note_on_c, 13, 50, 60
20, 11399, Note_on_c, 13, 50, 0
20, 11400, Note_on_c, 13, 50, 60
20, 11519, Note_on_c, 13, 50, 0
20, 11520, Note_on_c, 13, 55, 60
20, 11759, Note_on_c, 13, 55, 0
20, 11760, Note_on_c, 13, 55, 60
20, 11879, Note_on_c, 13, 55, 0
20, 11880, Note_on_c, 13, 55, 60
20, 11999, Note_on_c, 13, 55, 0
20, 12000, Note_on_c, 13, 48, 60
20, 12239, Note_on_c, 13, 48, 0
20, 12240, Note_on_c, 13, 48, 60
20, 12359, Note_on_c, 13, 48, 0
20, 12360, Note_on_c, 13, 48, 60
20, 12479, Note_on_c, 13, 48, 0
20, 12480, Note_on_c, 13, 53, 60
20, 12719, Note_on_c, 13, 53, 0
20, 12720, Note_on_c, 13, 53, 60
20, 12839, Note_on_c, 13, 53, 0
20, 12840, Note_on_c, 13, 53, 60
20, 12959, Note_on_c, 13, 53, 0
20, 12960, Note_on_c, 13, 46, 60
20, 13199, Note_on_c, 13, 46, 0
20, 13200, Note_on_c, 13, 46, 60
20, 13319, Note_on_c, 13, 46, 0
20, 13320, Note_on_c, 13, 46, 60
20, 13439, Note_on_c, 13, 46, 0
20, 13440, Note_on_c, 13, 48, 60
20, 13799, Note_on_c, 13, 48, 0
20, 13800, Note_on_c, 13, 49, 60
20, 13919, Note_on_c, 13, 49, 0
20, 13920, Note_on_c, 13, 50, 60
20, 14159, Note_on_c, 13, 50, 0
20, 14280, Note_on_c, 13, 50, 60
20, 14339, Note_on_c, 13, 50, 0
20, 14340, Note_on_c, 13, 50, 60
20, 14399, Note_on_c, 13, 50, 0
20, 14400, Note_on_c, 13, 62, 60
20, 14519, Note_on_c, 13, 62, 0
20, 14520, Note_on_c, 13, 60, 60
20, 14639, Note_on_c, 13, 60, 0
20, 14640, Note_on_c, 13, 59, 60
20, 14759, Note_on_c, 13, 59, 0
20, 14760, Note_on_c, 13, 57, 60
20, 14879, Note_on_c, 13, 57, 0
20, 14880, Note_on_c, 13, 55, 60
20, 15119, Note_on_c, 13, 55, 0
20, 15120, Note_on_c, 13, 55, 60
20, 15239, Note_on_c, 13, 55, 0
20, 15240, Note_on_c, 13, 55, 60
20, 15359, Note_on_c, 13, 55, 0
20, 15360, Note_on_c, 13, 48, 60
20, 15599, Note_on_c, 13, 48, 0
20, 15600, Note_on_c, 13, 48, 60
20, 15719, Note_on_c, 13, 48, 0
20, 15720, Note_on_c, 13, 52, 60
20, 15839, Note_on_c, 13, 52, 0
20, 15840, Note_on_c, 13, 53, 60
20, 15959, Note_on_c, 13, 53, 0
20, 15960, Note_on_c, 13, 51, 60
20, 16079, Note_on_c, 13, 51, 0
20, 16080, Note_on_c, 13, 50, 60
20, 16199, Note_on_c, 13, 50, 0
20, 16200, Note_on_c, 13, 46, 60
20, 16319, Note_on_c, 13, 46, 0
20, 16320, Note_on_c, 13, 48, 60
20, 16679, Note_on_c, 13, 48, 0
20, 16680, Note_on_c, 13, 48, 60
20, 16799, Note_on_c, 13, 48, 0
20, 16800, Note_on_c, 13, 45, 60
20, 17039, Note_on_c, 13, 45, 0
20, 21120, Note_on_c, 13, 53, 60
20, 21479, Note_on_c, 13, 53, 0
20, 21480, Note_on_c, 13, 53, 60
20, 21599, Note_on_c, 13, 53, 0
20, 21600, Note_on_c, 13, 57, 60
20, 21719, Note_on_c, 13, 57, 0
20, 21720, Note_on_c, 13, 53, 60
20, 21839, Note_on_c, 13, 53, 0
20, 22440, Note_on_c, 13, 57, 60
20, 22559, Note_on_c, 13, 57, 0
20, 22560, Note_on_c, 13, 60, 60
20, 22679, Note_on_c, 13, 60, 0
20, 22680, Note_on_c, 13, 57, 60
20, 22799, Note_on_c, 13, 57, 0
20, 23400, Note_on_c, 13, 60, 60
20, 23519, Note_on_c, 13, 60, 0
20, 23520, Note_on_c, 13, 63, 60
20, 23759, Note_on_c, 13, 63, 0
20, 23760, Note_on_c, 13, 60, 60
20, 23879, Note_on_c, 13, 60, 0
20, 23880, Note_on_c, 13, 58, 60
20, 23999, Note_on_c, 13, 58, 0
20, 24000, Note_on_c, 13, 57, 60
20, 24479, Note_on_c, 13, 57, 0
20, 24480, Note_on_c, 13, 58, 60
20, 24719, Note_on_c, 13, 58, 0
20, 24720, Note_on_c, 13, 55, 60
20, 24839, Note_on_c, 13, 55, 0
20, 24840, Note_on_c, 13, 51, 60
20, 24959, Note_on_c, 13, 51, 0
20, 24960, Note_on_c, 13, 53, 60
20, 25199, Note_on_c, 13, 53, 0
20, 25920, Note_on_c, 13, 53, 60
20, 26279, Note_on_c, 13, 53, 0
20, 26280, Note_on_c, 13, 62, 60
20, 26399, Note_on_c, 13, 62, 0
20, 26400, Note_on_c, 13, 60, 60
20, 26459, Note_on_c, 13, 60, 0
20, 26460, Note_on_c, 13, 57, 60
20, 26519, Note_on_c, 13, 57, 0
20, 26520, Note_on_c, 13, 58, 60
20, 26639, Note_on_c, 13, 58, 0
20, 26760, Note_on_c, 13, 62, 60
20, 26879, Note_on_c, 13, 62, 0
20, 26880, Note_on_c, 13, 60, 60
20, 26939, Note_on_c, 13, 60, 0
20, 26940, Note_on_c, 13, 57, 60
20, 26999, Note_on_c, 13, 57, 0
20, 27000, Note_on_c, 13, 58, 60
20, 27119, Note_on_c, 13, 58, 0
20, 27240, Note_on_c, 13, 58, 60
20, 27329, Note_on_c, 13, 58, 0
20, 27330, Note_on_c, 13, 60, 60
20, 27359, Note_on_c, 13, 60, 0
20, 27360, Note_on_c, 13, 58, 60
20, 27479, Note_on_c, 13, 58, 0
20, 27480, Note_on_c, 13, 57, 60
20, 27539, Note_on_c, 13, 57, 0
20, 27540, Note_on_c, 13, 58, 60
20, 27599, Note_on_c, 13, 58, 0
20, 27600, Note_on_c, 13, 60, 60
20, 27659, Note_on_c, 13, 60, 0
20, 27660, Note_on_c, 13, 58, 60
20, 27719, Note_on_c, 13, 58, 0
20, 27720, Note_on_c, 13, 57, 60
20, 27779, Note_on_c, 13, 57, 0
20, 27780, Note_on_c, 13, 55, 60
20, 27839, Note_on_c, 13, 55, 0
20, 27840, Note_on_c, 13, 53, 60
20, 28079, Note_on_c, 13, 53, 0
20, 28080, Note_on_c, 13, 51, 60
20, 28259, Note_on_c, 13, 51, 0
20, 28260, Note_on_c, 13, 50, 60
20, 28319, Note_on_c, 13, 50, 0
20, 28320, Note_on_c, 13, 50, 60
20, 28559, Note_on_c, 13, 50, 0
20, 32520, Note_on_c, 13, 56, 60
20, 32579, Note_on_c, 13, 56, 0
20, 32580, Note_on_c, 13, 56, 60
20, 32639, Note_on_c, 13, 56, 0
20, 32640, Note_on_c, 13, 55, 60
20, 32759, Note_on_c, 13, 55, 0
20, 32760, Note_on_c, 13, 51, 60
20, 32879, Note_on_c, 13, 51, 0
20, 32880, Note_on_c, 13, 50, 60
20, 32999, Note_on_c, 13, 50, 0
20, 33000, Note_on_c, 13, 48, 60
20, 33119, Note_on_c, 13, 48, 0
20, 33120, Note_on_c, 13, 47, 60
20, 33239, Note_on_c, 13, 47, 0
20, 33240, Note_on_c, 13, 50, 60
20, 33359, Note_on_c, 13, 50, 0
20, 33360, Note_on_c, 13, 43, 60
20, 33479, Note_on_c, 13, 43, 0
20, 33480, Note_on_c, 13, 53, 60
20, 33599, Note_on_c, 13, 53, 0
20, 33600, Note_on_c, 13, 51, 60
20, 33719, Note_on_c, 13, 51, 0
20, 33720, Note_on_c, 13, 55, 60
20, 33839, Note_on_c, 13, 55, 0
20, 33840, Note_on_c, 13, 48, 60
20, 33959, Note_on_c, 13, 48, 0
20, 33960, Note_on_c, 13, 58, 60
20, 34079, Note_on_c, 13, 58, 0
20, 34080, Note_on_c, 13, 57, 60
20, 34199, Note_on_c, 13, 57, 0
20, 34200, Note_on_c, 13, 60, 60
20, 34319, Note_on_c, 13, 60, 0
20, 34320, Note_on_c, 13, 53, 60
20, 34439, Note_on_c, 13, 53, 0
20, 34440, Note_on_c, 13, 57, 60
20, 34559, Note_on_c, 13, 57, 0
20, 34560, Note_on_c, 13, 58, 60
20, 34679, Note_on_c, 13, 58, 0
20, 34680, Note_on_c, 13, 62, 60
20, 34799, Note_on_c, 13, 62, 0
20, 34800, Note_on_c, 13, 58, 60
20, 34919, Note_on_c, 13, 58, 0
20, 34920, Note_on_c, 13, 57, 60
20, 35039, Note_on_c, 13, 57, 0
20, 35040, Note_on_c, 13, 55, 60
20, 35399, Note_on_c, 13, 55, 0
20, 35400, Note_on_c, 13, 55, 60
20, 35519, Note_on_c, 13, 55, 0
20, 35520, Note_on_c, 13, 53, 60
20, 35759, Note_on_c, 13, 53, 0
20, 36360, Note_on_c, 13, 57, 60
20, 36419, Note_on_c, 13, 57, 0
20, 36420, Note_on_c, 13, 57, 60
20, 36479, Note_on_c, 13, 57, 0
20, 36480, Note_on_c, 13, 58, 60
20, 36599, Note_on_c, 13, 58, 0
20, 36600, Note_on_c, 13, 46, 60
20, 36719, Note_on_c, 13, 46, 0
20, 37320, Note_on_c, 13, 57, 60
20, 37439, Note_on_c, 13, 57, 0
20, 37440, Note_on_c, 13, 58, 60
20, 37559, Note_on_c, 13, 58, 0
20, 37560, Note_on_c, 13, 46, 60
20, 37679, Note_on_c, 13, 46, 0
20, 37800, Note_on_c, 13, 56, 60
20, 37919, Note_on_c, 13, 56, 0
20, 37920, Note_on_c, 13, 55, 60
20, 38159, Note_on_c, 13, 55, 0
20, 38160, Note_on_c, 13, 55, 60
20, 38279, Note_on_c, 13, 55, 0
20, 38280, Note_on_c, 13, 55, 60
20, 38399, Note_on_c, 13, 55, 0
20, 38400, Note_on_c, 13, 60, 60
20, 38459, Note_on_c, 13, 60, 0
20, 38460, Note_on_c, 13, 48, 60
20, 38519, Note_on_c, 13, 48, 0
20, 38520, Note_on_c, 13, 48, 60
20, 38639, Note_on_c, 13, 48, 0
20, 38760, Note_on_c, 13, 58, 60
20, 38819, Note_on_c, 13, 58, 0
20, 38820, Note_on_c, 13, 58, 60
20, 38879, Note_on_c, 13, 58, 0
20, 38880, Note_on_c, 13, 57, 60
20, 38999, Note_on_c, 13, 57, 0
20, 39000, Note_on_c, 13, 60, 60
20, 39119, Note_on_c, 13, 60, 0
20, 39120, Note_on_c, 13, 53, 60
20, 39239, Note_on_c, 13, 53, 0
20, 39240, Note_on_c, 13, 57, 60
20, 39359, Note_on_c, 13, 57, 0
20, 39360, Note_on_c, 13, 58, 60
20, 39599, Note_on_c, 13, 58, 0
20, 39600, Note_on_c, 13, 46, 60
20, 39719, Note_on_c, 13, 46, 0
20, 39720, Note_on_c, 13, 46, 60
20, 39839, Note_on_c, 13, 46, 0
20, 39840, Note_on_c, 13, 51, 60
20, 40079, Note_on_c, 13, 51, 0
20, 40080, Note_on_c, 13, 51, 60
20, 40199, Note_on_c, 13, 51, 0
20, 40200, Note_on_c, 13, 51, 60
20, 40319, Note_on_c, 13, 51, 0
20, 40320, Note_on_c, 13, 53, 60
20, 40679, Note_on_c, 13, 53, 0
20, 40680, Note_on_c, 13, 54, 60
20, 40799, Note_on_c, 13, 54, 0
20, 40800, Note_on_c, 13, 55, 60
20, 40919, Note_on_c, 13, 55, 0
20, 40920, Note_on_c, 13, 55, 60
20, 40979, Note_on_c, 13, 55, 0
20, 40980, Note_on_c, 13, 55, 60
20, 41039, Note_on_c, 13, 55, 0
20, 41040, Note_on_c, 13, 58, 60
20, 41159, Note_on_c, 13, 58, 0
20, 41160, Note_on_c, 13, 55, 60
20, 41279, Note_on_c, 13, 55, 0
20, 42120, Note_on_c, 13, 48, 60
20, 42239, Note_on_c, 13, 48, 0
20, 42240, Note_on_c, 13, 53, 60
20, 42479, Note_on_c, 13, 53, 0
20, 42480, Note_on_c, 13, 53, 60
20, 42599, Note_on_c, 13, 53, 0
20, 42600, Note_on_c, 13, 53, 60
20, 42719, Note_on_c, 13, 53, 0
20, 42720, Note_on_c, 13, 58, 60
20, 42839, Note_on_c, 13, 58, 0
20, 42840, Note_on_c, 13, 56, 60
20, 42959, Note_on_c, 13, 56, 0
20, 42960, Note_on_c, 13, 55, 60
20, 43079, Note_on_c, 13, 55, 0
20, 43080, Note_on_c, 13, 51, 60
20, 43199, Note_on_c, 13, 51, 0
20, 43200, Note_on_c, 13, 53, 60
20, 43559, Note_on_c, 13, 53, 0
20, 43560, Note_on_c, 13, 53, 60
20, 43679, Note_on_c, 13, 53, 0
20, 43680, Note_on_c, 13, 46, 60
20, 43799, Note_on_c, 13, 46, 0
20, 43800, Note_on_c, 13, 58, 72
20, 43859, Note_on_c, 13, 58, 0
20, 43860, Note_on_c, 13, 58, 72
20, 43919, Note_on_c, 13, 58, 0
20, 43920, Note_on_c, 13, 62, 72
20, 44039, Note_on_c, 13, 62, 0
20, 44040, Note_on_c, 13, 58, 72
20, 44159, Note_on_c, 13, 58, 0
20, 44280, Note_on_c, 13, 58, 72
20, 44399, Note_on_c, 13, 58, 0
20, 44400, Note_on_c, 13, 62, 72
20, 44519, Note_on_c, 13, 62, 0
20, 44520, Note_on_c, 13, 58, 72
20, 44639, Note_on_c, 13, 58, 0
20, 44760, Note_on_c, 13, 55, 72
20, 44879, Note_on_c, 13, 55, 0
20, 44880, Note_on_c, 13, 58, 72
20, 44999, Note_on_c, 13, 58, 0
20, 45000, Note_on_c, 13, 55, 72
20, 45119, Note_on_c, 13, 55, 0
20, 45240, Note_on_c, 13, 52, 72
20, 45359, Note_on_c, 13, 52, 0
20, 45360, Note_on_c, 13, 52, 72
20, 45479, Note_on_c, 13, 52, 0
20, 45480, Note_on_c, 13, 52, 72
20, 45539, Note_on_c, 13, 52, 0
20, 45540, Note_on_c, 13, 52, 72
20, 45599, Note_on_c, 13, 52, 0
20, 45600, Note_on_c, 13, 51, 72
20, 45779, Note_on_c, 13, 51, 0
20, 45780, Note_on_c, 13, 51, 72
20, 45839, Note_on_c, 13, 51, 0
20, 45840, Note_on_c, 13, 51, 72
20, 45959, Note_on_c, 13, 51, 0
20, 45960, Note_on_c, 13, 51, 72
20, 46079, Note_on_c, 13, 51, 0
20, 46080, Note_on_c, 13, 50, 72
20, 46319, Note_on_c, 13, 50, 0
20, 46320, Note_on_c, 13, 51, 72
20, 46439, Note_on_c, 13, 51, 0
20, 46440, Note_on_c, 13, 51, 72
20, 46559, Note_on_c, 13, 51, 0
20, 46560, Note_on_c, 13, 53, 72
20, 46919, Note_on_c, 13, 53, 0
20, 46920, Note_on_c, 13, 53, 72
20, 47039, Note_on_c, 13, 53, 0
20, 47040, Note_on_c, 13, 46, 72
20, 47279, Note_on_c, 13, 46, 0
20, 59760, Note_on_c, 13, 53, 84
20, 60239, Note_on_c, 13, 53, 0
20, 60240, Note_on_c, 13, 50, 84
20, 60479, Note_on_c, 13, 50, 0
20, 60480, Note_on_c, 13, 58, 84
20, 60959, Note_on_c, 13, 58, 0
20, 60960, Note_on_c, 13, 57, 84
20, 61199, Note_on_c, 13, 57, 0
20, 61200, Note_on_c, 13, 53, 84
20, 61439, Note_on_c, 13, 53, 0
20, 61440, Note_on_c, 13, 60, 84
20, 61679, Note_on_c, 13, 60, 0
20, 61680, Note_on_c, 13, 62, 84
20, 62039, Note_on_c, 13, 62, 0
20, 62040, Note_on_c, 13, 60, 84
20, 62159, Note_on_c, 13, 60, 0
20, 62160, Note_on_c, 13, 58, 84
20, 62279, Note_on_c, 13, 58, 0
20, 62280, Note_on_c, 13, 57, 84
20, 62399, Note_on_c, 13, 57, 0
20, 62400, Note_on_c, 13, 55, 84
20, 62519, Note_on_c, 13, 55, 0
20, 62520, Note_on_c, 13, 53, 84
20, 62639, Note_on_c, 13, 53, 0
20, 62640, Note_on_c, 13, 52, 84
20, 62759, Note_on_c, 13, 52, 0
20, 62760, Note_on_c, 13, 53, 84
20, 62879, Note_on_c, 13, 53, 0
20, 62880, Note_on_c, 13, 50, 84
20, 62999, Note_on_c, 13, 50, 0
20, 63000, Note_on_c, 13, 52, 84
20, 63119, Note_on_c, 13, 52, 0
20, 63120, Note_on_c, 13, 53, 84
20, 63239, Note_on_c, 13, 53, 0
20, 63240, Note_on_c, 13, 51, 84
20, 63359, Note_on_c, 13, 51, 0
20, 63360, Note_on_c, 13, 50, 84
20, 63479, Note_on_c, 13, 50, 0
20, 63480, Note_on_c, 13, 51, 84
20, 63599, Note_on_c, 13, 51, 0
20, 63600, Note_on_c, 13, 48, 84
20, 63719, Note_on_c, 13, 48, 0
20, 63720, Note_on_c, 13, 50, 84
20, 63839, Note_on_c, 13, 50, 0
20, 63840, Note_on_c, 13, 46, 84
20, 64319, Note_on_c, 13, 46, 0
20, 64320, Note_on_c, 13, 58, 84
20, 64559, Note_on_c, 13, 58, 0
20, 64560, Note_on_c, 13, 51, 84
20, 65039, Note_on_c, 13, 51, 0
20, 65040, Note_on_c, 13, 51, 84
20, 65279, Note_on_c, 13, 51, 0
20, 65280, Note_on_c, 13, 53, 84
20, 65759, Note_on_c, 13, 53, 0
20, 65760, Note_on_c, 13, 53, 84
20, 65999, Note_on_c, 13, 53, 0
20, 66000, Note_on_c, 13, 55, 84
20, 66239, Note_on_c, 13, 55, 0
20, 66240, Note_on_c, 13, 51, 84
20, 66479, Note_on_c, 13, 51, 0
20, 66480, Note_on_c, 13, 53, 84
20, 66719, Note_on_c, 13, 53, 0
20, 66720, Note_on_c, 13, 46, 84
20, 66959, Note_on_c, 13, 46, 0
20, 66959, End_track
0, 0, End_of_file