0, 0, Header, 1, 12, 480
1, 0, Start_track
1, 0, Title_t, "untitled"
1, 0, Time_signature, 4, 2, 24, 8
1, 0, Key_signature, 0, "major"
1, 0, Tempo, 895522
1, 480, Tempo, 909091
1, 960, Tempo, 923077
1, 1440, Tempo, 952381
1, 1920, Tempo, 895522
1, 7680, Tempo, 909091
1, 8160, Tempo, 923077
1, 8640, Tempo, 937500
1, 9120, Tempo, 952381
1, 9600, Tempo, 895522
1, 15840, Tempo, 909091
1, 16320, Tempo, 923077
1, 16800, Tempo, 952381
1, 17280, Tempo, 895522
1, 23040, Tempo, 909091
1, 23520, Tempo, 923077
1, 24000, Tempo, 937500
1, 24480, Tempo, 952381
1, 24960, Tempo, 895522
1, 30720, Tempo, 909091
1, 32640, Tempo, 895522
1, 34560, Tempo, 909091
1, 36480, Tempo, 895522
1, 36960, Tempo, 909091
1, 37440, Tempo, 923077
1, 37920, Tempo, 923077
1, 38400, Tempo, 895522
1, 49920, Tempo, 909091
1, 51840, Tempo, 895522
1, 52320, Tempo, 909091
1, 52800, Tempo, 923077
1, 53280, Tempo, 923077
1, 53760, Tempo, 895522
1, 61440, Tempo, 821918
1, 94560, Tempo, 857143
1, 95040, Tempo, 882353
1, 95520, Tempo, 909091
1, 96000, Tempo, 937500
1, 97920, Tempo, 895522
1, 111360, Tempo, 810811
1, 140640, Tempo, 821918
1, 141120, Tempo, 833333
1, 141600, Tempo, 845070
1, 142080, Time_signature, 2, 2, 24, 8
1, 142080, Tempo, 923077
1, 142320, Tempo, 952381
1, 142560, Tempo, 1000000
1, 142800, Tempo, 1034483
1, 143040, Tempo, 937500
1, 144000, Time_signature, 4, 2, 24, 8
1, 144000, Tempo, 895522
1, 163680, Tempo, 909091
1, 164160, Tempo, 923077
1, 164640, Tempo, 923077
1, 165120, Tempo, 895522
1, 172800, Tempo, 937500
1, 175200, Tempo, 952381
1, 175680, Tempo, 967742
1, 176160, Tempo, 983607
1, 176640, Tempo, 937500
1, 184320, Tempo, 1000000
1, 184800, Tempo, 1034483
1, 185280, Tempo, 1071429
1, 185760, Tempo, 1111111
1, 186240, Tempo, 1153846
1, 186720, Tempo, 1200000
1, 187200, Tempo, 1250000
1, 187680, Tempo, 1276596
1, 188160, Tempo, 937500
1, 188160, End_track
2, 0, Start_track
2, 0, Program_c, 0, 48
2, 0, Control_c, 0, 7, 127
2, 0, Control_c, 0, 10, 29
2, 0, Control_c, 0, 91, 80
2, 960, Note_on_c, 0, 76, 72
2, 960, Control_c, 0, 10, 28
2, 1152, Note_on_c, 0, 76, 0
2, 1440, Note_on_c, 0, 76, 72
2, 1632, Note_on_c, 0, 76, 0
2, 1920, Note_on_c, 0, 76, 72
2, 2640, Note_on_c, 0, 76, 0
2, 2640, Note_on_c, 0, 79, 72
2, 2832, Note_on_c, 0, 79, 0
2, 2880, Note_on_c, 0, 77, 72
2, 3120, Note_on_c, 0, 77, 0
2, 3120, Note_on_c, 0, 74, 72
2, 3360, Note_on_c, 0, 74, 0
2, 3360, Note_on_c, 0, 77, 72
2, 3600, Note_on_c, 0, 77, 0
2, 3600, Note_on_c, 0, 81, 72
2, 3792, Note_on_c, 0, 81, 0
2, 3840, Note_on_c, 0, 79, 72
2, 4200, Note_on_c, 0, 79, 0
2, 4200, Note_on_c, 0, 76, 72
2, 4320, Note_on_c, 0, 76, 0
2, 4320, Note_on_c, 0, 79, 72
2, 4512, Note_on_c, 0, 79, 0
2, 4800, Note_on_c, 0, 84, 72
2, 4944, Note_on_c, 0, 84, 0
2, 5040, Note_on_c, 0, 84, 72
2, 5520, Note_on_c, 0, 84, 0
2, 5520, Note_on_c, 0, 83, 72
2, 5712, Note_on_c, 0, 83, 0
2, 5760, Note_on_c, 0, 81, 72
2, 5904, Note_on_c, 0, 81, 0
2, 6000, Note_on_c, 0, 81, 72
2, 6480, Note_on_c, 0, 81, 0
2, 6480, Note_on_c, 0, 79, 72
2, 6672, Note_on_c, 0, 79, 0
2, 6720, Note_on_c, 0, 79, 72
2, 6960, Note_on_c, 0, 79, 0
2, 6960, Note_on_c, 0, 77, 72
2, 7056, Note_on_c, 0, 77, 0
2, 7200, Note_on_c, 0, 77, 72
2, 7440, Note_on_c, 0, 77, 0
2, 7440, Note_on_c, 0, 76, 72
2, 7536, Note_on_c, 0, 76, 0
2, 7680, Note_on_c, 0, 79, 72
2, 8040, Note_on_c, 0, 79, 0
2, 8040, Note_on_c, 0, 76, 72
2, 8160, Note_on_c, 0, 76, 0
2, 8160, Note_on_c, 0, 74, 72
2, 8352, Note_on_c, 0, 74, 0
2, 8640, Note_on_c, 0, 76, 105
2, 8832, Note_on_c, 0, 76, 0
2, 9120, Note_on_c, 0, 76, 105
2, 9312, Note_on_c, 0, 76, 0
2, 9600, Note_on_c, 0, 76, 105
2, 10320, Note_on_c, 0, 76, 0
2, 10320, Note_on_c, 0, 79, 105
2, 10512, Note_on_c, 0, 79, 0
2, 10560, Note_on_c, 0, 77, 105
2, 10800, Note_on_c, 0, 77, 0
2, 10800, Note_on_c, 0, 74, 105
2, 11040, Note_on_c, 0, 74, 0
2, 11040, Note_on_c, 0, 77, 105
2, 11280, Note_on_c, 0, 77, 0
2, 11280, Note_on_c, 0, 81, 105
2, 11472, Note_on_c, 0, 81, 0
2, 11520, Note_on_c, 0, 79, 105
2, 11880, Note_on_c, 0, 79, 0
2, 11880, Note_on_c, 0, 76, 105
2, 12000, Note_on_c, 0, 76, 0
2, 12000, Note_on_c, 0, 79, 105
2, 12192, Note_on_c, 0, 79, 0
2, 12480, Note_on_c, 0, 84, 105
2, 12720, Note_on_c, 0, 84, 0
2, 12720, Note_on_c, 0, 79, 105
2, 12816, Note_on_c, 0, 79, 0
2, 12960, Note_on_c, 0, 79, 105
2, 13200, Note_on_c, 0, 79, 0
2, 13200, Note_on_c, 0, 76, 105
2, 13296, Note_on_c, 0, 76, 0
2, 13440, Note_on_c, 0, 74, 105
2, 13680, Note_on_c, 0, 74, 0
2, 13680, Note_on_c, 0, 81, 105
2, 13872, Note_on_c, 0, 81, 0
2, 13920, Note_on_c, 0, 79, 105
2, 14040, Note_on_c, 0, 79, 0
2, 14040, Note_on_c, 0, 77, 105
2, 14160, Note_on_c, 0, 77, 0
2, 14160, Note_on_c, 0, 76, 105
2, 14280, Note_on_c, 0, 76, 0
2, 14280, Note_on_c, 0, 74, 105
2, 14376, Note_on_c, 0, 74, 0
2, 14400, Note_on_c, 0, 72, 105
2, 14784, Note_on_c, 0, 72, 0
2, 14880, Note_on_c, 0, 76, 105
2, 15000, Note_on_c, 0, 76, 0
2, 15000, Note_on_c, 0, 74, 105
2, 15120, Note_on_c, 0, 74, 0
2, 15120, Note_on_c, 0, 72, 105
2, 15240, Note_on_c, 0, 72, 0
2, 15240, Note_on_c, 0, 74, 105
2, 15348, Note_on_c, 0, 74, 0
2, 15360, Note_on_c, 0, 72, 92
2, 15744, Note_on_c, 0, 72, 0
2, 16320, Note_on_c, 0, 76, 72
2, 16512, Note_on_c, 0, 76, 0
2, 16800, Note_on_c, 0, 76, 72
2, 16992, Note_on_c, 0, 76, 0
2, 17280, Note_on_c, 0, 76, 72
2, 18000, Note_on_c, 0, 76, 0
2, 18000, Note_on_c, 0, 79, 72
2, 18192, Note_on_c, 0, 79, 0
2, 18240, Note_on_c, 0, 77, 72
2, 18480, Note_on_c, 0, 77, 0
2, 18480, Note_on_c, 0, 74, 72
2, 18720, Note_on_c, 0, 74, 0
2, 18720, Note_on_c, 0, 77, 72
2, 18960, Note_on_c, 0, 77, 0
2, 18960, Note_on_c, 0, 81, 72
2, 19152, Note_on_c, 0, 81, 0
2, 19200, Note_on_c, 0, 79, 72
2, 19560, Note_on_c, 0, 79, 0
2, 19560, Note_on_c, 0, 76, 72
2, 19680, Note_on_c, 0, 76, 0
2, 19680, Note_on_c, 0, 79, 72
2, 19872, Note_on_c, 0, 79, 0
2, 20160, Note_on_c, 0, 84, 72
2, 20304, Note_on_c, 0, 84, 0
2, 20400, Note_on_c, 0, 84, 72
2, 20880, Note_on_c, 0, 84, 0
2, 20880, Note_on_c, 0, 83, 72
2, 21072, Note_on_c, 0, 83, 0
2, 21120, Note_on_c, 0, 81, 72
2, 21264, Note_on_c, 0, 81, 0
2, 21360, Note_on_c, 0, 81, 72
2, 21840, Note_on_c, 0, 81, 0
2, 21840, Note_on_c, 0, 79, 72
2, 22032, Note_on_c, 0, 79, 0
2, 22080, Note_on_c, 0, 79, 72
2, 22320, Note_on_c, 0, 79, 0
2, 22320, Note_on_c, 0, 77, 72
2, 22416, Note_on_c, 0, 77, 0
2, 22560, Note_on_c, 0, 77, 72
2, 22800, Note_on_c, 0, 77, 0
2, 22800, Note_on_c, 0, 76, 72
2, 22896, Note_on_c, 0, 76, 0
2, 23040, Note_on_c, 0, 79, 72
2, 23400, Note_on_c, 0, 79, 0
2, 23400, Note_on_c, 0, 76, 72
2, 23520, Note_on_c, 0, 76, 0
2, 23520, Note_on_c, 0, 74, 72
2, 23712, Note_on_c, 0, 74, 0
2, 24000, Note_on_c, 0, 76, 105
2, 24192, Note_on_c, 0, 76, 0
2, 24480, Note_on_c, 0, 76, 105
2, 24672, Note_on_c, 0, 76, 0
2, 24960, Note_on_c, 0, 76, 105
2, 25680, Note_on_c, 0, 76, 0
2, 25680, Note_on_c, 0, 79, 105
2, 25872, Note_on_c, 0, 79, 0
2, 25920, Note_on_c, 0, 77, 105
2, 26160, Note_on_c, 0, 77, 0
2, 26160, Note_on_c, 0, 74, 105
2, 26400, Note_on_c, 0, 74, 0
2, 26400, Note_on_c, 0, 77, 105
2, 26640, Note_on_c, 0, 77, 0
2, 26640, Note_on_c, 0, 81, 105
2, 26832, Note_on_c, 0, 81, 0
2, 26880, Note_on_c, 0, 79, 105
2, 27240, Note_on_c, 0, 79, 0
2, 27240, Note_on_c, 0, 76, 105
2, 27360, Note_on_c, 0, 76, 0
2, 27360, Note_on_c, 0, 79, 105
2, 27552, Note_on_c, 0, 79, 0
2, 27840, Note_on_c, 0, 84, 105
2, 28080, Note_on_c, 0, 84, 0
2, 28080, Note_on_c, 0, 79, 105
2, 28176, Note_on_c, 0, 79, 0
2, 28320, Note_on_c, 0, 79, 105
2, 28560, Note_on_c, 0, 79, 0
2, 28560, Note_on_c, 0, 76, 105
2, 28656, Note_on_c, 0, 76, 0
2, 28800, Note_on_c, 0, 74, 105
2, 29040, Note_on_c, 0, 74, 0
2, 29040, Note_on_c, 0, 81, 105
2, 29232, Note_on_c, 0, 81, 0
2, 29280, Note_on_c, 0, 79, 105
2, 29400, Note_on_c, 0, 79, 0
2, 29400, Note_on_c, 0, 77, 105
2, 29520, Note_on_c, 0, 77, 0
2, 29520, Note_on_c, 0, 76, 105
2, 29640, Note_on_c, 0, 76, 0
2, 29640, Note_on_c, 0, 74, 105
2, 29736, Note_on_c, 0, 74, 0
2, 29760, Note_on_c, 0, 72, 105
2, 30144, Note_on_c, 0, 72, 0
2, 30240, Note_on_c, 0, 76, 105
2, 30360, Note_on_c, 0, 76, 0
2, 30360, Note_on_c, 0, 74, 105
2, 30480, Note_on_c, 0, 74, 0
2, 30480, Note_on_c, 0, 72, 105
2, 30600, Note_on_c, 0, 72, 0
2, 30600, Note_on_c, 0, 74, 105
2, 30708, Note_on_c, 0, 74, 0
2, 30720, Note_on_c, 0, 72, 92
2, 31104, Note_on_c, 0, 72, 0
2, 31680, Note_on_c, 0, 73, 58
2, 31800, Note_on_c, 0, 73, 0
2, 31800, Note_on_c, 0, 74, 72
2, 31920, Note_on_c, 0, 74, 0
2, 31920, Note_on_c, 0, 77, 72
2, 32040, Note_on_c, 0, 77, 0
2, 32040, Note_on_c, 0, 76, 72
2, 32160, Note_on_c, 0, 76, 0
2, 32160, Note_on_c, 0, 75, 72
2, 32280, Note_on_c, 0, 75, 0
2, 32280, Note_on_c, 0, 76, 72
2, 32400, Note_on_c, 0, 76, 0
2, 32400, Note_on_c, 0, 79, 72
2, 32520, Note_on_c, 0, 79, 0
2, 32520, Note_on_c, 0, 77, 72
2, 32616, Note_on_c, 0, 77, 0
2, 32640, Note_on_c, 0, 77, 72
2, 33024, Note_on_c, 0, 77, 0
2, 33120, Note_on_c, 0, 81, 72
2, 33480, Note_on_c, 0, 81, 0
2, 33480, Note_on_c, 0, 79, 72
2, 33576, Note_on_c, 0, 79, 0
2, 33600, Note_on_c, 0, 79, 72
2, 33984, Note_on_c, 0, 79, 0
2, 34080, Note_on_c, 0, 77, 72
2, 34200, Note_on_c, 0, 77, 0
2, 34200, Note_on_c, 0, 76, 72
2, 34320, Note_on_c, 0, 76, 0
2, 34320, Note_on_c, 0, 74, 72
2, 34440, Note_on_c, 0, 74, 0
2, 34440, Note_on_c, 0, 72, 72
2, 34536, Note_on_c, 0, 72, 0
2, 34560, Note_on_c, 0, 76, 72
2, 35040, Note_on_c, 0, 76, 0
2, 35040, Note_on_c, 0, 74, 58
2, 35232, Note_on_c, 0, 74, 0
2, 35520, Note_on_c, 0, 73, 72
2, 35640, Note_on_c, 0, 73, 0
2, 35640, Note_on_c, 0, 74, 72
2, 35760, Note_on_c, 0, 74, 0
2, 35760, Note_on_c, 0, 77, 72
2, 35880, Note_on_c, 0, 77, 0
2, 35880, Note_on_c, 0, 76, 72
2, 36000, Note_on_c, 0, 76, 0
2, 36000, Note_on_c, 0, 75, 72
2, 36120, Note_on_c, 0, 75, 0
2, 36120, Note_on_c, 0, 76, 72
2, 36240, Note_on_c, 0, 76, 0
2, 36240, Note_on_c, 0, 79, 72
2, 36360, Note_on_c, 0, 79, 0
2, 36360, Note_on_c, 0, 77, 72
2, 36456, Note_on_c, 0, 77, 0
2, 36480, Note_on_c, 0, 77, 72
2, 36864, Note_on_c, 0, 77, 0
2, 36960, Note_on_c, 0, 83, 72
2, 37320, Note_on_c, 0, 83, 0
2, 37320, Note_on_c, 0, 84, 81
2, 37416, Note_on_c, 0, 84, 0
2, 37440, Note_on_c, 0, 84, 92
2, 37824, Note_on_c, 0, 84, 0
2, 37920, Note_on_c, 0, 83, 92
2, 38040, Note_on_c, 0, 83, 0
2, 38040, Note_on_c, 0, 81, 105
2, 38160, Note_on_c, 0, 81, 0
2, 38160, Note_on_c, 0, 79, 105
2, 38280, Note_on_c, 0, 79, 0
2, 38280, Note_on_c, 0, 78, 105
2, 38376, Note_on_c, 0, 78, 0
2, 38400, Note_on_c, 0, 79, 116
2, 38520, Note_on_c, 0, 79, 0
2, 38520, Note_on_c, 0, 81, 116
2, 38640, Note_on_c, 0, 81, 0
2, 38640, Note_on_c, 0, 79, 116
2, 38760, Note_on_c, 0, 79, 0
2, 38760, Note_on_c, 0, 78, 81
2, 38880, Note_on_c, 0, 78, 0
2, 38880, Note_on_c, 0, 79, 81
2, 39000, Note_on_c, 0, 79, 0
2, 39000, Note_on_c, 0, 80, 81
2, 39120, Note_on_c, 0, 80, 0
2, 39120, Note_on_c, 0, 81, 81
2, 39240, Note_on_c, 0, 81, 0
2, 39240, Note_on_c, 0, 77, 72
2, 39360, Note_on_c, 0, 77, 0
2, 39360, Note_on_c, 0, 76, 72
2, 39552, Note_on_c, 0, 76, 0
2, 39840, Note_on_c, 0, 76, 72
2, 40032, Note_on_c, 0, 76, 0
2, 40320, Note_on_c, 0, 76, 72
2, 41040, Note_on_c, 0, 76, 0
2, 41040, Note_on_c, 0, 79, 72
2, 41232, Note_on_c, 0, 79, 0
2, 41280, Note_on_c, 0, 77, 72
2, 41520, Note_on_c, 0, 77, 0
2, 41520, Note_on_c, 0, 74, 72
2, 41760, Note_on_c, 0, 74, 0
2, 41760, Note_on_c, 0, 77, 72
2, 42000, Note_on_c, 0, 77, 0
2, 42000, Note_on_c, 0, 81, 72
2, 42192, Note_on_c, 0, 81, 0
2, 42240, Note_on_c, 0, 79, 72
2, 42600, Note_on_c, 0, 79, 0
2, 42600, Note_on_c, 0, 76, 72
2, 42696, Note_on_c, 0, 76, 0
2, 42720, Note_on_c, 0, 79, 72
2, 42912, Note_on_c, 0, 79, 0
2, 43200, Note_on_c, 0, 79, 105
2, 43440, Note_on_c, 0, 79, 0
2, 43440, Note_on_c, 0, 84, 105
2, 43560, Note_on_c, 0, 84, 0
2, 43680, Note_on_c, 0, 83, 105
2, 43920, Note_on_c, 0, 83, 0
2, 43920, Note_on_c, 0, 77, 105
2, 44040, Note_on_c, 0, 77, 0
2, 44160, Note_on_c, 0, 76, 105
2, 44400, Note_on_c, 0, 76, 0
2, 44400, Note_on_c, 0, 79, 105
2, 44520, Note_on_c, 0, 79, 0
2, 44640, Note_on_c, 0, 77, 105
2, 44880, Note_on_c, 0, 77, 0
2, 44880, Note_on_c, 0, 81, 105
2, 45000, Note_on_c, 0, 81, 0
2, 45120, Note_on_c, 0, 72, 105
2, 45504, Note_on_c, 0, 72, 0
2, 45600, Note_on_c, 0, 76, 105
2, 45720, Note_on_c, 0, 76, 0
2, 45720, Note_on_c, 0, 74, 105
2, 45840, Note_on_c, 0, 74, 0
2, 45840, Note_on_c, 0, 72, 105
2, 45960, Note_on_c, 0, 72, 0
2, 45960, Note_on_c, 0, 74, 105
2, 46056, Note_on_c, 0, 74, 0
2, 46080, Note_on_c, 0, 72, 92
2, 46464, Note_on_c, 0, 72, 0
2, 47040, Note_on_c, 0, 73, 72
2, 47160, Note_on_c, 0, 73, 0
2, 47160, Note_on_c, 0, 74, 72
2, 47280, Note_on_c, 0, 74, 0
2, 47280, Note_on_c, 0, 77, 72
2, 47400, Note_on_c, 0, 77, 0
2, 47400, Note_on_c, 0, 76, 72
2, 47520, Note_on_c, 0, 76, 0
2, 47520, Note_on_c, 0, 75, 72
2, 47640, Note_on_c, 0, 75, 0
2, 47640, Note_on_c, 0, 76, 72
2, 47760, Note_on_c, 0, 76, 0
2, 47760, Note_on_c, 0, 79, 72
2, 47880, Note_on_c, 0, 79, 0
2, 47880, Note_on_c, 0, 77, 72
2, 47976, Note_on_c, 0, 77, 0
2, 48000, Note_on_c, 0, 77, 72
2, 48384, Note_on_c, 0, 77, 0
2, 48480, Note_on_c, 0, 81, 72
2, 48840, Note_on_c, 0, 81, 0
2, 48840, Note_on_c, 0, 79, 72
2, 48936, Note_on_c, 0, 79, 0
2, 48960, Note_on_c, 0, 79, 72
2, 49344, Note_on_c, 0, 79, 0
2, 49440, Note_on_c, 0, 77, 72
2, 49560, Note_on_c, 0, 77, 0
2, 49560, Note_on_c, 0, 76, 72
2, 49680, Note_on_c, 0, 76, 0
2, 49680, Note_on_c, 0, 74, 72
2, 49800, Note_on_c, 0, 74, 0
2, 49800, Note_on_c, 0, 72, 72
2, 49896, Note_on_c, 0, 72, 0
2, 49920, Note_on_c, 0, 76, 72
2, 50400, Note_on_c, 0, 76, 0
2, 50400, Note_on_c, 0, 74, 58
2, 50592, Note_on_c, 0, 74, 0
2, 50880, Note_on_c, 0, 73, 72
2, 51000, Note_on_c, 0, 73, 0
2, 51000, Note_on_c, 0, 74, 72
2, 51120, Note_on_c, 0, 74, 0
2, 51120, Note_on_c, 0, 77, 72
2, 51240, Note_on_c, 0, 77, 0
2, 51240, Note_on_c, 0, 76, 72
2, 51360, Note_on_c, 0, 76, 0
2, 51360, Note_on_c, 0, 75, 72
2, 51480, Note_on_c, 0, 75, 0
2, 51480, Note_on_c, 0, 76, 72
2, 51600, Note_on_c, 0, 76, 0
2, 51600, Note_on_c, 0, 79, 72
2, 51720, Note_on_c, 0, 79, 0
2, 51720, Note_on_c, 0, 77, 72
2, 51816, Note_on_c, 0, 77, 0
2, 51840, Note_on_c, 0, 77, 72
2, 52224, Note_on_c, 0, 77, 0
2, 52320, Note_on_c, 0, 83, 72
2, 52680, Note_on_c, 0, 83, 0
2, 52680, Note_on_c, 0, 84, 81
2, 52776, Note_on_c, 0, 84, 0
2, 52800, Note_on_c, 0, 84, 92
2, 53184, Note_on_c, 0, 84, 0
2, 53280, Note_on_c, 0, 83, 92
2, 53400, Note_on_c, 0, 83, 0
2, 53400, Note_on_c, 0, 81, 105
2, 53520, Note_on_c, 0, 81, 0
2, 53520, Note_on_c, 0, 79, 105
2, 53640, Note_on_c, 0, 79, 0
2, 53640, Note_on_c, 0, 78, 105
2, 53736, Note_on_c, 0, 78, 0
2, 53760, Note_on_c, 0, 79, 116
2, 53880, Note_on_c, 0, 79, 0
2, 53880, Note_on_c, 0, 81, 116
2, 54000, Note_on_c, 0, 81, 0
2, 54000, Note_on_c, 0, 79, 116
2, 54120, Note_on_c, 0, 79, 0
2, 54120, Note_on_c, 0, 78, 81
2, 54240, Note_on_c, 0, 78, 0
2, 54240, Note_on_c, 0, 79, 81
2, 54360, Note_on_c, 0, 79, 0
2, 54360, Note_on_c, 0, 80, 81
2, 54480, Note_on_c, 0, 80, 0
2, 54480, Note_on_c, 0, 81, 81
2, 54600, Note_on_c, 0, 81, 0
2, 54600, Note_on_c, 0, 77, 72
2, 54720, Note_on_c, 0, 77, 0
2, 54720, Note_on_c, 0, 76, 72
2, 54912, Note_on_c, 0, 76, 0
2, 55200, Note_on_c, 0, 76, 72
2, 55392, Note_on_c, 0, 76, 0
2, 55680, Note_on_c, 0, 76, 72
2, 56400, Note_on_c, 0, 76, 0
2, 56400, Note_on_c, 0, 79, 72
2, 56592, Note_on_c, 0, 79, 0
2, 56640, Note_on_c, 0, 77, 72
2, 56880, Note_on_c, 0, 77, 0
2, 56880, Note_on_c, 0, 74, 72
2, 57120, Note_on_c, 0, 74, 0
2, 57120, Note_on_c, 0, 77, 72
2, 57360, Note_on_c, 0, 77, 0
2, 57360, Note_on_c, 0, 81, 72
2, 57552, Note_on_c, 0, 81, 0
2, 57600, Note_on_c, 0, 79, 72
2, 57960, Note_on_c, 0, 79, 0
2, 57960, Note_on_c, 0, 76, 72
2, 58056, Note_on_c, 0, 76, 0
2, 58080, Note_on_c, 0, 79, 72
2, 58272, Note_on_c, 0, 79, 0
2, 58560, Note_on_c, 0, 79, 105
2, 58800, Note_on_c, 0, 79, 0
2, 58800, Note_on_c, 0, 84, 105
2, 58920, Note_on_c, 0, 84, 0
2, 59040, Note_on_c, 0, 83, 105
2, 59280, Note_on_c, 0, 83, 0
2, 59280, Note_on_c, 0, 77, 105
2, 59400, Note_on_c, 0, 77, 0
2, 59520, Note_on_c, 0, 76, 105
2, 59760, Note_on_c, 0, 76, 0
2, 59760, Note_on_c, 0, 79, 105
2, 59880, Note_on_c, 0, 79, 0
2, 60000, Note_on_c, 0, 77, 105
2, 60240, Note_on_c, 0, 77, 0
2, 60240, Note_on_c, 0, 81, 105
2, 60360, Note_on_c, 0, 81, 0
2, 60480, Note_on_c, 0, 72, 105
2, 60864, Note_on_c, 0, 72, 0
2, 60960, Note_on_c, 0, 76, 105
2, 61080, Note_on_c, 0, 76, 0
2, 61080, Note_on_c, 0, 74, 105
2, 61200, Note_on_c, 0, 74, 0
2, 61200, Note_on_c, 0, 72, 105
2, 61320, Note_on_c, 0, 72, 0
2, 61320, Note_on_c, 0, 74, 105
2, 61416, Note_on_c, 0, 74, 0
2, 61440, Note_on_c, 0, 72, 92
2, 61824, Note_on_c, 0, 72, 0
2, 62400, Note_on_c, 0, 76, 58
2, 62544, Note_on_c, 0, 76, 0
2, 62640, Note_on_c, 0, 76, 72
2, 62784, Note_on_c, 0, 76, 0
2, 62880, Note_on_c, 0, 76, 72
2, 63024, Note_on_c, 0, 76, 0
2, 63120, Note_on_c, 0, 76, 72
2, 63264, Note_on_c, 0, 76, 0
2, 63360, Note_on_c, 0, 76, 72
2, 63600, Note_on_c, 0, 76, 0
2, 63600, Note_on_c, 0, 79, 72
2, 63720, Note_on_c, 0, 79, 0
2, 63720, Note_on_c, 0, 77, 72
2, 63840, Note_on_c, 0, 77, 0
2, 63840, Note_on_c, 0, 76, 72
2, 63960, Note_on_c, 0, 76, 0
2, 63960, Note_on_c, 0, 74, 72
2, 64080, Note_on_c, 0, 74, 0
2, 64080, Note_on_c, 0, 72, 72
2, 64200, Note_on_c, 0, 72, 0
2, 64200, Note_on_c, 0, 71, 72
2, 64296, Note_on_c, 0, 71, 0
2, 64320, Note_on_c, 0, 72, 72
2, 64464, Note_on_c, 0, 72, 0
2, 64560, Note_on_c, 0, 72, 72
2, 64704, Note_on_c, 0, 72, 0
2, 64800, Note_on_c, 0, 72, 72
2, 64944, Note_on_c, 0, 72, 0
2, 65040, Note_on_c, 0, 72, 72
2, 65184, Note_on_c, 0, 72, 0
2, 65280, Note_on_c, 0, 73, 72
2, 65760, Note_on_c, 0, 73, 0
2, 65760, Note_on_c, 0, 74, 58
2, 65952, Note_on_c, 0, 74, 0
2, 66240, Note_on_c, 0, 76, 72
2, 66384, Note_on_c, 0, 76, 0
2, 66480, Note_on_c, 0, 76, 72
2, 66624, Note_on_c, 0, 76, 0
2, 66720, Note_on_c, 0, 78, 72
2, 66864, Note_on_c, 0, 78, 0
2, 66960, Note_on_c, 0, 78, 72
2, 67104, Note_on_c, 0, 78, 0
2, 67200, Note_on_c, 0, 79, 72
2, 67320, Note_on_c, 0, 79, 0
2, 67320, Note_on_c, 0, 83, 72
2, 67440, Note_on_c, 0, 83, 0
2, 67440, Note_on_c, 0, 81, 72
2, 67560, Note_on_c, 0, 81, 0
2, 67560, Note_on_c, 0, 79, 72
2, 67680, Note_on_c, 0, 79, 0
2, 67680, Note_on_c, 0, 78, 72
2, 67800, Note_on_c, 0, 78, 0
2, 67800, Note_on_c, 0, 76, 72
2, 67920, Note_on_c, 0, 76, 0
2, 67920, Note_on_c, 0, 74, 72
2, 68040, Note_on_c, 0, 74, 0
2, 68040, Note_on_c, 0, 73, 72
2, 68136, Note_on_c, 0, 73, 0
2, 68160, Note_on_c, 0, 74, 72
2, 68280, Note_on_c, 0, 74, 0
2, 68280, Note_on_c, 0, 76, 72
2, 68400, Note_on_c, 0, 76, 0
2, 68400, Note_on_c, 0, 74, 72
2, 68520, Note_on_c, 0, 74, 0
2, 68520, Note_on_c, 0, 72, 72
2, 68640, Note_on_c, 0, 72, 0
2, 68640, Note_on_c, 0, 71, 72
2, 68760, Note_on_c, 0, 71, 0
2, 68760, Note_on_c, 0, 69, 72
2, 68880, Note_on_c, 0, 69, 0
2, 68880, Note_on_c, 0, 67, 72
2, 69000, Note_on_c, 0, 67, 0
2, 69000, Note_on_c, 0, 66, 72
2, 69096, Note_on_c, 0, 66, 0
2, 69120, Note_on_c, 0, 69, 72
2, 69600, Note_on_c, 0, 69, 0
2, 69600, Note_on_c, 0, 67, 58
2, 69792, Note_on_c, 0, 67, 0
2, 70080, Note_on_c, 0, 76, 72
2, 70224, Note_on_c, 0, 76, 0
2, 70320, Note_on_c, 0, 76, 72
2, 70464, Note_on_c, 0, 76, 0
2, 70560, Note_on_c, 0, 76, 72
2, 70704, Note_on_c, 0, 76, 0
2, 70800, Note_on_c, 0, 76, 72
2, 70944, Note_on_c, 0, 76, 0
2, 71040, Note_on_c, 0, 76, 72
2, 71280, Note_on_c, 0, 76, 0
2, 71280, Note_on_c, 0, 79, 72
2, 71400, Note_on_c, 0, 79, 0
2, 71400, Note_on_c, 0, 77, 72
2, 71520, Note_on_c, 0, 77, 0
2, 71520, Note_on_c, 0, 76, 72
2, 71640, Note_on_c, 0, 76, 0
2, 71640, Note_on_c, 0, 74, 72
2, 71760, Note_on_c, 0, 74, 0
2, 71760, Note_on_c, 0, 72, 72
2, 71880, Note_on_c, 0, 72, 0
2, 71880, Note_on_c, 0, 71, 72
2, 71976, Note_on_c, 0, 71, 0
2, 72000, Note_on_c, 0, 72, 72
2, 72144, Note_on_c, 0, 72, 0
2, 72240, Note_on_c, 0, 72, 72
2, 72384, Note_on_c, 0, 72, 0
2, 72480, Note_on_c, 0, 72, 72
2, 72624, Note_on_c, 0, 72, 0
2, 72720, Note_on_c, 0, 72, 72
2, 72864, Note_on_c, 0, 72, 0
2, 72960, Note_on_c, 0, 73, 72
2, 73440, Note_on_c, 0, 73, 0
2, 73440, Note_on_c, 0, 74, 58
2, 73632, Note_on_c, 0, 74, 0
2, 73920, Note_on_c, 0, 76, 72
2, 74064, Note_on_c, 0, 76, 0
2, 74160, Note_on_c, 0, 76, 72
2, 74304, Note_on_c, 0, 76, 0
2, 74400, Note_on_c, 0, 78, 72
2, 74544, Note_on_c, 0, 78, 0
2, 74640, Note_on_c, 0, 78, 72
2, 74784, Note_on_c, 0, 78, 0
2, 74880, Note_on_c, 0, 79, 72
2, 75000, Note_on_c, 0, 79, 0
2, 75000, Note_on_c, 0, 83, 72
2, 75120, Note_on_c, 0, 83, 0
2, 75120, Note_on_c, 0, 81, 72
2, 75240, Note_on_c, 0, 81, 0
2, 75240, Note_on_c, 0, 79, 72
2, 75360, Note_on_c, 0, 79, 0
2, 75360, Note_on_c, 0, 78, 72
2, 75480, Note_on_c, 0, 78, 0
2, 75480, Note_on_c, 0, 76, 72
2, 75600, Note_on_c, 0, 76, 0
2, 75600, Note_on_c, 0, 74, 72
2, 75720, Note_on_c, 0, 74, 0
2, 75720, Note_on_c, 0, 73, 72
2, 75816, Note_on_c, 0, 73, 0
2, 75840, Note_on_c, 0, 74, 72
2, 75960, Note_on_c, 0, 74, 0
2, 75960, Note_on_c, 0, 76, 72
2, 76080, Note_on_c, 0, 76, 0
2, 76080, Note_on_c, 0, 74, 72
2, 76200, Note_on_c, 0, 74, 0
2, 76200, Note_on_c, 0, 72, 72
2, 76320, Note_on_c, 0, 72, 0
2, 76320, Note_on_c, 0, 71, 72
2, 76440, Note_on_c, 0, 71, 0
2, 76440, Note_on_c, 0, 69, 72
2, 76560, Note_on_c, 0, 69, 0
2, 76560, Note_on_c, 0, 67, 72
2, 76680, Note_on_c, 0, 67, 0
2, 76680, Note_on_c, 0, 66, 72
2, 76776, Note_on_c, 0, 66, 0
2, 76800, Note_on_c, 0, 69, 72
2, 77280, Note_on_c, 0, 69, 0
2, 77280, Note_on_c, 0, 67, 58
2, 77472, Note_on_c, 0, 67, 0
2, 77760, Note_on_c, 0, 79, 72
2, 77904, Note_on_c, 0, 79, 0
2, 78000, Note_on_c, 0, 79, 72
2, 78144, Note_on_c, 0, 79, 0
2, 78240, Note_on_c, 0, 79, 72
2, 78384, Note_on_c, 0, 79, 0
2, 78480, Note_on_c, 0, 79, 72
2, 78624, Note_on_c, 0, 79, 0
2, 78720, Note_on_c, 0, 79, 72
2, 78840, Note_on_c, 0, 79, 0
2, 78840, Note_on_c, 0, 82, 72
2, 78960, Note_on_c, 0, 82, 0
2, 78960, Note_on_c, 0, 81, 72
2, 79080, Note_on_c, 0, 81, 0
2, 79080, Note_on_c, 0, 79, 72
2, 79200, Note_on_c, 0, 79, 0
2, 79200, Note_on_c, 0, 77, 72
2, 79320, Note_on_c, 0, 77, 0
2, 79320, Note_on_c, 0, 76, 72
2, 79440, Note_on_c, 0, 76, 0
2, 79440, Note_on_c, 0, 74, 72
2, 79560, Note_on_c, 0, 74, 0
2, 79560, Note_on_c, 0, 73, 72
2, 79656, Note_on_c, 0, 73, 0
2, 79680, Note_on_c, 0, 77, 72
2, 79824, Note_on_c, 0, 77, 0
2, 79920, Note_on_c, 0, 77, 72
2, 80064, Note_on_c, 0, 77, 0
2, 80160, Note_on_c, 0, 77, 72
2, 80304, Note_on_c, 0, 77, 0
2, 80400, Note_on_c, 0, 77, 72
2, 80544, Note_on_c, 0, 77, 0
2, 80640, Note_on_c, 0, 77, 72
2, 80760, Note_on_c, 0, 77, 0
2, 80760, Note_on_c, 0, 81, 72
2, 80880, Note_on_c, 0, 81, 0
2, 80880, Note_on_c, 0, 79, 72
2, 81000, Note_on_c, 0, 79, 0
2, 81000, Note_on_c, 0, 77, 72
2, 81120, Note_on_c, 0, 77, 0
2, 81120, Note_on_c, 0, 76, 72
2, 81240, Note_on_c, 0, 76, 0
2, 81240, Note_on_c, 0, 74, 72
2, 81360, Note_on_c, 0, 74, 0
2, 81360, Note_on_c, 0, 72, 72
2, 81480, Note_on_c, 0, 72, 0
2, 81480, Note_on_c, 0, 71, 72
2, 81576, Note_on_c, 0, 71, 0
2, 81600, Note_on_c, 0, 76, 72
2, 81744, Note_on_c, 0, 76, 0
2, 81840, Note_on_c, 0, 76, 72
2, 81984, Note_on_c, 0, 76, 0
2, 82080, Note_on_c, 0, 76, 72
2, 82224, Note_on_c, 0, 76, 0
2, 82320, Note_on_c, 0, 76, 72
2, 82464, Note_on_c, 0, 76, 0
2, 82560, Note_on_c, 0, 76, 72
2, 82680, Note_on_c, 0, 76, 0
2, 82680, Note_on_c, 0, 77, 72
2, 82800, Note_on_c, 0, 77, 0
2, 82800, Note_on_c, 0, 76, 72
2, 82920, Note_on_c, 0, 76, 0
2, 82920, Note_on_c, 0, 75, 72
2, 83040, Note_on_c, 0, 75, 0
2, 83040, Note_on_c, 0, 76, 72
2, 83160, Note_on_c, 0, 76, 0
2, 83160, Note_on_c, 0, 74, 72
2, 83280, Note_on_c, 0, 74, 0
2, 83280, Note_on_c, 0, 72, 72
2, 83400, Note_on_c, 0, 72, 0
2, 83400, Note_on_c, 0, 71, 72
2, 83496, Note_on_c, 0, 71, 0
2, 83520, Note_on_c, 0, 69, 72
2, 83640, Note_on_c, 0, 69, 0
2, 83640, Note_on_c, 0, 71, 72
2, 83760, Note_on_c, 0, 71, 0
2, 83760, Note_on_c, 0, 69, 72
2, 83880, Note_on_c, 0, 69, 0
2, 83880, Note_on_c, 0, 68, 72
2, 84000, Note_on_c, 0, 68, 0
2, 84000, Note_on_c, 0, 69, 72
2, 84120, Note_on_c, 0, 69, 0
2, 84120, Note_on_c, 0, 72, 72
2, 84240, Note_on_c, 0, 72, 0
2, 84240, Note_on_c, 0, 71, 72
2, 84360, Note_on_c, 0, 71, 0
2, 84360, Note_on_c, 0, 69, 72
2, 84456, Note_on_c, 0, 69, 0
2, 84480, Note_on_c, 0, 68, 72
2, 84720, Note_on_c, 0, 68, 0
2, 84720, Note_on_c, 0, 71, 72
2, 84960, Note_on_c, 0, 71, 0
2, 84960, Note_on_c, 0, 76, 72
2, 85536, Note_on_c, 0, 76, 0
2, 85680, Note_on_c, 0, 76, 72
2, 85824, Note_on_c, 0, 76, 0
2, 85920, Note_on_c, 0, 76, 72
2, 86064, Note_on_c, 0, 76, 0
2, 86160, Note_on_c, 0, 76, 72
2, 86304, Note_on_c, 0, 76, 0
2, 86400, Note_on_c, 0, 76, 72
2, 86520, Note_on_c, 0, 76, 0
2, 86520, Note_on_c, 0, 78, 72
2, 86640, Note_on_c, 0, 78, 0
2, 86640, Note_on_c, 0, 76, 72
2, 86760, Note_on_c, 0, 76, 0
2, 86760, Note_on_c, 0, 75, 72
2, 86880, Note_on_c, 0, 75, 0
2, 86880, Note_on_c, 0, 76, 72
2, 87000, Note_on_c, 0, 76, 0
2, 87000, Note_on_c, 0, 78, 72
2, 87120, Note_on_c, 0, 78, 0
2, 87120, Note_on_c, 0, 80, 72
2, 87240, Note_on_c, 0, 80, 0
2, 87240, Note_on_c, 0, 76, 72
2, 87336, Note_on_c, 0, 76, 0
2, 87360, Note_on_c, 0, 81, 72
2, 87480, Note_on_c, 0, 81, 0
2, 87480, Note_on_c, 0, 83, 72
2, 87600, Note_on_c, 0, 83, 0
2, 87600, Note_on_c, 0, 81, 72
2, 87720, Note_on_c, 0, 81, 0
2, 87720, Note_on_c, 0, 80, 72
2, 87840, Note_on_c, 0, 80, 0
2, 87840, Note_on_c, 0, 81, 72
2, 87960, Note_on_c, 0, 81, 0
2, 87960, Note_on_c, 0, 84, 72
2, 88080, Note_on_c, 0, 84, 0
2, 88080, Note_on_c, 0, 83, 72
2, 88200, Note_on_c, 0, 83, 0
2, 88200, Note_on_c, 0, 81, 72
2, 88296, Note_on_c, 0, 81, 0
2, 88320, Note_on_c, 0, 80, 72
2, 88560, Note_on_c, 0, 80, 0
2, 88560, Note_on_c, 0, 83, 72
2, 88704, Note_on_c, 0, 83, 0
2, 88800, Note_on_c, 0, 76, 72
2, 88944, Note_on_c, 0, 76, 0
2, 90000, Note_on_c, 0, 81, 72
2, 90144, Note_on_c, 0, 81, 0
2, 90240, Note_on_c, 0, 80, 72
2, 90480, Note_on_c, 0, 80, 0
2, 90480, Note_on_c, 0, 83, 72
2, 90624, Note_on_c, 0, 83, 0
2, 90720, Note_on_c, 0, 76, 72
2, 90864, Note_on_c, 0, 76, 0
2, 92880, Note_on_c, 0, 81, 72
2, 93024, Note_on_c, 0, 81, 0
2, 93120, Note_on_c, 0, 80, 72
2, 93360, Note_on_c, 0, 80, 0
2, 93360, Note_on_c, 0, 83, 72
2, 93504, Note_on_c, 0, 83, 0
2, 93600, Note_on_c, 0, 76, 72
2, 93744, Note_on_c, 0, 76, 0
2, 93840, Note_on_c, 0, 78, 72
2, 93984, Note_on_c, 0, 78, 0
2, 94080, Note_on_c, 0, 79, 72
2, 94848, Note_on_c, 0, 79, 0
2, 95040, Note_on_c, 0, 78, 72
2, 95280, Note_on_c, 0, 78, 0
2, 95280, Note_on_c, 0, 81, 72
2, 95424, Note_on_c, 0, 81, 0
2, 95520, Note_on_c, 0, 74, 72
2, 95664, Note_on_c, 0, 74, 0
2, 95760, Note_on_c, 0, 76, 72
2, 95904, Note_on_c, 0, 76, 0
2, 96000, Note_on_c, 0, 77, 72
2, 96960, Note_on_c, 0, 77, 0
2, 96960, Note_on_c, 0, 76, 72
2, 97152, Note_on_c, 0, 76, 0
2, 97440, Note_on_c, 0, 76, 72
2, 97632, Note_on_c, 0, 76, 0
2, 97920, Note_on_c, 0, 76, 72
2, 98640, Note_on_c, 0, 76, 0
2, 98640, Note_on_c, 0, 79, 72
2, 98832, Note_on_c, 0, 79, 0
2, 98880, Note_on_c, 0, 77, 72
2, 99120, Note_on_c, 0, 77, 0
2, 99120, Note_on_c, 0, 74, 72
2, 99360, Note_on_c, 0, 74, 0
2, 99360, Note_on_c, 0, 77, 72
2, 99600, Note_on_c, 0, 77, 0
2, 99600, Note_on_c, 0, 81, 72
2, 99792, Note_on_c, 0, 81, 0
2, 99840, Note_on_c, 0, 79, 72
2, 100200, Note_on_c, 0, 79, 0
2, 100200, Note_on_c, 0, 76, 72
2, 100296, Note_on_c, 0, 76, 0
2, 100320, Note_on_c, 0, 79, 72
2, 100512, Note_on_c, 0, 79, 0
2, 100800, Note_on_c, 0, 84, 72
2, 100944, Note_on_c, 0, 84, 0
2, 101040, Note_on_c, 0, 84, 72
2, 101520, Note_on_c, 0, 84, 0
2, 101520, Note_on_c, 0, 83, 72
2, 101712, Note_on_c, 0, 83, 0
2, 101760, Note_on_c, 0, 81, 72
2, 101904, Note_on_c, 0, 81, 0
2, 102000, Note_on_c, 0, 81, 72
2, 102480, Note_on_c, 0, 81, 0
2, 102480, Note_on_c, 0, 79, 72
2, 102672, Note_on_c, 0, 79, 0
2, 102720, Note_on_c, 0, 79, 72
2, 102960, Note_on_c, 0, 79, 0
2, 102960, Note_on_c, 0, 77, 72
2, 103080, Note_on_c, 0, 77, 0
2, 103200, Note_on_c, 0, 77, 72
2, 103440, Note_on_c, 0, 77, 0
2, 103440, Note_on_c, 0, 76, 72
2, 103560, Note_on_c, 0, 76, 0
2, 103680, Note_on_c, 0, 79, 72
2, 104040, Note_on_c, 0, 79, 0
2, 104040, Note_on_c, 0, 76, 72
2, 104136, Note_on_c, 0, 76, 0
2, 104160, Note_on_c, 0, 74, 72
2, 104352, Note_on_c, 0, 74, 0
2, 104640, Note_on_c, 0, 76, 105
2, 104832, Note_on_c, 0, 76, 0
2, 105120, Note_on_c, 0, 76, 105
2, 105312, Note_on_c, 0, 76, 0
2, 105600, Note_on_c, 0, 76, 105
2, 106320, Note_on_c, 0, 76, 0
2, 106320, Note_on_c, 0, 79, 105
2, 106512, Note_on_c, 0, 79, 0
2, 106560, Note_on_c, 0, 77, 105
2, 106800, Note_on_c, 0, 77, 0
2, 106800, Note_on_c, 0, 74, 105
2, 107040, Note_on_c, 0, 74, 0
2, 107040, Note_on_c, 0, 77, 105
2, 107280, Note_on_c, 0, 77, 0
2, 107280, Note_on_c, 0, 81, 105
2, 107472, Note_on_c, 0, 81, 0
2, 107520, Note_on_c, 0, 79, 105
2, 107880, Note_on_c, 0, 79, 0
2, 107880, Note_on_c, 0, 76, 105
2, 107976, Note_on_c, 0, 76, 0
2, 108000, Note_on_c, 0, 79, 105
2, 108192, Note_on_c, 0, 79, 0
2, 108480, Note_on_c, 0, 84, 125
2, 108720, Note_on_c, 0, 84, 0
2, 108720, Note_on_c, 0, 79, 105
2, 108840, Note_on_c, 0, 79, 0
2, 108960, Note_on_c, 0, 79, 125
2, 109200, Note_on_c, 0, 79, 0
2, 109200, Note_on_c, 0, 76, 105
2, 109320, Note_on_c, 0, 76, 0
2, 109440, Note_on_c, 0, 74, 125
2, 109680, Note_on_c, 0, 74, 0
2, 109680, Note_on_c, 0, 81, 105
2, 109872, Note_on_c, 0, 81, 0
2, 109920, Note_on_c, 0, 79, 105
2, 110040, Note_on_c, 0, 79, 0
2, 110040, Note_on_c, 0, 77, 105
2, 110160, Note_on_c, 0, 77, 0
2, 110160, Note_on_c, 0, 76, 105
2, 110280, Note_on_c, 0, 76, 0
2, 110280, Note_on_c, 0, 74, 105
2, 110376, Note_on_c, 0, 74, 0
2, 110400, Note_on_c, 0, 72, 105
2, 110784, Note_on_c, 0, 72, 0
2, 110880, Note_on_c, 0, 76, 105
2, 111000, Note_on_c, 0, 76, 0
2, 111000, Note_on_c, 0, 74, 105
2, 111120, Note_on_c, 0, 74, 0
2, 111120, Note_on_c, 0, 72, 105
2, 111240, Note_on_c, 0, 72, 0
2, 111240, Note_on_c, 0, 74, 105
2, 111336, Note_on_c, 0, 74, 0
2, 111360, Note_on_c, 0, 72, 105
2, 111744, Note_on_c, 0, 72, 0
2, 112800, Note_on_c, 0, 79, 72
2, 112944, Note_on_c, 0, 79, 0
2, 113040, Note_on_c, 0, 71, 72
2, 113080, Note_on_c, 0, 71, 0
2, 113080, Note_on_c, 0, 72, 72
2, 113120, Note_on_c, 0, 72, 0
2, 113120, Note_on_c, 0, 71, 72
2, 113160, Note_on_c, 0, 71, 0
2, 113160, Note_on_c, 0, 69, 72
2, 113220, Note_on_c, 0, 69, 0
2, 113220, Note_on_c, 0, 71, 72
2, 113280, Note_on_c, 0, 71, 0
2, 113280, Note_on_c, 0, 72, 72
2, 113472, Note_on_c, 0, 72, 0
2, 114720, Note_on_c, 0, 79, 72
2, 114864, Note_on_c, 0, 79, 0
2, 114960, Note_on_c, 0, 71, 72
2, 115000, Note_on_c, 0, 71, 0
2, 115000, Note_on_c, 0, 72, 72
2, 115040, Note_on_c, 0, 72, 0
2, 115040, Note_on_c, 0, 71, 72
2, 115080, Note_on_c, 0, 71, 0
2, 115080, Note_on_c, 0, 69, 72
2, 115140, Note_on_c, 0, 69, 0
2, 115140, Note_on_c, 0, 71, 72
2, 115200, Note_on_c, 0, 71, 0
2, 115200, Note_on_c, 0, 72, 72
2, 115392, Note_on_c, 0, 72, 0
2, 116640, Note_on_c, 0, 79, 72
2, 116784, Note_on_c, 0, 79, 0
2, 116880, Note_on_c, 0, 72, 72
2, 116920, Note_on_c, 0, 72, 0
2, 116920, Note_on_c, 0, 74, 72
2, 116960, Note_on_c, 0, 74, 0
2, 116960, Note_on_c, 0, 72, 72
2, 117000, Note_on_c, 0, 72, 0
2, 117000, Note_on_c, 0, 71, 72
2, 117060, Note_on_c, 0, 71, 0
2, 117060, Note_on_c, 0, 72, 72
2, 117120, Note_on_c, 0, 72, 0
2, 117120, Note_on_c, 0, 80, 101
2, 117696, Note_on_c, 0, 80, 0
2, 117840, Note_on_c, 0, 79, 72
2, 117880, Note_on_c, 0, 79, 0
2, 117880, Note_on_c, 0, 80, 72
2, 117920, Note_on_c, 0, 80, 0
2, 117920, Note_on_c, 0, 79, 72
2, 117960, Note_on_c, 0, 79, 0
2, 117960, Note_on_c, 0, 77, 72
2, 118020, Note_on_c, 0, 77, 0
2, 118020, Note_on_c, 0, 79, 72
2, 118080, Note_on_c, 0, 79, 0
2, 118080, Note_on_c, 0, 77, 72
2, 118224, Note_on_c, 0, 77, 0
2, 118320, Note_on_c, 0, 77, 72
2, 118464, Note_on_c, 0, 77, 0
2, 118560, Note_on_c, 0, 74, 72
2, 118704, Note_on_c, 0, 74, 0
2, 118800, Note_on_c, 0, 74, 72
2, 118944, Note_on_c, 0, 74, 0
2, 119040, Note_on_c, 0, 75, 72
2, 119232, Note_on_c, 0, 75, 0
2, 120480, Note_on_c, 0, 79, 72
2, 120624, Note_on_c, 0, 79, 0
2, 120720, Note_on_c, 0, 71, 72
2, 120760, Note_on_c, 0, 71, 0
2, 120760, Note_on_c, 0, 72, 72
2, 120800, Note_on_c, 0, 72, 0
2, 120800, Note_on_c, 0, 71, 72
2, 120840, Note_on_c, 0, 71, 0
2, 120840, Note_on_c, 0, 69, 72
2, 120900, Note_on_c, 0, 69, 0
2, 120900, Note_on_c, 0, 71, 72
2, 120960, Note_on_c, 0, 71, 0
2, 120960, Note_on_c, 0, 72, 72
2, 121152, Note_on_c, 0, 72, 0
2, 122400, Note_on_c, 0, 79, 72
2, 122544, Note_on_c, 0, 79, 0
2, 122640, Note_on_c, 0, 71, 72
2, 122680, Note_on_c, 0, 71, 0
2, 122680, Note_on_c, 0, 72, 72
2, 122720, Note_on_c, 0, 72, 0
2, 122720, Note_on_c, 0, 71, 72
2, 122760, Note_on_c, 0, 71, 0
2, 122760, Note_on_c, 0, 69, 72
2, 122820, Note_on_c, 0, 69, 0
2, 122820, Note_on_c, 0, 71, 72
2, 122880, Note_on_c, 0, 71, 0
2, 122880, Note_on_c, 0, 72, 72
2, 123072, Note_on_c, 0, 72, 0
2, 124320, Note_on_c, 0, 79, 72
2, 124464, Note_on_c, 0, 79, 0
2, 124560, Note_on_c, 0, 72, 72
2, 124600, Note_on_c, 0, 72, 0
2, 124600, Note_on_c, 0, 74, 72
2, 124640, Note_on_c, 0, 74, 0
2, 124640, Note_on_c, 0, 72, 72
2, 124680, Note_on_c, 0, 72, 0
2, 124680, Note_on_c, 0, 71, 72
2, 124740, Note_on_c, 0, 71, 0
2, 124740, Note_on_c, 0, 72, 72
2, 124800, Note_on_c, 0, 72, 0
2, 124800, Note_on_c, 0, 80, 101
2, 125376, Note_on_c, 0, 80, 0
2, 125520, Note_on_c, 0, 79, 72
2, 125560, Note_on_c, 0, 79, 0
2, 125560, Note_on_c, 0, 80, 72
2, 125600, Note_on_c, 0, 80, 0
2, 125600, Note_on_c, 0, 79, 72
2, 125640, Note_on_c, 0, 79, 0
2, 125640, Note_on_c, 0, 77, 72
2, 125700, Note_on_c, 0, 77, 0
2, 125700, Note_on_c, 0, 79, 72
2, 125760, Note_on_c, 0, 79, 0
2, 125760, Note_on_c, 0, 77, 72
2, 125904, Note_on_c, 0, 77, 0
2, 126000, Note_on_c, 0, 77, 72
2, 126144, Note_on_c, 0, 77, 0
2, 126240, Note_on_c, 0, 74, 72
2, 126384, Note_on_c, 0, 74, 0
2, 126480, Note_on_c, 0, 74, 72
2, 126624, Note_on_c, 0, 74, 0
2, 126720, Note_on_c, 0, 75, 72
2, 126912, Note_on_c, 0, 75, 0
2, 128160, Note_on_c, 0, 82, 72
2, 128304, Note_on_c, 0, 82, 0
2, 128400, Note_on_c, 0, 74, 72
2, 128440, Note_on_c, 0, 74, 0
2, 128440, Note_on_c, 0, 75, 72
2, 128480, Note_on_c, 0, 75, 0
2, 128480, Note_on_c, 0, 74, 72
2, 128520, Note_on_c, 0, 74, 0
2, 128520, Note_on_c, 0, 72, 72
2, 128580, Note_on_c, 0, 72, 0
2, 128580, Note_on_c, 0, 74, 72
2, 128640, Note_on_c, 0, 74, 0
2, 128640, Note_on_c, 0, 75, 72
2, 128832, Note_on_c, 0, 75, 0
2, 130080, Note_on_c, 0, 84, 72
2, 130224, Note_on_c, 0, 84, 0
2, 130320, Note_on_c, 0, 76, 72
2, 130360, Note_on_c, 0, 76, 0
2, 130360, Note_on_c, 0, 77, 72
2, 130400, Note_on_c, 0, 77, 0
2, 130400, Note_on_c, 0, 76, 72
2, 130440, Note_on_c, 0, 76, 0
2, 130440, Note_on_c, 0, 74, 72
2, 130500, Note_on_c, 0, 74, 0
2, 130500, Note_on_c, 0, 76, 72
2, 130560, Note_on_c, 0, 76, 0
2, 130560, Note_on_c, 0, 77, 72
2, 130752, Note_on_c, 0, 77, 0
2, 132000, Note_on_c, 0, 86, 72
2, 132144, Note_on_c, 0, 86, 0
2, 132240, Note_on_c, 0, 78, 72
2, 132280, Note_on_c, 0, 78, 0
2, 132280, Note_on_c, 0, 79, 72
2, 132320, Note_on_c, 0, 79, 0
2, 132320, Note_on_c, 0, 78, 72
2, 132360, Note_on_c, 0, 78, 0
2, 132360, Note_on_c, 0, 76, 72
2, 132420, Note_on_c, 0, 76, 0
2, 132420, Note_on_c, 0, 78, 72
2, 132480, Note_on_c, 0, 78, 0
2, 132480, Note_on_c, 0, 79, 72
2, 132624, Note_on_c, 0, 79, 0
2, 132720, Note_on_c, 0, 80, 72
2, 132760, Note_on_c, 0, 80, 0
2, 132760, Note_on_c, 0, 82, 72
2, 132800, Note_on_c, 0, 82, 0
2, 132800, Note_on_c, 0, 80, 72
2, 132840, Note_on_c, 0, 80, 0
2, 132840, Note_on_c, 0, 79, 72
2, 132900, Note_on_c, 0, 79, 0
2, 132900, Note_on_c, 0, 80, 72
2, 132960, Note_on_c, 0, 80, 0
2, 132960, Note_on_c, 0, 79, 72
2, 133104, Note_on_c, 0, 79, 0
2, 133200, Note_on_c, 0, 77, 72
2, 133240, Note_on_c, 0, 77, 0
2, 133240, Note_on_c, 0, 79, 72
2, 133280, Note_on_c, 0, 79, 0
2, 133280, Note_on_c, 0, 77, 72
2, 133320, Note_on_c, 0, 77, 0
2, 133320, Note_on_c, 0, 75, 72
2, 133380, Note_on_c, 0, 75, 0
2, 133380, Note_on_c, 0, 77, 72
2, 133440, Note_on_c, 0, 77, 0
2, 133440, Note_on_c, 0, 75, 72
2, 133584, Note_on_c, 0, 75, 0
2, 133680, Note_on_c, 0, 71, 72
2, 133720, Note_on_c, 0, 71, 0
2, 133720, Note_on_c, 0, 72, 72
2, 133760, Note_on_c, 0, 72, 0
2, 133760, Note_on_c, 0, 71, 72
2, 133800, Note_on_c, 0, 71, 0
2, 133800, Note_on_c, 0, 69, 72
2, 133860, Note_on_c, 0, 69, 0
2, 133860, Note_on_c, 0, 71, 72
2, 133920, Note_on_c, 0, 71, 0
2, 133920, Note_on_c, 0, 72, 72
2, 134064, Note_on_c, 0, 72, 0
2, 134160, Note_on_c, 0, 75, 72
2, 134200, Note_on_c, 0, 75, 0
2, 134200, Note_on_c, 0, 77, 72
2, 134240, Note_on_c, 0, 77, 0
2, 134240, Note_on_c, 0, 75, 72
2, 134280, Note_on_c, 0, 75, 0
2, 134280, Note_on_c, 0, 74, 72
2, 134340, Note_on_c, 0, 74, 0
2, 134340, Note_on_c, 0, 75, 72
2, 134400, Note_on_c, 0, 75, 0
2, 134400, Note_on_c, 0, 74, 72
2, 134592, Note_on_c, 0, 74, 0
2, 136800, Note_on_c, 0, 84, 72
2, 136944, Note_on_c, 0, 84, 0
2, 137040, Note_on_c, 0, 78, 72
2, 137080, Note_on_c, 0, 78, 0
2, 137080, Note_on_c, 0, 79, 72
2, 137120, Note_on_c, 0, 79, 0
2, 137120, Note_on_c, 0, 78, 72
2, 137160, Note_on_c, 0, 78, 0
2, 137160, Note_on_c, 0, 76, 72
2, 137220, Note_on_c, 0, 76, 0
2, 137220, Note_on_c, 0, 78, 72
2, 137280, Note_on_c, 0, 78, 0
2, 137280, Note_on_c, 0, 79, 72
2, 137472, Note_on_c, 0, 79, 0
2, 137760, Note_on_c, 0, 84, 72
2, 137904, Note_on_c, 0, 84, 0
2, 138000, Note_on_c, 0, 78, 72
2, 138040, Note_on_c, 0, 78, 0
2, 138040, Note_on_c, 0, 79, 72
2, 138080, Note_on_c, 0, 79, 0
2, 138080, Note_on_c, 0, 78, 72
2, 138120, Note_on_c, 0, 78, 0
2, 138120, Note_on_c, 0, 76, 72
2, 138180, Note_on_c, 0, 76, 0
2, 138180, Note_on_c, 0, 78, 72
2, 138240, Note_on_c, 0, 78, 0
2, 138240, Note_on_c, 0, 79, 72
2, 138432, Note_on_c, 0, 79, 0
2, 138720, Note_on_c, 0, 84, 72
2, 138864, Note_on_c, 0, 84, 0
2, 138960, Note_on_c, 0, 78, 72
2, 139000, Note_on_c, 0, 78, 0
2, 139000, Note_on_c, 0, 79, 72
2, 139040, Note_on_c, 0, 79, 0
2, 139040, Note_on_c, 0, 78, 72
2, 139080, Note_on_c, 0, 78, 0
2, 139080, Note_on_c, 0, 76, 72
2, 139140, Note_on_c, 0, 76, 0
2, 139140, Note_on_c, 0, 78, 72
2, 139200, Note_on_c, 0, 78, 0
2, 139200, Note_on_c, 0, 79, 72
2, 139392, Note_on_c, 0, 79, 0
2, 139680, Note_on_c, 0, 84, 72
2, 139824, Note_on_c, 0, 84, 0
2, 139920, Note_on_c, 0, 78, 72
2, 139960, Note_on_c, 0, 78, 0
2, 139960, Note_on_c, 0, 79, 72
2, 140000, Note_on_c, 0, 79, 0
2, 140000, Note_on_c, 0, 78, 72
2, 140040, Note_on_c, 0, 78, 0
2, 140040, Note_on_c, 0, 76, 72
2, 140100, Note_on_c, 0, 76, 0
2, 140100, Note_on_c, 0, 78, 72
2, 140160, Note_on_c, 0, 78, 0
2, 140160, Note_on_c, 0, 79, 72
2, 140352, Note_on_c, 0, 79, 0
2, 141120, Note_on_c, 0, 78, 72
2, 141312, Note_on_c, 0, 78, 0
2, 142080, Note_on_c, 0, 77, 72
2, 142272, Note_on_c, 0, 77, 0
2, 143040, Note_on_c, 0, 76, 72
2, 143232, Note_on_c, 0, 76, 0
2, 143520, Note_on_c, 0, 76, 72
2, 143712, Note_on_c, 0, 76, 0
2, 144000, Note_on_c, 0, 76, 72
2, 144720, Note_on_c, 0, 76, 0
2, 144720, Note_on_c, 0, 79, 72
2, 144912, Note_on_c, 0, 79, 0
2, 144960, Note_on_c, 0, 77, 72
2, 145200, Note_on_c, 0, 77, 0
2, 145200, Note_on_c, 0, 74, 72
2, 145440, Note_on_c, 0, 74, 0
2, 145440, Note_on_c, 0, 77, 72
2, 145680, Note_on_c, 0, 77, 0
2, 145680, Note_on_c, 0, 81, 72
2, 145872, Note_on_c, 0, 81, 0
2, 145920, Note_on_c, 0, 79, 72
2, 146280, Note_on_c, 0, 79, 0
2, 146280, Note_on_c, 0, 76, 72
2, 146376, Note_on_c, 0, 76, 0
2, 146400, Note_on_c, 0, 79, 72
2, 146592, Note_on_c, 0, 79, 0
2, 146880, Note_on_c, 0, 84, 72
2, 147024, Note_on_c, 0, 84, 0
2, 147120, Note_on_c, 0, 84, 72
2, 147600, Note_on_c, 0, 84, 0
2, 147600, Note_on_c, 0, 83, 72
2, 147792, Note_on_c, 0, 83, 0
2, 147840, Note_on_c, 0, 81, 72
2, 147984, Note_on_c, 0, 81, 0
2, 148080, Note_on_c, 0, 81, 72
2, 148560, Note_on_c, 0, 81, 0
2, 148560, Note_on_c, 0, 79, 72
2, 148752, Note_on_c, 0, 79, 0
2, 148800, Note_on_c, 0, 79, 72
2, 149040, Note_on_c, 0, 79, 0
2, 149040, Note_on_c, 0, 77, 72
2, 149160, Note_on_c, 0, 77, 0
2, 149280, Note_on_c, 0, 77, 72
2, 149520, Note_on_c, 0, 77, 0
2, 149520, Note_on_c, 0, 76, 72
2, 149640, Note_on_c, 0, 76, 0
2, 149760, Note_on_c, 0, 79, 72
2, 150120, Note_on_c, 0, 79, 0
2, 150120, Note_on_c, 0, 76, 72
2, 150216, Note_on_c, 0, 76, 0
2, 150240, Note_on_c, 0, 74, 72
2, 150432, Note_on_c, 0, 74, 0
2, 150720, Note_on_c, 0, 76, 105
2, 150912, Note_on_c, 0, 76, 0
2, 151200, Note_on_c, 0, 76, 105
2, 151392, Note_on_c, 0, 76, 0
2, 151680, Note_on_c, 0, 76, 105
2, 152400, Note_on_c, 0, 76, 0
2, 152400, Note_on_c, 0, 79, 105
2, 152592, Note_on_c, 0, 79, 0
2, 152640, Note_on_c, 0, 77, 105
2, 152880, Note_on_c, 0, 77, 0
2, 152880, Note_on_c, 0, 74, 105
2, 153120, Note_on_c, 0, 74, 0
2, 153120, Note_on_c, 0, 77, 105
2, 153360, Note_on_c, 0, 77, 0
2, 153360, Note_on_c, 0, 81, 105
2, 153552, Note_on_c, 0, 81, 0
2, 153600, Note_on_c, 0, 79, 105
2, 153960, Note_on_c, 0, 79, 0
2, 153960, Note_on_c, 0, 76, 105
2, 154056, Note_on_c, 0, 76, 0
2, 154080, Note_on_c, 0, 79, 92
2, 154272, Note_on_c, 0, 79, 0
2, 154560, Note_on_c, 0, 84, 125
2, 154800, Note_on_c, 0, 84, 0
2, 154800, Note_on_c, 0, 79, 105
2, 154920, Note_on_c, 0, 79, 0
2, 155040, Note_on_c, 0, 79, 125
2, 155280, Note_on_c, 0, 79, 0
2, 155280, Note_on_c, 0, 76, 105
2, 155400, Note_on_c, 0, 76, 0
2, 155520, Note_on_c, 0, 74, 125
2, 155760, Note_on_c, 0, 74, 0
2, 155760, Note_on_c, 0, 81, 105
2, 155952, Note_on_c, 0, 81, 0
2, 156000, Note_on_c, 0, 79, 105
2, 156120, Note_on_c, 0, 79, 0
2, 156120, Note_on_c, 0, 77, 105
2, 156240, Note_on_c, 0, 77, 0
2, 156240, Note_on_c, 0, 76, 105
2, 156360, Note_on_c, 0, 76, 0
2, 156360, Note_on_c, 0, 74, 105
2, 156456, Note_on_c, 0, 74, 0
2, 156480, Note_on_c, 0, 72, 105
2, 156864, Note_on_c, 0, 72, 0
2, 156960, Note_on_c, 0, 76, 105
2, 157080, Note_on_c, 0, 76, 0
2, 157080, Note_on_c, 0, 74, 105
2, 157200, Note_on_c, 0, 74, 0
2, 157200, Note_on_c, 0, 72, 105
2, 157320, Note_on_c, 0, 72, 0
2, 157320, Note_on_c, 0, 74, 105
2, 157416, Note_on_c, 0, 74, 0
2, 157440, Note_on_c, 0, 72, 92
2, 157824, Note_on_c, 0, 72, 0
2, 158400, Note_on_c, 0, 73, 72
2, 158520, Note_on_c, 0, 73, 0
2, 158520, Note_on_c, 0, 74, 72
2, 158640, Note_on_c, 0, 74, 0
2, 158640, Note_on_c, 0, 77, 72
2, 158760, Note_on_c, 0, 77, 0
2, 158760, Note_on_c, 0, 76, 72
2, 158880, Note_on_c, 0, 76, 0
2, 158880, Note_on_c, 0, 75, 72
2, 159000, Note_on_c, 0, 75, 0
2, 159000, Note_on_c, 0, 76, 72
2, 159120, Note_on_c, 0, 76, 0
2, 159120, Note_on_c, 0, 79, 72
2, 159240, Note_on_c, 0, 79, 0
2, 159240, Note_on_c, 0, 77, 72
2, 159336, Note_on_c, 0, 77, 0
2, 159360, Note_on_c, 0, 77, 72
2, 159744, Note_on_c, 0, 77, 0
2, 159840, Note_on_c, 0, 81, 72
2, 160200, Note_on_c, 0, 81, 0
2, 160200, Note_on_c, 0, 79, 72
2, 160296, Note_on_c, 0, 79, 0
2, 160320, Note_on_c, 0, 79, 72
2, 160704, Note_on_c, 0, 79, 0
2, 160800, Note_on_c, 0, 77, 72
2, 160920, Note_on_c, 0, 77, 0
2, 160920, Note_on_c, 0, 76, 72
2, 161040, Note_on_c, 0, 76, 0
2, 161040, Note_on_c, 0, 74, 72
2, 161160, Note_on_c, 0, 74, 0
2, 161160, Note_on_c, 0, 72, 72
2, 161256, Note_on_c, 0, 72, 0
2, 161280, Note_on_c, 0, 76, 72
2, 161760, Note_on_c, 0, 76, 0
2, 161760, Note_on_c, 0, 74, 72
2, 161952, Note_on_c, 0, 74, 0
2, 162240, Note_on_c, 0, 73, 58
2, 162360, Note_on_c, 0, 73, 0
2, 162360, Note_on_c, 0, 74, 72
2, 162480, Note_on_c, 0, 74, 0
2, 162480, Note_on_c, 0, 77, 72
2, 162600, Note_on_c, 0, 77, 0
2, 162600, Note_on_c, 0, 76, 72
2, 162720, Note_on_c, 0, 76, 0
2, 162720, Note_on_c, 0, 75, 72
2, 162840, Note_on_c, 0, 75, 0
2, 162840, Note_on_c, 0, 76, 72
2, 162960, Note_on_c, 0, 76, 0
2, 162960, Note_on_c, 0, 79, 72
2, 163080, Note_on_c, 0, 79, 0
2, 163080, Note_on_c, 0, 77, 72
2, 163176, Note_on_c, 0, 77, 0
2, 163200, Note_on_c, 0, 77, 72
2, 163584, Note_on_c, 0, 77, 0
2, 163680, Note_on_c, 0, 83, 81
2, 164040, Note_on_c, 0, 83, 0
2, 164040, Note_on_c, 0, 84, 81
2, 164136, Note_on_c, 0, 84, 0
2, 164160, Note_on_c, 0, 84, 92
2, 164544, Note_on_c, 0, 84, 0
2, 164640, Note_on_c, 0, 83, 105
2, 164760, Note_on_c, 0, 83, 0
2, 164760, Note_on_c, 0, 81, 105
2, 164880, Note_on_c, 0, 81, 0
2, 164880, Note_on_c, 0, 79, 105
2, 165000, Note_on_c, 0, 79, 0
2, 165000, Note_on_c, 0, 78, 105
2, 165096, Note_on_c, 0, 78, 0
2, 165120, Note_on_c, 0, 79, 116
2, 165240, Note_on_c, 0, 79, 0
2, 165240, Note_on_c, 0, 81, 116
2, 165360, Note_on_c, 0, 81, 0
2, 165360, Note_on_c, 0, 79, 116
2, 165480, Note_on_c, 0, 79, 0
2, 165480, Note_on_c, 0, 78, 116
2, 165600, Note_on_c, 0, 78, 0
2, 165600, Note_on_c, 0, 79, 81
2, 165720, Note_on_c, 0, 79, 0
2, 165720, Note_on_c, 0, 80, 81
2, 165840, Note_on_c, 0, 80, 0
2, 165840, Note_on_c, 0, 81, 81
2, 165960, Note_on_c, 0, 81, 0
2, 165960, Note_on_c, 0, 77, 81
2, 166080, Note_on_c, 0, 77, 0
2, 166080, Note_on_c, 0, 76, 72
2, 166272, Note_on_c, 0, 76, 0
2, 166560, Note_on_c, 0, 76, 72
2, 166752, Note_on_c, 0, 76, 0
2, 167040, Note_on_c, 0, 76, 72
2, 167760, Note_on_c, 0, 76, 0
2, 167760, Note_on_c, 0, 79, 72
2, 167952, Note_on_c, 0, 79, 0
2, 168000, Note_on_c, 0, 77, 72
2, 168240, Note_on_c, 0, 77, 0
2, 168240, Note_on_c, 0, 74, 72
2, 168480, Note_on_c, 0, 74, 0
2, 168480, Note_on_c, 0, 77, 72
2, 168720, Note_on_c, 0, 77, 0
2, 168720, Note_on_c, 0, 81, 72
2, 168912, Note_on_c, 0, 81, 0
2, 168960, Note_on_c, 0, 79, 72
2, 169320, Note_on_c, 0, 79, 0
2, 169320, Note_on_c, 0, 76, 72
2, 169416, Note_on_c, 0, 76, 0
2, 169440, Note_on_c, 0, 79, 72
2, 169632, Note_on_c, 0, 79, 0
2, 169920, Note_on_c, 0, 79, 105
2, 170160, Note_on_c, 0, 79, 0
2, 170160, Note_on_c, 0, 84, 105
2, 170280, Note_on_c, 0, 84, 0
2, 170400, Note_on_c, 0, 83, 105
2, 170640, Note_on_c, 0, 83, 0
2, 170640, Note_on_c, 0, 77, 105
2, 170760, Note_on_c, 0, 77, 0
2, 170880, Note_on_c, 0, 76, 105
2, 171120, Note_on_c, 0, 76, 0
2, 171120, Note_on_c, 0, 79, 105
2, 171240, Note_on_c, 0, 79, 0
2, 171360, Note_on_c, 0, 77, 105
2, 171600, Note_on_c, 0, 77, 0
2, 171600, Note_on_c, 0, 81, 105
2, 171720, Note_on_c, 0, 81, 0
2, 171840, Note_on_c, 0, 72, 105
2, 172224, Note_on_c, 0, 72, 0
2, 172320, Note_on_c, 0, 76, 105
2, 172440, Note_on_c, 0, 76, 0
2, 172440, Note_on_c, 0, 74, 105
2, 172560, Note_on_c, 0, 74, 0
2, 172560, Note_on_c, 0, 72, 105
2, 172680, Note_on_c, 0, 72, 0
2, 172680, Note_on_c, 0, 74, 105
2, 172776, Note_on_c, 0, 74, 0
2, 172800, Note_on_c, 0, 72, 92
2, 173184, Note_on_c, 0, 72, 0
2, 173760, Note_on_c, 0, 82, 112
2, 173760, Note_on_c, 0, 72, 92
2, 173760, Note_on_c, 0, 64, 92
2, 174144, Note_on_c, 0, 64, 0
2, 174144, Note_on_c, 0, 72, 0
2, 174144, Note_on_c, 0, 82, 0
2, 174720, Note_on_c, 0, 81, 112
2, 174720, Note_on_c, 0, 65, 92
2, 174720, Note_on_c, 0, 72, 92
2, 175104, Note_on_c, 0, 72, 0
2, 175104, Note_on_c, 0, 65, 0
2, 175104, Note_on_c, 0, 81, 0
2, 175680, Note_on_c, 0, 84, 112
2, 175680, Note_on_c, 0, 74, 92
2, 175680, Note_on_c, 0, 62, 92
2, 176064, Note_on_c, 0, 62, 0
2, 176064, Note_on_c, 0, 74, 0
2, 176064, Note_on_c, 0, 84, 0
2, 176640, Note_on_c, 0, 72, 72
2, 177360, Note_on_c, 0, 72, 0
2, 177360, Note_on_c, 0, 74, 72
2, 177420, Note_on_c, 0, 74, 0
2, 177420, Note_on_c, 0, 72, 72
2, 177480, Note_on_c, 0, 72, 0
2, 177480, Note_on_c, 0, 71, 72
2, 177540, Note_on_c, 0, 71, 0
2, 177540, Note_on_c, 0, 72, 72
2, 177600, Note_on_c, 0, 72, 0
2, 177600, Note_on_c, 0, 76, 72
2, 178080, Note_on_c, 0, 76, 0
2, 178080, Note_on_c, 0, 74, 72
2, 178440, Note_on_c, 0, 74, 0
2, 178440, Note_on_c, 0, 72, 72
2, 178554, Note_on_c, 0, 72, 0
2, 178560, Note_on_c, 0, 72, 58
2, 178944, Note_on_c, 0, 72, 0
2, 179520, Note_on_c, 0, 76, 72
2, 179712, Note_on_c, 0, 76, 0
2, 180000, Note_on_c, 0, 76, 72
2, 180192, Note_on_c, 0, 76, 0
2, 180480, Note_on_c, 0, 76, 72
2, 181200, Note_on_c, 0, 76, 0
2, 181200, Note_on_c, 0, 79, 72
2, 181392, Note_on_c, 0, 79, 0
2, 181440, Note_on_c, 0, 77, 72
2, 181680, Note_on_c, 0, 77, 0
2, 181680, Note_on_c, 0, 74, 72
2, 181920, Note_on_c, 0, 74, 0
2, 181920, Note_on_c, 0, 77, 72
2, 182160, Note_on_c, 0, 77, 0
2, 182160, Note_on_c, 0, 83, 72
2, 182352, Note_on_c, 0, 83, 0
2, 182400, Note_on_c, 0, 83, 72
2, 182880, Note_on_c, 0, 83, 0
2, 182880, Note_on_c, 0, 84, 72
2, 183072, Note_on_c, 0, 84, 0
2, 183360, Note_on_c, 0, 76, 72
2, 183552, Note_on_c, 0, 76, 0
2, 183840, Note_on_c, 0, 76, 72
2, 184032, Note_on_c, 0, 76, 0
2, 184320, Note_on_c, 0, 76, 72
2, 185040, Note_on_c, 0, 76, 0
2, 185040, Note_on_c, 0, 79, 72
2, 185232, Note_on_c, 0, 79, 0
2, 185280, Note_on_c, 0, 77, 72
2, 185520, Note_on_c, 0, 77, 0
2, 185520, Note_on_c, 0, 74, 72
2, 185760, Note_on_c, 0, 74, 0
2, 185760, Note_on_c, 0, 79, 72
2, 186000, Note_on_c, 0, 79, 0
2, 186000, Note_on_c, 0, 71, 72
2, 186228, Note_on_c, 0, 71, 0
2, 186240, Note_on_c, 0, 74, 72
2, 187200, Note_on_c, 0, 74, 0
2, 187200, Note_on_c, 0, 72, 58
2, 187440, Note_on_c, 0, 72, 0
2, 187440, End_track
3, 0, Start_track
3, 0, Program_c, 0, 48
3, 0, Control_c, 0, 7, 127
3, 0, Control_c, 0, 10, 99
3, 0, Control_c, 0, 91, 85
3, 960, Note_on_c, 0, 60, 58
3, 960, Control_c, 0, 10, 40
3, 1152, Note_on_c, 0, 60, 0
3, 1440, Note_on_c, 0, 60, 58
3, 1632, Note_on_c, 0, 60, 0
3, 1920, Note_on_c, 0, 60, 58
3, 2160, Note_on_c, 0, 60, 0
3, 2160, Note_on_c, 0, 55, 58
3, 2400, Note_on_c, 0, 55, 0
3, 2400, Note_on_c, 0, 60, 58
3, 2640, Note_on_c, 0, 60, 0
3, 2640, Note_on_c, 0, 64, 58
3, 2832, Note_on_c, 0, 64, 0
3, 2880, Note_on_c, 0, 62, 58
3, 3120, Note_on_c, 0, 62, 0
3, 3120, Note_on_c, 0, 59, 58
3, 3360, Note_on_c, 0, 59, 0
3, 3360, Note_on_c, 0, 62, 58
3, 3600, Note_on_c, 0, 62, 0
3, 3600, Note_on_c, 0, 65, 58
3, 3792, Note_on_c, 0, 65, 0
3, 3840, Note_on_c, 0, 64, 58
3, 4200, Note_on_c, 0, 64, 0
3, 4200, Note_on_c, 0, 60, 58
3, 4320, Note_on_c, 0, 60, 0
3, 4320, Note_on_c, 0, 64, 58
3, 4512, Note_on_c, 0, 64, 0
3, 4800, Note_on_c, 0, 69, 58
3, 4944, Note_on_c, 0, 69, 0
3, 5040, Note_on_c, 0, 69, 58
3, 5520, Note_on_c, 0, 69, 0
3, 5520, Note_on_c, 0, 67, 58
3, 5712, Note_on_c, 0, 67, 0
3, 5760, Note_on_c, 0, 65, 58
3, 5904, Note_on_c, 0, 65, 0
3, 6000, Note_on_c, 0, 65, 58
3, 6480, Note_on_c, 0, 65, 0
3, 6480, Note_on_c, 0, 64, 58
3, 6672, Note_on_c, 0, 64, 0
3, 6720, Note_on_c, 0, 64, 58
3, 6960, Note_on_c, 0, 64, 0
3, 6960, Note_on_c, 0, 62, 58
3, 7056, Note_on_c, 0, 62, 0
3, 7200, Note_on_c, 0, 62, 58
3, 7440, Note_on_c, 0, 62, 0
3, 7440, Note_on_c, 0, 60, 58
3, 7536, Note_on_c, 0, 60, 0
3, 7680, Note_on_c, 0, 64, 58
3, 8040, Note_on_c, 0, 64, 0
3, 8040, Note_on_c, 0, 60, 58
3, 8160, Note_on_c, 0, 60, 0
3, 8160, Note_on_c, 0, 59, 58
3, 8352, Note_on_c, 0, 59, 0
3, 8640, Note_on_c, 0, 60, 92
3, 8880, Note_on_c, 0, 60, 0
3, 8880, Note_on_c, 0, 55, 92
3, 9120, Note_on_c, 0, 55, 0
3, 9120, Note_on_c, 0, 60, 92
3, 9360, Note_on_c, 0, 60, 0
3, 9360, Note_on_c, 0, 55, 92
3, 9552, Note_on_c, 0, 55, 0
3, 9600, Note_on_c, 0, 60, 92
3, 9840, Note_on_c, 0, 60, 0
3, 9840, Note_on_c, 0, 55, 92
3, 10080, Note_on_c, 0, 55, 0
3, 10080, Note_on_c, 0, 60, 92
3, 10320, Note_on_c, 0, 60, 0
3, 10320, Note_on_c, 0, 64, 92
3, 10512, Note_on_c, 0, 64, 0
3, 10560, Note_on_c, 0, 62, 92
3, 10800, Note_on_c, 0, 62, 0
3, 10800, Note_on_c, 0, 59, 92
3, 11040, Note_on_c, 0, 59, 0
3, 11040, Note_on_c, 0, 62, 92
3, 11280, Note_on_c, 0, 62, 0
3, 11280, Note_on_c, 0, 65, 92
3, 11472, Note_on_c, 0, 65, 0
3, 11520, Note_on_c, 0, 64, 92
3, 11880, Note_on_c, 0, 64, 0
3, 11880, Note_on_c, 0, 60, 92
3, 11976, Note_on_c, 0, 60, 0
3, 12000, Note_on_c, 0, 64, 92
3, 12192, Note_on_c, 0, 64, 0
3, 12480, Note_on_c, 0, 67, 92
3, 12720, Note_on_c, 0, 67, 0
3, 12720, Note_on_c, 0, 72, 92
3, 12816, Note_on_c, 0, 72, 0
3, 12960, Note_on_c, 0, 60, 92
3, 13200, Note_on_c, 0, 60, 0
3, 13200, Note_on_c, 0, 67, 92
3, 13296, Note_on_c, 0, 67, 0
3, 13440, Note_on_c, 0, 69, 92
3, 13680, Note_on_c, 0, 69, 0
3, 13680, Note_on_c, 0, 72, 92
3, 13872, Note_on_c, 0, 72, 0
3, 13920, Note_on_c, 0, 71, 92
3, 14040, Note_on_c, 0, 71, 0
3, 14040, Note_on_c, 0, 69, 92
3, 14160, Note_on_c, 0, 69, 0
3, 14160, Note_on_c, 0, 67, 92
3, 14280, Note_on_c, 0, 67, 0
3, 14280, Note_on_c, 0, 65, 92
3, 14376, Note_on_c, 0, 65, 0
3, 14400, Note_on_c, 0, 64, 92
3, 14784, Note_on_c, 0, 64, 0
3, 14880, Note_on_c, 0, 67, 92
3, 15000, Note_on_c, 0, 67, 0
3, 15000, Note_on_c, 0, 65, 92
3, 15120, Note_on_c, 0, 65, 0
3, 15120, Note_on_c, 0, 64, 92
3, 15240, Note_on_c, 0, 64, 0
3, 15240, Note_on_c, 0, 65, 92
3, 15360, Note_on_c, 0, 65, 0
3, 15360, Note_on_c, 0, 64, 92
3, 15744, Note_on_c, 0, 64, 0
3, 16320, Note_on_c, 0, 60, 58
3, 16512, Note_on_c, 0, 60, 0
3, 16800, Note_on_c, 0, 60, 58
3, 16992, Note_on_c, 0, 60, 0
3, 17280, Note_on_c, 0, 60, 58
3, 17520, Note_on_c, 0, 60, 0
3, 17520, Note_on_c, 0, 55, 58
3, 17760, Note_on_c, 0, 55, 0
3, 17760, Note_on_c, 0, 60, 58
3, 18000, Note_on_c, 0, 60, 0
3, 18000, Note_on_c, 0, 64, 58
3, 18192, Note_on_c, 0, 64, 0
3, 18240, Note_on_c, 0, 62, 58
3, 18480, Note_on_c, 0, 62, 0
3, 18480, Note_on_c, 0, 59, 58
3, 18720, Note_on_c, 0, 59, 0
3, 18720, Note_on_c, 0, 62, 58
3, 18960, Note_on_c, 0, 62, 0
3, 18960, Note_on_c, 0, 65, 58
3, 19152, Note_on_c, 0, 65, 0
3, 19200, Note_on_c, 0, 64, 58
3, 19560, Note_on_c, 0, 64, 0
3, 19560, Note_on_c, 0, 60, 58
3, 19680, Note_on_c, 0, 60, 0
3, 19680, Note_on_c, 0, 64, 58
3, 19872, Note_on_c, 0, 64, 0
3, 20160, Note_on_c, 0, 69, 58
3, 20304, Note_on_c, 0, 69, 0
3, 20400, Note_on_c, 0, 69, 58
3, 20880, Note_on_c, 0, 69, 0
3, 20880, Note_on_c, 0, 67, 58
3, 21072, Note_on_c, 0, 67, 0
3, 21120, Note_on_c, 0, 65, 58
3, 21264, Note_on_c, 0, 65, 0
3, 21360, Note_on_c, 0, 65, 58
3, 21840, Note_on_c, 0, 65, 0
3, 21840, Note_on_c, 0, 64, 58
3, 22032, Note_on_c, 0, 64, 0
3, 22080, Note_on_c, 0, 64, 58
3, 22320, Note_on_c, 0, 64, 0
3, 22320, Note_on_c, 0, 62, 58
3, 22416, Note_on_c, 0, 62, 0
3, 22560, Note_on_c, 0, 62, 58
3, 22800, Note_on_c, 0, 62, 0
3, 22800, Note_on_c, 0, 60, 58
3, 22896, Note_on_c, 0, 60, 0
3, 23040, Note_on_c, 0, 64, 58
3, 23400, Note_on_c, 0, 64, 0
3, 23400, Note_on_c, 0, 60, 58
3, 23520, Note_on_c, 0, 60, 0
3, 23520, Note_on_c, 0, 59, 58
3, 23712, Note_on_c, 0, 59, 0
3, 24000, Note_on_c, 0, 60, 92
3, 24240, Note_on_c, 0, 60, 0
3, 24240, Note_on_c, 0, 55, 92
3, 24480, Note_on_c, 0, 55, 0
3, 24480, Note_on_c, 0, 60, 92
3, 24720, Note_on_c, 0, 60, 0
3, 24720, Note_on_c, 0, 55, 92
3, 24912, Note_on_c, 0, 55, 0
3, 24960, Note_on_c, 0, 60, 92
3, 25200, Note_on_c, 0, 60, 0
3, 25200, Note_on_c, 0, 55, 92
3, 25440, Note_on_c, 0, 55, 0
3, 25440, Note_on_c, 0, 60, 92
3, 25680, Note_on_c, 0, 60, 0
3, 25680, Note_on_c, 0, 64, 92
3, 25872, Note_on_c, 0, 64, 0
3, 25920, Note_on_c, 0, 62, 92
3, 26160, Note_on_c, 0, 62, 0
3, 26160, Note_on_c, 0, 59, 92
3, 26400, Note_on_c, 0, 59, 0
3, 26400, Note_on_c, 0, 62, 92
3, 26640, Note_on_c, 0, 62, 0
3, 26640, Note_on_c, 0, 65, 92
3, 26832, Note_on_c, 0, 65, 0
3, 26880, Note_on_c, 0, 64, 92
3, 27240, Note_on_c, 0, 64, 0
3, 27240, Note_on_c, 0, 60, 92
3, 27336, Note_on_c, 0, 60, 0
3, 27360, Note_on_c, 0, 64, 92
3, 27552, Note_on_c, 0, 64, 0
3, 27840, Note_on_c, 0, 67, 92
3, 28080, Note_on_c, 0, 67, 0
3, 28080, Note_on_c, 0, 72, 92
3, 28176, Note_on_c, 0, 72, 0
3, 28320, Note_on_c, 0, 60, 92
3, 28560, Note_on_c, 0, 60, 0
3, 28560, Note_on_c, 0, 67, 92
3, 28656, Note_on_c, 0, 67, 0
3, 28800, Note_on_c, 0, 69, 92
3, 29040, Note_on_c, 0, 69, 0
3, 29040, Note_on_c, 0, 72, 92
3, 29232, Note_on_c, 0, 72, 0
3, 29280, Note_on_c, 0, 71, 92
3, 29400, Note_on_c, 0, 71, 0
3, 29400, Note_on_c, 0, 69, 92
3, 29520, Note_on_c, 0, 69, 0
3, 29520, Note_on_c, 0, 67, 92
3, 29640, Note_on_c, 0, 67, 0
3, 29640, Note_on_c, 0, 65, 92
3, 29736, Note_on_c, 0, 65, 0
3, 29760, Note_on_c, 0, 64, 92
3, 30144, Note_on_c, 0, 64, 0
3, 30240, Note_on_c, 0, 67, 92
3, 30360, Note_on_c, 0, 67, 0
3, 30360, Note_on_c, 0, 65, 92
3, 30480, Note_on_c, 0, 65, 0
3, 30480, Note_on_c, 0, 64, 92
3, 30600, Note_on_c, 0, 64, 0
3, 30600, Note_on_c, 0, 65, 92
3, 30720, Note_on_c, 0, 65, 0
3, 30720, Note_on_c, 0, 64, 92
3, 31104, Note_on_c, 0, 64, 0
3, 32640, Note_on_c, 0, 62, 72
3, 32796, Note_on_c, 0, 62, 0
3, 32880, Note_on_c, 0, 62, 72
3, 33036, Note_on_c, 0, 62, 0
3, 33120, Note_on_c, 0, 62, 72
3, 33276, Note_on_c, 0, 62, 0
3, 33360, Note_on_c, 0, 62, 72
3, 33516, Note_on_c, 0, 62, 0
3, 33600, Note_on_c, 0, 64, 72
3, 33756, Note_on_c, 0, 64, 0
3, 33840, Note_on_c, 0, 64, 72
3, 33996, Note_on_c, 0, 64, 0
3, 34080, Note_on_c, 0, 67, 72
3, 34236, Note_on_c, 0, 67, 0
3, 34320, Note_on_c, 0, 67, 72
3, 34476, Note_on_c, 0, 67, 0
3, 34560, Note_on_c, 0, 72, 72
3, 35040, Note_on_c, 0, 72, 0
3, 35040, Note_on_c, 0, 71, 72
3, 35232, Note_on_c, 0, 71, 0
3, 36480, Note_on_c, 0, 62, 72
3, 36636, Note_on_c, 0, 62, 0
3, 36720, Note_on_c, 0, 62, 72
3, 36876, Note_on_c, 0, 62, 0
3, 36960, Note_on_c, 0, 65, 72
3, 37116, Note_on_c, 0, 65, 0
3, 37200, Note_on_c, 0, 65, 81
3, 37356, Note_on_c, 0, 65, 0
3, 37440, Note_on_c, 0, 64, 92
3, 37596, Note_on_c, 0, 64, 0
3, 37680, Note_on_c, 0, 64, 92
3, 37836, Note_on_c, 0, 64, 0
3, 37920, Note_on_c, 0, 60, 105
3, 38076, Note_on_c, 0, 60, 0
3, 38160, Note_on_c, 0, 60, 105
3, 38316, Note_on_c, 0, 60, 0
3, 38400, Note_on_c, 0, 59, 105
3, 38784, Note_on_c, 0, 59, 0
3, 39360, Note_on_c, 0, 60, 58
3, 39600, Note_on_c, 0, 60, 0
3, 39600, Note_on_c, 0, 55, 58
3, 39840, Note_on_c, 0, 55, 0
3, 39840, Note_on_c, 0, 60, 58
3, 40080, Note_on_c, 0, 60, 0
3, 40080, Note_on_c, 0, 55, 58
3, 40272, Note_on_c, 0, 55, 0
3, 40320, Note_on_c, 0, 61, 58
3, 40560, Note_on_c, 0, 61, 0
3, 40560, Note_on_c, 0, 55, 58
3, 40800, Note_on_c, 0, 55, 0
3, 40800, Note_on_c, 0, 61, 58
3, 41040, Note_on_c, 0, 61, 0
3, 41040, Note_on_c, 0, 64, 58
3, 41232, Note_on_c, 0, 64, 0
3, 41280, Note_on_c, 0, 62, 58
3, 41520, Note_on_c, 0, 62, 0
3, 41520, Note_on_c, 0, 57, 58
3, 41760, Note_on_c, 0, 57, 0
3, 41760, Note_on_c, 0, 62, 58
3, 42000, Note_on_c, 0, 62, 0
3, 42000, Note_on_c, 0, 65, 58
3, 42192, Note_on_c, 0, 65, 0
3, 42240, Note_on_c, 0, 64, 58
3, 42600, Note_on_c, 0, 64, 0
3, 42600, Note_on_c, 0, 60, 58
3, 42696, Note_on_c, 0, 60, 0
3, 42720, Note_on_c, 0, 64, 58
3, 42912, Note_on_c, 0, 64, 0
3, 43200, Note_on_c, 0, 72, 105
3, 43440, Note_on_c, 0, 72, 0
3, 43440, Note_on_c, 0, 64, 105
3, 43536, Note_on_c, 0, 64, 0
3, 43680, Note_on_c, 0, 65, 105
3, 43920, Note_on_c, 0, 65, 0
3, 43920, Note_on_c, 0, 71, 105
3, 44016, Note_on_c, 0, 71, 0
3, 44160, Note_on_c, 0, 72, 105
3, 44400, Note_on_c, 0, 72, 0
3, 44400, Note_on_c, 0, 64, 105
3, 44520, Note_on_c, 0, 64, 0
3, 44640, Note_on_c, 0, 72, 105
3, 44880, Note_on_c, 0, 72, 0
3, 44880, Note_on_c, 0, 62, 105
3, 45000, Note_on_c, 0, 62, 0
3, 45120, Note_on_c, 0, 64, 105
3, 45504, Note_on_c, 0, 64, 0
3, 45600, Note_on_c, 0, 67, 105
3, 45720, Note_on_c, 0, 67, 0
3, 45720, Note_on_c, 0, 65, 105
3, 45840, Note_on_c, 0, 65, 0
3, 45840, Note_on_c, 0, 64, 105
3, 45960, Note_on_c, 0, 64, 0
3, 45960, Note_on_c, 0, 65, 105
3, 46056, Note_on_c, 0, 65, 0
3, 46080, Note_on_c, 0, 64, 92
3, 46464, Note_on_c, 0, 64, 0
3, 48000, Note_on_c, 0, 62, 72
3, 48156, Note_on_c, 0, 62, 0
3, 48240, Note_on_c, 0, 62, 72
3, 48396, Note_on_c, 0, 62, 0
3, 48480, Note_on_c, 0, 62, 72
3, 48636, Note_on_c, 0, 62, 0
3, 48720, Note_on_c, 0, 62, 72
3, 48876, Note_on_c, 0, 62, 0
3, 48960, Note_on_c, 0, 64, 72
3, 49116, Note_on_c, 0, 64, 0
3, 49200, Note_on_c, 0, 64, 72
3, 49356, Note_on_c, 0, 64, 0
3, 49440, Note_on_c, 0, 67, 72
3, 49596, Note_on_c, 0, 67, 0
3, 49680, Note_on_c, 0, 67, 72
3, 49836, Note_on_c, 0, 67, 0
3, 49920, Note_on_c, 0, 72, 72
3, 50400, Note_on_c, 0, 72, 0
3, 50400, Note_on_c, 0, 71, 72
3, 50592, Note_on_c, 0, 71, 0
3, 51840, Note_on_c, 0, 62, 72
3, 51996, Note_on_c, 0, 62, 0
3, 52080, Note_on_c, 0, 62, 72
3, 52236, Note_on_c, 0, 62, 0
3, 52320, Note_on_c, 0, 65, 72
3, 52476, Note_on_c, 0, 65, 0
3, 52560, Note_on_c, 0, 65, 81
3, 52716, Note_on_c, 0, 65, 0
3, 52800, Note_on_c, 0, 64, 92
3, 52956, Note_on_c, 0, 64, 0
3, 53040, Note_on_c, 0, 64, 92
3, 53196, Note_on_c, 0, 64, 0
3, 53280, Note_on_c, 0, 60, 105
3, 53436, Note_on_c, 0, 60, 0
3, 53520, Note_on_c, 0, 60, 105
3, 53676, Note_on_c, 0, 60, 0
3, 53760, Note_on_c, 0, 59, 105
3, 54144, Note_on_c, 0, 59, 0
3, 54720, Note_on_c, 0, 60, 58
3, 54960, Note_on_c, 0, 60, 0
3, 54960, Note_on_c, 0, 55, 58
3, 55200, Note_on_c, 0, 55, 0
3, 55200, Note_on_c, 0, 60, 58
3, 55440, Note_on_c, 0, 60, 0
3, 55440, Note_on_c, 0, 55, 58
3, 55632, Note_on_c, 0, 55, 0
3, 55680, Note_on_c, 0, 61, 58
3, 55920, Note_on_c, 0, 61, 0
3, 55920, Note_on_c, 0, 55, 58
3, 56160, Note_on_c, 0, 55, 0
3, 56160, Note_on_c, 0, 61, 58
3, 56400, Note_on_c, 0, 61, 0
3, 56400, Note_on_c, 0, 64, 58
3, 56592, Note_on_c, 0, 64, 0
3, 56640, Note_on_c, 0, 62, 58
3, 56880, Note_on_c, 0, 62, 0
3, 56880, Note_on_c, 0, 57, 58
3, 57120, Note_on_c, 0, 57, 0
3, 57120, Note_on_c, 0, 62, 58
3, 57360, Note_on_c, 0, 62, 0
3, 57360, Note_on_c, 0, 65, 58
3, 57552, Note_on_c, 0, 65, 0
3, 57600, Note_on_c, 0, 64, 58
3, 57960, Note_on_c, 0, 64, 0
3, 57960, Note_on_c, 0, 60, 58
3, 58056, Note_on_c, 0, 60, 0
3, 58080, Note_on_c, 0, 64, 58
3, 58272, Note_on_c, 0, 64, 0
3, 58560, Note_on_c, 0, 72, 105
3, 58800, Note_on_c, 0, 72, 0
3, 58800, Note_on_c, 0, 64, 105
3, 58896, Note_on_c, 0, 64, 0
3, 59040, Note_on_c, 0, 65, 105
3, 59280, Note_on_c, 0, 65, 0
3, 59280, Note_on_c, 0, 71, 105
3, 59376, Note_on_c, 0, 71, 0
3, 59520, Note_on_c, 0, 72, 105
3, 59760, Note_on_c, 0, 72, 0
3, 59760, Note_on_c, 0, 64, 105
3, 59880, Note_on_c, 0, 64, 0
3, 60000, Note_on_c, 0, 72, 105
3, 60240, Note_on_c, 0, 72, 0
3, 60240, Note_on_c, 0, 62, 105
3, 60360, Note_on_c, 0, 62, 0
3, 60480, Note_on_c, 0, 64, 105
3, 60864, Note_on_c, 0, 64, 0
3, 60960, Note_on_c, 0, 67, 105
3, 61080, Note_on_c, 0, 67, 0
3, 61080, Note_on_c, 0, 65, 105
3, 61200, Note_on_c, 0, 65, 0
3, 61200, Note_on_c, 0, 64, 105
3, 61320, Note_on_c, 0, 64, 0
3, 61320, Note_on_c, 0, 65, 105
3, 61416, Note_on_c, 0, 65, 0
3, 61440, Note_on_c, 0, 64, 92
3, 61824, Note_on_c, 0, 64, 0
3, 62400, Note_on_c, 0, 60, 58
3, 62544, Note_on_c, 0, 60, 0
3, 62640, Note_on_c, 0, 60, 58
3, 62784, Note_on_c, 0, 60, 0
3, 62880, Note_on_c, 0, 60, 58
3, 63024, Note_on_c, 0, 60, 0
3, 63120, Note_on_c, 0, 60, 58
3, 63264, Note_on_c, 0, 60, 0
3, 63360, Note_on_c, 0, 61, 58
3, 63840, Note_on_c, 0, 61, 0
3, 63840, Note_on_c, 0, 62, 58
3, 64032, Note_on_c, 0, 62, 0
3, 64320, Note_on_c, 0, 64, 58
3, 64464, Note_on_c, 0, 64, 0
3, 64560, Note_on_c, 0, 64, 58
3, 64704, Note_on_c, 0, 64, 0
3, 64800, Note_on_c, 0, 64, 58
3, 64944, Note_on_c, 0, 64, 0
3, 65040, Note_on_c, 0, 64, 58
3, 65184, Note_on_c, 0, 64, 0
3, 65280, Note_on_c, 0, 64, 58
3, 65520, Note_on_c, 0, 64, 0
3, 65520, Note_on_c, 0, 67, 58
3, 65640, Note_on_c, 0, 67, 0
3, 65640, Note_on_c, 0, 65, 58
3, 65760, Note_on_c, 0, 65, 0
3, 65760, Note_on_c, 0, 64, 58
3, 65880, Note_on_c, 0, 64, 0
3, 65880, Note_on_c, 0, 62, 58
3, 66000, Note_on_c, 0, 62, 0
3, 66000, Note_on_c, 0, 60, 58
3, 66120, Note_on_c, 0, 60, 0
3, 66120, Note_on_c, 0, 59, 58
3, 66240, Note_on_c, 0, 59, 0
3, 66240, Note_on_c, 0, 60, 58
3, 66480, Note_on_c, 0, 60, 0
3, 66480, Note_on_c, 0, 72, 58
3, 66624, Note_on_c, 0, 72, 0
3, 66720, Note_on_c, 0, 72, 58
3, 66864, Note_on_c, 0, 72, 0
3, 66960, Note_on_c, 0, 72, 58
3, 67104, Note_on_c, 0, 72, 0
3, 67200, Note_on_c, 0, 71, 58
3, 67584, Note_on_c, 0, 71, 0
3, 67920, Note_on_c, 0, 58, 58
3, 68064, Note_on_c, 0, 58, 0
3, 68160, Note_on_c, 0, 59, 58
3, 68544, Note_on_c, 0, 59, 0
3, 68880, Note_on_c, 0, 60, 58
3, 69024, Note_on_c, 0, 60, 0
3, 69120, Note_on_c, 0, 60, 58
3, 69600, Note_on_c, 0, 60, 0
3, 69600, Note_on_c, 0, 59, 58
3, 69792, Note_on_c, 0, 59, 0
3, 70080, Note_on_c, 0, 60, 58
3, 70224, Note_on_c, 0, 60, 0
3, 70320, Note_on_c, 0, 60, 58
3, 70464, Note_on_c, 0, 60, 0
3, 70560, Note_on_c, 0, 60, 58
3, 70704, Note_on_c, 0, 60, 0
3, 70800, Note_on_c, 0, 60, 58
3, 70944, Note_on_c, 0, 60, 0
3, 71040, Note_on_c, 0, 61, 58
3, 71520, Note_on_c, 0, 61, 0
3, 71520, Note_on_c, 0, 62, 58
3, 71712, Note_on_c, 0, 62, 0
3, 72000, Note_on_c, 0, 64, 58
3, 72144, Note_on_c, 0, 64, 0
3, 72240, Note_on_c, 0, 64, 58
3, 72384, Note_on_c, 0, 64, 0
3, 72480, Note_on_c, 0, 64, 58
3, 72624, Note_on_c, 0, 64, 0
3, 72720, Note_on_c, 0, 64, 58
3, 72864, Note_on_c, 0, 64, 0
3, 72960, Note_on_c, 0, 64, 58
3, 73200, Note_on_c, 0, 64, 0
3, 73200, Note_on_c, 0, 67, 58
3, 73320, Note_on_c, 0, 67, 0
3, 73320, Note_on_c, 0, 65, 58
3, 73440, Note_on_c, 0, 65, 0
3, 73440, Note_on_c, 0, 64, 58
3, 73560, Note_on_c, 0, 64, 0
3, 73560, Note_on_c, 0, 62, 58
3, 73680, Note_on_c, 0, 62, 0
3, 73680, Note_on_c, 0, 60, 58
3, 73800, Note_on_c, 0, 60, 0
3, 73800, Note_on_c, 0, 59, 58
3, 73920, Note_on_c, 0, 59, 0
3, 73920, Note_on_c, 0, 60, 58
3, 74160, Note_on_c, 0, 60, 0
3, 74160, Note_on_c, 0, 72, 58
3, 74304, Note_on_c, 0, 72, 0
3, 74400, Note_on_c, 0, 72, 58
3, 74544, Note_on_c, 0, 72, 0
3, 74640, Note_on_c, 0, 72, 58
3, 74784, Note_on_c, 0, 72, 0
3, 74880, Note_on_c, 0, 71, 58
3, 75264, Note_on_c, 0, 71, 0
3, 75600, Note_on_c, 0, 58, 58
3, 75744, Note_on_c, 0, 58, 0
3, 75840, Note_on_c, 0, 59, 58
3, 76224, Note_on_c, 0, 59, 0
3, 76560, Note_on_c, 0, 60, 58
3, 76704, Note_on_c, 0, 60, 0
3, 76800, Note_on_c, 0, 60, 58
3, 77280, Note_on_c, 0, 60, 0
3, 77280, Note_on_c, 0, 59, 58
3, 77472, Note_on_c, 0, 59, 0
3, 77760, Note_on_c, 0, 64, 58
3, 77904, Note_on_c, 0, 64, 0
3, 78000, Note_on_c, 0, 64, 58
3, 78144, Note_on_c, 0, 64, 0
3, 78240, Note_on_c, 0, 64, 58
3, 78384, Note_on_c, 0, 64, 0
3, 78480, Note_on_c, 0, 62, 58
3, 78624, Note_on_c, 0, 62, 0
3, 78720, Note_on_c, 0, 61, 58
3, 79104, Note_on_c, 0, 61, 0
3, 79680, Note_on_c, 0, 62, 58
3, 79824, Note_on_c, 0, 62, 0
3, 79920, Note_on_c, 0, 62, 58
3, 80064, Note_on_c, 0, 62, 0
3, 80160, Note_on_c, 0, 62, 58
3, 80304, Note_on_c, 0, 62, 0
3, 80400, Note_on_c, 0, 60, 58
3, 80544, Note_on_c, 0, 60, 0
3, 80640, Note_on_c, 0, 59, 58
3, 81024, Note_on_c, 0, 59, 0
3, 81600, Note_on_c, 0, 67, 58
3, 81792, Note_on_c, 0, 67, 0
3, 81840, Note_on_c, 0, 67, 58
3, 81984, Note_on_c, 0, 67, 0
3, 82080, Note_on_c, 0, 72, 58
3, 82224, Note_on_c, 0, 72, 0
3, 82320, Note_on_c, 0, 72, 58
3, 82464, Note_on_c, 0, 72, 0
3, 82560, Note_on_c, 0, 71, 58
3, 82944, Note_on_c, 0, 71, 0
3, 83280, Note_on_c, 0, 68, 58
3, 83520, Note_on_c, 0, 68, 0
3, 83520, Note_on_c, 0, 69, 58
3, 83904, Note_on_c, 0, 69, 0
3, 84240, Note_on_c, 0, 63, 58
3, 84480, Note_on_c, 0, 63, 0
3, 84480, Note_on_c, 0, 64, 58
3, 84864, Note_on_c, 0, 64, 0
3, 85200, Note_on_c, 0, 74, 58
3, 85440, Note_on_c, 0, 74, 0
3, 85440, Note_on_c, 0, 73, 58
3, 85584, Note_on_c, 0, 73, 0
3, 85680, Note_on_c, 0, 73, 58
3, 85824, Note_on_c, 0, 73, 0
3, 85920, Note_on_c, 0, 72, 58
3, 86064, Note_on_c, 0, 72, 0
3, 86160, Note_on_c, 0, 72, 58
3, 86304, Note_on_c, 0, 72, 0
3, 86400, Note_on_c, 0, 71, 58
3, 86784, Note_on_c, 0, 71, 0
3, 87120, Note_on_c, 0, 74, 58
3, 87360, Note_on_c, 0, 74, 0
3, 87360, Note_on_c, 0, 72, 58
3, 87744, Note_on_c, 0, 72, 0
3, 88080, Note_on_c, 0, 75, 58
3, 88320, Note_on_c, 0, 75, 0
3, 88320, Note_on_c, 0, 76, 58
3, 88704, Note_on_c, 0, 76, 0
3, 89040, Note_on_c, 0, 69, 72
3, 89184, Note_on_c, 0, 69, 0
3, 89280, Note_on_c, 0, 68, 72
3, 89520, Note_on_c, 0, 68, 0
3, 89520, Note_on_c, 0, 71, 72
3, 89664, Note_on_c, 0, 71, 0
3, 89760, Note_on_c, 0, 64, 72
3, 89904, Note_on_c, 0, 64, 0
3, 90000, Note_on_c, 0, 69, 58
3, 90144, Note_on_c, 0, 69, 0
3, 90240, Note_on_c, 0, 68, 58
3, 90480, Note_on_c, 0, 68, 0
3, 90480, Note_on_c, 0, 71, 58
3, 90624, Note_on_c, 0, 71, 0
3, 90720, Note_on_c, 0, 64, 58
3, 90864, Note_on_c, 0, 64, 0
3, 90960, Note_on_c, 0, 69, 58
3, 91104, Note_on_c, 0, 69, 0
3, 91200, Note_on_c, 0, 68, 58
3, 91440, Note_on_c, 0, 68, 0
3, 91440, Note_on_c, 0, 71, 58
3, 91584, Note_on_c, 0, 71, 0
3, 91680, Note_on_c, 0, 64, 58
3, 91824, Note_on_c, 0, 64, 0
3, 93840, Note_on_c, 0, 74, 72
3, 93984, Note_on_c, 0, 74, 0
3, 94080, Note_on_c, 0, 73, 72
3, 94320, Note_on_c, 0, 73, 0
3, 94320, Note_on_c, 0, 76, 72
3, 94464, Note_on_c, 0, 76, 0
3, 94560, Note_on_c, 0, 69, 72
3, 94704, Note_on_c, 0, 69, 0
3, 94800, Note_on_c, 0, 71, 72
3, 94944, Note_on_c, 0, 71, 0
3, 95040, Note_on_c, 0, 72, 72
3, 95760, Note_on_c, 0, 72, 0
3, 95760, Note_on_c, 0, 71, 72
3, 95880, Note_on_c, 0, 71, 0
3, 95880, Note_on_c, 0, 69, 72
3, 96000, Note_on_c, 0, 69, 0
3, 96000, Note_on_c, 0, 67, 72
3, 96192, Note_on_c, 0, 67, 0
3, 96240, Note_on_c, 0, 59, 72
3, 96720, Note_on_c, 0, 59, 0
3, 96720, Note_on_c, 0, 62, 58
3, 96912, Note_on_c, 0, 62, 0
3, 96960, Note_on_c, 0, 60, 58
3, 97152, Note_on_c, 0, 60, 0
3, 97440, Note_on_c, 0, 60, 58
3, 97632, Note_on_c, 0, 60, 0
3, 97920, Note_on_c, 0, 60, 58
3, 98160, Note_on_c, 0, 60, 0
3, 98160, Note_on_c, 0, 55, 58
3, 98400, Note_on_c, 0, 55, 0
3, 98400, Note_on_c, 0, 60, 58
3, 98640, Note_on_c, 0, 60, 0
3, 98640, Note_on_c, 0, 64, 58
3, 98832, Note_on_c, 0, 64, 0
3, 98880, Note_on_c, 0, 62, 58
3, 99120, Note_on_c, 0, 62, 0
3, 99120, Note_on_c, 0, 59, 58
3, 99360, Note_on_c, 0, 59, 0
3, 99360, Note_on_c, 0, 62, 58
3, 99600, Note_on_c, 0, 62, 0
3, 99600, Note_on_c, 0, 65, 58
3, 99792, Note_on_c, 0, 65, 0
3, 99840, Note_on_c, 0, 64, 58
3, 100200, Note_on_c, 0, 64, 0
3, 100200, Note_on_c, 0, 60, 58
3, 100296, Note_on_c, 0, 60, 0
3, 100320, Note_on_c, 0, 64, 58
3, 100512, Note_on_c, 0, 64, 0
3, 100800, Note_on_c, 0, 69, 58
3, 100944, Note_on_c, 0, 69, 0
3, 101040, Note_on_c, 0, 69, 58
3, 101520, Note_on_c, 0, 69, 0
3, 101520, Note_on_c, 0, 67, 58
3, 101712, Note_on_c, 0, 67, 0
3, 101760, Note_on_c, 0, 65, 58
3, 101904, Note_on_c, 0, 65, 0
3, 102000, Note_on_c, 0, 65, 58
3, 102480, Note_on_c, 0, 65, 0
3, 102480, Note_on_c, 0, 64, 58
3, 102672, Note_on_c, 0, 64, 0
3, 102720, Note_on_c, 0, 64, 58
3, 102960, Note_on_c, 0, 64, 0
3, 102960, Note_on_c, 0, 62, 58
3, 103080, Note_on_c, 0, 62, 0
3, 103200, Note_on_c, 0, 62, 58
3, 103440, Note_on_c, 0, 62, 0
3, 103440, Note_on_c, 0, 60, 58
3, 103560, Note_on_c, 0, 60, 0
3, 103680, Note_on_c, 0, 64, 58
3, 104040, Note_on_c, 0, 64, 0
3, 104040, Note_on_c, 0, 60, 58
3, 104136, Note_on_c, 0, 60, 0
3, 104160, Note_on_c, 0, 59, 58
3, 104352, Note_on_c, 0, 59, 0
3, 104640, Note_on_c, 0, 60, 92
3, 104880, Note_on_c, 0, 60, 0
3, 104880, Note_on_c, 0, 55, 92
3, 105120, Note_on_c, 0, 55, 0
3, 105120, Note_on_c, 0, 60, 92
3, 105360, Note_on_c, 0, 60, 0
3, 105360, Note_on_c, 0, 55, 92
3, 105552, Note_on_c, 0, 55, 0
3, 105600, Note_on_c, 0, 60, 92
3, 105840, Note_on_c, 0, 60, 0
3, 105840, Note_on_c, 0, 55, 92
3, 106080, Note_on_c, 0, 55, 0
3, 106080, Note_on_c, 0, 60, 92
3, 106320, Note_on_c, 0, 60, 0
3, 106320, Note_on_c, 0, 64, 92
3, 106512, Note_on_c, 0, 64, 0
3, 106560, Note_on_c, 0, 62, 92
3, 106800, Note_on_c, 0, 62, 0
3, 106800, Note_on_c, 0, 59, 92
3, 107040, Note_on_c, 0, 59, 0
3, 107040, Note_on_c, 0, 62, 92
3, 107280, Note_on_c, 0, 62, 0
3, 107280, Note_on_c, 0, 65, 92
3, 107472, Note_on_c, 0, 65, 0
3, 107520, Note_on_c, 0, 64, 92
3, 107880, Note_on_c, 0, 64, 0
3, 107880, Note_on_c, 0, 60, 92
3, 107976, Note_on_c, 0, 60, 0
3, 108000, Note_on_c, 0, 64, 92
3, 108192, Note_on_c, 0, 64, 0
3, 108480, Note_on_c, 0, 67, 92
3, 108720, Note_on_c, 0, 67, 0
3, 108720, Note_on_c, 0, 72, 92
3, 108840, Note_on_c, 0, 72, 0
3, 108960, Note_on_c, 0, 60, 92
3, 109200, Note_on_c, 0, 60, 0
3, 109200, Note_on_c, 0, 67, 92
3, 109320, Note_on_c, 0, 67, 0
3, 109440, Note_on_c, 0, 69, 92
3, 109680, Note_on_c, 0, 69, 0
3, 109680, Note_on_c, 0, 72, 92
3, 109872, Note_on_c, 0, 72, 0
3, 109920, Note_on_c, 0, 71, 92
3, 110040, Note_on_c, 0, 71, 0
3, 110040, Note_on_c, 0, 69, 92
3, 110160, Note_on_c, 0, 69, 0
3, 110160, Note_on_c, 0, 67, 92
3, 110280, Note_on_c, 0, 67, 0
3, 110280, Note_on_c, 0, 65, 92
3, 110376, Note_on_c, 0, 65, 0
3, 110400, Note_on_c, 0, 64, 92
3, 110784, Note_on_c, 0, 64, 0
3, 110880, Note_on_c, 0, 67, 92
3, 111000, Note_on_c, 0, 67, 0
3, 111000, Note_on_c, 0, 65, 92
3, 111120, Note_on_c, 0, 65, 0
3, 111120, Note_on_c, 0, 64, 92
3, 111240, Note_on_c, 0, 64, 0
3, 111240, Note_on_c, 0, 65, 92
3, 111336, Note_on_c, 0, 65, 0
3, 111360, Note_on_c, 0, 64, 92
3, 111744, Note_on_c, 0, 64, 0
3, 112320, Note_on_c, 0, 63, 58
3, 112416, Note_on_c, 0, 63, 0
3, 112440, Note_on_c, 0, 63, 58
3, 112536, Note_on_c, 0, 63, 0
3, 112560, Note_on_c, 0, 62, 58
3, 112656, Note_on_c, 0, 62, 0
3, 112680, Note_on_c, 0, 62, 58
3, 112776, Note_on_c, 0, 62, 0
3, 112800, Note_on_c, 0, 63, 58
3, 112896, Note_on_c, 0, 63, 0
3, 112920, Note_on_c, 0, 63, 58
3, 113016, Note_on_c, 0, 63, 0
3, 113040, Note_on_c, 0, 65, 58
3, 113136, Note_on_c, 0, 65, 0
3, 113160, Note_on_c, 0, 65, 58
3, 113256, Note_on_c, 0, 65, 0
3, 113280, Note_on_c, 0, 67, 58
3, 113376, Note_on_c, 0, 67, 0
3, 113400, Note_on_c, 0, 67, 58
3, 113496, Note_on_c, 0, 67, 0
3, 113520, Note_on_c, 0, 68, 58
3, 113616, Note_on_c, 0, 68, 0
3, 113640, Note_on_c, 0, 68, 58
3, 113736, Note_on_c, 0, 68, 0
3, 113760, Note_on_c, 0, 67, 58
3, 113856, Note_on_c, 0, 67, 0
3, 113880, Note_on_c, 0, 67, 58
3, 113976, Note_on_c, 0, 67, 0
3, 114000, Note_on_c, 0, 65, 58
3, 114096, Note_on_c, 0, 65, 0
3, 114120, Note_on_c, 0, 65, 58
3, 114216, Note_on_c, 0, 65, 0
3, 114240, Note_on_c, 0, 63, 58
3, 114336, Note_on_c, 0, 63, 0
3, 114360, Note_on_c, 0, 63, 58
3, 114456, Note_on_c, 0, 63, 0
3, 114480, Note_on_c, 0, 62, 58
3, 114576, Note_on_c, 0, 62, 0
3, 114600, Note_on_c, 0, 62, 58
3, 114696, Note_on_c, 0, 62, 0
3, 114720, Note_on_c, 0, 63, 58
3, 114816, Note_on_c, 0, 63, 0
3, 114840, Note_on_c, 0, 63, 58
3, 114936, Note_on_c, 0, 63, 0
3, 114960, Note_on_c, 0, 65, 58
3, 115056, Note_on_c, 0, 65, 0
3, 115080, Note_on_c, 0, 65, 58
3, 115176, Note_on_c, 0, 65, 0
3, 115200, Note_on_c, 0, 67, 58
3, 115296, Note_on_c, 0, 67, 0
3, 115320, Note_on_c, 0, 67, 58
3, 115416, Note_on_c, 0, 67, 0
3, 115440, Note_on_c, 0, 68, 58
3, 115536, Note_on_c, 0, 68, 0
3, 115560, Note_on_c, 0, 68, 58
3, 115656, Note_on_c, 0, 68, 0
3, 115680, Note_on_c, 0, 67, 58
3, 115776, Note_on_c, 0, 67, 0
3, 115800, Note_on_c, 0, 67, 58
3, 115896, Note_on_c, 0, 67, 0
3, 115920, Note_on_c, 0, 65, 58
3, 116016, Note_on_c, 0, 65, 0
3, 116040, Note_on_c, 0, 65, 58
3, 116136, Note_on_c, 0, 65, 0
3, 116160, Note_on_c, 0, 63, 58
3, 116256, Note_on_c, 0, 63, 0
3, 116280, Note_on_c, 0, 63, 58
3, 116376, Note_on_c, 0, 63, 0
3, 116400, Note_on_c, 0, 62, 58
3, 116496, Note_on_c, 0, 62, 0
3, 116520, Note_on_c, 0, 62, 58
3, 116616, Note_on_c, 0, 62, 0
3, 116640, Note_on_c, 0, 63, 58
3, 116736, Note_on_c, 0, 63, 0
3, 116760, Note_on_c, 0, 63, 58
3, 116856, Note_on_c, 0, 63, 0
3, 116880, Note_on_c, 0, 67, 58
3, 116976, Note_on_c, 0, 67, 0
3, 117000, Note_on_c, 0, 67, 58
3, 117096, Note_on_c, 0, 67, 0
3, 117120, Note_on_c, 0, 65, 78
3, 117216, Note_on_c, 0, 65, 0
3, 117240, Note_on_c, 0, 65, 58
3, 117336, Note_on_c, 0, 65, 0
3, 117360, Note_on_c, 0, 65, 58
3, 117456, Note_on_c, 0, 65, 0
3, 117480, Note_on_c, 0, 65, 58
3, 117576, Note_on_c, 0, 65, 0
3, 117600, Note_on_c, 0, 65, 58
3, 117696, Note_on_c, 0, 65, 0
3, 117720, Note_on_c, 0, 65, 58
3, 117816, Note_on_c, 0, 65, 0
3, 117840, Note_on_c, 0, 63, 58
3, 117936, Note_on_c, 0, 63, 0
3, 117960, Note_on_c, 0, 63, 58
3, 118056, Note_on_c, 0, 63, 0
3, 118080, Note_on_c, 0, 68, 58
3, 118176, Note_on_c, 0, 68, 0
3, 118200, Note_on_c, 0, 68, 58
3, 118296, Note_on_c, 0, 68, 0
3, 118320, Note_on_c, 0, 68, 58
3, 118416, Note_on_c, 0, 68, 0
3, 118440, Note_on_c, 0, 68, 58
3, 118536, Note_on_c, 0, 68, 0
3, 118560, Note_on_c, 0, 68, 58
3, 118656, Note_on_c, 0, 68, 0
3, 118680, Note_on_c, 0, 68, 58
3, 118776, Note_on_c, 0, 68, 0
3, 118800, Note_on_c, 0, 68, 58
3, 118896, Note_on_c, 0, 68, 0
3, 118920, Note_on_c, 0, 68, 58
3, 119016, Note_on_c, 0, 68, 0
3, 119040, Note_on_c, 0, 67, 58
3, 119136, Note_on_c, 0, 67, 0
3, 119160, Note_on_c, 0, 67, 58
3, 119256, Note_on_c, 0, 67, 0
3, 119280, Note_on_c, 0, 68, 58
3, 119376, Note_on_c, 0, 68, 0
3, 119400, Note_on_c, 0, 68, 58
3, 119496, Note_on_c, 0, 68, 0
3, 119520, Note_on_c, 0, 67, 58
3, 119616, Note_on_c, 0, 67, 0
3, 119640, Note_on_c, 0, 67, 58
3, 119736, Note_on_c, 0, 67, 0
3, 119760, Note_on_c, 0, 65, 58
3, 119856, Note_on_c, 0, 65, 0
3, 119880, Note_on_c, 0, 65, 58
3, 119976, Note_on_c, 0, 65, 0
3, 120000, Note_on_c, 0, 63, 58
3, 120096, Note_on_c, 0, 63, 0
3, 120120, Note_on_c, 0, 63, 58
3, 120216, Note_on_c, 0, 63, 0
3, 120240, Note_on_c, 0, 62, 58
3, 120336, Note_on_c, 0, 62, 0
3, 120360, Note_on_c, 0, 62, 58
3, 120456, Note_on_c, 0, 62, 0
3, 120480, Note_on_c, 0, 63, 58
3, 120576, Note_on_c, 0, 63, 0
3, 120600, Note_on_c, 0, 63, 58
3, 120696, Note_on_c, 0, 63, 0
3, 120720, Note_on_c, 0, 65, 58
3, 120816, Note_on_c, 0, 65, 0
3, 120840, Note_on_c, 0, 65, 58
3, 120936, Note_on_c, 0, 65, 0
3, 120960, Note_on_c, 0, 67, 58
3, 121056, Note_on_c, 0, 67, 0
3, 121080, Note_on_c, 0, 67, 58
3, 121176, Note_on_c, 0, 67, 0
3, 121200, Note_on_c, 0, 68, 58
3, 121296, Note_on_c, 0, 68, 0
3, 121320, Note_on_c, 0, 68, 58
3, 121416, Note_on_c, 0, 68, 0
3, 121440, Note_on_c, 0, 67, 58
3, 121536, Note_on_c, 0, 67, 0
3, 121560, Note_on_c, 0, 67, 58
3, 121656, Note_on_c, 0, 67, 0
3, 121680, Note_on_c, 0, 65, 58
3, 121776, Note_on_c, 0, 65, 0
3, 121800, Note_on_c, 0, 65, 58
3, 121896, Note_on_c, 0, 65, 0
3, 121920, Note_on_c, 0, 63, 58
3, 122016, Note_on_c, 0, 63, 0
3, 122040, Note_on_c, 0, 63, 58
3, 122136, Note_on_c, 0, 63, 0
3, 122160, Note_on_c, 0, 62, 58
3, 122256, Note_on_c, 0, 62, 0
3, 122280, Note_on_c, 0, 62, 58
3, 122376, Note_on_c, 0, 62, 0
3, 122400, Note_on_c, 0, 63, 58
3, 122496, Note_on_c, 0, 63, 0
3, 122520, Note_on_c, 0, 63, 58
3, 122616, Note_on_c, 0, 63, 0
3, 122640, Note_on_c, 0, 65, 58
3, 122736, Note_on_c, 0, 65, 0
3, 122760, Note_on_c, 0, 65, 58
3, 122856, Note_on_c, 0, 65, 0
3, 122880, Note_on_c, 0, 67, 58
3, 122976, Note_on_c, 0, 67, 0
3, 123000, Note_on_c, 0, 67, 58
3, 123096, Note_on_c, 0, 67, 0
3, 123120, Note_on_c, 0, 68, 58
3, 123216, Note_on_c, 0, 68, 0
3, 123240, Note_on_c, 0, 68, 58
3, 123336, Note_on_c, 0, 68, 0
3, 123360, Note_on_c, 0, 67, 58
3, 123456, Note_on_c, 0, 67, 0
3, 123480, Note_on_c, 0, 67, 58
3, 123576, Note_on_c, 0, 67, 0
3, 123600, Note_on_c, 0, 65, 58
3, 123696, Note_on_c, 0, 65, 0
3, 123720, Note_on_c, 0, 65, 58
3, 123816, Note_on_c, 0, 65, 0
3, 123840, Note_on_c, 0, 63, 58
3, 123936, Note_on_c, 0, 63, 0
3, 123960, Note_on_c, 0, 63, 58
3, 124056, Note_on_c, 0, 63, 0
3, 124080, Note_on_c, 0, 62, 58
3, 124176, Note_on_c, 0, 62, 0
3, 124200, Note_on_c, 0, 62, 58
3, 124296, Note_on_c, 0, 62, 0
3, 124320, Note_on_c, 0, 63, 58
3, 124416, Note_on_c, 0, 63, 0
3, 124440, Note_on_c, 0, 63, 58
3, 124536, Note_on_c, 0, 63, 0
3, 124560, Note_on_c, 0, 67, 58
3, 124656, Note_on_c, 0, 67, 0
3, 124680, Note_on_c, 0, 67, 58
3, 124776, Note_on_c, 0, 67, 0
3, 124800, Note_on_c, 0, 65, 78
3, 124896, Note_on_c, 0, 65, 0
3, 124920, Note_on_c, 0, 65, 58
3, 125016, Note_on_c, 0, 65, 0
3, 125040, Note_on_c, 0, 65, 58
3, 125136, Note_on_c, 0, 65, 0
3, 125160, Note_on_c, 0, 65, 58
3, 125256, Note_on_c, 0, 65, 0
3, 125280, Note_on_c, 0, 65, 58
3, 125376, Note_on_c, 0, 65, 0
3, 125400, Note_on_c, 0, 65, 58
3, 125496, Note_on_c, 0, 65, 0
3, 125520, Note_on_c, 0, 63, 58
3, 125616, Note_on_c, 0, 63, 0
3, 125640, Note_on_c, 0, 63, 58
3, 125736, Note_on_c, 0, 63, 0
3, 125760, Note_on_c, 0, 68, 58
3, 125856, Note_on_c, 0, 68, 0
3, 125880, Note_on_c, 0, 68, 58
3, 125976, Note_on_c, 0, 68, 0
3, 126000, Note_on_c, 0, 68, 58
3, 126096, Note_on_c, 0, 68, 0
3, 126120, Note_on_c, 0, 68, 58
3, 126216, Note_on_c, 0, 68, 0
3, 126240, Note_on_c, 0, 68, 58
3, 126336, Note_on_c, 0, 68, 0
3, 126360, Note_on_c, 0, 68, 58
3, 126456, Note_on_c, 0, 68, 0
3, 126480, Note_on_c, 0, 68, 58
3, 126576, Note_on_c, 0, 68, 0
3, 126600, Note_on_c, 0, 68, 58
3, 126696, Note_on_c, 0, 68, 0
3, 126720, Note_on_c, 0, 67, 58
3, 126816, Note_on_c, 0, 67, 0
3, 126840, Note_on_c, 0, 67, 58
3, 126936, Note_on_c, 0, 67, 0
3, 126960, Note_on_c, 0, 68, 58
3, 127056, Note_on_c, 0, 68, 0
3, 127080, Note_on_c, 0, 68, 58
3, 127176, Note_on_c, 0, 68, 0
3, 127200, Note_on_c, 0, 67, 58
3, 127296, Note_on_c, 0, 67, 0
3, 127320, Note_on_c, 0, 67, 58
3, 127416, Note_on_c, 0, 67, 0
3, 127440, Note_on_c, 0, 65, 58
3, 127536, Note_on_c, 0, 65, 0
3, 127560, Note_on_c, 0, 65, 58
3, 127656, Note_on_c, 0, 65, 0
3, 127680, Note_on_c, 0, 67, 58
3, 127776, Note_on_c, 0, 67, 0
3, 127800, Note_on_c, 0, 67, 58
3, 127896, Note_on_c, 0, 67, 0
3, 127920, Note_on_c, 0, 65, 58
3, 128016, Note_on_c, 0, 65, 0
3, 128040, Note_on_c, 0, 65, 58
3, 128136, Note_on_c, 0, 65, 0
3, 128160, Note_on_c, 0, 67, 58
3, 128256, Note_on_c, 0, 67, 0
3, 128280, Note_on_c, 0, 67, 58
3, 128376, Note_on_c, 0, 67, 0
3, 128400, Note_on_c, 0, 68, 58
3, 128496, Note_on_c, 0, 68, 0
3, 128520, Note_on_c, 0, 68, 58
3, 128616, Note_on_c, 0, 68, 0
3, 128640, Note_on_c, 0, 70, 58
3, 128736, Note_on_c, 0, 70, 0
3, 128760, Note_on_c, 0, 70, 58
3, 128856, Note_on_c, 0, 70, 0
3, 128880, Note_on_c, 0, 73, 58
3, 128976, Note_on_c, 0, 73, 0
3, 129000, Note_on_c, 0, 73, 58
3, 129096, Note_on_c, 0, 73, 0
3, 129120, Note_on_c, 0, 72, 58
3, 129216, Note_on_c, 0, 72, 0
3, 129240, Note_on_c, 0, 72, 58
3, 129336, Note_on_c, 0, 72, 0
3, 129360, Note_on_c, 0, 70, 58
3, 129456, Note_on_c, 0, 70, 0
3, 129480, Note_on_c, 0, 70, 58
3, 129576, Note_on_c, 0, 70, 0
3, 129600, Note_on_c, 0, 68, 58
3, 129696, Note_on_c, 0, 68, 0
3, 129720, Note_on_c, 0, 68, 58
3, 129816, Note_on_c, 0, 68, 0
3, 129840, Note_on_c, 0, 67, 58
3, 129936, Note_on_c, 0, 67, 0
3, 129960, Note_on_c, 0, 67, 58
3, 130056, Note_on_c, 0, 67, 0
3, 130080, Note_on_c, 0, 68, 58
3, 130176, Note_on_c, 0, 68, 0
3, 130200, Note_on_c, 0, 68, 58
3, 130296, Note_on_c, 0, 68, 0
3, 130320, Note_on_c, 0, 70, 58
3, 130416, Note_on_c, 0, 70, 0
3, 130440, Note_on_c, 0, 70, 58
3, 130536, Note_on_c, 0, 70, 0
3, 130560, Note_on_c, 0, 72, 58
3, 130656, Note_on_c, 0, 72, 0
3, 130680, Note_on_c, 0, 72, 58
3, 130776, Note_on_c, 0, 72, 0
3, 130800, Note_on_c, 0, 75, 58
3, 130896, Note_on_c, 0, 75, 0
3, 130920, Note_on_c, 0, 75, 58
3, 131016, Note_on_c, 0, 75, 0
3, 131040, Note_on_c, 0, 74, 58
3, 131136, Note_on_c, 0, 74, 0
3, 131160, Note_on_c, 0, 74, 58
3, 131256, Note_on_c, 0, 74, 0
3, 131280, Note_on_c, 0, 72, 58
3, 131376, Note_on_c, 0, 72, 0
3, 131400, Note_on_c, 0, 72, 58
3, 131496, Note_on_c, 0, 72, 0
3, 131520, Note_on_c, 0, 71, 58
3, 131616, Note_on_c, 0, 71, 0
3, 131640, Note_on_c, 0, 71, 58
3, 131736, Note_on_c, 0, 71, 0
3, 131760, Note_on_c, 0, 69, 58
3, 131856, Note_on_c, 0, 69, 0
3, 131880, Note_on_c, 0, 69, 58
3, 131976, Note_on_c, 0, 69, 0
3, 132000, Note_on_c, 0, 71, 58
3, 132096, Note_on_c, 0, 71, 0
3, 132120, Note_on_c, 0, 71, 58
3, 132216, Note_on_c, 0, 71, 0
3, 132240, Note_on_c, 0, 72, 58
3, 132336, Note_on_c, 0, 72, 0
3, 132360, Note_on_c, 0, 72, 58
3, 132456, Note_on_c, 0, 72, 0
3, 132480, Note_on_c, 0, 74, 58
3, 132576, Note_on_c, 0, 74, 0
3, 132600, Note_on_c, 0, 74, 58
3, 132696, Note_on_c, 0, 74, 0
3, 132720, Note_on_c, 0, 75, 58
3, 132816, Note_on_c, 0, 75, 0
3, 132840, Note_on_c, 0, 75, 58
3, 132936, Note_on_c, 0, 75, 0
3, 132960, Note_on_c, 0, 74, 58
3, 133056, Note_on_c, 0, 74, 0
3, 133080, Note_on_c, 0, 74, 58
3, 133176, Note_on_c, 0, 74, 0
3, 133200, Note_on_c, 0, 68, 58
3, 133296, Note_on_c, 0, 68, 0
3, 133320, Note_on_c, 0, 68, 58
3, 133416, Note_on_c, 0, 68, 0
3, 133440, Note_on_c, 0, 67, 58
3, 133536, Note_on_c, 0, 67, 0
3, 133560, Note_on_c, 0, 67, 58
3, 133656, Note_on_c, 0, 67, 0
3, 133680, Note_on_c, 0, 65, 58
3, 133776, Note_on_c, 0, 65, 0
3, 133800, Note_on_c, 0, 65, 58
3, 133896, Note_on_c, 0, 65, 0
3, 133920, Note_on_c, 0, 67, 58
3, 134016, Note_on_c, 0, 67, 0
3, 134040, Note_on_c, 0, 67, 58
3, 134136, Note_on_c, 0, 67, 0
3, 134160, Note_on_c, 0, 72, 58
3, 134256, Note_on_c, 0, 72, 0
3, 134280, Note_on_c, 0, 72, 58
3, 134376, Note_on_c, 0, 72, 0
3, 134400, Note_on_c, 0, 71, 58
3, 134496, Note_on_c, 0, 71, 0
3, 134520, Note_on_c, 0, 71, 58
3, 134616, Note_on_c, 0, 71, 0
3, 134640, Note_on_c, 0, 66, 58
3, 134736, Note_on_c, 0, 66, 0
3, 134760, Note_on_c, 0, 66, 58
3, 134856, Note_on_c, 0, 66, 0
3, 134880, Note_on_c, 0, 67, 58
3, 134976, Note_on_c, 0, 67, 0
3, 135000, Note_on_c, 0, 67, 58
3, 135096, Note_on_c, 0, 67, 0
3, 135120, Note_on_c, 0, 68, 58
3, 135216, Note_on_c, 0, 68, 0
3, 135240, Note_on_c, 0, 68, 58
3, 135336, Note_on_c, 0, 68, 0
3, 135360, Note_on_c, 0, 67, 58
3, 135456, Note_on_c, 0, 67, 0
3, 135480, Note_on_c, 0, 67, 58
3, 135576, Note_on_c, 0, 67, 0
3, 135600, Note_on_c, 0, 62, 58
3, 135696, Note_on_c, 0, 62, 0
3, 135720, Note_on_c, 0, 62, 58
3, 135816, Note_on_c, 0, 62, 0
3, 135840, Note_on_c, 0, 63, 58
3, 135936, Note_on_c, 0, 63, 0
3, 135960, Note_on_c, 0, 63, 58
3, 136056, Note_on_c, 0, 63, 0
3, 136080, Note_on_c, 0, 60, 58
3, 136176, Note_on_c, 0, 60, 0
3, 136200, Note_on_c, 0, 60, 58
3, 136296, Note_on_c, 0, 60, 0
3, 136320, Note_on_c, 0, 59, 58
3, 136416, Note_on_c, 0, 59, 0
3, 136440, Note_on_c, 0, 59, 58
3, 136536, Note_on_c, 0, 59, 0
3, 136560, Note_on_c, 0, 59, 58
3, 136656, Note_on_c, 0, 59, 0
3, 136680, Note_on_c, 0, 59, 58
3, 136776, Note_on_c, 0, 59, 0
3, 136800, Note_on_c, 0, 60, 58
3, 136896, Note_on_c, 0, 60, 0
3, 136920, Note_on_c, 0, 60, 58
3, 137016, Note_on_c, 0, 60, 0
3, 137040, Note_on_c, 0, 60, 58
3, 137136, Note_on_c, 0, 60, 0
3, 137160, Note_on_c, 0, 60, 58
3, 137256, Note_on_c, 0, 60, 0
3, 137280, Note_on_c, 0, 59, 58
3, 137376, Note_on_c, 0, 59, 0
3, 137400, Note_on_c, 0, 59, 58
3, 137496, Note_on_c, 0, 59, 0
3, 137520, Note_on_c, 0, 65, 58
3, 137616, Note_on_c, 0, 65, 0
3, 137640, Note_on_c, 0, 65, 58
3, 137736, Note_on_c, 0, 65, 0
3, 137760, Note_on_c, 0, 64, 58
3, 137856, Note_on_c, 0, 64, 0
3, 137880, Note_on_c, 0, 64, 58
3, 137976, Note_on_c, 0, 64, 0
3, 138000, Note_on_c, 0, 63, 58
3, 138096, Note_on_c, 0, 63, 0
3, 138120, Note_on_c, 0, 63, 58
3, 138216, Note_on_c, 0, 63, 0
3, 138240, Note_on_c, 0, 62, 58
3, 138336, Note_on_c, 0, 62, 0
3, 138360, Note_on_c, 0, 62, 58
3, 138456, Note_on_c, 0, 62, 0
3, 138480, Note_on_c, 0, 65, 58
3, 138576, Note_on_c, 0, 65, 0
3, 138600, Note_on_c, 0, 65, 58
3, 138696, Note_on_c, 0, 65, 0
3, 138720, Note_on_c, 0, 64, 58
3, 138816, Note_on_c, 0, 64, 0
3, 138840, Note_on_c, 0, 64, 58
3, 138936, Note_on_c, 0, 64, 0
3, 138960, Note_on_c, 0, 63, 58
3, 139056, Note_on_c, 0, 63, 0
3, 139080, Note_on_c, 0, 63, 58
3, 139176, Note_on_c, 0, 63, 0
3, 139200, Note_on_c, 0, 62, 58
3, 139296, Note_on_c, 0, 62, 0
3, 139320, Note_on_c, 0, 62, 58
3, 139416, Note_on_c, 0, 62, 0
3, 139440, Note_on_c, 0, 56, 58
3, 139536, Note_on_c, 0, 56, 0
3, 139560, Note_on_c, 0, 56, 58
3, 139656, Note_on_c, 0, 56, 0
3, 139680, Note_on_c, 0, 55, 58
3, 139776, Note_on_c, 0, 55, 0
3, 139800, Note_on_c, 0, 55, 58
3, 139896, Note_on_c, 0, 55, 0
3, 139920, Note_on_c, 0, 60, 58
3, 140016, Note_on_c, 0, 60, 0
3, 140040, Note_on_c, 0, 60, 58
3, 140136, Note_on_c, 0, 60, 0
3, 140160, Note_on_c, 0, 59, 58
3, 140256, Note_on_c, 0, 59, 0
3, 140280, Note_on_c, 0, 59, 58
3, 140376, Note_on_c, 0, 59, 0
3, 140400, Note_on_c, 0, 58, 58
3, 140496, Note_on_c, 0, 58, 0
3, 140520, Note_on_c, 0, 58, 58
3, 140616, Note_on_c, 0, 58, 0
3, 140640, Note_on_c, 0, 59, 58
3, 140736, Note_on_c, 0, 59, 0
3, 140760, Note_on_c, 0, 59, 58
3, 140856, Note_on_c, 0, 59, 0
3, 140880, Note_on_c, 0, 62, 58
3, 140976, Note_on_c, 0, 62, 0
3, 141000, Note_on_c, 0, 62, 58
3, 141096, Note_on_c, 0, 62, 0
3, 141120, Note_on_c, 0, 60, 58
3, 141216, Note_on_c, 0, 60, 0
3, 141240, Note_on_c, 0, 60, 58
3, 141336, Note_on_c, 0, 60, 0
3, 141360, Note_on_c, 0, 59, 58
3, 141456, Note_on_c, 0, 59, 0
3, 141480, Note_on_c, 0, 59, 58
3, 141576, Note_on_c, 0, 59, 0
3, 141600, Note_on_c, 0, 60, 58
3, 141696, Note_on_c, 0, 60, 0
3, 141720, Note_on_c, 0, 60, 58
3, 141816, Note_on_c, 0, 60, 0
3, 141840, Note_on_c, 0, 63, 58
3, 141936, Note_on_c, 0, 63, 0
3, 141960, Note_on_c, 0, 63, 58
3, 142056, Note_on_c, 0, 63, 0
3, 142080, Note_on_c, 0, 62, 58
3, 142176, Note_on_c, 0, 62, 0
3, 142200, Note_on_c, 0, 62, 58
3, 142296, Note_on_c, 0, 62, 0
3, 142320, Note_on_c, 0, 61, 58
3, 142416, Note_on_c, 0, 61, 0
3, 142440, Note_on_c, 0, 61, 58
3, 142536, Note_on_c, 0, 61, 0
3, 142560, Note_on_c, 0, 62, 58
3, 142656, Note_on_c, 0, 62, 0
3, 142680, Note_on_c, 0, 62, 58
3, 142776, Note_on_c, 0, 62, 0
3, 142800, Note_on_c, 0, 65, 58
3, 142896, Note_on_c, 0, 65, 0
3, 142920, Note_on_c, 0, 65, 58
3, 143016, Note_on_c, 0, 65, 0
3, 143040, Note_on_c, 0, 64, 58
3, 143280, Note_on_c, 0, 64, 0
3, 143280, Note_on_c, 0, 55, 58
3, 143520, Note_on_c, 0, 55, 0
3, 143520, Note_on_c, 0, 60, 58
3, 143760, Note_on_c, 0, 60, 0
3, 143760, Note_on_c, 0, 55, 58
3, 143952, Note_on_c, 0, 55, 0
3, 144000, Note_on_c, 0, 60, 58
3, 144240, Note_on_c, 0, 60, 0
3, 144240, Note_on_c, 0, 55, 58
3, 144480, Note_on_c, 0, 55, 0
3, 144480, Note_on_c, 0, 60, 58
3, 144720, Note_on_c, 0, 60, 0
3, 144720, Note_on_c, 0, 64, 58
3, 144912, Note_on_c, 0, 64, 0
3, 144960, Note_on_c, 0, 62, 58
3, 145200, Note_on_c, 0, 62, 0
3, 145200, Note_on_c, 0, 59, 58
3, 145440, Note_on_c, 0, 59, 0
3, 145440, Note_on_c, 0, 62, 58
3, 145680, Note_on_c, 0, 62, 0
3, 145680, Note_on_c, 0, 65, 58
3, 145872, Note_on_c, 0, 65, 0
3, 145920, Note_on_c, 0, 64, 58
3, 146280, Note_on_c, 0, 64, 0
3, 146280, Note_on_c, 0, 60, 58
3, 146376, Note_on_c, 0, 60, 0
3, 146400, Note_on_c, 0, 64, 58
3, 146592, Note_on_c, 0, 64, 0
3, 146880, Note_on_c, 0, 69, 58
3, 147024, Note_on_c, 0, 69, 0
3, 147120, Note_on_c, 0, 69, 58
3, 147600, Note_on_c, 0, 69, 0
3, 147600, Note_on_c, 0, 67, 58
3, 147792, Note_on_c, 0, 67, 0
3, 147840, Note_on_c, 0, 65, 58
3, 147984, Note_on_c, 0, 65, 0
3, 148080, Note_on_c, 0, 65, 58
3, 148560, Note_on_c, 0, 65, 0
3, 148560, Note_on_c, 0, 64, 58
3, 148752, Note_on_c, 0, 64, 0
3, 148800, Note_on_c, 0, 64, 58
3, 149040, Note_on_c, 0, 64, 0
3, 149040, Note_on_c, 0, 62, 58
3, 149160, Note_on_c, 0, 62, 0
3, 149280, Note_on_c, 0, 62, 58
3, 149520, Note_on_c, 0, 62, 0
3, 149520, Note_on_c, 0, 60, 58
3, 149640, Note_on_c, 0, 60, 0
3, 149760, Note_on_c, 0, 64, 58
3, 150048, Note_on_c, 0, 64, 0
3, 150120, Note_on_c, 0, 60, 58
3, 150216, Note_on_c, 0, 60, 0
3, 150240, Note_on_c, 0, 59, 58
3, 150432, Note_on_c, 0, 59, 0
3, 150720, Note_on_c, 0, 60, 105
3, 150960, Note_on_c, 0, 60, 0
3, 150960, Note_on_c, 0, 55, 105
3, 151200, Note_on_c, 0, 55, 0
3, 151200, Note_on_c, 0, 60, 105
3, 151440, Note_on_c, 0, 60, 0
3, 151440, Note_on_c, 0, 55, 105
3, 151632, Note_on_c, 0, 55, 0
3, 151680, Note_on_c, 0, 60, 105
3, 151920, Note_on_c, 0, 60, 0
3, 151920, Note_on_c, 0, 55, 105
3, 152160, Note_on_c, 0, 55, 0
3, 152160, Note_on_c, 0, 60, 105
3, 152400, Note_on_c, 0, 60, 0
3, 152400, Note_on_c, 0, 64, 105
3, 152592, Note_on_c, 0, 64, 0
3, 152640, Note_on_c, 0, 62, 105
3, 152880, Note_on_c, 0, 62, 0
3, 152880, Note_on_c, 0, 59, 105
3, 153120, Note_on_c, 0, 59, 0
3, 153120, Note_on_c, 0, 62, 105
3, 153360, Note_on_c, 0, 62, 0
3, 153360, Note_on_c, 0, 65, 105
3, 153552, Note_on_c, 0, 65, 0
3, 153600, Note_on_c, 0, 64, 105
3, 153960, Note_on_c, 0, 64, 0
3, 153960, Note_on_c, 0, 60, 105
3, 154056, Note_on_c, 0, 60, 0
3, 154080, Note_on_c, 0, 64, 92
3, 154272, Note_on_c, 0, 64, 0
3, 154560, Note_on_c, 0, 67, 105
3, 154800, Note_on_c, 0, 67, 0
3, 154800, Note_on_c, 0, 72, 105
3, 154920, Note_on_c, 0, 72, 0
3, 155040, Note_on_c, 0, 60, 105
3, 155280, Note_on_c, 0, 60, 0
3, 155280, Note_on_c, 0, 67, 105
3, 155400, Note_on_c, 0, 67, 0
3, 155520, Note_on_c, 0, 69, 105
3, 155760, Note_on_c, 0, 69, 0
3, 155760, Note_on_c, 0, 72, 105
3, 155952, Note_on_c, 0, 72, 0
3, 156000, Note_on_c, 0, 71, 105
3, 156120, Note_on_c, 0, 71, 0
3, 156120, Note_on_c, 0, 69, 105
3, 156240, Note_on_c, 0, 69, 0
3, 156240, Note_on_c, 0, 67, 105
3, 156360, Note_on_c, 0, 67, 0
3, 156360, Note_on_c, 0, 65, 105
3, 156456, Note_on_c, 0, 65, 0
3, 156480, Note_on_c, 0, 64, 105
3, 156864, Note_on_c, 0, 64, 0
3, 156960, Note_on_c, 0, 67, 105
3, 157080, Note_on_c, 0, 67, 0
3, 157080, Note_on_c, 0, 65, 105
3, 157200, Note_on_c, 0, 65, 0
3, 157200, Note_on_c, 0, 64, 105
3, 157320, Note_on_c, 0, 64, 0
3, 157320, Note_on_c, 0, 65, 105
3, 157416, Note_on_c, 0, 65, 0
3, 157440, Note_on_c, 0, 64, 92
3, 157824, Note_on_c, 0, 64, 0
3, 159360, Note_on_c, 0, 62, 72
3, 159552, Note_on_c, 0, 62, 0
3, 159600, Note_on_c, 0, 62, 72
3, 159792, Note_on_c, 0, 62, 0
3, 159840, Note_on_c, 0, 62, 72
3, 160032, Note_on_c, 0, 62, 0
3, 160080, Note_on_c, 0, 62, 72
3, 160272, Note_on_c, 0, 62, 0
3, 160320, Note_on_c, 0, 64, 72
3, 160512, Note_on_c, 0, 64, 0
3, 160560, Note_on_c, 0, 64, 72
3, 160752, Note_on_c, 0, 64, 0
3, 160800, Note_on_c, 0, 67, 72
3, 160992, Note_on_c, 0, 67, 0
3, 161040, Note_on_c, 0, 67, 72
3, 161232, Note_on_c, 0, 67, 0
3, 161280, Note_on_c, 0, 72, 72
3, 161760, Note_on_c, 0, 72, 0
3, 161760, Note_on_c, 0, 71, 72
3, 161952, Note_on_c, 0, 71, 0
3, 163200, Note_on_c, 0, 62, 72
3, 163392, Note_on_c, 0, 62, 0
3, 163440, Note_on_c, 0, 62, 72
3, 163632, Note_on_c, 0, 62, 0
3, 163680, Note_on_c, 0, 65, 72
3, 163872, Note_on_c, 0, 65, 0
3, 163920, Note_on_c, 0, 65, 81
3, 164112, Note_on_c, 0, 65, 0
3, 164160, Note_on_c, 0, 64, 92
3, 164352, Note_on_c, 0, 64, 0
3, 164400, Note_on_c, 0, 64, 92
3, 164592, Note_on_c, 0, 64, 0
3, 164640, Note_on_c, 0, 60, 105
3, 164832, Note_on_c, 0, 60, 0
3, 164880, Note_on_c, 0, 60, 105
3, 165072, Note_on_c, 0, 60, 0
3, 165120, Note_on_c, 0, 59, 105
3, 165504, Note_on_c, 0, 59, 0
3, 166080, Note_on_c, 0, 60, 58
3, 166320, Note_on_c, 0, 60, 0
3, 166320, Note_on_c, 0, 55, 58
3, 166560, Note_on_c, 0, 55, 0
3, 166560, Note_on_c, 0, 60, 58
3, 166800, Note_on_c, 0, 60, 0
3, 166800, Note_on_c, 0, 55, 58
3, 166992, Note_on_c, 0, 55, 0
3, 167040, Note_on_c, 0, 61, 58
3, 167280, Note_on_c, 0, 61, 0
3, 167280, Note_on_c, 0, 55, 58
3, 167520, Note_on_c, 0, 55, 0
3, 167520, Note_on_c, 0, 61, 58
3, 167760, Note_on_c, 0, 61, 0
3, 167760, Note_on_c, 0, 64, 58
3, 167952, Note_on_c, 0, 64, 0
3, 168000, Note_on_c, 0, 62, 58
3, 168240, Note_on_c, 0, 62, 0
3, 168240, Note_on_c, 0, 57, 58
3, 168480, Note_on_c, 0, 57, 0
3, 168480, Note_on_c, 0, 62, 58
3, 168720, Note_on_c, 0, 62, 0
3, 168720, Note_on_c, 0, 65, 58
3, 168912, Note_on_c, 0, 65, 0
3, 168960, Note_on_c, 0, 64, 58
3, 169320, Note_on_c, 0, 64, 0
3, 169320, Note_on_c, 0, 60, 58
3, 169416, Note_on_c, 0, 60, 0
3, 169440, Note_on_c, 0, 64, 58
3, 169632, Note_on_c, 0, 64, 0
3, 169920, Note_on_c, 0, 72, 105
3, 170160, Note_on_c, 0, 72, 0
3, 170160, Note_on_c, 0, 64, 105
3, 170256, Note_on_c, 0, 64, 0
3, 170400, Note_on_c, 0, 65, 105
3, 170640, Note_on_c, 0, 65, 0
3, 170640, Note_on_c, 0, 71, 105
3, 170736, Note_on_c, 0, 71, 0
3, 170880, Note_on_c, 0, 72, 105
3, 171120, Note_on_c, 0, 72, 0
3, 171120, Note_on_c, 0, 64, 105
3, 171240, Note_on_c, 0, 64, 0
3, 171360, Note_on_c, 0, 72, 105
3, 171600, Note_on_c, 0, 72, 0
3, 171600, Note_on_c, 0, 62, 105
3, 171720, Note_on_c, 0, 62, 0
3, 171840, Note_on_c, 0, 64, 105
3, 172224, Note_on_c, 0, 64, 0
3, 172320, Note_on_c, 0, 67, 105
3, 172440, Note_on_c, 0, 67, 0
3, 172440, Note_on_c, 0, 65, 105
3, 172560, Note_on_c, 0, 65, 0
3, 172560, Note_on_c, 0, 64, 105
3, 172680, Note_on_c, 0, 64, 0
3, 172680, Note_on_c, 0, 65, 105
3, 172776, Note_on_c, 0, 65, 0
3, 172800, Note_on_c, 0, 64, 92
3, 173184, Note_on_c, 0, 64, 0
3, 173760, Note_on_c, 0, 79, 112
3, 173760, Note_on_c, 0, 72, 92
3, 173760, Note_on_c, 0, 64, 92
3, 174144, Note_on_c, 0, 64, 0
3, 174144, Note_on_c, 0, 72, 0
3, 174144, Note_on_c, 0, 79, 0
3, 174720, Note_on_c, 0, 77, 112
3, 174720, Note_on_c, 0, 65, 92
3, 174720, Note_on_c, 0, 72, 92
3, 175104, Note_on_c, 0, 72, 0
3, 175104, Note_on_c, 0, 65, 0
3, 175104, Note_on_c, 0, 77, 0
3, 175680, Note_on_c, 0, 81, 112
3, 175680, Note_on_c, 0, 69, 92
3, 175680, Note_on_c, 0, 62, 92
3, 176064, Note_on_c, 0, 62, 0
3, 176064, Note_on_c, 0, 69, 0
3, 176064, Note_on_c, 0, 81, 0
3, 176640, Note_on_c, 0, 64, 58
3, 177360, Note_on_c, 0, 64, 0
3, 177360, Note_on_c, 0, 65, 58
3, 177420, Note_on_c, 0, 65, 0
3, 177420, Note_on_c, 0, 64, 58
3, 177480, Note_on_c, 0, 64, 0
3, 177480, Note_on_c, 0, 62, 58
3, 177540, Note_on_c, 0, 62, 0
3, 177540, Note_on_c, 0, 64, 58
3, 177588, Note_on_c, 0, 64, 0
3, 177600, Note_on_c, 0, 67, 58
3, 178080, Note_on_c, 0, 67, 0
3, 178080, Note_on_c, 0, 65, 58
3, 178440, Note_on_c, 0, 65, 0
3, 178440, Note_on_c, 0, 64, 58
3, 178512, Note_on_c, 0, 64, 0
3, 178560, Note_on_c, 0, 64, 58
3, 178800, Note_on_c, 0, 64, 0
3, 178800, Note_on_c, 0, 55, 58
3, 179040, Note_on_c, 0, 55, 0
3, 179040, Note_on_c, 0, 60, 58
3, 179280, Note_on_c, 0, 60, 0
3, 179280, Note_on_c, 0, 55, 58
3, 179520, Note_on_c, 0, 55, 0
3, 179520, Note_on_c, 0, 60, 58
3, 179760, Note_on_c, 0, 60, 0
3, 179760, Note_on_c, 0, 55, 58
3, 180000, Note_on_c, 0, 55, 0
3, 180000, Note_on_c, 0, 60, 58
3, 180240, Note_on_c, 0, 60, 0
3, 180240, Note_on_c, 0, 55, 58
3, 180432, Note_on_c, 0, 55, 0
3, 180480, Note_on_c, 0, 60, 58
3, 180720, Note_on_c, 0, 60, 0
3, 180720, Note_on_c, 0, 55, 58
3, 180960, Note_on_c, 0, 55, 0
3, 180960, Note_on_c, 0, 60, 58
3, 181200, Note_on_c, 0, 60, 0
3, 181200, Note_on_c, 0, 64, 58
3, 181440, Note_on_c, 0, 64, 0
3, 181440, Note_on_c, 0, 62, 58
3, 181680, Note_on_c, 0, 62, 0
3, 181680, Note_on_c, 0, 59, 58
3, 181920, Note_on_c, 0, 59, 0
3, 181920, Note_on_c, 0, 62, 58
3, 182160, Note_on_c, 0, 62, 0
3, 182160, Note_on_c, 0, 65, 58
3, 182352, Note_on_c, 0, 65, 0
3, 182400, Note_on_c, 0, 65, 58
3, 182640, Note_on_c, 0, 65, 0
3, 182640, Note_on_c, 0, 62, 58
3, 182880, Note_on_c, 0, 62, 0
3, 182880, Note_on_c, 0, 64, 58
3, 183120, Note_on_c, 0, 64, 0
3, 183120, Note_on_c, 0, 59, 58
3, 183360, Note_on_c, 0, 59, 0
3, 183360, Note_on_c, 0, 60, 58
3, 183600, Note_on_c, 0, 60, 0
3, 183600, Note_on_c, 0, 55, 58
3, 183840, Note_on_c, 0, 55, 0
3, 183840, Note_on_c, 0, 60, 58
3, 184080, Note_on_c, 0, 60, 0
3, 184080, Note_on_c, 0, 55, 58
3, 184272, Note_on_c, 0, 55, 0
3, 184320, Note_on_c, 0, 60, 58
3, 184560, Note_on_c, 0, 60, 0
3, 184560, Note_on_c, 0, 55, 58
3, 184800, Note_on_c, 0, 55, 0
3, 184800, Note_on_c, 0, 60, 58
3, 185040, Note_on_c, 0, 60, 0
3, 185040, Note_on_c, 0, 64, 58
3, 185280, Note_on_c, 0, 64, 0
3, 185280, Note_on_c, 0, 62, 58
3, 185520, Note_on_c, 0, 62, 0
3, 185520, Note_on_c, 0, 59, 58
3, 185760, Note_on_c, 0, 59, 0
3, 185760, Note_on_c, 0, 62, 58
3, 186000, Note_on_c, 0, 62, 0
3, 186000, Note_on_c, 0, 65, 58
3, 186192, Note_on_c, 0, 65, 0
3, 186240, Note_on_c, 0, 71, 58
3, 187200, Note_on_c, 0, 71, 0
3, 187200, Note_on_c, 0, 72, 30
3, 187440, Note_on_c, 0, 72, 0
3, 187440, End_track
4, 0, Start_track
4, 0, Program_c, 0, 48
4, 0, Control_c, 0, 7, 127
4, 0, Control_c, 0, 10, 31
4, 0, Control_c, 0, 91, 85
4, 9600, Note_on_c, 0, 67, 92
4, 10512, Note_on_c, 0, 67, 0
4, 10560, Note_on_c, 0, 72, 92
4, 10590, Note_on_c, 0, 72, 0
4, 10590, Note_on_c, 0, 71, 92
4, 10620, Note_on_c, 0, 71, 0
4, 10620, Note_on_c, 0, 72, 92
4, 10650, Note_on_c, 0, 72, 0
4, 10650, Note_on_c, 0, 71, 92
4, 10680, Note_on_c, 0, 71, 0
4, 10680, Note_on_c, 0, 72, 92
4, 10710, Note_on_c, 0, 72, 0
4, 10710, Note_on_c, 0, 71, 92
4, 10740, Note_on_c, 0, 71, 0
4, 10740, Note_on_c, 0, 72, 92
4, 10770, Note_on_c, 0, 72, 0
4, 10770, Note_on_c, 0, 71, 92
4, 10800, Note_on_c, 0, 71, 0
4, 10800, Note_on_c, 0, 72, 92
4, 10830, Note_on_c, 0, 72, 0
4, 10830, Note_on_c, 0, 71, 92
4, 10860, Note_on_c, 0, 71, 0
4, 10860, Note_on_c, 0, 72, 92
4, 10890, Note_on_c, 0, 72, 0
4, 10890, Note_on_c, 0, 71, 92
4, 10920, Note_on_c, 0, 71, 0
4, 10920, Note_on_c, 0, 72, 92
4, 10950, Note_on_c, 0, 72, 0
4, 10950, Note_on_c, 0, 71, 92
4, 10980, Note_on_c, 0, 71, 0
4, 10980, Note_on_c, 0, 72, 92
4, 11010, Note_on_c, 0, 72, 0
4, 11010, Note_on_c, 0, 71, 92
4, 11040, Note_on_c, 0, 71, 0
4, 11040, Note_on_c, 0, 72, 92
4, 11070, Note_on_c, 0, 72, 0
4, 11070, Note_on_c, 0, 71, 92
4, 11100, Note_on_c, 0, 71, 0
4, 11100, Note_on_c, 0, 72, 92
4, 11130, Note_on_c, 0, 72, 0
4, 11130, Note_on_c, 0, 71, 92
4, 11160, Note_on_c, 0, 71, 0
4, 11160, Note_on_c, 0, 72, 92
4, 11190, Note_on_c, 0, 72, 0
4, 11190, Note_on_c, 0, 71, 92
4, 11220, Note_on_c, 0, 71, 0
4, 11220, Note_on_c, 0, 72, 92
4, 11250, Note_on_c, 0, 72, 0
4, 11250, Note_on_c, 0, 71, 92
4, 11280, Note_on_c, 0, 71, 0
4, 11280, Note_on_c, 0, 69, 92
4, 11400, Note_on_c, 0, 69, 0
4, 11400, Note_on_c, 0, 71, 92
4, 11520, Note_on_c, 0, 71, 0
4, 11520, Note_on_c, 0, 72, 92
4, 11904, Note_on_c, 0, 72, 0
4, 12480, Note_on_c, 0, 64, 92
4, 12864, Note_on_c, 0, 64, 0
4, 12960, Note_on_c, 0, 64, 92
4, 13344, Note_on_c, 0, 64, 0
4, 13440, Note_on_c, 0, 65, 92
4, 14160, Note_on_c, 0, 65, 0
4, 14160, Note_on_c, 0, 69, 92
4, 14352, Note_on_c, 0, 69, 0
4, 14400, Note_on_c, 0, 67, 92
4, 14784, Note_on_c, 0, 67, 0
4, 14880, Note_on_c, 0, 59, 92
4, 15264, Note_on_c, 0, 59, 0
4, 15360, Note_on_c, 0, 60, 92
4, 15744, Note_on_c, 0, 60, 0
4, 24960, Note_on_c, 0, 67, 92
4, 25872, Note_on_c, 0, 67, 0
4, 25920, Note_on_c, 0, 72, 92
4, 25950, Note_on_c, 0, 72, 0
4, 25950, Note_on_c, 0, 71, 92
4, 25980, Note_on_c, 0, 71, 0
4, 25980, Note_on_c, 0, 72, 92
4, 26010, Note_on_c, 0, 72, 0
4, 26010, Note_on_c, 0, 71, 92
4, 26040, Note_on_c, 0, 71, 0
4, 26040, Note_on_c, 0, 72, 92
4, 26070, Note_on_c, 0, 72, 0
4, 26070, Note_on_c, 0, 71, 92
4, 26100, Note_on_c, 0, 71, 0
4, 26100, Note_on_c, 0, 72, 92
4, 26130, Note_on_c, 0, 72, 0
4, 26130, Note_on_c, 0, 71, 92
4, 26160, Note_on_c, 0, 71, 0
4, 26160, Note_on_c, 0, 72, 92
4, 26190, Note_on_c, 0, 72, 0
4, 26190, Note_on_c, 0, 71, 92
4, 26220, Note_on_c, 0, 71, 0
4, 26220, Note_on_c, 0, 72, 92
4, 26250, Note_on_c, 0, 72, 0
4, 26250, Note_on_c, 0, 71, 92
4, 26280, Note_on_c, 0, 71, 0
4, 26280, Note_on_c, 0, 72, 92
4, 26310, Note_on_c, 0, 72, 0
4, 26310, Note_on_c, 0, 71, 92
4, 26340, Note_on_c, 0, 71, 0
4, 26340, Note_on_c, 0, 72, 92
4, 26370, Note_on_c, 0, 72, 0
4, 26370, Note_on_c, 0, 71, 92
4, 26400, Note_on_c, 0, 71, 0
4, 26400, Note_on_c, 0, 72, 92
4, 26430, Note_on_c, 0, 72, 0
4, 26430, Note_on_c, 0, 71, 92
4, 26460, Note_on_c, 0, 71, 0
4, 26460, Note_on_c, 0, 72, 92
4, 26490, Note_on_c, 0, 72, 0
4, 26490, Note_on_c, 0, 71, 92
4, 26520, Note_on_c, 0, 71, 0
4, 26520, Note_on_c, 0, 72, 92
4, 26550, Note_on_c, 0, 72, 0
4, 26550, Note_on_c, 0, 71, 92
4, 26580, Note_on_c, 0, 71, 0
4, 26580, Note_on_c, 0, 72, 92
4, 26610, Note_on_c, 0, 72, 0
4, 26610, Note_on_c, 0, 71, 92
4, 26640, Note_on_c, 0, 71, 0
4, 26640, Note_on_c, 0, 69, 92
4, 26760, Note_on_c, 0, 69, 0
4, 26760, Note_on_c, 0, 71, 92
4, 26880, Note_on_c, 0, 71, 0
4, 26880, Note_on_c, 0, 72, 92
4, 27264, Note_on_c, 0, 72, 0
4, 27840, Note_on_c, 0, 64, 92
4, 28224, Note_on_c, 0, 64, 0
4, 28320, Note_on_c, 0, 64, 92
4, 28704, Note_on_c, 0, 64, 0
4, 28800, Note_on_c, 0, 65, 92
4, 29520, Note_on_c, 0, 65, 0
4, 29520, Note_on_c, 0, 69, 92
4, 29712, Note_on_c, 0, 69, 0
4, 29760, Note_on_c, 0, 67, 92
4, 30144, Note_on_c, 0, 67, 0
4, 30240, Note_on_c, 0, 59, 92
4, 30624, Note_on_c, 0, 59, 0
4, 30720, Note_on_c, 0, 60, 92
4, 31104, Note_on_c, 0, 60, 0
4, 32640, Note_on_c, 0, 59, 58
4, 32832, Note_on_c, 0, 59, 0
4, 32880, Note_on_c, 0, 59, 58
4, 33072, Note_on_c, 0, 59, 0
4, 33120, Note_on_c, 0, 59, 58
4, 33312, Note_on_c, 0, 59, 0
4, 33360, Note_on_c, 0, 59, 58
4, 33552, Note_on_c, 0, 59, 0
4, 33600, Note_on_c, 0, 60, 58
4, 33792, Note_on_c, 0, 60, 0
4, 33840, Note_on_c, 0, 60, 58
4, 34032, Note_on_c, 0, 60, 0
4, 34080, Note_on_c, 0, 64, 58
4, 34272, Note_on_c, 0, 64, 0
4, 34320, Note_on_c, 0, 64, 58
4, 34512, Note_on_c, 0, 64, 0
4, 34560, Note_on_c, 0, 67, 58
4, 34944, Note_on_c, 0, 67, 0
4, 36480, Note_on_c, 0, 59, 72
4, 36672, Note_on_c, 0, 59, 0
4, 36720, Note_on_c, 0, 59, 72
4, 36912, Note_on_c, 0, 59, 0
4, 36960, Note_on_c, 0, 62, 81
4, 37152, Note_on_c, 0, 62, 0
4, 37200, Note_on_c, 0, 62, 81
4, 37392, Note_on_c, 0, 62, 0
4, 37440, Note_on_c, 0, 60, 92
4, 37632, Note_on_c, 0, 60, 0
4, 37680, Note_on_c, 0, 60, 92
4, 37872, Note_on_c, 0, 60, 0
4, 37920, Note_on_c, 0, 57, 105
4, 38112, Note_on_c, 0, 57, 0
4, 38160, Note_on_c, 0, 57, 105
4, 38352, Note_on_c, 0, 57, 0
4, 38400, Note_on_c, 0, 50, 105
4, 38784, Note_on_c, 0, 50, 0
4, 43200, Note_on_c, 0, 55, 92
4, 43200, Note_on_c, 0, 67, 92
4, 44544, Note_on_c, 0, 67, 0
4, 44544, Note_on_c, 0, 55, 0
4, 44640, Note_on_c, 0, 69, 92
4, 45048, Note_on_c, 0, 69, 0
4, 45120, Note_on_c, 0, 67, 92
4, 45528, Note_on_c, 0, 67, 0
4, 45600, Note_on_c, 0, 59, 92
4, 46008, Note_on_c, 0, 59, 0
4, 46080, Note_on_c, 0, 60, 92
4, 46464, Note_on_c, 0, 60, 0
4, 48000, Note_on_c, 0, 59, 58
4, 48192, Note_on_c, 0, 59, 0
4, 48240, Note_on_c, 0, 59, 58
4, 48432, Note_on_c, 0, 59, 0
4, 48480, Note_on_c, 0, 59, 58
4, 48672, Note_on_c, 0, 59, 0
4, 48720, Note_on_c, 0, 59, 58
4, 48912, Note_on_c, 0, 59, 0
4, 48960, Note_on_c, 0, 60, 58
4, 49152, Note_on_c, 0, 60, 0
4, 49200, Note_on_c, 0, 60, 58
4, 49392, Note_on_c, 0, 60, 0
4, 49440, Note_on_c, 0, 64, 58
4, 49632, Note_on_c, 0, 64, 0
4, 49680, Note_on_c, 0, 64, 58
4, 49872, Note_on_c, 0, 64, 0
4, 49920, Note_on_c, 0, 67, 58
4, 50304, Note_on_c, 0, 67, 0
4, 51840, Note_on_c, 0, 59, 72
4, 52032, Note_on_c, 0, 59, 0
4, 52080, Note_on_c, 0, 59, 72
4, 52272, Note_on_c, 0, 59, 0
4, 52320, Note_on_c, 0, 62, 81
4, 52512, Note_on_c, 0, 62, 0
4, 52560, Note_on_c, 0, 62, 81
4, 52752, Note_on_c, 0, 62, 0
4, 52800, Note_on_c, 0, 60, 92
4, 52992, Note_on_c, 0, 60, 0
4, 53040, Note_on_c, 0, 60, 92
4, 53232, Note_on_c, 0, 60, 0
4, 53280, Note_on_c, 0, 57, 105
4, 53472, Note_on_c, 0, 57, 0
4, 53520, Note_on_c, 0, 57, 105
4, 53712, Note_on_c, 0, 57, 0
4, 53760, Note_on_c, 0, 50, 105
4, 54144, Note_on_c, 0, 50, 0
4, 58560, Note_on_c, 0, 55, 92
4, 58560, Note_on_c, 0, 67, 92
4, 59904, Note_on_c, 0, 67, 0
4, 59904, Note_on_c, 0, 55, 0
4, 60000, Note_on_c, 0, 69, 92
4, 60408, Note_on_c, 0, 69, 0
4, 60480, Note_on_c, 0, 67, 92
4, 60888, Note_on_c, 0, 67, 0
4, 60960, Note_on_c, 0, 59, 92
4, 61368, Note_on_c, 0, 59, 0
4, 61440, Note_on_c, 0, 60, 92
4, 61824, Note_on_c, 0, 60, 0
4, 62400, Note_on_c, 0, 67, 58
4, 62544, Note_on_c, 0, 67, 0
4, 62640, Note_on_c, 0, 67, 58
4, 62784, Note_on_c, 0, 67, 0
4, 62880, Note_on_c, 0, 67, 58
4, 63024, Note_on_c, 0, 67, 0
4, 63120, Note_on_c, 0, 67, 58
4, 63264, Note_on_c, 0, 67, 0
4, 63360, Note_on_c, 0, 67, 58
4, 63744, Note_on_c, 0, 67, 0
4, 64320, Note_on_c, 0, 67, 58
4, 64464, Note_on_c, 0, 67, 0
4, 64560, Note_on_c, 0, 67, 58
4, 64704, Note_on_c, 0, 67, 0
4, 64800, Note_on_c, 0, 67, 58
4, 64944, Note_on_c, 0, 67, 0
4, 65040, Note_on_c, 0, 67, 58
4, 65184, Note_on_c, 0, 67, 0
4, 65280, Note_on_c, 0, 67, 58
4, 65664, Note_on_c, 0, 67, 0
4, 66240, Note_on_c, 0, 67, 58
4, 66384, Note_on_c, 0, 67, 0
4, 66480, Note_on_c, 0, 67, 58
4, 66624, Note_on_c, 0, 67, 0
4, 66720, Note_on_c, 0, 62, 58
4, 66864, Note_on_c, 0, 62, 0
4, 66960, Note_on_c, 0, 62, 58
4, 67104, Note_on_c, 0, 62, 0
4, 67200, Note_on_c, 0, 62, 58
4, 67584, Note_on_c, 0, 62, 0
4, 67920, Note_on_c, 0, 55, 58
4, 68064, Note_on_c, 0, 55, 0
4, 68160, Note_on_c, 0, 55, 58
4, 68544, Note_on_c, 0, 55, 0
4, 68880, Note_on_c, 0, 57, 58
4, 69024, Note_on_c, 0, 57, 0
4, 69120, Note_on_c, 0, 54, 58
4, 69600, Note_on_c, 0, 54, 0
4, 69600, Note_on_c, 0, 55, 58
4, 69792, Note_on_c, 0, 55, 0
4, 70080, Note_on_c, 0, 67, 58
4, 70224, Note_on_c, 0, 67, 0
4, 70320, Note_on_c, 0, 67, 58
4, 70464, Note_on_c, 0, 67, 0
4, 70560, Note_on_c, 0, 67, 58
4, 70704, Note_on_c, 0, 67, 0
4, 70800, Note_on_c, 0, 67, 58
4, 70944, Note_on_c, 0, 67, 0
4, 71040, Note_on_c, 0, 67, 58
4, 71424, Note_on_c, 0, 67, 0
4, 72000, Note_on_c, 0, 67, 58
4, 72144, Note_on_c, 0, 67, 0
4, 72240, Note_on_c, 0, 67, 58
4, 72384, Note_on_c, 0, 67, 0
4, 72480, Note_on_c, 0, 67, 58
4, 72624, Note_on_c, 0, 67, 0
4, 72720, Note_on_c, 0, 67, 58
4, 72864, Note_on_c, 0, 67, 0
4, 72960, Note_on_c, 0, 67, 58
4, 73344, Note_on_c, 0, 67, 0
4, 73920, Note_on_c, 0, 67, 58
4, 74064, Note_on_c, 0, 67, 0
4, 74160, Note_on_c, 0, 67, 58
4, 74304, Note_on_c, 0, 67, 0
4, 74400, Note_on_c, 0, 62, 58
4, 74544, Note_on_c, 0, 62, 0
4, 74640, Note_on_c, 0, 62, 58
4, 74784, Note_on_c, 0, 62, 0
4, 74880, Note_on_c, 0, 62, 58
4, 75264, Note_on_c, 0, 62, 0
4, 75600, Note_on_c, 0, 55, 58
4, 75744, Note_on_c, 0, 55, 0
4, 75840, Note_on_c, 0, 55, 58
4, 76224, Note_on_c, 0, 55, 0
4, 76560, Note_on_c, 0, 57, 58
4, 76704, Note_on_c, 0, 57, 0
4, 76800, Note_on_c, 0, 54, 58
4, 77280, Note_on_c, 0, 54, 0
4, 77280, Note_on_c, 0, 55, 58
4, 77472, Note_on_c, 0, 55, 0
4, 77760, Note_on_c, 0, 71, 58
4, 77904, Note_on_c, 0, 71, 0
4, 78000, Note_on_c, 0, 71, 58
4, 78144, Note_on_c, 0, 71, 0
4, 78240, Note_on_c, 0, 70, 58
4, 78384, Note_on_c, 0, 70, 0
4, 78480, Note_on_c, 0, 70, 58
4, 78624, Note_on_c, 0, 70, 0
4, 78720, Note_on_c, 0, 69, 58
4, 79104, Note_on_c, 0, 69, 0
4, 79680, Note_on_c, 0, 69, 58
4, 79824, Note_on_c, 0, 69, 0
4, 79920, Note_on_c, 0, 69, 58
4, 80064, Note_on_c, 0, 69, 0
4, 80160, Note_on_c, 0, 68, 58
4, 80304, Note_on_c, 0, 68, 0
4, 80400, Note_on_c, 0, 68, 58
4, 80544, Note_on_c, 0, 68, 0
4, 80640, Note_on_c, 0, 67, 58
4, 81024, Note_on_c, 0, 67, 0
4, 81600, Note_on_c, 0, 60, 58
4, 81744, Note_on_c, 0, 60, 0
4, 81840, Note_on_c, 0, 60, 58
4, 81984, Note_on_c, 0, 60, 0
4, 82080, Note_on_c, 0, 64, 58
4, 82224, Note_on_c, 0, 64, 0
4, 82320, Note_on_c, 0, 64, 58
4, 82464, Note_on_c, 0, 64, 0
4, 82560, Note_on_c, 0, 64, 58
4, 82944, Note_on_c, 0, 64, 0
4, 83280, Note_on_c, 0, 62, 58
4, 83520, Note_on_c, 0, 62, 0
4, 83520, Note_on_c, 0, 60, 58
4, 83904, Note_on_c, 0, 60, 0
4, 84240, Note_on_c, 0, 57, 58
4, 84480, Note_on_c, 0, 57, 0
4, 84480, Note_on_c, 0, 59, 58
4, 84864, Note_on_c, 0, 59, 0
4, 85200, Note_on_c, 0, 71, 58
4, 85440, Note_on_c, 0, 71, 0
4, 85440, Note_on_c, 0, 69, 58
4, 85584, Note_on_c, 0, 69, 0
4, 85680, Note_on_c, 0, 69, 58
4, 85824, Note_on_c, 0, 69, 0
4, 85920, Note_on_c, 0, 69, 58
4, 86064, Note_on_c, 0, 69, 0
4, 86160, Note_on_c, 0, 69, 58
4, 86304, Note_on_c, 0, 69, 0
4, 86400, Note_on_c, 0, 64, 58
4, 86784, Note_on_c, 0, 64, 0
4, 87120, Note_on_c, 0, 71, 58
4, 87360, Note_on_c, 0, 71, 0
4, 87360, Note_on_c, 0, 69, 58
4, 87744, Note_on_c, 0, 69, 0
4, 88080, Note_on_c, 0, 69, 58
4, 88320, Note_on_c, 0, 69, 0
4, 88320, Note_on_c, 0, 71, 58
4, 88704, Note_on_c, 0, 71, 0
4, 89040, Note_on_c, 0, 63, 58
4, 89280, Note_on_c, 0, 63, 0
4, 89280, Note_on_c, 0, 64, 58
4, 89664, Note_on_c, 0, 64, 0
4, 90960, Note_on_c, 0, 57, 72
4, 91104, Note_on_c, 0, 57, 0
4, 91200, Note_on_c, 0, 56, 72
4, 91440, Note_on_c, 0, 56, 0
4, 91440, Note_on_c, 0, 59, 72
4, 91584, Note_on_c, 0, 59, 0
4, 91680, Note_on_c, 0, 52, 72
4, 91824, Note_on_c, 0, 52, 0
4, 91920, Note_on_c, 0, 57, 58
4, 92064, Note_on_c, 0, 57, 0
4, 92160, Note_on_c, 0, 56, 58
4, 92400, Note_on_c, 0, 56, 0
4, 92400, Note_on_c, 0, 59, 58
4, 92544, Note_on_c, 0, 59, 0
4, 92640, Note_on_c, 0, 52, 58
4, 92784, Note_on_c, 0, 52, 0
4, 96240, Note_on_c, 0, 55, 58
4, 96480, Note_on_c, 0, 55, 0
4, 96480, Note_on_c, 0, 67, 58
4, 96624, Note_on_c, 0, 67, 0
4, 96720, Note_on_c, 0, 67, 58
4, 96864, Note_on_c, 0, 67, 0
4, 96960, Note_on_c, 0, 67, 58
4, 97344, Note_on_c, 0, 67, 0
4, 105600, Note_on_c, 0, 67, 92
4, 106512, Note_on_c, 0, 67, 0
4, 106560, Note_on_c, 0, 72, 92
4, 106590, Note_on_c, 0, 72, 0
4, 106590, Note_on_c, 0, 71, 92
4, 106620, Note_on_c, 0, 71, 0
4, 106620, Note_on_c, 0, 72, 92
4, 106650, Note_on_c, 0, 72, 0
4, 106650, Note_on_c, 0, 71, 92
4, 106680, Note_on_c, 0, 71, 0
4, 106680, Note_on_c, 0, 72, 92
4, 106710, Note_on_c, 0, 72, 0
4, 106710, Note_on_c, 0, 71, 92
4, 106740, Note_on_c, 0, 71, 0
4, 106740, Note_on_c, 0, 72, 92
4, 106770, Note_on_c, 0, 72, 0
4, 106770, Note_on_c, 0, 71, 92
4, 106800, Note_on_c, 0, 71, 0
4, 106800, Note_on_c, 0, 72, 92
4, 106830, Note_on_c, 0, 72, 0
4, 106830, Note_on_c, 0, 71, 92
4, 106860, Note_on_c, 0, 71, 0
4, 106860, Note_on_c, 0, 72, 92
4, 106890, Note_on_c, 0, 72, 0
4, 106890, Note_on_c, 0, 71, 92
4, 106920, Note_on_c, 0, 71, 0
4, 106920, Note_on_c, 0, 72, 92
4, 106950, Note_on_c, 0, 72, 0
4, 106950, Note_on_c, 0, 71, 92
4, 106980, Note_on_c, 0, 71, 0
4, 106980, Note_on_c, 0, 72, 92
4, 107010, Note_on_c, 0, 72, 0
4, 107010, Note_on_c, 0, 71, 92
4, 107040, Note_on_c, 0, 71, 0
4, 107040, Note_on_c, 0, 72, 92
4, 107070, Note_on_c, 0, 72, 0
4, 107070, Note_on_c, 0, 71, 92
4, 107100, Note_on_c, 0, 71, 0
4, 107100, Note_on_c, 0, 72, 92
4, 107130, Note_on_c, 0, 72, 0
4, 107130, Note_on_c, 0, 71, 92
4, 107160, Note_on_c, 0, 71, 0
4, 107160, Note_on_c, 0, 72, 92
4, 107190, Note_on_c, 0, 72, 0
4, 107190, Note_on_c, 0, 71, 92
4, 107220, Note_on_c, 0, 71, 0
4, 107220, Note_on_c, 0, 72, 92
4, 107250, Note_on_c, 0, 72, 0
4, 107250, Note_on_c, 0, 71, 92
4, 107280, Note_on_c, 0, 71, 0
4, 107280, Note_on_c, 0, 69, 92
4, 107400, Note_on_c, 0, 69, 0
4, 107400, Note_on_c, 0, 71, 92
4, 107520, Note_on_c, 0, 71, 0
4, 107520, Note_on_c, 0, 72, 92
4, 107904, Note_on_c, 0, 72, 0
4, 108480, Note_on_c, 0, 64, 92
4, 108864, Note_on_c, 0, 64, 0
4, 108960, Note_on_c, 0, 64, 92
4, 109344, Note_on_c, 0, 64, 0
4, 109440, Note_on_c, 0, 65, 92
4, 110160, Note_on_c, 0, 65, 0
4, 110160, Note_on_c, 0, 69, 92
4, 110352, Note_on_c, 0, 69, 0
4, 110400, Note_on_c, 0, 67, 92
4, 110784, Note_on_c, 0, 67, 0
4, 110880, Note_on_c, 0, 59, 92
4, 111264, Note_on_c, 0, 59, 0
4, 111360, Note_on_c, 0, 60, 92
4, 111744, Note_on_c, 0, 60, 0
4, 112320, Note_on_c, 0, 60, 58
4, 112416, Note_on_c, 0, 60, 0
4, 112440, Note_on_c, 0, 60, 58
4, 112536, Note_on_c, 0, 60, 0
4, 112560, Note_on_c, 0, 59, 58
4, 112656, Note_on_c, 0, 59, 0
4, 112680, Note_on_c, 0, 59, 58
4, 112776, Note_on_c, 0, 59, 0
4, 112800, Note_on_c, 0, 60, 58
4, 112896, Note_on_c, 0, 60, 0
4, 112920, Note_on_c, 0, 60, 58
4, 113016, Note_on_c, 0, 60, 0
4, 113040, Note_on_c, 0, 62, 58
4, 113136, Note_on_c, 0, 62, 0
4, 113160, Note_on_c, 0, 62, 58
4, 113256, Note_on_c, 0, 62, 0
4, 113280, Note_on_c, 0, 63, 58
4, 113376, Note_on_c, 0, 63, 0
4, 113400, Note_on_c, 0, 63, 58
4, 113496, Note_on_c, 0, 63, 0
4, 113520, Note_on_c, 0, 65, 58
4, 113616, Note_on_c, 0, 65, 0
4, 113640, Note_on_c, 0, 65, 58
4, 113736, Note_on_c, 0, 65, 0
4, 113760, Note_on_c, 0, 63, 58
4, 113856, Note_on_c, 0, 63, 0
4, 113880, Note_on_c, 0, 63, 58
4, 113976, Note_on_c, 0, 63, 0
4, 114000, Note_on_c, 0, 62, 58
4, 114096, Note_on_c, 0, 62, 0
4, 114120, Note_on_c, 0, 62, 58
4, 114216, Note_on_c, 0, 62, 0
4, 114240, Note_on_c, 0, 60, 58
4, 114336, Note_on_c, 0, 60, 0
4, 114360, Note_on_c, 0, 60, 58
4, 114456, Note_on_c, 0, 60, 0
4, 114480, Note_on_c, 0, 59, 58
4, 114576, Note_on_c, 0, 59, 0
4, 114600, Note_on_c, 0, 59, 58
4, 114696, Note_on_c, 0, 59, 0
4, 114720, Note_on_c, 0, 60, 58
4, 114816, Note_on_c, 0, 60, 0
4, 114840, Note_on_c, 0, 60, 58
4, 114936, Note_on_c, 0, 60, 0
4, 114960, Note_on_c, 0, 62, 58
4, 115056, Note_on_c, 0, 62, 0
4, 115080, Note_on_c, 0, 62, 58
4, 115176, Note_on_c, 0, 62, 0
4, 115200, Note_on_c, 0, 63, 58
4, 115296, Note_on_c, 0, 63, 0
4, 115320, Note_on_c, 0, 63, 58
4, 115416, Note_on_c, 0, 63, 0
4, 115440, Note_on_c, 0, 65, 58
4, 115536, Note_on_c, 0, 65, 0
4, 115560, Note_on_c, 0, 65, 58
4, 115656, Note_on_c, 0, 65, 0
4, 115680, Note_on_c, 0, 63, 58
4, 115776, Note_on_c, 0, 63, 0
4, 115800, Note_on_c, 0, 63, 58
4, 115896, Note_on_c, 0, 63, 0
4, 115920, Note_on_c, 0, 62, 58
4, 116016, Note_on_c, 0, 62, 0
4, 116040, Note_on_c, 0, 62, 58
4, 116136, Note_on_c, 0, 62, 0
4, 116160, Note_on_c, 0, 60, 58
4, 116256, Note_on_c, 0, 60, 0
4, 116280, Note_on_c, 0, 60, 58
4, 116376, Note_on_c, 0, 60, 0
4, 116400, Note_on_c, 0, 59, 58
4, 116496, Note_on_c, 0, 59, 0
4, 116520, Note_on_c, 0, 59, 58
4, 116616, Note_on_c, 0, 59, 0
4, 116640, Note_on_c, 0, 60, 58
4, 116736, Note_on_c, 0, 60, 0
4, 116760, Note_on_c, 0, 60, 58
4, 116856, Note_on_c, 0, 60, 0
4, 116880, Note_on_c, 0, 63, 58
4, 116976, Note_on_c, 0, 63, 0
4, 117000, Note_on_c, 0, 63, 58
4, 117096, Note_on_c, 0, 63, 0
4, 117120, Note_on_c, 0, 62, 78
4, 117216, Note_on_c, 0, 62, 0
4, 117240, Note_on_c, 0, 62, 58
4, 117336, Note_on_c, 0, 62, 0
4, 117360, Note_on_c, 0, 62, 58
4, 117456, Note_on_c, 0, 62, 0
4, 117480, Note_on_c, 0, 62, 58
4, 117576, Note_on_c, 0, 62, 0
4, 117600, Note_on_c, 0, 62, 58
4, 117696, Note_on_c, 0, 62, 0
4, 117720, Note_on_c, 0, 62, 58
4, 117816, Note_on_c, 0, 62, 0
4, 117840, Note_on_c, 0, 63, 58
4, 117936, Note_on_c, 0, 63, 0
4, 117960, Note_on_c, 0, 63, 58
4, 118056, Note_on_c, 0, 63, 0
4, 118080, Note_on_c, 0, 60, 58
4, 118176, Note_on_c, 0, 60, 0
4, 118200, Note_on_c, 0, 60, 58
4, 118296, Note_on_c, 0, 60, 0
4, 118320, Note_on_c, 0, 60, 58
4, 118416, Note_on_c, 0, 60, 0
4, 118440, Note_on_c, 0, 60, 58
4, 118536, Note_on_c, 0, 60, 0
4, 118560, Note_on_c, 0, 65, 58
4, 118656, Note_on_c, 0, 65, 0
4, 118680, Note_on_c, 0, 65, 58
4, 118776, Note_on_c, 0, 65, 0
4, 118800, Note_on_c, 0, 65, 58
4, 118896, Note_on_c, 0, 65, 0
4, 118920, Note_on_c, 0, 65, 58
4, 119016, Note_on_c, 0, 65, 0
4, 119040, Note_on_c, 0, 63, 58
4, 119136, Note_on_c, 0, 63, 0
4, 119160, Note_on_c, 0, 63, 58
4, 119256, Note_on_c, 0, 63, 0
4, 119280, Note_on_c, 0, 65, 58
4, 119376, Note_on_c, 0, 65, 0
4, 119400, Note_on_c, 0, 65, 58
4, 119496, Note_on_c, 0, 65, 0
4, 119520, Note_on_c, 0, 63, 58
4, 119616, Note_on_c, 0, 63, 0
4, 119640, Note_on_c, 0, 63, 58
4, 119736, Note_on_c, 0, 63, 0
4, 119760, Note_on_c, 0, 62, 58
4, 119856, Note_on_c, 0, 62, 0
4, 119880, Note_on_c, 0, 62, 58
4, 119976, Note_on_c, 0, 62, 0
4, 120000, Note_on_c, 0, 60, 58
4, 120096, Note_on_c, 0, 60, 0
4, 120120, Note_on_c, 0, 60, 58
4, 120216, Note_on_c, 0, 60, 0
4, 120240, Note_on_c, 0, 59, 58
4, 120336, Note_on_c, 0, 59, 0
4, 120360, Note_on_c, 0, 59, 58
4, 120456, Note_on_c, 0, 59, 0
4, 120480, Note_on_c, 0, 60, 58
4, 120576, Note_on_c, 0, 60, 0
4, 120600, Note_on_c, 0, 60, 58
4, 120696, Note_on_c, 0, 60, 0
4, 120720, Note_on_c, 0, 62, 58
4, 120816, Note_on_c, 0, 62, 0
4, 120840, Note_on_c, 0, 62, 58
4, 120936, Note_on_c, 0, 62, 0
4, 120960, Note_on_c, 0, 63, 58
4, 121056, Note_on_c, 0, 63, 0
4, 121080, Note_on_c, 0, 63, 58
4, 121176, Note_on_c, 0, 63, 0
4, 121200, Note_on_c, 0, 65, 58
4, 121296, Note_on_c, 0, 65, 0
4, 121320, Note_on_c, 0, 65, 58
4, 121416, Note_on_c, 0, 65, 0
4, 121440, Note_on_c, 0, 63, 58
4, 121536, Note_on_c, 0, 63, 0
4, 121560, Note_on_c, 0, 63, 58
4, 121656, Note_on_c, 0, 63, 0
4, 121680, Note_on_c, 0, 62, 58
4, 121776, Note_on_c, 0, 62, 0
4, 121800, Note_on_c, 0, 62, 58
4, 121896, Note_on_c, 0, 62, 0
4, 121920, Note_on_c, 0, 60, 58
4, 122016, Note_on_c, 0, 60, 0
4, 122040, Note_on_c, 0, 60, 58
4, 122136, Note_on_c, 0, 60, 0
4, 122160, Note_on_c, 0, 59, 58
4, 122256, Note_on_c, 0, 59, 0
4, 122280, Note_on_c, 0, 59, 58
4, 122376, Note_on_c, 0, 59, 0
4, 122400, Note_on_c, 0, 60, 58
4, 122496, Note_on_c, 0, 60, 0
4, 122520, Note_on_c, 0, 60, 58
4, 122616, Note_on_c, 0, 60, 0
4, 122640, Note_on_c, 0, 62, 58
4, 122736, Note_on_c, 0, 62, 0
4, 122760, Note_on_c, 0, 62, 58
4, 122856, Note_on_c, 0, 62, 0
4, 122880, Note_on_c, 0, 63, 58
4, 122976, Note_on_c, 0, 63, 0
4, 123000, Note_on_c, 0, 63, 58
4, 123096, Note_on_c, 0, 63, 0
4, 123120, Note_on_c, 0, 65, 58
4, 123216, Note_on_c, 0, 65, 0
4, 123240, Note_on_c, 0, 65, 58
4, 123336, Note_on_c, 0, 65, 0
4, 123360, Note_on_c, 0, 63, 58
4, 123456, Note_on_c, 0, 63, 0
4, 123480, Note_on_c, 0, 63, 58
4, 123576, Note_on_c, 0, 63, 0
4, 123600, Note_on_c, 0, 62, 58
4, 123696, Note_on_c, 0, 62, 0
4, 123720, Note_on_c, 0, 62, 58
4, 123816, Note_on_c, 0, 62, 0
4, 123840, Note_on_c, 0, 60, 58
4, 123936, Note_on_c, 0, 60, 0
4, 123960, Note_on_c, 0, 60, 58
4, 124056, Note_on_c, 0, 60, 0
4, 124080, Note_on_c, 0, 59, 58
4, 124176, Note_on_c, 0, 59, 0
4, 124200, Note_on_c, 0, 59, 58
4, 124296, Note_on_c, 0, 59, 0
4, 124320, Note_on_c, 0, 60, 58
4, 124416, Note_on_c, 0, 60, 0
4, 124440, Note_on_c, 0, 60, 58
4, 124536, Note_on_c, 0, 60, 0
4, 124560, Note_on_c, 0, 63, 58
4, 124656, Note_on_c, 0, 63, 0
4, 124680, Note_on_c, 0, 63, 58
4, 124776, Note_on_c, 0, 63, 0
4, 124800, Note_on_c, 0, 62, 78
4, 124896, Note_on_c, 0, 62, 0
4, 124920, Note_on_c, 0, 62, 58
4, 125016, Note_on_c, 0, 62, 0
4, 125040, Note_on_c, 0, 62, 58
4, 125136, Note_on_c, 0, 62, 0
4, 125160, Note_on_c, 0, 62, 58
4, 125256, Note_on_c, 0, 62, 0
4, 125280, Note_on_c, 0, 62, 58
4, 125376, Note_on_c, 0, 62, 0
4, 125400, Note_on_c, 0, 62, 58
4, 125496, Note_on_c, 0, 62, 0
4, 125520, Note_on_c, 0, 63, 58
4, 125616, Note_on_c, 0, 63, 0
4, 125640, Note_on_c, 0, 63, 58
4, 125736, Note_on_c, 0, 63, 0
4, 125760, Note_on_c, 0, 60, 58
4, 125856, Note_on_c, 0, 60, 0
4, 125880, Note_on_c, 0, 60, 58
4, 125976, Note_on_c, 0, 60, 0
4, 126000, Note_on_c, 0, 60, 58
4, 126096, Note_on_c, 0, 60, 0
4, 126120, Note_on_c, 0, 60, 58
4, 126216, Note_on_c, 0, 60, 0
4, 126240, Note_on_c, 0, 65, 58
4, 126336, Note_on_c, 0, 65, 0
4, 126360, Note_on_c, 0, 65, 58
4, 126456, Note_on_c, 0, 65, 0
4, 126480, Note_on_c, 0, 65, 58
4, 126576, Note_on_c, 0, 65, 0
4, 126600, Note_on_c, 0, 65, 58
4, 126696, Note_on_c, 0, 65, 0
4, 126720, Note_on_c, 0, 63, 58
4, 126816, Note_on_c, 0, 63, 0
4, 126840, Note_on_c, 0, 63, 58
4, 126936, Note_on_c, 0, 63, 0
4, 126960, Note_on_c, 0, 65, 58
4, 127056, Note_on_c, 0, 65, 0
4, 127080, Note_on_c, 0, 65, 58
4, 127176, Note_on_c, 0, 65, 0
4, 127200, Note_on_c, 0, 63, 58
4, 127296, Note_on_c, 0, 63, 0
4, 127320, Note_on_c, 0, 63, 58
4, 127416, Note_on_c, 0, 63, 0
4, 127440, Note_on_c, 0, 62, 58
4, 127536, Note_on_c, 0, 62, 0
4, 127560, Note_on_c, 0, 62, 58
4, 127656, Note_on_c, 0, 62, 0
4, 127680, Note_on_c, 0, 63, 58
4, 127776, Note_on_c, 0, 63, 0
4, 127800, Note_on_c, 0, 63, 58
4, 127896, Note_on_c, 0, 63, 0
4, 127920, Note_on_c, 0, 62, 58
4, 128016, Note_on_c, 0, 62, 0
4, 128040, Note_on_c, 0, 62, 58
4, 128136, Note_on_c, 0, 62, 0
4, 128160, Note_on_c, 0, 63, 58
4, 128256, Note_on_c, 0, 63, 0
4, 128280, Note_on_c, 0, 63, 58
4, 128376, Note_on_c, 0, 63, 0
4, 128400, Note_on_c, 0, 65, 58
4, 128496, Note_on_c, 0, 65, 0
4, 128520, Note_on_c, 0, 65, 58
4, 128616, Note_on_c, 0, 65, 0
4, 128640, Note_on_c, 0, 67, 58
4, 128736, Note_on_c, 0, 67, 0
4, 128760, Note_on_c, 0, 67, 58
4, 128856, Note_on_c, 0, 67, 0
4, 128880, Note_on_c, 0, 70, 58
4, 128976, Note_on_c, 0, 70, 0
4, 129000, Note_on_c, 0, 70, 58
4, 129096, Note_on_c, 0, 70, 0
4, 129120, Note_on_c, 0, 68, 58
4, 129216, Note_on_c, 0, 68, 0
4, 129240, Note_on_c, 0, 68, 58
4, 129336, Note_on_c, 0, 68, 0
4, 129360, Note_on_c, 0, 67, 58
4, 129456, Note_on_c, 0, 67, 0
4, 129480, Note_on_c, 0, 67, 58
4, 129576, Note_on_c, 0, 67, 0
4, 129600, Note_on_c, 0, 65, 58
4, 129696, Note_on_c, 0, 65, 0
4, 129720, Note_on_c, 0, 65, 58
4, 129816, Note_on_c, 0, 65, 0
4, 129840, Note_on_c, 0, 64, 58
4, 129936, Note_on_c, 0, 64, 0
4, 129960, Note_on_c, 0, 64, 58
4, 130056, Note_on_c, 0, 64, 0
4, 130080, Note_on_c, 0, 65, 58
4, 130176, Note_on_c, 0, 65, 0
4, 130200, Note_on_c, 0, 65, 58
4, 130296, Note_on_c, 0, 65, 0
4, 130320, Note_on_c, 0, 67, 58
4, 130416, Note_on_c, 0, 67, 0
4, 130440, Note_on_c, 0, 67, 58
4, 130536, Note_on_c, 0, 67, 0
4, 130560, Note_on_c, 0, 68, 58
4, 130656, Note_on_c, 0, 68, 0
4, 130680, Note_on_c, 0, 68, 58
4, 130776, Note_on_c, 0, 68, 0
4, 130800, Note_on_c, 0, 72, 58
4, 130896, Note_on_c, 0, 72, 0
4, 130920, Note_on_c, 0, 72, 58
4, 131016, Note_on_c, 0, 72, 0
4, 131040, Note_on_c, 0, 70, 58
4, 131136, Note_on_c, 0, 70, 0
4, 131160, Note_on_c, 0, 70, 58
4, 131256, Note_on_c, 0, 70, 0
4, 131280, Note_on_c, 0, 69, 58
4, 131376, Note_on_c, 0, 69, 0
4, 131400, Note_on_c, 0, 69, 58
4, 131496, Note_on_c, 0, 69, 0
4, 131520, Note_on_c, 0, 67, 58
4, 131616, Note_on_c, 0, 67, 0
4, 131640, Note_on_c, 0, 67, 58
4, 131736, Note_on_c, 0, 67, 0
4, 131760, Note_on_c, 0, 66, 58
4, 131856, Note_on_c, 0, 66, 0
4, 131880, Note_on_c, 0, 66, 58
4, 131976, Note_on_c, 0, 66, 0
4, 132000, Note_on_c, 0, 67, 58
4, 132096, Note_on_c, 0, 67, 0
4, 132120, Note_on_c, 0, 67, 58
4, 132216, Note_on_c, 0, 67, 0
4, 132240, Note_on_c, 0, 69, 58
4, 132336, Note_on_c, 0, 69, 0
4, 132360, Note_on_c, 0, 69, 58
4, 132456, Note_on_c, 0, 69, 0
4, 132480, Note_on_c, 0, 71, 58
4, 132576, Note_on_c, 0, 71, 0
4, 132600, Note_on_c, 0, 71, 58
4, 132696, Note_on_c, 0, 71, 0
4, 132720, Note_on_c, 0, 72, 58
4, 132816, Note_on_c, 0, 72, 0
4, 132840, Note_on_c, 0, 72, 58
4, 132936, Note_on_c, 0, 72, 0
4, 132960, Note_on_c, 0, 71, 58
4, 133056, Note_on_c, 0, 71, 0
4, 133080, Note_on_c, 0, 71, 58
4, 133176, Note_on_c, 0, 71, 0
4, 133200, Note_on_c, 0, 59, 58
4, 133296, Note_on_c, 0, 59, 0
4, 133320, Note_on_c, 0, 59, 58
4, 133416, Note_on_c, 0, 59, 0
4, 133440, Note_on_c, 0, 60, 58
4, 133536, Note_on_c, 0, 60, 0
4, 133560, Note_on_c, 0, 60, 58
4, 133656, Note_on_c, 0, 60, 0
4, 133680, Note_on_c, 0, 62, 58
4, 133776, Note_on_c, 0, 62, 0
4, 133800, Note_on_c, 0, 62, 58
4, 133896, Note_on_c, 0, 62, 0
4, 133920, Note_on_c, 0, 63, 58
4, 134016, Note_on_c, 0, 63, 0
4, 134040, Note_on_c, 0, 63, 58
4, 134136, Note_on_c, 0, 63, 0
4, 134160, Note_on_c, 0, 69, 58
4, 134256, Note_on_c, 0, 69, 0
4, 134280, Note_on_c, 0, 69, 58
4, 134376, Note_on_c, 0, 69, 0
4, 134400, Note_on_c, 0, 62, 58
4, 134496, Note_on_c, 0, 62, 0
4, 134520, Note_on_c, 0, 62, 58
4, 134616, Note_on_c, 0, 62, 0
4, 134640, Note_on_c, 0, 60, 58
4, 134736, Note_on_c, 0, 60, 0
4, 134760, Note_on_c, 0, 60, 58
4, 134856, Note_on_c, 0, 60, 0
4, 134880, Note_on_c, 0, 59, 58
4, 134976, Note_on_c, 0, 59, 0
4, 135000, Note_on_c, 0, 59, 58
4, 135096, Note_on_c, 0, 59, 0
4, 135120, Note_on_c, 0, 59, 58
4, 135216, Note_on_c, 0, 59, 0
4, 135240, Note_on_c, 0, 59, 58
4, 135336, Note_on_c, 0, 59, 0
4, 135360, Note_on_c, 0, 60, 58
4, 135456, Note_on_c, 0, 60, 0
4, 135480, Note_on_c, 0, 60, 58
4, 135576, Note_on_c, 0, 60, 0
4, 135600, Note_on_c, 0, 56, 58
4, 135696, Note_on_c, 0, 56, 0
4, 135720, Note_on_c, 0, 56, 58
4, 135816, Note_on_c, 0, 56, 0
4, 135840, Note_on_c, 0, 55, 58
4, 135936, Note_on_c, 0, 55, 0
4, 135960, Note_on_c, 0, 55, 58
4, 136056, Note_on_c, 0, 55, 0
4, 136080, Note_on_c, 0, 54, 58
4, 136176, Note_on_c, 0, 54, 0
4, 136200, Note_on_c, 0, 54, 58
4, 136296, Note_on_c, 0, 54, 0
4, 136320, Note_on_c, 0, 55, 58
4, 136416, Note_on_c, 0, 55, 0
4, 136440, Note_on_c, 0, 55, 58
4, 136536, Note_on_c, 0, 55, 0
4, 136560, Note_on_c, 0, 53, 58
4, 136656, Note_on_c, 0, 53, 0
4, 136680, Note_on_c, 0, 53, 58
4, 136776, Note_on_c, 0, 53, 0
4, 136800, Note_on_c, 0, 52, 58
4, 136896, Note_on_c, 0, 52, 0
4, 136920, Note_on_c, 0, 52, 58
4, 137016, Note_on_c, 0, 52, 0
4, 137040, Note_on_c, 0, 51, 58
4, 137136, Note_on_c, 0, 51, 0
4, 137160, Note_on_c, 0, 51, 58
4, 137256, Note_on_c, 0, 51, 0
4, 137280, Note_on_c, 0, 50, 58
4, 137376, Note_on_c, 0, 50, 0
4, 137400, Note_on_c, 0, 50, 58
4, 137496, Note_on_c, 0, 50, 0
4, 137520, Note_on_c, 0, 62, 58
4, 137616, Note_on_c, 0, 62, 0
4, 137640, Note_on_c, 0, 62, 58
4, 137736, Note_on_c, 0, 62, 0
4, 137760, Note_on_c, 0, 60, 58
4, 137856, Note_on_c, 0, 60, 0
4, 137880, Note_on_c, 0, 60, 58
4, 137976, Note_on_c, 0, 60, 0
4, 138000, Note_on_c, 0, 60, 58
4, 138096, Note_on_c, 0, 60, 0
4, 138120, Note_on_c, 0, 60, 58
4, 138216, Note_on_c, 0, 60, 0
4, 138240, Note_on_c, 0, 59, 58
4, 138336, Note_on_c, 0, 59, 0
4, 138360, Note_on_c, 0, 59, 58
4, 138456, Note_on_c, 0, 59, 0
4, 138480, Note_on_c, 0, 62, 58
4, 138576, Note_on_c, 0, 62, 0
4, 138600, Note_on_c, 0, 62, 58
4, 138696, Note_on_c, 0, 62, 0
4, 138720, Note_on_c, 0, 60, 58
4, 138816, Note_on_c, 0, 60, 0
4, 138840, Note_on_c, 0, 60, 58
4, 138936, Note_on_c, 0, 60, 0
4, 138960, Note_on_c, 0, 60, 58
4, 139056, Note_on_c, 0, 60, 0
4, 139080, Note_on_c, 0, 60, 58
4, 139176, Note_on_c, 0, 60, 0
4, 139200, Note_on_c, 0, 59, 58
4, 139296, Note_on_c, 0, 59, 0
4, 139320, Note_on_c, 0, 59, 58
4, 139416, Note_on_c, 0, 59, 0
4, 139440, Note_on_c, 0, 53, 58
4, 139536, Note_on_c, 0, 53, 0
4, 139560, Note_on_c, 0, 53, 58
4, 139656, Note_on_c, 0, 53, 0
4, 139680, Note_on_c, 0, 51, 58
4, 139776, Note_on_c, 0, 51, 0
4, 139800, Note_on_c, 0, 51, 58
4, 139896, Note_on_c, 0, 51, 0
4, 139920, Note_on_c, 0, 56, 58
4, 140016, Note_on_c, 0, 56, 0
4, 140040, Note_on_c, 0, 56, 58
4, 140136, Note_on_c, 0, 56, 0
4, 140160, Note_on_c, 0, 55, 58
4, 140256, Note_on_c, 0, 55, 0
4, 140280, Note_on_c, 0, 55, 58
4, 140376, Note_on_c, 0, 55, 0
4, 140400, Note_on_c, 0, 54, 58
4, 140496, Note_on_c, 0, 54, 0
4, 140520, Note_on_c, 0, 54, 58
4, 140616, Note_on_c, 0, 54, 0
4, 140640, Note_on_c, 0, 55, 58
4, 140736, Note_on_c, 0, 55, 0
4, 140760, Note_on_c, 0, 55, 58
4, 140856, Note_on_c, 0, 55, 0
4, 140880, Note_on_c, 0, 59, 58
4, 140976, Note_on_c, 0, 59, 0
4, 141000, Note_on_c, 0, 59, 58
4, 141096, Note_on_c, 0, 59, 0
4, 141120, Note_on_c, 0, 57, 58
4, 141216, Note_on_c, 0, 57, 0
4, 141240, Note_on_c, 0, 57, 58
4, 141336, Note_on_c, 0, 57, 0
4, 141360, Note_on_c, 0, 56, 58
4, 141456, Note_on_c, 0, 56, 0
4, 141480, Note_on_c, 0, 56, 58
4, 141576, Note_on_c, 0, 56, 0
4, 141600, Note_on_c, 0, 57, 58
4, 141696, Note_on_c, 0, 57, 0
4, 141720, Note_on_c, 0, 57, 58
4, 141816, Note_on_c, 0, 57, 0
4, 141840, Note_on_c, 0, 60, 58
4, 141936, Note_on_c, 0, 60, 0
4, 141960, Note_on_c, 0, 60, 58
4, 142056, Note_on_c, 0, 60, 0
4, 142080, Note_on_c, 0, 59, 58
4, 142176, Note_on_c, 0, 59, 0
4, 142200, Note_on_c, 0, 59, 58
4, 142296, Note_on_c, 0, 59, 0
4, 142320, Note_on_c, 0, 58, 58
4, 142416, Note_on_c, 0, 58, 0
4, 142440, Note_on_c, 0, 58, 58
4, 142536, Note_on_c, 0, 58, 0
4, 142560, Note_on_c, 0, 59, 58
4, 142656, Note_on_c, 0, 59, 0
4, 142680, Note_on_c, 0, 59, 58
4, 142776, Note_on_c, 0, 59, 0
4, 142800, Note_on_c, 0, 62, 58
4, 142896, Note_on_c, 0, 62, 0
4, 142920, Note_on_c, 0, 62, 58
4, 143016, Note_on_c, 0, 62, 0
4, 143040, Note_on_c, 0, 60, 58
4, 143232, Note_on_c, 0, 60, 0
4, 151680, Note_on_c, 0, 67, 92
4, 152592, Note_on_c, 0, 67, 0
4, 152640, Note_on_c, 0, 72, 92
4, 152670, Note_on_c, 0, 72, 0
4, 152670, Note_on_c, 0, 71, 92
4, 152700, Note_on_c, 0, 71, 0
4, 152700, Note_on_c, 0, 72, 92
4, 152730, Note_on_c, 0, 72, 0
4, 152730, Note_on_c, 0, 71, 92
4, 152760, Note_on_c, 0, 71, 0
4, 152760, Note_on_c, 0, 72, 92
4, 152790, Note_on_c, 0, 72, 0
4, 152790, Note_on_c, 0, 71, 92
4, 152820, Note_on_c, 0, 71, 0
4, 152820, Note_on_c, 0, 72, 92
4, 152850, Note_on_c, 0, 72, 0
4, 152850, Note_on_c, 0, 71, 92
4, 152880, Note_on_c, 0, 71, 0
4, 152880, Note_on_c, 0, 72, 92
4, 152910, Note_on_c, 0, 72, 0
4, 152910, Note_on_c, 0, 71, 92
4, 152940, Note_on_c, 0, 71, 0
4, 152940, Note_on_c, 0, 72, 92
4, 152970, Note_on_c, 0, 72, 0
4, 152970, Note_on_c, 0, 71, 92
4, 153000, Note_on_c, 0, 71, 0
4, 153000, Note_on_c, 0, 72, 92
4, 153030, Note_on_c, 0, 72, 0
4, 153030, Note_on_c, 0, 71, 92
4, 153060, Note_on_c, 0, 71, 0
4, 153060, Note_on_c, 0, 72, 92
4, 153090, Note_on_c, 0, 72, 0
4, 153090, Note_on_c, 0, 71, 92
4, 153120, Note_on_c, 0, 71, 0
4, 153120, Note_on_c, 0, 72, 92
4, 153150, Note_on_c, 0, 72, 0
4, 153150, Note_on_c, 0, 71, 92
4, 153180, Note_on_c, 0, 71, 0
4, 153180, Note_on_c, 0, 72, 92
4, 153210, Note_on_c, 0, 72, 0
4, 153210, Note_on_c, 0, 71, 92
4, 153240, Note_on_c, 0, 71, 0
4, 153240, Note_on_c, 0, 72, 92
4, 153270, Note_on_c, 0, 72, 0
4, 153270, Note_on_c, 0, 71, 92
4, 153300, Note_on_c, 0, 71, 0
4, 153300, Note_on_c, 0, 72, 92
4, 153330, Note_on_c, 0, 72, 0
4, 153330, Note_on_c, 0, 71, 92
4, 153360, Note_on_c, 0, 71, 0
4, 153360, Note_on_c, 0, 69, 92
4, 153480, Note_on_c, 0, 69, 0
4, 153480, Note_on_c, 0, 71, 92
4, 153600, Note_on_c, 0, 71, 0
4, 153600, Note_on_c, 0, 72, 92
4, 153984, Note_on_c, 0, 72, 0
4, 154560, Note_on_c, 0, 64, 92
4, 154944, Note_on_c, 0, 64, 0
4, 155040, Note_on_c, 0, 64, 92
4, 155424, Note_on_c, 0, 64, 0
4, 155520, Note_on_c, 0, 65, 92
4, 156240, Note_on_c, 0, 65, 0
4, 156240, Note_on_c, 0, 69, 92
4, 156432, Note_on_c, 0, 69, 0
4, 156480, Note_on_c, 0, 67, 92
4, 156864, Note_on_c, 0, 67, 0
4, 156960, Note_on_c, 0, 59, 92
4, 157344, Note_on_c, 0, 59, 0
4, 157440, Note_on_c, 0, 60, 92
4, 157824, Note_on_c, 0, 60, 0
4, 159360, Note_on_c, 0, 59, 58
4, 159552, Note_on_c, 0, 59, 0
4, 159600, Note_on_c, 0, 59, 58
4, 159792, Note_on_c, 0, 59, 0
4, 159840, Note_on_c, 0, 59, 58
4, 160032, Note_on_c, 0, 59, 0
4, 160080, Note_on_c, 0, 59, 58
4, 160272, Note_on_c, 0, 59, 0
4, 160320, Note_on_c, 0, 60, 58
4, 160512, Note_on_c, 0, 60, 0
4, 160560, Note_on_c, 0, 60, 58
4, 160752, Note_on_c, 0, 60, 0
4, 160800, Note_on_c, 0, 64, 58
4, 160992, Note_on_c, 0, 64, 0
4, 161040, Note_on_c, 0, 64, 58
4, 161232, Note_on_c, 0, 64, 0
4, 161280, Note_on_c, 0, 67, 58
4, 161664, Note_on_c, 0, 67, 0
4, 163200, Note_on_c, 0, 59, 58
4, 163392, Note_on_c, 0, 59, 0
4, 163440, Note_on_c, 0, 59, 58
4, 163632, Note_on_c, 0, 59, 0
4, 163680, Note_on_c, 0, 62, 72
4, 163872, Note_on_c, 0, 62, 0
4, 163920, Note_on_c, 0, 62, 72
4, 164112, Note_on_c, 0, 62, 0
4, 164160, Note_on_c, 0, 60, 81
4, 164352, Note_on_c, 0, 60, 0
4, 164400, Note_on_c, 0, 60, 81
4, 164592, Note_on_c, 0, 60, 0
4, 164640, Note_on_c, 0, 57, 92
4, 164832, Note_on_c, 0, 57, 0
4, 164880, Note_on_c, 0, 57, 92
4, 165072, Note_on_c, 0, 57, 0
4, 165120, Note_on_c, 0, 50, 105
4, 165504, Note_on_c, 0, 50, 0
4, 169920, Note_on_c, 0, 55, 92
4, 169920, Note_on_c, 0, 67, 92
4, 171264, Note_on_c, 0, 67, 0
4, 171264, Note_on_c, 0, 55, 0
4, 171360, Note_on_c, 0, 69, 92
4, 171768, Note_on_c, 0, 69, 0
4, 171840, Note_on_c, 0, 67, 92
4, 172248, Note_on_c, 0, 67, 0
4, 172320, Note_on_c, 0, 59, 92
4, 172728, Note_on_c, 0, 59, 0
4, 172800, Note_on_c, 0, 60, 92
4, 173184, Note_on_c, 0, 60, 0
4, 173760, Note_on_c, 0, 64, 112
4, 174144, Note_on_c, 0, 64, 0
4, 174720, Note_on_c, 0, 65, 112
4, 175104, Note_on_c, 0, 65, 0
4, 175680, Note_on_c, 0, 66, 112
4, 176064, Note_on_c, 0, 66, 0
4, 176640, Note_on_c, 0, 67, 58
4, 177600, Note_on_c, 0, 67, 0
4, 177600, Note_on_c, 0, 59, 58
4, 178560, Note_on_c, 0, 59, 0
4, 178560, Note_on_c, 0, 60, 58
4, 178944, Note_on_c, 0, 60, 0
4, 180480, Note_on_c, 0, 67, 58
4, 185688, Note_on_c, 0, 67, 0
4, 185760, Note_on_c, 0, 59, 58
4, 186000, Note_on_c, 0, 59, 0
4, 186000, Note_on_c, 0, 62, 58
4, 186240, Note_on_c, 0, 62, 0
4, 186240, Note_on_c, 0, 65, 58
4, 187200, Note_on_c, 0, 65, 0
4, 187200, Note_on_c, 0, 64, 58
4, 187440, Note_on_c, 0, 64, 0
4, 187440, End_track
5, 0, Start_track
5, 0, Program_c, 0, 48
5, 0, Control_c, 0, 7, 127
5, 0, Control_c, 0, 10, 96
5, 0, Control_c, 0, 91, 85
5, 1920, Note_on_c, 0, 48, 72
5, 2304, Note_on_c, 0, 48, 0
5, 2400, Note_on_c, 0, 48, 72
5, 2784, Note_on_c, 0, 48, 0
5, 2880, Note_on_c, 0, 48, 72
5, 3264, Note_on_c, 0, 48, 0
5, 3360, Note_on_c, 0, 48, 72
5, 3744, Note_on_c, 0, 48, 0
5, 3840, Note_on_c, 0, 48, 72
5, 4224, Note_on_c, 0, 48, 0
5, 4320, Note_on_c, 0, 48, 72
5, 4704, Note_on_c, 0, 48, 0
5, 5280, Note_on_c, 0, 48, 72
5, 5664, Note_on_c, 0, 48, 0
5, 6240, Note_on_c, 0, 48, 72
5, 6720, Note_on_c, 0, 48, 0
5, 6720, Note_on_c, 0, 47, 72
5, 7200, Note_on_c, 0, 47, 0
5, 7200, Note_on_c, 0, 48, 72
5, 7584, Note_on_c, 0, 48, 0
5, 7680, Note_on_c, 0, 55, 72
5, 8064, Note_on_c, 0, 55, 0
5, 8160, Note_on_c, 0, 43, 72
5, 8544, Note_on_c, 0, 43, 0
5, 9600, Note_on_c, 0, 48, 105
5, 9984, Note_on_c, 0, 48, 0
5, 10080, Note_on_c, 0, 48, 105
5, 10464, Note_on_c, 0, 48, 0
5, 10560, Note_on_c, 0, 48, 105
5, 10944, Note_on_c, 0, 48, 0
5, 11040, Note_on_c, 0, 48, 105
5, 11424, Note_on_c, 0, 48, 0
5, 11520, Note_on_c, 0, 48, 105
5, 11904, Note_on_c, 0, 48, 0
5, 12000, Note_on_c, 0, 48, 105
5, 12384, Note_on_c, 0, 48, 0
5, 12480, Note_on_c, 0, 52, 105
5, 12864, Note_on_c, 0, 52, 0
5, 12960, Note_on_c, 0, 52, 105
5, 13344, Note_on_c, 0, 52, 0
5, 13440, Note_on_c, 0, 53, 105
5, 13824, Note_on_c, 0, 53, 0
5, 13920, Note_on_c, 0, 53, 105
5, 14304, Note_on_c, 0, 53, 0
5, 14400, Note_on_c, 0, 55, 105
5, 14784, Note_on_c, 0, 55, 0
5, 14880, Note_on_c, 0, 43, 105
5, 15264, Note_on_c, 0, 43, 0
5, 15360, Note_on_c, 0, 48, 92
5, 15744, Note_on_c, 0, 48, 0
5, 17280, Note_on_c, 0, 48, 72
5, 17664, Note_on_c, 0, 48, 0
5, 17760, Note_on_c, 0, 48, 72
5, 18144, Note_on_c, 0, 48, 0
5, 18240, Note_on_c, 0, 48, 72
5, 18624, Note_on_c, 0, 48, 0
5, 18720, Note_on_c, 0, 48, 72
5, 19104, Note_on_c, 0, 48, 0
5, 19200, Note_on_c, 0, 48, 72
5, 19584, Note_on_c, 0, 48, 0
5, 19680, Note_on_c, 0, 48, 72
5, 20064, Note_on_c, 0, 48, 0
5, 20640, Note_on_c, 0, 48, 72
5, 21024, Note_on_c, 0, 48, 0
5, 21600, Note_on_c, 0, 48, 72
5, 22080, Note_on_c, 0, 48, 0
5, 22080, Note_on_c, 0, 47, 72
5, 22560, Note_on_c, 0, 47, 0
5, 22560, Note_on_c, 0, 48, 72
5, 22944, Note_on_c, 0, 48, 0
5, 23040, Note_on_c, 0, 55, 72
5, 23424, Note_on_c, 0, 55, 0
5, 23520, Note_on_c, 0, 43, 72
5, 23904, Note_on_c, 0, 43, 0
5, 24960, Note_on_c, 0, 48, 105
5, 25344, Note_on_c, 0, 48, 0
5, 25440, Note_on_c, 0, 48, 105
5, 25824, Note_on_c, 0, 48, 0
5, 25920, Note_on_c, 0, 48, 105
5, 26304, Note_on_c, 0, 48, 0
5, 26400, Note_on_c, 0, 48, 105
5, 26784, Note_on_c, 0, 48, 0
5, 26880, Note_on_c, 0, 48, 105
5, 27264, Note_on_c, 0, 48, 0
5, 27360, Note_on_c, 0, 48, 105
5, 27744, Note_on_c, 0, 48, 0
5, 27840, Note_on_c, 0, 52, 105
5, 28224, Note_on_c, 0, 52, 0
5, 28320, Note_on_c, 0, 52, 105
5, 28704, Note_on_c, 0, 52, 0
5, 28800, Note_on_c, 0, 53, 105
5, 29184, Note_on_c, 0, 53, 0
5, 29280, Note_on_c, 0, 53, 105
5, 29664, Note_on_c, 0, 53, 0
5, 29760, Note_on_c, 0, 55, 105
5, 30144, Note_on_c, 0, 55, 0
5, 30240, Note_on_c, 0, 43, 105
5, 30624, Note_on_c, 0, 43, 0
5, 30720, Note_on_c, 0, 48, 92
5, 31104, Note_on_c, 0, 48, 0
5, 32640, Note_on_c, 0, 43, 58
5, 33024, Note_on_c, 0, 43, 0
5, 33120, Note_on_c, 0, 43, 58
5, 33504, Note_on_c, 0, 43, 0
5, 33600, Note_on_c, 0, 43, 58
5, 33984, Note_on_c, 0, 43, 0
5, 34080, Note_on_c, 0, 43, 58
5, 34464, Note_on_c, 0, 43, 0
5, 34560, Note_on_c, 0, 43, 58
5, 34944, Note_on_c, 0, 43, 0
5, 36480, Note_on_c, 0, 43, 58
5, 36864, Note_on_c, 0, 43, 0
5, 36960, Note_on_c, 0, 55, 58
5, 37344, Note_on_c, 0, 55, 0
5, 37440, Note_on_c, 0, 55, 81
5, 37824, Note_on_c, 0, 55, 0
5, 37920, Note_on_c, 0, 55, 92
5, 38304, Note_on_c, 0, 55, 0
5, 38400, Note_on_c, 0, 43, 105
5, 38784, Note_on_c, 0, 43, 0
5, 40320, Note_on_c, 0, 45, 58
5, 41088, Note_on_c, 0, 45, 0
5, 41280, Note_on_c, 0, 50, 58
5, 41760, Note_on_c, 0, 50, 0
5, 41760, Note_on_c, 0, 47, 58
5, 42144, Note_on_c, 0, 47, 0
5, 42240, Note_on_c, 0, 48, 58
5, 42624, Note_on_c, 0, 48, 0
5, 43200, Note_on_c, 0, 52, 58
5, 43584, Note_on_c, 0, 52, 0
5, 43680, Note_on_c, 0, 50, 105
5, 44064, Note_on_c, 0, 50, 0
5, 44160, Note_on_c, 0, 48, 105
5, 44544, Note_on_c, 0, 48, 0
5, 44640, Note_on_c, 0, 53, 105
5, 45024, Note_on_c, 0, 53, 0
5, 45120, Note_on_c, 0, 55, 105
5, 45504, Note_on_c, 0, 55, 0
5, 45600, Note_on_c, 0, 43, 105
5, 45984, Note_on_c, 0, 43, 0
5, 46080, Note_on_c, 0, 48, 92
5, 46464, Note_on_c, 0, 48, 0
5, 48000, Note_on_c, 0, 43, 58
5, 48384, Note_on_c, 0, 43, 0
5, 48480, Note_on_c, 0, 43, 58
5, 48864, Note_on_c, 0, 43, 0
5, 48960, Note_on_c, 0, 43, 58
5, 49344, Note_on_c, 0, 43, 0
5, 49440, Note_on_c, 0, 43, 58
5, 49824, Note_on_c, 0, 43, 0
5, 49920, Note_on_c, 0, 43, 58
5, 50304, Note_on_c, 0, 43, 0
5, 51840, Note_on_c, 0, 43, 58
5, 52224, Note_on_c, 0, 43, 0
5, 52320, Note_on_c, 0, 55, 58
5, 52704, Note_on_c, 0, 55, 0
5, 52800, Note_on_c, 0, 55, 81
5, 53184, Note_on_c, 0, 55, 0
5, 53280, Note_on_c, 0, 55, 92
5, 53664, Note_on_c, 0, 55, 0
5, 53760, Note_on_c, 0, 43, 105
5, 54144, Note_on_c, 0, 43, 0
5, 55680, Note_on_c, 0, 45, 58
5, 56448, Note_on_c, 0, 45, 0
5, 56640, Note_on_c, 0, 50, 58
5, 57120, Note_on_c, 0, 50, 0
5, 57120, Note_on_c, 0, 47, 58
5, 57504, Note_on_c, 0, 47, 0
5, 57600, Note_on_c, 0, 48, 58
5, 57984, Note_on_c, 0, 48, 0
5, 58560, Note_on_c, 0, 52, 58
5, 58944, Note_on_c, 0, 52, 0
5, 59040, Note_on_c, 0, 50, 105
5, 59424, Note_on_c, 0, 50, 0
5, 59520, Note_on_c, 0, 48, 105
5, 59904, Note_on_c, 0, 48, 0
5, 60000, Note_on_c, 0, 53, 105
5, 60384, Note_on_c, 0, 53, 0
5, 60480, Note_on_c, 0, 55, 105
5, 60864, Note_on_c, 0, 55, 0
5, 60960, Note_on_c, 0, 43, 105
5, 61344, Note_on_c, 0, 43, 0
5, 61440, Note_on_c, 0, 48, 92
5, 61824, Note_on_c, 0, 48, 0
5, 62400, Note_on_c, 0, 60, 58
5, 62544, Note_on_c, 0, 60, 0
5, 62640, Note_on_c, 0, 60, 58
5, 62784, Note_on_c, 0, 60, 0
5, 62880, Note_on_c, 0, 60, 58
5, 63024, Note_on_c, 0, 60, 0
5, 63120, Note_on_c, 0, 60, 58
5, 63264, Note_on_c, 0, 60, 0
5, 63360, Note_on_c, 0, 55, 58
5, 63744, Note_on_c, 0, 55, 0
5, 64320, Note_on_c, 0, 48, 58
5, 64464, Note_on_c, 0, 48, 0
5, 64560, Note_on_c, 0, 48, 58
5, 64704, Note_on_c, 0, 48, 0
5, 64800, Note_on_c, 0, 48, 58
5, 64944, Note_on_c, 0, 48, 0
5, 65040, Note_on_c, 0, 48, 58
5, 65184, Note_on_c, 0, 48, 0
5, 65280, Note_on_c, 0, 43, 58
5, 65664, Note_on_c, 0, 43, 0
5, 66240, Note_on_c, 0, 60, 58
5, 66384, Note_on_c, 0, 60, 0
5, 66480, Note_on_c, 0, 60, 58
5, 66624, Note_on_c, 0, 60, 0
5, 66720, Note_on_c, 0, 57, 58
5, 66864, Note_on_c, 0, 57, 0
5, 66960, Note_on_c, 0, 57, 58
5, 67104, Note_on_c, 0, 57, 0
5, 67200, Note_on_c, 0, 55, 58
5, 67584, Note_on_c, 0, 55, 0
5, 67920, Note_on_c, 0, 52, 58
5, 68064, Note_on_c, 0, 52, 0
5, 68160, Note_on_c, 0, 50, 58
5, 68544, Note_on_c, 0, 50, 0
5, 68880, Note_on_c, 0, 50, 58
5, 69024, Note_on_c, 0, 50, 0
5, 69120, Note_on_c, 0, 43, 58
5, 69696, Note_on_c, 0, 43, 0
5, 70080, Note_on_c, 0, 60, 58
5, 70224, Note_on_c, 0, 60, 0
5, 70320, Note_on_c, 0, 60, 58
5, 70464, Note_on_c, 0, 60, 0
5, 70560, Note_on_c, 0, 60, 58
5, 70704, Note_on_c, 0, 60, 0
5, 70800, Note_on_c, 0, 60, 58
5, 70944, Note_on_c, 0, 60, 0
5, 71040, Note_on_c, 0, 55, 58
5, 71424, Note_on_c, 0, 55, 0
5, 72000, Note_on_c, 0, 48, 58
5, 72144, Note_on_c, 0, 48, 0
5, 72240, Note_on_c, 0, 48, 58
5, 72384, Note_on_c, 0, 48, 0
5, 72480, Note_on_c, 0, 48, 58
5, 72624, Note_on_c, 0, 48, 0
5, 72720, Note_on_c, 0, 48, 58
5, 72864, Note_on_c, 0, 48, 0
5, 72960, Note_on_c, 0, 43, 58
5, 73344, Note_on_c, 0, 43, 0
5, 73920, Note_on_c, 0, 60, 58
5, 74064, Note_on_c, 0, 60, 0
5, 74160, Note_on_c, 0, 60, 58
5, 74304, Note_on_c, 0, 60, 0
5, 74400, Note_on_c, 0, 57, 58
5, 74544, Note_on_c, 0, 57, 0
5, 74640, Note_on_c, 0, 57, 58
5, 74784, Note_on_c, 0, 57, 0
5, 74880, Note_on_c, 0, 55, 58
5, 75264, Note_on_c, 0, 55, 0
5, 75600, Note_on_c, 0, 52, 58
5, 75744, Note_on_c, 0, 52, 0
5, 75840, Note_on_c, 0, 50, 58
5, 76224, Note_on_c, 0, 50, 0
5, 76560, Note_on_c, 0, 50, 58
5, 76704, Note_on_c, 0, 50, 0
5, 76800, Note_on_c, 0, 43, 58
5, 77376, Note_on_c, 0, 43, 0
5, 77760, Note_on_c, 0, 52, 58
5, 77904, Note_on_c, 0, 52, 0
5, 78000, Note_on_c, 0, 52, 58
5, 78144, Note_on_c, 0, 52, 0
5, 78240, Note_on_c, 0, 55, 58
5, 78384, Note_on_c, 0, 55, 0
5, 78480, Note_on_c, 0, 55, 58
5, 78624, Note_on_c, 0, 55, 0
5, 78720, Note_on_c, 0, 57, 58
5, 79104, Note_on_c, 0, 57, 0
5, 79680, Note_on_c, 0, 50, 58
5, 79824, Note_on_c, 0, 50, 0
5, 79920, Note_on_c, 0, 50, 58
5, 80064, Note_on_c, 0, 50, 0
5, 80160, Note_on_c, 0, 53, 58
5, 80304, Note_on_c, 0, 53, 0
5, 80400, Note_on_c, 0, 53, 58
5, 80544, Note_on_c, 0, 53, 0
5, 80640, Note_on_c, 0, 55, 58
5, 81024, Note_on_c, 0, 55, 0
5, 81600, Note_on_c, 0, 60, 58
5, 81744, Note_on_c, 0, 60, 0
5, 81840, Note_on_c, 0, 60, 58
5, 81984, Note_on_c, 0, 60, 0
5, 82080, Note_on_c, 0, 57, 58
5, 82224, Note_on_c, 0, 57, 0
5, 82320, Note_on_c, 0, 57, 58
5, 82464, Note_on_c, 0, 57, 0
5, 82560, Note_on_c, 0, 56, 58
5, 82944, Note_on_c, 0, 56, 0
5, 83280, Note_on_c, 0, 52, 58
5, 83520, Note_on_c, 0, 52, 0
5, 83520, Note_on_c, 0, 53, 58
5, 83904, Note_on_c, 0, 53, 0
5, 84240, Note_on_c, 0, 53, 58
5, 84480, Note_on_c, 0, 53, 0
5, 84480, Note_on_c, 0, 52, 58
5, 84864, Note_on_c, 0, 52, 0
5, 85200, Note_on_c, 0, 56, 58
5, 85440, Note_on_c, 0, 56, 0
5, 85440, Note_on_c, 0, 57, 58
5, 85584, Note_on_c, 0, 57, 0
5, 85680, Note_on_c, 0, 57, 58
5, 85824, Note_on_c, 0, 57, 0
5, 85920, Note_on_c, 0, 57, 58
5, 86064, Note_on_c, 0, 57, 0
5, 86160, Note_on_c, 0, 57, 58
5, 86304, Note_on_c, 0, 57, 0
5, 86400, Note_on_c, 0, 56, 58
5, 86784, Note_on_c, 0, 56, 0
5, 87120, Note_on_c, 0, 52, 58
5, 87360, Note_on_c, 0, 52, 0
5, 87360, Note_on_c, 0, 53, 58
5, 87744, Note_on_c, 0, 53, 0
5, 88080, Note_on_c, 0, 53, 58
5, 88320, Note_on_c, 0, 53, 0
5, 88320, Note_on_c, 0, 52, 58
5, 88704, Note_on_c, 0, 52, 0
5, 89040, Note_on_c, 0, 53, 58
5, 89280, Note_on_c, 0, 53, 0
5, 89280, Note_on_c, 0, 52, 58
5, 89664, Note_on_c, 0, 52, 0
5, 91920, Note_on_c, 0, 45, 58
5, 92064, Note_on_c, 0, 45, 0
5, 92160, Note_on_c, 0, 44, 58
5, 92400, Note_on_c, 0, 44, 0
5, 92400, Note_on_c, 0, 47, 58
5, 92544, Note_on_c, 0, 47, 0
5, 92640, Note_on_c, 0, 40, 58
5, 92784, Note_on_c, 0, 40, 0
5, 95760, Note_on_c, 0, 48, 72
5, 95904, Note_on_c, 0, 48, 0
5, 96000, Note_on_c, 0, 47, 72
5, 96240, Note_on_c, 0, 47, 0
5, 96240, Note_on_c, 0, 50, 72
5, 96384, Note_on_c, 0, 50, 0
5, 96480, Note_on_c, 0, 43, 58
5, 96624, Note_on_c, 0, 43, 0
5, 96720, Note_on_c, 0, 47, 58
5, 96864, Note_on_c, 0, 47, 0
5, 97920, Note_on_c, 0, 48, 72
5, 98304, Note_on_c, 0, 48, 0
5, 98400, Note_on_c, 0, 48, 72
5, 98784, Note_on_c, 0, 48, 0
5, 98880, Note_on_c, 0, 48, 72
5, 99264, Note_on_c, 0, 48, 0
5, 99360, Note_on_c, 0, 48, 72
5, 99744, Note_on_c, 0, 48, 0
5, 99840, Note_on_c, 0, 48, 72
5, 100224, Note_on_c, 0, 48, 0
5, 100320, Note_on_c, 0, 48, 72
5, 100704, Note_on_c, 0, 48, 0
5, 101280, Note_on_c, 0, 48, 72
5, 101664, Note_on_c, 0, 48, 0
5, 102240, Note_on_c, 0, 48, 72
5, 102720, Note_on_c, 0, 48, 0
5, 102720, Note_on_c, 0, 47, 72
5, 103200, Note_on_c, 0, 47, 0
5, 103200, Note_on_c, 0, 48, 72
5, 103584, Note_on_c, 0, 48, 0
5, 103680, Note_on_c, 0, 55, 72
5, 104064, Note_on_c, 0, 55, 0
5, 104160, Note_on_c, 0, 43, 72
5, 104544, Note_on_c, 0, 43, 0
5, 105600, Note_on_c, 0, 48, 105
5, 105984, Note_on_c, 0, 48, 0
5, 106080, Note_on_c, 0, 48, 105
5, 106464, Note_on_c, 0, 48, 0
5, 106560, Note_on_c, 0, 48, 105
5, 106944, Note_on_c, 0, 48, 0
5, 107040, Note_on_c, 0, 48, 105
5, 107424, Note_on_c, 0, 48, 0
5, 107520, Note_on_c, 0, 48, 105
5, 107904, Note_on_c, 0, 48, 0
5, 108000, Note_on_c, 0, 48, 105
5, 108384, Note_on_c, 0, 48, 0
5, 108480, Note_on_c, 0, 52, 105
5, 108864, Note_on_c, 0, 52, 0
5, 108960, Note_on_c, 0, 52, 105
5, 109344, Note_on_c, 0, 52, 0
5, 109440, Note_on_c, 0, 53, 105
5, 109824, Note_on_c, 0, 53, 0
5, 109920, Note_on_c, 0, 53, 105
5, 110304, Note_on_c, 0, 53, 0
5, 110400, Note_on_c, 0, 55, 105
5, 110784, Note_on_c, 0, 55, 0
5, 110880, Note_on_c, 0, 43, 105
5, 111264, Note_on_c, 0, 43, 0
5, 111360, Note_on_c, 0, 48, 105
5, 111744, Note_on_c, 0, 48, 0
5, 113760, Note_on_c, 0, 55, 72
5, 113904, Note_on_c, 0, 55, 0
5, 114000, Note_on_c, 0, 47, 72
5, 114040, Note_on_c, 0, 47, 0
5, 114040, Note_on_c, 0, 48, 72
5, 114080, Note_on_c, 0, 48, 0
5, 114080, Note_on_c, 0, 47, 72
5, 114120, Note_on_c, 0, 47, 0
5, 114120, Note_on_c, 0, 45, 72
5, 114180, Note_on_c, 0, 45, 0
5, 114180, Note_on_c, 0, 47, 72
5, 114240, Note_on_c, 0, 47, 0
5, 114240, Note_on_c, 0, 48, 72
5, 114432, Note_on_c, 0, 48, 0
5, 115680, Note_on_c, 0, 55, 72
5, 115824, Note_on_c, 0, 55, 0
5, 115920, Note_on_c, 0, 47, 72
5, 115960, Note_on_c, 0, 47, 0
5, 115960, Note_on_c, 0, 48, 72
5, 116000, Note_on_c, 0, 48, 0
5, 116000, Note_on_c, 0, 47, 72
5, 116040, Note_on_c, 0, 47, 0
5, 116040, Note_on_c, 0, 45, 72
5, 116100, Note_on_c, 0, 45, 0
5, 116100, Note_on_c, 0, 47, 72
5, 116160, Note_on_c, 0, 47, 0
5, 116160, Note_on_c, 0, 48, 72
5, 116352, Note_on_c, 0, 48, 0
5, 117120, Note_on_c, 0, 46, 92
5, 117696, Note_on_c, 0, 46, 0
5, 117840, Note_on_c, 0, 48, 72
5, 118032, Note_on_c, 0, 48, 0
5, 118080, Note_on_c, 0, 44, 72
5, 118272, Note_on_c, 0, 44, 0
5, 118320, Note_on_c, 0, 44, 72
5, 118512, Note_on_c, 0, 44, 0
5, 118560, Note_on_c, 0, 46, 72
5, 118752, Note_on_c, 0, 46, 0
5, 118800, Note_on_c, 0, 46, 72
5, 118992, Note_on_c, 0, 46, 0
5, 119040, Note_on_c, 0, 39, 72
5, 119232, Note_on_c, 0, 39, 0
5, 121440, Note_on_c, 0, 55, 72
5, 121584, Note_on_c, 0, 55, 0
5, 121680, Note_on_c, 0, 47, 72
5, 121720, Note_on_c, 0, 47, 0
5, 121720, Note_on_c, 0, 48, 72
5, 121760, Note_on_c, 0, 48, 0
5, 121760, Note_on_c, 0, 47, 72
5, 121800, Note_on_c, 0, 47, 0
5, 121800, Note_on_c, 0, 45, 72
5, 121860, Note_on_c, 0, 45, 0
5, 121860, Note_on_c, 0, 47, 72
5, 121920, Note_on_c, 0, 47, 0
5, 121920, Note_on_c, 0, 48, 72
5, 122112, Note_on_c, 0, 48, 0
5, 123360, Note_on_c, 0, 55, 72
5, 123504, Note_on_c, 0, 55, 0
5, 123600, Note_on_c, 0, 47, 72
5, 123640, Note_on_c, 0, 47, 0
5, 123640, Note_on_c, 0, 48, 72
5, 123680, Note_on_c, 0, 48, 0
5, 123680, Note_on_c, 0, 47, 72
5, 123720, Note_on_c, 0, 47, 0
5, 123720, Note_on_c, 0, 45, 72
5, 123780, Note_on_c, 0, 45, 0
5, 123780, Note_on_c, 0, 47, 72
5, 123840, Note_on_c, 0, 47, 0
5, 123840, Note_on_c, 0, 48, 72
5, 124032, Note_on_c, 0, 48, 0
5, 124800, Note_on_c, 0, 46, 92
5, 125376, Note_on_c, 0, 46, 0
5, 125520, Note_on_c, 0, 48, 72
5, 125712, Note_on_c, 0, 48, 0
5, 125760, Note_on_c, 0, 44, 72
5, 125952, Note_on_c, 0, 44, 0
5, 126000, Note_on_c, 0, 44, 72
5, 126192, Note_on_c, 0, 44, 0
5, 126240, Note_on_c, 0, 46, 72
5, 126432, Note_on_c, 0, 46, 0
5, 126480, Note_on_c, 0, 46, 72
5, 126672, Note_on_c, 0, 46, 0
5, 126720, Note_on_c, 0, 39, 72
5, 126912, Note_on_c, 0, 39, 0
5, 129120, Note_on_c, 0, 60, 72
5, 129264, Note_on_c, 0, 60, 0
5, 129360, Note_on_c, 0, 52, 72
5, 129400, Note_on_c, 0, 52, 0
5, 129400, Note_on_c, 0, 53, 72
5, 129440, Note_on_c, 0, 53, 0
5, 129440, Note_on_c, 0, 52, 72
5, 129480, Note_on_c, 0, 52, 0
5, 129480, Note_on_c, 0, 50, 72
5, 129540, Note_on_c, 0, 50, 0
5, 129540, Note_on_c, 0, 52, 72
5, 129600, Note_on_c, 0, 52, 0
5, 129600, Note_on_c, 0, 53, 72
5, 129792, Note_on_c, 0, 53, 0
5, 131040, Note_on_c, 0, 62, 72
5, 131184, Note_on_c, 0, 62, 0
5, 131280, Note_on_c, 0, 54, 72
5, 131320, Note_on_c, 0, 54, 0
5, 131320, Note_on_c, 0, 55, 72
5, 131360, Note_on_c, 0, 55, 0
5, 131360, Note_on_c, 0, 54, 72
5, 131400, Note_on_c, 0, 54, 0
5, 131400, Note_on_c, 0, 52, 72
5, 131460, Note_on_c, 0, 52, 0
5, 131460, Note_on_c, 0, 54, 72
5, 131520, Note_on_c, 0, 54, 0
5, 131520, Note_on_c, 0, 55, 72
5, 131712, Note_on_c, 0, 55, 0
5, 133920, Note_on_c, 0, 60, 72
5, 134064, Note_on_c, 0, 60, 0
5, 134160, Note_on_c, 0, 54, 72
5, 134200, Note_on_c, 0, 54, 0
5, 134200, Note_on_c, 0, 55, 72
5, 134240, Note_on_c, 0, 55, 0
5, 134240, Note_on_c, 0, 54, 72
5, 134280, Note_on_c, 0, 54, 0
5, 134280, Note_on_c, 0, 52, 72
5, 134340, Note_on_c, 0, 52, 0
5, 134340, Note_on_c, 0, 54, 72
5, 134400, Note_on_c, 0, 54, 0
5, 134400, Note_on_c, 0, 55, 72
5, 134544, Note_on_c, 0, 55, 0
5, 134640, Note_on_c, 0, 56, 72
5, 134680, Note_on_c, 0, 56, 0
5, 134680, Note_on_c, 0, 58, 72
5, 134720, Note_on_c, 0, 58, 0
5, 134720, Note_on_c, 0, 56, 72
5, 134760, Note_on_c, 0, 56, 0
5, 134760, Note_on_c, 0, 55, 72
5, 134820, Note_on_c, 0, 55, 0
5, 134820, Note_on_c, 0, 56, 72
5, 134880, Note_on_c, 0, 56, 0
5, 134880, Note_on_c, 0, 55, 72
5, 135024, Note_on_c, 0, 55, 0
5, 135120, Note_on_c, 0, 53, 72
5, 135160, Note_on_c, 0, 53, 0
5, 135160, Note_on_c, 0, 55, 72
5, 135200, Note_on_c, 0, 55, 0
5, 135200, Note_on_c, 0, 53, 72
5, 135240, Note_on_c, 0, 53, 0
5, 135240, Note_on_c, 0, 51, 72
5, 135300, Note_on_c, 0, 51, 0
5, 135300, Note_on_c, 0, 53, 72
5, 135360, Note_on_c, 0, 53, 0
5, 135360, Note_on_c, 0, 51, 72
5, 135504, Note_on_c, 0, 51, 0
5, 135600, Note_on_c, 0, 47, 72
5, 135640, Note_on_c, 0, 47, 0
5, 135640, Note_on_c, 0, 48, 72
5, 135680, Note_on_c, 0, 48, 0
5, 135680, Note_on_c, 0, 47, 72
5, 135720, Note_on_c, 0, 47, 0
5, 135720, Note_on_c, 0, 45, 72
5, 135780, Note_on_c, 0, 45, 0
5, 135780, Note_on_c, 0, 47, 72
5, 135840, Note_on_c, 0, 47, 0
5, 135840, Note_on_c, 0, 48, 72
5, 135984, Note_on_c, 0, 48, 0
5, 136080, Note_on_c, 0, 44, 72
5, 136120, Note_on_c, 0, 44, 0
5, 136120, Note_on_c, 0, 46, 72
5, 136160, Note_on_c, 0, 46, 0
5, 136160, Note_on_c, 0, 44, 72
5, 136200, Note_on_c, 0, 44, 0
5, 136200, Note_on_c, 0, 43, 72
5, 136260, Note_on_c, 0, 43, 0
5, 136260, Note_on_c, 0, 44, 72
5, 136320, Note_on_c, 0, 44, 0
5, 136320, Note_on_c, 0, 43, 72
5, 136512, Note_on_c, 0, 43, 0
5, 137280, Note_on_c, 0, 55, 72
5, 137424, Note_on_c, 0, 55, 0
5, 137520, Note_on_c, 0, 47, 72
5, 137560, Note_on_c, 0, 47, 0
5, 137560, Note_on_c, 0, 48, 72
5, 137600, Note_on_c, 0, 48, 0
5, 137600, Note_on_c, 0, 47, 72
5, 137640, Note_on_c, 0, 47, 0
5, 137640, Note_on_c, 0, 45, 72
5, 137700, Note_on_c, 0, 45, 0
5, 137700, Note_on_c, 0, 47, 72
5, 137760, Note_on_c, 0, 47, 0
5, 137760, Note_on_c, 0, 48, 72
5, 137952, Note_on_c, 0, 48, 0
5, 138240, Note_on_c, 0, 55, 72
5, 138384, Note_on_c, 0, 55, 0
5, 138480, Note_on_c, 0, 47, 72
5, 138520, Note_on_c, 0, 47, 0
5, 138520, Note_on_c, 0, 48, 72
5, 138560, Note_on_c, 0, 48, 0
5, 138560, Note_on_c, 0, 47, 72
5, 138600, Note_on_c, 0, 47, 0
5, 138600, Note_on_c, 0, 45, 72
5, 138660, Note_on_c, 0, 45, 0
5, 138660, Note_on_c, 0, 47, 72
5, 138720, Note_on_c, 0, 47, 0
5, 138720, Note_on_c, 0, 48, 72
5, 138912, Note_on_c, 0, 48, 0
5, 139200, Note_on_c, 0, 55, 72
5, 139344, Note_on_c, 0, 55, 0
5, 139440, Note_on_c, 0, 47, 72
5, 139480, Note_on_c, 0, 47, 0
5, 139480, Note_on_c, 0, 48, 72
5, 139520, Note_on_c, 0, 48, 0
5, 139520, Note_on_c, 0, 47, 72
5, 139560, Note_on_c, 0, 47, 0
5, 139560, Note_on_c, 0, 45, 72
5, 139620, Note_on_c, 0, 45, 0
5, 139620, Note_on_c, 0, 47, 72
5, 139680, Note_on_c, 0, 47, 0
5, 139680, Note_on_c, 0, 48, 72
5, 139872, Note_on_c, 0, 48, 0
5, 142080, Note_on_c, 0, 43, 72
5, 142800, Note_on_c, 0, 43, 0
5, 142800, Note_on_c, 0, 45, 72
5, 142920, Note_on_c, 0, 45, 0
5, 142920, Note_on_c, 0, 47, 72
5, 143040, Note_on_c, 0, 47, 0
5, 143040, Note_on_c, 0, 48, 58
5, 143232, Note_on_c, 0, 48, 0
5, 144000, Note_on_c, 0, 48, 72
5, 144384, Note_on_c, 0, 48, 0
5, 144480, Note_on_c, 0, 48, 72
5, 144864, Note_on_c, 0, 48, 0
5, 144960, Note_on_c, 0, 48, 72
5, 145344, Note_on_c, 0, 48, 0
5, 145440, Note_on_c, 0, 48, 72
5, 145824, Note_on_c, 0, 48, 0
5, 145920, Note_on_c, 0, 48, 72
5, 146304, Note_on_c, 0, 48, 0
5, 146400, Note_on_c, 0, 48, 72
5, 146784, Note_on_c, 0, 48, 0
5, 147360, Note_on_c, 0, 48, 72
5, 147744, Note_on_c, 0, 48, 0
5, 148320, Note_on_c, 0, 48, 72
5, 148800, Note_on_c, 0, 48, 0
5, 148800, Note_on_c, 0, 47, 72
5, 149280, Note_on_c, 0, 47, 0
5, 149280, Note_on_c, 0, 48, 72
5, 149664, Note_on_c, 0, 48, 0
5, 149760, Note_on_c, 0, 55, 72
5, 150144, Note_on_c, 0, 55, 0
5, 150240, Note_on_c, 0, 43, 72
5, 150624, Note_on_c, 0, 43, 0
5, 151680, Note_on_c, 0, 48, 72
5, 152064, Note_on_c, 0, 48, 0
5, 152160, Note_on_c, 0, 48, 105
5, 152544, Note_on_c, 0, 48, 0
5, 152640, Note_on_c, 0, 48, 105
5, 153024, Note_on_c, 0, 48, 0
5, 153120, Note_on_c, 0, 48, 105
5, 153504, Note_on_c, 0, 48, 0
5, 153600, Note_on_c, 0, 48, 105
5, 153984, Note_on_c, 0, 48, 0
5, 154080, Note_on_c, 0, 48, 105
5, 154464, Note_on_c, 0, 48, 0
5, 154560, Note_on_c, 0, 52, 105
5, 154944, Note_on_c, 0, 52, 0
5, 155040, Note_on_c, 0, 52, 105
5, 155424, Note_on_c, 0, 52, 0
5, 155520, Note_on_c, 0, 53, 105
5, 155904, Note_on_c, 0, 53, 0
5, 156000, Note_on_c, 0, 53, 105
5, 156384, Note_on_c, 0, 53, 0
5, 156480, Note_on_c, 0, 55, 105
5, 156864, Note_on_c, 0, 55, 0
5, 156960, Note_on_c, 0, 43, 105
5, 157344, Note_on_c, 0, 43, 0
5, 157440, Note_on_c, 0, 48, 92
5, 157824, Note_on_c, 0, 48, 0
5, 159360, Note_on_c, 0, 43, 72
5, 159744, Note_on_c, 0, 43, 0
5, 159840, Note_on_c, 0, 43, 72
5, 160224, Note_on_c, 0, 43, 0
5, 160320, Note_on_c, 0, 43, 72
5, 160704, Note_on_c, 0, 43, 0
5, 160800, Note_on_c, 0, 43, 72
5, 161184, Note_on_c, 0, 43, 0
5, 161280, Note_on_c, 0, 43, 58
5, 161664, Note_on_c, 0, 43, 0
5, 163200, Note_on_c, 0, 43, 72
5, 163584, Note_on_c, 0, 43, 0
5, 163680, Note_on_c, 0, 55, 81
5, 164064, Note_on_c, 0, 55, 0
5, 164160, Note_on_c, 0, 55, 92
5, 164544, Note_on_c, 0, 55, 0
5, 164640, Note_on_c, 0, 55, 92
5, 165024, Note_on_c, 0, 55, 0
5, 165120, Note_on_c, 0, 43, 105
5, 165504, Note_on_c, 0, 43, 0
5, 167040, Note_on_c, 0, 45, 58
5, 167808, Note_on_c, 0, 45, 0
5, 168000, Note_on_c, 0, 50, 58
5, 168480, Note_on_c, 0, 50, 0
5, 168480, Note_on_c, 0, 47, 58
5, 168864, Note_on_c, 0, 47, 0
5, 168960, Note_on_c, 0, 48, 58
5, 169344, Note_on_c, 0, 48, 0
5, 169920, Note_on_c, 0, 52, 105
5, 170304, Note_on_c, 0, 52, 0
5, 170400, Note_on_c, 0, 50, 105
5, 170784, Note_on_c, 0, 50, 0
5, 170880, Note_on_c, 0, 48, 105
5, 171264, Note_on_c, 0, 48, 0
5, 171360, Note_on_c, 0, 53, 105
5, 171744, Note_on_c, 0, 53, 0
5, 171840, Note_on_c, 0, 55, 105
5, 172224, Note_on_c, 0, 55, 0
5, 172320, Note_on_c, 0, 43, 105
5, 172704, Note_on_c, 0, 43, 0
5, 172800, Note_on_c, 0, 48, 92
5, 173184, Note_on_c, 0, 48, 0
5, 173760, Note_on_c, 0, 40, 112
5, 174144, Note_on_c, 0, 40, 0
5, 174720, Note_on_c, 0, 41, 112
5, 175104, Note_on_c, 0, 41, 0
5, 175680, Note_on_c, 0, 42, 112
5, 176064, Note_on_c, 0, 42, 0
5, 176640, Note_on_c, 0, 43, 58
5, 178560, Note_on_c, 0, 43, 0
5, 178560, Note_on_c, 0, 48, 58
5, 178944, Note_on_c, 0, 48, 0
5, 180480, Note_on_c, 0, 43, 58
5, 182400, Note_on_c, 0, 43, 0
5, 182400, Note_on_c, 0, 48, 58
5, 182784, Note_on_c, 0, 48, 0
5, 184320, Note_on_c, 0, 43, 58
5, 186240, Note_on_c, 0, 43, 0
5, 186240, Note_on_c, 0, 48, 58
5, 186432, Note_on_c, 0, 48, 0
5, 186720, Note_on_c, 0, 43, 58
5, 186912, Note_on_c, 0, 43, 0
5, 187200, Note_on_c, 0, 36, 58
5, 187392, Note_on_c, 0, 36, 0
5, 187392, End_track
6, 0, Start_track
6, 0, Program_c, 0, 48
6, 0, Control_c, 0, 7, 127
6, 0, Control_c, 0, 10, 64
6, 0, Control_c, 0, 91, 95
6, 1920, Note_on_c, 0, 36, 58
6, 2304, Note_on_c, 0, 36, 0
6, 2400, Note_on_c, 0, 36, 58
6, 2784, Note_on_c, 0, 36, 0
6, 2880, Note_on_c, 0, 36, 58
6, 3264, Note_on_c, 0, 36, 0
6, 3360, Note_on_c, 0, 36, 58
6, 3744, Note_on_c, 0, 36, 0
6, 3840, Note_on_c, 0, 36, 58
6, 4224, Note_on_c, 0, 36, 0
6, 4320, Note_on_c, 0, 36, 58
6, 4704, Note_on_c, 0, 36, 0
6, 5280, Note_on_c, 0, 36, 58
6, 5664, Note_on_c, 0, 36, 0
6, 6240, Note_on_c, 0, 36, 58
6, 6720, Note_on_c, 0, 36, 0
6, 6720, Note_on_c, 0, 35, 58
6, 7200, Note_on_c, 0, 35, 0
6, 7200, Note_on_c, 0, 36, 58
6, 7584, Note_on_c, 0, 36, 0
6, 7680, Note_on_c, 0, 43, 58
6, 8064, Note_on_c, 0, 43, 0
6, 8160, Note_on_c, 0, 31, 58
6, 8544, Note_on_c, 0, 31, 0
6, 9600, Note_on_c, 0, 36, 105
6, 9984, Note_on_c, 0, 36, 0
6, 10080, Note_on_c, 0, 36, 105
6, 10464, Note_on_c, 0, 36, 0
6, 10560, Note_on_c, 0, 36, 105
6, 10944, Note_on_c, 0, 36, 0
6, 11040, Note_on_c, 0, 36, 105
6, 11424, Note_on_c, 0, 36, 0
6, 11520, Note_on_c, 0, 36, 105
6, 11904, Note_on_c, 0, 36, 0
6, 12000, Note_on_c, 0, 36, 105
6, 12384, Note_on_c, 0, 36, 0
6, 12480, Note_on_c, 0, 40, 105
6, 12864, Note_on_c, 0, 40, 0
6, 12960, Note_on_c, 0, 40, 105
6, 13344, Note_on_c, 0, 40, 0
6, 13440, Note_on_c, 0, 41, 105
6, 13824, Note_on_c, 0, 41, 0
6, 13920, Note_on_c, 0, 41, 105
6, 14304, Note_on_c, 0, 41, 0
6, 14400, Note_on_c, 0, 43, 105
6, 14784, Note_on_c, 0, 43, 0
6, 14880, Note_on_c, 0, 31, 105
6, 15264, Note_on_c, 0, 31, 0
6, 15360, Note_on_c, 0, 36, 92
6, 15744, Note_on_c, 0, 36, 0
6, 17280, Note_on_c, 0, 36, 58
6, 17664, Note_on_c, 0, 36, 0
6, 17760, Note_on_c, 0, 36, 58
6, 18144, Note_on_c, 0, 36, 0
6, 18240, Note_on_c, 0, 36, 58
6, 18624, Note_on_c, 0, 36, 0
6, 18720, Note_on_c, 0, 36, 58
6, 19104, Note_on_c, 0, 36, 0
6, 19200, Note_on_c, 0, 36, 58
6, 19584, Note_on_c, 0, 36, 0
6, 19680, Note_on_c, 0, 36, 58
6, 20064, Note_on_c, 0, 36, 0
6, 20640, Note_on_c, 0, 36, 58
6, 21024, Note_on_c, 0, 36, 0
6, 21600, Note_on_c, 0, 36, 58
6, 22080, Note_on_c, 0, 36, 0
6, 22080, Note_on_c, 0, 35, 58
6, 22560, Note_on_c, 0, 35, 0
6, 22560, Note_on_c, 0, 36, 58
6, 22944, Note_on_c, 0, 36, 0
6, 23040, Note_on_c, 0, 43, 58
6, 23424, Note_on_c, 0, 43, 0
6, 23520, Note_on_c, 0, 31, 58
6, 23904, Note_on_c, 0, 31, 0
6, 24960, Note_on_c, 0, 36, 105
6, 25344, Note_on_c, 0, 36, 0
6, 25440, Note_on_c, 0, 36, 105
6, 25824, Note_on_c, 0, 36, 0
6, 25920, Note_on_c, 0, 36, 105
6, 26304, Note_on_c, 0, 36, 0
6, 26400, Note_on_c, 0, 36, 105
6, 26784, Note_on_c, 0, 36, 0
6, 26880, Note_on_c, 0, 36, 105
6, 27264, Note_on_c, 0, 36, 0
6, 27360, Note_on_c, 0, 36, 105
6, 27744, Note_on_c, 0, 36, 0
6, 27840, Note_on_c, 0, 40, 105
6, 28224, Note_on_c, 0, 40, 0
6, 28320, Note_on_c, 0, 40, 105
6, 28704, Note_on_c, 0, 40, 0
6, 28800, Note_on_c, 0, 41, 105
6, 29184, Note_on_c, 0, 41, 0
6, 29280, Note_on_c, 0, 41, 105
6, 29664, Note_on_c, 0, 41, 0
6, 29760, Note_on_c, 0, 43, 105
6, 30144, Note_on_c, 0, 43, 0
6, 30240, Note_on_c, 0, 31, 105
6, 30624, Note_on_c, 0, 31, 0
6, 30720, Note_on_c, 0, 36, 92
6, 31104, Note_on_c, 0, 36, 0
6, 32640, Note_on_c, 0, 31, 58
6, 33024, Note_on_c, 0, 31, 0
6, 33120, Note_on_c, 0, 31, 58
6, 33504, Note_on_c, 0, 31, 0
6, 33600, Note_on_c, 0, 31, 58
6, 33984, Note_on_c, 0, 31, 0
6, 34080, Note_on_c, 0, 31, 58
6, 34464, Note_on_c, 0, 31, 0
6, 34560, Note_on_c, 0, 31, 58
6, 34944, Note_on_c, 0, 31, 0
6, 36480, Note_on_c, 0, 31, 58
6, 36864, Note_on_c, 0, 31, 0
6, 36960, Note_on_c, 0, 43, 58
6, 37344, Note_on_c, 0, 43, 0
6, 37440, Note_on_c, 0, 43, 81
6, 37824, Note_on_c, 0, 43, 0
6, 37920, Note_on_c, 0, 43, 92
6, 38304, Note_on_c, 0, 43, 0
6, 38400, Note_on_c, 0, 31, 105
6, 38784, Note_on_c, 0, 31, 0
6, 40320, Note_on_c, 0, 33, 58
6, 41088, Note_on_c, 0, 33, 0
6, 41280, Note_on_c, 0, 38, 58
6, 41760, Note_on_c, 0, 38, 0
6, 41760, Note_on_c, 0, 35, 58
6, 42144, Note_on_c, 0, 35, 0
6, 42240, Note_on_c, 0, 36, 58
6, 42624, Note_on_c, 0, 36, 0
6, 43200, Note_on_c, 0, 40, 58
6, 43584, Note_on_c, 0, 40, 0
6, 43680, Note_on_c, 0, 38, 105
6, 44064, Note_on_c, 0, 38, 0
6, 44160, Note_on_c, 0, 36, 105
6, 44544, Note_on_c, 0, 36, 0
6, 44640, Note_on_c, 0, 41, 105
6, 45024, Note_on_c, 0, 41, 0
6, 45120, Note_on_c, 0, 43, 105
6, 45504, Note_on_c, 0, 43, 0
6, 45600, Note_on_c, 0, 31, 105
6, 45984, Note_on_c, 0, 31, 0
6, 46080, Note_on_c, 0, 36, 92
6, 46464, Note_on_c, 0, 36, 0
6, 48000, Note_on_c, 0, 31, 58
6, 48384, Note_on_c, 0, 31, 0
6, 48480, Note_on_c, 0, 31, 58
6, 48864, Note_on_c, 0, 31, 0
6, 48960, Note_on_c, 0, 31, 58
6, 49344, Note_on_c, 0, 31, 0
6, 49440, Note_on_c, 0, 31, 58
6, 49824, Note_on_c, 0, 31, 0
6, 49920, Note_on_c, 0, 31, 58
6, 50304, Note_on_c, 0, 31, 0
6, 51840, Note_on_c, 0, 31, 58
6, 52224, Note_on_c, 0, 31, 0
6, 52320, Note_on_c, 0, 43, 58
6, 52704, Note_on_c, 0, 43, 0
6, 52800, Note_on_c, 0, 43, 81
6, 53184, Note_on_c, 0, 43, 0
6, 53280, Note_on_c, 0, 43, 92
6, 53664, Note_on_c, 0, 43, 0
6, 53760, Note_on_c, 0, 31, 105
6, 54144, Note_on_c, 0, 31, 0
6, 55680, Note_on_c, 0, 33, 58
6, 56448, Note_on_c, 0, 33, 0
6, 56640, Note_on_c, 0, 38, 58
6, 57120, Note_on_c, 0, 38, 0
6, 57120, Note_on_c, 0, 35, 58
6, 57504, Note_on_c, 0, 35, 0
6, 57600, Note_on_c, 0, 36, 58
6, 57984, Note_on_c, 0, 36, 0
6, 58560, Note_on_c, 0, 40, 58
6, 58944, Note_on_c, 0, 40, 0
6, 59040, Note_on_c, 0, 38, 105
6, 59424, Note_on_c, 0, 38, 0
6, 59520, Note_on_c, 0, 36, 105
6, 59904, Note_on_c, 0, 36, 0
6, 60000, Note_on_c, 0, 41, 105
6, 60384, Note_on_c, 0, 41, 0
6, 60480, Note_on_c, 0, 43, 105
6, 60864, Note_on_c, 0, 43, 0
6, 60960, Note_on_c, 0, 31, 105
6, 61344, Note_on_c, 0, 31, 0
6, 61440, Note_on_c, 0, 36, 92
6, 61824, Note_on_c, 0, 36, 0
6, 62400, Note_on_c, 0, 48, 58
6, 62544, Note_on_c, 0, 48, 0
6, 62640, Note_on_c, 0, 48, 58
6, 62784, Note_on_c, 0, 48, 0
6, 62880, Note_on_c, 0, 48, 58
6, 63024, Note_on_c, 0, 48, 0
6, 63120, Note_on_c, 0, 48, 58
6, 63264, Note_on_c, 0, 48, 0
6, 63360, Note_on_c, 0, 43, 58
6, 63744, Note_on_c, 0, 43, 0
6, 64320, Note_on_c, 0, 36, 58
6, 64464, Note_on_c, 0, 36, 0
6, 64560, Note_on_c, 0, 36, 58
6, 64704, Note_on_c, 0, 36, 0
6, 64800, Note_on_c, 0, 36, 58
6, 64944, Note_on_c, 0, 36, 0
6, 65040, Note_on_c, 0, 36, 58
6, 65184, Note_on_c, 0, 36, 0
6, 65280, Note_on_c, 0, 31, 58
6, 65664, Note_on_c, 0, 31, 0
6, 66240, Note_on_c, 0, 48, 58
6, 66384, Note_on_c, 0, 48, 0
6, 66480, Note_on_c, 0, 48, 58
6, 66624, Note_on_c, 0, 48, 0
6, 66720, Note_on_c, 0, 45, 58
6, 66864, Note_on_c, 0, 45, 0
6, 66960, Note_on_c, 0, 45, 58
6, 67104, Note_on_c, 0, 45, 0
6, 67200, Note_on_c, 0, 43, 58
6, 67584, Note_on_c, 0, 43, 0
6, 67920, Note_on_c, 0, 40, 58
6, 68064, Note_on_c, 0, 40, 0
6, 68160, Note_on_c, 0, 38, 58
6, 68544, Note_on_c, 0, 38, 0
6, 68880, Note_on_c, 0, 38, 58
6, 69024, Note_on_c, 0, 38, 0
6, 69120, Note_on_c, 0, 31, 58
6, 69696, Note_on_c, 0, 31, 0
6, 70080, Note_on_c, 0, 48, 58
6, 70224, Note_on_c, 0, 48, 0
6, 70320, Note_on_c, 0, 48, 58
6, 70464, Note_on_c, 0, 48, 0
6, 70560, Note_on_c, 0, 48, 58
6, 70704, Note_on_c, 0, 48, 0
6, 70800, Note_on_c, 0, 48, 58
6, 70944, Note_on_c, 0, 48, 0
6, 71040, Note_on_c, 0, 43, 58
6, 71424, Note_on_c, 0, 43, 0
6, 72000, Note_on_c, 0, 36, 58
6, 72144, Note_on_c, 0, 36, 0
6, 72240, Note_on_c, 0, 36, 58
6, 72384, Note_on_c, 0, 36, 0
6, 72480, Note_on_c, 0, 36, 58
6, 72624, Note_on_c, 0, 36, 0
6, 72720, Note_on_c, 0, 36, 58
6, 72864, Note_on_c, 0, 36, 0
6, 72960, Note_on_c, 0, 31, 58
6, 73344, Note_on_c, 0, 31, 0
6, 73920, Note_on_c, 0, 48, 58
6, 74064, Note_on_c, 0, 48, 0
6, 74160, Note_on_c, 0, 48, 58
6, 74304, Note_on_c, 0, 48, 0
6, 74400, Note_on_c, 0, 45, 58
6, 74544, Note_on_c, 0, 45, 0
6, 74640, Note_on_c, 0, 45, 58
6, 74784, Note_on_c, 0, 45, 0
6, 74880, Note_on_c, 0, 43, 58
6, 75264, Note_on_c, 0, 43, 0
6, 75600, Note_on_c, 0, 40, 58
6, 75744, Note_on_c, 0, 40, 0
6, 75840, Note_on_c, 0, 38, 58
6, 76224, Note_on_c, 0, 38, 0
6, 76560, Note_on_c, 0, 38, 58
6, 76704, Note_on_c, 0, 38, 0
6, 76800, Note_on_c, 0, 31, 58
6, 77376, Note_on_c, 0, 31, 0
6, 77760, Note_on_c, 0, 40, 58
6, 77904, Note_on_c, 0, 40, 0
6, 78000, Note_on_c, 0, 40, 58
6, 78144, Note_on_c, 0, 40, 0
6, 78240, Note_on_c, 0, 43, 58
6, 78384, Note_on_c, 0, 43, 0
6, 78480, Note_on_c, 0, 43, 58
6, 78624, Note_on_c, 0, 43, 0
6, 78720, Note_on_c, 0, 45, 58
6, 79104, Note_on_c, 0, 45, 0
6, 79680, Note_on_c, 0, 38, 58
6, 79824, Note_on_c, 0, 38, 0
6, 79920, Note_on_c, 0, 38, 58
6, 80064, Note_on_c, 0, 38, 0
6, 80160, Note_on_c, 0, 41, 58
6, 80304, Note_on_c, 0, 41, 0
6, 80400, Note_on_c, 0, 41, 58
6, 80544, Note_on_c, 0, 41, 0
6, 80640, Note_on_c, 0, 43, 58
6, 81024, Note_on_c, 0, 43, 0
6, 81600, Note_on_c, 0, 48, 58
6, 81744, Note_on_c, 0, 48, 0
6, 81840, Note_on_c, 0, 48, 58
6, 81984, Note_on_c, 0, 48, 0
6, 82080, Note_on_c, 0, 45, 58
6, 82224, Note_on_c, 0, 45, 0
6, 82320, Note_on_c, 0, 45, 58
6, 82464, Note_on_c, 0, 45, 0
6, 82560, Note_on_c, 0, 44, 58
6, 82944, Note_on_c, 0, 44, 0
6, 83280, Note_on_c, 0, 40, 58
6, 83520, Note_on_c, 0, 40, 0
6, 83520, Note_on_c, 0, 41, 58
6, 83904, Note_on_c, 0, 41, 0
6, 84240, Note_on_c, 0, 41, 58
6, 84480, Note_on_c, 0, 41, 0
6, 84480, Note_on_c, 0, 40, 58
6, 84864, Note_on_c, 0, 40, 0
6, 85200, Note_on_c, 0, 44, 58
6, 85440, Note_on_c, 0, 44, 0
6, 85440, Note_on_c, 0, 45, 58
6, 85584, Note_on_c, 0, 45, 0
6, 85680, Note_on_c, 0, 45, 58
6, 85824, Note_on_c, 0, 45, 0
6, 85920, Note_on_c, 0, 45, 58
6, 86064, Note_on_c, 0, 45, 0
6, 86160, Note_on_c, 0, 45, 58
6, 86304, Note_on_c, 0, 45, 0
6, 86400, Note_on_c, 0, 44, 58
6, 86784, Note_on_c, 0, 44, 0
6, 87120, Note_on_c, 0, 40, 58
6, 87360, Note_on_c, 0, 40, 0
6, 87360, Note_on_c, 0, 41, 58
6, 87744, Note_on_c, 0, 41, 0
6, 88080, Note_on_c, 0, 41, 58
6, 88320, Note_on_c, 0, 41, 0
6, 88320, Note_on_c, 0, 40, 58
6, 88704, Note_on_c, 0, 40, 0
6, 89040, Note_on_c, 0, 41, 58
6, 89280, Note_on_c, 0, 41, 0
6, 89280, Note_on_c, 0, 40, 58
6, 89664, Note_on_c, 0, 40, 0
6, 91920, Note_on_c, 0, 33, 58
6, 92064, Note_on_c, 0, 33, 0
6, 92160, Note_on_c, 0, 32, 58
6, 92400, Note_on_c, 0, 32, 0
6, 92400, Note_on_c, 0, 35, 58
6, 92544, Note_on_c, 0, 35, 0
6, 92640, Note_on_c, 0, 28, 58
6, 92784, Note_on_c, 0, 28, 0
6, 95760, Note_on_c, 0, 36, 72
6, 95904, Note_on_c, 0, 36, 0
6, 96000, Note_on_c, 0, 35, 72
6, 96240, Note_on_c, 0, 35, 0
6, 96240, Note_on_c, 0, 38, 72
6, 96384, Note_on_c, 0, 38, 0
6, 96480, Note_on_c, 0, 31, 58
6, 96624, Note_on_c, 0, 31, 0
6, 96720, Note_on_c, 0, 35, 58
6, 96864, Note_on_c, 0, 35, 0
6, 97920, Note_on_c, 0, 36, 72
6, 98304, Note_on_c, 0, 36, 0
6, 98400, Note_on_c, 0, 36, 72
6, 98784, Note_on_c, 0, 36, 0
6, 98880, Note_on_c, 0, 36, 72
6, 99264, Note_on_c, 0, 36, 0
6, 99360, Note_on_c, 0, 36, 72
6, 99744, Note_on_c, 0, 36, 0
6, 99840, Note_on_c, 0, 36, 72
6, 100224, Note_on_c, 0, 36, 0
6, 100320, Note_on_c, 0, 36, 72
6, 100704, Note_on_c, 0, 36, 0
6, 101280, Note_on_c, 0, 36, 72
6, 101664, Note_on_c, 0, 36, 0
6, 102240, Note_on_c, 0, 36, 72
6, 102720, Note_on_c, 0, 36, 0
6, 102720, Note_on_c, 0, 35, 72
6, 103200, Note_on_c, 0, 35, 0
6, 103200, Note_on_c, 0, 36, 72
6, 103584, Note_on_c, 0, 36, 0
6, 103680, Note_on_c, 0, 43, 72
6, 104064, Note_on_c, 0, 43, 0
6, 104160, Note_on_c, 0, 31, 72
6, 104544, Note_on_c, 0, 31, 0
6, 105600, Note_on_c, 0, 36, 105
6, 105984, Note_on_c, 0, 36, 0
6, 106080, Note_on_c, 0, 36, 105
6, 106464, Note_on_c, 0, 36, 0
6, 106560, Note_on_c, 0, 36, 105
6, 106944, Note_on_c, 0, 36, 0
6, 107040, Note_on_c, 0, 36, 105
6, 107424, Note_on_c, 0, 36, 0
6, 107520, Note_on_c, 0, 36, 105
6, 107904, Note_on_c, 0, 36, 0
6, 108000, Note_on_c, 0, 36, 105
6, 108384, Note_on_c, 0, 36, 0
6, 108480, Note_on_c, 0, 40, 105
6, 108864, Note_on_c, 0, 40, 0
6, 108960, Note_on_c, 0, 40, 105
6, 109344, Note_on_c, 0, 40, 0
6, 109440, Note_on_c, 0, 41, 105
6, 109824, Note_on_c, 0, 41, 0
6, 109920, Note_on_c, 0, 41, 105
6, 110304, Note_on_c, 0, 41, 0
6, 110400, Note_on_c, 0, 43, 105
6, 110784, Note_on_c, 0, 43, 0
6, 110880, Note_on_c, 0, 31, 105
6, 111264, Note_on_c, 0, 31, 0
6, 111360, Note_on_c, 0, 36, 105
6, 111744, Note_on_c, 0, 36, 0
6, 113760, Note_on_c, 0, 43, 72
6, 113904, Note_on_c, 0, 43, 0
6, 114000, Note_on_c, 0, 35, 72
6, 114040, Note_on_c, 0, 35, 0
6, 114040, Note_on_c, 0, 36, 72
6, 114080, Note_on_c, 0, 36, 0
6, 114080, Note_on_c, 0, 35, 72
6, 114120, Note_on_c, 0, 35, 0
6, 114120, Note_on_c, 0, 33, 72
6, 114180, Note_on_c, 0, 33, 0
6, 114180, Note_on_c, 0, 35, 72
6, 114240, Note_on_c, 0, 35, 0
6, 114240, Note_on_c, 0, 36, 72
6, 114432, Note_on_c, 0, 36, 0
6, 115680, Note_on_c, 0, 43, 72
6, 115824, Note_on_c, 0, 43, 0
6, 115920, Note_on_c, 0, 35, 72
6, 115960, Note_on_c, 0, 35, 0
6, 115960, Note_on_c, 0, 36, 72
6, 116000, Note_on_c, 0, 36, 0
6, 116000, Note_on_c, 0, 35, 72
6, 116040, Note_on_c, 0, 35, 0
6, 116040, Note_on_c, 0, 33, 72
6, 116100, Note_on_c, 0, 33, 0
6, 116100, Note_on_c, 0, 35, 72
6, 116160, Note_on_c, 0, 35, 0
6, 116160, Note_on_c, 0, 36, 72
6, 116352, Note_on_c, 0, 36, 0
6, 117120, Note_on_c, 0, 34, 112
6, 117696, Note_on_c, 0, 34, 0
6, 117840, Note_on_c, 0, 36, 72
6, 118032, Note_on_c, 0, 36, 0
6, 118080, Note_on_c, 0, 32, 72
6, 118272, Note_on_c, 0, 32, 0
6, 118320, Note_on_c, 0, 32, 72
6, 118512, Note_on_c, 0, 32, 0
6, 118560, Note_on_c, 0, 34, 72
6, 118752, Note_on_c, 0, 34, 0
6, 118800, Note_on_c, 0, 34, 72
6, 118992, Note_on_c, 0, 34, 0
6, 119040, Note_on_c, 0, 39, 72
6, 119232, Note_on_c, 0, 39, 0
6, 121440, Note_on_c, 0, 43, 72
6, 121584, Note_on_c, 0, 43, 0
6, 121680, Note_on_c, 0, 35, 72
6, 121720, Note_on_c, 0, 35, 0
6, 121720, Note_on_c, 0, 36, 72
6, 121760, Note_on_c, 0, 36, 0
6, 121760, Note_on_c, 0, 35, 72
6, 121800, Note_on_c, 0, 35, 0
6, 121800, Note_on_c, 0, 33, 72
6, 121860, Note_on_c, 0, 33, 0
6, 121860, Note_on_c, 0, 35, 72
6, 121920, Note_on_c, 0, 35, 0
6, 121920, Note_on_c, 0, 36, 72
6, 122112, Note_on_c, 0, 36, 0
6, 123360, Note_on_c, 0, 43, 72
6, 123504, Note_on_c, 0, 43, 0
6, 123600, Note_on_c, 0, 35, 72
6, 123640, Note_on_c, 0, 35, 0
6, 123640, Note_on_c, 0, 36, 72
6, 123680, Note_on_c, 0, 36, 0
6, 123680, Note_on_c, 0, 35, 72
6, 123720, Note_on_c, 0, 35, 0
6, 123720, Note_on_c, 0, 33, 72
6, 123780, Note_on_c, 0, 33, 0
6, 123780, Note_on_c, 0, 35, 72
6, 123840, Note_on_c, 0, 35, 0
6, 123840, Note_on_c, 0, 36, 72
6, 124032, Note_on_c, 0, 36, 0
6, 124800, Note_on_c, 0, 34, 112
6, 125376, Note_on_c, 0, 34, 0
6, 125520, Note_on_c, 0, 36, 72
6, 125712, Note_on_c, 0, 36, 0
6, 125760, Note_on_c, 0, 32, 72
6, 125952, Note_on_c, 0, 32, 0
6, 126000, Note_on_c, 0, 32, 72
6, 126192, Note_on_c, 0, 32, 0
6, 126240, Note_on_c, 0, 34, 72
6, 126432, Note_on_c, 0, 34, 0
6, 126480, Note_on_c, 0, 34, 72
6, 126672, Note_on_c, 0, 34, 0
6, 126720, Note_on_c, 0, 39, 72
6, 126912, Note_on_c, 0, 39, 0
6, 129120, Note_on_c, 0, 48, 72
6, 129264, Note_on_c, 0, 48, 0
6, 129360, Note_on_c, 0, 40, 72
6, 129400, Note_on_c, 0, 40, 0
6, 129400, Note_on_c, 0, 41, 72
6, 129440, Note_on_c, 0, 41, 0
6, 129440, Note_on_c, 0, 40, 72
6, 129480, Note_on_c, 0, 40, 0
6, 129480, Note_on_c, 0, 38, 72
6, 129540, Note_on_c, 0, 38, 0
6, 129540, Note_on_c, 0, 40, 72
6, 129600, Note_on_c, 0, 40, 0
6, 129600, Note_on_c, 0, 41, 72
6, 129792, Note_on_c, 0, 41, 0
6, 131040, Note_on_c, 0, 50, 72
6, 131184, Note_on_c, 0, 50, 0
6, 131280, Note_on_c, 0, 42, 72
6, 131320, Note_on_c, 0, 42, 0
6, 131320, Note_on_c, 0, 43, 72
6, 131360, Note_on_c, 0, 43, 0
6, 131360, Note_on_c, 0, 42, 72
6, 131400, Note_on_c, 0, 42, 0
6, 131400, Note_on_c, 0, 40, 72
6, 131460, Note_on_c, 0, 40, 0
6, 131460, Note_on_c, 0, 42, 72
6, 131520, Note_on_c, 0, 42, 0
6, 131520, Note_on_c, 0, 43, 72
6, 131712, Note_on_c, 0, 43, 0
6, 133920, Note_on_c, 0, 48, 72
6, 134064, Note_on_c, 0, 48, 0
6, 134160, Note_on_c, 0, 42, 72
6, 134200, Note_on_c, 0, 42, 0
6, 134200, Note_on_c, 0, 43, 72
6, 134240, Note_on_c, 0, 43, 0
6, 134240, Note_on_c, 0, 42, 72
6, 134280, Note_on_c, 0, 42, 0
6, 134280, Note_on_c, 0, 40, 72
6, 134340, Note_on_c, 0, 40, 0
6, 134340, Note_on_c, 0, 42, 72
6, 134400, Note_on_c, 0, 42, 0
6, 134400, Note_on_c, 0, 43, 72
6, 134544, Note_on_c, 0, 43, 0
6, 134640, Note_on_c, 0, 44, 72
6, 134680, Note_on_c, 0, 44, 0
6, 134680, Note_on_c, 0, 46, 72
6, 134720, Note_on_c, 0, 46, 0
6, 134720, Note_on_c, 0, 44, 72
6, 134760, Note_on_c, 0, 44, 0
6, 134760, Note_on_c, 0, 43, 72
6, 134820, Note_on_c, 0, 43, 0
6, 134820, Note_on_c, 0, 44, 72
6, 134880, Note_on_c, 0, 44, 0
6, 134880, Note_on_c, 0, 43, 72
6, 135024, Note_on_c, 0, 43, 0
6, 135120, Note_on_c, 0, 41, 72
6, 135160, Note_on_c, 0, 41, 0
6, 135160, Note_on_c, 0, 43, 72
6, 135200, Note_on_c, 0, 43, 0
6, 135200, Note_on_c, 0, 41, 72
6, 135240, Note_on_c, 0, 41, 0
6, 135240, Note_on_c, 0, 39, 72
6, 135300, Note_on_c, 0, 39, 0
6, 135300, Note_on_c, 0, 41, 72
6, 135360, Note_on_c, 0, 41, 0
6, 135360, Note_on_c, 0, 39, 72
6, 135504, Note_on_c, 0, 39, 0
6, 135600, Note_on_c, 0, 35, 72
6, 135640, Note_on_c, 0, 35, 0
6, 135640, Note_on_c, 0, 36, 72
6, 135680, Note_on_c, 0, 36, 0
6, 135680, Note_on_c, 0, 35, 72
6, 135720, Note_on_c, 0, 35, 0
6, 135720, Note_on_c, 0, 33, 72
6, 135780, Note_on_c, 0, 33, 0
6, 135780, Note_on_c, 0, 35, 72
6, 135840, Note_on_c, 0, 35, 0
6, 135840, Note_on_c, 0, 36, 72
6, 135984, Note_on_c, 0, 36, 0
6, 136080, Note_on_c, 0, 32, 72
6, 136120, Note_on_c, 0, 32, 0
6, 136120, Note_on_c, 0, 34, 72
6, 136160, Note_on_c, 0, 34, 0
6, 136160, Note_on_c, 0, 32, 72
6, 136200, Note_on_c, 0, 32, 0
6, 136200, Note_on_c, 0, 31, 72
6, 136260, Note_on_c, 0, 31, 0
6, 136260, Note_on_c, 0, 32, 72
6, 136320, Note_on_c, 0, 32, 0
6, 136320, Note_on_c, 0, 31, 72
6, 136512, Note_on_c, 0, 31, 0
6, 137280, Note_on_c, 0, 43, 72
6, 137424, Note_on_c, 0, 43, 0
6, 137520, Note_on_c, 0, 35, 72
6, 137560, Note_on_c, 0, 35, 0
6, 137560, Note_on_c, 0, 36, 72
6, 137600, Note_on_c, 0, 36, 0
6, 137600, Note_on_c, 0, 35, 72
6, 137640, Note_on_c, 0, 35, 0
6, 137640, Note_on_c, 0, 33, 72
6, 137700, Note_on_c, 0, 33, 0
6, 137700, Note_on_c, 0, 35, 72
6, 137760, Note_on_c, 0, 35, 0
6, 137760, Note_on_c, 0, 36, 72
6, 137952, Note_on_c, 0, 36, 0
6, 138240, Note_on_c, 0, 43, 72
6, 138384, Note_on_c, 0, 43, 0
6, 138480, Note_on_c, 0, 35, 72
6, 138520, Note_on_c, 0, 35, 0
6, 138520, Note_on_c, 0, 36, 72
6, 138560, Note_on_c, 0, 36, 0
6, 138560, Note_on_c, 0, 35, 72
6, 138600, Note_on_c, 0, 35, 0
6, 138600, Note_on_c, 0, 33, 72
6, 138660, Note_on_c, 0, 33, 0
6, 138660, Note_on_c, 0, 35, 72
6, 138720, Note_on_c, 0, 35, 0
6, 138720, Note_on_c, 0, 36, 72
6, 138912, Note_on_c, 0, 36, 0
6, 139200, Note_on_c, 0, 43, 72
6, 139344, Note_on_c, 0, 43, 0
6, 139440, Note_on_c, 0, 35, 72
6, 139480, Note_on_c, 0, 35, 0
6, 139480, Note_on_c, 0, 36, 72
6, 139520, Note_on_c, 0, 36, 0
6, 139520, Note_on_c, 0, 35, 72
6, 139560, Note_on_c, 0, 35, 0
6, 139560, Note_on_c, 0, 33, 72
6, 139620, Note_on_c, 0, 33, 0
6, 139620, Note_on_c, 0, 35, 72
6, 139680, Note_on_c, 0, 35, 0
6, 139680, Note_on_c, 0, 36, 72
6, 139872, Note_on_c, 0, 36, 0
6, 142080, Note_on_c, 0, 31, 72
6, 142800, Note_on_c, 0, 31, 0
6, 142800, Note_on_c, 0, 33, 72
6, 142920, Note_on_c, 0, 33, 0
6, 142920, Note_on_c, 0, 35, 72
6, 143040, Note_on_c, 0, 35, 0
6, 143040, Note_on_c, 0, 36, 58
6, 143232, Note_on_c, 0, 36, 0
6, 144000, Note_on_c, 0, 36, 72
6, 144384, Note_on_c, 0, 36, 0
6, 144480, Note_on_c, 0, 36, 72
6, 144864, Note_on_c, 0, 36, 0
6, 144960, Note_on_c, 0, 36, 72
6, 145344, Note_on_c, 0, 36, 0
6, 145440, Note_on_c, 0, 36, 72
6, 145824, Note_on_c, 0, 36, 0
6, 145920, Note_on_c, 0, 36, 72
6, 146304, Note_on_c, 0, 36, 0
6, 146400, Note_on_c, 0, 36, 72
6, 146784, Note_on_c, 0, 36, 0
6, 147360, Note_on_c, 0, 36, 72
6, 147744, Note_on_c, 0, 36, 0
6, 148320, Note_on_c, 0, 36, 72
6, 148800, Note_on_c, 0, 36, 0
6, 148800, Note_on_c, 0, 35, 72
6, 149280, Note_on_c, 0, 35, 0
6, 149280, Note_on_c, 0, 36, 72
6, 149664, Note_on_c, 0, 36, 0
6, 149760, Note_on_c, 0, 43, 72
6, 150144, Note_on_c, 0, 43, 0
6, 150240, Note_on_c, 0, 31, 72
6, 150624, Note_on_c, 0, 31, 0
6, 151680, Note_on_c, 0, 36, 105
6, 152064, Note_on_c, 0, 36, 0
6, 152160, Note_on_c, 0, 36, 105
6, 152544, Note_on_c, 0, 36, 0
6, 152640, Note_on_c, 0, 36, 105
6, 153024, Note_on_c, 0, 36, 0
6, 153120, Note_on_c, 0, 36, 105
6, 153504, Note_on_c, 0, 36, 0
6, 153600, Note_on_c, 0, 36, 105
6, 153984, Note_on_c, 0, 36, 0
6, 154080, Note_on_c, 0, 36, 105
6, 154464, Note_on_c, 0, 36, 0
6, 154560, Note_on_c, 0, 40, 105
6, 154944, Note_on_c, 0, 40, 0
6, 155040, Note_on_c, 0, 40, 105
6, 155424, Note_on_c, 0, 40, 0
6, 155520, Note_on_c, 0, 41, 105
6, 155904, Note_on_c, 0, 41, 0
6, 156000, Note_on_c, 0, 41, 105
6, 156384, Note_on_c, 0, 41, 0
6, 156480, Note_on_c, 0, 43, 105
6, 156864, Note_on_c, 0, 43, 0
6, 156960, Note_on_c, 0, 31, 105
6, 157344, Note_on_c, 0, 31, 0
6, 157440, Note_on_c, 0, 36, 92
6, 157824, Note_on_c, 0, 36, 0
6, 159360, Note_on_c, 0, 31, 72
6, 159744, Note_on_c, 0, 31, 0
6, 159840, Note_on_c, 0, 31, 72
6, 160224, Note_on_c, 0, 31, 0
6, 160320, Note_on_c, 0, 31, 72
6, 160704, Note_on_c, 0, 31, 0
6, 160800, Note_on_c, 0, 31, 72
6, 161184, Note_on_c, 0, 31, 0
6, 161280, Note_on_c, 0, 31, 58
6, 161664, Note_on_c, 0, 31, 0
6, 163200, Note_on_c, 0, 31, 72
6, 163584, Note_on_c, 0, 31, 0
6, 163680, Note_on_c, 0, 43, 81
6, 164064, Note_on_c, 0, 43, 0
6, 164160, Note_on_c, 0, 43, 81
6, 164544, Note_on_c, 0, 43, 0
6, 164640, Note_on_c, 0, 43, 105
6, 165024, Note_on_c, 0, 43, 0
6, 165120, Note_on_c, 0, 31, 105
6, 165504, Note_on_c, 0, 31, 0
6, 167040, Note_on_c, 0, 33, 58
6, 167808, Note_on_c, 0, 33, 0
6, 168000, Note_on_c, 0, 38, 58
6, 168480, Note_on_c, 0, 38, 0
6, 168480, Note_on_c, 0, 35, 58
6, 168864, Note_on_c, 0, 35, 0
6, 168960, Note_on_c, 0, 36, 58
6, 169344, Note_on_c, 0, 36, 0
6, 169920, Note_on_c, 0, 40, 105
6, 170304, Note_on_c, 0, 40, 0
6, 170400, Note_on_c, 0, 38, 105
6, 170784, Note_on_c, 0, 38, 0
6, 170880, Note_on_c, 0, 36, 105
6, 171264, Note_on_c, 0, 36, 0
6, 171360, Note_on_c, 0, 41, 105
6, 171744, Note_on_c, 0, 41, 0
6, 171840, Note_on_c, 0, 43, 105
6, 172224, Note_on_c, 0, 43, 0
6, 172320, Note_on_c, 0, 31, 105
6, 172704, Note_on_c, 0, 31, 0
6, 172800, Note_on_c, 0, 36, 92
6, 173184, Note_on_c, 0, 36, 0
6, 173760, Note_on_c, 0, 28, 112
6, 174144, Note_on_c, 0, 28, 0
6, 174720, Note_on_c, 0, 29, 112
6, 175104, Note_on_c, 0, 29, 0
6, 175680, Note_on_c, 0, 30, 112
6, 176064, Note_on_c, 0, 30, 0
6, 176640, Note_on_c, 0, 31, 58
6, 178560, Note_on_c, 0, 31, 0
6, 178560, Note_on_c, 0, 36, 58
6, 178944, Note_on_c, 0, 36, 0
6, 180480, Note_on_c, 0, 31, 58
6, 182400, Note_on_c, 0, 31, 0
6, 182400, Note_on_c, 0, 36, 58
6, 182784, Note_on_c, 0, 36, 0
6, 184320, Note_on_c, 0, 31, 58
6, 186240, Note_on_c, 0, 31, 0
6, 186240, Note_on_c, 0, 36, 58
6, 186432, Note_on_c, 0, 36, 0
6, 186720, Note_on_c, 0, 31, 58
6, 186912, Note_on_c, 0, 31, 0
6, 187200, Note_on_c, 0, 36, 30
6, 187392, Note_on_c, 0, 36, 0
6, 188160, Note_on_c, 0, 24, 1
6, 189696, Note_on_c, 0, 24, 0
6, 189696, End_track
7, 0, Start_track
7, 0, Program_c, 1, 40
7, 0, Control_c, 1, 10, 30
7, 0, Control_c, 1, 91, 80
7, 960, Note_on_c, 1, 76, 72
7, 960, Control_c, 1, 10, 28
7, 1152, Note_on_c, 1, 76, 0
7, 1440, Note_on_c, 1, 76, 72
7, 1632, Note_on_c, 1, 76, 0
7, 1920, Note_on_c, 1, 76, 72
7, 2640, Note_on_c, 1, 76, 0
7, 2640, Note_on_c, 1, 79, 72
7, 2832, Note_on_c, 1, 79, 0
7, 2880, Note_on_c, 1, 77, 72
7, 3120, Note_on_c, 1, 77, 0
7, 3120, Note_on_c, 1, 74, 72
7, 3360, Note_on_c, 1, 74, 0
7, 3360, Note_on_c, 1, 77, 72
7, 3600, Note_on_c, 1, 77, 0
7, 3600, Note_on_c, 1, 81, 72
7, 3792, Note_on_c, 1, 81, 0
7, 3840, Note_on_c, 1, 79, 72
7, 4200, Note_on_c, 1, 79, 0
7, 4200, Note_on_c, 1, 76, 72
7, 4320, Note_on_c, 1, 76, 0
7, 4320, Note_on_c, 1, 79, 72
7, 4512, Note_on_c, 1, 79, 0
7, 4800, Note_on_c, 1, 84, 72
7, 4944, Note_on_c, 1, 84, 0
7, 5040, Note_on_c, 1, 84, 72
7, 5520, Note_on_c, 1, 84, 0
7, 5520, Note_on_c, 1, 83, 72
7, 5712, Note_on_c, 1, 83, 0
7, 5760, Note_on_c, 1, 81, 72
7, 5904, Note_on_c, 1, 81, 0
7, 6000, Note_on_c, 1, 81, 72
7, 6480, Note_on_c, 1, 81, 0
7, 6480, Note_on_c, 1, 79, 72
7, 6672, Note_on_c, 1, 79, 0
7, 6720, Note_on_c, 1, 79, 72
7, 6960, Note_on_c, 1, 79, 0
7, 6960, Note_on_c, 1, 77, 72
7, 7056, Note_on_c, 1, 77, 0
7, 7200, Note_on_c, 1, 77, 72
7, 7440, Note_on_c, 1, 77, 0
7, 7440, Note_on_c, 1, 76, 72
7, 7536, Note_on_c, 1, 76, 0
7, 7680, Note_on_c, 1, 79, 72
7, 8040, Note_on_c, 1, 79, 0
7, 8040, Note_on_c, 1, 76, 72
7, 8160, Note_on_c, 1, 76, 0
7, 8160, Note_on_c, 1, 74, 72
7, 8352, Note_on_c, 1, 74, 0
7, 8640, Note_on_c, 1, 76, 105
7, 8832, Note_on_c, 1, 76, 0
7, 9120, Note_on_c, 1, 76, 105
7, 9312, Note_on_c, 1, 76, 0
7, 9600, Note_on_c, 1, 76, 105
7, 10320, Note_on_c, 1, 76, 0
7, 10320, Note_on_c, 1, 79, 105
7, 10512, Note_on_c, 1, 79, 0
7, 10560, Note_on_c, 1, 77, 105
7, 10800, Note_on_c, 1, 77, 0
7, 10800, Note_on_c, 1, 74, 105
7, 11040, Note_on_c, 1, 74, 0
7, 11040, Note_on_c, 1, 77, 105
7, 11280, Note_on_c, 1, 77, 0
7, 11280, Note_on_c, 1, 81, 105
7, 11472, Note_on_c, 1, 81, 0
7, 11520, Note_on_c, 1, 79, 105
7, 11880, Note_on_c, 1, 79, 0
7, 11880, Note_on_c, 1, 76, 105
7, 12000, Note_on_c, 1, 76, 0
7, 12000, Note_on_c, 1, 79, 105
7, 12192, Note_on_c, 1, 79, 0
7, 12480, Note_on_c, 1, 84, 105
7, 12720, Note_on_c, 1, 84, 0
7, 12720, Note_on_c, 1, 79, 105
7, 12816, Note_on_c, 1, 79, 0
7, 12960, Note_on_c, 1, 79, 105
7, 13200, Note_on_c, 1, 79, 0
7, 13200, Note_on_c, 1, 76, 105
7, 13296, Note_on_c, 1, 76, 0
7, 13440, Note_on_c, 1, 74, 105
7, 13680, Note_on_c, 1, 74, 0
7, 13680, Note_on_c, 1, 81, 105
7, 13872, Note_on_c, 1, 81, 0
7, 13920, Note_on_c, 1, 79, 105
7, 14040, Note_on_c, 1, 79, 0
7, 14040, Note_on_c, 1, 77, 105
7, 14160, Note_on_c, 1, 77, 0
7, 14160, Note_on_c, 1, 76, 105
7, 14280, Note_on_c, 1, 76, 0
7, 14280, Note_on_c, 1, 74, 105
7, 14376, Note_on_c, 1, 74, 0
7, 14400, Note_on_c, 1, 72, 105
7, 14784, Note_on_c, 1, 72, 0
7, 14880, Note_on_c, 1, 76, 105
7, 15000, Note_on_c, 1, 76, 0
7, 15000, Note_on_c, 1, 74, 105
7, 15120, Note_on_c, 1, 74, 0
7, 15120, Note_on_c, 1, 72, 105
7, 15240, Note_on_c, 1, 72, 0
7, 15240, Note_on_c, 1, 74, 105
7, 15348, Note_on_c, 1, 74, 0
7, 15360, Note_on_c, 1, 72, 92
7, 15744, Note_on_c, 1, 72, 0
7, 16320, Note_on_c, 1, 76, 72
7, 16512, Note_on_c, 1, 76, 0
7, 16800, Note_on_c, 1, 76, 72
7, 16992, Note_on_c, 1, 76, 0
7, 17280, Note_on_c, 1, 76, 72
7, 18000, Note_on_c, 1, 76, 0
7, 18000, Note_on_c, 1, 79, 72
7, 18192, Note_on_c, 1, 79, 0
7, 18240, Note_on_c, 1, 77, 72
7, 18480, Note_on_c, 1, 77, 0
7, 18480, Note_on_c, 1, 74, 72
7, 18720, Note_on_c, 1, 74, 0
7, 18720, Note_on_c, 1, 77, 72
7, 18960, Note_on_c, 1, 77, 0
7, 18960, Note_on_c, 1, 81, 72
7, 19152, Note_on_c, 1, 81, 0
7, 19200, Note_on_c, 1, 79, 72
7, 19560, Note_on_c, 1, 79, 0
7, 19560, Note_on_c, 1, 76, 72
7, 19680, Note_on_c, 1, 76, 0
7, 19680, Note_on_c, 1, 79, 72
7, 19872, Note_on_c, 1, 79, 0
7, 20160, Note_on_c, 1, 84, 72
7, 20304, Note_on_c, 1, 84, 0
7, 20400, Note_on_c, 1, 84, 72
7, 20880, Note_on_c, 1, 84, 0
7, 20880, Note_on_c, 1, 83, 72
7, 21072, Note_on_c, 1, 83, 0
7, 21120, Note_on_c, 1, 81, 72
7, 21264, Note_on_c, 1, 81, 0
7, 21360, Note_on_c, 1, 81, 72
7, 21840, Note_on_c, 1, 81, 0
7, 21840, Note_on_c, 1, 79, 72
7, 22032, Note_on_c, 1, 79, 0
7, 22080, Note_on_c, 1, 79, 72
7, 22320, Note_on_c, 1, 79, 0
7, 22320, Note_on_c, 1, 77, 72
7, 22416, Note_on_c, 1, 77, 0
7, 22560, Note_on_c, 1, 77, 72
7, 22800, Note_on_c, 1, 77, 0
7, 22800, Note_on_c, 1, 76, 72
7, 22896, Note_on_c, 1, 76, 0
7, 23040, Note_on_c, 1, 79, 72
7, 23400, Note_on_c, 1, 79, 0
7, 23400, Note_on_c, 1, 76, 72
7, 23520, Note_on_c, 1, 76, 0
7, 23520, Note_on_c, 1, 74, 72
7, 23712, Note_on_c, 1, 74, 0
7, 24000, Note_on_c, 1, 76, 105
7, 24192, Note_on_c, 1, 76, 0
7, 24480, Note_on_c, 1, 76, 105
7, 24672, Note_on_c, 1, 76, 0
7, 24960, Note_on_c, 1, 76, 105
7, 25680, Note_on_c, 1, 76, 0
7, 25680, Note_on_c, 1, 79, 105
7, 25872, Note_on_c, 1, 79, 0
7, 25920, Note_on_c, 1, 77, 105
7, 26160, Note_on_c, 1, 77, 0
7, 26160, Note_on_c, 1, 74, 105
7, 26400, Note_on_c, 1, 74, 0
7, 26400, Note_on_c, 1, 77, 105
7, 26640, Note_on_c, 1, 77, 0
7, 26640, Note_on_c, 1, 81, 105
7, 26832, Note_on_c, 1, 81, 0
7, 26880, Note_on_c, 1, 79, 105
7, 27240, Note_on_c, 1, 79, 0
7, 27240, Note_on_c, 1, 76, 105
7, 27360, Note_on_c, 1, 76, 0
7, 27360, Note_on_c, 1, 79, 105
7, 27552, Note_on_c, 1, 79, 0
7, 27840, Note_on_c, 1, 84, 105
7, 28080, Note_on_c, 1, 84, 0
7, 28080, Note_on_c, 1, 79, 105
7, 28176, Note_on_c, 1, 79, 0
7, 28320, Note_on_c, 1, 79, 105
7, 28560, Note_on_c, 1, 79, 0
7, 28560, Note_on_c, 1, 76, 105
7, 28656, Note_on_c, 1, 76, 0
7, 28800, Note_on_c, 1, 74, 105
7, 29040, Note_on_c, 1, 74, 0
7, 29040, Note_on_c, 1, 81, 105
7, 29232, Note_on_c, 1, 81, 0
7, 29280, Note_on_c, 1, 79, 105
7, 29400, Note_on_c, 1, 79, 0
7, 29400, Note_on_c, 1, 77, 105
7, 29520, Note_on_c, 1, 77, 0
7, 29520, Note_on_c, 1, 76, 105
7, 29640, Note_on_c, 1, 76, 0
7, 29640, Note_on_c, 1, 74, 105
7, 29736, Note_on_c, 1, 74, 0
7, 29760, Note_on_c, 1, 72, 105
7, 30144, Note_on_c, 1, 72, 0
7, 30240, Note_on_c, 1, 76, 105
7, 30360, Note_on_c, 1, 76, 0
7, 30360, Note_on_c, 1, 74, 105
7, 30480, Note_on_c, 1, 74, 0
7, 30480, Note_on_c, 1, 72, 105
7, 30600, Note_on_c, 1, 72, 0
7, 30600, Note_on_c, 1, 74, 105
7, 30708, Note_on_c, 1, 74, 0
7, 30720, Note_on_c, 1, 72, 92
7, 31104, Note_on_c, 1, 72, 0
7, 31680, Note_on_c, 1, 73, 58
7, 31800, Note_on_c, 1, 73, 0
7, 31800, Note_on_c, 1, 74, 72
7, 31920, Note_on_c, 1, 74, 0
7, 31920, Note_on_c, 1, 77, 72
7, 32040, Note_on_c, 1, 77, 0
7, 32040, Note_on_c, 1, 76, 72
7, 32160, Note_on_c, 1, 76, 0
7, 32160, Note_on_c, 1, 75, 72
7, 32280, Note_on_c, 1, 75, 0
7, 32280, Note_on_c, 1, 76, 72
7, 32400, Note_on_c, 1, 76, 0
7, 32400, Note_on_c, 1, 79, 72
7, 32520, Note_on_c, 1, 79, 0
7, 32520, Note_on_c, 1, 77, 72
7, 32616, Note_on_c, 1, 77, 0
7, 32640, Note_on_c, 1, 77, 72
7, 33024, Note_on_c, 1, 77, 0
7, 33120, Note_on_c, 1, 81, 72
7, 33480, Note_on_c, 1, 81, 0
7, 33480, Note_on_c, 1, 79, 72
7, 33576, Note_on_c, 1, 79, 0
7, 33600, Note_on_c, 1, 79, 72
7, 33984, Note_on_c, 1, 79, 0
7, 34080, Note_on_c, 1, 77, 72
7, 34200, Note_on_c, 1, 77, 0
7, 34200, Note_on_c, 1, 76, 72
7, 34320, Note_on_c, 1, 76, 0
7, 34320, Note_on_c, 1, 74, 72
7, 34440, Note_on_c, 1, 74, 0
7, 34440, Note_on_c, 1, 72, 72
7, 34536, Note_on_c, 1, 72, 0
7, 34560, Note_on_c, 1, 76, 72
7, 35040, Note_on_c, 1, 76, 0
7, 35040, Note_on_c, 1, 74, 58
7, 35232, Note_on_c, 1, 74, 0
7, 35520, Note_on_c, 1, 73, 72
7, 35640, Note_on_c, 1, 73, 0
7, 35640, Note_on_c, 1, 74, 72
7, 35760, Note_on_c, 1, 74, 0
7, 35760, Note_on_c, 1, 77, 72
7, 35880, Note_on_c, 1, 77, 0
7, 35880, Note_on_c, 1, 76, 72
7, 36000, Note_on_c, 1, 76, 0
7, 36000, Note_on_c, 1, 75, 72
7, 36120, Note_on_c, 1, 75, 0
7, 36120, Note_on_c, 1, 76, 72
7, 36240, Note_on_c, 1, 76, 0
7, 36240, Note_on_c, 1, 79, 72
7, 36360, Note_on_c, 1, 79, 0
7, 36360, Note_on_c, 1, 77, 72
7, 36456, Note_on_c, 1, 77, 0
7, 36480, Note_on_c, 1, 77, 72
7, 36864, Note_on_c, 1, 77, 0
7, 36960, Note_on_c, 1, 83, 72
7, 37320, Note_on_c, 1, 83, 0
7, 37320, Note_on_c, 1, 84, 81
7, 37416, Note_on_c, 1, 84, 0
7, 37440, Note_on_c, 1, 84, 92
7, 37824, Note_on_c, 1, 84, 0
7, 37920, Note_on_c, 1, 83, 92
7, 38040, Note_on_c, 1, 83, 0
7, 38040, Note_on_c, 1, 81, 105
7, 38160, Note_on_c, 1, 81, 0
7, 38160, Note_on_c, 1, 79, 105
7, 38280, Note_on_c, 1, 79, 0
7, 38280, Note_on_c, 1, 78, 105
7, 38376, Note_on_c, 1, 78, 0
7, 38400, Note_on_c, 1, 79, 116
7, 38520, Note_on_c, 1, 79, 0
7, 38520, Note_on_c, 1, 81, 116
7, 38640, Note_on_c, 1, 81, 0
7, 38640, Note_on_c, 1, 79, 116
7, 38760, Note_on_c, 1, 79, 0
7, 38760, Note_on_c, 1, 78, 81
7, 38880, Note_on_c, 1, 78, 0
7, 38880, Note_on_c, 1, 79, 81
7, 39000, Note_on_c, 1, 79, 0
7, 39000, Note_on_c, 1, 80, 81
7, 39120, Note_on_c, 1, 80, 0
7, 39120, Note_on_c, 1, 81, 81
7, 39240, Note_on_c, 1, 81, 0
7, 39240, Note_on_c, 1, 77, 72
7, 39360, Note_on_c, 1, 77, 0
7, 39360, Note_on_c, 1, 76, 72
7, 39552, Note_on_c, 1, 76, 0
7, 39840, Note_on_c, 1, 76, 72
7, 40032, Note_on_c, 1, 76, 0
7, 40320, Note_on_c, 1, 76, 72
7, 41040, Note_on_c, 1, 76, 0
7, 41040, Note_on_c, 1, 79, 72
7, 41232, Note_on_c, 1, 79, 0
7, 41280, Note_on_c, 1, 77, 72
7, 41520, Note_on_c, 1, 77, 0
7, 41520, Note_on_c, 1, 74, 72
7, 41760, Note_on_c, 1, 74, 0
7, 41760, Note_on_c, 1, 77, 72
7, 42000, Note_on_c, 1, 77, 0
7, 42000, Note_on_c, 1, 81, 72
7, 42192, Note_on_c, 1, 81, 0
7, 42240, Note_on_c, 1, 79, 72
7, 42600, Note_on_c, 1, 79, 0
7, 42600, Note_on_c, 1, 76, 72
7, 42696, Note_on_c, 1, 76, 0
7, 42720, Note_on_c, 1, 79, 72
7, 42912, Note_on_c, 1, 79, 0
7, 43200, Note_on_c, 1, 79, 105
7, 43440, Note_on_c, 1, 79, 0
7, 43440, Note_on_c, 1, 84, 105
7, 43560, Note_on_c, 1, 84, 0
7, 43680, Note_on_c, 1, 83, 105
7, 43920, Note_on_c, 1, 83, 0
7, 43920, Note_on_c, 1, 77, 105
7, 44040, Note_on_c, 1, 77, 0
7, 44160, Note_on_c, 1, 76, 105
7, 44400, Note_on_c, 1, 76, 0
7, 44400, Note_on_c, 1, 79, 105
7, 44520, Note_on_c, 1, 79, 0
7, 44640, Note_on_c, 1, 77, 105
7, 44880, Note_on_c, 1, 77, 0
7, 44880, Note_on_c, 1, 81, 105
7, 45000, Note_on_c, 1, 81, 0
7, 45120, Note_on_c, 1, 72, 105
7, 45504, Note_on_c, 1, 72, 0
7, 45600, Note_on_c, 1, 76, 105
7, 45720, Note_on_c, 1, 76, 0
7, 45720, Note_on_c, 1, 74, 105
7, 45840, Note_on_c, 1, 74, 0
7, 45840, Note_on_c, 1, 72, 105
7, 45960, Note_on_c, 1, 72, 0
7, 45960, Note_on_c, 1, 74, 105
7, 46056, Note_on_c, 1, 74, 0
7, 46080, Note_on_c, 1, 72, 92
7, 46464, Note_on_c, 1, 72, 0
7, 47040, Note_on_c, 1, 73, 72
7, 47160, Note_on_c, 1, 73, 0
7, 47160, Note_on_c, 1, 74, 72
7, 47280, Note_on_c, 1, 74, 0
7, 47280, Note_on_c, 1, 77, 72
7, 47400, Note_on_c, 1, 77, 0
7, 47400, Note_on_c, 1, 76, 72
7, 47520, Note_on_c, 1, 76, 0
7, 47520, Note_on_c, 1, 75, 72
7, 47640, Note_on_c, 1, 75, 0
7, 47640, Note_on_c, 1, 76, 72
7, 47760, Note_on_c, 1, 76, 0
7, 47760, Note_on_c, 1, 79, 72
7, 47880, Note_on_c, 1, 79, 0
7, 47880, Note_on_c, 1, 77, 72
7, 47976, Note_on_c, 1, 77, 0
7, 48000, Note_on_c, 1, 77, 72
7, 48384, Note_on_c, 1, 77, 0
7, 48480, Note_on_c, 1, 81, 72
7, 48840, Note_on_c, 1, 81, 0
7, 48840, Note_on_c, 1, 79, 72
7, 48936, Note_on_c, 1, 79, 0
7, 48960, Note_on_c, 1, 79, 72
7, 49344, Note_on_c, 1, 79, 0
7, 49440, Note_on_c, 1, 77, 72
7, 49560, Note_on_c, 1, 77, 0
7, 49560, Note_on_c, 1, 76, 72
7, 49680, Note_on_c, 1, 76, 0
7, 49680, Note_on_c, 1, 74, 72
7, 49800, Note_on_c, 1, 74, 0
7, 49800, Note_on_c, 1, 72, 72
7, 49896, Note_on_c, 1, 72, 0
7, 49920, Note_on_c, 1, 76, 72
7, 50400, Note_on_c, 1, 76, 0
7, 50400, Note_on_c, 1, 74, 58
7, 50592, Note_on_c, 1, 74, 0
7, 50880, Note_on_c, 1, 73, 72
7, 51000, Note_on_c, 1, 73, 0
7, 51000, Note_on_c, 1, 74, 72
7, 51120, Note_on_c, 1, 74, 0
7, 51120, Note_on_c, 1, 77, 72
7, 51240, Note_on_c, 1, 77, 0
7, 51240, Note_on_c, 1, 76, 72
7, 51360, Note_on_c, 1, 76, 0
7, 51360, Note_on_c, 1, 75, 72
7, 51480, Note_on_c, 1, 75, 0
7, 51480, Note_on_c, 1, 76, 72
7, 51600, Note_on_c, 1, 76, 0
7, 51600, Note_on_c, 1, 79, 72
7, 51720, Note_on_c, 1, 79, 0
7, 51720, Note_on_c, 1, 77, 72
7, 51816, Note_on_c, 1, 77, 0
7, 51840, Note_on_c, 1, 77, 72
7, 52224, Note_on_c, 1, 77, 0
7, 52320, Note_on_c, 1, 83, 72
7, 52680, Note_on_c, 1, 83, 0
7, 52680, Note_on_c, 1, 84, 81
7, 52776, Note_on_c, 1, 84, 0
7, 52800, Note_on_c, 1, 84, 92
7, 53184, Note_on_c, 1, 84, 0
7, 53280, Note_on_c, 1, 83, 92
7, 53400, Note_on_c, 1, 83, 0
7, 53400, Note_on_c, 1, 81, 105
7, 53520, Note_on_c, 1, 81, 0
7, 53520, Note_on_c, 1, 79, 105
7, 53640, Note_on_c, 1, 79, 0
7, 53640, Note_on_c, 1, 78, 105
7, 53736, Note_on_c, 1, 78, 0
7, 53760, Note_on_c, 1, 79, 116
7, 53880, Note_on_c, 1, 79, 0
7, 53880, Note_on_c, 1, 81, 116
7, 54000, Note_on_c, 1, 81, 0
7, 54000, Note_on_c, 1, 79, 116
7, 54120, Note_on_c, 1, 79, 0
7, 54120, Note_on_c, 1, 78, 81
7, 54240, Note_on_c, 1, 78, 0
7, 54240, Note_on_c, 1, 79, 81
7, 54360, Note_on_c, 1, 79, 0
7, 54360, Note_on_c, 1, 80, 81
7, 54480, Note_on_c, 1, 80, 0
7, 54480, Note_on_c, 1, 81, 81
7, 54600, Note_on_c, 1, 81, 0
7, 54600, Note_on_c, 1, 77, 72
7, 54720, Note_on_c, 1, 77, 0
7, 54720, Note_on_c, 1, 76, 72
7, 54912, Note_on_c, 1, 76, 0
7, 55200, Note_on_c, 1, 76, 72
7, 55392, Note_on_c, 1, 76, 0
7, 55680, Note_on_c, 1, 76, 72
7, 56400, Note_on_c, 1, 76, 0
7, 56400, Note_on_c, 1, 79, 72
7, 56592, Note_on_c, 1, 79, 0
7, 56640, Note_on_c, 1, 77, 72
7, 56880, Note_on_c, 1, 77, 0
7, 56880, Note_on_c, 1, 74, 72
7, 57120, Note_on_c, 1, 74, 0
7, 57120, Note_on_c, 1, 77, 72
7, 57360, Note_on_c, 1, 77, 0
7, 57360, Note_on_c, 1, 81, 72
7, 57552, Note_on_c, 1, 81, 0
7, 57600, Note_on_c, 1, 79, 72
7, 57960, Note_on_c, 1, 79, 0
7, 57960, Note_on_c, 1, 76, 72
7, 58056, Note_on_c, 1, 76, 0
7, 58080, Note_on_c, 1, 79, 72
7, 58272, Note_on_c, 1, 79, 0
7, 58560, Note_on_c, 1, 79, 105
7, 58800, Note_on_c, 1, 79, 0
7, 58800, Note_on_c, 1, 84, 105
7, 58920, Note_on_c, 1, 84, 0
7, 59040, Note_on_c, 1, 83, 105
7, 59280, Note_on_c, 1, 83, 0
7, 59280, Note_on_c, 1, 77, 105
7, 59400, Note_on_c, 1, 77, 0
7, 59520, Note_on_c, 1, 76, 105
7, 59760, Note_on_c, 1, 76, 0
7, 59760, Note_on_c, 1, 79, 105
7, 59880, Note_on_c, 1, 79, 0
7, 60000, Note_on_c, 1, 77, 105
7, 60240, Note_on_c, 1, 77, 0
7, 60240, Note_on_c, 1, 81, 105
7, 60360, Note_on_c, 1, 81, 0
7, 60480, Note_on_c, 1, 72, 105
7, 60864, Note_on_c, 1, 72, 0
7, 60960, Note_on_c, 1, 76, 105
7, 61080, Note_on_c, 1, 76, 0
7, 61080, Note_on_c, 1, 74, 105
7, 61200, Note_on_c, 1, 74, 0
7, 61200, Note_on_c, 1, 72, 105
7, 61320, Note_on_c, 1, 72, 0
7, 61320, Note_on_c, 1, 74, 105
7, 61416, Note_on_c, 1, 74, 0
7, 61440, Note_on_c, 1, 72, 92
7, 61824, Note_on_c, 1, 72, 0
7, 62400, Note_on_c, 1, 76, 58
7, 62544, Note_on_c, 1, 76, 0
7, 62640, Note_on_c, 1, 76, 72
7, 62784, Note_on_c, 1, 76, 0
7, 62880, Note_on_c, 1, 76, 72
7, 63024, Note_on_c, 1, 76, 0
7, 63120, Note_on_c, 1, 76, 72
7, 63264, Note_on_c, 1, 76, 0
7, 63360, Note_on_c, 1, 76, 72
7, 63600, Note_on_c, 1, 76, 0
7, 63600, Note_on_c, 1, 79, 72
7, 63720, Note_on_c, 1, 79, 0
7, 63720, Note_on_c, 1, 77, 72
7, 63840, Note_on_c, 1, 77, 0
7, 63840, Note_on_c, 1, 76, 72
7, 63960, Note_on_c, 1, 76, 0
7, 63960, Note_on_c, 1, 74, 72
7, 64080, Note_on_c, 1, 74, 0
7, 64080, Note_on_c, 1, 72, 72
7, 64200, Note_on_c, 1, 72, 0
7, 64200, Note_on_c, 1, 71, 72
7, 64296, Note_on_c, 1, 71, 0
7, 64320, Note_on_c, 1, 72, 72
7, 64464, Note_on_c, 1, 72, 0
7, 64560, Note_on_c, 1, 72, 72
7, 64704, Note_on_c, 1, 72, 0
7, 64800, Note_on_c, 1, 72, 72
7, 64944, Note_on_c, 1, 72, 0
7, 65040, Note_on_c, 1, 72, 72
7, 65184, Note_on_c, 1, 72, 0
7, 65280, Note_on_c, 1, 73, 72
7, 65760, Note_on_c, 1, 73, 0
7, 65760, Note_on_c, 1, 74, 58
7, 65952, Note_on_c, 1, 74, 0
7, 66240, Note_on_c, 1, 76, 72
7, 66384, Note_on_c, 1, 76, 0
7, 66480, Note_on_c, 1, 76, 72
7, 66624, Note_on_c, 1, 76, 0
7, 66720, Note_on_c, 1, 78, 72
7, 66864, Note_on_c, 1, 78, 0
7, 66960, Note_on_c, 1, 78, 72
7, 67104, Note_on_c, 1, 78, 0
7, 67200, Note_on_c, 1, 79, 72
7, 67320, Note_on_c, 1, 79, 0
7, 67320, Note_on_c, 1, 83, 72
7, 67440, Note_on_c, 1, 83, 0
7, 67440, Note_on_c, 1, 81, 72
7, 67560, Note_on_c, 1, 81, 0
7, 67560, Note_on_c, 1, 79, 72
7, 67680, Note_on_c, 1, 79, 0
7, 67680, Note_on_c, 1, 78, 72
7, 67800, Note_on_c, 1, 78, 0
7, 67800, Note_on_c, 1, 76, 72
7, 67920, Note_on_c, 1, 76, 0
7, 67920, Note_on_c, 1, 74, 72
7, 68040, Note_on_c, 1, 74, 0
7, 68040, Note_on_c, 1, 73, 72
7, 68136, Note_on_c, 1, 73, 0
7, 68160, Note_on_c, 1, 74, 72
7, 68280, Note_on_c, 1, 74, 0
7, 68280, Note_on_c, 1, 76, 72
7, 68400, Note_on_c, 1, 76, 0
7, 68400, Note_on_c, 1, 74, 72
7, 68520, Note_on_c, 1, 74, 0
7, 68520, Note_on_c, 1, 72, 72
7, 68640, Note_on_c, 1, 72, 0
7, 68640, Note_on_c, 1, 71, 72
7, 68760, Note_on_c, 1, 71, 0
7, 68760, Note_on_c, 1, 69, 72
7, 68880, Note_on_c, 1, 69, 0
7, 68880, Note_on_c, 1, 67, 72
7, 69000, Note_on_c, 1, 67, 0
7, 69000, Note_on_c, 1, 66, 72
7, 69096, Note_on_c, 1, 66, 0
7, 69120, Note_on_c, 1, 69, 72
7, 69600, Note_on_c, 1, 69, 0
7, 69600, Note_on_c, 1, 67, 58
7, 69792, Note_on_c, 1, 67, 0
7, 70080, Note_on_c, 1, 76, 72
7, 70224, Note_on_c, 1, 76, 0
7, 70320, Note_on_c, 1, 76, 72
7, 70464, Note_on_c, 1, 76, 0
7, 70560, Note_on_c, 1, 76, 72
7, 70704, Note_on_c, 1, 76, 0
7, 70800, Note_on_c, 1, 76, 72
7, 70944, Note_on_c, 1, 76, 0
7, 71040, Note_on_c, 1, 76, 72
7, 71280, Note_on_c, 1, 76, 0
7, 71280, Note_on_c, 1, 79, 72
7, 71400, Note_on_c, 1, 79, 0
7, 71400, Note_on_c, 1, 77, 72
7, 71520, Note_on_c, 1, 77, 0
7, 71520, Note_on_c, 1, 76, 72
7, 71640, Note_on_c, 1, 76, 0
7, 71640, Note_on_c, 1, 74, 72
7, 71760, Note_on_c, 1, 74, 0
7, 71760, Note_on_c, 1, 72, 72
7, 71880, Note_on_c, 1, 72, 0
7, 71880, Note_on_c, 1, 71, 72
7, 71976, Note_on_c, 1, 71, 0
7, 72000, Note_on_c, 1, 72, 72
7, 72144, Note_on_c, 1, 72, 0
7, 72240, Note_on_c, 1, 72, 72
7, 72384, Note_on_c, 1, 72, 0
7, 72480, Note_on_c, 1, 72, 72
7, 72624, Note_on_c, 1, 72, 0
7, 72720, Note_on_c, 1, 72, 72
7, 72864, Note_on_c, 1, 72, 0
7, 72960, Note_on_c, 1, 73, 72
7, 73440, Note_on_c, 1, 73, 0
7, 73440, Note_on_c, 1, 74, 58
7, 73632, Note_on_c, 1, 74, 0
7, 73920, Note_on_c, 1, 76, 72
7, 74064, Note_on_c, 1, 76, 0
7, 74160, Note_on_c, 1, 76, 72
7, 74304, Note_on_c, 1, 76, 0
7, 74400, Note_on_c, 1, 78, 72
7, 74544, Note_on_c, 1, 78, 0
7, 74640, Note_on_c, 1, 78, 72
7, 74784, Note_on_c, 1, 78, 0
7, 74880, Note_on_c, 1, 79, 72
7, 75000, Note_on_c, 1, 79, 0
7, 75000, Note_on_c, 1, 83, 72
7, 75120, Note_on_c, 1, 83, 0
7, 75120, Note_on_c, 1, 81, 72
7, 75240, Note_on_c, 1, 81, 0
7, 75240, Note_on_c, 1, 79, 72
7, 75360, Note_on_c, 1, 79, 0
7, 75360, Note_on_c, 1, 78, 72
7, 75480, Note_on_c, 1, 78, 0
7, 75480, Note_on_c, 1, 76, 72
7, 75600, Note_on_c, 1, 76, 0
7, 75600, Note_on_c, 1, 74, 72
7, 75720, Note_on_c, 1, 74, 0
7, 75720, Note_on_c, 1, 73, 72
7, 75816, Note_on_c, 1, 73, 0
7, 75840, Note_on_c, 1, 74, 72
7, 75960, Note_on_c, 1, 74, 0
7, 75960, Note_on_c, 1, 76, 72
7, 76080, Note_on_c, 1, 76, 0
7, 76080, Note_on_c, 1, 74, 72
7, 76200, Note_on_c, 1, 74, 0
7, 76200, Note_on_c, 1, 72, 72
7, 76320, Note_on_c, 1, 72, 0
7, 76320, Note_on_c, 1, 71, 72
7, 76440, Note_on_c, 1, 71, 0
7, 76440, Note_on_c, 1, 69, 72
7, 76560, Note_on_c, 1, 69, 0
7, 76560, Note_on_c, 1, 67, 72
7, 76680, Note_on_c, 1, 67, 0
7, 76680, Note_on_c, 1, 66, 72
7, 76776, Note_on_c, 1, 66, 0
7, 76800, Note_on_c, 1, 69, 72
7, 77280, Note_on_c, 1, 69, 0
7, 77280, Note_on_c, 1, 67, 58
7, 77472, Note_on_c, 1, 67, 0
7, 77760, Note_on_c, 1, 79, 72
7, 77904, Note_on_c, 1, 79, 0
7, 78000, Note_on_c, 1, 79, 72
7, 78144, Note_on_c, 1, 79, 0
7, 78240, Note_on_c, 1, 79, 72
7, 78384, Note_on_c, 1, 79, 0
7, 78480, Note_on_c, 1, 79, 72
7, 78624, Note_on_c, 1, 79, 0
7, 78720, Note_on_c, 1, 79, 72
7, 78840, Note_on_c, 1, 79, 0
7, 78840, Note_on_c, 1, 82, 72
7, 78960, Note_on_c, 1, 82, 0
7, 78960, Note_on_c, 1, 81, 72
7, 79080, Note_on_c, 1, 81, 0
7, 79080, Note_on_c, 1, 79, 72
7, 79200, Note_on_c, 1, 79, 0
7, 79200, Note_on_c, 1, 77, 72
7, 79320, Note_on_c, 1, 77, 0
7, 79320, Note_on_c, 1, 76, 72
7, 79440, Note_on_c, 1, 76, 0
7, 79440, Note_on_c, 1, 74, 72
7, 79560, Note_on_c, 1, 74, 0
7, 79560, Note_on_c, 1, 73, 72
7, 79656, Note_on_c, 1, 73, 0
7, 79680, Note_on_c, 1, 77, 72
7, 79824, Note_on_c, 1, 77, 0
7, 79920, Note_on_c, 1, 77, 72
7, 80064, Note_on_c, 1, 77, 0
7, 80160, Note_on_c, 1, 77, 72
7, 80304, Note_on_c, 1, 77, 0
7, 80400, Note_on_c, 1, 77, 72
7, 80544, Note_on_c, 1, 77, 0
7, 80640, Note_on_c, 1, 77, 72
7, 80760, Note_on_c, 1, 77, 0
7, 80760, Note_on_c, 1, 81, 72
7, 80880, Note_on_c, 1, 81, 0
7, 80880, Note_on_c, 1, 79, 72
7, 81000, Note_on_c, 1, 79, 0
7, 81000, Note_on_c, 1, 77, 72
7, 81120, Note_on_c, 1, 77, 0
7, 81120, Note_on_c, 1, 76, 72
7, 81240, Note_on_c, 1, 76, 0
7, 81240, Note_on_c, 1, 74, 72
7, 81360, Note_on_c, 1, 74, 0
7, 81360, Note_on_c, 1, 72, 72
7, 81480, Note_on_c, 1, 72, 0
7, 81480, Note_on_c, 1, 71, 72
7, 81576, Note_on_c, 1, 71, 0
7, 81600, Note_on_c, 1, 76, 72
7, 81744, Note_on_c, 1, 76, 0
7, 81840, Note_on_c, 1, 76, 72
7, 81984, Note_on_c, 1, 76, 0
7, 82080, Note_on_c, 1, 76, 72
7, 82224, Note_on_c, 1, 76, 0
7, 82320, Note_on_c, 1, 76, 72
7, 82464, Note_on_c, 1, 76, 0
7, 82560, Note_on_c, 1, 76, 72
7, 82680, Note_on_c, 1, 76, 0
7, 82680, Note_on_c, 1, 77, 72
7, 82800, Note_on_c, 1, 77, 0
7, 82800, Note_on_c, 1, 76, 72
7, 82920, Note_on_c, 1, 76, 0
7, 82920, Note_on_c, 1, 75, 72
7, 83040, Note_on_c, 1, 75, 0
7, 83040, Note_on_c, 1, 76, 72
7, 83160, Note_on_c, 1, 76, 0
7, 83160, Note_on_c, 1, 74, 72
7, 83280, Note_on_c, 1, 74, 0
7, 83280, Note_on_c, 1, 72, 72
7, 83400, Note_on_c, 1, 72, 0
7, 83400, Note_on_c, 1, 71, 72
7, 83496, Note_on_c, 1, 71, 0
7, 83520, Note_on_c, 1, 69, 72
7, 83640, Note_on_c, 1, 69, 0
7, 83640, Note_on_c, 1, 71, 72
7, 83760, Note_on_c, 1, 71, 0
7, 83760, Note_on_c, 1, 69, 72
7, 83880, Note_on_c, 1, 69, 0
7, 83880, Note_on_c, 1, 68, 72
7, 84000, Note_on_c, 1, 68, 0
7, 84000, Note_on_c, 1, 69, 72
7, 84120, Note_on_c, 1, 69, 0
7, 84120, Note_on_c, 1, 72, 72
7, 84240, Note_on_c, 1, 72, 0
7, 84240, Note_on_c, 1, 71, 72
7, 84360, Note_on_c, 1, 71, 0
7, 84360, Note_on_c, 1, 69, 72
7, 84456, Note_on_c, 1, 69, 0
7, 84480, Note_on_c, 1, 68, 72
7, 84720, Note_on_c, 1, 68, 0
7, 84720, Note_on_c, 1, 71, 72
7, 84960, Note_on_c, 1, 71, 0
7, 84960, Note_on_c, 1, 76, 72
7, 85536, Note_on_c, 1, 76, 0
7, 85680, Note_on_c, 1, 76, 72
7, 85824, Note_on_c, 1, 76, 0
7, 85920, Note_on_c, 1, 76, 72
7, 86064, Note_on_c, 1, 76, 0
7, 86160, Note_on_c, 1, 76, 72
7, 86304, Note_on_c, 1, 76, 0
7, 86400, Note_on_c, 1, 76, 72
7, 86520, Note_on_c, 1, 76, 0
7, 86520, Note_on_c, 1, 78, 72
7, 86640, Note_on_c, 1, 78, 0
7, 86640, Note_on_c, 1, 76, 72
7, 86760, Note_on_c, 1, 76, 0
7, 86760, Note_on_c, 1, 75, 72
7, 86880, Note_on_c, 1, 75, 0
7, 86880, Note_on_c, 1, 76, 72
7, 87000, Note_on_c, 1, 76, 0
7, 87000, Note_on_c, 1, 78, 72
7, 87120, Note_on_c, 1, 78, 0
7, 87120, Note_on_c, 1, 80, 72
7, 87240, Note_on_c, 1, 80, 0
7, 87240, Note_on_c, 1, 76, 72
7, 87336, Note_on_c, 1, 76, 0
7, 87360, Note_on_c, 1, 81, 72
7, 87480, Note_on_c, 1, 81, 0
7, 87480, Note_on_c, 1, 83, 72
7, 87600, Note_on_c, 1, 83, 0
7, 87600, Note_on_c, 1, 81, 72
7, 87720, Note_on_c, 1, 81, 0
7, 87720, Note_on_c, 1, 80, 72
7, 87840, Note_on_c, 1, 80, 0
7, 87840, Note_on_c, 1, 81, 72
7, 87960, Note_on_c, 1, 81, 0
7, 87960, Note_on_c, 1, 84, 72
7, 88080, Note_on_c, 1, 84, 0
7, 88080, Note_on_c, 1, 83, 72
7, 88200, Note_on_c, 1, 83, 0
7, 88200, Note_on_c, 1, 81, 72
7, 88296, Note_on_c, 1, 81, 0
7, 88320, Note_on_c, 1, 80, 72
7, 88560, Note_on_c, 1, 80, 0
7, 88560, Note_on_c, 1, 83, 72
7, 88704, Note_on_c, 1, 83, 0
7, 88800, Note_on_c, 1, 76, 72
7, 88944, Note_on_c, 1, 76, 0
7, 90000, Note_on_c, 1, 81, 72
7, 90144, Note_on_c, 1, 81, 0
7, 90240, Note_on_c, 1, 80, 72
7, 90480, Note_on_c, 1, 80, 0
7, 90480, Note_on_c, 1, 83, 72
7, 90624, Note_on_c, 1, 83, 0
7, 90720, Note_on_c, 1, 76, 72
7, 90864, Note_on_c, 1, 76, 0
7, 92880, Note_on_c, 1, 81, 72
7, 93024, Note_on_c, 1, 81, 0
7, 93120, Note_on_c, 1, 80, 72
7, 93360, Note_on_c, 1, 80, 0
7, 93360, Note_on_c, 1, 83, 72
7, 93504, Note_on_c, 1, 83, 0
7, 93600, Note_on_c, 1, 76, 72
7, 93744, Note_on_c, 1, 76, 0
7, 93840, Note_on_c, 1, 78, 72
7, 93984, Note_on_c, 1, 78, 0
7, 94080, Note_on_c, 1, 79, 72
7, 94848, Note_on_c, 1, 79, 0
7, 95040, Note_on_c, 1, 78, 72
7, 95280, Note_on_c, 1, 78, 0
7, 95280, Note_on_c, 1, 81, 72
7, 95424, Note_on_c, 1, 81, 0
7, 95520, Note_on_c, 1, 74, 72
7, 95664, Note_on_c, 1, 74, 0
7, 95760, Note_on_c, 1, 76, 72
7, 95904, Note_on_c, 1, 76, 0
7, 96000, Note_on_c, 1, 77, 72
7, 96960, Note_on_c, 1, 77, 0
7, 96960, Note_on_c, 1, 76, 72
7, 97152, Note_on_c, 1, 76, 0
7, 97440, Note_on_c, 1, 76, 72
7, 97632, Note_on_c, 1, 76, 0
7, 97920, Note_on_c, 1, 76, 72
7, 98640, Note_on_c, 1, 76, 0
7, 98640, Note_on_c, 1, 79, 72
7, 98832, Note_on_c, 1, 79, 0
7, 98880, Note_on_c, 1, 77, 72
7, 99120, Note_on_c, 1, 77, 0
7, 99120, Note_on_c, 1, 74, 72
7, 99360, Note_on_c, 1, 74, 0
7, 99360, Note_on_c, 1, 77, 72
7, 99600, Note_on_c, 1, 77, 0
7, 99600, Note_on_c, 1, 81, 72
7, 99792, Note_on_c, 1, 81, 0
7, 99840, Note_on_c, 1, 79, 72
7, 100200, Note_on_c, 1, 79, 0
7, 100200, Note_on_c, 1, 76, 72
7, 100296, Note_on_c, 1, 76, 0
7, 100320, Note_on_c, 1, 79, 72
7, 100512, Note_on_c, 1, 79, 0
7, 100800, Note_on_c, 1, 84, 72
7, 100944, Note_on_c, 1, 84, 0
7, 101040, Note_on_c, 1, 84, 72
7, 101520, Note_on_c, 1, 84, 0
7, 101520, Note_on_c, 1, 83, 72
7, 101712, Note_on_c, 1, 83, 0
7, 101760, Note_on_c, 1, 81, 72
7, 101904, Note_on_c, 1, 81, 0
7, 102000, Note_on_c, 1, 81, 72
7, 102480, Note_on_c, 1, 81, 0
7, 102480, Note_on_c, 1, 79, 72
7, 102672, Note_on_c, 1, 79, 0
7, 102720, Note_on_c, 1, 79, 72
7, 102960, Note_on_c, 1, 79, 0
7, 102960, Note_on_c, 1, 77, 72
7, 103080, Note_on_c, 1, 77, 0
7, 103200, Note_on_c, 1, 77, 72
7, 103440, Note_on_c, 1, 77, 0
7, 103440, Note_on_c, 1, 76, 72
7, 103560, Note_on_c, 1, 76, 0
7, 103680, Note_on_c, 1, 79, 72
7, 104040, Note_on_c, 1, 79, 0
7, 104040, Note_on_c, 1, 76, 72
7, 104136, Note_on_c, 1, 76, 0
7, 104160, Note_on_c, 1, 74, 72
7, 104352, Note_on_c, 1, 74, 0
7, 104640, Note_on_c, 1, 76, 105
7, 104832, Note_on_c, 1, 76, 0
7, 105120, Note_on_c, 1, 76, 105
7, 105312, Note_on_c, 1, 76, 0
7, 105600, Note_on_c, 1, 76, 105
7, 106320, Note_on_c, 1, 76, 0
7, 106320, Note_on_c, 1, 79, 105
7, 106512, Note_on_c, 1, 79, 0
7, 106560, Note_on_c, 1, 77, 105
7, 106800, Note_on_c, 1, 77, 0
7, 106800, Note_on_c, 1, 74, 105
7, 107040, Note_on_c, 1, 74, 0
7, 107040, Note_on_c, 1, 77, 105
7, 107280, Note_on_c, 1, 77, 0
7, 107280, Note_on_c, 1, 81, 105
7, 107472, Note_on_c, 1, 81, 0
7, 107520, Note_on_c, 1, 79, 105
7, 107880, Note_on_c, 1, 79, 0
7, 107880, Note_on_c, 1, 76, 105
7, 107976, Note_on_c, 1, 76, 0
7, 108000, Note_on_c, 1, 79, 105
7, 108192, Note_on_c, 1, 79, 0
7, 108480, Note_on_c, 1, 84, 125
7, 108720, Note_on_c, 1, 84, 0
7, 108720, Note_on_c, 1, 79, 105
7, 108840, Note_on_c, 1, 79, 0
7, 108960, Note_on_c, 1, 79, 125
7, 109200, Note_on_c, 1, 79, 0
7, 109200, Note_on_c, 1, 76, 105
7, 109320, Note_on_c, 1, 76, 0
7, 109440, Note_on_c, 1, 74, 125
7, 109680, Note_on_c, 1, 74, 0
7, 109680, Note_on_c, 1, 81, 105
7, 109872, Note_on_c, 1, 81, 0
7, 109920, Note_on_c, 1, 79, 105
7, 110040, Note_on_c, 1, 79, 0
7, 110040, Note_on_c, 1, 77, 105
7, 110160, Note_on_c, 1, 77, 0
7, 110160, Note_on_c, 1, 76, 105
7, 110280, Note_on_c, 1, 76, 0
7, 110280, Note_on_c, 1, 74, 105
7, 110376, Note_on_c, 1, 74, 0
7, 110400, Note_on_c, 1, 72, 105
7, 110784, Note_on_c, 1, 72, 0
7, 110880, Note_on_c, 1, 76, 105
7, 111000, Note_on_c, 1, 76, 0
7, 111000, Note_on_c, 1, 74, 105
7, 111120, Note_on_c, 1, 74, 0
7, 111120, Note_on_c, 1, 72, 105
7, 111240, Note_on_c, 1, 72, 0
7, 111240, Note_on_c, 1, 74, 105
7, 111336, Note_on_c, 1, 74, 0
7, 111360, Note_on_c, 1, 72, 105
7, 111744, Note_on_c, 1, 72, 0
7, 112800, Note_on_c, 1, 79, 72
7, 112944, Note_on_c, 1, 79, 0
7, 113040, Note_on_c, 1, 71, 72
7, 113080, Note_on_c, 1, 71, 0
7, 113080, Note_on_c, 1, 72, 72
7, 113120, Note_on_c, 1, 72, 0
7, 113120, Note_on_c, 1, 71, 72
7, 113160, Note_on_c, 1, 71, 0
7, 113160, Note_on_c, 1, 69, 72
7, 113220, Note_on_c, 1, 69, 0
7, 113220, Note_on_c, 1, 71, 72
7, 113280, Note_on_c, 1, 71, 0
7, 113280, Note_on_c, 1, 72, 72
7, 113472, Note_on_c, 1, 72, 0
7, 114720, Note_on_c, 1, 79, 72
7, 114864, Note_on_c, 1, 79, 0
7, 114960, Note_on_c, 1, 71, 72
7, 115000, Note_on_c, 1, 71, 0
7, 115000, Note_on_c, 1, 72, 72
7, 115040, Note_on_c, 1, 72, 0
7, 115040, Note_on_c, 1, 71, 72
7, 115080, Note_on_c, 1, 71, 0
7, 115080, Note_on_c, 1, 69, 72
7, 115140, Note_on_c, 1, 69, 0
7, 115140, Note_on_c, 1, 71, 72
7, 115200, Note_on_c, 1, 71, 0
7, 115200, Note_on_c, 1, 72, 72
7, 115392, Note_on_c, 1, 72, 0
7, 116640, Note_on_c, 1, 79, 72
7, 116784, Note_on_c, 1, 79, 0
7, 116880, Note_on_c, 1, 72, 72
7, 116920, Note_on_c, 1, 72, 0
7, 116920, Note_on_c, 1, 74, 72
7, 116960, Note_on_c, 1, 74, 0
7, 116960, Note_on_c, 1, 72, 72
7, 117000, Note_on_c, 1, 72, 0
7, 117000, Note_on_c, 1, 71, 72
7, 117060, Note_on_c, 1, 71, 0
7, 117060, Note_on_c, 1, 72, 72
7, 117120, Note_on_c, 1, 72, 0
7, 117120, Note_on_c, 1, 80, 101
7, 117696, Note_on_c, 1, 80, 0
7, 117840, Note_on_c, 1, 79, 72
7, 117880, Note_on_c, 1, 79, 0
7, 117880, Note_on_c, 1, 80, 72
7, 117920, Note_on_c, 1, 80, 0
7, 117920, Note_on_c, 1, 79, 72
7, 117960, Note_on_c, 1, 79, 0
7, 117960, Note_on_c, 1, 77, 72
7, 118020, Note_on_c, 1, 77, 0
7, 118020, Note_on_c, 1, 79, 72
7, 118080, Note_on_c, 1, 79, 0
7, 118080, Note_on_c, 1, 77, 72
7, 118224, Note_on_c, 1, 77, 0
7, 118320, Note_on_c, 1, 77, 72
7, 118464, Note_on_c, 1, 77, 0
7, 118560, Note_on_c, 1, 74, 72
7, 118704, Note_on_c, 1, 74, 0
7, 118800, Note_on_c, 1, 74, 72
7, 118944, Note_on_c, 1, 74, 0
7, 119040, Note_on_c, 1, 75, 72
7, 119232, Note_on_c, 1, 75, 0
7, 120480, Note_on_c, 1, 79, 72
7, 120624, Note_on_c, 1, 79, 0
7, 120720, Note_on_c, 1, 71, 72
7, 120760, Note_on_c, 1, 71, 0
7, 120760, Note_on_c, 1, 72, 72
7, 120800, Note_on_c, 1, 72, 0
7, 120800, Note_on_c, 1, 71, 72
7, 120840, Note_on_c, 1, 71, 0
7, 120840, Note_on_c, 1, 69, 72
7, 120900, Note_on_c, 1, 69, 0
7, 120900, Note_on_c, 1, 71, 72
7, 120960, Note_on_c, 1, 71, 0
7, 120960, Note_on_c, 1, 72, 72
7, 121152, Note_on_c, 1, 72, 0
7, 122400, Note_on_c, 1, 79, 72
7, 122544, Note_on_c, 1, 79, 0
7, 122640, Note_on_c, 1, 71, 72
7, 122680, Note_on_c, 1, 71, 0
7, 122680, Note_on_c, 1, 72, 72
7, 122720, Note_on_c, 1, 72, 0
7, 122720, Note_on_c, 1, 71, 72
7, 122760, Note_on_c, 1, 71, 0
7, 122760, Note_on_c, 1, 69, 72
7, 122820, Note_on_c, 1, 69, 0
7, 122820, Note_on_c, 1, 71, 72
7, 122880, Note_on_c, 1, 71, 0
7, 122880, Note_on_c, 1, 72, 72
7, 123072, Note_on_c, 1, 72, 0
7, 124320, Note_on_c, 1, 79, 72
7, 124464, Note_on_c, 1, 79, 0
7, 124560, Note_on_c, 1, 72, 72
7, 124600, Note_on_c, 1, 72, 0
7, 124600, Note_on_c, 1, 74, 72
7, 124640, Note_on_c, 1, 74, 0
7, 124640, Note_on_c, 1, 72, 72
7, 124680, Note_on_c, 1, 72, 0
7, 124680, Note_on_c, 1, 71, 72
7, 124740, Note_on_c, 1, 71, 0
7, 124740, Note_on_c, 1, 72, 72
7, 124800, Note_on_c, 1, 72, 0
7, 124800, Note_on_c, 1, 80, 101
7, 125376, Note_on_c, 1, 80, 0
7, 125520, Note_on_c, 1, 79, 72
7, 125560, Note_on_c, 1, 79, 0
7, 125560, Note_on_c, 1, 80, 72
7, 125600, Note_on_c, 1, 80, 0
7, 125600, Note_on_c, 1, 79, 72
7, 125640, Note_on_c, 1, 79, 0
7, 125640, Note_on_c, 1, 77, 72
7, 125700, Note_on_c, 1, 77, 0
7, 125700, Note_on_c, 1, 79, 72
7, 125760, Note_on_c, 1, 79, 0
7, 125760, Note_on_c, 1, 77, 72
7, 125904, Note_on_c, 1, 77, 0
7, 126000, Note_on_c, 1, 77, 72
7, 126144, Note_on_c, 1, 77, 0
7, 126240, Note_on_c, 1, 74, 72
7, 126384, Note_on_c, 1, 74, 0
7, 126480, Note_on_c, 1, 74, 72
7, 126624, Note_on_c, 1, 74, 0
7, 126720, Note_on_c, 1, 75, 72
7, 126912, Note_on_c, 1, 75, 0
7, 128160, Note_on_c, 1, 82, 72
7, 128304, Note_on_c, 1, 82, 0
7, 128400, Note_on_c, 1, 74, 72
7, 128440, Note_on_c, 1, 74, 0
7, 128440, Note_on_c, 1, 75, 72
7, 128480, Note_on_c, 1, 75, 0
7, 128480, Note_on_c, 1, 74, 72
7, 128520, Note_on_c, 1, 74, 0
7, 128520, Note_on_c, 1, 72, 72
7, 128580, Note_on_c, 1, 72, 0
7, 128580, Note_on_c, 1, 74, 72
7, 128640, Note_on_c, 1, 74, 0
7, 128640, Note_on_c, 1, 75, 72
7, 128832, Note_on_c, 1, 75, 0
7, 130080, Note_on_c, 1, 84, 72
7, 130224, Note_on_c, 1, 84, 0
7, 130320, Note_on_c, 1, 76, 72
7, 130360, Note_on_c, 1, 76, 0
7, 130360, Note_on_c, 1, 77, 72
7, 130400, Note_on_c, 1, 77, 0
7, 130400, Note_on_c, 1, 76, 72
7, 130440, Note_on_c, 1, 76, 0
7, 130440, Note_on_c, 1, 74, 72
7, 130500, Note_on_c, 1, 74, 0
7, 130500, Note_on_c, 1, 76, 72
7, 130560, Note_on_c, 1, 76, 0
7, 130560, Note_on_c, 1, 77, 72
7, 130752, Note_on_c, 1, 77, 0
7, 132000, Note_on_c, 1, 86, 72
7, 132144, Note_on_c, 1, 86, 0
7, 132240, Note_on_c, 1, 78, 72
7, 132280, Note_on_c, 1, 78, 0
7, 132280, Note_on_c, 1, 79, 72
7, 132320, Note_on_c, 1, 79, 0
7, 132320, Note_on_c, 1, 78, 72
7, 132360, Note_on_c, 1, 78, 0
7, 132360, Note_on_c, 1, 76, 72
7, 132420, Note_on_c, 1, 76, 0
7, 132420, Note_on_c, 1, 78, 72
7, 132480, Note_on_c, 1, 78, 0
7, 132480, Note_on_c, 1, 79, 72
7, 132624, Note_on_c, 1, 79, 0
7, 132720, Note_on_c, 1, 80, 72
7, 132760, Note_on_c, 1, 80, 0
7, 132760, Note_on_c, 1, 82, 72
7, 132800, Note_on_c, 1, 82, 0
7, 132800, Note_on_c, 1, 80, 72
7, 132840, Note_on_c, 1, 80, 0
7, 132840, Note_on_c, 1, 79, 72
7, 132900, Note_on_c, 1, 79, 0
7, 132900, Note_on_c, 1, 80, 72
7, 132960, Note_on_c, 1, 80, 0
7, 132960, Note_on_c, 1, 79, 72
7, 133104, Note_on_c, 1, 79, 0
7, 133200, Note_on_c, 1, 77, 72
7, 133240, Note_on_c, 1, 77, 0
7, 133240, Note_on_c, 1, 79, 72
7, 133280, Note_on_c, 1, 79, 0
7, 133280, Note_on_c, 1, 77, 72
7, 133320, Note_on_c, 1, 77, 0
7, 133320, Note_on_c, 1, 75, 72
7, 133380, Note_on_c, 1, 75, 0
7, 133380, Note_on_c, 1, 77, 72
7, 133440, Note_on_c, 1, 77, 0
7, 133440, Note_on_c, 1, 75, 72
7, 133584, Note_on_c, 1, 75, 0
7, 133680, Note_on_c, 1, 71, 72
7, 133720, Note_on_c, 1, 71, 0
7, 133720, Note_on_c, 1, 72, 72
7, 133760, Note_on_c, 1, 72, 0
7, 133760, Note_on_c, 1, 71, 72
7, 133800, Note_on_c, 1, 71, 0
7, 133800, Note_on_c, 1, 69, 72
7, 133860, Note_on_c, 1, 69, 0
7, 133860, Note_on_c, 1, 71, 72
7, 133920, Note_on_c, 1, 71, 0
7, 133920, Note_on_c, 1, 72, 72
7, 134064, Note_on_c, 1, 72, 0
7, 134160, Note_on_c, 1, 75, 72
7, 134200, Note_on_c, 1, 75, 0
7, 134200, Note_on_c, 1, 77, 72
7, 134240, Note_on_c, 1, 77, 0
7, 134240, Note_on_c, 1, 75, 72
7, 134280, Note_on_c, 1, 75, 0
7, 134280, Note_on_c, 1, 74, 72
7, 134340, Note_on_c, 1, 74, 0
7, 134340, Note_on_c, 1, 75, 72
7, 134400, Note_on_c, 1, 75, 0
7, 134400, Note_on_c, 1, 74, 72
7, 134592, Note_on_c, 1, 74, 0
7, 136800, Note_on_c, 1, 84, 72
7, 136944, Note_on_c, 1, 84, 0
7, 137040, Note_on_c, 1, 78, 72
7, 137080, Note_on_c, 1, 78, 0
7, 137080, Note_on_c, 1, 79, 72
7, 137120, Note_on_c, 1, 79, 0
7, 137120, Note_on_c, 1, 78, 72
7, 137160, Note_on_c, 1, 78, 0
7, 137160, Note_on_c, 1, 76, 72
7, 137220, Note_on_c, 1, 76, 0
7, 137220, Note_on_c, 1, 78, 72
7, 137280, Note_on_c, 1, 78, 0
7, 137280, Note_on_c, 1, 79, 72
7, 137472, Note_on_c, 1, 79, 0
7, 137760, Note_on_c, 1, 84, 72
7, 137904, Note_on_c, 1, 84, 0
7, 138000, Note_on_c, 1, 78, 72
7, 138040, Note_on_c, 1, 78, 0
7, 138040, Note_on_c, 1, 79, 72
7, 138080, Note_on_c, 1, 79, 0
7, 138080, Note_on_c, 1, 78, 72
7, 138120, Note_on_c, 1, 78, 0
7, 138120, Note_on_c, 1, 76, 72
7, 138180, Note_on_c, 1, 76, 0
7, 138180, Note_on_c, 1, 78, 72
7, 138240, Note_on_c, 1, 78, 0
7, 138240, Note_on_c, 1, 79, 72
7, 138432, Note_on_c, 1, 79, 0
7, 138720, Note_on_c, 1, 84, 72
7, 138864, Note_on_c, 1, 84, 0
7, 138960, Note_on_c, 1, 78, 72
7, 139000, Note_on_c, 1, 78, 0
7, 139000, Note_on_c, 1, 79, 72
7, 139040, Note_on_c, 1, 79, 0
7, 139040, Note_on_c, 1, 78, 72
7, 139080, Note_on_c, 1, 78, 0
7, 139080, Note_on_c, 1, 76, 72
7, 139140, Note_on_c, 1, 76, 0
7, 139140, Note_on_c, 1, 78, 72
7, 139200, Note_on_c, 1, 78, 0
7, 139200, Note_on_c, 1, 79, 72
7, 139392, Note_on_c, 1, 79, 0
7, 139680, Note_on_c, 1, 84, 72
7, 139824, Note_on_c, 1, 84, 0
7, 139920, Note_on_c, 1, 78, 72
7, 139960, Note_on_c, 1, 78, 0
7, 139960, Note_on_c, 1, 79, 72
7, 140000, Note_on_c, 1, 79, 0
7, 140000, Note_on_c, 1, 78, 72
7, 140040, Note_on_c, 1, 78, 0
7, 140040, Note_on_c, 1, 76, 72
7, 140100, Note_on_c, 1, 76, 0
7, 140100, Note_on_c, 1, 78, 72
7, 140160, Note_on_c, 1, 78, 0
7, 140160, Note_on_c, 1, 79, 72
7, 140352, Note_on_c, 1, 79, 0
7, 141120, Note_on_c, 1, 78, 72
7, 141312, Note_on_c, 1, 78, 0
7, 142080, Note_on_c, 1, 77, 72
7, 142272, Note_on_c, 1, 77, 0
7, 143040, Note_on_c, 1, 76, 72
7, 143232, Note_on_c, 1, 76, 0
7, 143520, Note_on_c, 1, 76, 72
7, 143712, Note_on_c, 1, 76, 0
7, 144000, Note_on_c, 1, 76, 72
7, 144720, Note_on_c, 1, 76, 0
7, 144720, Note_on_c, 1, 79, 72
7, 144912, Note_on_c, 1, 79, 0
7, 144960, Note_on_c, 1, 77, 72
7, 145200, Note_on_c, 1, 77, 0
7, 145200, Note_on_c, 1, 74, 72
7, 145440, Note_on_c, 1, 74, 0
7, 145440, Note_on_c, 1, 77, 72
7, 145680, Note_on_c, 1, 77, 0
7, 145680, Note_on_c, 1, 81, 72
7, 145872, Note_on_c, 1, 81, 0
7, 145920, Note_on_c, 1, 79, 72
7, 146280, Note_on_c, 1, 79, 0
7, 146280, Note_on_c, 1, 76, 72
7, 146376, Note_on_c, 1, 76, 0
7, 146400, Note_on_c, 1, 79, 72
7, 146592, Note_on_c, 1, 79, 0
7, 146880, Note_on_c, 1, 84, 72
7, 147024, Note_on_c, 1, 84, 0
7, 147120, Note_on_c, 1, 84, 72
7, 147600, Note_on_c, 1, 84, 0
7, 147600, Note_on_c, 1, 83, 72
7, 147792, Note_on_c, 1, 83, 0
7, 147840, Note_on_c, 1, 81, 72
7, 147984, Note_on_c, 1, 81, 0
7, 148080, Note_on_c, 1, 81, 72
7, 148560, Note_on_c, 1, 81, 0
7, 148560, Note_on_c, 1, 79, 72
7, 148752, Note_on_c, 1, 79, 0
7, 148800, Note_on_c, 1, 79, 72
7, 149040, Note_on_c, 1, 79, 0
7, 149040, Note_on_c, 1, 77, 72
7, 149160, Note_on_c, 1, 77, 0
7, 149280, Note_on_c, 1, 77, 72
7, 149520, Note_on_c, 1, 77, 0
7, 149520, Note_on_c, 1, 76, 72
7, 149640, Note_on_c, 1, 76, 0
7, 149760, Note_on_c, 1, 79, 72
7, 150120, Note_on_c, 1, 79, 0
7, 150120, Note_on_c, 1, 76, 72
7, 150216, Note_on_c, 1, 76, 0
7, 150240, Note_on_c, 1, 74, 72
7, 150432, Note_on_c, 1, 74, 0
7, 150720, Note_on_c, 1, 76, 105
7, 150912, Note_on_c, 1, 76, 0
7, 151200, Note_on_c, 1, 76, 105
7, 151392, Note_on_c, 1, 76, 0
7, 151680, Note_on_c, 1, 76, 105
7, 152400, Note_on_c, 1, 76, 0
7, 152400, Note_on_c, 1, 79, 105
7, 152592, Note_on_c, 1, 79, 0
7, 152640, Note_on_c, 1, 77, 105
7, 152880, Note_on_c, 1, 77, 0
7, 152880, Note_on_c, 1, 74, 105
7, 153120, Note_on_c, 1, 74, 0
7, 153120, Note_on_c, 1, 77, 105
7, 153360, Note_on_c, 1, 77, 0
7, 153360, Note_on_c, 1, 81, 105
7, 153552, Note_on_c, 1, 81, 0
7, 153600, Note_on_c, 1, 79, 105
7, 153960, Note_on_c, 1, 79, 0
7, 153960, Note_on_c, 1, 76, 105
7, 154056, Note_on_c, 1, 76, 0
7, 154080, Note_on_c, 1, 79, 92
7, 154272, Note_on_c, 1, 79, 0
7, 154560, Note_on_c, 1, 84, 125
7, 154800, Note_on_c, 1, 84, 0
7, 154800, Note_on_c, 1, 79, 105
7, 154920, Note_on_c, 1, 79, 0
7, 155040, Note_on_c, 1, 79, 125
7, 155280, Note_on_c, 1, 79, 0
7, 155280, Note_on_c, 1, 76, 105
7, 155400, Note_on_c, 1, 76, 0
7, 155520, Note_on_c, 1, 74, 125
7, 155760, Note_on_c, 1, 74, 0
7, 155760, Note_on_c, 1, 81, 105
7, 155952, Note_on_c, 1, 81, 0
7, 156000, Note_on_c, 1, 79, 105
7, 156120, Note_on_c, 1, 79, 0
7, 156120, Note_on_c, 1, 77, 105
7, 156240, Note_on_c, 1, 77, 0
7, 156240, Note_on_c, 1, 76, 105
7, 156360, Note_on_c, 1, 76, 0
7, 156360, Note_on_c, 1, 74, 105
7, 156456, Note_on_c, 1, 74, 0
7, 156480, Note_on_c, 1, 72, 105
7, 156864, Note_on_c, 1, 72, 0
7, 156960, Note_on_c, 1, 76, 105
7, 157080, Note_on_c, 1, 76, 0
7, 157080, Note_on_c, 1, 74, 105
7, 157200, Note_on_c, 1, 74, 0
7, 157200, Note_on_c, 1, 72, 105
7, 157320, Note_on_c, 1, 72, 0
7, 157320, Note_on_c, 1, 74, 105
7, 157416, Note_on_c, 1, 74, 0
7, 157440, Note_on_c, 1, 72, 92
7, 157824, Note_on_c, 1, 72, 0
7, 158400, Note_on_c, 1, 73, 72
7, 158520, Note_on_c, 1, 73, 0
7, 158520, Note_on_c, 1, 74, 72
7, 158640, Note_on_c, 1, 74, 0
7, 158640, Note_on_c, 1, 77, 72
7, 158760, Note_on_c, 1, 77, 0
7, 158760, Note_on_c, 1, 76, 72
7, 158880, Note_on_c, 1, 76, 0
7, 158880, Note_on_c, 1, 75, 72
7, 159000, Note_on_c, 1, 75, 0
7, 159000, Note_on_c, 1, 76, 72
7, 159120, Note_on_c, 1, 76, 0
7, 159120, Note_on_c, 1, 79, 72
7, 159240, Note_on_c, 1, 79, 0
7, 159240, Note_on_c, 1, 77, 72
7, 159336, Note_on_c, 1, 77, 0
7, 159360, Note_on_c, 1, 77, 72
7, 159744, Note_on_c, 1, 77, 0
7, 159840, Note_on_c, 1, 81, 72
7, 160200, Note_on_c, 1, 81, 0
7, 160200, Note_on_c, 1, 79, 72
7, 160296, Note_on_c, 1, 79, 0
7, 160320, Note_on_c, 1, 79, 72
7, 160704, Note_on_c, 1, 79, 0
7, 160800, Note_on_c, 1, 77, 72
7, 160920, Note_on_c, 1, 77, 0
7, 160920, Note_on_c, 1, 76, 72
7, 161040, Note_on_c, 1, 76, 0
7, 161040, Note_on_c, 1, 74, 72
7, 161160, Note_on_c, 1, 74, 0
7, 161160, Note_on_c, 1, 72, 72
7, 161256, Note_on_c, 1, 72, 0
7, 161280, Note_on_c, 1, 76, 72
7, 161760, Note_on_c, 1, 76, 0
7, 161760, Note_on_c, 1, 74, 72
7, 161952, Note_on_c, 1, 74, 0
7, 162240, Note_on_c, 1, 73, 58
7, 162360, Note_on_c, 1, 73, 0
7, 162360, Note_on_c, 1, 74, 72
7, 162480, Note_on_c, 1, 74, 0
7, 162480, Note_on_c, 1, 77, 72
7, 162600, Note_on_c, 1, 77, 0
7, 162600, Note_on_c, 1, 76, 72
7, 162720, Note_on_c, 1, 76, 0
7, 162720, Note_on_c, 1, 75, 72
7, 162840, Note_on_c, 1, 75, 0
7, 162840, Note_on_c, 1, 76, 72
7, 162960, Note_on_c, 1, 76, 0
7, 162960, Note_on_c, 1, 79, 72
7, 163080, Note_on_c, 1, 79, 0
7, 163080, Note_on_c, 1, 77, 72
7, 163176, Note_on_c, 1, 77, 0
7, 163200, Note_on_c, 1, 77, 72
7, 163584, Note_on_c, 1, 77, 0
7, 163680, Note_on_c, 1, 83, 81
7, 164040, Note_on_c, 1, 83, 0
7, 164040, Note_on_c, 1, 84, 81
7, 164136, Note_on_c, 1, 84, 0
7, 164160, Note_on_c, 1, 84, 92
7, 164544, Note_on_c, 1, 84, 0
7, 164640, Note_on_c, 1, 83, 105
7, 164760, Note_on_c, 1, 83, 0
7, 164760, Note_on_c, 1, 81, 105
7, 164880, Note_on_c, 1, 81, 0
7, 164880, Note_on_c, 1, 79, 105
7, 165000, Note_on_c, 1, 79, 0
7, 165000, Note_on_c, 1, 78, 105
7, 165096, Note_on_c, 1, 78, 0
7, 165120, Note_on_c, 1, 79, 116
7, 165240, Note_on_c, 1, 79, 0
7, 165240, Note_on_c, 1, 81, 116
7, 165360, Note_on_c, 1, 81, 0
7, 165360, Note_on_c, 1, 79, 116
7, 165480, Note_on_c, 1, 79, 0
7, 165480, Note_on_c, 1, 78, 116
7, 165600, Note_on_c, 1, 78, 0
7, 165600, Note_on_c, 1, 79, 81
7, 165720, Note_on_c, 1, 79, 0
7, 165720, Note_on_c, 1, 80, 81
7, 165840, Note_on_c, 1, 80, 0
7, 165840, Note_on_c, 1, 81, 81
7, 165960, Note_on_c, 1, 81, 0
7, 165960, Note_on_c, 1, 77, 81
7, 166080, Note_on_c, 1, 77, 0
7, 166080, Note_on_c, 1, 76, 72
7, 166272, Note_on_c, 1, 76, 0
7, 166560, Note_on_c, 1, 76, 72
7, 166752, Note_on_c, 1, 76, 0
7, 167040, Note_on_c, 1, 76, 72
7, 167760, Note_on_c, 1, 76, 0
7, 167760, Note_on_c, 1, 79, 72
7, 167952, Note_on_c, 1, 79, 0
7, 168000, Note_on_c, 1, 77, 72
7, 168240, Note_on_c, 1, 77, 0
7, 168240, Note_on_c, 1, 74, 72
7, 168480, Note_on_c, 1, 74, 0
7, 168480, Note_on_c, 1, 77, 72
7, 168720, Note_on_c, 1, 77, 0
7, 168720, Note_on_c, 1, 81, 72
7, 168912, Note_on_c, 1, 81, 0
7, 168960, Note_on_c, 1, 79, 72
7, 169320, Note_on_c, 1, 79, 0
7, 169320, Note_on_c, 1, 76, 72
7, 169416, Note_on_c, 1, 76, 0
7, 169440, Note_on_c, 1, 79, 72
7, 169632, Note_on_c, 1, 79, 0
7, 169920, Note_on_c, 1, 79, 105
7, 170160, Note_on_c, 1, 79, 0
7, 170160, Note_on_c, 1, 84, 105
7, 170280, Note_on_c, 1, 84, 0
7, 170400, Note_on_c, 1, 83, 105
7, 170640, Note_on_c, 1, 83, 0
7, 170640, Note_on_c, 1, 77, 105
7, 170760, Note_on_c, 1, 77, 0
7, 170880, Note_on_c, 1, 76, 105
7, 171120, Note_on_c, 1, 76, 0
7, 171120, Note_on_c, 1, 79, 105
7, 171240, Note_on_c, 1, 79, 0
7, 171360, Note_on_c, 1, 77, 105
7, 171600, Note_on_c, 1, 77, 0
7, 171600, Note_on_c, 1, 81, 105
7, 171720, Note_on_c, 1, 81, 0
7, 171840, Note_on_c, 1, 72, 105
7, 172224, Note_on_c, 1, 72, 0
7, 172320, Note_on_c, 1, 76, 105
7, 172440, Note_on_c, 1, 76, 0
7, 172440, Note_on_c, 1, 74, 105
7, 172560, Note_on_c, 1, 74, 0
7, 172560, Note_on_c, 1, 72, 105
7, 172680, Note_on_c, 1, 72, 0
7, 172680, Note_on_c, 1, 74, 105
7, 172776, Note_on_c, 1, 74, 0
7, 172800, Note_on_c, 1, 72, 92
7, 173184, Note_on_c, 1, 72, 0
7, 173760, Note_on_c, 1, 82, 112
7, 173760, Note_on_c, 1, 72, 92
7, 173760, Note_on_c, 1, 64, 92
7, 174144, Note_on_c, 1, 64, 0
7, 174144, Note_on_c, 1, 72, 0
7, 174144, Note_on_c, 1, 82, 0
7, 174720, Note_on_c, 1, 81, 112
7, 174720, Note_on_c, 1, 65, 92
7, 174720, Note_on_c, 1, 72, 92
7, 175104, Note_on_c, 1, 72, 0
7, 175104, Note_on_c, 1, 65, 0
7, 175104, Note_on_c, 1, 81, 0
7, 175680, Note_on_c, 1, 84, 112
7, 175680, Note_on_c, 1, 74, 92
7, 175680, Note_on_c, 1, 62, 92
7, 176064, Note_on_c, 1, 62, 0
7, 176064, Note_on_c, 1, 74, 0
7, 176064, Note_on_c, 1, 84, 0
7, 176640, Note_on_c, 1, 72, 72
7, 177360, Note_on_c, 1, 72, 0
7, 177360, Note_on_c, 1, 74, 72
7, 177420, Note_on_c, 1, 74, 0
7, 177420, Note_on_c, 1, 72, 72
7, 177480, Note_on_c, 1, 72, 0
7, 177480, Note_on_c, 1, 71, 72
7, 177540, Note_on_c, 1, 71, 0
7, 177540, Note_on_c, 1, 72, 72
7, 177600, Note_on_c, 1, 72, 0
7, 177600, Note_on_c, 1, 76, 72
7, 178080, Note_on_c, 1, 76, 0
7, 178080, Note_on_c, 1, 74, 72
7, 178440, Note_on_c, 1, 74, 0
7, 178440, Note_on_c, 1, 72, 72
7, 178554, Note_on_c, 1, 72, 0
7, 178560, Note_on_c, 1, 72, 58
7, 178944, Note_on_c, 1, 72, 0
7, 179520, Note_on_c, 1, 76, 72
7, 179712, Note_on_c, 1, 76, 0
7, 180000, Note_on_c, 1, 76, 72
7, 180192, Note_on_c, 1, 76, 0
7, 180480, Note_on_c, 1, 76, 72
7, 181200, Note_on_c, 1, 76, 0
7, 181200, Note_on_c, 1, 79, 72
7, 181392, Note_on_c, 1, 79, 0
7, 181440, Note_on_c, 1, 77, 72
7, 181680, Note_on_c, 1, 77, 0
7, 181680, Note_on_c, 1, 74, 72
7, 181920, Note_on_c, 1, 74, 0
7, 181920, Note_on_c, 1, 77, 72
7, 182160, Note_on_c, 1, 77, 0
7, 182160, Note_on_c, 1, 83, 72
7, 182352, Note_on_c, 1, 83, 0
7, 182400, Note_on_c, 1, 83, 72
7, 182880, Note_on_c, 1, 83, 0
7, 182880, Note_on_c, 1, 84, 72
7, 183072, Note_on_c, 1, 84, 0
7, 183360, Note_on_c, 1, 76, 72
7, 183552, Note_on_c, 1, 76, 0
7, 183840, Note_on_c, 1, 76, 72
7, 184032, Note_on_c, 1, 76, 0
7, 184320, Note_on_c, 1, 76, 72
7, 185040, Note_on_c, 1, 76, 0
7, 185040, Note_on_c, 1, 79, 72
7, 185232, Note_on_c, 1, 79, 0
7, 185280, Note_on_c, 1, 77, 72
7, 185520, Note_on_c, 1, 77, 0
7, 185520, Note_on_c, 1, 74, 72
7, 185760, Note_on_c, 1, 74, 0
7, 185760, Note_on_c, 1, 79, 72
7, 186000, Note_on_c, 1, 79, 0
7, 186000, Note_on_c, 1, 71, 72
7, 186228, Note_on_c, 1, 71, 0
7, 186240, Note_on_c, 1, 74, 72
7, 187200, Note_on_c, 1, 74, 0
7, 187200, Note_on_c, 1, 72, 58
7, 187440, Note_on_c, 1, 72, 0
7, 187440, End_track
8, 0, Start_track
8, 0, Program_c, 2, 40
8, 0, Control_c, 2, 10, 102
8, 0, Control_c, 2, 91, 85
8, 960, Note_on_c, 2, 60, 58
8, 960, Control_c, 2, 10, 40
8, 1152, Note_on_c, 2, 60, 0
8, 1440, Note_on_c, 2, 60, 58
8, 1632, Note_on_c, 2, 60, 0
8, 1920, Note_on_c, 2, 60, 58
8, 2160, Note_on_c, 2, 60, 0
8, 2160, Note_on_c, 2, 55, 58
8, 2400, Note_on_c, 2, 55, 0
8, 2400, Note_on_c, 2, 60, 58
8, 2640, Note_on_c, 2, 60, 0
8, 2640, Note_on_c, 2, 64, 58
8, 2832, Note_on_c, 2, 64, 0
8, 2880, Note_on_c, 2, 62, 58
8, 3120, Note_on_c, 2, 62, 0
8, 3120, Note_on_c, 2, 59, 58
8, 3360, Note_on_c, 2, 59, 0
8, 3360, Note_on_c, 2, 62, 58
8, 3600, Note_on_c, 2, 62, 0
8, 3600, Note_on_c, 2, 65, 58
8, 3792, Note_on_c, 2, 65, 0
8, 3840, Note_on_c, 2, 64, 58
8, 4200, Note_on_c, 2, 64, 0
8, 4200, Note_on_c, 2, 60, 58
8, 4320, Note_on_c, 2, 60, 0
8, 4320, Note_on_c, 2, 64, 58
8, 4512, Note_on_c, 2, 64, 0
8, 4800, Note_on_c, 2, 69, 58
8, 4944, Note_on_c, 2, 69, 0
8, 5040, Note_on_c, 2, 69, 58
8, 5520, Note_on_c, 2, 69, 0
8, 5520, Note_on_c, 2, 67, 58
8, 5712, Note_on_c, 2, 67, 0
8, 5760, Note_on_c, 2, 65, 58
8, 5904, Note_on_c, 2, 65, 0
8, 6000, Note_on_c, 2, 65, 58
8, 6480, Note_on_c, 2, 65, 0
8, 6480, Note_on_c, 2, 64, 58
8, 6672, Note_on_c, 2, 64, 0
8, 6720, Note_on_c, 2, 64, 58
8, 6960, Note_on_c, 2, 64, 0
8, 6960, Note_on_c, 2, 62, 58
8, 7056, Note_on_c, 2, 62, 0
8, 7200, Note_on_c, 2, 62, 58
8, 7440, Note_on_c, 2, 62, 0
8, 7440, Note_on_c, 2, 60, 58
8, 7536, Note_on_c, 2, 60, 0
8, 7680, Note_on_c, 2, 64, 58
8, 8040, Note_on_c, 2, 64, 0
8, 8040, Note_on_c, 2, 60, 58
8, 8160, Note_on_c, 2, 60, 0
8, 8160, Note_on_c, 2, 59, 58
8, 8352, Note_on_c, 2, 59, 0
8, 8640, Note_on_c, 2, 60, 92
8, 8880, Note_on_c, 2, 60, 0
8, 8880, Note_on_c, 2, 55, 92
8, 9120, Note_on_c, 2, 55, 0
8, 9120, Note_on_c, 2, 60, 92
8, 9360, Note_on_c, 2, 60, 0
8, 9360, Note_on_c, 2, 55, 92
8, 9552, Note_on_c, 2, 55, 0
8, 9600, Note_on_c, 2, 60, 92
8, 9840, Note_on_c, 2, 60, 0
8, 9840, Note_on_c, 2, 55, 92
8, 10080, Note_on_c, 2, 55, 0
8, 10080, Note_on_c, 2, 60, 92
8, 10320, Note_on_c, 2, 60, 0
8, 10320, Note_on_c, 2, 64, 92
8, 10512, Note_on_c, 2, 64, 0
8, 10560, Note_on_c, 2, 62, 92
8, 10800, Note_on_c, 2, 62, 0
8, 10800, Note_on_c, 2, 59, 92
8, 11040, Note_on_c, 2, 59, 0
8, 11040, Note_on_c, 2, 62, 92
8, 11280, Note_on_c, 2, 62, 0
8, 11280, Note_on_c, 2, 65, 92
8, 11472, Note_on_c, 2, 65, 0
8, 11520, Note_on_c, 2, 64, 92
8, 11880, Note_on_c, 2, 64, 0
8, 11880, Note_on_c, 2, 60, 92
8, 11976, Note_on_c, 2, 60, 0
8, 12000, Note_on_c, 2, 64, 92
8, 12192, Note_on_c, 2, 64, 0
8, 12480, Note_on_c, 2, 67, 92
8, 12720, Note_on_c, 2, 67, 0
8, 12720, Note_on_c, 2, 72, 92
8, 12816, Note_on_c, 2, 72, 0
8, 12960, Note_on_c, 2, 60, 92
8, 13200, Note_on_c, 2, 60, 0
8, 13200, Note_on_c, 2, 67, 92
8, 13296, Note_on_c, 2, 67, 0
8, 13440, Note_on_c, 2, 69, 92
8, 13680, Note_on_c, 2, 69, 0
8, 13680, Note_on_c, 2, 72, 92
8, 13872, Note_on_c, 2, 72, 0
8, 13920, Note_on_c, 2, 71, 92
8, 14040, Note_on_c, 2, 71, 0
8, 14040, Note_on_c, 2, 69, 92
8, 14160, Note_on_c, 2, 69, 0
8, 14160, Note_on_c, 2, 67, 92
8, 14280, Note_on_c, 2, 67, 0
8, 14280, Note_on_c, 2, 65, 92
8, 14376, Note_on_c, 2, 65, 0
8, 14400, Note_on_c, 2, 64, 92
8, 14784, Note_on_c, 2, 64, 0
8, 14880, Note_on_c, 2, 67, 92
8, 15000, Note_on_c, 2, 67, 0
8, 15000, Note_on_c, 2, 65, 92
8, 15120, Note_on_c, 2, 65, 0
8, 15120, Note_on_c, 2, 64, 92
8, 15240, Note_on_c, 2, 64, 0
8, 15240, Note_on_c, 2, 65, 92
8, 15360, Note_on_c, 2, 65, 0
8, 15360, Note_on_c, 2, 64, 92
8, 15744, Note_on_c, 2, 64, 0
8, 16320, Note_on_c, 2, 60, 58
8, 16512, Note_on_c, 2, 60, 0
8, 16800, Note_on_c, 2, 60, 58
8, 16992, Note_on_c, 2, 60, 0
8, 17280, Note_on_c, 2, 60, 58
8, 17520, Note_on_c, 2, 60, 0
8, 17520, Note_on_c, 2, 55, 58
8, 17760, Note_on_c, 2, 55, 0
8, 17760, Note_on_c, 2, 60, 58
8, 18000, Note_on_c, 2, 60, 0
8, 18000, Note_on_c, 2, 64, 58
8, 18192, Note_on_c, 2, 64, 0
8, 18240, Note_on_c, 2, 62, 58
8, 18480, Note_on_c, 2, 62, 0
8, 18480, Note_on_c, 2, 59, 58
8, 18720, Note_on_c, 2, 59, 0
8, 18720, Note_on_c, 2, 62, 58
8, 18960, Note_on_c, 2, 62, 0
8, 18960, Note_on_c, 2, 65, 58
8, 19152, Note_on_c, 2, 65, 0
8, 19200, Note_on_c, 2, 64, 58
8, 19560, Note_on_c, 2, 64, 0
8, 19560, Note_on_c, 2, 60, 58
8, 19680, Note_on_c, 2, 60, 0
8, 19680, Note_on_c, 2, 64, 58
8, 19872, Note_on_c, 2, 64, 0
8, 20160, Note_on_c, 2, 69, 58
8, 20304, Note_on_c, 2, 69, 0
8, 20400, Note_on_c, 2, 69, 58
8, 20880, Note_on_c, 2, 69, 0
8, 20880, Note_on_c, 2, 67, 58
8, 21072, Note_on_c, 2, 67, 0
8, 21120, Note_on_c, 2, 65, 58
8, 21264, Note_on_c, 2, 65, 0
8, 21360, Note_on_c, 2, 65, 58
8, 21840, Note_on_c, 2, 65, 0
8, 21840, Note_on_c, 2, 64, 58
8, 22032, Note_on_c, 2, 64, 0
8, 22080, Note_on_c, 2, 64, 58
8, 22320, Note_on_c, 2, 64, 0
8, 22320, Note_on_c, 2, 62, 58
8, 22416, Note_on_c, 2, 62, 0
8, 22560, Note_on_c, 2, 62, 58
8, 22800, Note_on_c, 2, 62, 0
8, 22800, Note_on_c, 2, 60, 58
8, 22896, Note_on_c, 2, 60, 0
8, 23040, Note_on_c, 2, 64, 58
8, 23400, Note_on_c, 2, 64, 0
8, 23400, Note_on_c, 2, 60, 58
8, 23520, Note_on_c, 2, 60, 0
8, 23520, Note_on_c, 2, 59, 58
8, 23712, Note_on_c, 2, 59, 0
8, 24000, Note_on_c, 2, 60, 92
8, 24240, Note_on_c, 2, 60, 0
8, 24240, Note_on_c, 2, 55, 92
8, 24480, Note_on_c, 2, 55, 0
8, 24480, Note_on_c, 2, 60, 92
8, 24720, Note_on_c, 2, 60, 0
8, 24720, Note_on_c, 2, 55, 92
8, 24912, Note_on_c, 2, 55, 0
8, 24960, Note_on_c, 2, 60, 92
8, 25200, Note_on_c, 2, 60, 0
8, 25200, Note_on_c, 2, 55, 92
8, 25440, Note_on_c, 2, 55, 0
8, 25440, Note_on_c, 2, 60, 92
8, 25680, Note_on_c, 2, 60, 0
8, 25680, Note_on_c, 2, 64, 92
8, 25872, Note_on_c, 2, 64, 0
8, 25920, Note_on_c, 2, 62, 92
8, 26160, Note_on_c, 2, 62, 0
8, 26160, Note_on_c, 2, 59, 92
8, 26400, Note_on_c, 2, 59, 0
8, 26400, Note_on_c, 2, 62, 92
8, 26640, Note_on_c, 2, 62, 0
8, 26640, Note_on_c, 2, 65, 92
8, 26832, Note_on_c, 2, 65, 0
8, 26880, Note_on_c, 2, 64, 92
8, 27240, Note_on_c, 2, 64, 0
8, 27240, Note_on_c, 2, 60, 92
8, 27336, Note_on_c, 2, 60, 0
8, 27360, Note_on_c, 2, 64, 92
8, 27552, Note_on_c, 2, 64, 0
8, 27840, Note_on_c, 2, 67, 92
8, 28080, Note_on_c, 2, 67, 0
8, 28080, Note_on_c, 2, 72, 92
8, 28176, Note_on_c, 2, 72, 0
8, 28320, Note_on_c, 2, 60, 92
8, 28560, Note_on_c, 2, 60, 0
8, 28560, Note_on_c, 2, 67, 92
8, 28656, Note_on_c, 2, 67, 0
8, 28800, Note_on_c, 2, 69, 92
8, 29040, Note_on_c, 2, 69, 0
8, 29040, Note_on_c, 2, 72, 92
8, 29232, Note_on_c, 2, 72, 0
8, 29280, Note_on_c, 2, 71, 92
8, 29400, Note_on_c, 2, 71, 0
8, 29400, Note_on_c, 2, 69, 92
8, 29520, Note_on_c, 2, 69, 0
8, 29520, Note_on_c, 2, 67, 92
8, 29640, Note_on_c, 2, 67, 0
8, 29640, Note_on_c, 2, 65, 92
8, 29736, Note_on_c, 2, 65, 0
8, 29760, Note_on_c, 2, 64, 92
8, 30144, Note_on_c, 2, 64, 0
8, 30240, Note_on_c, 2, 67, 92
8, 30360, Note_on_c, 2, 67, 0
8, 30360, Note_on_c, 2, 65, 92
8, 30480, Note_on_c, 2, 65, 0
8, 30480, Note_on_c, 2, 64, 92
8, 30600, Note_on_c, 2, 64, 0
8, 30600, Note_on_c, 2, 65, 92
8, 30720, Note_on_c, 2, 65, 0
8, 30720, Note_on_c, 2, 64, 92
8, 31104, Note_on_c, 2, 64, 0
8, 32640, Note_on_c, 2, 62, 72
8, 32796, Note_on_c, 2, 62, 0
8, 32880, Note_on_c, 2, 62, 72
8, 33036, Note_on_c, 2, 62, 0
8, 33120, Note_on_c, 2, 62, 72
8, 33276, Note_on_c, 2, 62, 0
8, 33360, Note_on_c, 2, 62, 72
8, 33516, Note_on_c, 2, 62, 0
8, 33600, Note_on_c, 2, 64, 72
8, 33756, Note_on_c, 2, 64, 0
8, 33840, Note_on_c, 2, 64, 72
8, 33996, Note_on_c, 2, 64, 0
8, 34080, Note_on_c, 2, 67, 72
8, 34236, Note_on_c, 2, 67, 0
8, 34320, Note_on_c, 2, 67, 72
8, 34476, Note_on_c, 2, 67, 0
8, 34560, Note_on_c, 2, 72, 72
8, 35040, Note_on_c, 2, 72, 0
8, 35040, Note_on_c, 2, 71, 72
8, 35232, Note_on_c, 2, 71, 0
8, 36480, Note_on_c, 2, 62, 72
8, 36636, Note_on_c, 2, 62, 0
8, 36720, Note_on_c, 2, 62, 72
8, 36876, Note_on_c, 2, 62, 0
8, 36960, Note_on_c, 2, 65, 72
8, 37116, Note_on_c, 2, 65, 0
8, 37200, Note_on_c, 2, 65, 81
8, 37356, Note_on_c, 2, 65, 0
8, 37440, Note_on_c, 2, 64, 92
8, 37596, Note_on_c, 2, 64, 0
8, 37680, Note_on_c, 2, 64, 92
8, 37836, Note_on_c, 2, 64, 0
8, 37920, Note_on_c, 2, 60, 105
8, 38076, Note_on_c, 2, 60, 0
8, 38160, Note_on_c, 2, 60, 105
8, 38316, Note_on_c, 2, 60, 0
8, 38400, Note_on_c, 2, 59, 105
8, 38784, Note_on_c, 2, 59, 0
8, 39360, Note_on_c, 2, 60, 58
8, 39600, Note_on_c, 2, 60, 0
8, 39600, Note_on_c, 2, 55, 58
8, 39840, Note_on_c, 2, 55, 0
8, 39840, Note_on_c, 2, 60, 58
8, 40080, Note_on_c, 2, 60, 0
8, 40080, Note_on_c, 2, 55, 58
8, 40272, Note_on_c, 2, 55, 0
8, 40320, Note_on_c, 2, 61, 58
8, 40560, Note_on_c, 2, 61, 0
8, 40560, Note_on_c, 2, 55, 58
8, 40800, Note_on_c, 2, 55, 0
8, 40800, Note_on_c, 2, 61, 58
8, 41040, Note_on_c, 2, 61, 0
8, 41040, Note_on_c, 2, 64, 58
8, 41232, Note_on_c, 2, 64, 0
8, 41280, Note_on_c, 2, 62, 58
8, 41520, Note_on_c, 2, 62, 0
8, 41520, Note_on_c, 2, 57, 58
8, 41760, Note_on_c, 2, 57, 0
8, 41760, Note_on_c, 2, 62, 58
8, 42000, Note_on_c, 2, 62, 0
8, 42000, Note_on_c, 2, 65, 58
8, 42192, Note_on_c, 2, 65, 0
8, 42240, Note_on_c, 2, 64, 58
8, 42600, Note_on_c, 2, 64, 0
8, 42600, Note_on_c, 2, 60, 58
8, 42696, Note_on_c, 2, 60, 0
8, 42720, Note_on_c, 2, 64, 58
8, 42912, Note_on_c, 2, 64, 0
8, 43200, Note_on_c, 2, 72, 105
8, 43440, Note_on_c, 2, 72, 0
8, 43440, Note_on_c, 2, 64, 105
8, 43536, Note_on_c, 2, 64, 0
8, 43680, Note_on_c, 2, 65, 105
8, 43920, Note_on_c, 2, 65, 0
8, 43920, Note_on_c, 2, 71, 105
8, 44016, Note_on_c, 2, 71, 0
8, 44160, Note_on_c, 2, 72, 105
8, 44400, Note_on_c, 2, 72, 0
8, 44400, Note_on_c, 2, 64, 105
8, 44520, Note_on_c, 2, 64, 0
8, 44640, Note_on_c, 2, 72, 105
8, 44880, Note_on_c, 2, 72, 0
8, 44880, Note_on_c, 2, 62, 105
8, 45000, Note_on_c, 2, 62, 0
8, 45120, Note_on_c, 2, 64, 105
8, 45504, Note_on_c, 2, 64, 0
8, 45600, Note_on_c, 2, 67, 105
8, 45720, Note_on_c, 2, 67, 0
8, 45720, Note_on_c, 2, 65, 105
8, 45840, Note_on_c, 2, 65, 0
8, 45840, Note_on_c, 2, 64, 105
8, 45960, Note_on_c, 2, 64, 0
8, 45960, Note_on_c, 2, 65, 105
8, 46056, Note_on_c, 2, 65, 0
8, 46080, Note_on_c, 2, 64, 92
8, 46464, Note_on_c, 2, 64, 0
8, 48000, Note_on_c, 2, 62, 72
8, 48156, Note_on_c, 2, 62, 0
8, 48240, Note_on_c, 2, 62, 72
8, 48396, Note_on_c, 2, 62, 0
8, 48480, Note_on_c, 2, 62, 72
8, 48636, Note_on_c, 2, 62, 0
8, 48720, Note_on_c, 2, 62, 72
8, 48876, Note_on_c, 2, 62, 0
8, 48960, Note_on_c, 2, 64, 72
8, 49116, Note_on_c, 2, 64, 0
8, 49200, Note_on_c, 2, 64, 72
8, 49356, Note_on_c, 2, 64, 0
8, 49440, Note_on_c, 2, 67, 72
8, 49596, Note_on_c, 2, 67, 0
8, 49680, Note_on_c, 2, 67, 72
8, 49836, Note_on_c, 2, 67, 0
8, 49920, Note_on_c, 2, 72, 72
8, 50400, Note_on_c, 2, 72, 0
8, 50400, Note_on_c, 2, 71, 72
8, 50592, Note_on_c, 2, 71, 0
8, 51840, Note_on_c, 2, 62, 72
8, 51996, Note_on_c, 2, 62, 0
8, 52080, Note_on_c, 2, 62, 72
8, 52236, Note_on_c, 2, 62, 0
8, 52320, Note_on_c, 2, 65, 72
8, 52476, Note_on_c, 2, 65, 0
8, 52560, Note_on_c, 2, 65, 81
8, 52716, Note_on_c, 2, 65, 0
8, 52800, Note_on_c, 2, 64, 92
8, 52956, Note_on_c, 2, 64, 0
8, 53040, Note_on_c, 2, 64, 92
8, 53196, Note_on_c, 2, 64, 0
8, 53280, Note_on_c, 2, 60, 105
8, 53436, Note_on_c, 2, 60, 0
8, 53520, Note_on_c, 2, 60, 105
8, 53676, Note_on_c, 2, 60, 0
8, 53760, Note_on_c, 2, 59, 105
8, 54144, Note_on_c, 2, 59, 0
8, 54720, Note_on_c, 2, 60, 58
8, 54960, Note_on_c, 2, 60, 0
8, 54960, Note_on_c, 2, 55, 58
8, 55200, Note_on_c, 2, 55, 0
8, 55200, Note_on_c, 2, 60, 58
8, 55440, Note_on_c, 2, 60, 0
8, 55440, Note_on_c, 2, 55, 58
8, 55632, Note_on_c, 2, 55, 0
8, 55680, Note_on_c, 2, 61, 58
8, 55920, Note_on_c, 2, 61, 0
8, 55920, Note_on_c, 2, 55, 58
8, 56160, Note_on_c, 2, 55, 0
8, 56160, Note_on_c, 2, 61, 58
8, 56400, Note_on_c, 2, 61, 0
8, 56400, Note_on_c, 2, 64, 58
8, 56592, Note_on_c, 2, 64, 0
8, 56640, Note_on_c, 2, 62, 58
8, 56880, Note_on_c, 2, 62, 0
8, 56880, Note_on_c, 2, 57, 58
8, 57120, Note_on_c, 2, 57, 0
8, 57120, Note_on_c, 2, 62, 58
8, 57360, Note_on_c, 2, 62, 0
8, 57360, Note_on_c, 2, 65, 58
8, 57552, Note_on_c, 2, 65, 0
8, 57600, Note_on_c, 2, 64, 58
8, 57960, Note_on_c, 2, 64, 0
8, 57960, Note_on_c, 2, 60, 58
8, 58056, Note_on_c, 2, 60, 0
8, 58080, Note_on_c, 2, 64, 58
8, 58272, Note_on_c, 2, 64, 0
8, 58560, Note_on_c, 2, 72, 105
8, 58800, Note_on_c, 2, 72, 0
8, 58800, Note_on_c, 2, 64, 105
8, 58896, Note_on_c, 2, 64, 0
8, 59040, Note_on_c, 2, 65, 105
8, 59280, Note_on_c, 2, 65, 0
8, 59280, Note_on_c, 2, 71, 105
8, 59376, Note_on_c, 2, 71, 0
8, 59520, Note_on_c, 2, 72, 105
8, 59760, Note_on_c, 2, 72, 0
8, 59760, Note_on_c, 2, 64, 105
8, 59880, Note_on_c, 2, 64, 0
8, 60000, Note_on_c, 2, 72, 105
8, 60240, Note_on_c, 2, 72, 0
8, 60240, Note_on_c, 2, 62, 105
8, 60360, Note_on_c, 2, 62, 0
8, 60480, Note_on_c, 2, 64, 105
8, 60864, Note_on_c, 2, 64, 0
8, 60960, Note_on_c, 2, 67, 105
8, 61080, Note_on_c, 2, 67, 0
8, 61080, Note_on_c, 2, 65, 105
8, 61200, Note_on_c, 2, 65, 0
8, 61200, Note_on_c, 2, 64, 105
8, 61320, Note_on_c, 2, 64, 0
8, 61320, Note_on_c, 2, 65, 105
8, 61416, Note_on_c, 2, 65, 0
8, 61440, Note_on_c, 2, 64, 92
8, 61824, Note_on_c, 2, 64, 0
8, 62400, Note_on_c, 2, 60, 58
8, 62544, Note_on_c, 2, 60, 0
8, 62640, Note_on_c, 2, 60, 58
8, 62784, Note_on_c, 2, 60, 0
8, 62880, Note_on_c, 2, 60, 58
8, 63024, Note_on_c, 2, 60, 0
8, 63120, Note_on_c, 2, 60, 58
8, 63264, Note_on_c, 2, 60, 0
8, 63360, Note_on_c, 2, 61, 58
8, 63840, Note_on_c, 2, 61, 0
8, 63840, Note_on_c, 2, 62, 58
8, 64032, Note_on_c, 2, 62, 0
8, 64320, Note_on_c, 2, 64, 58
8, 64464, Note_on_c, 2, 64, 0
8, 64560, Note_on_c, 2, 64, 58
8, 64704, Note_on_c, 2, 64, 0
8, 64800, Note_on_c, 2, 64, 58
8, 64944, Note_on_c, 2, 64, 0
8, 65040, Note_on_c, 2, 64, 58
8, 65184, Note_on_c, 2, 64, 0
8, 65280, Note_on_c, 2, 64, 58
8, 65520, Note_on_c, 2, 64, 0
8, 65520, Note_on_c, 2, 67, 58
8, 65640, Note_on_c, 2, 67, 0
8, 65640, Note_on_c, 2, 65, 58
8, 65760, Note_on_c, 2, 65, 0
8, 65760, Note_on_c, 2, 64, 58
8, 65880, Note_on_c, 2, 64, 0
8, 65880, Note_on_c, 2, 62, 58
8, 66000, Note_on_c, 2, 62, 0
8, 66000, Note_on_c, 2, 60, 58
8, 66120, Note_on_c, 2, 60, 0
8, 66120, Note_on_c, 2, 59, 58
8, 66240, Note_on_c, 2, 59, 0
8, 66240, Note_on_c, 2, 60, 58
8, 66480, Note_on_c, 2, 60, 0
8, 66480, Note_on_c, 2, 72, 58
8, 66624, Note_on_c, 2, 72, 0
8, 66720, Note_on_c, 2, 72, 58
8, 66864, Note_on_c, 2, 72, 0
8, 66960, Note_on_c, 2, 72, 58
8, 67104, Note_on_c, 2, 72, 0
8, 67200, Note_on_c, 2, 71, 58
8, 67584, Note_on_c, 2, 71, 0
8, 67920, Note_on_c, 2, 58, 58
8, 68064, Note_on_c, 2, 58, 0
8, 68160, Note_on_c, 2, 59, 58
8, 68544, Note_on_c, 2, 59, 0
8, 68880, Note_on_c, 2, 60, 58
8, 69024, Note_on_c, 2, 60, 0
8, 69120, Note_on_c, 2, 60, 58
8, 69600, Note_on_c, 2, 60, 0
8, 69600, Note_on_c, 2, 59, 58
8, 69792, Note_on_c, 2, 59, 0
8, 70080, Note_on_c, 2, 60, 58
8, 70224, Note_on_c, 2, 60, 0
8, 70320, Note_on_c, 2, 60, 58
8, 70464, Note_on_c, 2, 60, 0
8, 70560, Note_on_c, 2, 60, 58
8, 70704, Note_on_c, 2, 60, 0
8, 70800, Note_on_c, 2, 60, 58
8, 70944, Note_on_c, 2, 60, 0
8, 71040, Note_on_c, 2, 61, 58
8, 71520, Note_on_c, 2, 61, 0
8, 71520, Note_on_c, 2, 62, 58
8, 71712, Note_on_c, 2, 62, 0
8, 72000, Note_on_c, 2, 64, 58
8, 72144, Note_on_c, 2, 64, 0
8, 72240, Note_on_c, 2, 64, 58
8, 72384, Note_on_c, 2, 64, 0
8, 72480, Note_on_c, 2, 64, 58
8, 72624, Note_on_c, 2, 64, 0
8, 72720, Note_on_c, 2, 64, 58
8, 72864, Note_on_c, 2, 64, 0
8, 72960, Note_on_c, 2, 64, 58
8, 73200, Note_on_c, 2, 64, 0
8, 73200, Note_on_c, 2, 67, 58
8, 73320, Note_on_c, 2, 67, 0
8, 73320, Note_on_c, 2, 65, 58
8, 73440, Note_on_c, 2, 65, 0
8, 73440, Note_on_c, 2, 64, 58
8, 73560, Note_on_c, 2, 64, 0
8, 73560, Note_on_c, 2, 62, 58
8, 73680, Note_on_c, 2, 62, 0
8, 73680, Note_on_c, 2, 60, 58
8, 73800, Note_on_c, 2, 60, 0
8, 73800, Note_on_c, 2, 59, 58
8, 73920, Note_on_c, 2, 59, 0
8, 73920, Note_on_c, 2, 60, 58
8, 74160, Note_on_c, 2, 60, 0
8, 74160, Note_on_c, 2, 72, 58
8, 74304, Note_on_c, 2, 72, 0
8, 74400, Note_on_c, 2, 72, 58
8, 74544, Note_on_c, 2, 72, 0
8, 74640, Note_on_c, 2, 72, 58
8, 74784, Note_on_c, 2, 72, 0
8, 74880, Note_on_c, 2, 71, 58
8, 75264, Note_on_c, 2, 71, 0
8, 75600, Note_on_c, 2, 58, 58
8, 75744, Note_on_c, 2, 58, 0
8, 75840, Note_on_c, 2, 59, 58
8, 76224, Note_on_c, 2, 59, 0
8, 76560, Note_on_c, 2, 60, 58
8, 76704, Note_on_c, 2, 60, 0
8, 76800, Note_on_c, 2, 60, 58
8, 77280, Note_on_c, 2, 60, 0
8, 77280, Note_on_c, 2, 59, 58
8, 77472, Note_on_c, 2, 59, 0
8, 77760, Note_on_c, 2, 64, 58
8, 77904, Note_on_c, 2, 64, 0
8, 78000, Note_on_c, 2, 64, 58
8, 78144, Note_on_c, 2, 64, 0
8, 78240, Note_on_c, 2, 64, 58
8, 78384, Note_on_c, 2, 64, 0
8, 78480, Note_on_c, 2, 62, 58
8, 78624, Note_on_c, 2, 62, 0
8, 78720, Note_on_c, 2, 61, 58
8, 79104, Note_on_c, 2, 61, 0
8, 79680, Note_on_c, 2, 62, 58
8, 79824, Note_on_c, 2, 62, 0
8, 79920, Note_on_c, 2, 62, 58
8, 80064, Note_on_c, 2, 62, 0
8, 80160, Note_on_c, 2, 62, 58
8, 80304, Note_on_c, 2, 62, 0
8, 80400, Note_on_c, 2, 60, 58
8, 80544, Note_on_c, 2, 60, 0
8, 80640, Note_on_c, 2, 59, 58
8, 81024, Note_on_c, 2, 59, 0
8, 81600, Note_on_c, 2, 67, 58
8, 81792, Note_on_c, 2, 67, 0
8, 81840, Note_on_c, 2, 67, 58
8, 81984, Note_on_c, 2, 67, 0
8, 82080, Note_on_c, 2, 72, 58
8, 82224, Note_on_c, 2, 72, 0
8, 82320, Note_on_c, 2, 72, 58
8, 82464, Note_on_c, 2, 72, 0
8, 82560, Note_on_c, 2, 71, 58
8, 82944, Note_on_c, 2, 71, 0
8, 83280, Note_on_c, 2, 68, 58
8, 83520, Note_on_c, 2, 68, 0
8, 83520, Note_on_c, 2, 69, 58
8, 83904, Note_on_c, 2, 69, 0
8, 84240, Note_on_c, 2, 63, 58
8, 84480, Note_on_c, 2, 63, 0
8, 84480, Note_on_c, 2, 64, 58
8, 84864, Note_on_c, 2, 64, 0
8, 85200, Note_on_c, 2, 74, 58
8, 85440, Note_on_c, 2, 74, 0
8, 85440, Note_on_c, 2, 73, 58
8, 85584, Note_on_c, 2, 73, 0
8, 85680, Note_on_c, 2, 73, 58
8, 85824, Note_on_c, 2, 73, 0
8, 85920, Note_on_c, 2, 72, 58
8, 86064, Note_on_c, 2, 72, 0
8, 86160, Note_on_c, 2, 72, 58
8, 86304, Note_on_c, 2, 72, 0
8, 86400, Note_on_c, 2, 71, 58
8, 86784, Note_on_c, 2, 71, 0
8, 87120, Note_on_c, 2, 74, 58
8, 87360, Note_on_c, 2, 74, 0
8, 87360, Note_on_c, 2, 72, 58
8, 87744, Note_on_c, 2, 72, 0
8, 88080, Note_on_c, 2, 75, 58
8, 88320, Note_on_c, 2, 75, 0
8, 88320, Note_on_c, 2, 76, 58
8, 88704, Note_on_c, 2, 76, 0
8, 89040, Note_on_c, 2, 69, 72
8, 89184, Note_on_c, 2, 69, 0
8, 89280, Note_on_c, 2, 68, 72
8, 89520, Note_on_c, 2, 68, 0
8, 89520, Note_on_c, 2, 71, 72
8, 89664, Note_on_c, 2, 71, 0
8, 89760, Note_on_c, 2, 64, 72
8, 89904, Note_on_c, 2, 64, 0
8, 90000, Note_on_c, 2, 69, 58
8, 90144, Note_on_c, 2, 69, 0
8, 90240, Note_on_c, 2, 68, 58
8, 90480, Note_on_c, 2, 68, 0
8, 90480, Note_on_c, 2, 71, 58
8, 90624, Note_on_c, 2, 71, 0
8, 90720, Note_on_c, 2, 64, 58
8, 90864, Note_on_c, 2, 64, 0
8, 90960, Note_on_c, 2, 69, 58
8, 91104, Note_on_c, 2, 69, 0
8, 91200, Note_on_c, 2, 68, 58
8, 91440, Note_on_c, 2, 68, 0
8, 91440, Note_on_c, 2, 71, 58
8, 91584, Note_on_c, 2, 71, 0
8, 91680, Note_on_c, 2, 64, 58
8, 91824, Note_on_c, 2, 64, 0
8, 93840, Note_on_c, 2, 74, 72
8, 93984, Note_on_c, 2, 74, 0
8, 94080, Note_on_c, 2, 73, 72
8, 94320, Note_on_c, 2, 73, 0
8, 94320, Note_on_c, 2, 76, 72
8, 94464, Note_on_c, 2, 76, 0
8, 94560, Note_on_c, 2, 69, 72
8, 94704, Note_on_c, 2, 69, 0
8, 94800, Note_on_c, 2, 71, 72
8, 94944, Note_on_c, 2, 71, 0
8, 95040, Note_on_c, 2, 72, 72
8, 95760, Note_on_c, 2, 72, 0
8, 95760, Note_on_c, 2, 71, 72
8, 95880, Note_on_c, 2, 71, 0
8, 95880, Note_on_c, 2, 69, 72
8, 96000, Note_on_c, 2, 69, 0
8, 96000, Note_on_c, 2, 67, 72
8, 96192, Note_on_c, 2, 67, 0
8, 96240, Note_on_c, 2, 59, 72
8, 96720, Note_on_c, 2, 59, 0
8, 96720, Note_on_c, 2, 62, 58
8, 96912, Note_on_c, 2, 62, 0
8, 96960, Note_on_c, 2, 60, 58
8, 97152, Note_on_c, 2, 60, 0
8, 97440, Note_on_c, 2, 60, 58
8, 97632, Note_on_c, 2, 60, 0
8, 97920, Note_on_c, 2, 60, 58
8, 98160, Note_on_c, 2, 60, 0
8, 98160, Note_on_c, 2, 55, 58
8, 98400, Note_on_c, 2, 55, 0
8, 98400, Note_on_c, 2, 60, 58
8, 98640, Note_on_c, 2, 60, 0
8, 98640, Note_on_c, 2, 64, 58
8, 98832, Note_on_c, 2, 64, 0
8, 98880, Note_on_c, 2, 62, 58
8, 99120, Note_on_c, 2, 62, 0
8, 99120, Note_on_c, 2, 59, 58
8, 99360, Note_on_c, 2, 59, 0
8, 99360, Note_on_c, 2, 62, 58
8, 99600, Note_on_c, 2, 62, 0
8, 99600, Note_on_c, 2, 65, 58
8, 99792, Note_on_c, 2, 65, 0
8, 99840, Note_on_c, 2, 64, 58
8, 100200, Note_on_c, 2, 64, 0
8, 100200, Note_on_c, 2, 60, 58
8, 100296, Note_on_c, 2, 60, 0
8, 100320, Note_on_c, 2, 64, 58
8, 100512, Note_on_c, 2, 64, 0
8, 100800, Note_on_c, 2, 69, 58
8, 100944, Note_on_c, 2, 69, 0
8, 101040, Note_on_c, 2, 69, 58
8, 101520, Note_on_c, 2, 69, 0
8, 101520, Note_on_c, 2, 67, 58
8, 101712, Note_on_c, 2, 67, 0
8, 101760, Note_on_c, 2, 65, 58
8, 101904, Note_on_c, 2, 65, 0
8, 102000, Note_on_c, 2, 65, 58
8, 102480, Note_on_c, 2, 65, 0
8, 102480, Note_on_c, 2, 64, 58
8, 102672, Note_on_c, 2, 64, 0
8, 102720, Note_on_c, 2, 64, 58
8, 102960, Note_on_c, 2, 64, 0
8, 102960, Note_on_c, 2, 62, 58
8, 103080, Note_on_c, 2, 62, 0
8, 103200, Note_on_c, 2, 62, 58
8, 103440, Note_on_c, 2, 62, 0
8, 103440, Note_on_c, 2, 60, 58
8, 103560, Note_on_c, 2, 60, 0
8, 103680, Note_on_c, 2, 64, 58
8, 104040, Note_on_c, 2, 64, 0
8, 104040, Note_on_c, 2, 60, 58
8, 104136, Note_on_c, 2, 60, 0
8, 104160, Note_on_c, 2, 59, 58
8, 104352, Note_on_c, 2, 59, 0
8, 104640, Note_on_c, 2, 60, 92
8, 104880, Note_on_c, 2, 60, 0
8, 104880, Note_on_c, 2, 55, 92
8, 105120, Note_on_c, 2, 55, 0
8, 105120, Note_on_c, 2, 60, 92
8, 105360, Note_on_c, 2, 60, 0
8, 105360, Note_on_c, 2, 55, 92
8, 105552, Note_on_c, 2, 55, 0
8, 105600, Note_on_c, 2, 60, 92
8, 105840, Note_on_c, 2, 60, 0
8, 105840, Note_on_c, 2, 55, 92
8, 106080, Note_on_c, 2, 55, 0
8, 106080, Note_on_c, 2, 60, 92
8, 106320, Note_on_c, 2, 60, 0
8, 106320, Note_on_c, 2, 64, 92
8, 106512, Note_on_c, 2, 64, 0
8, 106560, Note_on_c, 2, 62, 92
8, 106800, Note_on_c, 2, 62, 0
8, 106800, Note_on_c, 2, 59, 92
8, 107040, Note_on_c, 2, 59, 0
8, 107040, Note_on_c, 2, 62, 92
8, 107280, Note_on_c, 2, 62, 0
8, 107280, Note_on_c, 2, 65, 92
8, 107472, Note_on_c, 2, 65, 0
8, 107520, Note_on_c, 2, 64, 92
8, 107880, Note_on_c, 2, 64, 0
8, 107880, Note_on_c, 2, 60, 92
8, 107976, Note_on_c, 2, 60, 0
8, 108000, Note_on_c, 2, 64, 92
8, 108192, Note_on_c, 2, 64, 0
8, 108480, Note_on_c, 2, 67, 92
8, 108720, Note_on_c, 2, 67, 0
8, 108720, Note_on_c, 2, 72, 92
8, 108840, Note_on_c, 2, 72, 0
8, 108960, Note_on_c, 2, 60, 92
8, 109200, Note_on_c, 2, 60, 0
8, 109200, Note_on_c, 2, 67, 92
8, 109320, Note_on_c, 2, 67, 0
8, 109440, Note_on_c, 2, 69, 92
8, 109680, Note_on_c, 2, 69, 0
8, 109680, Note_on_c, 2, 72, 92
8, 109872, Note_on_c, 2, 72, 0
8, 109920, Note_on_c, 2, 71, 92
8, 110040, Note_on_c, 2, 71, 0
8, 110040, Note_on_c, 2, 69, 92
8, 110160, Note_on_c, 2, 69, 0
8, 110160, Note_on_c, 2, 67, 92
8, 110280, Note_on_c, 2, 67, 0
8, 110280, Note_on_c, 2, 65, 92
8, 110376, Note_on_c, 2, 65, 0
8, 110400, Note_on_c, 2, 64, 92
8, 110784, Note_on_c, 2, 64, 0
8, 110880, Note_on_c, 2, 67, 92
8, 111000, Note_on_c, 2, 67, 0
8, 111000, Note_on_c, 2, 65, 92
8, 111120, Note_on_c, 2, 65, 0
8, 111120, Note_on_c, 2, 64, 92
8, 111240, Note_on_c, 2, 64, 0
8, 111240, Note_on_c, 2, 65, 92
8, 111336, Note_on_c, 2, 65, 0
8, 111360, Note_on_c, 2, 64, 92
8, 111744, Note_on_c, 2, 64, 0
8, 112320, Note_on_c, 2, 63, 58
8, 112416, Note_on_c, 2, 63, 0
8, 112440, Note_on_c, 2, 63, 58
8, 112536, Note_on_c, 2, 63, 0
8, 112560, Note_on_c, 2, 62, 58
8, 112656, Note_on_c, 2, 62, 0
8, 112680, Note_on_c, 2, 62, 58
8, 112776, Note_on_c, 2, 62, 0
8, 112800, Note_on_c, 2, 63, 58
8, 112896, Note_on_c, 2, 63, 0
8, 112920, Note_on_c, 2, 63, 58
8, 113016, Note_on_c, 2, 63, 0
8, 113040, Note_on_c, 2, 65, 58
8, 113136, Note_on_c, 2, 65, 0
8, 113160, Note_on_c, 2, 65, 58
8, 113256, Note_on_c, 2, 65, 0
8, 113280, Note_on_c, 2, 67, 58
8, 113376, Note_on_c, 2, 67, 0
8, 113400, Note_on_c, 2, 67, 58
8, 113496, Note_on_c, 2, 67, 0
8, 113520, Note_on_c, 2, 68, 58
8, 113616, Note_on_c, 2, 68, 0
8, 113640, Note_on_c, 2, 68, 58
8, 113736, Note_on_c, 2, 68, 0
8, 113760, Note_on_c, 2, 67, 58
8, 113856, Note_on_c, 2, 67, 0
8, 113880, Note_on_c, 2, 67, 58
8, 113976, Note_on_c, 2, 67, 0
8, 114000, Note_on_c, 2, 65, 58
8, 114096, Note_on_c, 2, 65, 0
8, 114120, Note_on_c, 2, 65, 58
8, 114216, Note_on_c, 2, 65, 0
8, 114240, Note_on_c, 2, 63, 58
8, 114336, Note_on_c, 2, 63, 0
8, 114360, Note_on_c, 2, 63, 58
8, 114456, Note_on_c, 2, 63, 0
8, 114480, Note_on_c, 2, 62, 58
8, 114576, Note_on_c, 2, 62, 0
8, 114600, Note_on_c, 2, 62, 58
8, 114696, Note_on_c, 2, 62, 0
8, 114720, Note_on_c, 2, 63, 58
8, 114816, Note_on_c, 2, 63, 0
8, 114840, Note_on_c, 2, 63, 58
8, 114936, Note_on_c, 2, 63, 0
8, 114960, Note_on_c, 2, 65, 58
8, 115056, Note_on_c, 2, 65, 0
8, 115080, Note_on_c, 2, 65, 58
8, 115176, Note_on_c, 2, 65, 0
8, 115200, Note_on_c, 2, 67, 58
8, 115296, Note_on_c, 2, 67, 0
8, 115320, Note_on_c, 2, 67, 58
8, 115416, Note_on_c, 2, 67, 0
8, 115440, Note_on_c, 2, 68, 58
8, 115536, Note_on_c, 2, 68, 0
8, 115560, Note_on_c, 2, 68, 58
8, 115656, Note_on_c, 2, 68, 0
8, 115680, Note_on_c, 2, 67, 58
8, 115776, Note_on_c, 2, 67, 0
8, 115800, Note_on_c, 2, 67, 58
8, 115896, Note_on_c, 2, 67, 0
8, 115920, Note_on_c, 2, 65, 58
8, 116016, Note_on_c, 2, 65, 0
8, 116040, Note_on_c, 2, 65, 58
8, 116136, Note_on_c, 2, 65, 0
8, 116160, Note_on_c, 2, 63, 58
8, 116256, Note_on_c, 2, 63, 0
8, 116280, Note_on_c, 2, 63, 58
8, 116376, Note_on_c, 2, 63, 0
8, 116400, Note_on_c, 2, 62, 58
8, 116496, Note_on_c, 2, 62, 0
8, 116520, Note_on_c, 2, 62, 58
8, 116616, Note_on_c, 2, 62, 0
8, 116640, Note_on_c, 2, 63, 58
8, 116736, Note_on_c, 2, 63, 0
8, 116760, Note_on_c, 2, 63, 58
8, 116856, Note_on_c, 2, 63, 0
8, 116880, Note_on_c, 2, 67, 58
8, 116976, Note_on_c, 2, 67, 0
8, 117000, Note_on_c, 2, 67, 58
8, 117096, Note_on_c, 2, 67, 0
8, 117120, Note_on_c, 2, 65, 78
8, 117216, Note_on_c, 2, 65, 0
8, 117240, Note_on_c, 2, 65, 58
8, 117336, Note_on_c, 2, 65, 0
8, 117360, Note_on_c, 2, 65, 58
8, 117456, Note_on_c, 2, 65, 0
8, 117480, Note_on_c, 2, 65, 58
8, 117576, Note_on_c, 2, 65, 0
8, 117600, Note_on_c, 2, 65, 58
8, 117696, Note_on_c, 2, 65, 0
8, 117720, Note_on_c, 2, 65, 58
8, 117816, Note_on_c, 2, 65, 0
8, 117840, Note_on_c, 2, 63, 58
8, 117936, Note_on_c, 2, 63, 0
8, 117960, Note_on_c, 2, 63, 58
8, 118056, Note_on_c, 2, 63, 0
8, 118080, Note_on_c, 2, 68, 58
8, 118176, Note_on_c, 2, 68, 0
8, 118200, Note_on_c, 2, 68, 58
8, 118296, Note_on_c, 2, 68, 0
8, 118320, Note_on_c, 2, 68, 58
8, 118416, Note_on_c, 2, 68, 0
8, 118440, Note_on_c, 2, 68, 58
8, 118536, Note_on_c, 2, 68, 0
8, 118560, Note_on_c, 2, 68, 58
8, 118656, Note_on_c, 2, 68, 0
8, 118680, Note_on_c, 2, 68, 58
8, 118776, Note_on_c, 2, 68, 0
8, 118800, Note_on_c, 2, 68, 58
8, 118896, Note_on_c, 2, 68, 0
8, 118920, Note_on_c, 2, 68, 58
8, 119016, Note_on_c, 2, 68, 0
8, 119040, Note_on_c, 2, 67, 58
8, 119136, Note_on_c, 2, 67, 0
8, 119160, Note_on_c, 2, 67, 58
8, 119256, Note_on_c, 2, 67, 0
8, 119280, Note_on_c, 2, 68, 58
8, 119376, Note_on_c, 2, 68, 0
8, 119400, Note_on_c, 2, 68, 58
8, 119496, Note_on_c, 2, 68, 0
8, 119520, Note_on_c, 2, 67, 58
8, 119616, Note_on_c, 2, 67, 0
8, 119640, Note_on_c, 2, 67, 58
8, 119736, Note_on_c, 2, 67, 0
8, 119760, Note_on_c, 2, 65, 58
8, 119856, Note_on_c, 2, 65, 0
8, 119880, Note_on_c, 2, 65, 58
8, 119976, Note_on_c, 2, 65, 0
8, 120000, Note_on_c, 2, 63, 58
8, 120096, Note_on_c, 2, 63, 0
8, 120120, Note_on_c, 2, 63, 58
8, 120216, Note_on_c, 2, 63, 0
8, 120240, Note_on_c, 2, 62, 58
8, 120336, Note_on_c, 2, 62, 0
8, 120360, Note_on_c, 2, 62, 58
8, 120456, Note_on_c, 2, 62, 0
8, 120480, Note_on_c, 2, 63, 58
8, 120576, Note_on_c, 2, 63, 0
8, 120600, Note_on_c, 2, 63, 58
8, 120696, Note_on_c, 2, 63, 0
8, 120720, Note_on_c, 2, 65, 58
8, 120816, Note_on_c, 2, 65, 0
8, 120840, Note_on_c, 2, 65, 58
8, 120936, Note_on_c, 2, 65, 0
8, 120960, Note_on_c, 2, 67, 58
8, 121056, Note_on_c, 2, 67, 0
8, 121080, Note_on_c, 2, 67, 58
8, 121176, Note_on_c, 2, 67, 0
8, 121200, Note_on_c, 2, 68, 58
8, 121296, Note_on_c, 2, 68, 0
8, 121320, Note_on_c, 2, 68, 58
8, 121416, Note_on_c, 2, 68, 0
8, 121440, Note_on_c, 2, 67, 58
8, 121536, Note_on_c, 2, 67, 0
8, 121560, Note_on_c, 2, 67, 58
8, 121656, Note_on_c, 2, 67, 0
8, 121680, Note_on_c, 2, 65, 58
8, 121776, Note_on_c, 2, 65, 0
8, 121800, Note_on_c, 2, 65, 58
8, 121896, Note_on_c, 2, 65, 0
8, 121920, Note_on_c, 2, 63, 58
8, 122016, Note_on_c, 2, 63, 0
8, 122040, Note_on_c, 2, 63, 58
8, 122136, Note_on_c, 2, 63, 0
8, 122160, Note_on_c, 2, 62, 58
8, 122256, Note_on_c, 2, 62, 0
8, 122280, Note_on_c, 2, 62, 58
8, 122376, Note_on_c, 2, 62, 0
8, 122400, Note_on_c, 2, 63, 58
8, 122496, Note_on_c, 2, 63, 0
8, 122520, Note_on_c, 2, 63, 58
8, 122616, Note_on_c, 2, 63, 0
8, 122640, Note_on_c, 2, 65, 58
8, 122736, Note_on_c, 2, 65, 0
8, 122760, Note_on_c, 2, 65, 58
8, 122856, Note_on_c, 2, 65, 0
8, 122880, Note_on_c, 2, 67, 58
8, 122976, Note_on_c, 2, 67, 0
8, 123000, Note_on_c, 2, 67, 58
8, 123096, Note_on_c, 2, 67, 0
8, 123120, Note_on_c, 2, 68, 58
8, 123216, Note_on_c, 2, 68, 0
8, 123240, Note_on_c, 2, 68, 58
8, 123336, Note_on_c, 2, 68, 0
8, 123360, Note_on_c, 2, 67, 58
8, 123456, Note_on_c, 2, 67, 0
8, 123480, Note_on_c, 2, 67, 58
8, 123576, Note_on_c, 2, 67, 0
8, 123600, Note_on_c, 2, 65, 58
8, 123696, Note_on_c, 2, 65, 0
8, 123720, Note_on_c, 2, 65, 58
8, 123816, Note_on_c, 2, 65, 0
8, 123840, Note_on_c, 2, 63, 58
8, 123936, Note_on_c, 2, 63, 0
8, 123960, Note_on_c, 2, 63, 58
8, 124056, Note_on_c, 2, 63, 0
8, 124080, Note_on_c, 2, 62, 58
8, 124176, Note_on_c, 2, 62, 0
8, 124200, Note_on_c, 2, 62, 58
8, 124296, Note_on_c, 2, 62, 0
8, 124320, Note_on_c, 2, 63, 58
8, 124416, Note_on_c, 2, 63, 0
8, 124440, Note_on_c, 2, 63, 58
8, 124536, Note_on_c, 2, 63, 0
8, 124560, Note_on_c, 2, 67, 58
8, 124656, Note_on_c, 2, 67, 0
8, 124680, Note_on_c, 2, 67, 58
8, 124776, Note_on_c, 2, 67, 0
8, 124800, Note_on_c, 2, 65, 78
8, 124896, Note_on_c, 2, 65, 0
8, 124920, Note_on_c, 2, 65, 58
8, 125016, Note_on_c, 2, 65, 0
8, 125040, Note_on_c, 2, 65, 58
8, 125136, Note_on_c, 2, 65, 0
8, 125160, Note_on_c, 2, 65, 58
8, 125256, Note_on_c, 2, 65, 0
8, 125280, Note_on_c, 2, 65, 58
8, 125376, Note_on_c, 2, 65, 0
8, 125400, Note_on_c, 2, 65, 58
8, 125496, Note_on_c, 2, 65, 0
8, 125520, Note_on_c, 2, 63, 58
8, 125616, Note_on_c, 2, 63, 0
8, 125640, Note_on_c, 2, 63, 58
8, 125736, Note_on_c, 2, 63, 0
8, 125760, Note_on_c, 2, 68, 58
8, 125856, Note_on_c, 2, 68, 0
8, 125880, Note_on_c, 2, 68, 58
8, 125976, Note_on_c, 2, 68, 0
8, 126000, Note_on_c, 2, 68, 58
8, 126096, Note_on_c, 2, 68, 0
8, 126120, Note_on_c, 2, 68, 58
8, 126216, Note_on_c, 2, 68, 0
8, 126240, Note_on_c, 2, 68, 58
8, 126336, Note_on_c, 2, 68, 0
8, 126360, Note_on_c, 2, 68, 58
8, 126456, Note_on_c, 2, 68, 0
8, 126480, Note_on_c, 2, 68, 58
8, 126576, Note_on_c, 2, 68, 0
8, 126600, Note_on_c, 2, 68, 58
8, 126696, Note_on_c, 2, 68, 0
8, 126720, Note_on_c, 2, 67, 58
8, 126816, Note_on_c, 2, 67, 0
8, 126840, Note_on_c, 2, 67, 58
8, 126936, Note_on_c, 2, 67, 0
8, 126960, Note_on_c, 2, 68, 58
8, 127056, Note_on_c, 2, 68, 0
8, 127080, Note_on_c, 2, 68, 58
8, 127176, Note_on_c, 2, 68, 0
8, 127200, Note_on_c, 2, 67, 58
8, 127296, Note_on_c, 2, 67, 0
8, 127320, Note_on_c, 2, 67, 58
8, 127416, Note_on_c, 2, 67, 0
8, 127440, Note_on_c, 2, 65, 58
8, 127536, Note_on_c, 2, 65, 0
8, 127560, Note_on_c, 2, 65, 58
8, 127656, Note_on_c, 2, 65, 0
8, 127680, Note_on_c, 2, 67, 58
8, 127776, Note_on_c, 2, 67, 0
8, 127800, Note_on_c, 2, 67, 58
8, 127896, Note_on_c, 2, 67, 0
8, 127920, Note_on_c, 2, 65, 58
8, 128016, Note_on_c, 2, 65, 0
8, 128040, Note_on_c, 2, 65, 58
8, 128136, Note_on_c, 2, 65, 0
8, 128160, Note_on_c, 2, 67, 58
8, 128256, Note_on_c, 2, 67, 0
8, 128280, Note_on_c, 2, 67, 58
8, 128376, Note_on_c, 2, 67, 0
8, 128400, Note_on_c, 2, 68, 58
8, 128496, Note_on_c, 2, 68, 0
8, 128520, Note_on_c, 2, 68, 58
8, 128616, Note_on_c, 2, 68, 0
8, 128640, Note_on_c, 2, 70, 58
8, 128736, Note_on_c, 2, 70, 0
8, 128760, Note_on_c, 2, 70, 58
8, 128856, Note_on_c, 2, 70, 0
8, 128880, Note_on_c, 2, 73, 58
8, 128976, Note_on_c, 2, 73, 0
8, 129000, Note_on_c, 2, 73, 58
8, 129096, Note_on_c, 2, 73, 0
8, 129120, Note_on_c, 2, 72, 58
8, 129216, Note_on_c, 2, 72, 0
8, 129240, Note_on_c, 2, 72, 58
8, 129336, Note_on_c, 2, 72, 0
8, 129360, Note_on_c, 2, 70, 58
8, 129456, Note_on_c, 2, 70, 0
8, 129480, Note_on_c, 2, 70, 58
8, 129576, Note_on_c, 2, 70, 0
8, 129600, Note_on_c, 2, 68, 58
8, 129696, Note_on_c, 2, 68, 0
8, 129720, Note_on_c, 2, 68, 58
8, 129816, Note_on_c, 2, 68, 0
8, 129840, Note_on_c, 2, 67, 58
8, 129936, Note_on_c, 2, 67, 0
8, 129960, Note_on_c, 2, 67, 58
8, 130056, Note_on_c, 2, 67, 0
8, 130080, Note_on_c, 2, 68, 58
8, 130176, Note_on_c, 2, 68, 0
8, 130200, Note_on_c, 2, 68, 58
8, 130296, Note_on_c, 2, 68, 0
8, 130320, Note_on_c, 2, 70, 58
8, 130416, Note_on_c, 2, 70, 0
8, 130440, Note_on_c, 2, 70, 58
8, 130536, Note_on_c, 2, 70, 0
8, 130560, Note_on_c, 2, 72, 58
8, 130656, Note_on_c, 2, 72, 0
8, 130680, Note_on_c, 2, 72, 58
8, 130776, Note_on_c, 2, 72, 0
8, 130800, Note_on_c, 2, 75, 58
8, 130896, Note_on_c, 2, 75, 0
8, 130920, Note_on_c, 2, 75, 58
8, 131016, Note_on_c, 2, 75, 0
8, 131040, Note_on_c, 2, 74, 58
8, 131136, Note_on_c, 2, 74, 0
8, 131160, Note_on_c, 2, 74, 58
8, 131256, Note_on_c, 2, 74, 0
8, 131280, Note_on_c, 2, 72, 58
8, 131376, Note_on_c, 2, 72, 0
8, 131400, Note_on_c, 2, 72, 58
8, 131496, Note_on_c, 2, 72, 0
8, 131520, Note_on_c, 2, 71, 58
8, 131616, Note_on_c, 2, 71, 0
8, 131640, Note_on_c, 2, 71, 58
8, 131736, Note_on_c, 2, 71, 0
8, 131760, Note_on_c, 2, 69, 58
8, 131856, Note_on_c, 2, 69, 0
8, 131880, Note_on_c, 2, 69, 58
8, 131976, Note_on_c, 2, 69, 0
8, 132000, Note_on_c, 2, 71, 58
8, 132096, Note_on_c, 2, 71, 0
8, 132120, Note_on_c, 2, 71, 58
8, 132216, Note_on_c, 2, 71, 0
8, 132240, Note_on_c, 2, 72, 58
8, 132336, Note_on_c, 2, 72, 0
8, 132360, Note_on_c, 2, 72, 58
8, 132456, Note_on_c, 2, 72, 0
8, 132480, Note_on_c, 2, 74, 58
8, 132576, Note_on_c, 2, 74, 0
8, 132600, Note_on_c, 2, 74, 58
8, 132696, Note_on_c, 2, 74, 0
8, 132720, Note_on_c, 2, 75, 58
8, 132816, Note_on_c, 2, 75, 0
8, 132840, Note_on_c, 2, 75, 58
8, 132936, Note_on_c, 2, 75, 0
8, 132960, Note_on_c, 2, 74, 58
8, 133056, Note_on_c, 2, 74, 0
8, 133080, Note_on_c, 2, 74, 58
8, 133176, Note_on_c, 2, 74, 0
8, 133200, Note_on_c, 2, 68, 58
8, 133296, Note_on_c, 2, 68, 0
8, 133320, Note_on_c, 2, 68, 58
8, 133416, Note_on_c, 2, 68, 0
8, 133440, Note_on_c, 2, 67, 58
8, 133536, Note_on_c, 2, 67, 0
8, 133560, Note_on_c, 2, 67, 58
8, 133656, Note_on_c, 2, 67, 0
8, 133680, Note_on_c, 2, 65, 58
8, 133776, Note_on_c, 2, 65, 0
8, 133800, Note_on_c, 2, 65, 58
8, 133896, Note_on_c, 2, 65, 0
8, 133920, Note_on_c, 2, 67, 58
8, 134016, Note_on_c, 2, 67, 0
8, 134040, Note_on_c, 2, 67, 58
8, 134136, Note_on_c, 2, 67, 0
8, 134160, Note_on_c, 2, 72, 58
8, 134256, Note_on_c, 2, 72, 0
8, 134280, Note_on_c, 2, 72, 58
8, 134376, Note_on_c, 2, 72, 0
8, 134400, Note_on_c, 2, 71, 58
8, 134496, Note_on_c, 2, 71, 0
8, 134520, Note_on_c, 2, 71, 58
8, 134616, Note_on_c, 2, 71, 0
8, 134640, Note_on_c, 2, 66, 58
8, 134736, Note_on_c, 2, 66, 0
8, 134760, Note_on_c, 2, 66, 58
8, 134856, Note_on_c, 2, 66, 0
8, 134880, Note_on_c, 2, 67, 58
8, 134976, Note_on_c, 2, 67, 0
8, 135000, Note_on_c, 2, 67, 58
8, 135096, Note_on_c, 2, 67, 0
8, 135120, Note_on_c, 2, 68, 58
8, 135216, Note_on_c, 2, 68, 0
8, 135240, Note_on_c, 2, 68, 58
8, 135336, Note_on_c, 2, 68, 0
8, 135360, Note_on_c, 2, 67, 58
8, 135456, Note_on_c, 2, 67, 0
8, 135480, Note_on_c, 2, 67, 58
8, 135576, Note_on_c, 2, 67, 0
8, 135600, Note_on_c, 2, 62, 58
8, 135696, Note_on_c, 2, 62, 0
8, 135720, Note_on_c, 2, 62, 58
8, 135816, Note_on_c, 2, 62, 0
8, 135840, Note_on_c, 2, 63, 58
8, 135936, Note_on_c, 2, 63, 0
8, 135960, Note_on_c, 2, 63, 58
8, 136056, Note_on_c, 2, 63, 0
8, 136080, Note_on_c, 2, 60, 58
8, 136176, Note_on_c, 2, 60, 0
8, 136200, Note_on_c, 2, 60, 58
8, 136296, Note_on_c, 2, 60, 0
8, 136320, Note_on_c, 2, 59, 58
8, 136416, Note_on_c, 2, 59, 0
8, 136440, Note_on_c, 2, 59, 58
8, 136536, Note_on_c, 2, 59, 0
8, 136560, Note_on_c, 2, 59, 58
8, 136656, Note_on_c, 2, 59, 0
8, 136680, Note_on_c, 2, 59, 58
8, 136776, Note_on_c, 2, 59, 0
8, 136800, Note_on_c, 2, 60, 58
8, 136896, Note_on_c, 2, 60, 0
8, 136920, Note_on_c, 2, 60, 58
8, 137016, Note_on_c, 2, 60, 0
8, 137040, Note_on_c, 2, 60, 58
8, 137136, Note_on_c, 2, 60, 0
8, 137160, Note_on_c, 2, 60, 58
8, 137256, Note_on_c, 2, 60, 0
8, 137280, Note_on_c, 2, 59, 58
8, 137376, Note_on_c, 2, 59, 0
8, 137400, Note_on_c, 2, 59, 58
8, 137496, Note_on_c, 2, 59, 0
8, 137520, Note_on_c, 2, 65, 58
8, 137616, Note_on_c, 2, 65, 0
8, 137640, Note_on_c, 2, 65, 58
8, 137736, Note_on_c, 2, 65, 0
8, 137760, Note_on_c, 2, 64, 58
8, 137856, Note_on_c, 2, 64, 0
8, 137880, Note_on_c, 2, 64, 58
8, 137976, Note_on_c, 2, 64, 0
8, 138000, Note_on_c, 2, 63, 58
8, 138096, Note_on_c, 2, 63, 0
8, 138120, Note_on_c, 2, 63, 58
8, 138216, Note_on_c, 2, 63, 0
8, 138240, Note_on_c, 2, 62, 58
8, 138336, Note_on_c, 2, 62, 0
8, 138360, Note_on_c, 2, 62, 58
8, 138456, Note_on_c, 2, 62, 0
8, 138480, Note_on_c, 2, 65, 58
8, 138576, Note_on_c, 2, 65, 0
8, 138600, Note_on_c, 2, 65, 58
8, 138696, Note_on_c, 2, 65, 0
8, 138720, Note_on_c, 2, 64, 58
8, 138816, Note_on_c, 2, 64, 0
8, 138840, Note_on_c, 2, 64, 58
8, 138936, Note_on_c, 2, 64, 0
8, 138960, Note_on_c, 2, 63, 58
8, 139056, Note_on_c, 2, 63, 0
8, 139080, Note_on_c, 2, 63, 58
8, 139176, Note_on_c, 2, 63, 0
8, 139200, Note_on_c, 2, 62, 58
8, 139296, Note_on_c, 2, 62, 0
8, 139320, Note_on_c, 2, 62, 58
8, 139416, Note_on_c, 2, 62, 0
8, 139440, Note_on_c, 2, 56, 58
8, 139536, Note_on_c, 2, 56, 0
8, 139560, Note_on_c, 2, 56, 58
8, 139656, Note_on_c, 2, 56, 0
8, 139680, Note_on_c, 2, 55, 58
8, 139776, Note_on_c, 2, 55, 0
8, 139800, Note_on_c, 2, 55, 58
8, 139896, Note_on_c, 2, 55, 0
8, 139920, Note_on_c, 2, 60, 58
8, 140016, Note_on_c, 2, 60, 0
8, 140040, Note_on_c, 2, 60, 58
8, 140136, Note_on_c, 2, 60, 0
8, 140160, Note_on_c, 2, 59, 58
8, 140256, Note_on_c, 2, 59, 0
8, 140280, Note_on_c, 2, 59, 58
8, 140376, Note_on_c, 2, 59, 0
8, 140400, Note_on_c, 2, 58, 58
8, 140496, Note_on_c, 2, 58, 0
8, 140520, Note_on_c, 2, 58, 58
8, 140616, Note_on_c, 2, 58, 0
8, 140640, Note_on_c, 2, 59, 58
8, 140736, Note_on_c, 2, 59, 0
8, 140760, Note_on_c, 2, 59, 58
8, 140856, Note_on_c, 2, 59, 0
8, 140880, Note_on_c, 2, 62, 58
8, 140976, Note_on_c, 2, 62, 0
8, 141000, Note_on_c, 2, 62, 58
8, 141096, Note_on_c, 2, 62, 0
8, 141120, Note_on_c, 2, 60, 58
8, 141216, Note_on_c, 2, 60, 0
8, 141240, Note_on_c, 2, 60, 58
8, 141336, Note_on_c, 2, 60, 0
8, 141360, Note_on_c, 2, 59, 58
8, 141456, Note_on_c, 2, 59, 0
8, 141480, Note_on_c, 2, 59, 58
8, 141576, Note_on_c, 2, 59, 0
8, 141600, Note_on_c, 2, 60, 58
8, 141696, Note_on_c, 2, 60, 0
8, 141720, Note_on_c, 2, 60, 58
8, 141816, Note_on_c, 2, 60, 0
8, 141840, Note_on_c, 2, 63, 58
8, 141936, Note_on_c, 2, 63, 0
8, 141960, Note_on_c, 2, 63, 58
8, 142056, Note_on_c, 2, 63, 0
8, 142080, Note_on_c, 2, 62, 58
8, 142176, Note_on_c, 2, 62, 0
8, 142200, Note_on_c, 2, 62, 58
8, 142296, Note_on_c, 2, 62, 0
8, 142320, Note_on_c, 2, 61, 58
8, 142416, Note_on_c, 2, 61, 0
8, 142440, Note_on_c, 2, 61, 58
8, 142536, Note_on_c, 2, 61, 0
8, 142560, Note_on_c, 2, 62, 58
8, 142656, Note_on_c, 2, 62, 0
8, 142680, Note_on_c, 2, 62, 58
8, 142776, Note_on_c, 2, 62, 0
8, 142800, Note_on_c, 2, 65, 58
8, 142896, Note_on_c, 2, 65, 0
8, 142920, Note_on_c, 2, 65, 58
8, 143016, Note_on_c, 2, 65, 0
8, 143040, Note_on_c, 2, 64, 58
8, 143280, Note_on_c, 2, 64, 0
8, 143280, Note_on_c, 2, 55, 58
8, 143520, Note_on_c, 2, 55, 0
8, 143520, Note_on_c, 2, 60, 58
8, 143760, Note_on_c, 2, 60, 0
8, 143760, Note_on_c, 2, 55, 58
8, 143952, Note_on_c, 2, 55, 0
8, 144000, Note_on_c, 2, 60, 58
8, 144240, Note_on_c, 2, 60, 0
8, 144240, Note_on_c, 2, 55, 58
8, 144480, Note_on_c, 2, 55, 0
8, 144480, Note_on_c, 2, 60, 58
8, 144720, Note_on_c, 2, 60, 0
8, 144720, Note_on_c, 2, 64, 58
8, 144912, Note_on_c, 2, 64, 0
8, 144960, Note_on_c, 2, 62, 58
8, 145200, Note_on_c, 2, 62, 0
8, 145200, Note_on_c, 2, 59, 58
8, 145440, Note_on_c, 2, 59, 0
8, 145440, Note_on_c, 2, 62, 58
8, 145680, Note_on_c, 2, 62, 0
8, 145680, Note_on_c, 2, 65, 58
8, 145872, Note_on_c, 2, 65, 0
8, 145920, Note_on_c, 2, 64, 58
8, 146280, Note_on_c, 2, 64, 0
8, 146280, Note_on_c, 2, 60, 58
8, 146376, Note_on_c, 2, 60, 0
8, 146400, Note_on_c, 2, 64, 58
8, 146592, Note_on_c, 2, 64, 0
8, 146880, Note_on_c, 2, 69, 58
8, 147024, Note_on_c, 2, 69, 0
8, 147120, Note_on_c, 2, 69, 58
8, 147600, Note_on_c, 2, 69, 0
8, 147600, Note_on_c, 2, 67, 58
8, 147792, Note_on_c, 2, 67, 0
8, 147840, Note_on_c, 2, 65, 58
8, 147984, Note_on_c, 2, 65, 0
8, 148080, Note_on_c, 2, 65, 58
8, 148560, Note_on_c, 2, 65, 0
8, 148560, Note_on_c, 2, 64, 58
8, 148752, Note_on_c, 2, 64, 0
8, 148800, Note_on_c, 2, 64, 58
8, 149040, Note_on_c, 2, 64, 0
8, 149040, Note_on_c, 2, 62, 58
8, 149160, Note_on_c, 2, 62, 0
8, 149280, Note_on_c, 2, 62, 58
8, 149520, Note_on_c, 2, 62, 0
8, 149520, Note_on_c, 2, 60, 58
8, 149640, Note_on_c, 2, 60, 0
8, 149760, Note_on_c, 2, 64, 58
8, 150048, Note_on_c, 2, 64, 0
8, 150120, Note_on_c, 2, 60, 58
8, 150216, Note_on_c, 2, 60, 0
8, 150240, Note_on_c, 2, 59, 58
8, 150432, Note_on_c, 2, 59, 0
8, 150720, Note_on_c, 2, 60, 105
8, 150960, Note_on_c, 2, 60, 0
8, 150960, Note_on_c, 2, 55, 105
8, 151200, Note_on_c, 2, 55, 0
8, 151200, Note_on_c, 2, 60, 105
8, 151440, Note_on_c, 2, 60, 0
8, 151440, Note_on_c, 2, 55, 105
8, 151632, Note_on_c, 2, 55, 0
8, 151680, Note_on_c, 2, 60, 105
8, 151920, Note_on_c, 2, 60, 0
8, 151920, Note_on_c, 2, 55, 105
8, 152160, Note_on_c, 2, 55, 0
8, 152160, Note_on_c, 2, 60, 105
8, 152400, Note_on_c, 2, 60, 0
8, 152400, Note_on_c, 2, 64, 105
8, 152592, Note_on_c, 2, 64, 0
8, 152640, Note_on_c, 2, 62, 105
8, 152880, Note_on_c, 2, 62, 0
8, 152880, Note_on_c, 2, 59, 105
8, 153120, Note_on_c, 2, 59, 0
8, 153120, Note_on_c, 2, 62, 105
8, 153360, Note_on_c, 2, 62, 0
8, 153360, Note_on_c, 2, 65, 105
8, 153552, Note_on_c, 2, 65, 0
8, 153600, Note_on_c, 2, 64, 105
8, 153960, Note_on_c, 2, 64, 0
8, 153960, Note_on_c, 2, 60, 105
8, 154056, Note_on_c, 2, 60, 0
8, 154080, Note_on_c, 2, 64, 92
8, 154272, Note_on_c, 2, 64, 0
8, 154560, Note_on_c, 2, 67, 105
8, 154800, Note_on_c, 2, 67, 0
8, 154800, Note_on_c, 2, 72, 105
8, 154920, Note_on_c, 2, 72, 0
8, 155040, Note_on_c, 2, 60, 105
8, 155280, Note_on_c, 2, 60, 0
8, 155280, Note_on_c, 2, 67, 105
8, 155400, Note_on_c, 2, 67, 0
8, 155520, Note_on_c, 2, 69, 105
8, 155760, Note_on_c, 2, 69, 0
8, 155760, Note_on_c, 2, 72, 105
8, 155952, Note_on_c, 2, 72, 0
8, 156000, Note_on_c, 2, 71, 105
8, 156120, Note_on_c, 2, 71, 0
8, 156120, Note_on_c, 2, 69, 105
8, 156240, Note_on_c, 2, 69, 0
8, 156240, Note_on_c, 2, 67, 105
8, 156360, Note_on_c, 2, 67, 0
8, 156360, Note_on_c, 2, 65, 105
8, 156456, Note_on_c, 2, 65, 0
8, 156480, Note_on_c, 2, 64, 105
8, 156864, Note_on_c, 2, 64, 0
8, 156960, Note_on_c, 2, 67, 105
8, 157080, Note_on_c, 2, 67, 0
8, 157080, Note_on_c, 2, 65, 105
8, 157200, Note_on_c, 2, 65, 0
8, 157200, Note_on_c, 2, 64, 105
8, 157320, Note_on_c, 2, 64, 0
8, 157320, Note_on_c, 2, 65, 105
8, 157416, Note_on_c, 2, 65, 0
8, 157440, Note_on_c, 2, 64, 92
8, 157824, Note_on_c, 2, 64, 0
8, 159360, Note_on_c, 2, 62, 72
8, 159552, Note_on_c, 2, 62, 0
8, 159600, Note_on_c, 2, 62, 72
8, 159792, Note_on_c, 2, 62, 0
8, 159840, Note_on_c, 2, 62, 72
8, 160032, Note_on_c, 2, 62, 0
8, 160080, Note_on_c, 2, 62, 72
8, 160272, Note_on_c, 2, 62, 0
8, 160320, Note_on_c, 2, 64, 72
8, 160512, Note_on_c, 2, 64, 0
8, 160560, Note_on_c, 2, 64, 72
8, 160752, Note_on_c, 2, 64, 0
8, 160800, Note_on_c, 2, 67, 72
8, 160992, Note_on_c, 2, 67, 0
8, 161040, Note_on_c, 2, 67, 72
8, 161232, Note_on_c, 2, 67, 0
8, 161280, Note_on_c, 2, 72, 72
8, 161760, Note_on_c, 2, 72, 0
8, 161760, Note_on_c, 2, 71, 72
8, 161952, Note_on_c, 2, 71, 0
8, 163200, Note_on_c, 2, 62, 72
8, 163392, Note_on_c, 2, 62, 0
8, 163440, Note_on_c, 2, 62, 72
8, 163632, Note_on_c, 2, 62, 0
8, 163680, Note_on_c, 2, 65, 72
8, 163872, Note_on_c, 2, 65, 0
8, 163920, Note_on_c, 2, 65, 81
8, 164112, Note_on_c, 2, 65, 0
8, 164160, Note_on_c, 2, 64, 92
8, 164352, Note_on_c, 2, 64, 0
8, 164400, Note_on_c, 2, 64, 92
8, 164592, Note_on_c, 2, 64, 0
8, 164640, Note_on_c, 2, 60, 105
8, 164832, Note_on_c, 2, 60, 0
8, 164880, Note_on_c, 2, 60, 105
8, 165072, Note_on_c, 2, 60, 0
8, 165120, Note_on_c, 2, 59, 105
8, 165504, Note_on_c, 2, 59, 0
8, 166080, Note_on_c, 2, 60, 58
8, 166320, Note_on_c, 2, 60, 0
8, 166320, Note_on_c, 2, 55, 58
8, 166560, Note_on_c, 2, 55, 0
8, 166560, Note_on_c, 2, 60, 58
8, 166800, Note_on_c, 2, 60, 0
8, 166800, Note_on_c, 2, 55, 58
8, 166992, Note_on_c, 2, 55, 0
8, 167040, Note_on_c, 2, 61, 58
8, 167280, Note_on_c, 2, 61, 0
8, 167280, Note_on_c, 2, 55, 58
8, 167520, Note_on_c, 2, 55, 0
8, 167520, Note_on_c, 2, 61, 58
8, 167760, Note_on_c, 2, 61, 0
8, 167760, Note_on_c, 2, 64, 58
8, 167952, Note_on_c, 2, 64, 0
8, 168000, Note_on_c, 2, 62, 58
8, 168240, Note_on_c, 2, 62, 0
8, 168240, Note_on_c, 2, 57, 58
8, 168480, Note_on_c, 2, 57, 0
8, 168480, Note_on_c, 2, 62, 58
8, 168720, Note_on_c, 2, 62, 0
8, 168720, Note_on_c, 2, 65, 58
8, 168912, Note_on_c, 2, 65, 0
8, 168960, Note_on_c, 2, 64, 58
8, 169320, Note_on_c, 2, 64, 0
8, 169320, Note_on_c, 2, 60, 58
8, 169416, Note_on_c, 2, 60, 0
8, 169440, Note_on_c, 2, 64, 58
8, 169632, Note_on_c, 2, 64, 0
8, 169920, Note_on_c, 2, 72, 105
8, 170160, Note_on_c, 2, 72, 0
8, 170160, Note_on_c, 2, 64, 105
8, 170256, Note_on_c, 2, 64, 0
8, 170400, Note_on_c, 2, 65, 105
8, 170640, Note_on_c, 2, 65, 0
8, 170640, Note_on_c, 2, 71, 105
8, 170736, Note_on_c, 2, 71, 0
8, 170880, Note_on_c, 2, 72, 105
8, 171120, Note_on_c, 2, 72, 0
8, 171120, Note_on_c, 2, 64, 105
8, 171240, Note_on_c, 2, 64, 0
8, 171360, Note_on_c, 2, 72, 105
8, 171600, Note_on_c, 2, 72, 0
8, 171600, Note_on_c, 2, 62, 105
8, 171720, Note_on_c, 2, 62, 0
8, 171840, Note_on_c, 2, 64, 105
8, 172224, Note_on_c, 2, 64, 0
8, 172320, Note_on_c, 2, 67, 105
8, 172440, Note_on_c, 2, 67, 0
8, 172440, Note_on_c, 2, 65, 105
8, 172560, Note_on_c, 2, 65, 0
8, 172560, Note_on_c, 2, 64, 105
8, 172680, Note_on_c, 2, 64, 0
8, 172680, Note_on_c, 2, 65, 105
8, 172776, Note_on_c, 2, 65, 0
8, 172800, Note_on_c, 2, 64, 92
8, 173184, Note_on_c, 2, 64, 0
8, 173760, Note_on_c, 2, 79, 112
8, 173760, Note_on_c, 2, 72, 92
8, 173760, Note_on_c, 2, 64, 92
8, 174144, Note_on_c, 2, 64, 0
8, 174144, Note_on_c, 2, 72, 0
8, 174144, Note_on_c, 2, 79, 0
8, 174720, Note_on_c, 2, 77, 112
8, 174720, Note_on_c, 2, 65, 92
8, 174720, Note_on_c, 2, 72, 92
8, 175104, Note_on_c, 2, 72, 0
8, 175104, Note_on_c, 2, 65, 0
8, 175104, Note_on_c, 2, 77, 0
8, 175680, Note_on_c, 2, 81, 112
8, 175680, Note_on_c, 2, 69, 92
8, 175680, Note_on_c, 2, 62, 92
8, 176064, Note_on_c, 2, 62, 0
8, 176064, Note_on_c, 2, 69, 0
8, 176064, Note_on_c, 2, 81, 0
8, 176640, Note_on_c, 2, 64, 58
8, 177360, Note_on_c, 2, 64, 0
8, 177360, Note_on_c, 2, 65, 58
8, 177420, Note_on_c, 2, 65, 0
8, 177420, Note_on_c, 2, 64, 58
8, 177480, Note_on_c, 2, 64, 0
8, 177480, Note_on_c, 2, 62, 58
8, 177540, Note_on_c, 2, 62, 0
8, 177540, Note_on_c, 2, 64, 58
8, 177588, Note_on_c, 2, 64, 0
8, 177600, Note_on_c, 2, 67, 58
8, 178080, Note_on_c, 2, 67, 0
8, 178080, Note_on_c, 2, 65, 58
8, 178440, Note_on_c, 2, 65, 0
8, 178440, Note_on_c, 2, 64, 58
8, 178512, Note_on_c, 2, 64, 0
8, 178560, Note_on_c, 2, 64, 58
8, 178800, Note_on_c, 2, 64, 0
8, 178800, Note_on_c, 2, 55, 58
8, 179040, Note_on_c, 2, 55, 0
8, 179040, Note_on_c, 2, 60, 58
8, 179280, Note_on_c, 2, 60, 0
8, 179280, Note_on_c, 2, 55, 58
8, 179520, Note_on_c, 2, 55, 0
8, 179520, Note_on_c, 2, 60, 58
8, 179760, Note_on_c, 2, 60, 0
8, 179760, Note_on_c, 2, 55, 58
8, 180000, Note_on_c, 2, 55, 0
8, 180000, Note_on_c, 2, 60, 58
8, 180240, Note_on_c, 2, 60, 0
8, 180240, Note_on_c, 2, 55, 58
8, 180432, Note_on_c, 2, 55, 0
8, 180480, Note_on_c, 2, 60, 58
8, 180720, Note_on_c, 2, 60, 0
8, 180720, Note_on_c, 2, 55, 58
8, 180960, Note_on_c, 2, 55, 0
8, 180960, Note_on_c, 2, 60, 58
8, 181200, Note_on_c, 2, 60, 0
8, 181200, Note_on_c, 2, 64, 58
8, 181440, Note_on_c, 2, 64, 0
8, 181440, Note_on_c, 2, 62, 58
8, 181680, Note_on_c, 2, 62, 0
8, 181680, Note_on_c, 2, 59, 58
8, 181920, Note_on_c, 2, 59, 0
8, 181920, Note_on_c, 2, 62, 58
8, 182160, Note_on_c, 2, 62, 0
8, 182160, Note_on_c, 2, 65, 58
8, 182352, Note_on_c, 2, 65, 0
8, 182400, Note_on_c, 2, 65, 58
8, 182640, Note_on_c, 2, 65, 0
8, 182640, Note_on_c, 2, 62, 58
8, 182880, Note_on_c, 2, 62, 0
8, 182880, Note_on_c, 2, 64, 58
8, 183120, Note_on_c, 2, 64, 0
8, 183120, Note_on_c, 2, 59, 58
8, 183360, Note_on_c, 2, 59, 0
8, 183360, Note_on_c, 2, 60, 58
8, 183600, Note_on_c, 2, 60, 0
8, 183600, Note_on_c, 2, 55, 58
8, 183840, Note_on_c, 2, 55, 0
8, 183840, Note_on_c, 2, 60, 58
8, 184080, Note_on_c, 2, 60, 0
8, 184080, Note_on_c, 2, 55, 58
8, 184272, Note_on_c, 2, 55, 0
8, 184320, Note_on_c, 2, 60, 58
8, 184560, Note_on_c, 2, 60, 0
8, 184560, Note_on_c, 2, 55, 58
8, 184800, Note_on_c, 2, 55, 0
8, 184800, Note_on_c, 2, 60, 58
8, 185040, Note_on_c, 2, 60, 0
8, 185040, Note_on_c, 2, 64, 58
8, 185280, Note_on_c, 2, 64, 0
8, 185280, Note_on_c, 2, 62, 58
8, 185520, Note_on_c, 2, 62, 0
8, 185520, Note_on_c, 2, 59, 58
8, 185760, Note_on_c, 2, 59, 0
8, 185760, Note_on_c, 2, 62, 58
8, 186000, Note_on_c, 2, 62, 0
8, 186000, Note_on_c, 2, 65, 58
8, 186192, Note_on_c, 2, 65, 0
8, 186240, Note_on_c, 2, 71, 58
8, 187200, Note_on_c, 2, 71, 0
8, 187200, Note_on_c, 2, 72, 30
8, 187440, Note_on_c, 2, 72, 0
8, 187440, End_track
9, 0, Start_track
9, 0, Program_c, 3, 41
9, 0, Control_c, 3, 10, 30
9, 0, Control_c, 3, 91, 85
9, 9600, Note_on_c, 3, 67, 92
9, 10512, Note_on_c, 3, 67, 0
9, 10560, Note_on_c, 3, 72, 92
9, 10590, Note_on_c, 3, 72, 0
9, 10590, Note_on_c, 3, 71, 92
9, 10620, Note_on_c, 3, 71, 0
9, 10620, Note_on_c, 3, 72, 92
9, 10650, Note_on_c, 3, 72, 0
9, 10650, Note_on_c, 3, 71, 92
9, 10680, Note_on_c, 3, 71, 0
9, 10680, Note_on_c, 3, 72, 92
9, 10710, Note_on_c, 3, 72, 0
9, 10710, Note_on_c, 3, 71, 92
9, 10740, Note_on_c, 3, 71, 0
9, 10740, Note_on_c, 3, 72, 92
9, 10770, Note_on_c, 3, 72, 0
9, 10770, Note_on_c, 3, 71, 92
9, 10800, Note_on_c, 3, 71, 0
9, 10800, Note_on_c, 3, 72, 92
9, 10830, Note_on_c, 3, 72, 0
9, 10830, Note_on_c, 3, 71, 92
9, 10860, Note_on_c, 3, 71, 0
9, 10860, Note_on_c, 3, 72, 92
9, 10890, Note_on_c, 3, 72, 0
9, 10890, Note_on_c, 3, 71, 92
9, 10920, Note_on_c, 3, 71, 0
9, 10920, Note_on_c, 3, 72, 92
9, 10950, Note_on_c, 3, 72, 0
9, 10950, Note_on_c, 3, 71, 92
9, 10980, Note_on_c, 3, 71, 0
9, 10980, Note_on_c, 3, 72, 92
9, 11010, Note_on_c, 3, 72, 0
9, 11010, Note_on_c, 3, 71, 92
9, 11040, Note_on_c, 3, 71, 0
9, 11040, Note_on_c, 3, 72, 92
9, 11070, Note_on_c, 3, 72, 0
9, 11070, Note_on_c, 3, 71, 92
9, 11100, Note_on_c, 3, 71, 0
9, 11100, Note_on_c, 3, 72, 92
9, 11130, Note_on_c, 3, 72, 0
9, 11130, Note_on_c, 3, 71, 92
9, 11160, Note_on_c, 3, 71, 0
9, 11160, Note_on_c, 3, 72, 92
9, 11190, Note_on_c, 3, 72, 0
9, 11190, Note_on_c, 3, 71, 92
9, 11220, Note_on_c, 3, 71, 0
9, 11220, Note_on_c, 3, 72, 92
9, 11250, Note_on_c, 3, 72, 0
9, 11250, Note_on_c, 3, 71, 92
9, 11280, Note_on_c, 3, 71, 0
9, 11280, Note_on_c, 3, 69, 92
9, 11400, Note_on_c, 3, 69, 0
9, 11400, Note_on_c, 3, 71, 92
9, 11520, Note_on_c, 3, 71, 0
9, 11520, Note_on_c, 3, 72, 92
9, 11904, Note_on_c, 3, 72, 0
9, 12480, Note_on_c, 3, 64, 92
9, 12864, Note_on_c, 3, 64, 0
9, 12960, Note_on_c, 3, 64, 92
9, 13344, Note_on_c, 3, 64, 0
9, 13440, Note_on_c, 3, 65, 92
9, 14160, Note_on_c, 3, 65, 0
9, 14160, Note_on_c, 3, 69, 92
9, 14352, Note_on_c, 3, 69, 0
9, 14400, Note_on_c, 3, 67, 92
9, 14784, Note_on_c, 3, 67, 0
9, 14880, Note_on_c, 3, 59, 92
9, 15264, Note_on_c, 3, 59, 0
9, 15360, Note_on_c, 3, 60, 92
9, 15744, Note_on_c, 3, 60, 0
9, 24960, Note_on_c, 3, 67, 92
9, 25872, Note_on_c, 3, 67, 0
9, 25920, Note_on_c, 3, 72, 92
9, 25950, Note_on_c, 3, 72, 0
9, 25950, Note_on_c, 3, 71, 92
9, 25980, Note_on_c, 3, 71, 0
9, 25980, Note_on_c, 3, 72, 92
9, 26010, Note_on_c, 3, 72, 0
9, 26010, Note_on_c, 3, 71, 92
9, 26040, Note_on_c, 3, 71, 0
9, 26040, Note_on_c, 3, 72, 92
9, 26070, Note_on_c, 3, 72, 0
9, 26070, Note_on_c, 3, 71, 92
9, 26100, Note_on_c, 3, 71, 0
9, 26100, Note_on_c, 3, 72, 92
9, 26130, Note_on_c, 3, 72, 0
9, 26130, Note_on_c, 3, 71, 92
9, 26160, Note_on_c, 3, 71, 0
9, 26160, Note_on_c, 3, 72, 92
9, 26190, Note_on_c, 3, 72, 0
9, 26190, Note_on_c, 3, 71, 92
9, 26220, Note_on_c, 3, 71, 0
9, 26220, Note_on_c, 3, 72, 92
9, 26250, Note_on_c, 3, 72, 0
9, 26250, Note_on_c, 3, 71, 92
9, 26280, Note_on_c, 3, 71, 0
9, 26280, Note_on_c, 3, 72, 92
9, 26310, Note_on_c, 3, 72, 0
9, 26310, Note_on_c, 3, 71, 92
9, 26340, Note_on_c, 3, 71, 0
9, 26340, Note_on_c, 3, 72, 92
9, 26370, Note_on_c, 3, 72, 0
9, 26370, Note_on_c, 3, 71, 92
9, 26400, Note_on_c, 3, 71, 0
9, 26400, Note_on_c, 3, 72, 92
9, 26430, Note_on_c, 3, 72, 0
9, 26430, Note_on_c, 3, 71, 92
9, 26460, Note_on_c, 3, 71, 0
9, 26460, Note_on_c, 3, 72, 92
9, 26490, Note_on_c, 3, 72, 0
9, 26490, Note_on_c, 3, 71, 92
9, 26520, Note_on_c, 3, 71, 0
9, 26520, Note_on_c, 3, 72, 92
9, 26550, Note_on_c, 3, 72, 0
9, 26550, Note_on_c, 3, 71, 92
9, 26580, Note_on_c, 3, 71, 0
9, 26580, Note_on_c, 3, 72, 92
9, 26610, Note_on_c, 3, 72, 0
9, 26610, Note_on_c, 3, 71, 92
9, 26640, Note_on_c, 3, 71, 0
9, 26640, Note_on_c, 3, 69, 92
9, 26760, Note_on_c, 3, 69, 0
9, 26760, Note_on_c, 3, 71, 92
9, 26880, Note_on_c, 3, 71, 0
9, 26880, Note_on_c, 3, 72, 92
9, 27264, Note_on_c, 3, 72, 0
9, 27840, Note_on_c, 3, 64, 92
9, 28224, Note_on_c, 3, 64, 0
9, 28320, Note_on_c, 3, 64, 92
9, 28704, Note_on_c, 3, 64, 0
9, 28800, Note_on_c, 3, 65, 92
9, 29520, Note_on_c, 3, 65, 0
9, 29520, Note_on_c, 3, 69, 92
9, 29712, Note_on_c, 3, 69, 0
9, 29760, Note_on_c, 3, 67, 92
9, 30144, Note_on_c, 3, 67, 0
9, 30240, Note_on_c, 3, 59, 92
9, 30624, Note_on_c, 3, 59, 0
9, 30720, Note_on_c, 3, 60, 92
9, 31104, Note_on_c, 3, 60, 0
9, 32640, Note_on_c, 3, 59, 58
9, 32832, Note_on_c, 3, 59, 0
9, 32880, Note_on_c, 3, 59, 58
9, 33072, Note_on_c, 3, 59, 0
9, 33120, Note_on_c, 3, 59, 58
9, 33312, Note_on_c, 3, 59, 0
9, 33360, Note_on_c, 3, 59, 58
9, 33552, Note_on_c, 3, 59, 0
9, 33600, Note_on_c, 3, 60, 58
9, 33792, Note_on_c, 3, 60, 0
9, 33840, Note_on_c, 3, 60, 58
9, 34032, Note_on_c, 3, 60, 0
9, 34080, Note_on_c, 3, 64, 58
9, 34272, Note_on_c, 3, 64, 0
9, 34320, Note_on_c, 3, 64, 58
9, 34512, Note_on_c, 3, 64, 0
9, 34560, Note_on_c, 3, 67, 58
9, 34944, Note_on_c, 3, 67, 0
9, 36480, Note_on_c, 3, 59, 72
9, 36672, Note_on_c, 3, 59, 0
9, 36720, Note_on_c, 3, 59, 72
9, 36912, Note_on_c, 3, 59, 0
9, 36960, Note_on_c, 3, 62, 81
9, 37152, Note_on_c, 3, 62, 0
9, 37200, Note_on_c, 3, 62, 81
9, 37392, Note_on_c, 3, 62, 0
9, 37440, Note_on_c, 3, 60, 92
9, 37632, Note_on_c, 3, 60, 0
9, 37680, Note_on_c, 3, 60, 92
9, 37872, Note_on_c, 3, 60, 0
9, 37920, Note_on_c, 3, 57, 105
9, 38112, Note_on_c, 3, 57, 0
9, 38160, Note_on_c, 3, 57, 105
9, 38352, Note_on_c, 3, 57, 0
9, 38400, Note_on_c, 3, 50, 105
9, 38784, Note_on_c, 3, 50, 0
9, 43200, Note_on_c, 3, 55, 92
9, 43200, Note_on_c, 3, 67, 92
9, 44544, Note_on_c, 3, 67, 0
9, 44544, Note_on_c, 3, 55, 0
9, 44640, Note_on_c, 3, 69, 92
9, 45048, Note_on_c, 3, 69, 0
9, 45120, Note_on_c, 3, 67, 92
9, 45528, Note_on_c, 3, 67, 0
9, 45600, Note_on_c, 3, 59, 92
9, 46008, Note_on_c, 3, 59, 0
9, 46080, Note_on_c, 3, 60, 92
9, 46464, Note_on_c, 3, 60, 0
9, 48000, Note_on_c, 3, 59, 58
9, 48192, Note_on_c, 3, 59, 0
9, 48240, Note_on_c, 3, 59, 58
9, 48432, Note_on_c, 3, 59, 0
9, 48480, Note_on_c, 3, 59, 58
9, 48672, Note_on_c, 3, 59, 0
9, 48720, Note_on_c, 3, 59, 58
9, 48912, Note_on_c, 3, 59, 0
9, 48960, Note_on_c, 3, 60, 58
9, 49152, Note_on_c, 3, 60, 0
9, 49200, Note_on_c, 3, 60, 58
9, 49392, Note_on_c, 3, 60, 0
9, 49440, Note_on_c, 3, 64, 58
9, 49632, Note_on_c, 3, 64, 0
9, 49680, Note_on_c, 3, 64, 58
9, 49872, Note_on_c, 3, 64, 0
9, 49920, Note_on_c, 3, 67, 58
9, 50304, Note_on_c, 3, 67, 0
9, 51840, Note_on_c, 3, 59, 72
9, 52032, Note_on_c, 3, 59, 0
9, 52080, Note_on_c, 3, 59, 72
9, 52272, Note_on_c, 3, 59, 0
9, 52320, Note_on_c, 3, 62, 81
9, 52512, Note_on_c, 3, 62, 0
9, 52560, Note_on_c, 3, 62, 81
9, 52752, Note_on_c, 3, 62, 0
9, 52800, Note_on_c, 3, 60, 92
9, 52992, Note_on_c, 3, 60, 0
9, 53040, Note_on_c, 3, 60, 92
9, 53232, Note_on_c, 3, 60, 0
9, 53280, Note_on_c, 3, 57, 105
9, 53472, Note_on_c, 3, 57, 0
9, 53520, Note_on_c, 3, 57, 105
9, 53712, Note_on_c, 3, 57, 0
9, 53760, Note_on_c, 3, 50, 105
9, 54144, Note_on_c, 3, 50, 0
9, 58560, Note_on_c, 3, 55, 92
9, 58560, Note_on_c, 3, 67, 92
9, 59904, Note_on_c, 3, 67, 0
9, 59904, Note_on_c, 3, 55, 0
9, 60000, Note_on_c, 3, 69, 92
9, 60408, Note_on_c, 3, 69, 0
9, 60480, Note_on_c, 3, 67, 92
9, 60888, Note_on_c, 3, 67, 0
9, 60960, Note_on_c, 3, 59, 92
9, 61368, Note_on_c, 3, 59, 0
9, 61440, Note_on_c, 3, 60, 92
9, 61824, Note_on_c, 3, 60, 0
9, 62400, Note_on_c, 3, 67, 58
9, 62544, Note_on_c, 3, 67, 0
9, 62640, Note_on_c, 3, 67, 58
9, 62784, Note_on_c, 3, 67, 0
9, 62880, Note_on_c, 3, 67, 58
9, 63024, Note_on_c, 3, 67, 0
9, 63120, Note_on_c, 3, 67, 58
9, 63264, Note_on_c, 3, 67, 0
9, 63360, Note_on_c, 3, 67, 58
9, 63744, Note_on_c, 3, 67, 0
9, 64320, Note_on_c, 3, 67, 58
9, 64464, Note_on_c, 3, 67, 0
9, 64560, Note_on_c, 3, 67, 58
9, 64704, Note_on_c, 3, 67, 0
9, 64800, Note_on_c, 3, 67, 58
9, 64944, Note_on_c, 3, 67, 0
9, 65040, Note_on_c, 3, 67, 58
9, 65184, Note_on_c, 3, 67, 0
9, 65280, Note_on_c, 3, 67, 58
9, 65664, Note_on_c, 3, 67, 0
9, 66240, Note_on_c, 3, 67, 58
9, 66384, Note_on_c, 3, 67, 0
9, 66480, Note_on_c, 3, 67, 58
9, 66624, Note_on_c, 3, 67, 0
9, 66720, Note_on_c, 3, 62, 58
9, 66864, Note_on_c, 3, 62, 0
9, 66960, Note_on_c, 3, 62, 58
9, 67104, Note_on_c, 3, 62, 0
9, 67200, Note_on_c, 3, 62, 58
9, 67584, Note_on_c, 3, 62, 0
9, 67920, Note_on_c, 3, 55, 58
9, 68064, Note_on_c, 3, 55, 0
9, 68160, Note_on_c, 3, 55, 58
9, 68544, Note_on_c, 3, 55, 0
9, 68880, Note_on_c, 3, 57, 58
9, 69024, Note_on_c, 3, 57, 0
9, 69120, Note_on_c, 3, 54, 58
9, 69600, Note_on_c, 3, 54, 0
9, 69600, Note_on_c, 3, 55, 58
9, 69792, Note_on_c, 3, 55, 0
9, 70080, Note_on_c, 3, 67, 58
9, 70224, Note_on_c, 3, 67, 0
9, 70320, Note_on_c, 3, 67, 58
9, 70464, Note_on_c, 3, 67, 0
9, 70560, Note_on_c, 3, 67, 58
9, 70704, Note_on_c, 3, 67, 0
9, 70800, Note_on_c, 3, 67, 58
9, 70944, Note_on_c, 3, 67, 0
9, 71040, Note_on_c, 3, 67, 58
9, 71424, Note_on_c, 3, 67, 0
9, 72000, Note_on_c, 3, 67, 58
9, 72144, Note_on_c, 3, 67, 0
9, 72240, Note_on_c, 3, 67, 58
9, 72384, Note_on_c, 3, 67, 0
9, 72480, Note_on_c, 3, 67, 58
9, 72624, Note_on_c, 3, 67, 0
9, 72720, Note_on_c, 3, 67, 58
9, 72864, Note_on_c, 3, 67, 0
9, 72960, Note_on_c, 3, 67, 58
9, 73344, Note_on_c, 3, 67, 0
9, 73920, Note_on_c, 3, 67, 58
9, 74064, Note_on_c, 3, 67, 0
9, 74160, Note_on_c, 3, 67, 58
9, 74304, Note_on_c, 3, 67, 0
9, 74400, Note_on_c, 3, 62, 58
9, 74544, Note_on_c, 3, 62, 0
9, 74640, Note_on_c, 3, 62, 58
9, 74784, Note_on_c, 3, 62, 0
9, 74880, Note_on_c, 3, 62, 58
9, 75264, Note_on_c, 3, 62, 0
9, 75600, Note_on_c, 3, 55, 58
9, 75744, Note_on_c, 3, 55, 0
9, 75840, Note_on_c, 3, 55, 58
9, 76224, Note_on_c, 3, 55, 0
9, 76560, Note_on_c, 3, 57, 58
9, 76704, Note_on_c, 3, 57, 0
9, 76800, Note_on_c, 3, 54, 58
9, 77280, Note_on_c, 3, 54, 0
9, 77280, Note_on_c, 3, 55, 58
9, 77472, Note_on_c, 3, 55, 0
9, 77760, Note_on_c, 3, 71, 58
9, 77904, Note_on_c, 3, 71, 0
9, 78000, Note_on_c, 3, 71, 58
9, 78144, Note_on_c, 3, 71, 0
9, 78240, Note_on_c, 3, 70, 58
9, 78384, Note_on_c, 3, 70, 0
9, 78480, Note_on_c, 3, 70, 58
9, 78624, Note_on_c, 3, 70, 0
9, 78720, Note_on_c, 3, 69, 58
9, 79104, Note_on_c, 3, 69, 0
9, 79680, Note_on_c, 3, 69, 58
9, 79824, Note_on_c, 3, 69, 0
9, 79920, Note_on_c, 3, 69, 58
9, 80064, Note_on_c, 3, 69, 0
9, 80160, Note_on_c, 3, 68, 58
9, 80304, Note_on_c, 3, 68, 0
9, 80400, Note_on_c, 3, 68, 58
9, 80544, Note_on_c, 3, 68, 0
9, 80640, Note_on_c, 3, 67, 58
9, 81024, Note_on_c, 3, 67, 0
9, 81600, Note_on_c, 3, 60, 58
9, 81744, Note_on_c, 3, 60, 0
9, 81840, Note_on_c, 3, 60, 58
9, 81984, Note_on_c, 3, 60, 0
9, 82080, Note_on_c, 3, 64, 58
9, 82224, Note_on_c, 3, 64, 0
9, 82320, Note_on_c, 3, 64, 58
9, 82464, Note_on_c, 3, 64, 0
9, 82560, Note_on_c, 3, 64, 58
9, 82944, Note_on_c, 3, 64, 0
9, 83280, Note_on_c, 3, 62, 58
9, 83520, Note_on_c, 3, 62, 0
9, 83520, Note_on_c, 3, 60, 58
9, 83904, Note_on_c, 3, 60, 0
9, 84240, Note_on_c, 3, 57, 58
9, 84480, Note_on_c, 3, 57, 0
9, 84480, Note_on_c, 3, 59, 58
9, 84864, Note_on_c, 3, 59, 0
9, 85200, Note_on_c, 3, 71, 58
9, 85440, Note_on_c, 3, 71, 0
9, 85440, Note_on_c, 3, 69, 58
9, 85584, Note_on_c, 3, 69, 0
9, 85680, Note_on_c, 3, 69, 58
9, 85824, Note_on_c, 3, 69, 0
9, 85920, Note_on_c, 3, 69, 58
9, 86064, Note_on_c, 3, 69, 0
9, 86160, Note_on_c, 3, 69, 58
9, 86304, Note_on_c, 3, 69, 0
9, 86400, Note_on_c, 3, 64, 58
9, 86784, Note_on_c, 3, 64, 0
9, 87120, Note_on_c, 3, 71, 58
9, 87360, Note_on_c, 3, 71, 0
9, 87360, Note_on_c, 3, 69, 58
9, 87744, Note_on_c, 3, 69, 0
9, 88080, Note_on_c, 3, 69, 58
9, 88320, Note_on_c, 3, 69, 0
9, 88320, Note_on_c, 3, 71, 58
9, 88704, Note_on_c, 3, 71, 0
9, 89040, Note_on_c, 3, 63, 58
9, 89280, Note_on_c, 3, 63, 0
9, 89280, Note_on_c, 3, 64, 58
9, 89664, Note_on_c, 3, 64, 0
9, 90960, Note_on_c, 3, 57, 72
9, 91104, Note_on_c, 3, 57, 0
9, 91200, Note_on_c, 3, 56, 72
9, 91440, Note_on_c, 3, 56, 0
9, 91440, Note_on_c, 3, 59, 72
9, 91584, Note_on_c, 3, 59, 0
9, 91680, Note_on_c, 3, 52, 72
9, 91824, Note_on_c, 3, 52, 0
9, 91920, Note_on_c, 3, 57, 58
9, 92064, Note_on_c, 3, 57, 0
9, 92160, Note_on_c, 3, 56, 58
9, 92400, Note_on_c, 3, 56, 0
9, 92400, Note_on_c, 3, 59, 58
9, 92544, Note_on_c, 3, 59, 0
9, 92640, Note_on_c, 3, 52, 58
9, 92784, Note_on_c, 3, 52, 0
9, 96240, Note_on_c, 3, 55, 58
9, 96480, Note_on_c, 3, 55, 0
9, 96480, Note_on_c, 3, 67, 58
9, 96624, Note_on_c, 3, 67, 0
9, 96720, Note_on_c, 3, 67, 58
9, 96864, Note_on_c, 3, 67, 0
9, 96960, Note_on_c, 3, 67, 58
9, 97344, Note_on_c, 3, 67, 0
9, 105600, Note_on_c, 3, 67, 92
9, 106512, Note_on_c, 3, 67, 0
9, 106560, Note_on_c, 3, 72, 92
9, 106590, Note_on_c, 3, 72, 0
9, 106590, Note_on_c, 3, 71, 92
9, 106620, Note_on_c, 3, 71, 0
9, 106620, Note_on_c, 3, 72, 92
9, 106650, Note_on_c, 3, 72, 0
9, 106650, Note_on_c, 3, 71, 92
9, 106680, Note_on_c, 3, 71, 0
9, 106680, Note_on_c, 3, 72, 92
9, 106710, Note_on_c, 3, 72, 0
9, 106710, Note_on_c, 3, 71, 92
9, 106740, Note_on_c, 3, 71, 0
9, 106740, Note_on_c, 3, 72, 92
9, 106770, Note_on_c, 3, 72, 0
9, 106770, Note_on_c, 3, 71, 92
9, 106800, Note_on_c, 3, 71, 0
9, 106800, Note_on_c, 3, 72, 92
9, 106830, Note_on_c, 3, 72, 0
9, 106830, Note_on_c, 3, 71, 92
9, 106860, Note_on_c, 3, 71, 0
9, 106860, Note_on_c, 3, 72, 92
9, 106890, Note_on_c, 3, 72, 0
9, 106890, Note_on_c, 3, 71, 92
9, 106920, Note_on_c, 3, 71, 0
9, 106920, Note_on_c, 3, 72, 92
9, 106950, Note_on_c, 3, 72, 0
9, 106950, Note_on_c, 3, 71, 92
9, 106980, Note_on_c, 3, 71, 0
9, 106980, Note_on_c, 3, 72, 92
9, 107010, Note_on_c, 3, 72, 0
9, 107010, Note_on_c, 3, 71, 92
9, 107040, Note_on_c, 3, 71, 0
9, 107040, Note_on_c, 3, 72, 92
9, 107070, Note_on_c, 3, 72, 0
9, 107070, Note_on_c, 3, 71, 92
9, 107100, Note_on_c, 3, 71, 0
9, 107100, Note_on_c, 3, 72, 92
9, 107130, Note_on_c, 3, 72, 0
9, 107130, Note_on_c, 3, 71, 92
9, 107160, Note_on_c, 3, 71, 0
9, 107160, Note_on_c, 3, 72, 92
9, 107190, Note_on_c, 3, 72, 0
9, 107190, Note_on_c, 3, 71, 92
9, 107220, Note_on_c, 3, 71, 0
9, 107220, Note_on_c, 3, 72, 92
9, 107250, Note_on_c, 3, 72, 0
9, 107250, Note_on_c, 3, 71, 92
9, 107280, Note_on_c, 3, 71, 0
9, 107280, Note_on_c, 3, 69, 92
9, 107400, Note_on_c, 3, 69, 0
9, 107400, Note_on_c, 3, 71, 92
9, 107520, Note_on_c, 3, 71, 0
9, 107520, Note_on_c, 3, 72, 92
9, 107904, Note_on_c, 3, 72, 0
9, 108480, Note_on_c, 3, 64, 92
9, 108864, Note_on_c, 3, 64, 0
9, 108960, Note_on_c, 3, 64, 92
9, 109344, Note_on_c, 3, 64, 0
9, 109440, Note_on_c, 3, 65, 92
9, 110160, Note_on_c, 3, 65, 0
9, 110160, Note_on_c, 3, 69, 92
9, 110352, Note_on_c, 3, 69, 0
9, 110400, Note_on_c, 3, 67, 92
9, 110784, Note_on_c, 3, 67, 0
9, 110880, Note_on_c, 3, 59, 92
9, 111264, Note_on_c, 3, 59, 0
9, 111360, Note_on_c, 3, 60, 92
9, 111744, Note_on_c, 3, 60, 0
9, 112320, Note_on_c, 3, 60, 58
9, 112416, Note_on_c, 3, 60, 0
9, 112440, Note_on_c, 3, 60, 58
9, 112536, Note_on_c, 3, 60, 0
9, 112560, Note_on_c, 3, 59, 58
9, 112656, Note_on_c, 3, 59, 0
9, 112680, Note_on_c, 3, 59, 58
9, 112776, Note_on_c, 3, 59, 0
9, 112800, Note_on_c, 3, 60, 58
9, 112896, Note_on_c, 3, 60, 0
9, 112920, Note_on_c, 3, 60, 58
9, 113016, Note_on_c, 3, 60, 0
9, 113040, Note_on_c, 3, 62, 58
9, 113136, Note_on_c, 3, 62, 0
9, 113160, Note_on_c, 3, 62, 58
9, 113256, Note_on_c, 3, 62, 0
9, 113280, Note_on_c, 3, 63, 58
9, 113376, Note_on_c, 3, 63, 0
9, 113400, Note_on_c, 3, 63, 58
9, 113496, Note_on_c, 3, 63, 0
9, 113520, Note_on_c, 3, 65, 58
9, 113616, Note_on_c, 3, 65, 0
9, 113640, Note_on_c, 3, 65, 58
9, 113736, Note_on_c, 3, 65, 0
9, 113760, Note_on_c, 3, 63, 58
9, 113856, Note_on_c, 3, 63, 0
9, 113880, Note_on_c, 3, 63, 58
9, 113976, Note_on_c, 3, 63, 0
9, 114000, Note_on_c, 3, 62, 58
9, 114096, Note_on_c, 3, 62, 0
9, 114120, Note_on_c, 3, 62, 58
9, 114216, Note_on_c, 3, 62, 0
9, 114240, Note_on_c, 3, 60, 58
9, 114336, Note_on_c, 3, 60, 0
9, 114360, Note_on_c, 3, 60, 58
9, 114456, Note_on_c, 3, 60, 0
9, 114480, Note_on_c, 3, 59, 58
9, 114576, Note_on_c, 3, 59, 0
9, 114600, Note_on_c, 3, 59, 58
9, 114696, Note_on_c, 3, 59, 0
9, 114720, Note_on_c, 3, 60, 58
9, 114816, Note_on_c, 3, 60, 0
9, 114840, Note_on_c, 3, 60, 58
9, 114936, Note_on_c, 3, 60, 0
9, 114960, Note_on_c, 3, 62, 58
9, 115056, Note_on_c, 3, 62, 0
9, 115080, Note_on_c, 3, 62, 58
9, 115176, Note_on_c, 3, 62, 0
9, 115200, Note_on_c, 3, 63, 58
9, 115296, Note_on_c, 3, 63, 0
9, 115320, Note_on_c, 3, 63, 58
9, 115416, Note_on_c, 3, 63, 0
9, 115440, Note_on_c, 3, 65, 58
9, 115536, Note_on_c, 3, 65, 0
9, 115560, Note_on_c, 3, 65, 58
9, 115656, Note_on_c, 3, 65, 0
9, 115680, Note_on_c, 3, 63, 58
9, 115776, Note_on_c, 3, 63, 0
9, 115800, Note_on_c, 3, 63, 58
9, 115896, Note_on_c, 3, 63, 0
9, 115920, Note_on_c, 3, 62, 58
9, 116016, Note_on_c, 3, 62, 0
9, 116040, Note_on_c, 3, 62, 58
9, 116136, Note_on_c, 3, 62, 0
9, 116160, Note_on_c, 3, 60, 58
9, 116256, Note_on_c, 3, 60, 0
9, 116280, Note_on_c, 3, 60, 58
9, 116376, Note_on_c, 3, 60, 0
9, 116400, Note_on_c, 3, 59, 58
9, 116496, Note_on_c, 3, 59, 0
9, 116520, Note_on_c, 3, 59, 58
9, 116616, Note_on_c, 3, 59, 0
9, 116640, Note_on_c, 3, 60, 58
9, 116736, Note_on_c, 3, 60, 0
9, 116760, Note_on_c, 3, 60, 58
9, 116856, Note_on_c, 3, 60, 0
9, 116880, Note_on_c, 3, 63, 58
9, 116976, Note_on_c, 3, 63, 0
9, 117000, Note_on_c, 3, 63, 58
9, 117096, Note_on_c, 3, 63, 0
9, 117120, Note_on_c, 3, 62, 78
9, 117216, Note_on_c, 3, 62, 0
9, 117240, Note_on_c, 3, 62, 58
9, 117336, Note_on_c, 3, 62, 0
9, 117360, Note_on_c, 3, 62, 58
9, 117456, Note_on_c, 3, 62, 0
9, 117480, Note_on_c, 3, 62, 58
9, 117576, Note_on_c, 3, 62, 0
9, 117600, Note_on_c, 3, 62, 58
9, 117696, Note_on_c, 3, 62, 0
9, 117720, Note_on_c, 3, 62, 58
9, 117816, Note_on_c, 3, 62, 0
9, 117840, Note_on_c, 3, 63, 58
9, 117936, Note_on_c, 3, 63, 0
9, 117960, Note_on_c, 3, 63, 58
9, 118056, Note_on_c, 3, 63, 0
9, 118080, Note_on_c, 3, 60, 58
9, 118176, Note_on_c, 3, 60, 0
9, 118200, Note_on_c, 3, 60, 58
9, 118296, Note_on_c, 3, 60, 0
9, 118320, Note_on_c, 3, 60, 58
9, 118416, Note_on_c, 3, 60, 0
9, 118440, Note_on_c, 3, 60, 58
9, 118536, Note_on_c, 3, 60, 0
9, 118560, Note_on_c, 3, 65, 58
9, 118656, Note_on_c, 3, 65, 0
9, 118680, Note_on_c, 3, 65, 58
9, 118776, Note_on_c, 3, 65, 0
9, 118800, Note_on_c, 3, 65, 58
9, 118896, Note_on_c, 3, 65, 0
9, 118920, Note_on_c, 3, 65, 58
9, 119016, Note_on_c, 3, 65, 0
9, 119040, Note_on_c, 3, 63, 58
9, 119136, Note_on_c, 3, 63, 0
9, 119160, Note_on_c, 3, 63, 58
9, 119256, Note_on_c, 3, 63, 0
9, 119280, Note_on_c, 3, 65, 58
9, 119376, Note_on_c, 3, 65, 0
9, 119400, Note_on_c, 3, 65, 58
9, 119496, Note_on_c, 3, 65, 0
9, 119520, Note_on_c, 3, 63, 58
9, 119616, Note_on_c, 3, 63, 0
9, 119640, Note_on_c, 3, 63, 58
9, 119736, Note_on_c, 3, 63, 0
9, 119760, Note_on_c, 3, 62, 58
9, 119856, Note_on_c, 3, 62, 0
9, 119880, Note_on_c, 3, 62, 58
9, 119976, Note_on_c, 3, 62, 0
9, 120000, Note_on_c, 3, 60, 58
9, 120096, Note_on_c, 3, 60, 0
9, 120120, Note_on_c, 3, 60, 58
9, 120216, Note_on_c, 3, 60, 0
9, 120240, Note_on_c, 3, 59, 58
9, 120336, Note_on_c, 3, 59, 0
9, 120360, Note_on_c, 3, 59, 58
9, 120456, Note_on_c, 3, 59, 0
9, 120480, Note_on_c, 3, 60, 58
9, 120576, Note_on_c, 3, 60, 0
9, 120600, Note_on_c, 3, 60, 58
9, 120696, Note_on_c, 3, 60, 0
9, 120720, Note_on_c, 3, 62, 58
9, 120816, Note_on_c, 3, 62, 0
9, 120840, Note_on_c, 3, 62, 58
9, 120936, Note_on_c, 3, 62, 0
9, 120960, Note_on_c, 3, 63, 58
9, 121056, Note_on_c, 3, 63, 0
9, 121080, Note_on_c, 3, 63, 58
9, 121176, Note_on_c, 3, 63, 0
9, 121200, Note_on_c, 3, 65, 58
9, 121296, Note_on_c, 3, 65, 0
9, 121320, Note_on_c, 3, 65, 58
9, 121416, Note_on_c, 3, 65, 0
9, 121440, Note_on_c, 3, 63, 58
9, 121536, Note_on_c, 3, 63, 0
9, 121560, Note_on_c, 3, 63, 58
9, 121656, Note_on_c, 3, 63, 0
9, 121680, Note_on_c, 3, 62, 58
9, 121776, Note_on_c, 3, 62, 0
9, 121800, Note_on_c, 3, 62, 58
9, 121896, Note_on_c, 3, 62, 0
9, 121920, Note_on_c, 3, 60, 58
9, 122016, Note_on_c, 3, 60, 0
9, 122040, Note_on_c, 3, 60, 58
9, 122136, Note_on_c, 3, 60, 0
9, 122160, Note_on_c, 3, 59, 58
9, 122256, Note_on_c, 3, 59, 0
9, 122280, Note_on_c, 3, 59, 58
9, 122376, Note_on_c, 3, 59, 0
9, 122400, Note_on_c, 3, 60, 58
9, 122496, Note_on_c, 3, 60, 0
9, 122520, Note_on_c, 3, 60, 58
9, 122616, Note_on_c, 3, 60, 0
9, 122640, Note_on_c, 3, 62, 58
9, 122736, Note_on_c, 3, 62, 0
9, 122760, Note_on_c, 3, 62, 58
9, 122856, Note_on_c, 3, 62, 0
9, 122880, Note_on_c, 3, 63, 58
9, 122976, Note_on_c, 3, 63, 0
9, 123000, Note_on_c, 3, 63, 58
9, 123096, Note_on_c, 3, 63, 0
9, 123120, Note_on_c, 3, 65, 58
9, 123216, Note_on_c, 3, 65, 0
9, 123240, Note_on_c, 3, 65, 58
9, 123336, Note_on_c, 3, 65, 0
9, 123360, Note_on_c, 3, 63, 58
9, 123456, Note_on_c, 3, 63, 0
9, 123480, Note_on_c, 3, 63, 58
9, 123576, Note_on_c, 3, 63, 0
9, 123600, Note_on_c, 3, 62, 58
9, 123696, Note_on_c, 3, 62, 0
9, 123720, Note_on_c, 3, 62, 58
9, 123816, Note_on_c, 3, 62, 0
9, 123840, Note_on_c, 3, 60, 58
9, 123936, Note_on_c, 3, 60, 0
9, 123960, Note_on_c, 3, 60, 58
9, 124056, Note_on_c, 3, 60, 0
9, 124080, Note_on_c, 3, 59, 58
9, 124176, Note_on_c, 3, 59, 0
9, 124200, Note_on_c, 3, 59, 58
9, 124296, Note_on_c, 3, 59, 0
9, 124320, Note_on_c, 3, 60, 58
9, 124416, Note_on_c, 3, 60, 0
9, 124440, Note_on_c, 3, 60, 58
9, 124536, Note_on_c, 3, 60, 0
9, 124560, Note_on_c, 3, 63, 58
9, 124656, Note_on_c, 3, 63, 0
9, 124680, Note_on_c, 3, 63, 58
9, 124776, Note_on_c, 3, 63, 0
9, 124800, Note_on_c, 3, 62, 78
9, 124896, Note_on_c, 3, 62, 0
9, 124920, Note_on_c, 3, 62, 58
9, 125016, Note_on_c, 3, 62, 0
9, 125040, Note_on_c, 3, 62, 58
9, 125136, Note_on_c, 3, 62, 0
9, 125160, Note_on_c, 3, 62, 58
9, 125256, Note_on_c, 3, 62, 0
9, 125280, Note_on_c, 3, 62, 58
9, 125376, Note_on_c, 3, 62, 0
9, 125400, Note_on_c, 3, 62, 58
9, 125496, Note_on_c, 3, 62, 0
9, 125520, Note_on_c, 3, 63, 58
9, 125616, Note_on_c, 3, 63, 0
9, 125640, Note_on_c, 3, 63, 58
9, 125736, Note_on_c, 3, 63, 0
9, 125760, Note_on_c, 3, 60, 58
9, 125856, Note_on_c, 3, 60, 0
9, 125880, Note_on_c, 3, 60, 58
9, 125976, Note_on_c, 3, 60, 0
9, 126000, Note_on_c, 3, 60, 58
9, 126096, Note_on_c, 3, 60, 0
9, 126120, Note_on_c, 3, 60, 58
9, 126216, Note_on_c, 3, 60, 0
9, 126240, Note_on_c, 3, 65, 58
9, 126336, Note_on_c, 3, 65, 0
9, 126360, Note_on_c, 3, 65, 58
9, 126456, Note_on_c, 3, 65, 0
9, 126480, Note_on_c, 3, 65, 58
9, 126576, Note_on_c, 3, 65, 0
9, 126600, Note_on_c, 3, 65, 58
9, 126696, Note_on_c, 3, 65, 0
9, 126720, Note_on_c, 3, 63, 58
9, 126816, Note_on_c, 3, 63, 0
9, 126840, Note_on_c, 3, 63, 58
9, 126936, Note_on_c, 3, 63, 0
9, 126960, Note_on_c, 3, 65, 58
9, 127056, Note_on_c, 3, 65, 0
9, 127080, Note_on_c, 3, 65, 58
9, 127176, Note_on_c, 3, 65, 0
9, 127200, Note_on_c, 3, 63, 58
9, 127296, Note_on_c, 3, 63, 0
9, 127320, Note_on_c, 3, 63, 58
9, 127416, Note_on_c, 3, 63, 0
9, 127440, Note_on_c, 3, 62, 58
9, 127536, Note_on_c, 3, 62, 0
9, 127560, Note_on_c, 3, 62, 58
9, 127656, Note_on_c, 3, 62, 0
9, 127680, Note_on_c, 3, 63, 58
9, 127776, Note_on_c, 3, 63, 0
9, 127800, Note_on_c, 3, 63, 58
9, 127896, Note_on_c, 3, 63, 0
9, 127920, Note_on_c, 3, 62, 58
9, 128016, Note_on_c, 3, 62, 0
9, 128040, Note_on_c, 3, 62, 58
9, 128136, Note_on_c, 3, 62, 0
9, 128160, Note_on_c, 3, 63, 58
9, 128256, Note_on_c, 3, 63, 0
9, 128280, Note_on_c, 3, 63, 58
9, 128376, Note_on_c, 3, 63, 0
9, 128400, Note_on_c, 3, 65, 58
9, 128496, Note_on_c, 3, 65, 0
9, 128520, Note_on_c, 3, 65, 58
9, 128616, Note_on_c, 3, 65, 0
9, 128640, Note_on_c, 3, 67, 58
9, 128736, Note_on_c, 3, 67, 0
9, 128760, Note_on_c, 3, 67, 58
9, 128856, Note_on_c, 3, 67, 0
9, 128880, Note_on_c, 3, 70, 58
9, 128976, Note_on_c, 3, 70, 0
9, 129000, Note_on_c, 3, 70, 58
9, 129096, Note_on_c, 3, 70, 0
9, 129120, Note_on_c, 3, 68, 58
9, 129216, Note_on_c, 3, 68, 0
9, 129240, Note_on_c, 3, 68, 58
9, 129336, Note_on_c, 3, 68, 0
9, 129360, Note_on_c, 3, 67, 58
9, 129456, Note_on_c, 3, 67, 0
9, 129480, Note_on_c, 3, 67, 58
9, 129576, Note_on_c, 3, 67, 0
9, 129600, Note_on_c, 3, 65, 58
9, 129696, Note_on_c, 3, 65, 0
9, 129720, Note_on_c, 3, 65, 58
9, 129816, Note_on_c, 3, 65, 0
9, 129840, Note_on_c, 3, 64, 58
9, 129936, Note_on_c, 3, 64, 0
9, 129960, Note_on_c, 3, 64, 58
9, 130056, Note_on_c, 3, 64, 0
9, 130080, Note_on_c, 3, 65, 58
9, 130176, Note_on_c, 3, 65, 0
9, 130200, Note_on_c, 3, 65, 58
9, 130296, Note_on_c, 3, 65, 0
9, 130320, Note_on_c, 3, 67, 58
9, 130416, Note_on_c, 3, 67, 0
9, 130440, Note_on_c, 3, 67, 58
9, 130536, Note_on_c, 3, 67, 0
9, 130560, Note_on_c, 3, 68, 58
9, 130656, Note_on_c, 3, 68, 0
9, 130680, Note_on_c, 3, 68, 58
9, 130776, Note_on_c, 3, 68, 0
9, 130800, Note_on_c, 3, 72, 58
9, 130896, Note_on_c, 3, 72, 0
9, 130920, Note_on_c, 3, 72, 58
9, 131016, Note_on_c, 3, 72, 0
9, 131040, Note_on_c, 3, 70, 58
9, 131136, Note_on_c, 3, 70, 0
9, 131160, Note_on_c, 3, 70, 58
9, 131256, Note_on_c, 3, 70, 0
9, 131280, Note_on_c, 3, 69, 58
9, 131376, Note_on_c, 3, 69, 0
9, 131400, Note_on_c, 3, 69, 58
9, 131496, Note_on_c, 3, 69, 0
9, 131520, Note_on_c, 3, 67, 58
9, 131616, Note_on_c, 3, 67, 0
9, 131640, Note_on_c, 3, 67, 58
9, 131736, Note_on_c, 3, 67, 0
9, 131760, Note_on_c, 3, 66, 58
9, 131856, Note_on_c, 3, 66, 0
9, 131880, Note_on_c, 3, 66, 58
9, 131976, Note_on_c, 3, 66, 0
9, 132000, Note_on_c, 3, 67, 58
9, 132096, Note_on_c, 3, 67, 0
9, 132120, Note_on_c, 3, 67, 58
9, 132216, Note_on_c, 3, 67, 0
9, 132240, Note_on_c, 3, 69, 58
9, 132336, Note_on_c, 3, 69, 0
9, 132360, Note_on_c, 3, 69, 58
9, 132456, Note_on_c, 3, 69, 0
9, 132480, Note_on_c, 3, 71, 58
9, 132576, Note_on_c, 3, 71, 0
9, 132600, Note_on_c, 3, 71, 58
9, 132696, Note_on_c, 3, 71, 0
9, 132720, Note_on_c, 3, 72, 58
9, 132816, Note_on_c, 3, 72, 0
9, 132840, Note_on_c, 3, 72, 58
9, 132936, Note_on_c, 3, 72, 0
9, 132960, Note_on_c, 3, 71, 58
9, 133056, Note_on_c, 3, 71, 0
9, 133080, Note_on_c, 3, 71, 58
9, 133176, Note_on_c, 3, 71, 0
9, 133200, Note_on_c, 3, 59, 58
9, 133296, Note_on_c, 3, 59, 0
9, 133320, Note_on_c, 3, 59, 58
9, 133416, Note_on_c, 3, 59, 0
9, 133440, Note_on_c, 3, 60, 58
9, 133536, Note_on_c, 3, 60, 0
9, 133560, Note_on_c, 3, 60, 58
9, 133656, Note_on_c, 3, 60, 0
9, 133680, Note_on_c, 3, 62, 58
9, 133776, Note_on_c, 3, 62, 0
9, 133800, Note_on_c, 3, 62, 58
9, 133896, Note_on_c, 3, 62, 0
9, 133920, Note_on_c, 3, 63, 58
9, 134016, Note_on_c, 3, 63, 0
9, 134040, Note_on_c, 3, 63, 58
9, 134136, Note_on_c, 3, 63, 0
9, 134160, Note_on_c, 3, 69, 58
9, 134256, Note_on_c, 3, 69, 0
9, 134280, Note_on_c, 3, 69, 58
9, 134376, Note_on_c, 3, 69, 0
9, 134400, Note_on_c, 3, 62, 58
9, 134496, Note_on_c, 3, 62, 0
9, 134520, Note_on_c, 3, 62, 58
9, 134616, Note_on_c, 3, 62, 0
9, 134640, Note_on_c, 3, 60, 58
9, 134736, Note_on_c, 3, 60, 0
9, 134760, Note_on_c, 3, 60, 58
9, 134856, Note_on_c, 3, 60, 0
9, 134880, Note_on_c, 3, 59, 58
9, 134976, Note_on_c, 3, 59, 0
9, 135000, Note_on_c, 3, 59, 58
9, 135096, Note_on_c, 3, 59, 0
9, 135120, Note_on_c, 3, 59, 58
9, 135216, Note_on_c, 3, 59, 0
9, 135240, Note_on_c, 3, 59, 58
9, 135336, Note_on_c, 3, 59, 0
9, 135360, Note_on_c, 3, 60, 58
9, 135456, Note_on_c, 3, 60, 0
9, 135480, Note_on_c, 3, 60, 58
9, 135576, Note_on_c, 3, 60, 0
9, 135600, Note_on_c, 3, 56, 58
9, 135696, Note_on_c, 3, 56, 0
9, 135720, Note_on_c, 3, 56, 58
9, 135816, Note_on_c, 3, 56, 0
9, 135840, Note_on_c, 3, 55, 58
9, 135936, Note_on_c, 3, 55, 0
9, 135960, Note_on_c, 3, 55, 58
9, 136056, Note_on_c, 3, 55, 0
9, 136080, Note_on_c, 3, 54, 58
9, 136176, Note_on_c, 3, 54, 0
9, 136200, Note_on_c, 3, 54, 58
9, 136296, Note_on_c, 3, 54, 0
9, 136320, Note_on_c, 3, 55, 58
9, 136416, Note_on_c, 3, 55, 0
9, 136440, Note_on_c, 3, 55, 58
9, 136536, Note_on_c, 3, 55, 0
9, 136560, Note_on_c, 3, 53, 58
9, 136656, Note_on_c, 3, 53, 0
9, 136680, Note_on_c, 3, 53, 58
9, 136776, Note_on_c, 3, 53, 0
9, 136800, Note_on_c, 3, 52, 58
9, 136896, Note_on_c, 3, 52, 0
9, 136920, Note_on_c, 3, 52, 58
9, 137016, Note_on_c, 3, 52, 0
9, 137040, Note_on_c, 3, 51, 58
9, 137136, Note_on_c, 3, 51, 0
9, 137160, Note_on_c, 3, 51, 58
9, 137256, Note_on_c, 3, 51, 0
9, 137280, Note_on_c, 3, 50, 58
9, 137376, Note_on_c, 3, 50, 0
9, 137400, Note_on_c, 3, 50, 58
9, 137496, Note_on_c, 3, 50, 0
9, 137520, Note_on_c, 3, 62, 58
9, 137616, Note_on_c, 3, 62, 0
9, 137640, Note_on_c, 3, 62, 58
9, 137736, Note_on_c, 3, 62, 0
9, 137760, Note_on_c, 3, 60, 58
9, 137856, Note_on_c, 3, 60, 0
9, 137880, Note_on_c, 3, 60, 58
9, 137976, Note_on_c, 3, 60, 0
9, 138000, Note_on_c, 3, 60, 58
9, 138096, Note_on_c, 3, 60, 0
9, 138120, Note_on_c, 3, 60, 58
9, 138216, Note_on_c, 3, 60, 0
9, 138240, Note_on_c, 3, 59, 58
9, 138336, Note_on_c, 3, 59, 0
9, 138360, Note_on_c, 3, 59, 58
9, 138456, Note_on_c, 3, 59, 0
9, 138480, Note_on_c, 3, 62, 58
9, 138576, Note_on_c, 3, 62, 0
9, 138600, Note_on_c, 3, 62, 58
9, 138696, Note_on_c, 3, 62, 0
9, 138720, Note_on_c, 3, 60, 58
9, 138816, Note_on_c, 3, 60, 0
9, 138840, Note_on_c, 3, 60, 58
9, 138936, Note_on_c, 3, 60, 0
9, 138960, Note_on_c, 3, 60, 58
9, 139056, Note_on_c, 3, 60, 0
9, 139080, Note_on_c, 3, 60, 58
9, 139176, Note_on_c, 3, 60, 0
9, 139200, Note_on_c, 3, 59, 58
9, 139296, Note_on_c, 3, 59, 0
9, 139320, Note_on_c, 3, 59, 58
9, 139416, Note_on_c, 3, 59, 0
9, 139440, Note_on_c, 3, 53, 58
9, 139536, Note_on_c, 3, 53, 0
9, 139560, Note_on_c, 3, 53, 58
9, 139656, Note_on_c, 3, 53, 0
9, 139680, Note_on_c, 3, 51, 58
9, 139776, Note_on_c, 3, 51, 0
9, 139800, Note_on_c, 3, 51, 58
9, 139896, Note_on_c, 3, 51, 0
9, 139920, Note_on_c, 3, 56, 58
9, 140016, Note_on_c, 3, 56, 0
9, 140040, Note_on_c, 3, 56, 58
9, 140136, Note_on_c, 3, 56, 0
9, 140160, Note_on_c, 3, 55, 58
9, 140256, Note_on_c, 3, 55, 0
9, 140280, Note_on_c, 3, 55, 58
9, 140376, Note_on_c, 3, 55, 0
9, 140400, Note_on_c, 3, 54, 58
9, 140496, Note_on_c, 3, 54, 0
9, 140520, Note_on_c, 3, 54, 58
9, 140616, Note_on_c, 3, 54, 0
9, 140640, Note_on_c, 3, 55, 58
9, 140736, Note_on_c, 3, 55, 0
9, 140760, Note_on_c, 3, 55, 58
9, 140856, Note_on_c, 3, 55, 0
9, 140880, Note_on_c, 3, 59, 58
9, 140976, Note_on_c, 3, 59, 0
9, 141000, Note_on_c, 3, 59, 58
9, 141096, Note_on_c, 3, 59, 0
9, 141120, Note_on_c, 3, 57, 58
9, 141216, Note_on_c, 3, 57, 0
9, 141240, Note_on_c, 3, 57, 58
9, 141336, Note_on_c, 3, 57, 0
9, 141360, Note_on_c, 3, 56, 58
9, 141456, Note_on_c, 3, 56, 0
9, 141480, Note_on_c, 3, 56, 58
9, 141576, Note_on_c, 3, 56, 0
9, 141600, Note_on_c, 3, 57, 58
9, 141696, Note_on_c, 3, 57, 0
9, 141720, Note_on_c, 3, 57, 58
9, 141816, Note_on_c, 3, 57, 0
9, 141840, Note_on_c, 3, 60, 58
9, 141936, Note_on_c, 3, 60, 0
9, 141960, Note_on_c, 3, 60, 58
9, 142056, Note_on_c, 3, 60, 0
9, 142080, Note_on_c, 3, 59, 58
9, 142176, Note_on_c, 3, 59, 0
9, 142200, Note_on_c, 3, 59, 58
9, 142296, Note_on_c, 3, 59, 0
9, 142320, Note_on_c, 3, 58, 58
9, 142416, Note_on_c, 3, 58, 0
9, 142440, Note_on_c, 3, 58, 58
9, 142536, Note_on_c, 3, 58, 0
9, 142560, Note_on_c, 3, 59, 58
9, 142656, Note_on_c, 3, 59, 0
9, 142680, Note_on_c, 3, 59, 58
9, 142776, Note_on_c, 3, 59, 0
9, 142800, Note_on_c, 3, 62, 58
9, 142896, Note_on_c, 3, 62, 0
9, 142920, Note_on_c, 3, 62, 58
9, 143016, Note_on_c, 3, 62, 0
9, 143040, Note_on_c, 3, 60, 58
9, 143232, Note_on_c, 3, 60, 0
9, 151680, Note_on_c, 3, 67, 92
9, 152592, Note_on_c, 3, 67, 0
9, 152640, Note_on_c, 3, 72, 92
9, 152670, Note_on_c, 3, 72, 0
9, 152670, Note_on_c, 3, 71, 92
9, 152700, Note_on_c, 3, 71, 0
9, 152700, Note_on_c, 3, 72, 92
9, 152730, Note_on_c, 3, 72, 0
9, 152730, Note_on_c, 3, 71, 92
9, 152760, Note_on_c, 3, 71, 0
9, 152760, Note_on_c, 3, 72, 92
9, 152790, Note_on_c, 3, 72, 0
9, 152790, Note_on_c, 3, 71, 92
9, 152820, Note_on_c, 3, 71, 0
9, 152820, Note_on_c, 3, 72, 92
9, 152850, Note_on_c, 3, 72, 0
9, 152850, Note_on_c, 3, 71, 92
9, 152880, Note_on_c, 3, 71, 0
9, 152880, Note_on_c, 3, 72, 92
9, 152910, Note_on_c, 3, 72, 0
9, 152910, Note_on_c, 3, 71, 92
9, 152940, Note_on_c, 3, 71, 0
9, 152940, Note_on_c, 3, 72, 92
9, 152970, Note_on_c, 3, 72, 0
9, 152970, Note_on_c, 3, 71, 92
9, 153000, Note_on_c, 3, 71, 0
9, 153000, Note_on_c, 3, 72, 92
9, 153030, Note_on_c, 3, 72, 0
9, 153030, Note_on_c, 3, 71, 92
9, 153060, Note_on_c, 3, 71, 0
9, 153060, Note_on_c, 3, 72, 92
9, 153090, Note_on_c, 3, 72, 0
9, 153090, Note_on_c, 3, 71, 92
9, 153120, Note_on_c, 3, 71, 0
9, 153120, Note_on_c, 3, 72, 92
9, 153150, Note_on_c, 3, 72, 0
9, 153150, Note_on_c, 3, 71, 92
9, 153180, Note_on_c, 3, 71, 0
9, 153180, Note_on_c, 3, 72, 92
9, 153210, Note_on_c, 3, 72, 0
9, 153210, Note_on_c, 3, 71, 92
9, 153240, Note_on_c, 3, 71, 0
9, 153240, Note_on_c, 3, 72, 92
9, 153270, Note_on_c, 3, 72, 0
9, 153270, Note_on_c, 3, 71, 92
9, 153300, Note_on_c, 3, 71, 0
9, 153300, Note_on_c, 3, 72, 92
9, 153330, Note_on_c, 3, 72, 0
9, 153330, Note_on_c, 3, 71, 92
9, 153360, Note_on_c, 3, 71, 0
9, 153360, Note_on_c, 3, 69, 92
9, 153480, Note_on_c, 3, 69, 0
9, 153480, Note_on_c, 3, 71, 92
9, 153600, Note_on_c, 3, 71, 0
9, 153600, Note_on_c, 3, 72, 92
9, 153984, Note_on_c, 3, 72, 0
9, 154560, Note_on_c, 3, 64, 92
9, 154944, Note_on_c, 3, 64, 0
9, 155040, Note_on_c, 3, 64, 92
9, 155424, Note_on_c, 3, 64, 0
9, 155520, Note_on_c, 3, 65, 92
9, 156240, Note_on_c, 3, 65, 0
9, 156240, Note_on_c, 3, 69, 92
9, 156432, Note_on_c, 3, 69, 0
9, 156480, Note_on_c, 3, 67, 92
9, 156864, Note_on_c, 3, 67, 0
9, 156960, Note_on_c, 3, 59, 92
9, 157344, Note_on_c, 3, 59, 0
9, 157440, Note_on_c, 3, 60, 92
9, 157824, Note_on_c, 3, 60, 0
9, 159360, Note_on_c, 3, 59, 58
9, 159552, Note_on_c, 3, 59, 0
9, 159600, Note_on_c, 3, 59, 58
9, 159792, Note_on_c, 3, 59, 0
9, 159840, Note_on_c, 3, 59, 58
9, 160032, Note_on_c, 3, 59, 0
9, 160080, Note_on_c, 3, 59, 58
9, 160272, Note_on_c, 3, 59, 0
9, 160320, Note_on_c, 3, 60, 58
9, 160512, Note_on_c, 3, 60, 0
9, 160560, Note_on_c, 3, 60, 58
9, 160752, Note_on_c, 3, 60, 0
9, 160800, Note_on_c, 3, 64, 58
9, 160992, Note_on_c, 3, 64, 0
9, 161040, Note_on_c, 3, 64, 58
9, 161232, Note_on_c, 3, 64, 0
9, 161280, Note_on_c, 3, 67, 58
9, 161664, Note_on_c, 3, 67, 0
9, 163200, Note_on_c, 3, 59, 58
9, 163392, Note_on_c, 3, 59, 0
9, 163440, Note_on_c, 3, 59, 58
9, 163632, Note_on_c, 3, 59, 0
9, 163680, Note_on_c, 3, 62, 72
9, 163872, Note_on_c, 3, 62, 0
9, 163920, Note_on_c, 3, 62, 72
9, 164112, Note_on_c, 3, 62, 0
9, 164160, Note_on_c, 3, 60, 81
9, 164352, Note_on_c, 3, 60, 0
9, 164400, Note_on_c, 3, 60, 81
9, 164592, Note_on_c, 3, 60, 0
9, 164640, Note_on_c, 3, 57, 92
9, 164832, Note_on_c, 3, 57, 0
9, 164880, Note_on_c, 3, 57, 92
9, 165072, Note_on_c, 3, 57, 0
9, 165120, Note_on_c, 3, 50, 105
9, 165504, Note_on_c, 3, 50, 0
9, 169920, Note_on_c, 3, 55, 92
9, 169920, Note_on_c, 3, 67, 92
9, 171264, Note_on_c, 3, 67, 0
9, 171264, Note_on_c, 3, 55, 0
9, 171360, Note_on_c, 3, 69, 92
9, 171768, Note_on_c, 3, 69, 0
9, 171840, Note_on_c, 3, 67, 92
9, 172248, Note_on_c, 3, 67, 0
9, 172320, Note_on_c, 3, 59, 92
9, 172728, Note_on_c, 3, 59, 0
9, 172800, Note_on_c, 3, 60, 92
9, 173184, Note_on_c, 3, 60, 0
9, 173760, Note_on_c, 3, 64, 112
9, 174144, Note_on_c, 3, 64, 0
9, 174720, Note_on_c, 3, 65, 112
9, 175104, Note_on_c, 3, 65, 0
9, 175680, Note_on_c, 3, 66, 112
9, 176064, Note_on_c, 3, 66, 0
9, 176640, Note_on_c, 3, 67, 58
9, 177600, Note_on_c, 3, 67, 0
9, 177600, Note_on_c, 3, 59, 58
9, 178560, Note_on_c, 3, 59, 0
9, 178560, Note_on_c, 3, 60, 58
9, 178944, Note_on_c, 3, 60, 0
9, 180480, Note_on_c, 3, 67, 58
9, 185688, Note_on_c, 3, 67, 0
9, 185760, Note_on_c, 3, 59, 58
9, 186000, Note_on_c, 3, 59, 0
9, 186000, Note_on_c, 3, 62, 58
9, 186240, Note_on_c, 3, 62, 0
9, 186240, Note_on_c, 3, 65, 58
9, 187200, Note_on_c, 3, 65, 0
9, 187200, Note_on_c, 3, 64, 58
9, 187440, Note_on_c, 3, 64, 0
9, 187440, End_track
10, 0, Start_track
10, 0, Program_c, 4, 42
10, 0, Control_c, 4, 10, 99
10, 0, Control_c, 4, 91, 85
10, 1920, Note_on_c, 4, 48, 72
10, 2304, Note_on_c, 4, 48, 0
10, 2400, Note_on_c, 4, 48, 72
10, 2784, Note_on_c, 4, 48, 0
10, 2880, Note_on_c, 4, 48, 72
10, 3264, Note_on_c, 4, 48, 0
10, 3360, Note_on_c, 4, 48, 72
10, 3744, Note_on_c, 4, 48, 0
10, 3840, Note_on_c, 4, 48, 72
10, 4224, Note_on_c, 4, 48, 0
10, 4320, Note_on_c, 4, 48, 72
10, 4704, Note_on_c, 4, 48, 0
10, 5280, Note_on_c, 4, 48, 72
10, 5664, Note_on_c, 4, 48, 0
10, 6240, Note_on_c, 4, 48, 72
10, 6720, Note_on_c, 4, 48, 0
10, 6720, Note_on_c, 4, 47, 72
10, 7200, Note_on_c, 4, 47, 0
10, 7200, Note_on_c, 4, 48, 72
10, 7584, Note_on_c, 4, 48, 0
10, 7680, Note_on_c, 4, 55, 72
10, 8064, Note_on_c, 4, 55, 0
10, 8160, Note_on_c, 4, 43, 72
10, 8544, Note_on_c, 4, 43, 0
10, 9600, Note_on_c, 4, 48, 105
10, 9984, Note_on_c, 4, 48, 0
10, 10080, Note_on_c, 4, 48, 105
10, 10464, Note_on_c, 4, 48, 0
10, 10560, Note_on_c, 4, 48, 105
10, 10944, Note_on_c, 4, 48, 0
10, 11040, Note_on_c, 4, 48, 105
10, 11424, Note_on_c, 4, 48, 0
10, 11520, Note_on_c, 4, 48, 105
10, 11904, Note_on_c, 4, 48, 0
10, 12000, Note_on_c, 4, 48, 105
10, 12384, Note_on_c, 4, 48, 0
10, 12480, Note_on_c, 4, 52, 105
10, 12864, Note_on_c, 4, 52, 0
10, 12960, Note_on_c, 4, 52, 105
10, 13344, Note_on_c, 4, 52, 0
10, 13440, Note_on_c, 4, 53, 105
10, 13824, Note_on_c, 4, 53, 0
10, 13920, Note_on_c, 4, 53, 105
10, 14304, Note_on_c, 4, 53, 0
10, 14400, Note_on_c, 4, 55, 105
10, 14784, Note_on_c, 4, 55, 0
10, 14880, Note_on_c, 4, 43, 105
10, 15264, Note_on_c, 4, 43, 0
10, 15360, Note_on_c, 4, 48, 92
10, 15744, Note_on_c, 4, 48, 0
10, 17280, Note_on_c, 4, 48, 72
10, 17664, Note_on_c, 4, 48, 0
10, 17760, Note_on_c, 4, 48, 72
10, 18144, Note_on_c, 4, 48, 0
10, 18240, Note_on_c, 4, 48, 72
10, 18624, Note_on_c, 4, 48, 0
10, 18720, Note_on_c, 4, 48, 72
10, 19104, Note_on_c, 4, 48, 0
10, 19200, Note_on_c, 4, 48, 72
10, 19584, Note_on_c, 4, 48, 0
10, 19680, Note_on_c, 4, 48, 72
10, 20064, Note_on_c, 4, 48, 0
10, 20640, Note_on_c, 4, 48, 72
10, 21024, Note_on_c, 4, 48, 0
10, 21600, Note_on_c, 4, 48, 72
10, 22080, Note_on_c, 4, 48, 0
10, 22080, Note_on_c, 4, 47, 72
10, 22560, Note_on_c, 4, 47, 0
10, 22560, Note_on_c, 4, 48, 72
10, 22944, Note_on_c, 4, 48, 0
10, 23040, Note_on_c, 4, 55, 72
10, 23424, Note_on_c, 4, 55, 0
10, 23520, Note_on_c, 4, 43, 72
10, 23904, Note_on_c, 4, 43, 0
10, 24960, Note_on_c, 4, 48, 105
10, 25344, Note_on_c, 4, 48, 0
10, 25440, Note_on_c, 4, 48, 105
10, 25824, Note_on_c, 4, 48, 0
10, 25920, Note_on_c, 4, 48, 105
10, 26304, Note_on_c, 4, 48, 0
10, 26400, Note_on_c, 4, 48, 105
10, 26784, Note_on_c, 4, 48, 0
10, 26880, Note_on_c, 4, 48, 105
10, 27264, Note_on_c, 4, 48, 0
10, 27360, Note_on_c, 4, 48, 105
10, 27744, Note_on_c, 4, 48, 0
10, 27840, Note_on_c, 4, 52, 105
10, 28224, Note_on_c, 4, 52, 0
10, 28320, Note_on_c, 4, 52, 105
10, 28704, Note_on_c, 4, 52, 0
10, 28800, Note_on_c, 4, 53, 105
10, 29184, Note_on_c, 4, 53, 0
10, 29280, Note_on_c, 4, 53, 105
10, 29664, Note_on_c, 4, 53, 0
10, 29760, Note_on_c, 4, 55, 105
10, 30144, Note_on_c, 4, 55, 0
10, 30240, Note_on_c, 4, 43, 105
10, 30624, Note_on_c, 4, 43, 0
10, 30720, Note_on_c, 4, 48, 92
10, 31104, Note_on_c, 4, 48, 0
10, 32640, Note_on_c, 4, 43, 58
10, 33024, Note_on_c, 4, 43, 0
10, 33120, Note_on_c, 4, 43, 58
10, 33504, Note_on_c, 4, 43, 0
10, 33600, Note_on_c, 4, 43, 58
10, 33984, Note_on_c, 4, 43, 0
10, 34080, Note_on_c, 4, 43, 58
10, 34464, Note_on_c, 4, 43, 0
10, 34560, Note_on_c, 4, 43, 58
10, 34944, Note_on_c, 4, 43, 0
10, 36480, Note_on_c, 4, 43, 58
10, 36864, Note_on_c, 4, 43, 0
10, 36960, Note_on_c, 4, 55, 58
10, 37344, Note_on_c, 4, 55, 0
10, 37440, Note_on_c, 4, 55, 81
10, 37824, Note_on_c, 4, 55, 0
10, 37920, Note_on_c, 4, 55, 92
10, 38304, Note_on_c, 4, 55, 0
10, 38400, Note_on_c, 4, 43, 105
10, 38784, Note_on_c, 4, 43, 0
10, 40320, Note_on_c, 4, 45, 58
10, 41088, Note_on_c, 4, 45, 0
10, 41280, Note_on_c, 4, 50, 58
10, 41760, Note_on_c, 4, 50, 0
10, 41760, Note_on_c, 4, 47, 58
10, 42144, Note_on_c, 4, 47, 0
10, 42240, Note_on_c, 4, 48, 58
10, 42624, Note_on_c, 4, 48, 0
10, 43200, Note_on_c, 4, 52, 58
10, 43584, Note_on_c, 4, 52, 0
10, 43680, Note_on_c, 4, 50, 105
10, 44064, Note_on_c, 4, 50, 0
10, 44160, Note_on_c, 4, 48, 105
10, 44544, Note_on_c, 4, 48, 0
10, 44640, Note_on_c, 4, 53, 105
10, 45024, Note_on_c, 4, 53, 0
10, 45120, Note_on_c, 4, 55, 105
10, 45504, Note_on_c, 4, 55, 0
10, 45600, Note_on_c, 4, 43, 105
10, 45984, Note_on_c, 4, 43, 0
10, 46080, Note_on_c, 4, 48, 92
10, 46464, Note_on_c, 4, 48, 0
10, 48000, Note_on_c, 4, 43, 58
10, 48384, Note_on_c, 4, 43, 0
10, 48480, Note_on_c, 4, 43, 58
10, 48864, Note_on_c, 4, 43, 0
10, 48960, Note_on_c, 4, 43, 58
10, 49344, Note_on_c, 4, 43, 0
10, 49440, Note_on_c, 4, 43, 58
10, 49824, Note_on_c, 4, 43, 0
10, 49920, Note_on_c, 4, 43, 58
10, 50304, Note_on_c, 4, 43, 0
10, 51840, Note_on_c, 4, 43, 58
10, 52224, Note_on_c, 4, 43, 0
10, 52320, Note_on_c, 4, 55, 58
10, 52704, Note_on_c, 4, 55, 0
10, 52800, Note_on_c, 4, 55, 81
10, 53184, Note_on_c, 4, 55, 0
10, 53280, Note_on_c, 4, 55, 92
10, 53664, Note_on_c, 4, 55, 0
10, 53760, Note_on_c, 4, 43, 105
10, 54144, Note_on_c, 4, 43, 0
10, 55680, Note_on_c, 4, 45, 58
10, 56448, Note_on_c, 4, 45, 0
10, 56640, Note_on_c, 4, 50, 58
10, 57120, Note_on_c, 4, 50, 0
10, 57120, Note_on_c, 4, 47, 58
10, 57504, Note_on_c, 4, 47, 0
10, 57600, Note_on_c, 4, 48, 58
10, 57984, Note_on_c, 4, 48, 0
10, 58560, Note_on_c, 4, 52, 58
10, 58944, Note_on_c, 4, 52, 0
10, 59040, Note_on_c, 4, 50, 105
10, 59424, Note_on_c, 4, 50, 0
10, 59520, Note_on_c, 4, 48, 105
10, 59904, Note_on_c, 4, 48, 0
10, 60000, Note_on_c, 4, 53, 105
10, 60384, Note_on_c, 4, 53, 0
10, 60480, Note_on_c, 4, 55, 105
10, 60864, Note_on_c, 4, 55, 0
10, 60960, Note_on_c, 4, 43, 105
10, 61344, Note_on_c, 4, 43, 0
10, 61440, Note_on_c, 4, 48, 92
10, 61824, Note_on_c, 4, 48, 0
10, 62400, Note_on_c, 4, 60, 58
10, 62544, Note_on_c, 4, 60, 0
10, 62640, Note_on_c, 4, 60, 58
10, 62784, Note_on_c, 4, 60, 0
10, 62880, Note_on_c, 4, 60, 58
10, 63024, Note_on_c, 4, 60, 0
10, 63120, Note_on_c, 4, 60, 58
10, 63264, Note_on_c, 4, 60, 0
10, 63360, Note_on_c, 4, 55, 58
10, 63744, Note_on_c, 4, 55, 0
10, 64320, Note_on_c, 4, 48, 58
10, 64464, Note_on_c, 4, 48, 0
10, 64560, Note_on_c, 4, 48, 58
10, 64704, Note_on_c, 4, 48, 0
10, 64800, Note_on_c, 4, 48, 58
10, 64944, Note_on_c, 4, 48, 0
10, 65040, Note_on_c, 4, 48, 58
10, 65184, Note_on_c, 4, 48, 0
10, 65280, Note_on_c, 4, 43, 58
10, 65664, Note_on_c, 4, 43, 0
10, 66240, Note_on_c, 4, 60, 58
10, 66384, Note_on_c, 4, 60, 0
10, 66480, Note_on_c, 4, 60, 58
10, 66624, Note_on_c, 4, 60, 0
10, 66720, Note_on_c, 4, 57, 58
10, 66864, Note_on_c, 4, 57, 0
10, 66960, Note_on_c, 4, 57, 58
10, 67104, Note_on_c, 4, 57, 0
10, 67200, Note_on_c, 4, 55, 58
10, 67584, Note_on_c, 4, 55, 0
10, 67920, Note_on_c, 4, 52, 58
10, 68064, Note_on_c, 4, 52, 0
10, 68160, Note_on_c, 4, 50, 58
10, 68544, Note_on_c, 4, 50, 0
10, 68880, Note_on_c, 4, 50, 58
10, 69024, Note_on_c, 4, 50, 0
10, 69120, Note_on_c, 4, 43, 58
10, 69696, Note_on_c, 4, 43, 0
10, 70080, Note_on_c, 4, 60, 58
10, 70224, Note_on_c, 4, 60, 0
10, 70320, Note_on_c, 4, 60, 58
10, 70464, Note_on_c, 4, 60, 0
10, 70560, Note_on_c, 4, 60, 58
10, 70704, Note_on_c, 4, 60, 0
10, 70800, Note_on_c, 4, 60, 58
10, 70944, Note_on_c, 4, 60, 0
10, 71040, Note_on_c, 4, 55, 58
10, 71424, Note_on_c, 4, 55, 0
10, 72000, Note_on_c, 4, 48, 58
10, 72144, Note_on_c, 4, 48, 0
10, 72240, Note_on_c, 4, 48, 58
10, 72384, Note_on_c, 4, 48, 0
10, 72480, Note_on_c, 4, 48, 58
10, 72624, Note_on_c, 4, 48, 0
10, 72720, Note_on_c, 4, 48, 58
10, 72864, Note_on_c, 4, 48, 0
10, 72960, Note_on_c, 4, 43, 58
10, 73344, Note_on_c, 4, 43, 0
10, 73920, Note_on_c, 4, 60, 58
10, 74064, Note_on_c, 4, 60, 0
10, 74160, Note_on_c, 4, 60, 58
10, 74304, Note_on_c, 4, 60, 0
10, 74400, Note_on_c, 4, 57, 58
10, 74544, Note_on_c, 4, 57, 0
10, 74640, Note_on_c, 4, 57, 58
10, 74784, Note_on_c, 4, 57, 0
10, 74880, Note_on_c, 4, 55, 58
10, 75264, Note_on_c, 4, 55, 0
10, 75600, Note_on_c, 4, 52, 58
10, 75744, Note_on_c, 4, 52, 0
10, 75840, Note_on_c, 4, 50, 58
10, 76224, Note_on_c, 4, 50, 0
10, 76560, Note_on_c, 4, 50, 58
10, 76704, Note_on_c, 4, 50, 0
10, 76800, Note_on_c, 4, 43, 58
10, 77376, Note_on_c, 4, 43, 0
10, 77760, Note_on_c, 4, 52, 58
10, 77904, Note_on_c, 4, 52, 0
10, 78000, Note_on_c, 4, 52, 58
10, 78144, Note_on_c, 4, 52, 0
10, 78240, Note_on_c, 4, 55, 58
10, 78384, Note_on_c, 4, 55, 0
10, 78480, Note_on_c, 4, 55, 58
10, 78624, Note_on_c, 4, 55, 0
10, 78720, Note_on_c, 4, 57, 58
10, 79104, Note_on_c, 4, 57, 0
10, 79680, Note_on_c, 4, 50, 58
10, 79824, Note_on_c, 4, 50, 0
10, 79920, Note_on_c, 4, 50, 58
10, 80064, Note_on_c, 4, 50, 0
10, 80160, Note_on_c, 4, 53, 58
10, 80304, Note_on_c, 4, 53, 0
10, 80400, Note_on_c, 4, 53, 58
10, 80544, Note_on_c, 4, 53, 0
10, 80640, Note_on_c, 4, 55, 58
10, 81024, Note_on_c, 4, 55, 0
10, 81600, Note_on_c, 4, 60, 58
10, 81744, Note_on_c, 4, 60, 0
10, 81840, Note_on_c, 4, 60, 58
10, 81984, Note_on_c, 4, 60, 0
10, 82080, Note_on_c, 4, 57, 58
10, 82224, Note_on_c, 4, 57, 0
10, 82320, Note_on_c, 4, 57, 58
10, 82464, Note_on_c, 4, 57, 0
10, 82560, Note_on_c, 4, 56, 58
10, 82944, Note_on_c, 4, 56, 0
10, 83280, Note_on_c, 4, 52, 58
10, 83520, Note_on_c, 4, 52, 0
10, 83520, Note_on_c, 4, 53, 58
10, 83904, Note_on_c, 4, 53, 0
10, 84240, Note_on_c, 4, 53, 58
10, 84480, Note_on_c, 4, 53, 0
10, 84480, Note_on_c, 4, 52, 58
10, 84864, Note_on_c, 4, 52, 0
10, 85200, Note_on_c, 4, 56, 58
10, 85440, Note_on_c, 4, 56, 0
10, 85440, Note_on_c, 4, 57, 58
10, 85584, Note_on_c, 4, 57, 0
10, 85680, Note_on_c, 4, 57, 58
10, 85824, Note_on_c, 4, 57, 0
10, 85920, Note_on_c, 4, 57, 58
10, 86064, Note_on_c, 4, 57, 0
10, 86160, Note_on_c, 4, 57, 58
10, 86304, Note_on_c, 4, 57, 0
10, 86400, Note_on_c, 4, 56, 58
10, 86784, Note_on_c, 4, 56, 0
10, 87120, Note_on_c, 4, 52, 58
10, 87360, Note_on_c, 4, 52, 0
10, 87360, Note_on_c, 4, 53, 58
10, 87744, Note_on_c, 4, 53, 0
10, 88080, Note_on_c, 4, 53, 58
10, 88320, Note_on_c, 4, 53, 0
10, 88320, Note_on_c, 4, 52, 58
10, 88704, Note_on_c, 4, 52, 0
10, 89040, Note_on_c, 4, 53, 58
10, 89280, Note_on_c, 4, 53, 0
10, 89280, Note_on_c, 4, 52, 58
10, 89664, Note_on_c, 4, 52, 0
10, 91920, Note_on_c, 4, 45, 58
10, 92064, Note_on_c, 4, 45, 0
10, 92160, Note_on_c, 4, 44, 58
10, 92400, Note_on_c, 4, 44, 0
10, 92400, Note_on_c, 4, 47, 58
10, 92544, Note_on_c, 4, 47, 0
10, 92640, Note_on_c, 4, 40, 58
10, 92784, Note_on_c, 4, 40, 0
10, 95760, Note_on_c, 4, 48, 72
10, 95904, Note_on_c, 4, 48, 0
10, 96000, Note_on_c, 4, 47, 72
10, 96240, Note_on_c, 4, 47, 0
10, 96240, Note_on_c, 4, 50, 72
10, 96384, Note_on_c, 4, 50, 0
10, 96480, Note_on_c, 4, 43, 58
10, 96624, Note_on_c, 4, 43, 0
10, 96720, Note_on_c, 4, 47, 58
10, 96864, Note_on_c, 4, 47, 0
10, 97920, Note_on_c, 4, 48, 72
10, 98304, Note_on_c, 4, 48, 0
10, 98400, Note_on_c, 4, 48, 72
10, 98784, Note_on_c, 4, 48, 0
10, 98880, Note_on_c, 4, 48, 72
10, 99264, Note_on_c, 4, 48, 0
10, 99360, Note_on_c, 4, 48, 72
10, 99744, Note_on_c, 4, 48, 0
10, 99840, Note_on_c, 4, 48, 72
10, 100224, Note_on_c, 4, 48, 0
10, 100320, Note_on_c, 4, 48, 72
10, 100704, Note_on_c, 4, 48, 0
10, 101280, Note_on_c, 4, 48, 72
10, 101664, Note_on_c, 4, 48, 0
10, 102240, Note_on_c, 4, 48, 72
10, 102720, Note_on_c, 4, 48, 0
10, 102720, Note_on_c, 4, 47, 72
10, 103200, Note_on_c, 4, 47, 0
10, 103200, Note_on_c, 4, 48, 72
10, 103584, Note_on_c, 4, 48, 0
10, 103680, Note_on_c, 4, 55, 72
10, 104064, Note_on_c, 4, 55, 0
10, 104160, Note_on_c, 4, 43, 72
10, 104544, Note_on_c, 4, 43, 0
10, 105600, Note_on_c, 4, 48, 105
10, 105984, Note_on_c, 4, 48, 0
10, 106080, Note_on_c, 4, 48, 105
10, 106464, Note_on_c, 4, 48, 0
10, 106560, Note_on_c, 4, 48, 105
10, 106944, Note_on_c, 4, 48, 0
10, 107040, Note_on_c, 4, 48, 105
10, 107424, Note_on_c, 4, 48, 0
10, 107520, Note_on_c, 4, 48, 105
10, 107904, Note_on_c, 4, 48, 0
10, 108000, Note_on_c, 4, 48, 105
10, 108384, Note_on_c, 4, 48, 0
10, 108480, Note_on_c, 4, 52, 105
10, 108864, Note_on_c, 4, 52, 0
10, 108960, Note_on_c, 4, 52, 105
10, 109344, Note_on_c, 4, 52, 0
10, 109440, Note_on_c, 4, 53, 105
10, 109824, Note_on_c, 4, 53, 0
10, 109920, Note_on_c, 4, 53, 105
10, 110304, Note_on_c, 4, 53, 0
10, 110400, Note_on_c, 4, 55, 105
10, 110784, Note_on_c, 4, 55, 0
10, 110880, Note_on_c, 4, 43, 105
10, 111264, Note_on_c, 4, 43, 0
10, 111360, Note_on_c, 4, 48, 105
10, 111744, Note_on_c, 4, 48, 0
10, 113760, Note_on_c, 4, 55, 72
10, 113904, Note_on_c, 4, 55, 0
10, 114000, Note_on_c, 4, 47, 72
10, 114040, Note_on_c, 4, 47, 0
10, 114040, Note_on_c, 4, 48, 72
10, 114080, Note_on_c, 4, 48, 0
10, 114080, Note_on_c, 4, 47, 72
10, 114120, Note_on_c, 4, 47, 0
10, 114120, Note_on_c, 4, 45, 72
10, 114180, Note_on_c, 4, 45, 0
10, 114180, Note_on_c, 4, 47, 72
10, 114240, Note_on_c, 4, 47, 0
10, 114240, Note_on_c, 4, 48, 72
10, 114432, Note_on_c, 4, 48, 0
10, 115680, Note_on_c, 4, 55, 72
10, 115824, Note_on_c, 4, 55, 0
10, 115920, Note_on_c, 4, 47, 72
10, 115960, Note_on_c, 4, 47, 0
10, 115960, Note_on_c, 4, 48, 72
10, 116000, Note_on_c, 4, 48, 0
10, 116000, Note_on_c, 4, 47, 72
10, 116040, Note_on_c, 4, 47, 0
10, 116040, Note_on_c, 4, 45, 72
10, 116100, Note_on_c, 4, 45, 0
10, 116100, Note_on_c, 4, 47, 72
10, 116160, Note_on_c, 4, 47, 0
10, 116160, Note_on_c, 4, 48, 72
10, 116352, Note_on_c, 4, 48, 0
10, 117120, Note_on_c, 4, 46, 92
10, 117696, Note_on_c, 4, 46, 0
10, 117840, Note_on_c, 4, 48, 72
10, 118032, Note_on_c, 4, 48, 0
10, 118080, Note_on_c, 4, 44, 72
10, 118272, Note_on_c, 4, 44, 0
10, 118320, Note_on_c, 4, 44, 72
10, 118512, Note_on_c, 4, 44, 0
10, 118560, Note_on_c, 4, 46, 72
10, 118752, Note_on_c, 4, 46, 0
10, 118800, Note_on_c, 4, 46, 72
10, 118992, Note_on_c, 4, 46, 0
10, 119040, Note_on_c, 4, 39, 72
10, 119232, Note_on_c, 4, 39, 0
10, 121440, Note_on_c, 4, 55, 72
10, 121584, Note_on_c, 4, 55, 0
10, 121680, Note_on_c, 4, 47, 72
10, 121720, Note_on_c, 4, 47, 0
10, 121720, Note_on_c, 4, 48, 72
10, 121760, Note_on_c, 4, 48, 0
10, 121760, Note_on_c, 4, 47, 72
10, 121800, Note_on_c, 4, 47, 0
10, 121800, Note_on_c, 4, 45, 72
10, 121860, Note_on_c, 4, 45, 0
10, 121860, Note_on_c, 4, 47, 72
10, 121920, Note_on_c, 4, 47, 0
10, 121920, Note_on_c, 4, 48, 72
10, 122112, Note_on_c, 4, 48, 0
10, 123360, Note_on_c, 4, 55, 72
10, 123504, Note_on_c, 4, 55, 0
10, 123600, Note_on_c, 4, 47, 72
10, 123640, Note_on_c, 4, 47, 0
10, 123640, Note_on_c, 4, 48, 72
10, 123680, Note_on_c, 4, 48, 0
10, 123680, Note_on_c, 4, 47, 72
10, 123720, Note_on_c, 4, 47, 0
10, 123720, Note_on_c, 4, 45, 72
10, 123780, Note_on_c, 4, 45, 0
10, 123780, Note_on_c, 4, 47, 72
10, 123840, Note_on_c, 4, 47, 0
10, 123840, Note_on_c, 4, 48, 72
10, 124032, Note_on_c, 4, 48, 0
10, 124800, Note_on_c, 4, 46, 92
10, 125376, Note_on_c, 4, 46, 0
10, 125520, Note_on_c, 4, 48, 72
10, 125712, Note_on_c, 4, 48, 0
10, 125760, Note_on_c, 4, 44, 72
10, 125952, Note_on_c, 4, 44, 0
10, 126000, Note_on_c, 4, 44, 72
10, 126192, Note_on_c, 4, 44, 0
10, 126240, Note_on_c, 4, 46, 72
10, 126432, Note_on_c, 4, 46, 0
10, 126480, Note_on_c, 4, 46, 72
10, 126672, Note_on_c, 4, 46, 0
10, 126720, Note_on_c, 4, 39, 72
10, 126912, Note_on_c, 4, 39, 0
10, 129120, Note_on_c, 4, 60, 72
10, 129264, Note_on_c, 4, 60, 0
10, 129360, Note_on_c, 4, 52, 72
10, 129400, Note_on_c, 4, 52, 0
10, 129400, Note_on_c, 4, 53, 72
10, 129440, Note_on_c, 4, 53, 0
10, 129440, Note_on_c, 4, 52, 72
10, 129480, Note_on_c, 4, 52, 0
10, 129480, Note_on_c, 4, 50, 72
10, 129540, Note_on_c, 4, 50, 0
10, 129540, Note_on_c, 4, 52, 72
10, 129600, Note_on_c, 4, 52, 0
10, 129600, Note_on_c, 4, 53, 72
10, 129792, Note_on_c, 4, 53, 0
10, 131040, Note_on_c, 4, 62, 72
10, 131184, Note_on_c, 4, 62, 0
10, 131280, Note_on_c, 4, 54, 72
10, 131320, Note_on_c, 4, 54, 0
10, 131320, Note_on_c, 4, 55, 72
10, 131360, Note_on_c, 4, 55, 0
10, 131360, Note_on_c, 4, 54, 72
10, 131400, Note_on_c, 4, 54, 0
10, 131400, Note_on_c, 4, 52, 72
10, 131460, Note_on_c, 4, 52, 0
10, 131460, Note_on_c, 4, 54, 72
10, 131520, Note_on_c, 4, 54, 0
10, 131520, Note_on_c, 4, 55, 72
10, 131712, Note_on_c, 4, 55, 0
10, 133920, Note_on_c, 4, 60, 72
10, 134064, Note_on_c, 4, 60, 0
10, 134160, Note_on_c, 4, 54, 72
10, 134200, Note_on_c, 4, 54, 0
10, 134200, Note_on_c, 4, 55, 72
10, 134240, Note_on_c, 4, 55, 0
10, 134240, Note_on_c, 4, 54, 72
10, 134280, Note_on_c, 4, 54, 0
10, 134280, Note_on_c, 4, 52, 72
10, 134340, Note_on_c, 4, 52, 0
10, 134340, Note_on_c, 4, 54, 72
10, 134400, Note_on_c, 4, 54, 0
10, 134400, Note_on_c, 4, 55, 72
10, 134544, Note_on_c, 4, 55, 0
10, 134640, Note_on_c, 4, 56, 72
10, 134680, Note_on_c, 4, 56, 0
10, 134680, Note_on_c, 4, 58, 72
10, 134720, Note_on_c, 4, 58, 0
10, 134720, Note_on_c, 4, 56, 72
10, 134760, Note_on_c, 4, 56, 0
10, 134760, Note_on_c, 4, 55, 72
10, 134820, Note_on_c, 4, 55, 0
10, 134820, Note_on_c, 4, 56, 72
10, 134880, Note_on_c, 4, 56, 0
10, 134880, Note_on_c, 4, 55, 72
10, 135024, Note_on_c, 4, 55, 0
10, 135120, Note_on_c, 4, 53, 72
10, 135160, Note_on_c, 4, 53, 0
10, 135160, Note_on_c, 4, 55, 72
10, 135200, Note_on_c, 4, 55, 0
10, 135200, Note_on_c, 4, 53, 72
10, 135240, Note_on_c, 4, 53, 0
10, 135240, Note_on_c, 4, 51, 72
10, 135300, Note_on_c, 4, 51, 0
10, 135300, Note_on_c, 4, 53, 72
10, 135360, Note_on_c, 4, 53, 0
10, 135360, Note_on_c, 4, 51, 72
10, 135504, Note_on_c, 4, 51, 0
10, 135600, Note_on_c, 4, 47, 72
10, 135640, Note_on_c, 4, 47, 0
10, 135640, Note_on_c, 4, 48, 72
10, 135680, Note_on_c, 4, 48, 0
10, 135680, Note_on_c, 4, 47, 72
10, 135720, Note_on_c, 4, 47, 0
10, 135720, Note_on_c, 4, 45, 72
10, 135780, Note_on_c, 4, 45, 0
10, 135780, Note_on_c, 4, 47, 72
10, 135840, Note_on_c, 4, 47, 0
10, 135840, Note_on_c, 4, 48, 72
10, 135984, Note_on_c, 4, 48, 0
10, 136080, Note_on_c, 4, 44, 72
10, 136120, Note_on_c, 4, 44, 0
10, 136120, Note_on_c, 4, 46, 72
10, 136160, Note_on_c, 4, 46, 0
10, 136160, Note_on_c, 4, 44, 72
10, 136200, Note_on_c, 4, 44, 0
10, 136200, Note_on_c, 4, 43, 72
10, 136260, Note_on_c, 4, 43, 0
10, 136260, Note_on_c, 4, 44, 72
10, 136320, Note_on_c, 4, 44, 0
10, 136320, Note_on_c, 4, 43, 72
10, 136512, Note_on_c, 4, 43, 0
10, 137280, Note_on_c, 4, 55, 72
10, 137424, Note_on_c, 4, 55, 0
10, 137520, Note_on_c, 4, 47, 72
10, 137560, Note_on_c, 4, 47, 0
10, 137560, Note_on_c, 4, 48, 72
10, 137600, Note_on_c, 4, 48, 0
10, 137600, Note_on_c, 4, 47, 72
10, 137640, Note_on_c, 4, 47, 0
10, 137640, Note_on_c, 4, 45, 72
10, 137700, Note_on_c, 4, 45, 0
10, 137700, Note_on_c, 4, 47, 72
10, 137760, Note_on_c, 4, 47, 0
10, 137760, Note_on_c, 4, 48, 72
10, 137952, Note_on_c, 4, 48, 0
10, 138240, Note_on_c, 4, 55, 72
10, 138384, Note_on_c, 4, 55, 0
10, 138480, Note_on_c, 4, 47, 72
10, 138520, Note_on_c, 4, 47, 0
10, 138520, Note_on_c, 4, 48, 72
10, 138560, Note_on_c, 4, 48, 0
10, 138560, Note_on_c, 4, 47, 72
10, 138600, Note_on_c, 4, 47, 0
10, 138600, Note_on_c, 4, 45, 72
10, 138660, Note_on_c, 4, 45, 0
10, 138660, Note_on_c, 4, 47, 72
10, 138720, Note_on_c, 4, 47, 0
10, 138720, Note_on_c, 4, 48, 72
10, 138912, Note_on_c, 4, 48, 0
10, 139200, Note_on_c, 4, 55, 72
10, 139344, Note_on_c, 4, 55, 0
10, 139440, Note_on_c, 4, 47, 72
10, 139480, Note_on_c, 4, 47, 0
10, 139480, Note_on_c, 4, 48, 72
10, 139520, Note_on_c, 4, 48, 0
10, 139520, Note_on_c, 4, 47, 72
10, 139560, Note_on_c, 4, 47, 0
10, 139560, Note_on_c, 4, 45, 72
10, 139620, Note_on_c, 4, 45, 0
10, 139620, Note_on_c, 4, 47, 72
10, 139680, Note_on_c, 4, 47, 0
10, 139680, Note_on_c, 4, 48, 72
10, 139872, Note_on_c, 4, 48, 0
10, 142080, Note_on_c, 4, 43, 72
10, 142800, Note_on_c, 4, 43, 0
10, 142800, Note_on_c, 4, 45, 72
10, 142920, Note_on_c, 4, 45, 0
10, 142920, Note_on_c, 4, 47, 72
10, 143040, Note_on_c, 4, 47, 0
10, 143040, Note_on_c, 4, 48, 58
10, 143232, Note_on_c, 4, 48, 0
10, 144000, Note_on_c, 4, 48, 72
10, 144384, Note_on_c, 4, 48, 0
10, 144480, Note_on_c, 4, 48, 72
10, 144864, Note_on_c, 4, 48, 0
10, 144960, Note_on_c, 4, 48, 72
10, 145344, Note_on_c, 4, 48, 0
10, 145440, Note_on_c, 4, 48, 72
10, 145824, Note_on_c, 4, 48, 0
10, 145920, Note_on_c, 4, 48, 72
10, 146304, Note_on_c, 4, 48, 0
10, 146400, Note_on_c, 4, 48, 72
10, 146784, Note_on_c, 4, 48, 0
10, 147360, Note_on_c, 4, 48, 72
10, 147744, Note_on_c, 4, 48, 0
10, 148320, Note_on_c, 4, 48, 72
10, 148800, Note_on_c, 4, 48, 0
10, 148800, Note_on_c, 4, 47, 72
10, 149280, Note_on_c, 4, 47, 0
10, 149280, Note_on_c, 4, 48, 72
10, 149664, Note_on_c, 4, 48, 0
10, 149760, Note_on_c, 4, 55, 72
10, 150144, Note_on_c, 4, 55, 0
10, 150240, Note_on_c, 4, 43, 72
10, 150624, Note_on_c, 4, 43, 0
10, 151680, Note_on_c, 4, 48, 72
10, 152064, Note_on_c, 4, 48, 0
10, 152160, Note_on_c, 4, 48, 105
10, 152544, Note_on_c, 4, 48, 0
10, 152640, Note_on_c, 4, 48, 105
10, 153024, Note_on_c, 4, 48, 0
10, 153120, Note_on_c, 4, 48, 105
10, 153504, Note_on_c, 4, 48, 0
10, 153600, Note_on_c, 4, 48, 105
10, 153984, Note_on_c, 4, 48, 0
10, 154080, Note_on_c, 4, 48, 105
10, 154464, Note_on_c, 4, 48, 0
10, 154560, Note_on_c, 4, 52, 105
10, 154944, Note_on_c, 4, 52, 0
10, 155040, Note_on_c, 4, 52, 105
10, 155424, Note_on_c, 4, 52, 0
10, 155520, Note_on_c, 4, 53, 105
10, 155904, Note_on_c, 4, 53, 0
10, 156000, Note_on_c, 4, 53, 105
10, 156384, Note_on_c, 4, 53, 0
10, 156480, Note_on_c, 4, 55, 105
10, 156864, Note_on_c, 4, 55, 0
10, 156960, Note_on_c, 4, 43, 105
10, 157344, Note_on_c, 4, 43, 0
10, 157440, Note_on_c, 4, 48, 92
10, 157824, Note_on_c, 4, 48, 0
10, 159360, Note_on_c, 4, 43, 72
10, 159744, Note_on_c, 4, 43, 0
10, 159840, Note_on_c, 4, 43, 72
10, 160224, Note_on_c, 4, 43, 0
10, 160320, Note_on_c, 4, 43, 72
10, 160704, Note_on_c, 4, 43, 0
10, 160800, Note_on_c, 4, 43, 72
10, 161184, Note_on_c, 4, 43, 0
10, 161280, Note_on_c, 4, 43, 58
10, 161664, Note_on_c, 4, 43, 0
10, 163200, Note_on_c, 4, 43, 72
10, 163584, Note_on_c, 4, 43, 0
10, 163680, Note_on_c, 4, 55, 81
10, 164064, Note_on_c, 4, 55, 0
10, 164160, Note_on_c, 4, 55, 92
10, 164544, Note_on_c, 4, 55, 0
10, 164640, Note_on_c, 4, 55, 92
10, 165024, Note_on_c, 4, 55, 0
10, 165120, Note_on_c, 4, 43, 105
10, 165504, Note_on_c, 4, 43, 0
10, 167040, Note_on_c, 4, 45, 58
10, 167808, Note_on_c, 4, 45, 0
10, 168000, Note_on_c, 4, 50, 58
10, 168480, Note_on_c, 4, 50, 0
10, 168480, Note_on_c, 4, 47, 58
10, 168864, Note_on_c, 4, 47, 0
10, 168960, Note_on_c, 4, 48, 58
10, 169344, Note_on_c, 4, 48, 0
10, 169920, Note_on_c, 4, 52, 105
10, 170304, Note_on_c, 4, 52, 0
10, 170400, Note_on_c, 4, 50, 105
10, 170784, Note_on_c, 4, 50, 0
10, 170880, Note_on_c, 4, 48, 105
10, 171264, Note_on_c, 4, 48, 0
10, 171360, Note_on_c, 4, 53, 105
10, 171744, Note_on_c, 4, 53, 0
10, 171840, Note_on_c, 4, 55, 105
10, 172224, Note_on_c, 4, 55, 0
10, 172320, Note_on_c, 4, 43, 105
10, 172704, Note_on_c, 4, 43, 0
10, 172800, Note_on_c, 4, 48, 92
10, 173184, Note_on_c, 4, 48, 0
10, 173760, Note_on_c, 4, 40, 112
10, 174144, Note_on_c, 4, 40, 0
10, 174720, Note_on_c, 4, 41, 112
10, 175104, Note_on_c, 4, 41, 0
10, 175680, Note_on_c, 4, 42, 112
10, 176064, Note_on_c, 4, 42, 0
10, 176640, Note_on_c, 4, 43, 58
10, 178560, Note_on_c, 4, 43, 0
10, 178560, Note_on_c, 4, 48, 58
10, 178944, Note_on_c, 4, 48, 0
10, 180480, Note_on_c, 4, 43, 58
10, 182400, Note_on_c, 4, 43, 0
10, 182400, Note_on_c, 4, 48, 58
10, 182784, Note_on_c, 4, 48, 0
10, 184320, Note_on_c, 4, 43, 58
10, 186240, Note_on_c, 4, 43, 0
10, 186240, Note_on_c, 4, 48, 58
10, 186432, Note_on_c, 4, 48, 0
10, 186720, Note_on_c, 4, 43, 58
10, 186912, Note_on_c, 4, 43, 0
10, 187200, Note_on_c, 4, 36, 58
10, 187392, Note_on_c, 4, 36, 0
10, 187392, End_track
11, 0, Start_track
11, 0, Program_c, 5, 43
11, 0, Control_c, 5, 91, 95
11, 1920, Note_on_c, 5, 36, 58
11, 2304, Note_on_c, 5, 36, 0
11, 2400, Note_on_c, 5, 36, 58
11, 2784, Note_on_c, 5, 36, 0
11, 2880, Note_on_c, 5, 36, 58
11, 3264, Note_on_c, 5, 36, 0
11, 3360, Note_on_c, 5, 36, 58
11, 3744, Note_on_c, 5, 36, 0
11, 3840, Note_on_c, 5, 36, 58
11, 4224, Note_on_c, 5, 36, 0
11, 4320, Note_on_c, 5, 36, 58
11, 4704, Note_on_c, 5, 36, 0
11, 5280, Note_on_c, 5, 36, 58
11, 5664, Note_on_c, 5, 36, 0
11, 6240, Note_on_c, 5, 36, 58
11, 6720, Note_on_c, 5, 36, 0
11, 6720, Note_on_c, 5, 35, 58
11, 7200, Note_on_c, 5, 35, 0
11, 7200, Note_on_c, 5, 36, 58
11, 7584, Note_on_c, 5, 36, 0
11, 7680, Note_on_c, 5, 43, 58
11, 8064, Note_on_c, 5, 43, 0
11, 8160, Note_on_c, 5, 31, 58
11, 8544, Note_on_c, 5, 31, 0
11, 9600, Note_on_c, 5, 36, 105
11, 9984, Note_on_c, 5, 36, 0
11, 10080, Note_on_c, 5, 36, 105
11, 10464, Note_on_c, 5, 36, 0
11, 10560, Note_on_c, 5, 36, 105
11, 10944, Note_on_c, 5, 36, 0
11, 11040, Note_on_c, 5, 36, 105
11, 11424, Note_on_c, 5, 36, 0
11, 11520, Note_on_c, 5, 36, 105
11, 11904, Note_on_c, 5, 36, 0
11, 12000, Note_on_c, 5, 36, 105
11, 12384, Note_on_c, 5, 36, 0
11, 12480, Note_on_c, 5, 40, 105
11, 12864, Note_on_c, 5, 40, 0
11, 12960, Note_on_c, 5, 40, 105
11, 13344, Note_on_c, 5, 40, 0
11, 13440, Note_on_c, 5, 41, 105
11, 13824, Note_on_c, 5, 41, 0
11, 13920, Note_on_c, 5, 41, 105
11, 14304, Note_on_c, 5, 41, 0
11, 14400, Note_on_c, 5, 43, 105
11, 14784, Note_on_c, 5, 43, 0
11, 14880, Note_on_c, 5, 31, 105
11, 15264, Note_on_c, 5, 31, 0
11, 15360, Note_on_c, 5, 36, 92
11, 15744, Note_on_c, 5, 36, 0
11, 17280, Note_on_c, 5, 36, 58
11, 17664, Note_on_c, 5, 36, 0
11, 17760, Note_on_c, 5, 36, 58
11, 18144, Note_on_c, 5, 36, 0
11, 18240, Note_on_c, 5, 36, 58
11, 18624, Note_on_c, 5, 36, 0
11, 18720, Note_on_c, 5, 36, 58
11, 19104, Note_on_c, 5, 36, 0
11, 19200, Note_on_c, 5, 36, 58
11, 19584, Note_on_c, 5, 36, 0
11, 19680, Note_on_c, 5, 36, 58
11, 20064, Note_on_c, 5, 36, 0
11, 20640, Note_on_c, 5, 36, 58
11, 21024, Note_on_c, 5, 36, 0
11, 21600, Note_on_c, 5, 36, 58
11, 22080, Note_on_c, 5, 36, 0
11, 22080, Note_on_c, 5, 35, 58
11, 22560, Note_on_c, 5, 35, 0
11, 22560, Note_on_c, 5, 36, 58
11, 22944, Note_on_c, 5, 36, 0
11, 23040, Note_on_c, 5, 43, 58
11, 23424, Note_on_c, 5, 43, 0
11, 23520, Note_on_c, 5, 31, 58
11, 23904, Note_on_c, 5, 31, 0
11, 24960, Note_on_c, 5, 36, 105
11, 25344, Note_on_c, 5, 36, 0
11, 25440, Note_on_c, 5, 36, 105
11, 25824, Note_on_c, 5, 36, 0
11, 25920, Note_on_c, 5, 36, 105
11, 26304, Note_on_c, 5, 36, 0
11, 26400, Note_on_c, 5, 36, 105
11, 26784, Note_on_c, 5, 36, 0
11, 26880, Note_on_c, 5, 36, 105
11, 27264, Note_on_c, 5, 36, 0
11, 27360, Note_on_c, 5, 36, 105
11, 27744, Note_on_c, 5, 36, 0
11, 27840, Note_on_c, 5, 40, 105
11, 28224, Note_on_c, 5, 40, 0
11, 28320, Note_on_c, 5, 40, 105
11, 28704, Note_on_c, 5, 40, 0
11, 28800, Note_on_c, 5, 41, 105
11, 29184, Note_on_c, 5, 41, 0
11, 29280, Note_on_c, 5, 41, 105
11, 29664, Note_on_c, 5, 41, 0
11, 29760, Note_on_c, 5, 43, 105
11, 30144, Note_on_c, 5, 43, 0
11, 30240, Note_on_c, 5, 31, 105
11, 30624, Note_on_c, 5, 31, 0
11, 30720, Note_on_c, 5, 36, 92
11, 31104, Note_on_c, 5, 36, 0
11, 32640, Note_on_c, 5, 31, 58
11, 33024, Note_on_c, 5, 31, 0
11, 33120, Note_on_c, 5, 31, 58
11, 33504, Note_on_c, 5, 31, 0
11, 33600, Note_on_c, 5, 31, 58
11, 33984, Note_on_c, 5, 31, 0
11, 34080, Note_on_c, 5, 31, 58
11, 34464, Note_on_c, 5, 31, 0
11, 34560, Note_on_c, 5, 31, 58
11, 34944, Note_on_c, 5, 31, 0
11, 36480, Note_on_c, 5, 31, 58
11, 36864, Note_on_c, 5, 31, 0
11, 36960, Note_on_c, 5, 43, 58
11, 37344, Note_on_c, 5, 43, 0
11, 37440, Note_on_c, 5, 43, 81
11, 37824, Note_on_c, 5, 43, 0
11, 37920, Note_on_c, 5, 43, 92
11, 38304, Note_on_c, 5, 43, 0
11, 38400, Note_on_c, 5, 31, 105
11, 38784, Note_on_c, 5, 31, 0
11, 40320, Note_on_c, 5, 33, 58
11, 41088, Note_on_c, 5, 33, 0
11, 41280, Note_on_c, 5, 38, 58
11, 41760, Note_on_c, 5, 38, 0
11, 41760, Note_on_c, 5, 35, 58
11, 42144, Note_on_c, 5, 35, 0
11, 42240, Note_on_c, 5, 36, 58
11, 42624, Note_on_c, 5, 36, 0
11, 43200, Note_on_c, 5, 40, 58
11, 43584, Note_on_c, 5, 40, 0
11, 43680, Note_on_c, 5, 38, 105
11, 44064, Note_on_c, 5, 38, 0
11, 44160, Note_on_c, 5, 36, 105
11, 44544, Note_on_c, 5, 36, 0
11, 44640, Note_on_c, 5, 41, 105
11, 45024, Note_on_c, 5, 41, 0
11, 45120, Note_on_c, 5, 43, 105
11, 45504, Note_on_c, 5, 43, 0
11, 45600, Note_on_c, 5, 31, 105
11, 45984, Note_on_c, 5, 31, 0
11, 46080, Note_on_c, 5, 36, 92
11, 46464, Note_on_c, 5, 36, 0
11, 48000, Note_on_c, 5, 31, 58
11, 48384, Note_on_c, 5, 31, 0
11, 48480, Note_on_c, 5, 31, 58
11, 48864, Note_on_c, 5, 31, 0
11, 48960, Note_on_c, 5, 31, 58
11, 49344, Note_on_c, 5, 31, 0
11, 49440, Note_on_c, 5, 31, 58
11, 49824, Note_on_c, 5, 31, 0
11, 49920, Note_on_c, 5, 31, 58
11, 50304, Note_on_c, 5, 31, 0
11, 51840, Note_on_c, 5, 31, 58
11, 52224, Note_on_c, 5, 31, 0
11, 52320, Note_on_c, 5, 43, 58
11, 52704, Note_on_c, 5, 43, 0
11, 52800, Note_on_c, 5, 43, 81
11, 53184, Note_on_c, 5, 43, 0
11, 53280, Note_on_c, 5, 43, 92
11, 53664, Note_on_c, 5, 43, 0
11, 53760, Note_on_c, 5, 31, 105
11, 54144, Note_on_c, 5, 31, 0
11, 55680, Note_on_c, 5, 33, 58
11, 56448, Note_on_c, 5, 33, 0
11, 56640, Note_on_c, 5, 38, 58
11, 57120, Note_on_c, 5, 38, 0
11, 57120, Note_on_c, 5, 35, 58
11, 57504, Note_on_c, 5, 35, 0
11, 57600, Note_on_c, 5, 36, 58
11, 57984, Note_on_c, 5, 36, 0
11, 58560, Note_on_c, 5, 40, 58
11, 58944, Note_on_c, 5, 40, 0
11, 59040, Note_on_c, 5, 38, 105
11, 59424, Note_on_c, 5, 38, 0
11, 59520, Note_on_c, 5, 36, 105
11, 59904, Note_on_c, 5, 36, 0
11, 60000, Note_on_c, 5, 41, 105
11, 60384, Note_on_c, 5, 41, 0
11, 60480, Note_on_c, 5, 43, 105
11, 60864, Note_on_c, 5, 43, 0
11, 60960, Note_on_c, 5, 31, 105
11, 61344, Note_on_c, 5, 31, 0
11, 61440, Note_on_c, 5, 36, 92
11, 61824, Note_on_c, 5, 36, 0
11, 62400, Note_on_c, 5, 48, 58
11, 62544, Note_on_c, 5, 48, 0
11, 62640, Note_on_c, 5, 48, 58
11, 62784, Note_on_c, 5, 48, 0
11, 62880, Note_on_c, 5, 48, 58
11, 63024, Note_on_c, 5, 48, 0
11, 63120, Note_on_c, 5, 48, 58
11, 63264, Note_on_c, 5, 48, 0
11, 63360, Note_on_c, 5, 43, 58
11, 63744, Note_on_c, 5, 43, 0
11, 64320, Note_on_c, 5, 36, 58
11, 64464, Note_on_c, 5, 36, 0
11, 64560, Note_on_c, 5, 36, 58
11, 64704, Note_on_c, 5, 36, 0
11, 64800, Note_on_c, 5, 36, 58
11, 64944, Note_on_c, 5, 36, 0
11, 65040, Note_on_c, 5, 36, 58
11, 65184, Note_on_c, 5, 36, 0
11, 65280, Note_on_c, 5, 31, 58
11, 65664, Note_on_c, 5, 31, 0
11, 66240, Note_on_c, 5, 48, 58
11, 66384, Note_on_c, 5, 48, 0
11, 66480, Note_on_c, 5, 48, 58
11, 66624, Note_on_c, 5, 48, 0
11, 66720, Note_on_c, 5, 45, 58
11, 66864, Note_on_c, 5, 45, 0
11, 66960, Note_on_c, 5, 45, 58
11, 67104, Note_on_c, 5, 45, 0
11, 67200, Note_on_c, 5, 43, 58
11, 67584, Note_on_c, 5, 43, 0
11, 67920, Note_on_c, 5, 40, 58
11, 68064, Note_on_c, 5, 40, 0
11, 68160, Note_on_c, 5, 38, 58
11, 68544, Note_on_c, 5, 38, 0
11, 68880, Note_on_c, 5, 38, 58
11, 69024, Note_on_c, 5, 38, 0
11, 69120, Note_on_c, 5, 31, 58
11, 69696, Note_on_c, 5, 31, 0
11, 70080, Note_on_c, 5, 48, 58
11, 70224, Note_on_c, 5, 48, 0
11, 70320, Note_on_c, 5, 48, 58
11, 70464, Note_on_c, 5, 48, 0
11, 70560, Note_on_c, 5, 48, 58
11, 70704, Note_on_c, 5, 48, 0
11, 70800, Note_on_c, 5, 48, 58
11, 70944, Note_on_c, 5, 48, 0
11, 71040, Note_on_c, 5, 43, 58
11, 71424, Note_on_c, 5, 43, 0
11, 72000, Note_on_c, 5, 36, 58
11, 72144, Note_on_c, 5, 36, 0
11, 72240, Note_on_c, 5, 36, 58
11, 72384, Note_on_c, 5, 36, 0
11, 72480, Note_on_c, 5, 36, 58
11, 72624, Note_on_c, 5, 36, 0
11, 72720, Note_on_c, 5, 36, 58
11, 72864, Note_on_c, 5, 36, 0
11, 72960, Note_on_c, 5, 31, 58
11, 73344, Note_on_c, 5, 31, 0
11, 73920, Note_on_c, 5, 48, 58
11, 74064, Note_on_c, 5, 48, 0
11, 74160, Note_on_c, 5, 48, 58
11, 74304, Note_on_c, 5, 48, 0
11, 74400, Note_on_c, 5, 45, 58
11, 74544, Note_on_c, 5, 45, 0
11, 74640, Note_on_c, 5, 45, 58
11, 74784, Note_on_c, 5, 45, 0
11, 74880, Note_on_c, 5, 43, 58
11, 75264, Note_on_c, 5, 43, 0
11, 75600, Note_on_c, 5, 40, 58
11, 75744, Note_on_c, 5, 40, 0
11, 75840, Note_on_c, 5, 38, 58
11, 76224, Note_on_c, 5, 38, 0
11, 76560, Note_on_c, 5, 38, 58
11, 76704, Note_on_c, 5, 38, 0
11, 76800, Note_on_c, 5, 31, 58
11, 77376, Note_on_c, 5, 31, 0
11, 77760, Note_on_c, 5, 40, 58
11, 77904, Note_on_c, 5, 40, 0
11, 78000, Note_on_c, 5, 40, 58
11, 78144, Note_on_c, 5, 40, 0
11, 78240, Note_on_c, 5, 43, 58
11, 78384, Note_on_c, 5, 43, 0
11, 78480, Note_on_c, 5, 43, 58
11, 78624, Note_on_c, 5, 43, 0
11, 78720, Note_on_c, 5, 45, 58
11, 79104, Note_on_c, 5, 45, 0
11, 79680, Note_on_c, 5, 38, 58
11, 79824, Note_on_c, 5, 38, 0
11, 79920, Note_on_c, 5, 38, 58
11, 80064, Note_on_c, 5, 38, 0
11, 80160, Note_on_c, 5, 41, 58
11, 80304, Note_on_c, 5, 41, 0
11, 80400, Note_on_c, 5, 41, 58
11, 80544, Note_on_c, 5, 41, 0
11, 80640, Note_on_c, 5, 43, 58
11, 81024, Note_on_c, 5, 43, 0
11, 81600, Note_on_c, 5, 48, 58
11, 81744, Note_on_c, 5, 48, 0
11, 81840, Note_on_c, 5, 48, 58
11, 81984, Note_on_c, 5, 48, 0
11, 82080, Note_on_c, 5, 45, 58
11, 82224, Note_on_c, 5, 45, 0
11, 82320, Note_on_c, 5, 45, 58
11, 82464, Note_on_c, 5, 45, 0
11, 82560, Note_on_c, 5, 44, 58
11, 82944, Note_on_c, 5, 44, 0
11, 83280, Note_on_c, 5, 40, 58
11, 83520, Note_on_c, 5, 40, 0
11, 83520, Note_on_c, 5, 41, 58
11, 83904, Note_on_c, 5, 41, 0
11, 84240, Note_on_c, 5, 41, 58
11, 84480, Note_on_c, 5, 41, 0
11, 84480, Note_on_c, 5, 40, 58
11, 84864, Note_on_c, 5, 40, 0
11, 85200, Note_on_c, 5, 44, 58
11, 85440, Note_on_c, 5, 44, 0
11, 85440, Note_on_c, 5, 45, 58
11, 85584, Note_on_c, 5, 45, 0
11, 85680, Note_on_c, 5, 45, 58
11, 85824, Note_on_c, 5, 45, 0
11, 85920, Note_on_c, 5, 45, 58
11, 86064, Note_on_c, 5, 45, 0
11, 86160, Note_on_c, 5, 45, 58
11, 86304, Note_on_c, 5, 45, 0
11, 86400, Note_on_c, 5, 44, 58
11, 86784, Note_on_c, 5, 44, 0
11, 87120, Note_on_c, 5, 40, 58
11, 87360, Note_on_c, 5, 40, 0
11, 87360, Note_on_c, 5, 41, 58
11, 87744, Note_on_c, 5, 41, 0
11, 88080, Note_on_c, 5, 41, 58
11, 88320, Note_on_c, 5, 41, 0
11, 88320, Note_on_c, 5, 40, 58
11, 88704, Note_on_c, 5, 40, 0
11, 89040, Note_on_c, 5, 41, 58
11, 89280, Note_on_c, 5, 41, 0
11, 89280, Note_on_c, 5, 40, 58
11, 89664, Note_on_c, 5, 40, 0
11, 91920, Note_on_c, 5, 33, 58
11, 92064, Note_on_c, 5, 33, 0
11, 92160, Note_on_c, 5, 32, 58
11, 92400, Note_on_c, 5, 32, 0
11, 92400, Note_on_c, 5, 35, 58
11, 92544, Note_on_c, 5, 35, 0
11, 92640, Note_on_c, 5, 28, 58
11, 92784, Note_on_c, 5, 28, 0
11, 95760, Note_on_c, 5, 36, 72
11, 95904, Note_on_c, 5, 36, 0
11, 96000, Note_on_c, 5, 35, 72
11, 96240, Note_on_c, 5, 35, 0
11, 96240, Note_on_c, 5, 38, 72
11, 96384, Note_on_c, 5, 38, 0
11, 96480, Note_on_c, 5, 31, 58
11, 96624, Note_on_c, 5, 31, 0
11, 96720, Note_on_c, 5, 35, 58
11, 96864, Note_on_c, 5, 35, 0
11, 97920, Note_on_c, 5, 36, 72
11, 98304, Note_on_c, 5, 36, 0
11, 98400, Note_on_c, 5, 36, 72
11, 98784, Note_on_c, 5, 36, 0
11, 98880, Note_on_c, 5, 36, 72
11, 99264, Note_on_c, 5, 36, 0
11, 99360, Note_on_c, 5, 36, 72
11, 99744, Note_on_c, 5, 36, 0
11, 99840, Note_on_c, 5, 36, 72
11, 100224, Note_on_c, 5, 36, 0
11, 100320, Note_on_c, 5, 36, 72
11, 100704, Note_on_c, 5, 36, 0
11, 101280, Note_on_c, 5, 36, 72
11, 101664, Note_on_c, 5, 36, 0
11, 102240, Note_on_c, 5, 36, 72
11, 102720, Note_on_c, 5, 36, 0
11, 102720, Note_on_c, 5, 35, 72
11, 103200, Note_on_c, 5, 35, 0
11, 103200, Note_on_c, 5, 36, 72
11, 103584, Note_on_c, 5, 36, 0
11, 103680, Note_on_c, 5, 43, 72
11, 104064, Note_on_c, 5, 43, 0
11, 104160, Note_on_c, 5, 31, 72
11, 104544, Note_on_c, 5, 31, 0
11, 105600, Note_on_c, 5, 36, 105
11, 105984, Note_on_c, 5, 36, 0
11, 106080, Note_on_c, 5, 36, 105
11, 106464, Note_on_c, 5, 36, 0
11, 106560, Note_on_c, 5, 36, 105
11, 106944, Note_on_c, 5, 36, 0
11, 107040, Note_on_c, 5, 36, 105
11, 107424, Note_on_c, 5, 36, 0
11, 107520, Note_on_c, 5, 36, 105
11, 107904, Note_on_c, 5, 36, 0
11, 108000, Note_on_c, 5, 36, 105
11, 108384, Note_on_c, 5, 36, 0
11, 108480, Note_on_c, 5, 40, 105
11, 108864, Note_on_c, 5, 40, 0
11, 108960, Note_on_c, 5, 40, 105
11, 109344, Note_on_c, 5, 40, 0
11, 109440, Note_on_c, 5, 41, 105
11, 109824, Note_on_c, 5, 41, 0
11, 109920, Note_on_c, 5, 41, 105
11, 110304, Note_on_c, 5, 41, 0
11, 110400, Note_on_c, 5, 43, 105
11, 110784, Note_on_c, 5, 43, 0
11, 110880, Note_on_c, 5, 31, 105
11, 111264, Note_on_c, 5, 31, 0
11, 111360, Note_on_c, 5, 36, 105
11, 111744, Note_on_c, 5, 36, 0
11, 113760, Note_on_c, 5, 43, 72
11, 113904, Note_on_c, 5, 43, 0
11, 114000, Note_on_c, 5, 35, 72
11, 114040, Note_on_c, 5, 35, 0
11, 114040, Note_on_c, 5, 36, 72
11, 114080, Note_on_c, 5, 36, 0
11, 114080, Note_on_c, 5, 35, 72
11, 114120, Note_on_c, 5, 35, 0
11, 114120, Note_on_c, 5, 33, 72
11, 114180, Note_on_c, 5, 33, 0
11, 114180, Note_on_c, 5, 35, 72
11, 114240, Note_on_c, 5, 35, 0
11, 114240, Note_on_c, 5, 36, 72
11, 114432, Note_on_c, 5, 36, 0
11, 115680, Note_on_c, 5, 43, 72
11, 115824, Note_on_c, 5, 43, 0
11, 115920, Note_on_c, 5, 35, 72
11, 115960, Note_on_c, 5, 35, 0
11, 115960, Note_on_c, 5, 36, 72
11, 116000, Note_on_c, 5, 36, 0
11, 116000, Note_on_c, 5, 35, 72
11, 116040, Note_on_c, 5, 35, 0
11, 116040, Note_on_c, 5, 33, 72
11, 116100, Note_on_c, 5, 33, 0
11, 116100, Note_on_c, 5, 35, 72
11, 116160, Note_on_c, 5, 35, 0
11, 116160, Note_on_c, 5, 36, 72
11, 116352, Note_on_c, 5, 36, 0
11, 117120, Note_on_c, 5, 34, 112
11, 117696, Note_on_c, 5, 34, 0
11, 117840, Note_on_c, 5, 36, 72
11, 118032, Note_on_c, 5, 36, 0
11, 118080, Note_on_c, 5, 32, 72
11, 118272, Note_on_c, 5, 32, 0
11, 118320, Note_on_c, 5, 32, 72
11, 118512, Note_on_c, 5, 32, 0
11, 118560, Note_on_c, 5, 34, 72
11, 118752, Note_on_c, 5, 34, 0
11, 118800, Note_on_c, 5, 34, 72
11, 118992, Note_on_c, 5, 34, 0
11, 119040, Note_on_c, 5, 39, 72
11, 119232, Note_on_c, 5, 39, 0
11, 121440, Note_on_c, 5, 43, 72
11, 121584, Note_on_c, 5, 43, 0
11, 121680, Note_on_c, 5, 35, 72
11, 121720, Note_on_c, 5, 35, 0
11, 121720, Note_on_c, 5, 36, 72
11, 121760, Note_on_c, 5, 36, 0
11, 121760, Note_on_c, 5, 35, 72
11, 121800, Note_on_c, 5, 35, 0
11, 121800, Note_on_c, 5, 33, 72
11, 121860, Note_on_c, 5, 33, 0
11, 121860, Note_on_c, 5, 35, 72
11, 121920, Note_on_c, 5, 35, 0
11, 121920, Note_on_c, 5, 36, 72
11, 122112, Note_on_c, 5, 36, 0
11, 123360, Note_on_c, 5, 43, 72
11, 123504, Note_on_c, 5, 43, 0
11, 123600, Note_on_c, 5, 35, 72
11, 123640, Note_on_c, 5, 35, 0
11, 123640, Note_on_c, 5, 36, 72
11, 123680, Note_on_c, 5, 36, 0
11, 123680, Note_on_c, 5, 35, 72
11, 123720, Note_on_c, 5, 35, 0
11, 123720, Note_on_c, 5, 33, 72
11, 123780, Note_on_c, 5, 33, 0
11, 123780, Note_on_c, 5, 35, 72
11, 123840, Note_on_c, 5, 35, 0
11, 123840, Note_on_c, 5, 36, 72
11, 124032, Note_on_c, 5, 36, 0
11, 124800, Note_on_c, 5, 34, 112
11, 125376, Note_on_c, 5, 34, 0
11, 125520, Note_on_c, 5, 36, 72
11, 125712, Note_on_c, 5, 36, 0
11, 125760, Note_on_c, 5, 32, 72
11, 125952, Note_on_c, 5, 32, 0
11, 126000, Note_on_c, 5, 32, 72
11, 126192, Note_on_c, 5, 32, 0
11, 126240, Note_on_c, 5, 34, 72
11, 126432, Note_on_c, 5, 34, 0
11, 126480, Note_on_c, 5, 34, 72
11, 126672, Note_on_c, 5, 34, 0
11, 126720, Note_on_c, 5, 39, 72
11, 126912, Note_on_c, 5, 39, 0
11, 129120, Note_on_c, 5, 48, 72
11, 129264, Note_on_c, 5, 48, 0
11, 129360, Note_on_c, 5, 40, 72
11, 129400, Note_on_c, 5, 40, 0
11, 129400, Note_on_c, 5, 41, 72
11, 129440, Note_on_c, 5, 41, 0
11, 129440, Note_on_c, 5, 40, 72
11, 129480, Note_on_c, 5, 40, 0
11, 129480, Note_on_c, 5, 38, 72
11, 129540, Note_on_c, 5, 38, 0
11, 129540, Note_on_c, 5, 40, 72
11, 129600, Note_on_c, 5, 40, 0
11, 129600, Note_on_c, 5, 41, 72
11, 129792, Note_on_c, 5, 41, 0
11, 131040, Note_on_c, 5, 50, 72
11, 131184, Note_on_c, 5, 50, 0
11, 131280, Note_on_c, 5, 42, 72
11, 131320, Note_on_c, 5, 42, 0
11, 131320, Note_on_c, 5, 43, 72
11, 131360, Note_on_c, 5, 43, 0
11, 131360, Note_on_c, 5, 42, 72
11, 131400, Note_on_c, 5, 42, 0
11, 131400, Note_on_c, 5, 40, 72
11, 131460, Note_on_c, 5, 40, 0
11, 131460, Note_on_c, 5, 42, 72
11, 131520, Note_on_c, 5, 42, 0
11, 131520, Note_on_c, 5, 43, 72
11, 131712, Note_on_c, 5, 43, 0
11, 133920, Note_on_c, 5, 48, 72
11, 134064, Note_on_c, 5, 48, 0
11, 134160, Note_on_c, 5, 42, 72
11, 134200, Note_on_c, 5, 42, 0
11, 134200, Note_on_c, 5, 43, 72
11, 134240, Note_on_c, 5, 43, 0
11, 134240, Note_on_c, 5, 42, 72
11, 134280, Note_on_c, 5, 42, 0
11, 134280, Note_on_c, 5, 40, 72
11, 134340, Note_on_c, 5, 40, 0
11, 134340, Note_on_c, 5, 42, 72
11, 134400, Note_on_c, 5, 42, 0
11, 134400, Note_on_c, 5, 43, 72
11, 134544, Note_on_c, 5, 43, 0
11, 134640, Note_on_c, 5, 44, 72
11, 134680, Note_on_c, 5, 44, 0
11, 134680, Note_on_c, 5, 46, 72
11, 134720, Note_on_c, 5, 46, 0
11, 134720, Note_on_c, 5, 44, 72
11, 134760, Note_on_c, 5, 44, 0
11, 134760, Note_on_c, 5, 43, 72
11, 134820, Note_on_c, 5, 43, 0
11, 134820, Note_on_c, 5, 44, 72
11, 134880, Note_on_c, 5, 44, 0
11, 134880, Note_on_c, 5, 43, 72
11, 135024, Note_on_c, 5, 43, 0
11, 135120, Note_on_c, 5, 41, 72
11, 135160, Note_on_c, 5, 41, 0
11, 135160, Note_on_c, 5, 43, 72
11, 135200, Note_on_c, 5, 43, 0
11, 135200, Note_on_c, 5, 41, 72
11, 135240, Note_on_c, 5, 41, 0
11, 135240, Note_on_c, 5, 39, 72
11, 135300, Note_on_c, 5, 39, 0
11, 135300, Note_on_c, 5, 41, 72
11, 135360, Note_on_c, 5, 41, 0
11, 135360, Note_on_c, 5, 39, 72
11, 135504, Note_on_c, 5, 39, 0
11, 135600, Note_on_c, 5, 35, 72
11, 135640, Note_on_c, 5, 35, 0
11, 135640, Note_on_c, 5, 36, 72
11, 135680, Note_on_c, 5, 36, 0
11, 135680, Note_on_c, 5, 35, 72
11, 135720, Note_on_c, 5, 35, 0
11, 135720, Note_on_c, 5, 33, 72
11, 135780, Note_on_c, 5, 33, 0
11, 135780, Note_on_c, 5, 35, 72
11, 135840, Note_on_c, 5, 35, 0
11, 135840, Note_on_c, 5, 36, 72
11, 135984, Note_on_c, 5, 36, 0
11, 136080, Note_on_c, 5, 32, 72
11, 136120, Note_on_c, 5, 32, 0
11, 136120, Note_on_c, 5, 34, 72
11, 136160, Note_on_c, 5, 34, 0
11, 136160, Note_on_c, 5, 32, 72
11, 136200, Note_on_c, 5, 32, 0
11, 136200, Note_on_c, 5, 31, 72
11, 136260, Note_on_c, 5, 31, 0
11, 136260, Note_on_c, 5, 32, 72
11, 136320, Note_on_c, 5, 32, 0
11, 136320, Note_on_c, 5, 31, 72
11, 136512, Note_on_c, 5, 31, 0
11, 137280, Note_on_c, 5, 43, 72
11, 137424, Note_on_c, 5, 43, 0
11, 137520, Note_on_c, 5, 35, 72
11, 137560, Note_on_c, 5, 35, 0
11, 137560, Note_on_c, 5, 36, 72
11, 137600, Note_on_c, 5, 36, 0
11, 137600, Note_on_c, 5, 35, 72
11, 137640, Note_on_c, 5, 35, 0
11, 137640, Note_on_c, 5, 33, 72
11, 137700, Note_on_c, 5, 33, 0
11, 137700, Note_on_c, 5, 35, 72
11, 137760, Note_on_c, 5, 35, 0
11, 137760, Note_on_c, 5, 36, 72
11, 137952, Note_on_c, 5, 36, 0
11, 138240, Note_on_c, 5, 43, 72
11, 138384, Note_on_c, 5, 43, 0
11, 138480, Note_on_c, 5, 35, 72
11, 138520, Note_on_c, 5, 35, 0
11, 138520, Note_on_c, 5, 36, 72
11, 138560, Note_on_c, 5, 36, 0
11, 138560, Note_on_c, 5, 35, 72
11, 138600, Note_on_c, 5, 35, 0
11, 138600, Note_on_c, 5, 33, 72
11, 138660, Note_on_c, 5, 33, 0
11, 138660, Note_on_c, 5, 35, 72
11, 138720, Note_on_c, 5, 35, 0
11, 138720, Note_on_c, 5, 36, 72
11, 138912, Note_on_c, 5, 36, 0
11, 139200, Note_on_c, 5, 43, 72
11, 139344, Note_on_c, 5, 43, 0
11, 139440, Note_on_c, 5, 35, 72
11, 139480, Note_on_c, 5, 35, 0
11, 139480, Note_on_c, 5, 36, 72
11, 139520, Note_on_c, 5, 36, 0
11, 139520, Note_on_c, 5, 35, 72
11, 139560, Note_on_c, 5, 35, 0
11, 139560, Note_on_c, 5, 33, 72
11, 139620, Note_on_c, 5, 33, 0
11, 139620, Note_on_c, 5, 35, 72
11, 139680, Note_on_c, 5, 35, 0
11, 139680, Note_on_c, 5, 36, 72
11, 139872, Note_on_c, 5, 36, 0
11, 142080, Note_on_c, 5, 31, 72
11, 142800, Note_on_c, 5, 31, 0
11, 142800, Note_on_c, 5, 33, 72
11, 142920, Note_on_c, 5, 33, 0
11, 142920, Note_on_c, 5, 35, 72
11, 143040, Note_on_c, 5, 35, 0
11, 143040, Note_on_c, 5, 36, 58
11, 143232, Note_on_c, 5, 36, 0
11, 144000, Note_on_c, 5, 36, 72
11, 144384, Note_on_c, 5, 36, 0
11, 144480, Note_on_c, 5, 36, 72
11, 144864, Note_on_c, 5, 36, 0
11, 144960, Note_on_c, 5, 36, 72
11, 145344, Note_on_c, 5, 36, 0
11, 145440, Note_on_c, 5, 36, 72
11, 145824, Note_on_c, 5, 36, 0
11, 145920, Note_on_c, 5, 36, 72
11, 146304, Note_on_c, 5, 36, 0
11, 146400, Note_on_c, 5, 36, 72
11, 146784, Note_on_c, 5, 36, 0
11, 147360, Note_on_c, 5, 36, 72
11, 147744, Note_on_c, 5, 36, 0
11, 148320, Note_on_c, 5, 36, 72
11, 148800, Note_on_c, 5, 36, 0
11, 148800, Note_on_c, 5, 35, 72
11, 149280, Note_on_c, 5, 35, 0
11, 149280, Note_on_c, 5, 36, 72
11, 149664, Note_on_c, 5, 36, 0
11, 149760, Note_on_c, 5, 43, 72
11, 150144, Note_on_c, 5, 43, 0
11, 150240, Note_on_c, 5, 31, 72
11, 150624, Note_on_c, 5, 31, 0
11, 151680, Note_on_c, 5, 36, 105
11, 152064, Note_on_c, 5, 36, 0
11, 152160, Note_on_c, 5, 36, 105
11, 152544, Note_on_c, 5, 36, 0
11, 152640, Note_on_c, 5, 36, 105
11, 153024, Note_on_c, 5, 36, 0
11, 153120, Note_on_c, 5, 36, 105
11, 153504, Note_on_c, 5, 36, 0
11, 153600, Note_on_c, 5, 36, 105
11, 153984, Note_on_c, 5, 36, 0
11, 154080, Note_on_c, 5, 36, 105
11, 154464, Note_on_c, 5, 36, 0
11, 154560, Note_on_c, 5, 40, 105
11, 154944, Note_on_c, 5, 40, 0
11, 155040, Note_on_c, 5, 40, 105
11, 155424, Note_on_c, 5, 40, 0
11, 155520, Note_on_c, 5, 41, 105
11, 155904, Note_on_c, 5, 41, 0
11, 156000, Note_on_c, 5, 41, 105
11, 156384, Note_on_c, 5, 41, 0
11, 156480, Note_on_c, 5, 43, 105
11, 156864, Note_on_c, 5, 43, 0
11, 156960, Note_on_c, 5, 31, 105
11, 157344, Note_on_c, 5, 31, 0
11, 157440, Note_on_c, 5, 36, 92
11, 157824, Note_on_c, 5, 36, 0
11, 159360, Note_on_c, 5, 31, 72
11, 159744, Note_on_c, 5, 31, 0
11, 159840, Note_on_c, 5, 31, 72
11, 160224, Note_on_c, 5, 31, 0
11, 160320, Note_on_c, 5, 31, 72
11, 160704, Note_on_c, 5, 31, 0
11, 160800, Note_on_c, 5, 31, 72
11, 161184, Note_on_c, 5, 31, 0
11, 161280, Note_on_c, 5, 31, 58
11, 161664, Note_on_c, 5, 31, 0
11, 163200, Note_on_c, 5, 31, 72
11, 163584, Note_on_c, 5, 31, 0
11, 163680, Note_on_c, 5, 43, 81
11, 164064, Note_on_c, 5, 43, 0
11, 164160, Note_on_c, 5, 43, 81
11, 164544, Note_on_c, 5, 43, 0
11, 164640, Note_on_c, 5, 43, 105
11, 165024, Note_on_c, 5, 43, 0
11, 165120, Note_on_c, 5, 31, 105
11, 165504, Note_on_c, 5, 31, 0
11, 167040, Note_on_c, 5, 33, 58
11, 167808, Note_on_c, 5, 33, 0
11, 168000, Note_on_c, 5, 38, 58
11, 168480, Note_on_c, 5, 38, 0
11, 168480, Note_on_c, 5, 35, 58
11, 168864, Note_on_c, 5, 35, 0
11, 168960, Note_on_c, 5, 36, 58
11, 169344, Note_on_c, 5, 36, 0
11, 169920, Note_on_c, 5, 40, 105
11, 170304, Note_on_c, 5, 40, 0
11, 170400, Note_on_c, 5, 38, 105
11, 170784, Note_on_c, 5, 38, 0
11, 170880, Note_on_c, 5, 36, 105
11, 171264, Note_on_c, 5, 36, 0
11, 171360, Note_on_c, 5, 41, 105
11, 171744, Note_on_c, 5, 41, 0
11, 171840, Note_on_c, 5, 43, 105
11, 172224, Note_on_c, 5, 43, 0
11, 172320, Note_on_c, 5, 31, 105
11, 172704, Note_on_c, 5, 31, 0
11, 172800, Note_on_c, 5, 36, 92
11, 173184, Note_on_c, 5, 36, 0
11, 173760, Note_on_c, 5, 28, 112
11, 174144, Note_on_c, 5, 28, 0
11, 174720, Note_on_c, 5, 29, 112
11, 175104, Note_on_c, 5, 29, 0
11, 175680, Note_on_c, 5, 30, 112
11, 176064, Note_on_c, 5, 30, 0
11, 176640, Note_on_c, 5, 31, 58
11, 178560, Note_on_c, 5, 31, 0
11, 178560, Note_on_c, 5, 36, 58
11, 178944, Note_on_c, 5, 36, 0
11, 180480, Note_on_c, 5, 31, 58
11, 182400, Note_on_c, 5, 31, 0
11, 182400, Note_on_c, 5, 36, 58
11, 182784, Note_on_c, 5, 36, 0
11, 184320, Note_on_c, 5, 31, 58
11, 186240, Note_on_c, 5, 31, 0
11, 186240, Note_on_c, 5, 36, 58
11, 186432, Note_on_c, 5, 36, 0
11, 186720, Note_on_c, 5, 31, 58
11, 186912, Note_on_c, 5, 31, 0
11, 187200, Note_on_c, 5, 36, 30
11, 187392, Note_on_c, 5, 36, 0
11, 188160, Note_on_c, 5, 24, 1
11, 189696, Note_on_c, 5, 24, 0
11, 189696, End_track
12, 0, Start_track
12, 0, End_track
0, 0, End_of_file