0, 0, Header, 1, 4, 240
1, 0, Start_track
1, 0, Time_signature, 3, 2, 24, 8
1, 0, Tempo, 480000
1, 57120, Tempo, 512821
1, 57360, Tempo, 550459
1, 57600, Tempo, 600000
1, 57840, Tempo, 600000
1, 58080, Tempo, 600000
1, 58080, End_track
2, 0, Start_track
2, 480, Note_on_c, 0, 67, 64
2, 588, Note_off_c, 0, 67, 64
2, 720, Note_on_c, 0, 72, 64
2, 912, Note_off_c, 0, 72, 64
2, 960, Note_on_c, 0, 72, 64
2, 1056, Note_off_c, 0, 72, 64
2, 1080, Note_on_c, 0, 71, 64
2, 1176, Note_off_c, 0, 71, 64
2, 1200, Note_on_c, 0, 72, 64
2, 1308, Note_off_c, 0, 72, 64
2, 1440, Note_on_c, 0, 74, 64
2, 1632, Note_off_c, 0, 74, 64
2, 1680, Note_on_c, 0, 74, 64
2, 1776, Note_off_c, 0, 74, 64
2, 1800, Note_on_c, 0, 72, 64
2, 1896, Note_off_c, 0, 72, 64
2, 1920, Note_on_c, 0, 74, 64
2, 2028, Note_off_c, 0, 74, 64
2, 2160, Note_on_c, 0, 76, 64
2, 2352, Note_off_c, 0, 76, 64
2, 2400, Note_on_c, 0, 76, 64
2, 2496, Note_off_c, 0, 76, 64
2, 2520, Note_on_c, 0, 72, 64
2, 2616, Note_off_c, 0, 72, 64
2, 2640, Note_on_c, 0, 77, 64
2, 2640, Note_on_c, 0, 74, 64
2, 2748, Note_off_c, 0, 74, 64
2, 2748, Note_off_c, 0, 77, 64
2, 2880, Note_on_c, 0, 74, 64
2, 2880, Note_on_c, 0, 71, 64
2, 3072, Note_off_c, 0, 71, 64
2, 3072, Note_off_c, 0, 74, 64
2, 3360, Note_on_c, 0, 67, 64
2, 3360, Note_on_c, 0, 79, 64
2, 3468, Note_off_c, 0, 79, 64
2, 3468, Note_off_c, 0, 67, 64
2, 3600, Note_on_c, 0, 81, 64
2, 3600, Note_on_c, 0, 69, 64
2, 3792, Note_off_c, 0, 69, 64
2, 3792, Note_off_c, 0, 81, 64
2, 3840, Note_on_c, 0, 69, 64
2, 3840, Note_on_c, 0, 81, 64
2, 3936, Note_off_c, 0, 81, 64
2, 3936, Note_off_c, 0, 69, 64
2, 3960, Note_on_c, 0, 80, 64
2, 3960, Note_on_c, 0, 68, 64
2, 4056, Note_off_c, 0, 68, 64
2, 4056, Note_off_c, 0, 80, 64
2, 4080, Note_on_c, 0, 81, 64
2, 4080, Note_on_c, 0, 69, 64
2, 4188, Note_off_c, 0, 69, 64
2, 4188, Note_off_c, 0, 81, 64
2, 4320, Note_on_c, 0, 71, 64
2, 4320, Note_on_c, 0, 83, 64
2, 4512, Note_off_c, 0, 83, 64
2, 4512, Note_off_c, 0, 71, 64
2, 4560, Note_on_c, 0, 83, 64
2, 4560, Note_on_c, 0, 71, 64
2, 4656, Note_off_c, 0, 71, 64
2, 4656, Note_off_c, 0, 83, 64
2, 4680, Note_on_c, 0, 81, 64
2, 4680, Note_on_c, 0, 69, 64
2, 4776, Note_off_c, 0, 69, 64
2, 4776, Note_off_c, 0, 81, 64
2, 4800, Note_on_c, 0, 71, 64
2, 4800, Note_on_c, 0, 83, 64
2, 4908, Note_off_c, 0, 83, 64
2, 4908, Note_off_c, 0, 71, 64
2, 5040, Note_on_c, 0, 72, 64
2, 5040, Note_on_c, 0, 84, 64
2, 5232, Note_off_c, 0, 84, 64
2, 5232, Note_off_c, 0, 72, 64
2, 5280, Note_on_c, 0, 86, 64
2, 5280, Note_on_c, 0, 74, 64
2, 5376, Note_off_c, 0, 74, 64
2, 5376, Note_off_c, 0, 86, 64
2, 5400, Note_on_c, 0, 84, 64
2, 5400, Note_on_c, 0, 72, 64
2, 5454, Note_off_c, 0, 72, 64
2, 5454, Note_off_c, 0, 84, 64
2, 5520, Note_on_c, 0, 71, 64
2, 5520, Note_on_c, 0, 83, 64
2, 5616, Note_off_c, 0, 83, 64
2, 5616, Note_off_c, 0, 71, 64
2, 5640, Note_on_c, 0, 86, 64
2, 5640, Note_on_c, 0, 74, 64
2, 5694, Note_off_c, 0, 74, 64
2, 5694, Note_off_c, 0, 86, 64
2, 5760, Note_on_c, 0, 84, 64
2, 5760, Note_on_c, 0, 72, 64
2, 6144, Note_off_c, 0, 72, 64
2, 6144, Note_off_c, 0, 84, 64
2, 6240, Note_on_c, 0, 67, 64
2, 6348, Note_off_c, 0, 67, 64
2, 6480, Note_on_c, 0, 72, 64
2, 6672, Note_off_c, 0, 72, 64
2, 6720, Note_on_c, 0, 72, 64
2, 6816, Note_off_c, 0, 72, 64
2, 6840, Note_on_c, 0, 71, 64
2, 6936, Note_off_c, 0, 71, 64
2, 6960, Note_on_c, 0, 72, 64
2, 7068, Note_off_c, 0, 72, 64
2, 7200, Note_on_c, 0, 74, 64
2, 7392, Note_off_c, 0, 74, 64
2, 7440, Note_on_c, 0, 74, 64
2, 7536, Note_off_c, 0, 74, 64
2, 7560, Note_on_c, 0, 72, 64
2, 7656, Note_off_c, 0, 72, 64
2, 7680, Note_on_c, 0, 74, 64
2, 7788, Note_off_c, 0, 74, 64
2, 7920, Note_on_c, 0, 76, 64
2, 8112, Note_off_c, 0, 76, 64
2, 8160, Note_on_c, 0, 76, 64
2, 8256, Note_off_c, 0, 76, 64
2, 8280, Note_on_c, 0, 72, 64
2, 8376, Note_off_c, 0, 72, 64
2, 8400, Note_on_c, 0, 74, 64
2, 8400, Note_on_c, 0, 77, 64
2, 8508, Note_off_c, 0, 77, 64
2, 8508, Note_off_c, 0, 74, 64
2, 8640, Note_on_c, 0, 71, 64
2, 8640, Note_on_c, 0, 74, 64
2, 8832, Note_off_c, 0, 74, 64
2, 8832, Note_off_c, 0, 71, 64
2, 9120, Note_on_c, 0, 79, 64
2, 9120, Note_on_c, 0, 67, 64
2, 9228, Note_off_c, 0, 67, 64
2, 9228, Note_off_c, 0, 79, 64
2, 9360, Note_on_c, 0, 69, 64
2, 9360, Note_on_c, 0, 81, 64
2, 9552, Note_off_c, 0, 81, 64
2, 9552, Note_off_c, 0, 69, 64
2, 9600, Note_on_c, 0, 81, 64
2, 9600, Note_on_c, 0, 69, 64
2, 9696, Note_off_c, 0, 69, 64
2, 9696, Note_off_c, 0, 81, 64
2, 9720, Note_on_c, 0, 68, 64
2, 9720, Note_on_c, 0, 80, 64
2, 9816, Note_off_c, 0, 80, 64
2, 9816, Note_off_c, 0, 68, 64
2, 9840, Note_on_c, 0, 69, 64
2, 9840, Note_on_c, 0, 81, 64
2, 9948, Note_off_c, 0, 81, 64
2, 9948, Note_off_c, 0, 69, 64
2, 10080, Note_on_c, 0, 83, 64
2, 10080, Note_on_c, 0, 71, 64
2, 10272, Note_off_c, 0, 71, 64
2, 10272, Note_off_c, 0, 83, 64
2, 10320, Note_on_c, 0, 71, 64
2, 10320, Note_on_c, 0, 83, 64
2, 10416, Note_off_c, 0, 83, 64
2, 10416, Note_off_c, 0, 71, 64
2, 10440, Note_on_c, 0, 69, 64
2, 10440, Note_on_c, 0, 81, 64
2, 10536, Note_off_c, 0, 81, 64
2, 10536, Note_off_c, 0, 69, 64
2, 10560, Note_on_c, 0, 83, 64
2, 10560, Note_on_c, 0, 71, 64
2, 10668, Note_off_c, 0, 71, 64
2, 10668, Note_off_c, 0, 83, 64
2, 10800, Note_on_c, 0, 84, 64
2, 10800, Note_on_c, 0, 72, 64
2, 10992, Note_off_c, 0, 72, 64
2, 10992, Note_off_c, 0, 84, 64
2, 11040, Note_on_c, 0, 74, 64
2, 11040, Note_on_c, 0, 86, 64
2, 11136, Note_off_c, 0, 86, 64
2, 11136, Note_off_c, 0, 74, 64
2, 11160, Note_on_c, 0, 72, 64
2, 11160, Note_on_c, 0, 84, 64
2, 11214, Note_off_c, 0, 84, 64
2, 11214, Note_off_c, 0, 72, 64
2, 11280, Note_on_c, 0, 83, 64
2, 11280, Note_on_c, 0, 71, 64
2, 11376, Note_off_c, 0, 71, 64
2, 11376, Note_off_c, 0, 83, 64
2, 11400, Note_on_c, 0, 74, 64
2, 11400, Note_on_c, 0, 86, 64
2, 11454, Note_off_c, 0, 86, 64
2, 11454, Note_off_c, 0, 74, 64
2, 11520, Note_on_c, 0, 72, 64
2, 11520, Note_on_c, 0, 84, 64
2, 11904, Note_off_c, 0, 84, 64
2, 11904, Note_off_c, 0, 72, 64
2, 12000, Note_on_c, 0, 67, 64
2, 12108, Note_off_c, 0, 67, 64
2, 12240, Note_on_c, 0, 77, 64
2, 12432, Note_off_c, 0, 77, 64
2, 12480, Note_on_c, 0, 76, 64
2, 12672, Note_off_c, 0, 76, 64
2, 12720, Note_on_c, 0, 74, 64
2, 12912, Note_off_c, 0, 74, 64
2, 12960, Note_on_c, 0, 72, 64
2, 13152, Note_off_c, 0, 72, 64
2, 13200, Note_on_c, 0, 71, 64
2, 13392, Note_off_c, 0, 71, 64
2, 13440, Note_on_c, 0, 67, 64
2, 13548, Note_off_c, 0, 67, 64
2, 13680, Note_on_c, 0, 79, 64
2, 13872, Note_off_c, 0, 79, 64
2, 13920, Note_on_c, 0, 77, 64
2, 14112, Note_off_c, 0, 77, 64
2, 14160, Note_on_c, 0, 76, 64
2, 14352, Note_off_c, 0, 76, 64
2, 14400, Note_on_c, 0, 71, 64
2, 14400, Note_on_c, 0, 67, 64
2, 14400, Note_on_c, 0, 74, 64
2, 14592, Note_off_c, 0, 74, 64
2, 14592, Note_off_c, 0, 71, 64
2, 14640, Note_on_c, 0, 72, 64
2, 14748, Note_off_c, 0, 72, 64
2, 14832, Note_off_c, 0, 67, 64
2, 14880, Note_on_c, 0, 81, 64
2, 14904, Note_off_c, 0, 81, 64
2, 14910, Note_on_c, 0, 79, 64
2, 14934, Note_off_c, 0, 79, 64
2, 14940, Note_on_c, 0, 81, 64
2, 14964, Note_off_c, 0, 81, 64
2, 14970, Note_on_c, 0, 79, 64
2, 14994, Note_off_c, 0, 79, 64
2, 15000, Note_on_c, 0, 77, 64
2, 15048, Note_off_c, 0, 77, 64
2, 15060, Note_on_c, 0, 79, 64
2, 15108, Note_off_c, 0, 79, 64
2, 15120, Note_on_c, 0, 81, 64
2, 15120, Note_on_c, 0, 69, 64
2, 15312, Note_off_c, 0, 69, 64
2, 15312, Note_off_c, 0, 81, 64
2, 15360, Note_on_c, 0, 69, 64
2, 15360, Note_on_c, 0, 81, 64
2, 15456, Note_off_c, 0, 81, 64
2, 15456, Note_off_c, 0, 69, 64
2, 15480, Note_on_c, 0, 68, 64
2, 15480, Note_on_c, 0, 80, 64
2, 15576, Note_off_c, 0, 80, 64
2, 15576, Note_off_c, 0, 68, 64
2, 15600, Note_on_c, 0, 81, 64
2, 15600, Note_on_c, 0, 69, 64
2, 15792, Note_off_c, 0, 69, 64
2, 15792, Note_off_c, 0, 81, 64
2, 15840, Note_on_c, 0, 71, 64
2, 15840, Note_on_c, 0, 83, 64
2, 16032, Note_off_c, 0, 83, 64
2, 16032, Note_off_c, 0, 71, 64
2, 16080, Note_on_c, 0, 83, 64
2, 16080, Note_on_c, 0, 71, 64
2, 16176, Note_off_c, 0, 71, 64
2, 16176, Note_off_c, 0, 83, 64
2, 16200, Note_on_c, 0, 81, 64
2, 16200, Note_on_c, 0, 69, 64
2, 16296, Note_off_c, 0, 69, 64
2, 16296, Note_off_c, 0, 81, 64
2, 16320, Note_on_c, 0, 71, 64
2, 16320, Note_on_c, 0, 83, 64
2, 16428, Note_off_c, 0, 83, 64
2, 16428, Note_off_c, 0, 71, 64
2, 16560, Note_on_c, 0, 72, 64
2, 16560, Note_on_c, 0, 84, 64
2, 16752, Note_off_c, 0, 84, 64
2, 16752, Note_off_c, 0, 72, 64
2, 16800, Note_on_c, 0, 86, 64
2, 16800, Note_on_c, 0, 74, 64
2, 16896, Note_off_c, 0, 74, 64
2, 16896, Note_off_c, 0, 86, 64
2, 16920, Note_on_c, 0, 84, 64
2, 16920, Note_on_c, 0, 72, 64
2, 16974, Note_off_c, 0, 72, 64
2, 16974, Note_off_c, 0, 84, 64
2, 17040, Note_on_c, 0, 71, 64
2, 17040, Note_on_c, 0, 83, 64
2, 17136, Note_off_c, 0, 83, 64
2, 17136, Note_off_c, 0, 71, 64
2, 17160, Note_on_c, 0, 86, 64
2, 17160, Note_on_c, 0, 74, 64
2, 17214, Note_off_c, 0, 74, 64
2, 17214, Note_off_c, 0, 86, 64
2, 17280, Note_on_c, 0, 84, 64
2, 17280, Note_on_c, 0, 72, 64
2, 17664, Note_off_c, 0, 72, 64
2, 17664, Note_off_c, 0, 84, 64
2, 17760, Note_on_c, 0, 67, 64
2, 17868, Note_off_c, 0, 67, 64
2, 18000, Note_on_c, 0, 77, 64
2, 18192, Note_off_c, 0, 77, 64
2, 18240, Note_on_c, 0, 76, 64
2, 18432, Note_off_c, 0, 76, 64
2, 18480, Note_on_c, 0, 74, 64
2, 18672, Note_off_c, 0, 74, 64
2, 18720, Note_on_c, 0, 72, 64
2, 18912, Note_off_c, 0, 72, 64
2, 18960, Note_on_c, 0, 71, 64
2, 19152, Note_off_c, 0, 71, 64
2, 19200, Note_on_c, 0, 67, 64
2, 19308, Note_off_c, 0, 67, 64
2, 19440, Note_on_c, 0, 79, 64
2, 19632, Note_off_c, 0, 79, 64
2, 19680, Note_on_c, 0, 77, 64
2, 19872, Note_off_c, 0, 77, 64
2, 19920, Note_on_c, 0, 76, 64
2, 20112, Note_off_c, 0, 76, 64
2, 20160, Note_on_c, 0, 74, 64
2, 20160, Note_on_c, 0, 67, 64
2, 20160, Note_on_c, 0, 71, 64
2, 20352, Note_off_c, 0, 71, 64
2, 20352, Note_off_c, 0, 74, 64
2, 20400, Note_on_c, 0, 72, 64
2, 20508, Note_off_c, 0, 72, 64
2, 20592, Note_off_c, 0, 67, 64
2, 20640, Note_on_c, 0, 81, 64
2, 20664, Note_off_c, 0, 81, 64
2, 20670, Note_on_c, 0, 79, 64
2, 20694, Note_off_c, 0, 79, 64
2, 20700, Note_on_c, 0, 81, 64
2, 20724, Note_off_c, 0, 81, 64
2, 20730, Note_on_c, 0, 79, 64
2, 20754, Note_off_c, 0, 79, 64
2, 20760, Note_on_c, 0, 77, 64
2, 20808, Note_off_c, 0, 77, 64
2, 20820, Note_on_c, 0, 79, 64
2, 20868, Note_off_c, 0, 79, 64
2, 20880, Note_on_c, 0, 69, 64
2, 20880, Note_on_c, 0, 81, 64
2, 21072, Note_off_c, 0, 81, 64
2, 21072, Note_off_c, 0, 69, 64
2, 21120, Note_on_c, 0, 81, 64
2, 21120, Note_on_c, 0, 69, 64
2, 21216, Note_off_c, 0, 69, 64
2, 21216, Note_off_c, 0, 81, 64
2, 21240, Note_on_c, 0, 80, 64
2, 21240, Note_on_c, 0, 68, 64
2, 21336, Note_off_c, 0, 68, 64
2, 21336, Note_off_c, 0, 80, 64
2, 21360, Note_on_c, 0, 69, 64
2, 21360, Note_on_c, 0, 81, 64
2, 21552, Note_off_c, 0, 81, 64
2, 21552, Note_off_c, 0, 69, 64
2, 21600, Note_on_c, 0, 83, 64
2, 21600, Note_on_c, 0, 71, 64
2, 21792, Note_off_c, 0, 71, 64
2, 21792, Note_off_c, 0, 83, 64
2, 21840, Note_on_c, 0, 71, 64
2, 21840, Note_on_c, 0, 83, 64
2, 21936, Note_off_c, 0, 83, 64
2, 21936, Note_off_c, 0, 71, 64
2, 21960, Note_on_c, 0, 69, 64
2, 21960, Note_on_c, 0, 81, 64
2, 22056, Note_off_c, 0, 81, 64
2, 22056, Note_off_c, 0, 69, 64
2, 22080, Note_on_c, 0, 83, 64
2, 22080, Note_on_c, 0, 71, 64
2, 22188, Note_off_c, 0, 71, 64
2, 22188, Note_off_c, 0, 83, 64
2, 22320, Note_on_c, 0, 84, 64
2, 22320, Note_on_c, 0, 72, 64
2, 22512, Note_off_c, 0, 72, 64
2, 22512, Note_off_c, 0, 84, 64
2, 22560, Note_on_c, 0, 74, 64
2, 22560, Note_on_c, 0, 86, 64
2, 22656, Note_off_c, 0, 86, 64
2, 22656, Note_off_c, 0, 74, 64
2, 22680, Note_on_c, 0, 72, 64
2, 22680, Note_on_c, 0, 84, 64
2, 22734, Note_off_c, 0, 84, 64
2, 22734, Note_off_c, 0, 72, 64
2, 22800, Note_on_c, 0, 83, 64
2, 22800, Note_on_c, 0, 71, 64
2, 22896, Note_off_c, 0, 71, 64
2, 22896, Note_off_c, 0, 83, 64
2, 22920, Note_on_c, 0, 74, 64
2, 22920, Note_on_c, 0, 86, 64
2, 22974, Note_off_c, 0, 86, 64
2, 22974, Note_off_c, 0, 74, 64
2, 23040, Note_on_c, 0, 72, 64
2, 23040, Note_on_c, 0, 84, 64
2, 23424, Note_off_c, 0, 84, 64
2, 23424, Note_off_c, 0, 72, 64
2, 23520, Note_on_c, 0, 67, 64
2, 23628, Note_off_c, 0, 67, 64
2, 23760, Note_on_c, 0, 72, 64
2, 23814, Note_off_c, 0, 72, 64
2, 23880, Note_on_c, 0, 71, 64
2, 23934, Note_off_c, 0, 71, 64
2, 24000, Note_on_c, 0, 72, 64
2, 24054, Note_off_c, 0, 72, 64
2, 24120, Note_on_c, 0, 74, 64
2, 24174, Note_off_c, 0, 74, 64
2, 24240, Note_on_c, 0, 76, 64
2, 24294, Note_off_c, 0, 76, 64
2, 24360, Note_on_c, 0, 77, 64
2, 24414, Note_off_c, 0, 77, 64
2, 24480, Note_on_c, 0, 79, 64
2, 24672, Note_off_c, 0, 79, 64
2, 24960, Note_on_c, 0, 79, 64
2, 25152, Note_off_c, 0, 79, 64
2, 25200, Note_on_c, 0, 77, 64
2, 25254, Note_off_c, 0, 77, 64
2, 25320, Note_on_c, 0, 79, 64
2, 25374, Note_off_c, 0, 79, 64
2, 25440, Note_on_c, 0, 77, 64
2, 25494, Note_off_c, 0, 77, 64
2, 25560, Note_on_c, 0, 76, 64
2, 25614, Note_off_c, 0, 76, 64
2, 25680, Note_on_c, 0, 74, 64
2, 25734, Note_off_c, 0, 74, 64
2, 25800, Note_on_c, 0, 72, 64
2, 25854, Note_off_c, 0, 72, 64
2, 25920, Note_on_c, 0, 71, 64
2, 26112, Note_off_c, 0, 71, 64
2, 26400, Note_on_c, 0, 74, 64
2, 26592, Note_off_c, 0, 74, 64
2, 26640, Note_on_c, 0, 72, 64
2, 26694, Note_off_c, 0, 72, 64
2, 26760, Note_on_c, 0, 74, 64
2, 26814, Note_off_c, 0, 74, 64
2, 26880, Note_on_c, 0, 72, 64
2, 26934, Note_off_c, 0, 72, 64
2, 27000, Note_on_c, 0, 71, 64
2, 27054, Note_off_c, 0, 71, 64
2, 27120, Note_on_c, 0, 76, 64
2, 27228, Note_off_c, 0, 76, 64
2, 27360, Note_on_c, 0, 74, 64
2, 27456, Note_off_c, 0, 74, 64
2, 27480, Note_on_c, 0, 72, 64
2, 27534, Note_off_c, 0, 72, 64
2, 27600, Note_on_c, 0, 69, 64
2, 27654, Note_off_c, 0, 69, 64
2, 27720, Note_on_c, 0, 66, 64
2, 27774, Note_off_c, 0, 66, 64
2, 27840, Note_on_c, 0, 78, 64
2, 27936, Note_off_c, 0, 78, 64
2, 27960, Note_on_c, 0, 74, 64
2, 28014, Note_off_c, 0, 74, 64
2, 28080, Note_on_c, 0, 79, 64
2, 28176, Note_off_c, 0, 79, 64
2, 28200, Note_on_c, 0, 74, 64
2, 28254, Note_off_c, 0, 74, 64
2, 28320, Note_on_c, 0, 71, 64
2, 28416, Note_off_c, 0, 71, 64
2, 28440, Note_on_c, 0, 67, 64
2, 28494, Note_off_c, 0, 67, 64
2, 28560, Note_on_c, 0, 69, 64
2, 28656, Note_off_c, 0, 69, 64
2, 28680, Note_on_c, 0, 66, 64
2, 28734, Note_off_c, 0, 66, 64
2, 28800, Note_on_c, 0, 67, 64
2, 29016, Note_off_c, 0, 67, 64
2, 29280, Note_on_c, 0, 67, 64
2, 29388, Note_off_c, 0, 67, 64
2, 29520, Note_on_c, 0, 72, 64
2, 29574, Note_off_c, 0, 72, 64
2, 29640, Note_on_c, 0, 71, 64
2, 29694, Note_off_c, 0, 71, 64
2, 29760, Note_on_c, 0, 72, 64
2, 29814, Note_off_c, 0, 72, 64
2, 29880, Note_on_c, 0, 74, 64
2, 29934, Note_off_c, 0, 74, 64
2, 30000, Note_on_c, 0, 76, 64
2, 30054, Note_off_c, 0, 76, 64
2, 30120, Note_on_c, 0, 77, 64
2, 30174, Note_off_c, 0, 77, 64
2, 30240, Note_on_c, 0, 79, 64
2, 30432, Note_off_c, 0, 79, 64
2, 30720, Note_on_c, 0, 79, 64
2, 30912, Note_off_c, 0, 79, 64
2, 30960, Note_on_c, 0, 77, 64
2, 31014, Note_off_c, 0, 77, 64
2, 31080, Note_on_c, 0, 79, 64
2, 31134, Note_off_c, 0, 79, 64
2, 31200, Note_on_c, 0, 77, 64
2, 31254, Note_off_c, 0, 77, 64
2, 31320, Note_on_c, 0, 76, 64
2, 31374, Note_off_c, 0, 76, 64
2, 31440, Note_on_c, 0, 74, 64
2, 31494, Note_off_c, 0, 74, 64
2, 31560, Note_on_c, 0, 72, 64
2, 31614, Note_off_c, 0, 72, 64
2, 31680, Note_on_c, 0, 71, 64
2, 31872, Note_off_c, 0, 71, 64
2, 32160, Note_on_c, 0, 74, 64
2, 32352, Note_off_c, 0, 74, 64
2, 32400, Note_on_c, 0, 72, 64
2, 32454, Note_off_c, 0, 72, 64
2, 32520, Note_on_c, 0, 74, 64
2, 32574, Note_off_c, 0, 74, 64
2, 32640, Note_on_c, 0, 72, 64
2, 32694, Note_off_c, 0, 72, 64
2, 32760, Note_on_c, 0, 71, 64
2, 32814, Note_off_c, 0, 71, 64
2, 32880, Note_on_c, 0, 76, 64
2, 32988, Note_off_c, 0, 76, 64
2, 33120, Note_on_c, 0, 74, 64
2, 33216, Note_off_c, 0, 74, 64
2, 33240, Note_on_c, 0, 72, 64
2, 33294, Note_off_c, 0, 72, 64
2, 33360, Note_on_c, 0, 69, 64
2, 33414, Note_off_c, 0, 69, 64
2, 33480, Note_on_c, 0, 66, 64
2, 33534, Note_off_c, 0, 66, 64
2, 33600, Note_on_c, 0, 78, 64
2, 33696, Note_off_c, 0, 78, 64
2, 33720, Note_on_c, 0, 74, 64
2, 33774, Note_off_c, 0, 74, 64
2, 33840, Note_on_c, 0, 79, 64
2, 33936, Note_off_c, 0, 79, 64
2, 33960, Note_on_c, 0, 74, 64
2, 34014, Note_off_c, 0, 74, 64
2, 34080, Note_on_c, 0, 71, 64
2, 34176, Note_off_c, 0, 71, 64
2, 34200, Note_on_c, 0, 67, 64
2, 34254, Note_off_c, 0, 67, 64
2, 34320, Note_on_c, 0, 69, 64
2, 34416, Note_off_c, 0, 69, 64
2, 34440, Note_on_c, 0, 66, 64
2, 34494, Note_off_c, 0, 66, 64
2, 34560, Note_on_c, 0, 67, 64
2, 34776, Note_off_c, 0, 67, 64
2, 35040, Note_on_c, 0, 67, 64
2, 35148, Note_off_c, 0, 67, 64
2, 35280, Note_on_c, 0, 79, 64
2, 35334, Note_off_c, 0, 79, 64
2, 35400, Note_on_c, 0, 77, 64
2, 35454, Note_off_c, 0, 77, 64
2, 35520, Note_on_c, 0, 76, 64
2, 35574, Note_off_c, 0, 76, 64
2, 35640, Note_on_c, 0, 74, 64
2, 35694, Note_off_c, 0, 74, 64
2, 35760, Note_on_c, 0, 73, 64
2, 35856, Note_off_c, 0, 73, 64
2, 35880, Note_on_c, 0, 76, 64
2, 35934, Note_off_c, 0, 76, 64
2, 36000, Note_on_c, 0, 77, 64
2, 36054, Note_off_c, 0, 77, 64
2, 36120, Note_on_c, 0, 76, 64
2, 36174, Note_off_c, 0, 76, 64
2, 36240, Note_on_c, 0, 74, 64
2, 36294, Note_off_c, 0, 74, 64
2, 36360, Note_on_c, 0, 72, 64
2, 36414, Note_off_c, 0, 72, 64
2, 36480, Note_on_c, 0, 71, 64
2, 36576, Note_off_c, 0, 71, 64
2, 36600, Note_on_c, 0, 74, 64
2, 36654, Note_off_c, 0, 74, 64
2, 36720, Note_on_c, 0, 76, 64
2, 36816, Note_off_c, 0, 76, 64
2, 36840, Note_on_c, 0, 72, 64
2, 36894, Note_off_c, 0, 72, 64
2, 36960, Note_on_c, 0, 69, 64
2, 37014, Note_off_c, 0, 69, 64
2, 37080, Note_on_c, 0, 71, 64
2, 37134, Note_off_c, 0, 71, 64
2, 37200, Note_on_c, 0, 72, 64
2, 37254, Note_off_c, 0, 72, 64
2, 37320, Note_on_c, 0, 74, 64
2, 37374, Note_off_c, 0, 74, 64
2, 37440, Note_on_c, 0, 64, 64
2, 37440, Note_on_c, 0, 72, 64
2, 37632, Note_off_c, 0, 72, 64
2, 37632, Note_off_c, 0, 64, 64
2, 37680, Note_on_c, 0, 71, 64
2, 37680, Note_on_c, 0, 62, 64
2, 37788, Note_off_c, 0, 62, 64
2, 37788, Note_off_c, 0, 71, 64
2, 37920, Note_on_c, 0, 67, 64
2, 38028, Note_off_c, 0, 67, 64
2, 38160, Note_on_c, 0, 65, 64
2, 38214, Note_off_c, 0, 65, 64
2, 38280, Note_on_c, 0, 67, 64
2, 38334, Note_off_c, 0, 67, 64
2, 38400, Note_on_c, 0, 65, 64
2, 38454, Note_off_c, 0, 65, 64
2, 38520, Note_on_c, 0, 64, 64
2, 38574, Note_off_c, 0, 64, 64
2, 38640, Note_on_c, 0, 69, 64
2, 38832, Note_off_c, 0, 69, 64
2, 38880, Note_on_c, 0, 67, 64
2, 38934, Note_off_c, 0, 67, 64
2, 39000, Note_on_c, 0, 69, 64
2, 39054, Note_off_c, 0, 69, 64
2, 39120, Note_on_c, 0, 67, 64
2, 39174, Note_off_c, 0, 67, 64
2, 39240, Note_on_c, 0, 65, 64
2, 39294, Note_off_c, 0, 65, 64
2, 39360, Note_on_c, 0, 83, 64
2, 39456, Note_off_c, 0, 83, 64
2, 39480, Note_on_c, 0, 79, 64
2, 39534, Note_off_c, 0, 79, 64
2, 39600, Note_on_c, 0, 84, 64
2, 39696, Note_off_c, 0, 84, 64
2, 39720, Note_on_c, 0, 79, 64
2, 39774, Note_off_c, 0, 79, 64
2, 39840, Note_on_c, 0, 76, 64
2, 39936, Note_off_c, 0, 76, 64
2, 39960, Note_on_c, 0, 72, 64
2, 40014, Note_off_c, 0, 72, 64
2, 40080, Note_on_c, 0, 74, 64
2, 40176, Note_off_c, 0, 74, 64
2, 40200, Note_on_c, 0, 71, 64
2, 40254, Note_off_c, 0, 71, 64
2, 40320, Note_on_c, 0, 72, 64
2, 40320, Note_on_c, 0, 64, 64
2, 40536, Note_off_c, 0, 64, 64
2, 40536, Note_off_c, 0, 72, 64
2, 40800, Note_on_c, 0, 67, 64
2, 40908, Note_off_c, 0, 67, 64
2, 41040, Note_on_c, 0, 79, 64
2, 41094, Note_off_c, 0, 79, 64
2, 41160, Note_on_c, 0, 77, 64
2, 41214, Note_off_c, 0, 77, 64
2, 41280, Note_on_c, 0, 76, 64
2, 41334, Note_off_c, 0, 76, 64
2, 41400, Note_on_c, 0, 74, 64
2, 41454, Note_off_c, 0, 74, 64
2, 41520, Note_on_c, 0, 73, 64
2, 41616, Note_off_c, 0, 73, 64
2, 41640, Note_on_c, 0, 76, 64
2, 41694, Note_off_c, 0, 76, 64
2, 41760, Note_on_c, 0, 77, 64
2, 41814, Note_off_c, 0, 77, 64
2, 41880, Note_on_c, 0, 76, 64
2, 41934, Note_off_c, 0, 76, 64
2, 42000, Note_on_c, 0, 74, 64
2, 42054, Note_off_c, 0, 74, 64
2, 42120, Note_on_c, 0, 72, 64
2, 42174, Note_off_c, 0, 72, 64
2, 42240, Note_on_c, 0, 71, 64
2, 42336, Note_off_c, 0, 71, 64
2, 42360, Note_on_c, 0, 74, 64
2, 42414, Note_off_c, 0, 74, 64
2, 42480, Note_on_c, 0, 76, 64
2, 42576, Note_off_c, 0, 76, 64
2, 42600, Note_on_c, 0, 72, 64
2, 42654, Note_off_c, 0, 72, 64
2, 42720, Note_on_c, 0, 69, 64
2, 42774, Note_off_c, 0, 69, 64
2, 42840, Note_on_c, 0, 71, 64
2, 42894, Note_off_c, 0, 71, 64
2, 42960, Note_on_c, 0, 72, 64
2, 43014, Note_off_c, 0, 72, 64
2, 43080, Note_on_c, 0, 74, 64
2, 43134, Note_off_c, 0, 74, 64
2, 43200, Note_on_c, 0, 72, 64
2, 43200, Note_on_c, 0, 64, 64
2, 43392, Note_off_c, 0, 64, 64
2, 43392, Note_off_c, 0, 72, 64
2, 43440, Note_on_c, 0, 62, 64
2, 43440, Note_on_c, 0, 71, 64
2, 43548, Note_off_c, 0, 71, 64
2, 43548, Note_off_c, 0, 62, 64
2, 43680, Note_on_c, 0, 67, 64
2, 43788, Note_off_c, 0, 67, 64
2, 43920, Note_on_c, 0, 65, 64
2, 43974, Note_off_c, 0, 65, 64
2, 44040, Note_on_c, 0, 67, 64
2, 44094, Note_off_c, 0, 67, 64
2, 44160, Note_on_c, 0, 65, 64
2, 44214, Note_off_c, 0, 65, 64
2, 44280, Note_on_c, 0, 64, 64
2, 44334, Note_off_c, 0, 64, 64
2, 44400, Note_on_c, 0, 69, 64
2, 44592, Note_off_c, 0, 69, 64
2, 44640, Note_on_c, 0, 67, 64
2, 44694, Note_off_c, 0, 67, 64
2, 44760, Note_on_c, 0, 69, 64
2, 44814, Note_off_c, 0, 69, 64
2, 44880, Note_on_c, 0, 67, 64
2, 44934, Note_off_c, 0, 67, 64
2, 45000, Note_on_c, 0, 65, 64
2, 45054, Note_off_c, 0, 65, 64
2, 45120, Note_on_c, 0, 83, 64
2, 45216, Note_off_c, 0, 83, 64
2, 45240, Note_on_c, 0, 79, 64
2, 45294, Note_off_c, 0, 79, 64
2, 45360, Note_on_c, 0, 84, 64
2, 45456, Note_off_c, 0, 84, 64
2, 45480, Note_on_c, 0, 79, 64
2, 45534, Note_off_c, 0, 79, 64
2, 45600, Note_on_c, 0, 76, 64
2, 45696, Note_off_c, 0, 76, 64
2, 45720, Note_on_c, 0, 72, 64
2, 45774, Note_off_c, 0, 72, 64
2, 45840, Note_on_c, 0, 74, 64
2, 45936, Note_off_c, 0, 74, 64
2, 45960, Note_on_c, 0, 71, 64
2, 46014, Note_off_c, 0, 71, 64
2, 46080, Note_on_c, 0, 64, 64
2, 46080, Note_on_c, 0, 72, 64
2, 46296, Note_off_c, 0, 72, 64
2, 46296, Note_off_c, 0, 64, 64
2, 46560, Note_on_c, 0, 67, 64
2, 46668, Note_off_c, 0, 67, 64
2, 46800, Note_on_c, 0, 72, 64
2, 46992, Note_off_c, 0, 72, 64
2, 47040, Note_on_c, 0, 72, 64
2, 47136, Note_off_c, 0, 72, 64
2, 47160, Note_on_c, 0, 71, 64
2, 47256, Note_off_c, 0, 71, 64
2, 47280, Note_on_c, 0, 72, 64
2, 47388, Note_off_c, 0, 72, 64
2, 47520, Note_on_c, 0, 74, 64
2, 47712, Note_off_c, 0, 74, 64
2, 47760, Note_on_c, 0, 74, 64
2, 47856, Note_off_c, 0, 74, 64
2, 47880, Note_on_c, 0, 72, 64
2, 47976, Note_off_c, 0, 72, 64
2, 48000, Note_on_c, 0, 74, 64
2, 48108, Note_off_c, 0, 74, 64
2, 48240, Note_on_c, 0, 76, 64
2, 48432, Note_off_c, 0, 76, 64
2, 48480, Note_on_c, 0, 76, 64
2, 48576, Note_off_c, 0, 76, 64
2, 48600, Note_on_c, 0, 72, 64
2, 48696, Note_off_c, 0, 72, 64
2, 48720, Note_on_c, 0, 77, 64
2, 48720, Note_on_c, 0, 74, 64
2, 48828, Note_off_c, 0, 74, 64
2, 48828, Note_off_c, 0, 77, 64
2, 48960, Note_on_c, 0, 74, 64
2, 48960, Note_on_c, 0, 71, 64
2, 49152, Note_off_c, 0, 71, 64
2, 49152, Note_off_c, 0, 74, 64
2, 49440, Note_on_c, 0, 67, 64
2, 49440, Note_on_c, 0, 79, 64
2, 49548, Note_off_c, 0, 79, 64
2, 49548, Note_off_c, 0, 67, 64
2, 49680, Note_on_c, 0, 81, 64
2, 49680, Note_on_c, 0, 69, 64
2, 49872, Note_off_c, 0, 69, 64
2, 49872, Note_off_c, 0, 81, 64
2, 49920, Note_on_c, 0, 69, 64
2, 49920, Note_on_c, 0, 81, 64
2, 50016, Note_off_c, 0, 81, 64
2, 50016, Note_off_c, 0, 69, 64
2, 50040, Note_on_c, 0, 80, 64
2, 50040, Note_on_c, 0, 68, 64
2, 50136, Note_off_c, 0, 68, 64
2, 50136, Note_off_c, 0, 80, 64
2, 50160, Note_on_c, 0, 81, 64
2, 50160, Note_on_c, 0, 69, 64
2, 50268, Note_off_c, 0, 69, 64
2, 50268, Note_off_c, 0, 81, 64
2, 50400, Note_on_c, 0, 71, 64
2, 50400, Note_on_c, 0, 83, 64
2, 50592, Note_off_c, 0, 83, 64
2, 50592, Note_off_c, 0, 71, 64
2, 50640, Note_on_c, 0, 83, 64
2, 50640, Note_on_c, 0, 71, 64
2, 50736, Note_off_c, 0, 71, 64
2, 50736, Note_off_c, 0, 83, 64
2, 50760, Note_on_c, 0, 81, 64
2, 50760, Note_on_c, 0, 69, 64
2, 50856, Note_off_c, 0, 69, 64
2, 50856, Note_off_c, 0, 81, 64
2, 50880, Note_on_c, 0, 71, 64
2, 50880, Note_on_c, 0, 83, 64
2, 50988, Note_off_c, 0, 83, 64
2, 50988, Note_off_c, 0, 71, 64
2, 51120, Note_on_c, 0, 72, 64
2, 51120, Note_on_c, 0, 84, 64
2, 51312, Note_off_c, 0, 84, 64
2, 51312, Note_off_c, 0, 72, 64
2, 51360, Note_on_c, 0, 86, 64
2, 51360, Note_on_c, 0, 74, 64
2, 51456, Note_off_c, 0, 74, 64
2, 51456, Note_off_c, 0, 86, 64
2, 51480, Note_on_c, 0, 84, 64
2, 51480, Note_on_c, 0, 72, 64
2, 51534, Note_off_c, 0, 72, 64
2, 51534, Note_off_c, 0, 84, 64
2, 51600, Note_on_c, 0, 71, 64
2, 51600, Note_on_c, 0, 83, 64
2, 51696, Note_off_c, 0, 83, 64
2, 51696, Note_off_c, 0, 71, 64
2, 51720, Note_on_c, 0, 86, 64
2, 51720, Note_on_c, 0, 74, 64
2, 51774, Note_off_c, 0, 74, 64
2, 51774, Note_off_c, 0, 86, 64
2, 51840, Note_on_c, 0, 84, 64
2, 51840, Note_on_c, 0, 72, 64
2, 52224, Note_off_c, 0, 72, 64
2, 52224, Note_off_c, 0, 84, 64
2, 52320, Note_on_c, 0, 67, 64
2, 52428, Note_off_c, 0, 67, 64
2, 52560, Note_on_c, 0, 77, 64
2, 52752, Note_off_c, 0, 77, 64
2, 52800, Note_on_c, 0, 76, 64
2, 52992, Note_off_c, 0, 76, 64
2, 53040, Note_on_c, 0, 74, 64
2, 53232, Note_off_c, 0, 74, 64
2, 53280, Note_on_c, 0, 72, 64
2, 53472, Note_off_c, 0, 72, 64
2, 53520, Note_on_c, 0, 71, 64
2, 53712, Note_off_c, 0, 71, 64
2, 53760, Note_on_c, 0, 67, 64
2, 53868, Note_off_c, 0, 67, 64
2, 54000, Note_on_c, 0, 79, 64
2, 54192, Note_off_c, 0, 79, 64
2, 54240, Note_on_c, 0, 77, 64
2, 54432, Note_off_c, 0, 77, 64
2, 54480, Note_on_c, 0, 76, 64
2, 54672, Note_off_c, 0, 76, 64
2, 54720, Note_on_c, 0, 74, 64
2, 54720, Note_on_c, 0, 67, 64
2, 54720, Note_on_c, 0, 71, 64
2, 54912, Note_off_c, 0, 71, 64
2, 54912, Note_off_c, 0, 67, 64
2, 54912, Note_off_c, 0, 74, 64
2, 54960, Note_on_c, 0, 67, 64
2, 54960, Note_on_c, 0, 72, 64
2, 55068, Note_off_c, 0, 72, 64
2, 55152, Note_off_c, 0, 67, 64
2, 55200, Note_on_c, 0, 81, 64
2, 55224, Note_off_c, 0, 81, 64
2, 55230, Note_on_c, 0, 79, 64
2, 55254, Note_off_c, 0, 79, 64
2, 55260, Note_on_c, 0, 81, 64
2, 55284, Note_off_c, 0, 81, 64
2, 55290, Note_on_c, 0, 79, 64
2, 55314, Note_off_c, 0, 79, 64
2, 55320, Note_on_c, 0, 77, 64
2, 55368, Note_off_c, 0, 77, 64
2, 55380, Note_on_c, 0, 79, 64
2, 55428, Note_off_c, 0, 79, 64
2, 55440, Note_on_c, 0, 69, 64
2, 55440, Note_on_c, 0, 81, 64
2, 55632, Note_off_c, 0, 81, 64
2, 55632, Note_off_c, 0, 69, 64
2, 55680, Note_on_c, 0, 81, 64
2, 55680, Note_on_c, 0, 69, 64
2, 55776, Note_off_c, 0, 69, 64
2, 55776, Note_off_c, 0, 81, 64
2, 55800, Note_on_c, 0, 80, 64
2, 55800, Note_on_c, 0, 68, 64
2, 55896, Note_off_c, 0, 68, 64
2, 55896, Note_off_c, 0, 80, 64
2, 55920, Note_on_c, 0, 69, 64
2, 55920, Note_on_c, 0, 81, 64
2, 56112, Note_off_c, 0, 81, 64
2, 56112, Note_off_c, 0, 69, 64
2, 56160, Note_on_c, 0, 83, 64
2, 56160, Note_on_c, 0, 71, 64
2, 56352, Note_off_c, 0, 71, 64
2, 56352, Note_off_c, 0, 83, 64
2, 56400, Note_on_c, 0, 71, 64
2, 56400, Note_on_c, 0, 83, 64
2, 56496, Note_off_c, 0, 83, 64
2, 56496, Note_off_c, 0, 71, 64
2, 56520, Note_on_c, 0, 69, 64
2, 56520, Note_on_c, 0, 81, 64
2, 56616, Note_off_c, 0, 81, 64
2, 56616, Note_off_c, 0, 69, 64
2, 56640, Note_on_c, 0, 83, 64
2, 56640, Note_on_c, 0, 71, 64
2, 56748, Note_off_c, 0, 71, 64
2, 56748, Note_off_c, 0, 83, 64
2, 56880, Note_on_c, 0, 84, 64
2, 56880, Note_on_c, 0, 72, 64
2, 57072, Note_off_c, 0, 72, 64
2, 57072, Note_off_c, 0, 84, 64
2, 57120, Note_on_c, 0, 74, 64
2, 57120, Note_on_c, 0, 86, 64
2, 57216, Note_off_c, 0, 86, 64
2, 57216, Note_off_c, 0, 74, 64
2, 57240, Note_on_c, 0, 72, 64
2, 57240, Note_on_c, 0, 84, 64
2, 57294, Note_off_c, 0, 84, 64
2, 57294, Note_off_c, 0, 72, 64
2, 57360, Note_on_c, 0, 83, 64
2, 57360, Note_on_c, 0, 71, 64
2, 57456, Note_off_c, 0, 71, 64
2, 57456, Note_off_c, 0, 83, 64
2, 57480, Note_on_c, 0, 74, 64
2, 57480, Note_on_c, 0, 86, 64
2, 57534, Note_off_c, 0, 86, 64
2, 57534, Note_off_c, 0, 74, 64
2, 57600, Note_on_c, 0, 72, 64
2, 57600, Note_on_c, 0, 84, 64
2, 57984, Note_off_c, 0, 84, 64
2, 57984, Note_off_c, 0, 72, 64
2, 57984, End_track
3, 0, Start_track
3, 24240, Note_on_c, 0, 67, 64
3, 24348, Note_off_c, 0, 67, 64
3, 24480, Note_on_c, 0, 72, 64
3, 24534, Note_off_c, 0, 72, 64
3, 24600, Note_on_c, 0, 71, 64
3, 24654, Note_off_c, 0, 71, 64
3, 24720, Note_on_c, 0, 72, 64
3, 24774, Note_off_c, 0, 72, 64
3, 24840, Note_on_c, 0, 74, 64
3, 24894, Note_off_c, 0, 74, 64
3, 24960, Note_on_c, 0, 76, 64
3, 25014, Note_off_c, 0, 76, 64
3, 25080, Note_on_c, 0, 72, 64
3, 25134, Note_off_c, 0, 72, 64
3, 25200, Note_on_c, 0, 69, 64
3, 25392, Note_off_c, 0, 69, 64
3, 25680, Note_on_c, 0, 69, 64
3, 25788, Note_off_c, 0, 69, 64
3, 25920, Note_on_c, 0, 67, 64
3, 25974, Note_off_c, 0, 67, 64
3, 26040, Note_on_c, 0, 69, 64
3, 26094, Note_off_c, 0, 69, 64
3, 26160, Note_on_c, 0, 67, 64
3, 26214, Note_off_c, 0, 67, 64
3, 26280, Note_on_c, 0, 65, 64
3, 26334, Note_off_c, 0, 65, 64
3, 26400, Note_on_c, 0, 64, 64
3, 26454, Note_off_c, 0, 64, 64
3, 26520, Note_on_c, 0, 62, 64
3, 26574, Note_off_c, 0, 62, 64
3, 26640, Note_on_c, 0, 64, 64
3, 26832, Note_off_c, 0, 64, 64
3, 27120, Note_on_c, 0, 69, 64
3, 27174, Note_off_c, 0, 69, 64
3, 27240, Note_on_c, 0, 67, 64
3, 27294, Note_off_c, 0, 67, 64
3, 27360, Note_on_c, 0, 66, 64
3, 27552, Note_off_c, 0, 66, 64
3, 27840, Note_on_c, 0, 69, 64
3, 28032, Note_off_c, 0, 69, 64
3, 30000, Note_on_c, 0, 67, 64
3, 30108, Note_off_c, 0, 67, 64
3, 30240, Note_on_c, 0, 72, 64
3, 30294, Note_off_c, 0, 72, 64
3, 30360, Note_on_c, 0, 71, 64
3, 30414, Note_off_c, 0, 71, 64
3, 30480, Note_on_c, 0, 72, 64
3, 30534, Note_off_c, 0, 72, 64
3, 30600, Note_on_c, 0, 74, 64
3, 30654, Note_off_c, 0, 74, 64
3, 30720, Note_on_c, 0, 76, 64
3, 30774, Note_off_c, 0, 76, 64
3, 30840, Note_on_c, 0, 72, 64
3, 30894, Note_off_c, 0, 72, 64
3, 30960, Note_on_c, 0, 69, 64
3, 31152, Note_off_c, 0, 69, 64
3, 31440, Note_on_c, 0, 69, 64
3, 31548, Note_off_c, 0, 69, 64
3, 31680, Note_on_c, 0, 67, 64
3, 31734, Note_off_c, 0, 67, 64
3, 31800, Note_on_c, 0, 69, 64
3, 31854, Note_off_c, 0, 69, 64
3, 31920, Note_on_c, 0, 67, 64
3, 31974, Note_off_c, 0, 67, 64
3, 32040, Note_on_c, 0, 65, 64
3, 32094, Note_off_c, 0, 65, 64
3, 32160, Note_on_c, 0, 64, 64
3, 32214, Note_off_c, 0, 64, 64
3, 32280, Note_on_c, 0, 62, 64
3, 32334, Note_off_c, 0, 62, 64
3, 32400, Note_on_c, 0, 64, 64
3, 32592, Note_off_c, 0, 64, 64
3, 32880, Note_on_c, 0, 69, 64
3, 32934, Note_off_c, 0, 69, 64
3, 33000, Note_on_c, 0, 67, 64
3, 33054, Note_off_c, 0, 67, 64
3, 33120, Note_on_c, 0, 66, 64
3, 33312, Note_off_c, 0, 66, 64
3, 33600, Note_on_c, 0, 69, 64
3, 33792, Note_off_c, 0, 69, 64
3, 38640, Note_on_c, 0, 62, 64
3, 38694, Note_off_c, 0, 62, 64
3, 38760, Note_on_c, 0, 60, 64
3, 38814, Note_off_c, 0, 60, 64
3, 38880, Note_on_c, 0, 59, 64
3, 39072, Note_off_c, 0, 59, 64
3, 39360, Note_on_c, 0, 74, 64
3, 39552, Note_off_c, 0, 74, 64
3, 39840, Note_on_c, 0, 67, 64
3, 39948, Note_off_c, 0, 67, 64
3, 40080, Note_on_c, 0, 65, 64
3, 40188, Note_off_c, 0, 65, 64
3, 44400, Note_on_c, 0, 62, 64
3, 44454, Note_off_c, 0, 62, 64
3, 44520, Note_on_c, 0, 60, 64
3, 44574, Note_off_c, 0, 60, 64
3, 44640, Note_on_c, 0, 59, 64
3, 44832, Note_off_c, 0, 59, 64
3, 45120, Note_on_c, 0, 74, 64
3, 45312, Note_off_c, 0, 74, 64
3, 45600, Note_on_c, 0, 67, 64
3, 45708, Note_off_c, 0, 67, 64
3, 45840, Note_on_c, 0, 65, 64
3, 45948, Note_off_c, 0, 65, 64
3, 45948, End_track
4, 0, Start_track
4, 720, Note_on_c, 0, 64, 64
4, 912, Note_off_c, 0, 64, 64
4, 960, Note_on_c, 0, 64, 64
4, 1056, Note_off_c, 0, 64, 64
4, 1080, Note_on_c, 0, 62, 64
4, 1176, Note_off_c, 0, 62, 64
4, 1200, Note_on_c, 0, 60, 64
4, 1308, Note_off_c, 0, 60, 64
4, 1440, Note_on_c, 0, 59, 64
4, 1632, Note_off_c, 0, 59, 64
4, 1680, Note_on_c, 0, 59, 64
4, 1776, Note_off_c, 0, 59, 64
4, 1800, Note_on_c, 0, 57, 64
4, 1896, Note_off_c, 0, 57, 64
4, 1920, Note_on_c, 0, 55, 64
4, 2028, Note_off_c, 0, 55, 64
4, 2160, Note_on_c, 0, 60, 64
4, 2352, Note_off_c, 0, 60, 64
4, 2400, Note_on_c, 0, 60, 64
4, 2496, Note_off_c, 0, 60, 64
4, 2520, Note_on_c, 0, 57, 64
4, 2616, Note_off_c, 0, 57, 64
4, 2640, Note_on_c, 0, 53, 64
4, 2748, Note_off_c, 0, 53, 64
4, 2880, Note_on_c, 0, 55, 64
4, 3072, Note_off_c, 0, 55, 64
4, 3120, Note_on_c, 0, 53, 64
4, 3312, Note_off_c, 0, 53, 64
4, 3360, Note_on_c, 0, 40, 64
4, 3360, Note_on_c, 0, 52, 64
4, 3468, Note_off_c, 0, 52, 64
4, 3468, Note_off_c, 0, 40, 64
4, 3600, Note_on_c, 0, 41, 64
4, 3600, Note_on_c, 0, 53, 64
4, 3792, Note_off_c, 0, 53, 64
4, 3792, Note_off_c, 0, 41, 64
4, 3840, Note_on_c, 0, 41, 64
4, 3840, Note_on_c, 0, 53, 64
4, 3936, Note_off_c, 0, 53, 64
4, 3936, Note_off_c, 0, 41, 64
4, 3960, Note_on_c, 0, 40, 64
4, 3960, Note_on_c, 0, 52, 64
4, 4056, Note_off_c, 0, 52, 64
4, 4056, Note_off_c, 0, 40, 64
4, 4080, Note_on_c, 0, 41, 64
4, 4080, Note_on_c, 0, 53, 64
4, 4188, Note_off_c, 0, 53, 64
4, 4188, Note_off_c, 0, 41, 64
4, 4320, Note_on_c, 0, 43, 64
4, 4320, Note_on_c, 0, 55, 64
4, 4512, Note_off_c, 0, 55, 64
4, 4512, Note_off_c, 0, 43, 64
4, 4560, Note_on_c, 0, 43, 64
4, 4560, Note_on_c, 0, 55, 64
4, 4656, Note_off_c, 0, 55, 64
4, 4656, Note_off_c, 0, 43, 64
4, 4680, Note_on_c, 0, 42, 64
4, 4680, Note_on_c, 0, 54, 64
4, 4776, Note_off_c, 0, 54, 64
4, 4776, Note_off_c, 0, 42, 64
4, 4800, Note_on_c, 0, 43, 64
4, 4800, Note_on_c, 0, 55, 64
4, 4908, Note_off_c, 0, 55, 64
4, 4908, Note_off_c, 0, 43, 64
4, 5040, Note_on_c, 0, 45, 64
4, 5040, Note_on_c, 0, 57, 64
4, 5232, Note_off_c, 0, 57, 64
4, 5232, Note_off_c, 0, 45, 64
4, 5280, Note_on_c, 0, 41, 64
4, 5280, Note_on_c, 0, 53, 64
4, 5388, Note_off_c, 0, 53, 64
4, 5388, Note_off_c, 0, 41, 64
4, 5520, Note_on_c, 0, 43, 64
4, 5520, Note_on_c, 0, 55, 64
4, 5628, Note_off_c, 0, 55, 64
4, 5628, Note_off_c, 0, 43, 64
4, 5760, Note_on_c, 0, 48, 64
4, 5760, Note_on_c, 0, 60, 64
4, 5868, Note_off_c, 0, 60, 64
4, 5868, Note_off_c, 0, 48, 64
4, 6000, Note_on_c, 0, 36, 64
4, 6000, Note_on_c, 0, 48, 64
4, 6108, Note_off_c, 0, 48, 64
4, 6108, Note_off_c, 0, 36, 64
4, 6480, Note_on_c, 0, 64, 64
4, 6672, Note_off_c, 0, 64, 64
4, 6720, Note_on_c, 0, 64, 64
4, 6816, Note_off_c, 0, 64, 64
4, 6840, Note_on_c, 0, 62, 64
4, 6936, Note_off_c, 0, 62, 64
4, 6960, Note_on_c, 0, 60, 64
4, 7068, Note_off_c, 0, 60, 64
4, 7200, Note_on_c, 0, 59, 64
4, 7392, Note_off_c, 0, 59, 64
4, 7440, Note_on_c, 0, 59, 64
4, 7536, Note_off_c, 0, 59, 64
4, 7560, Note_on_c, 0, 57, 64
4, 7656, Note_off_c, 0, 57, 64
4, 7680, Note_on_c, 0, 55, 64
4, 7788, Note_off_c, 0, 55, 64
4, 7920, Note_on_c, 0, 60, 64
4, 8112, Note_off_c, 0, 60, 64
4, 8160, Note_on_c, 0, 60, 64
4, 8256, Note_off_c, 0, 60, 64
4, 8280, Note_on_c, 0, 57, 64
4, 8376, Note_off_c, 0, 57, 64
4, 8400, Note_on_c, 0, 53, 64
4, 8508, Note_off_c, 0, 53, 64
4, 8640, Note_on_c, 0, 55, 64
4, 8832, Note_off_c, 0, 55, 64
4, 8880, Note_on_c, 0, 53, 64
4, 9072, Note_off_c, 0, 53, 64
4, 9120, Note_on_c, 0, 52, 64
4, 9120, Note_on_c, 0, 40, 64
4, 9228, Note_off_c, 0, 40, 64
4, 9228, Note_off_c, 0, 52, 64
4, 9360, Note_on_c, 0, 53, 64
4, 9360, Note_on_c, 0, 41, 64
4, 9552, Note_off_c, 0, 41, 64
4, 9552, Note_off_c, 0, 53, 64
4, 9600, Note_on_c, 0, 53, 64
4, 9600, Note_on_c, 0, 41, 64
4, 9696, Note_off_c, 0, 41, 64
4, 9696, Note_off_c, 0, 53, 64
4, 9720, Note_on_c, 0, 52, 64
4, 9720, Note_on_c, 0, 40, 64
4, 9816, Note_off_c, 0, 40, 64
4, 9816, Note_off_c, 0, 52, 64
4, 9840, Note_on_c, 0, 53, 64
4, 9840, Note_on_c, 0, 41, 64
4, 9948, Note_off_c, 0, 41, 64
4, 9948, Note_off_c, 0, 53, 64
4, 10080, Note_on_c, 0, 55, 64
4, 10080, Note_on_c, 0, 43, 64
4, 10272, Note_off_c, 0, 43, 64
4, 10272, Note_off_c, 0, 55, 64
4, 10320, Note_on_c, 0, 55, 64
4, 10320, Note_on_c, 0, 43, 64
4, 10416, Note_off_c, 0, 43, 64
4, 10416, Note_off_c, 0, 55, 64
4, 10440, Note_on_c, 0, 54, 64
4, 10440, Note_on_c, 0, 42, 64
4, 10536, Note_off_c, 0, 42, 64
4, 10536, Note_off_c, 0, 54, 64
4, 10560, Note_on_c, 0, 55, 64
4, 10560, Note_on_c, 0, 43, 64
4, 10668, Note_off_c, 0, 43, 64
4, 10668, Note_off_c, 0, 55, 64
4, 10800, Note_on_c, 0, 57, 64
4, 10800, Note_on_c, 0, 45, 64
4, 10992, Note_off_c, 0, 45, 64
4, 10992, Note_off_c, 0, 57, 64
4, 11040, Note_on_c, 0, 53, 64
4, 11040, Note_on_c, 0, 41, 64
4, 11148, Note_off_c, 0, 41, 64
4, 11148, Note_off_c, 0, 53, 64
4, 11280, Note_on_c, 0, 55, 64
4, 11280, Note_on_c, 0, 43, 64
4, 11388, Note_off_c, 0, 43, 64
4, 11388, Note_off_c, 0, 55, 64
4, 11520, Note_on_c, 0, 60, 64
4, 11520, Note_on_c, 0, 48, 64
4, 11628, Note_off_c, 0, 48, 64
4, 11628, Note_off_c, 0, 60, 64
4, 11760, Note_on_c, 0, 48, 64
4, 11760, Note_on_c, 0, 36, 64
4, 11868, Note_off_c, 0, 36, 64
4, 11868, Note_off_c, 0, 48, 64
4, 12240, Note_on_c, 0, 59, 64
4, 12336, Note_off_c, 0, 59, 64
4, 12360, Note_on_c, 0, 55, 64
4, 12414, Note_off_c, 0, 55, 64
4, 12480, Note_on_c, 0, 60, 64
4, 12576, Note_off_c, 0, 60, 64
4, 12600, Note_on_c, 0, 55, 64
4, 12654, Note_off_c, 0, 55, 64
4, 12720, Note_on_c, 0, 65, 64
4, 12816, Note_off_c, 0, 65, 64
4, 12840, Note_on_c, 0, 55, 64
4, 12894, Note_off_c, 0, 55, 64
4, 12960, Note_on_c, 0, 64, 64
4, 13056, Note_off_c, 0, 64, 64
4, 13080, Note_on_c, 0, 55, 64
4, 13134, Note_off_c, 0, 55, 64
4, 13200, Note_on_c, 0, 62, 64
4, 13296, Note_off_c, 0, 62, 64
4, 13320, Note_on_c, 0, 55, 64
4, 13374, Note_off_c, 0, 55, 64
4, 13440, Note_on_c, 0, 59, 64
4, 13536, Note_off_c, 0, 59, 64
4, 13560, Note_on_c, 0, 55, 64
4, 13614, Note_off_c, 0, 55, 64
4, 13680, Note_on_c, 0, 64, 64
4, 13776, Note_off_c, 0, 64, 64
4, 13800, Note_on_c, 0, 60, 64
4, 13854, Note_off_c, 0, 60, 64
4, 13920, Note_on_c, 0, 65, 64
4, 14016, Note_off_c, 0, 65, 64
4, 14040, Note_on_c, 0, 60, 64
4, 14094, Note_off_c, 0, 60, 64
4, 14160, Note_on_c, 0, 67, 64
4, 14256, Note_off_c, 0, 67, 64
4, 14280, Note_on_c, 0, 60, 64
4, 14334, Note_off_c, 0, 60, 64
4, 14400, Note_on_c, 0, 65, 64
4, 14496, Note_off_c, 0, 65, 64
4, 14520, Note_on_c, 0, 60, 64
4, 14574, Note_off_c, 0, 60, 64
4, 14640, Note_on_c, 0, 64, 64
4, 14736, Note_off_c, 0, 64, 64
4, 14760, Note_on_c, 0, 60, 64
4, 14814, Note_off_c, 0, 60, 64
4, 14880, Note_on_c, 0, 40, 64
4, 14880, Note_on_c, 0, 52, 64
4, 14988, Note_off_c, 0, 52, 64
4, 14988, Note_off_c, 0, 40, 64
4, 15120, Note_on_c, 0, 41, 64
4, 15120, Note_on_c, 0, 53, 64
4, 15312, Note_off_c, 0, 53, 64
4, 15312, Note_off_c, 0, 41, 64
4, 15360, Note_on_c, 0, 41, 64
4, 15360, Note_on_c, 0, 53, 64
4, 15456, Note_off_c, 0, 53, 64
4, 15456, Note_off_c, 0, 41, 64
4, 15480, Note_on_c, 0, 52, 64
4, 15480, Note_on_c, 0, 40, 64
4, 15576, Note_off_c, 0, 40, 64
4, 15576, Note_off_c, 0, 52, 64
4, 15600, Note_on_c, 0, 41, 64
4, 15600, Note_on_c, 0, 53, 64
4, 15792, Note_off_c, 0, 53, 64
4, 15792, Note_off_c, 0, 41, 64
4, 15840, Note_on_c, 0, 43, 64
4, 15840, Note_on_c, 0, 55, 64
4, 16032, Note_off_c, 0, 55, 64
4, 16032, Note_off_c, 0, 43, 64
4, 16080, Note_on_c, 0, 43, 64
4, 16080, Note_on_c, 0, 55, 64
4, 16176, Note_off_c, 0, 55, 64
4, 16176, Note_off_c, 0, 43, 64
4, 16200, Note_on_c, 0, 42, 64
4, 16200, Note_on_c, 0, 54, 64
4, 16296, Note_off_c, 0, 54, 64
4, 16296, Note_off_c, 0, 42, 64
4, 16320, Note_on_c, 0, 43, 64
4, 16320, Note_on_c, 0, 55, 64
4, 16428, Note_off_c, 0, 55, 64
4, 16428, Note_off_c, 0, 43, 64
4, 16560, Note_on_c, 0, 45, 64
4, 16560, Note_on_c, 0, 57, 64
4, 16752, Note_off_c, 0, 57, 64
4, 16752, Note_off_c, 0, 45, 64
4, 16800, Note_on_c, 0, 41, 64
4, 16800, Note_on_c, 0, 53, 64
4, 16908, Note_off_c, 0, 53, 64
4, 16908, Note_off_c, 0, 41, 64
4, 17040, Note_on_c, 0, 43, 64
4, 17040, Note_on_c, 0, 55, 64
4, 17148, Note_off_c, 0, 55, 64
4, 17148, Note_off_c, 0, 43, 64
4, 17280, Note_on_c, 0, 48, 64
4, 17280, Note_on_c, 0, 60, 64
4, 17388, Note_off_c, 0, 60, 64
4, 17388, Note_off_c, 0, 48, 64
4, 17520, Note_on_c, 0, 36, 64
4, 17520, Note_on_c, 0, 48, 64
4, 17628, Note_off_c, 0, 48, 64
4, 17628, Note_off_c, 0, 36, 64
4, 18000, Note_on_c, 0, 59, 64
4, 18096, Note_off_c, 0, 59, 64
4, 18120, Note_on_c, 0, 55, 64
4, 18174, Note_off_c, 0, 55, 64
4, 18240, Note_on_c, 0, 60, 64
4, 18336, Note_off_c, 0, 60, 64
4, 18360, Note_on_c, 0, 55, 64
4, 18414, Note_off_c, 0, 55, 64
4, 18480, Note_on_c, 0, 65, 64
4, 18576, Note_off_c, 0, 65, 64
4, 18600, Note_on_c, 0, 55, 64
4, 18654, Note_off_c, 0, 55, 64
4, 18720, Note_on_c, 0, 64, 64
4, 18816, Note_off_c, 0, 64, 64
4, 18840, Note_on_c, 0, 55, 64
4, 18894, Note_off_c, 0, 55, 64
4, 18960, Note_on_c, 0, 62, 64
4, 19056, Note_off_c, 0, 62, 64
4, 19080, Note_on_c, 0, 55, 64
4, 19134, Note_off_c, 0, 55, 64
4, 19200, Note_on_c, 0, 59, 64
4, 19296, Note_off_c, 0, 59, 64
4, 19320, Note_on_c, 0, 55, 64
4, 19374, Note_off_c, 0, 55, 64
4, 19440, Note_on_c, 0, 64, 64
4, 19536, Note_off_c, 0, 64, 64
4, 19560, Note_on_c, 0, 60, 64
4, 19614, Note_off_c, 0, 60, 64
4, 19680, Note_on_c, 0, 65, 64
4, 19776, Note_off_c, 0, 65, 64
4, 19800, Note_on_c, 0, 60, 64
4, 19854, Note_off_c, 0, 60, 64
4, 19920, Note_on_c, 0, 67, 64
4, 20016, Note_off_c, 0, 67, 64
4, 20040, Note_on_c, 0, 60, 64
4, 20094, Note_off_c, 0, 60, 64
4, 20160, Note_on_c, 0, 65, 64
4, 20256, Note_off_c, 0, 65, 64
4, 20280, Note_on_c, 0, 60, 64
4, 20334, Note_off_c, 0, 60, 64
4, 20400, Note_on_c, 0, 64, 64
4, 20496, Note_off_c, 0, 64, 64
4, 20520, Note_on_c, 0, 60, 64
4, 20574, Note_off_c, 0, 60, 64
4, 20640, Note_on_c, 0, 52, 64
4, 20640, Note_on_c, 0, 40, 64
4, 20748, Note_off_c, 0, 40, 64
4, 20748, Note_off_c, 0, 52, 64
4, 20880, Note_on_c, 0, 53, 64
4, 20880, Note_on_c, 0, 41, 64
4, 21072, Note_off_c, 0, 41, 64
4, 21072, Note_off_c, 0, 53, 64
4, 21120, Note_on_c, 0, 53, 64
4, 21120, Note_on_c, 0, 41, 64
4, 21216, Note_off_c, 0, 41, 64
4, 21216, Note_off_c, 0, 53, 64
4, 21240, Note_on_c, 0, 40, 64
4, 21240, Note_on_c, 0, 52, 64
4, 21336, Note_off_c, 0, 52, 64
4, 21336, Note_off_c, 0, 40, 64
4, 21360, Note_on_c, 0, 53, 64
4, 21360, Note_on_c, 0, 41, 64
4, 21552, Note_off_c, 0, 41, 64
4, 21552, Note_off_c, 0, 53, 64
4, 21600, Note_on_c, 0, 55, 64
4, 21600, Note_on_c, 0, 43, 64
4, 21792, Note_off_c, 0, 43, 64
4, 21792, Note_off_c, 0, 55, 64
4, 21840, Note_on_c, 0, 55, 64
4, 21840, Note_on_c, 0, 43, 64
4, 21936, Note_off_c, 0, 43, 64
4, 21936, Note_off_c, 0, 55, 64
4, 21960, Note_on_c, 0, 54, 64
4, 21960, Note_on_c, 0, 42, 64
4, 22056, Note_off_c, 0, 42, 64
4, 22056, Note_off_c, 0, 54, 64
4, 22080, Note_on_c, 0, 55, 64
4, 22080, Note_on_c, 0, 43, 64
4, 22188, Note_off_c, 0, 43, 64
4, 22188, Note_off_c, 0, 55, 64
4, 22320, Note_on_c, 0, 57, 64
4, 22320, Note_on_c, 0, 45, 64
4, 22512, Note_off_c, 0, 45, 64
4, 22512, Note_off_c, 0, 57, 64
4, 22560, Note_on_c, 0, 53, 64
4, 22560, Note_on_c, 0, 41, 64
4, 22668, Note_off_c, 0, 41, 64
4, 22668, Note_off_c, 0, 53, 64
4, 22800, Note_on_c, 0, 55, 64
4, 22800, Note_on_c, 0, 43, 64
4, 22908, Note_off_c, 0, 43, 64
4, 22908, Note_off_c, 0, 55, 64
4, 23040, Note_on_c, 0, 60, 64
4, 23040, Note_on_c, 0, 48, 64
4, 23148, Note_off_c, 0, 48, 64
4, 23148, Note_off_c, 0, 60, 64
4, 23280, Note_on_c, 0, 48, 64
4, 23280, Note_on_c, 0, 36, 64
4, 23388, Note_off_c, 0, 36, 64
4, 23388, Note_off_c, 0, 48, 64
4, 23760, Note_on_c, 0, 48, 64
4, 23952, Note_off_c, 0, 48, 64
4, 24000, Note_on_c, 0, 52, 64
4, 24108, Note_off_c, 0, 52, 64
4, 24240, Note_on_c, 0, 55, 64
4, 24348, Note_off_c, 0, 55, 64
4, 24480, Note_on_c, 0, 48, 64
4, 24672, Note_off_c, 0, 48, 64
4, 24720, Note_on_c, 0, 52, 64
4, 24828, Note_off_c, 0, 52, 64
4, 24960, Note_on_c, 0, 48, 64
4, 25068, Note_off_c, 0, 48, 64
4, 25200, Note_on_c, 0, 50, 64
4, 25392, Note_off_c, 0, 50, 64
4, 25440, Note_on_c, 0, 57, 64
4, 25548, Note_off_c, 0, 57, 64
4, 25680, Note_on_c, 0, 53, 64
4, 25788, Note_off_c, 0, 53, 64
4, 25920, Note_on_c, 0, 55, 64
4, 26112, Note_off_c, 0, 55, 64
4, 26160, Note_on_c, 0, 43, 64
4, 26268, Note_off_c, 0, 43, 64
4, 26400, Note_on_c, 0, 47, 64
4, 26508, Note_off_c, 0, 47, 64
4, 26640, Note_on_c, 0, 48, 64
4, 26832, Note_off_c, 0, 48, 64
4, 26880, Note_on_c, 0, 57, 64
4, 26988, Note_off_c, 0, 57, 64
4, 27120, Note_on_c, 0, 60, 64
4, 27228, Note_off_c, 0, 60, 64
4, 27360, Note_on_c, 0, 62, 64
4, 27552, Note_off_c, 0, 62, 64
4, 27600, Note_on_c, 0, 50, 64
4, 27708, Note_off_c, 0, 50, 64
4, 27840, Note_on_c, 0, 60, 64
4, 27948, Note_off_c, 0, 60, 64
4, 28080, Note_on_c, 0, 59, 64
4, 28272, Note_off_c, 0, 59, 64
4, 28320, Note_on_c, 0, 62, 64
4, 28428, Note_off_c, 0, 62, 64
4, 28560, Note_on_c, 0, 50, 64
4, 28668, Note_off_c, 0, 50, 64
4, 28800, Note_on_c, 0, 55, 64
4, 28908, Note_off_c, 0, 55, 64
4, 29040, Note_on_c, 0, 43, 64
4, 29148, Note_off_c, 0, 43, 64
4, 29520, Note_on_c, 0, 48, 64
4, 29712, Note_off_c, 0, 48, 64
4, 29760, Note_on_c, 0, 52, 64
4, 29868, Note_off_c, 0, 52, 64
4, 30000, Note_on_c, 0, 55, 64
4, 30108, Note_off_c, 0, 55, 64
4, 30240, Note_on_c, 0, 48, 64
4, 30432, Note_off_c, 0, 48, 64
4, 30480, Note_on_c, 0, 52, 64
4, 30588, Note_off_c, 0, 52, 64
4, 30720, Note_on_c, 0, 48, 64
4, 30828, Note_off_c, 0, 48, 64
4, 30960, Note_on_c, 0, 50, 64
4, 31152, Note_off_c, 0, 50, 64
4, 31200, Note_on_c, 0, 57, 64
4, 31308, Note_off_c, 0, 57, 64
4, 31440, Note_on_c, 0, 53, 64
4, 31548, Note_off_c, 0, 53, 64
4, 31680, Note_on_c, 0, 55, 64
4, 31872, Note_off_c, 0, 55, 64
4, 31920, Note_on_c, 0, 43, 64
4, 32028, Note_off_c, 0, 43, 64
4, 32160, Note_on_c, 0, 47, 64
4, 32268, Note_off_c, 0, 47, 64
4, 32400, Note_on_c, 0, 48, 64
4, 32592, Note_off_c, 0, 48, 64
4, 32640, Note_on_c, 0, 57, 64
4, 32748, Note_off_c, 0, 57, 64
4, 32880, Note_on_c, 0, 60, 64
4, 32988, Note_off_c, 0, 60, 64
4, 33120, Note_on_c, 0, 62, 64
4, 33312, Note_off_c, 0, 62, 64
4, 33360, Note_on_c, 0, 50, 64
4, 33468, Note_off_c, 0, 50, 64
4, 33600, Note_on_c, 0, 60, 64
4, 33708, Note_off_c, 0, 60, 64
4, 33840, Note_on_c, 0, 59, 64
4, 34032, Note_off_c, 0, 59, 64
4, 34080, Note_on_c, 0, 62, 64
4, 34188, Note_off_c, 0, 62, 64
4, 34320, Note_on_c, 0, 50, 64
4, 34428, Note_off_c, 0, 50, 64
4, 34560, Note_on_c, 0, 55, 64
4, 34668, Note_off_c, 0, 55, 64
4, 34800, Note_on_c, 0, 43, 64
4, 34908, Note_off_c, 0, 43, 64
4, 35280, Note_on_c, 0, 57, 64
4, 35280, Note_on_c, 0, 61, 64
4, 35334, Note_off_c, 0, 61, 64
4, 35400, Note_on_c, 0, 62, 64
4, 35454, Note_off_c, 0, 62, 64
4, 35472, Note_off_c, 0, 57, 64
4, 35520, Note_on_c, 0, 64, 64
4, 35574, Note_off_c, 0, 64, 64
4, 35640, Note_on_c, 0, 65, 64
4, 35694, Note_off_c, 0, 65, 64
4, 35760, Note_on_c, 0, 57, 64
4, 35760, Note_on_c, 0, 67, 64
4, 35814, Note_off_c, 0, 67, 64
4, 35868, Note_off_c, 0, 57, 64
4, 35880, Note_on_c, 0, 61, 64
4, 35934, Note_off_c, 0, 61, 64
4, 36000, Note_on_c, 0, 50, 64
4, 36000, Note_on_c, 0, 62, 64
4, 36054, Note_off_c, 0, 62, 64
4, 36120, Note_on_c, 0, 64, 64
4, 36174, Note_off_c, 0, 64, 64
4, 36192, Note_off_c, 0, 50, 64
4, 36240, Note_on_c, 0, 65, 64
4, 36294, Note_off_c, 0, 65, 64
4, 36360, Note_on_c, 0, 64, 64
4, 36414, Note_off_c, 0, 64, 64
4, 36480, Note_on_c, 0, 55, 64
4, 36480, Note_on_c, 0, 62, 64
4, 36576, Note_off_c, 0, 62, 64
4, 36588, Note_off_c, 0, 55, 64
4, 36600, Note_on_c, 0, 59, 64
4, 36654, Note_off_c, 0, 59, 64
4, 36720, Note_on_c, 0, 60, 64
4, 36720, Note_on_c, 0, 48, 64
4, 36912, Note_off_c, 0, 48, 64
4, 36912, Note_off_c, 0, 60, 64
4, 36960, Note_on_c, 0, 53, 64
4, 37068, Note_off_c, 0, 53, 64
4, 37200, Note_on_c, 0, 50, 64
4, 37308, Note_off_c, 0, 50, 64
4, 37440, Note_on_c, 0, 55, 64
4, 37632, Note_off_c, 0, 55, 64
4, 37680, Note_on_c, 0, 43, 64
4, 37788, Note_off_c, 0, 43, 64
4, 37920, Note_on_c, 0, 52, 64
4, 38028, Note_off_c, 0, 52, 64
4, 38160, Note_on_c, 0, 50, 64
4, 38352, Note_off_c, 0, 50, 64
4, 38400, Note_on_c, 0, 57, 64
4, 38508, Note_off_c, 0, 57, 64
4, 38640, Note_on_c, 0, 53, 64
4, 38748, Note_off_c, 0, 53, 64
4, 38880, Note_on_c, 0, 55, 64
4, 39072, Note_off_c, 0, 55, 64
4, 39120, Note_on_c, 0, 43, 64
4, 39228, Note_off_c, 0, 43, 64
4, 39360, Note_on_c, 0, 53, 64
4, 39468, Note_off_c, 0, 53, 64
4, 39600, Note_on_c, 0, 52, 64
4, 39792, Note_off_c, 0, 52, 64
4, 39840, Note_on_c, 0, 55, 64
4, 39948, Note_off_c, 0, 55, 64
4, 40080, Note_on_c, 0, 43, 64
4, 40188, Note_off_c, 0, 43, 64
4, 40320, Note_on_c, 0, 48, 64
4, 40428, Note_off_c, 0, 48, 64
4, 40560, Note_on_c, 0, 60, 64
4, 40668, Note_off_c, 0, 60, 64
4, 41040, Note_on_c, 0, 61, 64
4, 41040, Note_on_c, 0, 57, 64
4, 41094, Note_off_c, 0, 61, 64
4, 41160, Note_on_c, 0, 62, 64
4, 41214, Note_off_c, 0, 62, 64
4, 41232, Note_off_c, 0, 57, 64
4, 41280, Note_on_c, 0, 64, 64
4, 41334, Note_off_c, 0, 64, 64
4, 41400, Note_on_c, 0, 65, 64
4, 41454, Note_off_c, 0, 65, 64
4, 41520, Note_on_c, 0, 67, 64
4, 41520, Note_on_c, 0, 57, 64
4, 41574, Note_off_c, 0, 67, 64
4, 41628, Note_off_c, 0, 57, 64
4, 41640, Note_on_c, 0, 61, 64
4, 41694, Note_off_c, 0, 61, 64
4, 41760, Note_on_c, 0, 62, 64
4, 41760, Note_on_c, 0, 50, 64
4, 41814, Note_off_c, 0, 62, 64
4, 41880, Note_on_c, 0, 64, 64
4, 41934, Note_off_c, 0, 64, 64
4, 41952, Note_off_c, 0, 50, 64
4, 42000, Note_on_c, 0, 65, 64
4, 42054, Note_off_c, 0, 65, 64
4, 42120, Note_on_c, 0, 64, 64
4, 42174, Note_off_c, 0, 64, 64
4, 42240, Note_on_c, 0, 62, 64
4, 42240, Note_on_c, 0, 55, 64
4, 42336, Note_off_c, 0, 62, 64
4, 42348, Note_off_c, 0, 55, 64
4, 42360, Note_on_c, 0, 59, 64
4, 42414, Note_off_c, 0, 59, 64
4, 42480, Note_on_c, 0, 48, 64
4, 42480, Note_on_c, 0, 60, 64
4, 42672, Note_off_c, 0, 60, 64
4, 42672, Note_off_c, 0, 48, 64
4, 42720, Note_on_c, 0, 53, 64
4, 42828, Note_off_c, 0, 53, 64
4, 42960, Note_on_c, 0, 50, 64
4, 43068, Note_off_c, 0, 50, 64
4, 43200, Note_on_c, 0, 55, 64
4, 43392, Note_off_c, 0, 55, 64
4, 43440, Note_on_c, 0, 43, 64
4, 43548, Note_off_c, 0, 43, 64
4, 43680, Note_on_c, 0, 52, 64
4, 43788, Note_off_c, 0, 52, 64
4, 43920, Note_on_c, 0, 50, 64
4, 44112, Note_off_c, 0, 50, 64
4, 44160, Note_on_c, 0, 57, 64
4, 44268, Note_off_c, 0, 57, 64
4, 44400, Note_on_c, 0, 53, 64
4, 44508, Note_off_c, 0, 53, 64
4, 44640, Note_on_c, 0, 55, 64
4, 44832, Note_off_c, 0, 55, 64
4, 44880, Note_on_c, 0, 43, 64
4, 44988, Note_off_c, 0, 43, 64
4, 45120, Note_on_c, 0, 53, 64
4, 45228, Note_off_c, 0, 53, 64
4, 45360, Note_on_c, 0, 52, 64
4, 45552, Note_off_c, 0, 52, 64
4, 45600, Note_on_c, 0, 55, 64
4, 45708, Note_off_c, 0, 55, 64
4, 45840, Note_on_c, 0, 43, 64
4, 45948, Note_off_c, 0, 43, 64
4, 46080, Note_on_c, 0, 48, 64
4, 46188, Note_off_c, 0, 48, 64
4, 46320, Note_on_c, 0, 60, 64
4, 46428, Note_off_c, 0, 60, 64
4, 46800, Note_on_c, 0, 64, 64
4, 46992, Note_off_c, 0, 64, 64
4, 47040, Note_on_c, 0, 64, 64
4, 47136, Note_off_c, 0, 64, 64
4, 47160, Note_on_c, 0, 62, 64
4, 47256, Note_off_c, 0, 62, 64
4, 47280, Note_on_c, 0, 60, 64
4, 47388, Note_off_c, 0, 60, 64
4, 47520, Note_on_c, 0, 59, 64
4, 47712, Note_off_c, 0, 59, 64
4, 47760, Note_on_c, 0, 59, 64
4, 47856, Note_off_c, 0, 59, 64
4, 47880, Note_on_c, 0, 57, 64
4, 47976, Note_off_c, 0, 57, 64
4, 48000, Note_on_c, 0, 55, 64
4, 48108, Note_off_c, 0, 55, 64
4, 48240, Note_on_c, 0, 60, 64
4, 48432, Note_off_c, 0, 60, 64
4, 48480, Note_on_c, 0, 60, 64
4, 48576, Note_off_c, 0, 60, 64
4, 48600, Note_on_c, 0, 57, 64
4, 48696, Note_off_c, 0, 57, 64
4, 48720, Note_on_c, 0, 53, 64
4, 48828, Note_off_c, 0, 53, 64
4, 48960, Note_on_c, 0, 55, 64
4, 49152, Note_off_c, 0, 55, 64
4, 49200, Note_on_c, 0, 53, 64
4, 49392, Note_off_c, 0, 53, 64
4, 49440, Note_on_c, 0, 40, 64
4, 49440, Note_on_c, 0, 52, 64
4, 49548, Note_off_c, 0, 52, 64
4, 49548, Note_off_c, 0, 40, 64
4, 49680, Note_on_c, 0, 41, 64
4, 49680, Note_on_c, 0, 53, 64
4, 49872, Note_off_c, 0, 53, 64
4, 49872, Note_off_c, 0, 41, 64
4, 49920, Note_on_c, 0, 41, 64
4, 49920, Note_on_c, 0, 53, 64
4, 50016, Note_off_c, 0, 53, 64
4, 50016, Note_off_c, 0, 41, 64
4, 50040, Note_on_c, 0, 40, 64
4, 50040, Note_on_c, 0, 52, 64
4, 50136, Note_off_c, 0, 52, 64
4, 50136, Note_off_c, 0, 40, 64
4, 50160, Note_on_c, 0, 41, 64
4, 50160, Note_on_c, 0, 53, 64
4, 50268, Note_off_c, 0, 53, 64
4, 50268, Note_off_c, 0, 41, 64
4, 50400, Note_on_c, 0, 43, 64
4, 50400, Note_on_c, 0, 55, 64
4, 50592, Note_off_c, 0, 55, 64
4, 50592, Note_off_c, 0, 43, 64
4, 50640, Note_on_c, 0, 43, 64
4, 50640, Note_on_c, 0, 55, 64
4, 50736, Note_off_c, 0, 55, 64
4, 50736, Note_off_c, 0, 43, 64
4, 50760, Note_on_c, 0, 42, 64
4, 50760, Note_on_c, 0, 54, 64
4, 50856, Note_off_c, 0, 54, 64
4, 50856, Note_off_c, 0, 42, 64
4, 50880, Note_on_c, 0, 43, 64
4, 50880, Note_on_c, 0, 55, 64
4, 50988, Note_off_c, 0, 55, 64
4, 50988, Note_off_c, 0, 43, 64
4, 51120, Note_on_c, 0, 45, 64
4, 51120, Note_on_c, 0, 57, 64
4, 51312, Note_off_c, 0, 57, 64
4, 51312, Note_off_c, 0, 45, 64
4, 51360, Note_on_c, 0, 41, 64
4, 51360, Note_on_c, 0, 53, 64
4, 51468, Note_off_c, 0, 53, 64
4, 51468, Note_off_c, 0, 41, 64
4, 51600, Note_on_c, 0, 43, 64
4, 51600, Note_on_c, 0, 55, 64
4, 51708, Note_off_c, 0, 55, 64
4, 51708, Note_off_c, 0, 43, 64
4, 51840, Note_on_c, 0, 48, 64
4, 51840, Note_on_c, 0, 60, 64
4, 51948, Note_off_c, 0, 60, 64
4, 51948, Note_off_c, 0, 48, 64
4, 52080, Note_on_c, 0, 36, 64
4, 52080, Note_on_c, 0, 48, 64
4, 52188, Note_off_c, 0, 48, 64
4, 52188, Note_off_c, 0, 36, 64
4, 52560, Note_on_c, 0, 59, 64
4, 52656, Note_off_c, 0, 59, 64
4, 52680, Note_on_c, 0, 55, 64
4, 52734, Note_off_c, 0, 55, 64
4, 52800, Note_on_c, 0, 60, 64
4, 52896, Note_off_c, 0, 60, 64
4, 52920, Note_on_c, 0, 55, 64
4, 52974, Note_off_c, 0, 55, 64
4, 53040, Note_on_c, 0, 65, 64
4, 53136, Note_off_c, 0, 65, 64
4, 53160, Note_on_c, 0, 55, 64
4, 53214, Note_off_c, 0, 55, 64
4, 53280, Note_on_c, 0, 64, 64
4, 53376, Note_off_c, 0, 64, 64
4, 53400, Note_on_c, 0, 55, 64
4, 53454, Note_off_c, 0, 55, 64
4, 53520, Note_on_c, 0, 62, 64
4, 53616, Note_off_c, 0, 62, 64
4, 53640, Note_on_c, 0, 55, 64
4, 53694, Note_off_c, 0, 55, 64
4, 53760, Note_on_c, 0, 59, 64
4, 53856, Note_off_c, 0, 59, 64
4, 53880, Note_on_c, 0, 55, 64
4, 53934, Note_off_c, 0, 55, 64
4, 54000, Note_on_c, 0, 64, 64
4, 54096, Note_off_c, 0, 64, 64
4, 54120, Note_on_c, 0, 60, 64
4, 54174, Note_off_c, 0, 60, 64
4, 54240, Note_on_c, 0, 65, 64
4, 54336, Note_off_c, 0, 65, 64
4, 54360, Note_on_c, 0, 60, 64
4, 54414, Note_off_c, 0, 60, 64
4, 54480, Note_on_c, 0, 67, 64
4, 54576, Note_off_c, 0, 67, 64
4, 54600, Note_on_c, 0, 60, 64
4, 54654, Note_off_c, 0, 60, 64
4, 54720, Note_on_c, 0, 65, 64
4, 54816, Note_off_c, 0, 65, 64
4, 54840, Note_on_c, 0, 60, 64
4, 54894, Note_off_c, 0, 60, 64
4, 54960, Note_on_c, 0, 64, 64
4, 55056, Note_off_c, 0, 64, 64
4, 55080, Note_on_c, 0, 60, 64
4, 55134, Note_off_c, 0, 60, 64
4, 55200, Note_on_c, 0, 52, 64
4, 55200, Note_on_c, 0, 40, 64
4, 55308, Note_off_c, 0, 40, 64
4, 55308, Note_off_c, 0, 52, 64
4, 55440, Note_on_c, 0, 53, 64
4, 55440, Note_on_c, 0, 41, 64
4, 55632, Note_off_c, 0, 41, 64
4, 55632, Note_off_c, 0, 53, 64
4, 55680, Note_on_c, 0, 53, 64
4, 55680, Note_on_c, 0, 41, 64
4, 55776, Note_off_c, 0, 41, 64
4, 55776, Note_off_c, 0, 53, 64
4, 55800, Note_on_c, 0, 40, 64
4, 55800, Note_on_c, 0, 52, 64
4, 55896, Note_off_c, 0, 52, 64
4, 55896, Note_off_c, 0, 40, 64
4, 55920, Note_on_c, 0, 53, 64
4, 55920, Note_on_c, 0, 41, 64
4, 56112, Note_off_c, 0, 41, 64
4, 56112, Note_off_c, 0, 53, 64
4, 56160, Note_on_c, 0, 55, 64
4, 56160, Note_on_c, 0, 43, 64
4, 56352, Note_off_c, 0, 43, 64
4, 56352, Note_off_c, 0, 55, 64
4, 56400, Note_on_c, 0, 55, 64
4, 56400, Note_on_c, 0, 43, 64
4, 56496, Note_off_c, 0, 43, 64
4, 56496, Note_off_c, 0, 55, 64
4, 56520, Note_on_c, 0, 54, 64
4, 56520, Note_on_c, 0, 42, 64
4, 56616, Note_off_c, 0, 42, 64
4, 56616, Note_off_c, 0, 54, 64
4, 56640, Note_on_c, 0, 55, 64
4, 56640, Note_on_c, 0, 43, 64
4, 56748, Note_off_c, 0, 43, 64
4, 56748, Note_off_c, 0, 55, 64
4, 56880, Note_on_c, 0, 57, 64
4, 56880, Note_on_c, 0, 45, 64
4, 57072, Note_off_c, 0, 45, 64
4, 57072, Note_off_c, 0, 57, 64
4, 57120, Note_on_c, 0, 53, 64
4, 57120, Note_on_c, 0, 41, 64
4, 57228, Note_off_c, 0, 41, 64
4, 57228, Note_off_c, 0, 53, 64
4, 57360, Note_on_c, 0, 55, 64
4, 57360, Note_on_c, 0, 43, 64
4, 57468, Note_off_c, 0, 43, 64
4, 57468, Note_off_c, 0, 55, 64
4, 57600, Note_on_c, 0, 60, 64
4, 57600, Note_on_c, 0, 48, 64
4, 57708, Note_off_c, 0, 48, 64
4, 57708, Note_off_c, 0, 60, 64
4, 57840, Note_on_c, 0, 48, 64
4, 57840, Note_on_c, 0, 36, 64
4, 57948, Note_off_c, 0, 36, 64
4, 57948, Note_off_c, 0, 48, 64
4, 57948, End_track
0, 0, End_of_file