0, 0, Header, 1, 18, 480
1, 0, Start_track
1, 0, Title_t, "Don Giovanni                                                    "
1, 0, Time_signature, 2, 1, 48, 8
1, 0, Key_signature, -1, "major"
1, 0, Tempo, 833333
1, 59520, Tempo, 250000
1, 560640, Tempo, 500000
1, 560640, End_track
2, 0, Start_track
2, 0, MIDI_port, 0
2, 0, Title_t, "Flauto I, II                        "
2, 0, Program_c, 0, 73
2, 0, Control_c, 0, 7, 85
2, 0, Control_c, 0, 10, 10
2, 0, Control_c, 0, 121, 0
2, 360, Control_c, 0, 101, 0
2, 360, Control_c, 0, 100, 0
2, 360, Control_c, 0, 6, 12
2, 360, Control_c, 0, 38, 0
2, 480, Control_c, 0, 5, 0
2, 600, Control_c, 0, 65, 0
2, 720, Control_c, 0, 67, 0
2, 960, Pitch_bend_c, 0, 8192
2, 1080, Control_c, 0, 64, 0
2, 1200, Control_c, 0, 11, 127
2, 1320, Control_c, 0, 1, 0
2, 1560, Control_c, 0, 91, 100
2, 1680, Control_c, 0, 93, 10
2, 1920, Note_on_c, 0, 86, 96
2, 1920, Note_on_c, 0, 81, 96
2, 4220, Note_on_c, 0, 81, 0
2, 4220, Note_on_c, 0, 86, 0
2, 5760, Note_on_c, 0, 81, 96
2, 8060, Note_on_c, 0, 81, 0
2, 9600, Note_on_c, 0, 86, 64
2, 11130, Note_on_c, 0, 86, 0
2, 11520, Note_on_c, 0, 74, 64
2, 13050, Note_on_c, 0, 74, 0
2, 29280, Note_on_c, 0, 84, 101
2, 29280, Note_on_c, 0, 81, 101
2, 29760, Note_on_c, 0, 81, 0
2, 29760, Note_on_c, 0, 84, 0
2, 29760, Note_on_c, 0, 82, 64
2, 29760, Note_on_c, 0, 79, 64
2, 29950, Note_on_c, 0, 79, 0
2, 29950, Note_on_c, 0, 82, 0
2, 30240, Note_on_c, 0, 84, 101
2, 30240, Note_on_c, 0, 81, 101
2, 30720, Note_on_c, 0, 81, 0
2, 30720, Note_on_c, 0, 84, 0
2, 30720, Note_on_c, 0, 82, 64
2, 30720, Note_on_c, 0, 79, 64
2, 30910, Note_on_c, 0, 79, 0
2, 30910, Note_on_c, 0, 82, 0
2, 31200, Note_on_c, 0, 84, 101
2, 31200, Note_on_c, 0, 81, 101
2, 31680, Note_on_c, 0, 81, 0
2, 31680, Note_on_c, 0, 84, 0
2, 31680, Note_on_c, 0, 82, 64
2, 31680, Note_on_c, 0, 79, 64
2, 31870, Note_on_c, 0, 79, 0
2, 31870, Note_on_c, 0, 82, 0
2, 32160, Note_on_c, 0, 84, 101
2, 32160, Note_on_c, 0, 81, 101
2, 32640, Note_on_c, 0, 81, 0
2, 32640, Note_on_c, 0, 84, 0
2, 32640, Note_on_c, 0, 82, 64
2, 32640, Note_on_c, 0, 79, 64
2, 34170, Note_on_c, 0, 79, 0
2, 34170, Note_on_c, 0, 82, 0
2, 34560, Note_on_c, 0, 91, 64
2, 34560, Note_on_c, 0, 88, 64
2, 36480, Note_on_c, 0, 88, 0
2, 36480, Note_on_c, 0, 91, 0
2, 36480, Note_on_c, 0, 89, 64
2, 36480, Note_on_c, 0, 86, 64
2, 36860, Note_on_c, 0, 86, 0
2, 36860, Note_on_c, 0, 89, 0
2, 38400, Note_on_c, 0, 82, 96
2, 38400, Note_on_c, 0, 86, 96
2, 40320, Note_on_c, 0, 86, 0
2, 40320, Note_on_c, 0, 87, 96
2, 40700, Note_on_c, 0, 87, 0
2, 40700, Note_on_c, 0, 82, 0
2, 44160, Note_on_c, 0, 74, 64
2, 44280, Note_on_c, 0, 74, 0
2, 44280, Control_c, 0, 11, 72
2, 44280, Note_on_c, 0, 76, 112
2, 44400, Note_on_c, 0, 76, 0
2, 44400, Control_c, 0, 11, 75
2, 44400, Note_on_c, 0, 77, 112
2, 44520, Note_on_c, 0, 77, 0
2, 44520, Control_c, 0, 11, 86
2, 44520, Note_on_c, 0, 79, 112
2, 44640, Note_on_c, 0, 79, 0
2, 44640, Control_c, 0, 11, 96
2, 44640, Note_on_c, 0, 81, 112
2, 44760, Note_on_c, 0, 81, 0
2, 44760, Control_c, 0, 11, 106
2, 44760, Note_on_c, 0, 83, 112
2, 44880, Note_on_c, 0, 83, 0
2, 44880, Control_c, 0, 11, 116
2, 44880, Note_on_c, 0, 85, 112
2, 45000, Note_on_c, 0, 85, 0
2, 45000, Control_c, 0, 11, 127
2, 45000, Note_on_c, 0, 86, 64
2, 45090, Note_on_c, 0, 86, 0
2, 45120, Note_on_c, 0, 86, 64
2, 45240, Note_on_c, 0, 86, 0
2, 45240, Note_on_c, 0, 84, 64
2, 45360, Note_on_c, 0, 84, 0
2, 45360, Note_on_c, 0, 82, 64
2, 45480, Note_on_c, 0, 82, 0
2, 45480, Note_on_c, 0, 81, 64
2, 45600, Note_on_c, 0, 81, 0
2, 45600, Note_on_c, 0, 79, 64
2, 45720, Note_on_c, 0, 79, 0
2, 45720, Note_on_c, 0, 77, 64
2, 45840, Note_on_c, 0, 77, 0
2, 45840, Note_on_c, 0, 76, 64
2, 45960, Note_on_c, 0, 76, 0
2, 45960, Note_on_c, 0, 74, 64
2, 46080, Note_on_c, 0, 74, 0
2, 46080, Note_on_c, 0, 75, 64
2, 46200, Note_on_c, 0, 75, 0
2, 46200, Control_c, 0, 11, 72
2, 46200, Note_on_c, 0, 77, 112
2, 46320, Note_on_c, 0, 77, 0
2, 46320, Control_c, 0, 11, 73
2, 46320, Note_on_c, 0, 79, 112
2, 46440, Note_on_c, 0, 79, 0
2, 46440, Control_c, 0, 11, 83
2, 46440, Note_on_c, 0, 81, 112
2, 46560, Note_on_c, 0, 81, 0
2, 46560, Control_c, 0, 11, 94
2, 46560, Note_on_c, 0, 82, 112
2, 46680, Note_on_c, 0, 82, 0
2, 46680, Control_c, 0, 11, 104
2, 46680, Note_on_c, 0, 84, 112
2, 46800, Note_on_c, 0, 84, 0
2, 46800, Control_c, 0, 11, 114
2, 46800, Note_on_c, 0, 86, 112
2, 46920, Note_on_c, 0, 86, 0
2, 46920, Control_c, 0, 11, 124
2, 46920, Note_on_c, 0, 87, 112
2, 47010, Note_on_c, 0, 87, 0
2, 47040, Control_c, 0, 11, 127
2, 47040, Note_on_c, 0, 88, 64
2, 47160, Note_on_c, 0, 88, 0
2, 47160, Note_on_c, 0, 86, 64
2, 47280, Note_on_c, 0, 86, 0
2, 47280, Note_on_c, 0, 84, 64
2, 47400, Note_on_c, 0, 84, 0
2, 47400, Note_on_c, 0, 83, 64
2, 47520, Note_on_c, 0, 83, 0
2, 47520, Note_on_c, 0, 81, 64
2, 47640, Note_on_c, 0, 81, 0
2, 47640, Note_on_c, 0, 80, 64
2, 47760, Note_on_c, 0, 80, 0
2, 47760, Note_on_c, 0, 78, 64
2, 47880, Note_on_c, 0, 78, 0
2, 47880, Note_on_c, 0, 76, 64
2, 48000, Note_on_c, 0, 76, 0
2, 48000, Note_on_c, 0, 77, 64
2, 48120, Note_on_c, 0, 77, 0
2, 48120, Control_c, 0, 11, 72
2, 48120, Note_on_c, 0, 79, 112
2, 48240, Note_on_c, 0, 79, 0
2, 48240, Control_c, 0, 11, 74
2, 48240, Note_on_c, 0, 81, 112
2, 48360, Note_on_c, 0, 81, 0
2, 48360, Control_c, 0, 11, 85
2, 48360, Note_on_c, 0, 83, 112
2, 48480, Note_on_c, 0, 83, 0
2, 48480, Control_c, 0, 11, 95
2, 48480, Note_on_c, 0, 84, 112
2, 48600, Note_on_c, 0, 84, 0
2, 48600, Control_c, 0, 11, 105
2, 48600, Note_on_c, 0, 86, 112
2, 48720, Note_on_c, 0, 86, 0
2, 48720, Control_c, 0, 11, 114
2, 48720, Note_on_c, 0, 88, 112
2, 48840, Note_on_c, 0, 88, 0
2, 48840, Control_c, 0, 11, 124
2, 48840, Note_on_c, 0, 89, 112
2, 48930, Note_on_c, 0, 89, 0
2, 48960, Control_c, 0, 11, 127
2, 48960, Note_on_c, 0, 90, 64
2, 49080, Note_on_c, 0, 90, 0
2, 49080, Note_on_c, 0, 88, 64
2, 49200, Note_on_c, 0, 88, 0
2, 49200, Note_on_c, 0, 86, 64
2, 49320, Note_on_c, 0, 86, 0
2, 49320, Note_on_c, 0, 84, 64
2, 49440, Note_on_c, 0, 84, 0
2, 49440, Note_on_c, 0, 82, 64
2, 49560, Note_on_c, 0, 82, 0
2, 49560, Note_on_c, 0, 81, 64
2, 49680, Note_on_c, 0, 81, 0
2, 49680, Note_on_c, 0, 79, 64
2, 49800, Note_on_c, 0, 79, 0
2, 49800, Note_on_c, 0, 78, 64
2, 49920, Note_on_c, 0, 78, 0
2, 49920, Note_on_c, 0, 79, 64
2, 50040, Note_on_c, 0, 79, 0
2, 50040, Control_c, 0, 11, 72
2, 50040, Note_on_c, 0, 81, 112
2, 50160, Note_on_c, 0, 81, 0
2, 50160, Control_c, 0, 11, 74
2, 50160, Note_on_c, 0, 82, 112
2, 50280, Note_on_c, 0, 82, 0
2, 50280, Control_c, 0, 11, 86
2, 50280, Note_on_c, 0, 84, 112
2, 50400, Note_on_c, 0, 84, 0
2, 50400, Control_c, 0, 11, 96
2, 50400, Note_on_c, 0, 86, 112
2, 50520, Note_on_c, 0, 86, 0
2, 50520, Control_c, 0, 11, 106
2, 50520, Note_on_c, 0, 88, 112
2, 50640, Note_on_c, 0, 88, 0
2, 50640, Control_c, 0, 11, 116
2, 50640, Note_on_c, 0, 90, 112
2, 50760, Note_on_c, 0, 90, 0
2, 50760, Control_c, 0, 11, 127
2, 50760, Note_on_c, 0, 91, 112
2, 50850, Note_on_c, 0, 91, 0
2, 50880, Note_on_c, 0, 91, 64
2, 51000, Note_on_c, 0, 91, 0
2, 51000, Note_on_c, 0, 89, 64
2, 51120, Note_on_c, 0, 89, 0
2, 51120, Note_on_c, 0, 87, 64
2, 51240, Note_on_c, 0, 87, 0
2, 51240, Note_on_c, 0, 86, 64
2, 51360, Note_on_c, 0, 86, 0
2, 51360, Note_on_c, 0, 84, 64
2, 51480, Note_on_c, 0, 84, 0
2, 51480, Note_on_c, 0, 82, 64
2, 51600, Note_on_c, 0, 82, 0
2, 51600, Note_on_c, 0, 81, 64
2, 51720, Note_on_c, 0, 81, 0
2, 51720, Note_on_c, 0, 79, 64
2, 51840, Note_on_c, 0, 79, 0
2, 51840, Note_on_c, 0, 91, 96
2, 51840, Note_on_c, 0, 87, 96
2, 53370, Note_on_c, 0, 87, 0
2, 53370, Note_on_c, 0, 91, 0
2, 53760, Note_on_c, 0, 86, 64
2, 53760, Note_on_c, 0, 89, 96
2, 57210, Note_on_c, 0, 89, 0
2, 57600, Note_on_c, 0, 88, 64
2, 58360, Note_on_c, 0, 88, 0
2, 58360, Note_on_c, 0, 86, 0
2, 58560, Note_on_c, 0, 85, 64
2, 59320, Note_on_c, 0, 85, 0
2, 59520, Note_on_c, 0, 86, 48
2, 59900, Note_on_c, 0, 86, 0
2, 72960, Note_on_c, 0, 74, 96
2, 72960, Note_on_c, 0, 69, 96
2, 73340, Note_on_c, 0, 69, 0
2, 73340, Note_on_c, 0, 74, 0
2, 73440, Note_on_c, 0, 74, 96
2, 73440, Note_on_c, 0, 69, 96
2, 73630, Note_on_c, 0, 69, 0
2, 73630, Note_on_c, 0, 74, 0
2, 73680, Note_on_c, 0, 74, 96
2, 73680, Note_on_c, 0, 69, 96
2, 73870, Note_on_c, 0, 69, 0
2, 73870, Note_on_c, 0, 74, 0
2, 73920, Note_on_c, 0, 76, 96
2, 73920, Note_on_c, 0, 73, 96
2, 74300, Note_on_c, 0, 73, 0
2, 74300, Note_on_c, 0, 76, 0
2, 74400, Note_on_c, 0, 76, 96
2, 74400, Note_on_c, 0, 73, 96
2, 74590, Note_on_c, 0, 73, 0
2, 74590, Note_on_c, 0, 76, 0
2, 74640, Note_on_c, 0, 76, 96
2, 74640, Note_on_c, 0, 73, 96
2, 74830, Note_on_c, 0, 73, 0
2, 74830, Note_on_c, 0, 76, 0
2, 74880, Note_on_c, 0, 78, 96
2, 74880, Note_on_c, 0, 74, 96
2, 75260, Note_on_c, 0, 74, 0
2, 75260, Note_on_c, 0, 78, 0
2, 75360, Note_on_c, 0, 78, 96
2, 75360, Note_on_c, 0, 74, 96
2, 75550, Note_on_c, 0, 74, 0
2, 75550, Note_on_c, 0, 78, 0
2, 75600, Note_on_c, 0, 78, 96
2, 75600, Note_on_c, 0, 74, 96
2, 75790, Note_on_c, 0, 74, 0
2, 75790, Note_on_c, 0, 78, 0
2, 75840, Note_on_c, 0, 81, 96
2, 75840, Note_on_c, 0, 76, 96
2, 76220, Note_on_c, 0, 76, 0
2, 76220, Note_on_c, 0, 81, 0
2, 78720, Note_on_c, 0, 84, 96
2, 79680, Note_on_c, 0, 84, 0
2, 79680, Note_on_c, 0, 83, 96
2, 80160, Note_on_c, 0, 83, 0
2, 80160, Note_on_c, 0, 81, 96
2, 80540, Note_on_c, 0, 81, 0
2, 80640, Note_on_c, 0, 79, 96
2, 80880, Note_on_c, 0, 79, 0
2, 80880, Note_on_c, 0, 76, 96
2, 81120, Note_on_c, 0, 76, 0
2, 81120, Note_on_c, 0, 73, 96
2, 82080, Note_on_c, 0, 73, 0
2, 82080, Note_on_c, 0, 74, 96
2, 82460, Note_on_c, 0, 74, 0
2, 83040, Note_on_c, 0, 85, 64
2, 83040, Note_on_c, 0, 76, 64
2, 84000, Note_on_c, 0, 76, 0
2, 84000, Note_on_c, 0, 85, 0
2, 84000, Note_on_c, 0, 86, 64
2, 84000, Note_on_c, 0, 78, 64
2, 84380, Note_on_c, 0, 78, 0
2, 84380, Note_on_c, 0, 86, 0
2, 89760, Note_on_c, 0, 85, 64
2, 89760, Note_on_c, 0, 79, 64
2, 90240, Note_on_c, 0, 79, 0
2, 90240, Note_on_c, 0, 85, 0
2, 90240, Note_on_c, 0, 86, 64
2, 90240, Note_on_c, 0, 78, 64
2, 90620, Note_on_c, 0, 78, 0
2, 90620, Note_on_c, 0, 86, 0
2, 91680, Note_on_c, 0, 85, 64
2, 91680, Note_on_c, 0, 79, 64
2, 92160, Note_on_c, 0, 79, 0
2, 92160, Note_on_c, 0, 85, 0
2, 92160, Note_on_c, 0, 86, 64
2, 92160, Note_on_c, 0, 78, 64
2, 92540, Note_on_c, 0, 78, 0
2, 92540, Note_on_c, 0, 86, 0
2, 93600, Note_on_c, 0, 85, 96
2, 93600, Note_on_c, 0, 79, 96
2, 94080, Note_on_c, 0, 79, 0
2, 94080, Note_on_c, 0, 85, 0
2, 94080, Note_on_c, 0, 86, 96
2, 94080, Note_on_c, 0, 78, 96
2, 94460, Note_on_c, 0, 78, 0
2, 94460, Note_on_c, 0, 86, 0
2, 95520, Note_on_c, 0, 85, 96
2, 95520, Note_on_c, 0, 79, 96
2, 96000, Note_on_c, 0, 79, 0
2, 96000, Note_on_c, 0, 85, 0
2, 96000, Note_on_c, 0, 86, 96
2, 96000, Note_on_c, 0, 78, 96
2, 96380, Note_on_c, 0, 78, 0
2, 96380, Note_on_c, 0, 86, 0
2, 96480, Note_on_c, 0, 78, 96
2, 96670, Note_on_c, 0, 78, 0
2, 96720, Note_on_c, 0, 78, 96
2, 96910, Note_on_c, 0, 78, 0
2, 96960, Note_on_c, 0, 78, 96
2, 97340, Note_on_c, 0, 78, 0
2, 97440, Note_on_c, 0, 81, 96
2, 97630, Note_on_c, 0, 81, 0
2, 97680, Note_on_c, 0, 81, 96
2, 97870, Note_on_c, 0, 81, 0
2, 97920, Note_on_c, 0, 81, 96
2, 98300, Note_on_c, 0, 81, 0
2, 98400, Note_on_c, 0, 86, 96
2, 98590, Note_on_c, 0, 86, 0
2, 98640, Note_on_c, 0, 86, 96
2, 98830, Note_on_c, 0, 86, 0
2, 98880, Note_on_c, 0, 86, 96
2, 99070, Note_on_c, 0, 86, 0
2, 99120, Note_on_c, 0, 81, 96
2, 99310, Note_on_c, 0, 81, 0
2, 99360, Note_on_c, 0, 78, 96
2, 99550, Note_on_c, 0, 78, 0
2, 99600, Note_on_c, 0, 74, 96
2, 99790, Note_on_c, 0, 74, 0
2, 99840, Note_on_c, 0, 81, 96
2, 100220, Note_on_c, 0, 81, 0
2, 100320, Note_on_c, 0, 85, 96
2, 100320, Note_on_c, 0, 81, 96
2, 100700, Note_on_c, 0, 81, 0
2, 100700, Note_on_c, 0, 85, 0
2, 100800, Note_on_c, 0, 86, 96
2, 100800, Note_on_c, 0, 81, 96
2, 101180, Note_on_c, 0, 81, 0
2, 101180, Note_on_c, 0, 86, 0
2, 101280, Note_on_c, 0, 86, 96
2, 101280, Note_on_c, 0, 81, 96
2, 101660, Note_on_c, 0, 81, 0
2, 101660, Note_on_c, 0, 86, 0
2, 101760, Note_on_c, 0, 85, 96
2, 101760, Note_on_c, 0, 81, 96
2, 102140, Note_on_c, 0, 81, 0
2, 102140, Note_on_c, 0, 85, 0
2, 102240, Note_on_c, 0, 85, 96
2, 102240, Note_on_c, 0, 81, 96
2, 102620, Note_on_c, 0, 81, 0
2, 102620, Note_on_c, 0, 85, 0
2, 102720, Note_on_c, 0, 86, 96
2, 102720, Note_on_c, 0, 81, 96
2, 103100, Note_on_c, 0, 81, 0
2, 103100, Note_on_c, 0, 86, 0
2, 103200, Note_on_c, 0, 86, 96
2, 103200, Note_on_c, 0, 81, 96
2, 103580, Note_on_c, 0, 81, 0
2, 103580, Note_on_c, 0, 86, 0
2, 103680, Note_on_c, 0, 85, 96
2, 103680, Note_on_c, 0, 81, 96
2, 104060, Note_on_c, 0, 81, 0
2, 104060, Note_on_c, 0, 85, 0
2, 104160, Note_on_c, 0, 90, 96
2, 104160, Note_on_c, 0, 86, 96
2, 104540, Note_on_c, 0, 86, 0
2, 104540, Note_on_c, 0, 90, 0
2, 104640, Note_on_c, 0, 88, 96
2, 104640, Note_on_c, 0, 85, 96
2, 105020, Note_on_c, 0, 85, 0
2, 105020, Note_on_c, 0, 88, 0
2, 105120, Note_on_c, 0, 90, 96
2, 105120, Note_on_c, 0, 86, 96
2, 105500, Note_on_c, 0, 86, 0
2, 105500, Note_on_c, 0, 90, 0
2, 105600, Note_on_c, 0, 88, 96
2, 105600, Note_on_c, 0, 85, 96
2, 105980, Note_on_c, 0, 85, 0
2, 105980, Note_on_c, 0, 88, 0
2, 106080, Note_on_c, 0, 81, 96
2, 106270, Note_on_c, 0, 81, 0
2, 106320, Note_on_c, 0, 81, 96
2, 106510, Note_on_c, 0, 81, 0
2, 106560, Note_on_c, 0, 81, 96
2, 106940, Note_on_c, 0, 81, 0
2, 107520, Note_on_c, 0, 81, 96
2, 108670, Note_on_c, 0, 81, 0
2, 111360, Note_on_c, 0, 86, 96
2, 111360, Note_on_c, 0, 81, 96
2, 112510, Note_on_c, 0, 81, 0
2, 112510, Note_on_c, 0, 86, 0
2, 115200, Note_on_c, 0, 86, 96
2, 115200, Note_on_c, 0, 83, 96
2, 116350, Note_on_c, 0, 83, 0
2, 116350, Note_on_c, 0, 86, 0
2, 119040, Note_on_c, 0, 81, 64
2, 119040, Note_on_c, 0, 69, 64
2, 122400, Note_on_c, 0, 69, 0
2, 122400, Note_on_c, 0, 81, 0
2, 122400, Note_on_c, 0, 80, 64
2, 122400, Note_on_c, 0, 68, 64
2, 122780, Note_on_c, 0, 68, 0
2, 122780, Note_on_c, 0, 80, 0
2, 122880, Note_on_c, 0, 81, 64
2, 122880, Note_on_c, 0, 69, 64
2, 126240, Note_on_c, 0, 69, 0
2, 126240, Note_on_c, 0, 81, 0
2, 126240, Note_on_c, 0, 80, 64
2, 126240, Note_on_c, 0, 68, 64
2, 126620, Note_on_c, 0, 68, 0
2, 126620, Note_on_c, 0, 80, 0
2, 126720, Note_on_c, 0, 81, 64
2, 126720, Note_on_c, 0, 69, 64
2, 127100, Note_on_c, 0, 69, 0
2, 127100, Note_on_c, 0, 81, 0
2, 128640, Note_on_c, 0, 89, 96
2, 128640, Note_on_c, 0, 83, 96
2, 130170, Note_on_c, 0, 83, 0
2, 130170, Note_on_c, 0, 89, 0
2, 130560, Note_on_c, 0, 88, 96
2, 130560, Note_on_c, 0, 84, 96
2, 132090, Note_on_c, 0, 84, 0
2, 132090, Note_on_c, 0, 88, 0
2, 132480, Note_on_c, 0, 89, 96
2, 132480, Note_on_c, 0, 83, 96
2, 134010, Note_on_c, 0, 83, 0
2, 134010, Note_on_c, 0, 89, 0
2, 134400, Note_on_c, 0, 88, 96
2, 134400, Note_on_c, 0, 84, 96
2, 135930, Note_on_c, 0, 84, 0
2, 135930, Note_on_c, 0, 88, 0
2, 136320, Note_on_c, 0, 89, 96
2, 136320, Note_on_c, 0, 83, 96
2, 137850, Note_on_c, 0, 83, 0
2, 137850, Note_on_c, 0, 89, 0
2, 138240, Note_on_c, 0, 90, 96
2, 138240, Note_on_c, 0, 84, 96
2, 139770, Note_on_c, 0, 84, 0
2, 139770, Note_on_c, 0, 90, 0
2, 140160, Note_on_c, 0, 88, 96
2, 140160, Note_on_c, 0, 83, 96
2, 140540, Note_on_c, 0, 83, 0
2, 140640, Note_on_c, 0, 84, 96
2, 141020, Note_on_c, 0, 84, 0
2, 141120, Note_on_c, 0, 83, 96
2, 141500, Note_on_c, 0, 83, 0
2, 141600, Note_on_c, 0, 84, 96
2, 141980, Note_on_c, 0, 84, 0
2, 142080, Note_on_c, 0, 83, 96
2, 142460, Note_on_c, 0, 83, 0
2, 142560, Note_on_c, 0, 84, 96
2, 142940, Note_on_c, 0, 84, 0
2, 143040, Note_on_c, 0, 83, 96
2, 143420, Note_on_c, 0, 83, 0
2, 143520, Note_on_c, 0, 84, 96
2, 143900, Note_on_c, 0, 84, 0
2, 144000, Note_on_c, 0, 83, 96
2, 144380, Note_on_c, 0, 83, 0
2, 144380, Note_on_c, 0, 88, 0
2, 144960, Note_on_c, 0, 76, 96
2, 145340, Note_on_c, 0, 76, 0
2, 145440, Note_on_c, 0, 76, 96
2, 145820, Note_on_c, 0, 76, 0
2, 145920, Note_on_c, 0, 76, 96
2, 146680, Note_on_c, 0, 76, 0
2, 147840, Note_on_c, 0, 86, 101
2, 148990, Note_on_c, 0, 86, 0
2, 149280, Note_on_c, 0, 85, 96
2, 149400, Note_on_c, 0, 85, 0
2, 149760, Note_on_c, 0, 83, 96
2, 149880, Note_on_c, 0, 83, 0
2, 150240, Note_on_c, 0, 81, 96
2, 150360, Note_on_c, 0, 81, 0
2, 150720, Note_on_c, 0, 80, 96
2, 150840, Note_on_c, 0, 80, 0
2, 155520, Note_on_c, 0, 86, 101
2, 156670, Note_on_c, 0, 86, 0
2, 156960, Note_on_c, 0, 85, 96
2, 157080, Note_on_c, 0, 85, 0
2, 157440, Note_on_c, 0, 83, 96
2, 157560, Note_on_c, 0, 83, 0
2, 157920, Note_on_c, 0, 81, 96
2, 158040, Note_on_c, 0, 81, 0
2, 158400, Note_on_c, 0, 80, 96
2, 158520, Note_on_c, 0, 80, 0
2, 165120, Note_on_c, 0, 86, 96
2, 165120, Note_on_c, 0, 74, 96
2, 166270, Note_on_c, 0, 74, 0
2, 166270, Note_on_c, 0, 86, 0
2, 166560, Note_on_c, 0, 85, 64
2, 166560, Note_on_c, 0, 73, 64
2, 166680, Note_on_c, 0, 73, 0
2, 166680, Note_on_c, 0, 85, 0
2, 167040, Note_on_c, 0, 83, 64
2, 167040, Note_on_c, 0, 71, 64
2, 167160, Note_on_c, 0, 71, 0
2, 167160, Note_on_c, 0, 83, 0
2, 167520, Note_on_c, 0, 81, 64
2, 167520, Note_on_c, 0, 69, 64
2, 167640, Note_on_c, 0, 69, 0
2, 167640, Note_on_c, 0, 81, 0
2, 168000, Note_on_c, 0, 80, 64
2, 168000, Note_on_c, 0, 68, 64
2, 168120, Note_on_c, 0, 68, 0
2, 168120, Note_on_c, 0, 80, 0
2, 168960, Note_on_c, 0, 86, 96
2, 168960, Note_on_c, 0, 74, 96
2, 170110, Note_on_c, 0, 74, 0
2, 170110, Note_on_c, 0, 86, 0
2, 170400, Note_on_c, 0, 84, 64
2, 170400, Note_on_c, 0, 72, 64
2, 170520, Note_on_c, 0, 72, 0
2, 170520, Note_on_c, 0, 84, 0
2, 170880, Note_on_c, 0, 83, 64
2, 170880, Note_on_c, 0, 71, 64
2, 171000, Note_on_c, 0, 71, 0
2, 171000, Note_on_c, 0, 83, 0
2, 171360, Note_on_c, 0, 81, 64
2, 171360, Note_on_c, 0, 69, 64
2, 171480, Note_on_c, 0, 69, 0
2, 171480, Note_on_c, 0, 81, 0
2, 171840, Note_on_c, 0, 80, 64
2, 171840, Note_on_c, 0, 68, 64
2, 171960, Note_on_c, 0, 68, 0
2, 171960, Note_on_c, 0, 80, 0
2, 172800, Note_on_c, 0, 86, 96
2, 172800, Note_on_c, 0, 74, 96
2, 173950, Note_on_c, 0, 74, 0
2, 173950, Note_on_c, 0, 86, 0
2, 174240, Note_on_c, 0, 84, 64
2, 174240, Note_on_c, 0, 72, 64
2, 174360, Note_on_c, 0, 72, 0
2, 174360, Note_on_c, 0, 84, 0
2, 174720, Note_on_c, 0, 83, 64
2, 174720, Note_on_c, 0, 71, 64
2, 174840, Note_on_c, 0, 71, 0
2, 174840, Note_on_c, 0, 83, 0
2, 175200, Note_on_c, 0, 81, 64
2, 175320, Note_on_c, 0, 81, 0
2, 175680, Note_on_c, 0, 79, 64
2, 175800, Note_on_c, 0, 79, 0
2, 176640, Note_on_c, 0, 84, 64
2, 177790, Note_on_c, 0, 84, 0
2, 178080, Note_on_c, 0, 84, 64
2, 178200, Note_on_c, 0, 84, 0
2, 178560, Note_on_c, 0, 83, 64
2, 178680, Note_on_c, 0, 83, 0
2, 179040, Note_on_c, 0, 81, 64
2, 179160, Note_on_c, 0, 81, 0
2, 179520, Note_on_c, 0, 79, 64
2, 179640, Note_on_c, 0, 79, 0
2, 180480, Note_on_c, 0, 84, 64
2, 181630, Note_on_c, 0, 84, 0
2, 181920, Note_on_c, 0, 84, 64
2, 182040, Note_on_c, 0, 84, 0
2, 182400, Note_on_c, 0, 83, 64
2, 182520, Note_on_c, 0, 83, 0
2, 182880, Note_on_c, 0, 81, 64
2, 183000, Note_on_c, 0, 81, 0
2, 183360, Note_on_c, 0, 80, 64
2, 184120, Note_on_c, 0, 80, 0
2, 184320, Note_on_c, 0, 81, 64
2, 185760, Note_on_c, 0, 81, 0
2, 185760, Note_on_c, 0, 87, 64
2, 186140, Note_on_c, 0, 87, 0
2, 186240, Note_on_c, 0, 76, 64
2, 186240, Note_on_c, 0, 88, 64
2, 187770, Note_on_c, 0, 88, 0
2, 188160, Note_on_c, 0, 80, 64
2, 189690, Note_on_c, 0, 80, 0
2, 189690, Note_on_c, 0, 76, 0
2, 190080, Note_on_c, 0, 81, 96
2, 193530, Note_on_c, 0, 81, 0
2, 193920, Note_on_c, 0, 83, 96
2, 193920, Note_on_c, 0, 78, 96
2, 194680, Note_on_c, 0, 78, 0
2, 194680, Note_on_c, 0, 83, 0
2, 194880, Note_on_c, 0, 86, 96
2, 194880, Note_on_c, 0, 83, 96
2, 195640, Note_on_c, 0, 83, 0
2, 195640, Note_on_c, 0, 86, 0
2, 195840, Note_on_c, 0, 90, 96
2, 195840, Note_on_c, 0, 86, 96
2, 196600, Note_on_c, 0, 86, 0
2, 196600, Note_on_c, 0, 90, 0
2, 196800, Note_on_c, 0, 86, 96
2, 196800, Note_on_c, 0, 83, 96
2, 197560, Note_on_c, 0, 83, 0
2, 197560, Note_on_c, 0, 86, 0
2, 197760, Note_on_c, 0, 85, 96
2, 197760, Note_on_c, 0, 81, 96
2, 200060, Note_on_c, 0, 81, 0
2, 200060, Note_on_c, 0, 85, 0
2, 200160, Note_on_c, 0, 86, 96
2, 200160, Note_on_c, 0, 83, 96
2, 200350, Note_on_c, 0, 83, 0
2, 200350, Note_on_c, 0, 86, 0
2, 200400, Note_on_c, 0, 88, 96
2, 200400, Note_on_c, 0, 85, 96
2, 200590, Note_on_c, 0, 85, 0
2, 200590, Note_on_c, 0, 88, 0
2, 200640, Note_on_c, 0, 88, 96
2, 200640, Note_on_c, 0, 85, 96
2, 200880, Note_on_c, 0, 85, 0
2, 200880, Note_on_c, 0, 88, 0
2, 200880, Note_on_c, 0, 86, 96
2, 200880, Note_on_c, 0, 83, 96
2, 201070, Note_on_c, 0, 83, 0
2, 201070, Note_on_c, 0, 86, 0
2, 201120, Note_on_c, 0, 85, 96
2, 201120, Note_on_c, 0, 81, 96
2, 201180, Note_on_c, 0, 81, 0
2, 201180, Note_on_c, 0, 85, 0
2, 201360, Note_on_c, 0, 83, 96
2, 201360, Note_on_c, 0, 80, 96
2, 201420, Note_on_c, 0, 80, 0
2, 201420, Note_on_c, 0, 83, 0
2, 201600, Note_on_c, 0, 81, 96
2, 205050, Note_on_c, 0, 81, 0
2, 205440, Note_on_c, 0, 83, 96
2, 205440, Note_on_c, 0, 78, 96
2, 206200, Note_on_c, 0, 78, 0
2, 206200, Note_on_c, 0, 83, 0
2, 206400, Note_on_c, 0, 86, 96
2, 206400, Note_on_c, 0, 83, 96
2, 207160, Note_on_c, 0, 83, 0
2, 207160, Note_on_c, 0, 86, 0
2, 207360, Note_on_c, 0, 90, 96
2, 207360, Note_on_c, 0, 86, 96
2, 208120, Note_on_c, 0, 86, 0
2, 208120, Note_on_c, 0, 90, 0
2, 208320, Note_on_c, 0, 86, 96
2, 208320, Note_on_c, 0, 83, 96
2, 209080, Note_on_c, 0, 83, 0
2, 209080, Note_on_c, 0, 86, 0
2, 209280, Note_on_c, 0, 85, 96
2, 209280, Note_on_c, 0, 81, 96
2, 211580, Note_on_c, 0, 81, 0
2, 211580, Note_on_c, 0, 85, 0
2, 211680, Note_on_c, 0, 86, 96
2, 211680, Note_on_c, 0, 83, 96
2, 211870, Note_on_c, 0, 83, 0
2, 211870, Note_on_c, 0, 86, 0
2, 211920, Note_on_c, 0, 88, 96
2, 211920, Note_on_c, 0, 85, 96
2, 212110, Note_on_c, 0, 85, 0
2, 212110, Note_on_c, 0, 88, 0
2, 212160, Note_on_c, 0, 88, 96
2, 212160, Note_on_c, 0, 85, 96
2, 212400, Note_on_c, 0, 85, 0
2, 212400, Note_on_c, 0, 88, 0
2, 212400, Note_on_c, 0, 86, 96
2, 212400, Note_on_c, 0, 83, 96
2, 212590, Note_on_c, 0, 83, 0
2, 212590, Note_on_c, 0, 86, 0
2, 212640, Note_on_c, 0, 85, 96
2, 212640, Note_on_c, 0, 81, 96
2, 212700, Note_on_c, 0, 81, 0
2, 212700, Note_on_c, 0, 85, 0
2, 212880, Note_on_c, 0, 83, 96
2, 212880, Note_on_c, 0, 80, 96
2, 212940, Note_on_c, 0, 80, 0
2, 212940, Note_on_c, 0, 83, 0
2, 213120, Note_on_c, 0, 81, 96
2, 213310, Note_on_c, 0, 81, 0
2, 213360, Note_on_c, 0, 85, 96
2, 213550, Note_on_c, 0, 85, 0
2, 213600, Note_on_c, 0, 76, 96
2, 213790, Note_on_c, 0, 76, 0
2, 213840, Note_on_c, 0, 80, 96
2, 214030, Note_on_c, 0, 80, 0
2, 214080, Note_on_c, 0, 81, 96
2, 214270, Note_on_c, 0, 81, 0
2, 214320, Note_on_c, 0, 85, 96
2, 214510, Note_on_c, 0, 85, 0
2, 214560, Note_on_c, 0, 86, 96
2, 214750, Note_on_c, 0, 86, 0
2, 214800, Note_on_c, 0, 83, 96
2, 214990, Note_on_c, 0, 83, 0
2, 215040, Note_on_c, 0, 81, 96
2, 215230, Note_on_c, 0, 81, 0
2, 215280, Note_on_c, 0, 85, 96
2, 215470, Note_on_c, 0, 85, 0
2, 215520, Note_on_c, 0, 76, 96
2, 215710, Note_on_c, 0, 76, 0
2, 215760, Note_on_c, 0, 80, 96
2, 215950, Note_on_c, 0, 80, 0
2, 216000, Note_on_c, 0, 81, 96
2, 216190, Note_on_c, 0, 81, 0
2, 216240, Note_on_c, 0, 85, 96
2, 216430, Note_on_c, 0, 85, 0
2, 216480, Note_on_c, 0, 86, 96
2, 216670, Note_on_c, 0, 86, 0
2, 216720, Note_on_c, 0, 83, 96
2, 216910, Note_on_c, 0, 83, 0
2, 216960, Note_on_c, 0, 81, 96
2, 217150, Note_on_c, 0, 81, 0
2, 217200, Note_on_c, 0, 85, 96
2, 217390, Note_on_c, 0, 85, 0
2, 217440, Note_on_c, 0, 76, 96
2, 217630, Note_on_c, 0, 76, 0
2, 217680, Note_on_c, 0, 80, 96
2, 217870, Note_on_c, 0, 80, 0
2, 217920, Note_on_c, 0, 81, 96
2, 218110, Note_on_c, 0, 81, 0
2, 218160, Note_on_c, 0, 85, 96
2, 218350, Note_on_c, 0, 85, 0
2, 218400, Note_on_c, 0, 86, 96
2, 218590, Note_on_c, 0, 86, 0
2, 218640, Note_on_c, 0, 83, 96
2, 218830, Note_on_c, 0, 83, 0
2, 218880, Note_on_c, 0, 81, 96
2, 219070, Note_on_c, 0, 81, 0
2, 219120, Note_on_c, 0, 85, 96
2, 219310, Note_on_c, 0, 85, 0
2, 219360, Note_on_c, 0, 76, 96
2, 219550, Note_on_c, 0, 76, 0
2, 219600, Note_on_c, 0, 80, 96
2, 219790, Note_on_c, 0, 80, 0
2, 219840, Note_on_c, 0, 81, 96
2, 220030, Note_on_c, 0, 81, 0
2, 220080, Note_on_c, 0, 85, 96
2, 220270, Note_on_c, 0, 85, 0
2, 220320, Note_on_c, 0, 86, 96
2, 220510, Note_on_c, 0, 86, 0
2, 220560, Note_on_c, 0, 83, 96
2, 220750, Note_on_c, 0, 83, 0
2, 220800, Note_on_c, 0, 81, 96
2, 221040, Note_on_c, 0, 81, 0
2, 221040, Note_on_c, 0, 76, 96
2, 221230, Note_on_c, 0, 76, 0
2, 221280, Note_on_c, 0, 85, 96
2, 221340, Note_on_c, 0, 85, 0
2, 221520, Note_on_c, 0, 85, 96
2, 221580, Note_on_c, 0, 85, 0
2, 221760, Note_on_c, 0, 85, 96
2, 222000, Note_on_c, 0, 85, 0
2, 222000, Note_on_c, 0, 81, 96
2, 222190, Note_on_c, 0, 81, 0
2, 222240, Note_on_c, 0, 88, 96
2, 222300, Note_on_c, 0, 88, 0
2, 222480, Note_on_c, 0, 88, 96
2, 222540, Note_on_c, 0, 88, 0
2, 222720, Note_on_c, 0, 88, 96
2, 222910, Note_on_c, 0, 88, 0
2, 222960, Note_on_c, 0, 88, 96
2, 223150, Note_on_c, 0, 88, 0
2, 223200, Note_on_c, 0, 88, 96
2, 223390, Note_on_c, 0, 88, 0
2, 223440, Note_on_c, 0, 88, 96
2, 223630, Note_on_c, 0, 88, 0
2, 223680, Note_on_c, 0, 88, 96
2, 223870, Note_on_c, 0, 88, 0
2, 223920, Note_on_c, 0, 85, 96
2, 224110, Note_on_c, 0, 85, 0
2, 224160, Note_on_c, 0, 81, 96
2, 224350, Note_on_c, 0, 81, 0
2, 224400, Note_on_c, 0, 76, 96
2, 224590, Note_on_c, 0, 76, 0
2, 224640, Note_on_c, 0, 85, 96
2, 224830, Note_on_c, 0, 85, 0
2, 224880, Note_on_c, 0, 85, 96
2, 225070, Note_on_c, 0, 85, 0
2, 225120, Note_on_c, 0, 85, 96
2, 225310, Note_on_c, 0, 85, 0
2, 225360, Note_on_c, 0, 85, 96
2, 225550, Note_on_c, 0, 85, 0
2, 225600, Note_on_c, 0, 85, 96
2, 225790, Note_on_c, 0, 85, 0
2, 225840, Note_on_c, 0, 81, 96
2, 226030, Note_on_c, 0, 81, 0
2, 226080, Note_on_c, 0, 76, 96
2, 226270, Note_on_c, 0, 76, 0
2, 226320, Note_on_c, 0, 73, 96
2, 226510, Note_on_c, 0, 73, 0
2, 226560, Note_on_c, 0, 81, 96
2, 226750, Note_on_c, 0, 81, 0
2, 226800, Note_on_c, 0, 81, 96
2, 226990, Note_on_c, 0, 81, 0
2, 227040, Note_on_c, 0, 81, 96
2, 227230, Note_on_c, 0, 81, 0
2, 227280, Note_on_c, 0, 81, 96
2, 227470, Note_on_c, 0, 81, 0
2, 227520, Note_on_c, 0, 81, 96
2, 227710, Note_on_c, 0, 81, 0
2, 227760, Note_on_c, 0, 76, 96
2, 227950, Note_on_c, 0, 76, 0
2, 228000, Note_on_c, 0, 73, 96
2, 228190, Note_on_c, 0, 73, 0
2, 228240, Note_on_c, 0, 69, 96
2, 228430, Note_on_c, 0, 69, 0
2, 228480, Note_on_c, 0, 81, 96
2, 228860, Note_on_c, 0, 81, 0
2, 229440, Note_on_c, 0, 85, 96
2, 229440, Note_on_c, 0, 76, 96
2, 229820, Note_on_c, 0, 76, 0
2, 229820, Note_on_c, 0, 85, 0
2, 230400, Note_on_c, 0, 81, 96
2, 230400, Note_on_c, 0, 73, 96
2, 231160, Note_on_c, 0, 73, 0
2, 231160, Note_on_c, 0, 81, 0
2, 232320, Note_on_c, 0, 76, 96
2, 233470, Note_on_c, 0, 76, 0
2, 233760, Note_on_c, 0, 74, 96
2, 233880, Note_on_c, 0, 74, 0
2, 234240, Note_on_c, 0, 73, 96
2, 234360, Note_on_c, 0, 73, 0
2, 234720, Note_on_c, 0, 71, 96
2, 234840, Note_on_c, 0, 71, 0
2, 235200, Note_on_c, 0, 69, 96
2, 235320, Note_on_c, 0, 69, 0
2, 240000, Note_on_c, 0, 78, 96
2, 241150, Note_on_c, 0, 78, 0
2, 241440, Note_on_c, 0, 73, 96
2, 241560, Note_on_c, 0, 73, 0
2, 241920, Note_on_c, 0, 74, 96
2, 242040, Note_on_c, 0, 74, 0
2, 242400, Note_on_c, 0, 71, 96
2, 242520, Note_on_c, 0, 71, 0
2, 242880, Note_on_c, 0, 69, 96
2, 243000, Note_on_c, 0, 69, 0
2, 252480, Note_on_c, 0, 90, 96
2, 252480, Note_on_c, 0, 78, 96
2, 253820, Note_on_c, 0, 78, 0
2, 253820, Note_on_c, 0, 90, 0
2, 253920, Note_on_c, 0, 88, 64
2, 253920, Note_on_c, 0, 79, 64
2, 254040, Note_on_c, 0, 79, 0
2, 254040, Note_on_c, 0, 88, 0
2, 254400, Note_on_c, 0, 86, 64
2, 254400, Note_on_c, 0, 78, 64
2, 254520, Note_on_c, 0, 78, 0
2, 254520, Note_on_c, 0, 86, 0
2, 254880, Note_on_c, 0, 85, 64
2, 254880, Note_on_c, 0, 76, 64
2, 255000, Note_on_c, 0, 76, 0
2, 255000, Note_on_c, 0, 85, 0
2, 255360, Note_on_c, 0, 83, 64
2, 255360, Note_on_c, 0, 75, 64
2, 255480, Note_on_c, 0, 75, 0
2, 255480, Note_on_c, 0, 83, 0
2, 257280, Note_on_c, 0, 83, 64
2, 258430, Note_on_c, 0, 83, 0
2, 258720, Note_on_c, 0, 81, 64
2, 258840, Note_on_c, 0, 81, 0
2, 259200, Note_on_c, 0, 86, 64
2, 259200, Note_on_c, 0, 80, 64
2, 259320, Note_on_c, 0, 80, 0
2, 259680, Note_on_c, 0, 78, 64
2, 259800, Note_on_c, 0, 78, 0
2, 260160, Note_on_c, 0, 76, 64
2, 260280, Note_on_c, 0, 76, 0
2, 260280, Note_on_c, 0, 86, 0
2, 260640, Note_on_c, 0, 85, 64
2, 260760, Note_on_c, 0, 85, 0
2, 261120, Note_on_c, 0, 76, 64
2, 261120, Note_on_c, 0, 83, 64
2, 261240, Note_on_c, 0, 83, 0
2, 261600, Note_on_c, 0, 81, 64
2, 261720, Note_on_c, 0, 81, 0
2, 262080, Note_on_c, 0, 80, 64
2, 262200, Note_on_c, 0, 80, 0
2, 262200, Note_on_c, 0, 76, 0
2, 262560, Note_on_c, 0, 74, 64
2, 262680, Note_on_c, 0, 74, 0
2, 263040, Note_on_c, 0, 73, 64
2, 263160, Note_on_c, 0, 73, 0
2, 263520, Note_on_c, 0, 71, 64
2, 263640, Note_on_c, 0, 71, 0
2, 264000, Note_on_c, 0, 69, 64
2, 264120, Note_on_c, 0, 69, 0
2, 264960, Note_on_c, 0, 81, 64
2, 266110, Note_on_c, 0, 81, 0
2, 266400, Note_on_c, 0, 79, 64
2, 266520, Note_on_c, 0, 79, 0
2, 266880, Note_on_c, 0, 84, 64
2, 266880, Note_on_c, 0, 78, 64
2, 267000, Note_on_c, 0, 78, 0
2, 267360, Note_on_c, 0, 76, 64
2, 267480, Note_on_c, 0, 76, 0
2, 267840, Note_on_c, 0, 74, 64
2, 267960, Note_on_c, 0, 84, 0
2, 268320, Note_on_c, 0, 83, 64
2, 268440, Note_on_c, 0, 83, 0
2, 268800, Note_on_c, 0, 81, 64
2, 268920, Note_on_c, 0, 81, 0
2, 268920, Note_on_c, 0, 74, 0
2, 269280, Note_on_c, 0, 79, 64
2, 269400, Note_on_c, 0, 79, 0
2, 269760, Note_on_c, 0, 78, 64
2, 270720, Note_on_c, 0, 78, 0
2, 270720, Note_on_c, 0, 79, 64
2, 271200, Note_on_c, 0, 79, 0
2, 282240, Note_on_c, 0, 79, 96
2, 282240, Note_on_c, 0, 74, 96
2, 282620, Note_on_c, 0, 74, 0
2, 282620, Note_on_c, 0, 79, 0
2, 282720, Note_on_c, 0, 79, 96
2, 282720, Note_on_c, 0, 74, 96
2, 282910, Note_on_c, 0, 74, 0
2, 282910, Note_on_c, 0, 79, 0
2, 282960, Note_on_c, 0, 79, 96
2, 282960, Note_on_c, 0, 74, 96
2, 283150, Note_on_c, 0, 74, 0
2, 283150, Note_on_c, 0, 79, 0
2, 283200, Note_on_c, 0, 81, 96
2, 283200, Note_on_c, 0, 78, 96
2, 283580, Note_on_c, 0, 78, 0
2, 283580, Note_on_c, 0, 81, 0
2, 283680, Note_on_c, 0, 81, 96
2, 283680, Note_on_c, 0, 78, 96
2, 283870, Note_on_c, 0, 78, 0
2, 283870, Note_on_c, 0, 81, 0
2, 283920, Note_on_c, 0, 81, 96
2, 283920, Note_on_c, 0, 78, 96
2, 284110, Note_on_c, 0, 78, 0
2, 284110, Note_on_c, 0, 81, 0
2, 284160, Note_on_c, 0, 83, 96
2, 284160, Note_on_c, 0, 79, 96
2, 284540, Note_on_c, 0, 79, 0
2, 284540, Note_on_c, 0, 83, 0
2, 284640, Note_on_c, 0, 83, 96
2, 284640, Note_on_c, 0, 79, 96
2, 284830, Note_on_c, 0, 79, 0
2, 284830, Note_on_c, 0, 83, 0
2, 284880, Note_on_c, 0, 83, 96
2, 284880, Note_on_c, 0, 79, 96
2, 285070, Note_on_c, 0, 79, 0
2, 285070, Note_on_c, 0, 83, 0
2, 285120, Note_on_c, 0, 86, 96
2, 285120, Note_on_c, 0, 78, 96
2, 285500, Note_on_c, 0, 78, 0
2, 285500, Note_on_c, 0, 86, 0
2, 291840, Note_on_c, 0, 81, 64
2, 291840, Note_on_c, 0, 75, 64
2, 293280, Note_on_c, 0, 75, 0
2, 293280, Note_on_c, 0, 81, 0
2, 293280, Note_on_c, 0, 82, 64
2, 293280, Note_on_c, 0, 74, 64
2, 293660, Note_on_c, 0, 74, 0
2, 293660, Note_on_c, 0, 82, 0
2, 293760, Note_on_c, 0, 84, 64
2, 293760, Note_on_c, 0, 81, 64
2, 295200, Note_on_c, 0, 81, 0
2, 295200, Note_on_c, 0, 84, 0
2, 295200, Note_on_c, 0, 86, 64
2, 295200, Note_on_c, 0, 82, 64
2, 295580, Note_on_c, 0, 82, 0
2, 295580, Note_on_c, 0, 86, 0
2, 295680, Note_on_c, 0, 87, 64
2, 295680, Note_on_c, 0, 84, 64
2, 296060, Note_on_c, 0, 84, 0
2, 296060, Note_on_c, 0, 87, 0
2, 296640, Note_on_c, 0, 86, 64
2, 296640, Note_on_c, 0, 82, 64
2, 297020, Note_on_c, 0, 82, 0
2, 297020, Note_on_c, 0, 86, 0
2, 297600, Note_on_c, 0, 84, 64
2, 297600, Note_on_c, 0, 81, 64
2, 298320, Note_on_c, 0, 81, 0
2, 298320, Note_on_c, 0, 84, 0
2, 298320, Note_on_c, 0, 86, 64
2, 298320, Note_on_c, 0, 82, 64
2, 298560, Note_on_c, 0, 82, 0
2, 298560, Note_on_c, 0, 86, 0
2, 298560, Note_on_c, 0, 84, 64
2, 298560, Note_on_c, 0, 81, 64
2, 298800, Note_on_c, 0, 81, 0
2, 298800, Note_on_c, 0, 84, 0
2, 298800, Note_on_c, 0, 86, 64
2, 298800, Note_on_c, 0, 82, 64
2, 299040, Note_on_c, 0, 82, 0
2, 299040, Note_on_c, 0, 86, 0
2, 299040, Note_on_c, 0, 84, 64
2, 299040, Note_on_c, 0, 81, 64
2, 299280, Note_on_c, 0, 81, 0
2, 299280, Note_on_c, 0, 84, 0
2, 299280, Note_on_c, 0, 86, 64
2, 299280, Note_on_c, 0, 82, 64
2, 299520, Note_on_c, 0, 82, 0
2, 299520, Note_on_c, 0, 86, 0
2, 299520, Note_on_c, 0, 84, 64
2, 299520, Note_on_c, 0, 81, 64
2, 299900, Note_on_c, 0, 81, 0
2, 299900, Note_on_c, 0, 84, 0
2, 301440, Note_on_c, 0, 82, 96
2, 303740, Note_on_c, 0, 82, 0
2, 309120, Note_on_c, 0, 86, 96
2, 309120, Note_on_c, 0, 84, 96
2, 311420, Note_on_c, 0, 84, 0
2, 311420, Note_on_c, 0, 86, 0
2, 316800, Note_on_c, 0, 86, 96
2, 316800, Note_on_c, 0, 82, 96
2, 319100, Note_on_c, 0, 82, 0
2, 319100, Note_on_c, 0, 86, 0
2, 324480, Note_on_c, 0, 88, 96
2, 324480, Note_on_c, 0, 81, 96
2, 326780, Note_on_c, 0, 81, 0
2, 326780, Note_on_c, 0, 88, 0
2, 332160, Note_on_c, 0, 89, 96
2, 332160, Note_on_c, 0, 86, 96
2, 334460, Note_on_c, 0, 86, 0
2, 334460, Note_on_c, 0, 89, 0
2, 339840, Note_on_c, 0, 89, 96
2, 339840, Note_on_c, 0, 86, 96
2, 342140, Note_on_c, 0, 86, 0
2, 342140, Note_on_c, 0, 89, 0
2, 355200, Note_on_c, 0, 81, 64
2, 356730, Note_on_c, 0, 81, 0
2, 357120, Note_on_c, 0, 83, 64
2, 357120, Note_on_c, 0, 80, 64
2, 358650, Note_on_c, 0, 80, 0
2, 358650, Note_on_c, 0, 83, 0
2, 359040, Note_on_c, 0, 85, 64
2, 359040, Note_on_c, 0, 79, 64
2, 360570, Note_on_c, 0, 79, 0
2, 360570, Note_on_c, 0, 85, 0
2, 360960, Note_on_c, 0, 86, 64
2, 360960, Note_on_c, 0, 78, 64
2, 362490, Note_on_c, 0, 78, 0
2, 362490, Note_on_c, 0, 86, 0
2, 362880, Note_on_c, 0, 91, 96
2, 362880, Note_on_c, 0, 88, 96
2, 367100, Note_on_c, 0, 88, 0
2, 367100, Note_on_c, 0, 91, 0
2, 382080, Note_on_c, 0, 74, 96
2, 382080, Note_on_c, 0, 69, 96
2, 382460, Note_on_c, 0, 69, 0
2, 382460, Note_on_c, 0, 74, 0
2, 382560, Note_on_c, 0, 74, 96
2, 382560, Note_on_c, 0, 69, 96
2, 382750, Note_on_c, 0, 69, 0
2, 382750, Note_on_c, 0, 74, 0
2, 382800, Note_on_c, 0, 74, 96
2, 382800, Note_on_c, 0, 69, 96
2, 382990, Note_on_c, 0, 69, 0
2, 382990, Note_on_c, 0, 74, 0
2, 383040, Note_on_c, 0, 76, 96
2, 383040, Note_on_c, 0, 73, 96
2, 383420, Note_on_c, 0, 73, 0
2, 383420, Note_on_c, 0, 76, 0
2, 383520, Note_on_c, 0, 76, 96
2, 383520, Note_on_c, 0, 73, 96
2, 383710, Note_on_c, 0, 73, 0
2, 383710, Note_on_c, 0, 76, 0
2, 383760, Note_on_c, 0, 76, 96
2, 383760, Note_on_c, 0, 73, 96
2, 383950, Note_on_c, 0, 73, 0
2, 383950, Note_on_c, 0, 76, 0
2, 384000, Note_on_c, 0, 78, 96
2, 384000, Note_on_c, 0, 74, 96
2, 384380, Note_on_c, 0, 74, 0
2, 384380, Note_on_c, 0, 78, 0
2, 384480, Note_on_c, 0, 78, 96
2, 384480, Note_on_c, 0, 74, 96
2, 384670, Note_on_c, 0, 74, 0
2, 384670, Note_on_c, 0, 78, 0
2, 384720, Note_on_c, 0, 78, 96
2, 384720, Note_on_c, 0, 74, 96
2, 384910, Note_on_c, 0, 74, 0
2, 384910, Note_on_c, 0, 78, 0
2, 384960, Note_on_c, 0, 81, 96
2, 384960, Note_on_c, 0, 76, 96
2, 385340, Note_on_c, 0, 76, 0
2, 385340, Note_on_c, 0, 81, 0
2, 387840, Note_on_c, 0, 84, 64
2, 388800, Note_on_c, 0, 84, 0
2, 388800, Note_on_c, 0, 83, 64
2, 389280, Note_on_c, 0, 83, 0
2, 389280, Note_on_c, 0, 81, 64
2, 389660, Note_on_c, 0, 81, 0
2, 389760, Note_on_c, 0, 79, 64
2, 390000, Note_on_c, 0, 79, 0
2, 390000, Note_on_c, 0, 76, 64
2, 390240, Note_on_c, 0, 76, 0
2, 390240, Note_on_c, 0, 73, 64
2, 391200, Note_on_c, 0, 73, 0
2, 391200, Note_on_c, 0, 74, 64
2, 391580, Note_on_c, 0, 74, 0
2, 392160, Note_on_c, 0, 85, 64
2, 392160, Note_on_c, 0, 76, 64
2, 393120, Note_on_c, 0, 76, 0
2, 393120, Note_on_c, 0, 85, 0
2, 393120, Note_on_c, 0, 86, 64
2, 393120, Note_on_c, 0, 78, 64
2, 393500, Note_on_c, 0, 78, 0
2, 393500, Note_on_c, 0, 86, 0
2, 398880, Note_on_c, 0, 85, 64
2, 398880, Note_on_c, 0, 79, 64
2, 399360, Note_on_c, 0, 79, 0
2, 399360, Note_on_c, 0, 85, 0
2, 399360, Note_on_c, 0, 86, 64
2, 399360, Note_on_c, 0, 78, 64
2, 399740, Note_on_c, 0, 78, 0
2, 399740, Note_on_c, 0, 86, 0
2, 400800, Note_on_c, 0, 85, 64
2, 400800, Note_on_c, 0, 79, 64
2, 401280, Note_on_c, 0, 79, 0
2, 401280, Note_on_c, 0, 85, 0
2, 401280, Note_on_c, 0, 86, 64
2, 401280, Note_on_c, 0, 78, 64
2, 401660, Note_on_c, 0, 78, 0
2, 401660, Note_on_c, 0, 86, 0
2, 402720, Note_on_c, 0, 85, 64
2, 402720, Note_on_c, 0, 79, 64
2, 403200, Note_on_c, 0, 79, 0
2, 403200, Note_on_c, 0, 85, 0
2, 403200, Note_on_c, 0, 86, 64
2, 403200, Note_on_c, 0, 78, 64
2, 403580, Note_on_c, 0, 78, 0
2, 403580, Note_on_c, 0, 86, 0
2, 404640, Note_on_c, 0, 85, 64
2, 404640, Note_on_c, 0, 79, 64
2, 405120, Note_on_c, 0, 79, 0
2, 405120, Note_on_c, 0, 85, 0
2, 405120, Note_on_c, 0, 86, 64
2, 405120, Note_on_c, 0, 78, 64
2, 405500, Note_on_c, 0, 78, 0
2, 405500, Note_on_c, 0, 86, 0
2, 405600, Note_on_c, 0, 78, 64
2, 405790, Note_on_c, 0, 78, 0
2, 405840, Note_on_c, 0, 78, 64
2, 406030, Note_on_c, 0, 78, 0
2, 406080, Note_on_c, 0, 78, 64
2, 406460, Note_on_c, 0, 78, 0
2, 406560, Note_on_c, 0, 81, 64
2, 406750, Note_on_c, 0, 81, 0
2, 406800, Note_on_c, 0, 81, 64
2, 406990, Note_on_c, 0, 81, 0
2, 407040, Note_on_c, 0, 81, 64
2, 407420, Note_on_c, 0, 81, 0
2, 407520, Note_on_c, 0, 86, 64
2, 407710, Note_on_c, 0, 86, 0
2, 407760, Note_on_c, 0, 86, 64
2, 407950, Note_on_c, 0, 86, 0
2, 408000, Note_on_c, 0, 86, 64
2, 408190, Note_on_c, 0, 86, 0
2, 408240, Note_on_c, 0, 81, 64
2, 408430, Note_on_c, 0, 81, 0
2, 408480, Note_on_c, 0, 78, 64
2, 408670, Note_on_c, 0, 78, 0
2, 408720, Note_on_c, 0, 74, 64
2, 408910, Note_on_c, 0, 74, 0
2, 408960, Note_on_c, 0, 81, 64
2, 409340, Note_on_c, 0, 81, 0
2, 409440, Note_on_c, 0, 85, 64
2, 409440, Note_on_c, 0, 81, 64
2, 409820, Note_on_c, 0, 81, 0
2, 409820, Note_on_c, 0, 85, 0
2, 409920, Note_on_c, 0, 86, 64
2, 409920, Note_on_c, 0, 81, 64
2, 410300, Note_on_c, 0, 81, 0
2, 410300, Note_on_c, 0, 86, 0
2, 410400, Note_on_c, 0, 86, 64
2, 410400, Note_on_c, 0, 81, 64
2, 410780, Note_on_c, 0, 81, 0
2, 410780, Note_on_c, 0, 86, 0
2, 410880, Note_on_c, 0, 85, 64
2, 410880, Note_on_c, 0, 81, 64
2, 411260, Note_on_c, 0, 81, 0
2, 411260, Note_on_c, 0, 85, 0
2, 411360, Note_on_c, 0, 85, 64
2, 411360, Note_on_c, 0, 81, 64
2, 411740, Note_on_c, 0, 81, 0
2, 411740, Note_on_c, 0, 85, 0
2, 411840, Note_on_c, 0, 86, 64
2, 411840, Note_on_c, 0, 81, 64
2, 412220, Note_on_c, 0, 81, 0
2, 412220, Note_on_c, 0, 86, 0
2, 412320, Note_on_c, 0, 86, 64
2, 412320, Note_on_c, 0, 81, 64
2, 412700, Note_on_c, 0, 81, 0
2, 412700, Note_on_c, 0, 86, 0
2, 412800, Note_on_c, 0, 85, 64
2, 412800, Note_on_c, 0, 81, 64
2, 413180, Note_on_c, 0, 81, 0
2, 413180, Note_on_c, 0, 85, 0
2, 413280, Note_on_c, 0, 90, 64
2, 413280, Note_on_c, 0, 86, 64
2, 413660, Note_on_c, 0, 86, 0
2, 413660, Note_on_c, 0, 90, 0
2, 413760, Note_on_c, 0, 88, 64
2, 413760, Note_on_c, 0, 85, 64
2, 414140, Note_on_c, 0, 85, 0
2, 414140, Note_on_c, 0, 88, 0
2, 414240, Note_on_c, 0, 90, 64
2, 414240, Note_on_c, 0, 86, 64
2, 414620, Note_on_c, 0, 86, 0
2, 414620, Note_on_c, 0, 90, 0
2, 414720, Note_on_c, 0, 88, 64
2, 414720, Note_on_c, 0, 85, 64
2, 415100, Note_on_c, 0, 85, 0
2, 415100, Note_on_c, 0, 88, 0
2, 415200, Note_on_c, 0, 81, 64
2, 415390, Note_on_c, 0, 81, 0
2, 415440, Note_on_c, 0, 81, 64
2, 415630, Note_on_c, 0, 81, 0
2, 415680, Note_on_c, 0, 81, 64
2, 416060, Note_on_c, 0, 81, 0
2, 416640, Note_on_c, 0, 86, 64
2, 417790, Note_on_c, 0, 86, 0
2, 420480, Note_on_c, 0, 91, 64
2, 420480, Note_on_c, 0, 86, 64
2, 421630, Note_on_c, 0, 86, 0
2, 421630, Note_on_c, 0, 91, 0
2, 424320, Note_on_c, 0, 88, 64
2, 424320, Note_on_c, 0, 85, 64
2, 425470, Note_on_c, 0, 85, 0
2, 425470, Note_on_c, 0, 88, 0
2, 428160, Note_on_c, 0, 78, 64
2, 428160, Note_on_c, 0, 74, 64
2, 428640, Note_on_c, 0, 74, 0
2, 428640, Note_on_c, 0, 78, 0
2, 428640, Note_on_c, 0, 79, 64
2, 428640, Note_on_c, 0, 76, 64
2, 429120, Note_on_c, 0, 76, 0
2, 429120, Note_on_c, 0, 79, 0
2, 429120, Note_on_c, 0, 81, 64
2, 429120, Note_on_c, 0, 78, 64
2, 429500, Note_on_c, 0, 78, 0
2, 429500, Note_on_c, 0, 81, 0
2, 430080, Note_on_c, 0, 83, 64
2, 430080, Note_on_c, 0, 79, 64
2, 430560, Note_on_c, 0, 79, 0
2, 430560, Note_on_c, 0, 83, 0
2, 430560, Note_on_c, 0, 85, 64
2, 430560, Note_on_c, 0, 81, 64
2, 431040, Note_on_c, 0, 81, 0
2, 431040, Note_on_c, 0, 85, 0
2, 431040, Note_on_c, 0, 86, 64
2, 431040, Note_on_c, 0, 83, 64
2, 431520, Note_on_c, 0, 83, 0
2, 431520, Note_on_c, 0, 86, 0
2, 431520, Note_on_c, 0, 79, 64
2, 431520, Note_on_c, 0, 76, 64
2, 431900, Note_on_c, 0, 76, 0
2, 431900, Note_on_c, 0, 79, 0
2, 432000, Note_on_c, 0, 78, 64
2, 432000, Note_on_c, 0, 74, 64
2, 432480, Note_on_c, 0, 74, 0
2, 432480, Note_on_c, 0, 78, 0
2, 432480, Note_on_c, 0, 79, 64
2, 432480, Note_on_c, 0, 76, 64
2, 432960, Note_on_c, 0, 76, 0
2, 432960, Note_on_c, 0, 79, 0
2, 432960, Note_on_c, 0, 81, 64
2, 432960, Note_on_c, 0, 78, 64
2, 433340, Note_on_c, 0, 78, 0
2, 433340, Note_on_c, 0, 81, 0
2, 433920, Note_on_c, 0, 83, 64
2, 433920, Note_on_c, 0, 79, 64
2, 434400, Note_on_c, 0, 79, 0
2, 434400, Note_on_c, 0, 83, 0
2, 434400, Note_on_c, 0, 85, 64
2, 434400, Note_on_c, 0, 81, 64
2, 434880, Note_on_c, 0, 81, 0
2, 434880, Note_on_c, 0, 85, 0
2, 434880, Note_on_c, 0, 86, 64
2, 434880, Note_on_c, 0, 83, 64
2, 435360, Note_on_c, 0, 83, 0
2, 435360, Note_on_c, 0, 86, 0
2, 435360, Note_on_c, 0, 79, 64
2, 435360, Note_on_c, 0, 76, 64
2, 435740, Note_on_c, 0, 76, 0
2, 435740, Note_on_c, 0, 79, 0
2, 435840, Note_on_c, 0, 78, 64
2, 435840, Note_on_c, 0, 74, 64
2, 436320, Note_on_c, 0, 74, 0
2, 436320, Note_on_c, 0, 78, 0
2, 436320, Note_on_c, 0, 79, 64
2, 436320, Note_on_c, 0, 76, 64
2, 436800, Note_on_c, 0, 76, 0
2, 436800, Note_on_c, 0, 79, 0
2, 436800, Note_on_c, 0, 81, 64
2, 436800, Note_on_c, 0, 78, 64
2, 437180, Note_on_c, 0, 78, 0
2, 437180, Note_on_c, 0, 81, 0
2, 437760, Note_on_c, 0, 88, 96
2, 437760, Note_on_c, 0, 85, 96
2, 439290, Note_on_c, 0, 85, 0
2, 439290, Note_on_c, 0, 88, 0
2, 439680, Note_on_c, 0, 89, 96
2, 439680, Note_on_c, 0, 86, 96
2, 441210, Note_on_c, 0, 86, 0
2, 441210, Note_on_c, 0, 89, 0
2, 441600, Note_on_c, 0, 88, 96
2, 441600, Note_on_c, 0, 85, 96
2, 443130, Note_on_c, 0, 85, 0
2, 443130, Note_on_c, 0, 88, 0
2, 443520, Note_on_c, 0, 89, 96
2, 443520, Note_on_c, 0, 86, 96
2, 445050, Note_on_c, 0, 86, 0
2, 445050, Note_on_c, 0, 89, 0
2, 445440, Note_on_c, 0, 88, 96
2, 445440, Note_on_c, 0, 85, 96
2, 446970, Note_on_c, 0, 85, 0
2, 446970, Note_on_c, 0, 88, 0
2, 447360, Note_on_c, 0, 89, 96
2, 447360, Note_on_c, 0, 86, 96
2, 448890, Note_on_c, 0, 86, 0
2, 448890, Note_on_c, 0, 89, 0
2, 449280, Note_on_c, 0, 88, 96
2, 449280, Note_on_c, 0, 85, 96
2, 449660, Note_on_c, 0, 85, 0
2, 449660, Note_on_c, 0, 88, 0
2, 449760, Note_on_c, 0, 89, 96
2, 449760, Note_on_c, 0, 86, 96
2, 450140, Note_on_c, 0, 86, 0
2, 450140, Note_on_c, 0, 89, 0
2, 450240, Note_on_c, 0, 88, 96
2, 450240, Note_on_c, 0, 85, 96
2, 450620, Note_on_c, 0, 85, 0
2, 450620, Note_on_c, 0, 88, 0
2, 450720, Note_on_c, 0, 89, 96
2, 450720, Note_on_c, 0, 86, 96
2, 451100, Note_on_c, 0, 86, 0
2, 451100, Note_on_c, 0, 89, 0
2, 451200, Note_on_c, 0, 88, 96
2, 451200, Note_on_c, 0, 85, 96
2, 451580, Note_on_c, 0, 85, 0
2, 451580, Note_on_c, 0, 88, 0
2, 451680, Note_on_c, 0, 89, 96
2, 451680, Note_on_c, 0, 86, 96
2, 452060, Note_on_c, 0, 86, 0
2, 452060, Note_on_c, 0, 89, 0
2, 452160, Note_on_c, 0, 88, 96
2, 452160, Note_on_c, 0, 85, 96
2, 452540, Note_on_c, 0, 85, 0
2, 452540, Note_on_c, 0, 88, 0
2, 452640, Note_on_c, 0, 89, 96
2, 452640, Note_on_c, 0, 86, 96
2, 453020, Note_on_c, 0, 86, 0
2, 453020, Note_on_c, 0, 89, 0
2, 453120, Note_on_c, 0, 88, 96
2, 453120, Note_on_c, 0, 85, 96
2, 453500, Note_on_c, 0, 85, 0
2, 453500, Note_on_c, 0, 88, 0
2, 454080, Note_on_c, 0, 81, 96
2, 454460, Note_on_c, 0, 81, 0
2, 454560, Note_on_c, 0, 81, 96
2, 454940, Note_on_c, 0, 81, 0
2, 455040, Note_on_c, 0, 81, 96
2, 455800, Note_on_c, 0, 81, 0
2, 456960, Note_on_c, 0, 79, 127
2, 458110, Note_on_c, 0, 79, 0
2, 458400, Note_on_c, 0, 78, 96
2, 458520, Note_on_c, 0, 78, 0
2, 458880, Note_on_c, 0, 76, 96
2, 459000, Note_on_c, 0, 76, 0
2, 459360, Note_on_c, 0, 74, 96
2, 459480, Note_on_c, 0, 74, 0
2, 459840, Note_on_c, 0, 73, 96
2, 459960, Note_on_c, 0, 73, 0
2, 464640, Note_on_c, 0, 91, 127
2, 465790, Note_on_c, 0, 91, 0
2, 466080, Note_on_c, 0, 90, 96
2, 466200, Note_on_c, 0, 90, 0
2, 466560, Note_on_c, 0, 88, 96
2, 466680, Note_on_c, 0, 88, 0
2, 467040, Note_on_c, 0, 86, 96
2, 467160, Note_on_c, 0, 86, 0
2, 467520, Note_on_c, 0, 85, 96
2, 467640, Note_on_c, 0, 85, 0
2, 474240, Note_on_c, 0, 91, 96
2, 474240, Note_on_c, 0, 79, 96
2, 475390, Note_on_c, 0, 79, 0
2, 475390, Note_on_c, 0, 91, 0
2, 475680, Note_on_c, 0, 90, 64
2, 475680, Note_on_c, 0, 78, 64
2, 475800, Note_on_c, 0, 78, 0
2, 475800, Note_on_c, 0, 90, 0
2, 476160, Note_on_c, 0, 88, 64
2, 476160, Note_on_c, 0, 76, 64
2, 476280, Note_on_c, 0, 76, 0
2, 476280, Note_on_c, 0, 88, 0
2, 476640, Note_on_c, 0, 86, 64
2, 476640, Note_on_c, 0, 74, 64
2, 476760, Note_on_c, 0, 74, 0
2, 476760, Note_on_c, 0, 86, 0
2, 477120, Note_on_c, 0, 85, 64
2, 477120, Note_on_c, 0, 73, 64
2, 477240, Note_on_c, 0, 73, 0
2, 477240, Note_on_c, 0, 85, 0
2, 478080, Note_on_c, 0, 91, 96
2, 478080, Note_on_c, 0, 79, 96
2, 479230, Note_on_c, 0, 79, 0
2, 479230, Note_on_c, 0, 91, 0
2, 479520, Note_on_c, 0, 89, 64
2, 479520, Note_on_c, 0, 77, 64
2, 479640, Note_on_c, 0, 77, 0
2, 479640, Note_on_c, 0, 89, 0
2, 480000, Note_on_c, 0, 88, 64
2, 480000, Note_on_c, 0, 76, 64
2, 480120, Note_on_c, 0, 76, 0
2, 480120, Note_on_c, 0, 88, 0
2, 480480, Note_on_c, 0, 86, 64
2, 480480, Note_on_c, 0, 74, 64
2, 480600, Note_on_c, 0, 74, 0
2, 480600, Note_on_c, 0, 86, 0
2, 480960, Note_on_c, 0, 85, 64
2, 480960, Note_on_c, 0, 73, 64
2, 481080, Note_on_c, 0, 73, 0
2, 481080, Note_on_c, 0, 85, 0
2, 481920, Note_on_c, 0, 91, 96
2, 481920, Note_on_c, 0, 79, 96
2, 483070, Note_on_c, 0, 79, 0
2, 483070, Note_on_c, 0, 91, 0
2, 483360, Note_on_c, 0, 89, 64
2, 483360, Note_on_c, 0, 77, 64
2, 483480, Note_on_c, 0, 77, 0
2, 483480, Note_on_c, 0, 89, 0
2, 483840, Note_on_c, 0, 88, 64
2, 483840, Note_on_c, 0, 76, 64
2, 483960, Note_on_c, 0, 76, 0
2, 483960, Note_on_c, 0, 88, 0
2, 484320, Note_on_c, 0, 86, 64
2, 484440, Note_on_c, 0, 86, 0
2, 484800, Note_on_c, 0, 84, 64
2, 484920, Note_on_c, 0, 84, 0
2, 485760, Note_on_c, 0, 89, 64
2, 486910, Note_on_c, 0, 89, 0
2, 487200, Note_on_c, 0, 89, 64
2, 487580, Note_on_c, 0, 89, 0
2, 487680, Note_on_c, 0, 88, 64
2, 487800, Note_on_c, 0, 88, 0
2, 488160, Note_on_c, 0, 86, 64
2, 488280, Note_on_c, 0, 86, 0
2, 488640, Note_on_c, 0, 84, 64
2, 488760, Note_on_c, 0, 84, 0
2, 489600, Note_on_c, 0, 89, 64
2, 490750, Note_on_c, 0, 89, 0
2, 491040, Note_on_c, 0, 89, 64
2, 491160, Note_on_c, 0, 89, 0
2, 491520, Note_on_c, 0, 88, 64
2, 491640, Note_on_c, 0, 88, 0
2, 492000, Note_on_c, 0, 86, 64
2, 492120, Note_on_c, 0, 86, 0
2, 492480, Note_on_c, 0, 85, 64
2, 493240, Note_on_c, 0, 85, 0
2, 493440, Note_on_c, 0, 86, 64
2, 494590, Note_on_c, 0, 86, 0
2, 494880, Note_on_c, 0, 80, 64
2, 495000, Note_on_c, 0, 80, 0
2, 495360, Note_on_c, 0, 81, 64
2, 496890, Note_on_c, 0, 81, 0
2, 497280, Note_on_c, 0, 73, 64
2, 498810, Note_on_c, 0, 73, 0
2, 499200, Note_on_c, 0, 86, 96
2, 499200, Note_on_c, 0, 74, 96
2, 500730, Note_on_c, 0, 74, 0
2, 501120, Note_on_c, 0, 81, 96
2, 502650, Note_on_c, 0, 81, 0
2, 503040, Note_on_c, 0, 83, 96
2, 506490, Note_on_c, 0, 83, 0
2, 506880, Note_on_c, 0, 81, 96
2, 508990, Note_on_c, 0, 81, 0
2, 509040, Note_on_c, 0, 78, 96
2, 509180, Note_on_c, 0, 86, 0
2, 509230, Note_on_c, 0, 78, 0
2, 509280, Note_on_c, 0, 88, 96
2, 509280, Note_on_c, 0, 79, 96
2, 509470, Note_on_c, 0, 79, 0
2, 509470, Note_on_c, 0, 88, 0
2, 509520, Note_on_c, 0, 90, 96
2, 509520, Note_on_c, 0, 81, 96
2, 509710, Note_on_c, 0, 81, 0
2, 509710, Note_on_c, 0, 90, 0
2, 509760, Note_on_c, 0, 90, 96
2, 509760, Note_on_c, 0, 81, 96
2, 510000, Note_on_c, 0, 81, 0
2, 510000, Note_on_c, 0, 90, 0
2, 510000, Note_on_c, 0, 88, 96
2, 510000, Note_on_c, 0, 79, 96
2, 510240, Note_on_c, 0, 79, 0
2, 510240, Note_on_c, 0, 88, 0
2, 510240, Note_on_c, 0, 86, 96
2, 510240, Note_on_c, 0, 78, 96
2, 510300, Note_on_c, 0, 78, 0
2, 510300, Note_on_c, 0, 86, 0
2, 510480, Note_on_c, 0, 85, 96
2, 510480, Note_on_c, 0, 76, 96
2, 510540, Note_on_c, 0, 76, 0
2, 510540, Note_on_c, 0, 85, 0
2, 510720, Note_on_c, 0, 86, 96
2, 510720, Note_on_c, 0, 78, 96
2, 512250, Note_on_c, 0, 78, 0
2, 512640, Note_on_c, 0, 81, 96
2, 514170, Note_on_c, 0, 81, 0
2, 514560, Note_on_c, 0, 83, 96
2, 518010, Note_on_c, 0, 83, 0
2, 518400, Note_on_c, 0, 81, 96
2, 520510, Note_on_c, 0, 81, 0
2, 520560, Note_on_c, 0, 78, 96
2, 520700, Note_on_c, 0, 86, 0
2, 520750, Note_on_c, 0, 78, 0
2, 520800, Note_on_c, 0, 88, 96
2, 520800, Note_on_c, 0, 79, 96
2, 520990, Note_on_c, 0, 79, 0
2, 520990, Note_on_c, 0, 88, 0
2, 521040, Note_on_c, 0, 90, 96
2, 521040, Note_on_c, 0, 81, 96
2, 521230, Note_on_c, 0, 81, 0
2, 521230, Note_on_c, 0, 90, 0
2, 521280, Note_on_c, 0, 90, 96
2, 521280, Note_on_c, 0, 81, 96
2, 521520, Note_on_c, 0, 81, 0
2, 521520, Note_on_c, 0, 90, 0
2, 521520, Note_on_c, 0, 88, 96
2, 521520, Note_on_c, 0, 79, 96
2, 521760, Note_on_c, 0, 79, 0
2, 521760, Note_on_c, 0, 88, 0
2, 521760, Note_on_c, 0, 86, 96
2, 521760, Note_on_c, 0, 78, 96
2, 521820, Note_on_c, 0, 78, 0
2, 521820, Note_on_c, 0, 86, 0
2, 522000, Note_on_c, 0, 85, 96
2, 522000, Note_on_c, 0, 76, 96
2, 522060, Note_on_c, 0, 76, 0
2, 522060, Note_on_c, 0, 85, 0
2, 522240, Note_on_c, 0, 86, 96
2, 522240, Note_on_c, 0, 74, 96
2, 522620, Note_on_c, 0, 74, 0
2, 522620, Note_on_c, 0, 86, 0
2, 523680, Note_on_c, 0, 85, 96
2, 523680, Note_on_c, 0, 79, 96
2, 524160, Note_on_c, 0, 79, 0
2, 524160, Note_on_c, 0, 85, 0
2, 524160, Note_on_c, 0, 86, 96
2, 524160, Note_on_c, 0, 78, 96
2, 524540, Note_on_c, 0, 78, 0
2, 524540, Note_on_c, 0, 86, 0
2, 525600, Note_on_c, 0, 85, 96
2, 525600, Note_on_c, 0, 79, 96
2, 526080, Note_on_c, 0, 79, 0
2, 526080, Note_on_c, 0, 85, 0
2, 526080, Note_on_c, 0, 86, 96
2, 526080, Note_on_c, 0, 78, 96
2, 526460, Note_on_c, 0, 78, 0
2, 526460, Note_on_c, 0, 86, 0
2, 527520, Note_on_c, 0, 85, 96
2, 527520, Note_on_c, 0, 79, 96
2, 528000, Note_on_c, 0, 79, 0
2, 528000, Note_on_c, 0, 85, 0
2, 528000, Note_on_c, 0, 86, 96
2, 528000, Note_on_c, 0, 78, 96
2, 528380, Note_on_c, 0, 78, 0
2, 528380, Note_on_c, 0, 86, 0
2, 529440, Note_on_c, 0, 85, 96
2, 529440, Note_on_c, 0, 79, 96
2, 529920, Note_on_c, 0, 79, 0
2, 529920, Note_on_c, 0, 85, 0
2, 529920, Note_on_c, 0, 78, 96
2, 529920, Note_on_c, 0, 86, 96
2, 530300, Note_on_c, 0, 86, 0
2, 530304, Note_on_c, 0, 78, 0
2, 530400, Note_on_c, 0, 78, 96
2, 530590, Note_on_c, 0, 78, 0
2, 530640, Note_on_c, 0, 78, 96
2, 530830, Note_on_c, 0, 78, 0
2, 530880, Note_on_c, 0, 78, 96
2, 531260, Note_on_c, 0, 78, 0
2, 531360, Note_on_c, 0, 81, 96
2, 531550, Note_on_c, 0, 81, 0
2, 531600, Note_on_c, 0, 81, 96
2, 531790, Note_on_c, 0, 81, 0
2, 531840, Note_on_c, 0, 81, 96
2, 532220, Note_on_c, 0, 81, 0
2, 532320, Note_on_c, 0, 84, 96
2, 532510, Note_on_c, 0, 84, 0
2, 532560, Note_on_c, 0, 84, 96
2, 532750, Note_on_c, 0, 84, 0
2, 532800, Note_on_c, 0, 84, 96
2, 533180, Note_on_c, 0, 84, 0
2, 533280, Note_on_c, 0, 84, 96
2, 533660, Note_on_c, 0, 84, 0
2, 533760, Note_on_c, 0, 84, 96
2, 534910, Note_on_c, 0, 84, 0
2, 535200, Note_on_c, 0, 83, 96
2, 535320, Note_on_c, 0, 83, 0
2, 535680, Note_on_c, 0, 81, 96
2, 535800, Note_on_c, 0, 81, 0
2, 536160, Note_on_c, 0, 79, 96
2, 536280, Note_on_c, 0, 79, 0
2, 536640, Note_on_c, 0, 78, 96
2, 536760, Note_on_c, 0, 78, 0
2, 537600, Note_on_c, 0, 86, 96
2, 538750, Note_on_c, 0, 86, 0
2, 539040, Note_on_c, 0, 84, 96
2, 539160, Note_on_c, 0, 84, 0
2, 539520, Note_on_c, 0, 83, 96
2, 539640, Note_on_c, 0, 83, 0
2, 540000, Note_on_c, 0, 81, 96
2, 540120, Note_on_c, 0, 81, 0
2, 540480, Note_on_c, 0, 79, 96
2, 540600, Note_on_c, 0, 79, 0
2, 553920, Note_on_c, 0, 88, 64
2, 554880, Note_on_c, 0, 88, 0
2, 554880, Note_on_c, 0, 89, 64
2, 555840, Note_on_c, 0, 89, 0
2, 555840, Note_on_c, 0, 83, 64
2, 556600, Note_on_c, 0, 83, 0
2, 556800, Note_on_c, 0, 84, 64
2, 562170, Note_on_c, 0, 84, 0
2, 562170, End_track
3, 0, Start_track
3, 0, MIDI_port, 0
3, 0, Title_t, "Oboe I, II                          "
3, 0, Program_c, 1, 68
3, 0, Control_c, 1, 7, 70
3, 0, Control_c, 1, 10, 30
3, 0, Control_c, 1, 121, 0
3, 360, Control_c, 1, 101, 0
3, 360, Control_c, 1, 100, 0
3, 360, Control_c, 1, 6, 12
3, 360, Control_c, 1, 38, 0
3, 480, Control_c, 1, 5, 0
3, 600, Control_c, 1, 65, 0
3, 720, Control_c, 1, 67, 0
3, 960, Pitch_bend_c, 1, 8192
3, 1080, Control_c, 1, 64, 0
3, 1200, Control_c, 1, 11, 127
3, 1320, Control_c, 1, 1, 0
3, 1560, Control_c, 1, 91, 100
3, 1680, Control_c, 1, 93, 10
3, 1920, Note_on_c, 1, 77, 96
3, 1920, Note_on_c, 1, 74, 96
3, 4220, Note_on_c, 1, 74, 0
3, 4220, Note_on_c, 1, 77, 0
3, 5760, Note_on_c, 1, 76, 96
3, 5760, Note_on_c, 1, 69, 96
3, 8060, Note_on_c, 1, 69, 0
3, 8060, Note_on_c, 1, 76, 0
3, 13440, Note_on_c, 1, 81, 64
3, 14970, Note_on_c, 1, 81, 0
3, 15360, Note_on_c, 1, 69, 64
3, 16890, Note_on_c, 1, 69, 0
3, 17280, Note_on_c, 1, 74, 64
3, 18810, Note_on_c, 1, 74, 0
3, 19200, Note_on_c, 1, 62, 64
3, 20730, Note_on_c, 1, 62, 0
3, 21120, Note_on_c, 1, 69, 64
3, 22270, Note_on_c, 1, 69, 0
3, 29280, Note_on_c, 1, 72, 101
3, 29280, Note_on_c, 1, 69, 101
3, 29760, Note_on_c, 1, 69, 0
3, 29760, Note_on_c, 1, 72, 0
3, 29760, Note_on_c, 1, 70, 64
3, 29760, Note_on_c, 1, 67, 64
3, 29950, Note_on_c, 1, 67, 0
3, 29950, Note_on_c, 1, 70, 0
3, 30240, Note_on_c, 1, 72, 101
3, 30240, Note_on_c, 1, 69, 101
3, 30720, Note_on_c, 1, 69, 0
3, 30720, Note_on_c, 1, 72, 0
3, 30720, Note_on_c, 1, 70, 64
3, 30720, Note_on_c, 1, 67, 64
3, 30910, Note_on_c, 1, 67, 0
3, 30910, Note_on_c, 1, 70, 0
3, 31200, Note_on_c, 1, 72, 101
3, 31200, Note_on_c, 1, 69, 101
3, 31680, Note_on_c, 1, 69, 0
3, 31680, Note_on_c, 1, 72, 0
3, 31680, Note_on_c, 1, 70, 64
3, 31680, Note_on_c, 1, 67, 64
3, 31870, Note_on_c, 1, 67, 0
3, 31870, Note_on_c, 1, 70, 0
3, 32160, Note_on_c, 1, 72, 101
3, 32160, Note_on_c, 1, 69, 101
3, 32640, Note_on_c, 1, 69, 0
3, 32640, Note_on_c, 1, 72, 0
3, 32640, Note_on_c, 1, 70, 64
3, 32640, Note_on_c, 1, 67, 64
3, 33020, Note_on_c, 1, 67, 0
3, 33020, Note_on_c, 1, 70, 0
3, 34560, Note_on_c, 1, 81, 96
3, 34560, Note_on_c, 1, 79, 96
3, 36480, Note_on_c, 1, 79, 0
3, 36480, Note_on_c, 1, 81, 0
3, 36480, Note_on_c, 1, 81, 64
3, 36480, Note_on_c, 1, 77, 64
3, 36860, Note_on_c, 1, 77, 0
3, 36860, Note_on_c, 1, 81, 0
3, 38400, Note_on_c, 1, 77, 96
3, 38400, Note_on_c, 1, 74, 96
3, 40320, Note_on_c, 1, 74, 0
3, 40320, Note_on_c, 1, 77, 0
3, 40320, Note_on_c, 1, 79, 96
3, 40320, Note_on_c, 1, 75, 96
3, 42240, Note_on_c, 1, 75, 0
3, 42240, Note_on_c, 1, 79, 0
3, 42240, Note_on_c, 1, 77, 64
3, 42240, Note_on_c, 1, 74, 64
3, 43200, Note_on_c, 1, 74, 0
3, 43200, Note_on_c, 1, 77, 0
3, 43200, Note_on_c, 1, 76, 64
3, 43200, Note_on_c, 1, 73, 64
3, 43960, Note_on_c, 1, 73, 0
3, 43960, Note_on_c, 1, 76, 0
3, 44160, Note_on_c, 1, 74, 64
3, 45690, Note_on_c, 1, 74, 0
3, 46080, Note_on_c, 1, 75, 64
3, 46840, Note_on_c, 1, 75, 0
3, 47040, Note_on_c, 1, 76, 64
3, 47800, Note_on_c, 1, 76, 0
3, 48000, Note_on_c, 1, 77, 64
3, 48760, Note_on_c, 1, 77, 0
3, 48960, Note_on_c, 1, 78, 64
3, 49720, Note_on_c, 1, 78, 0
3, 49920, Note_on_c, 1, 79, 64
3, 51450, Note_on_c, 1, 79, 0
3, 51840, Note_on_c, 1, 79, 96
3, 51840, Note_on_c, 1, 75, 96
3, 53370, Note_on_c, 1, 75, 0
3, 53370, Note_on_c, 1, 79, 0
3, 53760, Note_on_c, 1, 77, 96
3, 53760, Note_on_c, 1, 80, 96
3, 55290, Note_on_c, 1, 80, 0
3, 55680, Note_on_c, 1, 81, 64
3, 56440, Note_on_c, 1, 81, 0
3, 56440, Note_on_c, 1, 77, 0
3, 56640, Note_on_c, 1, 77, 64
3, 56640, Note_on_c, 1, 74, 64
3, 57600, Note_on_c, 1, 74, 0
3, 57600, Note_on_c, 1, 77, 0
3, 57600, Note_on_c, 1, 76, 64
3, 57600, Note_on_c, 1, 74, 64
3, 58360, Note_on_c, 1, 74, 0
3, 58560, Note_on_c, 1, 73, 64
3, 59130, Note_on_c, 1, 76, 0
3, 59320, Note_on_c, 1, 73, 0
3, 59520, Note_on_c, 1, 74, 48
3, 59900, Note_on_c, 1, 74, 0
3, 72960, Note_on_c, 1, 74, 96
3, 72960, Note_on_c, 1, 69, 96
3, 73340, Note_on_c, 1, 69, 0
3, 73340, Note_on_c, 1, 74, 0
3, 73440, Note_on_c, 1, 74, 96
3, 73440, Note_on_c, 1, 69, 96
3, 73630, Note_on_c, 1, 69, 0
3, 73630, Note_on_c, 1, 74, 0
3, 73680, Note_on_c, 1, 74, 96
3, 73680, Note_on_c, 1, 69, 96
3, 73870, Note_on_c, 1, 69, 0
3, 73870, Note_on_c, 1, 74, 0
3, 73920, Note_on_c, 1, 76, 96
3, 73920, Note_on_c, 1, 73, 96
3, 74300, Note_on_c, 1, 73, 0
3, 74300, Note_on_c, 1, 76, 0
3, 74400, Note_on_c, 1, 76, 96
3, 74400, Note_on_c, 1, 73, 96
3, 74590, Note_on_c, 1, 73, 0
3, 74590, Note_on_c, 1, 76, 0
3, 74640, Note_on_c, 1, 76, 96
3, 74640, Note_on_c, 1, 73, 96
3, 74830, Note_on_c, 1, 73, 0
3, 74830, Note_on_c, 1, 76, 0
3, 74880, Note_on_c, 1, 78, 96
3, 74880, Note_on_c, 1, 74, 96
3, 75260, Note_on_c, 1, 74, 0
3, 75260, Note_on_c, 1, 78, 0
3, 75360, Note_on_c, 1, 78, 96
3, 75360, Note_on_c, 1, 74, 96
3, 75550, Note_on_c, 1, 74, 0
3, 75550, Note_on_c, 1, 78, 0
3, 75600, Note_on_c, 1, 78, 96
3, 75600, Note_on_c, 1, 74, 96
3, 75790, Note_on_c, 1, 74, 0
3, 75790, Note_on_c, 1, 78, 0
3, 75840, Note_on_c, 1, 81, 96
3, 75840, Note_on_c, 1, 73, 96
3, 76220, Note_on_c, 1, 73, 0
3, 76220, Note_on_c, 1, 81, 0
3, 89760, Note_on_c, 1, 76, 64
3, 89760, Note_on_c, 1, 73, 64
3, 90240, Note_on_c, 1, 73, 0
3, 90240, Note_on_c, 1, 76, 0
3, 90240, Note_on_c, 1, 74, 64
3, 90620, Note_on_c, 1, 74, 0
3, 91680, Note_on_c, 1, 76, 64
3, 91680, Note_on_c, 1, 73, 64
3, 92160, Note_on_c, 1, 73, 0
3, 92160, Note_on_c, 1, 76, 0
3, 92160, Note_on_c, 1, 74, 64
3, 92540, Note_on_c, 1, 74, 0
3, 93600, Note_on_c, 1, 76, 96
3, 93600, Note_on_c, 1, 73, 96
3, 94080, Note_on_c, 1, 73, 0
3, 94080, Note_on_c, 1, 76, 0
3, 94080, Note_on_c, 1, 74, 96
3, 94460, Note_on_c, 1, 74, 0
3, 95520, Note_on_c, 1, 76, 96
3, 95520, Note_on_c, 1, 73, 96
3, 96000, Note_on_c, 1, 73, 0
3, 96000, Note_on_c, 1, 76, 0
3, 96000, Note_on_c, 1, 74, 96
3, 96380, Note_on_c, 1, 74, 0
3, 96480, Note_on_c, 1, 78, 96
3, 96670, Note_on_c, 1, 78, 0
3, 96720, Note_on_c, 1, 78, 96
3, 96910, Note_on_c, 1, 78, 0
3, 96960, Note_on_c, 1, 78, 96
3, 97340, Note_on_c, 1, 78, 0
3, 97440, Note_on_c, 1, 81, 96
3, 97630, Note_on_c, 1, 81, 0
3, 97680, Note_on_c, 1, 81, 96
3, 97870, Note_on_c, 1, 81, 0
3, 97920, Note_on_c, 1, 81, 96
3, 98300, Note_on_c, 1, 81, 0
3, 98400, Note_on_c, 1, 74, 96
3, 98590, Note_on_c, 1, 74, 0
3, 98640, Note_on_c, 1, 74, 96
3, 98830, Note_on_c, 1, 74, 0
3, 98880, Note_on_c, 1, 74, 96
3, 99070, Note_on_c, 1, 74, 0
3, 99120, Note_on_c, 1, 81, 96
3, 99310, Note_on_c, 1, 81, 0
3, 99360, Note_on_c, 1, 78, 96
3, 99550, Note_on_c, 1, 78, 0
3, 99600, Note_on_c, 1, 74, 96
3, 99790, Note_on_c, 1, 74, 0
3, 99840, Note_on_c, 1, 81, 96
3, 99840, Note_on_c, 1, 69, 96
3, 100220, Note_on_c, 1, 69, 0
3, 100220, Note_on_c, 1, 81, 0
3, 100320, Note_on_c, 1, 76, 96
3, 100320, Note_on_c, 1, 73, 96
3, 100700, Note_on_c, 1, 73, 0
3, 100700, Note_on_c, 1, 76, 0
3, 100800, Note_on_c, 1, 78, 96
3, 100800, Note_on_c, 1, 74, 96
3, 101180, Note_on_c, 1, 74, 0
3, 101180, Note_on_c, 1, 78, 0
3, 101280, Note_on_c, 1, 78, 96
3, 101280, Note_on_c, 1, 74, 96
3, 101660, Note_on_c, 1, 74, 0
3, 101660, Note_on_c, 1, 78, 0
3, 101760, Note_on_c, 1, 76, 96
3, 101760, Note_on_c, 1, 73, 96
3, 102140, Note_on_c, 1, 73, 0
3, 102140, Note_on_c, 1, 76, 0
3, 102240, Note_on_c, 1, 76, 96
3, 102240, Note_on_c, 1, 73, 96
3, 102620, Note_on_c, 1, 73, 0
3, 102620, Note_on_c, 1, 76, 0
3, 102720, Note_on_c, 1, 78, 96
3, 102720, Note_on_c, 1, 74, 96
3, 103100, Note_on_c, 1, 74, 0
3, 103100, Note_on_c, 1, 78, 0
3, 103200, Note_on_c, 1, 78, 96
3, 103200, Note_on_c, 1, 74, 96
3, 103580, Note_on_c, 1, 74, 0
3, 103580, Note_on_c, 1, 78, 0
3, 103680, Note_on_c, 1, 76, 96
3, 103680, Note_on_c, 1, 73, 96
3, 104060, Note_on_c, 1, 73, 0
3, 104060, Note_on_c, 1, 76, 0
3, 104160, Note_on_c, 1, 78, 96
3, 104160, Note_on_c, 1, 74, 96
3, 104540, Note_on_c, 1, 74, 0
3, 104540, Note_on_c, 1, 78, 0
3, 104640, Note_on_c, 1, 76, 96
3, 104640, Note_on_c, 1, 73, 96
3, 105020, Note_on_c, 1, 73, 0
3, 105020, Note_on_c, 1, 76, 0
3, 105120, Note_on_c, 1, 78, 96
3, 105120, Note_on_c, 1, 74, 96
3, 105500, Note_on_c, 1, 74, 0
3, 105500, Note_on_c, 1, 78, 0
3, 105600, Note_on_c, 1, 76, 96
3, 105600, Note_on_c, 1, 73, 96
3, 105980, Note_on_c, 1, 73, 0
3, 105980, Note_on_c, 1, 76, 0
3, 106080, Note_on_c, 1, 69, 96
3, 106270, Note_on_c, 1, 69, 0
3, 106320, Note_on_c, 1, 69, 96
3, 106510, Note_on_c, 1, 69, 0
3, 106560, Note_on_c, 1, 69, 96
3, 106940, Note_on_c, 1, 69, 0
3, 107520, Note_on_c, 1, 76, 96
3, 107520, Note_on_c, 1, 73, 96
3, 108670, Note_on_c, 1, 73, 0
3, 108670, Note_on_c, 1, 76, 0
3, 111360, Note_on_c, 1, 78, 96
3, 111360, Note_on_c, 1, 74, 96
3, 112510, Note_on_c, 1, 74, 0
3, 112510, Note_on_c, 1, 78, 0
3, 115200, Note_on_c, 1, 80, 96
3, 115200, Note_on_c, 1, 74, 96
3, 116350, Note_on_c, 1, 74, 0
3, 116350, Note_on_c, 1, 80, 0
3, 119040, Note_on_c, 1, 73, 64
3, 119040, Note_on_c, 1, 69, 64
3, 119520, Note_on_c, 1, 69, 0
3, 119520, Note_on_c, 1, 73, 0
3, 119520, Note_on_c, 1, 74, 64
3, 119520, Note_on_c, 1, 71, 64
3, 120000, Note_on_c, 1, 71, 0
3, 120000, Note_on_c, 1, 74, 0
3, 120000, Note_on_c, 1, 76, 64
3, 120000, Note_on_c, 1, 73, 64
3, 120380, Note_on_c, 1, 73, 0
3, 120380, Note_on_c, 1, 76, 0
3, 120960, Note_on_c, 1, 78, 64
3, 120960, Note_on_c, 1, 74, 64
3, 121440, Note_on_c, 1, 74, 0
3, 121440, Note_on_c, 1, 78, 0
3, 121440, Note_on_c, 1, 80, 64
3, 121440, Note_on_c, 1, 76, 64
3, 121920, Note_on_c, 1, 76, 0
3, 121920, Note_on_c, 1, 80, 0
3, 121920, Note_on_c, 1, 81, 64
3, 121920, Note_on_c, 1, 78, 64
3, 122400, Note_on_c, 1, 78, 0
3, 122400, Note_on_c, 1, 81, 0
3, 122400, Note_on_c, 1, 74, 64
3, 122400, Note_on_c, 1, 71, 64
3, 122780, Note_on_c, 1, 71, 0
3, 122780, Note_on_c, 1, 74, 0
3, 122880, Note_on_c, 1, 73, 64
3, 122880, Note_on_c, 1, 69, 64
3, 123360, Note_on_c, 1, 69, 0
3, 123360, Note_on_c, 1, 73, 0
3, 123360, Note_on_c, 1, 74, 64
3, 123360, Note_on_c, 1, 71, 64
3, 123840, Note_on_c, 1, 71, 0
3, 123840, Note_on_c, 1, 74, 0
3, 123840, Note_on_c, 1, 76, 64
3, 123840, Note_on_c, 1, 73, 64
3, 124220, Note_on_c, 1, 73, 0
3, 124220, Note_on_c, 1, 76, 0
3, 124800, Note_on_c, 1, 78, 64
3, 124800, Note_on_c, 1, 74, 64
3, 125280, Note_on_c, 1, 74, 0
3, 125280, Note_on_c, 1, 78, 0
3, 125280, Note_on_c, 1, 80, 64
3, 125280, Note_on_c, 1, 76, 64
3, 125760, Note_on_c, 1, 76, 0
3, 125760, Note_on_c, 1, 80, 0
3, 125760, Note_on_c, 1, 81, 64
3, 125760, Note_on_c, 1, 78, 64
3, 126240, Note_on_c, 1, 78, 0
3, 126240, Note_on_c, 1, 81, 0
3, 126240, Note_on_c, 1, 74, 64
3, 126240, Note_on_c, 1, 71, 64
3, 126620, Note_on_c, 1, 71, 0
3, 126620, Note_on_c, 1, 74, 0
3, 126720, Note_on_c, 1, 73, 64
3, 126720, Note_on_c, 1, 69, 64
3, 127200, Note_on_c, 1, 69, 0
3, 127200, Note_on_c, 1, 73, 0
3, 127200, Note_on_c, 1, 74, 64
3, 127200, Note_on_c, 1, 71, 64
3, 127680, Note_on_c, 1, 71, 0
3, 127680, Note_on_c, 1, 74, 0
3, 127680, Note_on_c, 1, 76, 64
3, 127680, Note_on_c, 1, 73, 64
3, 128060, Note_on_c, 1, 73, 0
3, 128060, Note_on_c, 1, 76, 0
3, 128640, Note_on_c, 1, 80, 96
3, 128640, Note_on_c, 1, 77, 96
3, 130170, Note_on_c, 1, 77, 0
3, 130170, Note_on_c, 1, 80, 0
3, 130560, Note_on_c, 1, 81, 96
3, 130560, Note_on_c, 1, 76, 96
3, 132090, Note_on_c, 1, 76, 0
3, 132090, Note_on_c, 1, 81, 0
3, 132480, Note_on_c, 1, 80, 96
3, 132480, Note_on_c, 1, 77, 96
3, 134010, Note_on_c, 1, 77, 0
3, 134010, Note_on_c, 1, 80, 0
3, 134400, Note_on_c, 1, 81, 96
3, 134400, Note_on_c, 1, 76, 96
3, 135930, Note_on_c, 1, 76, 0
3, 135930, Note_on_c, 1, 81, 0
3, 136320, Note_on_c, 1, 80, 96
3, 136320, Note_on_c, 1, 77, 96
3, 137850, Note_on_c, 1, 77, 0
3, 137850, Note_on_c, 1, 80, 0
3, 138240, Note_on_c, 1, 81, 96
3, 138240, Note_on_c, 1, 78, 96
3, 139770, Note_on_c, 1, 78, 0
3, 139770, Note_on_c, 1, 81, 0
3, 140160, Note_on_c, 1, 80, 96
3, 140160, Note_on_c, 1, 71, 96
3, 140540, Note_on_c, 1, 71, 0
3, 140540, Note_on_c, 1, 80, 0
3, 140640, Note_on_c, 1, 81, 96
3, 140640, Note_on_c, 1, 72, 96
3, 141020, Note_on_c, 1, 72, 0
3, 141020, Note_on_c, 1, 81, 0
3, 141120, Note_on_c, 1, 80, 96
3, 141120, Note_on_c, 1, 71, 96
3, 141500, Note_on_c, 1, 71, 0
3, 141500, Note_on_c, 1, 80, 0
3, 141600, Note_on_c, 1, 81, 96
3, 141600, Note_on_c, 1, 72, 96
3, 141980, Note_on_c, 1, 72, 0
3, 141980, Note_on_c, 1, 81, 0
3, 142080, Note_on_c, 1, 80, 96
3, 142080, Note_on_c, 1, 71, 96
3, 142460, Note_on_c, 1, 71, 0
3, 142460, Note_on_c, 1, 80, 0
3, 142560, Note_on_c, 1, 81, 96
3, 142560, Note_on_c, 1, 72, 96
3, 142940, Note_on_c, 1, 72, 0
3, 142940, Note_on_c, 1, 81, 0
3, 143040, Note_on_c, 1, 80, 96
3, 143040, Note_on_c, 1, 71, 96
3, 143420, Note_on_c, 1, 71, 0
3, 143420, Note_on_c, 1, 80, 0
3, 143520, Note_on_c, 1, 81, 96
3, 143520, Note_on_c, 1, 72, 96
3, 143900, Note_on_c, 1, 72, 0
3, 143900, Note_on_c, 1, 81, 0
3, 144000, Note_on_c, 1, 80, 96
3, 144000, Note_on_c, 1, 71, 96
3, 144380, Note_on_c, 1, 71, 0
3, 144380, Note_on_c, 1, 80, 0
3, 144960, Note_on_c, 1, 76, 96
3, 145340, Note_on_c, 1, 76, 0
3, 145440, Note_on_c, 1, 76, 96
3, 145820, Note_on_c, 1, 76, 0
3, 145920, Note_on_c, 1, 76, 96
3, 146680, Note_on_c, 1, 76, 0
3, 147840, Note_on_c, 1, 74, 101
3, 148990, Note_on_c, 1, 74, 0
3, 149280, Note_on_c, 1, 73, 96
3, 149400, Note_on_c, 1, 73, 0
3, 149760, Note_on_c, 1, 71, 96
3, 149880, Note_on_c, 1, 71, 0
3, 150240, Note_on_c, 1, 69, 96
3, 150360, Note_on_c, 1, 69, 0
3, 150720, Note_on_c, 1, 68, 96
3, 150840, Note_on_c, 1, 68, 0
3, 155520, Note_on_c, 1, 74, 101
3, 156670, Note_on_c, 1, 74, 0
3, 156960, Note_on_c, 1, 73, 96
3, 157080, Note_on_c, 1, 73, 0
3, 157440, Note_on_c, 1, 71, 96
3, 157560, Note_on_c, 1, 71, 0
3, 157920, Note_on_c, 1, 69, 96
3, 158040, Note_on_c, 1, 69, 0
3, 158400, Note_on_c, 1, 68, 96
3, 158520, Note_on_c, 1, 68, 0
3, 164160, Note_on_c, 1, 74, 96
3, 165500, Note_on_c, 1, 74, 0
3, 165600, Note_on_c, 1, 73, 64
3, 165720, Note_on_c, 1, 73, 0
3, 166080, Note_on_c, 1, 71, 64
3, 166200, Note_on_c, 1, 71, 0
3, 166560, Note_on_c, 1, 69, 64
3, 166680, Note_on_c, 1, 69, 0
3, 167040, Note_on_c, 1, 68, 64
3, 167160, Note_on_c, 1, 68, 0
3, 168000, Note_on_c, 1, 74, 96
3, 169340, Note_on_c, 1, 74, 0
3, 169440, Note_on_c, 1, 72, 64
3, 169560, Note_on_c, 1, 72, 0
3, 169920, Note_on_c, 1, 71, 64
3, 170040, Note_on_c, 1, 71, 0
3, 170400, Note_on_c, 1, 69, 64
3, 170520, Note_on_c, 1, 69, 0
3, 170880, Note_on_c, 1, 68, 64
3, 171000, Note_on_c, 1, 68, 0
3, 171840, Note_on_c, 1, 74, 96
3, 173180, Note_on_c, 1, 74, 0
3, 173280, Note_on_c, 1, 72, 64
3, 173400, Note_on_c, 1, 72, 0
3, 173760, Note_on_c, 1, 71, 64
3, 173880, Note_on_c, 1, 71, 0
3, 174240, Note_on_c, 1, 74, 64
3, 174360, Note_on_c, 1, 74, 0
3, 174720, Note_on_c, 1, 79, 64
3, 175870, Note_on_c, 1, 79, 0
3, 176160, Note_on_c, 1, 77, 64
3, 176280, Note_on_c, 1, 77, 0
3, 176640, Note_on_c, 1, 76, 64
3, 176760, Note_on_c, 1, 76, 0
3, 177120, Note_on_c, 1, 74, 64
3, 177240, Note_on_c, 1, 74, 0
3, 177600, Note_on_c, 1, 72, 64
3, 177720, Note_on_c, 1, 72, 0
3, 178560, Note_on_c, 1, 79, 64
3, 179710, Note_on_c, 1, 79, 0
3, 180000, Note_on_c, 1, 77, 64
3, 180120, Note_on_c, 1, 77, 0
3, 180480, Note_on_c, 1, 76, 64
3, 180600, Note_on_c, 1, 76, 0
3, 180960, Note_on_c, 1, 74, 64
3, 181080, Note_on_c, 1, 74, 0
3, 181440, Note_on_c, 1, 73, 64
3, 181560, Note_on_c, 1, 73, 0
3, 182400, Note_on_c, 1, 76, 64
3, 183550, Note_on_c, 1, 76, 0
3, 183840, Note_on_c, 1, 74, 64
3, 183960, Note_on_c, 1, 74, 0
3, 184320, Note_on_c, 1, 72, 64
3, 184440, Note_on_c, 1, 72, 0
3, 184800, Note_on_c, 1, 71, 64
3, 184920, Note_on_c, 1, 71, 0
3, 185280, Note_on_c, 1, 69, 64
3, 186040, Note_on_c, 1, 69, 0
3, 186240, Note_on_c, 1, 72, 64
3, 186240, Note_on_c, 1, 69, 64
3, 187770, Note_on_c, 1, 69, 0
3, 187770, Note_on_c, 1, 72, 0
3, 188160, Note_on_c, 1, 74, 64
3, 188160, Note_on_c, 1, 71, 64
3, 189690, Note_on_c, 1, 71, 0
3, 189690, Note_on_c, 1, 74, 0
3, 190080, Note_on_c, 1, 73, 96
3, 190080, Note_on_c, 1, 69, 96
3, 191610, Note_on_c, 1, 69, 0
3, 191610, Note_on_c, 1, 73, 0
3, 192000, Note_on_c, 1, 76, 96
3, 192000, Note_on_c, 1, 73, 96
3, 193530, Note_on_c, 1, 73, 0
3, 193530, Note_on_c, 1, 76, 0
3, 193920, Note_on_c, 1, 78, 96
3, 193920, Note_on_c, 1, 74, 96
3, 197370, Note_on_c, 1, 74, 0
3, 197370, Note_on_c, 1, 78, 0
3, 197760, Note_on_c, 1, 76, 96
3, 197760, Note_on_c, 1, 73, 96
3, 198520, Note_on_c, 1, 73, 0
3, 198520, Note_on_c, 1, 76, 0
3, 198720, Note_on_c, 1, 73, 96
3, 198720, Note_on_c, 1, 69, 96
3, 200060, Note_on_c, 1, 69, 0
3, 200060, Note_on_c, 1, 73, 0
3, 200160, Note_on_c, 1, 74, 96
3, 200160, Note_on_c, 1, 71, 96
3, 200350, Note_on_c, 1, 71, 0
3, 200350, Note_on_c, 1, 74, 0
3, 200400, Note_on_c, 1, 76, 96
3, 200400, Note_on_c, 1, 73, 96
3, 200590, Note_on_c, 1, 73, 0
3, 200590, Note_on_c, 1, 76, 0
3, 200640, Note_on_c, 1, 76, 96
3, 200640, Note_on_c, 1, 73, 96
3, 200880, Note_on_c, 1, 73, 0
3, 200880, Note_on_c, 1, 76, 0
3, 200880, Note_on_c, 1, 74, 96
3, 200880, Note_on_c, 1, 71, 96
3, 201070, Note_on_c, 1, 71, 0
3, 201070, Note_on_c, 1, 74, 0
3, 201120, Note_on_c, 1, 73, 96
3, 201120, Note_on_c, 1, 69, 96
3, 201180, Note_on_c, 1, 69, 0
3, 201180, Note_on_c, 1, 73, 0
3, 201360, Note_on_c, 1, 71, 96
3, 201360, Note_on_c, 1, 68, 96
3, 201420, Note_on_c, 1, 68, 0
3, 201420, Note_on_c, 1, 71, 0
3, 201600, Note_on_c, 1, 73, 96
3, 201600, Note_on_c, 1, 69, 96
3, 203130, Note_on_c, 1, 69, 0
3, 203130, Note_on_c, 1, 73, 0
3, 203520, Note_on_c, 1, 76, 96
3, 203520, Note_on_c, 1, 73, 96
3, 205050, Note_on_c, 1, 73, 0
3, 205050, Note_on_c, 1, 76, 0
3, 205440, Note_on_c, 1, 78, 96
3, 205440, Note_on_c, 1, 74, 96
3, 208890, Note_on_c, 1, 74, 0
3, 208890, Note_on_c, 1, 78, 0
3, 209280, Note_on_c, 1, 76, 96
3, 209280, Note_on_c, 1, 73, 96
3, 210040, Note_on_c, 1, 73, 0
3, 210040, Note_on_c, 1, 76, 0
3, 210240, Note_on_c, 1, 73, 96
3, 210240, Note_on_c, 1, 69, 96
3, 211580, Note_on_c, 1, 69, 0
3, 211580, Note_on_c, 1, 73, 0
3, 211680, Note_on_c, 1, 74, 96
3, 211680, Note_on_c, 1, 71, 96
3, 211870, Note_on_c, 1, 71, 0
3, 211870, Note_on_c, 1, 74, 0
3, 211920, Note_on_c, 1, 76, 96
3, 211920, Note_on_c, 1, 73, 96
3, 212110, Note_on_c, 1, 73, 0
3, 212110, Note_on_c, 1, 76, 0
3, 212160, Note_on_c, 1, 76, 96
3, 212160, Note_on_c, 1, 73, 96
3, 212400, Note_on_c, 1, 73, 0
3, 212400, Note_on_c, 1, 76, 0
3, 212400, Note_on_c, 1, 74, 96
3, 212400, Note_on_c, 1, 71, 96
3, 212590, Note_on_c, 1, 71, 0
3, 212590, Note_on_c, 1, 74, 0
3, 212640, Note_on_c, 1, 73, 96
3, 212640, Note_on_c, 1, 69, 96
3, 212700, Note_on_c, 1, 69, 0
3, 212700, Note_on_c, 1, 73, 0
3, 212880, Note_on_c, 1, 71, 96
3, 212880, Note_on_c, 1, 68, 96
3, 212940, Note_on_c, 1, 68, 0
3, 212940, Note_on_c, 1, 71, 0
3, 213120, Note_on_c, 1, 69, 96
3, 213500, Note_on_c, 1, 69, 0
3, 214560, Note_on_c, 1, 80, 96
3, 214560, Note_on_c, 1, 71, 96
3, 214940, Note_on_c, 1, 71, 0
3, 214940, Note_on_c, 1, 80, 0
3, 215040, Note_on_c, 1, 81, 96
3, 215040, Note_on_c, 1, 73, 96
3, 215420, Note_on_c, 1, 73, 0
3, 215420, Note_on_c, 1, 81, 0
3, 216480, Note_on_c, 1, 80, 96
3, 216480, Note_on_c, 1, 71, 96
3, 216860, Note_on_c, 1, 71, 0
3, 216860, Note_on_c, 1, 80, 0
3, 216960, Note_on_c, 1, 81, 96
3, 216960, Note_on_c, 1, 73, 96
3, 217340, Note_on_c, 1, 73, 0
3, 217340, Note_on_c, 1, 81, 0
3, 218400, Note_on_c, 1, 80, 96
3, 218400, Note_on_c, 1, 71, 96
3, 218780, Note_on_c, 1, 71, 0
3, 218780, Note_on_c, 1, 80, 0
3, 218880, Note_on_c, 1, 81, 96
3, 218880, Note_on_c, 1, 73, 96
3, 219260, Note_on_c, 1, 73, 0
3, 219260, Note_on_c, 1, 81, 0
3, 220320, Note_on_c, 1, 80, 96
3, 220320, Note_on_c, 1, 71, 96
3, 220700, Note_on_c, 1, 71, 0
3, 220700, Note_on_c, 1, 80, 0
3, 220800, Note_on_c, 1, 81, 96
3, 220800, Note_on_c, 1, 73, 96
3, 221180, Note_on_c, 1, 73, 0
3, 221180, Note_on_c, 1, 81, 0
3, 221280, Note_on_c, 1, 73, 96
3, 221470, Note_on_c, 1, 73, 0
3, 221520, Note_on_c, 1, 73, 96
3, 221710, Note_on_c, 1, 73, 0
3, 221760, Note_on_c, 1, 73, 96
3, 222140, Note_on_c, 1, 73, 0
3, 222240, Note_on_c, 1, 76, 96
3, 222430, Note_on_c, 1, 76, 0
3, 222480, Note_on_c, 1, 76, 96
3, 222670, Note_on_c, 1, 76, 0
3, 222720, Note_on_c, 1, 76, 96
3, 224250, Note_on_c, 1, 76, 0
3, 224640, Note_on_c, 1, 85, 96
3, 225790, Note_on_c, 1, 85, 0
3, 225840, Note_on_c, 1, 81, 96
3, 226030, Note_on_c, 1, 81, 0
3, 226080, Note_on_c, 1, 76, 96
3, 226270, Note_on_c, 1, 76, 0
3, 226320, Note_on_c, 1, 73, 96
3, 226510, Note_on_c, 1, 73, 0
3, 226560, Note_on_c, 1, 81, 96
3, 227710, Note_on_c, 1, 81, 0
3, 227760, Note_on_c, 1, 76, 96
3, 227950, Note_on_c, 1, 76, 0
3, 228000, Note_on_c, 1, 73, 96
3, 228190, Note_on_c, 1, 73, 0
3, 228240, Note_on_c, 1, 69, 96
3, 228430, Note_on_c, 1, 69, 0
3, 228480, Note_on_c, 1, 81, 96
3, 228480, Note_on_c, 1, 73, 96
3, 228860, Note_on_c, 1, 73, 0
3, 228860, Note_on_c, 1, 81, 0
3, 229440, Note_on_c, 1, 85, 96
3, 229440, Note_on_c, 1, 76, 96
3, 229820, Note_on_c, 1, 76, 0
3, 229820, Note_on_c, 1, 85, 0
3, 230400, Note_on_c, 1, 81, 96
3, 230400, Note_on_c, 1, 73, 96
3, 231160, Note_on_c, 1, 73, 0
3, 231160, Note_on_c, 1, 81, 0
3, 232320, Note_on_c, 1, 76, 96
3, 233470, Note_on_c, 1, 76, 0
3, 233760, Note_on_c, 1, 74, 96
3, 233880, Note_on_c, 1, 74, 0
3, 234240, Note_on_c, 1, 73, 96
3, 234360, Note_on_c, 1, 73, 0
3, 234720, Note_on_c, 1, 71, 96
3, 234840, Note_on_c, 1, 71, 0
3, 235200, Note_on_c, 1, 69, 96
3, 235320, Note_on_c, 1, 69, 0
3, 240000, Note_on_c, 1, 78, 96
3, 241150, Note_on_c, 1, 78, 0
3, 241440, Note_on_c, 1, 73, 96
3, 241560, Note_on_c, 1, 73, 0
3, 241920, Note_on_c, 1, 74, 96
3, 242040, Note_on_c, 1, 74, 0
3, 242400, Note_on_c, 1, 71, 96
3, 242520, Note_on_c, 1, 71, 0
3, 242880, Note_on_c, 1, 69, 96
3, 243000, Note_on_c, 1, 69, 0
3, 248640, Note_on_c, 1, 79, 96
3, 249980, Note_on_c, 1, 79, 0
3, 250080, Note_on_c, 1, 78, 64
3, 250200, Note_on_c, 1, 78, 0
3, 250560, Note_on_c, 1, 76, 64
3, 250680, Note_on_c, 1, 76, 0
3, 251040, Note_on_c, 1, 74, 64
3, 251160, Note_on_c, 1, 74, 0
3, 251520, Note_on_c, 1, 73, 64
3, 252280, Note_on_c, 1, 73, 0
3, 255360, Note_on_c, 1, 81, 64
3, 256510, Note_on_c, 1, 81, 0
3, 256800, Note_on_c, 1, 79, 64
3, 256920, Note_on_c, 1, 79, 0
3, 257280, Note_on_c, 1, 78, 64
3, 257400, Note_on_c, 1, 78, 0
3, 257760, Note_on_c, 1, 76, 64
3, 257880, Note_on_c, 1, 76, 0
3, 258240, Note_on_c, 1, 75, 64
3, 258360, Note_on_c, 1, 75, 0
3, 263040, Note_on_c, 1, 79, 64
3, 264190, Note_on_c, 1, 79, 0
3, 264480, Note_on_c, 1, 77, 64
3, 264600, Note_on_c, 1, 77, 0
3, 264960, Note_on_c, 1, 76, 64
3, 265080, Note_on_c, 1, 76, 0
3, 265440, Note_on_c, 1, 74, 64
3, 265560, Note_on_c, 1, 74, 0
3, 265920, Note_on_c, 1, 73, 64
3, 266040, Note_on_c, 1, 73, 0
3, 282240, Note_on_c, 1, 79, 96
3, 282240, Note_on_c, 1, 71, 96
3, 282620, Note_on_c, 1, 71, 0
3, 282620, Note_on_c, 1, 79, 0
3, 282720, Note_on_c, 1, 79, 96
3, 282720, Note_on_c, 1, 71, 96
3, 282910, Note_on_c, 1, 71, 0
3, 282910, Note_on_c, 1, 79, 0
3, 282960, Note_on_c, 1, 79, 96
3, 282960, Note_on_c, 1, 71, 96
3, 283150, Note_on_c, 1, 71, 0
3, 283150, Note_on_c, 1, 79, 0
3, 283200, Note_on_c, 1, 81, 96
3, 283200, Note_on_c, 1, 74, 96
3, 283580, Note_on_c, 1, 74, 0
3, 283580, Note_on_c, 1, 81, 0
3, 283680, Note_on_c, 1, 81, 96
3, 283680, Note_on_c, 1, 74, 96
3, 283870, Note_on_c, 1, 74, 0
3, 283870, Note_on_c, 1, 81, 0
3, 283920, Note_on_c, 1, 81, 96
3, 283920, Note_on_c, 1, 74, 96
3, 284110, Note_on_c, 1, 74, 0
3, 284110, Note_on_c, 1, 81, 0
3, 284160, Note_on_c, 1, 83, 96
3, 284160, Note_on_c, 1, 79, 96
3, 284540, Note_on_c, 1, 79, 0
3, 284540, Note_on_c, 1, 83, 0
3, 284640, Note_on_c, 1, 83, 96
3, 284640, Note_on_c, 1, 79, 96
3, 284830, Note_on_c, 1, 79, 0
3, 284830, Note_on_c, 1, 83, 0
3, 284880, Note_on_c, 1, 83, 96
3, 284880, Note_on_c, 1, 79, 96
3, 285070, Note_on_c, 1, 79, 0
3, 285070, Note_on_c, 1, 83, 0
3, 285120, Note_on_c, 1, 81, 96
3, 285120, Note_on_c, 1, 74, 96
3, 285500, Note_on_c, 1, 74, 0
3, 285500, Note_on_c, 1, 81, 0
3, 289920, Note_on_c, 1, 75, 64
3, 289920, Note_on_c, 1, 69, 64
3, 291360, Note_on_c, 1, 69, 0
3, 291360, Note_on_c, 1, 75, 0
3, 291360, Note_on_c, 1, 74, 64
3, 291360, Note_on_c, 1, 70, 64
3, 291740, Note_on_c, 1, 70, 0
3, 291740, Note_on_c, 1, 74, 0
3, 291840, Note_on_c, 1, 72, 64
3, 291840, Note_on_c, 1, 69, 64
3, 292220, Note_on_c, 1, 69, 0
3, 292220, Note_on_c, 1, 72, 0
3, 301440, Note_on_c, 1, 77, 96
3, 301440, Note_on_c, 1, 74, 96
3, 303740, Note_on_c, 1, 74, 0
3, 303740, Note_on_c, 1, 77, 0
3, 309120, Note_on_c, 1, 81, 96
3, 309120, Note_on_c, 1, 72, 96
3, 311420, Note_on_c, 1, 72, 0
3, 311420, Note_on_c, 1, 81, 0
3, 316800, Note_on_c, 1, 79, 96
3, 316800, Note_on_c, 1, 70, 96
3, 319100, Note_on_c, 1, 70, 0
3, 319100, Note_on_c, 1, 79, 0
3, 324480, Note_on_c, 1, 79, 96
3, 324480, Note_on_c, 1, 76, 96
3, 326780, Note_on_c, 1, 76, 0
3, 326780, Note_on_c, 1, 79, 0
3, 332160, Note_on_c, 1, 81, 96
3, 332160, Note_on_c, 1, 77, 96
3, 334460, Note_on_c, 1, 77, 0
3, 334460, Note_on_c, 1, 81, 0
3, 339840, Note_on_c, 1, 83, 96
3, 339840, Note_on_c, 1, 80, 96
3, 342140, Note_on_c, 1, 80, 0
3, 342140, Note_on_c, 1, 83, 0
3, 347520, Note_on_c, 1, 76, 64
3, 347520, Note_on_c, 1, 73, 64
3, 349440, Note_on_c, 1, 73, 0
3, 349440, Note_on_c, 1, 76, 0
3, 349440, Note_on_c, 1, 77, 64
3, 349440, Note_on_c, 1, 74, 64
3, 350970, Note_on_c, 1, 74, 0
3, 350970, Note_on_c, 1, 77, 0
3, 351360, Note_on_c, 1, 76, 64
3, 351360, Note_on_c, 1, 73, 64
3, 353280, Note_on_c, 1, 73, 0
3, 353280, Note_on_c, 1, 76, 0
3, 353280, Note_on_c, 1, 77, 64
3, 353280, Note_on_c, 1, 74, 64
3, 354810, Note_on_c, 1, 74, 0
3, 354810, Note_on_c, 1, 77, 0
3, 355200, Note_on_c, 1, 76, 64
3, 355200, Note_on_c, 1, 73, 64
3, 355580, Note_on_c, 1, 73, 0
3, 355580, Note_on_c, 1, 76, 0
3, 362880, Note_on_c, 1, 85, 96
3, 362880, Note_on_c, 1, 79, 96
3, 367100, Note_on_c, 1, 79, 0
3, 367100, Note_on_c, 1, 85, 0
3, 382080, Note_on_c, 1, 74, 96
3, 382080, Note_on_c, 1, 69, 96
3, 382460, Note_on_c, 1, 69, 0
3, 382460, Note_on_c, 1, 74, 0
3, 382560, Note_on_c, 1, 74, 96
3, 382560, Note_on_c, 1, 69, 96
3, 382750, Note_on_c, 1, 69, 0
3, 382750, Note_on_c, 1, 74, 0
3, 382800, Note_on_c, 1, 74, 96
3, 382800, Note_on_c, 1, 69, 96
3, 382990, Note_on_c, 1, 69, 0
3, 382990, Note_on_c, 1, 74, 0
3, 383040, Note_on_c, 1, 76, 96
3, 383040, Note_on_c, 1, 73, 96
3, 383420, Note_on_c, 1, 73, 0
3, 383420, Note_on_c, 1, 76, 0
3, 383520, Note_on_c, 1, 76, 96
3, 383520, Note_on_c, 1, 73, 96
3, 383710, Note_on_c, 1, 73, 0
3, 383710, Note_on_c, 1, 76, 0
3, 383760, Note_on_c, 1, 76, 96
3, 383760, Note_on_c, 1, 73, 96
3, 383950, Note_on_c, 1, 73, 0
3, 383950, Note_on_c, 1, 76, 0
3, 384000, Note_on_c, 1, 78, 96
3, 384000, Note_on_c, 1, 74, 96
3, 384380, Note_on_c, 1, 74, 0
3, 384380, Note_on_c, 1, 78, 0
3, 384480, Note_on_c, 1, 78, 96
3, 384480, Note_on_c, 1, 74, 96
3, 384670, Note_on_c, 1, 74, 0
3, 384670, Note_on_c, 1, 78, 0
3, 384720, Note_on_c, 1, 78, 96
3, 384720, Note_on_c, 1, 74, 96
3, 384910, Note_on_c, 1, 74, 0
3, 384910, Note_on_c, 1, 78, 0
3, 384960, Note_on_c, 1, 81, 96
3, 384960, Note_on_c, 1, 73, 96
3, 385340, Note_on_c, 1, 73, 0
3, 385340, Note_on_c, 1, 81, 0
3, 398880, Note_on_c, 1, 76, 64
3, 398880, Note_on_c, 1, 73, 64
3, 399360, Note_on_c, 1, 73, 0
3, 399360, Note_on_c, 1, 76, 0
3, 399360, Note_on_c, 1, 74, 64
3, 399740, Note_on_c, 1, 74, 0
3, 400800, Note_on_c, 1, 76, 64
3, 400800, Note_on_c, 1, 73, 64
3, 401280, Note_on_c, 1, 73, 0
3, 401280, Note_on_c, 1, 76, 0
3, 401280, Note_on_c, 1, 74, 64
3, 401660, Note_on_c, 1, 74, 0
3, 402720, Note_on_c, 1, 76, 64
3, 402720, Note_on_c, 1, 73, 64
3, 403200, Note_on_c, 1, 73, 0
3, 403200, Note_on_c, 1, 76, 0
3, 403200, Note_on_c, 1, 74, 64
3, 403580, Note_on_c, 1, 74, 0
3, 404640, Note_on_c, 1, 76, 64
3, 404640, Note_on_c, 1, 73, 64
3, 405120, Note_on_c, 1, 73, 0
3, 405120, Note_on_c, 1, 76, 0
3, 405120, Note_on_c, 1, 74, 64
3, 405500, Note_on_c, 1, 74, 0
3, 405600, Note_on_c, 1, 78, 64
3, 405790, Note_on_c, 1, 78, 0
3, 405840, Note_on_c, 1, 78, 64
3, 406030, Note_on_c, 1, 78, 0
3, 406080, Note_on_c, 1, 78, 64
3, 406460, Note_on_c, 1, 78, 0
3, 406560, Note_on_c, 1, 81, 64
3, 406750, Note_on_c, 1, 81, 0
3, 406800, Note_on_c, 1, 81, 64
3, 406990, Note_on_c, 1, 81, 0
3, 407040, Note_on_c, 1, 81, 64
3, 407420, Note_on_c, 1, 81, 0
3, 407520, Note_on_c, 1, 74, 64
3, 407710, Note_on_c, 1, 74, 0
3, 407760, Note_on_c, 1, 74, 64
3, 407950, Note_on_c, 1, 74, 0
3, 408000, Note_on_c, 1, 74, 64
3, 408190, Note_on_c, 1, 74, 0
3, 408240, Note_on_c, 1, 81, 64
3, 408430, Note_on_c, 1, 81, 0
3, 408480, Note_on_c, 1, 78, 64
3, 408670, Note_on_c, 1, 78, 0
3, 408720, Note_on_c, 1, 74, 64
3, 408910, Note_on_c, 1, 74, 0
3, 408960, Note_on_c, 1, 81, 64
3, 408960, Note_on_c, 1, 69, 64
3, 409340, Note_on_c, 1, 69, 0
3, 409340, Note_on_c, 1, 81, 0
3, 409440, Note_on_c, 1, 76, 64
3, 409440, Note_on_c, 1, 73, 64
3, 409820, Note_on_c, 1, 73, 0
3, 409820, Note_on_c, 1, 76, 0
3, 409920, Note_on_c, 1, 78, 64
3, 409920, Note_on_c, 1, 74, 64
3, 410300, Note_on_c, 1, 74, 0
3, 410300, Note_on_c, 1, 78, 0
3, 410400, Note_on_c, 1, 78, 64
3, 410400, Note_on_c, 1, 74, 64
3, 410780, Note_on_c, 1, 74, 0
3, 410780, Note_on_c, 1, 78, 0
3, 410880, Note_on_c, 1, 76, 64
3, 410880, Note_on_c, 1, 73, 64
3, 411260, Note_on_c, 1, 73, 0
3, 411260, Note_on_c, 1, 76, 0
3, 411360, Note_on_c, 1, 76, 64
3, 411360, Note_on_c, 1, 73, 64
3, 411740, Note_on_c, 1, 73, 0
3, 411740, Note_on_c, 1, 76, 0
3, 411840, Note_on_c, 1, 78, 64
3, 411840, Note_on_c, 1, 74, 64
3, 412220, Note_on_c, 1, 74, 0
3, 412220, Note_on_c, 1, 78, 0
3, 412320, Note_on_c, 1, 78, 64
3, 412320, Note_on_c, 1, 74, 64
3, 412700, Note_on_c, 1, 74, 0
3, 412700, Note_on_c, 1, 78, 0
3, 412800, Note_on_c, 1, 76, 64
3, 412800, Note_on_c, 1, 73, 64
3, 413180, Note_on_c, 1, 73, 0
3, 413180, Note_on_c, 1, 76, 0
3, 413280, Note_on_c, 1, 78, 64
3, 413280, Note_on_c, 1, 74, 64
3, 413660, Note_on_c, 1, 74, 0
3, 413660, Note_on_c, 1, 78, 0
3, 413760, Note_on_c, 1, 76, 64
3, 413760, Note_on_c, 1, 73, 64
3, 414140, Note_on_c, 1, 73, 0
3, 414140, Note_on_c, 1, 76, 0
3, 414240, Note_on_c, 1, 78, 64
3, 414240, Note_on_c, 1, 74, 64
3, 414620, Note_on_c, 1, 74, 0
3, 414620, Note_on_c, 1, 78, 0
3, 414720, Note_on_c, 1, 76, 64
3, 414720, Note_on_c, 1, 73, 64
3, 415100, Note_on_c, 1, 73, 0
3, 415100, Note_on_c, 1, 76, 0
3, 415200, Note_on_c, 1, 69, 64
3, 415390, Note_on_c, 1, 69, 0
3, 415440, Note_on_c, 1, 69, 64
3, 415630, Note_on_c, 1, 69, 0
3, 415680, Note_on_c, 1, 69, 64
3, 416060, Note_on_c, 1, 69, 0
3, 416640, Note_on_c, 1, 81, 64
3, 416640, Note_on_c, 1, 78, 64
3, 417790, Note_on_c, 1, 78, 0
3, 417790, Note_on_c, 1, 81, 0
3, 420480, Note_on_c, 1, 83, 64
3, 420480, Note_on_c, 1, 79, 64
3, 421630, Note_on_c, 1, 79, 0
3, 421630, Note_on_c, 1, 83, 0
3, 424320, Note_on_c, 1, 79, 64
3, 424320, Note_on_c, 1, 76, 64
3, 425470, Note_on_c, 1, 76, 0
3, 425470, Note_on_c, 1, 79, 0
3, 431520, Note_on_c, 1, 85, 64
3, 431520, Note_on_c, 1, 73, 64
3, 432000, Note_on_c, 1, 73, 0
3, 432000, Note_on_c, 1, 85, 0
3, 432000, Note_on_c, 1, 86, 64
3, 432000, Note_on_c, 1, 74, 64
3, 432380, Note_on_c, 1, 74, 0
3, 432380, Note_on_c, 1, 86, 0
3, 435360, Note_on_c, 1, 85, 64
3, 435360, Note_on_c, 1, 73, 64
3, 435840, Note_on_c, 1, 73, 0
3, 435840, Note_on_c, 1, 85, 0
3, 435840, Note_on_c, 1, 86, 64
3, 435840, Note_on_c, 1, 74, 64
3, 436220, Note_on_c, 1, 74, 0
3, 436220, Note_on_c, 1, 86, 0
3, 437760, Note_on_c, 1, 82, 96
3, 437760, Note_on_c, 1, 76, 96
3, 439290, Note_on_c, 1, 76, 0
3, 439290, Note_on_c, 1, 82, 0
3, 439680, Note_on_c, 1, 81, 96
3, 439680, Note_on_c, 1, 77, 96
3, 441210, Note_on_c, 1, 77, 0
3, 441210, Note_on_c, 1, 81, 0
3, 441600, Note_on_c, 1, 82, 96
3, 441600, Note_on_c, 1, 76, 96
3, 443130, Note_on_c, 1, 76, 0
3, 443130, Note_on_c, 1, 82, 0
3, 443520, Note_on_c, 1, 81, 96
3, 443520, Note_on_c, 1, 77, 96
3, 445050, Note_on_c, 1, 77, 0
3, 445050, Note_on_c, 1, 81, 0
3, 445440, Note_on_c, 1, 82, 96
3, 445440, Note_on_c, 1, 76, 96
3, 446970, Note_on_c, 1, 76, 0
3, 446970, Note_on_c, 1, 82, 0
3, 447360, Note_on_c, 1, 83, 96
3, 447360, Note_on_c, 1, 77, 96
3, 448120, Note_on_c, 1, 77, 0
3, 448120, Note_on_c, 1, 83, 0
3, 448320, Note_on_c, 1, 77, 96
3, 448320, Note_on_c, 1, 74, 96
3, 449080, Note_on_c, 1, 74, 0
3, 449080, Note_on_c, 1, 77, 0
3, 449280, Note_on_c, 1, 76, 96
3, 449280, Note_on_c, 1, 73, 96
3, 449660, Note_on_c, 1, 73, 0
3, 449660, Note_on_c, 1, 76, 0
3, 449760, Note_on_c, 1, 77, 96
3, 449760, Note_on_c, 1, 74, 96
3, 450140, Note_on_c, 1, 74, 0
3, 450140, Note_on_c, 1, 77, 0
3, 450240, Note_on_c, 1, 76, 96
3, 450240, Note_on_c, 1, 73, 96
3, 450620, Note_on_c, 1, 73, 0
3, 450620, Note_on_c, 1, 76, 0
3, 450720, Note_on_c, 1, 77, 96
3, 450720, Note_on_c, 1, 74, 96
3, 451100, Note_on_c, 1, 74, 0
3, 451100, Note_on_c, 1, 77, 0
3, 451200, Note_on_c, 1, 76, 96
3, 451200, Note_on_c, 1, 73, 96
3, 451580, Note_on_c, 1, 73, 0
3, 451580, Note_on_c, 1, 76, 0
3, 451680, Note_on_c, 1, 77, 96
3, 451680, Note_on_c, 1, 74, 96
3, 452060, Note_on_c, 1, 74, 0
3, 452060, Note_on_c, 1, 77, 0
3, 452160, Note_on_c, 1, 76, 96
3, 452160, Note_on_c, 1, 73, 96
3, 452540, Note_on_c, 1, 73, 0
3, 452540, Note_on_c, 1, 76, 0
3, 452640, Note_on_c, 1, 77, 96
3, 452640, Note_on_c, 1, 74, 96
3, 453020, Note_on_c, 1, 74, 0
3, 453020, Note_on_c, 1, 77, 0
3, 453120, Note_on_c, 1, 76, 96
3, 453120, Note_on_c, 1, 73, 96
3, 453500, Note_on_c, 1, 73, 0
3, 453500, Note_on_c, 1, 76, 0
3, 454080, Note_on_c, 1, 69, 96
3, 454460, Note_on_c, 1, 69, 0
3, 454560, Note_on_c, 1, 69, 96
3, 454940, Note_on_c, 1, 69, 0
3, 455040, Note_on_c, 1, 69, 96
3, 455800, Note_on_c, 1, 69, 0
3, 456960, Note_on_c, 1, 79, 127
3, 458110, Note_on_c, 1, 79, 0
3, 458400, Note_on_c, 1, 78, 96
3, 458520, Note_on_c, 1, 78, 0
3, 458880, Note_on_c, 1, 76, 96
3, 459000, Note_on_c, 1, 76, 0
3, 459360, Note_on_c, 1, 74, 96
3, 459480, Note_on_c, 1, 74, 0
3, 459840, Note_on_c, 1, 73, 96
3, 459960, Note_on_c, 1, 73, 0
3, 464640, Note_on_c, 1, 79, 127
3, 465790, Note_on_c, 1, 79, 0
3, 466080, Note_on_c, 1, 78, 96
3, 466200, Note_on_c, 1, 78, 0
3, 466560, Note_on_c, 1, 76, 96
3, 466680, Note_on_c, 1, 76, 0
3, 467040, Note_on_c, 1, 74, 96
3, 467160, Note_on_c, 1, 74, 0
3, 467520, Note_on_c, 1, 73, 96
3, 467640, Note_on_c, 1, 73, 0
3, 473280, Note_on_c, 1, 79, 96
3, 474620, Note_on_c, 1, 79, 0
3, 474720, Note_on_c, 1, 78, 64
3, 474840, Note_on_c, 1, 78, 0
3, 475200, Note_on_c, 1, 76, 64
3, 475320, Note_on_c, 1, 76, 0
3, 475680, Note_on_c, 1, 74, 64
3, 475800, Note_on_c, 1, 74, 0
3, 476160, Note_on_c, 1, 73, 64
3, 476280, Note_on_c, 1, 73, 0
3, 477120, Note_on_c, 1, 79, 96
3, 478460, Note_on_c, 1, 79, 0
3, 478560, Note_on_c, 1, 77, 64
3, 478680, Note_on_c, 1, 77, 0
3, 479040, Note_on_c, 1, 76, 64
3, 479160, Note_on_c, 1, 76, 0
3, 479520, Note_on_c, 1, 74, 64
3, 479640, Note_on_c, 1, 74, 0
3, 480000, Note_on_c, 1, 73, 64
3, 480120, Note_on_c, 1, 73, 0
3, 480960, Note_on_c, 1, 79, 96
3, 482300, Note_on_c, 1, 79, 0
3, 482400, Note_on_c, 1, 77, 64
3, 482520, Note_on_c, 1, 77, 0
3, 482880, Note_on_c, 1, 76, 64
3, 483000, Note_on_c, 1, 76, 0
3, 483360, Note_on_c, 1, 79, 64
3, 483480, Note_on_c, 1, 79, 0
3, 483840, Note_on_c, 1, 84, 64
3, 484990, Note_on_c, 1, 84, 0
3, 485280, Note_on_c, 1, 82, 64
3, 485400, Note_on_c, 1, 82, 0
3, 485760, Note_on_c, 1, 81, 64
3, 485880, Note_on_c, 1, 81, 0
3, 486240, Note_on_c, 1, 79, 64
3, 486360, Note_on_c, 1, 79, 0
3, 486720, Note_on_c, 1, 77, 64
3, 486840, Note_on_c, 1, 77, 0
3, 487680, Note_on_c, 1, 84, 64
3, 488830, Note_on_c, 1, 84, 0
3, 489120, Note_on_c, 1, 82, 64
3, 489240, Note_on_c, 1, 82, 0
3, 489600, Note_on_c, 1, 81, 64
3, 489720, Note_on_c, 1, 81, 0
3, 490080, Note_on_c, 1, 79, 64
3, 490200, Note_on_c, 1, 79, 0
3, 490560, Note_on_c, 1, 77, 64
3, 490680, Note_on_c, 1, 77, 0
3, 491520, Note_on_c, 1, 81, 64
3, 492670, Note_on_c, 1, 81, 0
3, 492960, Note_on_c, 1, 79, 64
3, 493080, Note_on_c, 1, 79, 0
3, 493440, Note_on_c, 1, 77, 64
3, 493560, Note_on_c, 1, 77, 0
3, 493920, Note_on_c, 1, 76, 64
3, 494040, Note_on_c, 1, 76, 0
3, 494400, Note_on_c, 1, 74, 64
3, 495160, Note_on_c, 1, 74, 0
3, 495360, Note_on_c, 1, 65, 64
3, 495360, Note_on_c, 1, 69, 64
3, 496890, Note_on_c, 1, 65, 0
3, 497280, Note_on_c, 1, 67, 64
3, 498810, Note_on_c, 1, 67, 0
3, 498810, Note_on_c, 1, 69, 0
3, 499200, Note_on_c, 1, 69, 96
3, 499200, Note_on_c, 1, 66, 96
3, 500730, Note_on_c, 1, 66, 0
3, 500730, Note_on_c, 1, 69, 0
3, 501120, Note_on_c, 1, 78, 96
3, 501120, Note_on_c, 1, 74, 96
3, 502650, Note_on_c, 1, 74, 0
3, 502650, Note_on_c, 1, 78, 0
3, 503040, Note_on_c, 1, 76, 96
3, 503040, Note_on_c, 1, 71, 96
3, 506490, Note_on_c, 1, 71, 0
3, 506490, Note_on_c, 1, 76, 0
3, 506880, Note_on_c, 1, 78, 96
3, 506880, Note_on_c, 1, 74, 96
3, 509180, Note_on_c, 1, 74, 0
3, 509180, Note_on_c, 1, 78, 0
3, 509280, Note_on_c, 1, 79, 96
3, 509280, Note_on_c, 1, 76, 96
3, 509470, Note_on_c, 1, 76, 0
3, 509470, Note_on_c, 1, 79, 0
3, 509520, Note_on_c, 1, 81, 96
3, 509520, Note_on_c, 1, 78, 96
3, 509710, Note_on_c, 1, 78, 0
3, 509710, Note_on_c, 1, 81, 0
3, 509760, Note_on_c, 1, 81, 96
3, 509760, Note_on_c, 1, 78, 96
3, 510000, Note_on_c, 1, 78, 0
3, 510000, Note_on_c, 1, 81, 0
3, 510000, Note_on_c, 1, 79, 96
3, 510000, Note_on_c, 1, 76, 96
3, 510240, Note_on_c, 1, 76, 0
3, 510240, Note_on_c, 1, 79, 0
3, 510240, Note_on_c, 1, 78, 96
3, 510240, Note_on_c, 1, 74, 96
3, 510300, Note_on_c, 1, 74, 0
3, 510300, Note_on_c, 1, 78, 0
3, 510480, Note_on_c, 1, 76, 96
3, 510480, Note_on_c, 1, 73, 96
3, 510540, Note_on_c, 1, 73, 0
3, 510540, Note_on_c, 1, 76, 0
3, 510720, Note_on_c, 1, 74, 96
3, 512640, Note_on_c, 1, 78, 96
3, 514170, Note_on_c, 1, 78, 0
3, 514170, Note_on_c, 1, 74, 0
3, 514560, Note_on_c, 1, 76, 96
3, 514560, Note_on_c, 1, 71, 96
3, 518010, Note_on_c, 1, 71, 0
3, 518010, Note_on_c, 1, 76, 0
3, 518400, Note_on_c, 1, 78, 96
3, 518400, Note_on_c, 1, 74, 96
3, 520700, Note_on_c, 1, 74, 0
3, 520700, Note_on_c, 1, 78, 0
3, 520800, Note_on_c, 1, 79, 96
3, 520800, Note_on_c, 1, 76, 96
3, 520990, Note_on_c, 1, 76, 0
3, 520990, Note_on_c, 1, 79, 0
3, 521040, Note_on_c, 1, 81, 96
3, 521040, Note_on_c, 1, 78, 96
3, 521230, Note_on_c, 1, 78, 0
3, 521230, Note_on_c, 1, 81, 0
3, 521280, Note_on_c, 1, 81, 96
3, 521280, Note_on_c, 1, 78, 96
3, 521520, Note_on_c, 1, 78, 0
3, 521520, Note_on_c, 1, 81, 0
3, 521520, Note_on_c, 1, 79, 96
3, 521520, Note_on_c, 1, 76, 96
3, 521760, Note_on_c, 1, 76, 0
3, 521760, Note_on_c, 1, 79, 0
3, 521760, Note_on_c, 1, 78, 96
3, 521760, Note_on_c, 1, 74, 96
3, 521820, Note_on_c, 1, 74, 0
3, 521820, Note_on_c, 1, 78, 0
3, 522000, Note_on_c, 1, 76, 96
3, 522000, Note_on_c, 1, 73, 96
3, 522060, Note_on_c, 1, 73, 0
3, 522060, Note_on_c, 1, 76, 0
3, 522240, Note_on_c, 1, 74, 96
3, 522620, Note_on_c, 1, 74, 0
3, 523680, Note_on_c, 1, 76, 96
3, 523680, Note_on_c, 1, 73, 96
3, 524160, Note_on_c, 1, 73, 0
3, 524160, Note_on_c, 1, 76, 0
3, 524160, Note_on_c, 1, 74, 96
3, 524540, Note_on_c, 1, 74, 0
3, 525600, Note_on_c, 1, 76, 96
3, 525600, Note_on_c, 1, 73, 96
3, 526080, Note_on_c, 1, 73, 0
3, 526080, Note_on_c, 1, 76, 0
3, 526080, Note_on_c, 1, 74, 96
3, 526460, Note_on_c, 1, 74, 0
3, 527520, Note_on_c, 1, 76, 96
3, 527520, Note_on_c, 1, 73, 96
3, 528000, Note_on_c, 1, 73, 0
3, 528000, Note_on_c, 1, 76, 0
3, 528000, Note_on_c, 1, 74, 96
3, 528380, Note_on_c, 1, 74, 0
3, 529440, Note_on_c, 1, 76, 96
3, 529440, Note_on_c, 1, 73, 96
3, 529920, Note_on_c, 1, 73, 0
3, 529920, Note_on_c, 1, 76, 0
3, 529920, Note_on_c, 1, 74, 96
3, 530300, Note_on_c, 1, 74, 0
3, 530400, Note_on_c, 1, 78, 96
3, 530590, Note_on_c, 1, 78, 0
3, 530640, Note_on_c, 1, 78, 96
3, 530830, Note_on_c, 1, 78, 0
3, 530880, Note_on_c, 1, 78, 96
3, 531260, Note_on_c, 1, 78, 0
3, 531360, Note_on_c, 1, 81, 96
3, 531550, Note_on_c, 1, 81, 0
3, 531600, Note_on_c, 1, 81, 96
3, 531790, Note_on_c, 1, 81, 0
3, 531840, Note_on_c, 1, 81, 96
3, 532220, Note_on_c, 1, 81, 0
3, 532320, Note_on_c, 1, 84, 96
3, 532510, Note_on_c, 1, 84, 0
3, 532560, Note_on_c, 1, 84, 96
3, 532750, Note_on_c, 1, 84, 0
3, 532800, Note_on_c, 1, 84, 96
3, 533180, Note_on_c, 1, 84, 0
3, 533280, Note_on_c, 1, 84, 96
3, 533660, Note_on_c, 1, 84, 0
3, 533760, Note_on_c, 1, 84, 96
3, 534910, Note_on_c, 1, 84, 0
3, 535200, Note_on_c, 1, 83, 96
3, 535320, Note_on_c, 1, 83, 0
3, 535680, Note_on_c, 1, 81, 96
3, 535800, Note_on_c, 1, 81, 0
3, 536160, Note_on_c, 1, 79, 96
3, 536280, Note_on_c, 1, 79, 0
3, 536640, Note_on_c, 1, 78, 96
3, 536760, Note_on_c, 1, 78, 0
3, 537600, Note_on_c, 1, 86, 96
3, 537600, Note_on_c, 1, 74, 96
3, 538750, Note_on_c, 1, 74, 0
3, 538750, Note_on_c, 1, 86, 0
3, 539040, Note_on_c, 1, 84, 96
3, 539040, Note_on_c, 1, 72, 96
3, 539160, Note_on_c, 1, 72, 0
3, 539160, Note_on_c, 1, 84, 0
3, 539520, Note_on_c, 1, 83, 96
3, 539520, Note_on_c, 1, 71, 96
3, 539640, Note_on_c, 1, 71, 0
3, 539640, Note_on_c, 1, 83, 0
3, 540000, Note_on_c, 1, 81, 96
3, 540000, Note_on_c, 1, 69, 96
3, 540120, Note_on_c, 1, 69, 0
3, 540120, Note_on_c, 1, 81, 0
3, 540480, Note_on_c, 1, 79, 96
3, 540480, Note_on_c, 1, 67, 96
3, 540600, Note_on_c, 1, 67, 0
3, 540600, Note_on_c, 1, 79, 0
3, 557760, Note_on_c, 1, 81, 64
3, 557760, Note_on_c, 1, 78, 64
3, 558720, Note_on_c, 1, 78, 0
3, 558720, Note_on_c, 1, 81, 0
3, 558720, Note_on_c, 1, 79, 64
3, 558720, Note_on_c, 1, 76, 64
3, 559680, Note_on_c, 1, 76, 0
3, 559680, Note_on_c, 1, 79, 0
3, 559680, Note_on_c, 1, 81, 64
3, 559680, Note_on_c, 1, 78, 64
3, 560440, Note_on_c, 1, 78, 0
3, 560440, Note_on_c, 1, 81, 0
3, 560640, Note_on_c, 1, 79, 64
3, 560640, Note_on_c, 1, 76, 64
3, 562170, Note_on_c, 1, 76, 0
3, 562170, Note_on_c, 1, 79, 0
3, 562170, End_track
4, 0, Start_track
4, 0, MIDI_port, 0
4, 0, Title_t, "Clarinetto I, II in A               "
4, 0, Program_c, 2, 71
4, 0, Control_c, 2, 7, 70
4, 0, Control_c, 2, 10, 50
4, 0, Control_c, 2, 121, 0
4, 360, Control_c, 2, 101, 0
4, 360, Control_c, 2, 100, 0
4, 360, Control_c, 2, 6, 12
4, 360, Control_c, 2, 38, 0
4, 480, Control_c, 2, 5, 0
4, 600, Control_c, 2, 65, 0
4, 720, Control_c, 2, 67, 0
4, 960, Pitch_bend_c, 2, 8192
4, 1080, Control_c, 2, 64, 0
4, 1200, Control_c, 2, 11, 127
4, 1320, Control_c, 2, 1, 0
4, 1560, Control_c, 2, 91, 100
4, 1680, Control_c, 2, 93, 10
4, 1920, Note_on_c, 2, 69, 96
4, 1920, Note_on_c, 2, 65, 96
4, 4220, Note_on_c, 2, 65, 0
4, 4220, Note_on_c, 2, 69, 0
4, 5760, Note_on_c, 2, 69, 96
4, 5760, Note_on_c, 2, 64, 96
4, 8060, Note_on_c, 2, 64, 0
4, 8060, Note_on_c, 2, 69, 0
4, 9600, Note_on_c, 2, 74, 64
4, 11130, Note_on_c, 2, 74, 0
4, 11520, Note_on_c, 2, 62, 64
4, 13050, Note_on_c, 2, 62, 0
4, 13440, Note_on_c, 2, 69, 64
4, 14970, Note_on_c, 2, 69, 0
4, 15360, Note_on_c, 2, 57, 64
4, 16890, Note_on_c, 2, 57, 0
4, 34560, Note_on_c, 2, 76, 96
4, 34560, Note_on_c, 2, 67, 96
4, 36480, Note_on_c, 2, 67, 0
4, 36480, Note_on_c, 2, 76, 0
4, 36480, Note_on_c, 2, 74, 64
4, 36480, Note_on_c, 2, 65, 64
4, 36860, Note_on_c, 2, 65, 0
4, 36860, Note_on_c, 2, 74, 0
4, 38400, Note_on_c, 2, 65, 96
4, 38400, Note_on_c, 2, 70, 96
4, 40320, Note_on_c, 2, 65, 0
4, 40320, Note_on_c, 2, 67, 96
4, 40700, Note_on_c, 2, 67, 0
4, 40700, Note_on_c, 2, 70, 0
4, 44160, Note_on_c, 2, 74, 64
4, 44160, Note_on_c, 2, 62, 64
4, 45690, Note_on_c, 2, 62, 0
4, 45690, Note_on_c, 2, 74, 0
4, 46080, Note_on_c, 2, 75, 64
4, 46080, Note_on_c, 2, 63, 64
4, 46840, Note_on_c, 2, 63, 0
4, 46840, Note_on_c, 2, 75, 0
4, 47040, Note_on_c, 2, 76, 64
4, 47040, Note_on_c, 2, 64, 64
4, 47800, Note_on_c, 2, 64, 0
4, 47800, Note_on_c, 2, 76, 0
4, 48000, Note_on_c, 2, 77, 64
4, 48000, Note_on_c, 2, 65, 64
4, 48760, Note_on_c, 2, 65, 0
4, 48760, Note_on_c, 2, 77, 0
4, 48960, Note_on_c, 2, 78, 64
4, 48960, Note_on_c, 2, 66, 64
4, 49720, Note_on_c, 2, 66, 0
4, 49720, Note_on_c, 2, 78, 0
4, 49920, Note_on_c, 2, 79, 64
4, 49920, Note_on_c, 2, 67, 64
4, 51450, Note_on_c, 2, 67, 0
4, 51450, Note_on_c, 2, 79, 0
4, 51840, Note_on_c, 2, 79, 96
4, 51840, Note_on_c, 2, 70, 96
4, 53370, Note_on_c, 2, 70, 0
4, 53370, Note_on_c, 2, 79, 0
4, 53760, Note_on_c, 2, 77, 96
4, 53760, Note_on_c, 2, 68, 96
4, 55680, Note_on_c, 2, 68, 0
4, 55680, Note_on_c, 2, 77, 0
4, 55680, Note_on_c, 2, 77, 64
4, 55680, Note_on_c, 2, 69, 64
4, 56440, Note_on_c, 2, 69, 0
4, 56440, Note_on_c, 2, 77, 0
4, 56640, Note_on_c, 2, 74, 64
4, 56640, Note_on_c, 2, 65, 64
4, 57600, Note_on_c, 2, 65, 0
4, 57600, Note_on_c, 2, 74, 0
4, 57600, Note_on_c, 2, 74, 64
4, 57600, Note_on_c, 2, 64, 64
4, 58360, Note_on_c, 2, 74, 0
4, 58560, Note_on_c, 2, 73, 64
4, 59130, Note_on_c, 2, 64, 0
4, 59320, Note_on_c, 2, 73, 0
4, 59520, Note_on_c, 2, 74, 48
4, 59520, Note_on_c, 2, 62, 48
4, 59900, Note_on_c, 2, 62, 0
4, 59900, Note_on_c, 2, 74, 0
4, 72960, Note_on_c, 2, 74, 96
4, 72960, Note_on_c, 2, 69, 96
4, 73340, Note_on_c, 2, 69, 0
4, 73340, Note_on_c, 2, 74, 0
4, 73440, Note_on_c, 2, 74, 96
4, 73440, Note_on_c, 2, 69, 96
4, 73630, Note_on_c, 2, 69, 0
4, 73630, Note_on_c, 2, 74, 0
4, 73680, Note_on_c, 2, 74, 96
4, 73680, Note_on_c, 2, 69, 96
4, 73870, Note_on_c, 2, 69, 0
4, 73870, Note_on_c, 2, 74, 0
4, 73920, Note_on_c, 2, 76, 96
4, 73920, Note_on_c, 2, 73, 96
4, 74300, Note_on_c, 2, 73, 0
4, 74300, Note_on_c, 2, 76, 0
4, 74400, Note_on_c, 2, 76, 96
4, 74400, Note_on_c, 2, 73, 96
4, 74590, Note_on_c, 2, 73, 0
4, 74590, Note_on_c, 2, 76, 0
4, 74640, Note_on_c, 2, 76, 96
4, 74640, Note_on_c, 2, 73, 96
4, 74830, Note_on_c, 2, 73, 0
4, 74830, Note_on_c, 2, 76, 0
4, 74880, Note_on_c, 2, 78, 96
4, 74880, Note_on_c, 2, 74, 96
4, 75260, Note_on_c, 2, 74, 0
4, 75260, Note_on_c, 2, 78, 0
4, 75360, Note_on_c, 2, 78, 96
4, 75360, Note_on_c, 2, 74, 96
4, 75550, Note_on_c, 2, 74, 0
4, 75550, Note_on_c, 2, 78, 0
4, 75600, Note_on_c, 2, 78, 96
4, 75600, Note_on_c, 2, 74, 96
4, 75790, Note_on_c, 2, 74, 0
4, 75790, Note_on_c, 2, 78, 0
4, 75840, Note_on_c, 2, 76, 96
4, 75840, Note_on_c, 2, 73, 96
4, 76220, Note_on_c, 2, 73, 0
4, 76220, Note_on_c, 2, 76, 0
4, 93600, Note_on_c, 2, 73, 96
4, 93600, Note_on_c, 2, 67, 96
4, 94080, Note_on_c, 2, 67, 0
4, 94080, Note_on_c, 2, 73, 0
4, 94080, Note_on_c, 2, 74, 96
4, 94080, Note_on_c, 2, 66, 96
4, 94460, Note_on_c, 2, 66, 0
4, 94460, Note_on_c, 2, 74, 0
4, 95520, Note_on_c, 2, 73, 96
4, 95520, Note_on_c, 2, 67, 96
4, 96000, Note_on_c, 2, 67, 0
4, 96000, Note_on_c, 2, 73, 0
4, 96000, Note_on_c, 2, 74, 96
4, 96000, Note_on_c, 2, 66, 96
4, 96380, Note_on_c, 2, 66, 0
4, 96380, Note_on_c, 2, 74, 0
4, 96480, Note_on_c, 2, 66, 96
4, 96670, Note_on_c, 2, 66, 0
4, 96720, Note_on_c, 2, 66, 96
4, 96910, Note_on_c, 2, 66, 0
4, 96960, Note_on_c, 2, 66, 96
4, 97340, Note_on_c, 2, 66, 0
4, 97440, Note_on_c, 2, 69, 96
4, 97630, Note_on_c, 2, 69, 0
4, 97680, Note_on_c, 2, 69, 96
4, 97870, Note_on_c, 2, 69, 0
4, 97920, Note_on_c, 2, 69, 96
4, 98300, Note_on_c, 2, 69, 0
4, 98400, Note_on_c, 2, 74, 96
4, 98590, Note_on_c, 2, 74, 0
4, 98640, Note_on_c, 2, 74, 96
4, 98830, Note_on_c, 2, 74, 0
4, 98880, Note_on_c, 2, 74, 96
4, 99070, Note_on_c, 2, 74, 0
4, 99120, Note_on_c, 2, 69, 96
4, 99310, Note_on_c, 2, 69, 0
4, 99360, Note_on_c, 2, 66, 96
4, 99550, Note_on_c, 2, 66, 0
4, 99600, Note_on_c, 2, 62, 96
4, 99790, Note_on_c, 2, 62, 0
4, 99840, Note_on_c, 2, 69, 96
4, 100220, Note_on_c, 2, 69, 0
4, 100320, Note_on_c, 2, 76, 96
4, 100320, Note_on_c, 2, 73, 96
4, 100700, Note_on_c, 2, 73, 0
4, 100700, Note_on_c, 2, 76, 0
4, 100800, Note_on_c, 2, 78, 96
4, 100800, Note_on_c, 2, 74, 96
4, 101180, Note_on_c, 2, 74, 0
4, 101180, Note_on_c, 2, 78, 0
4, 101280, Note_on_c, 2, 78, 96
4, 101280, Note_on_c, 2, 74, 96
4, 101660, Note_on_c, 2, 74, 0
4, 101660, Note_on_c, 2, 78, 0
4, 101760, Note_on_c, 2, 76, 96
4, 101760, Note_on_c, 2, 73, 96
4, 102140, Note_on_c, 2, 73, 0
4, 102140, Note_on_c, 2, 76, 0
4, 102240, Note_on_c, 2, 76, 96
4, 102240, Note_on_c, 2, 73, 96
4, 102620, Note_on_c, 2, 73, 0
4, 102620, Note_on_c, 2, 76, 0
4, 102720, Note_on_c, 2, 78, 96
4, 102720, Note_on_c, 2, 74, 96
4, 103100, Note_on_c, 2, 74, 0
4, 103100, Note_on_c, 2, 78, 0
4, 103200, Note_on_c, 2, 78, 96
4, 103200, Note_on_c, 2, 74, 96
4, 103580, Note_on_c, 2, 74, 0
4, 103580, Note_on_c, 2, 78, 0
4, 103680, Note_on_c, 2, 76, 96
4, 103680, Note_on_c, 2, 73, 96
4, 104060, Note_on_c, 2, 73, 0
4, 104060, Note_on_c, 2, 76, 0
4, 104160, Note_on_c, 2, 78, 96
4, 104160, Note_on_c, 2, 74, 96
4, 104540, Note_on_c, 2, 74, 0
4, 104540, Note_on_c, 2, 78, 0
4, 104640, Note_on_c, 2, 76, 96
4, 104640, Note_on_c, 2, 73, 96
4, 105020, Note_on_c, 2, 73, 0
4, 105020, Note_on_c, 2, 76, 0
4, 105120, Note_on_c, 2, 78, 96
4, 105120, Note_on_c, 2, 74, 96
4, 105500, Note_on_c, 2, 74, 0
4, 105500, Note_on_c, 2, 78, 0
4, 105600, Note_on_c, 2, 76, 96
4, 105600, Note_on_c, 2, 73, 96
4, 105980, Note_on_c, 2, 73, 0
4, 105980, Note_on_c, 2, 76, 0
4, 106080, Note_on_c, 2, 69, 96
4, 106270, Note_on_c, 2, 69, 0
4, 106320, Note_on_c, 2, 69, 96
4, 106510, Note_on_c, 2, 69, 0
4, 106560, Note_on_c, 2, 69, 96
4, 106940, Note_on_c, 2, 69, 0
4, 107520, Note_on_c, 2, 73, 96
4, 107520, Note_on_c, 2, 69, 96
4, 108670, Note_on_c, 2, 69, 0
4, 108670, Note_on_c, 2, 73, 0
4, 111360, Note_on_c, 2, 69, 96
4, 111360, Note_on_c, 2, 66, 96
4, 112510, Note_on_c, 2, 66, 0
4, 112510, Note_on_c, 2, 69, 0
4, 115200, Note_on_c, 2, 71, 96
4, 115200, Note_on_c, 2, 68, 96
4, 116350, Note_on_c, 2, 68, 0
4, 116350, Note_on_c, 2, 71, 0
4, 119040, Note_on_c, 2, 61, 64
4, 119040, Note_on_c, 2, 57, 64
4, 119520, Note_on_c, 2, 57, 0
4, 119520, Note_on_c, 2, 61, 0
4, 119520, Note_on_c, 2, 62, 64
4, 119520, Note_on_c, 2, 59, 64
4, 120000, Note_on_c, 2, 59, 0
4, 120000, Note_on_c, 2, 62, 0
4, 120000, Note_on_c, 2, 64, 64
4, 120000, Note_on_c, 2, 61, 64
4, 120380, Note_on_c, 2, 61, 0
4, 120380, Note_on_c, 2, 64, 0
4, 120960, Note_on_c, 2, 66, 64
4, 120960, Note_on_c, 2, 62, 64
4, 121440, Note_on_c, 2, 62, 0
4, 121440, Note_on_c, 2, 66, 0
4, 121440, Note_on_c, 2, 68, 64
4, 121440, Note_on_c, 2, 64, 64
4, 121920, Note_on_c, 2, 64, 0
4, 121920, Note_on_c, 2, 68, 0
4, 121920, Note_on_c, 2, 69, 64
4, 121920, Note_on_c, 2, 66, 64
4, 122400, Note_on_c, 2, 66, 0
4, 122400, Note_on_c, 2, 69, 0
4, 122400, Note_on_c, 2, 62, 64
4, 122400, Note_on_c, 2, 59, 64
4, 122780, Note_on_c, 2, 59, 0
4, 122780, Note_on_c, 2, 62, 0
4, 122880, Note_on_c, 2, 61, 64
4, 122880, Note_on_c, 2, 57, 64
4, 123360, Note_on_c, 2, 57, 0
4, 123360, Note_on_c, 2, 61, 0
4, 123360, Note_on_c, 2, 62, 64
4, 123360, Note_on_c, 2, 59, 64
4, 123840, Note_on_c, 2, 59, 0
4, 123840, Note_on_c, 2, 62, 0
4, 123840, Note_on_c, 2, 64, 64
4, 123840, Note_on_c, 2, 61, 64
4, 124220, Note_on_c, 2, 61, 0
4, 124220, Note_on_c, 2, 64, 0
4, 124800, Note_on_c, 2, 66, 64
4, 124800, Note_on_c, 2, 62, 64
4, 125280, Note_on_c, 2, 62, 0
4, 125280, Note_on_c, 2, 66, 0
4, 125280, Note_on_c, 2, 68, 64
4, 125280, Note_on_c, 2, 64, 64
4, 125760, Note_on_c, 2, 64, 0
4, 125760, Note_on_c, 2, 68, 0
4, 125760, Note_on_c, 2, 69, 64
4, 125760, Note_on_c, 2, 66, 64
4, 126240, Note_on_c, 2, 66, 0
4, 126240, Note_on_c, 2, 69, 0
4, 126240, Note_on_c, 2, 62, 64
4, 126240, Note_on_c, 2, 59, 64
4, 126620, Note_on_c, 2, 59, 0
4, 126620, Note_on_c, 2, 62, 0
4, 126720, Note_on_c, 2, 61, 64
4, 126720, Note_on_c, 2, 57, 64
4, 127200, Note_on_c, 2, 57, 0
4, 127200, Note_on_c, 2, 61, 0
4, 127200, Note_on_c, 2, 62, 64
4, 127200, Note_on_c, 2, 59, 64
4, 127680, Note_on_c, 2, 59, 0
4, 127680, Note_on_c, 2, 62, 0
4, 127680, Note_on_c, 2, 64, 64
4, 127680, Note_on_c, 2, 61, 64
4, 128060, Note_on_c, 2, 61, 0
4, 128060, Note_on_c, 2, 64, 0
4, 128640, Note_on_c, 2, 71, 96
4, 128640, Note_on_c, 2, 68, 96
4, 130170, Note_on_c, 2, 68, 0
4, 130170, Note_on_c, 2, 71, 0
4, 130560, Note_on_c, 2, 72, 96
4, 130560, Note_on_c, 2, 69, 96
4, 132090, Note_on_c, 2, 69, 0
4, 132090, Note_on_c, 2, 72, 0
4, 132480, Note_on_c, 2, 71, 96
4, 132480, Note_on_c, 2, 68, 96
4, 134010, Note_on_c, 2, 68, 0
4, 134010, Note_on_c, 2, 71, 0
4, 134400, Note_on_c, 2, 72, 96
4, 134400, Note_on_c, 2, 69, 96
4, 135930, Note_on_c, 2, 69, 0
4, 135930, Note_on_c, 2, 72, 0
4, 136320, Note_on_c, 2, 71, 96
4, 136320, Note_on_c, 2, 68, 96
4, 137850, Note_on_c, 2, 68, 0
4, 137850, Note_on_c, 2, 71, 0
4, 138240, Note_on_c, 2, 72, 96
4, 138240, Note_on_c, 2, 69, 96
4, 139770, Note_on_c, 2, 69, 0
4, 139770, Note_on_c, 2, 72, 0
4, 140160, Note_on_c, 2, 71, 96
4, 140160, Note_on_c, 2, 68, 96
4, 140540, Note_on_c, 2, 68, 0
4, 140540, Note_on_c, 2, 71, 0
4, 140640, Note_on_c, 2, 72, 96
4, 140640, Note_on_c, 2, 69, 96
4, 141020, Note_on_c, 2, 69, 0
4, 141020, Note_on_c, 2, 72, 0
4, 141120, Note_on_c, 2, 71, 96
4, 141120, Note_on_c, 2, 68, 96
4, 141500, Note_on_c, 2, 68, 0
4, 141500, Note_on_c, 2, 71, 0
4, 141600, Note_on_c, 2, 72, 96
4, 141600, Note_on_c, 2, 69, 96
4, 141980, Note_on_c, 2, 69, 0
4, 141980, Note_on_c, 2, 72, 0
4, 142080, Note_on_c, 2, 71, 96
4, 142080, Note_on_c, 2, 68, 96
4, 142460, Note_on_c, 2, 68, 0
4, 142460, Note_on_c, 2, 71, 0
4, 142560, Note_on_c, 2, 72, 96
4, 142560, Note_on_c, 2, 69, 96
4, 142940, Note_on_c, 2, 69, 0
4, 142940, Note_on_c, 2, 72, 0
4, 143040, Note_on_c, 2, 71, 96
4, 143040, Note_on_c, 2, 68, 96
4, 143420, Note_on_c, 2, 68, 0
4, 143420, Note_on_c, 2, 71, 0
4, 143520, Note_on_c, 2, 72, 96
4, 143520, Note_on_c, 2, 69, 96
4, 143900, Note_on_c, 2, 69, 0
4, 143900, Note_on_c, 2, 72, 0
4, 144000, Note_on_c, 2, 71, 96
4, 144000, Note_on_c, 2, 68, 96
4, 144380, Note_on_c, 2, 68, 0
4, 144380, Note_on_c, 2, 71, 0
4, 144960, Note_on_c, 2, 64, 96
4, 145340, Note_on_c, 2, 64, 0
4, 145440, Note_on_c, 2, 64, 96
4, 145820, Note_on_c, 2, 64, 0
4, 145920, Note_on_c, 2, 64, 96
4, 146680, Note_on_c, 2, 64, 0
4, 147840, Note_on_c, 2, 74, 101
4, 148990, Note_on_c, 2, 74, 0
4, 149280, Note_on_c, 2, 73, 96
4, 149400, Note_on_c, 2, 73, 0
4, 149760, Note_on_c, 2, 71, 96
4, 149880, Note_on_c, 2, 71, 0
4, 150240, Note_on_c, 2, 69, 96
4, 150360, Note_on_c, 2, 69, 0
4, 150720, Note_on_c, 2, 68, 96
4, 150840, Note_on_c, 2, 68, 0
4, 155520, Note_on_c, 2, 74, 101
4, 156670, Note_on_c, 2, 74, 0
4, 156960, Note_on_c, 2, 73, 96
4, 157080, Note_on_c, 2, 73, 0
4, 157440, Note_on_c, 2, 71, 96
4, 157560, Note_on_c, 2, 71, 0
4, 157920, Note_on_c, 2, 69, 96
4, 158040, Note_on_c, 2, 69, 0
4, 158400, Note_on_c, 2, 68, 96
4, 158520, Note_on_c, 2, 68, 0
4, 190080, Note_on_c, 2, 73, 96
4, 190080, Note_on_c, 2, 69, 96
4, 191610, Note_on_c, 2, 69, 0
4, 191610, Note_on_c, 2, 73, 0
4, 192000, Note_on_c, 2, 76, 96
4, 192000, Note_on_c, 2, 73, 96
4, 193530, Note_on_c, 2, 73, 0
4, 193530, Note_on_c, 2, 76, 0
4, 193920, Note_on_c, 2, 78, 96
4, 193920, Note_on_c, 2, 74, 96
4, 197370, Note_on_c, 2, 74, 0
4, 197370, Note_on_c, 2, 78, 0
4, 197760, Note_on_c, 2, 76, 96
4, 197760, Note_on_c, 2, 73, 96
4, 198520, Note_on_c, 2, 73, 0
4, 198520, Note_on_c, 2, 76, 0
4, 198720, Note_on_c, 2, 73, 96
4, 198720, Note_on_c, 2, 69, 96
4, 200060, Note_on_c, 2, 69, 0
4, 200060, Note_on_c, 2, 73, 0
4, 200160, Note_on_c, 2, 74, 96
4, 200160, Note_on_c, 2, 71, 96
4, 200350, Note_on_c, 2, 71, 0
4, 200350, Note_on_c, 2, 74, 0
4, 200400, Note_on_c, 2, 76, 96
4, 200400, Note_on_c, 2, 73, 96
4, 200590, Note_on_c, 2, 73, 0
4, 200590, Note_on_c, 2, 76, 0
4, 200640, Note_on_c, 2, 76, 96
4, 200640, Note_on_c, 2, 73, 96
4, 200880, Note_on_c, 2, 73, 0
4, 200880, Note_on_c, 2, 76, 0
4, 200880, Note_on_c, 2, 74, 96
4, 200880, Note_on_c, 2, 71, 96
4, 201070, Note_on_c, 2, 71, 0
4, 201070, Note_on_c, 2, 74, 0
4, 201120, Note_on_c, 2, 73, 96
4, 201120, Note_on_c, 2, 69, 96
4, 201180, Note_on_c, 2, 69, 0
4, 201180, Note_on_c, 2, 73, 0
4, 201360, Note_on_c, 2, 71, 96
4, 201360, Note_on_c, 2, 68, 96
4, 201420, Note_on_c, 2, 68, 0
4, 201420, Note_on_c, 2, 71, 0
4, 201600, Note_on_c, 2, 73, 96
4, 201600, Note_on_c, 2, 69, 96
4, 203130, Note_on_c, 2, 69, 0
4, 203130, Note_on_c, 2, 73, 0
4, 203520, Note_on_c, 2, 76, 96
4, 203520, Note_on_c, 2, 73, 96
4, 205050, Note_on_c, 2, 73, 0
4, 205050, Note_on_c, 2, 76, 0
4, 205440, Note_on_c, 2, 78, 96
4, 205440, Note_on_c, 2, 74, 96
4, 208890, Note_on_c, 2, 74, 0
4, 208890, Note_on_c, 2, 78, 0
4, 209280, Note_on_c, 2, 76, 96
4, 209280, Note_on_c, 2, 73, 96
4, 210040, Note_on_c, 2, 73, 0
4, 210040, Note_on_c, 2, 76, 0
4, 210240, Note_on_c, 2, 73, 96
4, 210240, Note_on_c, 2, 69, 96
4, 211580, Note_on_c, 2, 69, 0
4, 211580, Note_on_c, 2, 73, 0
4, 211680, Note_on_c, 2, 74, 96
4, 211680, Note_on_c, 2, 71, 96
4, 211870, Note_on_c, 2, 71, 0
4, 211870, Note_on_c, 2, 74, 0
4, 211920, Note_on_c, 2, 76, 96
4, 211920, Note_on_c, 2, 73, 96
4, 212110, Note_on_c, 2, 73, 0
4, 212110, Note_on_c, 2, 76, 0
4, 212160, Note_on_c, 2, 76, 96
4, 212160, Note_on_c, 2, 73, 96
4, 212400, Note_on_c, 2, 73, 0
4, 212400, Note_on_c, 2, 76, 0
4, 212400, Note_on_c, 2, 74, 96
4, 212400, Note_on_c, 2, 71, 96
4, 212590, Note_on_c, 2, 71, 0
4, 212590, Note_on_c, 2, 74, 0
4, 212640, Note_on_c, 2, 73, 96
4, 212640, Note_on_c, 2, 69, 96
4, 212700, Note_on_c, 2, 69, 0
4, 212700, Note_on_c, 2, 73, 0
4, 212880, Note_on_c, 2, 71, 96
4, 212880, Note_on_c, 2, 68, 96
4, 212940, Note_on_c, 2, 68, 0
4, 212940, Note_on_c, 2, 71, 0
4, 213120, Note_on_c, 2, 69, 96
4, 213500, Note_on_c, 2, 69, 0
4, 214560, Note_on_c, 2, 80, 96
4, 214560, Note_on_c, 2, 71, 96
4, 214940, Note_on_c, 2, 71, 0
4, 214940, Note_on_c, 2, 80, 0
4, 215040, Note_on_c, 2, 81, 96
4, 215040, Note_on_c, 2, 73, 96
4, 215420, Note_on_c, 2, 73, 0
4, 215420, Note_on_c, 2, 81, 0
4, 216480, Note_on_c, 2, 80, 96
4, 216480, Note_on_c, 2, 71, 96
4, 216860, Note_on_c, 2, 71, 0
4, 216860, Note_on_c, 2, 80, 0
4, 216960, Note_on_c, 2, 81, 96
4, 216960, Note_on_c, 2, 73, 96
4, 217340, Note_on_c, 2, 73, 0
4, 217340, Note_on_c, 2, 81, 0
4, 218400, Note_on_c, 2, 80, 96
4, 218400, Note_on_c, 2, 71, 96
4, 218780, Note_on_c, 2, 71, 0
4, 218780, Note_on_c, 2, 80, 0
4, 218880, Note_on_c, 2, 81, 96
4, 218880, Note_on_c, 2, 73, 96
4, 219260, Note_on_c, 2, 73, 0
4, 219260, Note_on_c, 2, 81, 0
4, 220320, Note_on_c, 2, 80, 96
4, 220320, Note_on_c, 2, 71, 96
4, 220700, Note_on_c, 2, 71, 0
4, 220700, Note_on_c, 2, 80, 0
4, 220800, Note_on_c, 2, 81, 96
4, 220800, Note_on_c, 2, 73, 96
4, 221180, Note_on_c, 2, 73, 0
4, 221180, Note_on_c, 2, 81, 0
4, 221280, Note_on_c, 2, 73, 96
4, 221470, Note_on_c, 2, 73, 0
4, 221520, Note_on_c, 2, 73, 96
4, 221710, Note_on_c, 2, 73, 0
4, 221760, Note_on_c, 2, 73, 96
4, 222140, Note_on_c, 2, 73, 0
4, 222240, Note_on_c, 2, 76, 96
4, 222430, Note_on_c, 2, 76, 0
4, 222480, Note_on_c, 2, 76, 96
4, 222670, Note_on_c, 2, 76, 0
4, 222720, Note_on_c, 2, 76, 96
4, 224250, Note_on_c, 2, 76, 0
4, 224640, Note_on_c, 2, 73, 96
4, 225790, Note_on_c, 2, 73, 0
4, 225840, Note_on_c, 2, 69, 96
4, 226030, Note_on_c, 2, 69, 0
4, 226080, Note_on_c, 2, 64, 96
4, 226270, Note_on_c, 2, 64, 0
4, 226320, Note_on_c, 2, 61, 96
4, 226510, Note_on_c, 2, 61, 0
4, 226560, Note_on_c, 2, 69, 96
4, 227710, Note_on_c, 2, 69, 0
4, 227760, Note_on_c, 2, 64, 96
4, 227950, Note_on_c, 2, 64, 0
4, 228000, Note_on_c, 2, 61, 96
4, 228190, Note_on_c, 2, 61, 0
4, 228240, Note_on_c, 2, 57, 96
4, 228430, Note_on_c, 2, 57, 0
4, 228480, Note_on_c, 2, 69, 96
4, 228860, Note_on_c, 2, 69, 0
4, 229440, Note_on_c, 2, 76, 96
4, 229440, Note_on_c, 2, 73, 96
4, 229820, Note_on_c, 2, 73, 0
4, 229820, Note_on_c, 2, 76, 0
4, 230400, Note_on_c, 2, 73, 96
4, 230400, Note_on_c, 2, 69, 96
4, 231160, Note_on_c, 2, 69, 0
4, 231160, Note_on_c, 2, 73, 0
4, 232320, Note_on_c, 2, 76, 96
4, 233470, Note_on_c, 2, 76, 0
4, 233760, Note_on_c, 2, 74, 96
4, 233880, Note_on_c, 2, 74, 0
4, 234240, Note_on_c, 2, 73, 96
4, 234360, Note_on_c, 2, 73, 0
4, 234720, Note_on_c, 2, 71, 96
4, 234840, Note_on_c, 2, 71, 0
4, 235200, Note_on_c, 2, 69, 96
4, 235320, Note_on_c, 2, 69, 0
4, 240000, Note_on_c, 2, 78, 96
4, 241150, Note_on_c, 2, 78, 0
4, 241440, Note_on_c, 2, 73, 96
4, 241560, Note_on_c, 2, 73, 0
4, 241920, Note_on_c, 2, 74, 96
4, 242040, Note_on_c, 2, 74, 0
4, 242400, Note_on_c, 2, 71, 96
4, 242520, Note_on_c, 2, 71, 0
4, 242880, Note_on_c, 2, 69, 96
4, 243000, Note_on_c, 2, 69, 0
4, 252480, Note_on_c, 2, 78, 96
4, 252480, Note_on_c, 2, 66, 96
4, 253820, Note_on_c, 2, 66, 0
4, 253820, Note_on_c, 2, 78, 0
4, 253920, Note_on_c, 2, 76, 64
4, 253920, Note_on_c, 2, 67, 64
4, 254040, Note_on_c, 2, 67, 0
4, 254040, Note_on_c, 2, 76, 0
4, 254400, Note_on_c, 2, 74, 64
4, 254400, Note_on_c, 2, 66, 64
4, 254520, Note_on_c, 2, 66, 0
4, 254520, Note_on_c, 2, 74, 0
4, 254880, Note_on_c, 2, 73, 64
4, 254880, Note_on_c, 2, 64, 64
4, 255000, Note_on_c, 2, 64, 0
4, 255000, Note_on_c, 2, 73, 0
4, 255360, Note_on_c, 2, 71, 64
4, 255360, Note_on_c, 2, 63, 64
4, 255480, Note_on_c, 2, 63, 0
4, 255480, Note_on_c, 2, 71, 0
4, 257280, Note_on_c, 2, 71, 64
4, 258430, Note_on_c, 2, 71, 0
4, 258720, Note_on_c, 2, 69, 64
4, 258840, Note_on_c, 2, 69, 0
4, 259200, Note_on_c, 2, 68, 64
4, 259320, Note_on_c, 2, 68, 0
4, 259680, Note_on_c, 2, 66, 64
4, 259800, Note_on_c, 2, 66, 0
4, 260160, Note_on_c, 2, 64, 64
4, 260280, Note_on_c, 2, 64, 0
4, 261120, Note_on_c, 2, 64, 64
4, 262270, Note_on_c, 2, 64, 0
4, 262560, Note_on_c, 2, 62, 64
4, 262680, Note_on_c, 2, 62, 0
4, 263040, Note_on_c, 2, 61, 64
4, 263160, Note_on_c, 2, 61, 0
4, 263520, Note_on_c, 2, 59, 64
4, 263640, Note_on_c, 2, 59, 0
4, 264000, Note_on_c, 2, 57, 64
4, 264120, Note_on_c, 2, 57, 0
4, 264960, Note_on_c, 2, 69, 64
4, 266110, Note_on_c, 2, 69, 0
4, 266400, Note_on_c, 2, 67, 64
4, 266520, Note_on_c, 2, 67, 0
4, 266880, Note_on_c, 2, 66, 64
4, 267000, Note_on_c, 2, 66, 0
4, 267360, Note_on_c, 2, 64, 64
4, 267480, Note_on_c, 2, 64, 0
4, 267840, Note_on_c, 2, 62, 64
4, 267960, Note_on_c, 2, 62, 0
4, 282240, Note_on_c, 2, 67, 96
4, 282240, Note_on_c, 2, 59, 96
4, 282620, Note_on_c, 2, 59, 0
4, 282620, Note_on_c, 2, 67, 0
4, 282720, Note_on_c, 2, 67, 96
4, 282720, Note_on_c, 2, 59, 96
4, 282910, Note_on_c, 2, 59, 0
4, 282910, Note_on_c, 2, 67, 0
4, 282960, Note_on_c, 2, 67, 96
4, 282960, Note_on_c, 2, 59, 96
4, 283150, Note_on_c, 2, 59, 0
4, 283150, Note_on_c, 2, 67, 0
4, 283200, Note_on_c, 2, 69, 96
4, 283200, Note_on_c, 2, 62, 96
4, 283580, Note_on_c, 2, 62, 0
4, 283580, Note_on_c, 2, 69, 0
4, 283680, Note_on_c, 2, 69, 96
4, 283680, Note_on_c, 2, 62, 96
4, 283870, Note_on_c, 2, 62, 0
4, 283870, Note_on_c, 2, 69, 0
4, 283920, Note_on_c, 2, 69, 96
4, 283920, Note_on_c, 2, 62, 96
4, 284110, Note_on_c, 2, 62, 0
4, 284110, Note_on_c, 2, 69, 0
4, 284160, Note_on_c, 2, 71, 96
4, 284160, Note_on_c, 2, 67, 96
4, 284540, Note_on_c, 2, 67, 0
4, 284540, Note_on_c, 2, 71, 0
4, 284640, Note_on_c, 2, 71, 96
4, 284640, Note_on_c, 2, 67, 96
4, 284830, Note_on_c, 2, 67, 0
4, 284830, Note_on_c, 2, 71, 0
4, 284880, Note_on_c, 2, 71, 96
4, 284880, Note_on_c, 2, 67, 96
4, 285070, Note_on_c, 2, 67, 0
4, 285070, Note_on_c, 2, 71, 0
4, 285120, Note_on_c, 2, 69, 96
4, 285120, Note_on_c, 2, 62, 96
4, 285500, Note_on_c, 2, 62, 0
4, 285500, Note_on_c, 2, 69, 0
4, 301440, Note_on_c, 2, 70, 96
4, 301440, Note_on_c, 2, 65, 96
4, 303740, Note_on_c, 2, 65, 0
4, 303740, Note_on_c, 2, 70, 0
4, 309120, Note_on_c, 2, 72, 96
4, 309120, Note_on_c, 2, 69, 96
4, 311420, Note_on_c, 2, 69, 0
4, 311420, Note_on_c, 2, 72, 0
4, 316800, Note_on_c, 2, 70, 96
4, 316800, Note_on_c, 2, 67, 96
4, 319100, Note_on_c, 2, 67, 0
4, 319100, Note_on_c, 2, 70, 0
4, 324480, Note_on_c, 2, 76, 96
4, 324480, Note_on_c, 2, 67, 96
4, 326780, Note_on_c, 2, 67, 0
4, 326780, Note_on_c, 2, 76, 0
4, 332160, Note_on_c, 2, 69, 96
4, 332160, Note_on_c, 2, 65, 96
4, 334460, Note_on_c, 2, 65, 0
4, 334460, Note_on_c, 2, 69, 0
4, 339840, Note_on_c, 2, 77, 96
4, 339840, Note_on_c, 2, 71, 96
4, 342140, Note_on_c, 2, 71, 0
4, 342140, Note_on_c, 2, 77, 0
4, 362880, Note_on_c, 2, 76, 96
4, 362880, Note_on_c, 2, 73, 96
4, 367100, Note_on_c, 2, 73, 0
4, 367100, Note_on_c, 2, 76, 0
4, 382080, Note_on_c, 2, 74, 96
4, 382080, Note_on_c, 2, 69, 96
4, 382460, Note_on_c, 2, 69, 0
4, 382460, Note_on_c, 2, 74, 0
4, 382560, Note_on_c, 2, 74, 96
4, 382560, Note_on_c, 2, 69, 96
4, 382750, Note_on_c, 2, 69, 0
4, 382750, Note_on_c, 2, 74, 0
4, 382800, Note_on_c, 2, 74, 96
4, 382800, Note_on_c, 2, 69, 96
4, 382990, Note_on_c, 2, 69, 0
4, 382990, Note_on_c, 2, 74, 0
4, 383040, Note_on_c, 2, 76, 96
4, 383040, Note_on_c, 2, 73, 96
4, 383420, Note_on_c, 2, 73, 0
4, 383420, Note_on_c, 2, 76, 0
4, 383520, Note_on_c, 2, 76, 96
4, 383520, Note_on_c, 2, 73, 96
4, 383710, Note_on_c, 2, 73, 0
4, 383710, Note_on_c, 2, 76, 0
4, 383760, Note_on_c, 2, 76, 96
4, 383760, Note_on_c, 2, 73, 96
4, 383950, Note_on_c, 2, 73, 0
4, 383950, Note_on_c, 2, 76, 0
4, 384000, Note_on_c, 2, 78, 96
4, 384000, Note_on_c, 2, 74, 96
4, 384380, Note_on_c, 2, 74, 0
4, 384380, Note_on_c, 2, 78, 0
4, 384480, Note_on_c, 2, 78, 96
4, 384480, Note_on_c, 2, 74, 96
4, 384670, Note_on_c, 2, 74, 0
4, 384670, Note_on_c, 2, 78, 0
4, 384720, Note_on_c, 2, 78, 96
4, 384720, Note_on_c, 2, 74, 96
4, 384910, Note_on_c, 2, 74, 0
4, 384910, Note_on_c, 2, 78, 0
4, 384960, Note_on_c, 2, 76, 96
4, 384960, Note_on_c, 2, 73, 96
4, 385340, Note_on_c, 2, 73, 0
4, 385340, Note_on_c, 2, 76, 0
4, 402720, Note_on_c, 2, 73, 96
4, 402720, Note_on_c, 2, 67, 96
4, 403200, Note_on_c, 2, 67, 0
4, 403200, Note_on_c, 2, 73, 0
4, 403200, Note_on_c, 2, 74, 96
4, 403200, Note_on_c, 2, 66, 96
4, 403580, Note_on_c, 2, 66, 0
4, 403580, Note_on_c, 2, 74, 0
4, 404640, Note_on_c, 2, 73, 96
4, 404640, Note_on_c, 2, 67, 96
4, 405120, Note_on_c, 2, 67, 0
4, 405120, Note_on_c, 2, 73, 0
4, 405120, Note_on_c, 2, 74, 96
4, 405120, Note_on_c, 2, 66, 96
4, 405500, Note_on_c, 2, 66, 0
4, 405500, Note_on_c, 2, 74, 0
4, 405600, Note_on_c, 2, 66, 96
4, 405790, Note_on_c, 2, 66, 0
4, 405840, Note_on_c, 2, 66, 96
4, 406030, Note_on_c, 2, 66, 0
4, 406080, Note_on_c, 2, 66, 96
4, 406460, Note_on_c, 2, 66, 0
4, 406560, Note_on_c, 2, 69, 96
4, 406750, Note_on_c, 2, 69, 0
4, 406800, Note_on_c, 2, 69, 96
4, 406990, Note_on_c, 2, 69, 0
4, 407040, Note_on_c, 2, 69, 96
4, 407420, Note_on_c, 2, 69, 0
4, 407520, Note_on_c, 2, 74, 96
4, 407710, Note_on_c, 2, 74, 0
4, 407760, Note_on_c, 2, 74, 96
4, 407950, Note_on_c, 2, 74, 0
4, 408000, Note_on_c, 2, 74, 96
4, 408190, Note_on_c, 2, 74, 0
4, 408240, Note_on_c, 2, 69, 96
4, 408430, Note_on_c, 2, 69, 0
4, 408480, Note_on_c, 2, 66, 96
4, 408670, Note_on_c, 2, 66, 0
4, 408720, Note_on_c, 2, 62, 96
4, 408910, Note_on_c, 2, 62, 0
4, 408960, Note_on_c, 2, 69, 96
4, 409340, Note_on_c, 2, 69, 0
4, 409440, Note_on_c, 2, 76, 96
4, 409440, Note_on_c, 2, 73, 96
4, 409820, Note_on_c, 2, 73, 0
4, 409820, Note_on_c, 2, 76, 0
4, 409920, Note_on_c, 2, 78, 96
4, 409920, Note_on_c, 2, 74, 96
4, 410300, Note_on_c, 2, 74, 0
4, 410300, Note_on_c, 2, 78, 0
4, 410400, Note_on_c, 2, 78, 96
4, 410400, Note_on_c, 2, 74, 96
4, 410780, Note_on_c, 2, 74, 0
4, 410780, Note_on_c, 2, 78, 0
4, 410880, Note_on_c, 2, 76, 96
4, 410880, Note_on_c, 2, 73, 96
4, 411260, Note_on_c, 2, 73, 0
4, 411260, Note_on_c, 2, 76, 0
4, 411360, Note_on_c, 2, 76, 96
4, 411360, Note_on_c, 2, 73, 96
4, 411740, Note_on_c, 2, 73, 0
4, 411740, Note_on_c, 2, 76, 0
4, 411840, Note_on_c, 2, 78, 96
4, 411840, Note_on_c, 2, 74, 96
4, 412220, Note_on_c, 2, 74, 0
4, 412220, Note_on_c, 2, 78, 0
4, 412320, Note_on_c, 2, 78, 96
4, 412320, Note_on_c, 2, 74, 96
4, 412700, Note_on_c, 2, 74, 0
4, 412700, Note_on_c, 2, 78, 0
4, 412800, Note_on_c, 2, 76, 96
4, 412800, Note_on_c, 2, 73, 96
4, 413180, Note_on_c, 2, 73, 0
4, 413180, Note_on_c, 2, 76, 0
4, 413280, Note_on_c, 2, 78, 96
4, 413280, Note_on_c, 2, 74, 96
4, 413660, Note_on_c, 2, 74, 0
4, 413660, Note_on_c, 2, 78, 0
4, 413760, Note_on_c, 2, 76, 96
4, 413760, Note_on_c, 2, 73, 96
4, 414140, Note_on_c, 2, 73, 0
4, 414140, Note_on_c, 2, 76, 0
4, 414240, Note_on_c, 2, 78, 96
4, 414240, Note_on_c, 2, 74, 96
4, 414620, Note_on_c, 2, 74, 0
4, 414620, Note_on_c, 2, 78, 0
4, 414720, Note_on_c, 2, 76, 96
4, 414720, Note_on_c, 2, 73, 96
4, 415100, Note_on_c, 2, 73, 0
4, 415100, Note_on_c, 2, 76, 0
4, 415200, Note_on_c, 2, 69, 96
4, 415390, Note_on_c, 2, 69, 0
4, 415440, Note_on_c, 2, 69, 96
4, 415630, Note_on_c, 2, 69, 0
4, 415680, Note_on_c, 2, 69, 96
4, 416060, Note_on_c, 2, 69, 0
4, 416640, Note_on_c, 2, 69, 96
4, 416640, Note_on_c, 2, 66, 96
4, 417790, Note_on_c, 2, 66, 0
4, 417790, Note_on_c, 2, 69, 0
4, 420480, Note_on_c, 2, 71, 96
4, 420480, Note_on_c, 2, 67, 96
4, 421630, Note_on_c, 2, 67, 0
4, 421630, Note_on_c, 2, 71, 0
4, 424320, Note_on_c, 2, 73, 96
4, 424320, Note_on_c, 2, 67, 96
4, 425470, Note_on_c, 2, 67, 0
4, 425470, Note_on_c, 2, 73, 0
4, 428160, Note_on_c, 2, 66, 64
4, 428160, Note_on_c, 2, 62, 64
4, 428640, Note_on_c, 2, 62, 0
4, 428640, Note_on_c, 2, 66, 0
4, 428640, Note_on_c, 2, 67, 64
4, 428640, Note_on_c, 2, 64, 64
4, 429120, Note_on_c, 2, 64, 0
4, 429120, Note_on_c, 2, 67, 0
4, 429120, Note_on_c, 2, 69, 64
4, 429120, Note_on_c, 2, 66, 64
4, 429500, Note_on_c, 2, 66, 0
4, 429500, Note_on_c, 2, 69, 0
4, 430080, Note_on_c, 2, 71, 64
4, 430080, Note_on_c, 2, 67, 64
4, 430560, Note_on_c, 2, 67, 0
4, 430560, Note_on_c, 2, 71, 0
4, 430560, Note_on_c, 2, 73, 64
4, 430560, Note_on_c, 2, 69, 64
4, 431040, Note_on_c, 2, 69, 0
4, 431040, Note_on_c, 2, 73, 0
4, 431040, Note_on_c, 2, 74, 64
4, 431040, Note_on_c, 2, 71, 64
4, 431520, Note_on_c, 2, 71, 0
4, 431520, Note_on_c, 2, 74, 0
4, 431520, Note_on_c, 2, 67, 64
4, 431520, Note_on_c, 2, 64, 64
4, 431900, Note_on_c, 2, 64, 0
4, 431900, Note_on_c, 2, 67, 0
4, 432000, Note_on_c, 2, 66, 64
4, 432000, Note_on_c, 2, 62, 64
4, 432480, Note_on_c, 2, 62, 0
4, 432480, Note_on_c, 2, 66, 0
4, 432480, Note_on_c, 2, 67, 64
4, 432480, Note_on_c, 2, 64, 64
4, 432960, Note_on_c, 2, 64, 0
4, 432960, Note_on_c, 2, 67, 0
4, 432960, Note_on_c, 2, 69, 64
4, 432960, Note_on_c, 2, 66, 64
4, 433340, Note_on_c, 2, 66, 0
4, 433340, Note_on_c, 2, 69, 0
4, 433920, Note_on_c, 2, 71, 64
4, 433920, Note_on_c, 2, 67, 64
4, 434400, Note_on_c, 2, 67, 0
4, 434400, Note_on_c, 2, 71, 0
4, 434400, Note_on_c, 2, 73, 64
4, 434400, Note_on_c, 2, 69, 64
4, 434880, Note_on_c, 2, 69, 0
4, 434880, Note_on_c, 2, 73, 0
4, 434880, Note_on_c, 2, 74, 64
4, 434880, Note_on_c, 2, 71, 64
4, 435360, Note_on_c, 2, 71, 0
4, 435360, Note_on_c, 2, 74, 0
4, 435360, Note_on_c, 2, 67, 64
4, 435360, Note_on_c, 2, 64, 64
4, 435740, Note_on_c, 2, 64, 0
4, 435740, Note_on_c, 2, 67, 0
4, 435840, Note_on_c, 2, 66, 64
4, 435840, Note_on_c, 2, 62, 64
4, 436320, Note_on_c, 2, 62, 0
4, 436320, Note_on_c, 2, 66, 0
4, 436320, Note_on_c, 2, 67, 64
4, 436320, Note_on_c, 2, 64, 64
4, 436800, Note_on_c, 2, 64, 0
4, 436800, Note_on_c, 2, 67, 0
4, 436800, Note_on_c, 2, 69, 64
4, 436800, Note_on_c, 2, 66, 64
4, 437180, Note_on_c, 2, 66, 0
4, 437180, Note_on_c, 2, 69, 0
4, 437760, Note_on_c, 2, 73, 96
4, 437760, Note_on_c, 2, 70, 96
4, 439290, Note_on_c, 2, 70, 0
4, 439290, Note_on_c, 2, 73, 0
4, 439680, Note_on_c, 2, 74, 96
4, 439680, Note_on_c, 2, 69, 96
4, 441210, Note_on_c, 2, 69, 0
4, 441210, Note_on_c, 2, 74, 0
4, 441600, Note_on_c, 2, 73, 96
4, 441600, Note_on_c, 2, 70, 96
4, 443130, Note_on_c, 2, 70, 0
4, 443130, Note_on_c, 2, 73, 0
4, 443520, Note_on_c, 2, 74, 96
4, 443520, Note_on_c, 2, 69, 96
4, 445050, Note_on_c, 2, 69, 0
4, 445050, Note_on_c, 2, 74, 0
4, 445440, Note_on_c, 2, 73, 96
4, 445440, Note_on_c, 2, 70, 96
4, 446970, Note_on_c, 2, 70, 0
4, 446970, Note_on_c, 2, 73, 0
4, 447360, Note_on_c, 2, 74, 96
4, 447360, Note_on_c, 2, 71, 96
4, 448120, Note_on_c, 2, 71, 0
4, 448120, Note_on_c, 2, 74, 0
4, 448320, Note_on_c, 2, 77, 96
4, 448320, Note_on_c, 2, 74, 96
4, 449080, Note_on_c, 2, 74, 0
4, 449080, Note_on_c, 2, 77, 0
4, 449280, Note_on_c, 2, 76, 96
4, 449280, Note_on_c, 2, 73, 96
4, 449660, Note_on_c, 2, 73, 0
4, 449660, Note_on_c, 2, 76, 0
4, 449760, Note_on_c, 2, 77, 96
4, 449760, Note_on_c, 2, 74, 96
4, 450140, Note_on_c, 2, 74, 0
4, 450140, Note_on_c, 2, 77, 0
4, 450240, Note_on_c, 2, 76, 96
4, 450240, Note_on_c, 2, 73, 96
4, 450620, Note_on_c, 2, 73, 0
4, 450620, Note_on_c, 2, 76, 0
4, 450720, Note_on_c, 2, 77, 96
4, 450720, Note_on_c, 2, 74, 96
4, 451100, Note_on_c, 2, 74, 0
4, 451100, Note_on_c, 2, 77, 0
4, 451200, Note_on_c, 2, 76, 96
4, 451200, Note_on_c, 2, 73, 96
4, 451580, Note_on_c, 2, 73, 0
4, 451580, Note_on_c, 2, 76, 0
4, 451680, Note_on_c, 2, 77, 96
4, 451680, Note_on_c, 2, 74, 96
4, 452060, Note_on_c, 2, 74, 0
4, 452060, Note_on_c, 2, 77, 0
4, 452160, Note_on_c, 2, 76, 96
4, 452160, Note_on_c, 2, 73, 96
4, 452540, Note_on_c, 2, 73, 0
4, 452540, Note_on_c, 2, 76, 0
4, 452640, Note_on_c, 2, 77, 96
4, 452640, Note_on_c, 2, 74, 96
4, 453020, Note_on_c, 2, 74, 0
4, 453020, Note_on_c, 2, 77, 0
4, 453120, Note_on_c, 2, 76, 96
4, 453120, Note_on_c, 2, 73, 96
4, 453500, Note_on_c, 2, 73, 0
4, 453500, Note_on_c, 2, 76, 0
4, 454080, Note_on_c, 2, 69, 96
4, 454460, Note_on_c, 2, 69, 0
4, 454560, Note_on_c, 2, 69, 96
4, 454940, Note_on_c, 2, 69, 0
4, 455040, Note_on_c, 2, 69, 96
4, 455800, Note_on_c, 2, 69, 0
4, 456960, Note_on_c, 2, 67, 127
4, 458110, Note_on_c, 2, 67, 0
4, 458400, Note_on_c, 2, 66, 96
4, 458520, Note_on_c, 2, 66, 0
4, 458880, Note_on_c, 2, 64, 96
4, 459000, Note_on_c, 2, 64, 0
4, 459360, Note_on_c, 2, 62, 96
4, 459480, Note_on_c, 2, 62, 0
4, 459840, Note_on_c, 2, 61, 96
4, 459960, Note_on_c, 2, 61, 0
4, 464640, Note_on_c, 2, 67, 127
4, 465790, Note_on_c, 2, 67, 0
4, 466080, Note_on_c, 2, 66, 96
4, 466200, Note_on_c, 2, 66, 0
4, 466560, Note_on_c, 2, 64, 96
4, 466680, Note_on_c, 2, 64, 0
4, 467040, Note_on_c, 2, 62, 96
4, 467160, Note_on_c, 2, 62, 0
4, 467520, Note_on_c, 2, 61, 96
4, 467640, Note_on_c, 2, 61, 0
4, 499200, Note_on_c, 2, 69, 96
4, 499200, Note_on_c, 2, 66, 96
4, 500730, Note_on_c, 2, 66, 0
4, 500730, Note_on_c, 2, 69, 0
4, 501120, Note_on_c, 2, 78, 96
4, 501120, Note_on_c, 2, 74, 96
4, 502650, Note_on_c, 2, 74, 0
4, 502650, Note_on_c, 2, 78, 0
4, 503040, Note_on_c, 2, 76, 96
4, 503040, Note_on_c, 2, 71, 96
4, 506490, Note_on_c, 2, 71, 0
4, 506490, Note_on_c, 2, 76, 0
4, 506880, Note_on_c, 2, 78, 96
4, 506880, Note_on_c, 2, 74, 96
4, 509180, Note_on_c, 2, 74, 0
4, 509180, Note_on_c, 2, 78, 0
4, 509280, Note_on_c, 2, 79, 96
4, 509280, Note_on_c, 2, 76, 96
4, 509470, Note_on_c, 2, 76, 0
4, 509470, Note_on_c, 2, 79, 0
4, 509520, Note_on_c, 2, 81, 96
4, 509520, Note_on_c, 2, 78, 96
4, 509710, Note_on_c, 2, 78, 0
4, 509710, Note_on_c, 2, 81, 0
4, 509760, Note_on_c, 2, 81, 96
4, 509760, Note_on_c, 2, 78, 96
4, 510000, Note_on_c, 2, 78, 0
4, 510000, Note_on_c, 2, 81, 0
4, 510000, Note_on_c, 2, 79, 96
4, 510000, Note_on_c, 2, 76, 96
4, 510240, Note_on_c, 2, 76, 0
4, 510240, Note_on_c, 2, 79, 0
4, 510240, Note_on_c, 2, 78, 96
4, 510240, Note_on_c, 2, 74, 96
4, 510300, Note_on_c, 2, 74, 0
4, 510300, Note_on_c, 2, 78, 0
4, 510480, Note_on_c, 2, 76, 96
4, 510480, Note_on_c, 2, 73, 96
4, 510540, Note_on_c, 2, 73, 0
4, 510540, Note_on_c, 2, 76, 0
4, 510720, Note_on_c, 2, 74, 96
4, 512640, Note_on_c, 2, 78, 96
4, 514170, Note_on_c, 2, 78, 0
4, 514170, Note_on_c, 2, 74, 0
4, 514560, Note_on_c, 2, 76, 96
4, 514560, Note_on_c, 2, 71, 96
4, 518010, Note_on_c, 2, 71, 0
4, 518010, Note_on_c, 2, 76, 0
4, 518400, Note_on_c, 2, 78, 96
4, 518400, Note_on_c, 2, 74, 96
4, 520700, Note_on_c, 2, 74, 0
4, 520700, Note_on_c, 2, 78, 0
4, 520800, Note_on_c, 2, 79, 96
4, 520800, Note_on_c, 2, 76, 96
4, 520990, Note_on_c, 2, 76, 0
4, 520990, Note_on_c, 2, 79, 0
4, 521040, Note_on_c, 2, 81, 96
4, 521040, Note_on_c, 2, 78, 96
4, 521230, Note_on_c, 2, 78, 0
4, 521230, Note_on_c, 2, 81, 0
4, 521280, Note_on_c, 2, 81, 96
4, 521280, Note_on_c, 2, 78, 96
4, 521520, Note_on_c, 2, 78, 0
4, 521520, Note_on_c, 2, 81, 0
4, 521520, Note_on_c, 2, 79, 96
4, 521520, Note_on_c, 2, 76, 96
4, 521760, Note_on_c, 2, 76, 0
4, 521760, Note_on_c, 2, 79, 0
4, 521760, Note_on_c, 2, 78, 96
4, 521760, Note_on_c, 2, 74, 96
4, 521820, Note_on_c, 2, 74, 0
4, 521820, Note_on_c, 2, 78, 0
4, 522000, Note_on_c, 2, 76, 96
4, 522000, Note_on_c, 2, 73, 96
4, 522060, Note_on_c, 2, 73, 0
4, 522060, Note_on_c, 2, 76, 0
4, 522240, Note_on_c, 2, 74, 96
4, 522620, Note_on_c, 2, 74, 0
4, 523680, Note_on_c, 2, 73, 96
4, 523680, Note_on_c, 2, 67, 96
4, 524160, Note_on_c, 2, 67, 0
4, 524160, Note_on_c, 2, 73, 0
4, 524160, Note_on_c, 2, 74, 96
4, 524160, Note_on_c, 2, 66, 96
4, 524540, Note_on_c, 2, 66, 0
4, 524540, Note_on_c, 2, 74, 0
4, 525600, Note_on_c, 2, 73, 96
4, 525600, Note_on_c, 2, 67, 96
4, 526080, Note_on_c, 2, 67, 0
4, 526080, Note_on_c, 2, 73, 0
4, 526080, Note_on_c, 2, 74, 96
4, 526080, Note_on_c, 2, 66, 96
4, 526460, Note_on_c, 2, 66, 0
4, 526460, Note_on_c, 2, 74, 0
4, 527520, Note_on_c, 2, 73, 96
4, 527520, Note_on_c, 2, 67, 96
4, 528000, Note_on_c, 2, 67, 0
4, 528000, Note_on_c, 2, 73, 0
4, 528000, Note_on_c, 2, 74, 96
4, 528000, Note_on_c, 2, 66, 96
4, 528380, Note_on_c, 2, 66, 0
4, 528380, Note_on_c, 2, 74, 0
4, 529440, Note_on_c, 2, 73, 96
4, 529440, Note_on_c, 2, 67, 96
4, 529920, Note_on_c, 2, 67, 0
4, 529920, Note_on_c, 2, 73, 0
4, 529920, Note_on_c, 2, 74, 96
4, 529920, Note_on_c, 2, 66, 96
4, 530300, Note_on_c, 2, 66, 0
4, 530300, Note_on_c, 2, 74, 0
4, 530400, Note_on_c, 2, 66, 96
4, 530590, Note_on_c, 2, 66, 0
4, 530640, Note_on_c, 2, 66, 96
4, 530830, Note_on_c, 2, 66, 0
4, 530880, Note_on_c, 2, 66, 96
4, 531260, Note_on_c, 2, 66, 0
4, 531360, Note_on_c, 2, 69, 96
4, 531550, Note_on_c, 2, 69, 0
4, 531600, Note_on_c, 2, 69, 96
4, 531790, Note_on_c, 2, 69, 0
4, 531840, Note_on_c, 2, 69, 96
4, 532220, Note_on_c, 2, 69, 0
4, 532320, Note_on_c, 2, 72, 96
4, 532510, Note_on_c, 2, 72, 0
4, 532560, Note_on_c, 2, 72, 96
4, 532750, Note_on_c, 2, 72, 0
4, 532800, Note_on_c, 2, 72, 96
4, 533180, Note_on_c, 2, 72, 0
4, 533280, Note_on_c, 2, 72, 96
4, 533660, Note_on_c, 2, 72, 0
4, 533760, Note_on_c, 2, 72, 96
4, 534910, Note_on_c, 2, 72, 0
4, 535200, Note_on_c, 2, 71, 96
4, 535320, Note_on_c, 2, 71, 0
4, 535680, Note_on_c, 2, 69, 96
4, 535800, Note_on_c, 2, 69, 0
4, 536160, Note_on_c, 2, 67, 96
4, 536280, Note_on_c, 2, 67, 0
4, 536640, Note_on_c, 2, 66, 96
4, 536760, Note_on_c, 2, 66, 0
4, 537600, Note_on_c, 2, 74, 96
4, 538750, Note_on_c, 2, 74, 0
4, 539040, Note_on_c, 2, 72, 96
4, 539160, Note_on_c, 2, 72, 0
4, 539520, Note_on_c, 2, 71, 96
4, 539640, Note_on_c, 2, 71, 0
4, 540000, Note_on_c, 2, 69, 96
4, 540120, Note_on_c, 2, 69, 0
4, 540480, Note_on_c, 2, 67, 96
4, 540600, Note_on_c, 2, 67, 0
4, 540600, End_track
5, 0, Start_track
5, 0, MIDI_port, 0
5, 0, Title_t, "Fagotto I, II                       "
5, 0, Program_c, 3, 70
5, 0, Control_c, 3, 7, 70
5, 0, Control_c, 3, 10, 60
5, 0, Control_c, 3, 121, 0
5, 360, Control_c, 3, 101, 0
5, 360, Control_c, 3, 100, 0
5, 360, Control_c, 3, 6, 12
5, 360, Control_c, 3, 38, 0
5, 480, Control_c, 3, 5, 0
5, 600, Control_c, 3, 65, 0
5, 720, Control_c, 3, 67, 0
5, 960, Pitch_bend_c, 3, 8192
5, 1080, Control_c, 3, 64, 0
5, 1200, Control_c, 3, 11, 127
5, 1320, Control_c, 3, 1, 0
5, 1560, Control_c, 3, 91, 100
5, 1680, Control_c, 3, 93, 10
5, 1920, Note_on_c, 3, 50, 96
5, 2680, Note_on_c, 3, 50, 0
5, 2880, Note_on_c, 3, 50, 96
5, 3640, Note_on_c, 3, 50, 0
5, 3840, Note_on_c, 3, 50, 96
5, 4600, Note_on_c, 3, 50, 0
5, 5760, Note_on_c, 3, 49, 96
5, 6520, Note_on_c, 3, 49, 0
5, 6720, Note_on_c, 3, 49, 96
5, 7480, Note_on_c, 3, 49, 0
5, 7680, Note_on_c, 3, 49, 96
5, 8440, Note_on_c, 3, 49, 0
5, 13440, Note_on_c, 3, 57, 64
5, 14970, Note_on_c, 3, 57, 0
5, 15360, Note_on_c, 3, 45, 64
5, 16890, Note_on_c, 3, 45, 0
5, 17280, Note_on_c, 3, 62, 64
5, 17280, Note_on_c, 3, 50, 64
5, 18810, Note_on_c, 3, 50, 0
5, 18810, Note_on_c, 3, 62, 0
5, 19200, Note_on_c, 3, 50, 64
5, 19200, Note_on_c, 3, 38, 64
5, 20730, Note_on_c, 3, 38, 0
5, 20730, Note_on_c, 3, 50, 0
5, 21120, Note_on_c, 3, 57, 64
5, 21120, Note_on_c, 3, 45, 64
5, 22270, Note_on_c, 3, 45, 0
5, 22270, Note_on_c, 3, 57, 0
5, 24960, Note_on_c, 3, 53, 64
5, 24960, Note_on_c, 3, 50, 64
5, 26490, Note_on_c, 3, 50, 0
5, 26490, Note_on_c, 3, 53, 0
5, 26880, Note_on_c, 3, 55, 64
5, 26880, Note_on_c, 3, 52, 64
5, 28410, Note_on_c, 3, 52, 0
5, 28410, Note_on_c, 3, 55, 0
5, 28800, Note_on_c, 3, 53, 64
5, 28800, Note_on_c, 3, 50, 64
5, 28990, Note_on_c, 3, 50, 0
5, 28990, Note_on_c, 3, 53, 0
5, 29280, Note_on_c, 3, 60, 101
5, 29280, Note_on_c, 3, 57, 101
5, 29760, Note_on_c, 3, 57, 0
5, 29760, Note_on_c, 3, 60, 0
5, 29760, Note_on_c, 3, 58, 64
5, 29760, Note_on_c, 3, 55, 64
5, 29950, Note_on_c, 3, 55, 0
5, 29950, Note_on_c, 3, 58, 0
5, 30240, Note_on_c, 3, 60, 101
5, 30240, Note_on_c, 3, 57, 101
5, 30720, Note_on_c, 3, 57, 0
5, 30720, Note_on_c, 3, 60, 0
5, 30720, Note_on_c, 3, 58, 64
5, 30720, Note_on_c, 3, 55, 64
5, 30910, Note_on_c, 3, 55, 0
5, 30910, Note_on_c, 3, 58, 0
5, 31200, Note_on_c, 3, 60, 101
5, 31200, Note_on_c, 3, 57, 101
5, 31680, Note_on_c, 3, 57, 0
5, 31680, Note_on_c, 3, 60, 0
5, 31680, Note_on_c, 3, 58, 64
5, 31680, Note_on_c, 3, 55, 64
5, 31870, Note_on_c, 3, 55, 0
5, 31870, Note_on_c, 3, 58, 0
5, 32160, Note_on_c, 3, 60, 101
5, 32160, Note_on_c, 3, 57, 101
5, 32640, Note_on_c, 3, 57, 0
5, 32640, Note_on_c, 3, 60, 0
5, 32640, Note_on_c, 3, 58, 64
5, 32640, Note_on_c, 3, 55, 64
5, 33020, Note_on_c, 3, 55, 0
5, 33020, Note_on_c, 3, 58, 0
5, 34560, Note_on_c, 3, 64, 96
5, 34560, Note_on_c, 3, 55, 96
5, 36480, Note_on_c, 3, 55, 0
5, 36480, Note_on_c, 3, 64, 0
5, 36480, Note_on_c, 3, 62, 64
5, 36480, Note_on_c, 3, 53, 64
5, 36860, Note_on_c, 3, 53, 0
5, 36860, Note_on_c, 3, 62, 0
5, 38400, Note_on_c, 3, 58, 96
5, 38400, Note_on_c, 3, 62, 96
5, 40320, Note_on_c, 3, 62, 0
5, 40320, Note_on_c, 3, 63, 96
5, 41080, Note_on_c, 3, 63, 0
5, 41080, Note_on_c, 3, 58, 0
5, 41280, Note_on_c, 3, 55, 64
5, 41280, Note_on_c, 3, 51, 64
5, 42240, Note_on_c, 3, 51, 0
5, 42240, Note_on_c, 3, 55, 0
5, 42240, Note_on_c, 3, 53, 64
5, 42240, Note_on_c, 3, 50, 64
5, 43200, Note_on_c, 3, 50, 0
5, 43200, Note_on_c, 3, 53, 0
5, 43200, Note_on_c, 3, 52, 64
5, 43200, Note_on_c, 3, 49, 64
5, 43960, Note_on_c, 3, 49, 0
5, 43960, Note_on_c, 3, 52, 0
5, 44160, Note_on_c, 3, 62, 64
5, 44160, Note_on_c, 3, 50, 64
5, 44920, Note_on_c, 3, 50, 0
5, 45120, Note_on_c, 3, 57, 64
5, 45690, Note_on_c, 3, 62, 0
5, 45880, Note_on_c, 3, 57, 0
5, 46080, Note_on_c, 3, 63, 64
5, 46080, Note_on_c, 3, 58, 64
5, 46840, Note_on_c, 3, 58, 0
5, 46840, Note_on_c, 3, 63, 0
5, 47040, Note_on_c, 3, 64, 64
5, 47040, Note_on_c, 3, 59, 64
5, 47800, Note_on_c, 3, 59, 0
5, 47800, Note_on_c, 3, 64, 0
5, 48000, Note_on_c, 3, 65, 64
5, 48000, Note_on_c, 3, 60, 64
5, 48760, Note_on_c, 3, 65, 0
5, 48960, Note_on_c, 3, 66, 64
5, 49530, Note_on_c, 3, 60, 0
5, 49720, Note_on_c, 3, 66, 0
5, 49920, Note_on_c, 3, 67, 64
5, 49920, Note_on_c, 3, 62, 64
5, 51450, Note_on_c, 3, 62, 0
5, 51450, Note_on_c, 3, 67, 0
5, 51840, Note_on_c, 3, 63, 96
5, 51840, Note_on_c, 3, 55, 96
5, 53370, Note_on_c, 3, 55, 0
5, 53370, Note_on_c, 3, 63, 0
5, 53760, Note_on_c, 3, 65, 96
5, 53760, Note_on_c, 3, 56, 96
5, 55680, Note_on_c, 3, 56, 0
5, 55680, Note_on_c, 3, 65, 0
5, 55680, Note_on_c, 3, 65, 64
5, 55680, Note_on_c, 3, 57, 64
5, 56440, Note_on_c, 3, 57, 0
5, 56440, Note_on_c, 3, 65, 0
5, 56640, Note_on_c, 3, 53, 64
5, 56640, Note_on_c, 3, 50, 64
5, 57600, Note_on_c, 3, 50, 0
5, 57600, Note_on_c, 3, 53, 0
5, 57600, Note_on_c, 3, 52, 64
5, 57600, Note_on_c, 3, 50, 64
5, 58360, Note_on_c, 3, 50, 0
5, 58560, Note_on_c, 3, 49, 64
5, 59130, Note_on_c, 3, 52, 0
5, 59320, Note_on_c, 3, 49, 0
5, 59520, Note_on_c, 3, 50, 48
5, 59900, Note_on_c, 3, 50, 0
5, 72960, Note_on_c, 3, 62, 96
5, 72960, Note_on_c, 3, 57, 96
5, 73340, Note_on_c, 3, 57, 0
5, 73340, Note_on_c, 3, 62, 0
5, 73440, Note_on_c, 3, 62, 96
5, 73440, Note_on_c, 3, 57, 96
5, 73630, Note_on_c, 3, 57, 0
5, 73630, Note_on_c, 3, 62, 0
5, 73680, Note_on_c, 3, 62, 96
5, 73680, Note_on_c, 3, 57, 96
5, 73870, Note_on_c, 3, 57, 0
5, 73870, Note_on_c, 3, 62, 0
5, 73920, Note_on_c, 3, 64, 96
5, 73920, Note_on_c, 3, 61, 96
5, 74300, Note_on_c, 3, 61, 0
5, 74300, Note_on_c, 3, 64, 0
5, 74400, Note_on_c, 3, 64, 96
5, 74400, Note_on_c, 3, 61, 96
5, 74590, Note_on_c, 3, 61, 0
5, 74590, Note_on_c, 3, 64, 0
5, 74640, Note_on_c, 3, 64, 96
5, 74640, Note_on_c, 3, 61, 96
5, 74830, Note_on_c, 3, 61, 0
5, 74830, Note_on_c, 3, 64, 0
5, 74880, Note_on_c, 3, 66, 96
5, 74880, Note_on_c, 3, 62, 96
5, 75260, Note_on_c, 3, 62, 0
5, 75260, Note_on_c, 3, 66, 0
5, 75360, Note_on_c, 3, 66, 96
5, 75360, Note_on_c, 3, 62, 96
5, 75550, Note_on_c, 3, 62, 0
5, 75550, Note_on_c, 3, 66, 0
5, 75600, Note_on_c, 3, 66, 96
5, 75600, Note_on_c, 3, 62, 96
5, 75790, Note_on_c, 3, 62, 0
5, 75790, Note_on_c, 3, 66, 0
5, 75840, Note_on_c, 3, 64, 96
5, 75840, Note_on_c, 3, 61, 96
5, 76220, Note_on_c, 3, 61, 0
5, 76220, Note_on_c, 3, 64, 0
5, 78720, Note_on_c, 3, 60, 96
5, 79680, Note_on_c, 3, 60, 0
5, 79680, Note_on_c, 3, 59, 96
5, 80160, Note_on_c, 3, 59, 0
5, 80160, Note_on_c, 3, 57, 96
5, 80540, Note_on_c, 3, 57, 0
5, 80640, Note_on_c, 3, 55, 96
5, 80880, Note_on_c, 3, 55, 0
5, 80880, Note_on_c, 3, 52, 96
5, 81120, Note_on_c, 3, 52, 0
5, 81120, Note_on_c, 3, 49, 96
5, 82080, Note_on_c, 3, 49, 0
5, 82080, Note_on_c, 3, 50, 96
5, 82460, Note_on_c, 3, 50, 0
5, 92160, Note_on_c, 3, 50, 96
5, 92220, Note_on_c, 3, 50, 0
5, 92400, Note_on_c, 3, 54, 96
5, 92460, Note_on_c, 3, 54, 0
5, 92640, Note_on_c, 3, 45, 96
5, 92700, Note_on_c, 3, 45, 0
5, 92880, Note_on_c, 3, 49, 96
5, 92940, Note_on_c, 3, 49, 0
5, 93120, Note_on_c, 3, 50, 96
5, 93180, Note_on_c, 3, 50, 0
5, 93360, Note_on_c, 3, 54, 96
5, 93420, Note_on_c, 3, 54, 0
5, 93600, Note_on_c, 3, 55, 96
5, 93660, Note_on_c, 3, 55, 0
5, 93840, Note_on_c, 3, 52, 96
5, 93900, Note_on_c, 3, 52, 0
5, 94080, Note_on_c, 3, 50, 96
5, 94140, Note_on_c, 3, 50, 0
5, 94320, Note_on_c, 3, 54, 96
5, 94380, Note_on_c, 3, 54, 0
5, 94560, Note_on_c, 3, 45, 96
5, 94620, Note_on_c, 3, 45, 0
5, 94800, Note_on_c, 3, 49, 96
5, 94860, Note_on_c, 3, 49, 0
5, 95040, Note_on_c, 3, 50, 96
5, 95100, Note_on_c, 3, 50, 0
5, 95280, Note_on_c, 3, 54, 96
5, 95340, Note_on_c, 3, 54, 0
5, 95520, Note_on_c, 3, 55, 96
5, 95580, Note_on_c, 3, 55, 0
5, 95760, Note_on_c, 3, 52, 96
5, 95820, Note_on_c, 3, 52, 0
5, 96000, Note_on_c, 3, 50, 96
5, 96240, Note_on_c, 3, 50, 0
5, 96240, Note_on_c, 3, 45, 96
5, 96430, Note_on_c, 3, 45, 0
5, 96480, Note_on_c, 3, 54, 96
5, 96540, Note_on_c, 3, 54, 0
5, 96720, Note_on_c, 3, 54, 96
5, 96780, Note_on_c, 3, 54, 0
5, 96960, Note_on_c, 3, 54, 96
5, 97200, Note_on_c, 3, 54, 0
5, 97200, Note_on_c, 3, 50, 96
5, 97390, Note_on_c, 3, 50, 0
5, 97440, Note_on_c, 3, 57, 96
5, 97500, Note_on_c, 3, 57, 0
5, 97680, Note_on_c, 3, 57, 96
5, 97740, Note_on_c, 3, 57, 0
5, 97920, Note_on_c, 3, 57, 96
5, 98160, Note_on_c, 3, 57, 0
5, 98160, Note_on_c, 3, 54, 96
5, 98350, Note_on_c, 3, 54, 0
5, 98400, Note_on_c, 3, 62, 96
5, 98460, Note_on_c, 3, 62, 0
5, 98640, Note_on_c, 3, 62, 96
5, 98700, Note_on_c, 3, 62, 0
5, 98880, Note_on_c, 3, 62, 96
5, 99070, Note_on_c, 3, 62, 0
5, 99120, Note_on_c, 3, 57, 96
5, 99310, Note_on_c, 3, 57, 0
5, 99360, Note_on_c, 3, 54, 96
5, 99550, Note_on_c, 3, 54, 0
5, 99600, Note_on_c, 3, 50, 96
5, 99790, Note_on_c, 3, 50, 0
5, 99840, Note_on_c, 3, 57, 96
5, 100030, Note_on_c, 3, 57, 0
5, 100080, Note_on_c, 3, 57, 96
5, 100270, Note_on_c, 3, 57, 0
5, 100320, Note_on_c, 3, 57, 96
5, 100510, Note_on_c, 3, 57, 0
5, 100560, Note_on_c, 3, 57, 96
5, 100750, Note_on_c, 3, 57, 0
5, 100800, Note_on_c, 3, 57, 96
5, 100990, Note_on_c, 3, 57, 0
5, 101040, Note_on_c, 3, 57, 96
5, 101230, Note_on_c, 3, 57, 0
5, 101280, Note_on_c, 3, 57, 96
5, 101470, Note_on_c, 3, 57, 0
5, 101520, Note_on_c, 3, 57, 96
5, 101710, Note_on_c, 3, 57, 0
5, 101760, Note_on_c, 3, 57, 96
5, 101950, Note_on_c, 3, 57, 0
5, 102000, Note_on_c, 3, 57, 96
5, 102190, Note_on_c, 3, 57, 0
5, 102240, Note_on_c, 3, 57, 96
5, 102430, Note_on_c, 3, 57, 0
5, 102480, Note_on_c, 3, 57, 96
5, 102670, Note_on_c, 3, 57, 0
5, 102720, Note_on_c, 3, 57, 96
5, 102910, Note_on_c, 3, 57, 0
5, 102960, Note_on_c, 3, 57, 96
5, 103150, Note_on_c, 3, 57, 0
5, 103200, Note_on_c, 3, 57, 96
5, 103390, Note_on_c, 3, 57, 0
5, 103440, Note_on_c, 3, 57, 96
5, 103630, Note_on_c, 3, 57, 0
5, 103680, Note_on_c, 3, 57, 96
5, 103870, Note_on_c, 3, 57, 0
5, 103920, Note_on_c, 3, 57, 96
5, 104110, Note_on_c, 3, 57, 0
5, 104160, Note_on_c, 3, 57, 96
5, 104350, Note_on_c, 3, 57, 0
5, 104400, Note_on_c, 3, 57, 96
5, 104590, Note_on_c, 3, 57, 0
5, 104640, Note_on_c, 3, 57, 96
5, 104830, Note_on_c, 3, 57, 0
5, 104880, Note_on_c, 3, 57, 96
5, 105070, Note_on_c, 3, 57, 0
5, 105120, Note_on_c, 3, 57, 96
5, 105310, Note_on_c, 3, 57, 0
5, 105360, Note_on_c, 3, 57, 96
5, 105550, Note_on_c, 3, 57, 0
5, 105600, Note_on_c, 3, 57, 96
5, 105980, Note_on_c, 3, 57, 0
5, 106080, Note_on_c, 3, 45, 96
5, 106270, Note_on_c, 3, 45, 0
5, 106320, Note_on_c, 3, 45, 96
5, 106510, Note_on_c, 3, 45, 0
5, 106560, Note_on_c, 3, 45, 96
5, 106940, Note_on_c, 3, 45, 0
5, 107520, Note_on_c, 3, 45, 96
5, 107710, Note_on_c, 3, 45, 0
5, 107760, Note_on_c, 3, 57, 96
5, 107950, Note_on_c, 3, 57, 0
5, 108000, Note_on_c, 3, 57, 96
5, 108190, Note_on_c, 3, 57, 0
5, 108240, Note_on_c, 3, 57, 96
5, 108430, Note_on_c, 3, 57, 0
5, 108480, Note_on_c, 3, 57, 96
5, 108860, Note_on_c, 3, 57, 0
5, 111360, Note_on_c, 3, 47, 96
5, 111550, Note_on_c, 3, 47, 0
5, 111600, Note_on_c, 3, 59, 96
5, 111790, Note_on_c, 3, 59, 0
5, 111840, Note_on_c, 3, 59, 96
5, 112030, Note_on_c, 3, 59, 0
5, 112080, Note_on_c, 3, 59, 96
5, 112270, Note_on_c, 3, 59, 0
5, 112320, Note_on_c, 3, 59, 96
5, 112700, Note_on_c, 3, 59, 0
5, 115200, Note_on_c, 3, 40, 96
5, 115390, Note_on_c, 3, 40, 0
5, 115440, Note_on_c, 3, 52, 96
5, 115630, Note_on_c, 3, 52, 0
5, 115680, Note_on_c, 3, 52, 96
5, 115870, Note_on_c, 3, 52, 0
5, 115920, Note_on_c, 3, 52, 96
5, 116110, Note_on_c, 3, 52, 0
5, 116160, Note_on_c, 3, 52, 96
5, 116540, Note_on_c, 3, 52, 0
5, 128640, Note_on_c, 3, 65, 96
5, 128640, Note_on_c, 3, 62, 96
5, 130170, Note_on_c, 3, 62, 0
5, 130170, Note_on_c, 3, 65, 0
5, 130560, Note_on_c, 3, 64, 96
5, 130560, Note_on_c, 3, 60, 96
5, 132090, Note_on_c, 3, 60, 0
5, 132090, Note_on_c, 3, 64, 0
5, 132480, Note_on_c, 3, 65, 96
5, 132480, Note_on_c, 3, 62, 96
5, 134010, Note_on_c, 3, 62, 0
5, 134010, Note_on_c, 3, 65, 0
5, 134400, Note_on_c, 3, 64, 96
5, 134400, Note_on_c, 3, 60, 96
5, 135930, Note_on_c, 3, 60, 0
5, 135930, Note_on_c, 3, 64, 0
5, 136320, Note_on_c, 3, 65, 96
5, 136320, Note_on_c, 3, 62, 96
5, 137850, Note_on_c, 3, 62, 0
5, 137850, Note_on_c, 3, 65, 0
5, 138240, Note_on_c, 3, 66, 96
5, 138240, Note_on_c, 3, 63, 96
5, 139770, Note_on_c, 3, 63, 0
5, 139770, Note_on_c, 3, 66, 0
5, 140160, Note_on_c, 3, 64, 96
5, 140350, Note_on_c, 3, 64, 0
5, 140400, Note_on_c, 3, 64, 96
5, 140590, Note_on_c, 3, 64, 0
5, 140640, Note_on_c, 3, 64, 96
5, 140830, Note_on_c, 3, 64, 0
5, 140880, Note_on_c, 3, 64, 96
5, 141070, Note_on_c, 3, 64, 0
5, 141120, Note_on_c, 3, 64, 96
5, 141310, Note_on_c, 3, 64, 0
5, 141360, Note_on_c, 3, 64, 96
5, 141550, Note_on_c, 3, 64, 0
5, 141600, Note_on_c, 3, 64, 96
5, 141790, Note_on_c, 3, 64, 0
5, 141840, Note_on_c, 3, 64, 96
5, 142030, Note_on_c, 3, 64, 0
5, 142080, Note_on_c, 3, 64, 96
5, 142270, Note_on_c, 3, 64, 0
5, 142320, Note_on_c, 3, 64, 96
5, 142510, Note_on_c, 3, 64, 0
5, 142560, Note_on_c, 3, 64, 96
5, 142750, Note_on_c, 3, 64, 0
5, 142800, Note_on_c, 3, 64, 96
5, 142990, Note_on_c, 3, 64, 0
5, 143040, Note_on_c, 3, 64, 96
5, 143230, Note_on_c, 3, 64, 0
5, 143280, Note_on_c, 3, 64, 96
5, 143470, Note_on_c, 3, 64, 0
5, 143520, Note_on_c, 3, 64, 96
5, 143710, Note_on_c, 3, 64, 0
5, 143760, Note_on_c, 3, 64, 96
5, 143950, Note_on_c, 3, 64, 0
5, 144000, Note_on_c, 3, 64, 96
5, 144380, Note_on_c, 3, 64, 0
5, 144960, Note_on_c, 3, 52, 96
5, 145340, Note_on_c, 3, 52, 0
5, 145440, Note_on_c, 3, 52, 96
5, 145820, Note_on_c, 3, 52, 0
5, 145920, Note_on_c, 3, 52, 96
5, 146680, Note_on_c, 3, 52, 0
5, 147840, Note_on_c, 3, 50, 101
5, 148990, Note_on_c, 3, 50, 0
5, 149280, Note_on_c, 3, 49, 96
5, 149400, Note_on_c, 3, 49, 0
5, 149760, Note_on_c, 3, 47, 96
5, 149880, Note_on_c, 3, 47, 0
5, 150240, Note_on_c, 3, 45, 96
5, 150360, Note_on_c, 3, 45, 0
5, 150720, Note_on_c, 3, 44, 96
5, 150840, Note_on_c, 3, 44, 0
5, 155520, Note_on_c, 3, 50, 101
5, 156670, Note_on_c, 3, 50, 0
5, 156960, Note_on_c, 3, 49, 96
5, 157080, Note_on_c, 3, 49, 0
5, 157440, Note_on_c, 3, 47, 96
5, 157560, Note_on_c, 3, 47, 0
5, 157920, Note_on_c, 3, 45, 96
5, 158040, Note_on_c, 3, 45, 0
5, 158400, Note_on_c, 3, 44, 96
5, 158520, Note_on_c, 3, 44, 0
5, 164160, Note_on_c, 3, 62, 96
5, 165500, Note_on_c, 3, 62, 0
5, 165600, Note_on_c, 3, 61, 64
5, 165720, Note_on_c, 3, 61, 0
5, 166080, Note_on_c, 3, 59, 64
5, 166200, Note_on_c, 3, 59, 0
5, 166560, Note_on_c, 3, 57, 64
5, 166680, Note_on_c, 3, 57, 0
5, 167040, Note_on_c, 3, 56, 64
5, 167160, Note_on_c, 3, 56, 0
5, 168000, Note_on_c, 3, 62, 96
5, 169340, Note_on_c, 3, 62, 0
5, 169440, Note_on_c, 3, 60, 64
5, 169560, Note_on_c, 3, 60, 0
5, 169920, Note_on_c, 3, 59, 64
5, 170040, Note_on_c, 3, 59, 0
5, 170400, Note_on_c, 3, 57, 64
5, 170520, Note_on_c, 3, 57, 0
5, 170880, Note_on_c, 3, 56, 64
5, 171000, Note_on_c, 3, 56, 0
5, 171840, Note_on_c, 3, 62, 96
5, 173180, Note_on_c, 3, 62, 0
5, 173280, Note_on_c, 3, 60, 64
5, 173400, Note_on_c, 3, 60, 0
5, 173760, Note_on_c, 3, 59, 64
5, 173880, Note_on_c, 3, 59, 0
5, 174240, Note_on_c, 3, 57, 64
5, 174360, Note_on_c, 3, 57, 0
5, 174720, Note_on_c, 3, 55, 64
5, 174840, Note_on_c, 3, 55, 0
5, 184320, Note_on_c, 3, 60, 64
5, 184320, Note_on_c, 3, 63, 64
5, 185850, Note_on_c, 3, 63, 0
5, 186240, Note_on_c, 3, 64, 64
5, 187200, Note_on_c, 3, 64, 0
5, 187200, Note_on_c, 3, 60, 0
5, 187200, Note_on_c, 3, 60, 64
5, 187200, Note_on_c, 3, 57, 64
5, 188160, Note_on_c, 3, 57, 0
5, 188160, Note_on_c, 3, 60, 0
5, 188160, Note_on_c, 3, 62, 64
5, 188160, Note_on_c, 3, 59, 64
5, 189120, Note_on_c, 3, 59, 0
5, 189120, Note_on_c, 3, 62, 0
5, 189120, Note_on_c, 3, 59, 64
5, 189120, Note_on_c, 3, 56, 64
5, 190080, Note_on_c, 3, 56, 0
5, 190080, Note_on_c, 3, 59, 0
5, 190080, Note_on_c, 3, 45, 96
5, 190270, Note_on_c, 3, 45, 0
5, 190320, Note_on_c, 3, 57, 96
5, 190510, Note_on_c, 3, 57, 0
5, 190560, Note_on_c, 3, 57, 96
5, 190750, Note_on_c, 3, 57, 0
5, 190800, Note_on_c, 3, 57, 96
5, 190990, Note_on_c, 3, 57, 0
5, 191040, Note_on_c, 3, 57, 96
5, 191230, Note_on_c, 3, 57, 0
5, 191280, Note_on_c, 3, 57, 96
5, 191470, Note_on_c, 3, 57, 0
5, 191520, Note_on_c, 3, 57, 96
5, 191710, Note_on_c, 3, 57, 0
5, 191760, Note_on_c, 3, 57, 96
5, 191950, Note_on_c, 3, 57, 0
5, 192000, Note_on_c, 3, 57, 96
5, 192190, Note_on_c, 3, 57, 0
5, 192240, Note_on_c, 3, 57, 96
5, 192430, Note_on_c, 3, 57, 0
5, 192480, Note_on_c, 3, 57, 96
5, 192670, Note_on_c, 3, 57, 0
5, 192720, Note_on_c, 3, 57, 96
5, 192910, Note_on_c, 3, 57, 0
5, 192960, Note_on_c, 3, 57, 96
5, 193150, Note_on_c, 3, 57, 0
5, 193200, Note_on_c, 3, 57, 96
5, 193390, Note_on_c, 3, 57, 0
5, 193440, Note_on_c, 3, 57, 96
5, 193630, Note_on_c, 3, 57, 0
5, 193680, Note_on_c, 3, 57, 96
5, 193870, Note_on_c, 3, 57, 0
5, 193920, Note_on_c, 3, 50, 96
5, 194110, Note_on_c, 3, 50, 0
5, 194160, Note_on_c, 3, 50, 96
5, 194350, Note_on_c, 3, 50, 0
5, 194400, Note_on_c, 3, 50, 96
5, 194590, Note_on_c, 3, 50, 0
5, 194640, Note_on_c, 3, 50, 96
5, 194830, Note_on_c, 3, 50, 0
5, 194880, Note_on_c, 3, 50, 96
5, 195070, Note_on_c, 3, 50, 0
5, 195120, Note_on_c, 3, 50, 96
5, 195310, Note_on_c, 3, 50, 0
5, 195360, Note_on_c, 3, 50, 96
5, 195550, Note_on_c, 3, 50, 0
5, 195600, Note_on_c, 3, 50, 96
5, 195790, Note_on_c, 3, 50, 0
5, 195840, Note_on_c, 3, 62, 96
5, 196030, Note_on_c, 3, 62, 0
5, 196080, Note_on_c, 3, 62, 96
5, 196270, Note_on_c, 3, 62, 0
5, 196320, Note_on_c, 3, 62, 96
5, 196510, Note_on_c, 3, 62, 0
5, 196560, Note_on_c, 3, 62, 96
5, 196750, Note_on_c, 3, 62, 0
5, 196800, Note_on_c, 3, 62, 96
5, 196990, Note_on_c, 3, 62, 0
5, 197040, Note_on_c, 3, 62, 96
5, 197230, Note_on_c, 3, 62, 0
5, 197280, Note_on_c, 3, 62, 96
5, 197470, Note_on_c, 3, 62, 0
5, 197520, Note_on_c, 3, 62, 96
5, 197710, Note_on_c, 3, 62, 0
5, 197760, Note_on_c, 3, 64, 96
5, 197950, Note_on_c, 3, 64, 0
5, 198000, Note_on_c, 3, 64, 96
5, 198190, Note_on_c, 3, 64, 0
5, 198240, Note_on_c, 3, 64, 96
5, 198430, Note_on_c, 3, 64, 0
5, 198480, Note_on_c, 3, 64, 96
5, 198670, Note_on_c, 3, 64, 0
5, 198720, Note_on_c, 3, 64, 96
5, 198910, Note_on_c, 3, 64, 0
5, 198960, Note_on_c, 3, 64, 96
5, 199150, Note_on_c, 3, 64, 0
5, 199200, Note_on_c, 3, 64, 96
5, 199390, Note_on_c, 3, 64, 0
5, 199440, Note_on_c, 3, 64, 96
5, 199630, Note_on_c, 3, 64, 0
5, 199680, Note_on_c, 3, 52, 96
5, 199870, Note_on_c, 3, 52, 0
5, 199920, Note_on_c, 3, 52, 96
5, 200110, Note_on_c, 3, 52, 0
5, 200160, Note_on_c, 3, 52, 96
5, 200350, Note_on_c, 3, 52, 0
5, 200400, Note_on_c, 3, 52, 96
5, 200590, Note_on_c, 3, 52, 0
5, 200640, Note_on_c, 3, 52, 96
5, 200830, Note_on_c, 3, 52, 0
5, 200880, Note_on_c, 3, 52, 96
5, 201070, Note_on_c, 3, 52, 0
5, 201120, Note_on_c, 3, 52, 96
5, 201310, Note_on_c, 3, 52, 0
5, 201360, Note_on_c, 3, 52, 96
5, 201550, Note_on_c, 3, 52, 0
5, 201600, Note_on_c, 3, 57, 96
5, 201790, Note_on_c, 3, 57, 0
5, 201840, Note_on_c, 3, 57, 96
5, 202030, Note_on_c, 3, 57, 0
5, 202080, Note_on_c, 3, 57, 96
5, 202270, Note_on_c, 3, 57, 0
5, 202320, Note_on_c, 3, 57, 96
5, 202510, Note_on_c, 3, 57, 0
5, 202560, Note_on_c, 3, 57, 96
5, 202750, Note_on_c, 3, 57, 0
5, 202800, Note_on_c, 3, 57, 96
5, 202990, Note_on_c, 3, 57, 0
5, 203040, Note_on_c, 3, 57, 96
5, 203230, Note_on_c, 3, 57, 0
5, 203280, Note_on_c, 3, 57, 96
5, 203470, Note_on_c, 3, 57, 0
5, 203520, Note_on_c, 3, 57, 96
5, 203710, Note_on_c, 3, 57, 0
5, 203760, Note_on_c, 3, 57, 96
5, 203950, Note_on_c, 3, 57, 0
5, 204000, Note_on_c, 3, 57, 96
5, 204190, Note_on_c, 3, 57, 0
5, 204240, Note_on_c, 3, 57, 96
5, 204430, Note_on_c, 3, 57, 0
5, 204480, Note_on_c, 3, 57, 96
5, 204670, Note_on_c, 3, 57, 0
5, 204720, Note_on_c, 3, 57, 96
5, 204910, Note_on_c, 3, 57, 0
5, 204960, Note_on_c, 3, 57, 96
5, 205150, Note_on_c, 3, 57, 0
5, 205200, Note_on_c, 3, 57, 96
5, 205390, Note_on_c, 3, 57, 0
5, 205440, Note_on_c, 3, 50, 96
5, 205630, Note_on_c, 3, 50, 0
5, 205680, Note_on_c, 3, 50, 96
5, 205870, Note_on_c, 3, 50, 0
5, 205920, Note_on_c, 3, 50, 96
5, 206110, Note_on_c, 3, 50, 0
5, 206160, Note_on_c, 3, 50, 96
5, 206350, Note_on_c, 3, 50, 0
5, 206400, Note_on_c, 3, 50, 96
5, 206590, Note_on_c, 3, 50, 0
5, 206640, Note_on_c, 3, 50, 96
5, 206830, Note_on_c, 3, 50, 0
5, 206880, Note_on_c, 3, 50, 96
5, 207070, Note_on_c, 3, 50, 0
5, 207120, Note_on_c, 3, 50, 96
5, 207310, Note_on_c, 3, 50, 0
5, 207360, Note_on_c, 3, 62, 96
5, 207550, Note_on_c, 3, 62, 0
5, 207600, Note_on_c, 3, 62, 96
5, 207790, Note_on_c, 3, 62, 0
5, 207840, Note_on_c, 3, 62, 96
5, 208030, Note_on_c, 3, 62, 0
5, 208080, Note_on_c, 3, 62, 96
5, 208270, Note_on_c, 3, 62, 0
5, 208320, Note_on_c, 3, 62, 96
5, 208510, Note_on_c, 3, 62, 0
5, 208560, Note_on_c, 3, 62, 96
5, 208750, Note_on_c, 3, 62, 0
5, 208800, Note_on_c, 3, 62, 96
5, 208990, Note_on_c, 3, 62, 0
5, 209040, Note_on_c, 3, 62, 96
5, 209230, Note_on_c, 3, 62, 0
5, 209280, Note_on_c, 3, 64, 96
5, 209470, Note_on_c, 3, 64, 0
5, 209520, Note_on_c, 3, 64, 96
5, 209710, Note_on_c, 3, 64, 0
5, 209760, Note_on_c, 3, 64, 96
5, 209950, Note_on_c, 3, 64, 0
5, 210000, Note_on_c, 3, 64, 96
5, 210190, Note_on_c, 3, 64, 0
5, 210240, Note_on_c, 3, 64, 96
5, 210430, Note_on_c, 3, 64, 0
5, 210480, Note_on_c, 3, 64, 96
5, 210670, Note_on_c, 3, 64, 0
5, 210720, Note_on_c, 3, 64, 96
5, 210910, Note_on_c, 3, 64, 0
5, 210960, Note_on_c, 3, 64, 96
5, 211150, Note_on_c, 3, 64, 0
5, 211200, Note_on_c, 3, 52, 96
5, 211390, Note_on_c, 3, 52, 0
5, 211440, Note_on_c, 3, 52, 96
5, 211630, Note_on_c, 3, 52, 0
5, 211680, Note_on_c, 3, 52, 96
5, 211870, Note_on_c, 3, 52, 0
5, 211920, Note_on_c, 3, 52, 96
5, 212110, Note_on_c, 3, 52, 0
5, 212160, Note_on_c, 3, 52, 96
5, 212350, Note_on_c, 3, 52, 0
5, 212400, Note_on_c, 3, 52, 96
5, 212590, Note_on_c, 3, 52, 0
5, 212640, Note_on_c, 3, 52, 96
5, 212830, Note_on_c, 3, 52, 0
5, 212880, Note_on_c, 3, 52, 96
5, 213070, Note_on_c, 3, 52, 0
5, 213120, Note_on_c, 3, 57, 96
5, 213500, Note_on_c, 3, 57, 0
5, 214560, Note_on_c, 3, 52, 96
5, 214940, Note_on_c, 3, 52, 0
5, 215040, Note_on_c, 3, 57, 96
5, 215420, Note_on_c, 3, 57, 0
5, 216480, Note_on_c, 3, 52, 96
5, 216860, Note_on_c, 3, 52, 0
5, 216960, Note_on_c, 3, 57, 96
5, 217150, Note_on_c, 3, 57, 0
5, 217200, Note_on_c, 3, 61, 96
5, 217390, Note_on_c, 3, 61, 0
5, 217440, Note_on_c, 3, 52, 96
5, 217630, Note_on_c, 3, 52, 0
5, 217680, Note_on_c, 3, 56, 96
5, 217870, Note_on_c, 3, 56, 0
5, 217920, Note_on_c, 3, 57, 96
5, 218110, Note_on_c, 3, 57, 0
5, 218160, Note_on_c, 3, 61, 96
5, 218350, Note_on_c, 3, 61, 0
5, 218400, Note_on_c, 3, 62, 96
5, 218590, Note_on_c, 3, 62, 0
5, 218640, Note_on_c, 3, 59, 96
5, 218830, Note_on_c, 3, 59, 0
5, 218880, Note_on_c, 3, 57, 96
5, 219070, Note_on_c, 3, 57, 0
5, 219120, Note_on_c, 3, 61, 96
5, 219310, Note_on_c, 3, 61, 0
5, 219360, Note_on_c, 3, 52, 96
5, 219550, Note_on_c, 3, 52, 0
5, 219600, Note_on_c, 3, 56, 96
5, 219790, Note_on_c, 3, 56, 0
5, 219840, Note_on_c, 3, 57, 96
5, 220030, Note_on_c, 3, 57, 0
5, 220080, Note_on_c, 3, 61, 96
5, 220270, Note_on_c, 3, 61, 0
5, 220320, Note_on_c, 3, 62, 96
5, 220510, Note_on_c, 3, 62, 0
5, 220560, Note_on_c, 3, 59, 96
5, 220750, Note_on_c, 3, 59, 0
5, 220800, Note_on_c, 3, 57, 96
5, 221040, Note_on_c, 3, 57, 0
5, 221040, Note_on_c, 3, 52, 96
5, 221230, Note_on_c, 3, 52, 0
5, 221280, Note_on_c, 3, 61, 96
5, 221340, Note_on_c, 3, 61, 0
5, 221520, Note_on_c, 3, 61, 96
5, 221580, Note_on_c, 3, 61, 0
5, 221760, Note_on_c, 3, 61, 96
5, 222000, Note_on_c, 3, 61, 0
5, 222000, Note_on_c, 3, 57, 96
5, 222190, Note_on_c, 3, 57, 0
5, 222240, Note_on_c, 3, 64, 96
5, 222300, Note_on_c, 3, 64, 0
5, 222480, Note_on_c, 3, 64, 96
5, 222540, Note_on_c, 3, 64, 0
5, 222720, Note_on_c, 3, 64, 96
5, 222910, Note_on_c, 3, 64, 0
5, 222960, Note_on_c, 3, 64, 96
5, 223150, Note_on_c, 3, 64, 0
5, 223200, Note_on_c, 3, 64, 96
5, 223390, Note_on_c, 3, 64, 0
5, 223440, Note_on_c, 3, 64, 96
5, 223630, Note_on_c, 3, 64, 0
5, 223680, Note_on_c, 3, 64, 96
5, 223870, Note_on_c, 3, 64, 0
5, 223920, Note_on_c, 3, 61, 96
5, 224110, Note_on_c, 3, 61, 0
5, 224160, Note_on_c, 3, 57, 96
5, 224350, Note_on_c, 3, 57, 0
5, 224400, Note_on_c, 3, 52, 96
5, 224590, Note_on_c, 3, 52, 0
5, 224640, Note_on_c, 3, 61, 96
5, 224830, Note_on_c, 3, 61, 0
5, 224880, Note_on_c, 3, 61, 96
5, 225070, Note_on_c, 3, 61, 0
5, 225120, Note_on_c, 3, 61, 96
5, 225310, Note_on_c, 3, 61, 0
5, 225360, Note_on_c, 3, 61, 96
5, 225550, Note_on_c, 3, 61, 0
5, 225600, Note_on_c, 3, 61, 96
5, 225790, Note_on_c, 3, 61, 0
5, 225840, Note_on_c, 3, 57, 96
5, 226030, Note_on_c, 3, 57, 0
5, 226080, Note_on_c, 3, 52, 96
5, 226270, Note_on_c, 3, 52, 0
5, 226320, Note_on_c, 3, 49, 96
5, 226510, Note_on_c, 3, 49, 0
5, 226560, Note_on_c, 3, 57, 96
5, 226750, Note_on_c, 3, 57, 0
5, 226800, Note_on_c, 3, 57, 96
5, 226990, Note_on_c, 3, 57, 0
5, 227040, Note_on_c, 3, 57, 96
5, 227230, Note_on_c, 3, 57, 0
5, 227280, Note_on_c, 3, 57, 96
5, 227470, Note_on_c, 3, 57, 0
5, 227520, Note_on_c, 3, 57, 96
5, 227710, Note_on_c, 3, 57, 0
5, 227760, Note_on_c, 3, 52, 96
5, 227950, Note_on_c, 3, 52, 0
5, 228000, Note_on_c, 3, 49, 96
5, 228190, Note_on_c, 3, 49, 0
5, 228240, Note_on_c, 3, 45, 96
5, 228430, Note_on_c, 3, 45, 0
5, 228480, Note_on_c, 3, 57, 96
5, 228860, Note_on_c, 3, 57, 0
5, 229440, Note_on_c, 3, 57, 96
5, 229820, Note_on_c, 3, 57, 0
5, 230400, Note_on_c, 3, 45, 96
5, 231160, Note_on_c, 3, 45, 0
5, 232320, Note_on_c, 3, 52, 96
5, 233470, Note_on_c, 3, 52, 0
5, 233760, Note_on_c, 3, 50, 96
5, 233880, Note_on_c, 3, 50, 0
5, 234240, Note_on_c, 3, 49, 96
5, 234360, Note_on_c, 3, 49, 0
5, 234720, Note_on_c, 3, 47, 96
5, 234840, Note_on_c, 3, 47, 0
5, 235200, Note_on_c, 3, 45, 96
5, 235320, Note_on_c, 3, 45, 0
5, 240000, Note_on_c, 3, 54, 96
5, 241150, Note_on_c, 3, 54, 0
5, 241440, Note_on_c, 3, 49, 96
5, 241560, Note_on_c, 3, 49, 0
5, 241920, Note_on_c, 3, 50, 96
5, 242040, Note_on_c, 3, 50, 0
5, 242400, Note_on_c, 3, 47, 96
5, 242520, Note_on_c, 3, 47, 0
5, 242880, Note_on_c, 3, 45, 96
5, 243000, Note_on_c, 3, 45, 0
5, 248640, Note_on_c, 3, 67, 96
5, 248640, Note_on_c, 3, 55, 96
5, 249980, Note_on_c, 3, 55, 0
5, 249980, Note_on_c, 3, 67, 0
5, 250080, Note_on_c, 3, 66, 64
5, 250080, Note_on_c, 3, 54, 64
5, 250200, Note_on_c, 3, 54, 0
5, 250200, Note_on_c, 3, 66, 0
5, 250560, Note_on_c, 3, 64, 64
5, 250560, Note_on_c, 3, 52, 64
5, 250680, Note_on_c, 3, 52, 0
5, 250680, Note_on_c, 3, 64, 0
5, 251040, Note_on_c, 3, 62, 64
5, 251040, Note_on_c, 3, 50, 64
5, 251160, Note_on_c, 3, 50, 0
5, 251160, Note_on_c, 3, 62, 0
5, 251520, Note_on_c, 3, 61, 64
5, 251520, Note_on_c, 3, 49, 64
5, 252280, Note_on_c, 3, 49, 0
5, 252280, Note_on_c, 3, 61, 0
5, 255360, Note_on_c, 3, 57, 64
5, 256510, Note_on_c, 3, 57, 0
5, 256800, Note_on_c, 3, 55, 64
5, 256920, Note_on_c, 3, 55, 0
5, 257280, Note_on_c, 3, 54, 64
5, 257400, Note_on_c, 3, 54, 0
5, 257760, Note_on_c, 3, 52, 64
5, 257880, Note_on_c, 3, 52, 0
5, 258240, Note_on_c, 3, 51, 64
5, 258360, Note_on_c, 3, 51, 0
5, 259200, Note_on_c, 3, 62, 64
5, 260350, Note_on_c, 3, 62, 0
5, 260640, Note_on_c, 3, 61, 64
5, 260760, Note_on_c, 3, 61, 0
5, 261120, Note_on_c, 3, 59, 64
5, 261240, Note_on_c, 3, 59, 0
5, 261600, Note_on_c, 3, 57, 64
5, 261720, Note_on_c, 3, 57, 0
5, 262080, Note_on_c, 3, 55, 64
5, 262200, Note_on_c, 3, 55, 0
5, 263040, Note_on_c, 3, 55, 64
5, 264190, Note_on_c, 3, 55, 0
5, 264480, Note_on_c, 3, 53, 64
5, 264600, Note_on_c, 3, 53, 0
5, 264960, Note_on_c, 3, 52, 64
5, 265080, Note_on_c, 3, 52, 0
5, 265440, Note_on_c, 3, 50, 64
5, 265560, Note_on_c, 3, 50, 0
5, 265920, Note_on_c, 3, 49, 64
5, 266040, Note_on_c, 3, 49, 0
5, 266880, Note_on_c, 3, 60, 64
5, 268030, Note_on_c, 3, 60, 0
5, 268320, Note_on_c, 3, 59, 64
5, 268440, Note_on_c, 3, 59, 0
5, 268800, Note_on_c, 3, 57, 64
5, 268920, Note_on_c, 3, 57, 0
5, 269280, Note_on_c, 3, 55, 64
5, 269400, Note_on_c, 3, 55, 0
5, 269760, Note_on_c, 3, 54, 64
5, 270720, Note_on_c, 3, 54, 0
5, 270720, Note_on_c, 3, 55, 64
5, 278010, Note_on_c, 3, 55, 0
5, 278400, Note_on_c, 3, 50, 64
5, 279360, Note_on_c, 3, 50, 0
5, 279360, Note_on_c, 3, 52, 64
5, 280120, Note_on_c, 3, 52, 0
5, 280320, Note_on_c, 3, 48, 64
5, 281280, Note_on_c, 3, 48, 0
5, 281280, Note_on_c, 3, 50, 64
5, 282040, Note_on_c, 3, 50, 0
5, 282240, Note_on_c, 3, 55, 96
5, 282240, Note_on_c, 3, 47, 96
5, 282620, Note_on_c, 3, 47, 0
5, 282620, Note_on_c, 3, 55, 0
5, 282720, Note_on_c, 3, 55, 96
5, 282720, Note_on_c, 3, 47, 96
5, 282910, Note_on_c, 3, 47, 0
5, 282910, Note_on_c, 3, 55, 0
5, 282960, Note_on_c, 3, 55, 96
5, 282960, Note_on_c, 3, 47, 96
5, 283150, Note_on_c, 3, 47, 0
5, 283150, Note_on_c, 3, 55, 0
5, 283200, Note_on_c, 3, 57, 96
5, 283200, Note_on_c, 3, 50, 96
5, 283580, Note_on_c, 3, 50, 0
5, 283580, Note_on_c, 3, 57, 0
5, 283680, Note_on_c, 3, 57, 96
5, 283680, Note_on_c, 3, 50, 96
5, 283870, Note_on_c, 3, 50, 0
5, 283870, Note_on_c, 3, 57, 0
5, 283920, Note_on_c, 3, 57, 96
5, 283920, Note_on_c, 3, 50, 96
5, 284110, Note_on_c, 3, 50, 0
5, 284110, Note_on_c, 3, 57, 0
5, 284160, Note_on_c, 3, 59, 96
5, 284160, Note_on_c, 3, 55, 96
5, 284540, Note_on_c, 3, 55, 0
5, 284540, Note_on_c, 3, 59, 0
5, 284640, Note_on_c, 3, 59, 96
5, 284640, Note_on_c, 3, 55, 96
5, 284830, Note_on_c, 3, 55, 0
5, 284830, Note_on_c, 3, 59, 0
5, 284880, Note_on_c, 3, 59, 96
5, 284880, Note_on_c, 3, 55, 96
5, 285070, Note_on_c, 3, 55, 0
5, 285070, Note_on_c, 3, 59, 0
5, 285120, Note_on_c, 3, 57, 96
5, 285120, Note_on_c, 3, 50, 96
5, 285500, Note_on_c, 3, 50, 0
5, 285500, Note_on_c, 3, 57, 0
5, 291840, Note_on_c, 3, 63, 64
5, 291840, Note_on_c, 3, 60, 64
5, 293280, Note_on_c, 3, 60, 0
5, 293280, Note_on_c, 3, 63, 0
5, 293280, Note_on_c, 3, 62, 64
5, 293280, Note_on_c, 3, 58, 64
5, 293660, Note_on_c, 3, 58, 0
5, 293660, Note_on_c, 3, 62, 0
5, 293760, Note_on_c, 3, 60, 64
5, 293760, Note_on_c, 3, 57, 64
5, 295200, Note_on_c, 3, 57, 0
5, 295200, Note_on_c, 3, 60, 0
5, 295200, Note_on_c, 3, 62, 64
5, 295200, Note_on_c, 3, 58, 64
5, 295580, Note_on_c, 3, 58, 0
5, 295580, Note_on_c, 3, 62, 0
5, 295680, Note_on_c, 3, 63, 64
5, 295680, Note_on_c, 3, 60, 64
5, 296060, Note_on_c, 3, 60, 0
5, 296060, Note_on_c, 3, 63, 0
5, 296640, Note_on_c, 3, 62, 64
5, 296640, Note_on_c, 3, 58, 64
5, 297020, Note_on_c, 3, 58, 0
5, 297020, Note_on_c, 3, 62, 0
5, 297600, Note_on_c, 3, 60, 64
5, 297600, Note_on_c, 3, 57, 64
5, 298320, Note_on_c, 3, 57, 0
5, 298320, Note_on_c, 3, 60, 0
5, 298320, Note_on_c, 3, 62, 64
5, 298320, Note_on_c, 3, 58, 64
5, 298560, Note_on_c, 3, 58, 0
5, 298560, Note_on_c, 3, 62, 0
5, 298560, Note_on_c, 3, 60, 64
5, 298560, Note_on_c, 3, 57, 64
5, 298800, Note_on_c, 3, 57, 0
5, 298800, Note_on_c, 3, 60, 0
5, 298800, Note_on_c, 3, 62, 64
5, 298800, Note_on_c, 3, 58, 64
5, 299040, Note_on_c, 3, 58, 0
5, 299040, Note_on_c, 3, 62, 0
5, 299040, Note_on_c, 3, 60, 64
5, 299040, Note_on_c, 3, 57, 64
5, 299280, Note_on_c, 3, 57, 0
5, 299280, Note_on_c, 3, 60, 0
5, 299280, Note_on_c, 3, 62, 64
5, 299280, Note_on_c, 3, 58, 64
5, 299520, Note_on_c, 3, 58, 0
5, 299520, Note_on_c, 3, 62, 0
5, 299520, Note_on_c, 3, 60, 64
5, 299520, Note_on_c, 3, 57, 64
5, 299900, Note_on_c, 3, 57, 0
5, 299900, Note_on_c, 3, 60, 0
5, 301440, Note_on_c, 3, 58, 96
5, 301440, Note_on_c, 3, 53, 96
5, 303740, Note_on_c, 3, 53, 0
5, 303740, Note_on_c, 3, 58, 0
5, 309120, Note_on_c, 3, 60, 96
5, 309120, Note_on_c, 3, 57, 96
5, 311420, Note_on_c, 3, 57, 0
5, 311420, Note_on_c, 3, 60, 0
5, 316800, Note_on_c, 3, 58, 96
5, 316800, Note_on_c, 3, 55, 96
5, 319100, Note_on_c, 3, 55, 0
5, 319100, Note_on_c, 3, 58, 0
5, 324480, Note_on_c, 3, 64, 96
5, 324480, Note_on_c, 3, 55, 96
5, 326780, Note_on_c, 3, 55, 0
5, 326780, Note_on_c, 3, 64, 0
5, 332160, Note_on_c, 3, 57, 96
5, 332160, Note_on_c, 3, 53, 96
5, 334460, Note_on_c, 3, 53, 0
5, 334460, Note_on_c, 3, 57, 0
5, 339840, Note_on_c, 3, 65, 96
5, 339840, Note_on_c, 3, 56, 96
5, 342140, Note_on_c, 3, 56, 0
5, 342140, Note_on_c, 3, 65, 0
5, 347520, Note_on_c, 3, 52, 64
5, 347520, Note_on_c, 3, 49, 64
5, 349440, Note_on_c, 3, 49, 0
5, 349440, Note_on_c, 3, 52, 0
5, 349440, Note_on_c, 3, 53, 64
5, 349440, Note_on_c, 3, 50, 64
5, 350970, Note_on_c, 3, 50, 0
5, 350970, Note_on_c, 3, 53, 0
5, 351360, Note_on_c, 3, 52, 64
5, 351360, Note_on_c, 3, 49, 64
5, 353280, Note_on_c, 3, 49, 0
5, 353280, Note_on_c, 3, 52, 0
5, 353280, Note_on_c, 3, 53, 64
5, 353280, Note_on_c, 3, 50, 64
5, 354810, Note_on_c, 3, 50, 0
5, 354810, Note_on_c, 3, 53, 0
5, 355200, Note_on_c, 3, 52, 64
5, 355200, Note_on_c, 3, 49, 64
5, 355580, Note_on_c, 3, 49, 0
5, 355580, Note_on_c, 3, 52, 0
5, 362880, Note_on_c, 3, 67, 96
5, 362880, Note_on_c, 3, 61, 96
5, 367100, Note_on_c, 3, 61, 0
5, 367100, Note_on_c, 3, 67, 0
5, 382080, Note_on_c, 3, 62, 96
5, 382080, Note_on_c, 3, 57, 96
5, 382460, Note_on_c, 3, 57, 0
5, 382460, Note_on_c, 3, 62, 0
5, 382560, Note_on_c, 3, 62, 96
5, 382560, Note_on_c, 3, 57, 96
5, 382750, Note_on_c, 3, 57, 0
5, 382750, Note_on_c, 3, 62, 0
5, 382800, Note_on_c, 3, 62, 96
5, 382800, Note_on_c, 3, 57, 96
5, 382990, Note_on_c, 3, 57, 0
5, 382990, Note_on_c, 3, 62, 0
5, 383040, Note_on_c, 3, 64, 96
5, 383040, Note_on_c, 3, 61, 96
5, 383420, Note_on_c, 3, 61, 0
5, 383420, Note_on_c, 3, 64, 0
5, 383520, Note_on_c, 3, 64, 96
5, 383520, Note_on_c, 3, 61, 96
5, 383710, Note_on_c, 3, 61, 0
5, 383710, Note_on_c, 3, 64, 0
5, 383760, Note_on_c, 3, 64, 96
5, 383760, Note_on_c, 3, 61, 96
5, 383950, Note_on_c, 3, 61, 0
5, 383950, Note_on_c, 3, 64, 0
5, 384000, Note_on_c, 3, 66, 96
5, 384000, Note_on_c, 3, 62, 96
5, 384380, Note_on_c, 3, 62, 0
5, 384380, Note_on_c, 3, 66, 0
5, 384480, Note_on_c, 3, 66, 96
5, 384480, Note_on_c, 3, 62, 96
5, 384670, Note_on_c, 3, 62, 0
5, 384670, Note_on_c, 3, 66, 0
5, 384720, Note_on_c, 3, 66, 96
5, 384720, Note_on_c, 3, 62, 96
5, 384910, Note_on_c, 3, 62, 0
5, 384910, Note_on_c, 3, 66, 0
5, 384960, Note_on_c, 3, 64, 96
5, 384960, Note_on_c, 3, 61, 96
5, 385340, Note_on_c, 3, 61, 0
5, 385340, Note_on_c, 3, 64, 0
5, 387840, Note_on_c, 3, 60, 64
5, 388800, Note_on_c, 3, 60, 0
5, 388800, Note_on_c, 3, 59, 64
5, 389280, Note_on_c, 3, 59, 0
5, 389280, Note_on_c, 3, 57, 64
5, 389660, Note_on_c, 3, 57, 0
5, 389760, Note_on_c, 3, 55, 64
5, 390000, Note_on_c, 3, 55, 0
5, 390000, Note_on_c, 3, 52, 64
5, 390240, Note_on_c, 3, 52, 0
5, 390240, Note_on_c, 3, 49, 64
5, 391200, Note_on_c, 3, 49, 0
5, 391200, Note_on_c, 3, 50, 64
5, 391580, Note_on_c, 3, 50, 0
5, 401280, Note_on_c, 3, 50, 96
5, 401340, Note_on_c, 3, 50, 0
5, 401520, Note_on_c, 3, 54, 96
5, 401580, Note_on_c, 3, 54, 0
5, 401760, Note_on_c, 3, 45, 96
5, 401820, Note_on_c, 3, 45, 0
5, 402000, Note_on_c, 3, 49, 96
5, 402060, Note_on_c, 3, 49, 0
5, 402240, Note_on_c, 3, 50, 96
5, 402300, Note_on_c, 3, 50, 0
5, 402480, Note_on_c, 3, 54, 96
5, 402540, Note_on_c, 3, 54, 0
5, 402720, Note_on_c, 3, 55, 96
5, 402780, Note_on_c, 3, 55, 0
5, 402960, Note_on_c, 3, 52, 96
5, 403020, Note_on_c, 3, 52, 0
5, 403200, Note_on_c, 3, 50, 96
5, 403260, Note_on_c, 3, 50, 0
5, 403440, Note_on_c, 3, 54, 96
5, 403500, Note_on_c, 3, 54, 0
5, 403680, Note_on_c, 3, 45, 96
5, 403740, Note_on_c, 3, 45, 0
5, 403920, Note_on_c, 3, 49, 96
5, 403980, Note_on_c, 3, 49, 0
5, 404160, Note_on_c, 3, 50, 96
5, 404220, Note_on_c, 3, 50, 0
5, 404400, Note_on_c, 3, 54, 96
5, 404460, Note_on_c, 3, 54, 0
5, 404640, Note_on_c, 3, 55, 96
5, 404700, Note_on_c, 3, 55, 0
5, 404880, Note_on_c, 3, 52, 96
5, 404940, Note_on_c, 3, 52, 0
5, 405120, Note_on_c, 3, 50, 96
5, 405360, Note_on_c, 3, 50, 0
5, 405360, Note_on_c, 3, 45, 96
5, 405550, Note_on_c, 3, 45, 0
5, 405600, Note_on_c, 3, 54, 96
5, 405660, Note_on_c, 3, 54, 0
5, 405840, Note_on_c, 3, 54, 96
5, 405900, Note_on_c, 3, 54, 0
5, 406080, Note_on_c, 3, 54, 96
5, 406320, Note_on_c, 3, 54, 0
5, 406320, Note_on_c, 3, 50, 96
5, 406510, Note_on_c, 3, 50, 0
5, 406560, Note_on_c, 3, 57, 96
5, 406620, Note_on_c, 3, 57, 0
5, 406800, Note_on_c, 3, 57, 96
5, 406860, Note_on_c, 3, 57, 0
5, 407040, Note_on_c, 3, 57, 96
5, 407280, Note_on_c, 3, 57, 0
5, 407280, Note_on_c, 3, 54, 96
5, 407470, Note_on_c, 3, 54, 0
5, 407520, Note_on_c, 3, 62, 96
5, 407580, Note_on_c, 3, 62, 0
5, 407760, Note_on_c, 3, 62, 96
5, 407820, Note_on_c, 3, 62, 0
5, 408000, Note_on_c, 3, 62, 96
5, 408190, Note_on_c, 3, 62, 0
5, 408240, Note_on_c, 3, 57, 96
5, 408430, Note_on_c, 3, 57, 0
5, 408480, Note_on_c, 3, 54, 96
5, 408670, Note_on_c, 3, 54, 0
5, 408720, Note_on_c, 3, 50, 96
5, 408910, Note_on_c, 3, 50, 0
5, 408960, Note_on_c, 3, 57, 96
5, 409150, Note_on_c, 3, 57, 0
5, 409200, Note_on_c, 3, 57, 96
5, 409390, Note_on_c, 3, 57, 0
5, 409440, Note_on_c, 3, 57, 96
5, 409630, Note_on_c, 3, 57, 0
5, 409680, Note_on_c, 3, 57, 96
5, 409870, Note_on_c, 3, 57, 0
5, 409920, Note_on_c, 3, 57, 96
5, 410110, Note_on_c, 3, 57, 0
5, 410160, Note_on_c, 3, 57, 96
5, 410350, Note_on_c, 3, 57, 0
5, 410400, Note_on_c, 3, 57, 96
5, 410590, Note_on_c, 3, 57, 0
5, 410640, Note_on_c, 3, 57, 96
5, 410830, Note_on_c, 3, 57, 0
5, 410880, Note_on_c, 3, 57, 96
5, 411070, Note_on_c, 3, 57, 0
5, 411120, Note_on_c, 3, 57, 96
5, 411310, Note_on_c, 3, 57, 0
5, 411360, Note_on_c, 3, 57, 96
5, 411550, Note_on_c, 3, 57, 0
5, 411600, Note_on_c, 3, 57, 96
5, 411790, Note_on_c, 3, 57, 0
5, 411840, Note_on_c, 3, 57, 96
5, 412030, Note_on_c, 3, 57, 0
5, 412080, Note_on_c, 3, 57, 96
5, 412270, Note_on_c, 3, 57, 0
5, 412320, Note_on_c, 3, 57, 96
5, 412510, Note_on_c, 3, 57, 0
5, 412560, Note_on_c, 3, 57, 96
5, 412750, Note_on_c, 3, 57, 0
5, 412800, Note_on_c, 3, 57, 96
5, 412990, Note_on_c, 3, 57, 0
5, 413040, Note_on_c, 3, 57, 96
5, 413230, Note_on_c, 3, 57, 0
5, 413280, Note_on_c, 3, 57, 96
5, 413470, Note_on_c, 3, 57, 0
5, 413520, Note_on_c, 3, 57, 96
5, 413710, Note_on_c, 3, 57, 0
5, 413760, Note_on_c, 3, 57, 96
5, 413950, Note_on_c, 3, 57, 0
5, 414000, Note_on_c, 3, 57, 96
5, 414190, Note_on_c, 3, 57, 0
5, 414240, Note_on_c, 3, 57, 96
5, 414430, Note_on_c, 3, 57, 0
5, 414480, Note_on_c, 3, 57, 96
5, 414670, Note_on_c, 3, 57, 0
5, 414720, Note_on_c, 3, 57, 96
5, 415100, Note_on_c, 3, 57, 0
5, 415200, Note_on_c, 3, 45, 96
5, 415390, Note_on_c, 3, 45, 0
5, 415440, Note_on_c, 3, 45, 96
5, 415630, Note_on_c, 3, 45, 0
5, 415680, Note_on_c, 3, 45, 96
5, 416060, Note_on_c, 3, 45, 0
5, 416640, Note_on_c, 3, 50, 96
5, 416830, Note_on_c, 3, 50, 0
5, 416880, Note_on_c, 3, 62, 96
5, 417070, Note_on_c, 3, 62, 0
5, 417120, Note_on_c, 3, 62, 96
5, 417310, Note_on_c, 3, 62, 0
5, 417360, Note_on_c, 3, 62, 96
5, 417550, Note_on_c, 3, 62, 0
5, 417600, Note_on_c, 3, 62, 96
5, 417980, Note_on_c, 3, 62, 0
5, 420480, Note_on_c, 3, 52, 96
5, 420670, Note_on_c, 3, 52, 0
5, 420720, Note_on_c, 3, 64, 96
5, 420910, Note_on_c, 3, 64, 0
5, 420960, Note_on_c, 3, 64, 96
5, 421150, Note_on_c, 3, 64, 0
5, 421200, Note_on_c, 3, 64, 96
5, 421390, Note_on_c, 3, 64, 0
5, 421440, Note_on_c, 3, 64, 96
5, 421820, Note_on_c, 3, 64, 0
5, 424320, Note_on_c, 3, 45, 96
5, 424510, Note_on_c, 3, 45, 0
5, 424560, Note_on_c, 3, 57, 96
5, 424750, Note_on_c, 3, 57, 0
5, 424800, Note_on_c, 3, 57, 96
5, 424990, Note_on_c, 3, 57, 0
5, 425040, Note_on_c, 3, 57, 96
5, 425230, Note_on_c, 3, 57, 0
5, 425280, Note_on_c, 3, 57, 96
5, 425660, Note_on_c, 3, 57, 0
5, 428160, Note_on_c, 3, 54, 64
5, 428160, Note_on_c, 3, 50, 64
5, 428640, Note_on_c, 3, 50, 0
5, 428640, Note_on_c, 3, 54, 0
5, 428640, Note_on_c, 3, 55, 64
5, 428640, Note_on_c, 3, 52, 64
5, 429120, Note_on_c, 3, 52, 0
5, 429120, Note_on_c, 3, 55, 0
5, 429120, Note_on_c, 3, 57, 64
5, 429120, Note_on_c, 3, 54, 64
5, 429500, Note_on_c, 3, 54, 0
5, 429500, Note_on_c, 3, 57, 0
5, 430080, Note_on_c, 3, 59, 64
5, 430080, Note_on_c, 3, 55, 64
5, 430560, Note_on_c, 3, 55, 0
5, 430560, Note_on_c, 3, 59, 0
5, 430560, Note_on_c, 3, 61, 64
5, 430560, Note_on_c, 3, 57, 64
5, 431040, Note_on_c, 3, 57, 0
5, 431040, Note_on_c, 3, 61, 0
5, 431040, Note_on_c, 3, 62, 64
5, 431040, Note_on_c, 3, 59, 64
5, 431520, Note_on_c, 3, 59, 0
5, 431520, Note_on_c, 3, 62, 0
5, 431520, Note_on_c, 3, 55, 64
5, 431520, Note_on_c, 3, 52, 64
5, 431900, Note_on_c, 3, 52, 0
5, 431900, Note_on_c, 3, 55, 0
5, 432000, Note_on_c, 3, 54, 64
5, 432000, Note_on_c, 3, 50, 64
5, 432480, Note_on_c, 3, 50, 0
5, 432480, Note_on_c, 3, 54, 0
5, 432480, Note_on_c, 3, 55, 64
5, 432480, Note_on_c, 3, 52, 64
5, 432960, Note_on_c, 3, 52, 0
5, 432960, Note_on_c, 3, 55, 0
5, 432960, Note_on_c, 3, 57, 64
5, 432960, Note_on_c, 3, 54, 64
5, 433340, Note_on_c, 3, 54, 0
5, 433340, Note_on_c, 3, 57, 0
5, 433920, Note_on_c, 3, 59, 64
5, 433920, Note_on_c, 3, 55, 64
5, 434400, Note_on_c, 3, 55, 0
5, 434400, Note_on_c, 3, 59, 0
5, 434400, Note_on_c, 3, 61, 64
5, 434400, Note_on_c, 3, 57, 64
5, 434880, Note_on_c, 3, 57, 0
5, 434880, Note_on_c, 3, 61, 0
5, 434880, Note_on_c, 3, 62, 64
5, 434880, Note_on_c, 3, 59, 64
5, 435360, Note_on_c, 3, 59, 0
5, 435360, Note_on_c, 3, 62, 0
5, 435360, Note_on_c, 3, 55, 64
5, 435360, Note_on_c, 3, 52, 64
5, 435740, Note_on_c, 3, 52, 0
5, 435740, Note_on_c, 3, 55, 0
5, 435840, Note_on_c, 3, 54, 64
5, 435840, Note_on_c, 3, 50, 64
5, 436320, Note_on_c, 3, 50, 0
5, 436320, Note_on_c, 3, 54, 0
5, 436320, Note_on_c, 3, 55, 64
5, 436320, Note_on_c, 3, 52, 64
5, 436800, Note_on_c, 3, 52, 0
5, 436800, Note_on_c, 3, 55, 0
5, 436800, Note_on_c, 3, 57, 64
5, 436800, Note_on_c, 3, 54, 64
5, 437180, Note_on_c, 3, 54, 0
5, 437180, Note_on_c, 3, 57, 0
5, 437760, Note_on_c, 3, 55, 96
5, 437950, Note_on_c, 3, 55, 0
5, 438000, Note_on_c, 3, 55, 96
5, 438190, Note_on_c, 3, 55, 0
5, 438240, Note_on_c, 3, 55, 96
5, 438430, Note_on_c, 3, 55, 0
5, 438480, Note_on_c, 3, 55, 96
5, 438670, Note_on_c, 3, 55, 0
5, 438720, Note_on_c, 3, 55, 96
5, 438910, Note_on_c, 3, 55, 0
5, 438960, Note_on_c, 3, 55, 96
5, 439150, Note_on_c, 3, 55, 0
5, 439200, Note_on_c, 3, 55, 96
5, 439390, Note_on_c, 3, 55, 0
5, 439440, Note_on_c, 3, 55, 96
5, 439630, Note_on_c, 3, 55, 0
5, 439680, Note_on_c, 3, 53, 96
5, 439870, Note_on_c, 3, 53, 0
5, 439920, Note_on_c, 3, 53, 96
5, 440110, Note_on_c, 3, 53, 0
5, 440160, Note_on_c, 3, 53, 96
5, 440350, Note_on_c, 3, 53, 0
5, 440400, Note_on_c, 3, 53, 96
5, 440590, Note_on_c, 3, 53, 0
5, 440640, Note_on_c, 3, 53, 96
5, 440830, Note_on_c, 3, 53, 0
5, 440880, Note_on_c, 3, 53, 96
5, 441070, Note_on_c, 3, 53, 0
5, 441120, Note_on_c, 3, 53, 96
5, 441310, Note_on_c, 3, 53, 0
5, 441360, Note_on_c, 3, 53, 96
5, 441550, Note_on_c, 3, 53, 0
5, 441600, Note_on_c, 3, 55, 96
5, 441790, Note_on_c, 3, 55, 0
5, 441840, Note_on_c, 3, 55, 96
5, 442030, Note_on_c, 3, 55, 0
5, 442080, Note_on_c, 3, 55, 96
5, 442270, Note_on_c, 3, 55, 0
5, 442320, Note_on_c, 3, 55, 96
5, 442510, Note_on_c, 3, 55, 0
5, 442560, Note_on_c, 3, 55, 96
5, 442750, Note_on_c, 3, 55, 0
5, 442800, Note_on_c, 3, 55, 96
5, 442990, Note_on_c, 3, 55, 0
5, 443040, Note_on_c, 3, 55, 96
5, 443230, Note_on_c, 3, 55, 0
5, 443280, Note_on_c, 3, 55, 96
5, 443470, Note_on_c, 3, 55, 0
5, 443520, Note_on_c, 3, 53, 96
5, 443710, Note_on_c, 3, 53, 0
5, 443760, Note_on_c, 3, 53, 96
5, 443950, Note_on_c, 3, 53, 0
5, 444000, Note_on_c, 3, 53, 96
5, 444190, Note_on_c, 3, 53, 0
5, 444240, Note_on_c, 3, 53, 96
5, 444430, Note_on_c, 3, 53, 0
5, 444480, Note_on_c, 3, 53, 96
5, 444670, Note_on_c, 3, 53, 0
5, 444720, Note_on_c, 3, 53, 96
5, 444910, Note_on_c, 3, 53, 0
5, 444960, Note_on_c, 3, 53, 96
5, 445150, Note_on_c, 3, 53, 0
5, 445200, Note_on_c, 3, 53, 96
5, 445390, Note_on_c, 3, 53, 0
5, 445440, Note_on_c, 3, 55, 96
5, 445630, Note_on_c, 3, 55, 0
5, 445680, Note_on_c, 3, 55, 96
5, 445870, Note_on_c, 3, 55, 0
5, 445920, Note_on_c, 3, 55, 96
5, 446110, Note_on_c, 3, 55, 0
5, 446160, Note_on_c, 3, 55, 96
5, 446350, Note_on_c, 3, 55, 0
5, 446400, Note_on_c, 3, 55, 96
5, 446590, Note_on_c, 3, 55, 0
5, 446640, Note_on_c, 3, 55, 96
5, 446830, Note_on_c, 3, 55, 0
5, 446880, Note_on_c, 3, 55, 96
5, 447070, Note_on_c, 3, 55, 0
5, 447120, Note_on_c, 3, 55, 96
5, 447310, Note_on_c, 3, 55, 0
5, 447360, Note_on_c, 3, 56, 96
5, 447550, Note_on_c, 3, 56, 0
5, 447600, Note_on_c, 3, 56, 96
5, 447790, Note_on_c, 3, 56, 0
5, 447840, Note_on_c, 3, 56, 96
5, 448030, Note_on_c, 3, 56, 0
5, 448080, Note_on_c, 3, 56, 96
5, 448270, Note_on_c, 3, 56, 0
5, 448320, Note_on_c, 3, 56, 96
5, 448510, Note_on_c, 3, 56, 0
5, 448560, Note_on_c, 3, 56, 96
5, 448750, Note_on_c, 3, 56, 0
5, 448800, Note_on_c, 3, 56, 96
5, 448990, Note_on_c, 3, 56, 0
5, 449040, Note_on_c, 3, 56, 96
5, 449230, Note_on_c, 3, 56, 0
5, 449280, Note_on_c, 3, 57, 96
5, 449470, Note_on_c, 3, 57, 0
5, 449520, Note_on_c, 3, 57, 96
5, 449710, Note_on_c, 3, 57, 0
5, 449760, Note_on_c, 3, 57, 96
5, 449950, Note_on_c, 3, 57, 0
5, 450000, Note_on_c, 3, 57, 96
5, 450190, Note_on_c, 3, 57, 0
5, 450240, Note_on_c, 3, 57, 96
5, 450430, Note_on_c, 3, 57, 0
5, 450480, Note_on_c, 3, 57, 96
5, 450670, Note_on_c, 3, 57, 0
5, 450720, Note_on_c, 3, 57, 96
5, 450910, Note_on_c, 3, 57, 0
5, 450960, Note_on_c, 3, 57, 96
5, 451150, Note_on_c, 3, 57, 0
5, 451200, Note_on_c, 3, 57, 96
5, 451390, Note_on_c, 3, 57, 0
5, 451440, Note_on_c, 3, 57, 96
5, 451630, Note_on_c, 3, 57, 0
5, 451680, Note_on_c, 3, 57, 96
5, 451870, Note_on_c, 3, 57, 0
5, 451920, Note_on_c, 3, 57, 96
5, 452110, Note_on_c, 3, 57, 0
5, 452160, Note_on_c, 3, 57, 96
5, 452350, Note_on_c, 3, 57, 0
5, 452400, Note_on_c, 3, 57, 96
5, 452590, Note_on_c, 3, 57, 0
5, 452640, Note_on_c, 3, 57, 96
5, 452830, Note_on_c, 3, 57, 0
5, 452880, Note_on_c, 3, 57, 96
5, 453070, Note_on_c, 3, 57, 0
5, 453120, Note_on_c, 3, 57, 96
5, 453500, Note_on_c, 3, 57, 0
5, 454080, Note_on_c, 3, 45, 96
5, 454460, Note_on_c, 3, 45, 0
5, 454560, Note_on_c, 3, 45, 96
5, 454940, Note_on_c, 3, 45, 0
5, 455040, Note_on_c, 3, 45, 96
5, 455800, Note_on_c, 3, 45, 0
5, 456960, Note_on_c, 3, 55, 127
5, 458110, Note_on_c, 3, 55, 0
5, 458400, Note_on_c, 3, 54, 96
5, 458520, Note_on_c, 3, 54, 0
5, 458880, Note_on_c, 3, 52, 96
5, 459000, Note_on_c, 3, 52, 0
5, 459360, Note_on_c, 3, 50, 96
5, 459480, Note_on_c, 3, 50, 0
5, 459840, Note_on_c, 3, 49, 96
5, 459960, Note_on_c, 3, 49, 0
5, 464640, Note_on_c, 3, 55, 127
5, 465790, Note_on_c, 3, 55, 0
5, 466080, Note_on_c, 3, 54, 96
5, 466200, Note_on_c, 3, 54, 0
5, 466560, Note_on_c, 3, 52, 96
5, 466680, Note_on_c, 3, 52, 0
5, 467040, Note_on_c, 3, 50, 96
5, 467160, Note_on_c, 3, 50, 0
5, 467520, Note_on_c, 3, 49, 96
5, 467640, Note_on_c, 3, 49, 0
5, 473280, Note_on_c, 3, 67, 96
5, 474620, Note_on_c, 3, 67, 0
5, 474720, Note_on_c, 3, 66, 64
5, 474840, Note_on_c, 3, 66, 0
5, 475200, Note_on_c, 3, 64, 64
5, 475320, Note_on_c, 3, 64, 0
5, 475680, Note_on_c, 3, 62, 64
5, 475800, Note_on_c, 3, 62, 0
5, 476160, Note_on_c, 3, 61, 64
5, 476280, Note_on_c, 3, 61, 0
5, 477120, Note_on_c, 3, 67, 96
5, 478460, Note_on_c, 3, 67, 0
5, 478560, Note_on_c, 3, 65, 64
5, 478680, Note_on_c, 3, 65, 0
5, 479040, Note_on_c, 3, 64, 64
5, 479160, Note_on_c, 3, 64, 0
5, 479520, Note_on_c, 3, 62, 64
5, 479640, Note_on_c, 3, 62, 0
5, 480000, Note_on_c, 3, 61, 64
5, 480380, Note_on_c, 3, 61, 0
5, 480960, Note_on_c, 3, 67, 96
5, 482300, Note_on_c, 3, 67, 0
5, 482400, Note_on_c, 3, 65, 64
5, 482520, Note_on_c, 3, 65, 0
5, 482880, Note_on_c, 3, 64, 64
5, 483000, Note_on_c, 3, 64, 0
5, 483360, Note_on_c, 3, 62, 64
5, 483480, Note_on_c, 3, 62, 0
5, 483840, Note_on_c, 3, 60, 64
5, 484600, Note_on_c, 3, 60, 0
5, 495360, Note_on_c, 3, 62, 64
5, 496890, Note_on_c, 3, 62, 0
5, 497280, Note_on_c, 3, 64, 64
5, 498810, Note_on_c, 3, 64, 0
5, 499200, Note_on_c, 3, 62, 96
5, 499390, Note_on_c, 3, 62, 0
5, 499440, Note_on_c, 3, 62, 96
5, 499630, Note_on_c, 3, 62, 0
5, 499680, Note_on_c, 3, 62, 96
5, 499870, Note_on_c, 3, 62, 0
5, 499920, Note_on_c, 3, 62, 96
5, 500110, Note_on_c, 3, 62, 0
5, 500160, Note_on_c, 3, 62, 96
5, 500350, Note_on_c, 3, 62, 0
5, 500400, Note_on_c, 3, 62, 96
5, 500590, Note_on_c, 3, 62, 0
5, 500640, Note_on_c, 3, 62, 96
5, 500830, Note_on_c, 3, 62, 0
5, 500880, Note_on_c, 3, 62, 96
5, 501070, Note_on_c, 3, 62, 0
5, 501120, Note_on_c, 3, 62, 96
5, 501310, Note_on_c, 3, 62, 0
5, 501360, Note_on_c, 3, 62, 96
5, 501550, Note_on_c, 3, 62, 0
5, 501600, Note_on_c, 3, 62, 96
5, 501790, Note_on_c, 3, 62, 0
5, 501840, Note_on_c, 3, 62, 96
5, 502030, Note_on_c, 3, 62, 0
5, 502080, Note_on_c, 3, 62, 96
5, 502270, Note_on_c, 3, 62, 0
5, 502320, Note_on_c, 3, 62, 96
5, 502510, Note_on_c, 3, 62, 0
5, 502560, Note_on_c, 3, 62, 96
5, 502750, Note_on_c, 3, 62, 0
5, 502800, Note_on_c, 3, 62, 96
5, 502990, Note_on_c, 3, 62, 0
5, 503040, Note_on_c, 3, 55, 96
5, 503230, Note_on_c, 3, 55, 0
5, 503280, Note_on_c, 3, 55, 96
5, 503470, Note_on_c, 3, 55, 0
5, 503520, Note_on_c, 3, 55, 96
5, 503710, Note_on_c, 3, 55, 0
5, 503760, Note_on_c, 3, 55, 96
5, 503950, Note_on_c, 3, 55, 0
5, 504000, Note_on_c, 3, 55, 96
5, 504190, Note_on_c, 3, 55, 0
5, 504240, Note_on_c, 3, 55, 96
5, 504430, Note_on_c, 3, 55, 0
5, 504480, Note_on_c, 3, 55, 96
5, 504670, Note_on_c, 3, 55, 0
5, 504720, Note_on_c, 3, 55, 96
5, 504910, Note_on_c, 3, 55, 0
5, 504960, Note_on_c, 3, 55, 96
5, 505150, Note_on_c, 3, 55, 0
5, 505200, Note_on_c, 3, 55, 96
5, 505390, Note_on_c, 3, 55, 0
5, 505440, Note_on_c, 3, 55, 96
5, 505630, Note_on_c, 3, 55, 0
5, 505680, Note_on_c, 3, 55, 96
5, 505870, Note_on_c, 3, 55, 0
5, 505920, Note_on_c, 3, 55, 96
5, 506110, Note_on_c, 3, 55, 0
5, 506160, Note_on_c, 3, 55, 96
5, 506350, Note_on_c, 3, 55, 0
5, 506400, Note_on_c, 3, 55, 96
5, 506590, Note_on_c, 3, 55, 0
5, 506640, Note_on_c, 3, 55, 96
5, 506830, Note_on_c, 3, 55, 0
5, 506880, Note_on_c, 3, 57, 96
5, 507070, Note_on_c, 3, 57, 0
5, 507120, Note_on_c, 3, 57, 96
5, 507310, Note_on_c, 3, 57, 0
5, 507360, Note_on_c, 3, 57, 96
5, 507550, Note_on_c, 3, 57, 0
5, 507600, Note_on_c, 3, 57, 96
5, 507790, Note_on_c, 3, 57, 0
5, 507840, Note_on_c, 3, 57, 96
5, 508030, Note_on_c, 3, 57, 0
5, 508080, Note_on_c, 3, 57, 96
5, 508270, Note_on_c, 3, 57, 0
5, 508320, Note_on_c, 3, 57, 96
5, 508510, Note_on_c, 3, 57, 0
5, 508560, Note_on_c, 3, 57, 96
5, 508750, Note_on_c, 3, 57, 0
5, 508800, Note_on_c, 3, 45, 96
5, 508990, Note_on_c, 3, 45, 0
5, 509040, Note_on_c, 3, 45, 96
5, 509230, Note_on_c, 3, 45, 0
5, 509280, Note_on_c, 3, 45, 96
5, 509470, Note_on_c, 3, 45, 0
5, 509520, Note_on_c, 3, 45, 96
5, 509710, Note_on_c, 3, 45, 0
5, 509760, Note_on_c, 3, 45, 96
5, 509950, Note_on_c, 3, 45, 0
5, 510000, Note_on_c, 3, 45, 96
5, 510190, Note_on_c, 3, 45, 0
5, 510240, Note_on_c, 3, 45, 96
5, 510430, Note_on_c, 3, 45, 0
5, 510480, Note_on_c, 3, 45, 96
5, 510670, Note_on_c, 3, 45, 0
5, 510720, Note_on_c, 3, 50, 96
5, 510910, Note_on_c, 3, 50, 0
5, 510960, Note_on_c, 3, 50, 96
5, 511150, Note_on_c, 3, 50, 0
5, 511200, Note_on_c, 3, 50, 96
5, 511390, Note_on_c, 3, 50, 0
5, 511440, Note_on_c, 3, 50, 96
5, 511630, Note_on_c, 3, 50, 0
5, 511680, Note_on_c, 3, 50, 96
5, 511870, Note_on_c, 3, 50, 0
5, 511920, Note_on_c, 3, 50, 96
5, 512110, Note_on_c, 3, 50, 0
5, 512160, Note_on_c, 3, 50, 96
5, 512350, Note_on_c, 3, 50, 0
5, 512400, Note_on_c, 3, 50, 96
5, 512590, Note_on_c, 3, 50, 0
5, 512640, Note_on_c, 3, 62, 96
5, 512830, Note_on_c, 3, 62, 0
5, 512880, Note_on_c, 3, 62, 96
5, 513070, Note_on_c, 3, 62, 0
5, 513120, Note_on_c, 3, 62, 96
5, 513310, Note_on_c, 3, 62, 0
5, 513360, Note_on_c, 3, 62, 96
5, 513550, Note_on_c, 3, 62, 0
5, 513600, Note_on_c, 3, 62, 96
5, 513790, Note_on_c, 3, 62, 0
5, 513840, Note_on_c, 3, 62, 96
5, 514030, Note_on_c, 3, 62, 0
5, 514080, Note_on_c, 3, 62, 96
5, 514270, Note_on_c, 3, 62, 0
5, 514320, Note_on_c, 3, 62, 96
5, 514510, Note_on_c, 3, 62, 0
5, 514560, Note_on_c, 3, 55, 96
5, 514750, Note_on_c, 3, 55, 0
5, 514800, Note_on_c, 3, 55, 96
5, 514990, Note_on_c, 3, 55, 0
5, 515040, Note_on_c, 3, 55, 96
5, 515230, Note_on_c, 3, 55, 0
5, 515280, Note_on_c, 3, 55, 96
5, 515470, Note_on_c, 3, 55, 0
5, 515520, Note_on_c, 3, 55, 96
5, 515710, Note_on_c, 3, 55, 0
5, 515760, Note_on_c, 3, 55, 96
5, 515950, Note_on_c, 3, 55, 0
5, 516000, Note_on_c, 3, 55, 96
5, 516190, Note_on_c, 3, 55, 0
5, 516240, Note_on_c, 3, 55, 96
5, 516430, Note_on_c, 3, 55, 0
5, 516480, Note_on_c, 3, 55, 96
5, 516670, Note_on_c, 3, 55, 0
5, 516720, Note_on_c, 3, 55, 96
5, 516910, Note_on_c, 3, 55, 0
5, 516960, Note_on_c, 3, 55, 96
5, 517150, Note_on_c, 3, 55, 0
5, 517200, Note_on_c, 3, 55, 96
5, 517390, Note_on_c, 3, 55, 0
5, 517440, Note_on_c, 3, 55, 96
5, 517630, Note_on_c, 3, 55, 0
5, 517680, Note_on_c, 3, 55, 96
5, 517870, Note_on_c, 3, 55, 0
5, 517920, Note_on_c, 3, 55, 96
5, 518110, Note_on_c, 3, 55, 0
5, 518160, Note_on_c, 3, 55, 96
5, 518350, Note_on_c, 3, 55, 0
5, 518400, Note_on_c, 3, 57, 96
5, 518590, Note_on_c, 3, 57, 0
5, 518640, Note_on_c, 3, 57, 96
5, 518830, Note_on_c, 3, 57, 0
5, 518880, Note_on_c, 3, 57, 96
5, 519070, Note_on_c, 3, 57, 0
5, 519120, Note_on_c, 3, 57, 96
5, 519310, Note_on_c, 3, 57, 0
5, 519360, Note_on_c, 3, 57, 96
5, 519550, Note_on_c, 3, 57, 0
5, 519600, Note_on_c, 3, 57, 96
5, 519790, Note_on_c, 3, 57, 0
5, 519840, Note_on_c, 3, 57, 96
5, 520030, Note_on_c, 3, 57, 0
5, 520080, Note_on_c, 3, 57, 96
5, 520270, Note_on_c, 3, 57, 0
5, 520320, Note_on_c, 3, 45, 96
5, 520510, Note_on_c, 3, 45, 0
5, 520560, Note_on_c, 3, 45, 96
5, 520750, Note_on_c, 3, 45, 0
5, 520800, Note_on_c, 3, 45, 96
5, 520990, Note_on_c, 3, 45, 0
5, 521040, Note_on_c, 3, 45, 96
5, 521230, Note_on_c, 3, 45, 0
5, 521280, Note_on_c, 3, 45, 96
5, 521470, Note_on_c, 3, 45, 0
5, 521520, Note_on_c, 3, 45, 96
5, 521710, Note_on_c, 3, 45, 0
5, 521760, Note_on_c, 3, 45, 96
5, 521950, Note_on_c, 3, 45, 0
5, 522000, Note_on_c, 3, 45, 96
5, 522190, Note_on_c, 3, 45, 0
5, 522240, Note_on_c, 3, 50, 96
5, 522620, Note_on_c, 3, 50, 0
5, 523680, Note_on_c, 3, 45, 96
5, 524060, Note_on_c, 3, 45, 0
5, 524160, Note_on_c, 3, 50, 96
5, 524540, Note_on_c, 3, 50, 0
5, 525600, Note_on_c, 3, 45, 96
5, 525980, Note_on_c, 3, 45, 0
5, 526080, Note_on_c, 3, 50, 96
5, 526270, Note_on_c, 3, 50, 0
5, 526320, Note_on_c, 3, 54, 96
5, 526510, Note_on_c, 3, 54, 0
5, 526560, Note_on_c, 3, 45, 96
5, 526750, Note_on_c, 3, 45, 0
5, 526800, Note_on_c, 3, 49, 96
5, 526990, Note_on_c, 3, 49, 0
5, 527040, Note_on_c, 3, 50, 96
5, 527230, Note_on_c, 3, 50, 0
5, 527280, Note_on_c, 3, 54, 96
5, 527470, Note_on_c, 3, 54, 0
5, 527520, Note_on_c, 3, 55, 96
5, 527710, Note_on_c, 3, 55, 0
5, 527760, Note_on_c, 3, 52, 96
5, 527950, Note_on_c, 3, 52, 0
5, 528000, Note_on_c, 3, 50, 96
5, 528190, Note_on_c, 3, 50, 0
5, 528240, Note_on_c, 3, 54, 96
5, 528430, Note_on_c, 3, 54, 0
5, 528480, Note_on_c, 3, 45, 96
5, 528670, Note_on_c, 3, 45, 0
5, 528720, Note_on_c, 3, 49, 96
5, 528910, Note_on_c, 3, 49, 0
5, 528960, Note_on_c, 3, 50, 96
5, 529150, Note_on_c, 3, 50, 0
5, 529200, Note_on_c, 3, 54, 96
5, 529390, Note_on_c, 3, 54, 0
5, 529440, Note_on_c, 3, 55, 96
5, 529630, Note_on_c, 3, 55, 0
5, 529680, Note_on_c, 3, 52, 96
5, 529870, Note_on_c, 3, 52, 0
5, 529920, Note_on_c, 3, 50, 96
5, 530160, Note_on_c, 3, 50, 0
5, 530160, Note_on_c, 3, 45, 96
5, 530350, Note_on_c, 3, 45, 0
5, 530400, Note_on_c, 3, 54, 96
5, 530460, Note_on_c, 3, 54, 0
5, 530640, Note_on_c, 3, 54, 96
5, 530700, Note_on_c, 3, 54, 0
5, 530880, Note_on_c, 3, 54, 96
5, 531120, Note_on_c, 3, 54, 0
5, 531120, Note_on_c, 3, 50, 96
5, 531310, Note_on_c, 3, 50, 0
5, 531360, Note_on_c, 3, 57, 96
5, 531420, Note_on_c, 3, 57, 0
5, 531600, Note_on_c, 3, 57, 96
5, 531660, Note_on_c, 3, 57, 0
5, 531840, Note_on_c, 3, 57, 96
5, 532080, Note_on_c, 3, 57, 0
5, 532080, Note_on_c, 3, 54, 96
5, 532270, Note_on_c, 3, 54, 0
5, 532320, Note_on_c, 3, 60, 96
5, 532380, Note_on_c, 3, 60, 0
5, 532560, Note_on_c, 3, 60, 96
5, 532620, Note_on_c, 3, 60, 0
5, 532800, Note_on_c, 3, 60, 96
5, 532990, Note_on_c, 3, 60, 0
5, 533040, Note_on_c, 3, 60, 96
5, 533230, Note_on_c, 3, 60, 0
5, 533280, Note_on_c, 3, 60, 96
5, 533470, Note_on_c, 3, 60, 0
5, 533520, Note_on_c, 3, 60, 96
5, 533710, Note_on_c, 3, 60, 0
5, 533760, Note_on_c, 3, 59, 96
5, 534910, Note_on_c, 3, 59, 0
5, 535200, Note_on_c, 3, 57, 96
5, 535320, Note_on_c, 3, 57, 0
5, 535680, Note_on_c, 3, 55, 96
5, 535800, Note_on_c, 3, 55, 0
5, 536160, Note_on_c, 3, 54, 96
5, 536280, Note_on_c, 3, 54, 0
5, 536640, Note_on_c, 3, 52, 96
5, 536760, Note_on_c, 3, 52, 0
5, 537600, Note_on_c, 3, 62, 96
5, 538750, Note_on_c, 3, 62, 0
5, 539040, Note_on_c, 3, 60, 96
5, 539160, Note_on_c, 3, 60, 0
5, 539520, Note_on_c, 3, 59, 96
5, 539640, Note_on_c, 3, 59, 0
5, 540000, Note_on_c, 3, 57, 96
5, 540120, Note_on_c, 3, 57, 0
5, 540480, Note_on_c, 3, 55, 96
5, 540600, Note_on_c, 3, 55, 0
5, 543360, Note_on_c, 3, 58, 64
5, 543360, Note_on_c, 3, 60, 64
5, 545280, Note_on_c, 3, 58, 0
5, 545280, Note_on_c, 3, 57, 64
5, 548730, Note_on_c, 3, 57, 0
5, 548730, Note_on_c, 3, 60, 0
5, 549120, Note_on_c, 3, 64, 64
5, 550650, Note_on_c, 3, 64, 0
5, 551040, Note_on_c, 3, 65, 64
5, 552000, Note_on_c, 3, 65, 0
5, 552000, Note_on_c, 3, 59, 64
5, 552760, Note_on_c, 3, 59, 0
5, 552960, Note_on_c, 3, 60, 64
5, 553920, Note_on_c, 3, 60, 0
5, 553920, Note_on_c, 3, 64, 64
5, 554680, Note_on_c, 3, 64, 0
5, 554880, Note_on_c, 3, 65, 64
5, 555840, Note_on_c, 3, 65, 0
5, 555840, Note_on_c, 3, 59, 64
5, 556600, Note_on_c, 3, 59, 0
5, 556800, Note_on_c, 3, 60, 64
5, 560250, Note_on_c, 3, 60, 0
5, 560640, Note_on_c, 3, 48, 64
5, 562170, Note_on_c, 3, 48, 0
5, 562170, End_track
6, 0, Start_track
6, 0, MIDI_port, 0
6, 0, Title_t, "Corno I, II in D                    "
6, 0, Program_c, 4, 60
6, 0, Control_c, 4, 7, 70
6, 0, Control_c, 4, 10, 40
6, 0, Control_c, 4, 121, 0
6, 360, Control_c, 4, 101, 0
6, 360, Control_c, 4, 100, 0
6, 360, Control_c, 4, 6, 12
6, 360, Control_c, 4, 38, 0
6, 480, Control_c, 4, 5, 0
6, 600, Control_c, 4, 65, 0
6, 720, Control_c, 4, 67, 0
6, 960, Pitch_bend_c, 4, 8192
6, 1080, Control_c, 4, 64, 0
6, 1200, Control_c, 4, 11, 127
6, 1320, Control_c, 4, 1, 0
6, 1560, Control_c, 4, 91, 100
6, 1680, Control_c, 4, 93, 10
6, 1920, Note_on_c, 4, 62, 96
6, 1920, Note_on_c, 4, 50, 96
6, 4220, Note_on_c, 4, 50, 0
6, 4220, Note_on_c, 4, 62, 0
6, 5760, Note_on_c, 4, 57, 96
6, 5760, Note_on_c, 4, 45, 96
6, 8060, Note_on_c, 4, 45, 0
6, 8060, Note_on_c, 4, 57, 0
6, 17280, Note_on_c, 4, 62, 64
6, 17280, Note_on_c, 4, 50, 64
6, 18810, Note_on_c, 4, 50, 0
6, 18810, Note_on_c, 4, 62, 0
6, 19200, Note_on_c, 4, 38, 64
6, 19200, Note_on_c, 4, 26, 64
6, 20730, Note_on_c, 4, 26, 0
6, 20730, Note_on_c, 4, 38, 0
6, 21120, Note_on_c, 4, 57, 64
6, 21120, Note_on_c, 4, 45, 64
6, 28410, Note_on_c, 4, 45, 0
6, 28410, Note_on_c, 4, 57, 0
6, 28800, Note_on_c, 4, 62, 64
6, 28800, Note_on_c, 4, 50, 64
6, 33020, Note_on_c, 4, 50, 0
6, 33020, Note_on_c, 4, 62, 0
6, 34560, Note_on_c, 4, 57, 96
6, 36480, Note_on_c, 4, 50, 96
6, 36860, Note_on_c, 4, 50, 0
6, 36860, Note_on_c, 4, 57, 0
6, 38400, Note_on_c, 4, 62, 96
6, 38400, Note_on_c, 4, 50, 96
6, 39550, Note_on_c, 4, 50, 0
6, 39550, Note_on_c, 4, 62, 0
6, 44160, Note_on_c, 4, 62, 64
6, 44160, Note_on_c, 4, 50, 64
6, 51450, Note_on_c, 4, 50, 0
6, 51450, Note_on_c, 4, 62, 0
6, 53760, Note_on_c, 4, 62, 96
6, 53760, Note_on_c, 4, 50, 96
6, 54520, Note_on_c, 4, 50, 0
6, 54520, Note_on_c, 4, 62, 0
6, 54720, Note_on_c, 4, 62, 96
6, 54720, Note_on_c, 4, 50, 96
6, 55290, Note_on_c, 4, 50, 0
6, 55290, Note_on_c, 4, 62, 0
6, 55440, Note_on_c, 4, 62, 96
6, 55440, Note_on_c, 4, 50, 96
6, 55630, Note_on_c, 4, 50, 0
6, 55630, Note_on_c, 4, 62, 0
6, 55680, Note_on_c, 4, 57, 64
6, 55680, Note_on_c, 4, 45, 64
6, 59130, Note_on_c, 4, 45, 0
6, 59130, Note_on_c, 4, 57, 0
6, 59520, Note_on_c, 4, 57, 48
6, 59520, Note_on_c, 4, 50, 48
6, 59900, Note_on_c, 4, 50, 0
6, 59900, Note_on_c, 4, 57, 0
6, 72960, Note_on_c, 4, 62, 96
6, 72960, Note_on_c, 4, 54, 96
6, 73340, Note_on_c, 4, 54, 0
6, 73340, Note_on_c, 4, 62, 0
6, 73440, Note_on_c, 4, 62, 96
6, 73440, Note_on_c, 4, 54, 96
6, 73630, Note_on_c, 4, 54, 0
6, 73630, Note_on_c, 4, 62, 0
6, 73680, Note_on_c, 4, 62, 96
6, 73680, Note_on_c, 4, 54, 96
6, 73870, Note_on_c, 4, 54, 0
6, 73870, Note_on_c, 4, 62, 0
6, 73920, Note_on_c, 4, 64, 96
6, 73920, Note_on_c, 4, 57, 96
6, 74300, Note_on_c, 4, 57, 0
6, 74300, Note_on_c, 4, 64, 0
6, 74400, Note_on_c, 4, 64, 96
6, 74400, Note_on_c, 4, 57, 96
6, 74590, Note_on_c, 4, 57, 0
6, 74590, Note_on_c, 4, 64, 0
6, 74640, Note_on_c, 4, 64, 96
6, 74640, Note_on_c, 4, 57, 96
6, 74830, Note_on_c, 4, 57, 0
6, 74830, Note_on_c, 4, 64, 0
6, 74880, Note_on_c, 4, 66, 96
6, 74880, Note_on_c, 4, 62, 96
6, 75260, Note_on_c, 4, 62, 0
6, 75260, Note_on_c, 4, 66, 0
6, 75360, Note_on_c, 4, 66, 96
6, 75360, Note_on_c, 4, 62, 96
6, 75550, Note_on_c, 4, 62, 0
6, 75550, Note_on_c, 4, 66, 0
6, 75600, Note_on_c, 4, 66, 96
6, 75600, Note_on_c, 4, 62, 96
6, 75790, Note_on_c, 4, 62, 0
6, 75790, Note_on_c, 4, 66, 0
6, 75840, Note_on_c, 4, 64, 96
6, 75840, Note_on_c, 4, 57, 96
6, 76220, Note_on_c, 4, 57, 0
6, 76220, Note_on_c, 4, 64, 0
6, 76800, Note_on_c, 4, 62, 96
6, 76800, Note_on_c, 4, 50, 96
6, 84090, Note_on_c, 4, 50, 0
6, 84090, Note_on_c, 4, 62, 0
6, 89760, Note_on_c, 4, 64, 64
6, 89760, Note_on_c, 4, 57, 64
6, 90140, Note_on_c, 4, 57, 0
6, 90140, Note_on_c, 4, 64, 0
6, 90240, Note_on_c, 4, 66, 64
6, 90240, Note_on_c, 4, 62, 64
6, 90620, Note_on_c, 4, 62, 0
6, 90620, Note_on_c, 4, 66, 0
6, 91680, Note_on_c, 4, 64, 64
6, 91680, Note_on_c, 4, 57, 64
6, 92060, Note_on_c, 4, 57, 0
6, 92060, Note_on_c, 4, 64, 0
6, 92160, Note_on_c, 4, 62, 96
6, 92160, Note_on_c, 4, 54, 96
6, 92540, Note_on_c, 4, 54, 0
6, 92540, Note_on_c, 4, 62, 0
6, 93600, Note_on_c, 4, 64, 96
6, 93600, Note_on_c, 4, 57, 96
6, 93980, Note_on_c, 4, 57, 0
6, 93980, Note_on_c, 4, 64, 0
6, 94080, Note_on_c, 4, 66, 96
6, 94080, Note_on_c, 4, 62, 96
6, 94460, Note_on_c, 4, 62, 0
6, 94460, Note_on_c, 4, 66, 0
6, 95520, Note_on_c, 4, 64, 96
6, 95520, Note_on_c, 4, 57, 96
6, 95900, Note_on_c, 4, 57, 0
6, 95900, Note_on_c, 4, 64, 0
6, 96000, Note_on_c, 4, 62, 96
6, 96000, Note_on_c, 4, 50, 96
6, 96380, Note_on_c, 4, 50, 0
6, 96380, Note_on_c, 4, 62, 0
6, 96480, Note_on_c, 4, 54, 96
6, 96670, Note_on_c, 4, 54, 0
6, 96720, Note_on_c, 4, 54, 96
6, 96910, Note_on_c, 4, 54, 0
6, 96960, Note_on_c, 4, 54, 96
6, 97340, Note_on_c, 4, 54, 0
6, 97440, Note_on_c, 4, 57, 96
6, 97630, Note_on_c, 4, 57, 0
6, 97680, Note_on_c, 4, 57, 96
6, 97870, Note_on_c, 4, 57, 0
6, 97920, Note_on_c, 4, 57, 96
6, 98300, Note_on_c, 4, 57, 0
6, 98400, Note_on_c, 4, 62, 96
6, 98590, Note_on_c, 4, 62, 0
6, 98640, Note_on_c, 4, 62, 96
6, 98830, Note_on_c, 4, 62, 0
6, 98880, Note_on_c, 4, 62, 96
6, 99070, Note_on_c, 4, 62, 0
6, 99120, Note_on_c, 4, 57, 96
6, 99310, Note_on_c, 4, 57, 0
6, 99360, Note_on_c, 4, 54, 96
6, 99550, Note_on_c, 4, 54, 0
6, 99600, Note_on_c, 4, 50, 96
6, 99790, Note_on_c, 4, 50, 0
6, 99840, Note_on_c, 4, 57, 96
6, 100220, Note_on_c, 4, 57, 0
6, 100320, Note_on_c, 4, 64, 96
6, 100320, Note_on_c, 4, 57, 96
6, 100700, Note_on_c, 4, 57, 0
6, 100700, Note_on_c, 4, 64, 0
6, 100800, Note_on_c, 4, 66, 96
6, 100800, Note_on_c, 4, 62, 96
6, 101180, Note_on_c, 4, 62, 0
6, 101180, Note_on_c, 4, 66, 0
6, 101280, Note_on_c, 4, 66, 96
6, 101280, Note_on_c, 4, 62, 96
6, 101660, Note_on_c, 4, 62, 0
6, 101660, Note_on_c, 4, 66, 0
6, 101760, Note_on_c, 4, 64, 96
6, 101760, Note_on_c, 4, 57, 96
6, 102140, Note_on_c, 4, 57, 0
6, 102140, Note_on_c, 4, 64, 0
6, 102240, Note_on_c, 4, 64, 96
6, 102240, Note_on_c, 4, 57, 96
6, 102620, Note_on_c, 4, 57, 0
6, 102620, Note_on_c, 4, 64, 0
6, 102720, Note_on_c, 4, 66, 96
6, 102720, Note_on_c, 4, 62, 96
6, 103100, Note_on_c, 4, 62, 0
6, 103100, Note_on_c, 4, 66, 0
6, 103200, Note_on_c, 4, 66, 96
6, 103200, Note_on_c, 4, 62, 96
6, 103580, Note_on_c, 4, 62, 0
6, 103580, Note_on_c, 4, 66, 0
6, 103680, Note_on_c, 4, 64, 96
6, 103680, Note_on_c, 4, 57, 96
6, 104060, Note_on_c, 4, 57, 0
6, 104060, Note_on_c, 4, 64, 0
6, 104160, Note_on_c, 4, 66, 96
6, 104160, Note_on_c, 4, 62, 96
6, 104540, Note_on_c, 4, 62, 0
6, 104540, Note_on_c, 4, 66, 0
6, 104640, Note_on_c, 4, 64, 96
6, 104640, Note_on_c, 4, 57, 96
6, 105020, Note_on_c, 4, 57, 0
6, 105020, Note_on_c, 4, 64, 0
6, 105120, Note_on_c, 4, 66, 96
6, 105120, Note_on_c, 4, 62, 96
6, 105500, Note_on_c, 4, 62, 0
6, 105500, Note_on_c, 4, 66, 0
6, 105600, Note_on_c, 4, 64, 96
6, 105600, Note_on_c, 4, 57, 96
6, 105980, Note_on_c, 4, 57, 0
6, 105980, Note_on_c, 4, 64, 0
6, 106080, Note_on_c, 4, 57, 96
6, 106460, Note_on_c, 4, 57, 0
6, 106560, Note_on_c, 4, 57, 96
6, 106940, Note_on_c, 4, 57, 0
6, 107520, Note_on_c, 4, 57, 96
6, 108670, Note_on_c, 4, 57, 0
6, 111360, Note_on_c, 4, 62, 96
6, 111360, Note_on_c, 4, 50, 96
6, 112510, Note_on_c, 4, 50, 0
6, 112510, Note_on_c, 4, 62, 0
6, 115200, Note_on_c, 4, 64, 96
6, 116350, Note_on_c, 4, 64, 0
6, 119040, Note_on_c, 4, 57, 64
6, 119040, Note_on_c, 4, 45, 64
6, 127100, Note_on_c, 4, 45, 0
6, 127100, Note_on_c, 4, 57, 0
6, 128640, Note_on_c, 4, 62, 96
6, 128640, Note_on_c, 4, 50, 96
6, 130170, Note_on_c, 4, 50, 0
6, 130170, Note_on_c, 4, 62, 0
6, 130560, Note_on_c, 4, 57, 96
6, 132090, Note_on_c, 4, 57, 0
6, 132480, Note_on_c, 4, 62, 96
6, 132480, Note_on_c, 4, 50, 96
6, 134010, Note_on_c, 4, 50, 0
6, 134010, Note_on_c, 4, 62, 0
6, 134400, Note_on_c, 4, 57, 96
6, 135930, Note_on_c, 4, 57, 0
6, 136320, Note_on_c, 4, 62, 96
6, 136320, Note_on_c, 4, 50, 96
6, 137850, Note_on_c, 4, 50, 0
6, 137850, Note_on_c, 4, 62, 0
6, 138240, Note_on_c, 4, 66, 96
6, 138240, Note_on_c, 4, 54, 96
6, 139000, Note_on_c, 4, 54, 0
6, 139000, Note_on_c, 4, 66, 0
6, 140160, Note_on_c, 4, 64, 96
6, 144380, Note_on_c, 4, 64, 0
6, 144960, Note_on_c, 4, 64, 96
6, 145340, Note_on_c, 4, 64, 0
6, 145440, Note_on_c, 4, 64, 96
6, 145820, Note_on_c, 4, 64, 0
6, 145920, Note_on_c, 4, 64, 96
6, 146680, Note_on_c, 4, 64, 0
6, 147840, Note_on_c, 4, 64, 96
6, 149370, Note_on_c, 4, 64, 0
6, 155520, Note_on_c, 4, 64, 96
6, 157050, Note_on_c, 4, 64, 0
6, 190080, Note_on_c, 4, 64, 96
6, 190080, Note_on_c, 4, 57, 96
6, 190840, Note_on_c, 4, 57, 0
6, 190840, Note_on_c, 4, 64, 0
6, 192000, Note_on_c, 4, 64, 96
6, 192000, Note_on_c, 4, 57, 96
6, 192760, Note_on_c, 4, 57, 0
6, 192760, Note_on_c, 4, 64, 0
6, 193920, Note_on_c, 4, 66, 96
6, 193920, Note_on_c, 4, 62, 96
6, 194680, Note_on_c, 4, 62, 0
6, 194680, Note_on_c, 4, 66, 0
6, 194880, Note_on_c, 4, 66, 96
6, 194880, Note_on_c, 4, 62, 96
6, 195450, Note_on_c, 4, 62, 0
6, 195450, Note_on_c, 4, 66, 0
6, 195600, Note_on_c, 4, 66, 96
6, 195600, Note_on_c, 4, 62, 96
6, 195790, Note_on_c, 4, 62, 0
6, 195790, Note_on_c, 4, 66, 0
6, 195840, Note_on_c, 4, 66, 96
6, 195840, Note_on_c, 4, 62, 96
6, 197370, Note_on_c, 4, 62, 0
6, 197370, Note_on_c, 4, 66, 0
6, 197760, Note_on_c, 4, 64, 96
6, 198520, Note_on_c, 4, 64, 0
6, 198720, Note_on_c, 4, 64, 96
6, 199100, Note_on_c, 4, 64, 0
6, 199200, Note_on_c, 4, 64, 96
6, 199580, Note_on_c, 4, 64, 0
6, 199680, Note_on_c, 4, 64, 96
6, 200440, Note_on_c, 4, 64, 0
6, 200640, Note_on_c, 4, 64, 96
6, 201400, Note_on_c, 4, 64, 0
6, 201600, Note_on_c, 4, 64, 96
6, 201600, Note_on_c, 4, 57, 96
6, 202360, Note_on_c, 4, 57, 0
6, 202360, Note_on_c, 4, 64, 0
6, 203520, Note_on_c, 4, 64, 96
6, 203520, Note_on_c, 4, 57, 96
6, 204280, Note_on_c, 4, 57, 0
6, 204280, Note_on_c, 4, 64, 0
6, 205440, Note_on_c, 4, 66, 96
6, 205440, Note_on_c, 4, 62, 96
6, 206200, Note_on_c, 4, 62, 0
6, 206200, Note_on_c, 4, 66, 0
6, 206400, Note_on_c, 4, 66, 96
6, 206400, Note_on_c, 4, 62, 96
6, 206970, Note_on_c, 4, 62, 0
6, 206970, Note_on_c, 4, 66, 0
6, 207120, Note_on_c, 4, 66, 96
6, 207120, Note_on_c, 4, 62, 96
6, 207310, Note_on_c, 4, 62, 0
6, 207310, Note_on_c, 4, 66, 0
6, 207360, Note_on_c, 4, 66, 96
6, 207360, Note_on_c, 4, 62, 96
6, 208890, Note_on_c, 4, 62, 0
6, 208890, Note_on_c, 4, 66, 0
6, 209280, Note_on_c, 4, 64, 96
6, 210040, Note_on_c, 4, 64, 0
6, 210240, Note_on_c, 4, 64, 96
6, 210620, Note_on_c, 4, 64, 0
6, 210720, Note_on_c, 4, 64, 96
6, 211100, Note_on_c, 4, 64, 0
6, 211200, Note_on_c, 4, 64, 96
6, 211960, Note_on_c, 4, 64, 0
6, 212160, Note_on_c, 4, 64, 96
6, 212920, Note_on_c, 4, 64, 0
6, 213120, Note_on_c, 4, 64, 96
6, 213120, Note_on_c, 4, 57, 96
6, 213880, Note_on_c, 4, 57, 0
6, 213880, Note_on_c, 4, 64, 0
6, 214560, Note_on_c, 4, 64, 96
6, 214940, Note_on_c, 4, 64, 0
6, 215040, Note_on_c, 4, 64, 96
6, 215040, Note_on_c, 4, 57, 96
6, 215800, Note_on_c, 4, 57, 0
6, 215800, Note_on_c, 4, 64, 0
6, 216480, Note_on_c, 4, 64, 96
6, 216860, Note_on_c, 4, 64, 0
6, 216960, Note_on_c, 4, 64, 96
6, 216960, Note_on_c, 4, 57, 96
6, 217720, Note_on_c, 4, 57, 0
6, 217720, Note_on_c, 4, 64, 0
6, 218400, Note_on_c, 4, 64, 96
6, 218780, Note_on_c, 4, 64, 0
6, 218880, Note_on_c, 4, 64, 96
6, 218880, Note_on_c, 4, 57, 96
6, 219640, Note_on_c, 4, 57, 0
6, 219640, Note_on_c, 4, 64, 0
6, 220320, Note_on_c, 4, 64, 96
6, 220700, Note_on_c, 4, 64, 0
6, 220800, Note_on_c, 4, 64, 96
6, 220800, Note_on_c, 4, 57, 96
6, 221560, Note_on_c, 4, 57, 0
6, 221560, Note_on_c, 4, 64, 0
6, 221760, Note_on_c, 4, 57, 96
6, 221760, Note_on_c, 4, 45, 96
6, 222330, Note_on_c, 4, 45, 0
6, 222330, Note_on_c, 4, 57, 0
6, 222480, Note_on_c, 4, 57, 96
6, 222480, Note_on_c, 4, 45, 96
6, 222670, Note_on_c, 4, 45, 0
6, 222670, Note_on_c, 4, 57, 0
6, 222720, Note_on_c, 4, 57, 96
6, 222720, Note_on_c, 4, 45, 96
6, 223480, Note_on_c, 4, 45, 0
6, 223480, Note_on_c, 4, 57, 0
6, 224640, Note_on_c, 4, 57, 96
6, 224640, Note_on_c, 4, 45, 96
6, 225400, Note_on_c, 4, 45, 0
6, 225400, Note_on_c, 4, 57, 0
6, 226560, Note_on_c, 4, 57, 96
6, 226560, Note_on_c, 4, 45, 96
6, 227320, Note_on_c, 4, 45, 0
6, 227320, Note_on_c, 4, 57, 0
6, 228480, Note_on_c, 4, 57, 96
6, 228480, Note_on_c, 4, 45, 96
6, 228860, Note_on_c, 4, 45, 0
6, 228860, Note_on_c, 4, 57, 0
6, 229440, Note_on_c, 4, 57, 96
6, 229440, Note_on_c, 4, 45, 96
6, 229820, Note_on_c, 4, 45, 0
6, 229820, Note_on_c, 4, 57, 0
6, 230400, Note_on_c, 4, 57, 96
6, 230400, Note_on_c, 4, 45, 96
6, 231160, Note_on_c, 4, 45, 0
6, 231160, Note_on_c, 4, 57, 0
6, 282240, Note_on_c, 4, 62, 96
6, 282240, Note_on_c, 4, 50, 96
6, 282620, Note_on_c, 4, 50, 0
6, 282620, Note_on_c, 4, 62, 0
6, 282720, Note_on_c, 4, 62, 96
6, 282720, Note_on_c, 4, 50, 96
6, 282910, Note_on_c, 4, 50, 0
6, 282910, Note_on_c, 4, 62, 0
6, 282960, Note_on_c, 4, 62, 96
6, 282960, Note_on_c, 4, 50, 96
6, 283150, Note_on_c, 4, 50, 0
6, 283150, Note_on_c, 4, 62, 0
6, 283200, Note_on_c, 4, 62, 96
6, 283200, Note_on_c, 4, 50, 96
6, 283580, Note_on_c, 4, 50, 0
6, 283580, Note_on_c, 4, 62, 0
6, 283680, Note_on_c, 4, 62, 96
6, 283680, Note_on_c, 4, 50, 96
6, 283870, Note_on_c, 4, 50, 0
6, 283870, Note_on_c, 4, 62, 0
6, 283920, Note_on_c, 4, 62, 96
6, 283920, Note_on_c, 4, 50, 96
6, 284110, Note_on_c, 4, 50, 0
6, 284110, Note_on_c, 4, 62, 0
6, 284160, Note_on_c, 4, 62, 96
6, 284160, Note_on_c, 4, 50, 96
6, 284540, Note_on_c, 4, 50, 0
6, 284540, Note_on_c, 4, 62, 0
6, 284640, Note_on_c, 4, 62, 96
6, 284640, Note_on_c, 4, 50, 96
6, 284830, Note_on_c, 4, 50, 0
6, 284830, Note_on_c, 4, 62, 0
6, 284880, Note_on_c, 4, 62, 96
6, 284880, Note_on_c, 4, 50, 96
6, 285070, Note_on_c, 4, 50, 0
6, 285070, Note_on_c, 4, 62, 0
6, 285120, Note_on_c, 4, 62, 96
6, 285120, Note_on_c, 4, 50, 96
6, 285500, Note_on_c, 4, 50, 0
6, 285500, Note_on_c, 4, 62, 0
6, 301440, Note_on_c, 4, 62, 96
6, 301440, Note_on_c, 4, 50, 96
6, 303740, Note_on_c, 4, 50, 0
6, 303740, Note_on_c, 4, 62, 0
6, 309120, Note_on_c, 4, 62, 96
6, 309120, Note_on_c, 4, 50, 96
6, 311420, Note_on_c, 4, 50, 0
6, 311420, Note_on_c, 4, 62, 0
6, 316800, Note_on_c, 4, 62, 96
6, 316800, Note_on_c, 4, 50, 96
6, 319100, Note_on_c, 4, 50, 0
6, 319100, Note_on_c, 4, 62, 0
6, 324480, Note_on_c, 4, 57, 96
6, 324480, Note_on_c, 4, 45, 96
6, 326780, Note_on_c, 4, 45, 0
6, 326780, Note_on_c, 4, 57, 0
6, 332160, Note_on_c, 4, 62, 96
6, 332160, Note_on_c, 4, 50, 96
6, 334460, Note_on_c, 4, 50, 0
6, 334460, Note_on_c, 4, 62, 0
6, 339840, Note_on_c, 4, 62, 96
6, 339840, Note_on_c, 4, 50, 96
6, 342140, Note_on_c, 4, 50, 0
6, 342140, Note_on_c, 4, 62, 0
6, 355200, Note_on_c, 4, 57, 96
6, 355200, Note_on_c, 4, 45, 96
6, 356730, Note_on_c, 4, 45, 0
6, 356730, Note_on_c, 4, 57, 0
6, 357120, Note_on_c, 4, 57, 96
6, 357120, Note_on_c, 4, 45, 96
6, 358650, Note_on_c, 4, 45, 0
6, 358650, Note_on_c, 4, 57, 0
6, 359040, Note_on_c, 4, 57, 96
6, 359040, Note_on_c, 4, 45, 96
6, 360570, Note_on_c, 4, 45, 0
6, 360570, Note_on_c, 4, 57, 0
6, 360960, Note_on_c, 4, 57, 96
6, 360960, Note_on_c, 4, 45, 96
6, 362490, Note_on_c, 4, 45, 0
6, 362490, Note_on_c, 4, 57, 0
6, 362880, Note_on_c, 4, 57, 96
6, 362880, Note_on_c, 4, 45, 96
6, 363260, Note_on_c, 4, 45, 0
6, 363260, Note_on_c, 4, 57, 0
6, 363360, Note_on_c, 4, 64, 96
6, 363360, Note_on_c, 4, 57, 96
6, 363740, Note_on_c, 4, 57, 0
6, 363740, Note_on_c, 4, 64, 0
6, 363840, Note_on_c, 4, 64, 96
6, 363840, Note_on_c, 4, 57, 96
6, 364220, Note_on_c, 4, 57, 0
6, 364220, Note_on_c, 4, 64, 0
6, 364320, Note_on_c, 4, 64, 96
6, 364320, Note_on_c, 4, 57, 96
6, 364700, Note_on_c, 4, 57, 0
6, 364700, Note_on_c, 4, 64, 0
6, 364800, Note_on_c, 4, 64, 96
6, 364800, Note_on_c, 4, 57, 96
6, 365180, Note_on_c, 4, 57, 0
6, 365180, Note_on_c, 4, 64, 0
6, 365280, Note_on_c, 4, 64, 96
6, 365280, Note_on_c, 4, 57, 96
6, 365660, Note_on_c, 4, 57, 0
6, 365660, Note_on_c, 4, 64, 0
6, 365760, Note_on_c, 4, 64, 96
6, 365760, Note_on_c, 4, 57, 96
6, 366140, Note_on_c, 4, 57, 0
6, 366140, Note_on_c, 4, 64, 0
6, 366240, Note_on_c, 4, 64, 96
6, 366240, Note_on_c, 4, 57, 96
6, 366620, Note_on_c, 4, 57, 0
6, 366620, Note_on_c, 4, 64, 0
6, 366720, Note_on_c, 4, 64, 96
6, 366720, Note_on_c, 4, 57, 96
6, 367100, Note_on_c, 4, 57, 0
6, 367100, Note_on_c, 4, 64, 0
6, 382080, Note_on_c, 4, 62, 96
6, 382080, Note_on_c, 4, 54, 96
6, 382460, Note_on_c, 4, 54, 0
6, 382460, Note_on_c, 4, 62, 0
6, 382560, Note_on_c, 4, 62, 96
6, 382560, Note_on_c, 4, 54, 96
6, 382750, Note_on_c, 4, 54, 0
6, 382750, Note_on_c, 4, 62, 0
6, 382800, Note_on_c, 4, 62, 96
6, 382800, Note_on_c, 4, 54, 96
6, 382990, Note_on_c, 4, 54, 0
6, 382990, Note_on_c, 4, 62, 0
6, 383040, Note_on_c, 4, 64, 96
6, 383040, Note_on_c, 4, 57, 96
6, 383420, Note_on_c, 4, 57, 0
6, 383420, Note_on_c, 4, 64, 0
6, 383520, Note_on_c, 4, 64, 96
6, 383520, Note_on_c, 4, 57, 96
6, 383710, Note_on_c, 4, 57, 0
6, 383710, Note_on_c, 4, 64, 0
6, 383760, Note_on_c, 4, 64, 96
6, 383760, Note_on_c, 4, 57, 96
6, 383950, Note_on_c, 4, 57, 0
6, 383950, Note_on_c, 4, 64, 0
6, 384000, Note_on_c, 4, 66, 96
6, 384000, Note_on_c, 4, 62, 96
6, 384380, Note_on_c, 4, 62, 0
6, 384380, Note_on_c, 4, 66, 0
6, 384480, Note_on_c, 4, 66, 96
6, 384480, Note_on_c, 4, 62, 96
6, 384670, Note_on_c, 4, 62, 0
6, 384670, Note_on_c, 4, 66, 0
6, 384720, Note_on_c, 4, 66, 96
6, 384720, Note_on_c, 4, 62, 96
6, 384910, Note_on_c, 4, 62, 0
6, 384910, Note_on_c, 4, 66, 0
6, 384960, Note_on_c, 4, 64, 96
6, 384960, Note_on_c, 4, 57, 96
6, 385340, Note_on_c, 4, 57, 0
6, 385340, Note_on_c, 4, 64, 0
6, 385920, Note_on_c, 4, 62, 64
6, 385920, Note_on_c, 4, 50, 64
6, 393210, Note_on_c, 4, 50, 0
6, 393210, Note_on_c, 4, 62, 0
6, 398880, Note_on_c, 4, 64, 64
6, 398880, Note_on_c, 4, 57, 64
6, 399260, Note_on_c, 4, 57, 0
6, 399260, Note_on_c, 4, 64, 0
6, 399360, Note_on_c, 4, 66, 64
6, 399360, Note_on_c, 4, 62, 64
6, 399740, Note_on_c, 4, 62, 0
6, 399740, Note_on_c, 4, 66, 0
6, 400800, Note_on_c, 4, 64, 64
6, 400800, Note_on_c, 4, 57, 64
6, 401180, Note_on_c, 4, 57, 0
6, 401180, Note_on_c, 4, 64, 0
6, 401280, Note_on_c, 4, 62, 96
6, 401280, Note_on_c, 4, 54, 96
6, 401660, Note_on_c, 4, 54, 0
6, 401660, Note_on_c, 4, 62, 0
6, 402720, Note_on_c, 4, 64, 96
6, 402720, Note_on_c, 4, 57, 96
6, 403100, Note_on_c, 4, 57, 0
6, 403100, Note_on_c, 4, 64, 0
6, 403200, Note_on_c, 4, 66, 96
6, 403200, Note_on_c, 4, 62, 96
6, 403580, Note_on_c, 4, 62, 0
6, 403580, Note_on_c, 4, 66, 0
6, 404640, Note_on_c, 4, 64, 96
6, 404640, Note_on_c, 4, 57, 96
6, 405020, Note_on_c, 4, 57, 0
6, 405020, Note_on_c, 4, 64, 0
6, 405120, Note_on_c, 4, 62, 96
6, 405120, Note_on_c, 4, 50, 96
6, 405500, Note_on_c, 4, 50, 0
6, 405500, Note_on_c, 4, 62, 0
6, 405600, Note_on_c, 4, 54, 96
6, 405790, Note_on_c, 4, 54, 0
6, 405840, Note_on_c, 4, 54, 96
6, 406220, Note_on_c, 4, 54, 0
6, 406320, Note_on_c, 4, 57, 96
6, 406510, Note_on_c, 4, 57, 0
6, 406560, Note_on_c, 4, 57, 96
6, 406750, Note_on_c, 4, 57, 0
6, 407040, Note_on_c, 4, 57, 96
6, 407420, Note_on_c, 4, 57, 0
6, 407520, Note_on_c, 4, 62, 96
6, 407710, Note_on_c, 4, 62, 0
6, 407760, Note_on_c, 4, 62, 96
6, 407950, Note_on_c, 4, 62, 0
6, 408000, Note_on_c, 4, 62, 96
6, 408190, Note_on_c, 4, 62, 0
6, 408240, Note_on_c, 4, 57, 96
6, 408430, Note_on_c, 4, 57, 0
6, 408480, Note_on_c, 4, 54, 96
6, 408670, Note_on_c, 4, 54, 0
6, 408720, Note_on_c, 4, 50, 96
6, 408910, Note_on_c, 4, 50, 0
6, 408960, Note_on_c, 4, 57, 96
6, 409340, Note_on_c, 4, 57, 0
6, 409440, Note_on_c, 4, 64, 96
6, 409440, Note_on_c, 4, 57, 96
6, 409820, Note_on_c, 4, 57, 0
6, 409820, Note_on_c, 4, 64, 0
6, 409920, Note_on_c, 4, 66, 96
6, 409920, Note_on_c, 4, 62, 96
6, 410300, Note_on_c, 4, 62, 0
6, 410300, Note_on_c, 4, 66, 0
6, 410400, Note_on_c, 4, 66, 96
6, 410400, Note_on_c, 4, 62, 96
6, 410780, Note_on_c, 4, 62, 0
6, 410780, Note_on_c, 4, 66, 0
6, 410880, Note_on_c, 4, 64, 96
6, 410880, Note_on_c, 4, 57, 96
6, 411260, Note_on_c, 4, 57, 0
6, 411260, Note_on_c, 4, 64, 0
6, 411360, Note_on_c, 4, 64, 96
6, 411360, Note_on_c, 4, 57, 96
6, 411740, Note_on_c, 4, 57, 0
6, 411740, Note_on_c, 4, 64, 0
6, 411840, Note_on_c, 4, 66, 96
6, 411840, Note_on_c, 4, 62, 96
6, 412220, Note_on_c, 4, 62, 0
6, 412220, Note_on_c, 4, 66, 0
6, 412320, Note_on_c, 4, 66, 96
6, 412320, Note_on_c, 4, 62, 96
6, 412700, Note_on_c, 4, 62, 0
6, 412700, Note_on_c, 4, 66, 0
6, 412800, Note_on_c, 4, 64, 96
6, 412800, Note_on_c, 4, 57, 96
6, 413180, Note_on_c, 4, 57, 0
6, 413180, Note_on_c, 4, 64, 0
6, 413280, Note_on_c, 4, 66, 96
6, 413280, Note_on_c, 4, 62, 96
6, 413660, Note_on_c, 4, 62, 0
6, 413660, Note_on_c, 4, 66, 0
6, 413760, Note_on_c, 4, 64, 96
6, 413760, Note_on_c, 4, 57, 96
6, 414140, Note_on_c, 4, 57, 0
6, 414140, Note_on_c, 4, 64, 0
6, 414240, Note_on_c, 4, 66, 96
6, 414240, Note_on_c, 4, 62, 96
6, 414620, Note_on_c, 4, 62, 0
6, 414620, Note_on_c, 4, 66, 0
6, 414720, Note_on_c, 4, 64, 96
6, 414720, Note_on_c, 4, 57, 96
6, 415100, Note_on_c, 4, 57, 0
6, 415100, Note_on_c, 4, 64, 0
6, 415200, Note_on_c, 4, 57, 96
6, 415200, Note_on_c, 4, 45, 96
6, 415580, Note_on_c, 4, 45, 0
6, 415580, Note_on_c, 4, 57, 0
6, 415680, Note_on_c, 4, 57, 96
6, 415680, Note_on_c, 4, 45, 96
6, 416060, Note_on_c, 4, 45, 0
6, 416060, Note_on_c, 4, 57, 0
6, 416640, Note_on_c, 4, 62, 96
6, 416640, Note_on_c, 4, 50, 96
6, 417790, Note_on_c, 4, 50, 0
6, 417790, Note_on_c, 4, 62, 0
6, 420480, Note_on_c, 4, 62, 96
6, 420480, Note_on_c, 4, 50, 96
6, 421630, Note_on_c, 4, 50, 0
6, 421630, Note_on_c, 4, 62, 0
6, 424320, Note_on_c, 4, 57, 96
6, 424320, Note_on_c, 4, 45, 96
6, 425470, Note_on_c, 4, 45, 0
6, 425470, Note_on_c, 4, 57, 0
6, 428160, Note_on_c, 4, 62, 64
6, 428160, Note_on_c, 4, 50, 64
6, 436220, Note_on_c, 4, 50, 0
6, 436220, Note_on_c, 4, 62, 0
6, 439680, Note_on_c, 4, 62, 96
6, 439680, Note_on_c, 4, 50, 96
6, 441210, Note_on_c, 4, 50, 0
6, 441210, Note_on_c, 4, 62, 0
6, 443520, Note_on_c, 4, 62, 96
6, 443520, Note_on_c, 4, 50, 96
6, 445050, Note_on_c, 4, 50, 0
6, 445050, Note_on_c, 4, 62, 0
6, 447360, Note_on_c, 4, 62, 96
6, 447360, Note_on_c, 4, 50, 96
6, 448890, Note_on_c, 4, 50, 0
6, 448890, Note_on_c, 4, 62, 0
6, 449280, Note_on_c, 4, 57, 96
6, 449660, Note_on_c, 4, 57, 0
6, 449760, Note_on_c, 4, 57, 96
6, 450140, Note_on_c, 4, 57, 0
6, 450240, Note_on_c, 4, 57, 96
6, 450620, Note_on_c, 4, 57, 0
6, 450720, Note_on_c, 4, 57, 96
6, 451100, Note_on_c, 4, 57, 0
6, 451200, Note_on_c, 4, 57, 96
6, 451580, Note_on_c, 4, 57, 0
6, 451680, Note_on_c, 4, 57, 96
6, 452060, Note_on_c, 4, 57, 0
6, 452160, Note_on_c, 4, 57, 96
6, 452540, Note_on_c, 4, 57, 0
6, 452640, Note_on_c, 4, 57, 96
6, 453020, Note_on_c, 4, 57, 0
6, 453120, Note_on_c, 4, 57, 96
6, 453500, Note_on_c, 4, 57, 0
6, 454080, Note_on_c, 4, 57, 96
6, 454460, Note_on_c, 4, 57, 0
6, 454560, Note_on_c, 4, 57, 96
6, 454940, Note_on_c, 4, 57, 0
6, 455040, Note_on_c, 4, 57, 96
6, 455800, Note_on_c, 4, 57, 0
6, 456960, Note_on_c, 4, 57, 96
6, 456960, Note_on_c, 4, 45, 96
6, 458490, Note_on_c, 4, 45, 0
6, 458490, Note_on_c, 4, 57, 0
6, 464640, Note_on_c, 4, 57, 96
6, 464640, Note_on_c, 4, 45, 96
6, 466170, Note_on_c, 4, 45, 0
6, 466170, Note_on_c, 4, 57, 0
6, 499200, Note_on_c, 4, 62, 96
6, 499200, Note_on_c, 4, 50, 96
6, 499960, Note_on_c, 4, 50, 0
6, 499960, Note_on_c, 4, 62, 0
6, 500160, Note_on_c, 4, 62, 96
6, 500160, Note_on_c, 4, 50, 96
6, 500730, Note_on_c, 4, 50, 0
6, 500730, Note_on_c, 4, 62, 0
6, 500880, Note_on_c, 4, 62, 96
6, 500880, Note_on_c, 4, 50, 96
6, 501070, Note_on_c, 4, 50, 0
6, 501070, Note_on_c, 4, 62, 0
6, 501120, Note_on_c, 4, 62, 96
6, 501120, Note_on_c, 4, 50, 96
6, 501880, Note_on_c, 4, 50, 0
6, 501880, Note_on_c, 4, 62, 0
6, 502080, Note_on_c, 4, 62, 96
6, 502080, Note_on_c, 4, 50, 96
6, 502650, Note_on_c, 4, 50, 0
6, 502650, Note_on_c, 4, 62, 0
6, 502800, Note_on_c, 4, 62, 96
6, 502800, Note_on_c, 4, 50, 96
6, 502990, Note_on_c, 4, 50, 0
6, 502990, Note_on_c, 4, 62, 0
6, 503040, Note_on_c, 4, 62, 96
6, 503040, Note_on_c, 4, 50, 96
6, 503800, Note_on_c, 4, 50, 0
6, 503800, Note_on_c, 4, 62, 0
6, 504000, Note_on_c, 4, 62, 96
6, 504000, Note_on_c, 4, 50, 96
6, 504570, Note_on_c, 4, 50, 0
6, 504570, Note_on_c, 4, 62, 0
6, 504720, Note_on_c, 4, 62, 96
6, 504720, Note_on_c, 4, 50, 96
6, 504910, Note_on_c, 4, 50, 0
6, 504910, Note_on_c, 4, 62, 0
6, 504960, Note_on_c, 4, 62, 96
6, 504960, Note_on_c, 4, 50, 96
6, 505530, Note_on_c, 4, 50, 0
6, 505530, Note_on_c, 4, 62, 0
6, 505680, Note_on_c, 4, 62, 96
6, 505680, Note_on_c, 4, 50, 96
6, 505870, Note_on_c, 4, 50, 0
6, 505870, Note_on_c, 4, 62, 0
6, 505920, Note_on_c, 4, 62, 96
6, 505920, Note_on_c, 4, 50, 96
6, 506490, Note_on_c, 4, 50, 0
6, 506490, Note_on_c, 4, 62, 0
6, 506640, Note_on_c, 4, 62, 96
6, 506640, Note_on_c, 4, 50, 96
6, 506830, Note_on_c, 4, 50, 0
6, 506830, Note_on_c, 4, 62, 0
6, 506880, Note_on_c, 4, 57, 96
6, 506880, Note_on_c, 4, 45, 96
6, 508410, Note_on_c, 4, 45, 0
6, 508410, Note_on_c, 4, 57, 0
6, 508800, Note_on_c, 4, 57, 96
6, 508800, Note_on_c, 4, 45, 96
6, 509560, Note_on_c, 4, 45, 0
6, 509560, Note_on_c, 4, 57, 0
6, 509760, Note_on_c, 4, 57, 96
6, 509760, Note_on_c, 4, 45, 96
6, 510520, Note_on_c, 4, 45, 0
6, 510520, Note_on_c, 4, 57, 0
6, 510720, Note_on_c, 4, 62, 96
6, 510720, Note_on_c, 4, 50, 96
6, 511480, Note_on_c, 4, 50, 0
6, 511480, Note_on_c, 4, 62, 0
6, 511680, Note_on_c, 4, 62, 96
6, 511680, Note_on_c, 4, 50, 96
6, 512250, Note_on_c, 4, 50, 0
6, 512250, Note_on_c, 4, 62, 0
6, 512400, Note_on_c, 4, 62, 96
6, 512400, Note_on_c, 4, 50, 96
6, 512590, Note_on_c, 4, 50, 0
6, 512590, Note_on_c, 4, 62, 0
6, 512640, Note_on_c, 4, 62, 96
6, 512640, Note_on_c, 4, 50, 96
6, 513400, Note_on_c, 4, 50, 0
6, 513400, Note_on_c, 4, 62, 0
6, 513600, Note_on_c, 4, 62, 96
6, 513600, Note_on_c, 4, 50, 96
6, 514170, Note_on_c, 4, 50, 0
6, 514170, Note_on_c, 4, 62, 0
6, 514320, Note_on_c, 4, 62, 96
6, 514320, Note_on_c, 4, 50, 96
6, 514510, Note_on_c, 4, 50, 0
6, 514510, Note_on_c, 4, 62, 0
6, 514560, Note_on_c, 4, 62, 96
6, 514560, Note_on_c, 4, 50, 96
6, 515320, Note_on_c, 4, 50, 0
6, 515320, Note_on_c, 4, 62, 0
6, 515520, Note_on_c, 4, 62, 96
6, 515520, Note_on_c, 4, 50, 96
6, 516090, Note_on_c, 4, 50, 0
6, 516090, Note_on_c, 4, 62, 0
6, 516240, Note_on_c, 4, 62, 96
6, 516240, Note_on_c, 4, 50, 96
6, 516430, Note_on_c, 4, 50, 0
6, 516430, Note_on_c, 4, 62, 0
6, 516480, Note_on_c, 4, 62, 96
6, 516480, Note_on_c, 4, 50, 96
6, 517050, Note_on_c, 4, 50, 0
6, 517050, Note_on_c, 4, 62, 0
6, 517200, Note_on_c, 4, 62, 96
6, 517200, Note_on_c, 4, 50, 96
6, 517390, Note_on_c, 4, 50, 0
6, 517390, Note_on_c, 4, 62, 0
6, 517440, Note_on_c, 4, 62, 96
6, 517440, Note_on_c, 4, 50, 96
6, 518010, Note_on_c, 4, 50, 0
6, 518010, Note_on_c, 4, 62, 0
6, 518160, Note_on_c, 4, 62, 96
6, 518160, Note_on_c, 4, 50, 96
6, 518350, Note_on_c, 4, 50, 0
6, 518350, Note_on_c, 4, 62, 0
6, 518400, Note_on_c, 4, 57, 96
6, 518400, Note_on_c, 4, 45, 96
6, 519930, Note_on_c, 4, 45, 0
6, 519930, Note_on_c, 4, 57, 0
6, 520320, Note_on_c, 4, 57, 96
6, 520320, Note_on_c, 4, 45, 96
6, 521080, Note_on_c, 4, 45, 0
6, 521080, Note_on_c, 4, 57, 0
6, 521280, Note_on_c, 4, 57, 96
6, 521280, Note_on_c, 4, 45, 96
6, 522040, Note_on_c, 4, 45, 0
6, 522040, Note_on_c, 4, 57, 0
6, 522240, Note_on_c, 4, 54, 96
6, 522240, Note_on_c, 4, 50, 96
6, 523000, Note_on_c, 4, 50, 0
6, 523000, Note_on_c, 4, 54, 0
6, 523680, Note_on_c, 4, 57, 96
6, 524060, Note_on_c, 4, 57, 0
6, 524160, Note_on_c, 4, 62, 96
6, 524160, Note_on_c, 4, 50, 96
6, 524920, Note_on_c, 4, 50, 0
6, 524920, Note_on_c, 4, 62, 0
6, 525600, Note_on_c, 4, 57, 96
6, 525980, Note_on_c, 4, 57, 0
6, 526080, Note_on_c, 4, 62, 96
6, 526080, Note_on_c, 4, 50, 96
6, 526840, Note_on_c, 4, 50, 0
6, 526840, Note_on_c, 4, 62, 0
6, 527520, Note_on_c, 4, 57, 96
6, 527900, Note_on_c, 4, 57, 0
6, 528000, Note_on_c, 4, 62, 96
6, 528000, Note_on_c, 4, 50, 96
6, 528760, Note_on_c, 4, 50, 0
6, 528760, Note_on_c, 4, 62, 0
6, 529440, Note_on_c, 4, 57, 96
6, 529820, Note_on_c, 4, 57, 0
6, 529920, Note_on_c, 4, 62, 96
6, 529920, Note_on_c, 4, 50, 96
6, 530300, Note_on_c, 4, 50, 0
6, 530300, Note_on_c, 4, 62, 0
6, 530880, Note_on_c, 4, 62, 96
6, 530880, Note_on_c, 4, 50, 96
6, 531260, Note_on_c, 4, 50, 0
6, 531260, Note_on_c, 4, 62, 0
6, 531840, Note_on_c, 4, 62, 96
6, 531840, Note_on_c, 4, 50, 96
6, 532220, Note_on_c, 4, 50, 0
6, 532220, Note_on_c, 4, 62, 0
6, 532320, Note_on_c, 4, 62, 96
6, 532320, Note_on_c, 4, 50, 96
6, 532700, Note_on_c, 4, 50, 0
6, 532700, Note_on_c, 4, 62, 0
6, 532800, Note_on_c, 4, 62, 96
6, 532800, Note_on_c, 4, 50, 96
6, 533180, Note_on_c, 4, 50, 0
6, 533180, Note_on_c, 4, 62, 0
6, 533280, Note_on_c, 4, 62, 96
6, 533280, Note_on_c, 4, 50, 96
6, 533660, Note_on_c, 4, 50, 0
6, 533660, Note_on_c, 4, 62, 0
6, 533760, Note_on_c, 4, 62, 96
6, 533760, Note_on_c, 4, 50, 96
6, 536060, Note_on_c, 4, 50, 0
6, 536060, Note_on_c, 4, 62, 0
6, 537600, Note_on_c, 4, 62, 96
6, 537600, Note_on_c, 4, 50, 96
6, 539900, Note_on_c, 4, 50, 0
6, 539900, Note_on_c, 4, 62, 0
6, 539900, End_track
7, 0, Start_track
7, 0, MIDI_port, 0
7, 0, Title_t, "Clarino I, II in D                  "
7, 0, Program_c, 5, 56
7, 0, Control_c, 5, 7, 70
7, 0, Control_c, 5, 10, 90
7, 0, Control_c, 5, 121, 0
7, 360, Control_c, 5, 101, 0
7, 360, Control_c, 5, 100, 0
7, 360, Control_c, 5, 6, 12
7, 360, Control_c, 5, 38, 0
7, 480, Control_c, 5, 5, 0
7, 600, Control_c, 5, 65, 0
7, 720, Control_c, 5, 67, 0
7, 960, Pitch_bend_c, 5, 8192
7, 1080, Control_c, 5, 64, 0
7, 1200, Control_c, 5, 11, 127
7, 1320, Control_c, 5, 1, 0
7, 1560, Control_c, 5, 91, 100
7, 1680, Control_c, 5, 93, 10
7, 1920, Note_on_c, 5, 74, 96
7, 1920, Note_on_c, 5, 62, 96
7, 4220, Note_on_c, 5, 62, 0
7, 4220, Note_on_c, 5, 74, 0
7, 5760, Note_on_c, 5, 69, 96
7, 5760, Note_on_c, 5, 57, 96
7, 8060, Note_on_c, 5, 57, 0
7, 8060, Note_on_c, 5, 69, 0
7, 17280, Note_on_c, 5, 74, 64
7, 17280, Note_on_c, 5, 62, 64
7, 18810, Note_on_c, 5, 62, 0
7, 18810, Note_on_c, 5, 74, 0
7, 19200, Note_on_c, 5, 50, 64
7, 19200, Note_on_c, 5, 38, 64
7, 20730, Note_on_c, 5, 38, 0
7, 20730, Note_on_c, 5, 50, 0
7, 21120, Note_on_c, 5, 57, 64
7, 22270, Note_on_c, 5, 57, 0
7, 24960, Note_on_c, 5, 69, 64
7, 24960, Note_on_c, 5, 57, 64
7, 25720, Note_on_c, 5, 57, 0
7, 25720, Note_on_c, 5, 69, 0
7, 28800, Note_on_c, 5, 74, 64
7, 28800, Note_on_c, 5, 62, 64
7, 33020, Note_on_c, 5, 62, 0
7, 33020, Note_on_c, 5, 74, 0
7, 34560, Note_on_c, 5, 57, 64
7, 34560, Note_on_c, 5, 69, 64
7, 36480, Note_on_c, 5, 57, 0
7, 36480, Note_on_c, 5, 62, 64
7, 36860, Note_on_c, 5, 62, 0
7, 36860, Note_on_c, 5, 69, 0
7, 38400, Note_on_c, 5, 74, 96
7, 38400, Note_on_c, 5, 62, 96
7, 39550, Note_on_c, 5, 62, 0
7, 39550, Note_on_c, 5, 74, 0
7, 44160, Note_on_c, 5, 74, 64
7, 44160, Note_on_c, 5, 62, 64
7, 44920, Note_on_c, 5, 62, 0
7, 44920, Note_on_c, 5, 74, 0
7, 46080, Note_on_c, 5, 74, 64
7, 46080, Note_on_c, 5, 62, 64
7, 46840, Note_on_c, 5, 62, 0
7, 46840, Note_on_c, 5, 74, 0
7, 48000, Note_on_c, 5, 74, 64
7, 48000, Note_on_c, 5, 62, 64
7, 48760, Note_on_c, 5, 62, 0
7, 48760, Note_on_c, 5, 74, 0
7, 49920, Note_on_c, 5, 74, 64
7, 49920, Note_on_c, 5, 62, 64
7, 50680, Note_on_c, 5, 62, 0
7, 50680, Note_on_c, 5, 74, 0
7, 53760, Note_on_c, 5, 74, 96
7, 53760, Note_on_c, 5, 62, 96
7, 54520, Note_on_c, 5, 62, 0
7, 54520, Note_on_c, 5, 74, 0
7, 54720, Note_on_c, 5, 74, 96
7, 54720, Note_on_c, 5, 62, 96
7, 55290, Note_on_c, 5, 62, 0
7, 55290, Note_on_c, 5, 74, 0
7, 55440, Note_on_c, 5, 74, 96
7, 55440, Note_on_c, 5, 62, 96
7, 55630, Note_on_c, 5, 62, 0
7, 55630, Note_on_c, 5, 74, 0
7, 55680, Note_on_c, 5, 69, 64
7, 55680, Note_on_c, 5, 57, 64
7, 59130, Note_on_c, 5, 57, 0
7, 59130, Note_on_c, 5, 69, 0
7, 59520, Note_on_c, 5, 69, 48
7, 59520, Note_on_c, 5, 62, 48
7, 59900, Note_on_c, 5, 62, 0
7, 59900, Note_on_c, 5, 69, 0
7, 72960, Note_on_c, 5, 74, 48
7, 72960, Note_on_c, 5, 66, 48
7, 73340, Note_on_c, 5, 66, 0
7, 73340, Note_on_c, 5, 74, 0
7, 73920, Note_on_c, 5, 76, 48
7, 73920, Note_on_c, 5, 69, 48
7, 74300, Note_on_c, 5, 69, 0
7, 74300, Note_on_c, 5, 76, 0
7, 74880, Note_on_c, 5, 78, 48
7, 74880, Note_on_c, 5, 74, 48
7, 75260, Note_on_c, 5, 74, 0
7, 75260, Note_on_c, 5, 78, 0
7, 75840, Note_on_c, 5, 76, 48
7, 75840, Note_on_c, 5, 69, 48
7, 76220, Note_on_c, 5, 69, 0
7, 76220, Note_on_c, 5, 76, 0
7, 92160, Note_on_c, 5, 74, 96
7, 92160, Note_on_c, 5, 66, 96
7, 92540, Note_on_c, 5, 66, 0
7, 92540, Note_on_c, 5, 74, 0
7, 93600, Note_on_c, 5, 76, 96
7, 93600, Note_on_c, 5, 69, 96
7, 93980, Note_on_c, 5, 69, 0
7, 93980, Note_on_c, 5, 76, 0
7, 94080, Note_on_c, 5, 78, 96
7, 94080, Note_on_c, 5, 74, 96
7, 94460, Note_on_c, 5, 74, 0
7, 94460, Note_on_c, 5, 78, 0
7, 95520, Note_on_c, 5, 76, 96
7, 95520, Note_on_c, 5, 69, 96
7, 95900, Note_on_c, 5, 69, 0
7, 95900, Note_on_c, 5, 76, 0
7, 96000, Note_on_c, 5, 74, 96
7, 96000, Note_on_c, 5, 62, 96
7, 96380, Note_on_c, 5, 62, 0
7, 96380, Note_on_c, 5, 74, 0
7, 96480, Note_on_c, 5, 66, 96
7, 96670, Note_on_c, 5, 66, 0
7, 96720, Note_on_c, 5, 66, 96
7, 96910, Note_on_c, 5, 66, 0
7, 96960, Note_on_c, 5, 66, 96
7, 97340, Note_on_c, 5, 66, 0
7, 97440, Note_on_c, 5, 69, 96
7, 97630, Note_on_c, 5, 69, 0
7, 97680, Note_on_c, 5, 69, 96
7, 97870, Note_on_c, 5, 69, 0
7, 97920, Note_on_c, 5, 69, 96
7, 98300, Note_on_c, 5, 69, 0
7, 98400, Note_on_c, 5, 74, 96
7, 98400, Note_on_c, 5, 62, 96
7, 98590, Note_on_c, 5, 62, 0
7, 98590, Note_on_c, 5, 74, 0
7, 98640, Note_on_c, 5, 74, 96
7, 98640, Note_on_c, 5, 62, 96
7, 98830, Note_on_c, 5, 62, 0
7, 98830, Note_on_c, 5, 74, 0
7, 98880, Note_on_c, 5, 74, 96
7, 98880, Note_on_c, 5, 62, 96
7, 99260, Note_on_c, 5, 62, 0
7, 99260, Note_on_c, 5, 74, 0
7, 99840, Note_on_c, 5, 69, 96
7, 100600, Note_on_c, 5, 69, 0
7, 101280, Note_on_c, 5, 69, 96
7, 101660, Note_on_c, 5, 69, 0
7, 101760, Note_on_c, 5, 69, 96
7, 102520, Note_on_c, 5, 69, 0
7, 103200, Note_on_c, 5, 69, 96
7, 103580, Note_on_c, 5, 69, 0
7, 103680, Note_on_c, 5, 69, 96
7, 104060, Note_on_c, 5, 69, 0
7, 104160, Note_on_c, 5, 69, 96
7, 104540, Note_on_c, 5, 69, 0
7, 104640, Note_on_c, 5, 69, 96
7, 105020, Note_on_c, 5, 69, 0
7, 105120, Note_on_c, 5, 69, 96
7, 105500, Note_on_c, 5, 69, 0
7, 105600, Note_on_c, 5, 69, 96
7, 105980, Note_on_c, 5, 69, 0
7, 106080, Note_on_c, 5, 69, 96
7, 106460, Note_on_c, 5, 69, 0
7, 106560, Note_on_c, 5, 69, 96
7, 106940, Note_on_c, 5, 69, 0
7, 107520, Note_on_c, 5, 69, 96
7, 108670, Note_on_c, 5, 69, 0
7, 111360, Note_on_c, 5, 74, 96
7, 111360, Note_on_c, 5, 62, 96
7, 112510, Note_on_c, 5, 62, 0
7, 112510, Note_on_c, 5, 74, 0
7, 115200, Note_on_c, 5, 76, 96
7, 116350, Note_on_c, 5, 76, 0
7, 128640, Note_on_c, 5, 74, 96
7, 128640, Note_on_c, 5, 62, 96
7, 130170, Note_on_c, 5, 62, 0
7, 130170, Note_on_c, 5, 74, 0
7, 130560, Note_on_c, 5, 69, 96
7, 132090, Note_on_c, 5, 69, 0
7, 132480, Note_on_c, 5, 74, 96
7, 132480, Note_on_c, 5, 62, 96
7, 134010, Note_on_c, 5, 62, 0
7, 134010, Note_on_c, 5, 74, 0
7, 134400, Note_on_c, 5, 69, 96
7, 135930, Note_on_c, 5, 69, 0
7, 136320, Note_on_c, 5, 74, 96
7, 136320, Note_on_c, 5, 62, 96
7, 137850, Note_on_c, 5, 62, 0
7, 137850, Note_on_c, 5, 74, 0
7, 138240, Note_on_c, 5, 78, 96
7, 138240, Note_on_c, 5, 66, 96
7, 139000, Note_on_c, 5, 66, 0
7, 139000, Note_on_c, 5, 78, 0
7, 140160, Note_on_c, 5, 76, 96
7, 144380, Note_on_c, 5, 76, 0
7, 144960, Note_on_c, 5, 76, 96
7, 145340, Note_on_c, 5, 76, 0
7, 145440, Note_on_c, 5, 76, 96
7, 145820, Note_on_c, 5, 76, 0
7, 145920, Note_on_c, 5, 76, 96
7, 146680, Note_on_c, 5, 76, 0
7, 147840, Note_on_c, 5, 76, 96
7, 149370, Note_on_c, 5, 76, 0
7, 155520, Note_on_c, 5, 76, 96
7, 157050, Note_on_c, 5, 76, 0
7, 190080, Note_on_c, 5, 76, 96
7, 190080, Note_on_c, 5, 69, 96
7, 190840, Note_on_c, 5, 69, 0
7, 190840, Note_on_c, 5, 76, 0
7, 192000, Note_on_c, 5, 76, 96
7, 192000, Note_on_c, 5, 69, 96
7, 192760, Note_on_c, 5, 69, 0
7, 192760, Note_on_c, 5, 76, 0
7, 193920, Note_on_c, 5, 78, 96
7, 193920, Note_on_c, 5, 74, 96
7, 194680, Note_on_c, 5, 74, 0
7, 194680, Note_on_c, 5, 78, 0
7, 194880, Note_on_c, 5, 78, 96
7, 194880, Note_on_c, 5, 74, 96
7, 195450, Note_on_c, 5, 74, 0
7, 195450, Note_on_c, 5, 78, 0
7, 195600, Note_on_c, 5, 78, 96
7, 195600, Note_on_c, 5, 74, 96
7, 195790, Note_on_c, 5, 74, 0
7, 195790, Note_on_c, 5, 78, 0
7, 195840, Note_on_c, 5, 78, 96
7, 195840, Note_on_c, 5, 74, 96
7, 197370, Note_on_c, 5, 74, 0
7, 197370, Note_on_c, 5, 78, 0
7, 197760, Note_on_c, 5, 76, 96
7, 198520, Note_on_c, 5, 76, 0
7, 198720, Note_on_c, 5, 76, 96
7, 199100, Note_on_c, 5, 76, 0
7, 199200, Note_on_c, 5, 76, 96
7, 199580, Note_on_c, 5, 76, 0
7, 199680, Note_on_c, 5, 76, 96
7, 200440, Note_on_c, 5, 76, 0
7, 200640, Note_on_c, 5, 76, 96
7, 201400, Note_on_c, 5, 76, 0
7, 201600, Note_on_c, 5, 76, 96
7, 201600, Note_on_c, 5, 69, 96
7, 202360, Note_on_c, 5, 69, 0
7, 202360, Note_on_c, 5, 76, 0
7, 203520, Note_on_c, 5, 76, 96
7, 203520, Note_on_c, 5, 69, 96
7, 204280, Note_on_c, 5, 69, 0
7, 204280, Note_on_c, 5, 76, 0
7, 205440, Note_on_c, 5, 78, 96
7, 205440, Note_on_c, 5, 74, 96
7, 206200, Note_on_c, 5, 74, 0
7, 206200, Note_on_c, 5, 78, 0
7, 206400, Note_on_c, 5, 78, 96
7, 206400, Note_on_c, 5, 74, 96
7, 206970, Note_on_c, 5, 74, 0
7, 206970, Note_on_c, 5, 78, 0
7, 207120, Note_on_c, 5, 78, 96
7, 207120, Note_on_c, 5, 74, 96
7, 207310, Note_on_c, 5, 74, 0
7, 207310, Note_on_c, 5, 78, 0
7, 207360, Note_on_c, 5, 78, 96
7, 207360, Note_on_c, 5, 74, 96
7, 208890, Note_on_c, 5, 74, 0
7, 208890, Note_on_c, 5, 78, 0
7, 209280, Note_on_c, 5, 76, 96
7, 210040, Note_on_c, 5, 76, 0
7, 210240, Note_on_c, 5, 76, 96
7, 210620, Note_on_c, 5, 76, 0
7, 210720, Note_on_c, 5, 76, 96
7, 211100, Note_on_c, 5, 76, 0
7, 211200, Note_on_c, 5, 76, 96
7, 211960, Note_on_c, 5, 76, 0
7, 212160, Note_on_c, 5, 76, 96
7, 212920, Note_on_c, 5, 76, 0
7, 213120, Note_on_c, 5, 76, 96
7, 213120, Note_on_c, 5, 69, 96
7, 213880, Note_on_c, 5, 69, 0
7, 213880, Note_on_c, 5, 76, 0
7, 214560, Note_on_c, 5, 76, 96
7, 214940, Note_on_c, 5, 76, 0
7, 215040, Note_on_c, 5, 76, 96
7, 215040, Note_on_c, 5, 69, 96
7, 215800, Note_on_c, 5, 69, 0
7, 215800, Note_on_c, 5, 76, 0
7, 216480, Note_on_c, 5, 76, 96
7, 216860, Note_on_c, 5, 76, 0
7, 216960, Note_on_c, 5, 76, 96
7, 216960, Note_on_c, 5, 69, 96
7, 217720, Note_on_c, 5, 69, 0
7, 217720, Note_on_c, 5, 76, 0
7, 218400, Note_on_c, 5, 76, 96
7, 218780, Note_on_c, 5, 76, 0
7, 218880, Note_on_c, 5, 76, 96
7, 218880, Note_on_c, 5, 69, 96
7, 219640, Note_on_c, 5, 69, 0
7, 219640, Note_on_c, 5, 76, 0
7, 220320, Note_on_c, 5, 76, 96
7, 220700, Note_on_c, 5, 76, 0
7, 220800, Note_on_c, 5, 76, 96
7, 220800, Note_on_c, 5, 69, 96
7, 221560, Note_on_c, 5, 69, 0
7, 221560, Note_on_c, 5, 76, 0
7, 221760, Note_on_c, 5, 69, 96
7, 221760, Note_on_c, 5, 57, 96
7, 222330, Note_on_c, 5, 57, 0
7, 222330, Note_on_c, 5, 69, 0
7, 222480, Note_on_c, 5, 69, 96
7, 222480, Note_on_c, 5, 57, 96
7, 222670, Note_on_c, 5, 57, 0
7, 222670, Note_on_c, 5, 69, 0
7, 222720, Note_on_c, 5, 69, 96
7, 222720, Note_on_c, 5, 57, 96
7, 223480, Note_on_c, 5, 57, 0
7, 223480, Note_on_c, 5, 69, 0
7, 224640, Note_on_c, 5, 69, 96
7, 224640, Note_on_c, 5, 57, 96
7, 225400, Note_on_c, 5, 57, 0
7, 225400, Note_on_c, 5, 69, 0
7, 226560, Note_on_c, 5, 69, 96
7, 226560, Note_on_c, 5, 57, 96
7, 227320, Note_on_c, 5, 57, 0
7, 227320, Note_on_c, 5, 69, 0
7, 228480, Note_on_c, 5, 69, 96
7, 228480, Note_on_c, 5, 57, 96
7, 228860, Note_on_c, 5, 57, 0
7, 228860, Note_on_c, 5, 69, 0
7, 229440, Note_on_c, 5, 69, 96
7, 229440, Note_on_c, 5, 57, 96
7, 229820, Note_on_c, 5, 57, 0
7, 229820, Note_on_c, 5, 69, 0
7, 230400, Note_on_c, 5, 69, 96
7, 230400, Note_on_c, 5, 57, 96
7, 231160, Note_on_c, 5, 57, 0
7, 231160, Note_on_c, 5, 69, 0
7, 282240, Note_on_c, 5, 74, 96
7, 282240, Note_on_c, 5, 62, 96
7, 282620, Note_on_c, 5, 62, 0
7, 282620, Note_on_c, 5, 74, 0
7, 283200, Note_on_c, 5, 74, 96
7, 283200, Note_on_c, 5, 62, 96
7, 283580, Note_on_c, 5, 62, 0
7, 283580, Note_on_c, 5, 74, 0
7, 284160, Note_on_c, 5, 74, 96
7, 284160, Note_on_c, 5, 62, 96
7, 284540, Note_on_c, 5, 62, 0
7, 284540, Note_on_c, 5, 74, 0
7, 285120, Note_on_c, 5, 74, 96
7, 285120, Note_on_c, 5, 62, 96
7, 285500, Note_on_c, 5, 62, 0
7, 285500, Note_on_c, 5, 74, 0
7, 301440, Note_on_c, 5, 74, 96
7, 301440, Note_on_c, 5, 62, 96
7, 303740, Note_on_c, 5, 62, 0
7, 303740, Note_on_c, 5, 74, 0
7, 309120, Note_on_c, 5, 74, 96
7, 309120, Note_on_c, 5, 62, 96
7, 311420, Note_on_c, 5, 62, 0
7, 311420, Note_on_c, 5, 74, 0
7, 316800, Note_on_c, 5, 74, 96
7, 316800, Note_on_c, 5, 62, 96
7, 319100, Note_on_c, 5, 62, 0
7, 319100, Note_on_c, 5, 74, 0
7, 324480, Note_on_c, 5, 69, 96
7, 324480, Note_on_c, 5, 57, 96
7, 326780, Note_on_c, 5, 57, 0
7, 326780, Note_on_c, 5, 69, 0
7, 332160, Note_on_c, 5, 74, 96
7, 332160, Note_on_c, 5, 62, 96
7, 334460, Note_on_c, 5, 62, 0
7, 334460, Note_on_c, 5, 74, 0
7, 339840, Note_on_c, 5, 74, 96
7, 339840, Note_on_c, 5, 62, 96
7, 342140, Note_on_c, 5, 62, 0
7, 342140, Note_on_c, 5, 74, 0
7, 355200, Note_on_c, 5, 69, 96
7, 355200, Note_on_c, 5, 57, 96
7, 355960, Note_on_c, 5, 57, 0
7, 355960, Note_on_c, 5, 69, 0
7, 357120, Note_on_c, 5, 69, 96
7, 357120, Note_on_c, 5, 57, 96
7, 357880, Note_on_c, 5, 57, 0
7, 357880, Note_on_c, 5, 69, 0
7, 359040, Note_on_c, 5, 69, 96
7, 359040, Note_on_c, 5, 57, 96
7, 359800, Note_on_c, 5, 57, 0
7, 359800, Note_on_c, 5, 69, 0
7, 360960, Note_on_c, 5, 69, 96
7, 360960, Note_on_c, 5, 57, 96
7, 361720, Note_on_c, 5, 57, 0
7, 361720, Note_on_c, 5, 69, 0
7, 362880, Note_on_c, 5, 69, 96
7, 362880, Note_on_c, 5, 57, 96
7, 363640, Note_on_c, 5, 57, 0
7, 363640, Note_on_c, 5, 69, 0
7, 363840, Note_on_c, 5, 69, 96
7, 363840, Note_on_c, 5, 57, 96
7, 364410, Note_on_c, 5, 57, 0
7, 364410, Note_on_c, 5, 69, 0
7, 364560, Note_on_c, 5, 69, 96
7, 364560, Note_on_c, 5, 57, 96
7, 364750, Note_on_c, 5, 57, 0
7, 364750, Note_on_c, 5, 69, 0
7, 364800, Note_on_c, 5, 69, 96
7, 364800, Note_on_c, 5, 57, 96
7, 365180, Note_on_c, 5, 57, 0
7, 365180, Note_on_c, 5, 69, 0
7, 365280, Note_on_c, 5, 69, 96
7, 365280, Note_on_c, 5, 57, 96
7, 365660, Note_on_c, 5, 57, 0
7, 365660, Note_on_c, 5, 69, 0
7, 365760, Note_on_c, 5, 69, 96
7, 365760, Note_on_c, 5, 57, 96
7, 366140, Note_on_c, 5, 57, 0
7, 366140, Note_on_c, 5, 69, 0
7, 366240, Note_on_c, 5, 69, 96
7, 366240, Note_on_c, 5, 57, 96
7, 366620, Note_on_c, 5, 57, 0
7, 366620, Note_on_c, 5, 69, 0
7, 366720, Note_on_c, 5, 69, 96
7, 366720, Note_on_c, 5, 57, 96
7, 367100, Note_on_c, 5, 57, 0
7, 367100, Note_on_c, 5, 69, 0
7, 382080, Note_on_c, 5, 74, 96
7, 382080, Note_on_c, 5, 66, 96
7, 382460, Note_on_c, 5, 66, 0
7, 382460, Note_on_c, 5, 74, 0
7, 383040, Note_on_c, 5, 76, 96
7, 383040, Note_on_c, 5, 69, 96
7, 383420, Note_on_c, 5, 69, 0
7, 383420, Note_on_c, 5, 76, 0
7, 384000, Note_on_c, 5, 78, 96
7, 384000, Note_on_c, 5, 74, 96
7, 384380, Note_on_c, 5, 74, 0
7, 384380, Note_on_c, 5, 78, 0
7, 384960, Note_on_c, 5, 76, 96
7, 384960, Note_on_c, 5, 69, 96
7, 385340, Note_on_c, 5, 69, 0
7, 385340, Note_on_c, 5, 76, 0
7, 401280, Note_on_c, 5, 74, 96
7, 401280, Note_on_c, 5, 66, 96
7, 401660, Note_on_c, 5, 66, 0
7, 401660, Note_on_c, 5, 74, 0
7, 402720, Note_on_c, 5, 76, 96
7, 402720, Note_on_c, 5, 69, 96
7, 403100, Note_on_c, 5, 69, 0
7, 403100, Note_on_c, 5, 76, 0
7, 403200, Note_on_c, 5, 78, 96
7, 403200, Note_on_c, 5, 74, 96
7, 403580, Note_on_c, 5, 74, 0
7, 403580, Note_on_c, 5, 78, 0
7, 404640, Note_on_c, 5, 76, 96
7, 404640, Note_on_c, 5, 69, 96
7, 405020, Note_on_c, 5, 69, 0
7, 405020, Note_on_c, 5, 76, 0
7, 405120, Note_on_c, 5, 74, 96
7, 405120, Note_on_c, 5, 62, 96
7, 405500, Note_on_c, 5, 62, 0
7, 405500, Note_on_c, 5, 74, 0
7, 405600, Note_on_c, 5, 66, 96
7, 405790, Note_on_c, 5, 66, 0
7, 405840, Note_on_c, 5, 66, 96
7, 406030, Note_on_c, 5, 66, 0
7, 406080, Note_on_c, 5, 66, 96
7, 406460, Note_on_c, 5, 66, 0
7, 406560, Note_on_c, 5, 69, 96
7, 406750, Note_on_c, 5, 69, 0
7, 406800, Note_on_c, 5, 69, 96
7, 406990, Note_on_c, 5, 69, 0
7, 407040, Note_on_c, 5, 69, 96
7, 407420, Note_on_c, 5, 69, 0
7, 407520, Note_on_c, 5, 74, 96
7, 407520, Note_on_c, 5, 62, 96
7, 407710, Note_on_c, 5, 62, 0
7, 407710, Note_on_c, 5, 74, 0
7, 407760, Note_on_c, 5, 74, 96
7, 407760, Note_on_c, 5, 62, 96
7, 407950, Note_on_c, 5, 62, 0
7, 407950, Note_on_c, 5, 74, 0
7, 408000, Note_on_c, 5, 74, 96
7, 408000, Note_on_c, 5, 62, 96
7, 408380, Note_on_c, 5, 62, 0
7, 408380, Note_on_c, 5, 74, 0
7, 408960, Note_on_c, 5, 69, 96
7, 409340, Note_on_c, 5, 69, 0
7, 409920, Note_on_c, 5, 69, 96
7, 410300, Note_on_c, 5, 69, 0
7, 410880, Note_on_c, 5, 69, 96
7, 411260, Note_on_c, 5, 69, 0
7, 411840, Note_on_c, 5, 69, 96
7, 412220, Note_on_c, 5, 69, 0
7, 412800, Note_on_c, 5, 69, 96
7, 413180, Note_on_c, 5, 69, 0
7, 413280, Note_on_c, 5, 69, 96
7, 413660, Note_on_c, 5, 69, 0
7, 413760, Note_on_c, 5, 69, 96
7, 414140, Note_on_c, 5, 69, 0
7, 414240, Note_on_c, 5, 69, 96
7, 414620, Note_on_c, 5, 69, 0
7, 414720, Note_on_c, 5, 69, 96
7, 415100, Note_on_c, 5, 69, 0
7, 415200, Note_on_c, 5, 69, 96
7, 415580, Note_on_c, 5, 69, 0
7, 415680, Note_on_c, 5, 69, 96
7, 416060, Note_on_c, 5, 69, 0
7, 416640, Note_on_c, 5, 74, 96
7, 416640, Note_on_c, 5, 62, 96
7, 417790, Note_on_c, 5, 62, 0
7, 417790, Note_on_c, 5, 74, 0
7, 420480, Note_on_c, 5, 74, 96
7, 420480, Note_on_c, 5, 62, 96
7, 421630, Note_on_c, 5, 62, 0
7, 421630, Note_on_c, 5, 74, 0
7, 424320, Note_on_c, 5, 69, 96
7, 424320, Note_on_c, 5, 57, 96
7, 425470, Note_on_c, 5, 57, 0
7, 425470, Note_on_c, 5, 69, 0
7, 439680, Note_on_c, 5, 74, 96
7, 439680, Note_on_c, 5, 62, 96
7, 441210, Note_on_c, 5, 62, 0
7, 441210, Note_on_c, 5, 74, 0
7, 443520, Note_on_c, 5, 74, 96
7, 443520, Note_on_c, 5, 62, 96
7, 445050, Note_on_c, 5, 62, 0
7, 445050, Note_on_c, 5, 74, 0
7, 447360, Note_on_c, 5, 74, 96
7, 447360, Note_on_c, 5, 62, 96
7, 448890, Note_on_c, 5, 62, 0
7, 448890, Note_on_c, 5, 74, 0
7, 449280, Note_on_c, 5, 69, 96
7, 449660, Note_on_c, 5, 69, 0
7, 449760, Note_on_c, 5, 69, 96
7, 450140, Note_on_c, 5, 69, 0
7, 450240, Note_on_c, 5, 69, 96
7, 450620, Note_on_c, 5, 69, 0
7, 450720, Note_on_c, 5, 69, 96
7, 451100, Note_on_c, 5, 69, 0
7, 451200, Note_on_c, 5, 69, 96
7, 451580, Note_on_c, 5, 69, 0
7, 451680, Note_on_c, 5, 69, 96
7, 452060, Note_on_c, 5, 69, 0
7, 452160, Note_on_c, 5, 69, 96
7, 452540, Note_on_c, 5, 69, 0
7, 452640, Note_on_c, 5, 69, 96
7, 453020, Note_on_c, 5, 69, 0
7, 453120, Note_on_c, 5, 69, 96
7, 453500, Note_on_c, 5, 69, 0
7, 454080, Note_on_c, 5, 69, 96
7, 454460, Note_on_c, 5, 69, 0
7, 454560, Note_on_c, 5, 69, 96
7, 454940, Note_on_c, 5, 69, 0
7, 455040, Note_on_c, 5, 69, 96
7, 455800, Note_on_c, 5, 69, 0
7, 456960, Note_on_c, 5, 69, 96
7, 456960, Note_on_c, 5, 57, 96
7, 458490, Note_on_c, 5, 57, 0
7, 458490, Note_on_c, 5, 69, 0
7, 464640, Note_on_c, 5, 69, 96
7, 464640, Note_on_c, 5, 57, 96
7, 466170, Note_on_c, 5, 57, 0
7, 466170, Note_on_c, 5, 69, 0
7, 499200, Note_on_c, 5, 74, 96
7, 499200, Note_on_c, 5, 62, 96
7, 499960, Note_on_c, 5, 62, 0
7, 499960, Note_on_c, 5, 74, 0
7, 500160, Note_on_c, 5, 74, 96
7, 500160, Note_on_c, 5, 62, 96
7, 500730, Note_on_c, 5, 62, 0
7, 500730, Note_on_c, 5, 74, 0
7, 500880, Note_on_c, 5, 74, 96
7, 500880, Note_on_c, 5, 62, 96
7, 501070, Note_on_c, 5, 62, 0
7, 501070, Note_on_c, 5, 74, 0
7, 501120, Note_on_c, 5, 74, 96
7, 501120, Note_on_c, 5, 62, 96
7, 501880, Note_on_c, 5, 62, 0
7, 501880, Note_on_c, 5, 74, 0
7, 502080, Note_on_c, 5, 74, 96
7, 502080, Note_on_c, 5, 62, 96
7, 502650, Note_on_c, 5, 62, 0
7, 502650, Note_on_c, 5, 74, 0
7, 502800, Note_on_c, 5, 74, 96
7, 502800, Note_on_c, 5, 62, 96
7, 502990, Note_on_c, 5, 62, 0
7, 502990, Note_on_c, 5, 74, 0
7, 503040, Note_on_c, 5, 74, 96
7, 503040, Note_on_c, 5, 62, 96
7, 503800, Note_on_c, 5, 62, 0
7, 503800, Note_on_c, 5, 74, 0
7, 504000, Note_on_c, 5, 74, 96
7, 504000, Note_on_c, 5, 62, 96
7, 504570, Note_on_c, 5, 62, 0
7, 504570, Note_on_c, 5, 74, 0
7, 504720, Note_on_c, 5, 74, 96
7, 504720, Note_on_c, 5, 62, 96
7, 504910, Note_on_c, 5, 62, 0
7, 504910, Note_on_c, 5, 74, 0
7, 504960, Note_on_c, 5, 74, 96
7, 504960, Note_on_c, 5, 62, 96
7, 505530, Note_on_c, 5, 62, 0
7, 505530, Note_on_c, 5, 74, 0
7, 505680, Note_on_c, 5, 74, 96
7, 505680, Note_on_c, 5, 62, 96
7, 505870, Note_on_c, 5, 62, 0
7, 505870, Note_on_c, 5, 74, 0
7, 505920, Note_on_c, 5, 74, 96
7, 505920, Note_on_c, 5, 62, 96
7, 506490, Note_on_c, 5, 62, 0
7, 506490, Note_on_c, 5, 74, 0
7, 506640, Note_on_c, 5, 74, 96
7, 506640, Note_on_c, 5, 62, 96
7, 506830, Note_on_c, 5, 62, 0
7, 506830, Note_on_c, 5, 74, 0
7, 506880, Note_on_c, 5, 69, 96
7, 506880, Note_on_c, 5, 57, 96
7, 508410, Note_on_c, 5, 57, 0
7, 508410, Note_on_c, 5, 69, 0
7, 508800, Note_on_c, 5, 69, 96
7, 508800, Note_on_c, 5, 57, 96
7, 509560, Note_on_c, 5, 57, 0
7, 509560, Note_on_c, 5, 69, 0
7, 509760, Note_on_c, 5, 69, 96
7, 509760, Note_on_c, 5, 57, 96
7, 510520, Note_on_c, 5, 57, 0
7, 510520, Note_on_c, 5, 69, 0
7, 510720, Note_on_c, 5, 74, 96
7, 510720, Note_on_c, 5, 62, 96
7, 511480, Note_on_c, 5, 62, 0
7, 511480, Note_on_c, 5, 74, 0
7, 511680, Note_on_c, 5, 74, 96
7, 511680, Note_on_c, 5, 62, 96
7, 512250, Note_on_c, 5, 62, 0
7, 512250, Note_on_c, 5, 74, 0
7, 512400, Note_on_c, 5, 74, 96
7, 512400, Note_on_c, 5, 62, 96
7, 512590, Note_on_c, 5, 62, 0
7, 512590, Note_on_c, 5, 74, 0
7, 512640, Note_on_c, 5, 74, 96
7, 512640, Note_on_c, 5, 62, 96
7, 513400, Note_on_c, 5, 62, 0
7, 513400, Note_on_c, 5, 74, 0
7, 513600, Note_on_c, 5, 74, 96
7, 513600, Note_on_c, 5, 62, 96
7, 514170, Note_on_c, 5, 62, 0
7, 514170, Note_on_c, 5, 74, 0
7, 514320, Note_on_c, 5, 74, 96
7, 514320, Note_on_c, 5, 62, 96
7, 514510, Note_on_c, 5, 62, 0
7, 514510, Note_on_c, 5, 74, 0
7, 514560, Note_on_c, 5, 74, 96
7, 514560, Note_on_c, 5, 62, 96
7, 515320, Note_on_c, 5, 62, 0
7, 515320, Note_on_c, 5, 74, 0
7, 515520, Note_on_c, 5, 74, 96
7, 515520, Note_on_c, 5, 62, 96
7, 516090, Note_on_c, 5, 62, 0
7, 516090, Note_on_c, 5, 74, 0
7, 516240, Note_on_c, 5, 74, 96
7, 516240, Note_on_c, 5, 62, 96
7, 516430, Note_on_c, 5, 62, 0
7, 516430, Note_on_c, 5, 74, 0
7, 516480, Note_on_c, 5, 74, 96
7, 516480, Note_on_c, 5, 62, 96
7, 517050, Note_on_c, 5, 62, 0
7, 517050, Note_on_c, 5, 74, 0
7, 517200, Note_on_c, 5, 74, 96
7, 517200, Note_on_c, 5, 62, 96
7, 517390, Note_on_c, 5, 62, 0
7, 517390, Note_on_c, 5, 74, 0
7, 517440, Note_on_c, 5, 74, 96
7, 517440, Note_on_c, 5, 62, 96
7, 518010, Note_on_c, 5, 62, 0
7, 518010, Note_on_c, 5, 74, 0
7, 518160, Note_on_c, 5, 74, 96
7, 518160, Note_on_c, 5, 62, 96
7, 518350, Note_on_c, 5, 62, 0
7, 518350, Note_on_c, 5, 74, 0
7, 518400, Note_on_c, 5, 69, 96
7, 518400, Note_on_c, 5, 57, 96
7, 519930, Note_on_c, 5, 57, 0
7, 519930, Note_on_c, 5, 69, 0
7, 520320, Note_on_c, 5, 69, 96
7, 520320, Note_on_c, 5, 57, 96
7, 521080, Note_on_c, 5, 57, 0
7, 521080, Note_on_c, 5, 69, 0
7, 521280, Note_on_c, 5, 69, 96
7, 521280, Note_on_c, 5, 57, 96
7, 522040, Note_on_c, 5, 57, 0
7, 522040, Note_on_c, 5, 69, 0
7, 522240, Note_on_c, 5, 66, 96
7, 522240, Note_on_c, 5, 62, 96
7, 523000, Note_on_c, 5, 62, 0
7, 523000, Note_on_c, 5, 66, 0
7, 523680, Note_on_c, 5, 69, 96
7, 524060, Note_on_c, 5, 69, 0
7, 524160, Note_on_c, 5, 74, 96
7, 524160, Note_on_c, 5, 62, 96
7, 524920, Note_on_c, 5, 62, 0
7, 524920, Note_on_c, 5, 74, 0
7, 525600, Note_on_c, 5, 69, 96
7, 525980, Note_on_c, 5, 69, 0
7, 526080, Note_on_c, 5, 74, 96
7, 526080, Note_on_c, 5, 62, 96
7, 526840, Note_on_c, 5, 62, 0
7, 526840, Note_on_c, 5, 74, 0
7, 527520, Note_on_c, 5, 69, 96
7, 527900, Note_on_c, 5, 69, 0
7, 528000, Note_on_c, 5, 74, 96
7, 528000, Note_on_c, 5, 62, 96
7, 528760, Note_on_c, 5, 62, 0
7, 528760, Note_on_c, 5, 74, 0
7, 529440, Note_on_c, 5, 69, 96
7, 529820, Note_on_c, 5, 69, 0
7, 529920, Note_on_c, 5, 74, 96
7, 529920, Note_on_c, 5, 62, 96
7, 530300, Note_on_c, 5, 62, 0
7, 530300, Note_on_c, 5, 74, 0
7, 530880, Note_on_c, 5, 74, 96
7, 530880, Note_on_c, 5, 62, 96
7, 531260, Note_on_c, 5, 62, 0
7, 531260, Note_on_c, 5, 74, 0
7, 531840, Note_on_c, 5, 74, 96
7, 531840, Note_on_c, 5, 62, 96
7, 532220, Note_on_c, 5, 62, 0
7, 532220, Note_on_c, 5, 74, 0
7, 532320, Note_on_c, 5, 74, 96
7, 532320, Note_on_c, 5, 62, 96
7, 532700, Note_on_c, 5, 62, 0
7, 532700, Note_on_c, 5, 74, 0
7, 532800, Note_on_c, 5, 74, 96
7, 532800, Note_on_c, 5, 62, 96
7, 533180, Note_on_c, 5, 62, 0
7, 533180, Note_on_c, 5, 74, 0
7, 533280, Note_on_c, 5, 74, 96
7, 533280, Note_on_c, 5, 62, 96
7, 533660, Note_on_c, 5, 62, 0
7, 533660, Note_on_c, 5, 74, 0
7, 533760, Note_on_c, 5, 62, 96
7, 533760, Note_on_c, 5, 74, 96
7, 535290, Note_on_c, 5, 74, 0
7, 535680, Note_on_c, 5, 74, 96
7, 536060, Note_on_c, 5, 74, 0
7, 536060, Note_on_c, 5, 62, 0
7, 537600, Note_on_c, 5, 74, 96
7, 537600, Note_on_c, 5, 62, 96
7, 539900, Note_on_c, 5, 62, 0
7, 539900, Note_on_c, 5, 74, 0
7, 539900, End_track
8, 0, Start_track
8, 0, MIDI_port, 0
8, 0, Title_t, "Timpani in D - A                    "
8, 0, Program_c, 6, 47
8, 0, Control_c, 6, 7, 75
8, 0, Control_c, 6, 10, 100
8, 0, Control_c, 6, 121, 0
8, 360, Control_c, 6, 101, 0
8, 360, Control_c, 6, 100, 0
8, 360, Control_c, 6, 6, 12
8, 360, Control_c, 6, 38, 0
8, 480, Control_c, 6, 5, 0
8, 600, Control_c, 6, 65, 0
8, 720, Control_c, 6, 67, 0
8, 960, Pitch_bend_c, 6, 8192
8, 1080, Control_c, 6, 64, 0
8, 1200, Control_c, 6, 11, 127
8, 1320, Control_c, 6, 1, 0
8, 1560, Control_c, 6, 91, 100
8, 1680, Control_c, 6, 93, 5
8, 1920, Note_on_c, 6, 50, 96
8, 1950, Note_on_c, 6, 50, 0
8, 1950, Note_on_c, 6, 52, 96
8, 1980, Note_on_c, 6, 52, 0
8, 1980, Note_on_c, 6, 50, 96
8, 2010, Note_on_c, 6, 50, 0
8, 2010, Note_on_c, 6, 52, 96
8, 2040, Note_on_c, 6, 52, 0
8, 2040, Note_on_c, 6, 50, 96
8, 2070, Note_on_c, 6, 50, 0
8, 2070, Note_on_c, 6, 52, 96
8, 2100, Note_on_c, 6, 52, 0
8, 2100, Note_on_c, 6, 50, 96
8, 2130, Note_on_c, 6, 50, 0
8, 2130, Note_on_c, 6, 52, 96
8, 2160, Note_on_c, 6, 52, 0
8, 2160, Note_on_c, 6, 50, 96
8, 2190, Note_on_c, 6, 50, 0
8, 2190, Note_on_c, 6, 52, 96
8, 2220, Note_on_c, 6, 52, 0
8, 2220, Note_on_c, 6, 50, 96
8, 2250, Note_on_c, 6, 50, 0
8, 2250, Note_on_c, 6, 52, 96
8, 2280, Note_on_c, 6, 52, 0
8, 2280, Note_on_c, 6, 50, 96
8, 2310, Note_on_c, 6, 50, 0
8, 2310, Note_on_c, 6, 52, 96
8, 2340, Note_on_c, 6, 52, 0
8, 2340, Note_on_c, 6, 50, 96
8, 2370, Note_on_c, 6, 50, 0
8, 2370, Note_on_c, 6, 52, 96
8, 2400, Note_on_c, 6, 52, 0
8, 2400, Note_on_c, 6, 50, 96
8, 2430, Note_on_c, 6, 50, 0
8, 2430, Note_on_c, 6, 52, 96
8, 2460, Note_on_c, 6, 52, 0
8, 2460, Note_on_c, 6, 50, 96
8, 2490, Note_on_c, 6, 50, 0
8, 2490, Note_on_c, 6, 52, 96
8, 2520, Note_on_c, 6, 52, 0
8, 2520, Note_on_c, 6, 50, 96
8, 2550, Note_on_c, 6, 50, 0
8, 2550, Note_on_c, 6, 52, 96
8, 2580, Note_on_c, 6, 52, 0
8, 2580, Note_on_c, 6, 50, 96
8, 2610, Note_on_c, 6, 50, 0
8, 2610, Note_on_c, 6, 52, 96
8, 2640, Note_on_c, 6, 52, 0
8, 2640, Note_on_c, 6, 50, 96
8, 2670, Note_on_c, 6, 50, 0
8, 2670, Note_on_c, 6, 52, 96
8, 2700, Note_on_c, 6, 52, 0
8, 2700, Note_on_c, 6, 50, 96
8, 2730, Note_on_c, 6, 50, 0
8, 2730, Note_on_c, 6, 52, 96
8, 2760, Note_on_c, 6, 52, 0
8, 2760, Note_on_c, 6, 50, 96
8, 2790, Note_on_c, 6, 50, 0
8, 2790, Note_on_c, 6, 52, 96
8, 2820, Note_on_c, 6, 52, 0
8, 2820, Note_on_c, 6, 50, 96
8, 2850, Note_on_c, 6, 50, 0
8, 2850, Note_on_c, 6, 52, 96
8, 2880, Note_on_c, 6, 52, 0
8, 2880, Note_on_c, 6, 50, 96
8, 2910, Note_on_c, 6, 50, 0
8, 2910, Note_on_c, 6, 52, 96
8, 2940, Note_on_c, 6, 52, 0
8, 2940, Note_on_c, 6, 50, 96
8, 2970, Note_on_c, 6, 50, 0
8, 2970, Note_on_c, 6, 52, 96
8, 3000, Note_on_c, 6, 52, 0
8, 3000, Note_on_c, 6, 50, 96
8, 3030, Note_on_c, 6, 50, 0
8, 3030, Note_on_c, 6, 52, 96
8, 3060, Note_on_c, 6, 52, 0
8, 3060, Note_on_c, 6, 50, 96
8, 3090, Note_on_c, 6, 50, 0
8, 3090, Note_on_c, 6, 52, 96
8, 3120, Note_on_c, 6, 52, 0
8, 3120, Note_on_c, 6, 50, 96
8, 3150, Note_on_c, 6, 50, 0
8, 3150, Note_on_c, 6, 52, 96
8, 3180, Note_on_c, 6, 52, 0
8, 3180, Note_on_c, 6, 50, 96
8, 3210, Note_on_c, 6, 50, 0
8, 3210, Note_on_c, 6, 52, 96
8, 3240, Note_on_c, 6, 52, 0
8, 3240, Note_on_c, 6, 50, 96
8, 3270, Note_on_c, 6, 50, 0
8, 3270, Note_on_c, 6, 52, 96
8, 3300, Note_on_c, 6, 52, 0
8, 3300, Note_on_c, 6, 50, 96
8, 3330, Note_on_c, 6, 50, 0
8, 3330, Note_on_c, 6, 52, 96
8, 3360, Note_on_c, 6, 52, 0
8, 3360, Note_on_c, 6, 50, 96
8, 3390, Note_on_c, 6, 50, 0
8, 3390, Note_on_c, 6, 52, 96
8, 3420, Note_on_c, 6, 52, 0
8, 3420, Note_on_c, 6, 50, 96
8, 3450, Note_on_c, 6, 50, 0
8, 3450, Note_on_c, 6, 52, 96
8, 3480, Note_on_c, 6, 52, 0
8, 3480, Note_on_c, 6, 50, 96
8, 3510, Note_on_c, 6, 50, 0
8, 3510, Note_on_c, 6, 52, 96
8, 3540, Note_on_c, 6, 52, 0
8, 3540, Note_on_c, 6, 50, 96
8, 3570, Note_on_c, 6, 50, 0
8, 3570, Note_on_c, 6, 52, 96
8, 3600, Note_on_c, 6, 52, 0
8, 3600, Note_on_c, 6, 50, 96
8, 3630, Note_on_c, 6, 50, 0
8, 3630, Note_on_c, 6, 52, 96
8, 3660, Note_on_c, 6, 52, 0
8, 3660, Note_on_c, 6, 50, 96
8, 3690, Note_on_c, 6, 50, 0
8, 3690, Note_on_c, 6, 52, 96
8, 3720, Note_on_c, 6, 52, 0
8, 3720, Note_on_c, 6, 50, 96
8, 3740, Note_on_c, 6, 50, 0
8, 3740, Note_on_c, 6, 52, 96
8, 3760, Note_on_c, 6, 52, 0
8, 3760, Note_on_c, 6, 50, 96
8, 3780, Note_on_c, 6, 50, 0
8, 3780, Note_on_c, 6, 49, 96
8, 3800, Note_on_c, 6, 49, 0
8, 3800, Note_on_c, 6, 50, 96
8, 3840, Note_on_c, 6, 50, 0
8, 3840, Note_on_c, 6, 50, 96
8, 4220, Note_on_c, 6, 50, 0
8, 5760, Note_on_c, 6, 45, 96
8, 5790, Note_on_c, 6, 45, 0
8, 5790, Note_on_c, 6, 47, 96
8, 5820, Note_on_c, 6, 47, 0
8, 5820, Note_on_c, 6, 45, 96
8, 5850, Note_on_c, 6, 45, 0
8, 5850, Note_on_c, 6, 47, 96
8, 5880, Note_on_c, 6, 47, 0
8, 5880, Note_on_c, 6, 45, 96
8, 5910, Note_on_c, 6, 45, 0
8, 5910, Note_on_c, 6, 47, 96
8, 5940, Note_on_c, 6, 47, 0
8, 5940, Note_on_c, 6, 45, 96
8, 5970, Note_on_c, 6, 45, 0
8, 5970, Note_on_c, 6, 47, 96
8, 6000, Note_on_c, 6, 47, 0
8, 6000, Note_on_c, 6, 45, 96
8, 6030, Note_on_c, 6, 45, 0
8, 6030, Note_on_c, 6, 47, 96
8, 6060, Note_on_c, 6, 47, 0
8, 6060, Note_on_c, 6, 45, 96
8, 6090, Note_on_c, 6, 45, 0
8, 6090, Note_on_c, 6, 47, 96
8, 6120, Note_on_c, 6, 47, 0
8, 6120, Note_on_c, 6, 45, 96
8, 6150, Note_on_c, 6, 45, 0
8, 6150, Note_on_c, 6, 47, 96
8, 6180, Note_on_c, 6, 47, 0
8, 6180, Note_on_c, 6, 45, 96
8, 6210, Note_on_c, 6, 45, 0
8, 6210, Note_on_c, 6, 47, 96
8, 6240, Note_on_c, 6, 47, 0
8, 6240, Note_on_c, 6, 45, 96
8, 6270, Note_on_c, 6, 45, 0
8, 6270, Note_on_c, 6, 47, 96
8, 6300, Note_on_c, 6, 47, 0
8, 6300, Note_on_c, 6, 45, 96
8, 6330, Note_on_c, 6, 45, 0
8, 6330, Note_on_c, 6, 47, 96
8, 6360, Note_on_c, 6, 47, 0
8, 6360, Note_on_c, 6, 45, 96
8, 6390, Note_on_c, 6, 45, 0
8, 6390, Note_on_c, 6, 47, 96
8, 6420, Note_on_c, 6, 47, 0
8, 6420, Note_on_c, 6, 45, 96
8, 6450, Note_on_c, 6, 45, 0
8, 6450, Note_on_c, 6, 47, 96
8, 6480, Note_on_c, 6, 47, 0
8, 6480, Note_on_c, 6, 45, 96
8, 6510, Note_on_c, 6, 45, 0
8, 6510, Note_on_c, 6, 47, 96
8, 6540, Note_on_c, 6, 47, 0
8, 6540, Note_on_c, 6, 45, 96
8, 6570, Note_on_c, 6, 45, 0
8, 6570, Note_on_c, 6, 47, 96
8, 6600, Note_on_c, 6, 47, 0
8, 6600, Note_on_c, 6, 45, 96
8, 6630, Note_on_c, 6, 45, 0
8, 6630, Note_on_c, 6, 47, 96
8, 6660, Note_on_c, 6, 47, 0
8, 6660, Note_on_c, 6, 45, 96
8, 6690, Note_on_c, 6, 45, 0
8, 6690, Note_on_c, 6, 47, 96
8, 6720, Note_on_c, 6, 47, 0
8, 6720, Note_on_c, 6, 45, 96
8, 6750, Note_on_c, 6, 45, 0
8, 6750, Note_on_c, 6, 47, 96
8, 6780, Note_on_c, 6, 47, 0
8, 6780, Note_on_c, 6, 45, 96
8, 6810, Note_on_c, 6, 45, 0
8, 6810, Note_on_c, 6, 47, 96
8, 6840, Note_on_c, 6, 47, 0
8, 6840, Note_on_c, 6, 45, 96
8, 6870, Note_on_c, 6, 45, 0
8, 6870, Note_on_c, 6, 47, 96
8, 6900, Note_on_c, 6, 47, 0
8, 6900, Note_on_c, 6, 45, 96
8, 6930, Note_on_c, 6, 45, 0
8, 6930, Note_on_c, 6, 47, 96
8, 6960, Note_on_c, 6, 47, 0
8, 6960, Note_on_c, 6, 45, 96
8, 6990, Note_on_c, 6, 45, 0
8, 6990, Note_on_c, 6, 47, 96
8, 7020, Note_on_c, 6, 47, 0
8, 7020, Note_on_c, 6, 45, 96
8, 7050, Note_on_c, 6, 45, 0
8, 7050, Note_on_c, 6, 47, 96
8, 7080, Note_on_c, 6, 47, 0
8, 7080, Note_on_c, 6, 45, 96
8, 7110, Note_on_c, 6, 45, 0
8, 7110, Note_on_c, 6, 47, 96
8, 7140, Note_on_c, 6, 47, 0
8, 7140, Note_on_c, 6, 45, 96
8, 7170, Note_on_c, 6, 45, 0
8, 7170, Note_on_c, 6, 47, 96
8, 7200, Note_on_c, 6, 47, 0
8, 7200, Note_on_c, 6, 45, 96
8, 7230, Note_on_c, 6, 45, 0
8, 7230, Note_on_c, 6, 47, 96
8, 7260, Note_on_c, 6, 47, 0
8, 7260, Note_on_c, 6, 45, 96
8, 7290, Note_on_c, 6, 45, 0
8, 7290, Note_on_c, 6, 47, 96
8, 7320, Note_on_c, 6, 47, 0
8, 7320, Note_on_c, 6, 45, 96
8, 7350, Note_on_c, 6, 45, 0
8, 7350, Note_on_c, 6, 47, 96
8, 7380, Note_on_c, 6, 47, 0
8, 7380, Note_on_c, 6, 45, 96
8, 7410, Note_on_c, 6, 45, 0
8, 7410, Note_on_c, 6, 47, 96
8, 7440, Note_on_c, 6, 47, 0
8, 7440, Note_on_c, 6, 45, 96
8, 7470, Note_on_c, 6, 45, 0
8, 7470, Note_on_c, 6, 47, 96
8, 7500, Note_on_c, 6, 47, 0
8, 7500, Note_on_c, 6, 45, 96
8, 7530, Note_on_c, 6, 45, 0
8, 7530, Note_on_c, 6, 47, 96
8, 7560, Note_on_c, 6, 47, 0
8, 7560, Note_on_c, 6, 45, 96
8, 7580, Note_on_c, 6, 45, 0
8, 7580, Note_on_c, 6, 47, 96
8, 7600, Note_on_c, 6, 47, 0
8, 7600, Note_on_c, 6, 45, 96
8, 7620, Note_on_c, 6, 45, 0
8, 7620, Note_on_c, 6, 43, 96
8, 7640, Note_on_c, 6, 43, 0
8, 7640, Note_on_c, 6, 45, 96
8, 7680, Note_on_c, 6, 45, 0
8, 7680, Note_on_c, 6, 45, 96
8, 8060, Note_on_c, 6, 45, 0
8, 17280, Note_on_c, 6, 50, 64
8, 17310, Note_on_c, 6, 50, 0
8, 17310, Note_on_c, 6, 52, 64
8, 17340, Note_on_c, 6, 52, 0
8, 17340, Note_on_c, 6, 50, 64
8, 17370, Note_on_c, 6, 50, 0
8, 17370, Note_on_c, 6, 52, 64
8, 17400, Note_on_c, 6, 52, 0
8, 17400, Note_on_c, 6, 50, 64
8, 17430, Note_on_c, 6, 50, 0
8, 17430, Note_on_c, 6, 52, 64
8, 17460, Note_on_c, 6, 52, 0
8, 17460, Note_on_c, 6, 50, 64
8, 17490, Note_on_c, 6, 50, 0
8, 17490, Note_on_c, 6, 52, 64
8, 17520, Note_on_c, 6, 52, 0
8, 17520, Note_on_c, 6, 50, 64
8, 17550, Note_on_c, 6, 50, 0
8, 17550, Note_on_c, 6, 52, 64
8, 17580, Note_on_c, 6, 52, 0
8, 17580, Note_on_c, 6, 50, 64
8, 17610, Note_on_c, 6, 50, 0
8, 17610, Note_on_c, 6, 52, 64
8, 17640, Note_on_c, 6, 52, 0
8, 17640, Note_on_c, 6, 50, 64
8, 17670, Note_on_c, 6, 50, 0
8, 17670, Note_on_c, 6, 52, 64
8, 17700, Note_on_c, 6, 52, 0
8, 17700, Note_on_c, 6, 50, 64
8, 17730, Note_on_c, 6, 50, 0
8, 17730, Note_on_c, 6, 52, 64
8, 17760, Note_on_c, 6, 52, 0
8, 17760, Note_on_c, 6, 50, 64
8, 17790, Note_on_c, 6, 50, 0
8, 17790, Note_on_c, 6, 52, 64
8, 17820, Note_on_c, 6, 52, 0
8, 17820, Note_on_c, 6, 50, 64
8, 17850, Note_on_c, 6, 50, 0
8, 17850, Note_on_c, 6, 52, 64
8, 17880, Note_on_c, 6, 52, 0
8, 17880, Note_on_c, 6, 50, 64
8, 17910, Note_on_c, 6, 50, 0
8, 17910, Note_on_c, 6, 52, 64
8, 17940, Note_on_c, 6, 52, 0
8, 17940, Note_on_c, 6, 50, 64
8, 17970, Note_on_c, 6, 50, 0
8, 17970, Note_on_c, 6, 52, 64
8, 18000, Note_on_c, 6, 52, 0
8, 18000, Note_on_c, 6, 50, 64
8, 18030, Note_on_c, 6, 50, 0
8, 18030, Note_on_c, 6, 52, 64
8, 18060, Note_on_c, 6, 52, 0
8, 18060, Note_on_c, 6, 50, 64
8, 18090, Note_on_c, 6, 50, 0
8, 18090, Note_on_c, 6, 52, 64
8, 18120, Note_on_c, 6, 52, 0
8, 18120, Note_on_c, 6, 50, 64
8, 18150, Note_on_c, 6, 50, 0
8, 18150, Note_on_c, 6, 52, 64
8, 18180, Note_on_c, 6, 52, 0
8, 18180, Note_on_c, 6, 50, 64
8, 18210, Note_on_c, 6, 50, 0
8, 18210, Note_on_c, 6, 52, 64
8, 18240, Note_on_c, 6, 52, 0
8, 18240, Note_on_c, 6, 50, 64
8, 18270, Note_on_c, 6, 50, 0
8, 18270, Note_on_c, 6, 52, 64
8, 18300, Note_on_c, 6, 52, 0
8, 18300, Note_on_c, 6, 50, 64
8, 18330, Note_on_c, 6, 50, 0
8, 18330, Note_on_c, 6, 52, 64
8, 18360, Note_on_c, 6, 52, 0
8, 18360, Note_on_c, 6, 50, 64
8, 18390, Note_on_c, 6, 50, 0
8, 18390, Note_on_c, 6, 52, 64
8, 18420, Note_on_c, 6, 52, 0
8, 18420, Note_on_c, 6, 50, 64
8, 18450, Note_on_c, 6, 50, 0
8, 18450, Note_on_c, 6, 52, 64
8, 18480, Note_on_c, 6, 52, 0
8, 18480, Note_on_c, 6, 50, 64
8, 18510, Note_on_c, 6, 50, 0
8, 18510, Note_on_c, 6, 52, 64
8, 18540, Note_on_c, 6, 52, 0
8, 18540, Note_on_c, 6, 50, 64
8, 18570, Note_on_c, 6, 50, 0
8, 18570, Note_on_c, 6, 52, 64
8, 18600, Note_on_c, 6, 52, 0
8, 18600, Note_on_c, 6, 50, 64
8, 18630, Note_on_c, 6, 50, 0
8, 18630, Note_on_c, 6, 52, 64
8, 18660, Note_on_c, 6, 52, 0
8, 18660, Note_on_c, 6, 50, 64
8, 18690, Note_on_c, 6, 50, 0
8, 18690, Note_on_c, 6, 52, 64
8, 18720, Note_on_c, 6, 52, 0
8, 18720, Note_on_c, 6, 50, 64
8, 18750, Note_on_c, 6, 50, 0
8, 18750, Note_on_c, 6, 52, 64
8, 18780, Note_on_c, 6, 52, 0
8, 18780, Note_on_c, 6, 50, 64
8, 18810, Note_on_c, 6, 50, 0
8, 18810, Note_on_c, 6, 52, 64
8, 18840, Note_on_c, 6, 52, 0
8, 18840, Note_on_c, 6, 50, 64
8, 18870, Note_on_c, 6, 50, 0
8, 18870, Note_on_c, 6, 52, 64
8, 18900, Note_on_c, 6, 52, 0
8, 18900, Note_on_c, 6, 50, 64
8, 18930, Note_on_c, 6, 50, 0
8, 18930, Note_on_c, 6, 52, 64
8, 18960, Note_on_c, 6, 52, 0
8, 18960, Note_on_c, 6, 50, 64
8, 18990, Note_on_c, 6, 50, 0
8, 18990, Note_on_c, 6, 52, 64
8, 19020, Note_on_c, 6, 52, 0
8, 19020, Note_on_c, 6, 50, 64
8, 19050, Note_on_c, 6, 50, 0
8, 19050, Note_on_c, 6, 52, 64
8, 19080, Note_on_c, 6, 52, 0
8, 19080, Note_on_c, 6, 50, 64
8, 19110, Note_on_c, 6, 50, 0
8, 19110, Note_on_c, 6, 52, 64
8, 19140, Note_on_c, 6, 52, 0
8, 19140, Note_on_c, 6, 50, 64
8, 19170, Note_on_c, 6, 50, 0
8, 19170, Note_on_c, 6, 52, 64
8, 19200, Note_on_c, 6, 52, 0
8, 19200, Note_on_c, 6, 50, 64
8, 19230, Note_on_c, 6, 50, 0
8, 19230, Note_on_c, 6, 52, 64
8, 19260, Note_on_c, 6, 52, 0
8, 19260, Note_on_c, 6, 50, 64
8, 19290, Note_on_c, 6, 50, 0
8, 19290, Note_on_c, 6, 52, 64
8, 19320, Note_on_c, 6, 52, 0
8, 19320, Note_on_c, 6, 50, 64
8, 19350, Note_on_c, 6, 50, 0
8, 19350, Note_on_c, 6, 52, 64
8, 19380, Note_on_c, 6, 52, 0
8, 19380, Note_on_c, 6, 50, 64
8, 19410, Note_on_c, 6, 50, 0
8, 19410, Note_on_c, 6, 52, 64
8, 19440, Note_on_c, 6, 52, 0
8, 19440, Note_on_c, 6, 50, 64
8, 19470, Note_on_c, 6, 50, 0
8, 19470, Note_on_c, 6, 52, 64
8, 19500, Note_on_c, 6, 52, 0
8, 19500, Note_on_c, 6, 50, 64
8, 19530, Note_on_c, 6, 50, 0
8, 19530, Note_on_c, 6, 52, 64
8, 19560, Note_on_c, 6, 52, 0
8, 19560, Note_on_c, 6, 50, 64
8, 19590, Note_on_c, 6, 50, 0
8, 19590, Note_on_c, 6, 52, 64
8, 19620, Note_on_c, 6, 52, 0
8, 19620, Note_on_c, 6, 50, 64
8, 19650, Note_on_c, 6, 50, 0
8, 19650, Note_on_c, 6, 52, 64
8, 19680, Note_on_c, 6, 52, 0
8, 19680, Note_on_c, 6, 50, 64
8, 19710, Note_on_c, 6, 50, 0
8, 19710, Note_on_c, 6, 52, 64
8, 19740, Note_on_c, 6, 52, 0
8, 19740, Note_on_c, 6, 50, 64
8, 19770, Note_on_c, 6, 50, 0
8, 19770, Note_on_c, 6, 52, 64
8, 19800, Note_on_c, 6, 52, 0
8, 19800, Note_on_c, 6, 50, 64
8, 19830, Note_on_c, 6, 50, 0
8, 19830, Note_on_c, 6, 52, 64
8, 19860, Note_on_c, 6, 52, 0
8, 19860, Note_on_c, 6, 50, 64
8, 19890, Note_on_c, 6, 50, 0
8, 19890, Note_on_c, 6, 52, 64
8, 19920, Note_on_c, 6, 52, 0
8, 19920, Note_on_c, 6, 50, 64
8, 19950, Note_on_c, 6, 50, 0
8, 19950, Note_on_c, 6, 52, 64
8, 19980, Note_on_c, 6, 52, 0
8, 19980, Note_on_c, 6, 50, 64
8, 20010, Note_on_c, 6, 50, 0
8, 20010, Note_on_c, 6, 52, 64
8, 20040, Note_on_c, 6, 52, 0
8, 20040, Note_on_c, 6, 50, 64
8, 20070, Note_on_c, 6, 50, 0
8, 20070, Note_on_c, 6, 52, 64
8, 20100, Note_on_c, 6, 52, 0
8, 20100, Note_on_c, 6, 50, 64
8, 20130, Note_on_c, 6, 50, 0
8, 20130, Note_on_c, 6, 52, 64
8, 20160, Note_on_c, 6, 52, 0
8, 20160, Note_on_c, 6, 50, 64
8, 20190, Note_on_c, 6, 50, 0
8, 20190, Note_on_c, 6, 52, 64
8, 20220, Note_on_c, 6, 52, 0
8, 20220, Note_on_c, 6, 50, 64
8, 20250, Note_on_c, 6, 50, 0
8, 20250, Note_on_c, 6, 52, 64
8, 20280, Note_on_c, 6, 52, 0
8, 20280, Note_on_c, 6, 50, 64
8, 20310, Note_on_c, 6, 50, 0
8, 20310, Note_on_c, 6, 52, 64
8, 20340, Note_on_c, 6, 52, 0
8, 20340, Note_on_c, 6, 50, 64
8, 20370, Note_on_c, 6, 50, 0
8, 20370, Note_on_c, 6, 52, 64
8, 20400, Note_on_c, 6, 52, 0
8, 20400, Note_on_c, 6, 50, 64
8, 20430, Note_on_c, 6, 50, 0
8, 20430, Note_on_c, 6, 52, 64
8, 20460, Note_on_c, 6, 52, 0
8, 20460, Note_on_c, 6, 50, 64
8, 20490, Note_on_c, 6, 50, 0
8, 20490, Note_on_c, 6, 52, 64
8, 20520, Note_on_c, 6, 52, 0
8, 20520, Note_on_c, 6, 50, 64
8, 20550, Note_on_c, 6, 50, 0
8, 20550, Note_on_c, 6, 52, 64
8, 20580, Note_on_c, 6, 52, 0
8, 20580, Note_on_c, 6, 50, 64
8, 20610, Note_on_c, 6, 50, 0
8, 20610, Note_on_c, 6, 52, 64
8, 20640, Note_on_c, 6, 52, 0
8, 20640, Note_on_c, 6, 50, 64
8, 20670, Note_on_c, 6, 50, 0
8, 20670, Note_on_c, 6, 52, 64
8, 20700, Note_on_c, 6, 52, 0
8, 20700, Note_on_c, 6, 50, 64
8, 20730, Note_on_c, 6, 50, 0
8, 20730, Note_on_c, 6, 52, 64
8, 20760, Note_on_c, 6, 52, 0
8, 20760, Note_on_c, 6, 50, 64
8, 20790, Note_on_c, 6, 50, 0
8, 20790, Note_on_c, 6, 52, 64
8, 20820, Note_on_c, 6, 52, 0
8, 20820, Note_on_c, 6, 50, 64
8, 20850, Note_on_c, 6, 50, 0
8, 20850, Note_on_c, 6, 52, 64
8, 20880, Note_on_c, 6, 52, 0
8, 20880, Note_on_c, 6, 50, 64
8, 20910, Note_on_c, 6, 50, 0
8, 20910, Note_on_c, 6, 52, 64
8, 20940, Note_on_c, 6, 52, 0
8, 20940, Note_on_c, 6, 50, 64
8, 20970, Note_on_c, 6, 50, 0
8, 20970, Note_on_c, 6, 52, 64
8, 21000, Note_on_c, 6, 52, 0
8, 21000, Note_on_c, 6, 50, 64
8, 21030, Note_on_c, 6, 50, 0
8, 21030, Note_on_c, 6, 52, 64
8, 21060, Note_on_c, 6, 52, 0
8, 21060, Note_on_c, 6, 50, 64
8, 21090, Note_on_c, 6, 50, 0
8, 21090, Note_on_c, 6, 52, 64
8, 21120, Note_on_c, 6, 52, 0
8, 21120, Note_on_c, 6, 45, 64
8, 21150, Note_on_c, 6, 45, 0
8, 21150, Note_on_c, 6, 47, 64
8, 21180, Note_on_c, 6, 47, 0
8, 21180, Note_on_c, 6, 45, 64
8, 21210, Note_on_c, 6, 45, 0
8, 21210, Note_on_c, 6, 47, 64
8, 21240, Note_on_c, 6, 47, 0
8, 21240, Note_on_c, 6, 45, 64
8, 21270, Note_on_c, 6, 45, 0
8, 21270, Note_on_c, 6, 47, 64
8, 21300, Note_on_c, 6, 47, 0
8, 21300, Note_on_c, 6, 45, 64
8, 21330, Note_on_c, 6, 45, 0
8, 21330, Note_on_c, 6, 47, 64
8, 21360, Note_on_c, 6, 47, 0
8, 21360, Note_on_c, 6, 45, 64
8, 21390, Note_on_c, 6, 45, 0
8, 21390, Note_on_c, 6, 47, 64
8, 21420, Note_on_c, 6, 47, 0
8, 21420, Note_on_c, 6, 45, 64
8, 21450, Note_on_c, 6, 45, 0
8, 21450, Note_on_c, 6, 47, 64
8, 21480, Note_on_c, 6, 47, 0
8, 21480, Note_on_c, 6, 45, 64
8, 21510, Note_on_c, 6, 45, 0
8, 21510, Note_on_c, 6, 47, 64
8, 21540, Note_on_c, 6, 47, 0
8, 21540, Note_on_c, 6, 45, 64
8, 21570, Note_on_c, 6, 45, 0
8, 21570, Note_on_c, 6, 47, 64
8, 21600, Note_on_c, 6, 47, 0
8, 21600, Note_on_c, 6, 45, 64
8, 21630, Note_on_c, 6, 45, 0
8, 21630, Note_on_c, 6, 47, 64
8, 21660, Note_on_c, 6, 47, 0
8, 21660, Note_on_c, 6, 45, 64
8, 21690, Note_on_c, 6, 45, 0
8, 21690, Note_on_c, 6, 47, 64
8, 21720, Note_on_c, 6, 47, 0
8, 21720, Note_on_c, 6, 45, 64
8, 21750, Note_on_c, 6, 45, 0
8, 21750, Note_on_c, 6, 47, 64
8, 21780, Note_on_c, 6, 47, 0
8, 21780, Note_on_c, 6, 45, 64
8, 21810, Note_on_c, 6, 45, 0
8, 21810, Note_on_c, 6, 47, 64
8, 21840, Note_on_c, 6, 47, 0
8, 21840, Note_on_c, 6, 45, 64
8, 21870, Note_on_c, 6, 45, 0
8, 21870, Note_on_c, 6, 47, 64
8, 21900, Note_on_c, 6, 47, 0
8, 21900, Note_on_c, 6, 45, 64
8, 21930, Note_on_c, 6, 45, 0
8, 21930, Note_on_c, 6, 47, 64
8, 21960, Note_on_c, 6, 47, 0
8, 21960, Note_on_c, 6, 45, 64
8, 21990, Note_on_c, 6, 45, 0
8, 21990, Note_on_c, 6, 47, 64
8, 22020, Note_on_c, 6, 47, 0
8, 22020, Note_on_c, 6, 45, 64
8, 22050, Note_on_c, 6, 45, 0
8, 22050, Note_on_c, 6, 47, 64
8, 22080, Note_on_c, 6, 47, 0
8, 22080, Note_on_c, 6, 45, 64
8, 22110, Note_on_c, 6, 45, 0
8, 22110, Note_on_c, 6, 47, 64
8, 22140, Note_on_c, 6, 47, 0
8, 22140, Note_on_c, 6, 45, 64
8, 22170, Note_on_c, 6, 45, 0
8, 22170, Note_on_c, 6, 47, 64
8, 22200, Note_on_c, 6, 47, 0
8, 22200, Note_on_c, 6, 45, 64
8, 22230, Note_on_c, 6, 45, 0
8, 22230, Note_on_c, 6, 47, 64
8, 22260, Note_on_c, 6, 47, 0
8, 22260, Note_on_c, 6, 45, 64
8, 22290, Note_on_c, 6, 45, 0
8, 22290, Note_on_c, 6, 47, 64
8, 22320, Note_on_c, 6, 47, 0
8, 22320, Note_on_c, 6, 45, 64
8, 22350, Note_on_c, 6, 45, 0
8, 22350, Note_on_c, 6, 47, 64
8, 22380, Note_on_c, 6, 47, 0
8, 22380, Note_on_c, 6, 45, 64
8, 22410, Note_on_c, 6, 45, 0
8, 22410, Note_on_c, 6, 47, 64
8, 22440, Note_on_c, 6, 47, 0
8, 22440, Note_on_c, 6, 45, 64
8, 22470, Note_on_c, 6, 45, 0
8, 22470, Note_on_c, 6, 47, 64
8, 22500, Note_on_c, 6, 47, 0
8, 22500, Note_on_c, 6, 45, 64
8, 22530, Note_on_c, 6, 45, 0
8, 22530, Note_on_c, 6, 47, 64
8, 22560, Note_on_c, 6, 47, 0
8, 24960, Note_on_c, 6, 45, 64
8, 25720, Note_on_c, 6, 45, 0
8, 28800, Note_on_c, 6, 50, 64
8, 28830, Note_on_c, 6, 50, 0
8, 28830, Note_on_c, 6, 52, 64
8, 28860, Note_on_c, 6, 52, 0
8, 28860, Note_on_c, 6, 50, 64
8, 28890, Note_on_c, 6, 50, 0
8, 28890, Note_on_c, 6, 52, 64
8, 28920, Note_on_c, 6, 52, 0
8, 28920, Note_on_c, 6, 50, 64
8, 28950, Note_on_c, 6, 50, 0
8, 28950, Note_on_c, 6, 52, 64
8, 28980, Note_on_c, 6, 52, 0
8, 28980, Note_on_c, 6, 50, 64
8, 29010, Note_on_c, 6, 50, 0
8, 29010, Note_on_c, 6, 52, 64
8, 29040, Note_on_c, 6, 52, 0
8, 29040, Note_on_c, 6, 50, 64
8, 29070, Note_on_c, 6, 50, 0
8, 29070, Note_on_c, 6, 52, 64
8, 29100, Note_on_c, 6, 52, 0
8, 29100, Note_on_c, 6, 50, 64
8, 29130, Note_on_c, 6, 50, 0
8, 29130, Note_on_c, 6, 52, 64
8, 29160, Note_on_c, 6, 52, 0
8, 29160, Note_on_c, 6, 50, 64
8, 29190, Note_on_c, 6, 50, 0
8, 29190, Note_on_c, 6, 52, 64
8, 29220, Note_on_c, 6, 52, 0
8, 29220, Note_on_c, 6, 50, 64
8, 29250, Note_on_c, 6, 50, 0
8, 29250, Note_on_c, 6, 52, 64
8, 29280, Note_on_c, 6, 52, 0
8, 29280, Note_on_c, 6, 50, 64
8, 29310, Note_on_c, 6, 50, 0
8, 29310, Note_on_c, 6, 52, 64
8, 29340, Note_on_c, 6, 52, 0
8, 29340, Note_on_c, 6, 50, 64
8, 29370, Note_on_c, 6, 50, 0
8, 29370, Note_on_c, 6, 52, 64
8, 29400, Note_on_c, 6, 52, 0
8, 29400, Note_on_c, 6, 50, 64
8, 29430, Note_on_c, 6, 50, 0
8, 29430, Note_on_c, 6, 52, 64
8, 29460, Note_on_c, 6, 52, 0
8, 29460, Note_on_c, 6, 50, 64
8, 29490, Note_on_c, 6, 50, 0
8, 29490, Note_on_c, 6, 52, 64
8, 29520, Note_on_c, 6, 52, 0
8, 29520, Note_on_c, 6, 50, 64
8, 29550, Note_on_c, 6, 50, 0
8, 29550, Note_on_c, 6, 52, 64
8, 29580, Note_on_c, 6, 52, 0
8, 29580, Note_on_c, 6, 50, 64
8, 29610, Note_on_c, 6, 50, 0
8, 29610, Note_on_c, 6, 52, 64
8, 29640, Note_on_c, 6, 52, 0
8, 29640, Note_on_c, 6, 50, 64
8, 29670, Note_on_c, 6, 50, 0
8, 29670, Note_on_c, 6, 52, 64
8, 29700, Note_on_c, 6, 52, 0
8, 29700, Note_on_c, 6, 50, 64
8, 29730, Note_on_c, 6, 50, 0
8, 29730, Note_on_c, 6, 52, 64
8, 29760, Note_on_c, 6, 52, 0
8, 29760, Note_on_c, 6, 50, 64
8, 29790, Note_on_c, 6, 50, 0
8, 29790, Note_on_c, 6, 52, 64
8, 29820, Note_on_c, 6, 52, 0
8, 29820, Note_on_c, 6, 50, 64
8, 29850, Note_on_c, 6, 50, 0
8, 29850, Note_on_c, 6, 52, 64
8, 29880, Note_on_c, 6, 52, 0
8, 29880, Note_on_c, 6, 50, 64
8, 29910, Note_on_c, 6, 50, 0
8, 29910, Note_on_c, 6, 52, 64
8, 29940, Note_on_c, 6, 52, 0
8, 29940, Note_on_c, 6, 50, 64
8, 29970, Note_on_c, 6, 50, 0
8, 29970, Note_on_c, 6, 52, 64
8, 30000, Note_on_c, 6, 52, 0
8, 30000, Note_on_c, 6, 50, 64
8, 30030, Note_on_c, 6, 50, 0
8, 30030, Note_on_c, 6, 52, 64
8, 30060, Note_on_c, 6, 52, 0
8, 30060, Note_on_c, 6, 50, 64
8, 30090, Note_on_c, 6, 50, 0
8, 30090, Note_on_c, 6, 52, 64
8, 30120, Note_on_c, 6, 52, 0
8, 30120, Note_on_c, 6, 50, 64
8, 30150, Note_on_c, 6, 50, 0
8, 30150, Note_on_c, 6, 52, 64
8, 30180, Note_on_c, 6, 52, 0
8, 30180, Note_on_c, 6, 50, 64
8, 30210, Note_on_c, 6, 50, 0
8, 30210, Note_on_c, 6, 52, 64
8, 30240, Note_on_c, 6, 52, 0
8, 30240, Note_on_c, 6, 50, 64
8, 30270, Note_on_c, 6, 50, 0
8, 30270, Note_on_c, 6, 52, 64
8, 30300, Note_on_c, 6, 52, 0
8, 30300, Note_on_c, 6, 50, 64
8, 30330, Note_on_c, 6, 50, 0
8, 30330, Note_on_c, 6, 52, 64
8, 30360, Note_on_c, 6, 52, 0
8, 30360, Note_on_c, 6, 50, 64
8, 30390, Note_on_c, 6, 50, 0
8, 30390, Note_on_c, 6, 52, 64
8, 30420, Note_on_c, 6, 52, 0
8, 30420, Note_on_c, 6, 50, 64
8, 30450, Note_on_c, 6, 50, 0
8, 30450, Note_on_c, 6, 52, 64
8, 30480, Note_on_c, 6, 52, 0
8, 30480, Note_on_c, 6, 50, 64
8, 30510, Note_on_c, 6, 50, 0
8, 30510, Note_on_c, 6, 52, 64
8, 30540, Note_on_c, 6, 52, 0
8, 30540, Note_on_c, 6, 50, 64
8, 30570, Note_on_c, 6, 50, 0
8, 30570, Note_on_c, 6, 52, 64
8, 30600, Note_on_c, 6, 52, 0
8, 30600, Note_on_c, 6, 50, 64
8, 30630, Note_on_c, 6, 50, 0
8, 30630, Note_on_c, 6, 52, 64
8, 30660, Note_on_c, 6, 52, 0
8, 30660, Note_on_c, 6, 50, 64
8, 30690, Note_on_c, 6, 50, 0
8, 30690, Note_on_c, 6, 52, 64
8, 30720, Note_on_c, 6, 52, 0
8, 30720, Note_on_c, 6, 50, 64
8, 30750, Note_on_c, 6, 50, 0
8, 30750, Note_on_c, 6, 52, 64
8, 30780, Note_on_c, 6, 52, 0
8, 30780, Note_on_c, 6, 50, 64
8, 30810, Note_on_c, 6, 50, 0
8, 30810, Note_on_c, 6, 52, 64
8, 30840, Note_on_c, 6, 52, 0
8, 30840, Note_on_c, 6, 50, 64
8, 30870, Note_on_c, 6, 50, 0
8, 30870, Note_on_c, 6, 52, 64
8, 30900, Note_on_c, 6, 52, 0
8, 30900, Note_on_c, 6, 50, 64
8, 30930, Note_on_c, 6, 50, 0
8, 30930, Note_on_c, 6, 52, 64
8, 30960, Note_on_c, 6, 52, 0
8, 30960, Note_on_c, 6, 50, 64
8, 30990, Note_on_c, 6, 50, 0
8, 30990, Note_on_c, 6, 52, 64
8, 31020, Note_on_c, 6, 52, 0
8, 31020, Note_on_c, 6, 50, 64
8, 31050, Note_on_c, 6, 50, 0
8, 31050, Note_on_c, 6, 52, 64
8, 31080, Note_on_c, 6, 52, 0
8, 31080, Note_on_c, 6, 50, 64
8, 31110, Note_on_c, 6, 50, 0
8, 31110, Note_on_c, 6, 52, 64
8, 31140, Note_on_c, 6, 52, 0
8, 31140, Note_on_c, 6, 50, 64
8, 31170, Note_on_c, 6, 50, 0
8, 31170, Note_on_c, 6, 52, 64
8, 31200, Note_on_c, 6, 52, 0
8, 31200, Note_on_c, 6, 50, 64
8, 31230, Note_on_c, 6, 50, 0
8, 31230, Note_on_c, 6, 52, 64
8, 31260, Note_on_c, 6, 52, 0
8, 31260, Note_on_c, 6, 50, 64
8, 31290, Note_on_c, 6, 50, 0
8, 31290, Note_on_c, 6, 52, 64
8, 31320, Note_on_c, 6, 52, 0
8, 31320, Note_on_c, 6, 50, 64
8, 31350, Note_on_c, 6, 50, 0
8, 31350, Note_on_c, 6, 52, 64
8, 31380, Note_on_c, 6, 52, 0
8, 31380, Note_on_c, 6, 50, 64
8, 31410, Note_on_c, 6, 50, 0
8, 31410, Note_on_c, 6, 52, 64
8, 31440, Note_on_c, 6, 52, 0
8, 31440, Note_on_c, 6, 50, 64
8, 31470, Note_on_c, 6, 50, 0
8, 31470, Note_on_c, 6, 52, 64
8, 31500, Note_on_c, 6, 52, 0
8, 31500, Note_on_c, 6, 50, 64
8, 31530, Note_on_c, 6, 50, 0
8, 31530, Note_on_c, 6, 52, 64
8, 31560, Note_on_c, 6, 52, 0
8, 31560, Note_on_c, 6, 50, 64
8, 31590, Note_on_c, 6, 50, 0
8, 31590, Note_on_c, 6, 52, 64
8, 31620, Note_on_c, 6, 52, 0
8, 31620, Note_on_c, 6, 50, 64
8, 31650, Note_on_c, 6, 50, 0
8, 31650, Note_on_c, 6, 52, 64
8, 31680, Note_on_c, 6, 52, 0
8, 31680, Note_on_c, 6, 50, 64
8, 31710, Note_on_c, 6, 50, 0
8, 31710, Note_on_c, 6, 52, 64
8, 31740, Note_on_c, 6, 52, 0
8, 31740, Note_on_c, 6, 50, 64
8, 31770, Note_on_c, 6, 50, 0
8, 31770, Note_on_c, 6, 52, 64
8, 31800, Note_on_c, 6, 52, 0
8, 31800, Note_on_c, 6, 50, 64
8, 31830, Note_on_c, 6, 50, 0
8, 31830, Note_on_c, 6, 52, 64
8, 31860, Note_on_c, 6, 52, 0
8, 31860, Note_on_c, 6, 50, 64
8, 31890, Note_on_c, 6, 50, 0
8, 31890, Note_on_c, 6, 52, 64
8, 31920, Note_on_c, 6, 52, 0
8, 31920, Note_on_c, 6, 50, 64
8, 31950, Note_on_c, 6, 50, 0
8, 31950, Note_on_c, 6, 52, 64
8, 31980, Note_on_c, 6, 52, 0
8, 31980, Note_on_c, 6, 50, 64
8, 32010, Note_on_c, 6, 50, 0
8, 32010, Note_on_c, 6, 52, 64
8, 32040, Note_on_c, 6, 52, 0
8, 32040, Note_on_c, 6, 50, 64
8, 32070, Note_on_c, 6, 50, 0
8, 32070, Note_on_c, 6, 52, 64
8, 32100, Note_on_c, 6, 52, 0
8, 32100, Note_on_c, 6, 50, 64
8, 32130, Note_on_c, 6, 50, 0
8, 32130, Note_on_c, 6, 52, 64
8, 32160, Note_on_c, 6, 52, 0
8, 32160, Note_on_c, 6, 50, 64
8, 32190, Note_on_c, 6, 50, 0
8, 32190, Note_on_c, 6, 52, 64
8, 32220, Note_on_c, 6, 52, 0
8, 32220, Note_on_c, 6, 50, 64
8, 32250, Note_on_c, 6, 50, 0
8, 32250, Note_on_c, 6, 52, 64
8, 32280, Note_on_c, 6, 52, 0
8, 32280, Note_on_c, 6, 50, 64
8, 32310, Note_on_c, 6, 50, 0
8, 32310, Note_on_c, 6, 52, 64
8, 32340, Note_on_c, 6, 52, 0
8, 32340, Note_on_c, 6, 50, 64
8, 32370, Note_on_c, 6, 50, 0
8, 32370, Note_on_c, 6, 52, 64
8, 32400, Note_on_c, 6, 52, 0
8, 32400, Note_on_c, 6, 50, 64
8, 32430, Note_on_c, 6, 50, 0
8, 32430, Note_on_c, 6, 52, 64
8, 32460, Note_on_c, 6, 52, 0
8, 32460, Note_on_c, 6, 50, 64
8, 32490, Note_on_c, 6, 50, 0
8, 32490, Note_on_c, 6, 52, 64
8, 32520, Note_on_c, 6, 52, 0
8, 32520, Note_on_c, 6, 50, 64
8, 32540, Note_on_c, 6, 50, 0
8, 32540, Note_on_c, 6, 52, 64
8, 32560, Note_on_c, 6, 52, 0
8, 32560, Note_on_c, 6, 50, 64
8, 32580, Note_on_c, 6, 50, 0
8, 32580, Note_on_c, 6, 49, 64
8, 32600, Note_on_c, 6, 49, 0
8, 32600, Note_on_c, 6, 50, 64
8, 32630, Note_on_c, 6, 50, 0
8, 32640, Note_on_c, 6, 50, 64
8, 33020, Note_on_c, 6, 50, 0
8, 34560, Note_on_c, 6, 45, 96
8, 34590, Note_on_c, 6, 45, 0
8, 34590, Note_on_c, 6, 47, 96
8, 34620, Note_on_c, 6, 47, 0
8, 34620, Note_on_c, 6, 45, 96
8, 34650, Note_on_c, 6, 45, 0
8, 34650, Note_on_c, 6, 47, 96
8, 34680, Note_on_c, 6, 47, 0
8, 34680, Note_on_c, 6, 45, 96
8, 34710, Note_on_c, 6, 45, 0
8, 34710, Note_on_c, 6, 47, 96
8, 34740, Note_on_c, 6, 47, 0
8, 34740, Note_on_c, 6, 45, 96
8, 34770, Note_on_c, 6, 45, 0
8, 34770, Note_on_c, 6, 47, 96
8, 34800, Note_on_c, 6, 47, 0
8, 34800, Note_on_c, 6, 45, 96
8, 34830, Note_on_c, 6, 45, 0
8, 34830, Note_on_c, 6, 47, 96
8, 34860, Note_on_c, 6, 47, 0
8, 34860, Note_on_c, 6, 45, 96
8, 34890, Note_on_c, 6, 45, 0
8, 34890, Note_on_c, 6, 47, 96
8, 34920, Note_on_c, 6, 47, 0
8, 34920, Note_on_c, 6, 45, 96
8, 34950, Note_on_c, 6, 45, 0
8, 34950, Note_on_c, 6, 47, 96
8, 34980, Note_on_c, 6, 47, 0
8, 34980, Note_on_c, 6, 45, 96
8, 35010, Note_on_c, 6, 45, 0
8, 35010, Note_on_c, 6, 47, 96
8, 35040, Note_on_c, 6, 47, 0
8, 35040, Note_on_c, 6, 45, 96
8, 35070, Note_on_c, 6, 45, 0
8, 35070, Note_on_c, 6, 47, 96
8, 35100, Note_on_c, 6, 47, 0
8, 35100, Note_on_c, 6, 45, 96
8, 35130, Note_on_c, 6, 45, 0
8, 35130, Note_on_c, 6, 47, 96
8, 35160, Note_on_c, 6, 47, 0
8, 35160, Note_on_c, 6, 45, 96
8, 35190, Note_on_c, 6, 45, 0
8, 35190, Note_on_c, 6, 47, 96
8, 35220, Note_on_c, 6, 47, 0
8, 35220, Note_on_c, 6, 45, 96
8, 35250, Note_on_c, 6, 45, 0
8, 35250, Note_on_c, 6, 47, 96
8, 35280, Note_on_c, 6, 47, 0
8, 35280, Note_on_c, 6, 45, 96
8, 35310, Note_on_c, 6, 45, 0
8, 35310, Note_on_c, 6, 47, 96
8, 35340, Note_on_c, 6, 47, 0
8, 35340, Note_on_c, 6, 45, 96
8, 35370, Note_on_c, 6, 45, 0
8, 35370, Note_on_c, 6, 47, 96
8, 35400, Note_on_c, 6, 47, 0
8, 35400, Note_on_c, 6, 45, 96
8, 35430, Note_on_c, 6, 45, 0
8, 35430, Note_on_c, 6, 47, 96
8, 35460, Note_on_c, 6, 47, 0
8, 35460, Note_on_c, 6, 45, 96
8, 35490, Note_on_c, 6, 45, 0
8, 35490, Note_on_c, 6, 47, 96
8, 35520, Note_on_c, 6, 47, 0
8, 35520, Note_on_c, 6, 45, 96
8, 35550, Note_on_c, 6, 45, 0
8, 35550, Note_on_c, 6, 47, 96
8, 35580, Note_on_c, 6, 47, 0
8, 35580, Note_on_c, 6, 45, 96
8, 35610, Note_on_c, 6, 45, 0
8, 35610, Note_on_c, 6, 47, 96
8, 35640, Note_on_c, 6, 47, 0
8, 35640, Note_on_c, 6, 45, 96
8, 35670, Note_on_c, 6, 45, 0
8, 35670, Note_on_c, 6, 47, 96
8, 35700, Note_on_c, 6, 47, 0
8, 35700, Note_on_c, 6, 45, 96
8, 35730, Note_on_c, 6, 45, 0
8, 35730, Note_on_c, 6, 47, 96
8, 35760, Note_on_c, 6, 47, 0
8, 35760, Note_on_c, 6, 45, 96
8, 35790, Note_on_c, 6, 45, 0
8, 35790, Note_on_c, 6, 47, 96
8, 35820, Note_on_c, 6, 47, 0
8, 35820, Note_on_c, 6, 45, 96
8, 35850, Note_on_c, 6, 45, 0
8, 35850, Note_on_c, 6, 47, 96
8, 35880, Note_on_c, 6, 47, 0
8, 35880, Note_on_c, 6, 45, 96
8, 35910, Note_on_c, 6, 45, 0
8, 35910, Note_on_c, 6, 47, 96
8, 35940, Note_on_c, 6, 47, 0
8, 35940, Note_on_c, 6, 45, 96
8, 35970, Note_on_c, 6, 45, 0
8, 35970, Note_on_c, 6, 47, 96
8, 36000, Note_on_c, 6, 47, 0
8, 36000, Note_on_c, 6, 45, 96
8, 36030, Note_on_c, 6, 45, 0
8, 36030, Note_on_c, 6, 47, 96
8, 36060, Note_on_c, 6, 47, 0
8, 36060, Note_on_c, 6, 45, 96
8, 36090, Note_on_c, 6, 45, 0
8, 36090, Note_on_c, 6, 47, 96
8, 36120, Note_on_c, 6, 47, 0
8, 36120, Note_on_c, 6, 45, 96
8, 36150, Note_on_c, 6, 45, 0
8, 36150, Note_on_c, 6, 47, 96
8, 36180, Note_on_c, 6, 47, 0
8, 36180, Note_on_c, 6, 45, 96
8, 36210, Note_on_c, 6, 45, 0
8, 36210, Note_on_c, 6, 47, 96
8, 36240, Note_on_c, 6, 47, 0
8, 36240, Note_on_c, 6, 45, 96
8, 36270, Note_on_c, 6, 45, 0
8, 36270, Note_on_c, 6, 47, 96
8, 36300, Note_on_c, 6, 47, 0
8, 36300, Note_on_c, 6, 45, 96
8, 36330, Note_on_c, 6, 45, 0
8, 36330, Note_on_c, 6, 47, 96
8, 36360, Note_on_c, 6, 47, 0
8, 36360, Note_on_c, 6, 45, 96
8, 36380, Note_on_c, 6, 45, 0
8, 36380, Note_on_c, 6, 47, 96
8, 36400, Note_on_c, 6, 47, 0
8, 36400, Note_on_c, 6, 45, 96
8, 36420, Note_on_c, 6, 45, 0
8, 36420, Note_on_c, 6, 43, 96
8, 36440, Note_on_c, 6, 43, 0
8, 36440, Note_on_c, 6, 45, 96
8, 36480, Note_on_c, 6, 45, 0
8, 36480, Note_on_c, 6, 50, 64
8, 36860, Note_on_c, 6, 50, 0
8, 38400, Note_on_c, 6, 50, 96
8, 38420, Note_on_c, 6, 50, 0
8, 38430, Note_on_c, 6, 52, 96
8, 38450, Note_on_c, 6, 52, 0
8, 38460, Note_on_c, 6, 50, 96
8, 38480, Note_on_c, 6, 50, 0
8, 38490, Note_on_c, 6, 52, 96
8, 38510, Note_on_c, 6, 52, 0
8, 38520, Note_on_c, 6, 50, 96
8, 38540, Note_on_c, 6, 50, 0
8, 38550, Note_on_c, 6, 52, 96
8, 38570, Note_on_c, 6, 52, 0
8, 38580, Note_on_c, 6, 50, 96
8, 38600, Note_on_c, 6, 50, 0
8, 38610, Note_on_c, 6, 52, 96
8, 38630, Note_on_c, 6, 52, 0
8, 38640, Note_on_c, 6, 50, 96
8, 38660, Note_on_c, 6, 50, 0
8, 38670, Note_on_c, 6, 52, 96
8, 38690, Note_on_c, 6, 52, 0
8, 38700, Note_on_c, 6, 50, 96
8, 38720, Note_on_c, 6, 50, 0
8, 38730, Note_on_c, 6, 52, 96
8, 38750, Note_on_c, 6, 52, 0
8, 38760, Note_on_c, 6, 50, 96
8, 38780, Note_on_c, 6, 50, 0
8, 38790, Note_on_c, 6, 52, 96
8, 38810, Note_on_c, 6, 52, 0
8, 38820, Note_on_c, 6, 50, 96
8, 38840, Note_on_c, 6, 50, 0
8, 38850, Note_on_c, 6, 52, 96
8, 38870, Note_on_c, 6, 52, 0
8, 38880, Note_on_c, 6, 50, 96
8, 38900, Note_on_c, 6, 50, 0
8, 38910, Note_on_c, 6, 52, 96
8, 38930, Note_on_c, 6, 52, 0
8, 38940, Note_on_c, 6, 50, 96
8, 38960, Note_on_c, 6, 50, 0
8, 38970, Note_on_c, 6, 52, 96
8, 38990, Note_on_c, 6, 52, 0
8, 39000, Note_on_c, 6, 50, 96
8, 39020, Note_on_c, 6, 50, 0
8, 39030, Note_on_c, 6, 52, 96
8, 39050, Note_on_c, 6, 52, 0
8, 39060, Note_on_c, 6, 50, 96
8, 39080, Note_on_c, 6, 50, 0
8, 39090, Note_on_c, 6, 52, 96
8, 39110, Note_on_c, 6, 52, 0
8, 39120, Note_on_c, 6, 50, 96
8, 39140, Note_on_c, 6, 50, 0
8, 39150, Note_on_c, 6, 52, 96
8, 39170, Note_on_c, 6, 52, 0
8, 39180, Note_on_c, 6, 50, 96
8, 39200, Note_on_c, 6, 50, 0
8, 39210, Note_on_c, 6, 52, 96
8, 39230, Note_on_c, 6, 52, 0
8, 39240, Note_on_c, 6, 50, 96
8, 39260, Note_on_c, 6, 50, 0
8, 39270, Note_on_c, 6, 52, 96
8, 39290, Note_on_c, 6, 52, 0
8, 39300, Note_on_c, 6, 50, 96
8, 39320, Note_on_c, 6, 50, 0
8, 39330, Note_on_c, 6, 52, 96
8, 39350, Note_on_c, 6, 52, 0
8, 39360, Note_on_c, 6, 50, 96
8, 39380, Note_on_c, 6, 50, 0
8, 39390, Note_on_c, 6, 52, 96
8, 39410, Note_on_c, 6, 52, 0
8, 39420, Note_on_c, 6, 50, 96
8, 39440, Note_on_c, 6, 50, 0
8, 39450, Note_on_c, 6, 52, 96
8, 39470, Note_on_c, 6, 52, 0
8, 39480, Note_on_c, 6, 50, 96
8, 39500, Note_on_c, 6, 50, 0
8, 39510, Note_on_c, 6, 52, 96
8, 39530, Note_on_c, 6, 52, 0
8, 39540, Note_on_c, 6, 50, 96
8, 39560, Note_on_c, 6, 50, 0
8, 39570, Note_on_c, 6, 52, 96
8, 39590, Note_on_c, 6, 52, 0
8, 39600, Note_on_c, 6, 50, 96
8, 39620, Note_on_c, 6, 50, 0
8, 39630, Note_on_c, 6, 52, 96
8, 39650, Note_on_c, 6, 52, 0
8, 39660, Note_on_c, 6, 50, 96
8, 39680, Note_on_c, 6, 50, 0
8, 39690, Note_on_c, 6, 52, 96
8, 39710, Note_on_c, 6, 52, 0
8, 39720, Note_on_c, 6, 50, 96
8, 39740, Note_on_c, 6, 50, 0
8, 39750, Note_on_c, 6, 52, 96
8, 39770, Note_on_c, 6, 52, 0
8, 39780, Note_on_c, 6, 50, 96
8, 39800, Note_on_c, 6, 50, 0
8, 39810, Note_on_c, 6, 52, 96
8, 39830, Note_on_c, 6, 52, 0
8, 44160, Note_on_c, 6, 50, 64
8, 44920, Note_on_c, 6, 50, 0
8, 46080, Note_on_c, 6, 50, 64
8, 46840, Note_on_c, 6, 50, 0
8, 48000, Note_on_c, 6, 50, 64
8, 48760, Note_on_c, 6, 50, 0
8, 49920, Note_on_c, 6, 50, 64
8, 50680, Note_on_c, 6, 50, 0
8, 53760, Note_on_c, 6, 50, 96
8, 53790, Note_on_c, 6, 50, 0
8, 53790, Note_on_c, 6, 52, 96
8, 53820, Note_on_c, 6, 52, 0
8, 53820, Note_on_c, 6, 50, 96
8, 53850, Note_on_c, 6, 50, 0
8, 53850, Note_on_c, 6, 52, 96
8, 53880, Note_on_c, 6, 52, 0
8, 53880, Note_on_c, 6, 50, 96
8, 53910, Note_on_c, 6, 50, 0
8, 53910, Note_on_c, 6, 52, 96
8, 53940, Note_on_c, 6, 52, 0
8, 53940, Note_on_c, 6, 50, 96
8, 53970, Note_on_c, 6, 50, 0
8, 53970, Note_on_c, 6, 52, 96
8, 54000, Note_on_c, 6, 52, 0
8, 54000, Note_on_c, 6, 50, 96
8, 54030, Note_on_c, 6, 50, 0
8, 54030, Note_on_c, 6, 52, 96
8, 54060, Note_on_c, 6, 52, 0
8, 54060, Note_on_c, 6, 50, 96
8, 54090, Note_on_c, 6, 50, 0
8, 54090, Note_on_c, 6, 52, 96
8, 54120, Note_on_c, 6, 52, 0
8, 54120, Note_on_c, 6, 50, 96
8, 54150, Note_on_c, 6, 50, 0
8, 54150, Note_on_c, 6, 52, 96
8, 54180, Note_on_c, 6, 52, 0
8, 54180, Note_on_c, 6, 50, 96
8, 54210, Note_on_c, 6, 50, 0
8, 54210, Note_on_c, 6, 52, 96
8, 54240, Note_on_c, 6, 52, 0
8, 54240, Note_on_c, 6, 50, 96
8, 54270, Note_on_c, 6, 50, 0
8, 54270, Note_on_c, 6, 52, 96
8, 54300, Note_on_c, 6, 52, 0
8, 54300, Note_on_c, 6, 50, 96
8, 54330, Note_on_c, 6, 50, 0
8, 54330, Note_on_c, 6, 52, 96
8, 54360, Note_on_c, 6, 52, 0
8, 54360, Note_on_c, 6, 50, 96
8, 54390, Note_on_c, 6, 50, 0
8, 54390, Note_on_c, 6, 52, 96
8, 54420, Note_on_c, 6, 52, 0
8, 54420, Note_on_c, 6, 50, 96
8, 54450, Note_on_c, 6, 50, 0
8, 54450, Note_on_c, 6, 52, 96
8, 54480, Note_on_c, 6, 52, 0
8, 54480, Note_on_c, 6, 50, 96
8, 54510, Note_on_c, 6, 50, 0
8, 54510, Note_on_c, 6, 52, 96
8, 54540, Note_on_c, 6, 52, 0
8, 54540, Note_on_c, 6, 50, 96
8, 54570, Note_on_c, 6, 50, 0
8, 54570, Note_on_c, 6, 52, 96
8, 54600, Note_on_c, 6, 52, 0
8, 54600, Note_on_c, 6, 50, 96
8, 54630, Note_on_c, 6, 50, 0
8, 54630, Note_on_c, 6, 52, 96
8, 54660, Note_on_c, 6, 52, 0
8, 54660, Note_on_c, 6, 50, 96
8, 54690, Note_on_c, 6, 50, 0
8, 54690, Note_on_c, 6, 52, 96
8, 54720, Note_on_c, 6, 52, 0
8, 54720, Note_on_c, 6, 50, 96
8, 54750, Note_on_c, 6, 50, 0
8, 54750, Note_on_c, 6, 52, 96
8, 54780, Note_on_c, 6, 52, 0
8, 54780, Note_on_c, 6, 50, 96
8, 54810, Note_on_c, 6, 50, 0
8, 54810, Note_on_c, 6, 52, 96
8, 54840, Note_on_c, 6, 52, 0
8, 54840, Note_on_c, 6, 50, 96
8, 54870, Note_on_c, 6, 50, 0
8, 54870, Note_on_c, 6, 52, 96
8, 54900, Note_on_c, 6, 52, 0
8, 54900, Note_on_c, 6, 50, 96
8, 54930, Note_on_c, 6, 50, 0
8, 54930, Note_on_c, 6, 52, 96
8, 54960, Note_on_c, 6, 52, 0
8, 54960, Note_on_c, 6, 50, 96
8, 54990, Note_on_c, 6, 50, 0
8, 54990, Note_on_c, 6, 52, 96
8, 55020, Note_on_c, 6, 52, 0
8, 55020, Note_on_c, 6, 50, 96
8, 55050, Note_on_c, 6, 50, 0
8, 55050, Note_on_c, 6, 52, 96
8, 55080, Note_on_c, 6, 52, 0
8, 55080, Note_on_c, 6, 50, 96
8, 55110, Note_on_c, 6, 50, 0
8, 55110, Note_on_c, 6, 52, 96
8, 55140, Note_on_c, 6, 52, 0
8, 55140, Note_on_c, 6, 50, 96
8, 55170, Note_on_c, 6, 50, 0
8, 55170, Note_on_c, 6, 52, 96
8, 55200, Note_on_c, 6, 52, 0
8, 55200, Note_on_c, 6, 50, 96
8, 55230, Note_on_c, 6, 50, 0
8, 55230, Note_on_c, 6, 52, 96
8, 55260, Note_on_c, 6, 52, 0
8, 55260, Note_on_c, 6, 50, 96
8, 55290, Note_on_c, 6, 50, 0
8, 55290, Note_on_c, 6, 52, 96
8, 55320, Note_on_c, 6, 52, 0
8, 55320, Note_on_c, 6, 50, 96
8, 55350, Note_on_c, 6, 50, 0
8, 55350, Note_on_c, 6, 52, 96
8, 55380, Note_on_c, 6, 52, 0
8, 55380, Note_on_c, 6, 50, 96
8, 55410, Note_on_c, 6, 50, 0
8, 55410, Note_on_c, 6, 52, 96
8, 55440, Note_on_c, 6, 52, 0
8, 55440, Note_on_c, 6, 50, 96
8, 55470, Note_on_c, 6, 50, 0
8, 55470, Note_on_c, 6, 52, 96
8, 55500, Note_on_c, 6, 52, 0
8, 55500, Note_on_c, 6, 50, 96
8, 55530, Note_on_c, 6, 50, 0
8, 55530, Note_on_c, 6, 52, 96
8, 55560, Note_on_c, 6, 52, 0
8, 55560, Note_on_c, 6, 50, 96
8, 55590, Note_on_c, 6, 50, 0
8, 55590, Note_on_c, 6, 52, 96
8, 55620, Note_on_c, 6, 52, 0
8, 55620, Note_on_c, 6, 50, 96
8, 55650, Note_on_c, 6, 50, 0
8, 55650, Note_on_c, 6, 52, 96
8, 55680, Note_on_c, 6, 52, 0
8, 55680, Note_on_c, 6, 45, 64
8, 55710, Note_on_c, 6, 45, 0
8, 55710, Note_on_c, 6, 47, 64
8, 55740, Note_on_c, 6, 47, 0
8, 55740, Note_on_c, 6, 45, 64
8, 55770, Note_on_c, 6, 45, 0
8, 55770, Note_on_c, 6, 47, 64
8, 55800, Note_on_c, 6, 47, 0
8, 55800, Note_on_c, 6, 45, 64
8, 55830, Note_on_c, 6, 45, 0
8, 55830, Note_on_c, 6, 47, 64
8, 55860, Note_on_c, 6, 47, 0
8, 55860, Note_on_c, 6, 45, 64
8, 55890, Note_on_c, 6, 45, 0
8, 55890, Note_on_c, 6, 47, 64
8, 55920, Note_on_c, 6, 47, 0
8, 55920, Note_on_c, 6, 45, 64
8, 55950, Note_on_c, 6, 45, 0
8, 55950, Note_on_c, 6, 47, 64
8, 55980, Note_on_c, 6, 47, 0
8, 55980, Note_on_c, 6, 45, 64
8, 56010, Note_on_c, 6, 45, 0
8, 56010, Note_on_c, 6, 47, 64
8, 56040, Note_on_c, 6, 47, 0
8, 56040, Note_on_c, 6, 45, 64
8, 56070, Note_on_c, 6, 45, 0
8, 56070, Note_on_c, 6, 47, 64
8, 56100, Note_on_c, 6, 47, 0
8, 56100, Note_on_c, 6, 45, 64
8, 56130, Note_on_c, 6, 45, 0
8, 56130, Note_on_c, 6, 47, 64
8, 56160, Note_on_c, 6, 47, 0
8, 56160, Note_on_c, 6, 45, 64
8, 56190, Note_on_c, 6, 45, 0
8, 56190, Note_on_c, 6, 47, 64
8, 56220, Note_on_c, 6, 47, 0
8, 56220, Note_on_c, 6, 45, 64
8, 56250, Note_on_c, 6, 45, 0
8, 56250, Note_on_c, 6, 47, 64
8, 56280, Note_on_c, 6, 47, 0
8, 56280, Note_on_c, 6, 45, 64
8, 56310, Note_on_c, 6, 45, 0
8, 56310, Note_on_c, 6, 47, 64
8, 56340, Note_on_c, 6, 47, 0
8, 56340, Note_on_c, 6, 45, 64
8, 56370, Note_on_c, 6, 45, 0
8, 56370, Note_on_c, 6, 47, 64
8, 56400, Note_on_c, 6, 47, 0
8, 56400, Note_on_c, 6, 45, 64
8, 56430, Note_on_c, 6, 45, 0
8, 56430, Note_on_c, 6, 47, 64
8, 56460, Note_on_c, 6, 47, 0
8, 56460, Note_on_c, 6, 45, 64
8, 56490, Note_on_c, 6, 45, 0
8, 56490, Note_on_c, 6, 47, 64
8, 56520, Note_on_c, 6, 47, 0
8, 56520, Note_on_c, 6, 45, 64
8, 56550, Note_on_c, 6, 45, 0
8, 56550, Note_on_c, 6, 47, 64
8, 56580, Note_on_c, 6, 47, 0
8, 56580, Note_on_c, 6, 45, 64
8, 56610, Note_on_c, 6, 45, 0
8, 56610, Note_on_c, 6, 47, 64
8, 56640, Note_on_c, 6, 47, 0
8, 56640, Note_on_c, 6, 45, 64
8, 56670, Note_on_c, 6, 45, 0
8, 56670, Note_on_c, 6, 47, 64
8, 56700, Note_on_c, 6, 47, 0
8, 56700, Note_on_c, 6, 45, 64
8, 56730, Note_on_c, 6, 45, 0
8, 56730, Note_on_c, 6, 47, 64
8, 56760, Note_on_c, 6, 47, 0
8, 56760, Note_on_c, 6, 45, 64
8, 56790, Note_on_c, 6, 45, 0
8, 56790, Note_on_c, 6, 47, 64
8, 56820, Note_on_c, 6, 47, 0
8, 56820, Note_on_c, 6, 45, 64
8, 56850, Note_on_c, 6, 45, 0
8, 56850, Note_on_c, 6, 47, 64
8, 56880, Note_on_c, 6, 47, 0
8, 56880, Note_on_c, 6, 45, 64
8, 56910, Note_on_c, 6, 45, 0
8, 56910, Note_on_c, 6, 47, 64
8, 56940, Note_on_c, 6, 47, 0
8, 56940, Note_on_c, 6, 45, 64
8, 56970, Note_on_c, 6, 45, 0
8, 56970, Note_on_c, 6, 47, 64
8, 57000, Note_on_c, 6, 47, 0
8, 57000, Note_on_c, 6, 45, 64
8, 57030, Note_on_c, 6, 45, 0
8, 57030, Note_on_c, 6, 47, 64
8, 57060, Note_on_c, 6, 47, 0
8, 57060, Note_on_c, 6, 45, 64
8, 57090, Note_on_c, 6, 45, 0
8, 57090, Note_on_c, 6, 47, 64
8, 57120, Note_on_c, 6, 47, 0
8, 57120, Note_on_c, 6, 45, 64
8, 57150, Note_on_c, 6, 45, 0
8, 57150, Note_on_c, 6, 47, 64
8, 57180, Note_on_c, 6, 47, 0
8, 57180, Note_on_c, 6, 45, 64
8, 57210, Note_on_c, 6, 45, 0
8, 57210, Note_on_c, 6, 47, 64
8, 57240, Note_on_c, 6, 47, 0
8, 57240, Note_on_c, 6, 45, 64
8, 57270, Note_on_c, 6, 45, 0
8, 57270, Note_on_c, 6, 47, 64
8, 57300, Note_on_c, 6, 47, 0
8, 57300, Note_on_c, 6, 45, 64
8, 57330, Note_on_c, 6, 45, 0
8, 57330, Note_on_c, 6, 47, 64
8, 57360, Note_on_c, 6, 47, 0
8, 57360, Note_on_c, 6, 45, 64
8, 57390, Note_on_c, 6, 45, 0
8, 57390, Note_on_c, 6, 47, 64
8, 57420, Note_on_c, 6, 47, 0
8, 57420, Note_on_c, 6, 45, 64
8, 57450, Note_on_c, 6, 45, 0
8, 57450, Note_on_c, 6, 47, 64
8, 57480, Note_on_c, 6, 47, 0
8, 57480, Note_on_c, 6, 45, 64
8, 57510, Note_on_c, 6, 45, 0
8, 57510, Note_on_c, 6, 47, 64
8, 57540, Note_on_c, 6, 47, 0
8, 57540, Note_on_c, 6, 45, 64
8, 57570, Note_on_c, 6, 45, 0
8, 57570, Note_on_c, 6, 47, 64
8, 57600, Note_on_c, 6, 47, 0
8, 57600, Note_on_c, 6, 45, 64
8, 57630, Note_on_c, 6, 45, 0
8, 57630, Note_on_c, 6, 47, 64
8, 57660, Note_on_c, 6, 47, 0
8, 57660, Note_on_c, 6, 45, 64
8, 57690, Note_on_c, 6, 45, 0
8, 57690, Note_on_c, 6, 47, 64
8, 57720, Note_on_c, 6, 47, 0
8, 57720, Note_on_c, 6, 45, 64
8, 57750, Note_on_c, 6, 45, 0
8, 57750, Note_on_c, 6, 47, 64
8, 57780, Note_on_c, 6, 47, 0
8, 57780, Note_on_c, 6, 45, 64
8, 57810, Note_on_c, 6, 45, 0
8, 57810, Note_on_c, 6, 47, 64
8, 57840, Note_on_c, 6, 47, 0
8, 57840, Note_on_c, 6, 45, 64
8, 57870, Note_on_c, 6, 45, 0
8, 57870, Note_on_c, 6, 47, 64
8, 57900, Note_on_c, 6, 47, 0
8, 57900, Note_on_c, 6, 45, 64
8, 57930, Note_on_c, 6, 45, 0
8, 57930, Note_on_c, 6, 47, 64
8, 57960, Note_on_c, 6, 47, 0
8, 57960, Note_on_c, 6, 45, 64
8, 57990, Note_on_c, 6, 45, 0
8, 57990, Note_on_c, 6, 47, 64
8, 58020, Note_on_c, 6, 47, 0
8, 58020, Note_on_c, 6, 45, 64
8, 58050, Note_on_c, 6, 45, 0
8, 58050, Note_on_c, 6, 47, 64
8, 58080, Note_on_c, 6, 47, 0
8, 58080, Note_on_c, 6, 45, 64
8, 58110, Note_on_c, 6, 45, 0
8, 58110, Note_on_c, 6, 47, 64
8, 58140, Note_on_c, 6, 47, 0
8, 58140, Note_on_c, 6, 45, 64
8, 58170, Note_on_c, 6, 45, 0
8, 58170, Note_on_c, 6, 47, 64
8, 58200, Note_on_c, 6, 47, 0
8, 58200, Note_on_c, 6, 45, 64
8, 58230, Note_on_c, 6, 45, 0
8, 58230, Note_on_c, 6, 47, 64
8, 58260, Note_on_c, 6, 47, 0
8, 58260, Note_on_c, 6, 45, 64
8, 58290, Note_on_c, 6, 45, 0
8, 58290, Note_on_c, 6, 47, 64
8, 58320, Note_on_c, 6, 47, 0
8, 58320, Note_on_c, 6, 45, 64
8, 58350, Note_on_c, 6, 45, 0
8, 58350, Note_on_c, 6, 47, 64
8, 58380, Note_on_c, 6, 47, 0
8, 58380, Note_on_c, 6, 45, 64
8, 58410, Note_on_c, 6, 45, 0
8, 58410, Note_on_c, 6, 47, 64
8, 58440, Note_on_c, 6, 47, 0
8, 58440, Note_on_c, 6, 45, 64
8, 58470, Note_on_c, 6, 45, 0
8, 58470, Note_on_c, 6, 47, 64
8, 58500, Note_on_c, 6, 47, 0
8, 58500, Note_on_c, 6, 45, 64
8, 58530, Note_on_c, 6, 45, 0
8, 58530, Note_on_c, 6, 47, 64
8, 58560, Note_on_c, 6, 47, 0
8, 58560, Note_on_c, 6, 45, 64
8, 58590, Note_on_c, 6, 45, 0
8, 58590, Note_on_c, 6, 47, 64
8, 58620, Note_on_c, 6, 47, 0
8, 58620, Note_on_c, 6, 45, 64
8, 58650, Note_on_c, 6, 45, 0
8, 58650, Note_on_c, 6, 47, 64
8, 58680, Note_on_c, 6, 47, 0
8, 58680, Note_on_c, 6, 45, 64
8, 58710, Note_on_c, 6, 45, 0
8, 58710, Note_on_c, 6, 47, 64
8, 58740, Note_on_c, 6, 47, 0
8, 58740, Note_on_c, 6, 45, 64
8, 58770, Note_on_c, 6, 45, 0
8, 58770, Note_on_c, 6, 47, 64
8, 58800, Note_on_c, 6, 47, 0
8, 58800, Note_on_c, 6, 45, 64
8, 58830, Note_on_c, 6, 45, 0
8, 58830, Note_on_c, 6, 47, 64
8, 58860, Note_on_c, 6, 47, 0
8, 58860, Note_on_c, 6, 45, 64
8, 58890, Note_on_c, 6, 45, 0
8, 58890, Note_on_c, 6, 47, 64
8, 58920, Note_on_c, 6, 47, 0
8, 58920, Note_on_c, 6, 45, 64
8, 58950, Note_on_c, 6, 45, 0
8, 58950, Note_on_c, 6, 47, 64
8, 58980, Note_on_c, 6, 47, 0
8, 58980, Note_on_c, 6, 45, 64
8, 59010, Note_on_c, 6, 45, 0
8, 59010, Note_on_c, 6, 47, 64
8, 59040, Note_on_c, 6, 47, 0
8, 59040, Note_on_c, 6, 45, 64
8, 59070, Note_on_c, 6, 45, 0
8, 59070, Note_on_c, 6, 47, 64
8, 59100, Note_on_c, 6, 47, 0
8, 59100, Note_on_c, 6, 45, 64
8, 59130, Note_on_c, 6, 45, 0
8, 59130, Note_on_c, 6, 47, 64
8, 59160, Note_on_c, 6, 47, 0
8, 59160, Note_on_c, 6, 45, 64
8, 59190, Note_on_c, 6, 45, 0
8, 59190, Note_on_c, 6, 47, 64
8, 59220, Note_on_c, 6, 47, 0
8, 59220, Note_on_c, 6, 45, 64
8, 59250, Note_on_c, 6, 45, 0
8, 59250, Note_on_c, 6, 47, 64
8, 59280, Note_on_c, 6, 47, 0
8, 59280, Note_on_c, 6, 45, 64
8, 59310, Note_on_c, 6, 45, 0
8, 59310, Note_on_c, 6, 47, 64
8, 59340, Note_on_c, 6, 47, 0
8, 59340, Note_on_c, 6, 45, 64
8, 59370, Note_on_c, 6, 45, 0
8, 59370, Note_on_c, 6, 47, 64
8, 59400, Note_on_c, 6, 47, 0
8, 59400, Note_on_c, 6, 45, 64
8, 59420, Note_on_c, 6, 45, 0
8, 59420, Note_on_c, 6, 47, 64
8, 59440, Note_on_c, 6, 47, 0
8, 59440, Note_on_c, 6, 45, 64
8, 59460, Note_on_c, 6, 45, 0
8, 59460, Note_on_c, 6, 43, 64
8, 59480, Note_on_c, 6, 43, 0
8, 59480, Note_on_c, 6, 45, 64
8, 59510, Note_on_c, 6, 45, 0
8, 59520, Note_on_c, 6, 50, 48
8, 59900, Note_on_c, 6, 50, 0
8, 72960, Note_on_c, 6, 50, 96
8, 73340, Note_on_c, 6, 50, 0
8, 73920, Note_on_c, 6, 45, 96
8, 74300, Note_on_c, 6, 45, 0
8, 74880, Note_on_c, 6, 50, 96
8, 75260, Note_on_c, 6, 50, 0
8, 75840, Note_on_c, 6, 45, 96
8, 76220, Note_on_c, 6, 45, 0
8, 92160, Note_on_c, 6, 50, 96
8, 92540, Note_on_c, 6, 50, 0
8, 93600, Note_on_c, 6, 45, 96
8, 93980, Note_on_c, 6, 45, 0
8, 94080, Note_on_c, 6, 50, 96
8, 94460, Note_on_c, 6, 50, 0
8, 95520, Note_on_c, 6, 45, 96
8, 95900, Note_on_c, 6, 45, 0
8, 96000, Note_on_c, 6, 50, 96
8, 96380, Note_on_c, 6, 50, 0
8, 96960, Note_on_c, 6, 50, 96
8, 97340, Note_on_c, 6, 50, 0
8, 97920, Note_on_c, 6, 50, 96
8, 98300, Note_on_c, 6, 50, 0
8, 98400, Note_on_c, 6, 50, 96
8, 98590, Note_on_c, 6, 50, 0
8, 98640, Note_on_c, 6, 50, 96
8, 98830, Note_on_c, 6, 50, 0
8, 98880, Note_on_c, 6, 50, 96
8, 99260, Note_on_c, 6, 50, 0
8, 99840, Note_on_c, 6, 45, 96
8, 100600, Note_on_c, 6, 45, 0
8, 101280, Note_on_c, 6, 45, 96
8, 101470, Note_on_c, 6, 45, 0
8, 101520, Note_on_c, 6, 45, 96
8, 101710, Note_on_c, 6, 45, 0
8, 101760, Note_on_c, 6, 45, 96
8, 102520, Note_on_c, 6, 45, 0
8, 103200, Note_on_c, 6, 45, 96
8, 103390, Note_on_c, 6, 45, 0
8, 103440, Note_on_c, 6, 45, 96
8, 103630, Note_on_c, 6, 45, 0
8, 103680, Note_on_c, 6, 45, 96
8, 104060, Note_on_c, 6, 45, 0
8, 104160, Note_on_c, 6, 45, 96
8, 104540, Note_on_c, 6, 45, 0
8, 104640, Note_on_c, 6, 45, 96
8, 105020, Note_on_c, 6, 45, 0
8, 105120, Note_on_c, 6, 45, 96
8, 105500, Note_on_c, 6, 45, 0
8, 105600, Note_on_c, 6, 45, 96
8, 105980, Note_on_c, 6, 45, 0
8, 106080, Note_on_c, 6, 45, 96
8, 106460, Note_on_c, 6, 45, 0
8, 106560, Note_on_c, 6, 45, 96
8, 106940, Note_on_c, 6, 45, 0
8, 107520, Note_on_c, 6, 45, 96
8, 108280, Note_on_c, 6, 45, 0
8, 111360, Note_on_c, 6, 45, 96
8, 112120, Note_on_c, 6, 45, 0
8, 115200, Note_on_c, 6, 45, 96
8, 115960, Note_on_c, 6, 45, 0
8, 128640, Note_on_c, 6, 50, 96
8, 129400, Note_on_c, 6, 50, 0
8, 130560, Note_on_c, 6, 45, 96
8, 131320, Note_on_c, 6, 45, 0
8, 132480, Note_on_c, 6, 50, 96
8, 133240, Note_on_c, 6, 50, 0
8, 134400, Note_on_c, 6, 45, 96
8, 135160, Note_on_c, 6, 45, 0
8, 136320, Note_on_c, 6, 50, 96
8, 137080, Note_on_c, 6, 50, 0
8, 138240, Note_on_c, 6, 45, 96
8, 139000, Note_on_c, 6, 45, 0
8, 147840, Note_on_c, 6, 50, 96
8, 148600, Note_on_c, 6, 50, 0
8, 155520, Note_on_c, 6, 50, 96
8, 156280, Note_on_c, 6, 50, 0
8, 190080, Note_on_c, 6, 45, 96
8, 190840, Note_on_c, 6, 45, 0
8, 192000, Note_on_c, 6, 45, 96
8, 192760, Note_on_c, 6, 45, 0
8, 193920, Note_on_c, 6, 50, 96
8, 194680, Note_on_c, 6, 50, 0
8, 194880, Note_on_c, 6, 50, 96
8, 195640, Note_on_c, 6, 50, 0
8, 195840, Note_on_c, 6, 50, 96
8, 196600, Note_on_c, 6, 50, 0
8, 201600, Note_on_c, 6, 45, 96
8, 202360, Note_on_c, 6, 45, 0
8, 203520, Note_on_c, 6, 45, 96
8, 204280, Note_on_c, 6, 45, 0
8, 205440, Note_on_c, 6, 50, 96
8, 206200, Note_on_c, 6, 50, 0
8, 206400, Note_on_c, 6, 50, 96
8, 207160, Note_on_c, 6, 50, 0
8, 207360, Note_on_c, 6, 50, 96
8, 208120, Note_on_c, 6, 50, 0
8, 213120, Note_on_c, 6, 45, 96
8, 213880, Note_on_c, 6, 45, 0
8, 215040, Note_on_c, 6, 45, 96
8, 215800, Note_on_c, 6, 45, 0
8, 216960, Note_on_c, 6, 45, 96
8, 217720, Note_on_c, 6, 45, 0
8, 218880, Note_on_c, 6, 45, 96
8, 219640, Note_on_c, 6, 45, 0
8, 220800, Note_on_c, 6, 45, 96
8, 221560, Note_on_c, 6, 45, 0
8, 221760, Note_on_c, 6, 45, 96
8, 222330, Note_on_c, 6, 45, 0
8, 222480, Note_on_c, 6, 45, 96
8, 222670, Note_on_c, 6, 45, 0
8, 222720, Note_on_c, 6, 45, 96
8, 223480, Note_on_c, 6, 45, 0
8, 224640, Note_on_c, 6, 45, 96
8, 225400, Note_on_c, 6, 45, 0
8, 226560, Note_on_c, 6, 45, 96
8, 227320, Note_on_c, 6, 45, 0
8, 228480, Note_on_c, 6, 45, 96
8, 228860, Note_on_c, 6, 45, 0
8, 229440, Note_on_c, 6, 45, 96
8, 229820, Note_on_c, 6, 45, 0
8, 230400, Note_on_c, 6, 45, 96
8, 231160, Note_on_c, 6, 45, 0
8, 282240, Note_on_c, 6, 50, 96
8, 282620, Note_on_c, 6, 50, 0
8, 283200, Note_on_c, 6, 50, 96
8, 283580, Note_on_c, 6, 50, 0
8, 284160, Note_on_c, 6, 50, 96
8, 284540, Note_on_c, 6, 50, 0
8, 285120, Note_on_c, 6, 50, 96
8, 285500, Note_on_c, 6, 50, 0
8, 301440, Note_on_c, 6, 50, 96
8, 301500, Note_on_c, 6, 50, 0
8, 301500, Note_on_c, 6, 52, 96
8, 301560, Note_on_c, 6, 52, 0
8, 301560, Note_on_c, 6, 50, 96
8, 301620, Note_on_c, 6, 50, 0
8, 301620, Note_on_c, 6, 52, 96
8, 301680, Note_on_c, 6, 52, 0
8, 301680, Note_on_c, 6, 50, 96
8, 301740, Note_on_c, 6, 50, 0
8, 301740, Note_on_c, 6, 52, 96
8, 301800, Note_on_c, 6, 52, 0
8, 301800, Note_on_c, 6, 50, 96
8, 301860, Note_on_c, 6, 50, 0
8, 301860, Note_on_c, 6, 52, 96
8, 301920, Note_on_c, 6, 52, 0
8, 301920, Note_on_c, 6, 50, 96
8, 301980, Note_on_c, 6, 50, 0
8, 301980, Note_on_c, 6, 52, 96
8, 302040, Note_on_c, 6, 52, 0
8, 302040, Note_on_c, 6, 50, 96
8, 302100, Note_on_c, 6, 50, 0
8, 302100, Note_on_c, 6, 52, 96
8, 302160, Note_on_c, 6, 52, 0
8, 302160, Note_on_c, 6, 50, 96
8, 302220, Note_on_c, 6, 50, 0
8, 302220, Note_on_c, 6, 52, 96
8, 302280, Note_on_c, 6, 52, 0
8, 302280, Note_on_c, 6, 50, 96
8, 302340, Note_on_c, 6, 50, 0
8, 302340, Note_on_c, 6, 52, 96
8, 302400, Note_on_c, 6, 52, 0
8, 302400, Note_on_c, 6, 50, 96
8, 302460, Note_on_c, 6, 50, 0
8, 302460, Note_on_c, 6, 52, 96
8, 302520, Note_on_c, 6, 52, 0
8, 302520, Note_on_c, 6, 50, 96
8, 302580, Note_on_c, 6, 50, 0
8, 302580, Note_on_c, 6, 52, 96
8, 302640, Note_on_c, 6, 52, 0
8, 302640, Note_on_c, 6, 50, 96
8, 302700, Note_on_c, 6, 50, 0
8, 302700, Note_on_c, 6, 52, 96
8, 302760, Note_on_c, 6, 52, 0
8, 302760, Note_on_c, 6, 50, 96
8, 302820, Note_on_c, 6, 50, 0
8, 302820, Note_on_c, 6, 52, 96
8, 302880, Note_on_c, 6, 52, 0
8, 302880, Note_on_c, 6, 50, 96
8, 302940, Note_on_c, 6, 50, 0
8, 302940, Note_on_c, 6, 52, 96
8, 303000, Note_on_c, 6, 52, 0
8, 303000, Note_on_c, 6, 50, 96
8, 303060, Note_on_c, 6, 50, 0
8, 303060, Note_on_c, 6, 52, 96
8, 303120, Note_on_c, 6, 52, 0
8, 303120, Note_on_c, 6, 50, 96
8, 303180, Note_on_c, 6, 50, 0
8, 303180, Note_on_c, 6, 52, 96
8, 303240, Note_on_c, 6, 52, 0
8, 303240, Note_on_c, 6, 50, 96
8, 303300, Note_on_c, 6, 50, 0
8, 303300, Note_on_c, 6, 52, 96
8, 303360, Note_on_c, 6, 52, 0
8, 303360, Note_on_c, 6, 50, 96
8, 303740, Note_on_c, 6, 50, 0
8, 309120, Note_on_c, 6, 50, 96
8, 309180, Note_on_c, 6, 50, 0
8, 309180, Note_on_c, 6, 52, 96
8, 309240, Note_on_c, 6, 52, 0
8, 309240, Note_on_c, 6, 50, 96
8, 309300, Note_on_c, 6, 50, 0
8, 309300, Note_on_c, 6, 52, 96
8, 309360, Note_on_c, 6, 52, 0
8, 309360, Note_on_c, 6, 50, 96
8, 309420, Note_on_c, 6, 50, 0
8, 309420, Note_on_c, 6, 52, 96
8, 309480, Note_on_c, 6, 52, 0
8, 309480, Note_on_c, 6, 50, 96
8, 309540, Note_on_c, 6, 50, 0
8, 309540, Note_on_c, 6, 52, 96
8, 309600, Note_on_c, 6, 52, 0
8, 309600, Note_on_c, 6, 50, 96
8, 309660, Note_on_c, 6, 50, 0
8, 309660, Note_on_c, 6, 52, 96
8, 309720, Note_on_c, 6, 52, 0
8, 309720, Note_on_c, 6, 50, 96
8, 309780, Note_on_c, 6, 50, 0
8, 309780, Note_on_c, 6, 52, 96
8, 309840, Note_on_c, 6, 52, 0
8, 309840, Note_on_c, 6, 50, 96
8, 309900, Note_on_c, 6, 50, 0
8, 309900, Note_on_c, 6, 52, 96
8, 309960, Note_on_c, 6, 52, 0
8, 309960, Note_on_c, 6, 50, 96
8, 310020, Note_on_c, 6, 50, 0
8, 310020, Note_on_c, 6, 52, 96
8, 310080, Note_on_c, 6, 52, 0
8, 310080, Note_on_c, 6, 50, 96
8, 310140, Note_on_c, 6, 50, 0
8, 310140, Note_on_c, 6, 52, 96
8, 310200, Note_on_c, 6, 52, 0
8, 310200, Note_on_c, 6, 50, 96
8, 310260, Note_on_c, 6, 50, 0
8, 310260, Note_on_c, 6, 52, 96
8, 310320, Note_on_c, 6, 52, 0
8, 310320, Note_on_c, 6, 50, 96
8, 310380, Note_on_c, 6, 50, 0
8, 310380, Note_on_c, 6, 52, 96
8, 310440, Note_on_c, 6, 52, 0
8, 310440, Note_on_c, 6, 50, 96
8, 310500, Note_on_c, 6, 50, 0
8, 310500, Note_on_c, 6, 52, 96
8, 310560, Note_on_c, 6, 52, 0
8, 310560, Note_on_c, 6, 50, 96
8, 310620, Note_on_c, 6, 50, 0
8, 310620, Note_on_c, 6, 52, 96
8, 310680, Note_on_c, 6, 52, 0
8, 310680, Note_on_c, 6, 50, 96
8, 310740, Note_on_c, 6, 50, 0
8, 310740, Note_on_c, 6, 52, 96
8, 310800, Note_on_c, 6, 52, 0
8, 310800, Note_on_c, 6, 50, 96
8, 310860, Note_on_c, 6, 50, 0
8, 310860, Note_on_c, 6, 52, 96
8, 310920, Note_on_c, 6, 52, 0
8, 310920, Note_on_c, 6, 50, 96
8, 310980, Note_on_c, 6, 50, 0
8, 310980, Note_on_c, 6, 52, 96
8, 311040, Note_on_c, 6, 52, 0
8, 311040, Note_on_c, 6, 50, 96
8, 311420, Note_on_c, 6, 50, 0
8, 316800, Note_on_c, 6, 50, 96
8, 316860, Note_on_c, 6, 50, 0
8, 316860, Note_on_c, 6, 52, 96
8, 316920, Note_on_c, 6, 52, 0
8, 316920, Note_on_c, 6, 50, 96
8, 316980, Note_on_c, 6, 50, 0
8, 316980, Note_on_c, 6, 52, 96
8, 317040, Note_on_c, 6, 52, 0
8, 317040, Note_on_c, 6, 50, 96
8, 317100, Note_on_c, 6, 50, 0
8, 317100, Note_on_c, 6, 52, 96
8, 317160, Note_on_c, 6, 52, 0
8, 317160, Note_on_c, 6, 50, 96
8, 317220, Note_on_c, 6, 50, 0
8, 317220, Note_on_c, 6, 52, 96
8, 317280, Note_on_c, 6, 52, 0
8, 317280, Note_on_c, 6, 50, 96
8, 317340, Note_on_c, 6, 50, 0
8, 317340, Note_on_c, 6, 52, 96
8, 317400, Note_on_c, 6, 52, 0
8, 317400, Note_on_c, 6, 50, 96
8, 317460, Note_on_c, 6, 50, 0
8, 317460, Note_on_c, 6, 52, 96
8, 317520, Note_on_c, 6, 52, 0
8, 317520, Note_on_c, 6, 50, 96
8, 317580, Note_on_c, 6, 50, 0
8, 317580, Note_on_c, 6, 52, 96
8, 317640, Note_on_c, 6, 52, 0
8, 317640, Note_on_c, 6, 50, 96
8, 317700, Note_on_c, 6, 50, 0
8, 317700, Note_on_c, 6, 52, 96
8, 317760, Note_on_c, 6, 52, 0
8, 317760, Note_on_c, 6, 50, 96
8, 317820, Note_on_c, 6, 50, 0
8, 317820, Note_on_c, 6, 52, 96
8, 317880, Note_on_c, 6, 52, 0
8, 317880, Note_on_c, 6, 50, 96
8, 317940, Note_on_c, 6, 50, 0
8, 317940, Note_on_c, 6, 52, 96
8, 318000, Note_on_c, 6, 52, 0
8, 318000, Note_on_c, 6, 50, 96
8, 318060, Note_on_c, 6, 50, 0
8, 318060, Note_on_c, 6, 52, 96
8, 318120, Note_on_c, 6, 52, 0
8, 318120, Note_on_c, 6, 50, 96
8, 318180, Note_on_c, 6, 50, 0
8, 318180, Note_on_c, 6, 52, 96
8, 318240, Note_on_c, 6, 52, 0
8, 318240, Note_on_c, 6, 50, 96
8, 318300, Note_on_c, 6, 50, 0
8, 318300, Note_on_c, 6, 52, 96
8, 318360, Note_on_c, 6, 52, 0
8, 318360, Note_on_c, 6, 50, 96
8, 318420, Note_on_c, 6, 50, 0
8, 318420, Note_on_c, 6, 52, 96
8, 318480, Note_on_c, 6, 52, 0
8, 318480, Note_on_c, 6, 50, 96
8, 318540, Note_on_c, 6, 50, 0
8, 318540, Note_on_c, 6, 52, 96
8, 318600, Note_on_c, 6, 52, 0
8, 318600, Note_on_c, 6, 50, 96
8, 318660, Note_on_c, 6, 50, 0
8, 318660, Note_on_c, 6, 52, 96
8, 318720, Note_on_c, 6, 52, 0
8, 318720, Note_on_c, 6, 50, 96
8, 319100, Note_on_c, 6, 50, 0
8, 324480, Note_on_c, 6, 45, 96
8, 324540, Note_on_c, 6, 45, 0
8, 324540, Note_on_c, 6, 47, 96
8, 324600, Note_on_c, 6, 47, 0
8, 324600, Note_on_c, 6, 45, 96
8, 324660, Note_on_c, 6, 45, 0
8, 324660, Note_on_c, 6, 47, 96
8, 324720, Note_on_c, 6, 47, 0
8, 324720, Note_on_c, 6, 45, 96
8, 324780, Note_on_c, 6, 45, 0
8, 324780, Note_on_c, 6, 47, 96
8, 324840, Note_on_c, 6, 47, 0
8, 324840, Note_on_c, 6, 45, 96
8, 324900, Note_on_c, 6, 45, 0
8, 324900, Note_on_c, 6, 47, 96
8, 324960, Note_on_c, 6, 47, 0
8, 324960, Note_on_c, 6, 45, 96
8, 325020, Note_on_c, 6, 45, 0
8, 325020, Note_on_c, 6, 47, 96
8, 325080, Note_on_c, 6, 47, 0
8, 325080, Note_on_c, 6, 45, 96
8, 325140, Note_on_c, 6, 45, 0
8, 325140, Note_on_c, 6, 47, 96
8, 325200, Note_on_c, 6, 47, 0
8, 325200, Note_on_c, 6, 45, 96
8, 325260, Note_on_c, 6, 45, 0
8, 325260, Note_on_c, 6, 47, 96
8, 325320, Note_on_c, 6, 47, 0
8, 325320, Note_on_c, 6, 45, 96
8, 325380, Note_on_c, 6, 45, 0
8, 325380, Note_on_c, 6, 47, 96
8, 325440, Note_on_c, 6, 47, 0
8, 325440, Note_on_c, 6, 45, 96
8, 325500, Note_on_c, 6, 45, 0
8, 325500, Note_on_c, 6, 47, 96
8, 325560, Note_on_c, 6, 47, 0
8, 325560, Note_on_c, 6, 45, 96
8, 325620, Note_on_c, 6, 45, 0
8, 325620, Note_on_c, 6, 47, 96
8, 325680, Note_on_c, 6, 47, 0
8, 325680, Note_on_c, 6, 45, 96
8, 325740, Note_on_c, 6, 45, 0
8, 325740, Note_on_c, 6, 47, 96
8, 325800, Note_on_c, 6, 47, 0
8, 325800, Note_on_c, 6, 45, 96
8, 325860, Note_on_c, 6, 45, 0
8, 325860, Note_on_c, 6, 47, 96
8, 325920, Note_on_c, 6, 47, 0
8, 325920, Note_on_c, 6, 45, 96
8, 325980, Note_on_c, 6, 45, 0
8, 325980, Note_on_c, 6, 47, 96
8, 326040, Note_on_c, 6, 47, 0
8, 326040, Note_on_c, 6, 45, 96
8, 326100, Note_on_c, 6, 45, 0
8, 326100, Note_on_c, 6, 47, 96
8, 326160, Note_on_c, 6, 47, 0
8, 326160, Note_on_c, 6, 45, 96
8, 326220, Note_on_c, 6, 45, 0
8, 326220, Note_on_c, 6, 47, 96
8, 326280, Note_on_c, 6, 47, 0
8, 326280, Note_on_c, 6, 45, 96
8, 326340, Note_on_c, 6, 45, 0
8, 326340, Note_on_c, 6, 47, 96
8, 326400, Note_on_c, 6, 47, 0
8, 326400, Note_on_c, 6, 45, 96
8, 326780, Note_on_c, 6, 45, 0
8, 332160, Note_on_c, 6, 50, 96
8, 332220, Note_on_c, 6, 50, 0
8, 332220, Note_on_c, 6, 52, 96
8, 332280, Note_on_c, 6, 52, 0
8, 332280, Note_on_c, 6, 50, 96
8, 332340, Note_on_c, 6, 50, 0
8, 332340, Note_on_c, 6, 52, 96
8, 332400, Note_on_c, 6, 52, 0
8, 332400, Note_on_c, 6, 50, 96
8, 332460, Note_on_c, 6, 50, 0
8, 332460, Note_on_c, 6, 52, 96
8, 332520, Note_on_c, 6, 52, 0
8, 332520, Note_on_c, 6, 50, 96
8, 332580, Note_on_c, 6, 50, 0
8, 332580, Note_on_c, 6, 52, 96
8, 332640, Note_on_c, 6, 52, 0
8, 332640, Note_on_c, 6, 50, 96
8, 332700, Note_on_c, 6, 50, 0
8, 332700, Note_on_c, 6, 52, 96
8, 332760, Note_on_c, 6, 52, 0
8, 332760, Note_on_c, 6, 50, 96
8, 332820, Note_on_c, 6, 50, 0
8, 332820, Note_on_c, 6, 52, 96
8, 332880, Note_on_c, 6, 52, 0
8, 332880, Note_on_c, 6, 50, 96
8, 332940, Note_on_c, 6, 50, 0
8, 332940, Note_on_c, 6, 52, 96
8, 333000, Note_on_c, 6, 52, 0
8, 333000, Note_on_c, 6, 50, 96
8, 333060, Note_on_c, 6, 50, 0
8, 333060, Note_on_c, 6, 52, 96
8, 333120, Note_on_c, 6, 52, 0
8, 333120, Note_on_c, 6, 50, 96
8, 333180, Note_on_c, 6, 50, 0
8, 333180, Note_on_c, 6, 52, 96
8, 333240, Note_on_c, 6, 52, 0
8, 333240, Note_on_c, 6, 50, 96
8, 333300, Note_on_c, 6, 50, 0
8, 333300, Note_on_c, 6, 52, 96
8, 333360, Note_on_c, 6, 52, 0
8, 333360, Note_on_c, 6, 50, 96
8, 333420, Note_on_c, 6, 50, 0
8, 333420, Note_on_c, 6, 52, 96
8, 333480, Note_on_c, 6, 52, 0
8, 333480, Note_on_c, 6, 50, 96
8, 333540, Note_on_c, 6, 50, 0
8, 333540, Note_on_c, 6, 52, 96
8, 333600, Note_on_c, 6, 52, 0
8, 333600, Note_on_c, 6, 50, 96
8, 333660, Note_on_c, 6, 50, 0
8, 333660, Note_on_c, 6, 52, 96
8, 333720, Note_on_c, 6, 52, 0
8, 333720, Note_on_c, 6, 50, 96
8, 333780, Note_on_c, 6, 50, 0
8, 333780, Note_on_c, 6, 52, 96
8, 333840, Note_on_c, 6, 52, 0
8, 333840, Note_on_c, 6, 50, 96
8, 333900, Note_on_c, 6, 50, 0
8, 333900, Note_on_c, 6, 52, 96
8, 333960, Note_on_c, 6, 52, 0
8, 333960, Note_on_c, 6, 50, 96
8, 334020, Note_on_c, 6, 50, 0
8, 334020, Note_on_c, 6, 52, 96
8, 334080, Note_on_c, 6, 52, 0
8, 334080, Note_on_c, 6, 50, 96
8, 334460, Note_on_c, 6, 50, 0
8, 339840, Note_on_c, 6, 50, 96
8, 339900, Note_on_c, 6, 50, 0
8, 339900, Note_on_c, 6, 52, 96
8, 339960, Note_on_c, 6, 52, 0
8, 339960, Note_on_c, 6, 50, 96
8, 340020, Note_on_c, 6, 50, 0
8, 340020, Note_on_c, 6, 52, 96
8, 340080, Note_on_c, 6, 52, 0
8, 340080, Note_on_c, 6, 50, 96
8, 340140, Note_on_c, 6, 50, 0
8, 340140, Note_on_c, 6, 52, 96
8, 340200, Note_on_c, 6, 52, 0
8, 340200, Note_on_c, 6, 50, 96
8, 340260, Note_on_c, 6, 50, 0
8, 340260, Note_on_c, 6, 52, 96
8, 340320, Note_on_c, 6, 52, 0
8, 340320, Note_on_c, 6, 50, 96
8, 340380, Note_on_c, 6, 50, 0
8, 340380, Note_on_c, 6, 52, 96
8, 340440, Note_on_c, 6, 52, 0
8, 340440, Note_on_c, 6, 50, 96
8, 340500, Note_on_c, 6, 50, 0
8, 340500, Note_on_c, 6, 52, 96
8, 340560, Note_on_c, 6, 52, 0
8, 340560, Note_on_c, 6, 50, 96
8, 340620, Note_on_c, 6, 50, 0
8, 340620, Note_on_c, 6, 52, 96
8, 340680, Note_on_c, 6, 52, 0
8, 340680, Note_on_c, 6, 50, 96
8, 340740, Note_on_c, 6, 50, 0
8, 340740, Note_on_c, 6, 52, 96
8, 340800, Note_on_c, 6, 52, 0
8, 340800, Note_on_c, 6, 50, 96
8, 340860, Note_on_c, 6, 50, 0
8, 340860, Note_on_c, 6, 52, 96
8, 340920, Note_on_c, 6, 52, 0
8, 340920, Note_on_c, 6, 50, 96
8, 340980, Note_on_c, 6, 50, 0
8, 340980, Note_on_c, 6, 52, 96
8, 341040, Note_on_c, 6, 52, 0
8, 341040, Note_on_c, 6, 50, 96
8, 341100, Note_on_c, 6, 50, 0
8, 341100, Note_on_c, 6, 52, 96
8, 341160, Note_on_c, 6, 52, 0
8, 341160, Note_on_c, 6, 50, 96
8, 341220, Note_on_c, 6, 50, 0
8, 341220, Note_on_c, 6, 52, 96
8, 341280, Note_on_c, 6, 52, 0
8, 341280, Note_on_c, 6, 50, 96
8, 341340, Note_on_c, 6, 50, 0
8, 341340, Note_on_c, 6, 52, 96
8, 341400, Note_on_c, 6, 52, 0
8, 341400, Note_on_c, 6, 50, 96
8, 341460, Note_on_c, 6, 50, 0
8, 341460, Note_on_c, 6, 52, 96
8, 341520, Note_on_c, 6, 52, 0
8, 341520, Note_on_c, 6, 50, 96
8, 341580, Note_on_c, 6, 50, 0
8, 341580, Note_on_c, 6, 52, 96
8, 341640, Note_on_c, 6, 52, 0
8, 341640, Note_on_c, 6, 50, 96
8, 341700, Note_on_c, 6, 50, 0
8, 341700, Note_on_c, 6, 52, 96
8, 341760, Note_on_c, 6, 52, 0
8, 341760, Note_on_c, 6, 50, 96
8, 342140, Note_on_c, 6, 50, 0
8, 355200, Note_on_c, 6, 45, 96
8, 355960, Note_on_c, 6, 45, 0
8, 357120, Note_on_c, 6, 45, 96
8, 357880, Note_on_c, 6, 45, 0
8, 359040, Note_on_c, 6, 45, 96
8, 359800, Note_on_c, 6, 45, 0
8, 360960, Note_on_c, 6, 45, 96
8, 361720, Note_on_c, 6, 45, 0
8, 362880, Note_on_c, 6, 45, 96
8, 363640, Note_on_c, 6, 45, 0
8, 363840, Note_on_c, 6, 45, 96
8, 364410, Note_on_c, 6, 45, 0
8, 364560, Note_on_c, 6, 45, 96
8, 364750, Note_on_c, 6, 45, 0
8, 364800, Note_on_c, 6, 45, 96
8, 365180, Note_on_c, 6, 45, 0
8, 365280, Note_on_c, 6, 45, 96
8, 365660, Note_on_c, 6, 45, 0
8, 365760, Note_on_c, 6, 45, 96
8, 366140, Note_on_c, 6, 45, 0
8, 366240, Note_on_c, 6, 45, 96
8, 366620, Note_on_c, 6, 45, 0
8, 366720, Note_on_c, 6, 45, 96
8, 367100, Note_on_c, 6, 45, 0
8, 382080, Note_on_c, 6, 50, 96
8, 382460, Note_on_c, 6, 50, 0
8, 383040, Note_on_c, 6, 45, 96
8, 383420, Note_on_c, 6, 45, 0
8, 384000, Note_on_c, 6, 50, 96
8, 384380, Note_on_c, 6, 50, 0
8, 384960, Note_on_c, 6, 45, 96
8, 385340, Note_on_c, 6, 45, 0
8, 401280, Note_on_c, 6, 50, 96
8, 401660, Note_on_c, 6, 50, 0
8, 402720, Note_on_c, 6, 45, 96
8, 403100, Note_on_c, 6, 45, 0
8, 403200, Note_on_c, 6, 50, 96
8, 403580, Note_on_c, 6, 50, 0
8, 404640, Note_on_c, 6, 45, 96
8, 405020, Note_on_c, 6, 45, 0
8, 405120, Note_on_c, 6, 50, 96
8, 405500, Note_on_c, 6, 50, 0
8, 406080, Note_on_c, 6, 50, 96
8, 406460, Note_on_c, 6, 50, 0
8, 407040, Note_on_c, 6, 50, 96
8, 407420, Note_on_c, 6, 50, 0
8, 407520, Note_on_c, 6, 50, 96
8, 407710, Note_on_c, 6, 50, 0
8, 407760, Note_on_c, 6, 50, 96
8, 407950, Note_on_c, 6, 50, 0
8, 408000, Note_on_c, 6, 50, 96
8, 408380, Note_on_c, 6, 50, 0
8, 408960, Note_on_c, 6, 45, 96
8, 409720, Note_on_c, 6, 45, 0
8, 410400, Note_on_c, 6, 45, 96
8, 410590, Note_on_c, 6, 45, 0
8, 410640, Note_on_c, 6, 45, 96
8, 410830, Note_on_c, 6, 45, 0
8, 410880, Note_on_c, 6, 45, 96
8, 411640, Note_on_c, 6, 45, 0
8, 412320, Note_on_c, 6, 45, 96
8, 412510, Note_on_c, 6, 45, 0
8, 412560, Note_on_c, 6, 45, 96
8, 412750, Note_on_c, 6, 45, 0
8, 412800, Note_on_c, 6, 45, 96
8, 413180, Note_on_c, 6, 45, 0
8, 413280, Note_on_c, 6, 45, 96
8, 413660, Note_on_c, 6, 45, 0
8, 413760, Note_on_c, 6, 45, 96
8, 414140, Note_on_c, 6, 45, 0
8, 414240, Note_on_c, 6, 45, 96
8, 414620, Note_on_c, 6, 45, 0
8, 414720, Note_on_c, 6, 45, 96
8, 415100, Note_on_c, 6, 45, 0
8, 415200, Note_on_c, 6, 45, 96
8, 415580, Note_on_c, 6, 45, 0
8, 415680, Note_on_c, 6, 45, 96
8, 416060, Note_on_c, 6, 45, 0
8, 416640, Note_on_c, 6, 50, 96
8, 416700, Note_on_c, 6, 50, 0
8, 416700, Note_on_c, 6, 52, 96
8, 416760, Note_on_c, 6, 52, 0
8, 416760, Note_on_c, 6, 50, 96
8, 416820, Note_on_c, 6, 50, 0
8, 416820, Note_on_c, 6, 52, 96
8, 416880, Note_on_c, 6, 52, 0
8, 416880, Note_on_c, 6, 50, 96
8, 416940, Note_on_c, 6, 50, 0
8, 416940, Note_on_c, 6, 52, 96
8, 417000, Note_on_c, 6, 52, 0
8, 417000, Note_on_c, 6, 50, 96
8, 417060, Note_on_c, 6, 50, 0
8, 417060, Note_on_c, 6, 52, 96
8, 417120, Note_on_c, 6, 52, 0
8, 417120, Note_on_c, 6, 50, 96
8, 417180, Note_on_c, 6, 50, 0
8, 417180, Note_on_c, 6, 52, 96
8, 417240, Note_on_c, 6, 52, 0
8, 417240, Note_on_c, 6, 50, 96
8, 417300, Note_on_c, 6, 50, 0
8, 417300, Note_on_c, 6, 52, 96
8, 417360, Note_on_c, 6, 52, 0
8, 417360, Note_on_c, 6, 50, 96
8, 417420, Note_on_c, 6, 50, 0
8, 417420, Note_on_c, 6, 52, 96
8, 417480, Note_on_c, 6, 52, 0
8, 417480, Note_on_c, 6, 50, 96
8, 417540, Note_on_c, 6, 50, 0
8, 417540, Note_on_c, 6, 52, 96
8, 417600, Note_on_c, 6, 52, 0
8, 417600, Note_on_c, 6, 50, 96
8, 417660, Note_on_c, 6, 50, 0
8, 417660, Note_on_c, 6, 52, 96
8, 417720, Note_on_c, 6, 52, 0
8, 417720, Note_on_c, 6, 50, 96
8, 417780, Note_on_c, 6, 50, 0
8, 417780, Note_on_c, 6, 52, 96
8, 417840, Note_on_c, 6, 52, 0
8, 417840, Note_on_c, 6, 50, 96
8, 417900, Note_on_c, 6, 50, 0
8, 417900, Note_on_c, 6, 52, 96
8, 417960, Note_on_c, 6, 52, 0
8, 417960, Note_on_c, 6, 50, 96
8, 418020, Note_on_c, 6, 50, 0
8, 418020, Note_on_c, 6, 52, 96
8, 418080, Note_on_c, 6, 52, 0
8, 420480, Note_on_c, 6, 50, 96
8, 420540, Note_on_c, 6, 50, 0
8, 420540, Note_on_c, 6, 52, 96
8, 420600, Note_on_c, 6, 52, 0
8, 420600, Note_on_c, 6, 50, 96
8, 420660, Note_on_c, 6, 50, 0
8, 420660, Note_on_c, 6, 52, 96
8, 420720, Note_on_c, 6, 52, 0
8, 420720, Note_on_c, 6, 50, 96
8, 420780, Note_on_c, 6, 50, 0
8, 420780, Note_on_c, 6, 52, 96
8, 420840, Note_on_c, 6, 52, 0
8, 420840, Note_on_c, 6, 50, 96
8, 420900, Note_on_c, 6, 50, 0
8, 420900, Note_on_c, 6, 52, 96
8, 420960, Note_on_c, 6, 52, 0
8, 420960, Note_on_c, 6, 50, 96
8, 421020, Note_on_c, 6, 50, 0
8, 421020, Note_on_c, 6, 52, 96
8, 421080, Note_on_c, 6, 52, 0
8, 421080, Note_on_c, 6, 50, 96
8, 421140, Note_on_c, 6, 50, 0
8, 421140, Note_on_c, 6, 52, 96
8, 421200, Note_on_c, 6, 52, 0
8, 421200, Note_on_c, 6, 50, 96
8, 421260, Note_on_c, 6, 50, 0
8, 421260, Note_on_c, 6, 52, 96
8, 421320, Note_on_c, 6, 52, 0
8, 421320, Note_on_c, 6, 50, 96
8, 421380, Note_on_c, 6, 50, 0
8, 421380, Note_on_c, 6, 52, 96
8, 421440, Note_on_c, 6, 52, 0
8, 421440, Note_on_c, 6, 50, 96
8, 421500, Note_on_c, 6, 50, 0
8, 421500, Note_on_c, 6, 52, 96
8, 421560, Note_on_c, 6, 52, 0
8, 421560, Note_on_c, 6, 50, 96
8, 421620, Note_on_c, 6, 50, 0
8, 421620, Note_on_c, 6, 52, 96
8, 421680, Note_on_c, 6, 52, 0
8, 421680, Note_on_c, 6, 50, 96
8, 421740, Note_on_c, 6, 50, 0
8, 421740, Note_on_c, 6, 52, 96
8, 421800, Note_on_c, 6, 52, 0
8, 421800, Note_on_c, 6, 50, 96
8, 421860, Note_on_c, 6, 50, 0
8, 421860, Note_on_c, 6, 52, 96
8, 421920, Note_on_c, 6, 52, 0
8, 424320, Note_on_c, 6, 45, 96
8, 424380, Note_on_c, 6, 45, 0
8, 424380, Note_on_c, 6, 47, 96
8, 424440, Note_on_c, 6, 47, 0
8, 424440, Note_on_c, 6, 45, 96
8, 424500, Note_on_c, 6, 45, 0
8, 424500, Note_on_c, 6, 47, 96
8, 424560, Note_on_c, 6, 47, 0
8, 424560, Note_on_c, 6, 45, 96
8, 424620, Note_on_c, 6, 45, 0
8, 424620, Note_on_c, 6, 47, 96
8, 424680, Note_on_c, 6, 47, 0
8, 424680, Note_on_c, 6, 45, 96
8, 424740, Note_on_c, 6, 45, 0
8, 424740, Note_on_c, 6, 47, 96
8, 424800, Note_on_c, 6, 47, 0
8, 424800, Note_on_c, 6, 45, 96
8, 424860, Note_on_c, 6, 45, 0
8, 424860, Note_on_c, 6, 47, 96
8, 424920, Note_on_c, 6, 47, 0
8, 424920, Note_on_c, 6, 45, 96
8, 424980, Note_on_c, 6, 45, 0
8, 424980, Note_on_c, 6, 47, 96
8, 425040, Note_on_c, 6, 47, 0
8, 425040, Note_on_c, 6, 45, 96
8, 425100, Note_on_c, 6, 45, 0
8, 425100, Note_on_c, 6, 47, 96
8, 425160, Note_on_c, 6, 47, 0
8, 425160, Note_on_c, 6, 45, 96
8, 425220, Note_on_c, 6, 45, 0
8, 425220, Note_on_c, 6, 47, 96
8, 425280, Note_on_c, 6, 47, 0
8, 425280, Note_on_c, 6, 45, 96
8, 425340, Note_on_c, 6, 45, 0
8, 425340, Note_on_c, 6, 47, 96
8, 425400, Note_on_c, 6, 47, 0
8, 425400, Note_on_c, 6, 45, 96
8, 425460, Note_on_c, 6, 45, 0
8, 425460, Note_on_c, 6, 47, 96
8, 425520, Note_on_c, 6, 47, 0
8, 425520, Note_on_c, 6, 45, 96
8, 425580, Note_on_c, 6, 45, 0
8, 425580, Note_on_c, 6, 47, 96
8, 425640, Note_on_c, 6, 47, 0
8, 425640, Note_on_c, 6, 45, 96
8, 425700, Note_on_c, 6, 45, 0
8, 425700, Note_on_c, 6, 47, 96
8, 425760, Note_on_c, 6, 47, 0
8, 439680, Note_on_c, 6, 50, 96
8, 440440, Note_on_c, 6, 50, 0
8, 443520, Note_on_c, 6, 50, 96
8, 444280, Note_on_c, 6, 50, 0
8, 447360, Note_on_c, 6, 50, 96
8, 448120, Note_on_c, 6, 50, 0
8, 448320, Note_on_c, 6, 50, 96
8, 448890, Note_on_c, 6, 50, 0
8, 449040, Note_on_c, 6, 50, 96
8, 449230, Note_on_c, 6, 50, 0
8, 449280, Note_on_c, 6, 45, 96
8, 449660, Note_on_c, 6, 45, 0
8, 449760, Note_on_c, 6, 45, 96
8, 450140, Note_on_c, 6, 45, 0
8, 450240, Note_on_c, 6, 45, 96
8, 450620, Note_on_c, 6, 45, 0
8, 450720, Note_on_c, 6, 45, 96
8, 451100, Note_on_c, 6, 45, 0
8, 451200, Note_on_c, 6, 45, 96
8, 451580, Note_on_c, 6, 45, 0
8, 451680, Note_on_c, 6, 45, 96
8, 452060, Note_on_c, 6, 45, 0
8, 452160, Note_on_c, 6, 45, 96
8, 452540, Note_on_c, 6, 45, 0
8, 452640, Note_on_c, 6, 45, 96
8, 453020, Note_on_c, 6, 45, 0
8, 453120, Note_on_c, 6, 45, 96
8, 453500, Note_on_c, 6, 45, 0
8, 454080, Note_on_c, 6, 45, 96
8, 454460, Note_on_c, 6, 45, 0
8, 454560, Note_on_c, 6, 45, 96
8, 454940, Note_on_c, 6, 45, 0
8, 455040, Note_on_c, 6, 45, 96
8, 455800, Note_on_c, 6, 45, 0
8, 456960, Note_on_c, 6, 45, 96
8, 457720, Note_on_c, 6, 45, 0
8, 464640, Note_on_c, 6, 45, 96
8, 465400, Note_on_c, 6, 45, 0
8, 499200, Note_on_c, 6, 50, 96
8, 499960, Note_on_c, 6, 50, 0
8, 500640, Note_on_c, 6, 50, 96
8, 500830, Note_on_c, 6, 50, 0
8, 500880, Note_on_c, 6, 50, 96
8, 501070, Note_on_c, 6, 50, 0
8, 501120, Note_on_c, 6, 50, 96
8, 501880, Note_on_c, 6, 50, 0
8, 502560, Note_on_c, 6, 50, 96
8, 502750, Note_on_c, 6, 50, 0
8, 502800, Note_on_c, 6, 50, 96
8, 502990, Note_on_c, 6, 50, 0
8, 503040, Note_on_c, 6, 50, 96
8, 503800, Note_on_c, 6, 50, 0
8, 504000, Note_on_c, 6, 50, 96
8, 504570, Note_on_c, 6, 50, 0
8, 504720, Note_on_c, 6, 50, 96
8, 504910, Note_on_c, 6, 50, 0
8, 504960, Note_on_c, 6, 50, 96
8, 505340, Note_on_c, 6, 50, 0
8, 505440, Note_on_c, 6, 50, 96
8, 505820, Note_on_c, 6, 50, 0
8, 505920, Note_on_c, 6, 50, 96
8, 506300, Note_on_c, 6, 50, 0
8, 506400, Note_on_c, 6, 50, 96
8, 506780, Note_on_c, 6, 50, 0
8, 506880, Note_on_c, 6, 45, 96
8, 506940, Note_on_c, 6, 45, 0
8, 506940, Note_on_c, 6, 47, 96
8, 507000, Note_on_c, 6, 47, 0
8, 507000, Note_on_c, 6, 45, 96
8, 507060, Note_on_c, 6, 45, 0
8, 507060, Note_on_c, 6, 47, 96
8, 507120, Note_on_c, 6, 47, 0
8, 507120, Note_on_c, 6, 45, 96
8, 507180, Note_on_c, 6, 45, 0
8, 507180, Note_on_c, 6, 47, 96
8, 507240, Note_on_c, 6, 47, 0
8, 507240, Note_on_c, 6, 45, 96
8, 507300, Note_on_c, 6, 45, 0
8, 507300, Note_on_c, 6, 47, 96
8, 507360, Note_on_c, 6, 47, 0
8, 507360, Note_on_c, 6, 45, 96
8, 507420, Note_on_c, 6, 45, 0
8, 507420, Note_on_c, 6, 47, 96
8, 507480, Note_on_c, 6, 47, 0
8, 507480, Note_on_c, 6, 45, 96
8, 507540, Note_on_c, 6, 45, 0
8, 507540, Note_on_c, 6, 47, 96
8, 507600, Note_on_c, 6, 47, 0
8, 507600, Note_on_c, 6, 45, 96
8, 507660, Note_on_c, 6, 45, 0
8, 507660, Note_on_c, 6, 47, 96
8, 507720, Note_on_c, 6, 47, 0
8, 507720, Note_on_c, 6, 45, 96
8, 507780, Note_on_c, 6, 45, 0
8, 507780, Note_on_c, 6, 47, 96
8, 507840, Note_on_c, 6, 47, 0
8, 507840, Note_on_c, 6, 45, 96
8, 507900, Note_on_c, 6, 45, 0
8, 507900, Note_on_c, 6, 47, 96
8, 507960, Note_on_c, 6, 47, 0
8, 507960, Note_on_c, 6, 45, 96
8, 508020, Note_on_c, 6, 45, 0
8, 508020, Note_on_c, 6, 47, 96
8, 508080, Note_on_c, 6, 47, 0
8, 508080, Note_on_c, 6, 45, 96
8, 508140, Note_on_c, 6, 45, 0
8, 508140, Note_on_c, 6, 47, 96
8, 508200, Note_on_c, 6, 47, 0
8, 508200, Note_on_c, 6, 45, 96
8, 508260, Note_on_c, 6, 45, 0
8, 508260, Note_on_c, 6, 47, 96
8, 508320, Note_on_c, 6, 47, 0
8, 508320, Note_on_c, 6, 45, 96
8, 508380, Note_on_c, 6, 45, 0
8, 508380, Note_on_c, 6, 47, 96
8, 508440, Note_on_c, 6, 47, 0
8, 508440, Note_on_c, 6, 45, 96
8, 508500, Note_on_c, 6, 45, 0
8, 508500, Note_on_c, 6, 47, 96
8, 508560, Note_on_c, 6, 47, 0
8, 508560, Note_on_c, 6, 45, 96
8, 508620, Note_on_c, 6, 45, 0
8, 508620, Note_on_c, 6, 47, 96
8, 508680, Note_on_c, 6, 47, 0
8, 508680, Note_on_c, 6, 45, 96
8, 508740, Note_on_c, 6, 47, 96
8, 508800, Note_on_c, 6, 47, 0
8, 510330, Note_on_c, 6, 45, 0
8, 510720, Note_on_c, 6, 50, 96
8, 511480, Note_on_c, 6, 50, 0
8, 512160, Note_on_c, 6, 50, 96
8, 512350, Note_on_c, 6, 50, 0
8, 512400, Note_on_c, 6, 50, 96
8, 512590, Note_on_c, 6, 50, 0
8, 512640, Note_on_c, 6, 50, 96
8, 513400, Note_on_c, 6, 50, 0
8, 514080, Note_on_c, 6, 50, 96
8, 514270, Note_on_c, 6, 50, 0
8, 514320, Note_on_c, 6, 50, 96
8, 514510, Note_on_c, 6, 50, 0
8, 514560, Note_on_c, 6, 50, 96
8, 515320, Note_on_c, 6, 50, 0
8, 515520, Note_on_c, 6, 50, 96
8, 516090, Note_on_c, 6, 50, 0
8, 516240, Note_on_c, 6, 50, 96
8, 516430, Note_on_c, 6, 50, 0
8, 516480, Note_on_c, 6, 50, 96
8, 516860, Note_on_c, 6, 50, 0
8, 516960, Note_on_c, 6, 50, 96
8, 517340, Note_on_c, 6, 50, 0
8, 517440, Note_on_c, 6, 50, 96
8, 517820, Note_on_c, 6, 50, 0
8, 517920, Note_on_c, 6, 50, 96
8, 518300, Note_on_c, 6, 50, 0
8, 518400, Note_on_c, 6, 45, 96
8, 518460, Note_on_c, 6, 45, 0
8, 518460, Note_on_c, 6, 47, 96
8, 518520, Note_on_c, 6, 47, 0
8, 518520, Note_on_c, 6, 45, 96
8, 518580, Note_on_c, 6, 45, 0
8, 518580, Note_on_c, 6, 47, 96
8, 518640, Note_on_c, 6, 47, 0
8, 518640, Note_on_c, 6, 45, 96
8, 518700, Note_on_c, 6, 45, 0
8, 518700, Note_on_c, 6, 47, 96
8, 518760, Note_on_c, 6, 47, 0
8, 518760, Note_on_c, 6, 45, 96
8, 518820, Note_on_c, 6, 45, 0
8, 518820, Note_on_c, 6, 47, 96
8, 518880, Note_on_c, 6, 47, 0
8, 518880, Note_on_c, 6, 45, 96
8, 518940, Note_on_c, 6, 45, 0
8, 518940, Note_on_c, 6, 47, 96
8, 519000, Note_on_c, 6, 47, 0
8, 519000, Note_on_c, 6, 45, 96
8, 519060, Note_on_c, 6, 45, 0
8, 519060, Note_on_c, 6, 47, 96
8, 519120, Note_on_c, 6, 47, 0
8, 519120, Note_on_c, 6, 45, 96
8, 519180, Note_on_c, 6, 45, 0
8, 519180, Note_on_c, 6, 47, 96
8, 519240, Note_on_c, 6, 47, 0
8, 519240, Note_on_c, 6, 45, 96
8, 519300, Note_on_c, 6, 45, 0
8, 519300, Note_on_c, 6, 47, 96
8, 519360, Note_on_c, 6, 47, 0
8, 519360, Note_on_c, 6, 45, 96
8, 519420, Note_on_c, 6, 45, 0
8, 519420, Note_on_c, 6, 47, 96
8, 519480, Note_on_c, 6, 47, 0
8, 519480, Note_on_c, 6, 45, 96
8, 519540, Note_on_c, 6, 45, 0
8, 519540, Note_on_c, 6, 47, 96
8, 519600, Note_on_c, 6, 47, 0
8, 519600, Note_on_c, 6, 45, 96
8, 519660, Note_on_c, 6, 45, 0
8, 519660, Note_on_c, 6, 47, 96
8, 519720, Note_on_c, 6, 47, 0
8, 519720, Note_on_c, 6, 45, 96
8, 519780, Note_on_c, 6, 45, 0
8, 519780, Note_on_c, 6, 47, 96
8, 519840, Note_on_c, 6, 47, 0
8, 519840, Note_on_c, 6, 45, 96
8, 519900, Note_on_c, 6, 45, 0
8, 519900, Note_on_c, 6, 47, 96
8, 519960, Note_on_c, 6, 47, 0
8, 519960, Note_on_c, 6, 45, 96
8, 520020, Note_on_c, 6, 45, 0
8, 520020, Note_on_c, 6, 47, 96
8, 520080, Note_on_c, 6, 47, 0
8, 520080, Note_on_c, 6, 45, 96
8, 520140, Note_on_c, 6, 45, 0
8, 520140, Note_on_c, 6, 47, 96
8, 520200, Note_on_c, 6, 47, 0
8, 520200, Note_on_c, 6, 45, 96
8, 520260, Note_on_c, 6, 47, 96
8, 520320, Note_on_c, 6, 47, 0
8, 521850, Note_on_c, 6, 45, 0
8, 522240, Note_on_c, 6, 50, 96
8, 523000, Note_on_c, 6, 50, 0
8, 523680, Note_on_c, 6, 45, 96
8, 524060, Note_on_c, 6, 45, 0
8, 524160, Note_on_c, 6, 50, 96
8, 524920, Note_on_c, 6, 50, 0
8, 525600, Note_on_c, 6, 45, 96
8, 525980, Note_on_c, 6, 45, 0
8, 526080, Note_on_c, 6, 50, 96
8, 526840, Note_on_c, 6, 50, 0
8, 527520, Note_on_c, 6, 45, 96
8, 527900, Note_on_c, 6, 45, 0
8, 528000, Note_on_c, 6, 50, 96
8, 528760, Note_on_c, 6, 50, 0
8, 529440, Note_on_c, 6, 45, 96
8, 529820, Note_on_c, 6, 45, 0
8, 529920, Note_on_c, 6, 50, 96
8, 530300, Note_on_c, 6, 50, 0
8, 530880, Note_on_c, 6, 50, 96
8, 531260, Note_on_c, 6, 50, 0
8, 531840, Note_on_c, 6, 50, 96
8, 532220, Note_on_c, 6, 50, 0
8, 532320, Note_on_c, 6, 50, 96
8, 532700, Note_on_c, 6, 50, 0
8, 532800, Note_on_c, 6, 50, 96
8, 533180, Note_on_c, 6, 50, 0
8, 533280, Note_on_c, 6, 50, 96
8, 533660, Note_on_c, 6, 50, 0
8, 533760, Note_on_c, 6, 50, 96
8, 533820, Note_on_c, 6, 50, 0
8, 533820, Note_on_c, 6, 52, 96
8, 533880, Note_on_c, 6, 52, 0
8, 533880, Note_on_c, 6, 50, 96
8, 533940, Note_on_c, 6, 50, 0
8, 533940, Note_on_c, 6, 52, 96
8, 534000, Note_on_c, 6, 52, 0
8, 534000, Note_on_c, 6, 50, 96
8, 534060, Note_on_c, 6, 50, 0
8, 534060, Note_on_c, 6, 52, 96
8, 534120, Note_on_c, 6, 52, 0
8, 534120, Note_on_c, 6, 50, 96
8, 534180, Note_on_c, 6, 50, 0
8, 534180, Note_on_c, 6, 52, 96
8, 534240, Note_on_c, 6, 52, 0
8, 534240, Note_on_c, 6, 50, 96
8, 534300, Note_on_c, 6, 50, 0
8, 534300, Note_on_c, 6, 52, 96
8, 534360, Note_on_c, 6, 52, 0
8, 534360, Note_on_c, 6, 50, 96
8, 534420, Note_on_c, 6, 50, 0
8, 534420, Note_on_c, 6, 52, 96
8, 534480, Note_on_c, 6, 52, 0
8, 534480, Note_on_c, 6, 50, 96
8, 534540, Note_on_c, 6, 50, 0
8, 534540, Note_on_c, 6, 52, 96
8, 534600, Note_on_c, 6, 52, 0
8, 534600, Note_on_c, 6, 50, 96
8, 534660, Note_on_c, 6, 50, 0
8, 534660, Note_on_c, 6, 52, 96
8, 534720, Note_on_c, 6, 52, 0
8, 534720, Note_on_c, 6, 50, 96
8, 534780, Note_on_c, 6, 50, 0
8, 534780, Note_on_c, 6, 52, 96
8, 534840, Note_on_c, 6, 52, 0
8, 534840, Note_on_c, 6, 50, 96
8, 534900, Note_on_c, 6, 50, 0
8, 534900, Note_on_c, 6, 52, 96
8, 534960, Note_on_c, 6, 52, 0
8, 534960, Note_on_c, 6, 50, 96
8, 535020, Note_on_c, 6, 50, 0
8, 535020, Note_on_c, 6, 52, 96
8, 535080, Note_on_c, 6, 52, 0
8, 535080, Note_on_c, 6, 50, 96
8, 535140, Note_on_c, 6, 50, 0
8, 535140, Note_on_c, 6, 52, 96
8, 535200, Note_on_c, 6, 52, 0
8, 535200, Note_on_c, 6, 50, 96
8, 535260, Note_on_c, 6, 50, 0
8, 535260, Note_on_c, 6, 52, 96
8, 535320, Note_on_c, 6, 52, 0
8, 535320, Note_on_c, 6, 50, 96
8, 535380, Note_on_c, 6, 50, 0
8, 535380, Note_on_c, 6, 52, 96
8, 535440, Note_on_c, 6, 52, 0
8, 535440, Note_on_c, 6, 50, 96
8, 535500, Note_on_c, 6, 50, 0
8, 535500, Note_on_c, 6, 52, 96
8, 535560, Note_on_c, 6, 52, 0
8, 535560, Note_on_c, 6, 50, 96
8, 535620, Note_on_c, 6, 50, 0
8, 535620, Note_on_c, 6, 52, 96
8, 535680, Note_on_c, 6, 52, 0
8, 535680, Note_on_c, 6, 50, 96
8, 536060, Note_on_c, 6, 50, 0
8, 537600, Note_on_c, 6, 50, 96
8, 537660, Note_on_c, 6, 50, 0
8, 537660, Note_on_c, 6, 52, 96
8, 537720, Note_on_c, 6, 52, 0
8, 537720, Note_on_c, 6, 50, 96
8, 537780, Note_on_c, 6, 50, 0
8, 537780, Note_on_c, 6, 52, 96
8, 537840, Note_on_c, 6, 52, 0
8, 537840, Note_on_c, 6, 50, 96
8, 537900, Note_on_c, 6, 50, 0
8, 537900, Note_on_c, 6, 52, 96
8, 537960, Note_on_c, 6, 52, 0
8, 537960, Note_on_c, 6, 50, 96
8, 538020, Note_on_c, 6, 50, 0
8, 538020, Note_on_c, 6, 52, 96
8, 538080, Note_on_c, 6, 52, 0
8, 538080, Note_on_c, 6, 50, 96
8, 538140, Note_on_c, 6, 50, 0
8, 538140, Note_on_c, 6, 52, 96
8, 538200, Note_on_c, 6, 52, 0
8, 538200, Note_on_c, 6, 50, 96
8, 538260, Note_on_c, 6, 50, 0
8, 538260, Note_on_c, 6, 52, 96
8, 538320, Note_on_c, 6, 52, 0
8, 538320, Note_on_c, 6, 50, 96
8, 538380, Note_on_c, 6, 50, 0
8, 538380, Note_on_c, 6, 52, 96
8, 538440, Note_on_c, 6, 52, 0
8, 538440, Note_on_c, 6, 50, 96
8, 538500, Note_on_c, 6, 50, 0
8, 538500, Note_on_c, 6, 52, 96
8, 538560, Note_on_c, 6, 52, 0
8, 538560, Note_on_c, 6, 50, 96
8, 538620, Note_on_c, 6, 50, 0
8, 538620, Note_on_c, 6, 52, 96
8, 538680, Note_on_c, 6, 52, 0
8, 538680, Note_on_c, 6, 50, 96
8, 538740, Note_on_c, 6, 50, 0
8, 538740, Note_on_c, 6, 52, 96
8, 538800, Note_on_c, 6, 52, 0
8, 538800, Note_on_c, 6, 50, 96
8, 538860, Note_on_c, 6, 50, 0
8, 538860, Note_on_c, 6, 52, 96
8, 538920, Note_on_c, 6, 52, 0
8, 538920, Note_on_c, 6, 50, 96
8, 538980, Note_on_c, 6, 50, 0
8, 538980, Note_on_c, 6, 52, 96
8, 539040, Note_on_c, 6, 52, 0
8, 539040, Note_on_c, 6, 50, 96
8, 539100, Note_on_c, 6, 50, 0
8, 539100, Note_on_c, 6, 52, 96
8, 539160, Note_on_c, 6, 52, 0
8, 539160, Note_on_c, 6, 50, 96
8, 539220, Note_on_c, 6, 50, 0
8, 539220, Note_on_c, 6, 52, 96
8, 539280, Note_on_c, 6, 52, 0
8, 539280, Note_on_c, 6, 50, 96
8, 539340, Note_on_c, 6, 50, 0
8, 539340, Note_on_c, 6, 52, 96
8, 539400, Note_on_c, 6, 52, 0
8, 539400, Note_on_c, 6, 50, 96
8, 539460, Note_on_c, 6, 50, 0
8, 539460, Note_on_c, 6, 52, 96
8, 539520, Note_on_c, 6, 52, 0
8, 539520, Note_on_c, 6, 50, 96
8, 539900, Note_on_c, 6, 50, 0
8, 539900, End_track
9, 0, Start_track
9, 0, MIDI_port, 0
9, 0, Title_t, "Violino I                           "
9, 0, Program_c, 7, 48
9, 0, Control_c, 7, 7, 75
9, 0, Control_c, 7, 10, 20
9, 0, Control_c, 7, 121, 0
9, 360, Control_c, 7, 101, 0
9, 360, Control_c, 7, 100, 0
9, 360, Control_c, 7, 6, 12
9, 360, Control_c, 7, 38, 0
9, 480, Control_c, 7, 5, 0
9, 600, Control_c, 7, 65, 0
9, 720, Control_c, 7, 67, 0
9, 960, Pitch_bend_c, 7, 8192
9, 1080, Control_c, 7, 64, 0
9, 1200, Control_c, 7, 11, 127
9, 1320, Control_c, 7, 1, 0
9, 1560, Control_c, 7, 91, 100
9, 1680, Control_c, 7, 93, 50
9, 1920, Note_on_c, 7, 86, 96
9, 1920, Note_on_c, 7, 74, 96
9, 1920, Note_on_c, 7, 62, 96
9, 2300, Note_on_c, 7, 62, 0
9, 2300, Note_on_c, 7, 74, 0
9, 2300, Note_on_c, 7, 86, 0
9, 2400, Note_on_c, 7, 86, 96
9, 2400, Note_on_c, 7, 74, 96
9, 3160, Note_on_c, 7, 74, 0
9, 3160, Note_on_c, 7, 86, 0
9, 3360, Note_on_c, 7, 86, 96
9, 3360, Note_on_c, 7, 74, 96
9, 4220, Note_on_c, 7, 74, 0
9, 4220, Note_on_c, 7, 86, 0
9, 5760, Note_on_c, 7, 81, 96
9, 5760, Note_on_c, 7, 69, 96
9, 6140, Note_on_c, 7, 69, 0
9, 6140, Note_on_c, 7, 81, 0
9, 6240, Note_on_c, 7, 81, 96
9, 6240, Note_on_c, 7, 69, 96
9, 7000, Note_on_c, 7, 69, 0
9, 7000, Note_on_c, 7, 81, 0
9, 7200, Note_on_c, 7, 81, 96
9, 7200, Note_on_c, 7, 69, 96
9, 8060, Note_on_c, 7, 69, 0
9, 8060, Note_on_c, 7, 81, 0
9, 9600, Note_on_c, 7, 65, 64
9, 10170, Note_on_c, 7, 65, 0
9, 10320, Note_on_c, 7, 65, 64
9, 10510, Note_on_c, 7, 65, 0
9, 10560, Note_on_c, 7, 65, 64
9, 11130, Note_on_c, 7, 65, 0
9, 11280, Note_on_c, 7, 65, 64
9, 11470, Note_on_c, 7, 65, 0
9, 11520, Note_on_c, 7, 65, 64
9, 12090, Note_on_c, 7, 65, 0
9, 12240, Note_on_c, 7, 65, 64
9, 12430, Note_on_c, 7, 65, 0
9, 12480, Note_on_c, 7, 65, 64
9, 13050, Note_on_c, 7, 65, 0
9, 13200, Note_on_c, 7, 65, 64
9, 13390, Note_on_c, 7, 65, 0
9, 13440, Note_on_c, 7, 64, 64
9, 14010, Note_on_c, 7, 64, 0
9, 14160, Note_on_c, 7, 64, 64
9, 14350, Note_on_c, 7, 64, 0
9, 14400, Note_on_c, 7, 64, 64
9, 14970, Note_on_c, 7, 64, 0
9, 15120, Note_on_c, 7, 64, 64
9, 15310, Note_on_c, 7, 64, 0
9, 15360, Note_on_c, 7, 66, 64
9, 15930, Note_on_c, 7, 66, 0
9, 16080, Note_on_c, 7, 66, 64
9, 16270, Note_on_c, 7, 66, 0
9, 16320, Note_on_c, 7, 66, 64
9, 16890, Note_on_c, 7, 66, 0
9, 17040, Note_on_c, 7, 69, 64
9, 17230, Note_on_c, 7, 69, 0
9, 17280, Note_on_c, 7, 69, 64
9, 17850, Note_on_c, 7, 69, 0
9, 18000, Note_on_c, 7, 69, 64
9, 18190, Note_on_c, 7, 69, 0
9, 18240, Note_on_c, 7, 69, 64
9, 18810, Note_on_c, 7, 69, 0
9, 18960, Note_on_c, 7, 69, 64
9, 19150, Note_on_c, 7, 69, 0
9, 19200, Note_on_c, 7, 67, 64
9, 19770, Note_on_c, 7, 67, 0
9, 19920, Note_on_c, 7, 67, 64
9, 20110, Note_on_c, 7, 67, 0
9, 20160, Note_on_c, 7, 68, 64
9, 20730, Note_on_c, 7, 68, 0
9, 20880, Note_on_c, 7, 68, 64
9, 21070, Note_on_c, 7, 68, 0
9, 21120, Note_on_c, 7, 69, 64
9, 21310, Note_on_c, 7, 69, 0
9, 21360, Note_on_c, 7, 77, 64
9, 21840, Note_on_c, 7, 77, 0
9, 21840, Note_on_c, 7, 80, 64
9, 22320, Note_on_c, 7, 80, 0
9, 22320, Note_on_c, 7, 81, 64
9, 22800, Note_on_c, 7, 81, 0
9, 22800, Note_on_c, 7, 77, 64
9, 23280, Note_on_c, 7, 77, 0
9, 23280, Note_on_c, 7, 76, 64
9, 23760, Note_on_c, 7, 76, 0
9, 23760, Note_on_c, 7, 80, 64
9, 24240, Note_on_c, 7, 80, 0
9, 24240, Note_on_c, 7, 81, 64
9, 24720, Note_on_c, 7, 81, 0
9, 24720, Note_on_c, 7, 76, 64
9, 25200, Note_on_c, 7, 76, 0
9, 25200, Note_on_c, 7, 77, 64
9, 25680, Note_on_c, 7, 77, 0
9, 25680, Note_on_c, 7, 80, 64
9, 26160, Note_on_c, 7, 80, 0
9, 26160, Note_on_c, 7, 81, 64
9, 26640, Note_on_c, 7, 81, 0
9, 26640, Note_on_c, 7, 77, 64
9, 27120, Note_on_c, 7, 77, 0
9, 27120, Note_on_c, 7, 76, 64
9, 27600, Note_on_c, 7, 76, 0
9, 27600, Note_on_c, 7, 80, 64
9, 28080, Note_on_c, 7, 80, 0
9, 28080, Note_on_c, 7, 81, 64
9, 28560, Note_on_c, 7, 81, 0
9, 28560, Note_on_c, 7, 76, 64
9, 28800, Note_on_c, 7, 76, 0
9, 28800, Note_on_c, 7, 77, 64
9, 28990, Note_on_c, 7, 77, 0
9, 29280, Note_on_c, 7, 86, 101
9, 29280, Note_on_c, 7, 74, 101
9, 29520, Note_on_c, 7, 74, 0
9, 29640, Note_on_c, 7, 86, 0
9, 29640, Note_on_c, 7, 84, 64
9, 29680, Note_on_c, 7, 84, 0
9, 29680, Note_on_c, 7, 82, 64
9, 29720, Note_on_c, 7, 82, 0
9, 29720, Note_on_c, 7, 81, 64
9, 29760, Note_on_c, 7, 81, 0
9, 29760, Note_on_c, 7, 82, 64
9, 30000, Note_on_c, 7, 82, 0
9, 30240, Note_on_c, 7, 86, 101
9, 30240, Note_on_c, 7, 74, 101
9, 30480, Note_on_c, 7, 74, 0
9, 30600, Note_on_c, 7, 86, 0
9, 30600, Note_on_c, 7, 84, 64
9, 30640, Note_on_c, 7, 84, 0
9, 30640, Note_on_c, 7, 82, 64
9, 30680, Note_on_c, 7, 82, 0
9, 30680, Note_on_c, 7, 81, 64
9, 30720, Note_on_c, 7, 81, 0
9, 30720, Note_on_c, 7, 82, 64
9, 30910, Note_on_c, 7, 82, 0
9, 31200, Note_on_c, 7, 86, 101
9, 31200, Note_on_c, 7, 74, 101
9, 31440, Note_on_c, 7, 74, 0
9, 31560, Note_on_c, 7, 86, 0
9, 31560, Note_on_c, 7, 84, 64
9, 31600, Note_on_c, 7, 84, 0
9, 31600, Note_on_c, 7, 82, 64
9, 31640, Note_on_c, 7, 82, 0
9, 31640, Note_on_c, 7, 81, 64
9, 31680, Note_on_c, 7, 81, 0
9, 31680, Note_on_c, 7, 82, 64
9, 31870, Note_on_c, 7, 82, 0
9, 32160, Note_on_c, 7, 86, 101
9, 32160, Note_on_c, 7, 74, 101
9, 32400, Note_on_c, 7, 74, 0
9, 32520, Note_on_c, 7, 86, 0
9, 32520, Note_on_c, 7, 84, 64
9, 32560, Note_on_c, 7, 84, 0
9, 32560, Note_on_c, 7, 82, 64
9, 32600, Note_on_c, 7, 82, 0
9, 32600, Note_on_c, 7, 81, 64
9, 32640, Note_on_c, 7, 81, 0
9, 32640, Note_on_c, 7, 79, 64
9, 32730, Note_on_c, 7, 79, 0
9, 32760, Note_on_c, 7, 79, 64
9, 32850, Note_on_c, 7, 79, 0
9, 32880, Note_on_c, 7, 79, 64
9, 32970, Note_on_c, 7, 79, 0
9, 33000, Note_on_c, 7, 79, 64
9, 33090, Note_on_c, 7, 79, 0
9, 33240, Note_on_c, 7, 82, 64
9, 33330, Note_on_c, 7, 82, 0
9, 33360, Note_on_c, 7, 82, 64
9, 33450, Note_on_c, 7, 82, 0
9, 33480, Note_on_c, 7, 82, 64
9, 33570, Note_on_c, 7, 82, 0
9, 33720, Note_on_c, 7, 75, 64
9, 33810, Note_on_c, 7, 75, 0
9, 33840, Note_on_c, 7, 75, 64
9, 33930, Note_on_c, 7, 75, 0
9, 33960, Note_on_c, 7, 75, 64
9, 34050, Note_on_c, 7, 75, 0
9, 34200, Note_on_c, 7, 79, 64
9, 34290, Note_on_c, 7, 79, 0
9, 34320, Note_on_c, 7, 79, 64
9, 34410, Note_on_c, 7, 79, 0
9, 34440, Note_on_c, 7, 79, 64
9, 34530, Note_on_c, 7, 79, 0
9, 34560, Note_on_c, 7, 61, 101
9, 36090, Note_on_c, 7, 61, 0
9, 36600, Note_on_c, 7, 74, 64
9, 36690, Note_on_c, 7, 74, 0
9, 36720, Note_on_c, 7, 74, 64
9, 36810, Note_on_c, 7, 74, 0
9, 36840, Note_on_c, 7, 74, 64
9, 36930, Note_on_c, 7, 74, 0
9, 37080, Note_on_c, 7, 77, 64
9, 37170, Note_on_c, 7, 77, 0
9, 37200, Note_on_c, 7, 77, 64
9, 37290, Note_on_c, 7, 77, 0
9, 37320, Note_on_c, 7, 77, 64
9, 37410, Note_on_c, 7, 77, 0
9, 37560, Note_on_c, 7, 70, 64
9, 37650, Note_on_c, 7, 70, 0
9, 37680, Note_on_c, 7, 70, 64
9, 37770, Note_on_c, 7, 70, 0
9, 37800, Note_on_c, 7, 70, 64
9, 37890, Note_on_c, 7, 70, 0
9, 38040, Note_on_c, 7, 74, 64
9, 38130, Note_on_c, 7, 74, 0
9, 38160, Note_on_c, 7, 74, 64
9, 38250, Note_on_c, 7, 74, 0
9, 38280, Note_on_c, 7, 74, 64
9, 38370, Note_on_c, 7, 74, 0
9, 38400, Note_on_c, 7, 56, 101
9, 40320, Note_on_c, 7, 56, 0
9, 40320, Note_on_c, 7, 55, 64
9, 40700, Note_on_c, 7, 55, 0
9, 40800, Note_on_c, 7, 70, 64
9, 41180, Note_on_c, 7, 70, 0
9, 41760, Note_on_c, 7, 67, 64
9, 42140, Note_on_c, 7, 67, 0
9, 42720, Note_on_c, 7, 65, 64
9, 43100, Note_on_c, 7, 65, 0
9, 43680, Note_on_c, 7, 64, 64
9, 44060, Note_on_c, 7, 64, 0
9, 44160, Note_on_c, 7, 62, 64
9, 44280, Note_on_c, 7, 62, 0
9, 44280, Control_c, 7, 11, 72
9, 44280, Note_on_c, 7, 64, 112
9, 44400, Note_on_c, 7, 64, 0
9, 44400, Control_c, 7, 11, 74
9, 44400, Note_on_c, 7, 65, 112
9, 44520, Note_on_c, 7, 65, 0
9, 44520, Control_c, 7, 11, 85
9, 44520, Note_on_c, 7, 67, 112
9, 44640, Note_on_c, 7, 67, 0
9, 44640, Control_c, 7, 11, 95
9, 44640, Note_on_c, 7, 69, 112
9, 44760, Note_on_c, 7, 69, 0
9, 44760, Control_c, 7, 11, 105
9, 44760, Note_on_c, 7, 71, 112
9, 44880, Note_on_c, 7, 71, 0
9, 44880, Control_c, 7, 11, 115
9, 44880, Note_on_c, 7, 73, 112
9, 45000, Note_on_c, 7, 73, 0
9, 45000, Control_c, 7, 11, 125
9, 45000, Note_on_c, 7, 74, 112
9, 45090, Note_on_c, 7, 74, 0
9, 45120, Control_c, 7, 11, 127
9, 45120, Note_on_c, 7, 74, 64
9, 45240, Note_on_c, 7, 74, 0
9, 45240, Note_on_c, 7, 72, 64
9, 45360, Note_on_c, 7, 72, 0
9, 45360, Note_on_c, 7, 70, 64
9, 45480, Note_on_c, 7, 70, 0
9, 45480, Note_on_c, 7, 69, 64
9, 45600, Note_on_c, 7, 69, 0
9, 45600, Note_on_c, 7, 67, 64
9, 45720, Note_on_c, 7, 67, 0
9, 45720, Note_on_c, 7, 65, 64
9, 45840, Note_on_c, 7, 65, 0
9, 45840, Note_on_c, 7, 64, 64
9, 45960, Note_on_c, 7, 64, 0
9, 45960, Note_on_c, 7, 62, 64
9, 46080, Note_on_c, 7, 62, 0
9, 46080, Note_on_c, 7, 63, 64
9, 46200, Note_on_c, 7, 63, 0
9, 46200, Control_c, 7, 11, 72
9, 46200, Note_on_c, 7, 65, 112
9, 46320, Note_on_c, 7, 65, 0
9, 46320, Control_c, 7, 11, 73
9, 46320, Note_on_c, 7, 67, 112
9, 46440, Note_on_c, 7, 67, 0
9, 46440, Control_c, 7, 11, 83
9, 46440, Note_on_c, 7, 69, 112
9, 46560, Note_on_c, 7, 69, 0
9, 46560, Control_c, 7, 11, 94
9, 46560, Note_on_c, 7, 70, 112
9, 46680, Note_on_c, 7, 70, 0
9, 46680, Control_c, 7, 11, 104
9, 46680, Note_on_c, 7, 72, 112
9, 46800, Note_on_c, 7, 72, 0
9, 46800, Control_c, 7, 11, 114
9, 46800, Note_on_c, 7, 74, 112
9, 46920, Note_on_c, 7, 74, 0
9, 46920, Control_c, 7, 11, 124
9, 46920, Note_on_c, 7, 75, 112
9, 47010, Note_on_c, 7, 75, 0
9, 47040, Control_c, 7, 11, 127
9, 47040, Note_on_c, 7, 76, 64
9, 47160, Note_on_c, 7, 76, 0
9, 47160, Note_on_c, 7, 74, 64
9, 47280, Note_on_c, 7, 74, 0
9, 47280, Note_on_c, 7, 72, 64
9, 47400, Note_on_c, 7, 72, 0
9, 47400, Note_on_c, 7, 71, 64
9, 47520, Note_on_c, 7, 71, 0
9, 47520, Note_on_c, 7, 69, 64
9, 47640, Note_on_c, 7, 69, 0
9, 47640, Note_on_c, 7, 68, 64
9, 47760, Note_on_c, 7, 68, 0
9, 47760, Note_on_c, 7, 66, 64
9, 47880, Note_on_c, 7, 66, 0
9, 47880, Note_on_c, 7, 64, 64
9, 48000, Note_on_c, 7, 64, 0
9, 48000, Note_on_c, 7, 65, 64
9, 48120, Note_on_c, 7, 65, 0
9, 48120, Control_c, 7, 11, 72
9, 48120, Note_on_c, 7, 67, 112
9, 48240, Note_on_c, 7, 67, 0
9, 48240, Control_c, 7, 11, 73
9, 48240, Note_on_c, 7, 69, 112
9, 48360, Note_on_c, 7, 69, 0
9, 48360, Control_c, 7, 11, 83
9, 48360, Note_on_c, 7, 71, 112
9, 48480, Note_on_c, 7, 71, 0
9, 48480, Control_c, 7, 11, 94
9, 48480, Note_on_c, 7, 72, 112
9, 48600, Note_on_c, 7, 72, 0
9, 48600, Control_c, 7, 11, 104
9, 48600, Note_on_c, 7, 74, 112
9, 48720, Note_on_c, 7, 74, 0
9, 48720, Control_c, 7, 11, 114
9, 48720, Note_on_c, 7, 76, 112
9, 48840, Note_on_c, 7, 76, 0
9, 48840, Control_c, 7, 11, 123
9, 48840, Note_on_c, 7, 77, 112
9, 48930, Note_on_c, 7, 77, 0
9, 48960, Control_c, 7, 11, 127
9, 48960, Note_on_c, 7, 78, 64
9, 49080, Note_on_c, 7, 78, 0
9, 49080, Note_on_c, 7, 76, 64
9, 49200, Note_on_c, 7, 76, 0
9, 49200, Note_on_c, 7, 74, 64
9, 49320, Note_on_c, 7, 74, 0
9, 49320, Note_on_c, 7, 72, 64
9, 49440, Note_on_c, 7, 72, 0
9, 49440, Note_on_c, 7, 70, 64
9, 49560, Note_on_c, 7, 70, 0
9, 49560, Note_on_c, 7, 69, 64
9, 49680, Note_on_c, 7, 69, 0
9, 49680, Note_on_c, 7, 67, 64
9, 49800, Note_on_c, 7, 67, 0
9, 49800, Note_on_c, 7, 66, 64
9, 49920, Note_on_c, 7, 66, 0
9, 49920, Note_on_c, 7, 67, 64
9, 50040, Note_on_c, 7, 67, 0
9, 50040, Control_c, 7, 11, 72
9, 50040, Note_on_c, 7, 69, 112
9, 50160, Note_on_c, 7, 69, 0
9, 50160, Control_c, 7, 11, 73
9, 50160, Note_on_c, 7, 70, 112
9, 50280, Note_on_c, 7, 70, 0
9, 50280, Control_c, 7, 11, 83
9, 50280, Note_on_c, 7, 72, 112
9, 50400, Note_on_c, 7, 72, 0
9, 50400, Control_c, 7, 11, 94
9, 50400, Note_on_c, 7, 74, 112
9, 50520, Note_on_c, 7, 74, 0
9, 50520, Control_c, 7, 11, 104
9, 50520, Note_on_c, 7, 76, 112
9, 50640, Note_on_c, 7, 76, 0
9, 50640, Control_c, 7, 11, 114
9, 50640, Note_on_c, 7, 78, 112
9, 50760, Note_on_c, 7, 78, 0
9, 50760, Control_c, 7, 11, 124
9, 50760, Note_on_c, 7, 79, 112
9, 50850, Note_on_c, 7, 79, 0
9, 50880, Control_c, 7, 11, 127
9, 50880, Note_on_c, 7, 79, 64
9, 51000, Note_on_c, 7, 79, 0
9, 51000, Note_on_c, 7, 77, 64
9, 51120, Note_on_c, 7, 77, 0
9, 51120, Note_on_c, 7, 75, 64
9, 51240, Note_on_c, 7, 75, 0
9, 51240, Note_on_c, 7, 74, 64
9, 51360, Note_on_c, 7, 74, 0
9, 51360, Note_on_c, 7, 72, 64
9, 51480, Note_on_c, 7, 72, 0
9, 51480, Note_on_c, 7, 70, 64
9, 51600, Note_on_c, 7, 70, 0
9, 51600, Note_on_c, 7, 69, 64
9, 51720, Note_on_c, 7, 69, 0
9, 51720, Note_on_c, 7, 67, 64
9, 51840, Note_on_c, 7, 67, 0
9, 51840, Note_on_c, 7, 67, 64
9, 51880, Note_on_c, 7, 67, 0
9, 51900, Note_on_c, 7, 55, 64
9, 51940, Note_on_c, 7, 55, 0
9, 51960, Note_on_c, 7, 55, 64
9, 52000, Note_on_c, 7, 55, 0
9, 52020, Note_on_c, 7, 55, 64
9, 52060, Note_on_c, 7, 55, 0
9, 52080, Note_on_c, 7, 55, 64
9, 52120, Note_on_c, 7, 55, 0
9, 52140, Note_on_c, 7, 55, 64
9, 52180, Note_on_c, 7, 55, 0
9, 52200, Note_on_c, 7, 55, 64
9, 52240, Note_on_c, 7, 55, 0
9, 52260, Note_on_c, 7, 55, 64
9, 52300, Note_on_c, 7, 55, 0
9, 52320, Note_on_c, 7, 55, 64
9, 52360, Note_on_c, 7, 55, 0
9, 52380, Note_on_c, 7, 55, 64
9, 52420, Note_on_c, 7, 55, 0
9, 52440, Note_on_c, 7, 55, 64
9, 52480, Note_on_c, 7, 55, 0
9, 52500, Note_on_c, 7, 55, 64
9, 52540, Note_on_c, 7, 55, 0
9, 52560, Note_on_c, 7, 55, 64
9, 52600, Note_on_c, 7, 55, 0
9, 52620, Note_on_c, 7, 55, 64
9, 52660, Note_on_c, 7, 55, 0
9, 52680, Note_on_c, 7, 55, 64
9, 52720, Note_on_c, 7, 55, 0
9, 52740, Note_on_c, 7, 55, 64
9, 52780, Note_on_c, 7, 55, 0
9, 52800, Note_on_c, 7, 67, 64
9, 52840, Note_on_c, 7, 67, 0
9, 52860, Note_on_c, 7, 55, 64
9, 52900, Note_on_c, 7, 55, 0
9, 52920, Note_on_c, 7, 55, 64
9, 52960, Note_on_c, 7, 55, 0
9, 52980, Note_on_c, 7, 55, 64
9, 53020, Note_on_c, 7, 55, 0
9, 53040, Note_on_c, 7, 55, 64
9, 53080, Note_on_c, 7, 55, 0
9, 53100, Note_on_c, 7, 55, 64
9, 53140, Note_on_c, 7, 55, 0
9, 53160, Note_on_c, 7, 55, 64
9, 53200, Note_on_c, 7, 55, 0
9, 53220, Note_on_c, 7, 55, 64
9, 53260, Note_on_c, 7, 55, 0
9, 53280, Note_on_c, 7, 55, 64
9, 53320, Note_on_c, 7, 55, 0
9, 53340, Note_on_c, 7, 55, 64
9, 53380, Note_on_c, 7, 55, 0
9, 53400, Note_on_c, 7, 55, 64
9, 53440, Note_on_c, 7, 55, 0
9, 53460, Note_on_c, 7, 55, 64
9, 53500, Note_on_c, 7, 55, 0
9, 53520, Note_on_c, 7, 55, 64
9, 53560, Note_on_c, 7, 55, 0
9, 53580, Note_on_c, 7, 55, 64
9, 53620, Note_on_c, 7, 55, 0
9, 53640, Note_on_c, 7, 55, 64
9, 53680, Note_on_c, 7, 55, 0
9, 53700, Note_on_c, 7, 55, 64
9, 53740, Note_on_c, 7, 55, 0
9, 53760, Note_on_c, 7, 68, 64
9, 53800, Note_on_c, 7, 68, 0
9, 53820, Note_on_c, 7, 56, 64
9, 53860, Note_on_c, 7, 56, 0
9, 53880, Note_on_c, 7, 56, 64
9, 53920, Note_on_c, 7, 56, 0
9, 53940, Note_on_c, 7, 56, 64
9, 53980, Note_on_c, 7, 56, 0
9, 54000, Note_on_c, 7, 56, 64
9, 54040, Note_on_c, 7, 56, 0
9, 54060, Note_on_c, 7, 56, 64
9, 54100, Note_on_c, 7, 56, 0
9, 54120, Note_on_c, 7, 56, 64
9, 54160, Note_on_c, 7, 56, 0
9, 54180, Note_on_c, 7, 56, 64
9, 54220, Note_on_c, 7, 56, 0
9, 54240, Note_on_c, 7, 56, 64
9, 54280, Note_on_c, 7, 56, 0
9, 54300, Note_on_c, 7, 56, 64
9, 54340, Note_on_c, 7, 56, 0
9, 54360, Note_on_c, 7, 56, 64
9, 54400, Note_on_c, 7, 56, 0
9, 54420, Note_on_c, 7, 56, 64
9, 54460, Note_on_c, 7, 56, 0
9, 54480, Note_on_c, 7, 56, 64
9, 54520, Note_on_c, 7, 56, 0
9, 54540, Note_on_c, 7, 56, 64
9, 54580, Note_on_c, 7, 56, 0
9, 54600, Note_on_c, 7, 56, 64
9, 54640, Note_on_c, 7, 56, 0
9, 54660, Note_on_c, 7, 56, 64
9, 54700, Note_on_c, 7, 56, 0
9, 54720, Note_on_c, 7, 68, 64
9, 54760, Note_on_c, 7, 68, 0
9, 54780, Note_on_c, 7, 56, 64
9, 54820, Note_on_c, 7, 56, 0
9, 54840, Note_on_c, 7, 56, 64
9, 54880, Note_on_c, 7, 56, 0
9, 54900, Note_on_c, 7, 56, 64
9, 54940, Note_on_c, 7, 56, 0
9, 54960, Note_on_c, 7, 56, 64
9, 55000, Note_on_c, 7, 56, 0
9, 55020, Note_on_c, 7, 56, 64
9, 55060, Note_on_c, 7, 56, 0
9, 55080, Note_on_c, 7, 56, 64
9, 55120, Note_on_c, 7, 56, 0
9, 55140, Note_on_c, 7, 56, 64
9, 55180, Note_on_c, 7, 56, 0
9, 55200, Note_on_c, 7, 56, 64
9, 55240, Note_on_c, 7, 56, 0
9, 55260, Note_on_c, 7, 56, 64
9, 55300, Note_on_c, 7, 56, 0
9, 55320, Note_on_c, 7, 56, 64
9, 55360, Note_on_c, 7, 56, 0
9, 55380, Note_on_c, 7, 56, 64
9, 55420, Note_on_c, 7, 56, 0
9, 55440, Note_on_c, 7, 56, 64
9, 55480, Note_on_c, 7, 56, 0
9, 55500, Note_on_c, 7, 56, 64
9, 55540, Note_on_c, 7, 56, 0
9, 55560, Note_on_c, 7, 56, 64
9, 55600, Note_on_c, 7, 56, 0
9, 55620, Note_on_c, 7, 56, 64
9, 55660, Note_on_c, 7, 56, 0
9, 55680, Note_on_c, 7, 57, 64
9, 55870, Note_on_c, 7, 57, 0
9, 56160, Note_on_c, 7, 77, 83
9, 56220, Note_on_c, 7, 77, 0
9, 56640, Note_on_c, 7, 81, 83
9, 56700, Note_on_c, 7, 81, 0
9, 57120, Note_on_c, 7, 86, 83
9, 57180, Note_on_c, 7, 86, 0
9, 57600, Note_on_c, 7, 57, 64
9, 57790, Note_on_c, 7, 57, 0
9, 58080, Note_on_c, 7, 76, 83
9, 58140, Note_on_c, 7, 76, 0
9, 58560, Note_on_c, 7, 81, 83
9, 58620, Note_on_c, 7, 81, 0
9, 59040, Note_on_c, 7, 85, 83
9, 59100, Note_on_c, 7, 85, 0
9, 59520, Note_on_c, 7, 62, 64
9, 59900, Note_on_c, 7, 62, 0
9, 61440, Note_on_c, 7, 74, 64
9, 63360, Note_on_c, 7, 74, 0
9, 63360, Note_on_c, 7, 75, 64
9, 64890, Note_on_c, 7, 75, 0
9, 65280, Note_on_c, 7, 76, 64
9, 65760, Note_on_c, 7, 76, 0
9, 65760, Note_on_c, 7, 79, 64
9, 66720, Note_on_c, 7, 79, 0
9, 66720, Note_on_c, 7, 78, 64
9, 67100, Note_on_c, 7, 78, 0
9, 67200, Note_on_c, 7, 76, 64
9, 67680, Note_on_c, 7, 76, 0
9, 67680, Note_on_c, 7, 83, 64
9, 68640, Note_on_c, 7, 83, 0
9, 68640, Note_on_c, 7, 81, 64
9, 69020, Note_on_c, 7, 81, 0
9, 69120, Note_on_c, 7, 81, 64
9, 69360, Note_on_c, 7, 81, 0
9, 69360, Note_on_c, 7, 79, 64
9, 69550, Note_on_c, 7, 79, 0
9, 69600, Note_on_c, 7, 79, 64
9, 69790, Note_on_c, 7, 79, 0
9, 69840, Note_on_c, 7, 79, 64
9, 70030, Note_on_c, 7, 79, 0
9, 70080, Note_on_c, 7, 79, 64
9, 70320, Note_on_c, 7, 79, 0
9, 70320, Note_on_c, 7, 78, 64
9, 70510, Note_on_c, 7, 78, 0
9, 70560, Note_on_c, 7, 78, 64
9, 70750, Note_on_c, 7, 78, 0
9, 70800, Note_on_c, 7, 78, 64
9, 70990, Note_on_c, 7, 78, 0
9, 71040, Note_on_c, 7, 78, 64
9, 71280, Note_on_c, 7, 78, 0
9, 71280, Note_on_c, 7, 76, 64
9, 71470, Note_on_c, 7, 76, 0
9, 71520, Note_on_c, 7, 76, 64
9, 71710, Note_on_c, 7, 76, 0
9, 71760, Note_on_c, 7, 76, 64
9, 71950, Note_on_c, 7, 76, 0
9, 72000, Note_on_c, 7, 74, 64
9, 72240, Note_on_c, 7, 74, 0
9, 72240, Note_on_c, 7, 73, 64
9, 72480, Note_on_c, 7, 73, 0
9, 72480, Note_on_c, 7, 71, 64
9, 72720, Note_on_c, 7, 71, 0
9, 72720, Note_on_c, 7, 73, 64
9, 72910, Note_on_c, 7, 73, 0
9, 72960, Note_on_c, 7, 74, 64
9, 73340, Note_on_c, 7, 74, 0
9, 76800, Note_on_c, 7, 74, 64
9, 78720, Note_on_c, 7, 74, 0
9, 78720, Note_on_c, 7, 75, 64
9, 80250, Note_on_c, 7, 75, 0
9, 80640, Note_on_c, 7, 76, 64
9, 81120, Note_on_c, 7, 76, 0
9, 81120, Note_on_c, 7, 79, 64
9, 82080, Note_on_c, 7, 79, 0
9, 82080, Note_on_c, 7, 78, 64
9, 82460, Note_on_c, 7, 78, 0
9, 82560, Note_on_c, 7, 76, 64
9, 83040, Note_on_c, 7, 76, 0
9, 83040, Note_on_c, 7, 83, 64
9, 84000, Note_on_c, 7, 83, 0
9, 84000, Note_on_c, 7, 81, 64
9, 84380, Note_on_c, 7, 81, 0
9, 84480, Note_on_c, 7, 81, 64
9, 84720, Note_on_c, 7, 81, 0
9, 84720, Note_on_c, 7, 79, 64
9, 84910, Note_on_c, 7, 79, 0
9, 84960, Note_on_c, 7, 79, 64
9, 85150, Note_on_c, 7, 79, 0
9, 85200, Note_on_c, 7, 79, 64
9, 85390, Note_on_c, 7, 79, 0
9, 85440, Note_on_c, 7, 79, 64
9, 85680, Note_on_c, 7, 79, 0
9, 85680, Note_on_c, 7, 78, 64
9, 85870, Note_on_c, 7, 78, 0
9, 85920, Note_on_c, 7, 78, 64
9, 86110, Note_on_c, 7, 78, 0
9, 86160, Note_on_c, 7, 78, 64
9, 86350, Note_on_c, 7, 78, 0
9, 86400, Note_on_c, 7, 78, 64
9, 86640, Note_on_c, 7, 78, 0
9, 86640, Note_on_c, 7, 76, 64
9, 86830, Note_on_c, 7, 76, 0
9, 86880, Note_on_c, 7, 76, 64
9, 87070, Note_on_c, 7, 76, 0
9, 87120, Note_on_c, 7, 76, 64
9, 87310, Note_on_c, 7, 76, 0
9, 87360, Note_on_c, 7, 74, 64
9, 87600, Note_on_c, 7, 74, 0
9, 87600, Note_on_c, 7, 73, 64
9, 87840, Note_on_c, 7, 73, 0
9, 87840, Note_on_c, 7, 71, 64
9, 88080, Note_on_c, 7, 71, 0
9, 88080, Note_on_c, 7, 73, 64
9, 88270, Note_on_c, 7, 73, 0
9, 88320, Note_on_c, 7, 74, 64
9, 88380, Note_on_c, 7, 74, 0
9, 88560, Note_on_c, 7, 78, 64
9, 88620, Note_on_c, 7, 78, 0
9, 88800, Note_on_c, 7, 69, 64
9, 88860, Note_on_c, 7, 69, 0
9, 89040, Note_on_c, 7, 73, 64
9, 89100, Note_on_c, 7, 73, 0
9, 89280, Note_on_c, 7, 74, 64
9, 89340, Note_on_c, 7, 74, 0
9, 89520, Note_on_c, 7, 78, 64
9, 89580, Note_on_c, 7, 78, 0
9, 89760, Note_on_c, 7, 79, 64
9, 89820, Note_on_c, 7, 79, 0
9, 90000, Note_on_c, 7, 76, 64
9, 90060, Note_on_c, 7, 76, 0
9, 90240, Note_on_c, 7, 74, 64
9, 90300, Note_on_c, 7, 74, 0
9, 90480, Note_on_c, 7, 78, 64
9, 90540, Note_on_c, 7, 78, 0
9, 90720, Note_on_c, 7, 69, 64
9, 90780, Note_on_c, 7, 69, 0
9, 90960, Note_on_c, 7, 73, 64
9, 91020, Note_on_c, 7, 73, 0
9, 91200, Note_on_c, 7, 74, 64
9, 91260, Note_on_c, 7, 74, 0
9, 91440, Note_on_c, 7, 78, 64
9, 91500, Note_on_c, 7, 78, 0
9, 91680, Note_on_c, 7, 79, 64
9, 91740, Note_on_c, 7, 79, 0
9, 91920, Note_on_c, 7, 76, 64
9, 91980, Note_on_c, 7, 76, 0
9, 92160, Note_on_c, 7, 74, 96
9, 92220, Note_on_c, 7, 74, 0
9, 92400, Note_on_c, 7, 78, 96
9, 92460, Note_on_c, 7, 78, 0
9, 92640, Note_on_c, 7, 69, 96
9, 92700, Note_on_c, 7, 69, 0
9, 92880, Note_on_c, 7, 73, 96
9, 92940, Note_on_c, 7, 73, 0
9, 93120, Note_on_c, 7, 74, 96
9, 93180, Note_on_c, 7, 74, 0
9, 93360, Note_on_c, 7, 78, 96
9, 93420, Note_on_c, 7, 78, 0
9, 93600, Note_on_c, 7, 79, 96
9, 93660, Note_on_c, 7, 79, 0
9, 93840, Note_on_c, 7, 76, 96
9, 93900, Note_on_c, 7, 76, 0
9, 94080, Note_on_c, 7, 74, 96
9, 94140, Note_on_c, 7, 74, 0
9, 94320, Note_on_c, 7, 78, 96
9, 94380, Note_on_c, 7, 78, 0
9, 94560, Note_on_c, 7, 69, 96
9, 94620, Note_on_c, 7, 69, 0
9, 94800, Note_on_c, 7, 73, 96
9, 94860, Note_on_c, 7, 73, 0
9, 95040, Note_on_c, 7, 74, 96
9, 95100, Note_on_c, 7, 74, 0
9, 95280, Note_on_c, 7, 78, 96
9, 95340, Note_on_c, 7, 78, 0
9, 95520, Note_on_c, 7, 79, 96
9, 95580, Note_on_c, 7, 79, 0
9, 95760, Note_on_c, 7, 76, 96
9, 95820, Note_on_c, 7, 76, 0
9, 96000, Note_on_c, 7, 74, 96
9, 96240, Note_on_c, 7, 74, 0
9, 96240, Note_on_c, 7, 69, 96
9, 96430, Note_on_c, 7, 69, 0
9, 96480, Note_on_c, 7, 78, 96
9, 96540, Note_on_c, 7, 78, 0
9, 96720, Note_on_c, 7, 78, 96
9, 96780, Note_on_c, 7, 78, 0
9, 96960, Note_on_c, 7, 78, 96
9, 97200, Note_on_c, 7, 78, 0
9, 97200, Note_on_c, 7, 74, 96
9, 97390, Note_on_c, 7, 74, 0
9, 97440, Note_on_c, 7, 81, 96
9, 97500, Note_on_c, 7, 81, 0
9, 97680, Note_on_c, 7, 81, 96
9, 97740, Note_on_c, 7, 81, 0
9, 97920, Note_on_c, 7, 81, 96
9, 98160, Note_on_c, 7, 81, 0
9, 98160, Note_on_c, 7, 78, 96
9, 98350, Note_on_c, 7, 78, 0
9, 98400, Note_on_c, 7, 86, 96
9, 98460, Note_on_c, 7, 86, 0
9, 98640, Note_on_c, 7, 86, 96
9, 98700, Note_on_c, 7, 86, 0
9, 98880, Note_on_c, 7, 86, 96
9, 99070, Note_on_c, 7, 86, 0
9, 99120, Note_on_c, 7, 81, 96
9, 99310, Note_on_c, 7, 81, 0
9, 99360, Note_on_c, 7, 78, 96
9, 99550, Note_on_c, 7, 78, 0
9, 99600, Note_on_c, 7, 74, 96
9, 99790, Note_on_c, 7, 74, 0
9, 99840, Note_on_c, 7, 81, 96
9, 100030, Note_on_c, 7, 81, 0
9, 100080, Note_on_c, 7, 81, 96
9, 100270, Note_on_c, 7, 81, 0
9, 100320, Note_on_c, 7, 85, 96
9, 100510, Note_on_c, 7, 85, 0
9, 100560, Note_on_c, 7, 81, 96
9, 100750, Note_on_c, 7, 81, 0
9, 100800, Note_on_c, 7, 86, 96
9, 100990, Note_on_c, 7, 86, 0
9, 101040, Note_on_c, 7, 81, 96
9, 101230, Note_on_c, 7, 81, 0
9, 101280, Note_on_c, 7, 78, 96
9, 101470, Note_on_c, 7, 78, 0
9, 101520, Note_on_c, 7, 74, 96
9, 101710, Note_on_c, 7, 74, 0
9, 101760, Note_on_c, 7, 81, 96
9, 101950, Note_on_c, 7, 81, 0
9, 102000, Note_on_c, 7, 81, 96
9, 102190, Note_on_c, 7, 81, 0
9, 102240, Note_on_c, 7, 85, 96
9, 102430, Note_on_c, 7, 85, 0
9, 102480, Note_on_c, 7, 81, 96
9, 102670, Note_on_c, 7, 81, 0
9, 102720, Note_on_c, 7, 86, 96
9, 102910, Note_on_c, 7, 86, 0
9, 102960, Note_on_c, 7, 81, 96
9, 103150, Note_on_c, 7, 81, 0
9, 103200, Note_on_c, 7, 78, 96
9, 103390, Note_on_c, 7, 78, 0
9, 103440, Note_on_c, 7, 74, 96
9, 103630, Note_on_c, 7, 74, 0
9, 103680, Note_on_c, 7, 81, 96
9, 104060, Note_on_c, 7, 81, 0
9, 104160, Note_on_c, 7, 86, 96
9, 104160, Note_on_c, 7, 78, 96
9, 104540, Note_on_c, 7, 78, 0
9, 104540, Note_on_c, 7, 86, 0
9, 104640, Note_on_c, 7, 85, 96
9, 104640, Note_on_c, 7, 76, 96
9, 105020, Note_on_c, 7, 76, 0
9, 105020, Note_on_c, 7, 85, 0
9, 105120, Note_on_c, 7, 86, 96
9, 105120, Note_on_c, 7, 78, 96
9, 105500, Note_on_c, 7, 78, 0
9, 105500, Note_on_c, 7, 86, 0
9, 105600, Note_on_c, 7, 85, 96
9, 105600, Note_on_c, 7, 76, 96
9, 105980, Note_on_c, 7, 76, 0
9, 105980, Note_on_c, 7, 85, 0
9, 106080, Note_on_c, 7, 69, 96
9, 106270, Note_on_c, 7, 69, 0
9, 106320, Note_on_c, 7, 69, 96
9, 106510, Note_on_c, 7, 69, 0
9, 106560, Note_on_c, 7, 69, 96
9, 106940, Note_on_c, 7, 69, 0
9, 107520, Note_on_c, 7, 69, 96
9, 107520, Note_on_c, 7, 81, 96
9, 108280, Note_on_c, 7, 69, 0
9, 108670, Note_on_c, 7, 81, 0
9, 108720, Note_on_c, 7, 80, 64
9, 108910, Note_on_c, 7, 80, 0
9, 108960, Note_on_c, 7, 85, 64
9, 109150, Note_on_c, 7, 85, 0
9, 109200, Note_on_c, 7, 83, 64
9, 109390, Note_on_c, 7, 83, 0
9, 109440, Note_on_c, 7, 81, 64
9, 109630, Note_on_c, 7, 81, 0
9, 109680, Note_on_c, 7, 80, 64
9, 109870, Note_on_c, 7, 80, 0
9, 109920, Note_on_c, 7, 78, 64
9, 110110, Note_on_c, 7, 78, 0
9, 110160, Note_on_c, 7, 76, 64
9, 110350, Note_on_c, 7, 76, 0
9, 110400, Note_on_c, 7, 74, 64
9, 110590, Note_on_c, 7, 74, 0
9, 110640, Note_on_c, 7, 73, 64
9, 110830, Note_on_c, 7, 73, 0
9, 110880, Note_on_c, 7, 71, 64
9, 111070, Note_on_c, 7, 71, 0
9, 111120, Note_on_c, 7, 69, 64
9, 111310, Note_on_c, 7, 69, 0
9, 111360, Note_on_c, 7, 62, 96
9, 111360, Note_on_c, 7, 74, 96
9, 112120, Note_on_c, 7, 62, 0
9, 112510, Note_on_c, 7, 74, 0
9, 112560, Note_on_c, 7, 73, 64
9, 112750, Note_on_c, 7, 73, 0
9, 112800, Note_on_c, 7, 78, 64
9, 112990, Note_on_c, 7, 78, 0
9, 113040, Note_on_c, 7, 76, 64
9, 113230, Note_on_c, 7, 76, 0
9, 113280, Note_on_c, 7, 74, 64
9, 113470, Note_on_c, 7, 74, 0
9, 113520, Note_on_c, 7, 73, 64
9, 113710, Note_on_c, 7, 73, 0
9, 113760, Note_on_c, 7, 71, 64
9, 113950, Note_on_c, 7, 71, 0
9, 114000, Note_on_c, 7, 69, 64
9, 114190, Note_on_c, 7, 69, 0
9, 114240, Note_on_c, 7, 68, 64
9, 114430, Note_on_c, 7, 68, 0
9, 114480, Note_on_c, 7, 66, 64
9, 114670, Note_on_c, 7, 66, 0
9, 114720, Note_on_c, 7, 64, 64
9, 114910, Note_on_c, 7, 64, 0
9, 114960, Note_on_c, 7, 62, 64
9, 115150, Note_on_c, 7, 62, 0
9, 115200, Note_on_c, 7, 71, 96
9, 115200, Note_on_c, 7, 80, 96
9, 115960, Note_on_c, 7, 71, 0
9, 116350, Note_on_c, 7, 80, 0
9, 116400, Note_on_c, 7, 78, 64
9, 116590, Note_on_c, 7, 78, 0
9, 116640, Note_on_c, 7, 83, 64
9, 116830, Note_on_c, 7, 83, 0
9, 116880, Note_on_c, 7, 81, 64
9, 117070, Note_on_c, 7, 81, 0
9, 117120, Note_on_c, 7, 80, 64
9, 117310, Note_on_c, 7, 80, 0
9, 117360, Note_on_c, 7, 78, 64
9, 117550, Note_on_c, 7, 78, 0
9, 117600, Note_on_c, 7, 76, 64
9, 117790, Note_on_c, 7, 76, 0
9, 117840, Note_on_c, 7, 74, 64
9, 118030, Note_on_c, 7, 74, 0
9, 118080, Note_on_c, 7, 73, 64
9, 118270, Note_on_c, 7, 73, 0
9, 118320, Note_on_c, 7, 71, 64
9, 118510, Note_on_c, 7, 71, 0
9, 118560, Note_on_c, 7, 69, 64
9, 118750, Note_on_c, 7, 69, 0
9, 118800, Note_on_c, 7, 68, 64
9, 118990, Note_on_c, 7, 68, 0
9, 119040, Note_on_c, 7, 69, 64
9, 119230, Note_on_c, 7, 69, 0
9, 119280, Note_on_c, 7, 57, 64
9, 119470, Note_on_c, 7, 57, 0
9, 119520, Note_on_c, 7, 57, 64
9, 119710, Note_on_c, 7, 57, 0
9, 119760, Note_on_c, 7, 57, 64
9, 119950, Note_on_c, 7, 57, 0
9, 120000, Note_on_c, 7, 57, 64
9, 120190, Note_on_c, 7, 57, 0
9, 120240, Note_on_c, 7, 57, 64
9, 120430, Note_on_c, 7, 57, 0
9, 120480, Note_on_c, 7, 57, 64
9, 120670, Note_on_c, 7, 57, 0
9, 120720, Note_on_c, 7, 57, 64
9, 120910, Note_on_c, 7, 57, 0
9, 120960, Note_on_c, 7, 57, 64
9, 121150, Note_on_c, 7, 57, 0
9, 121200, Note_on_c, 7, 57, 64
9, 121390, Note_on_c, 7, 57, 0
9, 121440, Note_on_c, 7, 57, 64
9, 121630, Note_on_c, 7, 57, 0
9, 121680, Note_on_c, 7, 57, 64
9, 121870, Note_on_c, 7, 57, 0
9, 121920, Note_on_c, 7, 57, 64
9, 122110, Note_on_c, 7, 57, 0
9, 122160, Note_on_c, 7, 57, 64
9, 122350, Note_on_c, 7, 57, 0
9, 122400, Note_on_c, 7, 57, 64
9, 122590, Note_on_c, 7, 57, 0
9, 122640, Note_on_c, 7, 57, 64
9, 122830, Note_on_c, 7, 57, 0
9, 122880, Note_on_c, 7, 57, 64
9, 123070, Note_on_c, 7, 57, 0
9, 123120, Note_on_c, 7, 57, 64
9, 123310, Note_on_c, 7, 57, 0
9, 123360, Note_on_c, 7, 57, 64
9, 123550, Note_on_c, 7, 57, 0
9, 123600, Note_on_c, 7, 57, 64
9, 123790, Note_on_c, 7, 57, 0
9, 123840, Note_on_c, 7, 57, 64
9, 124030, Note_on_c, 7, 57, 0
9, 124080, Note_on_c, 7, 57, 64
9, 124270, Note_on_c, 7, 57, 0
9, 124320, Note_on_c, 7, 57, 64
9, 124510, Note_on_c, 7, 57, 0
9, 124560, Note_on_c, 7, 57, 64
9, 124750, Note_on_c, 7, 57, 0
9, 124800, Note_on_c, 7, 57, 64
9, 124990, Note_on_c, 7, 57, 0
9, 125040, Note_on_c, 7, 57, 64
9, 125230, Note_on_c, 7, 57, 0
9, 125280, Note_on_c, 7, 57, 64
9, 125470, Note_on_c, 7, 57, 0
9, 125520, Note_on_c, 7, 57, 64
9, 125710, Note_on_c, 7, 57, 0
9, 125760, Note_on_c, 7, 57, 64
9, 125950, Note_on_c, 7, 57, 0
9, 126000, Note_on_c, 7, 57, 64
9, 126190, Note_on_c, 7, 57, 0
9, 126240, Note_on_c, 7, 57, 64
9, 126430, Note_on_c, 7, 57, 0
9, 126480, Note_on_c, 7, 57, 64
9, 126670, Note_on_c, 7, 57, 0
9, 126720, Control_c, 7, 11, 84
9, 126720, Note_on_c, 7, 57, 96
9, 126910, Note_on_c, 7, 57, 0
9, 126960, Control_c, 7, 11, 87
9, 126960, Note_on_c, 7, 81, 96
9, 127080, Control_c, 7, 11, 89
9, 127150, Note_on_c, 7, 81, 0
9, 127200, Control_c, 7, 11, 93
9, 127200, Note_on_c, 7, 81, 96
9, 127320, Control_c, 7, 11, 96
9, 127390, Note_on_c, 7, 81, 0
9, 127440, Control_c, 7, 11, 99
9, 127440, Note_on_c, 7, 81, 96
9, 127560, Control_c, 7, 11, 103
9, 127630, Note_on_c, 7, 81, 0
9, 127680, Control_c, 7, 11, 105
9, 127680, Note_on_c, 7, 81, 96
9, 127800, Control_c, 7, 11, 109
9, 127870, Note_on_c, 7, 81, 0
9, 127920, Control_c, 7, 11, 112
9, 127920, Note_on_c, 7, 81, 96
9, 128040, Control_c, 7, 11, 115
9, 128110, Note_on_c, 7, 81, 0
9, 128160, Control_c, 7, 11, 119
9, 128160, Note_on_c, 7, 81, 96
9, 128280, Control_c, 7, 11, 121
9, 128350, Note_on_c, 7, 81, 0
9, 128400, Control_c, 7, 11, 125
9, 128400, Note_on_c, 7, 81, 96
9, 128520, Control_c, 7, 11, 127
9, 128590, Note_on_c, 7, 81, 0
9, 128640, Note_on_c, 7, 83, 96
9, 129400, Note_on_c, 7, 83, 0
9, 129600, Note_on_c, 7, 83, 96
9, 130170, Note_on_c, 7, 83, 0
9, 130320, Note_on_c, 7, 83, 96
9, 130510, Note_on_c, 7, 83, 0
9, 130560, Note_on_c, 7, 84, 96
9, 130680, Note_on_c, 7, 84, 0
9, 130680, Note_on_c, 7, 83, 96
9, 130800, Note_on_c, 7, 83, 0
9, 130800, Note_on_c, 7, 81, 96
9, 130990, Note_on_c, 7, 81, 0
9, 131040, Note_on_c, 7, 81, 96
9, 131230, Note_on_c, 7, 81, 0
9, 131280, Note_on_c, 7, 81, 96
9, 131470, Note_on_c, 7, 81, 0
9, 131520, Note_on_c, 7, 84, 96
9, 131640, Note_on_c, 7, 84, 0
9, 131640, Note_on_c, 7, 83, 96
9, 131760, Note_on_c, 7, 83, 0
9, 131760, Note_on_c, 7, 81, 96
9, 131950, Note_on_c, 7, 81, 0
9, 132000, Note_on_c, 7, 81, 96
9, 132190, Note_on_c, 7, 81, 0
9, 132240, Note_on_c, 7, 81, 96
9, 132430, Note_on_c, 7, 81, 0
9, 132480, Note_on_c, 7, 83, 96
9, 133240, Note_on_c, 7, 83, 0
9, 133440, Note_on_c, 7, 83, 96
9, 134010, Note_on_c, 7, 83, 0
9, 134160, Note_on_c, 7, 83, 96
9, 134350, Note_on_c, 7, 83, 0
9, 134400, Note_on_c, 7, 84, 96
9, 134520, Note_on_c, 7, 84, 0
9, 134520, Note_on_c, 7, 83, 96
9, 134640, Note_on_c, 7, 83, 0
9, 134640, Note_on_c, 7, 81, 96
9, 134830, Note_on_c, 7, 81, 0
9, 134880, Note_on_c, 7, 81, 96
9, 135070, Note_on_c, 7, 81, 0
9, 135120, Note_on_c, 7, 81, 96
9, 135310, Note_on_c, 7, 81, 0
9, 135360, Note_on_c, 7, 84, 96
9, 135480, Note_on_c, 7, 84, 0
9, 135480, Note_on_c, 7, 83, 96
9, 135600, Note_on_c, 7, 83, 0
9, 135600, Note_on_c, 7, 81, 96
9, 135790, Note_on_c, 7, 81, 0
9, 135840, Note_on_c, 7, 81, 96
9, 136030, Note_on_c, 7, 81, 0
9, 136080, Note_on_c, 7, 81, 96
9, 136270, Note_on_c, 7, 81, 0
9, 136320, Note_on_c, 7, 83, 96
9, 137080, Note_on_c, 7, 83, 0
9, 137280, Note_on_c, 7, 83, 96
9, 137850, Note_on_c, 7, 83, 0
9, 138000, Note_on_c, 7, 83, 96
9, 138190, Note_on_c, 7, 83, 0
9, 138240, Note_on_c, 7, 84, 96
9, 138360, Note_on_c, 7, 84, 0
9, 138360, Note_on_c, 7, 83, 96
9, 138480, Note_on_c, 7, 83, 0
9, 138480, Note_on_c, 7, 81, 96
9, 138670, Note_on_c, 7, 81, 0
9, 138720, Note_on_c, 7, 81, 96
9, 138910, Note_on_c, 7, 81, 0
9, 138960, Note_on_c, 7, 81, 96
9, 139150, Note_on_c, 7, 81, 0
9, 139200, Note_on_c, 7, 84, 96
9, 139320, Note_on_c, 7, 84, 0
9, 139320, Note_on_c, 7, 83, 96
9, 139440, Note_on_c, 7, 83, 0
9, 139440, Note_on_c, 7, 81, 96
9, 139630, Note_on_c, 7, 81, 0
9, 139680, Note_on_c, 7, 81, 96
9, 139870, Note_on_c, 7, 81, 0
9, 139920, Note_on_c, 7, 81, 96
9, 140110, Note_on_c, 7, 81, 0
9, 140160, Note_on_c, 7, 80, 96
9, 140350, Note_on_c, 7, 80, 0
9, 140400, Note_on_c, 7, 76, 96
9, 140590, Note_on_c, 7, 76, 0
9, 140640, Note_on_c, 7, 84, 96
9, 140830, Note_on_c, 7, 84, 0
9, 140880, Note_on_c, 7, 81, 96
9, 141070, Note_on_c, 7, 81, 0
9, 141120, Note_on_c, 7, 80, 96
9, 141310, Note_on_c, 7, 80, 0
9, 141360, Note_on_c, 7, 76, 96
9, 141550, Note_on_c, 7, 76, 0
9, 141600, Note_on_c, 7, 84, 96
9, 141790, Note_on_c, 7, 84, 0
9, 141840, Note_on_c, 7, 81, 96
9, 142030, Note_on_c, 7, 81, 0
9, 142080, Note_on_c, 7, 80, 96
9, 142270, Note_on_c, 7, 80, 0
9, 142320, Note_on_c, 7, 76, 96
9, 142510, Note_on_c, 7, 76, 0
9, 142560, Note_on_c, 7, 84, 96
9, 142750, Note_on_c, 7, 84, 0
9, 142800, Note_on_c, 7, 81, 96
9, 142990, Note_on_c, 7, 81, 0
9, 143040, Note_on_c, 7, 80, 96
9, 143230, Note_on_c, 7, 80, 0
9, 143280, Note_on_c, 7, 76, 96
9, 143470, Note_on_c, 7, 76, 0
9, 143520, Note_on_c, 7, 84, 96
9, 143710, Note_on_c, 7, 84, 0
9, 143760, Note_on_c, 7, 81, 96
9, 143950, Note_on_c, 7, 81, 0
9, 144000, Note_on_c, 7, 76, 96
9, 144380, Note_on_c, 7, 76, 0
9, 144480, Note_on_c, 7, 88, 96
9, 144860, Note_on_c, 7, 88, 0
9, 144960, Note_on_c, 7, 64, 96
9, 145340, Note_on_c, 7, 64, 0
9, 145440, Note_on_c, 7, 64, 96
9, 145820, Note_on_c, 7, 64, 0
9, 145920, Note_on_c, 7, 64, 96
9, 146680, Note_on_c, 7, 64, 0
9, 147840, Note_on_c, 7, 62, 101
9, 148990, Note_on_c, 7, 62, 0
9, 149280, Note_on_c, 7, 61, 96
9, 149400, Note_on_c, 7, 61, 0
9, 149760, Note_on_c, 7, 59, 96
9, 149880, Note_on_c, 7, 59, 0
9, 150240, Note_on_c, 7, 57, 96
9, 150360, Note_on_c, 7, 57, 0
9, 150720, Note_on_c, 7, 56, 96
9, 150840, Note_on_c, 7, 56, 0
9, 151200, Note_on_c, 7, 76, 64
9, 151260, Note_on_c, 7, 76, 0
9, 151440, Note_on_c, 7, 76, 64
9, 151500, Note_on_c, 7, 76, 0
9, 151680, Note_on_c, 7, 80, 64
9, 151720, Note_on_c, 7, 80, 0
9, 151740, Note_on_c, 7, 78, 70
9, 151920, Note_on_c, 7, 78, 0
9, 151920, Note_on_c, 7, 76, 64
9, 152110, Note_on_c, 7, 76, 0
9, 152160, Note_on_c, 7, 76, 64
9, 152220, Note_on_c, 7, 76, 0
9, 152400, Note_on_c, 7, 76, 64
9, 152460, Note_on_c, 7, 76, 0
9, 152640, Note_on_c, 7, 80, 64
9, 152680, Note_on_c, 7, 80, 0
9, 152700, Note_on_c, 7, 78, 70
9, 152880, Note_on_c, 7, 78, 0
9, 152880, Note_on_c, 7, 76, 64
9, 153120, Note_on_c, 7, 76, 0
9, 153120, Note_on_c, 7, 76, 64
9, 153180, Note_on_c, 7, 76, 0
9, 153360, Note_on_c, 7, 76, 64
9, 153420, Note_on_c, 7, 76, 0
9, 153600, Note_on_c, 7, 76, 64
9, 153840, Note_on_c, 7, 76, 0
9, 153840, Note_on_c, 7, 81, 64
9, 154030, Note_on_c, 7, 81, 0
9, 154080, Note_on_c, 7, 76, 64
9, 154140, Note_on_c, 7, 76, 0
9, 154320, Note_on_c, 7, 76, 64
9, 154380, Note_on_c, 7, 76, 0
9, 154560, Note_on_c, 7, 76, 64
9, 154940, Note_on_c, 7, 76, 0
9, 155520, Note_on_c, 7, 62, 101
9, 156670, Note_on_c, 7, 62, 0
9, 156960, Note_on_c, 7, 61, 64
9, 157080, Note_on_c, 7, 61, 0
9, 157440, Note_on_c, 7, 59, 64
9, 157560, Note_on_c, 7, 59, 0
9, 157920, Note_on_c, 7, 57, 64
9, 158040, Note_on_c, 7, 57, 0
9, 158400, Note_on_c, 7, 56, 64
9, 158520, Note_on_c, 7, 56, 0
9, 158880, Note_on_c, 7, 76, 64
9, 158940, Note_on_c, 7, 76, 0
9, 159120, Note_on_c, 7, 76, 64
9, 159180, Note_on_c, 7, 76, 0
9, 159360, Note_on_c, 7, 80, 64
9, 159400, Note_on_c, 7, 80, 0
9, 159420, Note_on_c, 7, 78, 70
9, 159600, Note_on_c, 7, 78, 0
9, 159600, Note_on_c, 7, 76, 64
9, 159790, Note_on_c, 7, 76, 0
9, 159840, Note_on_c, 7, 76, 64
9, 159900, Note_on_c, 7, 76, 0
9, 160080, Note_on_c, 7, 76, 64
9, 160140, Note_on_c, 7, 76, 0
9, 160320, Note_on_c, 7, 80, 64
9, 160360, Note_on_c, 7, 80, 0
9, 160380, Note_on_c, 7, 78, 70
9, 160560, Note_on_c, 7, 78, 0
9, 160560, Note_on_c, 7, 76, 64
9, 160750, Note_on_c, 7, 76, 0
9, 160800, Note_on_c, 7, 76, 64
9, 160860, Note_on_c, 7, 76, 0
9, 161040, Note_on_c, 7, 76, 64
9, 161100, Note_on_c, 7, 76, 0
9, 161280, Note_on_c, 7, 76, 64
9, 161520, Note_on_c, 7, 76, 0
9, 161520, Note_on_c, 7, 81, 64
9, 161710, Note_on_c, 7, 81, 0
9, 161760, Note_on_c, 7, 76, 64
9, 161820, Note_on_c, 7, 76, 0
9, 162000, Note_on_c, 7, 76, 64
9, 162060, Note_on_c, 7, 76, 0
9, 162240, Note_on_c, 7, 76, 64
9, 162620, Note_on_c, 7, 76, 0
9, 163200, Note_on_c, 7, 62, 96
9, 164350, Note_on_c, 7, 62, 0
9, 164640, Note_on_c, 7, 61, 64
9, 164760, Note_on_c, 7, 61, 0
9, 165120, Note_on_c, 7, 59, 64
9, 165240, Note_on_c, 7, 59, 0
9, 165600, Note_on_c, 7, 57, 64
9, 165720, Note_on_c, 7, 57, 0
9, 166080, Note_on_c, 7, 56, 64
9, 166200, Note_on_c, 7, 56, 0
9, 167040, Note_on_c, 7, 62, 96
9, 168190, Note_on_c, 7, 62, 0
9, 168480, Note_on_c, 7, 60, 64
9, 168600, Note_on_c, 7, 60, 0
9, 168960, Note_on_c, 7, 59, 64
9, 169080, Note_on_c, 7, 59, 0
9, 169440, Note_on_c, 7, 57, 64
9, 169560, Note_on_c, 7, 57, 0
9, 169920, Note_on_c, 7, 56, 64
9, 170040, Note_on_c, 7, 56, 0
9, 170880, Note_on_c, 7, 62, 96
9, 172030, Note_on_c, 7, 62, 0
9, 172320, Note_on_c, 7, 60, 64
9, 172440, Note_on_c, 7, 60, 0
9, 172800, Note_on_c, 7, 59, 64
9, 172920, Note_on_c, 7, 59, 0
9, 173280, Note_on_c, 7, 57, 64
9, 173400, Note_on_c, 7, 57, 0
9, 173760, Note_on_c, 7, 55, 64
9, 173880, Note_on_c, 7, 55, 0
9, 174720, Note_on_c, 7, 65, 64
9, 174960, Note_on_c, 7, 65, 0
9, 174960, Note_on_c, 7, 55, 64
9, 175200, Note_on_c, 7, 55, 0
9, 175200, Note_on_c, 7, 65, 64
9, 175440, Note_on_c, 7, 65, 0
9, 175440, Note_on_c, 7, 55, 64
9, 175680, Note_on_c, 7, 55, 0
9, 175680, Note_on_c, 7, 62, 64
9, 175920, Note_on_c, 7, 62, 0
9, 175920, Note_on_c, 7, 55, 64
9, 176160, Note_on_c, 7, 55, 0
9, 176160, Note_on_c, 7, 62, 64
9, 176400, Note_on_c, 7, 62, 0
9, 176400, Note_on_c, 7, 55, 64
9, 176590, Note_on_c, 7, 55, 0
9, 176640, Note_on_c, 7, 64, 64
9, 176880, Note_on_c, 7, 64, 0
9, 176880, Note_on_c, 7, 55, 64
9, 177120, Note_on_c, 7, 55, 0
9, 177120, Note_on_c, 7, 64, 64
9, 177360, Note_on_c, 7, 64, 0
9, 177360, Note_on_c, 7, 55, 64
9, 177600, Note_on_c, 7, 55, 0
9, 177600, Note_on_c, 7, 67, 64
9, 177840, Note_on_c, 7, 67, 0
9, 177840, Note_on_c, 7, 55, 64
9, 178080, Note_on_c, 7, 55, 0
9, 178080, Note_on_c, 7, 67, 64
9, 178320, Note_on_c, 7, 67, 0
9, 178320, Note_on_c, 7, 55, 64
9, 178510, Note_on_c, 7, 55, 0
9, 178560, Note_on_c, 7, 65, 64
9, 178800, Note_on_c, 7, 65, 0
9, 178800, Note_on_c, 7, 55, 64
9, 179040, Note_on_c, 7, 55, 0
9, 179040, Note_on_c, 7, 65, 64
9, 179280, Note_on_c, 7, 65, 0
9, 179280, Note_on_c, 7, 55, 64
9, 179520, Note_on_c, 7, 55, 0
9, 179520, Note_on_c, 7, 62, 64
9, 179760, Note_on_c, 7, 62, 0
9, 179760, Note_on_c, 7, 55, 64
9, 180000, Note_on_c, 7, 55, 0
9, 180000, Note_on_c, 7, 62, 64
9, 180240, Note_on_c, 7, 62, 0
9, 180240, Note_on_c, 7, 55, 64
9, 180430, Note_on_c, 7, 55, 0
9, 180480, Note_on_c, 7, 64, 64
9, 180720, Note_on_c, 7, 64, 0
9, 180720, Note_on_c, 7, 55, 64
9, 180960, Note_on_c, 7, 55, 0
9, 180960, Note_on_c, 7, 64, 64
9, 181200, Note_on_c, 7, 64, 0
9, 181200, Note_on_c, 7, 55, 64
9, 181440, Note_on_c, 7, 55, 0
9, 181440, Note_on_c, 7, 67, 64
9, 181680, Note_on_c, 7, 67, 0
9, 181680, Note_on_c, 7, 55, 64
9, 181920, Note_on_c, 7, 55, 0
9, 181920, Note_on_c, 7, 67, 64
9, 182160, Note_on_c, 7, 67, 0
9, 182160, Note_on_c, 7, 55, 64
9, 182350, Note_on_c, 7, 55, 0
9, 182400, Note_on_c, 7, 62, 64
9, 182640, Note_on_c, 7, 62, 0
9, 182640, Note_on_c, 7, 61, 64
9, 182880, Note_on_c, 7, 61, 0
9, 182880, Note_on_c, 7, 62, 64
9, 183120, Note_on_c, 7, 62, 0
9, 183120, Note_on_c, 7, 61, 64
9, 183360, Note_on_c, 7, 61, 0
9, 183360, Note_on_c, 7, 62, 64
9, 183600, Note_on_c, 7, 62, 0
9, 183600, Note_on_c, 7, 65, 64
9, 183840, Note_on_c, 7, 65, 0
9, 183840, Note_on_c, 7, 64, 64
9, 184080, Note_on_c, 7, 64, 0
9, 184080, Note_on_c, 7, 62, 64
9, 184270, Note_on_c, 7, 62, 0
9, 184320, Note_on_c, 7, 60, 64
9, 184560, Note_on_c, 7, 60, 0
9, 184560, Note_on_c, 7, 59, 64
9, 184800, Note_on_c, 7, 59, 0
9, 184800, Note_on_c, 7, 60, 64
9, 185040, Note_on_c, 7, 60, 0
9, 185040, Note_on_c, 7, 59, 64
9, 185280, Note_on_c, 7, 59, 0
9, 185280, Note_on_c, 7, 60, 64
9, 185520, Note_on_c, 7, 60, 0
9, 185520, Note_on_c, 7, 59, 64
9, 185760, Note_on_c, 7, 59, 0
9, 185760, Note_on_c, 7, 60, 64
9, 186000, Note_on_c, 7, 60, 0
9, 186000, Note_on_c, 7, 59, 64
9, 186240, Note_on_c, 7, 59, 0
9, 186240, Note_on_c, 7, 60, 64
9, 186430, Note_on_c, 7, 60, 0
9, 186480, Note_on_c, 7, 60, 64
9, 186670, Note_on_c, 7, 60, 0
9, 186720, Note_on_c, 7, 60, 64
9, 186910, Note_on_c, 7, 60, 0
9, 186960, Note_on_c, 7, 60, 64
9, 187150, Note_on_c, 7, 60, 0
9, 187200, Note_on_c, 7, 64, 64
9, 187390, Note_on_c, 7, 64, 0
9, 187440, Note_on_c, 7, 64, 64
9, 187630, Note_on_c, 7, 64, 0
9, 187680, Note_on_c, 7, 60, 64
9, 187870, Note_on_c, 7, 60, 0
9, 187920, Note_on_c, 7, 60, 64
9, 188110, Note_on_c, 7, 60, 0
9, 188160, Note_on_c, 7, 59, 64
9, 188350, Note_on_c, 7, 59, 0
9, 188400, Note_on_c, 7, 59, 64
9, 188590, Note_on_c, 7, 59, 0
9, 188640, Note_on_c, 7, 59, 64
9, 188830, Note_on_c, 7, 59, 0
9, 188880, Note_on_c, 7, 59, 64
9, 189070, Note_on_c, 7, 59, 0
9, 189120, Note_on_c, 7, 62, 64
9, 189310, Note_on_c, 7, 62, 0
9, 189360, Note_on_c, 7, 62, 64
9, 189550, Note_on_c, 7, 62, 0
9, 189600, Note_on_c, 7, 59, 64
9, 189790, Note_on_c, 7, 59, 0
9, 189840, Note_on_c, 7, 59, 64
9, 190030, Note_on_c, 7, 59, 0
9, 190080, Note_on_c, 7, 57, 96
9, 190840, Note_on_c, 7, 57, 0
9, 191040, Note_on_c, 7, 85, 96
9, 191160, Note_on_c, 7, 85, 0
9, 191160, Note_on_c, 7, 83, 96
9, 191280, Note_on_c, 7, 83, 0
9, 191280, Note_on_c, 7, 81, 96
9, 191470, Note_on_c, 7, 81, 0
9, 191520, Note_on_c, 7, 81, 96
9, 191710, Note_on_c, 7, 81, 0
9, 191760, Note_on_c, 7, 81, 96
9, 191950, Note_on_c, 7, 81, 0
9, 192000, Note_on_c, 7, 81, 96
9, 192000, Note_on_c, 7, 69, 96
9, 192760, Note_on_c, 7, 69, 0
9, 192760, Note_on_c, 7, 81, 0
9, 192960, Note_on_c, 7, 85, 96
9, 193080, Note_on_c, 7, 85, 0
9, 193080, Note_on_c, 7, 83, 96
9, 193200, Note_on_c, 7, 83, 0
9, 193200, Note_on_c, 7, 81, 96
9, 193390, Note_on_c, 7, 81, 0
9, 193440, Note_on_c, 7, 81, 96
9, 193630, Note_on_c, 7, 81, 0
9, 193680, Note_on_c, 7, 81, 96
9, 193870, Note_on_c, 7, 81, 0
9, 193920, Note_on_c, 7, 78, 96
9, 194110, Note_on_c, 7, 78, 0
9, 194160, Note_on_c, 7, 82, 96
9, 194350, Note_on_c, 7, 82, 0
9, 194400, Note_on_c, 7, 83, 96
9, 194590, Note_on_c, 7, 83, 0
9, 194640, Note_on_c, 7, 82, 96
9, 194830, Note_on_c, 7, 82, 0
9, 194880, Note_on_c, 7, 83, 96
9, 196030, Note_on_c, 7, 83, 0
9, 196080, Note_on_c, 7, 85, 96
9, 196270, Note_on_c, 7, 85, 0
9, 196320, Note_on_c, 7, 86, 96
9, 196510, Note_on_c, 7, 86, 0
9, 196560, Note_on_c, 7, 85, 96
9, 196750, Note_on_c, 7, 85, 0
9, 196800, Note_on_c, 7, 86, 96
9, 196990, Note_on_c, 7, 86, 0
9, 197040, Note_on_c, 7, 85, 96
9, 197230, Note_on_c, 7, 85, 0
9, 197280, Note_on_c, 7, 86, 96
9, 197470, Note_on_c, 7, 86, 0
9, 197520, Note_on_c, 7, 83, 96
9, 197710, Note_on_c, 7, 83, 0
9, 197760, Note_on_c, 7, 81, 96
9, 198000, Note_on_c, 7, 81, 0
9, 198000, Note_on_c, 7, 76, 96
9, 198240, Note_on_c, 7, 76, 0
9, 198240, Note_on_c, 7, 81, 96
9, 198430, Note_on_c, 7, 81, 0
9, 198480, Note_on_c, 7, 81, 96
9, 198670, Note_on_c, 7, 81, 0
9, 198720, Note_on_c, 7, 81, 96
9, 200060, Note_on_c, 7, 81, 0
9, 200160, Note_on_c, 7, 83, 96
9, 200350, Note_on_c, 7, 83, 0
9, 200400, Note_on_c, 7, 85, 96
9, 200590, Note_on_c, 7, 85, 0
9, 200640, Note_on_c, 7, 85, 96
9, 200880, Note_on_c, 7, 85, 0
9, 200880, Note_on_c, 7, 83, 96
9, 201070, Note_on_c, 7, 83, 0
9, 201120, Note_on_c, 7, 81, 96
9, 201180, Note_on_c, 7, 81, 0
9, 201360, Note_on_c, 7, 80, 96
9, 201420, Note_on_c, 7, 80, 0
9, 201600, Note_on_c, 7, 81, 96
9, 201600, Note_on_c, 7, 69, 96
9, 202360, Note_on_c, 7, 69, 0
9, 202360, Note_on_c, 7, 81, 0
9, 202560, Note_on_c, 7, 85, 96
9, 202680, Note_on_c, 7, 85, 0
9, 202680, Note_on_c, 7, 83, 96
9, 202800, Note_on_c, 7, 83, 0
9, 202800, Note_on_c, 7, 81, 96
9, 202990, Note_on_c, 7, 81, 0
9, 203040, Note_on_c, 7, 81, 96
9, 203230, Note_on_c, 7, 81, 0
9, 203280, Note_on_c, 7, 81, 96
9, 203470, Note_on_c, 7, 81, 0
9, 203520, Note_on_c, 7, 81, 96
9, 203520, Note_on_c, 7, 69, 96
9, 204280, Note_on_c, 7, 69, 0
9, 204280, Note_on_c, 7, 81, 0
9, 204480, Note_on_c, 7, 85, 96
9, 204600, Note_on_c, 7, 85, 0
9, 204600, Note_on_c, 7, 83, 96
9, 204720, Note_on_c, 7, 83, 0
9, 204720, Note_on_c, 7, 81, 96
9, 204910, Note_on_c, 7, 81, 0
9, 204960, Note_on_c, 7, 81, 96
9, 205150, Note_on_c, 7, 81, 0
9, 205200, Note_on_c, 7, 81, 96
9, 205390, Note_on_c, 7, 81, 0
9, 205440, Note_on_c, 7, 78, 96
9, 205630, Note_on_c, 7, 78, 0
9, 205680, Note_on_c, 7, 82, 96
9, 205870, Note_on_c, 7, 82, 0
9, 205920, Note_on_c, 7, 83, 96
9, 206110, Note_on_c, 7, 83, 0
9, 206160, Note_on_c, 7, 82, 96
9, 206350, Note_on_c, 7, 82, 0
9, 206400, Note_on_c, 7, 83, 96
9, 207550, Note_on_c, 7, 83, 0
9, 207600, Note_on_c, 7, 85, 96
9, 207790, Note_on_c, 7, 85, 0
9, 207840, Note_on_c, 7, 86, 96
9, 208030, Note_on_c, 7, 86, 0
9, 208080, Note_on_c, 7, 85, 96
9, 208270, Note_on_c, 7, 85, 0
9, 208320, Note_on_c, 7, 86, 96
9, 208510, Note_on_c, 7, 86, 0
9, 208560, Note_on_c, 7, 85, 96
9, 208750, Note_on_c, 7, 85, 0
9, 208800, Note_on_c, 7, 86, 96
9, 208990, Note_on_c, 7, 86, 0
9, 209040, Note_on_c, 7, 83, 96
9, 209230, Note_on_c, 7, 83, 0
9, 209280, Note_on_c, 7, 81, 96
9, 209520, Note_on_c, 7, 81, 0
9, 209520, Note_on_c, 7, 76, 96
9, 209760, Note_on_c, 7, 76, 0
9, 209760, Note_on_c, 7, 81, 96
9, 209950, Note_on_c, 7, 81, 0
9, 210000, Note_on_c, 7, 81, 96
9, 210190, Note_on_c, 7, 81, 0
9, 210240, Note_on_c, 7, 81, 96
9, 211580, Note_on_c, 7, 81, 0
9, 211680, Note_on_c, 7, 83, 96
9, 211870, Note_on_c, 7, 83, 0
9, 211920, Note_on_c, 7, 85, 96
9, 212110, Note_on_c, 7, 85, 0
9, 212160, Note_on_c, 7, 85, 96
9, 212400, Note_on_c, 7, 85, 0
9, 212400, Note_on_c, 7, 83, 96
9, 212640, Note_on_c, 7, 83, 0
9, 212640, Note_on_c, 7, 81, 96
9, 212700, Note_on_c, 7, 81, 0
9, 212880, Note_on_c, 7, 80, 96
9, 212940, Note_on_c, 7, 80, 0
9, 213120, Note_on_c, 7, 81, 96
9, 213310, Note_on_c, 7, 81, 0
9, 213360, Note_on_c, 7, 85, 96
9, 213550, Note_on_c, 7, 85, 0
9, 213600, Note_on_c, 7, 76, 96
9, 213790, Note_on_c, 7, 76, 0
9, 213840, Note_on_c, 7, 80, 96
9, 214030, Note_on_c, 7, 80, 0
9, 214080, Note_on_c, 7, 81, 96
9, 214270, Note_on_c, 7, 81, 0
9, 214320, Note_on_c, 7, 85, 96
9, 214510, Note_on_c, 7, 85, 0
9, 214560, Note_on_c, 7, 86, 96
9, 214750, Note_on_c, 7, 86, 0
9, 214800, Note_on_c, 7, 83, 96
9, 214990, Note_on_c, 7, 83, 0
9, 215040, Note_on_c, 7, 81, 96
9, 215230, Note_on_c, 7, 81, 0
9, 215280, Note_on_c, 7, 85, 96
9, 215470, Note_on_c, 7, 85, 0
9, 215520, Note_on_c, 7, 76, 96
9, 215710, Note_on_c, 7, 76, 0
9, 215760, Note_on_c, 7, 80, 96
9, 215950, Note_on_c, 7, 80, 0
9, 216000, Note_on_c, 7, 81, 96
9, 216190, Note_on_c, 7, 81, 0
9, 216240, Note_on_c, 7, 85, 96
9, 216430, Note_on_c, 7, 85, 0
9, 216480, Note_on_c, 7, 86, 96
9, 216670, Note_on_c, 7, 86, 0
9, 216720, Note_on_c, 7, 83, 96
9, 216910, Note_on_c, 7, 83, 0
9, 216960, Note_on_c, 7, 81, 96
9, 217150, Note_on_c, 7, 81, 0
9, 217200, Note_on_c, 7, 85, 96
9, 217390, Note_on_c, 7, 85, 0
9, 217440, Note_on_c, 7, 76, 96
9, 217630, Note_on_c, 7, 76, 0
9, 217680, Note_on_c, 7, 80, 96
9, 217870, Note_on_c, 7, 80, 0
9, 217920, Note_on_c, 7, 81, 96
9, 218110, Note_on_c, 7, 81, 0
9, 218160, Note_on_c, 7, 85, 96
9, 218350, Note_on_c, 7, 85, 0
9, 218400, Note_on_c, 7, 86, 96
9, 218590, Note_on_c, 7, 86, 0
9, 218640, Note_on_c, 7, 83, 96
9, 218830, Note_on_c, 7, 83, 0
9, 218880, Note_on_c, 7, 81, 96
9, 219070, Note_on_c, 7, 81, 0
9, 219120, Note_on_c, 7, 85, 96
9, 219310, Note_on_c, 7, 85, 0
9, 219360, Note_on_c, 7, 76, 96
9, 219550, Note_on_c, 7, 76, 0
9, 219600, Note_on_c, 7, 80, 96
9, 219790, Note_on_c, 7, 80, 0
9, 219840, Note_on_c, 7, 81, 96
9, 220030, Note_on_c, 7, 81, 0
9, 220080, Note_on_c, 7, 85, 96
9, 220270, Note_on_c, 7, 85, 0
9, 220320, Note_on_c, 7, 86, 96
9, 220510, Note_on_c, 7, 86, 0
9, 220560, Note_on_c, 7, 83, 96
9, 220750, Note_on_c, 7, 83, 0
9, 220800, Note_on_c, 7, 81, 96
9, 221040, Note_on_c, 7, 81, 0
9, 221040, Note_on_c, 7, 76, 96
9, 221230, Note_on_c, 7, 76, 0
9, 221280, Note_on_c, 7, 85, 96
9, 221340, Note_on_c, 7, 85, 0
9, 221520, Note_on_c, 7, 85, 96
9, 221580, Note_on_c, 7, 85, 0
9, 221760, Note_on_c, 7, 85, 96
9, 222000, Note_on_c, 7, 85, 0
9, 222000, Note_on_c, 7, 81, 96
9, 222190, Note_on_c, 7, 81, 0
9, 222240, Note_on_c, 7, 88, 96
9, 222300, Note_on_c, 7, 88, 0
9, 222480, Note_on_c, 7, 88, 96
9, 222540, Note_on_c, 7, 88, 0
9, 222720, Note_on_c, 7, 88, 96
9, 222910, Note_on_c, 7, 88, 0
9, 222960, Note_on_c, 7, 88, 96
9, 223150, Note_on_c, 7, 88, 0
9, 223200, Note_on_c, 7, 88, 96
9, 223390, Note_on_c, 7, 88, 0
9, 223440, Note_on_c, 7, 88, 96
9, 223630, Note_on_c, 7, 88, 0
9, 223680, Note_on_c, 7, 88, 96
9, 223870, Note_on_c, 7, 88, 0
9, 223920, Note_on_c, 7, 85, 96
9, 224110, Note_on_c, 7, 85, 0
9, 224160, Note_on_c, 7, 81, 96
9, 224350, Note_on_c, 7, 81, 0
9, 224400, Note_on_c, 7, 76, 96
9, 224590, Note_on_c, 7, 76, 0
9, 224640, Note_on_c, 7, 85, 96
9, 224830, Note_on_c, 7, 85, 0
9, 224880, Note_on_c, 7, 85, 96
9, 225070, Note_on_c, 7, 85, 0
9, 225120, Note_on_c, 7, 85, 96
9, 225310, Note_on_c, 7, 85, 0
9, 225360, Note_on_c, 7, 85, 96
9, 225550, Note_on_c, 7, 85, 0
9, 225600, Note_on_c, 7, 85, 96
9, 225790, Note_on_c, 7, 85, 0
9, 225840, Note_on_c, 7, 81, 96
9, 226030, Note_on_c, 7, 81, 0
9, 226080, Note_on_c, 7, 76, 96
9, 226270, Note_on_c, 7, 76, 0
9, 226320, Note_on_c, 7, 73, 96
9, 226510, Note_on_c, 7, 73, 0
9, 226560, Note_on_c, 7, 81, 96
9, 226750, Note_on_c, 7, 81, 0
9, 226800, Note_on_c, 7, 81, 96
9, 226990, Note_on_c, 7, 81, 0
9, 227040, Note_on_c, 7, 81, 96
9, 227230, Note_on_c, 7, 81, 0
9, 227280, Note_on_c, 7, 81, 96
9, 227470, Note_on_c, 7, 81, 0
9, 227520, Note_on_c, 7, 81, 96
9, 227710, Note_on_c, 7, 81, 0
9, 227760, Note_on_c, 7, 76, 96
9, 227950, Note_on_c, 7, 76, 0
9, 228000, Note_on_c, 7, 73, 96
9, 228190, Note_on_c, 7, 73, 0
9, 228240, Note_on_c, 7, 69, 96
9, 228430, Note_on_c, 7, 69, 0
9, 228480, Note_on_c, 7, 81, 96
9, 228860, Note_on_c, 7, 81, 0
9, 229440, Note_on_c, 7, 85, 96
9, 229440, Note_on_c, 7, 69, 96
9, 229820, Note_on_c, 7, 69, 0
9, 229820, Note_on_c, 7, 85, 0
9, 230400, Note_on_c, 7, 57, 96
9, 231160, Note_on_c, 7, 57, 0
9, 232320, Note_on_c, 7, 64, 96
9, 233470, Note_on_c, 7, 64, 0
9, 233760, Note_on_c, 7, 62, 96
9, 233880, Note_on_c, 7, 62, 0
9, 234240, Note_on_c, 7, 61, 96
9, 234360, Note_on_c, 7, 61, 0
9, 234720, Note_on_c, 7, 59, 96
9, 234840, Note_on_c, 7, 59, 0
9, 235200, Note_on_c, 7, 57, 96
9, 235320, Note_on_c, 7, 57, 0
9, 235680, Note_on_c, 7, 81, 64
9, 235740, Note_on_c, 7, 81, 0
9, 235920, Note_on_c, 7, 81, 64
9, 235980, Note_on_c, 7, 81, 0
9, 236160, Note_on_c, 7, 85, 64
9, 236200, Note_on_c, 7, 85, 0
9, 236220, Note_on_c, 7, 83, 70
9, 236400, Note_on_c, 7, 83, 0
9, 236400, Note_on_c, 7, 81, 64
9, 236590, Note_on_c, 7, 81, 0
9, 236640, Note_on_c, 7, 81, 64
9, 236700, Note_on_c, 7, 81, 0
9, 236880, Note_on_c, 7, 81, 64
9, 236940, Note_on_c, 7, 81, 0
9, 237120, Note_on_c, 7, 85, 64
9, 237160, Note_on_c, 7, 85, 0
9, 237180, Note_on_c, 7, 83, 70
9, 237360, Note_on_c, 7, 83, 0
9, 237360, Note_on_c, 7, 81, 64
9, 237550, Note_on_c, 7, 81, 0
9, 237600, Note_on_c, 7, 81, 64
9, 237660, Note_on_c, 7, 81, 0
9, 237840, Note_on_c, 7, 81, 64
9, 237900, Note_on_c, 7, 81, 0
9, 238080, Note_on_c, 7, 81, 64
9, 238320, Note_on_c, 7, 81, 0
9, 238320, Note_on_c, 7, 85, 64
9, 238510, Note_on_c, 7, 85, 0
9, 238560, Note_on_c, 7, 88, 64
9, 238620, Note_on_c, 7, 88, 0
9, 238800, Note_on_c, 7, 85, 64
9, 238860, Note_on_c, 7, 85, 0
9, 239040, Note_on_c, 7, 81, 64
9, 239420, Note_on_c, 7, 81, 0
9, 240000, Note_on_c, 7, 66, 96
9, 241150, Note_on_c, 7, 66, 0
9, 241440, Note_on_c, 7, 61, 96
9, 241560, Note_on_c, 7, 61, 0
9, 241920, Note_on_c, 7, 62, 96
9, 242040, Note_on_c, 7, 62, 0
9, 242400, Note_on_c, 7, 59, 96
9, 242520, Note_on_c, 7, 59, 0
9, 242880, Note_on_c, 7, 57, 96
9, 243000, Note_on_c, 7, 57, 0
9, 243360, Note_on_c, 7, 81, 64
9, 243420, Note_on_c, 7, 81, 0
9, 243600, Note_on_c, 7, 81, 64
9, 243660, Note_on_c, 7, 81, 0
9, 243840, Note_on_c, 7, 85, 64
9, 243880, Note_on_c, 7, 85, 0
9, 243900, Note_on_c, 7, 83, 70
9, 244080, Note_on_c, 7, 83, 0
9, 244080, Note_on_c, 7, 81, 64
9, 244270, Note_on_c, 7, 81, 0
9, 244320, Note_on_c, 7, 81, 64
9, 244380, Note_on_c, 7, 81, 0
9, 244560, Note_on_c, 7, 81, 64
9, 244620, Note_on_c, 7, 81, 0
9, 244800, Note_on_c, 7, 85, 64
9, 244840, Note_on_c, 7, 85, 0
9, 244860, Note_on_c, 7, 83, 70
9, 245040, Note_on_c, 7, 83, 0
9, 245040, Note_on_c, 7, 81, 64
9, 245230, Note_on_c, 7, 81, 0
9, 245280, Note_on_c, 7, 81, 64
9, 245340, Note_on_c, 7, 81, 0
9, 245520, Note_on_c, 7, 81, 64
9, 245580, Note_on_c, 7, 81, 0
9, 245760, Note_on_c, 7, 81, 64
9, 246000, Note_on_c, 7, 81, 0
9, 246000, Note_on_c, 7, 85, 64
9, 246190, Note_on_c, 7, 85, 0
9, 246240, Note_on_c, 7, 86, 64
9, 246300, Note_on_c, 7, 86, 0
9, 246480, Note_on_c, 7, 83, 64
9, 246540, Note_on_c, 7, 83, 0
9, 246720, Note_on_c, 7, 81, 64
9, 247100, Note_on_c, 7, 81, 0
9, 247680, Note_on_c, 7, 67, 96
9, 248830, Note_on_c, 7, 67, 0
9, 249120, Note_on_c, 7, 66, 64
9, 249240, Note_on_c, 7, 66, 0
9, 249600, Note_on_c, 7, 64, 64
9, 249720, Note_on_c, 7, 64, 0
9, 250080, Note_on_c, 7, 62, 64
9, 250200, Note_on_c, 7, 62, 0
9, 250560, Note_on_c, 7, 61, 64
9, 250680, Note_on_c, 7, 61, 0
9, 251520, Note_on_c, 7, 64, 96
9, 252670, Note_on_c, 7, 64, 0
9, 252960, Note_on_c, 7, 62, 64
9, 253080, Note_on_c, 7, 62, 0
9, 253440, Note_on_c, 7, 61, 64
9, 253560, Note_on_c, 7, 61, 0
9, 253920, Note_on_c, 7, 59, 64
9, 254040, Note_on_c, 7, 59, 0
9, 254400, Note_on_c, 7, 58, 64
9, 254520, Note_on_c, 7, 58, 0
9, 256800, Note_on_c, 7, 71, 64
9, 256860, Note_on_c, 7, 71, 0
9, 257040, Note_on_c, 7, 71, 64
9, 257100, Note_on_c, 7, 71, 0
9, 257280, Note_on_c, 7, 74, 64
9, 257320, Note_on_c, 7, 74, 0
9, 257340, Note_on_c, 7, 73, 70
9, 257520, Note_on_c, 7, 73, 0
9, 257520, Note_on_c, 7, 71, 64
9, 257710, Note_on_c, 7, 71, 0
9, 257760, Note_on_c, 7, 71, 64
9, 257820, Note_on_c, 7, 71, 0
9, 258000, Note_on_c, 7, 71, 64
9, 258060, Note_on_c, 7, 71, 0
9, 258240, Note_on_c, 7, 74, 64
9, 258280, Note_on_c, 7, 74, 0
9, 258300, Note_on_c, 7, 73, 70
9, 258480, Note_on_c, 7, 73, 0
9, 258480, Note_on_c, 7, 71, 64
9, 258670, Note_on_c, 7, 71, 0
9, 258720, Note_on_c, 7, 71, 64
9, 258780, Note_on_c, 7, 71, 0
9, 258960, Note_on_c, 7, 71, 64
9, 259020, Note_on_c, 7, 71, 0
9, 259200, Note_on_c, 7, 71, 64
9, 259680, Note_on_c, 7, 71, 0
9, 259680, Note_on_c, 7, 76, 64
9, 260060, Note_on_c, 7, 76, 0
9, 264480, Note_on_c, 7, 81, 64
9, 264540, Note_on_c, 7, 81, 0
9, 264720, Note_on_c, 7, 81, 64
9, 264780, Note_on_c, 7, 81, 0
9, 264960, Note_on_c, 7, 84, 64
9, 265000, Note_on_c, 7, 84, 0
9, 265020, Note_on_c, 7, 82, 70
9, 265200, Note_on_c, 7, 82, 0
9, 265200, Note_on_c, 7, 81, 64
9, 265390, Note_on_c, 7, 81, 0
9, 265440, Note_on_c, 7, 81, 64
9, 265500, Note_on_c, 7, 81, 0
9, 265680, Note_on_c, 7, 81, 64
9, 265740, Note_on_c, 7, 81, 0
9, 265920, Note_on_c, 7, 84, 64
9, 265960, Note_on_c, 7, 84, 0
9, 265980, Note_on_c, 7, 82, 70
9, 266160, Note_on_c, 7, 82, 0
9, 266160, Note_on_c, 7, 81, 64
9, 266350, Note_on_c, 7, 81, 0
9, 266400, Note_on_c, 7, 81, 64
9, 266460, Note_on_c, 7, 81, 0
9, 266640, Note_on_c, 7, 81, 64
9, 266700, Note_on_c, 7, 81, 0
9, 266880, Note_on_c, 7, 81, 64
9, 267360, Note_on_c, 7, 81, 0
9, 267360, Note_on_c, 7, 86, 64
9, 267740, Note_on_c, 7, 86, 0
9, 270720, Note_on_c, 7, 67, 64
9, 272640, Note_on_c, 7, 67, 0
9, 272640, Note_on_c, 7, 68, 64
9, 274170, Note_on_c, 7, 68, 0
9, 274560, Note_on_c, 7, 69, 64
9, 275040, Note_on_c, 7, 69, 0
9, 275040, Note_on_c, 7, 72, 64
9, 276000, Note_on_c, 7, 72, 0
9, 276000, Note_on_c, 7, 71, 64
9, 276380, Note_on_c, 7, 71, 0
9, 276480, Note_on_c, 7, 69, 64
9, 276960, Note_on_c, 7, 69, 0
9, 276960, Note_on_c, 7, 76, 64
9, 277920, Note_on_c, 7, 76, 0
9, 277920, Note_on_c, 7, 74, 64
9, 278300, Note_on_c, 7, 74, 0
9, 278400, Note_on_c, 7, 74, 64
9, 278640, Note_on_c, 7, 74, 0
9, 278640, Note_on_c, 7, 72, 64
9, 278830, Note_on_c, 7, 72, 0
9, 278880, Note_on_c, 7, 72, 64
9, 279070, Note_on_c, 7, 72, 0
9, 279120, Note_on_c, 7, 72, 64
9, 279310, Note_on_c, 7, 72, 0
9, 279360, Note_on_c, 7, 72, 64
9, 279600, Note_on_c, 7, 72, 0
9, 279600, Note_on_c, 7, 71, 64
9, 279790, Note_on_c, 7, 71, 0
9, 279840, Note_on_c, 7, 71, 64
9, 280030, Note_on_c, 7, 71, 0
9, 280080, Note_on_c, 7, 71, 64
9, 280270, Note_on_c, 7, 71, 0
9, 280320, Note_on_c, 7, 71, 64
9, 280560, Note_on_c, 7, 71, 0
9, 280560, Note_on_c, 7, 69, 64
9, 280750, Note_on_c, 7, 69, 0
9, 280800, Note_on_c, 7, 69, 64
9, 280990, Note_on_c, 7, 69, 0
9, 281040, Note_on_c, 7, 69, 64
9, 281230, Note_on_c, 7, 69, 0
9, 281280, Note_on_c, 7, 67, 64
9, 281520, Note_on_c, 7, 67, 0
9, 281520, Note_on_c, 7, 66, 64
9, 281760, Note_on_c, 7, 66, 0
9, 281760, Note_on_c, 7, 64, 64
9, 282000, Note_on_c, 7, 64, 0
9, 282000, Note_on_c, 7, 66, 64
9, 282190, Note_on_c, 7, 66, 0
9, 282240, Note_on_c, 7, 67, 96
9, 282620, Note_on_c, 7, 67, 0
9, 286080, Note_on_c, 7, 67, 96
9, 288000, Note_on_c, 7, 67, 0
9, 288000, Note_on_c, 7, 68, 96
9, 289530, Note_on_c, 7, 68, 0
9, 289920, Note_on_c, 7, 69, 96
9, 290400, Note_on_c, 7, 69, 0
9, 290400, Note_on_c, 7, 72, 96
9, 291360, Note_on_c, 7, 72, 0
9, 291360, Note_on_c, 7, 70, 96
9, 291740, Note_on_c, 7, 70, 0
9, 291840, Note_on_c, 7, 69, 96
9, 292320, Note_on_c, 7, 69, 0
9, 292320, Note_on_c, 7, 75, 96
9, 293280, Note_on_c, 7, 75, 0
9, 293280, Note_on_c, 7, 74, 96
9, 293660, Note_on_c, 7, 74, 0
9, 293760, Note_on_c, 7, 72, 96
9, 294240, Note_on_c, 7, 72, 0
9, 294240, Note_on_c, 7, 79, 96
9, 295200, Note_on_c, 7, 79, 0
9, 295200, Note_on_c, 7, 77, 96
9, 295580, Note_on_c, 7, 77, 0
9, 295680, Note_on_c, 7, 75, 96
9, 295800, Note_on_c, 7, 75, 0
9, 296160, Note_on_c, 7, 75, 96
9, 296280, Note_on_c, 7, 75, 0
9, 296640, Note_on_c, 7, 74, 96
9, 296760, Note_on_c, 7, 74, 0
9, 297120, Note_on_c, 7, 74, 96
9, 297240, Note_on_c, 7, 74, 0
9, 297600, Note_on_c, 7, 72, 96
9, 298320, Note_on_c, 7, 72, 0
9, 298320, Note_on_c, 7, 74, 96
9, 298560, Note_on_c, 7, 74, 0
9, 298560, Note_on_c, 7, 72, 96
9, 298800, Note_on_c, 7, 72, 0
9, 298800, Note_on_c, 7, 74, 96
9, 299040, Note_on_c, 7, 74, 0
9, 299040, Note_on_c, 7, 72, 96
9, 299280, Note_on_c, 7, 72, 0
9, 299280, Note_on_c, 7, 74, 96
9, 299520, Note_on_c, 7, 74, 0
9, 299520, Note_on_c, 7, 72, 96
9, 299900, Note_on_c, 7, 72, 0
9, 301440, Note_on_c, 7, 65, 96
9, 301800, Note_on_c, 7, 65, 0
9, 302880, Note_on_c, 7, 63, 96
9, 303000, Note_on_c, 7, 63, 0
9, 303360, Note_on_c, 7, 62, 96
9, 303480, Note_on_c, 7, 62, 0
9, 303840, Note_on_c, 7, 60, 96
9, 303960, Note_on_c, 7, 60, 0
9, 304320, Note_on_c, 7, 58, 96
9, 304440, Note_on_c, 7, 58, 0
9, 304800, Note_on_c, 7, 77, 64
9, 304860, Note_on_c, 7, 77, 0
9, 305040, Note_on_c, 7, 77, 64
9, 305100, Note_on_c, 7, 77, 0
9, 305280, Note_on_c, 7, 81, 64
9, 305320, Note_on_c, 7, 81, 0
9, 305340, Note_on_c, 7, 79, 70
9, 305520, Note_on_c, 7, 79, 0
9, 305520, Note_on_c, 7, 77, 64
9, 305710, Note_on_c, 7, 77, 0
9, 305760, Note_on_c, 7, 77, 64
9, 305820, Note_on_c, 7, 77, 0
9, 306000, Note_on_c, 7, 77, 64
9, 306060, Note_on_c, 7, 77, 0
9, 306240, Note_on_c, 7, 81, 64
9, 306280, Note_on_c, 7, 81, 0
9, 306300, Note_on_c, 7, 79, 70
9, 306480, Note_on_c, 7, 79, 0
9, 306480, Note_on_c, 7, 77, 64
9, 306670, Note_on_c, 7, 77, 0
9, 306720, Note_on_c, 7, 77, 64
9, 306780, Note_on_c, 7, 77, 0
9, 306960, Note_on_c, 7, 77, 64
9, 307020, Note_on_c, 7, 77, 0
9, 307200, Note_on_c, 7, 77, 64
9, 307440, Note_on_c, 7, 77, 0
9, 307440, Note_on_c, 7, 81, 64
9, 307630, Note_on_c, 7, 81, 0
9, 307680, Note_on_c, 7, 82, 64
9, 307740, Note_on_c, 7, 82, 0
9, 307920, Note_on_c, 7, 79, 64
9, 307980, Note_on_c, 7, 79, 0
9, 308160, Note_on_c, 7, 77, 64
9, 308540, Note_on_c, 7, 77, 0
9, 309120, Note_on_c, 7, 72, 96
9, 310270, Note_on_c, 7, 72, 0
9, 310560, Note_on_c, 7, 70, 96
9, 310680, Note_on_c, 7, 70, 0
9, 311040, Note_on_c, 7, 69, 96
9, 311160, Note_on_c, 7, 69, 0
9, 311520, Note_on_c, 7, 67, 96
9, 311640, Note_on_c, 7, 67, 0
9, 312000, Note_on_c, 7, 66, 96
9, 312120, Note_on_c, 7, 66, 0
9, 312480, Note_on_c, 7, 74, 64
9, 312540, Note_on_c, 7, 74, 0
9, 312720, Note_on_c, 7, 74, 64
9, 312780, Note_on_c, 7, 74, 0
9, 312960, Note_on_c, 7, 77, 64
9, 313000, Note_on_c, 7, 77, 0
9, 313020, Note_on_c, 7, 75, 70
9, 313200, Note_on_c, 7, 75, 0
9, 313200, Note_on_c, 7, 74, 64
9, 313390, Note_on_c, 7, 74, 0
9, 313440, Note_on_c, 7, 74, 64
9, 313500, Note_on_c, 7, 74, 0
9, 313680, Note_on_c, 7, 74, 64
9, 313740, Note_on_c, 7, 74, 0
9, 313920, Note_on_c, 7, 77, 64
9, 313960, Note_on_c, 7, 77, 0
9, 313980, Note_on_c, 7, 75, 70
9, 314160, Note_on_c, 7, 75, 0
9, 314160, Note_on_c, 7, 74, 64
9, 314350, Note_on_c, 7, 74, 0
9, 314400, Note_on_c, 7, 74, 64
9, 314460, Note_on_c, 7, 74, 0
9, 314640, Note_on_c, 7, 74, 64
9, 314700, Note_on_c, 7, 74, 0
9, 314880, Note_on_c, 7, 74, 64
9, 315120, Note_on_c, 7, 74, 0
9, 315120, Note_on_c, 7, 78, 64
9, 315310, Note_on_c, 7, 78, 0
9, 315360, Note_on_c, 7, 81, 64
9, 315420, Note_on_c, 7, 81, 0
9, 315600, Note_on_c, 7, 78, 64
9, 315660, Note_on_c, 7, 78, 0
9, 315840, Note_on_c, 7, 74, 64
9, 316220, Note_on_c, 7, 74, 0
9, 316800, Note_on_c, 7, 62, 96
9, 317950, Note_on_c, 7, 62, 0
9, 318240, Note_on_c, 7, 60, 96
9, 318360, Note_on_c, 7, 60, 0
9, 318720, Note_on_c, 7, 58, 96
9, 318840, Note_on_c, 7, 58, 0
9, 319200, Note_on_c, 7, 57, 96
9, 319320, Note_on_c, 7, 57, 0
9, 319680, Note_on_c, 7, 55, 96
9, 319800, Note_on_c, 7, 55, 0
9, 320160, Note_on_c, 7, 74, 64
9, 320220, Note_on_c, 7, 74, 0
9, 320400, Note_on_c, 7, 74, 64
9, 320460, Note_on_c, 7, 74, 0
9, 320640, Note_on_c, 7, 77, 64
9, 320680, Note_on_c, 7, 77, 0
9, 320700, Note_on_c, 7, 75, 70
9, 320880, Note_on_c, 7, 75, 0
9, 320880, Note_on_c, 7, 74, 64
9, 321070, Note_on_c, 7, 74, 0
9, 321120, Note_on_c, 7, 74, 64
9, 321180, Note_on_c, 7, 74, 0
9, 321360, Note_on_c, 7, 74, 64
9, 321420, Note_on_c, 7, 74, 0
9, 321600, Note_on_c, 7, 77, 64
9, 321640, Note_on_c, 7, 77, 0
9, 321660, Note_on_c, 7, 75, 70
9, 321840, Note_on_c, 7, 75, 0
9, 321840, Note_on_c, 7, 74, 64
9, 322030, Note_on_c, 7, 74, 0
9, 322080, Note_on_c, 7, 74, 64
9, 322140, Note_on_c, 7, 74, 0
9, 322320, Note_on_c, 7, 74, 64
9, 322380, Note_on_c, 7, 74, 0
9, 322560, Note_on_c, 7, 74, 64
9, 322800, Note_on_c, 7, 74, 0
9, 322800, Note_on_c, 7, 79, 64
9, 322990, Note_on_c, 7, 79, 0
9, 323040, Note_on_c, 7, 82, 64
9, 323100, Note_on_c, 7, 82, 0
9, 323280, Note_on_c, 7, 79, 64
9, 323340, Note_on_c, 7, 79, 0
9, 323520, Note_on_c, 7, 74, 64
9, 323900, Note_on_c, 7, 74, 0
9, 324480, Note_on_c, 7, 67, 96
9, 325630, Note_on_c, 7, 67, 0
9, 325920, Note_on_c, 7, 65, 96
9, 326040, Note_on_c, 7, 65, 0
9, 326400, Note_on_c, 7, 64, 96
9, 326520, Note_on_c, 7, 64, 0
9, 326880, Note_on_c, 7, 62, 96
9, 327000, Note_on_c, 7, 62, 0
9, 327360, Note_on_c, 7, 61, 96
9, 327480, Note_on_c, 7, 61, 0
9, 327840, Note_on_c, 7, 81, 64
9, 327900, Note_on_c, 7, 81, 0
9, 328080, Note_on_c, 7, 81, 64
9, 328140, Note_on_c, 7, 81, 0
9, 328320, Note_on_c, 7, 84, 64
9, 328360, Note_on_c, 7, 84, 0
9, 328380, Note_on_c, 7, 82, 70
9, 328560, Note_on_c, 7, 82, 0
9, 328560, Note_on_c, 7, 81, 64
9, 328750, Note_on_c, 7, 81, 0
9, 328800, Note_on_c, 7, 81, 64
9, 328860, Note_on_c, 7, 81, 0
9, 329040, Note_on_c, 7, 81, 64
9, 329100, Note_on_c, 7, 81, 0
9, 329280, Note_on_c, 7, 84, 64
9, 329320, Note_on_c, 7, 84, 0
9, 329340, Note_on_c, 7, 82, 70
9, 329520, Note_on_c, 7, 82, 0
9, 329520, Note_on_c, 7, 81, 64
9, 329710, Note_on_c, 7, 81, 0
9, 329760, Note_on_c, 7, 81, 64
9, 329820, Note_on_c, 7, 81, 0
9, 330000, Note_on_c, 7, 81, 64
9, 330060, Note_on_c, 7, 81, 0
9, 330240, Note_on_c, 7, 81, 64
9, 330480, Note_on_c, 7, 81, 0
9, 330480, Note_on_c, 7, 85, 64
9, 330670, Note_on_c, 7, 85, 0
9, 330720, Note_on_c, 7, 88, 64
9, 330780, Note_on_c, 7, 88, 0
9, 330960, Note_on_c, 7, 85, 64
9, 331020, Note_on_c, 7, 85, 0
9, 331200, Note_on_c, 7, 81, 64
9, 331580, Note_on_c, 7, 81, 0
9, 332160, Note_on_c, 7, 69, 96
9, 333310, Note_on_c, 7, 69, 0
9, 333600, Note_on_c, 7, 67, 96
9, 333720, Note_on_c, 7, 67, 0
9, 334080, Note_on_c, 7, 65, 96
9, 334200, Note_on_c, 7, 65, 0
9, 334560, Note_on_c, 7, 64, 96
9, 334680, Note_on_c, 7, 64, 0
9, 335040, Note_on_c, 7, 62, 96
9, 335160, Note_on_c, 7, 62, 0
9, 335520, Note_on_c, 7, 81, 64
9, 335580, Note_on_c, 7, 81, 0
9, 335760, Note_on_c, 7, 81, 64
9, 335820, Note_on_c, 7, 81, 0
9, 336000, Note_on_c, 7, 84, 64
9, 336040, Note_on_c, 7, 84, 0
9, 336060, Note_on_c, 7, 82, 70
9, 336240, Note_on_c, 7, 82, 0
9, 336240, Note_on_c, 7, 81, 64
9, 336430, Note_on_c, 7, 81, 0
9, 336480, Note_on_c, 7, 81, 64
9, 336540, Note_on_c, 7, 81, 0
9, 336720, Note_on_c, 7, 81, 64
9, 336780, Note_on_c, 7, 81, 0
9, 336960, Note_on_c, 7, 84, 64
9, 337000, Note_on_c, 7, 84, 0
9, 337020, Note_on_c, 7, 82, 70
9, 337200, Note_on_c, 7, 82, 0
9, 337200, Note_on_c, 7, 81, 64
9, 337390, Note_on_c, 7, 81, 0
9, 337440, Note_on_c, 7, 81, 64
9, 337500, Note_on_c, 7, 81, 0
9, 337680, Note_on_c, 7, 81, 64
9, 337740, Note_on_c, 7, 81, 0
9, 337920, Note_on_c, 7, 81, 64
9, 338160, Note_on_c, 7, 81, 0
9, 338160, Note_on_c, 7, 85, 64
9, 338350, Note_on_c, 7, 85, 0
9, 338400, Note_on_c, 7, 86, 64
9, 338460, Note_on_c, 7, 86, 0
9, 338640, Note_on_c, 7, 82, 64
9, 338700, Note_on_c, 7, 82, 0
9, 338880, Note_on_c, 7, 81, 64
9, 339260, Note_on_c, 7, 81, 0
9, 339840, Note_on_c, 7, 62, 96
9, 340990, Note_on_c, 7, 62, 0
9, 341280, Note_on_c, 7, 60, 96
9, 341400, Note_on_c, 7, 60, 0
9, 341760, Note_on_c, 7, 59, 96
9, 341880, Note_on_c, 7, 59, 0
9, 342240, Note_on_c, 7, 57, 96
9, 342360, Note_on_c, 7, 57, 0
9, 342720, Note_on_c, 7, 56, 96
9, 342840, Note_on_c, 7, 56, 0
9, 343200, Note_on_c, 7, 74, 64
9, 343260, Note_on_c, 7, 74, 0
9, 343440, Note_on_c, 7, 74, 64
9, 343500, Note_on_c, 7, 74, 0
9, 343680, Note_on_c, 7, 77, 64
9, 343720, Note_on_c, 7, 77, 0
9, 343740, Note_on_c, 7, 76, 70
9, 343920, Note_on_c, 7, 76, 0
9, 343920, Note_on_c, 7, 74, 64
9, 344110, Note_on_c, 7, 74, 0
9, 344160, Note_on_c, 7, 74, 64
9, 344220, Note_on_c, 7, 74, 0
9, 344400, Note_on_c, 7, 74, 64
9, 344460, Note_on_c, 7, 74, 0
9, 344640, Note_on_c, 7, 77, 64
9, 344680, Note_on_c, 7, 77, 0
9, 344700, Note_on_c, 7, 76, 70
9, 344880, Note_on_c, 7, 76, 0
9, 344880, Note_on_c, 7, 74, 64
9, 345070, Note_on_c, 7, 74, 0
9, 345120, Note_on_c, 7, 74, 64
9, 345180, Note_on_c, 7, 74, 0
9, 345360, Note_on_c, 7, 74, 64
9, 345420, Note_on_c, 7, 74, 0
9, 345600, Note_on_c, 7, 74, 64
9, 345840, Note_on_c, 7, 74, 0
9, 345840, Note_on_c, 7, 77, 64
9, 346030, Note_on_c, 7, 77, 0
9, 346080, Note_on_c, 7, 83, 64
9, 346140, Note_on_c, 7, 83, 0
9, 346320, Note_on_c, 7, 83, 64
9, 346380, Note_on_c, 7, 83, 0
9, 346560, Note_on_c, 7, 83, 64
9, 346800, Note_on_c, 7, 83, 0
9, 346800, Note_on_c, 7, 77, 64
9, 347040, Note_on_c, 7, 77, 0
9, 347040, Note_on_c, 7, 76, 64
9, 347280, Note_on_c, 7, 76, 0
9, 347280, Note_on_c, 7, 74, 64
9, 347470, Note_on_c, 7, 74, 0
9, 347520, Note_on_c, 7, 73, 64
9, 347760, Note_on_c, 7, 73, 0
9, 347760, Note_on_c, 7, 76, 64
9, 347950, Note_on_c, 7, 76, 0
9, 348000, Note_on_c, 7, 81, 64
9, 348060, Note_on_c, 7, 81, 0
9, 348240, Note_on_c, 7, 81, 64
9, 348300, Note_on_c, 7, 81, 0
9, 348480, Note_on_c, 7, 81, 64
9, 348720, Note_on_c, 7, 81, 0
9, 348720, Note_on_c, 7, 76, 64
9, 348960, Note_on_c, 7, 76, 0
9, 348960, Note_on_c, 7, 74, 64
9, 349200, Note_on_c, 7, 74, 0
9, 349200, Note_on_c, 7, 73, 64
9, 349390, Note_on_c, 7, 73, 0
9, 349440, Note_on_c, 7, 74, 64
9, 349680, Note_on_c, 7, 74, 0
9, 349680, Note_on_c, 7, 77, 64
9, 349870, Note_on_c, 7, 77, 0
9, 349920, Note_on_c, 7, 83, 64
9, 349980, Note_on_c, 7, 83, 0
9, 350160, Note_on_c, 7, 83, 64
9, 350220, Note_on_c, 7, 83, 0
9, 350400, Note_on_c, 7, 83, 64
9, 350640, Note_on_c, 7, 83, 0
9, 350640, Note_on_c, 7, 77, 64
9, 350880, Note_on_c, 7, 77, 0
9, 350880, Note_on_c, 7, 76, 64
9, 351120, Note_on_c, 7, 76, 0
9, 351120, Note_on_c, 7, 74, 64
9, 351310, Note_on_c, 7, 74, 0
9, 351360, Note_on_c, 7, 73, 64
9, 351600, Note_on_c, 7, 73, 0
9, 351600, Note_on_c, 7, 76, 64
9, 351790, Note_on_c, 7, 76, 0
9, 351840, Note_on_c, 7, 81, 64
9, 351900, Note_on_c, 7, 81, 0
9, 352080, Note_on_c, 7, 81, 64
9, 352140, Note_on_c, 7, 81, 0
9, 352320, Note_on_c, 7, 81, 64
9, 352560, Note_on_c, 7, 81, 0
9, 352560, Note_on_c, 7, 76, 64
9, 352800, Note_on_c, 7, 76, 0
9, 352800, Note_on_c, 7, 74, 64
9, 353040, Note_on_c, 7, 74, 0
9, 353040, Note_on_c, 7, 73, 64
9, 353230, Note_on_c, 7, 73, 0
9, 353280, Note_on_c, 7, 74, 64
9, 353520, Note_on_c, 7, 74, 0
9, 353520, Note_on_c, 7, 77, 64
9, 353710, Note_on_c, 7, 77, 0
9, 353760, Note_on_c, 7, 83, 64
9, 353820, Note_on_c, 7, 83, 0
9, 354000, Note_on_c, 7, 83, 64
9, 354060, Note_on_c, 7, 83, 0
9, 354240, Note_on_c, 7, 83, 64
9, 354480, Note_on_c, 7, 83, 0
9, 354480, Note_on_c, 7, 77, 64
9, 354720, Note_on_c, 7, 77, 0
9, 354720, Note_on_c, 7, 76, 64
9, 354960, Note_on_c, 7, 76, 0
9, 354960, Note_on_c, 7, 74, 64
9, 355150, Note_on_c, 7, 74, 0
9, 355200, Note_on_c, 7, 73, 96
9, 355260, Note_on_c, 7, 73, 0
9, 355440, Note_on_c, 7, 71, 64
9, 355630, Note_on_c, 7, 71, 0
9, 355680, Note_on_c, 7, 69, 64
9, 355870, Note_on_c, 7, 69, 0
9, 355920, Note_on_c, 7, 71, 64
9, 356110, Note_on_c, 7, 71, 0
9, 356160, Note_on_c, 7, 73, 64
9, 356350, Note_on_c, 7, 73, 0
9, 356400, Note_on_c, 7, 74, 64
9, 356590, Note_on_c, 7, 74, 0
9, 356640, Note_on_c, 7, 76, 64
9, 356830, Note_on_c, 7, 76, 0
9, 356880, Note_on_c, 7, 73, 64
9, 357070, Note_on_c, 7, 73, 0
9, 357120, Note_on_c, 7, 74, 96
9, 357180, Note_on_c, 7, 74, 0
9, 357360, Note_on_c, 7, 73, 64
9, 357550, Note_on_c, 7, 73, 0
9, 357600, Note_on_c, 7, 71, 64
9, 357790, Note_on_c, 7, 71, 0
9, 357840, Note_on_c, 7, 73, 64
9, 358030, Note_on_c, 7, 73, 0
9, 358080, Note_on_c, 7, 74, 64
9, 358270, Note_on_c, 7, 74, 0
9, 358320, Note_on_c, 7, 76, 64
9, 358510, Note_on_c, 7, 76, 0
9, 358560, Note_on_c, 7, 78, 64
9, 358750, Note_on_c, 7, 78, 0
9, 358800, Note_on_c, 7, 74, 64
9, 358990, Note_on_c, 7, 74, 0
9, 359040, Note_on_c, 7, 76, 96
9, 359100, Note_on_c, 7, 76, 0
9, 359280, Note_on_c, 7, 74, 64
9, 359470, Note_on_c, 7, 74, 0
9, 359520, Note_on_c, 7, 73, 64
9, 359710, Note_on_c, 7, 73, 0
9, 359760, Note_on_c, 7, 74, 64
9, 359950, Note_on_c, 7, 74, 0
9, 360000, Note_on_c, 7, 76, 64
9, 360190, Note_on_c, 7, 76, 0
9, 360240, Note_on_c, 7, 78, 64
9, 360430, Note_on_c, 7, 78, 0
9, 360480, Note_on_c, 7, 79, 64
9, 360670, Note_on_c, 7, 79, 0
9, 360720, Note_on_c, 7, 76, 64
9, 360910, Note_on_c, 7, 76, 0
9, 360960, Note_on_c, 7, 78, 96
9, 361020, Note_on_c, 7, 78, 0
9, 361200, Note_on_c, 7, 76, 64
9, 361390, Note_on_c, 7, 76, 0
9, 361440, Note_on_c, 7, 74, 64
9, 361630, Note_on_c, 7, 74, 0
9, 361680, Note_on_c, 7, 76, 64
9, 361870, Note_on_c, 7, 76, 0
9, 361920, Note_on_c, 7, 78, 64
9, 362110, Note_on_c, 7, 78, 0
9, 362160, Note_on_c, 7, 79, 64
9, 362350, Note_on_c, 7, 79, 0
9, 362400, Note_on_c, 7, 81, 64
9, 362590, Note_on_c, 7, 81, 0
9, 362640, Note_on_c, 7, 78, 64
9, 362830, Note_on_c, 7, 78, 0
9, 362880, Note_on_c, 7, 79, 96
9, 363640, Note_on_c, 7, 79, 0
9, 363840, Note_on_c, 7, 85, 96
9, 365560, Note_on_c, 7, 85, 0
9, 365760, Note_on_c, 7, 88, 96
9, 366910, Note_on_c, 7, 88, 0
9, 366960, Note_on_c, 7, 88, 64
9, 367150, Note_on_c, 7, 88, 0
9, 367200, Note_on_c, 7, 86, 64
9, 367390, Note_on_c, 7, 86, 0
9, 367440, Note_on_c, 7, 86, 64
9, 367630, Note_on_c, 7, 86, 0
9, 367680, Note_on_c, 7, 85, 64
9, 367870, Note_on_c, 7, 85, 0
9, 367920, Note_on_c, 7, 85, 64
9, 368110, Note_on_c, 7, 85, 0
9, 368160, Note_on_c, 7, 83, 64
9, 368350, Note_on_c, 7, 83, 0
9, 368400, Note_on_c, 7, 83, 64
9, 368590, Note_on_c, 7, 83, 0
9, 368640, Note_on_c, 7, 81, 64
9, 368830, Note_on_c, 7, 81, 0
9, 368880, Note_on_c, 7, 81, 64
9, 369070, Note_on_c, 7, 81, 0
9, 369120, Note_on_c, 7, 79, 64
9, 369310, Note_on_c, 7, 79, 0
9, 369360, Note_on_c, 7, 79, 64
9, 369550, Note_on_c, 7, 79, 0
9, 369600, Note_on_c, 7, 78, 64
9, 369790, Note_on_c, 7, 78, 0
9, 369840, Note_on_c, 7, 78, 64
9, 370030, Note_on_c, 7, 78, 0
9, 370080, Note_on_c, 7, 76, 64
9, 370270, Note_on_c, 7, 76, 0
9, 370320, Note_on_c, 7, 76, 64
9, 370510, Note_on_c, 7, 76, 0
9, 370560, Note_on_c, 7, 74, 64
9, 372480, Note_on_c, 7, 74, 0
9, 372480, Note_on_c, 7, 75, 64
9, 374010, Note_on_c, 7, 75, 0
9, 374400, Note_on_c, 7, 76, 64
9, 374880, Note_on_c, 7, 76, 0
9, 374880, Note_on_c, 7, 79, 64
9, 375840, Note_on_c, 7, 79, 0
9, 375840, Note_on_c, 7, 78, 64
9, 376220, Note_on_c, 7, 78, 0
9, 376320, Note_on_c, 7, 76, 64
9, 376800, Note_on_c, 7, 76, 0
9, 376800, Note_on_c, 7, 83, 64
9, 377760, Note_on_c, 7, 83, 0
9, 377760, Note_on_c, 7, 81, 64
9, 378140, Note_on_c, 7, 81, 0
9, 378240, Note_on_c, 7, 81, 64
9, 378480, Note_on_c, 7, 81, 0
9, 378480, Note_on_c, 7, 79, 64
9, 378670, Note_on_c, 7, 79, 0
9, 378720, Note_on_c, 7, 79, 64
9, 378910, Note_on_c, 7, 79, 0
9, 378960, Note_on_c, 7, 79, 64
9, 379150, Note_on_c, 7, 79, 0
9, 379200, Note_on_c, 7, 79, 64
9, 379440, Note_on_c, 7, 79, 0
9, 379440, Note_on_c, 7, 78, 64
9, 379630, Note_on_c, 7, 78, 0
9, 379680, Note_on_c, 7, 78, 64
9, 379870, Note_on_c, 7, 78, 0
9, 379920, Note_on_c, 7, 78, 64
9, 380110, Note_on_c, 7, 78, 0
9, 380160, Note_on_c, 7, 78, 64
9, 380400, Note_on_c, 7, 78, 0
9, 380400, Note_on_c, 7, 76, 64
9, 380590, Note_on_c, 7, 76, 0
9, 380640, Note_on_c, 7, 76, 64
9, 380830, Note_on_c, 7, 76, 0
9, 380880, Note_on_c, 7, 76, 64
9, 381070, Note_on_c, 7, 76, 0
9, 381120, Note_on_c, 7, 74, 64
9, 381360, Note_on_c, 7, 74, 0
9, 381360, Note_on_c, 7, 73, 64
9, 381550, Note_on_c, 7, 73, 0
9, 381600, Note_on_c, 7, 71, 64
9, 381790, Note_on_c, 7, 71, 0
9, 381840, Note_on_c, 7, 73, 64
9, 382030, Note_on_c, 7, 73, 0
9, 382080, Note_on_c, 7, 74, 64
9, 382460, Note_on_c, 7, 74, 0
9, 385920, Note_on_c, 7, 74, 64
9, 387840, Note_on_c, 7, 74, 0
9, 387840, Note_on_c, 7, 75, 64
9, 389370, Note_on_c, 7, 75, 0
9, 389760, Note_on_c, 7, 76, 64
9, 390240, Note_on_c, 7, 76, 0
9, 390240, Note_on_c, 7, 79, 64
9, 391200, Note_on_c, 7, 79, 0
9, 391200, Note_on_c, 7, 78, 64
9, 391580, Note_on_c, 7, 78, 0
9, 391680, Note_on_c, 7, 76, 64
9, 392160, Note_on_c, 7, 76, 0
9, 392160, Note_on_c, 7, 83, 64
9, 393120, Note_on_c, 7, 83, 0
9, 393120, Note_on_c, 7, 81, 64
9, 393500, Note_on_c, 7, 81, 0
9, 393600, Note_on_c, 7, 81, 64
9, 393840, Note_on_c, 7, 81, 0
9, 393840, Note_on_c, 7, 79, 64
9, 394030, Note_on_c, 7, 79, 0
9, 394080, Note_on_c, 7, 79, 64
9, 394270, Note_on_c, 7, 79, 0
9, 394320, Note_on_c, 7, 79, 64
9, 394510, Note_on_c, 7, 79, 0
9, 394560, Note_on_c, 7, 79, 64
9, 394800, Note_on_c, 7, 79, 0
9, 394800, Note_on_c, 7, 78, 64
9, 394990, Note_on_c, 7, 78, 0
9, 395040, Note_on_c, 7, 78, 64
9, 395230, Note_on_c, 7, 78, 0
9, 395280, Note_on_c, 7, 78, 64
9, 395470, Note_on_c, 7, 78, 0
9, 395520, Note_on_c, 7, 78, 64
9, 395760, Note_on_c, 7, 78, 0
9, 395760, Note_on_c, 7, 76, 64
9, 395950, Note_on_c, 7, 76, 0
9, 396000, Note_on_c, 7, 76, 64
9, 396190, Note_on_c, 7, 76, 0
9, 396240, Note_on_c, 7, 76, 64
9, 396430, Note_on_c, 7, 76, 0
9, 396480, Note_on_c, 7, 74, 64
9, 396720, Note_on_c, 7, 74, 0
9, 396720, Note_on_c, 7, 73, 64
9, 396960, Note_on_c, 7, 73, 0
9, 396960, Note_on_c, 7, 71, 64
9, 397200, Note_on_c, 7, 71, 0
9, 397200, Note_on_c, 7, 73, 64
9, 397390, Note_on_c, 7, 73, 0
9, 397440, Note_on_c, 7, 74, 64
9, 397500, Note_on_c, 7, 74, 0
9, 397680, Note_on_c, 7, 78, 64
9, 397740, Note_on_c, 7, 78, 0
9, 397920, Note_on_c, 7, 69, 64
9, 397980, Note_on_c, 7, 69, 0
9, 398160, Note_on_c, 7, 73, 64
9, 398220, Note_on_c, 7, 73, 0
9, 398400, Note_on_c, 7, 74, 64
9, 398460, Note_on_c, 7, 74, 0
9, 398640, Note_on_c, 7, 78, 64
9, 398700, Note_on_c, 7, 78, 0
9, 398880, Note_on_c, 7, 79, 64
9, 398940, Note_on_c, 7, 79, 0
9, 399120, Note_on_c, 7, 76, 64
9, 399180, Note_on_c, 7, 76, 0
9, 399360, Note_on_c, 7, 74, 64
9, 399420, Note_on_c, 7, 74, 0
9, 399600, Note_on_c, 7, 78, 64
9, 399660, Note_on_c, 7, 78, 0
9, 399840, Note_on_c, 7, 69, 64
9, 399900, Note_on_c, 7, 69, 0
9, 400080, Note_on_c, 7, 73, 64
9, 400140, Note_on_c, 7, 73, 0
9, 400320, Note_on_c, 7, 74, 64
9, 400380, Note_on_c, 7, 74, 0
9, 400560, Note_on_c, 7, 78, 64
9, 400620, Note_on_c, 7, 78, 0
9, 400800, Note_on_c, 7, 79, 64
9, 400860, Note_on_c, 7, 79, 0
9, 401040, Note_on_c, 7, 76, 64
9, 401100, Note_on_c, 7, 76, 0
9, 401280, Note_on_c, 7, 74, 96
9, 401340, Note_on_c, 7, 74, 0
9, 401520, Note_on_c, 7, 78, 96
9, 401580, Note_on_c, 7, 78, 0
9, 401760, Note_on_c, 7, 69, 96
9, 401820, Note_on_c, 7, 69, 0
9, 402000, Note_on_c, 7, 73, 96
9, 402060, Note_on_c, 7, 73, 0
9, 402240, Note_on_c, 7, 74, 96
9, 402300, Note_on_c, 7, 74, 0
9, 402480, Note_on_c, 7, 78, 96
9, 402540, Note_on_c, 7, 78, 0
9, 402720, Note_on_c, 7, 79, 96
9, 402780, Note_on_c, 7, 79, 0
9, 402960, Note_on_c, 7, 76, 96
9, 403020, Note_on_c, 7, 76, 0
9, 403200, Note_on_c, 7, 74, 96
9, 403260, Note_on_c, 7, 74, 0
9, 403440, Note_on_c, 7, 78, 96
9, 403500, Note_on_c, 7, 78, 0
9, 403680, Note_on_c, 7, 69, 96
9, 403740, Note_on_c, 7, 69, 0
9, 403920, Note_on_c, 7, 73, 96
9, 403980, Note_on_c, 7, 73, 0
9, 404160, Note_on_c, 7, 74, 96
9, 404220, Note_on_c, 7, 74, 0
9, 404400, Note_on_c, 7, 78, 96
9, 404460, Note_on_c, 7, 78, 0
9, 404640, Note_on_c, 7, 79, 96
9, 404700, Note_on_c, 7, 79, 0
9, 404880, Note_on_c, 7, 76, 96
9, 404940, Note_on_c, 7, 76, 0
9, 405120, Note_on_c, 7, 74, 96
9, 405360, Note_on_c, 7, 74, 0
9, 405360, Note_on_c, 7, 69, 96
9, 405550, Note_on_c, 7, 69, 0
9, 405600, Note_on_c, 7, 78, 96
9, 405660, Note_on_c, 7, 78, 0
9, 405840, Note_on_c, 7, 78, 96
9, 405900, Note_on_c, 7, 78, 0
9, 406080, Note_on_c, 7, 78, 96
9, 406320, Note_on_c, 7, 78, 0
9, 406320, Note_on_c, 7, 74, 96
9, 406510, Note_on_c, 7, 74, 0
9, 406560, Note_on_c, 7, 81, 96
9, 406620, Note_on_c, 7, 81, 0
9, 406800, Note_on_c, 7, 81, 96
9, 406860, Note_on_c, 7, 81, 0
9, 407040, Note_on_c, 7, 81, 96
9, 407280, Note_on_c, 7, 81, 0
9, 407280, Note_on_c, 7, 78, 96
9, 407470, Note_on_c, 7, 78, 0
9, 407520, Note_on_c, 7, 86, 96
9, 407580, Note_on_c, 7, 86, 0
9, 407760, Note_on_c, 7, 86, 96
9, 407820, Note_on_c, 7, 86, 0
9, 408000, Note_on_c, 7, 86, 96
9, 408190, Note_on_c, 7, 86, 0
9, 408240, Note_on_c, 7, 81, 96
9, 408430, Note_on_c, 7, 81, 0
9, 408480, Note_on_c, 7, 78, 96
9, 408670, Note_on_c, 7, 78, 0
9, 408720, Note_on_c, 7, 74, 96
9, 408910, Note_on_c, 7, 74, 0
9, 408960, Note_on_c, 7, 81, 96
9, 409150, Note_on_c, 7, 81, 0
9, 409200, Note_on_c, 7, 81, 96
9, 409390, Note_on_c, 7, 81, 0
9, 409440, Note_on_c, 7, 85, 96
9, 409630, Note_on_c, 7, 85, 0
9, 409680, Note_on_c, 7, 81, 96
9, 409870, Note_on_c, 7, 81, 0
9, 409920, Note_on_c, 7, 86, 96
9, 410110, Note_on_c, 7, 86, 0
9, 410160, Note_on_c, 7, 81, 96
9, 410350, Note_on_c, 7, 81, 0
9, 410400, Note_on_c, 7, 78, 96
9, 410590, Note_on_c, 7, 78, 0
9, 410640, Note_on_c, 7, 74, 96
9, 410830, Note_on_c, 7, 74, 0
9, 410880, Note_on_c, 7, 81, 96
9, 411070, Note_on_c, 7, 81, 0
9, 411120, Note_on_c, 7, 81, 96
9, 411310, Note_on_c, 7, 81, 0
9, 411360, Note_on_c, 7, 85, 96
9, 411550, Note_on_c, 7, 85, 0
9, 411600, Note_on_c, 7, 81, 96
9, 411790, Note_on_c, 7, 81, 0
9, 411840, Note_on_c, 7, 86, 96
9, 412030, Note_on_c, 7, 86, 0
9, 412080, Note_on_c, 7, 81, 96
9, 412270, Note_on_c, 7, 81, 0
9, 412320, Note_on_c, 7, 78, 96
9, 412510, Note_on_c, 7, 78, 0
9, 412560, Note_on_c, 7, 74, 96
9, 412750, Note_on_c, 7, 74, 0
9, 412800, Note_on_c, 7, 81, 96
9, 413180, Note_on_c, 7, 81, 0
9, 413280, Note_on_c, 7, 86, 96
9, 413280, Note_on_c, 7, 78, 96
9, 413660, Note_on_c, 7, 78, 0
9, 413660, Note_on_c, 7, 86, 0
9, 413760, Note_on_c, 7, 85, 96
9, 413760, Note_on_c, 7, 76, 96
9, 414140, Note_on_c, 7, 76, 0
9, 414140, Note_on_c, 7, 85, 0
9, 414240, Note_on_c, 7, 86, 96
9, 414240, Note_on_c, 7, 78, 96
9, 414620, Note_on_c, 7, 78, 0
9, 414620, Note_on_c, 7, 86, 0
9, 414720, Note_on_c, 7, 85, 96
9, 414720, Note_on_c, 7, 76, 96
9, 415100, Note_on_c, 7, 76, 0
9, 415100, Note_on_c, 7, 85, 0
9, 415200, Note_on_c, 7, 69, 96
9, 415390, Note_on_c, 7, 69, 0
9, 415440, Note_on_c, 7, 69, 96
9, 415630, Note_on_c, 7, 69, 0
9, 415680, Note_on_c, 7, 69, 96
9, 416060, Note_on_c, 7, 69, 0
9, 416640, Note_on_c, 7, 62, 96
9, 416640, Note_on_c, 7, 74, 96
9, 417400, Note_on_c, 7, 62, 0
9, 417790, Note_on_c, 7, 74, 0
9, 417840, Note_on_c, 7, 73, 64
9, 418030, Note_on_c, 7, 73, 0
9, 418080, Note_on_c, 7, 78, 64
9, 418270, Note_on_c, 7, 78, 0
9, 418320, Note_on_c, 7, 76, 64
9, 418510, Note_on_c, 7, 76, 0
9, 418560, Note_on_c, 7, 74, 64
9, 418750, Note_on_c, 7, 74, 0
9, 418800, Note_on_c, 7, 73, 64
9, 418990, Note_on_c, 7, 73, 0
9, 419040, Note_on_c, 7, 71, 64
9, 419230, Note_on_c, 7, 71, 0
9, 419280, Note_on_c, 7, 69, 64
9, 419470, Note_on_c, 7, 69, 0
9, 419520, Note_on_c, 7, 67, 64
9, 419710, Note_on_c, 7, 67, 0
9, 419760, Note_on_c, 7, 66, 64
9, 419950, Note_on_c, 7, 66, 0
9, 420000, Note_on_c, 7, 64, 64
9, 420190, Note_on_c, 7, 64, 0
9, 420240, Note_on_c, 7, 62, 64
9, 420430, Note_on_c, 7, 62, 0
9, 420480, Note_on_c, 7, 71, 96
9, 420480, Note_on_c, 7, 79, 96
9, 421240, Note_on_c, 7, 71, 0
9, 421630, Note_on_c, 7, 79, 0
9, 421680, Note_on_c, 7, 78, 64
9, 421870, Note_on_c, 7, 78, 0
9, 421920, Note_on_c, 7, 83, 64
9, 422110, Note_on_c, 7, 83, 0
9, 422160, Note_on_c, 7, 81, 64
9, 422350, Note_on_c, 7, 81, 0
9, 422400, Note_on_c, 7, 79, 64
9, 422590, Note_on_c, 7, 79, 0
9, 422640, Note_on_c, 7, 78, 64
9, 422830, Note_on_c, 7, 78, 0
9, 422880, Note_on_c, 7, 76, 64
9, 423070, Note_on_c, 7, 76, 0
9, 423120, Note_on_c, 7, 74, 64
9, 423310, Note_on_c, 7, 74, 0
9, 423360, Note_on_c, 7, 73, 64
9, 423550, Note_on_c, 7, 73, 0
9, 423600, Note_on_c, 7, 71, 64
9, 423790, Note_on_c, 7, 71, 0
9, 423840, Note_on_c, 7, 69, 64
9, 424030, Note_on_c, 7, 69, 0
9, 424080, Note_on_c, 7, 67, 64
9, 424270, Note_on_c, 7, 67, 0
9, 424320, Note_on_c, 7, 64, 64
9, 424320, Note_on_c, 7, 73, 64
9, 425080, Note_on_c, 7, 64, 0
9, 425470, Note_on_c, 7, 73, 0
9, 425520, Note_on_c, 7, 71, 64
9, 425710, Note_on_c, 7, 71, 0
9, 425760, Note_on_c, 7, 76, 64
9, 425950, Note_on_c, 7, 76, 0
9, 426000, Note_on_c, 7, 74, 64
9, 426190, Note_on_c, 7, 74, 0
9, 426240, Note_on_c, 7, 73, 64
9, 426430, Note_on_c, 7, 73, 0
9, 426480, Note_on_c, 7, 71, 64
9, 426670, Note_on_c, 7, 71, 0
9, 426720, Note_on_c, 7, 69, 64
9, 426910, Note_on_c, 7, 69, 0
9, 426960, Note_on_c, 7, 67, 64
9, 427150, Note_on_c, 7, 67, 0
9, 427200, Note_on_c, 7, 69, 64
9, 427390, Note_on_c, 7, 69, 0
9, 427440, Note_on_c, 7, 67, 64
9, 427630, Note_on_c, 7, 67, 0
9, 427680, Note_on_c, 7, 66, 64
9, 427870, Note_on_c, 7, 66, 0
9, 427920, Note_on_c, 7, 64, 64
9, 428110, Note_on_c, 7, 64, 0
9, 428160, Note_on_c, 7, 62, 64
9, 428350, Note_on_c, 7, 62, 0
9, 428400, Note_on_c, 7, 62, 64
9, 428590, Note_on_c, 7, 62, 0
9, 428640, Note_on_c, 7, 62, 64
9, 428830, Note_on_c, 7, 62, 0
9, 428880, Note_on_c, 7, 62, 64
9, 429070, Note_on_c, 7, 62, 0
9, 429120, Note_on_c, 7, 62, 64
9, 429310, Note_on_c, 7, 62, 0
9, 429360, Note_on_c, 7, 62, 64
9, 429550, Note_on_c, 7, 62, 0
9, 429600, Note_on_c, 7, 62, 64
9, 429790, Note_on_c, 7, 62, 0
9, 429840, Note_on_c, 7, 62, 64
9, 430030, Note_on_c, 7, 62, 0
9, 430080, Note_on_c, 7, 62, 64
9, 430270, Note_on_c, 7, 62, 0
9, 430320, Note_on_c, 7, 62, 64
9, 430510, Note_on_c, 7, 62, 0
9, 430560, Note_on_c, 7, 62, 64
9, 430750, Note_on_c, 7, 62, 0
9, 430800, Note_on_c, 7, 62, 64
9, 430990, Note_on_c, 7, 62, 0
9, 431040, Note_on_c, 7, 62, 64
9, 431230, Note_on_c, 7, 62, 0
9, 431280, Note_on_c, 7, 62, 64
9, 431470, Note_on_c, 7, 62, 0
9, 431520, Note_on_c, 7, 62, 64
9, 431710, Note_on_c, 7, 62, 0
9, 431760, Note_on_c, 7, 62, 64
9, 431950, Note_on_c, 7, 62, 0
9, 432000, Note_on_c, 7, 62, 64
9, 432190, Note_on_c, 7, 62, 0
9, 432240, Note_on_c, 7, 62, 64
9, 432430, Note_on_c, 7, 62, 0
9, 432480, Note_on_c, 7, 62, 64
9, 432670, Note_on_c, 7, 62, 0
9, 432720, Note_on_c, 7, 62, 64
9, 432910, Note_on_c, 7, 62, 0
9, 432960, Note_on_c, 7, 62, 64
9, 433150, Note_on_c, 7, 62, 0
9, 433200, Note_on_c, 7, 62, 64
9, 433390, Note_on_c, 7, 62, 0
9, 433440, Note_on_c, 7, 62, 64
9, 433630, Note_on_c, 7, 62, 0
9, 433680, Note_on_c, 7, 62, 64
9, 433870, Note_on_c, 7, 62, 0
9, 433920, Note_on_c, 7, 62, 64
9, 434110, Note_on_c, 7, 62, 0
9, 434160, Note_on_c, 7, 62, 64
9, 434350, Note_on_c, 7, 62, 0
9, 434400, Note_on_c, 7, 62, 64
9, 434590, Note_on_c, 7, 62, 0
9, 434640, Note_on_c, 7, 62, 64
9, 434830, Note_on_c, 7, 62, 0
9, 434880, Note_on_c, 7, 62, 64
9, 435070, Note_on_c, 7, 62, 0
9, 435120, Note_on_c, 7, 62, 64
9, 435310, Note_on_c, 7, 62, 0
9, 435360, Note_on_c, 7, 62, 64
9, 435550, Note_on_c, 7, 62, 0
9, 435600, Note_on_c, 7, 62, 64
9, 435790, Note_on_c, 7, 62, 0
9, 435840, Control_c, 7, 11, 84
9, 435840, Note_on_c, 7, 62, 96
9, 436030, Note_on_c, 7, 62, 0
9, 436080, Control_c, 7, 11, 85
9, 436080, Note_on_c, 7, 86, 96
9, 436200, Control_c, 7, 11, 88
9, 436270, Note_on_c, 7, 86, 0
9, 436320, Control_c, 7, 11, 91
9, 436320, Note_on_c, 7, 86, 96
9, 436440, Control_c, 7, 11, 93
9, 436510, Note_on_c, 7, 86, 0
9, 436560, Control_c, 7, 11, 97
9, 436560, Note_on_c, 7, 86, 96
9, 436680, Control_c, 7, 11, 100
9, 436750, Note_on_c, 7, 86, 0
9, 436800, Control_c, 7, 11, 103
9, 436800, Note_on_c, 7, 86, 96
9, 436920, Control_c, 7, 11, 105
9, 436990, Note_on_c, 7, 86, 0
9, 437040, Control_c, 7, 11, 109
9, 437040, Note_on_c, 7, 86, 96
9, 437160, Control_c, 7, 11, 112
9, 437230, Note_on_c, 7, 86, 0
9, 437280, Control_c, 7, 11, 115
9, 437280, Note_on_c, 7, 86, 96
9, 437400, Control_c, 7, 11, 117
9, 437470, Note_on_c, 7, 86, 0
9, 437520, Control_c, 7, 11, 121
9, 437520, Note_on_c, 7, 86, 96
9, 437640, Control_c, 7, 11, 124
9, 437710, Note_on_c, 7, 86, 0
9, 437760, Control_c, 7, 11, 127
9, 437760, Note_on_c, 7, 85, 96
9, 437760, Note_on_c, 7, 76, 96
9, 438520, Note_on_c, 7, 76, 0
9, 438520, Note_on_c, 7, 85, 0
9, 438720, Note_on_c, 7, 85, 96
9, 438720, Note_on_c, 7, 76, 96
9, 439290, Note_on_c, 7, 76, 0
9, 439290, Note_on_c, 7, 85, 0
9, 439440, Note_on_c, 7, 85, 96
9, 439630, Note_on_c, 7, 85, 0
9, 439680, Note_on_c, 7, 86, 96
9, 439920, Note_on_c, 7, 86, 0
9, 439920, Note_on_c, 7, 81, 96
9, 440110, Note_on_c, 7, 81, 0
9, 440160, Note_on_c, 7, 81, 96
9, 440350, Note_on_c, 7, 81, 0
9, 440400, Note_on_c, 7, 81, 96
9, 440590, Note_on_c, 7, 81, 0
9, 440640, Note_on_c, 7, 81, 96
9, 440880, Note_on_c, 7, 81, 0
9, 440880, Note_on_c, 7, 86, 96
9, 441070, Note_on_c, 7, 86, 0
9, 441120, Note_on_c, 7, 86, 96
9, 441310, Note_on_c, 7, 86, 0
9, 441360, Note_on_c, 7, 86, 96
9, 441550, Note_on_c, 7, 86, 0
9, 441600, Note_on_c, 7, 85, 96
9, 441600, Note_on_c, 7, 76, 96
9, 442360, Note_on_c, 7, 76, 0
9, 442360, Note_on_c, 7, 85, 0
9, 442560, Note_on_c, 7, 85, 96
9, 442560, Note_on_c, 7, 76, 96
9, 443130, Note_on_c, 7, 76, 0
9, 443130, Note_on_c, 7, 85, 0
9, 443280, Note_on_c, 7, 85, 96
9, 443470, Note_on_c, 7, 85, 0
9, 443520, Note_on_c, 7, 86, 96
9, 443760, Note_on_c, 7, 86, 0
9, 443760, Note_on_c, 7, 81, 96
9, 443950, Note_on_c, 7, 81, 0
9, 444000, Note_on_c, 7, 81, 96
9, 444190, Note_on_c, 7, 81, 0
9, 444240, Note_on_c, 7, 81, 96
9, 444430, Note_on_c, 7, 81, 0
9, 444480, Note_on_c, 7, 81, 96
9, 444720, Note_on_c, 7, 81, 0
9, 444720, Note_on_c, 7, 86, 96
9, 444910, Note_on_c, 7, 86, 0
9, 444960, Note_on_c, 7, 86, 96
9, 445150, Note_on_c, 7, 86, 0
9, 445200, Note_on_c, 7, 86, 96
9, 445390, Note_on_c, 7, 86, 0
9, 445440, Note_on_c, 7, 85, 96
9, 445440, Note_on_c, 7, 76, 96
9, 446200, Note_on_c, 7, 76, 0
9, 446200, Note_on_c, 7, 85, 0
9, 446400, Note_on_c, 7, 88, 96
9, 446970, Note_on_c, 7, 88, 0
9, 447120, Note_on_c, 7, 88, 96
9, 447310, Note_on_c, 7, 88, 0
9, 447360, Note_on_c, 7, 89, 96
9, 447930, Note_on_c, 7, 89, 0
9, 448080, Note_on_c, 7, 89, 96
9, 448270, Note_on_c, 7, 89, 0
9, 448320, Note_on_c, 7, 86, 96
9, 448890, Note_on_c, 7, 86, 0
9, 449040, Note_on_c, 7, 86, 96
9, 449230, Note_on_c, 7, 86, 0
9, 449280, Note_on_c, 7, 85, 96
9, 449470, Note_on_c, 7, 85, 0
9, 449520, Note_on_c, 7, 81, 96
9, 449710, Note_on_c, 7, 81, 0
9, 449760, Note_on_c, 7, 86, 96
9, 449950, Note_on_c, 7, 86, 0
9, 450000, Note_on_c, 7, 81, 96
9, 450190, Note_on_c, 7, 81, 0
9, 450240, Note_on_c, 7, 85, 96
9, 450430, Note_on_c, 7, 85, 0
9, 450480, Note_on_c, 7, 81, 96
9, 450670, Note_on_c, 7, 81, 0
9, 450720, Note_on_c, 7, 86, 96
9, 450910, Note_on_c, 7, 86, 0
9, 450960, Note_on_c, 7, 81, 96
9, 451150, Note_on_c, 7, 81, 0
9, 451200, Note_on_c, 7, 85, 96
9, 451390, Note_on_c, 7, 85, 0
9, 451440, Note_on_c, 7, 81, 96
9, 451630, Note_on_c, 7, 81, 0
9, 451680, Note_on_c, 7, 86, 96
9, 451870, Note_on_c, 7, 86, 0
9, 451920, Note_on_c, 7, 81, 96
9, 452110, Note_on_c, 7, 81, 0
9, 452160, Note_on_c, 7, 85, 96
9, 452350, Note_on_c, 7, 85, 0
9, 452400, Note_on_c, 7, 81, 96
9, 452590, Note_on_c, 7, 81, 0
9, 452640, Note_on_c, 7, 86, 96
9, 452830, Note_on_c, 7, 86, 0
9, 452880, Note_on_c, 7, 81, 96
9, 453070, Note_on_c, 7, 81, 0
9, 453120, Note_on_c, 7, 85, 96
9, 453500, Note_on_c, 7, 85, 0
9, 453600, Note_on_c, 7, 81, 96
9, 453600, Note_on_c, 7, 69, 96
9, 453980, Note_on_c, 7, 69, 0
9, 453980, Note_on_c, 7, 81, 0
9, 454080, Note_on_c, 7, 57, 96
9, 454460, Note_on_c, 7, 57, 0
9, 454560, Note_on_c, 7, 57, 96
9, 454940, Note_on_c, 7, 57, 0
9, 455040, Note_on_c, 7, 57, 96
9, 455800, Note_on_c, 7, 57, 0
9, 456960, Note_on_c, 7, 67, 127
9, 458110, Note_on_c, 7, 67, 0
9, 458400, Note_on_c, 7, 66, 96
9, 458520, Note_on_c, 7, 66, 0
9, 458880, Note_on_c, 7, 64, 96
9, 459000, Note_on_c, 7, 64, 0
9, 459360, Note_on_c, 7, 62, 96
9, 459480, Note_on_c, 7, 62, 0
9, 459840, Note_on_c, 7, 61, 96
9, 459960, Note_on_c, 7, 61, 0
9, 460320, Note_on_c, 7, 81, 64
9, 460380, Note_on_c, 7, 81, 0
9, 460560, Note_on_c, 7, 81, 64
9, 460620, Note_on_c, 7, 81, 0
9, 460800, Note_on_c, 7, 85, 64
9, 460840, Note_on_c, 7, 85, 0
9, 460860, Note_on_c, 7, 83, 70
9, 461040, Note_on_c, 7, 83, 0
9, 461040, Note_on_c, 7, 81, 64
9, 461230, Note_on_c, 7, 81, 0
9, 461280, Note_on_c, 7, 81, 64
9, 461340, Note_on_c, 7, 81, 0
9, 461520, Note_on_c, 7, 81, 64
9, 461580, Note_on_c, 7, 81, 0
9, 461760, Note_on_c, 7, 85, 64
9, 461800, Note_on_c, 7, 85, 0
9, 461820, Note_on_c, 7, 83, 70
9, 462000, Note_on_c, 7, 83, 0
9, 462000, Note_on_c, 7, 81, 64
9, 462190, Note_on_c, 7, 81, 0
9, 462240, Note_on_c, 7, 81, 64
9, 462300, Note_on_c, 7, 81, 0
9, 462480, Note_on_c, 7, 81, 64
9, 462540, Note_on_c, 7, 81, 0
9, 462720, Note_on_c, 7, 81, 64
9, 462960, Note_on_c, 7, 81, 0
9, 462960, Note_on_c, 7, 86, 64
9, 463150, Note_on_c, 7, 86, 0
9, 463200, Note_on_c, 7, 81, 64
9, 463260, Note_on_c, 7, 81, 0
9, 463440, Note_on_c, 7, 81, 64
9, 463500, Note_on_c, 7, 81, 0
9, 463680, Note_on_c, 7, 81, 64
9, 464060, Note_on_c, 7, 81, 0
9, 464640, Note_on_c, 7, 67, 127
9, 465790, Note_on_c, 7, 67, 0
9, 466080, Note_on_c, 7, 66, 64
9, 466200, Note_on_c, 7, 66, 0
9, 466560, Note_on_c, 7, 64, 64
9, 466680, Note_on_c, 7, 64, 0
9, 467040, Note_on_c, 7, 62, 64
9, 467160, Note_on_c, 7, 62, 0
9, 467520, Note_on_c, 7, 61, 64
9, 467640, Note_on_c, 7, 61, 0
9, 468000, Note_on_c, 7, 81, 64
9, 468060, Note_on_c, 7, 81, 0
9, 468240, Note_on_c, 7, 81, 64
9, 468300, Note_on_c, 7, 81, 0
9, 468480, Note_on_c, 7, 85, 64
9, 468520, Note_on_c, 7, 85, 0
9, 468540, Note_on_c, 7, 83, 70
9, 468720, Note_on_c, 7, 83, 0
9, 468720, Note_on_c, 7, 81, 64
9, 468910, Note_on_c, 7, 81, 0
9, 468960, Note_on_c, 7, 81, 64
9, 469020, Note_on_c, 7, 81, 0
9, 469200, Note_on_c, 7, 81, 64
9, 469260, Note_on_c, 7, 81, 0
9, 469440, Note_on_c, 7, 85, 64
9, 469480, Note_on_c, 7, 85, 0
9, 469500, Note_on_c, 7, 83, 70
9, 469680, Note_on_c, 7, 83, 0
9, 469680, Note_on_c, 7, 81, 64
9, 469870, Note_on_c, 7, 81, 0
9, 469920, Note_on_c, 7, 81, 64
9, 469980, Note_on_c, 7, 81, 0
9, 470160, Note_on_c, 7, 81, 64
9, 470220, Note_on_c, 7, 81, 0
9, 470400, Note_on_c, 7, 81, 64
9, 470640, Note_on_c, 7, 81, 0
9, 470640, Note_on_c, 7, 86, 64
9, 470830, Note_on_c, 7, 86, 0
9, 470880, Note_on_c, 7, 81, 64
9, 470940, Note_on_c, 7, 81, 0
9, 471120, Note_on_c, 7, 81, 64
9, 471180, Note_on_c, 7, 81, 0
9, 471360, Note_on_c, 7, 81, 64
9, 471740, Note_on_c, 7, 81, 0
9, 472320, Note_on_c, 7, 67, 64
9, 473470, Note_on_c, 7, 67, 0
9, 473760, Note_on_c, 7, 66, 64
9, 473880, Note_on_c, 7, 66, 0
9, 474240, Note_on_c, 7, 64, 64
9, 474360, Note_on_c, 7, 64, 0
9, 474720, Note_on_c, 7, 62, 64
9, 474840, Note_on_c, 7, 62, 0
9, 475200, Note_on_c, 7, 61, 64
9, 475320, Note_on_c, 7, 61, 0
9, 476160, Note_on_c, 7, 67, 96
9, 477310, Note_on_c, 7, 67, 0
9, 477600, Note_on_c, 7, 65, 96
9, 477720, Note_on_c, 7, 65, 0
9, 478080, Note_on_c, 7, 64, 64
9, 478200, Note_on_c, 7, 64, 0
9, 478560, Note_on_c, 7, 62, 64
9, 478680, Note_on_c, 7, 62, 0
9, 479040, Note_on_c, 7, 61, 64
9, 479160, Note_on_c, 7, 61, 0
9, 480000, Note_on_c, 7, 67, 96
9, 481150, Note_on_c, 7, 67, 0
9, 481440, Note_on_c, 7, 65, 96
9, 481560, Note_on_c, 7, 65, 0
9, 481920, Note_on_c, 7, 64, 64
9, 482040, Note_on_c, 7, 64, 0
9, 482400, Note_on_c, 7, 62, 64
9, 482520, Note_on_c, 7, 62, 0
9, 482880, Note_on_c, 7, 60, 64
9, 483000, Note_on_c, 7, 60, 0
9, 483840, Note_on_c, 7, 64, 64
9, 484080, Note_on_c, 7, 64, 0
9, 484080, Note_on_c, 7, 72, 64
9, 484320, Note_on_c, 7, 72, 0
9, 484320, Note_on_c, 7, 64, 64
9, 484560, Note_on_c, 7, 64, 0
9, 484560, Note_on_c, 7, 72, 64
9, 484800, Note_on_c, 7, 72, 0
9, 484800, Note_on_c, 7, 64, 64
9, 485040, Note_on_c, 7, 64, 0
9, 485040, Note_on_c, 7, 72, 64
9, 485280, Note_on_c, 7, 72, 0
9, 485280, Note_on_c, 7, 64, 64
9, 485520, Note_on_c, 7, 64, 0
9, 485520, Note_on_c, 7, 72, 64
9, 485710, Note_on_c, 7, 72, 0
9, 485760, Note_on_c, 7, 65, 64
9, 486000, Note_on_c, 7, 65, 0
9, 486000, Note_on_c, 7, 72, 64
9, 486240, Note_on_c, 7, 72, 0
9, 486240, Note_on_c, 7, 65, 64
9, 486480, Note_on_c, 7, 65, 0
9, 486480, Note_on_c, 7, 72, 64
9, 486720, Note_on_c, 7, 72, 0
9, 486720, Note_on_c, 7, 65, 64
9, 486960, Note_on_c, 7, 65, 0
9, 486960, Note_on_c, 7, 72, 64
9, 487200, Note_on_c, 7, 72, 0
9, 487200, Note_on_c, 7, 65, 64
9, 487440, Note_on_c, 7, 65, 0
9, 487440, Note_on_c, 7, 72, 64
9, 487630, Note_on_c, 7, 72, 0
9, 487680, Note_on_c, 7, 64, 64
9, 487920, Note_on_c, 7, 64, 0
9, 487920, Note_on_c, 7, 72, 64
9, 488160, Note_on_c, 7, 72, 0
9, 488160, Note_on_c, 7, 64, 64
9, 488400, Note_on_c, 7, 64, 0
9, 488400, Note_on_c, 7, 72, 64
9, 488640, Note_on_c, 7, 72, 0
9, 488640, Note_on_c, 7, 64, 64
9, 488880, Note_on_c, 7, 64, 0
9, 488880, Note_on_c, 7, 72, 64
9, 489120, Note_on_c, 7, 72, 0
9, 489120, Note_on_c, 7, 64, 64
9, 489360, Note_on_c, 7, 64, 0
9, 489360, Note_on_c, 7, 72, 64
9, 489550, Note_on_c, 7, 72, 0
9, 489600, Note_on_c, 7, 65, 64
9, 489840, Note_on_c, 7, 65, 0
9, 489840, Note_on_c, 7, 72, 64
9, 490080, Note_on_c, 7, 72, 0
9, 490080, Note_on_c, 7, 65, 64
9, 490320, Note_on_c, 7, 65, 0
9, 490320, Note_on_c, 7, 72, 64
9, 490560, Note_on_c, 7, 72, 0
9, 490560, Note_on_c, 7, 65, 64
9, 490800, Note_on_c, 7, 65, 0
9, 490800, Note_on_c, 7, 72, 64
9, 491040, Note_on_c, 7, 72, 0
9, 491040, Note_on_c, 7, 65, 64
9, 491280, Note_on_c, 7, 65, 0
9, 491280, Note_on_c, 7, 72, 64
9, 491470, Note_on_c, 7, 72, 0
9, 491520, Note_on_c, 7, 67, 64
9, 491710, Note_on_c, 7, 67, 0
9, 491760, Note_on_c, 7, 66, 64
9, 491950, Note_on_c, 7, 66, 0
9, 492000, Note_on_c, 7, 67, 64
9, 492190, Note_on_c, 7, 67, 0
9, 492240, Note_on_c, 7, 66, 64
9, 492430, Note_on_c, 7, 66, 0
9, 492480, Note_on_c, 7, 67, 64
9, 492670, Note_on_c, 7, 67, 0
9, 492720, Note_on_c, 7, 70, 64
9, 492910, Note_on_c, 7, 70, 0
9, 492960, Note_on_c, 7, 69, 64
9, 493150, Note_on_c, 7, 69, 0
9, 493200, Note_on_c, 7, 67, 64
9, 493390, Note_on_c, 7, 67, 0
9, 493440, Note_on_c, 7, 65, 64
9, 493630, Note_on_c, 7, 65, 0
9, 493680, Note_on_c, 7, 64, 64
9, 493870, Note_on_c, 7, 64, 0
9, 493920, Note_on_c, 7, 65, 64
9, 494110, Note_on_c, 7, 65, 0
9, 494160, Note_on_c, 7, 64, 64
9, 494350, Note_on_c, 7, 64, 0
9, 494400, Note_on_c, 7, 65, 64
9, 494590, Note_on_c, 7, 65, 0
9, 494640, Note_on_c, 7, 64, 64
9, 494830, Note_on_c, 7, 64, 0
9, 494880, Note_on_c, 7, 65, 64
9, 495070, Note_on_c, 7, 65, 0
9, 495120, Note_on_c, 7, 64, 64
9, 495310, Note_on_c, 7, 64, 0
9, 495360, Note_on_c, 7, 65, 64
9, 495550, Note_on_c, 7, 65, 0
9, 495600, Note_on_c, 7, 65, 64
9, 495790, Note_on_c, 7, 65, 0
9, 495840, Note_on_c, 7, 65, 64
9, 496030, Note_on_c, 7, 65, 0
9, 496080, Note_on_c, 7, 65, 64
9, 496270, Note_on_c, 7, 65, 0
9, 496320, Note_on_c, 7, 69, 64
9, 496510, Note_on_c, 7, 69, 0
9, 496560, Note_on_c, 7, 69, 64
9, 496750, Note_on_c, 7, 69, 0
9, 496800, Note_on_c, 7, 65, 64
9, 496990, Note_on_c, 7, 65, 0
9, 497040, Note_on_c, 7, 65, 64
9, 497230, Note_on_c, 7, 65, 0
9, 497280, Note_on_c, 7, 64, 64
9, 497470, Note_on_c, 7, 64, 0
9, 497520, Note_on_c, 7, 64, 64
9, 497710, Note_on_c, 7, 64, 0
9, 497760, Note_on_c, 7, 64, 64
9, 497950, Note_on_c, 7, 64, 0
9, 498000, Note_on_c, 7, 64, 64
9, 498190, Note_on_c, 7, 64, 0
9, 498240, Note_on_c, 7, 67, 64
9, 498430, Note_on_c, 7, 67, 0
9, 498480, Note_on_c, 7, 67, 64
9, 498670, Note_on_c, 7, 67, 0
9, 498720, Note_on_c, 7, 64, 64
9, 498910, Note_on_c, 7, 64, 0
9, 498960, Note_on_c, 7, 64, 64
9, 499150, Note_on_c, 7, 64, 0
9, 499200, Note_on_c, 7, 74, 96
9, 499200, Note_on_c, 7, 62, 96
9, 499960, Note_on_c, 7, 62, 0
9, 499960, Note_on_c, 7, 74, 0
9, 500160, Note_on_c, 7, 78, 96
9, 500280, Note_on_c, 7, 78, 0
9, 500280, Note_on_c, 7, 76, 96
9, 500400, Note_on_c, 7, 76, 0
9, 500400, Note_on_c, 7, 74, 96
9, 500640, Note_on_c, 7, 74, 0
9, 500640, Note_on_c, 7, 74, 96
9, 500830, Note_on_c, 7, 74, 0
9, 500880, Note_on_c, 7, 74, 96
9, 501070, Note_on_c, 7, 74, 0
9, 501120, Note_on_c, 7, 81, 96
9, 501880, Note_on_c, 7, 81, 0
9, 502080, Note_on_c, 7, 78, 96
9, 502200, Note_on_c, 7, 78, 0
9, 502200, Note_on_c, 7, 76, 96
9, 502320, Note_on_c, 7, 76, 0
9, 502320, Note_on_c, 7, 74, 96
9, 502560, Note_on_c, 7, 74, 0
9, 502560, Note_on_c, 7, 74, 96
9, 502750, Note_on_c, 7, 74, 0
9, 502800, Note_on_c, 7, 74, 96
9, 502990, Note_on_c, 7, 74, 0
9, 503040, Note_on_c, 7, 83, 96
9, 503230, Note_on_c, 7, 83, 0
9, 503280, Note_on_c, 7, 82, 96
9, 503470, Note_on_c, 7, 82, 0
9, 503520, Note_on_c, 7, 83, 96
9, 503710, Note_on_c, 7, 83, 0
9, 503760, Note_on_c, 7, 82, 96
9, 503950, Note_on_c, 7, 82, 0
9, 504000, Note_on_c, 7, 83, 96
9, 505150, Note_on_c, 7, 83, 0
9, 505200, Note_on_c, 7, 85, 96
9, 505390, Note_on_c, 7, 85, 0
9, 505440, Note_on_c, 7, 86, 96
9, 505630, Note_on_c, 7, 86, 0
9, 505680, Note_on_c, 7, 85, 96
9, 505870, Note_on_c, 7, 85, 0
9, 505920, Note_on_c, 7, 86, 96
9, 506110, Note_on_c, 7, 86, 0
9, 506160, Note_on_c, 7, 85, 96
9, 506350, Note_on_c, 7, 85, 0
9, 506400, Note_on_c, 7, 86, 96
9, 506590, Note_on_c, 7, 86, 0
9, 506640, Note_on_c, 7, 83, 96
9, 506830, Note_on_c, 7, 83, 0
9, 506880, Note_on_c, 7, 81, 96
9, 507120, Note_on_c, 7, 81, 0
9, 507120, Note_on_c, 7, 86, 96
9, 507360, Note_on_c, 7, 86, 0
9, 507360, Note_on_c, 7, 78, 96
9, 507550, Note_on_c, 7, 78, 0
9, 507600, Note_on_c, 7, 78, 96
9, 507790, Note_on_c, 7, 78, 0
9, 507840, Note_on_c, 7, 78, 96
9, 509180, Note_on_c, 7, 78, 0
9, 509280, Note_on_c, 7, 79, 96
9, 509470, Note_on_c, 7, 79, 0
9, 509520, Note_on_c, 7, 81, 96
9, 509710, Note_on_c, 7, 81, 0
9, 509760, Note_on_c, 7, 81, 96
9, 510000, Note_on_c, 7, 81, 0
9, 510000, Note_on_c, 7, 79, 96
9, 510240, Note_on_c, 7, 79, 0
9, 510240, Note_on_c, 7, 78, 96
9, 510300, Note_on_c, 7, 78, 0
9, 510480, Note_on_c, 7, 76, 96
9, 510540, Note_on_c, 7, 76, 0
9, 510720, Note_on_c, 7, 74, 96
9, 510720, Note_on_c, 7, 62, 96
9, 511480, Note_on_c, 7, 62, 0
9, 511480, Note_on_c, 7, 74, 0
9, 511680, Note_on_c, 7, 78, 96
9, 511800, Note_on_c, 7, 78, 0
9, 511800, Note_on_c, 7, 76, 96
9, 511920, Note_on_c, 7, 76, 0
9, 511920, Note_on_c, 7, 74, 96
9, 512110, Note_on_c, 7, 74, 0
9, 512160, Note_on_c, 7, 74, 96
9, 512350, Note_on_c, 7, 74, 0
9, 512400, Note_on_c, 7, 74, 96
9, 512590, Note_on_c, 7, 74, 0
9, 512640, Note_on_c, 7, 81, 96
9, 513400, Note_on_c, 7, 81, 0
9, 513600, Note_on_c, 7, 78, 96
9, 513720, Note_on_c, 7, 78, 0
9, 513720, Note_on_c, 7, 76, 96
9, 513840, Note_on_c, 7, 76, 0
9, 513840, Note_on_c, 7, 74, 96
9, 514030, Note_on_c, 7, 74, 0
9, 514080, Note_on_c, 7, 74, 96
9, 514270, Note_on_c, 7, 74, 0
9, 514320, Note_on_c, 7, 74, 96
9, 514510, Note_on_c, 7, 74, 0
9, 514560, Note_on_c, 7, 83, 96
9, 514750, Note_on_c, 7, 83, 0
9, 514800, Note_on_c, 7, 82, 96
9, 514990, Note_on_c, 7, 82, 0
9, 515040, Note_on_c, 7, 83, 96
9, 515230, Note_on_c, 7, 83, 0
9, 515280, Note_on_c, 7, 82, 96
9, 515470, Note_on_c, 7, 82, 0
9, 515520, Note_on_c, 7, 83, 96
9, 516670, Note_on_c, 7, 83, 0
9, 516720, Note_on_c, 7, 85, 96
9, 516910, Note_on_c, 7, 85, 0
9, 516960, Note_on_c, 7, 86, 96
9, 517150, Note_on_c, 7, 86, 0
9, 517200, Note_on_c, 7, 85, 96
9, 517390, Note_on_c, 7, 85, 0
9, 517440, Note_on_c, 7, 86, 96
9, 517630, Note_on_c, 7, 86, 0
9, 517680, Note_on_c, 7, 85, 96
9, 517870, Note_on_c, 7, 85, 0
9, 517920, Note_on_c, 7, 86, 96
9, 518110, Note_on_c, 7, 86, 0
9, 518160, Note_on_c, 7, 83, 96
9, 518350, Note_on_c, 7, 83, 0
9, 518400, Note_on_c, 7, 81, 96
9, 518640, Note_on_c, 7, 81, 0
9, 518640, Note_on_c, 7, 86, 96
9, 518830, Note_on_c, 7, 86, 0
9, 518880, Note_on_c, 7, 78, 96
9, 519070, Note_on_c, 7, 78, 0
9, 519120, Note_on_c, 7, 78, 96
9, 519310, Note_on_c, 7, 78, 0
9, 519360, Note_on_c, 7, 78, 96
9, 520700, Note_on_c, 7, 78, 0
9, 520800, Note_on_c, 7, 79, 96
9, 520990, Note_on_c, 7, 79, 0
9, 521040, Note_on_c, 7, 81, 96
9, 521230, Note_on_c, 7, 81, 0
9, 521280, Note_on_c, 7, 81, 96
9, 521520, Note_on_c, 7, 81, 0
9, 521520, Note_on_c, 7, 79, 96
9, 521710, Note_on_c, 7, 79, 0
9, 521760, Note_on_c, 7, 78, 96
9, 521820, Note_on_c, 7, 78, 0
9, 522000, Note_on_c, 7, 76, 96
9, 522060, Note_on_c, 7, 76, 0
9, 522240, Note_on_c, 7, 74, 96
9, 522430, Note_on_c, 7, 74, 0
9, 522480, Note_on_c, 7, 78, 96
9, 522670, Note_on_c, 7, 78, 0
9, 522720, Note_on_c, 7, 69, 96
9, 522910, Note_on_c, 7, 69, 0
9, 522960, Note_on_c, 7, 73, 96
9, 523150, Note_on_c, 7, 73, 0
9, 523200, Note_on_c, 7, 74, 96
9, 523390, Note_on_c, 7, 74, 0
9, 523440, Note_on_c, 7, 78, 96
9, 523630, Note_on_c, 7, 78, 0
9, 523680, Note_on_c, 7, 79, 96
9, 523870, Note_on_c, 7, 79, 0
9, 523920, Note_on_c, 7, 76, 96
9, 524110, Note_on_c, 7, 76, 0
9, 524160, Note_on_c, 7, 74, 96
9, 524350, Note_on_c, 7, 74, 0
9, 524400, Note_on_c, 7, 78, 96
9, 524590, Note_on_c, 7, 78, 0
9, 524640, Note_on_c, 7, 69, 96
9, 524830, Note_on_c, 7, 69, 0
9, 524880, Note_on_c, 7, 73, 96
9, 525070, Note_on_c, 7, 73, 0
9, 525120, Note_on_c, 7, 74, 96
9, 525310, Note_on_c, 7, 74, 0
9, 525360, Note_on_c, 7, 78, 96
9, 525550, Note_on_c, 7, 78, 0
9, 525600, Note_on_c, 7, 79, 96
9, 525790, Note_on_c, 7, 79, 0
9, 525840, Note_on_c, 7, 76, 96
9, 526030, Note_on_c, 7, 76, 0
9, 526080, Note_on_c, 7, 74, 96
9, 526270, Note_on_c, 7, 74, 0
9, 526320, Note_on_c, 7, 78, 96
9, 526510, Note_on_c, 7, 78, 0
9, 526560, Note_on_c, 7, 69, 96
9, 526750, Note_on_c, 7, 69, 0
9, 526800, Note_on_c, 7, 73, 96
9, 526990, Note_on_c, 7, 73, 0
9, 527040, Note_on_c, 7, 74, 96
9, 527230, Note_on_c, 7, 74, 0
9, 527280, Note_on_c, 7, 78, 96
9, 527470, Note_on_c, 7, 78, 0
9, 527520, Note_on_c, 7, 79, 96
9, 527710, Note_on_c, 7, 79, 0
9, 527760, Note_on_c, 7, 76, 96
9, 527950, Note_on_c, 7, 76, 0
9, 528000, Note_on_c, 7, 74, 96
9, 528190, Note_on_c, 7, 74, 0
9, 528240, Note_on_c, 7, 78, 96
9, 528430, Note_on_c, 7, 78, 0
9, 528480, Note_on_c, 7, 69, 96
9, 528670, Note_on_c, 7, 69, 0
9, 528720, Note_on_c, 7, 73, 96
9, 528910, Note_on_c, 7, 73, 0
9, 528960, Note_on_c, 7, 74, 96
9, 529150, Note_on_c, 7, 74, 0
9, 529200, Note_on_c, 7, 78, 96
9, 529390, Note_on_c, 7, 78, 0
9, 529440, Note_on_c, 7, 79, 96
9, 529630, Note_on_c, 7, 79, 0
9, 529680, Note_on_c, 7, 76, 96
9, 529870, Note_on_c, 7, 76, 0
9, 529920, Note_on_c, 7, 74, 96
9, 530160, Note_on_c, 7, 74, 0
9, 530160, Note_on_c, 7, 69, 96
9, 530350, Note_on_c, 7, 69, 0
9, 530400, Note_on_c, 7, 78, 96
9, 530460, Note_on_c, 7, 78, 0
9, 530640, Note_on_c, 7, 78, 96
9, 530700, Note_on_c, 7, 78, 0
9, 530880, Note_on_c, 7, 78, 96
9, 531120, Note_on_c, 7, 78, 0
9, 531120, Note_on_c, 7, 74, 96
9, 531310, Note_on_c, 7, 74, 0
9, 531360, Note_on_c, 7, 81, 96
9, 531420, Note_on_c, 7, 81, 0
9, 531600, Note_on_c, 7, 81, 96
9, 531660, Note_on_c, 7, 81, 0
9, 531840, Note_on_c, 7, 81, 96
9, 532080, Note_on_c, 7, 81, 0
9, 532080, Note_on_c, 7, 78, 96
9, 532270, Note_on_c, 7, 78, 0
9, 532320, Note_on_c, 7, 84, 96
9, 532380, Note_on_c, 7, 84, 0
9, 532560, Note_on_c, 7, 84, 96
9, 532620, Note_on_c, 7, 84, 0
9, 532800, Note_on_c, 7, 84, 96
9, 532990, Note_on_c, 7, 84, 0
9, 533040, Note_on_c, 7, 84, 96
9, 533230, Note_on_c, 7, 84, 0
9, 533280, Note_on_c, 7, 84, 96
9, 533470, Note_on_c, 7, 84, 0
9, 533520, Note_on_c, 7, 84, 96
9, 533710, Note_on_c, 7, 84, 0
9, 533760, Note_on_c, 7, 84, 96
9, 534910, Note_on_c, 7, 84, 0
9, 535200, Note_on_c, 7, 83, 96
9, 535320, Note_on_c, 7, 83, 0
9, 535680, Note_on_c, 7, 81, 96
9, 535800, Note_on_c, 7, 81, 0
9, 536160, Note_on_c, 7, 79, 96
9, 536280, Note_on_c, 7, 79, 0
9, 536640, Note_on_c, 7, 78, 96
9, 536760, Note_on_c, 7, 78, 0
9, 537600, Note_on_c, 7, 86, 96
9, 538750, Note_on_c, 7, 86, 0
9, 539040, Note_on_c, 7, 84, 96
9, 539160, Note_on_c, 7, 84, 0
9, 539520, Note_on_c, 7, 83, 96
9, 539640, Note_on_c, 7, 83, 0
9, 540000, Note_on_c, 7, 81, 96
9, 540120, Note_on_c, 7, 81, 0
9, 540480, Note_on_c, 7, 79, 96
9, 540600, Note_on_c, 7, 79, 0
9, 541440, Note_on_c, 7, 82, 64
9, 542590, Note_on_c, 7, 82, 0
9, 542880, Note_on_c, 7, 81, 64
9, 543000, Note_on_c, 7, 81, 0
9, 543360, Note_on_c, 7, 79, 64
9, 543480, Note_on_c, 7, 79, 0
9, 543840, Note_on_c, 7, 77, 64
9, 543960, Note_on_c, 7, 77, 0
9, 544320, Note_on_c, 7, 76, 64
9, 544440, Note_on_c, 7, 76, 0
9, 545280, Note_on_c, 7, 84, 64
9, 546430, Note_on_c, 7, 84, 0
9, 546720, Note_on_c, 7, 82, 64
9, 546840, Note_on_c, 7, 82, 0
9, 547200, Note_on_c, 7, 81, 64
9, 547320, Note_on_c, 7, 81, 0
9, 547680, Note_on_c, 7, 79, 64
9, 547800, Note_on_c, 7, 79, 0
9, 548160, Note_on_c, 7, 77, 64
9, 548280, Note_on_c, 7, 77, 0
9, 549120, Note_on_c, 7, 76, 64
9, 550650, Note_on_c, 7, 76, 0
9, 551040, Note_on_c, 7, 77, 64
9, 552000, Note_on_c, 7, 77, 0
9, 552000, Note_on_c, 7, 71, 64
9, 552760, Note_on_c, 7, 71, 0
9, 552960, Note_on_c, 7, 72, 64
9, 553920, Note_on_c, 7, 72, 0
9, 553920, Note_on_c, 7, 76, 64
9, 554680, Note_on_c, 7, 76, 0
9, 554880, Note_on_c, 7, 77, 64
9, 555840, Note_on_c, 7, 77, 0
9, 555840, Note_on_c, 7, 71, 64
9, 556600, Note_on_c, 7, 71, 0
9, 556800, Note_on_c, 7, 72, 64
9, 558330, Note_on_c, 7, 72, 0
9, 558720, Note_on_c, 7, 60, 64
9, 560250, Note_on_c, 7, 60, 0
9, 560640, Note_on_c, 7, 60, 64
9, 562170, Note_on_c, 7, 60, 0
9, 562170, End_track
10, 0, Start_track
10, 0, MIDI_port, 0
10, 0, Title_t, "Violino II                          "
10, 0, Program_c, 8, 48
10, 0, Control_c, 8, 7, 70
10, 0, Control_c, 8, 10, 110
10, 0, Control_c, 8, 121, 0
10, 360, Control_c, 8, 101, 0
10, 360, Control_c, 8, 100, 0
10, 360, Control_c, 8, 6, 12
10, 360, Control_c, 8, 38, 0
10, 480, Control_c, 8, 5, 0
10, 600, Control_c, 8, 65, 0
10, 720, Control_c, 8, 67, 0
10, 960, Pitch_bend_c, 8, 8192
10, 1080, Control_c, 8, 64, 0
10, 1200, Control_c, 8, 11, 127
10, 1320, Control_c, 8, 1, 0
10, 1560, Control_c, 8, 91, 100
10, 1680, Control_c, 8, 93, 50
10, 1920, Note_on_c, 8, 77, 96
10, 1920, Note_on_c, 8, 69, 96
10, 1920, Note_on_c, 8, 62, 96
10, 2300, Note_on_c, 8, 62, 0
10, 2300, Note_on_c, 8, 69, 0
10, 2300, Note_on_c, 8, 77, 0
10, 2400, Note_on_c, 8, 77, 96
10, 2400, Note_on_c, 8, 69, 96
10, 3160, Note_on_c, 8, 69, 0
10, 3160, Note_on_c, 8, 77, 0
10, 3360, Note_on_c, 8, 77, 96
10, 3360, Note_on_c, 8, 69, 96
10, 4220, Note_on_c, 8, 69, 0
10, 4220, Note_on_c, 8, 77, 0
10, 5760, Note_on_c, 8, 76, 96
10, 5760, Note_on_c, 8, 69, 96
10, 6140, Note_on_c, 8, 69, 0
10, 6140, Note_on_c, 8, 76, 0
10, 6240, Note_on_c, 8, 76, 96
10, 6240, Note_on_c, 8, 69, 96
10, 7000, Note_on_c, 8, 69, 0
10, 7000, Note_on_c, 8, 76, 0
10, 7200, Note_on_c, 8, 76, 96
10, 7200, Note_on_c, 8, 69, 96
10, 8060, Note_on_c, 8, 69, 0
10, 8060, Note_on_c, 8, 76, 0
10, 9600, Note_on_c, 8, 57, 64
10, 10170, Note_on_c, 8, 57, 0
10, 10320, Note_on_c, 8, 57, 64
10, 10510, Note_on_c, 8, 57, 0
10, 10560, Note_on_c, 8, 57, 64
10, 11130, Note_on_c, 8, 57, 0
10, 11280, Note_on_c, 8, 57, 64
10, 11470, Note_on_c, 8, 57, 0
10, 11520, Note_on_c, 8, 56, 64
10, 12090, Note_on_c, 8, 56, 0
10, 12240, Note_on_c, 8, 56, 64
10, 12430, Note_on_c, 8, 56, 0
10, 12480, Note_on_c, 8, 56, 64
10, 13050, Note_on_c, 8, 56, 0
10, 13200, Note_on_c, 8, 56, 64
10, 13390, Note_on_c, 8, 56, 0
10, 13440, Note_on_c, 8, 57, 64
10, 14010, Note_on_c, 8, 57, 0
10, 14160, Note_on_c, 8, 57, 64
10, 14350, Note_on_c, 8, 57, 0
10, 14400, Note_on_c, 8, 57, 64
10, 14970, Note_on_c, 8, 57, 0
10, 15120, Note_on_c, 8, 57, 64
10, 15310, Note_on_c, 8, 57, 0
10, 15360, Note_on_c, 8, 63, 64
10, 15930, Note_on_c, 8, 63, 0
10, 16080, Note_on_c, 8, 63, 64
10, 16270, Note_on_c, 8, 63, 0
10, 16320, Note_on_c, 8, 63, 64
10, 16890, Note_on_c, 8, 63, 0
10, 17040, Note_on_c, 8, 66, 64
10, 17230, Note_on_c, 8, 66, 0
10, 17280, Note_on_c, 8, 66, 64
10, 17850, Note_on_c, 8, 66, 0
10, 18000, Note_on_c, 8, 66, 64
10, 18190, Note_on_c, 8, 66, 0
10, 18240, Note_on_c, 8, 66, 64
10, 18810, Note_on_c, 8, 66, 0
10, 18960, Note_on_c, 8, 66, 64
10, 19150, Note_on_c, 8, 66, 0
10, 19200, Note_on_c, 8, 67, 64
10, 19770, Note_on_c, 8, 67, 0
10, 19920, Note_on_c, 8, 67, 64
10, 20110, Note_on_c, 8, 67, 0
10, 20160, Note_on_c, 8, 65, 64
10, 20730, Note_on_c, 8, 65, 0
10, 20880, Note_on_c, 8, 65, 64
10, 21070, Note_on_c, 8, 65, 0
10, 21120, Note_on_c, 8, 65, 64
10, 22080, Note_on_c, 8, 65, 0
10, 22080, Note_on_c, 8, 64, 64
10, 22460, Note_on_c, 8, 64, 0
10, 24960, Note_on_c, 8, 57, 64
10, 25080, Note_on_c, 8, 57, 0
10, 25080, Note_on_c, 8, 58, 64
10, 25200, Note_on_c, 8, 58, 0
10, 25200, Note_on_c, 8, 57, 64
10, 25320, Note_on_c, 8, 57, 0
10, 25320, Note_on_c, 8, 58, 64
10, 25440, Note_on_c, 8, 58, 0
10, 25440, Note_on_c, 8, 57, 64
10, 25560, Note_on_c, 8, 57, 0
10, 25560, Note_on_c, 8, 62, 64
10, 25680, Note_on_c, 8, 62, 0
10, 25680, Note_on_c, 8, 60, 64
10, 25800, Note_on_c, 8, 60, 0
10, 25800, Note_on_c, 8, 58, 64
10, 25920, Note_on_c, 8, 58, 0
10, 25920, Note_on_c, 8, 57, 64
10, 26040, Note_on_c, 8, 57, 0
10, 26040, Note_on_c, 8, 58, 64
10, 26160, Note_on_c, 8, 58, 0
10, 26160, Note_on_c, 8, 57, 64
10, 26280, Note_on_c, 8, 57, 0
10, 26280, Note_on_c, 8, 58, 64
10, 26400, Note_on_c, 8, 58, 0
10, 26400, Note_on_c, 8, 57, 64
10, 26520, Note_on_c, 8, 57, 0
10, 26520, Note_on_c, 8, 62, 64
10, 26640, Note_on_c, 8, 62, 0
10, 26640, Note_on_c, 8, 60, 64
10, 26760, Note_on_c, 8, 60, 0
10, 26760, Note_on_c, 8, 58, 64
10, 26850, Note_on_c, 8, 58, 0
10, 26880, Note_on_c, 8, 57, 64
10, 27000, Note_on_c, 8, 57, 0
10, 27000, Note_on_c, 8, 58, 64
10, 27120, Note_on_c, 8, 58, 0
10, 27120, Note_on_c, 8, 57, 64
10, 27240, Note_on_c, 8, 57, 0
10, 27240, Note_on_c, 8, 58, 64
10, 27360, Note_on_c, 8, 58, 0
10, 27360, Note_on_c, 8, 57, 64
10, 27480, Note_on_c, 8, 57, 0
10, 27480, Note_on_c, 8, 64, 64
10, 27600, Note_on_c, 8, 64, 0
10, 27600, Note_on_c, 8, 61, 64
10, 27720, Note_on_c, 8, 61, 0
10, 27720, Note_on_c, 8, 58, 64
10, 27840, Note_on_c, 8, 58, 0
10, 27840, Note_on_c, 8, 57, 64
10, 27960, Note_on_c, 8, 57, 0
10, 27960, Note_on_c, 8, 58, 64
10, 28080, Note_on_c, 8, 58, 0
10, 28080, Note_on_c, 8, 57, 64
10, 28200, Note_on_c, 8, 57, 0
10, 28200, Note_on_c, 8, 58, 64
10, 28320, Note_on_c, 8, 58, 0
10, 28320, Note_on_c, 8, 57, 64
10, 28440, Note_on_c, 8, 57, 0
10, 28440, Note_on_c, 8, 64, 64
10, 28560, Note_on_c, 8, 64, 0
10, 28560, Note_on_c, 8, 61, 64
10, 28680, Note_on_c, 8, 61, 0
10, 28680, Note_on_c, 8, 58, 64
10, 28770, Note_on_c, 8, 58, 0
10, 28800, Note_on_c, 8, 57, 64
10, 28920, Note_on_c, 8, 57, 0
10, 28920, Note_on_c, 8, 62, 64
10, 29040, Note_on_c, 8, 62, 0
10, 29040, Note_on_c, 8, 61, 64
10, 29160, Note_on_c, 8, 61, 0
10, 29160, Note_on_c, 8, 62, 64
10, 29250, Note_on_c, 8, 62, 0
10, 29280, Note_on_c, 8, 57, 101
10, 29400, Note_on_c, 8, 57, 0
10, 29400, Note_on_c, 8, 60, 64
10, 29520, Note_on_c, 8, 60, 0
10, 29520, Note_on_c, 8, 62, 64
10, 29640, Note_on_c, 8, 62, 0
10, 29640, Note_on_c, 8, 60, 64
10, 29730, Note_on_c, 8, 60, 0
10, 29760, Note_on_c, 8, 55, 64
10, 29880, Note_on_c, 8, 55, 0
10, 29880, Note_on_c, 8, 58, 64
10, 30000, Note_on_c, 8, 58, 0
10, 30000, Note_on_c, 8, 62, 64
10, 30120, Note_on_c, 8, 62, 0
10, 30120, Note_on_c, 8, 58, 64
10, 30240, Note_on_c, 8, 58, 0
10, 30240, Note_on_c, 8, 57, 101
10, 30360, Note_on_c, 8, 57, 0
10, 30360, Note_on_c, 8, 60, 64
10, 30480, Note_on_c, 8, 60, 0
10, 30480, Note_on_c, 8, 62, 64
10, 30600, Note_on_c, 8, 62, 0
10, 30600, Note_on_c, 8, 60, 64
10, 30690, Note_on_c, 8, 60, 0
10, 30720, Note_on_c, 8, 55, 64
10, 30840, Note_on_c, 8, 55, 0
10, 30840, Note_on_c, 8, 58, 64
10, 30960, Note_on_c, 8, 58, 0
10, 30960, Note_on_c, 8, 62, 64
10, 31080, Note_on_c, 8, 62, 0
10, 31080, Note_on_c, 8, 58, 64
10, 31200, Note_on_c, 8, 58, 0
10, 31200, Note_on_c, 8, 57, 101
10, 31320, Note_on_c, 8, 57, 0
10, 31320, Note_on_c, 8, 60, 64
10, 31440, Note_on_c, 8, 60, 0
10, 31440, Note_on_c, 8, 62, 64
10, 31560, Note_on_c, 8, 62, 0
10, 31560, Note_on_c, 8, 60, 64
10, 31650, Note_on_c, 8, 60, 0
10, 31680, Note_on_c, 8, 55, 64
10, 31800, Note_on_c, 8, 55, 0
10, 31800, Note_on_c, 8, 58, 64
10, 31920, Note_on_c, 8, 58, 0
10, 31920, Note_on_c, 8, 62, 64
10, 32040, Note_on_c, 8, 62, 0
10, 32040, Note_on_c, 8, 58, 64
10, 32160, Note_on_c, 8, 58, 0
10, 32160, Note_on_c, 8, 57, 101
10, 32280, Note_on_c, 8, 57, 0
10, 32280, Note_on_c, 8, 60, 64
10, 32400, Note_on_c, 8, 60, 0
10, 32400, Note_on_c, 8, 62, 64
10, 32520, Note_on_c, 8, 62, 0
10, 32520, Note_on_c, 8, 60, 64
10, 32640, Note_on_c, 8, 60, 0
10, 32640, Note_on_c, 8, 58, 64
10, 32730, Note_on_c, 8, 58, 0
10, 32760, Note_on_c, 8, 67, 64
10, 32850, Note_on_c, 8, 67, 0
10, 32880, Note_on_c, 8, 67, 64
10, 32970, Note_on_c, 8, 67, 0
10, 33000, Note_on_c, 8, 67, 64
10, 33090, Note_on_c, 8, 67, 0
10, 33240, Note_on_c, 8, 70, 64
10, 33330, Note_on_c, 8, 70, 0
10, 33360, Note_on_c, 8, 70, 64
10, 33450, Note_on_c, 8, 70, 0
10, 33480, Note_on_c, 8, 70, 64
10, 33570, Note_on_c, 8, 70, 0
10, 33720, Note_on_c, 8, 63, 64
10, 33810, Note_on_c, 8, 63, 0
10, 33840, Note_on_c, 8, 63, 64
10, 33930, Note_on_c, 8, 63, 0
10, 33960, Note_on_c, 8, 63, 64
10, 34050, Note_on_c, 8, 63, 0
10, 34200, Note_on_c, 8, 67, 64
10, 34290, Note_on_c, 8, 67, 0
10, 34320, Note_on_c, 8, 67, 64
10, 34410, Note_on_c, 8, 67, 0
10, 34440, Note_on_c, 8, 67, 64
10, 34530, Note_on_c, 8, 67, 0
10, 34560, Note_on_c, 8, 61, 101
10, 36090, Note_on_c, 8, 61, 0
10, 36600, Note_on_c, 8, 62, 64
10, 36690, Note_on_c, 8, 62, 0
10, 36720, Note_on_c, 8, 62, 64
10, 36810, Note_on_c, 8, 62, 0
10, 36840, Note_on_c, 8, 62, 64
10, 36930, Note_on_c, 8, 62, 0
10, 37080, Note_on_c, 8, 65, 64
10, 37170, Note_on_c, 8, 65, 0
10, 37200, Note_on_c, 8, 65, 64
10, 37290, Note_on_c, 8, 65, 0
10, 37320, Note_on_c, 8, 65, 64
10, 37410, Note_on_c, 8, 65, 0
10, 37560, Note_on_c, 8, 58, 64
10, 37650, Note_on_c, 8, 58, 0
10, 37680, Note_on_c, 8, 58, 64
10, 37770, Note_on_c, 8, 58, 0
10, 37800, Note_on_c, 8, 58, 64
10, 37890, Note_on_c, 8, 58, 0
10, 38040, Note_on_c, 8, 62, 64
10, 38130, Note_on_c, 8, 62, 0
10, 38160, Note_on_c, 8, 62, 64
10, 38250, Note_on_c, 8, 62, 0
10, 38280, Note_on_c, 8, 62, 64
10, 38370, Note_on_c, 8, 62, 0
10, 38400, Note_on_c, 8, 56, 101
10, 40320, Note_on_c, 8, 56, 0
10, 40320, Note_on_c, 8, 55, 64
10, 40700, Note_on_c, 8, 55, 0
10, 40800, Note_on_c, 8, 63, 64
10, 41180, Note_on_c, 8, 63, 0
10, 41760, Note_on_c, 8, 63, 64
10, 42140, Note_on_c, 8, 63, 0
10, 42720, Note_on_c, 8, 62, 64
10, 43100, Note_on_c, 8, 62, 0
10, 43680, Note_on_c, 8, 61, 64
10, 44060, Note_on_c, 8, 61, 0
10, 44160, Note_on_c, 8, 62, 64
10, 44200, Note_on_c, 8, 62, 0
10, 44220, Note_on_c, 8, 62, 64
10, 44260, Note_on_c, 8, 62, 0
10, 44280, Note_on_c, 8, 62, 64
10, 44320, Note_on_c, 8, 62, 0
10, 44340, Note_on_c, 8, 62, 64
10, 44380, Note_on_c, 8, 62, 0
10, 44400, Note_on_c, 8, 62, 64
10, 44440, Note_on_c, 8, 62, 0
10, 44460, Note_on_c, 8, 62, 64
10, 44500, Note_on_c, 8, 62, 0
10, 44520, Note_on_c, 8, 62, 64
10, 44560, Note_on_c, 8, 62, 0
10, 44580, Note_on_c, 8, 62, 64
10, 44620, Note_on_c, 8, 62, 0
10, 44640, Note_on_c, 8, 62, 64
10, 44680, Note_on_c, 8, 62, 0
10, 44700, Note_on_c, 8, 62, 64
10, 44740, Note_on_c, 8, 62, 0
10, 44760, Note_on_c, 8, 62, 64
10, 44800, Note_on_c, 8, 62, 0
10, 44820, Note_on_c, 8, 62, 64
10, 44860, Note_on_c, 8, 62, 0
10, 44880, Note_on_c, 8, 62, 64
10, 44920, Note_on_c, 8, 62, 0
10, 44940, Note_on_c, 8, 62, 64
10, 44980, Note_on_c, 8, 62, 0
10, 45000, Note_on_c, 8, 62, 64
10, 45040, Note_on_c, 8, 62, 0
10, 45060, Note_on_c, 8, 62, 64
10, 45100, Note_on_c, 8, 62, 0
10, 45120, Note_on_c, 8, 62, 64
10, 45160, Note_on_c, 8, 62, 0
10, 45180, Note_on_c, 8, 62, 64
10, 45220, Note_on_c, 8, 62, 0
10, 45240, Note_on_c, 8, 62, 64
10, 45280, Note_on_c, 8, 62, 0
10, 45300, Note_on_c, 8, 62, 64
10, 45340, Note_on_c, 8, 62, 0
10, 45360, Note_on_c, 8, 62, 64
10, 45400, Note_on_c, 8, 62, 0
10, 45420, Note_on_c, 8, 62, 64
10, 45460, Note_on_c, 8, 62, 0
10, 45480, Note_on_c, 8, 62, 64
10, 45520, Note_on_c, 8, 62, 0
10, 45540, Note_on_c, 8, 62, 64
10, 45580, Note_on_c, 8, 62, 0
10, 45600, Note_on_c, 8, 62, 64
10, 45640, Note_on_c, 8, 62, 0
10, 45660, Note_on_c, 8, 62, 64
10, 45700, Note_on_c, 8, 62, 0
10, 45720, Note_on_c, 8, 62, 64
10, 45760, Note_on_c, 8, 62, 0
10, 45780, Note_on_c, 8, 62, 64
10, 45820, Note_on_c, 8, 62, 0
10, 45840, Note_on_c, 8, 62, 64
10, 45880, Note_on_c, 8, 62, 0
10, 45900, Note_on_c, 8, 62, 64
10, 45940, Note_on_c, 8, 62, 0
10, 45960, Note_on_c, 8, 62, 64
10, 46000, Note_on_c, 8, 62, 0
10, 46020, Note_on_c, 8, 62, 64
10, 46060, Note_on_c, 8, 62, 0
10, 46080, Note_on_c, 8, 62, 64
10, 46120, Note_on_c, 8, 62, 0
10, 46140, Note_on_c, 8, 62, 64
10, 46180, Note_on_c, 8, 62, 0
10, 46200, Note_on_c, 8, 62, 64
10, 46240, Note_on_c, 8, 62, 0
10, 46260, Note_on_c, 8, 62, 64
10, 46300, Note_on_c, 8, 62, 0
10, 46320, Note_on_c, 8, 62, 64
10, 46360, Note_on_c, 8, 62, 0
10, 46380, Note_on_c, 8, 62, 64
10, 46420, Note_on_c, 8, 62, 0
10, 46440, Note_on_c, 8, 62, 64
10, 46480, Note_on_c, 8, 62, 0
10, 46500, Note_on_c, 8, 62, 64
10, 46540, Note_on_c, 8, 62, 0
10, 46560, Note_on_c, 8, 62, 64
10, 46600, Note_on_c, 8, 62, 0
10, 46620, Note_on_c, 8, 62, 64
10, 46660, Note_on_c, 8, 62, 0
10, 46680, Note_on_c, 8, 62, 64
10, 46720, Note_on_c, 8, 62, 0
10, 46740, Note_on_c, 8, 62, 64
10, 46780, Note_on_c, 8, 62, 0
10, 46800, Note_on_c, 8, 62, 64
10, 46840, Note_on_c, 8, 62, 0
10, 46860, Note_on_c, 8, 62, 64
10, 46900, Note_on_c, 8, 62, 0
10, 46920, Note_on_c, 8, 62, 64
10, 46960, Note_on_c, 8, 62, 0
10, 46980, Note_on_c, 8, 62, 64
10, 47020, Note_on_c, 8, 62, 0
10, 47040, Note_on_c, 8, 62, 64
10, 47080, Note_on_c, 8, 62, 0
10, 47100, Note_on_c, 8, 62, 64
10, 47140, Note_on_c, 8, 62, 0
10, 47160, Note_on_c, 8, 62, 64
10, 47200, Note_on_c, 8, 62, 0
10, 47220, Note_on_c, 8, 62, 64
10, 47260, Note_on_c, 8, 62, 0
10, 47280, Note_on_c, 8, 62, 64
10, 47320, Note_on_c, 8, 62, 0
10, 47340, Note_on_c, 8, 62, 64
10, 47380, Note_on_c, 8, 62, 0
10, 47400, Note_on_c, 8, 62, 64
10, 47440, Note_on_c, 8, 62, 0
10, 47460, Note_on_c, 8, 62, 64
10, 47500, Note_on_c, 8, 62, 0
10, 47520, Note_on_c, 8, 62, 64
10, 47560, Note_on_c, 8, 62, 0
10, 47580, Note_on_c, 8, 62, 64
10, 47620, Note_on_c, 8, 62, 0
10, 47640, Note_on_c, 8, 62, 64
10, 47680, Note_on_c, 8, 62, 0
10, 47700, Note_on_c, 8, 62, 64
10, 47740, Note_on_c, 8, 62, 0
10, 47760, Note_on_c, 8, 62, 64
10, 47800, Note_on_c, 8, 62, 0
10, 47820, Note_on_c, 8, 62, 64
10, 47860, Note_on_c, 8, 62, 0
10, 47880, Note_on_c, 8, 62, 64
10, 47920, Note_on_c, 8, 62, 0
10, 47940, Note_on_c, 8, 62, 64
10, 47980, Note_on_c, 8, 62, 0
10, 48000, Note_on_c, 8, 62, 64
10, 48040, Note_on_c, 8, 62, 0
10, 48060, Note_on_c, 8, 62, 64
10, 48100, Note_on_c, 8, 62, 0
10, 48120, Note_on_c, 8, 62, 64
10, 48160, Note_on_c, 8, 62, 0
10, 48180, Note_on_c, 8, 62, 64
10, 48220, Note_on_c, 8, 62, 0
10, 48240, Note_on_c, 8, 62, 64
10, 48280, Note_on_c, 8, 62, 0
10, 48300, Note_on_c, 8, 62, 64
10, 48340, Note_on_c, 8, 62, 0
10, 48360, Note_on_c, 8, 62, 64
10, 48400, Note_on_c, 8, 62, 0
10, 48420, Note_on_c, 8, 62, 64
10, 48460, Note_on_c, 8, 62, 0
10, 48480, Note_on_c, 8, 62, 64
10, 48520, Note_on_c, 8, 62, 0
10, 48540, Note_on_c, 8, 62, 64
10, 48580, Note_on_c, 8, 62, 0
10, 48600, Note_on_c, 8, 62, 64
10, 48640, Note_on_c, 8, 62, 0
10, 48660, Note_on_c, 8, 62, 64
10, 48700, Note_on_c, 8, 62, 0
10, 48720, Note_on_c, 8, 62, 64
10, 48760, Note_on_c, 8, 62, 0
10, 48780, Note_on_c, 8, 62, 64
10, 48820, Note_on_c, 8, 62, 0
10, 48840, Note_on_c, 8, 62, 64
10, 48880, Note_on_c, 8, 62, 0
10, 48900, Note_on_c, 8, 62, 64
10, 48940, Note_on_c, 8, 62, 0
10, 48960, Note_on_c, 8, 62, 64
10, 49000, Note_on_c, 8, 62, 0
10, 49020, Note_on_c, 8, 62, 64
10, 49060, Note_on_c, 8, 62, 0
10, 49080, Note_on_c, 8, 62, 64
10, 49120, Note_on_c, 8, 62, 0
10, 49140, Note_on_c, 8, 62, 64
10, 49180, Note_on_c, 8, 62, 0
10, 49200, Note_on_c, 8, 62, 64
10, 49240, Note_on_c, 8, 62, 0
10, 49260, Note_on_c, 8, 62, 64
10, 49300, Note_on_c, 8, 62, 0
10, 49320, Note_on_c, 8, 62, 64
10, 49360, Note_on_c, 8, 62, 0
10, 49380, Note_on_c, 8, 62, 64
10, 49420, Note_on_c, 8, 62, 0
10, 49440, Note_on_c, 8, 62, 64
10, 49480, Note_on_c, 8, 62, 0
10, 49500, Note_on_c, 8, 62, 64
10, 49540, Note_on_c, 8, 62, 0
10, 49560, Note_on_c, 8, 62, 64
10, 49600, Note_on_c, 8, 62, 0
10, 49620, Note_on_c, 8, 62, 64
10, 49660, Note_on_c, 8, 62, 0
10, 49680, Note_on_c, 8, 62, 64
10, 49720, Note_on_c, 8, 62, 0
10, 49740, Note_on_c, 8, 62, 64
10, 49780, Note_on_c, 8, 62, 0
10, 49800, Note_on_c, 8, 62, 64
10, 49840, Note_on_c, 8, 62, 0
10, 49860, Note_on_c, 8, 62, 64
10, 49900, Note_on_c, 8, 62, 0
10, 49920, Note_on_c, 8, 62, 64
10, 49960, Note_on_c, 8, 62, 0
10, 49980, Note_on_c, 8, 62, 64
10, 50020, Note_on_c, 8, 62, 0
10, 50040, Note_on_c, 8, 62, 64
10, 50080, Note_on_c, 8, 62, 0
10, 50100, Note_on_c, 8, 62, 64
10, 50140, Note_on_c, 8, 62, 0
10, 50160, Note_on_c, 8, 62, 64
10, 50200, Note_on_c, 8, 62, 0
10, 50220, Note_on_c, 8, 62, 64
10, 50260, Note_on_c, 8, 62, 0
10, 50280, Note_on_c, 8, 62, 64
10, 50320, Note_on_c, 8, 62, 0
10, 50340, Note_on_c, 8, 62, 64
10, 50380, Note_on_c, 8, 62, 0
10, 50400, Note_on_c, 8, 62, 64
10, 50440, Note_on_c, 8, 62, 0
10, 50460, Note_on_c, 8, 62, 64
10, 50500, Note_on_c, 8, 62, 0
10, 50520, Note_on_c, 8, 62, 64
10, 50560, Note_on_c, 8, 62, 0
10, 50580, Note_on_c, 8, 62, 64
10, 50620, Note_on_c, 8, 62, 0
10, 50640, Note_on_c, 8, 62, 64
10, 50680, Note_on_c, 8, 62, 0
10, 50700, Note_on_c, 8, 62, 64
10, 50740, Note_on_c, 8, 62, 0
10, 50760, Note_on_c, 8, 62, 64
10, 50800, Note_on_c, 8, 62, 0
10, 50820, Note_on_c, 8, 62, 64
10, 50860, Note_on_c, 8, 62, 0
10, 50880, Note_on_c, 8, 62, 64
10, 50920, Note_on_c, 8, 62, 0
10, 50940, Note_on_c, 8, 62, 64
10, 50980, Note_on_c, 8, 62, 0
10, 51000, Note_on_c, 8, 62, 64
10, 51040, Note_on_c, 8, 62, 0
10, 51060, Note_on_c, 8, 62, 64
10, 51100, Note_on_c, 8, 62, 0
10, 51120, Note_on_c, 8, 62, 64
10, 51160, Note_on_c, 8, 62, 0
10, 51180, Note_on_c, 8, 62, 64
10, 51220, Note_on_c, 8, 62, 0
10, 51240, Note_on_c, 8, 62, 64
10, 51280, Note_on_c, 8, 62, 0
10, 51300, Note_on_c, 8, 62, 64
10, 51340, Note_on_c, 8, 62, 0
10, 51360, Note_on_c, 8, 62, 64
10, 51400, Note_on_c, 8, 62, 0
10, 51420, Note_on_c, 8, 62, 64
10, 51460, Note_on_c, 8, 62, 0
10, 51480, Note_on_c, 8, 62, 64
10, 51520, Note_on_c, 8, 62, 0
10, 51540, Note_on_c, 8, 62, 64
10, 51580, Note_on_c, 8, 62, 0
10, 51600, Note_on_c, 8, 62, 64
10, 51640, Note_on_c, 8, 62, 0
10, 51660, Note_on_c, 8, 62, 64
10, 51700, Note_on_c, 8, 62, 0
10, 51720, Note_on_c, 8, 62, 64
10, 51760, Note_on_c, 8, 62, 0
10, 51780, Note_on_c, 8, 62, 64
10, 51820, Note_on_c, 8, 62, 0
10, 51840, Note_on_c, 8, 63, 96
10, 51880, Note_on_c, 8, 63, 0
10, 51900, Note_on_c, 8, 63, 96
10, 51940, Note_on_c, 8, 63, 0
10, 51960, Note_on_c, 8, 63, 96
10, 52000, Note_on_c, 8, 63, 0
10, 52020, Note_on_c, 8, 63, 96
10, 52060, Note_on_c, 8, 63, 0
10, 52080, Note_on_c, 8, 63, 96
10, 52120, Note_on_c, 8, 63, 0
10, 52140, Note_on_c, 8, 63, 96
10, 52180, Note_on_c, 8, 63, 0
10, 52200, Note_on_c, 8, 63, 96
10, 52240, Note_on_c, 8, 63, 0
10, 52260, Note_on_c, 8, 63, 96
10, 52300, Note_on_c, 8, 63, 0
10, 52320, Note_on_c, 8, 63, 96
10, 52360, Note_on_c, 8, 63, 0
10, 52380, Note_on_c, 8, 63, 96
10, 52420, Note_on_c, 8, 63, 0
10, 52440, Note_on_c, 8, 63, 96
10, 52480, Note_on_c, 8, 63, 0
10, 52500, Note_on_c, 8, 63, 96
10, 52540, Note_on_c, 8, 63, 0
10, 52560, Note_on_c, 8, 63, 96
10, 52600, Note_on_c, 8, 63, 0
10, 52620, Note_on_c, 8, 63, 96
10, 52660, Note_on_c, 8, 63, 0
10, 52680, Note_on_c, 8, 63, 96
10, 52720, Note_on_c, 8, 63, 0
10, 52740, Note_on_c, 8, 63, 96
10, 52780, Note_on_c, 8, 63, 0
10, 52800, Note_on_c, 8, 63, 96
10, 52840, Note_on_c, 8, 63, 0
10, 52860, Note_on_c, 8, 63, 96
10, 52900, Note_on_c, 8, 63, 0
10, 52920, Note_on_c, 8, 63, 96
10, 52960, Note_on_c, 8, 63, 0
10, 52980, Note_on_c, 8, 63, 96
10, 53020, Note_on_c, 8, 63, 0
10, 53040, Note_on_c, 8, 63, 96
10, 53080, Note_on_c, 8, 63, 0
10, 53100, Note_on_c, 8, 63, 96
10, 53140, Note_on_c, 8, 63, 0
10, 53160, Note_on_c, 8, 63, 96
10, 53200, Note_on_c, 8, 63, 0
10, 53220, Note_on_c, 8, 63, 96
10, 53260, Note_on_c, 8, 63, 0
10, 53280, Note_on_c, 8, 63, 96
10, 53320, Note_on_c, 8, 63, 0
10, 53340, Note_on_c, 8, 63, 96
10, 53380, Note_on_c, 8, 63, 0
10, 53400, Note_on_c, 8, 63, 96
10, 53440, Note_on_c, 8, 63, 0
10, 53460, Note_on_c, 8, 63, 96
10, 53500, Note_on_c, 8, 63, 0
10, 53520, Note_on_c, 8, 63, 96
10, 53560, Note_on_c, 8, 63, 0
10, 53580, Note_on_c, 8, 63, 96
10, 53620, Note_on_c, 8, 63, 0
10, 53640, Note_on_c, 8, 63, 96
10, 53680, Note_on_c, 8, 63, 0
10, 53700, Note_on_c, 8, 63, 96
10, 53740, Note_on_c, 8, 63, 0
10, 53760, Note_on_c, 8, 65, 96
10, 53800, Note_on_c, 8, 65, 0
10, 53820, Note_on_c, 8, 65, 96
10, 53860, Note_on_c, 8, 65, 0
10, 53880, Note_on_c, 8, 65, 96
10, 53920, Note_on_c, 8, 65, 0
10, 53940, Note_on_c, 8, 65, 96
10, 53980, Note_on_c, 8, 65, 0
10, 54000, Note_on_c, 8, 65, 96
10, 54040, Note_on_c, 8, 65, 0
10, 54060, Note_on_c, 8, 65, 96
10, 54100, Note_on_c, 8, 65, 0
10, 54120, Note_on_c, 8, 65, 96
10, 54160, Note_on_c, 8, 65, 0
10, 54180, Note_on_c, 8, 65, 96
10, 54220, Note_on_c, 8, 65, 0
10, 54240, Note_on_c, 8, 65, 96
10, 54280, Note_on_c, 8, 65, 0
10, 54300, Note_on_c, 8, 65, 96
10, 54340, Note_on_c, 8, 65, 0
10, 54360, Note_on_c, 8, 65, 96
10, 54400, Note_on_c, 8, 65, 0
10, 54420, Note_on_c, 8, 65, 96
10, 54460, Note_on_c, 8, 65, 0
10, 54480, Note_on_c, 8, 65, 96
10, 54520, Note_on_c, 8, 65, 0
10, 54540, Note_on_c, 8, 65, 96
10, 54580, Note_on_c, 8, 65, 0
10, 54600, Note_on_c, 8, 65, 96
10, 54640, Note_on_c, 8, 65, 0
10, 54660, Note_on_c, 8, 65, 96
10, 54700, Note_on_c, 8, 65, 0
10, 54720, Note_on_c, 8, 65, 96
10, 54760, Note_on_c, 8, 65, 0
10, 54780, Note_on_c, 8, 65, 96
10, 54820, Note_on_c, 8, 65, 0
10, 54840, Note_on_c, 8, 65, 96
10, 54880, Note_on_c, 8, 65, 0
10, 54900, Note_on_c, 8, 65, 96
10, 54940, Note_on_c, 8, 65, 0
10, 54960, Note_on_c, 8, 65, 96
10, 55000, Note_on_c, 8, 65, 0
10, 55020, Note_on_c, 8, 65, 96
10, 55060, Note_on_c, 8, 65, 0
10, 55080, Note_on_c, 8, 65, 96
10, 55120, Note_on_c, 8, 65, 0
10, 55140, Note_on_c, 8, 65, 96
10, 55180, Note_on_c, 8, 65, 0
10, 55200, Note_on_c, 8, 65, 96
10, 55240, Note_on_c, 8, 65, 0
10, 55260, Note_on_c, 8, 65, 96
10, 55300, Note_on_c, 8, 65, 0
10, 55320, Note_on_c, 8, 65, 96
10, 55360, Note_on_c, 8, 65, 0
10, 55380, Note_on_c, 8, 65, 96
10, 55420, Note_on_c, 8, 65, 0
10, 55440, Note_on_c, 8, 65, 96
10, 55480, Note_on_c, 8, 65, 0
10, 55500, Note_on_c, 8, 65, 96
10, 55540, Note_on_c, 8, 65, 0
10, 55560, Note_on_c, 8, 65, 96
10, 55600, Note_on_c, 8, 65, 0
10, 55620, Note_on_c, 8, 65, 96
10, 55660, Note_on_c, 8, 65, 0
10, 55680, Note_on_c, 8, 65, 64
10, 55720, Note_on_c, 8, 65, 0
10, 55740, Note_on_c, 8, 65, 64
10, 55780, Note_on_c, 8, 65, 0
10, 55800, Note_on_c, 8, 65, 64
10, 55840, Note_on_c, 8, 65, 0
10, 55860, Note_on_c, 8, 65, 64
10, 55900, Note_on_c, 8, 65, 0
10, 55920, Note_on_c, 8, 65, 64
10, 55960, Note_on_c, 8, 65, 0
10, 55980, Note_on_c, 8, 65, 64
10, 56020, Note_on_c, 8, 65, 0
10, 56040, Note_on_c, 8, 65, 64
10, 56080, Note_on_c, 8, 65, 0
10, 56100, Note_on_c, 8, 65, 64
10, 56140, Note_on_c, 8, 65, 0
10, 56160, Note_on_c, 8, 65, 64
10, 56200, Note_on_c, 8, 65, 0
10, 56220, Note_on_c, 8, 65, 64
10, 56260, Note_on_c, 8, 65, 0
10, 56280, Note_on_c, 8, 65, 64
10, 56320, Note_on_c, 8, 65, 0
10, 56340, Note_on_c, 8, 65, 64
10, 56380, Note_on_c, 8, 65, 0
10, 56400, Note_on_c, 8, 65, 64
10, 56440, Note_on_c, 8, 65, 0
10, 56460, Note_on_c, 8, 65, 64
10, 56500, Note_on_c, 8, 65, 0
10, 56520, Note_on_c, 8, 65, 64
10, 56560, Note_on_c, 8, 65, 0
10, 56580, Note_on_c, 8, 65, 64
10, 56620, Note_on_c, 8, 65, 0
10, 56640, Note_on_c, 8, 65, 64
10, 56680, Note_on_c, 8, 65, 0
10, 56700, Note_on_c, 8, 65, 64
10, 56740, Note_on_c, 8, 65, 0
10, 56760, Note_on_c, 8, 65, 64
10, 56800, Note_on_c, 8, 65, 0
10, 56820, Note_on_c, 8, 65, 64
10, 56860, Note_on_c, 8, 65, 0
10, 56880, Note_on_c, 8, 65, 64
10, 56920, Note_on_c, 8, 65, 0
10, 56940, Note_on_c, 8, 65, 64
10, 56980, Note_on_c, 8, 65, 0
10, 57000, Note_on_c, 8, 65, 64
10, 57040, Note_on_c, 8, 65, 0
10, 57060, Note_on_c, 8, 65, 64
10, 57100, Note_on_c, 8, 65, 0
10, 57120, Note_on_c, 8, 65, 64
10, 57160, Note_on_c, 8, 65, 0
10, 57180, Note_on_c, 8, 65, 64
10, 57220, Note_on_c, 8, 65, 0
10, 57240, Note_on_c, 8, 65, 64
10, 57280, Note_on_c, 8, 65, 0
10, 57300, Note_on_c, 8, 65, 64
10, 57340, Note_on_c, 8, 65, 0
10, 57360, Note_on_c, 8, 65, 64
10, 57400, Note_on_c, 8, 65, 0
10, 57420, Note_on_c, 8, 65, 64
10, 57460, Note_on_c, 8, 65, 0
10, 57480, Note_on_c, 8, 65, 64
10, 57520, Note_on_c, 8, 65, 0
10, 57540, Note_on_c, 8, 65, 64
10, 57580, Note_on_c, 8, 65, 0
10, 57600, Note_on_c, 8, 64, 64
10, 57640, Note_on_c, 8, 64, 0
10, 57660, Note_on_c, 8, 64, 64
10, 57700, Note_on_c, 8, 64, 0
10, 57720, Note_on_c, 8, 64, 64
10, 57760, Note_on_c, 8, 64, 0
10, 57780, Note_on_c, 8, 64, 64
10, 57820, Note_on_c, 8, 64, 0
10, 57840, Note_on_c, 8, 64, 64
10, 57880, Note_on_c, 8, 64, 0
10, 57900, Note_on_c, 8, 64, 64
10, 57940, Note_on_c, 8, 64, 0
10, 57960, Note_on_c, 8, 64, 64
10, 58000, Note_on_c, 8, 64, 0
10, 58020, Note_on_c, 8, 64, 64
10, 58060, Note_on_c, 8, 64, 0
10, 58080, Note_on_c, 8, 64, 64
10, 58120, Note_on_c, 8, 64, 0
10, 58140, Note_on_c, 8, 64, 64
10, 58180, Note_on_c, 8, 64, 0
10, 58200, Note_on_c, 8, 64, 64
10, 58240, Note_on_c, 8, 64, 0
10, 58260, Note_on_c, 8, 64, 64
10, 58300, Note_on_c, 8, 64, 0
10, 58320, Note_on_c, 8, 64, 64
10, 58360, Note_on_c, 8, 64, 0
10, 58380, Note_on_c, 8, 64, 64
10, 58420, Note_on_c, 8, 64, 0
10, 58440, Note_on_c, 8, 64, 64
10, 58480, Note_on_c, 8, 64, 0
10, 58500, Note_on_c, 8, 64, 64
10, 58540, Note_on_c, 8, 64, 0
10, 58560, Note_on_c, 8, 64, 64
10, 58600, Note_on_c, 8, 64, 0
10, 58620, Note_on_c, 8, 64, 64
10, 58660, Note_on_c, 8, 64, 0
10, 58680, Note_on_c, 8, 64, 64
10, 58720, Note_on_c, 8, 64, 0
10, 58740, Note_on_c, 8, 64, 64
10, 58780, Note_on_c, 8, 64, 0
10, 58800, Note_on_c, 8, 64, 64
10, 58840, Note_on_c, 8, 64, 0
10, 58860, Note_on_c, 8, 64, 64
10, 58900, Note_on_c, 8, 64, 0
10, 58920, Note_on_c, 8, 64, 64
10, 58960, Note_on_c, 8, 64, 0
10, 58980, Note_on_c, 8, 64, 64
10, 59020, Note_on_c, 8, 64, 0
10, 59040, Note_on_c, 8, 64, 64
10, 59080, Note_on_c, 8, 64, 0
10, 59100, Note_on_c, 8, 64, 64
10, 59140, Note_on_c, 8, 64, 0
10, 59160, Note_on_c, 8, 64, 64
10, 59200, Note_on_c, 8, 64, 0
10, 59220, Note_on_c, 8, 64, 64
10, 59260, Note_on_c, 8, 64, 0
10, 59280, Note_on_c, 8, 64, 64
10, 59320, Note_on_c, 8, 64, 0
10, 59340, Note_on_c, 8, 64, 64
10, 59380, Note_on_c, 8, 64, 0
10, 59400, Note_on_c, 8, 64, 64
10, 59440, Note_on_c, 8, 64, 0
10, 59460, Note_on_c, 8, 64, 64
10, 59500, Note_on_c, 8, 64, 0
10, 59520, Note_on_c, 8, 62, 64
10, 59900, Note_on_c, 8, 62, 0
10, 61440, Note_on_c, 8, 66, 64
10, 64890, Note_on_c, 8, 66, 0
10, 65280, Note_on_c, 8, 67, 64
10, 65760, Note_on_c, 8, 67, 0
10, 65760, Note_on_c, 8, 71, 64
10, 66720, Note_on_c, 8, 71, 0
10, 66720, Note_on_c, 8, 69, 64
10, 67200, Note_on_c, 8, 69, 0
10, 67200, Note_on_c, 8, 67, 64
10, 67580, Note_on_c, 8, 67, 0
10, 67680, Note_on_c, 8, 79, 64
10, 68640, Note_on_c, 8, 79, 0
10, 68640, Note_on_c, 8, 78, 64
10, 69020, Note_on_c, 8, 78, 0
10, 69120, Note_on_c, 8, 74, 64
10, 70650, Note_on_c, 8, 74, 0
10, 71040, Note_on_c, 8, 71, 64
10, 72000, Note_on_c, 8, 71, 0
10, 72000, Note_on_c, 8, 67, 64
10, 72760, Note_on_c, 8, 67, 0
10, 72960, Note_on_c, 8, 66, 64
10, 73340, Note_on_c, 8, 66, 0
10, 76800, Note_on_c, 8, 66, 64
10, 80250, Note_on_c, 8, 66, 0
10, 80640, Note_on_c, 8, 67, 64
10, 81120, Note_on_c, 8, 67, 0
10, 81120, Note_on_c, 8, 70, 64
10, 82080, Note_on_c, 8, 70, 0
10, 82080, Note_on_c, 8, 69, 64
10, 82560, Note_on_c, 8, 69, 0
10, 82560, Note_on_c, 8, 67, 64
10, 82940, Note_on_c, 8, 67, 0
10, 83040, Note_on_c, 8, 79, 64
10, 84000, Note_on_c, 8, 79, 0
10, 84000, Note_on_c, 8, 78, 64
10, 84380, Note_on_c, 8, 78, 0
10, 84480, Note_on_c, 8, 78, 64
10, 84720, Note_on_c, 8, 78, 0
10, 84720, Note_on_c, 8, 76, 64
10, 84910, Note_on_c, 8, 76, 0
10, 84960, Note_on_c, 8, 76, 64
10, 85150, Note_on_c, 8, 76, 0
10, 85200, Note_on_c, 8, 76, 64
10, 85390, Note_on_c, 8, 76, 0
10, 85440, Note_on_c, 8, 76, 64
10, 85680, Note_on_c, 8, 76, 0
10, 85680, Note_on_c, 8, 74, 64
10, 85920, Note_on_c, 8, 74, 0
10, 85920, Note_on_c, 8, 74, 64
10, 86110, Note_on_c, 8, 74, 0
10, 86160, Note_on_c, 8, 74, 64
10, 86350, Note_on_c, 8, 74, 0
10, 86400, Note_on_c, 8, 71, 64
10, 87360, Note_on_c, 8, 71, 0
10, 87360, Note_on_c, 8, 67, 64
10, 88320, Note_on_c, 8, 67, 0
10, 88320, Note_on_c, 8, 66, 64
10, 88700, Note_on_c, 8, 66, 0
10, 88800, Note_on_c, 8, 57, 64
10, 88860, Note_on_c, 8, 57, 0
10, 89040, Note_on_c, 8, 61, 64
10, 89100, Note_on_c, 8, 61, 0
10, 89280, Note_on_c, 8, 62, 64
10, 89340, Note_on_c, 8, 62, 0
10, 89520, Note_on_c, 8, 66, 64
10, 89580, Note_on_c, 8, 66, 0
10, 89760, Note_on_c, 8, 67, 64
10, 89820, Note_on_c, 8, 67, 0
10, 90000, Note_on_c, 8, 64, 64
10, 90060, Note_on_c, 8, 64, 0
10, 90240, Note_on_c, 8, 62, 64
10, 90300, Note_on_c, 8, 62, 0
10, 90480, Note_on_c, 8, 66, 64
10, 90540, Note_on_c, 8, 66, 0
10, 90720, Note_on_c, 8, 57, 64
10, 90780, Note_on_c, 8, 57, 0
10, 90960, Note_on_c, 8, 61, 64
10, 91020, Note_on_c, 8, 61, 0
10, 91200, Note_on_c, 8, 62, 64
10, 91260, Note_on_c, 8, 62, 0
10, 91440, Note_on_c, 8, 66, 64
10, 91500, Note_on_c, 8, 66, 0
10, 91680, Note_on_c, 8, 67, 64
10, 91740, Note_on_c, 8, 67, 0
10, 91920, Note_on_c, 8, 64, 64
10, 91980, Note_on_c, 8, 64, 0
10, 92160, Note_on_c, 8, 62, 96
10, 92220, Note_on_c, 8, 62, 0
10, 92400, Note_on_c, 8, 78, 96
10, 92460, Note_on_c, 8, 78, 0
10, 92640, Note_on_c, 8, 69, 96
10, 92700, Note_on_c, 8, 69, 0
10, 92880, Note_on_c, 8, 73, 96
10, 92940, Note_on_c, 8, 73, 0
10, 93120, Note_on_c, 8, 74, 96
10, 93180, Note_on_c, 8, 74, 0
10, 93360, Note_on_c, 8, 78, 96
10, 93420, Note_on_c, 8, 78, 0
10, 93600, Note_on_c, 8, 79, 96
10, 93660, Note_on_c, 8, 79, 0
10, 93840, Note_on_c, 8, 76, 96
10, 93900, Note_on_c, 8, 76, 0
10, 94080, Note_on_c, 8, 74, 96
10, 94140, Note_on_c, 8, 74, 0
10, 94320, Note_on_c, 8, 78, 96
10, 94380, Note_on_c, 8, 78, 0
10, 94560, Note_on_c, 8, 69, 96
10, 94620, Note_on_c, 8, 69, 0
10, 94800, Note_on_c, 8, 73, 96
10, 94860, Note_on_c, 8, 73, 0
10, 95040, Note_on_c, 8, 74, 96
10, 95100, Note_on_c, 8, 74, 0
10, 95280, Note_on_c, 8, 78, 96
10, 95340, Note_on_c, 8, 78, 0
10, 95520, Note_on_c, 8, 79, 96
10, 95580, Note_on_c, 8, 79, 0
10, 95760, Note_on_c, 8, 76, 96
10, 95820, Note_on_c, 8, 76, 0
10, 96000, Note_on_c, 8, 74, 96
10, 96240, Note_on_c, 8, 74, 0
10, 96240, Note_on_c, 8, 69, 96
10, 96430, Note_on_c, 8, 69, 0
10, 96480, Note_on_c, 8, 78, 96
10, 96540, Note_on_c, 8, 78, 0
10, 96720, Note_on_c, 8, 78, 96
10, 96780, Note_on_c, 8, 78, 0
10, 96960, Note_on_c, 8, 78, 96
10, 97200, Note_on_c, 8, 78, 0
10, 97200, Note_on_c, 8, 74, 96
10, 97390, Note_on_c, 8, 74, 0
10, 97440, Note_on_c, 8, 81, 96
10, 97500, Note_on_c, 8, 81, 0
10, 97680, Note_on_c, 8, 81, 96
10, 97740, Note_on_c, 8, 81, 0
10, 97920, Note_on_c, 8, 81, 96
10, 98160, Note_on_c, 8, 81, 0
10, 98160, Note_on_c, 8, 78, 96
10, 98350, Note_on_c, 8, 78, 0
10, 98400, Note_on_c, 8, 86, 96
10, 98460, Note_on_c, 8, 86, 0
10, 98640, Note_on_c, 8, 86, 96
10, 98700, Note_on_c, 8, 86, 0
10, 98880, Note_on_c, 8, 86, 96
10, 99070, Note_on_c, 8, 86, 0
10, 99120, Note_on_c, 8, 81, 96
10, 99310, Note_on_c, 8, 81, 0
10, 99360, Note_on_c, 8, 78, 96
10, 99550, Note_on_c, 8, 78, 0
10, 99600, Note_on_c, 8, 74, 96
10, 99790, Note_on_c, 8, 74, 0
10, 99840, Note_on_c, 8, 81, 96
10, 100030, Note_on_c, 8, 81, 0
10, 100080, Note_on_c, 8, 81, 96
10, 100270, Note_on_c, 8, 81, 0
10, 100320, Note_on_c, 8, 85, 96
10, 100510, Note_on_c, 8, 85, 0
10, 100560, Note_on_c, 8, 81, 96
10, 100750, Note_on_c, 8, 81, 0
10, 100800, Note_on_c, 8, 86, 96
10, 100990, Note_on_c, 8, 86, 0
10, 101040, Note_on_c, 8, 81, 96
10, 101230, Note_on_c, 8, 81, 0
10, 101280, Note_on_c, 8, 78, 96
10, 101470, Note_on_c, 8, 78, 0
10, 101520, Note_on_c, 8, 74, 96
10, 101710, Note_on_c, 8, 74, 0
10, 101760, Note_on_c, 8, 81, 96
10, 101950, Note_on_c, 8, 81, 0
10, 102000, Note_on_c, 8, 81, 96
10, 102190, Note_on_c, 8, 81, 0
10, 102240, Note_on_c, 8, 85, 96
10, 102430, Note_on_c, 8, 85, 0
10, 102480, Note_on_c, 8, 81, 96
10, 102670, Note_on_c, 8, 81, 0
10, 102720, Note_on_c, 8, 86, 96
10, 102910, Note_on_c, 8, 86, 0
10, 102960, Note_on_c, 8, 81, 96
10, 103150, Note_on_c, 8, 81, 0
10, 103200, Note_on_c, 8, 78, 96
10, 103390, Note_on_c, 8, 78, 0
10, 103440, Note_on_c, 8, 74, 96
10, 103630, Note_on_c, 8, 74, 0
10, 103680, Note_on_c, 8, 81, 96
10, 104060, Note_on_c, 8, 81, 0
10, 104160, Note_on_c, 8, 78, 96
10, 104160, Note_on_c, 8, 74, 96
10, 104540, Note_on_c, 8, 74, 0
10, 104540, Note_on_c, 8, 78, 0
10, 104640, Note_on_c, 8, 76, 96
10, 104640, Note_on_c, 8, 73, 96
10, 105020, Note_on_c, 8, 73, 0
10, 105020, Note_on_c, 8, 76, 0
10, 105120, Note_on_c, 8, 78, 96
10, 105120, Note_on_c, 8, 74, 96
10, 105500, Note_on_c, 8, 74, 0
10, 105500, Note_on_c, 8, 78, 0
10, 105600, Note_on_c, 8, 76, 96
10, 105600, Note_on_c, 8, 73, 96
10, 105980, Note_on_c, 8, 73, 0
10, 105980, Note_on_c, 8, 76, 0
10, 106080, Note_on_c, 8, 69, 96
10, 106270, Note_on_c, 8, 69, 0
10, 106320, Note_on_c, 8, 69, 96
10, 106510, Note_on_c, 8, 69, 0
10, 106560, Note_on_c, 8, 69, 96
10, 106940, Note_on_c, 8, 69, 0
10, 107520, Note_on_c, 8, 69, 96
10, 107520, Note_on_c, 8, 81, 96
10, 108280, Note_on_c, 8, 69, 0
10, 108670, Note_on_c, 8, 81, 0
10, 108720, Note_on_c, 8, 80, 64
10, 108910, Note_on_c, 8, 80, 0
10, 108960, Note_on_c, 8, 85, 64
10, 109150, Note_on_c, 8, 85, 0
10, 109200, Note_on_c, 8, 83, 64
10, 109390, Note_on_c, 8, 83, 0
10, 109440, Note_on_c, 8, 81, 64
10, 109630, Note_on_c, 8, 81, 0
10, 109680, Note_on_c, 8, 80, 64
10, 109870, Note_on_c, 8, 80, 0
10, 109920, Note_on_c, 8, 78, 64
10, 110110, Note_on_c, 8, 78, 0
10, 110160, Note_on_c, 8, 76, 64
10, 110350, Note_on_c, 8, 76, 0
10, 110400, Note_on_c, 8, 74, 64
10, 110590, Note_on_c, 8, 74, 0
10, 110640, Note_on_c, 8, 73, 64
10, 110830, Note_on_c, 8, 73, 0
10, 110880, Note_on_c, 8, 71, 64
10, 111070, Note_on_c, 8, 71, 0
10, 111120, Note_on_c, 8, 69, 64
10, 111310, Note_on_c, 8, 69, 0
10, 111360, Note_on_c, 8, 62, 96
10, 111360, Note_on_c, 8, 74, 96
10, 112120, Note_on_c, 8, 62, 0
10, 112510, Note_on_c, 8, 74, 0
10, 112560, Note_on_c, 8, 73, 64
10, 112750, Note_on_c, 8, 73, 0
10, 112800, Note_on_c, 8, 78, 64
10, 112990, Note_on_c, 8, 78, 0
10, 113040, Note_on_c, 8, 76, 64
10, 113230, Note_on_c, 8, 76, 0
10, 113280, Note_on_c, 8, 74, 64
10, 113470, Note_on_c, 8, 74, 0
10, 113520, Note_on_c, 8, 73, 64
10, 113710, Note_on_c, 8, 73, 0
10, 113760, Note_on_c, 8, 71, 64
10, 113950, Note_on_c, 8, 71, 0
10, 114000, Note_on_c, 8, 69, 64
10, 114190, Note_on_c, 8, 69, 0
10, 114240, Note_on_c, 8, 68, 64
10, 114430, Note_on_c, 8, 68, 0
10, 114480, Note_on_c, 8, 66, 64
10, 114670, Note_on_c, 8, 66, 0
10, 114720, Note_on_c, 8, 64, 64
10, 114910, Note_on_c, 8, 64, 0
10, 114960, Note_on_c, 8, 62, 64
10, 115150, Note_on_c, 8, 62, 0
10, 115200, Note_on_c, 8, 71, 96
10, 115200, Note_on_c, 8, 80, 96
10, 115960, Note_on_c, 8, 71, 0
10, 116350, Note_on_c, 8, 80, 0
10, 116400, Note_on_c, 8, 78, 64
10, 116590, Note_on_c, 8, 78, 0
10, 116640, Note_on_c, 8, 83, 64
10, 116830, Note_on_c, 8, 83, 0
10, 116880, Note_on_c, 8, 81, 64
10, 117070, Note_on_c, 8, 81, 0
10, 117120, Note_on_c, 8, 80, 64
10, 117310, Note_on_c, 8, 80, 0
10, 117360, Note_on_c, 8, 78, 64
10, 117550, Note_on_c, 8, 78, 0
10, 117600, Note_on_c, 8, 76, 64
10, 117790, Note_on_c, 8, 76, 0
10, 117840, Note_on_c, 8, 74, 64
10, 118030, Note_on_c, 8, 74, 0
10, 118080, Note_on_c, 8, 73, 64
10, 118270, Note_on_c, 8, 73, 0
10, 118320, Note_on_c, 8, 71, 64
10, 118510, Note_on_c, 8, 71, 0
10, 118560, Note_on_c, 8, 69, 64
10, 118750, Note_on_c, 8, 69, 0
10, 118800, Note_on_c, 8, 68, 64
10, 118990, Note_on_c, 8, 68, 0
10, 119040, Note_on_c, 8, 69, 64
10, 119230, Note_on_c, 8, 69, 0
10, 119280, Note_on_c, 8, 57, 64
10, 119470, Note_on_c, 8, 57, 0
10, 119520, Note_on_c, 8, 57, 64
10, 119710, Note_on_c, 8, 57, 0
10, 119760, Note_on_c, 8, 57, 64
10, 119950, Note_on_c, 8, 57, 0
10, 120000, Note_on_c, 8, 57, 64
10, 120190, Note_on_c, 8, 57, 0
10, 120240, Note_on_c, 8, 57, 64
10, 120430, Note_on_c, 8, 57, 0
10, 120480, Note_on_c, 8, 57, 64
10, 120670, Note_on_c, 8, 57, 0
10, 120720, Note_on_c, 8, 57, 64
10, 120910, Note_on_c, 8, 57, 0
10, 120960, Note_on_c, 8, 57, 64
10, 121150, Note_on_c, 8, 57, 0
10, 121200, Note_on_c, 8, 57, 64
10, 121390, Note_on_c, 8, 57, 0
10, 121440, Note_on_c, 8, 57, 64
10, 121630, Note_on_c, 8, 57, 0
10, 121680, Note_on_c, 8, 57, 64
10, 121870, Note_on_c, 8, 57, 0
10, 121920, Note_on_c, 8, 57, 64
10, 122110, Note_on_c, 8, 57, 0
10, 122160, Note_on_c, 8, 57, 64
10, 122350, Note_on_c, 8, 57, 0
10, 122400, Note_on_c, 8, 57, 64
10, 122590, Note_on_c, 8, 57, 0
10, 122640, Note_on_c, 8, 57, 64
10, 122830, Note_on_c, 8, 57, 0
10, 122880, Note_on_c, 8, 57, 64
10, 123070, Note_on_c, 8, 57, 0
10, 123120, Note_on_c, 8, 57, 64
10, 123310, Note_on_c, 8, 57, 0
10, 123360, Note_on_c, 8, 57, 64
10, 123550, Note_on_c, 8, 57, 0
10, 123600, Note_on_c, 8, 57, 64
10, 123790, Note_on_c, 8, 57, 0
10, 123840, Note_on_c, 8, 57, 64
10, 124030, Note_on_c, 8, 57, 0
10, 124080, Note_on_c, 8, 57, 64
10, 124270, Note_on_c, 8, 57, 0
10, 124320, Note_on_c, 8, 57, 64
10, 124510, Note_on_c, 8, 57, 0
10, 124560, Note_on_c, 8, 57, 64
10, 124750, Note_on_c, 8, 57, 0
10, 124800, Note_on_c, 8, 57, 64
10, 124990, Note_on_c, 8, 57, 0
10, 125040, Note_on_c, 8, 57, 64
10, 125230, Note_on_c, 8, 57, 0
10, 125280, Note_on_c, 8, 57, 64
10, 125470, Note_on_c, 8, 57, 0
10, 125520, Note_on_c, 8, 57, 64
10, 125710, Note_on_c, 8, 57, 0
10, 125760, Note_on_c, 8, 57, 64
10, 125950, Note_on_c, 8, 57, 0
10, 126000, Note_on_c, 8, 57, 64
10, 126190, Note_on_c, 8, 57, 0
10, 126240, Note_on_c, 8, 57, 64
10, 126430, Note_on_c, 8, 57, 0
10, 126480, Note_on_c, 8, 57, 64
10, 126670, Note_on_c, 8, 57, 0
10, 126720, Control_c, 8, 11, 84
10, 126720, Note_on_c, 8, 57, 96
10, 126910, Note_on_c, 8, 57, 0
10, 126960, Control_c, 8, 11, 85
10, 126960, Note_on_c, 8, 69, 96
10, 127080, Control_c, 8, 11, 88
10, 127150, Note_on_c, 8, 69, 0
10, 127200, Control_c, 8, 11, 91
10, 127200, Note_on_c, 8, 69, 96
10, 127320, Control_c, 8, 11, 93
10, 127390, Note_on_c, 8, 69, 0
10, 127440, Control_c, 8, 11, 97
10, 127440, Note_on_c, 8, 69, 96
10, 127560, Control_c, 8, 11, 100
10, 127630, Note_on_c, 8, 69, 0
10, 127680, Control_c, 8, 11, 103
10, 127680, Note_on_c, 8, 69, 96
10, 127800, Control_c, 8, 11, 105
10, 127870, Note_on_c, 8, 69, 0
10, 127920, Control_c, 8, 11, 108
10, 127920, Note_on_c, 8, 69, 96
10, 128040, Control_c, 8, 11, 112
10, 128110, Note_on_c, 8, 69, 0
10, 128160, Control_c, 8, 11, 115
10, 128160, Note_on_c, 8, 69, 96
10, 128280, Control_c, 8, 11, 117
10, 128350, Note_on_c, 8, 69, 0
10, 128400, Control_c, 8, 11, 120
10, 128400, Note_on_c, 8, 69, 96
10, 128520, Control_c, 8, 11, 123
10, 128590, Note_on_c, 8, 69, 0
10, 128640, Control_c, 8, 11, 127
10, 128640, Note_on_c, 8, 80, 96
10, 128640, Note_on_c, 8, 71, 96
10, 128830, Note_on_c, 8, 71, 0
10, 128830, Note_on_c, 8, 80, 0
10, 128880, Note_on_c, 8, 80, 96
10, 128880, Note_on_c, 8, 71, 96
10, 129070, Note_on_c, 8, 71, 0
10, 129070, Note_on_c, 8, 80, 0
10, 129120, Note_on_c, 8, 80, 96
10, 129120, Note_on_c, 8, 71, 96
10, 129310, Note_on_c, 8, 71, 0
10, 129310, Note_on_c, 8, 80, 0
10, 129360, Note_on_c, 8, 80, 96
10, 129360, Note_on_c, 8, 71, 96
10, 129550, Note_on_c, 8, 71, 0
10, 129550, Note_on_c, 8, 80, 0
10, 129600, Note_on_c, 8, 80, 96
10, 129600, Note_on_c, 8, 71, 96
10, 129790, Note_on_c, 8, 71, 0
10, 129790, Note_on_c, 8, 80, 0
10, 129840, Note_on_c, 8, 80, 96
10, 129840, Note_on_c, 8, 71, 96
10, 130030, Note_on_c, 8, 71, 0
10, 130030, Note_on_c, 8, 80, 0
10, 130080, Note_on_c, 8, 80, 96
10, 130080, Note_on_c, 8, 71, 96
10, 130270, Note_on_c, 8, 71, 0
10, 130270, Note_on_c, 8, 80, 0
10, 130320, Note_on_c, 8, 80, 96
10, 130320, Note_on_c, 8, 71, 96
10, 130510, Note_on_c, 8, 71, 0
10, 130510, Note_on_c, 8, 80, 0
10, 130560, Note_on_c, 8, 81, 96
10, 130560, Note_on_c, 8, 72, 96
10, 130750, Note_on_c, 8, 72, 0
10, 130750, Note_on_c, 8, 81, 0
10, 130800, Note_on_c, 8, 81, 96
10, 130800, Note_on_c, 8, 72, 96
10, 130990, Note_on_c, 8, 72, 0
10, 130990, Note_on_c, 8, 81, 0
10, 131040, Note_on_c, 8, 81, 96
10, 131040, Note_on_c, 8, 72, 96
10, 131230, Note_on_c, 8, 72, 0
10, 131230, Note_on_c, 8, 81, 0
10, 131280, Note_on_c, 8, 81, 96
10, 131280, Note_on_c, 8, 72, 96
10, 131470, Note_on_c, 8, 72, 0
10, 131470, Note_on_c, 8, 81, 0
10, 131520, Note_on_c, 8, 81, 96
10, 131520, Note_on_c, 8, 72, 96
10, 131710, Note_on_c, 8, 72, 0
10, 131710, Note_on_c, 8, 81, 0
10, 131760, Note_on_c, 8, 81, 96
10, 131760, Note_on_c, 8, 72, 96
10, 131950, Note_on_c, 8, 72, 0
10, 131950, Note_on_c, 8, 81, 0
10, 132000, Note_on_c, 8, 81, 96
10, 132000, Note_on_c, 8, 72, 96
10, 132190, Note_on_c, 8, 72, 0
10, 132190, Note_on_c, 8, 81, 0
10, 132240, Note_on_c, 8, 81, 96
10, 132240, Note_on_c, 8, 72, 96
10, 132430, Note_on_c, 8, 72, 0
10, 132430, Note_on_c, 8, 81, 0
10, 132480, Note_on_c, 8, 80, 96
10, 132480, Note_on_c, 8, 71, 96
10, 132670, Note_on_c, 8, 71, 0
10, 132670, Note_on_c, 8, 80, 0
10, 132720, Note_on_c, 8, 80, 96
10, 132720, Note_on_c, 8, 71, 96
10, 132910, Note_on_c, 8, 71, 0
10, 132910, Note_on_c, 8, 80, 0
10, 132960, Note_on_c, 8, 80, 96
10, 132960, Note_on_c, 8, 71, 96
10, 133150, Note_on_c, 8, 71, 0
10, 133150, Note_on_c, 8, 80, 0
10, 133200, Note_on_c, 8, 80, 96
10, 133200, Note_on_c, 8, 71, 96
10, 133390, Note_on_c, 8, 71, 0
10, 133390, Note_on_c, 8, 80, 0
10, 133440, Note_on_c, 8, 80, 96
10, 133440, Note_on_c, 8, 71, 96
10, 133630, Note_on_c, 8, 71, 0
10, 133630, Note_on_c, 8, 80, 0
10, 133680, Note_on_c, 8, 80, 96
10, 133680, Note_on_c, 8, 71, 96
10, 133870, Note_on_c, 8, 71, 0
10, 133870, Note_on_c, 8, 80, 0
10, 133920, Note_on_c, 8, 80, 96
10, 133920, Note_on_c, 8, 71, 96
10, 134110, Note_on_c, 8, 71, 0
10, 134110, Note_on_c, 8, 80, 0
10, 134160, Note_on_c, 8, 80, 96
10, 134160, Note_on_c, 8, 71, 96
10, 134350, Note_on_c, 8, 71, 0
10, 134350, Note_on_c, 8, 80, 0
10, 134400, Note_on_c, 8, 81, 96
10, 134400, Note_on_c, 8, 72, 96
10, 134590, Note_on_c, 8, 72, 0
10, 134590, Note_on_c, 8, 81, 0
10, 134640, Note_on_c, 8, 81, 96
10, 134640, Note_on_c, 8, 72, 96
10, 134830, Note_on_c, 8, 72, 0
10, 134830, Note_on_c, 8, 81, 0
10, 134880, Note_on_c, 8, 81, 96
10, 134880, Note_on_c, 8, 72, 96
10, 135070, Note_on_c, 8, 72, 0
10, 135070, Note_on_c, 8, 81, 0
10, 135120, Note_on_c, 8, 81, 96
10, 135120, Note_on_c, 8, 72, 96
10, 135310, Note_on_c, 8, 72, 0
10, 135310, Note_on_c, 8, 81, 0
10, 135360, Note_on_c, 8, 81, 96
10, 135360, Note_on_c, 8, 72, 96
10, 135550, Note_on_c, 8, 72, 0
10, 135550, Note_on_c, 8, 81, 0
10, 135600, Note_on_c, 8, 81, 96
10, 135600, Note_on_c, 8, 72, 96
10, 135790, Note_on_c, 8, 72, 0
10, 135790, Note_on_c, 8, 81, 0
10, 135840, Note_on_c, 8, 81, 96
10, 135840, Note_on_c, 8, 72, 96
10, 136030, Note_on_c, 8, 72, 0
10, 136030, Note_on_c, 8, 81, 0
10, 136080, Note_on_c, 8, 81, 96
10, 136080, Note_on_c, 8, 72, 96
10, 136270, Note_on_c, 8, 72, 0
10, 136270, Note_on_c, 8, 81, 0
10, 136320, Note_on_c, 8, 80, 96
10, 136320, Note_on_c, 8, 71, 96
10, 136510, Note_on_c, 8, 71, 0
10, 136510, Note_on_c, 8, 80, 0
10, 136560, Note_on_c, 8, 80, 96
10, 136560, Note_on_c, 8, 71, 96
10, 136750, Note_on_c, 8, 71, 0
10, 136750, Note_on_c, 8, 80, 0
10, 136800, Note_on_c, 8, 80, 96
10, 136800, Note_on_c, 8, 71, 96
10, 136990, Note_on_c, 8, 71, 0
10, 136990, Note_on_c, 8, 80, 0
10, 137040, Note_on_c, 8, 80, 96
10, 137040, Note_on_c, 8, 71, 96
10, 137230, Note_on_c, 8, 71, 0
10, 137230, Note_on_c, 8, 80, 0
10, 137280, Note_on_c, 8, 80, 96
10, 137280, Note_on_c, 8, 71, 96
10, 137470, Note_on_c, 8, 71, 0
10, 137470, Note_on_c, 8, 80, 0
10, 137520, Note_on_c, 8, 80, 96
10, 137520, Note_on_c, 8, 71, 96
10, 137710, Note_on_c, 8, 71, 0
10, 137710, Note_on_c, 8, 80, 0
10, 137760, Note_on_c, 8, 80, 96
10, 137760, Note_on_c, 8, 71, 96
10, 137950, Note_on_c, 8, 71, 0
10, 137950, Note_on_c, 8, 80, 0
10, 138000, Note_on_c, 8, 80, 96
10, 138000, Note_on_c, 8, 71, 96
10, 138190, Note_on_c, 8, 71, 0
10, 138190, Note_on_c, 8, 80, 0
10, 138240, Note_on_c, 8, 81, 96
10, 138240, Note_on_c, 8, 72, 96
10, 138430, Note_on_c, 8, 72, 0
10, 138430, Note_on_c, 8, 81, 0
10, 138480, Note_on_c, 8, 81, 96
10, 138480, Note_on_c, 8, 72, 96
10, 138670, Note_on_c, 8, 72, 0
10, 138670, Note_on_c, 8, 81, 0
10, 138720, Note_on_c, 8, 81, 96
10, 138720, Note_on_c, 8, 72, 96
10, 138910, Note_on_c, 8, 72, 0
10, 138910, Note_on_c, 8, 81, 0
10, 138960, Note_on_c, 8, 81, 96
10, 138960, Note_on_c, 8, 72, 96
10, 139150, Note_on_c, 8, 72, 0
10, 139150, Note_on_c, 8, 81, 0
10, 139200, Note_on_c, 8, 81, 96
10, 139200, Note_on_c, 8, 72, 96
10, 139390, Note_on_c, 8, 72, 0
10, 139390, Note_on_c, 8, 81, 0
10, 139440, Note_on_c, 8, 81, 96
10, 139440, Note_on_c, 8, 72, 96
10, 139630, Note_on_c, 8, 72, 0
10, 139630, Note_on_c, 8, 81, 0
10, 139680, Note_on_c, 8, 81, 96
10, 139680, Note_on_c, 8, 72, 96
10, 139870, Note_on_c, 8, 72, 0
10, 139870, Note_on_c, 8, 81, 0
10, 139920, Note_on_c, 8, 81, 96
10, 139920, Note_on_c, 8, 72, 96
10, 140110, Note_on_c, 8, 72, 0
10, 140110, Note_on_c, 8, 81, 0
10, 140160, Note_on_c, 8, 71, 96
10, 140350, Note_on_c, 8, 71, 0
10, 140400, Note_on_c, 8, 68, 96
10, 140590, Note_on_c, 8, 68, 0
10, 140640, Note_on_c, 8, 76, 96
10, 140830, Note_on_c, 8, 76, 0
10, 140880, Note_on_c, 8, 72, 96
10, 141070, Note_on_c, 8, 72, 0
10, 141120, Note_on_c, 8, 71, 96
10, 141310, Note_on_c, 8, 71, 0
10, 141360, Note_on_c, 8, 68, 96
10, 141550, Note_on_c, 8, 68, 0
10, 141600, Note_on_c, 8, 76, 96
10, 141790, Note_on_c, 8, 76, 0
10, 141840, Note_on_c, 8, 72, 96
10, 142030, Note_on_c, 8, 72, 0
10, 142080, Note_on_c, 8, 71, 96
10, 142270, Note_on_c, 8, 71, 0
10, 142320, Note_on_c, 8, 68, 96
10, 142510, Note_on_c, 8, 68, 0
10, 142560, Note_on_c, 8, 76, 96
10, 142750, Note_on_c, 8, 76, 0
10, 142800, Note_on_c, 8, 72, 96
10, 142990, Note_on_c, 8, 72, 0
10, 143040, Note_on_c, 8, 71, 96
10, 143230, Note_on_c, 8, 71, 0
10, 143280, Note_on_c, 8, 68, 96
10, 143470, Note_on_c, 8, 68, 0
10, 143520, Note_on_c, 8, 76, 96
10, 143710, Note_on_c, 8, 76, 0
10, 143760, Note_on_c, 8, 72, 96
10, 143950, Note_on_c, 8, 72, 0
10, 144000, Note_on_c, 8, 68, 96
10, 144380, Note_on_c, 8, 68, 0
10, 144480, Note_on_c, 8, 80, 96
10, 144480, Note_on_c, 8, 71, 96
10, 144480, Note_on_c, 8, 64, 96
10, 144860, Note_on_c, 8, 64, 0
10, 144860, Note_on_c, 8, 71, 0
10, 144860, Note_on_c, 8, 80, 0
10, 144960, Note_on_c, 8, 64, 96
10, 145340, Note_on_c, 8, 64, 0
10, 145440, Note_on_c, 8, 64, 96
10, 145820, Note_on_c, 8, 64, 0
10, 145920, Note_on_c, 8, 64, 96
10, 146680, Note_on_c, 8, 64, 0
10, 147840, Note_on_c, 8, 62, 101
10, 148990, Note_on_c, 8, 62, 0
10, 149280, Note_on_c, 8, 61, 96
10, 149400, Note_on_c, 8, 61, 0
10, 149760, Note_on_c, 8, 59, 96
10, 149880, Note_on_c, 8, 59, 0
10, 150240, Note_on_c, 8, 57, 96
10, 150360, Note_on_c, 8, 57, 0
10, 150720, Note_on_c, 8, 56, 96
10, 150840, Note_on_c, 8, 56, 0
10, 151680, Note_on_c, 8, 74, 64
10, 152060, Note_on_c, 8, 74, 0
10, 152640, Note_on_c, 8, 74, 64
10, 153020, Note_on_c, 8, 74, 0
10, 153600, Note_on_c, 8, 73, 64
10, 153980, Note_on_c, 8, 73, 0
10, 154080, Note_on_c, 8, 73, 64
10, 154460, Note_on_c, 8, 73, 0
10, 154560, Note_on_c, 8, 73, 64
10, 154940, Note_on_c, 8, 73, 0
10, 155520, Note_on_c, 8, 62, 101
10, 156670, Note_on_c, 8, 62, 0
10, 156960, Note_on_c, 8, 61, 64
10, 157080, Note_on_c, 8, 61, 0
10, 157440, Note_on_c, 8, 59, 64
10, 157560, Note_on_c, 8, 59, 0
10, 157920, Note_on_c, 8, 57, 64
10, 158040, Note_on_c, 8, 57, 0
10, 158400, Note_on_c, 8, 56, 64
10, 158520, Note_on_c, 8, 56, 0
10, 159360, Note_on_c, 8, 74, 64
10, 159740, Note_on_c, 8, 74, 0
10, 160320, Note_on_c, 8, 74, 64
10, 160700, Note_on_c, 8, 74, 0
10, 161280, Note_on_c, 8, 73, 64
10, 161660, Note_on_c, 8, 73, 0
10, 161760, Note_on_c, 8, 73, 64
10, 162140, Note_on_c, 8, 73, 0
10, 162240, Note_on_c, 8, 73, 64
10, 162620, Note_on_c, 8, 73, 0
10, 163200, Note_on_c, 8, 62, 96
10, 164350, Note_on_c, 8, 62, 0
10, 164640, Note_on_c, 8, 61, 64
10, 164760, Note_on_c, 8, 61, 0
10, 165120, Note_on_c, 8, 59, 64
10, 165240, Note_on_c, 8, 59, 0
10, 165600, Note_on_c, 8, 57, 64
10, 165720, Note_on_c, 8, 57, 0
10, 166080, Note_on_c, 8, 56, 64
10, 166200, Note_on_c, 8, 56, 0
10, 167040, Note_on_c, 8, 62, 96
10, 168190, Note_on_c, 8, 62, 0
10, 168480, Note_on_c, 8, 60, 64
10, 168600, Note_on_c, 8, 60, 0
10, 168960, Note_on_c, 8, 59, 64
10, 169080, Note_on_c, 8, 59, 0
10, 169440, Note_on_c, 8, 57, 64
10, 169560, Note_on_c, 8, 57, 0
10, 169920, Note_on_c, 8, 56, 64
10, 170040, Note_on_c, 8, 56, 0
10, 170880, Note_on_c, 8, 62, 64
10, 172030, Note_on_c, 8, 62, 0
10, 172320, Note_on_c, 8, 60, 64
10, 172440, Note_on_c, 8, 60, 0
10, 172800, Note_on_c, 8, 59, 64
10, 172920, Note_on_c, 8, 59, 0
10, 173280, Note_on_c, 8, 57, 64
10, 173400, Note_on_c, 8, 57, 0
10, 173760, Note_on_c, 8, 55, 64
10, 173880, Note_on_c, 8, 55, 0
10, 174720, Note_on_c, 8, 62, 64
10, 174960, Note_on_c, 8, 62, 0
10, 174960, Note_on_c, 8, 55, 64
10, 175200, Note_on_c, 8, 55, 0
10, 175200, Note_on_c, 8, 62, 64
10, 175440, Note_on_c, 8, 62, 0
10, 175440, Note_on_c, 8, 55, 64
10, 175680, Note_on_c, 8, 55, 0
10, 175680, Note_on_c, 8, 59, 64
10, 175920, Note_on_c, 8, 59, 0
10, 175920, Note_on_c, 8, 55, 64
10, 176160, Note_on_c, 8, 55, 0
10, 176160, Note_on_c, 8, 59, 64
10, 176400, Note_on_c, 8, 59, 0
10, 176400, Note_on_c, 8, 55, 64
10, 176590, Note_on_c, 8, 55, 0
10, 176640, Note_on_c, 8, 60, 64
10, 176880, Note_on_c, 8, 60, 0
10, 176880, Note_on_c, 8, 55, 64
10, 177120, Note_on_c, 8, 55, 0
10, 177120, Note_on_c, 8, 60, 64
10, 177360, Note_on_c, 8, 60, 0
10, 177360, Note_on_c, 8, 55, 64
10, 177600, Note_on_c, 8, 55, 0
10, 177600, Note_on_c, 8, 64, 64
10, 177840, Note_on_c, 8, 64, 0
10, 177840, Note_on_c, 8, 55, 64
10, 178080, Note_on_c, 8, 55, 0
10, 178080, Note_on_c, 8, 64, 64
10, 178320, Note_on_c, 8, 64, 0
10, 178320, Note_on_c, 8, 55, 64
10, 178510, Note_on_c, 8, 55, 0
10, 178560, Note_on_c, 8, 62, 64
10, 178800, Note_on_c, 8, 62, 0
10, 178800, Note_on_c, 8, 55, 64
10, 179040, Note_on_c, 8, 55, 0
10, 179040, Note_on_c, 8, 62, 64
10, 179280, Note_on_c, 8, 62, 0
10, 179280, Note_on_c, 8, 55, 64
10, 179520, Note_on_c, 8, 55, 0
10, 179520, Note_on_c, 8, 59, 64
10, 179760, Note_on_c, 8, 59, 0
10, 179760, Note_on_c, 8, 55, 64
10, 180000, Note_on_c, 8, 55, 0
10, 180000, Note_on_c, 8, 59, 64
10, 180240, Note_on_c, 8, 59, 0
10, 180240, Note_on_c, 8, 55, 64
10, 180430, Note_on_c, 8, 55, 0
10, 180480, Note_on_c, 8, 60, 64
10, 180720, Note_on_c, 8, 60, 0
10, 180720, Note_on_c, 8, 55, 64
10, 180960, Note_on_c, 8, 55, 0
10, 180960, Note_on_c, 8, 60, 64
10, 181200, Note_on_c, 8, 60, 0
10, 181200, Note_on_c, 8, 55, 64
10, 181440, Note_on_c, 8, 55, 0
10, 181440, Note_on_c, 8, 64, 64
10, 181680, Note_on_c, 8, 64, 0
10, 181680, Note_on_c, 8, 55, 64
10, 181920, Note_on_c, 8, 55, 0
10, 181920, Note_on_c, 8, 64, 64
10, 182160, Note_on_c, 8, 64, 0
10, 182160, Note_on_c, 8, 55, 64
10, 182350, Note_on_c, 8, 55, 0
10, 182400, Note_on_c, 8, 59, 64
10, 182640, Note_on_c, 8, 59, 0
10, 182640, Note_on_c, 8, 58, 64
10, 182880, Note_on_c, 8, 58, 0
10, 182880, Note_on_c, 8, 59, 64
10, 183120, Note_on_c, 8, 59, 0
10, 183120, Note_on_c, 8, 58, 64
10, 183360, Note_on_c, 8, 58, 0
10, 183360, Note_on_c, 8, 59, 64
10, 183600, Note_on_c, 8, 59, 0
10, 183600, Note_on_c, 8, 62, 64
10, 183840, Note_on_c, 8, 62, 0
10, 183840, Note_on_c, 8, 60, 64
10, 184080, Note_on_c, 8, 60, 0
10, 184080, Note_on_c, 8, 59, 64
10, 184270, Note_on_c, 8, 59, 0
10, 184320, Note_on_c, 8, 57, 64
10, 184560, Note_on_c, 8, 57, 0
10, 184560, Note_on_c, 8, 56, 64
10, 184800, Note_on_c, 8, 56, 0
10, 184800, Note_on_c, 8, 57, 64
10, 185040, Note_on_c, 8, 57, 0
10, 185040, Note_on_c, 8, 56, 64
10, 185280, Note_on_c, 8, 56, 0
10, 185280, Note_on_c, 8, 57, 64
10, 185520, Note_on_c, 8, 57, 0
10, 185520, Note_on_c, 8, 56, 64
10, 185760, Note_on_c, 8, 56, 0
10, 185760, Note_on_c, 8, 57, 64
10, 186000, Note_on_c, 8, 57, 0
10, 186000, Note_on_c, 8, 56, 64
10, 186240, Note_on_c, 8, 56, 0
10, 186240, Note_on_c, 8, 57, 64
10, 186430, Note_on_c, 8, 57, 0
10, 186480, Note_on_c, 8, 57, 64
10, 186670, Note_on_c, 8, 57, 0
10, 186720, Note_on_c, 8, 57, 64
10, 186910, Note_on_c, 8, 57, 0
10, 186960, Note_on_c, 8, 57, 64
10, 187150, Note_on_c, 8, 57, 0
10, 187200, Note_on_c, 8, 60, 64
10, 187390, Note_on_c, 8, 60, 0
10, 187440, Note_on_c, 8, 60, 64
10, 187630, Note_on_c, 8, 60, 0
10, 187680, Note_on_c, 8, 57, 64
10, 187870, Note_on_c, 8, 57, 0
10, 187920, Note_on_c, 8, 57, 64
10, 188110, Note_on_c, 8, 57, 0
10, 188160, Note_on_c, 8, 56, 64
10, 188350, Note_on_c, 8, 56, 0
10, 188400, Note_on_c, 8, 56, 64
10, 188590, Note_on_c, 8, 56, 0
10, 188640, Note_on_c, 8, 56, 64
10, 188830, Note_on_c, 8, 56, 0
10, 188880, Note_on_c, 8, 56, 64
10, 189070, Note_on_c, 8, 56, 0
10, 189120, Note_on_c, 8, 59, 64
10, 189310, Note_on_c, 8, 59, 0
10, 189360, Note_on_c, 8, 59, 64
10, 189550, Note_on_c, 8, 59, 0
10, 189600, Note_on_c, 8, 56, 64
10, 189790, Note_on_c, 8, 56, 0
10, 189840, Note_on_c, 8, 56, 64
10, 190030, Note_on_c, 8, 56, 0
10, 190080, Note_on_c, 8, 57, 96
10, 190270, Note_on_c, 8, 57, 0
10, 190320, Note_on_c, 8, 73, 96
10, 190320, Note_on_c, 8, 64, 96
10, 190510, Note_on_c, 8, 64, 0
10, 190510, Note_on_c, 8, 73, 0
10, 190560, Note_on_c, 8, 73, 96
10, 190560, Note_on_c, 8, 64, 96
10, 190750, Note_on_c, 8, 64, 0
10, 190750, Note_on_c, 8, 73, 0
10, 190800, Note_on_c, 8, 73, 96
10, 190800, Note_on_c, 8, 64, 96
10, 190990, Note_on_c, 8, 64, 0
10, 190990, Note_on_c, 8, 73, 0
10, 191040, Note_on_c, 8, 73, 96
10, 191040, Note_on_c, 8, 64, 96
10, 191230, Note_on_c, 8, 64, 0
10, 191230, Note_on_c, 8, 73, 0
10, 191280, Note_on_c, 8, 73, 96
10, 191280, Note_on_c, 8, 64, 96
10, 191470, Note_on_c, 8, 64, 0
10, 191470, Note_on_c, 8, 73, 0
10, 191520, Note_on_c, 8, 73, 96
10, 191520, Note_on_c, 8, 64, 96
10, 191710, Note_on_c, 8, 64, 0
10, 191710, Note_on_c, 8, 73, 0
10, 191760, Note_on_c, 8, 73, 96
10, 191760, Note_on_c, 8, 64, 96
10, 191950, Note_on_c, 8, 64, 0
10, 191950, Note_on_c, 8, 73, 0
10, 192000, Note_on_c, 8, 73, 96
10, 192000, Note_on_c, 8, 64, 96
10, 192190, Note_on_c, 8, 64, 0
10, 192190, Note_on_c, 8, 73, 0
10, 192240, Note_on_c, 8, 73, 96
10, 192240, Note_on_c, 8, 64, 96
10, 192430, Note_on_c, 8, 64, 0
10, 192430, Note_on_c, 8, 73, 0
10, 192480, Note_on_c, 8, 73, 96
10, 192480, Note_on_c, 8, 64, 96
10, 192670, Note_on_c, 8, 64, 0
10, 192670, Note_on_c, 8, 73, 0
10, 192720, Note_on_c, 8, 73, 96
10, 192720, Note_on_c, 8, 64, 96
10, 192910, Note_on_c, 8, 64, 0
10, 192910, Note_on_c, 8, 73, 0
10, 192960, Note_on_c, 8, 73, 96
10, 192960, Note_on_c, 8, 64, 96
10, 193150, Note_on_c, 8, 64, 0
10, 193150, Note_on_c, 8, 73, 0
10, 193200, Note_on_c, 8, 73, 96
10, 193200, Note_on_c, 8, 64, 96
10, 193390, Note_on_c, 8, 64, 0
10, 193390, Note_on_c, 8, 73, 0
10, 193440, Note_on_c, 8, 73, 96
10, 193440, Note_on_c, 8, 64, 96
10, 193630, Note_on_c, 8, 64, 0
10, 193630, Note_on_c, 8, 73, 0
10, 193680, Note_on_c, 8, 73, 96
10, 193680, Note_on_c, 8, 64, 96
10, 193870, Note_on_c, 8, 64, 0
10, 193870, Note_on_c, 8, 73, 0
10, 193920, Note_on_c, 8, 74, 96
10, 193920, Note_on_c, 8, 66, 96
10, 194110, Note_on_c, 8, 66, 0
10, 194110, Note_on_c, 8, 74, 0
10, 194160, Note_on_c, 8, 74, 96
10, 194160, Note_on_c, 8, 66, 96
10, 194350, Note_on_c, 8, 66, 0
10, 194350, Note_on_c, 8, 74, 0
10, 194400, Note_on_c, 8, 74, 96
10, 194400, Note_on_c, 8, 66, 96
10, 194590, Note_on_c, 8, 66, 0
10, 194590, Note_on_c, 8, 74, 0
10, 194640, Note_on_c, 8, 74, 96
10, 194640, Note_on_c, 8, 66, 96
10, 194830, Note_on_c, 8, 66, 0
10, 194830, Note_on_c, 8, 74, 0
10, 194880, Note_on_c, 8, 74, 96
10, 194880, Note_on_c, 8, 66, 96
10, 195070, Note_on_c, 8, 66, 0
10, 195070, Note_on_c, 8, 74, 0
10, 195120, Note_on_c, 8, 74, 96
10, 195120, Note_on_c, 8, 66, 96
10, 195310, Note_on_c, 8, 66, 0
10, 195310, Note_on_c, 8, 74, 0
10, 195360, Note_on_c, 8, 74, 96
10, 195360, Note_on_c, 8, 66, 96
10, 195550, Note_on_c, 8, 66, 0
10, 195550, Note_on_c, 8, 74, 0
10, 195600, Note_on_c, 8, 74, 96
10, 195600, Note_on_c, 8, 66, 96
10, 195790, Note_on_c, 8, 66, 0
10, 195790, Note_on_c, 8, 74, 0
10, 195840, Note_on_c, 8, 74, 96
10, 196030, Note_on_c, 8, 74, 0
10, 196080, Note_on_c, 8, 76, 96
10, 196270, Note_on_c, 8, 76, 0
10, 196320, Note_on_c, 8, 78, 96
10, 196510, Note_on_c, 8, 78, 0
10, 196560, Note_on_c, 8, 76, 96
10, 196750, Note_on_c, 8, 76, 0
10, 196800, Note_on_c, 8, 78, 96
10, 196990, Note_on_c, 8, 78, 0
10, 197040, Note_on_c, 8, 76, 96
10, 197230, Note_on_c, 8, 76, 0
10, 197280, Note_on_c, 8, 78, 96
10, 197470, Note_on_c, 8, 78, 0
10, 197520, Note_on_c, 8, 74, 96
10, 197710, Note_on_c, 8, 74, 0
10, 197760, Note_on_c, 8, 73, 96
10, 197760, Note_on_c, 8, 64, 96
10, 197950, Note_on_c, 8, 64, 0
10, 197950, Note_on_c, 8, 73, 0
10, 198000, Note_on_c, 8, 73, 96
10, 198000, Note_on_c, 8, 64, 96
10, 198190, Note_on_c, 8, 64, 0
10, 198190, Note_on_c, 8, 73, 0
10, 198240, Note_on_c, 8, 73, 96
10, 198240, Note_on_c, 8, 64, 96
10, 198430, Note_on_c, 8, 64, 0
10, 198430, Note_on_c, 8, 73, 0
10, 198480, Note_on_c, 8, 73, 96
10, 198480, Note_on_c, 8, 64, 96
10, 198670, Note_on_c, 8, 64, 0
10, 198670, Note_on_c, 8, 73, 0
10, 198720, Note_on_c, 8, 73, 96
10, 198720, Note_on_c, 8, 64, 96
10, 198910, Note_on_c, 8, 64, 0
10, 198910, Note_on_c, 8, 73, 0
10, 198960, Note_on_c, 8, 73, 96
10, 198960, Note_on_c, 8, 64, 96
10, 199150, Note_on_c, 8, 64, 0
10, 199150, Note_on_c, 8, 73, 0
10, 199200, Note_on_c, 8, 73, 96
10, 199200, Note_on_c, 8, 64, 96
10, 199390, Note_on_c, 8, 64, 0
10, 199390, Note_on_c, 8, 73, 0
10, 199440, Note_on_c, 8, 73, 96
10, 199440, Note_on_c, 8, 64, 96
10, 199630, Note_on_c, 8, 64, 0
10, 199630, Note_on_c, 8, 73, 0
10, 199680, Note_on_c, 8, 73, 96
10, 199680, Note_on_c, 8, 64, 96
10, 199870, Note_on_c, 8, 64, 0
10, 199870, Note_on_c, 8, 73, 0
10, 199920, Note_on_c, 8, 73, 96
10, 200110, Note_on_c, 8, 73, 0
10, 200160, Note_on_c, 8, 74, 96
10, 200350, Note_on_c, 8, 74, 0
10, 200400, Note_on_c, 8, 76, 96
10, 200590, Note_on_c, 8, 76, 0
10, 200640, Note_on_c, 8, 76, 96
10, 200880, Note_on_c, 8, 76, 0
10, 200880, Note_on_c, 8, 74, 96
10, 201070, Note_on_c, 8, 74, 0
10, 201120, Note_on_c, 8, 73, 96
10, 201180, Note_on_c, 8, 73, 0
10, 201360, Note_on_c, 8, 71, 96
10, 201420, Note_on_c, 8, 71, 0
10, 201600, Note_on_c, 8, 73, 96
10, 201600, Note_on_c, 8, 64, 96
10, 201790, Note_on_c, 8, 64, 0
10, 201790, Note_on_c, 8, 73, 0
10, 201840, Note_on_c, 8, 73, 96
10, 201840, Note_on_c, 8, 64, 96
10, 202030, Note_on_c, 8, 64, 0
10, 202030, Note_on_c, 8, 73, 0
10, 202080, Note_on_c, 8, 73, 96
10, 202080, Note_on_c, 8, 64, 96
10, 202270, Note_on_c, 8, 64, 0
10, 202270, Note_on_c, 8, 73, 0
10, 202320, Note_on_c, 8, 73, 96
10, 202320, Note_on_c, 8, 64, 96
10, 202510, Note_on_c, 8, 64, 0
10, 202510, Note_on_c, 8, 73, 0
10, 202560, Note_on_c, 8, 73, 96
10, 202560, Note_on_c, 8, 64, 96
10, 202750, Note_on_c, 8, 64, 0
10, 202750, Note_on_c, 8, 73, 0
10, 202800, Note_on_c, 8, 73, 96
10, 202800, Note_on_c, 8, 64, 96
10, 202990, Note_on_c, 8, 64, 0
10, 202990, Note_on_c, 8, 73, 0
10, 203040, Note_on_c, 8, 73, 96
10, 203040, Note_on_c, 8, 64, 96
10, 203230, Note_on_c, 8, 64, 0
10, 203230, Note_on_c, 8, 73, 0
10, 203280, Note_on_c, 8, 73, 96
10, 203280, Note_on_c, 8, 64, 96
10, 203470, Note_on_c, 8, 64, 0
10, 203470, Note_on_c, 8, 73, 0
10, 203520, Note_on_c, 8, 73, 96
10, 203520, Note_on_c, 8, 64, 96
10, 203710, Note_on_c, 8, 64, 0
10, 203710, Note_on_c, 8, 73, 0
10, 203760, Note_on_c, 8, 73, 96
10, 203760, Note_on_c, 8, 64, 96
10, 203950, Note_on_c, 8, 64, 0
10, 203950, Note_on_c, 8, 73, 0
10, 204000, Note_on_c, 8, 73, 96
10, 204000, Note_on_c, 8, 64, 96
10, 204190, Note_on_c, 8, 64, 0
10, 204190, Note_on_c, 8, 73, 0
10, 204240, Note_on_c, 8, 73, 96
10, 204240, Note_on_c, 8, 64, 96
10, 204430, Note_on_c, 8, 64, 0
10, 204430, Note_on_c, 8, 73, 0
10, 204480, Note_on_c, 8, 73, 96
10, 204480, Note_on_c, 8, 64, 96
10, 204670, Note_on_c, 8, 64, 0
10, 204670, Note_on_c, 8, 73, 0
10, 204720, Note_on_c, 8, 73, 96
10, 204720, Note_on_c, 8, 64, 96
10, 204910, Note_on_c, 8, 64, 0
10, 204910, Note_on_c, 8, 73, 0
10, 204960, Note_on_c, 8, 73, 96
10, 204960, Note_on_c, 8, 64, 96
10, 205150, Note_on_c, 8, 64, 0
10, 205150, Note_on_c, 8, 73, 0
10, 205200, Note_on_c, 8, 73, 96
10, 205200, Note_on_c, 8, 64, 96
10, 205390, Note_on_c, 8, 64, 0
10, 205390, Note_on_c, 8, 73, 0
10, 205440, Note_on_c, 8, 74, 96
10, 205440, Note_on_c, 8, 66, 96
10, 205630, Note_on_c, 8, 66, 0
10, 205630, Note_on_c, 8, 74, 0
10, 205680, Note_on_c, 8, 74, 96
10, 205680, Note_on_c, 8, 66, 96
10, 205870, Note_on_c, 8, 66, 0
10, 205870, Note_on_c, 8, 74, 0
10, 205920, Note_on_c, 8, 74, 96
10, 205920, Note_on_c, 8, 66, 96
10, 206110, Note_on_c, 8, 66, 0
10, 206110, Note_on_c, 8, 74, 0
10, 206160, Note_on_c, 8, 74, 96
10, 206160, Note_on_c, 8, 66, 96
10, 206350, Note_on_c, 8, 66, 0
10, 206350, Note_on_c, 8, 74, 0
10, 206400, Note_on_c, 8, 74, 96
10, 206400, Note_on_c, 8, 66, 96
10, 206590, Note_on_c, 8, 66, 0
10, 206590, Note_on_c, 8, 74, 0
10, 206640, Note_on_c, 8, 74, 96
10, 206640, Note_on_c, 8, 66, 96
10, 206830, Note_on_c, 8, 66, 0
10, 206830, Note_on_c, 8, 74, 0
10, 206880, Note_on_c, 8, 74, 96
10, 206880, Note_on_c, 8, 66, 96
10, 207070, Note_on_c, 8, 66, 0
10, 207070, Note_on_c, 8, 74, 0
10, 207120, Note_on_c, 8, 74, 96
10, 207120, Note_on_c, 8, 66, 96
10, 207310, Note_on_c, 8, 66, 0
10, 207310, Note_on_c, 8, 74, 0
10, 207360, Note_on_c, 8, 74, 96
10, 207550, Note_on_c, 8, 74, 0
10, 207600, Note_on_c, 8, 76, 96
10, 207790, Note_on_c, 8, 76, 0
10, 207840, Note_on_c, 8, 78, 96
10, 208030, Note_on_c, 8, 78, 0
10, 208080, Note_on_c, 8, 76, 96
10, 208270, Note_on_c, 8, 76, 0
10, 208320, Note_on_c, 8, 78, 96
10, 208510, Note_on_c, 8, 78, 0
10, 208560, Note_on_c, 8, 76, 96
10, 208750, Note_on_c, 8, 76, 0
10, 208800, Note_on_c, 8, 78, 96
10, 208990, Note_on_c, 8, 78, 0
10, 209040, Note_on_c, 8, 74, 96
10, 209230, Note_on_c, 8, 74, 0
10, 209280, Note_on_c, 8, 73, 96
10, 209280, Note_on_c, 8, 64, 96
10, 209470, Note_on_c, 8, 64, 0
10, 209470, Note_on_c, 8, 73, 0
10, 209520, Note_on_c, 8, 73, 96
10, 209520, Note_on_c, 8, 64, 96
10, 209710, Note_on_c, 8, 64, 0
10, 209710, Note_on_c, 8, 73, 0
10, 209760, Note_on_c, 8, 73, 96
10, 209760, Note_on_c, 8, 64, 96
10, 209950, Note_on_c, 8, 64, 0
10, 209950, Note_on_c, 8, 73, 0
10, 210000, Note_on_c, 8, 73, 96
10, 210000, Note_on_c, 8, 64, 96
10, 210190, Note_on_c, 8, 64, 0
10, 210190, Note_on_c, 8, 73, 0
10, 210240, Note_on_c, 8, 73, 96
10, 210240, Note_on_c, 8, 64, 96
10, 210430, Note_on_c, 8, 64, 0
10, 210430, Note_on_c, 8, 73, 0
10, 210480, Note_on_c, 8, 73, 96
10, 210480, Note_on_c, 8, 64, 96
10, 210670, Note_on_c, 8, 64, 0
10, 210670, Note_on_c, 8, 73, 0
10, 210720, Note_on_c, 8, 73, 96
10, 210720, Note_on_c, 8, 64, 96
10, 210910, Note_on_c, 8, 64, 0
10, 210910, Note_on_c, 8, 73, 0
10, 210960, Note_on_c, 8, 73, 96
10, 210960, Note_on_c, 8, 64, 96
10, 211150, Note_on_c, 8, 64, 0
10, 211150, Note_on_c, 8, 73, 0
10, 211200, Note_on_c, 8, 73, 96
10, 211200, Note_on_c, 8, 64, 96
10, 211390, Note_on_c, 8, 64, 0
10, 211390, Note_on_c, 8, 73, 0
10, 211440, Note_on_c, 8, 73, 96
10, 211630, Note_on_c, 8, 73, 0
10, 211680, Note_on_c, 8, 74, 96
10, 211870, Note_on_c, 8, 74, 0
10, 211920, Note_on_c, 8, 76, 96
10, 212110, Note_on_c, 8, 76, 0
10, 212160, Note_on_c, 8, 76, 96
10, 212400, Note_on_c, 8, 76, 0
10, 212400, Note_on_c, 8, 74, 96
10, 212640, Note_on_c, 8, 74, 0
10, 212640, Note_on_c, 8, 73, 96
10, 212700, Note_on_c, 8, 73, 0
10, 212880, Note_on_c, 8, 71, 96
10, 212940, Note_on_c, 8, 71, 0
10, 213120, Note_on_c, 8, 73, 96
10, 213500, Note_on_c, 8, 73, 0
10, 214560, Note_on_c, 8, 80, 96
10, 214560, Note_on_c, 8, 71, 96
10, 214560, Note_on_c, 8, 64, 96
10, 214940, Note_on_c, 8, 64, 0
10, 214940, Note_on_c, 8, 71, 0
10, 214940, Note_on_c, 8, 80, 0
10, 215040, Note_on_c, 8, 81, 96
10, 215040, Note_on_c, 8, 73, 96
10, 215040, Note_on_c, 8, 64, 96
10, 215420, Note_on_c, 8, 64, 0
10, 215420, Note_on_c, 8, 73, 0
10, 215420, Note_on_c, 8, 81, 0
10, 216480, Note_on_c, 8, 80, 96
10, 216480, Note_on_c, 8, 71, 96
10, 216480, Note_on_c, 8, 64, 96
10, 216860, Note_on_c, 8, 64, 0
10, 216860, Note_on_c, 8, 71, 0
10, 216860, Note_on_c, 8, 80, 0
10, 216960, Note_on_c, 8, 81, 96
10, 217150, Note_on_c, 8, 81, 0
10, 217200, Note_on_c, 8, 85, 96
10, 217390, Note_on_c, 8, 85, 0
10, 217440, Note_on_c, 8, 76, 96
10, 217630, Note_on_c, 8, 76, 0
10, 217680, Note_on_c, 8, 80, 96
10, 217870, Note_on_c, 8, 80, 0
10, 217920, Note_on_c, 8, 81, 96
10, 218110, Note_on_c, 8, 81, 0
10, 218160, Note_on_c, 8, 85, 96
10, 218350, Note_on_c, 8, 85, 0
10, 218400, Note_on_c, 8, 86, 96
10, 218590, Note_on_c, 8, 86, 0
10, 218640, Note_on_c, 8, 83, 96
10, 218830, Note_on_c, 8, 83, 0
10, 218880, Note_on_c, 8, 81, 96
10, 219070, Note_on_c, 8, 81, 0
10, 219120, Note_on_c, 8, 85, 96
10, 219310, Note_on_c, 8, 85, 0
10, 219360, Note_on_c, 8, 76, 96
10, 219550, Note_on_c, 8, 76, 0
10, 219600, Note_on_c, 8, 80, 96
10, 219790, Note_on_c, 8, 80, 0
10, 219840, Note_on_c, 8, 81, 96
10, 220030, Note_on_c, 8, 81, 0
10, 220080, Note_on_c, 8, 85, 96
10, 220270, Note_on_c, 8, 85, 0
10, 220320, Note_on_c, 8, 86, 96
10, 220510, Note_on_c, 8, 86, 0
10, 220560, Note_on_c, 8, 83, 96
10, 220750, Note_on_c, 8, 83, 0
10, 220800, Note_on_c, 8, 81, 96
10, 221040, Note_on_c, 8, 81, 0
10, 221040, Note_on_c, 8, 76, 96
10, 221230, Note_on_c, 8, 76, 0
10, 221280, Note_on_c, 8, 85, 96
10, 221340, Note_on_c, 8, 85, 0
10, 221520, Note_on_c, 8, 85, 96
10, 221580, Note_on_c, 8, 85, 0
10, 221760, Note_on_c, 8, 85, 96
10, 222000, Note_on_c, 8, 85, 0
10, 222000, Note_on_c, 8, 81, 96
10, 222190, Note_on_c, 8, 81, 0
10, 222240, Note_on_c, 8, 88, 96
10, 222300, Note_on_c, 8, 88, 0
10, 222480, Note_on_c, 8, 88, 96
10, 222540, Note_on_c, 8, 88, 0
10, 222720, Note_on_c, 8, 88, 96
10, 222910, Note_on_c, 8, 88, 0
10, 222960, Note_on_c, 8, 88, 96
10, 223150, Note_on_c, 8, 88, 0
10, 223200, Note_on_c, 8, 88, 96
10, 223390, Note_on_c, 8, 88, 0
10, 223440, Note_on_c, 8, 88, 96
10, 223630, Note_on_c, 8, 88, 0
10, 223680, Note_on_c, 8, 88, 96
10, 223870, Note_on_c, 8, 88, 0
10, 223920, Note_on_c, 8, 85, 96
10, 224110, Note_on_c, 8, 85, 0
10, 224160, Note_on_c, 8, 81, 96
10, 224350, Note_on_c, 8, 81, 0
10, 224400, Note_on_c, 8, 76, 96
10, 224590, Note_on_c, 8, 76, 0
10, 224640, Note_on_c, 8, 85, 96
10, 224830, Note_on_c, 8, 85, 0
10, 224880, Note_on_c, 8, 85, 96
10, 225070, Note_on_c, 8, 85, 0
10, 225120, Note_on_c, 8, 85, 96
10, 225310, Note_on_c, 8, 85, 0
10, 225360, Note_on_c, 8, 85, 96
10, 225550, Note_on_c, 8, 85, 0
10, 225600, Note_on_c, 8, 85, 96
10, 225790, Note_on_c, 8, 85, 0
10, 225840, Note_on_c, 8, 81, 96
10, 226030, Note_on_c, 8, 81, 0
10, 226080, Note_on_c, 8, 76, 96
10, 226270, Note_on_c, 8, 76, 0
10, 226320, Note_on_c, 8, 73, 96
10, 226510, Note_on_c, 8, 73, 0
10, 226560, Note_on_c, 8, 81, 96
10, 226750, Note_on_c, 8, 81, 0
10, 226800, Note_on_c, 8, 81, 96
10, 226990, Note_on_c, 8, 81, 0
10, 227040, Note_on_c, 8, 81, 96
10, 227230, Note_on_c, 8, 81, 0
10, 227280, Note_on_c, 8, 81, 96
10, 227470, Note_on_c, 8, 81, 0
10, 227520, Note_on_c, 8, 81, 96
10, 227710, Note_on_c, 8, 81, 0
10, 227760, Note_on_c, 8, 76, 96
10, 227950, Note_on_c, 8, 76, 0
10, 228000, Note_on_c, 8, 73, 96
10, 228190, Note_on_c, 8, 73, 0
10, 228240, Note_on_c, 8, 69, 96
10, 228430, Note_on_c, 8, 69, 0
10, 228480, Note_on_c, 8, 81, 96
10, 228860, Note_on_c, 8, 81, 0
10, 229440, Note_on_c, 8, 81, 96
10, 229440, Note_on_c, 8, 73, 96
10, 229440, Note_on_c, 8, 64, 96
10, 229820, Note_on_c, 8, 64, 0
10, 229820, Note_on_c, 8, 73, 0
10, 229820, Note_on_c, 8, 81, 0
10, 230400, Note_on_c, 8, 57, 96
10, 231160, Note_on_c, 8, 57, 0
10, 232320, Note_on_c, 8, 64, 96
10, 233470, Note_on_c, 8, 64, 0
10, 233760, Note_on_c, 8, 62, 96
10, 233880, Note_on_c, 8, 62, 0
10, 234240, Note_on_c, 8, 61, 96
10, 234360, Note_on_c, 8, 61, 0
10, 234720, Note_on_c, 8, 59, 96
10, 234840, Note_on_c, 8, 59, 0
10, 235200, Note_on_c, 8, 57, 96
10, 235320, Note_on_c, 8, 57, 0
10, 236160, Note_on_c, 8, 76, 64
10, 236160, Note_on_c, 8, 73, 64
10, 236540, Note_on_c, 8, 73, 0
10, 236540, Note_on_c, 8, 76, 0
10, 237120, Note_on_c, 8, 76, 64
10, 237120, Note_on_c, 8, 73, 64
10, 237500, Note_on_c, 8, 73, 0
10, 237500, Note_on_c, 8, 76, 0
10, 238080, Note_on_c, 8, 76, 64
10, 238080, Note_on_c, 8, 73, 64
10, 238460, Note_on_c, 8, 73, 0
10, 238460, Note_on_c, 8, 76, 0
10, 238560, Note_on_c, 8, 76, 64
10, 238560, Note_on_c, 8, 73, 64
10, 238940, Note_on_c, 8, 73, 0
10, 238940, Note_on_c, 8, 76, 0
10, 239040, Note_on_c, 8, 76, 64
10, 239040, Note_on_c, 8, 73, 64
10, 239420, Note_on_c, 8, 73, 0
10, 239420, Note_on_c, 8, 76, 0
10, 240000, Note_on_c, 8, 66, 96
10, 241150, Note_on_c, 8, 66, 0
10, 241440, Note_on_c, 8, 61, 96
10, 241560, Note_on_c, 8, 61, 0
10, 241920, Note_on_c, 8, 62, 96
10, 242040, Note_on_c, 8, 62, 0
10, 242400, Note_on_c, 8, 59, 96
10, 242520, Note_on_c, 8, 59, 0
10, 242880, Note_on_c, 8, 57, 96
10, 243000, Note_on_c, 8, 57, 0
10, 243840, Note_on_c, 8, 78, 64
10, 243840, Note_on_c, 8, 74, 64
10, 244220, Note_on_c, 8, 74, 0
10, 244220, Note_on_c, 8, 78, 0
10, 244800, Note_on_c, 8, 78, 64
10, 244800, Note_on_c, 8, 74, 64
10, 245180, Note_on_c, 8, 74, 0
10, 245180, Note_on_c, 8, 78, 0
10, 245760, Note_on_c, 8, 78, 64
10, 245760, Note_on_c, 8, 74, 64
10, 246140, Note_on_c, 8, 74, 0
10, 246140, Note_on_c, 8, 78, 0
10, 246240, Note_on_c, 8, 78, 64
10, 246240, Note_on_c, 8, 74, 64
10, 246620, Note_on_c, 8, 74, 0
10, 246620, Note_on_c, 8, 78, 0
10, 246720, Note_on_c, 8, 78, 64
10, 246720, Note_on_c, 8, 74, 64
10, 247100, Note_on_c, 8, 74, 0
10, 247100, Note_on_c, 8, 78, 0
10, 247680, Note_on_c, 8, 67, 96
10, 248830, Note_on_c, 8, 67, 0
10, 249120, Note_on_c, 8, 66, 64
10, 249240, Note_on_c, 8, 66, 0
10, 249600, Note_on_c, 8, 64, 64
10, 249720, Note_on_c, 8, 64, 0
10, 250080, Note_on_c, 8, 62, 64
10, 250200, Note_on_c, 8, 62, 0
10, 250560, Note_on_c, 8, 61, 64
10, 250680, Note_on_c, 8, 61, 0
10, 251520, Note_on_c, 8, 64, 96
10, 252670, Note_on_c, 8, 64, 0
10, 252960, Note_on_c, 8, 62, 64
10, 253080, Note_on_c, 8, 62, 0
10, 253440, Note_on_c, 8, 61, 64
10, 253560, Note_on_c, 8, 61, 0
10, 253920, Note_on_c, 8, 59, 64
10, 254040, Note_on_c, 8, 59, 0
10, 254400, Note_on_c, 8, 58, 64
10, 254520, Note_on_c, 8, 58, 0
10, 260640, Note_on_c, 8, 64, 64
10, 260700, Note_on_c, 8, 64, 0
10, 260880, Note_on_c, 8, 64, 64
10, 260940, Note_on_c, 8, 64, 0
10, 261120, Note_on_c, 8, 67, 64
10, 261160, Note_on_c, 8, 67, 0
10, 261180, Note_on_c, 8, 66, 70
10, 261360, Note_on_c, 8, 66, 0
10, 261360, Note_on_c, 8, 64, 64
10, 261550, Note_on_c, 8, 64, 0
10, 261600, Note_on_c, 8, 64, 64
10, 261660, Note_on_c, 8, 64, 0
10, 261840, Note_on_c, 8, 64, 64
10, 261900, Note_on_c, 8, 64, 0
10, 262080, Note_on_c, 8, 67, 64
10, 262120, Note_on_c, 8, 67, 0
10, 262140, Note_on_c, 8, 66, 70
10, 262320, Note_on_c, 8, 66, 0
10, 262320, Note_on_c, 8, 64, 64
10, 262510, Note_on_c, 8, 64, 0
10, 262560, Note_on_c, 8, 64, 64
10, 262620, Note_on_c, 8, 64, 0
10, 262800, Note_on_c, 8, 64, 64
10, 262860, Note_on_c, 8, 64, 0
10, 263040, Note_on_c, 8, 64, 64
10, 263520, Note_on_c, 8, 64, 0
10, 263520, Note_on_c, 8, 69, 64
10, 263900, Note_on_c, 8, 69, 0
10, 268320, Note_on_c, 8, 62, 64
10, 268380, Note_on_c, 8, 62, 0
10, 268560, Note_on_c, 8, 62, 64
10, 268620, Note_on_c, 8, 62, 0
10, 268800, Note_on_c, 8, 66, 64
10, 268840, Note_on_c, 8, 66, 0
10, 268860, Note_on_c, 8, 64, 70
10, 269040, Note_on_c, 8, 64, 0
10, 269040, Note_on_c, 8, 62, 64
10, 269230, Note_on_c, 8, 62, 0
10, 269280, Note_on_c, 8, 62, 64
10, 269340, Note_on_c, 8, 62, 0
10, 269520, Note_on_c, 8, 62, 64
10, 269580, Note_on_c, 8, 62, 0
10, 269760, Note_on_c, 8, 62, 64
10, 270000, Note_on_c, 8, 62, 0
10, 270000, Note_on_c, 8, 60, 64
10, 270190, Note_on_c, 8, 60, 0
10, 270240, Note_on_c, 8, 60, 64
10, 270300, Note_on_c, 8, 60, 0
10, 270480, Note_on_c, 8, 60, 64
10, 270540, Note_on_c, 8, 60, 0
10, 270720, Note_on_c, 8, 59, 64
10, 274170, Note_on_c, 8, 59, 0
10, 274560, Note_on_c, 8, 60, 64
10, 275040, Note_on_c, 8, 60, 0
10, 275040, Note_on_c, 8, 64, 64
10, 276000, Note_on_c, 8, 64, 0
10, 276000, Note_on_c, 8, 62, 64
10, 276480, Note_on_c, 8, 62, 0
10, 276480, Note_on_c, 8, 60, 64
10, 276860, Note_on_c, 8, 60, 0
10, 276960, Note_on_c, 8, 72, 64
10, 277920, Note_on_c, 8, 72, 0
10, 277920, Note_on_c, 8, 71, 64
10, 278300, Note_on_c, 8, 71, 0
10, 278400, Note_on_c, 8, 71, 64
10, 278640, Note_on_c, 8, 71, 0
10, 278640, Note_on_c, 8, 69, 64
10, 278880, Note_on_c, 8, 69, 0
10, 278880, Note_on_c, 8, 69, 64
10, 279070, Note_on_c, 8, 69, 0
10, 279120, Note_on_c, 8, 69, 64
10, 279310, Note_on_c, 8, 69, 0
10, 279360, Note_on_c, 8, 69, 64
10, 279600, Note_on_c, 8, 69, 0
10, 279600, Note_on_c, 8, 67, 64
10, 279840, Note_on_c, 8, 67, 0
10, 279840, Note_on_c, 8, 67, 64
10, 280030, Note_on_c, 8, 67, 0
10, 280080, Note_on_c, 8, 67, 64
10, 280270, Note_on_c, 8, 67, 0
10, 280320, Note_on_c, 8, 64, 64
10, 281280, Note_on_c, 8, 64, 0
10, 281280, Note_on_c, 8, 60, 64
10, 282040, Note_on_c, 8, 60, 0
10, 282240, Note_on_c, 8, 59, 96
10, 282620, Note_on_c, 8, 59, 0
10, 286080, Note_on_c, 8, 58, 96
10, 288000, Note_on_c, 8, 58, 0
10, 288000, Note_on_c, 8, 59, 96
10, 289530, Note_on_c, 8, 59, 0
10, 289920, Note_on_c, 8, 60, 96
10, 290400, Note_on_c, 8, 60, 0
10, 290400, Note_on_c, 8, 63, 96
10, 291360, Note_on_c, 8, 63, 0
10, 291360, Note_on_c, 8, 62, 96
10, 291840, Note_on_c, 8, 62, 0
10, 291840, Note_on_c, 8, 60, 96
10, 292220, Note_on_c, 8, 60, 0
10, 292320, Note_on_c, 8, 72, 96
10, 293280, Note_on_c, 8, 72, 0
10, 293280, Note_on_c, 8, 70, 96
10, 293660, Note_on_c, 8, 70, 0
10, 293760, Note_on_c, 8, 69, 96
10, 294240, Note_on_c, 8, 69, 0
10, 294240, Note_on_c, 8, 75, 96
10, 295200, Note_on_c, 8, 75, 0
10, 295200, Note_on_c, 8, 74, 96
10, 295580, Note_on_c, 8, 74, 0
10, 295680, Note_on_c, 8, 72, 96
10, 295800, Note_on_c, 8, 72, 0
10, 296160, Note_on_c, 8, 72, 96
10, 296280, Note_on_c, 8, 72, 0
10, 296640, Note_on_c, 8, 70, 96
10, 296760, Note_on_c, 8, 70, 0
10, 297120, Note_on_c, 8, 70, 96
10, 297240, Note_on_c, 8, 70, 0
10, 297600, Note_on_c, 8, 69, 96
10, 298320, Note_on_c, 8, 69, 0
10, 298320, Note_on_c, 8, 70, 96
10, 298560, Note_on_c, 8, 70, 0
10, 298560, Note_on_c, 8, 69, 96
10, 298800, Note_on_c, 8, 69, 0
10, 298800, Note_on_c, 8, 70, 96
10, 299040, Note_on_c, 8, 70, 0
10, 299040, Note_on_c, 8, 69, 96
10, 299280, Note_on_c, 8, 69, 0
10, 299280, Note_on_c, 8, 70, 96
10, 299520, Note_on_c, 8, 70, 0
10, 299520, Note_on_c, 8, 69, 96
10, 299900, Note_on_c, 8, 69, 0
10, 301440, Note_on_c, 8, 65, 96
10, 301800, Note_on_c, 8, 65, 0
10, 302880, Note_on_c, 8, 63, 96
10, 303000, Note_on_c, 8, 63, 0
10, 303360, Note_on_c, 8, 62, 96
10, 303480, Note_on_c, 8, 62, 0
10, 303840, Note_on_c, 8, 60, 96
10, 303960, Note_on_c, 8, 60, 0
10, 304320, Note_on_c, 8, 58, 96
10, 304440, Note_on_c, 8, 58, 0
10, 305280, Note_on_c, 8, 74, 64
10, 305660, Note_on_c, 8, 74, 0
10, 306240, Note_on_c, 8, 74, 64
10, 306620, Note_on_c, 8, 74, 0
10, 307200, Note_on_c, 8, 74, 64
10, 307580, Note_on_c, 8, 74, 0
10, 307680, Note_on_c, 8, 74, 64
10, 308060, Note_on_c, 8, 74, 0
10, 308160, Note_on_c, 8, 74, 64
10, 308540, Note_on_c, 8, 74, 0
10, 309120, Note_on_c, 8, 72, 96
10, 310270, Note_on_c, 8, 72, 0
10, 310560, Note_on_c, 8, 70, 96
10, 310680, Note_on_c, 8, 70, 0
10, 311040, Note_on_c, 8, 69, 96
10, 311160, Note_on_c, 8, 69, 0
10, 311520, Note_on_c, 8, 67, 96
10, 311640, Note_on_c, 8, 67, 0
10, 312000, Note_on_c, 8, 66, 96
10, 312120, Note_on_c, 8, 66, 0
10, 312960, Note_on_c, 8, 72, 64
10, 312960, Note_on_c, 8, 69, 64
10, 313340, Note_on_c, 8, 69, 0
10, 313340, Note_on_c, 8, 72, 0
10, 313920, Note_on_c, 8, 72, 64
10, 313920, Note_on_c, 8, 69, 64
10, 314300, Note_on_c, 8, 69, 0
10, 314300, Note_on_c, 8, 72, 0
10, 314880, Note_on_c, 8, 72, 64
10, 314880, Note_on_c, 8, 69, 64
10, 315260, Note_on_c, 8, 69, 0
10, 315260, Note_on_c, 8, 72, 0
10, 315360, Note_on_c, 8, 72, 64
10, 315360, Note_on_c, 8, 69, 64
10, 315740, Note_on_c, 8, 69, 0
10, 315740, Note_on_c, 8, 72, 0
10, 315840, Note_on_c, 8, 72, 64
10, 315840, Note_on_c, 8, 69, 64
10, 316220, Note_on_c, 8, 69, 0
10, 316220, Note_on_c, 8, 72, 0
10, 316800, Note_on_c, 8, 62, 96
10, 317950, Note_on_c, 8, 62, 0
10, 318240, Note_on_c, 8, 60, 96
10, 318360, Note_on_c, 8, 60, 0
10, 318720, Note_on_c, 8, 58, 96
10, 318840, Note_on_c, 8, 58, 0
10, 319200, Note_on_c, 8, 57, 96
10, 319320, Note_on_c, 8, 57, 0
10, 319680, Note_on_c, 8, 55, 96
10, 319800, Note_on_c, 8, 55, 0
10, 320640, Note_on_c, 8, 70, 64
10, 321020, Note_on_c, 8, 70, 0
10, 321600, Note_on_c, 8, 70, 64
10, 321980, Note_on_c, 8, 70, 0
10, 322560, Note_on_c, 8, 70, 64
10, 322940, Note_on_c, 8, 70, 0
10, 323040, Note_on_c, 8, 70, 64
10, 323420, Note_on_c, 8, 70, 0
10, 323520, Note_on_c, 8, 70, 64
10, 323900, Note_on_c, 8, 70, 0
10, 324480, Note_on_c, 8, 67, 64
10, 325630, Note_on_c, 8, 67, 0
10, 325920, Note_on_c, 8, 65, 96
10, 326040, Note_on_c, 8, 65, 0
10, 326400, Note_on_c, 8, 64, 96
10, 326520, Note_on_c, 8, 64, 0
10, 326880, Note_on_c, 8, 62, 96
10, 327000, Note_on_c, 8, 62, 0
10, 327360, Note_on_c, 8, 61, 96
10, 327480, Note_on_c, 8, 61, 0
10, 328320, Note_on_c, 8, 67, 64
10, 328700, Note_on_c, 8, 67, 0
10, 329280, Note_on_c, 8, 67, 64
10, 329660, Note_on_c, 8, 67, 0
10, 330240, Note_on_c, 8, 67, 64
10, 330620, Note_on_c, 8, 67, 0
10, 330720, Note_on_c, 8, 67, 64
10, 331100, Note_on_c, 8, 67, 0
10, 331200, Note_on_c, 8, 67, 64
10, 331580, Note_on_c, 8, 67, 0
10, 332160, Note_on_c, 8, 69, 96
10, 333310, Note_on_c, 8, 69, 0
10, 333600, Note_on_c, 8, 67, 96
10, 333720, Note_on_c, 8, 67, 0
10, 334080, Note_on_c, 8, 65, 96
10, 334200, Note_on_c, 8, 65, 0
10, 334560, Note_on_c, 8, 64, 96
10, 334680, Note_on_c, 8, 64, 0
10, 335040, Note_on_c, 8, 62, 96
10, 335160, Note_on_c, 8, 62, 0
10, 336000, Note_on_c, 8, 69, 64
10, 336000, Note_on_c, 8, 65, 64
10, 336380, Note_on_c, 8, 65, 0
10, 336380, Note_on_c, 8, 69, 0
10, 336960, Note_on_c, 8, 69, 64
10, 336960, Note_on_c, 8, 65, 64
10, 337340, Note_on_c, 8, 65, 0
10, 337340, Note_on_c, 8, 69, 0
10, 337920, Note_on_c, 8, 69, 64
10, 337920, Note_on_c, 8, 65, 64
10, 338300, Note_on_c, 8, 65, 0
10, 338300, Note_on_c, 8, 69, 0
10, 338400, Note_on_c, 8, 69, 64
10, 338400, Note_on_c, 8, 65, 64
10, 338780, Note_on_c, 8, 65, 0
10, 338780, Note_on_c, 8, 69, 0
10, 338880, Note_on_c, 8, 69, 64
10, 338880, Note_on_c, 8, 65, 64
10, 339260, Note_on_c, 8, 65, 0
10, 339260, Note_on_c, 8, 69, 0
10, 339840, Note_on_c, 8, 62, 96
10, 340990, Note_on_c, 8, 62, 0
10, 341280, Note_on_c, 8, 60, 96
10, 341400, Note_on_c, 8, 60, 0
10, 341760, Note_on_c, 8, 59, 96
10, 341880, Note_on_c, 8, 59, 0
10, 342240, Note_on_c, 8, 57, 96
10, 342360, Note_on_c, 8, 57, 0
10, 342720, Note_on_c, 8, 56, 96
10, 342840, Note_on_c, 8, 56, 0
10, 343680, Note_on_c, 8, 71, 64
10, 343680, Note_on_c, 8, 65, 64
10, 344060, Note_on_c, 8, 65, 0
10, 344060, Note_on_c, 8, 71, 0
10, 344640, Note_on_c, 8, 71, 64
10, 344640, Note_on_c, 8, 65, 64
10, 345020, Note_on_c, 8, 65, 0
10, 345020, Note_on_c, 8, 71, 0
10, 345600, Note_on_c, 8, 71, 64
10, 345840, Note_on_c, 8, 71, 0
10, 345840, Note_on_c, 8, 65, 64
10, 346030, Note_on_c, 8, 65, 0
10, 346080, Note_on_c, 8, 62, 64
10, 346140, Note_on_c, 8, 62, 0
10, 346320, Note_on_c, 8, 62, 64
10, 346380, Note_on_c, 8, 62, 0
10, 346560, Note_on_c, 8, 62, 64
10, 346620, Note_on_c, 8, 62, 0
10, 346800, Note_on_c, 8, 62, 64
10, 346860, Note_on_c, 8, 62, 0
10, 347040, Note_on_c, 8, 61, 64
10, 347100, Note_on_c, 8, 61, 0
10, 347280, Note_on_c, 8, 62, 64
10, 347340, Note_on_c, 8, 62, 0
10, 347520, Note_on_c, 8, 64, 64
10, 347760, Note_on_c, 8, 64, 0
10, 347760, Note_on_c, 8, 61, 64
10, 347950, Note_on_c, 8, 61, 0
10, 348000, Note_on_c, 8, 61, 64
10, 348060, Note_on_c, 8, 61, 0
10, 348240, Note_on_c, 8, 61, 64
10, 348300, Note_on_c, 8, 61, 0
10, 348480, Note_on_c, 8, 61, 64
10, 348540, Note_on_c, 8, 61, 0
10, 348720, Note_on_c, 8, 61, 64
10, 348780, Note_on_c, 8, 61, 0
10, 348960, Note_on_c, 8, 62, 64
10, 349020, Note_on_c, 8, 62, 0
10, 349200, Note_on_c, 8, 64, 64
10, 349260, Note_on_c, 8, 64, 0
10, 349440, Note_on_c, 8, 65, 64
10, 349680, Note_on_c, 8, 65, 0
10, 349680, Note_on_c, 8, 62, 64
10, 349870, Note_on_c, 8, 62, 0
10, 349920, Note_on_c, 8, 62, 64
10, 349980, Note_on_c, 8, 62, 0
10, 350160, Note_on_c, 8, 62, 64
10, 350220, Note_on_c, 8, 62, 0
10, 350400, Note_on_c, 8, 62, 64
10, 350460, Note_on_c, 8, 62, 0
10, 350640, Note_on_c, 8, 62, 64
10, 350700, Note_on_c, 8, 62, 0
10, 350880, Note_on_c, 8, 61, 64
10, 350940, Note_on_c, 8, 61, 0
10, 351120, Note_on_c, 8, 62, 64
10, 351180, Note_on_c, 8, 62, 0
10, 351360, Note_on_c, 8, 64, 64
10, 351600, Note_on_c, 8, 64, 0
10, 351600, Note_on_c, 8, 61, 64
10, 351790, Note_on_c, 8, 61, 0
10, 351840, Note_on_c, 8, 61, 64
10, 351900, Note_on_c, 8, 61, 0
10, 352080, Note_on_c, 8, 61, 64
10, 352140, Note_on_c, 8, 61, 0
10, 352320, Note_on_c, 8, 61, 64
10, 352380, Note_on_c, 8, 61, 0
10, 352560, Note_on_c, 8, 61, 64
10, 352620, Note_on_c, 8, 61, 0
10, 352800, Note_on_c, 8, 62, 64
10, 352860, Note_on_c, 8, 62, 0
10, 353040, Note_on_c, 8, 64, 64
10, 353100, Note_on_c, 8, 64, 0
10, 353280, Note_on_c, 8, 65, 64
10, 353520, Note_on_c, 8, 65, 0
10, 353520, Note_on_c, 8, 62, 64
10, 353710, Note_on_c, 8, 62, 0
10, 353760, Note_on_c, 8, 62, 64
10, 353820, Note_on_c, 8, 62, 0
10, 354000, Note_on_c, 8, 62, 64
10, 354060, Note_on_c, 8, 62, 0
10, 354240, Note_on_c, 8, 62, 64
10, 354300, Note_on_c, 8, 62, 0
10, 354480, Note_on_c, 8, 62, 64
10, 354540, Note_on_c, 8, 62, 0
10, 354720, Note_on_c, 8, 61, 64
10, 354780, Note_on_c, 8, 61, 0
10, 354960, Note_on_c, 8, 62, 64
10, 355020, Note_on_c, 8, 62, 0
10, 355200, Note_on_c, 8, 64, 96
10, 355390, Note_on_c, 8, 64, 0
10, 355440, Note_on_c, 8, 62, 64
10, 355630, Note_on_c, 8, 62, 0
10, 355680, Note_on_c, 8, 61, 64
10, 355870, Note_on_c, 8, 61, 0
10, 355920, Note_on_c, 8, 59, 64
10, 356110, Note_on_c, 8, 59, 0
10, 356160, Note_on_c, 8, 57, 64
10, 356350, Note_on_c, 8, 57, 0
10, 356400, Note_on_c, 8, 59, 64
10, 356590, Note_on_c, 8, 59, 0
10, 356640, Note_on_c, 8, 61, 64
10, 356830, Note_on_c, 8, 61, 0
10, 356880, Note_on_c, 8, 57, 64
10, 357070, Note_on_c, 8, 57, 0
10, 357120, Note_on_c, 8, 59, 96
10, 357310, Note_on_c, 8, 59, 0
10, 357360, Note_on_c, 8, 57, 64
10, 357550, Note_on_c, 8, 57, 0
10, 357600, Note_on_c, 8, 56, 64
10, 357790, Note_on_c, 8, 56, 0
10, 357840, Note_on_c, 8, 57, 64
10, 358030, Note_on_c, 8, 57, 0
10, 358080, Note_on_c, 8, 59, 64
10, 358270, Note_on_c, 8, 59, 0
10, 358320, Note_on_c, 8, 61, 64
10, 358510, Note_on_c, 8, 61, 0
10, 358560, Note_on_c, 8, 62, 64
10, 358750, Note_on_c, 8, 62, 0
10, 358800, Note_on_c, 8, 59, 64
10, 358990, Note_on_c, 8, 59, 0
10, 359040, Note_on_c, 8, 61, 96
10, 359230, Note_on_c, 8, 61, 0
10, 359280, Note_on_c, 8, 59, 64
10, 359470, Note_on_c, 8, 59, 0
10, 359520, Note_on_c, 8, 57, 64
10, 359710, Note_on_c, 8, 57, 0
10, 359760, Note_on_c, 8, 59, 64
10, 359950, Note_on_c, 8, 59, 0
10, 360000, Note_on_c, 8, 61, 64
10, 360190, Note_on_c, 8, 61, 0
10, 360240, Note_on_c, 8, 62, 64
10, 360430, Note_on_c, 8, 62, 0
10, 360480, Note_on_c, 8, 64, 64
10, 360670, Note_on_c, 8, 64, 0
10, 360720, Note_on_c, 8, 61, 64
10, 360910, Note_on_c, 8, 61, 0
10, 360960, Note_on_c, 8, 62, 96
10, 361150, Note_on_c, 8, 62, 0
10, 361200, Note_on_c, 8, 64, 64
10, 361390, Note_on_c, 8, 64, 0
10, 361440, Note_on_c, 8, 66, 64
10, 361630, Note_on_c, 8, 66, 0
10, 361680, Note_on_c, 8, 61, 64
10, 361870, Note_on_c, 8, 61, 0
10, 361920, Note_on_c, 8, 62, 64
10, 362110, Note_on_c, 8, 62, 0
10, 362160, Note_on_c, 8, 64, 64
10, 362350, Note_on_c, 8, 64, 0
10, 362400, Note_on_c, 8, 66, 64
10, 362590, Note_on_c, 8, 66, 0
10, 362640, Note_on_c, 8, 62, 64
10, 362830, Note_on_c, 8, 62, 0
10, 362880, Note_on_c, 8, 64, 96
10, 362880, Note_on_c, 8, 61, 96
10, 363640, Note_on_c, 8, 61, 0
10, 363640, Note_on_c, 8, 64, 0
10, 363840, Note_on_c, 8, 79, 96
10, 363840, Note_on_c, 8, 69, 96
10, 365560, Note_on_c, 8, 69, 0
10, 365560, Note_on_c, 8, 79, 0
10, 365760, Note_on_c, 8, 79, 96
10, 366910, Note_on_c, 8, 79, 0
10, 366960, Note_on_c, 8, 79, 64
10, 367150, Note_on_c, 8, 79, 0
10, 367200, Note_on_c, 8, 78, 64
10, 367390, Note_on_c, 8, 78, 0
10, 367440, Note_on_c, 8, 78, 64
10, 367630, Note_on_c, 8, 78, 0
10, 367680, Note_on_c, 8, 76, 64
10, 367870, Note_on_c, 8, 76, 0
10, 367920, Note_on_c, 8, 76, 64
10, 368110, Note_on_c, 8, 76, 0
10, 368160, Note_on_c, 8, 74, 64
10, 368350, Note_on_c, 8, 74, 0
10, 368400, Note_on_c, 8, 74, 64
10, 368590, Note_on_c, 8, 74, 0
10, 368640, Note_on_c, 8, 73, 64
10, 368830, Note_on_c, 8, 73, 0
10, 368880, Note_on_c, 8, 73, 64
10, 369070, Note_on_c, 8, 73, 0
10, 369120, Note_on_c, 8, 71, 64
10, 369310, Note_on_c, 8, 71, 0
10, 369360, Note_on_c, 8, 71, 64
10, 369550, Note_on_c, 8, 71, 0
10, 369600, Note_on_c, 8, 69, 64
10, 369790, Note_on_c, 8, 69, 0
10, 369840, Note_on_c, 8, 69, 64
10, 370030, Note_on_c, 8, 69, 0
10, 370080, Note_on_c, 8, 67, 64
10, 370270, Note_on_c, 8, 67, 0
10, 370320, Note_on_c, 8, 67, 64
10, 370510, Note_on_c, 8, 67, 0
10, 370560, Note_on_c, 8, 66, 64
10, 374010, Note_on_c, 8, 66, 0
10, 374400, Note_on_c, 8, 67, 64
10, 374880, Note_on_c, 8, 67, 0
10, 374880, Note_on_c, 8, 71, 64
10, 375840, Note_on_c, 8, 71, 0
10, 375840, Note_on_c, 8, 69, 64
10, 376320, Note_on_c, 8, 69, 0
10, 376320, Note_on_c, 8, 67, 64
10, 376700, Note_on_c, 8, 67, 0
10, 376800, Note_on_c, 8, 79, 64
10, 377760, Note_on_c, 8, 79, 0
10, 377760, Note_on_c, 8, 78, 64
10, 378140, Note_on_c, 8, 78, 0
10, 378240, Note_on_c, 8, 74, 64
10, 379770, Note_on_c, 8, 74, 0
10, 380160, Note_on_c, 8, 71, 64
10, 381120, Note_on_c, 8, 71, 0
10, 381120, Note_on_c, 8, 67, 64
10, 381880, Note_on_c, 8, 67, 0
10, 382080, Note_on_c, 8, 66, 64
10, 382460, Note_on_c, 8, 66, 0
10, 385920, Note_on_c, 8, 66, 64
10, 389370, Note_on_c, 8, 66, 0
10, 389760, Note_on_c, 8, 67, 64
10, 390240, Note_on_c, 8, 67, 0
10, 390240, Note_on_c, 8, 70, 64
10, 391200, Note_on_c, 8, 70, 0
10, 391200, Note_on_c, 8, 69, 64
10, 391680, Note_on_c, 8, 69, 0
10, 391680, Note_on_c, 8, 67, 64
10, 392060, Note_on_c, 8, 67, 0
10, 392160, Note_on_c, 8, 79, 64
10, 393120, Note_on_c, 8, 79, 0
10, 393120, Note_on_c, 8, 78, 64
10, 393500, Note_on_c, 8, 78, 0
10, 393600, Note_on_c, 8, 78, 64
10, 393840, Note_on_c, 8, 78, 0
10, 393840, Note_on_c, 8, 76, 64
10, 394030, Note_on_c, 8, 76, 0
10, 394080, Note_on_c, 8, 76, 64
10, 394270, Note_on_c, 8, 76, 0
10, 394320, Note_on_c, 8, 76, 64
10, 394510, Note_on_c, 8, 76, 0
10, 394560, Note_on_c, 8, 76, 64
10, 394800, Note_on_c, 8, 76, 0
10, 394800, Note_on_c, 8, 74, 64
10, 394990, Note_on_c, 8, 74, 0
10, 395040, Note_on_c, 8, 74, 64
10, 395230, Note_on_c, 8, 74, 0
10, 395280, Note_on_c, 8, 74, 64
10, 395470, Note_on_c, 8, 74, 0
10, 395520, Note_on_c, 8, 71, 64
10, 396480, Note_on_c, 8, 71, 0
10, 396480, Note_on_c, 8, 67, 64
10, 397240, Note_on_c, 8, 67, 0
10, 397440, Note_on_c, 8, 66, 64
10, 397820, Note_on_c, 8, 66, 0
10, 397920, Note_on_c, 8, 57, 64
10, 397980, Note_on_c, 8, 57, 0
10, 398160, Note_on_c, 8, 61, 64
10, 398220, Note_on_c, 8, 61, 0
10, 398400, Note_on_c, 8, 62, 64
10, 398460, Note_on_c, 8, 62, 0
10, 398640, Note_on_c, 8, 66, 64
10, 398700, Note_on_c, 8, 66, 0
10, 398880, Note_on_c, 8, 67, 64
10, 398940, Note_on_c, 8, 67, 0
10, 399120, Note_on_c, 8, 64, 64
10, 399180, Note_on_c, 8, 64, 0
10, 399360, Note_on_c, 8, 62, 64
10, 399420, Note_on_c, 8, 62, 0
10, 399600, Note_on_c, 8, 66, 64
10, 399660, Note_on_c, 8, 66, 0
10, 399840, Note_on_c, 8, 57, 64
10, 399900, Note_on_c, 8, 57, 0
10, 400080, Note_on_c, 8, 61, 64
10, 400140, Note_on_c, 8, 61, 0
10, 400320, Note_on_c, 8, 62, 64
10, 400380, Note_on_c, 8, 62, 0
10, 400560, Note_on_c, 8, 66, 64
10, 400620, Note_on_c, 8, 66, 0
10, 400800, Note_on_c, 8, 67, 64
10, 400860, Note_on_c, 8, 67, 0
10, 401040, Note_on_c, 8, 64, 64
10, 401100, Note_on_c, 8, 64, 0
10, 401280, Note_on_c, 8, 62, 64
10, 401340, Note_on_c, 8, 62, 0
10, 401520, Note_on_c, 8, 78, 96
10, 401580, Note_on_c, 8, 78, 0
10, 401760, Note_on_c, 8, 69, 96
10, 401820, Note_on_c, 8, 69, 0
10, 402000, Note_on_c, 8, 73, 96
10, 402060, Note_on_c, 8, 73, 0
10, 402240, Note_on_c, 8, 74, 96
10, 402300, Note_on_c, 8, 74, 0
10, 402480, Note_on_c, 8, 78, 96
10, 402540, Note_on_c, 8, 78, 0
10, 402720, Note_on_c, 8, 79, 96
10, 402780, Note_on_c, 8, 79, 0
10, 402960, Note_on_c, 8, 76, 96
10, 403020, Note_on_c, 8, 76, 0
10, 403200, Note_on_c, 8, 74, 96
10, 403260, Note_on_c, 8, 74, 0
10, 403440, Note_on_c, 8, 78, 96
10, 403500, Note_on_c, 8, 78, 0
10, 403680, Note_on_c, 8, 69, 96
10, 403740, Note_on_c, 8, 69, 0
10, 403920, Note_on_c, 8, 73, 96
10, 403980, Note_on_c, 8, 73, 0
10, 404160, Note_on_c, 8, 74, 96
10, 404220, Note_on_c, 8, 74, 0
10, 404400, Note_on_c, 8, 78, 96
10, 404460, Note_on_c, 8, 78, 0
10, 404640, Note_on_c, 8, 79, 96
10, 404700, Note_on_c, 8, 79, 0
10, 404880, Note_on_c, 8, 76, 96
10, 404940, Note_on_c, 8, 76, 0
10, 405120, Note_on_c, 8, 74, 96
10, 405360, Note_on_c, 8, 74, 0
10, 405360, Note_on_c, 8, 69, 96
10, 405550, Note_on_c, 8, 69, 0
10, 405600, Note_on_c, 8, 78, 96
10, 405660, Note_on_c, 8, 78, 0
10, 405840, Note_on_c, 8, 78, 96
10, 405900, Note_on_c, 8, 78, 0
10, 406080, Note_on_c, 8, 78, 96
10, 406320, Note_on_c, 8, 78, 0
10, 406320, Note_on_c, 8, 74, 96
10, 406510, Note_on_c, 8, 74, 0
10, 406560, Note_on_c, 8, 81, 96
10, 406620, Note_on_c, 8, 81, 0
10, 406800, Note_on_c, 8, 81, 96
10, 406860, Note_on_c, 8, 81, 0
10, 407040, Note_on_c, 8, 81, 96
10, 407280, Note_on_c, 8, 81, 0
10, 407280, Note_on_c, 8, 78, 96
10, 407470, Note_on_c, 8, 78, 0
10, 407520, Note_on_c, 8, 86, 96
10, 407580, Note_on_c, 8, 86, 0
10, 407760, Note_on_c, 8, 86, 96
10, 407820, Note_on_c, 8, 86, 0
10, 408000, Note_on_c, 8, 86, 96
10, 408190, Note_on_c, 8, 86, 0
10, 408240, Note_on_c, 8, 81, 96
10, 408430, Note_on_c, 8, 81, 0
10, 408480, Note_on_c, 8, 78, 96
10, 408670, Note_on_c, 8, 78, 0
10, 408720, Note_on_c, 8, 74, 96
10, 408910, Note_on_c, 8, 74, 0
10, 408960, Note_on_c, 8, 81, 96
10, 409150, Note_on_c, 8, 81, 0
10, 409200, Note_on_c, 8, 81, 96
10, 409390, Note_on_c, 8, 81, 0
10, 409440, Note_on_c, 8, 85, 96
10, 409630, Note_on_c, 8, 85, 0
10, 409680, Note_on_c, 8, 81, 96
10, 409870, Note_on_c, 8, 81, 0
10, 409920, Note_on_c, 8, 86, 96
10, 410110, Note_on_c, 8, 86, 0
10, 410160, Note_on_c, 8, 81, 96
10, 410350, Note_on_c, 8, 81, 0
10, 410400, Note_on_c, 8, 78, 96
10, 410590, Note_on_c, 8, 78, 0
10, 410640, Note_on_c, 8, 74, 96
10, 410830, Note_on_c, 8, 74, 0
10, 410880, Note_on_c, 8, 81, 96
10, 411070, Note_on_c, 8, 81, 0
10, 411120, Note_on_c, 8, 81, 96
10, 411310, Note_on_c, 8, 81, 0
10, 411360, Note_on_c, 8, 85, 96
10, 411550, Note_on_c, 8, 85, 0
10, 411600, Note_on_c, 8, 81, 96
10, 411790, Note_on_c, 8, 81, 0
10, 411840, Note_on_c, 8, 86, 96
10, 412030, Note_on_c, 8, 86, 0
10, 412080, Note_on_c, 8, 81, 96
10, 412270, Note_on_c, 8, 81, 0
10, 412320, Note_on_c, 8, 78, 96
10, 412510, Note_on_c, 8, 78, 0
10, 412560, Note_on_c, 8, 74, 96
10, 412750, Note_on_c, 8, 74, 0
10, 412800, Note_on_c, 8, 81, 96
10, 413180, Note_on_c, 8, 81, 0
10, 413280, Note_on_c, 8, 78, 96
10, 413280, Note_on_c, 8, 74, 96
10, 413660, Note_on_c, 8, 74, 0
10, 413660, Note_on_c, 8, 78, 0
10, 413760, Note_on_c, 8, 76, 96
10, 413760, Note_on_c, 8, 73, 96
10, 414140, Note_on_c, 8, 73, 0
10, 414140, Note_on_c, 8, 76, 0
10, 414240, Note_on_c, 8, 78, 96
10, 414240, Note_on_c, 8, 74, 96
10, 414620, Note_on_c, 8, 74, 0
10, 414620, Note_on_c, 8, 78, 0
10, 414720, Note_on_c, 8, 76, 96
10, 414720, Note_on_c, 8, 73, 96
10, 415100, Note_on_c, 8, 73, 0
10, 415100, Note_on_c, 8, 76, 0
10, 415200, Note_on_c, 8, 69, 96
10, 415390, Note_on_c, 8, 69, 0
10, 415440, Note_on_c, 8, 69, 96
10, 415630, Note_on_c, 8, 69, 0
10, 415680, Note_on_c, 8, 69, 96
10, 416060, Note_on_c, 8, 69, 0
10, 416640, Note_on_c, 8, 62, 96
10, 416640, Note_on_c, 8, 74, 96
10, 417400, Note_on_c, 8, 62, 0
10, 417790, Note_on_c, 8, 74, 0
10, 417840, Note_on_c, 8, 73, 64
10, 418030, Note_on_c, 8, 73, 0
10, 418080, Note_on_c, 8, 78, 64
10, 418270, Note_on_c, 8, 78, 0
10, 418320, Note_on_c, 8, 76, 64
10, 418510, Note_on_c, 8, 76, 0
10, 418560, Note_on_c, 8, 74, 64
10, 418750, Note_on_c, 8, 74, 0
10, 418800, Note_on_c, 8, 73, 64
10, 418990, Note_on_c, 8, 73, 0
10, 419040, Note_on_c, 8, 71, 64
10, 419230, Note_on_c, 8, 71, 0
10, 419280, Note_on_c, 8, 69, 64
10, 419470, Note_on_c, 8, 69, 0
10, 419520, Note_on_c, 8, 67, 64
10, 419710, Note_on_c, 8, 67, 0
10, 419760, Note_on_c, 8, 66, 64
10, 419950, Note_on_c, 8, 66, 0
10, 420000, Note_on_c, 8, 64, 64
10, 420190, Note_on_c, 8, 64, 0
10, 420240, Note_on_c, 8, 62, 64
10, 420430, Note_on_c, 8, 62, 0
10, 420480, Note_on_c, 8, 71, 96
10, 420480, Note_on_c, 8, 79, 96
10, 421240, Note_on_c, 8, 71, 0
10, 421630, Note_on_c, 8, 79, 0
10, 421680, Note_on_c, 8, 78, 64
10, 421870, Note_on_c, 8, 78, 0
10, 421920, Note_on_c, 8, 83, 64
10, 422110, Note_on_c, 8, 83, 0
10, 422160, Note_on_c, 8, 81, 64
10, 422350, Note_on_c, 8, 81, 0
10, 422400, Note_on_c, 8, 79, 64
10, 422590, Note_on_c, 8, 79, 0
10, 422640, Note_on_c, 8, 78, 64
10, 422830, Note_on_c, 8, 78, 0
10, 422880, Note_on_c, 8, 76, 64
10, 423070, Note_on_c, 8, 76, 0
10, 423120, Note_on_c, 8, 74, 64
10, 423310, Note_on_c, 8, 74, 0
10, 423360, Note_on_c, 8, 73, 64
10, 423550, Note_on_c, 8, 73, 0
10, 423600, Note_on_c, 8, 71, 64
10, 423790, Note_on_c, 8, 71, 0
10, 423840, Note_on_c, 8, 69, 64
10, 424030, Note_on_c, 8, 69, 0
10, 424080, Note_on_c, 8, 67, 64
10, 424270, Note_on_c, 8, 67, 0
10, 424320, Note_on_c, 8, 64, 96
10, 424320, Note_on_c, 8, 73, 96
10, 425080, Note_on_c, 8, 64, 0
10, 425470, Note_on_c, 8, 73, 0
10, 425520, Note_on_c, 8, 71, 64
10, 425710, Note_on_c, 8, 71, 0
10, 425760, Note_on_c, 8, 76, 64
10, 425950, Note_on_c, 8, 76, 0
10, 426000, Note_on_c, 8, 74, 64
10, 426190, Note_on_c, 8, 74, 0
10, 426240, Note_on_c, 8, 73, 64
10, 426430, Note_on_c, 8, 73, 0
10, 426480, Note_on_c, 8, 71, 64
10, 426670, Note_on_c, 8, 71, 0
10, 426720, Note_on_c, 8, 69, 64
10, 426910, Note_on_c, 8, 69, 0
10, 426960, Note_on_c, 8, 67, 64
10, 427150, Note_on_c, 8, 67, 0
10, 427200, Note_on_c, 8, 69, 64
10, 427390, Note_on_c, 8, 69, 0
10, 427440, Note_on_c, 8, 67, 64
10, 427630, Note_on_c, 8, 67, 0
10, 427680, Note_on_c, 8, 66, 64
10, 427870, Note_on_c, 8, 66, 0
10, 427920, Note_on_c, 8, 64, 64
10, 428110, Note_on_c, 8, 64, 0
10, 428160, Note_on_c, 8, 62, 64
10, 428350, Note_on_c, 8, 62, 0
10, 428400, Note_on_c, 8, 62, 64
10, 428590, Note_on_c, 8, 62, 0
10, 428640, Note_on_c, 8, 62, 64
10, 428830, Note_on_c, 8, 62, 0
10, 428880, Note_on_c, 8, 62, 64
10, 429070, Note_on_c, 8, 62, 0
10, 429120, Note_on_c, 8, 62, 64
10, 429310, Note_on_c, 8, 62, 0
10, 429360, Note_on_c, 8, 62, 64
10, 429550, Note_on_c, 8, 62, 0
10, 429600, Note_on_c, 8, 62, 64
10, 429790, Note_on_c, 8, 62, 0
10, 429840, Note_on_c, 8, 62, 64
10, 430030, Note_on_c, 8, 62, 0
10, 430080, Note_on_c, 8, 62, 64
10, 430270, Note_on_c, 8, 62, 0
10, 430320, Note_on_c, 8, 62, 64
10, 430510, Note_on_c, 8, 62, 0
10, 430560, Note_on_c, 8, 62, 64
10, 430750, Note_on_c, 8, 62, 0
10, 430800, Note_on_c, 8, 62, 64
10, 430990, Note_on_c, 8, 62, 0
10, 431040, Note_on_c, 8, 62, 64
10, 431230, Note_on_c, 8, 62, 0
10, 431280, Note_on_c, 8, 62, 64
10, 431470, Note_on_c, 8, 62, 0
10, 431520, Note_on_c, 8, 62, 64
10, 431710, Note_on_c, 8, 62, 0
10, 431760, Note_on_c, 8, 62, 64
10, 431950, Note_on_c, 8, 62, 0
10, 432000, Note_on_c, 8, 62, 64
10, 432190, Note_on_c, 8, 62, 0
10, 432240, Note_on_c, 8, 62, 64
10, 432430, Note_on_c, 8, 62, 0
10, 432480, Note_on_c, 8, 62, 64
10, 432670, Note_on_c, 8, 62, 0
10, 432720, Note_on_c, 8, 62, 64
10, 432910, Note_on_c, 8, 62, 0
10, 432960, Note_on_c, 8, 62, 64
10, 433150, Note_on_c, 8, 62, 0
10, 433200, Note_on_c, 8, 62, 64
10, 433390, Note_on_c, 8, 62, 0
10, 433440, Note_on_c, 8, 62, 64
10, 433630, Note_on_c, 8, 62, 0
10, 433680, Note_on_c, 8, 62, 64
10, 433870, Note_on_c, 8, 62, 0
10, 433920, Note_on_c, 8, 62, 64
10, 434110, Note_on_c, 8, 62, 0
10, 434160, Note_on_c, 8, 62, 64
10, 434350, Note_on_c, 8, 62, 0
10, 434400, Note_on_c, 8, 62, 64
10, 434590, Note_on_c, 8, 62, 0
10, 434640, Note_on_c, 8, 62, 64
10, 434830, Note_on_c, 8, 62, 0
10, 434880, Note_on_c, 8, 62, 64
10, 435070, Note_on_c, 8, 62, 0
10, 435120, Note_on_c, 8, 62, 64
10, 435310, Note_on_c, 8, 62, 0
10, 435360, Note_on_c, 8, 62, 64
10, 435550, Note_on_c, 8, 62, 0
10, 435600, Note_on_c, 8, 62, 64
10, 435790, Note_on_c, 8, 62, 0
10, 435840, Control_c, 8, 11, 84
10, 435840, Note_on_c, 8, 62, 96
10, 436030, Note_on_c, 8, 62, 0
10, 436080, Control_c, 8, 11, 84
10, 436080, Note_on_c, 8, 74, 96
10, 436200, Control_c, 8, 11, 88
10, 436270, Note_on_c, 8, 74, 0
10, 436320, Control_c, 8, 11, 91
10, 436320, Note_on_c, 8, 74, 96
10, 436440, Control_c, 8, 11, 93
10, 436510, Note_on_c, 8, 74, 0
10, 436560, Control_c, 8, 11, 96
10, 436560, Note_on_c, 8, 74, 96
10, 436680, Control_c, 8, 11, 100
10, 436750, Note_on_c, 8, 74, 0
10, 436800, Control_c, 8, 11, 103
10, 436800, Note_on_c, 8, 74, 96
10, 436920, Control_c, 8, 11, 105
10, 436990, Note_on_c, 8, 74, 0
10, 437040, Control_c, 8, 11, 109
10, 437040, Note_on_c, 8, 74, 96
10, 437160, Control_c, 8, 11, 112
10, 437230, Note_on_c, 8, 74, 0
10, 437280, Control_c, 8, 11, 115
10, 437280, Note_on_c, 8, 74, 96
10, 437400, Control_c, 8, 11, 117
10, 437470, Note_on_c, 8, 74, 0
10, 437520, Control_c, 8, 11, 121
10, 437520, Note_on_c, 8, 74, 96
10, 437640, Control_c, 8, 11, 124
10, 437710, Note_on_c, 8, 74, 0
10, 437760, Control_c, 8, 11, 127
10, 437760, Note_on_c, 8, 82, 96
10, 437760, Note_on_c, 8, 73, 96
10, 437950, Note_on_c, 8, 73, 0
10, 437950, Note_on_c, 8, 82, 0
10, 438000, Note_on_c, 8, 82, 96
10, 438000, Note_on_c, 8, 73, 96
10, 438190, Note_on_c, 8, 73, 0
10, 438190, Note_on_c, 8, 82, 0
10, 438240, Note_on_c, 8, 82, 96
10, 438240, Note_on_c, 8, 73, 96
10, 438430, Note_on_c, 8, 73, 0
10, 438430, Note_on_c, 8, 82, 0
10, 438480, Note_on_c, 8, 82, 96
10, 438480, Note_on_c, 8, 73, 96
10, 438670, Note_on_c, 8, 73, 0
10, 438670, Note_on_c, 8, 82, 0
10, 438720, Note_on_c, 8, 82, 96
10, 438720, Note_on_c, 8, 73, 96
10, 438910, Note_on_c, 8, 73, 0
10, 438910, Note_on_c, 8, 82, 0
10, 438960, Note_on_c, 8, 82, 96
10, 438960, Note_on_c, 8, 73, 96
10, 439150, Note_on_c, 8, 73, 0
10, 439150, Note_on_c, 8, 82, 0
10, 439200, Note_on_c, 8, 82, 96
10, 439200, Note_on_c, 8, 73, 96
10, 439390, Note_on_c, 8, 73, 0
10, 439390, Note_on_c, 8, 82, 0
10, 439440, Note_on_c, 8, 82, 96
10, 439440, Note_on_c, 8, 73, 96
10, 439630, Note_on_c, 8, 73, 0
10, 439630, Note_on_c, 8, 82, 0
10, 439680, Note_on_c, 8, 81, 96
10, 439680, Note_on_c, 8, 74, 96
10, 439870, Note_on_c, 8, 74, 0
10, 439870, Note_on_c, 8, 81, 0
10, 439920, Note_on_c, 8, 81, 96
10, 439920, Note_on_c, 8, 74, 96
10, 440110, Note_on_c, 8, 74, 0
10, 440110, Note_on_c, 8, 81, 0
10, 440160, Note_on_c, 8, 81, 96
10, 440160, Note_on_c, 8, 74, 96
10, 440350, Note_on_c, 8, 74, 0
10, 440350, Note_on_c, 8, 81, 0
10, 440400, Note_on_c, 8, 81, 96
10, 440400, Note_on_c, 8, 74, 96
10, 440590, Note_on_c, 8, 74, 0
10, 440590, Note_on_c, 8, 81, 0
10, 440640, Note_on_c, 8, 81, 96
10, 440640, Note_on_c, 8, 74, 96
10, 440830, Note_on_c, 8, 74, 0
10, 440830, Note_on_c, 8, 81, 0
10, 440880, Note_on_c, 8, 81, 96
10, 440880, Note_on_c, 8, 74, 96
10, 441070, Note_on_c, 8, 74, 0
10, 441070, Note_on_c, 8, 81, 0
10, 441120, Note_on_c, 8, 81, 96
10, 441120, Note_on_c, 8, 74, 96
10, 441310, Note_on_c, 8, 74, 0
10, 441310, Note_on_c, 8, 81, 0
10, 441360, Note_on_c, 8, 81, 96
10, 441360, Note_on_c, 8, 74, 96
10, 441550, Note_on_c, 8, 74, 0
10, 441550, Note_on_c, 8, 81, 0
10, 441600, Note_on_c, 8, 82, 96
10, 441600, Note_on_c, 8, 73, 96
10, 441790, Note_on_c, 8, 73, 0
10, 441790, Note_on_c, 8, 82, 0
10, 441840, Note_on_c, 8, 82, 96
10, 441840, Note_on_c, 8, 73, 96
10, 442030, Note_on_c, 8, 73, 0
10, 442030, Note_on_c, 8, 82, 0
10, 442080, Note_on_c, 8, 82, 96
10, 442080, Note_on_c, 8, 73, 96
10, 442270, Note_on_c, 8, 73, 0
10, 442270, Note_on_c, 8, 82, 0
10, 442320, Note_on_c, 8, 82, 96
10, 442320, Note_on_c, 8, 73, 96
10, 442510, Note_on_c, 8, 73, 0
10, 442510, Note_on_c, 8, 82, 0
10, 442560, Note_on_c, 8, 82, 96
10, 442560, Note_on_c, 8, 73, 96
10, 442750, Note_on_c, 8, 73, 0
10, 442750, Note_on_c, 8, 82, 0
10, 442800, Note_on_c, 8, 82, 96
10, 442800, Note_on_c, 8, 73, 96
10, 442990, Note_on_c, 8, 73, 0
10, 442990, Note_on_c, 8, 82, 0
10, 443040, Note_on_c, 8, 82, 96
10, 443040, Note_on_c, 8, 73, 96
10, 443230, Note_on_c, 8, 73, 0
10, 443230, Note_on_c, 8, 82, 0
10, 443280, Note_on_c, 8, 82, 96
10, 443280, Note_on_c, 8, 73, 96
10, 443470, Note_on_c, 8, 73, 0
10, 443470, Note_on_c, 8, 82, 0
10, 443520, Note_on_c, 8, 81, 96
10, 443520, Note_on_c, 8, 74, 96
10, 443710, Note_on_c, 8, 74, 0
10, 443710, Note_on_c, 8, 81, 0
10, 443760, Note_on_c, 8, 81, 96
10, 443760, Note_on_c, 8, 74, 96
10, 443950, Note_on_c, 8, 74, 0
10, 443950, Note_on_c, 8, 81, 0
10, 444000, Note_on_c, 8, 81, 96
10, 444000, Note_on_c, 8, 74, 96
10, 444190, Note_on_c, 8, 74, 0
10, 444190, Note_on_c, 8, 81, 0
10, 444240, Note_on_c, 8, 81, 96
10, 444240, Note_on_c, 8, 74, 96
10, 444430, Note_on_c, 8, 74, 0
10, 444430, Note_on_c, 8, 81, 0
10, 444480, Note_on_c, 8, 81, 96
10, 444480, Note_on_c, 8, 74, 96
10, 444670, Note_on_c, 8, 74, 0
10, 444670, Note_on_c, 8, 81, 0
10, 444720, Note_on_c, 8, 81, 96
10, 444720, Note_on_c, 8, 74, 96
10, 444910, Note_on_c, 8, 74, 0
10, 444910, Note_on_c, 8, 81, 0
10, 444960, Note_on_c, 8, 81, 96
10, 444960, Note_on_c, 8, 74, 96
10, 445150, Note_on_c, 8, 74, 0
10, 445150, Note_on_c, 8, 81, 0
10, 445200, Note_on_c, 8, 81, 96
10, 445200, Note_on_c, 8, 74, 96
10, 445390, Note_on_c, 8, 74, 0
10, 445390, Note_on_c, 8, 81, 0
10, 445440, Note_on_c, 8, 82, 96
10, 445440, Note_on_c, 8, 73, 96
10, 445630, Note_on_c, 8, 73, 0
10, 445630, Note_on_c, 8, 82, 0
10, 445680, Note_on_c, 8, 82, 96
10, 445680, Note_on_c, 8, 73, 96
10, 445870, Note_on_c, 8, 73, 0
10, 445870, Note_on_c, 8, 82, 0
10, 445920, Note_on_c, 8, 82, 96
10, 445920, Note_on_c, 8, 73, 96
10, 446110, Note_on_c, 8, 73, 0
10, 446110, Note_on_c, 8, 82, 0
10, 446160, Note_on_c, 8, 82, 96
10, 446160, Note_on_c, 8, 73, 96
10, 446350, Note_on_c, 8, 73, 0
10, 446350, Note_on_c, 8, 82, 0
10, 446400, Note_on_c, 8, 82, 96
10, 446400, Note_on_c, 8, 73, 96
10, 446590, Note_on_c, 8, 73, 0
10, 446590, Note_on_c, 8, 82, 0
10, 446640, Note_on_c, 8, 82, 96
10, 446640, Note_on_c, 8, 73, 96
10, 446830, Note_on_c, 8, 73, 0
10, 446830, Note_on_c, 8, 82, 0
10, 446880, Note_on_c, 8, 82, 96
10, 446880, Note_on_c, 8, 73, 96
10, 447070, Note_on_c, 8, 73, 0
10, 447070, Note_on_c, 8, 82, 0
10, 447120, Note_on_c, 8, 82, 96
10, 447120, Note_on_c, 8, 73, 96
10, 447310, Note_on_c, 8, 73, 0
10, 447310, Note_on_c, 8, 82, 0
10, 447360, Note_on_c, 8, 83, 96
10, 447360, Note_on_c, 8, 74, 96
10, 447550, Note_on_c, 8, 74, 0
10, 447550, Note_on_c, 8, 83, 0
10, 447600, Note_on_c, 8, 83, 96
10, 447600, Note_on_c, 8, 74, 96
10, 447790, Note_on_c, 8, 74, 0
10, 447790, Note_on_c, 8, 83, 0
10, 447840, Note_on_c, 8, 83, 96
10, 447840, Note_on_c, 8, 74, 96
10, 448030, Note_on_c, 8, 74, 0
10, 448030, Note_on_c, 8, 83, 0
10, 448080, Note_on_c, 8, 83, 96
10, 448080, Note_on_c, 8, 74, 96
10, 448270, Note_on_c, 8, 74, 0
10, 448270, Note_on_c, 8, 83, 0
10, 448320, Note_on_c, 8, 77, 96
10, 448510, Note_on_c, 8, 77, 0
10, 448560, Note_on_c, 8, 77, 96
10, 448750, Note_on_c, 8, 77, 0
10, 448800, Note_on_c, 8, 77, 96
10, 448990, Note_on_c, 8, 77, 0
10, 449040, Note_on_c, 8, 77, 96
10, 449230, Note_on_c, 8, 77, 0
10, 449280, Note_on_c, 8, 76, 96
10, 449470, Note_on_c, 8, 76, 0
10, 449520, Note_on_c, 8, 73, 96
10, 449710, Note_on_c, 8, 73, 0
10, 449760, Note_on_c, 8, 77, 96
10, 449950, Note_on_c, 8, 77, 0
10, 450000, Note_on_c, 8, 74, 96
10, 450190, Note_on_c, 8, 74, 0
10, 450240, Note_on_c, 8, 76, 96
10, 450430, Note_on_c, 8, 76, 0
10, 450480, Note_on_c, 8, 73, 96
10, 450670, Note_on_c, 8, 73, 0
10, 450720, Note_on_c, 8, 77, 96
10, 450910, Note_on_c, 8, 77, 0
10, 450960, Note_on_c, 8, 74, 96
10, 451150, Note_on_c, 8, 74, 0
10, 451200, Note_on_c, 8, 76, 96
10, 451390, Note_on_c, 8, 76, 0
10, 451440, Note_on_c, 8, 73, 96
10, 451630, Note_on_c, 8, 73, 0
10, 451680, Note_on_c, 8, 77, 96
10, 451870, Note_on_c, 8, 77, 0
10, 451920, Note_on_c, 8, 74, 96
10, 452110, Note_on_c, 8, 74, 0
10, 452160, Note_on_c, 8, 76, 96
10, 452350, Note_on_c, 8, 76, 0
10, 452400, Note_on_c, 8, 73, 96
10, 452590, Note_on_c, 8, 73, 0
10, 452640, Note_on_c, 8, 77, 96
10, 452830, Note_on_c, 8, 77, 0
10, 452880, Note_on_c, 8, 74, 96
10, 453070, Note_on_c, 8, 74, 0
10, 453120, Note_on_c, 8, 73, 96
10, 453500, Note_on_c, 8, 73, 0
10, 453600, Note_on_c, 8, 81, 96
10, 453600, Note_on_c, 8, 73, 96
10, 453600, Note_on_c, 8, 64, 96
10, 453980, Note_on_c, 8, 64, 0
10, 453980, Note_on_c, 8, 73, 0
10, 453980, Note_on_c, 8, 81, 0
10, 454080, Note_on_c, 8, 57, 96
10, 454460, Note_on_c, 8, 57, 0
10, 454560, Note_on_c, 8, 57, 96
10, 454940, Note_on_c, 8, 57, 0
10, 455040, Note_on_c, 8, 57, 96
10, 455800, Note_on_c, 8, 57, 0
10, 456960, Note_on_c, 8, 67, 127
10, 458110, Note_on_c, 8, 67, 0
10, 458400, Note_on_c, 8, 66, 96
10, 458520, Note_on_c, 8, 66, 0
10, 458880, Note_on_c, 8, 64, 96
10, 459000, Note_on_c, 8, 64, 0
10, 459360, Note_on_c, 8, 62, 96
10, 459480, Note_on_c, 8, 62, 0
10, 459840, Note_on_c, 8, 61, 96
10, 459960, Note_on_c, 8, 61, 0
10, 460800, Note_on_c, 8, 79, 64
10, 460800, Note_on_c, 8, 76, 64
10, 461180, Note_on_c, 8, 76, 0
10, 461180, Note_on_c, 8, 79, 0
10, 461760, Note_on_c, 8, 79, 64
10, 461760, Note_on_c, 8, 76, 64
10, 462140, Note_on_c, 8, 76, 0
10, 462140, Note_on_c, 8, 79, 0
10, 462720, Note_on_c, 8, 78, 64
10, 462720, Note_on_c, 8, 74, 64
10, 463100, Note_on_c, 8, 74, 0
10, 463100, Note_on_c, 8, 78, 0
10, 463200, Note_on_c, 8, 78, 64
10, 463200, Note_on_c, 8, 74, 64
10, 463580, Note_on_c, 8, 74, 0
10, 463580, Note_on_c, 8, 78, 0
10, 463680, Note_on_c, 8, 78, 64
10, 463680, Note_on_c, 8, 74, 64
10, 464060, Note_on_c, 8, 74, 0
10, 464060, Note_on_c, 8, 78, 0
10, 464640, Note_on_c, 8, 67, 127
10, 465790, Note_on_c, 8, 67, 0
10, 466080, Note_on_c, 8, 66, 64
10, 466200, Note_on_c, 8, 66, 0
10, 466560, Note_on_c, 8, 64, 64
10, 466680, Note_on_c, 8, 64, 0
10, 467040, Note_on_c, 8, 62, 64
10, 467160, Note_on_c, 8, 62, 0
10, 467520, Note_on_c, 8, 61, 64
10, 467640, Note_on_c, 8, 61, 0
10, 468480, Note_on_c, 8, 79, 64
10, 468480, Note_on_c, 8, 76, 64
10, 468860, Note_on_c, 8, 76, 0
10, 468860, Note_on_c, 8, 79, 0
10, 469440, Note_on_c, 8, 79, 64
10, 469440, Note_on_c, 8, 76, 64
10, 469820, Note_on_c, 8, 76, 0
10, 469820, Note_on_c, 8, 79, 0
10, 470400, Note_on_c, 8, 78, 64
10, 470400, Note_on_c, 8, 74, 64
10, 470780, Note_on_c, 8, 74, 0
10, 470780, Note_on_c, 8, 78, 0
10, 470880, Note_on_c, 8, 78, 64
10, 470880, Note_on_c, 8, 74, 64
10, 471260, Note_on_c, 8, 74, 0
10, 471260, Note_on_c, 8, 78, 0
10, 471360, Note_on_c, 8, 78, 64
10, 471360, Note_on_c, 8, 74, 64
10, 471740, Note_on_c, 8, 74, 0
10, 471740, Note_on_c, 8, 78, 0
10, 472320, Note_on_c, 8, 67, 64
10, 473470, Note_on_c, 8, 67, 0
10, 473760, Note_on_c, 8, 66, 96
10, 473880, Note_on_c, 8, 66, 0
10, 474240, Note_on_c, 8, 64, 64
10, 474360, Note_on_c, 8, 64, 0
10, 474720, Note_on_c, 8, 62, 64
10, 474840, Note_on_c, 8, 62, 0
10, 475200, Note_on_c, 8, 61, 64
10, 475320, Note_on_c, 8, 61, 0
10, 476160, Note_on_c, 8, 67, 96
10, 477310, Note_on_c, 8, 67, 0
10, 477600, Note_on_c, 8, 65, 96
10, 477720, Note_on_c, 8, 65, 0
10, 478080, Note_on_c, 8, 64, 64
10, 478200, Note_on_c, 8, 64, 0
10, 478560, Note_on_c, 8, 62, 64
10, 478680, Note_on_c, 8, 62, 0
10, 479040, Note_on_c, 8, 61, 64
10, 479160, Note_on_c, 8, 61, 0
10, 480000, Note_on_c, 8, 67, 96
10, 481150, Note_on_c, 8, 67, 0
10, 481440, Note_on_c, 8, 65, 96
10, 481560, Note_on_c, 8, 65, 0
10, 481920, Note_on_c, 8, 64, 64
10, 482040, Note_on_c, 8, 64, 0
10, 482400, Note_on_c, 8, 62, 64
10, 482520, Note_on_c, 8, 62, 0
10, 482880, Note_on_c, 8, 60, 64
10, 483000, Note_on_c, 8, 60, 0
10, 483840, Note_on_c, 8, 55, 64
10, 484080, Note_on_c, 8, 55, 0
10, 484080, Note_on_c, 8, 58, 64
10, 484320, Note_on_c, 8, 58, 0
10, 484320, Note_on_c, 8, 55, 64
10, 484560, Note_on_c, 8, 55, 0
10, 484560, Note_on_c, 8, 58, 64
10, 484800, Note_on_c, 8, 58, 0
10, 484800, Note_on_c, 8, 55, 64
10, 485040, Note_on_c, 8, 55, 0
10, 485040, Note_on_c, 8, 58, 64
10, 485280, Note_on_c, 8, 58, 0
10, 485280, Note_on_c, 8, 55, 64
10, 485520, Note_on_c, 8, 55, 0
10, 485520, Note_on_c, 8, 58, 64
10, 485710, Note_on_c, 8, 58, 0
10, 485760, Note_on_c, 8, 57, 64
10, 486000, Note_on_c, 8, 57, 0
10, 486000, Note_on_c, 8, 60, 64
10, 486240, Note_on_c, 8, 60, 0
10, 486240, Note_on_c, 8, 57, 64
10, 486480, Note_on_c, 8, 57, 0
10, 486480, Note_on_c, 8, 60, 64
10, 486720, Note_on_c, 8, 60, 0
10, 486720, Note_on_c, 8, 57, 64
10, 486960, Note_on_c, 8, 57, 0
10, 486960, Note_on_c, 8, 60, 64
10, 487200, Note_on_c, 8, 60, 0
10, 487200, Note_on_c, 8, 57, 64
10, 487440, Note_on_c, 8, 57, 0
10, 487440, Note_on_c, 8, 60, 64
10, 487630, Note_on_c, 8, 60, 0
10, 487680, Note_on_c, 8, 55, 64
10, 487920, Note_on_c, 8, 55, 0
10, 487920, Note_on_c, 8, 58, 64
10, 488160, Note_on_c, 8, 58, 0
10, 488160, Note_on_c, 8, 55, 64
10, 488400, Note_on_c, 8, 55, 0
10, 488400, Note_on_c, 8, 58, 64
10, 488640, Note_on_c, 8, 58, 0
10, 488640, Note_on_c, 8, 55, 64
10, 488880, Note_on_c, 8, 55, 0
10, 488880, Note_on_c, 8, 58, 64
10, 489120, Note_on_c, 8, 58, 0
10, 489120, Note_on_c, 8, 55, 64
10, 489360, Note_on_c, 8, 55, 0
10, 489360, Note_on_c, 8, 58, 64
10, 489550, Note_on_c, 8, 58, 0
10, 489600, Note_on_c, 8, 57, 64
10, 489840, Note_on_c, 8, 57, 0
10, 489840, Note_on_c, 8, 60, 64
10, 490080, Note_on_c, 8, 60, 0
10, 490080, Note_on_c, 8, 57, 64
10, 490320, Note_on_c, 8, 57, 0
10, 490320, Note_on_c, 8, 60, 64
10, 490560, Note_on_c, 8, 60, 0
10, 490560, Note_on_c, 8, 57, 64
10, 490800, Note_on_c, 8, 57, 0
10, 490800, Note_on_c, 8, 60, 64
10, 491040, Note_on_c, 8, 60, 0
10, 491040, Note_on_c, 8, 57, 64
10, 491280, Note_on_c, 8, 57, 0
10, 491280, Note_on_c, 8, 60, 64
10, 491470, Note_on_c, 8, 60, 0
10, 491520, Note_on_c, 8, 64, 64
10, 491710, Note_on_c, 8, 64, 0
10, 491760, Note_on_c, 8, 63, 64
10, 491950, Note_on_c, 8, 63, 0
10, 492000, Note_on_c, 8, 64, 64
10, 492190, Note_on_c, 8, 64, 0
10, 492240, Note_on_c, 8, 63, 64
10, 492430, Note_on_c, 8, 63, 0
10, 492480, Note_on_c, 8, 64, 64
10, 492670, Note_on_c, 8, 64, 0
10, 492720, Note_on_c, 8, 67, 64
10, 492910, Note_on_c, 8, 67, 0
10, 492960, Note_on_c, 8, 65, 64
10, 493150, Note_on_c, 8, 65, 0
10, 493200, Note_on_c, 8, 64, 64
10, 493390, Note_on_c, 8, 64, 0
10, 493440, Note_on_c, 8, 62, 64
10, 493630, Note_on_c, 8, 62, 0
10, 493680, Note_on_c, 8, 61, 64
10, 493870, Note_on_c, 8, 61, 0
10, 493920, Note_on_c, 8, 62, 64
10, 494110, Note_on_c, 8, 62, 0
10, 494160, Note_on_c, 8, 61, 64
10, 494350, Note_on_c, 8, 61, 0
10, 494400, Note_on_c, 8, 62, 64
10, 494590, Note_on_c, 8, 62, 0
10, 494640, Note_on_c, 8, 61, 64
10, 494830, Note_on_c, 8, 61, 0
10, 494880, Note_on_c, 8, 62, 64
10, 495070, Note_on_c, 8, 62, 0
10, 495120, Note_on_c, 8, 61, 64
10, 495310, Note_on_c, 8, 61, 0
10, 495360, Note_on_c, 8, 62, 64
10, 495550, Note_on_c, 8, 62, 0
10, 495600, Note_on_c, 8, 62, 64
10, 495790, Note_on_c, 8, 62, 0
10, 495840, Note_on_c, 8, 62, 64
10, 496030, Note_on_c, 8, 62, 0
10, 496080, Note_on_c, 8, 62, 64
10, 496270, Note_on_c, 8, 62, 0
10, 496320, Note_on_c, 8, 65, 64
10, 496510, Note_on_c, 8, 65, 0
10, 496560, Note_on_c, 8, 65, 64
10, 496750, Note_on_c, 8, 65, 0
10, 496800, Note_on_c, 8, 62, 64
10, 496990, Note_on_c, 8, 62, 0
10, 497040, Note_on_c, 8, 62, 64
10, 497230, Note_on_c, 8, 62, 0
10, 497280, Note_on_c, 8, 61, 64
10, 497470, Note_on_c, 8, 61, 0
10, 497520, Note_on_c, 8, 61, 64
10, 497710, Note_on_c, 8, 61, 0
10, 497760, Note_on_c, 8, 61, 64
10, 497950, Note_on_c, 8, 61, 0
10, 498000, Note_on_c, 8, 61, 64
10, 498190, Note_on_c, 8, 61, 0
10, 498240, Note_on_c, 8, 64, 64
10, 498430, Note_on_c, 8, 64, 0
10, 498480, Note_on_c, 8, 64, 64
10, 498670, Note_on_c, 8, 64, 0
10, 498720, Note_on_c, 8, 61, 64
10, 498910, Note_on_c, 8, 61, 0
10, 498960, Note_on_c, 8, 61, 64
10, 499150, Note_on_c, 8, 61, 0
10, 499200, Note_on_c, 8, 74, 64
10, 499200, Note_on_c, 8, 66, 64
10, 499390, Note_on_c, 8, 66, 0
10, 499390, Note_on_c, 8, 74, 0
10, 499440, Note_on_c, 8, 74, 64
10, 499440, Note_on_c, 8, 66, 64
10, 499630, Note_on_c, 8, 66, 0
10, 499630, Note_on_c, 8, 74, 0
10, 499680, Note_on_c, 8, 74, 64
10, 499680, Note_on_c, 8, 66, 64
10, 499870, Note_on_c, 8, 66, 0
10, 499870, Note_on_c, 8, 74, 0
10, 499920, Note_on_c, 8, 74, 64
10, 499920, Note_on_c, 8, 66, 64
10, 500110, Note_on_c, 8, 66, 0
10, 500110, Note_on_c, 8, 74, 0
10, 500160, Note_on_c, 8, 74, 64
10, 500160, Note_on_c, 8, 66, 64
10, 500350, Note_on_c, 8, 66, 0
10, 500350, Note_on_c, 8, 74, 0
10, 500400, Note_on_c, 8, 74, 64
10, 500400, Note_on_c, 8, 66, 64
10, 500590, Note_on_c, 8, 66, 0
10, 500590, Note_on_c, 8, 74, 0
10, 500640, Note_on_c, 8, 74, 64
10, 500640, Note_on_c, 8, 66, 64
10, 500830, Note_on_c, 8, 66, 0
10, 500830, Note_on_c, 8, 74, 0
10, 500880, Note_on_c, 8, 74, 64
10, 500880, Note_on_c, 8, 66, 64
10, 501070, Note_on_c, 8, 66, 0
10, 501070, Note_on_c, 8, 74, 0
10, 501120, Note_on_c, 8, 74, 64
10, 501120, Note_on_c, 8, 66, 64
10, 501310, Note_on_c, 8, 66, 0
10, 501310, Note_on_c, 8, 74, 0
10, 501360, Note_on_c, 8, 74, 64
10, 501360, Note_on_c, 8, 66, 64
10, 501550, Note_on_c, 8, 66, 0
10, 501550, Note_on_c, 8, 74, 0
10, 501600, Note_on_c, 8, 74, 64
10, 501600, Note_on_c, 8, 66, 64
10, 501790, Note_on_c, 8, 66, 0
10, 501790, Note_on_c, 8, 74, 0
10, 501840, Note_on_c, 8, 74, 64
10, 501840, Note_on_c, 8, 66, 64
10, 502030, Note_on_c, 8, 66, 0
10, 502030, Note_on_c, 8, 74, 0
10, 502080, Note_on_c, 8, 74, 64
10, 502080, Note_on_c, 8, 66, 64
10, 502270, Note_on_c, 8, 66, 0
10, 502270, Note_on_c, 8, 74, 0
10, 502320, Note_on_c, 8, 74, 64
10, 502320, Note_on_c, 8, 66, 64
10, 502510, Note_on_c, 8, 66, 0
10, 502510, Note_on_c, 8, 74, 0
10, 502560, Note_on_c, 8, 74, 64
10, 502560, Note_on_c, 8, 66, 64
10, 502750, Note_on_c, 8, 66, 0
10, 502750, Note_on_c, 8, 74, 0
10, 502800, Note_on_c, 8, 74, 64
10, 502800, Note_on_c, 8, 66, 64
10, 502990, Note_on_c, 8, 66, 0
10, 502990, Note_on_c, 8, 74, 0
10, 503040, Note_on_c, 8, 76, 64
10, 503040, Note_on_c, 8, 74, 64
10, 503230, Note_on_c, 8, 74, 0
10, 503230, Note_on_c, 8, 76, 0
10, 503280, Note_on_c, 8, 76, 64
10, 503280, Note_on_c, 8, 74, 64
10, 503470, Note_on_c, 8, 74, 0
10, 503470, Note_on_c, 8, 76, 0
10, 503520, Note_on_c, 8, 76, 64
10, 503520, Note_on_c, 8, 74, 64
10, 503710, Note_on_c, 8, 74, 0
10, 503710, Note_on_c, 8, 76, 0
10, 503760, Note_on_c, 8, 76, 64
10, 503760, Note_on_c, 8, 74, 64
10, 503950, Note_on_c, 8, 74, 0
10, 503950, Note_on_c, 8, 76, 0
10, 504000, Note_on_c, 8, 76, 64
10, 504000, Note_on_c, 8, 74, 64
10, 504190, Note_on_c, 8, 74, 0
10, 504190, Note_on_c, 8, 76, 0
10, 504240, Note_on_c, 8, 76, 64
10, 504240, Note_on_c, 8, 74, 64
10, 504430, Note_on_c, 8, 74, 0
10, 504430, Note_on_c, 8, 76, 0
10, 504480, Note_on_c, 8, 76, 64
10, 504480, Note_on_c, 8, 74, 64
10, 504670, Note_on_c, 8, 74, 0
10, 504670, Note_on_c, 8, 76, 0
10, 504720, Note_on_c, 8, 76, 64
10, 504720, Note_on_c, 8, 74, 64
10, 504910, Note_on_c, 8, 74, 0
10, 504910, Note_on_c, 8, 76, 0
10, 504960, Note_on_c, 8, 76, 64
10, 504960, Note_on_c, 8, 74, 64
10, 505150, Note_on_c, 8, 74, 0
10, 505150, Note_on_c, 8, 76, 0
10, 505200, Note_on_c, 8, 76, 64
10, 505200, Note_on_c, 8, 74, 64
10, 505390, Note_on_c, 8, 74, 0
10, 505390, Note_on_c, 8, 76, 0
10, 505440, Note_on_c, 8, 76, 64
10, 505440, Note_on_c, 8, 74, 64
10, 505630, Note_on_c, 8, 74, 0
10, 505630, Note_on_c, 8, 76, 0
10, 505680, Note_on_c, 8, 76, 64
10, 505680, Note_on_c, 8, 74, 64
10, 505870, Note_on_c, 8, 74, 0
10, 505870, Note_on_c, 8, 76, 0
10, 505920, Note_on_c, 8, 76, 64
10, 505920, Note_on_c, 8, 74, 64
10, 506110, Note_on_c, 8, 74, 0
10, 506110, Note_on_c, 8, 76, 0
10, 506160, Note_on_c, 8, 76, 64
10, 506160, Note_on_c, 8, 74, 64
10, 506350, Note_on_c, 8, 74, 0
10, 506350, Note_on_c, 8, 76, 0
10, 506400, Note_on_c, 8, 76, 64
10, 506400, Note_on_c, 8, 74, 64
10, 506590, Note_on_c, 8, 74, 0
10, 506590, Note_on_c, 8, 76, 0
10, 506640, Note_on_c, 8, 76, 64
10, 506640, Note_on_c, 8, 74, 64
10, 506830, Note_on_c, 8, 74, 0
10, 506830, Note_on_c, 8, 76, 0
10, 506880, Note_on_c, 8, 78, 64
10, 506880, Note_on_c, 8, 74, 64
10, 507260, Note_on_c, 8, 74, 0
10, 507260, Note_on_c, 8, 78, 0
10, 507360, Note_on_c, 8, 74, 64
10, 507550, Note_on_c, 8, 74, 0
10, 507600, Note_on_c, 8, 74, 64
10, 507790, Note_on_c, 8, 74, 0
10, 507840, Note_on_c, 8, 74, 64
10, 509180, Note_on_c, 8, 74, 0
10, 509280, Note_on_c, 8, 76, 64
10, 509470, Note_on_c, 8, 76, 0
10, 509520, Note_on_c, 8, 78, 64
10, 509710, Note_on_c, 8, 78, 0
10, 509760, Note_on_c, 8, 78, 64
10, 510000, Note_on_c, 8, 78, 0
10, 510000, Note_on_c, 8, 76, 64
10, 510240, Note_on_c, 8, 76, 0
10, 510240, Note_on_c, 8, 74, 64
10, 510300, Note_on_c, 8, 74, 0
10, 510480, Note_on_c, 8, 73, 64
10, 510540, Note_on_c, 8, 73, 0
10, 510720, Note_on_c, 8, 74, 64
10, 510720, Note_on_c, 8, 66, 64
10, 510910, Note_on_c, 8, 66, 0
10, 510910, Note_on_c, 8, 74, 0
10, 510960, Note_on_c, 8, 74, 64
10, 510960, Note_on_c, 8, 66, 64
10, 511150, Note_on_c, 8, 66, 0
10, 511150, Note_on_c, 8, 74, 0
10, 511200, Note_on_c, 8, 74, 64
10, 511200, Note_on_c, 8, 66, 64
10, 511390, Note_on_c, 8, 66, 0
10, 511390, Note_on_c, 8, 74, 0
10, 511440, Note_on_c, 8, 74, 64
10, 511440, Note_on_c, 8, 66, 64
10, 511630, Note_on_c, 8, 66, 0
10, 511630, Note_on_c, 8, 74, 0
10, 511680, Note_on_c, 8, 74, 64
10, 511680, Note_on_c, 8, 66, 64
10, 511870, Note_on_c, 8, 66, 0
10, 511870, Note_on_c, 8, 74, 0
10, 511920, Note_on_c, 8, 74, 64
10, 511920, Note_on_c, 8, 66, 64
10, 512110, Note_on_c, 8, 66, 0
10, 512110, Note_on_c, 8, 74, 0
10, 512160, Note_on_c, 8, 74, 64
10, 512160, Note_on_c, 8, 66, 64
10, 512350, Note_on_c, 8, 66, 0
10, 512350, Note_on_c, 8, 74, 0
10, 512400, Note_on_c, 8, 74, 64
10, 512400, Note_on_c, 8, 66, 64
10, 512590, Note_on_c, 8, 66, 0
10, 512590, Note_on_c, 8, 74, 0
10, 512640, Note_on_c, 8, 74, 64
10, 512640, Note_on_c, 8, 66, 64
10, 512830, Note_on_c, 8, 66, 0
10, 512830, Note_on_c, 8, 74, 0
10, 512880, Note_on_c, 8, 74, 64
10, 512880, Note_on_c, 8, 66, 64
10, 513070, Note_on_c, 8, 66, 0
10, 513070, Note_on_c, 8, 74, 0
10, 513120, Note_on_c, 8, 74, 64
10, 513120, Note_on_c, 8, 66, 64
10, 513310, Note_on_c, 8, 66, 0
10, 513310, Note_on_c, 8, 74, 0
10, 513360, Note_on_c, 8, 74, 64
10, 513360, Note_on_c, 8, 66, 64
10, 513550, Note_on_c, 8, 66, 0
10, 513550, Note_on_c, 8, 74, 0
10, 513600, Note_on_c, 8, 74, 64
10, 513600, Note_on_c, 8, 66, 64
10, 513790, Note_on_c, 8, 66, 0
10, 513790, Note_on_c, 8, 74, 0
10, 513840, Note_on_c, 8, 74, 64
10, 513840, Note_on_c, 8, 66, 64
10, 514030, Note_on_c, 8, 66, 0
10, 514030, Note_on_c, 8, 74, 0
10, 514080, Note_on_c, 8, 74, 64
10, 514080, Note_on_c, 8, 66, 64
10, 514270, Note_on_c, 8, 66, 0
10, 514270, Note_on_c, 8, 74, 0
10, 514320, Note_on_c, 8, 74, 64
10, 514320, Note_on_c, 8, 66, 64
10, 514510, Note_on_c, 8, 66, 0
10, 514510, Note_on_c, 8, 74, 0
10, 514560, Note_on_c, 8, 76, 64
10, 514560, Note_on_c, 8, 74, 64
10, 514750, Note_on_c, 8, 74, 0
10, 514750, Note_on_c, 8, 76, 0
10, 514800, Note_on_c, 8, 76, 64
10, 514800, Note_on_c, 8, 74, 64
10, 514990, Note_on_c, 8, 74, 0
10, 514990, Note_on_c, 8, 76, 0
10, 515040, Note_on_c, 8, 76, 64
10, 515040, Note_on_c, 8, 74, 64
10, 515230, Note_on_c, 8, 74, 0
10, 515230, Note_on_c, 8, 76, 0
10, 515280, Note_on_c, 8, 76, 64
10, 515280, Note_on_c, 8, 74, 64
10, 515470, Note_on_c, 8, 74, 0
10, 515470, Note_on_c, 8, 76, 0
10, 515520, Note_on_c, 8, 76, 64
10, 515520, Note_on_c, 8, 74, 64
10, 515710, Note_on_c, 8, 74, 0
10, 515710, Note_on_c, 8, 76, 0
10, 515760, Note_on_c, 8, 76, 64
10, 515760, Note_on_c, 8, 74, 64
10, 515950, Note_on_c, 8, 74, 0
10, 515950, Note_on_c, 8, 76, 0
10, 516000, Note_on_c, 8, 76, 64
10, 516000, Note_on_c, 8, 74, 64
10, 516190, Note_on_c, 8, 74, 0
10, 516190, Note_on_c, 8, 76, 0
10, 516240, Note_on_c, 8, 76, 64
10, 516240, Note_on_c, 8, 74, 64
10, 516430, Note_on_c, 8, 74, 0
10, 516430, Note_on_c, 8, 76, 0
10, 516480, Note_on_c, 8, 76, 64
10, 516480, Note_on_c, 8, 74, 64
10, 516670, Note_on_c, 8, 74, 0
10, 516670, Note_on_c, 8, 76, 0
10, 516720, Note_on_c, 8, 76, 64
10, 516720, Note_on_c, 8, 74, 64
10, 516910, Note_on_c, 8, 74, 0
10, 516910, Note_on_c, 8, 76, 0
10, 516960, Note_on_c, 8, 76, 64
10, 516960, Note_on_c, 8, 74, 64
10, 517150, Note_on_c, 8, 74, 0
10, 517150, Note_on_c, 8, 76, 0
10, 517200, Note_on_c, 8, 76, 64
10, 517200, Note_on_c, 8, 74, 64
10, 517390, Note_on_c, 8, 74, 0
10, 517390, Note_on_c, 8, 76, 0
10, 517440, Note_on_c, 8, 76, 64
10, 517440, Note_on_c, 8, 74, 64
10, 517630, Note_on_c, 8, 74, 0
10, 517630, Note_on_c, 8, 76, 0
10, 517680, Note_on_c, 8, 76, 64
10, 517680, Note_on_c, 8, 74, 64
10, 517870, Note_on_c, 8, 74, 0
10, 517870, Note_on_c, 8, 76, 0
10, 517920, Note_on_c, 8, 76, 64
10, 517920, Note_on_c, 8, 74, 64
10, 518110, Note_on_c, 8, 74, 0
10, 518110, Note_on_c, 8, 76, 0
10, 518160, Note_on_c, 8, 76, 64
10, 518160, Note_on_c, 8, 74, 64
10, 518350, Note_on_c, 8, 74, 0
10, 518350, Note_on_c, 8, 76, 0
10, 518400, Note_on_c, 8, 78, 64
10, 518400, Note_on_c, 8, 74, 64
10, 518780, Note_on_c, 8, 74, 0
10, 518780, Note_on_c, 8, 78, 0
10, 518880, Note_on_c, 8, 74, 64
10, 519070, Note_on_c, 8, 74, 0
10, 519120, Note_on_c, 8, 74, 64
10, 519310, Note_on_c, 8, 74, 0
10, 519360, Note_on_c, 8, 74, 64
10, 520700, Note_on_c, 8, 74, 0
10, 520800, Note_on_c, 8, 76, 64
10, 520990, Note_on_c, 8, 76, 0
10, 521040, Note_on_c, 8, 78, 64
10, 521230, Note_on_c, 8, 78, 0
10, 521280, Note_on_c, 8, 78, 64
10, 521520, Note_on_c, 8, 78, 0
10, 521520, Note_on_c, 8, 76, 64
10, 521710, Note_on_c, 8, 76, 0
10, 521760, Note_on_c, 8, 74, 64
10, 521820, Note_on_c, 8, 74, 0
10, 522000, Note_on_c, 8, 73, 64
10, 522060, Note_on_c, 8, 73, 0
10, 522240, Note_on_c, 8, 74, 64
10, 522620, Note_on_c, 8, 74, 0
10, 523680, Note_on_c, 8, 73, 64
10, 523680, Note_on_c, 8, 64, 64
10, 523680, Note_on_c, 8, 57, 64
10, 524060, Note_on_c, 8, 57, 0
10, 524060, Note_on_c, 8, 64, 0
10, 524060, Note_on_c, 8, 73, 0
10, 524160, Note_on_c, 8, 74, 64
10, 524160, Note_on_c, 8, 66, 64
10, 524160, Note_on_c, 8, 57, 64
10, 524540, Note_on_c, 8, 57, 0
10, 524540, Note_on_c, 8, 66, 0
10, 524540, Note_on_c, 8, 74, 0
10, 525600, Note_on_c, 8, 73, 64
10, 525600, Note_on_c, 8, 64, 64
10, 525600, Note_on_c, 8, 57, 64
10, 525980, Note_on_c, 8, 57, 0
10, 525980, Note_on_c, 8, 64, 0
10, 525980, Note_on_c, 8, 73, 0
10, 526080, Note_on_c, 8, 74, 64
10, 526270, Note_on_c, 8, 74, 0
10, 526320, Note_on_c, 8, 78, 64
10, 526510, Note_on_c, 8, 78, 0
10, 526560, Note_on_c, 8, 69, 64
10, 526750, Note_on_c, 8, 69, 0
10, 526800, Note_on_c, 8, 73, 64
10, 526990, Note_on_c, 8, 73, 0
10, 527040, Note_on_c, 8, 74, 64
10, 527230, Note_on_c, 8, 74, 0
10, 527280, Note_on_c, 8, 78, 64
10, 527470, Note_on_c, 8, 78, 0
10, 527520, Note_on_c, 8, 79, 64
10, 527710, Note_on_c, 8, 79, 0
10, 527760, Note_on_c, 8, 76, 64
10, 527950, Note_on_c, 8, 76, 0
10, 528000, Note_on_c, 8, 74, 64
10, 528190, Note_on_c, 8, 74, 0
10, 528240, Note_on_c, 8, 78, 64
10, 528430, Note_on_c, 8, 78, 0
10, 528480, Note_on_c, 8, 69, 64
10, 528670, Note_on_c, 8, 69, 0
10, 528720, Note_on_c, 8, 73, 64
10, 528910, Note_on_c, 8, 73, 0
10, 528960, Note_on_c, 8, 74, 64
10, 529150, Note_on_c, 8, 74, 0
10, 529200, Note_on_c, 8, 78, 64
10, 529390, Note_on_c, 8, 78, 0
10, 529440, Note_on_c, 8, 79, 64
10, 529630, Note_on_c, 8, 79, 0
10, 529680, Note_on_c, 8, 76, 64
10, 529870, Note_on_c, 8, 76, 0
10, 529920, Note_on_c, 8, 74, 64
10, 530160, Note_on_c, 8, 74, 0
10, 530160, Note_on_c, 8, 69, 64
10, 530350, Note_on_c, 8, 69, 0
10, 530400, Note_on_c, 8, 78, 64
10, 530460, Note_on_c, 8, 78, 0
10, 530640, Note_on_c, 8, 78, 64
10, 530700, Note_on_c, 8, 78, 0
10, 530880, Note_on_c, 8, 78, 64
10, 531120, Note_on_c, 8, 78, 0
10, 531120, Note_on_c, 8, 74, 64
10, 531310, Note_on_c, 8, 74, 0
10, 531360, Note_on_c, 8, 81, 64
10, 531420, Note_on_c, 8, 81, 0
10, 531600, Note_on_c, 8, 81, 64
10, 531660, Note_on_c, 8, 81, 0
10, 531840, Note_on_c, 8, 81, 64
10, 532080, Note_on_c, 8, 81, 0
10, 532080, Note_on_c, 8, 78, 64
10, 532270, Note_on_c, 8, 78, 0
10, 532320, Note_on_c, 8, 84, 64
10, 532380, Note_on_c, 8, 84, 0
10, 532560, Note_on_c, 8, 84, 64
10, 532620, Note_on_c, 8, 84, 0
10, 532800, Note_on_c, 8, 84, 64
10, 532990, Note_on_c, 8, 84, 0
10, 533040, Note_on_c, 8, 84, 64
10, 533230, Note_on_c, 8, 84, 0
10, 533280, Note_on_c, 8, 84, 64
10, 533470, Note_on_c, 8, 84, 0
10, 533520, Note_on_c, 8, 84, 64
10, 533710, Note_on_c, 8, 84, 0
10, 533760, Note_on_c, 8, 84, 64
10, 534910, Note_on_c, 8, 84, 0
10, 535200, Note_on_c, 8, 83, 64
10, 535320, Note_on_c, 8, 83, 0
10, 535680, Note_on_c, 8, 81, 64
10, 535800, Note_on_c, 8, 81, 0
10, 536160, Note_on_c, 8, 79, 64
10, 536280, Note_on_c, 8, 79, 0
10, 536640, Note_on_c, 8, 78, 64
10, 536760, Note_on_c, 8, 78, 0
10, 537600, Note_on_c, 8, 86, 64
10, 538750, Note_on_c, 8, 86, 0
10, 539040, Note_on_c, 8, 84, 64
10, 539160, Note_on_c, 8, 84, 0
10, 539520, Note_on_c, 8, 83, 64
10, 539640, Note_on_c, 8, 83, 0
10, 540000, Note_on_c, 8, 81, 64
10, 540120, Note_on_c, 8, 81, 0
10, 540480, Note_on_c, 8, 79, 64
10, 540600, Note_on_c, 8, 79, 0
10, 543360, Note_on_c, 8, 58, 64
10, 543600, Note_on_c, 8, 58, 0
10, 543600, Note_on_c, 8, 60, 64
10, 543840, Note_on_c, 8, 60, 0
10, 543840, Note_on_c, 8, 58, 64
10, 544080, Note_on_c, 8, 58, 0
10, 544080, Note_on_c, 8, 60, 64
10, 544320, Note_on_c, 8, 60, 0
10, 544320, Note_on_c, 8, 58, 64
10, 544560, Note_on_c, 8, 58, 0
10, 544560, Note_on_c, 8, 60, 64
10, 544800, Note_on_c, 8, 60, 0
10, 544800, Note_on_c, 8, 58, 64
10, 545040, Note_on_c, 8, 58, 0
10, 545040, Note_on_c, 8, 60, 64
10, 545230, Note_on_c, 8, 60, 0
10, 545280, Note_on_c, 8, 57, 64
10, 545520, Note_on_c, 8, 57, 0
10, 545520, Note_on_c, 8, 60, 64
10, 545760, Note_on_c, 8, 60, 0
10, 545760, Note_on_c, 8, 57, 64
10, 546000, Note_on_c, 8, 57, 0
10, 546000, Note_on_c, 8, 60, 64
10, 546240, Note_on_c, 8, 60, 0
10, 546240, Note_on_c, 8, 57, 64
10, 546480, Note_on_c, 8, 57, 0
10, 546480, Note_on_c, 8, 60, 64
10, 546720, Note_on_c, 8, 60, 0
10, 546720, Note_on_c, 8, 57, 64
10, 546960, Note_on_c, 8, 57, 0
10, 546960, Note_on_c, 8, 60, 64
10, 547200, Note_on_c, 8, 60, 0
10, 547200, Note_on_c, 8, 57, 64
10, 547440, Note_on_c, 8, 57, 0
10, 547440, Note_on_c, 8, 60, 64
10, 547680, Note_on_c, 8, 60, 0
10, 547680, Note_on_c, 8, 57, 64
10, 547920, Note_on_c, 8, 57, 0
10, 547920, Note_on_c, 8, 60, 64
10, 548160, Note_on_c, 8, 60, 0
10, 548160, Note_on_c, 8, 57, 64
10, 548400, Note_on_c, 8, 57, 0
10, 548400, Note_on_c, 8, 60, 64
10, 548640, Note_on_c, 8, 60, 0
10, 548640, Note_on_c, 8, 57, 64
10, 548880, Note_on_c, 8, 57, 0
10, 548880, Note_on_c, 8, 60, 64
10, 549070, Note_on_c, 8, 60, 0
10, 549120, Note_on_c, 8, 55, 64
10, 549360, Note_on_c, 8, 55, 0
10, 549360, Note_on_c, 8, 58, 64
10, 549600, Note_on_c, 8, 58, 0
10, 549600, Note_on_c, 8, 60, 64
10, 549840, Note_on_c, 8, 60, 0
10, 549840, Note_on_c, 8, 58, 64
10, 550080, Note_on_c, 8, 58, 0
10, 550080, Note_on_c, 8, 57, 64
10, 550320, Note_on_c, 8, 57, 0
10, 550320, Note_on_c, 8, 58, 64
10, 550560, Note_on_c, 8, 58, 0
10, 550560, Note_on_c, 8, 60, 64
10, 550800, Note_on_c, 8, 60, 0
10, 550800, Note_on_c, 8, 58, 64
10, 551040, Note_on_c, 8, 58, 0
10, 551040, Note_on_c, 8, 57, 64
10, 551280, Note_on_c, 8, 57, 0
10, 551280, Note_on_c, 8, 61, 64
10, 551520, Note_on_c, 8, 61, 0
10, 551520, Note_on_c, 8, 65, 64
10, 551760, Note_on_c, 8, 65, 0
10, 551760, Note_on_c, 8, 61, 64
10, 552000, Note_on_c, 8, 61, 0
10, 552000, Note_on_c, 8, 55, 64
10, 552240, Note_on_c, 8, 55, 0
10, 552240, Note_on_c, 8, 62, 64
10, 552480, Note_on_c, 8, 62, 0
10, 552480, Note_on_c, 8, 65, 64
10, 552720, Note_on_c, 8, 65, 0
10, 552720, Note_on_c, 8, 62, 64
10, 552910, Note_on_c, 8, 62, 0
10, 552960, Note_on_c, 8, 55, 64
10, 553200, Note_on_c, 8, 55, 0
10, 553200, Note_on_c, 8, 60, 64
10, 553440, Note_on_c, 8, 60, 0
10, 553440, Note_on_c, 8, 64, 64
10, 553680, Note_on_c, 8, 64, 0
10, 553680, Note_on_c, 8, 60, 64
10, 553920, Note_on_c, 8, 60, 0
10, 553920, Note_on_c, 8, 58, 64
10, 554160, Note_on_c, 8, 58, 0
10, 554160, Note_on_c, 8, 60, 64
10, 554400, Note_on_c, 8, 60, 0
10, 554400, Note_on_c, 8, 58, 64
10, 554640, Note_on_c, 8, 58, 0
10, 554640, Note_on_c, 8, 60, 64
10, 554830, Note_on_c, 8, 60, 0
10, 554880, Note_on_c, 8, 57, 64
10, 555120, Note_on_c, 8, 57, 0
10, 555120, Note_on_c, 8, 60, 64
10, 555360, Note_on_c, 8, 60, 0
10, 555360, Note_on_c, 8, 65, 64
10, 555600, Note_on_c, 8, 65, 0
10, 555600, Note_on_c, 8, 60, 64
10, 555840, Note_on_c, 8, 60, 0
10, 555840, Note_on_c, 8, 55, 64
10, 556080, Note_on_c, 8, 55, 0
10, 556080, Note_on_c, 8, 62, 64
10, 556320, Note_on_c, 8, 62, 0
10, 556320, Note_on_c, 8, 65, 64
10, 556560, Note_on_c, 8, 65, 0
10, 556560, Note_on_c, 8, 62, 64
10, 556750, Note_on_c, 8, 62, 0
10, 556800, Note_on_c, 8, 64, 64
10, 557040, Note_on_c, 8, 64, 0
10, 557040, Note_on_c, 8, 60, 64
10, 557280, Note_on_c, 8, 60, 0
10, 557280, Note_on_c, 8, 64, 64
10, 557520, Note_on_c, 8, 64, 0
10, 557520, Note_on_c, 8, 60, 64
10, 557760, Note_on_c, 8, 60, 0
10, 557760, Note_on_c, 8, 65, 64
10, 558000, Note_on_c, 8, 65, 0
10, 558000, Note_on_c, 8, 60, 64
10, 558240, Note_on_c, 8, 60, 0
10, 558240, Note_on_c, 8, 65, 64
10, 558480, Note_on_c, 8, 65, 0
10, 558480, Note_on_c, 8, 60, 64
10, 558670, Note_on_c, 8, 60, 0
10, 558720, Note_on_c, 8, 64, 64
10, 558960, Note_on_c, 8, 64, 0
10, 558960, Note_on_c, 8, 60, 64
10, 559200, Note_on_c, 8, 60, 0
10, 559200, Note_on_c, 8, 64, 64
10, 559440, Note_on_c, 8, 64, 0
10, 559440, Note_on_c, 8, 60, 64
10, 559680, Note_on_c, 8, 60, 0
10, 559680, Note_on_c, 8, 65, 64
10, 559920, Note_on_c, 8, 65, 0
10, 559920, Note_on_c, 8, 60, 64
10, 560160, Note_on_c, 8, 60, 0
10, 560160, Note_on_c, 8, 65, 64
10, 560400, Note_on_c, 8, 65, 0
10, 560400, Note_on_c, 8, 60, 64
10, 560590, Note_on_c, 8, 60, 0
10, 560640, Note_on_c, 8, 64, 64
10, 562170, Note_on_c, 8, 64, 0
10, 562170, End_track
11, 0, Start_track
11, 0, MIDI_port, 0
11, 0, Title_t, "Viola                               "
11, 0, Program_c, 10, 48
11, 0, Control_c, 10, 7, 65
11, 0, Control_c, 10, 10, 120
11, 0, Control_c, 10, 121, 0
11, 360, Control_c, 10, 101, 0
11, 360, Control_c, 10, 100, 0
11, 360, Control_c, 10, 6, 12
11, 360, Control_c, 10, 38, 0
11, 480, Control_c, 10, 5, 0
11, 600, Control_c, 10, 65, 0
11, 720, Control_c, 10, 67, 0
11, 960, Pitch_bend_c, 10, 8192
11, 1080, Control_c, 10, 64, 0
11, 1200, Control_c, 10, 11, 127
11, 1320, Control_c, 10, 1, 0
11, 1560, Control_c, 10, 91, 100
11, 1680, Control_c, 10, 93, 30
11, 1920, Note_on_c, 10, 62, 96
11, 2680, Note_on_c, 10, 62, 0
11, 2880, Note_on_c, 10, 62, 96
11, 3640, Note_on_c, 10, 62, 0
11, 3840, Note_on_c, 10, 62, 96
11, 4600, Note_on_c, 10, 62, 0
11, 5760, Note_on_c, 10, 61, 96
11, 6520, Note_on_c, 10, 61, 0
11, 6720, Note_on_c, 10, 61, 96
11, 7480, Note_on_c, 10, 61, 0
11, 7680, Note_on_c, 10, 61, 96
11, 8440, Note_on_c, 10, 61, 0
11, 9600, Note_on_c, 10, 62, 64
11, 10170, Note_on_c, 10, 62, 0
11, 10320, Note_on_c, 10, 62, 64
11, 10510, Note_on_c, 10, 62, 0
11, 10560, Note_on_c, 10, 62, 64
11, 11130, Note_on_c, 10, 62, 0
11, 11280, Note_on_c, 10, 62, 64
11, 11470, Note_on_c, 10, 62, 0
11, 11520, Note_on_c, 10, 59, 64
11, 12090, Note_on_c, 10, 59, 0
11, 12240, Note_on_c, 10, 59, 64
11, 12430, Note_on_c, 10, 59, 0
11, 12480, Note_on_c, 10, 59, 64
11, 13050, Note_on_c, 10, 59, 0
11, 13200, Note_on_c, 10, 59, 64
11, 13390, Note_on_c, 10, 59, 0
11, 13440, Note_on_c, 10, 52, 64
11, 14010, Note_on_c, 10, 52, 0
11, 14160, Note_on_c, 10, 52, 64
11, 14350, Note_on_c, 10, 52, 0
11, 14400, Note_on_c, 10, 52, 64
11, 14970, Note_on_c, 10, 52, 0
11, 15120, Note_on_c, 10, 52, 64
11, 15310, Note_on_c, 10, 52, 0
11, 15360, Note_on_c, 10, 57, 64
11, 15930, Note_on_c, 10, 57, 0
11, 16080, Note_on_c, 10, 57, 64
11, 16270, Note_on_c, 10, 57, 0
11, 16320, Note_on_c, 10, 57, 64
11, 16890, Note_on_c, 10, 57, 0
11, 17040, Note_on_c, 10, 63, 64
11, 17230, Note_on_c, 10, 63, 0
11, 17280, Note_on_c, 10, 62, 64
11, 17850, Note_on_c, 10, 62, 0
11, 18000, Note_on_c, 10, 62, 64
11, 18190, Note_on_c, 10, 62, 0
11, 18240, Note_on_c, 10, 62, 64
11, 18810, Note_on_c, 10, 62, 0
11, 18960, Note_on_c, 10, 62, 64
11, 19150, Note_on_c, 10, 62, 0
11, 19200, Note_on_c, 10, 62, 64
11, 19770, Note_on_c, 10, 62, 0
11, 19920, Note_on_c, 10, 62, 64
11, 20110, Note_on_c, 10, 62, 0
11, 20160, Note_on_c, 10, 62, 64
11, 20730, Note_on_c, 10, 62, 0
11, 20880, Note_on_c, 10, 62, 64
11, 21070, Note_on_c, 10, 62, 0
11, 21120, Note_on_c, 10, 62, 64
11, 22080, Note_on_c, 10, 62, 0
11, 22080, Note_on_c, 10, 61, 64
11, 22460, Note_on_c, 10, 61, 0
11, 22560, Note_on_c, 10, 57, 64
11, 23040, Note_on_c, 10, 57, 0
11, 23040, Note_on_c, 10, 61, 64
11, 23520, Note_on_c, 10, 61, 0
11, 23520, Note_on_c, 10, 57, 64
11, 24000, Note_on_c, 10, 57, 0
11, 24000, Note_on_c, 10, 61, 64
11, 24480, Note_on_c, 10, 61, 0
11, 24480, Note_on_c, 10, 57, 64
11, 24960, Note_on_c, 10, 57, 0
11, 24960, Note_on_c, 10, 62, 64
11, 25440, Note_on_c, 10, 62, 0
11, 25440, Note_on_c, 10, 57, 64
11, 25920, Note_on_c, 10, 57, 0
11, 25920, Note_on_c, 10, 62, 64
11, 26400, Note_on_c, 10, 62, 0
11, 26400, Note_on_c, 10, 57, 64
11, 26880, Note_on_c, 10, 57, 0
11, 26880, Note_on_c, 10, 61, 64
11, 27360, Note_on_c, 10, 61, 0
11, 27360, Note_on_c, 10, 57, 64
11, 27840, Note_on_c, 10, 57, 0
11, 27840, Note_on_c, 10, 61, 64
11, 28320, Note_on_c, 10, 61, 0
11, 28320, Note_on_c, 10, 57, 64
11, 28800, Note_on_c, 10, 57, 0
11, 28800, Note_on_c, 10, 62, 64
11, 28990, Note_on_c, 10, 62, 0
11, 29280, Note_on_c, 10, 66, 101
11, 29760, Note_on_c, 10, 66, 0
11, 29760, Note_on_c, 10, 67, 64
11, 29950, Note_on_c, 10, 67, 0
11, 30240, Note_on_c, 10, 66, 101
11, 30720, Note_on_c, 10, 66, 0
11, 30720, Note_on_c, 10, 67, 64
11, 30910, Note_on_c, 10, 67, 0
11, 31200, Note_on_c, 10, 66, 101
11, 31680, Note_on_c, 10, 66, 0
11, 31680, Note_on_c, 10, 67, 64
11, 31870, Note_on_c, 10, 67, 0
11, 32160, Note_on_c, 10, 66, 101
11, 32640, Note_on_c, 10, 66, 0
11, 32640, Note_on_c, 10, 67, 64
11, 32830, Note_on_c, 10, 67, 0
11, 33120, Note_on_c, 10, 70, 64
11, 33310, Note_on_c, 10, 70, 0
11, 33600, Note_on_c, 10, 63, 64
11, 33790, Note_on_c, 10, 63, 0
11, 34080, Note_on_c, 10, 67, 64
11, 34270, Note_on_c, 10, 67, 0
11, 34560, Note_on_c, 10, 61, 101
11, 36090, Note_on_c, 10, 61, 0
11, 36480, Note_on_c, 10, 62, 64
11, 36670, Note_on_c, 10, 62, 0
11, 36960, Note_on_c, 10, 65, 64
11, 37150, Note_on_c, 10, 65, 0
11, 37440, Note_on_c, 10, 58, 64
11, 37630, Note_on_c, 10, 58, 0
11, 37920, Note_on_c, 10, 62, 64
11, 38110, Note_on_c, 10, 62, 0
11, 38400, Note_on_c, 10, 56, 101
11, 40320, Note_on_c, 10, 56, 0
11, 40320, Note_on_c, 10, 55, 64
11, 40700, Note_on_c, 10, 55, 0
11, 41280, Note_on_c, 10, 55, 64
11, 41660, Note_on_c, 10, 55, 0
11, 42240, Note_on_c, 10, 57, 64
11, 42620, Note_on_c, 10, 57, 0
11, 43200, Note_on_c, 10, 57, 64
11, 43580, Note_on_c, 10, 57, 0
11, 44160, Note_on_c, 10, 57, 64
11, 44200, Note_on_c, 10, 57, 0
11, 44220, Note_on_c, 10, 57, 64
11, 44260, Note_on_c, 10, 57, 0
11, 44280, Note_on_c, 10, 57, 64
11, 44320, Note_on_c, 10, 57, 0
11, 44340, Note_on_c, 10, 57, 64
11, 44380, Note_on_c, 10, 57, 0
11, 44400, Note_on_c, 10, 57, 64
11, 44440, Note_on_c, 10, 57, 0
11, 44460, Note_on_c, 10, 57, 64
11, 44500, Note_on_c, 10, 57, 0
11, 44520, Note_on_c, 10, 57, 64
11, 44560, Note_on_c, 10, 57, 0
11, 44580, Note_on_c, 10, 57, 64
11, 44620, Note_on_c, 10, 57, 0
11, 44640, Note_on_c, 10, 57, 64
11, 44680, Note_on_c, 10, 57, 0
11, 44700, Note_on_c, 10, 57, 64
11, 44740, Note_on_c, 10, 57, 0
11, 44760, Note_on_c, 10, 57, 64
11, 44800, Note_on_c, 10, 57, 0
11, 44820, Note_on_c, 10, 57, 64
11, 44860, Note_on_c, 10, 57, 0
11, 44880, Note_on_c, 10, 57, 64
11, 44920, Note_on_c, 10, 57, 0
11, 44940, Note_on_c, 10, 57, 64
11, 44980, Note_on_c, 10, 57, 0
11, 45000, Note_on_c, 10, 57, 64
11, 45040, Note_on_c, 10, 57, 0
11, 45060, Note_on_c, 10, 57, 64
11, 45100, Note_on_c, 10, 57, 0
11, 45120, Note_on_c, 10, 57, 64
11, 45160, Note_on_c, 10, 57, 0
11, 45180, Note_on_c, 10, 57, 64
11, 45220, Note_on_c, 10, 57, 0
11, 45240, Note_on_c, 10, 57, 64
11, 45280, Note_on_c, 10, 57, 0
11, 45300, Note_on_c, 10, 57, 64
11, 45340, Note_on_c, 10, 57, 0
11, 45360, Note_on_c, 10, 57, 64
11, 45400, Note_on_c, 10, 57, 0
11, 45420, Note_on_c, 10, 57, 64
11, 45460, Note_on_c, 10, 57, 0
11, 45480, Note_on_c, 10, 57, 64
11, 45520, Note_on_c, 10, 57, 0
11, 45540, Note_on_c, 10, 57, 64
11, 45580, Note_on_c, 10, 57, 0
11, 45600, Note_on_c, 10, 57, 64
11, 45640, Note_on_c, 10, 57, 0
11, 45660, Note_on_c, 10, 57, 64
11, 45700, Note_on_c, 10, 57, 0
11, 45720, Note_on_c, 10, 57, 64
11, 45760, Note_on_c, 10, 57, 0
11, 45780, Note_on_c, 10, 57, 64
11, 45820, Note_on_c, 10, 57, 0
11, 45840, Note_on_c, 10, 57, 64
11, 45880, Note_on_c, 10, 57, 0
11, 45900, Note_on_c, 10, 57, 64
11, 45940, Note_on_c, 10, 57, 0
11, 45960, Note_on_c, 10, 57, 64
11, 46000, Note_on_c, 10, 57, 0
11, 46020, Note_on_c, 10, 57, 64
11, 46060, Note_on_c, 10, 57, 0
11, 46080, Note_on_c, 10, 58, 64
11, 46120, Note_on_c, 10, 58, 0
11, 46140, Note_on_c, 10, 58, 64
11, 46180, Note_on_c, 10, 58, 0
11, 46200, Note_on_c, 10, 58, 64
11, 46240, Note_on_c, 10, 58, 0
11, 46260, Note_on_c, 10, 58, 64
11, 46300, Note_on_c, 10, 58, 0
11, 46320, Note_on_c, 10, 58, 64
11, 46360, Note_on_c, 10, 58, 0
11, 46380, Note_on_c, 10, 58, 64
11, 46420, Note_on_c, 10, 58, 0
11, 46440, Note_on_c, 10, 58, 64
11, 46480, Note_on_c, 10, 58, 0
11, 46500, Note_on_c, 10, 58, 64
11, 46540, Note_on_c, 10, 58, 0
11, 46560, Note_on_c, 10, 58, 64
11, 46600, Note_on_c, 10, 58, 0
11, 46620, Note_on_c, 10, 58, 64
11, 46660, Note_on_c, 10, 58, 0
11, 46680, Note_on_c, 10, 58, 64
11, 46720, Note_on_c, 10, 58, 0
11, 46740, Note_on_c, 10, 58, 64
11, 46780, Note_on_c, 10, 58, 0
11, 46800, Note_on_c, 10, 58, 64
11, 46840, Note_on_c, 10, 58, 0
11, 46860, Note_on_c, 10, 58, 64
11, 46900, Note_on_c, 10, 58, 0
11, 46920, Note_on_c, 10, 58, 64
11, 46960, Note_on_c, 10, 58, 0
11, 46980, Note_on_c, 10, 58, 64
11, 47020, Note_on_c, 10, 58, 0
11, 47040, Note_on_c, 10, 59, 64
11, 47080, Note_on_c, 10, 59, 0
11, 47100, Note_on_c, 10, 59, 64
11, 47140, Note_on_c, 10, 59, 0
11, 47160, Note_on_c, 10, 59, 64
11, 47200, Note_on_c, 10, 59, 0
11, 47220, Note_on_c, 10, 59, 64
11, 47260, Note_on_c, 10, 59, 0
11, 47280, Note_on_c, 10, 59, 64
11, 47320, Note_on_c, 10, 59, 0
11, 47340, Note_on_c, 10, 59, 64
11, 47380, Note_on_c, 10, 59, 0
11, 47400, Note_on_c, 10, 59, 64
11, 47440, Note_on_c, 10, 59, 0
11, 47460, Note_on_c, 10, 59, 64
11, 47500, Note_on_c, 10, 59, 0
11, 47520, Note_on_c, 10, 59, 64
11, 47560, Note_on_c, 10, 59, 0
11, 47580, Note_on_c, 10, 59, 64
11, 47620, Note_on_c, 10, 59, 0
11, 47640, Note_on_c, 10, 59, 64
11, 47680, Note_on_c, 10, 59, 0
11, 47700, Note_on_c, 10, 59, 64
11, 47740, Note_on_c, 10, 59, 0
11, 47760, Note_on_c, 10, 59, 64
11, 47800, Note_on_c, 10, 59, 0
11, 47820, Note_on_c, 10, 59, 64
11, 47860, Note_on_c, 10, 59, 0
11, 47880, Note_on_c, 10, 59, 64
11, 47920, Note_on_c, 10, 59, 0
11, 47940, Note_on_c, 10, 59, 64
11, 47980, Note_on_c, 10, 59, 0
11, 48000, Note_on_c, 10, 60, 64
11, 48040, Note_on_c, 10, 60, 0
11, 48060, Note_on_c, 10, 60, 64
11, 48100, Note_on_c, 10, 60, 0
11, 48120, Note_on_c, 10, 60, 64
11, 48160, Note_on_c, 10, 60, 0
11, 48180, Note_on_c, 10, 60, 64
11, 48220, Note_on_c, 10, 60, 0
11, 48240, Note_on_c, 10, 60, 64
11, 48280, Note_on_c, 10, 60, 0
11, 48300, Note_on_c, 10, 60, 64
11, 48340, Note_on_c, 10, 60, 0
11, 48360, Note_on_c, 10, 60, 64
11, 48400, Note_on_c, 10, 60, 0
11, 48420, Note_on_c, 10, 60, 64
11, 48460, Note_on_c, 10, 60, 0
11, 48480, Note_on_c, 10, 60, 64
11, 48520, Note_on_c, 10, 60, 0
11, 48540, Note_on_c, 10, 60, 64
11, 48580, Note_on_c, 10, 60, 0
11, 48600, Note_on_c, 10, 60, 64
11, 48640, Note_on_c, 10, 60, 0
11, 48660, Note_on_c, 10, 60, 64
11, 48700, Note_on_c, 10, 60, 0
11, 48720, Note_on_c, 10, 60, 64
11, 48760, Note_on_c, 10, 60, 0
11, 48780, Note_on_c, 10, 60, 64
11, 48820, Note_on_c, 10, 60, 0
11, 48840, Note_on_c, 10, 60, 64
11, 48880, Note_on_c, 10, 60, 0
11, 48900, Note_on_c, 10, 60, 64
11, 48940, Note_on_c, 10, 60, 0
11, 48960, Note_on_c, 10, 60, 64
11, 49000, Note_on_c, 10, 60, 0
11, 49020, Note_on_c, 10, 60, 64
11, 49060, Note_on_c, 10, 60, 0
11, 49080, Note_on_c, 10, 60, 64
11, 49120, Note_on_c, 10, 60, 0
11, 49140, Note_on_c, 10, 60, 64
11, 49180, Note_on_c, 10, 60, 0
11, 49200, Note_on_c, 10, 60, 64
11, 49240, Note_on_c, 10, 60, 0
11, 49260, Note_on_c, 10, 60, 64
11, 49300, Note_on_c, 10, 60, 0
11, 49320, Note_on_c, 10, 60, 64
11, 49360, Note_on_c, 10, 60, 0
11, 49380, Note_on_c, 10, 60, 64
11, 49420, Note_on_c, 10, 60, 0
11, 49440, Note_on_c, 10, 60, 64
11, 49480, Note_on_c, 10, 60, 0
11, 49500, Note_on_c, 10, 60, 64
11, 49540, Note_on_c, 10, 60, 0
11, 49560, Note_on_c, 10, 60, 64
11, 49600, Note_on_c, 10, 60, 0
11, 49620, Note_on_c, 10, 60, 64
11, 49660, Note_on_c, 10, 60, 0
11, 49680, Note_on_c, 10, 60, 64
11, 49720, Note_on_c, 10, 60, 0
11, 49740, Note_on_c, 10, 60, 64
11, 49780, Note_on_c, 10, 60, 0
11, 49800, Note_on_c, 10, 60, 64
11, 49840, Note_on_c, 10, 60, 0
11, 49860, Note_on_c, 10, 60, 64
11, 49900, Note_on_c, 10, 60, 0
11, 49920, Note_on_c, 10, 58, 64
11, 49960, Note_on_c, 10, 58, 0
11, 49980, Note_on_c, 10, 58, 64
11, 50020, Note_on_c, 10, 58, 0
11, 50040, Note_on_c, 10, 58, 64
11, 50080, Note_on_c, 10, 58, 0
11, 50100, Note_on_c, 10, 58, 64
11, 50140, Note_on_c, 10, 58, 0
11, 50160, Note_on_c, 10, 58, 64
11, 50200, Note_on_c, 10, 58, 0
11, 50220, Note_on_c, 10, 58, 64
11, 50260, Note_on_c, 10, 58, 0
11, 50280, Note_on_c, 10, 58, 64
11, 50320, Note_on_c, 10, 58, 0
11, 50340, Note_on_c, 10, 58, 64
11, 50380, Note_on_c, 10, 58, 0
11, 50400, Note_on_c, 10, 58, 64
11, 50440, Note_on_c, 10, 58, 0
11, 50460, Note_on_c, 10, 58, 64
11, 50500, Note_on_c, 10, 58, 0
11, 50520, Note_on_c, 10, 58, 64
11, 50560, Note_on_c, 10, 58, 0
11, 50580, Note_on_c, 10, 58, 64
11, 50620, Note_on_c, 10, 58, 0
11, 50640, Note_on_c, 10, 58, 64
11, 50680, Note_on_c, 10, 58, 0
11, 50700, Note_on_c, 10, 58, 64
11, 50740, Note_on_c, 10, 58, 0
11, 50760, Note_on_c, 10, 58, 64
11, 50800, Note_on_c, 10, 58, 0
11, 50820, Note_on_c, 10, 58, 64
11, 50860, Note_on_c, 10, 58, 0
11, 50880, Note_on_c, 10, 58, 64
11, 50920, Note_on_c, 10, 58, 0
11, 50940, Note_on_c, 10, 58, 64
11, 50980, Note_on_c, 10, 58, 0
11, 51000, Note_on_c, 10, 58, 64
11, 51040, Note_on_c, 10, 58, 0
11, 51060, Note_on_c, 10, 58, 64
11, 51100, Note_on_c, 10, 58, 0
11, 51120, Note_on_c, 10, 58, 64
11, 51160, Note_on_c, 10, 58, 0
11, 51180, Note_on_c, 10, 58, 64
11, 51220, Note_on_c, 10, 58, 0
11, 51240, Note_on_c, 10, 58, 64
11, 51280, Note_on_c, 10, 58, 0
11, 51300, Note_on_c, 10, 58, 64
11, 51340, Note_on_c, 10, 58, 0
11, 51360, Note_on_c, 10, 58, 64
11, 51400, Note_on_c, 10, 58, 0
11, 51420, Note_on_c, 10, 58, 64
11, 51460, Note_on_c, 10, 58, 0
11, 51480, Note_on_c, 10, 58, 64
11, 51520, Note_on_c, 10, 58, 0
11, 51540, Note_on_c, 10, 58, 64
11, 51580, Note_on_c, 10, 58, 0
11, 51600, Note_on_c, 10, 58, 64
11, 51640, Note_on_c, 10, 58, 0
11, 51660, Note_on_c, 10, 58, 64
11, 51700, Note_on_c, 10, 58, 0
11, 51720, Note_on_c, 10, 58, 64
11, 51760, Note_on_c, 10, 58, 0
11, 51780, Note_on_c, 10, 58, 64
11, 51820, Note_on_c, 10, 58, 0
11, 51840, Note_on_c, 10, 58, 96
11, 51880, Note_on_c, 10, 58, 0
11, 51900, Note_on_c, 10, 58, 96
11, 51940, Note_on_c, 10, 58, 0
11, 51960, Note_on_c, 10, 58, 96
11, 52000, Note_on_c, 10, 58, 0
11, 52020, Note_on_c, 10, 58, 96
11, 52060, Note_on_c, 10, 58, 0
11, 52080, Note_on_c, 10, 58, 96
11, 52120, Note_on_c, 10, 58, 0
11, 52140, Note_on_c, 10, 58, 96
11, 52180, Note_on_c, 10, 58, 0
11, 52200, Note_on_c, 10, 58, 96
11, 52240, Note_on_c, 10, 58, 0
11, 52260, Note_on_c, 10, 58, 96
11, 52300, Note_on_c, 10, 58, 0
11, 52320, Note_on_c, 10, 58, 96
11, 52360, Note_on_c, 10, 58, 0
11, 52380, Note_on_c, 10, 58, 96
11, 52420, Note_on_c, 10, 58, 0
11, 52440, Note_on_c, 10, 58, 96
11, 52480, Note_on_c, 10, 58, 0
11, 52500, Note_on_c, 10, 58, 96
11, 52540, Note_on_c, 10, 58, 0
11, 52560, Note_on_c, 10, 58, 96
11, 52600, Note_on_c, 10, 58, 0
11, 52620, Note_on_c, 10, 58, 96
11, 52660, Note_on_c, 10, 58, 0
11, 52680, Note_on_c, 10, 58, 96
11, 52720, Note_on_c, 10, 58, 0
11, 52740, Note_on_c, 10, 58, 96
11, 52780, Note_on_c, 10, 58, 0
11, 52800, Note_on_c, 10, 58, 96
11, 52840, Note_on_c, 10, 58, 0
11, 52860, Note_on_c, 10, 58, 96
11, 52900, Note_on_c, 10, 58, 0
11, 52920, Note_on_c, 10, 58, 96
11, 52960, Note_on_c, 10, 58, 0
11, 52980, Note_on_c, 10, 58, 96
11, 53020, Note_on_c, 10, 58, 0
11, 53040, Note_on_c, 10, 58, 96
11, 53080, Note_on_c, 10, 58, 0
11, 53100, Note_on_c, 10, 58, 96
11, 53140, Note_on_c, 10, 58, 0
11, 53160, Note_on_c, 10, 58, 96
11, 53200, Note_on_c, 10, 58, 0
11, 53220, Note_on_c, 10, 58, 96
11, 53260, Note_on_c, 10, 58, 0
11, 53280, Note_on_c, 10, 58, 96
11, 53320, Note_on_c, 10, 58, 0
11, 53340, Note_on_c, 10, 58, 96
11, 53380, Note_on_c, 10, 58, 0
11, 53400, Note_on_c, 10, 58, 96
11, 53440, Note_on_c, 10, 58, 0
11, 53460, Note_on_c, 10, 58, 96
11, 53500, Note_on_c, 10, 58, 0
11, 53520, Note_on_c, 10, 58, 96
11, 53560, Note_on_c, 10, 58, 0
11, 53580, Note_on_c, 10, 58, 96
11, 53620, Note_on_c, 10, 58, 0
11, 53640, Note_on_c, 10, 58, 96
11, 53680, Note_on_c, 10, 58, 0
11, 53700, Note_on_c, 10, 58, 96
11, 53740, Note_on_c, 10, 58, 0
11, 53760, Note_on_c, 10, 62, 96
11, 53800, Note_on_c, 10, 62, 0
11, 53820, Note_on_c, 10, 62, 96
11, 53860, Note_on_c, 10, 62, 0
11, 53880, Note_on_c, 10, 62, 96
11, 53920, Note_on_c, 10, 62, 0
11, 53940, Note_on_c, 10, 62, 96
11, 53980, Note_on_c, 10, 62, 0
11, 54000, Note_on_c, 10, 62, 96
11, 54040, Note_on_c, 10, 62, 0
11, 54060, Note_on_c, 10, 62, 96
11, 54100, Note_on_c, 10, 62, 0
11, 54120, Note_on_c, 10, 62, 96
11, 54160, Note_on_c, 10, 62, 0
11, 54180, Note_on_c, 10, 62, 96
11, 54220, Note_on_c, 10, 62, 0
11, 54240, Note_on_c, 10, 62, 96
11, 54280, Note_on_c, 10, 62, 0
11, 54300, Note_on_c, 10, 62, 96
11, 54340, Note_on_c, 10, 62, 0
11, 54360, Note_on_c, 10, 62, 96
11, 54400, Note_on_c, 10, 62, 0
11, 54420, Note_on_c, 10, 62, 96
11, 54460, Note_on_c, 10, 62, 0
11, 54480, Note_on_c, 10, 62, 96
11, 54520, Note_on_c, 10, 62, 0
11, 54540, Note_on_c, 10, 62, 96
11, 54580, Note_on_c, 10, 62, 0
11, 54600, Note_on_c, 10, 62, 96
11, 54640, Note_on_c, 10, 62, 0
11, 54660, Note_on_c, 10, 62, 96
11, 54700, Note_on_c, 10, 62, 0
11, 54720, Note_on_c, 10, 62, 96
11, 54760, Note_on_c, 10, 62, 0
11, 54780, Note_on_c, 10, 62, 96
11, 54820, Note_on_c, 10, 62, 0
11, 54840, Note_on_c, 10, 62, 96
11, 54880, Note_on_c, 10, 62, 0
11, 54900, Note_on_c, 10, 62, 96
11, 54940, Note_on_c, 10, 62, 0
11, 54960, Note_on_c, 10, 62, 96
11, 55000, Note_on_c, 10, 62, 0
11, 55020, Note_on_c, 10, 62, 96
11, 55060, Note_on_c, 10, 62, 0
11, 55080, Note_on_c, 10, 62, 96
11, 55120, Note_on_c, 10, 62, 0
11, 55140, Note_on_c, 10, 62, 96
11, 55180, Note_on_c, 10, 62, 0
11, 55200, Note_on_c, 10, 62, 96
11, 55240, Note_on_c, 10, 62, 0
11, 55260, Note_on_c, 10, 62, 96
11, 55300, Note_on_c, 10, 62, 0
11, 55320, Note_on_c, 10, 62, 96
11, 55360, Note_on_c, 10, 62, 0
11, 55380, Note_on_c, 10, 62, 96
11, 55420, Note_on_c, 10, 62, 0
11, 55440, Note_on_c, 10, 62, 96
11, 55480, Note_on_c, 10, 62, 0
11, 55500, Note_on_c, 10, 62, 96
11, 55540, Note_on_c, 10, 62, 0
11, 55560, Note_on_c, 10, 62, 96
11, 55600, Note_on_c, 10, 62, 0
11, 55620, Note_on_c, 10, 62, 96
11, 55660, Note_on_c, 10, 62, 0
11, 55680, Note_on_c, 10, 62, 64
11, 55720, Note_on_c, 10, 62, 0
11, 55740, Note_on_c, 10, 62, 64
11, 55780, Note_on_c, 10, 62, 0
11, 55800, Note_on_c, 10, 62, 64
11, 55840, Note_on_c, 10, 62, 0
11, 55860, Note_on_c, 10, 62, 64
11, 55900, Note_on_c, 10, 62, 0
11, 55920, Note_on_c, 10, 62, 64
11, 55960, Note_on_c, 10, 62, 0
11, 55980, Note_on_c, 10, 62, 64
11, 56020, Note_on_c, 10, 62, 0
11, 56040, Note_on_c, 10, 62, 64
11, 56080, Note_on_c, 10, 62, 0
11, 56100, Note_on_c, 10, 62, 64
11, 56140, Note_on_c, 10, 62, 0
11, 56160, Note_on_c, 10, 62, 64
11, 56200, Note_on_c, 10, 62, 0
11, 56220, Note_on_c, 10, 62, 64
11, 56260, Note_on_c, 10, 62, 0
11, 56280, Note_on_c, 10, 62, 64
11, 56320, Note_on_c, 10, 62, 0
11, 56340, Note_on_c, 10, 62, 64
11, 56380, Note_on_c, 10, 62, 0
11, 56400, Note_on_c, 10, 62, 64
11, 56440, Note_on_c, 10, 62, 0
11, 56460, Note_on_c, 10, 62, 64
11, 56500, Note_on_c, 10, 62, 0
11, 56520, Note_on_c, 10, 62, 64
11, 56560, Note_on_c, 10, 62, 0
11, 56580, Note_on_c, 10, 62, 64
11, 56620, Note_on_c, 10, 62, 0
11, 56640, Note_on_c, 10, 62, 64
11, 56680, Note_on_c, 10, 62, 0
11, 56700, Note_on_c, 10, 62, 64
11, 56740, Note_on_c, 10, 62, 0
11, 56760, Note_on_c, 10, 62, 64
11, 56800, Note_on_c, 10, 62, 0
11, 56820, Note_on_c, 10, 62, 64
11, 56860, Note_on_c, 10, 62, 0
11, 56880, Note_on_c, 10, 62, 64
11, 56920, Note_on_c, 10, 62, 0
11, 56940, Note_on_c, 10, 62, 64
11, 56980, Note_on_c, 10, 62, 0
11, 57000, Note_on_c, 10, 62, 64
11, 57040, Note_on_c, 10, 62, 0
11, 57060, Note_on_c, 10, 62, 64
11, 57100, Note_on_c, 10, 62, 0
11, 57120, Note_on_c, 10, 62, 64
11, 57160, Note_on_c, 10, 62, 0
11, 57180, Note_on_c, 10, 62, 64
11, 57220, Note_on_c, 10, 62, 0
11, 57240, Note_on_c, 10, 62, 64
11, 57280, Note_on_c, 10, 62, 0
11, 57300, Note_on_c, 10, 62, 64
11, 57340, Note_on_c, 10, 62, 0
11, 57360, Note_on_c, 10, 62, 64
11, 57400, Note_on_c, 10, 62, 0
11, 57420, Note_on_c, 10, 62, 64
11, 57460, Note_on_c, 10, 62, 0
11, 57480, Note_on_c, 10, 62, 64
11, 57520, Note_on_c, 10, 62, 0
11, 57540, Note_on_c, 10, 62, 64
11, 57580, Note_on_c, 10, 62, 0
11, 57600, Note_on_c, 10, 62, 64
11, 57640, Note_on_c, 10, 62, 0
11, 57660, Note_on_c, 10, 62, 64
11, 57700, Note_on_c, 10, 62, 0
11, 57720, Note_on_c, 10, 62, 64
11, 57760, Note_on_c, 10, 62, 0
11, 57780, Note_on_c, 10, 62, 64
11, 57820, Note_on_c, 10, 62, 0
11, 57840, Note_on_c, 10, 62, 64
11, 57880, Note_on_c, 10, 62, 0
11, 57900, Note_on_c, 10, 62, 64
11, 57940, Note_on_c, 10, 62, 0
11, 57960, Note_on_c, 10, 62, 64
11, 58000, Note_on_c, 10, 62, 0
11, 58020, Note_on_c, 10, 62, 64
11, 58060, Note_on_c, 10, 62, 0
11, 58080, Note_on_c, 10, 62, 64
11, 58120, Note_on_c, 10, 62, 0
11, 58140, Note_on_c, 10, 62, 64
11, 58180, Note_on_c, 10, 62, 0
11, 58200, Note_on_c, 10, 62, 64
11, 58240, Note_on_c, 10, 62, 0
11, 58260, Note_on_c, 10, 62, 64
11, 58300, Note_on_c, 10, 62, 0
11, 58320, Note_on_c, 10, 62, 64
11, 58360, Note_on_c, 10, 62, 0
11, 58380, Note_on_c, 10, 62, 64
11, 58420, Note_on_c, 10, 62, 0
11, 58440, Note_on_c, 10, 62, 64
11, 58480, Note_on_c, 10, 62, 0
11, 58500, Note_on_c, 10, 62, 64
11, 58540, Note_on_c, 10, 62, 0
11, 58560, Note_on_c, 10, 61, 64
11, 58600, Note_on_c, 10, 61, 0
11, 58620, Note_on_c, 10, 61, 64
11, 58660, Note_on_c, 10, 61, 0
11, 58680, Note_on_c, 10, 61, 64
11, 58720, Note_on_c, 10, 61, 0
11, 58740, Note_on_c, 10, 61, 64
11, 58780, Note_on_c, 10, 61, 0
11, 58800, Note_on_c, 10, 61, 64
11, 58840, Note_on_c, 10, 61, 0
11, 58860, Note_on_c, 10, 61, 64
11, 58900, Note_on_c, 10, 61, 0
11, 58920, Note_on_c, 10, 61, 64
11, 58960, Note_on_c, 10, 61, 0
11, 58980, Note_on_c, 10, 61, 64
11, 59020, Note_on_c, 10, 61, 0
11, 59040, Note_on_c, 10, 61, 64
11, 59080, Note_on_c, 10, 61, 0
11, 59100, Note_on_c, 10, 61, 64
11, 59140, Note_on_c, 10, 61, 0
11, 59160, Note_on_c, 10, 61, 64
11, 59200, Note_on_c, 10, 61, 0
11, 59220, Note_on_c, 10, 61, 64
11, 59260, Note_on_c, 10, 61, 0
11, 59280, Note_on_c, 10, 61, 64
11, 59320, Note_on_c, 10, 61, 0
11, 59340, Note_on_c, 10, 61, 64
11, 59380, Note_on_c, 10, 61, 0
11, 59400, Note_on_c, 10, 61, 64
11, 59440, Note_on_c, 10, 61, 0
11, 59460, Note_on_c, 10, 61, 64
11, 59500, Note_on_c, 10, 61, 0
11, 59520, Note_on_c, 10, 62, 64
11, 59710, Note_on_c, 10, 62, 0
11, 59760, Note_on_c, 10, 62, 64
11, 59950, Note_on_c, 10, 62, 0
11, 60000, Note_on_c, 10, 62, 64
11, 60190, Note_on_c, 10, 62, 0
11, 60240, Note_on_c, 10, 62, 64
11, 60430, Note_on_c, 10, 62, 0
11, 60480, Note_on_c, 10, 62, 64
11, 60670, Note_on_c, 10, 62, 0
11, 60720, Note_on_c, 10, 62, 64
11, 60910, Note_on_c, 10, 62, 0
11, 60960, Note_on_c, 10, 62, 64
11, 61150, Note_on_c, 10, 62, 0
11, 61200, Note_on_c, 10, 62, 64
11, 61390, Note_on_c, 10, 62, 0
11, 61440, Note_on_c, 10, 62, 64
11, 61630, Note_on_c, 10, 62, 0
11, 61680, Note_on_c, 10, 62, 64
11, 61870, Note_on_c, 10, 62, 0
11, 61920, Note_on_c, 10, 62, 64
11, 62110, Note_on_c, 10, 62, 0
11, 62160, Note_on_c, 10, 62, 64
11, 62350, Note_on_c, 10, 62, 0
11, 62400, Note_on_c, 10, 62, 64
11, 62590, Note_on_c, 10, 62, 0
11, 62640, Note_on_c, 10, 62, 64
11, 62830, Note_on_c, 10, 62, 0
11, 62880, Note_on_c, 10, 62, 64
11, 63070, Note_on_c, 10, 62, 0
11, 63120, Note_on_c, 10, 62, 64
11, 63310, Note_on_c, 10, 62, 0
11, 63360, Note_on_c, 10, 62, 64
11, 63550, Note_on_c, 10, 62, 0
11, 63600, Note_on_c, 10, 62, 64
11, 63790, Note_on_c, 10, 62, 0
11, 63840, Note_on_c, 10, 62, 64
11, 64030, Note_on_c, 10, 62, 0
11, 64080, Note_on_c, 10, 62, 64
11, 64270, Note_on_c, 10, 62, 0
11, 64320, Note_on_c, 10, 62, 64
11, 64510, Note_on_c, 10, 62, 0
11, 64560, Note_on_c, 10, 62, 64
11, 64750, Note_on_c, 10, 62, 0
11, 64800, Note_on_c, 10, 62, 64
11, 64990, Note_on_c, 10, 62, 0
11, 65040, Note_on_c, 10, 62, 64
11, 65230, Note_on_c, 10, 62, 0
11, 65280, Note_on_c, 10, 62, 64
11, 65470, Note_on_c, 10, 62, 0
11, 65520, Note_on_c, 10, 62, 64
11, 65710, Note_on_c, 10, 62, 0
11, 65760, Note_on_c, 10, 62, 64
11, 65950, Note_on_c, 10, 62, 0
11, 66000, Note_on_c, 10, 62, 64
11, 66190, Note_on_c, 10, 62, 0
11, 66240, Note_on_c, 10, 62, 64
11, 66430, Note_on_c, 10, 62, 0
11, 66480, Note_on_c, 10, 62, 64
11, 66670, Note_on_c, 10, 62, 0
11, 66720, Note_on_c, 10, 62, 64
11, 66910, Note_on_c, 10, 62, 0
11, 66960, Note_on_c, 10, 62, 64
11, 67150, Note_on_c, 10, 62, 0
11, 67200, Note_on_c, 10, 62, 64
11, 67390, Note_on_c, 10, 62, 0
11, 67440, Note_on_c, 10, 62, 64
11, 67630, Note_on_c, 10, 62, 0
11, 67680, Note_on_c, 10, 62, 64
11, 67870, Note_on_c, 10, 62, 0
11, 67920, Note_on_c, 10, 62, 64
11, 68110, Note_on_c, 10, 62, 0
11, 68160, Note_on_c, 10, 62, 64
11, 68350, Note_on_c, 10, 62, 0
11, 68400, Note_on_c, 10, 62, 64
11, 68590, Note_on_c, 10, 62, 0
11, 68640, Note_on_c, 10, 62, 64
11, 68830, Note_on_c, 10, 62, 0
11, 68880, Note_on_c, 10, 62, 64
11, 69070, Note_on_c, 10, 62, 0
11, 69120, Note_on_c, 10, 71, 64
11, 70080, Note_on_c, 10, 71, 0
11, 70080, Note_on_c, 10, 69, 64
11, 70840, Note_on_c, 10, 69, 0
11, 71040, Note_on_c, 10, 67, 64
11, 72000, Note_on_c, 10, 67, 0
11, 72000, Note_on_c, 10, 64, 64
11, 72760, Note_on_c, 10, 64, 0
11, 72960, Note_on_c, 10, 62, 64
11, 73340, Note_on_c, 10, 62, 0
11, 76800, Note_on_c, 10, 62, 64
11, 76990, Note_on_c, 10, 62, 0
11, 77040, Note_on_c, 10, 62, 64
11, 77230, Note_on_c, 10, 62, 0
11, 77280, Note_on_c, 10, 62, 64
11, 77470, Note_on_c, 10, 62, 0
11, 77520, Note_on_c, 10, 62, 64
11, 77710, Note_on_c, 10, 62, 0
11, 77760, Note_on_c, 10, 62, 64
11, 77950, Note_on_c, 10, 62, 0
11, 78000, Note_on_c, 10, 62, 64
11, 78190, Note_on_c, 10, 62, 0
11, 78240, Note_on_c, 10, 62, 64
11, 78430, Note_on_c, 10, 62, 0
11, 78480, Note_on_c, 10, 62, 64
11, 78670, Note_on_c, 10, 62, 0
11, 78720, Note_on_c, 10, 62, 64
11, 78910, Note_on_c, 10, 62, 0
11, 78960, Note_on_c, 10, 62, 64
11, 79150, Note_on_c, 10, 62, 0
11, 79200, Note_on_c, 10, 62, 64
11, 79390, Note_on_c, 10, 62, 0
11, 79440, Note_on_c, 10, 62, 64
11, 79630, Note_on_c, 10, 62, 0
11, 79680, Note_on_c, 10, 62, 64
11, 79870, Note_on_c, 10, 62, 0
11, 79920, Note_on_c, 10, 62, 64
11, 80110, Note_on_c, 10, 62, 0
11, 80160, Note_on_c, 10, 62, 64
11, 80350, Note_on_c, 10, 62, 0
11, 80400, Note_on_c, 10, 62, 64
11, 80590, Note_on_c, 10, 62, 0
11, 80640, Note_on_c, 10, 62, 64
11, 80830, Note_on_c, 10, 62, 0
11, 80880, Note_on_c, 10, 62, 64
11, 81070, Note_on_c, 10, 62, 0
11, 81120, Note_on_c, 10, 62, 64
11, 81310, Note_on_c, 10, 62, 0
11, 81360, Note_on_c, 10, 62, 64
11, 81550, Note_on_c, 10, 62, 0
11, 81600, Note_on_c, 10, 62, 64
11, 81790, Note_on_c, 10, 62, 0
11, 81840, Note_on_c, 10, 62, 64
11, 82030, Note_on_c, 10, 62, 0
11, 82080, Note_on_c, 10, 62, 64
11, 82270, Note_on_c, 10, 62, 0
11, 82320, Note_on_c, 10, 62, 64
11, 82510, Note_on_c, 10, 62, 0
11, 82560, Note_on_c, 10, 62, 64
11, 82750, Note_on_c, 10, 62, 0
11, 82800, Note_on_c, 10, 62, 64
11, 82990, Note_on_c, 10, 62, 0
11, 83040, Note_on_c, 10, 62, 64
11, 83230, Note_on_c, 10, 62, 0
11, 83280, Note_on_c, 10, 62, 64
11, 83470, Note_on_c, 10, 62, 0
11, 83520, Note_on_c, 10, 62, 64
11, 83710, Note_on_c, 10, 62, 0
11, 83760, Note_on_c, 10, 62, 64
11, 83950, Note_on_c, 10, 62, 0
11, 84000, Note_on_c, 10, 62, 64
11, 84190, Note_on_c, 10, 62, 0
11, 84240, Note_on_c, 10, 62, 64
11, 84430, Note_on_c, 10, 62, 0
11, 84480, Note_on_c, 10, 61, 64
11, 85440, Note_on_c, 10, 61, 0
11, 85440, Note_on_c, 10, 62, 64
11, 86200, Note_on_c, 10, 62, 0
11, 86400, Note_on_c, 10, 67, 64
11, 87360, Note_on_c, 10, 67, 0
11, 87360, Note_on_c, 10, 64, 64
11, 88120, Note_on_c, 10, 64, 0
11, 88320, Note_on_c, 10, 62, 64
11, 88700, Note_on_c, 10, 62, 0
11, 92160, Note_on_c, 10, 62, 96
11, 92220, Note_on_c, 10, 62, 0
11, 92400, Note_on_c, 10, 66, 96
11, 92460, Note_on_c, 10, 66, 0
11, 92640, Note_on_c, 10, 57, 96
11, 92700, Note_on_c, 10, 57, 0
11, 92880, Note_on_c, 10, 61, 96
11, 92940, Note_on_c, 10, 61, 0
11, 93120, Note_on_c, 10, 62, 96
11, 93180, Note_on_c, 10, 62, 0
11, 93360, Note_on_c, 10, 66, 96
11, 93420, Note_on_c, 10, 66, 0
11, 93600, Note_on_c, 10, 67, 96
11, 93660, Note_on_c, 10, 67, 0
11, 93840, Note_on_c, 10, 64, 96
11, 93900, Note_on_c, 10, 64, 0
11, 94080, Note_on_c, 10, 62, 96
11, 94140, Note_on_c, 10, 62, 0
11, 94320, Note_on_c, 10, 66, 96
11, 94380, Note_on_c, 10, 66, 0
11, 94560, Note_on_c, 10, 57, 96
11, 94620, Note_on_c, 10, 57, 0
11, 94800, Note_on_c, 10, 61, 96
11, 94860, Note_on_c, 10, 61, 0
11, 95040, Note_on_c, 10, 62, 96
11, 95100, Note_on_c, 10, 62, 0
11, 95280, Note_on_c, 10, 66, 96
11, 95340, Note_on_c, 10, 66, 0
11, 95520, Note_on_c, 10, 67, 96
11, 95580, Note_on_c, 10, 67, 0
11, 95760, Note_on_c, 10, 64, 96
11, 95820, Note_on_c, 10, 64, 0
11, 96000, Note_on_c, 10, 62, 96
11, 96240, Note_on_c, 10, 62, 0
11, 96240, Note_on_c, 10, 57, 96
11, 96430, Note_on_c, 10, 57, 0
11, 96480, Note_on_c, 10, 66, 96
11, 96540, Note_on_c, 10, 66, 0
11, 96720, Note_on_c, 10, 66, 96
11, 96780, Note_on_c, 10, 66, 0
11, 96960, Note_on_c, 10, 66, 96
11, 97200, Note_on_c, 10, 66, 0
11, 97200, Note_on_c, 10, 62, 96
11, 97390, Note_on_c, 10, 62, 0
11, 97440, Note_on_c, 10, 69, 96
11, 97500, Note_on_c, 10, 69, 0
11, 97680, Note_on_c, 10, 69, 96
11, 97740, Note_on_c, 10, 69, 0
11, 97920, Note_on_c, 10, 69, 96
11, 98160, Note_on_c, 10, 69, 0
11, 98160, Note_on_c, 10, 66, 96
11, 98350, Note_on_c, 10, 66, 0
11, 98400, Note_on_c, 10, 74, 96
11, 98460, Note_on_c, 10, 74, 0
11, 98640, Note_on_c, 10, 74, 96
11, 98700, Note_on_c, 10, 74, 0
11, 98880, Note_on_c, 10, 74, 96
11, 99070, Note_on_c, 10, 74, 0
11, 99120, Note_on_c, 10, 69, 96
11, 99310, Note_on_c, 10, 69, 0
11, 99360, Note_on_c, 10, 66, 96
11, 99550, Note_on_c, 10, 66, 0
11, 99600, Note_on_c, 10, 62, 96
11, 99790, Note_on_c, 10, 62, 0
11, 99840, Note_on_c, 10, 69, 96
11, 100030, Note_on_c, 10, 69, 0
11, 100080, Note_on_c, 10, 69, 96
11, 100270, Note_on_c, 10, 69, 0
11, 100320, Note_on_c, 10, 69, 96
11, 100510, Note_on_c, 10, 69, 0
11, 100560, Note_on_c, 10, 69, 96
11, 100750, Note_on_c, 10, 69, 0
11, 100800, Note_on_c, 10, 69, 96
11, 100990, Note_on_c, 10, 69, 0
11, 101040, Note_on_c, 10, 69, 96
11, 101230, Note_on_c, 10, 69, 0
11, 101280, Note_on_c, 10, 69, 96
11, 101470, Note_on_c, 10, 69, 0
11, 101520, Note_on_c, 10, 69, 96
11, 101710, Note_on_c, 10, 69, 0
11, 101760, Note_on_c, 10, 69, 96
11, 101950, Note_on_c, 10, 69, 0
11, 102000, Note_on_c, 10, 69, 96
11, 102190, Note_on_c, 10, 69, 0
11, 102240, Note_on_c, 10, 69, 96
11, 102430, Note_on_c, 10, 69, 0
11, 102480, Note_on_c, 10, 69, 96
11, 102670, Note_on_c, 10, 69, 0
11, 102720, Note_on_c, 10, 69, 96
11, 102910, Note_on_c, 10, 69, 0
11, 102960, Note_on_c, 10, 69, 96
11, 103150, Note_on_c, 10, 69, 0
11, 103200, Note_on_c, 10, 69, 96
11, 103390, Note_on_c, 10, 69, 0
11, 103440, Note_on_c, 10, 69, 96
11, 103630, Note_on_c, 10, 69, 0
11, 103680, Note_on_c, 10, 69, 96
11, 103870, Note_on_c, 10, 69, 0
11, 103920, Note_on_c, 10, 69, 96
11, 104110, Note_on_c, 10, 69, 0
11, 104160, Note_on_c, 10, 69, 96
11, 104350, Note_on_c, 10, 69, 0
11, 104400, Note_on_c, 10, 69, 96
11, 104590, Note_on_c, 10, 69, 0
11, 104640, Note_on_c, 10, 69, 96
11, 104830, Note_on_c, 10, 69, 0
11, 104880, Note_on_c, 10, 69, 96
11, 105070, Note_on_c, 10, 69, 0
11, 105120, Note_on_c, 10, 69, 96
11, 105310, Note_on_c, 10, 69, 0
11, 105360, Note_on_c, 10, 69, 96
11, 105550, Note_on_c, 10, 69, 0
11, 105600, Note_on_c, 10, 69, 96
11, 105980, Note_on_c, 10, 69, 0
11, 106080, Note_on_c, 10, 57, 96
11, 106270, Note_on_c, 10, 57, 0
11, 106320, Note_on_c, 10, 57, 96
11, 106510, Note_on_c, 10, 57, 0
11, 106560, Note_on_c, 10, 57, 96
11, 106940, Note_on_c, 10, 57, 0
11, 107520, Note_on_c, 10, 57, 96
11, 107710, Note_on_c, 10, 57, 0
11, 107760, Note_on_c, 10, 69, 96
11, 107950, Note_on_c, 10, 69, 0
11, 108000, Note_on_c, 10, 69, 96
11, 108190, Note_on_c, 10, 69, 0
11, 108240, Note_on_c, 10, 69, 96
11, 108430, Note_on_c, 10, 69, 0
11, 108480, Note_on_c, 10, 69, 96
11, 108860, Note_on_c, 10, 69, 0
11, 111360, Note_on_c, 10, 59, 96
11, 111550, Note_on_c, 10, 59, 0
11, 111600, Note_on_c, 10, 71, 96
11, 111790, Note_on_c, 10, 71, 0
11, 111840, Note_on_c, 10, 71, 96
11, 112030, Note_on_c, 10, 71, 0
11, 112080, Note_on_c, 10, 71, 96
11, 112270, Note_on_c, 10, 71, 0
11, 112320, Note_on_c, 10, 71, 96
11, 112700, Note_on_c, 10, 71, 0
11, 115200, Note_on_c, 10, 52, 96
11, 115390, Note_on_c, 10, 52, 0
11, 115440, Note_on_c, 10, 64, 96
11, 115630, Note_on_c, 10, 64, 0
11, 115680, Note_on_c, 10, 64, 96
11, 115870, Note_on_c, 10, 64, 0
11, 115920, Note_on_c, 10, 64, 96
11, 116110, Note_on_c, 10, 64, 0
11, 116160, Note_on_c, 10, 64, 96
11, 116540, Note_on_c, 10, 64, 0
11, 128640, Note_on_c, 10, 65, 96
11, 128830, Note_on_c, 10, 65, 0
11, 128880, Note_on_c, 10, 65, 96
11, 129070, Note_on_c, 10, 65, 0
11, 129120, Note_on_c, 10, 65, 96
11, 129310, Note_on_c, 10, 65, 0
11, 129360, Note_on_c, 10, 65, 96
11, 129550, Note_on_c, 10, 65, 0
11, 129600, Note_on_c, 10, 65, 96
11, 129790, Note_on_c, 10, 65, 0
11, 129840, Note_on_c, 10, 65, 96
11, 130030, Note_on_c, 10, 65, 0
11, 130080, Note_on_c, 10, 65, 96
11, 130270, Note_on_c, 10, 65, 0
11, 130320, Note_on_c, 10, 65, 96
11, 130510, Note_on_c, 10, 65, 0
11, 130560, Note_on_c, 10, 64, 96
11, 130750, Note_on_c, 10, 64, 0
11, 130800, Note_on_c, 10, 64, 96
11, 130990, Note_on_c, 10, 64, 0
11, 131040, Note_on_c, 10, 64, 96
11, 131230, Note_on_c, 10, 64, 0
11, 131280, Note_on_c, 10, 64, 96
11, 131470, Note_on_c, 10, 64, 0
11, 131520, Note_on_c, 10, 64, 96
11, 131710, Note_on_c, 10, 64, 0
11, 131760, Note_on_c, 10, 64, 96
11, 131950, Note_on_c, 10, 64, 0
11, 132000, Note_on_c, 10, 64, 96
11, 132190, Note_on_c, 10, 64, 0
11, 132240, Note_on_c, 10, 64, 96
11, 132430, Note_on_c, 10, 64, 0
11, 132480, Note_on_c, 10, 65, 96
11, 132670, Note_on_c, 10, 65, 0
11, 132720, Note_on_c, 10, 65, 96
11, 132910, Note_on_c, 10, 65, 0
11, 132960, Note_on_c, 10, 65, 96
11, 133150, Note_on_c, 10, 65, 0
11, 133200, Note_on_c, 10, 65, 96
11, 133390, Note_on_c, 10, 65, 0
11, 133440, Note_on_c, 10, 65, 96
11, 133630, Note_on_c, 10, 65, 0
11, 133680, Note_on_c, 10, 65, 96
11, 133870, Note_on_c, 10, 65, 0
11, 133920, Note_on_c, 10, 65, 96
11, 134110, Note_on_c, 10, 65, 0
11, 134160, Note_on_c, 10, 65, 96
11, 134350, Note_on_c, 10, 65, 0
11, 134400, Note_on_c, 10, 64, 96
11, 134590, Note_on_c, 10, 64, 0
11, 134640, Note_on_c, 10, 64, 96
11, 134830, Note_on_c, 10, 64, 0
11, 134880, Note_on_c, 10, 64, 96
11, 135070, Note_on_c, 10, 64, 0
11, 135120, Note_on_c, 10, 64, 96
11, 135310, Note_on_c, 10, 64, 0
11, 135360, Note_on_c, 10, 64, 96
11, 135550, Note_on_c, 10, 64, 0
11, 135600, Note_on_c, 10, 64, 96
11, 135790, Note_on_c, 10, 64, 0
11, 135840, Note_on_c, 10, 64, 96
11, 136030, Note_on_c, 10, 64, 0
11, 136080, Note_on_c, 10, 64, 96
11, 136270, Note_on_c, 10, 64, 0
11, 136320, Note_on_c, 10, 65, 96
11, 136510, Note_on_c, 10, 65, 0
11, 136560, Note_on_c, 10, 65, 96
11, 136750, Note_on_c, 10, 65, 0
11, 136800, Note_on_c, 10, 65, 96
11, 136990, Note_on_c, 10, 65, 0
11, 137040, Note_on_c, 10, 65, 96
11, 137230, Note_on_c, 10, 65, 0
11, 137280, Note_on_c, 10, 65, 96
11, 137470, Note_on_c, 10, 65, 0
11, 137520, Note_on_c, 10, 65, 96
11, 137710, Note_on_c, 10, 65, 0
11, 137760, Note_on_c, 10, 65, 96
11, 137950, Note_on_c, 10, 65, 0
11, 138000, Note_on_c, 10, 65, 96
11, 138190, Note_on_c, 10, 65, 0
11, 138240, Note_on_c, 10, 66, 96
11, 138430, Note_on_c, 10, 66, 0
11, 138480, Note_on_c, 10, 66, 96
11, 138670, Note_on_c, 10, 66, 0
11, 138720, Note_on_c, 10, 66, 96
11, 138910, Note_on_c, 10, 66, 0
11, 138960, Note_on_c, 10, 66, 96
11, 139150, Note_on_c, 10, 66, 0
11, 139200, Note_on_c, 10, 66, 96
11, 139390, Note_on_c, 10, 66, 0
11, 139440, Note_on_c, 10, 66, 96
11, 139630, Note_on_c, 10, 66, 0
11, 139680, Note_on_c, 10, 66, 96
11, 139870, Note_on_c, 10, 66, 0
11, 139920, Note_on_c, 10, 66, 96
11, 140110, Note_on_c, 10, 66, 0
11, 140160, Note_on_c, 10, 64, 96
11, 140350, Note_on_c, 10, 64, 0
11, 140400, Note_on_c, 10, 64, 96
11, 140590, Note_on_c, 10, 64, 0
11, 140640, Note_on_c, 10, 64, 96
11, 140830, Note_on_c, 10, 64, 0
11, 140880, Note_on_c, 10, 64, 96
11, 141070, Note_on_c, 10, 64, 0
11, 141120, Note_on_c, 10, 64, 96
11, 141310, Note_on_c, 10, 64, 0
11, 141360, Note_on_c, 10, 64, 96
11, 141550, Note_on_c, 10, 64, 0
11, 141600, Note_on_c, 10, 64, 96
11, 141790, Note_on_c, 10, 64, 0
11, 141840, Note_on_c, 10, 64, 96
11, 142030, Note_on_c, 10, 64, 0
11, 142080, Note_on_c, 10, 64, 96
11, 142270, Note_on_c, 10, 64, 0
11, 142320, Note_on_c, 10, 64, 96
11, 142510, Note_on_c, 10, 64, 0
11, 142560, Note_on_c, 10, 64, 96
11, 142750, Note_on_c, 10, 64, 0
11, 142800, Note_on_c, 10, 64, 96
11, 142990, Note_on_c, 10, 64, 0
11, 143040, Note_on_c, 10, 64, 96
11, 143230, Note_on_c, 10, 64, 0
11, 143280, Note_on_c, 10, 64, 96
11, 143470, Note_on_c, 10, 64, 0
11, 143520, Note_on_c, 10, 64, 96
11, 143710, Note_on_c, 10, 64, 0
11, 143760, Note_on_c, 10, 64, 96
11, 143950, Note_on_c, 10, 64, 0
11, 144000, Note_on_c, 10, 64, 96
11, 144380, Note_on_c, 10, 64, 0
11, 144960, Note_on_c, 10, 52, 96
11, 145340, Note_on_c, 10, 52, 0
11, 145440, Note_on_c, 10, 52, 96
11, 145820, Note_on_c, 10, 52, 0
11, 145920, Note_on_c, 10, 52, 96
11, 146680, Note_on_c, 10, 52, 0
11, 147840, Note_on_c, 10, 62, 101
11, 148990, Note_on_c, 10, 62, 0
11, 149280, Note_on_c, 10, 61, 96
11, 149400, Note_on_c, 10, 61, 0
11, 149760, Note_on_c, 10, 59, 96
11, 149880, Note_on_c, 10, 59, 0
11, 150240, Note_on_c, 10, 57, 96
11, 150360, Note_on_c, 10, 57, 0
11, 150720, Note_on_c, 10, 56, 96
11, 150840, Note_on_c, 10, 56, 0
11, 151680, Note_on_c, 10, 71, 64
11, 151680, Note_on_c, 10, 68, 64
11, 152060, Note_on_c, 10, 68, 0
11, 152060, Note_on_c, 10, 71, 0
11, 152640, Note_on_c, 10, 71, 64
11, 152640, Note_on_c, 10, 68, 64
11, 153020, Note_on_c, 10, 68, 0
11, 153020, Note_on_c, 10, 71, 0
11, 153600, Note_on_c, 10, 69, 64
11, 153980, Note_on_c, 10, 69, 0
11, 154080, Note_on_c, 10, 69, 64
11, 154460, Note_on_c, 10, 69, 0
11, 154560, Note_on_c, 10, 69, 64
11, 154940, Note_on_c, 10, 69, 0
11, 155520, Note_on_c, 10, 62, 101
11, 156670, Note_on_c, 10, 62, 0
11, 156960, Note_on_c, 10, 61, 64
11, 157080, Note_on_c, 10, 61, 0
11, 157440, Note_on_c, 10, 59, 64
11, 157560, Note_on_c, 10, 59, 0
11, 157920, Note_on_c, 10, 57, 64
11, 158040, Note_on_c, 10, 57, 0
11, 158400, Note_on_c, 10, 56, 64
11, 158520, Note_on_c, 10, 56, 0
11, 159360, Note_on_c, 10, 71, 64
11, 159360, Note_on_c, 10, 68, 64
11, 159740, Note_on_c, 10, 68, 0
11, 159740, Note_on_c, 10, 71, 0
11, 160320, Note_on_c, 10, 71, 64
11, 160320, Note_on_c, 10, 68, 64
11, 160700, Note_on_c, 10, 68, 0
11, 160700, Note_on_c, 10, 71, 0
11, 161280, Note_on_c, 10, 69, 64
11, 161660, Note_on_c, 10, 69, 0
11, 161760, Note_on_c, 10, 69, 64
11, 162140, Note_on_c, 10, 69, 0
11, 162240, Note_on_c, 10, 69, 64
11, 162620, Note_on_c, 10, 69, 0
11, 163200, Note_on_c, 10, 62, 96
11, 164350, Note_on_c, 10, 62, 0
11, 164640, Note_on_c, 10, 61, 64
11, 164760, Note_on_c, 10, 61, 0
11, 165120, Note_on_c, 10, 59, 64
11, 165240, Note_on_c, 10, 59, 0
11, 165600, Note_on_c, 10, 57, 64
11, 165720, Note_on_c, 10, 57, 0
11, 166080, Note_on_c, 10, 56, 64
11, 166200, Note_on_c, 10, 56, 0
11, 167040, Note_on_c, 10, 62, 96
11, 168190, Note_on_c, 10, 62, 0
11, 168480, Note_on_c, 10, 60, 64
11, 168600, Note_on_c, 10, 60, 0
11, 168960, Note_on_c, 10, 59, 64
11, 169080, Note_on_c, 10, 59, 0
11, 169440, Note_on_c, 10, 57, 64
11, 169560, Note_on_c, 10, 57, 0
11, 169920, Note_on_c, 10, 56, 64
11, 170040, Note_on_c, 10, 56, 0
11, 170880, Note_on_c, 10, 62, 96
11, 172030, Note_on_c, 10, 62, 0
11, 172320, Note_on_c, 10, 60, 64
11, 172440, Note_on_c, 10, 60, 0
11, 172800, Note_on_c, 10, 59, 64
11, 172920, Note_on_c, 10, 59, 0
11, 173280, Note_on_c, 10, 57, 64
11, 173400, Note_on_c, 10, 57, 0
11, 173760, Note_on_c, 10, 55, 64
11, 173880, Note_on_c, 10, 55, 0
11, 174720, Note_on_c, 10, 55, 64
11, 182010, Note_on_c, 10, 55, 0
11, 182400, Note_on_c, 10, 52, 64
11, 184320, Note_on_c, 10, 52, 0
11, 184320, Note_on_c, 10, 53, 64
11, 185850, Note_on_c, 10, 53, 0
11, 186240, Note_on_c, 10, 52, 64
11, 189690, Note_on_c, 10, 52, 0
11, 190080, Note_on_c, 10, 57, 96
11, 190270, Note_on_c, 10, 57, 0
11, 190320, Note_on_c, 10, 69, 96
11, 190510, Note_on_c, 10, 69, 0
11, 190560, Note_on_c, 10, 69, 96
11, 190750, Note_on_c, 10, 69, 0
11, 190800, Note_on_c, 10, 69, 96
11, 190990, Note_on_c, 10, 69, 0
11, 191040, Note_on_c, 10, 69, 96
11, 191230, Note_on_c, 10, 69, 0
11, 191280, Note_on_c, 10, 69, 96
11, 191470, Note_on_c, 10, 69, 0
11, 191520, Note_on_c, 10, 69, 96
11, 191710, Note_on_c, 10, 69, 0
11, 191760, Note_on_c, 10, 69, 96
11, 191950, Note_on_c, 10, 69, 0
11, 192000, Note_on_c, 10, 69, 96
11, 192190, Note_on_c, 10, 69, 0
11, 192240, Note_on_c, 10, 69, 96
11, 192430, Note_on_c, 10, 69, 0
11, 192480, Note_on_c, 10, 69, 96
11, 192670, Note_on_c, 10, 69, 0
11, 192720, Note_on_c, 10, 69, 96
11, 192910, Note_on_c, 10, 69, 0
11, 192960, Note_on_c, 10, 69, 96
11, 193150, Note_on_c, 10, 69, 0
11, 193200, Note_on_c, 10, 69, 96
11, 193390, Note_on_c, 10, 69, 0
11, 193440, Note_on_c, 10, 69, 96
11, 193630, Note_on_c, 10, 69, 0
11, 193680, Note_on_c, 10, 69, 96
11, 193870, Note_on_c, 10, 69, 0
11, 193920, Note_on_c, 10, 62, 96
11, 194110, Note_on_c, 10, 62, 0
11, 194160, Note_on_c, 10, 62, 96
11, 194350, Note_on_c, 10, 62, 0
11, 194400, Note_on_c, 10, 62, 96
11, 194590, Note_on_c, 10, 62, 0
11, 194640, Note_on_c, 10, 62, 96
11, 194830, Note_on_c, 10, 62, 0
11, 194880, Note_on_c, 10, 62, 96
11, 195070, Note_on_c, 10, 62, 0
11, 195120, Note_on_c, 10, 62, 96
11, 195310, Note_on_c, 10, 62, 0
11, 195360, Note_on_c, 10, 62, 96
11, 195550, Note_on_c, 10, 62, 0
11, 195600, Note_on_c, 10, 62, 96
11, 195790, Note_on_c, 10, 62, 0
11, 195840, Note_on_c, 10, 74, 96
11, 196030, Note_on_c, 10, 74, 0
11, 196080, Note_on_c, 10, 74, 96
11, 196270, Note_on_c, 10, 74, 0
11, 196320, Note_on_c, 10, 74, 96
11, 196510, Note_on_c, 10, 74, 0
11, 196560, Note_on_c, 10, 74, 96
11, 196750, Note_on_c, 10, 74, 0
11, 196800, Note_on_c, 10, 74, 96
11, 196990, Note_on_c, 10, 74, 0
11, 197040, Note_on_c, 10, 74, 96
11, 197230, Note_on_c, 10, 74, 0
11, 197280, Note_on_c, 10, 74, 96
11, 197470, Note_on_c, 10, 74, 0
11, 197520, Note_on_c, 10, 74, 96
11, 197710, Note_on_c, 10, 74, 0
11, 197760, Note_on_c, 10, 76, 96
11, 197950, Note_on_c, 10, 76, 0
11, 198000, Note_on_c, 10, 76, 96
11, 198190, Note_on_c, 10, 76, 0
11, 198240, Note_on_c, 10, 76, 96
11, 198430, Note_on_c, 10, 76, 0
11, 198480, Note_on_c, 10, 76, 96
11, 198670, Note_on_c, 10, 76, 0
11, 198720, Note_on_c, 10, 76, 96
11, 198910, Note_on_c, 10, 76, 0
11, 198960, Note_on_c, 10, 76, 96
11, 199150, Note_on_c, 10, 76, 0
11, 199200, Note_on_c, 10, 76, 96
11, 199390, Note_on_c, 10, 76, 0
11, 199440, Note_on_c, 10, 76, 96
11, 199630, Note_on_c, 10, 76, 0
11, 199680, Note_on_c, 10, 64, 96
11, 199870, Note_on_c, 10, 64, 0
11, 199920, Note_on_c, 10, 64, 96
11, 200110, Note_on_c, 10, 64, 0
11, 200160, Note_on_c, 10, 64, 96
11, 200350, Note_on_c, 10, 64, 0
11, 200400, Note_on_c, 10, 64, 96
11, 200590, Note_on_c, 10, 64, 0
11, 200640, Note_on_c, 10, 64, 96
11, 200830, Note_on_c, 10, 64, 0
11, 200880, Note_on_c, 10, 64, 96
11, 201070, Note_on_c, 10, 64, 0
11, 201120, Note_on_c, 10, 64, 96
11, 201310, Note_on_c, 10, 64, 0
11, 201360, Note_on_c, 10, 64, 96
11, 201550, Note_on_c, 10, 64, 0
11, 201600, Note_on_c, 10, 69, 96
11, 201790, Note_on_c, 10, 69, 0
11, 201840, Note_on_c, 10, 69, 96
11, 202030, Note_on_c, 10, 69, 0
11, 202080, Note_on_c, 10, 69, 96
11, 202270, Note_on_c, 10, 69, 0
11, 202320, Note_on_c, 10, 69, 96
11, 202510, Note_on_c, 10, 69, 0
11, 202560, Note_on_c, 10, 69, 96
11, 202750, Note_on_c, 10, 69, 0
11, 202800, Note_on_c, 10, 69, 96
11, 202990, Note_on_c, 10, 69, 0
11, 203040, Note_on_c, 10, 69, 96
11, 203230, Note_on_c, 10, 69, 0
11, 203280, Note_on_c, 10, 69, 96
11, 203470, Note_on_c, 10, 69, 0
11, 203520, Note_on_c, 10, 69, 96
11, 203710, Note_on_c, 10, 69, 0
11, 203760, Note_on_c, 10, 69, 96
11, 203950, Note_on_c, 10, 69, 0
11, 204000, Note_on_c, 10, 69, 96
11, 204190, Note_on_c, 10, 69, 0
11, 204240, Note_on_c, 10, 69, 96
11, 204430, Note_on_c, 10, 69, 0
11, 204480, Note_on_c, 10, 69, 96
11, 204670, Note_on_c, 10, 69, 0
11, 204720, Note_on_c, 10, 69, 96
11, 204910, Note_on_c, 10, 69, 0
11, 204960, Note_on_c, 10, 69, 96
11, 205150, Note_on_c, 10, 69, 0
11, 205200, Note_on_c, 10, 69, 96
11, 205390, Note_on_c, 10, 69, 0
11, 205440, Note_on_c, 10, 62, 96
11, 205630, Note_on_c, 10, 62, 0
11, 205680, Note_on_c, 10, 62, 96
11, 205870, Note_on_c, 10, 62, 0
11, 205920, Note_on_c, 10, 62, 96
11, 206110, Note_on_c, 10, 62, 0
11, 206160, Note_on_c, 10, 62, 96
11, 206350, Note_on_c, 10, 62, 0
11, 206400, Note_on_c, 10, 62, 96
11, 206590, Note_on_c, 10, 62, 0
11, 206640, Note_on_c, 10, 62, 96
11, 206830, Note_on_c, 10, 62, 0
11, 206880, Note_on_c, 10, 62, 96
11, 207070, Note_on_c, 10, 62, 0
11, 207120, Note_on_c, 10, 62, 96
11, 207310, Note_on_c, 10, 62, 0
11, 207360, Note_on_c, 10, 74, 96
11, 207550, Note_on_c, 10, 74, 0
11, 207600, Note_on_c, 10, 74, 96
11, 207790, Note_on_c, 10, 74, 0
11, 207840, Note_on_c, 10, 74, 96
11, 208030, Note_on_c, 10, 74, 0
11, 208080, Note_on_c, 10, 74, 96
11, 208270, Note_on_c, 10, 74, 0
11, 208320, Note_on_c, 10, 74, 96
11, 208510, Note_on_c, 10, 74, 0
11, 208560, Note_on_c, 10, 74, 96
11, 208750, Note_on_c, 10, 74, 0
11, 208800, Note_on_c, 10, 74, 96
11, 208990, Note_on_c, 10, 74, 0
11, 209040, Note_on_c, 10, 74, 96
11, 209230, Note_on_c, 10, 74, 0
11, 209280, Note_on_c, 10, 76, 96
11, 209470, Note_on_c, 10, 76, 0
11, 209520, Note_on_c, 10, 76, 96
11, 209710, Note_on_c, 10, 76, 0
11, 209760, Note_on_c, 10, 76, 96
11, 209950, Note_on_c, 10, 76, 0
11, 210000, Note_on_c, 10, 76, 96
11, 210190, Note_on_c, 10, 76, 0
11, 210240, Note_on_c, 10, 76, 96
11, 210430, Note_on_c, 10, 76, 0
11, 210480, Note_on_c, 10, 76, 96
11, 210670, Note_on_c, 10, 76, 0
11, 210720, Note_on_c, 10, 76, 96
11, 210910, Note_on_c, 10, 76, 0
11, 210960, Note_on_c, 10, 76, 96
11, 211150, Note_on_c, 10, 76, 0
11, 211200, Note_on_c, 10, 64, 96
11, 211390, Note_on_c, 10, 64, 0
11, 211440, Note_on_c, 10, 64, 96
11, 211630, Note_on_c, 10, 64, 0
11, 211680, Note_on_c, 10, 64, 96
11, 211870, Note_on_c, 10, 64, 0
11, 211920, Note_on_c, 10, 64, 96
11, 212110, Note_on_c, 10, 64, 0
11, 212160, Note_on_c, 10, 64, 96
11, 212350, Note_on_c, 10, 64, 0
11, 212400, Note_on_c, 10, 64, 96
11, 212590, Note_on_c, 10, 64, 0
11, 212640, Note_on_c, 10, 64, 96
11, 212830, Note_on_c, 10, 64, 0
11, 212880, Note_on_c, 10, 64, 96
11, 213070, Note_on_c, 10, 64, 0
11, 213120, Note_on_c, 10, 69, 96
11, 213500, Note_on_c, 10, 69, 0
11, 214560, Note_on_c, 10, 64, 96
11, 214940, Note_on_c, 10, 64, 0
11, 215040, Note_on_c, 10, 69, 96
11, 215420, Note_on_c, 10, 69, 0
11, 216480, Note_on_c, 10, 64, 96
11, 216860, Note_on_c, 10, 64, 0
11, 216960, Note_on_c, 10, 69, 96
11, 217150, Note_on_c, 10, 69, 0
11, 217200, Note_on_c, 10, 73, 96
11, 217390, Note_on_c, 10, 73, 0
11, 217440, Note_on_c, 10, 64, 96
11, 217630, Note_on_c, 10, 64, 0
11, 217680, Note_on_c, 10, 68, 96
11, 217870, Note_on_c, 10, 68, 0
11, 217920, Note_on_c, 10, 69, 96
11, 218110, Note_on_c, 10, 69, 0
11, 218160, Note_on_c, 10, 73, 96
11, 218350, Note_on_c, 10, 73, 0
11, 218400, Note_on_c, 10, 74, 96
11, 218590, Note_on_c, 10, 74, 0
11, 218640, Note_on_c, 10, 71, 96
11, 218830, Note_on_c, 10, 71, 0
11, 218880, Note_on_c, 10, 69, 96
11, 219070, Note_on_c, 10, 69, 0
11, 219120, Note_on_c, 10, 73, 96
11, 219310, Note_on_c, 10, 73, 0
11, 219360, Note_on_c, 10, 64, 96
11, 219550, Note_on_c, 10, 64, 0
11, 219600, Note_on_c, 10, 68, 96
11, 219790, Note_on_c, 10, 68, 0
11, 219840, Note_on_c, 10, 69, 96
11, 220030, Note_on_c, 10, 69, 0
11, 220080, Note_on_c, 10, 73, 96
11, 220270, Note_on_c, 10, 73, 0
11, 220320, Note_on_c, 10, 74, 96
11, 220510, Note_on_c, 10, 74, 0
11, 220560, Note_on_c, 10, 71, 96
11, 220750, Note_on_c, 10, 71, 0
11, 220800, Note_on_c, 10, 69, 96
11, 221040, Note_on_c, 10, 69, 0
11, 221040, Note_on_c, 10, 64, 96
11, 221230, Note_on_c, 10, 64, 0
11, 221280, Note_on_c, 10, 73, 96
11, 221340, Note_on_c, 10, 73, 0
11, 221520, Note_on_c, 10, 73, 96
11, 221580, Note_on_c, 10, 73, 0
11, 221760, Note_on_c, 10, 73, 96
11, 222000, Note_on_c, 10, 73, 0
11, 222000, Note_on_c, 10, 69, 96
11, 222190, Note_on_c, 10, 69, 0
11, 222240, Note_on_c, 10, 76, 96
11, 222300, Note_on_c, 10, 76, 0
11, 222480, Note_on_c, 10, 76, 96
11, 222540, Note_on_c, 10, 76, 0
11, 222720, Note_on_c, 10, 76, 96
11, 222910, Note_on_c, 10, 76, 0
11, 222960, Note_on_c, 10, 76, 96
11, 223150, Note_on_c, 10, 76, 0
11, 223200, Note_on_c, 10, 76, 96
11, 223390, Note_on_c, 10, 76, 0
11, 223440, Note_on_c, 10, 76, 96
11, 223630, Note_on_c, 10, 76, 0
11, 223680, Note_on_c, 10, 76, 96
11, 223870, Note_on_c, 10, 76, 0
11, 223920, Note_on_c, 10, 73, 96
11, 224110, Note_on_c, 10, 73, 0
11, 224160, Note_on_c, 10, 69, 96
11, 224350, Note_on_c, 10, 69, 0
11, 224400, Note_on_c, 10, 64, 96
11, 224590, Note_on_c, 10, 64, 0
11, 224640, Note_on_c, 10, 73, 96
11, 224830, Note_on_c, 10, 73, 0
11, 224880, Note_on_c, 10, 73, 96
11, 225070, Note_on_c, 10, 73, 0
11, 225120, Note_on_c, 10, 73, 96
11, 225310, Note_on_c, 10, 73, 0
11, 225360, Note_on_c, 10, 73, 96
11, 225550, Note_on_c, 10, 73, 0
11, 225600, Note_on_c, 10, 73, 96
11, 225790, Note_on_c, 10, 73, 0
11, 225840, Note_on_c, 10, 69, 96
11, 226030, Note_on_c, 10, 69, 0
11, 226080, Note_on_c, 10, 64, 96
11, 226270, Note_on_c, 10, 64, 0
11, 226320, Note_on_c, 10, 61, 96
11, 226510, Note_on_c, 10, 61, 0
11, 226560, Note_on_c, 10, 69, 96
11, 226750, Note_on_c, 10, 69, 0
11, 226800, Note_on_c, 10, 69, 96
11, 226990, Note_on_c, 10, 69, 0
11, 227040, Note_on_c, 10, 69, 96
11, 227230, Note_on_c, 10, 69, 0
11, 227280, Note_on_c, 10, 69, 96
11, 227470, Note_on_c, 10, 69, 0
11, 227520, Note_on_c, 10, 69, 96
11, 227710, Note_on_c, 10, 69, 0
11, 227760, Note_on_c, 10, 64, 96
11, 227950, Note_on_c, 10, 64, 0
11, 228000, Note_on_c, 10, 61, 96
11, 228190, Note_on_c, 10, 61, 0
11, 228240, Note_on_c, 10, 57, 96
11, 228430, Note_on_c, 10, 57, 0
11, 228480, Note_on_c, 10, 69, 96
11, 228860, Note_on_c, 10, 69, 0
11, 229440, Note_on_c, 10, 69, 96
11, 229820, Note_on_c, 10, 69, 0
11, 230400, Note_on_c, 10, 57, 96
11, 231160, Note_on_c, 10, 57, 0
11, 232320, Note_on_c, 10, 64, 96
11, 233470, Note_on_c, 10, 64, 0
11, 233760, Note_on_c, 10, 62, 96
11, 233880, Note_on_c, 10, 62, 0
11, 234240, Note_on_c, 10, 61, 96
11, 234360, Note_on_c, 10, 61, 0
11, 234720, Note_on_c, 10, 59, 96
11, 234840, Note_on_c, 10, 59, 0
11, 235200, Note_on_c, 10, 57, 96
11, 235320, Note_on_c, 10, 57, 0
11, 236160, Note_on_c, 10, 69, 64
11, 236540, Note_on_c, 10, 69, 0
11, 237120, Note_on_c, 10, 69, 64
11, 237500, Note_on_c, 10, 69, 0
11, 238080, Note_on_c, 10, 69, 64
11, 238460, Note_on_c, 10, 69, 0
11, 238560, Note_on_c, 10, 69, 64
11, 238940, Note_on_c, 10, 69, 0
11, 239040, Note_on_c, 10, 69, 64
11, 239420, Note_on_c, 10, 69, 0
11, 240000, Note_on_c, 10, 66, 96
11, 241150, Note_on_c, 10, 66, 0
11, 241440, Note_on_c, 10, 61, 96
11, 241560, Note_on_c, 10, 61, 0
11, 241920, Note_on_c, 10, 62, 96
11, 242040, Note_on_c, 10, 62, 0
11, 242400, Note_on_c, 10, 59, 96
11, 242520, Note_on_c, 10, 59, 0
11, 242880, Note_on_c, 10, 57, 96
11, 243000, Note_on_c, 10, 57, 0
11, 243840, Note_on_c, 10, 71, 64
11, 244220, Note_on_c, 10, 71, 0
11, 244800, Note_on_c, 10, 71, 64
11, 245180, Note_on_c, 10, 71, 0
11, 245760, Note_on_c, 10, 71, 64
11, 246140, Note_on_c, 10, 71, 0
11, 246240, Note_on_c, 10, 71, 64
11, 246620, Note_on_c, 10, 71, 0
11, 246720, Note_on_c, 10, 71, 64
11, 247100, Note_on_c, 10, 71, 0
11, 247680, Note_on_c, 10, 67, 96
11, 248830, Note_on_c, 10, 67, 0
11, 249120, Note_on_c, 10, 66, 64
11, 249240, Note_on_c, 10, 66, 0
11, 249600, Note_on_c, 10, 64, 64
11, 249720, Note_on_c, 10, 64, 0
11, 250080, Note_on_c, 10, 62, 64
11, 250200, Note_on_c, 10, 62, 0
11, 250560, Note_on_c, 10, 61, 64
11, 250680, Note_on_c, 10, 61, 0
11, 251520, Note_on_c, 10, 64, 96
11, 252670, Note_on_c, 10, 64, 0
11, 252960, Note_on_c, 10, 62, 64
11, 253080, Note_on_c, 10, 62, 0
11, 253440, Note_on_c, 10, 61, 64
11, 253560, Note_on_c, 10, 61, 0
11, 253920, Note_on_c, 10, 59, 64
11, 254040, Note_on_c, 10, 59, 0
11, 254400, Note_on_c, 10, 58, 64
11, 254520, Note_on_c, 10, 58, 0
11, 255360, Note_on_c, 10, 59, 64
11, 255740, Note_on_c, 10, 59, 0
11, 256320, Note_on_c, 10, 66, 64
11, 256700, Note_on_c, 10, 66, 0
11, 257280, Note_on_c, 10, 63, 64
11, 257660, Note_on_c, 10, 63, 0
11, 258240, Note_on_c, 10, 59, 64
11, 258620, Note_on_c, 10, 59, 0
11, 259200, Note_on_c, 10, 64, 64
11, 259580, Note_on_c, 10, 64, 0
11, 260160, Note_on_c, 10, 59, 64
11, 260540, Note_on_c, 10, 59, 0
11, 261120, Note_on_c, 10, 56, 64
11, 261500, Note_on_c, 10, 56, 0
11, 262080, Note_on_c, 10, 52, 64
11, 262460, Note_on_c, 10, 52, 0
11, 263040, Note_on_c, 10, 69, 64
11, 263420, Note_on_c, 10, 69, 0
11, 264000, Note_on_c, 10, 64, 64
11, 264380, Note_on_c, 10, 64, 0
11, 264960, Note_on_c, 10, 61, 64
11, 265340, Note_on_c, 10, 61, 0
11, 265920, Note_on_c, 10, 57, 64
11, 266300, Note_on_c, 10, 57, 0
11, 266880, Note_on_c, 10, 74, 64
11, 267260, Note_on_c, 10, 74, 0
11, 267840, Note_on_c, 10, 69, 64
11, 268220, Note_on_c, 10, 69, 0
11, 268800, Note_on_c, 10, 66, 64
11, 269180, Note_on_c, 10, 66, 0
11, 269760, Note_on_c, 10, 62, 64
11, 270140, Note_on_c, 10, 62, 0
11, 270720, Note_on_c, 10, 55, 64
11, 270910, Note_on_c, 10, 55, 0
11, 270960, Note_on_c, 10, 55, 64
11, 271150, Note_on_c, 10, 55, 0
11, 271200, Note_on_c, 10, 55, 64
11, 271390, Note_on_c, 10, 55, 0
11, 271440, Note_on_c, 10, 55, 64
11, 271630, Note_on_c, 10, 55, 0
11, 271680, Note_on_c, 10, 55, 64
11, 271870, Note_on_c, 10, 55, 0
11, 271920, Note_on_c, 10, 55, 64
11, 272110, Note_on_c, 10, 55, 0
11, 272160, Note_on_c, 10, 55, 64
11, 272350, Note_on_c, 10, 55, 0
11, 272400, Note_on_c, 10, 55, 64
11, 272590, Note_on_c, 10, 55, 0
11, 272640, Note_on_c, 10, 55, 64
11, 272830, Note_on_c, 10, 55, 0
11, 272880, Note_on_c, 10, 55, 64
11, 273070, Note_on_c, 10, 55, 0
11, 273120, Note_on_c, 10, 55, 64
11, 273310, Note_on_c, 10, 55, 0
11, 273360, Note_on_c, 10, 55, 64
11, 273550, Note_on_c, 10, 55, 0
11, 273600, Note_on_c, 10, 55, 64
11, 273790, Note_on_c, 10, 55, 0
11, 273840, Note_on_c, 10, 55, 64
11, 274030, Note_on_c, 10, 55, 0
11, 274080, Note_on_c, 10, 55, 64
11, 274270, Note_on_c, 10, 55, 0
11, 274320, Note_on_c, 10, 55, 64
11, 274510, Note_on_c, 10, 55, 0
11, 274560, Note_on_c, 10, 55, 64
11, 274750, Note_on_c, 10, 55, 0
11, 274800, Note_on_c, 10, 55, 64
11, 274990, Note_on_c, 10, 55, 0
11, 275040, Note_on_c, 10, 55, 64
11, 275230, Note_on_c, 10, 55, 0
11, 275280, Note_on_c, 10, 55, 64
11, 275470, Note_on_c, 10, 55, 0
11, 275520, Note_on_c, 10, 55, 64
11, 275710, Note_on_c, 10, 55, 0
11, 275760, Note_on_c, 10, 55, 64
11, 275950, Note_on_c, 10, 55, 0
11, 276000, Note_on_c, 10, 55, 64
11, 276190, Note_on_c, 10, 55, 0
11, 276240, Note_on_c, 10, 55, 64
11, 276430, Note_on_c, 10, 55, 0
11, 276480, Note_on_c, 10, 55, 64
11, 276670, Note_on_c, 10, 55, 0
11, 276720, Note_on_c, 10, 55, 64
11, 276910, Note_on_c, 10, 55, 0
11, 276960, Note_on_c, 10, 55, 64
11, 277150, Note_on_c, 10, 55, 0
11, 277200, Note_on_c, 10, 55, 64
11, 277390, Note_on_c, 10, 55, 0
11, 277440, Note_on_c, 10, 55, 64
11, 277630, Note_on_c, 10, 55, 0
11, 277680, Note_on_c, 10, 55, 64
11, 277870, Note_on_c, 10, 55, 0
11, 277920, Note_on_c, 10, 55, 64
11, 278110, Note_on_c, 10, 55, 0
11, 278160, Note_on_c, 10, 55, 64
11, 278350, Note_on_c, 10, 55, 0
11, 278400, Note_on_c, 10, 54, 64
11, 279360, Note_on_c, 10, 54, 0
11, 279360, Note_on_c, 10, 55, 64
11, 280120, Note_on_c, 10, 55, 0
11, 280320, Note_on_c, 10, 60, 64
11, 281280, Note_on_c, 10, 60, 0
11, 281280, Note_on_c, 10, 57, 64
11, 282040, Note_on_c, 10, 57, 0
11, 282240, Note_on_c, 10, 55, 96
11, 282620, Note_on_c, 10, 55, 0
11, 286080, Note_on_c, 10, 55, 96
11, 286270, Note_on_c, 10, 55, 0
11, 286320, Note_on_c, 10, 55, 96
11, 286510, Note_on_c, 10, 55, 0
11, 286560, Note_on_c, 10, 55, 96
11, 286750, Note_on_c, 10, 55, 0
11, 286800, Note_on_c, 10, 55, 96
11, 286990, Note_on_c, 10, 55, 0
11, 287040, Note_on_c, 10, 55, 96
11, 287230, Note_on_c, 10, 55, 0
11, 287280, Note_on_c, 10, 55, 96
11, 287470, Note_on_c, 10, 55, 0
11, 287520, Note_on_c, 10, 55, 96
11, 287710, Note_on_c, 10, 55, 0
11, 287760, Note_on_c, 10, 55, 96
11, 287950, Note_on_c, 10, 55, 0
11, 288000, Note_on_c, 10, 55, 96
11, 288190, Note_on_c, 10, 55, 0
11, 288240, Note_on_c, 10, 55, 96
11, 288430, Note_on_c, 10, 55, 0
11, 288480, Note_on_c, 10, 55, 96
11, 288670, Note_on_c, 10, 55, 0
11, 288720, Note_on_c, 10, 55, 96
11, 288910, Note_on_c, 10, 55, 0
11, 288960, Note_on_c, 10, 55, 96
11, 289150, Note_on_c, 10, 55, 0
11, 289200, Note_on_c, 10, 55, 96
11, 289390, Note_on_c, 10, 55, 0
11, 289440, Note_on_c, 10, 55, 96
11, 289630, Note_on_c, 10, 55, 0
11, 289680, Note_on_c, 10, 55, 96
11, 289870, Note_on_c, 10, 55, 0
11, 289920, Note_on_c, 10, 53, 96
11, 297980, Note_on_c, 10, 53, 0
11, 298080, Note_on_c, 10, 65, 96
11, 298460, Note_on_c, 10, 65, 0
11, 298560, Note_on_c, 10, 65, 96
11, 298940, Note_on_c, 10, 65, 0
11, 299040, Note_on_c, 10, 65, 96
11, 299420, Note_on_c, 10, 65, 0
11, 299520, Note_on_c, 10, 65, 96
11, 299900, Note_on_c, 10, 65, 0
11, 301440, Note_on_c, 10, 65, 96
11, 301800, Note_on_c, 10, 65, 0
11, 302880, Note_on_c, 10, 63, 96
11, 303000, Note_on_c, 10, 63, 0
11, 303360, Note_on_c, 10, 62, 96
11, 303480, Note_on_c, 10, 62, 0
11, 303840, Note_on_c, 10, 60, 96
11, 303960, Note_on_c, 10, 60, 0
11, 304320, Note_on_c, 10, 58, 96
11, 304440, Note_on_c, 10, 58, 0
11, 305280, Note_on_c, 10, 70, 64
11, 305660, Note_on_c, 10, 70, 0
11, 306240, Note_on_c, 10, 70, 64
11, 306620, Note_on_c, 10, 70, 0
11, 307200, Note_on_c, 10, 70, 64
11, 307580, Note_on_c, 10, 70, 0
11, 307680, Note_on_c, 10, 70, 64
11, 308060, Note_on_c, 10, 70, 0
11, 308160, Note_on_c, 10, 70, 64
11, 308540, Note_on_c, 10, 70, 0
11, 309120, Note_on_c, 10, 72, 96
11, 310270, Note_on_c, 10, 72, 0
11, 310560, Note_on_c, 10, 70, 96
11, 310680, Note_on_c, 10, 70, 0
11, 311040, Note_on_c, 10, 69, 96
11, 311160, Note_on_c, 10, 69, 0
11, 311520, Note_on_c, 10, 67, 96
11, 311640, Note_on_c, 10, 67, 0
11, 312000, Note_on_c, 10, 66, 96
11, 312120, Note_on_c, 10, 66, 0
11, 312960, Note_on_c, 10, 66, 64
11, 313340, Note_on_c, 10, 66, 0
11, 313920, Note_on_c, 10, 66, 64
11, 314300, Note_on_c, 10, 66, 0
11, 314880, Note_on_c, 10, 66, 64
11, 315260, Note_on_c, 10, 66, 0
11, 315360, Note_on_c, 10, 66, 64
11, 315740, Note_on_c, 10, 66, 0
11, 315840, Note_on_c, 10, 66, 64
11, 316220, Note_on_c, 10, 66, 0
11, 316800, Note_on_c, 10, 62, 96
11, 317950, Note_on_c, 10, 62, 0
11, 318240, Note_on_c, 10, 60, 96
11, 318360, Note_on_c, 10, 60, 0
11, 318720, Note_on_c, 10, 58, 96
11, 318840, Note_on_c, 10, 58, 0
11, 319200, Note_on_c, 10, 57, 96
11, 319320, Note_on_c, 10, 57, 0
11, 319680, Note_on_c, 10, 55, 96
11, 319800, Note_on_c, 10, 55, 0
11, 320640, Note_on_c, 10, 67, 64
11, 321020, Note_on_c, 10, 67, 0
11, 321600, Note_on_c, 10, 67, 64
11, 321980, Note_on_c, 10, 67, 0
11, 322560, Note_on_c, 10, 67, 64
11, 322940, Note_on_c, 10, 67, 0
11, 323040, Note_on_c, 10, 67, 64
11, 323420, Note_on_c, 10, 67, 0
11, 323520, Note_on_c, 10, 67, 64
11, 323900, Note_on_c, 10, 67, 0
11, 324480, Note_on_c, 10, 67, 96
11, 325630, Note_on_c, 10, 67, 0
11, 325920, Note_on_c, 10, 65, 96
11, 326040, Note_on_c, 10, 65, 0
11, 326400, Note_on_c, 10, 64, 96
11, 326520, Note_on_c, 10, 64, 0
11, 326880, Note_on_c, 10, 62, 96
11, 327000, Note_on_c, 10, 62, 0
11, 327360, Note_on_c, 10, 61, 96
11, 327480, Note_on_c, 10, 61, 0
11, 328320, Note_on_c, 10, 64, 64
11, 328320, Note_on_c, 10, 61, 64
11, 328700, Note_on_c, 10, 61, 0
11, 328700, Note_on_c, 10, 64, 0
11, 329280, Note_on_c, 10, 64, 64
11, 329280, Note_on_c, 10, 61, 64
11, 329660, Note_on_c, 10, 61, 0
11, 329660, Note_on_c, 10, 64, 0
11, 330240, Note_on_c, 10, 64, 64
11, 330240, Note_on_c, 10, 61, 64
11, 330620, Note_on_c, 10, 61, 0
11, 330620, Note_on_c, 10, 64, 0
11, 330720, Note_on_c, 10, 64, 64
11, 330720, Note_on_c, 10, 61, 64
11, 331100, Note_on_c, 10, 61, 0
11, 331100, Note_on_c, 10, 64, 0
11, 331200, Note_on_c, 10, 64, 64
11, 331200, Note_on_c, 10, 61, 64
11, 331580, Note_on_c, 10, 61, 0
11, 331580, Note_on_c, 10, 64, 0
11, 332160, Note_on_c, 10, 69, 96
11, 333310, Note_on_c, 10, 69, 0
11, 333600, Note_on_c, 10, 67, 96
11, 333720, Note_on_c, 10, 67, 0
11, 334080, Note_on_c, 10, 65, 96
11, 334200, Note_on_c, 10, 65, 0
11, 334560, Note_on_c, 10, 64, 96
11, 334680, Note_on_c, 10, 64, 0
11, 335040, Note_on_c, 10, 62, 96
11, 335160, Note_on_c, 10, 62, 0
11, 336000, Note_on_c, 10, 62, 64
11, 336380, Note_on_c, 10, 62, 0
11, 336960, Note_on_c, 10, 62, 64
11, 337340, Note_on_c, 10, 62, 0
11, 337920, Note_on_c, 10, 62, 64
11, 338300, Note_on_c, 10, 62, 0
11, 338400, Note_on_c, 10, 62, 64
11, 338780, Note_on_c, 10, 62, 0
11, 338880, Note_on_c, 10, 62, 64
11, 339260, Note_on_c, 10, 62, 0
11, 339840, Note_on_c, 10, 66, 96
11, 340990, Note_on_c, 10, 66, 0
11, 341280, Note_on_c, 10, 64, 96
11, 341400, Note_on_c, 10, 64, 0
11, 341760, Note_on_c, 10, 62, 96
11, 341880, Note_on_c, 10, 62, 0
11, 342240, Note_on_c, 10, 61, 96
11, 342360, Note_on_c, 10, 61, 0
11, 342720, Note_on_c, 10, 60, 96
11, 342840, Note_on_c, 10, 60, 0
11, 343680, Note_on_c, 10, 56, 64
11, 344060, Note_on_c, 10, 56, 0
11, 344640, Note_on_c, 10, 56, 64
11, 345020, Note_on_c, 10, 56, 0
11, 345600, Note_on_c, 10, 56, 64
11, 347520, Note_on_c, 10, 56, 0
11, 347520, Note_on_c, 10, 57, 64
11, 349440, Note_on_c, 10, 57, 0
11, 349440, Note_on_c, 10, 56, 64
11, 350970, Note_on_c, 10, 56, 0
11, 351360, Note_on_c, 10, 57, 64
11, 353280, Note_on_c, 10, 57, 0
11, 353280, Note_on_c, 10, 56, 64
11, 354810, Note_on_c, 10, 56, 0
11, 355200, Note_on_c, 10, 57, 96
11, 355580, Note_on_c, 10, 57, 0
11, 357120, Note_on_c, 10, 57, 96
11, 357500, Note_on_c, 10, 57, 0
11, 359040, Note_on_c, 10, 57, 96
11, 359420, Note_on_c, 10, 57, 0
11, 360960, Note_on_c, 10, 57, 96
11, 361340, Note_on_c, 10, 57, 0
11, 362880, Note_on_c, 10, 69, 96
11, 363070, Note_on_c, 10, 69, 0
11, 363120, Note_on_c, 10, 69, 96
11, 363310, Note_on_c, 10, 69, 0
11, 363360, Note_on_c, 10, 69, 96
11, 363550, Note_on_c, 10, 69, 0
11, 363600, Note_on_c, 10, 69, 96
11, 363790, Note_on_c, 10, 69, 0
11, 363840, Note_on_c, 10, 69, 96
11, 364030, Note_on_c, 10, 69, 0
11, 364080, Note_on_c, 10, 69, 96
11, 364270, Note_on_c, 10, 69, 0
11, 364320, Note_on_c, 10, 69, 96
11, 364510, Note_on_c, 10, 69, 0
11, 364560, Note_on_c, 10, 69, 96
11, 364750, Note_on_c, 10, 69, 0
11, 364800, Note_on_c, 10, 69, 96
11, 364990, Note_on_c, 10, 69, 0
11, 365040, Note_on_c, 10, 69, 96
11, 365230, Note_on_c, 10, 69, 0
11, 365280, Note_on_c, 10, 69, 96
11, 365470, Note_on_c, 10, 69, 0
11, 365520, Note_on_c, 10, 69, 96
11, 365710, Note_on_c, 10, 69, 0
11, 365760, Note_on_c, 10, 69, 96
11, 365950, Note_on_c, 10, 69, 0
11, 366000, Note_on_c, 10, 69, 96
11, 366190, Note_on_c, 10, 69, 0
11, 366240, Note_on_c, 10, 69, 96
11, 366430, Note_on_c, 10, 69, 0
11, 366480, Note_on_c, 10, 69, 96
11, 366670, Note_on_c, 10, 69, 0
11, 366720, Note_on_c, 10, 69, 96
11, 367100, Note_on_c, 10, 69, 0
11, 370560, Note_on_c, 10, 62, 64
11, 370750, Note_on_c, 10, 62, 0
11, 370800, Note_on_c, 10, 62, 64
11, 370990, Note_on_c, 10, 62, 0
11, 371040, Note_on_c, 10, 62, 64
11, 371230, Note_on_c, 10, 62, 0
11, 371280, Note_on_c, 10, 62, 64
11, 371470, Note_on_c, 10, 62, 0
11, 371520, Note_on_c, 10, 62, 64
11, 371710, Note_on_c, 10, 62, 0
11, 371760, Note_on_c, 10, 62, 64
11, 371950, Note_on_c, 10, 62, 0
11, 372000, Note_on_c, 10, 62, 64
11, 372190, Note_on_c, 10, 62, 0
11, 372240, Note_on_c, 10, 62, 64
11, 372430, Note_on_c, 10, 62, 0
11, 372480, Note_on_c, 10, 62, 64
11, 372670, Note_on_c, 10, 62, 0
11, 372720, Note_on_c, 10, 62, 64
11, 372910, Note_on_c, 10, 62, 0
11, 372960, Note_on_c, 10, 62, 64
11, 373150, Note_on_c, 10, 62, 0
11, 373200, Note_on_c, 10, 62, 64
11, 373390, Note_on_c, 10, 62, 0
11, 373440, Note_on_c, 10, 62, 64
11, 373630, Note_on_c, 10, 62, 0
11, 373680, Note_on_c, 10, 62, 64
11, 373870, Note_on_c, 10, 62, 0
11, 373920, Note_on_c, 10, 62, 64
11, 374110, Note_on_c, 10, 62, 0
11, 374160, Note_on_c, 10, 62, 64
11, 374350, Note_on_c, 10, 62, 0
11, 374400, Note_on_c, 10, 62, 64
11, 374590, Note_on_c, 10, 62, 0
11, 374640, Note_on_c, 10, 62, 64
11, 374830, Note_on_c, 10, 62, 0
11, 374880, Note_on_c, 10, 62, 64
11, 375070, Note_on_c, 10, 62, 0
11, 375120, Note_on_c, 10, 62, 64
11, 375310, Note_on_c, 10, 62, 0
11, 375360, Note_on_c, 10, 62, 64
11, 375550, Note_on_c, 10, 62, 0
11, 375600, Note_on_c, 10, 62, 64
11, 375790, Note_on_c, 10, 62, 0
11, 375840, Note_on_c, 10, 62, 64
11, 376030, Note_on_c, 10, 62, 0
11, 376080, Note_on_c, 10, 62, 64
11, 376270, Note_on_c, 10, 62, 0
11, 376320, Note_on_c, 10, 62, 64
11, 376510, Note_on_c, 10, 62, 0
11, 376560, Note_on_c, 10, 62, 64
11, 376750, Note_on_c, 10, 62, 0
11, 376800, Note_on_c, 10, 62, 64
11, 376990, Note_on_c, 10, 62, 0
11, 377040, Note_on_c, 10, 62, 64
11, 377230, Note_on_c, 10, 62, 0
11, 377280, Note_on_c, 10, 62, 64
11, 377470, Note_on_c, 10, 62, 0
11, 377520, Note_on_c, 10, 62, 64
11, 377710, Note_on_c, 10, 62, 0
11, 377760, Note_on_c, 10, 62, 64
11, 377950, Note_on_c, 10, 62, 0
11, 378000, Note_on_c, 10, 62, 64
11, 378190, Note_on_c, 10, 62, 0
11, 378240, Note_on_c, 10, 71, 64
11, 379200, Note_on_c, 10, 71, 0
11, 379200, Note_on_c, 10, 69, 64
11, 379960, Note_on_c, 10, 69, 0
11, 380160, Note_on_c, 10, 67, 64
11, 381120, Note_on_c, 10, 67, 0
11, 381120, Note_on_c, 10, 64, 64
11, 381880, Note_on_c, 10, 64, 0
11, 382080, Note_on_c, 10, 62, 64
11, 382460, Note_on_c, 10, 62, 0
11, 385920, Note_on_c, 10, 62, 64
11, 386110, Note_on_c, 10, 62, 0
11, 386160, Note_on_c, 10, 62, 64
11, 386350, Note_on_c, 10, 62, 0
11, 386400, Note_on_c, 10, 62, 64
11, 386590, Note_on_c, 10, 62, 0
11, 386640, Note_on_c, 10, 62, 64
11, 386830, Note_on_c, 10, 62, 0
11, 386880, Note_on_c, 10, 62, 64
11, 387070, Note_on_c, 10, 62, 0
11, 387120, Note_on_c, 10, 62, 64
11, 387310, Note_on_c, 10, 62, 0
11, 387360, Note_on_c, 10, 62, 64
11, 387550, Note_on_c, 10, 62, 0
11, 387600, Note_on_c, 10, 62, 64
11, 387790, Note_on_c, 10, 62, 0
11, 387840, Note_on_c, 10, 62, 64
11, 388030, Note_on_c, 10, 62, 0
11, 388080, Note_on_c, 10, 62, 64
11, 388270, Note_on_c, 10, 62, 0
11, 388320, Note_on_c, 10, 62, 64
11, 388510, Note_on_c, 10, 62, 0
11, 388560, Note_on_c, 10, 62, 64
11, 388750, Note_on_c, 10, 62, 0
11, 388800, Note_on_c, 10, 62, 64
11, 388990, Note_on_c, 10, 62, 0
11, 389040, Note_on_c, 10, 62, 64
11, 389230, Note_on_c, 10, 62, 0
11, 389280, Note_on_c, 10, 62, 64
11, 389470, Note_on_c, 10, 62, 0
11, 389520, Note_on_c, 10, 62, 64
11, 389710, Note_on_c, 10, 62, 0
11, 389760, Note_on_c, 10, 62, 64
11, 389950, Note_on_c, 10, 62, 0
11, 390000, Note_on_c, 10, 62, 64
11, 390190, Note_on_c, 10, 62, 0
11, 390240, Note_on_c, 10, 62, 64
11, 390430, Note_on_c, 10, 62, 0
11, 390480, Note_on_c, 10, 62, 64
11, 390670, Note_on_c, 10, 62, 0
11, 390720, Note_on_c, 10, 62, 64
11, 390910, Note_on_c, 10, 62, 0
11, 390960, Note_on_c, 10, 62, 64
11, 391150, Note_on_c, 10, 62, 0
11, 391200, Note_on_c, 10, 62, 64
11, 391390, Note_on_c, 10, 62, 0
11, 391440, Note_on_c, 10, 62, 64
11, 391630, Note_on_c, 10, 62, 0
11, 391680, Note_on_c, 10, 62, 64
11, 391870, Note_on_c, 10, 62, 0
11, 391920, Note_on_c, 10, 62, 64
11, 392110, Note_on_c, 10, 62, 0
11, 392160, Note_on_c, 10, 62, 64
11, 392350, Note_on_c, 10, 62, 0
11, 392400, Note_on_c, 10, 62, 64
11, 392590, Note_on_c, 10, 62, 0
11, 392640, Note_on_c, 10, 62, 64
11, 392830, Note_on_c, 10, 62, 0
11, 392880, Note_on_c, 10, 62, 64
11, 393070, Note_on_c, 10, 62, 0
11, 393120, Note_on_c, 10, 62, 64
11, 393310, Note_on_c, 10, 62, 0
11, 393360, Note_on_c, 10, 62, 64
11, 393550, Note_on_c, 10, 62, 0
11, 393600, Note_on_c, 10, 61, 64
11, 394560, Note_on_c, 10, 61, 0
11, 394560, Note_on_c, 10, 62, 64
11, 395320, Note_on_c, 10, 62, 0
11, 395520, Note_on_c, 10, 67, 64
11, 396480, Note_on_c, 10, 67, 0
11, 396480, Note_on_c, 10, 64, 64
11, 397240, Note_on_c, 10, 64, 0
11, 397440, Note_on_c, 10, 62, 64
11, 397820, Note_on_c, 10, 62, 0
11, 401280, Note_on_c, 10, 62, 96
11, 401340, Note_on_c, 10, 62, 0
11, 401520, Note_on_c, 10, 66, 96
11, 401580, Note_on_c, 10, 66, 0
11, 401760, Note_on_c, 10, 57, 96
11, 401820, Note_on_c, 10, 57, 0
11, 402000, Note_on_c, 10, 61, 96
11, 402060, Note_on_c, 10, 61, 0
11, 402240, Note_on_c, 10, 62, 96
11, 402300, Note_on_c, 10, 62, 0
11, 402480, Note_on_c, 10, 66, 96
11, 402540, Note_on_c, 10, 66, 0
11, 402720, Note_on_c, 10, 67, 96
11, 402780, Note_on_c, 10, 67, 0
11, 402960, Note_on_c, 10, 64, 96
11, 403020, Note_on_c, 10, 64, 0
11, 403200, Note_on_c, 10, 62, 96
11, 403260, Note_on_c, 10, 62, 0
11, 403440, Note_on_c, 10, 66, 96
11, 403500, Note_on_c, 10, 66, 0
11, 403680, Note_on_c, 10, 57, 96
11, 403740, Note_on_c, 10, 57, 0
11, 403920, Note_on_c, 10, 61, 96
11, 403980, Note_on_c, 10, 61, 0
11, 404160, Note_on_c, 10, 62, 96
11, 404220, Note_on_c, 10, 62, 0
11, 404400, Note_on_c, 10, 66, 96
11, 404460, Note_on_c, 10, 66, 0
11, 404640, Note_on_c, 10, 67, 96
11, 404700, Note_on_c, 10, 67, 0
11, 404880, Note_on_c, 10, 64, 96
11, 404940, Note_on_c, 10, 64, 0
11, 405120, Note_on_c, 10, 62, 96
11, 405360, Note_on_c, 10, 62, 0
11, 405360, Note_on_c, 10, 57, 96
11, 405550, Note_on_c, 10, 57, 0
11, 405600, Note_on_c, 10, 66, 96
11, 405660, Note_on_c, 10, 66, 0
11, 405840, Note_on_c, 10, 66, 96
11, 405900, Note_on_c, 10, 66, 0
11, 406080, Note_on_c, 10, 66, 96
11, 406320, Note_on_c, 10, 66, 0
11, 406320, Note_on_c, 10, 62, 96
11, 406510, Note_on_c, 10, 62, 0
11, 406560, Note_on_c, 10, 69, 96
11, 406620, Note_on_c, 10, 69, 0
11, 406800, Note_on_c, 10, 69, 96
11, 406860, Note_on_c, 10, 69, 0
11, 407040, Note_on_c, 10, 69, 96
11, 407280, Note_on_c, 10, 69, 0
11, 407280, Note_on_c, 10, 66, 96
11, 407470, Note_on_c, 10, 66, 0
11, 407520, Note_on_c, 10, 74, 96
11, 407580, Note_on_c, 10, 74, 0
11, 407760, Note_on_c, 10, 74, 96
11, 407820, Note_on_c, 10, 74, 0
11, 408000, Note_on_c, 10, 74, 96
11, 408190, Note_on_c, 10, 74, 0
11, 408240, Note_on_c, 10, 69, 96
11, 408430, Note_on_c, 10, 69, 0
11, 408480, Note_on_c, 10, 66, 96
11, 408670, Note_on_c, 10, 66, 0
11, 408720, Note_on_c, 10, 62, 96
11, 408910, Note_on_c, 10, 62, 0
11, 408960, Note_on_c, 10, 69, 96
11, 409150, Note_on_c, 10, 69, 0
11, 409200, Note_on_c, 10, 69, 96
11, 409390, Note_on_c, 10, 69, 0
11, 409440, Note_on_c, 10, 69, 96
11, 409630, Note_on_c, 10, 69, 0
11, 409680, Note_on_c, 10, 69, 96
11, 409870, Note_on_c, 10, 69, 0
11, 409920, Note_on_c, 10, 69, 96
11, 410110, Note_on_c, 10, 69, 0
11, 410160, Note_on_c, 10, 69, 96
11, 410350, Note_on_c, 10, 69, 0
11, 410400, Note_on_c, 10, 69, 96
11, 410590, Note_on_c, 10, 69, 0
11, 410640, Note_on_c, 10, 69, 96
11, 410830, Note_on_c, 10, 69, 0
11, 410880, Note_on_c, 10, 69, 96
11, 411070, Note_on_c, 10, 69, 0
11, 411120, Note_on_c, 10, 69, 96
11, 411310, Note_on_c, 10, 69, 0
11, 411360, Note_on_c, 10, 69, 96
11, 411550, Note_on_c, 10, 69, 0
11, 411600, Note_on_c, 10, 69, 96
11, 411790, Note_on_c, 10, 69, 0
11, 411840, Note_on_c, 10, 69, 96
11, 412030, Note_on_c, 10, 69, 0
11, 412080, Note_on_c, 10, 69, 96
11, 412270, Note_on_c, 10, 69, 0
11, 412320, Note_on_c, 10, 69, 96
11, 412510, Note_on_c, 10, 69, 0
11, 412560, Note_on_c, 10, 69, 96
11, 412750, Note_on_c, 10, 69, 0
11, 412800, Note_on_c, 10, 69, 96
11, 412990, Note_on_c, 10, 69, 0
11, 413040, Note_on_c, 10, 69, 96
11, 413230, Note_on_c, 10, 69, 0
11, 413280, Note_on_c, 10, 69, 96
11, 413470, Note_on_c, 10, 69, 0
11, 413520, Note_on_c, 10, 69, 96
11, 413710, Note_on_c, 10, 69, 0
11, 413760, Note_on_c, 10, 69, 96
11, 413950, Note_on_c, 10, 69, 0
11, 414000, Note_on_c, 10, 69, 96
11, 414190, Note_on_c, 10, 69, 0
11, 414240, Note_on_c, 10, 69, 96
11, 414430, Note_on_c, 10, 69, 0
11, 414480, Note_on_c, 10, 69, 96
11, 414670, Note_on_c, 10, 69, 0
11, 414720, Note_on_c, 10, 69, 96
11, 415100, Note_on_c, 10, 69, 0
11, 415200, Note_on_c, 10, 57, 96
11, 415390, Note_on_c, 10, 57, 0
11, 415440, Note_on_c, 10, 57, 96
11, 415630, Note_on_c, 10, 57, 0
11, 415680, Note_on_c, 10, 57, 96
11, 416060, Note_on_c, 10, 57, 0
11, 416640, Note_on_c, 10, 62, 96
11, 416830, Note_on_c, 10, 62, 0
11, 416880, Note_on_c, 10, 74, 96
11, 417070, Note_on_c, 10, 74, 0
11, 417120, Note_on_c, 10, 74, 96
11, 417310, Note_on_c, 10, 74, 0
11, 417360, Note_on_c, 10, 74, 96
11, 417550, Note_on_c, 10, 74, 0
11, 417600, Note_on_c, 10, 74, 96
11, 417980, Note_on_c, 10, 74, 0
11, 420480, Note_on_c, 10, 64, 96
11, 420670, Note_on_c, 10, 64, 0
11, 420720, Note_on_c, 10, 76, 96
11, 420910, Note_on_c, 10, 76, 0
11, 420960, Note_on_c, 10, 76, 96
11, 421150, Note_on_c, 10, 76, 0
11, 421200, Note_on_c, 10, 76, 96
11, 421390, Note_on_c, 10, 76, 0
11, 421440, Note_on_c, 10, 76, 96
11, 421820, Note_on_c, 10, 76, 0
11, 424320, Note_on_c, 10, 57, 96
11, 424510, Note_on_c, 10, 57, 0
11, 424560, Note_on_c, 10, 69, 96
11, 424750, Note_on_c, 10, 69, 0
11, 424800, Note_on_c, 10, 69, 96
11, 424990, Note_on_c, 10, 69, 0
11, 425040, Note_on_c, 10, 69, 96
11, 425230, Note_on_c, 10, 69, 0
11, 425280, Note_on_c, 10, 69, 96
11, 425660, Note_on_c, 10, 69, 0
11, 437760, Note_on_c, 10, 67, 96
11, 437950, Note_on_c, 10, 67, 0
11, 438000, Note_on_c, 10, 67, 96
11, 438190, Note_on_c, 10, 67, 0
11, 438240, Note_on_c, 10, 67, 96
11, 438430, Note_on_c, 10, 67, 0
11, 438480, Note_on_c, 10, 67, 96
11, 438670, Note_on_c, 10, 67, 0
11, 438720, Note_on_c, 10, 67, 96
11, 438910, Note_on_c, 10, 67, 0
11, 438960, Note_on_c, 10, 67, 96
11, 439150, Note_on_c, 10, 67, 0
11, 439200, Note_on_c, 10, 67, 96
11, 439390, Note_on_c, 10, 67, 0
11, 439440, Note_on_c, 10, 67, 96
11, 439630, Note_on_c, 10, 67, 0
11, 439680, Note_on_c, 10, 65, 96
11, 439870, Note_on_c, 10, 65, 0
11, 439920, Note_on_c, 10, 65, 96
11, 440110, Note_on_c, 10, 65, 0
11, 440160, Note_on_c, 10, 65, 96
11, 440350, Note_on_c, 10, 65, 0
11, 440400, Note_on_c, 10, 65, 96
11, 440590, Note_on_c, 10, 65, 0
11, 440640, Note_on_c, 10, 65, 96
11, 440830, Note_on_c, 10, 65, 0
11, 440880, Note_on_c, 10, 65, 96
11, 441070, Note_on_c, 10, 65, 0
11, 441120, Note_on_c, 10, 65, 96
11, 441310, Note_on_c, 10, 65, 0
11, 441360, Note_on_c, 10, 65, 96
11, 441550, Note_on_c, 10, 65, 0
11, 441600, Note_on_c, 10, 67, 96
11, 441790, Note_on_c, 10, 67, 0
11, 441840, Note_on_c, 10, 67, 96
11, 442030, Note_on_c, 10, 67, 0
11, 442080, Note_on_c, 10, 67, 96
11, 442270, Note_on_c, 10, 67, 0
11, 442320, Note_on_c, 10, 67, 96
11, 442510, Note_on_c, 10, 67, 0
11, 442560, Note_on_c, 10, 67, 96
11, 442750, Note_on_c, 10, 67, 0
11, 442800, Note_on_c, 10, 67, 96
11, 442990, Note_on_c, 10, 67, 0
11, 443040, Note_on_c, 10, 67, 96
11, 443230, Note_on_c, 10, 67, 0
11, 443280, Note_on_c, 10, 67, 96
11, 443470, Note_on_c, 10, 67, 0
11, 443520, Note_on_c, 10, 65, 96
11, 443710, Note_on_c, 10, 65, 0
11, 443760, Note_on_c, 10, 65, 96
11, 443950, Note_on_c, 10, 65, 0
11, 444000, Note_on_c, 10, 65, 96
11, 444190, Note_on_c, 10, 65, 0
11, 444240, Note_on_c, 10, 65, 96
11, 444430, Note_on_c, 10, 65, 0
11, 444480, Note_on_c, 10, 65, 96
11, 444670, Note_on_c, 10, 65, 0
11, 444720, Note_on_c, 10, 65, 96
11, 444910, Note_on_c, 10, 65, 0
11, 444960, Note_on_c, 10, 65, 96
11, 445150, Note_on_c, 10, 65, 0
11, 445200, Note_on_c, 10, 65, 96
11, 445390, Note_on_c, 10, 65, 0
11, 445440, Note_on_c, 10, 67, 96
11, 445630, Note_on_c, 10, 67, 0
11, 445680, Note_on_c, 10, 67, 96
11, 445870, Note_on_c, 10, 67, 0
11, 445920, Note_on_c, 10, 67, 96
11, 446110, Note_on_c, 10, 67, 0
11, 446160, Note_on_c, 10, 67, 96
11, 446350, Note_on_c, 10, 67, 0
11, 446400, Note_on_c, 10, 67, 96
11, 446590, Note_on_c, 10, 67, 0
11, 446640, Note_on_c, 10, 67, 96
11, 446830, Note_on_c, 10, 67, 0
11, 446880, Note_on_c, 10, 67, 96
11, 447070, Note_on_c, 10, 67, 0
11, 447120, Note_on_c, 10, 67, 96
11, 447310, Note_on_c, 10, 67, 0
11, 447360, Note_on_c, 10, 68, 96
11, 447550, Note_on_c, 10, 68, 0
11, 447600, Note_on_c, 10, 68, 96
11, 447790, Note_on_c, 10, 68, 0
11, 447840, Note_on_c, 10, 68, 96
11, 448030, Note_on_c, 10, 68, 0
11, 448080, Note_on_c, 10, 68, 96
11, 448270, Note_on_c, 10, 68, 0
11, 448320, Note_on_c, 10, 68, 96
11, 448510, Note_on_c, 10, 68, 0
11, 448560, Note_on_c, 10, 68, 96
11, 448750, Note_on_c, 10, 68, 0
11, 448800, Note_on_c, 10, 68, 96
11, 448990, Note_on_c, 10, 68, 0
11, 449040, Note_on_c, 10, 68, 96
11, 449230, Note_on_c, 10, 68, 0
11, 449280, Note_on_c, 10, 69, 96
11, 449470, Note_on_c, 10, 69, 0
11, 449520, Note_on_c, 10, 69, 96
11, 449710, Note_on_c, 10, 69, 0
11, 449760, Note_on_c, 10, 69, 96
11, 449950, Note_on_c, 10, 69, 0
11, 450000, Note_on_c, 10, 69, 96
11, 450190, Note_on_c, 10, 69, 0
11, 450240, Note_on_c, 10, 69, 96
11, 450430, Note_on_c, 10, 69, 0
11, 450480, Note_on_c, 10, 69, 96
11, 450670, Note_on_c, 10, 69, 0
11, 450720, Note_on_c, 10, 69, 96
11, 450910, Note_on_c, 10, 69, 0
11, 450960, Note_on_c, 10, 69, 96
11, 451150, Note_on_c, 10, 69, 0
11, 451200, Note_on_c, 10, 69, 96
11, 451390, Note_on_c, 10, 69, 0
11, 451440, Note_on_c, 10, 69, 96
11, 451630, Note_on_c, 10, 69, 0
11, 451680, Note_on_c, 10, 69, 96
11, 451870, Note_on_c, 10, 69, 0
11, 451920, Note_on_c, 10, 69, 96
11, 452110, Note_on_c, 10, 69, 0
11, 452160, Note_on_c, 10, 69, 96
11, 452350, Note_on_c, 10, 69, 0
11, 452400, Note_on_c, 10, 69, 96
11, 452590, Note_on_c, 10, 69, 0
11, 452640, Note_on_c, 10, 69, 96
11, 452830, Note_on_c, 10, 69, 0
11, 452880, Note_on_c, 10, 69, 96
11, 453070, Note_on_c, 10, 69, 0
11, 453120, Note_on_c, 10, 69, 96
11, 453500, Note_on_c, 10, 69, 0
11, 454080, Note_on_c, 10, 57, 96
11, 454460, Note_on_c, 10, 57, 0
11, 454560, Note_on_c, 10, 57, 96
11, 454940, Note_on_c, 10, 57, 0
11, 455040, Note_on_c, 10, 57, 96
11, 455800, Note_on_c, 10, 57, 0
11, 456960, Note_on_c, 10, 67, 127
11, 458110, Note_on_c, 10, 67, 0
11, 458400, Note_on_c, 10, 66, 96
11, 458520, Note_on_c, 10, 66, 0
11, 458880, Note_on_c, 10, 64, 96
11, 459000, Note_on_c, 10, 64, 0
11, 459360, Note_on_c, 10, 62, 96
11, 459480, Note_on_c, 10, 62, 0
11, 459840, Note_on_c, 10, 61, 96
11, 459960, Note_on_c, 10, 61, 0
11, 460800, Note_on_c, 10, 73, 64
11, 461180, Note_on_c, 10, 73, 0
11, 461760, Note_on_c, 10, 73, 64
11, 462140, Note_on_c, 10, 73, 0
11, 462720, Note_on_c, 10, 74, 64
11, 463100, Note_on_c, 10, 74, 0
11, 463200, Note_on_c, 10, 74, 64
11, 463580, Note_on_c, 10, 74, 0
11, 463680, Note_on_c, 10, 74, 64
11, 464060, Note_on_c, 10, 74, 0
11, 464640, Note_on_c, 10, 67, 127
11, 465790, Note_on_c, 10, 67, 0
11, 466080, Note_on_c, 10, 66, 64
11, 466200, Note_on_c, 10, 66, 0
11, 466560, Note_on_c, 10, 64, 64
11, 466680, Note_on_c, 10, 64, 0
11, 467040, Note_on_c, 10, 62, 64
11, 467160, Note_on_c, 10, 62, 0
11, 467520, Note_on_c, 10, 61, 64
11, 467640, Note_on_c, 10, 61, 0
11, 468480, Note_on_c, 10, 73, 64
11, 468860, Note_on_c, 10, 73, 0
11, 469440, Note_on_c, 10, 73, 64
11, 469820, Note_on_c, 10, 73, 0
11, 470400, Note_on_c, 10, 74, 64
11, 470780, Note_on_c, 10, 74, 0
11, 470880, Note_on_c, 10, 74, 64
11, 471260, Note_on_c, 10, 74, 0
11, 471360, Note_on_c, 10, 74, 64
11, 471740, Note_on_c, 10, 74, 0
11, 483840, Note_on_c, 10, 48, 64
11, 491130, Note_on_c, 10, 48, 0
11, 491520, Note_on_c, 10, 57, 64
11, 493440, Note_on_c, 10, 57, 0
11, 493440, Note_on_c, 10, 58, 64
11, 494970, Note_on_c, 10, 58, 0
11, 495360, Note_on_c, 10, 57, 64
11, 495740, Note_on_c, 10, 57, 0
11, 497280, Note_on_c, 10, 57, 64
11, 497660, Note_on_c, 10, 57, 0
11, 499200, Note_on_c, 10, 62, 96
11, 499390, Note_on_c, 10, 62, 0
11, 499440, Note_on_c, 10, 62, 96
11, 499630, Note_on_c, 10, 62, 0
11, 499680, Note_on_c, 10, 62, 96
11, 499870, Note_on_c, 10, 62, 0
11, 499920, Note_on_c, 10, 62, 96
11, 500110, Note_on_c, 10, 62, 0
11, 500160, Note_on_c, 10, 62, 96
11, 500350, Note_on_c, 10, 62, 0
11, 500400, Note_on_c, 10, 62, 96
11, 500590, Note_on_c, 10, 62, 0
11, 500640, Note_on_c, 10, 62, 96
11, 500830, Note_on_c, 10, 62, 0
11, 500880, Note_on_c, 10, 62, 96
11, 501070, Note_on_c, 10, 62, 0
11, 501120, Note_on_c, 10, 74, 96
11, 501310, Note_on_c, 10, 74, 0
11, 501360, Note_on_c, 10, 74, 96
11, 501550, Note_on_c, 10, 74, 0
11, 501600, Note_on_c, 10, 74, 96
11, 501790, Note_on_c, 10, 74, 0
11, 501840, Note_on_c, 10, 74, 96
11, 502030, Note_on_c, 10, 74, 0
11, 502080, Note_on_c, 10, 74, 96
11, 502270, Note_on_c, 10, 74, 0
11, 502320, Note_on_c, 10, 74, 96
11, 502510, Note_on_c, 10, 74, 0
11, 502560, Note_on_c, 10, 74, 96
11, 502750, Note_on_c, 10, 74, 0
11, 502800, Note_on_c, 10, 74, 96
11, 502990, Note_on_c, 10, 74, 0
11, 503040, Note_on_c, 10, 67, 96
11, 503230, Note_on_c, 10, 67, 0
11, 503280, Note_on_c, 10, 67, 96
11, 503470, Note_on_c, 10, 67, 0
11, 503520, Note_on_c, 10, 67, 96
11, 503710, Note_on_c, 10, 67, 0
11, 503760, Note_on_c, 10, 67, 96
11, 503950, Note_on_c, 10, 67, 0
11, 504000, Note_on_c, 10, 67, 96
11, 504190, Note_on_c, 10, 67, 0
11, 504240, Note_on_c, 10, 67, 96
11, 504430, Note_on_c, 10, 67, 0
11, 504480, Note_on_c, 10, 67, 96
11, 504670, Note_on_c, 10, 67, 0
11, 504720, Note_on_c, 10, 67, 96
11, 504910, Note_on_c, 10, 67, 0
11, 504960, Note_on_c, 10, 67, 96
11, 505150, Note_on_c, 10, 67, 0
11, 505200, Note_on_c, 10, 67, 96
11, 505390, Note_on_c, 10, 67, 0
11, 505440, Note_on_c, 10, 67, 96
11, 505630, Note_on_c, 10, 67, 0
11, 505680, Note_on_c, 10, 67, 96
11, 505870, Note_on_c, 10, 67, 0
11, 505920, Note_on_c, 10, 67, 96
11, 506110, Note_on_c, 10, 67, 0
11, 506160, Note_on_c, 10, 67, 96
11, 506350, Note_on_c, 10, 67, 0
11, 506400, Note_on_c, 10, 67, 96
11, 506590, Note_on_c, 10, 67, 0
11, 506640, Note_on_c, 10, 67, 96
11, 506830, Note_on_c, 10, 67, 0
11, 506880, Note_on_c, 10, 69, 96
11, 507070, Note_on_c, 10, 69, 0
11, 507120, Note_on_c, 10, 69, 96
11, 507310, Note_on_c, 10, 69, 0
11, 507360, Note_on_c, 10, 69, 96
11, 507550, Note_on_c, 10, 69, 0
11, 507600, Note_on_c, 10, 69, 96
11, 507790, Note_on_c, 10, 69, 0
11, 507840, Note_on_c, 10, 69, 96
11, 508030, Note_on_c, 10, 69, 0
11, 508080, Note_on_c, 10, 69, 96
11, 508270, Note_on_c, 10, 69, 0
11, 508320, Note_on_c, 10, 69, 96
11, 508510, Note_on_c, 10, 69, 0
11, 508560, Note_on_c, 10, 69, 96
11, 508750, Note_on_c, 10, 69, 0
11, 508800, Note_on_c, 10, 57, 96
11, 508990, Note_on_c, 10, 57, 0
11, 509040, Note_on_c, 10, 57, 96
11, 509230, Note_on_c, 10, 57, 0
11, 509280, Note_on_c, 10, 57, 96
11, 509470, Note_on_c, 10, 57, 0
11, 509520, Note_on_c, 10, 57, 96
11, 509710, Note_on_c, 10, 57, 0
11, 509760, Note_on_c, 10, 57, 96
11, 509950, Note_on_c, 10, 57, 0
11, 510000, Note_on_c, 10, 57, 96
11, 510190, Note_on_c, 10, 57, 0
11, 510240, Note_on_c, 10, 57, 96
11, 510430, Note_on_c, 10, 57, 0
11, 510480, Note_on_c, 10, 57, 96
11, 510670, Note_on_c, 10, 57, 0
11, 510720, Note_on_c, 10, 62, 96
11, 510910, Note_on_c, 10, 62, 0
11, 510960, Note_on_c, 10, 62, 96
11, 511150, Note_on_c, 10, 62, 0
11, 511200, Note_on_c, 10, 62, 96
11, 511390, Note_on_c, 10, 62, 0
11, 511440, Note_on_c, 10, 62, 96
11, 511630, Note_on_c, 10, 62, 0
11, 511680, Note_on_c, 10, 62, 96
11, 511870, Note_on_c, 10, 62, 0
11, 511920, Note_on_c, 10, 62, 96
11, 512110, Note_on_c, 10, 62, 0
11, 512160, Note_on_c, 10, 62, 96
11, 512350, Note_on_c, 10, 62, 0
11, 512400, Note_on_c, 10, 62, 96
11, 512590, Note_on_c, 10, 62, 0
11, 512640, Note_on_c, 10, 74, 96
11, 512830, Note_on_c, 10, 74, 0
11, 512880, Note_on_c, 10, 74, 96
11, 513070, Note_on_c, 10, 74, 0
11, 513120, Note_on_c, 10, 74, 96
11, 513310, Note_on_c, 10, 74, 0
11, 513360, Note_on_c, 10, 74, 96
11, 513550, Note_on_c, 10, 74, 0
11, 513600, Note_on_c, 10, 74, 96
11, 513790, Note_on_c, 10, 74, 0
11, 513840, Note_on_c, 10, 74, 96
11, 514030, Note_on_c, 10, 74, 0
11, 514080, Note_on_c, 10, 74, 96
11, 514270, Note_on_c, 10, 74, 0
11, 514320, Note_on_c, 10, 74, 96
11, 514510, Note_on_c, 10, 74, 0
11, 514560, Note_on_c, 10, 67, 96
11, 514750, Note_on_c, 10, 67, 0
11, 514800, Note_on_c, 10, 67, 96
11, 514990, Note_on_c, 10, 67, 0
11, 515040, Note_on_c, 10, 67, 96
11, 515230, Note_on_c, 10, 67, 0
11, 515280, Note_on_c, 10, 67, 96
11, 515470, Note_on_c, 10, 67, 0
11, 515520, Note_on_c, 10, 67, 96
11, 515710, Note_on_c, 10, 67, 0
11, 515760, Note_on_c, 10, 67, 96
11, 515950, Note_on_c, 10, 67, 0
11, 516000, Note_on_c, 10, 67, 96
11, 516190, Note_on_c, 10, 67, 0
11, 516240, Note_on_c, 10, 67, 96
11, 516430, Note_on_c, 10, 67, 0
11, 516480, Note_on_c, 10, 67, 96
11, 516670, Note_on_c, 10, 67, 0
11, 516720, Note_on_c, 10, 67, 96
11, 516910, Note_on_c, 10, 67, 0
11, 516960, Note_on_c, 10, 67, 96
11, 517150, Note_on_c, 10, 67, 0
11, 517200, Note_on_c, 10, 67, 96
11, 517390, Note_on_c, 10, 67, 0
11, 517440, Note_on_c, 10, 67, 96
11, 517630, Note_on_c, 10, 67, 0
11, 517680, Note_on_c, 10, 67, 96
11, 517870, Note_on_c, 10, 67, 0
11, 517920, Note_on_c, 10, 67, 96
11, 518110, Note_on_c, 10, 67, 0
11, 518160, Note_on_c, 10, 67, 96
11, 518350, Note_on_c, 10, 67, 0
11, 518400, Note_on_c, 10, 69, 96
11, 518590, Note_on_c, 10, 69, 0
11, 518640, Note_on_c, 10, 69, 96
11, 518830, Note_on_c, 10, 69, 0
11, 518880, Note_on_c, 10, 69, 96
11, 519070, Note_on_c, 10, 69, 0
11, 519120, Note_on_c, 10, 69, 96
11, 519310, Note_on_c, 10, 69, 0
11, 519360, Note_on_c, 10, 69, 96
11, 519550, Note_on_c, 10, 69, 0
11, 519600, Note_on_c, 10, 69, 96
11, 519790, Note_on_c, 10, 69, 0
11, 519840, Note_on_c, 10, 69, 96
11, 520030, Note_on_c, 10, 69, 0
11, 520080, Note_on_c, 10, 69, 96
11, 520270, Note_on_c, 10, 69, 0
11, 520320, Note_on_c, 10, 57, 96
11, 520510, Note_on_c, 10, 57, 0
11, 520560, Note_on_c, 10, 57, 96
11, 520750, Note_on_c, 10, 57, 0
11, 520800, Note_on_c, 10, 57, 96
11, 520990, Note_on_c, 10, 57, 0
11, 521040, Note_on_c, 10, 57, 96
11, 521230, Note_on_c, 10, 57, 0
11, 521280, Note_on_c, 10, 57, 96
11, 521470, Note_on_c, 10, 57, 0
11, 521520, Note_on_c, 10, 57, 96
11, 521710, Note_on_c, 10, 57, 0
11, 521760, Note_on_c, 10, 57, 96
11, 521950, Note_on_c, 10, 57, 0
11, 522000, Note_on_c, 10, 57, 96
11, 522190, Note_on_c, 10, 57, 0
11, 522240, Note_on_c, 10, 62, 96
11, 522620, Note_on_c, 10, 62, 0
11, 523680, Note_on_c, 10, 57, 96
11, 524060, Note_on_c, 10, 57, 0
11, 524160, Note_on_c, 10, 62, 96
11, 524540, Note_on_c, 10, 62, 0
11, 525600, Note_on_c, 10, 57, 96
11, 525980, Note_on_c, 10, 57, 0
11, 526080, Note_on_c, 10, 62, 96
11, 526270, Note_on_c, 10, 62, 0
11, 526320, Note_on_c, 10, 66, 96
11, 526510, Note_on_c, 10, 66, 0
11, 526560, Note_on_c, 10, 57, 96
11, 526750, Note_on_c, 10, 57, 0
11, 526800, Note_on_c, 10, 61, 96
11, 526990, Note_on_c, 10, 61, 0
11, 527040, Note_on_c, 10, 62, 96
11, 527230, Note_on_c, 10, 62, 0
11, 527280, Note_on_c, 10, 66, 96
11, 527470, Note_on_c, 10, 66, 0
11, 527520, Note_on_c, 10, 67, 96
11, 527710, Note_on_c, 10, 67, 0
11, 527760, Note_on_c, 10, 64, 96
11, 527950, Note_on_c, 10, 64, 0
11, 528000, Note_on_c, 10, 62, 96
11, 528190, Note_on_c, 10, 62, 0
11, 528240, Note_on_c, 10, 66, 96
11, 528430, Note_on_c, 10, 66, 0
11, 528480, Note_on_c, 10, 57, 96
11, 528670, Note_on_c, 10, 57, 0
11, 528720, Note_on_c, 10, 61, 96
11, 528910, Note_on_c, 10, 61, 0
11, 528960, Note_on_c, 10, 62, 96
11, 529150, Note_on_c, 10, 62, 0
11, 529200, Note_on_c, 10, 66, 96
11, 529390, Note_on_c, 10, 66, 0
11, 529440, Note_on_c, 10, 67, 96
11, 529630, Note_on_c, 10, 67, 0
11, 529680, Note_on_c, 10, 64, 96
11, 529870, Note_on_c, 10, 64, 0
11, 529920, Note_on_c, 10, 62, 96
11, 530160, Note_on_c, 10, 62, 0
11, 530160, Note_on_c, 10, 57, 96
11, 530350, Note_on_c, 10, 57, 0
11, 530400, Note_on_c, 10, 66, 96
11, 530460, Note_on_c, 10, 66, 0
11, 530640, Note_on_c, 10, 66, 96
11, 530700, Note_on_c, 10, 66, 0
11, 530880, Note_on_c, 10, 66, 96
11, 531120, Note_on_c, 10, 66, 0
11, 531120, Note_on_c, 10, 62, 96
11, 531310, Note_on_c, 10, 62, 0
11, 531360, Note_on_c, 10, 69, 96
11, 531420, Note_on_c, 10, 69, 0
11, 531600, Note_on_c, 10, 69, 96
11, 531660, Note_on_c, 10, 69, 0
11, 531840, Note_on_c, 10, 69, 96
11, 532080, Note_on_c, 10, 69, 0
11, 532080, Note_on_c, 10, 66, 96
11, 532270, Note_on_c, 10, 66, 0
11, 532320, Note_on_c, 10, 72, 96
11, 532380, Note_on_c, 10, 72, 0
11, 532560, Note_on_c, 10, 72, 96
11, 532620, Note_on_c, 10, 72, 0
11, 532800, Note_on_c, 10, 72, 96
11, 532990, Note_on_c, 10, 72, 0
11, 533040, Note_on_c, 10, 72, 96
11, 533230, Note_on_c, 10, 72, 0
11, 533280, Note_on_c, 10, 72, 96
11, 533470, Note_on_c, 10, 72, 0
11, 533520, Note_on_c, 10, 72, 96
11, 533710, Note_on_c, 10, 72, 0
11, 533760, Note_on_c, 10, 72, 96
11, 534910, Note_on_c, 10, 72, 0
11, 535200, Note_on_c, 10, 71, 96
11, 535320, Note_on_c, 10, 71, 0
11, 535680, Note_on_c, 10, 69, 96
11, 535800, Note_on_c, 10, 69, 0
11, 536160, Note_on_c, 10, 67, 96
11, 536280, Note_on_c, 10, 67, 0
11, 536640, Note_on_c, 10, 66, 96
11, 536760, Note_on_c, 10, 66, 0
11, 537600, Note_on_c, 10, 74, 96
11, 538750, Note_on_c, 10, 74, 0
11, 539040, Note_on_c, 10, 72, 96
11, 539160, Note_on_c, 10, 72, 0
11, 539520, Note_on_c, 10, 71, 96
11, 539640, Note_on_c, 10, 71, 0
11, 540000, Note_on_c, 10, 69, 96
11, 540120, Note_on_c, 10, 69, 0
11, 540480, Note_on_c, 10, 67, 96
11, 540600, Note_on_c, 10, 67, 0
11, 543360, Note_on_c, 10, 58, 64
11, 543600, Note_on_c, 10, 58, 0
11, 543600, Note_on_c, 10, 60, 64
11, 543840, Note_on_c, 10, 60, 0
11, 543840, Note_on_c, 10, 58, 64
11, 544080, Note_on_c, 10, 58, 0
11, 544080, Note_on_c, 10, 60, 64
11, 544320, Note_on_c, 10, 60, 0
11, 544320, Note_on_c, 10, 58, 64
11, 544560, Note_on_c, 10, 58, 0
11, 544560, Note_on_c, 10, 60, 64
11, 544800, Note_on_c, 10, 60, 0
11, 544800, Note_on_c, 10, 58, 64
11, 545040, Note_on_c, 10, 58, 0
11, 545040, Note_on_c, 10, 60, 64
11, 545230, Note_on_c, 10, 60, 0
11, 545280, Note_on_c, 10, 57, 64
11, 545520, Note_on_c, 10, 57, 0
11, 545520, Note_on_c, 10, 60, 64
11, 545760, Note_on_c, 10, 60, 0
11, 545760, Note_on_c, 10, 57, 64
11, 546000, Note_on_c, 10, 57, 0
11, 546000, Note_on_c, 10, 60, 64
11, 546240, Note_on_c, 10, 60, 0
11, 546240, Note_on_c, 10, 57, 64
11, 546480, Note_on_c, 10, 57, 0
11, 546480, Note_on_c, 10, 60, 64
11, 546720, Note_on_c, 10, 60, 0
11, 546720, Note_on_c, 10, 57, 64
11, 546960, Note_on_c, 10, 57, 0
11, 546960, Note_on_c, 10, 60, 64
11, 547200, Note_on_c, 10, 60, 0
11, 547200, Note_on_c, 10, 57, 64
11, 547440, Note_on_c, 10, 57, 0
11, 547440, Note_on_c, 10, 60, 64
11, 547680, Note_on_c, 10, 60, 0
11, 547680, Note_on_c, 10, 57, 64
11, 547920, Note_on_c, 10, 57, 0
11, 547920, Note_on_c, 10, 60, 64
11, 548160, Note_on_c, 10, 60, 0
11, 548160, Note_on_c, 10, 57, 64
11, 548400, Note_on_c, 10, 57, 0
11, 548400, Note_on_c, 10, 60, 64
11, 548640, Note_on_c, 10, 60, 0
11, 548640, Note_on_c, 10, 57, 64
11, 548880, Note_on_c, 10, 57, 0
11, 548880, Note_on_c, 10, 60, 64
11, 549070, Note_on_c, 10, 60, 0
11, 549120, Note_on_c, 10, 48, 64
11, 556990, Note_on_c, 10, 48, 0
11, 557040, Note_on_c, 10, 52, 64
11, 557280, Note_on_c, 10, 52, 0
11, 557280, Note_on_c, 10, 55, 64
11, 557520, Note_on_c, 10, 55, 0
11, 557520, Note_on_c, 10, 52, 64
11, 557760, Note_on_c, 10, 52, 0
11, 557760, Note_on_c, 10, 57, 64
11, 558000, Note_on_c, 10, 57, 0
11, 558000, Note_on_c, 10, 53, 64
11, 558240, Note_on_c, 10, 53, 0
11, 558240, Note_on_c, 10, 57, 64
11, 558480, Note_on_c, 10, 57, 0
11, 558480, Note_on_c, 10, 53, 64
11, 558670, Note_on_c, 10, 53, 0
11, 558720, Note_on_c, 10, 55, 64
11, 558960, Note_on_c, 10, 55, 0
11, 558960, Note_on_c, 10, 52, 64
11, 559200, Note_on_c, 10, 52, 0
11, 559200, Note_on_c, 10, 55, 64
11, 559440, Note_on_c, 10, 55, 0
11, 559440, Note_on_c, 10, 52, 64
11, 559680, Note_on_c, 10, 52, 0
11, 559680, Note_on_c, 10, 57, 64
11, 559920, Note_on_c, 10, 57, 0
11, 559920, Note_on_c, 10, 53, 64
11, 560160, Note_on_c, 10, 53, 0
11, 560160, Note_on_c, 10, 57, 64
11, 560400, Note_on_c, 10, 57, 0
11, 560400, Note_on_c, 10, 53, 64
11, 560590, Note_on_c, 10, 53, 0
11, 560640, Note_on_c, 10, 55, 64
11, 562170, Note_on_c, 10, 55, 0
11, 562170, End_track
12, 0, Start_track
12, 0, MIDI_port, 0
12, 0, Title_t, "Violoncello                         "
12, 0, Program_c, 11, 48
12, 0, Control_c, 11, 7, 60
12, 0, Control_c, 11, 10, 70
12, 0, Control_c, 11, 121, 0
12, 360, Control_c, 11, 101, 0
12, 360, Control_c, 11, 100, 0
12, 360, Control_c, 11, 6, 12
12, 360, Control_c, 11, 38, 0
12, 480, Control_c, 11, 5, 0
12, 600, Control_c, 11, 65, 0
12, 720, Control_c, 11, 67, 0
12, 960, Pitch_bend_c, 11, 8192
12, 1080, Control_c, 11, 64, 0
12, 1200, Control_c, 11, 11, 127
12, 1320, Control_c, 11, 1, 0
12, 1560, Control_c, 11, 91, 100
12, 1680, Control_c, 11, 93, 30
12, 1920, Note_on_c, 11, 50, 96
12, 2680, Note_on_c, 11, 50, 0
12, 2880, Note_on_c, 11, 50, 96
12, 3640, Note_on_c, 11, 50, 0
12, 3840, Note_on_c, 11, 50, 96
12, 4600, Note_on_c, 11, 50, 0
12, 5760, Note_on_c, 11, 49, 96
12, 6520, Note_on_c, 11, 49, 0
12, 6720, Note_on_c, 11, 49, 96
12, 7480, Note_on_c, 11, 49, 0
12, 7680, Note_on_c, 11, 49, 96
12, 8440, Note_on_c, 11, 49, 0
12, 9600, Note_on_c, 11, 50, 64
12, 10170, Note_on_c, 11, 50, 0
12, 10320, Note_on_c, 11, 50, 64
12, 10510, Note_on_c, 11, 50, 0
12, 10560, Note_on_c, 11, 50, 64
12, 11130, Note_on_c, 11, 50, 0
12, 11280, Note_on_c, 11, 50, 64
12, 11470, Note_on_c, 11, 50, 0
12, 11520, Note_on_c, 11, 50, 64
12, 12090, Note_on_c, 11, 50, 0
12, 12240, Note_on_c, 11, 50, 64
12, 12430, Note_on_c, 11, 50, 0
12, 12480, Note_on_c, 11, 50, 64
12, 13050, Note_on_c, 11, 50, 0
12, 13200, Note_on_c, 11, 50, 64
12, 13390, Note_on_c, 11, 50, 0
12, 13440, Note_on_c, 11, 49, 64
12, 14010, Note_on_c, 11, 49, 0
12, 14160, Note_on_c, 11, 49, 64
12, 14350, Note_on_c, 11, 49, 0
12, 14400, Note_on_c, 11, 49, 64
12, 14970, Note_on_c, 11, 49, 0
12, 15120, Note_on_c, 11, 49, 64
12, 15310, Note_on_c, 11, 49, 0
12, 15360, Note_on_c, 11, 48, 64
12, 15930, Note_on_c, 11, 48, 0
12, 16080, Note_on_c, 11, 48, 64
12, 16270, Note_on_c, 11, 48, 0
12, 16320, Note_on_c, 11, 48, 64
12, 16890, Note_on_c, 11, 48, 0
12, 17040, Note_on_c, 11, 48, 64
12, 17230, Note_on_c, 11, 48, 0
12, 17280, Note_on_c, 11, 47, 64
12, 17850, Note_on_c, 11, 47, 0
12, 18000, Note_on_c, 11, 47, 64
12, 18190, Note_on_c, 11, 47, 0
12, 18240, Note_on_c, 11, 47, 64
12, 18810, Note_on_c, 11, 47, 0
12, 18960, Note_on_c, 11, 47, 64
12, 19150, Note_on_c, 11, 47, 0
12, 19200, Note_on_c, 11, 46, 64
12, 19770, Note_on_c, 11, 46, 0
12, 19920, Note_on_c, 11, 46, 64
12, 20110, Note_on_c, 11, 46, 0
12, 20160, Note_on_c, 11, 46, 64
12, 20730, Note_on_c, 11, 46, 0
12, 20880, Note_on_c, 11, 46, 64
12, 21070, Note_on_c, 11, 46, 0
12, 21120, Note_on_c, 11, 45, 64
12, 22270, Note_on_c, 11, 45, 0
12, 22560, Note_on_c, 11, 45, 64
12, 23040, Note_on_c, 11, 45, 0
12, 23040, Note_on_c, 11, 49, 64
12, 23520, Note_on_c, 11, 49, 0
12, 23520, Note_on_c, 11, 45, 64
12, 24000, Note_on_c, 11, 45, 0
12, 24000, Note_on_c, 11, 49, 64
12, 24480, Note_on_c, 11, 49, 0
12, 24480, Note_on_c, 11, 45, 64
12, 24960, Note_on_c, 11, 45, 0
12, 24960, Note_on_c, 11, 50, 64
12, 25440, Note_on_c, 11, 50, 0
12, 25440, Note_on_c, 11, 45, 64
12, 25920, Note_on_c, 11, 45, 0
12, 25920, Note_on_c, 11, 50, 64
12, 26400, Note_on_c, 11, 50, 0
12, 26400, Note_on_c, 11, 45, 64
12, 26880, Note_on_c, 11, 45, 0
12, 26880, Note_on_c, 11, 49, 64
12, 27360, Note_on_c, 11, 49, 0
12, 27360, Note_on_c, 11, 45, 64
12, 27840, Note_on_c, 11, 45, 0
12, 27840, Note_on_c, 11, 49, 64
12, 28320, Note_on_c, 11, 49, 0
12, 28320, Note_on_c, 11, 45, 64
12, 28800, Note_on_c, 11, 45, 0
12, 28800, Note_on_c, 11, 50, 64
12, 28990, Note_on_c, 11, 50, 0
12, 29280, Note_on_c, 11, 54, 101
12, 29760, Note_on_c, 11, 54, 0
12, 29760, Note_on_c, 11, 55, 64
12, 29950, Note_on_c, 11, 55, 0
12, 30240, Note_on_c, 11, 54, 101
12, 30720, Note_on_c, 11, 54, 0
12, 30720, Note_on_c, 11, 55, 64
12, 30910, Note_on_c, 11, 55, 0
12, 31200, Note_on_c, 11, 54, 101
12, 31680, Note_on_c, 11, 54, 0
12, 31680, Note_on_c, 11, 55, 64
12, 31870, Note_on_c, 11, 55, 0
12, 32160, Note_on_c, 11, 54, 101
12, 32640, Note_on_c, 11, 54, 0
12, 32640, Note_on_c, 11, 55, 64
12, 32830, Note_on_c, 11, 55, 0
12, 33120, Note_on_c, 11, 58, 64
12, 33310, Note_on_c, 11, 58, 0
12, 33600, Note_on_c, 11, 51, 64
12, 33790, Note_on_c, 11, 51, 0
12, 34080, Note_on_c, 11, 55, 64
12, 34270, Note_on_c, 11, 55, 0
12, 34560, Note_on_c, 11, 49, 101
12, 36090, Note_on_c, 11, 49, 0
12, 36480, Note_on_c, 11, 50, 64
12, 36670, Note_on_c, 11, 50, 0
12, 36960, Note_on_c, 11, 53, 64
12, 37150, Note_on_c, 11, 53, 0
12, 37440, Note_on_c, 11, 46, 64
12, 37630, Note_on_c, 11, 46, 0
12, 37920, Note_on_c, 11, 50, 64
12, 38110, Note_on_c, 11, 50, 0
12, 38400, Note_on_c, 11, 44, 101
12, 40320, Note_on_c, 11, 44, 0
12, 40320, Note_on_c, 11, 43, 64
12, 40700, Note_on_c, 11, 43, 0
12, 41280, Note_on_c, 11, 43, 64
12, 41660, Note_on_c, 11, 43, 0
12, 42240, Note_on_c, 11, 45, 64
12, 42620, Note_on_c, 11, 45, 0
12, 43200, Note_on_c, 11, 45, 64
12, 43580, Note_on_c, 11, 45, 0
12, 44160, Note_on_c, 11, 53, 64
12, 44730, Note_on_c, 11, 53, 0
12, 44880, Note_on_c, 11, 53, 64
12, 45070, Note_on_c, 11, 53, 0
12, 45120, Note_on_c, 11, 53, 64
12, 45690, Note_on_c, 11, 53, 0
12, 45840, Note_on_c, 11, 53, 64
12, 46030, Note_on_c, 11, 53, 0
12, 46080, Note_on_c, 11, 55, 64
12, 46650, Note_on_c, 11, 55, 0
12, 46800, Note_on_c, 11, 55, 64
12, 46990, Note_on_c, 11, 55, 0
12, 47040, Note_on_c, 11, 56, 64
12, 47610, Note_on_c, 11, 56, 0
12, 47760, Note_on_c, 11, 56, 64
12, 47950, Note_on_c, 11, 56, 0
12, 48000, Note_on_c, 11, 57, 64
12, 48570, Note_on_c, 11, 57, 0
12, 48720, Note_on_c, 11, 57, 64
12, 48910, Note_on_c, 11, 57, 0
12, 48960, Note_on_c, 11, 57, 64
12, 49530, Note_on_c, 11, 57, 0
12, 49680, Note_on_c, 11, 57, 64
12, 49870, Note_on_c, 11, 57, 0
12, 49920, Note_on_c, 11, 58, 64
12, 50490, Note_on_c, 11, 58, 0
12, 50640, Note_on_c, 11, 58, 64
12, 50830, Note_on_c, 11, 58, 0
12, 50880, Note_on_c, 11, 58, 64
12, 51450, Note_on_c, 11, 58, 0
12, 51600, Note_on_c, 11, 58, 64
12, 51790, Note_on_c, 11, 58, 0
12, 51840, Note_on_c, 11, 46, 96
12, 52410, Note_on_c, 11, 46, 0
12, 52560, Note_on_c, 11, 46, 96
12, 52750, Note_on_c, 11, 46, 0
12, 52800, Note_on_c, 11, 46, 96
12, 53370, Note_on_c, 11, 46, 0
12, 53520, Note_on_c, 11, 46, 96
12, 53710, Note_on_c, 11, 46, 0
12, 53760, Note_on_c, 11, 46, 96
12, 54330, Note_on_c, 11, 46, 0
12, 54480, Note_on_c, 11, 46, 96
12, 54670, Note_on_c, 11, 46, 0
12, 54720, Note_on_c, 11, 46, 96
12, 55290, Note_on_c, 11, 46, 0
12, 55440, Note_on_c, 11, 46, 96
12, 55630, Note_on_c, 11, 46, 0
12, 55680, Note_on_c, 11, 45, 64
12, 56250, Note_on_c, 11, 45, 0
12, 56400, Note_on_c, 11, 45, 64
12, 56590, Note_on_c, 11, 45, 0
12, 56640, Note_on_c, 11, 45, 64
12, 57210, Note_on_c, 11, 45, 0
12, 57360, Note_on_c, 11, 45, 64
12, 57550, Note_on_c, 11, 45, 0
12, 57600, Note_on_c, 11, 45, 64
12, 58170, Note_on_c, 11, 45, 0
12, 58320, Note_on_c, 11, 45, 64
12, 58510, Note_on_c, 11, 45, 0
12, 58560, Note_on_c, 11, 45, 64
12, 59130, Note_on_c, 11, 45, 0
12, 59280, Note_on_c, 11, 45, 64
12, 59470, Note_on_c, 11, 45, 0
12, 59520, Note_on_c, 11, 50, 64
12, 59710, Note_on_c, 11, 50, 0
12, 59760, Note_on_c, 11, 62, 64
12, 59950, Note_on_c, 11, 62, 0
12, 60000, Note_on_c, 11, 62, 64
12, 60190, Note_on_c, 11, 62, 0
12, 60240, Note_on_c, 11, 62, 64
12, 60430, Note_on_c, 11, 62, 0
12, 60480, Note_on_c, 11, 62, 64
12, 60670, Note_on_c, 11, 62, 0
12, 60720, Note_on_c, 11, 62, 64
12, 60910, Note_on_c, 11, 62, 0
12, 60960, Note_on_c, 11, 62, 64
12, 61150, Note_on_c, 11, 62, 0
12, 61200, Note_on_c, 11, 62, 64
12, 61390, Note_on_c, 11, 62, 0
12, 61440, Note_on_c, 11, 62, 64
12, 61630, Note_on_c, 11, 62, 0
12, 61680, Note_on_c, 11, 62, 64
12, 61870, Note_on_c, 11, 62, 0
12, 61920, Note_on_c, 11, 62, 64
12, 62110, Note_on_c, 11, 62, 0
12, 62160, Note_on_c, 11, 62, 64
12, 62350, Note_on_c, 11, 62, 0
12, 62400, Note_on_c, 11, 62, 64
12, 62590, Note_on_c, 11, 62, 0
12, 62640, Note_on_c, 11, 62, 64
12, 62830, Note_on_c, 11, 62, 0
12, 62880, Note_on_c, 11, 62, 64
12, 63070, Note_on_c, 11, 62, 0
12, 63120, Note_on_c, 11, 62, 64
12, 63310, Note_on_c, 11, 62, 0
12, 63360, Note_on_c, 11, 62, 64
12, 63550, Note_on_c, 11, 62, 0
12, 63600, Note_on_c, 11, 62, 64
12, 63790, Note_on_c, 11, 62, 0
12, 63840, Note_on_c, 11, 62, 64
12, 64030, Note_on_c, 11, 62, 0
12, 64080, Note_on_c, 11, 62, 64
12, 64270, Note_on_c, 11, 62, 0
12, 64320, Note_on_c, 11, 62, 64
12, 64510, Note_on_c, 11, 62, 0
12, 64560, Note_on_c, 11, 62, 64
12, 64750, Note_on_c, 11, 62, 0
12, 64800, Note_on_c, 11, 62, 64
12, 64990, Note_on_c, 11, 62, 0
12, 65040, Note_on_c, 11, 62, 64
12, 65230, Note_on_c, 11, 62, 0
12, 65280, Note_on_c, 11, 62, 64
12, 65470, Note_on_c, 11, 62, 0
12, 65520, Note_on_c, 11, 62, 64
12, 65710, Note_on_c, 11, 62, 0
12, 65760, Note_on_c, 11, 62, 64
12, 65950, Note_on_c, 11, 62, 0
12, 66000, Note_on_c, 11, 62, 64
12, 66190, Note_on_c, 11, 62, 0
12, 66240, Note_on_c, 11, 62, 64
12, 66430, Note_on_c, 11, 62, 0
12, 66480, Note_on_c, 11, 62, 64
12, 66670, Note_on_c, 11, 62, 0
12, 66720, Note_on_c, 11, 62, 64
12, 66910, Note_on_c, 11, 62, 0
12, 66960, Note_on_c, 11, 62, 64
12, 67150, Note_on_c, 11, 62, 0
12, 67200, Note_on_c, 11, 62, 64
12, 67390, Note_on_c, 11, 62, 0
12, 67440, Note_on_c, 11, 62, 64
12, 67630, Note_on_c, 11, 62, 0
12, 67680, Note_on_c, 11, 62, 64
12, 67870, Note_on_c, 11, 62, 0
12, 67920, Note_on_c, 11, 62, 64
12, 68110, Note_on_c, 11, 62, 0
12, 68160, Note_on_c, 11, 62, 64
12, 68350, Note_on_c, 11, 62, 0
12, 68400, Note_on_c, 11, 62, 64
12, 68590, Note_on_c, 11, 62, 0
12, 68640, Note_on_c, 11, 62, 64
12, 68830, Note_on_c, 11, 62, 0
12, 68880, Note_on_c, 11, 62, 64
12, 69070, Note_on_c, 11, 62, 0
12, 69120, Note_on_c, 11, 62, 64
12, 70650, Note_on_c, 11, 62, 0
12, 71040, Note_on_c, 11, 55, 64
12, 72000, Note_on_c, 11, 55, 0
12, 72000, Note_on_c, 11, 57, 64
12, 72760, Note_on_c, 11, 57, 0
12, 72960, Note_on_c, 11, 50, 64
12, 73340, Note_on_c, 11, 50, 0
12, 76800, Note_on_c, 11, 62, 64
12, 76990, Note_on_c, 11, 62, 0
12, 77040, Note_on_c, 11, 62, 64
12, 77230, Note_on_c, 11, 62, 0
12, 77280, Note_on_c, 11, 62, 64
12, 77470, Note_on_c, 11, 62, 0
12, 77520, Note_on_c, 11, 62, 64
12, 77710, Note_on_c, 11, 62, 0
12, 77760, Note_on_c, 11, 62, 64
12, 77950, Note_on_c, 11, 62, 0
12, 78000, Note_on_c, 11, 62, 64
12, 78190, Note_on_c, 11, 62, 0
12, 78240, Note_on_c, 11, 62, 64
12, 78430, Note_on_c, 11, 62, 0
12, 78480, Note_on_c, 11, 62, 64
12, 78670, Note_on_c, 11, 62, 0
12, 78720, Note_on_c, 11, 62, 64
12, 78910, Note_on_c, 11, 62, 0
12, 78960, Note_on_c, 11, 62, 64
12, 79150, Note_on_c, 11, 62, 0
12, 79200, Note_on_c, 11, 62, 64
12, 79390, Note_on_c, 11, 62, 0
12, 79440, Note_on_c, 11, 62, 64
12, 79630, Note_on_c, 11, 62, 0
12, 79680, Note_on_c, 11, 62, 64
12, 79870, Note_on_c, 11, 62, 0
12, 79920, Note_on_c, 11, 62, 64
12, 80110, Note_on_c, 11, 62, 0
12, 80160, Note_on_c, 11, 62, 64
12, 80350, Note_on_c, 11, 62, 0
12, 80400, Note_on_c, 11, 62, 64
12, 80590, Note_on_c, 11, 62, 0
12, 80640, Note_on_c, 11, 62, 64
12, 80830, Note_on_c, 11, 62, 0
12, 80880, Note_on_c, 11, 62, 64
12, 81070, Note_on_c, 11, 62, 0
12, 81120, Note_on_c, 11, 62, 64
12, 81310, Note_on_c, 11, 62, 0
12, 81360, Note_on_c, 11, 62, 64
12, 81550, Note_on_c, 11, 62, 0
12, 81600, Note_on_c, 11, 62, 64
12, 81790, Note_on_c, 11, 62, 0
12, 81840, Note_on_c, 11, 62, 64
12, 82030, Note_on_c, 11, 62, 0
12, 82080, Note_on_c, 11, 62, 64
12, 82270, Note_on_c, 11, 62, 0
12, 82320, Note_on_c, 11, 62, 64
12, 82510, Note_on_c, 11, 62, 0
12, 82560, Note_on_c, 11, 62, 64
12, 82750, Note_on_c, 11, 62, 0
12, 82800, Note_on_c, 11, 62, 64
12, 82990, Note_on_c, 11, 62, 0
12, 83040, Note_on_c, 11, 62, 64
12, 83230, Note_on_c, 11, 62, 0
12, 83280, Note_on_c, 11, 62, 64
12, 83470, Note_on_c, 11, 62, 0
12, 83520, Note_on_c, 11, 62, 64
12, 83710, Note_on_c, 11, 62, 0
12, 83760, Note_on_c, 11, 62, 64
12, 83950, Note_on_c, 11, 62, 0
12, 84000, Note_on_c, 11, 62, 64
12, 84190, Note_on_c, 11, 62, 0
12, 84240, Note_on_c, 11, 62, 64
12, 84430, Note_on_c, 11, 62, 0
12, 84480, Note_on_c, 11, 57, 64
12, 85440, Note_on_c, 11, 57, 0
12, 85440, Note_on_c, 11, 59, 64
12, 86200, Note_on_c, 11, 59, 0
12, 86400, Note_on_c, 11, 55, 64
12, 87360, Note_on_c, 11, 55, 0
12, 87360, Note_on_c, 11, 57, 64
12, 88120, Note_on_c, 11, 57, 0
12, 88320, Note_on_c, 11, 50, 64
12, 88700, Note_on_c, 11, 50, 0
12, 92160, Note_on_c, 11, 50, 96
12, 92220, Note_on_c, 11, 50, 0
12, 92400, Note_on_c, 11, 54, 96
12, 92460, Note_on_c, 11, 54, 0
12, 92640, Note_on_c, 11, 45, 96
12, 92700, Note_on_c, 11, 45, 0
12, 92880, Note_on_c, 11, 49, 96
12, 92940, Note_on_c, 11, 49, 0
12, 93120, Note_on_c, 11, 50, 96
12, 93180, Note_on_c, 11, 50, 0
12, 93360, Note_on_c, 11, 54, 96
12, 93420, Note_on_c, 11, 54, 0
12, 93600, Note_on_c, 11, 55, 96
12, 93660, Note_on_c, 11, 55, 0
12, 93840, Note_on_c, 11, 52, 96
12, 93900, Note_on_c, 11, 52, 0
12, 94080, Note_on_c, 11, 50, 96
12, 94140, Note_on_c, 11, 50, 0
12, 94320, Note_on_c, 11, 54, 96
12, 94380, Note_on_c, 11, 54, 0
12, 94560, Note_on_c, 11, 45, 96
12, 94620, Note_on_c, 11, 45, 0
12, 94800, Note_on_c, 11, 49, 96
12, 94860, Note_on_c, 11, 49, 0
12, 95040, Note_on_c, 11, 50, 96
12, 95100, Note_on_c, 11, 50, 0
12, 95280, Note_on_c, 11, 54, 96
12, 95340, Note_on_c, 11, 54, 0
12, 95520, Note_on_c, 11, 55, 96
12, 95580, Note_on_c, 11, 55, 0
12, 95760, Note_on_c, 11, 52, 96
12, 95820, Note_on_c, 11, 52, 0
12, 96000, Note_on_c, 11, 50, 96
12, 96240, Note_on_c, 11, 50, 0
12, 96240, Note_on_c, 11, 45, 96
12, 96430, Note_on_c, 11, 45, 0
12, 96480, Note_on_c, 11, 54, 96
12, 96540, Note_on_c, 11, 54, 0
12, 96720, Note_on_c, 11, 54, 96
12, 96780, Note_on_c, 11, 54, 0
12, 96960, Note_on_c, 11, 54, 96
12, 97200, Note_on_c, 11, 54, 0
12, 97200, Note_on_c, 11, 50, 96
12, 97390, Note_on_c, 11, 50, 0
12, 97440, Note_on_c, 11, 57, 96
12, 97500, Note_on_c, 11, 57, 0
12, 97680, Note_on_c, 11, 57, 96
12, 97740, Note_on_c, 11, 57, 0
12, 97920, Note_on_c, 11, 57, 96
12, 98160, Note_on_c, 11, 57, 0
12, 98160, Note_on_c, 11, 54, 96
12, 98350, Note_on_c, 11, 54, 0
12, 98400, Note_on_c, 11, 62, 96
12, 98460, Note_on_c, 11, 62, 0
12, 98640, Note_on_c, 11, 62, 96
12, 98700, Note_on_c, 11, 62, 0
12, 98880, Note_on_c, 11, 62, 96
12, 99070, Note_on_c, 11, 62, 0
12, 99120, Note_on_c, 11, 57, 96
12, 99310, Note_on_c, 11, 57, 0
12, 99360, Note_on_c, 11, 54, 96
12, 99550, Note_on_c, 11, 54, 0
12, 99600, Note_on_c, 11, 50, 96
12, 99790, Note_on_c, 11, 50, 0
12, 99840, Note_on_c, 11, 57, 96
12, 100030, Note_on_c, 11, 57, 0
12, 100080, Note_on_c, 11, 57, 96
12, 100270, Note_on_c, 11, 57, 0
12, 100320, Note_on_c, 11, 57, 96
12, 100510, Note_on_c, 11, 57, 0
12, 100560, Note_on_c, 11, 57, 96
12, 100750, Note_on_c, 11, 57, 0
12, 100800, Note_on_c, 11, 57, 96
12, 100990, Note_on_c, 11, 57, 0
12, 101040, Note_on_c, 11, 57, 96
12, 101230, Note_on_c, 11, 57, 0
12, 101280, Note_on_c, 11, 57, 96
12, 101470, Note_on_c, 11, 57, 0
12, 101520, Note_on_c, 11, 57, 96
12, 101710, Note_on_c, 11, 57, 0
12, 101760, Note_on_c, 11, 57, 96
12, 101950, Note_on_c, 11, 57, 0
12, 102000, Note_on_c, 11, 57, 96
12, 102190, Note_on_c, 11, 57, 0
12, 102240, Note_on_c, 11, 57, 96
12, 102430, Note_on_c, 11, 57, 0
12, 102480, Note_on_c, 11, 57, 96
12, 102670, Note_on_c, 11, 57, 0
12, 102720, Note_on_c, 11, 57, 96
12, 102910, Note_on_c, 11, 57, 0
12, 102960, Note_on_c, 11, 57, 96
12, 103150, Note_on_c, 11, 57, 0
12, 103200, Note_on_c, 11, 57, 96
12, 103390, Note_on_c, 11, 57, 0
12, 103440, Note_on_c, 11, 57, 96
12, 103630, Note_on_c, 11, 57, 0
12, 103680, Note_on_c, 11, 57, 96
12, 103870, Note_on_c, 11, 57, 0
12, 103920, Note_on_c, 11, 57, 96
12, 104110, Note_on_c, 11, 57, 0
12, 104160, Note_on_c, 11, 57, 96
12, 104350, Note_on_c, 11, 57, 0
12, 104400, Note_on_c, 11, 57, 96
12, 104590, Note_on_c, 11, 57, 0
12, 104640, Note_on_c, 11, 57, 96
12, 104830, Note_on_c, 11, 57, 0
12, 104880, Note_on_c, 11, 57, 96
12, 105070, Note_on_c, 11, 57, 0
12, 105120, Note_on_c, 11, 57, 96
12, 105310, Note_on_c, 11, 57, 0
12, 105360, Note_on_c, 11, 57, 96
12, 105550, Note_on_c, 11, 57, 0
12, 105600, Note_on_c, 11, 57, 96
12, 105980, Note_on_c, 11, 57, 0
12, 106080, Note_on_c, 11, 45, 96
12, 106270, Note_on_c, 11, 45, 0
12, 106320, Note_on_c, 11, 45, 96
12, 106510, Note_on_c, 11, 45, 0
12, 106560, Note_on_c, 11, 45, 96
12, 106940, Note_on_c, 11, 45, 0
12, 107520, Note_on_c, 11, 45, 96
12, 107710, Note_on_c, 11, 45, 0
12, 107760, Note_on_c, 11, 57, 96
12, 107950, Note_on_c, 11, 57, 0
12, 108000, Note_on_c, 11, 57, 96
12, 108190, Note_on_c, 11, 57, 0
12, 108240, Note_on_c, 11, 57, 96
12, 108430, Note_on_c, 11, 57, 0
12, 108480, Note_on_c, 11, 57, 96
12, 108860, Note_on_c, 11, 57, 0
12, 111360, Note_on_c, 11, 47, 96
12, 111550, Note_on_c, 11, 47, 0
12, 111600, Note_on_c, 11, 59, 96
12, 111790, Note_on_c, 11, 59, 0
12, 111840, Note_on_c, 11, 59, 96
12, 112030, Note_on_c, 11, 59, 0
12, 112080, Note_on_c, 11, 59, 96
12, 112270, Note_on_c, 11, 59, 0
12, 112320, Note_on_c, 11, 59, 96
12, 112700, Note_on_c, 11, 59, 0
12, 115200, Note_on_c, 11, 40, 96
12, 115390, Note_on_c, 11, 40, 0
12, 115440, Note_on_c, 11, 52, 96
12, 115630, Note_on_c, 11, 52, 0
12, 115680, Note_on_c, 11, 52, 96
12, 115870, Note_on_c, 11, 52, 0
12, 115920, Note_on_c, 11, 52, 96
12, 116110, Note_on_c, 11, 52, 0
12, 116160, Note_on_c, 11, 52, 96
12, 116540, Note_on_c, 11, 52, 0
12, 128640, Note_on_c, 11, 62, 96
12, 128830, Note_on_c, 11, 62, 0
12, 128880, Note_on_c, 11, 62, 96
12, 129070, Note_on_c, 11, 62, 0
12, 129120, Note_on_c, 11, 62, 96
12, 129310, Note_on_c, 11, 62, 0
12, 129360, Note_on_c, 11, 62, 96
12, 129550, Note_on_c, 11, 62, 0
12, 129600, Note_on_c, 11, 62, 96
12, 129790, Note_on_c, 11, 62, 0
12, 129840, Note_on_c, 11, 62, 96
12, 130030, Note_on_c, 11, 62, 0
12, 130080, Note_on_c, 11, 62, 96
12, 130270, Note_on_c, 11, 62, 0
12, 130320, Note_on_c, 11, 62, 96
12, 130510, Note_on_c, 11, 62, 0
12, 130560, Note_on_c, 11, 60, 96
12, 130750, Note_on_c, 11, 60, 0
12, 130800, Note_on_c, 11, 60, 96
12, 130990, Note_on_c, 11, 60, 0
12, 131040, Note_on_c, 11, 60, 96
12, 131230, Note_on_c, 11, 60, 0
12, 131280, Note_on_c, 11, 60, 96
12, 131470, Note_on_c, 11, 60, 0
12, 131520, Note_on_c, 11, 60, 96
12, 131710, Note_on_c, 11, 60, 0
12, 131760, Note_on_c, 11, 60, 96
12, 131950, Note_on_c, 11, 60, 0
12, 132000, Note_on_c, 11, 60, 96
12, 132190, Note_on_c, 11, 60, 0
12, 132240, Note_on_c, 11, 60, 96
12, 132430, Note_on_c, 11, 60, 0
12, 132480, Note_on_c, 11, 62, 96
12, 132670, Note_on_c, 11, 62, 0
12, 132720, Note_on_c, 11, 62, 96
12, 132910, Note_on_c, 11, 62, 0
12, 132960, Note_on_c, 11, 62, 96
12, 133150, Note_on_c, 11, 62, 0
12, 133200, Note_on_c, 11, 62, 96
12, 133390, Note_on_c, 11, 62, 0
12, 133440, Note_on_c, 11, 62, 96
12, 133630, Note_on_c, 11, 62, 0
12, 133680, Note_on_c, 11, 62, 96
12, 133870, Note_on_c, 11, 62, 0
12, 133920, Note_on_c, 11, 62, 96
12, 134110, Note_on_c, 11, 62, 0
12, 134160, Note_on_c, 11, 62, 96
12, 134350, Note_on_c, 11, 62, 0
12, 134400, Note_on_c, 11, 60, 96
12, 134590, Note_on_c, 11, 60, 0
12, 134640, Note_on_c, 11, 60, 96
12, 134830, Note_on_c, 11, 60, 0
12, 134880, Note_on_c, 11, 60, 96
12, 135070, Note_on_c, 11, 60, 0
12, 135120, Note_on_c, 11, 60, 96
12, 135310, Note_on_c, 11, 60, 0
12, 135360, Note_on_c, 11, 60, 96
12, 135550, Note_on_c, 11, 60, 0
12, 135600, Note_on_c, 11, 60, 96
12, 135790, Note_on_c, 11, 60, 0
12, 135840, Note_on_c, 11, 60, 96
12, 136030, Note_on_c, 11, 60, 0
12, 136080, Note_on_c, 11, 60, 96
12, 136270, Note_on_c, 11, 60, 0
12, 136320, Note_on_c, 11, 62, 96
12, 136510, Note_on_c, 11, 62, 0
12, 136560, Note_on_c, 11, 62, 96
12, 136750, Note_on_c, 11, 62, 0
12, 136800, Note_on_c, 11, 62, 96
12, 136990, Note_on_c, 11, 62, 0
12, 137040, Note_on_c, 11, 62, 96
12, 137230, Note_on_c, 11, 62, 0
12, 137280, Note_on_c, 11, 62, 96
12, 137470, Note_on_c, 11, 62, 0
12, 137520, Note_on_c, 11, 62, 96
12, 137710, Note_on_c, 11, 62, 0
12, 137760, Note_on_c, 11, 62, 96
12, 137950, Note_on_c, 11, 62, 0
12, 138000, Note_on_c, 11, 62, 96
12, 138190, Note_on_c, 11, 62, 0
12, 138240, Note_on_c, 11, 63, 96
12, 138430, Note_on_c, 11, 63, 0
12, 138480, Note_on_c, 11, 63, 96
12, 138670, Note_on_c, 11, 63, 0
12, 138720, Note_on_c, 11, 63, 96
12, 138910, Note_on_c, 11, 63, 0
12, 138960, Note_on_c, 11, 63, 96
12, 139150, Note_on_c, 11, 63, 0
12, 139200, Note_on_c, 11, 63, 96
12, 139390, Note_on_c, 11, 63, 0
12, 139440, Note_on_c, 11, 63, 96
12, 139630, Note_on_c, 11, 63, 0
12, 139680, Note_on_c, 11, 63, 96
12, 139870, Note_on_c, 11, 63, 0
12, 139920, Note_on_c, 11, 63, 96
12, 140110, Note_on_c, 11, 63, 0
12, 140160, Note_on_c, 11, 64, 96
12, 140350, Note_on_c, 11, 64, 0
12, 140400, Note_on_c, 11, 64, 96
12, 140590, Note_on_c, 11, 64, 0
12, 140640, Note_on_c, 11, 64, 96
12, 140830, Note_on_c, 11, 64, 0
12, 140880, Note_on_c, 11, 64, 96
12, 141070, Note_on_c, 11, 64, 0
12, 141120, Note_on_c, 11, 64, 96
12, 141310, Note_on_c, 11, 64, 0
12, 141360, Note_on_c, 11, 64, 96
12, 141550, Note_on_c, 11, 64, 0
12, 141600, Note_on_c, 11, 64, 96
12, 141790, Note_on_c, 11, 64, 0
12, 141840, Note_on_c, 11, 64, 96
12, 142030, Note_on_c, 11, 64, 0
12, 142080, Note_on_c, 11, 64, 96
12, 142270, Note_on_c, 11, 64, 0
12, 142320, Note_on_c, 11, 64, 96
12, 142510, Note_on_c, 11, 64, 0
12, 142560, Note_on_c, 11, 64, 96
12, 142750, Note_on_c, 11, 64, 0
12, 142800, Note_on_c, 11, 64, 96
12, 142990, Note_on_c, 11, 64, 0
12, 143040, Note_on_c, 11, 64, 96
12, 143230, Note_on_c, 11, 64, 0
12, 143280, Note_on_c, 11, 64, 96
12, 143470, Note_on_c, 11, 64, 0
12, 143520, Note_on_c, 11, 64, 96
12, 143710, Note_on_c, 11, 64, 0
12, 143760, Note_on_c, 11, 64, 96
12, 143950, Note_on_c, 11, 64, 0
12, 144000, Note_on_c, 11, 64, 96
12, 144380, Note_on_c, 11, 64, 0
12, 144960, Note_on_c, 11, 52, 96
12, 145340, Note_on_c, 11, 52, 0
12, 145440, Note_on_c, 11, 52, 96
12, 145820, Note_on_c, 11, 52, 0
12, 145920, Note_on_c, 11, 52, 96
12, 146680, Note_on_c, 11, 52, 0
12, 147840, Note_on_c, 11, 50, 101
12, 148990, Note_on_c, 11, 50, 0
12, 149280, Note_on_c, 11, 49, 96
12, 149400, Note_on_c, 11, 49, 0
12, 149760, Note_on_c, 11, 47, 96
12, 149880, Note_on_c, 11, 47, 0
12, 150240, Note_on_c, 11, 45, 96
12, 150360, Note_on_c, 11, 45, 0
12, 150720, Note_on_c, 11, 44, 96
12, 150840, Note_on_c, 11, 44, 0
12, 155520, Note_on_c, 11, 50, 101
12, 156670, Note_on_c, 11, 50, 0
12, 156960, Note_on_c, 11, 49, 96
12, 157080, Note_on_c, 11, 49, 0
12, 157440, Note_on_c, 11, 47, 96
12, 157560, Note_on_c, 11, 47, 0
12, 157920, Note_on_c, 11, 45, 96
12, 158040, Note_on_c, 11, 45, 0
12, 158400, Note_on_c, 11, 44, 96
12, 158520, Note_on_c, 11, 44, 0
12, 163200, Note_on_c, 11, 50, 96
12, 164350, Note_on_c, 11, 50, 0
12, 164640, Note_on_c, 11, 49, 64
12, 164760, Note_on_c, 11, 49, 0
12, 165120, Note_on_c, 11, 47, 64
12, 165240, Note_on_c, 11, 47, 0
12, 165600, Note_on_c, 11, 45, 64
12, 165720, Note_on_c, 11, 45, 0
12, 166080, Note_on_c, 11, 44, 64
12, 166200, Note_on_c, 11, 44, 0
12, 167040, Note_on_c, 11, 50, 96
12, 168190, Note_on_c, 11, 50, 0
12, 168480, Note_on_c, 11, 48, 64
12, 168600, Note_on_c, 11, 48, 0
12, 168960, Note_on_c, 11, 47, 64
12, 169080, Note_on_c, 11, 47, 0
12, 169440, Note_on_c, 11, 45, 64
12, 169560, Note_on_c, 11, 45, 0
12, 169920, Note_on_c, 11, 44, 64
12, 170040, Note_on_c, 11, 44, 0
12, 170880, Note_on_c, 11, 50, 64
12, 172030, Note_on_c, 11, 50, 0
12, 172320, Note_on_c, 11, 48, 64
12, 172440, Note_on_c, 11, 48, 0
12, 172800, Note_on_c, 11, 47, 64
12, 172920, Note_on_c, 11, 47, 0
12, 173280, Note_on_c, 11, 45, 64
12, 173400, Note_on_c, 11, 45, 0
12, 173760, Note_on_c, 11, 43, 64
12, 173880, Note_on_c, 11, 43, 0
12, 174720, Note_on_c, 11, 43, 64
12, 182010, Note_on_c, 11, 43, 0
12, 182400, Note_on_c, 11, 52, 64
12, 184320, Note_on_c, 11, 52, 0
12, 184320, Note_on_c, 11, 53, 64
12, 185850, Note_on_c, 11, 53, 0
12, 186240, Note_on_c, 11, 52, 64
12, 186620, Note_on_c, 11, 52, 0
12, 188160, Note_on_c, 11, 52, 64
12, 188540, Note_on_c, 11, 52, 0
12, 190080, Note_on_c, 11, 45, 96
12, 190270, Note_on_c, 11, 45, 0
12, 190320, Note_on_c, 11, 57, 96
12, 190510, Note_on_c, 11, 57, 0
12, 190560, Note_on_c, 11, 57, 96
12, 190750, Note_on_c, 11, 57, 0
12, 190800, Note_on_c, 11, 57, 96
12, 190990, Note_on_c, 11, 57, 0
12, 191040, Note_on_c, 11, 57, 96
12, 191230, Note_on_c, 11, 57, 0
12, 191280, Note_on_c, 11, 57, 96
12, 191470, Note_on_c, 11, 57, 0
12, 191520, Note_on_c, 11, 57, 96
12, 191710, Note_on_c, 11, 57, 0
12, 191760, Note_on_c, 11, 57, 96
12, 191950, Note_on_c, 11, 57, 0
12, 192000, Note_on_c, 11, 57, 96
12, 192190, Note_on_c, 11, 57, 0
12, 192240, Note_on_c, 11, 57, 96
12, 192430, Note_on_c, 11, 57, 0
12, 192480, Note_on_c, 11, 57, 96
12, 192670, Note_on_c, 11, 57, 0
12, 192720, Note_on_c, 11, 57, 96
12, 192910, Note_on_c, 11, 57, 0
12, 192960, Note_on_c, 11, 57, 96
12, 193150, Note_on_c, 11, 57, 0
12, 193200, Note_on_c, 11, 57, 96
12, 193390, Note_on_c, 11, 57, 0
12, 193440, Note_on_c, 11, 57, 96
12, 193630, Note_on_c, 11, 57, 0
12, 193680, Note_on_c, 11, 57, 96
12, 193870, Note_on_c, 11, 57, 0
12, 193920, Note_on_c, 11, 50, 96
12, 194110, Note_on_c, 11, 50, 0
12, 194160, Note_on_c, 11, 50, 96
12, 194350, Note_on_c, 11, 50, 0
12, 194400, Note_on_c, 11, 50, 96
12, 194590, Note_on_c, 11, 50, 0
12, 194640, Note_on_c, 11, 50, 96
12, 194830, Note_on_c, 11, 50, 0
12, 194880, Note_on_c, 11, 50, 96
12, 195070, Note_on_c, 11, 50, 0
12, 195120, Note_on_c, 11, 50, 96
12, 195310, Note_on_c, 11, 50, 0
12, 195360, Note_on_c, 11, 50, 96
12, 195550, Note_on_c, 11, 50, 0
12, 195600, Note_on_c, 11, 50, 96
12, 195790, Note_on_c, 11, 50, 0
12, 195840, Note_on_c, 11, 62, 96
12, 196030, Note_on_c, 11, 62, 0
12, 196080, Note_on_c, 11, 62, 96
12, 196270, Note_on_c, 11, 62, 0
12, 196320, Note_on_c, 11, 62, 96
12, 196510, Note_on_c, 11, 62, 0
12, 196560, Note_on_c, 11, 62, 96
12, 196750, Note_on_c, 11, 62, 0
12, 196800, Note_on_c, 11, 62, 96
12, 196990, Note_on_c, 11, 62, 0
12, 197040, Note_on_c, 11, 62, 96
12, 197230, Note_on_c, 11, 62, 0
12, 197280, Note_on_c, 11, 62, 96
12, 197470, Note_on_c, 11, 62, 0
12, 197520, Note_on_c, 11, 62, 96
12, 197710, Note_on_c, 11, 62, 0
12, 197760, Note_on_c, 11, 64, 96
12, 197950, Note_on_c, 11, 64, 0
12, 198000, Note_on_c, 11, 64, 96
12, 198190, Note_on_c, 11, 64, 0
12, 198240, Note_on_c, 11, 64, 96
12, 198430, Note_on_c, 11, 64, 0
12, 198480, Note_on_c, 11, 64, 96
12, 198670, Note_on_c, 11, 64, 0
12, 198720, Note_on_c, 11, 64, 96
12, 198910, Note_on_c, 11, 64, 0
12, 198960, Note_on_c, 11, 64, 96
12, 199150, Note_on_c, 11, 64, 0
12, 199200, Note_on_c, 11, 64, 96
12, 199390, Note_on_c, 11, 64, 0
12, 199440, Note_on_c, 11, 64, 96
12, 199630, Note_on_c, 11, 64, 0
12, 199680, Note_on_c, 11, 52, 96
12, 199870, Note_on_c, 11, 52, 0
12, 199920, Note_on_c, 11, 52, 96
12, 200110, Note_on_c, 11, 52, 0
12, 200160, Note_on_c, 11, 52, 96
12, 200350, Note_on_c, 11, 52, 0
12, 200400, Note_on_c, 11, 52, 96
12, 200590, Note_on_c, 11, 52, 0
12, 200640, Note_on_c, 11, 52, 96
12, 200830, Note_on_c, 11, 52, 0
12, 200880, Note_on_c, 11, 52, 96
12, 201070, Note_on_c, 11, 52, 0
12, 201120, Note_on_c, 11, 52, 96
12, 201310, Note_on_c, 11, 52, 0
12, 201360, Note_on_c, 11, 52, 96
12, 201550, Note_on_c, 11, 52, 0
12, 201600, Note_on_c, 11, 57, 96
12, 201790, Note_on_c, 11, 57, 0
12, 201840, Note_on_c, 11, 57, 96
12, 202030, Note_on_c, 11, 57, 0
12, 202080, Note_on_c, 11, 57, 96
12, 202270, Note_on_c, 11, 57, 0
12, 202320, Note_on_c, 11, 57, 96
12, 202510, Note_on_c, 11, 57, 0
12, 202560, Note_on_c, 11, 57, 96
12, 202750, Note_on_c, 11, 57, 0
12, 202800, Note_on_c, 11, 57, 96
12, 202990, Note_on_c, 11, 57, 0
12, 203040, Note_on_c, 11, 57, 96
12, 203230, Note_on_c, 11, 57, 0
12, 203280, Note_on_c, 11, 57, 96
12, 203470, Note_on_c, 11, 57, 0
12, 203520, Note_on_c, 11, 57, 96
12, 203710, Note_on_c, 11, 57, 0
12, 203760, Note_on_c, 11, 57, 96
12, 203950, Note_on_c, 11, 57, 0
12, 204000, Note_on_c, 11, 57, 96
12, 204190, Note_on_c, 11, 57, 0
12, 204240, Note_on_c, 11, 57, 96
12, 204430, Note_on_c, 11, 57, 0
12, 204480, Note_on_c, 11, 57, 96
12, 204670, Note_on_c, 11, 57, 0
12, 204720, Note_on_c, 11, 57, 96
12, 204910, Note_on_c, 11, 57, 0
12, 204960, Note_on_c, 11, 57, 96
12, 205150, Note_on_c, 11, 57, 0
12, 205200, Note_on_c, 11, 57, 96
12, 205390, Note_on_c, 11, 57, 0
12, 205440, Note_on_c, 11, 50, 96
12, 205630, Note_on_c, 11, 50, 0
12, 205680, Note_on_c, 11, 50, 96
12, 205870, Note_on_c, 11, 50, 0
12, 205920, Note_on_c, 11, 50, 96
12, 206110, Note_on_c, 11, 50, 0
12, 206160, Note_on_c, 11, 50, 96
12, 206350, Note_on_c, 11, 50, 0
12, 206400, Note_on_c, 11, 50, 96
12, 206590, Note_on_c, 11, 50, 0
12, 206640, Note_on_c, 11, 50, 96
12, 206830, Note_on_c, 11, 50, 0
12, 206880, Note_on_c, 11, 50, 96
12, 207070, Note_on_c, 11, 50, 0
12, 207120, Note_on_c, 11, 50, 96
12, 207310, Note_on_c, 11, 50, 0
12, 207360, Note_on_c, 11, 62, 96
12, 207550, Note_on_c, 11, 62, 0
12, 207600, Note_on_c, 11, 62, 96
12, 207790, Note_on_c, 11, 62, 0
12, 207840, Note_on_c, 11, 62, 96
12, 208030, Note_on_c, 11, 62, 0
12, 208080, Note_on_c, 11, 62, 96
12, 208270, Note_on_c, 11, 62, 0
12, 208320, Note_on_c, 11, 62, 96
12, 208510, Note_on_c, 11, 62, 0
12, 208560, Note_on_c, 11, 62, 96
12, 208750, Note_on_c, 11, 62, 0
12, 208800, Note_on_c, 11, 62, 96
12, 208990, Note_on_c, 11, 62, 0
12, 209040, Note_on_c, 11, 62, 96
12, 209230, Note_on_c, 11, 62, 0
12, 209280, Note_on_c, 11, 64, 96
12, 209470, Note_on_c, 11, 64, 0
12, 209520, Note_on_c, 11, 64, 96
12, 209710, Note_on_c, 11, 64, 0
12, 209760, Note_on_c, 11, 64, 96
12, 209950, Note_on_c, 11, 64, 0
12, 210000, Note_on_c, 11, 64, 96
12, 210190, Note_on_c, 11, 64, 0
12, 210240, Note_on_c, 11, 64, 96
12, 210430, Note_on_c, 11, 64, 0
12, 210480, Note_on_c, 11, 64, 96
12, 210670, Note_on_c, 11, 64, 0
12, 210720, Note_on_c, 11, 64, 96
12, 210910, Note_on_c, 11, 64, 0
12, 210960, Note_on_c, 11, 64, 96
12, 211150, Note_on_c, 11, 64, 0
12, 211200, Note_on_c, 11, 52, 96
12, 211390, Note_on_c, 11, 52, 0
12, 211440, Note_on_c, 11, 52, 96
12, 211630, Note_on_c, 11, 52, 0
12, 211680, Note_on_c, 11, 52, 96
12, 211870, Note_on_c, 11, 52, 0
12, 211920, Note_on_c, 11, 52, 96
12, 212110, Note_on_c, 11, 52, 0
12, 212160, Note_on_c, 11, 52, 96
12, 212350, Note_on_c, 11, 52, 0
12, 212400, Note_on_c, 11, 52, 96
12, 212590, Note_on_c, 11, 52, 0
12, 212640, Note_on_c, 11, 52, 96
12, 212830, Note_on_c, 11, 52, 0
12, 212880, Note_on_c, 11, 52, 96
12, 213070, Note_on_c, 11, 52, 0
12, 213120, Note_on_c, 11, 57, 96
12, 213500, Note_on_c, 11, 57, 0
12, 214560, Note_on_c, 11, 52, 96
12, 214940, Note_on_c, 11, 52, 0
12, 215040, Note_on_c, 11, 57, 96
12, 215420, Note_on_c, 11, 57, 0
12, 216480, Note_on_c, 11, 52, 96
12, 216860, Note_on_c, 11, 52, 0
12, 216960, Note_on_c, 11, 57, 96
12, 217150, Note_on_c, 11, 57, 0
12, 217200, Note_on_c, 11, 61, 96
12, 217390, Note_on_c, 11, 61, 0
12, 217440, Note_on_c, 11, 52, 96
12, 217630, Note_on_c, 11, 52, 0
12, 217680, Note_on_c, 11, 56, 96
12, 217870, Note_on_c, 11, 56, 0
12, 217920, Note_on_c, 11, 57, 96
12, 218110, Note_on_c, 11, 57, 0
12, 218160, Note_on_c, 11, 61, 96
12, 218350, Note_on_c, 11, 61, 0
12, 218400, Note_on_c, 11, 62, 96
12, 218590, Note_on_c, 11, 62, 0
12, 218640, Note_on_c, 11, 59, 96
12, 218830, Note_on_c, 11, 59, 0
12, 218880, Note_on_c, 11, 57, 96
12, 219070, Note_on_c, 11, 57, 0
12, 219120, Note_on_c, 11, 61, 96
12, 219310, Note_on_c, 11, 61, 0
12, 219360, Note_on_c, 11, 52, 96
12, 219550, Note_on_c, 11, 52, 0
12, 219600, Note_on_c, 11, 56, 96
12, 219790, Note_on_c, 11, 56, 0
12, 219840, Note_on_c, 11, 57, 96
12, 220030, Note_on_c, 11, 57, 0
12, 220080, Note_on_c, 11, 61, 96
12, 220270, Note_on_c, 11, 61, 0
12, 220320, Note_on_c, 11, 62, 96
12, 220510, Note_on_c, 11, 62, 0
12, 220560, Note_on_c, 11, 59, 96
12, 220750, Note_on_c, 11, 59, 0
12, 220800, Note_on_c, 11, 57, 96
12, 221040, Note_on_c, 11, 57, 0
12, 221040, Note_on_c, 11, 52, 96
12, 221230, Note_on_c, 11, 52, 0
12, 221280, Note_on_c, 11, 61, 96
12, 221340, Note_on_c, 11, 61, 0
12, 221520, Note_on_c, 11, 61, 96
12, 221580, Note_on_c, 11, 61, 0
12, 221760, Note_on_c, 11, 61, 96
12, 222000, Note_on_c, 11, 61, 0
12, 222000, Note_on_c, 11, 57, 96
12, 222190, Note_on_c, 11, 57, 0
12, 222240, Note_on_c, 11, 64, 96
12, 222300, Note_on_c, 11, 64, 0
12, 222480, Note_on_c, 11, 64, 96
12, 222540, Note_on_c, 11, 64, 0
12, 222720, Note_on_c, 11, 64, 96
12, 222910, Note_on_c, 11, 64, 0
12, 222960, Note_on_c, 11, 64, 96
12, 223150, Note_on_c, 11, 64, 0
12, 223200, Note_on_c, 11, 64, 96
12, 223390, Note_on_c, 11, 64, 0
12, 223440, Note_on_c, 11, 64, 96
12, 223630, Note_on_c, 11, 64, 0
12, 223680, Note_on_c, 11, 64, 96
12, 223870, Note_on_c, 11, 64, 0
12, 223920, Note_on_c, 11, 61, 96
12, 224110, Note_on_c, 11, 61, 0
12, 224160, Note_on_c, 11, 57, 96
12, 224350, Note_on_c, 11, 57, 0
12, 224400, Note_on_c, 11, 52, 96
12, 224590, Note_on_c, 11, 52, 0
12, 224640, Note_on_c, 11, 61, 96
12, 224830, Note_on_c, 11, 61, 0
12, 224880, Note_on_c, 11, 61, 96
12, 225070, Note_on_c, 11, 61, 0
12, 225120, Note_on_c, 11, 61, 96
12, 225310, Note_on_c, 11, 61, 0
12, 225360, Note_on_c, 11, 61, 96
12, 225550, Note_on_c, 11, 61, 0
12, 225600, Note_on_c, 11, 61, 96
12, 225790, Note_on_c, 11, 61, 0
12, 225840, Note_on_c, 11, 57, 96
12, 226030, Note_on_c, 11, 57, 0
12, 226080, Note_on_c, 11, 52, 96
12, 226270, Note_on_c, 11, 52, 0
12, 226320, Note_on_c, 11, 49, 96
12, 226510, Note_on_c, 11, 49, 0
12, 226560, Note_on_c, 11, 57, 96
12, 226750, Note_on_c, 11, 57, 0
12, 226800, Note_on_c, 11, 57, 96
12, 226990, Note_on_c, 11, 57, 0
12, 227040, Note_on_c, 11, 57, 96
12, 227230, Note_on_c, 11, 57, 0
12, 227280, Note_on_c, 11, 57, 96
12, 227470, Note_on_c, 11, 57, 0
12, 227520, Note_on_c, 11, 57, 96
12, 227710, Note_on_c, 11, 57, 0
12, 227760, Note_on_c, 11, 52, 96
12, 227950, Note_on_c, 11, 52, 0
12, 228000, Note_on_c, 11, 49, 96
12, 228190, Note_on_c, 11, 49, 0
12, 228240, Note_on_c, 11, 45, 96
12, 228430, Note_on_c, 11, 45, 0
12, 228480, Note_on_c, 11, 57, 96
12, 228860, Note_on_c, 11, 57, 0
12, 229440, Note_on_c, 11, 57, 96
12, 229820, Note_on_c, 11, 57, 0
12, 230400, Note_on_c, 11, 45, 96
12, 231160, Note_on_c, 11, 45, 0
12, 232320, Note_on_c, 11, 52, 96
12, 233470, Note_on_c, 11, 52, 0
12, 233760, Note_on_c, 11, 50, 96
12, 233880, Note_on_c, 11, 50, 0
12, 234240, Note_on_c, 11, 49, 96
12, 234360, Note_on_c, 11, 49, 0
12, 234720, Note_on_c, 11, 47, 96
12, 234840, Note_on_c, 11, 47, 0
12, 235200, Note_on_c, 11, 45, 96
12, 235320, Note_on_c, 11, 45, 0
12, 240000, Note_on_c, 11, 54, 96
12, 241150, Note_on_c, 11, 54, 0
12, 241440, Note_on_c, 11, 49, 96
12, 241560, Note_on_c, 11, 49, 0
12, 241920, Note_on_c, 11, 50, 96
12, 242040, Note_on_c, 11, 50, 0
12, 242400, Note_on_c, 11, 47, 96
12, 242520, Note_on_c, 11, 47, 0
12, 242880, Note_on_c, 11, 45, 96
12, 243000, Note_on_c, 11, 45, 0
12, 247680, Note_on_c, 11, 55, 96
12, 248830, Note_on_c, 11, 55, 0
12, 249120, Note_on_c, 11, 54, 64
12, 249240, Note_on_c, 11, 54, 0
12, 249600, Note_on_c, 11, 52, 64
12, 249720, Note_on_c, 11, 52, 0
12, 250080, Note_on_c, 11, 50, 64
12, 250200, Note_on_c, 11, 50, 0
12, 250560, Note_on_c, 11, 49, 64
12, 250680, Note_on_c, 11, 49, 0
12, 251520, Note_on_c, 11, 52, 96
12, 252670, Note_on_c, 11, 52, 0
12, 252960, Note_on_c, 11, 50, 64
12, 253080, Note_on_c, 11, 50, 0
12, 253440, Note_on_c, 11, 49, 64
12, 253560, Note_on_c, 11, 49, 0
12, 253920, Note_on_c, 11, 47, 64
12, 254040, Note_on_c, 11, 47, 0
12, 254400, Note_on_c, 11, 46, 64
12, 254520, Note_on_c, 11, 46, 0
12, 255360, Note_on_c, 11, 59, 64
12, 255740, Note_on_c, 11, 59, 0
12, 256320, Note_on_c, 11, 54, 64
12, 256700, Note_on_c, 11, 54, 0
12, 257280, Note_on_c, 11, 51, 64
12, 257660, Note_on_c, 11, 51, 0
12, 258240, Note_on_c, 11, 47, 64
12, 258620, Note_on_c, 11, 47, 0
12, 259200, Note_on_c, 11, 64, 64
12, 259580, Note_on_c, 11, 64, 0
12, 260160, Note_on_c, 11, 59, 64
12, 260540, Note_on_c, 11, 59, 0
12, 261120, Note_on_c, 11, 56, 64
12, 261500, Note_on_c, 11, 56, 0
12, 262080, Note_on_c, 11, 52, 64
12, 262460, Note_on_c, 11, 52, 0
12, 263040, Note_on_c, 11, 57, 64
12, 263420, Note_on_c, 11, 57, 0
12, 264000, Note_on_c, 11, 52, 64
12, 264380, Note_on_c, 11, 52, 0
12, 264960, Note_on_c, 11, 49, 64
12, 265340, Note_on_c, 11, 49, 0
12, 265920, Note_on_c, 11, 45, 64
12, 266300, Note_on_c, 11, 45, 0
12, 266880, Note_on_c, 11, 62, 64
12, 267260, Note_on_c, 11, 62, 0
12, 267840, Note_on_c, 11, 57, 64
12, 268220, Note_on_c, 11, 57, 0
12, 268800, Note_on_c, 11, 54, 64
12, 269180, Note_on_c, 11, 54, 0
12, 269760, Note_on_c, 11, 50, 64
12, 270140, Note_on_c, 11, 50, 0
12, 270720, Note_on_c, 11, 55, 64
12, 270910, Note_on_c, 11, 55, 0
12, 270960, Note_on_c, 11, 55, 64
12, 271150, Note_on_c, 11, 55, 0
12, 271200, Note_on_c, 11, 55, 64
12, 271390, Note_on_c, 11, 55, 0
12, 271440, Note_on_c, 11, 55, 64
12, 271630, Note_on_c, 11, 55, 0
12, 271680, Note_on_c, 11, 55, 64
12, 271870, Note_on_c, 11, 55, 0
12, 271920, Note_on_c, 11, 55, 64
12, 272110, Note_on_c, 11, 55, 0
12, 272160, Note_on_c, 11, 55, 64
12, 272350, Note_on_c, 11, 55, 0
12, 272400, Note_on_c, 11, 55, 64
12, 272590, Note_on_c, 11, 55, 0
12, 272640, Note_on_c, 11, 55, 64
12, 272830, Note_on_c, 11, 55, 0
12, 272880, Note_on_c, 11, 55, 64
12, 273070, Note_on_c, 11, 55, 0
12, 273120, Note_on_c, 11, 55, 64
12, 273310, Note_on_c, 11, 55, 0
12, 273360, Note_on_c, 11, 55, 64
12, 273550, Note_on_c, 11, 55, 0
12, 273600, Note_on_c, 11, 55, 64
12, 273790, Note_on_c, 11, 55, 0
12, 273840, Note_on_c, 11, 55, 64
12, 274030, Note_on_c, 11, 55, 0
12, 274080, Note_on_c, 11, 55, 64
12, 274270, Note_on_c, 11, 55, 0
12, 274320, Note_on_c, 11, 55, 64
12, 274510, Note_on_c, 11, 55, 0
12, 274560, Note_on_c, 11, 55, 64
12, 274750, Note_on_c, 11, 55, 0
12, 274800, Note_on_c, 11, 55, 64
12, 274990, Note_on_c, 11, 55, 0
12, 275040, Note_on_c, 11, 55, 64
12, 275230, Note_on_c, 11, 55, 0
12, 275280, Note_on_c, 11, 55, 64
12, 275470, Note_on_c, 11, 55, 0
12, 275520, Note_on_c, 11, 55, 64
12, 275710, Note_on_c, 11, 55, 0
12, 275760, Note_on_c, 11, 55, 64
12, 275950, Note_on_c, 11, 55, 0
12, 276000, Note_on_c, 11, 55, 64
12, 276190, Note_on_c, 11, 55, 0
12, 276240, Note_on_c, 11, 55, 64
12, 276430, Note_on_c, 11, 55, 0
12, 276480, Note_on_c, 11, 55, 64
12, 276670, Note_on_c, 11, 55, 0
12, 276720, Note_on_c, 11, 55, 64
12, 276910, Note_on_c, 11, 55, 0
12, 276960, Note_on_c, 11, 55, 64
12, 277150, Note_on_c, 11, 55, 0
12, 277200, Note_on_c, 11, 55, 64
12, 277390, Note_on_c, 11, 55, 0
12, 277440, Note_on_c, 11, 55, 64
12, 277630, Note_on_c, 11, 55, 0
12, 277680, Note_on_c, 11, 55, 64
12, 277870, Note_on_c, 11, 55, 0
12, 277920, Note_on_c, 11, 55, 64
12, 278110, Note_on_c, 11, 55, 0
12, 278160, Note_on_c, 11, 55, 64
12, 278350, Note_on_c, 11, 55, 0
12, 278400, Note_on_c, 11, 50, 64
12, 279360, Note_on_c, 11, 50, 0
12, 279360, Note_on_c, 11, 52, 64
12, 280120, Note_on_c, 11, 52, 0
12, 280320, Note_on_c, 11, 48, 64
12, 281280, Note_on_c, 11, 48, 0
12, 281280, Note_on_c, 11, 50, 64
12, 282040, Note_on_c, 11, 50, 0
12, 282240, Note_on_c, 11, 43, 96
12, 282620, Note_on_c, 11, 43, 0
12, 286080, Note_on_c, 11, 55, 96
12, 286270, Note_on_c, 11, 55, 0
12, 286320, Note_on_c, 11, 55, 96
12, 286510, Note_on_c, 11, 55, 0
12, 286560, Note_on_c, 11, 55, 96
12, 286750, Note_on_c, 11, 55, 0
12, 286800, Note_on_c, 11, 55, 96
12, 286990, Note_on_c, 11, 55, 0
12, 287040, Note_on_c, 11, 55, 96
12, 287230, Note_on_c, 11, 55, 0
12, 287280, Note_on_c, 11, 55, 96
12, 287470, Note_on_c, 11, 55, 0
12, 287520, Note_on_c, 11, 55, 96
12, 287710, Note_on_c, 11, 55, 0
12, 287760, Note_on_c, 11, 55, 96
12, 287950, Note_on_c, 11, 55, 0
12, 288000, Note_on_c, 11, 55, 96
12, 288190, Note_on_c, 11, 55, 0
12, 288240, Note_on_c, 11, 55, 96
12, 288430, Note_on_c, 11, 55, 0
12, 288480, Note_on_c, 11, 55, 96
12, 288670, Note_on_c, 11, 55, 0
12, 288720, Note_on_c, 11, 55, 96
12, 288910, Note_on_c, 11, 55, 0
12, 288960, Note_on_c, 11, 55, 96
12, 289150, Note_on_c, 11, 55, 0
12, 289200, Note_on_c, 11, 55, 96
12, 289390, Note_on_c, 11, 55, 0
12, 289440, Note_on_c, 11, 55, 96
12, 289630, Note_on_c, 11, 55, 0
12, 289680, Note_on_c, 11, 55, 96
12, 289870, Note_on_c, 11, 55, 0
12, 289920, Note_on_c, 11, 53, 96
12, 297980, Note_on_c, 11, 53, 0
12, 298080, Note_on_c, 11, 53, 96
12, 298460, Note_on_c, 11, 53, 0
12, 298560, Note_on_c, 11, 53, 96
12, 298940, Note_on_c, 11, 53, 0
12, 299040, Note_on_c, 11, 53, 96
12, 299420, Note_on_c, 11, 53, 0
12, 299520, Note_on_c, 11, 53, 96
12, 299900, Note_on_c, 11, 53, 0
12, 301440, Note_on_c, 11, 53, 96
12, 301800, Note_on_c, 11, 53, 0
12, 302880, Note_on_c, 11, 51, 96
12, 303000, Note_on_c, 11, 51, 0
12, 303360, Note_on_c, 11, 50, 96
12, 303480, Note_on_c, 11, 50, 0
12, 303840, Note_on_c, 11, 48, 96
12, 303960, Note_on_c, 11, 48, 0
12, 304320, Note_on_c, 11, 46, 96
12, 304440, Note_on_c, 11, 46, 0
12, 309120, Note_on_c, 11, 60, 96
12, 310270, Note_on_c, 11, 60, 0
12, 310560, Note_on_c, 11, 58, 96
12, 310680, Note_on_c, 11, 58, 0
12, 311040, Note_on_c, 11, 57, 96
12, 311160, Note_on_c, 11, 57, 0
12, 311520, Note_on_c, 11, 55, 96
12, 311640, Note_on_c, 11, 55, 0
12, 312000, Note_on_c, 11, 54, 96
12, 312120, Note_on_c, 11, 54, 0
12, 316800, Note_on_c, 11, 50, 96
12, 317950, Note_on_c, 11, 50, 0
12, 318240, Note_on_c, 11, 48, 96
12, 318360, Note_on_c, 11, 48, 0
12, 318720, Note_on_c, 11, 46, 96
12, 318840, Note_on_c, 11, 46, 0
12, 319200, Note_on_c, 11, 45, 96
12, 319320, Note_on_c, 11, 45, 0
12, 319680, Note_on_c, 11, 43, 96
12, 319800, Note_on_c, 11, 43, 0
12, 324480, Note_on_c, 11, 55, 96
12, 325630, Note_on_c, 11, 55, 0
12, 325920, Note_on_c, 11, 53, 96
12, 326040, Note_on_c, 11, 53, 0
12, 326400, Note_on_c, 11, 52, 96
12, 326520, Note_on_c, 11, 52, 0
12, 326880, Note_on_c, 11, 50, 96
12, 327000, Note_on_c, 11, 50, 0
12, 327360, Note_on_c, 11, 49, 96
12, 327480, Note_on_c, 11, 49, 0
12, 332160, Note_on_c, 11, 57, 96
12, 333310, Note_on_c, 11, 57, 0
12, 333600, Note_on_c, 11, 55, 96
12, 333720, Note_on_c, 11, 55, 0
12, 334080, Note_on_c, 11, 53, 96
12, 334200, Note_on_c, 11, 53, 0
12, 334560, Note_on_c, 11, 52, 96
12, 334680, Note_on_c, 11, 52, 0
12, 335040, Note_on_c, 11, 50, 96
12, 335160, Note_on_c, 11, 50, 0
12, 339840, Note_on_c, 11, 50, 96
12, 340990, Note_on_c, 11, 50, 0
12, 341280, Note_on_c, 11, 48, 96
12, 341400, Note_on_c, 11, 48, 0
12, 341760, Note_on_c, 11, 47, 96
12, 341880, Note_on_c, 11, 47, 0
12, 342240, Note_on_c, 11, 45, 96
12, 342360, Note_on_c, 11, 45, 0
12, 342720, Note_on_c, 11, 44, 96
12, 342840, Note_on_c, 11, 44, 0
12, 343680, Note_on_c, 11, 56, 64
12, 344060, Note_on_c, 11, 56, 0
12, 344640, Note_on_c, 11, 56, 64
12, 345020, Note_on_c, 11, 56, 0
12, 345600, Note_on_c, 11, 56, 64
12, 347520, Note_on_c, 11, 56, 0
12, 347520, Note_on_c, 11, 57, 64
12, 349440, Note_on_c, 11, 57, 0
12, 349440, Note_on_c, 11, 56, 64
12, 350970, Note_on_c, 11, 56, 0
12, 351360, Note_on_c, 11, 57, 64
12, 353280, Note_on_c, 11, 57, 0
12, 353280, Note_on_c, 11, 56, 64
12, 354810, Note_on_c, 11, 56, 0
12, 355200, Note_on_c, 11, 57, 96
12, 355580, Note_on_c, 11, 57, 0
12, 357120, Note_on_c, 11, 57, 96
12, 357500, Note_on_c, 11, 57, 0
12, 359040, Note_on_c, 11, 57, 96
12, 359420, Note_on_c, 11, 57, 0
12, 360960, Note_on_c, 11, 57, 96
12, 361340, Note_on_c, 11, 57, 0
12, 362880, Note_on_c, 11, 57, 96
12, 363070, Note_on_c, 11, 57, 0
12, 363120, Note_on_c, 11, 57, 96
12, 363310, Note_on_c, 11, 57, 0
12, 363360, Note_on_c, 11, 57, 96
12, 363550, Note_on_c, 11, 57, 0
12, 363600, Note_on_c, 11, 57, 96
12, 363790, Note_on_c, 11, 57, 0
12, 363840, Note_on_c, 11, 57, 96
12, 364030, Note_on_c, 11, 57, 0
12, 364080, Note_on_c, 11, 57, 96
12, 364270, Note_on_c, 11, 57, 0
12, 364320, Note_on_c, 11, 57, 96
12, 364510, Note_on_c, 11, 57, 0
12, 364560, Note_on_c, 11, 57, 96
12, 364750, Note_on_c, 11, 57, 0
12, 364800, Note_on_c, 11, 57, 96
12, 364990, Note_on_c, 11, 57, 0
12, 365040, Note_on_c, 11, 57, 96
12, 365230, Note_on_c, 11, 57, 0
12, 365280, Note_on_c, 11, 57, 96
12, 365470, Note_on_c, 11, 57, 0
12, 365520, Note_on_c, 11, 57, 96
12, 365710, Note_on_c, 11, 57, 0
12, 365760, Note_on_c, 11, 57, 96
12, 365950, Note_on_c, 11, 57, 0
12, 366000, Note_on_c, 11, 57, 96
12, 366190, Note_on_c, 11, 57, 0
12, 366240, Note_on_c, 11, 57, 96
12, 366430, Note_on_c, 11, 57, 0
12, 366480, Note_on_c, 11, 57, 96
12, 366670, Note_on_c, 11, 57, 0
12, 366720, Note_on_c, 11, 57, 96
12, 367100, Note_on_c, 11, 57, 0
12, 370560, Note_on_c, 11, 62, 64
12, 370750, Note_on_c, 11, 62, 0
12, 370800, Note_on_c, 11, 62, 64
12, 370990, Note_on_c, 11, 62, 0
12, 371040, Note_on_c, 11, 62, 64
12, 371230, Note_on_c, 11, 62, 0
12, 371280, Note_on_c, 11, 62, 64
12, 371470, Note_on_c, 11, 62, 0
12, 371520, Note_on_c, 11, 62, 64
12, 371710, Note_on_c, 11, 62, 0
12, 371760, Note_on_c, 11, 62, 64
12, 371950, Note_on_c, 11, 62, 0
12, 372000, Note_on_c, 11, 62, 64
12, 372190, Note_on_c, 11, 62, 0
12, 372240, Note_on_c, 11, 62, 64
12, 372430, Note_on_c, 11, 62, 0
12, 372480, Note_on_c, 11, 62, 64
12, 372670, Note_on_c, 11, 62, 0
12, 372720, Note_on_c, 11, 62, 64
12, 372910, Note_on_c, 11, 62, 0
12, 372960, Note_on_c, 11, 62, 64
12, 373150, Note_on_c, 11, 62, 0
12, 373200, Note_on_c, 11, 62, 64
12, 373390, Note_on_c, 11, 62, 0
12, 373440, Note_on_c, 11, 62, 64
12, 373630, Note_on_c, 11, 62, 0
12, 373680, Note_on_c, 11, 62, 64
12, 373870, Note_on_c, 11, 62, 0
12, 373920, Note_on_c, 11, 62, 64
12, 374110, Note_on_c, 11, 62, 0
12, 374160, Note_on_c, 11, 62, 64
12, 374350, Note_on_c, 11, 62, 0
12, 374400, Note_on_c, 11, 62, 64
12, 374590, Note_on_c, 11, 62, 0
12, 374640, Note_on_c, 11, 62, 64
12, 374830, Note_on_c, 11, 62, 0
12, 374880, Note_on_c, 11, 62, 64
12, 375070, Note_on_c, 11, 62, 0
12, 375120, Note_on_c, 11, 62, 64
12, 375310, Note_on_c, 11, 62, 0
12, 375360, Note_on_c, 11, 62, 64
12, 375550, Note_on_c, 11, 62, 0
12, 375600, Note_on_c, 11, 62, 64
12, 375790, Note_on_c, 11, 62, 0
12, 375840, Note_on_c, 11, 62, 64
12, 376030, Note_on_c, 11, 62, 0
12, 376080, Note_on_c, 11, 62, 64
12, 376270, Note_on_c, 11, 62, 0
12, 376320, Note_on_c, 11, 62, 64
12, 376510, Note_on_c, 11, 62, 0
12, 376560, Note_on_c, 11, 62, 64
12, 376750, Note_on_c, 11, 62, 0
12, 376800, Note_on_c, 11, 62, 64
12, 376990, Note_on_c, 11, 62, 0
12, 377040, Note_on_c, 11, 62, 64
12, 377230, Note_on_c, 11, 62, 0
12, 377280, Note_on_c, 11, 62, 64
12, 377470, Note_on_c, 11, 62, 0
12, 377520, Note_on_c, 11, 62, 64
12, 377710, Note_on_c, 11, 62, 0
12, 377760, Note_on_c, 11, 62, 64
12, 377950, Note_on_c, 11, 62, 0
12, 378000, Note_on_c, 11, 62, 64
12, 378190, Note_on_c, 11, 62, 0
12, 378240, Note_on_c, 11, 62, 64
12, 379770, Note_on_c, 11, 62, 0
12, 380160, Note_on_c, 11, 55, 64
12, 381120, Note_on_c, 11, 55, 0
12, 381120, Note_on_c, 11, 57, 64
12, 381880, Note_on_c, 11, 57, 0
12, 382080, Note_on_c, 11, 50, 64
12, 382460, Note_on_c, 11, 50, 0
12, 385920, Note_on_c, 11, 62, 64
12, 386110, Note_on_c, 11, 62, 0
12, 386160, Note_on_c, 11, 62, 64
12, 386350, Note_on_c, 11, 62, 0
12, 386400, Note_on_c, 11, 62, 64
12, 386590, Note_on_c, 11, 62, 0
12, 386640, Note_on_c, 11, 62, 64
12, 386830, Note_on_c, 11, 62, 0
12, 386880, Note_on_c, 11, 62, 64
12, 387070, Note_on_c, 11, 62, 0
12, 387120, Note_on_c, 11, 62, 64
12, 387310, Note_on_c, 11, 62, 0
12, 387360, Note_on_c, 11, 62, 64
12, 387550, Note_on_c, 11, 62, 0
12, 387600, Note_on_c, 11, 62, 64
12, 387790, Note_on_c, 11, 62, 0
12, 387840, Note_on_c, 11, 62, 64
12, 388030, Note_on_c, 11, 62, 0
12, 388080, Note_on_c, 11, 62, 64
12, 388270, Note_on_c, 11, 62, 0
12, 388320, Note_on_c, 11, 62, 64
12, 388510, Note_on_c, 11, 62, 0
12, 388560, Note_on_c, 11, 62, 64
12, 388750, Note_on_c, 11, 62, 0
12, 388800, Note_on_c, 11, 62, 64
12, 388990, Note_on_c, 11, 62, 0
12, 389040, Note_on_c, 11, 62, 64
12, 389230, Note_on_c, 11, 62, 0
12, 389280, Note_on_c, 11, 62, 64
12, 389470, Note_on_c, 11, 62, 0
12, 389520, Note_on_c, 11, 62, 64
12, 389710, Note_on_c, 11, 62, 0
12, 389760, Note_on_c, 11, 62, 64
12, 389950, Note_on_c, 11, 62, 0
12, 390000, Note_on_c, 11, 62, 64
12, 390190, Note_on_c, 11, 62, 0
12, 390240, Note_on_c, 11, 62, 64
12, 390430, Note_on_c, 11, 62, 0
12, 390480, Note_on_c, 11, 62, 64
12, 390670, Note_on_c, 11, 62, 0
12, 390720, Note_on_c, 11, 62, 64
12, 390910, Note_on_c, 11, 62, 0
12, 390960, Note_on_c, 11, 62, 64
12, 391150, Note_on_c, 11, 62, 0
12, 391200, Note_on_c, 11, 62, 64
12, 391390, Note_on_c, 11, 62, 0
12, 391440, Note_on_c, 11, 62, 64
12, 391630, Note_on_c, 11, 62, 0
12, 391680, Note_on_c, 11, 62, 64
12, 391870, Note_on_c, 11, 62, 0
12, 391920, Note_on_c, 11, 62, 64
12, 392110, Note_on_c, 11, 62, 0
12, 392160, Note_on_c, 11, 62, 64
12, 392350, Note_on_c, 11, 62, 0
12, 392400, Note_on_c, 11, 62, 64
12, 392590, Note_on_c, 11, 62, 0
12, 392640, Note_on_c, 11, 62, 64
12, 392830, Note_on_c, 11, 62, 0
12, 392880, Note_on_c, 11, 62, 64
12, 393070, Note_on_c, 11, 62, 0
12, 393120, Note_on_c, 11, 62, 64
12, 393310, Note_on_c, 11, 62, 0
12, 393360, Note_on_c, 11, 62, 64
12, 393550, Note_on_c, 11, 62, 0
12, 393600, Note_on_c, 11, 57, 64
12, 394560, Note_on_c, 11, 57, 0
12, 394560, Note_on_c, 11, 59, 64
12, 395320, Note_on_c, 11, 59, 0
12, 395520, Note_on_c, 11, 55, 64
12, 396480, Note_on_c, 11, 55, 0
12, 396480, Note_on_c, 11, 57, 64
12, 397240, Note_on_c, 11, 57, 0
12, 397440, Note_on_c, 11, 50, 64
12, 397820, Note_on_c, 11, 50, 0
12, 401280, Note_on_c, 11, 50, 96
12, 401340, Note_on_c, 11, 50, 0
12, 401520, Note_on_c, 11, 54, 96
12, 401580, Note_on_c, 11, 54, 0
12, 401760, Note_on_c, 11, 45, 96
12, 401820, Note_on_c, 11, 45, 0
12, 402000, Note_on_c, 11, 49, 96
12, 402060, Note_on_c, 11, 49, 0
12, 402240, Note_on_c, 11, 50, 96
12, 402300, Note_on_c, 11, 50, 0
12, 402480, Note_on_c, 11, 54, 96
12, 402540, Note_on_c, 11, 54, 0
12, 402720, Note_on_c, 11, 55, 96
12, 402780, Note_on_c, 11, 55, 0
12, 402960, Note_on_c, 11, 52, 96
12, 403020, Note_on_c, 11, 52, 0
12, 403200, Note_on_c, 11, 50, 96
12, 403260, Note_on_c, 11, 50, 0
12, 403440, Note_on_c, 11, 54, 96
12, 403630, Note_on_c, 11, 54, 0
12, 403680, Note_on_c, 11, 45, 96
12, 403740, Note_on_c, 11, 45, 0
12, 403920, Note_on_c, 11, 49, 96
12, 403980, Note_on_c, 11, 49, 0
12, 404160, Note_on_c, 11, 50, 96
12, 404220, Note_on_c, 11, 50, 0
12, 404400, Note_on_c, 11, 54, 96
12, 404460, Note_on_c, 11, 54, 0
12, 404640, Note_on_c, 11, 55, 96
12, 404700, Note_on_c, 11, 55, 0
12, 404880, Note_on_c, 11, 52, 96
12, 404940, Note_on_c, 11, 52, 0
12, 405120, Note_on_c, 11, 50, 96
12, 405360, Note_on_c, 11, 50, 0
12, 405360, Note_on_c, 11, 45, 96
12, 405550, Note_on_c, 11, 45, 0
12, 405600, Note_on_c, 11, 54, 96
12, 405660, Note_on_c, 11, 54, 0
12, 405840, Note_on_c, 11, 54, 96
12, 405900, Note_on_c, 11, 54, 0
12, 406080, Note_on_c, 11, 54, 96
12, 406320, Note_on_c, 11, 54, 0
12, 406320, Note_on_c, 11, 50, 96
12, 406510, Note_on_c, 11, 50, 0
12, 406560, Note_on_c, 11, 57, 96
12, 406620, Note_on_c, 11, 57, 0
12, 406800, Note_on_c, 11, 57, 96
12, 406860, Note_on_c, 11, 57, 0
12, 407040, Note_on_c, 11, 57, 96
12, 407280, Note_on_c, 11, 57, 0
12, 407280, Note_on_c, 11, 54, 96
12, 407470, Note_on_c, 11, 54, 0
12, 407520, Note_on_c, 11, 62, 96
12, 407580, Note_on_c, 11, 62, 0
12, 407760, Note_on_c, 11, 62, 96
12, 407820, Note_on_c, 11, 62, 0
12, 408000, Note_on_c, 11, 62, 96
12, 408190, Note_on_c, 11, 62, 0
12, 408240, Note_on_c, 11, 57, 96
12, 408430, Note_on_c, 11, 57, 0
12, 408480, Note_on_c, 11, 54, 96
12, 408670, Note_on_c, 11, 54, 0
12, 408720, Note_on_c, 11, 50, 96
12, 408910, Note_on_c, 11, 50, 0
12, 408960, Note_on_c, 11, 57, 96
12, 409150, Note_on_c, 11, 57, 0
12, 409200, Note_on_c, 11, 57, 96
12, 409390, Note_on_c, 11, 57, 0
12, 409440, Note_on_c, 11, 57, 96
12, 409630, Note_on_c, 11, 57, 0
12, 409680, Note_on_c, 11, 57, 96
12, 409870, Note_on_c, 11, 57, 0
12, 409920, Note_on_c, 11, 57, 96
12, 410110, Note_on_c, 11, 57, 0
12, 410160, Note_on_c, 11, 57, 96
12, 410350, Note_on_c, 11, 57, 0
12, 410400, Note_on_c, 11, 57, 96
12, 410590, Note_on_c, 11, 57, 0
12, 410640, Note_on_c, 11, 57, 96
12, 410830, Note_on_c, 11, 57, 0
12, 410880, Note_on_c, 11, 57, 96
12, 411070, Note_on_c, 11, 57, 0
12, 411120, Note_on_c, 11, 57, 96
12, 411310, Note_on_c, 11, 57, 0
12, 411360, Note_on_c, 11, 57, 96
12, 411550, Note_on_c, 11, 57, 0
12, 411600, Note_on_c, 11, 57, 96
12, 411790, Note_on_c, 11, 57, 0
12, 411840, Note_on_c, 11, 57, 96
12, 412030, Note_on_c, 11, 57, 0
12, 412080, Note_on_c, 11, 57, 96
12, 412270, Note_on_c, 11, 57, 0
12, 412320, Note_on_c, 11, 57, 96
12, 412510, Note_on_c, 11, 57, 0
12, 412560, Note_on_c, 11, 57, 96
12, 412750, Note_on_c, 11, 57, 0
12, 412800, Note_on_c, 11, 57, 96
12, 412990, Note_on_c, 11, 57, 0
12, 413040, Note_on_c, 11, 57, 96
12, 413230, Note_on_c, 11, 57, 0
12, 413280, Note_on_c, 11, 57, 96
12, 413470, Note_on_c, 11, 57, 0
12, 413520, Note_on_c, 11, 57, 96
12, 413710, Note_on_c, 11, 57, 0
12, 413760, Note_on_c, 11, 57, 96
12, 413950, Note_on_c, 11, 57, 0
12, 414000, Note_on_c, 11, 57, 96
12, 414190, Note_on_c, 11, 57, 0
12, 414240, Note_on_c, 11, 57, 96
12, 414430, Note_on_c, 11, 57, 0
12, 414480, Note_on_c, 11, 57, 96
12, 414670, Note_on_c, 11, 57, 0
12, 414720, Note_on_c, 11, 57, 96
12, 415100, Note_on_c, 11, 57, 0
12, 415200, Note_on_c, 11, 45, 96
12, 415390, Note_on_c, 11, 45, 0
12, 415440, Note_on_c, 11, 45, 96
12, 415630, Note_on_c, 11, 45, 0
12, 415680, Note_on_c, 11, 45, 96
12, 416060, Note_on_c, 11, 45, 0
12, 416640, Note_on_c, 11, 50, 96
12, 416830, Note_on_c, 11, 50, 0
12, 416880, Note_on_c, 11, 62, 96
12, 417070, Note_on_c, 11, 62, 0
12, 417120, Note_on_c, 11, 62, 96
12, 417310, Note_on_c, 11, 62, 0
12, 417360, Note_on_c, 11, 62, 96
12, 417550, Note_on_c, 11, 62, 0
12, 417600, Note_on_c, 11, 62, 96
12, 417980, Note_on_c, 11, 62, 0
12, 420480, Note_on_c, 11, 52, 96
12, 420670, Note_on_c, 11, 52, 0
12, 420720, Note_on_c, 11, 64, 96
12, 420910, Note_on_c, 11, 64, 0
12, 420960, Note_on_c, 11, 64, 96
12, 421150, Note_on_c, 11, 64, 0
12, 421200, Note_on_c, 11, 64, 96
12, 421390, Note_on_c, 11, 64, 0
12, 421440, Note_on_c, 11, 64, 96
12, 421820, Note_on_c, 11, 64, 0
12, 424320, Note_on_c, 11, 45, 96
12, 424510, Note_on_c, 11, 45, 0
12, 424560, Note_on_c, 11, 57, 96
12, 424750, Note_on_c, 11, 57, 0
12, 424800, Note_on_c, 11, 57, 96
12, 424990, Note_on_c, 11, 57, 0
12, 425040, Note_on_c, 11, 57, 96
12, 425230, Note_on_c, 11, 57, 0
12, 425280, Note_on_c, 11, 57, 96
12, 425660, Note_on_c, 11, 57, 0
12, 437760, Note_on_c, 11, 55, 96
12, 437950, Note_on_c, 11, 55, 0
12, 438000, Note_on_c, 11, 55, 96
12, 438190, Note_on_c, 11, 55, 0
12, 438240, Note_on_c, 11, 55, 96
12, 438430, Note_on_c, 11, 55, 0
12, 438480, Note_on_c, 11, 55, 96
12, 438670, Note_on_c, 11, 55, 0
12, 438720, Note_on_c, 11, 55, 96
12, 438910, Note_on_c, 11, 55, 0
12, 438960, Note_on_c, 11, 55, 96
12, 439150, Note_on_c, 11, 55, 0
12, 439200, Note_on_c, 11, 55, 96
12, 439390, Note_on_c, 11, 55, 0
12, 439440, Note_on_c, 11, 55, 96
12, 439630, Note_on_c, 11, 55, 0
12, 439680, Note_on_c, 11, 53, 96
12, 439870, Note_on_c, 11, 53, 0
12, 439920, Note_on_c, 11, 53, 96
12, 440110, Note_on_c, 11, 53, 0
12, 440160, Note_on_c, 11, 53, 96
12, 440350, Note_on_c, 11, 53, 0
12, 440400, Note_on_c, 11, 53, 96
12, 440590, Note_on_c, 11, 53, 0
12, 440640, Note_on_c, 11, 53, 96
12, 440830, Note_on_c, 11, 53, 0
12, 440880, Note_on_c, 11, 53, 96
12, 441070, Note_on_c, 11, 53, 0
12, 441120, Note_on_c, 11, 53, 96
12, 441310, Note_on_c, 11, 53, 0
12, 441360, Note_on_c, 11, 53, 96
12, 441550, Note_on_c, 11, 53, 0
12, 441600, Note_on_c, 11, 55, 96
12, 441790, Note_on_c, 11, 55, 0
12, 441840, Note_on_c, 11, 55, 96
12, 442030, Note_on_c, 11, 55, 0
12, 442080, Note_on_c, 11, 55, 96
12, 442270, Note_on_c, 11, 55, 0
12, 442320, Note_on_c, 11, 55, 96
12, 442510, Note_on_c, 11, 55, 0
12, 442560, Note_on_c, 11, 55, 96
12, 442750, Note_on_c, 11, 55, 0
12, 442800, Note_on_c, 11, 55, 96
12, 442990, Note_on_c, 11, 55, 0
12, 443040, Note_on_c, 11, 55, 96
12, 443230, Note_on_c, 11, 55, 0
12, 443280, Note_on_c, 11, 55, 96
12, 443470, Note_on_c, 11, 55, 0
12, 443520, Note_on_c, 11, 53, 96
12, 443710, Note_on_c, 11, 53, 0
12, 443760, Note_on_c, 11, 53, 96
12, 443950, Note_on_c, 11, 53, 0
12, 444000, Note_on_c, 11, 53, 96
12, 444190, Note_on_c, 11, 53, 0
12, 444240, Note_on_c, 11, 53, 96
12, 444430, Note_on_c, 11, 53, 0
12, 444480, Note_on_c, 11, 53, 96
12, 444670, Note_on_c, 11, 53, 0
12, 444720, Note_on_c, 11, 53, 96
12, 444910, Note_on_c, 11, 53, 0
12, 444960, Note_on_c, 11, 53, 96
12, 445150, Note_on_c, 11, 53, 0
12, 445200, Note_on_c, 11, 53, 96
12, 445390, Note_on_c, 11, 53, 0
12, 445440, Note_on_c, 11, 55, 96
12, 445630, Note_on_c, 11, 55, 0
12, 445680, Note_on_c, 11, 55, 96
12, 445870, Note_on_c, 11, 55, 0
12, 445920, Note_on_c, 11, 55, 96
12, 446110, Note_on_c, 11, 55, 0
12, 446160, Note_on_c, 11, 55, 96
12, 446350, Note_on_c, 11, 55, 0
12, 446400, Note_on_c, 11, 55, 96
12, 446590, Note_on_c, 11, 55, 0
12, 446640, Note_on_c, 11, 55, 96
12, 446830, Note_on_c, 11, 55, 0
12, 446880, Note_on_c, 11, 55, 96
12, 447070, Note_on_c, 11, 55, 0
12, 447120, Note_on_c, 11, 55, 96
12, 447310, Note_on_c, 11, 55, 0
12, 447360, Note_on_c, 11, 56, 96
12, 447550, Note_on_c, 11, 56, 0
12, 447600, Note_on_c, 11, 56, 96
12, 447790, Note_on_c, 11, 56, 0
12, 447840, Note_on_c, 11, 56, 96
12, 448030, Note_on_c, 11, 56, 0
12, 448080, Note_on_c, 11, 56, 96
12, 448270, Note_on_c, 11, 56, 0
12, 448320, Note_on_c, 11, 56, 96
12, 448510, Note_on_c, 11, 56, 0
12, 448560, Note_on_c, 11, 56, 96
12, 448750, Note_on_c, 11, 56, 0
12, 448800, Note_on_c, 11, 56, 96
12, 448990, Note_on_c, 11, 56, 0
12, 449040, Note_on_c, 11, 56, 96
12, 449230, Note_on_c, 11, 56, 0
12, 449280, Note_on_c, 11, 57, 96
12, 449470, Note_on_c, 11, 57, 0
12, 449520, Note_on_c, 11, 57, 96
12, 449710, Note_on_c, 11, 57, 0
12, 449760, Note_on_c, 11, 57, 96
12, 449950, Note_on_c, 11, 57, 0
12, 450000, Note_on_c, 11, 57, 96
12, 450190, Note_on_c, 11, 57, 0
12, 450240, Note_on_c, 11, 57, 96
12, 450430, Note_on_c, 11, 57, 0
12, 450480, Note_on_c, 11, 57, 96
12, 450670, Note_on_c, 11, 57, 0
12, 450720, Note_on_c, 11, 57, 96
12, 450910, Note_on_c, 11, 57, 0
12, 450960, Note_on_c, 11, 57, 96
12, 451150, Note_on_c, 11, 57, 0
12, 451200, Note_on_c, 11, 57, 96
12, 451390, Note_on_c, 11, 57, 0
12, 451440, Note_on_c, 11, 57, 96
12, 451630, Note_on_c, 11, 57, 0
12, 451680, Note_on_c, 11, 57, 96
12, 451870, Note_on_c, 11, 57, 0
12, 451920, Note_on_c, 11, 57, 96
12, 452110, Note_on_c, 11, 57, 0
12, 452160, Note_on_c, 11, 57, 96
12, 452350, Note_on_c, 11, 57, 0
12, 452400, Note_on_c, 11, 57, 96
12, 452590, Note_on_c, 11, 57, 0
12, 452640, Note_on_c, 11, 57, 96
12, 452830, Note_on_c, 11, 57, 0
12, 452880, Note_on_c, 11, 57, 96
12, 453070, Note_on_c, 11, 57, 0
12, 453120, Note_on_c, 11, 57, 96
12, 453500, Note_on_c, 11, 57, 0
12, 454080, Note_on_c, 11, 45, 96
12, 454460, Note_on_c, 11, 45, 0
12, 454560, Note_on_c, 11, 45, 96
12, 454940, Note_on_c, 11, 45, 0
12, 455040, Note_on_c, 11, 45, 96
12, 455800, Note_on_c, 11, 45, 0
12, 456960, Note_on_c, 11, 55, 127
12, 458110, Note_on_c, 11, 55, 0
12, 458400, Note_on_c, 11, 54, 96
12, 458520, Note_on_c, 11, 54, 0
12, 458880, Note_on_c, 11, 52, 96
12, 459000, Note_on_c, 11, 52, 0
12, 459360, Note_on_c, 11, 50, 96
12, 459480, Note_on_c, 11, 50, 0
12, 459840, Note_on_c, 11, 49, 96
12, 459960, Note_on_c, 11, 49, 0
12, 464640, Note_on_c, 11, 55, 127
12, 465790, Note_on_c, 11, 55, 0
12, 466080, Note_on_c, 11, 54, 96
12, 466200, Note_on_c, 11, 54, 0
12, 466560, Note_on_c, 11, 52, 96
12, 466680, Note_on_c, 11, 52, 0
12, 467040, Note_on_c, 11, 50, 96
12, 467160, Note_on_c, 11, 50, 0
12, 467520, Note_on_c, 11, 49, 96
12, 467640, Note_on_c, 11, 49, 0
12, 472320, Note_on_c, 11, 55, 96
12, 473470, Note_on_c, 11, 55, 0
12, 473760, Note_on_c, 11, 54, 64
12, 473880, Note_on_c, 11, 54, 0
12, 474240, Note_on_c, 11, 52, 64
12, 474360, Note_on_c, 11, 52, 0
12, 474720, Note_on_c, 11, 50, 64
12, 474840, Note_on_c, 11, 50, 0
12, 475200, Note_on_c, 11, 49, 64
12, 475320, Note_on_c, 11, 49, 0
12, 476160, Note_on_c, 11, 55, 96
12, 477310, Note_on_c, 11, 55, 0
12, 477600, Note_on_c, 11, 53, 64
12, 477720, Note_on_c, 11, 53, 0
12, 478080, Note_on_c, 11, 52, 64
12, 478200, Note_on_c, 11, 52, 0
12, 478560, Note_on_c, 11, 50, 64
12, 478680, Note_on_c, 11, 50, 0
12, 479040, Note_on_c, 11, 49, 64
12, 479160, Note_on_c, 11, 49, 0
12, 480000, Note_on_c, 11, 55, 96
12, 481150, Note_on_c, 11, 55, 0
12, 481440, Note_on_c, 11, 53, 64
12, 481560, Note_on_c, 11, 53, 0
12, 481920, Note_on_c, 11, 52, 64
12, 482040, Note_on_c, 11, 52, 0
12, 482400, Note_on_c, 11, 50, 64
12, 482520, Note_on_c, 11, 50, 0
12, 482880, Note_on_c, 11, 48, 64
12, 483000, Note_on_c, 11, 48, 0
12, 483840, Note_on_c, 11, 48, 64
12, 491130, Note_on_c, 11, 48, 0
12, 491520, Note_on_c, 11, 45, 64
12, 493440, Note_on_c, 11, 45, 0
12, 493440, Note_on_c, 11, 46, 64
12, 494970, Note_on_c, 11, 46, 0
12, 495360, Note_on_c, 11, 45, 64
12, 495740, Note_on_c, 11, 45, 0
12, 497280, Note_on_c, 11, 45, 64
12, 497660, Note_on_c, 11, 45, 0
12, 499200, Note_on_c, 11, 50, 96
12, 499390, Note_on_c, 11, 50, 0
12, 499440, Note_on_c, 11, 50, 96
12, 499630, Note_on_c, 11, 50, 0
12, 499680, Note_on_c, 11, 50, 96
12, 499870, Note_on_c, 11, 50, 0
12, 499920, Note_on_c, 11, 50, 96
12, 500110, Note_on_c, 11, 50, 0
12, 500160, Note_on_c, 11, 50, 96
12, 500350, Note_on_c, 11, 50, 0
12, 500400, Note_on_c, 11, 50, 96
12, 500590, Note_on_c, 11, 50, 0
12, 500640, Note_on_c, 11, 50, 96
12, 500830, Note_on_c, 11, 50, 0
12, 500880, Note_on_c, 11, 50, 96
12, 501070, Note_on_c, 11, 50, 0
12, 501120, Note_on_c, 11, 62, 96
12, 501310, Note_on_c, 11, 62, 0
12, 501360, Note_on_c, 11, 62, 96
12, 501550, Note_on_c, 11, 62, 0
12, 501600, Note_on_c, 11, 62, 96
12, 501790, Note_on_c, 11, 62, 0
12, 501840, Note_on_c, 11, 62, 96
12, 502030, Note_on_c, 11, 62, 0
12, 502080, Note_on_c, 11, 62, 96
12, 502270, Note_on_c, 11, 62, 0
12, 502320, Note_on_c, 11, 62, 96
12, 502510, Note_on_c, 11, 62, 0
12, 502560, Note_on_c, 11, 62, 96
12, 502750, Note_on_c, 11, 62, 0
12, 502800, Note_on_c, 11, 62, 96
12, 502990, Note_on_c, 11, 62, 0
12, 503040, Note_on_c, 11, 55, 96
12, 503230, Note_on_c, 11, 55, 0
12, 503280, Note_on_c, 11, 55, 96
12, 503470, Note_on_c, 11, 55, 0
12, 503520, Note_on_c, 11, 55, 96
12, 503710, Note_on_c, 11, 55, 0
12, 503760, Note_on_c, 11, 55, 96
12, 503950, Note_on_c, 11, 55, 0
12, 504000, Note_on_c, 11, 55, 96
12, 504190, Note_on_c, 11, 55, 0
12, 504240, Note_on_c, 11, 55, 96
12, 504430, Note_on_c, 11, 55, 0
12, 504480, Note_on_c, 11, 55, 96
12, 504670, Note_on_c, 11, 55, 0
12, 504720, Note_on_c, 11, 55, 96
12, 504910, Note_on_c, 11, 55, 0
12, 504960, Note_on_c, 11, 55, 96
12, 505150, Note_on_c, 11, 55, 0
12, 505200, Note_on_c, 11, 55, 96
12, 505390, Note_on_c, 11, 55, 0
12, 505440, Note_on_c, 11, 55, 96
12, 505630, Note_on_c, 11, 55, 0
12, 505680, Note_on_c, 11, 55, 96
12, 505870, Note_on_c, 11, 55, 0
12, 505920, Note_on_c, 11, 55, 96
12, 506110, Note_on_c, 11, 55, 0
12, 506160, Note_on_c, 11, 55, 96
12, 506350, Note_on_c, 11, 55, 0
12, 506400, Note_on_c, 11, 55, 96
12, 506590, Note_on_c, 11, 55, 0
12, 506640, Note_on_c, 11, 55, 96
12, 506830, Note_on_c, 11, 55, 0
12, 506880, Note_on_c, 11, 57, 96
12, 507070, Note_on_c, 11, 57, 0
12, 507120, Note_on_c, 11, 57, 96
12, 507310, Note_on_c, 11, 57, 0
12, 507360, Note_on_c, 11, 57, 96
12, 507550, Note_on_c, 11, 57, 0
12, 507600, Note_on_c, 11, 57, 96
12, 507790, Note_on_c, 11, 57, 0
12, 507840, Note_on_c, 11, 57, 96
12, 508030, Note_on_c, 11, 57, 0
12, 508080, Note_on_c, 11, 57, 96
12, 508270, Note_on_c, 11, 57, 0
12, 508320, Note_on_c, 11, 57, 96
12, 508510, Note_on_c, 11, 57, 0
12, 508560, Note_on_c, 11, 57, 96
12, 508750, Note_on_c, 11, 57, 0
12, 508800, Note_on_c, 11, 45, 96
12, 508990, Note_on_c, 11, 45, 0
12, 509040, Note_on_c, 11, 45, 96
12, 509230, Note_on_c, 11, 45, 0
12, 509280, Note_on_c, 11, 45, 96
12, 509470, Note_on_c, 11, 45, 0
12, 509520, Note_on_c, 11, 45, 96
12, 509710, Note_on_c, 11, 45, 0
12, 509760, Note_on_c, 11, 45, 96
12, 509950, Note_on_c, 11, 45, 0
12, 510000, Note_on_c, 11, 45, 96
12, 510190, Note_on_c, 11, 45, 0
12, 510240, Note_on_c, 11, 45, 96
12, 510430, Note_on_c, 11, 45, 0
12, 510480, Note_on_c, 11, 45, 96
12, 510670, Note_on_c, 11, 45, 0
12, 510720, Note_on_c, 11, 50, 96
12, 510910, Note_on_c, 11, 50, 0
12, 510960, Note_on_c, 11, 50, 96
12, 511150, Note_on_c, 11, 50, 0
12, 511200, Note_on_c, 11, 50, 96
12, 511390, Note_on_c, 11, 50, 0
12, 511440, Note_on_c, 11, 50, 96
12, 511630, Note_on_c, 11, 50, 0
12, 511680, Note_on_c, 11, 50, 96
12, 511870, Note_on_c, 11, 50, 0
12, 511920, Note_on_c, 11, 50, 96
12, 512110, Note_on_c, 11, 50, 0
12, 512160, Note_on_c, 11, 50, 96
12, 512350, Note_on_c, 11, 50, 0
12, 512400, Note_on_c, 11, 50, 96
12, 512590, Note_on_c, 11, 50, 0
12, 512640, Note_on_c, 11, 62, 96
12, 512830, Note_on_c, 11, 62, 0
12, 512880, Note_on_c, 11, 62, 96
12, 513070, Note_on_c, 11, 62, 0
12, 513120, Note_on_c, 11, 62, 96
12, 513310, Note_on_c, 11, 62, 0
12, 513360, Note_on_c, 11, 62, 96
12, 513550, Note_on_c, 11, 62, 0
12, 513600, Note_on_c, 11, 62, 96
12, 513790, Note_on_c, 11, 62, 0
12, 513840, Note_on_c, 11, 62, 96
12, 514030, Note_on_c, 11, 62, 0
12, 514080, Note_on_c, 11, 62, 96
12, 514270, Note_on_c, 11, 62, 0
12, 514320, Note_on_c, 11, 62, 96
12, 514510, Note_on_c, 11, 62, 0
12, 514560, Note_on_c, 11, 55, 96
12, 514750, Note_on_c, 11, 55, 0
12, 514800, Note_on_c, 11, 55, 96
12, 514990, Note_on_c, 11, 55, 0
12, 515040, Note_on_c, 11, 55, 96
12, 515230, Note_on_c, 11, 55, 0
12, 515280, Note_on_c, 11, 55, 96
12, 515470, Note_on_c, 11, 55, 0
12, 515520, Note_on_c, 11, 55, 96
12, 515710, Note_on_c, 11, 55, 0
12, 515760, Note_on_c, 11, 55, 96
12, 515950, Note_on_c, 11, 55, 0
12, 516000, Note_on_c, 11, 55, 96
12, 516190, Note_on_c, 11, 55, 0
12, 516240, Note_on_c, 11, 55, 96
12, 516430, Note_on_c, 11, 55, 0
12, 516480, Note_on_c, 11, 55, 96
12, 516670, Note_on_c, 11, 55, 0
12, 516720, Note_on_c, 11, 55, 96
12, 516910, Note_on_c, 11, 55, 0
12, 516960, Note_on_c, 11, 55, 96
12, 517150, Note_on_c, 11, 55, 0
12, 517200, Note_on_c, 11, 55, 96
12, 517390, Note_on_c, 11, 55, 0
12, 517440, Note_on_c, 11, 55, 96
12, 517630, Note_on_c, 11, 55, 0
12, 517680, Note_on_c, 11, 55, 96
12, 517870, Note_on_c, 11, 55, 0
12, 517920, Note_on_c, 11, 55, 96
12, 518110, Note_on_c, 11, 55, 0
12, 518160, Note_on_c, 11, 55, 96
12, 518350, Note_on_c, 11, 55, 0
12, 518400, Note_on_c, 11, 57, 96
12, 518590, Note_on_c, 11, 57, 0
12, 518640, Note_on_c, 11, 57, 96
12, 518830, Note_on_c, 11, 57, 0
12, 518880, Note_on_c, 11, 57, 96
12, 519070, Note_on_c, 11, 57, 0
12, 519120, Note_on_c, 11, 57, 96
12, 519310, Note_on_c, 11, 57, 0
12, 519360, Note_on_c, 11, 57, 96
12, 519550, Note_on_c, 11, 57, 0
12, 519600, Note_on_c, 11, 57, 96
12, 519790, Note_on_c, 11, 57, 0
12, 519840, Note_on_c, 11, 57, 96
12, 520030, Note_on_c, 11, 57, 0
12, 520080, Note_on_c, 11, 57, 96
12, 520270, Note_on_c, 11, 57, 0
12, 520320, Note_on_c, 11, 45, 96
12, 520510, Note_on_c, 11, 45, 0
12, 520560, Note_on_c, 11, 45, 96
12, 520750, Note_on_c, 11, 45, 0
12, 520800, Note_on_c, 11, 45, 96
12, 520990, Note_on_c, 11, 45, 0
12, 521040, Note_on_c, 11, 45, 96
12, 521230, Note_on_c, 11, 45, 0
12, 521280, Note_on_c, 11, 45, 96
12, 521470, Note_on_c, 11, 45, 0
12, 521520, Note_on_c, 11, 45, 96
12, 521710, Note_on_c, 11, 45, 0
12, 521760, Note_on_c, 11, 45, 96
12, 521950, Note_on_c, 11, 45, 0
12, 522000, Note_on_c, 11, 45, 96
12, 522190, Note_on_c, 11, 45, 0
12, 522240, Note_on_c, 11, 50, 96
12, 522620, Note_on_c, 11, 50, 0
12, 523680, Note_on_c, 11, 45, 96
12, 524060, Note_on_c, 11, 45, 0
12, 524160, Note_on_c, 11, 50, 96
12, 524540, Note_on_c, 11, 50, 0
12, 525600, Note_on_c, 11, 45, 96
12, 525980, Note_on_c, 11, 45, 0
12, 526080, Note_on_c, 11, 50, 96
12, 526270, Note_on_c, 11, 50, 0
12, 526320, Note_on_c, 11, 54, 96
12, 526510, Note_on_c, 11, 54, 0
12, 526560, Note_on_c, 11, 45, 96
12, 526750, Note_on_c, 11, 45, 0
12, 526800, Note_on_c, 11, 49, 96
12, 526990, Note_on_c, 11, 49, 0
12, 527040, Note_on_c, 11, 50, 96
12, 527230, Note_on_c, 11, 50, 0
12, 527280, Note_on_c, 11, 54, 96
12, 527470, Note_on_c, 11, 54, 0
12, 527520, Note_on_c, 11, 55, 96
12, 527710, Note_on_c, 11, 55, 0
12, 527760, Note_on_c, 11, 52, 96
12, 527950, Note_on_c, 11, 52, 0
12, 528000, Note_on_c, 11, 50, 96
12, 528190, Note_on_c, 11, 50, 0
12, 528240, Note_on_c, 11, 54, 96
12, 528430, Note_on_c, 11, 54, 0
12, 528480, Note_on_c, 11, 45, 96
12, 528670, Note_on_c, 11, 45, 0
12, 528720, Note_on_c, 11, 49, 96
12, 528910, Note_on_c, 11, 49, 0
12, 528960, Note_on_c, 11, 50, 96
12, 529150, Note_on_c, 11, 50, 0
12, 529200, Note_on_c, 11, 54, 96
12, 529390, Note_on_c, 11, 54, 0
12, 529440, Note_on_c, 11, 55, 96
12, 529630, Note_on_c, 11, 55, 0
12, 529680, Note_on_c, 11, 52, 96
12, 529870, Note_on_c, 11, 52, 0
12, 529920, Note_on_c, 11, 50, 96
12, 530160, Note_on_c, 11, 50, 0
12, 530160, Note_on_c, 11, 45, 96
12, 530350, Note_on_c, 11, 45, 0
12, 530400, Note_on_c, 11, 54, 96
12, 530460, Note_on_c, 11, 54, 0
12, 530640, Note_on_c, 11, 54, 96
12, 530700, Note_on_c, 11, 54, 0
12, 530880, Note_on_c, 11, 54, 96
12, 531120, Note_on_c, 11, 54, 0
12, 531120, Note_on_c, 11, 50, 96
12, 531310, Note_on_c, 11, 50, 0
12, 531360, Note_on_c, 11, 57, 96
12, 531420, Note_on_c, 11, 57, 0
12, 531600, Note_on_c, 11, 57, 96
12, 531660, Note_on_c, 11, 57, 0
12, 531840, Note_on_c, 11, 57, 96
12, 532080, Note_on_c, 11, 57, 0
12, 532080, Note_on_c, 11, 54, 96
12, 532270, Note_on_c, 11, 54, 0
12, 532320, Note_on_c, 11, 60, 96
12, 532380, Note_on_c, 11, 60, 0
12, 532560, Note_on_c, 11, 60, 96
12, 532620, Note_on_c, 11, 60, 0
12, 532800, Note_on_c, 11, 60, 96
12, 532990, Note_on_c, 11, 60, 0
12, 533040, Note_on_c, 11, 60, 96
12, 533230, Note_on_c, 11, 60, 0
12, 533280, Note_on_c, 11, 60, 96
12, 533470, Note_on_c, 11, 60, 0
12, 533520, Note_on_c, 11, 60, 96
12, 533710, Note_on_c, 11, 60, 0
12, 533760, Note_on_c, 11, 60, 96
12, 534910, Note_on_c, 11, 60, 0
12, 535200, Note_on_c, 11, 59, 96
12, 535320, Note_on_c, 11, 59, 0
12, 535680, Note_on_c, 11, 57, 96
12, 535800, Note_on_c, 11, 57, 0
12, 536160, Note_on_c, 11, 55, 96
12, 536280, Note_on_c, 11, 55, 0
12, 536640, Note_on_c, 11, 54, 96
12, 536760, Note_on_c, 11, 54, 0
12, 537600, Note_on_c, 11, 62, 96
12, 538750, Note_on_c, 11, 62, 0
12, 539040, Note_on_c, 11, 60, 96
12, 539160, Note_on_c, 11, 60, 0
12, 539520, Note_on_c, 11, 59, 96
12, 539640, Note_on_c, 11, 59, 0
12, 540000, Note_on_c, 11, 57, 96
12, 540120, Note_on_c, 11, 57, 0
12, 540480, Note_on_c, 11, 55, 96
12, 540600, Note_on_c, 11, 55, 0
12, 549120, Note_on_c, 11, 48, 64
12, 549500, Note_on_c, 11, 48, 0
12, 551040, Note_on_c, 11, 48, 64
12, 551420, Note_on_c, 11, 48, 0
12, 552960, Note_on_c, 11, 48, 64
12, 553340, Note_on_c, 11, 48, 0
12, 554880, Note_on_c, 11, 48, 64
12, 555260, Note_on_c, 11, 48, 0
12, 556800, Note_on_c, 11, 48, 64
12, 557180, Note_on_c, 11, 48, 0
12, 558720, Note_on_c, 11, 48, 64
12, 559100, Note_on_c, 11, 48, 0
12, 560640, Note_on_c, 11, 48, 64
12, 562170, Note_on_c, 11, 48, 0
12, 562170, End_track
13, 0, Start_track
13, 0, MIDI_port, 0
13, 0, Title_t, "Basso                               "
13, 0, Program_c, 12, 48
13, 0, Control_c, 12, 7, 60
13, 0, Control_c, 12, 10, 80
13, 0, Control_c, 12, 121, 0
13, 360, Control_c, 12, 101, 0
13, 360, Control_c, 12, 100, 0
13, 360, Control_c, 12, 6, 12
13, 360, Control_c, 12, 38, 0
13, 480, Control_c, 12, 5, 0
13, 600, Control_c, 12, 65, 0
13, 720, Control_c, 12, 67, 0
13, 960, Pitch_bend_c, 12, 8192
13, 1080, Control_c, 12, 64, 0
13, 1200, Control_c, 12, 11, 127
13, 1320, Control_c, 12, 1, 0
13, 1560, Control_c, 12, 91, 100
13, 1680, Control_c, 12, 93, 20
13, 1920, Note_on_c, 12, 38, 96
13, 2680, Note_on_c, 12, 38, 0
13, 2880, Note_on_c, 12, 38, 96
13, 3640, Note_on_c, 12, 38, 0
13, 3840, Note_on_c, 12, 38, 96
13, 4600, Note_on_c, 12, 38, 0
13, 5760, Note_on_c, 12, 37, 96
13, 6520, Note_on_c, 12, 37, 0
13, 6720, Note_on_c, 12, 37, 96
13, 7480, Note_on_c, 12, 37, 0
13, 7680, Note_on_c, 12, 37, 96
13, 8440, Note_on_c, 12, 37, 0
13, 9600, Note_on_c, 12, 38, 64
13, 10170, Note_on_c, 12, 38, 0
13, 10320, Note_on_c, 12, 38, 64
13, 10510, Note_on_c, 12, 38, 0
13, 10560, Note_on_c, 12, 38, 64
13, 11130, Note_on_c, 12, 38, 0
13, 11280, Note_on_c, 12, 38, 64
13, 11470, Note_on_c, 12, 38, 0
13, 11520, Note_on_c, 12, 38, 64
13, 12090, Note_on_c, 12, 38, 0
13, 12240, Note_on_c, 12, 38, 64
13, 12430, Note_on_c, 12, 38, 0
13, 12480, Note_on_c, 12, 38, 64
13, 13050, Note_on_c, 12, 38, 0
13, 13200, Note_on_c, 12, 38, 64
13, 13390, Note_on_c, 12, 38, 0
13, 13440, Note_on_c, 12, 37, 64
13, 14010, Note_on_c, 12, 37, 0
13, 14160, Note_on_c, 12, 37, 64
13, 14350, Note_on_c, 12, 37, 0
13, 14400, Note_on_c, 12, 37, 64
13, 14970, Note_on_c, 12, 37, 0
13, 15120, Note_on_c, 12, 37, 64
13, 15310, Note_on_c, 12, 37, 0
13, 15360, Note_on_c, 12, 36, 64
13, 15930, Note_on_c, 12, 36, 0
13, 16080, Note_on_c, 12, 36, 64
13, 16270, Note_on_c, 12, 36, 0
13, 16320, Note_on_c, 12, 36, 64
13, 16890, Note_on_c, 12, 36, 0
13, 17040, Note_on_c, 12, 36, 64
13, 17230, Note_on_c, 12, 36, 0
13, 17280, Note_on_c, 12, 35, 64
13, 17850, Note_on_c, 12, 35, 0
13, 18000, Note_on_c, 12, 35, 64
13, 18190, Note_on_c, 12, 35, 0
13, 18240, Note_on_c, 12, 35, 64
13, 18810, Note_on_c, 12, 35, 0
13, 18960, Note_on_c, 12, 35, 64
13, 19150, Note_on_c, 12, 35, 0
13, 19200, Note_on_c, 12, 34, 64
13, 19770, Note_on_c, 12, 34, 0
13, 19920, Note_on_c, 12, 34, 64
13, 20110, Note_on_c, 12, 34, 0
13, 20160, Note_on_c, 12, 34, 64
13, 20730, Note_on_c, 12, 34, 0
13, 20880, Note_on_c, 12, 34, 64
13, 21070, Note_on_c, 12, 34, 0
13, 21120, Note_on_c, 12, 33, 64
13, 22270, Note_on_c, 12, 33, 0
13, 22560, Note_on_c, 12, 33, 64
13, 23040, Note_on_c, 12, 33, 0
13, 23040, Note_on_c, 12, 37, 64
13, 23520, Note_on_c, 12, 37, 0
13, 23520, Note_on_c, 12, 33, 64
13, 24000, Note_on_c, 12, 33, 0
13, 24000, Note_on_c, 12, 37, 64
13, 24480, Note_on_c, 12, 37, 0
13, 24480, Note_on_c, 12, 33, 64
13, 24960, Note_on_c, 12, 33, 0
13, 24960, Note_on_c, 12, 38, 64
13, 25440, Note_on_c, 12, 38, 0
13, 25440, Note_on_c, 12, 33, 64
13, 25920, Note_on_c, 12, 33, 0
13, 25920, Note_on_c, 12, 38, 64
13, 26400, Note_on_c, 12, 38, 0
13, 26400, Note_on_c, 12, 33, 64
13, 26880, Note_on_c, 12, 33, 0
13, 26880, Note_on_c, 12, 37, 64
13, 27360, Note_on_c, 12, 37, 0
13, 27360, Note_on_c, 12, 33, 64
13, 27840, Note_on_c, 12, 33, 0
13, 27840, Note_on_c, 12, 37, 64
13, 28320, Note_on_c, 12, 37, 0
13, 28320, Note_on_c, 12, 33, 64
13, 28800, Note_on_c, 12, 33, 0
13, 28800, Note_on_c, 12, 38, 64
13, 28990, Note_on_c, 12, 38, 0
13, 29280, Note_on_c, 12, 42, 101
13, 29760, Note_on_c, 12, 42, 0
13, 29760, Note_on_c, 12, 43, 64
13, 29950, Note_on_c, 12, 43, 0
13, 30240, Note_on_c, 12, 42, 101
13, 30720, Note_on_c, 12, 42, 0
13, 30720, Note_on_c, 12, 43, 64
13, 30910, Note_on_c, 12, 43, 0
13, 31200, Note_on_c, 12, 42, 101
13, 31680, Note_on_c, 12, 42, 0
13, 31680, Note_on_c, 12, 43, 64
13, 31870, Note_on_c, 12, 43, 0
13, 32160, Note_on_c, 12, 42, 101
13, 32640, Note_on_c, 12, 42, 0
13, 32640, Note_on_c, 12, 43, 64
13, 32830, Note_on_c, 12, 43, 0
13, 33120, Note_on_c, 12, 46, 64
13, 33310, Note_on_c, 12, 46, 0
13, 33600, Note_on_c, 12, 39, 64
13, 33790, Note_on_c, 12, 39, 0
13, 34080, Note_on_c, 12, 43, 64
13, 34270, Note_on_c, 12, 43, 0
13, 34560, Note_on_c, 12, 37, 101
13, 36090, Note_on_c, 12, 37, 0
13, 36480, Note_on_c, 12, 38, 64
13, 36670, Note_on_c, 12, 38, 0
13, 36960, Note_on_c, 12, 41, 64
13, 37150, Note_on_c, 12, 41, 0
13, 37440, Note_on_c, 12, 34, 64
13, 37630, Note_on_c, 12, 34, 0
13, 37920, Note_on_c, 12, 38, 64
13, 38110, Note_on_c, 12, 38, 0
13, 38400, Note_on_c, 12, 32, 101
13, 40320, Note_on_c, 12, 32, 0
13, 40320, Note_on_c, 12, 31, 64
13, 40700, Note_on_c, 12, 31, 0
13, 41280, Note_on_c, 12, 31, 64
13, 41660, Note_on_c, 12, 31, 0
13, 42240, Note_on_c, 12, 33, 64
13, 42620, Note_on_c, 12, 33, 0
13, 43200, Note_on_c, 12, 33, 64
13, 43580, Note_on_c, 12, 33, 0
13, 44160, Note_on_c, 12, 41, 64
13, 44730, Note_on_c, 12, 41, 0
13, 44880, Note_on_c, 12, 41, 64
13, 45070, Note_on_c, 12, 41, 0
13, 45120, Note_on_c, 12, 41, 64
13, 45690, Note_on_c, 12, 41, 0
13, 45840, Note_on_c, 12, 41, 64
13, 46030, Note_on_c, 12, 41, 0
13, 46080, Note_on_c, 12, 43, 64
13, 46650, Note_on_c, 12, 43, 0
13, 46800, Note_on_c, 12, 43, 64
13, 46990, Note_on_c, 12, 43, 0
13, 47040, Note_on_c, 12, 44, 64
13, 47610, Note_on_c, 12, 44, 0
13, 47760, Note_on_c, 12, 44, 64
13, 47950, Note_on_c, 12, 44, 0
13, 48000, Note_on_c, 12, 45, 64
13, 48570, Note_on_c, 12, 45, 0
13, 48720, Note_on_c, 12, 45, 64
13, 48910, Note_on_c, 12, 45, 0
13, 48960, Note_on_c, 12, 45, 64
13, 49530, Note_on_c, 12, 45, 0
13, 49680, Note_on_c, 12, 45, 64
13, 49870, Note_on_c, 12, 45, 0
13, 49920, Note_on_c, 12, 46, 64
13, 50490, Note_on_c, 12, 46, 0
13, 50640, Note_on_c, 12, 46, 64
13, 50830, Note_on_c, 12, 46, 0
13, 50880, Note_on_c, 12, 46, 64
13, 51450, Note_on_c, 12, 46, 0
13, 51600, Note_on_c, 12, 46, 64
13, 51790, Note_on_c, 12, 46, 0
13, 51840, Note_on_c, 12, 34, 96
13, 52410, Note_on_c, 12, 34, 0
13, 52560, Note_on_c, 12, 34, 96
13, 52750, Note_on_c, 12, 34, 0
13, 52800, Note_on_c, 12, 34, 96
13, 53370, Note_on_c, 12, 34, 0
13, 53520, Note_on_c, 12, 34, 96
13, 53710, Note_on_c, 12, 34, 0
13, 53760, Note_on_c, 12, 34, 96
13, 54330, Note_on_c, 12, 34, 0
13, 54480, Note_on_c, 12, 34, 96
13, 54670, Note_on_c, 12, 34, 0
13, 54720, Note_on_c, 12, 34, 96
13, 55290, Note_on_c, 12, 34, 0
13, 55440, Note_on_c, 12, 34, 96
13, 55630, Note_on_c, 12, 34, 0
13, 55680, Note_on_c, 12, 33, 64
13, 56250, Note_on_c, 12, 33, 0
13, 56400, Note_on_c, 12, 33, 64
13, 56590, Note_on_c, 12, 33, 0
13, 56640, Note_on_c, 12, 33, 64
13, 57210, Note_on_c, 12, 33, 0
13, 57360, Note_on_c, 12, 33, 64
13, 57550, Note_on_c, 12, 33, 0
13, 57600, Note_on_c, 12, 33, 64
13, 58170, Note_on_c, 12, 33, 0
13, 58320, Note_on_c, 12, 33, 64
13, 58510, Note_on_c, 12, 33, 0
13, 58560, Note_on_c, 12, 33, 64
13, 59130, Note_on_c, 12, 33, 0
13, 59280, Note_on_c, 12, 33, 64
13, 59470, Note_on_c, 12, 33, 0
13, 59520, Note_on_c, 12, 38, 64
13, 59900, Note_on_c, 12, 38, 0
13, 92160, Note_on_c, 12, 38, 96
13, 92220, Note_on_c, 12, 38, 0
13, 92400, Note_on_c, 12, 42, 96
13, 92460, Note_on_c, 12, 42, 0
13, 92640, Note_on_c, 12, 33, 96
13, 92700, Note_on_c, 12, 33, 0
13, 92880, Note_on_c, 12, 37, 96
13, 92940, Note_on_c, 12, 37, 0
13, 93120, Note_on_c, 12, 38, 96
13, 93180, Note_on_c, 12, 38, 0
13, 93360, Note_on_c, 12, 42, 96
13, 93420, Note_on_c, 12, 42, 0
13, 93600, Note_on_c, 12, 43, 96
13, 93660, Note_on_c, 12, 43, 0
13, 93840, Note_on_c, 12, 40, 96
13, 93900, Note_on_c, 12, 40, 0
13, 94080, Note_on_c, 12, 38, 96
13, 94140, Note_on_c, 12, 38, 0
13, 94320, Note_on_c, 12, 42, 96
13, 94380, Note_on_c, 12, 42, 0
13, 94560, Note_on_c, 12, 33, 96
13, 94620, Note_on_c, 12, 33, 0
13, 94800, Note_on_c, 12, 37, 96
13, 94860, Note_on_c, 12, 37, 0
13, 95040, Note_on_c, 12, 38, 96
13, 95100, Note_on_c, 12, 38, 0
13, 95280, Note_on_c, 12, 42, 96
13, 95340, Note_on_c, 12, 42, 0
13, 95520, Note_on_c, 12, 43, 96
13, 95580, Note_on_c, 12, 43, 0
13, 95760, Note_on_c, 12, 40, 96
13, 95820, Note_on_c, 12, 40, 0
13, 96000, Note_on_c, 12, 38, 96
13, 96240, Note_on_c, 12, 38, 0
13, 96240, Note_on_c, 12, 33, 96
13, 96430, Note_on_c, 12, 33, 0
13, 96480, Note_on_c, 12, 42, 96
13, 96540, Note_on_c, 12, 42, 0
13, 96720, Note_on_c, 12, 42, 96
13, 96780, Note_on_c, 12, 42, 0
13, 96960, Note_on_c, 12, 42, 96
13, 97200, Note_on_c, 12, 42, 0
13, 97200, Note_on_c, 12, 38, 96
13, 97390, Note_on_c, 12, 38, 0
13, 97440, Note_on_c, 12, 45, 96
13, 97500, Note_on_c, 12, 45, 0
13, 97680, Note_on_c, 12, 45, 96
13, 97740, Note_on_c, 12, 45, 0
13, 97920, Note_on_c, 12, 45, 96
13, 98160, Note_on_c, 12, 45, 0
13, 98160, Note_on_c, 12, 42, 96
13, 98350, Note_on_c, 12, 42, 0
13, 98400, Note_on_c, 12, 50, 96
13, 98460, Note_on_c, 12, 50, 0
13, 98640, Note_on_c, 12, 50, 96
13, 98700, Note_on_c, 12, 50, 0
13, 98880, Note_on_c, 12, 50, 96
13, 99070, Note_on_c, 12, 50, 0
13, 99120, Note_on_c, 12, 45, 96
13, 99310, Note_on_c, 12, 45, 0
13, 99360, Note_on_c, 12, 42, 96
13, 99550, Note_on_c, 12, 42, 0
13, 99600, Note_on_c, 12, 38, 96
13, 99790, Note_on_c, 12, 38, 0
13, 99840, Note_on_c, 12, 45, 96
13, 100030, Note_on_c, 12, 45, 0
13, 100080, Note_on_c, 12, 45, 96
13, 100270, Note_on_c, 12, 45, 0
13, 100320, Note_on_c, 12, 45, 96
13, 100510, Note_on_c, 12, 45, 0
13, 100560, Note_on_c, 12, 45, 96
13, 100750, Note_on_c, 12, 45, 0
13, 100800, Note_on_c, 12, 45, 96
13, 100990, Note_on_c, 12, 45, 0
13, 101040, Note_on_c, 12, 45, 96
13, 101230, Note_on_c, 12, 45, 0
13, 101280, Note_on_c, 12, 45, 96
13, 101470, Note_on_c, 12, 45, 0
13, 101520, Note_on_c, 12, 45, 96
13, 101710, Note_on_c, 12, 45, 0
13, 101760, Note_on_c, 12, 45, 96
13, 101950, Note_on_c, 12, 45, 0
13, 102000, Note_on_c, 12, 45, 96
13, 102190, Note_on_c, 12, 45, 0
13, 102240, Note_on_c, 12, 45, 96
13, 102430, Note_on_c, 12, 45, 0
13, 102480, Note_on_c, 12, 45, 96
13, 102670, Note_on_c, 12, 45, 0
13, 102720, Note_on_c, 12, 45, 96
13, 102910, Note_on_c, 12, 45, 0
13, 102960, Note_on_c, 12, 45, 96
13, 103150, Note_on_c, 12, 45, 0
13, 103200, Note_on_c, 12, 45, 96
13, 103390, Note_on_c, 12, 45, 0
13, 103440, Note_on_c, 12, 45, 96
13, 103630, Note_on_c, 12, 45, 0
13, 103680, Note_on_c, 12, 45, 96
13, 103870, Note_on_c, 12, 45, 0
13, 103920, Note_on_c, 12, 45, 96
13, 104110, Note_on_c, 12, 45, 0
13, 104160, Note_on_c, 12, 45, 96
13, 104350, Note_on_c, 12, 45, 0
13, 104400, Note_on_c, 12, 45, 96
13, 104590, Note_on_c, 12, 45, 0
13, 104640, Note_on_c, 12, 45, 96
13, 104830, Note_on_c, 12, 45, 0
13, 104880, Note_on_c, 12, 45, 96
13, 105070, Note_on_c, 12, 45, 0
13, 105120, Note_on_c, 12, 45, 96
13, 105310, Note_on_c, 12, 45, 0
13, 105360, Note_on_c, 12, 45, 96
13, 105550, Note_on_c, 12, 45, 0
13, 105600, Note_on_c, 12, 45, 96
13, 105980, Note_on_c, 12, 45, 0
13, 106080, Note_on_c, 12, 33, 96
13, 106270, Note_on_c, 12, 33, 0
13, 106320, Note_on_c, 12, 33, 96
13, 106510, Note_on_c, 12, 33, 0
13, 106560, Note_on_c, 12, 33, 96
13, 106940, Note_on_c, 12, 33, 0
13, 107520, Note_on_c, 12, 33, 96
13, 107710, Note_on_c, 12, 33, 0
13, 107760, Note_on_c, 12, 45, 96
13, 107950, Note_on_c, 12, 45, 0
13, 108000, Note_on_c, 12, 45, 96
13, 108190, Note_on_c, 12, 45, 0
13, 108240, Note_on_c, 12, 45, 96
13, 108430, Note_on_c, 12, 45, 0
13, 108480, Note_on_c, 12, 45, 96
13, 108860, Note_on_c, 12, 45, 0
13, 111360, Note_on_c, 12, 35, 96
13, 111550, Note_on_c, 12, 35, 0
13, 111600, Note_on_c, 12, 47, 96
13, 111790, Note_on_c, 12, 47, 0
13, 111840, Note_on_c, 12, 47, 96
13, 112030, Note_on_c, 12, 47, 0
13, 112080, Note_on_c, 12, 47, 96
13, 112270, Note_on_c, 12, 47, 0
13, 112320, Note_on_c, 12, 47, 96
13, 112700, Note_on_c, 12, 47, 0
13, 115200, Note_on_c, 12, 28, 96
13, 115390, Note_on_c, 12, 28, 0
13, 115440, Note_on_c, 12, 40, 96
13, 115630, Note_on_c, 12, 40, 0
13, 115680, Note_on_c, 12, 40, 96
13, 115870, Note_on_c, 12, 40, 0
13, 115920, Note_on_c, 12, 40, 96
13, 116110, Note_on_c, 12, 40, 0
13, 116160, Note_on_c, 12, 40, 96
13, 116540, Note_on_c, 12, 40, 0
13, 128640, Note_on_c, 12, 50, 96
13, 128830, Note_on_c, 12, 50, 0
13, 128880, Note_on_c, 12, 50, 96
13, 129070, Note_on_c, 12, 50, 0
13, 129120, Note_on_c, 12, 50, 96
13, 129310, Note_on_c, 12, 50, 0
13, 129360, Note_on_c, 12, 50, 96
13, 129550, Note_on_c, 12, 50, 0
13, 129600, Note_on_c, 12, 50, 96
13, 129790, Note_on_c, 12, 50, 0
13, 129840, Note_on_c, 12, 50, 96
13, 130030, Note_on_c, 12, 50, 0
13, 130080, Note_on_c, 12, 50, 96
13, 130270, Note_on_c, 12, 50, 0
13, 130320, Note_on_c, 12, 50, 96
13, 130510, Note_on_c, 12, 50, 0
13, 130560, Note_on_c, 12, 48, 96
13, 130750, Note_on_c, 12, 48, 0
13, 130800, Note_on_c, 12, 48, 96
13, 130990, Note_on_c, 12, 48, 0
13, 131040, Note_on_c, 12, 48, 96
13, 131230, Note_on_c, 12, 48, 0
13, 131280, Note_on_c, 12, 48, 96
13, 131470, Note_on_c, 12, 48, 0
13, 131520, Note_on_c, 12, 48, 96
13, 131710, Note_on_c, 12, 48, 0
13, 131760, Note_on_c, 12, 48, 96
13, 131950, Note_on_c, 12, 48, 0
13, 132000, Note_on_c, 12, 48, 96
13, 132190, Note_on_c, 12, 48, 0
13, 132240, Note_on_c, 12, 48, 96
13, 132430, Note_on_c, 12, 48, 0
13, 132480, Note_on_c, 12, 50, 96
13, 132670, Note_on_c, 12, 50, 0
13, 132720, Note_on_c, 12, 50, 96
13, 132910, Note_on_c, 12, 50, 0
13, 132960, Note_on_c, 12, 50, 96
13, 133150, Note_on_c, 12, 50, 0
13, 133200, Note_on_c, 12, 50, 96
13, 133390, Note_on_c, 12, 50, 0
13, 133440, Note_on_c, 12, 50, 96
13, 133630, Note_on_c, 12, 50, 0
13, 133680, Note_on_c, 12, 50, 96
13, 133870, Note_on_c, 12, 50, 0
13, 133920, Note_on_c, 12, 50, 96
13, 134110, Note_on_c, 12, 50, 0
13, 134160, Note_on_c, 12, 50, 96
13, 134350, Note_on_c, 12, 50, 0
13, 134400, Note_on_c, 12, 48, 96
13, 134590, Note_on_c, 12, 48, 0
13, 134640, Note_on_c, 12, 48, 96
13, 134830, Note_on_c, 12, 48, 0
13, 134880, Note_on_c, 12, 48, 96
13, 135070, Note_on_c, 12, 48, 0
13, 135120, Note_on_c, 12, 48, 96
13, 135310, Note_on_c, 12, 48, 0
13, 135360, Note_on_c, 12, 48, 96
13, 135550, Note_on_c, 12, 48, 0
13, 135600, Note_on_c, 12, 48, 96
13, 135790, Note_on_c, 12, 48, 0
13, 135840, Note_on_c, 12, 48, 96
13, 136030, Note_on_c, 12, 48, 0
13, 136080, Note_on_c, 12, 48, 96
13, 136270, Note_on_c, 12, 48, 0
13, 136320, Note_on_c, 12, 50, 96
13, 136510, Note_on_c, 12, 50, 0
13, 136560, Note_on_c, 12, 50, 96
13, 136750, Note_on_c, 12, 50, 0
13, 136800, Note_on_c, 12, 50, 96
13, 136990, Note_on_c, 12, 50, 0
13, 137040, Note_on_c, 12, 50, 96
13, 137230, Note_on_c, 12, 50, 0
13, 137280, Note_on_c, 12, 50, 96
13, 137470, Note_on_c, 12, 50, 0
13, 137520, Note_on_c, 12, 50, 96
13, 137710, Note_on_c, 12, 50, 0
13, 137760, Note_on_c, 12, 50, 96
13, 137950, Note_on_c, 12, 50, 0
13, 138000, Note_on_c, 12, 50, 96
13, 138190, Note_on_c, 12, 50, 0
13, 138240, Note_on_c, 12, 51, 96
13, 138430, Note_on_c, 12, 51, 0
13, 138480, Note_on_c, 12, 51, 96
13, 138670, Note_on_c, 12, 51, 0
13, 138720, Note_on_c, 12, 51, 96
13, 138910, Note_on_c, 12, 51, 0
13, 138960, Note_on_c, 12, 51, 96
13, 139150, Note_on_c, 12, 51, 0
13, 139200, Note_on_c, 12, 51, 96
13, 139390, Note_on_c, 12, 51, 0
13, 139440, Note_on_c, 12, 51, 96
13, 139630, Note_on_c, 12, 51, 0
13, 139680, Note_on_c, 12, 51, 96
13, 139870, Note_on_c, 12, 51, 0
13, 139920, Note_on_c, 12, 51, 96
13, 140110, Note_on_c, 12, 51, 0
13, 140160, Note_on_c, 12, 52, 96
13, 140350, Note_on_c, 12, 52, 0
13, 140400, Note_on_c, 12, 52, 96
13, 140590, Note_on_c, 12, 52, 0
13, 140640, Note_on_c, 12, 52, 96
13, 140830, Note_on_c, 12, 52, 0
13, 140880, Note_on_c, 12, 52, 96
13, 141070, Note_on_c, 12, 52, 0
13, 141120, Note_on_c, 12, 52, 96
13, 141310, Note_on_c, 12, 52, 0
13, 141360, Note_on_c, 12, 52, 96
13, 141550, Note_on_c, 12, 52, 0
13, 141600, Note_on_c, 12, 52, 96
13, 141790, Note_on_c, 12, 52, 0
13, 141840, Note_on_c, 12, 52, 96
13, 142030, Note_on_c, 12, 52, 0
13, 142080, Note_on_c, 12, 52, 96
13, 142270, Note_on_c, 12, 52, 0
13, 142320, Note_on_c, 12, 52, 96
13, 142510, Note_on_c, 12, 52, 0
13, 142560, Note_on_c, 12, 52, 96
13, 142750, Note_on_c, 12, 52, 0
13, 142800, Note_on_c, 12, 52, 96
13, 142990, Note_on_c, 12, 52, 0
13, 143040, Note_on_c, 12, 52, 96
13, 143230, Note_on_c, 12, 52, 0
13, 143280, Note_on_c, 12, 52, 96
13, 143470, Note_on_c, 12, 52, 0
13, 143520, Note_on_c, 12, 52, 96
13, 143710, Note_on_c, 12, 52, 0
13, 143760, Note_on_c, 12, 52, 96
13, 143950, Note_on_c, 12, 52, 0
13, 144000, Note_on_c, 12, 52, 96
13, 144380, Note_on_c, 12, 52, 0
13, 144960, Note_on_c, 12, 40, 96
13, 145340, Note_on_c, 12, 40, 0
13, 145440, Note_on_c, 12, 40, 96
13, 145820, Note_on_c, 12, 40, 0
13, 145920, Note_on_c, 12, 40, 96
13, 146680, Note_on_c, 12, 40, 0
13, 147840, Note_on_c, 12, 38, 101
13, 148990, Note_on_c, 12, 38, 0
13, 149280, Note_on_c, 12, 37, 96
13, 149400, Note_on_c, 12, 37, 0
13, 149760, Note_on_c, 12, 35, 96
13, 149880, Note_on_c, 12, 35, 0
13, 150240, Note_on_c, 12, 33, 96
13, 150360, Note_on_c, 12, 33, 0
13, 150720, Note_on_c, 12, 32, 96
13, 150840, Note_on_c, 12, 32, 0
13, 155520, Note_on_c, 12, 38, 101
13, 156670, Note_on_c, 12, 38, 0
13, 156960, Note_on_c, 12, 37, 96
13, 157080, Note_on_c, 12, 37, 0
13, 157440, Note_on_c, 12, 35, 96
13, 157560, Note_on_c, 12, 35, 0
13, 157920, Note_on_c, 12, 33, 96
13, 158040, Note_on_c, 12, 33, 0
13, 158400, Note_on_c, 12, 32, 96
13, 158520, Note_on_c, 12, 32, 0
13, 165120, Note_on_c, 12, 35, 96
13, 165240, Note_on_c, 12, 35, 0
13, 165600, Note_on_c, 12, 33, 96
13, 165720, Note_on_c, 12, 33, 0
13, 166080, Note_on_c, 12, 32, 96
13, 166200, Note_on_c, 12, 32, 0
13, 167040, Note_on_c, 12, 38, 96
13, 168190, Note_on_c, 12, 38, 0
13, 168480, Note_on_c, 12, 36, 64
13, 168600, Note_on_c, 12, 36, 0
13, 168960, Note_on_c, 12, 35, 64
13, 169080, Note_on_c, 12, 35, 0
13, 169440, Note_on_c, 12, 33, 64
13, 169560, Note_on_c, 12, 33, 0
13, 169920, Note_on_c, 12, 32, 64
13, 170040, Note_on_c, 12, 32, 0
13, 170880, Note_on_c, 12, 38, 64
13, 172030, Note_on_c, 12, 38, 0
13, 172320, Note_on_c, 12, 36, 64
13, 172440, Note_on_c, 12, 36, 0
13, 172800, Note_on_c, 12, 35, 64
13, 172920, Note_on_c, 12, 35, 0
13, 173280, Note_on_c, 12, 33, 64
13, 173400, Note_on_c, 12, 33, 0
13, 173760, Note_on_c, 12, 31, 64
13, 173880, Note_on_c, 12, 31, 0
13, 174720, Note_on_c, 12, 31, 64
13, 182010, Note_on_c, 12, 31, 0
13, 182400, Note_on_c, 12, 40, 64
13, 184320, Note_on_c, 12, 40, 0
13, 184320, Note_on_c, 12, 41, 64
13, 186240, Note_on_c, 12, 41, 0
13, 186240, Note_on_c, 12, 40, 64
13, 186620, Note_on_c, 12, 40, 0
13, 188160, Note_on_c, 12, 40, 64
13, 188540, Note_on_c, 12, 40, 0
13, 190080, Note_on_c, 12, 33, 96
13, 190270, Note_on_c, 12, 33, 0
13, 190320, Note_on_c, 12, 45, 96
13, 190510, Note_on_c, 12, 45, 0
13, 190560, Note_on_c, 12, 45, 96
13, 190750, Note_on_c, 12, 45, 0
13, 190800, Note_on_c, 12, 45, 96
13, 190990, Note_on_c, 12, 45, 0
13, 191040, Note_on_c, 12, 45, 96
13, 191230, Note_on_c, 12, 45, 0
13, 191280, Note_on_c, 12, 45, 96
13, 191470, Note_on_c, 12, 45, 0
13, 191520, Note_on_c, 12, 45, 96
13, 191710, Note_on_c, 12, 45, 0
13, 191760, Note_on_c, 12, 45, 96
13, 191950, Note_on_c, 12, 45, 0
13, 192000, Note_on_c, 12, 45, 96
13, 192190, Note_on_c, 12, 45, 0
13, 192240, Note_on_c, 12, 45, 96
13, 192430, Note_on_c, 12, 45, 0
13, 192480, Note_on_c, 12, 45, 96
13, 192670, Note_on_c, 12, 45, 0
13, 192720, Note_on_c, 12, 45, 96
13, 192910, Note_on_c, 12, 45, 0
13, 192960, Note_on_c, 12, 45, 96
13, 193150, Note_on_c, 12, 45, 0
13, 193200, Note_on_c, 12, 45, 96
13, 193390, Note_on_c, 12, 45, 0
13, 193440, Note_on_c, 12, 45, 96
13, 193630, Note_on_c, 12, 45, 0
13, 193680, Note_on_c, 12, 45, 96
13, 193870, Note_on_c, 12, 45, 0
13, 193920, Note_on_c, 12, 38, 96
13, 194110, Note_on_c, 12, 38, 0
13, 194160, Note_on_c, 12, 38, 96
13, 194350, Note_on_c, 12, 38, 0
13, 194400, Note_on_c, 12, 38, 96
13, 194590, Note_on_c, 12, 38, 0
13, 194640, Note_on_c, 12, 38, 96
13, 194830, Note_on_c, 12, 38, 0
13, 194880, Note_on_c, 12, 38, 96
13, 195070, Note_on_c, 12, 38, 0
13, 195120, Note_on_c, 12, 38, 96
13, 195310, Note_on_c, 12, 38, 0
13, 195360, Note_on_c, 12, 38, 96
13, 195550, Note_on_c, 12, 38, 0
13, 195600, Note_on_c, 12, 38, 96
13, 195790, Note_on_c, 12, 38, 0
13, 195840, Note_on_c, 12, 50, 96
13, 196030, Note_on_c, 12, 50, 0
13, 196080, Note_on_c, 12, 50, 96
13, 196270, Note_on_c, 12, 50, 0
13, 196320, Note_on_c, 12, 50, 96
13, 196510, Note_on_c, 12, 50, 0
13, 196560, Note_on_c, 12, 50, 96
13, 196750, Note_on_c, 12, 50, 0
13, 196800, Note_on_c, 12, 50, 96
13, 196990, Note_on_c, 12, 50, 0
13, 197040, Note_on_c, 12, 50, 96
13, 197230, Note_on_c, 12, 50, 0
13, 197280, Note_on_c, 12, 50, 96
13, 197470, Note_on_c, 12, 50, 0
13, 197520, Note_on_c, 12, 50, 96
13, 197710, Note_on_c, 12, 50, 0
13, 197760, Note_on_c, 12, 52, 96
13, 197950, Note_on_c, 12, 52, 0
13, 198000, Note_on_c, 12, 52, 96
13, 198190, Note_on_c, 12, 52, 0
13, 198240, Note_on_c, 12, 52, 96
13, 198430, Note_on_c, 12, 52, 0
13, 198480, Note_on_c, 12, 52, 96
13, 198670, Note_on_c, 12, 52, 0
13, 198720, Note_on_c, 12, 52, 96
13, 198910, Note_on_c, 12, 52, 0
13, 198960, Note_on_c, 12, 52, 96
13, 199150, Note_on_c, 12, 52, 0
13, 199200, Note_on_c, 12, 52, 96
13, 199390, Note_on_c, 12, 52, 0
13, 199440, Note_on_c, 12, 52, 96
13, 199630, Note_on_c, 12, 52, 0
13, 199680, Note_on_c, 12, 40, 96
13, 199870, Note_on_c, 12, 40, 0
13, 199920, Note_on_c, 12, 40, 96
13, 200110, Note_on_c, 12, 40, 0
13, 200160, Note_on_c, 12, 40, 96
13, 200350, Note_on_c, 12, 40, 0
13, 200400, Note_on_c, 12, 40, 96
13, 200590, Note_on_c, 12, 40, 0
13, 200640, Note_on_c, 12, 40, 96
13, 200830, Note_on_c, 12, 40, 0
13, 200880, Note_on_c, 12, 40, 96
13, 201070, Note_on_c, 12, 40, 0
13, 201120, Note_on_c, 12, 40, 96
13, 201310, Note_on_c, 12, 40, 0
13, 201360, Note_on_c, 12, 40, 96
13, 201550, Note_on_c, 12, 40, 0
13, 201600, Note_on_c, 12, 45, 96
13, 201790, Note_on_c, 12, 45, 0
13, 201840, Note_on_c, 12, 45, 96
13, 202030, Note_on_c, 12, 45, 0
13, 202080, Note_on_c, 12, 45, 96
13, 202270, Note_on_c, 12, 45, 0
13, 202320, Note_on_c, 12, 45, 96
13, 202510, Note_on_c, 12, 45, 0
13, 202560, Note_on_c, 12, 45, 96
13, 202750, Note_on_c, 12, 45, 0
13, 202800, Note_on_c, 12, 45, 96
13, 202990, Note_on_c, 12, 45, 0
13, 203040, Note_on_c, 12, 45, 96
13, 203230, Note_on_c, 12, 45, 0
13, 203280, Note_on_c, 12, 45, 96
13, 203470, Note_on_c, 12, 45, 0
13, 203520, Note_on_c, 12, 45, 96
13, 203710, Note_on_c, 12, 45, 0
13, 203760, Note_on_c, 12, 45, 96
13, 203950, Note_on_c, 12, 45, 0
13, 204000, Note_on_c, 12, 45, 96
13, 204190, Note_on_c, 12, 45, 0
13, 204240, Note_on_c, 12, 45, 96
13, 204430, Note_on_c, 12, 45, 0
13, 204480, Note_on_c, 12, 45, 96
13, 204670, Note_on_c, 12, 45, 0
13, 204720, Note_on_c, 12, 45, 96
13, 204910, Note_on_c, 12, 45, 0
13, 204960, Note_on_c, 12, 45, 96
13, 205150, Note_on_c, 12, 45, 0
13, 205200, Note_on_c, 12, 45, 96
13, 205390, Note_on_c, 12, 45, 0
13, 205440, Note_on_c, 12, 38, 96
13, 205630, Note_on_c, 12, 38, 0
13, 205680, Note_on_c, 12, 38, 96
13, 205870, Note_on_c, 12, 38, 0
13, 205920, Note_on_c, 12, 38, 96
13, 206110, Note_on_c, 12, 38, 0
13, 206160, Note_on_c, 12, 38, 96
13, 206350, Note_on_c, 12, 38, 0
13, 206400, Note_on_c, 12, 38, 96
13, 206590, Note_on_c, 12, 38, 0
13, 206640, Note_on_c, 12, 38, 96
13, 206830, Note_on_c, 12, 38, 0
13, 206880, Note_on_c, 12, 38, 96
13, 207070, Note_on_c, 12, 38, 0
13, 207120, Note_on_c, 12, 38, 96
13, 207310, Note_on_c, 12, 38, 0
13, 207360, Note_on_c, 12, 50, 96
13, 207550, Note_on_c, 12, 50, 0
13, 207600, Note_on_c, 12, 50, 96
13, 207790, Note_on_c, 12, 50, 0
13, 207840, Note_on_c, 12, 50, 96
13, 208030, Note_on_c, 12, 50, 0
13, 208080, Note_on_c, 12, 50, 96
13, 208270, Note_on_c, 12, 50, 0
13, 208320, Note_on_c, 12, 50, 96
13, 208510, Note_on_c, 12, 50, 0
13, 208560, Note_on_c, 12, 50, 96
13, 208750, Note_on_c, 12, 50, 0
13, 208800, Note_on_c, 12, 50, 96
13, 208990, Note_on_c, 12, 50, 0
13, 209040, Note_on_c, 12, 50, 96
13, 209230, Note_on_c, 12, 50, 0
13, 209280, Note_on_c, 12, 52, 96
13, 209470, Note_on_c, 12, 52, 0
13, 209520, Note_on_c, 12, 52, 96
13, 209710, Note_on_c, 12, 52, 0
13, 209760, Note_on_c, 12, 52, 96
13, 209950, Note_on_c, 12, 52, 0
13, 210000, Note_on_c, 12, 52, 96
13, 210190, Note_on_c, 12, 52, 0
13, 210240, Note_on_c, 12, 52, 96
13, 210430, Note_on_c, 12, 52, 0
13, 210480, Note_on_c, 12, 52, 96
13, 210670, Note_on_c, 12, 52, 0
13, 210720, Note_on_c, 12, 52, 96
13, 210910, Note_on_c, 12, 52, 0
13, 210960, Note_on_c, 12, 52, 96
13, 211150, Note_on_c, 12, 52, 0
13, 211200, Note_on_c, 12, 40, 96
13, 211390, Note_on_c, 12, 40, 0
13, 211440, Note_on_c, 12, 40, 96
13, 211630, Note_on_c, 12, 40, 0
13, 211680, Note_on_c, 12, 40, 96
13, 211870, Note_on_c, 12, 40, 0
13, 211920, Note_on_c, 12, 40, 96
13, 212110, Note_on_c, 12, 40, 0
13, 212160, Note_on_c, 12, 40, 96
13, 212350, Note_on_c, 12, 40, 0
13, 212400, Note_on_c, 12, 40, 96
13, 212590, Note_on_c, 12, 40, 0
13, 212640, Note_on_c, 12, 40, 96
13, 212830, Note_on_c, 12, 40, 0
13, 212880, Note_on_c, 12, 40, 96
13, 213070, Note_on_c, 12, 40, 0
13, 213120, Note_on_c, 12, 45, 96
13, 213500, Note_on_c, 12, 45, 0
13, 214560, Note_on_c, 12, 40, 96
13, 214940, Note_on_c, 12, 40, 0
13, 215040, Note_on_c, 12, 45, 96
13, 215420, Note_on_c, 12, 45, 0
13, 216480, Note_on_c, 12, 40, 96
13, 216860, Note_on_c, 12, 40, 0
13, 216960, Note_on_c, 12, 45, 96
13, 217150, Note_on_c, 12, 45, 0
13, 217200, Note_on_c, 12, 49, 96
13, 217390, Note_on_c, 12, 49, 0
13, 217440, Note_on_c, 12, 40, 96
13, 217630, Note_on_c, 12, 40, 0
13, 217680, Note_on_c, 12, 44, 96
13, 217870, Note_on_c, 12, 44, 0
13, 217920, Note_on_c, 12, 45, 96
13, 218110, Note_on_c, 12, 45, 0
13, 218160, Note_on_c, 12, 49, 96
13, 218350, Note_on_c, 12, 49, 0
13, 218400, Note_on_c, 12, 50, 96
13, 218590, Note_on_c, 12, 50, 0
13, 218640, Note_on_c, 12, 47, 96
13, 218830, Note_on_c, 12, 47, 0
13, 218880, Note_on_c, 12, 45, 96
13, 219070, Note_on_c, 12, 45, 0
13, 219120, Note_on_c, 12, 49, 96
13, 219310, Note_on_c, 12, 49, 0
13, 219360, Note_on_c, 12, 40, 96
13, 219550, Note_on_c, 12, 40, 0
13, 219600, Note_on_c, 12, 44, 96
13, 219790, Note_on_c, 12, 44, 0
13, 219840, Note_on_c, 12, 45, 96
13, 220030, Note_on_c, 12, 45, 0
13, 220080, Note_on_c, 12, 49, 96
13, 220270, Note_on_c, 12, 49, 0
13, 220320, Note_on_c, 12, 50, 96
13, 220510, Note_on_c, 12, 50, 0
13, 220560, Note_on_c, 12, 47, 96
13, 220750, Note_on_c, 12, 47, 0
13, 220800, Note_on_c, 12, 45, 96
13, 221040, Note_on_c, 12, 45, 0
13, 221040, Note_on_c, 12, 40, 96
13, 221230, Note_on_c, 12, 40, 0
13, 221280, Note_on_c, 12, 49, 96
13, 221340, Note_on_c, 12, 49, 0
13, 221520, Note_on_c, 12, 49, 96
13, 221580, Note_on_c, 12, 49, 0
13, 221760, Note_on_c, 12, 49, 96
13, 222000, Note_on_c, 12, 49, 0
13, 222000, Note_on_c, 12, 45, 96
13, 222190, Note_on_c, 12, 45, 0
13, 222240, Note_on_c, 12, 52, 96
13, 222300, Note_on_c, 12, 52, 0
13, 222480, Note_on_c, 12, 52, 96
13, 222540, Note_on_c, 12, 52, 0
13, 222720, Note_on_c, 12, 52, 96
13, 222910, Note_on_c, 12, 52, 0
13, 222960, Note_on_c, 12, 52, 96
13, 223150, Note_on_c, 12, 52, 0
13, 223200, Note_on_c, 12, 52, 96
13, 223390, Note_on_c, 12, 52, 0
13, 223440, Note_on_c, 12, 52, 96
13, 223630, Note_on_c, 12, 52, 0
13, 223680, Note_on_c, 12, 52, 96
13, 223870, Note_on_c, 12, 52, 0
13, 223920, Note_on_c, 12, 49, 96
13, 224110, Note_on_c, 12, 49, 0
13, 224160, Note_on_c, 12, 45, 96
13, 224350, Note_on_c, 12, 45, 0
13, 224400, Note_on_c, 12, 40, 96
13, 224590, Note_on_c, 12, 40, 0
13, 224640, Note_on_c, 12, 49, 96
13, 224830, Note_on_c, 12, 49, 0
13, 224880, Note_on_c, 12, 49, 96
13, 225070, Note_on_c, 12, 49, 0
13, 225120, Note_on_c, 12, 49, 96
13, 225310, Note_on_c, 12, 49, 0
13, 225360, Note_on_c, 12, 49, 96
13, 225550, Note_on_c, 12, 49, 0
13, 225600, Note_on_c, 12, 49, 96
13, 225790, Note_on_c, 12, 49, 0
13, 225840, Note_on_c, 12, 45, 96
13, 226030, Note_on_c, 12, 45, 0
13, 226080, Note_on_c, 12, 40, 96
13, 226270, Note_on_c, 12, 40, 0
13, 226320, Note_on_c, 12, 37, 96
13, 226510, Note_on_c, 12, 37, 0
13, 226560, Note_on_c, 12, 45, 96
13, 226750, Note_on_c, 12, 45, 0
13, 226800, Note_on_c, 12, 45, 96
13, 226990, Note_on_c, 12, 45, 0
13, 227040, Note_on_c, 12, 45, 96
13, 227230, Note_on_c, 12, 45, 0
13, 227280, Note_on_c, 12, 45, 96
13, 227470, Note_on_c, 12, 45, 0
13, 227520, Note_on_c, 12, 45, 96
13, 227710, Note_on_c, 12, 45, 0
13, 227760, Note_on_c, 12, 40, 96
13, 227950, Note_on_c, 12, 40, 0
13, 228000, Note_on_c, 12, 37, 96
13, 228190, Note_on_c, 12, 37, 0
13, 228240, Note_on_c, 12, 33, 96
13, 228430, Note_on_c, 12, 33, 0
13, 228480, Note_on_c, 12, 45, 96
13, 228860, Note_on_c, 12, 45, 0
13, 229440, Note_on_c, 12, 45, 96
13, 229820, Note_on_c, 12, 45, 0
13, 230400, Note_on_c, 12, 33, 96
13, 231160, Note_on_c, 12, 33, 0
13, 232320, Note_on_c, 12, 40, 96
13, 233470, Note_on_c, 12, 40, 0
13, 233760, Note_on_c, 12, 38, 96
13, 233880, Note_on_c, 12, 38, 0
13, 234240, Note_on_c, 12, 37, 96
13, 234360, Note_on_c, 12, 37, 0
13, 234720, Note_on_c, 12, 35, 96
13, 234840, Note_on_c, 12, 35, 0
13, 235200, Note_on_c, 12, 33, 96
13, 235320, Note_on_c, 12, 33, 0
13, 240000, Note_on_c, 12, 42, 96
13, 241150, Note_on_c, 12, 42, 0
13, 241440, Note_on_c, 12, 37, 96
13, 241560, Note_on_c, 12, 37, 0
13, 241920, Note_on_c, 12, 38, 96
13, 242040, Note_on_c, 12, 38, 0
13, 242400, Note_on_c, 12, 35, 96
13, 242520, Note_on_c, 12, 35, 0
13, 242880, Note_on_c, 12, 33, 96
13, 243000, Note_on_c, 12, 33, 0
13, 247680, Note_on_c, 12, 43, 96
13, 248830, Note_on_c, 12, 43, 0
13, 249120, Note_on_c, 12, 42, 64
13, 249240, Note_on_c, 12, 42, 0
13, 249600, Note_on_c, 12, 40, 64
13, 249720, Note_on_c, 12, 40, 0
13, 250080, Note_on_c, 12, 38, 64
13, 250200, Note_on_c, 12, 38, 0
13, 250560, Note_on_c, 12, 37, 64
13, 250680, Note_on_c, 12, 37, 0
13, 251520, Note_on_c, 12, 40, 96
13, 252670, Note_on_c, 12, 40, 0
13, 252960, Note_on_c, 12, 38, 64
13, 253080, Note_on_c, 12, 38, 0
13, 253440, Note_on_c, 12, 37, 64
13, 253560, Note_on_c, 12, 37, 0
13, 253920, Note_on_c, 12, 35, 64
13, 254040, Note_on_c, 12, 35, 0
13, 254400, Note_on_c, 12, 34, 64
13, 254520, Note_on_c, 12, 34, 0
13, 255360, Note_on_c, 12, 47, 64
13, 255740, Note_on_c, 12, 47, 0
13, 256320, Note_on_c, 12, 42, 64
13, 256700, Note_on_c, 12, 42, 0
13, 257280, Note_on_c, 12, 39, 64
13, 257660, Note_on_c, 12, 39, 0
13, 258240, Note_on_c, 12, 35, 64
13, 258620, Note_on_c, 12, 35, 0
13, 259200, Note_on_c, 12, 52, 64
13, 259580, Note_on_c, 12, 52, 0
13, 260160, Note_on_c, 12, 47, 64
13, 260540, Note_on_c, 12, 47, 0
13, 261120, Note_on_c, 12, 44, 64
13, 261500, Note_on_c, 12, 44, 0
13, 262080, Note_on_c, 12, 40, 64
13, 262460, Note_on_c, 12, 40, 0
13, 263040, Note_on_c, 12, 45, 64
13, 263420, Note_on_c, 12, 45, 0
13, 264000, Note_on_c, 12, 40, 64
13, 264380, Note_on_c, 12, 40, 0
13, 264960, Note_on_c, 12, 37, 64
13, 265340, Note_on_c, 12, 37, 0
13, 265920, Note_on_c, 12, 33, 64
13, 266300, Note_on_c, 12, 33, 0
13, 266880, Note_on_c, 12, 50, 64
13, 267260, Note_on_c, 12, 50, 0
13, 267840, Note_on_c, 12, 45, 64
13, 268220, Note_on_c, 12, 45, 0
13, 268800, Note_on_c, 12, 42, 64
13, 269180, Note_on_c, 12, 42, 0
13, 269760, Note_on_c, 12, 38, 64
13, 270140, Note_on_c, 12, 38, 0
13, 270720, Note_on_c, 12, 31, 64
13, 271100, Note_on_c, 12, 31, 0
13, 289920, Note_on_c, 12, 41, 64
13, 297980, Note_on_c, 12, 41, 0
13, 298080, Note_on_c, 12, 41, 64
13, 298460, Note_on_c, 12, 41, 0
13, 298560, Note_on_c, 12, 41, 64
13, 298940, Note_on_c, 12, 41, 0
13, 299040, Note_on_c, 12, 41, 64
13, 299420, Note_on_c, 12, 41, 0
13, 299520, Note_on_c, 12, 41, 64
13, 299900, Note_on_c, 12, 41, 0
13, 301440, Note_on_c, 12, 41, 96
13, 301800, Note_on_c, 12, 41, 0
13, 302880, Note_on_c, 12, 39, 96
13, 303000, Note_on_c, 12, 39, 0
13, 303360, Note_on_c, 12, 38, 96
13, 303480, Note_on_c, 12, 38, 0
13, 303840, Note_on_c, 12, 36, 96
13, 303960, Note_on_c, 12, 36, 0
13, 304320, Note_on_c, 12, 34, 96
13, 304440, Note_on_c, 12, 34, 0
13, 309120, Note_on_c, 12, 48, 96
13, 310270, Note_on_c, 12, 48, 0
13, 310560, Note_on_c, 12, 46, 96
13, 310680, Note_on_c, 12, 46, 0
13, 311040, Note_on_c, 12, 45, 96
13, 311160, Note_on_c, 12, 45, 0
13, 311520, Note_on_c, 12, 43, 96
13, 311640, Note_on_c, 12, 43, 0
13, 312000, Note_on_c, 12, 42, 96
13, 312120, Note_on_c, 12, 42, 0
13, 316800, Note_on_c, 12, 38, 96
13, 317950, Note_on_c, 12, 38, 0
13, 318240, Note_on_c, 12, 36, 96
13, 318360, Note_on_c, 12, 36, 0
13, 318720, Note_on_c, 12, 34, 96
13, 318840, Note_on_c, 12, 34, 0
13, 319200, Note_on_c, 12, 33, 96
13, 319320, Note_on_c, 12, 33, 0
13, 319680, Note_on_c, 12, 31, 96
13, 319800, Note_on_c, 12, 31, 0
13, 324480, Note_on_c, 12, 43, 96
13, 325630, Note_on_c, 12, 43, 0
13, 325920, Note_on_c, 12, 41, 96
13, 326040, Note_on_c, 12, 41, 0
13, 326400, Note_on_c, 12, 40, 96
13, 326520, Note_on_c, 12, 40, 0
13, 326880, Note_on_c, 12, 38, 96
13, 327000, Note_on_c, 12, 38, 0
13, 327360, Note_on_c, 12, 37, 96
13, 327480, Note_on_c, 12, 37, 0
13, 332160, Note_on_c, 12, 45, 96
13, 333310, Note_on_c, 12, 45, 0
13, 333600, Note_on_c, 12, 43, 96
13, 333720, Note_on_c, 12, 43, 0
13, 334080, Note_on_c, 12, 41, 96
13, 334200, Note_on_c, 12, 41, 0
13, 334560, Note_on_c, 12, 40, 96
13, 334680, Note_on_c, 12, 40, 0
13, 335040, Note_on_c, 12, 38, 96
13, 335160, Note_on_c, 12, 38, 0
13, 339840, Note_on_c, 12, 38, 96
13, 340990, Note_on_c, 12, 38, 0
13, 341280, Note_on_c, 12, 36, 96
13, 341400, Note_on_c, 12, 36, 0
13, 341760, Note_on_c, 12, 35, 96
13, 341880, Note_on_c, 12, 35, 0
13, 342240, Note_on_c, 12, 33, 96
13, 342360, Note_on_c, 12, 33, 0
13, 342720, Note_on_c, 12, 32, 96
13, 342840, Note_on_c, 12, 32, 0
13, 355200, Note_on_c, 12, 45, 96
13, 355580, Note_on_c, 12, 45, 0
13, 357120, Note_on_c, 12, 45, 96
13, 357500, Note_on_c, 12, 45, 0
13, 359040, Note_on_c, 12, 45, 96
13, 359420, Note_on_c, 12, 45, 0
13, 360960, Note_on_c, 12, 45, 96
13, 361340, Note_on_c, 12, 45, 0
13, 362880, Note_on_c, 12, 45, 96
13, 363070, Note_on_c, 12, 45, 0
13, 363120, Note_on_c, 12, 45, 96
13, 363310, Note_on_c, 12, 45, 0
13, 363360, Note_on_c, 12, 45, 96
13, 363550, Note_on_c, 12, 45, 0
13, 363600, Note_on_c, 12, 45, 96
13, 363790, Note_on_c, 12, 45, 0
13, 363840, Note_on_c, 12, 45, 96
13, 364030, Note_on_c, 12, 45, 0
13, 364080, Note_on_c, 12, 45, 96
13, 364270, Note_on_c, 12, 45, 0
13, 364320, Note_on_c, 12, 45, 96
13, 364510, Note_on_c, 12, 45, 0
13, 364560, Note_on_c, 12, 45, 96
13, 364750, Note_on_c, 12, 45, 0
13, 364800, Note_on_c, 12, 45, 96
13, 364990, Note_on_c, 12, 45, 0
13, 365040, Note_on_c, 12, 45, 96
13, 365230, Note_on_c, 12, 45, 0
13, 365280, Note_on_c, 12, 45, 96
13, 365470, Note_on_c, 12, 45, 0
13, 365520, Note_on_c, 12, 45, 96
13, 365710, Note_on_c, 12, 45, 0
13, 365760, Note_on_c, 12, 45, 96
13, 365950, Note_on_c, 12, 45, 0
13, 366000, Note_on_c, 12, 45, 96
13, 366190, Note_on_c, 12, 45, 0
13, 366240, Note_on_c, 12, 45, 96
13, 366430, Note_on_c, 12, 45, 0
13, 366480, Note_on_c, 12, 45, 96
13, 366670, Note_on_c, 12, 45, 0
13, 366720, Note_on_c, 12, 45, 96
13, 367100, Note_on_c, 12, 45, 0
13, 401280, Note_on_c, 12, 38, 96
13, 401340, Note_on_c, 12, 38, 0
13, 401520, Note_on_c, 12, 42, 96
13, 401580, Note_on_c, 12, 42, 0
13, 401760, Note_on_c, 12, 33, 96
13, 401820, Note_on_c, 12, 33, 0
13, 402000, Note_on_c, 12, 37, 96
13, 402060, Note_on_c, 12, 37, 0
13, 402240, Note_on_c, 12, 38, 96
13, 402300, Note_on_c, 12, 38, 0
13, 402480, Note_on_c, 12, 42, 96
13, 402540, Note_on_c, 12, 42, 0
13, 402720, Note_on_c, 12, 43, 96
13, 402780, Note_on_c, 12, 43, 0
13, 402960, Note_on_c, 12, 40, 96
13, 403020, Note_on_c, 12, 40, 0
13, 403200, Note_on_c, 12, 38, 96
13, 403260, Note_on_c, 12, 38, 0
13, 403440, Note_on_c, 12, 42, 96
13, 403630, Note_on_c, 12, 42, 0
13, 403680, Note_on_c, 12, 33, 96
13, 403740, Note_on_c, 12, 33, 0
13, 403920, Note_on_c, 12, 37, 96
13, 403980, Note_on_c, 12, 37, 0
13, 404160, Note_on_c, 12, 38, 96
13, 404220, Note_on_c, 12, 38, 0
13, 404400, Note_on_c, 12, 42, 96
13, 404460, Note_on_c, 12, 42, 0
13, 404640, Note_on_c, 12, 43, 96
13, 404700, Note_on_c, 12, 43, 0
13, 404880, Note_on_c, 12, 40, 96
13, 404940, Note_on_c, 12, 40, 0
13, 405120, Note_on_c, 12, 38, 96
13, 405360, Note_on_c, 12, 38, 0
13, 405360, Note_on_c, 12, 33, 96
13, 405550, Note_on_c, 12, 33, 0
13, 405600, Note_on_c, 12, 42, 96
13, 405660, Note_on_c, 12, 42, 0
13, 405840, Note_on_c, 12, 42, 96
13, 405900, Note_on_c, 12, 42, 0
13, 406080, Note_on_c, 12, 42, 96
13, 406320, Note_on_c, 12, 42, 0
13, 406320, Note_on_c, 12, 38, 96
13, 406510, Note_on_c, 12, 38, 0
13, 406560, Note_on_c, 12, 45, 96
13, 406620, Note_on_c, 12, 45, 0
13, 406800, Note_on_c, 12, 45, 96
13, 406860, Note_on_c, 12, 45, 0
13, 407040, Note_on_c, 12, 45, 96
13, 407280, Note_on_c, 12, 45, 0
13, 407280, Note_on_c, 12, 42, 96
13, 407470, Note_on_c, 12, 42, 0
13, 407520, Note_on_c, 12, 50, 96
13, 407580, Note_on_c, 12, 50, 0
13, 407760, Note_on_c, 12, 50, 96
13, 407820, Note_on_c, 12, 50, 0
13, 408000, Note_on_c, 12, 50, 96
13, 408190, Note_on_c, 12, 50, 0
13, 408240, Note_on_c, 12, 45, 96
13, 408430, Note_on_c, 12, 45, 0
13, 408480, Note_on_c, 12, 42, 96
13, 408670, Note_on_c, 12, 42, 0
13, 408720, Note_on_c, 12, 38, 96
13, 408910, Note_on_c, 12, 38, 0
13, 408960, Note_on_c, 12, 45, 96
13, 409150, Note_on_c, 12, 45, 0
13, 409200, Note_on_c, 12, 45, 96
13, 409390, Note_on_c, 12, 45, 0
13, 409440, Note_on_c, 12, 45, 96
13, 409630, Note_on_c, 12, 45, 0
13, 409680, Note_on_c, 12, 45, 96
13, 409870, Note_on_c, 12, 45, 0
13, 409920, Note_on_c, 12, 45, 96
13, 410110, Note_on_c, 12, 45, 0
13, 410160, Note_on_c, 12, 45, 96
13, 410350, Note_on_c, 12, 45, 0
13, 410400, Note_on_c, 12, 45, 96
13, 410590, Note_on_c, 12, 45, 0
13, 410640, Note_on_c, 12, 45, 96
13, 410830, Note_on_c, 12, 45, 0
13, 410880, Note_on_c, 12, 45, 96
13, 411070, Note_on_c, 12, 45, 0
13, 411120, Note_on_c, 12, 45, 96
13, 411310, Note_on_c, 12, 45, 0
13, 411360, Note_on_c, 12, 45, 96
13, 411550, Note_on_c, 12, 45, 0
13, 411600, Note_on_c, 12, 45, 96
13, 411790, Note_on_c, 12, 45, 0
13, 411840, Note_on_c, 12, 45, 96
13, 412030, Note_on_c, 12, 45, 0
13, 412080, Note_on_c, 12, 45, 96
13, 412270, Note_on_c, 12, 45, 0
13, 412320, Note_on_c, 12, 45, 96
13, 412510, Note_on_c, 12, 45, 0
13, 412560, Note_on_c, 12, 45, 96
13, 412750, Note_on_c, 12, 45, 0
13, 412800, Note_on_c, 12, 45, 96
13, 412990, Note_on_c, 12, 45, 0
13, 413040, Note_on_c, 12, 45, 96
13, 413230, Note_on_c, 12, 45, 0
13, 413280, Note_on_c, 12, 45, 96
13, 413470, Note_on_c, 12, 45, 0
13, 413520, Note_on_c, 12, 45, 96
13, 413710, Note_on_c, 12, 45, 0
13, 413760, Note_on_c, 12, 45, 96
13, 413950, Note_on_c, 12, 45, 0
13, 414000, Note_on_c, 12, 45, 96
13, 414190, Note_on_c, 12, 45, 0
13, 414240, Note_on_c, 12, 45, 96
13, 414430, Note_on_c, 12, 45, 0
13, 414480, Note_on_c, 12, 45, 96
13, 414670, Note_on_c, 12, 45, 0
13, 414720, Note_on_c, 12, 45, 96
13, 415100, Note_on_c, 12, 45, 0
13, 415200, Note_on_c, 12, 33, 96
13, 415390, Note_on_c, 12, 33, 0
13, 415440, Note_on_c, 12, 33, 96
13, 415630, Note_on_c, 12, 33, 0
13, 415680, Note_on_c, 12, 33, 96
13, 416060, Note_on_c, 12, 33, 0
13, 416640, Note_on_c, 12, 38, 96
13, 416830, Note_on_c, 12, 38, 0
13, 416880, Note_on_c, 12, 50, 96
13, 417070, Note_on_c, 12, 50, 0
13, 417120, Note_on_c, 12, 50, 96
13, 417310, Note_on_c, 12, 50, 0
13, 417360, Note_on_c, 12, 50, 96
13, 417550, Note_on_c, 12, 50, 0
13, 417600, Note_on_c, 12, 50, 96
13, 417980, Note_on_c, 12, 50, 0
13, 420480, Note_on_c, 12, 40, 96
13, 420670, Note_on_c, 12, 40, 0
13, 420720, Note_on_c, 12, 52, 96
13, 420910, Note_on_c, 12, 52, 0
13, 420960, Note_on_c, 12, 52, 96
13, 421150, Note_on_c, 12, 52, 0
13, 421200, Note_on_c, 12, 52, 96
13, 421390, Note_on_c, 12, 52, 0
13, 421440, Note_on_c, 12, 52, 96
13, 421820, Note_on_c, 12, 52, 0
13, 424320, Note_on_c, 12, 33, 96
13, 424510, Note_on_c, 12, 33, 0
13, 424560, Note_on_c, 12, 45, 96
13, 424750, Note_on_c, 12, 45, 0
13, 424800, Note_on_c, 12, 45, 96
13, 424990, Note_on_c, 12, 45, 0
13, 425040, Note_on_c, 12, 45, 96
13, 425230, Note_on_c, 12, 45, 0
13, 425280, Note_on_c, 12, 45, 96
13, 425660, Note_on_c, 12, 45, 0
13, 437760, Note_on_c, 12, 43, 96
13, 437950, Note_on_c, 12, 43, 0
13, 438000, Note_on_c, 12, 43, 96
13, 438190, Note_on_c, 12, 43, 0
13, 438240, Note_on_c, 12, 43, 96
13, 438430, Note_on_c, 12, 43, 0
13, 438480, Note_on_c, 12, 43, 96
13, 438670, Note_on_c, 12, 43, 0
13, 438720, Note_on_c, 12, 43, 96
13, 438910, Note_on_c, 12, 43, 0
13, 438960, Note_on_c, 12, 43, 96
13, 439150, Note_on_c, 12, 43, 0
13, 439200, Note_on_c, 12, 43, 96
13, 439390, Note_on_c, 12, 43, 0
13, 439440, Note_on_c, 12, 43, 96
13, 439630, Note_on_c, 12, 43, 0
13, 439680, Note_on_c, 12, 41, 96
13, 439870, Note_on_c, 12, 41, 0
13, 439920, Note_on_c, 12, 41, 96
13, 440110, Note_on_c, 12, 41, 0
13, 440160, Note_on_c, 12, 41, 96
13, 440350, Note_on_c, 12, 41, 0
13, 440400, Note_on_c, 12, 41, 96
13, 440590, Note_on_c, 12, 41, 0
13, 440640, Note_on_c, 12, 41, 96
13, 440830, Note_on_c, 12, 41, 0
13, 440880, Note_on_c, 12, 41, 96
13, 441070, Note_on_c, 12, 41, 0
13, 441120, Note_on_c, 12, 41, 96
13, 441310, Note_on_c, 12, 41, 0
13, 441360, Note_on_c, 12, 41, 96
13, 441550, Note_on_c, 12, 41, 0
13, 441600, Note_on_c, 12, 43, 96
13, 441790, Note_on_c, 12, 43, 0
13, 441840, Note_on_c, 12, 43, 96
13, 442030, Note_on_c, 12, 43, 0
13, 442080, Note_on_c, 12, 43, 96
13, 442270, Note_on_c, 12, 43, 0
13, 442320, Note_on_c, 12, 43, 96
13, 442510, Note_on_c, 12, 43, 0
13, 442560, Note_on_c, 12, 43, 96
13, 442750, Note_on_c, 12, 43, 0
13, 442800, Note_on_c, 12, 43, 96
13, 442990, Note_on_c, 12, 43, 0
13, 443040, Note_on_c, 12, 43, 96
13, 443230, Note_on_c, 12, 43, 0
13, 443280, Note_on_c, 12, 43, 96
13, 443470, Note_on_c, 12, 43, 0
13, 443520, Note_on_c, 12, 41, 96
13, 443710, Note_on_c, 12, 41, 0
13, 443760, Note_on_c, 12, 41, 96
13, 443950, Note_on_c, 12, 41, 0
13, 444000, Note_on_c, 12, 41, 96
13, 444190, Note_on_c, 12, 41, 0
13, 444240, Note_on_c, 12, 41, 96
13, 444430, Note_on_c, 12, 41, 0
13, 444480, Note_on_c, 12, 41, 96
13, 444670, Note_on_c, 12, 41, 0
13, 444720, Note_on_c, 12, 41, 96
13, 444910, Note_on_c, 12, 41, 0
13, 444960, Note_on_c, 12, 41, 96
13, 445150, Note_on_c, 12, 41, 0
13, 445200, Note_on_c, 12, 41, 96
13, 445390, Note_on_c, 12, 41, 0
13, 445440, Note_on_c, 12, 43, 96
13, 445630, Note_on_c, 12, 43, 0
13, 445680, Note_on_c, 12, 43, 96
13, 445870, Note_on_c, 12, 43, 0
13, 445920, Note_on_c, 12, 43, 96
13, 446110, Note_on_c, 12, 43, 0
13, 446160, Note_on_c, 12, 43, 96
13, 446350, Note_on_c, 12, 43, 0
13, 446400, Note_on_c, 12, 43, 96
13, 446590, Note_on_c, 12, 43, 0
13, 446640, Note_on_c, 12, 43, 96
13, 446830, Note_on_c, 12, 43, 0
13, 446880, Note_on_c, 12, 43, 96
13, 447070, Note_on_c, 12, 43, 0
13, 447120, Note_on_c, 12, 43, 96
13, 447310, Note_on_c, 12, 43, 0
13, 447360, Note_on_c, 12, 44, 96
13, 447550, Note_on_c, 12, 44, 0
13, 447600, Note_on_c, 12, 44, 96
13, 447790, Note_on_c, 12, 44, 0
13, 447840, Note_on_c, 12, 44, 96
13, 448030, Note_on_c, 12, 44, 0
13, 448080, Note_on_c, 12, 44, 96
13, 448270, Note_on_c, 12, 44, 0
13, 448320, Note_on_c, 12, 44, 96
13, 448510, Note_on_c, 12, 44, 0
13, 448560, Note_on_c, 12, 44, 96
13, 448750, Note_on_c, 12, 44, 0
13, 448800, Note_on_c, 12, 44, 96
13, 448990, Note_on_c, 12, 44, 0
13, 449040, Note_on_c, 12, 44, 96
13, 449230, Note_on_c, 12, 44, 0
13, 449280, Note_on_c, 12, 45, 96
13, 449470, Note_on_c, 12, 45, 0
13, 449520, Note_on_c, 12, 45, 96
13, 449710, Note_on_c, 12, 45, 0
13, 449760, Note_on_c, 12, 45, 96
13, 449950, Note_on_c, 12, 45, 0
13, 450000, Note_on_c, 12, 45, 96
13, 450190, Note_on_c, 12, 45, 0
13, 450240, Note_on_c, 12, 45, 96
13, 450430, Note_on_c, 12, 45, 0
13, 450480, Note_on_c, 12, 45, 96
13, 450670, Note_on_c, 12, 45, 0
13, 450720, Note_on_c, 12, 45, 96
13, 450910, Note_on_c, 12, 45, 0
13, 450960, Note_on_c, 12, 45, 96
13, 451150, Note_on_c, 12, 45, 0
13, 451200, Note_on_c, 12, 45, 96
13, 451390, Note_on_c, 12, 45, 0
13, 451440, Note_on_c, 12, 45, 96
13, 451630, Note_on_c, 12, 45, 0
13, 451680, Note_on_c, 12, 45, 96
13, 451870, Note_on_c, 12, 45, 0
13, 451920, Note_on_c, 12, 45, 96
13, 452110, Note_on_c, 12, 45, 0
13, 452160, Note_on_c, 12, 45, 96
13, 452350, Note_on_c, 12, 45, 0
13, 452400, Note_on_c, 12, 45, 96
13, 452590, Note_on_c, 12, 45, 0
13, 452640, Note_on_c, 12, 45, 96
13, 452830, Note_on_c, 12, 45, 0
13, 452880, Note_on_c, 12, 45, 96
13, 453070, Note_on_c, 12, 45, 0
13, 453120, Note_on_c, 12, 45, 96
13, 453500, Note_on_c, 12, 45, 0
13, 454080, Note_on_c, 12, 33, 96
13, 454460, Note_on_c, 12, 33, 0
13, 454560, Note_on_c, 12, 33, 96
13, 454940, Note_on_c, 12, 33, 0
13, 455040, Note_on_c, 12, 33, 96
13, 455800, Note_on_c, 12, 33, 0
13, 456960, Note_on_c, 12, 43, 127
13, 458110, Note_on_c, 12, 43, 0
13, 458400, Note_on_c, 12, 42, 96
13, 458520, Note_on_c, 12, 42, 0
13, 458880, Note_on_c, 12, 40, 96
13, 459000, Note_on_c, 12, 40, 0
13, 459360, Note_on_c, 12, 38, 96
13, 459480, Note_on_c, 12, 38, 0
13, 459840, Note_on_c, 12, 37, 96
13, 459960, Note_on_c, 12, 37, 0
13, 464640, Note_on_c, 12, 43, 127
13, 465790, Note_on_c, 12, 43, 0
13, 466080, Note_on_c, 12, 42, 96
13, 466200, Note_on_c, 12, 42, 0
13, 466560, Note_on_c, 12, 40, 96
13, 466680, Note_on_c, 12, 40, 0
13, 467040, Note_on_c, 12, 38, 96
13, 467160, Note_on_c, 12, 38, 0
13, 467520, Note_on_c, 12, 37, 96
13, 467640, Note_on_c, 12, 37, 0
13, 472320, Note_on_c, 12, 43, 96
13, 473470, Note_on_c, 12, 43, 0
13, 473760, Note_on_c, 12, 42, 64
13, 473880, Note_on_c, 12, 42, 0
13, 474240, Note_on_c, 12, 40, 64
13, 474360, Note_on_c, 12, 40, 0
13, 474720, Note_on_c, 12, 38, 64
13, 474840, Note_on_c, 12, 38, 0
13, 475200, Note_on_c, 12, 37, 64
13, 475320, Note_on_c, 12, 37, 0
13, 476160, Note_on_c, 12, 43, 96
13, 477310, Note_on_c, 12, 43, 0
13, 477600, Note_on_c, 12, 41, 64
13, 477720, Note_on_c, 12, 41, 0
13, 478080, Note_on_c, 12, 40, 64
13, 478200, Note_on_c, 12, 40, 0
13, 478560, Note_on_c, 12, 38, 64
13, 478680, Note_on_c, 12, 38, 0
13, 479040, Note_on_c, 12, 37, 64
13, 479160, Note_on_c, 12, 37, 0
13, 480000, Note_on_c, 12, 43, 96
13, 481150, Note_on_c, 12, 43, 0
13, 481440, Note_on_c, 12, 41, 64
13, 481560, Note_on_c, 12, 41, 0
13, 481920, Note_on_c, 12, 43, 96
13, 483070, Note_on_c, 12, 43, 0
13, 483360, Note_on_c, 12, 42, 64
13, 483480, Note_on_c, 12, 42, 0
13, 483840, Note_on_c, 12, 36, 64
13, 491130, Note_on_c, 12, 36, 0
13, 491520, Note_on_c, 12, 33, 64
13, 493440, Note_on_c, 12, 33, 0
13, 493440, Note_on_c, 12, 34, 64
13, 494970, Note_on_c, 12, 34, 0
13, 495360, Note_on_c, 12, 33, 64
13, 495740, Note_on_c, 12, 33, 0
13, 497280, Note_on_c, 12, 33, 64
13, 497660, Note_on_c, 12, 33, 0
13, 499200, Note_on_c, 12, 38, 96
13, 499390, Note_on_c, 12, 38, 0
13, 499440, Note_on_c, 12, 38, 96
13, 499630, Note_on_c, 12, 38, 0
13, 499680, Note_on_c, 12, 38, 96
13, 499870, Note_on_c, 12, 38, 0
13, 499920, Note_on_c, 12, 38, 96
13, 500110, Note_on_c, 12, 38, 0
13, 500160, Note_on_c, 12, 38, 96
13, 500350, Note_on_c, 12, 38, 0
13, 500400, Note_on_c, 12, 38, 96
13, 500590, Note_on_c, 12, 38, 0
13, 500640, Note_on_c, 12, 38, 96
13, 500830, Note_on_c, 12, 38, 0
13, 500880, Note_on_c, 12, 38, 96
13, 501070, Note_on_c, 12, 38, 0
13, 501120, Note_on_c, 12, 50, 96
13, 501310, Note_on_c, 12, 50, 0
13, 501360, Note_on_c, 12, 50, 96
13, 501550, Note_on_c, 12, 50, 0
13, 501600, Note_on_c, 12, 50, 96
13, 501790, Note_on_c, 12, 50, 0
13, 501840, Note_on_c, 12, 50, 96
13, 502030, Note_on_c, 12, 50, 0
13, 502080, Note_on_c, 12, 50, 96
13, 502270, Note_on_c, 12, 50, 0
13, 502320, Note_on_c, 12, 50, 96
13, 502510, Note_on_c, 12, 50, 0
13, 502560, Note_on_c, 12, 50, 96
13, 502750, Note_on_c, 12, 50, 0
13, 502800, Note_on_c, 12, 50, 96
13, 502990, Note_on_c, 12, 50, 0
13, 503040, Note_on_c, 12, 43, 96
13, 503230, Note_on_c, 12, 43, 0
13, 503280, Note_on_c, 12, 43, 96
13, 503470, Note_on_c, 12, 43, 0
13, 503520, Note_on_c, 12, 43, 96
13, 503710, Note_on_c, 12, 43, 0
13, 503760, Note_on_c, 12, 43, 96
13, 503950, Note_on_c, 12, 43, 0
13, 504000, Note_on_c, 12, 43, 96
13, 504190, Note_on_c, 12, 43, 0
13, 504240, Note_on_c, 12, 43, 96
13, 504430, Note_on_c, 12, 43, 0
13, 504480, Note_on_c, 12, 43, 96
13, 504670, Note_on_c, 12, 43, 0
13, 504720, Note_on_c, 12, 43, 96
13, 504910, Note_on_c, 12, 43, 0
13, 504960, Note_on_c, 12, 43, 96
13, 505150, Note_on_c, 12, 43, 0
13, 505200, Note_on_c, 12, 43, 96
13, 505390, Note_on_c, 12, 43, 0
13, 505440, Note_on_c, 12, 43, 96
13, 505630, Note_on_c, 12, 43, 0
13, 505680, Note_on_c, 12, 43, 96
13, 505870, Note_on_c, 12, 43, 0
13, 505920, Note_on_c, 12, 43, 96
13, 506110, Note_on_c, 12, 43, 0
13, 506160, Note_on_c, 12, 43, 96
13, 506350, Note_on_c, 12, 43, 0
13, 506400, Note_on_c, 12, 43, 96
13, 506590, Note_on_c, 12, 43, 0
13, 506640, Note_on_c, 12, 43, 96
13, 506830, Note_on_c, 12, 43, 0
13, 506880, Note_on_c, 12, 45, 96
13, 507070, Note_on_c, 12, 45, 0
13, 507120, Note_on_c, 12, 45, 96
13, 507310, Note_on_c, 12, 45, 0
13, 507360, Note_on_c, 12, 45, 96
13, 507550, Note_on_c, 12, 45, 0
13, 507600, Note_on_c, 12, 45, 96
13, 507790, Note_on_c, 12, 45, 0
13, 507840, Note_on_c, 12, 45, 96
13, 508030, Note_on_c, 12, 45, 0
13, 508080, Note_on_c, 12, 45, 96
13, 508270, Note_on_c, 12, 45, 0
13, 508320, Note_on_c, 12, 45, 96
13, 508510, Note_on_c, 12, 45, 0
13, 508560, Note_on_c, 12, 45, 96
13, 508750, Note_on_c, 12, 45, 0
13, 508800, Note_on_c, 12, 33, 96
13, 508990, Note_on_c, 12, 33, 0
13, 509040, Note_on_c, 12, 33, 96
13, 509230, Note_on_c, 12, 33, 0
13, 509280, Note_on_c, 12, 33, 96
13, 509470, Note_on_c, 12, 33, 0
13, 509520, Note_on_c, 12, 33, 96
13, 509710, Note_on_c, 12, 33, 0
13, 509760, Note_on_c, 12, 33, 96
13, 509950, Note_on_c, 12, 33, 0
13, 510000, Note_on_c, 12, 33, 96
13, 510190, Note_on_c, 12, 33, 0
13, 510240, Note_on_c, 12, 33, 96
13, 510430, Note_on_c, 12, 33, 0
13, 510480, Note_on_c, 12, 33, 96
13, 510670, Note_on_c, 12, 33, 0
13, 510720, Note_on_c, 12, 38, 96
13, 510910, Note_on_c, 12, 38, 0
13, 510960, Note_on_c, 12, 38, 96
13, 511150, Note_on_c, 12, 38, 0
13, 511200, Note_on_c, 12, 38, 96
13, 511390, Note_on_c, 12, 38, 0
13, 511440, Note_on_c, 12, 38, 96
13, 511630, Note_on_c, 12, 38, 0
13, 511680, Note_on_c, 12, 38, 96
13, 511870, Note_on_c, 12, 38, 0
13, 511920, Note_on_c, 12, 38, 96
13, 512110, Note_on_c, 12, 38, 0
13, 512160, Note_on_c, 12, 38, 96
13, 512350, Note_on_c, 12, 38, 0
13, 512400, Note_on_c, 12, 38, 96
13, 512590, Note_on_c, 12, 38, 0
13, 512640, Note_on_c, 12, 50, 96
13, 512830, Note_on_c, 12, 50, 0
13, 512880, Note_on_c, 12, 50, 96
13, 513070, Note_on_c, 12, 50, 0
13, 513120, Note_on_c, 12, 50, 96
13, 513310, Note_on_c, 12, 50, 0
13, 513360, Note_on_c, 12, 50, 96
13, 513550, Note_on_c, 12, 50, 0
13, 513600, Note_on_c, 12, 50, 96
13, 513790, Note_on_c, 12, 50, 0
13, 513840, Note_on_c, 12, 50, 96
13, 514030, Note_on_c, 12, 50, 0
13, 514080, Note_on_c, 12, 50, 96
13, 514270, Note_on_c, 12, 50, 0
13, 514320, Note_on_c, 12, 50, 96
13, 514510, Note_on_c, 12, 50, 0
13, 514560, Note_on_c, 12, 43, 96
13, 514750, Note_on_c, 12, 43, 0
13, 514800, Note_on_c, 12, 43, 96
13, 514990, Note_on_c, 12, 43, 0
13, 515040, Note_on_c, 12, 43, 96
13, 515230, Note_on_c, 12, 43, 0
13, 515280, Note_on_c, 12, 43, 96
13, 515470, Note_on_c, 12, 43, 0
13, 515520, Note_on_c, 12, 43, 96
13, 515710, Note_on_c, 12, 43, 0
13, 515760, Note_on_c, 12, 43, 96
13, 515950, Note_on_c, 12, 43, 0
13, 516000, Note_on_c, 12, 43, 96
13, 516190, Note_on_c, 12, 43, 0
13, 516240, Note_on_c, 12, 43, 96
13, 516430, Note_on_c, 12, 43, 0
13, 516480, Note_on_c, 12, 43, 96
13, 516670, Note_on_c, 12, 43, 0
13, 516720, Note_on_c, 12, 43, 96
13, 516910, Note_on_c, 12, 43, 0
13, 516960, Note_on_c, 12, 43, 96
13, 517150, Note_on_c, 12, 43, 0
13, 517200, Note_on_c, 12, 43, 96
13, 517390, Note_on_c, 12, 43, 0
13, 517440, Note_on_c, 12, 43, 96
13, 517630, Note_on_c, 12, 43, 0
13, 517680, Note_on_c, 12, 43, 96
13, 517870, Note_on_c, 12, 43, 0
13, 517920, Note_on_c, 12, 43, 96
13, 518110, Note_on_c, 12, 43, 0
13, 518160, Note_on_c, 12, 43, 96
13, 518350, Note_on_c, 12, 43, 0
13, 518400, Note_on_c, 12, 45, 96
13, 518590, Note_on_c, 12, 45, 0
13, 518640, Note_on_c, 12, 45, 96
13, 518830, Note_on_c, 12, 45, 0
13, 518880, Note_on_c, 12, 45, 96
13, 519070, Note_on_c, 12, 45, 0
13, 519120, Note_on_c, 12, 45, 96
13, 519310, Note_on_c, 12, 45, 0
13, 519360, Note_on_c, 12, 45, 96
13, 519550, Note_on_c, 12, 45, 0
13, 519600, Note_on_c, 12, 45, 96
13, 519790, Note_on_c, 12, 45, 0
13, 519840, Note_on_c, 12, 45, 96
13, 520030, Note_on_c, 12, 45, 0
13, 520080, Note_on_c, 12, 45, 96
13, 520270, Note_on_c, 12, 45, 0
13, 520320, Note_on_c, 12, 33, 96
13, 520510, Note_on_c, 12, 33, 0
13, 520560, Note_on_c, 12, 33, 96
13, 520750, Note_on_c, 12, 33, 0
13, 520800, Note_on_c, 12, 33, 96
13, 520990, Note_on_c, 12, 33, 0
13, 521040, Note_on_c, 12, 33, 96
13, 521230, Note_on_c, 12, 33, 0
13, 521280, Note_on_c, 12, 33, 96
13, 521470, Note_on_c, 12, 33, 0
13, 521520, Note_on_c, 12, 33, 96
13, 521710, Note_on_c, 12, 33, 0
13, 521760, Note_on_c, 12, 33, 96
13, 521950, Note_on_c, 12, 33, 0
13, 522000, Note_on_c, 12, 33, 96
13, 522190, Note_on_c, 12, 33, 0
13, 522240, Note_on_c, 12, 38, 96
13, 522620, Note_on_c, 12, 38, 0
13, 523680, Note_on_c, 12, 33, 96
13, 524060, Note_on_c, 12, 33, 0
13, 524160, Note_on_c, 12, 38, 96
13, 524540, Note_on_c, 12, 38, 0
13, 525600, Note_on_c, 12, 33, 96
13, 525980, Note_on_c, 12, 33, 0
13, 526080, Note_on_c, 12, 38, 96
13, 526270, Note_on_c, 12, 38, 0
13, 526320, Note_on_c, 12, 42, 96
13, 526510, Note_on_c, 12, 42, 0
13, 526560, Note_on_c, 12, 33, 96
13, 526750, Note_on_c, 12, 33, 0
13, 526800, Note_on_c, 12, 37, 96
13, 526990, Note_on_c, 12, 37, 0
13, 527040, Note_on_c, 12, 38, 96
13, 527230, Note_on_c, 12, 38, 0
13, 527280, Note_on_c, 12, 42, 96
13, 527470, Note_on_c, 12, 42, 0
13, 527520, Note_on_c, 12, 43, 96
13, 527710, Note_on_c, 12, 43, 0
13, 527760, Note_on_c, 12, 40, 96
13, 527950, Note_on_c, 12, 40, 0
13, 528000, Note_on_c, 12, 38, 96
13, 528190, Note_on_c, 12, 38, 0
13, 528240, Note_on_c, 12, 42, 96
13, 528430, Note_on_c, 12, 42, 0
13, 528480, Note_on_c, 12, 33, 96
13, 528670, Note_on_c, 12, 33, 0
13, 528720, Note_on_c, 12, 37, 96
13, 528910, Note_on_c, 12, 37, 0
13, 528960, Note_on_c, 12, 38, 96
13, 529150, Note_on_c, 12, 38, 0
13, 529200, Note_on_c, 12, 42, 96
13, 529390, Note_on_c, 12, 42, 0
13, 529440, Note_on_c, 12, 43, 96
13, 529630, Note_on_c, 12, 43, 0
13, 529680, Note_on_c, 12, 40, 96
13, 529870, Note_on_c, 12, 40, 0
13, 529920, Note_on_c, 12, 38, 96
13, 530160, Note_on_c, 12, 38, 0
13, 530160, Note_on_c, 12, 33, 96
13, 530350, Note_on_c, 12, 33, 0
13, 530400, Note_on_c, 12, 42, 96
13, 530460, Note_on_c, 12, 42, 0
13, 530640, Note_on_c, 12, 42, 96
13, 530700, Note_on_c, 12, 42, 0
13, 530880, Note_on_c, 12, 42, 96
13, 531120, Note_on_c, 12, 42, 0
13, 531120, Note_on_c, 12, 38, 96
13, 531310, Note_on_c, 12, 38, 0
13, 531360, Note_on_c, 12, 45, 96
13, 531420, Note_on_c, 12, 45, 0
13, 531600, Note_on_c, 12, 45, 96
13, 531660, Note_on_c, 12, 45, 0
13, 531840, Note_on_c, 12, 45, 96
13, 532080, Note_on_c, 12, 45, 0
13, 532080, Note_on_c, 12, 42, 96
13, 532270, Note_on_c, 12, 42, 0
13, 532320, Note_on_c, 12, 48, 96
13, 532380, Note_on_c, 12, 48, 0
13, 532560, Note_on_c, 12, 48, 96
13, 532620, Note_on_c, 12, 48, 0
13, 532800, Note_on_c, 12, 48, 96
13, 532990, Note_on_c, 12, 48, 0
13, 533040, Note_on_c, 12, 48, 96
13, 533230, Note_on_c, 12, 48, 0
13, 533280, Note_on_c, 12, 48, 96
13, 533470, Note_on_c, 12, 48, 0
13, 533520, Note_on_c, 12, 48, 96
13, 533710, Note_on_c, 12, 48, 0
13, 533760, Note_on_c, 12, 48, 96
13, 534910, Note_on_c, 12, 48, 0
13, 535200, Note_on_c, 12, 47, 96
13, 535320, Note_on_c, 12, 47, 0
13, 535680, Note_on_c, 12, 45, 96
13, 535800, Note_on_c, 12, 45, 0
13, 536160, Note_on_c, 12, 43, 96
13, 536280, Note_on_c, 12, 43, 0
13, 536640, Note_on_c, 12, 42, 96
13, 536760, Note_on_c, 12, 42, 0
13, 537600, Note_on_c, 12, 50, 96
13, 538750, Note_on_c, 12, 50, 0
13, 539040, Note_on_c, 12, 48, 96
13, 539160, Note_on_c, 12, 48, 0
13, 539520, Note_on_c, 12, 47, 96
13, 539640, Note_on_c, 12, 47, 0
13, 540000, Note_on_c, 12, 45, 96
13, 540120, Note_on_c, 12, 45, 0
13, 540480, Note_on_c, 12, 43, 96
13, 540600, Note_on_c, 12, 43, 0
13, 540600, End_track
14, 0, Start_track
14, 0, MIDI_port, 0
14, 0, Title_t, "                                    "
14, 0, End_track
15, 0, Start_track
15, 0, MIDI_port, 0
15, 0, Title_t, "                                    "
15, 0, End_track
16, 0, Start_track
16, 0, MIDI_port, 0
16, 0, Title_t, "                                    "
16, 0, End_track
17, 0, Start_track
17, 0, MIDI_port, 0
17, 0, Title_t, "                                    "
17, 0, End_track
18, 0, Start_track
18, 0, MIDI_port, 0
18, 0, Title_t, "                                    "
18, 0, End_track
0, 0, End_of_file