0, 0, Header, 1, 12, 240
1, 0, Start_track
1, 0, Time_signature, 4, 2, 24, 8
1, 0, Tempo, 659341
1, 0, End_track
2, 0, Start_track
2, 0, Text_t, "Soprano"
2, 0, Program_c, 0, 73
2, 0, Control_c, 0, 7, 127
2, 0, Control_c, 0, 0, 0
2, 0, Control_c, 0, 10, 51
2, 0, Control_c, 0, 91, 125
2, 0, Control_c, 0, 93, 42
2, 0, Note_on_c, 0, 72, 80
2, 190, Note_off_c, 0, 72, 64
2, 240, Note_on_c, 0, 72, 80
2, 430, Note_off_c, 0, 72, 64
2, 480, Note_on_c, 0, 72, 80
2, 527, Note_off_c, 0, 72, 64
2, 540, Note_on_c, 0, 71, 80
2, 587, Note_off_c, 0, 71, 64
2, 600, Note_on_c, 0, 72, 80
2, 695, Note_off_c, 0, 72, 64
2, 720, Note_on_c, 0, 67, 80
2, 815, Note_off_c, 0, 67, 64
2, 960, Note_on_c, 0, 74, 80
2, 1055, Note_off_c, 0, 74, 64
2, 1080, Note_on_c, 0, 76, 80
2, 1175, Note_off_c, 0, 76, 64
2, 1200, Note_on_c, 0, 77, 80
2, 1295, Note_off_c, 0, 77, 64
2, 1320, Note_on_c, 0, 76, 80
2, 1367, Note_off_c, 0, 76, 64
2, 1380, Note_on_c, 0, 74, 80
2, 1427, Note_off_c, 0, 74, 64
2, 1440, Note_on_c, 0, 76, 80
2, 1487, Note_off_c, 0, 76, 64
2, 1500, Note_on_c, 0, 74, 80
2, 1547, Note_off_c, 0, 74, 64
2, 1560, Note_on_c, 0, 72, 80
2, 1655, Note_off_c, 0, 72, 64
2, 1920, Note_on_c, 0, 67, 80
2, 2207, Note_off_c, 0, 67, 64
2, 2280, Note_on_c, 0, 69, 80
2, 2327, Note_off_c, 0, 69, 64
2, 2340, Note_on_c, 0, 67, 80
2, 2387, Note_off_c, 0, 67, 64
2, 2400, Note_on_c, 0, 67, 80
2, 2687, Note_off_c, 0, 67, 64
2, 2760, Note_on_c, 0, 76, 80
2, 2807, Note_off_c, 0, 76, 64
2, 2820, Note_on_c, 0, 72, 80
2, 2867, Note_off_c, 0, 72, 64
2, 2880, Note_on_c, 0, 67, 80
2, 3070, Note_off_c, 0, 67, 64
2, 3120, Note_on_c, 0, 65, 80
2, 3142, Note_off_c, 0, 65, 64
2, 3150, Note_on_c, 0, 67, 80
2, 3172, Note_off_c, 0, 67, 64
2, 3180, Note_on_c, 0, 65, 80
2, 3202, Note_off_c, 0, 65, 64
2, 3210, Note_on_c, 0, 67, 80
2, 3232, Note_off_c, 0, 67, 64
2, 3240, Note_on_c, 0, 65, 80
2, 3287, Note_off_c, 0, 65, 64
2, 3300, Note_on_c, 0, 64, 80
2, 3347, Note_off_c, 0, 64, 64
2, 3360, Note_on_c, 0, 64, 80
2, 3550, Note_off_c, 0, 64, 64
2, 5520, Note_on_c, 0, 72, 80
2, 5615, Note_off_c, 0, 72, 64
2, 5640, Note_on_c, 0, 74, 80
2, 5735, Note_off_c, 0, 74, 64
2, 5760, Note_on_c, 0, 76, 80
2, 5855, Note_off_c, 0, 76, 64
2, 5880, Note_on_c, 0, 72, 80
2, 5927, Note_off_c, 0, 72, 64
2, 5940, Note_on_c, 0, 74, 80
2, 5987, Note_off_c, 0, 74, 64
2, 6000, Note_on_c, 0, 76, 80
2, 6095, Note_off_c, 0, 76, 64
2, 6120, Note_on_c, 0, 78, 80
2, 6215, Note_off_c, 0, 78, 64
2, 6240, Note_on_c, 0, 79, 80
2, 6335, Note_off_c, 0, 79, 64
2, 6360, Note_on_c, 0, 67, 80
2, 6455, Note_off_c, 0, 67, 64
2, 6720, Note_on_c, 0, 72, 80
2, 6910, Note_off_c, 0, 72, 64
2, 6960, Note_on_c, 0, 72, 80
2, 7150, Note_off_c, 0, 72, 64
2, 7200, Note_on_c, 0, 72, 80
2, 7295, Note_off_c, 0, 72, 64
2, 7320, Note_on_c, 0, 72, 80
2, 7367, Note_off_c, 0, 72, 64
2, 7380, Note_on_c, 0, 72, 80
2, 7427, Note_off_c, 0, 72, 64
2, 7440, Note_on_c, 0, 72, 80
2, 7535, Note_off_c, 0, 72, 64
2, 7560, Note_on_c, 0, 72, 80
2, 7607, Note_off_c, 0, 72, 64
2, 7620, Note_on_c, 0, 72, 80
2, 7667, Note_off_c, 0, 72, 64
2, 7680, Note_on_c, 0, 74, 80
2, 8062, Note_off_c, 0, 74, 64
2, 8160, Note_on_c, 0, 72, 80
2, 8350, Note_off_c, 0, 72, 64
2, 8400, Note_on_c, 0, 72, 80
2, 8495, Note_off_c, 0, 72, 64
2, 8520, Note_on_c, 0, 72, 80
2, 8615, Note_off_c, 0, 72, 64
2, 8640, Note_on_c, 0, 72, 80
2, 8830, Note_off_c, 0, 72, 64
2, 8880, Note_on_c, 0, 72, 80
2, 8975, Note_off_c, 0, 72, 64
2, 9000, Note_on_c, 0, 72, 80
2, 9095, Note_off_c, 0, 72, 64
2, 9120, Note_on_c, 0, 71, 80
2, 9310, Note_off_c, 0, 71, 64
2, 9360, Note_on_c, 0, 72, 80
2, 9550, Note_off_c, 0, 72, 64
2, 9600, Note_on_c, 0, 69, 80
2, 9982, Note_off_c, 0, 69, 64
2, 10080, Note_on_c, 0, 67, 80
2, 10270, Note_off_c, 0, 67, 64
2, 10320, Note_on_c, 0, 74, 80
2, 10415, Note_off_c, 0, 74, 64
2, 10440, Note_on_c, 0, 74, 80
2, 10535, Note_off_c, 0, 74, 64
2, 10560, Note_on_c, 0, 76, 80
2, 10655, Note_off_c, 0, 76, 64
2, 10680, Note_on_c, 0, 74, 80
2, 10775, Note_off_c, 0, 74, 64
2, 10800, Note_on_c, 0, 72, 80
2, 10990, Note_off_c, 0, 72, 64
2, 15120, Note_on_c, 0, 74, 80
2, 15215, Note_off_c, 0, 74, 64
2, 15240, Note_on_c, 0, 74, 80
2, 15335, Note_off_c, 0, 74, 64
2, 15360, Note_on_c, 0, 72, 80
2, 15455, Note_off_c, 0, 72, 64
2, 15480, Note_on_c, 0, 76, 80
2, 15527, Note_off_c, 0, 76, 64
2, 15540, Note_on_c, 0, 74, 80
2, 15587, Note_off_c, 0, 74, 64
2, 15600, Note_on_c, 0, 72, 80
2, 15647, Note_off_c, 0, 72, 64
2, 15660, Note_on_c, 0, 71, 80
2, 15707, Note_off_c, 0, 71, 64
2, 15720, Note_on_c, 0, 69, 80
2, 15767, Note_off_c, 0, 69, 64
2, 15780, Note_on_c, 0, 67, 80
2, 15827, Note_off_c, 0, 67, 64
2, 15840, Note_on_c, 0, 66, 80
2, 15935, Note_off_c, 0, 66, 64
2, 15960, Note_on_c, 0, 74, 80
2, 16055, Note_off_c, 0, 74, 64
2, 16560, Note_on_c, 0, 72, 80
2, 16655, Note_off_c, 0, 72, 64
2, 16680, Note_on_c, 0, 72, 80
2, 16775, Note_off_c, 0, 72, 64
2, 17520, Note_on_c, 0, 74, 80
2, 17615, Note_off_c, 0, 74, 64
2, 17640, Note_on_c, 0, 74, 80
2, 17735, Note_off_c, 0, 74, 64
2, 17760, Note_on_c, 0, 74, 80
2, 17950, Note_off_c, 0, 74, 64
2, 18000, Note_on_c, 0, 72, 80
2, 18190, Note_off_c, 0, 72, 64
2, 18240, Note_on_c, 0, 66, 80
2, 18335, Note_off_c, 0, 66, 64
2, 18360, Note_on_c, 0, 66, 80
2, 18455, Note_off_c, 0, 66, 64
2, 18480, Note_on_c, 0, 67, 80
2, 18815, Note_off_c, 0, 67, 64
2, 18840, Note_on_c, 0, 66, 80
2, 18887, Note_off_c, 0, 66, 64
2, 18900, Note_on_c, 0, 64, 80
2, 18947, Note_off_c, 0, 64, 64
2, 18960, Note_on_c, 0, 66, 80
2, 19150, Note_off_c, 0, 66, 64
2, 19200, Note_on_c, 0, 67, 80
2, 19390, Note_off_c, 0, 67, 64
2, 19680, Note_on_c, 0, 74, 80
2, 19967, Note_off_c, 0, 74, 64
2, 20040, Note_on_c, 0, 76, 80
2, 20087, Note_off_c, 0, 76, 64
2, 20100, Note_on_c, 0, 74, 80
2, 20147, Note_off_c, 0, 74, 64
2, 20160, Note_on_c, 0, 74, 80
2, 20447, Note_off_c, 0, 74, 64
2, 20520, Note_on_c, 0, 79, 80
2, 20567, Note_off_c, 0, 79, 64
2, 20580, Note_on_c, 0, 74, 80
2, 20627, Note_off_c, 0, 74, 64
2, 20640, Note_on_c, 0, 74, 80
2, 20830, Note_off_c, 0, 74, 64
2, 20880, Note_on_c, 0, 72, 80
2, 21070, Note_off_c, 0, 72, 64
2, 21120, Note_on_c, 0, 71, 80
2, 21310, Note_off_c, 0, 71, 64
2, 23280, Note_on_c, 0, 72, 80
2, 23375, Note_off_c, 0, 72, 64
2, 23400, Note_on_c, 0, 69, 80
2, 23495, Note_off_c, 0, 69, 64
2, 23520, Note_on_c, 0, 71, 80
2, 23615, Note_off_c, 0, 71, 64
2, 23640, Note_on_c, 0, 74, 80
2, 23735, Note_off_c, 0, 74, 64
2, 23760, Note_on_c, 0, 72, 80
2, 23855, Note_off_c, 0, 72, 64
2, 23880, Note_on_c, 0, 69, 80
2, 23975, Note_off_c, 0, 69, 64
2, 24000, Note_on_c, 0, 71, 80
2, 24095, Note_off_c, 0, 71, 64
2, 24120, Note_on_c, 0, 74, 80
2, 24310, Note_off_c, 0, 74, 64
2, 24360, Note_on_c, 0, 69, 80
2, 24455, Note_off_c, 0, 69, 64
2, 24480, Note_on_c, 0, 68, 80
2, 24575, Note_off_c, 0, 68, 64
2, 24600, Note_on_c, 0, 77, 80
2, 24695, Note_off_c, 0, 77, 64
2, 24720, Note_on_c, 0, 76, 80
2, 24815, Note_off_c, 0, 76, 64
2, 24840, Note_on_c, 0, 74, 80
2, 24935, Note_off_c, 0, 74, 64
2, 24960, Note_on_c, 0, 72, 80
2, 25055, Note_off_c, 0, 72, 64
2, 25080, Note_on_c, 0, 74, 80
2, 25175, Note_off_c, 0, 74, 64
2, 25200, Note_on_c, 0, 76, 80
2, 25535, Note_off_c, 0, 76, 64
2, 25560, Note_on_c, 0, 74, 80
2, 25607, Note_off_c, 0, 74, 64
2, 25620, Note_on_c, 0, 72, 80
2, 25667, Note_off_c, 0, 72, 64
2, 25680, Note_on_c, 0, 74, 80
2, 25870, Note_off_c, 0, 74, 64
2, 25920, Note_on_c, 0, 76, 80
2, 26110, Note_off_c, 0, 76, 64
2, 30000, Note_on_c, 0, 71, 80
2, 30047, Note_off_c, 0, 71, 64
2, 30060, Note_on_c, 0, 72, 80
2, 30107, Note_off_c, 0, 72, 64
2, 30120, Note_on_c, 0, 74, 80
2, 30167, Note_off_c, 0, 74, 64
2, 30180, Note_on_c, 0, 71, 80
2, 30227, Note_off_c, 0, 71, 64
2, 30240, Note_on_c, 0, 76, 80
2, 30527, Note_off_c, 0, 76, 64
2, 30600, Note_on_c, 0, 77, 80
2, 30695, Note_off_c, 0, 77, 64
2, 30720, Note_on_c, 0, 74, 80
2, 31007, Note_off_c, 0, 74, 64
2, 31080, Note_on_c, 0, 76, 80
2, 31175, Note_off_c, 0, 76, 64
2, 31200, Note_on_c, 0, 72, 80
2, 31487, Note_off_c, 0, 72, 64
2, 31560, Note_on_c, 0, 72, 80
2, 31655, Note_off_c, 0, 72, 64
2, 31680, Note_on_c, 0, 71, 80
2, 31775, Note_off_c, 0, 71, 64
2, 31800, Note_on_c, 0, 71, 80
2, 31895, Note_off_c, 0, 71, 64
2, 31920, Note_on_c, 0, 71, 80
2, 32110, Note_off_c, 0, 71, 64
2, 32160, Note_on_c, 0, 69, 80
2, 32350, Note_off_c, 0, 69, 64
2, 36240, Note_on_c, 0, 76, 80
2, 36335, Note_off_c, 0, 76, 64
2, 36360, Note_on_c, 0, 76, 80
2, 36455, Note_off_c, 0, 76, 64
2, 36480, Note_on_c, 0, 76, 80
2, 36670, Note_off_c, 0, 76, 64
2, 36720, Note_on_c, 0, 74, 80
2, 37102, Note_off_c, 0, 74, 64
2, 37200, Note_on_c, 0, 72, 80
2, 37390, Note_off_c, 0, 72, 64
2, 37560, Note_on_c, 0, 72, 80
2, 37775, Note_off_c, 0, 72, 64
2, 37800, Note_on_c, 0, 72, 80
2, 37895, Note_off_c, 0, 72, 64
2, 37920, Note_on_c, 0, 71, 80
2, 38110, Note_off_c, 0, 71, 64
2, 38160, Note_on_c, 0, 72, 80
2, 38350, Note_off_c, 0, 72, 64
2, 38400, Note_on_c, 0, 72, 80
2, 38495, Note_off_c, 0, 72, 64
2, 38520, Note_on_c, 0, 72, 80
2, 38567, Note_off_c, 0, 72, 64
2, 38580, Note_on_c, 0, 74, 80
2, 38627, Note_off_c, 0, 74, 64
2, 38640, Note_on_c, 0, 72, 80
2, 38735, Note_off_c, 0, 72, 64
2, 38760, Note_on_c, 0, 71, 80
2, 38855, Note_off_c, 0, 71, 64
2, 38880, Note_on_c, 0, 72, 80
2, 39070, Note_off_c, 0, 72, 64
2, 40080, Note_on_c, 0, 70, 80
2, 40175, Note_off_c, 0, 70, 64
2, 40200, Note_on_c, 0, 70, 80
2, 40295, Note_off_c, 0, 70, 64
2, 40320, Note_on_c, 0, 70, 80
2, 40510, Note_off_c, 0, 70, 64
2, 40560, Note_on_c, 0, 69, 80
2, 40750, Note_off_c, 0, 69, 64
2, 41040, Note_on_c, 0, 71, 80
2, 41135, Note_off_c, 0, 71, 64
2, 41160, Note_on_c, 0, 71, 80
2, 41255, Note_off_c, 0, 71, 64
2, 41280, Note_on_c, 0, 71, 80
2, 41470, Note_off_c, 0, 71, 64
2, 41520, Note_on_c, 0, 72, 80
2, 41710, Note_off_c, 0, 72, 64
2, 41760, Note_on_c, 0, 72, 80
2, 41855, Note_off_c, 0, 72, 64
2, 41880, Note_on_c, 0, 74, 80
2, 41975, Note_off_c, 0, 74, 64
2, 42000, Note_on_c, 0, 72, 80
2, 42095, Note_off_c, 0, 72, 64
2, 42120, Note_on_c, 0, 71, 80
2, 42215, Note_off_c, 0, 71, 64
2, 42240, Note_on_c, 0, 72, 80
2, 42430, Note_off_c, 0, 72, 64
2, 42960, Note_on_c, 0, 74, 80
2, 43055, Note_off_c, 0, 74, 64
2, 43080, Note_on_c, 0, 71, 80
2, 43175, Note_off_c, 0, 71, 64
2, 43200, Note_on_c, 0, 72, 80
2, 43295, Note_off_c, 0, 72, 64
2, 43320, Note_on_c, 0, 76, 80
2, 43415, Note_off_c, 0, 76, 64
2, 43440, Note_on_c, 0, 74, 80
2, 43630, Note_off_c, 0, 74, 64
2, 43920, Note_on_c, 0, 74, 80
2, 44015, Note_off_c, 0, 74, 64
2, 44040, Note_on_c, 0, 71, 80
2, 44135, Note_off_c, 0, 71, 64
2, 44160, Note_on_c, 0, 72, 80
2, 44255, Note_off_c, 0, 72, 64
2, 44280, Note_on_c, 0, 76, 80
2, 44375, Note_off_c, 0, 76, 64
2, 44520, Note_on_c, 0, 74, 80
2, 44567, Note_off_c, 0, 74, 64
2, 44580, Note_on_c, 0, 74, 80
2, 44627, Note_off_c, 0, 74, 64
2, 44640, Note_on_c, 0, 76, 80
2, 44735, Note_off_c, 0, 76, 64
2, 44760, Note_on_c, 0, 72, 80
2, 44855, Note_off_c, 0, 72, 64
2, 45000, Note_on_c, 0, 74, 80
2, 45047, Note_off_c, 0, 74, 64
2, 45060, Note_on_c, 0, 71, 80
2, 45107, Note_off_c, 0, 71, 64
2, 45120, Note_on_c, 0, 72, 80
2, 45215, Note_off_c, 0, 72, 64
2, 45240, Note_on_c, 0, 72, 80
2, 45335, Note_off_c, 0, 72, 64
2, 46080, Note_on_c, 0, 72, 80
2, 46270, Note_off_c, 0, 72, 64
2, 46320, Note_on_c, 0, 72, 80
2, 46510, Note_off_c, 0, 72, 64
2, 46560, Note_on_c, 0, 72, 80
2, 46607, Note_off_c, 0, 72, 64
2, 46620, Note_on_c, 0, 71, 80
2, 46667, Note_off_c, 0, 71, 64
2, 46680, Note_on_c, 0, 72, 80
2, 46775, Note_off_c, 0, 72, 64
2, 46800, Note_on_c, 0, 67, 80
2, 46895, Note_off_c, 0, 67, 64
2, 47040, Note_on_c, 0, 74, 80
2, 47135, Note_off_c, 0, 74, 64
2, 47160, Note_on_c, 0, 76, 80
2, 47255, Note_off_c, 0, 76, 64
2, 47280, Note_on_c, 0, 77, 80
2, 47375, Note_off_c, 0, 77, 64
2, 47400, Note_on_c, 0, 76, 80
2, 47447, Note_off_c, 0, 76, 64
2, 47460, Note_on_c, 0, 74, 80
2, 47507, Note_off_c, 0, 74, 64
2, 47520, Note_on_c, 0, 76, 80
2, 47567, Note_off_c, 0, 76, 64
2, 47580, Note_on_c, 0, 74, 80
2, 47627, Note_off_c, 0, 74, 64
2, 47640, Note_on_c, 0, 72, 80
2, 47735, Note_off_c, 0, 72, 64
2, 48000, Note_on_c, 0, 67, 80
2, 48287, Note_off_c, 0, 67, 64
2, 48360, Note_on_c, 0, 69, 80
2, 48407, Note_off_c, 0, 69, 64
2, 48420, Note_on_c, 0, 67, 80
2, 48467, Note_off_c, 0, 67, 64
2, 48480, Note_on_c, 0, 67, 80
2, 48767, Note_off_c, 0, 67, 64
2, 48840, Note_on_c, 0, 76, 80
2, 48887, Note_off_c, 0, 76, 64
2, 48900, Note_on_c, 0, 72, 80
2, 48947, Note_off_c, 0, 72, 64
2, 48960, Note_on_c, 0, 67, 80
2, 49150, Note_off_c, 0, 67, 64
2, 49200, Note_on_c, 0, 65, 80
2, 49222, Note_off_c, 0, 65, 64
2, 49230, Note_on_c, 0, 67, 80
2, 49252, Note_off_c, 0, 67, 64
2, 49260, Note_on_c, 0, 65, 80
2, 49282, Note_off_c, 0, 65, 64
2, 49290, Note_on_c, 0, 67, 80
2, 49312, Note_off_c, 0, 67, 64
2, 49320, Note_on_c, 0, 65, 80
2, 49367, Note_off_c, 0, 65, 64
2, 49380, Note_on_c, 0, 64, 80
2, 49427, Note_off_c, 0, 64, 64
2, 49440, Note_on_c, 0, 64, 80
2, 49630, Note_off_c, 0, 64, 64
2, 51600, Note_on_c, 0, 72, 80
2, 51695, Note_off_c, 0, 72, 64
2, 51720, Note_on_c, 0, 74, 80
2, 51815, Note_off_c, 0, 74, 64
2, 51840, Note_on_c, 0, 76, 80
2, 51935, Note_off_c, 0, 76, 64
2, 51960, Note_on_c, 0, 72, 80
2, 52007, Note_off_c, 0, 72, 64
2, 52020, Note_on_c, 0, 74, 80
2, 52067, Note_off_c, 0, 74, 64
2, 52080, Note_on_c, 0, 76, 80
2, 52175, Note_off_c, 0, 76, 64
2, 52200, Note_on_c, 0, 78, 80
2, 52295, Note_off_c, 0, 78, 64
2, 52320, Note_on_c, 0, 79, 80
2, 52415, Note_off_c, 0, 79, 64
2, 52440, Note_on_c, 0, 67, 80
2, 52535, Note_off_c, 0, 67, 64
2, 52800, Note_on_c, 0, 72, 80
2, 52990, Note_off_c, 0, 72, 64
2, 53040, Note_on_c, 0, 72, 80
2, 53230, Note_off_c, 0, 72, 64
2, 53280, Note_on_c, 0, 72, 80
2, 53375, Note_off_c, 0, 72, 64
2, 53400, Note_on_c, 0, 72, 80
2, 53447, Note_off_c, 0, 72, 64
2, 53460, Note_on_c, 0, 72, 80
2, 53507, Note_off_c, 0, 72, 64
2, 53520, Note_on_c, 0, 72, 80
2, 53615, Note_off_c, 0, 72, 64
2, 53640, Note_on_c, 0, 72, 80
2, 53687, Note_off_c, 0, 72, 64
2, 53700, Note_on_c, 0, 72, 80
2, 53747, Note_off_c, 0, 72, 64
2, 53760, Note_on_c, 0, 74, 80
2, 54142, Note_off_c, 0, 74, 64
2, 54240, Note_on_c, 0, 72, 80
2, 54430, Note_off_c, 0, 72, 64
2, 54480, Note_on_c, 0, 72, 80
2, 54575, Note_off_c, 0, 72, 64
2, 54600, Note_on_c, 0, 72, 80
2, 54695, Note_off_c, 0, 72, 64
2, 54720, Note_on_c, 0, 72, 80
2, 54910, Note_off_c, 0, 72, 64
2, 54960, Note_on_c, 0, 72, 80
2, 55055, Note_off_c, 0, 72, 64
2, 55080, Note_on_c, 0, 72, 80
2, 55175, Note_off_c, 0, 72, 64
2, 55200, Note_on_c, 0, 71, 80
2, 55390, Note_off_c, 0, 71, 64
2, 55440, Note_on_c, 0, 72, 80
2, 55630, Note_off_c, 0, 72, 64
2, 55680, Note_on_c, 0, 69, 80
2, 56062, Note_off_c, 0, 69, 64
2, 56160, Note_on_c, 0, 67, 80
2, 56350, Note_off_c, 0, 67, 64
2, 56400, Note_on_c, 0, 74, 80
2, 56495, Note_off_c, 0, 74, 64
2, 56520, Note_on_c, 0, 74, 80
2, 56615, Note_off_c, 0, 74, 64
2, 56640, Note_on_c, 0, 76, 80
2, 56735, Note_off_c, 0, 76, 64
2, 56760, Note_on_c, 0, 74, 80
2, 56855, Note_off_c, 0, 74, 64
2, 56880, Note_on_c, 0, 72, 80
2, 57070, Note_off_c, 0, 72, 64
2, 61200, Note_on_c, 0, 74, 80
2, 61295, Note_off_c, 0, 74, 64
2, 61320, Note_on_c, 0, 74, 80
2, 61415, Note_off_c, 0, 74, 64
2, 61440, Note_on_c, 0, 72, 80
2, 61535, Note_off_c, 0, 72, 64
2, 61560, Note_on_c, 0, 76, 80
2, 61607, Note_off_c, 0, 76, 64
2, 61620, Note_on_c, 0, 74, 80
2, 61667, Note_off_c, 0, 74, 64
2, 61680, Note_on_c, 0, 72, 80
2, 61727, Note_off_c, 0, 72, 64
2, 61740, Note_on_c, 0, 71, 80
2, 61787, Note_off_c, 0, 71, 64
2, 61800, Note_on_c, 0, 69, 80
2, 61847, Note_off_c, 0, 69, 64
2, 61860, Note_on_c, 0, 67, 80
2, 61907, Note_off_c, 0, 67, 64
2, 61920, Note_on_c, 0, 66, 80
2, 62015, Note_off_c, 0, 66, 64
2, 62040, Note_on_c, 0, 74, 80
2, 62135, Note_off_c, 0, 74, 64
2, 62640, Note_on_c, 0, 72, 80
2, 62735, Note_off_c, 0, 72, 64
2, 62760, Note_on_c, 0, 72, 80
2, 62855, Note_off_c, 0, 72, 64
2, 63600, Note_on_c, 0, 74, 80
2, 63695, Note_off_c, 0, 74, 64
2, 63720, Note_on_c, 0, 74, 80
2, 63815, Note_off_c, 0, 74, 64
2, 63840, Note_on_c, 0, 74, 80
2, 64030, Note_off_c, 0, 74, 64
2, 64080, Note_on_c, 0, 72, 80
2, 64270, Note_off_c, 0, 72, 64
2, 64320, Note_on_c, 0, 66, 80
2, 64415, Note_off_c, 0, 66, 64
2, 64440, Note_on_c, 0, 66, 80
2, 64535, Note_off_c, 0, 66, 64
2, 64560, Note_on_c, 0, 67, 80
2, 64895, Note_off_c, 0, 67, 64
2, 64920, Note_on_c, 0, 66, 80
2, 64967, Note_off_c, 0, 66, 64
2, 64980, Note_on_c, 0, 64, 80
2, 65027, Note_off_c, 0, 64, 64
2, 65040, Note_on_c, 0, 66, 80
2, 65230, Note_off_c, 0, 66, 64
2, 65280, Note_on_c, 0, 67, 80
2, 65470, Note_off_c, 0, 67, 64
2, 65760, Note_on_c, 0, 74, 80
2, 66047, Note_off_c, 0, 74, 64
2, 66120, Note_on_c, 0, 76, 80
2, 66167, Note_off_c, 0, 76, 64
2, 66180, Note_on_c, 0, 74, 80
2, 66227, Note_off_c, 0, 74, 64
2, 66240, Note_on_c, 0, 74, 80
2, 66527, Note_off_c, 0, 74, 64
2, 66600, Note_on_c, 0, 79, 80
2, 66647, Note_off_c, 0, 79, 64
2, 66660, Note_on_c, 0, 74, 80
2, 66707, Note_off_c, 0, 74, 64
2, 66720, Note_on_c, 0, 74, 80
2, 66910, Note_off_c, 0, 74, 64
2, 66960, Note_on_c, 0, 72, 80
2, 67150, Note_off_c, 0, 72, 64
2, 67200, Note_on_c, 0, 71, 80
2, 67390, Note_off_c, 0, 71, 64
2, 69360, Note_on_c, 0, 72, 80
2, 69455, Note_off_c, 0, 72, 64
2, 69480, Note_on_c, 0, 69, 80
2, 69575, Note_off_c, 0, 69, 64
2, 69600, Note_on_c, 0, 71, 80
2, 69695, Note_off_c, 0, 71, 64
2, 69720, Note_on_c, 0, 74, 80
2, 69815, Note_off_c, 0, 74, 64
2, 69840, Note_on_c, 0, 72, 80
2, 69935, Note_off_c, 0, 72, 64
2, 69960, Note_on_c, 0, 69, 80
2, 70055, Note_off_c, 0, 69, 64
2, 70080, Note_on_c, 0, 71, 80
2, 70175, Note_off_c, 0, 71, 64
2, 70200, Note_on_c, 0, 74, 80
2, 70390, Note_off_c, 0, 74, 64
2, 70440, Note_on_c, 0, 69, 80
2, 70535, Note_off_c, 0, 69, 64
2, 70560, Note_on_c, 0, 68, 80
2, 70655, Note_off_c, 0, 68, 64
2, 70680, Note_on_c, 0, 77, 80
2, 70775, Note_off_c, 0, 77, 64
2, 70800, Note_on_c, 0, 76, 80
2, 70895, Note_off_c, 0, 76, 64
2, 70920, Note_on_c, 0, 74, 80
2, 71015, Note_off_c, 0, 74, 64
2, 71040, Note_on_c, 0, 72, 80
2, 71135, Note_off_c, 0, 72, 64
2, 71160, Note_on_c, 0, 74, 80
2, 71255, Note_off_c, 0, 74, 64
2, 71280, Note_on_c, 0, 76, 80
2, 71615, Note_off_c, 0, 76, 64
2, 71640, Note_on_c, 0, 74, 80
2, 71687, Note_off_c, 0, 74, 64
2, 71700, Note_on_c, 0, 72, 80
2, 71747, Note_off_c, 0, 72, 64
2, 71760, Note_on_c, 0, 74, 80
2, 71950, Note_off_c, 0, 74, 64
2, 72000, Note_on_c, 0, 76, 80
2, 72190, Note_off_c, 0, 76, 64
2, 76080, Note_on_c, 0, 71, 80
2, 76127, Note_off_c, 0, 71, 64
2, 76140, Note_on_c, 0, 72, 80
2, 76187, Note_off_c, 0, 72, 64
2, 76200, Note_on_c, 0, 74, 80
2, 76247, Note_off_c, 0, 74, 64
2, 76260, Note_on_c, 0, 71, 80
2, 76307, Note_off_c, 0, 71, 64
2, 76320, Note_on_c, 0, 76, 80
2, 76607, Note_off_c, 0, 76, 64
2, 76680, Note_on_c, 0, 77, 80
2, 76775, Note_off_c, 0, 77, 64
2, 76800, Note_on_c, 0, 74, 80
2, 77087, Note_off_c, 0, 74, 64
2, 77160, Note_on_c, 0, 76, 80
2, 77255, Note_off_c, 0, 76, 64
2, 77280, Note_on_c, 0, 72, 80
2, 77567, Note_off_c, 0, 72, 64
2, 77640, Note_on_c, 0, 72, 80
2, 77735, Note_off_c, 0, 72, 64
2, 77760, Note_on_c, 0, 71, 80
2, 77855, Note_off_c, 0, 71, 64
2, 77880, Note_on_c, 0, 71, 80
2, 77975, Note_off_c, 0, 71, 64
2, 78000, Note_on_c, 0, 71, 80
2, 78190, Note_off_c, 0, 71, 64
2, 78240, Note_on_c, 0, 69, 80
2, 78430, Note_off_c, 0, 69, 64
2, 82320, Note_on_c, 0, 76, 80
2, 82415, Note_off_c, 0, 76, 64
2, 82440, Note_on_c, 0, 76, 80
2, 82535, Note_off_c, 0, 76, 64
2, 82560, Note_on_c, 0, 76, 80
2, 82750, Note_off_c, 0, 76, 64
2, 82800, Note_on_c, 0, 74, 80
2, 83182, Note_off_c, 0, 74, 64
2, 83280, Note_on_c, 0, 72, 80
2, 83470, Note_off_c, 0, 72, 64
2, 83640, Note_on_c, 0, 72, 80
2, 83855, Note_off_c, 0, 72, 64
2, 83880, Note_on_c, 0, 72, 80
2, 83975, Note_off_c, 0, 72, 64
2, 84000, Note_on_c, 0, 71, 80
2, 84190, Note_off_c, 0, 71, 64
2, 84240, Note_on_c, 0, 72, 80
2, 84430, Note_off_c, 0, 72, 64
2, 84480, Note_on_c, 0, 72, 80
2, 84575, Note_off_c, 0, 72, 64
2, 84600, Note_on_c, 0, 72, 80
2, 84647, Note_off_c, 0, 72, 64
2, 84660, Note_on_c, 0, 74, 80
2, 84707, Note_off_c, 0, 74, 64
2, 84720, Note_on_c, 0, 72, 80
2, 84815, Note_off_c, 0, 72, 64
2, 84840, Note_on_c, 0, 71, 80
2, 84935, Note_off_c, 0, 71, 64
2, 84960, Note_on_c, 0, 72, 80
2, 85150, Note_off_c, 0, 72, 64
2, 86160, Note_on_c, 0, 70, 80
2, 86255, Note_off_c, 0, 70, 64
2, 86280, Note_on_c, 0, 70, 80
2, 86375, Note_off_c, 0, 70, 64
2, 86400, Note_on_c, 0, 70, 80
2, 86590, Note_off_c, 0, 70, 64
2, 86640, Note_on_c, 0, 69, 80
2, 86830, Note_off_c, 0, 69, 64
2, 87120, Note_on_c, 0, 71, 80
2, 87215, Note_off_c, 0, 71, 64
2, 87240, Note_on_c, 0, 71, 80
2, 87335, Note_off_c, 0, 71, 64
2, 87360, Note_on_c, 0, 71, 80
2, 87550, Note_off_c, 0, 71, 64
2, 87600, Note_on_c, 0, 72, 80
2, 87790, Note_off_c, 0, 72, 64
2, 87840, Note_on_c, 0, 72, 80
2, 87935, Note_off_c, 0, 72, 64
2, 87960, Note_on_c, 0, 74, 80
2, 88055, Note_off_c, 0, 74, 64
2, 88080, Note_on_c, 0, 72, 80
2, 88175, Note_off_c, 0, 72, 64
2, 88200, Note_on_c, 0, 71, 80
2, 88295, Note_off_c, 0, 71, 64
2, 88320, Note_on_c, 0, 72, 80
2, 88510, Note_off_c, 0, 72, 64
2, 89040, Note_on_c, 0, 74, 80
2, 89135, Note_off_c, 0, 74, 64
2, 89160, Note_on_c, 0, 71, 80
2, 89255, Note_off_c, 0, 71, 64
2, 89280, Note_on_c, 0, 72, 80
2, 89375, Note_off_c, 0, 72, 64
2, 89400, Note_on_c, 0, 76, 80
2, 89495, Note_off_c, 0, 76, 64
2, 89520, Note_on_c, 0, 74, 80
2, 89710, Note_off_c, 0, 74, 64
2, 90000, Note_on_c, 0, 74, 80
2, 90095, Note_off_c, 0, 74, 64
2, 90120, Note_on_c, 0, 71, 80
2, 90215, Note_off_c, 0, 71, 64
2, 90240, Note_on_c, 0, 72, 80
2, 90335, Note_off_c, 0, 72, 64
2, 90360, Note_on_c, 0, 76, 80
2, 90455, Note_off_c, 0, 76, 64
2, 90600, Note_on_c, 0, 74, 80
2, 90647, Note_off_c, 0, 74, 64
2, 90660, Note_on_c, 0, 74, 80
2, 90707, Note_off_c, 0, 74, 64
2, 90720, Note_on_c, 0, 76, 80
2, 90815, Note_off_c, 0, 76, 64
2, 90840, Note_on_c, 0, 72, 80
2, 90935, Note_off_c, 0, 72, 64
2, 91080, Note_on_c, 0, 74, 80
2, 91127, Note_off_c, 0, 74, 64
2, 91140, Note_on_c, 0, 71, 80
2, 91187, Note_off_c, 0, 71, 64
2, 91200, Note_on_c, 0, 72, 80
2, 91295, Note_off_c, 0, 72, 64
2, 91320, Note_on_c, 0, 72, 80
2, 91415, Note_off_c, 0, 72, 64
2, 91415, End_track
3, 0, Start_track
3, 0, Text_t, "Alto"
3, 0, Program_c, 1, 68
3, 0, Control_c, 1, 7, 107
3, 0, Control_c, 1, 0, 0
3, 0, Control_c, 1, 10, 47
3, 0, Control_c, 1, 91, 127
3, 0, Control_c, 1, 93, 45
3, 0, Note_on_c, 1, 64, 80
3, 190, Note_off_c, 1, 64, 64
3, 240, Note_on_c, 1, 65, 80
3, 430, Note_off_c, 1, 65, 64
3, 480, Note_on_c, 1, 67, 80
3, 527, Note_off_c, 1, 67, 64
3, 540, Note_on_c, 1, 65, 80
3, 587, Note_off_c, 1, 65, 64
3, 600, Note_on_c, 1, 64, 80
3, 647, Note_off_c, 1, 64, 64
3, 660, Note_on_c, 1, 65, 80
3, 707, Note_off_c, 1, 65, 64
3, 720, Note_on_c, 1, 67, 80
3, 815, Note_off_c, 1, 67, 64
3, 840, Note_on_c, 1, 67, 80
3, 935, Note_off_c, 1, 67, 64
3, 960, Note_on_c, 1, 69, 80
3, 1055, Note_off_c, 1, 69, 64
3, 1080, Note_on_c, 1, 67, 80
3, 1175, Note_off_c, 1, 67, 64
3, 1200, Note_on_c, 1, 65, 80
3, 1295, Note_off_c, 1, 65, 64
3, 1320, Note_on_c, 1, 67, 80
3, 1415, Note_off_c, 1, 67, 64
3, 1440, Note_on_c, 1, 67, 80
3, 1535, Note_off_c, 1, 67, 64
3, 1560, Note_on_c, 1, 67, 80
3, 1655, Note_off_c, 1, 67, 64
3, 1920, Note_on_c, 1, 64, 80
3, 2207, Note_off_c, 1, 64, 64
3, 2280, Note_on_c, 1, 65, 80
3, 2327, Note_off_c, 1, 65, 64
3, 2340, Note_on_c, 1, 64, 80
3, 2387, Note_off_c, 1, 64, 64
3, 2400, Note_on_c, 1, 64, 80
3, 2687, Note_off_c, 1, 64, 64
3, 2760, Note_on_c, 1, 67, 80
3, 2807, Note_off_c, 1, 67, 64
3, 2820, Note_on_c, 1, 64, 80
3, 2867, Note_off_c, 1, 64, 64
3, 2880, Note_on_c, 1, 64, 80
3, 3070, Note_off_c, 1, 64, 64
3, 3120, Note_on_c, 1, 62, 80
3, 3142, Note_off_c, 1, 62, 64
3, 3150, Note_on_c, 1, 64, 80
3, 3172, Note_off_c, 1, 64, 64
3, 3180, Note_on_c, 1, 62, 80
3, 3202, Note_off_c, 1, 62, 64
3, 3210, Note_on_c, 1, 64, 80
3, 3232, Note_off_c, 1, 64, 64
3, 3240, Note_on_c, 1, 62, 80
3, 3287, Note_off_c, 1, 62, 64
3, 3300, Note_on_c, 1, 60, 80
3, 3347, Note_off_c, 1, 60, 64
3, 3360, Note_on_c, 1, 60, 80
3, 3550, Note_off_c, 1, 60, 64
3, 5520, Note_on_c, 1, 67, 80
3, 5615, Note_off_c, 1, 67, 64
3, 5640, Note_on_c, 1, 67, 80
3, 5735, Note_off_c, 1, 67, 64
3, 5760, Note_on_c, 1, 67, 80
3, 5855, Note_off_c, 1, 67, 64
3, 5880, Note_on_c, 1, 67, 80
3, 5975, Note_off_c, 1, 67, 64
3, 6000, Note_on_c, 1, 67, 80
3, 6095, Note_off_c, 1, 67, 64
3, 6120, Note_on_c, 1, 69, 80
3, 6215, Note_off_c, 1, 69, 64
3, 6240, Note_on_c, 1, 62, 80
3, 6335, Note_off_c, 1, 62, 64
3, 6360, Note_on_c, 1, 62, 80
3, 6455, Note_off_c, 1, 62, 64
3, 10320, Note_on_c, 1, 67, 80
3, 10415, Note_off_c, 1, 67, 64
3, 10440, Note_on_c, 1, 67, 80
3, 10535, Note_off_c, 1, 67, 64
3, 10560, Note_on_c, 1, 67, 80
3, 10750, Note_off_c, 1, 67, 64
3, 10800, Note_on_c, 1, 67, 80
3, 10990, Note_off_c, 1, 67, 64
3, 15120, Note_on_c, 1, 67, 80
3, 15215, Note_off_c, 1, 67, 64
3, 15240, Note_on_c, 1, 67, 80
3, 15335, Note_off_c, 1, 67, 64
3, 15360, Note_on_c, 1, 67, 80
3, 15455, Note_off_c, 1, 67, 64
3, 15480, Note_on_c, 1, 67, 80
3, 15575, Note_off_c, 1, 67, 64
3, 15600, Note_on_c, 1, 67, 80
3, 15695, Note_off_c, 1, 67, 64
3, 15720, Note_on_c, 1, 64, 80
3, 15815, Note_off_c, 1, 64, 64
3, 15840, Note_on_c, 1, 62, 80
3, 15935, Note_off_c, 1, 62, 64
3, 15960, Note_on_c, 1, 66, 80
3, 16055, Note_off_c, 1, 66, 64
3, 16560, Note_on_c, 1, 69, 80
3, 16655, Note_off_c, 1, 69, 64
3, 16680, Note_on_c, 1, 69, 80
3, 16775, Note_off_c, 1, 69, 64
3, 16800, Note_on_c, 1, 69, 80
3, 16895, Note_off_c, 1, 69, 64
3, 16920, Note_on_c, 1, 62, 80
3, 17015, Note_off_c, 1, 62, 64
3, 17040, Note_on_c, 1, 67, 80
3, 17135, Note_off_c, 1, 67, 64
3, 17160, Note_on_c, 1, 67, 80
3, 17255, Note_off_c, 1, 67, 64
3, 17280, Note_on_c, 1, 67, 80
3, 17662, Note_off_c, 1, 67, 64
3, 17760, Note_on_c, 1, 67, 80
3, 17950, Note_off_c, 1, 67, 64
3, 18000, Note_on_c, 1, 67, 80
3, 18047, Note_off_c, 1, 67, 64
3, 18060, Note_on_c, 1, 65, 80
3, 18107, Note_off_c, 1, 65, 64
3, 18120, Note_on_c, 1, 64, 80
3, 18167, Note_off_c, 1, 64, 64
3, 18180, Note_on_c, 1, 62, 80
3, 18227, Note_off_c, 1, 62, 64
3, 18240, Note_on_c, 1, 62, 80
3, 18335, Note_off_c, 1, 62, 64
3, 18360, Note_on_c, 1, 62, 80
3, 18455, Note_off_c, 1, 62, 64
3, 18480, Note_on_c, 1, 62, 80
3, 18575, Note_off_c, 1, 62, 64
3, 18600, Note_on_c, 1, 62, 80
3, 18695, Note_off_c, 1, 62, 64
3, 18720, Note_on_c, 1, 62, 80
3, 19102, Note_off_c, 1, 62, 64
3, 19200, Note_on_c, 1, 62, 80
3, 19390, Note_off_c, 1, 62, 64
3, 21600, Note_on_c, 1, 62, 80
3, 21887, Note_off_c, 1, 62, 64
3, 21960, Note_on_c, 1, 64, 80
3, 22007, Note_off_c, 1, 64, 64
3, 22020, Note_on_c, 1, 62, 80
3, 22067, Note_off_c, 1, 62, 64
3, 22080, Note_on_c, 1, 62, 80
3, 22367, Note_off_c, 1, 62, 64
3, 22440, Note_on_c, 1, 67, 80
3, 22487, Note_off_c, 1, 67, 64
3, 22500, Note_on_c, 1, 62, 80
3, 22547, Note_off_c, 1, 62, 64
3, 22560, Note_on_c, 1, 62, 80
3, 22750, Note_off_c, 1, 62, 64
3, 22800, Note_on_c, 1, 60, 80
3, 22990, Note_off_c, 1, 60, 64
3, 23040, Note_on_c, 1, 59, 80
3, 23135, Note_off_c, 1, 59, 64
3, 23160, Note_on_c, 1, 62, 80
3, 23375, Note_off_c, 1, 62, 64
3, 23400, Note_on_c, 1, 62, 80
3, 23495, Note_off_c, 1, 62, 64
3, 23520, Note_on_c, 1, 62, 80
3, 23902, Note_off_c, 1, 62, 64
3, 24000, Note_on_c, 1, 62, 80
3, 24095, Note_off_c, 1, 62, 64
3, 24120, Note_on_c, 1, 71, 80
3, 24310, Note_off_c, 1, 71, 64
3, 24360, Note_on_c, 1, 62, 80
3, 24455, Note_off_c, 1, 62, 64
3, 24480, Note_on_c, 1, 62, 80
3, 24670, Note_off_c, 1, 62, 64
3, 24720, Note_on_c, 1, 64, 80
3, 24815, Note_off_c, 1, 64, 64
3, 24840, Note_on_c, 1, 66, 80
3, 24887, Note_off_c, 1, 66, 64
3, 24900, Note_on_c, 1, 68, 80
3, 24947, Note_off_c, 1, 68, 64
3, 24960, Note_on_c, 1, 69, 80
3, 25727, Note_off_c, 1, 69, 64
3, 25920, Note_on_c, 1, 68, 80
3, 26110, Note_off_c, 1, 68, 64
3, 30000, Note_on_c, 1, 67, 80
3, 30095, Note_off_c, 1, 67, 64
3, 30120, Note_on_c, 1, 67, 80
3, 30215, Note_off_c, 1, 67, 64
3, 30240, Note_on_c, 1, 67, 80
3, 30430, Note_off_c, 1, 67, 64
3, 30480, Note_on_c, 1, 65, 80
3, 30910, Note_off_c, 1, 65, 64
3, 30960, Note_on_c, 1, 64, 80
3, 31342, Note_off_c, 1, 64, 64
3, 31440, Note_on_c, 1, 69, 80
3, 31630, Note_off_c, 1, 69, 64
3, 31680, Note_on_c, 1, 69, 80
3, 31870, Note_off_c, 1, 69, 64
3, 31920, Note_on_c, 1, 68, 80
3, 32110, Note_off_c, 1, 68, 64
3, 32160, Note_on_c, 1, 69, 80
3, 32350, Note_off_c, 1, 69, 64
3, 32640, Note_on_c, 1, 69, 80
3, 32830, Note_off_c, 1, 69, 64
3, 32880, Note_on_c, 1, 69, 80
3, 33070, Note_off_c, 1, 69, 64
3, 33120, Note_on_c, 1, 69, 80
3, 33215, Note_off_c, 1, 69, 64
3, 33240, Note_on_c, 1, 69, 80
3, 33287, Note_off_c, 1, 69, 64
3, 33300, Note_on_c, 1, 69, 80
3, 33347, Note_off_c, 1, 69, 64
3, 33360, Note_on_c, 1, 69, 80
3, 33455, Note_off_c, 1, 69, 64
3, 33480, Note_on_c, 1, 69, 80
3, 33527, Note_off_c, 1, 69, 64
3, 33540, Note_on_c, 1, 69, 80
3, 33587, Note_off_c, 1, 69, 64
3, 33600, Note_on_c, 1, 71, 80
3, 33982, Note_off_c, 1, 71, 64
3, 34080, Note_on_c, 1, 69, 80
3, 34270, Note_off_c, 1, 69, 64
3, 34320, Note_on_c, 1, 69, 80
3, 34415, Note_off_c, 1, 69, 64
3, 34440, Note_on_c, 1, 69, 80
3, 34535, Note_off_c, 1, 69, 64
3, 34560, Note_on_c, 1, 69, 80
3, 34750, Note_off_c, 1, 69, 64
3, 34800, Note_on_c, 1, 69, 80
3, 34895, Note_off_c, 1, 69, 64
3, 34920, Note_on_c, 1, 69, 80
3, 35015, Note_off_c, 1, 69, 64
3, 35040, Note_on_c, 1, 67, 80
3, 35230, Note_off_c, 1, 67, 64
3, 35280, Note_on_c, 1, 69, 80
3, 35470, Note_off_c, 1, 69, 64
3, 35520, Note_on_c, 1, 66, 80
3, 35902, Note_off_c, 1, 66, 64
3, 36000, Note_on_c, 1, 64, 80
3, 36095, Note_off_c, 1, 64, 64
3, 36120, Note_on_c, 1, 67, 80
3, 36335, Note_off_c, 1, 67, 64
3, 36360, Note_on_c, 1, 67, 80
3, 36455, Note_off_c, 1, 67, 64
3, 36480, Note_on_c, 1, 65, 80
3, 36862, Note_off_c, 1, 65, 64
3, 36960, Note_on_c, 1, 64, 80
3, 37342, Note_off_c, 1, 64, 64
3, 37560, Note_on_c, 1, 69, 80
3, 37775, Note_off_c, 1, 69, 64
3, 37800, Note_on_c, 1, 69, 80
3, 37895, Note_off_c, 1, 69, 64
3, 37920, Note_on_c, 1, 67, 80
3, 38110, Note_off_c, 1, 67, 64
3, 38160, Note_on_c, 1, 67, 80
3, 38350, Note_off_c, 1, 67, 64
3, 38400, Note_on_c, 1, 69, 80
3, 38495, Note_off_c, 1, 69, 64
3, 38520, Note_on_c, 1, 69, 80
3, 38615, Note_off_c, 1, 69, 64
3, 38640, Note_on_c, 1, 67, 80
3, 38830, Note_off_c, 1, 67, 64
3, 38880, Note_on_c, 1, 67, 80
3, 39070, Note_off_c, 1, 67, 64
3, 40080, Note_on_c, 1, 67, 80
3, 40175, Note_off_c, 1, 67, 64
3, 40200, Note_on_c, 1, 67, 80
3, 40295, Note_off_c, 1, 67, 64
3, 40320, Note_on_c, 1, 67, 80
3, 40415, Note_off_c, 1, 67, 64
3, 40440, Note_on_c, 1, 60, 80
3, 40535, Note_off_c, 1, 60, 64
3, 40560, Note_on_c, 1, 65, 80
3, 40655, Note_off_c, 1, 65, 64
3, 40680, Note_on_c, 1, 65, 80
3, 40775, Note_off_c, 1, 65, 64
3, 40800, Note_on_c, 1, 65, 80
3, 41470, Note_off_c, 1, 65, 64
3, 41520, Note_on_c, 1, 64, 80
3, 41710, Note_off_c, 1, 64, 64
3, 41760, Note_on_c, 1, 69, 80
3, 41855, Note_off_c, 1, 69, 64
3, 41880, Note_on_c, 1, 69, 80
3, 41975, Note_off_c, 1, 69, 64
3, 42000, Note_on_c, 1, 67, 80
3, 42190, Note_off_c, 1, 67, 64
3, 42240, Note_on_c, 1, 67, 80
3, 42430, Note_off_c, 1, 67, 64
3, 42960, Note_on_c, 1, 67, 80
3, 43055, Note_off_c, 1, 67, 64
3, 43080, Note_on_c, 1, 67, 80
3, 43175, Note_off_c, 1, 67, 64
3, 43200, Note_on_c, 1, 67, 80
3, 43390, Note_off_c, 1, 67, 64
3, 43440, Note_on_c, 1, 69, 80
3, 43630, Note_off_c, 1, 69, 64
3, 43920, Note_on_c, 1, 67, 80
3, 44015, Note_off_c, 1, 67, 64
3, 44040, Note_on_c, 1, 67, 80
3, 44135, Note_off_c, 1, 67, 64
3, 44160, Note_on_c, 1, 67, 80
3, 44255, Note_off_c, 1, 67, 64
3, 44280, Note_on_c, 1, 67, 80
3, 44375, Note_off_c, 1, 67, 64
3, 44520, Note_on_c, 1, 67, 80
3, 44567, Note_off_c, 1, 67, 64
3, 44580, Note_on_c, 1, 67, 80
3, 44627, Note_off_c, 1, 67, 64
3, 44640, Note_on_c, 1, 67, 80
3, 44735, Note_off_c, 1, 67, 64
3, 44760, Note_on_c, 1, 67, 80
3, 44855, Note_off_c, 1, 67, 64
3, 45000, Note_on_c, 1, 67, 80
3, 45047, Note_off_c, 1, 67, 64
3, 45060, Note_on_c, 1, 67, 80
3, 45107, Note_off_c, 1, 67, 64
3, 45120, Note_on_c, 1, 67, 80
3, 45215, Note_off_c, 1, 67, 64
3, 45240, Note_on_c, 1, 67, 80
3, 45335, Note_off_c, 1, 67, 64
3, 46080, Note_on_c, 1, 64, 80
3, 46270, Note_off_c, 1, 64, 64
3, 46320, Note_on_c, 1, 65, 80
3, 46510, Note_off_c, 1, 65, 64
3, 46560, Note_on_c, 1, 67, 80
3, 46607, Note_off_c, 1, 67, 64
3, 46620, Note_on_c, 1, 65, 80
3, 46667, Note_off_c, 1, 65, 64
3, 46680, Note_on_c, 1, 64, 80
3, 46727, Note_off_c, 1, 64, 64
3, 46740, Note_on_c, 1, 65, 80
3, 46787, Note_off_c, 1, 65, 64
3, 46800, Note_on_c, 1, 67, 80
3, 46895, Note_off_c, 1, 67, 64
3, 46920, Note_on_c, 1, 67, 80
3, 47015, Note_off_c, 1, 67, 64
3, 47040, Note_on_c, 1, 69, 80
3, 47135, Note_off_c, 1, 69, 64
3, 47160, Note_on_c, 1, 67, 80
3, 47255, Note_off_c, 1, 67, 64
3, 47280, Note_on_c, 1, 65, 80
3, 47375, Note_off_c, 1, 65, 64
3, 47400, Note_on_c, 1, 67, 80
3, 47495, Note_off_c, 1, 67, 64
3, 47520, Note_on_c, 1, 67, 80
3, 47615, Note_off_c, 1, 67, 64
3, 47640, Note_on_c, 1, 67, 80
3, 47735, Note_off_c, 1, 67, 64
3, 48000, Note_on_c, 1, 64, 80
3, 48287, Note_off_c, 1, 64, 64
3, 48360, Note_on_c, 1, 65, 80
3, 48407, Note_off_c, 1, 65, 64
3, 48420, Note_on_c, 1, 64, 80
3, 48467, Note_off_c, 1, 64, 64
3, 48480, Note_on_c, 1, 64, 80
3, 48767, Note_off_c, 1, 64, 64
3, 48840, Note_on_c, 1, 67, 80
3, 48887, Note_off_c, 1, 67, 64
3, 48900, Note_on_c, 1, 64, 80
3, 48947, Note_off_c, 1, 64, 64
3, 48960, Note_on_c, 1, 64, 80
3, 49150, Note_off_c, 1, 64, 64
3, 49200, Note_on_c, 1, 62, 80
3, 49222, Note_off_c, 1, 62, 64
3, 49230, Note_on_c, 1, 64, 80
3, 49252, Note_off_c, 1, 64, 64
3, 49260, Note_on_c, 1, 62, 80
3, 49282, Note_off_c, 1, 62, 64
3, 49290, Note_on_c, 1, 64, 80
3, 49312, Note_off_c, 1, 64, 64
3, 49320, Note_on_c, 1, 62, 80
3, 49367, Note_off_c, 1, 62, 64
3, 49380, Note_on_c, 1, 60, 80
3, 49427, Note_off_c, 1, 60, 64
3, 49440, Note_on_c, 1, 60, 80
3, 49630, Note_off_c, 1, 60, 64
3, 51600, Note_on_c, 1, 67, 80
3, 51695, Note_off_c, 1, 67, 64
3, 51720, Note_on_c, 1, 67, 80
3, 51815, Note_off_c, 1, 67, 64
3, 51840, Note_on_c, 1, 67, 80
3, 51935, Note_off_c, 1, 67, 64
3, 51960, Note_on_c, 1, 67, 80
3, 52055, Note_off_c, 1, 67, 64
3, 52080, Note_on_c, 1, 67, 80
3, 52175, Note_off_c, 1, 67, 64
3, 52200, Note_on_c, 1, 69, 80
3, 52295, Note_off_c, 1, 69, 64
3, 52320, Note_on_c, 1, 62, 80
3, 52415, Note_off_c, 1, 62, 64
3, 52440, Note_on_c, 1, 62, 80
3, 52535, Note_off_c, 1, 62, 64
3, 56400, Note_on_c, 1, 67, 80
3, 56495, Note_off_c, 1, 67, 64
3, 56520, Note_on_c, 1, 67, 80
3, 56615, Note_off_c, 1, 67, 64
3, 56640, Note_on_c, 1, 67, 80
3, 56830, Note_off_c, 1, 67, 64
3, 56880, Note_on_c, 1, 67, 80
3, 57070, Note_off_c, 1, 67, 64
3, 61200, Note_on_c, 1, 67, 80
3, 61295, Note_off_c, 1, 67, 64
3, 61320, Note_on_c, 1, 67, 80
3, 61415, Note_off_c, 1, 67, 64
3, 61440, Note_on_c, 1, 67, 80
3, 61535, Note_off_c, 1, 67, 64
3, 61560, Note_on_c, 1, 67, 80
3, 61655, Note_off_c, 1, 67, 64
3, 61680, Note_on_c, 1, 67, 80
3, 61775, Note_off_c, 1, 67, 64
3, 61800, Note_on_c, 1, 64, 80
3, 61895, Note_off_c, 1, 64, 64
3, 61920, Note_on_c, 1, 62, 80
3, 62015, Note_off_c, 1, 62, 64
3, 62040, Note_on_c, 1, 66, 80
3, 62135, Note_off_c, 1, 66, 64
3, 62640, Note_on_c, 1, 69, 80
3, 62735, Note_off_c, 1, 69, 64
3, 62760, Note_on_c, 1, 69, 80
3, 62855, Note_off_c, 1, 69, 64
3, 62880, Note_on_c, 1, 69, 80
3, 62975, Note_off_c, 1, 69, 64
3, 63000, Note_on_c, 1, 62, 80
3, 63095, Note_off_c, 1, 62, 64
3, 63120, Note_on_c, 1, 67, 80
3, 63215, Note_off_c, 1, 67, 64
3, 63240, Note_on_c, 1, 67, 80
3, 63335, Note_off_c, 1, 67, 64
3, 63360, Note_on_c, 1, 67, 80
3, 63742, Note_off_c, 1, 67, 64
3, 63840, Note_on_c, 1, 67, 80
3, 64030, Note_off_c, 1, 67, 64
3, 64080, Note_on_c, 1, 67, 80
3, 64127, Note_off_c, 1, 67, 64
3, 64140, Note_on_c, 1, 65, 80
3, 64187, Note_off_c, 1, 65, 64
3, 64200, Note_on_c, 1, 64, 80
3, 64247, Note_off_c, 1, 64, 64
3, 64260, Note_on_c, 1, 62, 80
3, 64307, Note_off_c, 1, 62, 64
3, 64320, Note_on_c, 1, 62, 80
3, 64415, Note_off_c, 1, 62, 64
3, 64440, Note_on_c, 1, 62, 80
3, 64535, Note_off_c, 1, 62, 64
3, 64560, Note_on_c, 1, 62, 80
3, 64655, Note_off_c, 1, 62, 64
3, 64680, Note_on_c, 1, 62, 80
3, 64775, Note_off_c, 1, 62, 64
3, 64800, Note_on_c, 1, 62, 80
3, 65182, Note_off_c, 1, 62, 64
3, 65280, Note_on_c, 1, 62, 80
3, 65470, Note_off_c, 1, 62, 64
3, 67680, Note_on_c, 1, 62, 80
3, 67967, Note_off_c, 1, 62, 64
3, 68040, Note_on_c, 1, 64, 80
3, 68087, Note_off_c, 1, 64, 64
3, 68100, Note_on_c, 1, 62, 80
3, 68147, Note_off_c, 1, 62, 64
3, 68160, Note_on_c, 1, 62, 80
3, 68447, Note_off_c, 1, 62, 64
3, 68520, Note_on_c, 1, 67, 80
3, 68567, Note_off_c, 1, 67, 64
3, 68580, Note_on_c, 1, 62, 80
3, 68627, Note_off_c, 1, 62, 64
3, 68640, Note_on_c, 1, 62, 80
3, 68830, Note_off_c, 1, 62, 64
3, 68880, Note_on_c, 1, 60, 80
3, 69070, Note_off_c, 1, 60, 64
3, 69120, Note_on_c, 1, 59, 80
3, 69215, Note_off_c, 1, 59, 64
3, 69240, Note_on_c, 1, 62, 80
3, 69455, Note_off_c, 1, 62, 64
3, 69480, Note_on_c, 1, 62, 80
3, 69575, Note_off_c, 1, 62, 64
3, 69600, Note_on_c, 1, 62, 80
3, 69982, Note_off_c, 1, 62, 64
3, 70080, Note_on_c, 1, 62, 80
3, 70175, Note_off_c, 1, 62, 64
3, 70200, Note_on_c, 1, 71, 80
3, 70390, Note_off_c, 1, 71, 64
3, 70440, Note_on_c, 1, 62, 80
3, 70535, Note_off_c, 1, 62, 64
3, 70560, Note_on_c, 1, 62, 80
3, 70750, Note_off_c, 1, 62, 64
3, 70800, Note_on_c, 1, 64, 80
3, 70895, Note_off_c, 1, 64, 64
3, 70920, Note_on_c, 1, 66, 80
3, 70967, Note_off_c, 1, 66, 64
3, 70980, Note_on_c, 1, 68, 80
3, 71027, Note_off_c, 1, 68, 64
3, 71040, Note_on_c, 1, 69, 80
3, 71807, Note_off_c, 1, 69, 64
3, 72000, Note_on_c, 1, 68, 80
3, 72190, Note_off_c, 1, 68, 64
3, 76080, Note_on_c, 1, 67, 80
3, 76175, Note_off_c, 1, 67, 64
3, 76200, Note_on_c, 1, 67, 80
3, 76295, Note_off_c, 1, 67, 64
3, 76320, Note_on_c, 1, 67, 80
3, 76510, Note_off_c, 1, 67, 64
3, 76560, Note_on_c, 1, 65, 80
3, 76990, Note_off_c, 1, 65, 64
3, 77040, Note_on_c, 1, 64, 80
3, 77422, Note_off_c, 1, 64, 64
3, 77520, Note_on_c, 1, 69, 80
3, 77710, Note_off_c, 1, 69, 64
3, 77760, Note_on_c, 1, 69, 80
3, 77950, Note_off_c, 1, 69, 64
3, 78000, Note_on_c, 1, 68, 80
3, 78190, Note_off_c, 1, 68, 64
3, 78240, Note_on_c, 1, 69, 80
3, 78430, Note_off_c, 1, 69, 64
3, 78720, Note_on_c, 1, 69, 80
3, 78910, Note_off_c, 1, 69, 64
3, 78960, Note_on_c, 1, 69, 80
3, 79150, Note_off_c, 1, 69, 64
3, 79200, Note_on_c, 1, 69, 80
3, 79295, Note_off_c, 1, 69, 64
3, 79320, Note_on_c, 1, 69, 80
3, 79367, Note_off_c, 1, 69, 64
3, 79380, Note_on_c, 1, 69, 80
3, 79427, Note_off_c, 1, 69, 64
3, 79440, Note_on_c, 1, 69, 80
3, 79535, Note_off_c, 1, 69, 64
3, 79560, Note_on_c, 1, 69, 80
3, 79607, Note_off_c, 1, 69, 64
3, 79620, Note_on_c, 1, 69, 80
3, 79667, Note_off_c, 1, 69, 64
3, 79680, Note_on_c, 1, 71, 80
3, 80062, Note_off_c, 1, 71, 64
3, 80160, Note_on_c, 1, 69, 80
3, 80350, Note_off_c, 1, 69, 64
3, 80400, Note_on_c, 1, 69, 80
3, 80495, Note_off_c, 1, 69, 64
3, 80520, Note_on_c, 1, 69, 80
3, 80615, Note_off_c, 1, 69, 64
3, 80640, Note_on_c, 1, 69, 80
3, 80830, Note_off_c, 1, 69, 64
3, 80880, Note_on_c, 1, 69, 80
3, 80975, Note_off_c, 1, 69, 64
3, 81000, Note_on_c, 1, 69, 80
3, 81095, Note_off_c, 1, 69, 64
3, 81120, Note_on_c, 1, 67, 80
3, 81310, Note_off_c, 1, 67, 64
3, 81360, Note_on_c, 1, 69, 80
3, 81550, Note_off_c, 1, 69, 64
3, 81600, Note_on_c, 1, 66, 80
3, 81982, Note_off_c, 1, 66, 64
3, 82080, Note_on_c, 1, 64, 80
3, 82175, Note_off_c, 1, 64, 64
3, 82200, Note_on_c, 1, 67, 80
3, 82415, Note_off_c, 1, 67, 64
3, 82440, Note_on_c, 1, 67, 80
3, 82535, Note_off_c, 1, 67, 64
3, 82560, Note_on_c, 1, 65, 80
3, 82942, Note_off_c, 1, 65, 64
3, 83040, Note_on_c, 1, 64, 80
3, 83422, Note_off_c, 1, 64, 64
3, 83640, Note_on_c, 1, 69, 80
3, 83855, Note_off_c, 1, 69, 64
3, 83880, Note_on_c, 1, 69, 80
3, 83975, Note_off_c, 1, 69, 64
3, 84000, Note_on_c, 1, 67, 80
3, 84190, Note_off_c, 1, 67, 64
3, 84240, Note_on_c, 1, 67, 80
3, 84430, Note_off_c, 1, 67, 64
3, 84480, Note_on_c, 1, 69, 80
3, 84575, Note_off_c, 1, 69, 64
3, 84600, Note_on_c, 1, 69, 80
3, 84695, Note_off_c, 1, 69, 64
3, 84720, Note_on_c, 1, 67, 80
3, 84910, Note_off_c, 1, 67, 64
3, 84960, Note_on_c, 1, 67, 80
3, 85150, Note_off_c, 1, 67, 64
3, 86160, Note_on_c, 1, 67, 80
3, 86255, Note_off_c, 1, 67, 64
3, 86280, Note_on_c, 1, 67, 80
3, 86375, Note_off_c, 1, 67, 64
3, 86400, Note_on_c, 1, 67, 80
3, 86495, Note_off_c, 1, 67, 64
3, 86520, Note_on_c, 1, 60, 80
3, 86615, Note_off_c, 1, 60, 64
3, 86640, Note_on_c, 1, 65, 80
3, 86735, Note_off_c, 1, 65, 64
3, 86760, Note_on_c, 1, 65, 80
3, 86855, Note_off_c, 1, 65, 64
3, 86880, Note_on_c, 1, 65, 80
3, 87550, Note_off_c, 1, 65, 64
3, 87600, Note_on_c, 1, 64, 80
3, 87790, Note_off_c, 1, 64, 64
3, 87840, Note_on_c, 1, 69, 80
3, 87935, Note_off_c, 1, 69, 64
3, 87960, Note_on_c, 1, 69, 80
3, 88055, Note_off_c, 1, 69, 64
3, 88080, Note_on_c, 1, 67, 80
3, 88270, Note_off_c, 1, 67, 64
3, 88320, Note_on_c, 1, 67, 80
3, 88510, Note_off_c, 1, 67, 64
3, 89040, Note_on_c, 1, 67, 80
3, 89135, Note_off_c, 1, 67, 64
3, 89160, Note_on_c, 1, 67, 80
3, 89255, Note_off_c, 1, 67, 64
3, 89280, Note_on_c, 1, 67, 80
3, 89470, Note_off_c, 1, 67, 64
3, 89520, Note_on_c, 1, 69, 80
3, 89710, Note_off_c, 1, 69, 64
3, 90000, Note_on_c, 1, 67, 80
3, 90095, Note_off_c, 1, 67, 64
3, 90120, Note_on_c, 1, 67, 80
3, 90215, Note_off_c, 1, 67, 64
3, 90240, Note_on_c, 1, 67, 80
3, 90335, Note_off_c, 1, 67, 64
3, 90360, Note_on_c, 1, 67, 80
3, 90455, Note_off_c, 1, 67, 64
3, 90600, Note_on_c, 1, 67, 80
3, 90647, Note_off_c, 1, 67, 64
3, 90660, Note_on_c, 1, 67, 80
3, 90707, Note_off_c, 1, 67, 64
3, 90720, Note_on_c, 1, 67, 80
3, 90815, Note_off_c, 1, 67, 64
3, 90840, Note_on_c, 1, 67, 80
3, 90935, Note_off_c, 1, 67, 64
3, 91080, Note_on_c, 1, 67, 80
3, 91127, Note_off_c, 1, 67, 64
3, 91140, Note_on_c, 1, 67, 80
3, 91187, Note_off_c, 1, 67, 64
3, 91200, Note_on_c, 1, 67, 80
3, 91295, Note_off_c, 1, 67, 64
3, 91320, Note_on_c, 1, 67, 80
3, 91415, Note_off_c, 1, 67, 64
3, 91415, End_track
4, 0, Start_track
4, 0, Text_t, "Tenor"
4, 0, Program_c, 2, 71
4, 0, Control_c, 2, 7, 121
4, 0, Control_c, 2, 0, 0
4, 0, Control_c, 2, 10, 84
4, 0, Control_c, 2, 91, 127
4, 0, Control_c, 2, 93, 45
4, 720, Note_on_c, 2, 60, 80
4, 815, Note_off_c, 2, 60, 64
4, 840, Note_on_c, 2, 60, 80
4, 935, Note_off_c, 2, 60, 64
4, 960, Note_on_c, 2, 60, 80
4, 1055, Note_off_c, 2, 60, 64
4, 1080, Note_on_c, 2, 60, 80
4, 1175, Note_off_c, 2, 60, 64
4, 1200, Note_on_c, 2, 60, 80
4, 1295, Note_off_c, 2, 60, 64
4, 1320, Note_on_c, 2, 62, 80
4, 1415, Note_off_c, 2, 62, 64
4, 1440, Note_on_c, 2, 60, 80
4, 1487, Note_off_c, 2, 60, 64
4, 1500, Note_on_c, 2, 62, 80
4, 1547, Note_off_c, 2, 62, 64
4, 1560, Note_on_c, 2, 64, 80
4, 1655, Note_off_c, 2, 64, 64
4, 3840, Note_on_c, 2, 55, 80
4, 4127, Note_off_c, 2, 55, 64
4, 4200, Note_on_c, 2, 57, 80
4, 4247, Note_off_c, 2, 57, 64
4, 4260, Note_on_c, 2, 55, 80
4, 4307, Note_off_c, 2, 55, 64
4, 4320, Note_on_c, 2, 55, 80
4, 4607, Note_off_c, 2, 55, 64
4, 4680, Note_on_c, 2, 64, 80
4, 4727, Note_off_c, 2, 64, 64
4, 4740, Note_on_c, 2, 60, 80
4, 4787, Note_off_c, 2, 60, 64
4, 4800, Note_on_c, 2, 55, 80
4, 4990, Note_off_c, 2, 55, 64
4, 5040, Note_on_c, 2, 53, 80
4, 5062, Note_off_c, 2, 53, 64
4, 5070, Note_on_c, 2, 55, 80
4, 5092, Note_off_c, 2, 55, 64
4, 5100, Note_on_c, 2, 53, 80
4, 5122, Note_off_c, 2, 53, 64
4, 5130, Note_on_c, 2, 55, 80
4, 5152, Note_off_c, 2, 55, 64
4, 5160, Note_on_c, 2, 53, 80
4, 5207, Note_off_c, 2, 53, 64
4, 5220, Note_on_c, 2, 52, 80
4, 5267, Note_off_c, 2, 52, 64
4, 5280, Note_on_c, 2, 52, 80
4, 5470, Note_off_c, 2, 52, 64
4, 5520, Note_on_c, 2, 64, 80
4, 5615, Note_off_c, 2, 64, 64
4, 5640, Note_on_c, 2, 59, 80
4, 5735, Note_off_c, 2, 59, 64
4, 5760, Note_on_c, 2, 60, 80
4, 5855, Note_off_c, 2, 60, 64
4, 5880, Note_on_c, 2, 64, 80
4, 5927, Note_off_c, 2, 64, 64
4, 5940, Note_on_c, 2, 62, 80
4, 5987, Note_off_c, 2, 62, 64
4, 6000, Note_on_c, 2, 60, 80
4, 6095, Note_off_c, 2, 60, 64
4, 6120, Note_on_c, 2, 60, 80
4, 6215, Note_off_c, 2, 60, 64
4, 6240, Note_on_c, 2, 59, 80
4, 6335, Note_off_c, 2, 59, 64
4, 6360, Note_on_c, 2, 59, 80
4, 6455, Note_off_c, 2, 59, 64
4, 10320, Note_on_c, 2, 59, 80
4, 10367, Note_off_c, 2, 59, 64
4, 10380, Note_on_c, 2, 60, 80
4, 10427, Note_off_c, 2, 60, 64
4, 10440, Note_on_c, 2, 62, 80
4, 10487, Note_off_c, 2, 62, 64
4, 10500, Note_on_c, 2, 59, 80
4, 10547, Note_off_c, 2, 59, 64
4, 10560, Note_on_c, 2, 60, 80
4, 10655, Note_off_c, 2, 60, 64
4, 10680, Note_on_c, 2, 62, 80
4, 10775, Note_off_c, 2, 62, 64
4, 10800, Note_on_c, 2, 64, 80
4, 10990, Note_off_c, 2, 64, 64
4, 11520, Note_on_c, 2, 60, 80
4, 11710, Note_off_c, 2, 60, 64
4, 11760, Note_on_c, 2, 60, 80
4, 11950, Note_off_c, 2, 60, 64
4, 12000, Note_on_c, 2, 60, 80
4, 12095, Note_off_c, 2, 60, 64
4, 12120, Note_on_c, 2, 60, 80
4, 12167, Note_off_c, 2, 60, 64
4, 12180, Note_on_c, 2, 60, 80
4, 12227, Note_off_c, 2, 60, 64
4, 12240, Note_on_c, 2, 60, 80
4, 12335, Note_off_c, 2, 60, 64
4, 12360, Note_on_c, 2, 60, 80
4, 12407, Note_off_c, 2, 60, 64
4, 12420, Note_on_c, 2, 60, 80
4, 12467, Note_off_c, 2, 60, 64
4, 12480, Note_on_c, 2, 62, 80
4, 12862, Note_off_c, 2, 62, 64
4, 12960, Note_on_c, 2, 60, 80
4, 13150, Note_off_c, 2, 60, 64
4, 13200, Note_on_c, 2, 60, 80
4, 13295, Note_off_c, 2, 60, 64
4, 13320, Note_on_c, 2, 60, 80
4, 13415, Note_off_c, 2, 60, 64
4, 13440, Note_on_c, 2, 60, 80
4, 13630, Note_off_c, 2, 60, 64
4, 13680, Note_on_c, 2, 60, 80
4, 13775, Note_off_c, 2, 60, 64
4, 13800, Note_on_c, 2, 60, 80
4, 13895, Note_off_c, 2, 60, 64
4, 13920, Note_on_c, 2, 59, 80
4, 14110, Note_off_c, 2, 59, 64
4, 14160, Note_on_c, 2, 60, 80
4, 14350, Note_off_c, 2, 60, 64
4, 14400, Note_on_c, 2, 57, 80
4, 14782, Note_off_c, 2, 57, 64
4, 14880, Note_on_c, 2, 55, 80
4, 15070, Note_off_c, 2, 55, 64
4, 15120, Note_on_c, 2, 59, 80
4, 15215, Note_off_c, 2, 59, 64
4, 15240, Note_on_c, 2, 59, 80
4, 15335, Note_off_c, 2, 59, 64
4, 15360, Note_on_c, 2, 60, 80
4, 15455, Note_off_c, 2, 60, 64
4, 15480, Note_on_c, 2, 60, 80
4, 15527, Note_off_c, 2, 60, 64
4, 15540, Note_on_c, 2, 62, 80
4, 15587, Note_off_c, 2, 62, 64
4, 15600, Note_on_c, 2, 64, 80
4, 15695, Note_off_c, 2, 64, 64
4, 15720, Note_on_c, 2, 57, 80
4, 15815, Note_off_c, 2, 57, 64
4, 15840, Note_on_c, 2, 57, 80
4, 15935, Note_off_c, 2, 57, 64
4, 15960, Note_on_c, 2, 57, 80
4, 16055, Note_off_c, 2, 57, 64
4, 16080, Note_on_c, 2, 62, 80
4, 16175, Note_off_c, 2, 62, 64
4, 16200, Note_on_c, 2, 62, 80
4, 16295, Note_off_c, 2, 62, 64
4, 16320, Note_on_c, 2, 62, 80
4, 16702, Note_off_c, 2, 62, 64
4, 16800, Note_on_c, 2, 62, 80
4, 16990, Note_off_c, 2, 62, 64
4, 17520, Note_on_c, 2, 65, 80
4, 17615, Note_off_c, 2, 65, 64
4, 17640, Note_on_c, 2, 65, 80
4, 17735, Note_off_c, 2, 65, 64
4, 17760, Note_on_c, 2, 65, 80
4, 17950, Note_off_c, 2, 65, 64
4, 18000, Note_on_c, 2, 64, 80
4, 18047, Note_off_c, 2, 64, 64
4, 18060, Note_on_c, 2, 62, 80
4, 18107, Note_off_c, 2, 62, 64
4, 18120, Note_on_c, 2, 60, 80
4, 18167, Note_off_c, 2, 60, 64
4, 18180, Note_on_c, 2, 59, 80
4, 18227, Note_off_c, 2, 59, 64
4, 18240, Note_on_c, 2, 57, 80
4, 18335, Note_off_c, 2, 57, 64
4, 18360, Note_on_c, 2, 57, 80
4, 18455, Note_off_c, 2, 57, 64
4, 18480, Note_on_c, 2, 57, 80
4, 18575, Note_off_c, 2, 57, 64
4, 18600, Note_on_c, 2, 60, 80
4, 18647, Note_off_c, 2, 60, 64
4, 18660, Note_on_c, 2, 59, 80
4, 18707, Note_off_c, 2, 59, 64
4, 18720, Note_on_c, 2, 57, 80
4, 19102, Note_off_c, 2, 57, 64
4, 19200, Note_on_c, 2, 55, 80
4, 19390, Note_off_c, 2, 55, 64
4, 19680, Note_on_c, 2, 59, 80
4, 19967, Note_off_c, 2, 59, 64
4, 20040, Note_on_c, 2, 60, 80
4, 20087, Note_off_c, 2, 60, 64
4, 20100, Note_on_c, 2, 59, 80
4, 20147, Note_off_c, 2, 59, 64
4, 20160, Note_on_c, 2, 59, 80
4, 20447, Note_off_c, 2, 59, 64
4, 20520, Note_on_c, 2, 62, 80
4, 20567, Note_off_c, 2, 62, 64
4, 20580, Note_on_c, 2, 59, 80
4, 20627, Note_off_c, 2, 59, 64
4, 20640, Note_on_c, 2, 59, 80
4, 20830, Note_off_c, 2, 59, 64
4, 20880, Note_on_c, 2, 57, 80
4, 21070, Note_off_c, 2, 57, 64
4, 21120, Note_on_c, 2, 55, 80
4, 21310, Note_off_c, 2, 55, 64
4, 23280, Note_on_c, 2, 66, 80
4, 23375, Note_off_c, 2, 66, 64
4, 23400, Note_on_c, 2, 62, 80
4, 23447, Note_off_c, 2, 62, 64
4, 23460, Note_on_c, 2, 60, 80
4, 23507, Note_off_c, 2, 60, 64
4, 23520, Note_on_c, 2, 59, 80
4, 23615, Note_off_c, 2, 59, 64
4, 23640, Note_on_c, 2, 67, 80
4, 23735, Note_off_c, 2, 67, 64
4, 23760, Note_on_c, 2, 66, 80
4, 23855, Note_off_c, 2, 66, 64
4, 23880, Note_on_c, 2, 62, 80
4, 23927, Note_off_c, 2, 62, 64
4, 23940, Note_on_c, 2, 60, 80
4, 23987, Note_off_c, 2, 60, 64
4, 24000, Note_on_c, 2, 59, 80
4, 24095, Note_off_c, 2, 59, 64
4, 24120, Note_on_c, 2, 55, 80
4, 24215, Note_off_c, 2, 55, 64
4, 24480, Note_on_c, 2, 59, 80
4, 24575, Note_off_c, 2, 59, 64
4, 24600, Note_on_c, 2, 56, 80
4, 24695, Note_off_c, 2, 56, 64
4, 24720, Note_on_c, 2, 57, 80
4, 24815, Note_off_c, 2, 57, 64
4, 24840, Note_on_c, 2, 64, 80
4, 24935, Note_off_c, 2, 64, 64
4, 24960, Note_on_c, 2, 64, 80
4, 25055, Note_off_c, 2, 64, 64
4, 25080, Note_on_c, 2, 62, 80
4, 25175, Note_off_c, 2, 62, 64
4, 25200, Note_on_c, 2, 60, 80
4, 25295, Note_off_c, 2, 60, 64
4, 25320, Note_on_c, 2, 59, 80
4, 25415, Note_off_c, 2, 59, 64
4, 25440, Note_on_c, 2, 57, 80
4, 25630, Note_off_c, 2, 57, 64
4, 25680, Note_on_c, 2, 65, 80
4, 25870, Note_off_c, 2, 65, 64
4, 25920, Note_on_c, 2, 59, 80
4, 26110, Note_off_c, 2, 59, 64
4, 30000, Note_on_c, 2, 62, 80
4, 30095, Note_off_c, 2, 62, 64
4, 30120, Note_on_c, 2, 62, 80
4, 30215, Note_off_c, 2, 62, 64
4, 30240, Note_on_c, 2, 60, 80
4, 30527, Note_off_c, 2, 60, 64
4, 30540, Note_on_c, 2, 59, 80
4, 30587, Note_off_c, 2, 59, 64
4, 30600, Note_on_c, 2, 60, 80
4, 30647, Note_off_c, 2, 60, 64
4, 30660, Note_on_c, 2, 57, 80
4, 30707, Note_off_c, 2, 57, 64
4, 30720, Note_on_c, 2, 59, 80
4, 31007, Note_off_c, 2, 59, 64
4, 31020, Note_on_c, 2, 57, 80
4, 31067, Note_off_c, 2, 57, 64
4, 31080, Note_on_c, 2, 59, 80
4, 31127, Note_off_c, 2, 59, 64
4, 31140, Note_on_c, 2, 56, 80
4, 31187, Note_off_c, 2, 56, 64
4, 31200, Note_on_c, 2, 57, 80
4, 31390, Note_off_c, 2, 57, 64
4, 31440, Note_on_c, 2, 57, 80
4, 31630, Note_off_c, 2, 57, 64
4, 31680, Note_on_c, 2, 65, 80
4, 31775, Note_off_c, 2, 65, 64
4, 31800, Note_on_c, 2, 65, 80
4, 31895, Note_off_c, 2, 65, 64
4, 31920, Note_on_c, 2, 64, 80
4, 32110, Note_off_c, 2, 64, 64
4, 32160, Note_on_c, 2, 64, 80
4, 32350, Note_off_c, 2, 64, 64
4, 36240, Note_on_c, 2, 64, 80
4, 36287, Note_off_c, 2, 64, 64
4, 36300, Note_on_c, 2, 62, 80
4, 36347, Note_off_c, 2, 62, 64
4, 36360, Note_on_c, 2, 64, 80
4, 36407, Note_off_c, 2, 64, 64
4, 36420, Note_on_c, 2, 61, 80
4, 36467, Note_off_c, 2, 61, 64
4, 36480, Note_on_c, 2, 65, 80
4, 36575, Note_off_c, 2, 65, 64
4, 36600, Note_on_c, 2, 57, 80
4, 36695, Note_off_c, 2, 57, 64
4, 36720, Note_on_c, 2, 62, 80
4, 36767, Note_off_c, 2, 62, 64
4, 36780, Note_on_c, 2, 60, 80
4, 36827, Note_off_c, 2, 60, 64
4, 36840, Note_on_c, 2, 62, 80
4, 36887, Note_off_c, 2, 62, 64
4, 36900, Note_on_c, 2, 59, 80
4, 36947, Note_off_c, 2, 59, 64
4, 36960, Note_on_c, 2, 64, 80
4, 37055, Note_off_c, 2, 64, 64
4, 37080, Note_on_c, 2, 55, 80
4, 37175, Note_off_c, 2, 55, 64
4, 37200, Note_on_c, 2, 60, 80
4, 37295, Note_off_c, 2, 60, 64
4, 37320, Note_on_c, 2, 59, 80
4, 37415, Note_off_c, 2, 59, 64
4, 37440, Note_on_c, 2, 57, 80
4, 37535, Note_off_c, 2, 57, 64
4, 37560, Note_on_c, 2, 64, 80
4, 37655, Note_off_c, 2, 64, 64
4, 37680, Note_on_c, 2, 64, 80
4, 37775, Note_off_c, 2, 64, 64
4, 37800, Note_on_c, 2, 64, 80
4, 37895, Note_off_c, 2, 64, 64
4, 37920, Note_on_c, 2, 62, 80
4, 38110, Note_off_c, 2, 62, 64
4, 38160, Note_on_c, 2, 64, 80
4, 38350, Note_off_c, 2, 64, 64
4, 38400, Note_on_c, 2, 62, 80
4, 38495, Note_off_c, 2, 62, 64
4, 38520, Note_on_c, 2, 62, 80
4, 38615, Note_off_c, 2, 62, 64
4, 38640, Note_on_c, 2, 64, 80
4, 38735, Note_off_c, 2, 64, 64
4, 38760, Note_on_c, 2, 62, 80
4, 38855, Note_off_c, 2, 62, 64
4, 38880, Note_on_c, 2, 60, 80
4, 39070, Note_off_c, 2, 60, 64
4, 39600, Note_on_c, 2, 60, 80
4, 39695, Note_off_c, 2, 60, 64
4, 39720, Note_on_c, 2, 60, 80
4, 39815, Note_off_c, 2, 60, 64
4, 39840, Note_on_c, 2, 60, 80
4, 40222, Note_off_c, 2, 60, 64
4, 40320, Note_on_c, 2, 60, 80
4, 40510, Note_off_c, 2, 60, 64
4, 41040, Note_on_c, 2, 62, 80
4, 41135, Note_off_c, 2, 62, 64
4, 41160, Note_on_c, 2, 62, 80
4, 41255, Note_off_c, 2, 62, 64
4, 41280, Note_on_c, 2, 62, 80
4, 41470, Note_off_c, 2, 62, 64
4, 41520, Note_on_c, 2, 60, 80
4, 41710, Note_off_c, 2, 60, 64
4, 41760, Note_on_c, 2, 62, 80
4, 41855, Note_off_c, 2, 62, 64
4, 41880, Note_on_c, 2, 62, 80
4, 41975, Note_off_c, 2, 62, 64
4, 42000, Note_on_c, 2, 64, 80
4, 42095, Note_off_c, 2, 64, 64
4, 42120, Note_on_c, 2, 62, 80
4, 42215, Note_off_c, 2, 62, 64
4, 42240, Note_on_c, 2, 60, 80
4, 42430, Note_off_c, 2, 60, 64
4, 42960, Note_on_c, 2, 65, 80
4, 43055, Note_off_c, 2, 65, 64
4, 43080, Note_on_c, 2, 62, 80
4, 43175, Note_off_c, 2, 62, 64
4, 43200, Note_on_c, 2, 64, 80
4, 43295, Note_off_c, 2, 64, 64
4, 43320, Note_on_c, 2, 60, 80
4, 43415, Note_off_c, 2, 60, 64
4, 43440, Note_on_c, 2, 60, 80
4, 43630, Note_off_c, 2, 60, 64
4, 43920, Note_on_c, 2, 65, 80
4, 44015, Note_off_c, 2, 65, 64
4, 44040, Note_on_c, 2, 62, 80
4, 44135, Note_off_c, 2, 62, 64
4, 44160, Note_on_c, 2, 64, 80
4, 44255, Note_off_c, 2, 64, 64
4, 44280, Note_on_c, 2, 60, 80
4, 44375, Note_off_c, 2, 60, 64
4, 44520, Note_on_c, 2, 59, 80
4, 44567, Note_off_c, 2, 59, 64
4, 44580, Note_on_c, 2, 59, 80
4, 44627, Note_off_c, 2, 59, 64
4, 44640, Note_on_c, 2, 60, 80
4, 44735, Note_off_c, 2, 60, 64
4, 44760, Note_on_c, 2, 64, 80
4, 44855, Note_off_c, 2, 64, 64
4, 45000, Note_on_c, 2, 65, 80
4, 45047, Note_off_c, 2, 65, 64
4, 45060, Note_on_c, 2, 62, 80
4, 45107, Note_off_c, 2, 62, 64
4, 45120, Note_on_c, 2, 64, 80
4, 45215, Note_off_c, 2, 64, 64
4, 45240, Note_on_c, 2, 64, 80
4, 45335, Note_off_c, 2, 64, 64
4, 46800, Note_on_c, 2, 60, 80
4, 46895, Note_off_c, 2, 60, 64
4, 46920, Note_on_c, 2, 60, 80
4, 47015, Note_off_c, 2, 60, 64
4, 47040, Note_on_c, 2, 60, 80
4, 47135, Note_off_c, 2, 60, 64
4, 47160, Note_on_c, 2, 60, 80
4, 47255, Note_off_c, 2, 60, 64
4, 47280, Note_on_c, 2, 60, 80
4, 47375, Note_off_c, 2, 60, 64
4, 47400, Note_on_c, 2, 62, 80
4, 47495, Note_off_c, 2, 62, 64
4, 47520, Note_on_c, 2, 60, 80
4, 47567, Note_off_c, 2, 60, 64
4, 47580, Note_on_c, 2, 62, 80
4, 47627, Note_off_c, 2, 62, 64
4, 47640, Note_on_c, 2, 64, 80
4, 47735, Note_off_c, 2, 64, 64
4, 49920, Note_on_c, 2, 55, 80
4, 50207, Note_off_c, 2, 55, 64
4, 50280, Note_on_c, 2, 57, 80
4, 50327, Note_off_c, 2, 57, 64
4, 50340, Note_on_c, 2, 55, 80
4, 50387, Note_off_c, 2, 55, 64
4, 50400, Note_on_c, 2, 55, 80
4, 50687, Note_off_c, 2, 55, 64
4, 50760, Note_on_c, 2, 64, 80
4, 50807, Note_off_c, 2, 64, 64
4, 50820, Note_on_c, 2, 60, 80
4, 50867, Note_off_c, 2, 60, 64
4, 50880, Note_on_c, 2, 55, 80
4, 51070, Note_off_c, 2, 55, 64
4, 51120, Note_on_c, 2, 53, 80
4, 51142, Note_off_c, 2, 53, 64
4, 51150, Note_on_c, 2, 55, 80
4, 51172, Note_off_c, 2, 55, 64
4, 51180, Note_on_c, 2, 53, 80
4, 51202, Note_off_c, 2, 53, 64
4, 51210, Note_on_c, 2, 55, 80
4, 51232, Note_off_c, 2, 55, 64
4, 51240, Note_on_c, 2, 53, 80
4, 51287, Note_off_c, 2, 53, 64
4, 51300, Note_on_c, 2, 52, 80
4, 51347, Note_off_c, 2, 52, 64
4, 51360, Note_on_c, 2, 52, 80
4, 51550, Note_off_c, 2, 52, 64
4, 51600, Note_on_c, 2, 64, 80
4, 51695, Note_off_c, 2, 64, 64
4, 51720, Note_on_c, 2, 59, 80
4, 51815, Note_off_c, 2, 59, 64
4, 51840, Note_on_c, 2, 60, 80
4, 51935, Note_off_c, 2, 60, 64
4, 51960, Note_on_c, 2, 64, 80
4, 52007, Note_off_c, 2, 64, 64
4, 52020, Note_on_c, 2, 62, 80
4, 52067, Note_off_c, 2, 62, 64
4, 52080, Note_on_c, 2, 60, 80
4, 52175, Note_off_c, 2, 60, 64
4, 52200, Note_on_c, 2, 60, 80
4, 52295, Note_off_c, 2, 60, 64
4, 52320, Note_on_c, 2, 59, 80
4, 52415, Note_off_c, 2, 59, 64
4, 52440, Note_on_c, 2, 59, 80
4, 52535, Note_off_c, 2, 59, 64
4, 56400, Note_on_c, 2, 59, 80
4, 56447, Note_off_c, 2, 59, 64
4, 56460, Note_on_c, 2, 60, 80
4, 56507, Note_off_c, 2, 60, 64
4, 56520, Note_on_c, 2, 62, 80
4, 56567, Note_off_c, 2, 62, 64
4, 56580, Note_on_c, 2, 59, 80
4, 56627, Note_off_c, 2, 59, 64
4, 56640, Note_on_c, 2, 60, 80
4, 56735, Note_off_c, 2, 60, 64
4, 56760, Note_on_c, 2, 62, 80
4, 56855, Note_off_c, 2, 62, 64
4, 56880, Note_on_c, 2, 64, 80
4, 57070, Note_off_c, 2, 64, 64
4, 57600, Note_on_c, 2, 60, 80
4, 57790, Note_off_c, 2, 60, 64
4, 57840, Note_on_c, 2, 60, 80
4, 58030, Note_off_c, 2, 60, 64
4, 58080, Note_on_c, 2, 60, 80
4, 58175, Note_off_c, 2, 60, 64
4, 58200, Note_on_c, 2, 60, 80
4, 58247, Note_off_c, 2, 60, 64
4, 58260, Note_on_c, 2, 60, 80
4, 58307, Note_off_c, 2, 60, 64
4, 58320, Note_on_c, 2, 60, 80
4, 58415, Note_off_c, 2, 60, 64
4, 58440, Note_on_c, 2, 60, 80
4, 58487, Note_off_c, 2, 60, 64
4, 58500, Note_on_c, 2, 60, 80
4, 58547, Note_off_c, 2, 60, 64
4, 58560, Note_on_c, 2, 62, 80
4, 58942, Note_off_c, 2, 62, 64
4, 59040, Note_on_c, 2, 60, 80
4, 59230, Note_off_c, 2, 60, 64
4, 59280, Note_on_c, 2, 60, 80
4, 59375, Note_off_c, 2, 60, 64
4, 59400, Note_on_c, 2, 60, 80
4, 59495, Note_off_c, 2, 60, 64
4, 59520, Note_on_c, 2, 60, 80
4, 59710, Note_off_c, 2, 60, 64
4, 59760, Note_on_c, 2, 60, 80
4, 59855, Note_off_c, 2, 60, 64
4, 59880, Note_on_c, 2, 60, 80
4, 59975, Note_off_c, 2, 60, 64
4, 60000, Note_on_c, 2, 59, 80
4, 60190, Note_off_c, 2, 59, 64
4, 60240, Note_on_c, 2, 60, 80
4, 60430, Note_off_c, 2, 60, 64
4, 60480, Note_on_c, 2, 57, 80
4, 60862, Note_off_c, 2, 57, 64
4, 60960, Note_on_c, 2, 55, 80
4, 61150, Note_off_c, 2, 55, 64
4, 61200, Note_on_c, 2, 59, 80
4, 61295, Note_off_c, 2, 59, 64
4, 61320, Note_on_c, 2, 59, 80
4, 61415, Note_off_c, 2, 59, 64
4, 61440, Note_on_c, 2, 60, 80
4, 61535, Note_off_c, 2, 60, 64
4, 61560, Note_on_c, 2, 60, 80
4, 61607, Note_off_c, 2, 60, 64
4, 61620, Note_on_c, 2, 62, 80
4, 61667, Note_off_c, 2, 62, 64
4, 61680, Note_on_c, 2, 64, 80
4, 61775, Note_off_c, 2, 64, 64
4, 61800, Note_on_c, 2, 57, 80
4, 61895, Note_off_c, 2, 57, 64
4, 61920, Note_on_c, 2, 57, 80
4, 62015, Note_off_c, 2, 57, 64
4, 62040, Note_on_c, 2, 57, 80
4, 62135, Note_off_c, 2, 57, 64
4, 62160, Note_on_c, 2, 62, 80
4, 62255, Note_off_c, 2, 62, 64
4, 62280, Note_on_c, 2, 62, 80
4, 62375, Note_off_c, 2, 62, 64
4, 62400, Note_on_c, 2, 62, 80
4, 62782, Note_off_c, 2, 62, 64
4, 62880, Note_on_c, 2, 62, 80
4, 63070, Note_off_c, 2, 62, 64
4, 63600, Note_on_c, 2, 65, 80
4, 63695, Note_off_c, 2, 65, 64
4, 63720, Note_on_c, 2, 65, 80
4, 63815, Note_off_c, 2, 65, 64
4, 63840, Note_on_c, 2, 65, 80
4, 64030, Note_off_c, 2, 65, 64
4, 64080, Note_on_c, 2, 64, 80
4, 64127, Note_off_c, 2, 64, 64
4, 64140, Note_on_c, 2, 62, 80
4, 64187, Note_off_c, 2, 62, 64
4, 64200, Note_on_c, 2, 60, 80
4, 64247, Note_off_c, 2, 60, 64
4, 64260, Note_on_c, 2, 59, 80
4, 64307, Note_off_c, 2, 59, 64
4, 64320, Note_on_c, 2, 57, 80
4, 64415, Note_off_c, 2, 57, 64
4, 64440, Note_on_c, 2, 57, 80
4, 64535, Note_off_c, 2, 57, 64
4, 64560, Note_on_c, 2, 57, 80
4, 64655, Note_off_c, 2, 57, 64
4, 64680, Note_on_c, 2, 60, 80
4, 64727, Note_off_c, 2, 60, 64
4, 64740, Note_on_c, 2, 59, 80
4, 64787, Note_off_c, 2, 59, 64
4, 64800, Note_on_c, 2, 57, 80
4, 65182, Note_off_c, 2, 57, 64
4, 65280, Note_on_c, 2, 55, 80
4, 65470, Note_off_c, 2, 55, 64
4, 65760, Note_on_c, 2, 59, 80
4, 66047, Note_off_c, 2, 59, 64
4, 66120, Note_on_c, 2, 60, 80
4, 66167, Note_off_c, 2, 60, 64
4, 66180, Note_on_c, 2, 59, 80
4, 66227, Note_off_c, 2, 59, 64
4, 66240, Note_on_c, 2, 59, 80
4, 66527, Note_off_c, 2, 59, 64
4, 66600, Note_on_c, 2, 62, 80
4, 66647, Note_off_c, 2, 62, 64
4, 66660, Note_on_c, 2, 59, 80
4, 66707, Note_off_c, 2, 59, 64
4, 66720, Note_on_c, 2, 59, 80
4, 66910, Note_off_c, 2, 59, 64
4, 66960, Note_on_c, 2, 57, 80
4, 67150, Note_off_c, 2, 57, 64
4, 67200, Note_on_c, 2, 55, 80
4, 67390, Note_off_c, 2, 55, 64
4, 69360, Note_on_c, 2, 66, 80
4, 69455, Note_off_c, 2, 66, 64
4, 69480, Note_on_c, 2, 62, 80
4, 69527, Note_off_c, 2, 62, 64
4, 69540, Note_on_c, 2, 60, 80
4, 69587, Note_off_c, 2, 60, 64
4, 69600, Note_on_c, 2, 59, 80
4, 69695, Note_off_c, 2, 59, 64
4, 69720, Note_on_c, 2, 67, 80
4, 69815, Note_off_c, 2, 67, 64
4, 69840, Note_on_c, 2, 66, 80
4, 69935, Note_off_c, 2, 66, 64
4, 69960, Note_on_c, 2, 62, 80
4, 70007, Note_off_c, 2, 62, 64
4, 70020, Note_on_c, 2, 60, 80
4, 70067, Note_off_c, 2, 60, 64
4, 70080, Note_on_c, 2, 59, 80
4, 70175, Note_off_c, 2, 59, 64
4, 70200, Note_on_c, 2, 55, 80
4, 70295, Note_off_c, 2, 55, 64
4, 70560, Note_on_c, 2, 59, 80
4, 70655, Note_off_c, 2, 59, 64
4, 70680, Note_on_c, 2, 56, 80
4, 70775, Note_off_c, 2, 56, 64
4, 70800, Note_on_c, 2, 57, 80
4, 70895, Note_off_c, 2, 57, 64
4, 70920, Note_on_c, 2, 64, 80
4, 71015, Note_off_c, 2, 64, 64
4, 71040, Note_on_c, 2, 64, 80
4, 71135, Note_off_c, 2, 64, 64
4, 71160, Note_on_c, 2, 62, 80
4, 71255, Note_off_c, 2, 62, 64
4, 71280, Note_on_c, 2, 60, 80
4, 71375, Note_off_c, 2, 60, 64
4, 71400, Note_on_c, 2, 59, 80
4, 71495, Note_off_c, 2, 59, 64
4, 71520, Note_on_c, 2, 57, 80
4, 71710, Note_off_c, 2, 57, 64
4, 71760, Note_on_c, 2, 65, 80
4, 71950, Note_off_c, 2, 65, 64
4, 72000, Note_on_c, 2, 59, 80
4, 72190, Note_off_c, 2, 59, 64
4, 76080, Note_on_c, 2, 62, 80
4, 76175, Note_off_c, 2, 62, 64
4, 76200, Note_on_c, 2, 62, 80
4, 76295, Note_off_c, 2, 62, 64
4, 76320, Note_on_c, 2, 60, 80
4, 76607, Note_off_c, 2, 60, 64
4, 76620, Note_on_c, 2, 59, 80
4, 76667, Note_off_c, 2, 59, 64
4, 76680, Note_on_c, 2, 60, 80
4, 76727, Note_off_c, 2, 60, 64
4, 76740, Note_on_c, 2, 57, 80
4, 76787, Note_off_c, 2, 57, 64
4, 76800, Note_on_c, 2, 59, 80
4, 77087, Note_off_c, 2, 59, 64
4, 77100, Note_on_c, 2, 57, 80
4, 77147, Note_off_c, 2, 57, 64
4, 77160, Note_on_c, 2, 59, 80
4, 77207, Note_off_c, 2, 59, 64
4, 77220, Note_on_c, 2, 56, 80
4, 77267, Note_off_c, 2, 56, 64
4, 77280, Note_on_c, 2, 57, 80
4, 77470, Note_off_c, 2, 57, 64
4, 77520, Note_on_c, 2, 57, 80
4, 77710, Note_off_c, 2, 57, 64
4, 77760, Note_on_c, 2, 65, 80
4, 77855, Note_off_c, 2, 65, 64
4, 77880, Note_on_c, 2, 65, 80
4, 77975, Note_off_c, 2, 65, 64
4, 78000, Note_on_c, 2, 64, 80
4, 78190, Note_off_c, 2, 64, 64
4, 78240, Note_on_c, 2, 64, 80
4, 78430, Note_off_c, 2, 64, 64
4, 82320, Note_on_c, 2, 64, 80
4, 82367, Note_off_c, 2, 64, 64
4, 82380, Note_on_c, 2, 62, 80
4, 82427, Note_off_c, 2, 62, 64
4, 82440, Note_on_c, 2, 64, 80
4, 82487, Note_off_c, 2, 64, 64
4, 82500, Note_on_c, 2, 61, 80
4, 82547, Note_off_c, 2, 61, 64
4, 82560, Note_on_c, 2, 65, 80
4, 82655, Note_off_c, 2, 65, 64
4, 82680, Note_on_c, 2, 57, 80
4, 82775, Note_off_c, 2, 57, 64
4, 82800, Note_on_c, 2, 62, 80
4, 82847, Note_off_c, 2, 62, 64
4, 82860, Note_on_c, 2, 60, 80
4, 82907, Note_off_c, 2, 60, 64
4, 82920, Note_on_c, 2, 62, 80
4, 82967, Note_off_c, 2, 62, 64
4, 82980, Note_on_c, 2, 59, 80
4, 83027, Note_off_c, 2, 59, 64
4, 83040, Note_on_c, 2, 64, 80
4, 83135, Note_off_c, 2, 64, 64
4, 83160, Note_on_c, 2, 55, 80
4, 83255, Note_off_c, 2, 55, 64
4, 83280, Note_on_c, 2, 60, 80
4, 83375, Note_off_c, 2, 60, 64
4, 83400, Note_on_c, 2, 59, 80
4, 83495, Note_off_c, 2, 59, 64
4, 83520, Note_on_c, 2, 57, 80
4, 83615, Note_off_c, 2, 57, 64
4, 83640, Note_on_c, 2, 64, 80
4, 83735, Note_off_c, 2, 64, 64
4, 83760, Note_on_c, 2, 64, 80
4, 83855, Note_off_c, 2, 64, 64
4, 83880, Note_on_c, 2, 64, 80
4, 83975, Note_off_c, 2, 64, 64
4, 84000, Note_on_c, 2, 62, 80
4, 84190, Note_off_c, 2, 62, 64
4, 84240, Note_on_c, 2, 64, 80
4, 84430, Note_off_c, 2, 64, 64
4, 84480, Note_on_c, 2, 62, 80
4, 84575, Note_off_c, 2, 62, 64
4, 84600, Note_on_c, 2, 62, 80
4, 84695, Note_off_c, 2, 62, 64
4, 84720, Note_on_c, 2, 64, 80
4, 84815, Note_off_c, 2, 64, 64
4, 84840, Note_on_c, 2, 62, 80
4, 84935, Note_off_c, 2, 62, 64
4, 84960, Note_on_c, 2, 60, 80
4, 85150, Note_off_c, 2, 60, 64
4, 85680, Note_on_c, 2, 60, 80
4, 85775, Note_off_c, 2, 60, 64
4, 85800, Note_on_c, 2, 60, 80
4, 85895, Note_off_c, 2, 60, 64
4, 85920, Note_on_c, 2, 60, 80
4, 86302, Note_off_c, 2, 60, 64
4, 86400, Note_on_c, 2, 60, 80
4, 86590, Note_off_c, 2, 60, 64
4, 87120, Note_on_c, 2, 62, 80
4, 87215, Note_off_c, 2, 62, 64
4, 87240, Note_on_c, 2, 62, 80
4, 87335, Note_off_c, 2, 62, 64
4, 87360, Note_on_c, 2, 62, 80
4, 87550, Note_off_c, 2, 62, 64
4, 87600, Note_on_c, 2, 60, 80
4, 87790, Note_off_c, 2, 60, 64
4, 87840, Note_on_c, 2, 62, 80
4, 87935, Note_off_c, 2, 62, 64
4, 87960, Note_on_c, 2, 62, 80
4, 88055, Note_off_c, 2, 62, 64
4, 88080, Note_on_c, 2, 64, 80
4, 88175, Note_off_c, 2, 64, 64
4, 88200, Note_on_c, 2, 62, 80
4, 88295, Note_off_c, 2, 62, 64
4, 88320, Note_on_c, 2, 60, 80
4, 88510, Note_off_c, 2, 60, 64
4, 89040, Note_on_c, 2, 65, 80
4, 89135, Note_off_c, 2, 65, 64
4, 89160, Note_on_c, 2, 62, 80
4, 89255, Note_off_c, 2, 62, 64
4, 89280, Note_on_c, 2, 64, 80
4, 89375, Note_off_c, 2, 64, 64
4, 89400, Note_on_c, 2, 60, 80
4, 89495, Note_off_c, 2, 60, 64
4, 89520, Note_on_c, 2, 60, 80
4, 89710, Note_off_c, 2, 60, 64
4, 90000, Note_on_c, 2, 65, 80
4, 90095, Note_off_c, 2, 65, 64
4, 90120, Note_on_c, 2, 62, 80
4, 90215, Note_off_c, 2, 62, 64
4, 90240, Note_on_c, 2, 64, 80
4, 90335, Note_off_c, 2, 64, 64
4, 90360, Note_on_c, 2, 60, 80
4, 90455, Note_off_c, 2, 60, 64
4, 90600, Note_on_c, 2, 59, 80
4, 90647, Note_off_c, 2, 59, 64
4, 90660, Note_on_c, 2, 59, 80
4, 90707, Note_off_c, 2, 59, 64
4, 90720, Note_on_c, 2, 60, 80
4, 90815, Note_off_c, 2, 60, 64
4, 90840, Note_on_c, 2, 64, 80
4, 90935, Note_off_c, 2, 64, 64
4, 91080, Note_on_c, 2, 65, 80
4, 91127, Note_off_c, 2, 65, 64
4, 91140, Note_on_c, 2, 62, 80
4, 91187, Note_off_c, 2, 62, 64
4, 91200, Note_on_c, 2, 64, 80
4, 91295, Note_off_c, 2, 64, 64
4, 91320, Note_on_c, 2, 64, 80
4, 91415, Note_off_c, 2, 64, 64
4, 91415, End_track
5, 0, Start_track
5, 0, Text_t, "Bass"
5, 0, Program_c, 3, 70
5, 0, Control_c, 3, 7, 116
5, 0, Control_c, 3, 0, 0
5, 0, Control_c, 3, 10, 87
5, 0, Control_c, 3, 91, 125
5, 0, Control_c, 3, 93, 47
5, 0, Note_on_c, 3, 48, 80
5, 190, Note_off_c, 3, 48, 64
5, 240, Note_on_c, 3, 50, 80
5, 430, Note_off_c, 3, 50, 64
5, 480, Note_on_c, 3, 52, 80
5, 527, Note_off_c, 3, 52, 64
5, 540, Note_on_c, 3, 50, 80
5, 587, Note_off_c, 3, 50, 64
5, 600, Note_on_c, 3, 48, 80
5, 647, Note_off_c, 3, 48, 64
5, 660, Note_on_c, 3, 50, 80
5, 707, Note_off_c, 3, 50, 64
5, 720, Note_on_c, 3, 52, 80
5, 815, Note_off_c, 3, 52, 64
5, 840, Note_on_c, 3, 52, 80
5, 935, Note_off_c, 3, 52, 64
5, 960, Note_on_c, 3, 53, 80
5, 1055, Note_off_c, 3, 53, 64
5, 1080, Note_on_c, 3, 55, 80
5, 1175, Note_off_c, 3, 55, 64
5, 1200, Note_on_c, 3, 57, 80
5, 1295, Note_off_c, 3, 57, 64
5, 1320, Note_on_c, 3, 59, 80
5, 1415, Note_off_c, 3, 59, 64
5, 1440, Note_on_c, 3, 60, 80
5, 1535, Note_off_c, 3, 60, 64
5, 1560, Note_on_c, 3, 48, 80
5, 1655, Note_off_c, 3, 48, 64
5, 3840, Note_on_c, 3, 52, 80
5, 4127, Note_off_c, 3, 52, 64
5, 4200, Note_on_c, 3, 53, 80
5, 4247, Note_off_c, 3, 53, 64
5, 4260, Note_on_c, 3, 52, 80
5, 4307, Note_off_c, 3, 52, 64
5, 4320, Note_on_c, 3, 52, 80
5, 4607, Note_off_c, 3, 52, 64
5, 4680, Note_on_c, 3, 55, 80
5, 4727, Note_off_c, 3, 55, 64
5, 4740, Note_on_c, 3, 52, 80
5, 4787, Note_off_c, 3, 52, 64
5, 4800, Note_on_c, 3, 52, 80
5, 4990, Note_off_c, 3, 52, 64
5, 5040, Note_on_c, 3, 50, 80
5, 5062, Note_off_c, 3, 50, 64
5, 5070, Note_on_c, 3, 52, 80
5, 5092, Note_off_c, 3, 52, 64
5, 5100, Note_on_c, 3, 50, 80
5, 5122, Note_off_c, 3, 50, 64
5, 5130, Note_on_c, 3, 52, 80
5, 5152, Note_off_c, 3, 52, 64
5, 5160, Note_on_c, 3, 50, 80
5, 5207, Note_off_c, 3, 50, 64
5, 5220, Note_on_c, 3, 48, 80
5, 5267, Note_off_c, 3, 48, 64
5, 5280, Note_on_c, 3, 48, 80
5, 5470, Note_off_c, 3, 48, 64
5, 5520, Note_on_c, 3, 60, 80
5, 5615, Note_off_c, 3, 60, 64
5, 5640, Note_on_c, 3, 55, 80
5, 5735, Note_off_c, 3, 55, 64
5, 5760, Note_on_c, 3, 60, 80
5, 5855, Note_off_c, 3, 60, 64
5, 5880, Note_on_c, 3, 48, 80
5, 5975, Note_off_c, 3, 48, 64
5, 6000, Note_on_c, 3, 60, 80
5, 6095, Note_off_c, 3, 60, 64
5, 6120, Note_on_c, 3, 57, 80
5, 6215, Note_off_c, 3, 57, 64
5, 6240, Note_on_c, 3, 55, 80
5, 6335, Note_off_c, 3, 55, 64
5, 6360, Note_on_c, 3, 43, 80
5, 6455, Note_off_c, 3, 43, 64
5, 10320, Note_on_c, 3, 55, 80
5, 10367, Note_off_c, 3, 55, 64
5, 10380, Note_on_c, 3, 57, 80
5, 10427, Note_off_c, 3, 57, 64
5, 10440, Note_on_c, 3, 59, 80
5, 10487, Note_off_c, 3, 59, 64
5, 10500, Note_on_c, 3, 55, 80
5, 10547, Note_off_c, 3, 55, 64
5, 10560, Note_on_c, 3, 60, 80
5, 10750, Note_off_c, 3, 60, 64
5, 10800, Note_on_c, 3, 48, 80
5, 10990, Note_off_c, 3, 48, 64
5, 15120, Note_on_c, 3, 55, 80
5, 15167, Note_off_c, 3, 55, 64
5, 15180, Note_on_c, 3, 57, 80
5, 15227, Note_off_c, 3, 57, 64
5, 15240, Note_on_c, 3, 55, 80
5, 15287, Note_off_c, 3, 55, 64
5, 15300, Note_on_c, 3, 53, 80
5, 15347, Note_off_c, 3, 53, 64
5, 15360, Note_on_c, 3, 52, 80
5, 15455, Note_off_c, 3, 52, 64
5, 15480, Note_on_c, 3, 48, 80
5, 15575, Note_off_c, 3, 48, 64
5, 15600, Note_on_c, 3, 48, 80
5, 15695, Note_off_c, 3, 48, 64
5, 15720, Note_on_c, 3, 49, 80
5, 15815, Note_off_c, 3, 49, 64
5, 15840, Note_on_c, 3, 50, 80
5, 15935, Note_off_c, 3, 50, 64
5, 15960, Note_on_c, 3, 50, 80
5, 16055, Note_off_c, 3, 50, 64
5, 16560, Note_on_c, 3, 54, 80
5, 16655, Note_off_c, 3, 54, 64
5, 16680, Note_on_c, 3, 54, 80
5, 16775, Note_off_c, 3, 54, 64
5, 16800, Note_on_c, 3, 54, 80
5, 16990, Note_off_c, 3, 54, 64
5, 17040, Note_on_c, 3, 55, 80
5, 17230, Note_off_c, 3, 55, 64
5, 17520, Note_on_c, 3, 47, 80
5, 17615, Note_off_c, 3, 47, 64
5, 17640, Note_on_c, 3, 47, 80
5, 17735, Note_off_c, 3, 47, 64
5, 17760, Note_on_c, 3, 47, 80
5, 17950, Note_off_c, 3, 47, 64
5, 18000, Note_on_c, 3, 48, 80
5, 18190, Note_off_c, 3, 48, 64
5, 18240, Note_on_c, 3, 50, 80
5, 18335, Note_off_c, 3, 50, 64
5, 18360, Note_on_c, 3, 48, 80
5, 18455, Note_off_c, 3, 48, 64
5, 18480, Note_on_c, 3, 47, 80
5, 18575, Note_off_c, 3, 47, 64
5, 18600, Note_on_c, 3, 45, 80
5, 18647, Note_off_c, 3, 45, 64
5, 18660, Note_on_c, 3, 43, 80
5, 18707, Note_off_c, 3, 43, 64
5, 18720, Note_on_c, 3, 50, 80
5, 18815, Note_off_c, 3, 50, 64
5, 18840, Note_on_c, 3, 50, 80
5, 18935, Note_off_c, 3, 50, 64
5, 18960, Note_on_c, 3, 50, 80
5, 19150, Note_off_c, 3, 50, 64
5, 19200, Note_on_c, 3, 43, 80
5, 19390, Note_off_c, 3, 43, 64
5, 21600, Note_on_c, 3, 59, 80
5, 21887, Note_off_c, 3, 59, 64
5, 21960, Note_on_c, 3, 60, 80
5, 22007, Note_off_c, 3, 60, 64
5, 22020, Note_on_c, 3, 59, 80
5, 22067, Note_off_c, 3, 59, 64
5, 22080, Note_on_c, 3, 59, 80
5, 22367, Note_off_c, 3, 59, 64
5, 22440, Note_on_c, 3, 62, 80
5, 22487, Note_off_c, 3, 62, 64
5, 22500, Note_on_c, 3, 59, 80
5, 22547, Note_off_c, 3, 59, 64
5, 22560, Note_on_c, 3, 59, 80
5, 22750, Note_off_c, 3, 59, 64
5, 22800, Note_on_c, 3, 57, 80
5, 22990, Note_off_c, 3, 57, 64
5, 23040, Note_on_c, 3, 55, 80
5, 23135, Note_off_c, 3, 55, 64
5, 23160, Note_on_c, 3, 59, 80
5, 23255, Note_off_c, 3, 59, 64
5, 23280, Note_on_c, 3, 57, 80
5, 23375, Note_off_c, 3, 57, 64
5, 23400, Note_on_c, 3, 54, 80
5, 23495, Note_off_c, 3, 54, 64
5, 23520, Note_on_c, 3, 55, 80
5, 23615, Note_off_c, 3, 55, 64
5, 23640, Note_on_c, 3, 59, 80
5, 23735, Note_off_c, 3, 59, 64
5, 23760, Note_on_c, 3, 57, 80
5, 23855, Note_off_c, 3, 57, 64
5, 23880, Note_on_c, 3, 54, 80
5, 23975, Note_off_c, 3, 54, 64
5, 24000, Note_on_c, 3, 55, 80
5, 24190, Note_off_c, 3, 55, 64
5, 24240, Note_on_c, 3, 53, 80
5, 24430, Note_off_c, 3, 53, 64
5, 24480, Note_on_c, 3, 52, 80
5, 24575, Note_off_c, 3, 52, 64
5, 24600, Note_on_c, 3, 50, 80
5, 24695, Note_off_c, 3, 50, 64
5, 24720, Note_on_c, 3, 48, 80
5, 24815, Note_off_c, 3, 48, 64
5, 24840, Note_on_c, 3, 47, 80
5, 24935, Note_off_c, 3, 47, 64
5, 24960, Note_on_c, 3, 45, 80
5, 25055, Note_off_c, 3, 45, 64
5, 25080, Note_on_c, 3, 57, 80
5, 25295, Note_off_c, 3, 57, 64
5, 25320, Note_on_c, 3, 55, 80
5, 25415, Note_off_c, 3, 55, 64
5, 25440, Note_on_c, 3, 53, 80
5, 25822, Note_off_c, 3, 53, 64
5, 25920, Note_on_c, 3, 52, 80
5, 26110, Note_off_c, 3, 52, 64
5, 26400, Note_on_c, 3, 60, 80
5, 26590, Note_off_c, 3, 60, 64
5, 26640, Note_on_c, 3, 60, 80
5, 26830, Note_off_c, 3, 60, 64
5, 26880, Note_on_c, 3, 60, 80
5, 26975, Note_off_c, 3, 60, 64
5, 27000, Note_on_c, 3, 60, 80
5, 27047, Note_off_c, 3, 60, 64
5, 27060, Note_on_c, 3, 60, 80
5, 27107, Note_off_c, 3, 60, 64
5, 27120, Note_on_c, 3, 60, 80
5, 27215, Note_off_c, 3, 60, 64
5, 27240, Note_on_c, 3, 60, 80
5, 27287, Note_off_c, 3, 60, 64
5, 27300, Note_on_c, 3, 60, 80
5, 27347, Note_off_c, 3, 60, 64
5, 27360, Note_on_c, 3, 62, 80
5, 27742, Note_off_c, 3, 62, 64
5, 27840, Note_on_c, 3, 60, 80
5, 28030, Note_off_c, 3, 60, 64
5, 28080, Note_on_c, 3, 60, 80
5, 28175, Note_off_c, 3, 60, 64
5, 28200, Note_on_c, 3, 60, 80
5, 28295, Note_off_c, 3, 60, 64
5, 28320, Note_on_c, 3, 60, 80
5, 28510, Note_off_c, 3, 60, 64
5, 28560, Note_on_c, 3, 60, 80
5, 28655, Note_off_c, 3, 60, 64
5, 28680, Note_on_c, 3, 60, 80
5, 28775, Note_off_c, 3, 60, 64
5, 28800, Note_on_c, 3, 59, 80
5, 28990, Note_off_c, 3, 59, 64
5, 29040, Note_on_c, 3, 60, 80
5, 29230, Note_off_c, 3, 60, 64
5, 29280, Note_on_c, 3, 57, 80
5, 29662, Note_off_c, 3, 57, 64
5, 29760, Note_on_c, 3, 55, 80
5, 29950, Note_off_c, 3, 55, 64
5, 30000, Note_on_c, 3, 55, 80
5, 30047, Note_off_c, 3, 55, 64
5, 30060, Note_on_c, 3, 57, 80
5, 30107, Note_off_c, 3, 57, 64
5, 30120, Note_on_c, 3, 59, 80
5, 30167, Note_off_c, 3, 59, 64
5, 30180, Note_on_c, 3, 55, 80
5, 30227, Note_off_c, 3, 55, 64
5, 30240, Note_on_c, 3, 60, 80
5, 30287, Note_off_c, 3, 60, 64
5, 30300, Note_on_c, 3, 59, 80
5, 30347, Note_off_c, 3, 59, 64
5, 30360, Note_on_c, 3, 60, 80
5, 30407, Note_off_c, 3, 60, 64
5, 30420, Note_on_c, 3, 59, 80
5, 30467, Note_off_c, 3, 59, 64
5, 30480, Note_on_c, 3, 57, 80
5, 30527, Note_off_c, 3, 57, 64
5, 30540, Note_on_c, 3, 55, 80
5, 30587, Note_off_c, 3, 55, 64
5, 30600, Note_on_c, 3, 57, 80
5, 30647, Note_off_c, 3, 57, 64
5, 30660, Note_on_c, 3, 53, 80
5, 30707, Note_off_c, 3, 53, 64
5, 30720, Note_on_c, 3, 59, 80
5, 30767, Note_off_c, 3, 59, 64
5, 30780, Note_on_c, 3, 57, 80
5, 30827, Note_off_c, 3, 57, 64
5, 30840, Note_on_c, 3, 59, 80
5, 30887, Note_off_c, 3, 59, 64
5, 30900, Note_on_c, 3, 57, 80
5, 30947, Note_off_c, 3, 57, 64
5, 30960, Note_on_c, 3, 56, 80
5, 31007, Note_off_c, 3, 56, 64
5, 31020, Note_on_c, 3, 54, 80
5, 31067, Note_off_c, 3, 54, 64
5, 31080, Note_on_c, 3, 56, 80
5, 31127, Note_off_c, 3, 56, 64
5, 31140, Note_on_c, 3, 52, 80
5, 31187, Note_off_c, 3, 52, 64
5, 31200, Note_on_c, 3, 57, 80
5, 31295, Note_off_c, 3, 57, 64
5, 31320, Note_on_c, 3, 55, 80
5, 31415, Note_off_c, 3, 55, 64
5, 31440, Note_on_c, 3, 53, 80
5, 31535, Note_off_c, 3, 53, 64
5, 31560, Note_on_c, 3, 52, 80
5, 31655, Note_off_c, 3, 52, 64
5, 31680, Note_on_c, 3, 50, 80
5, 31775, Note_off_c, 3, 50, 64
5, 31800, Note_on_c, 3, 50, 80
5, 31895, Note_off_c, 3, 50, 64
5, 31920, Note_on_c, 3, 52, 80
5, 32110, Note_off_c, 3, 52, 64
5, 32160, Note_on_c, 3, 45, 80
5, 32350, Note_off_c, 3, 45, 64
5, 36240, Note_on_c, 3, 61, 80
5, 36287, Note_off_c, 3, 61, 64
5, 36300, Note_on_c, 3, 59, 80
5, 36347, Note_off_c, 3, 59, 64
5, 36360, Note_on_c, 3, 61, 80
5, 36407, Note_off_c, 3, 61, 64
5, 36420, Note_on_c, 3, 57, 80
5, 36467, Note_off_c, 3, 57, 64
5, 36480, Note_on_c, 3, 62, 80
5, 36575, Note_off_c, 3, 62, 64
5, 36600, Note_on_c, 3, 50, 80
5, 36695, Note_off_c, 3, 50, 64
5, 36720, Note_on_c, 3, 59, 80
5, 36767, Note_off_c, 3, 59, 64
5, 36780, Note_on_c, 3, 57, 80
5, 36827, Note_off_c, 3, 57, 64
5, 36840, Note_on_c, 3, 59, 80
5, 36887, Note_off_c, 3, 59, 64
5, 36900, Note_on_c, 3, 55, 80
5, 36947, Note_off_c, 3, 55, 64
5, 36960, Note_on_c, 3, 60, 80
5, 37055, Note_off_c, 3, 60, 64
5, 37080, Note_on_c, 3, 48, 80
5, 37175, Note_off_c, 3, 48, 64
5, 37200, Note_on_c, 3, 57, 80
5, 37247, Note_off_c, 3, 57, 64
5, 37260, Note_on_c, 3, 55, 80
5, 37307, Note_off_c, 3, 55, 64
5, 37320, Note_on_c, 3, 57, 80
5, 37367, Note_off_c, 3, 57, 64
5, 37380, Note_on_c, 3, 55, 80
5, 37427, Note_off_c, 3, 55, 64
5, 37440, Note_on_c, 3, 54, 80
5, 37535, Note_off_c, 3, 54, 64
5, 37560, Note_on_c, 3, 54, 80
5, 37655, Note_off_c, 3, 54, 64
5, 37680, Note_on_c, 3, 54, 80
5, 37775, Note_off_c, 3, 54, 64
5, 37800, Note_on_c, 3, 54, 80
5, 37895, Note_off_c, 3, 54, 64
5, 37920, Note_on_c, 3, 55, 80
5, 38015, Note_off_c, 3, 55, 64
5, 38040, Note_on_c, 3, 53, 80
5, 38135, Note_off_c, 3, 53, 64
5, 38160, Note_on_c, 3, 52, 80
5, 38350, Note_off_c, 3, 52, 64
5, 38400, Note_on_c, 3, 53, 80
5, 38495, Note_off_c, 3, 53, 64
5, 38520, Note_on_c, 3, 53, 80
5, 38615, Note_off_c, 3, 53, 64
5, 38640, Note_on_c, 3, 55, 80
5, 38830, Note_off_c, 3, 55, 64
5, 38880, Note_on_c, 3, 48, 80
5, 39070, Note_off_c, 3, 48, 64
5, 40080, Note_on_c, 3, 52, 80
5, 40175, Note_off_c, 3, 52, 64
5, 40200, Note_on_c, 3, 52, 80
5, 40295, Note_off_c, 3, 52, 64
5, 40320, Note_on_c, 3, 52, 80
5, 40510, Note_off_c, 3, 52, 64
5, 40560, Note_on_c, 3, 53, 80
5, 40750, Note_off_c, 3, 53, 64
5, 41040, Note_on_c, 3, 55, 80
5, 41135, Note_off_c, 3, 55, 64
5, 41160, Note_on_c, 3, 55, 80
5, 41255, Note_off_c, 3, 55, 64
5, 41280, Note_on_c, 3, 55, 80
5, 41470, Note_off_c, 3, 55, 64
5, 41520, Note_on_c, 3, 57, 80
5, 41710, Note_off_c, 3, 57, 64
5, 41760, Note_on_c, 3, 53, 80
5, 41855, Note_off_c, 3, 53, 64
5, 41880, Note_on_c, 3, 53, 80
5, 41975, Note_off_c, 3, 53, 64
5, 42000, Note_on_c, 3, 55, 80
5, 42190, Note_off_c, 3, 55, 64
5, 42240, Note_on_c, 3, 48, 80
5, 42430, Note_off_c, 3, 48, 64
5, 42960, Note_on_c, 3, 55, 80
5, 43055, Note_off_c, 3, 55, 64
5, 43080, Note_on_c, 3, 55, 80
5, 43175, Note_off_c, 3, 55, 64
5, 43200, Note_on_c, 3, 48, 80
5, 43390, Note_off_c, 3, 48, 64
5, 43440, Note_on_c, 3, 53, 80
5, 43630, Note_off_c, 3, 53, 64
5, 43920, Note_on_c, 3, 55, 80
5, 44015, Note_off_c, 3, 55, 64
5, 44040, Note_on_c, 3, 55, 80
5, 44135, Note_off_c, 3, 55, 64
5, 44160, Note_on_c, 3, 48, 80
5, 44255, Note_off_c, 3, 48, 64
5, 44280, Note_on_c, 3, 48, 80
5, 44375, Note_off_c, 3, 48, 64
5, 44520, Note_on_c, 3, 55, 80
5, 44567, Note_off_c, 3, 55, 64
5, 44580, Note_on_c, 3, 55, 80
5, 44627, Note_off_c, 3, 55, 64
5, 44640, Note_on_c, 3, 60, 80
5, 44735, Note_off_c, 3, 60, 64
5, 44760, Note_on_c, 3, 48, 80
5, 44855, Note_off_c, 3, 48, 64
5, 45000, Note_on_c, 3, 55, 80
5, 45047, Note_off_c, 3, 55, 64
5, 45060, Note_on_c, 3, 55, 80
5, 45107, Note_off_c, 3, 55, 64
5, 45120, Note_on_c, 3, 60, 80
5, 45215, Note_off_c, 3, 60, 64
5, 45240, Note_on_c, 3, 48, 80
5, 45335, Note_off_c, 3, 48, 64
5, 46080, Note_on_c, 3, 48, 80
5, 46270, Note_off_c, 3, 48, 64
5, 46320, Note_on_c, 3, 50, 80
5, 46510, Note_off_c, 3, 50, 64
5, 46560, Note_on_c, 3, 52, 80
5, 46607, Note_off_c, 3, 52, 64
5, 46620, Note_on_c, 3, 50, 80
5, 46667, Note_off_c, 3, 50, 64
5, 46680, Note_on_c, 3, 48, 80
5, 46727, Note_off_c, 3, 48, 64
5, 46740, Note_on_c, 3, 50, 80
5, 46787, Note_off_c, 3, 50, 64
5, 46800, Note_on_c, 3, 52, 80
5, 46895, Note_off_c, 3, 52, 64
5, 46920, Note_on_c, 3, 52, 80
5, 47015, Note_off_c, 3, 52, 64
5, 47040, Note_on_c, 3, 53, 80
5, 47135, Note_off_c, 3, 53, 64
5, 47160, Note_on_c, 3, 55, 80
5, 47255, Note_off_c, 3, 55, 64
5, 47280, Note_on_c, 3, 57, 80
5, 47375, Note_off_c, 3, 57, 64
5, 47400, Note_on_c, 3, 59, 80
5, 47495, Note_off_c, 3, 59, 64
5, 47520, Note_on_c, 3, 60, 80
5, 47615, Note_off_c, 3, 60, 64
5, 47640, Note_on_c, 3, 48, 80
5, 47735, Note_off_c, 3, 48, 64
5, 49920, Note_on_c, 3, 52, 80
5, 50207, Note_off_c, 3, 52, 64
5, 50280, Note_on_c, 3, 53, 80
5, 50327, Note_off_c, 3, 53, 64
5, 50340, Note_on_c, 3, 52, 80
5, 50387, Note_off_c, 3, 52, 64
5, 50400, Note_on_c, 3, 52, 80
5, 50687, Note_off_c, 3, 52, 64
5, 50760, Note_on_c, 3, 55, 80
5, 50807, Note_off_c, 3, 55, 64
5, 50820, Note_on_c, 3, 52, 80
5, 50867, Note_off_c, 3, 52, 64
5, 50880, Note_on_c, 3, 52, 80
5, 51070, Note_off_c, 3, 52, 64
5, 51120, Note_on_c, 3, 50, 80
5, 51142, Note_off_c, 3, 50, 64
5, 51150, Note_on_c, 3, 52, 80
5, 51172, Note_off_c, 3, 52, 64
5, 51180, Note_on_c, 3, 50, 80
5, 51202, Note_off_c, 3, 50, 64
5, 51210, Note_on_c, 3, 52, 80
5, 51232, Note_off_c, 3, 52, 64
5, 51240, Note_on_c, 3, 50, 80
5, 51287, Note_off_c, 3, 50, 64
5, 51300, Note_on_c, 3, 48, 80
5, 51347, Note_off_c, 3, 48, 64
5, 51360, Note_on_c, 3, 48, 80
5, 51550, Note_off_c, 3, 48, 64
5, 51600, Note_on_c, 3, 60, 80
5, 51695, Note_off_c, 3, 60, 64
5, 51720, Note_on_c, 3, 55, 80
5, 51815, Note_off_c, 3, 55, 64
5, 51840, Note_on_c, 3, 60, 80
5, 51935, Note_off_c, 3, 60, 64
5, 51960, Note_on_c, 3, 48, 80
5, 52055, Note_off_c, 3, 48, 64
5, 52080, Note_on_c, 3, 60, 80
5, 52175, Note_off_c, 3, 60, 64
5, 52200, Note_on_c, 3, 57, 80
5, 52295, Note_off_c, 3, 57, 64
5, 52320, Note_on_c, 3, 55, 80
5, 52415, Note_off_c, 3, 55, 64
5, 52440, Note_on_c, 3, 43, 80
5, 52535, Note_off_c, 3, 43, 64
5, 56400, Note_on_c, 3, 55, 80
5, 56447, Note_off_c, 3, 55, 64
5, 56460, Note_on_c, 3, 57, 80
5, 56507, Note_off_c, 3, 57, 64
5, 56520, Note_on_c, 3, 59, 80
5, 56567, Note_off_c, 3, 59, 64
5, 56580, Note_on_c, 3, 55, 80
5, 56627, Note_off_c, 3, 55, 64
5, 56640, Note_on_c, 3, 60, 80
5, 56830, Note_off_c, 3, 60, 64
5, 56880, Note_on_c, 3, 48, 80
5, 57070, Note_off_c, 3, 48, 64
5, 61200, Note_on_c, 3, 55, 80
5, 61247, Note_off_c, 3, 55, 64
5, 61260, Note_on_c, 3, 57, 80
5, 61307, Note_off_c, 3, 57, 64
5, 61320, Note_on_c, 3, 55, 80
5, 61367, Note_off_c, 3, 55, 64
5, 61380, Note_on_c, 3, 53, 80
5, 61427, Note_off_c, 3, 53, 64
5, 61440, Note_on_c, 3, 52, 80
5, 61535, Note_off_c, 3, 52, 64
5, 61560, Note_on_c, 3, 48, 80
5, 61655, Note_off_c, 3, 48, 64
5, 61680, Note_on_c, 3, 48, 80
5, 61775, Note_off_c, 3, 48, 64
5, 61800, Note_on_c, 3, 49, 80
5, 61895, Note_off_c, 3, 49, 64
5, 61920, Note_on_c, 3, 50, 80
5, 62015, Note_off_c, 3, 50, 64
5, 62040, Note_on_c, 3, 50, 80
5, 62135, Note_off_c, 3, 50, 64
5, 62640, Note_on_c, 3, 54, 80
5, 62735, Note_off_c, 3, 54, 64
5, 62760, Note_on_c, 3, 54, 80
5, 62855, Note_off_c, 3, 54, 64
5, 62880, Note_on_c, 3, 54, 80
5, 63070, Note_off_c, 3, 54, 64
5, 63120, Note_on_c, 3, 55, 80
5, 63310, Note_off_c, 3, 55, 64
5, 63600, Note_on_c, 3, 47, 80
5, 63695, Note_off_c, 3, 47, 64
5, 63720, Note_on_c, 3, 47, 80
5, 63815, Note_off_c, 3, 47, 64
5, 63840, Note_on_c, 3, 47, 80
5, 64030, Note_off_c, 3, 47, 64
5, 64080, Note_on_c, 3, 48, 80
5, 64270, Note_off_c, 3, 48, 64
5, 64320, Note_on_c, 3, 50, 80
5, 64415, Note_off_c, 3, 50, 64
5, 64440, Note_on_c, 3, 48, 80
5, 64535, Note_off_c, 3, 48, 64
5, 64560, Note_on_c, 3, 47, 80
5, 64655, Note_off_c, 3, 47, 64
5, 64680, Note_on_c, 3, 45, 80
5, 64727, Note_off_c, 3, 45, 64
5, 64740, Note_on_c, 3, 43, 80
5, 64787, Note_off_c, 3, 43, 64
5, 64800, Note_on_c, 3, 50, 80
5, 64895, Note_off_c, 3, 50, 64
5, 64920, Note_on_c, 3, 50, 80
5, 65015, Note_off_c, 3, 50, 64
5, 65040, Note_on_c, 3, 50, 80
5, 65230, Note_off_c, 3, 50, 64
5, 65280, Note_on_c, 3, 43, 80
5, 65470, Note_off_c, 3, 43, 64
5, 67680, Note_on_c, 3, 59, 80
5, 67967, Note_off_c, 3, 59, 64
5, 68040, Note_on_c, 3, 60, 80
5, 68087, Note_off_c, 3, 60, 64
5, 68100, Note_on_c, 3, 59, 80
5, 68147, Note_off_c, 3, 59, 64
5, 68160, Note_on_c, 3, 59, 80
5, 68447, Note_off_c, 3, 59, 64
5, 68520, Note_on_c, 3, 62, 80
5, 68567, Note_off_c, 3, 62, 64
5, 68580, Note_on_c, 3, 59, 80
5, 68627, Note_off_c, 3, 59, 64
5, 68640, Note_on_c, 3, 59, 80
5, 68830, Note_off_c, 3, 59, 64
5, 68880, Note_on_c, 3, 57, 80
5, 69070, Note_off_c, 3, 57, 64
5, 69120, Note_on_c, 3, 55, 80
5, 69215, Note_off_c, 3, 55, 64
5, 69240, Note_on_c, 3, 59, 80
5, 69335, Note_off_c, 3, 59, 64
5, 69360, Note_on_c, 3, 57, 80
5, 69455, Note_off_c, 3, 57, 64
5, 69480, Note_on_c, 3, 54, 80
5, 69575, Note_off_c, 3, 54, 64
5, 69600, Note_on_c, 3, 55, 80
5, 69695, Note_off_c, 3, 55, 64
5, 69720, Note_on_c, 3, 59, 80
5, 69815, Note_off_c, 3, 59, 64
5, 69840, Note_on_c, 3, 57, 80
5, 69935, Note_off_c, 3, 57, 64
5, 69960, Note_on_c, 3, 54, 80
5, 70055, Note_off_c, 3, 54, 64
5, 70080, Note_on_c, 3, 55, 80
5, 70270, Note_off_c, 3, 55, 64
5, 70320, Note_on_c, 3, 53, 80
5, 70510, Note_off_c, 3, 53, 64
5, 70560, Note_on_c, 3, 52, 80
5, 70655, Note_off_c, 3, 52, 64
5, 70680, Note_on_c, 3, 50, 80
5, 70775, Note_off_c, 3, 50, 64
5, 70800, Note_on_c, 3, 48, 80
5, 70895, Note_off_c, 3, 48, 64
5, 70920, Note_on_c, 3, 47, 80
5, 71015, Note_off_c, 3, 47, 64
5, 71040, Note_on_c, 3, 45, 80
5, 71135, Note_off_c, 3, 45, 64
5, 71160, Note_on_c, 3, 57, 80
5, 71375, Note_off_c, 3, 57, 64
5, 71400, Note_on_c, 3, 55, 80
5, 71495, Note_off_c, 3, 55, 64
5, 71520, Note_on_c, 3, 53, 80
5, 71902, Note_off_c, 3, 53, 64
5, 72000, Note_on_c, 3, 52, 80
5, 72190, Note_off_c, 3, 52, 64
5, 72480, Note_on_c, 3, 60, 80
5, 72670, Note_off_c, 3, 60, 64
5, 72720, Note_on_c, 3, 60, 80
5, 72910, Note_off_c, 3, 60, 64
5, 72960, Note_on_c, 3, 60, 80
5, 73055, Note_off_c, 3, 60, 64
5, 73080, Note_on_c, 3, 60, 80
5, 73127, Note_off_c, 3, 60, 64
5, 73140, Note_on_c, 3, 60, 80
5, 73187, Note_off_c, 3, 60, 64
5, 73200, Note_on_c, 3, 60, 80
5, 73295, Note_off_c, 3, 60, 64
5, 73320, Note_on_c, 3, 60, 80
5, 73367, Note_off_c, 3, 60, 64
5, 73380, Note_on_c, 3, 60, 80
5, 73427, Note_off_c, 3, 60, 64
5, 73440, Note_on_c, 3, 62, 80
5, 73822, Note_off_c, 3, 62, 64
5, 73920, Note_on_c, 3, 60, 80
5, 74110, Note_off_c, 3, 60, 64
5, 74160, Note_on_c, 3, 60, 80
5, 74255, Note_off_c, 3, 60, 64
5, 74280, Note_on_c, 3, 60, 80
5, 74375, Note_off_c, 3, 60, 64
5, 74400, Note_on_c, 3, 60, 80
5, 74590, Note_off_c, 3, 60, 64
5, 74640, Note_on_c, 3, 60, 80
5, 74735, Note_off_c, 3, 60, 64
5, 74760, Note_on_c, 3, 60, 80
5, 74855, Note_off_c, 3, 60, 64
5, 74880, Note_on_c, 3, 59, 80
5, 75070, Note_off_c, 3, 59, 64
5, 75120, Note_on_c, 3, 60, 80
5, 75310, Note_off_c, 3, 60, 64
5, 75360, Note_on_c, 3, 57, 80
5, 75742, Note_off_c, 3, 57, 64
5, 75840, Note_on_c, 3, 55, 80
5, 76030, Note_off_c, 3, 55, 64
5, 76080, Note_on_c, 3, 55, 80
5, 76127, Note_off_c, 3, 55, 64
5, 76140, Note_on_c, 3, 57, 80
5, 76187, Note_off_c, 3, 57, 64
5, 76200, Note_on_c, 3, 59, 80
5, 76247, Note_off_c, 3, 59, 64
5, 76260, Note_on_c, 3, 55, 80
5, 76307, Note_off_c, 3, 55, 64
5, 76320, Note_on_c, 3, 60, 80
5, 76367, Note_off_c, 3, 60, 64
5, 76380, Note_on_c, 3, 59, 80
5, 76427, Note_off_c, 3, 59, 64
5, 76440, Note_on_c, 3, 60, 80
5, 76487, Note_off_c, 3, 60, 64
5, 76500, Note_on_c, 3, 59, 80
5, 76547, Note_off_c, 3, 59, 64
5, 76560, Note_on_c, 3, 57, 80
5, 76607, Note_off_c, 3, 57, 64
5, 76620, Note_on_c, 3, 55, 80
5, 76667, Note_off_c, 3, 55, 64
5, 76680, Note_on_c, 3, 57, 80
5, 76727, Note_off_c, 3, 57, 64
5, 76740, Note_on_c, 3, 53, 80
5, 76787, Note_off_c, 3, 53, 64
5, 76800, Note_on_c, 3, 59, 80
5, 76847, Note_off_c, 3, 59, 64
5, 76860, Note_on_c, 3, 57, 80
5, 76907, Note_off_c, 3, 57, 64
5, 76920, Note_on_c, 3, 59, 80
5, 76967, Note_off_c, 3, 59, 64
5, 76980, Note_on_c, 3, 57, 80
5, 77027, Note_off_c, 3, 57, 64
5, 77040, Note_on_c, 3, 56, 80
5, 77087, Note_off_c, 3, 56, 64
5, 77100, Note_on_c, 3, 54, 80
5, 77147, Note_off_c, 3, 54, 64
5, 77160, Note_on_c, 3, 56, 80
5, 77207, Note_off_c, 3, 56, 64
5, 77220, Note_on_c, 3, 52, 80
5, 77267, Note_off_c, 3, 52, 64
5, 77280, Note_on_c, 3, 57, 80
5, 77375, Note_off_c, 3, 57, 64
5, 77400, Note_on_c, 3, 55, 80
5, 77495, Note_off_c, 3, 55, 64
5, 77520, Note_on_c, 3, 53, 80
5, 77615, Note_off_c, 3, 53, 64
5, 77640, Note_on_c, 3, 52, 80
5, 77735, Note_off_c, 3, 52, 64
5, 77760, Note_on_c, 3, 50, 80
5, 77855, Note_off_c, 3, 50, 64
5, 77880, Note_on_c, 3, 50, 80
5, 77975, Note_off_c, 3, 50, 64
5, 78000, Note_on_c, 3, 52, 80
5, 78190, Note_off_c, 3, 52, 64
5, 78240, Note_on_c, 3, 45, 80
5, 78430, Note_off_c, 3, 45, 64
5, 82320, Note_on_c, 3, 61, 80
5, 82367, Note_off_c, 3, 61, 64
5, 82380, Note_on_c, 3, 59, 80
5, 82427, Note_off_c, 3, 59, 64
5, 82440, Note_on_c, 3, 61, 80
5, 82487, Note_off_c, 3, 61, 64
5, 82500, Note_on_c, 3, 57, 80
5, 82547, Note_off_c, 3, 57, 64
5, 82560, Note_on_c, 3, 62, 80
5, 82655, Note_off_c, 3, 62, 64
5, 82680, Note_on_c, 3, 50, 80
5, 82775, Note_off_c, 3, 50, 64
5, 82800, Note_on_c, 3, 59, 80
5, 82847, Note_off_c, 3, 59, 64
5, 82860, Note_on_c, 3, 57, 80
5, 82907, Note_off_c, 3, 57, 64
5, 82920, Note_on_c, 3, 59, 80
5, 82967, Note_off_c, 3, 59, 64
5, 82980, Note_on_c, 3, 55, 80
5, 83027, Note_off_c, 3, 55, 64
5, 83040, Note_on_c, 3, 60, 80
5, 83135, Note_off_c, 3, 60, 64
5, 83160, Note_on_c, 3, 48, 80
5, 83255, Note_off_c, 3, 48, 64
5, 83280, Note_on_c, 3, 57, 80
5, 83327, Note_off_c, 3, 57, 64
5, 83340, Note_on_c, 3, 55, 80
5, 83387, Note_off_c, 3, 55, 64
5, 83400, Note_on_c, 3, 57, 80
5, 83447, Note_off_c, 3, 57, 64
5, 83460, Note_on_c, 3, 55, 80
5, 83507, Note_off_c, 3, 55, 64
5, 83520, Note_on_c, 3, 54, 80
5, 83615, Note_off_c, 3, 54, 64
5, 83640, Note_on_c, 3, 54, 80
5, 83735, Note_off_c, 3, 54, 64
5, 83760, Note_on_c, 3, 54, 80
5, 83855, Note_off_c, 3, 54, 64
5, 83880, Note_on_c, 3, 54, 80
5, 83975, Note_off_c, 3, 54, 64
5, 84000, Note_on_c, 3, 55, 80
5, 84095, Note_off_c, 3, 55, 64
5, 84120, Note_on_c, 3, 53, 80
5, 84215, Note_off_c, 3, 53, 64
5, 84240, Note_on_c, 3, 52, 80
5, 84430, Note_off_c, 3, 52, 64
5, 84480, Note_on_c, 3, 53, 80
5, 84575, Note_off_c, 3, 53, 64
5, 84600, Note_on_c, 3, 53, 80
5, 84695, Note_off_c, 3, 53, 64
5, 84720, Note_on_c, 3, 55, 80
5, 84910, Note_off_c, 3, 55, 64
5, 84960, Note_on_c, 3, 48, 80
5, 85150, Note_off_c, 3, 48, 64
5, 86160, Note_on_c, 3, 52, 80
5, 86255, Note_off_c, 3, 52, 64
5, 86280, Note_on_c, 3, 52, 80
5, 86375, Note_off_c, 3, 52, 64
5, 86400, Note_on_c, 3, 52, 80
5, 86590, Note_off_c, 3, 52, 64
5, 86640, Note_on_c, 3, 53, 80
5, 86830, Note_off_c, 3, 53, 64
5, 87120, Note_on_c, 3, 55, 80
5, 87215, Note_off_c, 3, 55, 64
5, 87240, Note_on_c, 3, 55, 80
5, 87335, Note_off_c, 3, 55, 64
5, 87360, Note_on_c, 3, 55, 80
5, 87550, Note_off_c, 3, 55, 64
5, 87600, Note_on_c, 3, 57, 80
5, 87790, Note_off_c, 3, 57, 64
5, 87840, Note_on_c, 3, 53, 80
5, 87935, Note_off_c, 3, 53, 64
5, 87960, Note_on_c, 3, 53, 80
5, 88055, Note_off_c, 3, 53, 64
5, 88080, Note_on_c, 3, 55, 80
5, 88270, Note_off_c, 3, 55, 64
5, 88320, Note_on_c, 3, 48, 80
5, 88510, Note_off_c, 3, 48, 64
5, 89040, Note_on_c, 3, 55, 80
5, 89135, Note_off_c, 3, 55, 64
5, 89160, Note_on_c, 3, 55, 80
5, 89255, Note_off_c, 3, 55, 64
5, 89280, Note_on_c, 3, 48, 80
5, 89470, Note_off_c, 3, 48, 64
5, 89520, Note_on_c, 3, 53, 80
5, 89710, Note_off_c, 3, 53, 64
5, 90000, Note_on_c, 3, 55, 80
5, 90095, Note_off_c, 3, 55, 64
5, 90120, Note_on_c, 3, 55, 80
5, 90215, Note_off_c, 3, 55, 64
5, 90240, Note_on_c, 3, 48, 80
5, 90335, Note_off_c, 3, 48, 64
5, 90360, Note_on_c, 3, 48, 80
5, 90455, Note_off_c, 3, 48, 64
5, 90600, Note_on_c, 3, 55, 80
5, 90647, Note_off_c, 3, 55, 64
5, 90660, Note_on_c, 3, 55, 80
5, 90707, Note_off_c, 3, 55, 64
5, 90720, Note_on_c, 3, 60, 80
5, 90815, Note_off_c, 3, 60, 64
5, 90840, Note_on_c, 3, 48, 80
5, 90935, Note_off_c, 3, 48, 64
5, 91080, Note_on_c, 3, 55, 80
5, 91127, Note_off_c, 3, 55, 64
5, 91140, Note_on_c, 3, 55, 80
5, 91187, Note_off_c, 3, 55, 64
5, 91200, Note_on_c, 3, 60, 80
5, 91295, Note_off_c, 3, 60, 64
5, 91320, Note_on_c, 3, 48, 80
5, 91415, Note_off_c, 3, 48, 64
5, 91415, End_track
6, 0, Start_track
6, 0, Text_t, "Keyboard Rt. Hand"
6, 0, Program_c, 4, 19
6, 0, Control_c, 4, 7, 104
6, 0, Control_c, 4, 0, 0
6, 0, Control_c, 4, 10, 127
6, 0, Control_c, 4, 91, 127
6, 0, Note_on_c, 4, 64, 80
6, 0, Note_on_c, 4, 72, 80
6, 60, Note_off_c, 4, 64, 64
6, 95, Note_off_c, 4, 72, 64
6, 120, Note_on_c, 4, 76, 80
6, 120, Note_on_c, 4, 84, 80
6, 167, Note_off_c, 4, 84, 64
6, 180, Note_off_c, 4, 76, 64
6, 180, Note_on_c, 4, 83, 80
6, 227, Note_off_c, 4, 83, 64
6, 240, Note_on_c, 4, 77, 80
6, 240, Note_on_c, 4, 84, 80
6, 300, Note_off_c, 4, 77, 64
6, 335, Note_off_c, 4, 84, 64
6, 360, Note_on_c, 4, 65, 80
6, 360, Note_on_c, 4, 72, 80
6, 407, Note_off_c, 4, 72, 64
6, 420, Note_off_c, 4, 65, 64
6, 420, Note_on_c, 4, 71, 80
6, 467, Note_off_c, 4, 71, 64
6, 480, Note_on_c, 4, 67, 80
6, 480, Note_on_c, 4, 72, 80
6, 527, Note_off_c, 4, 72, 64
6, 540, Note_on_c, 4, 74, 80
6, 587, Note_off_c, 4, 74, 64
6, 600, Note_on_c, 4, 76, 80
6, 647, Note_off_c, 4, 76, 64
6, 660, Note_on_c, 4, 77, 80
6, 670, Note_off_c, 4, 67, 64
6, 707, Note_off_c, 4, 77, 64
6, 720, Note_on_c, 4, 67, 80
6, 720, Note_on_c, 4, 79, 80
6, 767, Note_off_c, 4, 79, 64
6, 780, Note_off_c, 4, 67, 64
6, 780, Note_on_c, 4, 77, 80
6, 827, Note_off_c, 4, 77, 64
6, 840, Note_on_c, 4, 67, 80
6, 840, Note_on_c, 4, 76, 80
6, 887, Note_off_c, 4, 76, 64
6, 900, Note_off_c, 4, 67, 64
6, 900, Note_on_c, 4, 74, 80
6, 947, Note_off_c, 4, 74, 64
6, 960, Note_on_c, 4, 69, 80
6, 960, Note_on_c, 4, 79, 80
6, 1007, Note_off_c, 4, 79, 64
6, 1020, Note_off_c, 4, 69, 64
6, 1020, Note_on_c, 4, 77, 80
6, 1067, Note_off_c, 4, 77, 64
6, 1080, Note_on_c, 4, 71, 80
6, 1080, Note_on_c, 4, 76, 80
6, 1127, Note_off_c, 4, 76, 64
6, 1140, Note_off_c, 4, 71, 64
6, 1140, Note_on_c, 4, 79, 80
6, 1187, Note_off_c, 4, 79, 64
6, 1200, Note_on_c, 4, 72, 80
6, 1200, Note_on_c, 4, 79, 80
6, 1247, Note_off_c, 4, 79, 64
6, 1260, Note_off_c, 4, 72, 64
6, 1260, Note_on_c, 4, 77, 80
6, 1307, Note_off_c, 4, 77, 64
6, 1320, Note_on_c, 4, 67, 80
6, 1320, Note_on_c, 4, 76, 80
6, 1367, Note_off_c, 4, 76, 64
6, 1380, Note_off_c, 4, 67, 64
6, 1380, Note_on_c, 4, 74, 80
6, 1427, Note_off_c, 4, 74, 64
6, 1440, Note_on_c, 4, 67, 80
6, 1440, Note_on_c, 4, 76, 80
6, 1487, Note_off_c, 4, 76, 64
6, 1500, Note_off_c, 4, 67, 64
6, 1500, Note_on_c, 4, 74, 80
6, 1547, Note_off_c, 4, 74, 64
6, 1560, Note_on_c, 4, 67, 80
6, 1560, Note_on_c, 4, 72, 80
6, 1607, Note_off_c, 4, 72, 64
6, 1620, Note_off_c, 4, 67, 64
6, 1620, Note_on_c, 4, 76, 80
6, 1667, Note_off_c, 4, 76, 64
6, 1680, Note_on_c, 4, 67, 80
6, 1680, Note_on_c, 4, 79, 80
6, 1727, Note_off_c, 4, 79, 64
6, 1740, Note_off_c, 4, 67, 64
6, 1740, Note_on_c, 4, 76, 80
6, 1787, Note_off_c, 4, 76, 64
6, 1800, Note_on_c, 4, 71, 80
6, 1800, Note_on_c, 4, 77, 80
6, 1847, Note_off_c, 4, 77, 64
6, 1860, Note_off_c, 4, 71, 64
6, 1860, Note_on_c, 4, 74, 80
6, 1907, Note_off_c, 4, 74, 64
6, 1920, Note_on_c, 4, 72, 80
6, 1980, Note_off_c, 4, 72, 64
6, 2040, Note_on_c, 4, 60, 80
6, 2100, Note_off_c, 4, 60, 64
6, 2160, Note_on_c, 4, 60, 80
6, 2220, Note_off_c, 4, 60, 64
6, 2280, Note_on_c, 4, 60, 80
6, 2340, Note_off_c, 4, 60, 64
6, 2400, Note_on_c, 4, 60, 80
6, 2460, Note_off_c, 4, 60, 64
6, 2520, Note_on_c, 4, 60, 80
6, 2580, Note_off_c, 4, 60, 64
6, 2640, Note_on_c, 4, 60, 80
6, 2700, Note_off_c, 4, 60, 64
6, 2760, Note_on_c, 4, 60, 80
6, 2820, Note_off_c, 4, 60, 64
6, 2880, Note_on_c, 4, 57, 80
6, 2940, Note_off_c, 4, 57, 64
6, 3000, Note_on_c, 4, 57, 80
6, 3060, Note_off_c, 4, 57, 64
6, 3120, Note_on_c, 4, 59, 80
6, 3180, Note_off_c, 4, 59, 64
6, 3240, Note_on_c, 4, 59, 80
6, 3300, Note_off_c, 4, 59, 64
6, 3360, Note_on_c, 4, 60, 80
6, 3420, Note_off_c, 4, 60, 64
6, 3480, Note_on_c, 4, 72, 80
6, 3480, Note_on_c, 4, 76, 80
6, 3527, Note_off_c, 4, 76, 64
6, 3527, Note_off_c, 4, 72, 64
6, 3540, Note_on_c, 4, 76, 80
6, 3540, Note_on_c, 4, 79, 80
6, 3587, Note_off_c, 4, 79, 64
6, 3587, Note_off_c, 4, 76, 64
6, 3600, Note_on_c, 4, 76, 80
6, 3600, Note_on_c, 4, 79, 80
6, 3647, Note_off_c, 4, 79, 64
6, 3647, Note_off_c, 4, 76, 64
6, 3660, Note_on_c, 4, 72, 80
6, 3660, Note_on_c, 4, 76, 80
6, 3707, Note_off_c, 4, 76, 64
6, 3707, Note_off_c, 4, 72, 64
6, 3720, Note_on_c, 4, 74, 80
6, 3720, Note_on_c, 4, 77, 80
6, 3767, Note_off_c, 4, 77, 64
6, 3767, Note_off_c, 4, 74, 64
6, 3780, Note_on_c, 4, 71, 80
6, 3780, Note_on_c, 4, 74, 80
6, 3827, Note_off_c, 4, 74, 64
6, 3827, Note_off_c, 4, 71, 64
6, 3840, Note_on_c, 4, 67, 80
6, 3840, Note_on_c, 4, 72, 80
6, 3900, Note_off_c, 4, 72, 64
6, 3900, Note_off_c, 4, 67, 64
6, 3960, Note_on_c, 4, 60, 80
6, 4020, Note_off_c, 4, 60, 64
6, 5340, Note_on_c, 4, 60, 80
6, 5387, Note_off_c, 4, 60, 64
6, 5400, Note_on_c, 4, 64, 80
6, 5447, Note_off_c, 4, 64, 64
6, 5460, Note_on_c, 4, 67, 80
6, 5507, Note_off_c, 4, 67, 64
6, 5520, Note_on_c, 4, 64, 80
6, 5520, Note_on_c, 4, 72, 80
6, 5567, Note_off_c, 4, 72, 64
6, 5580, Note_on_c, 4, 76, 80
6, 5627, Note_off_c, 4, 76, 64
6, 5627, Note_off_c, 4, 64, 64
6, 5640, Note_on_c, 4, 71, 80
6, 5640, Note_on_c, 4, 67, 80
6, 5640, Note_on_c, 4, 74, 80
6, 5687, Note_off_c, 4, 74, 64
6, 5700, Note_on_c, 4, 77, 80
6, 5747, Note_off_c, 4, 77, 64
6, 5747, Note_off_c, 4, 67, 64
6, 5747, Note_off_c, 4, 71, 64
6, 5760, Note_on_c, 4, 67, 80
6, 5760, Note_on_c, 4, 72, 80
6, 5760, Note_on_c, 4, 76, 80
6, 5807, Note_off_c, 4, 76, 64
6, 5820, Note_on_c, 4, 74, 80
6, 5855, Note_off_c, 4, 72, 64
6, 5855, Note_off_c, 4, 67, 64
6, 5867, Note_off_c, 4, 74, 64
6, 5880, Note_on_c, 4, 64, 80
6, 5880, Note_on_c, 4, 72, 80
6, 5927, Note_off_c, 4, 72, 64
6, 5940, Note_on_c, 4, 74, 80
6, 5975, Note_off_c, 4, 64, 64
6, 5987, Note_off_c, 4, 74, 64
6, 6000, Note_on_c, 4, 67, 80
6, 6000, Note_on_c, 4, 76, 80
6, 6047, Note_off_c, 4, 76, 64
6, 6060, Note_on_c, 4, 79, 80
6, 6095, Note_off_c, 4, 67, 64
6, 6107, Note_off_c, 4, 79, 64
6, 6120, Note_on_c, 4, 72, 80
6, 6120, Note_on_c, 4, 78, 80
6, 6167, Note_off_c, 4, 78, 64
6, 6180, Note_on_c, 4, 81, 80
6, 6215, Note_off_c, 4, 72, 64
6, 6227, Note_off_c, 4, 81, 64
6, 6240, Note_on_c, 4, 71, 80
6, 6240, Note_on_c, 4, 79, 80
6, 6335, Note_off_c, 4, 79, 64
6, 6335, Note_off_c, 4, 71, 64
6, 6360, Note_on_c, 4, 67, 80
6, 6360, Note_on_c, 4, 67, 80
6, 6455, Note_off_c, 4, 67, 64
6, 6455, Note_off_c, 4, 67, 64
6, 6780, Note_on_c, 4, 60, 80
6, 6827, Note_off_c, 4, 60, 64
6, 6840, Note_on_c, 4, 62, 80
6, 6887, Note_off_c, 4, 62, 64
6, 6900, Note_on_c, 4, 64, 80
6, 6947, Note_off_c, 4, 64, 64
6, 6960, Note_on_c, 4, 65, 80
6, 7007, Note_off_c, 4, 65, 64
6, 7020, Note_on_c, 4, 69, 80
6, 7067, Note_off_c, 4, 69, 64
6, 7080, Note_on_c, 4, 67, 80
6, 7127, Note_off_c, 4, 67, 64
6, 7140, Note_on_c, 4, 65, 80
6, 7187, Note_off_c, 4, 65, 64
6, 7200, Note_on_c, 4, 64, 80
6, 7247, Note_off_c, 4, 64, 64
6, 7260, Note_on_c, 4, 62, 80
6, 7307, Note_off_c, 4, 62, 64
6, 7320, Note_on_c, 4, 60, 80
6, 7367, Note_off_c, 4, 60, 64
6, 7380, Note_on_c, 4, 62, 80
6, 7427, Note_off_c, 4, 62, 64
6, 7440, Note_on_c, 4, 64, 80
6, 7487, Note_off_c, 4, 64, 64
6, 7500, Note_on_c, 4, 60, 80
6, 7547, Note_off_c, 4, 60, 64
6, 7560, Note_on_c, 4, 62, 80
6, 7607, Note_off_c, 4, 62, 64
6, 7620, Note_on_c, 4, 64, 80
6, 7667, Note_off_c, 4, 64, 64
6, 7680, Note_on_c, 4, 65, 80
6, 7727, Note_off_c, 4, 65, 64
6, 7740, Note_on_c, 4, 62, 80
6, 7787, Note_off_c, 4, 62, 64
6, 7800, Note_on_c, 4, 64, 80
6, 7847, Note_off_c, 4, 64, 64
6, 7860, Note_on_c, 4, 65, 80
6, 7907, Note_off_c, 4, 65, 64
6, 7920, Note_on_c, 4, 67, 80
6, 7967, Note_off_c, 4, 67, 64
6, 7980, Note_on_c, 4, 69, 80
6, 8027, Note_off_c, 4, 69, 64
6, 8040, Note_on_c, 4, 65, 80
6, 8087, Note_off_c, 4, 65, 64
6, 8100, Note_on_c, 4, 67, 80
6, 8147, Note_off_c, 4, 67, 64
6, 8160, Note_on_c, 4, 64, 80
6, 8207, Note_off_c, 4, 64, 64
6, 8220, Note_on_c, 4, 65, 80
6, 8267, Note_off_c, 4, 65, 64
6, 8280, Note_on_c, 4, 62, 80
6, 8327, Note_off_c, 4, 62, 64
6, 8340, Note_on_c, 4, 64, 80
6, 8387, Note_off_c, 4, 64, 64
6, 8400, Note_on_c, 4, 60, 80
6, 8447, Note_off_c, 4, 60, 64
6, 8460, Note_on_c, 4, 62, 80
6, 8507, Note_off_c, 4, 62, 64
6, 8520, Note_on_c, 4, 59, 80
6, 8567, Note_off_c, 4, 59, 64
6, 8580, Note_on_c, 4, 60, 80
6, 8627, Note_off_c, 4, 60, 64
6, 8640, Note_on_c, 4, 57, 80
6, 8687, Note_off_c, 4, 57, 64
6, 8700, Note_on_c, 4, 57, 80
6, 8747, Note_off_c, 4, 57, 64
6, 8760, Note_on_c, 4, 59, 80
6, 8807, Note_off_c, 4, 59, 64
6, 8820, Note_on_c, 4, 60, 80
6, 8867, Note_off_c, 4, 60, 64
6, 8880, Note_on_c, 4, 62, 80
6, 8927, Note_off_c, 4, 62, 64
6, 8940, Note_on_c, 4, 60, 80
6, 8987, Note_off_c, 4, 60, 64
6, 9000, Note_on_c, 4, 59, 80
6, 9047, Note_off_c, 4, 59, 64
6, 9060, Note_on_c, 4, 57, 80
6, 9107, Note_off_c, 4, 57, 64
6, 9120, Note_on_c, 4, 55, 80
6, 9167, Note_off_c, 4, 55, 64
6, 9180, Note_on_c, 4, 67, 80
6, 9227, Note_off_c, 4, 67, 64
6, 9240, Note_on_c, 4, 65, 80
6, 9287, Note_off_c, 4, 65, 64
6, 9300, Note_on_c, 4, 67, 80
6, 9347, Note_off_c, 4, 67, 64
6, 9360, Note_on_c, 4, 64, 80
6, 9407, Note_off_c, 4, 64, 64
6, 9420, Note_on_c, 4, 62, 80
6, 9467, Note_off_c, 4, 62, 64
6, 9480, Note_on_c, 4, 60, 80
6, 9527, Note_off_c, 4, 60, 64
6, 9540, Note_on_c, 4, 59, 80
6, 9587, Note_off_c, 4, 59, 64
6, 9600, Note_on_c, 4, 60, 80
6, 9647, Note_off_c, 4, 60, 64
6, 9660, Note_on_c, 4, 57, 80
6, 9707, Note_off_c, 4, 57, 64
6, 9720, Note_on_c, 4, 59, 80
6, 9767, Note_off_c, 4, 59, 64
6, 9780, Note_on_c, 4, 60, 80
6, 9827, Note_off_c, 4, 60, 64
6, 9840, Note_on_c, 4, 62, 80
6, 9887, Note_off_c, 4, 62, 64
6, 9900, Note_on_c, 4, 64, 80
6, 9947, Note_off_c, 4, 64, 64
6, 9960, Note_on_c, 4, 60, 80
6, 10007, Note_off_c, 4, 60, 64
6, 10020, Note_on_c, 4, 62, 80
6, 10067, Note_off_c, 4, 62, 64
6, 10080, Note_on_c, 4, 59, 80
6, 10127, Note_off_c, 4, 59, 64
6, 10140, Note_on_c, 4, 55, 80
6, 10187, Note_off_c, 4, 55, 64
6, 10200, Note_on_c, 4, 59, 80
6, 10247, Note_off_c, 4, 59, 64
6, 10260, Note_on_c, 4, 62, 80
6, 10307, Note_off_c, 4, 62, 64
6, 10320, Note_on_c, 4, 67, 80
6, 10320, Note_on_c, 4, 74, 80
6, 10415, Note_off_c, 4, 74, 64
6, 10415, Note_off_c, 4, 67, 64
6, 10440, Note_on_c, 4, 67, 80
6, 10440, Note_on_c, 4, 74, 80
6, 10535, Note_off_c, 4, 74, 64
6, 10535, Note_off_c, 4, 67, 64
6, 10560, Note_on_c, 4, 76, 80
6, 10560, Note_on_c, 4, 67, 80
6, 10607, Note_off_c, 4, 76, 64
6, 10620, Note_on_c, 4, 72, 80
6, 10667, Note_off_c, 4, 72, 64
6, 10680, Note_on_c, 4, 76, 80
6, 10727, Note_off_c, 4, 76, 64
6, 10740, Note_on_c, 4, 79, 80
6, 10750, Note_off_c, 4, 67, 64
6, 10787, Note_off_c, 4, 79, 64
6, 10800, Note_on_c, 4, 84, 80
6, 10800, Note_on_c, 4, 79, 80
6, 10847, Note_off_c, 4, 79, 64
6, 10847, Note_off_c, 4, 84, 64
6, 10860, Note_on_c, 4, 72, 80
6, 10907, Note_off_c, 4, 72, 64
6, 10920, Note_on_c, 4, 67, 80
6, 10967, Note_off_c, 4, 67, 64
6, 10980, Note_on_c, 4, 64, 80
6, 11027, Note_off_c, 4, 64, 64
6, 11040, Note_on_c, 4, 60, 80
6, 11135, Note_off_c, 4, 60, 64
6, 11160, Note_on_c, 4, 72, 80
6, 11160, Note_on_c, 4, 64, 80
6, 11255, Note_off_c, 4, 64, 64
6, 11255, Note_off_c, 4, 72, 64
6, 11280, Note_on_c, 4, 64, 80
6, 11280, Note_on_c, 4, 72, 80
6, 11470, Note_off_c, 4, 72, 64
6, 11470, Note_off_c, 4, 64, 64
6, 14940, Note_on_c, 4, 55, 80
6, 14987, Note_off_c, 4, 55, 64
6, 15000, Note_on_c, 4, 59, 80
6, 15047, Note_off_c, 4, 59, 64
6, 15060, Note_on_c, 4, 62, 80
6, 15107, Note_off_c, 4, 62, 64
6, 15120, Note_on_c, 4, 67, 80
6, 15167, Note_off_c, 4, 67, 64
6, 15180, Note_on_c, 4, 71, 80
6, 15227, Note_off_c, 4, 71, 64
6, 15240, Note_on_c, 4, 74, 80
6, 15287, Note_off_c, 4, 74, 64
6, 15300, Note_on_c, 4, 71, 80
6, 15347, Note_off_c, 4, 71, 64
6, 15360, Note_on_c, 4, 67, 80
6, 15360, Note_on_c, 4, 72, 80
6, 15407, Note_off_c, 4, 72, 64
6, 15420, Note_on_c, 4, 74, 80
6, 15467, Note_off_c, 4, 74, 64
6, 15480, Note_on_c, 4, 76, 80
6, 15527, Note_off_c, 4, 76, 64
6, 15540, Note_on_c, 4, 74, 80
6, 15550, Note_off_c, 4, 67, 64
6, 15587, Note_off_c, 4, 74, 64
6, 15600, Note_on_c, 4, 64, 80
6, 15600, Note_on_c, 4, 72, 80
6, 15647, Note_off_c, 4, 72, 64
6, 15660, Note_on_c, 4, 71, 80
6, 15707, Note_off_c, 4, 71, 64
6, 15720, Note_on_c, 4, 69, 80
6, 15767, Note_off_c, 4, 69, 64
6, 15780, Note_on_c, 4, 67, 80
6, 15790, Note_off_c, 4, 64, 64
6, 15827, Note_off_c, 4, 67, 64
6, 15840, Note_on_c, 4, 62, 80
6, 15840, Note_on_c, 4, 66, 80
6, 15935, Note_off_c, 4, 66, 64
6, 15960, Note_on_c, 4, 81, 80
6, 16007, Note_off_c, 4, 81, 64
6, 16020, Note_on_c, 4, 78, 80
6, 16030, Note_off_c, 4, 62, 64
6, 16067, Note_off_c, 4, 78, 64
6, 16080, Note_on_c, 4, 74, 80
6, 16080, Note_on_c, 4, 62, 80
6, 16175, Note_off_c, 4, 62, 64
6, 16175, Note_off_c, 4, 74, 64
6, 16200, Note_on_c, 4, 74, 80
6, 16200, Note_on_c, 4, 62, 80
6, 16295, Note_off_c, 4, 62, 64
6, 16295, Note_off_c, 4, 74, 64
6, 16320, Note_on_c, 4, 62, 80
6, 16320, Note_on_c, 4, 74, 80
6, 16367, Note_off_c, 4, 74, 64
6, 16380, Note_on_c, 4, 78, 80
6, 16427, Note_off_c, 4, 78, 64
6, 16440, Note_on_c, 4, 81, 80
6, 16487, Note_off_c, 4, 81, 64
6, 16500, Note_on_c, 4, 79, 80
6, 16510, Note_off_c, 4, 62, 64
6, 16547, Note_off_c, 4, 79, 64
6, 16560, Note_on_c, 4, 69, 80
6, 16560, Note_on_c, 4, 78, 80
6, 16607, Note_off_c, 4, 78, 64
6, 16620, Note_on_c, 4, 76, 80
6, 16655, Note_off_c, 4, 69, 64
6, 16667, Note_off_c, 4, 76, 64
6, 16680, Note_on_c, 4, 69, 80
6, 16680, Note_on_c, 4, 74, 80
6, 16727, Note_off_c, 4, 74, 64
6, 16740, Note_on_c, 4, 72, 80
6, 16775, Note_off_c, 4, 69, 64
6, 16787, Note_off_c, 4, 72, 64
6, 16800, Note_on_c, 4, 69, 80
6, 16800, Note_on_c, 4, 72, 80
6, 16847, Note_off_c, 4, 72, 64
6, 16860, Note_on_c, 4, 69, 80
6, 16907, Note_off_c, 4, 69, 64
6, 16920, Note_on_c, 4, 74, 80
6, 16967, Note_off_c, 4, 74, 64
6, 16980, Note_on_c, 4, 72, 80
6, 16990, Note_off_c, 4, 69, 64
6, 17027, Note_off_c, 4, 72, 64
6, 17040, Note_on_c, 4, 71, 80
6, 17040, Note_on_c, 4, 79, 80
6, 17135, Note_off_c, 4, 79, 64
6, 17135, Note_off_c, 4, 71, 64
6, 17160, Note_on_c, 4, 67, 80
6, 17160, Note_on_c, 4, 79, 80
6, 17255, Note_off_c, 4, 79, 64
6, 17255, Note_off_c, 4, 67, 64
6, 17280, Note_on_c, 4, 67, 80
6, 17280, Note_on_c, 4, 79, 80
6, 17327, Note_off_c, 4, 79, 64
6, 17340, Note_on_c, 4, 83, 80
6, 17387, Note_off_c, 4, 83, 64
6, 17400, Note_on_c, 4, 86, 80
6, 17447, Note_off_c, 4, 86, 64
6, 17460, Note_on_c, 4, 84, 80
6, 17470, Note_off_c, 4, 67, 64
6, 17507, Note_off_c, 4, 84, 64
6, 17520, Note_on_c, 4, 74, 80
6, 17520, Note_on_c, 4, 83, 80
6, 17567, Note_off_c, 4, 83, 64
6, 17580, Note_on_c, 4, 81, 80
6, 17615, Note_off_c, 4, 74, 64
6, 17627, Note_off_c, 4, 81, 64
6, 17640, Note_on_c, 4, 74, 80
6, 17640, Note_on_c, 4, 79, 80
6, 17687, Note_off_c, 4, 79, 64
6, 17700, Note_on_c, 4, 77, 80
6, 17735, Note_off_c, 4, 74, 64
6, 17747, Note_off_c, 4, 77, 64
6, 17760, Note_on_c, 4, 67, 80
6, 17760, Note_on_c, 4, 77, 80
6, 17807, Note_off_c, 4, 77, 64
6, 17820, Note_on_c, 4, 74, 80
6, 17867, Note_off_c, 4, 74, 64
6, 17880, Note_on_c, 4, 79, 80
6, 17927, Note_off_c, 4, 79, 64
6, 17940, Note_on_c, 4, 77, 80
6, 17950, Note_off_c, 4, 67, 64
6, 17987, Note_off_c, 4, 77, 64
6, 18000, Note_on_c, 4, 67, 80
6, 18000, Note_on_c, 4, 76, 80
6, 18047, Note_off_c, 4, 76, 64
6, 18060, Note_on_c, 4, 74, 80
6, 18107, Note_off_c, 4, 74, 64
6, 18120, Note_on_c, 4, 72, 80
6, 18167, Note_off_c, 4, 72, 64
6, 18180, Note_on_c, 4, 71, 80
6, 18190, Note_off_c, 4, 67, 64
6, 18227, Note_off_c, 4, 71, 64
6, 18240, Note_on_c, 4, 66, 80
6, 18240, Note_on_c, 4, 69, 80
6, 18287, Note_off_c, 4, 69, 64
6, 18300, Note_on_c, 4, 74, 80
6, 18335, Note_off_c, 4, 66, 64
6, 18347, Note_off_c, 4, 74, 64
6, 18360, Note_on_c, 4, 69, 80
6, 18360, Note_on_c, 4, 78, 80
6, 18407, Note_off_c, 4, 78, 64
6, 18420, Note_on_c, 4, 74, 80
6, 18455, Note_off_c, 4, 69, 64
6, 18467, Note_off_c, 4, 74, 64
6, 18480, Note_on_c, 4, 67, 80
6, 18480, Note_on_c, 4, 79, 80
6, 18527, Note_off_c, 4, 79, 64
6, 18540, Note_on_c, 4, 74, 80
6, 18575, Note_off_c, 4, 67, 64
6, 18587, Note_off_c, 4, 74, 64
6, 18600, Note_on_c, 4, 67, 80
6, 18600, Note_on_c, 4, 72, 80
6, 18647, Note_off_c, 4, 72, 64
6, 18660, Note_on_c, 4, 71, 80
6, 18695, Note_off_c, 4, 67, 64
6, 18707, Note_off_c, 4, 71, 64
6, 18720, Note_on_c, 4, 69, 80
6, 18720, Note_on_c, 4, 69, 80
6, 18767, Note_off_c, 4, 69, 64
6, 18780, Note_on_c, 4, 79, 80
6, 18827, Note_off_c, 4, 79, 64
6, 18840, Note_on_c, 4, 78, 80
6, 18887, Note_off_c, 4, 78, 64
6, 18900, Note_on_c, 4, 76, 80
6, 18910, Note_off_c, 4, 69, 64
6, 18947, Note_off_c, 4, 76, 64
6, 18960, Note_on_c, 4, 69, 80
6, 18960, Note_on_c, 4, 78, 80
6, 19007, Note_off_c, 4, 78, 64
6, 19020, Note_on_c, 4, 69, 80
6, 19067, Note_off_c, 4, 69, 64
6, 19080, Note_on_c, 4, 71, 80
6, 19127, Note_off_c, 4, 71, 64
6, 19140, Note_on_c, 4, 69, 80
6, 19150, Note_off_c, 4, 69, 64
6, 19187, Note_off_c, 4, 69, 64
6, 19200, Note_on_c, 4, 67, 80
6, 19247, Note_off_c, 4, 67, 64
6, 19260, Note_on_c, 4, 74, 80
6, 19307, Note_off_c, 4, 74, 64
6, 19320, Note_on_c, 4, 79, 80
6, 19367, Note_off_c, 4, 79, 64
6, 19380, Note_on_c, 4, 71, 80
6, 19427, Note_off_c, 4, 71, 64
6, 19440, Note_on_c, 4, 69, 80
6, 19487, Note_off_c, 4, 69, 64
6, 19500, Note_on_c, 4, 79, 80
6, 19547, Note_off_c, 4, 79, 64
6, 19560, Note_on_c, 4, 69, 80
6, 19607, Note_off_c, 4, 69, 64
6, 19620, Note_on_c, 4, 78, 80
6, 19667, Note_off_c, 4, 78, 64
6, 19680, Note_on_c, 4, 71, 80
6, 19680, Note_on_c, 4, 79, 80
6, 19870, Note_off_c, 4, 79, 64
6, 19870, Note_off_c, 4, 71, 64
6, 21240, Note_on_c, 4, 71, 80
6, 21240, Note_on_c, 4, 74, 80
6, 21335, Note_off_c, 4, 74, 64
6, 21335, Note_off_c, 4, 71, 64
6, 21360, Note_on_c, 4, 71, 80
6, 21360, Note_on_c, 4, 74, 80
6, 21407, Note_off_c, 4, 74, 64
6, 21407, Note_off_c, 4, 71, 64
6, 21420, Note_on_c, 4, 71, 80
6, 21420, Note_on_c, 4, 67, 80
6, 21467, Note_off_c, 4, 67, 64
6, 21467, Note_off_c, 4, 71, 64
6, 21480, Note_on_c, 4, 69, 80
6, 21480, Note_on_c, 4, 72, 80
6, 21527, Note_off_c, 4, 72, 64
6, 21527, Note_off_c, 4, 69, 64
6, 21540, Note_on_c, 4, 69, 80
6, 21540, Note_on_c, 4, 66, 80
6, 21587, Note_off_c, 4, 66, 64
6, 21587, Note_off_c, 4, 69, 64
6, 21600, Note_on_c, 4, 71, 80
6, 21600, Note_on_c, 4, 67, 80
6, 21790, Note_off_c, 4, 67, 64
6, 21790, Note_off_c, 4, 71, 64
6, 23100, Note_on_c, 4, 62, 80
6, 23147, Note_off_c, 4, 62, 64
6, 23160, Note_on_c, 4, 74, 80
6, 23207, Note_off_c, 4, 74, 64
6, 23220, Note_on_c, 4, 62, 80
6, 23267, Note_off_c, 4, 62, 64
6, 23280, Note_on_c, 4, 72, 80
6, 23327, Note_off_c, 4, 72, 64
6, 23340, Note_on_c, 4, 62, 80
6, 23387, Note_off_c, 4, 62, 64
6, 23400, Note_on_c, 4, 69, 80
6, 23447, Note_off_c, 4, 69, 64
6, 23460, Note_on_c, 4, 62, 80
6, 23507, Note_off_c, 4, 62, 64
6, 23520, Note_on_c, 4, 71, 80
6, 23567, Note_off_c, 4, 71, 64
6, 23580, Note_on_c, 4, 62, 80
6, 23627, Note_off_c, 4, 62, 64
6, 23640, Note_on_c, 4, 74, 80
6, 23687, Note_off_c, 4, 74, 64
6, 23700, Note_on_c, 4, 62, 80
6, 23747, Note_off_c, 4, 62, 64
6, 23760, Note_on_c, 4, 72, 80
6, 23807, Note_off_c, 4, 72, 64
6, 23820, Note_on_c, 4, 62, 80
6, 23867, Note_off_c, 4, 62, 64
6, 23880, Note_on_c, 4, 69, 80
6, 23927, Note_off_c, 4, 69, 64
6, 23940, Note_on_c, 4, 62, 80
6, 23987, Note_off_c, 4, 62, 64
6, 24000, Note_on_c, 4, 62, 80
6, 24000, Note_on_c, 4, 71, 80
6, 24047, Note_off_c, 4, 71, 64
6, 24060, Note_on_c, 4, 72, 80
6, 24107, Note_off_c, 4, 72, 64
6, 24120, Note_on_c, 4, 71, 80
6, 24167, Note_off_c, 4, 71, 64
6, 24180, Note_on_c, 4, 72, 80
6, 24190, Note_off_c, 4, 62, 64
6, 24227, Note_off_c, 4, 72, 64
6, 24240, Note_on_c, 4, 69, 80
6, 24240, Note_on_c, 4, 74, 80
6, 24287, Note_off_c, 4, 74, 64
6, 24300, Note_on_c, 4, 76, 80
6, 24347, Note_off_c, 4, 76, 64
6, 24360, Note_on_c, 4, 77, 80
6, 24407, Note_off_c, 4, 77, 64
6, 24420, Note_on_c, 4, 69, 80
6, 24430, Note_off_c, 4, 69, 64
6, 24467, Note_off_c, 4, 69, 64
6, 24480, Note_on_c, 4, 68, 80
6, 24480, Note_on_c, 4, 68, 80
6, 24575, Note_off_c, 4, 68, 64
6, 24600, Note_on_c, 4, 77, 80
6, 24670, Note_off_c, 4, 68, 64
6, 24695, Note_off_c, 4, 77, 64
6, 24720, Note_on_c, 4, 69, 80
6, 24720, Note_on_c, 4, 76, 80
6, 24815, Note_off_c, 4, 76, 64
6, 24815, Note_off_c, 4, 69, 64
6, 24840, Note_on_c, 4, 68, 80
6, 24840, Note_on_c, 4, 74, 80
6, 24935, Note_off_c, 4, 74, 64
6, 24935, Note_off_c, 4, 68, 64
6, 24960, Note_on_c, 4, 69, 80
6, 24960, Note_on_c, 4, 72, 80
6, 25055, Note_off_c, 4, 72, 64
6, 25055, Note_off_c, 4, 69, 64
6, 25080, Note_on_c, 4, 71, 80
6, 25080, Note_on_c, 4, 74, 80
6, 25175, Note_off_c, 4, 74, 64
6, 25175, Note_off_c, 4, 71, 64
6, 25200, Note_on_c, 4, 72, 80
6, 25200, Note_on_c, 4, 76, 80
6, 25247, Note_off_c, 4, 72, 64
6, 25260, Note_on_c, 4, 74, 80
6, 25307, Note_off_c, 4, 74, 64
6, 25320, Note_on_c, 4, 71, 80
6, 25367, Note_off_c, 4, 71, 64
6, 25380, Note_on_c, 4, 72, 80
6, 25427, Note_off_c, 4, 72, 64
6, 25440, Note_on_c, 4, 69, 80
6, 25535, Note_off_c, 4, 76, 64
6, 25560, Note_on_c, 4, 81, 80
6, 25655, Note_off_c, 4, 81, 64
6, 25680, Note_on_c, 4, 81, 80
6, 25727, Note_off_c, 4, 69, 64
6, 25800, Note_on_c, 4, 74, 80
6, 25870, Note_off_c, 4, 81, 64
6, 25895, Note_off_c, 4, 74, 64
6, 25920, Note_on_c, 4, 76, 80
6, 25920, Note_on_c, 4, 80, 80
6, 25967, Note_off_c, 4, 80, 64
6, 25967, Note_off_c, 4, 76, 64
6, 25980, Note_on_c, 4, 64, 80
6, 26027, Note_off_c, 4, 64, 64
6, 26040, Note_on_c, 4, 68, 80
6, 26087, Note_off_c, 4, 68, 64
6, 26100, Note_on_c, 4, 71, 80
6, 26147, Note_off_c, 4, 71, 64
6, 26160, Note_on_c, 4, 64, 80
6, 26160, Note_on_c, 4, 76, 80
6, 26207, Note_off_c, 4, 76, 64
6, 26220, Note_on_c, 4, 79, 80
6, 26267, Note_off_c, 4, 79, 64
6, 26267, Note_off_c, 4, 64, 64
6, 26280, Note_on_c, 4, 67, 80
6, 26280, Note_on_c, 4, 77, 80
6, 26327, Note_off_c, 4, 77, 64
6, 26327, Note_off_c, 4, 67, 64
6, 26340, Note_on_c, 4, 65, 80
6, 26340, Note_on_c, 4, 71, 80
6, 26387, Note_off_c, 4, 71, 64
6, 26387, Note_off_c, 4, 65, 64
6, 26400, Note_on_c, 4, 55, 80
6, 26400, Note_on_c, 4, 72, 80
6, 26400, Note_on_c, 4, 64, 80
6, 26590, Note_off_c, 4, 64, 64
6, 26590, Note_off_c, 4, 72, 64
6, 26590, Note_off_c, 4, 55, 64
6, 29820, Note_on_c, 4, 55, 80
6, 29867, Note_off_c, 4, 55, 64
6, 29880, Note_on_c, 4, 59, 80
6, 29927, Note_off_c, 4, 59, 64
6, 29940, Note_on_c, 4, 62, 80
6, 29987, Note_off_c, 4, 62, 64
6, 30000, Note_on_c, 4, 67, 80
6, 30095, Note_off_c, 4, 67, 64
6, 30120, Note_on_c, 4, 67, 80
6, 30120, Note_on_c, 4, 74, 80
6, 30215, Note_off_c, 4, 74, 64
6, 30215, Note_off_c, 4, 67, 64
6, 30240, Note_on_c, 4, 67, 80
6, 30240, Note_on_c, 4, 76, 80
6, 30335, Note_off_c, 4, 76, 64
6, 30335, Note_off_c, 4, 67, 64
6, 30360, Note_on_c, 4, 67, 80
6, 30360, Note_on_c, 4, 76, 80
6, 30360, Note_on_c, 4, 79, 80
6, 30455, Note_off_c, 4, 79, 64
6, 30480, Note_on_c, 4, 84, 80
6, 30575, Note_off_c, 4, 84, 64
6, 30575, Note_off_c, 4, 76, 64
6, 30575, Note_off_c, 4, 67, 64
6, 30600, Note_on_c, 4, 77, 80
6, 30600, Note_on_c, 4, 69, 80
6, 30600, Note_on_c, 4, 76, 80
6, 30695, Note_off_c, 4, 76, 64
6, 30695, Note_off_c, 4, 69, 64
6, 30720, Note_on_c, 4, 69, 80
6, 30720, Note_on_c, 4, 74, 80
6, 30815, Note_off_c, 4, 74, 64
6, 30815, Note_off_c, 4, 69, 64
6, 30815, Note_off_c, 4, 77, 64
6, 30840, Note_on_c, 4, 77, 80
6, 30840, Note_on_c, 4, 74, 80
6, 30840, Note_on_c, 4, 71, 80
6, 30935, Note_off_c, 4, 77, 64
6, 30960, Note_on_c, 4, 83, 80
6, 31055, Note_off_c, 4, 83, 64
6, 31055, Note_off_c, 4, 71, 64
6, 31055, Note_off_c, 4, 74, 64
6, 31080, Note_on_c, 4, 71, 80
6, 31080, Note_on_c, 4, 74, 80
6, 31080, Note_on_c, 4, 76, 80
6, 31175, Note_off_c, 4, 76, 64
6, 31175, Note_off_c, 4, 74, 64
6, 31175, Note_off_c, 4, 71, 64
6, 31200, Note_on_c, 4, 69, 80
6, 31200, Note_on_c, 4, 72, 80
6, 31200, Note_on_c, 4, 76, 80
6, 31295, Note_off_c, 4, 76, 64
6, 31320, Note_on_c, 4, 76, 80
6, 31415, Note_off_c, 4, 76, 64
6, 31440, Note_on_c, 4, 81, 80
6, 31535, Note_off_c, 4, 72, 64
6, 31535, Note_off_c, 4, 69, 64
6, 31560, Note_on_c, 4, 69, 80
6, 31560, Note_on_c, 4, 72, 80
6, 31655, Note_off_c, 4, 72, 64
6, 31655, Note_off_c, 4, 69, 64
6, 31655, Note_off_c, 4, 81, 64
6, 31680, Note_on_c, 4, 81, 80
6, 31680, Note_on_c, 4, 71, 80
6, 31775, Note_off_c, 4, 71, 64
6, 31775, Note_off_c, 4, 81, 64
6, 31800, Note_on_c, 4, 81, 80
6, 31800, Note_on_c, 4, 71, 80
6, 31895, Note_off_c, 4, 71, 64
6, 31895, Note_off_c, 4, 81, 64
6, 31920, Note_on_c, 4, 80, 80
6, 31920, Note_on_c, 4, 71, 80
6, 32110, Note_off_c, 4, 71, 64
6, 32110, Note_off_c, 4, 80, 64
6, 32160, Note_on_c, 4, 81, 80
6, 32160, Note_on_c, 4, 69, 80
6, 32207, Note_off_c, 4, 81, 64
6, 32220, Note_on_c, 4, 76, 80
6, 32267, Note_off_c, 4, 76, 64
6, 32280, Note_on_c, 4, 72, 80
6, 32327, Note_off_c, 4, 72, 64
6, 32340, Note_on_c, 4, 69, 80
6, 32350, Note_off_c, 4, 69, 64
6, 32387, Note_off_c, 4, 69, 64
6, 32460, Note_on_c, 4, 77, 80
6, 32507, Note_off_c, 4, 77, 64
6, 32520, Note_on_c, 4, 76, 80
6, 32567, Note_off_c, 4, 76, 64
6, 32580, Note_on_c, 4, 68, 80
6, 32627, Note_off_c, 4, 68, 64
6, 32640, Note_on_c, 4, 69, 80
6, 32687, Note_off_c, 4, 69, 64
6, 32700, Note_on_c, 4, 57, 80
6, 32747, Note_off_c, 4, 57, 64
6, 32760, Note_on_c, 4, 59, 80
6, 32807, Note_off_c, 4, 59, 64
6, 32820, Note_on_c, 4, 60, 80
6, 32867, Note_off_c, 4, 60, 64
6, 32880, Note_on_c, 4, 62, 80
6, 32927, Note_off_c, 4, 62, 64
6, 32940, Note_on_c, 4, 64, 80
6, 32987, Note_off_c, 4, 64, 64
6, 33000, Note_on_c, 4, 65, 80
6, 33047, Note_off_c, 4, 65, 64
6, 33060, Note_on_c, 4, 62, 80
6, 33107, Note_off_c, 4, 62, 64
6, 33120, Note_on_c, 4, 60, 80
6, 33167, Note_off_c, 4, 60, 64
6, 33180, Note_on_c, 4, 62, 80
6, 33227, Note_off_c, 4, 62, 64
6, 33240, Note_on_c, 4, 64, 80
6, 33287, Note_off_c, 4, 64, 64
6, 33300, Note_on_c, 4, 62, 80
6, 33347, Note_off_c, 4, 62, 64
6, 33360, Note_on_c, 4, 60, 80
6, 33407, Note_off_c, 4, 60, 64
6, 33420, Note_on_c, 4, 59, 80
6, 33467, Note_off_c, 4, 59, 64
6, 33480, Note_on_c, 4, 60, 80
6, 33527, Note_off_c, 4, 60, 64
6, 33540, Note_on_c, 4, 57, 80
6, 33587, Note_off_c, 4, 57, 64
6, 33600, Note_on_c, 4, 62, 80
6, 33647, Note_off_c, 4, 62, 64
6, 33660, Note_on_c, 4, 64, 80
6, 33707, Note_off_c, 4, 64, 64
6, 33720, Note_on_c, 4, 65, 80
6, 33767, Note_off_c, 4, 65, 64
6, 33780, Note_on_c, 4, 62, 80
6, 33827, Note_off_c, 4, 62, 64
6, 33840, Note_on_c, 4, 64, 80
6, 33887, Note_off_c, 4, 64, 64
6, 33900, Note_on_c, 4, 62, 80
6, 33947, Note_off_c, 4, 62, 64
6, 33960, Note_on_c, 4, 60, 80
6, 34007, Note_off_c, 4, 60, 64
6, 34020, Note_on_c, 4, 59, 80
6, 34067, Note_off_c, 4, 59, 64
6, 34080, Note_on_c, 4, 60, 80
6, 34127, Note_off_c, 4, 60, 64
6, 34140, Note_on_c, 4, 62, 80
6, 34187, Note_off_c, 4, 62, 64
6, 34200, Note_on_c, 4, 64, 80
6, 34247, Note_off_c, 4, 64, 64
6, 34260, Note_on_c, 4, 62, 80
6, 34307, Note_off_c, 4, 62, 64
6, 34320, Note_on_c, 4, 60, 80
6, 34367, Note_off_c, 4, 60, 64
6, 34380, Note_on_c, 4, 59, 80
6, 34427, Note_off_c, 4, 59, 64
6, 34440, Note_on_c, 4, 60, 80
6, 34487, Note_off_c, 4, 60, 64
6, 34500, Note_on_c, 4, 57, 80
6, 34547, Note_off_c, 4, 57, 64
6, 34560, Note_on_c, 4, 59, 80
6, 34607, Note_off_c, 4, 59, 64
6, 34620, Note_on_c, 4, 60, 80
6, 34667, Note_off_c, 4, 60, 64
6, 34680, Note_on_c, 4, 62, 80
6, 34727, Note_off_c, 4, 62, 64
6, 34740, Note_on_c, 4, 64, 80
6, 34787, Note_off_c, 4, 64, 64
6, 34800, Note_on_c, 4, 65, 80
6, 34847, Note_off_c, 4, 65, 64
6, 34860, Note_on_c, 4, 62, 80
6, 34907, Note_off_c, 4, 62, 64
6, 34920, Note_on_c, 4, 60, 80
6, 34967, Note_off_c, 4, 60, 64
6, 34980, Note_on_c, 4, 59, 80
6, 35027, Note_off_c, 4, 59, 64
6, 35040, Note_on_c, 4, 64, 80
6, 35087, Note_off_c, 4, 64, 64
6, 35100, Note_on_c, 4, 65, 80
6, 35147, Note_off_c, 4, 65, 64
6, 35160, Note_on_c, 4, 64, 80
6, 35207, Note_off_c, 4, 64, 64
6, 35220, Note_on_c, 4, 62, 80
6, 35267, Note_off_c, 4, 62, 64
6, 35280, Note_on_c, 4, 60, 80
6, 35327, Note_off_c, 4, 60, 64
6, 35340, Note_on_c, 4, 62, 80
6, 35387, Note_off_c, 4, 62, 64
6, 35400, Note_on_c, 4, 60, 80
6, 35447, Note_off_c, 4, 60, 64
6, 35460, Note_on_c, 4, 59, 80
6, 35507, Note_off_c, 4, 59, 64
6, 35520, Note_on_c, 4, 57, 80
6, 35567, Note_off_c, 4, 57, 64
6, 35580, Note_on_c, 4, 60, 80
6, 35627, Note_off_c, 4, 60, 64
6, 35640, Note_on_c, 4, 59, 80
6, 35687, Note_off_c, 4, 59, 64
6, 35700, Note_on_c, 4, 57, 80
6, 35747, Note_off_c, 4, 57, 64
6, 35760, Note_on_c, 4, 59, 80
6, 35807, Note_off_c, 4, 59, 64
6, 35820, Note_on_c, 4, 59, 80
6, 35867, Note_off_c, 4, 59, 64
6, 35880, Note_on_c, 4, 61, 80
6, 35927, Note_off_c, 4, 61, 64
6, 35940, Note_on_c, 4, 63, 80
6, 35987, Note_off_c, 4, 63, 64
6, 36000, Note_on_c, 4, 64, 80
6, 36047, Note_off_c, 4, 64, 64
6, 36060, Note_on_c, 4, 67, 80
6, 36107, Note_off_c, 4, 67, 64
6, 36120, Note_on_c, 4, 79, 80
6, 36167, Note_off_c, 4, 79, 64
6, 36180, Note_on_c, 4, 77, 80
6, 36227, Note_off_c, 4, 77, 64
6, 36240, Note_on_c, 4, 69, 80
6, 36240, Note_on_c, 4, 76, 80
6, 36287, Note_off_c, 4, 76, 64
6, 36300, Note_on_c, 4, 74, 80
6, 36347, Note_off_c, 4, 74, 64
6, 36360, Note_on_c, 4, 76, 80
6, 36407, Note_off_c, 4, 76, 64
6, 36420, Note_on_c, 4, 73, 80
6, 36467, Note_off_c, 4, 73, 64
6, 36467, Note_off_c, 4, 69, 64
6, 36480, Note_on_c, 4, 69, 80
6, 36480, Note_on_c, 4, 77, 80
6, 36527, Note_off_c, 4, 77, 64
6, 36540, Note_on_c, 4, 76, 80
6, 36587, Note_off_c, 4, 76, 64
6, 36600, Note_on_c, 4, 77, 80
6, 36647, Note_off_c, 4, 77, 64
6, 36660, Note_on_c, 4, 76, 80
6, 36707, Note_off_c, 4, 76, 64
6, 36720, Note_on_c, 4, 74, 80
6, 36767, Note_off_c, 4, 74, 64
6, 36780, Note_on_c, 4, 72, 80
6, 36827, Note_off_c, 4, 72, 64
6, 36827, Note_off_c, 4, 69, 64
6, 36840, Note_on_c, 4, 67, 80
6, 36840, Note_on_c, 4, 74, 80
6, 36887, Note_off_c, 4, 74, 64
6, 36900, Note_on_c, 4, 71, 80
6, 36960, Note_on_c, 4, 76, 80
6, 37007, Note_off_c, 4, 76, 64
6, 37020, Note_on_c, 4, 74, 80
6, 37067, Note_off_c, 4, 74, 64
6, 37080, Note_on_c, 4, 76, 80
6, 37127, Note_off_c, 4, 76, 64
6, 37140, Note_on_c, 4, 74, 80
6, 37187, Note_off_c, 4, 74, 64
6, 37200, Note_on_c, 4, 72, 80
6, 37247, Note_off_c, 4, 72, 64
6, 37307, Note_off_c, 4, 71, 64
6, 37307, Note_off_c, 4, 67, 64
6, 37320, Note_on_c, 4, 64, 80
6, 37320, Note_on_c, 4, 72, 80
6, 37367, Note_off_c, 4, 72, 64
6, 37380, Note_on_c, 4, 69, 80
6, 37427, Note_off_c, 4, 69, 64
6, 37427, Note_off_c, 4, 64, 64
6, 37440, Note_on_c, 4, 69, 80
6, 37487, Note_off_c, 4, 69, 64
6, 37500, Note_on_c, 4, 76, 80
6, 37547, Note_off_c, 4, 76, 64
6, 37560, Note_on_c, 4, 84, 80
6, 37607, Note_off_c, 4, 84, 64
6, 37620, Note_on_c, 4, 76, 80
6, 37667, Note_off_c, 4, 76, 64
6, 37680, Note_on_c, 4, 84, 80
6, 37727, Note_off_c, 4, 84, 64
6, 37740, Note_on_c, 4, 76, 80
6, 37787, Note_off_c, 4, 76, 64
6, 37800, Note_on_c, 4, 84, 80
6, 37847, Note_off_c, 4, 84, 64
6, 37860, Note_on_c, 4, 76, 80
6, 37907, Note_off_c, 4, 76, 64
6, 37920, Note_on_c, 4, 74, 80
6, 37967, Note_off_c, 4, 74, 64
6, 37980, Note_on_c, 4, 79, 80
6, 38027, Note_off_c, 4, 79, 64
6, 38040, Note_on_c, 4, 83, 80
6, 38087, Note_off_c, 4, 83, 64
6, 38100, Note_on_c, 4, 79, 80
6, 38147, Note_off_c, 4, 79, 64
6, 38160, Note_on_c, 4, 84, 80
6, 38207, Note_off_c, 4, 84, 64
6, 38220, Note_on_c, 4, 79, 80
6, 38267, Note_off_c, 4, 79, 64
6, 38280, Note_on_c, 4, 76, 80
6, 38327, Note_off_c, 4, 76, 64
6, 38340, Note_on_c, 4, 72, 80
6, 38387, Note_off_c, 4, 72, 64
6, 38400, Note_on_c, 4, 81, 80
6, 38447, Note_off_c, 4, 81, 64
6, 38460, Note_on_c, 4, 77, 80
6, 38507, Note_off_c, 4, 77, 64
6, 38520, Note_on_c, 4, 72, 80
6, 38567, Note_off_c, 4, 72, 64
6, 38580, Note_on_c, 4, 74, 80
6, 38627, Note_off_c, 4, 74, 64
6, 38640, Note_on_c, 4, 64, 80
6, 38687, Note_off_c, 4, 64, 64
6, 38700, Note_on_c, 4, 72, 80
6, 38747, Note_off_c, 4, 72, 64
6, 38760, Note_on_c, 4, 62, 80
6, 38807, Note_off_c, 4, 62, 64
6, 38820, Note_on_c, 4, 71, 80
6, 38867, Note_off_c, 4, 71, 64
6, 38880, Note_on_c, 4, 72, 80
6, 38927, Note_off_c, 4, 72, 64
6, 38940, Note_on_c, 4, 79, 80
6, 38987, Note_off_c, 4, 79, 64
6, 39000, Note_on_c, 4, 76, 80
6, 39047, Note_off_c, 4, 76, 64
6, 39060, Note_on_c, 4, 72, 80
6, 39107, Note_off_c, 4, 72, 64
6, 39180, Note_on_c, 4, 77, 80
6, 39227, Note_off_c, 4, 77, 64
6, 39240, Note_on_c, 4, 74, 80
6, 39287, Note_off_c, 4, 74, 64
6, 39300, Note_on_c, 4, 71, 80
6, 39347, Note_off_c, 4, 71, 64
6, 39360, Note_on_c, 4, 72, 80
6, 39360, Note_on_c, 4, 72, 80
6, 39455, Note_off_c, 4, 72, 64
6, 39455, Note_off_c, 4, 72, 64
6, 39480, Note_on_c, 4, 76, 80
6, 39480, Note_on_c, 4, 76, 80
6, 39527, Note_off_c, 4, 76, 64
6, 39527, Note_off_c, 4, 76, 64
6, 39540, Note_on_c, 4, 79, 80
6, 39540, Note_on_c, 4, 79, 80
6, 39587, Note_off_c, 4, 79, 64
6, 39587, Note_off_c, 4, 79, 64
6, 39600, Note_on_c, 4, 72, 80
6, 39600, Note_on_c, 4, 84, 80
6, 39695, Note_off_c, 4, 84, 64
6, 39695, Note_off_c, 4, 72, 64
6, 39720, Note_on_c, 4, 72, 80
6, 39720, Note_on_c, 4, 84, 80
6, 39815, Note_off_c, 4, 84, 64
6, 39815, Note_off_c, 4, 72, 64
6, 39840, Note_on_c, 4, 72, 80
6, 39840, Note_on_c, 4, 84, 80
6, 39887, Note_off_c, 4, 84, 64
6, 39900, Note_on_c, 4, 76, 80
6, 39947, Note_off_c, 4, 76, 64
6, 39960, Note_on_c, 4, 79, 80
6, 40007, Note_off_c, 4, 79, 64
6, 40020, Note_on_c, 4, 77, 80
6, 40030, Note_off_c, 4, 72, 64
6, 40067, Note_off_c, 4, 77, 64
6, 40080, Note_on_c, 4, 67, 80
6, 40080, Note_on_c, 4, 76, 80
6, 40127, Note_off_c, 4, 76, 64
6, 40140, Note_on_c, 4, 74, 80
6, 40187, Note_off_c, 4, 74, 64
6, 40200, Note_on_c, 4, 72, 80
6, 40247, Note_off_c, 4, 72, 64
6, 40260, Note_on_c, 4, 70, 80
6, 40270, Note_off_c, 4, 67, 64
6, 40307, Note_off_c, 4, 70, 64
6, 40320, Note_on_c, 4, 60, 80
6, 40320, Note_on_c, 4, 71, 80
6, 40367, Note_off_c, 4, 71, 64
6, 40380, Note_on_c, 4, 67, 80
6, 40427, Note_off_c, 4, 67, 64
6, 40440, Note_on_c, 4, 72, 80
6, 40487, Note_off_c, 4, 72, 64
6, 40500, Note_on_c, 4, 71, 80
6, 40510, Note_off_c, 4, 60, 64
6, 40547, Note_off_c, 4, 71, 64
6, 40560, Note_on_c, 4, 60, 80
6, 40560, Note_on_c, 4, 69, 80
6, 40655, Note_off_c, 4, 69, 64
6, 40655, Note_off_c, 4, 60, 64
6, 40680, Note_on_c, 4, 65, 80
6, 40680, Note_on_c, 4, 77, 80
6, 40775, Note_off_c, 4, 77, 64
6, 40775, Note_off_c, 4, 65, 64
6, 40800, Note_on_c, 4, 65, 80
6, 40800, Note_on_c, 4, 76, 80
6, 40847, Note_off_c, 4, 76, 64
6, 40860, Note_on_c, 4, 74, 80
6, 40907, Note_off_c, 4, 74, 64
6, 40920, Note_on_c, 4, 76, 80
6, 40967, Note_off_c, 4, 76, 64
6, 40980, Note_on_c, 4, 77, 80
6, 40990, Note_off_c, 4, 65, 64
6, 41027, Note_off_c, 4, 77, 64
6, 41040, Note_on_c, 4, 79, 80
6, 41087, Note_off_c, 4, 79, 64
6, 41100, Note_on_c, 4, 81, 80
6, 41147, Note_off_c, 4, 81, 64
6, 41160, Note_on_c, 4, 79, 80
6, 41207, Note_off_c, 4, 79, 64
6, 41220, Note_on_c, 4, 77, 80
6, 41267, Note_off_c, 4, 77, 64
6, 41280, Note_on_c, 4, 77, 80
6, 41327, Note_off_c, 4, 77, 64
6, 41340, Note_on_c, 4, 74, 80
6, 41387, Note_off_c, 4, 74, 64
6, 41400, Note_on_c, 4, 79, 80
6, 41447, Note_off_c, 4, 79, 64
6, 41460, Note_on_c, 4, 77, 80
6, 41507, Note_off_c, 4, 77, 64
6, 41520, Note_on_c, 4, 76, 80
6, 41567, Note_off_c, 4, 76, 64
6, 41580, Note_on_c, 4, 72, 80
6, 41627, Note_off_c, 4, 72, 64
6, 41640, Note_on_c, 4, 84, 80
6, 41735, Note_off_c, 4, 84, 64
6, 41760, Note_on_c, 4, 84, 80
6, 41855, Note_off_c, 4, 84, 64
6, 41880, Note_on_c, 4, 86, 80
6, 41975, Note_off_c, 4, 86, 64
6, 42000, Note_on_c, 4, 76, 80
6, 42047, Note_off_c, 4, 76, 64
6, 42060, Note_on_c, 4, 84, 80
6, 42107, Note_off_c, 4, 84, 64
6, 42120, Note_on_c, 4, 74, 80
6, 42167, Note_off_c, 4, 74, 64
6, 42180, Note_on_c, 4, 83, 80
6, 42227, Note_off_c, 4, 83, 64
6, 42240, Note_on_c, 4, 84, 80
6, 42240, Note_on_c, 4, 72, 80
6, 42287, Note_off_c, 4, 84, 64
6, 42300, Note_on_c, 4, 79, 80
6, 42347, Note_off_c, 4, 79, 64
6, 42360, Note_on_c, 4, 76, 80
6, 42407, Note_off_c, 4, 76, 64
6, 42420, Note_on_c, 4, 72, 80
6, 42430, Note_off_c, 4, 72, 64
6, 42467, Note_off_c, 4, 72, 64
6, 42540, Note_on_c, 4, 81, 80
6, 42587, Note_off_c, 4, 81, 64
6, 42600, Note_on_c, 4, 77, 80
6, 42647, Note_off_c, 4, 77, 64
6, 42660, Note_on_c, 4, 74, 80
6, 42707, Note_off_c, 4, 74, 64
6, 42780, Note_on_c, 4, 79, 80
6, 42827, Note_off_c, 4, 79, 64
6, 42840, Note_on_c, 4, 76, 80
6, 42887, Note_off_c, 4, 76, 64
6, 42900, Note_on_c, 4, 72, 80
6, 42947, Note_off_c, 4, 72, 64
6, 43020, Note_on_c, 4, 77, 80
6, 43067, Note_off_c, 4, 77, 64
6, 43080, Note_on_c, 4, 74, 80
6, 43127, Note_off_c, 4, 74, 64
6, 43140, Note_on_c, 4, 71, 80
6, 43187, Note_off_c, 4, 71, 64
6, 43260, Note_on_c, 4, 84, 80
6, 43307, Note_off_c, 4, 84, 64
6, 43320, Note_on_c, 4, 79, 80
6, 43367, Note_off_c, 4, 79, 64
6, 43380, Note_on_c, 4, 76, 80
6, 43427, Note_off_c, 4, 76, 64
6, 43500, Note_on_c, 4, 81, 80
6, 43547, Note_off_c, 4, 81, 64
6, 43560, Note_on_c, 4, 77, 80
6, 43607, Note_off_c, 4, 77, 64
6, 43620, Note_on_c, 4, 72, 80
6, 43667, Note_off_c, 4, 72, 64
6, 43740, Note_on_c, 4, 79, 80
6, 43787, Note_off_c, 4, 79, 64
6, 43800, Note_on_c, 4, 76, 80
6, 43847, Note_off_c, 4, 76, 64
6, 43860, Note_on_c, 4, 72, 80
6, 43907, Note_off_c, 4, 72, 64
6, 43980, Note_on_c, 4, 77, 80
6, 44027, Note_off_c, 4, 77, 64
6, 44040, Note_on_c, 4, 74, 80
6, 44087, Note_off_c, 4, 74, 64
6, 44100, Note_on_c, 4, 71, 80
6, 44147, Note_off_c, 4, 71, 64
6, 44160, Note_on_c, 4, 72, 80
6, 44207, Note_off_c, 4, 72, 64
6, 44220, Note_on_c, 4, 76, 80
6, 44267, Note_off_c, 4, 76, 64
6, 44280, Note_on_c, 4, 79, 80
6, 44327, Note_off_c, 4, 79, 64
6, 44340, Note_on_c, 4, 84, 80
6, 44387, Note_off_c, 4, 84, 64
6, 44400, Note_on_c, 4, 74, 80
6, 44447, Note_off_c, 4, 74, 64
6, 44460, Note_on_c, 4, 84, 80
6, 44507, Note_off_c, 4, 84, 64
6, 44520, Note_on_c, 4, 74, 80
6, 44567, Note_off_c, 4, 74, 64
6, 44580, Note_on_c, 4, 83, 80
6, 44627, Note_off_c, 4, 83, 64
6, 44640, Note_on_c, 4, 84, 80
6, 44687, Note_off_c, 4, 84, 64
6, 44700, Note_on_c, 4, 79, 80
6, 44747, Note_off_c, 4, 79, 64
6, 44760, Note_on_c, 4, 76, 80
6, 44807, Note_off_c, 4, 76, 64
6, 44820, Note_on_c, 4, 72, 80
6, 44867, Note_off_c, 4, 72, 64
6, 44880, Note_on_c, 4, 74, 80
6, 44927, Note_off_c, 4, 74, 64
6, 44940, Note_on_c, 4, 84, 80
6, 44987, Note_off_c, 4, 84, 64
6, 45000, Note_on_c, 4, 74, 80
6, 45047, Note_off_c, 4, 74, 64
6, 45060, Note_on_c, 4, 83, 80
6, 45107, Note_off_c, 4, 83, 64
6, 45120, Note_on_c, 4, 72, 80
6, 45120, Note_on_c, 4, 76, 80
6, 45120, Note_on_c, 4, 84, 80
6, 45310, Note_off_c, 4, 84, 64
6, 45310, Note_off_c, 4, 76, 64
6, 45310, Note_off_c, 4, 72, 64
6, 45360, Note_on_c, 4, 64, 80
6, 45360, Note_on_c, 4, 72, 80
6, 45455, Note_off_c, 4, 72, 64
6, 45455, Note_off_c, 4, 64, 64
6, 45480, Note_on_c, 4, 64, 80
6, 45480, Note_on_c, 4, 72, 80
6, 45575, Note_off_c, 4, 72, 64
6, 45575, Note_off_c, 4, 64, 64
6, 45600, Note_on_c, 4, 64, 80
6, 45600, Note_on_c, 4, 72, 80
6, 45982, Note_off_c, 4, 72, 64
6, 45982, Note_off_c, 4, 64, 64
6, 46080, Note_on_c, 4, 64, 80
6, 46080, Note_on_c, 4, 72, 80
6, 46140, Note_off_c, 4, 64, 64
6, 46175, Note_off_c, 4, 72, 64
6, 46200, Note_on_c, 4, 76, 80
6, 46200, Note_on_c, 4, 84, 80
6, 46247, Note_off_c, 4, 84, 64
6, 46260, Note_off_c, 4, 76, 64
6, 46260, Note_on_c, 4, 83, 80
6, 46307, Note_off_c, 4, 83, 64
6, 46320, Note_on_c, 4, 77, 80
6, 46320, Note_on_c, 4, 84, 80
6, 46380, Note_off_c, 4, 77, 64
6, 46415, Note_off_c, 4, 84, 64
6, 46440, Note_on_c, 4, 65, 80
6, 46440, Note_on_c, 4, 72, 80
6, 46487, Note_off_c, 4, 72, 64
6, 46500, Note_off_c, 4, 65, 64
6, 46500, Note_on_c, 4, 71, 80
6, 46547, Note_off_c, 4, 71, 64
6, 46560, Note_on_c, 4, 67, 80
6, 46560, Note_on_c, 4, 72, 80
6, 46607, Note_off_c, 4, 72, 64
6, 46620, Note_on_c, 4, 74, 80
6, 46667, Note_off_c, 4, 74, 64
6, 46680, Note_on_c, 4, 76, 80
6, 46727, Note_off_c, 4, 76, 64
6, 46740, Note_on_c, 4, 77, 80
6, 46750, Note_off_c, 4, 67, 64
6, 46787, Note_off_c, 4, 77, 64
6, 46800, Note_on_c, 4, 67, 80
6, 46800, Note_on_c, 4, 79, 80
6, 46847, Note_off_c, 4, 79, 64
6, 46860, Note_off_c, 4, 67, 64
6, 46860, Note_on_c, 4, 77, 80
6, 46907, Note_off_c, 4, 77, 64
6, 46920, Note_on_c, 4, 67, 80
6, 46920, Note_on_c, 4, 76, 80
6, 46967, Note_off_c, 4, 76, 64
6, 46980, Note_off_c, 4, 67, 64
6, 46980, Note_on_c, 4, 74, 80
6, 47027, Note_off_c, 4, 74, 64
6, 47040, Note_on_c, 4, 69, 80
6, 47040, Note_on_c, 4, 79, 80
6, 47087, Note_off_c, 4, 79, 64
6, 47100, Note_off_c, 4, 69, 64
6, 47100, Note_on_c, 4, 77, 80
6, 47147, Note_off_c, 4, 77, 64
6, 47160, Note_on_c, 4, 71, 80
6, 47160, Note_on_c, 4, 76, 80
6, 47207, Note_off_c, 4, 76, 64
6, 47220, Note_off_c, 4, 71, 64
6, 47220, Note_on_c, 4, 79, 80
6, 47267, Note_off_c, 4, 79, 64
6, 47280, Note_on_c, 4, 72, 80
6, 47280, Note_on_c, 4, 79, 80
6, 47327, Note_off_c, 4, 79, 64
6, 47340, Note_off_c, 4, 72, 64
6, 47340, Note_on_c, 4, 77, 80
6, 47387, Note_off_c, 4, 77, 64
6, 47400, Note_on_c, 4, 67, 80
6, 47400, Note_on_c, 4, 76, 80
6, 47447, Note_off_c, 4, 76, 64
6, 47460, Note_off_c, 4, 67, 64
6, 47460, Note_on_c, 4, 74, 80
6, 47507, Note_off_c, 4, 74, 64
6, 47520, Note_on_c, 4, 67, 80
6, 47520, Note_on_c, 4, 76, 80
6, 47567, Note_off_c, 4, 76, 64
6, 47580, Note_off_c, 4, 67, 64
6, 47580, Note_on_c, 4, 74, 80
6, 47627, Note_off_c, 4, 74, 64
6, 47640, Note_on_c, 4, 67, 80
6, 47640, Note_on_c, 4, 72, 80
6, 47687, Note_off_c, 4, 72, 64
6, 47700, Note_off_c, 4, 67, 64
6, 47700, Note_on_c, 4, 76, 80
6, 47747, Note_off_c, 4, 76, 64
6, 47760, Note_on_c, 4, 67, 80
6, 47760, Note_on_c, 4, 79, 80
6, 47807, Note_off_c, 4, 79, 64
6, 47820, Note_off_c, 4, 67, 64
6, 47820, Note_on_c, 4, 76, 80
6, 47867, Note_off_c, 4, 76, 64
6, 47880, Note_on_c, 4, 71, 80
6, 47880, Note_on_c, 4, 77, 80
6, 47927, Note_off_c, 4, 77, 64
6, 47940, Note_off_c, 4, 71, 64
6, 47940, Note_on_c, 4, 74, 80
6, 47987, Note_off_c, 4, 74, 64
6, 48000, Note_on_c, 4, 72, 80
6, 48060, Note_off_c, 4, 72, 64
6, 48120, Note_on_c, 4, 60, 80
6, 48180, Note_off_c, 4, 60, 64
6, 48240, Note_on_c, 4, 60, 80
6, 48300, Note_off_c, 4, 60, 64
6, 48360, Note_on_c, 4, 60, 80
6, 48420, Note_off_c, 4, 60, 64
6, 48480, Note_on_c, 4, 60, 80
6, 48540, Note_off_c, 4, 60, 64
6, 48600, Note_on_c, 4, 60, 80
6, 48660, Note_off_c, 4, 60, 64
6, 48720, Note_on_c, 4, 60, 80
6, 48780, Note_off_c, 4, 60, 64
6, 48840, Note_on_c, 4, 60, 80
6, 48900, Note_off_c, 4, 60, 64
6, 48960, Note_on_c, 4, 57, 80
6, 49020, Note_off_c, 4, 57, 64
6, 49080, Note_on_c, 4, 57, 80
6, 49140, Note_off_c, 4, 57, 64
6, 49200, Note_on_c, 4, 59, 80
6, 49260, Note_off_c, 4, 59, 64
6, 49320, Note_on_c, 4, 59, 80
6, 49380, Note_off_c, 4, 59, 64
6, 49440, Note_on_c, 4, 60, 80
6, 49500, Note_off_c, 4, 60, 64
6, 49560, Note_on_c, 4, 72, 80
6, 49560, Note_on_c, 4, 76, 80
6, 49607, Note_off_c, 4, 76, 64
6, 49607, Note_off_c, 4, 72, 64
6, 49620, Note_on_c, 4, 76, 80
6, 49620, Note_on_c, 4, 79, 80
6, 49667, Note_off_c, 4, 79, 64
6, 49667, Note_off_c, 4, 76, 64
6, 49680, Note_on_c, 4, 76, 80
6, 49680, Note_on_c, 4, 79, 80
6, 49727, Note_off_c, 4, 79, 64
6, 49727, Note_off_c, 4, 76, 64
6, 49740, Note_on_c, 4, 72, 80
6, 49740, Note_on_c, 4, 76, 80
6, 49787, Note_off_c, 4, 76, 64
6, 49787, Note_off_c, 4, 72, 64
6, 49800, Note_on_c, 4, 74, 80
6, 49800, Note_on_c, 4, 77, 80
6, 49847, Note_off_c, 4, 77, 64
6, 49847, Note_off_c, 4, 74, 64
6, 49860, Note_on_c, 4, 71, 80
6, 49860, Note_on_c, 4, 74, 80
6, 49907, Note_off_c, 4, 74, 64
6, 49907, Note_off_c, 4, 71, 64
6, 49920, Note_on_c, 4, 67, 80
6, 49920, Note_on_c, 4, 72, 80
6, 49980, Note_off_c, 4, 72, 64
6, 49980, Note_off_c, 4, 67, 64
6, 50040, Note_on_c, 4, 60, 80
6, 50100, Note_off_c, 4, 60, 64
6, 51420, Note_on_c, 4, 60, 80
6, 51467, Note_off_c, 4, 60, 64
6, 51480, Note_on_c, 4, 64, 80
6, 51527, Note_off_c, 4, 64, 64
6, 51540, Note_on_c, 4, 67, 80
6, 51587, Note_off_c, 4, 67, 64
6, 51600, Note_on_c, 4, 64, 80
6, 51600, Note_on_c, 4, 72, 80
6, 51647, Note_off_c, 4, 72, 64
6, 51660, Note_on_c, 4, 76, 80
6, 51707, Note_off_c, 4, 76, 64
6, 51707, Note_off_c, 4, 64, 64
6, 51720, Note_on_c, 4, 71, 80
6, 51720, Note_on_c, 4, 67, 80
6, 51720, Note_on_c, 4, 74, 80
6, 51767, Note_off_c, 4, 74, 64
6, 51780, Note_on_c, 4, 77, 80
6, 51827, Note_off_c, 4, 77, 64
6, 51827, Note_off_c, 4, 67, 64
6, 51827, Note_off_c, 4, 71, 64
6, 51840, Note_on_c, 4, 67, 80
6, 51840, Note_on_c, 4, 72, 80
6, 51840, Note_on_c, 4, 76, 80
6, 51887, Note_off_c, 4, 76, 64
6, 51900, Note_on_c, 4, 74, 80
6, 51935, Note_off_c, 4, 72, 64
6, 51935, Note_off_c, 4, 67, 64
6, 51947, Note_off_c, 4, 74, 64
6, 51960, Note_on_c, 4, 64, 80
6, 51960, Note_on_c, 4, 72, 80
6, 52007, Note_off_c, 4, 72, 64
6, 52020, Note_on_c, 4, 74, 80
6, 52055, Note_off_c, 4, 64, 64
6, 52067, Note_off_c, 4, 74, 64
6, 52080, Note_on_c, 4, 67, 80
6, 52080, Note_on_c, 4, 76, 80
6, 52127, Note_off_c, 4, 76, 64
6, 52140, Note_on_c, 4, 79, 80
6, 52175, Note_off_c, 4, 67, 64
6, 52187, Note_off_c, 4, 79, 64
6, 52200, Note_on_c, 4, 72, 80
6, 52200, Note_on_c, 4, 78, 80
6, 52247, Note_off_c, 4, 78, 64
6, 52260, Note_on_c, 4, 81, 80
6, 52295, Note_off_c, 4, 72, 64
6, 52307, Note_off_c, 4, 81, 64
6, 52320, Note_on_c, 4, 71, 80
6, 52320, Note_on_c, 4, 79, 80
6, 52415, Note_off_c, 4, 79, 64
6, 52415, Note_off_c, 4, 71, 64
6, 52440, Note_on_c, 4, 67, 80
6, 52440, Note_on_c, 4, 67, 80
6, 52535, Note_off_c, 4, 67, 64
6, 52535, Note_off_c, 4, 67, 64
6, 52860, Note_on_c, 4, 60, 80
6, 52907, Note_off_c, 4, 60, 64
6, 52920, Note_on_c, 4, 62, 80
6, 52967, Note_off_c, 4, 62, 64
6, 52980, Note_on_c, 4, 64, 80
6, 53027, Note_off_c, 4, 64, 64
6, 53040, Note_on_c, 4, 65, 80
6, 53087, Note_off_c, 4, 65, 64
6, 53100, Note_on_c, 4, 69, 80
6, 53147, Note_off_c, 4, 69, 64
6, 53160, Note_on_c, 4, 67, 80
6, 53207, Note_off_c, 4, 67, 64
6, 53220, Note_on_c, 4, 65, 80
6, 53267, Note_off_c, 4, 65, 64
6, 53280, Note_on_c, 4, 64, 80
6, 53327, Note_off_c, 4, 64, 64
6, 53340, Note_on_c, 4, 62, 80
6, 53387, Note_off_c, 4, 62, 64
6, 53400, Note_on_c, 4, 60, 80
6, 53447, Note_off_c, 4, 60, 64
6, 53460, Note_on_c, 4, 62, 80
6, 53507, Note_off_c, 4, 62, 64
6, 53520, Note_on_c, 4, 64, 80
6, 53567, Note_off_c, 4, 64, 64
6, 53580, Note_on_c, 4, 60, 80
6, 53627, Note_off_c, 4, 60, 64
6, 53640, Note_on_c, 4, 62, 80
6, 53687, Note_off_c, 4, 62, 64
6, 53700, Note_on_c, 4, 64, 80
6, 53747, Note_off_c, 4, 64, 64
6, 53760, Note_on_c, 4, 65, 80
6, 53807, Note_off_c, 4, 65, 64
6, 53820, Note_on_c, 4, 62, 80
6, 53867, Note_off_c, 4, 62, 64
6, 53880, Note_on_c, 4, 64, 80
6, 53927, Note_off_c, 4, 64, 64
6, 53940, Note_on_c, 4, 65, 80
6, 53987, Note_off_c, 4, 65, 64
6, 54000, Note_on_c, 4, 67, 80
6, 54047, Note_off_c, 4, 67, 64
6, 54060, Note_on_c, 4, 69, 80
6, 54107, Note_off_c, 4, 69, 64
6, 54120, Note_on_c, 4, 65, 80
6, 54167, Note_off_c, 4, 65, 64
6, 54180, Note_on_c, 4, 67, 80
6, 54227, Note_off_c, 4, 67, 64
6, 54240, Note_on_c, 4, 64, 80
6, 54287, Note_off_c, 4, 64, 64
6, 54300, Note_on_c, 4, 65, 80
6, 54347, Note_off_c, 4, 65, 64
6, 54360, Note_on_c, 4, 62, 80
6, 54407, Note_off_c, 4, 62, 64
6, 54420, Note_on_c, 4, 64, 80
6, 54467, Note_off_c, 4, 64, 64
6, 54480, Note_on_c, 4, 60, 80
6, 54527, Note_off_c, 4, 60, 64
6, 54540, Note_on_c, 4, 62, 80
6, 54587, Note_off_c, 4, 62, 64
6, 54600, Note_on_c, 4, 59, 80
6, 54647, Note_off_c, 4, 59, 64
6, 54660, Note_on_c, 4, 60, 80
6, 54707, Note_off_c, 4, 60, 64
6, 54720, Note_on_c, 4, 57, 80
6, 54767, Note_off_c, 4, 57, 64
6, 54780, Note_on_c, 4, 57, 80
6, 54827, Note_off_c, 4, 57, 64
6, 54840, Note_on_c, 4, 59, 80
6, 54887, Note_off_c, 4, 59, 64
6, 54900, Note_on_c, 4, 60, 80
6, 54947, Note_off_c, 4, 60, 64
6, 54960, Note_on_c, 4, 62, 80
6, 55007, Note_off_c, 4, 62, 64
6, 55020, Note_on_c, 4, 60, 80
6, 55067, Note_off_c, 4, 60, 64
6, 55080, Note_on_c, 4, 59, 80
6, 55127, Note_off_c, 4, 59, 64
6, 55140, Note_on_c, 4, 57, 80
6, 55187, Note_off_c, 4, 57, 64
6, 55200, Note_on_c, 4, 55, 80
6, 55247, Note_off_c, 4, 55, 64
6, 55260, Note_on_c, 4, 67, 80
6, 55307, Note_off_c, 4, 67, 64
6, 55320, Note_on_c, 4, 65, 80
6, 55367, Note_off_c, 4, 65, 64
6, 55380, Note_on_c, 4, 67, 80
6, 55427, Note_off_c, 4, 67, 64
6, 55440, Note_on_c, 4, 64, 80
6, 55487, Note_off_c, 4, 64, 64
6, 55500, Note_on_c, 4, 62, 80
6, 55547, Note_off_c, 4, 62, 64
6, 55560, Note_on_c, 4, 60, 80
6, 55607, Note_off_c, 4, 60, 64
6, 55620, Note_on_c, 4, 59, 80
6, 55667, Note_off_c, 4, 59, 64
6, 55680, Note_on_c, 4, 60, 80
6, 55727, Note_off_c, 4, 60, 64
6, 55740, Note_on_c, 4, 57, 80
6, 55787, Note_off_c, 4, 57, 64
6, 55800, Note_on_c, 4, 59, 80
6, 55847, Note_off_c, 4, 59, 64
6, 55860, Note_on_c, 4, 60, 80
6, 55907, Note_off_c, 4, 60, 64
6, 55920, Note_on_c, 4, 62, 80
6, 55967, Note_off_c, 4, 62, 64
6, 55980, Note_on_c, 4, 64, 80
6, 56027, Note_off_c, 4, 64, 64
6, 56040, Note_on_c, 4, 60, 80
6, 56087, Note_off_c, 4, 60, 64
6, 56100, Note_on_c, 4, 62, 80
6, 56147, Note_off_c, 4, 62, 64
6, 56160, Note_on_c, 4, 59, 80
6, 56207, Note_off_c, 4, 59, 64
6, 56220, Note_on_c, 4, 55, 80
6, 56267, Note_off_c, 4, 55, 64
6, 56280, Note_on_c, 4, 59, 80
6, 56327, Note_off_c, 4, 59, 64
6, 56340, Note_on_c, 4, 62, 80
6, 56387, Note_off_c, 4, 62, 64
6, 56400, Note_on_c, 4, 67, 80
6, 56400, Note_on_c, 4, 74, 80
6, 56495, Note_off_c, 4, 74, 64
6, 56495, Note_off_c, 4, 67, 64
6, 56520, Note_on_c, 4, 67, 80
6, 56520, Note_on_c, 4, 74, 80
6, 56615, Note_off_c, 4, 74, 64
6, 56615, Note_off_c, 4, 67, 64
6, 56640, Note_on_c, 4, 76, 80
6, 56640, Note_on_c, 4, 67, 80
6, 56687, Note_off_c, 4, 76, 64
6, 56700, Note_on_c, 4, 72, 80
6, 56747, Note_off_c, 4, 72, 64
6, 56760, Note_on_c, 4, 76, 80
6, 56807, Note_off_c, 4, 76, 64
6, 56820, Note_on_c, 4, 79, 80
6, 56830, Note_off_c, 4, 67, 64
6, 56867, Note_off_c, 4, 79, 64
6, 56880, Note_on_c, 4, 84, 80
6, 56880, Note_on_c, 4, 79, 80
6, 56927, Note_off_c, 4, 79, 64
6, 56927, Note_off_c, 4, 84, 64
6, 56940, Note_on_c, 4, 72, 80
6, 56987, Note_off_c, 4, 72, 64
6, 57000, Note_on_c, 4, 67, 80
6, 57047, Note_off_c, 4, 67, 64
6, 57060, Note_on_c, 4, 64, 80
6, 57107, Note_off_c, 4, 64, 64
6, 57120, Note_on_c, 4, 60, 80
6, 57215, Note_off_c, 4, 60, 64
6, 57240, Note_on_c, 4, 72, 80
6, 57240, Note_on_c, 4, 64, 80
6, 57335, Note_off_c, 4, 64, 64
6, 57335, Note_off_c, 4, 72, 64
6, 57360, Note_on_c, 4, 64, 80
6, 57360, Note_on_c, 4, 72, 80
6, 57550, Note_off_c, 4, 72, 64
6, 57550, Note_off_c, 4, 64, 64
6, 61020, Note_on_c, 4, 55, 80
6, 61067, Note_off_c, 4, 55, 64
6, 61080, Note_on_c, 4, 59, 80
6, 61127, Note_off_c, 4, 59, 64
6, 61140, Note_on_c, 4, 62, 80
6, 61187, Note_off_c, 4, 62, 64
6, 61200, Note_on_c, 4, 67, 80
6, 61247, Note_off_c, 4, 67, 64
6, 61260, Note_on_c, 4, 71, 80
6, 61307, Note_off_c, 4, 71, 64
6, 61320, Note_on_c, 4, 74, 80
6, 61367, Note_off_c, 4, 74, 64
6, 61380, Note_on_c, 4, 71, 80
6, 61427, Note_off_c, 4, 71, 64
6, 61440, Note_on_c, 4, 67, 80
6, 61440, Note_on_c, 4, 72, 80
6, 61487, Note_off_c, 4, 72, 64
6, 61500, Note_on_c, 4, 74, 80
6, 61547, Note_off_c, 4, 74, 64
6, 61560, Note_on_c, 4, 76, 80
6, 61607, Note_off_c, 4, 76, 64
6, 61620, Note_on_c, 4, 74, 80
6, 61630, Note_off_c, 4, 67, 64
6, 61667, Note_off_c, 4, 74, 64
6, 61680, Note_on_c, 4, 64, 80
6, 61680, Note_on_c, 4, 72, 80
6, 61727, Note_off_c, 4, 72, 64
6, 61740, Note_on_c, 4, 71, 80
6, 61787, Note_off_c, 4, 71, 64
6, 61800, Note_on_c, 4, 69, 80
6, 61847, Note_off_c, 4, 69, 64
6, 61860, Note_on_c, 4, 67, 80
6, 61870, Note_off_c, 4, 64, 64
6, 61907, Note_off_c, 4, 67, 64
6, 61920, Note_on_c, 4, 62, 80
6, 61920, Note_on_c, 4, 66, 80
6, 62015, Note_off_c, 4, 66, 64
6, 62040, Note_on_c, 4, 81, 80
6, 62087, Note_off_c, 4, 81, 64
6, 62100, Note_on_c, 4, 78, 80
6, 62110, Note_off_c, 4, 62, 64
6, 62147, Note_off_c, 4, 78, 64
6, 62160, Note_on_c, 4, 74, 80
6, 62160, Note_on_c, 4, 62, 80
6, 62255, Note_off_c, 4, 62, 64
6, 62255, Note_off_c, 4, 74, 64
6, 62280, Note_on_c, 4, 74, 80
6, 62280, Note_on_c, 4, 62, 80
6, 62375, Note_off_c, 4, 62, 64
6, 62375, Note_off_c, 4, 74, 64
6, 62400, Note_on_c, 4, 62, 80
6, 62400, Note_on_c, 4, 74, 80
6, 62447, Note_off_c, 4, 74, 64
6, 62460, Note_on_c, 4, 78, 80
6, 62507, Note_off_c, 4, 78, 64
6, 62520, Note_on_c, 4, 81, 80
6, 62567, Note_off_c, 4, 81, 64
6, 62580, Note_on_c, 4, 79, 80
6, 62590, Note_off_c, 4, 62, 64
6, 62627, Note_off_c, 4, 79, 64
6, 62640, Note_on_c, 4, 69, 80
6, 62640, Note_on_c, 4, 78, 80
6, 62687, Note_off_c, 4, 78, 64
6, 62700, Note_on_c, 4, 76, 80
6, 62735, Note_off_c, 4, 69, 64
6, 62747, Note_off_c, 4, 76, 64
6, 62760, Note_on_c, 4, 69, 80
6, 62760, Note_on_c, 4, 74, 80
6, 62807, Note_off_c, 4, 74, 64
6, 62820, Note_on_c, 4, 72, 80
6, 62855, Note_off_c, 4, 69, 64
6, 62867, Note_off_c, 4, 72, 64
6, 62880, Note_on_c, 4, 69, 80
6, 62880, Note_on_c, 4, 72, 80
6, 62927, Note_off_c, 4, 72, 64
6, 62940, Note_on_c, 4, 69, 80
6, 62987, Note_off_c, 4, 69, 64
6, 63000, Note_on_c, 4, 74, 80
6, 63047, Note_off_c, 4, 74, 64
6, 63060, Note_on_c, 4, 72, 80
6, 63070, Note_off_c, 4, 69, 64
6, 63107, Note_off_c, 4, 72, 64
6, 63120, Note_on_c, 4, 71, 80
6, 63120, Note_on_c, 4, 79, 80
6, 63215, Note_off_c, 4, 79, 64
6, 63215, Note_off_c, 4, 71, 64
6, 63240, Note_on_c, 4, 67, 80
6, 63240, Note_on_c, 4, 79, 80
6, 63335, Note_off_c, 4, 79, 64
6, 63335, Note_off_c, 4, 67, 64
6, 63360, Note_on_c, 4, 67, 80
6, 63360, Note_on_c, 4, 79, 80
6, 63407, Note_off_c, 4, 79, 64
6, 63420, Note_on_c, 4, 83, 80
6, 63467, Note_off_c, 4, 83, 64
6, 63480, Note_on_c, 4, 86, 80
6, 63527, Note_off_c, 4, 86, 64
6, 63540, Note_on_c, 4, 84, 80
6, 63550, Note_off_c, 4, 67, 64
6, 63587, Note_off_c, 4, 84, 64
6, 63600, Note_on_c, 4, 74, 80
6, 63600, Note_on_c, 4, 83, 80
6, 63647, Note_off_c, 4, 83, 64
6, 63660, Note_on_c, 4, 81, 80
6, 63695, Note_off_c, 4, 74, 64
6, 63707, Note_off_c, 4, 81, 64
6, 63720, Note_on_c, 4, 74, 80
6, 63720, Note_on_c, 4, 79, 80
6, 63767, Note_off_c, 4, 79, 64
6, 63780, Note_on_c, 4, 77, 80
6, 63815, Note_off_c, 4, 74, 64
6, 63827, Note_off_c, 4, 77, 64
6, 63840, Note_on_c, 4, 67, 80
6, 63840, Note_on_c, 4, 77, 80
6, 63887, Note_off_c, 4, 77, 64
6, 63900, Note_on_c, 4, 74, 80
6, 63947, Note_off_c, 4, 74, 64
6, 63960, Note_on_c, 4, 79, 80
6, 64007, Note_off_c, 4, 79, 64
6, 64020, Note_on_c, 4, 77, 80
6, 64030, Note_off_c, 4, 67, 64
6, 64067, Note_off_c, 4, 77, 64
6, 64080, Note_on_c, 4, 67, 80
6, 64080, Note_on_c, 4, 76, 80
6, 64127, Note_off_c, 4, 76, 64
6, 64140, Note_on_c, 4, 74, 80
6, 64187, Note_off_c, 4, 74, 64
6, 64200, Note_on_c, 4, 72, 80
6, 64247, Note_off_c, 4, 72, 64
6, 64260, Note_on_c, 4, 71, 80
6, 64270, Note_off_c, 4, 67, 64
6, 64307, Note_off_c, 4, 71, 64
6, 64320, Note_on_c, 4, 66, 80
6, 64320, Note_on_c, 4, 69, 80
6, 64367, Note_off_c, 4, 69, 64
6, 64380, Note_on_c, 4, 74, 80
6, 64415, Note_off_c, 4, 66, 64
6, 64427, Note_off_c, 4, 74, 64
6, 64440, Note_on_c, 4, 69, 80
6, 64440, Note_on_c, 4, 78, 80
6, 64487, Note_off_c, 4, 78, 64
6, 64500, Note_on_c, 4, 74, 80
6, 64535, Note_off_c, 4, 69, 64
6, 64547, Note_off_c, 4, 74, 64
6, 64560, Note_on_c, 4, 67, 80
6, 64560, Note_on_c, 4, 79, 80
6, 64607, Note_off_c, 4, 79, 64
6, 64620, Note_on_c, 4, 74, 80
6, 64655, Note_off_c, 4, 67, 64
6, 64667, Note_off_c, 4, 74, 64
6, 64680, Note_on_c, 4, 67, 80
6, 64680, Note_on_c, 4, 72, 80
6, 64727, Note_off_c, 4, 72, 64
6, 64740, Note_on_c, 4, 71, 80
6, 64775, Note_off_c, 4, 67, 64
6, 64787, Note_off_c, 4, 71, 64
6, 64800, Note_on_c, 4, 69, 80
6, 64800, Note_on_c, 4, 69, 80
6, 64847, Note_off_c, 4, 69, 64
6, 64860, Note_on_c, 4, 79, 80
6, 64907, Note_off_c, 4, 79, 64
6, 64920, Note_on_c, 4, 78, 80
6, 64967, Note_off_c, 4, 78, 64
6, 64980, Note_on_c, 4, 76, 80
6, 64990, Note_off_c, 4, 69, 64
6, 65027, Note_off_c, 4, 76, 64
6, 65040, Note_on_c, 4, 69, 80
6, 65040, Note_on_c, 4, 78, 80
6, 65087, Note_off_c, 4, 78, 64
6, 65100, Note_on_c, 4, 69, 80
6, 65147, Note_off_c, 4, 69, 64
6, 65160, Note_on_c, 4, 71, 80
6, 65207, Note_off_c, 4, 71, 64
6, 65220, Note_on_c, 4, 69, 80
6, 65230, Note_off_c, 4, 69, 64
6, 65267, Note_off_c, 4, 69, 64
6, 65280, Note_on_c, 4, 67, 80
6, 65327, Note_off_c, 4, 67, 64
6, 65340, Note_on_c, 4, 74, 80
6, 65387, Note_off_c, 4, 74, 64
6, 65400, Note_on_c, 4, 79, 80
6, 65447, Note_off_c, 4, 79, 64
6, 65460, Note_on_c, 4, 71, 80
6, 65507, Note_off_c, 4, 71, 64
6, 65520, Note_on_c, 4, 69, 80
6, 65567, Note_off_c, 4, 69, 64
6, 65580, Note_on_c, 4, 79, 80
6, 65627, Note_off_c, 4, 79, 64
6, 65640, Note_on_c, 4, 69, 80
6, 65687, Note_off_c, 4, 69, 64
6, 65700, Note_on_c, 4, 78, 80
6, 65747, Note_off_c, 4, 78, 64
6, 65760, Note_on_c, 4, 71, 80
6, 65760, Note_on_c, 4, 79, 80
6, 65950, Note_off_c, 4, 79, 64
6, 65950, Note_off_c, 4, 71, 64
6, 67320, Note_on_c, 4, 71, 80
6, 67320, Note_on_c, 4, 74, 80
6, 67415, Note_off_c, 4, 74, 64
6, 67415, Note_off_c, 4, 71, 64
6, 67440, Note_on_c, 4, 71, 80
6, 67440, Note_on_c, 4, 74, 80
6, 67487, Note_off_c, 4, 74, 64
6, 67487, Note_off_c, 4, 71, 64
6, 67500, Note_on_c, 4, 71, 80
6, 67500, Note_on_c, 4, 67, 80
6, 67547, Note_off_c, 4, 67, 64
6, 67547, Note_off_c, 4, 71, 64
6, 67560, Note_on_c, 4, 69, 80
6, 67560, Note_on_c, 4, 72, 80
6, 67607, Note_off_c, 4, 72, 64
6, 67607, Note_off_c, 4, 69, 64
6, 67620, Note_on_c, 4, 69, 80
6, 67620, Note_on_c, 4, 66, 80
6, 67667, Note_off_c, 4, 66, 64
6, 67667, Note_off_c, 4, 69, 64
6, 67680, Note_on_c, 4, 71, 80
6, 67680, Note_on_c, 4, 67, 80
6, 67870, Note_off_c, 4, 67, 64
6, 67870, Note_off_c, 4, 71, 64
6, 69180, Note_on_c, 4, 62, 80
6, 69227, Note_off_c, 4, 62, 64
6, 69240, Note_on_c, 4, 74, 80
6, 69287, Note_off_c, 4, 74, 64
6, 69300, Note_on_c, 4, 62, 80
6, 69347, Note_off_c, 4, 62, 64
6, 69360, Note_on_c, 4, 72, 80
6, 69407, Note_off_c, 4, 72, 64
6, 69420, Note_on_c, 4, 62, 80
6, 69467, Note_off_c, 4, 62, 64
6, 69480, Note_on_c, 4, 69, 80
6, 69527, Note_off_c, 4, 69, 64
6, 69540, Note_on_c, 4, 62, 80
6, 69587, Note_off_c, 4, 62, 64
6, 69600, Note_on_c, 4, 71, 80
6, 69647, Note_off_c, 4, 71, 64
6, 69660, Note_on_c, 4, 62, 80
6, 69707, Note_off_c, 4, 62, 64
6, 69720, Note_on_c, 4, 74, 80
6, 69767, Note_off_c, 4, 74, 64
6, 69780, Note_on_c, 4, 62, 80
6, 69827, Note_off_c, 4, 62, 64
6, 69840, Note_on_c, 4, 72, 80
6, 69887, Note_off_c, 4, 72, 64
6, 69900, Note_on_c, 4, 62, 80
6, 69947, Note_off_c, 4, 62, 64
6, 69960, Note_on_c, 4, 69, 80
6, 70007, Note_off_c, 4, 69, 64
6, 70020, Note_on_c, 4, 62, 80
6, 70067, Note_off_c, 4, 62, 64
6, 70080, Note_on_c, 4, 62, 80
6, 70080, Note_on_c, 4, 71, 80
6, 70127, Note_off_c, 4, 71, 64
6, 70140, Note_on_c, 4, 72, 80
6, 70187, Note_off_c, 4, 72, 64
6, 70200, Note_on_c, 4, 71, 80
6, 70247, Note_off_c, 4, 71, 64
6, 70260, Note_on_c, 4, 72, 80
6, 70270, Note_off_c, 4, 62, 64
6, 70307, Note_off_c, 4, 72, 64
6, 70320, Note_on_c, 4, 69, 80
6, 70320, Note_on_c, 4, 74, 80
6, 70367, Note_off_c, 4, 74, 64
6, 70380, Note_on_c, 4, 76, 80
6, 70427, Note_off_c, 4, 76, 64
6, 70440, Note_on_c, 4, 77, 80
6, 70487, Note_off_c, 4, 77, 64
6, 70500, Note_on_c, 4, 69, 80
6, 70510, Note_off_c, 4, 69, 64
6, 70547, Note_off_c, 4, 69, 64
6, 70560, Note_on_c, 4, 68, 80
6, 70560, Note_on_c, 4, 68, 80
6, 70655, Note_off_c, 4, 68, 64
6, 70680, Note_on_c, 4, 77, 80
6, 70750, Note_off_c, 4, 68, 64
6, 70775, Note_off_c, 4, 77, 64
6, 70800, Note_on_c, 4, 69, 80
6, 70800, Note_on_c, 4, 76, 80
6, 70895, Note_off_c, 4, 76, 64
6, 70895, Note_off_c, 4, 69, 64
6, 70920, Note_on_c, 4, 68, 80
6, 70920, Note_on_c, 4, 74, 80
6, 71015, Note_off_c, 4, 74, 64
6, 71015, Note_off_c, 4, 68, 64
6, 71040, Note_on_c, 4, 69, 80
6, 71040, Note_on_c, 4, 72, 80
6, 71135, Note_off_c, 4, 72, 64
6, 71135, Note_off_c, 4, 69, 64
6, 71160, Note_on_c, 4, 71, 80
6, 71160, Note_on_c, 4, 74, 80
6, 71255, Note_off_c, 4, 74, 64
6, 71255, Note_off_c, 4, 71, 64
6, 71280, Note_on_c, 4, 72, 80
6, 71280, Note_on_c, 4, 76, 80
6, 71327, Note_off_c, 4, 72, 64
6, 71340, Note_on_c, 4, 74, 80
6, 71387, Note_off_c, 4, 74, 64
6, 71400, Note_on_c, 4, 71, 80
6, 71447, Note_off_c, 4, 71, 64
6, 71460, Note_on_c, 4, 72, 80
6, 71507, Note_off_c, 4, 72, 64
6, 71520, Note_on_c, 4, 69, 80
6, 71615, Note_off_c, 4, 76, 64
6, 71640, Note_on_c, 4, 81, 80
6, 71735, Note_off_c, 4, 81, 64
6, 71760, Note_on_c, 4, 81, 80
6, 71807, Note_off_c, 4, 69, 64
6, 71880, Note_on_c, 4, 74, 80
6, 71950, Note_off_c, 4, 81, 64
6, 71975, Note_off_c, 4, 74, 64
6, 72000, Note_on_c, 4, 76, 80
6, 72000, Note_on_c, 4, 80, 80
6, 72047, Note_off_c, 4, 80, 64
6, 72047, Note_off_c, 4, 76, 64
6, 72060, Note_on_c, 4, 64, 80
6, 72107, Note_off_c, 4, 64, 64
6, 72120, Note_on_c, 4, 68, 80
6, 72167, Note_off_c, 4, 68, 64
6, 72180, Note_on_c, 4, 71, 80
6, 72227, Note_off_c, 4, 71, 64
6, 72240, Note_on_c, 4, 64, 80
6, 72240, Note_on_c, 4, 76, 80
6, 72287, Note_off_c, 4, 76, 64
6, 72300, Note_on_c, 4, 79, 80
6, 72347, Note_off_c, 4, 79, 64
6, 72347, Note_off_c, 4, 64, 64
6, 72360, Note_on_c, 4, 67, 80
6, 72360, Note_on_c, 4, 77, 80
6, 72407, Note_off_c, 4, 77, 64
6, 72407, Note_off_c, 4, 67, 64
6, 72420, Note_on_c, 4, 65, 80
6, 72420, Note_on_c, 4, 71, 80
6, 72467, Note_off_c, 4, 71, 64
6, 72467, Note_off_c, 4, 65, 64
6, 72480, Note_on_c, 4, 55, 80
6, 72480, Note_on_c, 4, 72, 80
6, 72480, Note_on_c, 4, 64, 80
6, 72670, Note_off_c, 4, 64, 64
6, 72670, Note_off_c, 4, 72, 64
6, 72670, Note_off_c, 4, 55, 64
6, 75900, Note_on_c, 4, 55, 80
6, 75947, Note_off_c, 4, 55, 64
6, 75960, Note_on_c, 4, 59, 80
6, 76007, Note_off_c, 4, 59, 64
6, 76020, Note_on_c, 4, 62, 80
6, 76067, Note_off_c, 4, 62, 64
6, 76080, Note_on_c, 4, 67, 80
6, 76175, Note_off_c, 4, 67, 64
6, 76200, Note_on_c, 4, 67, 80
6, 76200, Note_on_c, 4, 74, 80
6, 76295, Note_off_c, 4, 74, 64
6, 76295, Note_off_c, 4, 67, 64
6, 76320, Note_on_c, 4, 67, 80
6, 76320, Note_on_c, 4, 76, 80
6, 76415, Note_off_c, 4, 76, 64
6, 76415, Note_off_c, 4, 67, 64
6, 76440, Note_on_c, 4, 67, 80
6, 76440, Note_on_c, 4, 76, 80
6, 76440, Note_on_c, 4, 79, 80
6, 76535, Note_off_c, 4, 79, 64
6, 76560, Note_on_c, 4, 84, 80
6, 76655, Note_off_c, 4, 84, 64
6, 76655, Note_off_c, 4, 76, 64
6, 76655, Note_off_c, 4, 67, 64
6, 76680, Note_on_c, 4, 77, 80
6, 76680, Note_on_c, 4, 69, 80
6, 76680, Note_on_c, 4, 76, 80
6, 76775, Note_off_c, 4, 76, 64
6, 76775, Note_off_c, 4, 69, 64
6, 76800, Note_on_c, 4, 69, 80
6, 76800, Note_on_c, 4, 74, 80
6, 76895, Note_off_c, 4, 74, 64
6, 76895, Note_off_c, 4, 69, 64
6, 76895, Note_off_c, 4, 77, 64
6, 76920, Note_on_c, 4, 77, 80
6, 76920, Note_on_c, 4, 74, 80
6, 76920, Note_on_c, 4, 71, 80
6, 77015, Note_off_c, 4, 77, 64
6, 77040, Note_on_c, 4, 83, 80
6, 77135, Note_off_c, 4, 83, 64
6, 77135, Note_off_c, 4, 71, 64
6, 77135, Note_off_c, 4, 74, 64
6, 77160, Note_on_c, 4, 71, 80
6, 77160, Note_on_c, 4, 74, 80
6, 77160, Note_on_c, 4, 76, 80
6, 77255, Note_off_c, 4, 76, 64
6, 77255, Note_off_c, 4, 74, 64
6, 77255, Note_off_c, 4, 71, 64
6, 77280, Note_on_c, 4, 69, 80
6, 77280, Note_on_c, 4, 72, 80
6, 77280, Note_on_c, 4, 76, 80
6, 77375, Note_off_c, 4, 76, 64
6, 77400, Note_on_c, 4, 76, 80
6, 77495, Note_off_c, 4, 76, 64
6, 77520, Note_on_c, 4, 81, 80
6, 77615, Note_off_c, 4, 72, 64
6, 77615, Note_off_c, 4, 69, 64
6, 77640, Note_on_c, 4, 69, 80
6, 77640, Note_on_c, 4, 72, 80
6, 77735, Note_off_c, 4, 72, 64
6, 77735, Note_off_c, 4, 69, 64
6, 77735, Note_off_c, 4, 81, 64
6, 77760, Note_on_c, 4, 81, 80
6, 77760, Note_on_c, 4, 71, 80
6, 77855, Note_off_c, 4, 71, 64
6, 77855, Note_off_c, 4, 81, 64
6, 77880, Note_on_c, 4, 81, 80
6, 77880, Note_on_c, 4, 71, 80
6, 77975, Note_off_c, 4, 71, 64
6, 77975, Note_off_c, 4, 81, 64
6, 78000, Note_on_c, 4, 80, 80
6, 78000, Note_on_c, 4, 71, 80
6, 78190, Note_off_c, 4, 71, 64
6, 78190, Note_off_c, 4, 80, 64
6, 78240, Note_on_c, 4, 81, 80
6, 78240, Note_on_c, 4, 69, 80
6, 78287, Note_off_c, 4, 81, 64
6, 78300, Note_on_c, 4, 76, 80
6, 78347, Note_off_c, 4, 76, 64
6, 78360, Note_on_c, 4, 72, 80
6, 78407, Note_off_c, 4, 72, 64
6, 78420, Note_on_c, 4, 69, 80
6, 78430, Note_off_c, 4, 69, 64
6, 78467, Note_off_c, 4, 69, 64
6, 78540, Note_on_c, 4, 77, 80
6, 78587, Note_off_c, 4, 77, 64
6, 78600, Note_on_c, 4, 76, 80
6, 78647, Note_off_c, 4, 76, 64
6, 78660, Note_on_c, 4, 68, 80
6, 78707, Note_off_c, 4, 68, 64
6, 78720, Note_on_c, 4, 69, 80
6, 78767, Note_off_c, 4, 69, 64
6, 78780, Note_on_c, 4, 57, 80
6, 78827, Note_off_c, 4, 57, 64
6, 78840, Note_on_c, 4, 59, 80
6, 78887, Note_off_c, 4, 59, 64
6, 78900, Note_on_c, 4, 60, 80
6, 78947, Note_off_c, 4, 60, 64
6, 78960, Note_on_c, 4, 62, 80
6, 79007, Note_off_c, 4, 62, 64
6, 79020, Note_on_c, 4, 64, 80
6, 79067, Note_off_c, 4, 64, 64
6, 79080, Note_on_c, 4, 65, 80
6, 79127, Note_off_c, 4, 65, 64
6, 79140, Note_on_c, 4, 62, 80
6, 79187, Note_off_c, 4, 62, 64
6, 79200, Note_on_c, 4, 60, 80
6, 79247, Note_off_c, 4, 60, 64
6, 79260, Note_on_c, 4, 62, 80
6, 79307, Note_off_c, 4, 62, 64
6, 79320, Note_on_c, 4, 64, 80
6, 79367, Note_off_c, 4, 64, 64
6, 79380, Note_on_c, 4, 62, 80
6, 79427, Note_off_c, 4, 62, 64
6, 79440, Note_on_c, 4, 60, 80
6, 79487, Note_off_c, 4, 60, 64
6, 79500, Note_on_c, 4, 59, 80
6, 79547, Note_off_c, 4, 59, 64
6, 79560, Note_on_c, 4, 60, 80
6, 79607, Note_off_c, 4, 60, 64
6, 79620, Note_on_c, 4, 57, 80
6, 79667, Note_off_c, 4, 57, 64
6, 79680, Note_on_c, 4, 62, 80
6, 79727, Note_off_c, 4, 62, 64
6, 79740, Note_on_c, 4, 64, 80
6, 79787, Note_off_c, 4, 64, 64
6, 79800, Note_on_c, 4, 65, 80
6, 79847, Note_off_c, 4, 65, 64
6, 79860, Note_on_c, 4, 62, 80
6, 79907, Note_off_c, 4, 62, 64
6, 79920, Note_on_c, 4, 64, 80
6, 79967, Note_off_c, 4, 64, 64
6, 79980, Note_on_c, 4, 62, 80
6, 80027, Note_off_c, 4, 62, 64
6, 80040, Note_on_c, 4, 60, 80
6, 80087, Note_off_c, 4, 60, 64
6, 80100, Note_on_c, 4, 59, 80
6, 80147, Note_off_c, 4, 59, 64
6, 80160, Note_on_c, 4, 60, 80
6, 80207, Note_off_c, 4, 60, 64
6, 80220, Note_on_c, 4, 62, 80
6, 80267, Note_off_c, 4, 62, 64
6, 80280, Note_on_c, 4, 64, 80
6, 80327, Note_off_c, 4, 64, 64
6, 80340, Note_on_c, 4, 62, 80
6, 80387, Note_off_c, 4, 62, 64
6, 80400, Note_on_c, 4, 60, 80
6, 80447, Note_off_c, 4, 60, 64
6, 80460, Note_on_c, 4, 59, 80
6, 80507, Note_off_c, 4, 59, 64
6, 80520, Note_on_c, 4, 60, 80
6, 80567, Note_off_c, 4, 60, 64
6, 80580, Note_on_c, 4, 57, 80
6, 80627, Note_off_c, 4, 57, 64
6, 80640, Note_on_c, 4, 59, 80
6, 80687, Note_off_c, 4, 59, 64
6, 80700, Note_on_c, 4, 60, 80
6, 80747, Note_off_c, 4, 60, 64
6, 80760, Note_on_c, 4, 62, 80
6, 80807, Note_off_c, 4, 62, 64
6, 80820, Note_on_c, 4, 64, 80
6, 80867, Note_off_c, 4, 64, 64
6, 80880, Note_on_c, 4, 65, 80
6, 80927, Note_off_c, 4, 65, 64
6, 80940, Note_on_c, 4, 62, 80
6, 80987, Note_off_c, 4, 62, 64
6, 81000, Note_on_c, 4, 60, 80
6, 81047, Note_off_c, 4, 60, 64
6, 81060, Note_on_c, 4, 59, 80
6, 81107, Note_off_c, 4, 59, 64
6, 81120, Note_on_c, 4, 64, 80
6, 81167, Note_off_c, 4, 64, 64
6, 81180, Note_on_c, 4, 65, 80
6, 81227, Note_off_c, 4, 65, 64
6, 81240, Note_on_c, 4, 64, 80
6, 81287, Note_off_c, 4, 64, 64
6, 81300, Note_on_c, 4, 62, 80
6, 81347, Note_off_c, 4, 62, 64
6, 81360, Note_on_c, 4, 60, 80
6, 81407, Note_off_c, 4, 60, 64
6, 81420, Note_on_c, 4, 62, 80
6, 81467, Note_off_c, 4, 62, 64
6, 81480, Note_on_c, 4, 60, 80
6, 81527, Note_off_c, 4, 60, 64
6, 81540, Note_on_c, 4, 59, 80
6, 81587, Note_off_c, 4, 59, 64
6, 81600, Note_on_c, 4, 57, 80
6, 81647, Note_off_c, 4, 57, 64
6, 81660, Note_on_c, 4, 60, 80
6, 81707, Note_off_c, 4, 60, 64
6, 81720, Note_on_c, 4, 59, 80
6, 81767, Note_off_c, 4, 59, 64
6, 81780, Note_on_c, 4, 57, 80
6, 81827, Note_off_c, 4, 57, 64
6, 81840, Note_on_c, 4, 59, 80
6, 81887, Note_off_c, 4, 59, 64
6, 81900, Note_on_c, 4, 59, 80
6, 81947, Note_off_c, 4, 59, 64
6, 81960, Note_on_c, 4, 61, 80
6, 82007, Note_off_c, 4, 61, 64
6, 82020, Note_on_c, 4, 63, 80
6, 82067, Note_off_c, 4, 63, 64
6, 82080, Note_on_c, 4, 64, 80
6, 82127, Note_off_c, 4, 64, 64
6, 82140, Note_on_c, 4, 67, 80
6, 82187, Note_off_c, 4, 67, 64
6, 82200, Note_on_c, 4, 79, 80
6, 82247, Note_off_c, 4, 79, 64
6, 82260, Note_on_c, 4, 77, 80
6, 82307, Note_off_c, 4, 77, 64
6, 82320, Note_on_c, 4, 69, 80
6, 82320, Note_on_c, 4, 76, 80
6, 82367, Note_off_c, 4, 76, 64
6, 82380, Note_on_c, 4, 74, 80
6, 82427, Note_off_c, 4, 74, 64
6, 82440, Note_on_c, 4, 76, 80
6, 82487, Note_off_c, 4, 76, 64
6, 82500, Note_on_c, 4, 73, 80
6, 82547, Note_off_c, 4, 73, 64
6, 82547, Note_off_c, 4, 69, 64
6, 82560, Note_on_c, 4, 69, 80
6, 82560, Note_on_c, 4, 77, 80
6, 82607, Note_off_c, 4, 77, 64
6, 82620, Note_on_c, 4, 76, 80
6, 82667, Note_off_c, 4, 76, 64
6, 82680, Note_on_c, 4, 77, 80
6, 82727, Note_off_c, 4, 77, 64
6, 82740, Note_on_c, 4, 76, 80
6, 82787, Note_off_c, 4, 76, 64
6, 82800, Note_on_c, 4, 74, 80
6, 82847, Note_off_c, 4, 74, 64
6, 82860, Note_on_c, 4, 72, 80
6, 82907, Note_off_c, 4, 72, 64
6, 82907, Note_off_c, 4, 69, 64
6, 82920, Note_on_c, 4, 67, 80
6, 82920, Note_on_c, 4, 74, 80
6, 82967, Note_off_c, 4, 74, 64
6, 82980, Note_on_c, 4, 71, 80
6, 83040, Note_on_c, 4, 76, 80
6, 83087, Note_off_c, 4, 76, 64
6, 83100, Note_on_c, 4, 74, 80
6, 83147, Note_off_c, 4, 74, 64
6, 83160, Note_on_c, 4, 76, 80
6, 83207, Note_off_c, 4, 76, 64
6, 83220, Note_on_c, 4, 74, 80
6, 83267, Note_off_c, 4, 74, 64
6, 83280, Note_on_c, 4, 72, 80
6, 83327, Note_off_c, 4, 72, 64
6, 83387, Note_off_c, 4, 71, 64
6, 83387, Note_off_c, 4, 67, 64
6, 83400, Note_on_c, 4, 64, 80
6, 83400, Note_on_c, 4, 72, 80
6, 83447, Note_off_c, 4, 72, 64
6, 83460, Note_on_c, 4, 69, 80
6, 83507, Note_off_c, 4, 69, 64
6, 83507, Note_off_c, 4, 64, 64
6, 83520, Note_on_c, 4, 69, 80
6, 83567, Note_off_c, 4, 69, 64
6, 83580, Note_on_c, 4, 76, 80
6, 83627, Note_off_c, 4, 76, 64
6, 83640, Note_on_c, 4, 84, 80
6, 83687, Note_off_c, 4, 84, 64
6, 83700, Note_on_c, 4, 76, 80
6, 83747, Note_off_c, 4, 76, 64
6, 83760, Note_on_c, 4, 84, 80
6, 83807, Note_off_c, 4, 84, 64
6, 83820, Note_on_c, 4, 76, 80
6, 83867, Note_off_c, 4, 76, 64
6, 83880, Note_on_c, 4, 84, 80
6, 83927, Note_off_c, 4, 84, 64
6, 83940, Note_on_c, 4, 76, 80
6, 83987, Note_off_c, 4, 76, 64
6, 84000, Note_on_c, 4, 74, 80
6, 84047, Note_off_c, 4, 74, 64
6, 84060, Note_on_c, 4, 79, 80
6, 84107, Note_off_c, 4, 79, 64
6, 84120, Note_on_c, 4, 83, 80
6, 84167, Note_off_c, 4, 83, 64
6, 84180, Note_on_c, 4, 79, 80
6, 84227, Note_off_c, 4, 79, 64
6, 84240, Note_on_c, 4, 84, 80
6, 84287, Note_off_c, 4, 84, 64
6, 84300, Note_on_c, 4, 79, 80
6, 84347, Note_off_c, 4, 79, 64
6, 84360, Note_on_c, 4, 76, 80
6, 84407, Note_off_c, 4, 76, 64
6, 84420, Note_on_c, 4, 72, 80
6, 84467, Note_off_c, 4, 72, 64
6, 84480, Note_on_c, 4, 81, 80
6, 84527, Note_off_c, 4, 81, 64
6, 84540, Note_on_c, 4, 77, 80
6, 84587, Note_off_c, 4, 77, 64
6, 84600, Note_on_c, 4, 72, 80
6, 84647, Note_off_c, 4, 72, 64
6, 84660, Note_on_c, 4, 74, 80
6, 84707, Note_off_c, 4, 74, 64
6, 84720, Note_on_c, 4, 64, 80
6, 84767, Note_off_c, 4, 64, 64
6, 84780, Note_on_c, 4, 72, 80
6, 84827, Note_off_c, 4, 72, 64
6, 84840, Note_on_c, 4, 62, 80
6, 84887, Note_off_c, 4, 62, 64
6, 84900, Note_on_c, 4, 71, 80
6, 84947, Note_off_c, 4, 71, 64
6, 84960, Note_on_c, 4, 72, 80
6, 85007, Note_off_c, 4, 72, 64
6, 85020, Note_on_c, 4, 79, 80
6, 85067, Note_off_c, 4, 79, 64
6, 85080, Note_on_c, 4, 76, 80
6, 85127, Note_off_c, 4, 76, 64
6, 85140, Note_on_c, 4, 72, 80
6, 85187, Note_off_c, 4, 72, 64
6, 85260, Note_on_c, 4, 77, 80
6, 85307, Note_off_c, 4, 77, 64
6, 85320, Note_on_c, 4, 74, 80
6, 85367, Note_off_c, 4, 74, 64
6, 85380, Note_on_c, 4, 71, 80
6, 85427, Note_off_c, 4, 71, 64
6, 85440, Note_on_c, 4, 72, 80
6, 85440, Note_on_c, 4, 72, 80
6, 85535, Note_off_c, 4, 72, 64
6, 85535, Note_off_c, 4, 72, 64
6, 85560, Note_on_c, 4, 76, 80
6, 85560, Note_on_c, 4, 76, 80
6, 85607, Note_off_c, 4, 76, 64
6, 85607, Note_off_c, 4, 76, 64
6, 85620, Note_on_c, 4, 79, 80
6, 85620, Note_on_c, 4, 79, 80
6, 85667, Note_off_c, 4, 79, 64
6, 85667, Note_off_c, 4, 79, 64
6, 85680, Note_on_c, 4, 72, 80
6, 85680, Note_on_c, 4, 84, 80
6, 85775, Note_off_c, 4, 84, 64
6, 85775, Note_off_c, 4, 72, 64
6, 85800, Note_on_c, 4, 72, 80
6, 85800, Note_on_c, 4, 84, 80
6, 85895, Note_off_c, 4, 84, 64
6, 85895, Note_off_c, 4, 72, 64
6, 85920, Note_on_c, 4, 72, 80
6, 85920, Note_on_c, 4, 84, 80
6, 85967, Note_off_c, 4, 84, 64
6, 85980, Note_on_c, 4, 76, 80
6, 86027, Note_off_c, 4, 76, 64
6, 86040, Note_on_c, 4, 79, 80
6, 86087, Note_off_c, 4, 79, 64
6, 86100, Note_on_c, 4, 77, 80
6, 86110, Note_off_c, 4, 72, 64
6, 86147, Note_off_c, 4, 77, 64
6, 86160, Note_on_c, 4, 67, 80
6, 86160, Note_on_c, 4, 76, 80
6, 86207, Note_off_c, 4, 76, 64
6, 86220, Note_on_c, 4, 74, 80
6, 86267, Note_off_c, 4, 74, 64
6, 86280, Note_on_c, 4, 72, 80
6, 86327, Note_off_c, 4, 72, 64
6, 86340, Note_on_c, 4, 70, 80
6, 86350, Note_off_c, 4, 67, 64
6, 86387, Note_off_c, 4, 70, 64
6, 86400, Note_on_c, 4, 60, 80
6, 86400, Note_on_c, 4, 71, 80
6, 86447, Note_off_c, 4, 71, 64
6, 86460, Note_on_c, 4, 67, 80
6, 86507, Note_off_c, 4, 67, 64
6, 86520, Note_on_c, 4, 72, 80
6, 86567, Note_off_c, 4, 72, 64
6, 86580, Note_on_c, 4, 71, 80
6, 86590, Note_off_c, 4, 60, 64
6, 86627, Note_off_c, 4, 71, 64
6, 86640, Note_on_c, 4, 60, 80
6, 86640, Note_on_c, 4, 69, 80
6, 86735, Note_off_c, 4, 69, 64
6, 86735, Note_off_c, 4, 60, 64
6, 86760, Note_on_c, 4, 65, 80
6, 86760, Note_on_c, 4, 77, 80
6, 86855, Note_off_c, 4, 77, 64
6, 86855, Note_off_c, 4, 65, 64
6, 86880, Note_on_c, 4, 65, 80
6, 86880, Note_on_c, 4, 76, 80
6, 86927, Note_off_c, 4, 76, 64
6, 86940, Note_on_c, 4, 74, 80
6, 86987, Note_off_c, 4, 74, 64
6, 87000, Note_on_c, 4, 76, 80
6, 87047, Note_off_c, 4, 76, 64
6, 87060, Note_on_c, 4, 77, 80
6, 87070, Note_off_c, 4, 65, 64
6, 87107, Note_off_c, 4, 77, 64
6, 87120, Note_on_c, 4, 79, 80
6, 87167, Note_off_c, 4, 79, 64
6, 87180, Note_on_c, 4, 81, 80
6, 87227, Note_off_c, 4, 81, 64
6, 87240, Note_on_c, 4, 79, 80
6, 87287, Note_off_c, 4, 79, 64
6, 87300, Note_on_c, 4, 77, 80
6, 87347, Note_off_c, 4, 77, 64
6, 87360, Note_on_c, 4, 77, 80
6, 87407, Note_off_c, 4, 77, 64
6, 87420, Note_on_c, 4, 74, 80
6, 87467, Note_off_c, 4, 74, 64
6, 87480, Note_on_c, 4, 79, 80
6, 87527, Note_off_c, 4, 79, 64
6, 87540, Note_on_c, 4, 77, 80
6, 87587, Note_off_c, 4, 77, 64
6, 87600, Note_on_c, 4, 76, 80
6, 87647, Note_off_c, 4, 76, 64
6, 87660, Note_on_c, 4, 72, 80
6, 87707, Note_off_c, 4, 72, 64
6, 87720, Note_on_c, 4, 84, 80
6, 87815, Note_off_c, 4, 84, 64
6, 87840, Note_on_c, 4, 84, 80
6, 87935, Note_off_c, 4, 84, 64
6, 87960, Note_on_c, 4, 86, 80
6, 88055, Note_off_c, 4, 86, 64
6, 88080, Note_on_c, 4, 76, 80
6, 88127, Note_off_c, 4, 76, 64
6, 88140, Note_on_c, 4, 84, 80
6, 88187, Note_off_c, 4, 84, 64
6, 88200, Note_on_c, 4, 74, 80
6, 88247, Note_off_c, 4, 74, 64
6, 88260, Note_on_c, 4, 83, 80
6, 88307, Note_off_c, 4, 83, 64
6, 88320, Note_on_c, 4, 84, 80
6, 88320, Note_on_c, 4, 72, 80
6, 88367, Note_off_c, 4, 84, 64
6, 88380, Note_on_c, 4, 79, 80
6, 88427, Note_off_c, 4, 79, 64
6, 88440, Note_on_c, 4, 76, 80
6, 88487, Note_off_c, 4, 76, 64
6, 88500, Note_on_c, 4, 72, 80
6, 88510, Note_off_c, 4, 72, 64
6, 88547, Note_off_c, 4, 72, 64
6, 88620, Note_on_c, 4, 81, 80
6, 88667, Note_off_c, 4, 81, 64
6, 88680, Note_on_c, 4, 77, 80
6, 88727, Note_off_c, 4, 77, 64
6, 88740, Note_on_c, 4, 74, 80
6, 88787, Note_off_c, 4, 74, 64
6, 88860, Note_on_c, 4, 79, 80
6, 88907, Note_off_c, 4, 79, 64
6, 88920, Note_on_c, 4, 76, 80
6, 88967, Note_off_c, 4, 76, 64
6, 88980, Note_on_c, 4, 72, 80
6, 89027, Note_off_c, 4, 72, 64
6, 89100, Note_on_c, 4, 77, 80
6, 89147, Note_off_c, 4, 77, 64
6, 89160, Note_on_c, 4, 74, 80
6, 89207, Note_off_c, 4, 74, 64
6, 89220, Note_on_c, 4, 71, 80
6, 89267, Note_off_c, 4, 71, 64
6, 89340, Note_on_c, 4, 84, 80
6, 89387, Note_off_c, 4, 84, 64
6, 89400, Note_on_c, 4, 79, 80
6, 89447, Note_off_c, 4, 79, 64
6, 89460, Note_on_c, 4, 76, 80
6, 89507, Note_off_c, 4, 76, 64
6, 89580, Note_on_c, 4, 81, 80
6, 89627, Note_off_c, 4, 81, 64
6, 89640, Note_on_c, 4, 77, 80
6, 89687, Note_off_c, 4, 77, 64
6, 89700, Note_on_c, 4, 72, 80
6, 89747, Note_off_c, 4, 72, 64
6, 89820, Note_on_c, 4, 79, 80
6, 89867, Note_off_c, 4, 79, 64
6, 89880, Note_on_c, 4, 76, 80
6, 89927, Note_off_c, 4, 76, 64
6, 89940, Note_on_c, 4, 72, 80
6, 89987, Note_off_c, 4, 72, 64
6, 90060, Note_on_c, 4, 77, 80
6, 90107, Note_off_c, 4, 77, 64
6, 90120, Note_on_c, 4, 74, 80
6, 90167, Note_off_c, 4, 74, 64
6, 90180, Note_on_c, 4, 71, 80
6, 90227, Note_off_c, 4, 71, 64
6, 90240, Note_on_c, 4, 72, 80
6, 90287, Note_off_c, 4, 72, 64
6, 90300, Note_on_c, 4, 76, 80
6, 90347, Note_off_c, 4, 76, 64
6, 90360, Note_on_c, 4, 79, 80
6, 90407, Note_off_c, 4, 79, 64
6, 90420, Note_on_c, 4, 84, 80
6, 90467, Note_off_c, 4, 84, 64
6, 90480, Note_on_c, 4, 74, 80
6, 90527, Note_off_c, 4, 74, 64
6, 90540, Note_on_c, 4, 84, 80
6, 90587, Note_off_c, 4, 84, 64
6, 90600, Note_on_c, 4, 74, 80
6, 90647, Note_off_c, 4, 74, 64
6, 90660, Note_on_c, 4, 83, 80
6, 90707, Note_off_c, 4, 83, 64
6, 90720, Note_on_c, 4, 84, 80
6, 90767, Note_off_c, 4, 84, 64
6, 90780, Note_on_c, 4, 79, 80
6, 90827, Note_off_c, 4, 79, 64
6, 90840, Note_on_c, 4, 76, 80
6, 90887, Note_off_c, 4, 76, 64
6, 90900, Note_on_c, 4, 72, 80
6, 90947, Note_off_c, 4, 72, 64
6, 90960, Note_on_c, 4, 74, 80
6, 91007, Note_off_c, 4, 74, 64
6, 91020, Note_on_c, 4, 84, 80
6, 91067, Note_off_c, 4, 84, 64
6, 91080, Note_on_c, 4, 74, 80
6, 91127, Note_off_c, 4, 74, 64
6, 91140, Note_on_c, 4, 83, 80
6, 91187, Note_off_c, 4, 83, 64
6, 91200, Note_on_c, 4, 72, 80
6, 91200, Note_on_c, 4, 76, 80
6, 91200, Note_on_c, 4, 84, 80
6, 91390, Note_off_c, 4, 84, 64
6, 91390, Note_off_c, 4, 76, 64
6, 91390, Note_off_c, 4, 72, 64
6, 91440, Note_on_c, 4, 64, 80
6, 91440, Note_on_c, 4, 72, 80
6, 91535, Note_off_c, 4, 72, 64
6, 91535, Note_off_c, 4, 64, 64
6, 91560, Note_on_c, 4, 64, 80
6, 91560, Note_on_c, 4, 72, 80
6, 91655, Note_off_c, 4, 72, 64
6, 91655, Note_off_c, 4, 64, 64
6, 91680, Note_on_c, 4, 64, 80
6, 91680, Note_on_c, 4, 72, 80
6, 92062, Note_off_c, 4, 72, 64
6, 92062, Note_off_c, 4, 64, 64
6, 92062, End_track
7, 0, Start_track
7, 0, Text_t, "Keyboard Lft. Hand"
7, 0, Program_c, 5, 19
7, 0, Control_c, 5, 7, 104
7, 0, Control_c, 5, 0, 0
7, 0, Control_c, 5, 10, 0
7, 0, Control_c, 5, 91, 127
7, 0, Note_on_c, 5, 48, 80
7, 60, Note_off_c, 5, 48, 64
7, 120, Note_on_c, 5, 48, 80
7, 180, Note_off_c, 5, 48, 64
7, 240, Note_on_c, 5, 50, 80
7, 300, Note_off_c, 5, 50, 64
7, 360, Note_on_c, 5, 50, 80
7, 420, Note_off_c, 5, 50, 64
7, 480, Note_on_c, 5, 52, 80
7, 527, Note_off_c, 5, 52, 64
7, 540, Note_on_c, 5, 50, 80
7, 587, Note_off_c, 5, 50, 64
7, 600, Note_on_c, 5, 48, 80
7, 647, Note_off_c, 5, 48, 64
7, 660, Note_on_c, 5, 50, 80
7, 707, Note_off_c, 5, 50, 64
7, 720, Note_on_c, 5, 52, 80
7, 780, Note_off_c, 5, 52, 64
7, 840, Note_on_c, 5, 52, 80
7, 900, Note_off_c, 5, 52, 64
7, 960, Note_on_c, 5, 53, 80
7, 1020, Note_off_c, 5, 53, 64
7, 1080, Note_on_c, 5, 55, 80
7, 1140, Note_off_c, 5, 55, 64
7, 1200, Note_on_c, 5, 57, 80
7, 1260, Note_off_c, 5, 57, 64
7, 1320, Note_on_c, 5, 59, 80
7, 1380, Note_off_c, 5, 59, 64
7, 1440, Note_on_c, 5, 60, 80
7, 1500, Note_off_c, 5, 60, 64
7, 1560, Note_on_c, 5, 48, 80
7, 1620, Note_off_c, 5, 48, 64
7, 1680, Note_on_c, 5, 52, 80
7, 1740, Note_off_c, 5, 52, 64
7, 1800, Note_on_c, 5, 55, 80
7, 1860, Note_off_c, 5, 55, 64
7, 1920, Note_on_c, 5, 60, 80
7, 2110, Note_off_c, 5, 60, 64
7, 3480, Note_on_c, 5, 48, 80
7, 3540, Note_off_c, 5, 48, 64
7, 3600, Note_on_c, 5, 52, 80
7, 3660, Note_off_c, 5, 52, 64
7, 3720, Note_on_c, 5, 55, 80
7, 3780, Note_off_c, 5, 55, 64
7, 3840, Note_on_c, 5, 48, 80
7, 3900, Note_off_c, 5, 48, 64
7, 3960, Note_on_c, 5, 48, 80
7, 4020, Note_off_c, 5, 48, 64
7, 4080, Note_on_c, 5, 48, 80
7, 4140, Note_off_c, 5, 48, 64
7, 4200, Note_on_c, 5, 48, 80
7, 4260, Note_off_c, 5, 48, 64
7, 4320, Note_on_c, 5, 48, 80
7, 4380, Note_off_c, 5, 48, 64
7, 4440, Note_on_c, 5, 48, 80
7, 4500, Note_off_c, 5, 48, 64
7, 4560, Note_on_c, 5, 48, 80
7, 4620, Note_off_c, 5, 48, 64
7, 4680, Note_on_c, 5, 48, 80
7, 4740, Note_off_c, 5, 48, 64
7, 4800, Note_on_c, 5, 45, 80
7, 4860, Note_off_c, 5, 45, 64
7, 4920, Note_on_c, 5, 45, 80
7, 4980, Note_off_c, 5, 45, 64
7, 5040, Note_on_c, 5, 47, 80
7, 5100, Note_off_c, 5, 47, 64
7, 5160, Note_on_c, 5, 47, 80
7, 5220, Note_off_c, 5, 47, 64
7, 5280, Note_on_c, 5, 48, 80
7, 5340, Note_off_c, 5, 48, 64
7, 5400, Note_on_c, 5, 52, 80
7, 5447, Note_off_c, 5, 52, 64
7, 5460, Note_on_c, 5, 55, 80
7, 5507, Note_off_c, 5, 55, 64
7, 5520, Note_on_c, 5, 60, 80
7, 5615, Note_off_c, 5, 60, 64
7, 5640, Note_on_c, 5, 55, 80
7, 5735, Note_off_c, 5, 55, 64
7, 5760, Note_on_c, 5, 60, 80
7, 5855, Note_off_c, 5, 60, 64
7, 5880, Note_on_c, 5, 48, 80
7, 5975, Note_off_c, 5, 48, 64
7, 6000, Note_on_c, 5, 60, 80
7, 6095, Note_off_c, 5, 60, 64
7, 6120, Note_on_c, 5, 57, 80
7, 6215, Note_off_c, 5, 57, 64
7, 6240, Note_on_c, 5, 55, 80
7, 6335, Note_off_c, 5, 55, 64
7, 6360, Note_on_c, 5, 43, 80
7, 6455, Note_off_c, 5, 43, 64
7, 10140, Note_on_c, 5, 43, 80
7, 10187, Note_off_c, 5, 43, 64
7, 10200, Note_on_c, 5, 47, 80
7, 10247, Note_off_c, 5, 47, 64
7, 10260, Note_on_c, 5, 50, 80
7, 10307, Note_off_c, 5, 50, 64
7, 10320, Note_on_c, 5, 55, 80
7, 10367, Note_off_c, 5, 55, 64
7, 10380, Note_on_c, 5, 57, 80
7, 10427, Note_off_c, 5, 57, 64
7, 10440, Note_on_c, 5, 59, 80
7, 10487, Note_off_c, 5, 59, 64
7, 10500, Note_on_c, 5, 55, 80
7, 10547, Note_off_c, 5, 55, 64
7, 10560, Note_on_c, 5, 60, 80
7, 10750, Note_off_c, 5, 60, 64
7, 10860, Note_on_c, 5, 60, 80
7, 10907, Note_off_c, 5, 60, 64
7, 10920, Note_on_c, 5, 55, 80
7, 10967, Note_off_c, 5, 55, 64
7, 10980, Note_on_c, 5, 52, 80
7, 11027, Note_off_c, 5, 52, 64
7, 11040, Note_on_c, 5, 48, 80
7, 11135, Note_off_c, 5, 48, 64
7, 11160, Note_on_c, 5, 60, 80
7, 11255, Note_off_c, 5, 60, 64
7, 11280, Note_on_c, 5, 48, 80
7, 11280, Note_on_c, 5, 60, 80
7, 11470, Note_off_c, 5, 60, 64
7, 11470, Note_off_c, 5, 48, 64
7, 11580, Note_on_c, 5, 48, 80
7, 11627, Note_off_c, 5, 48, 64
7, 11640, Note_on_c, 5, 50, 80
7, 11687, Note_off_c, 5, 50, 64
7, 11700, Note_on_c, 5, 52, 80
7, 11747, Note_off_c, 5, 52, 64
7, 11760, Note_on_c, 5, 53, 80
7, 11807, Note_off_c, 5, 53, 64
7, 11820, Note_on_c, 5, 57, 80
7, 11867, Note_off_c, 5, 57, 64
7, 11880, Note_on_c, 5, 55, 80
7, 11927, Note_off_c, 5, 55, 64
7, 11940, Note_on_c, 5, 53, 80
7, 11987, Note_off_c, 5, 53, 64
7, 12000, Note_on_c, 5, 52, 80
7, 12047, Note_off_c, 5, 52, 64
7, 12060, Note_on_c, 5, 50, 80
7, 12107, Note_off_c, 5, 50, 64
7, 12120, Note_on_c, 5, 48, 80
7, 12167, Note_off_c, 5, 48, 64
7, 12180, Note_on_c, 5, 50, 80
7, 12227, Note_off_c, 5, 50, 64
7, 12240, Note_on_c, 5, 52, 80
7, 12287, Note_off_c, 5, 52, 64
7, 12300, Note_on_c, 5, 48, 80
7, 12347, Note_off_c, 5, 48, 64
7, 12360, Note_on_c, 5, 50, 80
7, 12407, Note_off_c, 5, 50, 64
7, 12420, Note_on_c, 5, 52, 80
7, 12467, Note_off_c, 5, 52, 64
7, 12480, Note_on_c, 5, 53, 80
7, 12527, Note_off_c, 5, 53, 64
7, 12540, Note_on_c, 5, 50, 80
7, 12587, Note_off_c, 5, 50, 64
7, 12600, Note_on_c, 5, 52, 80
7, 12647, Note_off_c, 5, 52, 64
7, 12660, Note_on_c, 5, 53, 80
7, 12707, Note_off_c, 5, 53, 64
7, 12720, Note_on_c, 5, 55, 80
7, 12767, Note_off_c, 5, 55, 64
7, 12780, Note_on_c, 5, 57, 80
7, 12827, Note_off_c, 5, 57, 64
7, 12840, Note_on_c, 5, 53, 80
7, 12887, Note_off_c, 5, 53, 64
7, 12900, Note_on_c, 5, 55, 80
7, 12947, Note_off_c, 5, 55, 64
7, 12960, Note_on_c, 5, 52, 80
7, 13007, Note_off_c, 5, 52, 64
7, 13020, Note_on_c, 5, 53, 80
7, 13067, Note_off_c, 5, 53, 64
7, 13080, Note_on_c, 5, 55, 80
7, 13127, Note_off_c, 5, 55, 64
7, 13140, Note_on_c, 5, 53, 80
7, 13187, Note_off_c, 5, 53, 64
7, 13200, Note_on_c, 5, 52, 80
7, 13247, Note_off_c, 5, 52, 64
7, 13260, Note_on_c, 5, 50, 80
7, 13307, Note_off_c, 5, 50, 64
7, 13320, Note_on_c, 5, 52, 80
7, 13367, Note_off_c, 5, 52, 64
7, 13380, Note_on_c, 5, 48, 80
7, 13427, Note_off_c, 5, 48, 64
7, 13440, Note_on_c, 5, 50, 80
7, 13487, Note_off_c, 5, 50, 64
7, 13500, Note_on_c, 5, 52, 80
7, 13547, Note_off_c, 5, 52, 64
7, 13560, Note_on_c, 5, 54, 80
7, 13607, Note_off_c, 5, 54, 64
7, 13620, Note_on_c, 5, 55, 80
7, 13667, Note_off_c, 5, 55, 64
7, 13680, Note_on_c, 5, 57, 80
7, 13727, Note_off_c, 5, 57, 64
7, 13740, Note_on_c, 5, 54, 80
7, 13787, Note_off_c, 5, 54, 64
7, 13800, Note_on_c, 5, 52, 80
7, 13847, Note_off_c, 5, 52, 64
7, 13860, Note_on_c, 5, 50, 80
7, 13907, Note_off_c, 5, 50, 64
7, 13920, Note_on_c, 5, 55, 80
7, 13967, Note_off_c, 5, 55, 64
7, 13980, Note_on_c, 5, 54, 80
7, 14027, Note_off_c, 5, 54, 64
7, 14040, Note_on_c, 5, 52, 80
7, 14087, Note_off_c, 5, 52, 64
7, 14100, Note_on_c, 5, 50, 80
7, 14147, Note_off_c, 5, 50, 64
7, 14160, Note_on_c, 5, 52, 80
7, 14207, Note_off_c, 5, 52, 64
7, 14220, Note_on_c, 5, 50, 80
7, 14267, Note_off_c, 5, 50, 64
7, 14280, Note_on_c, 5, 48, 80
7, 14327, Note_off_c, 5, 48, 64
7, 14340, Note_on_c, 5, 47, 80
7, 14387, Note_off_c, 5, 47, 64
7, 14400, Note_on_c, 5, 48, 80
7, 14447, Note_off_c, 5, 48, 64
7, 14460, Note_on_c, 5, 45, 80
7, 14507, Note_off_c, 5, 45, 64
7, 14520, Note_on_c, 5, 47, 80
7, 14567, Note_off_c, 5, 47, 64
7, 14580, Note_on_c, 5, 48, 80
7, 14627, Note_off_c, 5, 48, 64
7, 14640, Note_on_c, 5, 50, 80
7, 14687, Note_off_c, 5, 50, 64
7, 14700, Note_on_c, 5, 48, 80
7, 14747, Note_off_c, 5, 48, 64
7, 14760, Note_on_c, 5, 47, 80
7, 14807, Note_off_c, 5, 47, 64
7, 14820, Note_on_c, 5, 45, 80
7, 14867, Note_off_c, 5, 45, 64
7, 14880, Note_on_c, 5, 47, 80
7, 14927, Note_off_c, 5, 47, 64
7, 14940, Note_on_c, 5, 43, 80
7, 14987, Note_off_c, 5, 43, 64
7, 15000, Note_on_c, 5, 47, 80
7, 15047, Note_off_c, 5, 47, 64
7, 15060, Note_on_c, 5, 50, 80
7, 15107, Note_off_c, 5, 50, 64
7, 15120, Note_on_c, 5, 55, 80
7, 15167, Note_off_c, 5, 55, 64
7, 15180, Note_on_c, 5, 57, 80
7, 15227, Note_off_c, 5, 57, 64
7, 15240, Note_on_c, 5, 55, 80
7, 15287, Note_off_c, 5, 55, 64
7, 15300, Note_on_c, 5, 53, 80
7, 15347, Note_off_c, 5, 53, 64
7, 15360, Note_on_c, 5, 52, 80
7, 15420, Note_off_c, 5, 52, 64
7, 15480, Note_on_c, 5, 48, 80
7, 15540, Note_off_c, 5, 48, 64
7, 15600, Note_on_c, 5, 48, 80
7, 15660, Note_off_c, 5, 48, 64
7, 15720, Note_on_c, 5, 49, 80
7, 15780, Note_off_c, 5, 49, 64
7, 15840, Note_on_c, 5, 50, 80
7, 15900, Note_off_c, 5, 50, 64
7, 15960, Note_on_c, 5, 50, 80
7, 16020, Note_off_c, 5, 50, 64
7, 16080, Note_on_c, 5, 50, 80
7, 16140, Note_off_c, 5, 50, 64
7, 16200, Note_on_c, 5, 50, 80
7, 16260, Note_off_c, 5, 50, 64
7, 16320, Note_on_c, 5, 62, 80
7, 16510, Note_off_c, 5, 62, 64
7, 16560, Note_on_c, 5, 54, 80
7, 16655, Note_off_c, 5, 54, 64
7, 16680, Note_on_c, 5, 54, 80
7, 16775, Note_off_c, 5, 54, 64
7, 16800, Note_on_c, 5, 54, 80
7, 16990, Note_off_c, 5, 54, 64
7, 17040, Note_on_c, 5, 55, 80
7, 17230, Note_off_c, 5, 55, 64
7, 17520, Note_on_c, 5, 47, 80
7, 17615, Note_off_c, 5, 47, 64
7, 17640, Note_on_c, 5, 47, 80
7, 17735, Note_off_c, 5, 47, 64
7, 17760, Note_on_c, 5, 47, 80
7, 17950, Note_off_c, 5, 47, 64
7, 18000, Note_on_c, 5, 48, 80
7, 18190, Note_off_c, 5, 48, 64
7, 18240, Note_on_c, 5, 50, 80
7, 18335, Note_off_c, 5, 50, 64
7, 18360, Note_on_c, 5, 48, 80
7, 18455, Note_off_c, 5, 48, 64
7, 18480, Note_on_c, 5, 47, 80
7, 18575, Note_off_c, 5, 47, 64
7, 18600, Note_on_c, 5, 45, 80
7, 18647, Note_off_c, 5, 45, 64
7, 18660, Note_on_c, 5, 43, 80
7, 18707, Note_off_c, 5, 43, 64
7, 18720, Note_on_c, 5, 50, 80
7, 18815, Note_off_c, 5, 50, 64
7, 18840, Note_on_c, 5, 50, 80
7, 18935, Note_off_c, 5, 50, 64
7, 18960, Note_on_c, 5, 50, 80
7, 19055, Note_off_c, 5, 50, 64
7, 19080, Note_on_c, 5, 50, 80
7, 19175, Note_off_c, 5, 50, 64
7, 19200, Note_on_c, 5, 43, 80
7, 19295, Note_off_c, 5, 43, 64
7, 19320, Note_on_c, 5, 47, 80
7, 19415, Note_off_c, 5, 47, 64
7, 19440, Note_on_c, 5, 50, 80
7, 19535, Note_off_c, 5, 50, 64
7, 19560, Note_on_c, 5, 50, 80
7, 19655, Note_off_c, 5, 50, 64
7, 19680, Note_on_c, 5, 43, 80
7, 19740, Note_off_c, 5, 43, 64
7, 19800, Note_on_c, 5, 55, 80
7, 19860, Note_off_c, 5, 55, 64
7, 19920, Note_on_c, 5, 55, 80
7, 19980, Note_off_c, 5, 55, 64
7, 20040, Note_on_c, 5, 55, 80
7, 20100, Note_off_c, 5, 55, 64
7, 20160, Note_on_c, 5, 55, 80
7, 20220, Note_off_c, 5, 55, 64
7, 20280, Note_on_c, 5, 55, 80
7, 20340, Note_off_c, 5, 55, 64
7, 20400, Note_on_c, 5, 55, 80
7, 20460, Note_off_c, 5, 55, 64
7, 20520, Note_on_c, 5, 55, 80
7, 20580, Note_off_c, 5, 55, 64
7, 20640, Note_on_c, 5, 57, 80
7, 20700, Note_off_c, 5, 57, 64
7, 20760, Note_on_c, 5, 57, 80
7, 20820, Note_off_c, 5, 57, 64
7, 20880, Note_on_c, 5, 50, 80
7, 20940, Note_off_c, 5, 50, 64
7, 21000, Note_on_c, 5, 50, 80
7, 21060, Note_off_c, 5, 50, 64
7, 21120, Note_on_c, 5, 55, 80
7, 21180, Note_off_c, 5, 55, 64
7, 21240, Note_on_c, 5, 43, 80
7, 21300, Note_off_c, 5, 43, 64
7, 21360, Note_on_c, 5, 47, 80
7, 21420, Note_off_c, 5, 47, 64
7, 21480, Note_on_c, 5, 50, 80
7, 21540, Note_off_c, 5, 50, 64
7, 21600, Note_on_c, 5, 55, 80
7, 21660, Note_off_c, 5, 55, 64
7, 21720, Note_on_c, 5, 55, 80
7, 21780, Note_off_c, 5, 55, 64
7, 21840, Note_on_c, 5, 55, 80
7, 21900, Note_off_c, 5, 55, 64
7, 21960, Note_on_c, 5, 55, 80
7, 22020, Note_off_c, 5, 55, 64
7, 22080, Note_on_c, 5, 55, 80
7, 22140, Note_off_c, 5, 55, 64
7, 22200, Note_on_c, 5, 55, 80
7, 22260, Note_off_c, 5, 55, 64
7, 22320, Note_on_c, 5, 55, 80
7, 22380, Note_off_c, 5, 55, 64
7, 22440, Note_on_c, 5, 55, 80
7, 22500, Note_off_c, 5, 55, 64
7, 22560, Note_on_c, 5, 52, 80
7, 22620, Note_off_c, 5, 52, 64
7, 22680, Note_on_c, 5, 52, 80
7, 22740, Note_off_c, 5, 52, 64
7, 22800, Note_on_c, 5, 54, 80
7, 22860, Note_off_c, 5, 54, 64
7, 22920, Note_on_c, 5, 54, 80
7, 22980, Note_off_c, 5, 54, 64
7, 23040, Note_on_c, 5, 55, 80
7, 23135, Note_off_c, 5, 55, 64
7, 23160, Note_on_c, 5, 59, 80
7, 23255, Note_off_c, 5, 59, 64
7, 23280, Note_on_c, 5, 57, 80
7, 23375, Note_off_c, 5, 57, 64
7, 23400, Note_on_c, 5, 54, 80
7, 23495, Note_off_c, 5, 54, 64
7, 23520, Note_on_c, 5, 55, 80
7, 23615, Note_off_c, 5, 55, 64
7, 23640, Note_on_c, 5, 59, 80
7, 23735, Note_off_c, 5, 59, 64
7, 23760, Note_on_c, 5, 57, 80
7, 23855, Note_off_c, 5, 57, 64
7, 23880, Note_on_c, 5, 54, 80
7, 23975, Note_off_c, 5, 54, 64
7, 24000, Note_on_c, 5, 55, 80
7, 24095, Note_off_c, 5, 55, 64
7, 24120, Note_on_c, 5, 55, 80
7, 24215, Note_off_c, 5, 55, 64
7, 24240, Note_on_c, 5, 53, 80
7, 24335, Note_off_c, 5, 53, 64
7, 24360, Note_on_c, 5, 53, 80
7, 24455, Note_off_c, 5, 53, 64
7, 24480, Note_on_c, 5, 52, 80
7, 24575, Note_off_c, 5, 52, 64
7, 24600, Note_on_c, 5, 50, 80
7, 24695, Note_off_c, 5, 50, 64
7, 24720, Note_on_c, 5, 48, 80
7, 24815, Note_off_c, 5, 48, 64
7, 24840, Note_on_c, 5, 47, 80
7, 24935, Note_off_c, 5, 47, 64
7, 24960, Note_on_c, 5, 45, 80
7, 25055, Note_off_c, 5, 45, 64
7, 25080, Note_on_c, 5, 57, 80
7, 25175, Note_off_c, 5, 57, 64
7, 25200, Note_on_c, 5, 57, 80
7, 25295, Note_off_c, 5, 57, 64
7, 25320, Note_on_c, 5, 55, 80
7, 25415, Note_off_c, 5, 55, 64
7, 25440, Note_on_c, 5, 53, 80
7, 25535, Note_off_c, 5, 53, 64
7, 25560, Note_on_c, 5, 53, 80
7, 25655, Note_off_c, 5, 53, 64
7, 25680, Note_on_c, 5, 53, 80
7, 25775, Note_off_c, 5, 53, 64
7, 25800, Note_on_c, 5, 53, 80
7, 25895, Note_off_c, 5, 53, 64
7, 25920, Note_on_c, 5, 52, 80
7, 26110, Note_off_c, 5, 52, 64
7, 26160, Note_on_c, 5, 52, 80
7, 26255, Note_off_c, 5, 52, 64
7, 26280, Note_on_c, 5, 50, 80
7, 26375, Note_off_c, 5, 50, 64
7, 26400, Note_on_c, 5, 48, 80
7, 26447, Note_off_c, 5, 48, 64
7, 26460, Note_on_c, 5, 48, 80
7, 26507, Note_off_c, 5, 48, 64
7, 26520, Note_on_c, 5, 50, 80
7, 26567, Note_off_c, 5, 50, 64
7, 26580, Note_on_c, 5, 52, 80
7, 26627, Note_off_c, 5, 52, 64
7, 26640, Note_on_c, 5, 53, 80
7, 26687, Note_off_c, 5, 53, 64
7, 26700, Note_on_c, 5, 57, 80
7, 26747, Note_off_c, 5, 57, 64
7, 26760, Note_on_c, 5, 55, 80
7, 26807, Note_off_c, 5, 55, 64
7, 26820, Note_on_c, 5, 53, 80
7, 26867, Note_off_c, 5, 53, 64
7, 26880, Note_on_c, 5, 52, 80
7, 26927, Note_off_c, 5, 52, 64
7, 26940, Note_on_c, 5, 53, 80
7, 26987, Note_off_c, 5, 53, 64
7, 27000, Note_on_c, 5, 55, 80
7, 27047, Note_off_c, 5, 55, 64
7, 27060, Note_on_c, 5, 53, 80
7, 27107, Note_off_c, 5, 53, 64
7, 27120, Note_on_c, 5, 52, 80
7, 27167, Note_off_c, 5, 52, 64
7, 27180, Note_on_c, 5, 50, 80
7, 27227, Note_off_c, 5, 50, 64
7, 27240, Note_on_c, 5, 52, 80
7, 27287, Note_off_c, 5, 52, 64
7, 27300, Note_on_c, 5, 48, 80
7, 27347, Note_off_c, 5, 48, 64
7, 27360, Note_on_c, 5, 53, 80
7, 27407, Note_off_c, 5, 53, 64
7, 27420, Note_on_c, 5, 50, 80
7, 27467, Note_off_c, 5, 50, 64
7, 27480, Note_on_c, 5, 52, 80
7, 27527, Note_off_c, 5, 52, 64
7, 27540, Note_on_c, 5, 53, 80
7, 27587, Note_off_c, 5, 53, 64
7, 27600, Note_on_c, 5, 55, 80
7, 27647, Note_off_c, 5, 55, 64
7, 27660, Note_on_c, 5, 57, 80
7, 27707, Note_off_c, 5, 57, 64
7, 27720, Note_on_c, 5, 53, 80
7, 27767, Note_off_c, 5, 53, 64
7, 27780, Note_on_c, 5, 55, 80
7, 27827, Note_off_c, 5, 55, 64
7, 27840, Note_on_c, 5, 52, 80
7, 27887, Note_off_c, 5, 52, 64
7, 27900, Note_on_c, 5, 53, 80
7, 27947, Note_off_c, 5, 53, 64
7, 27960, Note_on_c, 5, 50, 80
7, 28007, Note_off_c, 5, 50, 64
7, 28020, Note_on_c, 5, 52, 80
7, 28067, Note_off_c, 5, 52, 64
7, 28080, Note_on_c, 5, 48, 80
7, 28127, Note_off_c, 5, 48, 64
7, 28140, Note_on_c, 5, 50, 80
7, 28187, Note_off_c, 5, 50, 64
7, 28200, Note_on_c, 5, 47, 80
7, 28247, Note_off_c, 5, 47, 64
7, 28260, Note_on_c, 5, 48, 80
7, 28307, Note_off_c, 5, 48, 64
7, 28320, Note_on_c, 5, 45, 80
7, 28367, Note_off_c, 5, 45, 64
7, 28380, Note_on_c, 5, 45, 80
7, 28427, Note_off_c, 5, 45, 64
7, 28440, Note_on_c, 5, 47, 80
7, 28487, Note_off_c, 5, 47, 64
7, 28500, Note_on_c, 5, 48, 80
7, 28547, Note_off_c, 5, 48, 64
7, 28560, Note_on_c, 5, 50, 80
7, 28607, Note_off_c, 5, 50, 64
7, 28620, Note_on_c, 5, 48, 80
7, 28667, Note_off_c, 5, 48, 64
7, 28680, Note_on_c, 5, 47, 80
7, 28727, Note_off_c, 5, 47, 64
7, 28740, Note_on_c, 5, 45, 80
7, 28787, Note_off_c, 5, 45, 64
7, 28800, Note_on_c, 5, 43, 80
7, 28847, Note_off_c, 5, 43, 64
7, 28860, Note_on_c, 5, 55, 80
7, 28907, Note_off_c, 5, 55, 64
7, 28920, Note_on_c, 5, 54, 80
7, 28967, Note_off_c, 5, 54, 64
7, 28980, Note_on_c, 5, 55, 80
7, 29027, Note_off_c, 5, 55, 64
7, 29040, Note_on_c, 5, 52, 80
7, 29087, Note_off_c, 5, 52, 64
7, 29100, Note_on_c, 5, 50, 80
7, 29147, Note_off_c, 5, 50, 64
7, 29160, Note_on_c, 5, 52, 80
7, 29207, Note_off_c, 5, 52, 64
7, 29220, Note_on_c, 5, 48, 80
7, 29267, Note_off_c, 5, 48, 64
7, 29280, Note_on_c, 5, 50, 80
7, 29327, Note_off_c, 5, 50, 64
7, 29340, Note_on_c, 5, 45, 80
7, 29387, Note_off_c, 5, 45, 64
7, 29400, Note_on_c, 5, 47, 80
7, 29447, Note_off_c, 5, 47, 64
7, 29460, Note_on_c, 5, 48, 80
7, 29507, Note_off_c, 5, 48, 64
7, 29520, Note_on_c, 5, 50, 80
7, 29567, Note_off_c, 5, 50, 64
7, 29580, Note_on_c, 5, 48, 80
7, 29627, Note_off_c, 5, 48, 64
7, 29640, Note_on_c, 5, 47, 80
7, 29687, Note_off_c, 5, 47, 64
7, 29700, Note_on_c, 5, 45, 80
7, 29747, Note_off_c, 5, 45, 64
7, 29760, Note_on_c, 5, 47, 80
7, 29807, Note_off_c, 5, 47, 64
7, 29820, Note_on_c, 5, 43, 80
7, 29867, Note_off_c, 5, 43, 64
7, 29880, Note_on_c, 5, 47, 80
7, 29927, Note_off_c, 5, 47, 64
7, 29940, Note_on_c, 5, 50, 80
7, 29987, Note_off_c, 5, 50, 64
7, 30000, Note_on_c, 5, 55, 80
7, 30047, Note_off_c, 5, 55, 64
7, 30060, Note_on_c, 5, 57, 80
7, 30107, Note_off_c, 5, 57, 64
7, 30120, Note_on_c, 5, 59, 80
7, 30167, Note_off_c, 5, 59, 64
7, 30180, Note_on_c, 5, 55, 80
7, 30227, Note_off_c, 5, 55, 64
7, 30240, Note_on_c, 5, 60, 80
7, 30287, Note_off_c, 5, 60, 64
7, 30300, Note_on_c, 5, 59, 80
7, 30347, Note_off_c, 5, 59, 64
7, 30360, Note_on_c, 5, 60, 80
7, 30407, Note_off_c, 5, 60, 64
7, 30420, Note_on_c, 5, 59, 80
7, 30467, Note_off_c, 5, 59, 64
7, 30480, Note_on_c, 5, 57, 80
7, 30527, Note_off_c, 5, 57, 64
7, 30540, Note_on_c, 5, 55, 80
7, 30587, Note_off_c, 5, 55, 64
7, 30600, Note_on_c, 5, 57, 80
7, 30647, Note_off_c, 5, 57, 64
7, 30660, Note_on_c, 5, 53, 80
7, 30707, Note_off_c, 5, 53, 64
7, 30720, Note_on_c, 5, 59, 80
7, 30767, Note_off_c, 5, 59, 64
7, 30780, Note_on_c, 5, 57, 80
7, 30827, Note_off_c, 5, 57, 64
7, 30840, Note_on_c, 5, 59, 80
7, 30887, Note_off_c, 5, 59, 64
7, 30900, Note_on_c, 5, 57, 80
7, 30947, Note_off_c, 5, 57, 64
7, 30960, Note_on_c, 5, 56, 80
7, 31007, Note_off_c, 5, 56, 64
7, 31020, Note_on_c, 5, 54, 80
7, 31067, Note_off_c, 5, 54, 64
7, 31080, Note_on_c, 5, 56, 80
7, 31127, Note_off_c, 5, 56, 64
7, 31140, Note_on_c, 5, 52, 80
7, 31187, Note_off_c, 5, 52, 64
7, 31200, Note_on_c, 5, 57, 80
7, 31295, Note_off_c, 5, 57, 64
7, 31320, Note_on_c, 5, 55, 80
7, 31415, Note_off_c, 5, 55, 64
7, 31440, Note_on_c, 5, 53, 80
7, 31535, Note_off_c, 5, 53, 64
7, 31560, Note_on_c, 5, 52, 80
7, 31655, Note_off_c, 5, 52, 64
7, 31680, Note_on_c, 5, 50, 80
7, 31775, Note_off_c, 5, 50, 64
7, 31800, Note_on_c, 5, 50, 80
7, 31895, Note_off_c, 5, 50, 64
7, 31920, Note_on_c, 5, 52, 80
7, 32015, Note_off_c, 5, 52, 64
7, 32040, Note_on_c, 5, 52, 80
7, 32135, Note_off_c, 5, 52, 64
7, 32160, Note_on_c, 5, 45, 80
7, 32255, Note_off_c, 5, 45, 64
7, 32280, Note_on_c, 5, 48, 80
7, 32375, Note_off_c, 5, 48, 64
7, 32400, Note_on_c, 5, 50, 80
7, 32495, Note_off_c, 5, 50, 64
7, 32520, Note_on_c, 5, 52, 80
7, 32615, Note_off_c, 5, 52, 64
7, 32640, Note_on_c, 5, 45, 80
7, 32640, Note_on_c, 5, 57, 80
7, 32830, Note_off_c, 5, 57, 64
7, 32830, Note_off_c, 5, 45, 64
7, 36060, Note_on_c, 5, 52, 80
7, 36107, Note_off_c, 5, 52, 64
7, 36120, Note_on_c, 5, 64, 80
7, 36167, Note_off_c, 5, 64, 64
7, 36180, Note_on_c, 5, 62, 80
7, 36227, Note_off_c, 5, 62, 64
7, 36240, Note_on_c, 5, 61, 80
7, 36287, Note_off_c, 5, 61, 64
7, 36300, Note_on_c, 5, 59, 80
7, 36347, Note_off_c, 5, 59, 64
7, 36360, Note_on_c, 5, 61, 80
7, 36407, Note_off_c, 5, 61, 64
7, 36420, Note_on_c, 5, 57, 80
7, 36467, Note_off_c, 5, 57, 64
7, 36480, Note_on_c, 5, 62, 80
7, 36527, Note_off_c, 5, 62, 64
7, 36540, Note_on_c, 5, 60, 80
7, 36587, Note_off_c, 5, 60, 64
7, 36600, Note_on_c, 5, 62, 80
7, 36647, Note_off_c, 5, 62, 64
7, 36660, Note_on_c, 5, 60, 80
7, 36707, Note_off_c, 5, 60, 64
7, 36720, Note_on_c, 5, 59, 80
7, 36767, Note_off_c, 5, 59, 64
7, 36780, Note_on_c, 5, 57, 80
7, 36827, Note_off_c, 5, 57, 64
7, 36840, Note_on_c, 5, 59, 80
7, 36887, Note_off_c, 5, 59, 64
7, 36900, Note_on_c, 5, 55, 80
7, 36947, Note_off_c, 5, 55, 64
7, 36960, Note_on_c, 5, 60, 80
7, 37007, Note_off_c, 5, 60, 64
7, 37020, Note_on_c, 5, 59, 80
7, 37067, Note_off_c, 5, 59, 64
7, 37080, Note_on_c, 5, 60, 80
7, 37127, Note_off_c, 5, 60, 64
7, 37140, Note_on_c, 5, 59, 80
7, 37187, Note_off_c, 5, 59, 64
7, 37200, Note_on_c, 5, 57, 80
7, 37247, Note_off_c, 5, 57, 64
7, 37260, Note_on_c, 5, 55, 80
7, 37307, Note_off_c, 5, 55, 64
7, 37320, Note_on_c, 5, 57, 80
7, 37367, Note_off_c, 5, 57, 64
7, 37380, Note_on_c, 5, 55, 80
7, 37427, Note_off_c, 5, 55, 64
7, 37440, Note_on_c, 5, 54, 80
7, 37535, Note_off_c, 5, 54, 64
7, 37560, Note_on_c, 5, 54, 80
7, 37655, Note_off_c, 5, 54, 64
7, 37680, Note_on_c, 5, 54, 80
7, 37775, Note_off_c, 5, 54, 64
7, 37800, Note_on_c, 5, 54, 80
7, 37895, Note_off_c, 5, 54, 64
7, 37920, Note_on_c, 5, 62, 80
7, 37920, Note_on_c, 5, 55, 80
7, 38015, Note_off_c, 5, 55, 64
7, 38040, Note_on_c, 5, 53, 80
7, 38135, Note_off_c, 5, 53, 64
7, 38135, Note_off_c, 5, 62, 64
7, 38160, Note_on_c, 5, 64, 80
7, 38160, Note_on_c, 5, 52, 80
7, 38255, Note_off_c, 5, 52, 64
7, 38280, Note_on_c, 5, 52, 80
7, 38375, Note_off_c, 5, 52, 64
7, 38375, Note_off_c, 5, 64, 64
7, 38400, Note_on_c, 5, 53, 80
7, 38495, Note_off_c, 5, 53, 64
7, 38520, Note_on_c, 5, 53, 80
7, 38615, Note_off_c, 5, 53, 64
7, 38640, Note_on_c, 5, 55, 80
7, 38735, Note_off_c, 5, 55, 64
7, 38760, Note_on_c, 5, 43, 80
7, 38855, Note_off_c, 5, 43, 64
7, 38880, Note_on_c, 5, 48, 80
7, 38975, Note_off_c, 5, 48, 64
7, 39000, Note_on_c, 5, 52, 80
7, 39095, Note_off_c, 5, 52, 64
7, 39120, Note_on_c, 5, 53, 80
7, 39215, Note_off_c, 5, 53, 64
7, 39240, Note_on_c, 5, 55, 80
7, 39335, Note_off_c, 5, 55, 64
7, 39360, Note_on_c, 5, 48, 80
7, 39550, Note_off_c, 5, 48, 64
7, 39600, Note_on_c, 5, 60, 80
7, 39695, Note_off_c, 5, 60, 64
7, 39720, Note_on_c, 5, 60, 80
7, 39815, Note_off_c, 5, 60, 64
7, 39840, Note_on_c, 5, 60, 80
7, 40030, Note_off_c, 5, 60, 64
7, 40080, Note_on_c, 5, 52, 80
7, 40175, Note_off_c, 5, 52, 64
7, 40200, Note_on_c, 5, 52, 80
7, 40295, Note_off_c, 5, 52, 64
7, 40320, Note_on_c, 5, 52, 80
7, 40415, Note_off_c, 5, 52, 64
7, 40440, Note_on_c, 5, 52, 80
7, 40535, Note_off_c, 5, 52, 64
7, 40560, Note_on_c, 5, 53, 80
7, 40655, Note_off_c, 5, 53, 64
7, 41040, Note_on_c, 5, 62, 80
7, 41040, Note_on_c, 5, 59, 80
7, 41040, Note_on_c, 5, 55, 80
7, 41135, Note_off_c, 5, 55, 64
7, 41135, Note_off_c, 5, 59, 64
7, 41135, Note_off_c, 5, 62, 64
7, 41160, Note_on_c, 5, 62, 80
7, 41160, Note_on_c, 5, 59, 80
7, 41160, Note_on_c, 5, 55, 80
7, 41255, Note_off_c, 5, 55, 64
7, 41255, Note_off_c, 5, 59, 64
7, 41255, Note_off_c, 5, 62, 64
7, 41280, Note_on_c, 5, 55, 80
7, 41280, Note_on_c, 5, 62, 80
7, 41280, Note_on_c, 5, 59, 80
7, 41375, Note_off_c, 5, 55, 64
7, 41400, Note_on_c, 5, 55, 80
7, 41470, Note_off_c, 5, 59, 64
7, 41470, Note_off_c, 5, 62, 64
7, 41495, Note_off_c, 5, 55, 64
7, 41520, Note_on_c, 5, 57, 80
7, 41520, Note_on_c, 5, 60, 80
7, 41615, Note_off_c, 5, 57, 64
7, 41640, Note_on_c, 5, 57, 80
7, 41710, Note_off_c, 5, 60, 64
7, 41735, Note_off_c, 5, 57, 64
7, 41760, Note_on_c, 5, 53, 80
7, 41760, Note_on_c, 5, 65, 80
7, 41855, Note_off_c, 5, 53, 64
7, 41880, Note_on_c, 5, 53, 80
7, 41950, Note_off_c, 5, 65, 64
7, 41975, Note_off_c, 5, 53, 64
7, 42000, Note_on_c, 5, 55, 80
7, 42000, Note_on_c, 5, 64, 80
7, 42095, Note_off_c, 5, 64, 64
7, 42095, Note_off_c, 5, 55, 64
7, 42120, Note_on_c, 5, 55, 80
7, 42120, Note_on_c, 5, 65, 80
7, 42215, Note_off_c, 5, 65, 64
7, 42215, Note_off_c, 5, 55, 64
7, 42240, Note_on_c, 5, 64, 80
7, 42240, Note_on_c, 5, 48, 80
7, 42335, Note_off_c, 5, 48, 64
7, 42360, Note_on_c, 5, 52, 80
7, 42430, Note_off_c, 5, 64, 64
7, 42455, Note_off_c, 5, 52, 64
7, 42480, Note_on_c, 5, 65, 80
7, 42480, Note_on_c, 5, 53, 80
7, 42575, Note_off_c, 5, 53, 64
7, 42575, Note_off_c, 5, 65, 64
7, 42600, Note_on_c, 5, 65, 80
7, 42600, Note_on_c, 5, 53, 80
7, 42695, Note_off_c, 5, 53, 64
7, 42695, Note_off_c, 5, 65, 64
7, 42720, Note_on_c, 5, 64, 80
7, 42720, Note_on_c, 5, 55, 80
7, 42815, Note_off_c, 5, 55, 64
7, 42815, Note_off_c, 5, 64, 64
7, 42840, Note_on_c, 5, 64, 80
7, 42840, Note_on_c, 5, 55, 80
7, 42935, Note_off_c, 5, 55, 64
7, 42935, Note_off_c, 5, 64, 64
7, 42960, Note_on_c, 5, 65, 80
7, 42960, Note_on_c, 5, 43, 80
7, 43055, Note_off_c, 5, 43, 64
7, 43055, Note_off_c, 5, 65, 64
7, 43080, Note_on_c, 5, 65, 80
7, 43080, Note_on_c, 5, 43, 80
7, 43175, Note_off_c, 5, 43, 64
7, 43175, Note_off_c, 5, 65, 64
7, 43200, Note_on_c, 5, 64, 80
7, 43200, Note_on_c, 5, 48, 80
7, 43295, Note_off_c, 5, 48, 64
7, 43295, Note_off_c, 5, 64, 64
7, 43320, Note_on_c, 5, 64, 80
7, 43320, Note_on_c, 5, 48, 80
7, 43415, Note_off_c, 5, 48, 64
7, 43415, Note_off_c, 5, 64, 64
7, 43440, Note_on_c, 5, 65, 80
7, 43440, Note_on_c, 5, 53, 80
7, 43535, Note_off_c, 5, 53, 64
7, 43535, Note_off_c, 5, 65, 64
7, 43560, Note_on_c, 5, 65, 80
7, 43560, Note_on_c, 5, 53, 80
7, 43655, Note_off_c, 5, 53, 64
7, 43655, Note_off_c, 5, 65, 64
7, 43680, Note_on_c, 5, 64, 80
7, 43680, Note_on_c, 5, 55, 80
7, 43775, Note_off_c, 5, 55, 64
7, 43775, Note_off_c, 5, 64, 64
7, 43800, Note_on_c, 5, 64, 80
7, 43800, Note_on_c, 5, 55, 80
7, 43895, Note_off_c, 5, 55, 64
7, 43895, Note_off_c, 5, 64, 64
7, 43920, Note_on_c, 5, 62, 80
7, 43920, Note_on_c, 5, 55, 80
7, 44015, Note_off_c, 5, 55, 64
7, 44015, Note_off_c, 5, 62, 64
7, 44040, Note_on_c, 5, 62, 80
7, 44040, Note_on_c, 5, 55, 80
7, 44135, Note_off_c, 5, 55, 64
7, 44135, Note_off_c, 5, 62, 64
7, 44160, Note_on_c, 5, 60, 80
7, 44160, Note_on_c, 5, 48, 80
7, 44255, Note_off_c, 5, 48, 64
7, 44255, Note_off_c, 5, 60, 64
7, 44280, Note_on_c, 5, 60, 80
7, 44280, Note_on_c, 5, 48, 80
7, 44375, Note_off_c, 5, 48, 64
7, 44375, Note_off_c, 5, 60, 64
7, 44400, Note_on_c, 5, 55, 80
7, 44495, Note_off_c, 5, 55, 64
7, 44520, Note_on_c, 5, 43, 80
7, 44615, Note_off_c, 5, 43, 64
7, 44640, Note_on_c, 5, 48, 80
7, 44735, Note_off_c, 5, 48, 64
7, 44760, Note_on_c, 5, 48, 80
7, 44855, Note_off_c, 5, 48, 64
7, 44880, Note_on_c, 5, 55, 80
7, 44975, Note_off_c, 5, 55, 64
7, 45000, Note_on_c, 5, 43, 80
7, 45095, Note_off_c, 5, 43, 64
7, 45120, Note_on_c, 5, 48, 80
7, 45262, Note_off_c, 5, 48, 64
7, 45300, Note_on_c, 5, 60, 80
7, 45347, Note_off_c, 5, 60, 64
7, 45360, Note_on_c, 5, 55, 80
7, 45430, Note_off_c, 5, 55, 64
7, 45450, Note_on_c, 5, 60, 80
7, 45472, Note_off_c, 5, 60, 64
7, 45480, Note_on_c, 5, 55, 80
7, 45550, Note_off_c, 5, 55, 64
7, 45570, Note_on_c, 5, 52, 80
7, 45592, Note_off_c, 5, 52, 64
7, 45600, Note_on_c, 5, 48, 80
7, 45982, Note_off_c, 5, 48, 64
7, 46080, Note_on_c, 5, 48, 80
7, 46140, Note_off_c, 5, 48, 64
7, 46200, Note_on_c, 5, 48, 80
7, 46260, Note_off_c, 5, 48, 64
7, 46320, Note_on_c, 5, 50, 80
7, 46380, Note_off_c, 5, 50, 64
7, 46440, Note_on_c, 5, 50, 80
7, 46500, Note_off_c, 5, 50, 64
7, 46560, Note_on_c, 5, 52, 80
7, 46607, Note_off_c, 5, 52, 64
7, 46620, Note_on_c, 5, 50, 80
7, 46667, Note_off_c, 5, 50, 64
7, 46680, Note_on_c, 5, 48, 80
7, 46727, Note_off_c, 5, 48, 64
7, 46740, Note_on_c, 5, 50, 80
7, 46787, Note_off_c, 5, 50, 64
7, 46800, Note_on_c, 5, 52, 80
7, 46860, Note_off_c, 5, 52, 64
7, 46920, Note_on_c, 5, 52, 80
7, 46980, Note_off_c, 5, 52, 64
7, 47040, Note_on_c, 5, 53, 80
7, 47100, Note_off_c, 5, 53, 64
7, 47160, Note_on_c, 5, 55, 80
7, 47220, Note_off_c, 5, 55, 64
7, 47280, Note_on_c, 5, 57, 80
7, 47340, Note_off_c, 5, 57, 64
7, 47400, Note_on_c, 5, 59, 80
7, 47460, Note_off_c, 5, 59, 64
7, 47520, Note_on_c, 5, 60, 80
7, 47580, Note_off_c, 5, 60, 64
7, 47640, Note_on_c, 5, 48, 80
7, 47700, Note_off_c, 5, 48, 64
7, 47760, Note_on_c, 5, 52, 80
7, 47820, Note_off_c, 5, 52, 64
7, 47880, Note_on_c, 5, 55, 80
7, 47940, Note_off_c, 5, 55, 64
7, 48000, Note_on_c, 5, 60, 80
7, 48190, Note_off_c, 5, 60, 64
7, 49560, Note_on_c, 5, 48, 80
7, 49620, Note_off_c, 5, 48, 64
7, 49680, Note_on_c, 5, 52, 80
7, 49740, Note_off_c, 5, 52, 64
7, 49800, Note_on_c, 5, 55, 80
7, 49860, Note_off_c, 5, 55, 64
7, 49920, Note_on_c, 5, 48, 80
7, 49980, Note_off_c, 5, 48, 64
7, 50040, Note_on_c, 5, 48, 80
7, 50100, Note_off_c, 5, 48, 64
7, 50160, Note_on_c, 5, 48, 80
7, 50220, Note_off_c, 5, 48, 64
7, 50280, Note_on_c, 5, 48, 80
7, 50340, Note_off_c, 5, 48, 64
7, 50400, Note_on_c, 5, 48, 80
7, 50460, Note_off_c, 5, 48, 64
7, 50520, Note_on_c, 5, 48, 80
7, 50580, Note_off_c, 5, 48, 64
7, 50640, Note_on_c, 5, 48, 80
7, 50700, Note_off_c, 5, 48, 64
7, 50760, Note_on_c, 5, 48, 80
7, 50820, Note_off_c, 5, 48, 64
7, 50880, Note_on_c, 5, 45, 80
7, 50940, Note_off_c, 5, 45, 64
7, 51000, Note_on_c, 5, 45, 80
7, 51060, Note_off_c, 5, 45, 64
7, 51120, Note_on_c, 5, 47, 80
7, 51180, Note_off_c, 5, 47, 64
7, 51240, Note_on_c, 5, 47, 80
7, 51300, Note_off_c, 5, 47, 64
7, 51360, Note_on_c, 5, 48, 80
7, 51420, Note_off_c, 5, 48, 64
7, 51480, Note_on_c, 5, 52, 80
7, 51527, Note_off_c, 5, 52, 64
7, 51540, Note_on_c, 5, 55, 80
7, 51587, Note_off_c, 5, 55, 64
7, 51600, Note_on_c, 5, 60, 80
7, 51695, Note_off_c, 5, 60, 64
7, 51720, Note_on_c, 5, 55, 80
7, 51815, Note_off_c, 5, 55, 64
7, 51840, Note_on_c, 5, 60, 80
7, 51935, Note_off_c, 5, 60, 64
7, 51960, Note_on_c, 5, 48, 80
7, 52055, Note_off_c, 5, 48, 64
7, 52080, Note_on_c, 5, 60, 80
7, 52175, Note_off_c, 5, 60, 64
7, 52200, Note_on_c, 5, 57, 80
7, 52295, Note_off_c, 5, 57, 64
7, 52320, Note_on_c, 5, 55, 80
7, 52415, Note_off_c, 5, 55, 64
7, 52440, Note_on_c, 5, 43, 80
7, 52535, Note_off_c, 5, 43, 64
7, 56220, Note_on_c, 5, 43, 80
7, 56267, Note_off_c, 5, 43, 64
7, 56280, Note_on_c, 5, 47, 80
7, 56327, Note_off_c, 5, 47, 64
7, 56340, Note_on_c, 5, 50, 80
7, 56387, Note_off_c, 5, 50, 64
7, 56400, Note_on_c, 5, 55, 80
7, 56447, Note_off_c, 5, 55, 64
7, 56460, Note_on_c, 5, 57, 80
7, 56507, Note_off_c, 5, 57, 64
7, 56520, Note_on_c, 5, 59, 80
7, 56567, Note_off_c, 5, 59, 64
7, 56580, Note_on_c, 5, 55, 80
7, 56627, Note_off_c, 5, 55, 64
7, 56640, Note_on_c, 5, 60, 80
7, 56830, Note_off_c, 5, 60, 64
7, 56940, Note_on_c, 5, 60, 80
7, 56987, Note_off_c, 5, 60, 64
7, 57000, Note_on_c, 5, 55, 80
7, 57047, Note_off_c, 5, 55, 64
7, 57060, Note_on_c, 5, 52, 80
7, 57107, Note_off_c, 5, 52, 64
7, 57120, Note_on_c, 5, 48, 80
7, 57215, Note_off_c, 5, 48, 64
7, 57240, Note_on_c, 5, 60, 80
7, 57335, Note_off_c, 5, 60, 64
7, 57360, Note_on_c, 5, 48, 80
7, 57360, Note_on_c, 5, 60, 80
7, 57550, Note_off_c, 5, 60, 64
7, 57550, Note_off_c, 5, 48, 64
7, 57660, Note_on_c, 5, 48, 80
7, 57707, Note_off_c, 5, 48, 64
7, 57720, Note_on_c, 5, 50, 80
7, 57767, Note_off_c, 5, 50, 64
7, 57780, Note_on_c, 5, 52, 80
7, 57827, Note_off_c, 5, 52, 64
7, 57840, Note_on_c, 5, 53, 80
7, 57887, Note_off_c, 5, 53, 64
7, 57900, Note_on_c, 5, 57, 80
7, 57947, Note_off_c, 5, 57, 64
7, 57960, Note_on_c, 5, 55, 80
7, 58007, Note_off_c, 5, 55, 64
7, 58020, Note_on_c, 5, 53, 80
7, 58067, Note_off_c, 5, 53, 64
7, 58080, Note_on_c, 5, 52, 80
7, 58127, Note_off_c, 5, 52, 64
7, 58140, Note_on_c, 5, 50, 80
7, 58187, Note_off_c, 5, 50, 64
7, 58200, Note_on_c, 5, 48, 80
7, 58247, Note_off_c, 5, 48, 64
7, 58260, Note_on_c, 5, 50, 80
7, 58307, Note_off_c, 5, 50, 64
7, 58320, Note_on_c, 5, 52, 80
7, 58367, Note_off_c, 5, 52, 64
7, 58380, Note_on_c, 5, 48, 80
7, 58427, Note_off_c, 5, 48, 64
7, 58440, Note_on_c, 5, 50, 80
7, 58487, Note_off_c, 5, 50, 64
7, 58500, Note_on_c, 5, 52, 80
7, 58547, Note_off_c, 5, 52, 64
7, 58560, Note_on_c, 5, 53, 80
7, 58607, Note_off_c, 5, 53, 64
7, 58620, Note_on_c, 5, 50, 80
7, 58667, Note_off_c, 5, 50, 64
7, 58680, Note_on_c, 5, 52, 80
7, 58727, Note_off_c, 5, 52, 64
7, 58740, Note_on_c, 5, 53, 80
7, 58787, Note_off_c, 5, 53, 64
7, 58800, Note_on_c, 5, 55, 80
7, 58847, Note_off_c, 5, 55, 64
7, 58860, Note_on_c, 5, 57, 80
7, 58907, Note_off_c, 5, 57, 64
7, 58920, Note_on_c, 5, 53, 80
7, 58967, Note_off_c, 5, 53, 64
7, 58980, Note_on_c, 5, 55, 80
7, 59027, Note_off_c, 5, 55, 64
7, 59040, Note_on_c, 5, 52, 80
7, 59087, Note_off_c, 5, 52, 64
7, 59100, Note_on_c, 5, 53, 80
7, 59147, Note_off_c, 5, 53, 64
7, 59160, Note_on_c, 5, 55, 80
7, 59207, Note_off_c, 5, 55, 64
7, 59220, Note_on_c, 5, 53, 80
7, 59267, Note_off_c, 5, 53, 64
7, 59280, Note_on_c, 5, 52, 80
7, 59327, Note_off_c, 5, 52, 64
7, 59340, Note_on_c, 5, 50, 80
7, 59387, Note_off_c, 5, 50, 64
7, 59400, Note_on_c, 5, 52, 80
7, 59447, Note_off_c, 5, 52, 64
7, 59460, Note_on_c, 5, 48, 80
7, 59507, Note_off_c, 5, 48, 64
7, 59520, Note_on_c, 5, 50, 80
7, 59567, Note_off_c, 5, 50, 64
7, 59580, Note_on_c, 5, 52, 80
7, 59627, Note_off_c, 5, 52, 64
7, 59640, Note_on_c, 5, 54, 80
7, 59687, Note_off_c, 5, 54, 64
7, 59700, Note_on_c, 5, 55, 80
7, 59747, Note_off_c, 5, 55, 64
7, 59760, Note_on_c, 5, 57, 80
7, 59807, Note_off_c, 5, 57, 64
7, 59820, Note_on_c, 5, 54, 80
7, 59867, Note_off_c, 5, 54, 64
7, 59880, Note_on_c, 5, 52, 80
7, 59927, Note_off_c, 5, 52, 64
7, 59940, Note_on_c, 5, 50, 80
7, 59987, Note_off_c, 5, 50, 64
7, 60000, Note_on_c, 5, 55, 80
7, 60047, Note_off_c, 5, 55, 64
7, 60060, Note_on_c, 5, 54, 80
7, 60107, Note_off_c, 5, 54, 64
7, 60120, Note_on_c, 5, 52, 80
7, 60167, Note_off_c, 5, 52, 64
7, 60180, Note_on_c, 5, 50, 80
7, 60227, Note_off_c, 5, 50, 64
7, 60240, Note_on_c, 5, 52, 80
7, 60287, Note_off_c, 5, 52, 64
7, 60300, Note_on_c, 5, 50, 80
7, 60347, Note_off_c, 5, 50, 64
7, 60360, Note_on_c, 5, 48, 80
7, 60407, Note_off_c, 5, 48, 64
7, 60420, Note_on_c, 5, 47, 80
7, 60467, Note_off_c, 5, 47, 64
7, 60480, Note_on_c, 5, 48, 80
7, 60527, Note_off_c, 5, 48, 64
7, 60540, Note_on_c, 5, 45, 80
7, 60587, Note_off_c, 5, 45, 64
7, 60600, Note_on_c, 5, 47, 80
7, 60647, Note_off_c, 5, 47, 64
7, 60660, Note_on_c, 5, 48, 80
7, 60707, Note_off_c, 5, 48, 64
7, 60720, Note_on_c, 5, 50, 80
7, 60767, Note_off_c, 5, 50, 64
7, 60780, Note_on_c, 5, 48, 80
7, 60827, Note_off_c, 5, 48, 64
7, 60840, Note_on_c, 5, 47, 80
7, 60887, Note_off_c, 5, 47, 64
7, 60900, Note_on_c, 5, 45, 80
7, 60947, Note_off_c, 5, 45, 64
7, 60960, Note_on_c, 5, 47, 80
7, 61007, Note_off_c, 5, 47, 64
7, 61020, Note_on_c, 5, 43, 80
7, 61067, Note_off_c, 5, 43, 64
7, 61080, Note_on_c, 5, 47, 80
7, 61127, Note_off_c, 5, 47, 64
7, 61140, Note_on_c, 5, 50, 80
7, 61187, Note_off_c, 5, 50, 64
7, 61200, Note_on_c, 5, 55, 80
7, 61247, Note_off_c, 5, 55, 64
7, 61260, Note_on_c, 5, 57, 80
7, 61307, Note_off_c, 5, 57, 64
7, 61320, Note_on_c, 5, 55, 80
7, 61367, Note_off_c, 5, 55, 64
7, 61380, Note_on_c, 5, 53, 80
7, 61427, Note_off_c, 5, 53, 64
7, 61440, Note_on_c, 5, 52, 80
7, 61500, Note_off_c, 5, 52, 64
7, 61560, Note_on_c, 5, 48, 80
7, 61620, Note_off_c, 5, 48, 64
7, 61680, Note_on_c, 5, 48, 80
7, 61740, Note_off_c, 5, 48, 64
7, 61800, Note_on_c, 5, 49, 80
7, 61860, Note_off_c, 5, 49, 64
7, 61920, Note_on_c, 5, 50, 80
7, 61980, Note_off_c, 5, 50, 64
7, 62040, Note_on_c, 5, 50, 80
7, 62100, Note_off_c, 5, 50, 64
7, 62160, Note_on_c, 5, 50, 80
7, 62220, Note_off_c, 5, 50, 64
7, 62280, Note_on_c, 5, 50, 80
7, 62340, Note_off_c, 5, 50, 64
7, 62400, Note_on_c, 5, 62, 80
7, 62590, Note_off_c, 5, 62, 64
7, 62640, Note_on_c, 5, 54, 80
7, 62735, Note_off_c, 5, 54, 64
7, 62760, Note_on_c, 5, 54, 80
7, 62855, Note_off_c, 5, 54, 64
7, 62880, Note_on_c, 5, 54, 80
7, 63070, Note_off_c, 5, 54, 64
7, 63120, Note_on_c, 5, 55, 80
7, 63310, Note_off_c, 5, 55, 64
7, 63600, Note_on_c, 5, 47, 80
7, 63695, Note_off_c, 5, 47, 64
7, 63720, Note_on_c, 5, 47, 80
7, 63815, Note_off_c, 5, 47, 64
7, 63840, Note_on_c, 5, 47, 80
7, 64030, Note_off_c, 5, 47, 64
7, 64080, Note_on_c, 5, 48, 80
7, 64270, Note_off_c, 5, 48, 64
7, 64320, Note_on_c, 5, 50, 80
7, 64415, Note_off_c, 5, 50, 64
7, 64440, Note_on_c, 5, 48, 80
7, 64535, Note_off_c, 5, 48, 64
7, 64560, Note_on_c, 5, 47, 80
7, 64655, Note_off_c, 5, 47, 64
7, 64680, Note_on_c, 5, 45, 80
7, 64727, Note_off_c, 5, 45, 64
7, 64740, Note_on_c, 5, 43, 80
7, 64787, Note_off_c, 5, 43, 64
7, 64800, Note_on_c, 5, 50, 80
7, 64895, Note_off_c, 5, 50, 64
7, 64920, Note_on_c, 5, 50, 80
7, 65015, Note_off_c, 5, 50, 64
7, 65040, Note_on_c, 5, 50, 80
7, 65135, Note_off_c, 5, 50, 64
7, 65160, Note_on_c, 5, 50, 80
7, 65255, Note_off_c, 5, 50, 64
7, 65280, Note_on_c, 5, 43, 80
7, 65375, Note_off_c, 5, 43, 64
7, 65400, Note_on_c, 5, 47, 80
7, 65495, Note_off_c, 5, 47, 64
7, 65520, Note_on_c, 5, 50, 80
7, 65615, Note_off_c, 5, 50, 64
7, 65640, Note_on_c, 5, 50, 80
7, 65735, Note_off_c, 5, 50, 64
7, 65760, Note_on_c, 5, 43, 80
7, 65820, Note_off_c, 5, 43, 64
7, 65880, Note_on_c, 5, 55, 80
7, 65940, Note_off_c, 5, 55, 64
7, 66000, Note_on_c, 5, 55, 80
7, 66060, Note_off_c, 5, 55, 64
7, 66120, Note_on_c, 5, 55, 80
7, 66180, Note_off_c, 5, 55, 64
7, 66240, Note_on_c, 5, 55, 80
7, 66300, Note_off_c, 5, 55, 64
7, 66360, Note_on_c, 5, 55, 80
7, 66420, Note_off_c, 5, 55, 64
7, 66480, Note_on_c, 5, 55, 80
7, 66540, Note_off_c, 5, 55, 64
7, 66600, Note_on_c, 5, 55, 80
7, 66660, Note_off_c, 5, 55, 64
7, 66720, Note_on_c, 5, 57, 80
7, 66780, Note_off_c, 5, 57, 64
7, 66840, Note_on_c, 5, 57, 80
7, 66900, Note_off_c, 5, 57, 64
7, 66960, Note_on_c, 5, 50, 80
7, 67020, Note_off_c, 5, 50, 64
7, 67080, Note_on_c, 5, 50, 80
7, 67140, Note_off_c, 5, 50, 64
7, 67200, Note_on_c, 5, 55, 80
7, 67260, Note_off_c, 5, 55, 64
7, 67320, Note_on_c, 5, 43, 80
7, 67380, Note_off_c, 5, 43, 64
7, 67440, Note_on_c, 5, 47, 80
7, 67500, Note_off_c, 5, 47, 64
7, 67560, Note_on_c, 5, 50, 80
7, 67620, Note_off_c, 5, 50, 64
7, 67680, Note_on_c, 5, 55, 80
7, 67740, Note_off_c, 5, 55, 64
7, 67800, Note_on_c, 5, 55, 80
7, 67860, Note_off_c, 5, 55, 64
7, 67920, Note_on_c, 5, 55, 80
7, 67980, Note_off_c, 5, 55, 64
7, 68040, Note_on_c, 5, 55, 80
7, 68100, Note_off_c, 5, 55, 64
7, 68160, Note_on_c, 5, 55, 80
7, 68220, Note_off_c, 5, 55, 64
7, 68280, Note_on_c, 5, 55, 80
7, 68340, Note_off_c, 5, 55, 64
7, 68400, Note_on_c, 5, 55, 80
7, 68460, Note_off_c, 5, 55, 64
7, 68520, Note_on_c, 5, 55, 80
7, 68580, Note_off_c, 5, 55, 64
7, 68640, Note_on_c, 5, 52, 80
7, 68700, Note_off_c, 5, 52, 64
7, 68760, Note_on_c, 5, 52, 80
7, 68820, Note_off_c, 5, 52, 64
7, 68880, Note_on_c, 5, 54, 80
7, 68940, Note_off_c, 5, 54, 64
7, 69000, Note_on_c, 5, 54, 80
7, 69060, Note_off_c, 5, 54, 64
7, 69120, Note_on_c, 5, 55, 80
7, 69215, Note_off_c, 5, 55, 64
7, 69240, Note_on_c, 5, 59, 80
7, 69335, Note_off_c, 5, 59, 64
7, 69360, Note_on_c, 5, 57, 80
7, 69455, Note_off_c, 5, 57, 64
7, 69480, Note_on_c, 5, 54, 80
7, 69575, Note_off_c, 5, 54, 64
7, 69600, Note_on_c, 5, 55, 80
7, 69695, Note_off_c, 5, 55, 64
7, 69720, Note_on_c, 5, 59, 80
7, 69815, Note_off_c, 5, 59, 64
7, 69840, Note_on_c, 5, 57, 80
7, 69935, Note_off_c, 5, 57, 64
7, 69960, Note_on_c, 5, 54, 80
7, 70055, Note_off_c, 5, 54, 64
7, 70080, Note_on_c, 5, 55, 80
7, 70175, Note_off_c, 5, 55, 64
7, 70200, Note_on_c, 5, 55, 80
7, 70295, Note_off_c, 5, 55, 64
7, 70320, Note_on_c, 5, 53, 80
7, 70415, Note_off_c, 5, 53, 64
7, 70440, Note_on_c, 5, 53, 80
7, 70535, Note_off_c, 5, 53, 64
7, 70560, Note_on_c, 5, 52, 80
7, 70655, Note_off_c, 5, 52, 64
7, 70680, Note_on_c, 5, 50, 80
7, 70775, Note_off_c, 5, 50, 64
7, 70800, Note_on_c, 5, 48, 80
7, 70895, Note_off_c, 5, 48, 64
7, 70920, Note_on_c, 5, 47, 80
7, 71015, Note_off_c, 5, 47, 64
7, 71040, Note_on_c, 5, 45, 80
7, 71135, Note_off_c, 5, 45, 64
7, 71160, Note_on_c, 5, 57, 80
7, 71255, Note_off_c, 5, 57, 64
7, 71280, Note_on_c, 5, 57, 80
7, 71375, Note_off_c, 5, 57, 64
7, 71400, Note_on_c, 5, 55, 80
7, 71495, Note_off_c, 5, 55, 64
7, 71520, Note_on_c, 5, 53, 80
7, 71615, Note_off_c, 5, 53, 64
7, 71640, Note_on_c, 5, 53, 80
7, 71735, Note_off_c, 5, 53, 64
7, 71760, Note_on_c, 5, 53, 80
7, 71855, Note_off_c, 5, 53, 64
7, 71880, Note_on_c, 5, 53, 80
7, 71975, Note_off_c, 5, 53, 64
7, 72000, Note_on_c, 5, 52, 80
7, 72190, Note_off_c, 5, 52, 64
7, 72240, Note_on_c, 5, 52, 80
7, 72335, Note_off_c, 5, 52, 64
7, 72360, Note_on_c, 5, 50, 80
7, 72455, Note_off_c, 5, 50, 64
7, 72480, Note_on_c, 5, 48, 80
7, 72527, Note_off_c, 5, 48, 64
7, 72540, Note_on_c, 5, 48, 80
7, 72587, Note_off_c, 5, 48, 64
7, 72600, Note_on_c, 5, 50, 80
7, 72647, Note_off_c, 5, 50, 64
7, 72660, Note_on_c, 5, 52, 80
7, 72707, Note_off_c, 5, 52, 64
7, 72720, Note_on_c, 5, 53, 80
7, 72767, Note_off_c, 5, 53, 64
7, 72780, Note_on_c, 5, 57, 80
7, 72827, Note_off_c, 5, 57, 64
7, 72840, Note_on_c, 5, 55, 80
7, 72887, Note_off_c, 5, 55, 64
7, 72900, Note_on_c, 5, 53, 80
7, 72947, Note_off_c, 5, 53, 64
7, 72960, Note_on_c, 5, 52, 80
7, 73007, Note_off_c, 5, 52, 64
7, 73020, Note_on_c, 5, 53, 80
7, 73067, Note_off_c, 5, 53, 64
7, 73080, Note_on_c, 5, 55, 80
7, 73127, Note_off_c, 5, 55, 64
7, 73140, Note_on_c, 5, 53, 80
7, 73187, Note_off_c, 5, 53, 64
7, 73200, Note_on_c, 5, 52, 80
7, 73247, Note_off_c, 5, 52, 64
7, 73260, Note_on_c, 5, 50, 80
7, 73307, Note_off_c, 5, 50, 64
7, 73320, Note_on_c, 5, 52, 80
7, 73367, Note_off_c, 5, 52, 64
7, 73380, Note_on_c, 5, 48, 80
7, 73427, Note_off_c, 5, 48, 64
7, 73440, Note_on_c, 5, 53, 80
7, 73487, Note_off_c, 5, 53, 64
7, 73500, Note_on_c, 5, 50, 80
7, 73547, Note_off_c, 5, 50, 64
7, 73560, Note_on_c, 5, 52, 80
7, 73607, Note_off_c, 5, 52, 64
7, 73620, Note_on_c, 5, 53, 80
7, 73667, Note_off_c, 5, 53, 64
7, 73680, Note_on_c, 5, 55, 80
7, 73727, Note_off_c, 5, 55, 64
7, 73740, Note_on_c, 5, 57, 80
7, 73787, Note_off_c, 5, 57, 64
7, 73800, Note_on_c, 5, 53, 80
7, 73847, Note_off_c, 5, 53, 64
7, 73860, Note_on_c, 5, 55, 80
7, 73907, Note_off_c, 5, 55, 64
7, 73920, Note_on_c, 5, 52, 80
7, 73967, Note_off_c, 5, 52, 64
7, 73980, Note_on_c, 5, 53, 80
7, 74027, Note_off_c, 5, 53, 64
7, 74040, Note_on_c, 5, 50, 80
7, 74087, Note_off_c, 5, 50, 64
7, 74100, Note_on_c, 5, 52, 80
7, 74147, Note_off_c, 5, 52, 64
7, 74160, Note_on_c, 5, 48, 80
7, 74207, Note_off_c, 5, 48, 64
7, 74220, Note_on_c, 5, 50, 80
7, 74267, Note_off_c, 5, 50, 64
7, 74280, Note_on_c, 5, 47, 80
7, 74327, Note_off_c, 5, 47, 64
7, 74340, Note_on_c, 5, 48, 80
7, 74387, Note_off_c, 5, 48, 64
7, 74400, Note_on_c, 5, 45, 80
7, 74447, Note_off_c, 5, 45, 64
7, 74460, Note_on_c, 5, 45, 80
7, 74507, Note_off_c, 5, 45, 64
7, 74520, Note_on_c, 5, 47, 80
7, 74567, Note_off_c, 5, 47, 64
7, 74580, Note_on_c, 5, 48, 80
7, 74627, Note_off_c, 5, 48, 64
7, 74640, Note_on_c, 5, 50, 80
7, 74687, Note_off_c, 5, 50, 64
7, 74700, Note_on_c, 5, 48, 80
7, 74747, Note_off_c, 5, 48, 64
7, 74760, Note_on_c, 5, 47, 80
7, 74807, Note_off_c, 5, 47, 64
7, 74820, Note_on_c, 5, 45, 80
7, 74867, Note_off_c, 5, 45, 64
7, 74880, Note_on_c, 5, 43, 80
7, 74927, Note_off_c, 5, 43, 64
7, 74940, Note_on_c, 5, 55, 80
7, 74987, Note_off_c, 5, 55, 64
7, 75000, Note_on_c, 5, 54, 80
7, 75047, Note_off_c, 5, 54, 64
7, 75060, Note_on_c, 5, 55, 80
7, 75107, Note_off_c, 5, 55, 64
7, 75120, Note_on_c, 5, 52, 80
7, 75167, Note_off_c, 5, 52, 64
7, 75180, Note_on_c, 5, 50, 80
7, 75227, Note_off_c, 5, 50, 64
7, 75240, Note_on_c, 5, 52, 80
7, 75287, Note_off_c, 5, 52, 64
7, 75300, Note_on_c, 5, 48, 80
7, 75347, Note_off_c, 5, 48, 64
7, 75360, Note_on_c, 5, 50, 80
7, 75407, Note_off_c, 5, 50, 64
7, 75420, Note_on_c, 5, 45, 80
7, 75467, Note_off_c, 5, 45, 64
7, 75480, Note_on_c, 5, 47, 80
7, 75527, Note_off_c, 5, 47, 64
7, 75540, Note_on_c, 5, 48, 80
7, 75587, Note_off_c, 5, 48, 64
7, 75600, Note_on_c, 5, 50, 80
7, 75647, Note_off_c, 5, 50, 64
7, 75660, Note_on_c, 5, 48, 80
7, 75707, Note_off_c, 5, 48, 64
7, 75720, Note_on_c, 5, 47, 80
7, 75767, Note_off_c, 5, 47, 64
7, 75780, Note_on_c, 5, 45, 80
7, 75827, Note_off_c, 5, 45, 64
7, 75840, Note_on_c, 5, 47, 80
7, 75887, Note_off_c, 5, 47, 64
7, 75900, Note_on_c, 5, 43, 80
7, 75947, Note_off_c, 5, 43, 64
7, 75960, Note_on_c, 5, 47, 80
7, 76007, Note_off_c, 5, 47, 64
7, 76020, Note_on_c, 5, 50, 80
7, 76067, Note_off_c, 5, 50, 64
7, 76080, Note_on_c, 5, 55, 80
7, 76127, Note_off_c, 5, 55, 64
7, 76140, Note_on_c, 5, 57, 80
7, 76187, Note_off_c, 5, 57, 64
7, 76200, Note_on_c, 5, 59, 80
7, 76247, Note_off_c, 5, 59, 64
7, 76260, Note_on_c, 5, 55, 80
7, 76307, Note_off_c, 5, 55, 64
7, 76320, Note_on_c, 5, 60, 80
7, 76367, Note_off_c, 5, 60, 64
7, 76380, Note_on_c, 5, 59, 80
7, 76427, Note_off_c, 5, 59, 64
7, 76440, Note_on_c, 5, 60, 80
7, 76487, Note_off_c, 5, 60, 64
7, 76500, Note_on_c, 5, 59, 80
7, 76547, Note_off_c, 5, 59, 64
7, 76560, Note_on_c, 5, 57, 80
7, 76607, Note_off_c, 5, 57, 64
7, 76620, Note_on_c, 5, 55, 80
7, 76667, Note_off_c, 5, 55, 64
7, 76680, Note_on_c, 5, 57, 80
7, 76727, Note_off_c, 5, 57, 64
7, 76740, Note_on_c, 5, 53, 80
7, 76787, Note_off_c, 5, 53, 64
7, 76800, Note_on_c, 5, 59, 80
7, 76847, Note_off_c, 5, 59, 64
7, 76860, Note_on_c, 5, 57, 80
7, 76907, Note_off_c, 5, 57, 64
7, 76920, Note_on_c, 5, 59, 80
7, 76967, Note_off_c, 5, 59, 64
7, 76980, Note_on_c, 5, 57, 80
7, 77027, Note_off_c, 5, 57, 64
7, 77040, Note_on_c, 5, 56, 80
7, 77087, Note_off_c, 5, 56, 64
7, 77100, Note_on_c, 5, 54, 80
7, 77147, Note_off_c, 5, 54, 64
7, 77160, Note_on_c, 5, 56, 80
7, 77207, Note_off_c, 5, 56, 64
7, 77220, Note_on_c, 5, 52, 80
7, 77267, Note_off_c, 5, 52, 64
7, 77280, Note_on_c, 5, 57, 80
7, 77375, Note_off_c, 5, 57, 64
7, 77400, Note_on_c, 5, 55, 80
7, 77495, Note_off_c, 5, 55, 64
7, 77520, Note_on_c, 5, 53, 80
7, 77615, Note_off_c, 5, 53, 64
7, 77640, Note_on_c, 5, 52, 80
7, 77735, Note_off_c, 5, 52, 64
7, 77760, Note_on_c, 5, 50, 80
7, 77855, Note_off_c, 5, 50, 64
7, 77880, Note_on_c, 5, 50, 80
7, 77975, Note_off_c, 5, 50, 64
7, 78000, Note_on_c, 5, 52, 80
7, 78095, Note_off_c, 5, 52, 64
7, 78120, Note_on_c, 5, 52, 80
7, 78215, Note_off_c, 5, 52, 64
7, 78240, Note_on_c, 5, 45, 80
7, 78335, Note_off_c, 5, 45, 64
7, 78360, Note_on_c, 5, 48, 80
7, 78455, Note_off_c, 5, 48, 64
7, 78480, Note_on_c, 5, 50, 80
7, 78575, Note_off_c, 5, 50, 64
7, 78600, Note_on_c, 5, 52, 80
7, 78695, Note_off_c, 5, 52, 64
7, 78720, Note_on_c, 5, 45, 80
7, 78720, Note_on_c, 5, 57, 80
7, 78910, Note_off_c, 5, 57, 64
7, 78910, Note_off_c, 5, 45, 64
7, 82140, Note_on_c, 5, 52, 80
7, 82187, Note_off_c, 5, 52, 64
7, 82200, Note_on_c, 5, 64, 80
7, 82247, Note_off_c, 5, 64, 64
7, 82260, Note_on_c, 5, 62, 80
7, 82307, Note_off_c, 5, 62, 64
7, 82320, Note_on_c, 5, 61, 80
7, 82367, Note_off_c, 5, 61, 64
7, 82380, Note_on_c, 5, 59, 80
7, 82427, Note_off_c, 5, 59, 64
7, 82440, Note_on_c, 5, 61, 80
7, 82487, Note_off_c, 5, 61, 64
7, 82500, Note_on_c, 5, 57, 80
7, 82547, Note_off_c, 5, 57, 64
7, 82560, Note_on_c, 5, 62, 80
7, 82607, Note_off_c, 5, 62, 64
7, 82620, Note_on_c, 5, 60, 80
7, 82667, Note_off_c, 5, 60, 64
7, 82680, Note_on_c, 5, 62, 80
7, 82727, Note_off_c, 5, 62, 64
7, 82740, Note_on_c, 5, 60, 80
7, 82787, Note_off_c, 5, 60, 64
7, 82800, Note_on_c, 5, 59, 80
7, 82847, Note_off_c, 5, 59, 64
7, 82860, Note_on_c, 5, 57, 80
7, 82907, Note_off_c, 5, 57, 64
7, 82920, Note_on_c, 5, 59, 80
7, 82967, Note_off_c, 5, 59, 64
7, 82980, Note_on_c, 5, 55, 80
7, 83027, Note_off_c, 5, 55, 64
7, 83040, Note_on_c, 5, 60, 80
7, 83087, Note_off_c, 5, 60, 64
7, 83100, Note_on_c, 5, 59, 80
7, 83147, Note_off_c, 5, 59, 64
7, 83160, Note_on_c, 5, 60, 80
7, 83207, Note_off_c, 5, 60, 64
7, 83220, Note_on_c, 5, 59, 80
7, 83267, Note_off_c, 5, 59, 64
7, 83280, Note_on_c, 5, 57, 80
7, 83327, Note_off_c, 5, 57, 64
7, 83340, Note_on_c, 5, 55, 80
7, 83387, Note_off_c, 5, 55, 64
7, 83400, Note_on_c, 5, 57, 80
7, 83447, Note_off_c, 5, 57, 64
7, 83460, Note_on_c, 5, 55, 80
7, 83507, Note_off_c, 5, 55, 64
7, 83520, Note_on_c, 5, 54, 80
7, 83615, Note_off_c, 5, 54, 64
7, 83640, Note_on_c, 5, 54, 80
7, 83735, Note_off_c, 5, 54, 64
7, 83760, Note_on_c, 5, 54, 80
7, 83855, Note_off_c, 5, 54, 64
7, 83880, Note_on_c, 5, 54, 80
7, 83975, Note_off_c, 5, 54, 64
7, 84000, Note_on_c, 5, 62, 80
7, 84000, Note_on_c, 5, 55, 80
7, 84095, Note_off_c, 5, 55, 64
7, 84120, Note_on_c, 5, 53, 80
7, 84215, Note_off_c, 5, 53, 64
7, 84215, Note_off_c, 5, 62, 64
7, 84240, Note_on_c, 5, 64, 80
7, 84240, Note_on_c, 5, 52, 80
7, 84335, Note_off_c, 5, 52, 64
7, 84360, Note_on_c, 5, 52, 80
7, 84455, Note_off_c, 5, 52, 64
7, 84455, Note_off_c, 5, 64, 64
7, 84480, Note_on_c, 5, 53, 80
7, 84575, Note_off_c, 5, 53, 64
7, 84600, Note_on_c, 5, 53, 80
7, 84695, Note_off_c, 5, 53, 64
7, 84720, Note_on_c, 5, 55, 80
7, 84815, Note_off_c, 5, 55, 64
7, 84840, Note_on_c, 5, 43, 80
7, 84935, Note_off_c, 5, 43, 64
7, 84960, Note_on_c, 5, 48, 80
7, 85055, Note_off_c, 5, 48, 64
7, 85080, Note_on_c, 5, 52, 80
7, 85175, Note_off_c, 5, 52, 64
7, 85200, Note_on_c, 5, 53, 80
7, 85295, Note_off_c, 5, 53, 64
7, 85320, Note_on_c, 5, 55, 80
7, 85415, Note_off_c, 5, 55, 64
7, 85440, Note_on_c, 5, 48, 80
7, 85630, Note_off_c, 5, 48, 64
7, 85680, Note_on_c, 5, 60, 80
7, 85775, Note_off_c, 5, 60, 64
7, 85800, Note_on_c, 5, 60, 80
7, 85895, Note_off_c, 5, 60, 64
7, 85920, Note_on_c, 5, 60, 80
7, 86110, Note_off_c, 5, 60, 64
7, 86160, Note_on_c, 5, 52, 80
7, 86255, Note_off_c, 5, 52, 64
7, 86280, Note_on_c, 5, 52, 80
7, 86375, Note_off_c, 5, 52, 64
7, 86400, Note_on_c, 5, 52, 80
7, 86495, Note_off_c, 5, 52, 64
7, 86520, Note_on_c, 5, 52, 80
7, 86615, Note_off_c, 5, 52, 64
7, 86640, Note_on_c, 5, 53, 80
7, 86735, Note_off_c, 5, 53, 64
7, 87120, Note_on_c, 5, 62, 80
7, 87120, Note_on_c, 5, 59, 80
7, 87120, Note_on_c, 5, 55, 80
7, 87215, Note_off_c, 5, 55, 64
7, 87215, Note_off_c, 5, 59, 64
7, 87215, Note_off_c, 5, 62, 64
7, 87240, Note_on_c, 5, 62, 80
7, 87240, Note_on_c, 5, 59, 80
7, 87240, Note_on_c, 5, 55, 80
7, 87335, Note_off_c, 5, 55, 64
7, 87335, Note_off_c, 5, 59, 64
7, 87335, Note_off_c, 5, 62, 64
7, 87360, Note_on_c, 5, 55, 80
7, 87360, Note_on_c, 5, 62, 80
7, 87360, Note_on_c, 5, 59, 80
7, 87455, Note_off_c, 5, 55, 64
7, 87480, Note_on_c, 5, 55, 80
7, 87550, Note_off_c, 5, 59, 64
7, 87550, Note_off_c, 5, 62, 64
7, 87575, Note_off_c, 5, 55, 64
7, 87600, Note_on_c, 5, 57, 80
7, 87600, Note_on_c, 5, 60, 80
7, 87695, Note_off_c, 5, 57, 64
7, 87720, Note_on_c, 5, 57, 80
7, 87790, Note_off_c, 5, 60, 64
7, 87815, Note_off_c, 5, 57, 64
7, 87840, Note_on_c, 5, 53, 80
7, 87840, Note_on_c, 5, 65, 80
7, 87935, Note_off_c, 5, 53, 64
7, 87960, Note_on_c, 5, 53, 80
7, 88030, Note_off_c, 5, 65, 64
7, 88055, Note_off_c, 5, 53, 64
7, 88080, Note_on_c, 5, 55, 80
7, 88080, Note_on_c, 5, 64, 80
7, 88175, Note_off_c, 5, 64, 64
7, 88175, Note_off_c, 5, 55, 64
7, 88200, Note_on_c, 5, 55, 80
7, 88200, Note_on_c, 5, 65, 80
7, 88295, Note_off_c, 5, 65, 64
7, 88295, Note_off_c, 5, 55, 64
7, 88320, Note_on_c, 5, 64, 80
7, 88320, Note_on_c, 5, 48, 80
7, 88415, Note_off_c, 5, 48, 64
7, 88440, Note_on_c, 5, 52, 80
7, 88510, Note_off_c, 5, 64, 64
7, 88535, Note_off_c, 5, 52, 64
7, 88560, Note_on_c, 5, 65, 80
7, 88560, Note_on_c, 5, 53, 80
7, 88655, Note_off_c, 5, 53, 64
7, 88655, Note_off_c, 5, 65, 64
7, 88680, Note_on_c, 5, 65, 80
7, 88680, Note_on_c, 5, 53, 80
7, 88775, Note_off_c, 5, 53, 64
7, 88775, Note_off_c, 5, 65, 64
7, 88800, Note_on_c, 5, 64, 80
7, 88800, Note_on_c, 5, 55, 80
7, 88895, Note_off_c, 5, 55, 64
7, 88895, Note_off_c, 5, 64, 64
7, 88920, Note_on_c, 5, 64, 80
7, 88920, Note_on_c, 5, 55, 80
7, 89015, Note_off_c, 5, 55, 64
7, 89015, Note_off_c, 5, 64, 64
7, 89040, Note_on_c, 5, 65, 80
7, 89040, Note_on_c, 5, 43, 80
7, 89135, Note_off_c, 5, 43, 64
7, 89135, Note_off_c, 5, 65, 64
7, 89160, Note_on_c, 5, 65, 80
7, 89160, Note_on_c, 5, 43, 80
7, 89255, Note_off_c, 5, 43, 64
7, 89255, Note_off_c, 5, 65, 64
7, 89280, Note_on_c, 5, 64, 80
7, 89280, Note_on_c, 5, 48, 80
7, 89375, Note_off_c, 5, 48, 64
7, 89375, Note_off_c, 5, 64, 64
7, 89400, Note_on_c, 5, 64, 80
7, 89400, Note_on_c, 5, 48, 80
7, 89495, Note_off_c, 5, 48, 64
7, 89495, Note_off_c, 5, 64, 64
7, 89520, Note_on_c, 5, 65, 80
7, 89520, Note_on_c, 5, 53, 80
7, 89615, Note_off_c, 5, 53, 64
7, 89615, Note_off_c, 5, 65, 64
7, 89640, Note_on_c, 5, 65, 80
7, 89640, Note_on_c, 5, 53, 80
7, 89735, Note_off_c, 5, 53, 64
7, 89735, Note_off_c, 5, 65, 64
7, 89760, Note_on_c, 5, 64, 80
7, 89760, Note_on_c, 5, 55, 80
7, 89855, Note_off_c, 5, 55, 64
7, 89855, Note_off_c, 5, 64, 64
7, 89880, Note_on_c, 5, 64, 80
7, 89880, Note_on_c, 5, 55, 80
7, 89975, Note_off_c, 5, 55, 64
7, 89975, Note_off_c, 5, 64, 64
7, 90000, Note_on_c, 5, 62, 80
7, 90000, Note_on_c, 5, 55, 80
7, 90095, Note_off_c, 5, 55, 64
7, 90095, Note_off_c, 5, 62, 64
7, 90120, Note_on_c, 5, 62, 80
7, 90120, Note_on_c, 5, 55, 80
7, 90215, Note_off_c, 5, 55, 64
7, 90215, Note_off_c, 5, 62, 64
7, 90240, Note_on_c, 5, 60, 80
7, 90240, Note_on_c, 5, 48, 80
7, 90335, Note_off_c, 5, 48, 64
7, 90335, Note_off_c, 5, 60, 64
7, 90360, Note_on_c, 5, 60, 80
7, 90360, Note_on_c, 5, 48, 80
7, 90455, Note_off_c, 5, 48, 64
7, 90455, Note_off_c, 5, 60, 64
7, 90480, Note_on_c, 5, 55, 80
7, 90575, Note_off_c, 5, 55, 64
7, 90600, Note_on_c, 5, 43, 80
7, 90695, Note_off_c, 5, 43, 64
7, 90720, Note_on_c, 5, 48, 80
7, 90815, Note_off_c, 5, 48, 64
7, 90840, Note_on_c, 5, 48, 80
7, 90935, Note_off_c, 5, 48, 64
7, 90960, Note_on_c, 5, 55, 80
7, 91055, Note_off_c, 5, 55, 64
7, 91080, Note_on_c, 5, 43, 80
7, 91175, Note_off_c, 5, 43, 64
7, 91200, Note_on_c, 5, 48, 80
7, 91342, Note_off_c, 5, 48, 64
7, 91380, Note_on_c, 5, 60, 80
7, 91427, Note_off_c, 5, 60, 64
7, 91440, Note_on_c, 5, 55, 80
7, 91510, Note_off_c, 5, 55, 64
7, 91530, Note_on_c, 5, 60, 80
7, 91552, Note_off_c, 5, 60, 64
7, 91560, Note_on_c, 5, 55, 80
7, 91630, Note_off_c, 5, 55, 64
7, 91650, Note_on_c, 5, 52, 80
7, 91672, Note_off_c, 5, 52, 64
7, 91680, Note_on_c, 5, 48, 80
7, 92062, Note_off_c, 5, 48, 64
7, 92062, End_track
8, 0, Start_track
8, 0, Text_t, "Jubilate Deo by W.A. Mozart"
8, 0, End_track
9, 0, Start_track
9, 0, Text_t, "KV.117 Psalm 100:1; 66:1-2"
9, 0, End_track
10, 0, Start_track
10, 0, Text_t, "Distribute Freely!"
10, 0, End_track
11, 0, Start_track
11, 0, Text_t, "arranged by Marty Weimer 2/95"
11, 0, End_track
12, 0, Start_track
12, 0, Text_t, "weimermt@libby.org"
12, 0, End_track
0, 0, End_of_file