0, 0, Header, 1, 4, 96
1, 0, Start_track
1, 0, Title_t, "\213\310\202\314\225\\\221\350"
1, 0, Copyright_t, "KAWAI MUSICAL INST. MFG. CO., LTD. \212y\225\210\213L\217q\203t\203@\203C\203\213\032"
1, 0, Time_signature, 2, 2, 24, 8
1, 0, Key_signature, -2, "major"
1, 0, Tempo, 714286
1, 4224, Time_signature, 4, 2, 24, 8
1, 4224, Tempo, 2142857
1, 4368, Tempo, 714286
1, 4608, Time_signature, 3, 2, 24, 8
1, 4608, Tempo, 2608696
1, 4656, Tempo, 1304348
1, 4814, Tempo, 1304348
1, 4896, Time_signature, 2, 2, 24, 8
1, 4896, Tempo, 714286
1, 14496, Tempo, 1428571
1, 14592, Tempo, 714286
1, 14688, Tempo, 1428571
1, 14784, Tempo, 714286
1, 19104, Time_signature, 4, 2, 24, 8
1, 19104, Tempo, 2142857
1, 19248, Tempo, 714286
1, 19488, Time_signature, 3, 2, 24, 8
1, 19488, Tempo, 2608696
1, 19536, Tempo, 1304348
1, 19690, Tempo, 1304348
1, 19776, Time_signature, 2, 2, 24, 8
1, 19776, Tempo, 714286
1, 26265, Tempo, 1304348
1, 26265, End_track
2, 0, Start_track
2, 0, Program_c, 0, 0
2, 0, Note_on_c, 0, 70, 88
2, 172, Note_on_c, 0, 70, 0
2, 192, Note_on_c, 0, 72, 88
2, 364, Note_on_c, 0, 72, 0
2, 384, Note_on_c, 0, 74, 88
2, 556, Note_on_c, 0, 74, 0
2, 576, Note_on_c, 0, 75, 88
2, 662, Note_on_c, 0, 75, 0
2, 672, Note_on_c, 0, 77, 88
2, 758, Note_on_c, 0, 77, 0
2, 768, Note_on_c, 0, 79, 88
2, 912, Note_on_c, 0, 79, 0
2, 912, Note_on_c, 0, 77, 88
2, 924, Note_on_c, 0, 77, 0
2, 924, Note_on_c, 0, 75, 88
2, 936, Note_on_c, 0, 75, 0
2, 936, Note_on_c, 0, 74, 88
2, 948, Note_on_c, 0, 74, 0
2, 948, Note_on_c, 0, 72, 88
2, 958, Note_on_c, 0, 72, 0
2, 960, Note_on_c, 0, 70, 88
2, 966, Note_on_c, 0, 70, 0
2, 966, Note_on_c, 0, 69, 88
2, 1003, Note_on_c, 0, 69, 0
2, 1008, Note_on_c, 0, 70, 88
2, 1051, Note_on_c, 0, 70, 0
2, 1056, Note_on_c, 0, 72, 88
2, 1120, Note_on_c, 0, 72, 0
2, 1128, Note_on_c, 0, 74, 88
2, 1138, Note_on_c, 0, 74, 0
2, 1140, Note_on_c, 0, 75, 88
2, 1150, Note_on_c, 0, 75, 0
2, 1152, Note_on_c, 0, 75, 88
2, 1158, Note_on_c, 0, 75, 0
2, 1158, Note_on_c, 0, 74, 88
2, 1248, Note_on_c, 0, 74, 0
2, 1344, Note_on_c, 0, 72, 88
2, 1350, Note_on_c, 0, 72, 0
2, 1350, Note_on_c, 0, 70, 88
2, 1356, Note_on_c, 0, 70, 0
2, 1356, Note_on_c, 0, 72, 88
2, 1362, Note_on_c, 0, 72, 0
2, 1362, Note_on_c, 0, 70, 88
2, 1368, Note_on_c, 0, 70, 0
2, 1368, Note_on_c, 0, 72, 88
2, 1374, Note_on_c, 0, 72, 0
2, 1374, Note_on_c, 0, 70, 88
2, 1380, Note_on_c, 0, 70, 0
2, 1380, Note_on_c, 0, 72, 88
2, 1386, Note_on_c, 0, 72, 0
2, 1386, Note_on_c, 0, 70, 88
2, 1392, Note_on_c, 0, 70, 0
2, 1392, Note_on_c, 0, 72, 88
2, 1398, Note_on_c, 0, 72, 0
2, 1398, Note_on_c, 0, 70, 88
2, 1404, Note_on_c, 0, 70, 0
2, 1404, Note_on_c, 0, 72, 88
2, 1410, Note_on_c, 0, 72, 0
2, 1410, Note_on_c, 0, 70, 88
2, 1416, Note_on_c, 0, 70, 0
2, 1416, Note_on_c, 0, 72, 88
2, 1422, Note_on_c, 0, 72, 0
2, 1422, Note_on_c, 0, 70, 88
2, 1428, Note_on_c, 0, 70, 0
2, 1428, Note_on_c, 0, 72, 88
2, 1434, Note_on_c, 0, 72, 0
2, 1434, Note_on_c, 0, 70, 88
2, 1440, Note_on_c, 0, 70, 0
2, 1440, Note_on_c, 0, 72, 88
2, 1446, Note_on_c, 0, 72, 0
2, 1446, Note_on_c, 0, 70, 88
2, 1452, Note_on_c, 0, 70, 0
2, 1452, Note_on_c, 0, 72, 88
2, 1458, Note_on_c, 0, 72, 0
2, 1458, Note_on_c, 0, 70, 88
2, 1464, Note_on_c, 0, 70, 0
2, 1464, Note_on_c, 0, 72, 88
2, 1470, Note_on_c, 0, 72, 0
2, 1470, Note_on_c, 0, 70, 88
2, 1476, Note_on_c, 0, 70, 0
2, 1476, Note_on_c, 0, 72, 88
2, 1482, Note_on_c, 0, 72, 0
2, 1482, Note_on_c, 0, 70, 88
2, 1488, Note_on_c, 0, 70, 0
2, 1488, Note_on_c, 0, 69, 88
2, 1509, Note_on_c, 0, 69, 0
2, 1512, Note_on_c, 0, 70, 88
2, 1533, Note_on_c, 0, 70, 0
2, 1536, Note_on_c, 0, 74, 88
2, 1542, Note_on_c, 0, 74, 0
2, 1542, Note_on_c, 0, 72, 88
2, 1548, Note_on_c, 0, 72, 0
2, 1548, Note_on_c, 0, 74, 88
2, 1554, Note_on_c, 0, 74, 0
2, 1554, Note_on_c, 0, 72, 88
2, 1560, Note_on_c, 0, 72, 0
2, 1560, Note_on_c, 0, 74, 88
2, 1566, Note_on_c, 0, 74, 0
2, 1566, Note_on_c, 0, 72, 88
2, 1572, Note_on_c, 0, 72, 0
2, 1572, Note_on_c, 0, 74, 88
2, 1578, Note_on_c, 0, 74, 0
2, 1578, Note_on_c, 0, 72, 88
2, 1584, Note_on_c, 0, 72, 0
2, 1584, Note_on_c, 0, 74, 88
2, 1590, Note_on_c, 0, 74, 0
2, 1590, Note_on_c, 0, 72, 88
2, 1596, Note_on_c, 0, 72, 0
2, 1596, Note_on_c, 0, 74, 88
2, 1602, Note_on_c, 0, 74, 0
2, 1602, Note_on_c, 0, 72, 88
2, 1608, Note_on_c, 0, 72, 0
2, 1608, Note_on_c, 0, 74, 88
2, 1614, Note_on_c, 0, 74, 0
2, 1614, Note_on_c, 0, 72, 88
2, 1620, Note_on_c, 0, 72, 0
2, 1620, Note_on_c, 0, 74, 88
2, 1626, Note_on_c, 0, 74, 0
2, 1626, Note_on_c, 0, 72, 88
2, 1632, Note_on_c, 0, 72, 0
2, 1632, Note_on_c, 0, 74, 88
2, 1638, Note_on_c, 0, 74, 0
2, 1638, Note_on_c, 0, 72, 88
2, 1644, Note_on_c, 0, 72, 0
2, 1644, Note_on_c, 0, 74, 88
2, 1650, Note_on_c, 0, 74, 0
2, 1650, Note_on_c, 0, 72, 88
2, 1656, Note_on_c, 0, 72, 0
2, 1656, Note_on_c, 0, 74, 88
2, 1662, Note_on_c, 0, 74, 0
2, 1662, Note_on_c, 0, 72, 88
2, 1668, Note_on_c, 0, 72, 0
2, 1668, Note_on_c, 0, 74, 88
2, 1674, Note_on_c, 0, 74, 0
2, 1674, Note_on_c, 0, 72, 88
2, 1680, Note_on_c, 0, 72, 0
2, 1680, Note_on_c, 0, 70, 88
2, 1701, Note_on_c, 0, 70, 0
2, 1704, Note_on_c, 0, 72, 88
2, 1725, Note_on_c, 0, 72, 0
2, 1728, Note_on_c, 0, 75, 88
2, 1734, Note_on_c, 0, 75, 0
2, 1734, Note_on_c, 0, 74, 88
2, 1740, Note_on_c, 0, 74, 0
2, 1740, Note_on_c, 0, 75, 88
2, 1746, Note_on_c, 0, 75, 0
2, 1746, Note_on_c, 0, 74, 88
2, 1752, Note_on_c, 0, 74, 0
2, 1752, Note_on_c, 0, 75, 88
2, 1758, Note_on_c, 0, 75, 0
2, 1758, Note_on_c, 0, 74, 88
2, 1764, Note_on_c, 0, 74, 0
2, 1764, Note_on_c, 0, 75, 88
2, 1770, Note_on_c, 0, 75, 0
2, 1770, Note_on_c, 0, 74, 88
2, 1776, Note_on_c, 0, 74, 0
2, 1776, Note_on_c, 0, 75, 88
2, 1782, Note_on_c, 0, 75, 0
2, 1782, Note_on_c, 0, 74, 88
2, 1788, Note_on_c, 0, 74, 0
2, 1788, Note_on_c, 0, 75, 88
2, 1794, Note_on_c, 0, 75, 0
2, 1794, Note_on_c, 0, 74, 88
2, 1800, Note_on_c, 0, 74, 0
2, 1800, Note_on_c, 0, 75, 88
2, 1806, Note_on_c, 0, 75, 0
2, 1806, Note_on_c, 0, 74, 88
2, 1812, Note_on_c, 0, 74, 0
2, 1812, Note_on_c, 0, 75, 88
2, 1818, Note_on_c, 0, 75, 0
2, 1818, Note_on_c, 0, 74, 88
2, 1824, Note_on_c, 0, 74, 0
2, 1824, Note_on_c, 0, 75, 88
2, 1830, Note_on_c, 0, 75, 0
2, 1830, Note_on_c, 0, 74, 88
2, 1836, Note_on_c, 0, 74, 0
2, 1836, Note_on_c, 0, 75, 88
2, 1842, Note_on_c, 0, 75, 0
2, 1842, Note_on_c, 0, 74, 88
2, 1848, Note_on_c, 0, 74, 0
2, 1848, Note_on_c, 0, 75, 88
2, 1854, Note_on_c, 0, 75, 0
2, 1854, Note_on_c, 0, 74, 88
2, 1860, Note_on_c, 0, 74, 0
2, 1860, Note_on_c, 0, 75, 88
2, 1866, Note_on_c, 0, 75, 0
2, 1866, Note_on_c, 0, 74, 88
2, 1872, Note_on_c, 0, 74, 0
2, 1872, Note_on_c, 0, 72, 88
2, 1893, Note_on_c, 0, 72, 0
2, 1896, Note_on_c, 0, 74, 88
2, 1917, Note_on_c, 0, 74, 0
2, 1920, Note_on_c, 0, 77, 88
2, 1926, Note_on_c, 0, 77, 0
2, 1926, Note_on_c, 0, 75, 88
2, 1932, Note_on_c, 0, 75, 0
2, 1932, Note_on_c, 0, 77, 88
2, 1938, Note_on_c, 0, 77, 0
2, 1938, Note_on_c, 0, 75, 88
2, 1944, Note_on_c, 0, 75, 0
2, 1944, Note_on_c, 0, 77, 88
2, 1950, Note_on_c, 0, 77, 0
2, 1950, Note_on_c, 0, 75, 88
2, 1956, Note_on_c, 0, 75, 0
2, 1956, Note_on_c, 0, 77, 88
2, 1962, Note_on_c, 0, 77, 0
2, 1962, Note_on_c, 0, 75, 88
2, 1968, Note_on_c, 0, 75, 0
2, 1968, Note_on_c, 0, 77, 88
2, 1974, Note_on_c, 0, 77, 0
2, 1974, Note_on_c, 0, 75, 88
2, 1980, Note_on_c, 0, 75, 0
2, 1980, Note_on_c, 0, 77, 88
2, 1986, Note_on_c, 0, 77, 0
2, 1986, Note_on_c, 0, 75, 88
2, 1992, Note_on_c, 0, 75, 0
2, 1992, Note_on_c, 0, 74, 88
2, 2002, Note_on_c, 0, 74, 0
2, 2004, Note_on_c, 0, 75, 88
2, 2014, Note_on_c, 0, 75, 0
2, 2016, Note_on_c, 0, 79, 88
2, 2022, Note_on_c, 0, 79, 0
2, 2022, Note_on_c, 0, 77, 88
2, 2028, Note_on_c, 0, 77, 0
2, 2028, Note_on_c, 0, 79, 88
2, 2034, Note_on_c, 0, 79, 0
2, 2034, Note_on_c, 0, 77, 88
2, 2040, Note_on_c, 0, 77, 0
2, 2040, Note_on_c, 0, 79, 88
2, 2046, Note_on_c, 0, 79, 0
2, 2046, Note_on_c, 0, 77, 88
2, 2052, Note_on_c, 0, 77, 0
2, 2052, Note_on_c, 0, 79, 88
2, 2058, Note_on_c, 0, 79, 0
2, 2058, Note_on_c, 0, 77, 88
2, 2064, Note_on_c, 0, 77, 0
2, 2064, Note_on_c, 0, 79, 88
2, 2070, Note_on_c, 0, 79, 0
2, 2070, Note_on_c, 0, 77, 88
2, 2076, Note_on_c, 0, 77, 0
2, 2076, Note_on_c, 0, 79, 88
2, 2082, Note_on_c, 0, 79, 0
2, 2082, Note_on_c, 0, 77, 88
2, 2088, Note_on_c, 0, 77, 0
2, 2088, Note_on_c, 0, 75, 88
2, 2098, Note_on_c, 0, 75, 0
2, 2100, Note_on_c, 0, 77, 88
2, 2110, Note_on_c, 0, 77, 0
2, 2112, Note_on_c, 0, 79, 88
2, 2256, Note_on_c, 0, 79, 0
2, 2256, Note_on_c, 0, 77, 88
2, 2268, Note_on_c, 0, 77, 0
2, 2268, Note_on_c, 0, 75, 88
2, 2280, Note_on_c, 0, 75, 0
2, 2280, Note_on_c, 0, 74, 88
2, 2292, Note_on_c, 0, 74, 0
2, 2292, Note_on_c, 0, 72, 88
2, 2302, Note_on_c, 0, 72, 0
2, 2304, Note_on_c, 0, 81, 88
2, 2390, Note_on_c, 0, 81, 0
2, 2400, Note_on_c, 0, 84, 88
2, 2424, Note_on_c, 0, 84, 0
2, 2424, Note_on_c, 0, 82, 88
2, 2448, Note_on_c, 0, 82, 0
2, 2448, Note_on_c, 0, 81, 88
2, 2472, Note_on_c, 0, 81, 0
2, 2472, Note_on_c, 0, 79, 88
2, 2496, Note_on_c, 0, 79, 0
2, 2496, Note_on_c, 0, 77, 88
2, 2640, Note_on_c, 0, 77, 0
2, 2640, Note_on_c, 0, 77, 88
2, 2646, Note_on_c, 0, 77, 0
2, 2646, Note_on_c, 0, 75, 88
2, 2652, Note_on_c, 0, 75, 0
2, 2652, Note_on_c, 0, 77, 88
2, 2658, Note_on_c, 0, 77, 0
2, 2658, Note_on_c, 0, 75, 88
2, 2664, Note_on_c, 0, 75, 0
2, 2664, Note_on_c, 0, 77, 88
2, 2670, Note_on_c, 0, 77, 0
2, 2670, Note_on_c, 0, 75, 88
2, 2676, Note_on_c, 0, 75, 0
2, 2676, Note_on_c, 0, 77, 88
2, 2682, Note_on_c, 0, 77, 0
2, 2682, Note_on_c, 0, 75, 88
2, 2688, Note_on_c, 0, 75, 0
2, 2688, Note_on_c, 0, 74, 88
2, 2774, Note_on_c, 0, 74, 0
2, 2880, Note_on_c, 0, 77, 88
2, 2928, Note_on_c, 0, 77, 0
2, 2928, Note_on_c, 0, 74, 88
2, 2976, Note_on_c, 0, 74, 0
2, 3024, Note_on_c, 0, 74, 88
2, 3067, Note_on_c, 0, 74, 0
2, 3072, Note_on_c, 0, 77, 88
2, 3120, Note_on_c, 0, 77, 0
2, 3120, Note_on_c, 0, 75, 88
2, 3168, Note_on_c, 0, 75, 0
2, 3216, Note_on_c, 0, 72, 88
2, 3259, Note_on_c, 0, 72, 0
2, 3264, Note_on_c, 0, 74, 88
2, 3288, Note_on_c, 0, 74, 0
2, 3288, Note_on_c, 0, 77, 88
2, 3312, Note_on_c, 0, 77, 0
2, 3312, Note_on_c, 0, 82, 88
2, 3336, Note_on_c, 0, 82, 0
2, 3336, Note_on_c, 0, 81, 88
2, 3360, Note_on_c, 0, 81, 0
2, 3360, Note_on_c, 0, 79, 88
2, 3384, Note_on_c, 0, 79, 0
2, 3384, Note_on_c, 0, 77, 88
2, 3408, Note_on_c, 0, 77, 0
2, 3408, Note_on_c, 0, 75, 88
2, 3432, Note_on_c, 0, 75, 0
2, 3432, Note_on_c, 0, 74, 88
2, 3456, Note_on_c, 0, 74, 0
2, 3456, Note_on_c, 0, 77, 88
2, 3528, Note_on_c, 0, 77, 0
2, 3528, Note_on_c, 0, 74, 88
2, 3552, Note_on_c, 0, 74, 0
2, 3552, Note_on_c, 0, 72, 88
2, 3576, Note_on_c, 0, 72, 0
2, 3576, Note_on_c, 0, 74, 88
2, 3600, Note_on_c, 0, 74, 0
2, 3600, Note_on_c, 0, 75, 88
2, 3624, Note_on_c, 0, 75, 0
2, 3624, Note_on_c, 0, 76, 88
2, 3648, Note_on_c, 0, 76, 0
2, 3648, Note_on_c, 0, 77, 88
2, 3696, Note_on_c, 0, 77, 0
2, 3696, Note_on_c, 0, 74, 88
2, 3744, Note_on_c, 0, 74, 0
2, 3768, Note_on_c, 0, 74, 88
2, 3780, Note_on_c, 0, 74, 0
2, 3792, Note_on_c, 0, 75, 88
2, 3804, Note_on_c, 0, 75, 0
2, 3804, Note_on_c, 0, 74, 88
2, 3816, Note_on_c, 0, 74, 0
2, 3816, Note_on_c, 0, 72, 88
2, 3828, Note_on_c, 0, 72, 0
2, 3828, Note_on_c, 0, 74, 88
2, 3838, Note_on_c, 0, 74, 0
2, 3840, Note_on_c, 0, 77, 88
2, 3864, Note_on_c, 0, 77, 0
2, 3864, Note_on_c, 0, 76, 88
2, 3888, Note_on_c, 0, 76, 0
2, 3888, Note_on_c, 0, 75, 88
2, 3936, Note_on_c, 0, 75, 0
2, 3960, Note_on_c, 0, 72, 88
2, 3972, Note_on_c, 0, 72, 0
2, 3984, Note_on_c, 0, 74, 88
2, 3996, Note_on_c, 0, 74, 0
2, 3996, Note_on_c, 0, 72, 88
2, 4008, Note_on_c, 0, 72, 0
2, 4008, Note_on_c, 0, 71, 88
2, 4020, Note_on_c, 0, 71, 0
2, 4020, Note_on_c, 0, 72, 88
2, 4032, Note_on_c, 0, 72, 0
2, 4032, Note_on_c, 0, 74, 88
2, 4056, Note_on_c, 0, 74, 0
2, 4056, Note_on_c, 0, 77, 88
2, 4080, Note_on_c, 0, 77, 0
2, 4080, Note_on_c, 0, 82, 88
2, 4104, Note_on_c, 0, 82, 0
2, 4104, Note_on_c, 0, 81, 88
2, 4128, Note_on_c, 0, 81, 0
2, 4128, Note_on_c, 0, 79, 88
2, 4152, Note_on_c, 0, 79, 0
2, 4152, Note_on_c, 0, 77, 88
2, 4176, Note_on_c, 0, 77, 0
2, 4176, Note_on_c, 0, 75, 88
2, 4200, Note_on_c, 0, 75, 0
2, 4200, Note_on_c, 0, 74, 88
2, 4224, Note_on_c, 0, 74, 0
2, 4224, Note_on_c, 0, 77, 88
2, 4353, Note_on_c, 0, 77, 0
2, 4368, Note_on_c, 0, 79, 88
2, 4380, Note_on_c, 0, 79, 0
2, 4380, Note_on_c, 0, 77, 88
2, 4392, Note_on_c, 0, 77, 0
2, 4392, Note_on_c, 0, 75, 88
2, 4404, Note_on_c, 0, 75, 0
2, 4404, Note_on_c, 0, 74, 88
2, 4416, Note_on_c, 0, 74, 0
2, 4416, Note_on_c, 0, 75, 88
2, 4428, Note_on_c, 0, 75, 0
2, 4428, Note_on_c, 0, 77, 88
2, 4440, Note_on_c, 0, 77, 0
2, 4440, Note_on_c, 0, 79, 88
2, 4452, Note_on_c, 0, 79, 0
2, 4452, Note_on_c, 0, 81, 88
2, 4464, Note_on_c, 0, 81, 0
2, 4464, Note_on_c, 0, 82, 88
2, 4476, Note_on_c, 0, 82, 0
2, 4476, Note_on_c, 0, 81, 88
2, 4488, Note_on_c, 0, 81, 0
2, 4488, Note_on_c, 0, 79, 88
2, 4500, Note_on_c, 0, 79, 0
2, 4500, Note_on_c, 0, 77, 88
2, 4512, Note_on_c, 0, 77, 0
2, 4512, Note_on_c, 0, 79, 88
2, 4524, Note_on_c, 0, 79, 0
2, 4524, Note_on_c, 0, 81, 88
2, 4536, Note_on_c, 0, 81, 0
2, 4536, Note_on_c, 0, 82, 88
2, 4548, Note_on_c, 0, 82, 0
2, 4548, Note_on_c, 0, 84, 88
2, 4560, Note_on_c, 0, 84, 0
2, 4560, Note_on_c, 0, 86, 88
2, 4608, Note_on_c, 0, 86, 0
2, 4680, Note_on_c, 0, 74, 88
2, 4704, Note_on_c, 0, 74, 0
2, 4704, Note_on_c, 0, 75, 88
2, 4728, Note_on_c, 0, 75, 0
2, 4728, Note_on_c, 0, 76, 88
2, 4749, Note_on_c, 0, 76, 0
2, 4752, Note_on_c, 0, 79, 88
2, 4758, Note_on_c, 0, 79, 0
2, 4758, Note_on_c, 0, 77, 88
2, 4823, Note_on_c, 0, 77, 0
2, 4824, Note_on_c, 0, 75, 88
2, 4832, Note_on_c, 0, 75, 0
2, 4832, Note_on_c, 0, 74, 88
2, 4840, Note_on_c, 0, 74, 0
2, 4840, Note_on_c, 0, 72, 88
2, 4848, Note_on_c, 0, 72, 0
2, 4848, Note_on_c, 0, 75, 88
2, 4854, Note_on_c, 0, 75, 0
2, 4854, Note_on_c, 0, 74, 88
2, 4896, Note_on_c, 0, 74, 0
2, 4896, Note_on_c, 0, 72, 88
2, 4982, Note_on_c, 0, 72, 0
2, 5088, Note_on_c, 0, 72, 88
2, 5174, Note_on_c, 0, 72, 0
2, 5184, Note_on_c, 0, 65, 88
2, 5270, Note_on_c, 0, 65, 0
2, 5280, Note_on_c, 0, 64, 88
2, 5452, Note_on_c, 0, 64, 0
2, 5472, Note_on_c, 0, 82, 88
2, 5515, Note_on_c, 0, 82, 0
2, 5520, Note_on_c, 0, 79, 88
2, 5563, Note_on_c, 0, 79, 0
2, 5568, Note_on_c, 0, 76, 88
2, 5611, Note_on_c, 0, 76, 0
2, 5616, Note_on_c, 0, 70, 88
2, 5659, Note_on_c, 0, 70, 0
2, 5664, Note_on_c, 0, 70, 88
2, 5688, Note_on_c, 0, 70, 0
2, 5688, Note_on_c, 0, 69, 88
2, 5712, Note_on_c, 0, 69, 0
2, 5712, Note_on_c, 0, 74, 88
2, 5736, Note_on_c, 0, 74, 0
2, 5736, Note_on_c, 0, 72, 88
2, 5760, Note_on_c, 0, 72, 0
2, 5760, Note_on_c, 0, 72, 88
2, 5846, Note_on_c, 0, 72, 0
2, 5856, Note_on_c, 0, 72, 88
2, 5892, Note_on_c, 0, 72, 0
2, 5892, Note_on_c, 0, 74, 88
2, 5898, Note_on_c, 0, 74, 0
2, 5898, Note_on_c, 0, 72, 88
2, 5904, Note_on_c, 0, 72, 0
2, 5904, Note_on_c, 0, 77, 88
2, 6000, Note_on_c, 0, 77, 0
2, 6000, Note_on_c, 0, 75, 88
2, 6043, Note_on_c, 0, 75, 0
2, 6048, Note_on_c, 0, 75, 88
2, 6072, Note_on_c, 0, 75, 0
2, 6072, Note_on_c, 0, 74, 88
2, 6189, Note_on_c, 0, 74, 0
2, 6192, Note_on_c, 0, 74, 88
2, 6235, Note_on_c, 0, 74, 0
2, 6240, Note_on_c, 0, 74, 88
2, 6276, Note_on_c, 0, 74, 0
2, 6276, Note_on_c, 0, 75, 88
2, 6282, Note_on_c, 0, 75, 0
2, 6282, Note_on_c, 0, 74, 88
2, 6288, Note_on_c, 0, 74, 0
2, 6288, Note_on_c, 0, 79, 88
2, 6384, Note_on_c, 0, 79, 0
2, 6384, Note_on_c, 0, 77, 88
2, 6427, Note_on_c, 0, 77, 0
2, 6432, Note_on_c, 0, 79, 88
2, 6438, Note_on_c, 0, 79, 0
2, 6438, Note_on_c, 0, 77, 88
2, 6444, Note_on_c, 0, 77, 0
2, 6444, Note_on_c, 0, 79, 88
2, 6450, Note_on_c, 0, 79, 0
2, 6450, Note_on_c, 0, 77, 88
2, 6456, Note_on_c, 0, 77, 0
2, 6456, Note_on_c, 0, 79, 88
2, 6462, Note_on_c, 0, 79, 0
2, 6462, Note_on_c, 0, 77, 88
2, 6468, Note_on_c, 0, 77, 0
2, 6468, Note_on_c, 0, 79, 88
2, 6474, Note_on_c, 0, 79, 0
2, 6474, Note_on_c, 0, 77, 88
2, 6480, Note_on_c, 0, 77, 0
2, 6480, Note_on_c, 0, 79, 88
2, 6486, Note_on_c, 0, 79, 0
2, 6486, Note_on_c, 0, 77, 88
2, 6492, Note_on_c, 0, 77, 0
2, 6492, Note_on_c, 0, 79, 88
2, 6498, Note_on_c, 0, 79, 0
2, 6498, Note_on_c, 0, 77, 88
2, 6504, Note_on_c, 0, 77, 0
2, 6504, Note_on_c, 0, 79, 88
2, 6510, Note_on_c, 0, 79, 0
2, 6510, Note_on_c, 0, 77, 88
2, 6516, Note_on_c, 0, 77, 0
2, 6516, Note_on_c, 0, 79, 88
2, 6522, Note_on_c, 0, 79, 0
2, 6522, Note_on_c, 0, 77, 88
2, 6528, Note_on_c, 0, 77, 0
2, 6528, Note_on_c, 0, 76, 88
2, 6614, Note_on_c, 0, 76, 0
2, 6720, Note_on_c, 0, 72, 88
2, 6763, Note_on_c, 0, 72, 0
2, 6768, Note_on_c, 0, 72, 88
2, 6811, Note_on_c, 0, 72, 0
2, 6816, Note_on_c, 0, 72, 88
2, 6840, Note_on_c, 0, 72, 0
2, 6840, Note_on_c, 0, 77, 88
2, 6864, Note_on_c, 0, 77, 0
2, 6864, Note_on_c, 0, 81, 88
2, 6888, Note_on_c, 0, 81, 0
2, 6888, Note_on_c, 0, 79, 88
2, 6912, Note_on_c, 0, 79, 0
2, 6912, Note_on_c, 0, 77, 88
2, 6936, Note_on_c, 0, 77, 0
2, 6936, Note_on_c, 0, 76, 88
2, 6960, Note_on_c, 0, 76, 0
2, 6960, Note_on_c, 0, 74, 88
2, 6984, Note_on_c, 0, 74, 0
2, 6984, Note_on_c, 0, 72, 88
2, 7005, Note_on_c, 0, 72, 0
2, 7008, Note_on_c, 0, 70, 88
2, 7032, Note_on_c, 0, 70, 0
2, 7032, Note_on_c, 0, 76, 88
2, 7056, Note_on_c, 0, 76, 0
2, 7056, Note_on_c, 0, 79, 88
2, 7080, Note_on_c, 0, 79, 0
2, 7080, Note_on_c, 0, 77, 88
2, 7104, Note_on_c, 0, 77, 0
2, 7104, Note_on_c, 0, 76, 88
2, 7128, Note_on_c, 0, 76, 0
2, 7128, Note_on_c, 0, 74, 88
2, 7152, Note_on_c, 0, 74, 0
2, 7152, Note_on_c, 0, 72, 88
2, 7176, Note_on_c, 0, 72, 0
2, 7176, Note_on_c, 0, 70, 88
2, 7197, Note_on_c, 0, 70, 0
2, 7200, Note_on_c, 0, 69, 88
2, 7221, Note_on_c, 0, 69, 0
2, 7224, Note_on_c, 0, 77, 88
2, 7236, Note_on_c, 0, 77, 0
2, 7236, Note_on_c, 0, 79, 88
2, 7248, Note_on_c, 0, 79, 0
2, 7248, Note_on_c, 0, 81, 88
2, 7272, Note_on_c, 0, 81, 0
2, 7272, Note_on_c, 0, 81, 88
2, 7284, Note_on_c, 0, 81, 0
2, 7284, Note_on_c, 0, 79, 88
2, 7296, Note_on_c, 0, 79, 0
2, 7296, Note_on_c, 0, 77, 88
2, 7320, Note_on_c, 0, 77, 0
2, 7320, Note_on_c, 0, 77, 88
2, 7332, Note_on_c, 0, 77, 0
2, 7332, Note_on_c, 0, 76, 88
2, 7344, Note_on_c, 0, 76, 0
2, 7344, Note_on_c, 0, 74, 88
2, 7368, Note_on_c, 0, 74, 0
2, 7368, Note_on_c, 0, 74, 88
2, 7380, Note_on_c, 0, 74, 0
2, 7380, Note_on_c, 0, 72, 88
2, 7392, Note_on_c, 0, 72, 0
2, 7392, Note_on_c, 0, 70, 88
2, 7416, Note_on_c, 0, 70, 0
2, 7416, Note_on_c, 0, 76, 88
2, 7428, Note_on_c, 0, 76, 0
2, 7428, Note_on_c, 0, 77, 88
2, 7440, Note_on_c, 0, 77, 0
2, 7440, Note_on_c, 0, 79, 88
2, 7464, Note_on_c, 0, 79, 0
2, 7464, Note_on_c, 0, 79, 88
2, 7476, Note_on_c, 0, 79, 0
2, 7476, Note_on_c, 0, 77, 88
2, 7488, Note_on_c, 0, 77, 0
2, 7488, Note_on_c, 0, 76, 88
2, 7512, Note_on_c, 0, 76, 0
2, 7512, Note_on_c, 0, 76, 88
2, 7524, Note_on_c, 0, 76, 0
2, 7524, Note_on_c, 0, 74, 88
2, 7536, Note_on_c, 0, 74, 0
2, 7536, Note_on_c, 0, 72, 88
2, 7560, Note_on_c, 0, 72, 0
2, 7560, Note_on_c, 0, 72, 88
2, 7572, Note_on_c, 0, 72, 0
2, 7572, Note_on_c, 0, 70, 88
2, 7584, Note_on_c, 0, 70, 0
2, 7584, Note_on_c, 0, 69, 88
2, 7608, Note_on_c, 0, 69, 0
2, 7608, Note_on_c, 0, 77, 88
2, 7620, Note_on_c, 0, 77, 0
2, 7620, Note_on_c, 0, 79, 88
2, 7632, Note_on_c, 0, 79, 0
2, 7632, Note_on_c, 0, 81, 88
2, 7644, Note_on_c, 0, 81, 0
2, 7644, Note_on_c, 0, 82, 88
2, 7656, Note_on_c, 0, 82, 0
2, 7656, Note_on_c, 0, 79, 88
2, 7668, Note_on_c, 0, 79, 0
2, 7668, Note_on_c, 0, 81, 88
2, 7680, Note_on_c, 0, 81, 0
2, 7680, Note_on_c, 0, 77, 88
2, 7692, Note_on_c, 0, 77, 0
2, 7692, Note_on_c, 0, 79, 88
2, 7704, Note_on_c, 0, 79, 0
2, 7704, Note_on_c, 0, 76, 88
2, 7716, Note_on_c, 0, 76, 0
2, 7716, Note_on_c, 0, 77, 88
2, 7728, Note_on_c, 0, 77, 0
2, 7728, Note_on_c, 0, 74, 88
2, 7740, Note_on_c, 0, 74, 0
2, 7740, Note_on_c, 0, 76, 88
2, 7752, Note_on_c, 0, 76, 0
2, 7752, Note_on_c, 0, 72, 88
2, 7764, Note_on_c, 0, 72, 0
2, 7764, Note_on_c, 0, 74, 88
2, 7776, Note_on_c, 0, 74, 0
2, 7776, Note_on_c, 0, 70, 88
2, 7800, Note_on_c, 0, 70, 0
2, 7800, Note_on_c, 0, 76, 88
2, 7812, Note_on_c, 0, 76, 0
2, 7812, Note_on_c, 0, 77, 88
2, 7824, Note_on_c, 0, 77, 0
2, 7824, Note_on_c, 0, 79, 88
2, 7836, Note_on_c, 0, 79, 0
2, 7836, Note_on_c, 0, 81, 88
2, 7848, Note_on_c, 0, 81, 0
2, 7848, Note_on_c, 0, 77, 88
2, 7860, Note_on_c, 0, 77, 0
2, 7860, Note_on_c, 0, 79, 88
2, 7872, Note_on_c, 0, 79, 0
2, 7872, Note_on_c, 0, 76, 88
2, 7884, Note_on_c, 0, 76, 0
2, 7884, Note_on_c, 0, 77, 88
2, 7896, Note_on_c, 0, 77, 0
2, 7896, Note_on_c, 0, 74, 88
2, 7908, Note_on_c, 0, 74, 0
2, 7908, Note_on_c, 0, 76, 88
2, 7920, Note_on_c, 0, 76, 0
2, 7920, Note_on_c, 0, 72, 88
2, 7932, Note_on_c, 0, 72, 0
2, 7932, Note_on_c, 0, 74, 88
2, 7944, Note_on_c, 0, 74, 0
2, 7944, Note_on_c, 0, 70, 88
2, 7956, Note_on_c, 0, 70, 0
2, 7956, Note_on_c, 0, 72, 88
2, 7968, Note_on_c, 0, 72, 0
2, 7968, Note_on_c, 0, 69, 88
2, 8016, Note_on_c, 0, 69, 0
2, 8016, Note_on_c, 0, 77, 88
2, 8112, Note_on_c, 0, 77, 0
2, 8112, Note_on_c, 0, 75, 88
2, 8160, Note_on_c, 0, 75, 0
2, 8160, Note_on_c, 0, 73, 88
2, 8208, Note_on_c, 0, 73, 0
2, 8208, Note_on_c, 0, 74, 88
2, 8256, Note_on_c, 0, 74, 0
2, 8304, Note_on_c, 0, 74, 88
2, 8347, Note_on_c, 0, 74, 0
2, 8352, Note_on_c, 0, 72, 88
2, 8395, Note_on_c, 0, 72, 0
2, 8400, Note_on_c, 0, 74, 88
2, 8406, Note_on_c, 0, 74, 0
2, 8406, Note_on_c, 0, 72, 88
2, 8412, Note_on_c, 0, 72, 0
2, 8412, Note_on_c, 0, 71, 88
2, 8418, Note_on_c, 0, 71, 0
2, 8418, Note_on_c, 0, 72, 88
2, 8424, Note_on_c, 0, 72, 0
2, 8424, Note_on_c, 0, 74, 88
2, 8434, Note_on_c, 0, 74, 0
2, 8436, Note_on_c, 0, 70, 88
2, 8446, Note_on_c, 0, 70, 0
2, 8448, Note_on_c, 0, 69, 88
2, 8491, Note_on_c, 0, 69, 0
2, 8496, Note_on_c, 0, 67, 88
2, 8539, Note_on_c, 0, 67, 0
2, 8544, Note_on_c, 0, 77, 88
2, 8949, Note_on_c, 0, 77, 0
2, 8952, Note_on_c, 0, 77, 88
2, 8964, Note_on_c, 0, 77, 0
2, 8976, Note_on_c, 0, 79, 88
2, 8988, Note_on_c, 0, 79, 0
2, 9000, Note_on_c, 0, 79, 88
2, 9012, Note_on_c, 0, 79, 0
2, 9024, Note_on_c, 0, 81, 88
2, 9036, Note_on_c, 0, 81, 0
2, 9048, Note_on_c, 0, 81, 88
2, 9060, Note_on_c, 0, 81, 0
2, 9072, Note_on_c, 0, 82, 88
2, 9084, Note_on_c, 0, 82, 0
2, 9096, Note_on_c, 0, 82, 88
2, 9108, Note_on_c, 0, 82, 0
2, 9120, Note_on_c, 0, 84, 88
2, 9144, Note_on_c, 0, 84, 0
2, 9144, Note_on_c, 0, 81, 88
2, 9168, Note_on_c, 0, 81, 0
2, 9168, Note_on_c, 0, 77, 88
2, 9192, Note_on_c, 0, 77, 0
2, 9192, Note_on_c, 0, 72, 88
2, 9216, Note_on_c, 0, 72, 0
2, 9216, Note_on_c, 0, 81, 88
2, 9240, Note_on_c, 0, 81, 0
2, 9240, Note_on_c, 0, 77, 88
2, 9264, Note_on_c, 0, 77, 0
2, 9264, Note_on_c, 0, 72, 88
2, 9288, Note_on_c, 0, 72, 0
2, 9288, Note_on_c, 0, 69, 88
2, 9312, Note_on_c, 0, 69, 0
2, 9312, Note_on_c, 0, 69, 88
2, 9318, Note_on_c, 0, 69, 0
2, 9318, Note_on_c, 0, 67, 88
2, 9324, Note_on_c, 0, 67, 0
2, 9324, Note_on_c, 0, 69, 88
2, 9330, Note_on_c, 0, 69, 0
2, 9330, Note_on_c, 0, 67, 88
2, 9336, Note_on_c, 0, 67, 0
2, 9336, Note_on_c, 0, 69, 88
2, 9342, Note_on_c, 0, 69, 0
2, 9342, Note_on_c, 0, 67, 88
2, 9348, Note_on_c, 0, 67, 0
2, 9348, Note_on_c, 0, 69, 88
2, 9354, Note_on_c, 0, 69, 0
2, 9354, Note_on_c, 0, 67, 88
2, 9360, Note_on_c, 0, 67, 0
2, 9360, Note_on_c, 0, 69, 88
2, 9366, Note_on_c, 0, 69, 0
2, 9366, Note_on_c, 0, 67, 88
2, 9372, Note_on_c, 0, 67, 0
2, 9372, Note_on_c, 0, 69, 88
2, 9378, Note_on_c, 0, 69, 0
2, 9378, Note_on_c, 0, 67, 88
2, 9384, Note_on_c, 0, 67, 0
2, 9384, Note_on_c, 0, 69, 88
2, 9390, Note_on_c, 0, 69, 0
2, 9390, Note_on_c, 0, 67, 88
2, 9396, Note_on_c, 0, 67, 0
2, 9396, Note_on_c, 0, 69, 88
2, 9402, Note_on_c, 0, 69, 0
2, 9402, Note_on_c, 0, 67, 88
2, 9408, Note_on_c, 0, 67, 0
2, 9408, Note_on_c, 0, 69, 88
2, 9414, Note_on_c, 0, 69, 0
2, 9414, Note_on_c, 0, 67, 88
2, 9420, Note_on_c, 0, 67, 0
2, 9420, Note_on_c, 0, 69, 88
2, 9426, Note_on_c, 0, 69, 0
2, 9426, Note_on_c, 0, 67, 88
2, 9432, Note_on_c, 0, 67, 0
2, 9432, Note_on_c, 0, 69, 88
2, 9438, Note_on_c, 0, 69, 0
2, 9438, Note_on_c, 0, 67, 88
2, 9444, Note_on_c, 0, 67, 0
2, 9444, Note_on_c, 0, 69, 88
2, 9450, Note_on_c, 0, 69, 0
2, 9450, Note_on_c, 0, 67, 88
2, 9456, Note_on_c, 0, 67, 0
2, 9456, Note_on_c, 0, 65, 88
2, 9477, Note_on_c, 0, 65, 0
2, 9480, Note_on_c, 0, 67, 88
2, 9501, Note_on_c, 0, 67, 0
2, 9504, Note_on_c, 0, 65, 88
2, 9590, Note_on_c, 0, 65, 0
2, 9696, Note_on_c, 0, 72, 88
2, 9825, Note_on_c, 0, 72, 0
2, 9840, Note_on_c, 0, 77, 88
2, 9883, Note_on_c, 0, 77, 0
2, 9888, Note_on_c, 0, 75, 88
2, 9909, Note_on_c, 0, 75, 0
2, 9912, Note_on_c, 0, 73, 88
2, 9933, Note_on_c, 0, 73, 0
2, 9936, Note_on_c, 0, 73, 88
2, 9979, Note_on_c, 0, 73, 0
2, 10080, Note_on_c, 0, 79, 88
2, 10224, Note_on_c, 0, 79, 0
2, 10224, Note_on_c, 0, 73, 88
2, 10272, Note_on_c, 0, 73, 0
2, 10272, Note_on_c, 0, 73, 88
2, 10315, Note_on_c, 0, 73, 0
2, 10320, Note_on_c, 0, 72, 88
2, 10363, Note_on_c, 0, 72, 0
2, 10392, Note_on_c, 0, 76, 88
2, 10413, Note_on_c, 0, 76, 0
2, 10416, Note_on_c, 0, 77, 88
2, 10437, Note_on_c, 0, 77, 0
2, 10440, Note_on_c, 0, 79, 88
2, 10461, Note_on_c, 0, 79, 0
2, 10464, Note_on_c, 0, 81, 88
2, 10608, Note_on_c, 0, 81, 0
2, 10608, Note_on_c, 0, 71, 88
2, 10656, Note_on_c, 0, 71, 0
2, 10656, Note_on_c, 0, 72, 88
2, 10752, Note_on_c, 0, 72, 0
2, 10752, Note_on_c, 0, 73, 88
2, 10800, Note_on_c, 0, 73, 0
2, 10800, Note_on_c, 0, 74, 88
2, 10848, Note_on_c, 0, 74, 0
2, 10848, Note_on_c, 0, 75, 88
2, 10992, Note_on_c, 0, 75, 0
2, 10992, Note_on_c, 0, 77, 88
2, 11040, Note_on_c, 0, 77, 0
2, 11040, Note_on_c, 0, 75, 88
2, 11136, Note_on_c, 0, 75, 0
2, 11136, Note_on_c, 0, 73, 88
2, 11184, Note_on_c, 0, 73, 0
2, 11232, Note_on_c, 0, 73, 88
2, 11256, Note_on_c, 0, 73, 0
2, 11256, Note_on_c, 0, 75, 88
2, 11280, Note_on_c, 0, 75, 0
2, 11280, Note_on_c, 0, 77, 88
2, 11304, Note_on_c, 0, 77, 0
2, 11304, Note_on_c, 0, 75, 88
2, 11328, Note_on_c, 0, 75, 0
2, 11328, Note_on_c, 0, 79, 88
2, 11352, Note_on_c, 0, 79, 0
2, 11352, Note_on_c, 0, 77, 88
2, 11376, Note_on_c, 0, 77, 0
2, 11376, Note_on_c, 0, 75, 88
2, 11400, Note_on_c, 0, 75, 0
2, 11400, Note_on_c, 0, 73, 88
2, 11424, Note_on_c, 0, 73, 0
2, 11424, Note_on_c, 0, 71, 88
2, 11496, Note_on_c, 0, 71, 0
2, 11496, Note_on_c, 0, 72, 88
2, 11520, Note_on_c, 0, 72, 0
2, 11520, Note_on_c, 0, 72, 88
2, 11606, Note_on_c, 0, 72, 0
2, 11616, Note_on_c, 0, 70, 88
2, 11788, Note_on_c, 0, 70, 0
2, 11808, Note_on_c, 0, 70, 88
2, 11918, Note_on_c, 0, 70, 0
2, 11920, Note_on_c, 0, 72, 88
2, 11934, Note_on_c, 0, 72, 0
2, 11936, Note_on_c, 0, 74, 88
2, 11950, Note_on_c, 0, 74, 0
2, 11952, Note_on_c, 0, 75, 88
2, 11966, Note_on_c, 0, 75, 0
2, 11968, Note_on_c, 0, 77, 88
2, 11982, Note_on_c, 0, 77, 0
2, 11984, Note_on_c, 0, 79, 88
2, 11998, Note_on_c, 0, 79, 0
2, 12000, Note_on_c, 0, 80, 88
2, 12043, Note_on_c, 0, 80, 0
2, 12048, Note_on_c, 0, 77, 88
2, 12091, Note_on_c, 0, 77, 0
2, 12096, Note_on_c, 0, 74, 88
2, 12139, Note_on_c, 0, 74, 0
2, 12144, Note_on_c, 0, 68, 88
2, 12187, Note_on_c, 0, 68, 0
2, 12192, Note_on_c, 0, 68, 88
2, 12216, Note_on_c, 0, 68, 0
2, 12216, Note_on_c, 0, 67, 88
2, 12240, Note_on_c, 0, 67, 0
2, 12240, Note_on_c, 0, 72, 88
2, 12264, Note_on_c, 0, 72, 0
2, 12264, Note_on_c, 0, 70, 88
2, 12288, Note_on_c, 0, 70, 0
2, 12288, Note_on_c, 0, 70, 88
2, 12374, Note_on_c, 0, 70, 0
2, 12384, Note_on_c, 0, 58, 88
2, 12556, Note_on_c, 0, 58, 0
2, 12576, Note_on_c, 0, 82, 88
2, 12748, Note_on_c, 0, 82, 0
2, 12768, Note_on_c, 0, 80, 88
2, 12792, Note_on_c, 0, 80, 0
2, 12792, Note_on_c, 0, 79, 88
2, 12816, Note_on_c, 0, 79, 0
2, 12816, Note_on_c, 0, 79, 88
2, 12822, Note_on_c, 0, 79, 0
2, 12822, Note_on_c, 0, 77, 88
2, 12828, Note_on_c, 0, 77, 0
2, 12828, Note_on_c, 0, 79, 88
2, 12834, Note_on_c, 0, 79, 0
2, 12834, Note_on_c, 0, 77, 88
2, 12840, Note_on_c, 0, 77, 0
2, 12840, Note_on_c, 0, 75, 88
2, 12861, Note_on_c, 0, 75, 0
2, 12864, Note_on_c, 0, 75, 88
2, 12870, Note_on_c, 0, 75, 0
2, 12870, Note_on_c, 0, 74, 88
2, 12876, Note_on_c, 0, 74, 0
2, 12876, Note_on_c, 0, 75, 88
2, 12882, Note_on_c, 0, 75, 0
2, 12882, Note_on_c, 0, 74, 88
2, 12888, Note_on_c, 0, 74, 0
2, 12888, Note_on_c, 0, 72, 88
2, 12912, Note_on_c, 0, 72, 0
2, 12912, Note_on_c, 0, 72, 88
2, 12918, Note_on_c, 0, 72, 0
2, 12918, Note_on_c, 0, 70, 88
2, 12924, Note_on_c, 0, 70, 0
2, 12924, Note_on_c, 0, 72, 88
2, 12930, Note_on_c, 0, 72, 0
2, 12930, Note_on_c, 0, 70, 88
2, 12936, Note_on_c, 0, 70, 0
2, 12936, Note_on_c, 0, 68, 88
2, 12960, Note_on_c, 0, 68, 0
2, 12960, Note_on_c, 0, 67, 88
2, 13008, Note_on_c, 0, 67, 0
2, 13008, Note_on_c, 0, 79, 88
2, 13104, Note_on_c, 0, 79, 0
2, 13104, Note_on_c, 0, 77, 88
2, 13110, Note_on_c, 0, 77, 0
2, 13110, Note_on_c, 0, 75, 88
2, 13152, Note_on_c, 0, 75, 0
2, 13152, Note_on_c, 0, 74, 88
2, 13158, Note_on_c, 0, 74, 0
2, 13158, Note_on_c, 0, 73, 88
2, 13200, Note_on_c, 0, 73, 0
2, 13200, Note_on_c, 0, 73, 88
2, 13286, Note_on_c, 0, 73, 0
2, 13296, Note_on_c, 0, 73, 88
2, 13339, Note_on_c, 0, 73, 0
2, 13344, Note_on_c, 0, 74, 88
2, 13392, Note_on_c, 0, 74, 0
2, 13392, Note_on_c, 0, 75, 88
2, 13440, Note_on_c, 0, 75, 0
2, 13488, Note_on_c, 0, 75, 88
2, 13531, Note_on_c, 0, 75, 0
2, 13536, Note_on_c, 0, 74, 88
2, 13579, Note_on_c, 0, 74, 0
2, 13584, Note_on_c, 0, 75, 88
2, 13590, Note_on_c, 0, 75, 0
2, 13590, Note_on_c, 0, 74, 88
2, 13596, Note_on_c, 0, 74, 0
2, 13596, Note_on_c, 0, 72, 88
2, 13602, Note_on_c, 0, 72, 0
2, 13602, Note_on_c, 0, 74, 88
2, 13608, Note_on_c, 0, 74, 0
2, 13608, Note_on_c, 0, 75, 88
2, 13618, Note_on_c, 0, 75, 0
2, 13620, Note_on_c, 0, 74, 88
2, 13630, Note_on_c, 0, 74, 0
2, 13632, Note_on_c, 0, 70, 88
2, 13675, Note_on_c, 0, 70, 0
2, 13680, Note_on_c, 0, 69, 88
2, 13723, Note_on_c, 0, 69, 0
2, 13728, Note_on_c, 0, 67, 88
2, 13814, Note_on_c, 0, 67, 0
2, 13920, Note_on_c, 0, 79, 88
2, 14064, Note_on_c, 0, 79, 0
2, 14064, Note_on_c, 0, 73, 88
2, 14112, Note_on_c, 0, 73, 0
2, 14112, Note_on_c, 0, 73, 88
2, 14160, Note_on_c, 0, 73, 0
2, 14160, Note_on_c, 0, 74, 88
2, 14208, Note_on_c, 0, 74, 0
2, 14304, Note_on_c, 0, 82, 88
2, 14448, Note_on_c, 0, 82, 0
2, 14448, Note_on_c, 0, 73, 88
2, 14496, Note_on_c, 0, 73, 0
2, 14496, Note_on_c, 0, 74, 88
2, 14613, Note_on_c, 0, 74, 0
2, 14616, Note_on_c, 0, 75, 88
2, 14622, Note_on_c, 0, 75, 0
2, 14622, Note_on_c, 0, 74, 88
2, 14628, Note_on_c, 0, 74, 0
2, 14628, Note_on_c, 0, 73, 88
2, 14634, Note_on_c, 0, 73, 0
2, 14634, Note_on_c, 0, 74, 88
2, 14640, Note_on_c, 0, 74, 0
2, 14640, Note_on_c, 0, 77, 88
2, 14676, Note_on_c, 0, 77, 0
2, 14676, Note_on_c, 0, 75, 88
2, 14688, Note_on_c, 0, 75, 0
2, 14688, Note_on_c, 0, 75, 88
2, 14784, Note_on_c, 0, 75, 0
2, 14784, Note_on_c, 0, 76, 88
2, 14832, Note_on_c, 0, 76, 0
2, 14832, Note_on_c, 0, 77, 88
2, 14861, Note_on_c, 0, 77, 0
2, 14862, Note_on_c, 0, 74, 88
2, 14867, Note_on_c, 0, 74, 0
2, 14868, Note_on_c, 0, 75, 88
2, 14873, Note_on_c, 0, 75, 0
2, 14874, Note_on_c, 0, 72, 88
2, 14879, Note_on_c, 0, 72, 0
2, 14880, Note_on_c, 0, 70, 88
2, 15052, Note_on_c, 0, 70, 0
2, 15072, Note_on_c, 0, 72, 88
2, 15244, Note_on_c, 0, 72, 0
2, 15264, Note_on_c, 0, 74, 88
2, 15436, Note_on_c, 0, 74, 0
2, 15456, Note_on_c, 0, 75, 88
2, 15542, Note_on_c, 0, 75, 0
2, 15552, Note_on_c, 0, 77, 88
2, 15638, Note_on_c, 0, 77, 0
2, 15648, Note_on_c, 0, 79, 88
2, 15792, Note_on_c, 0, 79, 0
2, 15792, Note_on_c, 0, 77, 88
2, 15804, Note_on_c, 0, 77, 0
2, 15804, Note_on_c, 0, 75, 88
2, 15816, Note_on_c, 0, 75, 0
2, 15816, Note_on_c, 0, 74, 88
2, 15828, Note_on_c, 0, 74, 0
2, 15828, Note_on_c, 0, 72, 88
2, 15838, Note_on_c, 0, 72, 0
2, 15840, Note_on_c, 0, 70, 88
2, 15846, Note_on_c, 0, 70, 0
2, 15846, Note_on_c, 0, 69, 88
2, 15883, Note_on_c, 0, 69, 0
2, 15888, Note_on_c, 0, 70, 88
2, 15931, Note_on_c, 0, 70, 0
2, 15936, Note_on_c, 0, 72, 88
2, 16000, Note_on_c, 0, 72, 0
2, 16008, Note_on_c, 0, 74, 88
2, 16018, Note_on_c, 0, 74, 0
2, 16020, Note_on_c, 0, 75, 88
2, 16030, Note_on_c, 0, 75, 0
2, 16032, Note_on_c, 0, 75, 88
2, 16038, Note_on_c, 0, 75, 0
2, 16038, Note_on_c, 0, 74, 88
2, 16128, Note_on_c, 0, 74, 0
2, 16224, Note_on_c, 0, 72, 88
2, 16230, Note_on_c, 0, 72, 0
2, 16230, Note_on_c, 0, 70, 88
2, 16236, Note_on_c, 0, 70, 0
2, 16236, Note_on_c, 0, 72, 88
2, 16242, Note_on_c, 0, 72, 0
2, 16242, Note_on_c, 0, 70, 88
2, 16248, Note_on_c, 0, 70, 0
2, 16248, Note_on_c, 0, 72, 88
2, 16254, Note_on_c, 0, 72, 0
2, 16254, Note_on_c, 0, 70, 88
2, 16260, Note_on_c, 0, 70, 0
2, 16260, Note_on_c, 0, 72, 88
2, 16266, Note_on_c, 0, 72, 0
2, 16266, Note_on_c, 0, 70, 88
2, 16272, Note_on_c, 0, 70, 0
2, 16272, Note_on_c, 0, 72, 88
2, 16278, Note_on_c, 0, 72, 0
2, 16278, Note_on_c, 0, 70, 88
2, 16284, Note_on_c, 0, 70, 0
2, 16284, Note_on_c, 0, 72, 88
2, 16290, Note_on_c, 0, 72, 0
2, 16290, Note_on_c, 0, 70, 88
2, 16296, Note_on_c, 0, 70, 0
2, 16296, Note_on_c, 0, 72, 88
2, 16302, Note_on_c, 0, 72, 0
2, 16302, Note_on_c, 0, 70, 88
2, 16308, Note_on_c, 0, 70, 0
2, 16308, Note_on_c, 0, 72, 88
2, 16314, Note_on_c, 0, 72, 0
2, 16314, Note_on_c, 0, 70, 88
2, 16320, Note_on_c, 0, 70, 0
2, 16320, Note_on_c, 0, 72, 88
2, 16326, Note_on_c, 0, 72, 0
2, 16326, Note_on_c, 0, 70, 88
2, 16332, Note_on_c, 0, 70, 0
2, 16332, Note_on_c, 0, 72, 88
2, 16338, Note_on_c, 0, 72, 0
2, 16338, Note_on_c, 0, 70, 88
2, 16344, Note_on_c, 0, 70, 0
2, 16344, Note_on_c, 0, 72, 88
2, 16350, Note_on_c, 0, 72, 0
2, 16350, Note_on_c, 0, 70, 88
2, 16356, Note_on_c, 0, 70, 0
2, 16356, Note_on_c, 0, 72, 88
2, 16362, Note_on_c, 0, 72, 0
2, 16362, Note_on_c, 0, 70, 88
2, 16368, Note_on_c, 0, 70, 0
2, 16368, Note_on_c, 0, 69, 88
2, 16389, Note_on_c, 0, 69, 0
2, 16392, Note_on_c, 0, 70, 88
2, 16413, Note_on_c, 0, 70, 0
2, 16416, Note_on_c, 0, 74, 88
2, 16422, Note_on_c, 0, 74, 0
2, 16422, Note_on_c, 0, 72, 88
2, 16428, Note_on_c, 0, 72, 0
2, 16428, Note_on_c, 0, 74, 88
2, 16434, Note_on_c, 0, 74, 0
2, 16434, Note_on_c, 0, 72, 88
2, 16440, Note_on_c, 0, 72, 0
2, 16440, Note_on_c, 0, 74, 88
2, 16446, Note_on_c, 0, 74, 0
2, 16446, Note_on_c, 0, 72, 88
2, 16452, Note_on_c, 0, 72, 0
2, 16452, Note_on_c, 0, 74, 88
2, 16458, Note_on_c, 0, 74, 0
2, 16458, Note_on_c, 0, 72, 88
2, 16464, Note_on_c, 0, 72, 0
2, 16464, Note_on_c, 0, 74, 88
2, 16470, Note_on_c, 0, 74, 0
2, 16470, Note_on_c, 0, 72, 88
2, 16476, Note_on_c, 0, 72, 0
2, 16476, Note_on_c, 0, 74, 88
2, 16482, Note_on_c, 0, 74, 0
2, 16482, Note_on_c, 0, 72, 88
2, 16488, Note_on_c, 0, 72, 0
2, 16488, Note_on_c, 0, 74, 88
2, 16494, Note_on_c, 0, 74, 0
2, 16494, Note_on_c, 0, 72, 88
2, 16500, Note_on_c, 0, 72, 0
2, 16500, Note_on_c, 0, 74, 88
2, 16506, Note_on_c, 0, 74, 0
2, 16506, Note_on_c, 0, 72, 88
2, 16512, Note_on_c, 0, 72, 0
2, 16512, Note_on_c, 0, 74, 88
2, 16518, Note_on_c, 0, 74, 0
2, 16518, Note_on_c, 0, 72, 88
2, 16524, Note_on_c, 0, 72, 0
2, 16524, Note_on_c, 0, 74, 88
2, 16530, Note_on_c, 0, 74, 0
2, 16530, Note_on_c, 0, 72, 88
2, 16536, Note_on_c, 0, 72, 0
2, 16536, Note_on_c, 0, 74, 88
2, 16542, Note_on_c, 0, 74, 0
2, 16542, Note_on_c, 0, 72, 88
2, 16548, Note_on_c, 0, 72, 0
2, 16548, Note_on_c, 0, 74, 88
2, 16554, Note_on_c, 0, 74, 0
2, 16554, Note_on_c, 0, 72, 88
2, 16560, Note_on_c, 0, 72, 0
2, 16560, Note_on_c, 0, 70, 88
2, 16581, Note_on_c, 0, 70, 0
2, 16584, Note_on_c, 0, 72, 88
2, 16605, Note_on_c, 0, 72, 0
2, 16608, Note_on_c, 0, 75, 88
2, 16614, Note_on_c, 0, 75, 0
2, 16614, Note_on_c, 0, 74, 88
2, 16620, Note_on_c, 0, 74, 0
2, 16620, Note_on_c, 0, 75, 88
2, 16626, Note_on_c, 0, 75, 0
2, 16626, Note_on_c, 0, 74, 88
2, 16632, Note_on_c, 0, 74, 0
2, 16632, Note_on_c, 0, 75, 88
2, 16638, Note_on_c, 0, 75, 0
2, 16638, Note_on_c, 0, 74, 88
2, 16644, Note_on_c, 0, 74, 0
2, 16644, Note_on_c, 0, 75, 88
2, 16650, Note_on_c, 0, 75, 0
2, 16650, Note_on_c, 0, 74, 88
2, 16656, Note_on_c, 0, 74, 0
2, 16656, Note_on_c, 0, 75, 88
2, 16662, Note_on_c, 0, 75, 0
2, 16662, Note_on_c, 0, 74, 88
2, 16668, Note_on_c, 0, 74, 0
2, 16668, Note_on_c, 0, 75, 88
2, 16674, Note_on_c, 0, 75, 0
2, 16674, Note_on_c, 0, 74, 88
2, 16680, Note_on_c, 0, 74, 0
2, 16680, Note_on_c, 0, 75, 88
2, 16686, Note_on_c, 0, 75, 0
2, 16686, Note_on_c, 0, 74, 88
2, 16692, Note_on_c, 0, 74, 0
2, 16692, Note_on_c, 0, 75, 88
2, 16698, Note_on_c, 0, 75, 0
2, 16698, Note_on_c, 0, 74, 88
2, 16704, Note_on_c, 0, 74, 0
2, 16704, Note_on_c, 0, 75, 88
2, 16710, Note_on_c, 0, 75, 0
2, 16710, Note_on_c, 0, 74, 88
2, 16716, Note_on_c, 0, 74, 0
2, 16716, Note_on_c, 0, 75, 88
2, 16722, Note_on_c, 0, 75, 0
2, 16722, Note_on_c, 0, 74, 88
2, 16728, Note_on_c, 0, 74, 0
2, 16728, Note_on_c, 0, 75, 88
2, 16734, Note_on_c, 0, 75, 0
2, 16734, Note_on_c, 0, 74, 88
2, 16740, Note_on_c, 0, 74, 0
2, 16740, Note_on_c, 0, 75, 88
2, 16746, Note_on_c, 0, 75, 0
2, 16746, Note_on_c, 0, 74, 88
2, 16752, Note_on_c, 0, 74, 0
2, 16752, Note_on_c, 0, 72, 88
2, 16773, Note_on_c, 0, 72, 0
2, 16776, Note_on_c, 0, 74, 88
2, 16797, Note_on_c, 0, 74, 0
2, 16800, Note_on_c, 0, 77, 88
2, 16806, Note_on_c, 0, 77, 0
2, 16806, Note_on_c, 0, 75, 88
2, 16812, Note_on_c, 0, 75, 0
2, 16812, Note_on_c, 0, 77, 88
2, 16818, Note_on_c, 0, 77, 0
2, 16818, Note_on_c, 0, 75, 88
2, 16824, Note_on_c, 0, 75, 0
2, 16824, Note_on_c, 0, 77, 88
2, 16830, Note_on_c, 0, 77, 0
2, 16830, Note_on_c, 0, 75, 88
2, 16836, Note_on_c, 0, 75, 0
2, 16836, Note_on_c, 0, 77, 88
2, 16842, Note_on_c, 0, 77, 0
2, 16842, Note_on_c, 0, 75, 88
2, 16848, Note_on_c, 0, 75, 0
2, 16848, Note_on_c, 0, 77, 88
2, 16854, Note_on_c, 0, 77, 0
2, 16854, Note_on_c, 0, 75, 88
2, 16860, Note_on_c, 0, 75, 0
2, 16860, Note_on_c, 0, 77, 88
2, 16866, Note_on_c, 0, 77, 0
2, 16866, Note_on_c, 0, 75, 88
2, 16872, Note_on_c, 0, 75, 0
2, 16872, Note_on_c, 0, 74, 88
2, 16882, Note_on_c, 0, 74, 0
2, 16884, Note_on_c, 0, 75, 88
2, 16894, Note_on_c, 0, 75, 0
2, 16896, Note_on_c, 0, 79, 88
2, 16902, Note_on_c, 0, 79, 0
2, 16902, Note_on_c, 0, 77, 88
2, 16908, Note_on_c, 0, 77, 0
2, 16908, Note_on_c, 0, 79, 88
2, 16914, Note_on_c, 0, 79, 0
2, 16914, Note_on_c, 0, 77, 88
2, 16920, Note_on_c, 0, 77, 0
2, 16920, Note_on_c, 0, 79, 88
2, 16926, Note_on_c, 0, 79, 0
2, 16926, Note_on_c, 0, 77, 88
2, 16932, Note_on_c, 0, 77, 0
2, 16932, Note_on_c, 0, 79, 88
2, 16938, Note_on_c, 0, 79, 0
2, 16938, Note_on_c, 0, 77, 88
2, 16944, Note_on_c, 0, 77, 0
2, 16944, Note_on_c, 0, 79, 88
2, 16950, Note_on_c, 0, 79, 0
2, 16950, Note_on_c, 0, 77, 88
2, 16956, Note_on_c, 0, 77, 0
2, 16956, Note_on_c, 0, 79, 88
2, 16962, Note_on_c, 0, 79, 0
2, 16962, Note_on_c, 0, 77, 88
2, 16968, Note_on_c, 0, 77, 0
2, 16968, Note_on_c, 0, 75, 88
2, 16978, Note_on_c, 0, 75, 0
2, 16980, Note_on_c, 0, 77, 88
2, 16990, Note_on_c, 0, 77, 0
2, 16992, Note_on_c, 0, 79, 88
2, 17136, Note_on_c, 0, 79, 0
2, 17136, Note_on_c, 0, 77, 88
2, 17148, Note_on_c, 0, 77, 0
2, 17148, Note_on_c, 0, 75, 88
2, 17160, Note_on_c, 0, 75, 0
2, 17160, Note_on_c, 0, 74, 88
2, 17172, Note_on_c, 0, 74, 0
2, 17172, Note_on_c, 0, 72, 88
2, 17182, Note_on_c, 0, 72, 0
2, 17184, Note_on_c, 0, 81, 88
2, 17270, Note_on_c, 0, 81, 0
2, 17280, Note_on_c, 0, 84, 88
2, 17304, Note_on_c, 0, 84, 0
2, 17304, Note_on_c, 0, 82, 88
2, 17328, Note_on_c, 0, 82, 0
2, 17328, Note_on_c, 0, 81, 88
2, 17352, Note_on_c, 0, 81, 0
2, 17352, Note_on_c, 0, 79, 88
2, 17376, Note_on_c, 0, 79, 0
2, 17376, Note_on_c, 0, 77, 88
2, 17520, Note_on_c, 0, 77, 0
2, 17520, Note_on_c, 0, 77, 88
2, 17526, Note_on_c, 0, 77, 0
2, 17526, Note_on_c, 0, 75, 88
2, 17532, Note_on_c, 0, 75, 0
2, 17532, Note_on_c, 0, 77, 88
2, 17538, Note_on_c, 0, 77, 0
2, 17538, Note_on_c, 0, 75, 88
2, 17544, Note_on_c, 0, 75, 0
2, 17544, Note_on_c, 0, 77, 88
2, 17550, Note_on_c, 0, 77, 0
2, 17550, Note_on_c, 0, 75, 88
2, 17556, Note_on_c, 0, 75, 0
2, 17556, Note_on_c, 0, 77, 88
2, 17562, Note_on_c, 0, 77, 0
2, 17562, Note_on_c, 0, 75, 88
2, 17568, Note_on_c, 0, 75, 0
2, 17568, Note_on_c, 0, 74, 88
2, 17654, Note_on_c, 0, 74, 0
2, 17760, Note_on_c, 0, 77, 88
2, 17808, Note_on_c, 0, 77, 0
2, 17808, Note_on_c, 0, 74, 88
2, 17856, Note_on_c, 0, 74, 0
2, 17904, Note_on_c, 0, 74, 88
2, 17947, Note_on_c, 0, 74, 0
2, 17952, Note_on_c, 0, 77, 88
2, 18000, Note_on_c, 0, 77, 0
2, 18000, Note_on_c, 0, 75, 88
2, 18048, Note_on_c, 0, 75, 0
2, 18096, Note_on_c, 0, 72, 88
2, 18139, Note_on_c, 0, 72, 0
2, 18144, Note_on_c, 0, 74, 88
2, 18168, Note_on_c, 0, 74, 0
2, 18168, Note_on_c, 0, 77, 88
2, 18192, Note_on_c, 0, 77, 0
2, 18192, Note_on_c, 0, 82, 88
2, 18216, Note_on_c, 0, 82, 0
2, 18216, Note_on_c, 0, 81, 88
2, 18240, Note_on_c, 0, 81, 0
2, 18240, Note_on_c, 0, 79, 88
2, 18264, Note_on_c, 0, 79, 0
2, 18264, Note_on_c, 0, 77, 88
2, 18288, Note_on_c, 0, 77, 0
2, 18288, Note_on_c, 0, 75, 88
2, 18312, Note_on_c, 0, 75, 0
2, 18312, Note_on_c, 0, 74, 88
2, 18336, Note_on_c, 0, 74, 0
2, 18336, Note_on_c, 0, 77, 88
2, 18408, Note_on_c, 0, 77, 0
2, 18408, Note_on_c, 0, 74, 88
2, 18432, Note_on_c, 0, 74, 0
2, 18432, Note_on_c, 0, 72, 88
2, 18456, Note_on_c, 0, 72, 0
2, 18456, Note_on_c, 0, 74, 88
2, 18480, Note_on_c, 0, 74, 0
2, 18480, Note_on_c, 0, 75, 88
2, 18504, Note_on_c, 0, 75, 0
2, 18504, Note_on_c, 0, 76, 88
2, 18528, Note_on_c, 0, 76, 0
2, 18528, Note_on_c, 0, 77, 88
2, 18576, Note_on_c, 0, 77, 0
2, 18576, Note_on_c, 0, 74, 88
2, 18624, Note_on_c, 0, 74, 0
2, 18648, Note_on_c, 0, 74, 88
2, 18660, Note_on_c, 0, 74, 0
2, 18672, Note_on_c, 0, 75, 88
2, 18684, Note_on_c, 0, 75, 0
2, 18684, Note_on_c, 0, 74, 88
2, 18696, Note_on_c, 0, 74, 0
2, 18696, Note_on_c, 0, 72, 88
2, 18708, Note_on_c, 0, 72, 0
2, 18708, Note_on_c, 0, 74, 88
2, 18718, Note_on_c, 0, 74, 0
2, 18720, Note_on_c, 0, 77, 88
2, 18744, Note_on_c, 0, 77, 0
2, 18744, Note_on_c, 0, 76, 88
2, 18768, Note_on_c, 0, 76, 0
2, 18768, Note_on_c, 0, 75, 88
2, 18816, Note_on_c, 0, 75, 0
2, 18840, Note_on_c, 0, 72, 88
2, 18852, Note_on_c, 0, 72, 0
2, 18864, Note_on_c, 0, 74, 88
2, 18876, Note_on_c, 0, 74, 0
2, 18876, Note_on_c, 0, 72, 88
2, 18888, Note_on_c, 0, 72, 0
2, 18888, Note_on_c, 0, 71, 88
2, 18900, Note_on_c, 0, 71, 0
2, 18900, Note_on_c, 0, 72, 88
2, 18912, Note_on_c, 0, 72, 0
2, 18912, Note_on_c, 0, 74, 88
2, 18936, Note_on_c, 0, 74, 0
2, 18936, Note_on_c, 0, 77, 88
2, 18960, Note_on_c, 0, 77, 0
2, 18960, Note_on_c, 0, 82, 88
2, 18984, Note_on_c, 0, 82, 0
2, 18984, Note_on_c, 0, 81, 88
2, 19008, Note_on_c, 0, 81, 0
2, 19008, Note_on_c, 0, 79, 88
2, 19032, Note_on_c, 0, 79, 0
2, 19032, Note_on_c, 0, 77, 88
2, 19056, Note_on_c, 0, 77, 0
2, 19056, Note_on_c, 0, 75, 88
2, 19080, Note_on_c, 0, 75, 0
2, 19080, Note_on_c, 0, 74, 88
2, 19104, Note_on_c, 0, 74, 0
2, 19104, Note_on_c, 0, 77, 88
2, 19233, Note_on_c, 0, 77, 0
2, 19248, Note_on_c, 0, 79, 88
2, 19260, Note_on_c, 0, 79, 0
2, 19260, Note_on_c, 0, 77, 88
2, 19272, Note_on_c, 0, 77, 0
2, 19272, Note_on_c, 0, 75, 88
2, 19284, Note_on_c, 0, 75, 0
2, 19284, Note_on_c, 0, 74, 88
2, 19296, Note_on_c, 0, 74, 0
2, 19296, Note_on_c, 0, 75, 88
2, 19308, Note_on_c, 0, 75, 0
2, 19308, Note_on_c, 0, 77, 88
2, 19320, Note_on_c, 0, 77, 0
2, 19320, Note_on_c, 0, 79, 88
2, 19332, Note_on_c, 0, 79, 0
2, 19332, Note_on_c, 0, 81, 88
2, 19344, Note_on_c, 0, 81, 0
2, 19344, Note_on_c, 0, 82, 88
2, 19356, Note_on_c, 0, 82, 0
2, 19356, Note_on_c, 0, 81, 88
2, 19368, Note_on_c, 0, 81, 0
2, 19368, Note_on_c, 0, 79, 88
2, 19380, Note_on_c, 0, 79, 0
2, 19380, Note_on_c, 0, 77, 88
2, 19392, Note_on_c, 0, 77, 0
2, 19392, Note_on_c, 0, 79, 88
2, 19404, Note_on_c, 0, 79, 0
2, 19404, Note_on_c, 0, 81, 88
2, 19416, Note_on_c, 0, 81, 0
2, 19416, Note_on_c, 0, 82, 88
2, 19428, Note_on_c, 0, 82, 0
2, 19428, Note_on_c, 0, 84, 88
2, 19440, Note_on_c, 0, 84, 0
2, 19440, Note_on_c, 0, 86, 88
2, 19488, Note_on_c, 0, 86, 0
2, 19560, Note_on_c, 0, 74, 88
2, 19584, Note_on_c, 0, 74, 0
2, 19584, Note_on_c, 0, 75, 88
2, 19608, Note_on_c, 0, 75, 0
2, 19608, Note_on_c, 0, 76, 88
2, 19629, Note_on_c, 0, 76, 0
2, 19632, Note_on_c, 0, 79, 88
2, 19638, Note_on_c, 0, 79, 0
2, 19638, Note_on_c, 0, 77, 88
2, 19703, Note_on_c, 0, 77, 0
2, 19704, Note_on_c, 0, 75, 88
2, 19712, Note_on_c, 0, 75, 0
2, 19712, Note_on_c, 0, 74, 88
2, 19720, Note_on_c, 0, 74, 0
2, 19720, Note_on_c, 0, 72, 88
2, 19728, Note_on_c, 0, 72, 0
2, 19728, Note_on_c, 0, 75, 88
2, 19734, Note_on_c, 0, 75, 0
2, 19734, Note_on_c, 0, 74, 88
2, 19776, Note_on_c, 0, 74, 0
2, 19776, Note_on_c, 0, 72, 88
2, 19862, Note_on_c, 0, 72, 0
2, 19968, Note_on_c, 0, 72, 88
2, 20054, Note_on_c, 0, 72, 0
2, 20064, Note_on_c, 0, 65, 88
2, 20150, Note_on_c, 0, 65, 0
2, 20160, Note_on_c, 0, 64, 88
2, 20288, Note_on_c, 0, 64, 0
2, 20292, Note_on_c, 0, 65, 88
2, 20298, Note_on_c, 0, 65, 0
2, 20298, Note_on_c, 0, 67, 88
2, 20304, Note_on_c, 0, 67, 0
2, 20304, Note_on_c, 0, 69, 88
2, 20310, Note_on_c, 0, 69, 0
2, 20310, Note_on_c, 0, 70, 88
2, 20316, Note_on_c, 0, 70, 0
2, 20316, Note_on_c, 0, 72, 88
2, 20322, Note_on_c, 0, 72, 0
2, 20322, Note_on_c, 0, 74, 88
2, 20328, Note_on_c, 0, 74, 0
2, 20328, Note_on_c, 0, 76, 88
2, 20334, Note_on_c, 0, 76, 0
2, 20334, Note_on_c, 0, 77, 88
2, 20340, Note_on_c, 0, 77, 0
2, 20340, Note_on_c, 0, 79, 88
2, 20346, Note_on_c, 0, 79, 0
2, 20346, Note_on_c, 0, 81, 88
2, 20352, Note_on_c, 0, 81, 0
2, 20352, Note_on_c, 0, 82, 88
2, 20400, Note_on_c, 0, 82, 0
2, 20400, Note_on_c, 0, 79, 88
2, 20448, Note_on_c, 0, 79, 0
2, 20448, Note_on_c, 0, 76, 88
2, 20496, Note_on_c, 0, 76, 0
2, 20496, Note_on_c, 0, 70, 88
2, 20544, Note_on_c, 0, 70, 0
2, 20544, Note_on_c, 0, 70, 88
2, 20568, Note_on_c, 0, 70, 0
2, 20568, Note_on_c, 0, 69, 88
2, 20592, Note_on_c, 0, 69, 0
2, 20592, Note_on_c, 0, 74, 88
2, 20616, Note_on_c, 0, 74, 0
2, 20616, Note_on_c, 0, 72, 88
2, 20640, Note_on_c, 0, 72, 0
2, 20640, Note_on_c, 0, 72, 88
2, 20664, Note_on_c, 0, 72, 0
2, 20664, Note_on_c, 0, 74, 88
2, 20688, Note_on_c, 0, 74, 0
2, 20688, Note_on_c, 0, 75, 88
2, 20712, Note_on_c, 0, 75, 0
2, 20712, Note_on_c, 0, 76, 88
2, 20736, Note_on_c, 0, 76, 0
2, 20736, Note_on_c, 0, 77, 88
2, 20822, Note_on_c, 0, 77, 0
2, 20832, Note_on_c, 0, 70, 88
2, 20918, Note_on_c, 0, 70, 0
2, 20928, Note_on_c, 0, 69, 88
2, 21056, Note_on_c, 0, 69, 0
2, 21060, Note_on_c, 0, 70, 88
2, 21066, Note_on_c, 0, 70, 0
2, 21066, Note_on_c, 0, 72, 88
2, 21072, Note_on_c, 0, 72, 0
2, 21072, Note_on_c, 0, 74, 88
2, 21078, Note_on_c, 0, 74, 0
2, 21078, Note_on_c, 0, 76, 88
2, 21084, Note_on_c, 0, 76, 0
2, 21084, Note_on_c, 0, 77, 88
2, 21090, Note_on_c, 0, 77, 0
2, 21090, Note_on_c, 0, 79, 88
2, 21096, Note_on_c, 0, 79, 0
2, 21096, Note_on_c, 0, 81, 88
2, 21102, Note_on_c, 0, 81, 0
2, 21102, Note_on_c, 0, 82, 88
2, 21108, Note_on_c, 0, 82, 0
2, 21108, Note_on_c, 0, 84, 88
2, 21114, Note_on_c, 0, 84, 0
2, 21114, Note_on_c, 0, 86, 88
2, 21120, Note_on_c, 0, 86, 0
2, 21120, Note_on_c, 0, 84, 88
2, 21168, Note_on_c, 0, 84, 0
2, 21168, Note_on_c, 0, 81, 88
2, 21216, Note_on_c, 0, 81, 0
2, 21216, Note_on_c, 0, 77, 88
2, 21264, Note_on_c, 0, 77, 0
2, 21264, Note_on_c, 0, 75, 88
2, 21312, Note_on_c, 0, 75, 0
2, 21312, Note_on_c, 0, 75, 88
2, 21336, Note_on_c, 0, 75, 0
2, 21336, Note_on_c, 0, 74, 88
2, 21360, Note_on_c, 0, 74, 0
2, 21360, Note_on_c, 0, 79, 88
2, 21384, Note_on_c, 0, 79, 0
2, 21384, Note_on_c, 0, 77, 88
2, 21408, Note_on_c, 0, 77, 0
2, 21408, Note_on_c, 0, 77, 88
2, 21494, Note_on_c, 0, 77, 0
2, 21504, Note_on_c, 0, 77, 88
2, 21516, Note_on_c, 0, 77, 0
2, 21516, Note_on_c, 0, 74, 88
2, 21528, Note_on_c, 0, 74, 0
2, 21528, Note_on_c, 0, 75, 88
2, 21540, Note_on_c, 0, 75, 0
2, 21540, Note_on_c, 0, 72, 88
2, 21552, Note_on_c, 0, 72, 0
2, 21552, Note_on_c, 0, 70, 88
2, 21638, Note_on_c, 0, 70, 0
2, 21648, Note_on_c, 0, 70, 88
2, 21691, Note_on_c, 0, 70, 0
2, 21696, Note_on_c, 0, 70, 88
2, 21768, Note_on_c, 0, 70, 0
2, 21768, Note_on_c, 0, 72, 88
2, 21792, Note_on_c, 0, 72, 0
2, 21792, Note_on_c, 0, 70, 88
2, 21878, Note_on_c, 0, 70, 0
2, 21888, Note_on_c, 0, 79, 88
2, 21900, Note_on_c, 0, 79, 0
2, 21900, Note_on_c, 0, 76, 88
2, 21912, Note_on_c, 0, 76, 0
2, 21912, Note_on_c, 0, 77, 88
2, 21924, Note_on_c, 0, 77, 0
2, 21924, Note_on_c, 0, 74, 88
2, 21936, Note_on_c, 0, 74, 0
2, 21936, Note_on_c, 0, 72, 88
2, 22022, Note_on_c, 0, 72, 0
2, 22032, Note_on_c, 0, 72, 88
2, 22075, Note_on_c, 0, 72, 0
2, 22080, Note_on_c, 0, 72, 88
2, 22152, Note_on_c, 0, 72, 0
2, 22152, Note_on_c, 0, 74, 88
2, 22176, Note_on_c, 0, 74, 0
2, 22176, Note_on_c, 0, 72, 88
2, 22262, Note_on_c, 0, 72, 0
2, 22368, Note_on_c, 0, 77, 88
2, 22411, Note_on_c, 0, 77, 0
2, 22416, Note_on_c, 0, 77, 88
2, 22459, Note_on_c, 0, 77, 0
2, 22464, Note_on_c, 0, 77, 88
2, 22488, Note_on_c, 0, 77, 0
2, 22488, Note_on_c, 0, 74, 88
2, 22512, Note_on_c, 0, 74, 0
2, 22512, Note_on_c, 0, 70, 88
2, 22524, Note_on_c, 0, 70, 0
2, 22536, Note_on_c, 0, 70, 88
2, 22548, Note_on_c, 0, 70, 0
2, 22584, Note_on_c, 0, 70, 88
2, 22608, Note_on_c, 0, 70, 0
2, 22608, Note_on_c, 0, 72, 88
2, 22632, Note_on_c, 0, 72, 0
2, 22632, Note_on_c, 0, 74, 88
2, 22656, Note_on_c, 0, 74, 0
2, 22656, Note_on_c, 0, 75, 88
2, 22680, Note_on_c, 0, 75, 0
2, 22680, Note_on_c, 0, 72, 88
2, 22704, Note_on_c, 0, 72, 0
2, 22704, Note_on_c, 0, 69, 88
2, 22716, Note_on_c, 0, 69, 0
2, 22728, Note_on_c, 0, 69, 88
2, 22740, Note_on_c, 0, 69, 0
2, 22776, Note_on_c, 0, 72, 88
2, 22800, Note_on_c, 0, 72, 0
2, 22800, Note_on_c, 0, 74, 88
2, 22824, Note_on_c, 0, 74, 0
2, 22824, Note_on_c, 0, 75, 88
2, 22848, Note_on_c, 0, 75, 0
2, 22848, Note_on_c, 0, 77, 88
2, 22872, Note_on_c, 0, 77, 0
2, 22872, Note_on_c, 0, 74, 88
2, 22896, Note_on_c, 0, 74, 0
2, 22896, Note_on_c, 0, 82, 88
2, 22908, Note_on_c, 0, 82, 0
2, 22920, Note_on_c, 0, 82, 88
2, 22932, Note_on_c, 0, 82, 0
2, 22968, Note_on_c, 0, 70, 88
2, 22992, Note_on_c, 0, 70, 0
2, 22992, Note_on_c, 0, 72, 88
2, 23016, Note_on_c, 0, 72, 0
2, 23016, Note_on_c, 0, 74, 88
2, 23040, Note_on_c, 0, 74, 0
2, 23040, Note_on_c, 0, 75, 88
2, 23064, Note_on_c, 0, 75, 0
2, 23064, Note_on_c, 0, 72, 88
2, 23088, Note_on_c, 0, 72, 0
2, 23088, Note_on_c, 0, 84, 88
2, 23100, Note_on_c, 0, 84, 0
2, 23112, Note_on_c, 0, 84, 88
2, 23124, Note_on_c, 0, 84, 0
2, 23160, Note_on_c, 0, 72, 88
2, 23184, Note_on_c, 0, 72, 0
2, 23184, Note_on_c, 0, 74, 88
2, 23208, Note_on_c, 0, 74, 0
2, 23208, Note_on_c, 0, 75, 88
2, 23232, Note_on_c, 0, 75, 0
2, 23232, Note_on_c, 0, 74, 88
2, 23280, Note_on_c, 0, 74, 0
2, 23280, Note_on_c, 0, 82, 88
2, 23376, Note_on_c, 0, 82, 0
2, 23376, Note_on_c, 0, 80, 88
2, 23424, Note_on_c, 0, 80, 0
2, 23424, Note_on_c, 0, 78, 88
2, 23472, Note_on_c, 0, 78, 0
2, 23472, Note_on_c, 0, 79, 88
2, 23520, Note_on_c, 0, 79, 0
2, 23568, Note_on_c, 0, 79, 88
2, 23611, Note_on_c, 0, 79, 0
2, 23616, Note_on_c, 0, 77, 88
2, 23659, Note_on_c, 0, 77, 0
2, 23664, Note_on_c, 0, 79, 88
2, 23670, Note_on_c, 0, 79, 0
2, 23670, Note_on_c, 0, 77, 88
2, 23676, Note_on_c, 0, 77, 0
2, 23676, Note_on_c, 0, 76, 88
2, 23682, Note_on_c, 0, 76, 0
2, 23682, Note_on_c, 0, 77, 88
2, 23688, Note_on_c, 0, 77, 0
2, 23688, Note_on_c, 0, 79, 88
2, 23698, Note_on_c, 0, 79, 0
2, 23700, Note_on_c, 0, 75, 88
2, 23710, Note_on_c, 0, 75, 0
2, 23712, Note_on_c, 0, 74, 88
2, 23755, Note_on_c, 0, 74, 0
2, 23760, Note_on_c, 0, 72, 88
2, 23803, Note_on_c, 0, 72, 0
2, 23808, Note_on_c, 0, 70, 88
2, 24172, Note_on_c, 0, 70, 0
2, 24192, Note_on_c, 0, 82, 88
2, 24624, Note_on_c, 0, 82, 0
2, 24624, Note_on_c, 0, 80, 88
2, 24672, Note_on_c, 0, 80, 0
2, 24672, Note_on_c, 0, 79, 88
2, 24720, Note_on_c, 0, 79, 0
2, 24720, Note_on_c, 0, 78, 88
2, 24768, Note_on_c, 0, 78, 0
2, 24768, Note_on_c, 0, 79, 88
2, 24828, Note_on_c, 0, 79, 0
2, 24828, Note_on_c, 0, 81, 88
2, 24840, Note_on_c, 0, 81, 0
2, 24840, Note_on_c, 0, 78, 88
2, 24852, Note_on_c, 0, 78, 0
2, 24852, Note_on_c, 0, 81, 88
2, 24864, Note_on_c, 0, 81, 0
2, 24864, Note_on_c, 0, 79, 88
2, 24924, Note_on_c, 0, 79, 0
2, 24924, Note_on_c, 0, 81, 88
2, 24936, Note_on_c, 0, 81, 0
2, 24936, Note_on_c, 0, 78, 88
2, 24948, Note_on_c, 0, 78, 0
2, 24948, Note_on_c, 0, 81, 88
2, 24960, Note_on_c, 0, 81, 0
2, 24960, Note_on_c, 0, 79, 88
2, 24972, Note_on_c, 0, 79, 0
2, 24972, Note_on_c, 0, 81, 88
2, 24984, Note_on_c, 0, 81, 0
2, 24984, Note_on_c, 0, 78, 88
2, 24996, Note_on_c, 0, 78, 0
2, 24996, Note_on_c, 0, 81, 88
2, 25008, Note_on_c, 0, 81, 0
2, 25008, Note_on_c, 0, 79, 88
2, 25020, Note_on_c, 0, 79, 0
2, 25020, Note_on_c, 0, 81, 88
2, 25032, Note_on_c, 0, 81, 0
2, 25032, Note_on_c, 0, 78, 88
2, 25044, Note_on_c, 0, 78, 0
2, 25044, Note_on_c, 0, 81, 88
2, 25056, Note_on_c, 0, 81, 0
2, 25056, Note_on_c, 0, 79, 88
2, 25068, Note_on_c, 0, 79, 0
2, 25068, Note_on_c, 0, 81, 88
2, 25080, Note_on_c, 0, 81, 0
2, 25080, Note_on_c, 0, 78, 88
2, 25092, Note_on_c, 0, 78, 0
2, 25092, Note_on_c, 0, 81, 88
2, 25104, Note_on_c, 0, 81, 0
2, 25104, Note_on_c, 0, 79, 88
2, 25116, Note_on_c, 0, 79, 0
2, 25116, Note_on_c, 0, 81, 88
2, 25128, Note_on_c, 0, 81, 0
2, 25128, Note_on_c, 0, 78, 88
2, 25140, Note_on_c, 0, 78, 0
2, 25140, Note_on_c, 0, 81, 88
2, 25152, Note_on_c, 0, 81, 0
2, 25152, Note_on_c, 0, 79, 88
2, 25164, Note_on_c, 0, 79, 0
2, 25164, Note_on_c, 0, 81, 88
2, 25176, Note_on_c, 0, 81, 0
2, 25176, Note_on_c, 0, 82, 88
2, 25188, Note_on_c, 0, 82, 0
2, 25188, Note_on_c, 0, 81, 88
2, 25200, Note_on_c, 0, 81, 0
2, 25200, Note_on_c, 0, 79, 88
2, 25212, Note_on_c, 0, 79, 0
2, 25212, Note_on_c, 0, 77, 88
2, 25224, Note_on_c, 0, 77, 0
2, 25224, Note_on_c, 0, 75, 88
2, 25236, Note_on_c, 0, 75, 0
2, 25236, Note_on_c, 0, 74, 88
2, 25248, Note_on_c, 0, 74, 0
2, 25248, Note_on_c, 0, 72, 88
2, 25260, Note_on_c, 0, 72, 0
2, 25260, Note_on_c, 0, 74, 88
2, 25272, Note_on_c, 0, 74, 0
2, 25272, Note_on_c, 0, 75, 88
2, 25284, Note_on_c, 0, 75, 0
2, 25284, Note_on_c, 0, 74, 88
2, 25296, Note_on_c, 0, 74, 0
2, 25296, Note_on_c, 0, 72, 88
2, 25308, Note_on_c, 0, 72, 0
2, 25308, Note_on_c, 0, 70, 88
2, 25320, Note_on_c, 0, 70, 0
2, 25320, Note_on_c, 0, 69, 88
2, 25332, Note_on_c, 0, 69, 0
2, 25332, Note_on_c, 0, 67, 88
2, 25344, Note_on_c, 0, 67, 0
2, 25344, Note_on_c, 0, 65, 88
2, 25368, Note_on_c, 0, 65, 0
2, 25368, Note_on_c, 0, 67, 88
2, 25380, Note_on_c, 0, 67, 0
2, 25380, Note_on_c, 0, 69, 88
2, 25392, Note_on_c, 0, 69, 0
2, 25392, Note_on_c, 0, 70, 88
2, 25404, Note_on_c, 0, 70, 0
2, 25404, Note_on_c, 0, 72, 88
2, 25416, Note_on_c, 0, 72, 0
2, 25416, Note_on_c, 0, 74, 88
2, 25428, Note_on_c, 0, 74, 0
2, 25428, Note_on_c, 0, 76, 88
2, 25440, Note_on_c, 0, 76, 0
2, 25440, Note_on_c, 0, 77, 88
2, 25452, Note_on_c, 0, 77, 0
2, 25452, Note_on_c, 0, 76, 88
2, 25464, Note_on_c, 0, 76, 0
2, 25464, Note_on_c, 0, 77, 88
2, 25476, Note_on_c, 0, 77, 0
2, 25476, Note_on_c, 0, 76, 88
2, 25488, Note_on_c, 0, 76, 0
2, 25488, Note_on_c, 0, 77, 88
2, 25500, Note_on_c, 0, 77, 0
2, 25500, Note_on_c, 0, 76, 88
2, 25512, Note_on_c, 0, 76, 0
2, 25512, Note_on_c, 0, 77, 88
2, 25524, Note_on_c, 0, 77, 0
2, 25524, Note_on_c, 0, 76, 88
2, 25536, Note_on_c, 0, 76, 0
2, 25536, Note_on_c, 0, 77, 88
2, 25546, Note_on_c, 0, 77, 0
2, 25548, Note_on_c, 0, 70, 88
2, 25558, Note_on_c, 0, 70, 0
2, 25560, Note_on_c, 0, 72, 88
2, 25570, Note_on_c, 0, 72, 0
2, 25572, Note_on_c, 0, 74, 88
2, 25582, Note_on_c, 0, 74, 0
2, 25584, Note_on_c, 0, 75, 88
2, 25594, Note_on_c, 0, 75, 0
2, 25596, Note_on_c, 0, 77, 88
2, 25606, Note_on_c, 0, 77, 0
2, 25608, Note_on_c, 0, 79, 88
2, 25618, Note_on_c, 0, 79, 0
2, 25620, Note_on_c, 0, 81, 88
2, 25630, Note_on_c, 0, 81, 0
2, 25632, Note_on_c, 0, 82, 88
2, 25642, Note_on_c, 0, 82, 0
2, 25644, Note_on_c, 0, 81, 88
2, 25654, Note_on_c, 0, 81, 0
2, 25656, Note_on_c, 0, 82, 88
2, 25666, Note_on_c, 0, 82, 0
2, 25668, Note_on_c, 0, 81, 88
2, 25678, Note_on_c, 0, 81, 0
2, 25680, Note_on_c, 0, 82, 88
2, 25690, Note_on_c, 0, 82, 0
2, 25692, Note_on_c, 0, 81, 88
2, 25702, Note_on_c, 0, 81, 0
2, 25704, Note_on_c, 0, 82, 88
2, 25714, Note_on_c, 0, 82, 0
2, 25716, Note_on_c, 0, 81, 88
2, 25726, Note_on_c, 0, 81, 0
2, 25728, Note_on_c, 0, 82, 88
2, 25771, Note_on_c, 0, 82, 0
2, 25788, Note_on_c, 0, 77, 88
2, 25798, Note_on_c, 0, 77, 0
2, 25800, Note_on_c, 0, 79, 88
2, 25810, Note_on_c, 0, 79, 0
2, 25812, Note_on_c, 0, 81, 88
2, 25822, Note_on_c, 0, 81, 0
2, 25824, Note_on_c, 0, 82, 88
2, 25867, Note_on_c, 0, 82, 0
2, 25884, Note_on_c, 0, 77, 88
2, 25894, Note_on_c, 0, 77, 0
2, 25896, Note_on_c, 0, 79, 88
2, 25906, Note_on_c, 0, 79, 0
2, 25908, Note_on_c, 0, 81, 88
2, 25918, Note_on_c, 0, 81, 0
2, 25920, Note_on_c, 0, 82, 88
2, 25944, Note_on_c, 0, 82, 0
2, 25944, Note_on_c, 0, 77, 88
2, 25992, Note_on_c, 0, 77, 0
2, 25992, Note_on_c, 0, 74, 88
2, 26016, Note_on_c, 0, 74, 0
2, 26016, Note_on_c, 0, 77, 88
2, 26040, Note_on_c, 0, 77, 0
2, 26040, Note_on_c, 0, 74, 88
2, 26088, Note_on_c, 0, 74, 0
2, 26088, Note_on_c, 0, 70, 88
2, 26112, Note_on_c, 0, 70, 0
2, 26112, Note_on_c, 0, 74, 88
2, 26118, Note_on_c, 0, 74, 0
2, 26118, Note_on_c, 0, 72, 88
2, 26124, Note_on_c, 0, 72, 0
2, 26124, Note_on_c, 0, 74, 88
2, 26130, Note_on_c, 0, 74, 0
2, 26130, Note_on_c, 0, 72, 88
2, 26136, Note_on_c, 0, 72, 0
2, 26136, Note_on_c, 0, 74, 88
2, 26142, Note_on_c, 0, 74, 0
2, 26142, Note_on_c, 0, 72, 88
2, 26148, Note_on_c, 0, 72, 0
2, 26148, Note_on_c, 0, 74, 88
2, 26154, Note_on_c, 0, 74, 0
2, 26154, Note_on_c, 0, 72, 88
2, 26160, Note_on_c, 0, 72, 0
2, 26160, Note_on_c, 0, 74, 88
2, 26166, Note_on_c, 0, 74, 0
2, 26166, Note_on_c, 0, 72, 88
2, 26172, Note_on_c, 0, 72, 0
2, 26172, Note_on_c, 0, 74, 88
2, 26178, Note_on_c, 0, 74, 0
2, 26178, Note_on_c, 0, 72, 88
2, 26184, Note_on_c, 0, 72, 0
2, 26184, Note_on_c, 0, 74, 88
2, 26190, Note_on_c, 0, 74, 0
2, 26190, Note_on_c, 0, 72, 88
2, 26196, Note_on_c, 0, 72, 0
2, 26196, Note_on_c, 0, 74, 88
2, 26202, Note_on_c, 0, 74, 0
2, 26202, Note_on_c, 0, 72, 88
2, 26208, Note_on_c, 0, 72, 0
2, 26208, Note_on_c, 0, 74, 88
2, 26214, Note_on_c, 0, 74, 0
2, 26214, Note_on_c, 0, 72, 88
2, 26220, Note_on_c, 0, 72, 0
2, 26220, Note_on_c, 0, 74, 88
2, 26226, Note_on_c, 0, 74, 0
2, 26226, Note_on_c, 0, 72, 88
2, 26232, Note_on_c, 0, 72, 0
2, 26232, Note_on_c, 0, 74, 88
2, 26238, Note_on_c, 0, 74, 0
2, 26238, Note_on_c, 0, 72, 88
2, 26244, Note_on_c, 0, 72, 0
2, 26244, Note_on_c, 0, 74, 88
2, 26250, Note_on_c, 0, 74, 0
2, 26250, Note_on_c, 0, 72, 88
2, 26256, Note_on_c, 0, 72, 0
2, 26256, Note_on_c, 0, 74, 88
2, 26262, Note_on_c, 0, 74, 0
2, 26262, Note_on_c, 0, 72, 88
2, 26268, Note_on_c, 0, 72, 0
2, 26268, Note_on_c, 0, 74, 88
2, 26274, Note_on_c, 0, 74, 0
2, 26274, Note_on_c, 0, 72, 88
2, 26280, Note_on_c, 0, 72, 0
2, 26280, Note_on_c, 0, 70, 88
2, 26290, Note_on_c, 0, 70, 0
2, 26292, Note_on_c, 0, 72, 88
2, 26302, Note_on_c, 0, 72, 0
2, 26304, Note_on_c, 0, 70, 88
2, 26390, Note_on_c, 0, 70, 0
2, 26390, End_track
3, 0, Start_track
3, 0, Program_c, 1, 0
3, 0, Note_on_c, 1, 46, 88
3, 43, Note_on_c, 1, 46, 0
3, 48, Note_on_c, 1, 58, 88
3, 91, Note_on_c, 1, 58, 0
3, 96, Note_on_c, 1, 62, 88
3, 139, Note_on_c, 1, 62, 0
3, 144, Note_on_c, 1, 58, 88
3, 187, Note_on_c, 1, 58, 0
3, 240, Note_on_c, 1, 53, 88
3, 283, Note_on_c, 1, 53, 0
3, 288, Note_on_c, 1, 57, 88
3, 331, Note_on_c, 1, 57, 0
3, 336, Note_on_c, 1, 53, 88
3, 379, Note_on_c, 1, 53, 0
3, 432, Note_on_c, 1, 58, 88
3, 475, Note_on_c, 1, 58, 0
3, 480, Note_on_c, 1, 57, 88
3, 523, Note_on_c, 1, 57, 0
3, 528, Note_on_c, 1, 58, 88
3, 571, Note_on_c, 1, 58, 0
3, 576, Note_on_c, 1, 55, 88
3, 619, Note_on_c, 1, 55, 0
3, 624, Note_on_c, 1, 58, 88
3, 667, Note_on_c, 1, 58, 0
3, 672, Note_on_c, 1, 50, 88
3, 715, Note_on_c, 1, 50, 0
3, 720, Note_on_c, 1, 58, 88
3, 763, Note_on_c, 1, 58, 0
3, 768, Note_on_c, 1, 51, 88
3, 811, Note_on_c, 1, 51, 0
3, 816, Note_on_c, 1, 51, 88
3, 859, Note_on_c, 1, 51, 0
3, 864, Note_on_c, 1, 51, 88
3, 907, Note_on_c, 1, 51, 0
3, 912, Note_on_c, 1, 51, 88
3, 955, Note_on_c, 1, 51, 0
3, 960, Note_on_c, 1, 51, 88
3, 1003, Note_on_c, 1, 51, 0
3, 1008, Note_on_c, 1, 50, 88
3, 1051, Note_on_c, 1, 50, 0
3, 1056, Note_on_c, 1, 51, 88
3, 1099, Note_on_c, 1, 51, 0
3, 1104, Note_on_c, 1, 53, 88
3, 1147, Note_on_c, 1, 53, 0
3, 1152, Note_on_c, 1, 46, 88
3, 1195, Note_on_c, 1, 46, 0
3, 1200, Note_on_c, 1, 58, 88
3, 1243, Note_on_c, 1, 58, 0
3, 1248, Note_on_c, 1, 53, 88
3, 1291, Note_on_c, 1, 53, 0
3, 1296, Note_on_c, 1, 50, 88
3, 1339, Note_on_c, 1, 50, 0
3, 1344, Note_on_c, 1, 46, 88
3, 1387, Note_on_c, 1, 46, 0
3, 1392, Note_on_c, 1, 58, 88
3, 1435, Note_on_c, 1, 58, 0
3, 1440, Note_on_c, 1, 62, 88
3, 1483, Note_on_c, 1, 62, 0
3, 1488, Note_on_c, 1, 58, 88
3, 1531, Note_on_c, 1, 58, 0
3, 1584, Note_on_c, 1, 53, 88
3, 1627, Note_on_c, 1, 53, 0
3, 1632, Note_on_c, 1, 57, 88
3, 1675, Note_on_c, 1, 57, 0
3, 1680, Note_on_c, 1, 53, 88
3, 1723, Note_on_c, 1, 53, 0
3, 1776, Note_on_c, 1, 58, 88
3, 1819, Note_on_c, 1, 58, 0
3, 1824, Note_on_c, 1, 57, 88
3, 1867, Note_on_c, 1, 57, 0
3, 1872, Note_on_c, 1, 58, 88
3, 1915, Note_on_c, 1, 58, 0
3, 1920, Note_on_c, 1, 55, 88
3, 1963, Note_on_c, 1, 55, 0
3, 1968, Note_on_c, 1, 58, 88
3, 2011, Note_on_c, 1, 58, 0
3, 2016, Note_on_c, 1, 50, 88
3, 2059, Note_on_c, 1, 50, 0
3, 2064, Note_on_c, 1, 58, 88
3, 2107, Note_on_c, 1, 58, 0
3, 2112, Note_on_c, 1, 51, 88
3, 2155, Note_on_c, 1, 51, 0
3, 2160, Note_on_c, 1, 51, 88
3, 2203, Note_on_c, 1, 51, 0
3, 2208, Note_on_c, 1, 51, 88
3, 2251, Note_on_c, 1, 51, 0
3, 2256, Note_on_c, 1, 51, 88
3, 2299, Note_on_c, 1, 51, 0
3, 2304, Note_on_c, 1, 51, 88
3, 2347, Note_on_c, 1, 51, 0
3, 2352, Note_on_c, 1, 48, 88
3, 2395, Note_on_c, 1, 48, 0
3, 2400, Note_on_c, 1, 50, 88
3, 2443, Note_on_c, 1, 50, 0
3, 2448, Note_on_c, 1, 51, 88
3, 2491, Note_on_c, 1, 51, 0
3, 2496, Note_on_c, 1, 53, 88
3, 2539, Note_on_c, 1, 53, 0
3, 2544, Note_on_c, 1, 53, 88
3, 2587, Note_on_c, 1, 53, 0
3, 2592, Note_on_c, 1, 53, 88
3, 2635, Note_on_c, 1, 53, 0
3, 2640, Note_on_c, 1, 53, 88
3, 2683, Note_on_c, 1, 53, 0
3, 2688, Note_on_c, 1, 46, 88
3, 2731, Note_on_c, 1, 46, 0
3, 2736, Note_on_c, 1, 58, 88
3, 2779, Note_on_c, 1, 58, 0
3, 2784, Note_on_c, 1, 53, 88
3, 2827, Note_on_c, 1, 53, 0
3, 2832, Note_on_c, 1, 50, 88
3, 2875, Note_on_c, 1, 50, 0
3, 2880, Note_on_c, 1, 46, 88
3, 2923, Note_on_c, 1, 46, 0
3, 2928, Note_on_c, 1, 58, 88
3, 2971, Note_on_c, 1, 58, 0
3, 2976, Note_on_c, 1, 62, 88
3, 3019, Note_on_c, 1, 62, 0
3, 3024, Note_on_c, 1, 58, 88
3, 3067, Note_on_c, 1, 58, 0
3, 3120, Note_on_c, 1, 57, 88
3, 3163, Note_on_c, 1, 57, 0
3, 3168, Note_on_c, 1, 60, 88
3, 3211, Note_on_c, 1, 60, 0
3, 3216, Note_on_c, 1, 57, 88
3, 3259, Note_on_c, 1, 57, 0
3, 3264, Note_on_c, 1, 58, 88
3, 3307, Note_on_c, 1, 58, 0
3, 3312, Note_on_c, 1, 46, 88
3, 3355, Note_on_c, 1, 46, 0
3, 3360, Note_on_c, 1, 50, 88
3, 3403, Note_on_c, 1, 50, 0
3, 3408, Note_on_c, 1, 55, 88
3, 3451, Note_on_c, 1, 55, 0
3, 3456, Note_on_c, 1, 53, 88
3, 3499, Note_on_c, 1, 53, 0
3, 3504, Note_on_c, 1, 53, 88
3, 3547, Note_on_c, 1, 53, 0
3, 3552, Note_on_c, 1, 41, 88
3, 3595, Note_on_c, 1, 41, 0
3, 3696, Note_on_c, 1, 58, 88
3, 3739, Note_on_c, 1, 58, 0
3, 3744, Note_on_c, 1, 62, 88
3, 3787, Note_on_c, 1, 62, 0
3, 3792, Note_on_c, 1, 58, 88
3, 3835, Note_on_c, 1, 58, 0
3, 3888, Note_on_c, 1, 57, 88
3, 3931, Note_on_c, 1, 57, 0
3, 3936, Note_on_c, 1, 60, 88
3, 3979, Note_on_c, 1, 60, 0
3, 3984, Note_on_c, 1, 57, 88
3, 4027, Note_on_c, 1, 57, 0
3, 4032, Note_on_c, 1, 58, 88
3, 4075, Note_on_c, 1, 58, 0
3, 4080, Note_on_c, 1, 46, 88
3, 4123, Note_on_c, 1, 46, 0
3, 4128, Note_on_c, 1, 50, 88
3, 4171, Note_on_c, 1, 50, 0
3, 4176, Note_on_c, 1, 55, 88
3, 4219, Note_on_c, 1, 55, 0
3, 4224, Note_on_c, 1, 53, 88
3, 4886, Note_on_c, 1, 53, 0
3, 4896, Note_on_c, 1, 53, 88
3, 4939, Note_on_c, 1, 53, 0
3, 4944, Note_on_c, 1, 41, 88
3, 4987, Note_on_c, 1, 41, 0
3, 4992, Note_on_c, 1, 45, 88
3, 5035, Note_on_c, 1, 45, 0
3, 5040, Note_on_c, 1, 48, 88
3, 5083, Note_on_c, 1, 48, 0
3, 5088, Note_on_c, 1, 53, 88
3, 5131, Note_on_c, 1, 53, 0
3, 5136, Note_on_c, 1, 53, 88
3, 5179, Note_on_c, 1, 53, 0
3, 5184, Note_on_c, 1, 57, 88
3, 5227, Note_on_c, 1, 57, 0
3, 5232, Note_on_c, 1, 53, 88
3, 5275, Note_on_c, 1, 53, 0
3, 5280, Note_on_c, 1, 55, 88
3, 5323, Note_on_c, 1, 55, 0
3, 5328, Note_on_c, 1, 60, 88
3, 5371, Note_on_c, 1, 60, 0
3, 5376, Note_on_c, 1, 55, 88
3, 5419, Note_on_c, 1, 55, 0
3, 5424, Note_on_c, 1, 52, 88
3, 5467, Note_on_c, 1, 52, 0
3, 5472, Note_on_c, 1, 48, 88
3, 5644, Note_on_c, 1, 48, 0
3, 5712, Note_on_c, 1, 57, 88
3, 5755, Note_on_c, 1, 57, 0
3, 5760, Note_on_c, 1, 53, 88
3, 5803, Note_on_c, 1, 53, 0
3, 5808, Note_on_c, 1, 48, 88
3, 5851, Note_on_c, 1, 48, 0
3, 5856, Note_on_c, 1, 45, 88
3, 5899, Note_on_c, 1, 45, 0
3, 5904, Note_on_c, 1, 57, 88
3, 5947, Note_on_c, 1, 57, 0
3, 5952, Note_on_c, 1, 57, 88
3, 5995, Note_on_c, 1, 57, 0
3, 6000, Note_on_c, 1, 57, 88
3, 6043, Note_on_c, 1, 57, 0
3, 6048, Note_on_c, 1, 58, 88
3, 6091, Note_on_c, 1, 58, 0
3, 6096, Note_on_c, 1, 58, 88
3, 6139, Note_on_c, 1, 58, 0
3, 6144, Note_on_c, 1, 58, 88
3, 6187, Note_on_c, 1, 58, 0
3, 6192, Note_on_c, 1, 58, 88
3, 6235, Note_on_c, 1, 58, 0
3, 6240, Note_on_c, 1, 46, 88
3, 6283, Note_on_c, 1, 46, 0
3, 6288, Note_on_c, 1, 58, 88
3, 6331, Note_on_c, 1, 58, 0
3, 6336, Note_on_c, 1, 58, 88
3, 6379, Note_on_c, 1, 58, 0
3, 6384, Note_on_c, 1, 59, 88
3, 6427, Note_on_c, 1, 59, 0
3, 6432, Note_on_c, 1, 60, 88
3, 6475, Note_on_c, 1, 60, 0
3, 6480, Note_on_c, 1, 48, 88
3, 6523, Note_on_c, 1, 48, 0
3, 6528, Note_on_c, 1, 60, 88
3, 6571, Note_on_c, 1, 60, 0
3, 6576, Note_on_c, 1, 58, 88
3, 6619, Note_on_c, 1, 58, 0
3, 6624, Note_on_c, 1, 57, 88
3, 6667, Note_on_c, 1, 57, 0
3, 6672, Note_on_c, 1, 53, 88
3, 6715, Note_on_c, 1, 53, 0
3, 6720, Note_on_c, 1, 52, 88
3, 6763, Note_on_c, 1, 52, 0
3, 6768, Note_on_c, 1, 48, 88
3, 6811, Note_on_c, 1, 48, 0
3, 6816, Note_on_c, 1, 57, 88
3, 6902, Note_on_c, 1, 57, 0
3, 6960, Note_on_c, 1, 53, 88
3, 7003, Note_on_c, 1, 53, 0
3, 7008, Note_on_c, 1, 55, 88
3, 7094, Note_on_c, 1, 55, 0
3, 7104, Note_on_c, 1, 48, 88
3, 7190, Note_on_c, 1, 48, 0
3, 7200, Note_on_c, 1, 53, 88
3, 7286, Note_on_c, 1, 53, 0
3, 7344, Note_on_c, 1, 53, 88
3, 7387, Note_on_c, 1, 53, 0
3, 7392, Note_on_c, 1, 55, 88
3, 7478, Note_on_c, 1, 55, 0
3, 7488, Note_on_c, 1, 48, 88
3, 7574, Note_on_c, 1, 48, 0
3, 7584, Note_on_c, 1, 53, 88
3, 7670, Note_on_c, 1, 53, 0
3, 7728, Note_on_c, 1, 53, 88
3, 7771, Note_on_c, 1, 53, 0
3, 7776, Note_on_c, 1, 55, 88
3, 7862, Note_on_c, 1, 55, 0
3, 7920, Note_on_c, 1, 52, 88
3, 7963, Note_on_c, 1, 52, 0
3, 7968, Note_on_c, 1, 53, 88
3, 8011, Note_on_c, 1, 53, 0
3, 8016, Note_on_c, 1, 41, 88
3, 8059, Note_on_c, 1, 41, 0
3, 8064, Note_on_c, 1, 45, 88
3, 8107, Note_on_c, 1, 45, 0
3, 8112, Note_on_c, 1, 41, 88
3, 8155, Note_on_c, 1, 41, 0
3, 8208, Note_on_c, 1, 46, 88
3, 8251, Note_on_c, 1, 46, 0
3, 8256, Note_on_c, 1, 50, 88
3, 8299, Note_on_c, 1, 50, 0
3, 8304, Note_on_c, 1, 46, 88
3, 8347, Note_on_c, 1, 46, 0
3, 8352, Note_on_c, 1, 45, 88
3, 8416, Note_on_c, 1, 45, 0
3, 8424, Note_on_c, 1, 46, 88
3, 8445, Note_on_c, 1, 46, 0
3, 8448, Note_on_c, 1, 48, 88
3, 8491, Note_on_c, 1, 48, 0
3, 8496, Note_on_c, 1, 48, 88
3, 8539, Note_on_c, 1, 48, 0
3, 8544, Note_on_c, 1, 45, 88
3, 8587, Note_on_c, 1, 45, 0
3, 8592, Note_on_c, 1, 41, 88
3, 8635, Note_on_c, 1, 41, 0
3, 8640, Note_on_c, 1, 51, 88
3, 8683, Note_on_c, 1, 51, 0
3, 8688, Note_on_c, 1, 48, 88
3, 8731, Note_on_c, 1, 48, 0
3, 8736, Note_on_c, 1, 50, 88
3, 8779, Note_on_c, 1, 50, 0
3, 8784, Note_on_c, 1, 46, 88
3, 8827, Note_on_c, 1, 46, 0
3, 8832, Note_on_c, 1, 62, 88
3, 8875, Note_on_c, 1, 62, 0
3, 8880, Note_on_c, 1, 58, 88
3, 8923, Note_on_c, 1, 58, 0
3, 8928, Note_on_c, 1, 57, 88
3, 8971, Note_on_c, 1, 57, 0
3, 8976, Note_on_c, 1, 52, 88
3, 9019, Note_on_c, 1, 52, 0
3, 9024, Note_on_c, 1, 53, 88
3, 9067, Note_on_c, 1, 53, 0
3, 9072, Note_on_c, 1, 50, 88
3, 9115, Note_on_c, 1, 50, 0
3, 9120, Note_on_c, 1, 45, 88
3, 9163, Note_on_c, 1, 45, 0
3, 9168, Note_on_c, 1, 48, 88
3, 9211, Note_on_c, 1, 48, 0
3, 9216, Note_on_c, 1, 53, 88
3, 9259, Note_on_c, 1, 53, 0
3, 9264, Note_on_c, 1, 57, 88
3, 9307, Note_on_c, 1, 57, 0
3, 9312, Note_on_c, 1, 60, 88
3, 9355, Note_on_c, 1, 60, 0
3, 9360, Note_on_c, 1, 48, 88
3, 9403, Note_on_c, 1, 48, 0
3, 9408, Note_on_c, 1, 48, 88
3, 9451, Note_on_c, 1, 48, 0
3, 9456, Note_on_c, 1, 48, 88
3, 9499, Note_on_c, 1, 48, 0
3, 9504, Note_on_c, 1, 53, 88
3, 9590, Note_on_c, 1, 53, 0
3, 9696, Note_on_c, 1, 41, 88
3, 9739, Note_on_c, 1, 41, 0
3, 9744, Note_on_c, 1, 53, 88
3, 9787, Note_on_c, 1, 53, 0
3, 9792, Note_on_c, 1, 57, 88
3, 9835, Note_on_c, 1, 57, 0
3, 9840, Note_on_c, 1, 53, 88
3, 9883, Note_on_c, 1, 53, 0
3, 9888, Note_on_c, 1, 46, 88
3, 9931, Note_on_c, 1, 46, 0
3, 9936, Note_on_c, 1, 58, 88
3, 9979, Note_on_c, 1, 58, 0
3, 9984, Note_on_c, 1, 53, 88
3, 10027, Note_on_c, 1, 53, 0
3, 10032, Note_on_c, 1, 49, 88
3, 10075, Note_on_c, 1, 49, 0
3, 10080, Note_on_c, 1, 46, 88
3, 10123, Note_on_c, 1, 46, 0
3, 10128, Note_on_c, 1, 58, 88
3, 10171, Note_on_c, 1, 58, 0
3, 10176, Note_on_c, 1, 61, 88
3, 10219, Note_on_c, 1, 61, 0
3, 10224, Note_on_c, 1, 58, 88
3, 10267, Note_on_c, 1, 58, 0
3, 10272, Note_on_c, 1, 52, 88
3, 10315, Note_on_c, 1, 52, 0
3, 10320, Note_on_c, 1, 55, 88
3, 10363, Note_on_c, 1, 55, 0
3, 10368, Note_on_c, 1, 60, 88
3, 10411, Note_on_c, 1, 60, 0
3, 10416, Note_on_c, 1, 48, 88
3, 10459, Note_on_c, 1, 48, 0
3, 10464, Note_on_c, 1, 53, 88
3, 10550, Note_on_c, 1, 53, 0
3, 10560, Note_on_c, 1, 49, 88
3, 10646, Note_on_c, 1, 49, 0
3, 10656, Note_on_c, 1, 48, 88
3, 10742, Note_on_c, 1, 48, 0
3, 10848, Note_on_c, 1, 44, 88
3, 10891, Note_on_c, 1, 44, 0
3, 10896, Note_on_c, 1, 56, 88
3, 10939, Note_on_c, 1, 56, 0
3, 10944, Note_on_c, 1, 60, 88
3, 10987, Note_on_c, 1, 60, 0
3, 10992, Note_on_c, 1, 56, 88
3, 11035, Note_on_c, 1, 56, 0
3, 11088, Note_on_c, 1, 53, 88
3, 11131, Note_on_c, 1, 53, 0
3, 11136, Note_on_c, 1, 58, 88
3, 11179, Note_on_c, 1, 58, 0
3, 11184, Note_on_c, 1, 56, 88
3, 11227, Note_on_c, 1, 56, 0
3, 11232, Note_on_c, 1, 55, 88
3, 11275, Note_on_c, 1, 55, 0
3, 11280, Note_on_c, 1, 51, 88
3, 11323, Note_on_c, 1, 51, 0
3, 11328, Note_on_c, 1, 58, 88
3, 11371, Note_on_c, 1, 58, 0
3, 11376, Note_on_c, 1, 55, 88
3, 11419, Note_on_c, 1, 55, 0
3, 11472, Note_on_c, 1, 51, 88
3, 11515, Note_on_c, 1, 51, 0
3, 11520, Note_on_c, 1, 56, 88
3, 11563, Note_on_c, 1, 56, 0
3, 11568, Note_on_c, 1, 53, 88
3, 11611, Note_on_c, 1, 53, 0
3, 11616, Note_on_c, 1, 50, 88
3, 11659, Note_on_c, 1, 50, 0
3, 11664, Note_on_c, 1, 46, 88
3, 11707, Note_on_c, 1, 46, 0
3, 11712, Note_on_c, 1, 56, 88
3, 11755, Note_on_c, 1, 56, 0
3, 11760, Note_on_c, 1, 53, 88
3, 11803, Note_on_c, 1, 53, 0
3, 11808, Note_on_c, 1, 55, 88
3, 11851, Note_on_c, 1, 55, 0
3, 11856, Note_on_c, 1, 58, 88
3, 11899, Note_on_c, 1, 58, 0
3, 11904, Note_on_c, 1, 55, 88
3, 11947, Note_on_c, 1, 55, 0
3, 11952, Note_on_c, 1, 51, 88
3, 11995, Note_on_c, 1, 51, 0
3, 12000, Note_on_c, 1, 46, 88
3, 12172, Note_on_c, 1, 46, 0
3, 12240, Note_on_c, 1, 51, 88
3, 12283, Note_on_c, 1, 51, 0
3, 12288, Note_on_c, 1, 55, 88
3, 12331, Note_on_c, 1, 55, 0
3, 12336, Note_on_c, 1, 51, 88
3, 12379, Note_on_c, 1, 51, 0
3, 12384, Note_on_c, 1, 50, 88
3, 12427, Note_on_c, 1, 50, 0
3, 12432, Note_on_c, 1, 46, 88
3, 12475, Note_on_c, 1, 46, 0
3, 12480, Note_on_c, 1, 56, 88
3, 12523, Note_on_c, 1, 56, 0
3, 12528, Note_on_c, 1, 53, 88
3, 12571, Note_on_c, 1, 53, 0
3, 12576, Note_on_c, 1, 55, 88
3, 12619, Note_on_c, 1, 55, 0
3, 12624, Note_on_c, 1, 58, 88
3, 12667, Note_on_c, 1, 58, 0
3, 12672, Note_on_c, 1, 55, 88
3, 12715, Note_on_c, 1, 55, 0
3, 12720, Note_on_c, 1, 51, 88
3, 12763, Note_on_c, 1, 51, 0
3, 12768, Note_on_c, 1, 46, 88
3, 12940, Note_on_c, 1, 46, 0
3, 13008, Note_on_c, 1, 51, 88
3, 13051, Note_on_c, 1, 51, 0
3, 13056, Note_on_c, 1, 51, 88
3, 13099, Note_on_c, 1, 51, 0
3, 13104, Note_on_c, 1, 51, 88
3, 13147, Note_on_c, 1, 51, 0
3, 13152, Note_on_c, 1, 51, 88
3, 13324, Note_on_c, 1, 51, 0
3, 13344, Note_on_c, 1, 50, 88
3, 13387, Note_on_c, 1, 50, 0
3, 13392, Note_on_c, 1, 48, 88
3, 13435, Note_on_c, 1, 48, 0
3, 13440, Note_on_c, 1, 54, 88
3, 13483, Note_on_c, 1, 54, 0
3, 13488, Note_on_c, 1, 45, 88
3, 13531, Note_on_c, 1, 45, 0
3, 13536, Note_on_c, 1, 46, 88
3, 13600, Note_on_c, 1, 46, 0
3, 13608, Note_on_c, 1, 48, 88
3, 13629, Note_on_c, 1, 48, 0
3, 13632, Note_on_c, 1, 50, 88
3, 13675, Note_on_c, 1, 50, 0
3, 13680, Note_on_c, 1, 50, 88
3, 13723, Note_on_c, 1, 50, 0
3, 13728, Note_on_c, 1, 43, 88
3, 13771, Note_on_c, 1, 43, 0
3, 13776, Note_on_c, 1, 55, 88
3, 13819, Note_on_c, 1, 55, 0
3, 13824, Note_on_c, 1, 58, 88
3, 13867, Note_on_c, 1, 58, 0
3, 13872, Note_on_c, 1, 55, 88
3, 13915, Note_on_c, 1, 55, 0
3, 13920, Note_on_c, 1, 51, 88
3, 14092, Note_on_c, 1, 51, 0
3, 14160, Note_on_c, 1, 50, 88
3, 14203, Note_on_c, 1, 50, 0
3, 14208, Note_on_c, 1, 54, 88
3, 14251, Note_on_c, 1, 54, 0
3, 14256, Note_on_c, 1, 50, 88
3, 14299, Note_on_c, 1, 50, 0
3, 14304, Note_on_c, 1, 51, 88
3, 14476, Note_on_c, 1, 51, 0
3, 14496, Note_on_c, 1, 50, 88
3, 14625, Note_on_c, 1, 50, 0
3, 14688, Note_on_c, 1, 45, 88
3, 14817, Note_on_c, 1, 45, 0
3, 14880, Note_on_c, 1, 46, 88
3, 14923, Note_on_c, 1, 46, 0
3, 14928, Note_on_c, 1, 58, 88
3, 14971, Note_on_c, 1, 58, 0
3, 14976, Note_on_c, 1, 62, 88
3, 15019, Note_on_c, 1, 62, 0
3, 15024, Note_on_c, 1, 58, 88
3, 15067, Note_on_c, 1, 58, 0
3, 15120, Note_on_c, 1, 53, 88
3, 15163, Note_on_c, 1, 53, 0
3, 15168, Note_on_c, 1, 57, 88
3, 15211, Note_on_c, 1, 57, 0
3, 15216, Note_on_c, 1, 53, 88
3, 15259, Note_on_c, 1, 53, 0
3, 15312, Note_on_c, 1, 58, 88
3, 15355, Note_on_c, 1, 58, 0
3, 15360, Note_on_c, 1, 57, 88
3, 15403, Note_on_c, 1, 57, 0
3, 15408, Note_on_c, 1, 58, 88
3, 15451, Note_on_c, 1, 58, 0
3, 15456, Note_on_c, 1, 55, 88
3, 15499, Note_on_c, 1, 55, 0
3, 15504, Note_on_c, 1, 58, 88
3, 15547, Note_on_c, 1, 58, 0
3, 15552, Note_on_c, 1, 50, 88
3, 15595, Note_on_c, 1, 50, 0
3, 15600, Note_on_c, 1, 58, 88
3, 15643, Note_on_c, 1, 58, 0
3, 15648, Note_on_c, 1, 51, 88
3, 15691, Note_on_c, 1, 51, 0
3, 15696, Note_on_c, 1, 51, 88
3, 15739, Note_on_c, 1, 51, 0
3, 15744, Note_on_c, 1, 51, 88
3, 15787, Note_on_c, 1, 51, 0
3, 15792, Note_on_c, 1, 51, 88
3, 15835, Note_on_c, 1, 51, 0
3, 15840, Note_on_c, 1, 51, 88
3, 15883, Note_on_c, 1, 51, 0
3, 15888, Note_on_c, 1, 50, 88
3, 15931, Note_on_c, 1, 50, 0
3, 15936, Note_on_c, 1, 51, 88
3, 15979, Note_on_c, 1, 51, 0
3, 15984, Note_on_c, 1, 53, 88
3, 16027, Note_on_c, 1, 53, 0
3, 16032, Note_on_c, 1, 46, 88
3, 16075, Note_on_c, 1, 46, 0
3, 16080, Note_on_c, 1, 58, 88
3, 16123, Note_on_c, 1, 58, 0
3, 16128, Note_on_c, 1, 53, 88
3, 16171, Note_on_c, 1, 53, 0
3, 16176, Note_on_c, 1, 50, 88
3, 16219, Note_on_c, 1, 50, 0
3, 16224, Note_on_c, 1, 46, 88
3, 16267, Note_on_c, 1, 46, 0
3, 16272, Note_on_c, 1, 58, 88
3, 16315, Note_on_c, 1, 58, 0
3, 16320, Note_on_c, 1, 62, 88
3, 16363, Note_on_c, 1, 62, 0
3, 16368, Note_on_c, 1, 58, 88
3, 16411, Note_on_c, 1, 58, 0
3, 16464, Note_on_c, 1, 53, 88
3, 16507, Note_on_c, 1, 53, 0
3, 16512, Note_on_c, 1, 57, 88
3, 16555, Note_on_c, 1, 57, 0
3, 16560, Note_on_c, 1, 53, 88
3, 16603, Note_on_c, 1, 53, 0
3, 16656, Note_on_c, 1, 58, 88
3, 16699, Note_on_c, 1, 58, 0
3, 16704, Note_on_c, 1, 57, 88
3, 16747, Note_on_c, 1, 57, 0
3, 16752, Note_on_c, 1, 58, 88
3, 16795, Note_on_c, 1, 58, 0
3, 16800, Note_on_c, 1, 55, 88
3, 16843, Note_on_c, 1, 55, 0
3, 16848, Note_on_c, 1, 58, 88
3, 16891, Note_on_c, 1, 58, 0
3, 16896, Note_on_c, 1, 50, 88
3, 16939, Note_on_c, 1, 50, 0
3, 16944, Note_on_c, 1, 58, 88
3, 16987, Note_on_c, 1, 58, 0
3, 16992, Note_on_c, 1, 51, 88
3, 17035, Note_on_c, 1, 51, 0
3, 17040, Note_on_c, 1, 51, 88
3, 17083, Note_on_c, 1, 51, 0
3, 17088, Note_on_c, 1, 51, 88
3, 17131, Note_on_c, 1, 51, 0
3, 17136, Note_on_c, 1, 51, 88
3, 17179, Note_on_c, 1, 51, 0
3, 17184, Note_on_c, 1, 51, 88
3, 17227, Note_on_c, 1, 51, 0
3, 17232, Note_on_c, 1, 48, 88
3, 17275, Note_on_c, 1, 48, 0
3, 17280, Note_on_c, 1, 50, 88
3, 17323, Note_on_c, 1, 50, 0
3, 17328, Note_on_c, 1, 51, 88
3, 17371, Note_on_c, 1, 51, 0
3, 17376, Note_on_c, 1, 53, 88
3, 17419, Note_on_c, 1, 53, 0
3, 17424, Note_on_c, 1, 53, 88
3, 17467, Note_on_c, 1, 53, 0
3, 17472, Note_on_c, 1, 53, 88
3, 17515, Note_on_c, 1, 53, 0
3, 17520, Note_on_c, 1, 53, 88
3, 17563, Note_on_c, 1, 53, 0
3, 17568, Note_on_c, 1, 46, 88
3, 17611, Note_on_c, 1, 46, 0
3, 17616, Note_on_c, 1, 58, 88
3, 17659, Note_on_c, 1, 58, 0
3, 17664, Note_on_c, 1, 53, 88
3, 17707, Note_on_c, 1, 53, 0
3, 17712, Note_on_c, 1, 50, 88
3, 17755, Note_on_c, 1, 50, 0
3, 17760, Note_on_c, 1, 46, 88
3, 17803, Note_on_c, 1, 46, 0
3, 17808, Note_on_c, 1, 58, 88
3, 17851, Note_on_c, 1, 58, 0
3, 17856, Note_on_c, 1, 62, 88
3, 17899, Note_on_c, 1, 62, 0
3, 17904, Note_on_c, 1, 58, 88
3, 17947, Note_on_c, 1, 58, 0
3, 18000, Note_on_c, 1, 57, 88
3, 18043, Note_on_c, 1, 57, 0
3, 18048, Note_on_c, 1, 60, 88
3, 18091, Note_on_c, 1, 60, 0
3, 18096, Note_on_c, 1, 57, 88
3, 18139, Note_on_c, 1, 57, 0
3, 18144, Note_on_c, 1, 58, 88
3, 18187, Note_on_c, 1, 58, 0
3, 18192, Note_on_c, 1, 46, 88
3, 18235, Note_on_c, 1, 46, 0
3, 18240, Note_on_c, 1, 50, 88
3, 18283, Note_on_c, 1, 50, 0
3, 18288, Note_on_c, 1, 55, 88
3, 18331, Note_on_c, 1, 55, 0
3, 18336, Note_on_c, 1, 53, 88
3, 18379, Note_on_c, 1, 53, 0
3, 18384, Note_on_c, 1, 53, 88
3, 18427, Note_on_c, 1, 53, 0
3, 18432, Note_on_c, 1, 41, 88
3, 18475, Note_on_c, 1, 41, 0
3, 18576, Note_on_c, 1, 58, 88
3, 18619, Note_on_c, 1, 58, 0
3, 18624, Note_on_c, 1, 62, 88
3, 18667, Note_on_c, 1, 62, 0
3, 18672, Note_on_c, 1, 58, 88
3, 18715, Note_on_c, 1, 58, 0
3, 18768, Note_on_c, 1, 57, 88
3, 18811, Note_on_c, 1, 57, 0
3, 18816, Note_on_c, 1, 60, 88
3, 18859, Note_on_c, 1, 60, 0
3, 18864, Note_on_c, 1, 57, 88
3, 18907, Note_on_c, 1, 57, 0
3, 18912, Note_on_c, 1, 58, 88
3, 18955, Note_on_c, 1, 58, 0
3, 18960, Note_on_c, 1, 46, 88
3, 19003, Note_on_c, 1, 46, 0
3, 19008, Note_on_c, 1, 50, 88
3, 19051, Note_on_c, 1, 50, 0
3, 19056, Note_on_c, 1, 55, 88
3, 19099, Note_on_c, 1, 55, 0
3, 19104, Note_on_c, 1, 53, 88
3, 19766, Note_on_c, 1, 53, 0
3, 19776, Note_on_c, 1, 53, 88
3, 19819, Note_on_c, 1, 53, 0
3, 19824, Note_on_c, 1, 41, 88
3, 19867, Note_on_c, 1, 41, 0
3, 19872, Note_on_c, 1, 45, 88
3, 19915, Note_on_c, 1, 45, 0
3, 19920, Note_on_c, 1, 48, 88
3, 19963, Note_on_c, 1, 48, 0
3, 19968, Note_on_c, 1, 53, 88
3, 20011, Note_on_c, 1, 53, 0
3, 20016, Note_on_c, 1, 53, 88
3, 20059, Note_on_c, 1, 53, 0
3, 20064, Note_on_c, 1, 57, 88
3, 20107, Note_on_c, 1, 57, 0
3, 20112, Note_on_c, 1, 53, 88
3, 20155, Note_on_c, 1, 53, 0
3, 20160, Note_on_c, 1, 55, 88
3, 20203, Note_on_c, 1, 55, 0
3, 20208, Note_on_c, 1, 60, 88
3, 20251, Note_on_c, 1, 60, 0
3, 20256, Note_on_c, 1, 55, 88
3, 20299, Note_on_c, 1, 55, 0
3, 20304, Note_on_c, 1, 52, 88
3, 20347, Note_on_c, 1, 52, 0
3, 20352, Note_on_c, 1, 48, 88
3, 20524, Note_on_c, 1, 48, 0
3, 20592, Note_on_c, 1, 53, 88
3, 20635, Note_on_c, 1, 53, 0
3, 20640, Note_on_c, 1, 57, 88
3, 20683, Note_on_c, 1, 57, 0
3, 20688, Note_on_c, 1, 53, 88
3, 20731, Note_on_c, 1, 53, 0
3, 20736, Note_on_c, 1, 50, 88
3, 20779, Note_on_c, 1, 50, 0
3, 20784, Note_on_c, 1, 46, 88
3, 20827, Note_on_c, 1, 46, 0
3, 20832, Note_on_c, 1, 50, 88
3, 20875, Note_on_c, 1, 50, 0
3, 20880, Note_on_c, 1, 46, 88
3, 20923, Note_on_c, 1, 46, 0
3, 20928, Note_on_c, 1, 48, 88
3, 20971, Note_on_c, 1, 48, 0
3, 20976, Note_on_c, 1, 53, 88
3, 21019, Note_on_c, 1, 53, 0
3, 21024, Note_on_c, 1, 48, 88
3, 21067, Note_on_c, 1, 48, 0
3, 21072, Note_on_c, 1, 45, 88
3, 21115, Note_on_c, 1, 45, 0
3, 21120, Note_on_c, 1, 41, 88
3, 21292, Note_on_c, 1, 41, 0
3, 21360, Note_on_c, 1, 62, 88
3, 21403, Note_on_c, 1, 62, 0
3, 21408, Note_on_c, 1, 58, 88
3, 21451, Note_on_c, 1, 58, 0
3, 21456, Note_on_c, 1, 53, 88
3, 21499, Note_on_c, 1, 53, 0
3, 21504, Note_on_c, 1, 50, 88
3, 21547, Note_on_c, 1, 50, 0
3, 21552, Note_on_c, 1, 50, 88
3, 21595, Note_on_c, 1, 50, 0
3, 21600, Note_on_c, 1, 50, 88
3, 21643, Note_on_c, 1, 50, 0
3, 21648, Note_on_c, 1, 50, 88
3, 21691, Note_on_c, 1, 50, 0
3, 21696, Note_on_c, 1, 51, 88
3, 21739, Note_on_c, 1, 51, 0
3, 21744, Note_on_c, 1, 51, 88
3, 21787, Note_on_c, 1, 51, 0
3, 21792, Note_on_c, 1, 51, 88
3, 21835, Note_on_c, 1, 51, 0
3, 21840, Note_on_c, 1, 51, 88
3, 21883, Note_on_c, 1, 51, 0
3, 21888, Note_on_c, 1, 52, 88
3, 21931, Note_on_c, 1, 52, 0
3, 21936, Note_on_c, 1, 52, 88
3, 21979, Note_on_c, 1, 52, 0
3, 21984, Note_on_c, 1, 52, 88
3, 22027, Note_on_c, 1, 52, 0
3, 22032, Note_on_c, 1, 52, 88
3, 22075, Note_on_c, 1, 52, 0
3, 22080, Note_on_c, 1, 53, 88
3, 22123, Note_on_c, 1, 53, 0
3, 22128, Note_on_c, 1, 53, 88
3, 22171, Note_on_c, 1, 53, 0
3, 22176, Note_on_c, 1, 53, 88
3, 22219, Note_on_c, 1, 53, 0
3, 22224, Note_on_c, 1, 53, 88
3, 22267, Note_on_c, 1, 53, 0
3, 22272, Note_on_c, 1, 57, 88
3, 22315, Note_on_c, 1, 57, 0
3, 22320, Note_on_c, 1, 53, 88
3, 22363, Note_on_c, 1, 53, 0
3, 22368, Note_on_c, 1, 48, 88
3, 22411, Note_on_c, 1, 48, 0
3, 22416, Note_on_c, 1, 45, 88
3, 22459, Note_on_c, 1, 45, 0
3, 22464, Note_on_c, 1, 46, 88
3, 22507, Note_on_c, 1, 46, 0
3, 22512, Note_on_c, 1, 58, 88
3, 22555, Note_on_c, 1, 58, 0
3, 22560, Note_on_c, 1, 62, 88
3, 22603, Note_on_c, 1, 62, 0
3, 22608, Note_on_c, 1, 58, 88
3, 22651, Note_on_c, 1, 58, 0
3, 22704, Note_on_c, 1, 53, 88
3, 22747, Note_on_c, 1, 53, 0
3, 22752, Note_on_c, 1, 57, 88
3, 22795, Note_on_c, 1, 57, 0
3, 22800, Note_on_c, 1, 53, 88
3, 22843, Note_on_c, 1, 53, 0
3, 22848, Note_on_c, 1, 50, 88
3, 22891, Note_on_c, 1, 50, 0
3, 22896, Note_on_c, 1, 46, 88
3, 22939, Note_on_c, 1, 46, 0
3, 22944, Note_on_c, 1, 50, 88
3, 22987, Note_on_c, 1, 50, 0
3, 22992, Note_on_c, 1, 46, 88
3, 23035, Note_on_c, 1, 46, 0
3, 23088, Note_on_c, 1, 53, 88
3, 23131, Note_on_c, 1, 53, 0
3, 23136, Note_on_c, 1, 57, 88
3, 23179, Note_on_c, 1, 57, 0
3, 23184, Note_on_c, 1, 53, 88
3, 23227, Note_on_c, 1, 53, 0
3, 23232, Note_on_c, 1, 58, 88
3, 23275, Note_on_c, 1, 58, 0
3, 23280, Note_on_c, 1, 50, 88
3, 23323, Note_on_c, 1, 50, 0
3, 23328, Note_on_c, 1, 50, 88
3, 23371, Note_on_c, 1, 50, 0
3, 23376, Note_on_c, 1, 50, 88
3, 23419, Note_on_c, 1, 50, 0
3, 23424, Note_on_c, 1, 51, 88
3, 23467, Note_on_c, 1, 51, 0
3, 23472, Note_on_c, 1, 51, 88
3, 23515, Note_on_c, 1, 51, 0
3, 23520, Note_on_c, 1, 51, 88
3, 23563, Note_on_c, 1, 51, 0
3, 23568, Note_on_c, 1, 51, 88
3, 23611, Note_on_c, 1, 51, 0
3, 23616, Note_on_c, 1, 50, 88
3, 23680, Note_on_c, 1, 50, 0
3, 23688, Note_on_c, 1, 51, 88
3, 23709, Note_on_c, 1, 51, 0
3, 23712, Note_on_c, 1, 53, 88
3, 23755, Note_on_c, 1, 53, 0
3, 23760, Note_on_c, 1, 53, 88
3, 23803, Note_on_c, 1, 53, 0
3, 23808, Note_on_c, 1, 46, 88
3, 23851, Note_on_c, 1, 46, 0
3, 23856, Note_on_c, 1, 58, 88
3, 23899, Note_on_c, 1, 58, 0
3, 23904, Note_on_c, 1, 62, 88
3, 23947, Note_on_c, 1, 62, 0
3, 23952, Note_on_c, 1, 58, 88
3, 23995, Note_on_c, 1, 58, 0
3, 24000, Note_on_c, 1, 55, 88
3, 24043, Note_on_c, 1, 55, 0
3, 24048, Note_on_c, 1, 51, 88
3, 24091, Note_on_c, 1, 51, 0
3, 24096, Note_on_c, 1, 55, 88
3, 24139, Note_on_c, 1, 55, 0
3, 24144, Note_on_c, 1, 51, 88
3, 24187, Note_on_c, 1, 51, 0
3, 24192, Note_on_c, 1, 50, 88
3, 24235, Note_on_c, 1, 50, 0
3, 24240, Note_on_c, 1, 46, 88
3, 24283, Note_on_c, 1, 46, 0
3, 24288, Note_on_c, 1, 56, 88
3, 24331, Note_on_c, 1, 56, 0
3, 24336, Note_on_c, 1, 53, 88
3, 24379, Note_on_c, 1, 53, 0
3, 24384, Note_on_c, 1, 55, 88
3, 24427, Note_on_c, 1, 55, 0
3, 24432, Note_on_c, 1, 51, 88
3, 24475, Note_on_c, 1, 51, 0
3, 24480, Note_on_c, 1, 55, 88
3, 24523, Note_on_c, 1, 55, 0
3, 24528, Note_on_c, 1, 51, 88
3, 24571, Note_on_c, 1, 51, 0
3, 24576, Note_on_c, 1, 46, 88
3, 24748, Note_on_c, 1, 46, 0
3, 24816, Note_on_c, 1, 51, 88
3, 24859, Note_on_c, 1, 51, 0
3, 24864, Note_on_c, 1, 51, 88
3, 24907, Note_on_c, 1, 51, 0
3, 24912, Note_on_c, 1, 51, 88
3, 24955, Note_on_c, 1, 51, 0
3, 24960, Note_on_c, 1, 51, 88
3, 25003, Note_on_c, 1, 51, 0
3, 25008, Note_on_c, 1, 51, 88
3, 25051, Note_on_c, 1, 51, 0
3, 25056, Note_on_c, 1, 51, 88
3, 25099, Note_on_c, 1, 51, 0
3, 25104, Note_on_c, 1, 51, 88
3, 25147, Note_on_c, 1, 51, 0
3, 25152, Note_on_c, 1, 51, 88
3, 25238, Note_on_c, 1, 51, 0
3, 25296, Note_on_c, 1, 51, 88
3, 25339, Note_on_c, 1, 51, 0
3, 25344, Note_on_c, 1, 53, 88
3, 25771, Note_on_c, 1, 53, 0
3, 25776, Note_on_c, 1, 53, 88
3, 25819, Note_on_c, 1, 53, 0
3, 25872, Note_on_c, 1, 53, 88
3, 25915, Note_on_c, 1, 53, 0
3, 25968, Note_on_c, 1, 58, 88
3, 26011, Note_on_c, 1, 58, 0
3, 26016, Note_on_c, 1, 62, 88
3, 26059, Note_on_c, 1, 62, 0
3, 26064, Note_on_c, 1, 58, 88
3, 26107, Note_on_c, 1, 58, 0
3, 26112, Note_on_c, 1, 53, 88
3, 26155, Note_on_c, 1, 53, 0
3, 26160, Note_on_c, 1, 53, 88
3, 26203, Note_on_c, 1, 53, 0
3, 26208, Note_on_c, 1, 53, 88
3, 26251, Note_on_c, 1, 53, 0
3, 26256, Note_on_c, 1, 53, 88
3, 26299, Note_on_c, 1, 53, 0
3, 26304, Note_on_c, 1, 46, 88
3, 26390, Note_on_c, 1, 46, 0
3, 26390, End_track
4, 0, Start_track
4, 0, End_track
0, 0, End_of_file