0, 0, Header, 1, 12, 240
1, 0, Start_track
1, 0, Time_signature, 2, 2, 24, 8
1, 0, Tempo, 352941
1, 46080, Tempo, 377358
1, 47520, Tempo, 352941
1, 75840, Tempo, 372671
1, 76320, Tempo, 382166
1, 76800, Tempo, 389610
1, 77280, Tempo, 394737
1, 77760, Tempo, 352941
1, 123360, Tempo, 377358
1, 124800, Tempo, 352941
1, 153120, Tempo, 372671
1, 153600, Tempo, 382166
1, 154080, Tempo, 389610
1, 154560, Tempo, 394737
1, 155040, Tempo, 352941
1, 157920, Tempo, 372671
1, 158880, Tempo, 352941
1, 162720, Tempo, 372671
1, 163680, Tempo, 352941
1, 173280, Tempo, 363636
1, 174240, Tempo, 377358
1, 175200, Tempo, 363636
1, 177600, Tempo, 372671
1, 178080, Tempo, 355030
1, 178320, Tempo, 359281
1, 178560, Tempo, 363636
1, 178800, Tempo, 368098
1, 179040, Tempo, 372671
1, 179280, Tempo, 377358
1, 179520, Tempo, 382166
1, 179760, Tempo, 384615
1, 180000, Tempo, 352941
1, 217440, Tempo, 363636
1, 217920, Tempo, 382166
1, 218880, Tempo, 372671
1, 219360, Tempo, 352941
1, 226080, Tempo, 382166
1, 226560, Tempo, 352941
1, 238080, Tempo, 359281
1, 238560, Tempo, 352941
1, 253920, Tempo, 372671
1, 255360, Tempo, 363636
1, 256320, Tempo, 389610
1, 257280, Tempo, 352941
1, 258240, Tempo, 1034483
1, 258720, Tempo, 352941
1, 258720, End_track
2, 0, Start_track
2, 0, Program_c, 0, 68
2, 0, Control_c, 0, 7, 89
2, 0, Control_c, 0, 10, 64
2, 0, Control_c, 0, 91, 80
2, 480, Note_on_c, 0, 74, 105
2, 480, Note_on_c, 0, 82, 105
2, 672, Note_off_c, 0, 82, 64
2, 672, Note_off_c, 0, 74, 64
2, 2400, Note_on_c, 0, 84, 105
2, 2400, Note_on_c, 0, 81, 105
2, 2592, Note_off_c, 0, 81, 64
2, 2592, Note_off_c, 0, 84, 64
2, 8160, Note_on_c, 0, 74, 105
2, 8160, Note_on_c, 0, 82, 105
2, 8352, Note_off_c, 0, 82, 64
2, 8352, Note_off_c, 0, 74, 64
2, 10080, Note_on_c, 0, 84, 105
2, 10080, Note_on_c, 0, 81, 105
2, 10272, Note_off_c, 0, 81, 64
2, 10272, Note_off_c, 0, 84, 64
2, 13920, Note_on_c, 0, 77, 70
2, 13920, Note_on_c, 0, 74, 70
2, 14376, Note_off_c, 0, 74, 64
2, 14376, Note_off_c, 0, 77, 64
2, 14400, Note_on_c, 0, 75, 70
2, 14400, Note_on_c, 0, 79, 70
2, 14640, Note_off_c, 0, 79, 64
2, 14640, Note_off_c, 0, 75, 64
2, 14640, Note_on_c, 0, 75, 70
2, 14640, Note_on_c, 0, 72, 70
2, 14880, Note_off_c, 0, 72, 64
2, 14880, Note_off_c, 0, 75, 64
2, 14880, Note_on_c, 0, 70, 70
2, 14880, Note_on_c, 0, 74, 70
2, 15120, Note_off_c, 0, 74, 64
2, 15120, Note_off_c, 0, 70, 64
2, 15120, Note_on_c, 0, 69, 70
2, 15120, Note_on_c, 0, 72, 70
2, 15312, Note_off_c, 0, 72, 64
2, 15312, Note_off_c, 0, 69, 64
2, 15360, Note_on_c, 0, 82, 105
2, 15360, Note_on_c, 0, 70, 105
2, 15552, Note_off_c, 0, 70, 64
2, 15552, Note_off_c, 0, 82, 64
2, 15600, Note_on_c, 0, 70, 105
2, 15744, Note_off_c, 0, 70, 64
2, 15780, Note_on_c, 0, 70, 105
2, 15828, Note_off_c, 0, 70, 64
2, 15840, Note_on_c, 0, 70, 105
2, 15984, Note_off_c, 0, 70, 64
2, 16020, Note_on_c, 0, 70, 105
2, 16068, Note_off_c, 0, 70, 64
2, 16080, Note_on_c, 0, 70, 105
2, 16224, Note_off_c, 0, 70, 64
2, 16260, Note_on_c, 0, 70, 105
2, 16308, Note_off_c, 0, 70, 64
2, 16320, Note_on_c, 0, 70, 105
2, 16452, Note_off_c, 0, 70, 64
2, 16560, Note_on_c, 0, 74, 105
2, 16692, Note_off_c, 0, 74, 64
2, 16800, Note_on_c, 0, 77, 105
2, 16932, Note_off_c, 0, 77, 64
2, 18240, Note_on_c, 0, 70, 105
2, 18372, Note_off_c, 0, 70, 64
2, 18480, Note_on_c, 0, 74, 105
2, 18612, Note_off_c, 0, 74, 64
2, 18720, Note_on_c, 0, 77, 105
2, 18852, Note_off_c, 0, 77, 64
2, 18960, Note_on_c, 0, 82, 105
2, 19092, Note_off_c, 0, 82, 64
2, 19200, Note_on_c, 0, 77, 105
2, 19332, Note_off_c, 0, 77, 64
2, 19440, Note_on_c, 0, 74, 105
2, 19572, Note_off_c, 0, 74, 64
2, 19680, Note_on_c, 0, 70, 105
2, 19812, Note_off_c, 0, 70, 64
2, 29040, Note_on_c, 0, 70, 70
2, 29040, Note_on_c, 0, 67, 70
2, 29280, Note_off_c, 0, 67, 64
2, 29280, Note_off_c, 0, 70, 64
2, 29280, Note_on_c, 0, 70, 70
2, 29280, Note_on_c, 0, 74, 70
2, 29520, Note_off_c, 0, 74, 64
2, 29520, Note_off_c, 0, 70, 64
2, 29520, Note_on_c, 0, 75, 70
2, 29520, Note_on_c, 0, 78, 70
2, 29760, Note_off_c, 0, 78, 64
2, 29760, Note_off_c, 0, 75, 64
2, 29760, Note_on_c, 0, 74, 70
2, 29760, Note_on_c, 0, 79, 70
2, 29952, Note_off_c, 0, 79, 64
2, 29952, Note_off_c, 0, 74, 64
2, 30960, Note_on_c, 0, 67, 70
2, 30960, Note_on_c, 0, 70, 70
2, 31200, Note_off_c, 0, 70, 64
2, 31200, Note_off_c, 0, 67, 64
2, 31200, Note_on_c, 0, 70, 70
2, 31200, Note_on_c, 0, 74, 70
2, 31440, Note_off_c, 0, 74, 64
2, 31440, Note_off_c, 0, 70, 64
2, 31440, Note_on_c, 0, 75, 70
2, 31440, Note_on_c, 0, 78, 70
2, 31680, Note_off_c, 0, 78, 64
2, 31680, Note_off_c, 0, 75, 64
2, 31680, Note_on_c, 0, 74, 70
2, 31680, Note_on_c, 0, 79, 70
2, 31872, Note_off_c, 0, 79, 64
2, 31872, Note_off_c, 0, 74, 64
2, 33600, Note_on_c, 0, 72, 105
2, 33600, Note_on_c, 0, 64, 105
2, 33744, Note_off_c, 0, 64, 64
2, 33744, Note_off_c, 0, 72, 64
2, 33840, Note_on_c, 0, 72, 105
2, 33840, Note_on_c, 0, 64, 105
2, 33912, Note_off_c, 0, 64, 64
2, 33912, Note_off_c, 0, 72, 64
2, 33960, Note_on_c, 0, 65, 105
2, 33960, Note_on_c, 0, 74, 105
2, 34032, Note_off_c, 0, 74, 64
2, 34032, Note_off_c, 0, 65, 64
2, 34080, Note_on_c, 0, 67, 105
2, 34080, Note_on_c, 0, 76, 105
2, 34224, Note_off_c, 0, 76, 64
2, 34224, Note_off_c, 0, 67, 64
2, 34320, Note_on_c, 0, 76, 105
2, 34320, Note_on_c, 0, 67, 105
2, 34392, Note_off_c, 0, 67, 64
2, 34392, Note_off_c, 0, 76, 64
2, 34440, Note_on_c, 0, 69, 105
2, 34440, Note_on_c, 0, 77, 105
2, 34512, Note_off_c, 0, 77, 64
2, 34512, Note_off_c, 0, 69, 64
2, 34560, Note_on_c, 0, 70, 105
2, 34560, Note_on_c, 0, 79, 105
2, 34704, Note_off_c, 0, 79, 64
2, 34704, Note_off_c, 0, 70, 64
2, 34800, Note_on_c, 0, 70, 105
2, 34800, Note_on_c, 0, 79, 105
2, 34872, Note_off_c, 0, 79, 64
2, 34872, Note_off_c, 0, 70, 64
2, 34920, Note_on_c, 0, 81, 105
2, 34920, Note_on_c, 0, 69, 105
2, 34992, Note_off_c, 0, 69, 64
2, 34992, Note_off_c, 0, 81, 64
2, 35040, Note_on_c, 0, 67, 105
2, 35040, Note_on_c, 0, 82, 105
2, 35184, Note_off_c, 0, 82, 64
2, 35184, Note_off_c, 0, 67, 64
2, 35280, Note_on_c, 0, 82, 105
2, 35280, Note_on_c, 0, 79, 105
2, 35352, Note_off_c, 0, 79, 64
2, 35352, Note_off_c, 0, 82, 64
2, 35400, Note_on_c, 0, 77, 105
2, 35400, Note_on_c, 0, 82, 105
2, 35472, Note_off_c, 0, 82, 64
2, 35472, Note_off_c, 0, 77, 64
2, 35520, Note_on_c, 0, 76, 105
2, 35520, Note_on_c, 0, 82, 105
2, 35736, Note_off_c, 0, 82, 64
2, 35736, Note_off_c, 0, 76, 64
2, 35880, Note_on_c, 0, 78, 105
2, 35880, Note_on_c, 0, 81, 105
2, 35952, Note_off_c, 0, 81, 64
2, 35952, Note_off_c, 0, 78, 64
2, 36000, Note_on_c, 0, 79, 105
2, 36000, Note_on_c, 0, 82, 105
2, 36216, Note_off_c, 0, 82, 64
2, 36216, Note_off_c, 0, 79, 64
2, 36360, Note_on_c, 0, 78, 105
2, 36360, Note_on_c, 0, 81, 105
2, 36432, Note_off_c, 0, 81, 64
2, 36432, Note_off_c, 0, 78, 64
2, 36480, Note_on_c, 0, 79, 105
2, 36480, Note_on_c, 0, 82, 105
2, 36552, Note_off_c, 0, 82, 64
2, 36552, Note_off_c, 0, 79, 64
2, 36600, Note_on_c, 0, 78, 105
2, 36600, Note_on_c, 0, 81, 105
2, 36672, Note_off_c, 0, 81, 64
2, 36672, Note_off_c, 0, 78, 64
2, 36720, Note_on_c, 0, 82, 105
2, 36720, Note_on_c, 0, 79, 105
2, 36792, Note_off_c, 0, 79, 64
2, 36792, Note_off_c, 0, 82, 64
2, 36840, Note_on_c, 0, 78, 105
2, 36840, Note_on_c, 0, 81, 105
2, 36912, Note_off_c, 0, 81, 64
2, 36912, Note_off_c, 0, 78, 64
2, 36960, Note_on_c, 0, 79, 105
2, 36960, Note_on_c, 0, 82, 105
2, 37032, Note_off_c, 0, 82, 64
2, 37032, Note_off_c, 0, 79, 64
2, 37080, Note_on_c, 0, 78, 105
2, 37080, Note_on_c, 0, 81, 105
2, 37152, Note_off_c, 0, 81, 64
2, 37152, Note_off_c, 0, 78, 64
2, 37200, Note_on_c, 0, 82, 105
2, 37200, Note_on_c, 0, 79, 105
2, 37272, Note_off_c, 0, 79, 64
2, 37272, Note_off_c, 0, 82, 64
2, 37320, Note_on_c, 0, 78, 105
2, 37320, Note_on_c, 0, 81, 105
2, 37392, Note_off_c, 0, 81, 64
2, 37392, Note_off_c, 0, 78, 64
2, 37440, Note_on_c, 0, 79, 105
2, 37440, Note_on_c, 0, 82, 105
2, 37632, Note_off_c, 0, 82, 64
2, 37632, Note_off_c, 0, 79, 64
2, 54960, Note_on_c, 0, 72, 105
2, 55152, Note_off_c, 0, 72, 64
2, 55200, Note_on_c, 0, 71, 105
2, 55392, Note_off_c, 0, 71, 64
2, 55440, Note_on_c, 0, 70, 105
2, 55632, Note_off_c, 0, 70, 64
2, 55680, Note_on_c, 0, 69, 105
2, 55872, Note_off_c, 0, 69, 64
2, 55920, Note_on_c, 0, 65, 105
2, 55920, Note_on_c, 0, 77, 105
2, 56112, Note_off_c, 0, 77, 64
2, 56112, Note_off_c, 0, 65, 64
2, 56160, Note_on_c, 0, 76, 105
2, 56160, Note_on_c, 0, 67, 105
2, 56352, Note_off_c, 0, 67, 64
2, 56352, Note_off_c, 0, 76, 64
2, 56400, Note_on_c, 0, 69, 105
2, 56400, Note_on_c, 0, 75, 105
2, 56592, Note_off_c, 0, 75, 64
2, 56592, Note_off_c, 0, 69, 64
2, 56640, Note_on_c, 0, 74, 105
2, 56640, Note_on_c, 0, 70, 105
2, 56832, Note_off_c, 0, 70, 64
2, 56832, Note_off_c, 0, 74, 64
2, 56880, Note_on_c, 0, 72, 105
2, 56880, Note_on_c, 0, 78, 105
2, 57072, Note_off_c, 0, 78, 64
2, 57072, Note_off_c, 0, 72, 64
2, 57120, Note_on_c, 0, 79, 105
2, 57120, Note_on_c, 0, 70, 105
2, 57312, Note_off_c, 0, 70, 64
2, 57312, Note_off_c, 0, 79, 64
2, 57360, Note_on_c, 0, 74, 105
2, 57360, Note_on_c, 0, 82, 105
2, 57552, Note_off_c, 0, 82, 64
2, 57552, Note_off_c, 0, 74, 64
2, 57600, Note_on_c, 0, 72, 105
2, 57600, Note_on_c, 0, 81, 105
2, 57792, Note_off_c, 0, 81, 64
2, 57792, Note_off_c, 0, 72, 64
2, 57840, Note_on_c, 0, 69, 105
2, 57840, Note_on_c, 0, 77, 105
2, 58032, Note_off_c, 0, 77, 64
2, 58032, Note_off_c, 0, 69, 64
2, 58080, Note_on_c, 0, 67, 105
2, 58080, Note_on_c, 0, 86, 105
2, 58272, Note_off_c, 0, 86, 64
2, 58272, Note_off_c, 0, 67, 64
2, 58320, Note_on_c, 0, 70, 105
2, 58320, Note_on_c, 0, 76, 105
2, 58512, Note_off_c, 0, 76, 64
2, 58512, Note_off_c, 0, 70, 64
2, 58560, Note_on_c, 0, 77, 92
2, 58560, Note_on_c, 0, 69, 92
2, 58752, Note_off_c, 0, 69, 64
2, 58752, Note_off_c, 0, 77, 64
2, 58800, Note_on_c, 0, 72, 105
2, 58992, Note_off_c, 0, 72, 64
2, 59040, Note_on_c, 0, 71, 105
2, 59232, Note_off_c, 0, 71, 64
2, 59280, Note_on_c, 0, 70, 105
2, 59472, Note_off_c, 0, 70, 64
2, 59520, Note_on_c, 0, 69, 105
2, 59712, Note_off_c, 0, 69, 64
2, 59760, Note_on_c, 0, 65, 105
2, 59760, Note_on_c, 0, 77, 105
2, 59952, Note_off_c, 0, 77, 64
2, 59952, Note_off_c, 0, 65, 64
2, 60000, Note_on_c, 0, 67, 105
2, 60000, Note_on_c, 0, 76, 105
2, 60192, Note_off_c, 0, 76, 64
2, 60192, Note_off_c, 0, 67, 64
2, 60240, Note_on_c, 0, 69, 105
2, 60240, Note_on_c, 0, 75, 105
2, 60432, Note_off_c, 0, 75, 64
2, 60432, Note_off_c, 0, 69, 64
2, 60480, Note_on_c, 0, 70, 105
2, 60480, Note_on_c, 0, 74, 105
2, 60672, Note_off_c, 0, 74, 64
2, 60672, Note_off_c, 0, 70, 64
2, 60720, Note_on_c, 0, 72, 105
2, 60720, Note_on_c, 0, 78, 105
2, 60912, Note_off_c, 0, 78, 64
2, 60912, Note_off_c, 0, 72, 64
2, 60960, Note_on_c, 0, 79, 105
2, 60960, Note_on_c, 0, 70, 105
2, 61152, Note_off_c, 0, 70, 64
2, 61152, Note_off_c, 0, 79, 64
2, 61200, Note_on_c, 0, 74, 105
2, 61200, Note_on_c, 0, 82, 105
2, 61392, Note_off_c, 0, 82, 64
2, 61392, Note_off_c, 0, 74, 64
2, 61440, Note_on_c, 0, 72, 105
2, 61440, Note_on_c, 0, 81, 105
2, 61632, Note_off_c, 0, 81, 64
2, 61632, Note_off_c, 0, 72, 64
2, 61680, Note_on_c, 0, 69, 105
2, 61680, Note_on_c, 0, 77, 105
2, 61872, Note_off_c, 0, 77, 64
2, 61872, Note_off_c, 0, 69, 64
2, 61920, Note_on_c, 0, 86, 105
2, 61920, Note_on_c, 0, 67, 105
2, 62112, Note_off_c, 0, 67, 64
2, 62112, Note_off_c, 0, 86, 64
2, 62160, Note_on_c, 0, 70, 105
2, 62160, Note_on_c, 0, 76, 105
2, 62352, Note_off_c, 0, 76, 64
2, 62352, Note_off_c, 0, 70, 64
2, 62400, Note_on_c, 0, 77, 105
2, 62400, Note_on_c, 0, 69, 105
2, 62592, Note_off_c, 0, 69, 64
2, 62592, Note_off_c, 0, 77, 64
2, 62640, Note_on_c, 0, 65, 70
2, 62712, Note_off_c, 0, 65, 64
2, 62760, Note_on_c, 0, 67, 70
2, 62760, Note_on_c, 0, 64, 70
2, 62832, Note_off_c, 0, 64, 64
2, 62832, Note_off_c, 0, 67, 64
2, 62880, Note_on_c, 0, 69, 70
2, 62880, Note_on_c, 0, 65, 70
2, 63024, Note_off_c, 0, 65, 64
2, 63024, Note_off_c, 0, 69, 64
2, 63120, Note_on_c, 0, 65, 70
2, 63120, Note_on_c, 0, 69, 70
2, 63192, Note_off_c, 0, 69, 64
2, 63192, Note_off_c, 0, 65, 64
2, 63240, Note_on_c, 0, 67, 70
2, 63240, Note_on_c, 0, 70, 70
2, 63312, Note_off_c, 0, 70, 64
2, 63312, Note_off_c, 0, 67, 64
2, 63360, Note_on_c, 0, 72, 70
2, 63360, Note_on_c, 0, 69, 70
2, 63504, Note_off_c, 0, 69, 64
2, 63504, Note_off_c, 0, 72, 64
2, 63600, Note_on_c, 0, 69, 70
2, 63600, Note_on_c, 0, 72, 70
2, 63672, Note_off_c, 0, 72, 64
2, 63672, Note_off_c, 0, 69, 64
2, 63720, Note_on_c, 0, 69, 70
2, 63720, Note_on_c, 0, 72, 70
2, 63792, Note_off_c, 0, 72, 64
2, 63792, Note_off_c, 0, 69, 64
2, 63840, Note_on_c, 0, 74, 90
2, 63840, Note_on_c, 0, 70, 70
2, 63870, Note_off_c, 0, 70, 64
2, 63870, Note_off_c, 0, 74, 64
2, 63870, Note_on_c, 0, 69, 70
2, 63870, Note_on_c, 0, 72, 90
2, 63900, Note_off_c, 0, 72, 64
2, 63900, Note_off_c, 0, 69, 64
2, 63900, Note_on_c, 0, 70, 70
2, 63900, Note_on_c, 0, 74, 90
2, 63930, Note_off_c, 0, 74, 64
2, 63930, Note_off_c, 0, 70, 64
2, 63930, Note_on_c, 0, 69, 70
2, 63930, Note_on_c, 0, 72, 90
2, 63960, Note_off_c, 0, 72, 64
2, 63960, Note_off_c, 0, 69, 64
2, 63960, Note_on_c, 0, 70, 70
2, 63960, Note_on_c, 0, 74, 90
2, 63990, Note_off_c, 0, 74, 64
2, 63990, Note_off_c, 0, 70, 64
2, 63990, Note_on_c, 0, 69, 70
2, 63990, Note_on_c, 0, 72, 90
2, 64020, Note_off_c, 0, 72, 64
2, 64020, Note_off_c, 0, 69, 64
2, 64020, Note_on_c, 0, 74, 70
2, 64020, Note_on_c, 0, 70, 70
2, 64050, Note_off_c, 0, 70, 64
2, 64050, Note_off_c, 0, 74, 64
2, 64050, Note_on_c, 0, 69, 70
2, 64050, Note_on_c, 0, 72, 70
2, 64068, Note_off_c, 0, 72, 64
2, 64068, Note_off_c, 0, 69, 64
2, 64080, Note_on_c, 0, 74, 70
2, 64080, Note_on_c, 0, 70, 70
2, 64152, Note_off_c, 0, 70, 64
2, 64152, Note_off_c, 0, 74, 64
2, 64200, Note_on_c, 0, 72, 70
2, 64200, Note_on_c, 0, 69, 70
2, 64272, Note_off_c, 0, 69, 64
2, 64272, Note_off_c, 0, 72, 64
2, 64320, Note_on_c, 0, 70, 70
2, 64320, Note_on_c, 0, 67, 70
2, 64464, Note_off_c, 0, 67, 64
2, 64464, Note_off_c, 0, 70, 64
2, 64560, Note_on_c, 0, 67, 70
2, 64560, Note_on_c, 0, 70, 70
2, 64632, Note_off_c, 0, 70, 64
2, 64632, Note_off_c, 0, 67, 64
2, 64680, Note_on_c, 0, 67, 70
2, 64680, Note_on_c, 0, 70, 70
2, 64752, Note_off_c, 0, 70, 64
2, 64752, Note_off_c, 0, 67, 64
2, 64800, Note_on_c, 0, 69, 70
2, 64800, Note_on_c, 0, 72, 90
2, 64830, Note_off_c, 0, 72, 64
2, 64830, Note_off_c, 0, 69, 64
2, 64830, Note_on_c, 0, 67, 70
2, 64830, Note_on_c, 0, 70, 90
2, 64860, Note_off_c, 0, 70, 64
2, 64860, Note_off_c, 0, 67, 64
2, 64860, Note_on_c, 0, 69, 70
2, 64860, Note_on_c, 0, 72, 90
2, 64890, Note_off_c, 0, 72, 64
2, 64890, Note_off_c, 0, 69, 64
2, 64890, Note_on_c, 0, 67, 70
2, 64890, Note_on_c, 0, 70, 90
2, 64920, Note_off_c, 0, 70, 64
2, 64920, Note_off_c, 0, 67, 64
2, 64920, Note_on_c, 0, 69, 70
2, 64920, Note_on_c, 0, 72, 90
2, 64950, Note_off_c, 0, 72, 64
2, 64950, Note_off_c, 0, 69, 64
2, 64950, Note_on_c, 0, 67, 70
2, 64950, Note_on_c, 0, 70, 90
2, 64980, Note_off_c, 0, 70, 64
2, 64980, Note_off_c, 0, 67, 64
2, 64980, Note_on_c, 0, 72, 70
2, 64980, Note_on_c, 0, 69, 70
2, 65010, Note_off_c, 0, 69, 64
2, 65010, Note_off_c, 0, 72, 64
2, 65010, Note_on_c, 0, 67, 70
2, 65010, Note_on_c, 0, 70, 70
2, 65028, Note_off_c, 0, 70, 64
2, 65028, Note_off_c, 0, 67, 64
2, 65040, Note_on_c, 0, 72, 70
2, 65040, Note_on_c, 0, 69, 70
2, 65112, Note_off_c, 0, 69, 64
2, 65112, Note_off_c, 0, 72, 64
2, 65160, Note_on_c, 0, 70, 70
2, 65160, Note_on_c, 0, 67, 70
2, 65232, Note_off_c, 0, 67, 64
2, 65232, Note_off_c, 0, 70, 64
2, 65280, Note_on_c, 0, 65, 70
2, 65280, Note_on_c, 0, 69, 70
2, 65424, Note_off_c, 0, 69, 64
2, 65424, Note_off_c, 0, 65, 64
2, 65520, Note_on_c, 0, 67, 70
2, 65520, Note_on_c, 0, 70, 70
2, 65592, Note_off_c, 0, 70, 64
2, 65592, Note_off_c, 0, 67, 64
2, 65640, Note_on_c, 0, 69, 70
2, 65640, Note_on_c, 0, 72, 70
2, 65712, Note_off_c, 0, 72, 64
2, 65712, Note_off_c, 0, 69, 64
2, 65760, Note_on_c, 0, 69, 70
2, 65760, Note_on_c, 0, 72, 70
2, 65880, Note_off_c, 0, 72, 64
2, 65880, Note_off_c, 0, 69, 64
2, 65880, Note_on_c, 0, 70, 70
2, 65880, Note_on_c, 0, 67, 70
2, 65952, Note_off_c, 0, 67, 64
2, 65952, Note_off_c, 0, 70, 64
2, 66000, Note_on_c, 0, 65, 70
2, 66000, Note_on_c, 0, 69, 70
2, 66072, Note_off_c, 0, 69, 64
2, 66072, Note_off_c, 0, 65, 64
2, 66120, Note_on_c, 0, 67, 70
2, 66120, Note_on_c, 0, 64, 70
2, 66192, Note_off_c, 0, 64, 64
2, 66192, Note_off_c, 0, 67, 64
2, 66240, Note_on_c, 0, 65, 105
2, 66384, Note_off_c, 0, 65, 64
2, 66480, Note_on_c, 0, 77, 105
2, 66552, Note_off_c, 0, 77, 64
2, 66600, Note_on_c, 0, 79, 105
2, 66600, Note_on_c, 0, 76, 105
2, 66672, Note_off_c, 0, 76, 64
2, 66672, Note_off_c, 0, 79, 64
2, 66720, Note_on_c, 0, 77, 105
2, 66720, Note_on_c, 0, 81, 105
2, 66864, Note_off_c, 0, 81, 64
2, 66864, Note_off_c, 0, 77, 64
2, 66960, Note_on_c, 0, 81, 105
2, 66960, Note_on_c, 0, 77, 105
2, 67032, Note_off_c, 0, 77, 64
2, 67032, Note_off_c, 0, 81, 64
2, 67080, Note_on_c, 0, 82, 105
2, 67080, Note_on_c, 0, 79, 105
2, 67152, Note_off_c, 0, 79, 64
2, 67152, Note_off_c, 0, 82, 64
2, 67200, Note_on_c, 0, 84, 105
2, 67200, Note_on_c, 0, 81, 105
2, 67344, Note_off_c, 0, 81, 64
2, 67344, Note_off_c, 0, 84, 64
2, 67440, Note_on_c, 0, 84, 105
2, 67440, Note_on_c, 0, 81, 105
2, 67512, Note_off_c, 0, 81, 64
2, 67512, Note_off_c, 0, 84, 64
2, 67560, Note_on_c, 0, 84, 105
2, 67560, Note_on_c, 0, 81, 105
2, 67632, Note_off_c, 0, 81, 64
2, 67632, Note_off_c, 0, 84, 64
2, 67680, Note_on_c, 0, 82, 105
2, 67680, Note_on_c, 0, 86, 105
2, 67710, Note_off_c, 0, 86, 64
2, 67710, Note_off_c, 0, 82, 64
2, 67710, Note_on_c, 0, 84, 105
2, 67710, Note_on_c, 0, 81, 105
2, 67740, Note_off_c, 0, 81, 64
2, 67740, Note_off_c, 0, 84, 64
2, 67740, Note_on_c, 0, 82, 105
2, 67740, Note_on_c, 0, 86, 105
2, 67770, Note_off_c, 0, 86, 64
2, 67770, Note_off_c, 0, 82, 64
2, 67770, Note_on_c, 0, 81, 105
2, 67770, Note_on_c, 0, 84, 105
2, 67800, Note_off_c, 0, 84, 64
2, 67800, Note_off_c, 0, 81, 64
2, 67800, Note_on_c, 0, 82, 105
2, 67800, Note_on_c, 0, 86, 105
2, 67830, Note_off_c, 0, 86, 64
2, 67830, Note_off_c, 0, 82, 64
2, 67830, Note_on_c, 0, 84, 105
2, 67830, Note_on_c, 0, 81, 105
2, 67860, Note_off_c, 0, 81, 64
2, 67860, Note_off_c, 0, 84, 64
2, 67860, Note_on_c, 0, 82, 105
2, 67860, Note_on_c, 0, 86, 105
2, 67890, Note_off_c, 0, 86, 64
2, 67890, Note_off_c, 0, 82, 64
2, 67890, Note_on_c, 0, 84, 105
2, 67890, Note_on_c, 0, 81, 105
2, 67914, Note_off_c, 0, 81, 64
2, 67914, Note_off_c, 0, 84, 64
2, 67920, Note_on_c, 0, 82, 105
2, 67920, Note_on_c, 0, 86, 105
2, 67992, Note_off_c, 0, 86, 64
2, 67992, Note_off_c, 0, 82, 64
2, 68040, Note_on_c, 0, 81, 105
2, 68040, Note_on_c, 0, 84, 105
2, 68112, Note_off_c, 0, 84, 64
2, 68112, Note_off_c, 0, 81, 64
2, 68160, Note_on_c, 0, 82, 105
2, 68160, Note_on_c, 0, 79, 105
2, 68304, Note_off_c, 0, 79, 64
2, 68304, Note_off_c, 0, 82, 64
2, 68400, Note_on_c, 0, 82, 105
2, 68400, Note_on_c, 0, 79, 105
2, 68472, Note_off_c, 0, 79, 64
2, 68472, Note_off_c, 0, 82, 64
2, 68520, Note_on_c, 0, 82, 105
2, 68520, Note_on_c, 0, 79, 105
2, 68592, Note_off_c, 0, 79, 64
2, 68592, Note_off_c, 0, 82, 64
2, 68640, Note_on_c, 0, 81, 105
2, 68640, Note_on_c, 0, 84, 105
2, 68670, Note_off_c, 0, 84, 64
2, 68670, Note_off_c, 0, 81, 64
2, 68670, Note_on_c, 0, 79, 105
2, 68670, Note_on_c, 0, 82, 105
2, 68700, Note_off_c, 0, 82, 64
2, 68700, Note_off_c, 0, 79, 64
2, 68700, Note_on_c, 0, 84, 105
2, 68700, Note_on_c, 0, 81, 105
2, 68730, Note_off_c, 0, 81, 64
2, 68730, Note_off_c, 0, 84, 64
2, 68730, Note_on_c, 0, 79, 105
2, 68730, Note_on_c, 0, 82, 105
2, 68760, Note_off_c, 0, 82, 64
2, 68760, Note_off_c, 0, 79, 64
2, 68760, Note_on_c, 0, 81, 105
2, 68760, Note_on_c, 0, 84, 105
2, 68790, Note_off_c, 0, 84, 64
2, 68790, Note_off_c, 0, 81, 64
2, 68790, Note_on_c, 0, 79, 105
2, 68790, Note_on_c, 0, 82, 105
2, 68820, Note_off_c, 0, 82, 64
2, 68820, Note_off_c, 0, 79, 64
2, 68820, Note_on_c, 0, 81, 105
2, 68820, Note_on_c, 0, 84, 105
2, 68850, Note_off_c, 0, 84, 64
2, 68850, Note_off_c, 0, 81, 64
2, 68850, Note_on_c, 0, 79, 105
2, 68850, Note_on_c, 0, 82, 105
2, 68874, Note_off_c, 0, 82, 64
2, 68874, Note_off_c, 0, 79, 64
2, 68880, Note_on_c, 0, 81, 105
2, 68880, Note_on_c, 0, 84, 105
2, 68952, Note_off_c, 0, 84, 64
2, 68952, Note_off_c, 0, 81, 64
2, 69000, Note_on_c, 0, 79, 105
2, 69000, Note_on_c, 0, 82, 105
2, 69072, Note_off_c, 0, 82, 64
2, 69072, Note_off_c, 0, 79, 64
2, 69120, Note_on_c, 0, 77, 105
2, 69120, Note_on_c, 0, 81, 105
2, 69264, Note_off_c, 0, 81, 64
2, 69264, Note_off_c, 0, 77, 64
2, 69360, Note_on_c, 0, 82, 105
2, 69360, Note_on_c, 0, 79, 105
2, 69432, Note_off_c, 0, 79, 64
2, 69432, Note_off_c, 0, 82, 64
2, 69480, Note_on_c, 0, 84, 105
2, 69480, Note_on_c, 0, 81, 105
2, 69552, Note_off_c, 0, 81, 64
2, 69552, Note_off_c, 0, 84, 64
2, 69600, Note_on_c, 0, 81, 105
2, 69600, Note_on_c, 0, 84, 105
2, 69720, Note_off_c, 0, 84, 64
2, 69720, Note_off_c, 0, 81, 64
2, 69720, Note_on_c, 0, 82, 105
2, 69720, Note_on_c, 0, 79, 105
2, 69792, Note_off_c, 0, 79, 64
2, 69792, Note_off_c, 0, 82, 64
2, 69840, Note_on_c, 0, 81, 105
2, 69840, Note_on_c, 0, 77, 105
2, 69912, Note_off_c, 0, 77, 64
2, 69912, Note_off_c, 0, 81, 64
2, 69960, Note_on_c, 0, 79, 105
2, 69960, Note_on_c, 0, 76, 105
2, 70032, Note_off_c, 0, 76, 64
2, 70032, Note_off_c, 0, 79, 64
2, 70080, Note_on_c, 0, 77, 105
2, 70272, Note_off_c, 0, 77, 64
2, 70800, Note_on_c, 0, 76, 105
2, 70800, Note_on_c, 0, 82, 105
2, 70932, Note_off_c, 0, 82, 64
2, 70932, Note_off_c, 0, 76, 64
2, 71040, Note_on_c, 0, 77, 105
2, 71040, Note_on_c, 0, 81, 105
2, 71172, Note_off_c, 0, 81, 64
2, 71172, Note_off_c, 0, 77, 64
2, 71760, Note_on_c, 0, 70, 105
2, 71760, Note_on_c, 0, 76, 105
2, 71892, Note_off_c, 0, 76, 64
2, 71892, Note_off_c, 0, 70, 64
2, 72000, Note_on_c, 0, 69, 105
2, 72000, Note_on_c, 0, 77, 105
2, 72132, Note_off_c, 0, 77, 64
2, 72132, Note_off_c, 0, 69, 64
2, 72720, Note_on_c, 0, 76, 105
2, 72720, Note_on_c, 0, 82, 105
2, 72852, Note_off_c, 0, 82, 64
2, 72852, Note_off_c, 0, 76, 64
2, 72960, Note_on_c, 0, 77, 105
2, 72960, Note_on_c, 0, 81, 105
2, 73092, Note_off_c, 0, 81, 64
2, 73092, Note_off_c, 0, 77, 64
2, 73680, Note_on_c, 0, 76, 105
2, 73680, Note_on_c, 0, 70, 105
2, 73812, Note_off_c, 0, 70, 64
2, 73812, Note_off_c, 0, 76, 64
2, 73920, Note_on_c, 0, 77, 105
2, 73920, Note_on_c, 0, 65, 105
2, 74304, Note_off_c, 0, 65, 64
2, 74304, Note_off_c, 0, 77, 64
2, 74400, Note_on_c, 0, 84, 105
2, 74400, Note_on_c, 0, 72, 105
2, 74784, Note_off_c, 0, 72, 64
2, 74784, Note_off_c, 0, 84, 64
2, 74880, Note_on_c, 0, 74, 105
2, 74880, Note_on_c, 0, 62, 105
2, 75264, Note_off_c, 0, 62, 64
2, 75264, Note_off_c, 0, 74, 64
2, 75360, Note_on_c, 0, 81, 105
2, 75360, Note_on_c, 0, 69, 105
2, 75744, Note_off_c, 0, 69, 64
2, 75744, Note_off_c, 0, 81, 64
2, 75840, Note_on_c, 0, 70, 105
2, 75840, Note_on_c, 0, 82, 105
2, 75984, Note_off_c, 0, 82, 64
2, 75984, Note_off_c, 0, 70, 64
2, 76020, Note_on_c, 0, 70, 105
2, 76020, Note_on_c, 0, 82, 105
2, 76068, Note_off_c, 0, 82, 64
2, 76068, Note_off_c, 0, 70, 64
2, 76080, Note_on_c, 0, 69, 105
2, 76080, Note_on_c, 0, 81, 105
2, 76224, Note_off_c, 0, 81, 64
2, 76224, Note_off_c, 0, 69, 64
2, 76260, Note_on_c, 0, 67, 105
2, 76260, Note_on_c, 0, 79, 105
2, 76308, Note_off_c, 0, 79, 64
2, 76308, Note_off_c, 0, 67, 64
2, 76320, Note_on_c, 0, 72, 105
2, 76320, Note_on_c, 0, 84, 105
2, 76476, Note_off_c, 0, 84, 64
2, 76476, Note_off_c, 0, 72, 64
2, 76560, Note_on_c, 0, 70, 105
2, 76560, Note_on_c, 0, 76, 105
2, 76716, Note_off_c, 0, 76, 64
2, 76716, Note_off_c, 0, 70, 64
2, 76800, Note_on_c, 0, 69, 105
2, 76800, Note_on_c, 0, 77, 105
2, 76956, Note_off_c, 0, 77, 64
2, 76956, Note_off_c, 0, 69, 64
2, 77040, Note_on_c, 0, 81, 105
2, 77040, Note_on_c, 0, 72, 105
2, 77196, Note_off_c, 0, 72, 64
2, 77196, Note_off_c, 0, 81, 64
2, 77280, Note_on_c, 0, 69, 105
2, 77280, Note_on_c, 0, 77, 105
2, 77472, Note_off_c, 0, 77, 64
2, 77472, Note_off_c, 0, 69, 64
2, 77760, Note_on_c, 0, 74, 105
2, 77760, Note_on_c, 0, 82, 105
2, 77952, Note_off_c, 0, 82, 64
2, 77952, Note_off_c, 0, 74, 64
2, 79680, Note_on_c, 0, 84, 105
2, 79680, Note_on_c, 0, 81, 105
2, 79872, Note_off_c, 0, 81, 64
2, 79872, Note_off_c, 0, 84, 64
2, 85440, Note_on_c, 0, 74, 105
2, 85440, Note_on_c, 0, 82, 105
2, 85632, Note_off_c, 0, 82, 64
2, 85632, Note_off_c, 0, 74, 64
2, 87360, Note_on_c, 0, 84, 105
2, 87360, Note_on_c, 0, 81, 105
2, 87552, Note_off_c, 0, 81, 64
2, 87552, Note_off_c, 0, 84, 64
2, 91200, Note_on_c, 0, 77, 70
2, 91200, Note_on_c, 0, 74, 70
2, 91656, Note_off_c, 0, 74, 64
2, 91656, Note_off_c, 0, 77, 64
2, 91680, Note_on_c, 0, 75, 70
2, 91680, Note_on_c, 0, 79, 70
2, 91920, Note_off_c, 0, 79, 64
2, 91920, Note_off_c, 0, 75, 64
2, 91920, Note_on_c, 0, 75, 70
2, 91920, Note_on_c, 0, 72, 70
2, 92160, Note_off_c, 0, 72, 64
2, 92160, Note_off_c, 0, 75, 64
2, 92160, Note_on_c, 0, 70, 70
2, 92160, Note_on_c, 0, 74, 70
2, 92400, Note_off_c, 0, 74, 64
2, 92400, Note_off_c, 0, 70, 64
2, 92400, Note_on_c, 0, 69, 70
2, 92400, Note_on_c, 0, 72, 70
2, 92592, Note_off_c, 0, 72, 64
2, 92592, Note_off_c, 0, 69, 64
2, 92640, Note_on_c, 0, 82, 105
2, 92640, Note_on_c, 0, 70, 105
2, 92832, Note_off_c, 0, 70, 64
2, 92832, Note_off_c, 0, 82, 64
2, 92880, Note_on_c, 0, 70, 105
2, 93024, Note_off_c, 0, 70, 64
2, 93060, Note_on_c, 0, 70, 105
2, 93108, Note_off_c, 0, 70, 64
2, 93120, Note_on_c, 0, 70, 105
2, 93264, Note_off_c, 0, 70, 64
2, 93300, Note_on_c, 0, 70, 105
2, 93348, Note_off_c, 0, 70, 64
2, 93360, Note_on_c, 0, 70, 105
2, 93504, Note_off_c, 0, 70, 64
2, 93540, Note_on_c, 0, 70, 105
2, 93588, Note_off_c, 0, 70, 64
2, 93600, Note_on_c, 0, 70, 105
2, 93732, Note_off_c, 0, 70, 64
2, 93840, Note_on_c, 0, 74, 105
2, 93972, Note_off_c, 0, 74, 64
2, 94080, Note_on_c, 0, 77, 105
2, 94212, Note_off_c, 0, 77, 64
2, 95520, Note_on_c, 0, 70, 105
2, 95652, Note_off_c, 0, 70, 64
2, 95760, Note_on_c, 0, 74, 105
2, 95892, Note_off_c, 0, 74, 64
2, 96000, Note_on_c, 0, 77, 105
2, 96132, Note_off_c, 0, 77, 64
2, 96240, Note_on_c, 0, 82, 105
2, 96372, Note_off_c, 0, 82, 64
2, 96480, Note_on_c, 0, 77, 105
2, 96612, Note_off_c, 0, 77, 64
2, 96720, Note_on_c, 0, 74, 105
2, 96852, Note_off_c, 0, 74, 64
2, 96960, Note_on_c, 0, 70, 105
2, 97092, Note_off_c, 0, 70, 64
2, 106320, Note_on_c, 0, 70, 70
2, 106320, Note_on_c, 0, 67, 70
2, 106560, Note_off_c, 0, 67, 64
2, 106560, Note_off_c, 0, 70, 64
2, 106560, Note_on_c, 0, 70, 70
2, 106560, Note_on_c, 0, 74, 70
2, 106800, Note_off_c, 0, 74, 64
2, 106800, Note_off_c, 0, 70, 64
2, 106800, Note_on_c, 0, 75, 70
2, 106800, Note_on_c, 0, 78, 70
2, 107040, Note_off_c, 0, 78, 64
2, 107040, Note_off_c, 0, 75, 64
2, 107040, Note_on_c, 0, 74, 70
2, 107040, Note_on_c, 0, 79, 70
2, 107232, Note_off_c, 0, 79, 64
2, 107232, Note_off_c, 0, 74, 64
2, 108240, Note_on_c, 0, 67, 70
2, 108240, Note_on_c, 0, 70, 70
2, 108480, Note_off_c, 0, 70, 64
2, 108480, Note_off_c, 0, 67, 64
2, 108480, Note_on_c, 0, 70, 70
2, 108480, Note_on_c, 0, 74, 70
2, 108720, Note_off_c, 0, 74, 64
2, 108720, Note_off_c, 0, 70, 64
2, 108720, Note_on_c, 0, 75, 70
2, 108720, Note_on_c, 0, 78, 70
2, 108960, Note_off_c, 0, 78, 64
2, 108960, Note_off_c, 0, 75, 64
2, 108960, Note_on_c, 0, 74, 70
2, 108960, Note_on_c, 0, 79, 70
2, 109152, Note_off_c, 0, 79, 64
2, 109152, Note_off_c, 0, 74, 64
2, 110880, Note_on_c, 0, 72, 105
2, 110880, Note_on_c, 0, 64, 105
2, 111024, Note_off_c, 0, 64, 64
2, 111024, Note_off_c, 0, 72, 64
2, 111120, Note_on_c, 0, 72, 105
2, 111120, Note_on_c, 0, 64, 105
2, 111192, Note_off_c, 0, 64, 64
2, 111192, Note_off_c, 0, 72, 64
2, 111240, Note_on_c, 0, 65, 105
2, 111240, Note_on_c, 0, 74, 105
2, 111312, Note_off_c, 0, 74, 64
2, 111312, Note_off_c, 0, 65, 64
2, 111360, Note_on_c, 0, 67, 105
2, 111360, Note_on_c, 0, 76, 105
2, 111504, Note_off_c, 0, 76, 64
2, 111504, Note_off_c, 0, 67, 64
2, 111600, Note_on_c, 0, 76, 105
2, 111600, Note_on_c, 0, 67, 105
2, 111672, Note_off_c, 0, 67, 64
2, 111672, Note_off_c, 0, 76, 64
2, 111720, Note_on_c, 0, 69, 105
2, 111720, Note_on_c, 0, 77, 105
2, 111792, Note_off_c, 0, 77, 64
2, 111792, Note_off_c, 0, 69, 64
2, 111840, Note_on_c, 0, 70, 105
2, 111840, Note_on_c, 0, 79, 105
2, 111984, Note_off_c, 0, 79, 64
2, 111984, Note_off_c, 0, 70, 64
2, 112080, Note_on_c, 0, 70, 105
2, 112080, Note_on_c, 0, 79, 105
2, 112152, Note_off_c, 0, 79, 64
2, 112152, Note_off_c, 0, 70, 64
2, 112200, Note_on_c, 0, 81, 105
2, 112200, Note_on_c, 0, 69, 105
2, 112272, Note_off_c, 0, 69, 64
2, 112272, Note_off_c, 0, 81, 64
2, 112320, Note_on_c, 0, 67, 105
2, 112320, Note_on_c, 0, 82, 105
2, 112464, Note_off_c, 0, 82, 64
2, 112464, Note_off_c, 0, 67, 64
2, 112560, Note_on_c, 0, 82, 105
2, 112560, Note_on_c, 0, 79, 105
2, 112632, Note_off_c, 0, 79, 64
2, 112632, Note_off_c, 0, 82, 64
2, 112680, Note_on_c, 0, 77, 105
2, 112680, Note_on_c, 0, 82, 105
2, 112752, Note_off_c, 0, 82, 64
2, 112752, Note_off_c, 0, 77, 64
2, 112800, Note_on_c, 0, 76, 105
2, 112800, Note_on_c, 0, 82, 105
2, 113016, Note_off_c, 0, 82, 64
2, 113016, Note_off_c, 0, 76, 64
2, 113160, Note_on_c, 0, 78, 105
2, 113160, Note_on_c, 0, 81, 105
2, 113232, Note_off_c, 0, 81, 64
2, 113232, Note_off_c, 0, 78, 64
2, 113280, Note_on_c, 0, 79, 105
2, 113280, Note_on_c, 0, 82, 105
2, 113496, Note_off_c, 0, 82, 64
2, 113496, Note_off_c, 0, 79, 64
2, 113640, Note_on_c, 0, 78, 105
2, 113640, Note_on_c, 0, 81, 105
2, 113712, Note_off_c, 0, 81, 64
2, 113712, Note_off_c, 0, 78, 64
2, 113760, Note_on_c, 0, 79, 105
2, 113760, Note_on_c, 0, 82, 105
2, 113832, Note_off_c, 0, 82, 64
2, 113832, Note_off_c, 0, 79, 64
2, 113880, Note_on_c, 0, 78, 105
2, 113880, Note_on_c, 0, 81, 105
2, 113952, Note_off_c, 0, 81, 64
2, 113952, Note_off_c, 0, 78, 64
2, 114000, Note_on_c, 0, 82, 105
2, 114000, Note_on_c, 0, 79, 105
2, 114072, Note_off_c, 0, 79, 64
2, 114072, Note_off_c, 0, 82, 64
2, 114120, Note_on_c, 0, 78, 105
2, 114120, Note_on_c, 0, 81, 105
2, 114192, Note_off_c, 0, 81, 64
2, 114192, Note_off_c, 0, 78, 64
2, 114240, Note_on_c, 0, 79, 105
2, 114240, Note_on_c, 0, 82, 105
2, 114312, Note_off_c, 0, 82, 64
2, 114312, Note_off_c, 0, 79, 64
2, 114360, Note_on_c, 0, 78, 105
2, 114360, Note_on_c, 0, 81, 105
2, 114432, Note_off_c, 0, 81, 64
2, 114432, Note_off_c, 0, 78, 64
2, 114480, Note_on_c, 0, 82, 105
2, 114480, Note_on_c, 0, 79, 105
2, 114552, Note_off_c, 0, 79, 64
2, 114552, Note_off_c, 0, 82, 64
2, 114600, Note_on_c, 0, 78, 105
2, 114600, Note_on_c, 0, 81, 105
2, 114672, Note_off_c, 0, 81, 64
2, 114672, Note_off_c, 0, 78, 64
2, 114720, Note_on_c, 0, 79, 105
2, 114720, Note_on_c, 0, 82, 105
2, 114912, Note_off_c, 0, 82, 64
2, 114912, Note_off_c, 0, 79, 64
2, 132240, Note_on_c, 0, 72, 105
2, 132432, Note_off_c, 0, 72, 64
2, 132480, Note_on_c, 0, 71, 105
2, 132672, Note_off_c, 0, 71, 64
2, 132720, Note_on_c, 0, 70, 105
2, 132912, Note_off_c, 0, 70, 64
2, 132960, Note_on_c, 0, 69, 105
2, 133152, Note_off_c, 0, 69, 64
2, 133200, Note_on_c, 0, 65, 105
2, 133200, Note_on_c, 0, 77, 105
2, 133392, Note_off_c, 0, 77, 64
2, 133392, Note_off_c, 0, 65, 64
2, 133440, Note_on_c, 0, 76, 105
2, 133440, Note_on_c, 0, 67, 105
2, 133632, Note_off_c, 0, 67, 64
2, 133632, Note_off_c, 0, 76, 64
2, 133680, Note_on_c, 0, 69, 105
2, 133680, Note_on_c, 0, 75, 105
2, 133872, Note_off_c, 0, 75, 64
2, 133872, Note_off_c, 0, 69, 64
2, 133920, Note_on_c, 0, 74, 105
2, 133920, Note_on_c, 0, 70, 105
2, 134112, Note_off_c, 0, 70, 64
2, 134112, Note_off_c, 0, 74, 64
2, 134160, Note_on_c, 0, 72, 105
2, 134160, Note_on_c, 0, 78, 105
2, 134352, Note_off_c, 0, 78, 64
2, 134352, Note_off_c, 0, 72, 64
2, 134400, Note_on_c, 0, 79, 105
2, 134400, Note_on_c, 0, 70, 105
2, 134592, Note_off_c, 0, 70, 64
2, 134592, Note_off_c, 0, 79, 64
2, 134640, Note_on_c, 0, 74, 105
2, 134640, Note_on_c, 0, 82, 105
2, 134832, Note_off_c, 0, 82, 64
2, 134832, Note_off_c, 0, 74, 64
2, 134880, Note_on_c, 0, 72, 105
2, 134880, Note_on_c, 0, 81, 105
2, 135072, Note_off_c, 0, 81, 64
2, 135072, Note_off_c, 0, 72, 64
2, 135120, Note_on_c, 0, 69, 105
2, 135120, Note_on_c, 0, 77, 105
2, 135312, Note_off_c, 0, 77, 64
2, 135312, Note_off_c, 0, 69, 64
2, 135360, Note_on_c, 0, 67, 105
2, 135360, Note_on_c, 0, 86, 105
2, 135552, Note_off_c, 0, 86, 64
2, 135552, Note_off_c, 0, 67, 64
2, 135600, Note_on_c, 0, 70, 105
2, 135600, Note_on_c, 0, 76, 105
2, 135792, Note_off_c, 0, 76, 64
2, 135792, Note_off_c, 0, 70, 64
2, 135840, Note_on_c, 0, 77, 92
2, 135840, Note_on_c, 0, 69, 92
2, 136032, Note_off_c, 0, 69, 64
2, 136032, Note_off_c, 0, 77, 64
2, 136080, Note_on_c, 0, 72, 105
2, 136272, Note_off_c, 0, 72, 64
2, 136320, Note_on_c, 0, 71, 105
2, 136512, Note_off_c, 0, 71, 64
2, 136560, Note_on_c, 0, 70, 105
2, 136752, Note_off_c, 0, 70, 64
2, 136800, Note_on_c, 0, 69, 105
2, 136992, Note_off_c, 0, 69, 64
2, 137040, Note_on_c, 0, 65, 105
2, 137040, Note_on_c, 0, 77, 105
2, 137232, Note_off_c, 0, 77, 64
2, 137232, Note_off_c, 0, 65, 64
2, 137280, Note_on_c, 0, 67, 105
2, 137280, Note_on_c, 0, 76, 105
2, 137472, Note_off_c, 0, 76, 64
2, 137472, Note_off_c, 0, 67, 64
2, 137520, Note_on_c, 0, 69, 105
2, 137520, Note_on_c, 0, 75, 105
2, 137712, Note_off_c, 0, 75, 64
2, 137712, Note_off_c, 0, 69, 64
2, 137760, Note_on_c, 0, 70, 105
2, 137760, Note_on_c, 0, 74, 105
2, 137952, Note_off_c, 0, 74, 64
2, 137952, Note_off_c, 0, 70, 64
2, 138000, Note_on_c, 0, 72, 105
2, 138000, Note_on_c, 0, 78, 105
2, 138192, Note_off_c, 0, 78, 64
2, 138192, Note_off_c, 0, 72, 64
2, 138240, Note_on_c, 0, 79, 105
2, 138240, Note_on_c, 0, 70, 105
2, 138432, Note_off_c, 0, 70, 64
2, 138432, Note_off_c, 0, 79, 64
2, 138480, Note_on_c, 0, 74, 105
2, 138480, Note_on_c, 0, 82, 105
2, 138672, Note_off_c, 0, 82, 64
2, 138672, Note_off_c, 0, 74, 64
2, 138720, Note_on_c, 0, 72, 105
2, 138720, Note_on_c, 0, 81, 105
2, 138912, Note_off_c, 0, 81, 64
2, 138912, Note_off_c, 0, 72, 64
2, 138960, Note_on_c, 0, 69, 105
2, 138960, Note_on_c, 0, 77, 105
2, 139152, Note_off_c, 0, 77, 64
2, 139152, Note_off_c, 0, 69, 64
2, 139200, Note_on_c, 0, 86, 105
2, 139200, Note_on_c, 0, 67, 105
2, 139392, Note_off_c, 0, 67, 64
2, 139392, Note_off_c, 0, 86, 64
2, 139440, Note_on_c, 0, 70, 105
2, 139440, Note_on_c, 0, 76, 105
2, 139632, Note_off_c, 0, 76, 64
2, 139632, Note_off_c, 0, 70, 64
2, 139680, Note_on_c, 0, 77, 105
2, 139680, Note_on_c, 0, 69, 105
2, 139872, Note_off_c, 0, 69, 64
2, 139872, Note_off_c, 0, 77, 64
2, 139920, Note_on_c, 0, 65, 70
2, 139992, Note_off_c, 0, 65, 64
2, 140040, Note_on_c, 0, 67, 70
2, 140040, Note_on_c, 0, 64, 70
2, 140112, Note_off_c, 0, 64, 64
2, 140112, Note_off_c, 0, 67, 64
2, 140160, Note_on_c, 0, 69, 70
2, 140160, Note_on_c, 0, 65, 70
2, 140304, Note_off_c, 0, 65, 64
2, 140304, Note_off_c, 0, 69, 64
2, 140400, Note_on_c, 0, 65, 70
2, 140400, Note_on_c, 0, 69, 70
2, 140472, Note_off_c, 0, 69, 64
2, 140472, Note_off_c, 0, 65, 64
2, 140520, Note_on_c, 0, 67, 70
2, 140520, Note_on_c, 0, 70, 70
2, 140592, Note_off_c, 0, 70, 64
2, 140592, Note_off_c, 0, 67, 64
2, 140640, Note_on_c, 0, 72, 70
2, 140640, Note_on_c, 0, 69, 70
2, 140784, Note_off_c, 0, 69, 64
2, 140784, Note_off_c, 0, 72, 64
2, 140880, Note_on_c, 0, 69, 70
2, 140880, Note_on_c, 0, 72, 70
2, 140952, Note_off_c, 0, 72, 64
2, 140952, Note_off_c, 0, 69, 64
2, 141000, Note_on_c, 0, 69, 70
2, 141000, Note_on_c, 0, 72, 70
2, 141072, Note_off_c, 0, 72, 64
2, 141072, Note_off_c, 0, 69, 64
2, 141120, Note_on_c, 0, 74, 90
2, 141120, Note_on_c, 0, 70, 70
2, 141150, Note_off_c, 0, 70, 64
2, 141150, Note_off_c, 0, 74, 64
2, 141150, Note_on_c, 0, 69, 70
2, 141150, Note_on_c, 0, 72, 90
2, 141180, Note_off_c, 0, 72, 64
2, 141180, Note_off_c, 0, 69, 64
2, 141180, Note_on_c, 0, 70, 70
2, 141180, Note_on_c, 0, 74, 90
2, 141210, Note_off_c, 0, 74, 64
2, 141210, Note_off_c, 0, 70, 64
2, 141210, Note_on_c, 0, 69, 70
2, 141210, Note_on_c, 0, 72, 90
2, 141240, Note_off_c, 0, 72, 64
2, 141240, Note_off_c, 0, 69, 64
2, 141240, Note_on_c, 0, 70, 70
2, 141240, Note_on_c, 0, 74, 90
2, 141270, Note_off_c, 0, 74, 64
2, 141270, Note_off_c, 0, 70, 64
2, 141270, Note_on_c, 0, 69, 70
2, 141270, Note_on_c, 0, 72, 90
2, 141300, Note_off_c, 0, 72, 64
2, 141300, Note_off_c, 0, 69, 64
2, 141300, Note_on_c, 0, 74, 70
2, 141300, Note_on_c, 0, 70, 70
2, 141330, Note_off_c, 0, 70, 64
2, 141330, Note_off_c, 0, 74, 64
2, 141330, Note_on_c, 0, 69, 70
2, 141330, Note_on_c, 0, 72, 70
2, 141348, Note_off_c, 0, 72, 64
2, 141348, Note_off_c, 0, 69, 64
2, 141360, Note_on_c, 0, 74, 70
2, 141360, Note_on_c, 0, 70, 70
2, 141432, Note_off_c, 0, 70, 64
2, 141432, Note_off_c, 0, 74, 64
2, 141480, Note_on_c, 0, 72, 70
2, 141480, Note_on_c, 0, 69, 70
2, 141552, Note_off_c, 0, 69, 64
2, 141552, Note_off_c, 0, 72, 64
2, 141600, Note_on_c, 0, 70, 70
2, 141600, Note_on_c, 0, 67, 70
2, 141744, Note_off_c, 0, 67, 64
2, 141744, Note_off_c, 0, 70, 64
2, 141840, Note_on_c, 0, 67, 70
2, 141840, Note_on_c, 0, 70, 70
2, 141912, Note_off_c, 0, 70, 64
2, 141912, Note_off_c, 0, 67, 64
2, 141960, Note_on_c, 0, 67, 70
2, 141960, Note_on_c, 0, 70, 70
2, 142032, Note_off_c, 0, 70, 64
2, 142032, Note_off_c, 0, 67, 64
2, 142080, Note_on_c, 0, 69, 70
2, 142080, Note_on_c, 0, 72, 90
2, 142110, Note_off_c, 0, 72, 64
2, 142110, Note_off_c, 0, 69, 64
2, 142110, Note_on_c, 0, 67, 70
2, 142110, Note_on_c, 0, 70, 90
2, 142140, Note_off_c, 0, 70, 64
2, 142140, Note_off_c, 0, 67, 64
2, 142140, Note_on_c, 0, 69, 70
2, 142140, Note_on_c, 0, 72, 90
2, 142170, Note_off_c, 0, 72, 64
2, 142170, Note_off_c, 0, 69, 64
2, 142170, Note_on_c, 0, 67, 70
2, 142170, Note_on_c, 0, 70, 90
2, 142200, Note_off_c, 0, 70, 64
2, 142200, Note_off_c, 0, 67, 64
2, 142200, Note_on_c, 0, 69, 70
2, 142200, Note_on_c, 0, 72, 90
2, 142230, Note_off_c, 0, 72, 64
2, 142230, Note_off_c, 0, 69, 64
2, 142230, Note_on_c, 0, 67, 70
2, 142230, Note_on_c, 0, 70, 90
2, 142260, Note_off_c, 0, 70, 64
2, 142260, Note_off_c, 0, 67, 64
2, 142260, Note_on_c, 0, 72, 70
2, 142260, Note_on_c, 0, 69, 70
2, 142290, Note_off_c, 0, 69, 64
2, 142290, Note_off_c, 0, 72, 64
2, 142290, Note_on_c, 0, 67, 70
2, 142290, Note_on_c, 0, 70, 70
2, 142308, Note_off_c, 0, 70, 64
2, 142308, Note_off_c, 0, 67, 64
2, 142320, Note_on_c, 0, 72, 70
2, 142320, Note_on_c, 0, 69, 70
2, 142392, Note_off_c, 0, 69, 64
2, 142392, Note_off_c, 0, 72, 64
2, 142440, Note_on_c, 0, 70, 70
2, 142440, Note_on_c, 0, 67, 70
2, 142512, Note_off_c, 0, 67, 64
2, 142512, Note_off_c, 0, 70, 64
2, 142560, Note_on_c, 0, 65, 70
2, 142560, Note_on_c, 0, 69, 70
2, 142704, Note_off_c, 0, 69, 64
2, 142704, Note_off_c, 0, 65, 64
2, 142800, Note_on_c, 0, 67, 70
2, 142800, Note_on_c, 0, 70, 70
2, 142872, Note_off_c, 0, 70, 64
2, 142872, Note_off_c, 0, 67, 64
2, 142920, Note_on_c, 0, 69, 70
2, 142920, Note_on_c, 0, 72, 70
2, 142992, Note_off_c, 0, 72, 64
2, 142992, Note_off_c, 0, 69, 64
2, 143040, Note_on_c, 0, 69, 70
2, 143040, Note_on_c, 0, 72, 70
2, 143160, Note_off_c, 0, 72, 64
2, 143160, Note_off_c, 0, 69, 64
2, 143160, Note_on_c, 0, 70, 70
2, 143160, Note_on_c, 0, 67, 70
2, 143232, Note_off_c, 0, 67, 64
2, 143232, Note_off_c, 0, 70, 64
2, 143280, Note_on_c, 0, 65, 70
2, 143280, Note_on_c, 0, 69, 70
2, 143352, Note_off_c, 0, 69, 64
2, 143352, Note_off_c, 0, 65, 64
2, 143400, Note_on_c, 0, 67, 70
2, 143400, Note_on_c, 0, 64, 70
2, 143472, Note_off_c, 0, 64, 64
2, 143472, Note_off_c, 0, 67, 64
2, 143520, Note_on_c, 0, 65, 105
2, 143664, Note_off_c, 0, 65, 64
2, 143760, Note_on_c, 0, 77, 105
2, 143832, Note_off_c, 0, 77, 64
2, 143880, Note_on_c, 0, 79, 105
2, 143880, Note_on_c, 0, 76, 105
2, 143952, Note_off_c, 0, 76, 64
2, 143952, Note_off_c, 0, 79, 64
2, 144000, Note_on_c, 0, 77, 105
2, 144000, Note_on_c, 0, 81, 105
2, 144144, Note_off_c, 0, 81, 64
2, 144144, Note_off_c, 0, 77, 64
2, 144240, Note_on_c, 0, 81, 105
2, 144240, Note_on_c, 0, 77, 105
2, 144312, Note_off_c, 0, 77, 64
2, 144312, Note_off_c, 0, 81, 64
2, 144360, Note_on_c, 0, 82, 105
2, 144360, Note_on_c, 0, 79, 105
2, 144432, Note_off_c, 0, 79, 64
2, 144432, Note_off_c, 0, 82, 64
2, 144480, Note_on_c, 0, 84, 105
2, 144480, Note_on_c, 0, 81, 105
2, 144624, Note_off_c, 0, 81, 64
2, 144624, Note_off_c, 0, 84, 64
2, 144720, Note_on_c, 0, 84, 105
2, 144720, Note_on_c, 0, 81, 105
2, 144792, Note_off_c, 0, 81, 64
2, 144792, Note_off_c, 0, 84, 64
2, 144840, Note_on_c, 0, 84, 105
2, 144840, Note_on_c, 0, 81, 105
2, 144912, Note_off_c, 0, 81, 64
2, 144912, Note_off_c, 0, 84, 64
2, 144960, Note_on_c, 0, 82, 105
2, 144960, Note_on_c, 0, 86, 105
2, 144990, Note_off_c, 0, 86, 64
2, 144990, Note_off_c, 0, 82, 64
2, 144990, Note_on_c, 0, 84, 105
2, 144990, Note_on_c, 0, 81, 105
2, 145020, Note_off_c, 0, 81, 64
2, 145020, Note_off_c, 0, 84, 64
2, 145020, Note_on_c, 0, 82, 105
2, 145020, Note_on_c, 0, 86, 105
2, 145050, Note_off_c, 0, 86, 64
2, 145050, Note_off_c, 0, 82, 64
2, 145050, Note_on_c, 0, 81, 105
2, 145050, Note_on_c, 0, 84, 105
2, 145080, Note_off_c, 0, 84, 64
2, 145080, Note_off_c, 0, 81, 64
2, 145080, Note_on_c, 0, 82, 105
2, 145080, Note_on_c, 0, 86, 105
2, 145110, Note_off_c, 0, 86, 64
2, 145110, Note_off_c, 0, 82, 64
2, 145110, Note_on_c, 0, 84, 105
2, 145110, Note_on_c, 0, 81, 105
2, 145140, Note_off_c, 0, 81, 64
2, 145140, Note_off_c, 0, 84, 64
2, 145140, Note_on_c, 0, 82, 105
2, 145140, Note_on_c, 0, 86, 105
2, 145170, Note_off_c, 0, 86, 64
2, 145170, Note_off_c, 0, 82, 64
2, 145170, Note_on_c, 0, 84, 105
2, 145170, Note_on_c, 0, 81, 105
2, 145194, Note_off_c, 0, 81, 64
2, 145194, Note_off_c, 0, 84, 64
2, 145200, Note_on_c, 0, 82, 105
2, 145200, Note_on_c, 0, 86, 105
2, 145272, Note_off_c, 0, 86, 64
2, 145272, Note_off_c, 0, 82, 64
2, 145320, Note_on_c, 0, 81, 105
2, 145320, Note_on_c, 0, 84, 105
2, 145392, Note_off_c, 0, 84, 64
2, 145392, Note_off_c, 0, 81, 64
2, 145440, Note_on_c, 0, 82, 105
2, 145440, Note_on_c, 0, 79, 105
2, 145584, Note_off_c, 0, 79, 64
2, 145584, Note_off_c, 0, 82, 64
2, 145680, Note_on_c, 0, 82, 105
2, 145680, Note_on_c, 0, 79, 105
2, 145752, Note_off_c, 0, 79, 64
2, 145752, Note_off_c, 0, 82, 64
2, 145800, Note_on_c, 0, 82, 105
2, 145800, Note_on_c, 0, 79, 105
2, 145872, Note_off_c, 0, 79, 64
2, 145872, Note_off_c, 0, 82, 64
2, 145920, Note_on_c, 0, 81, 105
2, 145920, Note_on_c, 0, 84, 105
2, 145950, Note_off_c, 0, 84, 64
2, 145950, Note_off_c, 0, 81, 64
2, 145950, Note_on_c, 0, 79, 105
2, 145950, Note_on_c, 0, 82, 105
2, 145980, Note_off_c, 0, 82, 64
2, 145980, Note_off_c, 0, 79, 64
2, 145980, Note_on_c, 0, 84, 105
2, 145980, Note_on_c, 0, 81, 105
2, 146010, Note_off_c, 0, 81, 64
2, 146010, Note_off_c, 0, 84, 64
2, 146010, Note_on_c, 0, 79, 105
2, 146010, Note_on_c, 0, 82, 105
2, 146040, Note_off_c, 0, 82, 64
2, 146040, Note_off_c, 0, 79, 64
2, 146040, Note_on_c, 0, 81, 105
2, 146040, Note_on_c, 0, 84, 105
2, 146070, Note_off_c, 0, 84, 64
2, 146070, Note_off_c, 0, 81, 64
2, 146070, Note_on_c, 0, 79, 105
2, 146070, Note_on_c, 0, 82, 105
2, 146100, Note_off_c, 0, 82, 64
2, 146100, Note_off_c, 0, 79, 64
2, 146100, Note_on_c, 0, 81, 105
2, 146100, Note_on_c, 0, 84, 105
2, 146130, Note_off_c, 0, 84, 64
2, 146130, Note_off_c, 0, 81, 64
2, 146130, Note_on_c, 0, 79, 105
2, 146130, Note_on_c, 0, 82, 105
2, 146154, Note_off_c, 0, 82, 64
2, 146154, Note_off_c, 0, 79, 64
2, 146160, Note_on_c, 0, 81, 105
2, 146160, Note_on_c, 0, 84, 105
2, 146232, Note_off_c, 0, 84, 64
2, 146232, Note_off_c, 0, 81, 64
2, 146280, Note_on_c, 0, 79, 105
2, 146280, Note_on_c, 0, 82, 105
2, 146352, Note_off_c, 0, 82, 64
2, 146352, Note_off_c, 0, 79, 64
2, 146400, Note_on_c, 0, 77, 105
2, 146400, Note_on_c, 0, 81, 105
2, 146544, Note_off_c, 0, 81, 64
2, 146544, Note_off_c, 0, 77, 64
2, 146640, Note_on_c, 0, 82, 105
2, 146640, Note_on_c, 0, 79, 105
2, 146712, Note_off_c, 0, 79, 64
2, 146712, Note_off_c, 0, 82, 64
2, 146760, Note_on_c, 0, 84, 105
2, 146760, Note_on_c, 0, 81, 105
2, 146832, Note_off_c, 0, 81, 64
2, 146832, Note_off_c, 0, 84, 64
2, 146880, Note_on_c, 0, 81, 105
2, 146880, Note_on_c, 0, 84, 105
2, 147000, Note_off_c, 0, 84, 64
2, 147000, Note_off_c, 0, 81, 64
2, 147000, Note_on_c, 0, 82, 105
2, 147000, Note_on_c, 0, 79, 105
2, 147072, Note_off_c, 0, 79, 64
2, 147072, Note_off_c, 0, 82, 64
2, 147120, Note_on_c, 0, 81, 105
2, 147120, Note_on_c, 0, 77, 105
2, 147192, Note_off_c, 0, 77, 64
2, 147192, Note_off_c, 0, 81, 64
2, 147240, Note_on_c, 0, 79, 105
2, 147240, Note_on_c, 0, 76, 105
2, 147312, Note_off_c, 0, 76, 64
2, 147312, Note_off_c, 0, 79, 64
2, 147360, Note_on_c, 0, 77, 105
2, 147552, Note_off_c, 0, 77, 64
2, 148080, Note_on_c, 0, 76, 105
2, 148080, Note_on_c, 0, 82, 105
2, 148212, Note_off_c, 0, 82, 64
2, 148212, Note_off_c, 0, 76, 64
2, 148320, Note_on_c, 0, 77, 105
2, 148320, Note_on_c, 0, 81, 105
2, 148452, Note_off_c, 0, 81, 64
2, 148452, Note_off_c, 0, 77, 64
2, 149040, Note_on_c, 0, 70, 105
2, 149040, Note_on_c, 0, 76, 105
2, 149172, Note_off_c, 0, 76, 64
2, 149172, Note_off_c, 0, 70, 64
2, 149280, Note_on_c, 0, 69, 105
2, 149280, Note_on_c, 0, 77, 105
2, 149412, Note_off_c, 0, 77, 64
2, 149412, Note_off_c, 0, 69, 64
2, 150000, Note_on_c, 0, 76, 105
2, 150000, Note_on_c, 0, 82, 105
2, 150132, Note_off_c, 0, 82, 64
2, 150132, Note_off_c, 0, 76, 64
2, 150240, Note_on_c, 0, 77, 105
2, 150240, Note_on_c, 0, 81, 105
2, 150372, Note_off_c, 0, 81, 64
2, 150372, Note_off_c, 0, 77, 64
2, 150960, Note_on_c, 0, 76, 105
2, 150960, Note_on_c, 0, 70, 105
2, 151092, Note_off_c, 0, 70, 64
2, 151092, Note_off_c, 0, 76, 64
2, 151200, Note_on_c, 0, 77, 105
2, 151200, Note_on_c, 0, 65, 105
2, 151584, Note_off_c, 0, 65, 64
2, 151584, Note_off_c, 0, 77, 64
2, 151680, Note_on_c, 0, 84, 105
2, 151680, Note_on_c, 0, 72, 105
2, 152064, Note_off_c, 0, 72, 64
2, 152064, Note_off_c, 0, 84, 64
2, 152160, Note_on_c, 0, 74, 105
2, 152160, Note_on_c, 0, 62, 105
2, 152544, Note_off_c, 0, 62, 64
2, 152544, Note_off_c, 0, 74, 64
2, 152640, Note_on_c, 0, 81, 105
2, 152640, Note_on_c, 0, 69, 105
2, 153024, Note_off_c, 0, 69, 64
2, 153024, Note_off_c, 0, 81, 64
2, 153120, Note_on_c, 0, 70, 105
2, 153120, Note_on_c, 0, 82, 105
2, 153264, Note_off_c, 0, 82, 64
2, 153264, Note_off_c, 0, 70, 64
2, 153300, Note_on_c, 0, 70, 105
2, 153300, Note_on_c, 0, 82, 105
2, 153348, Note_off_c, 0, 82, 64
2, 153348, Note_off_c, 0, 70, 64
2, 153360, Note_on_c, 0, 69, 105
2, 153360, Note_on_c, 0, 81, 105
2, 153504, Note_off_c, 0, 81, 64
2, 153504, Note_off_c, 0, 69, 64
2, 153540, Note_on_c, 0, 67, 105
2, 153540, Note_on_c, 0, 79, 105
2, 153588, Note_off_c, 0, 79, 64
2, 153588, Note_off_c, 0, 67, 64
2, 153600, Note_on_c, 0, 72, 105
2, 153600, Note_on_c, 0, 84, 105
2, 153756, Note_off_c, 0, 84, 64
2, 153756, Note_off_c, 0, 72, 64
2, 153840, Note_on_c, 0, 70, 105
2, 153840, Note_on_c, 0, 76, 105
2, 153996, Note_off_c, 0, 76, 64
2, 153996, Note_off_c, 0, 70, 64
2, 154080, Note_on_c, 0, 69, 105
2, 154080, Note_on_c, 0, 77, 105
2, 154236, Note_off_c, 0, 77, 64
2, 154236, Note_off_c, 0, 69, 64
2, 154320, Note_on_c, 0, 81, 105
2, 154320, Note_on_c, 0, 72, 105
2, 154476, Note_off_c, 0, 72, 64
2, 154476, Note_off_c, 0, 81, 64
2, 154560, Note_on_c, 0, 69, 105
2, 154560, Note_on_c, 0, 77, 105
2, 154752, Note_off_c, 0, 77, 64
2, 154752, Note_off_c, 0, 69, 64
2, 163680, Note_on_c, 0, 86, 80
2, 164160, Note_off_c, 0, 86, 64
2, 164160, Note_on_c, 0, 81, 80
2, 164616, Note_off_c, 0, 81, 64
2, 164640, Note_on_c, 0, 79, 80
2, 164880, Note_off_c, 0, 79, 64
2, 164880, Note_on_c, 0, 78, 80
2, 165108, Note_off_c, 0, 78, 64
2, 165600, Note_on_c, 0, 79, 80
2, 166080, Note_off_c, 0, 79, 64
2, 166080, Note_on_c, 0, 74, 80
2, 166536, Note_off_c, 0, 74, 64
2, 166560, Note_on_c, 0, 72, 80
2, 166800, Note_off_c, 0, 72, 64
2, 166800, Note_on_c, 0, 71, 80
2, 166992, Note_off_c, 0, 71, 64
2, 167520, Note_on_c, 0, 84, 80
2, 168000, Note_off_c, 0, 84, 64
2, 168000, Note_on_c, 0, 79, 80
2, 168456, Note_off_c, 0, 79, 64
2, 168480, Note_on_c, 0, 77, 80
2, 168720, Note_off_c, 0, 77, 64
2, 168720, Note_on_c, 0, 76, 80
2, 168912, Note_off_c, 0, 76, 64
2, 169440, Note_on_c, 0, 77, 80
2, 169920, Note_off_c, 0, 77, 64
2, 169920, Note_on_c, 0, 72, 80
2, 170376, Note_off_c, 0, 72, 64
2, 170400, Note_on_c, 0, 70, 80
2, 170640, Note_off_c, 0, 70, 64
2, 170640, Note_on_c, 0, 69, 80
2, 170832, Note_off_c, 0, 69, 64
2, 173280, Note_on_c, 0, 75, 70
2, 173280, Note_on_c, 0, 79, 70
2, 173760, Note_off_c, 0, 79, 64
2, 173760, Note_off_c, 0, 75, 64
2, 173760, Note_on_c, 0, 74, 70
2, 173760, Note_on_c, 0, 77, 70
2, 174240, Note_off_c, 0, 77, 64
2, 174240, Note_on_c, 0, 75, 70
2, 174480, Note_off_c, 0, 74, 64
2, 174480, Note_on_c, 0, 72, 70
2, 174720, Note_off_c, 0, 75, 64
2, 174720, Note_on_c, 0, 74, 70
2, 174960, Note_off_c, 0, 72, 64
2, 174960, Note_off_c, 0, 74, 64
2, 174960, Note_on_c, 0, 76, 70
2, 174960, Note_on_c, 0, 70, 70
2, 175152, Note_off_c, 0, 70, 64
2, 175152, Note_off_c, 0, 76, 64
2, 175200, Note_on_c, 0, 69, 105
2, 175200, Note_on_c, 0, 77, 105
2, 175584, Note_off_c, 0, 77, 64
2, 175584, Note_off_c, 0, 69, 64
2, 175680, Note_on_c, 0, 72, 105
2, 176064, Note_off_c, 0, 72, 64
2, 176160, Note_on_c, 0, 70, 105
2, 176400, Note_off_c, 0, 70, 64
2, 176400, Note_on_c, 0, 69, 105
2, 176592, Note_off_c, 0, 69, 64
2, 176640, Note_on_c, 0, 74, 105
2, 176880, Note_off_c, 0, 74, 64
2, 176880, Note_on_c, 0, 72, 105
2, 177072, Note_off_c, 0, 72, 64
2, 177120, Note_on_c, 0, 65, 105
2, 177120, Note_on_c, 0, 77, 105
2, 177360, Note_off_c, 0, 77, 64
2, 177360, Note_off_c, 0, 65, 64
2, 177360, Note_on_c, 0, 76, 105
2, 177360, Note_on_c, 0, 64, 105
2, 177552, Note_off_c, 0, 64, 64
2, 177552, Note_off_c, 0, 76, 64
2, 177600, Note_on_c, 0, 70, 105
2, 177600, Note_on_c, 0, 82, 105
2, 177840, Note_off_c, 0, 82, 64
2, 177840, Note_off_c, 0, 70, 64
2, 177840, Note_on_c, 0, 69, 105
2, 177840, Note_on_c, 0, 81, 105
2, 178032, Note_off_c, 0, 81, 64
2, 178032, Note_off_c, 0, 69, 64
2, 178080, Note_on_c, 0, 75, 105
2, 178080, Note_on_c, 0, 87, 105
2, 178368, Note_off_c, 0, 87, 64
2, 178368, Note_off_c, 0, 75, 64
2, 178440, Note_on_c, 0, 74, 105
2, 178440, Note_on_c, 0, 86, 105
2, 178518, Note_off_c, 0, 86, 64
2, 178518, Note_off_c, 0, 74, 64
2, 178560, Note_on_c, 0, 72, 105
2, 178560, Note_on_c, 0, 84, 105
2, 178638, Note_off_c, 0, 84, 64
2, 178638, Note_off_c, 0, 72, 64
2, 178680, Note_on_c, 0, 70, 105
2, 178680, Note_on_c, 0, 82, 105
2, 178758, Note_off_c, 0, 82, 64
2, 178758, Note_off_c, 0, 70, 64
2, 178800, Note_on_c, 0, 69, 105
2, 178800, Note_on_c, 0, 81, 105
2, 178878, Note_off_c, 0, 81, 64
2, 178878, Note_off_c, 0, 69, 64
2, 178920, Note_on_c, 0, 67, 105
2, 178920, Note_on_c, 0, 79, 105
2, 178998, Note_off_c, 0, 79, 64
2, 178998, Note_off_c, 0, 67, 64
2, 179040, Note_on_c, 0, 65, 105
2, 179040, Note_on_c, 0, 77, 105
2, 179118, Note_off_c, 0, 77, 64
2, 179118, Note_off_c, 0, 65, 64
2, 179160, Note_on_c, 0, 64, 105
2, 179160, Note_on_c, 0, 76, 105
2, 179238, Note_off_c, 0, 76, 64
2, 179238, Note_off_c, 0, 64, 64
2, 179280, Note_on_c, 0, 77, 105
2, 179280, Note_on_c, 0, 65, 105
2, 179358, Note_off_c, 0, 65, 64
2, 179358, Note_off_c, 0, 77, 64
2, 179400, Note_on_c, 0, 67, 105
2, 179400, Note_on_c, 0, 79, 105
2, 179478, Note_off_c, 0, 79, 64
2, 179478, Note_off_c, 0, 67, 64
2, 179520, Note_on_c, 0, 65, 105
2, 179520, Note_on_c, 0, 77, 105
2, 179598, Note_off_c, 0, 77, 64
2, 179598, Note_off_c, 0, 65, 64
2, 179640, Note_on_c, 0, 75, 105
2, 179718, Note_off_c, 0, 75, 64
2, 179760, Note_on_c, 0, 74, 105
2, 179838, Note_off_c, 0, 74, 64
2, 179880, Note_on_c, 0, 72, 105
2, 179958, Note_off_c, 0, 72, 64
2, 180000, Note_on_c, 0, 70, 105
2, 180192, Note_off_c, 0, 70, 64
2, 181920, Note_on_c, 0, 81, 105
2, 181920, Note_on_c, 0, 84, 105
2, 182112, Note_off_c, 0, 84, 64
2, 182112, Note_off_c, 0, 81, 64
2, 187200, Note_on_c, 0, 82, 105
2, 187200, Note_on_c, 0, 70, 105
2, 187356, Note_off_c, 0, 70, 64
2, 187356, Note_off_c, 0, 82, 64
2, 187440, Note_on_c, 0, 70, 105
2, 187557, Note_off_c, 0, 70, 64
2, 187620, Note_on_c, 0, 70, 105
2, 187659, Note_off_c, 0, 70, 64
2, 187680, Note_on_c, 0, 70, 105
2, 187797, Note_off_c, 0, 70, 64
2, 187860, Note_on_c, 0, 70, 105
2, 187899, Note_off_c, 0, 70, 64
2, 187920, Note_on_c, 0, 70, 105
2, 188037, Note_off_c, 0, 70, 64
2, 188100, Note_on_c, 0, 70, 105
2, 188139, Note_off_c, 0, 70, 64
2, 188160, Note_on_c, 0, 70, 105
2, 188292, Note_off_c, 0, 70, 64
2, 188400, Note_on_c, 0, 74, 105
2, 188532, Note_off_c, 0, 74, 64
2, 188640, Note_on_c, 0, 77, 105
2, 188772, Note_off_c, 0, 77, 64
2, 190080, Note_on_c, 0, 70, 105
2, 190212, Note_off_c, 0, 70, 64
2, 190320, Note_on_c, 0, 74, 105
2, 190452, Note_off_c, 0, 74, 64
2, 190560, Note_on_c, 0, 77, 105
2, 190692, Note_off_c, 0, 77, 64
2, 190800, Note_on_c, 0, 82, 105
2, 190932, Note_off_c, 0, 82, 64
2, 191040, Note_on_c, 0, 77, 105
2, 191172, Note_off_c, 0, 77, 64
2, 191280, Note_on_c, 0, 74, 105
2, 191412, Note_off_c, 0, 74, 64
2, 191520, Note_on_c, 0, 70, 105
2, 191652, Note_off_c, 0, 70, 64
2, 200880, Note_on_c, 0, 63, 70
2, 200880, Note_on_c, 0, 72, 70
2, 201120, Note_off_c, 0, 72, 64
2, 201120, Note_off_c, 0, 63, 64
2, 201120, Note_on_c, 0, 67, 70
2, 201120, Note_on_c, 0, 75, 70
2, 201360, Note_off_c, 0, 75, 64
2, 201360, Note_off_c, 0, 67, 64
2, 201360, Note_on_c, 0, 80, 70
2, 201360, Note_on_c, 0, 71, 70
2, 201600, Note_off_c, 0, 71, 64
2, 201600, Note_off_c, 0, 80, 64
2, 201600, Note_on_c, 0, 72, 70
2, 201600, Note_on_c, 0, 79, 70
2, 201792, Note_off_c, 0, 79, 64
2, 201792, Note_off_c, 0, 72, 64
2, 202800, Note_on_c, 0, 75, 70
2, 202800, Note_on_c, 0, 72, 70
2, 203040, Note_off_c, 0, 72, 64
2, 203040, Note_off_c, 0, 75, 64
2, 203040, Note_on_c, 0, 79, 70
2, 203040, Note_on_c, 0, 75, 70
2, 203280, Note_off_c, 0, 75, 64
2, 203280, Note_off_c, 0, 79, 64
2, 203280, Note_on_c, 0, 77, 70
2, 203280, Note_on_c, 0, 83, 70
2, 203520, Note_off_c, 0, 83, 64
2, 203520, Note_off_c, 0, 77, 64
2, 203520, Note_on_c, 0, 79, 58
2, 203520, Note_on_c, 0, 84, 58
2, 203712, Note_off_c, 0, 84, 64
2, 203712, Note_off_c, 0, 79, 64
2, 205440, Note_on_c, 0, 65, 105
2, 205584, Note_off_c, 0, 65, 64
2, 205680, Note_on_c, 0, 65, 105
2, 205752, Note_off_c, 0, 65, 64
2, 205800, Note_on_c, 0, 67, 105
2, 205872, Note_off_c, 0, 67, 64
2, 205920, Note_on_c, 0, 69, 105
2, 206064, Note_off_c, 0, 69, 64
2, 206160, Note_on_c, 0, 69, 105
2, 206232, Note_off_c, 0, 69, 64
2, 206280, Note_on_c, 0, 70, 105
2, 206352, Note_off_c, 0, 70, 64
2, 206400, Note_on_c, 0, 72, 105
2, 206544, Note_off_c, 0, 72, 64
2, 206640, Note_on_c, 0, 69, 105
2, 206640, Note_on_c, 0, 72, 105
2, 206712, Note_off_c, 0, 72, 64
2, 206712, Note_off_c, 0, 69, 64
2, 206760, Note_on_c, 0, 70, 105
2, 206760, Note_on_c, 0, 74, 105
2, 206832, Note_off_c, 0, 74, 64
2, 206832, Note_off_c, 0, 70, 64
2, 206880, Note_on_c, 0, 72, 105
2, 206880, Note_on_c, 0, 75, 105
2, 207024, Note_off_c, 0, 75, 64
2, 207024, Note_off_c, 0, 72, 64
2, 207120, Note_on_c, 0, 72, 105
2, 207120, Note_on_c, 0, 75, 105
2, 207192, Note_off_c, 0, 75, 64
2, 207192, Note_off_c, 0, 72, 64
2, 207240, Note_on_c, 0, 72, 105
2, 207240, Note_on_c, 0, 75, 105
2, 207312, Note_off_c, 0, 75, 64
2, 207312, Note_off_c, 0, 72, 64
2, 207360, Note_on_c, 0, 72, 105
2, 207360, Note_on_c, 0, 75, 105
2, 207576, Note_off_c, 0, 75, 64
2, 207576, Note_off_c, 0, 72, 64
2, 207720, Note_on_c, 0, 71, 105
2, 207720, Note_on_c, 0, 74, 105
2, 207792, Note_off_c, 0, 74, 64
2, 207792, Note_off_c, 0, 71, 64
2, 207840, Note_on_c, 0, 72, 105
2, 207840, Note_on_c, 0, 75, 105
2, 208056, Note_off_c, 0, 75, 64
2, 208056, Note_off_c, 0, 72, 64
2, 208200, Note_on_c, 0, 71, 105
2, 208200, Note_on_c, 0, 74, 105
2, 208272, Note_off_c, 0, 74, 64
2, 208272, Note_off_c, 0, 71, 64
2, 208320, Note_on_c, 0, 72, 105
2, 208320, Note_on_c, 0, 75, 105
2, 208392, Note_off_c, 0, 75, 64
2, 208392, Note_off_c, 0, 72, 64
2, 208440, Note_on_c, 0, 71, 105
2, 208440, Note_on_c, 0, 74, 105
2, 208512, Note_off_c, 0, 74, 64
2, 208512, Note_off_c, 0, 71, 64
2, 208560, Note_on_c, 0, 72, 105
2, 208560, Note_on_c, 0, 75, 105
2, 208632, Note_off_c, 0, 75, 64
2, 208632, Note_off_c, 0, 72, 64
2, 208680, Note_on_c, 0, 71, 105
2, 208680, Note_on_c, 0, 74, 105
2, 208752, Note_off_c, 0, 74, 64
2, 208752, Note_off_c, 0, 71, 64
2, 208800, Note_on_c, 0, 72, 105
2, 208800, Note_on_c, 0, 75, 105
2, 208872, Note_off_c, 0, 75, 64
2, 208872, Note_off_c, 0, 72, 64
2, 208920, Note_on_c, 0, 71, 105
2, 208920, Note_on_c, 0, 74, 105
2, 208992, Note_off_c, 0, 74, 64
2, 208992, Note_off_c, 0, 71, 64
2, 209040, Note_on_c, 0, 72, 105
2, 209040, Note_on_c, 0, 75, 105
2, 209112, Note_off_c, 0, 75, 64
2, 209112, Note_off_c, 0, 72, 64
2, 209160, Note_on_c, 0, 71, 105
2, 209160, Note_on_c, 0, 74, 105
2, 209232, Note_off_c, 0, 74, 64
2, 209232, Note_off_c, 0, 71, 64
2, 209280, Note_on_c, 0, 72, 105
2, 209280, Note_on_c, 0, 75, 105
2, 209472, Note_off_c, 0, 75, 64
2, 209472, Note_off_c, 0, 72, 64
2, 226800, Note_on_c, 0, 77, 105
2, 226932, Note_off_c, 0, 77, 64
2, 227040, Note_on_c, 0, 76, 105
2, 227172, Note_off_c, 0, 76, 64
2, 227280, Note_on_c, 0, 75, 105
2, 227412, Note_off_c, 0, 75, 64
2, 227520, Note_on_c, 0, 74, 105
2, 227652, Note_off_c, 0, 74, 64
2, 227760, Note_on_c, 0, 70, 105
2, 227760, Note_on_c, 0, 82, 105
2, 227892, Note_off_c, 0, 82, 64
2, 227892, Note_off_c, 0, 70, 64
2, 228000, Note_on_c, 0, 72, 105
2, 228000, Note_on_c, 0, 81, 105
2, 228132, Note_off_c, 0, 81, 64
2, 228132, Note_off_c, 0, 72, 64
2, 228240, Note_on_c, 0, 74, 105
2, 228240, Note_on_c, 0, 80, 105
2, 228372, Note_off_c, 0, 80, 64
2, 228372, Note_off_c, 0, 74, 64
2, 228480, Note_on_c, 0, 75, 105
2, 228480, Note_on_c, 0, 79, 105
2, 228612, Note_off_c, 0, 79, 64
2, 228612, Note_off_c, 0, 75, 64
2, 228720, Note_on_c, 0, 65, 105
2, 228720, Note_on_c, 0, 70, 105
2, 228852, Note_off_c, 0, 70, 64
2, 228852, Note_off_c, 0, 65, 64
2, 228960, Note_on_c, 0, 63, 105
2, 228960, Note_on_c, 0, 72, 105
2, 229092, Note_off_c, 0, 72, 64
2, 229092, Note_off_c, 0, 63, 64
2, 229200, Note_on_c, 0, 75, 105
2, 229200, Note_on_c, 0, 79, 105
2, 229332, Note_off_c, 0, 79, 64
2, 229332, Note_off_c, 0, 75, 64
2, 229440, Note_on_c, 0, 74, 105
2, 229440, Note_on_c, 0, 77, 105
2, 229572, Note_off_c, 0, 77, 64
2, 229572, Note_off_c, 0, 74, 64
2, 229680, Note_on_c, 0, 72, 105
2, 229680, Note_on_c, 0, 75, 105
2, 229812, Note_off_c, 0, 75, 64
2, 229812, Note_off_c, 0, 72, 64
2, 229920, Note_on_c, 0, 70, 105
2, 229920, Note_on_c, 0, 74, 105
2, 230052, Note_off_c, 0, 74, 64
2, 230052, Note_off_c, 0, 70, 64
2, 230160, Note_on_c, 0, 72, 105
2, 230160, Note_on_c, 0, 69, 105
2, 230292, Note_off_c, 0, 69, 64
2, 230292, Note_off_c, 0, 72, 64
2, 230400, Note_on_c, 0, 70, 92
2, 230532, Note_off_c, 0, 70, 64
2, 230640, Note_on_c, 0, 77, 105
2, 230772, Note_off_c, 0, 77, 64
2, 230880, Note_on_c, 0, 76, 105
2, 231012, Note_off_c, 0, 76, 64
2, 231120, Note_on_c, 0, 75, 105
2, 231252, Note_off_c, 0, 75, 64
2, 231360, Note_on_c, 0, 74, 105
2, 231492, Note_off_c, 0, 74, 64
2, 231600, Note_on_c, 0, 70, 105
2, 231600, Note_on_c, 0, 82, 105
2, 231732, Note_off_c, 0, 82, 64
2, 231732, Note_off_c, 0, 70, 64
2, 231840, Note_on_c, 0, 72, 105
2, 231840, Note_on_c, 0, 81, 105
2, 231972, Note_off_c, 0, 81, 64
2, 231972, Note_off_c, 0, 72, 64
2, 232080, Note_on_c, 0, 80, 105
2, 232080, Note_on_c, 0, 74, 105
2, 232212, Note_off_c, 0, 74, 64
2, 232212, Note_off_c, 0, 80, 64
2, 232320, Note_on_c, 0, 75, 105
2, 232320, Note_on_c, 0, 79, 105
2, 232452, Note_off_c, 0, 79, 64
2, 232452, Note_off_c, 0, 75, 64
2, 232560, Note_on_c, 0, 77, 105
2, 232560, Note_on_c, 0, 83, 105
2, 232692, Note_off_c, 0, 83, 64
2, 232692, Note_off_c, 0, 77, 64
2, 232800, Note_on_c, 0, 75, 105
2, 232800, Note_on_c, 0, 84, 105
2, 232932, Note_off_c, 0, 84, 64
2, 232932, Note_off_c, 0, 75, 64
2, 233040, Note_on_c, 0, 79, 105
2, 233040, Note_on_c, 0, 75, 105
2, 233172, Note_off_c, 0, 75, 64
2, 233172, Note_off_c, 0, 79, 64
2, 233280, Note_on_c, 0, 74, 105
2, 233280, Note_on_c, 0, 77, 105
2, 233412, Note_off_c, 0, 77, 64
2, 233412, Note_off_c, 0, 74, 64
2, 233520, Note_on_c, 0, 72, 105
2, 233520, Note_on_c, 0, 75, 105
2, 233652, Note_off_c, 0, 75, 64
2, 233652, Note_off_c, 0, 72, 64
2, 233760, Note_on_c, 0, 70, 105
2, 233760, Note_on_c, 0, 74, 105
2, 233892, Note_off_c, 0, 74, 64
2, 233892, Note_off_c, 0, 70, 64
2, 234000, Note_on_c, 0, 75, 105
2, 234000, Note_on_c, 0, 69, 105
2, 234132, Note_off_c, 0, 69, 64
2, 234132, Note_off_c, 0, 75, 64
2, 234240, Note_on_c, 0, 70, 105
2, 234240, Note_on_c, 0, 74, 105
2, 234372, Note_off_c, 0, 74, 64
2, 234372, Note_off_c, 0, 70, 64
2, 235440, Note_on_c, 0, 81, 105
2, 235440, Note_on_c, 0, 75, 105
2, 235572, Note_off_c, 0, 75, 64
2, 235572, Note_off_c, 0, 81, 64
2, 235680, Note_on_c, 0, 74, 105
2, 235680, Note_on_c, 0, 82, 105
2, 235812, Note_off_c, 0, 82, 64
2, 235812, Note_off_c, 0, 74, 64
2, 235920, Note_on_c, 0, 72, 105
2, 235920, Note_on_c, 0, 75, 105
2, 236052, Note_off_c, 0, 75, 64
2, 236052, Note_off_c, 0, 72, 64
2, 236160, Note_on_c, 0, 70, 105
2, 236160, Note_on_c, 0, 74, 105
2, 237096, Note_off_c, 0, 74, 64
2, 237096, Note_off_c, 0, 70, 64
2, 237120, Note_on_c, 0, 69, 105
2, 237120, Note_on_c, 0, 72, 105
2, 238056, Note_off_c, 0, 72, 64
2, 238056, Note_off_c, 0, 69, 64
2, 238080, Note_on_c, 0, 70, 105
2, 238236, Note_off_c, 0, 70, 64
2, 238320, Note_on_c, 0, 70, 70
2, 238392, Note_off_c, 0, 70, 64
2, 238440, Note_on_c, 0, 69, 70
2, 238440, Note_on_c, 0, 72, 70
2, 238512, Note_off_c, 0, 72, 64
2, 238512, Note_off_c, 0, 69, 64
2, 238560, Note_on_c, 0, 74, 70
2, 238560, Note_on_c, 0, 70, 70
2, 238704, Note_off_c, 0, 70, 64
2, 238704, Note_off_c, 0, 74, 64
2, 238800, Note_on_c, 0, 70, 70
2, 238800, Note_on_c, 0, 74, 70
2, 238872, Note_off_c, 0, 74, 64
2, 238872, Note_off_c, 0, 70, 64
2, 238920, Note_on_c, 0, 72, 70
2, 238920, Note_on_c, 0, 75, 70
2, 238992, Note_off_c, 0, 75, 64
2, 238992, Note_off_c, 0, 72, 64
2, 239040, Note_on_c, 0, 77, 70
2, 239040, Note_on_c, 0, 74, 70
2, 239184, Note_off_c, 0, 74, 64
2, 239184, Note_off_c, 0, 77, 64
2, 239280, Note_on_c, 0, 74, 70
2, 239280, Note_on_c, 0, 77, 70
2, 239352, Note_off_c, 0, 77, 64
2, 239352, Note_off_c, 0, 74, 64
2, 239400, Note_on_c, 0, 74, 70
2, 239400, Note_on_c, 0, 77, 70
2, 239472, Note_off_c, 0, 77, 64
2, 239472, Note_off_c, 0, 74, 64
2, 239520, Note_on_c, 0, 79, 90
2, 239520, Note_on_c, 0, 75, 70
2, 239550, Note_off_c, 0, 75, 64
2, 239550, Note_off_c, 0, 79, 64
2, 239550, Note_on_c, 0, 74, 70
2, 239550, Note_on_c, 0, 77, 90
2, 239580, Note_off_c, 0, 77, 64
2, 239580, Note_off_c, 0, 74, 64
2, 239580, Note_on_c, 0, 79, 90
2, 239580, Note_on_c, 0, 75, 70
2, 239610, Note_off_c, 0, 75, 64
2, 239610, Note_off_c, 0, 79, 64
2, 239610, Note_on_c, 0, 77, 90
2, 239610, Note_on_c, 0, 74, 70
2, 239640, Note_off_c, 0, 74, 64
2, 239640, Note_off_c, 0, 77, 64
2, 239640, Note_on_c, 0, 79, 90
2, 239640, Note_on_c, 0, 75, 70
2, 239670, Note_off_c, 0, 75, 64
2, 239670, Note_off_c, 0, 79, 64
2, 239670, Note_on_c, 0, 74, 70
2, 239670, Note_on_c, 0, 77, 90
2, 239700, Note_off_c, 0, 77, 64
2, 239700, Note_off_c, 0, 74, 64
2, 239700, Note_on_c, 0, 75, 70
2, 239700, Note_on_c, 0, 79, 70
2, 239730, Note_off_c, 0, 79, 64
2, 239730, Note_off_c, 0, 75, 64
2, 239730, Note_on_c, 0, 74, 70
2, 239730, Note_on_c, 0, 77, 70
2, 239748, Note_off_c, 0, 77, 64
2, 239748, Note_off_c, 0, 74, 64
2, 239760, Note_on_c, 0, 75, 70
2, 239760, Note_on_c, 0, 79, 70
2, 239832, Note_off_c, 0, 79, 64
2, 239832, Note_off_c, 0, 75, 64
2, 239880, Note_on_c, 0, 74, 70
2, 239880, Note_on_c, 0, 77, 70
2, 239952, Note_off_c, 0, 77, 64
2, 239952, Note_off_c, 0, 74, 64
2, 240000, Note_on_c, 0, 75, 70
2, 240000, Note_on_c, 0, 72, 70
2, 240144, Note_off_c, 0, 72, 64
2, 240144, Note_off_c, 0, 75, 64
2, 240240, Note_on_c, 0, 72, 70
2, 240240, Note_on_c, 0, 75, 70
2, 240312, Note_off_c, 0, 75, 64
2, 240312, Note_off_c, 0, 72, 64
2, 240360, Note_on_c, 0, 72, 70
2, 240360, Note_on_c, 0, 75, 70
2, 240432, Note_off_c, 0, 75, 64
2, 240432, Note_off_c, 0, 72, 64
2, 240480, Note_on_c, 0, 77, 90
2, 240480, Note_on_c, 0, 74, 70
2, 240510, Note_off_c, 0, 74, 64
2, 240510, Note_off_c, 0, 77, 64
2, 240510, Note_on_c, 0, 72, 70
2, 240510, Note_on_c, 0, 75, 90
2, 240540, Note_off_c, 0, 75, 64
2, 240540, Note_off_c, 0, 72, 64
2, 240540, Note_on_c, 0, 77, 90
2, 240540, Note_on_c, 0, 74, 70
2, 240570, Note_off_c, 0, 74, 64
2, 240570, Note_off_c, 0, 77, 64
2, 240570, Note_on_c, 0, 75, 90
2, 240570, Note_on_c, 0, 72, 70
2, 240600, Note_off_c, 0, 72, 64
2, 240600, Note_off_c, 0, 75, 64
2, 240600, Note_on_c, 0, 77, 90
2, 240600, Note_on_c, 0, 74, 70
2, 240630, Note_off_c, 0, 74, 64
2, 240630, Note_off_c, 0, 77, 64
2, 240630, Note_on_c, 0, 72, 70
2, 240630, Note_on_c, 0, 75, 90
2, 240660, Note_off_c, 0, 75, 64
2, 240660, Note_off_c, 0, 72, 64
2, 240660, Note_on_c, 0, 74, 70
2, 240660, Note_on_c, 0, 77, 70
2, 240690, Note_off_c, 0, 77, 64
2, 240690, Note_off_c, 0, 74, 64
2, 240690, Note_on_c, 0, 72, 70
2, 240690, Note_on_c, 0, 75, 70
2, 240708, Note_off_c, 0, 75, 64
2, 240708, Note_off_c, 0, 72, 64
2, 240720, Note_on_c, 0, 74, 70
2, 240720, Note_on_c, 0, 77, 70
2, 240792, Note_off_c, 0, 77, 64
2, 240792, Note_off_c, 0, 74, 64
2, 240840, Note_on_c, 0, 72, 70
2, 240840, Note_on_c, 0, 75, 70
2, 240912, Note_off_c, 0, 75, 64
2, 240912, Note_off_c, 0, 72, 64
2, 240960, Note_on_c, 0, 74, 70
2, 240960, Note_on_c, 0, 70, 70
2, 241104, Note_off_c, 0, 70, 64
2, 241104, Note_off_c, 0, 74, 64
2, 241200, Note_on_c, 0, 72, 70
2, 241200, Note_on_c, 0, 75, 70
2, 241272, Note_off_c, 0, 75, 64
2, 241272, Note_off_c, 0, 72, 64
2, 241320, Note_on_c, 0, 74, 70
2, 241320, Note_on_c, 0, 77, 70
2, 241392, Note_off_c, 0, 77, 64
2, 241392, Note_off_c, 0, 74, 64
2, 241440, Note_on_c, 0, 74, 70
2, 241440, Note_on_c, 0, 77, 70
2, 241560, Note_off_c, 0, 77, 64
2, 241560, Note_off_c, 0, 74, 64
2, 241560, Note_on_c, 0, 75, 70
2, 241560, Note_on_c, 0, 72, 70
2, 241632, Note_off_c, 0, 72, 64
2, 241632, Note_off_c, 0, 75, 64
2, 241680, Note_on_c, 0, 70, 70
2, 241680, Note_on_c, 0, 74, 70
2, 241752, Note_off_c, 0, 74, 64
2, 241752, Note_off_c, 0, 70, 64
2, 241800, Note_on_c, 0, 69, 70
2, 241800, Note_on_c, 0, 72, 70
2, 241872, Note_off_c, 0, 72, 64
2, 241872, Note_off_c, 0, 69, 64
2, 241920, Note_on_c, 0, 70, 90
2, 242076, Note_off_c, 0, 70, 64
2, 242160, Note_on_c, 0, 70, 125
2, 242232, Note_off_c, 0, 70, 64
2, 242280, Note_on_c, 0, 72, 105
2, 242280, Note_on_c, 0, 69, 105
2, 242352, Note_off_c, 0, 69, 64
2, 242352, Note_off_c, 0, 72, 64
2, 242400, Note_on_c, 0, 74, 105
2, 242400, Note_on_c, 0, 70, 105
2, 242544, Note_off_c, 0, 70, 64
2, 242544, Note_off_c, 0, 74, 64
2, 242640, Note_on_c, 0, 70, 105
2, 242640, Note_on_c, 0, 74, 105
2, 242712, Note_off_c, 0, 74, 64
2, 242712, Note_off_c, 0, 70, 64
2, 242760, Note_on_c, 0, 75, 105
2, 242760, Note_on_c, 0, 72, 105
2, 242832, Note_off_c, 0, 72, 64
2, 242832, Note_off_c, 0, 75, 64
2, 242880, Note_on_c, 0, 77, 105
2, 242880, Note_on_c, 0, 74, 105
2, 243024, Note_off_c, 0, 74, 64
2, 243024, Note_off_c, 0, 77, 64
2, 243120, Note_on_c, 0, 74, 105
2, 243120, Note_on_c, 0, 77, 105
2, 243192, Note_off_c, 0, 77, 64
2, 243192, Note_off_c, 0, 74, 64
2, 243240, Note_on_c, 0, 74, 105
2, 243240, Note_on_c, 0, 77, 105
2, 243312, Note_off_c, 0, 77, 64
2, 243312, Note_off_c, 0, 74, 64
2, 243360, Note_on_c, 0, 75, 105
2, 243360, Note_on_c, 0, 79, 105
2, 243390, Note_off_c, 0, 79, 64
2, 243390, Note_off_c, 0, 75, 64
2, 243390, Note_on_c, 0, 74, 105
2, 243390, Note_on_c, 0, 77, 105
2, 243420, Note_off_c, 0, 77, 64
2, 243420, Note_off_c, 0, 74, 64
2, 243420, Note_on_c, 0, 79, 105
2, 243420, Note_on_c, 0, 75, 105
2, 243450, Note_off_c, 0, 75, 64
2, 243450, Note_off_c, 0, 79, 64
2, 243450, Note_on_c, 0, 74, 105
2, 243450, Note_on_c, 0, 77, 105
2, 243480, Note_off_c, 0, 77, 64
2, 243480, Note_off_c, 0, 74, 64
2, 243480, Note_on_c, 0, 75, 105
2, 243480, Note_on_c, 0, 79, 105
2, 243510, Note_off_c, 0, 79, 64
2, 243510, Note_off_c, 0, 75, 64
2, 243510, Note_on_c, 0, 77, 105
2, 243510, Note_on_c, 0, 74, 105
2, 243540, Note_off_c, 0, 74, 64
2, 243540, Note_off_c, 0, 77, 64
2, 243540, Note_on_c, 0, 75, 105
2, 243540, Note_on_c, 0, 79, 105
2, 243570, Note_off_c, 0, 79, 64
2, 243570, Note_off_c, 0, 75, 64
2, 243570, Note_on_c, 0, 77, 105
2, 243570, Note_on_c, 0, 74, 105
2, 243588, Note_off_c, 0, 74, 64
2, 243588, Note_off_c, 0, 77, 64
2, 243600, Note_on_c, 0, 75, 105
2, 243600, Note_on_c, 0, 79, 105
2, 243672, Note_off_c, 0, 79, 64
2, 243672, Note_off_c, 0, 75, 64
2, 243720, Note_on_c, 0, 77, 105
2, 243720, Note_on_c, 0, 74, 105
2, 243792, Note_off_c, 0, 74, 64
2, 243792, Note_off_c, 0, 77, 64
2, 243840, Note_on_c, 0, 72, 105
2, 243840, Note_on_c, 0, 75, 105
2, 243984, Note_off_c, 0, 75, 64
2, 243984, Note_off_c, 0, 72, 64
2, 244080, Note_on_c, 0, 72, 105
2, 244080, Note_on_c, 0, 75, 105
2, 244152, Note_off_c, 0, 75, 64
2, 244152, Note_off_c, 0, 72, 64
2, 244200, Note_on_c, 0, 75, 105
2, 244200, Note_on_c, 0, 72, 105
2, 244272, Note_off_c, 0, 72, 64
2, 244272, Note_off_c, 0, 75, 64
2, 244320, Note_on_c, 0, 74, 105
2, 244320, Note_on_c, 0, 77, 105
2, 244350, Note_off_c, 0, 77, 64
2, 244350, Note_off_c, 0, 74, 64
2, 244350, Note_on_c, 0, 72, 105
2, 244350, Note_on_c, 0, 75, 105
2, 244380, Note_off_c, 0, 75, 64
2, 244380, Note_off_c, 0, 72, 64
2, 244380, Note_on_c, 0, 77, 105
2, 244380, Note_on_c, 0, 74, 105
2, 244410, Note_off_c, 0, 74, 64
2, 244410, Note_off_c, 0, 77, 64
2, 244410, Note_on_c, 0, 72, 105
2, 244410, Note_on_c, 0, 75, 105
2, 244440, Note_off_c, 0, 75, 64
2, 244440, Note_off_c, 0, 72, 64
2, 244440, Note_on_c, 0, 74, 105
2, 244440, Note_on_c, 0, 77, 105
2, 244470, Note_off_c, 0, 77, 64
2, 244470, Note_off_c, 0, 74, 64
2, 244470, Note_on_c, 0, 75, 105
2, 244470, Note_on_c, 0, 72, 105
2, 244500, Note_off_c, 0, 72, 64
2, 244500, Note_off_c, 0, 75, 64
2, 244500, Note_on_c, 0, 74, 105
2, 244500, Note_on_c, 0, 77, 105
2, 244530, Note_off_c, 0, 77, 64
2, 244530, Note_off_c, 0, 74, 64
2, 244530, Note_on_c, 0, 75, 105
2, 244530, Note_on_c, 0, 72, 105
2, 244548, Note_off_c, 0, 72, 64
2, 244548, Note_off_c, 0, 75, 64
2, 244560, Note_on_c, 0, 74, 105
2, 244560, Note_on_c, 0, 77, 105
2, 244632, Note_off_c, 0, 77, 64
2, 244632, Note_off_c, 0, 74, 64
2, 244680, Note_on_c, 0, 75, 105
2, 244680, Note_on_c, 0, 72, 105
2, 244752, Note_off_c, 0, 72, 64
2, 244752, Note_off_c, 0, 75, 64
2, 244800, Note_on_c, 0, 70, 105
2, 244800, Note_on_c, 0, 74, 105
2, 244944, Note_off_c, 0, 74, 64
2, 244944, Note_off_c, 0, 70, 64
2, 245040, Note_on_c, 0, 75, 105
2, 245040, Note_on_c, 0, 72, 105
2, 245112, Note_off_c, 0, 72, 64
2, 245112, Note_off_c, 0, 75, 64
2, 245160, Note_on_c, 0, 77, 105
2, 245160, Note_on_c, 0, 74, 105
2, 245232, Note_off_c, 0, 74, 64
2, 245232, Note_off_c, 0, 77, 64
2, 245280, Note_on_c, 0, 74, 105
2, 245280, Note_on_c, 0, 77, 105
2, 245400, Note_off_c, 0, 77, 64
2, 245400, Note_off_c, 0, 74, 64
2, 245400, Note_on_c, 0, 72, 105
2, 245400, Note_on_c, 0, 75, 105
2, 245472, Note_off_c, 0, 75, 64
2, 245472, Note_off_c, 0, 72, 64
2, 245520, Note_on_c, 0, 70, 105
2, 245520, Note_on_c, 0, 74, 105
2, 245592, Note_off_c, 0, 74, 64
2, 245592, Note_off_c, 0, 70, 64
2, 245640, Note_on_c, 0, 69, 105
2, 245640, Note_on_c, 0, 72, 105
2, 245712, Note_off_c, 0, 72, 64
2, 245712, Note_off_c, 0, 69, 64
2, 245760, Note_on_c, 0, 70, 105
2, 245952, Note_off_c, 0, 70, 64
2, 246480, Note_on_c, 0, 81, 105
2, 246480, Note_on_c, 0, 75, 105
2, 246612, Note_off_c, 0, 75, 64
2, 246612, Note_off_c, 0, 81, 64
2, 246720, Note_on_c, 0, 74, 105
2, 246720, Note_on_c, 0, 82, 105
2, 246852, Note_off_c, 0, 82, 64
2, 246852, Note_off_c, 0, 74, 64
2, 247440, Note_on_c, 0, 75, 105
2, 247440, Note_on_c, 0, 69, 105
2, 247572, Note_off_c, 0, 69, 64
2, 247572, Note_off_c, 0, 75, 64
2, 247680, Note_on_c, 0, 70, 105
2, 247680, Note_on_c, 0, 74, 105
2, 247812, Note_off_c, 0, 74, 64
2, 247812, Note_off_c, 0, 70, 64
2, 248400, Note_on_c, 0, 81, 105
2, 248400, Note_on_c, 0, 75, 105
2, 248532, Note_off_c, 0, 75, 64
2, 248532, Note_off_c, 0, 81, 64
2, 248640, Note_on_c, 0, 74, 105
2, 248640, Note_on_c, 0, 82, 105
2, 248772, Note_off_c, 0, 82, 64
2, 248772, Note_off_c, 0, 74, 64
2, 249360, Note_on_c, 0, 72, 105
2, 249360, Note_on_c, 0, 69, 105
2, 249492, Note_off_c, 0, 69, 64
2, 249492, Note_off_c, 0, 72, 64
2, 249600, Note_on_c, 0, 70, 105
2, 249984, Note_off_c, 0, 70, 64
2, 250080, Note_on_c, 0, 77, 105
2, 250464, Note_off_c, 0, 77, 64
2, 250560, Note_on_c, 0, 67, 105
2, 250560, Note_on_c, 0, 79, 105
2, 250944, Note_off_c, 0, 79, 64
2, 250944, Note_off_c, 0, 67, 64
2, 251040, Note_on_c, 0, 86, 105
2, 251040, Note_on_c, 0, 74, 105
2, 251424, Note_off_c, 0, 74, 64
2, 251424, Note_off_c, 0, 86, 64
2, 251520, Note_on_c, 0, 63, 105
2, 251520, Note_on_c, 0, 75, 105
2, 251637, Note_off_c, 0, 75, 64
2, 251637, Note_off_c, 0, 63, 64
2, 251700, Note_on_c, 0, 63, 105
2, 251700, Note_on_c, 0, 75, 105
2, 251739, Note_off_c, 0, 75, 64
2, 251739, Note_off_c, 0, 63, 64
2, 251760, Note_on_c, 0, 74, 105
2, 251760, Note_on_c, 0, 62, 105
2, 251877, Note_off_c, 0, 62, 64
2, 251877, Note_off_c, 0, 74, 64
2, 251940, Note_on_c, 0, 72, 105
2, 251940, Note_on_c, 0, 60, 105
2, 251979, Note_off_c, 0, 60, 64
2, 251979, Note_off_c, 0, 72, 64
2, 252000, Note_on_c, 0, 65, 105
2, 252000, Note_on_c, 0, 77, 105
2, 252156, Note_off_c, 0, 77, 64
2, 252156, Note_off_c, 0, 65, 64
2, 252240, Note_on_c, 0, 81, 105
2, 252240, Note_on_c, 0, 75, 105
2, 252396, Note_off_c, 0, 75, 64
2, 252396, Note_off_c, 0, 81, 64
2, 252480, Note_on_c, 0, 74, 105
2, 252480, Note_on_c, 0, 82, 105
2, 252636, Note_off_c, 0, 82, 64
2, 252636, Note_off_c, 0, 74, 64
2, 252720, Note_on_c, 0, 70, 105
2, 252837, Note_off_c, 0, 70, 64
2, 252900, Note_on_c, 0, 70, 105
2, 252939, Note_off_c, 0, 70, 64
2, 252960, Note_on_c, 0, 70, 105
2, 253077, Note_off_c, 0, 70, 64
2, 253140, Note_on_c, 0, 70, 105
2, 253179, Note_off_c, 0, 70, 64
2, 253200, Note_on_c, 0, 70, 105
2, 253317, Note_off_c, 0, 70, 64
2, 253380, Note_on_c, 0, 70, 105
2, 253419, Note_off_c, 0, 70, 64
2, 253440, Note_on_c, 0, 70, 105
2, 253572, Note_off_c, 0, 70, 64
2, 253680, Note_on_c, 0, 74, 105
2, 253812, Note_off_c, 0, 74, 64
2, 253920, Note_on_c, 0, 77, 105
2, 254052, Note_off_c, 0, 77, 64
2, 255360, Note_on_c, 0, 70, 105
2, 255492, Note_off_c, 0, 70, 64
2, 255600, Note_on_c, 0, 74, 105
2, 255732, Note_off_c, 0, 74, 64
2, 255840, Note_on_c, 0, 77, 105
2, 255972, Note_off_c, 0, 77, 64
2, 256080, Note_on_c, 0, 82, 105
2, 256212, Note_off_c, 0, 82, 64
2, 256320, Note_on_c, 0, 77, 105
2, 256452, Note_off_c, 0, 77, 64
2, 256560, Note_on_c, 0, 74, 105
2, 256692, Note_off_c, 0, 74, 64
2, 256800, Note_on_c, 0, 70, 105
2, 256932, Note_off_c, 0, 70, 64
2, 256932, End_track
3, 0, Start_track
3, 0, Program_c, 1, 70
3, 0, Control_c, 1, 7, 91
3, 0, Control_c, 1, 91, 80
3, 0, Control_c, 1, 10, 80
3, 480, Note_on_c, 1, 46, 105
3, 672, Note_off_c, 1, 46, 64
3, 2400, Note_on_c, 1, 53, 105
3, 2592, Note_off_c, 1, 53, 64
3, 4320, Note_on_c, 1, 46, 70
3, 4512, Note_off_c, 1, 46, 64
3, 5280, Note_on_c, 1, 46, 70
3, 5472, Note_off_c, 1, 46, 64
3, 5760, Note_on_c, 1, 53, 70
3, 5952, Note_off_c, 1, 53, 64
3, 6240, Note_on_c, 1, 58, 70
3, 6432, Note_off_c, 1, 58, 64
3, 8160, Note_on_c, 1, 46, 105
3, 8352, Note_off_c, 1, 46, 64
3, 10080, Note_on_c, 1, 53, 105
3, 10272, Note_off_c, 1, 53, 64
3, 12000, Note_on_c, 1, 46, 70
3, 12192, Note_off_c, 1, 46, 64
3, 12960, Note_on_c, 1, 46, 70
3, 13152, Note_off_c, 1, 46, 64
3, 13440, Note_on_c, 1, 53, 70
3, 13632, Note_off_c, 1, 53, 64
3, 13920, Note_on_c, 1, 58, 70
3, 14112, Note_off_c, 1, 58, 64
3, 14640, Note_on_c, 1, 51, 70
3, 14706, Note_off_c, 1, 51, 64
3, 14880, Note_on_c, 1, 53, 70
3, 14946, Note_off_c, 1, 53, 64
3, 15120, Note_on_c, 1, 41, 70
3, 15186, Note_off_c, 1, 41, 64
3, 15360, Note_on_c, 1, 46, 105
3, 15552, Note_off_c, 1, 46, 64
3, 15600, Note_on_c, 1, 46, 105
3, 15664, Note_off_c, 1, 46, 64
3, 15680, Note_on_c, 1, 46, 105
3, 15744, Note_off_c, 1, 46, 64
3, 15760, Note_on_c, 1, 46, 105
3, 15824, Note_off_c, 1, 46, 64
3, 15840, Note_on_c, 1, 46, 105
3, 15904, Note_off_c, 1, 46, 64
3, 15920, Note_on_c, 1, 46, 105
3, 15984, Note_off_c, 1, 46, 64
3, 16000, Note_on_c, 1, 46, 105
3, 16064, Note_off_c, 1, 46, 64
3, 16080, Note_on_c, 1, 46, 105
3, 16144, Note_off_c, 1, 46, 64
3, 16160, Note_on_c, 1, 46, 105
3, 16224, Note_off_c, 1, 46, 64
3, 16240, Note_on_c, 1, 46, 105
3, 16304, Note_off_c, 1, 46, 64
3, 16320, Note_on_c, 1, 46, 105
3, 16452, Note_off_c, 1, 46, 64
3, 16560, Note_on_c, 1, 50, 105
3, 16692, Note_off_c, 1, 50, 64
3, 16800, Note_on_c, 1, 53, 105
3, 16932, Note_off_c, 1, 53, 64
3, 17280, Note_on_c, 1, 50, 70
3, 17412, Note_off_c, 1, 50, 64
3, 17520, Note_on_c, 1, 53, 70
3, 17652, Note_off_c, 1, 53, 64
3, 17760, Note_on_c, 1, 58, 70
3, 17892, Note_off_c, 1, 58, 64
3, 18240, Note_on_c, 1, 46, 105
3, 18372, Note_off_c, 1, 46, 64
3, 18480, Note_on_c, 1, 50, 105
3, 18612, Note_off_c, 1, 50, 64
3, 18720, Note_on_c, 1, 53, 105
3, 18852, Note_off_c, 1, 53, 64
3, 18960, Note_on_c, 1, 58, 105
3, 19092, Note_off_c, 1, 58, 64
3, 19200, Note_on_c, 1, 53, 105
3, 19332, Note_off_c, 1, 53, 64
3, 19440, Note_on_c, 1, 50, 105
3, 19572, Note_off_c, 1, 50, 64
3, 19680, Note_on_c, 1, 46, 105
3, 19812, Note_off_c, 1, 46, 64
3, 21840, Note_on_c, 1, 50, 70
3, 21936, Note_off_c, 1, 50, 64
3, 22080, Note_on_c, 1, 55, 70
3, 22176, Note_off_c, 1, 55, 64
3, 22320, Note_on_c, 1, 50, 70
3, 22416, Note_off_c, 1, 50, 64
3, 22560, Note_on_c, 1, 55, 70
3, 22656, Note_off_c, 1, 55, 64
3, 22800, Note_on_c, 1, 50, 70
3, 22896, Note_off_c, 1, 50, 64
3, 23040, Note_on_c, 1, 55, 70
3, 23232, Note_off_c, 1, 55, 64
3, 25680, Note_on_c, 1, 48, 70
3, 25776, Note_off_c, 1, 48, 64
3, 25920, Note_on_c, 1, 53, 70
3, 26016, Note_off_c, 1, 53, 64
3, 26160, Note_on_c, 1, 48, 70
3, 26256, Note_off_c, 1, 48, 64
3, 26400, Note_on_c, 1, 53, 70
3, 26496, Note_off_c, 1, 53, 64
3, 26640, Note_on_c, 1, 48, 70
3, 26736, Note_off_c, 1, 48, 64
3, 26880, Note_on_c, 1, 53, 70
3, 27072, Note_off_c, 1, 53, 64
3, 27600, Note_on_c, 1, 45, 70
3, 27672, Note_off_c, 1, 45, 64
3, 27840, Note_on_c, 1, 46, 70
3, 27912, Note_off_c, 1, 46, 64
3, 28080, Note_on_c, 1, 49, 70
3, 28152, Note_off_c, 1, 49, 64
3, 28320, Note_on_c, 1, 50, 70
3, 28392, Note_off_c, 1, 50, 64
3, 28560, Note_on_c, 1, 55, 70
3, 28632, Note_off_c, 1, 55, 64
3, 28800, Note_on_c, 1, 58, 70
3, 29160, Note_off_c, 1, 58, 64
3, 29160, Note_on_c, 1, 60, 70
3, 29220, Note_off_c, 1, 60, 64
3, 29220, Note_on_c, 1, 58, 70
3, 29280, Note_off_c, 1, 58, 64
3, 29280, Note_on_c, 1, 55, 70
3, 29352, Note_off_c, 1, 55, 64
3, 29520, Note_on_c, 1, 45, 70
3, 29592, Note_off_c, 1, 45, 64
3, 29760, Note_on_c, 1, 46, 70
3, 29832, Note_off_c, 1, 46, 64
3, 30000, Note_on_c, 1, 49, 70
3, 30072, Note_off_c, 1, 49, 64
3, 30240, Note_on_c, 1, 50, 70
3, 30312, Note_off_c, 1, 50, 64
3, 30480, Note_on_c, 1, 55, 70
3, 30552, Note_off_c, 1, 55, 64
3, 30720, Note_on_c, 1, 58, 70
3, 31080, Note_off_c, 1, 58, 64
3, 31080, Note_on_c, 1, 60, 70
3, 31140, Note_off_c, 1, 60, 64
3, 31140, Note_on_c, 1, 58, 70
3, 31200, Note_off_c, 1, 58, 64
3, 31200, Note_on_c, 1, 55, 70
3, 31392, Note_off_c, 1, 55, 64
3, 31680, Note_on_c, 1, 58, 70
3, 33120, Note_off_c, 1, 58, 64
3, 33120, Note_on_c, 1, 59, 70
3, 33504, Note_off_c, 1, 59, 64
3, 33600, Note_on_c, 1, 60, 105
3, 33672, Note_off_c, 1, 60, 64
3, 33720, Note_on_c, 1, 59, 105
3, 33792, Note_off_c, 1, 59, 64
3, 33840, Note_on_c, 1, 60, 105
3, 33912, Note_off_c, 1, 60, 64
3, 33960, Note_on_c, 1, 59, 105
3, 34032, Note_off_c, 1, 59, 64
3, 34080, Note_on_c, 1, 58, 105
3, 34152, Note_off_c, 1, 58, 64
3, 34200, Note_on_c, 1, 57, 105
3, 34272, Note_off_c, 1, 57, 64
3, 34320, Note_on_c, 1, 58, 105
3, 34392, Note_off_c, 1, 58, 64
3, 34440, Note_on_c, 1, 57, 105
3, 34512, Note_off_c, 1, 57, 64
3, 34560, Note_on_c, 1, 55, 105
3, 34632, Note_off_c, 1, 55, 64
3, 34680, Note_on_c, 1, 54, 105
3, 34752, Note_off_c, 1, 54, 64
3, 34800, Note_on_c, 1, 55, 105
3, 34872, Note_off_c, 1, 55, 64
3, 34920, Note_on_c, 1, 53, 105
3, 34992, Note_off_c, 1, 53, 64
3, 35040, Note_on_c, 1, 52, 105
3, 35112, Note_off_c, 1, 52, 64
3, 35160, Note_on_c, 1, 51, 105
3, 35232, Note_off_c, 1, 51, 64
3, 35280, Note_on_c, 1, 52, 105
3, 35352, Note_off_c, 1, 52, 64
3, 35400, Note_on_c, 1, 50, 105
3, 35472, Note_off_c, 1, 50, 64
3, 35520, Note_on_c, 1, 48, 105
3, 35592, Note_off_c, 1, 48, 64
3, 35640, Note_on_c, 1, 60, 105
3, 35712, Note_off_c, 1, 60, 64
3, 35760, Note_on_c, 1, 60, 105
3, 35832, Note_off_c, 1, 60, 64
3, 35880, Note_on_c, 1, 60, 105
3, 35952, Note_off_c, 1, 60, 64
3, 36000, Note_on_c, 1, 48, 105
3, 36072, Note_off_c, 1, 48, 64
3, 36120, Note_on_c, 1, 60, 105
3, 36192, Note_off_c, 1, 60, 64
3, 36240, Note_on_c, 1, 60, 105
3, 36312, Note_off_c, 1, 60, 64
3, 36360, Note_on_c, 1, 60, 105
3, 36432, Note_off_c, 1, 60, 64
3, 36480, Note_on_c, 1, 60, 105
3, 36552, Note_off_c, 1, 60, 64
3, 36600, Note_on_c, 1, 60, 105
3, 36672, Note_off_c, 1, 60, 64
3, 36720, Note_on_c, 1, 60, 105
3, 36792, Note_off_c, 1, 60, 64
3, 36840, Note_on_c, 1, 60, 105
3, 36912, Note_off_c, 1, 60, 64
3, 36960, Note_on_c, 1, 60, 105
3, 37032, Note_off_c, 1, 60, 64
3, 37080, Note_on_c, 1, 60, 105
3, 37152, Note_off_c, 1, 60, 64
3, 37200, Note_on_c, 1, 60, 105
3, 37272, Note_off_c, 1, 60, 64
3, 37320, Note_on_c, 1, 60, 105
3, 37392, Note_off_c, 1, 60, 64
3, 37440, Note_on_c, 1, 48, 70
3, 39240, Note_off_c, 1, 48, 64
3, 39240, Note_on_c, 1, 50, 70
3, 39300, Note_off_c, 1, 50, 64
3, 39300, Note_on_c, 1, 52, 70
3, 39360, Note_off_c, 1, 52, 64
3, 39360, Note_on_c, 1, 53, 70
3, 39552, Note_off_c, 1, 53, 64
3, 48000, Note_on_c, 1, 57, 70
3, 48000, Note_on_c, 1, 60, 70
3, 48960, Note_off_c, 1, 60, 64
3, 48960, Note_off_c, 1, 57, 64
3, 48960, Note_on_c, 1, 58, 70
3, 48960, Note_on_c, 1, 55, 70
3, 49152, Note_off_c, 1, 55, 64
3, 49152, Note_off_c, 1, 58, 64
3, 49920, Note_on_c, 1, 55, 70
3, 49920, Note_on_c, 1, 58, 70
3, 50880, Note_off_c, 1, 58, 64
3, 50880, Note_off_c, 1, 55, 64
3, 50880, Note_on_c, 1, 53, 70
3, 50880, Note_on_c, 1, 57, 70
3, 51072, Note_off_c, 1, 57, 64
3, 51072, Note_off_c, 1, 53, 64
3, 54960, Note_on_c, 1, 57, 105
3, 55092, Note_off_c, 1, 57, 64
3, 55200, Note_on_c, 1, 55, 105
3, 55332, Note_off_c, 1, 55, 64
3, 55440, Note_on_c, 1, 48, 105
3, 55572, Note_off_c, 1, 48, 64
3, 55680, Note_on_c, 1, 53, 105
3, 55812, Note_off_c, 1, 53, 64
3, 55920, Note_on_c, 1, 62, 105
3, 56052, Note_off_c, 1, 62, 64
3, 56160, Note_on_c, 1, 60, 105
3, 56292, Note_off_c, 1, 60, 64
3, 56400, Note_on_c, 1, 53, 105
3, 56532, Note_off_c, 1, 53, 64
3, 56640, Note_on_c, 1, 58, 105
3, 56772, Note_off_c, 1, 58, 64
3, 56880, Note_on_c, 1, 57, 105
3, 57012, Note_off_c, 1, 57, 64
3, 57120, Note_on_c, 1, 55, 105
3, 57252, Note_off_c, 1, 55, 64
3, 57360, Note_on_c, 1, 52, 105
3, 57492, Note_off_c, 1, 52, 64
3, 57600, Note_on_c, 1, 53, 105
3, 57732, Note_off_c, 1, 53, 64
3, 57840, Note_on_c, 1, 62, 105
3, 57972, Note_off_c, 1, 62, 64
3, 58080, Note_on_c, 1, 58, 105
3, 58212, Note_off_c, 1, 58, 64
3, 58320, Note_on_c, 1, 60, 105
3, 58452, Note_off_c, 1, 60, 64
3, 58560, Note_on_c, 1, 53, 92
3, 58752, Note_off_c, 1, 53, 64
3, 58800, Note_on_c, 1, 57, 105
3, 58932, Note_off_c, 1, 57, 64
3, 59040, Note_on_c, 1, 55, 105
3, 59172, Note_off_c, 1, 55, 64
3, 59280, Note_on_c, 1, 48, 105
3, 59412, Note_off_c, 1, 48, 64
3, 59520, Note_on_c, 1, 53, 105
3, 59652, Note_off_c, 1, 53, 64
3, 59760, Note_on_c, 1, 62, 105
3, 59892, Note_off_c, 1, 62, 64
3, 60000, Note_on_c, 1, 60, 105
3, 60132, Note_off_c, 1, 60, 64
3, 60240, Note_on_c, 1, 53, 105
3, 60372, Note_off_c, 1, 53, 64
3, 60480, Note_on_c, 1, 58, 105
3, 60612, Note_off_c, 1, 58, 64
3, 60720, Note_on_c, 1, 57, 105
3, 60852, Note_off_c, 1, 57, 64
3, 60960, Note_on_c, 1, 55, 105
3, 61092, Note_off_c, 1, 55, 64
3, 61200, Note_on_c, 1, 52, 105
3, 61332, Note_off_c, 1, 52, 64
3, 61440, Note_on_c, 1, 53, 105
3, 61572, Note_off_c, 1, 53, 64
3, 61680, Note_on_c, 1, 62, 105
3, 61812, Note_off_c, 1, 62, 64
3, 61920, Note_on_c, 1, 58, 105
3, 62052, Note_off_c, 1, 58, 64
3, 62160, Note_on_c, 1, 60, 105
3, 62292, Note_off_c, 1, 60, 64
3, 62400, Note_on_c, 1, 53, 92
3, 62592, Note_off_c, 1, 53, 64
3, 62640, Note_on_c, 1, 53, 70
3, 62712, Note_off_c, 1, 53, 64
3, 62760, Note_on_c, 1, 52, 70
3, 62760, Note_on_c, 1, 55, 70
3, 62832, Note_off_c, 1, 55, 64
3, 62832, Note_off_c, 1, 52, 64
3, 62880, Note_on_c, 1, 57, 70
3, 62880, Note_on_c, 1, 53, 70
3, 63024, Note_off_c, 1, 53, 64
3, 63024, Note_off_c, 1, 57, 64
3, 63120, Note_on_c, 1, 53, 70
3, 63120, Note_on_c, 1, 57, 70
3, 63192, Note_off_c, 1, 57, 64
3, 63192, Note_off_c, 1, 53, 64
3, 63240, Note_on_c, 1, 58, 70
3, 63240, Note_on_c, 1, 55, 70
3, 63312, Note_off_c, 1, 55, 64
3, 63312, Note_off_c, 1, 58, 64
3, 63360, Note_on_c, 1, 60, 70
3, 63360, Note_on_c, 1, 57, 70
3, 63504, Note_off_c, 1, 57, 64
3, 63504, Note_off_c, 1, 60, 64
3, 63600, Note_on_c, 1, 57, 70
3, 63600, Note_on_c, 1, 60, 70
3, 63672, Note_off_c, 1, 60, 64
3, 63672, Note_off_c, 1, 57, 64
3, 63720, Note_on_c, 1, 60, 70
3, 63720, Note_on_c, 1, 57, 70
3, 63792, Note_off_c, 1, 57, 64
3, 63792, Note_off_c, 1, 60, 64
3, 63840, Note_on_c, 1, 62, 90
3, 63840, Note_on_c, 1, 58, 70
3, 63870, Note_off_c, 1, 58, 64
3, 63870, Note_off_c, 1, 62, 64
3, 63870, Note_on_c, 1, 57, 70
3, 63870, Note_on_c, 1, 60, 90
3, 63900, Note_off_c, 1, 60, 64
3, 63900, Note_off_c, 1, 57, 64
3, 63900, Note_on_c, 1, 58, 70
3, 63900, Note_on_c, 1, 62, 90
3, 63930, Note_off_c, 1, 62, 64
3, 63930, Note_off_c, 1, 58, 64
3, 63930, Note_on_c, 1, 57, 70
3, 63930, Note_on_c, 1, 60, 90
3, 63960, Note_off_c, 1, 60, 64
3, 63960, Note_off_c, 1, 57, 64
3, 63960, Note_on_c, 1, 58, 70
3, 63960, Note_on_c, 1, 62, 90
3, 63990, Note_off_c, 1, 62, 64
3, 63990, Note_off_c, 1, 58, 64
3, 63990, Note_on_c, 1, 57, 70
3, 63990, Note_on_c, 1, 60, 90
3, 64020, Note_off_c, 1, 60, 64
3, 64020, Note_off_c, 1, 57, 64
3, 64020, Note_on_c, 1, 62, 70
3, 64020, Note_on_c, 1, 58, 70
3, 64050, Note_off_c, 1, 58, 64
3, 64050, Note_off_c, 1, 62, 64
3, 64050, Note_on_c, 1, 60, 70
3, 64050, Note_on_c, 1, 57, 70
3, 64068, Note_off_c, 1, 57, 64
3, 64068, Note_off_c, 1, 60, 64
3, 64080, Note_on_c, 1, 62, 70
3, 64080, Note_on_c, 1, 58, 70
3, 64152, Note_off_c, 1, 58, 64
3, 64152, Note_off_c, 1, 62, 64
3, 64200, Note_on_c, 1, 60, 70
3, 64200, Note_on_c, 1, 57, 70
3, 64272, Note_off_c, 1, 57, 64
3, 64272, Note_off_c, 1, 60, 64
3, 64320, Note_on_c, 1, 58, 70
3, 64320, Note_on_c, 1, 55, 70
3, 64464, Note_off_c, 1, 55, 64
3, 64464, Note_off_c, 1, 58, 64
3, 64560, Note_on_c, 1, 55, 70
3, 64560, Note_on_c, 1, 58, 70
3, 64632, Note_off_c, 1, 58, 64
3, 64632, Note_off_c, 1, 55, 64
3, 64680, Note_on_c, 1, 58, 70
3, 64680, Note_on_c, 1, 55, 70
3, 64752, Note_off_c, 1, 55, 64
3, 64752, Note_off_c, 1, 58, 64
3, 64800, Note_on_c, 1, 57, 70
3, 64800, Note_on_c, 1, 60, 90
3, 64830, Note_off_c, 1, 60, 64
3, 64830, Note_off_c, 1, 57, 64
3, 64830, Note_on_c, 1, 55, 70
3, 64830, Note_on_c, 1, 58, 90
3, 64860, Note_off_c, 1, 58, 64
3, 64860, Note_off_c, 1, 55, 64
3, 64860, Note_on_c, 1, 57, 70
3, 64860, Note_on_c, 1, 60, 90
3, 64890, Note_off_c, 1, 60, 64
3, 64890, Note_off_c, 1, 57, 64
3, 64890, Note_on_c, 1, 55, 70
3, 64890, Note_on_c, 1, 58, 90
3, 64920, Note_off_c, 1, 58, 64
3, 64920, Note_off_c, 1, 55, 64
3, 64920, Note_on_c, 1, 57, 70
3, 64920, Note_on_c, 1, 60, 90
3, 64950, Note_off_c, 1, 60, 64
3, 64950, Note_off_c, 1, 57, 64
3, 64950, Note_on_c, 1, 55, 70
3, 64950, Note_on_c, 1, 58, 90
3, 64980, Note_off_c, 1, 58, 64
3, 64980, Note_off_c, 1, 55, 64
3, 64980, Note_on_c, 1, 60, 70
3, 64980, Note_on_c, 1, 57, 70
3, 65010, Note_off_c, 1, 57, 64
3, 65010, Note_off_c, 1, 60, 64
3, 65010, Note_on_c, 1, 58, 70
3, 65010, Note_on_c, 1, 55, 70
3, 65028, Note_off_c, 1, 55, 64
3, 65028, Note_off_c, 1, 58, 64
3, 65040, Note_on_c, 1, 60, 70
3, 65040, Note_on_c, 1, 57, 70
3, 65112, Note_off_c, 1, 57, 64
3, 65112, Note_off_c, 1, 60, 64
3, 65160, Note_on_c, 1, 58, 70
3, 65160, Note_on_c, 1, 55, 70
3, 65232, Note_off_c, 1, 55, 64
3, 65232, Note_off_c, 1, 58, 64
3, 65280, Note_on_c, 1, 57, 70
3, 65280, Note_on_c, 1, 53, 70
3, 65424, Note_off_c, 1, 53, 64
3, 65424, Note_off_c, 1, 57, 64
3, 65520, Note_on_c, 1, 55, 70
3, 65520, Note_on_c, 1, 58, 70
3, 65592, Note_off_c, 1, 58, 64
3, 65592, Note_off_c, 1, 55, 64
3, 65640, Note_on_c, 1, 57, 70
3, 65640, Note_on_c, 1, 60, 70
3, 65712, Note_off_c, 1, 60, 64
3, 65712, Note_off_c, 1, 57, 64
3, 65760, Note_on_c, 1, 57, 70
3, 65760, Note_on_c, 1, 60, 70
3, 65880, Note_off_c, 1, 60, 64
3, 65880, Note_off_c, 1, 57, 64
3, 65880, Note_on_c, 1, 58, 70
3, 65880, Note_on_c, 1, 55, 70
3, 65952, Note_off_c, 1, 55, 64
3, 65952, Note_off_c, 1, 58, 64
3, 66000, Note_on_c, 1, 53, 70
3, 66000, Note_on_c, 1, 57, 70
3, 66072, Note_off_c, 1, 57, 64
3, 66072, Note_off_c, 1, 53, 64
3, 66120, Note_on_c, 1, 55, 70
3, 66120, Note_on_c, 1, 52, 70
3, 66192, Note_off_c, 1, 52, 64
3, 66192, Note_off_c, 1, 55, 64
3, 66240, Note_on_c, 1, 53, 105
3, 66384, Note_off_c, 1, 53, 64
3, 66480, Note_on_c, 1, 53, 105
3, 66552, Note_off_c, 1, 53, 64
3, 66600, Note_on_c, 1, 55, 105
3, 66600, Note_on_c, 1, 52, 105
3, 66672, Note_off_c, 1, 52, 64
3, 66672, Note_off_c, 1, 55, 64
3, 66720, Note_on_c, 1, 53, 105
3, 66720, Note_on_c, 1, 57, 105
3, 66864, Note_off_c, 1, 57, 64
3, 66864, Note_off_c, 1, 53, 64
3, 66960, Note_on_c, 1, 57, 105
3, 66960, Note_on_c, 1, 53, 105
3, 67032, Note_off_c, 1, 53, 64
3, 67032, Note_off_c, 1, 57, 64
3, 67080, Note_on_c, 1, 58, 105
3, 67080, Note_on_c, 1, 55, 105
3, 67152, Note_off_c, 1, 55, 64
3, 67152, Note_off_c, 1, 58, 64
3, 67200, Note_on_c, 1, 60, 105
3, 67200, Note_on_c, 1, 57, 105
3, 67344, Note_off_c, 1, 57, 64
3, 67344, Note_off_c, 1, 60, 64
3, 67440, Note_on_c, 1, 60, 105
3, 67440, Note_on_c, 1, 57, 105
3, 67512, Note_off_c, 1, 57, 64
3, 67512, Note_off_c, 1, 60, 64
3, 67560, Note_on_c, 1, 57, 105
3, 67560, Note_on_c, 1, 60, 105
3, 67632, Note_off_c, 1, 60, 64
3, 67632, Note_off_c, 1, 57, 64
3, 67680, Note_on_c, 1, 62, 105
3, 67680, Note_on_c, 1, 58, 105
3, 67710, Note_off_c, 1, 58, 64
3, 67710, Note_off_c, 1, 62, 64
3, 67710, Note_on_c, 1, 60, 105
3, 67710, Note_on_c, 1, 57, 105
3, 67740, Note_off_c, 1, 57, 64
3, 67740, Note_off_c, 1, 60, 64
3, 67740, Note_on_c, 1, 58, 105
3, 67740, Note_on_c, 1, 62, 105
3, 67770, Note_off_c, 1, 62, 64
3, 67770, Note_off_c, 1, 58, 64
3, 67770, Note_on_c, 1, 60, 105
3, 67770, Note_on_c, 1, 57, 105
3, 67800, Note_off_c, 1, 57, 64
3, 67800, Note_off_c, 1, 60, 64
3, 67800, Note_on_c, 1, 62, 105
3, 67800, Note_on_c, 1, 58, 105
3, 67830, Note_off_c, 1, 58, 64
3, 67830, Note_off_c, 1, 62, 64
3, 67830, Note_on_c, 1, 57, 105
3, 67830, Note_on_c, 1, 60, 105
3, 67860, Note_off_c, 1, 60, 64
3, 67860, Note_off_c, 1, 57, 64
3, 67860, Note_on_c, 1, 62, 105
3, 67860, Note_on_c, 1, 58, 105
3, 67890, Note_off_c, 1, 58, 64
3, 67890, Note_off_c, 1, 62, 64
3, 67890, Note_on_c, 1, 57, 105
3, 67890, Note_on_c, 1, 60, 105
3, 67914, Note_off_c, 1, 60, 64
3, 67914, Note_off_c, 1, 57, 64
3, 67920, Note_on_c, 1, 58, 105
3, 67920, Note_on_c, 1, 62, 105
3, 67992, Note_off_c, 1, 62, 64
3, 67992, Note_off_c, 1, 58, 64
3, 68040, Note_on_c, 1, 57, 105
3, 68040, Note_on_c, 1, 60, 105
3, 68112, Note_off_c, 1, 60, 64
3, 68112, Note_off_c, 1, 57, 64
3, 68160, Note_on_c, 1, 55, 105
3, 68160, Note_on_c, 1, 58, 105
3, 68304, Note_off_c, 1, 58, 64
3, 68304, Note_off_c, 1, 55, 64
3, 68400, Note_on_c, 1, 55, 105
3, 68400, Note_on_c, 1, 58, 105
3, 68472, Note_off_c, 1, 58, 64
3, 68472, Note_off_c, 1, 55, 64
3, 68520, Note_on_c, 1, 58, 105
3, 68520, Note_on_c, 1, 55, 105
3, 68592, Note_off_c, 1, 55, 64
3, 68592, Note_off_c, 1, 58, 64
3, 68640, Note_on_c, 1, 60, 105
3, 68640, Note_on_c, 1, 57, 105
3, 68670, Note_off_c, 1, 57, 64
3, 68670, Note_off_c, 1, 60, 64
3, 68670, Note_on_c, 1, 55, 105
3, 68670, Note_on_c, 1, 58, 105
3, 68700, Note_off_c, 1, 58, 64
3, 68700, Note_off_c, 1, 55, 64
3, 68700, Note_on_c, 1, 57, 105
3, 68700, Note_on_c, 1, 60, 105
3, 68730, Note_off_c, 1, 60, 64
3, 68730, Note_off_c, 1, 57, 64
3, 68730, Note_on_c, 1, 58, 105
3, 68730, Note_on_c, 1, 55, 105
3, 68760, Note_off_c, 1, 55, 64
3, 68760, Note_off_c, 1, 58, 64
3, 68760, Note_on_c, 1, 57, 105
3, 68760, Note_on_c, 1, 60, 105
3, 68790, Note_off_c, 1, 60, 64
3, 68790, Note_off_c, 1, 57, 64
3, 68790, Note_on_c, 1, 55, 105
3, 68790, Note_on_c, 1, 58, 105
3, 68820, Note_off_c, 1, 58, 64
3, 68820, Note_off_c, 1, 55, 64
3, 68820, Note_on_c, 1, 60, 105
3, 68820, Note_on_c, 1, 57, 105
3, 68850, Note_off_c, 1, 57, 64
3, 68850, Note_off_c, 1, 60, 64
3, 68850, Note_on_c, 1, 55, 105
3, 68850, Note_on_c, 1, 58, 105
3, 68874, Note_off_c, 1, 58, 64
3, 68874, Note_off_c, 1, 55, 64
3, 68880, Note_on_c, 1, 57, 105
3, 68880, Note_on_c, 1, 60, 105
3, 68952, Note_off_c, 1, 60, 64
3, 68952, Note_off_c, 1, 57, 64
3, 69000, Note_on_c, 1, 55, 105
3, 69000, Note_on_c, 1, 58, 105
3, 69072, Note_off_c, 1, 58, 64
3, 69072, Note_off_c, 1, 55, 64
3, 69120, Note_on_c, 1, 53, 105
3, 69120, Note_on_c, 1, 57, 105
3, 69264, Note_off_c, 1, 57, 64
3, 69264, Note_off_c, 1, 53, 64
3, 69360, Note_on_c, 1, 58, 105
3, 69360, Note_on_c, 1, 55, 105
3, 69432, Note_off_c, 1, 55, 64
3, 69432, Note_off_c, 1, 58, 64
3, 69480, Note_on_c, 1, 60, 105
3, 69480, Note_on_c, 1, 57, 105
3, 69552, Note_off_c, 1, 57, 64
3, 69552, Note_off_c, 1, 60, 64
3, 69600, Note_on_c, 1, 57, 105
3, 69600, Note_on_c, 1, 60, 105
3, 69720, Note_off_c, 1, 60, 64
3, 69720, Note_off_c, 1, 57, 64
3, 69720, Note_on_c, 1, 58, 105
3, 69720, Note_on_c, 1, 55, 105
3, 69792, Note_off_c, 1, 55, 64
3, 69792, Note_off_c, 1, 58, 64
3, 69840, Note_on_c, 1, 53, 105
3, 69840, Note_on_c, 1, 57, 105
3, 69912, Note_off_c, 1, 57, 64
3, 69912, Note_off_c, 1, 53, 64
3, 69960, Note_on_c, 1, 55, 105
3, 69960, Note_on_c, 1, 52, 105
3, 70032, Note_off_c, 1, 52, 64
3, 70032, Note_off_c, 1, 55, 64
3, 70080, Note_on_c, 1, 53, 105
3, 70272, Note_off_c, 1, 53, 64
3, 70800, Note_on_c, 1, 48, 105
3, 70932, Note_off_c, 1, 48, 64
3, 71040, Note_on_c, 1, 53, 105
3, 71172, Note_off_c, 1, 53, 64
3, 71760, Note_on_c, 1, 60, 105
3, 71892, Note_off_c, 1, 60, 64
3, 72000, Note_on_c, 1, 53, 105
3, 72132, Note_off_c, 1, 53, 64
3, 72720, Note_on_c, 1, 48, 105
3, 72852, Note_off_c, 1, 48, 64
3, 72960, Note_on_c, 1, 53, 105
3, 73092, Note_off_c, 1, 53, 64
3, 73680, Note_on_c, 1, 60, 105
3, 73812, Note_off_c, 1, 60, 64
3, 73920, Note_on_c, 1, 53, 105
3, 73920, Note_on_c, 1, 41, 105
3, 74304, Note_off_c, 1, 41, 64
3, 74304, Note_off_c, 1, 53, 64
3, 74400, Note_on_c, 1, 60, 105
3, 74400, Note_on_c, 1, 48, 105
3, 74784, Note_off_c, 1, 48, 64
3, 74784, Note_off_c, 1, 60, 64
3, 74880, Note_on_c, 1, 50, 105
3, 74880, Note_on_c, 1, 38, 105
3, 75264, Note_off_c, 1, 38, 64
3, 75264, Note_off_c, 1, 50, 64
3, 75360, Note_on_c, 1, 57, 105
3, 75360, Note_on_c, 1, 45, 105
3, 75744, Note_off_c, 1, 45, 64
3, 75744, Note_off_c, 1, 57, 64
3, 75840, Note_on_c, 1, 58, 105
3, 75840, Note_on_c, 1, 46, 105
3, 75957, Note_off_c, 1, 46, 64
3, 75957, Note_off_c, 1, 58, 64
3, 76020, Note_on_c, 1, 58, 105
3, 76020, Note_on_c, 1, 46, 105
3, 76059, Note_off_c, 1, 46, 64
3, 76059, Note_off_c, 1, 58, 64
3, 76080, Note_on_c, 1, 45, 105
3, 76080, Note_on_c, 1, 57, 105
3, 76197, Note_off_c, 1, 57, 64
3, 76197, Note_off_c, 1, 45, 64
3, 76260, Note_on_c, 1, 43, 105
3, 76260, Note_on_c, 1, 55, 105
3, 76299, Note_off_c, 1, 55, 64
3, 76299, Note_off_c, 1, 43, 64
3, 76320, Note_on_c, 1, 48, 105
3, 76320, Note_on_c, 1, 60, 105
3, 76476, Note_off_c, 1, 60, 64
3, 76476, Note_off_c, 1, 48, 64
3, 76560, Note_on_c, 1, 48, 105
3, 76716, Note_off_c, 1, 48, 64
3, 76800, Note_on_c, 1, 53, 105
3, 76956, Note_off_c, 1, 53, 64
3, 77040, Note_on_c, 1, 53, 105
3, 77196, Note_off_c, 1, 53, 64
3, 77280, Note_on_c, 1, 53, 105
3, 77472, Note_off_c, 1, 53, 64
3, 77760, Note_on_c, 1, 46, 105
3, 77952, Note_off_c, 1, 46, 64
3, 79680, Note_on_c, 1, 53, 105
3, 79872, Note_off_c, 1, 53, 64
3, 81600, Note_on_c, 1, 46, 70
3, 81792, Note_off_c, 1, 46, 64
3, 82560, Note_on_c, 1, 46, 70
3, 82752, Note_off_c, 1, 46, 64
3, 83040, Note_on_c, 1, 53, 70
3, 83232, Note_off_c, 1, 53, 64
3, 83520, Note_on_c, 1, 58, 70
3, 83712, Note_off_c, 1, 58, 64
3, 85440, Note_on_c, 1, 46, 105
3, 85632, Note_off_c, 1, 46, 64
3, 87360, Note_on_c, 1, 53, 105
3, 87552, Note_off_c, 1, 53, 64
3, 89280, Note_on_c, 1, 46, 70
3, 89472, Note_off_c, 1, 46, 64
3, 90240, Note_on_c, 1, 46, 70
3, 90432, Note_off_c, 1, 46, 64
3, 90720, Note_on_c, 1, 53, 70
3, 90912, Note_off_c, 1, 53, 64
3, 91200, Note_on_c, 1, 58, 70
3, 91392, Note_off_c, 1, 58, 64
3, 91920, Note_on_c, 1, 51, 70
3, 91986, Note_off_c, 1, 51, 64
3, 92160, Note_on_c, 1, 53, 70
3, 92226, Note_off_c, 1, 53, 64
3, 92400, Note_on_c, 1, 41, 70
3, 92466, Note_off_c, 1, 41, 64
3, 92640, Note_on_c, 1, 46, 105
3, 92832, Note_off_c, 1, 46, 64
3, 92880, Note_on_c, 1, 46, 105
3, 92944, Note_off_c, 1, 46, 64
3, 92960, Note_on_c, 1, 46, 105
3, 93024, Note_off_c, 1, 46, 64
3, 93040, Note_on_c, 1, 46, 105
3, 93104, Note_off_c, 1, 46, 64
3, 93120, Note_on_c, 1, 46, 105
3, 93184, Note_off_c, 1, 46, 64
3, 93200, Note_on_c, 1, 46, 105
3, 93264, Note_off_c, 1, 46, 64
3, 93280, Note_on_c, 1, 46, 105
3, 93344, Note_off_c, 1, 46, 64
3, 93360, Note_on_c, 1, 46, 105
3, 93424, Note_off_c, 1, 46, 64
3, 93440, Note_on_c, 1, 46, 105
3, 93504, Note_off_c, 1, 46, 64
3, 93520, Note_on_c, 1, 46, 105
3, 93584, Note_off_c, 1, 46, 64
3, 93600, Note_on_c, 1, 46, 105
3, 93732, Note_off_c, 1, 46, 64
3, 93840, Note_on_c, 1, 50, 105
3, 93972, Note_off_c, 1, 50, 64
3, 94080, Note_on_c, 1, 53, 105
3, 94212, Note_off_c, 1, 53, 64
3, 94560, Note_on_c, 1, 50, 70
3, 94692, Note_off_c, 1, 50, 64
3, 94800, Note_on_c, 1, 53, 70
3, 94932, Note_off_c, 1, 53, 64
3, 95040, Note_on_c, 1, 58, 70
3, 95172, Note_off_c, 1, 58, 64
3, 95520, Note_on_c, 1, 46, 105
3, 95652, Note_off_c, 1, 46, 64
3, 95760, Note_on_c, 1, 50, 105
3, 95892, Note_off_c, 1, 50, 64
3, 96000, Note_on_c, 1, 53, 105
3, 96132, Note_off_c, 1, 53, 64
3, 96240, Note_on_c, 1, 58, 105
3, 96372, Note_off_c, 1, 58, 64
3, 96480, Note_on_c, 1, 53, 105
3, 96612, Note_off_c, 1, 53, 64
3, 96720, Note_on_c, 1, 50, 105
3, 96852, Note_off_c, 1, 50, 64
3, 96960, Note_on_c, 1, 46, 105
3, 97092, Note_off_c, 1, 46, 64
3, 99120, Note_on_c, 1, 50, 70
3, 99216, Note_off_c, 1, 50, 64
3, 99360, Note_on_c, 1, 55, 70
3, 99456, Note_off_c, 1, 55, 64
3, 99600, Note_on_c, 1, 50, 70
3, 99696, Note_off_c, 1, 50, 64
3, 99840, Note_on_c, 1, 55, 70
3, 99936, Note_off_c, 1, 55, 64
3, 100080, Note_on_c, 1, 50, 70
3, 100176, Note_off_c, 1, 50, 64
3, 100320, Note_on_c, 1, 55, 70
3, 100512, Note_off_c, 1, 55, 64
3, 102960, Note_on_c, 1, 48, 70
3, 103056, Note_off_c, 1, 48, 64
3, 103200, Note_on_c, 1, 53, 70
3, 103296, Note_off_c, 1, 53, 64
3, 103440, Note_on_c, 1, 48, 70
3, 103536, Note_off_c, 1, 48, 64
3, 103680, Note_on_c, 1, 53, 70
3, 103776, Note_off_c, 1, 53, 64
3, 103920, Note_on_c, 1, 48, 70
3, 104016, Note_off_c, 1, 48, 64
3, 104160, Note_on_c, 1, 53, 70
3, 104352, Note_off_c, 1, 53, 64
3, 104880, Note_on_c, 1, 45, 70
3, 104952, Note_off_c, 1, 45, 64
3, 105120, Note_on_c, 1, 46, 70
3, 105192, Note_off_c, 1, 46, 64
3, 105360, Note_on_c, 1, 49, 70
3, 105432, Note_off_c, 1, 49, 64
3, 105600, Note_on_c, 1, 50, 70
3, 105672, Note_off_c, 1, 50, 64
3, 105840, Note_on_c, 1, 55, 70
3, 105912, Note_off_c, 1, 55, 64
3, 106080, Note_on_c, 1, 58, 70
3, 106440, Note_off_c, 1, 58, 64
3, 106440, Note_on_c, 1, 60, 70
3, 106500, Note_off_c, 1, 60, 64
3, 106500, Note_on_c, 1, 58, 70
3, 106560, Note_off_c, 1, 58, 64
3, 106560, Note_on_c, 1, 55, 70
3, 106632, Note_off_c, 1, 55, 64
3, 106800, Note_on_c, 1, 45, 70
3, 106872, Note_off_c, 1, 45, 64
3, 107040, Note_on_c, 1, 46, 70
3, 107112, Note_off_c, 1, 46, 64
3, 107280, Note_on_c, 1, 49, 70
3, 107352, Note_off_c, 1, 49, 64
3, 107520, Note_on_c, 1, 50, 70
3, 107592, Note_off_c, 1, 50, 64
3, 107760, Note_on_c, 1, 55, 70
3, 107832, Note_off_c, 1, 55, 64
3, 108000, Note_on_c, 1, 58, 70
3, 108360, Note_off_c, 1, 58, 64
3, 108360, Note_on_c, 1, 60, 70
3, 108420, Note_off_c, 1, 60, 64
3, 108420, Note_on_c, 1, 58, 70
3, 108480, Note_off_c, 1, 58, 64
3, 108480, Note_on_c, 1, 55, 70
3, 108672, Note_off_c, 1, 55, 64
3, 108960, Note_on_c, 1, 58, 70
3, 110400, Note_off_c, 1, 58, 64
3, 110400, Note_on_c, 1, 59, 70
3, 110784, Note_off_c, 1, 59, 64
3, 110880, Note_on_c, 1, 60, 105
3, 110952, Note_off_c, 1, 60, 64
3, 111000, Note_on_c, 1, 59, 105
3, 111072, Note_off_c, 1, 59, 64
3, 111120, Note_on_c, 1, 60, 105
3, 111192, Note_off_c, 1, 60, 64
3, 111240, Note_on_c, 1, 59, 105
3, 111312, Note_off_c, 1, 59, 64
3, 111360, Note_on_c, 1, 58, 105
3, 111432, Note_off_c, 1, 58, 64
3, 111480, Note_on_c, 1, 57, 105
3, 111552, Note_off_c, 1, 57, 64
3, 111600, Note_on_c, 1, 58, 105
3, 111672, Note_off_c, 1, 58, 64
3, 111720, Note_on_c, 1, 57, 105
3, 111792, Note_off_c, 1, 57, 64
3, 111840, Note_on_c, 1, 55, 105
3, 111912, Note_off_c, 1, 55, 64
3, 111960, Note_on_c, 1, 54, 105
3, 112032, Note_off_c, 1, 54, 64
3, 112080, Note_on_c, 1, 55, 105
3, 112152, Note_off_c, 1, 55, 64
3, 112200, Note_on_c, 1, 53, 105
3, 112272, Note_off_c, 1, 53, 64
3, 112320, Note_on_c, 1, 52, 105
3, 112392, Note_off_c, 1, 52, 64
3, 112440, Note_on_c, 1, 51, 105
3, 112512, Note_off_c, 1, 51, 64
3, 112560, Note_on_c, 1, 52, 105
3, 112632, Note_off_c, 1, 52, 64
3, 112680, Note_on_c, 1, 50, 105
3, 112752, Note_off_c, 1, 50, 64
3, 112800, Note_on_c, 1, 48, 105
3, 112872, Note_off_c, 1, 48, 64
3, 112920, Note_on_c, 1, 60, 105
3, 112992, Note_off_c, 1, 60, 64
3, 113040, Note_on_c, 1, 60, 105
3, 113112, Note_off_c, 1, 60, 64
3, 113160, Note_on_c, 1, 60, 105
3, 113232, Note_off_c, 1, 60, 64
3, 113280, Note_on_c, 1, 48, 105
3, 113352, Note_off_c, 1, 48, 64
3, 113400, Note_on_c, 1, 60, 105
3, 113472, Note_off_c, 1, 60, 64
3, 113520, Note_on_c, 1, 60, 105
3, 113592, Note_off_c, 1, 60, 64
3, 113640, Note_on_c, 1, 60, 105
3, 113712, Note_off_c, 1, 60, 64
3, 113760, Note_on_c, 1, 60, 105
3, 113832, Note_off_c, 1, 60, 64
3, 113880, Note_on_c, 1, 60, 105
3, 113952, Note_off_c, 1, 60, 64
3, 114000, Note_on_c, 1, 60, 105
3, 114072, Note_off_c, 1, 60, 64
3, 114120, Note_on_c, 1, 60, 105
3, 114192, Note_off_c, 1, 60, 64
3, 114240, Note_on_c, 1, 60, 105
3, 114312, Note_off_c, 1, 60, 64
3, 114360, Note_on_c, 1, 60, 105
3, 114432, Note_off_c, 1, 60, 64
3, 114480, Note_on_c, 1, 60, 105
3, 114552, Note_off_c, 1, 60, 64
3, 114600, Note_on_c, 1, 60, 105
3, 114672, Note_off_c, 1, 60, 64
3, 114720, Note_on_c, 1, 48, 70
3, 116520, Note_off_c, 1, 48, 64
3, 116520, Note_on_c, 1, 50, 70
3, 116580, Note_off_c, 1, 50, 64
3, 116580, Note_on_c, 1, 52, 70
3, 116640, Note_off_c, 1, 52, 64
3, 116640, Note_on_c, 1, 53, 70
3, 116832, Note_off_c, 1, 53, 64
3, 125280, Note_on_c, 1, 57, 70
3, 125280, Note_on_c, 1, 60, 70
3, 126240, Note_off_c, 1, 60, 64
3, 126240, Note_off_c, 1, 57, 64
3, 126240, Note_on_c, 1, 58, 70
3, 126240, Note_on_c, 1, 55, 70
3, 126432, Note_off_c, 1, 55, 64
3, 126432, Note_off_c, 1, 58, 64
3, 127200, Note_on_c, 1, 55, 70
3, 127200, Note_on_c, 1, 58, 70
3, 128160, Note_off_c, 1, 58, 64
3, 128160, Note_off_c, 1, 55, 64
3, 128160, Note_on_c, 1, 53, 70
3, 128160, Note_on_c, 1, 57, 70
3, 128352, Note_off_c, 1, 57, 64
3, 128352, Note_off_c, 1, 53, 64
3, 132240, Note_on_c, 1, 57, 105
3, 132372, Note_off_c, 1, 57, 64
3, 132480, Note_on_c, 1, 55, 105
3, 132612, Note_off_c, 1, 55, 64
3, 132720, Note_on_c, 1, 48, 105
3, 132852, Note_off_c, 1, 48, 64
3, 132960, Note_on_c, 1, 53, 105
3, 133092, Note_off_c, 1, 53, 64
3, 133200, Note_on_c, 1, 62, 105
3, 133332, Note_off_c, 1, 62, 64
3, 133440, Note_on_c, 1, 60, 105
3, 133572, Note_off_c, 1, 60, 64
3, 133680, Note_on_c, 1, 53, 105
3, 133812, Note_off_c, 1, 53, 64
3, 133920, Note_on_c, 1, 58, 105
3, 134052, Note_off_c, 1, 58, 64
3, 134160, Note_on_c, 1, 57, 105
3, 134292, Note_off_c, 1, 57, 64
3, 134400, Note_on_c, 1, 55, 105
3, 134532, Note_off_c, 1, 55, 64
3, 134640, Note_on_c, 1, 52, 105
3, 134772, Note_off_c, 1, 52, 64
3, 134880, Note_on_c, 1, 53, 105
3, 135012, Note_off_c, 1, 53, 64
3, 135120, Note_on_c, 1, 62, 105
3, 135252, Note_off_c, 1, 62, 64
3, 135360, Note_on_c, 1, 58, 105
3, 135492, Note_off_c, 1, 58, 64
3, 135600, Note_on_c, 1, 60, 105
3, 135732, Note_off_c, 1, 60, 64
3, 135840, Note_on_c, 1, 53, 92
3, 136032, Note_off_c, 1, 53, 64
3, 136080, Note_on_c, 1, 57, 105
3, 136212, Note_off_c, 1, 57, 64
3, 136320, Note_on_c, 1, 55, 105
3, 136452, Note_off_c, 1, 55, 64
3, 136560, Note_on_c, 1, 48, 105
3, 136692, Note_off_c, 1, 48, 64
3, 136800, Note_on_c, 1, 53, 105
3, 136932, Note_off_c, 1, 53, 64
3, 137040, Note_on_c, 1, 62, 105
3, 137172, Note_off_c, 1, 62, 64
3, 137280, Note_on_c, 1, 60, 105
3, 137412, Note_off_c, 1, 60, 64
3, 137520, Note_on_c, 1, 53, 105
3, 137652, Note_off_c, 1, 53, 64
3, 137760, Note_on_c, 1, 58, 105
3, 137892, Note_off_c, 1, 58, 64
3, 138000, Note_on_c, 1, 57, 105
3, 138132, Note_off_c, 1, 57, 64
3, 138240, Note_on_c, 1, 55, 105
3, 138372, Note_off_c, 1, 55, 64
3, 138480, Note_on_c, 1, 52, 105
3, 138612, Note_off_c, 1, 52, 64
3, 138720, Note_on_c, 1, 53, 105
3, 138852, Note_off_c, 1, 53, 64
3, 138960, Note_on_c, 1, 62, 105
3, 139092, Note_off_c, 1, 62, 64
3, 139200, Note_on_c, 1, 58, 105
3, 139332, Note_off_c, 1, 58, 64
3, 139440, Note_on_c, 1, 60, 105
3, 139572, Note_off_c, 1, 60, 64
3, 139680, Note_on_c, 1, 53, 92
3, 139872, Note_off_c, 1, 53, 64
3, 139920, Note_on_c, 1, 53, 70
3, 139992, Note_off_c, 1, 53, 64
3, 140040, Note_on_c, 1, 52, 70
3, 140040, Note_on_c, 1, 55, 70
3, 140112, Note_off_c, 1, 55, 64
3, 140112, Note_off_c, 1, 52, 64
3, 140160, Note_on_c, 1, 57, 70
3, 140160, Note_on_c, 1, 53, 70
3, 140304, Note_off_c, 1, 53, 64
3, 140304, Note_off_c, 1, 57, 64
3, 140400, Note_on_c, 1, 53, 70
3, 140400, Note_on_c, 1, 57, 70
3, 140472, Note_off_c, 1, 57, 64
3, 140472, Note_off_c, 1, 53, 64
3, 140520, Note_on_c, 1, 58, 70
3, 140520, Note_on_c, 1, 55, 70
3, 140592, Note_off_c, 1, 55, 64
3, 140592, Note_off_c, 1, 58, 64
3, 140640, Note_on_c, 1, 60, 70
3, 140640, Note_on_c, 1, 57, 70
3, 140784, Note_off_c, 1, 57, 64
3, 140784, Note_off_c, 1, 60, 64
3, 140880, Note_on_c, 1, 57, 70
3, 140880, Note_on_c, 1, 60, 70
3, 140952, Note_off_c, 1, 60, 64
3, 140952, Note_off_c, 1, 57, 64
3, 141000, Note_on_c, 1, 60, 70
3, 141000, Note_on_c, 1, 57, 70
3, 141072, Note_off_c, 1, 57, 64
3, 141072, Note_off_c, 1, 60, 64
3, 141120, Note_on_c, 1, 62, 90
3, 141120, Note_on_c, 1, 58, 70
3, 141150, Note_off_c, 1, 58, 64
3, 141150, Note_off_c, 1, 62, 64
3, 141150, Note_on_c, 1, 57, 70
3, 141150, Note_on_c, 1, 60, 90
3, 141180, Note_off_c, 1, 60, 64
3, 141180, Note_off_c, 1, 57, 64
3, 141180, Note_on_c, 1, 58, 70
3, 141180, Note_on_c, 1, 62, 90
3, 141210, Note_off_c, 1, 62, 64
3, 141210, Note_off_c, 1, 58, 64
3, 141210, Note_on_c, 1, 57, 70
3, 141210, Note_on_c, 1, 60, 90
3, 141240, Note_off_c, 1, 60, 64
3, 141240, Note_off_c, 1, 57, 64
3, 141240, Note_on_c, 1, 58, 70
3, 141240, Note_on_c, 1, 62, 90
3, 141270, Note_off_c, 1, 62, 64
3, 141270, Note_off_c, 1, 58, 64
3, 141270, Note_on_c, 1, 57, 70
3, 141270, Note_on_c, 1, 60, 90
3, 141300, Note_off_c, 1, 60, 64
3, 141300, Note_off_c, 1, 57, 64
3, 141300, Note_on_c, 1, 62, 70
3, 141300, Note_on_c, 1, 58, 70
3, 141330, Note_off_c, 1, 58, 64
3, 141330, Note_off_c, 1, 62, 64
3, 141330, Note_on_c, 1, 60, 70
3, 141330, Note_on_c, 1, 57, 70
3, 141348, Note_off_c, 1, 57, 64
3, 141348, Note_off_c, 1, 60, 64
3, 141360, Note_on_c, 1, 62, 70
3, 141360, Note_on_c, 1, 58, 70
3, 141432, Note_off_c, 1, 58, 64
3, 141432, Note_off_c, 1, 62, 64
3, 141480, Note_on_c, 1, 60, 70
3, 141480, Note_on_c, 1, 57, 70
3, 141552, Note_off_c, 1, 57, 64
3, 141552, Note_off_c, 1, 60, 64
3, 141600, Note_on_c, 1, 58, 70
3, 141600, Note_on_c, 1, 55, 70
3, 141744, Note_off_c, 1, 55, 64
3, 141744, Note_off_c, 1, 58, 64
3, 141840, Note_on_c, 1, 55, 70
3, 141840, Note_on_c, 1, 58, 70
3, 141912, Note_off_c, 1, 58, 64
3, 141912, Note_off_c, 1, 55, 64
3, 141960, Note_on_c, 1, 58, 70
3, 141960, Note_on_c, 1, 55, 70
3, 142032, Note_off_c, 1, 55, 64
3, 142032, Note_off_c, 1, 58, 64
3, 142080, Note_on_c, 1, 57, 70
3, 142080, Note_on_c, 1, 60, 90
3, 142110, Note_off_c, 1, 60, 64
3, 142110, Note_off_c, 1, 57, 64
3, 142110, Note_on_c, 1, 55, 70
3, 142110, Note_on_c, 1, 58, 90
3, 142140, Note_off_c, 1, 58, 64
3, 142140, Note_off_c, 1, 55, 64
3, 142140, Note_on_c, 1, 57, 70
3, 142140, Note_on_c, 1, 60, 90
3, 142170, Note_off_c, 1, 60, 64
3, 142170, Note_off_c, 1, 57, 64
3, 142170, Note_on_c, 1, 55, 70
3, 142170, Note_on_c, 1, 58, 90
3, 142200, Note_off_c, 1, 58, 64
3, 142200, Note_off_c, 1, 55, 64
3, 142200, Note_on_c, 1, 57, 70
3, 142200, Note_on_c, 1, 60, 90
3, 142230, Note_off_c, 1, 60, 64
3, 142230, Note_off_c, 1, 57, 64
3, 142230, Note_on_c, 1, 55, 70
3, 142230, Note_on_c, 1, 58, 90
3, 142260, Note_off_c, 1, 58, 64
3, 142260, Note_off_c, 1, 55, 64
3, 142260, Note_on_c, 1, 60, 70
3, 142260, Note_on_c, 1, 57, 70
3, 142290, Note_off_c, 1, 57, 64
3, 142290, Note_off_c, 1, 60, 64
3, 142290, Note_on_c, 1, 58, 70
3, 142290, Note_on_c, 1, 55, 70
3, 142308, Note_off_c, 1, 55, 64
3, 142308, Note_off_c, 1, 58, 64
3, 142320, Note_on_c, 1, 60, 70
3, 142320, Note_on_c, 1, 57, 70
3, 142392, Note_off_c, 1, 57, 64
3, 142392, Note_off_c, 1, 60, 64
3, 142440, Note_on_c, 1, 58, 70
3, 142440, Note_on_c, 1, 55, 70
3, 142512, Note_off_c, 1, 55, 64
3, 142512, Note_off_c, 1, 58, 64
3, 142560, Note_on_c, 1, 57, 70
3, 142560, Note_on_c, 1, 53, 70
3, 142704, Note_off_c, 1, 53, 64
3, 142704, Note_off_c, 1, 57, 64
3, 142800, Note_on_c, 1, 55, 70
3, 142800, Note_on_c, 1, 58, 70
3, 142872, Note_off_c, 1, 58, 64
3, 142872, Note_off_c, 1, 55, 64
3, 142920, Note_on_c, 1, 57, 70
3, 142920, Note_on_c, 1, 60, 70
3, 142992, Note_off_c, 1, 60, 64
3, 142992, Note_off_c, 1, 57, 64
3, 143040, Note_on_c, 1, 57, 70
3, 143040, Note_on_c, 1, 60, 70
3, 143160, Note_off_c, 1, 60, 64
3, 143160, Note_off_c, 1, 57, 64
3, 143160, Note_on_c, 1, 58, 70
3, 143160, Note_on_c, 1, 55, 70
3, 143232, Note_off_c, 1, 55, 64
3, 143232, Note_off_c, 1, 58, 64
3, 143280, Note_on_c, 1, 53, 70
3, 143280, Note_on_c, 1, 57, 70
3, 143352, Note_off_c, 1, 57, 64
3, 143352, Note_off_c, 1, 53, 64
3, 143400, Note_on_c, 1, 55, 70
3, 143400, Note_on_c, 1, 52, 70
3, 143472, Note_off_c, 1, 52, 64
3, 143472, Note_off_c, 1, 55, 64
3, 143520, Note_on_c, 1, 53, 105
3, 143664, Note_off_c, 1, 53, 64
3, 143760, Note_on_c, 1, 53, 105
3, 143832, Note_off_c, 1, 53, 64
3, 143880, Note_on_c, 1, 55, 105
3, 143880, Note_on_c, 1, 52, 105
3, 143952, Note_off_c, 1, 52, 64
3, 143952, Note_off_c, 1, 55, 64
3, 144000, Note_on_c, 1, 53, 105
3, 144000, Note_on_c, 1, 57, 105
3, 144144, Note_off_c, 1, 57, 64
3, 144144, Note_off_c, 1, 53, 64
3, 144240, Note_on_c, 1, 57, 105
3, 144240, Note_on_c, 1, 53, 105
3, 144312, Note_off_c, 1, 53, 64
3, 144312, Note_off_c, 1, 57, 64
3, 144360, Note_on_c, 1, 58, 105
3, 144360, Note_on_c, 1, 55, 105
3, 144432, Note_off_c, 1, 55, 64
3, 144432, Note_off_c, 1, 58, 64
3, 144480, Note_on_c, 1, 60, 105
3, 144480, Note_on_c, 1, 57, 105
3, 144624, Note_off_c, 1, 57, 64
3, 144624, Note_off_c, 1, 60, 64
3, 144720, Note_on_c, 1, 60, 105
3, 144720, Note_on_c, 1, 57, 105
3, 144792, Note_off_c, 1, 57, 64
3, 144792, Note_off_c, 1, 60, 64
3, 144840, Note_on_c, 1, 57, 105
3, 144840, Note_on_c, 1, 60, 105
3, 144912, Note_off_c, 1, 60, 64
3, 144912, Note_off_c, 1, 57, 64
3, 144960, Note_on_c, 1, 62, 105
3, 144960, Note_on_c, 1, 58, 105
3, 144990, Note_off_c, 1, 58, 64
3, 144990, Note_off_c, 1, 62, 64
3, 144990, Note_on_c, 1, 60, 105
3, 144990, Note_on_c, 1, 57, 105
3, 145020, Note_off_c, 1, 57, 64
3, 145020, Note_off_c, 1, 60, 64
3, 145020, Note_on_c, 1, 58, 105
3, 145020, Note_on_c, 1, 62, 105
3, 145050, Note_off_c, 1, 62, 64
3, 145050, Note_off_c, 1, 58, 64
3, 145050, Note_on_c, 1, 60, 105
3, 145050, Note_on_c, 1, 57, 105
3, 145080, Note_off_c, 1, 57, 64
3, 145080, Note_off_c, 1, 60, 64
3, 145080, Note_on_c, 1, 62, 105
3, 145080, Note_on_c, 1, 58, 105
3, 145110, Note_off_c, 1, 58, 64
3, 145110, Note_off_c, 1, 62, 64
3, 145110, Note_on_c, 1, 57, 105
3, 145110, Note_on_c, 1, 60, 105
3, 145140, Note_off_c, 1, 60, 64
3, 145140, Note_off_c, 1, 57, 64
3, 145140, Note_on_c, 1, 62, 105
3, 145140, Note_on_c, 1, 58, 105
3, 145170, Note_off_c, 1, 58, 64
3, 145170, Note_off_c, 1, 62, 64
3, 145170, Note_on_c, 1, 57, 105
3, 145170, Note_on_c, 1, 60, 105
3, 145194, Note_off_c, 1, 60, 64
3, 145194, Note_off_c, 1, 57, 64
3, 145200, Note_on_c, 1, 58, 105
3, 145200, Note_on_c, 1, 62, 105
3, 145272, Note_off_c, 1, 62, 64
3, 145272, Note_off_c, 1, 58, 64
3, 145320, Note_on_c, 1, 57, 105
3, 145320, Note_on_c, 1, 60, 105
3, 145392, Note_off_c, 1, 60, 64
3, 145392, Note_off_c, 1, 57, 64
3, 145440, Note_on_c, 1, 55, 105
3, 145440, Note_on_c, 1, 58, 105
3, 145584, Note_off_c, 1, 58, 64
3, 145584, Note_off_c, 1, 55, 64
3, 145680, Note_on_c, 1, 55, 105
3, 145680, Note_on_c, 1, 58, 105
3, 145752, Note_off_c, 1, 58, 64
3, 145752, Note_off_c, 1, 55, 64
3, 145800, Note_on_c, 1, 58, 105
3, 145800, Note_on_c, 1, 55, 105
3, 145872, Note_off_c, 1, 55, 64
3, 145872, Note_off_c, 1, 58, 64
3, 145920, Note_on_c, 1, 60, 105
3, 145920, Note_on_c, 1, 57, 105
3, 145950, Note_off_c, 1, 57, 64
3, 145950, Note_off_c, 1, 60, 64
3, 145950, Note_on_c, 1, 55, 105
3, 145950, Note_on_c, 1, 58, 105
3, 145980, Note_off_c, 1, 58, 64
3, 145980, Note_off_c, 1, 55, 64
3, 145980, Note_on_c, 1, 57, 105
3, 145980, Note_on_c, 1, 60, 105
3, 146010, Note_off_c, 1, 60, 64
3, 146010, Note_off_c, 1, 57, 64
3, 146010, Note_on_c, 1, 58, 105
3, 146010, Note_on_c, 1, 55, 105
3, 146040, Note_off_c, 1, 55, 64
3, 146040, Note_off_c, 1, 58, 64
3, 146040, Note_on_c, 1, 57, 105
3, 146040, Note_on_c, 1, 60, 105
3, 146070, Note_off_c, 1, 60, 64
3, 146070, Note_off_c, 1, 57, 64
3, 146070, Note_on_c, 1, 55, 105
3, 146070, Note_on_c, 1, 58, 105
3, 146100, Note_off_c, 1, 58, 64
3, 146100, Note_off_c, 1, 55, 64
3, 146100, Note_on_c, 1, 60, 105
3, 146100, Note_on_c, 1, 57, 105
3, 146130, Note_off_c, 1, 57, 64
3, 146130, Note_off_c, 1, 60, 64
3, 146130, Note_on_c, 1, 55, 105
3, 146130, Note_on_c, 1, 58, 105
3, 146154, Note_off_c, 1, 58, 64
3, 146154, Note_off_c, 1, 55, 64
3, 146160, Note_on_c, 1, 57, 105
3, 146160, Note_on_c, 1, 60, 105
3, 146232, Note_off_c, 1, 60, 64
3, 146232, Note_off_c, 1, 57, 64
3, 146280, Note_on_c, 1, 55, 105
3, 146280, Note_on_c, 1, 58, 105
3, 146352, Note_off_c, 1, 58, 64
3, 146352, Note_off_c, 1, 55, 64
3, 146400, Note_on_c, 1, 53, 105
3, 146400, Note_on_c, 1, 57, 105
3, 146544, Note_off_c, 1, 57, 64
3, 146544, Note_off_c, 1, 53, 64
3, 146640, Note_on_c, 1, 58, 105
3, 146640, Note_on_c, 1, 55, 105
3, 146712, Note_off_c, 1, 55, 64
3, 146712, Note_off_c, 1, 58, 64
3, 146760, Note_on_c, 1, 60, 105
3, 146760, Note_on_c, 1, 57, 105
3, 146832, Note_off_c, 1, 57, 64
3, 146832, Note_off_c, 1, 60, 64
3, 146880, Note_on_c, 1, 57, 105
3, 146880, Note_on_c, 1, 60, 105
3, 147000, Note_off_c, 1, 60, 64
3, 147000, Note_off_c, 1, 57, 64
3, 147000, Note_on_c, 1, 58, 105
3, 147000, Note_on_c, 1, 55, 105
3, 147072, Note_off_c, 1, 55, 64
3, 147072, Note_off_c, 1, 58, 64
3, 147120, Note_on_c, 1, 53, 105
3, 147120, Note_on_c, 1, 57, 105
3, 147192, Note_off_c, 1, 57, 64
3, 147192, Note_off_c, 1, 53, 64
3, 147240, Note_on_c, 1, 55, 105
3, 147240, Note_on_c, 1, 52, 105
3, 147312, Note_off_c, 1, 52, 64
3, 147312, Note_off_c, 1, 55, 64
3, 147360, Note_on_c, 1, 53, 105
3, 147552, Note_off_c, 1, 53, 64
3, 148080, Note_on_c, 1, 48, 105
3, 148212, Note_off_c, 1, 48, 64
3, 148320, Note_on_c, 1, 53, 105
3, 148452, Note_off_c, 1, 53, 64
3, 149040, Note_on_c, 1, 60, 105
3, 149172, Note_off_c, 1, 60, 64
3, 149280, Note_on_c, 1, 53, 105
3, 149412, Note_off_c, 1, 53, 64
3, 150000, Note_on_c, 1, 48, 105
3, 150132, Note_off_c, 1, 48, 64
3, 150240, Note_on_c, 1, 53, 105
3, 150372, Note_off_c, 1, 53, 64
3, 150960, Note_on_c, 1, 60, 105
3, 151092, Note_off_c, 1, 60, 64
3, 151200, Note_on_c, 1, 53, 105
3, 151200, Note_on_c, 1, 41, 105
3, 151584, Note_off_c, 1, 41, 64
3, 151584, Note_off_c, 1, 53, 64
3, 151680, Note_on_c, 1, 60, 105
3, 151680, Note_on_c, 1, 48, 105
3, 152064, Note_off_c, 1, 48, 64
3, 152064, Note_off_c, 1, 60, 64
3, 152160, Note_on_c, 1, 50, 105
3, 152160, Note_on_c, 1, 38, 105
3, 152544, Note_off_c, 1, 38, 64
3, 152544, Note_off_c, 1, 50, 64
3, 152640, Note_on_c, 1, 57, 105
3, 152640, Note_on_c, 1, 45, 105
3, 153024, Note_off_c, 1, 45, 64
3, 153024, Note_off_c, 1, 57, 64
3, 153120, Note_on_c, 1, 58, 105
3, 153120, Note_on_c, 1, 46, 105
3, 153237, Note_off_c, 1, 46, 64
3, 153237, Note_off_c, 1, 58, 64
3, 153300, Note_on_c, 1, 58, 105
3, 153300, Note_on_c, 1, 46, 105
3, 153339, Note_off_c, 1, 46, 64
3, 153339, Note_off_c, 1, 58, 64
3, 153360, Note_on_c, 1, 45, 105
3, 153360, Note_on_c, 1, 57, 105
3, 153477, Note_off_c, 1, 57, 64
3, 153477, Note_off_c, 1, 45, 64
3, 153540, Note_on_c, 1, 43, 105
3, 153540, Note_on_c, 1, 55, 105
3, 153579, Note_off_c, 1, 55, 64
3, 153579, Note_off_c, 1, 43, 64
3, 153600, Note_on_c, 1, 48, 105
3, 153600, Note_on_c, 1, 60, 105
3, 153756, Note_off_c, 1, 60, 64
3, 153756, Note_off_c, 1, 48, 64
3, 153840, Note_on_c, 1, 48, 105
3, 153996, Note_off_c, 1, 48, 64
3, 154080, Note_on_c, 1, 53, 105
3, 154236, Note_off_c, 1, 53, 64
3, 154320, Note_on_c, 1, 53, 105
3, 154476, Note_off_c, 1, 53, 64
3, 154560, Note_on_c, 1, 53, 105
3, 154752, Note_off_c, 1, 53, 64
3, 164640, Note_on_c, 1, 62, 58
3, 165600, Note_on_c, 1, 55, 58
3, 165792, Note_off_c, 1, 62, 64
3, 165792, Note_off_c, 1, 55, 64
3, 166560, Note_on_c, 1, 55, 58
3, 167520, Note_on_c, 1, 48, 58
3, 167712, Note_off_c, 1, 55, 64
3, 167712, Note_off_c, 1, 48, 64
3, 168480, Note_on_c, 1, 60, 58
3, 169440, Note_on_c, 1, 53, 58
3, 169632, Note_off_c, 1, 60, 64
3, 169632, Note_off_c, 1, 53, 64
3, 170400, Note_on_c, 1, 53, 58
3, 171360, Note_on_c, 1, 46, 58
3, 171552, Note_off_c, 1, 53, 64
3, 171552, Note_off_c, 1, 46, 64
3, 172320, Note_on_c, 1, 67, 70
3, 172704, Note_off_c, 1, 67, 64
3, 172800, Note_on_c, 1, 62, 70
3, 173184, Note_off_c, 1, 62, 64
3, 174240, Note_on_c, 1, 48, 70
3, 174480, Note_off_c, 1, 48, 64
3, 174480, Note_on_c, 1, 53, 70
3, 174720, Note_off_c, 1, 53, 64
3, 174720, Note_on_c, 1, 46, 70
3, 174960, Note_off_c, 1, 46, 64
3, 174960, Note_on_c, 1, 55, 70
3, 175152, Note_off_c, 1, 55, 64
3, 175200, Note_on_c, 1, 53, 105
3, 175584, Note_off_c, 1, 53, 64
3, 175680, Note_on_c, 1, 48, 105
3, 176064, Note_off_c, 1, 48, 64
3, 176160, Note_on_c, 1, 46, 105
3, 176400, Note_off_c, 1, 46, 64
3, 176400, Note_on_c, 1, 45, 105
3, 176592, Note_off_c, 1, 45, 64
3, 176640, Note_on_c, 1, 50, 105
3, 176880, Note_off_c, 1, 50, 64
3, 176880, Note_on_c, 1, 48, 105
3, 177072, Note_off_c, 1, 48, 64
3, 177120, Note_on_c, 1, 53, 105
3, 177360, Note_off_c, 1, 53, 64
3, 177360, Note_on_c, 1, 52, 105
3, 177552, Note_off_c, 1, 52, 64
3, 177600, Note_on_c, 1, 58, 105
3, 177840, Note_off_c, 1, 58, 64
3, 177840, Note_on_c, 1, 57, 105
3, 178032, Note_off_c, 1, 57, 64
3, 178080, Note_on_c, 1, 63, 105
3, 178368, Note_off_c, 1, 63, 64
3, 178440, Note_on_c, 1, 62, 105
3, 178518, Note_off_c, 1, 62, 64
3, 178560, Note_on_c, 1, 60, 105
3, 178638, Note_off_c, 1, 60, 64
3, 178680, Note_on_c, 1, 58, 105
3, 178758, Note_off_c, 1, 58, 64
3, 178800, Note_on_c, 1, 57, 105
3, 178878, Note_off_c, 1, 57, 64
3, 178920, Note_on_c, 1, 55, 105
3, 178998, Note_off_c, 1, 55, 64
3, 179040, Note_on_c, 1, 53, 105
3, 179118, Note_off_c, 1, 53, 64
3, 179160, Note_on_c, 1, 52, 105
3, 179238, Note_off_c, 1, 52, 64
3, 179280, Note_on_c, 1, 53, 105
3, 179358, Note_off_c, 1, 53, 64
3, 179400, Note_on_c, 1, 55, 105
3, 179478, Note_off_c, 1, 55, 64
3, 179520, Note_on_c, 1, 53, 105
3, 179598, Note_off_c, 1, 53, 64
3, 179640, Note_on_c, 1, 51, 105
3, 179718, Note_off_c, 1, 51, 64
3, 179760, Note_on_c, 1, 50, 105
3, 179838, Note_off_c, 1, 50, 64
3, 179880, Note_on_c, 1, 48, 105
3, 179958, Note_off_c, 1, 48, 64
3, 180000, Note_on_c, 1, 46, 105
3, 180192, Note_off_c, 1, 46, 64
3, 181920, Note_on_c, 1, 53, 105
3, 182112, Note_off_c, 1, 53, 64
3, 183840, Note_on_c, 1, 46, 58
3, 184032, Note_off_c, 1, 46, 64
3, 184800, Note_on_c, 1, 46, 58
3, 184992, Note_off_c, 1, 46, 64
3, 185280, Note_on_c, 1, 53, 58
3, 185472, Note_off_c, 1, 53, 64
3, 185760, Note_on_c, 1, 58, 58
3, 185952, Note_off_c, 1, 58, 64
3, 186480, Note_on_c, 1, 51, 58
3, 186546, Note_off_c, 1, 51, 64
3, 186720, Note_on_c, 1, 53, 58
3, 186786, Note_off_c, 1, 53, 64
3, 186960, Note_on_c, 1, 41, 58
3, 187026, Note_off_c, 1, 41, 64
3, 187200, Note_on_c, 1, 46, 105
3, 187356, Note_off_c, 1, 46, 64
3, 187440, Note_on_c, 1, 46, 105
3, 187492, Note_off_c, 1, 46, 64
3, 187520, Note_on_c, 1, 46, 105
3, 187572, Note_off_c, 1, 46, 64
3, 187600, Note_on_c, 1, 46, 105
3, 187652, Note_off_c, 1, 46, 64
3, 187680, Note_on_c, 1, 46, 105
3, 187732, Note_off_c, 1, 46, 64
3, 187760, Note_on_c, 1, 46, 105
3, 187812, Note_off_c, 1, 46, 64
3, 187840, Note_on_c, 1, 46, 105
3, 187892, Note_off_c, 1, 46, 64
3, 187920, Note_on_c, 1, 46, 105
3, 187972, Note_off_c, 1, 46, 64
3, 188000, Note_on_c, 1, 46, 105
3, 188052, Note_off_c, 1, 46, 64
3, 188080, Note_on_c, 1, 46, 105
3, 188132, Note_off_c, 1, 46, 64
3, 188160, Note_on_c, 1, 46, 105
3, 188292, Note_off_c, 1, 46, 64
3, 188400, Note_on_c, 1, 50, 105
3, 188532, Note_off_c, 1, 50, 64
3, 188640, Note_on_c, 1, 53, 105
3, 188772, Note_off_c, 1, 53, 64
3, 189120, Note_on_c, 1, 50, 58
3, 189252, Note_off_c, 1, 50, 64
3, 189360, Note_on_c, 1, 53, 58
3, 189492, Note_off_c, 1, 53, 64
3, 189600, Note_on_c, 1, 58, 58
3, 189732, Note_off_c, 1, 58, 64
3, 190080, Note_on_c, 1, 46, 105
3, 190212, Note_off_c, 1, 46, 64
3, 190320, Note_on_c, 1, 50, 105
3, 190452, Note_off_c, 1, 50, 64
3, 190560, Note_on_c, 1, 53, 105
3, 190692, Note_off_c, 1, 53, 64
3, 190800, Note_on_c, 1, 58, 105
3, 190932, Note_off_c, 1, 58, 64
3, 191040, Note_on_c, 1, 53, 105
3, 191172, Note_off_c, 1, 53, 64
3, 191280, Note_on_c, 1, 50, 105
3, 191412, Note_off_c, 1, 50, 64
3, 191520, Note_on_c, 1, 46, 105
3, 191652, Note_off_c, 1, 46, 64
3, 193680, Note_on_c, 1, 50, 70
3, 193776, Note_off_c, 1, 50, 64
3, 193920, Note_on_c, 1, 55, 70
3, 194016, Note_off_c, 1, 55, 64
3, 194160, Note_on_c, 1, 50, 70
3, 194256, Note_off_c, 1, 50, 64
3, 194400, Note_on_c, 1, 55, 70
3, 194496, Note_off_c, 1, 55, 64
3, 194640, Note_on_c, 1, 50, 70
3, 194736, Note_off_c, 1, 50, 64
3, 194880, Note_on_c, 1, 55, 70
3, 195072, Note_off_c, 1, 55, 64
3, 197520, Note_on_c, 1, 46, 70
3, 197592, Note_off_c, 1, 46, 64
3, 197760, Note_on_c, 1, 51, 70
3, 197832, Note_off_c, 1, 51, 64
3, 198000, Note_on_c, 1, 46, 70
3, 198072, Note_off_c, 1, 46, 64
3, 198240, Note_on_c, 1, 51, 70
3, 198312, Note_off_c, 1, 51, 64
3, 198480, Note_on_c, 1, 46, 70
3, 198552, Note_off_c, 1, 46, 64
3, 198720, Note_on_c, 1, 51, 70
3, 198912, Note_off_c, 1, 51, 64
3, 199440, Note_on_c, 1, 50, 70
3, 199506, Note_off_c, 1, 50, 64
3, 199680, Note_on_c, 1, 51, 70
3, 199746, Note_off_c, 1, 51, 64
3, 199920, Note_on_c, 1, 54, 70
3, 199986, Note_off_c, 1, 54, 64
3, 200160, Note_on_c, 1, 55, 70
3, 200226, Note_off_c, 1, 55, 64
3, 200400, Note_on_c, 1, 60, 70
3, 200466, Note_off_c, 1, 60, 64
3, 200640, Note_on_c, 1, 63, 70
3, 201000, Note_off_c, 1, 63, 64
3, 201000, Note_on_c, 1, 65, 70
3, 201060, Note_off_c, 1, 65, 64
3, 201060, Note_on_c, 1, 62, 70
3, 201120, Note_off_c, 1, 62, 64
3, 201120, Note_on_c, 1, 60, 70
3, 201186, Note_off_c, 1, 60, 64
3, 201360, Note_on_c, 1, 50, 70
3, 201426, Note_off_c, 1, 50, 64
3, 201600, Note_on_c, 1, 51, 70
3, 201666, Note_off_c, 1, 51, 64
3, 201840, Note_on_c, 1, 54, 70
3, 201906, Note_off_c, 1, 54, 64
3, 202080, Note_on_c, 1, 55, 70
3, 202146, Note_off_c, 1, 55, 64
3, 202320, Note_on_c, 1, 60, 70
3, 202386, Note_off_c, 1, 60, 64
3, 202560, Note_on_c, 1, 63, 70
3, 202920, Note_off_c, 1, 63, 64
3, 202920, Note_on_c, 1, 65, 70
3, 202980, Note_off_c, 1, 65, 64
3, 202980, Note_on_c, 1, 62, 70
3, 203040, Note_off_c, 1, 62, 64
3, 203040, Note_on_c, 1, 60, 70
3, 203106, Note_off_c, 1, 60, 64
3, 203280, Note_on_c, 1, 50, 70
3, 203346, Note_off_c, 1, 50, 64
3, 203520, Note_on_c, 1, 51, 58
3, 204960, Note_off_c, 1, 51, 64
3, 204960, Note_on_c, 1, 52, 58
3, 205416, Note_off_c, 1, 52, 64
3, 205440, Note_on_c, 1, 53, 105
3, 205584, Note_off_c, 1, 53, 64
3, 205680, Note_on_c, 1, 65, 105
3, 205752, Note_off_c, 1, 65, 64
3, 205800, Note_on_c, 1, 64, 105
3, 205872, Note_off_c, 1, 64, 64
3, 205920, Note_on_c, 1, 63, 105
3, 205992, Note_off_c, 1, 63, 64
3, 206040, Note_on_c, 1, 62, 105
3, 206112, Note_off_c, 1, 62, 64
3, 206160, Note_on_c, 1, 63, 105
3, 206232, Note_off_c, 1, 63, 64
3, 206280, Note_on_c, 1, 62, 105
3, 206352, Note_off_c, 1, 62, 64
3, 206400, Note_on_c, 1, 60, 105
3, 206472, Note_off_c, 1, 60, 64
3, 206520, Note_on_c, 1, 59, 105
3, 206592, Note_off_c, 1, 59, 64
3, 206640, Note_on_c, 1, 60, 105
3, 206712, Note_off_c, 1, 60, 64
3, 206760, Note_on_c, 1, 58, 105
3, 206832, Note_off_c, 1, 58, 64
3, 206880, Note_on_c, 1, 57, 105
3, 206952, Note_off_c, 1, 57, 64
3, 207000, Note_on_c, 1, 56, 105
3, 207072, Note_off_c, 1, 56, 64
3, 207120, Note_on_c, 1, 57, 105
3, 207192, Note_off_c, 1, 57, 64
3, 207240, Note_on_c, 1, 55, 105
3, 207312, Note_off_c, 1, 55, 64
3, 207360, Note_on_c, 1, 53, 105
3, 207432, Note_off_c, 1, 53, 64
3, 207480, Note_on_c, 1, 53, 105
3, 207552, Note_off_c, 1, 53, 64
3, 207600, Note_on_c, 1, 53, 105
3, 207672, Note_off_c, 1, 53, 64
3, 207720, Note_on_c, 1, 53, 105
3, 207792, Note_off_c, 1, 53, 64
3, 207840, Note_on_c, 1, 53, 105
3, 207912, Note_off_c, 1, 53, 64
3, 207960, Note_on_c, 1, 53, 105
3, 208032, Note_off_c, 1, 53, 64
3, 208080, Note_on_c, 1, 53, 105
3, 208152, Note_off_c, 1, 53, 64
3, 208200, Note_on_c, 1, 53, 105
3, 208272, Note_off_c, 1, 53, 64
3, 208320, Note_on_c, 1, 53, 105
3, 208392, Note_off_c, 1, 53, 64
3, 208440, Note_on_c, 1, 53, 105
3, 208512, Note_off_c, 1, 53, 64
3, 208560, Note_on_c, 1, 53, 105
3, 208632, Note_off_c, 1, 53, 64
3, 208680, Note_on_c, 1, 53, 105
3, 208752, Note_off_c, 1, 53, 64
3, 208800, Note_on_c, 1, 53, 105
3, 208872, Note_off_c, 1, 53, 64
3, 208920, Note_on_c, 1, 53, 105
3, 208992, Note_off_c, 1, 53, 64
3, 209040, Note_on_c, 1, 53, 105
3, 209112, Note_off_c, 1, 53, 64
3, 209160, Note_on_c, 1, 53, 105
3, 209232, Note_off_c, 1, 53, 64
3, 209280, Note_on_c, 1, 53, 70
3, 211080, Note_off_c, 1, 53, 64
3, 211080, Note_on_c, 1, 55, 70
3, 211140, Note_off_c, 1, 55, 64
3, 211140, Note_on_c, 1, 57, 70
3, 211200, Note_off_c, 1, 57, 64
3, 211200, Note_on_c, 1, 58, 58
3, 211392, Note_off_c, 1, 58, 64
3, 219840, Note_on_c, 1, 62, 58
3, 219840, Note_on_c, 1, 65, 58
3, 220800, Note_off_c, 1, 65, 64
3, 220800, Note_off_c, 1, 62, 64
3, 220800, Note_on_c, 1, 60, 58
3, 220800, Note_on_c, 1, 63, 58
3, 220992, Note_off_c, 1, 63, 64
3, 220992, Note_off_c, 1, 60, 64
3, 221760, Note_on_c, 1, 60, 58
3, 221760, Note_on_c, 1, 63, 58
3, 222720, Note_off_c, 1, 63, 64
3, 222720, Note_off_c, 1, 60, 64
3, 222720, Note_on_c, 1, 58, 58
3, 222720, Note_on_c, 1, 62, 58
3, 222912, Note_off_c, 1, 62, 64
3, 222912, Note_off_c, 1, 58, 64
3, 226800, Note_on_c, 1, 62, 105
3, 226932, Note_off_c, 1, 62, 64
3, 227040, Note_on_c, 1, 60, 105
3, 227172, Note_off_c, 1, 60, 64
3, 227280, Note_on_c, 1, 53, 105
3, 227412, Note_off_c, 1, 53, 64
3, 227520, Note_on_c, 1, 58, 105
3, 227652, Note_off_c, 1, 58, 64
3, 227760, Note_on_c, 1, 55, 105
3, 227892, Note_off_c, 1, 55, 64
3, 228000, Note_on_c, 1, 53, 105
3, 228132, Note_off_c, 1, 53, 64
3, 228240, Note_on_c, 1, 46, 105
3, 228372, Note_off_c, 1, 46, 64
3, 228480, Note_on_c, 1, 51, 105
3, 228612, Note_off_c, 1, 51, 64
3, 228720, Note_on_c, 1, 50, 105
3, 228852, Note_off_c, 1, 50, 64
3, 228960, Note_on_c, 1, 48, 105
3, 229092, Note_off_c, 1, 48, 64
3, 229200, Note_on_c, 1, 45, 105
3, 229332, Note_off_c, 1, 45, 64
3, 229440, Note_on_c, 1, 46, 105
3, 229572, Note_off_c, 1, 46, 64
3, 229680, Note_on_c, 1, 51, 105
3, 229812, Note_off_c, 1, 51, 64
3, 229920, Note_on_c, 1, 53, 105
3, 230052, Note_off_c, 1, 53, 64
3, 230160, Note_on_c, 1, 41, 105
3, 230292, Note_off_c, 1, 41, 64
3, 230400, Note_on_c, 1, 46, 92
3, 230532, Note_off_c, 1, 46, 64
3, 230640, Note_on_c, 1, 62, 105
3, 230772, Note_off_c, 1, 62, 64
3, 230880, Note_on_c, 1, 60, 105
3, 231012, Note_off_c, 1, 60, 64
3, 231120, Note_on_c, 1, 53, 105
3, 231252, Note_off_c, 1, 53, 64
3, 231360, Note_on_c, 1, 58, 105
3, 231492, Note_off_c, 1, 58, 64
3, 231600, Note_on_c, 1, 55, 105
3, 231732, Note_off_c, 1, 55, 64
3, 231840, Note_on_c, 1, 53, 105
3, 231972, Note_off_c, 1, 53, 64
3, 232080, Note_on_c, 1, 46, 105
3, 232212, Note_off_c, 1, 46, 64
3, 232320, Note_on_c, 1, 51, 105
3, 232452, Note_off_c, 1, 51, 64
3, 232560, Note_on_c, 1, 50, 105
3, 232692, Note_off_c, 1, 50, 64
3, 232800, Note_on_c, 1, 48, 105
3, 232932, Note_off_c, 1, 48, 64
3, 233040, Note_on_c, 1, 57, 105
3, 233172, Note_off_c, 1, 57, 64
3, 233280, Note_on_c, 1, 58, 105
3, 233412, Note_off_c, 1, 58, 64
3, 233520, Note_on_c, 1, 51, 105
3, 233652, Note_off_c, 1, 51, 64
3, 233760, Note_on_c, 1, 53, 105
3, 233892, Note_off_c, 1, 53, 64
3, 234000, Note_on_c, 1, 54, 105
3, 234132, Note_off_c, 1, 54, 64
3, 234240, Note_on_c, 1, 55, 105
3, 234372, Note_off_c, 1, 55, 64
3, 234480, Note_on_c, 1, 48, 105
3, 234612, Note_off_c, 1, 48, 64
3, 234720, Note_on_c, 1, 50, 105
3, 234852, Note_off_c, 1, 50, 64
3, 234960, Note_on_c, 1, 51, 105
3, 235092, Note_off_c, 1, 51, 64
3, 235200, Note_on_c, 1, 53, 105
3, 235332, Note_off_c, 1, 53, 64
3, 235440, Note_on_c, 1, 54, 105
3, 235572, Note_off_c, 1, 54, 64
3, 235680, Note_on_c, 1, 55, 105
3, 235812, Note_off_c, 1, 55, 64
3, 235920, Note_on_c, 1, 51, 105
3, 236052, Note_off_c, 1, 51, 64
3, 236160, Note_on_c, 1, 53, 105
3, 236316, Note_off_c, 1, 53, 64
3, 236400, Note_on_c, 1, 58, 105
3, 236478, Note_off_c, 1, 58, 64
3, 236520, Note_on_c, 1, 62, 105
3, 236598, Note_off_c, 1, 62, 64
3, 236640, Note_on_c, 1, 65, 105
3, 236796, Note_off_c, 1, 65, 64
3, 236880, Note_on_c, 1, 62, 105
3, 236958, Note_off_c, 1, 62, 64
3, 237000, Note_on_c, 1, 58, 105
3, 237078, Note_off_c, 1, 58, 64
3, 237120, Note_on_c, 1, 63, 105
3, 237252, Note_off_c, 1, 63, 64
3, 237360, Note_on_c, 1, 60, 105
3, 237492, Note_off_c, 1, 60, 64
3, 237600, Note_on_c, 1, 57, 105
3, 237732, Note_off_c, 1, 57, 64
3, 237840, Note_on_c, 1, 53, 105
3, 237972, Note_off_c, 1, 53, 64
3, 238080, Note_on_c, 1, 58, 105
3, 238236, Note_off_c, 1, 58, 64
3, 238320, Note_on_c, 1, 58, 70
3, 238392, Note_off_c, 1, 58, 64
3, 238440, Note_on_c, 1, 57, 70
3, 238440, Note_on_c, 1, 60, 70
3, 238512, Note_off_c, 1, 60, 64
3, 238512, Note_off_c, 1, 57, 64
3, 238560, Note_on_c, 1, 62, 70
3, 238560, Note_on_c, 1, 58, 70
3, 238704, Note_off_c, 1, 58, 64
3, 238704, Note_off_c, 1, 62, 64
3, 238800, Note_on_c, 1, 58, 70
3, 238800, Note_on_c, 1, 62, 70
3, 238872, Note_off_c, 1, 62, 64
3, 238872, Note_off_c, 1, 58, 64
3, 238920, Note_on_c, 1, 63, 70
3, 238920, Note_on_c, 1, 60, 70
3, 238992, Note_off_c, 1, 60, 64
3, 238992, Note_off_c, 1, 63, 64
3, 239040, Note_on_c, 1, 65, 70
3, 239040, Note_on_c, 1, 62, 70
3, 239184, Note_off_c, 1, 62, 64
3, 239184, Note_off_c, 1, 65, 64
3, 239280, Note_on_c, 1, 62, 70
3, 239280, Note_on_c, 1, 65, 70
3, 239352, Note_off_c, 1, 65, 64
3, 239352, Note_off_c, 1, 62, 64
3, 239400, Note_on_c, 1, 65, 70
3, 239400, Note_on_c, 1, 62, 70
3, 239472, Note_off_c, 1, 62, 64
3, 239472, Note_off_c, 1, 65, 64
3, 239520, Note_on_c, 1, 67, 90
3, 239520, Note_on_c, 1, 63, 70
3, 239550, Note_off_c, 1, 63, 64
3, 239550, Note_off_c, 1, 67, 64
3, 239550, Note_on_c, 1, 62, 70
3, 239550, Note_on_c, 1, 65, 90
3, 239580, Note_off_c, 1, 65, 64
3, 239580, Note_off_c, 1, 62, 64
3, 239580, Note_on_c, 1, 67, 90
3, 239580, Note_on_c, 1, 63, 70
3, 239610, Note_off_c, 1, 63, 64
3, 239610, Note_off_c, 1, 67, 64
3, 239610, Note_on_c, 1, 62, 70
3, 239610, Note_on_c, 1, 65, 90
3, 239640, Note_off_c, 1, 65, 64
3, 239640, Note_off_c, 1, 62, 64
3, 239640, Note_on_c, 1, 67, 90
3, 239640, Note_on_c, 1, 63, 70
3, 239670, Note_off_c, 1, 63, 64
3, 239670, Note_off_c, 1, 67, 64
3, 239670, Note_on_c, 1, 65, 90
3, 239670, Note_on_c, 1, 62, 70
3, 239700, Note_off_c, 1, 62, 64
3, 239700, Note_off_c, 1, 65, 64
3, 239700, Note_on_c, 1, 67, 70
3, 239700, Note_on_c, 1, 63, 70
3, 239730, Note_off_c, 1, 63, 64
3, 239730, Note_off_c, 1, 67, 64
3, 239730, Note_on_c, 1, 65, 70
3, 239730, Note_on_c, 1, 62, 70
3, 239748, Note_off_c, 1, 62, 64
3, 239748, Note_off_c, 1, 65, 64
3, 239760, Note_on_c, 1, 63, 70
3, 239760, Note_on_c, 1, 67, 70
3, 239832, Note_off_c, 1, 67, 64
3, 239832, Note_off_c, 1, 63, 64
3, 239880, Note_on_c, 1, 65, 70
3, 239880, Note_on_c, 1, 62, 70
3, 239952, Note_off_c, 1, 62, 64
3, 239952, Note_off_c, 1, 65, 64
3, 240000, Note_on_c, 1, 63, 70
3, 240000, Note_on_c, 1, 60, 70
3, 240144, Note_off_c, 1, 60, 64
3, 240144, Note_off_c, 1, 63, 64
3, 240240, Note_on_c, 1, 60, 70
3, 240240, Note_on_c, 1, 63, 70
3, 240312, Note_off_c, 1, 63, 64
3, 240312, Note_off_c, 1, 60, 64
3, 240360, Note_on_c, 1, 63, 70
3, 240360, Note_on_c, 1, 60, 70
3, 240432, Note_off_c, 1, 60, 64
3, 240432, Note_off_c, 1, 63, 64
3, 240480, Note_on_c, 1, 65, 90
3, 240480, Note_on_c, 1, 62, 70
3, 240510, Note_off_c, 1, 62, 64
3, 240510, Note_off_c, 1, 65, 64
3, 240510, Note_on_c, 1, 60, 70
3, 240510, Note_on_c, 1, 63, 90
3, 240540, Note_off_c, 1, 63, 64
3, 240540, Note_off_c, 1, 60, 64
3, 240540, Note_on_c, 1, 65, 90
3, 240540, Note_on_c, 1, 62, 70
3, 240570, Note_off_c, 1, 62, 64
3, 240570, Note_off_c, 1, 65, 64
3, 240570, Note_on_c, 1, 60, 70
3, 240570, Note_on_c, 1, 63, 90
3, 240600, Note_off_c, 1, 63, 64
3, 240600, Note_off_c, 1, 60, 64
3, 240600, Note_on_c, 1, 65, 90
3, 240600, Note_on_c, 1, 62, 70
3, 240630, Note_off_c, 1, 62, 64
3, 240630, Note_off_c, 1, 65, 64
3, 240630, Note_on_c, 1, 63, 90
3, 240630, Note_on_c, 1, 60, 70
3, 240660, Note_off_c, 1, 60, 64
3, 240660, Note_off_c, 1, 63, 64
3, 240660, Note_on_c, 1, 65, 70
3, 240660, Note_on_c, 1, 62, 70
3, 240690, Note_off_c, 1, 62, 64
3, 240690, Note_off_c, 1, 65, 64
3, 240690, Note_on_c, 1, 63, 70
3, 240690, Note_on_c, 1, 60, 70
3, 240708, Note_off_c, 1, 60, 64
3, 240708, Note_off_c, 1, 63, 64
3, 240720, Note_on_c, 1, 62, 70
3, 240720, Note_on_c, 1, 65, 70
3, 240792, Note_off_c, 1, 65, 64
3, 240792, Note_off_c, 1, 62, 64
3, 240840, Note_on_c, 1, 63, 70
3, 240840, Note_on_c, 1, 60, 70
3, 240912, Note_off_c, 1, 60, 64
3, 240912, Note_off_c, 1, 63, 64
3, 240960, Note_on_c, 1, 62, 70
3, 240960, Note_on_c, 1, 58, 70
3, 241104, Note_off_c, 1, 58, 64
3, 241104, Note_off_c, 1, 62, 64
3, 241200, Note_on_c, 1, 60, 70
3, 241200, Note_on_c, 1, 63, 70
3, 241272, Note_off_c, 1, 63, 64
3, 241272, Note_off_c, 1, 60, 64
3, 241320, Note_on_c, 1, 65, 70
3, 241320, Note_on_c, 1, 62, 70
3, 241392, Note_off_c, 1, 62, 64
3, 241392, Note_off_c, 1, 65, 64
3, 241440, Note_on_c, 1, 62, 70
3, 241440, Note_on_c, 1, 65, 70
3, 241560, Note_off_c, 1, 65, 64
3, 241560, Note_off_c, 1, 62, 64
3, 241560, Note_on_c, 1, 63, 70
3, 241560, Note_on_c, 1, 60, 70
3, 241632, Note_off_c, 1, 60, 64
3, 241632, Note_off_c, 1, 63, 64
3, 241680, Note_on_c, 1, 58, 70
3, 241680, Note_on_c, 1, 62, 70
3, 241752, Note_off_c, 1, 62, 64
3, 241752, Note_off_c, 1, 58, 64
3, 241800, Note_on_c, 1, 60, 70
3, 241800, Note_on_c, 1, 57, 70
3, 241872, Note_off_c, 1, 57, 64
3, 241872, Note_off_c, 1, 60, 64
3, 241920, Note_on_c, 1, 58, 90
3, 242076, Note_off_c, 1, 58, 64
3, 242160, Note_on_c, 1, 46, 125
3, 242232, Note_off_c, 1, 46, 64
3, 242280, Note_on_c, 1, 45, 105
3, 242280, Note_on_c, 1, 48, 105
3, 242352, Note_off_c, 1, 48, 64
3, 242352, Note_off_c, 1, 45, 64
3, 242400, Note_on_c, 1, 50, 105
3, 242400, Note_on_c, 1, 46, 105
3, 242544, Note_off_c, 1, 46, 64
3, 242544, Note_off_c, 1, 50, 64
3, 242640, Note_on_c, 1, 50, 105
3, 242640, Note_on_c, 1, 46, 105
3, 242712, Note_off_c, 1, 46, 64
3, 242712, Note_off_c, 1, 50, 64
3, 242760, Note_on_c, 1, 51, 105
3, 242760, Note_on_c, 1, 48, 105
3, 242832, Note_off_c, 1, 48, 64
3, 242832, Note_off_c, 1, 51, 64
3, 242880, Note_on_c, 1, 53, 105
3, 242880, Note_on_c, 1, 50, 105
3, 243024, Note_off_c, 1, 50, 64
3, 243024, Note_off_c, 1, 53, 64
3, 243120, Note_on_c, 1, 53, 105
3, 243120, Note_on_c, 1, 50, 105
3, 243192, Note_off_c, 1, 50, 64
3, 243192, Note_off_c, 1, 53, 64
3, 243240, Note_on_c, 1, 50, 105
3, 243240, Note_on_c, 1, 53, 105
3, 243312, Note_off_c, 1, 53, 64
3, 243312, Note_off_c, 1, 50, 64
3, 243360, Note_on_c, 1, 55, 105
3, 243360, Note_on_c, 1, 51, 105
3, 243390, Note_off_c, 1, 51, 64
3, 243390, Note_off_c, 1, 55, 64
3, 243390, Note_on_c, 1, 53, 105
3, 243390, Note_on_c, 1, 50, 105
3, 243420, Note_off_c, 1, 50, 64
3, 243420, Note_off_c, 1, 53, 64
3, 243420, Note_on_c, 1, 51, 105
3, 243420, Note_on_c, 1, 55, 105
3, 243450, Note_off_c, 1, 55, 64
3, 243450, Note_off_c, 1, 51, 64
3, 243450, Note_on_c, 1, 53, 105
3, 243450, Note_on_c, 1, 50, 105
3, 243480, Note_off_c, 1, 50, 64
3, 243480, Note_off_c, 1, 53, 64
3, 243480, Note_on_c, 1, 55, 105
3, 243480, Note_on_c, 1, 51, 105
3, 243510, Note_off_c, 1, 51, 64
3, 243510, Note_off_c, 1, 55, 64
3, 243510, Note_on_c, 1, 50, 105
3, 243510, Note_on_c, 1, 53, 105
3, 243540, Note_off_c, 1, 53, 64
3, 243540, Note_off_c, 1, 50, 64
3, 243540, Note_on_c, 1, 51, 105
3, 243540, Note_on_c, 1, 55, 105
3, 243570, Note_off_c, 1, 55, 64
3, 243570, Note_off_c, 1, 51, 64
3, 243570, Note_on_c, 1, 50, 105
3, 243570, Note_on_c, 1, 53, 105
3, 243588, Note_off_c, 1, 53, 64
3, 243588, Note_off_c, 1, 50, 64
3, 243600, Note_on_c, 1, 51, 105
3, 243600, Note_on_c, 1, 55, 105
3, 243672, Note_off_c, 1, 55, 64
3, 243672, Note_off_c, 1, 51, 64
3, 243720, Note_on_c, 1, 53, 105
3, 243720, Note_on_c, 1, 50, 105
3, 243792, Note_off_c, 1, 50, 64
3, 243792, Note_off_c, 1, 53, 64
3, 243840, Note_on_c, 1, 51, 105
3, 243840, Note_on_c, 1, 48, 105
3, 243984, Note_off_c, 1, 48, 64
3, 243984, Note_off_c, 1, 51, 64
3, 244080, Note_on_c, 1, 48, 105
3, 244080, Note_on_c, 1, 51, 105
3, 244152, Note_off_c, 1, 51, 64
3, 244152, Note_off_c, 1, 48, 64
3, 244200, Note_on_c, 1, 51, 105
3, 244200, Note_on_c, 1, 48, 105
3, 244272, Note_off_c, 1, 48, 64
3, 244272, Note_off_c, 1, 51, 64
3, 244320, Note_on_c, 1, 53, 105
3, 244320, Note_on_c, 1, 50, 105
3, 244350, Note_off_c, 1, 50, 64
3, 244350, Note_off_c, 1, 53, 64
3, 244350, Note_on_c, 1, 51, 105
3, 244350, Note_on_c, 1, 48, 105
3, 244380, Note_off_c, 1, 48, 64
3, 244380, Note_off_c, 1, 51, 64
3, 244380, Note_on_c, 1, 50, 105
3, 244380, Note_on_c, 1, 53, 105
3, 244410, Note_off_c, 1, 53, 64
3, 244410, Note_off_c, 1, 50, 64
3, 244410, Note_on_c, 1, 51, 105
3, 244410, Note_on_c, 1, 48, 105
3, 244440, Note_off_c, 1, 48, 64
3, 244440, Note_off_c, 1, 51, 64
3, 244440, Note_on_c, 1, 53, 105
3, 244440, Note_on_c, 1, 50, 105
3, 244470, Note_off_c, 1, 50, 64
3, 244470, Note_off_c, 1, 53, 64
3, 244470, Note_on_c, 1, 48, 105
3, 244470, Note_on_c, 1, 51, 105
3, 244500, Note_off_c, 1, 51, 64
3, 244500, Note_off_c, 1, 48, 64
3, 244500, Note_on_c, 1, 50, 105
3, 244500, Note_on_c, 1, 53, 105
3, 244530, Note_off_c, 1, 53, 64
3, 244530, Note_off_c, 1, 50, 64
3, 244530, Note_on_c, 1, 48, 105
3, 244530, Note_on_c, 1, 51, 105
3, 244548, Note_off_c, 1, 51, 64
3, 244548, Note_off_c, 1, 48, 64
3, 244560, Note_on_c, 1, 50, 105
3, 244560, Note_on_c, 1, 53, 105
3, 244632, Note_off_c, 1, 53, 64
3, 244632, Note_off_c, 1, 50, 64
3, 244680, Note_on_c, 1, 51, 105
3, 244680, Note_on_c, 1, 48, 105
3, 244752, Note_off_c, 1, 48, 64
3, 244752, Note_off_c, 1, 51, 64
3, 244800, Note_on_c, 1, 50, 105
3, 244800, Note_on_c, 1, 46, 105
3, 244944, Note_off_c, 1, 46, 64
3, 244944, Note_off_c, 1, 50, 64
3, 245040, Note_on_c, 1, 48, 105
3, 245040, Note_on_c, 1, 51, 105
3, 245112, Note_off_c, 1, 51, 64
3, 245112, Note_off_c, 1, 48, 64
3, 245160, Note_on_c, 1, 50, 105
3, 245160, Note_on_c, 1, 53, 105
3, 245232, Note_off_c, 1, 53, 64
3, 245232, Note_off_c, 1, 50, 64
3, 245280, Note_on_c, 1, 50, 105
3, 245280, Note_on_c, 1, 53, 105
3, 245400, Note_off_c, 1, 53, 64
3, 245400, Note_off_c, 1, 50, 64
3, 245400, Note_on_c, 1, 48, 105
3, 245400, Note_on_c, 1, 51, 105
3, 245472, Note_off_c, 1, 51, 64
3, 245472, Note_off_c, 1, 48, 64
3, 245520, Note_on_c, 1, 46, 105
3, 245520, Note_on_c, 1, 50, 105
3, 245592, Note_off_c, 1, 50, 64
3, 245592, Note_off_c, 1, 46, 64
3, 245640, Note_on_c, 1, 45, 105
3, 245640, Note_on_c, 1, 48, 105
3, 245712, Note_off_c, 1, 48, 64
3, 245712, Note_off_c, 1, 45, 64
3, 245760, Note_on_c, 1, 46, 105
3, 245952, Note_off_c, 1, 46, 64
3, 246480, Note_on_c, 1, 53, 105
3, 246612, Note_off_c, 1, 53, 64
3, 246720, Note_on_c, 1, 58, 105
3, 246852, Note_off_c, 1, 58, 64
3, 247440, Note_on_c, 1, 53, 105
3, 247572, Note_off_c, 1, 53, 64
3, 247680, Note_on_c, 1, 46, 105
3, 247812, Note_off_c, 1, 46, 64
3, 248400, Note_on_c, 1, 53, 105
3, 248532, Note_off_c, 1, 53, 64
3, 248640, Note_on_c, 1, 58, 105
3, 248772, Note_off_c, 1, 58, 64
3, 249360, Note_on_c, 1, 53, 105
3, 249360, Note_on_c, 1, 41, 105
3, 249492, Note_off_c, 1, 41, 64
3, 249492, Note_off_c, 1, 53, 64
3, 249600, Note_on_c, 1, 58, 105
3, 249600, Note_on_c, 1, 46, 105
3, 249984, Note_off_c, 1, 46, 64
3, 249984, Note_off_c, 1, 58, 64
3, 250080, Note_on_c, 1, 65, 105
3, 250080, Note_on_c, 1, 53, 105
3, 250464, Note_off_c, 1, 53, 64
3, 250464, Note_off_c, 1, 65, 64
3, 250560, Note_on_c, 1, 43, 105
3, 250560, Note_on_c, 1, 55, 105
3, 250944, Note_off_c, 1, 55, 64
3, 250944, Note_off_c, 1, 43, 64
3, 251040, Note_on_c, 1, 50, 105
3, 251040, Note_on_c, 1, 62, 105
3, 251424, Note_off_c, 1, 62, 64
3, 251424, Note_off_c, 1, 50, 64
3, 251520, Note_on_c, 1, 51, 105
3, 251637, Note_off_c, 1, 51, 64
3, 251700, Note_on_c, 1, 51, 105
3, 251739, Note_off_c, 1, 51, 64
3, 251760, Note_on_c, 1, 50, 105
3, 251877, Note_off_c, 1, 50, 64
3, 251940, Note_on_c, 1, 48, 105
3, 251979, Note_off_c, 1, 48, 64
3, 252000, Note_on_c, 1, 53, 105
3, 252156, Note_off_c, 1, 53, 64
3, 252240, Note_on_c, 1, 53, 105
3, 252396, Note_off_c, 1, 53, 64
3, 252480, Note_on_c, 1, 58, 105
3, 252636, Note_off_c, 1, 58, 64
3, 252720, Note_on_c, 1, 46, 105
3, 252772, Note_off_c, 1, 46, 64
3, 252800, Note_on_c, 1, 46, 105
3, 252852, Note_off_c, 1, 46, 64
3, 252880, Note_on_c, 1, 46, 105
3, 252932, Note_off_c, 1, 46, 64
3, 252960, Note_on_c, 1, 46, 105
3, 253012, Note_off_c, 1, 46, 64
3, 253040, Note_on_c, 1, 46, 105
3, 253092, Note_off_c, 1, 46, 64
3, 253120, Note_on_c, 1, 46, 105
3, 253172, Note_off_c, 1, 46, 64
3, 253200, Note_on_c, 1, 46, 105
3, 253252, Note_off_c, 1, 46, 64
3, 253280, Note_on_c, 1, 46, 105
3, 253332, Note_off_c, 1, 46, 64
3, 253360, Note_on_c, 1, 46, 105
3, 253412, Note_off_c, 1, 46, 64
3, 253440, Note_on_c, 1, 46, 105
3, 253572, Note_off_c, 1, 46, 64
3, 253680, Note_on_c, 1, 50, 105
3, 253812, Note_off_c, 1, 50, 64
3, 253920, Note_on_c, 1, 53, 105
3, 254052, Note_off_c, 1, 53, 64
3, 254400, Note_on_c, 1, 50, 58
3, 254532, Note_off_c, 1, 50, 64
3, 254640, Note_on_c, 1, 53, 58
3, 254772, Note_off_c, 1, 53, 64
3, 254880, Note_on_c, 1, 58, 58
3, 255012, Note_off_c, 1, 58, 64
3, 255360, Note_on_c, 1, 46, 105
3, 255492, Note_off_c, 1, 46, 64
3, 255600, Note_on_c, 1, 50, 105
3, 255732, Note_off_c, 1, 50, 64
3, 255840, Note_on_c, 1, 53, 105
3, 255972, Note_off_c, 1, 53, 64
3, 256080, Note_on_c, 1, 58, 105
3, 256212, Note_off_c, 1, 58, 64
3, 256320, Note_on_c, 1, 53, 105
3, 256452, Note_off_c, 1, 53, 64
3, 256560, Note_on_c, 1, 50, 105
3, 256692, Note_off_c, 1, 50, 64
3, 256800, Note_on_c, 1, 46, 105
3, 256932, Note_off_c, 1, 46, 64
3, 256932, End_track
4, 0, Start_track
4, 0, Program_c, 2, 60
4, 0, Control_c, 2, 7, 116
4, 0, Control_c, 2, 91, 80
4, 0, Control_c, 2, 10, 92
4, 480, Note_on_c, 2, 58, 105
4, 480, Note_on_c, 2, 65, 105
4, 672, Note_off_c, 2, 65, 64
4, 672, Note_off_c, 2, 58, 64
4, 2400, Note_on_c, 2, 53, 105
4, 2400, Note_on_c, 2, 65, 105
4, 2592, Note_off_c, 2, 65, 64
4, 2592, Note_off_c, 2, 53, 64
4, 8160, Note_on_c, 2, 58, 105
4, 8160, Note_on_c, 2, 65, 105
4, 8352, Note_off_c, 2, 65, 64
4, 8352, Note_off_c, 2, 58, 64
4, 10080, Note_on_c, 2, 53, 105
4, 10080, Note_on_c, 2, 65, 105
4, 10272, Note_off_c, 2, 65, 64
4, 10272, Note_off_c, 2, 53, 64
4, 15360, Note_on_c, 2, 70, 105
4, 15360, Note_on_c, 2, 62, 105
4, 15552, Note_off_c, 2, 62, 64
4, 15552, Note_off_c, 2, 70, 64
4, 15600, Note_on_c, 2, 58, 105
4, 15744, Note_off_c, 2, 58, 64
4, 15780, Note_on_c, 2, 58, 105
4, 15828, Note_off_c, 2, 58, 64
4, 15840, Note_on_c, 2, 58, 105
4, 15984, Note_off_c, 2, 58, 64
4, 16020, Note_on_c, 2, 58, 105
4, 16068, Note_off_c, 2, 58, 64
4, 16080, Note_on_c, 2, 58, 105
4, 16224, Note_off_c, 2, 58, 64
4, 16260, Note_on_c, 2, 58, 105
4, 16308, Note_off_c, 2, 58, 64
4, 16320, Note_on_c, 2, 58, 105
4, 16452, Note_off_c, 2, 58, 64
4, 16560, Note_on_c, 2, 62, 105
4, 16692, Note_off_c, 2, 62, 64
4, 16800, Note_on_c, 2, 65, 105
4, 16932, Note_off_c, 2, 65, 64
4, 18240, Note_on_c, 2, 58, 105
4, 18372, Note_off_c, 2, 58, 64
4, 18480, Note_on_c, 2, 62, 105
4, 18612, Note_off_c, 2, 62, 64
4, 18720, Note_on_c, 2, 65, 105
4, 18852, Note_off_c, 2, 65, 64
4, 18960, Note_on_c, 2, 70, 105
4, 19092, Note_off_c, 2, 70, 64
4, 19200, Note_on_c, 2, 65, 105
4, 19332, Note_off_c, 2, 65, 64
4, 19440, Note_on_c, 2, 62, 105
4, 19572, Note_off_c, 2, 62, 64
4, 19680, Note_on_c, 2, 58, 105
4, 19812, Note_off_c, 2, 58, 64
4, 33600, Note_on_c, 2, 72, 105
4, 33744, Note_off_c, 2, 72, 64
4, 33840, Note_on_c, 2, 72, 105
4, 33912, Note_off_c, 2, 72, 64
4, 33960, Note_on_c, 2, 72, 105
4, 34032, Note_off_c, 2, 72, 64
4, 34080, Note_on_c, 2, 72, 105
4, 34224, Note_off_c, 2, 72, 64
4, 34320, Note_on_c, 2, 72, 105
4, 34392, Note_off_c, 2, 72, 64
4, 34440, Note_on_c, 2, 72, 105
4, 34512, Note_off_c, 2, 72, 64
4, 34560, Note_on_c, 2, 72, 105
4, 34704, Note_off_c, 2, 72, 64
4, 34800, Note_on_c, 2, 72, 105
4, 34872, Note_off_c, 2, 72, 64
4, 34920, Note_on_c, 2, 72, 105
4, 34992, Note_off_c, 2, 72, 64
4, 35040, Note_on_c, 2, 72, 105
4, 35184, Note_off_c, 2, 72, 64
4, 35280, Note_on_c, 2, 72, 105
4, 35352, Note_off_c, 2, 72, 64
4, 35400, Note_on_c, 2, 72, 105
4, 35472, Note_off_c, 2, 72, 64
4, 35520, Note_on_c, 2, 72, 105
4, 35928, Note_off_c, 2, 72, 64
4, 36000, Note_on_c, 2, 72, 105
4, 36408, Note_off_c, 2, 72, 64
4, 36480, Note_on_c, 2, 72, 105
4, 36684, Note_off_c, 2, 72, 64
4, 36720, Note_on_c, 2, 72, 105
4, 36924, Note_off_c, 2, 72, 64
4, 36960, Note_on_c, 2, 72, 105
4, 37164, Note_off_c, 2, 72, 64
4, 37200, Note_on_c, 2, 72, 105
4, 37404, Note_off_c, 2, 72, 64
4, 37440, Note_on_c, 2, 72, 105
4, 37632, Note_off_c, 2, 72, 64
4, 54960, Note_on_c, 2, 72, 105
4, 55152, Note_off_c, 2, 72, 64
4, 55200, Note_on_c, 2, 72, 105
4, 55680, Note_on_c, 2, 65, 105
4, 55872, Note_off_c, 2, 72, 64
4, 55872, Note_off_c, 2, 65, 64
4, 55920, Note_on_c, 2, 65, 105
4, 56112, Note_off_c, 2, 65, 64
4, 56160, Note_on_c, 2, 65, 105
4, 56352, Note_off_c, 2, 65, 64
4, 56400, Note_on_c, 2, 65, 105
4, 56592, Note_off_c, 2, 65, 64
4, 56640, Note_on_c, 2, 65, 105
4, 56832, Note_off_c, 2, 65, 64
4, 56880, Note_on_c, 2, 62, 105
4, 56880, Note_on_c, 2, 74, 105
4, 57312, Note_off_c, 2, 74, 64
4, 57312, Note_off_c, 2, 62, 64
4, 57600, Note_on_c, 2, 65, 105
4, 57600, Note_on_c, 2, 72, 105
4, 57792, Note_off_c, 2, 72, 64
4, 57792, Note_off_c, 2, 65, 64
4, 57840, Note_on_c, 2, 65, 105
4, 57840, Note_on_c, 2, 74, 105
4, 58272, Note_off_c, 2, 74, 64
4, 58272, Note_off_c, 2, 65, 64
4, 58320, Note_on_c, 2, 72, 105
4, 58512, Note_off_c, 2, 72, 64
4, 58560, Note_on_c, 2, 65, 92
4, 58560, Note_on_c, 2, 72, 92
4, 58752, Note_off_c, 2, 72, 64
4, 58752, Note_off_c, 2, 65, 64
4, 58800, Note_on_c, 2, 72, 105
4, 58992, Note_off_c, 2, 72, 64
4, 59040, Note_on_c, 2, 72, 105
4, 59520, Note_on_c, 2, 65, 105
4, 59712, Note_off_c, 2, 65, 64
4, 59712, Note_off_c, 2, 72, 64
4, 59760, Note_on_c, 2, 65, 105
4, 59952, Note_off_c, 2, 65, 64
4, 60000, Note_on_c, 2, 65, 105
4, 60192, Note_off_c, 2, 65, 64
4, 60240, Note_on_c, 2, 65, 105
4, 60432, Note_off_c, 2, 65, 64
4, 60480, Note_on_c, 2, 65, 105
4, 60672, Note_off_c, 2, 65, 64
4, 60720, Note_on_c, 2, 62, 105
4, 60720, Note_on_c, 2, 74, 105
4, 61152, Note_off_c, 2, 62, 64
4, 61152, Note_off_c, 2, 74, 64
4, 61440, Note_on_c, 2, 72, 105
4, 61440, Note_on_c, 2, 65, 105
4, 61632, Note_off_c, 2, 65, 64
4, 61632, Note_off_c, 2, 72, 64
4, 61680, Note_on_c, 2, 65, 105
4, 61680, Note_on_c, 2, 74, 105
4, 62112, Note_off_c, 2, 74, 64
4, 62112, Note_off_c, 2, 65, 64
4, 62160, Note_on_c, 2, 72, 105
4, 62352, Note_off_c, 2, 72, 64
4, 62400, Note_on_c, 2, 72, 92
4, 62400, Note_on_c, 2, 65, 92
4, 62592, Note_off_c, 2, 65, 64
4, 62592, Note_off_c, 2, 72, 64
4, 66240, Note_on_c, 2, 65, 105
4, 66396, Note_off_c, 2, 65, 64
4, 66480, Note_on_c, 2, 65, 105
4, 66558, Note_off_c, 2, 65, 64
4, 66600, Note_on_c, 2, 65, 105
4, 66678, Note_off_c, 2, 65, 64
4, 66720, Note_on_c, 2, 65, 105
4, 66876, Note_off_c, 2, 65, 64
4, 66960, Note_on_c, 2, 65, 105
4, 67038, Note_off_c, 2, 65, 64
4, 67080, Note_on_c, 2, 65, 105
4, 67158, Note_off_c, 2, 65, 64
4, 67200, Note_on_c, 2, 65, 105
4, 67356, Note_off_c, 2, 65, 64
4, 67440, Note_on_c, 2, 65, 105
4, 67518, Note_off_c, 2, 65, 64
4, 67560, Note_on_c, 2, 65, 105
4, 67638, Note_off_c, 2, 65, 64
4, 67680, Note_on_c, 2, 65, 105
4, 67836, Note_off_c, 2, 65, 64
4, 67920, Note_on_c, 2, 65, 105
4, 67998, Note_off_c, 2, 65, 64
4, 68040, Note_on_c, 2, 65, 105
4, 68118, Note_off_c, 2, 65, 64
4, 68160, Note_on_c, 2, 72, 105
4, 68316, Note_off_c, 2, 72, 64
4, 68400, Note_on_c, 2, 72, 105
4, 68478, Note_off_c, 2, 72, 64
4, 68520, Note_on_c, 2, 72, 105
4, 68598, Note_off_c, 2, 72, 64
4, 68640, Note_on_c, 2, 72, 105
4, 68796, Note_off_c, 2, 72, 64
4, 68880, Note_on_c, 2, 72, 105
4, 68958, Note_off_c, 2, 72, 64
4, 69000, Note_on_c, 2, 72, 105
4, 69078, Note_off_c, 2, 72, 64
4, 69120, Note_on_c, 2, 65, 105
4, 69120, Note_on_c, 2, 72, 105
4, 69576, Note_off_c, 2, 72, 64
4, 69576, Note_off_c, 2, 65, 64
4, 69600, Note_on_c, 2, 72, 105
4, 70056, Note_off_c, 2, 72, 64
4, 70080, Note_on_c, 2, 65, 105
4, 70272, Note_off_c, 2, 65, 64
4, 70800, Note_on_c, 2, 72, 105
4, 70932, Note_off_c, 2, 72, 64
4, 71040, Note_on_c, 2, 65, 105
4, 71040, Note_on_c, 2, 72, 105
4, 71172, Note_off_c, 2, 72, 64
4, 71172, Note_off_c, 2, 65, 64
4, 71760, Note_on_c, 2, 72, 105
4, 71892, Note_off_c, 2, 72, 64
4, 72000, Note_on_c, 2, 65, 105
4, 72000, Note_on_c, 2, 72, 105
4, 72132, Note_off_c, 2, 72, 64
4, 72132, Note_off_c, 2, 65, 64
4, 72720, Note_on_c, 2, 72, 105
4, 72852, Note_off_c, 2, 72, 64
4, 72960, Note_on_c, 2, 72, 105
4, 72960, Note_on_c, 2, 65, 105
4, 73092, Note_off_c, 2, 65, 64
4, 73092, Note_off_c, 2, 72, 64
4, 73680, Note_on_c, 2, 72, 105
4, 73812, Note_off_c, 2, 72, 64
4, 73920, Note_on_c, 2, 65, 105
4, 74304, Note_off_c, 2, 65, 64
4, 74400, Note_on_c, 2, 72, 105
4, 74784, Note_off_c, 2, 72, 64
4, 74880, Note_on_c, 2, 62, 105
4, 75264, Note_off_c, 2, 62, 64
4, 75840, Note_on_c, 2, 58, 105
4, 75840, Note_on_c, 2, 70, 105
4, 76032, Note_off_c, 2, 70, 64
4, 76032, Note_off_c, 2, 58, 64
4, 76320, Note_on_c, 2, 72, 105
4, 76512, Note_off_c, 2, 72, 64
4, 76560, Note_on_c, 2, 72, 105
4, 76752, Note_off_c, 2, 72, 64
4, 76800, Note_on_c, 2, 65, 105
4, 76800, Note_on_c, 2, 72, 105
4, 76992, Note_off_c, 2, 72, 64
4, 76992, Note_off_c, 2, 65, 64
4, 77040, Note_on_c, 2, 72, 105
4, 77040, Note_on_c, 2, 65, 105
4, 77232, Note_off_c, 2, 65, 64
4, 77232, Note_off_c, 2, 72, 64
4, 77280, Note_on_c, 2, 72, 105
4, 77280, Note_on_c, 2, 65, 105
4, 77472, Note_off_c, 2, 65, 64
4, 77472, Note_off_c, 2, 72, 64
4, 77760, Note_on_c, 2, 58, 105
4, 77760, Note_on_c, 2, 65, 105
4, 77952, Note_off_c, 2, 65, 64
4, 77952, Note_off_c, 2, 58, 64
4, 79680, Note_on_c, 2, 53, 105
4, 79680, Note_on_c, 2, 65, 105
4, 79872, Note_off_c, 2, 65, 64
4, 79872, Note_off_c, 2, 53, 64
4, 85440, Note_on_c, 2, 58, 105
4, 85440, Note_on_c, 2, 65, 105
4, 85632, Note_off_c, 2, 65, 64
4, 85632, Note_off_c, 2, 58, 64
4, 87360, Note_on_c, 2, 53, 105
4, 87360, Note_on_c, 2, 65, 105
4, 87552, Note_off_c, 2, 65, 64
4, 87552, Note_off_c, 2, 53, 64
4, 92640, Note_on_c, 2, 70, 105
4, 92640, Note_on_c, 2, 62, 105
4, 92832, Note_off_c, 2, 62, 64
4, 92832, Note_off_c, 2, 70, 64
4, 92880, Note_on_c, 2, 58, 105
4, 93024, Note_off_c, 2, 58, 64
4, 93060, Note_on_c, 2, 58, 105
4, 93108, Note_off_c, 2, 58, 64
4, 93120, Note_on_c, 2, 58, 105
4, 93264, Note_off_c, 2, 58, 64
4, 93300, Note_on_c, 2, 58, 105
4, 93348, Note_off_c, 2, 58, 64
4, 93360, Note_on_c, 2, 58, 105
4, 93504, Note_off_c, 2, 58, 64
4, 93540, Note_on_c, 2, 58, 105
4, 93588, Note_off_c, 2, 58, 64
4, 93600, Note_on_c, 2, 58, 105
4, 93732, Note_off_c, 2, 58, 64
4, 93840, Note_on_c, 2, 62, 105
4, 93972, Note_off_c, 2, 62, 64
4, 94080, Note_on_c, 2, 65, 105
4, 94212, Note_off_c, 2, 65, 64
4, 95520, Note_on_c, 2, 58, 105
4, 95652, Note_off_c, 2, 58, 64
4, 95760, Note_on_c, 2, 62, 105
4, 95892, Note_off_c, 2, 62, 64
4, 96000, Note_on_c, 2, 65, 105
4, 96132, Note_off_c, 2, 65, 64
4, 96240, Note_on_c, 2, 70, 105
4, 96372, Note_off_c, 2, 70, 64
4, 96480, Note_on_c, 2, 65, 105
4, 96612, Note_off_c, 2, 65, 64
4, 96720, Note_on_c, 2, 62, 105
4, 96852, Note_off_c, 2, 62, 64
4, 96960, Note_on_c, 2, 58, 105
4, 97092, Note_off_c, 2, 58, 64
4, 110880, Note_on_c, 2, 72, 105
4, 111024, Note_off_c, 2, 72, 64
4, 111120, Note_on_c, 2, 72, 105
4, 111192, Note_off_c, 2, 72, 64
4, 111240, Note_on_c, 2, 72, 105
4, 111312, Note_off_c, 2, 72, 64
4, 111360, Note_on_c, 2, 72, 105
4, 111504, Note_off_c, 2, 72, 64
4, 111600, Note_on_c, 2, 72, 105
4, 111672, Note_off_c, 2, 72, 64
4, 111720, Note_on_c, 2, 72, 105
4, 111792, Note_off_c, 2, 72, 64
4, 111840, Note_on_c, 2, 72, 105
4, 111984, Note_off_c, 2, 72, 64
4, 112080, Note_on_c, 2, 72, 105
4, 112152, Note_off_c, 2, 72, 64
4, 112200, Note_on_c, 2, 72, 105
4, 112272, Note_off_c, 2, 72, 64
4, 112320, Note_on_c, 2, 72, 105
4, 112464, Note_off_c, 2, 72, 64
4, 112560, Note_on_c, 2, 72, 105
4, 112632, Note_off_c, 2, 72, 64
4, 112680, Note_on_c, 2, 72, 105
4, 112752, Note_off_c, 2, 72, 64
4, 112800, Note_on_c, 2, 72, 105
4, 113208, Note_off_c, 2, 72, 64
4, 113280, Note_on_c, 2, 72, 105
4, 113688, Note_off_c, 2, 72, 64
4, 113760, Note_on_c, 2, 72, 105
4, 113964, Note_off_c, 2, 72, 64
4, 114000, Note_on_c, 2, 72, 105
4, 114204, Note_off_c, 2, 72, 64
4, 114240, Note_on_c, 2, 72, 105
4, 114444, Note_off_c, 2, 72, 64
4, 114480, Note_on_c, 2, 72, 105
4, 114684, Note_off_c, 2, 72, 64
4, 114720, Note_on_c, 2, 72, 105
4, 114912, Note_off_c, 2, 72, 64
4, 132240, Note_on_c, 2, 72, 105
4, 132432, Note_off_c, 2, 72, 64
4, 132480, Note_on_c, 2, 72, 105
4, 132960, Note_on_c, 2, 65, 105
4, 133152, Note_off_c, 2, 72, 64
4, 133152, Note_off_c, 2, 65, 64
4, 133200, Note_on_c, 2, 65, 105
4, 133392, Note_off_c, 2, 65, 64
4, 133440, Note_on_c, 2, 65, 105
4, 133632, Note_off_c, 2, 65, 64
4, 133680, Note_on_c, 2, 65, 105
4, 133872, Note_off_c, 2, 65, 64
4, 133920, Note_on_c, 2, 65, 105
4, 134112, Note_off_c, 2, 65, 64
4, 134160, Note_on_c, 2, 62, 105
4, 134160, Note_on_c, 2, 74, 105
4, 134592, Note_off_c, 2, 74, 64
4, 134592, Note_off_c, 2, 62, 64
4, 134880, Note_on_c, 2, 65, 105
4, 134880, Note_on_c, 2, 72, 105
4, 135072, Note_off_c, 2, 72, 64
4, 135072, Note_off_c, 2, 65, 64
4, 135120, Note_on_c, 2, 65, 105
4, 135120, Note_on_c, 2, 74, 105
4, 135552, Note_off_c, 2, 74, 64
4, 135552, Note_off_c, 2, 65, 64
4, 135600, Note_on_c, 2, 72, 105
4, 135792, Note_off_c, 2, 72, 64
4, 135840, Note_on_c, 2, 65, 92
4, 135840, Note_on_c, 2, 72, 92
4, 136032, Note_off_c, 2, 72, 64
4, 136032, Note_off_c, 2, 65, 64
4, 136080, Note_on_c, 2, 72, 105
4, 136272, Note_off_c, 2, 72, 64
4, 136320, Note_on_c, 2, 72, 105
4, 136800, Note_on_c, 2, 65, 105
4, 136992, Note_off_c, 2, 65, 64
4, 136992, Note_off_c, 2, 72, 64
4, 137040, Note_on_c, 2, 65, 105
4, 137232, Note_off_c, 2, 65, 64
4, 137280, Note_on_c, 2, 65, 105
4, 137472, Note_off_c, 2, 65, 64
4, 137520, Note_on_c, 2, 65, 105
4, 137712, Note_off_c, 2, 65, 64
4, 137760, Note_on_c, 2, 65, 105
4, 137952, Note_off_c, 2, 65, 64
4, 138000, Note_on_c, 2, 62, 105
4, 138000, Note_on_c, 2, 74, 105
4, 138432, Note_off_c, 2, 62, 64
4, 138432, Note_off_c, 2, 74, 64
4, 138720, Note_on_c, 2, 72, 105
4, 138720, Note_on_c, 2, 65, 105
4, 138912, Note_off_c, 2, 65, 64
4, 138912, Note_off_c, 2, 72, 64
4, 138960, Note_on_c, 2, 65, 105
4, 138960, Note_on_c, 2, 74, 105
4, 139392, Note_off_c, 2, 74, 64
4, 139392, Note_off_c, 2, 65, 64
4, 139440, Note_on_c, 2, 72, 105
4, 139632, Note_off_c, 2, 72, 64
4, 139680, Note_on_c, 2, 72, 92
4, 139680, Note_on_c, 2, 65, 92
4, 139872, Note_off_c, 2, 65, 64
4, 139872, Note_off_c, 2, 72, 64
4, 143520, Note_on_c, 2, 65, 105
4, 143676, Note_off_c, 2, 65, 64
4, 143760, Note_on_c, 2, 65, 105
4, 143838, Note_off_c, 2, 65, 64
4, 143880, Note_on_c, 2, 65, 105
4, 143958, Note_off_c, 2, 65, 64
4, 144000, Note_on_c, 2, 65, 105
4, 144156, Note_off_c, 2, 65, 64
4, 144240, Note_on_c, 2, 65, 105
4, 144318, Note_off_c, 2, 65, 64
4, 144360, Note_on_c, 2, 65, 105
4, 144438, Note_off_c, 2, 65, 64
4, 144480, Note_on_c, 2, 65, 105
4, 144636, Note_off_c, 2, 65, 64
4, 144720, Note_on_c, 2, 65, 105
4, 144798, Note_off_c, 2, 65, 64
4, 144840, Note_on_c, 2, 65, 105
4, 144918, Note_off_c, 2, 65, 64
4, 144960, Note_on_c, 2, 65, 105
4, 145116, Note_off_c, 2, 65, 64
4, 145200, Note_on_c, 2, 65, 105
4, 145278, Note_off_c, 2, 65, 64
4, 145320, Note_on_c, 2, 65, 105
4, 145398, Note_off_c, 2, 65, 64
4, 145440, Note_on_c, 2, 72, 105
4, 145596, Note_off_c, 2, 72, 64
4, 145680, Note_on_c, 2, 72, 105
4, 145758, Note_off_c, 2, 72, 64
4, 145800, Note_on_c, 2, 72, 105
4, 145878, Note_off_c, 2, 72, 64
4, 145920, Note_on_c, 2, 72, 105
4, 146076, Note_off_c, 2, 72, 64
4, 146160, Note_on_c, 2, 72, 105
4, 146238, Note_off_c, 2, 72, 64
4, 146280, Note_on_c, 2, 72, 105
4, 146358, Note_off_c, 2, 72, 64
4, 146400, Note_on_c, 2, 65, 105
4, 146400, Note_on_c, 2, 72, 105
4, 146856, Note_off_c, 2, 72, 64
4, 146856, Note_off_c, 2, 65, 64
4, 146880, Note_on_c, 2, 72, 105
4, 147336, Note_off_c, 2, 72, 64
4, 147360, Note_on_c, 2, 65, 105
4, 147552, Note_off_c, 2, 65, 64
4, 148080, Note_on_c, 2, 72, 105
4, 148212, Note_off_c, 2, 72, 64
4, 148320, Note_on_c, 2, 65, 105
4, 148320, Note_on_c, 2, 72, 105
4, 148452, Note_off_c, 2, 72, 64
4, 148452, Note_off_c, 2, 65, 64
4, 149040, Note_on_c, 2, 72, 105
4, 149172, Note_off_c, 2, 72, 64
4, 149280, Note_on_c, 2, 65, 105
4, 149280, Note_on_c, 2, 72, 105
4, 149412, Note_off_c, 2, 72, 64
4, 149412, Note_off_c, 2, 65, 64
4, 150000, Note_on_c, 2, 72, 105
4, 150132, Note_off_c, 2, 72, 64
4, 150240, Note_on_c, 2, 72, 105
4, 150240, Note_on_c, 2, 65, 105
4, 150372, Note_off_c, 2, 65, 64
4, 150372, Note_off_c, 2, 72, 64
4, 150960, Note_on_c, 2, 72, 105
4, 151092, Note_off_c, 2, 72, 64
4, 151200, Note_on_c, 2, 65, 105
4, 151584, Note_off_c, 2, 65, 64
4, 151680, Note_on_c, 2, 72, 105
4, 152064, Note_off_c, 2, 72, 64
4, 152160, Note_on_c, 2, 62, 105
4, 152544, Note_off_c, 2, 62, 64
4, 153120, Note_on_c, 2, 58, 105
4, 153120, Note_on_c, 2, 70, 105
4, 153312, Note_off_c, 2, 70, 64
4, 153312, Note_off_c, 2, 58, 64
4, 153600, Note_on_c, 2, 72, 105
4, 153792, Note_off_c, 2, 72, 64
4, 153840, Note_on_c, 2, 72, 105
4, 154032, Note_off_c, 2, 72, 64
4, 154080, Note_on_c, 2, 65, 105
4, 154080, Note_on_c, 2, 72, 105
4, 154272, Note_off_c, 2, 72, 64
4, 154272, Note_off_c, 2, 65, 64
4, 154320, Note_on_c, 2, 72, 105
4, 154320, Note_on_c, 2, 65, 105
4, 154512, Note_off_c, 2, 65, 64
4, 154512, Note_off_c, 2, 72, 64
4, 154560, Note_on_c, 2, 72, 105
4, 154560, Note_on_c, 2, 65, 105
4, 154752, Note_off_c, 2, 65, 64
4, 154752, Note_off_c, 2, 72, 64
4, 171360, Note_on_c, 2, 70, 70
4, 171744, Note_off_c, 2, 70, 64
4, 171840, Note_on_c, 2, 65, 70
4, 172224, Note_off_c, 2, 65, 64
4, 175200, Note_on_c, 2, 65, 105
4, 175584, Note_off_c, 2, 65, 64
4, 180000, Note_on_c, 2, 58, 105
4, 180000, Note_on_c, 2, 65, 105
4, 180192, Note_off_c, 2, 65, 64
4, 180192, Note_off_c, 2, 58, 64
4, 181920, Note_on_c, 2, 53, 105
4, 181920, Note_on_c, 2, 65, 105
4, 182112, Note_off_c, 2, 65, 64
4, 182112, Note_off_c, 2, 53, 64
4, 187200, Note_on_c, 2, 70, 105
4, 187200, Note_on_c, 2, 62, 105
4, 187356, Note_off_c, 2, 62, 64
4, 187356, Note_off_c, 2, 70, 64
4, 187440, Note_on_c, 2, 58, 105
4, 187557, Note_off_c, 2, 58, 64
4, 187620, Note_on_c, 2, 58, 105
4, 187659, Note_off_c, 2, 58, 64
4, 187680, Note_on_c, 2, 58, 105
4, 187797, Note_off_c, 2, 58, 64
4, 187860, Note_on_c, 2, 58, 105
4, 187899, Note_off_c, 2, 58, 64
4, 187920, Note_on_c, 2, 58, 105
4, 188037, Note_off_c, 2, 58, 64
4, 188100, Note_on_c, 2, 58, 105
4, 188139, Note_off_c, 2, 58, 64
4, 188160, Note_on_c, 2, 58, 105
4, 188292, Note_off_c, 2, 58, 64
4, 188400, Note_on_c, 2, 62, 105
4, 188532, Note_off_c, 2, 62, 64
4, 188640, Note_on_c, 2, 65, 105
4, 188772, Note_off_c, 2, 65, 64
4, 190080, Note_on_c, 2, 58, 105
4, 190212, Note_off_c, 2, 58, 64
4, 190320, Note_on_c, 2, 62, 105
4, 190452, Note_off_c, 2, 62, 64
4, 190560, Note_on_c, 2, 65, 105
4, 190692, Note_off_c, 2, 65, 64
4, 190800, Note_on_c, 2, 70, 105
4, 190932, Note_off_c, 2, 70, 64
4, 191040, Note_on_c, 2, 65, 105
4, 191172, Note_off_c, 2, 65, 64
4, 191280, Note_on_c, 2, 62, 105
4, 191412, Note_off_c, 2, 62, 64
4, 191520, Note_on_c, 2, 58, 105
4, 191652, Note_off_c, 2, 58, 64
4, 205440, Note_on_c, 2, 65, 105
4, 205584, Note_off_c, 2, 65, 64
4, 205680, Note_on_c, 2, 65, 105
4, 205752, Note_off_c, 2, 65, 64
4, 205800, Note_on_c, 2, 65, 105
4, 205872, Note_off_c, 2, 65, 64
4, 205920, Note_on_c, 2, 65, 105
4, 206064, Note_off_c, 2, 65, 64
4, 206160, Note_on_c, 2, 65, 105
4, 206232, Note_off_c, 2, 65, 64
4, 206280, Note_on_c, 2, 65, 105
4, 206352, Note_off_c, 2, 65, 64
4, 206400, Note_on_c, 2, 65, 105
4, 206544, Note_off_c, 2, 65, 64
4, 206640, Note_on_c, 2, 65, 105
4, 206712, Note_off_c, 2, 65, 64
4, 206760, Note_on_c, 2, 65, 105
4, 206832, Note_off_c, 2, 65, 64
4, 206880, Note_on_c, 2, 65, 105
4, 207024, Note_off_c, 2, 65, 64
4, 207120, Note_on_c, 2, 65, 105
4, 207192, Note_off_c, 2, 65, 64
4, 207240, Note_on_c, 2, 65, 105
4, 207312, Note_off_c, 2, 65, 64
4, 207360, Note_on_c, 2, 65, 105
4, 207744, Note_off_c, 2, 65, 64
4, 207840, Note_on_c, 2, 65, 105
4, 208224, Note_off_c, 2, 65, 64
4, 208320, Note_on_c, 2, 65, 105
4, 208512, Note_off_c, 2, 65, 64
4, 208560, Note_on_c, 2, 65, 105
4, 208752, Note_off_c, 2, 65, 64
4, 208800, Note_on_c, 2, 65, 105
4, 208992, Note_off_c, 2, 65, 64
4, 209040, Note_on_c, 2, 65, 105
4, 209232, Note_off_c, 2, 65, 64
4, 209280, Note_on_c, 2, 65, 105
4, 209472, Note_off_c, 2, 65, 64
4, 226800, Note_on_c, 2, 65, 105
4, 226944, Note_off_c, 2, 65, 64
4, 227040, Note_on_c, 2, 65, 105
4, 227184, Note_off_c, 2, 65, 64
4, 227280, Note_on_c, 2, 65, 105
4, 227424, Note_off_c, 2, 65, 64
4, 227520, Note_on_c, 2, 65, 105
4, 227664, Note_off_c, 2, 65, 64
4, 227760, Note_on_c, 2, 70, 105
4, 227760, Note_on_c, 2, 58, 105
4, 227904, Note_off_c, 2, 58, 64
4, 227904, Note_off_c, 2, 70, 64
4, 228000, Note_on_c, 2, 58, 105
4, 228000, Note_on_c, 2, 70, 105
4, 228144, Note_off_c, 2, 70, 64
4, 228144, Note_off_c, 2, 58, 64
4, 228240, Note_on_c, 2, 58, 105
4, 228240, Note_on_c, 2, 70, 105
4, 228384, Note_off_c, 2, 70, 64
4, 228384, Note_off_c, 2, 58, 64
4, 228480, Note_on_c, 2, 58, 105
4, 228480, Note_on_c, 2, 70, 105
4, 228624, Note_off_c, 2, 70, 64
4, 228624, Note_off_c, 2, 58, 64
4, 229200, Note_on_c, 2, 72, 105
4, 229344, Note_off_c, 2, 72, 64
4, 229440, Note_on_c, 2, 70, 105
4, 229440, Note_on_c, 2, 74, 105
4, 229584, Note_off_c, 2, 74, 64
4, 229584, Note_off_c, 2, 70, 64
4, 229680, Note_on_c, 2, 72, 105
4, 229824, Note_off_c, 2, 72, 64
4, 229920, Note_on_c, 2, 70, 105
4, 229920, Note_on_c, 2, 74, 105
4, 230064, Note_off_c, 2, 74, 64
4, 230064, Note_off_c, 2, 70, 64
4, 230160, Note_on_c, 2, 72, 105
4, 230160, Note_on_c, 2, 65, 105
4, 230304, Note_off_c, 2, 65, 64
4, 230304, Note_off_c, 2, 72, 64
4, 230400, Note_on_c, 2, 70, 105
4, 230400, Note_on_c, 2, 62, 92
4, 230544, Note_off_c, 2, 62, 64
4, 230544, Note_off_c, 2, 70, 64
4, 230640, Note_on_c, 2, 65, 105
4, 230784, Note_off_c, 2, 65, 64
4, 230880, Note_on_c, 2, 65, 105
4, 231024, Note_off_c, 2, 65, 64
4, 231120, Note_on_c, 2, 65, 105
4, 231264, Note_off_c, 2, 65, 64
4, 231360, Note_on_c, 2, 65, 105
4, 231504, Note_off_c, 2, 65, 64
4, 231600, Note_on_c, 2, 58, 105
4, 231600, Note_on_c, 2, 70, 105
4, 231744, Note_off_c, 2, 70, 64
4, 231744, Note_off_c, 2, 58, 64
4, 231840, Note_on_c, 2, 70, 105
4, 231840, Note_on_c, 2, 58, 105
4, 231984, Note_off_c, 2, 58, 64
4, 231984, Note_off_c, 2, 70, 64
4, 232080, Note_on_c, 2, 58, 105
4, 232080, Note_on_c, 2, 70, 105
4, 232224, Note_off_c, 2, 70, 64
4, 232224, Note_off_c, 2, 58, 64
4, 232320, Note_on_c, 2, 70, 105
4, 232320, Note_on_c, 2, 58, 105
4, 232464, Note_off_c, 2, 58, 64
4, 232464, Note_off_c, 2, 70, 64
4, 233040, Note_on_c, 2, 72, 105
4, 233184, Note_off_c, 2, 72, 64
4, 233280, Note_on_c, 2, 74, 105
4, 233280, Note_on_c, 2, 70, 105
4, 233424, Note_off_c, 2, 70, 64
4, 233424, Note_off_c, 2, 74, 64
4, 233520, Note_on_c, 2, 72, 105
4, 233664, Note_off_c, 2, 72, 64
4, 233760, Note_on_c, 2, 70, 105
4, 233760, Note_on_c, 2, 74, 105
4, 233904, Note_off_c, 2, 74, 64
4, 233904, Note_off_c, 2, 70, 64
4, 234000, Note_on_c, 2, 72, 105
4, 234144, Note_off_c, 2, 72, 64
4, 234240, Note_on_c, 2, 70, 105
4, 234384, Note_off_c, 2, 70, 64
4, 236160, Note_on_c, 2, 65, 105
4, 236316, Note_off_c, 2, 65, 64
4, 236400, Note_on_c, 2, 65, 105
4, 236478, Note_off_c, 2, 65, 64
4, 236520, Note_on_c, 2, 65, 105
4, 236598, Note_off_c, 2, 65, 64
4, 236640, Note_on_c, 2, 65, 105
4, 236796, Note_off_c, 2, 65, 64
4, 236880, Note_on_c, 2, 65, 105
4, 237036, Note_off_c, 2, 65, 64
4, 237120, Note_on_c, 2, 65, 105
4, 237276, Note_off_c, 2, 65, 64
4, 237360, Note_on_c, 2, 65, 105
4, 237438, Note_off_c, 2, 65, 64
4, 237480, Note_on_c, 2, 65, 105
4, 237558, Note_off_c, 2, 65, 64
4, 237600, Note_on_c, 2, 65, 105
4, 237756, Note_off_c, 2, 65, 64
4, 237840, Note_on_c, 2, 65, 105
4, 237996, Note_off_c, 2, 65, 64
4, 238080, Note_on_c, 2, 58, 105
4, 238080, Note_on_c, 2, 65, 105
4, 238236, Note_off_c, 2, 65, 64
4, 238236, Note_off_c, 2, 58, 64
4, 241920, Note_on_c, 2, 70, 105
4, 241920, Note_on_c, 2, 58, 105
4, 242064, Note_off_c, 2, 58, 64
4, 242064, Note_off_c, 2, 70, 64
4, 242160, Note_on_c, 2, 58, 105
4, 242160, Note_on_c, 2, 70, 105
4, 242232, Note_off_c, 2, 70, 64
4, 242232, Note_off_c, 2, 58, 64
4, 242280, Note_on_c, 2, 70, 105
4, 242280, Note_on_c, 2, 58, 105
4, 242352, Note_off_c, 2, 58, 64
4, 242352, Note_off_c, 2, 70, 64
4, 242400, Note_on_c, 2, 70, 105
4, 242400, Note_on_c, 2, 58, 105
4, 242544, Note_off_c, 2, 58, 64
4, 242544, Note_off_c, 2, 70, 64
4, 242640, Note_on_c, 2, 58, 105
4, 242640, Note_on_c, 2, 70, 105
4, 242712, Note_off_c, 2, 70, 64
4, 242712, Note_off_c, 2, 58, 64
4, 242760, Note_on_c, 2, 58, 105
4, 242760, Note_on_c, 2, 70, 105
4, 242832, Note_off_c, 2, 70, 64
4, 242832, Note_off_c, 2, 58, 64
4, 242880, Note_on_c, 2, 58, 105
4, 242880, Note_on_c, 2, 70, 105
4, 243024, Note_off_c, 2, 70, 64
4, 243024, Note_off_c, 2, 58, 64
4, 243120, Note_on_c, 2, 58, 105
4, 243120, Note_on_c, 2, 70, 105
4, 243192, Note_off_c, 2, 70, 64
4, 243192, Note_off_c, 2, 58, 64
4, 243240, Note_on_c, 2, 70, 105
4, 243240, Note_on_c, 2, 58, 105
4, 243312, Note_off_c, 2, 58, 64
4, 243312, Note_off_c, 2, 70, 64
4, 243360, Note_on_c, 2, 70, 105
4, 243360, Note_on_c, 2, 58, 105
4, 243504, Note_off_c, 2, 58, 64
4, 243504, Note_off_c, 2, 70, 64
4, 243600, Note_on_c, 2, 58, 105
4, 243600, Note_on_c, 2, 70, 105
4, 243672, Note_off_c, 2, 70, 64
4, 243672, Note_off_c, 2, 58, 64
4, 243720, Note_on_c, 2, 70, 105
4, 243720, Note_on_c, 2, 58, 105
4, 243792, Note_off_c, 2, 58, 64
4, 243792, Note_off_c, 2, 70, 64
4, 243840, Note_on_c, 2, 53, 105
4, 243840, Note_on_c, 2, 65, 105
4, 243984, Note_off_c, 2, 65, 64
4, 243984, Note_off_c, 2, 53, 64
4, 244080, Note_on_c, 2, 53, 105
4, 244080, Note_on_c, 2, 65, 105
4, 244152, Note_off_c, 2, 65, 64
4, 244152, Note_off_c, 2, 53, 64
4, 244200, Note_on_c, 2, 65, 105
4, 244200, Note_on_c, 2, 53, 105
4, 244272, Note_off_c, 2, 53, 64
4, 244272, Note_off_c, 2, 65, 64
4, 244320, Note_on_c, 2, 65, 105
4, 244320, Note_on_c, 2, 53, 105
4, 244464, Note_off_c, 2, 53, 64
4, 244464, Note_off_c, 2, 65, 64
4, 244560, Note_on_c, 2, 53, 105
4, 244560, Note_on_c, 2, 65, 105
4, 244632, Note_off_c, 2, 65, 64
4, 244632, Note_off_c, 2, 53, 64
4, 244680, Note_on_c, 2, 65, 105
4, 244680, Note_on_c, 2, 53, 105
4, 244752, Note_off_c, 2, 53, 64
4, 244752, Note_off_c, 2, 65, 64
4, 244800, Note_on_c, 2, 58, 105
4, 244800, Note_on_c, 2, 65, 105
4, 245184, Note_off_c, 2, 65, 64
4, 245184, Note_off_c, 2, 58, 64
4, 245280, Note_on_c, 2, 53, 105
4, 245280, Note_on_c, 2, 65, 105
4, 245664, Note_off_c, 2, 65, 64
4, 245664, Note_off_c, 2, 53, 64
4, 245760, Note_on_c, 2, 58, 105
4, 245760, Note_on_c, 2, 65, 105
4, 245952, Note_off_c, 2, 65, 64
4, 245952, Note_off_c, 2, 58, 64
4, 246480, Note_on_c, 2, 72, 105
4, 246480, Note_on_c, 2, 65, 105
4, 246612, Note_off_c, 2, 65, 64
4, 246612, Note_off_c, 2, 72, 64
4, 246720, Note_on_c, 2, 70, 105
4, 246720, Note_on_c, 2, 74, 105
4, 246852, Note_off_c, 2, 74, 64
4, 246852, Note_off_c, 2, 70, 64
4, 247440, Note_on_c, 2, 65, 105
4, 247440, Note_on_c, 2, 72, 105
4, 247572, Note_off_c, 2, 72, 64
4, 247572, Note_off_c, 2, 65, 64
4, 247680, Note_on_c, 2, 70, 105
4, 247680, Note_on_c, 2, 62, 105
4, 247812, Note_off_c, 2, 62, 64
4, 247812, Note_off_c, 2, 70, 64
4, 248400, Note_on_c, 2, 65, 105
4, 248400, Note_on_c, 2, 72, 105
4, 248532, Note_off_c, 2, 72, 64
4, 248532, Note_off_c, 2, 65, 64
4, 248640, Note_on_c, 2, 70, 105
4, 248640, Note_on_c, 2, 74, 105
4, 248772, Note_off_c, 2, 74, 64
4, 248772, Note_off_c, 2, 70, 64
4, 249360, Note_on_c, 2, 72, 105
4, 249360, Note_on_c, 2, 65, 105
4, 249492, Note_off_c, 2, 65, 64
4, 249492, Note_off_c, 2, 72, 64
4, 249600, Note_on_c, 2, 70, 105
4, 249600, Note_on_c, 2, 58, 105
4, 249984, Note_off_c, 2, 58, 64
4, 249984, Note_off_c, 2, 70, 64
4, 250080, Note_on_c, 2, 77, 105
4, 250080, Note_on_c, 2, 65, 105
4, 250464, Note_off_c, 2, 65, 64
4, 250464, Note_off_c, 2, 77, 64
4, 251040, Note_on_c, 2, 62, 105
4, 251040, Note_on_c, 2, 74, 105
4, 251424, Note_off_c, 2, 74, 64
4, 251424, Note_off_c, 2, 62, 64
4, 252000, Note_on_c, 2, 65, 105
4, 252156, Note_off_c, 2, 65, 64
4, 252240, Note_on_c, 2, 65, 105
4, 252396, Note_off_c, 2, 65, 64
4, 252480, Note_on_c, 2, 62, 105
4, 252480, Note_on_c, 2, 70, 105
4, 252636, Note_off_c, 2, 70, 64
4, 252636, Note_off_c, 2, 62, 64
4, 252720, Note_on_c, 2, 58, 105
4, 252837, Note_off_c, 2, 58, 64
4, 252900, Note_on_c, 2, 58, 105
4, 252939, Note_off_c, 2, 58, 64
4, 252960, Note_on_c, 2, 58, 105
4, 253077, Note_off_c, 2, 58, 64
4, 253140, Note_on_c, 2, 58, 105
4, 253179, Note_off_c, 2, 58, 64
4, 253200, Note_on_c, 2, 58, 105
4, 253317, Note_off_c, 2, 58, 64
4, 253380, Note_on_c, 2, 58, 105
4, 253419, Note_off_c, 2, 58, 64
4, 253440, Note_on_c, 2, 58, 105
4, 253572, Note_off_c, 2, 58, 64
4, 253680, Note_on_c, 2, 62, 105
4, 253812, Note_off_c, 2, 62, 64
4, 253920, Note_on_c, 2, 65, 105
4, 254052, Note_off_c, 2, 65, 64
4, 255360, Note_on_c, 2, 58, 105
4, 255492, Note_off_c, 2, 58, 64
4, 255600, Note_on_c, 2, 62, 105
4, 255732, Note_off_c, 2, 62, 64
4, 255840, Note_on_c, 2, 65, 105
4, 255972, Note_off_c, 2, 65, 64
4, 256080, Note_on_c, 2, 70, 105
4, 256212, Note_off_c, 2, 70, 64
4, 256320, Note_on_c, 2, 65, 105
4, 256452, Note_off_c, 2, 65, 64
4, 256560, Note_on_c, 2, 62, 105
4, 256692, Note_off_c, 2, 62, 64
4, 256800, Note_on_c, 2, 58, 105
4, 256932, Note_off_c, 2, 58, 64
4, 256932, End_track
5, 0, Start_track
5, 0, Program_c, 10, 48
5, 0, Control_c, 10, 7, 126
5, 0, Control_c, 10, 91, 70
5, 0, Control_c, 10, 10, 28
5, 480, Note_on_c, 10, 62, 120
5, 480, Note_on_c, 10, 70, 120
5, 480, Note_on_c, 10, 82, 120
5, 636, Note_off_c, 10, 82, 64
5, 636, Note_off_c, 10, 70, 64
5, 636, Note_off_c, 10, 62, 64
5, 720, Note_on_c, 10, 70, 80
5, 768, Note_off_c, 10, 70, 64
5, 800, Note_on_c, 10, 70, 80
5, 848, Note_off_c, 10, 70, 64
5, 880, Note_on_c, 10, 70, 80
5, 928, Note_off_c, 10, 70, 64
5, 960, Note_on_c, 10, 70, 80
5, 1008, Note_off_c, 10, 70, 64
5, 1040, Note_on_c, 10, 70, 80
5, 1088, Note_off_c, 10, 70, 64
5, 1120, Note_on_c, 10, 70, 80
5, 1168, Note_off_c, 10, 70, 64
5, 1200, Note_on_c, 10, 70, 80
5, 1248, Note_off_c, 10, 70, 64
5, 1280, Note_on_c, 10, 70, 80
5, 1328, Note_off_c, 10, 70, 64
5, 1360, Note_on_c, 10, 70, 80
5, 1408, Note_off_c, 10, 70, 64
5, 1440, Note_on_c, 10, 70, 80
5, 1506, Note_off_c, 10, 70, 64
5, 1680, Note_on_c, 10, 74, 80
5, 1746, Note_off_c, 10, 74, 64
5, 1920, Note_on_c, 10, 72, 80
5, 2112, Note_off_c, 10, 72, 64
5, 2400, Note_on_c, 10, 84, 120
5, 2556, Note_off_c, 10, 84, 64
5, 2640, Note_on_c, 10, 72, 80
5, 2688, Note_off_c, 10, 72, 64
5, 2720, Note_on_c, 10, 72, 80
5, 2768, Note_off_c, 10, 72, 64
5, 2800, Note_on_c, 10, 72, 80
5, 2848, Note_off_c, 10, 72, 64
5, 2880, Note_on_c, 10, 72, 80
5, 2928, Note_off_c, 10, 72, 64
5, 2960, Note_on_c, 10, 72, 80
5, 3008, Note_off_c, 10, 72, 64
5, 3040, Note_on_c, 10, 72, 80
5, 3088, Note_off_c, 10, 72, 64
5, 3120, Note_on_c, 10, 72, 80
5, 3168, Note_off_c, 10, 72, 64
5, 3200, Note_on_c, 10, 72, 80
5, 3248, Note_off_c, 10, 72, 64
5, 3280, Note_on_c, 10, 72, 80
5, 3328, Note_off_c, 10, 72, 64
5, 3360, Note_on_c, 10, 72, 80
5, 3426, Note_off_c, 10, 72, 64
5, 3600, Note_on_c, 10, 75, 80
5, 3666, Note_off_c, 10, 75, 64
5, 3840, Note_on_c, 10, 74, 80
5, 4032, Note_off_c, 10, 74, 64
5, 4320, Note_on_c, 10, 77, 80
5, 4500, Note_off_c, 10, 77, 64
5, 4500, Note_on_c, 10, 79, 80
5, 4560, Note_off_c, 10, 79, 64
5, 4560, Note_on_c, 10, 81, 80
5, 4740, Note_off_c, 10, 81, 64
5, 4740, Note_on_c, 10, 82, 80
5, 4788, Note_off_c, 10, 82, 64
5, 4800, Note_on_c, 10, 81, 80
5, 5040, Note_off_c, 10, 81, 64
5, 5040, Note_on_c, 10, 79, 80
5, 5136, Note_off_c, 10, 79, 64
5, 5280, Note_on_c, 10, 82, 80
5, 5460, Note_off_c, 10, 82, 64
5, 5460, Note_on_c, 10, 81, 80
5, 5520, Note_off_c, 10, 81, 64
5, 5520, Note_on_c, 10, 79, 80
5, 5700, Note_off_c, 10, 79, 64
5, 5700, Note_on_c, 10, 77, 80
5, 5748, Note_off_c, 10, 77, 64
5, 5760, Note_on_c, 10, 77, 80
5, 6000, Note_off_c, 10, 77, 64
5, 6000, Note_on_c, 10, 75, 80
5, 6096, Note_off_c, 10, 75, 64
5, 6240, Note_on_c, 10, 74, 80
5, 6420, Note_off_c, 10, 74, 64
5, 6420, Note_on_c, 10, 75, 80
5, 6480, Note_off_c, 10, 75, 64
5, 6480, Note_on_c, 10, 77, 80
5, 6560, Note_off_c, 10, 77, 64
5, 6560, Note_on_c, 10, 79, 80
5, 6640, Note_off_c, 10, 79, 64
5, 6640, Note_on_c, 10, 77, 80
5, 6704, Note_off_c, 10, 77, 64
5, 6720, Note_on_c, 10, 75, 80
5, 6786, Note_off_c, 10, 75, 64
5, 6960, Note_on_c, 10, 74, 80
5, 7026, Note_off_c, 10, 74, 64
5, 7200, Note_on_c, 10, 72, 80
5, 7266, Note_off_c, 10, 72, 64
5, 7440, Note_on_c, 10, 70, 80
5, 7506, Note_off_c, 10, 70, 64
5, 7680, Note_on_c, 10, 69, 80
5, 7732, Note_off_c, 10, 69, 64
5, 7760, Note_on_c, 10, 72, 80
5, 7812, Note_off_c, 10, 72, 64
5, 7840, Note_on_c, 10, 70, 80
5, 7892, Note_off_c, 10, 70, 64
5, 7920, Note_on_c, 10, 69, 80
5, 7972, Note_off_c, 10, 69, 64
5, 8000, Note_on_c, 10, 67, 80
5, 8052, Note_off_c, 10, 67, 64
5, 8080, Note_on_c, 10, 65, 80
5, 8132, Note_off_c, 10, 65, 64
5, 8160, Note_on_c, 10, 62, 120
5, 8160, Note_on_c, 10, 70, 120
5, 8160, Note_on_c, 10, 82, 120
5, 8316, Note_off_c, 10, 82, 64
5, 8316, Note_off_c, 10, 70, 64
5, 8316, Note_off_c, 10, 62, 64
5, 8400, Note_on_c, 10, 70, 80
5, 8448, Note_off_c, 10, 70, 64
5, 8480, Note_on_c, 10, 70, 80
5, 8528, Note_off_c, 10, 70, 64
5, 8560, Note_on_c, 10, 70, 80
5, 8608, Note_off_c, 10, 70, 64
5, 8640, Note_on_c, 10, 70, 80
5, 8688, Note_off_c, 10, 70, 64
5, 8720, Note_on_c, 10, 70, 80
5, 8768, Note_off_c, 10, 70, 64
5, 8800, Note_on_c, 10, 70, 80
5, 8848, Note_off_c, 10, 70, 64
5, 8880, Note_on_c, 10, 70, 80
5, 8928, Note_off_c, 10, 70, 64
5, 8960, Note_on_c, 10, 70, 80
5, 9008, Note_off_c, 10, 70, 64
5, 9040, Note_on_c, 10, 70, 80
5, 9088, Note_off_c, 10, 70, 64
5, 9120, Note_on_c, 10, 70, 80
5, 9186, Note_off_c, 10, 70, 64
5, 9360, Note_on_c, 10, 74, 80
5, 9426, Note_off_c, 10, 74, 64
5, 9600, Note_on_c, 10, 72, 80
5, 9792, Note_off_c, 10, 72, 64
5, 10080, Note_on_c, 10, 84, 120
5, 10236, Note_off_c, 10, 84, 64
5, 10320, Note_on_c, 10, 72, 80
5, 10368, Note_off_c, 10, 72, 64
5, 10400, Note_on_c, 10, 72, 80
5, 10448, Note_off_c, 10, 72, 64
5, 10480, Note_on_c, 10, 72, 80
5, 10528, Note_off_c, 10, 72, 64
5, 10560, Note_on_c, 10, 72, 80
5, 10608, Note_off_c, 10, 72, 64
5, 10640, Note_on_c, 10, 72, 80
5, 10688, Note_off_c, 10, 72, 64
5, 10720, Note_on_c, 10, 72, 80
5, 10768, Note_off_c, 10, 72, 64
5, 10800, Note_on_c, 10, 72, 80
5, 10848, Note_off_c, 10, 72, 64
5, 10880, Note_on_c, 10, 72, 80
5, 10928, Note_off_c, 10, 72, 64
5, 10960, Note_on_c, 10, 72, 80
5, 11008, Note_off_c, 10, 72, 64
5, 11040, Note_on_c, 10, 72, 80
5, 11106, Note_off_c, 10, 72, 64
5, 11280, Note_on_c, 10, 75, 80
5, 11346, Note_off_c, 10, 75, 64
5, 11520, Note_on_c, 10, 74, 80
5, 11712, Note_off_c, 10, 74, 64
5, 12000, Note_on_c, 10, 77, 80
5, 12180, Note_off_c, 10, 77, 64
5, 12180, Note_on_c, 10, 79, 80
5, 12240, Note_off_c, 10, 79, 64
5, 12240, Note_on_c, 10, 81, 80
5, 12420, Note_off_c, 10, 81, 64
5, 12420, Note_on_c, 10, 82, 80
5, 12468, Note_off_c, 10, 82, 64
5, 12480, Note_on_c, 10, 81, 80
5, 12720, Note_off_c, 10, 81, 64
5, 12720, Note_on_c, 10, 79, 80
5, 12816, Note_off_c, 10, 79, 64
5, 12960, Note_on_c, 10, 82, 80
5, 13140, Note_off_c, 10, 82, 64
5, 13140, Note_on_c, 10, 81, 80
5, 13200, Note_off_c, 10, 81, 64
5, 13200, Note_on_c, 10, 79, 80
5, 13380, Note_off_c, 10, 79, 64
5, 13380, Note_on_c, 10, 77, 80
5, 13428, Note_off_c, 10, 77, 64
5, 13440, Note_on_c, 10, 77, 80
5, 13680, Note_off_c, 10, 77, 64
5, 13680, Note_on_c, 10, 75, 80
5, 13776, Note_off_c, 10, 75, 64
5, 13920, Note_on_c, 10, 74, 80
5, 14100, Note_off_c, 10, 74, 64
5, 14100, Note_on_c, 10, 77, 80
5, 14160, Note_off_c, 10, 77, 64
5, 14160, Note_on_c, 10, 82, 80
5, 14340, Note_off_c, 10, 82, 64
5, 14340, Note_on_c, 10, 77, 80
5, 14388, Note_off_c, 10, 77, 64
5, 14400, Note_on_c, 10, 79, 80
5, 14460, Note_off_c, 10, 79, 64
5, 14460, Note_on_c, 10, 82, 80
5, 14508, Note_off_c, 10, 82, 64
5, 14640, Note_on_c, 10, 72, 80
5, 14700, Note_off_c, 10, 72, 64
5, 14700, Note_on_c, 10, 75, 80
5, 14748, Note_off_c, 10, 75, 64
5, 14880, Note_on_c, 10, 74, 80
5, 14940, Note_off_c, 10, 74, 64
5, 14940, Note_on_c, 10, 77, 80
5, 14988, Note_off_c, 10, 77, 64
5, 15120, Note_on_c, 10, 69, 80
5, 15180, Note_off_c, 10, 69, 64
5, 15180, Note_on_c, 10, 72, 80
5, 15228, Note_off_c, 10, 72, 64
5, 15360, Note_on_c, 10, 70, 105
5, 15552, Note_off_c, 10, 70, 64
5, 15600, Note_on_c, 10, 58, 105
5, 15664, Note_off_c, 10, 58, 64
5, 15680, Note_on_c, 10, 58, 105
5, 15744, Note_off_c, 10, 58, 64
5, 15760, Note_on_c, 10, 58, 105
5, 15824, Note_off_c, 10, 58, 64
5, 15840, Note_on_c, 10, 58, 105
5, 15904, Note_off_c, 10, 58, 64
5, 15920, Note_on_c, 10, 58, 105
5, 15984, Note_off_c, 10, 58, 64
5, 16000, Note_on_c, 10, 58, 105
5, 16064, Note_off_c, 10, 58, 64
5, 16080, Note_on_c, 10, 58, 105
5, 16144, Note_off_c, 10, 58, 64
5, 16160, Note_on_c, 10, 58, 105
5, 16224, Note_off_c, 10, 58, 64
5, 16240, Note_on_c, 10, 58, 105
5, 16304, Note_off_c, 10, 58, 64
5, 16320, Note_on_c, 10, 58, 105
5, 16452, Note_off_c, 10, 58, 64
5, 16560, Note_on_c, 10, 62, 105
5, 16692, Note_off_c, 10, 62, 64
5, 16800, Note_on_c, 10, 65, 105
5, 16932, Note_off_c, 10, 65, 64
5, 17280, Note_on_c, 10, 62, 70
5, 17397, Note_off_c, 10, 62, 64
5, 17460, Note_on_c, 10, 62, 70
5, 17499, Note_off_c, 10, 62, 64
5, 17520, Note_on_c, 10, 65, 70
5, 17637, Note_off_c, 10, 65, 64
5, 17700, Note_on_c, 10, 65, 70
5, 17739, Note_off_c, 10, 65, 64
5, 17760, Note_on_c, 10, 70, 70
5, 17892, Note_off_c, 10, 70, 64
5, 18240, Note_on_c, 10, 70, 105
5, 18357, Note_off_c, 10, 70, 64
5, 18420, Note_on_c, 10, 70, 105
5, 18459, Note_off_c, 10, 70, 64
5, 18480, Note_on_c, 10, 74, 105
5, 18597, Note_off_c, 10, 74, 64
5, 18660, Note_on_c, 10, 74, 105
5, 18699, Note_off_c, 10, 74, 64
5, 18720, Note_on_c, 10, 77, 105
5, 18837, Note_off_c, 10, 77, 64
5, 18900, Note_on_c, 10, 77, 105
5, 18939, Note_off_c, 10, 77, 64
5, 18960, Note_on_c, 10, 82, 105
5, 19077, Note_off_c, 10, 82, 64
5, 19140, Note_on_c, 10, 82, 105
5, 19179, Note_off_c, 10, 82, 64
5, 19200, Note_on_c, 10, 77, 105
5, 19317, Note_off_c, 10, 77, 64
5, 19380, Note_on_c, 10, 77, 105
5, 19419, Note_off_c, 10, 77, 64
5, 19440, Note_on_c, 10, 74, 105
5, 19557, Note_off_c, 10, 74, 64
5, 19620, Note_on_c, 10, 74, 105
5, 19659, Note_off_c, 10, 74, 64
5, 19680, Note_on_c, 10, 70, 105
5, 19812, Note_off_c, 10, 70, 64
5, 19920, Note_on_c, 10, 73, 80
5, 19986, Note_off_c, 10, 73, 64
5, 20160, Note_on_c, 10, 74, 80
5, 20226, Note_off_c, 10, 74, 64
5, 20400, Note_on_c, 10, 78, 80
5, 20466, Note_off_c, 10, 78, 64
5, 20640, Note_on_c, 10, 79, 80
5, 20706, Note_off_c, 10, 79, 64
5, 20880, Note_on_c, 10, 81, 80
5, 20946, Note_off_c, 10, 81, 64
5, 21120, Note_on_c, 10, 82, 80
5, 21480, Note_off_c, 10, 82, 64
5, 21480, Note_on_c, 10, 84, 80
5, 21540, Note_off_c, 10, 84, 64
5, 21540, Note_on_c, 10, 81, 80
5, 21600, Note_off_c, 10, 81, 64
5, 21600, Note_on_c, 10, 79, 80
5, 21780, Note_off_c, 10, 79, 64
5, 21840, Note_on_c, 10, 86, 80
5, 21975, Note_off_c, 10, 86, 64
5, 22020, Note_on_c, 10, 86, 80
5, 22065, Note_off_c, 10, 86, 64
5, 22080, Note_on_c, 10, 86, 80
5, 22260, Note_off_c, 10, 86, 64
5, 22320, Note_on_c, 10, 86, 80
5, 22455, Note_off_c, 10, 86, 64
5, 22500, Note_on_c, 10, 86, 80
5, 22545, Note_off_c, 10, 86, 64
5, 22560, Note_on_c, 10, 86, 80
5, 22692, Note_off_c, 10, 86, 64
5, 22800, Note_on_c, 10, 86, 80
5, 22932, Note_off_c, 10, 86, 64
5, 23040, Note_on_c, 10, 86, 80
5, 23400, Note_off_c, 10, 86, 64
5, 23400, Note_on_c, 10, 82, 80
5, 23496, Note_off_c, 10, 82, 64
5, 23520, Note_on_c, 10, 79, 80
5, 23586, Note_off_c, 10, 79, 64
5, 23760, Note_on_c, 10, 71, 80
5, 23826, Note_off_c, 10, 71, 64
5, 24000, Note_on_c, 10, 72, 80
5, 24066, Note_off_c, 10, 72, 64
5, 24240, Note_on_c, 10, 76, 80
5, 24306, Note_off_c, 10, 76, 64
5, 24480, Note_on_c, 10, 77, 80
5, 24546, Note_off_c, 10, 77, 64
5, 24720, Note_on_c, 10, 80, 80
5, 24786, Note_off_c, 10, 80, 64
5, 24960, Note_on_c, 10, 81, 80
5, 25320, Note_off_c, 10, 81, 64
5, 25320, Note_on_c, 10, 82, 80
5, 25380, Note_off_c, 10, 82, 64
5, 25380, Note_on_c, 10, 79, 80
5, 25440, Note_off_c, 10, 79, 64
5, 25440, Note_on_c, 10, 77, 80
5, 25620, Note_off_c, 10, 77, 64
5, 25680, Note_on_c, 10, 84, 80
5, 25815, Note_off_c, 10, 84, 64
5, 25860, Note_on_c, 10, 84, 80
5, 25905, Note_off_c, 10, 84, 64
5, 25920, Note_on_c, 10, 84, 80
5, 26100, Note_off_c, 10, 84, 64
5, 26160, Note_on_c, 10, 84, 80
5, 26295, Note_off_c, 10, 84, 64
5, 26340, Note_on_c, 10, 84, 80
5, 26385, Note_off_c, 10, 84, 64
5, 26400, Note_on_c, 10, 84, 80
5, 26532, Note_off_c, 10, 84, 64
5, 26640, Note_on_c, 10, 84, 80
5, 26772, Note_off_c, 10, 84, 64
5, 26880, Note_on_c, 10, 84, 80
5, 27240, Note_off_c, 10, 84, 64
5, 27240, Note_on_c, 10, 81, 80
5, 27336, Note_off_c, 10, 81, 64
5, 27360, Note_on_c, 10, 77, 70
5, 27552, Note_off_c, 10, 77, 64
5, 27840, Note_on_c, 10, 81, 80
5, 27870, Note_off_c, 10, 81, 64
5, 27870, Note_on_c, 10, 79, 80
5, 27900, Note_off_c, 10, 79, 64
5, 27900, Note_on_c, 10, 78, 80
5, 27960, Note_off_c, 10, 78, 64
5, 27960, Note_on_c, 10, 79, 80
5, 28080, Note_off_c, 10, 79, 64
5, 28320, Note_on_c, 10, 84, 80
5, 28350, Note_off_c, 10, 84, 64
5, 28350, Note_on_c, 10, 82, 80
5, 28380, Note_off_c, 10, 82, 64
5, 28380, Note_on_c, 10, 81, 80
5, 28440, Note_off_c, 10, 81, 64
5, 28440, Note_on_c, 10, 82, 80
5, 28560, Note_off_c, 10, 82, 64
5, 28800, Note_on_c, 10, 88, 80
5, 28830, Note_off_c, 10, 88, 64
5, 28830, Note_on_c, 10, 86, 80
5, 28860, Note_off_c, 10, 86, 64
5, 28860, Note_on_c, 10, 85, 80
5, 28920, Note_off_c, 10, 85, 64
5, 28920, Note_on_c, 10, 86, 80
5, 29040, Note_off_c, 10, 86, 64
5, 29760, Note_on_c, 10, 81, 80
5, 29790, Note_off_c, 10, 81, 64
5, 29790, Note_on_c, 10, 79, 80
5, 29820, Note_off_c, 10, 79, 64
5, 29820, Note_on_c, 10, 78, 80
5, 29880, Note_off_c, 10, 78, 64
5, 29880, Note_on_c, 10, 79, 80
5, 30000, Note_off_c, 10, 79, 64
5, 30240, Note_on_c, 10, 84, 80
5, 30270, Note_off_c, 10, 84, 64
5, 30270, Note_on_c, 10, 82, 80
5, 30300, Note_off_c, 10, 82, 64
5, 30300, Note_on_c, 10, 81, 80
5, 30360, Note_off_c, 10, 81, 64
5, 30360, Note_on_c, 10, 82, 80
5, 30480, Note_off_c, 10, 82, 64
5, 30720, Note_on_c, 10, 88, 80
5, 30750, Note_off_c, 10, 88, 64
5, 30750, Note_on_c, 10, 86, 80
5, 30780, Note_off_c, 10, 86, 64
5, 30780, Note_on_c, 10, 85, 80
5, 30840, Note_off_c, 10, 85, 64
5, 30840, Note_on_c, 10, 86, 80
5, 30960, Note_off_c, 10, 86, 64
5, 31440, Note_on_c, 10, 74, 80
5, 31632, Note_off_c, 10, 74, 64
5, 31680, Note_on_c, 10, 86, 80
5, 31752, Note_off_c, 10, 86, 64
5, 31800, Note_on_c, 10, 85, 80
5, 31872, Note_off_c, 10, 85, 64
5, 31920, Note_on_c, 10, 86, 80
5, 31992, Note_off_c, 10, 86, 64
5, 32040, Note_on_c, 10, 84, 80
5, 32112, Note_off_c, 10, 84, 64
5, 32160, Note_on_c, 10, 82, 80
5, 32232, Note_off_c, 10, 82, 64
5, 32280, Note_on_c, 10, 81, 80
5, 32352, Note_off_c, 10, 81, 64
5, 32400, Note_on_c, 10, 82, 80
5, 32472, Note_off_c, 10, 82, 64
5, 32520, Note_on_c, 10, 81, 80
5, 32592, Note_off_c, 10, 81, 64
5, 32640, Note_on_c, 10, 79, 80
5, 32712, Note_off_c, 10, 79, 64
5, 32760, Note_on_c, 10, 78, 80
5, 32832, Note_off_c, 10, 78, 64
5, 32880, Note_on_c, 10, 79, 80
5, 32952, Note_off_c, 10, 79, 64
5, 33000, Note_on_c, 10, 77, 80
5, 33072, Note_off_c, 10, 77, 64
5, 33120, Note_on_c, 10, 76, 80
5, 33192, Note_off_c, 10, 76, 64
5, 33240, Note_on_c, 10, 75, 80
5, 33312, Note_off_c, 10, 75, 64
5, 33360, Note_on_c, 10, 76, 80
5, 33432, Note_off_c, 10, 76, 64
5, 33480, Note_on_c, 10, 74, 80
5, 33552, Note_off_c, 10, 74, 64
5, 33600, Note_on_c, 10, 72, 105
5, 33744, Note_off_c, 10, 72, 64
5, 33840, Note_on_c, 10, 72, 105
5, 33912, Note_off_c, 10, 72, 64
5, 33960, Note_on_c, 10, 74, 105
5, 34032, Note_off_c, 10, 74, 64
5, 34080, Note_on_c, 10, 76, 105
5, 34224, Note_off_c, 10, 76, 64
5, 34320, Note_on_c, 10, 76, 105
5, 34392, Note_off_c, 10, 76, 64
5, 34440, Note_on_c, 10, 77, 105
5, 34512, Note_off_c, 10, 77, 64
5, 34560, Note_on_c, 10, 79, 105
5, 34704, Note_off_c, 10, 79, 64
5, 34800, Note_on_c, 10, 79, 105
5, 34872, Note_off_c, 10, 79, 64
5, 34920, Note_on_c, 10, 81, 105
5, 34992, Note_off_c, 10, 81, 64
5, 35040, Note_on_c, 10, 82, 105
5, 35184, Note_off_c, 10, 82, 64
5, 35280, Note_on_c, 10, 82, 105
5, 35352, Note_off_c, 10, 82, 64
5, 35400, Note_on_c, 10, 82, 105
5, 35472, Note_off_c, 10, 82, 64
5, 35520, Note_on_c, 10, 82, 105
5, 35736, Note_off_c, 10, 82, 64
5, 35880, Note_on_c, 10, 81, 105
5, 35952, Note_off_c, 10, 81, 64
5, 36000, Note_on_c, 10, 82, 105
5, 36216, Note_off_c, 10, 82, 64
5, 36360, Note_on_c, 10, 81, 105
5, 36432, Note_off_c, 10, 81, 64
5, 36480, Note_on_c, 10, 82, 105
5, 36552, Note_off_c, 10, 82, 64
5, 36600, Note_on_c, 10, 81, 105
5, 36672, Note_off_c, 10, 81, 64
5, 36720, Note_on_c, 10, 82, 105
5, 36792, Note_off_c, 10, 82, 64
5, 36840, Note_on_c, 10, 81, 105
5, 36912, Note_off_c, 10, 81, 64
5, 36960, Note_on_c, 10, 82, 105
5, 37032, Note_off_c, 10, 82, 64
5, 37080, Note_on_c, 10, 81, 105
5, 37152, Note_off_c, 10, 81, 64
5, 37200, Note_on_c, 10, 82, 105
5, 37272, Note_off_c, 10, 82, 64
5, 37320, Note_on_c, 10, 81, 105
5, 37392, Note_off_c, 10, 81, 64
5, 37440, Note_on_c, 10, 82, 105
5, 37536, Note_off_c, 10, 82, 64
5, 37680, Note_on_c, 10, 82, 80
5, 37740, Note_off_c, 10, 82, 64
5, 37740, Note_on_c, 10, 81, 80
5, 37800, Note_off_c, 10, 81, 64
5, 37800, Note_on_c, 10, 79, 80
5, 37860, Note_off_c, 10, 79, 64
5, 37860, Note_on_c, 10, 81, 80
5, 37908, Note_off_c, 10, 81, 64
5, 37920, Note_on_c, 10, 79, 80
5, 38016, Note_off_c, 10, 79, 64
5, 38160, Note_on_c, 10, 79, 80
5, 38220, Note_off_c, 10, 79, 64
5, 38220, Note_on_c, 10, 77, 80
5, 38280, Note_off_c, 10, 77, 64
5, 38280, Note_on_c, 10, 76, 80
5, 38340, Note_off_c, 10, 76, 64
5, 38340, Note_on_c, 10, 77, 80
5, 38388, Note_off_c, 10, 77, 64
5, 38400, Note_on_c, 10, 76, 80
5, 38496, Note_off_c, 10, 76, 64
5, 38640, Note_on_c, 10, 76, 80
5, 38700, Note_off_c, 10, 76, 64
5, 38700, Note_on_c, 10, 74, 80
5, 38760, Note_off_c, 10, 74, 64
5, 38760, Note_on_c, 10, 72, 80
5, 38820, Note_off_c, 10, 72, 64
5, 38820, Note_on_c, 10, 74, 80
5, 38868, Note_off_c, 10, 74, 64
5, 38880, Note_on_c, 10, 72, 80
5, 38976, Note_off_c, 10, 72, 64
5, 39120, Note_on_c, 10, 72, 80
5, 39180, Note_off_c, 10, 72, 64
5, 39180, Note_on_c, 10, 70, 80
5, 39240, Note_off_c, 10, 70, 64
5, 39240, Note_on_c, 10, 69, 80
5, 39300, Note_off_c, 10, 69, 64
5, 39300, Note_on_c, 10, 70, 80
5, 39348, Note_off_c, 10, 70, 64
5, 39360, Note_on_c, 10, 69, 70
5, 39552, Note_off_c, 10, 69, 64
5, 39840, Note_on_c, 10, 84, 80
5, 40200, Note_off_c, 10, 84, 64
5, 40200, Note_on_c, 10, 81, 80
5, 40296, Note_off_c, 10, 81, 64
5, 40320, Note_on_c, 10, 77, 80
5, 40680, Note_off_c, 10, 77, 64
5, 40680, Note_on_c, 10, 81, 80
5, 40776, Note_off_c, 10, 81, 64
5, 40800, Note_on_c, 10, 72, 80
5, 41160, Note_off_c, 10, 72, 64
5, 41160, Note_on_c, 10, 81, 80
5, 41256, Note_off_c, 10, 81, 64
5, 41280, Note_on_c, 10, 84, 80
5, 41340, Note_off_c, 10, 84, 64
5, 41340, Note_on_c, 10, 82, 80
5, 41484, Note_off_c, 10, 82, 64
5, 41760, Note_on_c, 10, 84, 80
5, 41820, Note_off_c, 10, 84, 64
5, 41820, Note_on_c, 10, 82, 80
5, 41868, Note_off_c, 10, 82, 64
5, 42000, Note_on_c, 10, 81, 80
5, 42060, Note_off_c, 10, 81, 64
5, 42060, Note_on_c, 10, 79, 80
5, 42108, Note_off_c, 10, 79, 64
5, 42240, Note_on_c, 10, 77, 80
5, 42300, Note_off_c, 10, 77, 64
5, 42300, Note_on_c, 10, 76, 80
5, 42348, Note_off_c, 10, 76, 64
5, 42480, Note_on_c, 10, 81, 80
5, 42540, Note_off_c, 10, 81, 64
5, 42540, Note_on_c, 10, 79, 80
5, 42588, Note_off_c, 10, 79, 64
5, 42720, Note_on_c, 10, 77, 80
5, 42780, Note_off_c, 10, 77, 64
5, 42780, Note_on_c, 10, 76, 80
5, 42828, Note_off_c, 10, 76, 64
5, 42960, Note_on_c, 10, 74, 80
5, 43020, Note_off_c, 10, 74, 64
5, 43020, Note_on_c, 10, 72, 80
5, 43068, Note_off_c, 10, 72, 64
5, 43200, Note_on_c, 10, 70, 80
5, 43260, Note_off_c, 10, 70, 64
5, 43260, Note_on_c, 10, 69, 80
5, 43404, Note_off_c, 10, 69, 64
5, 43680, Note_on_c, 10, 72, 80
5, 43860, Note_off_c, 10, 72, 64
5, 43860, Note_on_c, 10, 74, 80
5, 43920, Note_off_c, 10, 74, 64
5, 43920, Note_on_c, 10, 76, 80
5, 44100, Note_off_c, 10, 76, 64
5, 44100, Note_on_c, 10, 77, 80
5, 44148, Note_off_c, 10, 77, 64
5, 44160, Note_on_c, 10, 76, 80
5, 44280, Note_off_c, 10, 76, 64
5, 44280, Note_on_c, 10, 74, 80
5, 44400, Note_off_c, 10, 74, 64
5, 44400, Note_on_c, 10, 72, 80
5, 44592, Note_off_c, 10, 72, 64
5, 44640, Note_on_c, 10, 72, 80
5, 44820, Note_off_c, 10, 72, 64
5, 44820, Note_on_c, 10, 77, 80
5, 44880, Note_off_c, 10, 77, 64
5, 44880, Note_on_c, 10, 81, 80
5, 45060, Note_off_c, 10, 81, 64
5, 45060, Note_on_c, 10, 84, 80
5, 45111, Note_off_c, 10, 84, 64
5, 45120, Note_on_c, 10, 84, 80
5, 45240, Note_off_c, 10, 84, 64
5, 45240, Note_on_c, 10, 82, 80
5, 45360, Note_off_c, 10, 82, 64
5, 45360, Note_on_c, 10, 81, 80
5, 45552, Note_off_c, 10, 81, 64
5, 45600, Note_on_c, 10, 86, 80
5, 45720, Note_off_c, 10, 86, 64
5, 45720, Note_on_c, 10, 84, 80
5, 45840, Note_off_c, 10, 84, 64
5, 45840, Note_on_c, 10, 82, 80
5, 45960, Note_off_c, 10, 82, 64
5, 45960, Note_on_c, 10, 81, 80
5, 46056, Note_off_c, 10, 81, 64
5, 46080, Note_on_c, 10, 81, 80
5, 46140, Note_off_c, 10, 81, 64
5, 46140, Note_on_c, 10, 79, 80
5, 46284, Note_off_c, 10, 79, 64
5, 46320, Note_on_c, 10, 79, 80
5, 46512, Note_off_c, 10, 79, 64
5, 46560, Note_on_c, 10, 79, 80
5, 46752, Note_off_c, 10, 79, 64
5, 46800, Note_on_c, 10, 79, 80
5, 46992, Note_off_c, 10, 79, 64
5, 47040, Note_on_c, 10, 79, 80
5, 47160, Note_off_c, 10, 79, 64
5, 47160, Note_on_c, 10, 81, 80
5, 47280, Note_off_c, 10, 81, 64
5, 47280, Note_on_c, 10, 82, 80
5, 47400, Note_off_c, 10, 82, 64
5, 47400, Note_on_c, 10, 83, 80
5, 47496, Note_off_c, 10, 83, 64
5, 47520, Note_on_c, 10, 84, 80
5, 47880, Note_off_c, 10, 84, 64
5, 47880, Note_on_c, 10, 81, 80
5, 47976, Note_off_c, 10, 81, 64
5, 48000, Note_on_c, 10, 77, 80
5, 48360, Note_off_c, 10, 77, 64
5, 48360, Note_on_c, 10, 81, 80
5, 48456, Note_off_c, 10, 81, 64
5, 48480, Note_on_c, 10, 72, 80
5, 48840, Note_off_c, 10, 72, 64
5, 48840, Note_on_c, 10, 81, 80
5, 48936, Note_off_c, 10, 81, 64
5, 48960, Note_on_c, 10, 84, 80
5, 49020, Note_off_c, 10, 84, 64
5, 49020, Note_on_c, 10, 82, 80
5, 49164, Note_off_c, 10, 82, 64
5, 49440, Note_on_c, 10, 84, 80
5, 49500, Note_off_c, 10, 84, 64
5, 49500, Note_on_c, 10, 82, 80
5, 49548, Note_off_c, 10, 82, 64
5, 49680, Note_on_c, 10, 81, 80
5, 49740, Note_off_c, 10, 81, 64
5, 49740, Note_on_c, 10, 79, 80
5, 49788, Note_off_c, 10, 79, 64
5, 49920, Note_on_c, 10, 77, 80
5, 49980, Note_off_c, 10, 77, 64
5, 49980, Note_on_c, 10, 76, 80
5, 50028, Note_off_c, 10, 76, 64
5, 50160, Note_on_c, 10, 81, 80
5, 50220, Note_off_c, 10, 81, 64
5, 50220, Note_on_c, 10, 79, 80
5, 50268, Note_off_c, 10, 79, 64
5, 50400, Note_on_c, 10, 77, 80
5, 50460, Note_off_c, 10, 77, 64
5, 50460, Note_on_c, 10, 76, 80
5, 50508, Note_off_c, 10, 76, 64
5, 50640, Note_on_c, 10, 74, 80
5, 50700, Note_off_c, 10, 74, 64
5, 50700, Note_on_c, 10, 72, 80
5, 50748, Note_off_c, 10, 72, 64
5, 50880, Note_on_c, 10, 70, 80
5, 50940, Note_off_c, 10, 70, 64
5, 50940, Note_on_c, 10, 69, 80
5, 51084, Note_off_c, 10, 69, 64
5, 51360, Note_on_c, 10, 72, 80
5, 51540, Note_off_c, 10, 72, 64
5, 51540, Note_on_c, 10, 74, 80
5, 51600, Note_off_c, 10, 74, 64
5, 51600, Note_on_c, 10, 76, 80
5, 51780, Note_off_c, 10, 76, 64
5, 51780, Note_on_c, 10, 77, 80
5, 51828, Note_off_c, 10, 77, 64
5, 51840, Note_on_c, 10, 76, 80
5, 51960, Note_off_c, 10, 76, 64
5, 51960, Note_on_c, 10, 74, 80
5, 52080, Note_off_c, 10, 74, 64
5, 52080, Note_on_c, 10, 72, 80
5, 52272, Note_off_c, 10, 72, 64
5, 52320, Note_on_c, 10, 72, 80
5, 52500, Note_off_c, 10, 72, 64
5, 52500, Note_on_c, 10, 77, 80
5, 52560, Note_off_c, 10, 77, 64
5, 52560, Note_on_c, 10, 81, 80
5, 52740, Note_off_c, 10, 81, 64
5, 52740, Note_on_c, 10, 84, 80
5, 52788, Note_off_c, 10, 84, 64
5, 52800, Note_on_c, 10, 84, 80
5, 52920, Note_off_c, 10, 84, 64
5, 52920, Note_on_c, 10, 82, 80
5, 53040, Note_off_c, 10, 82, 64
5, 53040, Note_on_c, 10, 81, 80
5, 53232, Note_off_c, 10, 81, 64
5, 53280, Note_on_c, 10, 86, 80
5, 53400, Note_off_c, 10, 86, 64
5, 53400, Note_on_c, 10, 84, 80
5, 53520, Note_off_c, 10, 84, 64
5, 53520, Note_on_c, 10, 82, 80
5, 53640, Note_off_c, 10, 82, 64
5, 53640, Note_on_c, 10, 81, 80
5, 53736, Note_off_c, 10, 81, 64
5, 53760, Note_on_c, 10, 78, 80
5, 53880, Note_off_c, 10, 78, 64
5, 53880, Note_on_c, 10, 79, 80
5, 54000, Note_off_c, 10, 79, 64
5, 54000, Note_on_c, 10, 81, 80
5, 54120, Note_off_c, 10, 81, 64
5, 54120, Note_on_c, 10, 82, 80
5, 54216, Note_off_c, 10, 82, 64
5, 54240, Note_on_c, 10, 77, 80
5, 54480, Note_off_c, 10, 77, 64
5, 54480, Note_on_c, 10, 81, 80
5, 54540, Note_off_c, 10, 81, 64
5, 54540, Note_on_c, 10, 79, 80
5, 54684, Note_off_c, 10, 79, 64
5, 54720, Note_on_c, 10, 77, 80
5, 54876, Note_off_c, 10, 77, 64
5, 54960, Note_on_c, 10, 60, 105
5, 55012, Note_off_c, 10, 60, 64
5, 55040, Note_on_c, 10, 60, 105
5, 55092, Note_off_c, 10, 60, 64
5, 55120, Note_on_c, 10, 60, 105
5, 55172, Note_off_c, 10, 60, 64
5, 55200, Note_on_c, 10, 59, 105
5, 55252, Note_off_c, 10, 59, 64
5, 55280, Note_on_c, 10, 59, 105
5, 55332, Note_off_c, 10, 59, 64
5, 55360, Note_on_c, 10, 59, 105
5, 55412, Note_off_c, 10, 59, 64
5, 55440, Note_on_c, 10, 58, 105
5, 55492, Note_off_c, 10, 58, 64
5, 55520, Note_on_c, 10, 58, 105
5, 55572, Note_off_c, 10, 58, 64
5, 55600, Note_on_c, 10, 58, 105
5, 55652, Note_off_c, 10, 58, 64
5, 55680, Note_on_c, 10, 57, 105
5, 55732, Note_off_c, 10, 57, 64
5, 55760, Note_on_c, 10, 57, 105
5, 55812, Note_off_c, 10, 57, 64
5, 55840, Note_on_c, 10, 57, 105
5, 55892, Note_off_c, 10, 57, 64
5, 55920, Note_on_c, 10, 77, 105
5, 55972, Note_off_c, 10, 77, 64
5, 56000, Note_on_c, 10, 77, 105
5, 56052, Note_off_c, 10, 77, 64
5, 56080, Note_on_c, 10, 77, 105
5, 56132, Note_off_c, 10, 77, 64
5, 56160, Note_on_c, 10, 76, 105
5, 56212, Note_off_c, 10, 76, 64
5, 56240, Note_on_c, 10, 76, 105
5, 56292, Note_off_c, 10, 76, 64
5, 56320, Note_on_c, 10, 76, 105
5, 56372, Note_off_c, 10, 76, 64
5, 56400, Note_on_c, 10, 75, 105
5, 56452, Note_off_c, 10, 75, 64
5, 56480, Note_on_c, 10, 75, 105
5, 56532, Note_off_c, 10, 75, 64
5, 56560, Note_on_c, 10, 75, 105
5, 56612, Note_off_c, 10, 75, 64
5, 56640, Note_on_c, 10, 74, 105
5, 56692, Note_off_c, 10, 74, 64
5, 56720, Note_on_c, 10, 74, 105
5, 56772, Note_off_c, 10, 74, 64
5, 56800, Note_on_c, 10, 74, 105
5, 56852, Note_off_c, 10, 74, 64
5, 56880, Note_on_c, 10, 78, 105
5, 56932, Note_off_c, 10, 78, 64
5, 56960, Note_on_c, 10, 78, 105
5, 57012, Note_off_c, 10, 78, 64
5, 57040, Note_on_c, 10, 78, 105
5, 57092, Note_off_c, 10, 78, 64
5, 57120, Note_on_c, 10, 79, 105
5, 57172, Note_off_c, 10, 79, 64
5, 57200, Note_on_c, 10, 79, 105
5, 57252, Note_off_c, 10, 79, 64
5, 57280, Note_on_c, 10, 79, 105
5, 57332, Note_off_c, 10, 79, 64
5, 57360, Note_on_c, 10, 82, 105
5, 57412, Note_off_c, 10, 82, 64
5, 57440, Note_on_c, 10, 82, 105
5, 57492, Note_off_c, 10, 82, 64
5, 57520, Note_on_c, 10, 82, 105
5, 57572, Note_off_c, 10, 82, 64
5, 57600, Note_on_c, 10, 81, 105
5, 57652, Note_off_c, 10, 81, 64
5, 57680, Note_on_c, 10, 81, 105
5, 57732, Note_off_c, 10, 81, 64
5, 57760, Note_on_c, 10, 81, 105
5, 57812, Note_off_c, 10, 81, 64
5, 57840, Note_on_c, 10, 77, 105
5, 57892, Note_off_c, 10, 77, 64
5, 57920, Note_on_c, 10, 77, 105
5, 57972, Note_off_c, 10, 77, 64
5, 58000, Note_on_c, 10, 77, 105
5, 58052, Note_off_c, 10, 77, 64
5, 58080, Note_on_c, 10, 86, 105
5, 58132, Note_off_c, 10, 86, 64
5, 58160, Note_on_c, 10, 86, 105
5, 58212, Note_off_c, 10, 86, 64
5, 58240, Note_on_c, 10, 86, 105
5, 58292, Note_off_c, 10, 86, 64
5, 58320, Note_on_c, 10, 76, 105
5, 58372, Note_off_c, 10, 76, 64
5, 58400, Note_on_c, 10, 76, 105
5, 58452, Note_off_c, 10, 76, 64
5, 58480, Note_on_c, 10, 76, 105
5, 58532, Note_off_c, 10, 76, 64
5, 58560, Note_on_c, 10, 77, 92
5, 58716, Note_off_c, 10, 77, 64
5, 58800, Note_on_c, 10, 60, 92
5, 58852, Note_off_c, 10, 60, 64
5, 58880, Note_on_c, 10, 60, 105
5, 58932, Note_off_c, 10, 60, 64
5, 58960, Note_on_c, 10, 60, 105
5, 59012, Note_off_c, 10, 60, 64
5, 59040, Note_on_c, 10, 59, 105
5, 59092, Note_off_c, 10, 59, 64
5, 59120, Note_on_c, 10, 59, 105
5, 59172, Note_off_c, 10, 59, 64
5, 59200, Note_on_c, 10, 59, 105
5, 59252, Note_off_c, 10, 59, 64
5, 59280, Note_on_c, 10, 58, 105
5, 59332, Note_off_c, 10, 58, 64
5, 59360, Note_on_c, 10, 58, 105
5, 59412, Note_off_c, 10, 58, 64
5, 59440, Note_on_c, 10, 58, 105
5, 59492, Note_off_c, 10, 58, 64
5, 59520, Note_on_c, 10, 57, 105
5, 59572, Note_off_c, 10, 57, 64
5, 59600, Note_on_c, 10, 57, 105
5, 59652, Note_off_c, 10, 57, 64
5, 59680, Note_on_c, 10, 57, 105
5, 59732, Note_off_c, 10, 57, 64
5, 59760, Note_on_c, 10, 77, 105
5, 59812, Note_off_c, 10, 77, 64
5, 59840, Note_on_c, 10, 77, 105
5, 59892, Note_off_c, 10, 77, 64
5, 59920, Note_on_c, 10, 77, 105
5, 59972, Note_off_c, 10, 77, 64
5, 60000, Note_on_c, 10, 76, 105
5, 60052, Note_off_c, 10, 76, 64
5, 60080, Note_on_c, 10, 76, 105
5, 60132, Note_off_c, 10, 76, 64
5, 60160, Note_on_c, 10, 76, 105
5, 60212, Note_off_c, 10, 76, 64
5, 60240, Note_on_c, 10, 75, 105
5, 60292, Note_off_c, 10, 75, 64
5, 60320, Note_on_c, 10, 75, 105
5, 60372, Note_off_c, 10, 75, 64
5, 60400, Note_on_c, 10, 75, 105
5, 60452, Note_off_c, 10, 75, 64
5, 60480, Note_on_c, 10, 74, 105
5, 60532, Note_off_c, 10, 74, 64
5, 60560, Note_on_c, 10, 74, 105
5, 60612, Note_off_c, 10, 74, 64
5, 60640, Note_on_c, 10, 74, 105
5, 60692, Note_off_c, 10, 74, 64
5, 60720, Note_on_c, 10, 78, 105
5, 60772, Note_off_c, 10, 78, 64
5, 60800, Note_on_c, 10, 78, 105
5, 60852, Note_off_c, 10, 78, 64
5, 60880, Note_on_c, 10, 78, 105
5, 60932, Note_off_c, 10, 78, 64
5, 60960, Note_on_c, 10, 79, 105
5, 61012, Note_off_c, 10, 79, 64
5, 61040, Note_on_c, 10, 79, 105
5, 61092, Note_off_c, 10, 79, 64
5, 61120, Note_on_c, 10, 79, 105
5, 61172, Note_off_c, 10, 79, 64
5, 61200, Note_on_c, 10, 82, 105
5, 61252, Note_off_c, 10, 82, 64
5, 61280, Note_on_c, 10, 82, 105
5, 61332, Note_off_c, 10, 82, 64
5, 61360, Note_on_c, 10, 82, 105
5, 61412, Note_off_c, 10, 82, 64
5, 61440, Note_on_c, 10, 81, 105
5, 61492, Note_off_c, 10, 81, 64
5, 61520, Note_on_c, 10, 81, 105
5, 61572, Note_off_c, 10, 81, 64
5, 61600, Note_on_c, 10, 81, 105
5, 61652, Note_off_c, 10, 81, 64
5, 61680, Note_on_c, 10, 77, 105
5, 61732, Note_off_c, 10, 77, 64
5, 61760, Note_on_c, 10, 77, 105
5, 61812, Note_off_c, 10, 77, 64
5, 61840, Note_on_c, 10, 77, 105
5, 61892, Note_off_c, 10, 77, 64
5, 61920, Note_on_c, 10, 86, 105
5, 61972, Note_off_c, 10, 86, 64
5, 62000, Note_on_c, 10, 86, 105
5, 62052, Note_off_c, 10, 86, 64
5, 62080, Note_on_c, 10, 86, 105
5, 62132, Note_off_c, 10, 86, 64
5, 62160, Note_on_c, 10, 76, 105
5, 62212, Note_off_c, 10, 76, 64
5, 62240, Note_on_c, 10, 76, 105
5, 62292, Note_off_c, 10, 76, 64
5, 62320, Note_on_c, 10, 76, 105
5, 62372, Note_off_c, 10, 76, 64
5, 62400, Note_on_c, 10, 77, 92
5, 62556, Note_off_c, 10, 77, 64
5, 66240, Note_on_c, 10, 65, 116
5, 66312, Note_off_c, 10, 65, 64
5, 66360, Note_on_c, 10, 77, 116
5, 66432, Note_off_c, 10, 77, 64
5, 66480, Note_on_c, 10, 65, 116
5, 66552, Note_off_c, 10, 65, 64
5, 66600, Note_on_c, 10, 67, 116
5, 66672, Note_off_c, 10, 67, 64
5, 66720, Note_on_c, 10, 69, 116
5, 66792, Note_off_c, 10, 69, 64
5, 66840, Note_on_c, 10, 81, 116
5, 66912, Note_off_c, 10, 81, 64
5, 66960, Note_on_c, 10, 69, 116
5, 67032, Note_off_c, 10, 69, 64
5, 67080, Note_on_c, 10, 70, 116
5, 67152, Note_off_c, 10, 70, 64
5, 67200, Note_on_c, 10, 72, 116
5, 67272, Note_off_c, 10, 72, 64
5, 67320, Note_on_c, 10, 84, 116
5, 67392, Note_off_c, 10, 84, 64
5, 67440, Note_on_c, 10, 72, 116
5, 67512, Note_off_c, 10, 72, 64
5, 67560, Note_on_c, 10, 72, 116
5, 67632, Note_off_c, 10, 72, 64
5, 67680, Note_on_c, 10, 72, 116
5, 67752, Note_off_c, 10, 72, 64
5, 67800, Note_on_c, 10, 72, 116
5, 67872, Note_off_c, 10, 72, 64
5, 67920, Note_on_c, 10, 74, 116
5, 67992, Note_off_c, 10, 74, 64
5, 68040, Note_on_c, 10, 72, 116
5, 68112, Note_off_c, 10, 72, 64
5, 68160, Note_on_c, 10, 70, 116
5, 68232, Note_off_c, 10, 70, 64
5, 68280, Note_on_c, 10, 82, 116
5, 68352, Note_off_c, 10, 82, 64
5, 68400, Note_on_c, 10, 70, 116
5, 68472, Note_off_c, 10, 70, 64
5, 68520, Note_on_c, 10, 70, 116
5, 68592, Note_off_c, 10, 70, 64
5, 68640, Note_on_c, 10, 70, 116
5, 68712, Note_off_c, 10, 70, 64
5, 68760, Note_on_c, 10, 70, 116
5, 68832, Note_off_c, 10, 70, 64
5, 68880, Note_on_c, 10, 72, 116
5, 68952, Note_off_c, 10, 72, 64
5, 69000, Note_on_c, 10, 70, 116
5, 69072, Note_off_c, 10, 70, 64
5, 69120, Note_on_c, 10, 69, 116
5, 69192, Note_off_c, 10, 69, 64
5, 69240, Note_on_c, 10, 69, 116
5, 69312, Note_off_c, 10, 69, 64
5, 69360, Note_on_c, 10, 70, 116
5, 69432, Note_off_c, 10, 70, 64
5, 69480, Note_on_c, 10, 72, 116
5, 69552, Note_off_c, 10, 72, 64
5, 69600, Note_on_c, 10, 72, 116
5, 69720, Note_off_c, 10, 72, 64
5, 69720, Note_on_c, 10, 70, 116
5, 69792, Note_off_c, 10, 70, 64
5, 69840, Note_on_c, 10, 69, 116
5, 69912, Note_off_c, 10, 69, 64
5, 69960, Note_on_c, 10, 67, 116
5, 70032, Note_off_c, 10, 67, 64
5, 70080, Note_on_c, 10, 65, 116
5, 70144, Note_off_c, 10, 65, 64
5, 70160, Note_on_c, 10, 67, 116
5, 70224, Note_off_c, 10, 67, 64
5, 70240, Note_on_c, 10, 69, 116
5, 70304, Note_off_c, 10, 69, 64
5, 70320, Note_on_c, 10, 70, 116
5, 70384, Note_off_c, 10, 70, 64
5, 70400, Note_on_c, 10, 72, 116
5, 70464, Note_off_c, 10, 72, 64
5, 70480, Note_on_c, 10, 74, 116
5, 70544, Note_off_c, 10, 74, 64
5, 70560, Note_on_c, 10, 76, 116
5, 70624, Note_off_c, 10, 76, 64
5, 70640, Note_on_c, 10, 77, 116
5, 70704, Note_off_c, 10, 77, 64
5, 70720, Note_on_c, 10, 79, 116
5, 70784, Note_off_c, 10, 79, 64
5, 70800, Note_on_c, 10, 81, 116
5, 70864, Note_off_c, 10, 81, 64
5, 70880, Note_on_c, 10, 82, 116
5, 70944, Note_off_c, 10, 82, 64
5, 70960, Note_on_c, 10, 79, 116
5, 71024, Note_off_c, 10, 79, 64
5, 71040, Note_on_c, 10, 81, 116
5, 71104, Note_off_c, 10, 81, 64
5, 71120, Note_on_c, 10, 79, 116
5, 71184, Note_off_c, 10, 79, 64
5, 71200, Note_on_c, 10, 77, 116
5, 71264, Note_off_c, 10, 77, 64
5, 71280, Note_on_c, 10, 76, 116
5, 71344, Note_off_c, 10, 76, 64
5, 71360, Note_on_c, 10, 74, 116
5, 71424, Note_off_c, 10, 74, 64
5, 71440, Note_on_c, 10, 72, 116
5, 71504, Note_off_c, 10, 72, 64
5, 71520, Note_on_c, 10, 70, 116
5, 71584, Note_off_c, 10, 70, 64
5, 71600, Note_on_c, 10, 69, 116
5, 71664, Note_off_c, 10, 69, 64
5, 71680, Note_on_c, 10, 67, 116
5, 71744, Note_off_c, 10, 67, 64
5, 71760, Note_on_c, 10, 65, 116
5, 71824, Note_off_c, 10, 65, 64
5, 71840, Note_on_c, 10, 64, 116
5, 71904, Note_off_c, 10, 64, 64
5, 71920, Note_on_c, 10, 67, 116
5, 71984, Note_off_c, 10, 67, 64
5, 72000, Note_on_c, 10, 65, 116
5, 72064, Note_off_c, 10, 65, 64
5, 72080, Note_on_c, 10, 67, 116
5, 72144, Note_off_c, 10, 67, 64
5, 72160, Note_on_c, 10, 69, 116
5, 72224, Note_off_c, 10, 69, 64
5, 72240, Note_on_c, 10, 70, 116
5, 72304, Note_off_c, 10, 70, 64
5, 72320, Note_on_c, 10, 72, 116
5, 72384, Note_off_c, 10, 72, 64
5, 72400, Note_on_c, 10, 74, 116
5, 72464, Note_off_c, 10, 74, 64
5, 72480, Note_on_c, 10, 76, 116
5, 72544, Note_off_c, 10, 76, 64
5, 72560, Note_on_c, 10, 77, 116
5, 72624, Note_off_c, 10, 77, 64
5, 72640, Note_on_c, 10, 79, 116
5, 72704, Note_off_c, 10, 79, 64
5, 72720, Note_on_c, 10, 81, 116
5, 72784, Note_off_c, 10, 81, 64
5, 72800, Note_on_c, 10, 82, 116
5, 72864, Note_off_c, 10, 82, 64
5, 72880, Note_on_c, 10, 79, 116
5, 72944, Note_off_c, 10, 79, 64
5, 72960, Note_on_c, 10, 81, 116
5, 73024, Note_off_c, 10, 81, 64
5, 73040, Note_on_c, 10, 79, 116
5, 73104, Note_off_c, 10, 79, 64
5, 73120, Note_on_c, 10, 77, 116
5, 73184, Note_off_c, 10, 77, 64
5, 73200, Note_on_c, 10, 76, 116
5, 73264, Note_off_c, 10, 76, 64
5, 73280, Note_on_c, 10, 74, 116
5, 73344, Note_off_c, 10, 74, 64
5, 73360, Note_on_c, 10, 72, 116
5, 73424, Note_off_c, 10, 72, 64
5, 73440, Note_on_c, 10, 70, 116
5, 73504, Note_off_c, 10, 70, 64
5, 73520, Note_on_c, 10, 69, 116
5, 73584, Note_off_c, 10, 69, 64
5, 73600, Note_on_c, 10, 67, 116
5, 73664, Note_off_c, 10, 67, 64
5, 73680, Note_on_c, 10, 65, 116
5, 73744, Note_off_c, 10, 65, 64
5, 73760, Note_on_c, 10, 64, 116
5, 73824, Note_off_c, 10, 64, 64
5, 73840, Note_on_c, 10, 67, 116
5, 73904, Note_off_c, 10, 67, 64
5, 73920, Note_on_c, 10, 65, 92
5, 73984, Note_off_c, 10, 65, 64
5, 74000, Note_on_c, 10, 67, 92
5, 74064, Note_off_c, 10, 67, 64
5, 74080, Note_on_c, 10, 69, 92
5, 74144, Note_off_c, 10, 69, 64
5, 74160, Note_on_c, 10, 70, 92
5, 74224, Note_off_c, 10, 70, 64
5, 74240, Note_on_c, 10, 72, 92
5, 74304, Note_off_c, 10, 72, 64
5, 74320, Note_on_c, 10, 74, 92
5, 74384, Note_off_c, 10, 74, 64
5, 74400, Note_on_c, 10, 72, 92
5, 74464, Note_off_c, 10, 72, 64
5, 74480, Note_on_c, 10, 70, 92
5, 74544, Note_off_c, 10, 70, 64
5, 74560, Note_on_c, 10, 69, 92
5, 74624, Note_off_c, 10, 69, 64
5, 74640, Note_on_c, 10, 67, 92
5, 74704, Note_off_c, 10, 67, 64
5, 74720, Note_on_c, 10, 65, 92
5, 74784, Note_off_c, 10, 65, 64
5, 74800, Note_on_c, 10, 64, 92
5, 74864, Note_off_c, 10, 64, 64
5, 74880, Note_on_c, 10, 62, 92
5, 74944, Note_off_c, 10, 62, 64
5, 74960, Note_on_c, 10, 64, 92
5, 75024, Note_off_c, 10, 64, 64
5, 75040, Note_on_c, 10, 65, 92
5, 75104, Note_off_c, 10, 65, 64
5, 75120, Note_on_c, 10, 67, 92
5, 75184, Note_off_c, 10, 67, 64
5, 75200, Note_on_c, 10, 69, 92
5, 75264, Note_off_c, 10, 69, 64
5, 75280, Note_on_c, 10, 70, 92
5, 75344, Note_off_c, 10, 70, 64
5, 75360, Note_on_c, 10, 69, 92
5, 75424, Note_off_c, 10, 69, 64
5, 75440, Note_on_c, 10, 67, 92
5, 75504, Note_off_c, 10, 67, 64
5, 75520, Note_on_c, 10, 65, 92
5, 75584, Note_off_c, 10, 65, 64
5, 75600, Note_on_c, 10, 64, 92
5, 75664, Note_off_c, 10, 64, 64
5, 75680, Note_on_c, 10, 62, 92
5, 75744, Note_off_c, 10, 62, 64
5, 75760, Note_on_c, 10, 60, 92
5, 75824, Note_off_c, 10, 60, 64
5, 75840, Note_on_c, 10, 58, 92
5, 75957, Note_off_c, 10, 58, 64
5, 76020, Note_on_c, 10, 58, 92
5, 76059, Note_off_c, 10, 58, 64
5, 76080, Note_on_c, 10, 57, 92
5, 76197, Note_off_c, 10, 57, 64
5, 76260, Note_on_c, 10, 55, 92
5, 76299, Note_off_c, 10, 55, 64
5, 76320, Note_on_c, 10, 60, 92
5, 76476, Note_off_c, 10, 60, 64
5, 76560, Note_on_c, 10, 67, 92
5, 76560, Note_on_c, 10, 72, 92
5, 76560, Note_on_c, 10, 76, 92
5, 76716, Note_off_c, 10, 76, 64
5, 76716, Note_off_c, 10, 72, 64
5, 76716, Note_off_c, 10, 67, 64
5, 76800, Note_on_c, 10, 77, 92
5, 76800, Note_on_c, 10, 72, 92
5, 76800, Note_on_c, 10, 65, 92
5, 76956, Note_off_c, 10, 65, 64
5, 76956, Note_off_c, 10, 72, 64
5, 76956, Note_off_c, 10, 77, 64
5, 77040, Note_on_c, 10, 65, 92
5, 77040, Note_on_c, 10, 72, 92
5, 77040, Note_on_c, 10, 81, 92
5, 77196, Note_off_c, 10, 81, 64
5, 77196, Note_off_c, 10, 72, 64
5, 77196, Note_off_c, 10, 65, 64
5, 77280, Note_on_c, 10, 77, 92
5, 77280, Note_on_c, 10, 72, 92
5, 77280, Note_on_c, 10, 65, 92
5, 77472, Note_off_c, 10, 65, 64
5, 77472, Note_off_c, 10, 72, 64
5, 77472, Note_off_c, 10, 77, 64
5, 77760, Note_on_c, 10, 62, 120
5, 77760, Note_on_c, 10, 70, 120
5, 77760, Note_on_c, 10, 82, 120
5, 77916, Note_off_c, 10, 82, 64
5, 77916, Note_off_c, 10, 70, 64
5, 77916, Note_off_c, 10, 62, 64
5, 78000, Note_on_c, 10, 70, 80
5, 78048, Note_off_c, 10, 70, 64
5, 78080, Note_on_c, 10, 70, 80
5, 78128, Note_off_c, 10, 70, 64
5, 78160, Note_on_c, 10, 70, 80
5, 78208, Note_off_c, 10, 70, 64
5, 78240, Note_on_c, 10, 70, 80
5, 78288, Note_off_c, 10, 70, 64
5, 78320, Note_on_c, 10, 70, 80
5, 78368, Note_off_c, 10, 70, 64
5, 78400, Note_on_c, 10, 70, 80
5, 78448, Note_off_c, 10, 70, 64
5, 78480, Note_on_c, 10, 70, 80
5, 78528, Note_off_c, 10, 70, 64
5, 78560, Note_on_c, 10, 70, 80
5, 78608, Note_off_c, 10, 70, 64
5, 78640, Note_on_c, 10, 70, 80
5, 78688, Note_off_c, 10, 70, 64
5, 78720, Note_on_c, 10, 70, 80
5, 78786, Note_off_c, 10, 70, 64
5, 78960, Note_on_c, 10, 74, 80
5, 79026, Note_off_c, 10, 74, 64
5, 79200, Note_on_c, 10, 72, 80
5, 79392, Note_off_c, 10, 72, 64
5, 79680, Note_on_c, 10, 84, 120
5, 79836, Note_off_c, 10, 84, 64
5, 79920, Note_on_c, 10, 72, 80
5, 79968, Note_off_c, 10, 72, 64
5, 80000, Note_on_c, 10, 72, 80
5, 80048, Note_off_c, 10, 72, 64
5, 80080, Note_on_c, 10, 72, 80
5, 80128, Note_off_c, 10, 72, 64
5, 80160, Note_on_c, 10, 72, 80
5, 80208, Note_off_c, 10, 72, 64
5, 80240, Note_on_c, 10, 72, 80
5, 80288, Note_off_c, 10, 72, 64
5, 80320, Note_on_c, 10, 72, 80
5, 80368, Note_off_c, 10, 72, 64
5, 80400, Note_on_c, 10, 72, 80
5, 80448, Note_off_c, 10, 72, 64
5, 80480, Note_on_c, 10, 72, 80
5, 80528, Note_off_c, 10, 72, 64
5, 80560, Note_on_c, 10, 72, 80
5, 80608, Note_off_c, 10, 72, 64
5, 80640, Note_on_c, 10, 72, 80
5, 80706, Note_off_c, 10, 72, 64
5, 80880, Note_on_c, 10, 75, 80
5, 80946, Note_off_c, 10, 75, 64
5, 81120, Note_on_c, 10, 74, 80
5, 81312, Note_off_c, 10, 74, 64
5, 81600, Note_on_c, 10, 77, 80
5, 81780, Note_off_c, 10, 77, 64
5, 81780, Note_on_c, 10, 79, 80
5, 81840, Note_off_c, 10, 79, 64
5, 81840, Note_on_c, 10, 81, 80
5, 82020, Note_off_c, 10, 81, 64
5, 82020, Note_on_c, 10, 82, 80
5, 82068, Note_off_c, 10, 82, 64
5, 82080, Note_on_c, 10, 81, 80
5, 82320, Note_off_c, 10, 81, 64
5, 82320, Note_on_c, 10, 79, 80
5, 82416, Note_off_c, 10, 79, 64
5, 82560, Note_on_c, 10, 82, 80
5, 82740, Note_off_c, 10, 82, 64
5, 82740, Note_on_c, 10, 81, 80
5, 82800, Note_off_c, 10, 81, 64
5, 82800, Note_on_c, 10, 79, 80
5, 82980, Note_off_c, 10, 79, 64
5, 82980, Note_on_c, 10, 77, 80
5, 83028, Note_off_c, 10, 77, 64
5, 83040, Note_on_c, 10, 77, 80
5, 83280, Note_off_c, 10, 77, 64
5, 83280, Note_on_c, 10, 75, 80
5, 83376, Note_off_c, 10, 75, 64
5, 83520, Note_on_c, 10, 74, 80
5, 83700, Note_off_c, 10, 74, 64
5, 83700, Note_on_c, 10, 75, 80
5, 83760, Note_off_c, 10, 75, 64
5, 83760, Note_on_c, 10, 77, 80
5, 83840, Note_off_c, 10, 77, 64
5, 83840, Note_on_c, 10, 79, 80
5, 83920, Note_off_c, 10, 79, 64
5, 83920, Note_on_c, 10, 77, 80
5, 83984, Note_off_c, 10, 77, 64
5, 84000, Note_on_c, 10, 75, 80
5, 84066, Note_off_c, 10, 75, 64
5, 84240, Note_on_c, 10, 74, 80
5, 84306, Note_off_c, 10, 74, 64
5, 84480, Note_on_c, 10, 72, 80
5, 84546, Note_off_c, 10, 72, 64
5, 84720, Note_on_c, 10, 70, 80
5, 84786, Note_off_c, 10, 70, 64
5, 84960, Note_on_c, 10, 69, 80
5, 85012, Note_off_c, 10, 69, 64
5, 85040, Note_on_c, 10, 72, 80
5, 85092, Note_off_c, 10, 72, 64
5, 85120, Note_on_c, 10, 70, 80
5, 85172, Note_off_c, 10, 70, 64
5, 85200, Note_on_c, 10, 69, 80
5, 85252, Note_off_c, 10, 69, 64
5, 85280, Note_on_c, 10, 67, 80
5, 85332, Note_off_c, 10, 67, 64
5, 85360, Note_on_c, 10, 65, 80
5, 85412, Note_off_c, 10, 65, 64
5, 85440, Note_on_c, 10, 62, 120
5, 85440, Note_on_c, 10, 70, 120
5, 85440, Note_on_c, 10, 82, 120
5, 85596, Note_off_c, 10, 82, 64
5, 85596, Note_off_c, 10, 70, 64
5, 85596, Note_off_c, 10, 62, 64
5, 85680, Note_on_c, 10, 70, 80
5, 85728, Note_off_c, 10, 70, 64
5, 85760, Note_on_c, 10, 70, 80
5, 85808, Note_off_c, 10, 70, 64
5, 85840, Note_on_c, 10, 70, 80
5, 85888, Note_off_c, 10, 70, 64
5, 85920, Note_on_c, 10, 70, 80
5, 85968, Note_off_c, 10, 70, 64
5, 86000, Note_on_c, 10, 70, 80
5, 86048, Note_off_c, 10, 70, 64
5, 86080, Note_on_c, 10, 70, 80
5, 86128, Note_off_c, 10, 70, 64
5, 86160, Note_on_c, 10, 70, 80
5, 86208, Note_off_c, 10, 70, 64
5, 86240, Note_on_c, 10, 70, 80
5, 86288, Note_off_c, 10, 70, 64
5, 86320, Note_on_c, 10, 70, 80
5, 86368, Note_off_c, 10, 70, 64
5, 86400, Note_on_c, 10, 70, 80
5, 86466, Note_off_c, 10, 70, 64
5, 86640, Note_on_c, 10, 74, 80
5, 86706, Note_off_c, 10, 74, 64
5, 86880, Note_on_c, 10, 72, 80
5, 87072, Note_off_c, 10, 72, 64
5, 87360, Note_on_c, 10, 84, 120
5, 87516, Note_off_c, 10, 84, 64
5, 87600, Note_on_c, 10, 72, 80
5, 87648, Note_off_c, 10, 72, 64
5, 87680, Note_on_c, 10, 72, 80
5, 87728, Note_off_c, 10, 72, 64
5, 87760, Note_on_c, 10, 72, 80
5, 87808, Note_off_c, 10, 72, 64
5, 87840, Note_on_c, 10, 72, 80
5, 87888, Note_off_c, 10, 72, 64
5, 87920, Note_on_c, 10, 72, 80
5, 87968, Note_off_c, 10, 72, 64
5, 88000, Note_on_c, 10, 72, 80
5, 88048, Note_off_c, 10, 72, 64
5, 88080, Note_on_c, 10, 72, 80
5, 88128, Note_off_c, 10, 72, 64
5, 88160, Note_on_c, 10, 72, 80
5, 88208, Note_off_c, 10, 72, 64
5, 88240, Note_on_c, 10, 72, 80
5, 88288, Note_off_c, 10, 72, 64
5, 88320, Note_on_c, 10, 72, 80
5, 88386, Note_off_c, 10, 72, 64
5, 88560, Note_on_c, 10, 75, 80
5, 88626, Note_off_c, 10, 75, 64
5, 88800, Note_on_c, 10, 74, 80
5, 88992, Note_off_c, 10, 74, 64
5, 89280, Note_on_c, 10, 77, 80
5, 89460, Note_off_c, 10, 77, 64
5, 89460, Note_on_c, 10, 79, 80
5, 89520, Note_off_c, 10, 79, 64
5, 89520, Note_on_c, 10, 81, 80
5, 89700, Note_off_c, 10, 81, 64
5, 89700, Note_on_c, 10, 82, 80
5, 89748, Note_off_c, 10, 82, 64
5, 89760, Note_on_c, 10, 81, 80
5, 90000, Note_off_c, 10, 81, 64
5, 90000, Note_on_c, 10, 79, 80
5, 90096, Note_off_c, 10, 79, 64
5, 90240, Note_on_c, 10, 82, 80
5, 90420, Note_off_c, 10, 82, 64
5, 90420, Note_on_c, 10, 81, 80
5, 90480, Note_off_c, 10, 81, 64
5, 90480, Note_on_c, 10, 79, 80
5, 90660, Note_off_c, 10, 79, 64
5, 90660, Note_on_c, 10, 77, 80
5, 90708, Note_off_c, 10, 77, 64
5, 90720, Note_on_c, 10, 77, 80
5, 90960, Note_off_c, 10, 77, 64
5, 90960, Note_on_c, 10, 75, 80
5, 91056, Note_off_c, 10, 75, 64
5, 91200, Note_on_c, 10, 74, 80
5, 91380, Note_off_c, 10, 74, 64
5, 91380, Note_on_c, 10, 77, 80
5, 91440, Note_off_c, 10, 77, 64
5, 91440, Note_on_c, 10, 82, 80
5, 91620, Note_off_c, 10, 82, 64
5, 91620, Note_on_c, 10, 77, 80
5, 91668, Note_off_c, 10, 77, 64
5, 91680, Note_on_c, 10, 79, 80
5, 91740, Note_off_c, 10, 79, 64
5, 91740, Note_on_c, 10, 82, 80
5, 91788, Note_off_c, 10, 82, 64
5, 91920, Note_on_c, 10, 72, 80
5, 91980, Note_off_c, 10, 72, 64
5, 91980, Note_on_c, 10, 75, 80
5, 92028, Note_off_c, 10, 75, 64
5, 92160, Note_on_c, 10, 74, 80
5, 92220, Note_off_c, 10, 74, 64
5, 92220, Note_on_c, 10, 77, 80
5, 92268, Note_off_c, 10, 77, 64
5, 92400, Note_on_c, 10, 69, 80
5, 92460, Note_off_c, 10, 69, 64
5, 92460, Note_on_c, 10, 72, 80
5, 92508, Note_off_c, 10, 72, 64
5, 92640, Note_on_c, 10, 70, 105
5, 92832, Note_off_c, 10, 70, 64
5, 92880, Note_on_c, 10, 58, 105
5, 92944, Note_off_c, 10, 58, 64
5, 92960, Note_on_c, 10, 58, 105
5, 93024, Note_off_c, 10, 58, 64
5, 93040, Note_on_c, 10, 58, 105
5, 93104, Note_off_c, 10, 58, 64
5, 93120, Note_on_c, 10, 58, 105
5, 93184, Note_off_c, 10, 58, 64
5, 93200, Note_on_c, 10, 58, 105
5, 93264, Note_off_c, 10, 58, 64
5, 93280, Note_on_c, 10, 58, 105
5, 93344, Note_off_c, 10, 58, 64
5, 93360, Note_on_c, 10, 58, 105
5, 93424, Note_off_c, 10, 58, 64
5, 93440, Note_on_c, 10, 58, 105
5, 93504, Note_off_c, 10, 58, 64
5, 93520, Note_on_c, 10, 58, 105
5, 93584, Note_off_c, 10, 58, 64
5, 93600, Note_on_c, 10, 58, 105
5, 93732, Note_off_c, 10, 58, 64
5, 93840, Note_on_c, 10, 62, 105
5, 93972, Note_off_c, 10, 62, 64
5, 94080, Note_on_c, 10, 65, 105
5, 94212, Note_off_c, 10, 65, 64
5, 94560, Note_on_c, 10, 62, 70
5, 94677, Note_off_c, 10, 62, 64
5, 94740, Note_on_c, 10, 62, 70
5, 94779, Note_off_c, 10, 62, 64
5, 94800, Note_on_c, 10, 65, 70
5, 94917, Note_off_c, 10, 65, 64
5, 94980, Note_on_c, 10, 65, 70
5, 95019, Note_off_c, 10, 65, 64
5, 95040, Note_on_c, 10, 70, 70
5, 95172, Note_off_c, 10, 70, 64
5, 95520, Note_on_c, 10, 70, 105
5, 95637, Note_off_c, 10, 70, 64
5, 95700, Note_on_c, 10, 70, 105
5, 95739, Note_off_c, 10, 70, 64
5, 95760, Note_on_c, 10, 74, 105
5, 95877, Note_off_c, 10, 74, 64
5, 95940, Note_on_c, 10, 74, 105
5, 95979, Note_off_c, 10, 74, 64
5, 96000, Note_on_c, 10, 77, 105
5, 96117, Note_off_c, 10, 77, 64
5, 96180, Note_on_c, 10, 77, 105
5, 96219, Note_off_c, 10, 77, 64
5, 96240, Note_on_c, 10, 82, 105
5, 96357, Note_off_c, 10, 82, 64
5, 96420, Note_on_c, 10, 82, 105
5, 96459, Note_off_c, 10, 82, 64
5, 96480, Note_on_c, 10, 77, 105
5, 96597, Note_off_c, 10, 77, 64
5, 96660, Note_on_c, 10, 77, 105
5, 96699, Note_off_c, 10, 77, 64
5, 96720, Note_on_c, 10, 74, 105
5, 96837, Note_off_c, 10, 74, 64
5, 96900, Note_on_c, 10, 74, 105
5, 96939, Note_off_c, 10, 74, 64
5, 96960, Note_on_c, 10, 70, 105
5, 97092, Note_off_c, 10, 70, 64
5, 97200, Note_on_c, 10, 73, 80
5, 97266, Note_off_c, 10, 73, 64
5, 97440, Note_on_c, 10, 74, 80
5, 97506, Note_off_c, 10, 74, 64
5, 97680, Note_on_c, 10, 78, 80
5, 97746, Note_off_c, 10, 78, 64
5, 97920, Note_on_c, 10, 79, 80
5, 97986, Note_off_c, 10, 79, 64
5, 98160, Note_on_c, 10, 81, 80
5, 98226, Note_off_c, 10, 81, 64
5, 98400, Note_on_c, 10, 82, 80
5, 98760, Note_off_c, 10, 82, 64
5, 98760, Note_on_c, 10, 84, 80
5, 98820, Note_off_c, 10, 84, 64
5, 98820, Note_on_c, 10, 81, 80
5, 98880, Note_off_c, 10, 81, 64
5, 98880, Note_on_c, 10, 79, 80
5, 99060, Note_off_c, 10, 79, 64
5, 99120, Note_on_c, 10, 86, 80
5, 99255, Note_off_c, 10, 86, 64
5, 99300, Note_on_c, 10, 86, 80
5, 99345, Note_off_c, 10, 86, 64
5, 99360, Note_on_c, 10, 86, 80
5, 99540, Note_off_c, 10, 86, 64
5, 99600, Note_on_c, 10, 86, 80
5, 99735, Note_off_c, 10, 86, 64
5, 99780, Note_on_c, 10, 86, 80
5, 99825, Note_off_c, 10, 86, 64
5, 99840, Note_on_c, 10, 86, 80
5, 99972, Note_off_c, 10, 86, 64
5, 100080, Note_on_c, 10, 86, 80
5, 100212, Note_off_c, 10, 86, 64
5, 100320, Note_on_c, 10, 86, 80
5, 100680, Note_off_c, 10, 86, 64
5, 100680, Note_on_c, 10, 82, 80
5, 100776, Note_off_c, 10, 82, 64
5, 100800, Note_on_c, 10, 79, 80
5, 100866, Note_off_c, 10, 79, 64
5, 101040, Note_on_c, 10, 71, 80
5, 101106, Note_off_c, 10, 71, 64
5, 101280, Note_on_c, 10, 72, 80
5, 101346, Note_off_c, 10, 72, 64
5, 101520, Note_on_c, 10, 76, 80
5, 101586, Note_off_c, 10, 76, 64
5, 101760, Note_on_c, 10, 77, 80
5, 101826, Note_off_c, 10, 77, 64
5, 102000, Note_on_c, 10, 80, 80
5, 102066, Note_off_c, 10, 80, 64
5, 102240, Note_on_c, 10, 81, 80
5, 102600, Note_off_c, 10, 81, 64
5, 102600, Note_on_c, 10, 82, 80
5, 102660, Note_off_c, 10, 82, 64
5, 102660, Note_on_c, 10, 79, 80
5, 102720, Note_off_c, 10, 79, 64
5, 102720, Note_on_c, 10, 77, 80
5, 102900, Note_off_c, 10, 77, 64
5, 102960, Note_on_c, 10, 84, 80
5, 103095, Note_off_c, 10, 84, 64
5, 103140, Note_on_c, 10, 84, 80
5, 103185, Note_off_c, 10, 84, 64
5, 103200, Note_on_c, 10, 84, 80
5, 103380, Note_off_c, 10, 84, 64
5, 103440, Note_on_c, 10, 84, 80
5, 103575, Note_off_c, 10, 84, 64
5, 103620, Note_on_c, 10, 84, 80
5, 103665, Note_off_c, 10, 84, 64
5, 103680, Note_on_c, 10, 84, 80
5, 103812, Note_off_c, 10, 84, 64
5, 103920, Note_on_c, 10, 84, 80
5, 104052, Note_off_c, 10, 84, 64
5, 104160, Note_on_c, 10, 84, 80
5, 104520, Note_off_c, 10, 84, 64
5, 104520, Note_on_c, 10, 81, 80
5, 104616, Note_off_c, 10, 81, 64
5, 104640, Note_on_c, 10, 77, 70
5, 104832, Note_off_c, 10, 77, 64
5, 105120, Note_on_c, 10, 81, 80
5, 105150, Note_off_c, 10, 81, 64
5, 105150, Note_on_c, 10, 79, 80
5, 105180, Note_off_c, 10, 79, 64
5, 105180, Note_on_c, 10, 78, 80
5, 105240, Note_off_c, 10, 78, 64
5, 105240, Note_on_c, 10, 79, 80
5, 105360, Note_off_c, 10, 79, 64
5, 105600, Note_on_c, 10, 84, 80
5, 105630, Note_off_c, 10, 84, 64
5, 105630, Note_on_c, 10, 82, 80
5, 105660, Note_off_c, 10, 82, 64
5, 105660, Note_on_c, 10, 81, 80
5, 105720, Note_off_c, 10, 81, 64
5, 105720, Note_on_c, 10, 82, 80
5, 105840, Note_off_c, 10, 82, 64
5, 106080, Note_on_c, 10, 88, 80
5, 106110, Note_off_c, 10, 88, 64
5, 106110, Note_on_c, 10, 86, 80
5, 106140, Note_off_c, 10, 86, 64
5, 106140, Note_on_c, 10, 85, 80
5, 106200, Note_off_c, 10, 85, 64
5, 106200, Note_on_c, 10, 86, 80
5, 106320, Note_off_c, 10, 86, 64
5, 107040, Note_on_c, 10, 81, 80
5, 107070, Note_off_c, 10, 81, 64
5, 107070, Note_on_c, 10, 79, 80
5, 107100, Note_off_c, 10, 79, 64
5, 107100, Note_on_c, 10, 78, 80
5, 107160, Note_off_c, 10, 78, 64
5, 107160, Note_on_c, 10, 79, 80
5, 107280, Note_off_c, 10, 79, 64
5, 107520, Note_on_c, 10, 84, 80
5, 107550, Note_off_c, 10, 84, 64
5, 107550, Note_on_c, 10, 82, 80
5, 107580, Note_off_c, 10, 82, 64
5, 107580, Note_on_c, 10, 81, 80
5, 107640, Note_off_c, 10, 81, 64
5, 107640, Note_on_c, 10, 82, 80
5, 107760, Note_off_c, 10, 82, 64
5, 108000, Note_on_c, 10, 88, 80
5, 108030, Note_off_c, 10, 88, 64
5, 108030, Note_on_c, 10, 86, 80
5, 108060, Note_off_c, 10, 86, 64
5, 108060, Note_on_c, 10, 85, 80
5, 108120, Note_off_c, 10, 85, 64
5, 108120, Note_on_c, 10, 86, 80
5, 108240, Note_off_c, 10, 86, 64
5, 108720, Note_on_c, 10, 74, 80
5, 108912, Note_off_c, 10, 74, 64
5, 108960, Note_on_c, 10, 86, 80
5, 109032, Note_off_c, 10, 86, 64
5, 109080, Note_on_c, 10, 85, 80
5, 109152, Note_off_c, 10, 85, 64
5, 109200, Note_on_c, 10, 86, 80
5, 109272, Note_off_c, 10, 86, 64
5, 109320, Note_on_c, 10, 84, 80
5, 109392, Note_off_c, 10, 84, 64
5, 109440, Note_on_c, 10, 82, 80
5, 109512, Note_off_c, 10, 82, 64
5, 109560, Note_on_c, 10, 81, 80
5, 109632, Note_off_c, 10, 81, 64
5, 109680, Note_on_c, 10, 82, 80
5, 109752, Note_off_c, 10, 82, 64
5, 109800, Note_on_c, 10, 81, 80
5, 109872, Note_off_c, 10, 81, 64
5, 109920, Note_on_c, 10, 79, 80
5, 109992, Note_off_c, 10, 79, 64
5, 110040, Note_on_c, 10, 78, 80
5, 110112, Note_off_c, 10, 78, 64
5, 110160, Note_on_c, 10, 79, 80
5, 110232, Note_off_c, 10, 79, 64
5, 110280, Note_on_c, 10, 77, 80
5, 110352, Note_off_c, 10, 77, 64
5, 110400, Note_on_c, 10, 76, 80
5, 110472, Note_off_c, 10, 76, 64
5, 110520, Note_on_c, 10, 75, 80
5, 110592, Note_off_c, 10, 75, 64
5, 110640, Note_on_c, 10, 76, 80
5, 110712, Note_off_c, 10, 76, 64
5, 110760, Note_on_c, 10, 74, 80
5, 110832, Note_off_c, 10, 74, 64
5, 110880, Note_on_c, 10, 72, 105
5, 111024, Note_off_c, 10, 72, 64
5, 111120, Note_on_c, 10, 72, 105
5, 111192, Note_off_c, 10, 72, 64
5, 111240, Note_on_c, 10, 74, 105
5, 111312, Note_off_c, 10, 74, 64
5, 111360, Note_on_c, 10, 76, 105
5, 111504, Note_off_c, 10, 76, 64
5, 111600, Note_on_c, 10, 76, 105
5, 111672, Note_off_c, 10, 76, 64
5, 111720, Note_on_c, 10, 77, 105
5, 111792, Note_off_c, 10, 77, 64
5, 111840, Note_on_c, 10, 79, 105
5, 111984, Note_off_c, 10, 79, 64
5, 112080, Note_on_c, 10, 79, 105
5, 112152, Note_off_c, 10, 79, 64
5, 112200, Note_on_c, 10, 81, 105
5, 112272, Note_off_c, 10, 81, 64
5, 112320, Note_on_c, 10, 82, 105
5, 112464, Note_off_c, 10, 82, 64
5, 112560, Note_on_c, 10, 82, 105
5, 112632, Note_off_c, 10, 82, 64
5, 112680, Note_on_c, 10, 82, 105
5, 112752, Note_off_c, 10, 82, 64
5, 112800, Note_on_c, 10, 82, 105
5, 113016, Note_off_c, 10, 82, 64
5, 113160, Note_on_c, 10, 81, 105
5, 113232, Note_off_c, 10, 81, 64
5, 113280, Note_on_c, 10, 82, 105
5, 113496, Note_off_c, 10, 82, 64
5, 113640, Note_on_c, 10, 81, 105
5, 113712, Note_off_c, 10, 81, 64
5, 113760, Note_on_c, 10, 82, 105
5, 113832, Note_off_c, 10, 82, 64
5, 113880, Note_on_c, 10, 81, 105
5, 113952, Note_off_c, 10, 81, 64
5, 114000, Note_on_c, 10, 82, 105
5, 114072, Note_off_c, 10, 82, 64
5, 114120, Note_on_c, 10, 81, 105
5, 114192, Note_off_c, 10, 81, 64
5, 114240, Note_on_c, 10, 82, 105
5, 114312, Note_off_c, 10, 82, 64
5, 114360, Note_on_c, 10, 81, 105
5, 114432, Note_off_c, 10, 81, 64
5, 114480, Note_on_c, 10, 82, 105
5, 114552, Note_off_c, 10, 82, 64
5, 114600, Note_on_c, 10, 81, 105
5, 114672, Note_off_c, 10, 81, 64
5, 114720, Note_on_c, 10, 82, 105
5, 114816, Note_off_c, 10, 82, 64
5, 114960, Note_on_c, 10, 82, 80
5, 115020, Note_off_c, 10, 82, 64
5, 115020, Note_on_c, 10, 81, 80
5, 115080, Note_off_c, 10, 81, 64
5, 115080, Note_on_c, 10, 79, 80
5, 115140, Note_off_c, 10, 79, 64
5, 115140, Note_on_c, 10, 81, 80
5, 115188, Note_off_c, 10, 81, 64
5, 115200, Note_on_c, 10, 79, 80
5, 115296, Note_off_c, 10, 79, 64
5, 115440, Note_on_c, 10, 79, 80
5, 115500, Note_off_c, 10, 79, 64
5, 115500, Note_on_c, 10, 77, 80
5, 115560, Note_off_c, 10, 77, 64
5, 115560, Note_on_c, 10, 76, 80
5, 115620, Note_off_c, 10, 76, 64
5, 115620, Note_on_c, 10, 77, 80
5, 115668, Note_off_c, 10, 77, 64
5, 115680, Note_on_c, 10, 76, 80
5, 115776, Note_off_c, 10, 76, 64
5, 115920, Note_on_c, 10, 76, 80
5, 115980, Note_off_c, 10, 76, 64
5, 115980, Note_on_c, 10, 74, 80
5, 116040, Note_off_c, 10, 74, 64
5, 116040, Note_on_c, 10, 72, 80
5, 116100, Note_off_c, 10, 72, 64
5, 116100, Note_on_c, 10, 74, 80
5, 116148, Note_off_c, 10, 74, 64
5, 116160, Note_on_c, 10, 72, 80
5, 116256, Note_off_c, 10, 72, 64
5, 116400, Note_on_c, 10, 72, 80
5, 116460, Note_off_c, 10, 72, 64
5, 116460, Note_on_c, 10, 70, 80
5, 116520, Note_off_c, 10, 70, 64
5, 116520, Note_on_c, 10, 69, 80
5, 116580, Note_off_c, 10, 69, 64
5, 116580, Note_on_c, 10, 70, 80
5, 116628, Note_off_c, 10, 70, 64
5, 116640, Note_on_c, 10, 69, 70
5, 116832, Note_off_c, 10, 69, 64
5, 117120, Note_on_c, 10, 84, 80
5, 117480, Note_off_c, 10, 84, 64
5, 117480, Note_on_c, 10, 81, 80
5, 117576, Note_off_c, 10, 81, 64
5, 117600, Note_on_c, 10, 77, 80
5, 117960, Note_off_c, 10, 77, 64
5, 117960, Note_on_c, 10, 81, 80
5, 118056, Note_off_c, 10, 81, 64
5, 118080, Note_on_c, 10, 72, 80
5, 118440, Note_off_c, 10, 72, 64
5, 118440, Note_on_c, 10, 81, 80
5, 118536, Note_off_c, 10, 81, 64
5, 118560, Note_on_c, 10, 84, 80
5, 118620, Note_off_c, 10, 84, 64
5, 118620, Note_on_c, 10, 82, 80
5, 118764, Note_off_c, 10, 82, 64
5, 119040, Note_on_c, 10, 84, 80
5, 119100, Note_off_c, 10, 84, 64
5, 119100, Note_on_c, 10, 82, 80
5, 119148, Note_off_c, 10, 82, 64
5, 119280, Note_on_c, 10, 81, 80
5, 119340, Note_off_c, 10, 81, 64
5, 119340, Note_on_c, 10, 79, 80
5, 119388, Note_off_c, 10, 79, 64
5, 119520, Note_on_c, 10, 77, 80
5, 119580, Note_off_c, 10, 77, 64
5, 119580, Note_on_c, 10, 76, 80
5, 119628, Note_off_c, 10, 76, 64
5, 119760, Note_on_c, 10, 81, 80
5, 119820, Note_off_c, 10, 81, 64
5, 119820, Note_on_c, 10, 79, 80
5, 119868, Note_off_c, 10, 79, 64
5, 120000, Note_on_c, 10, 77, 80
5, 120060, Note_off_c, 10, 77, 64
5, 120060, Note_on_c, 10, 76, 80
5, 120108, Note_off_c, 10, 76, 64
5, 120240, Note_on_c, 10, 74, 80
5, 120300, Note_off_c, 10, 74, 64
5, 120300, Note_on_c, 10, 72, 80
5, 120348, Note_off_c, 10, 72, 64
5, 120480, Note_on_c, 10, 70, 80
5, 120540, Note_off_c, 10, 70, 64
5, 120540, Note_on_c, 10, 69, 80
5, 120684, Note_off_c, 10, 69, 64
5, 120960, Note_on_c, 10, 72, 80
5, 121140, Note_off_c, 10, 72, 64
5, 121140, Note_on_c, 10, 74, 80
5, 121200, Note_off_c, 10, 74, 64
5, 121200, Note_on_c, 10, 76, 80
5, 121380, Note_off_c, 10, 76, 64
5, 121380, Note_on_c, 10, 77, 80
5, 121428, Note_off_c, 10, 77, 64
5, 121440, Note_on_c, 10, 76, 80
5, 121560, Note_off_c, 10, 76, 64
5, 121560, Note_on_c, 10, 74, 80
5, 121680, Note_off_c, 10, 74, 64
5, 121680, Note_on_c, 10, 72, 80
5, 121872, Note_off_c, 10, 72, 64
5, 121920, Note_on_c, 10, 72, 80
5, 122100, Note_off_c, 10, 72, 64
5, 122100, Note_on_c, 10, 77, 80
5, 122160, Note_off_c, 10, 77, 64
5, 122160, Note_on_c, 10, 81, 80
5, 122340, Note_off_c, 10, 81, 64
5, 122340, Note_on_c, 10, 84, 80
5, 122391, Note_off_c, 10, 84, 64
5, 122400, Note_on_c, 10, 84, 80
5, 122520, Note_off_c, 10, 84, 64
5, 122520, Note_on_c, 10, 82, 80
5, 122640, Note_off_c, 10, 82, 64
5, 122640, Note_on_c, 10, 81, 80
5, 122832, Note_off_c, 10, 81, 64
5, 122880, Note_on_c, 10, 86, 80
5, 123000, Note_off_c, 10, 86, 64
5, 123000, Note_on_c, 10, 84, 80
5, 123120, Note_off_c, 10, 84, 64
5, 123120, Note_on_c, 10, 82, 80
5, 123240, Note_off_c, 10, 82, 64
5, 123240, Note_on_c, 10, 81, 80
5, 123336, Note_off_c, 10, 81, 64
5, 123360, Note_on_c, 10, 81, 80
5, 123420, Note_off_c, 10, 81, 64
5, 123420, Note_on_c, 10, 79, 80
5, 123564, Note_off_c, 10, 79, 64
5, 123600, Note_on_c, 10, 79, 80
5, 123792, Note_off_c, 10, 79, 64
5, 123840, Note_on_c, 10, 79, 80
5, 124032, Note_off_c, 10, 79, 64
5, 124080, Note_on_c, 10, 79, 80
5, 124272, Note_off_c, 10, 79, 64
5, 124320, Note_on_c, 10, 79, 80
5, 124440, Note_off_c, 10, 79, 64
5, 124440, Note_on_c, 10, 81, 80
5, 124560, Note_off_c, 10, 81, 64
5, 124560, Note_on_c, 10, 82, 80
5, 124680, Note_off_c, 10, 82, 64
5, 124680, Note_on_c, 10, 83, 80
5, 124776, Note_off_c, 10, 83, 64
5, 124800, Note_on_c, 10, 84, 80
5, 125160, Note_off_c, 10, 84, 64
5, 125160, Note_on_c, 10, 81, 80
5, 125256, Note_off_c, 10, 81, 64
5, 125280, Note_on_c, 10, 77, 80
5, 125640, Note_off_c, 10, 77, 64
5, 125640, Note_on_c, 10, 81, 80
5, 125736, Note_off_c, 10, 81, 64
5, 125760, Note_on_c, 10, 72, 80
5, 126120, Note_off_c, 10, 72, 64
5, 126120, Note_on_c, 10, 81, 80
5, 126216, Note_off_c, 10, 81, 64
5, 126240, Note_on_c, 10, 84, 80
5, 126300, Note_off_c, 10, 84, 64
5, 126300, Note_on_c, 10, 82, 80
5, 126444, Note_off_c, 10, 82, 64
5, 126720, Note_on_c, 10, 84, 80
5, 126780, Note_off_c, 10, 84, 64
5, 126780, Note_on_c, 10, 82, 80
5, 126828, Note_off_c, 10, 82, 64
5, 126960, Note_on_c, 10, 81, 80
5, 127020, Note_off_c, 10, 81, 64
5, 127020, Note_on_c, 10, 79, 80
5, 127068, Note_off_c, 10, 79, 64
5, 127200, Note_on_c, 10, 77, 80
5, 127260, Note_off_c, 10, 77, 64
5, 127260, Note_on_c, 10, 76, 80
5, 127308, Note_off_c, 10, 76, 64
5, 127440, Note_on_c, 10, 81, 80
5, 127500, Note_off_c, 10, 81, 64
5, 127500, Note_on_c, 10, 79, 80
5, 127548, Note_off_c, 10, 79, 64
5, 127680, Note_on_c, 10, 77, 80
5, 127740, Note_off_c, 10, 77, 64
5, 127740, Note_on_c, 10, 76, 80
5, 127788, Note_off_c, 10, 76, 64
5, 127920, Note_on_c, 10, 74, 80
5, 127980, Note_off_c, 10, 74, 64
5, 127980, Note_on_c, 10, 72, 80
5, 128028, Note_off_c, 10, 72, 64
5, 128160, Note_on_c, 10, 70, 80
5, 128220, Note_off_c, 10, 70, 64
5, 128220, Note_on_c, 10, 69, 80
5, 128364, Note_off_c, 10, 69, 64
5, 128640, Note_on_c, 10, 72, 80
5, 128820, Note_off_c, 10, 72, 64
5, 128820, Note_on_c, 10, 74, 80
5, 128880, Note_off_c, 10, 74, 64
5, 128880, Note_on_c, 10, 76, 80
5, 129060, Note_off_c, 10, 76, 64
5, 129060, Note_on_c, 10, 77, 80
5, 129108, Note_off_c, 10, 77, 64
5, 129120, Note_on_c, 10, 76, 80
5, 129240, Note_off_c, 10, 76, 64
5, 129240, Note_on_c, 10, 74, 80
5, 129360, Note_off_c, 10, 74, 64
5, 129360, Note_on_c, 10, 72, 80
5, 129552, Note_off_c, 10, 72, 64
5, 129600, Note_on_c, 10, 72, 80
5, 129780, Note_off_c, 10, 72, 64
5, 129780, Note_on_c, 10, 77, 80
5, 129840, Note_off_c, 10, 77, 64
5, 129840, Note_on_c, 10, 81, 80
5, 130020, Note_off_c, 10, 81, 64
5, 130020, Note_on_c, 10, 84, 80
5, 130068, Note_off_c, 10, 84, 64
5, 130080, Note_on_c, 10, 84, 80
5, 130200, Note_off_c, 10, 84, 64
5, 130200, Note_on_c, 10, 82, 80
5, 130320, Note_off_c, 10, 82, 64
5, 130320, Note_on_c, 10, 81, 80
5, 130512, Note_off_c, 10, 81, 64
5, 130560, Note_on_c, 10, 86, 80
5, 130680, Note_off_c, 10, 86, 64
5, 130680, Note_on_c, 10, 84, 80
5, 130800, Note_off_c, 10, 84, 64
5, 130800, Note_on_c, 10, 82, 80
5, 130920, Note_off_c, 10, 82, 64
5, 130920, Note_on_c, 10, 81, 80
5, 131016, Note_off_c, 10, 81, 64
5, 131040, Note_on_c, 10, 78, 80
5, 131160, Note_off_c, 10, 78, 64
5, 131160, Note_on_c, 10, 79, 80
5, 131280, Note_off_c, 10, 79, 64
5, 131280, Note_on_c, 10, 81, 80
5, 131400, Note_off_c, 10, 81, 64
5, 131400, Note_on_c, 10, 82, 80
5, 131496, Note_off_c, 10, 82, 64
5, 131520, Note_on_c, 10, 77, 80
5, 131760, Note_off_c, 10, 77, 64
5, 131760, Note_on_c, 10, 81, 80
5, 131820, Note_off_c, 10, 81, 64
5, 131820, Note_on_c, 10, 79, 80
5, 131964, Note_off_c, 10, 79, 64
5, 132000, Note_on_c, 10, 77, 80
5, 132156, Note_off_c, 10, 77, 64
5, 132240, Note_on_c, 10, 60, 105
5, 132292, Note_off_c, 10, 60, 64
5, 132320, Note_on_c, 10, 60, 105
5, 132372, Note_off_c, 10, 60, 64
5, 132400, Note_on_c, 10, 60, 105
5, 132452, Note_off_c, 10, 60, 64
5, 132480, Note_on_c, 10, 59, 105
5, 132532, Note_off_c, 10, 59, 64
5, 132560, Note_on_c, 10, 59, 105
5, 132612, Note_off_c, 10, 59, 64
5, 132640, Note_on_c, 10, 59, 105
5, 132692, Note_off_c, 10, 59, 64
5, 132720, Note_on_c, 10, 58, 105
5, 132772, Note_off_c, 10, 58, 64
5, 132800, Note_on_c, 10, 58, 105
5, 132852, Note_off_c, 10, 58, 64
5, 132880, Note_on_c, 10, 58, 105
5, 132932, Note_off_c, 10, 58, 64
5, 132960, Note_on_c, 10, 57, 105
5, 133012, Note_off_c, 10, 57, 64
5, 133040, Note_on_c, 10, 57, 105
5, 133092, Note_off_c, 10, 57, 64
5, 133120, Note_on_c, 10, 57, 105
5, 133172, Note_off_c, 10, 57, 64
5, 133200, Note_on_c, 10, 77, 105
5, 133252, Note_off_c, 10, 77, 64
5, 133280, Note_on_c, 10, 77, 105
5, 133332, Note_off_c, 10, 77, 64
5, 133360, Note_on_c, 10, 77, 105
5, 133412, Note_off_c, 10, 77, 64
5, 133440, Note_on_c, 10, 76, 105
5, 133492, Note_off_c, 10, 76, 64
5, 133520, Note_on_c, 10, 76, 105
5, 133572, Note_off_c, 10, 76, 64
5, 133600, Note_on_c, 10, 76, 105
5, 133652, Note_off_c, 10, 76, 64
5, 133680, Note_on_c, 10, 75, 105
5, 133732, Note_off_c, 10, 75, 64
5, 133760, Note_on_c, 10, 75, 105
5, 133812, Note_off_c, 10, 75, 64
5, 133840, Note_on_c, 10, 75, 105
5, 133892, Note_off_c, 10, 75, 64
5, 133920, Note_on_c, 10, 74, 105
5, 133972, Note_off_c, 10, 74, 64
5, 134000, Note_on_c, 10, 74, 105
5, 134052, Note_off_c, 10, 74, 64
5, 134080, Note_on_c, 10, 74, 105
5, 134132, Note_off_c, 10, 74, 64
5, 134160, Note_on_c, 10, 78, 105
5, 134212, Note_off_c, 10, 78, 64
5, 134240, Note_on_c, 10, 78, 105
5, 134292, Note_off_c, 10, 78, 64
5, 134320, Note_on_c, 10, 78, 105
5, 134372, Note_off_c, 10, 78, 64
5, 134400, Note_on_c, 10, 79, 105
5, 134452, Note_off_c, 10, 79, 64
5, 134480, Note_on_c, 10, 79, 105
5, 134532, Note_off_c, 10, 79, 64
5, 134560, Note_on_c, 10, 79, 105
5, 134612, Note_off_c, 10, 79, 64
5, 134640, Note_on_c, 10, 82, 105
5, 134692, Note_off_c, 10, 82, 64
5, 134720, Note_on_c, 10, 82, 105
5, 134772, Note_off_c, 10, 82, 64
5, 134800, Note_on_c, 10, 82, 105
5, 134852, Note_off_c, 10, 82, 64
5, 134880, Note_on_c, 10, 81, 105
5, 134932, Note_off_c, 10, 81, 64
5, 134960, Note_on_c, 10, 81, 105
5, 135012, Note_off_c, 10, 81, 64
5, 135040, Note_on_c, 10, 81, 105
5, 135092, Note_off_c, 10, 81, 64
5, 135120, Note_on_c, 10, 77, 105
5, 135172, Note_off_c, 10, 77, 64
5, 135200, Note_on_c, 10, 77, 105
5, 135252, Note_off_c, 10, 77, 64
5, 135280, Note_on_c, 10, 77, 105
5, 135332, Note_off_c, 10, 77, 64
5, 135360, Note_on_c, 10, 86, 105
5, 135412, Note_off_c, 10, 86, 64
5, 135440, Note_on_c, 10, 86, 105
5, 135492, Note_off_c, 10, 86, 64
5, 135520, Note_on_c, 10, 86, 105
5, 135572, Note_off_c, 10, 86, 64
5, 135600, Note_on_c, 10, 76, 105
5, 135652, Note_off_c, 10, 76, 64
5, 135680, Note_on_c, 10, 76, 105
5, 135732, Note_off_c, 10, 76, 64
5, 135760, Note_on_c, 10, 76, 105
5, 135812, Note_off_c, 10, 76, 64
5, 135840, Note_on_c, 10, 77, 92
5, 135996, Note_off_c, 10, 77, 64
5, 136080, Note_on_c, 10, 60, 92
5, 136132, Note_off_c, 10, 60, 64
5, 136160, Note_on_c, 10, 60, 105
5, 136212, Note_off_c, 10, 60, 64
5, 136240, Note_on_c, 10, 60, 105
5, 136292, Note_off_c, 10, 60, 64
5, 136320, Note_on_c, 10, 59, 105
5, 136372, Note_off_c, 10, 59, 64
5, 136400, Note_on_c, 10, 59, 105
5, 136452, Note_off_c, 10, 59, 64
5, 136480, Note_on_c, 10, 59, 105
5, 136532, Note_off_c, 10, 59, 64
5, 136560, Note_on_c, 10, 58, 105
5, 136612, Note_off_c, 10, 58, 64
5, 136640, Note_on_c, 10, 58, 105
5, 136692, Note_off_c, 10, 58, 64
5, 136720, Note_on_c, 10, 58, 105
5, 136772, Note_off_c, 10, 58, 64
5, 136800, Note_on_c, 10, 57, 105
5, 136852, Note_off_c, 10, 57, 64
5, 136880, Note_on_c, 10, 57, 105
5, 136932, Note_off_c, 10, 57, 64
5, 136960, Note_on_c, 10, 57, 105
5, 137012, Note_off_c, 10, 57, 64
5, 137040, Note_on_c, 10, 77, 105
5, 137092, Note_off_c, 10, 77, 64
5, 137120, Note_on_c, 10, 77, 105
5, 137172, Note_off_c, 10, 77, 64
5, 137200, Note_on_c, 10, 77, 105
5, 137252, Note_off_c, 10, 77, 64
5, 137280, Note_on_c, 10, 76, 105
5, 137332, Note_off_c, 10, 76, 64
5, 137360, Note_on_c, 10, 76, 105
5, 137412, Note_off_c, 10, 76, 64
5, 137440, Note_on_c, 10, 76, 105
5, 137492, Note_off_c, 10, 76, 64
5, 137520, Note_on_c, 10, 75, 105
5, 137572, Note_off_c, 10, 75, 64
5, 137600, Note_on_c, 10, 75, 105
5, 137652, Note_off_c, 10, 75, 64
5, 137680, Note_on_c, 10, 75, 105
5, 137732, Note_off_c, 10, 75, 64
5, 137760, Note_on_c, 10, 74, 105
5, 137812, Note_off_c, 10, 74, 64
5, 137840, Note_on_c, 10, 74, 105
5, 137892, Note_off_c, 10, 74, 64
5, 137920, Note_on_c, 10, 74, 105
5, 137972, Note_off_c, 10, 74, 64
5, 138000, Note_on_c, 10, 78, 105
5, 138052, Note_off_c, 10, 78, 64
5, 138080, Note_on_c, 10, 78, 105
5, 138132, Note_off_c, 10, 78, 64
5, 138160, Note_on_c, 10, 78, 105
5, 138212, Note_off_c, 10, 78, 64
5, 138240, Note_on_c, 10, 79, 105
5, 138292, Note_off_c, 10, 79, 64
5, 138320, Note_on_c, 10, 79, 105
5, 138372, Note_off_c, 10, 79, 64
5, 138400, Note_on_c, 10, 79, 105
5, 138452, Note_off_c, 10, 79, 64
5, 138480, Note_on_c, 10, 82, 105
5, 138532, Note_off_c, 10, 82, 64
5, 138560, Note_on_c, 10, 82, 105
5, 138612, Note_off_c, 10, 82, 64
5, 138640, Note_on_c, 10, 82, 105
5, 138692, Note_off_c, 10, 82, 64
5, 138720, Note_on_c, 10, 81, 105
5, 138772, Note_off_c, 10, 81, 64
5, 138800, Note_on_c, 10, 81, 105
5, 138852, Note_off_c, 10, 81, 64
5, 138880, Note_on_c, 10, 81, 105
5, 138932, Note_off_c, 10, 81, 64
5, 138960, Note_on_c, 10, 77, 105
5, 139012, Note_off_c, 10, 77, 64
5, 139040, Note_on_c, 10, 77, 105
5, 139092, Note_off_c, 10, 77, 64
5, 139120, Note_on_c, 10, 77, 105
5, 139172, Note_off_c, 10, 77, 64
5, 139200, Note_on_c, 10, 86, 105
5, 139252, Note_off_c, 10, 86, 64
5, 139280, Note_on_c, 10, 86, 105
5, 139332, Note_off_c, 10, 86, 64
5, 139360, Note_on_c, 10, 86, 105
5, 139412, Note_off_c, 10, 86, 64
5, 139440, Note_on_c, 10, 76, 105
5, 139492, Note_off_c, 10, 76, 64
5, 139520, Note_on_c, 10, 76, 105
5, 139572, Note_off_c, 10, 76, 64
5, 139600, Note_on_c, 10, 76, 105
5, 139652, Note_off_c, 10, 76, 64
5, 139680, Note_on_c, 10, 77, 92
5, 139836, Note_off_c, 10, 77, 64
5, 143520, Note_on_c, 10, 65, 116
5, 143592, Note_off_c, 10, 65, 64
5, 143640, Note_on_c, 10, 77, 116
5, 143712, Note_off_c, 10, 77, 64
5, 143760, Note_on_c, 10, 65, 116
5, 143832, Note_off_c, 10, 65, 64
5, 143880, Note_on_c, 10, 67, 116
5, 143952, Note_off_c, 10, 67, 64
5, 144000, Note_on_c, 10, 69, 116
5, 144072, Note_off_c, 10, 69, 64
5, 144120, Note_on_c, 10, 81, 116
5, 144192, Note_off_c, 10, 81, 64
5, 144240, Note_on_c, 10, 69, 116
5, 144312, Note_off_c, 10, 69, 64
5, 144360, Note_on_c, 10, 70, 116
5, 144432, Note_off_c, 10, 70, 64
5, 144480, Note_on_c, 10, 72, 116
5, 144552, Note_off_c, 10, 72, 64
5, 144600, Note_on_c, 10, 84, 116
5, 144672, Note_off_c, 10, 84, 64
5, 144720, Note_on_c, 10, 72, 116
5, 144792, Note_off_c, 10, 72, 64
5, 144840, Note_on_c, 10, 72, 116
5, 144912, Note_off_c, 10, 72, 64
5, 144960, Note_on_c, 10, 72, 116
5, 145032, Note_off_c, 10, 72, 64
5, 145080, Note_on_c, 10, 72, 116
5, 145152, Note_off_c, 10, 72, 64
5, 145200, Note_on_c, 10, 74, 116
5, 145272, Note_off_c, 10, 74, 64
5, 145320, Note_on_c, 10, 72, 116
5, 145392, Note_off_c, 10, 72, 64
5, 145440, Note_on_c, 10, 70, 116
5, 145512, Note_off_c, 10, 70, 64
5, 145560, Note_on_c, 10, 82, 116
5, 145632, Note_off_c, 10, 82, 64
5, 145680, Note_on_c, 10, 70, 116
5, 145752, Note_off_c, 10, 70, 64
5, 145800, Note_on_c, 10, 70, 116
5, 145872, Note_off_c, 10, 70, 64
5, 145920, Note_on_c, 10, 70, 116
5, 145992, Note_off_c, 10, 70, 64
5, 146040, Note_on_c, 10, 70, 116
5, 146112, Note_off_c, 10, 70, 64
5, 146160, Note_on_c, 10, 72, 116
5, 146232, Note_off_c, 10, 72, 64
5, 146280, Note_on_c, 10, 70, 116
5, 146352, Note_off_c, 10, 70, 64
5, 146400, Note_on_c, 10, 69, 116
5, 146472, Note_off_c, 10, 69, 64
5, 146520, Note_on_c, 10, 69, 116
5, 146592, Note_off_c, 10, 69, 64
5, 146640, Note_on_c, 10, 70, 116
5, 146712, Note_off_c, 10, 70, 64
5, 146760, Note_on_c, 10, 72, 116
5, 146832, Note_off_c, 10, 72, 64
5, 146880, Note_on_c, 10, 72, 116
5, 147000, Note_off_c, 10, 72, 64
5, 147000, Note_on_c, 10, 70, 116
5, 147072, Note_off_c, 10, 70, 64
5, 147120, Note_on_c, 10, 69, 116
5, 147192, Note_off_c, 10, 69, 64
5, 147240, Note_on_c, 10, 67, 116
5, 147312, Note_off_c, 10, 67, 64
5, 147360, Note_on_c, 10, 65, 116
5, 147424, Note_off_c, 10, 65, 64
5, 147440, Note_on_c, 10, 67, 116
5, 147504, Note_off_c, 10, 67, 64
5, 147520, Note_on_c, 10, 69, 116
5, 147584, Note_off_c, 10, 69, 64
5, 147600, Note_on_c, 10, 70, 116
5, 147664, Note_off_c, 10, 70, 64
5, 147680, Note_on_c, 10, 72, 116
5, 147744, Note_off_c, 10, 72, 64
5, 147760, Note_on_c, 10, 74, 116
5, 147824, Note_off_c, 10, 74, 64
5, 147840, Note_on_c, 10, 76, 116
5, 147904, Note_off_c, 10, 76, 64
5, 147920, Note_on_c, 10, 77, 116
5, 147984, Note_off_c, 10, 77, 64
5, 148000, Note_on_c, 10, 79, 116
5, 148064, Note_off_c, 10, 79, 64
5, 148080, Note_on_c, 10, 81, 116
5, 148144, Note_off_c, 10, 81, 64
5, 148160, Note_on_c, 10, 82, 116
5, 148224, Note_off_c, 10, 82, 64
5, 148240, Note_on_c, 10, 79, 116
5, 148304, Note_off_c, 10, 79, 64
5, 148320, Note_on_c, 10, 81, 116
5, 148384, Note_off_c, 10, 81, 64
5, 148400, Note_on_c, 10, 79, 116
5, 148464, Note_off_c, 10, 79, 64
5, 148480, Note_on_c, 10, 77, 116
5, 148544, Note_off_c, 10, 77, 64
5, 148560, Note_on_c, 10, 76, 116
5, 148624, Note_off_c, 10, 76, 64
5, 148640, Note_on_c, 10, 74, 116
5, 148704, Note_off_c, 10, 74, 64
5, 148720, Note_on_c, 10, 72, 116
5, 148784, Note_off_c, 10, 72, 64
5, 148800, Note_on_c, 10, 70, 116
5, 148864, Note_off_c, 10, 70, 64
5, 148880, Note_on_c, 10, 69, 116
5, 148944, Note_off_c, 10, 69, 64
5, 148960, Note_on_c, 10, 67, 116
5, 149024, Note_off_c, 10, 67, 64
5, 149040, Note_on_c, 10, 65, 116
5, 149104, Note_off_c, 10, 65, 64
5, 149120, Note_on_c, 10, 64, 116
5, 149184, Note_off_c, 10, 64, 64
5, 149200, Note_on_c, 10, 67, 116
5, 149264, Note_off_c, 10, 67, 64
5, 149280, Note_on_c, 10, 65, 116
5, 149344, Note_off_c, 10, 65, 64
5, 149360, Note_on_c, 10, 67, 116
5, 149424, Note_off_c, 10, 67, 64
5, 149440, Note_on_c, 10, 69, 116
5, 149504, Note_off_c, 10, 69, 64
5, 149520, Note_on_c, 10, 70, 116
5, 149584, Note_off_c, 10, 70, 64
5, 149600, Note_on_c, 10, 72, 116
5, 149664, Note_off_c, 10, 72, 64
5, 149680, Note_on_c, 10, 74, 116
5, 149744, Note_off_c, 10, 74, 64
5, 149760, Note_on_c, 10, 76, 116
5, 149824, Note_off_c, 10, 76, 64
5, 149840, Note_on_c, 10, 77, 116
5, 149904, Note_off_c, 10, 77, 64
5, 149920, Note_on_c, 10, 79, 116
5, 149984, Note_off_c, 10, 79, 64
5, 150000, Note_on_c, 10, 81, 116
5, 150064, Note_off_c, 10, 81, 64
5, 150080, Note_on_c, 10, 82, 116
5, 150144, Note_off_c, 10, 82, 64
5, 150160, Note_on_c, 10, 79, 116
5, 150224, Note_off_c, 10, 79, 64
5, 150240, Note_on_c, 10, 81, 116
5, 150304, Note_off_c, 10, 81, 64
5, 150320, Note_on_c, 10, 79, 116
5, 150384, Note_off_c, 10, 79, 64
5, 150400, Note_on_c, 10, 77, 116
5, 150464, Note_off_c, 10, 77, 64
5, 150480, Note_on_c, 10, 76, 116
5, 150544, Note_off_c, 10, 76, 64
5, 150560, Note_on_c, 10, 74, 116
5, 150624, Note_off_c, 10, 74, 64
5, 150640, Note_on_c, 10, 72, 116
5, 150704, Note_off_c, 10, 72, 64
5, 150720, Note_on_c, 10, 70, 116
5, 150784, Note_off_c, 10, 70, 64
5, 150800, Note_on_c, 10, 69, 116
5, 150864, Note_off_c, 10, 69, 64
5, 150880, Note_on_c, 10, 67, 116
5, 150944, Note_off_c, 10, 67, 64
5, 150960, Note_on_c, 10, 65, 116
5, 151024, Note_off_c, 10, 65, 64
5, 151040, Note_on_c, 10, 64, 116
5, 151104, Note_off_c, 10, 64, 64
5, 151120, Note_on_c, 10, 67, 116
5, 151184, Note_off_c, 10, 67, 64
5, 151200, Note_on_c, 10, 65, 92
5, 151264, Note_off_c, 10, 65, 64
5, 151280, Note_on_c, 10, 67, 92
5, 151344, Note_off_c, 10, 67, 64
5, 151360, Note_on_c, 10, 69, 92
5, 151424, Note_off_c, 10, 69, 64
5, 151440, Note_on_c, 10, 70, 92
5, 151504, Note_off_c, 10, 70, 64
5, 151520, Note_on_c, 10, 72, 92
5, 151584, Note_off_c, 10, 72, 64
5, 151600, Note_on_c, 10, 74, 92
5, 151664, Note_off_c, 10, 74, 64
5, 151680, Note_on_c, 10, 72, 92
5, 151744, Note_off_c, 10, 72, 64
5, 151760, Note_on_c, 10, 70, 92
5, 151824, Note_off_c, 10, 70, 64
5, 151840, Note_on_c, 10, 69, 92
5, 151904, Note_off_c, 10, 69, 64
5, 151920, Note_on_c, 10, 67, 92
5, 151984, Note_off_c, 10, 67, 64
5, 152000, Note_on_c, 10, 65, 92
5, 152064, Note_off_c, 10, 65, 64
5, 152080, Note_on_c, 10, 64, 92
5, 152144, Note_off_c, 10, 64, 64
5, 152160, Note_on_c, 10, 62, 92
5, 152224, Note_off_c, 10, 62, 64
5, 152240, Note_on_c, 10, 64, 92
5, 152304, Note_off_c, 10, 64, 64
5, 152320, Note_on_c, 10, 65, 92
5, 152384, Note_off_c, 10, 65, 64
5, 152400, Note_on_c, 10, 67, 92
5, 152464, Note_off_c, 10, 67, 64
5, 152480, Note_on_c, 10, 69, 92
5, 152544, Note_off_c, 10, 69, 64
5, 152560, Note_on_c, 10, 70, 92
5, 152624, Note_off_c, 10, 70, 64
5, 152640, Note_on_c, 10, 69, 92
5, 152704, Note_off_c, 10, 69, 64
5, 152720, Note_on_c, 10, 67, 92
5, 152784, Note_off_c, 10, 67, 64
5, 152800, Note_on_c, 10, 65, 92
5, 152864, Note_off_c, 10, 65, 64
5, 152880, Note_on_c, 10, 64, 92
5, 152944, Note_off_c, 10, 64, 64
5, 152960, Note_on_c, 10, 62, 92
5, 153024, Note_off_c, 10, 62, 64
5, 153040, Note_on_c, 10, 60, 92
5, 153104, Note_off_c, 10, 60, 64
5, 153120, Note_on_c, 10, 58, 92
5, 153237, Note_off_c, 10, 58, 64
5, 153300, Note_on_c, 10, 58, 92
5, 153339, Note_off_c, 10, 58, 64
5, 153360, Note_on_c, 10, 57, 92
5, 153477, Note_off_c, 10, 57, 64
5, 153540, Note_on_c, 10, 55, 92
5, 153579, Note_off_c, 10, 55, 64
5, 153600, Note_on_c, 10, 60, 92
5, 153756, Note_off_c, 10, 60, 64
5, 153840, Note_on_c, 10, 67, 92
5, 153840, Note_on_c, 10, 72, 92
5, 153840, Note_on_c, 10, 76, 92
5, 153996, Note_off_c, 10, 76, 64
5, 153996, Note_off_c, 10, 72, 64
5, 153996, Note_off_c, 10, 67, 64
5, 154080, Note_on_c, 10, 77, 92
5, 154080, Note_on_c, 10, 72, 92
5, 154080, Note_on_c, 10, 65, 92
5, 154236, Note_off_c, 10, 65, 64
5, 154236, Note_off_c, 10, 72, 64
5, 154236, Note_off_c, 10, 77, 64
5, 154320, Note_on_c, 10, 65, 92
5, 154320, Note_on_c, 10, 72, 92
5, 154320, Note_on_c, 10, 81, 92
5, 154476, Note_off_c, 10, 81, 64
5, 154476, Note_off_c, 10, 72, 64
5, 154476, Note_off_c, 10, 65, 64
5, 154560, Note_on_c, 10, 77, 92
5, 154560, Note_on_c, 10, 72, 92
5, 154560, Note_on_c, 10, 65, 92
5, 154752, Note_off_c, 10, 65, 64
5, 154752, Note_off_c, 10, 72, 64
5, 154752, Note_off_c, 10, 77, 64
5, 155040, Note_on_c, 10, 77, 80
5, 155520, Note_off_c, 10, 77, 64
5, 155520, Note_on_c, 10, 72, 80
5, 155976, Note_off_c, 10, 72, 64
5, 156000, Note_on_c, 10, 70, 80
5, 156240, Note_off_c, 10, 70, 64
5, 156240, Note_on_c, 10, 69, 80
5, 156432, Note_off_c, 10, 69, 64
5, 156720, Note_on_c, 10, 77, 80
5, 157080, Note_off_c, 10, 77, 64
5, 157080, Note_on_c, 10, 81, 80
5, 157200, Note_off_c, 10, 81, 64
5, 157200, Note_on_c, 10, 79, 80
5, 157560, Note_off_c, 10, 79, 64
5, 157560, Note_on_c, 10, 82, 80
5, 157680, Note_off_c, 10, 82, 64
5, 157680, Note_on_c, 10, 76, 80
5, 157800, Note_off_c, 10, 76, 64
5, 157800, Note_on_c, 10, 79, 80
5, 157896, Note_off_c, 10, 79, 64
5, 157920, Note_on_c, 10, 77, 80
5, 158040, Note_off_c, 10, 77, 64
5, 158040, Note_on_c, 10, 81, 80
5, 158160, Note_off_c, 10, 81, 64
5, 158160, Note_on_c, 10, 84, 80
5, 158280, Note_off_c, 10, 84, 64
5, 158280, Note_on_c, 10, 81, 80
5, 158376, Note_off_c, 10, 81, 64
5, 158400, Note_on_c, 10, 77, 80
5, 158496, Note_off_c, 10, 77, 64
5, 158520, Note_on_c, 10, 77, 80
5, 158616, Note_off_c, 10, 77, 64
5, 158640, Note_on_c, 10, 77, 80
5, 158736, Note_off_c, 10, 77, 64
5, 158760, Note_on_c, 10, 77, 80
5, 158856, Note_off_c, 10, 77, 64
5, 158880, Note_on_c, 10, 77, 80
5, 159360, Note_off_c, 10, 77, 64
5, 159360, Note_on_c, 10, 72, 80
5, 159816, Note_off_c, 10, 72, 64
5, 159840, Note_on_c, 10, 70, 80
5, 160080, Note_off_c, 10, 70, 64
5, 160080, Note_on_c, 10, 69, 80
5, 160272, Note_off_c, 10, 69, 64
5, 160560, Note_on_c, 10, 77, 80
5, 160896, Note_off_c, 10, 77, 64
5, 160920, Note_on_c, 10, 81, 80
5, 161040, Note_off_c, 10, 81, 64
5, 161040, Note_on_c, 10, 79, 80
5, 161232, Note_off_c, 10, 79, 64
5, 161520, Note_on_c, 10, 76, 80
5, 161856, Note_off_c, 10, 76, 64
5, 161880, Note_on_c, 10, 79, 80
5, 162000, Note_off_c, 10, 79, 64
5, 162000, Note_on_c, 10, 77, 80
5, 162192, Note_off_c, 10, 77, 64
5, 162480, Note_on_c, 10, 74, 80
5, 162816, Note_off_c, 10, 74, 64
5, 162840, Note_on_c, 10, 77, 80
5, 162960, Note_off_c, 10, 77, 64
5, 162960, Note_on_c, 10, 76, 80
5, 163296, Note_off_c, 10, 76, 64
5, 163320, Note_on_c, 10, 79, 80
5, 163440, Note_off_c, 10, 79, 64
5, 163440, Note_on_c, 10, 73, 70
5, 163560, Note_off_c, 10, 73, 64
5, 163560, Note_on_c, 10, 76, 70
5, 163656, Note_off_c, 10, 76, 64
5, 163680, Note_on_c, 10, 74, 58
5, 163728, Note_off_c, 10, 74, 64
5, 163760, Note_on_c, 10, 69, 58
5, 163808, Note_off_c, 10, 69, 64
5, 163840, Note_on_c, 10, 69, 58
5, 163888, Note_off_c, 10, 69, 64
5, 163920, Note_on_c, 10, 69, 58
5, 163968, Note_off_c, 10, 69, 64
5, 164000, Note_on_c, 10, 67, 58
5, 164048, Note_off_c, 10, 67, 64
5, 164080, Note_on_c, 10, 65, 58
5, 164128, Note_off_c, 10, 65, 64
5, 164160, Note_on_c, 10, 64, 58
5, 164208, Note_off_c, 10, 64, 64
5, 164240, Note_on_c, 10, 67, 58
5, 164288, Note_off_c, 10, 67, 64
5, 164320, Note_on_c, 10, 67, 58
5, 164368, Note_off_c, 10, 67, 64
5, 164400, Note_on_c, 10, 67, 58
5, 164448, Note_off_c, 10, 67, 64
5, 164480, Note_on_c, 10, 65, 58
5, 164528, Note_off_c, 10, 65, 64
5, 164560, Note_on_c, 10, 64, 58
5, 164608, Note_off_c, 10, 64, 64
5, 164720, Note_on_c, 10, 69, 58
5, 164800, Note_off_c, 10, 69, 64
5, 164800, Note_on_c, 10, 70, 58
5, 164880, Note_off_c, 10, 70, 64
5, 164880, Note_on_c, 10, 72, 58
5, 164960, Note_off_c, 10, 72, 64
5, 164960, Note_on_c, 10, 70, 58
5, 165040, Note_off_c, 10, 70, 64
5, 165040, Note_on_c, 10, 69, 58
5, 165104, Note_off_c, 10, 69, 64
5, 165200, Note_on_c, 10, 72, 58
5, 165280, Note_off_c, 10, 72, 64
5, 165280, Note_on_c, 10, 74, 58
5, 165360, Note_off_c, 10, 74, 64
5, 165360, Note_on_c, 10, 75, 58
5, 165440, Note_off_c, 10, 75, 64
5, 165440, Note_on_c, 10, 74, 58
5, 165520, Note_off_c, 10, 74, 64
5, 165520, Note_on_c, 10, 72, 58
5, 165584, Note_off_c, 10, 72, 64
5, 165600, Note_on_c, 10, 70, 58
5, 165648, Note_off_c, 10, 70, 64
5, 165680, Note_on_c, 10, 74, 58
5, 165728, Note_off_c, 10, 74, 64
5, 165760, Note_on_c, 10, 74, 58
5, 165808, Note_off_c, 10, 74, 64
5, 165840, Note_on_c, 10, 74, 58
5, 165888, Note_off_c, 10, 74, 64
5, 165920, Note_on_c, 10, 72, 58
5, 165968, Note_off_c, 10, 72, 64
5, 166000, Note_on_c, 10, 70, 58
5, 166048, Note_off_c, 10, 70, 64
5, 166080, Note_on_c, 10, 69, 58
5, 166128, Note_off_c, 10, 69, 64
5, 166160, Note_on_c, 10, 72, 58
5, 166208, Note_off_c, 10, 72, 64
5, 166240, Note_on_c, 10, 72, 58
5, 166288, Note_off_c, 10, 72, 64
5, 166320, Note_on_c, 10, 72, 58
5, 166368, Note_off_c, 10, 72, 64
5, 166400, Note_on_c, 10, 70, 58
5, 166448, Note_off_c, 10, 70, 64
5, 166480, Note_on_c, 10, 69, 58
5, 166528, Note_off_c, 10, 69, 64
5, 166560, Note_on_c, 10, 67, 58
5, 166944, Note_off_c, 10, 67, 64
5, 167120, Note_on_c, 10, 77, 58
5, 167200, Note_off_c, 10, 77, 64
5, 167200, Note_on_c, 10, 79, 58
5, 167280, Note_off_c, 10, 79, 64
5, 167280, Note_on_c, 10, 80, 58
5, 167360, Note_off_c, 10, 80, 64
5, 167360, Note_on_c, 10, 79, 58
5, 167440, Note_off_c, 10, 79, 64
5, 167440, Note_on_c, 10, 77, 58
5, 167504, Note_off_c, 10, 77, 64
5, 167520, Note_on_c, 10, 75, 58
5, 167568, Note_off_c, 10, 75, 64
5, 167600, Note_on_c, 10, 67, 58
5, 167648, Note_off_c, 10, 67, 64
5, 167680, Note_on_c, 10, 67, 58
5, 167728, Note_off_c, 10, 67, 64
5, 167760, Note_on_c, 10, 67, 58
5, 167808, Note_off_c, 10, 67, 64
5, 167840, Note_on_c, 10, 65, 58
5, 167888, Note_off_c, 10, 65, 64
5, 167920, Note_on_c, 10, 63, 58
5, 167968, Note_off_c, 10, 63, 64
5, 168000, Note_on_c, 10, 62, 58
5, 168048, Note_off_c, 10, 62, 64
5, 168080, Note_on_c, 10, 65, 58
5, 168128, Note_off_c, 10, 65, 64
5, 168160, Note_on_c, 10, 65, 58
5, 168208, Note_off_c, 10, 65, 64
5, 168240, Note_on_c, 10, 65, 58
5, 168288, Note_off_c, 10, 65, 64
5, 168320, Note_on_c, 10, 63, 58
5, 168368, Note_off_c, 10, 63, 64
5, 168400, Note_on_c, 10, 62, 58
5, 168448, Note_off_c, 10, 62, 64
5, 168560, Note_on_c, 10, 67, 58
5, 168640, Note_off_c, 10, 67, 64
5, 168640, Note_on_c, 10, 69, 58
5, 168720, Note_off_c, 10, 69, 64
5, 168720, Note_on_c, 10, 70, 58
5, 168800, Note_off_c, 10, 70, 64
5, 168800, Note_on_c, 10, 69, 58
5, 168880, Note_off_c, 10, 69, 64
5, 168880, Note_on_c, 10, 67, 58
5, 168944, Note_off_c, 10, 67, 64
5, 169040, Note_on_c, 10, 70, 58
5, 169120, Note_off_c, 10, 70, 64
5, 169120, Note_on_c, 10, 72, 58
5, 169200, Note_off_c, 10, 72, 64
5, 169200, Note_on_c, 10, 74, 58
5, 169280, Note_off_c, 10, 74, 64
5, 169280, Note_on_c, 10, 72, 58
5, 169360, Note_off_c, 10, 72, 64
5, 169360, Note_on_c, 10, 70, 58
5, 169424, Note_off_c, 10, 70, 64
5, 169440, Note_on_c, 10, 67, 58
5, 169488, Note_off_c, 10, 67, 64
5, 169520, Note_on_c, 10, 72, 58
5, 169568, Note_off_c, 10, 72, 64
5, 169600, Note_on_c, 10, 72, 58
5, 169648, Note_off_c, 10, 72, 64
5, 169680, Note_on_c, 10, 72, 58
5, 169728, Note_off_c, 10, 72, 64
5, 169760, Note_on_c, 10, 70, 58
5, 169808, Note_off_c, 10, 70, 64
5, 169840, Note_on_c, 10, 69, 58
5, 169888, Note_off_c, 10, 69, 64
5, 169920, Note_on_c, 10, 67, 58
5, 169968, Note_off_c, 10, 67, 64
5, 170000, Note_on_c, 10, 70, 58
5, 170048, Note_off_c, 10, 70, 64
5, 170080, Note_on_c, 10, 70, 58
5, 170128, Note_off_c, 10, 70, 64
5, 170160, Note_on_c, 10, 70, 58
5, 170208, Note_off_c, 10, 70, 64
5, 170240, Note_on_c, 10, 69, 58
5, 170288, Note_off_c, 10, 69, 64
5, 170320, Note_on_c, 10, 67, 58
5, 170368, Note_off_c, 10, 67, 64
5, 170400, Note_on_c, 10, 65, 58
5, 170880, Note_off_c, 10, 65, 64
5, 170960, Note_on_c, 10, 75, 58
5, 171040, Note_off_c, 10, 75, 64
5, 171040, Note_on_c, 10, 77, 58
5, 171120, Note_off_c, 10, 77, 64
5, 171120, Note_on_c, 10, 79, 58
5, 171200, Note_off_c, 10, 79, 64
5, 171200, Note_on_c, 10, 77, 58
5, 171280, Note_off_c, 10, 77, 64
5, 171280, Note_on_c, 10, 75, 58
5, 171344, Note_off_c, 10, 75, 64
5, 171360, Note_on_c, 10, 74, 58
5, 171408, Note_off_c, 10, 74, 64
5, 171440, Note_on_c, 10, 75, 58
5, 171488, Note_off_c, 10, 75, 64
5, 171520, Note_on_c, 10, 77, 58
5, 171568, Note_off_c, 10, 77, 64
5, 171600, Note_on_c, 10, 79, 58
5, 171648, Note_off_c, 10, 79, 64
5, 171680, Note_on_c, 10, 81, 58
5, 171728, Note_off_c, 10, 81, 64
5, 171760, Note_on_c, 10, 82, 58
5, 171808, Note_off_c, 10, 82, 64
5, 171840, Note_on_c, 10, 81, 58
5, 171888, Note_off_c, 10, 81, 64
5, 171920, Note_on_c, 10, 79, 58
5, 171968, Note_off_c, 10, 79, 64
5, 172000, Note_on_c, 10, 77, 58
5, 172048, Note_off_c, 10, 77, 64
5, 172080, Note_on_c, 10, 75, 58
5, 172128, Note_off_c, 10, 75, 64
5, 172160, Note_on_c, 10, 74, 58
5, 172208, Note_off_c, 10, 74, 64
5, 172240, Note_on_c, 10, 72, 58
5, 172288, Note_off_c, 10, 72, 64
5, 172320, Note_on_c, 10, 70, 58
5, 172368, Note_off_c, 10, 70, 64
5, 172400, Note_on_c, 10, 72, 58
5, 172448, Note_off_c, 10, 72, 64
5, 172480, Note_on_c, 10, 74, 58
5, 172528, Note_off_c, 10, 74, 64
5, 172560, Note_on_c, 10, 75, 58
5, 172608, Note_off_c, 10, 75, 64
5, 172640, Note_on_c, 10, 77, 58
5, 172688, Note_off_c, 10, 77, 64
5, 172720, Note_on_c, 10, 79, 58
5, 172768, Note_off_c, 10, 79, 64
5, 172800, Note_on_c, 10, 77, 58
5, 172848, Note_off_c, 10, 77, 64
5, 172880, Note_on_c, 10, 75, 58
5, 172928, Note_off_c, 10, 75, 64
5, 172960, Note_on_c, 10, 74, 58
5, 173008, Note_off_c, 10, 74, 64
5, 173040, Note_on_c, 10, 72, 58
5, 173088, Note_off_c, 10, 72, 64
5, 173120, Note_on_c, 10, 70, 58
5, 173168, Note_off_c, 10, 70, 64
5, 173200, Note_on_c, 10, 68, 58
5, 173248, Note_off_c, 10, 68, 64
5, 173280, Note_on_c, 10, 67, 58
5, 173328, Note_off_c, 10, 67, 64
5, 173360, Note_on_c, 10, 68, 58
5, 173408, Note_off_c, 10, 68, 64
5, 173440, Note_on_c, 10, 70, 58
5, 173488, Note_off_c, 10, 70, 64
5, 173520, Note_on_c, 10, 72, 58
5, 173568, Note_off_c, 10, 72, 64
5, 173600, Note_on_c, 10, 74, 58
5, 173648, Note_off_c, 10, 74, 64
5, 173680, Note_on_c, 10, 75, 58
5, 173728, Note_off_c, 10, 75, 64
5, 173760, Note_on_c, 10, 74, 58
5, 173808, Note_off_c, 10, 74, 64
5, 173840, Note_on_c, 10, 72, 58
5, 173888, Note_off_c, 10, 72, 64
5, 173920, Note_on_c, 10, 70, 58
5, 173968, Note_off_c, 10, 70, 64
5, 174000, Note_on_c, 10, 69, 58
5, 174048, Note_off_c, 10, 69, 64
5, 174080, Note_on_c, 10, 67, 58
5, 174128, Note_off_c, 10, 67, 64
5, 174160, Note_on_c, 10, 65, 58
5, 174208, Note_off_c, 10, 65, 64
5, 174240, Note_on_c, 10, 63, 58
5, 174320, Note_off_c, 10, 63, 64
5, 174320, Note_on_c, 10, 65, 58
5, 174400, Note_off_c, 10, 65, 64
5, 174400, Note_on_c, 10, 63, 58
5, 174448, Note_off_c, 10, 63, 64
5, 174480, Note_on_c, 10, 72, 58
5, 174528, Note_off_c, 10, 72, 64
5, 174560, Note_on_c, 10, 69, 58
5, 174608, Note_off_c, 10, 69, 64
5, 174640, Note_on_c, 10, 63, 58
5, 174688, Note_off_c, 10, 63, 64
5, 174720, Note_on_c, 10, 62, 58
5, 174800, Note_off_c, 10, 62, 64
5, 174800, Note_on_c, 10, 63, 58
5, 174880, Note_off_c, 10, 63, 64
5, 174880, Note_on_c, 10, 62, 58
5, 174928, Note_off_c, 10, 62, 64
5, 174960, Note_on_c, 10, 70, 58
5, 175008, Note_off_c, 10, 70, 64
5, 175040, Note_on_c, 10, 67, 58
5, 175088, Note_off_c, 10, 67, 64
5, 175120, Note_on_c, 10, 64, 58
5, 175168, Note_off_c, 10, 64, 64
5, 175200, Note_on_c, 10, 65, 125
5, 175230, Note_off_c, 10, 65, 64
5, 175230, Note_on_c, 10, 72, 105
5, 175260, Note_off_c, 10, 72, 64
5, 175260, Note_on_c, 10, 77, 105
5, 175632, Note_off_c, 10, 77, 64
5, 175680, Note_on_c, 10, 72, 105
5, 176064, Note_off_c, 10, 72, 64
5, 176160, Note_on_c, 10, 70, 105
5, 176400, Note_off_c, 10, 70, 64
5, 176400, Note_on_c, 10, 69, 105
5, 176592, Note_off_c, 10, 69, 64
5, 176640, Note_on_c, 10, 74, 105
5, 176880, Note_off_c, 10, 74, 64
5, 176880, Note_on_c, 10, 72, 105
5, 177072, Note_off_c, 10, 72, 64
5, 177120, Note_on_c, 10, 77, 105
5, 177360, Note_off_c, 10, 77, 64
5, 177360, Note_on_c, 10, 76, 105
5, 177552, Note_off_c, 10, 76, 64
5, 177600, Note_on_c, 10, 82, 105
5, 177840, Note_off_c, 10, 82, 64
5, 177840, Note_on_c, 10, 81, 105
5, 178032, Note_off_c, 10, 81, 64
5, 178080, Note_on_c, 10, 87, 105
5, 178368, Note_off_c, 10, 87, 64
5, 178440, Note_on_c, 10, 86, 105
5, 178518, Note_off_c, 10, 86, 64
5, 178560, Note_on_c, 10, 84, 105
5, 178638, Note_off_c, 10, 84, 64
5, 178680, Note_on_c, 10, 82, 105
5, 178758, Note_off_c, 10, 82, 64
5, 178800, Note_on_c, 10, 81, 105
5, 178878, Note_off_c, 10, 81, 64
5, 178920, Note_on_c, 10, 79, 105
5, 178998, Note_off_c, 10, 79, 64
5, 179040, Note_on_c, 10, 77, 105
5, 179118, Note_off_c, 10, 77, 64
5, 179160, Note_on_c, 10, 76, 105
5, 179238, Note_off_c, 10, 76, 64
5, 179280, Note_on_c, 10, 77, 105
5, 179358, Note_off_c, 10, 77, 64
5, 179400, Note_on_c, 10, 79, 105
5, 179478, Note_off_c, 10, 79, 64
5, 179520, Note_on_c, 10, 77, 105
5, 179598, Note_off_c, 10, 77, 64
5, 179640, Note_on_c, 10, 75, 105
5, 179718, Note_off_c, 10, 75, 64
5, 179760, Note_on_c, 10, 74, 105
5, 179838, Note_off_c, 10, 74, 64
5, 179880, Note_on_c, 10, 72, 105
5, 179958, Note_off_c, 10, 72, 64
5, 180000, Note_on_c, 10, 82, 120
5, 180000, Note_on_c, 10, 70, 120
5, 180000, Note_on_c, 10, 62, 120
5, 180192, Note_off_c, 10, 62, 64
5, 180192, Note_off_c, 10, 70, 64
5, 180192, Note_off_c, 10, 82, 64
5, 180240, Note_on_c, 10, 70, 80
5, 180288, Note_off_c, 10, 70, 64
5, 180320, Note_on_c, 10, 70, 80
5, 180368, Note_off_c, 10, 70, 64
5, 180400, Note_on_c, 10, 70, 80
5, 180448, Note_off_c, 10, 70, 64
5, 180480, Note_on_c, 10, 70, 80
5, 180528, Note_off_c, 10, 70, 64
5, 180560, Note_on_c, 10, 70, 80
5, 180608, Note_off_c, 10, 70, 64
5, 180640, Note_on_c, 10, 70, 80
5, 180688, Note_off_c, 10, 70, 64
5, 180720, Note_on_c, 10, 70, 80
5, 180768, Note_off_c, 10, 70, 64
5, 180800, Note_on_c, 10, 70, 80
5, 180848, Note_off_c, 10, 70, 64
5, 180880, Note_on_c, 10, 70, 80
5, 180928, Note_off_c, 10, 70, 64
5, 180960, Note_on_c, 10, 70, 80
5, 181026, Note_off_c, 10, 70, 64
5, 181200, Note_on_c, 10, 74, 80
5, 181266, Note_off_c, 10, 74, 64
5, 181440, Note_on_c, 10, 72, 80
5, 181632, Note_off_c, 10, 72, 64
5, 181920, Note_on_c, 10, 84, 120
5, 182112, Note_off_c, 10, 84, 64
5, 182160, Note_on_c, 10, 72, 80
5, 182208, Note_off_c, 10, 72, 64
5, 182240, Note_on_c, 10, 72, 80
5, 182288, Note_off_c, 10, 72, 64
5, 182320, Note_on_c, 10, 72, 80
5, 182368, Note_off_c, 10, 72, 64
5, 182400, Note_on_c, 10, 72, 80
5, 182448, Note_off_c, 10, 72, 64
5, 182480, Note_on_c, 10, 72, 80
5, 182528, Note_off_c, 10, 72, 64
5, 182560, Note_on_c, 10, 72, 80
5, 182608, Note_off_c, 10, 72, 64
5, 182640, Note_on_c, 10, 72, 80
5, 182688, Note_off_c, 10, 72, 64
5, 182720, Note_on_c, 10, 72, 80
5, 182768, Note_off_c, 10, 72, 64
5, 182800, Note_on_c, 10, 72, 80
5, 182848, Note_off_c, 10, 72, 64
5, 182880, Note_on_c, 10, 72, 80
5, 182946, Note_off_c, 10, 72, 64
5, 183120, Note_on_c, 10, 75, 80
5, 183186, Note_off_c, 10, 75, 64
5, 183360, Note_on_c, 10, 74, 80
5, 183552, Note_off_c, 10, 74, 64
5, 183840, Note_on_c, 10, 77, 80
5, 184020, Note_off_c, 10, 77, 64
5, 184020, Note_on_c, 10, 79, 80
5, 184068, Note_off_c, 10, 79, 64
5, 184080, Note_on_c, 10, 81, 80
5, 184260, Note_off_c, 10, 81, 64
5, 184260, Note_on_c, 10, 82, 80
5, 184308, Note_off_c, 10, 82, 64
5, 184320, Note_on_c, 10, 81, 80
5, 184560, Note_off_c, 10, 81, 64
5, 184560, Note_on_c, 10, 79, 80
5, 184656, Note_off_c, 10, 79, 64
5, 184800, Note_on_c, 10, 82, 80
5, 184980, Note_off_c, 10, 82, 64
5, 184980, Note_on_c, 10, 81, 80
5, 185028, Note_off_c, 10, 81, 64
5, 185040, Note_on_c, 10, 79, 80
5, 185220, Note_off_c, 10, 79, 64
5, 185220, Note_on_c, 10, 77, 80
5, 185268, Note_off_c, 10, 77, 64
5, 185280, Note_on_c, 10, 77, 80
5, 185520, Note_off_c, 10, 77, 64
5, 185520, Note_on_c, 10, 75, 80
5, 185616, Note_off_c, 10, 75, 64
5, 185760, Note_on_c, 10, 74, 80
5, 185940, Note_off_c, 10, 74, 64
5, 185940, Note_on_c, 10, 77, 80
5, 185988, Note_off_c, 10, 77, 64
5, 186000, Note_on_c, 10, 82, 80
5, 186180, Note_off_c, 10, 82, 64
5, 186180, Note_on_c, 10, 77, 80
5, 186228, Note_off_c, 10, 77, 64
5, 186240, Note_on_c, 10, 79, 80
5, 186300, Note_off_c, 10, 79, 64
5, 186300, Note_on_c, 10, 82, 80
5, 186348, Note_off_c, 10, 82, 64
5, 186480, Note_on_c, 10, 72, 80
5, 186540, Note_off_c, 10, 72, 64
5, 186540, Note_on_c, 10, 75, 80
5, 186588, Note_off_c, 10, 75, 64
5, 186720, Note_on_c, 10, 74, 80
5, 186780, Note_off_c, 10, 74, 64
5, 186780, Note_on_c, 10, 77, 80
5, 186828, Note_off_c, 10, 77, 64
5, 186960, Note_on_c, 10, 69, 80
5, 187020, Note_off_c, 10, 69, 64
5, 187020, Note_on_c, 10, 72, 80
5, 187068, Note_off_c, 10, 72, 64
5, 187200, Note_on_c, 10, 70, 105
5, 187356, Note_off_c, 10, 70, 64
5, 187440, Note_on_c, 10, 58, 105
5, 187492, Note_off_c, 10, 58, 64
5, 187520, Note_on_c, 10, 58, 105
5, 187572, Note_off_c, 10, 58, 64
5, 187600, Note_on_c, 10, 58, 105
5, 187652, Note_off_c, 10, 58, 64
5, 187680, Note_on_c, 10, 58, 105
5, 187732, Note_off_c, 10, 58, 64
5, 187760, Note_on_c, 10, 58, 105
5, 187812, Note_off_c, 10, 58, 64
5, 187840, Note_on_c, 10, 58, 105
5, 187892, Note_off_c, 10, 58, 64
5, 187920, Note_on_c, 10, 58, 105
5, 187972, Note_off_c, 10, 58, 64
5, 188000, Note_on_c, 10, 58, 105
5, 188052, Note_off_c, 10, 58, 64
5, 188080, Note_on_c, 10, 58, 105
5, 188132, Note_off_c, 10, 58, 64
5, 188160, Note_on_c, 10, 58, 105
5, 188292, Note_off_c, 10, 58, 64
5, 188400, Note_on_c, 10, 62, 105
5, 188532, Note_off_c, 10, 62, 64
5, 188640, Note_on_c, 10, 65, 105
5, 188772, Note_off_c, 10, 65, 64
5, 189120, Note_on_c, 10, 62, 58
5, 189237, Note_off_c, 10, 62, 64
5, 189300, Note_on_c, 10, 62, 58
5, 189339, Note_off_c, 10, 62, 64
5, 189360, Note_on_c, 10, 65, 58
5, 189477, Note_off_c, 10, 65, 64
5, 189540, Note_on_c, 10, 65, 58
5, 189579, Note_off_c, 10, 65, 64
5, 189600, Note_on_c, 10, 70, 58
5, 189732, Note_off_c, 10, 70, 64
5, 190080, Note_on_c, 10, 70, 105
5, 190197, Note_off_c, 10, 70, 64
5, 190260, Note_on_c, 10, 70, 105
5, 190299, Note_off_c, 10, 70, 64
5, 190320, Note_on_c, 10, 74, 105
5, 190437, Note_off_c, 10, 74, 64
5, 190500, Note_on_c, 10, 74, 105
5, 190539, Note_off_c, 10, 74, 64
5, 190560, Note_on_c, 10, 77, 105
5, 190677, Note_off_c, 10, 77, 64
5, 190740, Note_on_c, 10, 77, 105
5, 190779, Note_off_c, 10, 77, 64
5, 190800, Note_on_c, 10, 82, 105
5, 190917, Note_off_c, 10, 82, 64
5, 190980, Note_on_c, 10, 82, 105
5, 191019, Note_off_c, 10, 82, 64
5, 191040, Note_on_c, 10, 77, 105
5, 191157, Note_off_c, 10, 77, 64
5, 191220, Note_on_c, 10, 77, 105
5, 191259, Note_off_c, 10, 77, 64
5, 191280, Note_on_c, 10, 74, 105
5, 191397, Note_off_c, 10, 74, 64
5, 191460, Note_on_c, 10, 74, 105
5, 191499, Note_off_c, 10, 74, 64
5, 191520, Note_on_c, 10, 70, 105
5, 191652, Note_off_c, 10, 70, 64
5, 191760, Note_on_c, 10, 73, 105
5, 191826, Note_off_c, 10, 73, 64
5, 192000, Note_on_c, 10, 74, 80
5, 192066, Note_off_c, 10, 74, 64
5, 192240, Note_on_c, 10, 78, 80
5, 192306, Note_off_c, 10, 78, 64
5, 192480, Note_on_c, 10, 79, 80
5, 192546, Note_off_c, 10, 79, 64
5, 192720, Note_on_c, 10, 81, 80
5, 192786, Note_off_c, 10, 81, 64
5, 192960, Note_on_c, 10, 82, 80
5, 193320, Note_off_c, 10, 82, 64
5, 193320, Note_on_c, 10, 84, 80
5, 193380, Note_off_c, 10, 84, 64
5, 193380, Note_on_c, 10, 81, 80
5, 193440, Note_off_c, 10, 81, 64
5, 193440, Note_on_c, 10, 79, 80
5, 193632, Note_off_c, 10, 79, 64
5, 193680, Note_on_c, 10, 86, 80
5, 193824, Note_off_c, 10, 86, 64
5, 193860, Note_on_c, 10, 86, 80
5, 193908, Note_off_c, 10, 86, 64
5, 193920, Note_on_c, 10, 86, 80
5, 194112, Note_off_c, 10, 86, 64
5, 194160, Note_on_c, 10, 86, 80
5, 194304, Note_off_c, 10, 86, 64
5, 194340, Note_on_c, 10, 86, 80
5, 194388, Note_off_c, 10, 86, 64
5, 194400, Note_on_c, 10, 86, 80
5, 194532, Note_off_c, 10, 86, 64
5, 194640, Note_on_c, 10, 86, 80
5, 194772, Note_off_c, 10, 86, 64
5, 194880, Note_on_c, 10, 86, 80
5, 195240, Note_off_c, 10, 86, 64
5, 195240, Note_on_c, 10, 82, 80
5, 195336, Note_off_c, 10, 82, 64
5, 195360, Note_on_c, 10, 79, 80
5, 195456, Note_off_c, 10, 79, 64
5, 195600, Note_on_c, 10, 69, 80
5, 195666, Note_off_c, 10, 69, 64
5, 195840, Note_on_c, 10, 70, 80
5, 195906, Note_off_c, 10, 70, 64
5, 196080, Note_on_c, 10, 74, 80
5, 196146, Note_off_c, 10, 74, 64
5, 196320, Note_on_c, 10, 75, 80
5, 196386, Note_off_c, 10, 75, 64
5, 196560, Note_on_c, 10, 78, 80
5, 196626, Note_off_c, 10, 78, 64
5, 196800, Note_on_c, 10, 79, 80
5, 197160, Note_off_c, 10, 79, 64
5, 197160, Note_on_c, 10, 81, 80
5, 197220, Note_off_c, 10, 81, 64
5, 197220, Note_on_c, 10, 77, 80
5, 197280, Note_off_c, 10, 77, 64
5, 197280, Note_on_c, 10, 75, 80
5, 197472, Note_off_c, 10, 75, 64
5, 197520, Note_on_c, 10, 82, 80
5, 197664, Note_off_c, 10, 82, 64
5, 197700, Note_on_c, 10, 82, 80
5, 197748, Note_off_c, 10, 82, 64
5, 197760, Note_on_c, 10, 82, 80
5, 197952, Note_off_c, 10, 82, 64
5, 198000, Note_on_c, 10, 82, 80
5, 198144, Note_off_c, 10, 82, 64
5, 198180, Note_on_c, 10, 82, 80
5, 198228, Note_off_c, 10, 82, 64
5, 198240, Note_on_c, 10, 82, 80
5, 198372, Note_off_c, 10, 82, 64
5, 198480, Note_on_c, 10, 82, 80
5, 198612, Note_off_c, 10, 82, 64
5, 198720, Note_on_c, 10, 82, 80
5, 199080, Note_off_c, 10, 82, 64
5, 199080, Note_on_c, 10, 79, 80
5, 199176, Note_off_c, 10, 79, 64
5, 199200, Note_on_c, 10, 75, 80
5, 199392, Note_off_c, 10, 75, 64
5, 199680, Note_on_c, 10, 74, 80
5, 199710, Note_off_c, 10, 74, 64
5, 199710, Note_on_c, 10, 72, 80
5, 199740, Note_off_c, 10, 72, 64
5, 199740, Note_on_c, 10, 71, 80
5, 199800, Note_off_c, 10, 71, 64
5, 199800, Note_on_c, 10, 72, 80
5, 199896, Note_off_c, 10, 72, 64
5, 200160, Note_on_c, 10, 77, 80
5, 200190, Note_off_c, 10, 77, 64
5, 200190, Note_on_c, 10, 75, 80
5, 200220, Note_off_c, 10, 75, 64
5, 200220, Note_on_c, 10, 74, 80
5, 200280, Note_off_c, 10, 74, 64
5, 200280, Note_on_c, 10, 75, 80
5, 200376, Note_off_c, 10, 75, 64
5, 200640, Note_on_c, 10, 81, 80
5, 200670, Note_off_c, 10, 81, 64
5, 200670, Note_on_c, 10, 79, 80
5, 200700, Note_off_c, 10, 79, 64
5, 200700, Note_on_c, 10, 78, 80
5, 200760, Note_off_c, 10, 78, 64
5, 200760, Note_on_c, 10, 79, 80
5, 200856, Note_off_c, 10, 79, 64
5, 201600, Note_on_c, 10, 74, 80
5, 201630, Note_off_c, 10, 74, 64
5, 201630, Note_on_c, 10, 72, 80
5, 201660, Note_off_c, 10, 72, 64
5, 201660, Note_on_c, 10, 71, 80
5, 201720, Note_off_c, 10, 71, 64
5, 201720, Note_on_c, 10, 72, 80
5, 201816, Note_off_c, 10, 72, 64
5, 202080, Note_on_c, 10, 77, 80
5, 202110, Note_off_c, 10, 77, 64
5, 202110, Note_on_c, 10, 75, 80
5, 202140, Note_off_c, 10, 75, 64
5, 202140, Note_on_c, 10, 74, 80
5, 202200, Note_off_c, 10, 74, 64
5, 202200, Note_on_c, 10, 75, 80
5, 202296, Note_off_c, 10, 75, 64
5, 202560, Note_on_c, 10, 81, 80
5, 202590, Note_off_c, 10, 81, 64
5, 202590, Note_on_c, 10, 79, 80
5, 202620, Note_off_c, 10, 79, 64
5, 202620, Note_on_c, 10, 78, 80
5, 202680, Note_off_c, 10, 78, 64
5, 202680, Note_on_c, 10, 79, 80
5, 202776, Note_off_c, 10, 79, 64
5, 203280, Note_on_c, 10, 67, 80
5, 203472, Note_off_c, 10, 67, 64
5, 203520, Note_on_c, 10, 79, 80
5, 203592, Note_off_c, 10, 79, 64
5, 203640, Note_on_c, 10, 78, 80
5, 203712, Note_off_c, 10, 78, 64
5, 203760, Note_on_c, 10, 79, 80
5, 203832, Note_off_c, 10, 79, 64
5, 203880, Note_on_c, 10, 77, 80
5, 203952, Note_off_c, 10, 77, 64
5, 204000, Note_on_c, 10, 75, 80
5, 204072, Note_off_c, 10, 75, 64
5, 204120, Note_on_c, 10, 74, 80
5, 204192, Note_off_c, 10, 74, 64
5, 204240, Note_on_c, 10, 75, 80
5, 204312, Note_off_c, 10, 75, 64
5, 204360, Note_on_c, 10, 74, 80
5, 204432, Note_off_c, 10, 74, 64
5, 204480, Note_on_c, 10, 72, 80
5, 204552, Note_off_c, 10, 72, 64
5, 204600, Note_on_c, 10, 71, 80
5, 204672, Note_off_c, 10, 71, 64
5, 204720, Note_on_c, 10, 72, 80
5, 204792, Note_off_c, 10, 72, 64
5, 204840, Note_on_c, 10, 70, 80
5, 204912, Note_off_c, 10, 70, 64
5, 204960, Note_on_c, 10, 69, 80
5, 205032, Note_off_c, 10, 69, 64
5, 205080, Note_on_c, 10, 68, 80
5, 205152, Note_off_c, 10, 68, 64
5, 205200, Note_on_c, 10, 69, 80
5, 205272, Note_off_c, 10, 69, 64
5, 205320, Note_on_c, 10, 67, 80
5, 205392, Note_off_c, 10, 67, 64
5, 205440, Note_on_c, 10, 65, 105
5, 205584, Note_off_c, 10, 65, 64
5, 205680, Note_on_c, 10, 77, 105
5, 205752, Note_off_c, 10, 77, 64
5, 205800, Note_on_c, 10, 79, 105
5, 205872, Note_off_c, 10, 79, 64
5, 205920, Note_on_c, 10, 81, 105
5, 206064, Note_off_c, 10, 81, 64
5, 206160, Note_on_c, 10, 81, 105
5, 206232, Note_off_c, 10, 81, 64
5, 206280, Note_on_c, 10, 82, 105
5, 206352, Note_off_c, 10, 82, 64
5, 206400, Note_on_c, 10, 84, 105
5, 206544, Note_off_c, 10, 84, 64
5, 206640, Note_on_c, 10, 84, 105
5, 206712, Note_off_c, 10, 84, 64
5, 206760, Note_on_c, 10, 86, 105
5, 206832, Note_off_c, 10, 86, 64
5, 206880, Note_on_c, 10, 87, 105
5, 207024, Note_off_c, 10, 87, 64
5, 207120, Note_on_c, 10, 87, 105
5, 207192, Note_off_c, 10, 87, 64
5, 207240, Note_on_c, 10, 87, 105
5, 207312, Note_off_c, 10, 87, 64
5, 207360, Note_on_c, 10, 87, 105
5, 207576, Note_off_c, 10, 87, 64
5, 207720, Note_on_c, 10, 86, 105
5, 207792, Note_off_c, 10, 86, 64
5, 207840, Note_on_c, 10, 87, 105
5, 208056, Note_off_c, 10, 87, 64
5, 208200, Note_on_c, 10, 86, 105
5, 208272, Note_off_c, 10, 86, 64
5, 208320, Note_on_c, 10, 87, 105
5, 208392, Note_off_c, 10, 87, 64
5, 208440, Note_on_c, 10, 86, 105
5, 208512, Note_off_c, 10, 86, 64
5, 208560, Note_on_c, 10, 87, 105
5, 208632, Note_off_c, 10, 87, 64
5, 208680, Note_on_c, 10, 86, 105
5, 208752, Note_off_c, 10, 86, 64
5, 208800, Note_on_c, 10, 87, 105
5, 208872, Note_off_c, 10, 87, 64
5, 208920, Note_on_c, 10, 86, 105
5, 208992, Note_off_c, 10, 86, 64
5, 209040, Note_on_c, 10, 87, 105
5, 209112, Note_off_c, 10, 87, 64
5, 209160, Note_on_c, 10, 86, 105
5, 209232, Note_off_c, 10, 86, 64
5, 209280, Note_on_c, 10, 87, 105
5, 209376, Note_off_c, 10, 87, 64
5, 209520, Note_on_c, 10, 87, 70
5, 209580, Note_off_c, 10, 87, 64
5, 209580, Note_on_c, 10, 86, 70
5, 209640, Note_off_c, 10, 86, 64
5, 209640, Note_on_c, 10, 84, 70
5, 209700, Note_off_c, 10, 84, 64
5, 209700, Note_on_c, 10, 86, 70
5, 209760, Note_off_c, 10, 86, 64
5, 209760, Note_on_c, 10, 84, 70
5, 209856, Note_off_c, 10, 84, 64
5, 210000, Note_on_c, 10, 84, 70
5, 210060, Note_off_c, 10, 84, 64
5, 210060, Note_on_c, 10, 82, 70
5, 210120, Note_off_c, 10, 82, 64
5, 210120, Note_on_c, 10, 81, 70
5, 210180, Note_off_c, 10, 81, 64
5, 210180, Note_on_c, 10, 82, 70
5, 210240, Note_off_c, 10, 82, 64
5, 210240, Note_on_c, 10, 81, 70
5, 210336, Note_off_c, 10, 81, 64
5, 210480, Note_on_c, 10, 81, 70
5, 210540, Note_off_c, 10, 81, 64
5, 210540, Note_on_c, 10, 79, 70
5, 210600, Note_off_c, 10, 79, 64
5, 210600, Note_on_c, 10, 77, 70
5, 210660, Note_off_c, 10, 77, 64
5, 210660, Note_on_c, 10, 79, 70
5, 210720, Note_off_c, 10, 79, 64
5, 210720, Note_on_c, 10, 77, 70
5, 210816, Note_off_c, 10, 77, 64
5, 210960, Note_on_c, 10, 77, 70
5, 211020, Note_off_c, 10, 77, 64
5, 211020, Note_on_c, 10, 75, 70
5, 211080, Note_off_c, 10, 75, 64
5, 211080, Note_on_c, 10, 74, 70
5, 211140, Note_off_c, 10, 74, 64
5, 211140, Note_on_c, 10, 75, 70
5, 211200, Note_off_c, 10, 75, 64
5, 211200, Note_on_c, 10, 74, 70
5, 211392, Note_off_c, 10, 74, 64
5, 211680, Note_on_c, 10, 77, 80
5, 212040, Note_off_c, 10, 77, 64
5, 212040, Note_on_c, 10, 74, 80
5, 212136, Note_off_c, 10, 74, 64
5, 212160, Note_on_c, 10, 70, 80
5, 212520, Note_off_c, 10, 70, 64
5, 212520, Note_on_c, 10, 74, 80
5, 212616, Note_off_c, 10, 74, 64
5, 212640, Note_on_c, 10, 65, 80
5, 213000, Note_off_c, 10, 65, 64
5, 213000, Note_on_c, 10, 74, 80
5, 213096, Note_off_c, 10, 74, 64
5, 213120, Note_on_c, 10, 77, 80
5, 213180, Note_off_c, 10, 77, 64
5, 213180, Note_on_c, 10, 75, 80
5, 213324, Note_off_c, 10, 75, 64
5, 213600, Note_on_c, 10, 77, 80
5, 213660, Note_off_c, 10, 77, 64
5, 213660, Note_on_c, 10, 75, 80
5, 213708, Note_off_c, 10, 75, 64
5, 213840, Note_on_c, 10, 74, 80
5, 213900, Note_off_c, 10, 74, 64
5, 213900, Note_on_c, 10, 72, 80
5, 213948, Note_off_c, 10, 72, 64
5, 214080, Note_on_c, 10, 70, 80
5, 214140, Note_off_c, 10, 70, 64
5, 214140, Note_on_c, 10, 69, 80
5, 214188, Note_off_c, 10, 69, 64
5, 214320, Note_on_c, 10, 74, 80
5, 214380, Note_off_c, 10, 74, 64
5, 214380, Note_on_c, 10, 72, 80
5, 214428, Note_off_c, 10, 72, 64
5, 214560, Note_on_c, 10, 70, 80
5, 214620, Note_off_c, 10, 70, 64
5, 214620, Note_on_c, 10, 69, 80
5, 214668, Note_off_c, 10, 69, 64
5, 214800, Note_on_c, 10, 67, 80
5, 214860, Note_off_c, 10, 67, 64
5, 214860, Note_on_c, 10, 65, 80
5, 214908, Note_off_c, 10, 65, 64
5, 215040, Note_on_c, 10, 63, 80
5, 215100, Note_off_c, 10, 63, 64
5, 215100, Note_on_c, 10, 62, 80
5, 215244, Note_off_c, 10, 62, 64
5, 215520, Note_on_c, 10, 65, 80
5, 215700, Note_off_c, 10, 65, 64
5, 215700, Note_on_c, 10, 67, 80
5, 215760, Note_off_c, 10, 67, 64
5, 215760, Note_on_c, 10, 69, 80
5, 215940, Note_off_c, 10, 69, 64
5, 215940, Note_on_c, 10, 70, 80
5, 215988, Note_off_c, 10, 70, 64
5, 216000, Note_on_c, 10, 69, 80
5, 216120, Note_off_c, 10, 69, 64
5, 216120, Note_on_c, 10, 67, 80
5, 216240, Note_off_c, 10, 67, 64
5, 216240, Note_on_c, 10, 65, 80
5, 216432, Note_off_c, 10, 65, 64
5, 216480, Note_on_c, 10, 65, 80
5, 216660, Note_off_c, 10, 65, 64
5, 216660, Note_on_c, 10, 70, 80
5, 216720, Note_off_c, 10, 70, 64
5, 216720, Note_on_c, 10, 74, 80
5, 216900, Note_off_c, 10, 74, 64
5, 216900, Note_on_c, 10, 77, 80
5, 216948, Note_off_c, 10, 77, 64
5, 216960, Note_on_c, 10, 77, 80
5, 217080, Note_off_c, 10, 77, 64
5, 217080, Note_on_c, 10, 75, 80
5, 217200, Note_off_c, 10, 75, 64
5, 217200, Note_on_c, 10, 74, 80
5, 217392, Note_off_c, 10, 74, 64
5, 217440, Note_on_c, 10, 79, 80
5, 217560, Note_off_c, 10, 79, 64
5, 217560, Note_on_c, 10, 77, 80
5, 217680, Note_off_c, 10, 77, 64
5, 217680, Note_on_c, 10, 75, 80
5, 217800, Note_off_c, 10, 75, 64
5, 217800, Note_on_c, 10, 74, 80
5, 217896, Note_off_c, 10, 74, 64
5, 217920, Note_on_c, 10, 74, 80
5, 217980, Note_off_c, 10, 74, 64
5, 217980, Note_on_c, 10, 72, 80
5, 218124, Note_off_c, 10, 72, 64
5, 218160, Note_on_c, 10, 72, 80
5, 218352, Note_off_c, 10, 72, 64
5, 218400, Note_on_c, 10, 72, 80
5, 218592, Note_off_c, 10, 72, 64
5, 218640, Note_on_c, 10, 72, 80
5, 218832, Note_off_c, 10, 72, 64
5, 218880, Note_on_c, 10, 72, 80
5, 219000, Note_off_c, 10, 72, 64
5, 219000, Note_on_c, 10, 74, 80
5, 219120, Note_off_c, 10, 74, 64
5, 219120, Note_on_c, 10, 75, 80
5, 219240, Note_off_c, 10, 75, 64
5, 219240, Note_on_c, 10, 76, 80
5, 219336, Note_off_c, 10, 76, 64
5, 219360, Note_on_c, 10, 77, 80
5, 219720, Note_off_c, 10, 77, 64
5, 219720, Note_on_c, 10, 74, 80
5, 219816, Note_off_c, 10, 74, 64
5, 219840, Note_on_c, 10, 70, 80
5, 220200, Note_off_c, 10, 70, 64
5, 220200, Note_on_c, 10, 74, 80
5, 220296, Note_off_c, 10, 74, 64
5, 220320, Note_on_c, 10, 65, 80
5, 220680, Note_off_c, 10, 65, 64
5, 220680, Note_on_c, 10, 74, 80
5, 220776, Note_off_c, 10, 74, 64
5, 220800, Note_on_c, 10, 77, 80
5, 220860, Note_off_c, 10, 77, 64
5, 220860, Note_on_c, 10, 75, 80
5, 221004, Note_off_c, 10, 75, 64
5, 221280, Note_on_c, 10, 77, 80
5, 221340, Note_off_c, 10, 77, 64
5, 221340, Note_on_c, 10, 75, 80
5, 221388, Note_off_c, 10, 75, 64
5, 221520, Note_on_c, 10, 74, 80
5, 221580, Note_off_c, 10, 74, 64
5, 221580, Note_on_c, 10, 72, 80
5, 221628, Note_off_c, 10, 72, 64
5, 221760, Note_on_c, 10, 70, 80
5, 221820, Note_off_c, 10, 70, 64
5, 221820, Note_on_c, 10, 69, 80
5, 221868, Note_off_c, 10, 69, 64
5, 222000, Note_on_c, 10, 86, 80
5, 222060, Note_off_c, 10, 86, 64
5, 222060, Note_on_c, 10, 84, 80
5, 222108, Note_off_c, 10, 84, 64
5, 222240, Note_on_c, 10, 82, 80
5, 222300, Note_off_c, 10, 82, 64
5, 222300, Note_on_c, 10, 81, 80
5, 222348, Note_off_c, 10, 81, 64
5, 222480, Note_on_c, 10, 79, 80
5, 222540, Note_off_c, 10, 79, 64
5, 222540, Note_on_c, 10, 77, 80
5, 222588, Note_off_c, 10, 77, 64
5, 222720, Note_on_c, 10, 75, 80
5, 222780, Note_off_c, 10, 75, 64
5, 222780, Note_on_c, 10, 74, 80
5, 222924, Note_off_c, 10, 74, 64
5, 223200, Note_on_c, 10, 77, 80
5, 223380, Note_off_c, 10, 77, 64
5, 223380, Note_on_c, 10, 79, 80
5, 223440, Note_off_c, 10, 79, 64
5, 223440, Note_on_c, 10, 81, 80
5, 223620, Note_off_c, 10, 81, 64
5, 223620, Note_on_c, 10, 82, 80
5, 223668, Note_off_c, 10, 82, 64
5, 223680, Note_on_c, 10, 81, 80
5, 223800, Note_off_c, 10, 81, 64
5, 223800, Note_on_c, 10, 79, 80
5, 223920, Note_off_c, 10, 79, 64
5, 223920, Note_on_c, 10, 77, 80
5, 224112, Note_off_c, 10, 77, 64
5, 224160, Note_on_c, 10, 82, 80
5, 224340, Note_off_c, 10, 82, 64
5, 224340, Note_on_c, 10, 81, 80
5, 224400, Note_off_c, 10, 81, 64
5, 224400, Note_on_c, 10, 79, 80
5, 224580, Note_off_c, 10, 79, 64
5, 224580, Note_on_c, 10, 77, 80
5, 224628, Note_off_c, 10, 77, 64
5, 224640, Note_on_c, 10, 77, 80
5, 224760, Note_off_c, 10, 77, 64
5, 224760, Note_on_c, 10, 75, 80
5, 224880, Note_off_c, 10, 75, 64
5, 224880, Note_on_c, 10, 74, 80
5, 225072, Note_off_c, 10, 74, 64
5, 225120, Note_on_c, 10, 82, 80
5, 225240, Note_off_c, 10, 82, 64
5, 225240, Note_on_c, 10, 81, 80
5, 225360, Note_off_c, 10, 81, 64
5, 225360, Note_on_c, 10, 80, 80
5, 225480, Note_off_c, 10, 80, 64
5, 225480, Note_on_c, 10, 79, 80
5, 225600, Note_off_c, 10, 79, 64
5, 225600, Note_on_c, 10, 78, 80
5, 225720, Note_off_c, 10, 78, 64
5, 225720, Note_on_c, 10, 79, 80
5, 225840, Note_off_c, 10, 79, 64
5, 225840, Note_on_c, 10, 75, 80
5, 225960, Note_off_c, 10, 75, 64
5, 225960, Note_on_c, 10, 72, 80
5, 226056, Note_off_c, 10, 72, 64
5, 226080, Note_on_c, 10, 70, 80
5, 226320, Note_off_c, 10, 70, 64
5, 226320, Note_on_c, 10, 74, 80
5, 226380, Note_off_c, 10, 74, 64
5, 226380, Note_on_c, 10, 72, 80
5, 226560, Note_off_c, 10, 72, 64
5, 226560, Note_on_c, 10, 70, 80
5, 226704, Note_off_c, 10, 70, 64
5, 226800, Note_on_c, 10, 65, 105
5, 226848, Note_off_c, 10, 65, 64
5, 226880, Note_on_c, 10, 65, 105
5, 226928, Note_off_c, 10, 65, 64
5, 226960, Note_on_c, 10, 65, 105
5, 227008, Note_off_c, 10, 65, 64
5, 227040, Note_on_c, 10, 64, 105
5, 227088, Note_off_c, 10, 64, 64
5, 227120, Note_on_c, 10, 64, 105
5, 227168, Note_off_c, 10, 64, 64
5, 227200, Note_on_c, 10, 64, 105
5, 227248, Note_off_c, 10, 64, 64
5, 227280, Note_on_c, 10, 63, 105
5, 227328, Note_off_c, 10, 63, 64
5, 227360, Note_on_c, 10, 63, 105
5, 227408, Note_off_c, 10, 63, 64
5, 227440, Note_on_c, 10, 63, 105
5, 227488, Note_off_c, 10, 63, 64
5, 227520, Note_on_c, 10, 62, 105
5, 227568, Note_off_c, 10, 62, 64
5, 227600, Note_on_c, 10, 62, 105
5, 227648, Note_off_c, 10, 62, 64
5, 227680, Note_on_c, 10, 62, 105
5, 227728, Note_off_c, 10, 62, 64
5, 227760, Note_on_c, 10, 82, 105
5, 227808, Note_off_c, 10, 82, 64
5, 227840, Note_on_c, 10, 82, 105
5, 227888, Note_off_c, 10, 82, 64
5, 227920, Note_on_c, 10, 82, 105
5, 227968, Note_off_c, 10, 82, 64
5, 228000, Note_on_c, 10, 81, 105
5, 228048, Note_off_c, 10, 81, 64
5, 228080, Note_on_c, 10, 81, 105
5, 228128, Note_off_c, 10, 81, 64
5, 228160, Note_on_c, 10, 81, 105
5, 228208, Note_off_c, 10, 81, 64
5, 228240, Note_on_c, 10, 80, 105
5, 228288, Note_off_c, 10, 80, 64
5, 228320, Note_on_c, 10, 80, 105
5, 228368, Note_off_c, 10, 80, 64
5, 228400, Note_on_c, 10, 80, 105
5, 228448, Note_off_c, 10, 80, 64
5, 228480, Note_on_c, 10, 79, 105
5, 228528, Note_off_c, 10, 79, 64
5, 228560, Note_on_c, 10, 79, 105
5, 228608, Note_off_c, 10, 79, 64
5, 228640, Note_on_c, 10, 79, 105
5, 228688, Note_off_c, 10, 79, 64
5, 228720, Note_on_c, 10, 70, 105
5, 228768, Note_off_c, 10, 70, 64
5, 228800, Note_on_c, 10, 70, 105
5, 228848, Note_off_c, 10, 70, 64
5, 228880, Note_on_c, 10, 70, 105
5, 228928, Note_off_c, 10, 70, 64
5, 228960, Note_on_c, 10, 72, 105
5, 229008, Note_off_c, 10, 72, 64
5, 229040, Note_on_c, 10, 72, 105
5, 229088, Note_off_c, 10, 72, 64
5, 229120, Note_on_c, 10, 72, 105
5, 229168, Note_off_c, 10, 72, 64
5, 229200, Note_on_c, 10, 79, 105
5, 229248, Note_off_c, 10, 79, 64
5, 229280, Note_on_c, 10, 79, 105
5, 229328, Note_off_c, 10, 79, 64
5, 229360, Note_on_c, 10, 79, 105
5, 229408, Note_off_c, 10, 79, 64
5, 229440, Note_on_c, 10, 77, 105
5, 229488, Note_off_c, 10, 77, 64
5, 229520, Note_on_c, 10, 77, 105
5, 229568, Note_off_c, 10, 77, 64
5, 229600, Note_on_c, 10, 77, 105
5, 229648, Note_off_c, 10, 77, 64
5, 229680, Note_on_c, 10, 75, 105
5, 229728, Note_off_c, 10, 75, 64
5, 229760, Note_on_c, 10, 75, 105
5, 229808, Note_off_c, 10, 75, 64
5, 229840, Note_on_c, 10, 75, 105
5, 229888, Note_off_c, 10, 75, 64
5, 229920, Note_on_c, 10, 74, 105
5, 229968, Note_off_c, 10, 74, 64
5, 230000, Note_on_c, 10, 74, 105
5, 230048, Note_off_c, 10, 74, 64
5, 230080, Note_on_c, 10, 74, 105
5, 230128, Note_off_c, 10, 74, 64
5, 230160, Note_on_c, 10, 72, 105
5, 230208, Note_off_c, 10, 72, 64
5, 230240, Note_on_c, 10, 72, 105
5, 230288, Note_off_c, 10, 72, 64
5, 230320, Note_on_c, 10, 72, 105
5, 230368, Note_off_c, 10, 72, 64
5, 230400, Note_on_c, 10, 70, 92
5, 230544, Note_off_c, 10, 70, 64
5, 230640, Note_on_c, 10, 65, 105
5, 230704, Note_off_c, 10, 65, 64
5, 230720, Note_on_c, 10, 65, 105
5, 230768, Note_off_c, 10, 65, 64
5, 230800, Note_on_c, 10, 65, 105
5, 230848, Note_off_c, 10, 65, 64
5, 230880, Note_on_c, 10, 64, 105
5, 230928, Note_off_c, 10, 64, 64
5, 230960, Note_on_c, 10, 64, 105
5, 231008, Note_off_c, 10, 64, 64
5, 231040, Note_on_c, 10, 64, 105
5, 231088, Note_off_c, 10, 64, 64
5, 231120, Note_on_c, 10, 63, 105
5, 231168, Note_off_c, 10, 63, 64
5, 231200, Note_on_c, 10, 63, 105
5, 231248, Note_off_c, 10, 63, 64
5, 231280, Note_on_c, 10, 63, 105
5, 231328, Note_off_c, 10, 63, 64
5, 231360, Note_on_c, 10, 62, 105
5, 231408, Note_off_c, 10, 62, 64
5, 231440, Note_on_c, 10, 62, 105
5, 231488, Note_off_c, 10, 62, 64
5, 231520, Note_on_c, 10, 62, 105
5, 231568, Note_off_c, 10, 62, 64
5, 231600, Note_on_c, 10, 82, 105
5, 231648, Note_off_c, 10, 82, 64
5, 231680, Note_on_c, 10, 82, 105
5, 231728, Note_off_c, 10, 82, 64
5, 231760, Note_on_c, 10, 82, 105
5, 231808, Note_off_c, 10, 82, 64
5, 231840, Note_on_c, 10, 81, 105
5, 231888, Note_off_c, 10, 81, 64
5, 231920, Note_on_c, 10, 81, 105
5, 231968, Note_off_c, 10, 81, 64
5, 232000, Note_on_c, 10, 81, 105
5, 232048, Note_off_c, 10, 81, 64
5, 232080, Note_on_c, 10, 80, 105
5, 232128, Note_off_c, 10, 80, 64
5, 232160, Note_on_c, 10, 80, 105
5, 232208, Note_off_c, 10, 80, 64
5, 232240, Note_on_c, 10, 80, 105
5, 232288, Note_off_c, 10, 80, 64
5, 232320, Note_on_c, 10, 79, 105
5, 232368, Note_off_c, 10, 79, 64
5, 232400, Note_on_c, 10, 79, 105
5, 232448, Note_off_c, 10, 79, 64
5, 232480, Note_on_c, 10, 79, 105
5, 232528, Note_off_c, 10, 79, 64
5, 232560, Note_on_c, 10, 83, 105
5, 232608, Note_off_c, 10, 83, 64
5, 232640, Note_on_c, 10, 83, 105
5, 232688, Note_off_c, 10, 83, 64
5, 232720, Note_on_c, 10, 83, 105
5, 232768, Note_off_c, 10, 83, 64
5, 232800, Note_on_c, 10, 84, 105
5, 232848, Note_off_c, 10, 84, 64
5, 232880, Note_on_c, 10, 84, 105
5, 232928, Note_off_c, 10, 84, 64
5, 232960, Note_on_c, 10, 84, 105
5, 233008, Note_off_c, 10, 84, 64
5, 233040, Note_on_c, 10, 87, 105
5, 233088, Note_off_c, 10, 87, 64
5, 233120, Note_on_c, 10, 87, 105
5, 233168, Note_off_c, 10, 87, 64
5, 233200, Note_on_c, 10, 87, 105
5, 233248, Note_off_c, 10, 87, 64
5, 233280, Note_on_c, 10, 86, 105
5, 233328, Note_off_c, 10, 86, 64
5, 233360, Note_on_c, 10, 86, 105
5, 233408, Note_off_c, 10, 86, 64
5, 233440, Note_on_c, 10, 86, 105
5, 233488, Note_off_c, 10, 86, 64
5, 233520, Note_on_c, 10, 84, 105
5, 233568, Note_off_c, 10, 84, 64
5, 233600, Note_on_c, 10, 84, 105
5, 233648, Note_off_c, 10, 84, 64
5, 233680, Note_on_c, 10, 84, 105
5, 233728, Note_off_c, 10, 84, 64
5, 233760, Note_on_c, 10, 82, 105
5, 233808, Note_off_c, 10, 82, 64
5, 233840, Note_on_c, 10, 82, 105
5, 233888, Note_off_c, 10, 82, 64
5, 233920, Note_on_c, 10, 82, 105
5, 233968, Note_off_c, 10, 82, 64
5, 234000, Note_on_c, 10, 81, 105
5, 234048, Note_off_c, 10, 81, 64
5, 234080, Note_on_c, 10, 81, 105
5, 234128, Note_off_c, 10, 81, 64
5, 234160, Note_on_c, 10, 81, 105
5, 234208, Note_off_c, 10, 81, 64
5, 234240, Note_on_c, 10, 82, 105
5, 234288, Note_off_c, 10, 82, 64
5, 234320, Note_on_c, 10, 82, 105
5, 234368, Note_off_c, 10, 82, 64
5, 234400, Note_on_c, 10, 82, 105
5, 234448, Note_off_c, 10, 82, 64
5, 234480, Note_on_c, 10, 87, 105
5, 234528, Note_off_c, 10, 87, 64
5, 234560, Note_on_c, 10, 87, 105
5, 234608, Note_off_c, 10, 87, 64
5, 234640, Note_on_c, 10, 87, 105
5, 234688, Note_off_c, 10, 87, 64
5, 234720, Note_on_c, 10, 86, 105
5, 234768, Note_off_c, 10, 86, 64
5, 234800, Note_on_c, 10, 86, 105
5, 234848, Note_off_c, 10, 86, 64
5, 234880, Note_on_c, 10, 86, 105
5, 234928, Note_off_c, 10, 86, 64
5, 234960, Note_on_c, 10, 84, 105
5, 235008, Note_off_c, 10, 84, 64
5, 235040, Note_on_c, 10, 84, 105
5, 235088, Note_off_c, 10, 84, 64
5, 235120, Note_on_c, 10, 84, 105
5, 235168, Note_off_c, 10, 84, 64
5, 235200, Note_on_c, 10, 82, 105
5, 235248, Note_off_c, 10, 82, 64
5, 235280, Note_on_c, 10, 82, 105
5, 235328, Note_off_c, 10, 82, 64
5, 235360, Note_on_c, 10, 82, 105
5, 235408, Note_off_c, 10, 82, 64
5, 235440, Note_on_c, 10, 81, 105
5, 235488, Note_off_c, 10, 81, 64
5, 235520, Note_on_c, 10, 81, 105
5, 235568, Note_off_c, 10, 81, 64
5, 235600, Note_on_c, 10, 81, 105
5, 235648, Note_off_c, 10, 81, 64
5, 235680, Note_on_c, 10, 82, 105
5, 235728, Note_off_c, 10, 82, 64
5, 235760, Note_on_c, 10, 82, 105
5, 235808, Note_off_c, 10, 82, 64
5, 235840, Note_on_c, 10, 82, 105
5, 235888, Note_off_c, 10, 82, 64
5, 235920, Note_on_c, 10, 87, 105
5, 235968, Note_off_c, 10, 87, 64
5, 236000, Note_on_c, 10, 87, 105
5, 236048, Note_off_c, 10, 87, 64
5, 236080, Note_on_c, 10, 87, 105
5, 236128, Note_off_c, 10, 87, 64
5, 236160, Note_on_c, 10, 86, 105
5, 236160, Note_on_c, 10, 77, 105
5, 236212, Note_off_c, 10, 77, 64
5, 236212, Note_off_c, 10, 86, 64
5, 236240, Note_on_c, 10, 86, 105
5, 236240, Note_on_c, 10, 77, 105
5, 236292, Note_off_c, 10, 77, 64
5, 236292, Note_off_c, 10, 86, 64
5, 236320, Note_on_c, 10, 86, 105
5, 236320, Note_on_c, 10, 77, 105
5, 236372, Note_off_c, 10, 77, 64
5, 236372, Note_off_c, 10, 86, 64
5, 236400, Note_on_c, 10, 86, 105
5, 236400, Note_on_c, 10, 77, 105
5, 236452, Note_off_c, 10, 77, 64
5, 236452, Note_off_c, 10, 86, 64
5, 236480, Note_on_c, 10, 77, 105
5, 236480, Note_on_c, 10, 86, 105
5, 236532, Note_off_c, 10, 86, 64
5, 236532, Note_off_c, 10, 77, 64
5, 236560, Note_on_c, 10, 86, 105
5, 236560, Note_on_c, 10, 77, 105
5, 236612, Note_off_c, 10, 77, 64
5, 236612, Note_off_c, 10, 86, 64
5, 236640, Note_on_c, 10, 77, 105
5, 236640, Note_on_c, 10, 86, 105
5, 236692, Note_off_c, 10, 86, 64
5, 236692, Note_off_c, 10, 77, 64
5, 236720, Note_on_c, 10, 86, 105
5, 236720, Note_on_c, 10, 77, 105
5, 236772, Note_off_c, 10, 77, 64
5, 236772, Note_off_c, 10, 86, 64
5, 236800, Note_on_c, 10, 86, 105
5, 236800, Note_on_c, 10, 77, 105
5, 236852, Note_off_c, 10, 77, 64
5, 236852, Note_off_c, 10, 86, 64
5, 236880, Note_on_c, 10, 86, 105
5, 236880, Note_on_c, 10, 77, 105
5, 236932, Note_off_c, 10, 77, 64
5, 236932, Note_off_c, 10, 86, 64
5, 236960, Note_on_c, 10, 86, 105
5, 236960, Note_on_c, 10, 77, 105
5, 237012, Note_off_c, 10, 77, 64
5, 237012, Note_off_c, 10, 86, 64
5, 237040, Note_on_c, 10, 77, 105
5, 237040, Note_on_c, 10, 86, 105
5, 237092, Note_off_c, 10, 86, 64
5, 237092, Note_off_c, 10, 77, 64
5, 237120, Note_on_c, 10, 77, 105
5, 237120, Note_on_c, 10, 84, 105
5, 237172, Note_off_c, 10, 84, 64
5, 237172, Note_off_c, 10, 77, 64
5, 237200, Note_on_c, 10, 77, 105
5, 237200, Note_on_c, 10, 84, 105
5, 237252, Note_off_c, 10, 84, 64
5, 237252, Note_off_c, 10, 77, 64
5, 237280, Note_on_c, 10, 84, 105
5, 237280, Note_on_c, 10, 77, 105
5, 237332, Note_off_c, 10, 77, 64
5, 237332, Note_off_c, 10, 84, 64
5, 237360, Note_on_c, 10, 77, 105
5, 237360, Note_on_c, 10, 84, 105
5, 237412, Note_off_c, 10, 84, 64
5, 237412, Note_off_c, 10, 77, 64
5, 237440, Note_on_c, 10, 77, 105
5, 237440, Note_on_c, 10, 84, 105
5, 237492, Note_off_c, 10, 84, 64
5, 237492, Note_off_c, 10, 77, 64
5, 237520, Note_on_c, 10, 84, 105
5, 237520, Note_on_c, 10, 77, 105
5, 237572, Note_off_c, 10, 77, 64
5, 237572, Note_off_c, 10, 84, 64
5, 237600, Note_on_c, 10, 84, 105
5, 237600, Note_on_c, 10, 77, 105
5, 237652, Note_off_c, 10, 77, 64
5, 237652, Note_off_c, 10, 84, 64
5, 237680, Note_on_c, 10, 77, 105
5, 237680, Note_on_c, 10, 84, 105
5, 237732, Note_off_c, 10, 84, 64
5, 237732, Note_off_c, 10, 77, 64
5, 237760, Note_on_c, 10, 77, 105
5, 237760, Note_on_c, 10, 84, 105
5, 237812, Note_off_c, 10, 84, 64
5, 237812, Note_off_c, 10, 77, 64
5, 237840, Note_on_c, 10, 77, 105
5, 237840, Note_on_c, 10, 84, 105
5, 237892, Note_off_c, 10, 84, 64
5, 237892, Note_off_c, 10, 77, 64
5, 237920, Note_on_c, 10, 77, 105
5, 237920, Note_on_c, 10, 84, 105
5, 237972, Note_off_c, 10, 84, 64
5, 237972, Note_off_c, 10, 77, 64
5, 238000, Note_on_c, 10, 84, 105
5, 238000, Note_on_c, 10, 77, 105
5, 238052, Note_off_c, 10, 77, 64
5, 238052, Note_off_c, 10, 84, 64
5, 238080, Note_on_c, 10, 82, 105
5, 238236, Note_off_c, 10, 82, 64
5, 241920, Note_on_c, 10, 70, 105
5, 241992, Note_off_c, 10, 70, 64
5, 242040, Note_on_c, 10, 82, 116
5, 242112, Note_off_c, 10, 82, 64
5, 242160, Note_on_c, 10, 70, 116
5, 242232, Note_off_c, 10, 70, 64
5, 242280, Note_on_c, 10, 72, 116
5, 242352, Note_off_c, 10, 72, 64
5, 242400, Note_on_c, 10, 74, 116
5, 242472, Note_off_c, 10, 74, 64
5, 242520, Note_on_c, 10, 86, 116
5, 242592, Note_off_c, 10, 86, 64
5, 242640, Note_on_c, 10, 74, 116
5, 242712, Note_off_c, 10, 74, 64
5, 242760, Note_on_c, 10, 75, 116
5, 242832, Note_off_c, 10, 75, 64
5, 242880, Note_on_c, 10, 77, 116
5, 242952, Note_off_c, 10, 77, 64
5, 243000, Note_on_c, 10, 65, 116
5, 243072, Note_off_c, 10, 65, 64
5, 243120, Note_on_c, 10, 77, 116
5, 243192, Note_off_c, 10, 77, 64
5, 243240, Note_on_c, 10, 77, 116
5, 243312, Note_off_c, 10, 77, 64
5, 243360, Note_on_c, 10, 77, 116
5, 243432, Note_off_c, 10, 77, 64
5, 243480, Note_on_c, 10, 77, 116
5, 243552, Note_off_c, 10, 77, 64
5, 243600, Note_on_c, 10, 79, 116
5, 243672, Note_off_c, 10, 79, 64
5, 243720, Note_on_c, 10, 77, 116
5, 243792, Note_off_c, 10, 77, 64
5, 243840, Note_on_c, 10, 75, 116
5, 243912, Note_off_c, 10, 75, 64
5, 243960, Note_on_c, 10, 63, 116
5, 244032, Note_off_c, 10, 63, 64
5, 244080, Note_on_c, 10, 75, 116
5, 244152, Note_off_c, 10, 75, 64
5, 244200, Note_on_c, 10, 75, 116
5, 244272, Note_off_c, 10, 75, 64
5, 244320, Note_on_c, 10, 75, 116
5, 244392, Note_off_c, 10, 75, 64
5, 244440, Note_on_c, 10, 75, 116
5, 244512, Note_off_c, 10, 75, 64
5, 244560, Note_on_c, 10, 77, 116
5, 244632, Note_off_c, 10, 77, 64
5, 244680, Note_on_c, 10, 75, 116
5, 244752, Note_off_c, 10, 75, 64
5, 244800, Note_on_c, 10, 74, 116
5, 244872, Note_off_c, 10, 74, 64
5, 244920, Note_on_c, 10, 74, 116
5, 244992, Note_off_c, 10, 74, 64
5, 245040, Note_on_c, 10, 75, 116
5, 245112, Note_off_c, 10, 75, 64
5, 245160, Note_on_c, 10, 77, 116
5, 245232, Note_off_c, 10, 77, 64
5, 245280, Note_on_c, 10, 77, 116
5, 245400, Note_off_c, 10, 77, 64
5, 245400, Note_on_c, 10, 75, 116
5, 245472, Note_off_c, 10, 75, 64
5, 245520, Note_on_c, 10, 74, 116
5, 245592, Note_off_c, 10, 74, 64
5, 245640, Note_on_c, 10, 72, 116
5, 245712, Note_off_c, 10, 72, 64
5, 245760, Note_on_c, 10, 70, 116
5, 245812, Note_off_c, 10, 70, 64
5, 245840, Note_on_c, 10, 74, 116
5, 245892, Note_off_c, 10, 74, 64
5, 245920, Note_on_c, 10, 77, 116
5, 245972, Note_off_c, 10, 77, 64
5, 246000, Note_on_c, 10, 77, 116
5, 246052, Note_off_c, 10, 77, 64
5, 246080, Note_on_c, 10, 77, 116
5, 246132, Note_off_c, 10, 77, 64
5, 246160, Note_on_c, 10, 77, 116
5, 246212, Note_off_c, 10, 77, 64
5, 246240, Note_on_c, 10, 77, 116
5, 246292, Note_off_c, 10, 77, 64
5, 246320, Note_on_c, 10, 77, 116
5, 246372, Note_off_c, 10, 77, 64
5, 246400, Note_on_c, 10, 77, 116
5, 246452, Note_off_c, 10, 77, 64
5, 246480, Note_on_c, 10, 81, 116
5, 246532, Note_off_c, 10, 81, 64
5, 246560, Note_on_c, 10, 79, 116
5, 246612, Note_off_c, 10, 79, 64
5, 246640, Note_on_c, 10, 77, 116
5, 246692, Note_off_c, 10, 77, 64
5, 246720, Note_on_c, 10, 82, 116
5, 246772, Note_off_c, 10, 82, 64
5, 246800, Note_on_c, 10, 77, 116
5, 246852, Note_off_c, 10, 77, 64
5, 246880, Note_on_c, 10, 74, 116
5, 246932, Note_off_c, 10, 74, 64
5, 246960, Note_on_c, 10, 70, 116
5, 247012, Note_off_c, 10, 70, 64
5, 247040, Note_on_c, 10, 70, 116
5, 247092, Note_off_c, 10, 70, 64
5, 247120, Note_on_c, 10, 70, 116
5, 247172, Note_off_c, 10, 70, 64
5, 247200, Note_on_c, 10, 75, 116
5, 247252, Note_off_c, 10, 75, 64
5, 247280, Note_on_c, 10, 72, 116
5, 247332, Note_off_c, 10, 72, 64
5, 247360, Note_on_c, 10, 69, 116
5, 247412, Note_off_c, 10, 69, 64
5, 247440, Note_on_c, 10, 65, 116
5, 247492, Note_off_c, 10, 65, 64
5, 247520, Note_on_c, 10, 65, 116
5, 247572, Note_off_c, 10, 65, 64
5, 247600, Note_on_c, 10, 65, 116
5, 247652, Note_off_c, 10, 65, 64
5, 247680, Note_on_c, 10, 70, 116
5, 247732, Note_off_c, 10, 70, 64
5, 247760, Note_on_c, 10, 74, 116
5, 247812, Note_off_c, 10, 74, 64
5, 247840, Note_on_c, 10, 77, 116
5, 247892, Note_off_c, 10, 77, 64
5, 247920, Note_on_c, 10, 77, 116
5, 247972, Note_off_c, 10, 77, 64
5, 248000, Note_on_c, 10, 77, 116
5, 248052, Note_off_c, 10, 77, 64
5, 248080, Note_on_c, 10, 77, 116
5, 248132, Note_off_c, 10, 77, 64
5, 248160, Note_on_c, 10, 77, 116
5, 248212, Note_off_c, 10, 77, 64
5, 248240, Note_on_c, 10, 77, 116
5, 248292, Note_off_c, 10, 77, 64
5, 248320, Note_on_c, 10, 77, 116
5, 248372, Note_off_c, 10, 77, 64
5, 248400, Note_on_c, 10, 81, 116
5, 248452, Note_off_c, 10, 81, 64
5, 248480, Note_on_c, 10, 79, 116
5, 248532, Note_off_c, 10, 79, 64
5, 248560, Note_on_c, 10, 77, 116
5, 248612, Note_off_c, 10, 77, 64
5, 248640, Note_on_c, 10, 82, 116
5, 248692, Note_off_c, 10, 82, 64
5, 248720, Note_on_c, 10, 77, 116
5, 248772, Note_off_c, 10, 77, 64
5, 248800, Note_on_c, 10, 74, 116
5, 248852, Note_off_c, 10, 74, 64
5, 248880, Note_on_c, 10, 70, 116
5, 248932, Note_off_c, 10, 70, 64
5, 248960, Note_on_c, 10, 70, 116
5, 249012, Note_off_c, 10, 70, 64
5, 249040, Note_on_c, 10, 70, 116
5, 249092, Note_off_c, 10, 70, 64
5, 249120, Note_on_c, 10, 75, 116
5, 249172, Note_off_c, 10, 75, 64
5, 249200, Note_on_c, 10, 72, 116
5, 249252, Note_off_c, 10, 72, 64
5, 249280, Note_on_c, 10, 69, 116
5, 249332, Note_off_c, 10, 69, 64
5, 249360, Note_on_c, 10, 65, 116
5, 249412, Note_off_c, 10, 65, 64
5, 249440, Note_on_c, 10, 65, 116
5, 249492, Note_off_c, 10, 65, 64
5, 249520, Note_on_c, 10, 65, 116
5, 249572, Note_off_c, 10, 65, 64
5, 249600, Note_on_c, 10, 70, 105
5, 249652, Note_off_c, 10, 70, 64
5, 249680, Note_on_c, 10, 72, 105
5, 249732, Note_off_c, 10, 72, 64
5, 249760, Note_on_c, 10, 74, 105
5, 249812, Note_off_c, 10, 74, 64
5, 249840, Note_on_c, 10, 75, 105
5, 249892, Note_off_c, 10, 75, 64
5, 249920, Note_on_c, 10, 77, 105
5, 249972, Note_off_c, 10, 77, 64
5, 250000, Note_on_c, 10, 79, 105
5, 250052, Note_off_c, 10, 79, 64
5, 250080, Note_on_c, 10, 77, 105
5, 250132, Note_off_c, 10, 77, 64
5, 250160, Note_on_c, 10, 75, 105
5, 250212, Note_off_c, 10, 75, 64
5, 250240, Note_on_c, 10, 74, 105
5, 250292, Note_off_c, 10, 74, 64
5, 250320, Note_on_c, 10, 72, 105
5, 250372, Note_off_c, 10, 72, 64
5, 250400, Note_on_c, 10, 70, 105
5, 250452, Note_off_c, 10, 70, 64
5, 250480, Note_on_c, 10, 69, 105
5, 250532, Note_off_c, 10, 69, 64
5, 250560, Note_on_c, 10, 67, 105
5, 250612, Note_off_c, 10, 67, 64
5, 250640, Note_on_c, 10, 69, 105
5, 250692, Note_off_c, 10, 69, 64
5, 250720, Note_on_c, 10, 70, 105
5, 250772, Note_off_c, 10, 70, 64
5, 250800, Note_on_c, 10, 72, 105
5, 250852, Note_off_c, 10, 72, 64
5, 250880, Note_on_c, 10, 74, 105
5, 250932, Note_off_c, 10, 74, 64
5, 250960, Note_on_c, 10, 75, 105
5, 251012, Note_off_c, 10, 75, 64
5, 251040, Note_on_c, 10, 74, 105
5, 251092, Note_off_c, 10, 74, 64
5, 251120, Note_on_c, 10, 72, 105
5, 251172, Note_off_c, 10, 72, 64
5, 251200, Note_on_c, 10, 70, 105
5, 251252, Note_off_c, 10, 70, 64
5, 251280, Note_on_c, 10, 69, 105
5, 251332, Note_off_c, 10, 69, 64
5, 251360, Note_on_c, 10, 67, 105
5, 251412, Note_off_c, 10, 67, 64
5, 251440, Note_on_c, 10, 65, 105
5, 251492, Note_off_c, 10, 65, 64
5, 251520, Note_on_c, 10, 63, 105
5, 251637, Note_off_c, 10, 63, 64
5, 251700, Note_on_c, 10, 63, 105
5, 251739, Note_off_c, 10, 63, 64
5, 251760, Note_on_c, 10, 62, 105
5, 251877, Note_off_c, 10, 62, 64
5, 251940, Note_on_c, 10, 60, 105
5, 251979, Note_off_c, 10, 60, 64
5, 252000, Note_on_c, 10, 65, 105
5, 252156, Note_off_c, 10, 65, 64
5, 252240, Note_on_c, 10, 81, 105
5, 252240, Note_on_c, 10, 72, 105
5, 252240, Note_on_c, 10, 65, 105
5, 252396, Note_off_c, 10, 65, 64
5, 252396, Note_off_c, 10, 72, 64
5, 252396, Note_off_c, 10, 81, 64
5, 252480, Note_on_c, 10, 62, 105
5, 252480, Note_on_c, 10, 70, 105
5, 252480, Note_on_c, 10, 82, 105
5, 252636, Note_off_c, 10, 82, 64
5, 252636, Note_off_c, 10, 70, 64
5, 252636, Note_off_c, 10, 62, 64
5, 252720, Note_on_c, 10, 58, 105
5, 252772, Note_off_c, 10, 58, 64
5, 252800, Note_on_c, 10, 58, 105
5, 252852, Note_off_c, 10, 58, 64
5, 252880, Note_on_c, 10, 58, 105
5, 252932, Note_off_c, 10, 58, 64
5, 252960, Note_on_c, 10, 58, 105
5, 253012, Note_off_c, 10, 58, 64
5, 253040, Note_on_c, 10, 58, 105
5, 253092, Note_off_c, 10, 58, 64
5, 253120, Note_on_c, 10, 58, 105
5, 253172, Note_off_c, 10, 58, 64
5, 253200, Note_on_c, 10, 58, 105
5, 253252, Note_off_c, 10, 58, 64
5, 253280, Note_on_c, 10, 58, 105
5, 253332, Note_off_c, 10, 58, 64
5, 253360, Note_on_c, 10, 58, 105
5, 253412, Note_off_c, 10, 58, 64
5, 253440, Note_on_c, 10, 58, 105
5, 253572, Note_off_c, 10, 58, 64
5, 253680, Note_on_c, 10, 62, 105
5, 253812, Note_off_c, 10, 62, 64
5, 253920, Note_on_c, 10, 65, 105
5, 254052, Note_off_c, 10, 65, 64
5, 254400, Note_on_c, 10, 62, 58
5, 254517, Note_off_c, 10, 62, 64
5, 254580, Note_on_c, 10, 62, 58
5, 254619, Note_off_c, 10, 62, 64
5, 254640, Note_on_c, 10, 65, 58
5, 254757, Note_off_c, 10, 65, 64
5, 254820, Note_on_c, 10, 65, 58
5, 254859, Note_off_c, 10, 65, 64
5, 254880, Note_on_c, 10, 70, 58
5, 255012, Note_off_c, 10, 70, 64
5, 255360, Note_on_c, 10, 70, 105
5, 255477, Note_off_c, 10, 70, 64
5, 255540, Note_on_c, 10, 70, 105
5, 255579, Note_off_c, 10, 70, 64
5, 255600, Note_on_c, 10, 74, 105
5, 255717, Note_off_c, 10, 74, 64
5, 255780, Note_on_c, 10, 74, 105
5, 255819, Note_off_c, 10, 74, 64
5, 255840, Note_on_c, 10, 77, 105
5, 255957, Note_off_c, 10, 77, 64
5, 256020, Note_on_c, 10, 77, 105
5, 256059, Note_off_c, 10, 77, 64
5, 256080, Note_on_c, 10, 82, 105
5, 256197, Note_off_c, 10, 82, 64
5, 256260, Note_on_c, 10, 82, 105
5, 256299, Note_off_c, 10, 82, 64
5, 256320, Note_on_c, 10, 77, 105
5, 256437, Note_off_c, 10, 77, 64
5, 256500, Note_on_c, 10, 77, 105
5, 256539, Note_off_c, 10, 77, 64
5, 256560, Note_on_c, 10, 74, 105
5, 256677, Note_off_c, 10, 74, 64
5, 256740, Note_on_c, 10, 74, 105
5, 256779, Note_off_c, 10, 74, 64
5, 256800, Note_on_c, 10, 70, 105
5, 256956, Note_off_c, 10, 70, 64
5, 256956, End_track
6, 0, Start_track
6, 0, Program_c, 11, 48
6, 0, Control_c, 11, 7, 123
6, 0, Control_c, 11, 10, 40
6, 0, Control_c, 11, 91, 70
6, 480, Note_on_c, 11, 58, 120
6, 480, Note_on_c, 11, 65, 120
6, 480, Note_on_c, 11, 74, 120
6, 636, Note_off_c, 11, 74, 64
6, 636, Note_off_c, 11, 65, 64
6, 636, Note_off_c, 11, 58, 64
6, 720, Note_on_c, 11, 62, 70
6, 768, Note_off_c, 11, 62, 64
6, 800, Note_on_c, 11, 62, 70
6, 848, Note_off_c, 11, 62, 64
6, 880, Note_on_c, 11, 62, 70
6, 928, Note_off_c, 11, 62, 64
6, 960, Note_on_c, 11, 62, 70
6, 1008, Note_off_c, 11, 62, 64
6, 1040, Note_on_c, 11, 62, 70
6, 1088, Note_off_c, 11, 62, 64
6, 1120, Note_on_c, 11, 62, 70
6, 1168, Note_off_c, 11, 62, 64
6, 1200, Note_on_c, 11, 62, 70
6, 1248, Note_off_c, 11, 62, 64
6, 1280, Note_on_c, 11, 62, 70
6, 1328, Note_off_c, 11, 62, 64
6, 1360, Note_on_c, 11, 62, 70
6, 1408, Note_off_c, 11, 62, 64
6, 1440, Note_on_c, 11, 62, 70
6, 1506, Note_off_c, 11, 62, 64
6, 1680, Note_on_c, 11, 70, 70
6, 1746, Note_off_c, 11, 70, 64
6, 1920, Note_on_c, 11, 69, 70
6, 2112, Note_off_c, 11, 69, 64
6, 2400, Note_on_c, 11, 65, 110
6, 2400, Note_on_c, 11, 72, 110
6, 2400, Note_on_c, 11, 81, 110
6, 2556, Note_off_c, 11, 81, 64
6, 2556, Note_off_c, 11, 72, 64
6, 2556, Note_off_c, 11, 65, 64
6, 2640, Note_on_c, 11, 69, 70
6, 2688, Note_off_c, 11, 69, 64
6, 2720, Note_on_c, 11, 69, 70
6, 2768, Note_off_c, 11, 69, 64
6, 2800, Note_on_c, 11, 69, 70
6, 2848, Note_off_c, 11, 69, 64
6, 2880, Note_on_c, 11, 69, 70
6, 2928, Note_off_c, 11, 69, 64
6, 2960, Note_on_c, 11, 69, 70
6, 3008, Note_off_c, 11, 69, 64
6, 3040, Note_on_c, 11, 69, 70
6, 3088, Note_off_c, 11, 69, 64
6, 3120, Note_on_c, 11, 69, 70
6, 3168, Note_off_c, 11, 69, 64
6, 3200, Note_on_c, 11, 69, 70
6, 3248, Note_off_c, 11, 69, 64
6, 3280, Note_on_c, 11, 69, 70
6, 3328, Note_off_c, 11, 69, 64
6, 3360, Note_on_c, 11, 69, 70
6, 3426, Note_off_c, 11, 69, 64
6, 3600, Note_on_c, 11, 72, 70
6, 3666, Note_off_c, 11, 72, 64
6, 3840, Note_on_c, 11, 70, 70
6, 4032, Note_off_c, 11, 70, 64
6, 4320, Note_on_c, 11, 62, 70
6, 4368, Note_off_c, 11, 62, 64
6, 4400, Note_on_c, 11, 65, 70
6, 4448, Note_off_c, 11, 65, 64
6, 4480, Note_on_c, 11, 70, 70
6, 4528, Note_off_c, 11, 70, 64
6, 4560, Note_on_c, 11, 62, 70
6, 4608, Note_off_c, 11, 62, 64
6, 4640, Note_on_c, 11, 65, 70
6, 4688, Note_off_c, 11, 65, 64
6, 4720, Note_on_c, 11, 70, 70
6, 4768, Note_off_c, 11, 70, 64
6, 4800, Note_on_c, 11, 63, 70
6, 4848, Note_off_c, 11, 63, 64
6, 4880, Note_on_c, 11, 67, 70
6, 4928, Note_off_c, 11, 67, 64
6, 4960, Note_on_c, 11, 70, 70
6, 5008, Note_off_c, 11, 70, 64
6, 5040, Note_on_c, 11, 63, 70
6, 5088, Note_off_c, 11, 63, 64
6, 5120, Note_on_c, 11, 67, 70
6, 5168, Note_off_c, 11, 67, 64
6, 5200, Note_on_c, 11, 70, 70
6, 5248, Note_off_c, 11, 70, 64
6, 5280, Note_on_c, 11, 62, 70
6, 5328, Note_off_c, 11, 62, 64
6, 5360, Note_on_c, 11, 65, 70
6, 5408, Note_off_c, 11, 65, 64
6, 5440, Note_on_c, 11, 70, 70
6, 5488, Note_off_c, 11, 70, 64
6, 5520, Note_on_c, 11, 62, 70
6, 5568, Note_off_c, 11, 62, 64
6, 5600, Note_on_c, 11, 65, 70
6, 5648, Note_off_c, 11, 65, 64
6, 5680, Note_on_c, 11, 70, 70
6, 5728, Note_off_c, 11, 70, 64
6, 5760, Note_on_c, 11, 60, 70
6, 5808, Note_off_c, 11, 60, 64
6, 5840, Note_on_c, 11, 65, 70
6, 5888, Note_off_c, 11, 65, 64
6, 5920, Note_on_c, 11, 69, 70
6, 5968, Note_off_c, 11, 69, 64
6, 6000, Note_on_c, 11, 60, 70
6, 6048, Note_off_c, 11, 60, 64
6, 6080, Note_on_c, 11, 65, 70
6, 6128, Note_off_c, 11, 65, 64
6, 6160, Note_on_c, 11, 69, 70
6, 6208, Note_off_c, 11, 69, 64
6, 6240, Note_on_c, 11, 70, 70
6, 6420, Note_off_c, 11, 70, 64
6, 6420, Note_on_c, 11, 72, 70
6, 6480, Note_off_c, 11, 72, 64
6, 6480, Note_on_c, 11, 74, 70
6, 6660, Note_off_c, 11, 74, 64
6, 6660, Note_on_c, 11, 72, 70
6, 6708, Note_off_c, 11, 72, 64
6, 6720, Note_on_c, 11, 70, 70
6, 6772, Note_off_c, 11, 70, 64
6, 6800, Note_on_c, 11, 72, 70
6, 6852, Note_off_c, 11, 72, 64
6, 6880, Note_on_c, 11, 70, 70
6, 6932, Note_off_c, 11, 70, 64
6, 6960, Note_on_c, 11, 69, 70
6, 7012, Note_off_c, 11, 69, 64
6, 7040, Note_on_c, 11, 70, 70
6, 7092, Note_off_c, 11, 70, 64
6, 7120, Note_on_c, 11, 69, 70
6, 7172, Note_off_c, 11, 69, 64
6, 7200, Note_on_c, 11, 67, 70
6, 7266, Note_off_c, 11, 67, 64
6, 7440, Note_on_c, 11, 67, 70
6, 7506, Note_off_c, 11, 67, 64
6, 7680, Note_on_c, 11, 65, 58
6, 7872, Note_off_c, 11, 65, 64
6, 8160, Note_on_c, 11, 58, 98
6, 8160, Note_on_c, 11, 65, 98
6, 8160, Note_on_c, 11, 74, 98
6, 8316, Note_off_c, 11, 74, 64
6, 8316, Note_off_c, 11, 65, 64
6, 8316, Note_off_c, 11, 58, 64
6, 8400, Note_on_c, 11, 62, 58
6, 8448, Note_off_c, 11, 62, 64
6, 8480, Note_on_c, 11, 62, 58
6, 8528, Note_off_c, 11, 62, 64
6, 8560, Note_on_c, 11, 62, 58
6, 8608, Note_off_c, 11, 62, 64
6, 8640, Note_on_c, 11, 62, 58
6, 8688, Note_off_c, 11, 62, 64
6, 8720, Note_on_c, 11, 62, 58
6, 8768, Note_off_c, 11, 62, 64
6, 8800, Note_on_c, 11, 62, 58
6, 8848, Note_off_c, 11, 62, 64
6, 8880, Note_on_c, 11, 62, 58
6, 8928, Note_off_c, 11, 62, 64
6, 8960, Note_on_c, 11, 62, 58
6, 9008, Note_off_c, 11, 62, 64
6, 9040, Note_on_c, 11, 62, 58
6, 9088, Note_off_c, 11, 62, 64
6, 9120, Note_on_c, 11, 62, 58
6, 9186, Note_off_c, 11, 62, 64
6, 9360, Note_on_c, 11, 70, 58
6, 9426, Note_off_c, 11, 70, 64
6, 9600, Note_on_c, 11, 69, 58
6, 9792, Note_off_c, 11, 69, 64
6, 10080, Note_on_c, 11, 65, 98
6, 10080, Note_on_c, 11, 72, 98
6, 10080, Note_on_c, 11, 81, 98
6, 10236, Note_off_c, 11, 81, 64
6, 10236, Note_off_c, 11, 72, 64
6, 10236, Note_off_c, 11, 65, 64
6, 10320, Note_on_c, 11, 69, 58
6, 10368, Note_off_c, 11, 69, 64
6, 10400, Note_on_c, 11, 69, 58
6, 10448, Note_off_c, 11, 69, 64
6, 10480, Note_on_c, 11, 69, 58
6, 10528, Note_off_c, 11, 69, 64
6, 10560, Note_on_c, 11, 69, 58
6, 10608, Note_off_c, 11, 69, 64
6, 10640, Note_on_c, 11, 69, 58
6, 10688, Note_off_c, 11, 69, 64
6, 10720, Note_on_c, 11, 69, 58
6, 10768, Note_off_c, 11, 69, 64
6, 10800, Note_on_c, 11, 69, 58
6, 10848, Note_off_c, 11, 69, 64
6, 10880, Note_on_c, 11, 69, 58
6, 10928, Note_off_c, 11, 69, 64
6, 10960, Note_on_c, 11, 69, 58
6, 11008, Note_off_c, 11, 69, 64
6, 11040, Note_on_c, 11, 69, 58
6, 11106, Note_off_c, 11, 69, 64
6, 11280, Note_on_c, 11, 72, 58
6, 11346, Note_off_c, 11, 72, 64
6, 11520, Note_on_c, 11, 70, 58
6, 11712, Note_off_c, 11, 70, 64
6, 12000, Note_on_c, 11, 62, 70
6, 12048, Note_off_c, 11, 62, 64
6, 12080, Note_on_c, 11, 65, 70
6, 12128, Note_off_c, 11, 65, 64
6, 12160, Note_on_c, 11, 70, 70
6, 12208, Note_off_c, 11, 70, 64
6, 12240, Note_on_c, 11, 62, 70
6, 12288, Note_off_c, 11, 62, 64
6, 12320, Note_on_c, 11, 65, 70
6, 12368, Note_off_c, 11, 65, 64
6, 12400, Note_on_c, 11, 70, 70
6, 12448, Note_off_c, 11, 70, 64
6, 12480, Note_on_c, 11, 63, 70
6, 12528, Note_off_c, 11, 63, 64
6, 12560, Note_on_c, 11, 67, 70
6, 12608, Note_off_c, 11, 67, 64
6, 12640, Note_on_c, 11, 70, 70
6, 12688, Note_off_c, 11, 70, 64
6, 12720, Note_on_c, 11, 63, 70
6, 12768, Note_off_c, 11, 63, 64
6, 12800, Note_on_c, 11, 67, 70
6, 12848, Note_off_c, 11, 67, 64
6, 12880, Note_on_c, 11, 70, 70
6, 12928, Note_off_c, 11, 70, 64
6, 12960, Note_on_c, 11, 62, 70
6, 13008, Note_off_c, 11, 62, 64
6, 13040, Note_on_c, 11, 65, 70
6, 13088, Note_off_c, 11, 65, 64
6, 13120, Note_on_c, 11, 70, 70
6, 13168, Note_off_c, 11, 70, 64
6, 13200, Note_on_c, 11, 62, 70
6, 13248, Note_off_c, 11, 62, 64
6, 13280, Note_on_c, 11, 65, 70
6, 13328, Note_off_c, 11, 65, 64
6, 13360, Note_on_c, 11, 70, 70
6, 13408, Note_off_c, 11, 70, 64
6, 13440, Note_on_c, 11, 60, 70
6, 13488, Note_off_c, 11, 60, 64
6, 13520, Note_on_c, 11, 65, 70
6, 13568, Note_off_c, 11, 65, 64
6, 13600, Note_on_c, 11, 69, 70
6, 13648, Note_off_c, 11, 69, 64
6, 13680, Note_on_c, 11, 60, 70
6, 13728, Note_off_c, 11, 60, 64
6, 13760, Note_on_c, 11, 65, 70
6, 13808, Note_off_c, 11, 65, 64
6, 13840, Note_on_c, 11, 69, 70
6, 13888, Note_off_c, 11, 69, 64
6, 13920, Note_on_c, 11, 62, 70
6, 13968, Note_off_c, 11, 62, 64
6, 14000, Note_on_c, 11, 65, 70
6, 14048, Note_off_c, 11, 65, 64
6, 14080, Note_on_c, 11, 70, 70
6, 14128, Note_off_c, 11, 70, 64
6, 14160, Note_on_c, 11, 62, 70
6, 14208, Note_off_c, 11, 62, 64
6, 14240, Note_on_c, 11, 65, 70
6, 14288, Note_off_c, 11, 65, 64
6, 14320, Note_on_c, 11, 70, 70
6, 14368, Note_off_c, 11, 70, 64
6, 14400, Note_on_c, 11, 63, 70
6, 14448, Note_off_c, 11, 63, 64
6, 14480, Note_on_c, 11, 67, 70
6, 14528, Note_off_c, 11, 67, 64
6, 14560, Note_on_c, 11, 70, 70
6, 14608, Note_off_c, 11, 70, 64
6, 14640, Note_on_c, 11, 63, 70
6, 14688, Note_off_c, 11, 63, 64
6, 14720, Note_on_c, 11, 67, 70
6, 14768, Note_off_c, 11, 67, 64
6, 14800, Note_on_c, 11, 70, 70
6, 14848, Note_off_c, 11, 70, 64
6, 14880, Note_on_c, 11, 62, 70
6, 14928, Note_off_c, 11, 62, 64
6, 14960, Note_on_c, 11, 65, 70
6, 15008, Note_off_c, 11, 65, 64
6, 15040, Note_on_c, 11, 70, 70
6, 15088, Note_off_c, 11, 70, 64
6, 15120, Note_on_c, 11, 60, 70
6, 15168, Note_off_c, 11, 60, 64
6, 15200, Note_on_c, 11, 65, 70
6, 15248, Note_off_c, 11, 65, 64
6, 15280, Note_on_c, 11, 69, 70
6, 15328, Note_off_c, 11, 69, 64
6, 15360, Note_on_c, 11, 70, 70
6, 15360, Note_on_c, 11, 62, 70
6, 15552, Note_off_c, 11, 62, 64
6, 15552, Note_off_c, 11, 70, 64
6, 15600, Note_on_c, 11, 58, 92
6, 15664, Note_off_c, 11, 58, 64
6, 15680, Note_on_c, 11, 58, 92
6, 15744, Note_off_c, 11, 58, 64
6, 15760, Note_on_c, 11, 58, 92
6, 15824, Note_off_c, 11, 58, 64
6, 15840, Note_on_c, 11, 58, 92
6, 15904, Note_off_c, 11, 58, 64
6, 15920, Note_on_c, 11, 58, 92
6, 15984, Note_off_c, 11, 58, 64
6, 16000, Note_on_c, 11, 58, 92
6, 16064, Note_off_c, 11, 58, 64
6, 16080, Note_on_c, 11, 58, 92
6, 16144, Note_off_c, 11, 58, 64
6, 16160, Note_on_c, 11, 58, 92
6, 16224, Note_off_c, 11, 58, 64
6, 16240, Note_on_c, 11, 58, 92
6, 16304, Note_off_c, 11, 58, 64
6, 16320, Note_on_c, 11, 58, 92
6, 16452, Note_off_c, 11, 58, 64
6, 16560, Note_on_c, 11, 62, 92
6, 16692, Note_off_c, 11, 62, 64
6, 16800, Note_on_c, 11, 65, 92
6, 16932, Note_off_c, 11, 65, 64
6, 17280, Note_on_c, 11, 62, 58
6, 17397, Note_off_c, 11, 62, 64
6, 17460, Note_on_c, 11, 62, 58
6, 17499, Note_off_c, 11, 62, 64
6, 17520, Note_on_c, 11, 65, 58
6, 17637, Note_off_c, 11, 65, 64
6, 17700, Note_on_c, 11, 65, 58
6, 17739, Note_off_c, 11, 65, 64
6, 17760, Note_on_c, 11, 70, 58
6, 17892, Note_off_c, 11, 70, 64
6, 18240, Note_on_c, 11, 70, 92
6, 18357, Note_off_c, 11, 70, 64
6, 18420, Note_on_c, 11, 70, 92
6, 18459, Note_off_c, 11, 70, 64
6, 18480, Note_on_c, 11, 74, 92
6, 18597, Note_off_c, 11, 74, 64
6, 18660, Note_on_c, 11, 74, 92
6, 18699, Note_off_c, 11, 74, 64
6, 18720, Note_on_c, 11, 77, 92
6, 18837, Note_off_c, 11, 77, 64
6, 18900, Note_on_c, 11, 77, 92
6, 18939, Note_off_c, 11, 77, 64
6, 18960, Note_on_c, 11, 82, 92
6, 19077, Note_off_c, 11, 82, 64
6, 19140, Note_on_c, 11, 82, 92
6, 19179, Note_off_c, 11, 82, 64
6, 19200, Note_on_c, 11, 77, 92
6, 19317, Note_off_c, 11, 77, 64
6, 19380, Note_on_c, 11, 77, 92
6, 19419, Note_off_c, 11, 77, 64
6, 19440, Note_on_c, 11, 74, 92
6, 19557, Note_off_c, 11, 74, 64
6, 19620, Note_on_c, 11, 74, 92
6, 19659, Note_off_c, 11, 74, 64
6, 19680, Note_on_c, 11, 70, 92
6, 19872, Note_off_c, 11, 70, 64
6, 21840, Note_on_c, 11, 78, 70
6, 21888, Note_off_c, 11, 78, 64
6, 21920, Note_on_c, 11, 78, 70
6, 21968, Note_off_c, 11, 78, 64
6, 22000, Note_on_c, 11, 78, 70
6, 22048, Note_off_c, 11, 78, 64
6, 22080, Note_on_c, 11, 79, 70
6, 22128, Note_off_c, 11, 79, 64
6, 22160, Note_on_c, 11, 79, 70
6, 22208, Note_off_c, 11, 79, 64
6, 22240, Note_on_c, 11, 79, 70
6, 22288, Note_off_c, 11, 79, 64
6, 22320, Note_on_c, 11, 78, 70
6, 22368, Note_off_c, 11, 78, 64
6, 22400, Note_on_c, 11, 78, 70
6, 22448, Note_off_c, 11, 78, 64
6, 22480, Note_on_c, 11, 78, 70
6, 22528, Note_off_c, 11, 78, 64
6, 22560, Note_on_c, 11, 79, 70
6, 22608, Note_off_c, 11, 79, 64
6, 22640, Note_on_c, 11, 79, 70
6, 22688, Note_off_c, 11, 79, 64
6, 22720, Note_on_c, 11, 79, 70
6, 22768, Note_off_c, 11, 79, 64
6, 22800, Note_on_c, 11, 78, 70
6, 22848, Note_off_c, 11, 78, 64
6, 22880, Note_on_c, 11, 78, 70
6, 22928, Note_off_c, 11, 78, 64
6, 22960, Note_on_c, 11, 78, 70
6, 23008, Note_off_c, 11, 78, 64
6, 23040, Note_on_c, 11, 79, 70
6, 23232, Note_off_c, 11, 79, 64
6, 25680, Note_on_c, 11, 76, 70
6, 25728, Note_off_c, 11, 76, 64
6, 25760, Note_on_c, 11, 76, 70
6, 25808, Note_off_c, 11, 76, 64
6, 25840, Note_on_c, 11, 76, 70
6, 25888, Note_off_c, 11, 76, 64
6, 25920, Note_on_c, 11, 77, 70
6, 25968, Note_off_c, 11, 77, 64
6, 26000, Note_on_c, 11, 77, 70
6, 26048, Note_off_c, 11, 77, 64
6, 26080, Note_on_c, 11, 77, 70
6, 26128, Note_off_c, 11, 77, 64
6, 26160, Note_on_c, 11, 76, 70
6, 26208, Note_off_c, 11, 76, 64
6, 26240, Note_on_c, 11, 76, 70
6, 26288, Note_off_c, 11, 76, 64
6, 26320, Note_on_c, 11, 76, 70
6, 26368, Note_off_c, 11, 76, 64
6, 26400, Note_on_c, 11, 77, 70
6, 26448, Note_off_c, 11, 77, 64
6, 26480, Note_on_c, 11, 77, 70
6, 26528, Note_off_c, 11, 77, 64
6, 26560, Note_on_c, 11, 77, 70
6, 26608, Note_off_c, 11, 77, 64
6, 26640, Note_on_c, 11, 76, 70
6, 26688, Note_off_c, 11, 76, 64
6, 26720, Note_on_c, 11, 76, 70
6, 26768, Note_off_c, 11, 76, 64
6, 26800, Note_on_c, 11, 76, 70
6, 26848, Note_off_c, 11, 76, 64
6, 26880, Note_on_c, 11, 77, 70
6, 27072, Note_off_c, 11, 77, 64
6, 27840, Note_on_c, 11, 62, 58
6, 27912, Note_off_c, 11, 62, 64
6, 27960, Note_on_c, 11, 70, 58
6, 28032, Note_off_c, 11, 70, 64
6, 28080, Note_on_c, 11, 67, 58
6, 28152, Note_off_c, 11, 67, 64
6, 28200, Note_on_c, 11, 70, 58
6, 28272, Note_off_c, 11, 70, 64
6, 28320, Note_on_c, 11, 62, 58
6, 28392, Note_off_c, 11, 62, 64
6, 28440, Note_on_c, 11, 70, 58
6, 28512, Note_off_c, 11, 70, 64
6, 28560, Note_on_c, 11, 67, 58
6, 28632, Note_off_c, 11, 67, 64
6, 28680, Note_on_c, 11, 70, 58
6, 28752, Note_off_c, 11, 70, 64
6, 28800, Note_on_c, 11, 62, 58
6, 28872, Note_off_c, 11, 62, 64
6, 28920, Note_on_c, 11, 70, 58
6, 28992, Note_off_c, 11, 70, 64
6, 29040, Note_on_c, 11, 67, 58
6, 29112, Note_off_c, 11, 67, 64
6, 29160, Note_on_c, 11, 70, 58
6, 29232, Note_off_c, 11, 70, 64
6, 29280, Note_on_c, 11, 58, 58
6, 29352, Note_off_c, 11, 58, 64
6, 29400, Note_on_c, 11, 62, 58
6, 29472, Note_off_c, 11, 62, 64
6, 29520, Note_on_c, 11, 60, 58
6, 29592, Note_off_c, 11, 60, 64
6, 29640, Note_on_c, 11, 63, 58
6, 29712, Note_off_c, 11, 63, 64
6, 29760, Note_on_c, 11, 62, 58
6, 29832, Note_off_c, 11, 62, 64
6, 29880, Note_on_c, 11, 70, 58
6, 29952, Note_off_c, 11, 70, 64
6, 30000, Note_on_c, 11, 67, 58
6, 30072, Note_off_c, 11, 67, 64
6, 30120, Note_on_c, 11, 70, 58
6, 30192, Note_off_c, 11, 70, 64
6, 30240, Note_on_c, 11, 62, 58
6, 30312, Note_off_c, 11, 62, 64
6, 30360, Note_on_c, 11, 70, 58
6, 30432, Note_off_c, 11, 70, 64
6, 30480, Note_on_c, 11, 67, 58
6, 30552, Note_off_c, 11, 67, 64
6, 30600, Note_on_c, 11, 70, 58
6, 30672, Note_off_c, 11, 70, 64
6, 30720, Note_on_c, 11, 62, 58
6, 30792, Note_off_c, 11, 62, 64
6, 30840, Note_on_c, 11, 70, 58
6, 30912, Note_off_c, 11, 70, 64
6, 30960, Note_on_c, 11, 67, 58
6, 31032, Note_off_c, 11, 67, 64
6, 31080, Note_on_c, 11, 70, 58
6, 31152, Note_off_c, 11, 70, 64
6, 31200, Note_on_c, 11, 58, 58
6, 31272, Note_off_c, 11, 58, 64
6, 31320, Note_on_c, 11, 62, 58
6, 31392, Note_off_c, 11, 62, 64
6, 31440, Note_on_c, 11, 60, 58
6, 31512, Note_off_c, 11, 60, 64
6, 31560, Note_on_c, 11, 66, 58
6, 31632, Note_off_c, 11, 66, 64
6, 31680, Note_on_c, 11, 67, 58
6, 31872, Note_off_c, 11, 67, 64
6, 32160, Note_on_c, 11, 74, 58
6, 32238, Note_off_c, 11, 74, 64
6, 32280, Note_on_c, 11, 73, 58
6, 32358, Note_off_c, 11, 73, 64
6, 32400, Note_on_c, 11, 74, 58
6, 32478, Note_off_c, 11, 74, 64
6, 32520, Note_on_c, 11, 72, 58
6, 32598, Note_off_c, 11, 72, 64
6, 32640, Note_on_c, 11, 70, 58
6, 32718, Note_off_c, 11, 70, 64
6, 32760, Note_on_c, 11, 69, 58
6, 32838, Note_off_c, 11, 69, 64
6, 32880, Note_on_c, 11, 70, 58
6, 32958, Note_off_c, 11, 70, 64
6, 33000, Note_on_c, 11, 69, 58
6, 33078, Note_off_c, 11, 69, 64
6, 33120, Note_on_c, 11, 67, 58
6, 33198, Note_off_c, 11, 67, 64
6, 33240, Note_on_c, 11, 66, 58
6, 33318, Note_off_c, 11, 66, 64
6, 33360, Note_on_c, 11, 67, 58
6, 33438, Note_off_c, 11, 67, 64
6, 33480, Note_on_c, 11, 65, 58
6, 33558, Note_off_c, 11, 65, 64
6, 33600, Note_on_c, 11, 64, 105
6, 33744, Note_off_c, 11, 64, 64
6, 33840, Note_on_c, 11, 64, 105
6, 33912, Note_off_c, 11, 64, 64
6, 33960, Note_on_c, 11, 65, 105
6, 34032, Note_off_c, 11, 65, 64
6, 34080, Note_on_c, 11, 67, 105
6, 34224, Note_off_c, 11, 67, 64
6, 34320, Note_on_c, 11, 67, 105
6, 34392, Note_off_c, 11, 67, 64
6, 34440, Note_on_c, 11, 69, 105
6, 34512, Note_off_c, 11, 69, 64
6, 34560, Note_on_c, 11, 70, 105
6, 34704, Note_off_c, 11, 70, 64
6, 34800, Note_on_c, 11, 76, 105
6, 34872, Note_off_c, 11, 76, 64
6, 34920, Note_on_c, 11, 77, 105
6, 34992, Note_off_c, 11, 77, 64
6, 35040, Note_on_c, 11, 79, 105
6, 35184, Note_off_c, 11, 79, 64
6, 35280, Note_on_c, 11, 79, 105
6, 35352, Note_off_c, 11, 79, 64
6, 35400, Note_on_c, 11, 79, 105
6, 35472, Note_off_c, 11, 79, 64
6, 35520, Note_on_c, 11, 79, 105
6, 35736, Note_off_c, 11, 79, 64
6, 35880, Note_on_c, 11, 78, 105
6, 35952, Note_off_c, 11, 78, 64
6, 36000, Note_on_c, 11, 79, 105
6, 36216, Note_off_c, 11, 79, 64
6, 36360, Note_on_c, 11, 78, 105
6, 36432, Note_off_c, 11, 78, 64
6, 36480, Note_on_c, 11, 79, 105
6, 36552, Note_off_c, 11, 79, 64
6, 36600, Note_on_c, 11, 78, 105
6, 36672, Note_off_c, 11, 78, 64
6, 36720, Note_on_c, 11, 79, 105
6, 36792, Note_off_c, 11, 79, 64
6, 36840, Note_on_c, 11, 78, 105
6, 36912, Note_off_c, 11, 78, 64
6, 36960, Note_on_c, 11, 79, 105
6, 37032, Note_off_c, 11, 79, 64
6, 37080, Note_on_c, 11, 78, 105
6, 37152, Note_off_c, 11, 78, 64
6, 37200, Note_on_c, 11, 79, 105
6, 37272, Note_off_c, 11, 79, 64
6, 37320, Note_on_c, 11, 78, 105
6, 37392, Note_off_c, 11, 78, 64
6, 37440, Note_on_c, 11, 79, 105
6, 37488, Note_off_c, 11, 79, 64
6, 37520, Note_on_c, 11, 81, 105
6, 37568, Note_off_c, 11, 81, 64
6, 37600, Note_on_c, 11, 79, 105
6, 37648, Note_off_c, 11, 79, 64
6, 37680, Note_on_c, 11, 77, 70
6, 37728, Note_off_c, 11, 77, 64
6, 37760, Note_on_c, 11, 79, 70
6, 37808, Note_off_c, 11, 79, 64
6, 37840, Note_on_c, 11, 77, 70
6, 37888, Note_off_c, 11, 77, 64
6, 37920, Note_on_c, 11, 76, 70
6, 37968, Note_off_c, 11, 76, 64
6, 38000, Note_on_c, 11, 77, 70
6, 38048, Note_off_c, 11, 77, 64
6, 38080, Note_on_c, 11, 76, 70
6, 38128, Note_off_c, 11, 76, 64
6, 38160, Note_on_c, 11, 74, 70
6, 38208, Note_off_c, 11, 74, 64
6, 38240, Note_on_c, 11, 76, 70
6, 38288, Note_off_c, 11, 76, 64
6, 38320, Note_on_c, 11, 74, 70
6, 38368, Note_off_c, 11, 74, 64
6, 38400, Note_on_c, 11, 72, 70
6, 38448, Note_off_c, 11, 72, 64
6, 38480, Note_on_c, 11, 74, 70
6, 38528, Note_off_c, 11, 74, 64
6, 38560, Note_on_c, 11, 72, 70
6, 38608, Note_off_c, 11, 72, 64
6, 38640, Note_on_c, 11, 70, 70
6, 38688, Note_off_c, 11, 70, 64
6, 38720, Note_on_c, 11, 72, 70
6, 38768, Note_off_c, 11, 72, 64
6, 38800, Note_on_c, 11, 70, 70
6, 38848, Note_off_c, 11, 70, 64
6, 38880, Note_on_c, 11, 69, 70
6, 38928, Note_off_c, 11, 69, 64
6, 38960, Note_on_c, 11, 70, 70
6, 39008, Note_off_c, 11, 70, 64
6, 39040, Note_on_c, 11, 69, 70
6, 39088, Note_off_c, 11, 69, 64
6, 39120, Note_on_c, 11, 67, 70
6, 39168, Note_off_c, 11, 67, 64
6, 39200, Note_on_c, 11, 69, 70
6, 39248, Note_off_c, 11, 69, 64
6, 39280, Note_on_c, 11, 67, 70
6, 39328, Note_off_c, 11, 67, 64
6, 39360, Note_on_c, 11, 65, 58
6, 39432, Note_off_c, 11, 65, 64
6, 39480, Note_on_c, 11, 69, 58
6, 39552, Note_off_c, 11, 69, 64
6, 39600, Note_on_c, 11, 65, 58
6, 39672, Note_off_c, 11, 65, 64
6, 39720, Note_on_c, 11, 69, 58
6, 39792, Note_off_c, 11, 69, 64
6, 39840, Note_on_c, 11, 60, 58
6, 39912, Note_off_c, 11, 60, 64
6, 39960, Note_on_c, 11, 69, 58
6, 40032, Note_off_c, 11, 69, 64
6, 40080, Note_on_c, 11, 65, 58
6, 40152, Note_off_c, 11, 65, 64
6, 40200, Note_on_c, 11, 69, 58
6, 40272, Note_off_c, 11, 69, 64
6, 40320, Note_on_c, 11, 60, 58
6, 40392, Note_off_c, 11, 60, 64
6, 40440, Note_on_c, 11, 69, 58
6, 40512, Note_off_c, 11, 69, 64
6, 40560, Note_on_c, 11, 65, 58
6, 40632, Note_off_c, 11, 65, 64
6, 40680, Note_on_c, 11, 69, 58
6, 40752, Note_off_c, 11, 69, 64
6, 40800, Note_on_c, 11, 60, 58
6, 40872, Note_off_c, 11, 60, 64
6, 40920, Note_on_c, 11, 69, 58
6, 40992, Note_off_c, 11, 69, 64
6, 41040, Note_on_c, 11, 65, 58
6, 41112, Note_off_c, 11, 65, 64
6, 41160, Note_on_c, 11, 69, 58
6, 41232, Note_off_c, 11, 69, 64
6, 41280, Note_on_c, 11, 60, 58
6, 41352, Note_off_c, 11, 60, 64
6, 41400, Note_on_c, 11, 67, 58
6, 41472, Note_off_c, 11, 67, 64
6, 41520, Note_on_c, 11, 64, 58
6, 41592, Note_off_c, 11, 64, 64
6, 41640, Note_on_c, 11, 67, 58
6, 41712, Note_off_c, 11, 67, 64
6, 41760, Note_on_c, 11, 60, 58
6, 41832, Note_off_c, 11, 60, 64
6, 41880, Note_on_c, 11, 67, 58
6, 41952, Note_off_c, 11, 67, 64
6, 42000, Note_on_c, 11, 64, 58
6, 42072, Note_off_c, 11, 64, 64
6, 42120, Note_on_c, 11, 67, 58
6, 42192, Note_off_c, 11, 67, 64
6, 42240, Note_on_c, 11, 60, 58
6, 42312, Note_off_c, 11, 60, 64
6, 42360, Note_on_c, 11, 67, 58
6, 42432, Note_off_c, 11, 67, 64
6, 42480, Note_on_c, 11, 64, 58
6, 42552, Note_off_c, 11, 64, 64
6, 42600, Note_on_c, 11, 67, 58
6, 42672, Note_off_c, 11, 67, 64
6, 42720, Note_on_c, 11, 60, 58
6, 42792, Note_off_c, 11, 60, 64
6, 42840, Note_on_c, 11, 67, 58
6, 42912, Note_off_c, 11, 67, 64
6, 42960, Note_on_c, 11, 64, 58
6, 43032, Note_off_c, 11, 64, 64
6, 43080, Note_on_c, 11, 67, 58
6, 43152, Note_off_c, 11, 67, 64
6, 43200, Note_on_c, 11, 60, 58
6, 43272, Note_off_c, 11, 60, 64
6, 43320, Note_on_c, 11, 69, 58
6, 43392, Note_off_c, 11, 69, 64
6, 43440, Note_on_c, 11, 65, 58
6, 43512, Note_off_c, 11, 65, 64
6, 43560, Note_on_c, 11, 69, 58
6, 43632, Note_off_c, 11, 69, 64
6, 43680, Note_on_c, 11, 60, 70
6, 43860, Note_off_c, 11, 60, 64
6, 43860, Note_on_c, 11, 62, 70
6, 43920, Note_off_c, 11, 62, 64
6, 43920, Note_on_c, 11, 64, 70
6, 44100, Note_off_c, 11, 64, 64
6, 44100, Note_on_c, 11, 65, 70
6, 44148, Note_off_c, 11, 65, 64
6, 44160, Note_on_c, 11, 64, 70
6, 44280, Note_off_c, 11, 64, 64
6, 44280, Note_on_c, 11, 62, 70
6, 44400, Note_off_c, 11, 62, 64
6, 44400, Note_on_c, 11, 60, 70
6, 44592, Note_off_c, 11, 60, 64
6, 44640, Note_on_c, 11, 60, 70
6, 44820, Note_off_c, 11, 60, 64
6, 44820, Note_on_c, 11, 65, 70
6, 44880, Note_off_c, 11, 65, 64
6, 44880, Note_on_c, 11, 69, 70
6, 45060, Note_off_c, 11, 69, 64
6, 45060, Note_on_c, 11, 72, 70
6, 45111, Note_off_c, 11, 72, 64
6, 45120, Note_on_c, 11, 72, 70
6, 45240, Note_off_c, 11, 72, 64
6, 45240, Note_on_c, 11, 70, 70
6, 45360, Note_off_c, 11, 70, 64
6, 45360, Note_on_c, 11, 69, 70
6, 45552, Note_off_c, 11, 69, 64
6, 45600, Note_on_c, 11, 74, 70
6, 45720, Note_off_c, 11, 74, 64
6, 45720, Note_on_c, 11, 72, 70
6, 45840, Note_off_c, 11, 72, 64
6, 45840, Note_on_c, 11, 70, 70
6, 45960, Note_off_c, 11, 70, 64
6, 45960, Note_on_c, 11, 69, 70
6, 46056, Note_off_c, 11, 69, 64
6, 46080, Note_on_c, 11, 69, 70
6, 46140, Note_off_c, 11, 69, 64
6, 46140, Note_on_c, 11, 67, 70
6, 46284, Note_off_c, 11, 67, 64
6, 46320, Note_on_c, 11, 67, 70
6, 46512, Note_off_c, 11, 67, 64
6, 46560, Note_on_c, 11, 67, 70
6, 46752, Note_off_c, 11, 67, 64
6, 46800, Note_on_c, 11, 67, 70
6, 46992, Note_off_c, 11, 67, 64
6, 47040, Note_on_c, 11, 67, 70
6, 47232, Note_off_c, 11, 67, 64
6, 47520, Note_on_c, 11, 65, 58
6, 47572, Note_off_c, 11, 65, 64
6, 47600, Note_on_c, 11, 69, 58
6, 47652, Note_off_c, 11, 69, 64
6, 47680, Note_on_c, 11, 69, 58
6, 47732, Note_off_c, 11, 69, 64
6, 47760, Note_on_c, 11, 69, 58
6, 47812, Note_off_c, 11, 69, 64
6, 47840, Note_on_c, 11, 69, 58
6, 47892, Note_off_c, 11, 69, 64
6, 47920, Note_on_c, 11, 69, 58
6, 47972, Note_off_c, 11, 69, 64
6, 48000, Note_on_c, 11, 65, 58
6, 48052, Note_off_c, 11, 65, 64
6, 48080, Note_on_c, 11, 69, 58
6, 48132, Note_off_c, 11, 69, 64
6, 48160, Note_on_c, 11, 69, 58
6, 48212, Note_off_c, 11, 69, 64
6, 48240, Note_on_c, 11, 69, 58
6, 48292, Note_off_c, 11, 69, 64
6, 48320, Note_on_c, 11, 69, 58
6, 48372, Note_off_c, 11, 69, 64
6, 48400, Note_on_c, 11, 69, 58
6, 48452, Note_off_c, 11, 69, 64
6, 48480, Note_on_c, 11, 65, 58
6, 48532, Note_off_c, 11, 65, 64
6, 48560, Note_on_c, 11, 69, 58
6, 48612, Note_off_c, 11, 69, 64
6, 48640, Note_on_c, 11, 69, 58
6, 48692, Note_off_c, 11, 69, 64
6, 48720, Note_on_c, 11, 69, 58
6, 48772, Note_off_c, 11, 69, 64
6, 48800, Note_on_c, 11, 69, 58
6, 48852, Note_off_c, 11, 69, 64
6, 48880, Note_on_c, 11, 69, 58
6, 48932, Note_off_c, 11, 69, 64
6, 48960, Note_on_c, 11, 64, 58
6, 49012, Note_off_c, 11, 64, 64
6, 49040, Note_on_c, 11, 67, 58
6, 49092, Note_off_c, 11, 67, 64
6, 49120, Note_on_c, 11, 67, 58
6, 49172, Note_off_c, 11, 67, 64
6, 49200, Note_on_c, 11, 67, 58
6, 49252, Note_off_c, 11, 67, 64
6, 49280, Note_on_c, 11, 67, 58
6, 49332, Note_off_c, 11, 67, 64
6, 49360, Note_on_c, 11, 67, 58
6, 49412, Note_off_c, 11, 67, 64
6, 49440, Note_on_c, 11, 64, 58
6, 49492, Note_off_c, 11, 64, 64
6, 49520, Note_on_c, 11, 67, 58
6, 49572, Note_off_c, 11, 67, 64
6, 49600, Note_on_c, 11, 67, 58
6, 49652, Note_off_c, 11, 67, 64
6, 49680, Note_on_c, 11, 67, 58
6, 49732, Note_off_c, 11, 67, 64
6, 49760, Note_on_c, 11, 67, 58
6, 49812, Note_off_c, 11, 67, 64
6, 49840, Note_on_c, 11, 67, 58
6, 49892, Note_off_c, 11, 67, 64
6, 49920, Note_on_c, 11, 64, 58
6, 49972, Note_off_c, 11, 64, 64
6, 50000, Note_on_c, 11, 67, 58
6, 50052, Note_off_c, 11, 67, 64
6, 50080, Note_on_c, 11, 67, 58
6, 50132, Note_off_c, 11, 67, 64
6, 50160, Note_on_c, 11, 67, 58
6, 50212, Note_off_c, 11, 67, 64
6, 50240, Note_on_c, 11, 67, 58
6, 50292, Note_off_c, 11, 67, 64
6, 50320, Note_on_c, 11, 67, 58
6, 50372, Note_off_c, 11, 67, 64
6, 50400, Note_on_c, 11, 64, 58
6, 50452, Note_off_c, 11, 64, 64
6, 50480, Note_on_c, 11, 67, 58
6, 50532, Note_off_c, 11, 67, 64
6, 50560, Note_on_c, 11, 67, 58
6, 50612, Note_off_c, 11, 67, 64
6, 50640, Note_on_c, 11, 67, 58
6, 50692, Note_off_c, 11, 67, 64
6, 50720, Note_on_c, 11, 67, 58
6, 50772, Note_off_c, 11, 67, 64
6, 50800, Note_on_c, 11, 67, 58
6, 50852, Note_off_c, 11, 67, 64
6, 50880, Note_on_c, 11, 65, 58
6, 50932, Note_off_c, 11, 65, 64
6, 50960, Note_on_c, 11, 69, 58
6, 51012, Note_off_c, 11, 69, 64
6, 51040, Note_on_c, 11, 69, 58
6, 51092, Note_off_c, 11, 69, 64
6, 51120, Note_on_c, 11, 69, 58
6, 51172, Note_off_c, 11, 69, 64
6, 51200, Note_on_c, 11, 69, 58
6, 51252, Note_off_c, 11, 69, 64
6, 51280, Note_on_c, 11, 69, 58
6, 51332, Note_off_c, 11, 69, 64
6, 51360, Note_on_c, 11, 60, 58
6, 51540, Note_off_c, 11, 60, 64
6, 51540, Note_on_c, 11, 62, 58
6, 51600, Note_off_c, 11, 62, 64
6, 51600, Note_on_c, 11, 64, 58
6, 51780, Note_off_c, 11, 64, 64
6, 51780, Note_on_c, 11, 65, 58
6, 51828, Note_off_c, 11, 65, 64
6, 51840, Note_on_c, 11, 64, 58
6, 51960, Note_off_c, 11, 64, 64
6, 51960, Note_on_c, 11, 62, 58
6, 52080, Note_off_c, 11, 62, 64
6, 52080, Note_on_c, 11, 60, 58
6, 52272, Note_off_c, 11, 60, 64
6, 52320, Note_on_c, 11, 60, 58
6, 52500, Note_off_c, 11, 60, 64
6, 52500, Note_on_c, 11, 65, 58
6, 52560, Note_off_c, 11, 65, 64
6, 52560, Note_on_c, 11, 69, 58
6, 52740, Note_off_c, 11, 69, 64
6, 52740, Note_on_c, 11, 72, 58
6, 52788, Note_off_c, 11, 72, 64
6, 52800, Note_on_c, 11, 72, 58
6, 52920, Note_off_c, 11, 72, 64
6, 52920, Note_on_c, 11, 70, 58
6, 53040, Note_off_c, 11, 70, 64
6, 53040, Note_on_c, 11, 69, 58
6, 53232, Note_off_c, 11, 69, 64
6, 53280, Note_on_c, 11, 74, 58
6, 53400, Note_off_c, 11, 74, 64
6, 53400, Note_on_c, 11, 72, 58
6, 53520, Note_off_c, 11, 72, 64
6, 53520, Note_on_c, 11, 70, 58
6, 53640, Note_off_c, 11, 70, 64
6, 53640, Note_on_c, 11, 69, 58
6, 53736, Note_off_c, 11, 69, 64
6, 53760, Note_on_c, 11, 66, 58
6, 53880, Note_off_c, 11, 66, 64
6, 53880, Note_on_c, 11, 67, 58
6, 54000, Note_off_c, 11, 67, 64
6, 54000, Note_on_c, 11, 69, 58
6, 54120, Note_off_c, 11, 69, 64
6, 54120, Note_on_c, 11, 70, 58
6, 54216, Note_off_c, 11, 70, 64
6, 54240, Note_on_c, 11, 65, 58
6, 54480, Note_off_c, 11, 65, 64
6, 54480, Note_on_c, 11, 69, 58
6, 54540, Note_off_c, 11, 69, 64
6, 54540, Note_on_c, 11, 67, 58
6, 54684, Note_off_c, 11, 67, 64
6, 54720, Note_on_c, 11, 65, 58
6, 54876, Note_off_c, 11, 65, 64
6, 54960, Note_on_c, 11, 60, 105
6, 55012, Note_off_c, 11, 60, 64
6, 55040, Note_on_c, 11, 60, 105
6, 55092, Note_off_c, 11, 60, 64
6, 55120, Note_on_c, 11, 60, 105
6, 55172, Note_off_c, 11, 60, 64
6, 55200, Note_on_c, 11, 60, 105
6, 55252, Note_off_c, 11, 60, 64
6, 55280, Note_on_c, 11, 60, 105
6, 55332, Note_off_c, 11, 60, 64
6, 55360, Note_on_c, 11, 60, 105
6, 55412, Note_off_c, 11, 60, 64
6, 55440, Note_on_c, 11, 60, 105
6, 55492, Note_off_c, 11, 60, 64
6, 55520, Note_on_c, 11, 60, 105
6, 55572, Note_off_c, 11, 60, 64
6, 55600, Note_on_c, 11, 60, 105
6, 55652, Note_off_c, 11, 60, 64
6, 55680, Note_on_c, 11, 60, 105
6, 55732, Note_off_c, 11, 60, 64
6, 55760, Note_on_c, 11, 60, 105
6, 55812, Note_off_c, 11, 60, 64
6, 55840, Note_on_c, 11, 60, 105
6, 55892, Note_off_c, 11, 60, 64
6, 55920, Note_on_c, 11, 65, 105
6, 55972, Note_off_c, 11, 65, 64
6, 56000, Note_on_c, 11, 65, 105
6, 56052, Note_off_c, 11, 65, 64
6, 56080, Note_on_c, 11, 65, 105
6, 56132, Note_off_c, 11, 65, 64
6, 56160, Note_on_c, 11, 67, 105
6, 56212, Note_off_c, 11, 67, 64
6, 56240, Note_on_c, 11, 67, 105
6, 56292, Note_off_c, 11, 67, 64
6, 56320, Note_on_c, 11, 67, 105
6, 56372, Note_off_c, 11, 67, 64
6, 56400, Note_on_c, 11, 69, 105
6, 56452, Note_off_c, 11, 69, 64
6, 56480, Note_on_c, 11, 69, 105
6, 56532, Note_off_c, 11, 69, 64
6, 56560, Note_on_c, 11, 69, 105
6, 56612, Note_off_c, 11, 69, 64
6, 56640, Note_on_c, 11, 70, 105
6, 56692, Note_off_c, 11, 70, 64
6, 56720, Note_on_c, 11, 70, 105
6, 56772, Note_off_c, 11, 70, 64
6, 56800, Note_on_c, 11, 70, 105
6, 56852, Note_off_c, 11, 70, 64
6, 56880, Note_on_c, 11, 74, 105
6, 56932, Note_off_c, 11, 74, 64
6, 56960, Note_on_c, 11, 74, 105
6, 57012, Note_off_c, 11, 74, 64
6, 57040, Note_on_c, 11, 74, 105
6, 57092, Note_off_c, 11, 74, 64
6, 57120, Note_on_c, 11, 74, 105
6, 57172, Note_off_c, 11, 74, 64
6, 57200, Note_on_c, 11, 74, 105
6, 57252, Note_off_c, 11, 74, 64
6, 57280, Note_on_c, 11, 74, 105
6, 57332, Note_off_c, 11, 74, 64
6, 57360, Note_on_c, 11, 74, 105
6, 57412, Note_off_c, 11, 74, 64
6, 57440, Note_on_c, 11, 74, 105
6, 57492, Note_off_c, 11, 74, 64
6, 57520, Note_on_c, 11, 74, 105
6, 57572, Note_off_c, 11, 74, 64
6, 57600, Note_on_c, 11, 72, 105
6, 57652, Note_off_c, 11, 72, 64
6, 57680, Note_on_c, 11, 72, 105
6, 57732, Note_off_c, 11, 72, 64
6, 57760, Note_on_c, 11, 72, 105
6, 57812, Note_off_c, 11, 72, 64
6, 57840, Note_on_c, 11, 69, 105
6, 57892, Note_off_c, 11, 69, 64
6, 57920, Note_on_c, 11, 69, 105
6, 57972, Note_off_c, 11, 69, 64
6, 58000, Note_on_c, 11, 69, 105
6, 58052, Note_off_c, 11, 69, 64
6, 58080, Note_on_c, 11, 67, 105
6, 58132, Note_off_c, 11, 67, 64
6, 58160, Note_on_c, 11, 67, 105
6, 58212, Note_off_c, 11, 67, 64
6, 58240, Note_on_c, 11, 67, 105
6, 58292, Note_off_c, 11, 67, 64
6, 58320, Note_on_c, 11, 70, 105
6, 58372, Note_off_c, 11, 70, 64
6, 58400, Note_on_c, 11, 70, 105
6, 58452, Note_off_c, 11, 70, 64
6, 58480, Note_on_c, 11, 70, 105
6, 58532, Note_off_c, 11, 70, 64
6, 58560, Note_on_c, 11, 69, 92
6, 58716, Note_off_c, 11, 69, 64
6, 58800, Note_on_c, 11, 60, 105
6, 58852, Note_off_c, 11, 60, 64
6, 58880, Note_on_c, 11, 60, 105
6, 58932, Note_off_c, 11, 60, 64
6, 58960, Note_on_c, 11, 60, 105
6, 59012, Note_off_c, 11, 60, 64
6, 59040, Note_on_c, 11, 60, 105
6, 59092, Note_off_c, 11, 60, 64
6, 59120, Note_on_c, 11, 60, 105
6, 59172, Note_off_c, 11, 60, 64
6, 59200, Note_on_c, 11, 60, 105
6, 59252, Note_off_c, 11, 60, 64
6, 59280, Note_on_c, 11, 60, 105
6, 59332, Note_off_c, 11, 60, 64
6, 59360, Note_on_c, 11, 60, 105
6, 59412, Note_off_c, 11, 60, 64
6, 59440, Note_on_c, 11, 60, 105
6, 59492, Note_off_c, 11, 60, 64
6, 59520, Note_on_c, 11, 60, 105
6, 59572, Note_off_c, 11, 60, 64
6, 59600, Note_on_c, 11, 60, 105
6, 59652, Note_off_c, 11, 60, 64
6, 59680, Note_on_c, 11, 60, 105
6, 59732, Note_off_c, 11, 60, 64
6, 59760, Note_on_c, 11, 65, 105
6, 59812, Note_off_c, 11, 65, 64
6, 59840, Note_on_c, 11, 65, 105
6, 59892, Note_off_c, 11, 65, 64
6, 59920, Note_on_c, 11, 65, 105
6, 59972, Note_off_c, 11, 65, 64
6, 60000, Note_on_c, 11, 67, 105
6, 60052, Note_off_c, 11, 67, 64
6, 60080, Note_on_c, 11, 67, 105
6, 60132, Note_off_c, 11, 67, 64
6, 60160, Note_on_c, 11, 67, 105
6, 60212, Note_off_c, 11, 67, 64
6, 60240, Note_on_c, 11, 69, 105
6, 60292, Note_off_c, 11, 69, 64
6, 60320, Note_on_c, 11, 69, 105
6, 60372, Note_off_c, 11, 69, 64
6, 60400, Note_on_c, 11, 69, 105
6, 60452, Note_off_c, 11, 69, 64
6, 60480, Note_on_c, 11, 70, 105
6, 60532, Note_off_c, 11, 70, 64
6, 60560, Note_on_c, 11, 70, 105
6, 60612, Note_off_c, 11, 70, 64
6, 60640, Note_on_c, 11, 70, 105
6, 60692, Note_off_c, 11, 70, 64
6, 60720, Note_on_c, 11, 74, 105
6, 60772, Note_off_c, 11, 74, 64
6, 60800, Note_on_c, 11, 74, 105
6, 60852, Note_off_c, 11, 74, 64
6, 60880, Note_on_c, 11, 74, 105
6, 60932, Note_off_c, 11, 74, 64
6, 60960, Note_on_c, 11, 74, 105
6, 61012, Note_off_c, 11, 74, 64
6, 61040, Note_on_c, 11, 74, 105
6, 61092, Note_off_c, 11, 74, 64
6, 61120, Note_on_c, 11, 74, 105
6, 61172, Note_off_c, 11, 74, 64
6, 61200, Note_on_c, 11, 74, 105
6, 61252, Note_off_c, 11, 74, 64
6, 61280, Note_on_c, 11, 74, 105
6, 61332, Note_off_c, 11, 74, 64
6, 61360, Note_on_c, 11, 74, 105
6, 61412, Note_off_c, 11, 74, 64
6, 61440, Note_on_c, 11, 72, 105
6, 61492, Note_off_c, 11, 72, 64
6, 61520, Note_on_c, 11, 72, 105
6, 61572, Note_off_c, 11, 72, 64
6, 61600, Note_on_c, 11, 72, 105
6, 61652, Note_off_c, 11, 72, 64
6, 61680, Note_on_c, 11, 69, 105
6, 61732, Note_off_c, 11, 69, 64
6, 61760, Note_on_c, 11, 69, 105
6, 61812, Note_off_c, 11, 69, 64
6, 61840, Note_on_c, 11, 69, 105
6, 61892, Note_off_c, 11, 69, 64
6, 61920, Note_on_c, 11, 67, 105
6, 61972, Note_off_c, 11, 67, 64
6, 62000, Note_on_c, 11, 67, 105
6, 62052, Note_off_c, 11, 67, 64
6, 62080, Note_on_c, 11, 67, 105
6, 62132, Note_off_c, 11, 67, 64
6, 62160, Note_on_c, 11, 70, 105
6, 62212, Note_off_c, 11, 70, 64
6, 62240, Note_on_c, 11, 70, 105
6, 62292, Note_off_c, 11, 70, 64
6, 62320, Note_on_c, 11, 70, 105
6, 62372, Note_off_c, 11, 70, 64
6, 62400, Note_on_c, 11, 69, 92
6, 62556, Note_off_c, 11, 69, 64
6, 66240, Note_on_c, 11, 65, 105
6, 66384, Note_off_c, 11, 65, 64
6, 66480, Note_on_c, 11, 65, 105
6, 66552, Note_off_c, 11, 65, 64
6, 66600, Note_on_c, 11, 64, 105
6, 66672, Note_off_c, 11, 64, 64
6, 66720, Note_on_c, 11, 65, 105
6, 66792, Note_off_c, 11, 65, 64
6, 66840, Note_on_c, 11, 77, 105
6, 66912, Note_off_c, 11, 77, 64
6, 66960, Note_on_c, 11, 65, 105
6, 67032, Note_off_c, 11, 65, 64
6, 67080, Note_on_c, 11, 67, 105
6, 67152, Note_off_c, 11, 67, 64
6, 67200, Note_on_c, 11, 69, 105
6, 67272, Note_off_c, 11, 69, 64
6, 67320, Note_on_c, 11, 81, 105
6, 67392, Note_off_c, 11, 81, 64
6, 67440, Note_on_c, 11, 69, 105
6, 67512, Note_off_c, 11, 69, 64
6, 67560, Note_on_c, 11, 69, 105
6, 67632, Note_off_c, 11, 69, 64
6, 67680, Note_on_c, 11, 69, 105
6, 67752, Note_off_c, 11, 69, 64
6, 67800, Note_on_c, 11, 69, 105
6, 67872, Note_off_c, 11, 69, 64
6, 67920, Note_on_c, 11, 70, 105
6, 67992, Note_off_c, 11, 70, 64
6, 68040, Note_on_c, 11, 69, 105
6, 68112, Note_off_c, 11, 69, 64
6, 68160, Note_on_c, 11, 67, 105
6, 68232, Note_off_c, 11, 67, 64
6, 68280, Note_on_c, 11, 79, 105
6, 68352, Note_off_c, 11, 79, 64
6, 68400, Note_on_c, 11, 67, 105
6, 68472, Note_off_c, 11, 67, 64
6, 68520, Note_on_c, 11, 67, 105
6, 68592, Note_off_c, 11, 67, 64
6, 68640, Note_on_c, 11, 67, 105
6, 68712, Note_off_c, 11, 67, 64
6, 68760, Note_on_c, 11, 67, 105
6, 68832, Note_off_c, 11, 67, 64
6, 68880, Note_on_c, 11, 69, 105
6, 68952, Note_off_c, 11, 69, 64
6, 69000, Note_on_c, 11, 67, 105
6, 69072, Note_off_c, 11, 67, 64
6, 69120, Note_on_c, 11, 65, 105
6, 69192, Note_off_c, 11, 65, 64
6, 69240, Note_on_c, 11, 65, 105
6, 69312, Note_off_c, 11, 65, 64
6, 69360, Note_on_c, 11, 67, 105
6, 69432, Note_off_c, 11, 67, 64
6, 69480, Note_on_c, 11, 69, 105
6, 69552, Note_off_c, 11, 69, 64
6, 69600, Note_on_c, 11, 69, 105
6, 69720, Note_off_c, 11, 69, 64
6, 69720, Note_on_c, 11, 67, 105
6, 69792, Note_off_c, 11, 67, 64
6, 69840, Note_on_c, 11, 65, 105
6, 69912, Note_off_c, 11, 65, 64
6, 69960, Note_on_c, 11, 64, 105
6, 70032, Note_off_c, 11, 64, 64
6, 70080, Note_on_c, 11, 65, 105
6, 70272, Note_off_c, 11, 65, 64
6, 70800, Note_on_c, 11, 76, 105
6, 70800, Note_on_c, 11, 72, 105
6, 70800, Note_on_c, 11, 67, 105
6, 70932, Note_off_c, 11, 67, 64
6, 70932, Note_off_c, 11, 72, 64
6, 70932, Note_off_c, 11, 76, 64
6, 71040, Note_on_c, 11, 65, 105
6, 71040, Note_on_c, 11, 72, 105
6, 71040, Note_on_c, 11, 77, 105
6, 71172, Note_off_c, 11, 77, 64
6, 71172, Note_off_c, 11, 72, 64
6, 71172, Note_off_c, 11, 65, 64
6, 71760, Note_on_c, 11, 76, 105
6, 71760, Note_on_c, 11, 70, 105
6, 71760, Note_on_c, 11, 67, 105
6, 71892, Note_off_c, 11, 67, 64
6, 71892, Note_off_c, 11, 70, 64
6, 71892, Note_off_c, 11, 76, 64
6, 72000, Note_on_c, 11, 69, 105
6, 72000, Note_on_c, 11, 65, 105
6, 72000, Note_on_c, 11, 77, 105
6, 72132, Note_off_c, 11, 77, 64
6, 72132, Note_off_c, 11, 65, 64
6, 72132, Note_off_c, 11, 69, 64
6, 72720, Note_on_c, 11, 72, 105
6, 72720, Note_on_c, 11, 67, 105
6, 72720, Note_on_c, 11, 76, 105
6, 72852, Note_off_c, 11, 76, 64
6, 72852, Note_off_c, 11, 67, 64
6, 72852, Note_off_c, 11, 72, 64
6, 72960, Note_on_c, 11, 77, 105
6, 72960, Note_on_c, 11, 65, 105
6, 72960, Note_on_c, 11, 72, 105
6, 73092, Note_off_c, 11, 72, 64
6, 73092, Note_off_c, 11, 65, 64
6, 73092, Note_off_c, 11, 77, 64
6, 73680, Note_on_c, 11, 67, 105
6, 73680, Note_on_c, 11, 70, 105
6, 73680, Note_on_c, 11, 76, 105
6, 73812, Note_off_c, 11, 76, 64
6, 73812, Note_off_c, 11, 70, 64
6, 73812, Note_off_c, 11, 67, 64
6, 73920, Note_on_c, 11, 65, 92
6, 73984, Note_off_c, 11, 65, 64
6, 74000, Note_on_c, 11, 67, 92
6, 74064, Note_off_c, 11, 67, 64
6, 74080, Note_on_c, 11, 69, 92
6, 74144, Note_off_c, 11, 69, 64
6, 74160, Note_on_c, 11, 70, 92
6, 74224, Note_off_c, 11, 70, 64
6, 74240, Note_on_c, 11, 72, 92
6, 74304, Note_off_c, 11, 72, 64
6, 74320, Note_on_c, 11, 74, 92
6, 74384, Note_off_c, 11, 74, 64
6, 74400, Note_on_c, 11, 72, 92
6, 74464, Note_off_c, 11, 72, 64
6, 74480, Note_on_c, 11, 70, 92
6, 74544, Note_off_c, 11, 70, 64
6, 74560, Note_on_c, 11, 69, 92
6, 74624, Note_off_c, 11, 69, 64
6, 74640, Note_on_c, 11, 67, 92
6, 74704, Note_off_c, 11, 67, 64
6, 74720, Note_on_c, 11, 65, 92
6, 74784, Note_off_c, 11, 65, 64
6, 74800, Note_on_c, 11, 64, 92
6, 74864, Note_off_c, 11, 64, 64
6, 74880, Note_on_c, 11, 62, 92
6, 74944, Note_off_c, 11, 62, 64
6, 74960, Note_on_c, 11, 64, 92
6, 75024, Note_off_c, 11, 64, 64
6, 75040, Note_on_c, 11, 65, 92
6, 75104, Note_off_c, 11, 65, 64
6, 75120, Note_on_c, 11, 67, 92
6, 75184, Note_off_c, 11, 67, 64
6, 75200, Note_on_c, 11, 69, 92
6, 75264, Note_off_c, 11, 69, 64
6, 75280, Note_on_c, 11, 70, 92
6, 75344, Note_off_c, 11, 70, 64
6, 75360, Note_on_c, 11, 69, 92
6, 75424, Note_off_c, 11, 69, 64
6, 75440, Note_on_c, 11, 67, 92
6, 75504, Note_off_c, 11, 67, 64
6, 75520, Note_on_c, 11, 65, 92
6, 75584, Note_off_c, 11, 65, 64
6, 75600, Note_on_c, 11, 64, 92
6, 75664, Note_off_c, 11, 64, 64
6, 75680, Note_on_c, 11, 62, 92
6, 75744, Note_off_c, 11, 62, 64
6, 75760, Note_on_c, 11, 60, 92
6, 75824, Note_off_c, 11, 60, 64
6, 75840, Note_on_c, 11, 58, 92
6, 75957, Note_off_c, 11, 58, 64
6, 76020, Note_on_c, 11, 58, 92
6, 76059, Note_off_c, 11, 58, 64
6, 76080, Note_on_c, 11, 57, 92
6, 76197, Note_off_c, 11, 57, 64
6, 76260, Note_on_c, 11, 55, 92
6, 76299, Note_off_c, 11, 55, 64
6, 76320, Note_on_c, 11, 60, 92
6, 76476, Note_off_c, 11, 60, 64
6, 76560, Note_on_c, 11, 72, 92
6, 76560, Note_on_c, 11, 67, 92
6, 76560, Note_on_c, 11, 76, 92
6, 76716, Note_off_c, 11, 76, 64
6, 76716, Note_off_c, 11, 67, 64
6, 76716, Note_off_c, 11, 72, 64
6, 76800, Note_on_c, 11, 77, 92
6, 76800, Note_on_c, 11, 72, 92
6, 76800, Note_on_c, 11, 65, 92
6, 76956, Note_off_c, 11, 65, 64
6, 76956, Note_off_c, 11, 72, 64
6, 76956, Note_off_c, 11, 77, 64
6, 77040, Note_on_c, 11, 81, 92
6, 77040, Note_on_c, 11, 72, 92
6, 77040, Note_on_c, 11, 65, 92
6, 77196, Note_off_c, 11, 65, 64
6, 77196, Note_off_c, 11, 72, 64
6, 77196, Note_off_c, 11, 81, 64
6, 77280, Note_on_c, 11, 77, 92
6, 77280, Note_on_c, 11, 72, 92
6, 77280, Note_on_c, 11, 65, 92
6, 77472, Note_off_c, 11, 65, 64
6, 77472, Note_off_c, 11, 72, 64
6, 77472, Note_off_c, 11, 77, 64
6, 77760, Note_on_c, 11, 58, 110
6, 77760, Note_on_c, 11, 65, 110
6, 77760, Note_on_c, 11, 74, 110
6, 77916, Note_off_c, 11, 74, 64
6, 77916, Note_off_c, 11, 65, 64
6, 77916, Note_off_c, 11, 58, 64
6, 78000, Note_on_c, 11, 62, 70
6, 78048, Note_off_c, 11, 62, 64
6, 78080, Note_on_c, 11, 62, 70
6, 78128, Note_off_c, 11, 62, 64
6, 78160, Note_on_c, 11, 62, 70
6, 78208, Note_off_c, 11, 62, 64
6, 78240, Note_on_c, 11, 62, 70
6, 78288, Note_off_c, 11, 62, 64
6, 78320, Note_on_c, 11, 62, 70
6, 78368, Note_off_c, 11, 62, 64
6, 78400, Note_on_c, 11, 62, 70
6, 78448, Note_off_c, 11, 62, 64
6, 78480, Note_on_c, 11, 62, 70
6, 78528, Note_off_c, 11, 62, 64
6, 78560, Note_on_c, 11, 62, 70
6, 78608, Note_off_c, 11, 62, 64
6, 78640, Note_on_c, 11, 62, 70
6, 78688, Note_off_c, 11, 62, 64
6, 78720, Note_on_c, 11, 62, 70
6, 78786, Note_off_c, 11, 62, 64
6, 78960, Note_on_c, 11, 70, 70
6, 79026, Note_off_c, 11, 70, 64
6, 79200, Note_on_c, 11, 69, 70
6, 79392, Note_off_c, 11, 69, 64
6, 79680, Note_on_c, 11, 65, 110
6, 79680, Note_on_c, 11, 72, 110
6, 79680, Note_on_c, 11, 81, 110
6, 79836, Note_off_c, 11, 81, 64
6, 79836, Note_off_c, 11, 72, 64
6, 79836, Note_off_c, 11, 65, 64
6, 79920, Note_on_c, 11, 69, 70
6, 79968, Note_off_c, 11, 69, 64
6, 80000, Note_on_c, 11, 69, 70
6, 80048, Note_off_c, 11, 69, 64
6, 80080, Note_on_c, 11, 69, 70
6, 80128, Note_off_c, 11, 69, 64
6, 80160, Note_on_c, 11, 69, 70
6, 80208, Note_off_c, 11, 69, 64
6, 80240, Note_on_c, 11, 69, 70
6, 80288, Note_off_c, 11, 69, 64
6, 80320, Note_on_c, 11, 69, 70
6, 80368, Note_off_c, 11, 69, 64
6, 80400, Note_on_c, 11, 69, 70
6, 80448, Note_off_c, 11, 69, 64
6, 80480, Note_on_c, 11, 69, 70
6, 80528, Note_off_c, 11, 69, 64
6, 80560, Note_on_c, 11, 69, 70
6, 80608, Note_off_c, 11, 69, 64
6, 80640, Note_on_c, 11, 69, 70
6, 80706, Note_off_c, 11, 69, 64
6, 80880, Note_on_c, 11, 72, 70
6, 80946, Note_off_c, 11, 72, 64
6, 81120, Note_on_c, 11, 70, 70
6, 81312, Note_off_c, 11, 70, 64
6, 81600, Note_on_c, 11, 62, 70
6, 81648, Note_off_c, 11, 62, 64
6, 81680, Note_on_c, 11, 65, 70
6, 81728, Note_off_c, 11, 65, 64
6, 81760, Note_on_c, 11, 70, 70
6, 81808, Note_off_c, 11, 70, 64
6, 81840, Note_on_c, 11, 62, 70
6, 81888, Note_off_c, 11, 62, 64
6, 81920, Note_on_c, 11, 65, 70
6, 81968, Note_off_c, 11, 65, 64
6, 82000, Note_on_c, 11, 70, 70
6, 82048, Note_off_c, 11, 70, 64
6, 82080, Note_on_c, 11, 63, 70
6, 82128, Note_off_c, 11, 63, 64
6, 82160, Note_on_c, 11, 67, 70
6, 82208, Note_off_c, 11, 67, 64
6, 82240, Note_on_c, 11, 70, 70
6, 82288, Note_off_c, 11, 70, 64
6, 82320, Note_on_c, 11, 63, 70
6, 82368, Note_off_c, 11, 63, 64
6, 82400, Note_on_c, 11, 67, 70
6, 82448, Note_off_c, 11, 67, 64
6, 82480, Note_on_c, 11, 70, 70
6, 82528, Note_off_c, 11, 70, 64
6, 82560, Note_on_c, 11, 62, 70
6, 82608, Note_off_c, 11, 62, 64
6, 82640, Note_on_c, 11, 65, 70
6, 82688, Note_off_c, 11, 65, 64
6, 82720, Note_on_c, 11, 70, 70
6, 82768, Note_off_c, 11, 70, 64
6, 82800, Note_on_c, 11, 62, 70
6, 82848, Note_off_c, 11, 62, 64
6, 82880, Note_on_c, 11, 65, 70
6, 82928, Note_off_c, 11, 65, 64
6, 82960, Note_on_c, 11, 70, 70
6, 83008, Note_off_c, 11, 70, 64
6, 83040, Note_on_c, 11, 60, 70
6, 83088, Note_off_c, 11, 60, 64
6, 83120, Note_on_c, 11, 65, 70
6, 83168, Note_off_c, 11, 65, 64
6, 83200, Note_on_c, 11, 69, 70
6, 83248, Note_off_c, 11, 69, 64
6, 83280, Note_on_c, 11, 60, 70
6, 83328, Note_off_c, 11, 60, 64
6, 83360, Note_on_c, 11, 65, 70
6, 83408, Note_off_c, 11, 65, 64
6, 83440, Note_on_c, 11, 69, 70
6, 83488, Note_off_c, 11, 69, 64
6, 83520, Note_on_c, 11, 70, 70
6, 83700, Note_off_c, 11, 70, 64
6, 83700, Note_on_c, 11, 72, 70
6, 83760, Note_off_c, 11, 72, 64
6, 83760, Note_on_c, 11, 74, 70
6, 83940, Note_off_c, 11, 74, 64
6, 83940, Note_on_c, 11, 72, 70
6, 83988, Note_off_c, 11, 72, 64
6, 84000, Note_on_c, 11, 70, 70
6, 84052, Note_off_c, 11, 70, 64
6, 84080, Note_on_c, 11, 72, 70
6, 84132, Note_off_c, 11, 72, 64
6, 84160, Note_on_c, 11, 70, 70
6, 84212, Note_off_c, 11, 70, 64
6, 84240, Note_on_c, 11, 69, 70
6, 84292, Note_off_c, 11, 69, 64
6, 84320, Note_on_c, 11, 70, 70
6, 84372, Note_off_c, 11, 70, 64
6, 84400, Note_on_c, 11, 69, 70
6, 84452, Note_off_c, 11, 69, 64
6, 84480, Note_on_c, 11, 67, 70
6, 84546, Note_off_c, 11, 67, 64
6, 84720, Note_on_c, 11, 67, 70
6, 84786, Note_off_c, 11, 67, 64
6, 84960, Note_on_c, 11, 65, 58
6, 85152, Note_off_c, 11, 65, 64
6, 85440, Note_on_c, 11, 58, 98
6, 85440, Note_on_c, 11, 65, 98
6, 85440, Note_on_c, 11, 74, 98
6, 85596, Note_off_c, 11, 74, 64
6, 85596, Note_off_c, 11, 65, 64
6, 85596, Note_off_c, 11, 58, 64
6, 85680, Note_on_c, 11, 62, 58
6, 85728, Note_off_c, 11, 62, 64
6, 85760, Note_on_c, 11, 62, 58
6, 85808, Note_off_c, 11, 62, 64
6, 85840, Note_on_c, 11, 62, 58
6, 85888, Note_off_c, 11, 62, 64
6, 85920, Note_on_c, 11, 62, 58
6, 85968, Note_off_c, 11, 62, 64
6, 86000, Note_on_c, 11, 62, 58
6, 86048, Note_off_c, 11, 62, 64
6, 86080, Note_on_c, 11, 62, 58
6, 86128, Note_off_c, 11, 62, 64
6, 86160, Note_on_c, 11, 62, 58
6, 86208, Note_off_c, 11, 62, 64
6, 86240, Note_on_c, 11, 62, 58
6, 86288, Note_off_c, 11, 62, 64
6, 86320, Note_on_c, 11, 62, 58
6, 86368, Note_off_c, 11, 62, 64
6, 86400, Note_on_c, 11, 62, 58
6, 86466, Note_off_c, 11, 62, 64
6, 86640, Note_on_c, 11, 70, 58
6, 86706, Note_off_c, 11, 70, 64
6, 86880, Note_on_c, 11, 69, 58
6, 87072, Note_off_c, 11, 69, 64
6, 87360, Note_on_c, 11, 65, 98
6, 87360, Note_on_c, 11, 72, 98
6, 87360, Note_on_c, 11, 81, 98
6, 87516, Note_off_c, 11, 81, 64
6, 87516, Note_off_c, 11, 72, 64
6, 87516, Note_off_c, 11, 65, 64
6, 87600, Note_on_c, 11, 69, 58
6, 87648, Note_off_c, 11, 69, 64
6, 87680, Note_on_c, 11, 69, 58
6, 87728, Note_off_c, 11, 69, 64
6, 87760, Note_on_c, 11, 69, 58
6, 87808, Note_off_c, 11, 69, 64
6, 87840, Note_on_c, 11, 69, 58
6, 87888, Note_off_c, 11, 69, 64
6, 87920, Note_on_c, 11, 69, 58
6, 87968, Note_off_c, 11, 69, 64
6, 88000, Note_on_c, 11, 69, 58
6, 88048, Note_off_c, 11, 69, 64
6, 88080, Note_on_c, 11, 69, 58
6, 88128, Note_off_c, 11, 69, 64
6, 88160, Note_on_c, 11, 69, 58
6, 88208, Note_off_c, 11, 69, 64
6, 88240, Note_on_c, 11, 69, 58
6, 88288, Note_off_c, 11, 69, 64
6, 88320, Note_on_c, 11, 69, 58
6, 88386, Note_off_c, 11, 69, 64
6, 88560, Note_on_c, 11, 72, 58
6, 88626, Note_off_c, 11, 72, 64
6, 88800, Note_on_c, 11, 70, 58
6, 88992, Note_off_c, 11, 70, 64
6, 89280, Note_on_c, 11, 62, 70
6, 89328, Note_off_c, 11, 62, 64
6, 89360, Note_on_c, 11, 65, 70
6, 89408, Note_off_c, 11, 65, 64
6, 89440, Note_on_c, 11, 70, 70
6, 89488, Note_off_c, 11, 70, 64
6, 89520, Note_on_c, 11, 62, 70
6, 89568, Note_off_c, 11, 62, 64
6, 89600, Note_on_c, 11, 65, 70
6, 89648, Note_off_c, 11, 65, 64
6, 89680, Note_on_c, 11, 70, 70
6, 89728, Note_off_c, 11, 70, 64
6, 89760, Note_on_c, 11, 63, 70
6, 89808, Note_off_c, 11, 63, 64
6, 89840, Note_on_c, 11, 67, 70
6, 89888, Note_off_c, 11, 67, 64
6, 89920, Note_on_c, 11, 70, 70
6, 89968, Note_off_c, 11, 70, 64
6, 90000, Note_on_c, 11, 63, 70
6, 90048, Note_off_c, 11, 63, 64
6, 90080, Note_on_c, 11, 67, 70
6, 90128, Note_off_c, 11, 67, 64
6, 90160, Note_on_c, 11, 70, 70
6, 90208, Note_off_c, 11, 70, 64
6, 90240, Note_on_c, 11, 62, 70
6, 90288, Note_off_c, 11, 62, 64
6, 90320, Note_on_c, 11, 65, 70
6, 90368, Note_off_c, 11, 65, 64
6, 90400, Note_on_c, 11, 70, 70
6, 90448, Note_off_c, 11, 70, 64
6, 90480, Note_on_c, 11, 62, 70
6, 90528, Note_off_c, 11, 62, 64
6, 90560, Note_on_c, 11, 65, 70
6, 90608, Note_off_c, 11, 65, 64
6, 90640, Note_on_c, 11, 70, 70
6, 90688, Note_off_c, 11, 70, 64
6, 90720, Note_on_c, 11, 60, 70
6, 90768, Note_off_c, 11, 60, 64
6, 90800, Note_on_c, 11, 65, 70
6, 90848, Note_off_c, 11, 65, 64
6, 90880, Note_on_c, 11, 69, 70
6, 90928, Note_off_c, 11, 69, 64
6, 90960, Note_on_c, 11, 60, 70
6, 91008, Note_off_c, 11, 60, 64
6, 91040, Note_on_c, 11, 65, 70
6, 91088, Note_off_c, 11, 65, 64
6, 91120, Note_on_c, 11, 69, 70
6, 91168, Note_off_c, 11, 69, 64
6, 91200, Note_on_c, 11, 62, 70
6, 91248, Note_off_c, 11, 62, 64
6, 91280, Note_on_c, 11, 65, 70
6, 91328, Note_off_c, 11, 65, 64
6, 91360, Note_on_c, 11, 70, 70
6, 91408, Note_off_c, 11, 70, 64
6, 91440, Note_on_c, 11, 62, 70
6, 91488, Note_off_c, 11, 62, 64
6, 91520, Note_on_c, 11, 65, 70
6, 91568, Note_off_c, 11, 65, 64
6, 91600, Note_on_c, 11, 70, 70
6, 91648, Note_off_c, 11, 70, 64
6, 91680, Note_on_c, 11, 63, 70
6, 91728, Note_off_c, 11, 63, 64
6, 91760, Note_on_c, 11, 67, 70
6, 91808, Note_off_c, 11, 67, 64
6, 91840, Note_on_c, 11, 70, 70
6, 91888, Note_off_c, 11, 70, 64
6, 91920, Note_on_c, 11, 63, 70
6, 91968, Note_off_c, 11, 63, 64
6, 92000, Note_on_c, 11, 67, 70
6, 92048, Note_off_c, 11, 67, 64
6, 92080, Note_on_c, 11, 70, 70
6, 92128, Note_off_c, 11, 70, 64
6, 92160, Note_on_c, 11, 62, 70
6, 92208, Note_off_c, 11, 62, 64
6, 92240, Note_on_c, 11, 65, 70
6, 92288, Note_off_c, 11, 65, 64
6, 92320, Note_on_c, 11, 70, 70
6, 92368, Note_off_c, 11, 70, 64
6, 92400, Note_on_c, 11, 60, 70
6, 92448, Note_off_c, 11, 60, 64
6, 92480, Note_on_c, 11, 65, 70
6, 92528, Note_off_c, 11, 65, 64
6, 92560, Note_on_c, 11, 69, 70
6, 92608, Note_off_c, 11, 69, 64
6, 92640, Note_on_c, 11, 70, 70
6, 92640, Note_on_c, 11, 62, 70
6, 92832, Note_off_c, 11, 62, 64
6, 92832, Note_off_c, 11, 70, 64
6, 92880, Note_on_c, 11, 58, 92
6, 92944, Note_off_c, 11, 58, 64
6, 92960, Note_on_c, 11, 58, 92
6, 93024, Note_off_c, 11, 58, 64
6, 93040, Note_on_c, 11, 58, 92
6, 93104, Note_off_c, 11, 58, 64
6, 93120, Note_on_c, 11, 58, 92
6, 93184, Note_off_c, 11, 58, 64
6, 93200, Note_on_c, 11, 58, 92
6, 93264, Note_off_c, 11, 58, 64
6, 93280, Note_on_c, 11, 58, 92
6, 93344, Note_off_c, 11, 58, 64
6, 93360, Note_on_c, 11, 58, 92
6, 93424, Note_off_c, 11, 58, 64
6, 93440, Note_on_c, 11, 58, 92
6, 93504, Note_off_c, 11, 58, 64
6, 93520, Note_on_c, 11, 58, 92
6, 93584, Note_off_c, 11, 58, 64
6, 93600, Note_on_c, 11, 58, 92
6, 93732, Note_off_c, 11, 58, 64
6, 93840, Note_on_c, 11, 62, 92
6, 93972, Note_off_c, 11, 62, 64
6, 94080, Note_on_c, 11, 65, 92
6, 94212, Note_off_c, 11, 65, 64
6, 94560, Note_on_c, 11, 62, 58
6, 94677, Note_off_c, 11, 62, 64
6, 94740, Note_on_c, 11, 62, 58
6, 94779, Note_off_c, 11, 62, 64
6, 94800, Note_on_c, 11, 65, 58
6, 94917, Note_off_c, 11, 65, 64
6, 94980, Note_on_c, 11, 65, 58
6, 95019, Note_off_c, 11, 65, 64
6, 95040, Note_on_c, 11, 70, 58
6, 95172, Note_off_c, 11, 70, 64
6, 95520, Note_on_c, 11, 70, 92
6, 95637, Note_off_c, 11, 70, 64
6, 95700, Note_on_c, 11, 70, 92
6, 95739, Note_off_c, 11, 70, 64
6, 95760, Note_on_c, 11, 74, 92
6, 95877, Note_off_c, 11, 74, 64
6, 95940, Note_on_c, 11, 74, 92
6, 95979, Note_off_c, 11, 74, 64
6, 96000, Note_on_c, 11, 77, 92
6, 96117, Note_off_c, 11, 77, 64
6, 96180, Note_on_c, 11, 77, 92
6, 96219, Note_off_c, 11, 77, 64
6, 96240, Note_on_c, 11, 82, 92
6, 96357, Note_off_c, 11, 82, 64
6, 96420, Note_on_c, 11, 82, 92
6, 96459, Note_off_c, 11, 82, 64
6, 96480, Note_on_c, 11, 77, 92
6, 96597, Note_off_c, 11, 77, 64
6, 96660, Note_on_c, 11, 77, 92
6, 96699, Note_off_c, 11, 77, 64
6, 96720, Note_on_c, 11, 74, 92
6, 96837, Note_off_c, 11, 74, 64
6, 96900, Note_on_c, 11, 74, 92
6, 96939, Note_off_c, 11, 74, 64
6, 96960, Note_on_c, 11, 70, 92
6, 97152, Note_off_c, 11, 70, 64
6, 99120, Note_on_c, 11, 78, 70
6, 99168, Note_off_c, 11, 78, 64
6, 99200, Note_on_c, 11, 78, 70
6, 99248, Note_off_c, 11, 78, 64
6, 99280, Note_on_c, 11, 78, 70
6, 99328, Note_off_c, 11, 78, 64
6, 99360, Note_on_c, 11, 79, 70
6, 99408, Note_off_c, 11, 79, 64
6, 99440, Note_on_c, 11, 79, 70
6, 99488, Note_off_c, 11, 79, 64
6, 99520, Note_on_c, 11, 79, 70
6, 99568, Note_off_c, 11, 79, 64
6, 99600, Note_on_c, 11, 78, 70
6, 99648, Note_off_c, 11, 78, 64
6, 99680, Note_on_c, 11, 78, 70
6, 99728, Note_off_c, 11, 78, 64
6, 99760, Note_on_c, 11, 78, 70
6, 99808, Note_off_c, 11, 78, 64
6, 99840, Note_on_c, 11, 79, 70
6, 99888, Note_off_c, 11, 79, 64
6, 99920, Note_on_c, 11, 79, 70
6, 99968, Note_off_c, 11, 79, 64
6, 100000, Note_on_c, 11, 79, 70
6, 100048, Note_off_c, 11, 79, 64
6, 100080, Note_on_c, 11, 78, 70
6, 100128, Note_off_c, 11, 78, 64
6, 100160, Note_on_c, 11, 78, 70
6, 100208, Note_off_c, 11, 78, 64
6, 100240, Note_on_c, 11, 78, 70
6, 100288, Note_off_c, 11, 78, 64
6, 100320, Note_on_c, 11, 79, 70
6, 100512, Note_off_c, 11, 79, 64
6, 102960, Note_on_c, 11, 76, 70
6, 103008, Note_off_c, 11, 76, 64
6, 103040, Note_on_c, 11, 76, 70
6, 103088, Note_off_c, 11, 76, 64
6, 103120, Note_on_c, 11, 76, 70
6, 103168, Note_off_c, 11, 76, 64
6, 103200, Note_on_c, 11, 77, 70
6, 103248, Note_off_c, 11, 77, 64
6, 103280, Note_on_c, 11, 77, 70
6, 103328, Note_off_c, 11, 77, 64
6, 103360, Note_on_c, 11, 77, 70
6, 103408, Note_off_c, 11, 77, 64
6, 103440, Note_on_c, 11, 76, 70
6, 103488, Note_off_c, 11, 76, 64
6, 103520, Note_on_c, 11, 76, 70
6, 103568, Note_off_c, 11, 76, 64
6, 103600, Note_on_c, 11, 76, 70
6, 103648, Note_off_c, 11, 76, 64
6, 103680, Note_on_c, 11, 77, 70
6, 103728, Note_off_c, 11, 77, 64
6, 103760, Note_on_c, 11, 77, 70
6, 103808, Note_off_c, 11, 77, 64
6, 103840, Note_on_c, 11, 77, 70
6, 103888, Note_off_c, 11, 77, 64
6, 103920, Note_on_c, 11, 76, 70
6, 103968, Note_off_c, 11, 76, 64
6, 104000, Note_on_c, 11, 76, 70
6, 104048, Note_off_c, 11, 76, 64
6, 104080, Note_on_c, 11, 76, 70
6, 104128, Note_off_c, 11, 76, 64
6, 104160, Note_on_c, 11, 77, 70
6, 104352, Note_off_c, 11, 77, 64
6, 105120, Note_on_c, 11, 62, 58
6, 105192, Note_off_c, 11, 62, 64
6, 105240, Note_on_c, 11, 70, 58
6, 105312, Note_off_c, 11, 70, 64
6, 105360, Note_on_c, 11, 67, 58
6, 105432, Note_off_c, 11, 67, 64
6, 105480, Note_on_c, 11, 70, 58
6, 105552, Note_off_c, 11, 70, 64
6, 105600, Note_on_c, 11, 62, 58
6, 105672, Note_off_c, 11, 62, 64
6, 105720, Note_on_c, 11, 70, 58
6, 105792, Note_off_c, 11, 70, 64
6, 105840, Note_on_c, 11, 67, 58
6, 105912, Note_off_c, 11, 67, 64
6, 105960, Note_on_c, 11, 70, 58
6, 106032, Note_off_c, 11, 70, 64
6, 106080, Note_on_c, 11, 62, 58
6, 106152, Note_off_c, 11, 62, 64
6, 106200, Note_on_c, 11, 70, 58
6, 106272, Note_off_c, 11, 70, 64
6, 106320, Note_on_c, 11, 67, 58
6, 106392, Note_off_c, 11, 67, 64
6, 106440, Note_on_c, 11, 70, 58
6, 106512, Note_off_c, 11, 70, 64
6, 106560, Note_on_c, 11, 58, 58
6, 106632, Note_off_c, 11, 58, 64
6, 106680, Note_on_c, 11, 62, 58
6, 106752, Note_off_c, 11, 62, 64
6, 106800, Note_on_c, 11, 60, 58
6, 106872, Note_off_c, 11, 60, 64
6, 106920, Note_on_c, 11, 63, 58
6, 106992, Note_off_c, 11, 63, 64
6, 107040, Note_on_c, 11, 62, 58
6, 107112, Note_off_c, 11, 62, 64
6, 107160, Note_on_c, 11, 70, 58
6, 107232, Note_off_c, 11, 70, 64
6, 107280, Note_on_c, 11, 67, 58
6, 107352, Note_off_c, 11, 67, 64
6, 107400, Note_on_c, 11, 70, 58
6, 107472, Note_off_c, 11, 70, 64
6, 107520, Note_on_c, 11, 62, 58
6, 107592, Note_off_c, 11, 62, 64
6, 107640, Note_on_c, 11, 70, 58
6, 107712, Note_off_c, 11, 70, 64
6, 107760, Note_on_c, 11, 67, 58
6, 107832, Note_off_c, 11, 67, 64
6, 107880, Note_on_c, 11, 70, 58
6, 107952, Note_off_c, 11, 70, 64
6, 108000, Note_on_c, 11, 62, 58
6, 108072, Note_off_c, 11, 62, 64
6, 108120, Note_on_c, 11, 70, 58
6, 108192, Note_off_c, 11, 70, 64
6, 108240, Note_on_c, 11, 67, 58
6, 108312, Note_off_c, 11, 67, 64
6, 108360, Note_on_c, 11, 70, 58
6, 108432, Note_off_c, 11, 70, 64
6, 108480, Note_on_c, 11, 58, 58
6, 108552, Note_off_c, 11, 58, 64
6, 108600, Note_on_c, 11, 62, 58
6, 108672, Note_off_c, 11, 62, 64
6, 108720, Note_on_c, 11, 60, 58
6, 108792, Note_off_c, 11, 60, 64
6, 108840, Note_on_c, 11, 66, 58
6, 108912, Note_off_c, 11, 66, 64
6, 108960, Note_on_c, 11, 67, 58
6, 109152, Note_off_c, 11, 67, 64
6, 109440, Note_on_c, 11, 74, 58
6, 109518, Note_off_c, 11, 74, 64
6, 109560, Note_on_c, 11, 73, 58
6, 109638, Note_off_c, 11, 73, 64
6, 109680, Note_on_c, 11, 74, 58
6, 109758, Note_off_c, 11, 74, 64
6, 109800, Note_on_c, 11, 72, 58
6, 109878, Note_off_c, 11, 72, 64
6, 109920, Note_on_c, 11, 70, 58
6, 109998, Note_off_c, 11, 70, 64
6, 110040, Note_on_c, 11, 69, 58
6, 110118, Note_off_c, 11, 69, 64
6, 110160, Note_on_c, 11, 70, 58
6, 110238, Note_off_c, 11, 70, 64
6, 110280, Note_on_c, 11, 69, 58
6, 110358, Note_off_c, 11, 69, 64
6, 110400, Note_on_c, 11, 67, 58
6, 110478, Note_off_c, 11, 67, 64
6, 110520, Note_on_c, 11, 66, 58
6, 110598, Note_off_c, 11, 66, 64
6, 110640, Note_on_c, 11, 67, 58
6, 110718, Note_off_c, 11, 67, 64
6, 110760, Note_on_c, 11, 65, 58
6, 110838, Note_off_c, 11, 65, 64
6, 110880, Note_on_c, 11, 64, 105
6, 111024, Note_off_c, 11, 64, 64
6, 111120, Note_on_c, 11, 64, 105
6, 111192, Note_off_c, 11, 64, 64
6, 111240, Note_on_c, 11, 65, 105
6, 111312, Note_off_c, 11, 65, 64
6, 111360, Note_on_c, 11, 67, 105
6, 111504, Note_off_c, 11, 67, 64
6, 111600, Note_on_c, 11, 67, 105
6, 111672, Note_off_c, 11, 67, 64
6, 111720, Note_on_c, 11, 69, 105
6, 111792, Note_off_c, 11, 69, 64
6, 111840, Note_on_c, 11, 70, 105
6, 111984, Note_off_c, 11, 70, 64
6, 112080, Note_on_c, 11, 76, 105
6, 112152, Note_off_c, 11, 76, 64
6, 112200, Note_on_c, 11, 77, 105
6, 112272, Note_off_c, 11, 77, 64
6, 112320, Note_on_c, 11, 79, 105
6, 112464, Note_off_c, 11, 79, 64
6, 112560, Note_on_c, 11, 79, 105
6, 112632, Note_off_c, 11, 79, 64
6, 112680, Note_on_c, 11, 79, 105
6, 112752, Note_off_c, 11, 79, 64
6, 112800, Note_on_c, 11, 79, 105
6, 113016, Note_off_c, 11, 79, 64
6, 113160, Note_on_c, 11, 78, 105
6, 113232, Note_off_c, 11, 78, 64
6, 113280, Note_on_c, 11, 79, 105
6, 113496, Note_off_c, 11, 79, 64
6, 113640, Note_on_c, 11, 78, 105
6, 113712, Note_off_c, 11, 78, 64
6, 113760, Note_on_c, 11, 79, 105
6, 113832, Note_off_c, 11, 79, 64
6, 113880, Note_on_c, 11, 78, 105
6, 113952, Note_off_c, 11, 78, 64
6, 114000, Note_on_c, 11, 79, 105
6, 114072, Note_off_c, 11, 79, 64
6, 114120, Note_on_c, 11, 78, 105
6, 114192, Note_off_c, 11, 78, 64
6, 114240, Note_on_c, 11, 79, 105
6, 114312, Note_off_c, 11, 79, 64
6, 114360, Note_on_c, 11, 78, 105
6, 114432, Note_off_c, 11, 78, 64
6, 114480, Note_on_c, 11, 79, 105
6, 114552, Note_off_c, 11, 79, 64
6, 114600, Note_on_c, 11, 78, 105
6, 114672, Note_off_c, 11, 78, 64
6, 114720, Note_on_c, 11, 79, 105
6, 114768, Note_off_c, 11, 79, 64
6, 114800, Note_on_c, 11, 81, 105
6, 114848, Note_off_c, 11, 81, 64
6, 114880, Note_on_c, 11, 79, 105
6, 114928, Note_off_c, 11, 79, 64
6, 114960, Note_on_c, 11, 77, 70
6, 115008, Note_off_c, 11, 77, 64
6, 115040, Note_on_c, 11, 79, 70
6, 115088, Note_off_c, 11, 79, 64
6, 115120, Note_on_c, 11, 77, 70
6, 115168, Note_off_c, 11, 77, 64
6, 115200, Note_on_c, 11, 76, 70
6, 115248, Note_off_c, 11, 76, 64
6, 115280, Note_on_c, 11, 77, 70
6, 115328, Note_off_c, 11, 77, 64
6, 115360, Note_on_c, 11, 76, 70
6, 115408, Note_off_c, 11, 76, 64
6, 115440, Note_on_c, 11, 74, 70
6, 115488, Note_off_c, 11, 74, 64
6, 115520, Note_on_c, 11, 76, 70
6, 115568, Note_off_c, 11, 76, 64
6, 115600, Note_on_c, 11, 74, 70
6, 115648, Note_off_c, 11, 74, 64
6, 115680, Note_on_c, 11, 72, 70
6, 115728, Note_off_c, 11, 72, 64
6, 115760, Note_on_c, 11, 74, 70
6, 115808, Note_off_c, 11, 74, 64
6, 115840, Note_on_c, 11, 72, 70
6, 115888, Note_off_c, 11, 72, 64
6, 115920, Note_on_c, 11, 70, 70
6, 115968, Note_off_c, 11, 70, 64
6, 116000, Note_on_c, 11, 72, 70
6, 116048, Note_off_c, 11, 72, 64
6, 116080, Note_on_c, 11, 70, 70
6, 116128, Note_off_c, 11, 70, 64
6, 116160, Note_on_c, 11, 69, 70
6, 116208, Note_off_c, 11, 69, 64
6, 116240, Note_on_c, 11, 70, 70
6, 116288, Note_off_c, 11, 70, 64
6, 116320, Note_on_c, 11, 69, 70
6, 116368, Note_off_c, 11, 69, 64
6, 116400, Note_on_c, 11, 67, 70
6, 116448, Note_off_c, 11, 67, 64
6, 116480, Note_on_c, 11, 69, 70
6, 116528, Note_off_c, 11, 69, 64
6, 116560, Note_on_c, 11, 67, 70
6, 116608, Note_off_c, 11, 67, 64
6, 116640, Note_on_c, 11, 65, 58
6, 116712, Note_off_c, 11, 65, 64
6, 116760, Note_on_c, 11, 69, 58
6, 116832, Note_off_c, 11, 69, 64
6, 116880, Note_on_c, 11, 65, 58
6, 116952, Note_off_c, 11, 65, 64
6, 117000, Note_on_c, 11, 69, 58
6, 117072, Note_off_c, 11, 69, 64
6, 117120, Note_on_c, 11, 60, 58
6, 117192, Note_off_c, 11, 60, 64
6, 117240, Note_on_c, 11, 69, 58
6, 117312, Note_off_c, 11, 69, 64
6, 117360, Note_on_c, 11, 65, 58
6, 117432, Note_off_c, 11, 65, 64
6, 117480, Note_on_c, 11, 69, 58
6, 117552, Note_off_c, 11, 69, 64
6, 117600, Note_on_c, 11, 60, 58
6, 117672, Note_off_c, 11, 60, 64
6, 117720, Note_on_c, 11, 69, 58
6, 117792, Note_off_c, 11, 69, 64
6, 117840, Note_on_c, 11, 65, 58
6, 117912, Note_off_c, 11, 65, 64
6, 117960, Note_on_c, 11, 69, 58
6, 118032, Note_off_c, 11, 69, 64
6, 118080, Note_on_c, 11, 60, 58
6, 118152, Note_off_c, 11, 60, 64
6, 118200, Note_on_c, 11, 69, 58
6, 118272, Note_off_c, 11, 69, 64
6, 118320, Note_on_c, 11, 65, 58
6, 118392, Note_off_c, 11, 65, 64
6, 118440, Note_on_c, 11, 69, 58
6, 118512, Note_off_c, 11, 69, 64
6, 118560, Note_on_c, 11, 60, 58
6, 118632, Note_off_c, 11, 60, 64
6, 118680, Note_on_c, 11, 67, 58
6, 118752, Note_off_c, 11, 67, 64
6, 118800, Note_on_c, 11, 64, 58
6, 118872, Note_off_c, 11, 64, 64
6, 118920, Note_on_c, 11, 67, 58
6, 118992, Note_off_c, 11, 67, 64
6, 119040, Note_on_c, 11, 60, 58
6, 119112, Note_off_c, 11, 60, 64
6, 119160, Note_on_c, 11, 67, 58
6, 119232, Note_off_c, 11, 67, 64
6, 119280, Note_on_c, 11, 64, 58
6, 119352, Note_off_c, 11, 64, 64
6, 119400, Note_on_c, 11, 67, 58
6, 119472, Note_off_c, 11, 67, 64
6, 119520, Note_on_c, 11, 60, 58
6, 119592, Note_off_c, 11, 60, 64
6, 119640, Note_on_c, 11, 67, 58
6, 119712, Note_off_c, 11, 67, 64
6, 119760, Note_on_c, 11, 64, 58
6, 119832, Note_off_c, 11, 64, 64
6, 119880, Note_on_c, 11, 67, 58
6, 119952, Note_off_c, 11, 67, 64
6, 120000, Note_on_c, 11, 60, 58
6, 120072, Note_off_c, 11, 60, 64
6, 120120, Note_on_c, 11, 67, 58
6, 120192, Note_off_c, 11, 67, 64
6, 120240, Note_on_c, 11, 64, 58
6, 120312, Note_off_c, 11, 64, 64
6, 120360, Note_on_c, 11, 67, 58
6, 120432, Note_off_c, 11, 67, 64
6, 120480, Note_on_c, 11, 60, 58
6, 120552, Note_off_c, 11, 60, 64
6, 120600, Note_on_c, 11, 69, 58
6, 120672, Note_off_c, 11, 69, 64
6, 120720, Note_on_c, 11, 65, 58
6, 120792, Note_off_c, 11, 65, 64
6, 120840, Note_on_c, 11, 69, 58
6, 120912, Note_off_c, 11, 69, 64
6, 120960, Note_on_c, 11, 60, 70
6, 121140, Note_off_c, 11, 60, 64
6, 121140, Note_on_c, 11, 62, 70
6, 121200, Note_off_c, 11, 62, 64
6, 121200, Note_on_c, 11, 64, 70
6, 121380, Note_off_c, 11, 64, 64
6, 121380, Note_on_c, 11, 65, 70
6, 121428, Note_off_c, 11, 65, 64
6, 121440, Note_on_c, 11, 64, 70
6, 121560, Note_off_c, 11, 64, 64
6, 121560, Note_on_c, 11, 62, 70
6, 121680, Note_off_c, 11, 62, 64
6, 121680, Note_on_c, 11, 60, 70
6, 121872, Note_off_c, 11, 60, 64
6, 121920, Note_on_c, 11, 60, 70
6, 122100, Note_off_c, 11, 60, 64
6, 122100, Note_on_c, 11, 65, 70
6, 122160, Note_off_c, 11, 65, 64
6, 122160, Note_on_c, 11, 69, 70
6, 122340, Note_off_c, 11, 69, 64
6, 122340, Note_on_c, 11, 72, 70
6, 122391, Note_off_c, 11, 72, 64
6, 122400, Note_on_c, 11, 72, 70
6, 122520, Note_off_c, 11, 72, 64
6, 122520, Note_on_c, 11, 70, 70
6, 122640, Note_off_c, 11, 70, 64
6, 122640, Note_on_c, 11, 69, 70
6, 122832, Note_off_c, 11, 69, 64
6, 122880, Note_on_c, 11, 74, 70
6, 123000, Note_off_c, 11, 74, 64
6, 123000, Note_on_c, 11, 72, 70
6, 123120, Note_off_c, 11, 72, 64
6, 123120, Note_on_c, 11, 70, 70
6, 123240, Note_off_c, 11, 70, 64
6, 123240, Note_on_c, 11, 69, 70
6, 123336, Note_off_c, 11, 69, 64
6, 123360, Note_on_c, 11, 69, 70
6, 123420, Note_off_c, 11, 69, 64
6, 123420, Note_on_c, 11, 67, 70
6, 123564, Note_off_c, 11, 67, 64
6, 123600, Note_on_c, 11, 67, 70
6, 123792, Note_off_c, 11, 67, 64
6, 123840, Note_on_c, 11, 67, 70
6, 124032, Note_off_c, 11, 67, 64
6, 124080, Note_on_c, 11, 67, 70
6, 124272, Note_off_c, 11, 67, 64
6, 124320, Note_on_c, 11, 67, 70
6, 124512, Note_off_c, 11, 67, 64
6, 124800, Note_on_c, 11, 65, 58
6, 124852, Note_off_c, 11, 65, 64
6, 124880, Note_on_c, 11, 69, 58
6, 124932, Note_off_c, 11, 69, 64
6, 124960, Note_on_c, 11, 69, 58
6, 125012, Note_off_c, 11, 69, 64
6, 125040, Note_on_c, 11, 69, 58
6, 125092, Note_off_c, 11, 69, 64
6, 125120, Note_on_c, 11, 69, 58
6, 125172, Note_off_c, 11, 69, 64
6, 125200, Note_on_c, 11, 69, 58
6, 125252, Note_off_c, 11, 69, 64
6, 125280, Note_on_c, 11, 65, 58
6, 125332, Note_off_c, 11, 65, 64
6, 125360, Note_on_c, 11, 69, 58
6, 125412, Note_off_c, 11, 69, 64
6, 125440, Note_on_c, 11, 69, 58
6, 125492, Note_off_c, 11, 69, 64
6, 125520, Note_on_c, 11, 69, 58
6, 125572, Note_off_c, 11, 69, 64
6, 125600, Note_on_c, 11, 69, 58
6, 125652, Note_off_c, 11, 69, 64
6, 125680, Note_on_c, 11, 69, 58
6, 125732, Note_off_c, 11, 69, 64
6, 125760, Note_on_c, 11, 65, 58
6, 125812, Note_off_c, 11, 65, 64
6, 125840, Note_on_c, 11, 69, 58
6, 125892, Note_off_c, 11, 69, 64
6, 125920, Note_on_c, 11, 69, 58
6, 125972, Note_off_c, 11, 69, 64
6, 126000, Note_on_c, 11, 69, 58
6, 126052, Note_off_c, 11, 69, 64
6, 126080, Note_on_c, 11, 69, 58
6, 126132, Note_off_c, 11, 69, 64
6, 126160, Note_on_c, 11, 69, 58
6, 126212, Note_off_c, 11, 69, 64
6, 126240, Note_on_c, 11, 64, 58
6, 126292, Note_off_c, 11, 64, 64
6, 126320, Note_on_c, 11, 67, 58
6, 126372, Note_off_c, 11, 67, 64
6, 126400, Note_on_c, 11, 67, 58
6, 126452, Note_off_c, 11, 67, 64
6, 126480, Note_on_c, 11, 67, 58
6, 126532, Note_off_c, 11, 67, 64
6, 126560, Note_on_c, 11, 67, 58
6, 126612, Note_off_c, 11, 67, 64
6, 126640, Note_on_c, 11, 67, 58
6, 126692, Note_off_c, 11, 67, 64
6, 126720, Note_on_c, 11, 64, 58
6, 126772, Note_off_c, 11, 64, 64
6, 126800, Note_on_c, 11, 67, 58
6, 126852, Note_off_c, 11, 67, 64
6, 126880, Note_on_c, 11, 67, 58
6, 126932, Note_off_c, 11, 67, 64
6, 126960, Note_on_c, 11, 67, 58
6, 127012, Note_off_c, 11, 67, 64
6, 127040, Note_on_c, 11, 67, 58
6, 127092, Note_off_c, 11, 67, 64
6, 127120, Note_on_c, 11, 67, 58
6, 127172, Note_off_c, 11, 67, 64
6, 127200, Note_on_c, 11, 64, 58
6, 127252, Note_off_c, 11, 64, 64
6, 127280, Note_on_c, 11, 67, 58
6, 127332, Note_off_c, 11, 67, 64
6, 127360, Note_on_c, 11, 67, 58
6, 127412, Note_off_c, 11, 67, 64
6, 127440, Note_on_c, 11, 67, 58
6, 127492, Note_off_c, 11, 67, 64
6, 127520, Note_on_c, 11, 67, 58
6, 127572, Note_off_c, 11, 67, 64
6, 127600, Note_on_c, 11, 67, 58
6, 127652, Note_off_c, 11, 67, 64
6, 127680, Note_on_c, 11, 64, 58
6, 127732, Note_off_c, 11, 64, 64
6, 127760, Note_on_c, 11, 67, 58
6, 127812, Note_off_c, 11, 67, 64
6, 127840, Note_on_c, 11, 67, 58
6, 127892, Note_off_c, 11, 67, 64
6, 127920, Note_on_c, 11, 67, 58
6, 127972, Note_off_c, 11, 67, 64
6, 128000, Note_on_c, 11, 67, 58
6, 128052, Note_off_c, 11, 67, 64
6, 128080, Note_on_c, 11, 67, 58
6, 128132, Note_off_c, 11, 67, 64
6, 128160, Note_on_c, 11, 65, 58
6, 128212, Note_off_c, 11, 65, 64
6, 128240, Note_on_c, 11, 69, 58
6, 128292, Note_off_c, 11, 69, 64
6, 128320, Note_on_c, 11, 69, 58
6, 128372, Note_off_c, 11, 69, 64
6, 128400, Note_on_c, 11, 69, 58
6, 128452, Note_off_c, 11, 69, 64
6, 128480, Note_on_c, 11, 69, 58
6, 128532, Note_off_c, 11, 69, 64
6, 128560, Note_on_c, 11, 69, 58
6, 128612, Note_off_c, 11, 69, 64
6, 128640, Note_on_c, 11, 60, 58
6, 128820, Note_off_c, 11, 60, 64
6, 128820, Note_on_c, 11, 62, 58
6, 128880, Note_off_c, 11, 62, 64
6, 128880, Note_on_c, 11, 64, 58
6, 129060, Note_off_c, 11, 64, 64
6, 129060, Note_on_c, 11, 65, 58
6, 129108, Note_off_c, 11, 65, 64
6, 129120, Note_on_c, 11, 64, 58
6, 129240, Note_off_c, 11, 64, 64
6, 129240, Note_on_c, 11, 62, 58
6, 129360, Note_off_c, 11, 62, 64
6, 129360, Note_on_c, 11, 60, 58
6, 129552, Note_off_c, 11, 60, 64
6, 129600, Note_on_c, 11, 60, 58
6, 129780, Note_off_c, 11, 60, 64
6, 129780, Note_on_c, 11, 65, 58
6, 129840, Note_off_c, 11, 65, 64
6, 129840, Note_on_c, 11, 69, 58
6, 130020, Note_off_c, 11, 69, 64
6, 130020, Note_on_c, 11, 72, 58
6, 130068, Note_off_c, 11, 72, 64
6, 130080, Note_on_c, 11, 72, 58
6, 130200, Note_off_c, 11, 72, 64
6, 130200, Note_on_c, 11, 70, 58
6, 130320, Note_off_c, 11, 70, 64
6, 130320, Note_on_c, 11, 69, 58
6, 130512, Note_off_c, 11, 69, 64
6, 130560, Note_on_c, 11, 74, 58
6, 130680, Note_off_c, 11, 74, 64
6, 130680, Note_on_c, 11, 72, 58
6, 130800, Note_off_c, 11, 72, 64
6, 130800, Note_on_c, 11, 70, 58
6, 130920, Note_off_c, 11, 70, 64
6, 130920, Note_on_c, 11, 69, 58
6, 131016, Note_off_c, 11, 69, 64
6, 131040, Note_on_c, 11, 66, 58
6, 131160, Note_off_c, 11, 66, 64
6, 131160, Note_on_c, 11, 67, 58
6, 131280, Note_off_c, 11, 67, 64
6, 131280, Note_on_c, 11, 69, 58
6, 131400, Note_off_c, 11, 69, 64
6, 131400, Note_on_c, 11, 70, 58
6, 131496, Note_off_c, 11, 70, 64
6, 131520, Note_on_c, 11, 65, 58
6, 131760, Note_off_c, 11, 65, 64
6, 131760, Note_on_c, 11, 69, 58
6, 131820, Note_off_c, 11, 69, 64
6, 131820, Note_on_c, 11, 67, 58
6, 131964, Note_off_c, 11, 67, 64
6, 132000, Note_on_c, 11, 65, 58
6, 132156, Note_off_c, 11, 65, 64
6, 132240, Note_on_c, 11, 60, 105
6, 132292, Note_off_c, 11, 60, 64
6, 132320, Note_on_c, 11, 60, 105
6, 132372, Note_off_c, 11, 60, 64
6, 132400, Note_on_c, 11, 60, 105
6, 132452, Note_off_c, 11, 60, 64
6, 132480, Note_on_c, 11, 60, 105
6, 132532, Note_off_c, 11, 60, 64
6, 132560, Note_on_c, 11, 60, 105
6, 132612, Note_off_c, 11, 60, 64
6, 132640, Note_on_c, 11, 60, 105
6, 132692, Note_off_c, 11, 60, 64
6, 132720, Note_on_c, 11, 60, 105
6, 132772, Note_off_c, 11, 60, 64
6, 132800, Note_on_c, 11, 60, 105
6, 132852, Note_off_c, 11, 60, 64
6, 132880, Note_on_c, 11, 60, 105
6, 132932, Note_off_c, 11, 60, 64
6, 132960, Note_on_c, 11, 60, 105
6, 133012, Note_off_c, 11, 60, 64
6, 133040, Note_on_c, 11, 60, 105
6, 133092, Note_off_c, 11, 60, 64
6, 133120, Note_on_c, 11, 60, 105
6, 133172, Note_off_c, 11, 60, 64
6, 133200, Note_on_c, 11, 65, 105
6, 133252, Note_off_c, 11, 65, 64
6, 133280, Note_on_c, 11, 65, 105
6, 133332, Note_off_c, 11, 65, 64
6, 133360, Note_on_c, 11, 65, 105
6, 133412, Note_off_c, 11, 65, 64
6, 133440, Note_on_c, 11, 67, 105
6, 133492, Note_off_c, 11, 67, 64
6, 133520, Note_on_c, 11, 67, 105
6, 133572, Note_off_c, 11, 67, 64
6, 133600, Note_on_c, 11, 67, 105
6, 133652, Note_off_c, 11, 67, 64
6, 133680, Note_on_c, 11, 69, 105
6, 133732, Note_off_c, 11, 69, 64
6, 133760, Note_on_c, 11, 69, 105
6, 133812, Note_off_c, 11, 69, 64
6, 133840, Note_on_c, 11, 69, 105
6, 133892, Note_off_c, 11, 69, 64
6, 133920, Note_on_c, 11, 70, 105
6, 133972, Note_off_c, 11, 70, 64
6, 134000, Note_on_c, 11, 70, 105
6, 134052, Note_off_c, 11, 70, 64
6, 134080, Note_on_c, 11, 70, 105
6, 134132, Note_off_c, 11, 70, 64
6, 134160, Note_on_c, 11, 74, 105
6, 134212, Note_off_c, 11, 74, 64
6, 134240, Note_on_c, 11, 74, 105
6, 134292, Note_off_c, 11, 74, 64
6, 134320, Note_on_c, 11, 74, 105
6, 134372, Note_off_c, 11, 74, 64
6, 134400, Note_on_c, 11, 74, 105
6, 134452, Note_off_c, 11, 74, 64
6, 134480, Note_on_c, 11, 74, 105
6, 134532, Note_off_c, 11, 74, 64
6, 134560, Note_on_c, 11, 74, 105
6, 134612, Note_off_c, 11, 74, 64
6, 134640, Note_on_c, 11, 74, 105
6, 134692, Note_off_c, 11, 74, 64
6, 134720, Note_on_c, 11, 74, 105
6, 134772, Note_off_c, 11, 74, 64
6, 134800, Note_on_c, 11, 74, 105
6, 134852, Note_off_c, 11, 74, 64
6, 134880, Note_on_c, 11, 72, 105
6, 134932, Note_off_c, 11, 72, 64
6, 134960, Note_on_c, 11, 72, 105
6, 135012, Note_off_c, 11, 72, 64
6, 135040, Note_on_c, 11, 72, 105
6, 135092, Note_off_c, 11, 72, 64
6, 135120, Note_on_c, 11, 69, 105
6, 135172, Note_off_c, 11, 69, 64
6, 135200, Note_on_c, 11, 69, 105
6, 135252, Note_off_c, 11, 69, 64
6, 135280, Note_on_c, 11, 69, 105
6, 135332, Note_off_c, 11, 69, 64
6, 135360, Note_on_c, 11, 67, 105
6, 135412, Note_off_c, 11, 67, 64
6, 135440, Note_on_c, 11, 67, 105
6, 135492, Note_off_c, 11, 67, 64
6, 135520, Note_on_c, 11, 67, 105
6, 135572, Note_off_c, 11, 67, 64
6, 135600, Note_on_c, 11, 70, 105
6, 135652, Note_off_c, 11, 70, 64
6, 135680, Note_on_c, 11, 70, 105
6, 135732, Note_off_c, 11, 70, 64
6, 135760, Note_on_c, 11, 70, 105
6, 135812, Note_off_c, 11, 70, 64
6, 135840, Note_on_c, 11, 69, 92
6, 135996, Note_off_c, 11, 69, 64
6, 136080, Note_on_c, 11, 60, 105
6, 136132, Note_off_c, 11, 60, 64
6, 136160, Note_on_c, 11, 60, 105
6, 136212, Note_off_c, 11, 60, 64
6, 136240, Note_on_c, 11, 60, 105
6, 136292, Note_off_c, 11, 60, 64
6, 136320, Note_on_c, 11, 60, 105
6, 136372, Note_off_c, 11, 60, 64
6, 136400, Note_on_c, 11, 60, 105
6, 136452, Note_off_c, 11, 60, 64
6, 136480, Note_on_c, 11, 60, 105
6, 136532, Note_off_c, 11, 60, 64
6, 136560, Note_on_c, 11, 60, 105
6, 136612, Note_off_c, 11, 60, 64
6, 136640, Note_on_c, 11, 60, 105
6, 136692, Note_off_c, 11, 60, 64
6, 136720, Note_on_c, 11, 60, 105
6, 136772, Note_off_c, 11, 60, 64
6, 136800, Note_on_c, 11, 60, 105
6, 136852, Note_off_c, 11, 60, 64
6, 136880, Note_on_c, 11, 60, 105
6, 136932, Note_off_c, 11, 60, 64
6, 136960, Note_on_c, 11, 60, 105
6, 137012, Note_off_c, 11, 60, 64
6, 137040, Note_on_c, 11, 65, 105
6, 137092, Note_off_c, 11, 65, 64
6, 137120, Note_on_c, 11, 65, 105
6, 137172, Note_off_c, 11, 65, 64
6, 137200, Note_on_c, 11, 65, 105
6, 137252, Note_off_c, 11, 65, 64
6, 137280, Note_on_c, 11, 67, 105
6, 137332, Note_off_c, 11, 67, 64
6, 137360, Note_on_c, 11, 67, 105
6, 137412, Note_off_c, 11, 67, 64
6, 137440, Note_on_c, 11, 67, 105
6, 137492, Note_off_c, 11, 67, 64
6, 137520, Note_on_c, 11, 69, 105
6, 137572, Note_off_c, 11, 69, 64
6, 137600, Note_on_c, 11, 69, 105
6, 137652, Note_off_c, 11, 69, 64
6, 137680, Note_on_c, 11, 69, 105
6, 137732, Note_off_c, 11, 69, 64
6, 137760, Note_on_c, 11, 70, 105
6, 137812, Note_off_c, 11, 70, 64
6, 137840, Note_on_c, 11, 70, 105
6, 137892, Note_off_c, 11, 70, 64
6, 137920, Note_on_c, 11, 70, 105
6, 137972, Note_off_c, 11, 70, 64
6, 138000, Note_on_c, 11, 74, 105
6, 138052, Note_off_c, 11, 74, 64
6, 138080, Note_on_c, 11, 74, 105
6, 138132, Note_off_c, 11, 74, 64
6, 138160, Note_on_c, 11, 74, 105
6, 138212, Note_off_c, 11, 74, 64
6, 138240, Note_on_c, 11, 74, 105
6, 138292, Note_off_c, 11, 74, 64
6, 138320, Note_on_c, 11, 74, 105
6, 138372, Note_off_c, 11, 74, 64
6, 138400, Note_on_c, 11, 74, 105
6, 138452, Note_off_c, 11, 74, 64
6, 138480, Note_on_c, 11, 74, 105
6, 138532, Note_off_c, 11, 74, 64
6, 138560, Note_on_c, 11, 74, 105
6, 138612, Note_off_c, 11, 74, 64
6, 138640, Note_on_c, 11, 74, 105
6, 138692, Note_off_c, 11, 74, 64
6, 138720, Note_on_c, 11, 72, 105
6, 138772, Note_off_c, 11, 72, 64
6, 138800, Note_on_c, 11, 72, 105
6, 138852, Note_off_c, 11, 72, 64
6, 138880, Note_on_c, 11, 72, 105
6, 138932, Note_off_c, 11, 72, 64
6, 138960, Note_on_c, 11, 69, 105
6, 139012, Note_off_c, 11, 69, 64
6, 139040, Note_on_c, 11, 69, 105
6, 139092, Note_off_c, 11, 69, 64
6, 139120, Note_on_c, 11, 69, 105
6, 139172, Note_off_c, 11, 69, 64
6, 139200, Note_on_c, 11, 67, 105
6, 139252, Note_off_c, 11, 67, 64
6, 139280, Note_on_c, 11, 67, 105
6, 139332, Note_off_c, 11, 67, 64
6, 139360, Note_on_c, 11, 67, 105
6, 139412, Note_off_c, 11, 67, 64
6, 139440, Note_on_c, 11, 70, 105
6, 139492, Note_off_c, 11, 70, 64
6, 139520, Note_on_c, 11, 70, 105
6, 139572, Note_off_c, 11, 70, 64
6, 139600, Note_on_c, 11, 70, 105
6, 139652, Note_off_c, 11, 70, 64
6, 139680, Note_on_c, 11, 69, 92
6, 139836, Note_off_c, 11, 69, 64
6, 143520, Note_on_c, 11, 65, 105
6, 143664, Note_off_c, 11, 65, 64
6, 143760, Note_on_c, 11, 65, 105
6, 143832, Note_off_c, 11, 65, 64
6, 143880, Note_on_c, 11, 64, 105
6, 143952, Note_off_c, 11, 64, 64
6, 144000, Note_on_c, 11, 65, 105
6, 144072, Note_off_c, 11, 65, 64
6, 144120, Note_on_c, 11, 77, 105
6, 144192, Note_off_c, 11, 77, 64
6, 144240, Note_on_c, 11, 65, 105
6, 144312, Note_off_c, 11, 65, 64
6, 144360, Note_on_c, 11, 67, 105
6, 144432, Note_off_c, 11, 67, 64
6, 144480, Note_on_c, 11, 69, 105
6, 144552, Note_off_c, 11, 69, 64
6, 144600, Note_on_c, 11, 81, 105
6, 144672, Note_off_c, 11, 81, 64
6, 144720, Note_on_c, 11, 69, 105
6, 144792, Note_off_c, 11, 69, 64
6, 144840, Note_on_c, 11, 69, 105
6, 144912, Note_off_c, 11, 69, 64
6, 144960, Note_on_c, 11, 69, 105
6, 145032, Note_off_c, 11, 69, 64
6, 145080, Note_on_c, 11, 69, 105
6, 145152, Note_off_c, 11, 69, 64
6, 145200, Note_on_c, 11, 70, 105
6, 145272, Note_off_c, 11, 70, 64
6, 145320, Note_on_c, 11, 69, 105
6, 145392, Note_off_c, 11, 69, 64
6, 145440, Note_on_c, 11, 67, 105
6, 145512, Note_off_c, 11, 67, 64
6, 145560, Note_on_c, 11, 79, 105
6, 145632, Note_off_c, 11, 79, 64
6, 145680, Note_on_c, 11, 67, 105
6, 145752, Note_off_c, 11, 67, 64
6, 145800, Note_on_c, 11, 67, 105
6, 145872, Note_off_c, 11, 67, 64
6, 145920, Note_on_c, 11, 67, 105
6, 145992, Note_off_c, 11, 67, 64
6, 146040, Note_on_c, 11, 67, 105
6, 146112, Note_off_c, 11, 67, 64
6, 146160, Note_on_c, 11, 69, 105
6, 146232, Note_off_c, 11, 69, 64
6, 146280, Note_on_c, 11, 67, 105
6, 146352, Note_off_c, 11, 67, 64
6, 146400, Note_on_c, 11, 65, 105
6, 146472, Note_off_c, 11, 65, 64
6, 146520, Note_on_c, 11, 65, 105
6, 146592, Note_off_c, 11, 65, 64
6, 146640, Note_on_c, 11, 67, 105
6, 146712, Note_off_c, 11, 67, 64
6, 146760, Note_on_c, 11, 69, 105
6, 146832, Note_off_c, 11, 69, 64
6, 146880, Note_on_c, 11, 69, 105
6, 147000, Note_off_c, 11, 69, 64
6, 147000, Note_on_c, 11, 67, 105
6, 147072, Note_off_c, 11, 67, 64
6, 147120, Note_on_c, 11, 65, 105
6, 147192, Note_off_c, 11, 65, 64
6, 147240, Note_on_c, 11, 64, 105
6, 147312, Note_off_c, 11, 64, 64
6, 147360, Note_on_c, 11, 65, 105
6, 147552, Note_off_c, 11, 65, 64
6, 148080, Note_on_c, 11, 76, 105
6, 148080, Note_on_c, 11, 72, 105
6, 148080, Note_on_c, 11, 67, 105
6, 148212, Note_off_c, 11, 67, 64
6, 148212, Note_off_c, 11, 72, 64
6, 148212, Note_off_c, 11, 76, 64
6, 148320, Note_on_c, 11, 65, 105
6, 148320, Note_on_c, 11, 72, 105
6, 148320, Note_on_c, 11, 77, 105
6, 148452, Note_off_c, 11, 77, 64
6, 148452, Note_off_c, 11, 72, 64
6, 148452, Note_off_c, 11, 65, 64
6, 149040, Note_on_c, 11, 76, 105
6, 149040, Note_on_c, 11, 70, 105
6, 149040, Note_on_c, 11, 67, 105
6, 149172, Note_off_c, 11, 67, 64
6, 149172, Note_off_c, 11, 70, 64
6, 149172, Note_off_c, 11, 76, 64
6, 149280, Note_on_c, 11, 69, 105
6, 149280, Note_on_c, 11, 65, 105
6, 149280, Note_on_c, 11, 77, 105
6, 149412, Note_off_c, 11, 77, 64
6, 149412, Note_off_c, 11, 65, 64
6, 149412, Note_off_c, 11, 69, 64
6, 150000, Note_on_c, 11, 72, 105
6, 150000, Note_on_c, 11, 67, 105
6, 150000, Note_on_c, 11, 76, 105
6, 150132, Note_off_c, 11, 76, 64
6, 150132, Note_off_c, 11, 67, 64
6, 150132, Note_off_c, 11, 72, 64
6, 150240, Note_on_c, 11, 77, 105
6, 150240, Note_on_c, 11, 65, 105
6, 150240, Note_on_c, 11, 72, 105
6, 150372, Note_off_c, 11, 72, 64
6, 150372, Note_off_c, 11, 65, 64
6, 150372, Note_off_c, 11, 77, 64
6, 150960, Note_on_c, 11, 67, 105
6, 150960, Note_on_c, 11, 70, 105
6, 150960, Note_on_c, 11, 76, 105
6, 151092, Note_off_c, 11, 76, 64
6, 151092, Note_off_c, 11, 70, 64
6, 151092, Note_off_c, 11, 67, 64
6, 151200, Note_on_c, 11, 65, 92
6, 151264, Note_off_c, 11, 65, 64
6, 151280, Note_on_c, 11, 67, 92
6, 151344, Note_off_c, 11, 67, 64
6, 151360, Note_on_c, 11, 69, 92
6, 151424, Note_off_c, 11, 69, 64
6, 151440, Note_on_c, 11, 70, 92
6, 151504, Note_off_c, 11, 70, 64
6, 151520, Note_on_c, 11, 72, 92
6, 151584, Note_off_c, 11, 72, 64
6, 151600, Note_on_c, 11, 74, 92
6, 151664, Note_off_c, 11, 74, 64
6, 151680, Note_on_c, 11, 72, 92
6, 151744, Note_off_c, 11, 72, 64
6, 151760, Note_on_c, 11, 70, 92
6, 151824, Note_off_c, 11, 70, 64
6, 151840, Note_on_c, 11, 69, 92
6, 151904, Note_off_c, 11, 69, 64
6, 151920, Note_on_c, 11, 67, 92
6, 151984, Note_off_c, 11, 67, 64
6, 152000, Note_on_c, 11, 65, 92
6, 152064, Note_off_c, 11, 65, 64
6, 152080, Note_on_c, 11, 64, 92
6, 152144, Note_off_c, 11, 64, 64
6, 152160, Note_on_c, 11, 62, 92
6, 152224, Note_off_c, 11, 62, 64
6, 152240, Note_on_c, 11, 64, 92
6, 152304, Note_off_c, 11, 64, 64
6, 152320, Note_on_c, 11, 65, 92
6, 152384, Note_off_c, 11, 65, 64
6, 152400, Note_on_c, 11, 67, 92
6, 152464, Note_off_c, 11, 67, 64
6, 152480, Note_on_c, 11, 69, 92
6, 152544, Note_off_c, 11, 69, 64
6, 152560, Note_on_c, 11, 70, 92
6, 152624, Note_off_c, 11, 70, 64
6, 152640, Note_on_c, 11, 69, 92
6, 152704, Note_off_c, 11, 69, 64
6, 152720, Note_on_c, 11, 67, 92
6, 152784, Note_off_c, 11, 67, 64
6, 152800, Note_on_c, 11, 65, 92
6, 152864, Note_off_c, 11, 65, 64
6, 152880, Note_on_c, 11, 64, 92
6, 152944, Note_off_c, 11, 64, 64
6, 152960, Note_on_c, 11, 62, 92
6, 153024, Note_off_c, 11, 62, 64
6, 153040, Note_on_c, 11, 60, 92
6, 153104, Note_off_c, 11, 60, 64
6, 153120, Note_on_c, 11, 58, 92
6, 153237, Note_off_c, 11, 58, 64
6, 153300, Note_on_c, 11, 58, 92
6, 153339, Note_off_c, 11, 58, 64
6, 153360, Note_on_c, 11, 57, 92
6, 153477, Note_off_c, 11, 57, 64
6, 153540, Note_on_c, 11, 55, 92
6, 153579, Note_off_c, 11, 55, 64
6, 153600, Note_on_c, 11, 60, 92
6, 153756, Note_off_c, 11, 60, 64
6, 153840, Note_on_c, 11, 72, 92
6, 153840, Note_on_c, 11, 67, 92
6, 153840, Note_on_c, 11, 76, 92
6, 153996, Note_off_c, 11, 76, 64
6, 153996, Note_off_c, 11, 67, 64
6, 153996, Note_off_c, 11, 72, 64
6, 154080, Note_on_c, 11, 77, 92
6, 154080, Note_on_c, 11, 72, 92
6, 154080, Note_on_c, 11, 65, 92
6, 154236, Note_off_c, 11, 65, 64
6, 154236, Note_off_c, 11, 72, 64
6, 154236, Note_off_c, 11, 77, 64
6, 154320, Note_on_c, 11, 81, 92
6, 154320, Note_on_c, 11, 72, 92
6, 154320, Note_on_c, 11, 65, 92
6, 154476, Note_off_c, 11, 65, 64
6, 154476, Note_off_c, 11, 72, 64
6, 154476, Note_off_c, 11, 81, 64
6, 154560, Note_on_c, 11, 77, 92
6, 154560, Note_on_c, 11, 72, 92
6, 154560, Note_on_c, 11, 65, 92
6, 154752, Note_off_c, 11, 65, 64
6, 154752, Note_off_c, 11, 72, 64
6, 154752, Note_off_c, 11, 77, 64
6, 156000, Note_on_c, 11, 65, 58
6, 156480, Note_off_c, 11, 65, 64
6, 156480, Note_on_c, 11, 62, 58
6, 156936, Note_off_c, 11, 62, 64
6, 156960, Note_on_c, 11, 58, 58
6, 157440, Note_off_c, 11, 58, 64
6, 157440, Note_on_c, 11, 60, 58
6, 157896, Note_off_c, 11, 60, 64
6, 157920, Note_on_c, 11, 57, 58
6, 158112, Note_off_c, 11, 57, 64
6, 158880, Note_on_c, 11, 65, 58
6, 159360, Note_off_c, 11, 65, 64
6, 159360, Note_on_c, 11, 60, 58
6, 159816, Note_off_c, 11, 60, 64
6, 159840, Note_on_c, 11, 58, 58
6, 160080, Note_off_c, 11, 58, 64
6, 160080, Note_on_c, 11, 57, 58
6, 160272, Note_off_c, 11, 57, 64
6, 160560, Note_on_c, 11, 65, 58
6, 160896, Note_off_c, 11, 65, 64
6, 160920, Note_on_c, 11, 69, 58
6, 161040, Note_off_c, 11, 69, 64
6, 161040, Note_on_c, 11, 67, 58
6, 161232, Note_off_c, 11, 67, 64
6, 161520, Note_on_c, 11, 64, 58
6, 161856, Note_off_c, 11, 64, 64
6, 161880, Note_on_c, 11, 67, 58
6, 162000, Note_off_c, 11, 67, 64
6, 162000, Note_on_c, 11, 65, 58
6, 162192, Note_off_c, 11, 65, 64
6, 162480, Note_on_c, 11, 62, 58
6, 162816, Note_off_c, 11, 62, 64
6, 162840, Note_on_c, 11, 65, 58
6, 162960, Note_off_c, 11, 65, 64
6, 162960, Note_on_c, 11, 64, 58
6, 163296, Note_off_c, 11, 64, 64
6, 163320, Note_on_c, 11, 67, 58
6, 163440, Note_off_c, 11, 67, 64
6, 163440, Note_on_c, 11, 61, 58
6, 163560, Note_off_c, 11, 61, 64
6, 163560, Note_on_c, 11, 64, 58
6, 163656, Note_off_c, 11, 64, 64
6, 163680, Note_on_c, 11, 62, 58
6, 163728, Note_off_c, 11, 62, 64
6, 163760, Note_on_c, 11, 65, 58
6, 163808, Note_off_c, 11, 65, 64
6, 163840, Note_on_c, 11, 65, 58
6, 163888, Note_off_c, 11, 65, 64
6, 163920, Note_on_c, 11, 65, 58
6, 163968, Note_off_c, 11, 65, 64
6, 164000, Note_on_c, 11, 64, 58
6, 164048, Note_off_c, 11, 64, 64
6, 164080, Note_on_c, 11, 62, 58
6, 164128, Note_off_c, 11, 62, 64
6, 164160, Note_on_c, 11, 61, 58
6, 164208, Note_off_c, 11, 61, 64
6, 164240, Note_on_c, 11, 64, 58
6, 164288, Note_off_c, 11, 64, 64
6, 164320, Note_on_c, 11, 64, 58
6, 164368, Note_off_c, 11, 64, 64
6, 164400, Note_on_c, 11, 64, 58
6, 164448, Note_off_c, 11, 64, 64
6, 164480, Note_on_c, 11, 62, 58
6, 164528, Note_off_c, 11, 62, 64
6, 164560, Note_on_c, 11, 61, 58
6, 164608, Note_off_c, 11, 61, 64
6, 164640, Note_on_c, 11, 62, 58
6, 165120, Note_off_c, 11, 62, 64
6, 165200, Note_on_c, 11, 69, 58
6, 165280, Note_off_c, 11, 69, 64
6, 165280, Note_on_c, 11, 70, 58
6, 165360, Note_off_c, 11, 70, 64
6, 165360, Note_on_c, 11, 72, 58
6, 165440, Note_off_c, 11, 72, 64
6, 165440, Note_on_c, 11, 70, 58
6, 165520, Note_off_c, 11, 70, 64
6, 165520, Note_on_c, 11, 69, 58
6, 165584, Note_off_c, 11, 69, 64
6, 165600, Note_on_c, 11, 67, 58
6, 165648, Note_off_c, 11, 67, 64
6, 165680, Note_on_c, 11, 70, 58
6, 165728, Note_off_c, 11, 70, 64
6, 165760, Note_on_c, 11, 70, 58
6, 165808, Note_off_c, 11, 70, 64
6, 165840, Note_on_c, 11, 70, 58
6, 165888, Note_off_c, 11, 70, 64
6, 165920, Note_on_c, 11, 69, 58
6, 165968, Note_off_c, 11, 69, 64
6, 166000, Note_on_c, 11, 67, 58
6, 166048, Note_off_c, 11, 67, 64
6, 166080, Note_on_c, 11, 66, 58
6, 166128, Note_off_c, 11, 66, 64
6, 166160, Note_on_c, 11, 69, 58
6, 166208, Note_off_c, 11, 69, 64
6, 166240, Note_on_c, 11, 69, 58
6, 166288, Note_off_c, 11, 69, 64
6, 166320, Note_on_c, 11, 69, 58
6, 166368, Note_off_c, 11, 69, 64
6, 166400, Note_on_c, 11, 67, 58
6, 166448, Note_off_c, 11, 67, 64
6, 166480, Note_on_c, 11, 66, 58
6, 166528, Note_off_c, 11, 66, 64
6, 166640, Note_on_c, 11, 62, 58
6, 166720, Note_off_c, 11, 62, 64
6, 166720, Note_on_c, 11, 63, 58
6, 166800, Note_off_c, 11, 63, 64
6, 166800, Note_on_c, 11, 65, 58
6, 166880, Note_off_c, 11, 65, 64
6, 166880, Note_on_c, 11, 63, 58
6, 166960, Note_off_c, 11, 63, 64
6, 166960, Note_on_c, 11, 62, 58
6, 167024, Note_off_c, 11, 62, 64
6, 167120, Note_on_c, 11, 74, 58
6, 167200, Note_off_c, 11, 74, 64
6, 167200, Note_on_c, 11, 75, 58
6, 167280, Note_off_c, 11, 75, 64
6, 167280, Note_on_c, 11, 77, 58
6, 167360, Note_off_c, 11, 77, 64
6, 167360, Note_on_c, 11, 75, 58
6, 167440, Note_off_c, 11, 75, 64
6, 167440, Note_on_c, 11, 74, 58
6, 167504, Note_off_c, 11, 74, 64
6, 167520, Note_on_c, 11, 72, 58
6, 167568, Note_off_c, 11, 72, 64
6, 167600, Note_on_c, 11, 63, 58
6, 167648, Note_off_c, 11, 63, 64
6, 167680, Note_on_c, 11, 63, 58
6, 167728, Note_off_c, 11, 63, 64
6, 167760, Note_on_c, 11, 63, 58
6, 167808, Note_off_c, 11, 63, 64
6, 167840, Note_on_c, 11, 62, 58
6, 167888, Note_off_c, 11, 62, 64
6, 167920, Note_on_c, 11, 60, 58
6, 167968, Note_off_c, 11, 60, 64
6, 168000, Note_on_c, 11, 59, 58
6, 168048, Note_off_c, 11, 59, 64
6, 168080, Note_on_c, 11, 62, 58
6, 168128, Note_off_c, 11, 62, 64
6, 168160, Note_on_c, 11, 62, 58
6, 168208, Note_off_c, 11, 62, 64
6, 168240, Note_on_c, 11, 62, 58
6, 168288, Note_off_c, 11, 62, 64
6, 168320, Note_on_c, 11, 60, 58
6, 168368, Note_off_c, 11, 60, 64
6, 168400, Note_on_c, 11, 59, 58
6, 168448, Note_off_c, 11, 59, 64
6, 168480, Note_on_c, 11, 60, 58
6, 168960, Note_off_c, 11, 60, 64
6, 169040, Note_on_c, 11, 67, 58
6, 169120, Note_off_c, 11, 67, 64
6, 169120, Note_on_c, 11, 69, 58
6, 169200, Note_off_c, 11, 69, 64
6, 169200, Note_on_c, 11, 70, 58
6, 169280, Note_off_c, 11, 70, 64
6, 169280, Note_on_c, 11, 69, 58
6, 169360, Note_off_c, 11, 69, 64
6, 169360, Note_on_c, 11, 67, 58
6, 169424, Note_off_c, 11, 67, 64
6, 169440, Note_on_c, 11, 65, 58
6, 169488, Note_off_c, 11, 65, 64
6, 169520, Note_on_c, 11, 69, 58
6, 169568, Note_off_c, 11, 69, 64
6, 169600, Note_on_c, 11, 69, 58
6, 169648, Note_off_c, 11, 69, 64
6, 169680, Note_on_c, 11, 69, 58
6, 169728, Note_off_c, 11, 69, 64
6, 169760, Note_on_c, 11, 67, 58
6, 169808, Note_off_c, 11, 67, 64
6, 169840, Note_on_c, 11, 65, 58
6, 169888, Note_off_c, 11, 65, 64
6, 169920, Note_on_c, 11, 64, 58
6, 169968, Note_off_c, 11, 64, 64
6, 170000, Note_on_c, 11, 67, 58
6, 170048, Note_off_c, 11, 67, 64
6, 170080, Note_on_c, 11, 67, 58
6, 170128, Note_off_c, 11, 67, 64
6, 170160, Note_on_c, 11, 67, 58
6, 170208, Note_off_c, 11, 67, 64
6, 170240, Note_on_c, 11, 65, 58
6, 170288, Note_off_c, 11, 65, 64
6, 170320, Note_on_c, 11, 64, 58
6, 170368, Note_off_c, 11, 64, 64
6, 170480, Note_on_c, 11, 60, 58
6, 170560, Note_off_c, 11, 60, 64
6, 170560, Note_on_c, 11, 62, 58
6, 170640, Note_off_c, 11, 62, 64
6, 170640, Note_on_c, 11, 63, 58
6, 170720, Note_off_c, 11, 63, 64
6, 170720, Note_on_c, 11, 62, 58
6, 170800, Note_off_c, 11, 62, 64
6, 170800, Note_on_c, 11, 60, 58
6, 170864, Note_off_c, 11, 60, 64
6, 170960, Note_on_c, 11, 72, 58
6, 171040, Note_off_c, 11, 72, 64
6, 171040, Note_on_c, 11, 74, 58
6, 171120, Note_off_c, 11, 74, 64
6, 171120, Note_on_c, 11, 75, 58
6, 171200, Note_off_c, 11, 75, 64
6, 171200, Note_on_c, 11, 74, 58
6, 171280, Note_off_c, 11, 74, 64
6, 171280, Note_on_c, 11, 72, 58
6, 171344, Note_off_c, 11, 72, 64
6, 171360, Note_on_c, 11, 70, 58
6, 171648, Note_off_c, 11, 70, 64
6, 171680, Note_on_c, 11, 72, 58
6, 171728, Note_off_c, 11, 72, 64
6, 171760, Note_on_c, 11, 74, 58
6, 171808, Note_off_c, 11, 74, 64
6, 171840, Note_on_c, 11, 72, 58
6, 171888, Note_off_c, 11, 72, 64
6, 171920, Note_on_c, 11, 70, 58
6, 171968, Note_off_c, 11, 70, 64
6, 172000, Note_on_c, 11, 69, 58
6, 172048, Note_off_c, 11, 69, 64
6, 172080, Note_on_c, 11, 72, 58
6, 172128, Note_off_c, 11, 72, 64
6, 172160, Note_on_c, 11, 70, 58
6, 172208, Note_off_c, 11, 70, 64
6, 172240, Note_on_c, 11, 69, 58
6, 172288, Note_off_c, 11, 69, 64
6, 172320, Note_on_c, 11, 67, 58
6, 172608, Note_off_c, 11, 67, 64
6, 172640, Note_on_c, 11, 69, 58
6, 172688, Note_off_c, 11, 69, 64
6, 172720, Note_on_c, 11, 70, 58
6, 172768, Note_off_c, 11, 70, 64
6, 172800, Note_on_c, 11, 69, 58
6, 172848, Note_off_c, 11, 69, 64
6, 172880, Note_on_c, 11, 67, 58
6, 172928, Note_off_c, 11, 67, 64
6, 172960, Note_on_c, 11, 65, 58
6, 173008, Note_off_c, 11, 65, 64
6, 173040, Note_on_c, 11, 68, 58
6, 173088, Note_off_c, 11, 68, 64
6, 173120, Note_on_c, 11, 67, 58
6, 173168, Note_off_c, 11, 67, 64
6, 173200, Note_on_c, 11, 65, 58
6, 173248, Note_off_c, 11, 65, 64
6, 173280, Note_on_c, 11, 63, 58
6, 173568, Note_off_c, 11, 63, 64
6, 173600, Note_on_c, 11, 65, 58
6, 173648, Note_off_c, 11, 65, 64
6, 173680, Note_on_c, 11, 67, 58
6, 173728, Note_off_c, 11, 67, 64
6, 173760, Note_on_c, 11, 65, 58
6, 173808, Note_off_c, 11, 65, 64
6, 173840, Note_on_c, 11, 63, 58
6, 173888, Note_off_c, 11, 63, 64
6, 173920, Note_on_c, 11, 62, 58
6, 173968, Note_off_c, 11, 62, 64
6, 174000, Note_on_c, 11, 65, 58
6, 174048, Note_off_c, 11, 65, 64
6, 174080, Note_on_c, 11, 63, 58
6, 174128, Note_off_c, 11, 63, 64
6, 174160, Note_on_c, 11, 62, 58
6, 174208, Note_off_c, 11, 62, 64
6, 174240, Note_on_c, 11, 55, 58
6, 174432, Note_off_c, 11, 55, 64
6, 174480, Note_on_c, 11, 57, 58
6, 174672, Note_off_c, 11, 57, 64
6, 174720, Note_on_c, 11, 58, 58
6, 175104, Note_off_c, 11, 58, 64
6, 175200, Note_on_c, 11, 65, 125
6, 175230, Note_off_c, 11, 65, 64
6, 175230, Note_on_c, 11, 72, 105
6, 175260, Note_off_c, 11, 72, 64
6, 175260, Note_on_c, 11, 77, 105
6, 175632, Note_off_c, 11, 77, 64
6, 175680, Note_on_c, 11, 72, 105
6, 176064, Note_off_c, 11, 72, 64
6, 176160, Note_on_c, 11, 70, 105
6, 176400, Note_off_c, 11, 70, 64
6, 176400, Note_on_c, 11, 69, 105
6, 176592, Note_off_c, 11, 69, 64
6, 176640, Note_on_c, 11, 74, 105
6, 176880, Note_off_c, 11, 74, 64
6, 176880, Note_on_c, 11, 72, 105
6, 177072, Note_off_c, 11, 72, 64
6, 177120, Note_on_c, 11, 77, 105
6, 177360, Note_off_c, 11, 77, 64
6, 177360, Note_on_c, 11, 76, 105
6, 177552, Note_off_c, 11, 76, 64
6, 177600, Note_on_c, 11, 82, 105
6, 177840, Note_off_c, 11, 82, 64
6, 177840, Note_on_c, 11, 81, 105
6, 178032, Note_off_c, 11, 81, 64
6, 178080, Note_on_c, 11, 87, 105
6, 178368, Note_off_c, 11, 87, 64
6, 178440, Note_on_c, 11, 86, 105
6, 178518, Note_off_c, 11, 86, 64
6, 178560, Note_on_c, 11, 84, 105
6, 178638, Note_off_c, 11, 84, 64
6, 178680, Note_on_c, 11, 82, 105
6, 178758, Note_off_c, 11, 82, 64
6, 178800, Note_on_c, 11, 81, 105
6, 178878, Note_off_c, 11, 81, 64
6, 178920, Note_on_c, 11, 79, 105
6, 178998, Note_off_c, 11, 79, 64
6, 179040, Note_on_c, 11, 77, 105
6, 179118, Note_off_c, 11, 77, 64
6, 179160, Note_on_c, 11, 76, 105
6, 179238, Note_off_c, 11, 76, 64
6, 179280, Note_on_c, 11, 77, 105
6, 179358, Note_off_c, 11, 77, 64
6, 179400, Note_on_c, 11, 79, 105
6, 179478, Note_off_c, 11, 79, 64
6, 179520, Note_on_c, 11, 77, 105
6, 179598, Note_off_c, 11, 77, 64
6, 179640, Note_on_c, 11, 75, 105
6, 179718, Note_off_c, 11, 75, 64
6, 179760, Note_on_c, 11, 74, 105
6, 179838, Note_off_c, 11, 74, 64
6, 179880, Note_on_c, 11, 72, 105
6, 179958, Note_off_c, 11, 72, 64
6, 180000, Note_on_c, 11, 65, 98
6, 180000, Note_on_c, 11, 74, 98
6, 180000, Note_on_c, 11, 82, 98
6, 180192, Note_off_c, 11, 82, 64
6, 180192, Note_off_c, 11, 74, 64
6, 180192, Note_off_c, 11, 65, 64
6, 180240, Note_on_c, 11, 62, 58
6, 180288, Note_off_c, 11, 62, 64
6, 180320, Note_on_c, 11, 62, 58
6, 180368, Note_off_c, 11, 62, 64
6, 180400, Note_on_c, 11, 62, 58
6, 180448, Note_off_c, 11, 62, 64
6, 180480, Note_on_c, 11, 62, 58
6, 180528, Note_off_c, 11, 62, 64
6, 180560, Note_on_c, 11, 62, 58
6, 180608, Note_off_c, 11, 62, 64
6, 180640, Note_on_c, 11, 62, 58
6, 180688, Note_off_c, 11, 62, 64
6, 180720, Note_on_c, 11, 62, 58
6, 180768, Note_off_c, 11, 62, 64
6, 180800, Note_on_c, 11, 62, 58
6, 180848, Note_off_c, 11, 62, 64
6, 180880, Note_on_c, 11, 62, 58
6, 180928, Note_off_c, 11, 62, 64
6, 180960, Note_on_c, 11, 62, 58
6, 181026, Note_off_c, 11, 62, 64
6, 181200, Note_on_c, 11, 70, 58
6, 181266, Note_off_c, 11, 70, 64
6, 181440, Note_on_c, 11, 69, 58
6, 181632, Note_off_c, 11, 69, 64
6, 181920, Note_on_c, 11, 81, 98
6, 181920, Note_on_c, 11, 72, 98
6, 181920, Note_on_c, 11, 65, 98
6, 182112, Note_off_c, 11, 65, 64
6, 182112, Note_off_c, 11, 72, 64
6, 182112, Note_off_c, 11, 81, 64
6, 182160, Note_on_c, 11, 69, 58
6, 182208, Note_off_c, 11, 69, 64
6, 182240, Note_on_c, 11, 69, 58
6, 182288, Note_off_c, 11, 69, 64
6, 182320, Note_on_c, 11, 69, 58
6, 182368, Note_off_c, 11, 69, 64
6, 182400, Note_on_c, 11, 69, 58
6, 182448, Note_off_c, 11, 69, 64
6, 182480, Note_on_c, 11, 69, 58
6, 182528, Note_off_c, 11, 69, 64
6, 182560, Note_on_c, 11, 69, 58
6, 182608, Note_off_c, 11, 69, 64
6, 182640, Note_on_c, 11, 69, 58
6, 182688, Note_off_c, 11, 69, 64
6, 182720, Note_on_c, 11, 69, 58
6, 182768, Note_off_c, 11, 69, 64
6, 182800, Note_on_c, 11, 69, 58
6, 182848, Note_off_c, 11, 69, 64
6, 182880, Note_on_c, 11, 69, 58
6, 182946, Note_off_c, 11, 69, 64
6, 183120, Note_on_c, 11, 72, 58
6, 183186, Note_off_c, 11, 72, 64
6, 183360, Note_on_c, 11, 70, 58
6, 183552, Note_off_c, 11, 70, 64
6, 183840, Note_on_c, 11, 62, 70
6, 183888, Note_off_c, 11, 62, 64
6, 183920, Note_on_c, 11, 65, 70
6, 183968, Note_off_c, 11, 65, 64
6, 184000, Note_on_c, 11, 70, 70
6, 184048, Note_off_c, 11, 70, 64
6, 184080, Note_on_c, 11, 62, 70
6, 184128, Note_off_c, 11, 62, 64
6, 184160, Note_on_c, 11, 65, 70
6, 184208, Note_off_c, 11, 65, 64
6, 184240, Note_on_c, 11, 70, 70
6, 184288, Note_off_c, 11, 70, 64
6, 184320, Note_on_c, 11, 63, 70
6, 184368, Note_off_c, 11, 63, 64
6, 184400, Note_on_c, 11, 67, 70
6, 184448, Note_off_c, 11, 67, 64
6, 184480, Note_on_c, 11, 70, 70
6, 184528, Note_off_c, 11, 70, 64
6, 184560, Note_on_c, 11, 63, 70
6, 184608, Note_off_c, 11, 63, 64
6, 184640, Note_on_c, 11, 67, 70
6, 184688, Note_off_c, 11, 67, 64
6, 184720, Note_on_c, 11, 70, 70
6, 184768, Note_off_c, 11, 70, 64
6, 184800, Note_on_c, 11, 62, 70
6, 184848, Note_off_c, 11, 62, 64
6, 184880, Note_on_c, 11, 65, 70
6, 184928, Note_off_c, 11, 65, 64
6, 184960, Note_on_c, 11, 70, 70
6, 185008, Note_off_c, 11, 70, 64
6, 185040, Note_on_c, 11, 62, 70
6, 185088, Note_off_c, 11, 62, 64
6, 185120, Note_on_c, 11, 65, 70
6, 185168, Note_off_c, 11, 65, 64
6, 185200, Note_on_c, 11, 70, 70
6, 185248, Note_off_c, 11, 70, 64
6, 185280, Note_on_c, 11, 60, 70
6, 185328, Note_off_c, 11, 60, 64
6, 185360, Note_on_c, 11, 65, 70
6, 185408, Note_off_c, 11, 65, 64
6, 185440, Note_on_c, 11, 69, 70
6, 185488, Note_off_c, 11, 69, 64
6, 185520, Note_on_c, 11, 60, 70
6, 185568, Note_off_c, 11, 60, 64
6, 185600, Note_on_c, 11, 65, 70
6, 185648, Note_off_c, 11, 65, 64
6, 185680, Note_on_c, 11, 69, 70
6, 185728, Note_off_c, 11, 69, 64
6, 185760, Note_on_c, 11, 62, 70
6, 185808, Note_off_c, 11, 62, 64
6, 185840, Note_on_c, 11, 65, 70
6, 185888, Note_off_c, 11, 65, 64
6, 185920, Note_on_c, 11, 70, 70
6, 185968, Note_off_c, 11, 70, 64
6, 186000, Note_on_c, 11, 62, 70
6, 186048, Note_off_c, 11, 62, 64
6, 186080, Note_on_c, 11, 65, 70
6, 186128, Note_off_c, 11, 65, 64
6, 186160, Note_on_c, 11, 70, 70
6, 186208, Note_off_c, 11, 70, 64
6, 186240, Note_on_c, 11, 63, 70
6, 186288, Note_off_c, 11, 63, 64
6, 186320, Note_on_c, 11, 67, 70
6, 186368, Note_off_c, 11, 67, 64
6, 186400, Note_on_c, 11, 70, 70
6, 186448, Note_off_c, 11, 70, 64
6, 186480, Note_on_c, 11, 63, 70
6, 186528, Note_off_c, 11, 63, 64
6, 186560, Note_on_c, 11, 67, 70
6, 186608, Note_off_c, 11, 67, 64
6, 186640, Note_on_c, 11, 70, 70
6, 186688, Note_off_c, 11, 70, 64
6, 186720, Note_on_c, 11, 62, 70
6, 186768, Note_off_c, 11, 62, 64
6, 186800, Note_on_c, 11, 65, 70
6, 186848, Note_off_c, 11, 65, 64
6, 186880, Note_on_c, 11, 70, 70
6, 186928, Note_off_c, 11, 70, 64
6, 186960, Note_on_c, 11, 60, 70
6, 187008, Note_off_c, 11, 60, 64
6, 187040, Note_on_c, 11, 65, 70
6, 187088, Note_off_c, 11, 65, 64
6, 187120, Note_on_c, 11, 69, 70
6, 187168, Note_off_c, 11, 69, 64
6, 187200, Note_on_c, 11, 62, 92
6, 187200, Note_on_c, 11, 70, 92
6, 187356, Note_off_c, 11, 70, 64
6, 187356, Note_off_c, 11, 62, 64
6, 187440, Note_on_c, 11, 58, 92
6, 187492, Note_off_c, 11, 58, 64
6, 187520, Note_on_c, 11, 58, 92
6, 187572, Note_off_c, 11, 58, 64
6, 187600, Note_on_c, 11, 58, 92
6, 187652, Note_off_c, 11, 58, 64
6, 187680, Note_on_c, 11, 58, 92
6, 187732, Note_off_c, 11, 58, 64
6, 187760, Note_on_c, 11, 58, 92
6, 187812, Note_off_c, 11, 58, 64
6, 187840, Note_on_c, 11, 58, 92
6, 187892, Note_off_c, 11, 58, 64
6, 187920, Note_on_c, 11, 58, 92
6, 187972, Note_off_c, 11, 58, 64
6, 188000, Note_on_c, 11, 58, 92
6, 188052, Note_off_c, 11, 58, 64
6, 188080, Note_on_c, 11, 58, 92
6, 188132, Note_off_c, 11, 58, 64
6, 188160, Note_on_c, 11, 58, 92
6, 188292, Note_off_c, 11, 58, 64
6, 188400, Note_on_c, 11, 62, 92
6, 188532, Note_off_c, 11, 62, 64
6, 188640, Note_on_c, 11, 65, 92
6, 188772, Note_off_c, 11, 65, 64
6, 189120, Note_on_c, 11, 62, 58
6, 189237, Note_off_c, 11, 62, 64
6, 189300, Note_on_c, 11, 62, 58
6, 189339, Note_off_c, 11, 62, 64
6, 189360, Note_on_c, 11, 65, 58
6, 189477, Note_off_c, 11, 65, 64
6, 189540, Note_on_c, 11, 65, 58
6, 189579, Note_off_c, 11, 65, 64
6, 189600, Note_on_c, 11, 70, 58
6, 189732, Note_off_c, 11, 70, 64
6, 190080, Note_on_c, 11, 70, 105
6, 190197, Note_off_c, 11, 70, 64
6, 190260, Note_on_c, 11, 70, 105
6, 190299, Note_off_c, 11, 70, 64
6, 190320, Note_on_c, 11, 74, 105
6, 190437, Note_off_c, 11, 74, 64
6, 190500, Note_on_c, 11, 74, 105
6, 190539, Note_off_c, 11, 74, 64
6, 190560, Note_on_c, 11, 77, 105
6, 190677, Note_off_c, 11, 77, 64
6, 190740, Note_on_c, 11, 77, 105
6, 190779, Note_off_c, 11, 77, 64
6, 190800, Note_on_c, 11, 82, 105
6, 190917, Note_off_c, 11, 82, 64
6, 190980, Note_on_c, 11, 82, 105
6, 191019, Note_off_c, 11, 82, 64
6, 191040, Note_on_c, 11, 77, 105
6, 191157, Note_off_c, 11, 77, 64
6, 191220, Note_on_c, 11, 77, 105
6, 191259, Note_off_c, 11, 77, 64
6, 191280, Note_on_c, 11, 74, 105
6, 191397, Note_off_c, 11, 74, 64
6, 191460, Note_on_c, 11, 74, 105
6, 191499, Note_off_c, 11, 74, 64
6, 191520, Note_on_c, 11, 70, 105
6, 191652, Note_off_c, 11, 70, 64
6, 193680, Note_on_c, 11, 78, 58
6, 193728, Note_off_c, 11, 78, 64
6, 193760, Note_on_c, 11, 78, 58
6, 193808, Note_off_c, 11, 78, 64
6, 193840, Note_on_c, 11, 78, 58
6, 193888, Note_off_c, 11, 78, 64
6, 193920, Note_on_c, 11, 79, 58
6, 193968, Note_off_c, 11, 79, 64
6, 194000, Note_on_c, 11, 79, 58
6, 194048, Note_off_c, 11, 79, 64
6, 194080, Note_on_c, 11, 79, 58
6, 194128, Note_off_c, 11, 79, 64
6, 194160, Note_on_c, 11, 78, 58
6, 194208, Note_off_c, 11, 78, 64
6, 194240, Note_on_c, 11, 78, 58
6, 194288, Note_off_c, 11, 78, 64
6, 194320, Note_on_c, 11, 78, 58
6, 194368, Note_off_c, 11, 78, 64
6, 194400, Note_on_c, 11, 79, 58
6, 194448, Note_off_c, 11, 79, 64
6, 194480, Note_on_c, 11, 79, 58
6, 194528, Note_off_c, 11, 79, 64
6, 194560, Note_on_c, 11, 79, 58
6, 194608, Note_off_c, 11, 79, 64
6, 194640, Note_on_c, 11, 78, 58
6, 194688, Note_off_c, 11, 78, 64
6, 194720, Note_on_c, 11, 78, 58
6, 194768, Note_off_c, 11, 78, 64
6, 194800, Note_on_c, 11, 78, 58
6, 194848, Note_off_c, 11, 78, 64
6, 194880, Note_on_c, 11, 79, 58
6, 195072, Note_off_c, 11, 79, 64
6, 197520, Note_on_c, 11, 74, 58
6, 197568, Note_off_c, 11, 74, 64
6, 197600, Note_on_c, 11, 74, 58
6, 197648, Note_off_c, 11, 74, 64
6, 197680, Note_on_c, 11, 74, 58
6, 197728, Note_off_c, 11, 74, 64
6, 197760, Note_on_c, 11, 75, 58
6, 197808, Note_off_c, 11, 75, 64
6, 197840, Note_on_c, 11, 75, 58
6, 197888, Note_off_c, 11, 75, 64
6, 197920, Note_on_c, 11, 75, 58
6, 197968, Note_off_c, 11, 75, 64
6, 198000, Note_on_c, 11, 74, 58
6, 198048, Note_off_c, 11, 74, 64
6, 198080, Note_on_c, 11, 74, 58
6, 198128, Note_off_c, 11, 74, 64
6, 198160, Note_on_c, 11, 74, 58
6, 198208, Note_off_c, 11, 74, 64
6, 198240, Note_on_c, 11, 75, 58
6, 198288, Note_off_c, 11, 75, 64
6, 198320, Note_on_c, 11, 75, 58
6, 198368, Note_off_c, 11, 75, 64
6, 198400, Note_on_c, 11, 75, 58
6, 198448, Note_off_c, 11, 75, 64
6, 198480, Note_on_c, 11, 74, 58
6, 198528, Note_off_c, 11, 74, 64
6, 198560, Note_on_c, 11, 74, 58
6, 198608, Note_off_c, 11, 74, 64
6, 198640, Note_on_c, 11, 74, 58
6, 198688, Note_off_c, 11, 74, 64
6, 198720, Note_on_c, 11, 75, 58
6, 198912, Note_off_c, 11, 75, 64
6, 199680, Note_on_c, 11, 55, 58
6, 199752, Note_off_c, 11, 55, 64
6, 199800, Note_on_c, 11, 63, 58
6, 199872, Note_off_c, 11, 63, 64
6, 199920, Note_on_c, 11, 60, 58
6, 199992, Note_off_c, 11, 60, 64
6, 200040, Note_on_c, 11, 63, 58
6, 200112, Note_off_c, 11, 63, 64
6, 200160, Note_on_c, 11, 55, 58
6, 200232, Note_off_c, 11, 55, 64
6, 200280, Note_on_c, 11, 63, 58
6, 200352, Note_off_c, 11, 63, 64
6, 200400, Note_on_c, 11, 60, 58
6, 200472, Note_off_c, 11, 60, 64
6, 200520, Note_on_c, 11, 63, 58
6, 200592, Note_off_c, 11, 63, 64
6, 200640, Note_on_c, 11, 55, 58
6, 200712, Note_off_c, 11, 55, 64
6, 200760, Note_on_c, 11, 63, 58
6, 200832, Note_off_c, 11, 63, 64
6, 200880, Note_on_c, 11, 60, 58
6, 200952, Note_off_c, 11, 60, 64
6, 201000, Note_on_c, 11, 63, 58
6, 201072, Note_off_c, 11, 63, 64
6, 201120, Note_on_c, 11, 55, 58
6, 201192, Note_off_c, 11, 55, 64
6, 201240, Note_on_c, 11, 63, 58
6, 201312, Note_off_c, 11, 63, 64
6, 201360, Note_on_c, 11, 59, 58
6, 201432, Note_off_c, 11, 59, 64
6, 201480, Note_on_c, 11, 68, 58
6, 201552, Note_off_c, 11, 68, 64
6, 201600, Note_on_c, 11, 60, 58
6, 201672, Note_off_c, 11, 60, 64
6, 201720, Note_on_c, 11, 67, 58
6, 201792, Note_off_c, 11, 67, 64
6, 201840, Note_on_c, 11, 63, 58
6, 201912, Note_off_c, 11, 63, 64
6, 201960, Note_on_c, 11, 72, 58
6, 202032, Note_off_c, 11, 72, 64
6, 202080, Note_on_c, 11, 60, 58
6, 202152, Note_off_c, 11, 60, 64
6, 202200, Note_on_c, 11, 67, 58
6, 202272, Note_off_c, 11, 67, 64
6, 202320, Note_on_c, 11, 63, 58
6, 202392, Note_off_c, 11, 63, 64
6, 202440, Note_on_c, 11, 72, 58
6, 202512, Note_off_c, 11, 72, 64
6, 202560, Note_on_c, 11, 60, 58
6, 202632, Note_off_c, 11, 60, 64
6, 202680, Note_on_c, 11, 67, 58
6, 202752, Note_off_c, 11, 67, 64
6, 202800, Note_on_c, 11, 63, 58
6, 202872, Note_off_c, 11, 63, 64
6, 202920, Note_on_c, 11, 72, 58
6, 202992, Note_off_c, 11, 72, 64
6, 203040, Note_on_c, 11, 55, 58
6, 203112, Note_off_c, 11, 55, 64
6, 203160, Note_on_c, 11, 60, 58
6, 203232, Note_off_c, 11, 60, 64
6, 203280, Note_on_c, 11, 59, 58
6, 203352, Note_off_c, 11, 59, 64
6, 203400, Note_on_c, 11, 62, 58
6, 203472, Note_off_c, 11, 62, 64
6, 203520, Note_on_c, 11, 60, 58
6, 203712, Note_off_c, 11, 60, 64
6, 204000, Note_on_c, 11, 67, 58
6, 204072, Note_off_c, 11, 67, 64
6, 204120, Note_on_c, 11, 66, 58
6, 204192, Note_off_c, 11, 66, 64
6, 204240, Note_on_c, 11, 67, 58
6, 204312, Note_off_c, 11, 67, 64
6, 204360, Note_on_c, 11, 65, 58
6, 204432, Note_off_c, 11, 65, 64
6, 204480, Note_on_c, 11, 63, 58
6, 204552, Note_off_c, 11, 63, 64
6, 204600, Note_on_c, 11, 62, 58
6, 204672, Note_off_c, 11, 62, 64
6, 204720, Note_on_c, 11, 63, 58
6, 204792, Note_off_c, 11, 63, 64
6, 204840, Note_on_c, 11, 62, 58
6, 204912, Note_off_c, 11, 62, 64
6, 204960, Note_on_c, 11, 60, 58
6, 205032, Note_off_c, 11, 60, 64
6, 205080, Note_on_c, 11, 59, 58
6, 205152, Note_off_c, 11, 59, 64
6, 205200, Note_on_c, 11, 60, 58
6, 205272, Note_off_c, 11, 60, 64
6, 205320, Note_on_c, 11, 58, 58
6, 205392, Note_off_c, 11, 58, 64
6, 205440, Note_on_c, 11, 57, 105
6, 205584, Note_off_c, 11, 57, 64
6, 205680, Note_on_c, 11, 69, 105
6, 205752, Note_off_c, 11, 69, 64
6, 205800, Note_on_c, 11, 70, 105
6, 205872, Note_off_c, 11, 70, 64
6, 205920, Note_on_c, 11, 72, 105
6, 206064, Note_off_c, 11, 72, 64
6, 206160, Note_on_c, 11, 72, 105
6, 206232, Note_off_c, 11, 72, 64
6, 206280, Note_on_c, 11, 74, 105
6, 206352, Note_off_c, 11, 74, 64
6, 206400, Note_on_c, 11, 75, 105
6, 206544, Note_off_c, 11, 75, 64
6, 206640, Note_on_c, 11, 81, 105
6, 206712, Note_off_c, 11, 81, 64
6, 206760, Note_on_c, 11, 82, 105
6, 206832, Note_off_c, 11, 82, 64
6, 206880, Note_on_c, 11, 84, 105
6, 207024, Note_off_c, 11, 84, 64
6, 207120, Note_on_c, 11, 84, 105
6, 207192, Note_off_c, 11, 84, 64
6, 207240, Note_on_c, 11, 84, 105
6, 207312, Note_off_c, 11, 84, 64
6, 207360, Note_on_c, 11, 84, 105
6, 207576, Note_off_c, 11, 84, 64
6, 207720, Note_on_c, 11, 83, 105
6, 207792, Note_off_c, 11, 83, 64
6, 207840, Note_on_c, 11, 84, 105
6, 208056, Note_off_c, 11, 84, 64
6, 208200, Note_on_c, 11, 83, 105
6, 208272, Note_off_c, 11, 83, 64
6, 208320, Note_on_c, 11, 84, 105
6, 208392, Note_off_c, 11, 84, 64
6, 208440, Note_on_c, 11, 83, 105
6, 208512, Note_off_c, 11, 83, 64
6, 208560, Note_on_c, 11, 84, 105
6, 208632, Note_off_c, 11, 84, 64
6, 208680, Note_on_c, 11, 83, 105
6, 208752, Note_off_c, 11, 83, 64
6, 208800, Note_on_c, 11, 84, 105
6, 208872, Note_off_c, 11, 84, 64
6, 208920, Note_on_c, 11, 83, 105
6, 208992, Note_off_c, 11, 83, 64
6, 209040, Note_on_c, 11, 84, 105
6, 209112, Note_off_c, 11, 84, 64
6, 209160, Note_on_c, 11, 83, 105
6, 209232, Note_off_c, 11, 83, 64
6, 209280, Note_on_c, 11, 84, 105
6, 209328, Note_off_c, 11, 84, 64
6, 209360, Note_on_c, 11, 86, 105
6, 209408, Note_off_c, 11, 86, 64
6, 209440, Note_on_c, 11, 84, 105
6, 209488, Note_off_c, 11, 84, 64
6, 209520, Note_on_c, 11, 82, 105
6, 209568, Note_off_c, 11, 82, 64
6, 209600, Note_on_c, 11, 84, 58
6, 209648, Note_off_c, 11, 84, 64
6, 209680, Note_on_c, 11, 82, 58
6, 209728, Note_off_c, 11, 82, 64
6, 209760, Note_on_c, 11, 81, 58
6, 209808, Note_off_c, 11, 81, 64
6, 209840, Note_on_c, 11, 82, 58
6, 209888, Note_off_c, 11, 82, 64
6, 209920, Note_on_c, 11, 81, 58
6, 209968, Note_off_c, 11, 81, 64
6, 210000, Note_on_c, 11, 79, 58
6, 210048, Note_off_c, 11, 79, 64
6, 210080, Note_on_c, 11, 81, 58
6, 210128, Note_off_c, 11, 81, 64
6, 210160, Note_on_c, 11, 79, 58
6, 210208, Note_off_c, 11, 79, 64
6, 210240, Note_on_c, 11, 77, 58
6, 210288, Note_off_c, 11, 77, 64
6, 210320, Note_on_c, 11, 79, 58
6, 210368, Note_off_c, 11, 79, 64
6, 210400, Note_on_c, 11, 77, 58
6, 210448, Note_off_c, 11, 77, 64
6, 210480, Note_on_c, 11, 75, 58
6, 210528, Note_off_c, 11, 75, 64
6, 210560, Note_on_c, 11, 77, 58
6, 210608, Note_off_c, 11, 77, 64
6, 210640, Note_on_c, 11, 75, 58
6, 210688, Note_off_c, 11, 75, 64
6, 210720, Note_on_c, 11, 74, 58
6, 210768, Note_off_c, 11, 74, 64
6, 210800, Note_on_c, 11, 75, 58
6, 210848, Note_off_c, 11, 75, 64
6, 210880, Note_on_c, 11, 74, 58
6, 210928, Note_off_c, 11, 74, 64
6, 210960, Note_on_c, 11, 72, 58
6, 211008, Note_off_c, 11, 72, 64
6, 211040, Note_on_c, 11, 74, 58
6, 211088, Note_off_c, 11, 74, 64
6, 211120, Note_on_c, 11, 72, 58
6, 211168, Note_off_c, 11, 72, 64
6, 211200, Note_on_c, 11, 70, 58
6, 211272, Note_off_c, 11, 70, 64
6, 211320, Note_on_c, 11, 65, 58
6, 211392, Note_off_c, 11, 65, 64
6, 211440, Note_on_c, 11, 62, 58
6, 211512, Note_off_c, 11, 62, 64
6, 211560, Note_on_c, 11, 65, 58
6, 211632, Note_off_c, 11, 65, 64
6, 211680, Note_on_c, 11, 58, 58
6, 211752, Note_off_c, 11, 58, 64
6, 211800, Note_on_c, 11, 65, 58
6, 211872, Note_off_c, 11, 65, 64
6, 211920, Note_on_c, 11, 58, 58
6, 211992, Note_off_c, 11, 58, 64
6, 212040, Note_on_c, 11, 65, 58
6, 212112, Note_off_c, 11, 65, 64
6, 212160, Note_on_c, 11, 58, 58
6, 212232, Note_off_c, 11, 58, 64
6, 212280, Note_on_c, 11, 65, 58
6, 212352, Note_off_c, 11, 65, 64
6, 212400, Note_on_c, 11, 58, 58
6, 212472, Note_off_c, 11, 58, 64
6, 212520, Note_on_c, 11, 65, 58
6, 212592, Note_off_c, 11, 65, 64
6, 212640, Note_on_c, 11, 58, 58
6, 212712, Note_off_c, 11, 58, 64
6, 212760, Note_on_c, 11, 65, 58
6, 212832, Note_off_c, 11, 65, 64
6, 212880, Note_on_c, 11, 58, 58
6, 212952, Note_off_c, 11, 58, 64
6, 213000, Note_on_c, 11, 65, 58
6, 213072, Note_off_c, 11, 65, 64
6, 213120, Note_on_c, 11, 57, 58
6, 213192, Note_off_c, 11, 57, 64
6, 213240, Note_on_c, 11, 65, 58
6, 213312, Note_off_c, 11, 65, 64
6, 213360, Note_on_c, 11, 60, 58
6, 213432, Note_off_c, 11, 60, 64
6, 213480, Note_on_c, 11, 65, 58
6, 213552, Note_off_c, 11, 65, 64
6, 213600, Note_on_c, 11, 57, 58
6, 213672, Note_off_c, 11, 57, 64
6, 213720, Note_on_c, 11, 65, 58
6, 213792, Note_off_c, 11, 65, 64
6, 213840, Note_on_c, 11, 60, 58
6, 213912, Note_off_c, 11, 60, 64
6, 213960, Note_on_c, 11, 65, 58
6, 214032, Note_off_c, 11, 65, 64
6, 214080, Note_on_c, 11, 57, 58
6, 214152, Note_off_c, 11, 57, 64
6, 214200, Note_on_c, 11, 65, 58
6, 214272, Note_off_c, 11, 65, 64
6, 214320, Note_on_c, 11, 60, 58
6, 214392, Note_off_c, 11, 60, 64
6, 214440, Note_on_c, 11, 65, 58
6, 214512, Note_off_c, 11, 65, 64
6, 214560, Note_on_c, 11, 57, 58
6, 214632, Note_off_c, 11, 57, 64
6, 214680, Note_on_c, 11, 65, 58
6, 214752, Note_off_c, 11, 65, 64
6, 214800, Note_on_c, 11, 60, 58
6, 214872, Note_off_c, 11, 60, 64
6, 214920, Note_on_c, 11, 65, 58
6, 214992, Note_off_c, 11, 65, 64
6, 215040, Note_on_c, 11, 58, 58
6, 215112, Note_off_c, 11, 58, 64
6, 215160, Note_on_c, 11, 65, 58
6, 215232, Note_off_c, 11, 65, 64
6, 215280, Note_on_c, 11, 58, 58
6, 215352, Note_off_c, 11, 58, 64
6, 215400, Note_on_c, 11, 65, 58
6, 215472, Note_off_c, 11, 65, 64
6, 216000, Note_on_c, 11, 58, 58
6, 216384, Note_off_c, 11, 58, 64
6, 216720, Note_on_c, 11, 65, 58
6, 216960, Note_off_c, 11, 65, 64
6, 216960, Note_on_c, 11, 69, 58
6, 217200, Note_off_c, 11, 69, 64
6, 217200, Note_on_c, 11, 70, 58
6, 217392, Note_off_c, 11, 70, 64
6, 217440, Note_on_c, 11, 67, 58
6, 217560, Note_off_c, 11, 67, 64
6, 217560, Note_on_c, 11, 65, 58
6, 217680, Note_off_c, 11, 65, 64
6, 217680, Note_on_c, 11, 63, 58
6, 217800, Note_off_c, 11, 63, 64
6, 217800, Note_on_c, 11, 62, 58
6, 217896, Note_off_c, 11, 62, 64
6, 217920, Note_on_c, 11, 62, 58
6, 217980, Note_off_c, 11, 62, 64
6, 217980, Note_on_c, 11, 60, 58
6, 218124, Note_off_c, 11, 60, 64
6, 218160, Note_on_c, 11, 60, 58
6, 218352, Note_off_c, 11, 60, 64
6, 218400, Note_on_c, 11, 60, 58
6, 218592, Note_off_c, 11, 60, 64
6, 218640, Note_on_c, 11, 60, 58
6, 218832, Note_off_c, 11, 60, 64
6, 218880, Note_on_c, 11, 60, 58
6, 219072, Note_off_c, 11, 60, 64
6, 219360, Note_on_c, 11, 58, 58
6, 219412, Note_off_c, 11, 58, 64
6, 219440, Note_on_c, 11, 62, 58
6, 219492, Note_off_c, 11, 62, 64
6, 219520, Note_on_c, 11, 62, 58
6, 219572, Note_off_c, 11, 62, 64
6, 219600, Note_on_c, 11, 62, 58
6, 219652, Note_off_c, 11, 62, 64
6, 219680, Note_on_c, 11, 62, 58
6, 219732, Note_off_c, 11, 62, 64
6, 219760, Note_on_c, 11, 62, 58
6, 219812, Note_off_c, 11, 62, 64
6, 219840, Note_on_c, 11, 58, 58
6, 219892, Note_off_c, 11, 58, 64
6, 219920, Note_on_c, 11, 62, 58
6, 219972, Note_off_c, 11, 62, 64
6, 220000, Note_on_c, 11, 62, 58
6, 220052, Note_off_c, 11, 62, 64
6, 220080, Note_on_c, 11, 62, 58
6, 220132, Note_off_c, 11, 62, 64
6, 220160, Note_on_c, 11, 62, 58
6, 220212, Note_off_c, 11, 62, 64
6, 220240, Note_on_c, 11, 62, 58
6, 220292, Note_off_c, 11, 62, 64
6, 220320, Note_on_c, 11, 58, 58
6, 220372, Note_off_c, 11, 58, 64
6, 220400, Note_on_c, 11, 62, 58
6, 220452, Note_off_c, 11, 62, 64
6, 220480, Note_on_c, 11, 62, 58
6, 220532, Note_off_c, 11, 62, 64
6, 220560, Note_on_c, 11, 62, 58
6, 220612, Note_off_c, 11, 62, 64
6, 220640, Note_on_c, 11, 62, 58
6, 220692, Note_off_c, 11, 62, 64
6, 220720, Note_on_c, 11, 62, 58
6, 220772, Note_off_c, 11, 62, 64
6, 220800, Note_on_c, 11, 57, 58
6, 220852, Note_off_c, 11, 57, 64
6, 220880, Note_on_c, 11, 60, 58
6, 220932, Note_off_c, 11, 60, 64
6, 220960, Note_on_c, 11, 60, 58
6, 221012, Note_off_c, 11, 60, 64
6, 221040, Note_on_c, 11, 60, 58
6, 221092, Note_off_c, 11, 60, 64
6, 221120, Note_on_c, 11, 60, 58
6, 221172, Note_off_c, 11, 60, 64
6, 221200, Note_on_c, 11, 60, 58
6, 221252, Note_off_c, 11, 60, 64
6, 221280, Note_on_c, 11, 60, 58
6, 221332, Note_off_c, 11, 60, 64
6, 221360, Note_on_c, 11, 69, 58
6, 221412, Note_off_c, 11, 69, 64
6, 221440, Note_on_c, 11, 69, 58
6, 221492, Note_off_c, 11, 69, 64
6, 221520, Note_on_c, 11, 69, 58
6, 221572, Note_off_c, 11, 69, 64
6, 221600, Note_on_c, 11, 69, 58
6, 221652, Note_off_c, 11, 69, 64
6, 221680, Note_on_c, 11, 69, 58
6, 221732, Note_off_c, 11, 69, 64
6, 221760, Note_on_c, 11, 60, 58
6, 221812, Note_off_c, 11, 60, 64
6, 221840, Note_on_c, 11, 69, 58
6, 221892, Note_off_c, 11, 69, 64
6, 221920, Note_on_c, 11, 69, 58
6, 221972, Note_off_c, 11, 69, 64
6, 222000, Note_on_c, 11, 69, 58
6, 222052, Note_off_c, 11, 69, 64
6, 222080, Note_on_c, 11, 69, 58
6, 222132, Note_off_c, 11, 69, 64
6, 222160, Note_on_c, 11, 69, 58
6, 222212, Note_off_c, 11, 69, 64
6, 222240, Note_on_c, 11, 60, 58
6, 222292, Note_off_c, 11, 60, 64
6, 222320, Note_on_c, 11, 69, 58
6, 222372, Note_off_c, 11, 69, 64
6, 222400, Note_on_c, 11, 69, 58
6, 222452, Note_off_c, 11, 69, 64
6, 222480, Note_on_c, 11, 69, 58
6, 222532, Note_off_c, 11, 69, 64
6, 222560, Note_on_c, 11, 69, 58
6, 222612, Note_off_c, 11, 69, 64
6, 222640, Note_on_c, 11, 69, 58
6, 222692, Note_off_c, 11, 69, 64
6, 222720, Note_on_c, 11, 65, 58
6, 222772, Note_off_c, 11, 65, 64
6, 222800, Note_on_c, 11, 70, 58
6, 222852, Note_off_c, 11, 70, 64
6, 222880, Note_on_c, 11, 70, 58
6, 222932, Note_off_c, 11, 70, 64
6, 222960, Note_on_c, 11, 70, 58
6, 223012, Note_off_c, 11, 70, 64
6, 223040, Note_on_c, 11, 70, 58
6, 223092, Note_off_c, 11, 70, 64
6, 223120, Note_on_c, 11, 70, 58
6, 223172, Note_off_c, 11, 70, 64
6, 223200, Note_on_c, 11, 65, 70
6, 223380, Note_off_c, 11, 65, 64
6, 223380, Note_on_c, 11, 67, 70
6, 223440, Note_off_c, 11, 67, 64
6, 223440, Note_on_c, 11, 69, 70
6, 223620, Note_off_c, 11, 69, 64
6, 223620, Note_on_c, 11, 70, 70
6, 223668, Note_off_c, 11, 70, 64
6, 223680, Note_on_c, 11, 69, 70
6, 223800, Note_off_c, 11, 69, 64
6, 223800, Note_on_c, 11, 67, 70
6, 223920, Note_off_c, 11, 67, 64
6, 223920, Note_on_c, 11, 65, 70
6, 224112, Note_off_c, 11, 65, 64
6, 224160, Note_on_c, 11, 70, 70
6, 224340, Note_off_c, 11, 70, 64
6, 224340, Note_on_c, 11, 69, 70
6, 224400, Note_off_c, 11, 69, 64
6, 224400, Note_on_c, 11, 67, 70
6, 224580, Note_off_c, 11, 67, 64
6, 224580, Note_on_c, 11, 65, 70
6, 224628, Note_off_c, 11, 65, 64
6, 224640, Note_on_c, 11, 65, 70
6, 224760, Note_off_c, 11, 65, 64
6, 224760, Note_on_c, 11, 63, 70
6, 224880, Note_off_c, 11, 63, 64
6, 224880, Note_on_c, 11, 62, 70
6, 225072, Note_off_c, 11, 62, 64
6, 225120, Note_on_c, 11, 70, 70
6, 225240, Note_off_c, 11, 70, 64
6, 225240, Note_on_c, 11, 69, 70
6, 225360, Note_off_c, 11, 69, 64
6, 225360, Note_on_c, 11, 68, 70
6, 225480, Note_off_c, 11, 68, 64
6, 225480, Note_on_c, 11, 67, 70
6, 225600, Note_off_c, 11, 67, 64
6, 225600, Note_on_c, 11, 66, 70
6, 225720, Note_off_c, 11, 66, 64
6, 225720, Note_on_c, 11, 67, 70
6, 225840, Note_off_c, 11, 67, 64
6, 225840, Note_on_c, 11, 63, 70
6, 225960, Note_off_c, 11, 63, 64
6, 225960, Note_on_c, 11, 60, 70
6, 226056, Note_off_c, 11, 60, 64
6, 226080, Note_on_c, 11, 58, 70
6, 226320, Note_off_c, 11, 58, 64
6, 226320, Note_on_c, 11, 62, 70
6, 226380, Note_off_c, 11, 62, 64
6, 226380, Note_on_c, 11, 60, 70
6, 226560, Note_off_c, 11, 60, 64
6, 226560, Note_on_c, 11, 58, 70
6, 226704, Note_off_c, 11, 58, 64
6, 226800, Note_on_c, 11, 65, 105
6, 226848, Note_off_c, 11, 65, 64
6, 226880, Note_on_c, 11, 65, 105
6, 226928, Note_off_c, 11, 65, 64
6, 226960, Note_on_c, 11, 65, 105
6, 227008, Note_off_c, 11, 65, 64
6, 227040, Note_on_c, 11, 65, 105
6, 227088, Note_off_c, 11, 65, 64
6, 227120, Note_on_c, 11, 65, 105
6, 227168, Note_off_c, 11, 65, 64
6, 227200, Note_on_c, 11, 65, 105
6, 227248, Note_off_c, 11, 65, 64
6, 227280, Note_on_c, 11, 65, 105
6, 227328, Note_off_c, 11, 65, 64
6, 227360, Note_on_c, 11, 65, 105
6, 227408, Note_off_c, 11, 65, 64
6, 227440, Note_on_c, 11, 65, 105
6, 227488, Note_off_c, 11, 65, 64
6, 227520, Note_on_c, 11, 65, 105
6, 227568, Note_off_c, 11, 65, 64
6, 227600, Note_on_c, 11, 65, 105
6, 227648, Note_off_c, 11, 65, 64
6, 227680, Note_on_c, 11, 65, 105
6, 227728, Note_off_c, 11, 65, 64
6, 227760, Note_on_c, 11, 70, 105
6, 227808, Note_off_c, 11, 70, 64
6, 227840, Note_on_c, 11, 70, 105
6, 227888, Note_off_c, 11, 70, 64
6, 227920, Note_on_c, 11, 70, 105
6, 227968, Note_off_c, 11, 70, 64
6, 228000, Note_on_c, 11, 72, 105
6, 228048, Note_off_c, 11, 72, 64
6, 228080, Note_on_c, 11, 72, 105
6, 228128, Note_off_c, 11, 72, 64
6, 228160, Note_on_c, 11, 72, 105
6, 228208, Note_off_c, 11, 72, 64
6, 228240, Note_on_c, 11, 74, 105
6, 228288, Note_off_c, 11, 74, 64
6, 228320, Note_on_c, 11, 74, 105
6, 228368, Note_off_c, 11, 74, 64
6, 228400, Note_on_c, 11, 74, 105
6, 228448, Note_off_c, 11, 74, 64
6, 228480, Note_on_c, 11, 75, 105
6, 228528, Note_off_c, 11, 75, 64
6, 228560, Note_on_c, 11, 75, 105
6, 228608, Note_off_c, 11, 75, 64
6, 228640, Note_on_c, 11, 75, 105
6, 228688, Note_off_c, 11, 75, 64
6, 228720, Note_on_c, 11, 67, 105
6, 228768, Note_off_c, 11, 67, 64
6, 228800, Note_on_c, 11, 67, 105
6, 228848, Note_off_c, 11, 67, 64
6, 228880, Note_on_c, 11, 67, 105
6, 228928, Note_off_c, 11, 67, 64
6, 228960, Note_on_c, 11, 67, 105
6, 229008, Note_off_c, 11, 67, 64
6, 229040, Note_on_c, 11, 67, 105
6, 229088, Note_off_c, 11, 67, 64
6, 229120, Note_on_c, 11, 67, 105
6, 229168, Note_off_c, 11, 67, 64
6, 229200, Note_on_c, 11, 75, 105
6, 229248, Note_off_c, 11, 75, 64
6, 229280, Note_on_c, 11, 75, 105
6, 229328, Note_off_c, 11, 75, 64
6, 229360, Note_on_c, 11, 75, 105
6, 229408, Note_off_c, 11, 75, 64
6, 229440, Note_on_c, 11, 74, 105
6, 229488, Note_off_c, 11, 74, 64
6, 229520, Note_on_c, 11, 74, 105
6, 229568, Note_off_c, 11, 74, 64
6, 229600, Note_on_c, 11, 74, 105
6, 229648, Note_off_c, 11, 74, 64
6, 229680, Note_on_c, 11, 72, 105
6, 229728, Note_off_c, 11, 72, 64
6, 229760, Note_on_c, 11, 72, 105
6, 229808, Note_off_c, 11, 72, 64
6, 229840, Note_on_c, 11, 72, 105
6, 229888, Note_off_c, 11, 72, 64
6, 229920, Note_on_c, 11, 70, 105
6, 229968, Note_off_c, 11, 70, 64
6, 230000, Note_on_c, 11, 70, 105
6, 230048, Note_off_c, 11, 70, 64
6, 230080, Note_on_c, 11, 70, 105
6, 230128, Note_off_c, 11, 70, 64
6, 230160, Note_on_c, 11, 69, 105
6, 230208, Note_off_c, 11, 69, 64
6, 230240, Note_on_c, 11, 69, 105
6, 230288, Note_off_c, 11, 69, 64
6, 230320, Note_on_c, 11, 69, 105
6, 230368, Note_off_c, 11, 69, 64
6, 230400, Note_on_c, 11, 70, 92
6, 230544, Note_off_c, 11, 70, 64
6, 230640, Note_on_c, 11, 65, 105
6, 230704, Note_off_c, 11, 65, 64
6, 230720, Note_on_c, 11, 65, 105
6, 230768, Note_off_c, 11, 65, 64
6, 230800, Note_on_c, 11, 65, 105
6, 230848, Note_off_c, 11, 65, 64
6, 230880, Note_on_c, 11, 65, 105
6, 230928, Note_off_c, 11, 65, 64
6, 230960, Note_on_c, 11, 65, 105
6, 231008, Note_off_c, 11, 65, 64
6, 231040, Note_on_c, 11, 65, 105
6, 231088, Note_off_c, 11, 65, 64
6, 231120, Note_on_c, 11, 65, 105
6, 231168, Note_off_c, 11, 65, 64
6, 231200, Note_on_c, 11, 65, 105
6, 231248, Note_off_c, 11, 65, 64
6, 231280, Note_on_c, 11, 65, 105
6, 231328, Note_off_c, 11, 65, 64
6, 231360, Note_on_c, 11, 65, 105
6, 231408, Note_off_c, 11, 65, 64
6, 231440, Note_on_c, 11, 65, 105
6, 231488, Note_off_c, 11, 65, 64
6, 231520, Note_on_c, 11, 65, 105
6, 231568, Note_off_c, 11, 65, 64
6, 231600, Note_on_c, 11, 70, 105
6, 231648, Note_off_c, 11, 70, 64
6, 231680, Note_on_c, 11, 70, 105
6, 231728, Note_off_c, 11, 70, 64
6, 231760, Note_on_c, 11, 70, 105
6, 231808, Note_off_c, 11, 70, 64
6, 231840, Note_on_c, 11, 72, 105
6, 231888, Note_off_c, 11, 72, 64
6, 231920, Note_on_c, 11, 72, 105
6, 231968, Note_off_c, 11, 72, 64
6, 232000, Note_on_c, 11, 72, 105
6, 232048, Note_off_c, 11, 72, 64
6, 232080, Note_on_c, 11, 74, 105
6, 232128, Note_off_c, 11, 74, 64
6, 232160, Note_on_c, 11, 74, 105
6, 232208, Note_off_c, 11, 74, 64
6, 232240, Note_on_c, 11, 74, 105
6, 232288, Note_off_c, 11, 74, 64
6, 232320, Note_on_c, 11, 75, 105
6, 232368, Note_off_c, 11, 75, 64
6, 232400, Note_on_c, 11, 75, 105
6, 232448, Note_off_c, 11, 75, 64
6, 232480, Note_on_c, 11, 75, 105
6, 232528, Note_off_c, 11, 75, 64
6, 232560, Note_on_c, 11, 77, 105
6, 232608, Note_off_c, 11, 77, 64
6, 232640, Note_on_c, 11, 77, 105
6, 232688, Note_off_c, 11, 77, 64
6, 232720, Note_on_c, 11, 77, 105
6, 232768, Note_off_c, 11, 77, 64
6, 232800, Note_on_c, 11, 75, 105
6, 232848, Note_off_c, 11, 75, 64
6, 232880, Note_on_c, 11, 75, 105
6, 232928, Note_off_c, 11, 75, 64
6, 232960, Note_on_c, 11, 75, 105
6, 233008, Note_off_c, 11, 75, 64
6, 233040, Note_on_c, 11, 79, 105
6, 233088, Note_off_c, 11, 79, 64
6, 233120, Note_on_c, 11, 79, 105
6, 233168, Note_off_c, 11, 79, 64
6, 233200, Note_on_c, 11, 79, 105
6, 233248, Note_off_c, 11, 79, 64
6, 233280, Note_on_c, 11, 77, 105
6, 233328, Note_off_c, 11, 77, 64
6, 233360, Note_on_c, 11, 77, 105
6, 233408, Note_off_c, 11, 77, 64
6, 233440, Note_on_c, 11, 77, 105
6, 233488, Note_off_c, 11, 77, 64
6, 233520, Note_on_c, 11, 75, 105
6, 233568, Note_off_c, 11, 75, 64
6, 233600, Note_on_c, 11, 75, 105
6, 233648, Note_off_c, 11, 75, 64
6, 233680, Note_on_c, 11, 75, 105
6, 233728, Note_off_c, 11, 75, 64
6, 233760, Note_on_c, 11, 74, 105
6, 233808, Note_off_c, 11, 74, 64
6, 233840, Note_on_c, 11, 74, 105
6, 233888, Note_off_c, 11, 74, 64
6, 233920, Note_on_c, 11, 74, 105
6, 233968, Note_off_c, 11, 74, 64
6, 234000, Note_on_c, 11, 72, 105
6, 234048, Note_off_c, 11, 72, 64
6, 234080, Note_on_c, 11, 72, 105
6, 234128, Note_off_c, 11, 72, 64
6, 234160, Note_on_c, 11, 72, 105
6, 234208, Note_off_c, 11, 72, 64
6, 234240, Note_on_c, 11, 70, 105
6, 234288, Note_off_c, 11, 70, 64
6, 234320, Note_on_c, 11, 70, 105
6, 234368, Note_off_c, 11, 70, 64
6, 234400, Note_on_c, 11, 70, 105
6, 234448, Note_off_c, 11, 70, 64
6, 234480, Note_on_c, 11, 79, 105
6, 234528, Note_off_c, 11, 79, 64
6, 234560, Note_on_c, 11, 79, 105
6, 234608, Note_off_c, 11, 79, 64
6, 234640, Note_on_c, 11, 79, 105
6, 234688, Note_off_c, 11, 79, 64
6, 234720, Note_on_c, 11, 77, 105
6, 234768, Note_off_c, 11, 77, 64
6, 234800, Note_on_c, 11, 77, 105
6, 234848, Note_off_c, 11, 77, 64
6, 234880, Note_on_c, 11, 77, 105
6, 234928, Note_off_c, 11, 77, 64
6, 234960, Note_on_c, 11, 75, 105
6, 235008, Note_off_c, 11, 75, 64
6, 235040, Note_on_c, 11, 75, 105
6, 235088, Note_off_c, 11, 75, 64
6, 235120, Note_on_c, 11, 75, 105
6, 235168, Note_off_c, 11, 75, 64
6, 235200, Note_on_c, 11, 74, 105
6, 235248, Note_off_c, 11, 74, 64
6, 235280, Note_on_c, 11, 74, 105
6, 235328, Note_off_c, 11, 74, 64
6, 235360, Note_on_c, 11, 74, 105
6, 235408, Note_off_c, 11, 74, 64
6, 235440, Note_on_c, 11, 75, 105
6, 235488, Note_off_c, 11, 75, 64
6, 235520, Note_on_c, 11, 75, 105
6, 235568, Note_off_c, 11, 75, 64
6, 235600, Note_on_c, 11, 75, 105
6, 235648, Note_off_c, 11, 75, 64
6, 235680, Note_on_c, 11, 74, 105
6, 235728, Note_off_c, 11, 74, 64
6, 235760, Note_on_c, 11, 74, 105
6, 235808, Note_off_c, 11, 74, 64
6, 235840, Note_on_c, 11, 74, 105
6, 235888, Note_off_c, 11, 74, 64
6, 235920, Note_on_c, 11, 72, 105
6, 235968, Note_off_c, 11, 72, 64
6, 236000, Note_on_c, 11, 72, 105
6, 236048, Note_off_c, 11, 72, 64
6, 236080, Note_on_c, 11, 72, 105
6, 236128, Note_off_c, 11, 72, 64
6, 236160, Note_on_c, 11, 74, 105
6, 236160, Note_on_c, 11, 82, 105
6, 236212, Note_off_c, 11, 82, 64
6, 236212, Note_off_c, 11, 74, 64
6, 236240, Note_on_c, 11, 74, 105
6, 236240, Note_on_c, 11, 82, 105
6, 236292, Note_off_c, 11, 82, 64
6, 236292, Note_off_c, 11, 74, 64
6, 236320, Note_on_c, 11, 82, 105
6, 236320, Note_on_c, 11, 74, 105
6, 236372, Note_off_c, 11, 74, 64
6, 236372, Note_off_c, 11, 82, 64
6, 236400, Note_on_c, 11, 82, 105
6, 236400, Note_on_c, 11, 74, 105
6, 236452, Note_off_c, 11, 74, 64
6, 236452, Note_off_c, 11, 82, 64
6, 236480, Note_on_c, 11, 74, 105
6, 236480, Note_on_c, 11, 82, 105
6, 236532, Note_off_c, 11, 82, 64
6, 236532, Note_off_c, 11, 74, 64
6, 236560, Note_on_c, 11, 82, 105
6, 236560, Note_on_c, 11, 74, 105
6, 236612, Note_off_c, 11, 74, 64
6, 236612, Note_off_c, 11, 82, 64
6, 236640, Note_on_c, 11, 74, 105
6, 236640, Note_on_c, 11, 82, 105
6, 236692, Note_off_c, 11, 82, 64
6, 236692, Note_off_c, 11, 74, 64
6, 236720, Note_on_c, 11, 82, 105
6, 236720, Note_on_c, 11, 74, 105
6, 236772, Note_off_c, 11, 74, 64
6, 236772, Note_off_c, 11, 82, 64
6, 236800, Note_on_c, 11, 74, 105
6, 236800, Note_on_c, 11, 82, 105
6, 236852, Note_off_c, 11, 82, 64
6, 236852, Note_off_c, 11, 74, 64
6, 236880, Note_on_c, 11, 74, 105
6, 236880, Note_on_c, 11, 82, 105
6, 236932, Note_off_c, 11, 82, 64
6, 236932, Note_off_c, 11, 74, 64
6, 236960, Note_on_c, 11, 74, 105
6, 236960, Note_on_c, 11, 82, 105
6, 237012, Note_off_c, 11, 82, 64
6, 237012, Note_off_c, 11, 74, 64
6, 237040, Note_on_c, 11, 82, 105
6, 237040, Note_on_c, 11, 74, 105
6, 237092, Note_off_c, 11, 74, 64
6, 237092, Note_off_c, 11, 82, 64
6, 237120, Note_on_c, 11, 81, 105
6, 237120, Note_on_c, 11, 72, 105
6, 237172, Note_off_c, 11, 72, 64
6, 237172, Note_off_c, 11, 81, 64
6, 237200, Note_on_c, 11, 72, 105
6, 237200, Note_on_c, 11, 81, 105
6, 237252, Note_off_c, 11, 81, 64
6, 237252, Note_off_c, 11, 72, 64
6, 237280, Note_on_c, 11, 81, 105
6, 237280, Note_on_c, 11, 72, 105
6, 237332, Note_off_c, 11, 72, 64
6, 237332, Note_off_c, 11, 81, 64
6, 237360, Note_on_c, 11, 72, 105
6, 237360, Note_on_c, 11, 81, 105
6, 237412, Note_off_c, 11, 81, 64
6, 237412, Note_off_c, 11, 72, 64
6, 237440, Note_on_c, 11, 72, 105
6, 237440, Note_on_c, 11, 81, 105
6, 237492, Note_off_c, 11, 81, 64
6, 237492, Note_off_c, 11, 72, 64
6, 237520, Note_on_c, 11, 72, 105
6, 237520, Note_on_c, 11, 81, 105
6, 237572, Note_off_c, 11, 81, 64
6, 237572, Note_off_c, 11, 72, 64
6, 237600, Note_on_c, 11, 72, 105
6, 237600, Note_on_c, 11, 81, 105
6, 237652, Note_off_c, 11, 81, 64
6, 237652, Note_off_c, 11, 72, 64
6, 237680, Note_on_c, 11, 81, 105
6, 237680, Note_on_c, 11, 72, 105
6, 237732, Note_off_c, 11, 72, 64
6, 237732, Note_off_c, 11, 81, 64
6, 237760, Note_on_c, 11, 72, 105
6, 237760, Note_on_c, 11, 81, 105
6, 237812, Note_off_c, 11, 81, 64
6, 237812, Note_off_c, 11, 72, 64
6, 237840, Note_on_c, 11, 81, 105
6, 237840, Note_on_c, 11, 72, 105
6, 237892, Note_off_c, 11, 72, 64
6, 237892, Note_off_c, 11, 81, 64
6, 237920, Note_on_c, 11, 81, 105
6, 237920, Note_on_c, 11, 72, 105
6, 237972, Note_off_c, 11, 72, 64
6, 237972, Note_off_c, 11, 81, 64
6, 238000, Note_on_c, 11, 72, 105
6, 238000, Note_on_c, 11, 81, 105
6, 238052, Note_off_c, 11, 81, 64
6, 238052, Note_off_c, 11, 72, 64
6, 238080, Note_on_c, 11, 82, 105
6, 238080, Note_on_c, 11, 74, 105
6, 238236, Note_off_c, 11, 74, 64
6, 238236, Note_off_c, 11, 82, 64
6, 241920, Note_on_c, 11, 70, 105
6, 242064, Note_off_c, 11, 70, 64
6, 242160, Note_on_c, 11, 70, 105
6, 242232, Note_off_c, 11, 70, 64
6, 242280, Note_on_c, 11, 69, 105
6, 242352, Note_off_c, 11, 69, 64
6, 242400, Note_on_c, 11, 70, 105
6, 242472, Note_off_c, 11, 70, 64
6, 242520, Note_on_c, 11, 82, 105
6, 242592, Note_off_c, 11, 82, 64
6, 242640, Note_on_c, 11, 70, 105
6, 242712, Note_off_c, 11, 70, 64
6, 242760, Note_on_c, 11, 72, 105
6, 242832, Note_off_c, 11, 72, 64
6, 242880, Note_on_c, 11, 74, 105
6, 242952, Note_off_c, 11, 74, 64
6, 243000, Note_on_c, 11, 62, 105
6, 243072, Note_off_c, 11, 62, 64
6, 243120, Note_on_c, 11, 74, 105
6, 243192, Note_off_c, 11, 74, 64
6, 243240, Note_on_c, 11, 74, 105
6, 243312, Note_off_c, 11, 74, 64
6, 243360, Note_on_c, 11, 74, 105
6, 243432, Note_off_c, 11, 74, 64
6, 243480, Note_on_c, 11, 74, 105
6, 243552, Note_off_c, 11, 74, 64
6, 243600, Note_on_c, 11, 75, 105
6, 243672, Note_off_c, 11, 75, 64
6, 243720, Note_on_c, 11, 74, 105
6, 243792, Note_off_c, 11, 74, 64
6, 243840, Note_on_c, 11, 72, 105
6, 243912, Note_off_c, 11, 72, 64
6, 243960, Note_on_c, 11, 60, 105
6, 244032, Note_off_c, 11, 60, 64
6, 244080, Note_on_c, 11, 72, 105
6, 244152, Note_off_c, 11, 72, 64
6, 244200, Note_on_c, 11, 72, 105
6, 244272, Note_off_c, 11, 72, 64
6, 244320, Note_on_c, 11, 72, 105
6, 244392, Note_off_c, 11, 72, 64
6, 244440, Note_on_c, 11, 72, 105
6, 244512, Note_off_c, 11, 72, 64
6, 244560, Note_on_c, 11, 74, 105
6, 244632, Note_off_c, 11, 74, 64
6, 244680, Note_on_c, 11, 72, 105
6, 244752, Note_off_c, 11, 72, 64
6, 244800, Note_on_c, 11, 70, 105
6, 244872, Note_off_c, 11, 70, 64
6, 244920, Note_on_c, 11, 70, 105
6, 244992, Note_off_c, 11, 70, 64
6, 245040, Note_on_c, 11, 72, 105
6, 245112, Note_off_c, 11, 72, 64
6, 245160, Note_on_c, 11, 74, 105
6, 245232, Note_off_c, 11, 74, 64
6, 245280, Note_on_c, 11, 74, 105
6, 245400, Note_off_c, 11, 74, 64
6, 245400, Note_on_c, 11, 72, 105
6, 245472, Note_off_c, 11, 72, 64
6, 245520, Note_on_c, 11, 70, 105
6, 245592, Note_off_c, 11, 70, 64
6, 245640, Note_on_c, 11, 69, 105
6, 245712, Note_off_c, 11, 69, 64
6, 245760, Note_on_c, 11, 70, 105
6, 245952, Note_off_c, 11, 70, 64
6, 246480, Note_on_c, 11, 65, 92
6, 246480, Note_on_c, 11, 72, 92
6, 246480, Note_on_c, 11, 81, 92
6, 246612, Note_off_c, 11, 81, 64
6, 246612, Note_off_c, 11, 72, 64
6, 246612, Note_off_c, 11, 65, 64
6, 246720, Note_on_c, 11, 62, 92
6, 246720, Note_on_c, 11, 70, 92
6, 246720, Note_on_c, 11, 82, 92
6, 246852, Note_off_c, 11, 82, 64
6, 246852, Note_off_c, 11, 70, 64
6, 246852, Note_off_c, 11, 62, 64
6, 247440, Note_on_c, 11, 57, 92
6, 247440, Note_on_c, 11, 65, 92
6, 247440, Note_on_c, 11, 75, 92
6, 247572, Note_off_c, 11, 75, 64
6, 247572, Note_off_c, 11, 65, 64
6, 247572, Note_off_c, 11, 57, 64
6, 247680, Note_on_c, 11, 58, 92
6, 247680, Note_on_c, 11, 74, 92
6, 247680, Note_on_c, 11, 65, 92
6, 247812, Note_off_c, 11, 65, 64
6, 247812, Note_off_c, 11, 74, 64
6, 247812, Note_off_c, 11, 58, 64
6, 248400, Note_on_c, 11, 65, 92
6, 248400, Note_on_c, 11, 72, 92
6, 248400, Note_on_c, 11, 81, 92
6, 248532, Note_off_c, 11, 81, 64
6, 248532, Note_off_c, 11, 72, 64
6, 248532, Note_off_c, 11, 65, 64
6, 248640, Note_on_c, 11, 62, 92
6, 248640, Note_on_c, 11, 70, 92
6, 248640, Note_on_c, 11, 82, 92
6, 248772, Note_off_c, 11, 82, 64
6, 248772, Note_off_c, 11, 70, 64
6, 248772, Note_off_c, 11, 62, 64
6, 249360, Note_on_c, 11, 57, 92
6, 249360, Note_on_c, 11, 65, 92
6, 249360, Note_on_c, 11, 75, 92
6, 249492, Note_off_c, 11, 75, 64
6, 249492, Note_off_c, 11, 65, 64
6, 249492, Note_off_c, 11, 57, 64
6, 249600, Note_on_c, 11, 70, 92
6, 249652, Note_off_c, 11, 70, 64
6, 249680, Note_on_c, 11, 72, 92
6, 249732, Note_off_c, 11, 72, 64
6, 249760, Note_on_c, 11, 74, 92
6, 249812, Note_off_c, 11, 74, 64
6, 249840, Note_on_c, 11, 75, 92
6, 249892, Note_off_c, 11, 75, 64
6, 249920, Note_on_c, 11, 77, 92
6, 249972, Note_off_c, 11, 77, 64
6, 250000, Note_on_c, 11, 79, 92
6, 250052, Note_off_c, 11, 79, 64
6, 250080, Note_on_c, 11, 77, 92
6, 250132, Note_off_c, 11, 77, 64
6, 250160, Note_on_c, 11, 75, 92
6, 250212, Note_off_c, 11, 75, 64
6, 250240, Note_on_c, 11, 74, 92
6, 250292, Note_off_c, 11, 74, 64
6, 250320, Note_on_c, 11, 72, 92
6, 250372, Note_off_c, 11, 72, 64
6, 250400, Note_on_c, 11, 70, 92
6, 250452, Note_off_c, 11, 70, 64
6, 250480, Note_on_c, 11, 69, 92
6, 250532, Note_off_c, 11, 69, 64
6, 250560, Note_on_c, 11, 67, 92
6, 250612, Note_off_c, 11, 67, 64
6, 250640, Note_on_c, 11, 69, 92
6, 250692, Note_off_c, 11, 69, 64
6, 250720, Note_on_c, 11, 70, 92
6, 250772, Note_off_c, 11, 70, 64
6, 250800, Note_on_c, 11, 72, 92
6, 250852, Note_off_c, 11, 72, 64
6, 250880, Note_on_c, 11, 74, 92
6, 250932, Note_off_c, 11, 74, 64
6, 250960, Note_on_c, 11, 75, 92
6, 251012, Note_off_c, 11, 75, 64
6, 251040, Note_on_c, 11, 74, 92
6, 251092, Note_off_c, 11, 74, 64
6, 251120, Note_on_c, 11, 72, 92
6, 251172, Note_off_c, 11, 72, 64
6, 251200, Note_on_c, 11, 70, 92
6, 251252, Note_off_c, 11, 70, 64
6, 251280, Note_on_c, 11, 69, 92
6, 251332, Note_off_c, 11, 69, 64
6, 251360, Note_on_c, 11, 67, 92
6, 251412, Note_off_c, 11, 67, 64
6, 251440, Note_on_c, 11, 65, 92
6, 251492, Note_off_c, 11, 65, 64
6, 251520, Note_on_c, 11, 63, 92
6, 251637, Note_off_c, 11, 63, 64
6, 251700, Note_on_c, 11, 63, 92
6, 251739, Note_off_c, 11, 63, 64
6, 251760, Note_on_c, 11, 62, 92
6, 251877, Note_off_c, 11, 62, 64
6, 251940, Note_on_c, 11, 60, 92
6, 251979, Note_off_c, 11, 60, 64
6, 252000, Note_on_c, 11, 65, 92
6, 252156, Note_off_c, 11, 65, 64
6, 252240, Note_on_c, 11, 75, 92
6, 252240, Note_on_c, 11, 65, 92
6, 252396, Note_off_c, 11, 65, 64
6, 252396, Note_off_c, 11, 75, 64
6, 252480, Note_on_c, 11, 58, 92
6, 252480, Note_on_c, 11, 65, 92
6, 252480, Note_on_c, 11, 74, 92
6, 252636, Note_off_c, 11, 74, 64
6, 252636, Note_off_c, 11, 65, 64
6, 252636, Note_off_c, 11, 58, 64
6, 252720, Note_on_c, 11, 58, 105
6, 252772, Note_off_c, 11, 58, 64
6, 252800, Note_on_c, 11, 58, 105
6, 252852, Note_off_c, 11, 58, 64
6, 252880, Note_on_c, 11, 58, 105
6, 252932, Note_off_c, 11, 58, 64
6, 252960, Note_on_c, 11, 58, 105
6, 253012, Note_off_c, 11, 58, 64
6, 253040, Note_on_c, 11, 58, 105
6, 253092, Note_off_c, 11, 58, 64
6, 253120, Note_on_c, 11, 58, 105
6, 253172, Note_off_c, 11, 58, 64
6, 253200, Note_on_c, 11, 58, 105
6, 253252, Note_off_c, 11, 58, 64
6, 253280, Note_on_c, 11, 58, 105
6, 253332, Note_off_c, 11, 58, 64
6, 253360, Note_on_c, 11, 58, 105
6, 253412, Note_off_c, 11, 58, 64
6, 253440, Note_on_c, 11, 58, 105
6, 253572, Note_off_c, 11, 58, 64
6, 253680, Note_on_c, 11, 62, 105
6, 253812, Note_off_c, 11, 62, 64
6, 253920, Note_on_c, 11, 65, 105
6, 254052, Note_off_c, 11, 65, 64
6, 254400, Note_on_c, 11, 62, 58
6, 254517, Note_off_c, 11, 62, 64
6, 254580, Note_on_c, 11, 62, 58
6, 254619, Note_off_c, 11, 62, 64
6, 254640, Note_on_c, 11, 65, 58
6, 254757, Note_off_c, 11, 65, 64
6, 254820, Note_on_c, 11, 65, 58
6, 254859, Note_off_c, 11, 65, 64
6, 254880, Note_on_c, 11, 70, 58
6, 255012, Note_off_c, 11, 70, 64
6, 255360, Note_on_c, 11, 70, 105
6, 255477, Note_off_c, 11, 70, 64
6, 255540, Note_on_c, 11, 70, 105
6, 255579, Note_off_c, 11, 70, 64
6, 255600, Note_on_c, 11, 74, 105
6, 255717, Note_off_c, 11, 74, 64
6, 255780, Note_on_c, 11, 74, 105
6, 255819, Note_off_c, 11, 74, 64
6, 255840, Note_on_c, 11, 77, 105
6, 255957, Note_off_c, 11, 77, 64
6, 256020, Note_on_c, 11, 77, 105
6, 256059, Note_off_c, 11, 77, 64
6, 256080, Note_on_c, 11, 82, 105
6, 256197, Note_off_c, 11, 82, 64
6, 256260, Note_on_c, 11, 82, 105
6, 256299, Note_off_c, 11, 82, 64
6, 256320, Note_on_c, 11, 77, 105
6, 256437, Note_off_c, 11, 77, 64
6, 256500, Note_on_c, 11, 77, 105
6, 256539, Note_off_c, 11, 77, 64
6, 256560, Note_on_c, 11, 74, 105
6, 256677, Note_off_c, 11, 74, 64
6, 256740, Note_on_c, 11, 74, 105
6, 256779, Note_off_c, 11, 74, 64
6, 256800, Note_on_c, 11, 70, 105
6, 256956, Note_off_c, 11, 70, 64
6, 256956, End_track
7, 0, Start_track
7, 0, Program_c, 12, 48
7, 0, Control_c, 12, 7, 123
7, 0, Control_c, 12, 10, 98
7, 0, Control_c, 12, 91, 70
7, 480, Note_on_c, 12, 70, 120
7, 672, Note_off_c, 12, 70, 64
7, 1440, Note_on_c, 12, 58, 70
7, 1488, Note_off_c, 12, 58, 64
7, 1520, Note_on_c, 12, 62, 70
7, 1568, Note_off_c, 12, 62, 64
7, 1600, Note_on_c, 12, 60, 70
7, 1648, Note_off_c, 12, 60, 64
7, 1680, Note_on_c, 12, 58, 70
7, 1728, Note_off_c, 12, 58, 64
7, 1760, Note_on_c, 12, 62, 70
7, 1808, Note_off_c, 12, 62, 64
7, 1840, Note_on_c, 12, 63, 70
7, 1888, Note_off_c, 12, 63, 64
7, 1920, Note_on_c, 12, 65, 70
7, 1968, Note_off_c, 12, 65, 64
7, 2000, Note_on_c, 12, 65, 70
7, 2048, Note_off_c, 12, 65, 64
7, 2080, Note_on_c, 12, 65, 70
7, 2128, Note_off_c, 12, 65, 64
7, 2160, Note_on_c, 12, 65, 70
7, 2208, Note_off_c, 12, 65, 64
7, 2240, Note_on_c, 12, 65, 70
7, 2288, Note_off_c, 12, 65, 64
7, 2320, Note_on_c, 12, 65, 70
7, 2368, Note_off_c, 12, 65, 64
7, 2400, Note_on_c, 12, 65, 110
7, 2592, Note_off_c, 12, 65, 64
7, 3360, Note_on_c, 12, 65, 70
7, 3408, Note_off_c, 12, 65, 64
7, 3440, Note_on_c, 12, 69, 70
7, 3488, Note_off_c, 12, 69, 64
7, 3520, Note_on_c, 12, 67, 70
7, 3568, Note_off_c, 12, 67, 64
7, 3600, Note_on_c, 12, 65, 70
7, 3648, Note_off_c, 12, 65, 64
7, 3680, Note_on_c, 12, 67, 70
7, 3728, Note_off_c, 12, 67, 64
7, 3760, Note_on_c, 12, 69, 70
7, 3808, Note_off_c, 12, 69, 64
7, 3840, Note_on_c, 12, 70, 70
7, 3888, Note_off_c, 12, 70, 64
7, 3920, Note_on_c, 12, 70, 70
7, 3968, Note_off_c, 12, 70, 64
7, 4000, Note_on_c, 12, 70, 70
7, 4048, Note_off_c, 12, 70, 64
7, 4080, Note_on_c, 12, 70, 70
7, 4128, Note_off_c, 12, 70, 64
7, 4160, Note_on_c, 12, 70, 70
7, 4208, Note_off_c, 12, 70, 64
7, 4240, Note_on_c, 12, 70, 70
7, 4288, Note_off_c, 12, 70, 64
7, 4320, Note_on_c, 12, 58, 58
7, 4512, Note_off_c, 12, 58, 64
7, 4800, Note_on_c, 12, 58, 58
7, 4992, Note_off_c, 12, 58, 64
7, 5280, Note_on_c, 12, 58, 58
7, 5472, Note_off_c, 12, 58, 64
7, 5760, Note_on_c, 12, 65, 58
7, 5952, Note_off_c, 12, 65, 64
7, 6240, Note_on_c, 12, 70, 58
7, 6660, Note_off_c, 12, 70, 64
7, 6660, Note_on_c, 12, 69, 58
7, 6708, Note_off_c, 12, 69, 64
7, 6720, Note_on_c, 12, 67, 58
7, 6772, Note_off_c, 12, 67, 64
7, 6800, Note_on_c, 12, 69, 58
7, 6852, Note_off_c, 12, 69, 64
7, 6880, Note_on_c, 12, 67, 58
7, 6932, Note_off_c, 12, 67, 64
7, 6960, Note_on_c, 12, 65, 58
7, 7012, Note_off_c, 12, 65, 64
7, 7040, Note_on_c, 12, 67, 58
7, 7092, Note_off_c, 12, 67, 64
7, 7120, Note_on_c, 12, 65, 58
7, 7172, Note_off_c, 12, 65, 64
7, 7200, Note_on_c, 12, 63, 58
7, 7252, Note_off_c, 12, 63, 64
7, 7280, Note_on_c, 12, 65, 58
7, 7332, Note_off_c, 12, 65, 64
7, 7360, Note_on_c, 12, 63, 58
7, 7412, Note_off_c, 12, 63, 64
7, 7440, Note_on_c, 12, 64, 58
7, 7492, Note_off_c, 12, 64, 64
7, 7520, Note_on_c, 12, 65, 58
7, 7572, Note_off_c, 12, 65, 64
7, 7600, Note_on_c, 12, 64, 58
7, 7652, Note_off_c, 12, 64, 64
7, 7680, Note_on_c, 12, 65, 58
7, 7872, Note_off_c, 12, 65, 64
7, 8160, Note_on_c, 12, 70, 110
7, 8352, Note_off_c, 12, 70, 64
7, 9120, Note_on_c, 12, 58, 70
7, 9168, Note_off_c, 12, 58, 64
7, 9200, Note_on_c, 12, 62, 70
7, 9248, Note_off_c, 12, 62, 64
7, 9280, Note_on_c, 12, 60, 70
7, 9328, Note_off_c, 12, 60, 64
7, 9360, Note_on_c, 12, 58, 70
7, 9408, Note_off_c, 12, 58, 64
7, 9440, Note_on_c, 12, 62, 70
7, 9488, Note_off_c, 12, 62, 64
7, 9520, Note_on_c, 12, 63, 70
7, 9568, Note_off_c, 12, 63, 64
7, 9600, Note_on_c, 12, 65, 70
7, 9648, Note_off_c, 12, 65, 64
7, 9680, Note_on_c, 12, 65, 70
7, 9728, Note_off_c, 12, 65, 64
7, 9760, Note_on_c, 12, 65, 70
7, 9808, Note_off_c, 12, 65, 64
7, 9840, Note_on_c, 12, 65, 70
7, 9888, Note_off_c, 12, 65, 64
7, 9920, Note_on_c, 12, 65, 70
7, 9968, Note_off_c, 12, 65, 64
7, 10000, Note_on_c, 12, 65, 70
7, 10048, Note_off_c, 12, 65, 64
7, 10080, Note_on_c, 12, 65, 110
7, 10272, Note_off_c, 12, 65, 64
7, 11040, Note_on_c, 12, 65, 70
7, 11088, Note_off_c, 12, 65, 64
7, 11120, Note_on_c, 12, 69, 70
7, 11168, Note_off_c, 12, 69, 64
7, 11200, Note_on_c, 12, 67, 70
7, 11248, Note_off_c, 12, 67, 64
7, 11280, Note_on_c, 12, 65, 70
7, 11328, Note_off_c, 12, 65, 64
7, 11360, Note_on_c, 12, 67, 70
7, 11408, Note_off_c, 12, 67, 64
7, 11440, Note_on_c, 12, 69, 70
7, 11488, Note_off_c, 12, 69, 64
7, 11520, Note_on_c, 12, 70, 70
7, 11568, Note_off_c, 12, 70, 64
7, 11600, Note_on_c, 12, 70, 70
7, 11648, Note_off_c, 12, 70, 64
7, 11680, Note_on_c, 12, 70, 70
7, 11728, Note_off_c, 12, 70, 64
7, 11760, Note_on_c, 12, 70, 70
7, 11808, Note_off_c, 12, 70, 64
7, 11840, Note_on_c, 12, 70, 70
7, 11888, Note_off_c, 12, 70, 64
7, 11920, Note_on_c, 12, 70, 70
7, 11968, Note_off_c, 12, 70, 64
7, 12000, Note_on_c, 12, 58, 58
7, 12192, Note_off_c, 12, 58, 64
7, 12480, Note_on_c, 12, 58, 58
7, 12672, Note_off_c, 12, 58, 64
7, 12960, Note_on_c, 12, 58, 58
7, 13152, Note_off_c, 12, 58, 64
7, 13440, Note_on_c, 12, 65, 58
7, 13632, Note_off_c, 12, 65, 64
7, 13920, Note_on_c, 12, 70, 58
7, 14112, Note_off_c, 12, 70, 64
7, 14640, Note_on_c, 12, 67, 58
7, 14706, Note_off_c, 12, 67, 64
7, 14880, Note_on_c, 12, 65, 58
7, 14946, Note_off_c, 12, 65, 64
7, 15120, Note_on_c, 12, 63, 58
7, 15186, Note_off_c, 12, 63, 64
7, 15360, Note_on_c, 12, 58, 92
7, 15360, Note_on_c, 12, 62, 92
7, 15552, Note_off_c, 12, 62, 64
7, 15552, Note_off_c, 12, 58, 64
7, 15600, Note_on_c, 12, 58, 92
7, 15664, Note_off_c, 12, 58, 64
7, 15680, Note_on_c, 12, 58, 92
7, 15744, Note_off_c, 12, 58, 64
7, 15760, Note_on_c, 12, 58, 92
7, 15824, Note_off_c, 12, 58, 64
7, 15840, Note_on_c, 12, 58, 92
7, 15904, Note_off_c, 12, 58, 64
7, 15920, Note_on_c, 12, 58, 92
7, 15984, Note_off_c, 12, 58, 64
7, 16000, Note_on_c, 12, 58, 92
7, 16064, Note_off_c, 12, 58, 64
7, 16080, Note_on_c, 12, 58, 92
7, 16144, Note_off_c, 12, 58, 64
7, 16160, Note_on_c, 12, 58, 92
7, 16224, Note_off_c, 12, 58, 64
7, 16240, Note_on_c, 12, 58, 92
7, 16304, Note_off_c, 12, 58, 64
7, 16320, Note_on_c, 12, 58, 92
7, 16452, Note_off_c, 12, 58, 64
7, 16560, Note_on_c, 12, 62, 92
7, 16692, Note_off_c, 12, 62, 64
7, 16800, Note_on_c, 12, 65, 92
7, 16932, Note_off_c, 12, 65, 64
7, 17280, Note_on_c, 12, 62, 58
7, 17412, Note_off_c, 12, 62, 64
7, 17520, Note_on_c, 12, 65, 58
7, 17652, Note_off_c, 12, 65, 64
7, 17760, Note_on_c, 12, 70, 58
7, 17892, Note_off_c, 12, 70, 64
7, 18240, Note_on_c, 12, 58, 105
7, 18432, Note_off_c, 12, 58, 64
7, 18480, Note_on_c, 12, 62, 105
7, 18672, Note_off_c, 12, 62, 64
7, 18720, Note_on_c, 12, 65, 105
7, 18912, Note_off_c, 12, 65, 64
7, 18960, Note_on_c, 12, 70, 105
7, 19152, Note_off_c, 12, 70, 64
7, 19200, Note_on_c, 12, 65, 105
7, 19392, Note_off_c, 12, 65, 64
7, 19440, Note_on_c, 12, 62, 105
7, 19632, Note_off_c, 12, 62, 64
7, 19680, Note_on_c, 12, 58, 105
7, 19872, Note_off_c, 12, 58, 64
7, 21840, Note_on_c, 12, 72, 70
7, 21888, Note_off_c, 12, 72, 64
7, 21920, Note_on_c, 12, 72, 70
7, 21968, Note_off_c, 12, 72, 64
7, 22000, Note_on_c, 12, 72, 70
7, 22048, Note_off_c, 12, 72, 64
7, 22080, Note_on_c, 12, 70, 70
7, 22128, Note_off_c, 12, 70, 64
7, 22160, Note_on_c, 12, 70, 70
7, 22208, Note_off_c, 12, 70, 64
7, 22240, Note_on_c, 12, 70, 70
7, 22288, Note_off_c, 12, 70, 64
7, 22320, Note_on_c, 12, 72, 70
7, 22368, Note_off_c, 12, 72, 64
7, 22400, Note_on_c, 12, 72, 70
7, 22448, Note_off_c, 12, 72, 64
7, 22480, Note_on_c, 12, 72, 70
7, 22528, Note_off_c, 12, 72, 64
7, 22560, Note_on_c, 12, 70, 70
7, 22608, Note_off_c, 12, 70, 64
7, 22640, Note_on_c, 12, 70, 70
7, 22688, Note_off_c, 12, 70, 64
7, 22720, Note_on_c, 12, 70, 70
7, 22768, Note_off_c, 12, 70, 64
7, 22800, Note_on_c, 12, 72, 70
7, 22848, Note_off_c, 12, 72, 64
7, 22880, Note_on_c, 12, 72, 70
7, 22928, Note_off_c, 12, 72, 64
7, 22960, Note_on_c, 12, 72, 70
7, 23008, Note_off_c, 12, 72, 64
7, 23040, Note_on_c, 12, 70, 70
7, 23232, Note_off_c, 12, 70, 64
7, 25680, Note_on_c, 12, 70, 70
7, 25728, Note_off_c, 12, 70, 64
7, 25760, Note_on_c, 12, 70, 70
7, 25808, Note_off_c, 12, 70, 64
7, 25840, Note_on_c, 12, 70, 70
7, 25888, Note_off_c, 12, 70, 64
7, 25920, Note_on_c, 12, 69, 70
7, 25968, Note_off_c, 12, 69, 64
7, 26000, Note_on_c, 12, 69, 70
7, 26048, Note_off_c, 12, 69, 64
7, 26080, Note_on_c, 12, 69, 70
7, 26128, Note_off_c, 12, 69, 64
7, 26160, Note_on_c, 12, 70, 70
7, 26208, Note_off_c, 12, 70, 64
7, 26240, Note_on_c, 12, 70, 70
7, 26288, Note_off_c, 12, 70, 64
7, 26320, Note_on_c, 12, 70, 70
7, 26368, Note_off_c, 12, 70, 64
7, 26400, Note_on_c, 12, 69, 70
7, 26448, Note_off_c, 12, 69, 64
7, 26480, Note_on_c, 12, 69, 70
7, 26528, Note_off_c, 12, 69, 64
7, 26560, Note_on_c, 12, 69, 70
7, 26608, Note_off_c, 12, 69, 64
7, 26640, Note_on_c, 12, 70, 70
7, 26688, Note_off_c, 12, 70, 64
7, 26720, Note_on_c, 12, 70, 70
7, 26768, Note_off_c, 12, 70, 64
7, 26800, Note_on_c, 12, 70, 70
7, 26848, Note_off_c, 12, 70, 64
7, 26880, Note_on_c, 12, 69, 70
7, 27072, Note_off_c, 12, 69, 64
7, 27840, Note_on_c, 12, 55, 58
7, 27912, Note_off_c, 12, 55, 64
7, 27960, Note_on_c, 12, 62, 58
7, 28032, Note_off_c, 12, 62, 64
7, 28080, Note_on_c, 12, 58, 58
7, 28152, Note_off_c, 12, 58, 64
7, 28200, Note_on_c, 12, 67, 58
7, 28272, Note_off_c, 12, 67, 64
7, 28320, Note_on_c, 12, 55, 58
7, 28392, Note_off_c, 12, 55, 64
7, 28440, Note_on_c, 12, 62, 58
7, 28512, Note_off_c, 12, 62, 64
7, 28560, Note_on_c, 12, 58, 58
7, 28632, Note_off_c, 12, 58, 64
7, 28680, Note_on_c, 12, 67, 58
7, 28752, Note_off_c, 12, 67, 64
7, 28800, Note_on_c, 12, 55, 58
7, 28872, Note_off_c, 12, 55, 64
7, 28920, Note_on_c, 12, 62, 58
7, 28992, Note_off_c, 12, 62, 64
7, 29040, Note_on_c, 12, 58, 58
7, 29112, Note_off_c, 12, 58, 64
7, 29160, Note_on_c, 12, 67, 58
7, 29232, Note_off_c, 12, 67, 64
7, 29280, Note_on_c, 12, 55, 58
7, 29352, Note_off_c, 12, 55, 64
7, 29400, Note_on_c, 12, 58, 58
7, 29472, Note_off_c, 12, 58, 64
7, 29520, Note_on_c, 12, 57, 58
7, 29592, Note_off_c, 12, 57, 64
7, 29640, Note_on_c, 12, 60, 58
7, 29712, Note_off_c, 12, 60, 64
7, 29760, Note_on_c, 12, 55, 58
7, 29832, Note_off_c, 12, 55, 64
7, 29880, Note_on_c, 12, 62, 58
7, 29952, Note_off_c, 12, 62, 64
7, 30000, Note_on_c, 12, 58, 58
7, 30072, Note_off_c, 12, 58, 64
7, 30120, Note_on_c, 12, 67, 58
7, 30192, Note_off_c, 12, 67, 64
7, 30240, Note_on_c, 12, 55, 58
7, 30312, Note_off_c, 12, 55, 64
7, 30360, Note_on_c, 12, 62, 58
7, 30432, Note_off_c, 12, 62, 64
7, 30480, Note_on_c, 12, 58, 58
7, 30552, Note_off_c, 12, 58, 64
7, 30600, Note_on_c, 12, 67, 58
7, 30672, Note_off_c, 12, 67, 64
7, 30720, Note_on_c, 12, 55, 58
7, 30792, Note_off_c, 12, 55, 64
7, 30840, Note_on_c, 12, 62, 58
7, 30912, Note_off_c, 12, 62, 64
7, 30960, Note_on_c, 12, 58, 58
7, 31032, Note_off_c, 12, 58, 64
7, 31080, Note_on_c, 12, 67, 58
7, 31152, Note_off_c, 12, 67, 64
7, 31200, Note_on_c, 12, 55, 58
7, 31272, Note_off_c, 12, 55, 64
7, 31320, Note_on_c, 12, 58, 58
7, 31392, Note_off_c, 12, 58, 64
7, 31440, Note_on_c, 12, 57, 58
7, 31512, Note_off_c, 12, 57, 64
7, 31560, Note_on_c, 12, 60, 58
7, 31632, Note_off_c, 12, 60, 64
7, 31680, Note_on_c, 12, 58, 58
7, 33120, Note_off_c, 12, 58, 64
7, 33120, Note_on_c, 12, 59, 58
7, 33504, Note_off_c, 12, 59, 64
7, 33600, Note_on_c, 12, 60, 105
7, 33744, Note_off_c, 12, 60, 64
7, 33840, Note_on_c, 12, 67, 105
7, 33912, Note_off_c, 12, 67, 64
7, 33960, Note_on_c, 12, 67, 105
7, 34032, Note_off_c, 12, 67, 64
7, 34080, Note_on_c, 12, 72, 105
7, 34224, Note_off_c, 12, 72, 64
7, 34320, Note_on_c, 12, 60, 105
7, 34392, Note_off_c, 12, 60, 64
7, 34440, Note_on_c, 12, 60, 105
7, 34512, Note_off_c, 12, 60, 64
7, 34560, Note_on_c, 12, 60, 105
7, 34704, Note_off_c, 12, 60, 64
7, 34800, Note_on_c, 12, 70, 105
7, 34872, Note_off_c, 12, 70, 64
7, 34920, Note_on_c, 12, 69, 105
7, 34992, Note_off_c, 12, 69, 64
7, 35040, Note_on_c, 12, 67, 105
7, 35184, Note_off_c, 12, 67, 64
7, 35280, Note_on_c, 12, 67, 105
7, 35352, Note_off_c, 12, 67, 64
7, 35400, Note_on_c, 12, 65, 105
7, 35472, Note_off_c, 12, 65, 64
7, 35520, Note_on_c, 12, 64, 105
7, 35592, Note_off_c, 12, 64, 64
7, 35640, Note_on_c, 12, 60, 105
7, 35712, Note_off_c, 12, 60, 64
7, 35760, Note_on_c, 12, 60, 105
7, 35832, Note_off_c, 12, 60, 64
7, 35880, Note_on_c, 12, 60, 105
7, 35952, Note_off_c, 12, 60, 64
7, 36000, Note_on_c, 12, 64, 105
7, 36072, Note_off_c, 12, 64, 64
7, 36120, Note_on_c, 12, 60, 105
7, 36192, Note_off_c, 12, 60, 64
7, 36240, Note_on_c, 12, 60, 105
7, 36312, Note_off_c, 12, 60, 64
7, 36360, Note_on_c, 12, 60, 105
7, 36432, Note_off_c, 12, 60, 64
7, 36480, Note_on_c, 12, 72, 105
7, 36552, Note_off_c, 12, 72, 64
7, 36600, Note_on_c, 12, 72, 105
7, 36672, Note_off_c, 12, 72, 64
7, 36720, Note_on_c, 12, 72, 105
7, 36792, Note_off_c, 12, 72, 64
7, 36840, Note_on_c, 12, 72, 105
7, 36912, Note_off_c, 12, 72, 64
7, 36960, Note_on_c, 12, 72, 105
7, 37032, Note_off_c, 12, 72, 64
7, 37080, Note_on_c, 12, 72, 105
7, 37152, Note_off_c, 12, 72, 64
7, 37200, Note_on_c, 12, 72, 105
7, 37272, Note_off_c, 12, 72, 64
7, 37320, Note_on_c, 12, 72, 105
7, 37392, Note_off_c, 12, 72, 64
7, 37440, Note_on_c, 12, 72, 105
7, 37632, Note_off_c, 12, 72, 64
7, 39480, Note_on_c, 12, 60, 58
7, 39552, Note_off_c, 12, 60, 64
7, 39600, Note_on_c, 12, 57, 58
7, 39672, Note_off_c, 12, 57, 64
7, 39720, Note_on_c, 12, 60, 58
7, 39792, Note_off_c, 12, 60, 64
7, 39840, Note_on_c, 12, 53, 58
7, 39912, Note_off_c, 12, 53, 64
7, 39960, Note_on_c, 12, 60, 58
7, 40032, Note_off_c, 12, 60, 64
7, 40080, Note_on_c, 12, 57, 58
7, 40152, Note_off_c, 12, 57, 64
7, 40200, Note_on_c, 12, 60, 58
7, 40272, Note_off_c, 12, 60, 64
7, 40320, Note_on_c, 12, 53, 58
7, 40392, Note_off_c, 12, 53, 64
7, 40440, Note_on_c, 12, 60, 58
7, 40512, Note_off_c, 12, 60, 64
7, 40560, Note_on_c, 12, 57, 58
7, 40632, Note_off_c, 12, 57, 64
7, 40680, Note_on_c, 12, 60, 58
7, 40752, Note_off_c, 12, 60, 64
7, 40800, Note_on_c, 12, 53, 58
7, 40872, Note_off_c, 12, 53, 64
7, 40920, Note_on_c, 12, 60, 58
7, 40992, Note_off_c, 12, 60, 64
7, 41040, Note_on_c, 12, 57, 58
7, 41112, Note_off_c, 12, 57, 64
7, 41160, Note_on_c, 12, 60, 58
7, 41232, Note_off_c, 12, 60, 64
7, 41280, Note_on_c, 12, 52, 58
7, 41352, Note_off_c, 12, 52, 64
7, 41400, Note_on_c, 12, 60, 58
7, 41472, Note_off_c, 12, 60, 64
7, 41520, Note_on_c, 12, 55, 58
7, 41592, Note_off_c, 12, 55, 64
7, 41640, Note_on_c, 12, 60, 58
7, 41712, Note_off_c, 12, 60, 64
7, 41760, Note_on_c, 12, 52, 58
7, 41832, Note_off_c, 12, 52, 64
7, 41880, Note_on_c, 12, 60, 58
7, 41952, Note_off_c, 12, 60, 64
7, 42000, Note_on_c, 12, 55, 58
7, 42072, Note_off_c, 12, 55, 64
7, 42120, Note_on_c, 12, 60, 58
7, 42192, Note_off_c, 12, 60, 64
7, 42240, Note_on_c, 12, 52, 58
7, 42312, Note_off_c, 12, 52, 64
7, 42360, Note_on_c, 12, 60, 58
7, 42432, Note_off_c, 12, 60, 64
7, 42480, Note_on_c, 12, 55, 58
7, 42552, Note_off_c, 12, 55, 64
7, 42600, Note_on_c, 12, 60, 58
7, 42672, Note_off_c, 12, 60, 64
7, 42720, Note_on_c, 12, 52, 58
7, 42792, Note_off_c, 12, 52, 64
7, 42840, Note_on_c, 12, 60, 58
7, 42912, Note_off_c, 12, 60, 64
7, 42960, Note_on_c, 12, 55, 58
7, 43032, Note_off_c, 12, 55, 64
7, 43080, Note_on_c, 12, 60, 58
7, 43152, Note_off_c, 12, 60, 64
7, 43200, Note_on_c, 12, 53, 58
7, 43272, Note_off_c, 12, 53, 64
7, 43320, Note_on_c, 12, 60, 58
7, 43392, Note_off_c, 12, 60, 64
7, 43440, Note_on_c, 12, 57, 58
7, 43512, Note_off_c, 12, 57, 64
7, 43560, Note_on_c, 12, 60, 58
7, 43632, Note_off_c, 12, 60, 64
7, 44160, Note_on_c, 12, 53, 58
7, 44544, Note_off_c, 12, 53, 64
7, 44880, Note_on_c, 12, 60, 58
7, 45120, Note_off_c, 12, 60, 64
7, 45120, Note_on_c, 12, 64, 58
7, 45360, Note_off_c, 12, 64, 64
7, 45360, Note_on_c, 12, 65, 58
7, 45552, Note_off_c, 12, 65, 64
7, 45840, Note_on_c, 12, 60, 58
7, 45840, Note_on_c, 12, 65, 58
7, 46032, Note_off_c, 12, 65, 64
7, 46032, Note_off_c, 12, 60, 64
7, 46080, Note_on_c, 12, 62, 58
7, 46080, Note_on_c, 12, 65, 58
7, 46560, Note_off_c, 12, 62, 64
7, 46560, Note_on_c, 12, 60, 58
7, 46800, Note_off_c, 12, 60, 64
7, 46800, Note_on_c, 12, 59, 58
7, 47040, Note_off_c, 12, 59, 64
7, 47040, Note_off_c, 12, 65, 64
7, 47040, Note_on_c, 12, 64, 58
7, 47040, Note_on_c, 12, 60, 58
7, 47232, Note_off_c, 12, 60, 64
7, 47232, Note_off_c, 12, 64, 64
7, 47520, Note_on_c, 12, 57, 58
7, 47572, Note_off_c, 12, 57, 64
7, 47600, Note_on_c, 12, 65, 58
7, 47652, Note_off_c, 12, 65, 64
7, 47680, Note_on_c, 12, 65, 58
7, 47732, Note_off_c, 12, 65, 64
7, 47760, Note_on_c, 12, 65, 58
7, 47812, Note_off_c, 12, 65, 64
7, 47840, Note_on_c, 12, 65, 58
7, 47892, Note_off_c, 12, 65, 64
7, 47920, Note_on_c, 12, 65, 58
7, 47972, Note_off_c, 12, 65, 64
7, 48000, Note_on_c, 12, 57, 58
7, 48052, Note_off_c, 12, 57, 64
7, 48080, Note_on_c, 12, 65, 58
7, 48132, Note_off_c, 12, 65, 64
7, 48160, Note_on_c, 12, 65, 58
7, 48212, Note_off_c, 12, 65, 64
7, 48240, Note_on_c, 12, 65, 58
7, 48292, Note_off_c, 12, 65, 64
7, 48320, Note_on_c, 12, 65, 58
7, 48372, Note_off_c, 12, 65, 64
7, 48400, Note_on_c, 12, 65, 58
7, 48452, Note_off_c, 12, 65, 64
7, 48480, Note_on_c, 12, 57, 58
7, 48532, Note_off_c, 12, 57, 64
7, 48560, Note_on_c, 12, 65, 58
7, 48612, Note_off_c, 12, 65, 64
7, 48640, Note_on_c, 12, 65, 58
7, 48692, Note_off_c, 12, 65, 64
7, 48720, Note_on_c, 12, 65, 58
7, 48772, Note_off_c, 12, 65, 64
7, 48800, Note_on_c, 12, 65, 58
7, 48852, Note_off_c, 12, 65, 64
7, 48880, Note_on_c, 12, 65, 58
7, 48932, Note_off_c, 12, 65, 64
7, 48960, Note_on_c, 12, 60, 58
7, 49012, Note_off_c, 12, 60, 64
7, 49040, Note_on_c, 12, 64, 58
7, 49092, Note_off_c, 12, 64, 64
7, 49120, Note_on_c, 12, 64, 58
7, 49172, Note_off_c, 12, 64, 64
7, 49200, Note_on_c, 12, 64, 58
7, 49252, Note_off_c, 12, 64, 64
7, 49280, Note_on_c, 12, 64, 58
7, 49332, Note_off_c, 12, 64, 64
7, 49360, Note_on_c, 12, 64, 58
7, 49412, Note_off_c, 12, 64, 64
7, 49440, Note_on_c, 12, 60, 58
7, 49492, Note_off_c, 12, 60, 64
7, 49520, Note_on_c, 12, 64, 58
7, 49572, Note_off_c, 12, 64, 64
7, 49600, Note_on_c, 12, 64, 58
7, 49652, Note_off_c, 12, 64, 64
7, 49680, Note_on_c, 12, 64, 58
7, 49732, Note_off_c, 12, 64, 64
7, 49760, Note_on_c, 12, 64, 58
7, 49812, Note_off_c, 12, 64, 64
7, 49840, Note_on_c, 12, 64, 58
7, 49892, Note_off_c, 12, 64, 64
7, 49920, Note_on_c, 12, 60, 58
7, 49972, Note_off_c, 12, 60, 64
7, 50000, Note_on_c, 12, 64, 58
7, 50052, Note_off_c, 12, 64, 64
7, 50080, Note_on_c, 12, 64, 58
7, 50132, Note_off_c, 12, 64, 64
7, 50160, Note_on_c, 12, 64, 58
7, 50212, Note_off_c, 12, 64, 64
7, 50240, Note_on_c, 12, 64, 58
7, 50292, Note_off_c, 12, 64, 64
7, 50320, Note_on_c, 12, 64, 58
7, 50372, Note_off_c, 12, 64, 64
7, 50400, Note_on_c, 12, 60, 58
7, 50452, Note_off_c, 12, 60, 64
7, 50480, Note_on_c, 12, 64, 58
7, 50532, Note_off_c, 12, 64, 64
7, 50560, Note_on_c, 12, 64, 58
7, 50612, Note_off_c, 12, 64, 64
7, 50640, Note_on_c, 12, 64, 58
7, 50692, Note_off_c, 12, 64, 64
7, 50720, Note_on_c, 12, 64, 58
7, 50772, Note_off_c, 12, 64, 64
7, 50800, Note_on_c, 12, 64, 58
7, 50852, Note_off_c, 12, 64, 64
7, 50880, Note_on_c, 12, 57, 58
7, 50932, Note_off_c, 12, 57, 64
7, 50960, Note_on_c, 12, 65, 58
7, 51012, Note_off_c, 12, 65, 64
7, 51040, Note_on_c, 12, 65, 58
7, 51092, Note_off_c, 12, 65, 64
7, 51120, Note_on_c, 12, 65, 58
7, 51172, Note_off_c, 12, 65, 64
7, 51200, Note_on_c, 12, 65, 58
7, 51252, Note_off_c, 12, 65, 64
7, 51280, Note_on_c, 12, 65, 58
7, 51332, Note_off_c, 12, 65, 64
7, 51840, Note_on_c, 12, 53, 58
7, 52296, Note_off_c, 12, 53, 64
7, 52560, Note_on_c, 12, 65, 58
7, 52560, Note_on_c, 12, 60, 58
7, 52800, Note_off_c, 12, 65, 64
7, 52800, Note_on_c, 12, 67, 58
7, 53040, Note_off_c, 12, 67, 64
7, 53040, Note_on_c, 12, 65, 58
7, 53232, Note_off_c, 12, 60, 64
7, 53232, Note_off_c, 12, 65, 64
7, 53760, Note_on_c, 12, 62, 58
7, 53760, Note_on_c, 12, 58, 58
7, 54216, Note_off_c, 12, 58, 64
7, 54216, Note_off_c, 12, 62, 64
7, 54240, Note_on_c, 12, 57, 58
7, 54240, Note_on_c, 12, 60, 58
7, 54480, Note_off_c, 12, 60, 64
7, 54480, Note_off_c, 12, 57, 64
7, 54480, Note_on_c, 12, 58, 58
7, 54480, Note_on_c, 12, 64, 58
7, 54672, Note_off_c, 12, 64, 64
7, 54672, Note_off_c, 12, 58, 64
7, 54720, Note_on_c, 12, 65, 58
7, 54720, Note_on_c, 12, 60, 58
7, 54876, Note_off_c, 12, 60, 64
7, 54876, Note_off_c, 12, 65, 64
7, 54960, Note_on_c, 12, 48, 58
7, 55012, Note_off_c, 12, 48, 64
7, 55040, Note_on_c, 12, 48, 105
7, 55092, Note_off_c, 12, 48, 64
7, 55120, Note_on_c, 12, 48, 105
7, 55172, Note_off_c, 12, 48, 64
7, 55200, Note_on_c, 12, 50, 105
7, 55252, Note_off_c, 12, 50, 64
7, 55280, Note_on_c, 12, 50, 105
7, 55332, Note_off_c, 12, 50, 64
7, 55360, Note_on_c, 12, 50, 105
7, 55412, Note_off_c, 12, 50, 64
7, 55440, Note_on_c, 12, 52, 105
7, 55492, Note_off_c, 12, 52, 64
7, 55520, Note_on_c, 12, 52, 105
7, 55572, Note_off_c, 12, 52, 64
7, 55600, Note_on_c, 12, 52, 105
7, 55652, Note_off_c, 12, 52, 64
7, 55680, Note_on_c, 12, 53, 105
7, 55732, Note_off_c, 12, 53, 64
7, 55760, Note_on_c, 12, 53, 105
7, 55812, Note_off_c, 12, 53, 64
7, 55840, Note_on_c, 12, 53, 105
7, 55892, Note_off_c, 12, 53, 64
7, 55920, Note_on_c, 12, 65, 105
7, 55972, Note_off_c, 12, 65, 64
7, 56000, Note_on_c, 12, 65, 105
7, 56052, Note_off_c, 12, 65, 64
7, 56080, Note_on_c, 12, 65, 105
7, 56132, Note_off_c, 12, 65, 64
7, 56160, Note_on_c, 12, 64, 105
7, 56212, Note_off_c, 12, 64, 64
7, 56240, Note_on_c, 12, 64, 105
7, 56292, Note_off_c, 12, 64, 64
7, 56320, Note_on_c, 12, 64, 105
7, 56372, Note_off_c, 12, 64, 64
7, 56400, Note_on_c, 12, 63, 105
7, 56452, Note_off_c, 12, 63, 64
7, 56480, Note_on_c, 12, 63, 105
7, 56532, Note_off_c, 12, 63, 64
7, 56560, Note_on_c, 12, 63, 105
7, 56612, Note_off_c, 12, 63, 64
7, 56640, Note_on_c, 12, 62, 105
7, 56692, Note_off_c, 12, 62, 64
7, 56720, Note_on_c, 12, 62, 105
7, 56772, Note_off_c, 12, 62, 64
7, 56800, Note_on_c, 12, 62, 105
7, 56852, Note_off_c, 12, 62, 64
7, 56880, Note_on_c, 12, 72, 105
7, 56932, Note_off_c, 12, 72, 64
7, 56960, Note_on_c, 12, 72, 105
7, 57012, Note_off_c, 12, 72, 64
7, 57040, Note_on_c, 12, 72, 105
7, 57092, Note_off_c, 12, 72, 64
7, 57120, Note_on_c, 12, 70, 105
7, 57172, Note_off_c, 12, 70, 64
7, 57200, Note_on_c, 12, 70, 105
7, 57252, Note_off_c, 12, 70, 64
7, 57280, Note_on_c, 12, 70, 105
7, 57332, Note_off_c, 12, 70, 64
7, 57360, Note_on_c, 12, 67, 105
7, 57412, Note_off_c, 12, 67, 64
7, 57440, Note_on_c, 12, 67, 105
7, 57492, Note_off_c, 12, 67, 64
7, 57520, Note_on_c, 12, 67, 105
7, 57572, Note_off_c, 12, 67, 64
7, 57600, Note_on_c, 12, 60, 105
7, 57652, Note_off_c, 12, 60, 64
7, 57680, Note_on_c, 12, 60, 105
7, 57732, Note_off_c, 12, 60, 64
7, 57760, Note_on_c, 12, 60, 105
7, 57812, Note_off_c, 12, 60, 64
7, 57840, Note_on_c, 12, 62, 105
7, 57892, Note_off_c, 12, 62, 64
7, 57920, Note_on_c, 12, 62, 105
7, 57972, Note_off_c, 12, 62, 64
7, 58000, Note_on_c, 12, 62, 105
7, 58052, Note_off_c, 12, 62, 64
7, 58080, Note_on_c, 12, 62, 105
7, 58132, Note_off_c, 12, 62, 64
7, 58160, Note_on_c, 12, 62, 105
7, 58212, Note_off_c, 12, 62, 64
7, 58240, Note_on_c, 12, 62, 105
7, 58292, Note_off_c, 12, 62, 64
7, 58320, Note_on_c, 12, 67, 105
7, 58372, Note_off_c, 12, 67, 64
7, 58400, Note_on_c, 12, 67, 105
7, 58452, Note_off_c, 12, 67, 64
7, 58480, Note_on_c, 12, 67, 105
7, 58532, Note_off_c, 12, 67, 64
7, 58560, Note_on_c, 12, 65, 92
7, 58716, Note_off_c, 12, 65, 64
7, 58800, Note_on_c, 12, 48, 105
7, 58852, Note_off_c, 12, 48, 64
7, 58880, Note_on_c, 12, 48, 105
7, 58932, Note_off_c, 12, 48, 64
7, 58960, Note_on_c, 12, 48, 105
7, 59012, Note_off_c, 12, 48, 64
7, 59040, Note_on_c, 12, 50, 105
7, 59092, Note_off_c, 12, 50, 64
7, 59120, Note_on_c, 12, 50, 105
7, 59172, Note_off_c, 12, 50, 64
7, 59200, Note_on_c, 12, 50, 105
7, 59252, Note_off_c, 12, 50, 64
7, 59280, Note_on_c, 12, 52, 105
7, 59332, Note_off_c, 12, 52, 64
7, 59360, Note_on_c, 12, 52, 105
7, 59412, Note_off_c, 12, 52, 64
7, 59440, Note_on_c, 12, 52, 105
7, 59492, Note_off_c, 12, 52, 64
7, 59520, Note_on_c, 12, 53, 105
7, 59572, Note_off_c, 12, 53, 64
7, 59600, Note_on_c, 12, 53, 105
7, 59652, Note_off_c, 12, 53, 64
7, 59680, Note_on_c, 12, 53, 105
7, 59732, Note_off_c, 12, 53, 64
7, 59760, Note_on_c, 12, 65, 105
7, 59812, Note_off_c, 12, 65, 64
7, 59840, Note_on_c, 12, 65, 105
7, 59892, Note_off_c, 12, 65, 64
7, 59920, Note_on_c, 12, 65, 105
7, 59972, Note_off_c, 12, 65, 64
7, 60000, Note_on_c, 12, 64, 105
7, 60052, Note_off_c, 12, 64, 64
7, 60080, Note_on_c, 12, 64, 105
7, 60132, Note_off_c, 12, 64, 64
7, 60160, Note_on_c, 12, 64, 105
7, 60212, Note_off_c, 12, 64, 64
7, 60240, Note_on_c, 12, 63, 105
7, 60292, Note_off_c, 12, 63, 64
7, 60320, Note_on_c, 12, 63, 105
7, 60372, Note_off_c, 12, 63, 64
7, 60400, Note_on_c, 12, 63, 105
7, 60452, Note_off_c, 12, 63, 64
7, 60480, Note_on_c, 12, 62, 105
7, 60532, Note_off_c, 12, 62, 64
7, 60560, Note_on_c, 12, 62, 105
7, 60612, Note_off_c, 12, 62, 64
7, 60640, Note_on_c, 12, 62, 105
7, 60692, Note_off_c, 12, 62, 64
7, 60720, Note_on_c, 12, 72, 105
7, 60772, Note_off_c, 12, 72, 64
7, 60800, Note_on_c, 12, 72, 105
7, 60852, Note_off_c, 12, 72, 64
7, 60880, Note_on_c, 12, 72, 105
7, 60932, Note_off_c, 12, 72, 64
7, 60960, Note_on_c, 12, 70, 105
7, 61012, Note_off_c, 12, 70, 64
7, 61040, Note_on_c, 12, 70, 105
7, 61092, Note_off_c, 12, 70, 64
7, 61120, Note_on_c, 12, 70, 105
7, 61172, Note_off_c, 12, 70, 64
7, 61200, Note_on_c, 12, 67, 105
7, 61252, Note_off_c, 12, 67, 64
7, 61280, Note_on_c, 12, 67, 105
7, 61332, Note_off_c, 12, 67, 64
7, 61360, Note_on_c, 12, 67, 105
7, 61412, Note_off_c, 12, 67, 64
7, 61440, Note_on_c, 12, 60, 105
7, 61492, Note_off_c, 12, 60, 64
7, 61520, Note_on_c, 12, 60, 105
7, 61572, Note_off_c, 12, 60, 64
7, 61600, Note_on_c, 12, 60, 105
7, 61652, Note_off_c, 12, 60, 64
7, 61680, Note_on_c, 12, 62, 105
7, 61732, Note_off_c, 12, 62, 64
7, 61760, Note_on_c, 12, 62, 105
7, 61812, Note_off_c, 12, 62, 64
7, 61840, Note_on_c, 12, 62, 105
7, 61892, Note_off_c, 12, 62, 64
7, 61920, Note_on_c, 12, 62, 105
7, 61972, Note_off_c, 12, 62, 64
7, 62000, Note_on_c, 12, 62, 105
7, 62052, Note_off_c, 12, 62, 64
7, 62080, Note_on_c, 12, 62, 105
7, 62132, Note_off_c, 12, 62, 64
7, 62160, Note_on_c, 12, 67, 105
7, 62212, Note_off_c, 12, 67, 64
7, 62240, Note_on_c, 12, 67, 105
7, 62292, Note_off_c, 12, 67, 64
7, 62320, Note_on_c, 12, 67, 105
7, 62372, Note_off_c, 12, 67, 64
7, 62400, Note_on_c, 12, 65, 92
7, 62556, Note_off_c, 12, 65, 64
7, 66240, Note_on_c, 12, 57, 105
7, 66384, Note_off_c, 12, 57, 64
7, 66480, Note_on_c, 12, 57, 105
7, 66552, Note_off_c, 12, 57, 64
7, 66600, Note_on_c, 12, 58, 105
7, 66672, Note_off_c, 12, 58, 64
7, 66720, Note_on_c, 12, 57, 105
7, 66864, Note_off_c, 12, 57, 64
7, 66960, Note_on_c, 12, 57, 105
7, 67032, Note_off_c, 12, 57, 64
7, 67080, Note_on_c, 12, 55, 105
7, 67152, Note_off_c, 12, 55, 64
7, 67200, Note_on_c, 12, 53, 92
7, 67272, Note_off_c, 12, 53, 64
7, 67320, Note_on_c, 12, 53, 92
7, 67392, Note_off_c, 12, 53, 64
7, 67440, Note_on_c, 12, 53, 92
7, 67512, Note_off_c, 12, 53, 64
7, 67560, Note_on_c, 12, 53, 92
7, 67632, Note_off_c, 12, 53, 64
7, 67680, Note_on_c, 12, 53, 92
7, 67752, Note_off_c, 12, 53, 64
7, 67800, Note_on_c, 12, 53, 92
7, 67872, Note_off_c, 12, 53, 64
7, 67920, Note_on_c, 12, 53, 92
7, 67992, Note_off_c, 12, 53, 64
7, 68040, Note_on_c, 12, 53, 92
7, 68112, Note_off_c, 12, 53, 64
7, 68160, Note_on_c, 12, 52, 105
7, 68232, Note_off_c, 12, 52, 64
7, 68280, Note_on_c, 12, 52, 105
7, 68352, Note_off_c, 12, 52, 64
7, 68400, Note_on_c, 12, 52, 105
7, 68472, Note_off_c, 12, 52, 64
7, 68520, Note_on_c, 12, 52, 105
7, 68592, Note_off_c, 12, 52, 64
7, 68640, Note_on_c, 12, 52, 105
7, 68712, Note_off_c, 12, 52, 64
7, 68760, Note_on_c, 12, 52, 105
7, 68832, Note_off_c, 12, 52, 64
7, 68880, Note_on_c, 12, 52, 105
7, 68952, Note_off_c, 12, 52, 64
7, 69000, Note_on_c, 12, 52, 105
7, 69072, Note_off_c, 12, 52, 64
7, 69120, Note_on_c, 12, 53, 105
7, 69192, Note_off_c, 12, 53, 64
7, 69240, Note_on_c, 12, 53, 105
7, 69312, Note_off_c, 12, 53, 64
7, 69360, Note_on_c, 12, 53, 105
7, 69432, Note_off_c, 12, 53, 64
7, 69480, Note_on_c, 12, 53, 105
7, 69552, Note_off_c, 12, 53, 64
7, 69600, Note_on_c, 12, 60, 105
7, 69672, Note_off_c, 12, 60, 64
7, 69720, Note_on_c, 12, 60, 105
7, 69792, Note_off_c, 12, 60, 64
7, 69840, Note_on_c, 12, 60, 105
7, 69912, Note_off_c, 12, 60, 64
7, 69960, Note_on_c, 12, 60, 105
7, 70032, Note_off_c, 12, 60, 64
7, 70080, Note_on_c, 12, 60, 105
7, 70272, Note_off_c, 12, 60, 64
7, 70800, Note_on_c, 12, 70, 105
7, 70932, Note_off_c, 12, 70, 64
7, 71040, Note_on_c, 12, 69, 105
7, 71172, Note_off_c, 12, 69, 64
7, 71760, Note_on_c, 12, 72, 105
7, 71892, Note_off_c, 12, 72, 64
7, 72000, Note_on_c, 12, 72, 105
7, 72132, Note_off_c, 12, 72, 64
7, 72720, Note_on_c, 12, 70, 105
7, 72852, Note_off_c, 12, 70, 64
7, 72960, Note_on_c, 12, 69, 105
7, 73092, Note_off_c, 12, 69, 64
7, 73680, Note_on_c, 12, 72, 105
7, 73812, Note_off_c, 12, 72, 64
7, 73920, Note_on_c, 12, 65, 92
7, 73984, Note_off_c, 12, 65, 64
7, 74000, Note_on_c, 12, 67, 92
7, 74064, Note_off_c, 12, 67, 64
7, 74080, Note_on_c, 12, 69, 92
7, 74144, Note_off_c, 12, 69, 64
7, 74160, Note_on_c, 12, 70, 92
7, 74224, Note_off_c, 12, 70, 64
7, 74240, Note_on_c, 12, 72, 92
7, 74304, Note_off_c, 12, 72, 64
7, 74320, Note_on_c, 12, 74, 92
7, 74384, Note_off_c, 12, 74, 64
7, 74400, Note_on_c, 12, 72, 92
7, 74464, Note_off_c, 12, 72, 64
7, 74480, Note_on_c, 12, 70, 92
7, 74544, Note_off_c, 12, 70, 64
7, 74560, Note_on_c, 12, 69, 92
7, 74624, Note_off_c, 12, 69, 64
7, 74640, Note_on_c, 12, 67, 92
7, 74704, Note_off_c, 12, 67, 64
7, 74720, Note_on_c, 12, 65, 92
7, 74784, Note_off_c, 12, 65, 64
7, 74800, Note_on_c, 12, 64, 92
7, 74864, Note_off_c, 12, 64, 64
7, 74880, Note_on_c, 12, 62, 92
7, 74944, Note_off_c, 12, 62, 64
7, 74960, Note_on_c, 12, 64, 92
7, 75024, Note_off_c, 12, 64, 64
7, 75040, Note_on_c, 12, 65, 92
7, 75104, Note_off_c, 12, 65, 64
7, 75120, Note_on_c, 12, 67, 92
7, 75184, Note_off_c, 12, 67, 64
7, 75200, Note_on_c, 12, 69, 92
7, 75264, Note_off_c, 12, 69, 64
7, 75280, Note_on_c, 12, 70, 92
7, 75344, Note_off_c, 12, 70, 64
7, 75360, Note_on_c, 12, 69, 92
7, 75424, Note_off_c, 12, 69, 64
7, 75440, Note_on_c, 12, 67, 92
7, 75504, Note_off_c, 12, 67, 64
7, 75520, Note_on_c, 12, 65, 92
7, 75584, Note_off_c, 12, 65, 64
7, 75600, Note_on_c, 12, 64, 92
7, 75664, Note_off_c, 12, 64, 64
7, 75680, Note_on_c, 12, 62, 92
7, 75744, Note_off_c, 12, 62, 64
7, 75760, Note_on_c, 12, 60, 92
7, 75824, Note_off_c, 12, 60, 64
7, 75840, Note_on_c, 12, 58, 92
7, 75957, Note_off_c, 12, 58, 64
7, 76020, Note_on_c, 12, 58, 92
7, 76059, Note_off_c, 12, 58, 64
7, 76080, Note_on_c, 12, 57, 92
7, 76197, Note_off_c, 12, 57, 64
7, 76260, Note_on_c, 12, 55, 92
7, 76299, Note_off_c, 12, 55, 64
7, 76320, Note_on_c, 12, 60, 92
7, 76476, Note_off_c, 12, 60, 64
7, 76560, Note_on_c, 12, 60, 92
7, 76716, Note_off_c, 12, 60, 64
7, 76800, Note_on_c, 12, 60, 92
7, 76956, Note_off_c, 12, 60, 64
7, 77040, Note_on_c, 12, 60, 92
7, 77196, Note_off_c, 12, 60, 64
7, 77280, Note_on_c, 12, 60, 92
7, 77472, Note_off_c, 12, 60, 64
7, 77760, Note_on_c, 12, 70, 127
7, 77952, Note_off_c, 12, 70, 64
7, 78720, Note_on_c, 12, 58, 70
7, 78768, Note_off_c, 12, 58, 64
7, 78800, Note_on_c, 12, 62, 70
7, 78848, Note_off_c, 12, 62, 64
7, 78880, Note_on_c, 12, 60, 70
7, 78928, Note_off_c, 12, 60, 64
7, 78960, Note_on_c, 12, 58, 70
7, 79008, Note_off_c, 12, 58, 64
7, 79040, Note_on_c, 12, 62, 70
7, 79088, Note_off_c, 12, 62, 64
7, 79120, Note_on_c, 12, 63, 70
7, 79168, Note_off_c, 12, 63, 64
7, 79200, Note_on_c, 12, 65, 70
7, 79248, Note_off_c, 12, 65, 64
7, 79280, Note_on_c, 12, 65, 70
7, 79328, Note_off_c, 12, 65, 64
7, 79360, Note_on_c, 12, 65, 70
7, 79408, Note_off_c, 12, 65, 64
7, 79440, Note_on_c, 12, 65, 70
7, 79488, Note_off_c, 12, 65, 64
7, 79520, Note_on_c, 12, 65, 70
7, 79568, Note_off_c, 12, 65, 64
7, 79600, Note_on_c, 12, 65, 70
7, 79648, Note_off_c, 12, 65, 64
7, 79680, Note_on_c, 12, 65, 110
7, 79872, Note_off_c, 12, 65, 64
7, 80640, Note_on_c, 12, 65, 70
7, 80688, Note_off_c, 12, 65, 64
7, 80720, Note_on_c, 12, 69, 70
7, 80768, Note_off_c, 12, 69, 64
7, 80800, Note_on_c, 12, 67, 70
7, 80848, Note_off_c, 12, 67, 64
7, 80880, Note_on_c, 12, 65, 70
7, 80928, Note_off_c, 12, 65, 64
7, 80960, Note_on_c, 12, 67, 70
7, 81008, Note_off_c, 12, 67, 64
7, 81040, Note_on_c, 12, 69, 70
7, 81088, Note_off_c, 12, 69, 64
7, 81120, Note_on_c, 12, 70, 70
7, 81168, Note_off_c, 12, 70, 64
7, 81200, Note_on_c, 12, 70, 70
7, 81248, Note_off_c, 12, 70, 64
7, 81280, Note_on_c, 12, 70, 70
7, 81328, Note_off_c, 12, 70, 64
7, 81360, Note_on_c, 12, 70, 70
7, 81408, Note_off_c, 12, 70, 64
7, 81440, Note_on_c, 12, 70, 70
7, 81488, Note_off_c, 12, 70, 64
7, 81520, Note_on_c, 12, 70, 70
7, 81568, Note_off_c, 12, 70, 64
7, 81600, Note_on_c, 12, 58, 58
7, 81792, Note_off_c, 12, 58, 64
7, 82080, Note_on_c, 12, 58, 58
7, 82272, Note_off_c, 12, 58, 64
7, 82560, Note_on_c, 12, 58, 58
7, 82752, Note_off_c, 12, 58, 64
7, 83040, Note_on_c, 12, 65, 58
7, 83232, Note_off_c, 12, 65, 64
7, 83520, Note_on_c, 12, 70, 58
7, 83940, Note_off_c, 12, 70, 64
7, 83940, Note_on_c, 12, 69, 58
7, 83988, Note_off_c, 12, 69, 64
7, 84000, Note_on_c, 12, 67, 58
7, 84052, Note_off_c, 12, 67, 64
7, 84080, Note_on_c, 12, 69, 58
7, 84132, Note_off_c, 12, 69, 64
7, 84160, Note_on_c, 12, 67, 58
7, 84212, Note_off_c, 12, 67, 64
7, 84240, Note_on_c, 12, 65, 58
7, 84292, Note_off_c, 12, 65, 64
7, 84320, Note_on_c, 12, 67, 58
7, 84372, Note_off_c, 12, 67, 64
7, 84400, Note_on_c, 12, 65, 58
7, 84452, Note_off_c, 12, 65, 64
7, 84480, Note_on_c, 12, 63, 58
7, 84532, Note_off_c, 12, 63, 64
7, 84560, Note_on_c, 12, 65, 58
7, 84612, Note_off_c, 12, 65, 64
7, 84640, Note_on_c, 12, 63, 58
7, 84692, Note_off_c, 12, 63, 64
7, 84720, Note_on_c, 12, 64, 58
7, 84772, Note_off_c, 12, 64, 64
7, 84800, Note_on_c, 12, 65, 58
7, 84852, Note_off_c, 12, 65, 64
7, 84880, Note_on_c, 12, 64, 58
7, 84932, Note_off_c, 12, 64, 64
7, 84960, Note_on_c, 12, 65, 58
7, 85152, Note_off_c, 12, 65, 64
7, 85440, Note_on_c, 12, 70, 110
7, 85632, Note_off_c, 12, 70, 64
7, 86400, Note_on_c, 12, 58, 70
7, 86448, Note_off_c, 12, 58, 64
7, 86480, Note_on_c, 12, 62, 70
7, 86528, Note_off_c, 12, 62, 64
7, 86560, Note_on_c, 12, 60, 70
7, 86608, Note_off_c, 12, 60, 64
7, 86640, Note_on_c, 12, 58, 70
7, 86688, Note_off_c, 12, 58, 64
7, 86720, Note_on_c, 12, 62, 70
7, 86768, Note_off_c, 12, 62, 64
7, 86800, Note_on_c, 12, 63, 70
7, 86848, Note_off_c, 12, 63, 64
7, 86880, Note_on_c, 12, 65, 70
7, 86928, Note_off_c, 12, 65, 64
7, 86960, Note_on_c, 12, 65, 70
7, 87008, Note_off_c, 12, 65, 64
7, 87040, Note_on_c, 12, 65, 70
7, 87088, Note_off_c, 12, 65, 64
7, 87120, Note_on_c, 12, 65, 70
7, 87168, Note_off_c, 12, 65, 64
7, 87200, Note_on_c, 12, 65, 70
7, 87248, Note_off_c, 12, 65, 64
7, 87280, Note_on_c, 12, 65, 70
7, 87328, Note_off_c, 12, 65, 64
7, 87360, Note_on_c, 12, 65, 110
7, 87552, Note_off_c, 12, 65, 64
7, 88320, Note_on_c, 12, 65, 70
7, 88368, Note_off_c, 12, 65, 64
7, 88400, Note_on_c, 12, 69, 70
7, 88448, Note_off_c, 12, 69, 64
7, 88480, Note_on_c, 12, 67, 70
7, 88528, Note_off_c, 12, 67, 64
7, 88560, Note_on_c, 12, 65, 70
7, 88608, Note_off_c, 12, 65, 64
7, 88640, Note_on_c, 12, 67, 70
7, 88688, Note_off_c, 12, 67, 64
7, 88720, Note_on_c, 12, 69, 70
7, 88768, Note_off_c, 12, 69, 64
7, 88800, Note_on_c, 12, 70, 70
7, 88848, Note_off_c, 12, 70, 64
7, 88880, Note_on_c, 12, 70, 70
7, 88928, Note_off_c, 12, 70, 64
7, 88960, Note_on_c, 12, 70, 70
7, 89008, Note_off_c, 12, 70, 64
7, 89040, Note_on_c, 12, 70, 70
7, 89088, Note_off_c, 12, 70, 64
7, 89120, Note_on_c, 12, 70, 70
7, 89168, Note_off_c, 12, 70, 64
7, 89200, Note_on_c, 12, 70, 70
7, 89248, Note_off_c, 12, 70, 64
7, 89280, Note_on_c, 12, 58, 58
7, 89472, Note_off_c, 12, 58, 64
7, 89760, Note_on_c, 12, 58, 58
7, 89952, Note_off_c, 12, 58, 64
7, 90240, Note_on_c, 12, 58, 58
7, 90432, Note_off_c, 12, 58, 64
7, 90720, Note_on_c, 12, 65, 58
7, 90912, Note_off_c, 12, 65, 64
7, 91200, Note_on_c, 12, 70, 58
7, 91392, Note_off_c, 12, 70, 64
7, 91920, Note_on_c, 12, 67, 58
7, 91986, Note_off_c, 12, 67, 64
7, 92160, Note_on_c, 12, 65, 58
7, 92226, Note_off_c, 12, 65, 64
7, 92400, Note_on_c, 12, 63, 58
7, 92466, Note_off_c, 12, 63, 64
7, 92640, Note_on_c, 12, 58, 92
7, 92640, Note_on_c, 12, 62, 92
7, 92832, Note_off_c, 12, 62, 64
7, 92832, Note_off_c, 12, 58, 64
7, 92880, Note_on_c, 12, 58, 92
7, 92944, Note_off_c, 12, 58, 64
7, 92960, Note_on_c, 12, 58, 92
7, 93024, Note_off_c, 12, 58, 64
7, 93040, Note_on_c, 12, 58, 92
7, 93104, Note_off_c, 12, 58, 64
7, 93120, Note_on_c, 12, 58, 92
7, 93184, Note_off_c, 12, 58, 64
7, 93200, Note_on_c, 12, 58, 92
7, 93264, Note_off_c, 12, 58, 64
7, 93280, Note_on_c, 12, 58, 92
7, 93344, Note_off_c, 12, 58, 64
7, 93360, Note_on_c, 12, 58, 92
7, 93424, Note_off_c, 12, 58, 64
7, 93440, Note_on_c, 12, 58, 92
7, 93504, Note_off_c, 12, 58, 64
7, 93520, Note_on_c, 12, 58, 92
7, 93584, Note_off_c, 12, 58, 64
7, 93600, Note_on_c, 12, 58, 92
7, 93732, Note_off_c, 12, 58, 64
7, 93840, Note_on_c, 12, 62, 92
7, 93972, Note_off_c, 12, 62, 64
7, 94080, Note_on_c, 12, 65, 92
7, 94212, Note_off_c, 12, 65, 64
7, 94560, Note_on_c, 12, 62, 58
7, 94692, Note_off_c, 12, 62, 64
7, 94800, Note_on_c, 12, 65, 58
7, 94932, Note_off_c, 12, 65, 64
7, 95040, Note_on_c, 12, 70, 58
7, 95172, Note_off_c, 12, 70, 64
7, 95520, Note_on_c, 12, 58, 105
7, 95712, Note_off_c, 12, 58, 64
7, 95760, Note_on_c, 12, 62, 105
7, 95952, Note_off_c, 12, 62, 64
7, 96000, Note_on_c, 12, 65, 105
7, 96192, Note_off_c, 12, 65, 64
7, 96240, Note_on_c, 12, 70, 105
7, 96432, Note_off_c, 12, 70, 64
7, 96480, Note_on_c, 12, 65, 105
7, 96672, Note_off_c, 12, 65, 64
7, 96720, Note_on_c, 12, 62, 105
7, 96912, Note_off_c, 12, 62, 64
7, 96960, Note_on_c, 12, 58, 105
7, 97152, Note_off_c, 12, 58, 64
7, 99120, Note_on_c, 12, 72, 70
7, 99168, Note_off_c, 12, 72, 64
7, 99200, Note_on_c, 12, 72, 70
7, 99248, Note_off_c, 12, 72, 64
7, 99280, Note_on_c, 12, 72, 70
7, 99328, Note_off_c, 12, 72, 64
7, 99360, Note_on_c, 12, 70, 70
7, 99408, Note_off_c, 12, 70, 64
7, 99440, Note_on_c, 12, 70, 70
7, 99488, Note_off_c, 12, 70, 64
7, 99520, Note_on_c, 12, 70, 70
7, 99568, Note_off_c, 12, 70, 64
7, 99600, Note_on_c, 12, 72, 70
7, 99648, Note_off_c, 12, 72, 64
7, 99680, Note_on_c, 12, 72, 70
7, 99728, Note_off_c, 12, 72, 64
7, 99760, Note_on_c, 12, 72, 70
7, 99808, Note_off_c, 12, 72, 64
7, 99840, Note_on_c, 12, 70, 70
7, 99888, Note_off_c, 12, 70, 64
7, 99920, Note_on_c, 12, 70, 70
7, 99968, Note_off_c, 12, 70, 64
7, 100000, Note_on_c, 12, 70, 70
7, 100048, Note_off_c, 12, 70, 64
7, 100080, Note_on_c, 12, 72, 70
7, 100128, Note_off_c, 12, 72, 64
7, 100160, Note_on_c, 12, 72, 70
7, 100208, Note_off_c, 12, 72, 64
7, 100240, Note_on_c, 12, 72, 70
7, 100288, Note_off_c, 12, 72, 64
7, 100320, Note_on_c, 12, 70, 70
7, 100512, Note_off_c, 12, 70, 64
7, 102960, Note_on_c, 12, 70, 70
7, 103008, Note_off_c, 12, 70, 64
7, 103040, Note_on_c, 12, 70, 70
7, 103088, Note_off_c, 12, 70, 64
7, 103120, Note_on_c, 12, 70, 70
7, 103168, Note_off_c, 12, 70, 64
7, 103200, Note_on_c, 12, 69, 70
7, 103248, Note_off_c, 12, 69, 64
7, 103280, Note_on_c, 12, 69, 70
7, 103328, Note_off_c, 12, 69, 64
7, 103360, Note_on_c, 12, 69, 70
7, 103408, Note_off_c, 12, 69, 64
7, 103440, Note_on_c, 12, 70, 70
7, 103488, Note_off_c, 12, 70, 64
7, 103520, Note_on_c, 12, 70, 70
7, 103568, Note_off_c, 12, 70, 64
7, 103600, Note_on_c, 12, 70, 70
7, 103648, Note_off_c, 12, 70, 64
7, 103680, Note_on_c, 12, 69, 70
7, 103728, Note_off_c, 12, 69, 64
7, 103760, Note_on_c, 12, 69, 70
7, 103808, Note_off_c, 12, 69, 64
7, 103840, Note_on_c, 12, 69, 70
7, 103888, Note_off_c, 12, 69, 64
7, 103920, Note_on_c, 12, 70, 70
7, 103968, Note_off_c, 12, 70, 64
7, 104000, Note_on_c, 12, 70, 70
7, 104048, Note_off_c, 12, 70, 64
7, 104080, Note_on_c, 12, 70, 70
7, 104128, Note_off_c, 12, 70, 64
7, 104160, Note_on_c, 12, 69, 70
7, 104352, Note_off_c, 12, 69, 64
7, 105120, Note_on_c, 12, 55, 58
7, 105192, Note_off_c, 12, 55, 64
7, 105240, Note_on_c, 12, 62, 58
7, 105312, Note_off_c, 12, 62, 64
7, 105360, Note_on_c, 12, 58, 58
7, 105432, Note_off_c, 12, 58, 64
7, 105480, Note_on_c, 12, 67, 58
7, 105552, Note_off_c, 12, 67, 64
7, 105600, Note_on_c, 12, 55, 58
7, 105672, Note_off_c, 12, 55, 64
7, 105720, Note_on_c, 12, 62, 58
7, 105792, Note_off_c, 12, 62, 64
7, 105840, Note_on_c, 12, 58, 58
7, 105912, Note_off_c, 12, 58, 64
7, 105960, Note_on_c, 12, 67, 58
7, 106032, Note_off_c, 12, 67, 64
7, 106080, Note_on_c, 12, 55, 58
7, 106152, Note_off_c, 12, 55, 64
7, 106200, Note_on_c, 12, 62, 58
7, 106272, Note_off_c, 12, 62, 64
7, 106320, Note_on_c, 12, 58, 58
7, 106392, Note_off_c, 12, 58, 64
7, 106440, Note_on_c, 12, 67, 58
7, 106512, Note_off_c, 12, 67, 64
7, 106560, Note_on_c, 12, 55, 58
7, 106632, Note_off_c, 12, 55, 64
7, 106680, Note_on_c, 12, 58, 58
7, 106752, Note_off_c, 12, 58, 64
7, 106800, Note_on_c, 12, 57, 58
7, 106872, Note_off_c, 12, 57, 64
7, 106920, Note_on_c, 12, 60, 58
7, 106992, Note_off_c, 12, 60, 64
7, 107040, Note_on_c, 12, 55, 58
7, 107112, Note_off_c, 12, 55, 64
7, 107160, Note_on_c, 12, 62, 58
7, 107232, Note_off_c, 12, 62, 64
7, 107280, Note_on_c, 12, 58, 58
7, 107352, Note_off_c, 12, 58, 64
7, 107400, Note_on_c, 12, 67, 58
7, 107472, Note_off_c, 12, 67, 64
7, 107520, Note_on_c, 12, 55, 58
7, 107592, Note_off_c, 12, 55, 64
7, 107640, Note_on_c, 12, 62, 58
7, 107712, Note_off_c, 12, 62, 64
7, 107760, Note_on_c, 12, 58, 58
7, 107832, Note_off_c, 12, 58, 64
7, 107880, Note_on_c, 12, 67, 58
7, 107952, Note_off_c, 12, 67, 64
7, 108000, Note_on_c, 12, 55, 58
7, 108072, Note_off_c, 12, 55, 64
7, 108120, Note_on_c, 12, 62, 58
7, 108192, Note_off_c, 12, 62, 64
7, 108240, Note_on_c, 12, 58, 58
7, 108312, Note_off_c, 12, 58, 64
7, 108360, Note_on_c, 12, 67, 58
7, 108432, Note_off_c, 12, 67, 64
7, 108480, Note_on_c, 12, 55, 58
7, 108552, Note_off_c, 12, 55, 64
7, 108600, Note_on_c, 12, 58, 58
7, 108672, Note_off_c, 12, 58, 64
7, 108720, Note_on_c, 12, 57, 58
7, 108792, Note_off_c, 12, 57, 64
7, 108840, Note_on_c, 12, 60, 58
7, 108912, Note_off_c, 12, 60, 64
7, 108960, Note_on_c, 12, 58, 58
7, 110400, Note_off_c, 12, 58, 64
7, 110400, Note_on_c, 12, 59, 58
7, 110784, Note_off_c, 12, 59, 64
7, 110880, Note_on_c, 12, 60, 105
7, 111024, Note_off_c, 12, 60, 64
7, 111120, Note_on_c, 12, 67, 105
7, 111192, Note_off_c, 12, 67, 64
7, 111240, Note_on_c, 12, 67, 105
7, 111312, Note_off_c, 12, 67, 64
7, 111360, Note_on_c, 12, 72, 105
7, 111504, Note_off_c, 12, 72, 64
7, 111600, Note_on_c, 12, 60, 105
7, 111672, Note_off_c, 12, 60, 64
7, 111720, Note_on_c, 12, 60, 105
7, 111792, Note_off_c, 12, 60, 64
7, 111840, Note_on_c, 12, 60, 105
7, 111984, Note_off_c, 12, 60, 64
7, 112080, Note_on_c, 12, 70, 105
7, 112152, Note_off_c, 12, 70, 64
7, 112200, Note_on_c, 12, 69, 105
7, 112272, Note_off_c, 12, 69, 64
7, 112320, Note_on_c, 12, 67, 105
7, 112464, Note_off_c, 12, 67, 64
7, 112560, Note_on_c, 12, 67, 105
7, 112632, Note_off_c, 12, 67, 64
7, 112680, Note_on_c, 12, 65, 105
7, 112752, Note_off_c, 12, 65, 64
7, 112800, Note_on_c, 12, 64, 105
7, 112872, Note_off_c, 12, 64, 64
7, 112920, Note_on_c, 12, 60, 105
7, 112992, Note_off_c, 12, 60, 64
7, 113040, Note_on_c, 12, 60, 105
7, 113112, Note_off_c, 12, 60, 64
7, 113160, Note_on_c, 12, 60, 105
7, 113232, Note_off_c, 12, 60, 64
7, 113280, Note_on_c, 12, 64, 105
7, 113352, Note_off_c, 12, 64, 64
7, 113400, Note_on_c, 12, 60, 105
7, 113472, Note_off_c, 12, 60, 64
7, 113520, Note_on_c, 12, 60, 105
7, 113592, Note_off_c, 12, 60, 64
7, 113640, Note_on_c, 12, 60, 105
7, 113712, Note_off_c, 12, 60, 64
7, 113760, Note_on_c, 12, 72, 105
7, 113832, Note_off_c, 12, 72, 64
7, 113880, Note_on_c, 12, 72, 105
7, 113952, Note_off_c, 12, 72, 64
7, 114000, Note_on_c, 12, 72, 105
7, 114072, Note_off_c, 12, 72, 64
7, 114120, Note_on_c, 12, 72, 105
7, 114192, Note_off_c, 12, 72, 64
7, 114240, Note_on_c, 12, 72, 105
7, 114312, Note_off_c, 12, 72, 64
7, 114360, Note_on_c, 12, 72, 105
7, 114432, Note_off_c, 12, 72, 64
7, 114480, Note_on_c, 12, 72, 105
7, 114552, Note_off_c, 12, 72, 64
7, 114600, Note_on_c, 12, 72, 105
7, 114672, Note_off_c, 12, 72, 64
7, 114720, Note_on_c, 12, 72, 105
7, 114912, Note_off_c, 12, 72, 64
7, 116760, Note_on_c, 12, 60, 58
7, 116832, Note_off_c, 12, 60, 64
7, 116880, Note_on_c, 12, 57, 58
7, 116952, Note_off_c, 12, 57, 64
7, 117000, Note_on_c, 12, 60, 58
7, 117072, Note_off_c, 12, 60, 64
7, 117120, Note_on_c, 12, 53, 58
7, 117192, Note_off_c, 12, 53, 64
7, 117240, Note_on_c, 12, 60, 58
7, 117312, Note_off_c, 12, 60, 64
7, 117360, Note_on_c, 12, 57, 58
7, 117432, Note_off_c, 12, 57, 64
7, 117480, Note_on_c, 12, 60, 58
7, 117552, Note_off_c, 12, 60, 64
7, 117600, Note_on_c, 12, 53, 58
7, 117672, Note_off_c, 12, 53, 64
7, 117720, Note_on_c, 12, 60, 58
7, 117792, Note_off_c, 12, 60, 64
7, 117840, Note_on_c, 12, 57, 58
7, 117912, Note_off_c, 12, 57, 64
7, 117960, Note_on_c, 12, 60, 58
7, 118032, Note_off_c, 12, 60, 64
7, 118080, Note_on_c, 12, 53, 58
7, 118152, Note_off_c, 12, 53, 64
7, 118200, Note_on_c, 12, 60, 58
7, 118272, Note_off_c, 12, 60, 64
7, 118320, Note_on_c, 12, 57, 58
7, 118392, Note_off_c, 12, 57, 64
7, 118440, Note_on_c, 12, 60, 58
7, 118512, Note_off_c, 12, 60, 64
7, 118560, Note_on_c, 12, 52, 58
7, 118632, Note_off_c, 12, 52, 64
7, 118680, Note_on_c, 12, 60, 58
7, 118752, Note_off_c, 12, 60, 64
7, 118800, Note_on_c, 12, 55, 58
7, 118872, Note_off_c, 12, 55, 64
7, 118920, Note_on_c, 12, 60, 58
7, 118992, Note_off_c, 12, 60, 64
7, 119040, Note_on_c, 12, 52, 58
7, 119112, Note_off_c, 12, 52, 64
7, 119160, Note_on_c, 12, 60, 58
7, 119232, Note_off_c, 12, 60, 64
7, 119280, Note_on_c, 12, 55, 58
7, 119352, Note_off_c, 12, 55, 64
7, 119400, Note_on_c, 12, 60, 58
7, 119472, Note_off_c, 12, 60, 64
7, 119520, Note_on_c, 12, 52, 58
7, 119592, Note_off_c, 12, 52, 64
7, 119640, Note_on_c, 12, 60, 58
7, 119712, Note_off_c, 12, 60, 64
7, 119760, Note_on_c, 12, 55, 58
7, 119832, Note_off_c, 12, 55, 64
7, 119880, Note_on_c, 12, 60, 58
7, 119952, Note_off_c, 12, 60, 64
7, 120000, Note_on_c, 12, 52, 58
7, 120072, Note_off_c, 12, 52, 64
7, 120120, Note_on_c, 12, 60, 58
7, 120192, Note_off_c, 12, 60, 64
7, 120240, Note_on_c, 12, 55, 58
7, 120312, Note_off_c, 12, 55, 64
7, 120360, Note_on_c, 12, 60, 58
7, 120432, Note_off_c, 12, 60, 64
7, 120480, Note_on_c, 12, 53, 58
7, 120552, Note_off_c, 12, 53, 64
7, 120600, Note_on_c, 12, 60, 58
7, 120672, Note_off_c, 12, 60, 64
7, 120720, Note_on_c, 12, 57, 58
7, 120792, Note_off_c, 12, 57, 64
7, 120840, Note_on_c, 12, 60, 58
7, 120912, Note_off_c, 12, 60, 64
7, 121440, Note_on_c, 12, 53, 58
7, 121824, Note_off_c, 12, 53, 64
7, 122160, Note_on_c, 12, 60, 58
7, 122400, Note_off_c, 12, 60, 64
7, 122400, Note_on_c, 12, 64, 58
7, 122640, Note_off_c, 12, 64, 64
7, 122640, Note_on_c, 12, 65, 58
7, 122832, Note_off_c, 12, 65, 64
7, 123120, Note_on_c, 12, 60, 58
7, 123120, Note_on_c, 12, 65, 58
7, 123312, Note_off_c, 12, 65, 64
7, 123312, Note_off_c, 12, 60, 64
7, 123360, Note_on_c, 12, 62, 58
7, 123360, Note_on_c, 12, 65, 58
7, 123840, Note_off_c, 12, 62, 64
7, 123840, Note_on_c, 12, 60, 58
7, 124080, Note_off_c, 12, 60, 64
7, 124080, Note_on_c, 12, 59, 58
7, 124320, Note_off_c, 12, 59, 64
7, 124320, Note_off_c, 12, 65, 64
7, 124320, Note_on_c, 12, 64, 58
7, 124320, Note_on_c, 12, 60, 58
7, 124512, Note_off_c, 12, 60, 64
7, 124512, Note_off_c, 12, 64, 64
7, 124800, Note_on_c, 12, 57, 58
7, 124852, Note_off_c, 12, 57, 64
7, 124880, Note_on_c, 12, 65, 58
7, 124932, Note_off_c, 12, 65, 64
7, 124960, Note_on_c, 12, 65, 58
7, 125012, Note_off_c, 12, 65, 64
7, 125040, Note_on_c, 12, 65, 58
7, 125092, Note_off_c, 12, 65, 64
7, 125120, Note_on_c, 12, 65, 58
7, 125172, Note_off_c, 12, 65, 64
7, 125200, Note_on_c, 12, 65, 58
7, 125252, Note_off_c, 12, 65, 64
7, 125280, Note_on_c, 12, 57, 58
7, 125332, Note_off_c, 12, 57, 64
7, 125360, Note_on_c, 12, 65, 58
7, 125412, Note_off_c, 12, 65, 64
7, 125440, Note_on_c, 12, 65, 58
7, 125492, Note_off_c, 12, 65, 64
7, 125520, Note_on_c, 12, 65, 58
7, 125572, Note_off_c, 12, 65, 64
7, 125600, Note_on_c, 12, 65, 58
7, 125652, Note_off_c, 12, 65, 64
7, 125680, Note_on_c, 12, 65, 58
7, 125732, Note_off_c, 12, 65, 64
7, 125760, Note_on_c, 12, 57, 58
7, 125812, Note_off_c, 12, 57, 64
7, 125840, Note_on_c, 12, 65, 58
7, 125892, Note_off_c, 12, 65, 64
7, 125920, Note_on_c, 12, 65, 58
7, 125972, Note_off_c, 12, 65, 64
7, 126000, Note_on_c, 12, 65, 58
7, 126052, Note_off_c, 12, 65, 64
7, 126080, Note_on_c, 12, 65, 58
7, 126132, Note_off_c, 12, 65, 64
7, 126160, Note_on_c, 12, 65, 58
7, 126212, Note_off_c, 12, 65, 64
7, 126240, Note_on_c, 12, 60, 58
7, 126292, Note_off_c, 12, 60, 64
7, 126320, Note_on_c, 12, 64, 58
7, 126372, Note_off_c, 12, 64, 64
7, 126400, Note_on_c, 12, 64, 58
7, 126452, Note_off_c, 12, 64, 64
7, 126480, Note_on_c, 12, 64, 58
7, 126532, Note_off_c, 12, 64, 64
7, 126560, Note_on_c, 12, 64, 58
7, 126612, Note_off_c, 12, 64, 64
7, 126640, Note_on_c, 12, 64, 58
7, 126692, Note_off_c, 12, 64, 64
7, 126720, Note_on_c, 12, 60, 58
7, 126772, Note_off_c, 12, 60, 64
7, 126800, Note_on_c, 12, 64, 58
7, 126852, Note_off_c, 12, 64, 64
7, 126880, Note_on_c, 12, 64, 58
7, 126932, Note_off_c, 12, 64, 64
7, 126960, Note_on_c, 12, 64, 58
7, 127012, Note_off_c, 12, 64, 64
7, 127040, Note_on_c, 12, 64, 58
7, 127092, Note_off_c, 12, 64, 64
7, 127120, Note_on_c, 12, 64, 58
7, 127172, Note_off_c, 12, 64, 64
7, 127200, Note_on_c, 12, 60, 58
7, 127252, Note_off_c, 12, 60, 64
7, 127280, Note_on_c, 12, 64, 58
7, 127332, Note_off_c, 12, 64, 64
7, 127360, Note_on_c, 12, 64, 58
7, 127412, Note_off_c, 12, 64, 64
7, 127440, Note_on_c, 12, 64, 58
7, 127492, Note_off_c, 12, 64, 64
7, 127520, Note_on_c, 12, 64, 58
7, 127572, Note_off_c, 12, 64, 64
7, 127600, Note_on_c, 12, 64, 58
7, 127652, Note_off_c, 12, 64, 64
7, 127680, Note_on_c, 12, 60, 58
7, 127732, Note_off_c, 12, 60, 64
7, 127760, Note_on_c, 12, 64, 58
7, 127812, Note_off_c, 12, 64, 64
7, 127840, Note_on_c, 12, 64, 58
7, 127892, Note_off_c, 12, 64, 64
7, 127920, Note_on_c, 12, 64, 58
7, 127972, Note_off_c, 12, 64, 64
7, 128000, Note_on_c, 12, 64, 58
7, 128052, Note_off_c, 12, 64, 64
7, 128080, Note_on_c, 12, 64, 58
7, 128132, Note_off_c, 12, 64, 64
7, 128160, Note_on_c, 12, 57, 58
7, 128212, Note_off_c, 12, 57, 64
7, 128240, Note_on_c, 12, 65, 58
7, 128292, Note_off_c, 12, 65, 64
7, 128320, Note_on_c, 12, 65, 58
7, 128372, Note_off_c, 12, 65, 64
7, 128400, Note_on_c, 12, 65, 58
7, 128452, Note_off_c, 12, 65, 64
7, 128480, Note_on_c, 12, 65, 58
7, 128532, Note_off_c, 12, 65, 64
7, 128560, Note_on_c, 12, 65, 58
7, 128612, Note_off_c, 12, 65, 64
7, 129120, Note_on_c, 12, 53, 58
7, 129576, Note_off_c, 12, 53, 64
7, 129840, Note_on_c, 12, 65, 58
7, 129840, Note_on_c, 12, 60, 58
7, 130080, Note_off_c, 12, 65, 64
7, 130080, Note_on_c, 12, 67, 58
7, 130320, Note_off_c, 12, 67, 64
7, 130320, Note_on_c, 12, 65, 58
7, 130512, Note_off_c, 12, 60, 64
7, 130512, Note_off_c, 12, 65, 64
7, 131040, Note_on_c, 12, 62, 58
7, 131040, Note_on_c, 12, 58, 58
7, 131496, Note_off_c, 12, 58, 64
7, 131496, Note_off_c, 12, 62, 64
7, 131520, Note_on_c, 12, 57, 58
7, 131520, Note_on_c, 12, 60, 58
7, 131760, Note_off_c, 12, 60, 64
7, 131760, Note_off_c, 12, 57, 64
7, 131760, Note_on_c, 12, 58, 58
7, 131760, Note_on_c, 12, 64, 58
7, 131952, Note_off_c, 12, 64, 64
7, 131952, Note_off_c, 12, 58, 64
7, 132000, Note_on_c, 12, 65, 58
7, 132000, Note_on_c, 12, 60, 58
7, 132156, Note_off_c, 12, 60, 64
7, 132156, Note_off_c, 12, 65, 64
7, 132240, Note_on_c, 12, 48, 58
7, 132292, Note_off_c, 12, 48, 64
7, 132320, Note_on_c, 12, 48, 105
7, 132372, Note_off_c, 12, 48, 64
7, 132400, Note_on_c, 12, 48, 105
7, 132452, Note_off_c, 12, 48, 64
7, 132480, Note_on_c, 12, 50, 105
7, 132532, Note_off_c, 12, 50, 64
7, 132560, Note_on_c, 12, 50, 105
7, 132612, Note_off_c, 12, 50, 64
7, 132640, Note_on_c, 12, 50, 105
7, 132692, Note_off_c, 12, 50, 64
7, 132720, Note_on_c, 12, 52, 105
7, 132772, Note_off_c, 12, 52, 64
7, 132800, Note_on_c, 12, 52, 105
7, 132852, Note_off_c, 12, 52, 64
7, 132880, Note_on_c, 12, 52, 105
7, 132932, Note_off_c, 12, 52, 64
7, 132960, Note_on_c, 12, 53, 105
7, 133012, Note_off_c, 12, 53, 64
7, 133040, Note_on_c, 12, 53, 105
7, 133092, Note_off_c, 12, 53, 64
7, 133120, Note_on_c, 12, 53, 105
7, 133172, Note_off_c, 12, 53, 64
7, 133200, Note_on_c, 12, 65, 105
7, 133252, Note_off_c, 12, 65, 64
7, 133280, Note_on_c, 12, 65, 105
7, 133332, Note_off_c, 12, 65, 64
7, 133360, Note_on_c, 12, 65, 105
7, 133412, Note_off_c, 12, 65, 64
7, 133440, Note_on_c, 12, 64, 105
7, 133492, Note_off_c, 12, 64, 64
7, 133520, Note_on_c, 12, 64, 105
7, 133572, Note_off_c, 12, 64, 64
7, 133600, Note_on_c, 12, 64, 105
7, 133652, Note_off_c, 12, 64, 64
7, 133680, Note_on_c, 12, 63, 105
7, 133732, Note_off_c, 12, 63, 64
7, 133760, Note_on_c, 12, 63, 105
7, 133812, Note_off_c, 12, 63, 64
7, 133840, Note_on_c, 12, 63, 105
7, 133892, Note_off_c, 12, 63, 64
7, 133920, Note_on_c, 12, 62, 105
7, 133972, Note_off_c, 12, 62, 64
7, 134000, Note_on_c, 12, 62, 105
7, 134052, Note_off_c, 12, 62, 64
7, 134080, Note_on_c, 12, 62, 105
7, 134132, Note_off_c, 12, 62, 64
7, 134160, Note_on_c, 12, 72, 105
7, 134212, Note_off_c, 12, 72, 64
7, 134240, Note_on_c, 12, 72, 105
7, 134292, Note_off_c, 12, 72, 64
7, 134320, Note_on_c, 12, 72, 105
7, 134372, Note_off_c, 12, 72, 64
7, 134400, Note_on_c, 12, 70, 105
7, 134452, Note_off_c, 12, 70, 64
7, 134480, Note_on_c, 12, 70, 105
7, 134532, Note_off_c, 12, 70, 64
7, 134560, Note_on_c, 12, 70, 105
7, 134612, Note_off_c, 12, 70, 64
7, 134640, Note_on_c, 12, 67, 105
7, 134692, Note_off_c, 12, 67, 64
7, 134720, Note_on_c, 12, 67, 105
7, 134772, Note_off_c, 12, 67, 64
7, 134800, Note_on_c, 12, 67, 105
7, 134852, Note_off_c, 12, 67, 64
7, 134880, Note_on_c, 12, 60, 105
7, 134932, Note_off_c, 12, 60, 64
7, 134960, Note_on_c, 12, 60, 105
7, 135012, Note_off_c, 12, 60, 64
7, 135040, Note_on_c, 12, 60, 105
7, 135092, Note_off_c, 12, 60, 64
7, 135120, Note_on_c, 12, 62, 105
7, 135172, Note_off_c, 12, 62, 64
7, 135200, Note_on_c, 12, 62, 105
7, 135252, Note_off_c, 12, 62, 64
7, 135280, Note_on_c, 12, 62, 105
7, 135332, Note_off_c, 12, 62, 64
7, 135360, Note_on_c, 12, 62, 105
7, 135412, Note_off_c, 12, 62, 64
7, 135440, Note_on_c, 12, 62, 105
7, 135492, Note_off_c, 12, 62, 64
7, 135520, Note_on_c, 12, 62, 105
7, 135572, Note_off_c, 12, 62, 64
7, 135600, Note_on_c, 12, 67, 105
7, 135652, Note_off_c, 12, 67, 64
7, 135680, Note_on_c, 12, 67, 105
7, 135732, Note_off_c, 12, 67, 64
7, 135760, Note_on_c, 12, 67, 105
7, 135812, Note_off_c, 12, 67, 64
7, 135840, Note_on_c, 12, 65, 92
7, 135996, Note_off_c, 12, 65, 64
7, 136080, Note_on_c, 12, 48, 105
7, 136132, Note_off_c, 12, 48, 64
7, 136160, Note_on_c, 12, 48, 105
7, 136212, Note_off_c, 12, 48, 64
7, 136240, Note_on_c, 12, 48, 105
7, 136292, Note_off_c, 12, 48, 64
7, 136320, Note_on_c, 12, 50, 105
7, 136372, Note_off_c, 12, 50, 64
7, 136400, Note_on_c, 12, 50, 105
7, 136452, Note_off_c, 12, 50, 64
7, 136480, Note_on_c, 12, 50, 105
7, 136532, Note_off_c, 12, 50, 64
7, 136560, Note_on_c, 12, 52, 105
7, 136612, Note_off_c, 12, 52, 64
7, 136640, Note_on_c, 12, 52, 105
7, 136692, Note_off_c, 12, 52, 64
7, 136720, Note_on_c, 12, 52, 105
7, 136772, Note_off_c, 12, 52, 64
7, 136800, Note_on_c, 12, 53, 105
7, 136852, Note_off_c, 12, 53, 64
7, 136880, Note_on_c, 12, 53, 105
7, 136932, Note_off_c, 12, 53, 64
7, 136960, Note_on_c, 12, 53, 105
7, 137012, Note_off_c, 12, 53, 64
7, 137040, Note_on_c, 12, 65, 105
7, 137092, Note_off_c, 12, 65, 64
7, 137120, Note_on_c, 12, 65, 105
7, 137172, Note_off_c, 12, 65, 64
7, 137200, Note_on_c, 12, 65, 105
7, 137252, Note_off_c, 12, 65, 64
7, 137280, Note_on_c, 12, 64, 105
7, 137332, Note_off_c, 12, 64, 64
7, 137360, Note_on_c, 12, 64, 105
7, 137412, Note_off_c, 12, 64, 64
7, 137440, Note_on_c, 12, 64, 105
7, 137492, Note_off_c, 12, 64, 64
7, 137520, Note_on_c, 12, 63, 105
7, 137572, Note_off_c, 12, 63, 64
7, 137600, Note_on_c, 12, 63, 105
7, 137652, Note_off_c, 12, 63, 64
7, 137680, Note_on_c, 12, 63, 105
7, 137732, Note_off_c, 12, 63, 64
7, 137760, Note_on_c, 12, 62, 105
7, 137812, Note_off_c, 12, 62, 64
7, 137840, Note_on_c, 12, 62, 105
7, 137892, Note_off_c, 12, 62, 64
7, 137920, Note_on_c, 12, 62, 105
7, 137972, Note_off_c, 12, 62, 64
7, 138000, Note_on_c, 12, 72, 105
7, 138052, Note_off_c, 12, 72, 64
7, 138080, Note_on_c, 12, 72, 105
7, 138132, Note_off_c, 12, 72, 64
7, 138160, Note_on_c, 12, 72, 105
7, 138212, Note_off_c, 12, 72, 64
7, 138240, Note_on_c, 12, 70, 105
7, 138292, Note_off_c, 12, 70, 64
7, 138320, Note_on_c, 12, 70, 105
7, 138372, Note_off_c, 12, 70, 64
7, 138400, Note_on_c, 12, 70, 105
7, 138452, Note_off_c, 12, 70, 64
7, 138480, Note_on_c, 12, 67, 105
7, 138532, Note_off_c, 12, 67, 64
7, 138560, Note_on_c, 12, 67, 105
7, 138612, Note_off_c, 12, 67, 64
7, 138640, Note_on_c, 12, 67, 105
7, 138692, Note_off_c, 12, 67, 64
7, 138720, Note_on_c, 12, 60, 105
7, 138772, Note_off_c, 12, 60, 64
7, 138800, Note_on_c, 12, 60, 105
7, 138852, Note_off_c, 12, 60, 64
7, 138880, Note_on_c, 12, 60, 105
7, 138932, Note_off_c, 12, 60, 64
7, 138960, Note_on_c, 12, 62, 105
7, 139012, Note_off_c, 12, 62, 64
7, 139040, Note_on_c, 12, 62, 105
7, 139092, Note_off_c, 12, 62, 64
7, 139120, Note_on_c, 12, 62, 105
7, 139172, Note_off_c, 12, 62, 64
7, 139200, Note_on_c, 12, 62, 105
7, 139252, Note_off_c, 12, 62, 64
7, 139280, Note_on_c, 12, 62, 105
7, 139332, Note_off_c, 12, 62, 64
7, 139360, Note_on_c, 12, 62, 105
7, 139412, Note_off_c, 12, 62, 64
7, 139440, Note_on_c, 12, 67, 105
7, 139492, Note_off_c, 12, 67, 64
7, 139520, Note_on_c, 12, 67, 105
7, 139572, Note_off_c, 12, 67, 64
7, 139600, Note_on_c, 12, 67, 105
7, 139652, Note_off_c, 12, 67, 64
7, 139680, Note_on_c, 12, 65, 92
7, 139836, Note_off_c, 12, 65, 64
7, 143520, Note_on_c, 12, 57, 105
7, 143664, Note_off_c, 12, 57, 64
7, 143760, Note_on_c, 12, 57, 105
7, 143832, Note_off_c, 12, 57, 64
7, 143880, Note_on_c, 12, 58, 105
7, 143952, Note_off_c, 12, 58, 64
7, 144000, Note_on_c, 12, 57, 105
7, 144144, Note_off_c, 12, 57, 64
7, 144240, Note_on_c, 12, 57, 105
7, 144312, Note_off_c, 12, 57, 64
7, 144360, Note_on_c, 12, 55, 105
7, 144432, Note_off_c, 12, 55, 64
7, 144480, Note_on_c, 12, 53, 92
7, 144552, Note_off_c, 12, 53, 64
7, 144600, Note_on_c, 12, 53, 92
7, 144672, Note_off_c, 12, 53, 64
7, 144720, Note_on_c, 12, 53, 92
7, 144792, Note_off_c, 12, 53, 64
7, 144840, Note_on_c, 12, 53, 92
7, 144912, Note_off_c, 12, 53, 64
7, 144960, Note_on_c, 12, 53, 92
7, 145032, Note_off_c, 12, 53, 64
7, 145080, Note_on_c, 12, 53, 92
7, 145152, Note_off_c, 12, 53, 64
7, 145200, Note_on_c, 12, 53, 92
7, 145272, Note_off_c, 12, 53, 64
7, 145320, Note_on_c, 12, 53, 92
7, 145392, Note_off_c, 12, 53, 64
7, 145440, Note_on_c, 12, 52, 105
7, 145512, Note_off_c, 12, 52, 64
7, 145560, Note_on_c, 12, 52, 105
7, 145632, Note_off_c, 12, 52, 64
7, 145680, Note_on_c, 12, 52, 105
7, 145752, Note_off_c, 12, 52, 64
7, 145800, Note_on_c, 12, 52, 105
7, 145872, Note_off_c, 12, 52, 64
7, 145920, Note_on_c, 12, 52, 105
7, 145992, Note_off_c, 12, 52, 64
7, 146040, Note_on_c, 12, 52, 105
7, 146112, Note_off_c, 12, 52, 64
7, 146160, Note_on_c, 12, 52, 105
7, 146232, Note_off_c, 12, 52, 64
7, 146280, Note_on_c, 12, 52, 105
7, 146352, Note_off_c, 12, 52, 64
7, 146400, Note_on_c, 12, 53, 105
7, 146472, Note_off_c, 12, 53, 64
7, 146520, Note_on_c, 12, 53, 105
7, 146592, Note_off_c, 12, 53, 64
7, 146640, Note_on_c, 12, 53, 105
7, 146712, Note_off_c, 12, 53, 64
7, 146760, Note_on_c, 12, 53, 105
7, 146832, Note_off_c, 12, 53, 64
7, 146880, Note_on_c, 12, 60, 105
7, 146952, Note_off_c, 12, 60, 64
7, 147000, Note_on_c, 12, 60, 105
7, 147072, Note_off_c, 12, 60, 64
7, 147120, Note_on_c, 12, 60, 105
7, 147192, Note_off_c, 12, 60, 64
7, 147240, Note_on_c, 12, 60, 105
7, 147312, Note_off_c, 12, 60, 64
7, 147360, Note_on_c, 12, 60, 105
7, 147552, Note_off_c, 12, 60, 64
7, 148080, Note_on_c, 12, 70, 105
7, 148212, Note_off_c, 12, 70, 64
7, 148320, Note_on_c, 12, 69, 105
7, 148452, Note_off_c, 12, 69, 64
7, 149040, Note_on_c, 12, 72, 105
7, 149172, Note_off_c, 12, 72, 64
7, 149280, Note_on_c, 12, 72, 105
7, 149412, Note_off_c, 12, 72, 64
7, 150000, Note_on_c, 12, 70, 105
7, 150132, Note_off_c, 12, 70, 64
7, 150240, Note_on_c, 12, 69, 105
7, 150372, Note_off_c, 12, 69, 64
7, 150960, Note_on_c, 12, 72, 105
7, 151092, Note_off_c, 12, 72, 64
7, 151200, Note_on_c, 12, 65, 92
7, 151264, Note_off_c, 12, 65, 64
7, 151280, Note_on_c, 12, 67, 92
7, 151344, Note_off_c, 12, 67, 64
7, 151360, Note_on_c, 12, 69, 92
7, 151424, Note_off_c, 12, 69, 64
7, 151440, Note_on_c, 12, 70, 92
7, 151504, Note_off_c, 12, 70, 64
7, 151520, Note_on_c, 12, 72, 92
7, 151584, Note_off_c, 12, 72, 64
7, 151600, Note_on_c, 12, 74, 92
7, 151664, Note_off_c, 12, 74, 64
7, 151680, Note_on_c, 12, 72, 92
7, 151744, Note_off_c, 12, 72, 64
7, 151760, Note_on_c, 12, 70, 92
7, 151824, Note_off_c, 12, 70, 64
7, 151840, Note_on_c, 12, 69, 92
7, 151904, Note_off_c, 12, 69, 64
7, 151920, Note_on_c, 12, 67, 92
7, 151984, Note_off_c, 12, 67, 64
7, 152000, Note_on_c, 12, 65, 92
7, 152064, Note_off_c, 12, 65, 64
7, 152080, Note_on_c, 12, 64, 92
7, 152144, Note_off_c, 12, 64, 64
7, 152160, Note_on_c, 12, 62, 92
7, 152224, Note_off_c, 12, 62, 64
7, 152240, Note_on_c, 12, 64, 92
7, 152304, Note_off_c, 12, 64, 64
7, 152320, Note_on_c, 12, 65, 92
7, 152384, Note_off_c, 12, 65, 64
7, 152400, Note_on_c, 12, 67, 92
7, 152464, Note_off_c, 12, 67, 64
7, 152480, Note_on_c, 12, 69, 92
7, 152544, Note_off_c, 12, 69, 64
7, 152560, Note_on_c, 12, 70, 92
7, 152624, Note_off_c, 12, 70, 64
7, 152640, Note_on_c, 12, 69, 92
7, 152704, Note_off_c, 12, 69, 64
7, 152720, Note_on_c, 12, 67, 92
7, 152784, Note_off_c, 12, 67, 64
7, 152800, Note_on_c, 12, 65, 92
7, 152864, Note_off_c, 12, 65, 64
7, 152880, Note_on_c, 12, 64, 92
7, 152944, Note_off_c, 12, 64, 64
7, 152960, Note_on_c, 12, 62, 92
7, 153024, Note_off_c, 12, 62, 64
7, 153040, Note_on_c, 12, 60, 92
7, 153104, Note_off_c, 12, 60, 64
7, 153120, Note_on_c, 12, 58, 92
7, 153237, Note_off_c, 12, 58, 64
7, 153300, Note_on_c, 12, 58, 92
7, 153339, Note_off_c, 12, 58, 64
7, 153360, Note_on_c, 12, 57, 92
7, 153477, Note_off_c, 12, 57, 64
7, 153540, Note_on_c, 12, 55, 92
7, 153579, Note_off_c, 12, 55, 64
7, 153600, Note_on_c, 12, 60, 92
7, 153756, Note_off_c, 12, 60, 64
7, 153840, Note_on_c, 12, 60, 92
7, 153996, Note_off_c, 12, 60, 64
7, 154080, Note_on_c, 12, 60, 92
7, 154236, Note_off_c, 12, 60, 64
7, 154320, Note_on_c, 12, 60, 92
7, 154476, Note_off_c, 12, 60, 64
7, 154560, Note_on_c, 12, 60, 92
7, 154752, Note_off_c, 12, 60, 64
7, 159840, Note_on_c, 12, 65, 58
7, 160320, Note_off_c, 12, 65, 64
7, 160320, Note_on_c, 12, 62, 58
7, 160776, Note_off_c, 12, 62, 64
7, 160800, Note_on_c, 12, 58, 58
7, 161280, Note_off_c, 12, 58, 64
7, 161280, Note_on_c, 12, 60, 58
7, 161760, Note_off_c, 12, 60, 64
7, 161760, Note_on_c, 12, 57, 58
7, 162240, Note_off_c, 12, 57, 64
7, 162240, Note_on_c, 12, 58, 58
7, 162696, Note_off_c, 12, 58, 64
7, 162720, Note_on_c, 12, 55, 58
7, 163200, Note_off_c, 12, 55, 64
7, 163200, Note_on_c, 12, 57, 58
7, 163656, Note_off_c, 12, 57, 64
7, 163680, Note_on_c, 12, 50, 58
7, 163872, Note_off_c, 12, 50, 64
7, 165120, Note_on_c, 12, 66, 58
7, 165600, Note_off_c, 12, 66, 64
7, 165600, Note_on_c, 12, 67, 58
7, 165792, Note_off_c, 12, 67, 64
7, 167040, Note_on_c, 12, 71, 58
7, 167520, Note_off_c, 12, 71, 64
7, 167520, Note_on_c, 12, 72, 58
7, 167712, Note_off_c, 12, 72, 64
7, 168960, Note_on_c, 12, 64, 58
7, 169440, Note_off_c, 12, 64, 64
7, 169440, Note_on_c, 12, 65, 58
7, 169632, Note_off_c, 12, 65, 64
7, 170880, Note_on_c, 12, 69, 58
7, 171360, Note_off_c, 12, 69, 64
7, 171360, Note_on_c, 12, 70, 58
7, 171552, Note_off_c, 12, 70, 64
7, 173280, Note_on_c, 12, 63, 58
7, 173760, Note_off_c, 12, 63, 64
7, 173760, Note_on_c, 12, 58, 58
7, 174144, Note_off_c, 12, 58, 64
7, 174240, Note_on_c, 12, 48, 58
7, 174480, Note_off_c, 12, 48, 64
7, 174480, Note_on_c, 12, 53, 58
7, 174960, Note_off_c, 12, 53, 64
7, 174960, Note_on_c, 12, 55, 58
7, 175152, Note_off_c, 12, 55, 64
7, 175200, Note_on_c, 12, 65, 105
7, 175200, Note_on_c, 12, 57, 105
7, 175584, Note_off_c, 12, 57, 64
7, 175584, Note_off_c, 12, 65, 64
7, 175680, Note_on_c, 12, 60, 105
7, 176064, Note_off_c, 12, 60, 64
7, 176160, Note_on_c, 12, 58, 105
7, 176400, Note_off_c, 12, 58, 64
7, 176400, Note_on_c, 12, 57, 105
7, 176592, Note_off_c, 12, 57, 64
7, 176640, Note_on_c, 12, 62, 105
7, 176880, Note_off_c, 12, 62, 64
7, 176880, Note_on_c, 12, 60, 105
7, 177072, Note_off_c, 12, 60, 64
7, 177120, Note_on_c, 12, 65, 105
7, 177360, Note_off_c, 12, 65, 64
7, 177360, Note_on_c, 12, 64, 105
7, 177552, Note_off_c, 12, 64, 64
7, 177600, Note_on_c, 12, 70, 105
7, 177840, Note_off_c, 12, 70, 64
7, 177840, Note_on_c, 12, 69, 105
7, 178032, Note_off_c, 12, 69, 64
7, 178080, Note_on_c, 12, 75, 105
7, 178368, Note_off_c, 12, 75, 64
7, 178440, Note_on_c, 12, 74, 105
7, 178518, Note_off_c, 12, 74, 64
7, 178560, Note_on_c, 12, 72, 105
7, 178638, Note_off_c, 12, 72, 64
7, 178680, Note_on_c, 12, 70, 105
7, 178758, Note_off_c, 12, 70, 64
7, 178800, Note_on_c, 12, 69, 105
7, 178878, Note_off_c, 12, 69, 64
7, 178920, Note_on_c, 12, 67, 105
7, 178998, Note_off_c, 12, 67, 64
7, 179040, Note_on_c, 12, 65, 105
7, 179118, Note_off_c, 12, 65, 64
7, 179160, Note_on_c, 12, 64, 105
7, 179238, Note_off_c, 12, 64, 64
7, 179280, Note_on_c, 12, 65, 105
7, 179358, Note_off_c, 12, 65, 64
7, 179400, Note_on_c, 12, 67, 105
7, 179478, Note_off_c, 12, 67, 64
7, 179520, Note_on_c, 12, 65, 105
7, 179598, Note_off_c, 12, 65, 64
7, 179640, Note_on_c, 12, 63, 105
7, 179718, Note_off_c, 12, 63, 64
7, 179760, Note_on_c, 12, 62, 105
7, 179838, Note_off_c, 12, 62, 64
7, 179880, Note_on_c, 12, 60, 105
7, 179958, Note_off_c, 12, 60, 64
7, 180000, Note_on_c, 12, 70, 105
7, 180000, Note_on_c, 12, 65, 105
7, 180000, Note_on_c, 12, 58, 105
7, 180192, Note_off_c, 12, 58, 64
7, 180192, Note_off_c, 12, 65, 64
7, 180192, Note_off_c, 12, 70, 64
7, 180960, Note_on_c, 12, 58, 58
7, 181008, Note_off_c, 12, 58, 64
7, 181040, Note_on_c, 12, 62, 58
7, 181088, Note_off_c, 12, 62, 64
7, 181120, Note_on_c, 12, 60, 58
7, 181168, Note_off_c, 12, 60, 64
7, 181200, Note_on_c, 12, 58, 58
7, 181248, Note_off_c, 12, 58, 64
7, 181280, Note_on_c, 12, 62, 58
7, 181328, Note_off_c, 12, 62, 64
7, 181360, Note_on_c, 12, 63, 58
7, 181408, Note_off_c, 12, 63, 64
7, 181440, Note_on_c, 12, 65, 58
7, 181488, Note_off_c, 12, 65, 64
7, 181520, Note_on_c, 12, 65, 58
7, 181568, Note_off_c, 12, 65, 64
7, 181600, Note_on_c, 12, 65, 58
7, 181648, Note_off_c, 12, 65, 64
7, 181680, Note_on_c, 12, 65, 58
7, 181728, Note_off_c, 12, 65, 64
7, 181760, Note_on_c, 12, 65, 58
7, 181808, Note_off_c, 12, 65, 64
7, 181840, Note_on_c, 12, 65, 58
7, 181888, Note_off_c, 12, 65, 64
7, 181920, Note_on_c, 12, 65, 98
7, 182112, Note_off_c, 12, 65, 64
7, 182880, Note_on_c, 12, 65, 58
7, 182928, Note_off_c, 12, 65, 64
7, 182960, Note_on_c, 12, 69, 58
7, 183008, Note_off_c, 12, 69, 64
7, 183040, Note_on_c, 12, 67, 58
7, 183088, Note_off_c, 12, 67, 64
7, 183120, Note_on_c, 12, 65, 58
7, 183168, Note_off_c, 12, 65, 64
7, 183200, Note_on_c, 12, 67, 58
7, 183248, Note_off_c, 12, 67, 64
7, 183280, Note_on_c, 12, 69, 58
7, 183328, Note_off_c, 12, 69, 64
7, 183360, Note_on_c, 12, 70, 58
7, 183408, Note_off_c, 12, 70, 64
7, 183440, Note_on_c, 12, 70, 58
7, 183488, Note_off_c, 12, 70, 64
7, 183520, Note_on_c, 12, 70, 58
7, 183568, Note_off_c, 12, 70, 64
7, 183600, Note_on_c, 12, 70, 58
7, 183648, Note_off_c, 12, 70, 64
7, 183680, Note_on_c, 12, 70, 58
7, 183728, Note_off_c, 12, 70, 64
7, 183760, Note_on_c, 12, 70, 58
7, 183808, Note_off_c, 12, 70, 64
7, 183840, Note_on_c, 12, 58, 58
7, 184032, Note_off_c, 12, 58, 64
7, 184320, Note_on_c, 12, 58, 58
7, 184512, Note_off_c, 12, 58, 64
7, 184800, Note_on_c, 12, 58, 58
7, 184992, Note_off_c, 12, 58, 64
7, 185280, Note_on_c, 12, 65, 58
7, 185472, Note_off_c, 12, 65, 64
7, 185760, Note_on_c, 12, 70, 58
7, 185952, Note_off_c, 12, 70, 64
7, 186480, Note_on_c, 12, 67, 58
7, 186546, Note_off_c, 12, 67, 64
7, 186720, Note_on_c, 12, 65, 58
7, 186786, Note_off_c, 12, 65, 64
7, 186960, Note_on_c, 12, 63, 58
7, 187026, Note_off_c, 12, 63, 64
7, 187200, Note_on_c, 12, 62, 92
7, 187200, Note_on_c, 12, 58, 92
7, 187356, Note_off_c, 12, 58, 64
7, 187356, Note_off_c, 12, 62, 64
7, 187440, Note_on_c, 12, 58, 92
7, 187492, Note_off_c, 12, 58, 64
7, 187520, Note_on_c, 12, 58, 92
7, 187572, Note_off_c, 12, 58, 64
7, 187600, Note_on_c, 12, 58, 92
7, 187652, Note_off_c, 12, 58, 64
7, 187680, Note_on_c, 12, 58, 92
7, 187732, Note_off_c, 12, 58, 64
7, 187760, Note_on_c, 12, 58, 92
7, 187812, Note_off_c, 12, 58, 64
7, 187840, Note_on_c, 12, 58, 92
7, 187892, Note_off_c, 12, 58, 64
7, 187920, Note_on_c, 12, 58, 92
7, 187972, Note_off_c, 12, 58, 64
7, 188000, Note_on_c, 12, 58, 92
7, 188052, Note_off_c, 12, 58, 64
7, 188080, Note_on_c, 12, 58, 92
7, 188132, Note_off_c, 12, 58, 64
7, 188160, Note_on_c, 12, 58, 92
7, 188292, Note_off_c, 12, 58, 64
7, 188400, Note_on_c, 12, 62, 92
7, 188532, Note_off_c, 12, 62, 64
7, 188640, Note_on_c, 12, 65, 92
7, 188772, Note_off_c, 12, 65, 64
7, 189120, Note_on_c, 12, 62, 58
7, 189252, Note_off_c, 12, 62, 64
7, 189360, Note_on_c, 12, 65, 58
7, 189492, Note_off_c, 12, 65, 64
7, 189600, Note_on_c, 12, 70, 58
7, 189732, Note_off_c, 12, 70, 64
7, 190080, Note_on_c, 12, 58, 105
7, 190212, Note_off_c, 12, 58, 64
7, 190320, Note_on_c, 12, 62, 105
7, 190452, Note_off_c, 12, 62, 64
7, 190560, Note_on_c, 12, 65, 105
7, 190692, Note_off_c, 12, 65, 64
7, 190800, Note_on_c, 12, 70, 105
7, 190932, Note_off_c, 12, 70, 64
7, 191040, Note_on_c, 12, 65, 105
7, 191172, Note_off_c, 12, 65, 64
7, 191280, Note_on_c, 12, 62, 105
7, 191412, Note_off_c, 12, 62, 64
7, 191520, Note_on_c, 12, 58, 105
7, 191652, Note_off_c, 12, 58, 64
7, 193680, Note_on_c, 12, 72, 58
7, 193728, Note_off_c, 12, 72, 64
7, 193760, Note_on_c, 12, 72, 58
7, 193808, Note_off_c, 12, 72, 64
7, 193840, Note_on_c, 12, 72, 58
7, 193888, Note_off_c, 12, 72, 64
7, 193920, Note_on_c, 12, 70, 58
7, 193968, Note_off_c, 12, 70, 64
7, 194000, Note_on_c, 12, 70, 58
7, 194048, Note_off_c, 12, 70, 64
7, 194080, Note_on_c, 12, 70, 58
7, 194128, Note_off_c, 12, 70, 64
7, 194160, Note_on_c, 12, 72, 58
7, 194208, Note_off_c, 12, 72, 64
7, 194240, Note_on_c, 12, 72, 58
7, 194288, Note_off_c, 12, 72, 64
7, 194320, Note_on_c, 12, 72, 58
7, 194368, Note_off_c, 12, 72, 64
7, 194400, Note_on_c, 12, 70, 58
7, 194448, Note_off_c, 12, 70, 64
7, 194480, Note_on_c, 12, 70, 58
7, 194528, Note_off_c, 12, 70, 64
7, 194560, Note_on_c, 12, 70, 58
7, 194608, Note_off_c, 12, 70, 64
7, 194640, Note_on_c, 12, 72, 58
7, 194688, Note_off_c, 12, 72, 64
7, 194720, Note_on_c, 12, 72, 58
7, 194768, Note_off_c, 12, 72, 64
7, 194800, Note_on_c, 12, 72, 58
7, 194848, Note_off_c, 12, 72, 64
7, 194880, Note_on_c, 12, 70, 58
7, 195072, Note_off_c, 12, 70, 64
7, 197520, Note_on_c, 12, 68, 58
7, 197568, Note_off_c, 12, 68, 64
7, 197600, Note_on_c, 12, 68, 58
7, 197648, Note_off_c, 12, 68, 64
7, 197680, Note_on_c, 12, 68, 58
7, 197728, Note_off_c, 12, 68, 64
7, 197760, Note_on_c, 12, 67, 58
7, 197808, Note_off_c, 12, 67, 64
7, 197840, Note_on_c, 12, 67, 58
7, 197888, Note_off_c, 12, 67, 64
7, 197920, Note_on_c, 12, 67, 58
7, 197968, Note_off_c, 12, 67, 64
7, 198000, Note_on_c, 12, 68, 58
7, 198048, Note_off_c, 12, 68, 64
7, 198080, Note_on_c, 12, 68, 58
7, 198128, Note_off_c, 12, 68, 64
7, 198160, Note_on_c, 12, 68, 58
7, 198208, Note_off_c, 12, 68, 64
7, 198240, Note_on_c, 12, 67, 58
7, 198288, Note_off_c, 12, 67, 64
7, 198320, Note_on_c, 12, 67, 58
7, 198368, Note_off_c, 12, 67, 64
7, 198400, Note_on_c, 12, 67, 58
7, 198448, Note_off_c, 12, 67, 64
7, 198480, Note_on_c, 12, 68, 58
7, 198528, Note_off_c, 12, 68, 64
7, 198560, Note_on_c, 12, 68, 58
7, 198608, Note_off_c, 12, 68, 64
7, 198640, Note_on_c, 12, 68, 58
7, 198688, Note_off_c, 12, 68, 64
7, 198720, Note_on_c, 12, 67, 58
7, 198912, Note_off_c, 12, 67, 64
7, 199680, Note_on_c, 12, 48, 58
7, 199752, Note_off_c, 12, 48, 64
7, 199800, Note_on_c, 12, 55, 58
7, 199872, Note_off_c, 12, 55, 64
7, 199920, Note_on_c, 12, 51, 58
7, 199992, Note_off_c, 12, 51, 64
7, 200040, Note_on_c, 12, 60, 58
7, 200112, Note_off_c, 12, 60, 64
7, 200160, Note_on_c, 12, 48, 58
7, 200232, Note_off_c, 12, 48, 64
7, 200280, Note_on_c, 12, 55, 58
7, 200352, Note_off_c, 12, 55, 64
7, 200400, Note_on_c, 12, 51, 58
7, 200472, Note_off_c, 12, 51, 64
7, 200520, Note_on_c, 12, 60, 58
7, 200592, Note_off_c, 12, 60, 64
7, 200640, Note_on_c, 12, 48, 58
7, 200712, Note_off_c, 12, 48, 64
7, 200760, Note_on_c, 12, 55, 58
7, 200832, Note_off_c, 12, 55, 64
7, 200880, Note_on_c, 12, 51, 58
7, 200952, Note_off_c, 12, 51, 64
7, 201000, Note_on_c, 12, 60, 58
7, 201072, Note_off_c, 12, 60, 64
7, 201120, Note_on_c, 12, 48, 58
7, 201192, Note_off_c, 12, 48, 64
7, 201240, Note_on_c, 12, 55, 58
7, 201312, Note_off_c, 12, 55, 64
7, 201360, Note_on_c, 12, 53, 58
7, 201432, Note_off_c, 12, 53, 64
7, 201480, Note_on_c, 12, 59, 58
7, 201552, Note_off_c, 12, 59, 64
7, 201600, Note_on_c, 12, 55, 58
7, 201672, Note_off_c, 12, 55, 64
7, 201720, Note_on_c, 12, 63, 58
7, 201792, Note_off_c, 12, 63, 64
7, 201840, Note_on_c, 12, 60, 58
7, 201912, Note_off_c, 12, 60, 64
7, 201960, Note_on_c, 12, 63, 58
7, 202032, Note_off_c, 12, 63, 64
7, 202080, Note_on_c, 12, 55, 58
7, 202152, Note_off_c, 12, 55, 64
7, 202200, Note_on_c, 12, 63, 58
7, 202272, Note_off_c, 12, 63, 64
7, 202320, Note_on_c, 12, 60, 58
7, 202392, Note_off_c, 12, 60, 64
7, 202440, Note_on_c, 12, 63, 58
7, 202512, Note_off_c, 12, 63, 64
7, 202560, Note_on_c, 12, 55, 58
7, 202632, Note_off_c, 12, 55, 64
7, 202680, Note_on_c, 12, 63, 58
7, 202752, Note_off_c, 12, 63, 64
7, 202800, Note_on_c, 12, 60, 58
7, 202872, Note_off_c, 12, 60, 64
7, 202920, Note_on_c, 12, 63, 58
7, 202992, Note_off_c, 12, 63, 64
7, 203040, Note_on_c, 12, 51, 58
7, 203112, Note_off_c, 12, 51, 64
7, 203160, Note_on_c, 12, 48, 58
7, 203232, Note_off_c, 12, 48, 64
7, 203280, Note_on_c, 12, 53, 58
7, 203352, Note_off_c, 12, 53, 64
7, 203400, Note_on_c, 12, 50, 58
7, 203472, Note_off_c, 12, 50, 64
7, 203520, Note_on_c, 12, 51, 58
7, 204960, Note_off_c, 12, 51, 64
7, 204960, Note_on_c, 12, 52, 58
7, 205416, Note_off_c, 12, 52, 64
7, 205440, Note_on_c, 12, 53, 105
7, 205584, Note_off_c, 12, 53, 64
7, 205680, Note_on_c, 12, 60, 105
7, 205752, Note_off_c, 12, 60, 64
7, 205800, Note_on_c, 12, 60, 105
7, 205872, Note_off_c, 12, 60, 64
7, 205920, Note_on_c, 12, 60, 105
7, 206064, Note_off_c, 12, 60, 64
7, 206160, Note_on_c, 12, 60, 105
7, 206232, Note_off_c, 12, 60, 64
7, 206280, Note_on_c, 12, 58, 105
7, 206352, Note_off_c, 12, 58, 64
7, 206400, Note_on_c, 12, 57, 105
7, 206544, Note_off_c, 12, 57, 64
7, 206640, Note_on_c, 12, 63, 105
7, 206712, Note_off_c, 12, 63, 64
7, 206760, Note_on_c, 12, 62, 105
7, 206832, Note_off_c, 12, 62, 64
7, 206880, Note_on_c, 12, 60, 105
7, 207024, Note_off_c, 12, 60, 64
7, 207120, Note_on_c, 12, 72, 105
7, 207192, Note_off_c, 12, 72, 64
7, 207240, Note_on_c, 12, 70, 105
7, 207312, Note_off_c, 12, 70, 64
7, 207360, Note_on_c, 12, 69, 105
7, 207432, Note_off_c, 12, 69, 64
7, 207480, Note_on_c, 12, 65, 105
7, 207552, Note_off_c, 12, 65, 64
7, 207600, Note_on_c, 12, 65, 105
7, 207672, Note_off_c, 12, 65, 64
7, 207720, Note_on_c, 12, 65, 105
7, 207792, Note_off_c, 12, 65, 64
7, 207840, Note_on_c, 12, 69, 105
7, 207912, Note_off_c, 12, 69, 64
7, 207960, Note_on_c, 12, 65, 105
7, 208032, Note_off_c, 12, 65, 64
7, 208080, Note_on_c, 12, 65, 105
7, 208152, Note_off_c, 12, 65, 64
7, 208200, Note_on_c, 12, 65, 105
7, 208272, Note_off_c, 12, 65, 64
7, 208320, Note_on_c, 12, 65, 105
7, 208392, Note_off_c, 12, 65, 64
7, 208440, Note_on_c, 12, 65, 105
7, 208512, Note_off_c, 12, 65, 64
7, 208560, Note_on_c, 12, 65, 105
7, 208632, Note_off_c, 12, 65, 64
7, 208680, Note_on_c, 12, 65, 105
7, 208752, Note_off_c, 12, 65, 64
7, 208800, Note_on_c, 12, 65, 105
7, 208872, Note_off_c, 12, 65, 64
7, 208920, Note_on_c, 12, 65, 105
7, 208992, Note_off_c, 12, 65, 64
7, 209040, Note_on_c, 12, 65, 105
7, 209112, Note_off_c, 12, 65, 64
7, 209160, Note_on_c, 12, 65, 105
7, 209232, Note_off_c, 12, 65, 64
7, 209280, Note_on_c, 12, 65, 105
7, 209472, Note_off_c, 12, 65, 64
7, 211320, Note_on_c, 12, 62, 58
7, 211392, Note_off_c, 12, 62, 64
7, 211440, Note_on_c, 12, 58, 58
7, 211512, Note_off_c, 12, 58, 64
7, 211560, Note_on_c, 12, 62, 58
7, 211632, Note_off_c, 12, 62, 64
7, 211680, Note_on_c, 12, 53, 58
7, 211752, Note_off_c, 12, 53, 64
7, 211800, Note_on_c, 12, 62, 58
7, 211872, Note_off_c, 12, 62, 64
7, 211920, Note_on_c, 12, 58, 58
7, 211992, Note_off_c, 12, 58, 64
7, 212040, Note_on_c, 12, 62, 58
7, 212112, Note_off_c, 12, 62, 64
7, 212160, Note_on_c, 12, 53, 58
7, 212232, Note_off_c, 12, 53, 64
7, 212280, Note_on_c, 12, 62, 58
7, 212352, Note_off_c, 12, 62, 64
7, 212400, Note_on_c, 12, 58, 58
7, 212472, Note_off_c, 12, 58, 64
7, 212520, Note_on_c, 12, 62, 58
7, 212592, Note_off_c, 12, 62, 64
7, 212640, Note_on_c, 12, 53, 58
7, 212712, Note_off_c, 12, 53, 64
7, 212760, Note_on_c, 12, 62, 58
7, 212832, Note_off_c, 12, 62, 64
7, 212880, Note_on_c, 12, 58, 58
7, 212952, Note_off_c, 12, 58, 64
7, 213000, Note_on_c, 12, 62, 58
7, 213072, Note_off_c, 12, 62, 64
7, 213120, Note_on_c, 12, 53, 58
7, 213192, Note_off_c, 12, 53, 64
7, 213240, Note_on_c, 12, 60, 58
7, 213312, Note_off_c, 12, 60, 64
7, 213360, Note_on_c, 12, 57, 58
7, 213432, Note_off_c, 12, 57, 64
7, 213480, Note_on_c, 12, 60, 58
7, 213552, Note_off_c, 12, 60, 64
7, 213600, Note_on_c, 12, 53, 58
7, 213672, Note_off_c, 12, 53, 64
7, 213720, Note_on_c, 12, 60, 58
7, 213792, Note_off_c, 12, 60, 64
7, 213840, Note_on_c, 12, 57, 58
7, 213912, Note_off_c, 12, 57, 64
7, 213960, Note_on_c, 12, 60, 58
7, 214032, Note_off_c, 12, 60, 64
7, 214080, Note_on_c, 12, 53, 58
7, 214152, Note_off_c, 12, 53, 64
7, 214200, Note_on_c, 12, 60, 58
7, 214272, Note_off_c, 12, 60, 64
7, 214320, Note_on_c, 12, 57, 58
7, 214392, Note_off_c, 12, 57, 64
7, 214440, Note_on_c, 12, 60, 58
7, 214512, Note_off_c, 12, 60, 64
7, 214560, Note_on_c, 12, 53, 58
7, 214632, Note_off_c, 12, 53, 64
7, 214680, Note_on_c, 12, 60, 58
7, 214752, Note_off_c, 12, 60, 64
7, 214800, Note_on_c, 12, 57, 58
7, 214872, Note_off_c, 12, 57, 64
7, 214920, Note_on_c, 12, 60, 58
7, 214992, Note_off_c, 12, 60, 64
7, 215040, Note_on_c, 12, 53, 58
7, 215112, Note_off_c, 12, 53, 64
7, 215160, Note_on_c, 12, 62, 58
7, 215232, Note_off_c, 12, 62, 64
7, 215280, Note_on_c, 12, 58, 58
7, 215352, Note_off_c, 12, 58, 64
7, 215400, Note_on_c, 12, 62, 58
7, 215472, Note_off_c, 12, 62, 64
7, 215760, Note_on_c, 12, 50, 58
7, 216000, Note_off_c, 12, 50, 64
7, 216000, Note_on_c, 12, 51, 58
7, 216240, Note_off_c, 12, 51, 64
7, 216240, Note_on_c, 12, 50, 58
7, 216432, Note_off_c, 12, 50, 64
7, 216720, Note_on_c, 12, 65, 58
7, 217344, Note_off_c, 12, 65, 64
7, 217680, Note_on_c, 12, 58, 58
7, 217680, Note_on_c, 12, 53, 58
7, 217872, Note_off_c, 12, 53, 64
7, 217872, Note_off_c, 12, 58, 64
7, 217920, Note_on_c, 12, 55, 58
7, 217920, Note_on_c, 12, 58, 58
7, 218400, Note_off_c, 12, 55, 64
7, 218400, Note_on_c, 12, 53, 58
7, 218640, Note_off_c, 12, 53, 64
7, 218640, Note_on_c, 12, 52, 58
7, 218880, Note_off_c, 12, 52, 64
7, 218880, Note_off_c, 12, 58, 64
7, 218880, Note_on_c, 12, 57, 58
7, 218880, Note_on_c, 12, 53, 58
7, 219072, Note_off_c, 12, 53, 64
7, 219072, Note_off_c, 12, 57, 64
7, 219360, Note_on_c, 12, 50, 58
7, 219412, Note_off_c, 12, 50, 64
7, 219440, Note_on_c, 12, 58, 58
7, 219492, Note_off_c, 12, 58, 64
7, 219520, Note_on_c, 12, 58, 58
7, 219572, Note_off_c, 12, 58, 64
7, 219600, Note_on_c, 12, 58, 58
7, 219652, Note_off_c, 12, 58, 64
7, 219680, Note_on_c, 12, 58, 58
7, 219732, Note_off_c, 12, 58, 64
7, 219760, Note_on_c, 12, 58, 58
7, 219812, Note_off_c, 12, 58, 64
7, 219840, Note_on_c, 12, 50, 58
7, 219892, Note_off_c, 12, 50, 64
7, 219920, Note_on_c, 12, 58, 58
7, 219972, Note_off_c, 12, 58, 64
7, 220000, Note_on_c, 12, 58, 58
7, 220052, Note_off_c, 12, 58, 64
7, 220080, Note_on_c, 12, 58, 58
7, 220132, Note_off_c, 12, 58, 64
7, 220160, Note_on_c, 12, 58, 58
7, 220212, Note_off_c, 12, 58, 64
7, 220240, Note_on_c, 12, 58, 58
7, 220292, Note_off_c, 12, 58, 64
7, 220320, Note_on_c, 12, 50, 58
7, 220372, Note_off_c, 12, 50, 64
7, 220400, Note_on_c, 12, 58, 58
7, 220452, Note_off_c, 12, 58, 64
7, 220480, Note_on_c, 12, 58, 58
7, 220532, Note_off_c, 12, 58, 64
7, 220560, Note_on_c, 12, 58, 58
7, 220612, Note_off_c, 12, 58, 64
7, 220640, Note_on_c, 12, 58, 58
7, 220692, Note_off_c, 12, 58, 64
7, 220720, Note_on_c, 12, 58, 58
7, 220772, Note_off_c, 12, 58, 64
7, 220800, Note_on_c, 12, 48, 58
7, 220852, Note_off_c, 12, 48, 64
7, 220880, Note_on_c, 12, 57, 58
7, 220932, Note_off_c, 12, 57, 64
7, 220960, Note_on_c, 12, 57, 58
7, 221012, Note_off_c, 12, 57, 64
7, 221040, Note_on_c, 12, 57, 58
7, 221092, Note_off_c, 12, 57, 64
7, 221120, Note_on_c, 12, 57, 58
7, 221172, Note_off_c, 12, 57, 64
7, 221200, Note_on_c, 12, 57, 58
7, 221252, Note_off_c, 12, 57, 64
7, 221280, Note_on_c, 12, 57, 58
7, 221332, Note_off_c, 12, 57, 64
7, 221360, Note_on_c, 12, 65, 58
7, 221412, Note_off_c, 12, 65, 64
7, 221440, Note_on_c, 12, 65, 58
7, 221492, Note_off_c, 12, 65, 64
7, 221520, Note_on_c, 12, 65, 58
7, 221572, Note_off_c, 12, 65, 64
7, 221600, Note_on_c, 12, 65, 58
7, 221652, Note_off_c, 12, 65, 64
7, 221680, Note_on_c, 12, 65, 58
7, 221732, Note_off_c, 12, 65, 64
7, 221760, Note_on_c, 12, 57, 58
7, 221812, Note_off_c, 12, 57, 64
7, 221840, Note_on_c, 12, 65, 58
7, 221892, Note_off_c, 12, 65, 64
7, 221920, Note_on_c, 12, 65, 58
7, 221972, Note_off_c, 12, 65, 64
7, 222000, Note_on_c, 12, 65, 58
7, 222052, Note_off_c, 12, 65, 64
7, 222080, Note_on_c, 12, 65, 58
7, 222132, Note_off_c, 12, 65, 64
7, 222160, Note_on_c, 12, 65, 58
7, 222212, Note_off_c, 12, 65, 64
7, 222240, Note_on_c, 12, 57, 58
7, 222292, Note_off_c, 12, 57, 64
7, 222320, Note_on_c, 12, 65, 58
7, 222372, Note_off_c, 12, 65, 64
7, 222400, Note_on_c, 12, 65, 58
7, 222452, Note_off_c, 12, 65, 64
7, 222480, Note_on_c, 12, 65, 58
7, 222532, Note_off_c, 12, 65, 64
7, 222560, Note_on_c, 12, 65, 58
7, 222612, Note_off_c, 12, 65, 64
7, 222640, Note_on_c, 12, 65, 58
7, 222692, Note_off_c, 12, 65, 64
7, 222720, Note_on_c, 12, 58, 58
7, 222772, Note_off_c, 12, 58, 64
7, 222800, Note_on_c, 12, 62, 58
7, 222852, Note_off_c, 12, 62, 64
7, 222880, Note_on_c, 12, 62, 58
7, 222932, Note_off_c, 12, 62, 64
7, 222960, Note_on_c, 12, 62, 58
7, 223012, Note_off_c, 12, 62, 64
7, 223040, Note_on_c, 12, 62, 58
7, 223092, Note_off_c, 12, 62, 64
7, 223120, Note_on_c, 12, 62, 58
7, 223172, Note_off_c, 12, 62, 64
7, 223680, Note_on_c, 12, 58, 58
7, 224064, Note_off_c, 12, 58, 64
7, 224400, Note_on_c, 12, 58, 58
7, 224640, Note_off_c, 12, 58, 64
7, 224640, Note_on_c, 12, 60, 58
7, 224880, Note_off_c, 12, 60, 64
7, 224880, Note_on_c, 12, 58, 58
7, 225072, Note_off_c, 12, 58, 64
7, 225360, Note_on_c, 12, 58, 58
7, 225792, Note_off_c, 12, 58, 64
7, 225840, Note_on_c, 12, 55, 58
7, 225840, Note_on_c, 12, 63, 58
7, 226080, Note_off_c, 12, 63, 64
7, 226080, Note_off_c, 12, 55, 64
7, 226080, Note_on_c, 12, 53, 58
7, 226080, Note_on_c, 12, 62, 58
7, 226320, Note_off_c, 12, 62, 64
7, 226320, Note_off_c, 12, 53, 64
7, 226320, Note_on_c, 12, 57, 58
7, 226320, Note_on_c, 12, 51, 58
7, 226512, Note_off_c, 12, 51, 64
7, 226512, Note_off_c, 12, 57, 64
7, 226560, Note_on_c, 12, 58, 58
7, 226560, Note_on_c, 12, 50, 58
7, 226704, Note_off_c, 12, 50, 64
7, 226704, Note_off_c, 12, 58, 64
7, 226800, Note_on_c, 12, 53, 105
7, 226848, Note_off_c, 12, 53, 64
7, 226880, Note_on_c, 12, 53, 105
7, 226928, Note_off_c, 12, 53, 64
7, 226960, Note_on_c, 12, 53, 105
7, 227008, Note_off_c, 12, 53, 64
7, 227040, Note_on_c, 12, 55, 105
7, 227088, Note_off_c, 12, 55, 64
7, 227120, Note_on_c, 12, 55, 105
7, 227168, Note_off_c, 12, 55, 64
7, 227200, Note_on_c, 12, 55, 105
7, 227248, Note_off_c, 12, 55, 64
7, 227280, Note_on_c, 12, 57, 105
7, 227328, Note_off_c, 12, 57, 64
7, 227360, Note_on_c, 12, 57, 105
7, 227408, Note_off_c, 12, 57, 64
7, 227440, Note_on_c, 12, 57, 105
7, 227488, Note_off_c, 12, 57, 64
7, 227520, Note_on_c, 12, 58, 105
7, 227568, Note_off_c, 12, 58, 64
7, 227600, Note_on_c, 12, 58, 105
7, 227648, Note_off_c, 12, 58, 64
7, 227680, Note_on_c, 12, 58, 105
7, 227728, Note_off_c, 12, 58, 64
7, 227760, Note_on_c, 12, 70, 105
7, 227808, Note_off_c, 12, 70, 64
7, 227840, Note_on_c, 12, 70, 105
7, 227888, Note_off_c, 12, 70, 64
7, 227920, Note_on_c, 12, 70, 105
7, 227968, Note_off_c, 12, 70, 64
7, 228000, Note_on_c, 12, 69, 105
7, 228048, Note_off_c, 12, 69, 64
7, 228080, Note_on_c, 12, 69, 105
7, 228128, Note_off_c, 12, 69, 64
7, 228160, Note_on_c, 12, 69, 105
7, 228208, Note_off_c, 12, 69, 64
7, 228240, Note_on_c, 12, 69, 105
7, 228288, Note_off_c, 12, 69, 64
7, 228320, Note_on_c, 12, 69, 105
7, 228368, Note_off_c, 12, 69, 64
7, 228400, Note_on_c, 12, 69, 105
7, 228448, Note_off_c, 12, 69, 64
7, 228480, Note_on_c, 12, 67, 105
7, 228528, Note_off_c, 12, 67, 64
7, 228560, Note_on_c, 12, 67, 105
7, 228608, Note_off_c, 12, 67, 64
7, 228640, Note_on_c, 12, 67, 105
7, 228688, Note_off_c, 12, 67, 64
7, 228720, Note_on_c, 12, 65, 105
7, 228768, Note_off_c, 12, 65, 64
7, 228800, Note_on_c, 12, 65, 105
7, 228848, Note_off_c, 12, 65, 64
7, 228880, Note_on_c, 12, 65, 105
7, 228928, Note_off_c, 12, 65, 64
7, 228960, Note_on_c, 12, 63, 105
7, 229008, Note_off_c, 12, 63, 64
7, 229040, Note_on_c, 12, 63, 105
7, 229088, Note_off_c, 12, 63, 64
7, 229120, Note_on_c, 12, 63, 105
7, 229168, Note_off_c, 12, 63, 64
7, 229200, Note_on_c, 12, 60, 105
7, 229248, Note_off_c, 12, 60, 64
7, 229280, Note_on_c, 12, 60, 105
7, 229328, Note_off_c, 12, 60, 64
7, 229360, Note_on_c, 12, 60, 105
7, 229408, Note_off_c, 12, 60, 64
7, 229440, Note_on_c, 12, 62, 105
7, 229488, Note_off_c, 12, 62, 64
7, 229520, Note_on_c, 12, 62, 105
7, 229568, Note_off_c, 12, 62, 64
7, 229600, Note_on_c, 12, 62, 105
7, 229648, Note_off_c, 12, 62, 64
7, 229680, Note_on_c, 12, 67, 105
7, 229728, Note_off_c, 12, 67, 64
7, 229760, Note_on_c, 12, 67, 105
7, 229808, Note_off_c, 12, 67, 64
7, 229840, Note_on_c, 12, 67, 105
7, 229888, Note_off_c, 12, 67, 64
7, 229920, Note_on_c, 12, 65, 105
7, 229968, Note_off_c, 12, 65, 64
7, 230000, Note_on_c, 12, 65, 105
7, 230048, Note_off_c, 12, 65, 64
7, 230080, Note_on_c, 12, 65, 105
7, 230128, Note_off_c, 12, 65, 64
7, 230160, Note_on_c, 12, 63, 105
7, 230208, Note_off_c, 12, 63, 64
7, 230240, Note_on_c, 12, 63, 105
7, 230288, Note_off_c, 12, 63, 64
7, 230320, Note_on_c, 12, 63, 105
7, 230368, Note_off_c, 12, 63, 64
7, 230400, Note_on_c, 12, 62, 92
7, 230544, Note_off_c, 12, 62, 64
7, 230640, Note_on_c, 12, 53, 105
7, 230704, Note_off_c, 12, 53, 64
7, 230720, Note_on_c, 12, 53, 105
7, 230768, Note_off_c, 12, 53, 64
7, 230800, Note_on_c, 12, 53, 105
7, 230848, Note_off_c, 12, 53, 64
7, 230880, Note_on_c, 12, 55, 105
7, 230928, Note_off_c, 12, 55, 64
7, 230960, Note_on_c, 12, 55, 105
7, 231008, Note_off_c, 12, 55, 64
7, 231040, Note_on_c, 12, 55, 105
7, 231088, Note_off_c, 12, 55, 64
7, 231120, Note_on_c, 12, 57, 105
7, 231168, Note_off_c, 12, 57, 64
7, 231200, Note_on_c, 12, 57, 105
7, 231248, Note_off_c, 12, 57, 64
7, 231280, Note_on_c, 12, 57, 105
7, 231328, Note_off_c, 12, 57, 64
7, 231360, Note_on_c, 12, 58, 105
7, 231408, Note_off_c, 12, 58, 64
7, 231440, Note_on_c, 12, 58, 105
7, 231488, Note_off_c, 12, 58, 64
7, 231520, Note_on_c, 12, 58, 105
7, 231568, Note_off_c, 12, 58, 64
7, 231600, Note_on_c, 12, 70, 105
7, 231648, Note_off_c, 12, 70, 64
7, 231680, Note_on_c, 12, 70, 105
7, 231728, Note_off_c, 12, 70, 64
7, 231760, Note_on_c, 12, 70, 105
7, 231808, Note_off_c, 12, 70, 64
7, 231840, Note_on_c, 12, 69, 105
7, 231888, Note_off_c, 12, 69, 64
7, 231920, Note_on_c, 12, 69, 105
7, 231968, Note_off_c, 12, 69, 64
7, 232000, Note_on_c, 12, 69, 105
7, 232048, Note_off_c, 12, 69, 64
7, 232080, Note_on_c, 12, 69, 105
7, 232128, Note_off_c, 12, 69, 64
7, 232160, Note_on_c, 12, 69, 105
7, 232208, Note_off_c, 12, 69, 64
7, 232240, Note_on_c, 12, 69, 105
7, 232288, Note_off_c, 12, 69, 64
7, 232320, Note_on_c, 12, 67, 105
7, 232368, Note_off_c, 12, 67, 64
7, 232400, Note_on_c, 12, 67, 105
7, 232448, Note_off_c, 12, 67, 64
7, 232480, Note_on_c, 12, 67, 105
7, 232528, Note_off_c, 12, 67, 64
7, 232560, Note_on_c, 12, 67, 105
7, 232608, Note_off_c, 12, 67, 64
7, 232640, Note_on_c, 12, 67, 105
7, 232688, Note_off_c, 12, 67, 64
7, 232720, Note_on_c, 12, 67, 105
7, 232768, Note_off_c, 12, 67, 64
7, 232800, Note_on_c, 12, 67, 105
7, 232848, Note_off_c, 12, 67, 64
7, 232880, Note_on_c, 12, 67, 105
7, 232928, Note_off_c, 12, 67, 64
7, 232960, Note_on_c, 12, 67, 105
7, 233008, Note_off_c, 12, 67, 64
7, 233040, Note_on_c, 12, 60, 105
7, 233088, Note_off_c, 12, 60, 64
7, 233120, Note_on_c, 12, 60, 105
7, 233168, Note_off_c, 12, 60, 64
7, 233200, Note_on_c, 12, 60, 105
7, 233248, Note_off_c, 12, 60, 64
7, 233280, Note_on_c, 12, 62, 105
7, 233328, Note_off_c, 12, 62, 64
7, 233360, Note_on_c, 12, 62, 105
7, 233408, Note_off_c, 12, 62, 64
7, 233440, Note_on_c, 12, 62, 105
7, 233488, Note_off_c, 12, 62, 64
7, 233520, Note_on_c, 12, 67, 105
7, 233568, Note_off_c, 12, 67, 64
7, 233600, Note_on_c, 12, 67, 105
7, 233648, Note_off_c, 12, 67, 64
7, 233680, Note_on_c, 12, 67, 105
7, 233728, Note_off_c, 12, 67, 64
7, 233760, Note_on_c, 12, 65, 105
7, 233808, Note_off_c, 12, 65, 64
7, 233840, Note_on_c, 12, 65, 105
7, 233888, Note_off_c, 12, 65, 64
7, 233920, Note_on_c, 12, 65, 105
7, 233968, Note_off_c, 12, 65, 64
7, 234000, Note_on_c, 12, 63, 105
7, 234048, Note_off_c, 12, 63, 64
7, 234080, Note_on_c, 12, 63, 105
7, 234128, Note_off_c, 12, 63, 64
7, 234160, Note_on_c, 12, 63, 105
7, 234208, Note_off_c, 12, 63, 64
7, 234240, Note_on_c, 12, 62, 105
7, 234288, Note_off_c, 12, 62, 64
7, 234320, Note_on_c, 12, 62, 105
7, 234368, Note_off_c, 12, 62, 64
7, 234400, Note_on_c, 12, 62, 105
7, 234448, Note_off_c, 12, 62, 64
7, 234480, Note_on_c, 12, 63, 105
7, 234528, Note_off_c, 12, 63, 64
7, 234560, Note_on_c, 12, 63, 105
7, 234608, Note_off_c, 12, 63, 64
7, 234640, Note_on_c, 12, 63, 105
7, 234688, Note_off_c, 12, 63, 64
7, 234720, Note_on_c, 12, 65, 105
7, 234768, Note_off_c, 12, 65, 64
7, 234800, Note_on_c, 12, 65, 105
7, 234848, Note_off_c, 12, 65, 64
7, 234880, Note_on_c, 12, 65, 105
7, 234928, Note_off_c, 12, 65, 64
7, 234960, Note_on_c, 12, 67, 105
7, 235008, Note_off_c, 12, 67, 64
7, 235040, Note_on_c, 12, 67, 105
7, 235088, Note_off_c, 12, 67, 64
7, 235120, Note_on_c, 12, 67, 105
7, 235168, Note_off_c, 12, 67, 64
7, 235200, Note_on_c, 12, 65, 105
7, 235248, Note_off_c, 12, 65, 64
7, 235280, Note_on_c, 12, 65, 105
7, 235328, Note_off_c, 12, 65, 64
7, 235360, Note_on_c, 12, 65, 105
7, 235408, Note_off_c, 12, 65, 64
7, 235440, Note_on_c, 12, 72, 105
7, 235488, Note_off_c, 12, 72, 64
7, 235520, Note_on_c, 12, 72, 105
7, 235568, Note_off_c, 12, 72, 64
7, 235600, Note_on_c, 12, 72, 105
7, 235648, Note_off_c, 12, 72, 64
7, 235680, Note_on_c, 12, 70, 105
7, 235728, Note_off_c, 12, 70, 64
7, 235760, Note_on_c, 12, 70, 105
7, 235808, Note_off_c, 12, 70, 64
7, 235840, Note_on_c, 12, 70, 105
7, 235888, Note_off_c, 12, 70, 64
7, 235920, Note_on_c, 12, 67, 105
7, 235968, Note_off_c, 12, 67, 64
7, 236000, Note_on_c, 12, 67, 105
7, 236048, Note_off_c, 12, 67, 64
7, 236080, Note_on_c, 12, 67, 105
7, 236128, Note_off_c, 12, 67, 64
7, 236160, Note_on_c, 12, 65, 105
7, 236212, Note_off_c, 12, 65, 64
7, 236240, Note_on_c, 12, 65, 105
7, 236292, Note_off_c, 12, 65, 64
7, 236320, Note_on_c, 12, 65, 105
7, 236372, Note_off_c, 12, 65, 64
7, 236400, Note_on_c, 12, 65, 105
7, 236452, Note_off_c, 12, 65, 64
7, 236480, Note_on_c, 12, 65, 105
7, 236532, Note_off_c, 12, 65, 64
7, 236560, Note_on_c, 12, 65, 105
7, 236612, Note_off_c, 12, 65, 64
7, 236640, Note_on_c, 12, 65, 105
7, 236692, Note_off_c, 12, 65, 64
7, 236720, Note_on_c, 12, 65, 105
7, 236772, Note_off_c, 12, 65, 64
7, 236800, Note_on_c, 12, 65, 105
7, 236852, Note_off_c, 12, 65, 64
7, 236880, Note_on_c, 12, 65, 105
7, 236932, Note_off_c, 12, 65, 64
7, 236960, Note_on_c, 12, 65, 105
7, 237012, Note_off_c, 12, 65, 64
7, 237040, Note_on_c, 12, 65, 105
7, 237092, Note_off_c, 12, 65, 64
7, 237120, Note_on_c, 12, 63, 105
7, 237172, Note_off_c, 12, 63, 64
7, 237200, Note_on_c, 12, 63, 105
7, 237252, Note_off_c, 12, 63, 64
7, 237280, Note_on_c, 12, 63, 105
7, 237332, Note_off_c, 12, 63, 64
7, 237360, Note_on_c, 12, 63, 105
7, 237412, Note_off_c, 12, 63, 64
7, 237440, Note_on_c, 12, 63, 105
7, 237492, Note_off_c, 12, 63, 64
7, 237520, Note_on_c, 12, 63, 105
7, 237572, Note_off_c, 12, 63, 64
7, 237600, Note_on_c, 12, 63, 105
7, 237652, Note_off_c, 12, 63, 64
7, 237680, Note_on_c, 12, 63, 105
7, 237732, Note_off_c, 12, 63, 64
7, 237760, Note_on_c, 12, 63, 105
7, 237812, Note_off_c, 12, 63, 64
7, 237840, Note_on_c, 12, 63, 105
7, 237892, Note_off_c, 12, 63, 64
7, 237920, Note_on_c, 12, 63, 105
7, 237972, Note_off_c, 12, 63, 64
7, 238000, Note_on_c, 12, 63, 105
7, 238052, Note_off_c, 12, 63, 64
7, 238080, Note_on_c, 12, 62, 105
7, 238236, Note_off_c, 12, 62, 64
7, 241920, Note_on_c, 12, 58, 125
7, 242076, Note_off_c, 12, 58, 64
7, 242160, Note_on_c, 12, 58, 125
7, 242232, Note_off_c, 12, 58, 64
7, 242280, Note_on_c, 12, 57, 105
7, 242280, Note_on_c, 12, 60, 105
7, 242352, Note_off_c, 12, 60, 64
7, 242352, Note_off_c, 12, 57, 64
7, 242400, Note_on_c, 12, 62, 105
7, 242400, Note_on_c, 12, 58, 105
7, 242544, Note_off_c, 12, 58, 64
7, 242544, Note_off_c, 12, 62, 64
7, 242640, Note_on_c, 12, 58, 105
7, 242640, Note_on_c, 12, 62, 105
7, 242712, Note_off_c, 12, 62, 64
7, 242712, Note_off_c, 12, 58, 64
7, 242760, Note_on_c, 12, 60, 105
7, 242760, Note_on_c, 12, 63, 105
7, 242832, Note_off_c, 12, 63, 64
7, 242832, Note_off_c, 12, 60, 64
7, 242880, Note_on_c, 12, 65, 105
7, 242880, Note_on_c, 12, 62, 105
7, 243024, Note_off_c, 12, 62, 64
7, 243024, Note_off_c, 12, 65, 64
7, 243120, Note_on_c, 12, 62, 105
7, 243120, Note_on_c, 12, 65, 105
7, 243192, Note_off_c, 12, 65, 64
7, 243192, Note_off_c, 12, 62, 64
7, 243240, Note_on_c, 12, 62, 105
7, 243240, Note_on_c, 12, 65, 105
7, 243312, Note_off_c, 12, 65, 64
7, 243312, Note_off_c, 12, 62, 64
7, 243360, Note_on_c, 12, 63, 105
7, 243360, Note_on_c, 12, 67, 105
7, 243390, Note_off_c, 12, 67, 64
7, 243390, Note_off_c, 12, 63, 64
7, 243390, Note_on_c, 12, 65, 105
7, 243390, Note_on_c, 12, 62, 105
7, 243420, Note_off_c, 12, 62, 64
7, 243420, Note_off_c, 12, 65, 64
7, 243420, Note_on_c, 12, 67, 105
7, 243420, Note_on_c, 12, 63, 105
7, 243450, Note_off_c, 12, 63, 64
7, 243450, Note_off_c, 12, 67, 64
7, 243450, Note_on_c, 12, 62, 105
7, 243450, Note_on_c, 12, 65, 105
7, 243480, Note_off_c, 12, 65, 64
7, 243480, Note_off_c, 12, 62, 64
7, 243480, Note_on_c, 12, 67, 105
7, 243480, Note_on_c, 12, 63, 105
7, 243510, Note_off_c, 12, 63, 64
7, 243510, Note_off_c, 12, 67, 64
7, 243510, Note_on_c, 12, 65, 105
7, 243510, Note_on_c, 12, 62, 105
7, 243540, Note_off_c, 12, 62, 64
7, 243540, Note_off_c, 12, 65, 64
7, 243540, Note_on_c, 12, 63, 105
7, 243540, Note_on_c, 12, 67, 105
7, 243570, Note_off_c, 12, 67, 64
7, 243570, Note_off_c, 12, 63, 64
7, 243570, Note_on_c, 12, 62, 105
7, 243570, Note_on_c, 12, 65, 105
7, 243588, Note_off_c, 12, 65, 64
7, 243588, Note_off_c, 12, 62, 64
7, 243600, Note_on_c, 12, 63, 105
7, 243600, Note_on_c, 12, 67, 105
7, 243672, Note_off_c, 12, 67, 64
7, 243672, Note_off_c, 12, 63, 64
7, 243720, Note_on_c, 12, 65, 105
7, 243720, Note_on_c, 12, 62, 105
7, 243792, Note_off_c, 12, 62, 64
7, 243792, Note_off_c, 12, 65, 64
7, 243840, Note_on_c, 12, 63, 105
7, 243840, Note_on_c, 12, 60, 105
7, 243984, Note_off_c, 12, 60, 64
7, 243984, Note_off_c, 12, 63, 64
7, 244080, Note_on_c, 12, 63, 105
7, 244080, Note_on_c, 12, 60, 105
7, 244152, Note_off_c, 12, 60, 64
7, 244152, Note_off_c, 12, 63, 64
7, 244200, Note_on_c, 12, 63, 105
7, 244200, Note_on_c, 12, 60, 105
7, 244272, Note_off_c, 12, 60, 64
7, 244272, Note_off_c, 12, 63, 64
7, 244320, Note_on_c, 12, 62, 105
7, 244320, Note_on_c, 12, 65, 105
7, 244350, Note_off_c, 12, 65, 64
7, 244350, Note_off_c, 12, 62, 64
7, 244350, Note_on_c, 12, 63, 105
7, 244350, Note_on_c, 12, 60, 105
7, 244380, Note_off_c, 12, 60, 64
7, 244380, Note_off_c, 12, 63, 64
7, 244380, Note_on_c, 12, 65, 105
7, 244380, Note_on_c, 12, 62, 105
7, 244410, Note_off_c, 12, 62, 64
7, 244410, Note_off_c, 12, 65, 64
7, 244410, Note_on_c, 12, 60, 105
7, 244410, Note_on_c, 12, 63, 105
7, 244440, Note_off_c, 12, 63, 64
7, 244440, Note_off_c, 12, 60, 64
7, 244440, Note_on_c, 12, 65, 105
7, 244440, Note_on_c, 12, 62, 105
7, 244470, Note_off_c, 12, 62, 64
7, 244470, Note_off_c, 12, 65, 64
7, 244470, Note_on_c, 12, 63, 105
7, 244470, Note_on_c, 12, 60, 105
7, 244500, Note_off_c, 12, 60, 64
7, 244500, Note_off_c, 12, 63, 64
7, 244500, Note_on_c, 12, 62, 105
7, 244500, Note_on_c, 12, 65, 105
7, 244530, Note_off_c, 12, 65, 64
7, 244530, Note_off_c, 12, 62, 64
7, 244530, Note_on_c, 12, 60, 105
7, 244530, Note_on_c, 12, 63, 105
7, 244548, Note_off_c, 12, 63, 64
7, 244548, Note_off_c, 12, 60, 64
7, 244560, Note_on_c, 12, 62, 105
7, 244560, Note_on_c, 12, 65, 105
7, 244632, Note_off_c, 12, 65, 64
7, 244632, Note_off_c, 12, 62, 64
7, 244680, Note_on_c, 12, 63, 105
7, 244680, Note_on_c, 12, 60, 105
7, 244752, Note_off_c, 12, 60, 64
7, 244752, Note_off_c, 12, 63, 64
7, 244800, Note_on_c, 12, 62, 105
7, 244800, Note_on_c, 12, 58, 105
7, 244944, Note_off_c, 12, 58, 64
7, 244944, Note_off_c, 12, 62, 64
7, 245040, Note_on_c, 12, 60, 105
7, 245040, Note_on_c, 12, 63, 105
7, 245112, Note_off_c, 12, 63, 64
7, 245112, Note_off_c, 12, 60, 64
7, 245160, Note_on_c, 12, 65, 105
7, 245160, Note_on_c, 12, 62, 105
7, 245232, Note_off_c, 12, 62, 64
7, 245232, Note_off_c, 12, 65, 64
7, 245280, Note_on_c, 12, 62, 105
7, 245280, Note_on_c, 12, 65, 105
7, 245400, Note_off_c, 12, 65, 64
7, 245400, Note_off_c, 12, 62, 64
7, 245400, Note_on_c, 12, 60, 105
7, 245400, Note_on_c, 12, 63, 105
7, 245472, Note_off_c, 12, 63, 64
7, 245472, Note_off_c, 12, 60, 64
7, 245520, Note_on_c, 12, 58, 105
7, 245520, Note_on_c, 12, 62, 105
7, 245592, Note_off_c, 12, 62, 64
7, 245592, Note_off_c, 12, 58, 64
7, 245640, Note_on_c, 12, 57, 105
7, 245640, Note_on_c, 12, 60, 105
7, 245712, Note_off_c, 12, 60, 64
7, 245712, Note_off_c, 12, 57, 64
7, 245760, Note_on_c, 12, 58, 105
7, 245952, Note_off_c, 12, 58, 64
7, 246480, Note_on_c, 12, 65, 92
7, 246480, Note_on_c, 12, 75, 92
7, 246612, Note_off_c, 12, 75, 64
7, 246612, Note_off_c, 12, 65, 64
7, 246720, Note_on_c, 12, 65, 92
7, 246720, Note_on_c, 12, 74, 92
7, 246852, Note_off_c, 12, 74, 64
7, 246852, Note_off_c, 12, 65, 64
7, 247440, Note_on_c, 12, 60, 92
7, 247572, Note_off_c, 12, 60, 64
7, 247680, Note_on_c, 12, 62, 92
7, 247680, Note_on_c, 12, 58, 92
7, 247812, Note_off_c, 12, 58, 64
7, 247812, Note_off_c, 12, 62, 64
7, 248400, Note_on_c, 12, 65, 92
7, 248400, Note_on_c, 12, 75, 92
7, 248532, Note_off_c, 12, 75, 64
7, 248532, Note_off_c, 12, 65, 64
7, 248640, Note_on_c, 12, 65, 92
7, 248640, Note_on_c, 12, 74, 92
7, 248772, Note_off_c, 12, 74, 64
7, 248772, Note_off_c, 12, 65, 64
7, 249360, Note_on_c, 12, 60, 92
7, 249492, Note_off_c, 12, 60, 64
7, 249600, Note_on_c, 12, 58, 92
7, 249652, Note_off_c, 12, 58, 64
7, 249680, Note_on_c, 12, 60, 92
7, 249732, Note_off_c, 12, 60, 64
7, 249760, Note_on_c, 12, 62, 92
7, 249812, Note_off_c, 12, 62, 64
7, 249840, Note_on_c, 12, 63, 92
7, 249892, Note_off_c, 12, 63, 64
7, 249920, Note_on_c, 12, 65, 92
7, 249972, Note_off_c, 12, 65, 64
7, 250000, Note_on_c, 12, 67, 92
7, 250052, Note_off_c, 12, 67, 64
7, 250080, Note_on_c, 12, 65, 92
7, 250132, Note_off_c, 12, 65, 64
7, 250160, Note_on_c, 12, 63, 92
7, 250212, Note_off_c, 12, 63, 64
7, 250240, Note_on_c, 12, 62, 92
7, 250292, Note_off_c, 12, 62, 64
7, 250320, Note_on_c, 12, 60, 92
7, 250372, Note_off_c, 12, 60, 64
7, 250400, Note_on_c, 12, 58, 92
7, 250452, Note_off_c, 12, 58, 64
7, 250480, Note_on_c, 12, 57, 92
7, 250532, Note_off_c, 12, 57, 64
7, 250560, Note_on_c, 12, 55, 92
7, 250612, Note_off_c, 12, 55, 64
7, 250640, Note_on_c, 12, 57, 92
7, 250692, Note_off_c, 12, 57, 64
7, 250720, Note_on_c, 12, 58, 92
7, 250772, Note_off_c, 12, 58, 64
7, 250800, Note_on_c, 12, 60, 92
7, 250852, Note_off_c, 12, 60, 64
7, 250880, Note_on_c, 12, 62, 92
7, 250932, Note_off_c, 12, 62, 64
7, 250960, Note_on_c, 12, 63, 92
7, 251012, Note_off_c, 12, 63, 64
7, 251040, Note_on_c, 12, 62, 92
7, 251092, Note_off_c, 12, 62, 64
7, 251120, Note_on_c, 12, 60, 92
7, 251172, Note_off_c, 12, 60, 64
7, 251200, Note_on_c, 12, 58, 92
7, 251252, Note_off_c, 12, 58, 64
7, 251280, Note_on_c, 12, 57, 92
7, 251332, Note_off_c, 12, 57, 64
7, 251360, Note_on_c, 12, 55, 92
7, 251412, Note_off_c, 12, 55, 64
7, 251440, Note_on_c, 12, 53, 92
7, 251492, Note_off_c, 12, 53, 64
7, 251520, Note_on_c, 12, 51, 92
7, 251637, Note_off_c, 12, 51, 64
7, 251700, Note_on_c, 12, 51, 92
7, 251739, Note_off_c, 12, 51, 64
7, 251760, Note_on_c, 12, 50, 92
7, 251877, Note_off_c, 12, 50, 64
7, 251940, Note_on_c, 12, 48, 92
7, 251979, Note_off_c, 12, 48, 64
7, 252000, Note_on_c, 12, 53, 92
7, 252156, Note_off_c, 12, 53, 64
7, 252240, Note_on_c, 12, 65, 92
7, 252396, Note_off_c, 12, 65, 64
7, 252480, Note_on_c, 12, 70, 92
7, 252636, Note_off_c, 12, 70, 64
7, 252720, Note_on_c, 12, 58, 105
7, 252772, Note_off_c, 12, 58, 64
7, 252800, Note_on_c, 12, 58, 105
7, 252852, Note_off_c, 12, 58, 64
7, 252880, Note_on_c, 12, 58, 105
7, 252932, Note_off_c, 12, 58, 64
7, 252960, Note_on_c, 12, 58, 105
7, 253012, Note_off_c, 12, 58, 64
7, 253040, Note_on_c, 12, 58, 105
7, 253092, Note_off_c, 12, 58, 64
7, 253120, Note_on_c, 12, 58, 105
7, 253172, Note_off_c, 12, 58, 64
7, 253200, Note_on_c, 12, 58, 105
7, 253252, Note_off_c, 12, 58, 64
7, 253280, Note_on_c, 12, 58, 105
7, 253332, Note_off_c, 12, 58, 64
7, 253360, Note_on_c, 12, 58, 105
7, 253412, Note_off_c, 12, 58, 64
7, 253440, Note_on_c, 12, 58, 105
7, 253572, Note_off_c, 12, 58, 64
7, 253680, Note_on_c, 12, 62, 105
7, 253812, Note_off_c, 12, 62, 64
7, 253920, Note_on_c, 12, 65, 105
7, 254052, Note_off_c, 12, 65, 64
7, 254400, Note_on_c, 12, 62, 58
7, 254532, Note_off_c, 12, 62, 64
7, 254640, Note_on_c, 12, 65, 58
7, 254772, Note_off_c, 12, 65, 64
7, 254880, Note_on_c, 12, 70, 58
7, 255012, Note_off_c, 12, 70, 64
7, 255360, Note_on_c, 12, 58, 105
7, 255492, Note_off_c, 12, 58, 64
7, 255600, Note_on_c, 12, 62, 105
7, 255732, Note_off_c, 12, 62, 64
7, 255840, Note_on_c, 12, 65, 105
7, 255972, Note_off_c, 12, 65, 64
7, 256080, Note_on_c, 12, 70, 105
7, 256212, Note_off_c, 12, 70, 64
7, 256320, Note_on_c, 12, 65, 105
7, 256452, Note_off_c, 12, 65, 64
7, 256560, Note_on_c, 12, 62, 105
7, 256692, Note_off_c, 12, 62, 64
7, 256800, Note_on_c, 12, 58, 105
7, 256932, Note_off_c, 12, 58, 64
7, 256932, End_track
8, 0, Start_track
8, 0, Program_c, 13, 48
8, 0, Control_c, 13, 7, 124
8, 0, Control_c, 13, 10, 84
8, 0, Control_c, 13, 91, 70
8, 480, Note_on_c, 13, 46, 105
8, 672, Note_off_c, 13, 46, 64
8, 2400, Note_on_c, 13, 53, 105
8, 2592, Note_off_c, 13, 53, 64
8, 4320, Note_on_c, 13, 46, 58
8, 4512, Note_off_c, 13, 46, 64
8, 5280, Note_on_c, 13, 46, 58
8, 5472, Note_off_c, 13, 46, 64
8, 5760, Note_on_c, 13, 53, 58
8, 5952, Note_off_c, 13, 53, 64
8, 6240, Note_on_c, 13, 58, 58
8, 6432, Note_off_c, 13, 58, 64
8, 8160, Note_on_c, 13, 46, 105
8, 8352, Note_off_c, 13, 46, 64
8, 10080, Note_on_c, 13, 53, 105
8, 10272, Note_off_c, 13, 53, 64
8, 12000, Note_on_c, 13, 46, 58
8, 12192, Note_off_c, 13, 46, 64
8, 12960, Note_on_c, 13, 46, 58
8, 13152, Note_off_c, 13, 46, 64
8, 13440, Note_on_c, 13, 53, 58
8, 13632, Note_off_c, 13, 53, 64
8, 13920, Note_on_c, 13, 58, 58
8, 14112, Note_off_c, 13, 58, 64
8, 14640, Note_on_c, 13, 51, 58
8, 14706, Note_off_c, 13, 51, 64
8, 14880, Note_on_c, 13, 53, 58
8, 14946, Note_off_c, 13, 53, 64
8, 15120, Note_on_c, 13, 41, 58
8, 15186, Note_off_c, 13, 41, 64
8, 15360, Note_on_c, 13, 46, 105
8, 15552, Note_off_c, 13, 46, 64
8, 15600, Note_on_c, 13, 46, 105
8, 15664, Note_off_c, 13, 46, 64
8, 15680, Note_on_c, 13, 46, 105
8, 15744, Note_off_c, 13, 46, 64
8, 15760, Note_on_c, 13, 46, 105
8, 15824, Note_off_c, 13, 46, 64
8, 15840, Note_on_c, 13, 46, 105
8, 15904, Note_off_c, 13, 46, 64
8, 15920, Note_on_c, 13, 46, 105
8, 15984, Note_off_c, 13, 46, 64
8, 16000, Note_on_c, 13, 46, 105
8, 16064, Note_off_c, 13, 46, 64
8, 16080, Note_on_c, 13, 46, 105
8, 16144, Note_off_c, 13, 46, 64
8, 16160, Note_on_c, 13, 46, 105
8, 16224, Note_off_c, 13, 46, 64
8, 16240, Note_on_c, 13, 46, 105
8, 16304, Note_off_c, 13, 46, 64
8, 16320, Note_on_c, 13, 46, 105
8, 16452, Note_off_c, 13, 46, 64
8, 16560, Note_on_c, 13, 50, 105
8, 16692, Note_off_c, 13, 50, 64
8, 16800, Note_on_c, 13, 53, 105
8, 16932, Note_off_c, 13, 53, 64
8, 17280, Note_on_c, 13, 50, 58
8, 17412, Note_off_c, 13, 50, 64
8, 17520, Note_on_c, 13, 53, 58
8, 17652, Note_off_c, 13, 53, 64
8, 17760, Note_on_c, 13, 58, 58
8, 17892, Note_off_c, 13, 58, 64
8, 18240, Note_on_c, 13, 46, 105
8, 18372, Note_off_c, 13, 46, 64
8, 18480, Note_on_c, 13, 50, 105
8, 18612, Note_off_c, 13, 50, 64
8, 18720, Note_on_c, 13, 53, 105
8, 18852, Note_off_c, 13, 53, 64
8, 18960, Note_on_c, 13, 58, 105
8, 19092, Note_off_c, 13, 58, 64
8, 19200, Note_on_c, 13, 53, 105
8, 19332, Note_off_c, 13, 53, 64
8, 19440, Note_on_c, 13, 50, 105
8, 19572, Note_off_c, 13, 50, 64
8, 19680, Note_on_c, 13, 46, 105
8, 19812, Note_off_c, 13, 46, 64
8, 27600, Note_on_c, 13, 45, 58
8, 27672, Note_off_c, 13, 45, 64
8, 27840, Note_on_c, 13, 46, 58
8, 27912, Note_off_c, 13, 46, 64
8, 28080, Note_on_c, 13, 49, 58
8, 28152, Note_off_c, 13, 49, 64
8, 28320, Note_on_c, 13, 50, 58
8, 28392, Note_off_c, 13, 50, 64
8, 28560, Note_on_c, 13, 55, 58
8, 28632, Note_off_c, 13, 55, 64
8, 28800, Note_on_c, 13, 58, 58
8, 29160, Note_off_c, 13, 58, 64
8, 29160, Note_on_c, 13, 60, 58
8, 29220, Note_off_c, 13, 60, 64
8, 29220, Note_on_c, 13, 58, 58
8, 29280, Note_off_c, 13, 58, 64
8, 29280, Note_on_c, 13, 55, 58
8, 29352, Note_off_c, 13, 55, 64
8, 29520, Note_on_c, 13, 45, 58
8, 29592, Note_off_c, 13, 45, 64
8, 29760, Note_on_c, 13, 46, 58
8, 29832, Note_off_c, 13, 46, 64
8, 30000, Note_on_c, 13, 49, 58
8, 30072, Note_off_c, 13, 49, 64
8, 30240, Note_on_c, 13, 50, 58
8, 30312, Note_off_c, 13, 50, 64
8, 30480, Note_on_c, 13, 55, 58
8, 30552, Note_off_c, 13, 55, 64
8, 30720, Note_on_c, 13, 58, 58
8, 31080, Note_off_c, 13, 58, 64
8, 31080, Note_on_c, 13, 60, 58
8, 31140, Note_off_c, 13, 60, 64
8, 31140, Note_on_c, 13, 58, 58
8, 31200, Note_off_c, 13, 58, 64
8, 31200, Note_on_c, 13, 55, 58
8, 31272, Note_off_c, 13, 55, 64
8, 31440, Note_on_c, 13, 45, 58
8, 31512, Note_off_c, 13, 45, 64
8, 31680, Note_on_c, 13, 46, 58
8, 31872, Note_off_c, 13, 46, 64
8, 33600, Note_on_c, 13, 60, 105
8, 33672, Note_off_c, 13, 60, 64
8, 33720, Note_on_c, 13, 59, 105
8, 33792, Note_off_c, 13, 59, 64
8, 33840, Note_on_c, 13, 60, 105
8, 33912, Note_off_c, 13, 60, 64
8, 33960, Note_on_c, 13, 59, 105
8, 34032, Note_off_c, 13, 59, 64
8, 34080, Note_on_c, 13, 58, 105
8, 34152, Note_off_c, 13, 58, 64
8, 34200, Note_on_c, 13, 57, 105
8, 34272, Note_off_c, 13, 57, 64
8, 34320, Note_on_c, 13, 58, 105
8, 34392, Note_off_c, 13, 58, 64
8, 34440, Note_on_c, 13, 57, 105
8, 34512, Note_off_c, 13, 57, 64
8, 34560, Note_on_c, 13, 55, 105
8, 34632, Note_off_c, 13, 55, 64
8, 34680, Note_on_c, 13, 54, 105
8, 34752, Note_off_c, 13, 54, 64
8, 34800, Note_on_c, 13, 55, 105
8, 34872, Note_off_c, 13, 55, 64
8, 34920, Note_on_c, 13, 53, 105
8, 34992, Note_off_c, 13, 53, 64
8, 35040, Note_on_c, 13, 52, 105
8, 35112, Note_off_c, 13, 52, 64
8, 35160, Note_on_c, 13, 51, 105
8, 35232, Note_off_c, 13, 51, 64
8, 35280, Note_on_c, 13, 52, 105
8, 35352, Note_off_c, 13, 52, 64
8, 35400, Note_on_c, 13, 50, 105
8, 35472, Note_off_c, 13, 50, 64
8, 35520, Note_on_c, 13, 48, 105
8, 35592, Note_off_c, 13, 48, 64
8, 35640, Note_on_c, 13, 60, 105
8, 35712, Note_off_c, 13, 60, 64
8, 35760, Note_on_c, 13, 60, 105
8, 35832, Note_off_c, 13, 60, 64
8, 35880, Note_on_c, 13, 60, 105
8, 35952, Note_off_c, 13, 60, 64
8, 36000, Note_on_c, 13, 48, 105
8, 36072, Note_off_c, 13, 48, 64
8, 36120, Note_on_c, 13, 60, 105
8, 36192, Note_off_c, 13, 60, 64
8, 36240, Note_on_c, 13, 60, 105
8, 36312, Note_off_c, 13, 60, 64
8, 36360, Note_on_c, 13, 60, 105
8, 36432, Note_off_c, 13, 60, 64
8, 36480, Note_on_c, 13, 60, 105
8, 36552, Note_off_c, 13, 60, 64
8, 36600, Note_on_c, 13, 60, 105
8, 36672, Note_off_c, 13, 60, 64
8, 36720, Note_on_c, 13, 60, 105
8, 36792, Note_off_c, 13, 60, 64
8, 36840, Note_on_c, 13, 60, 105
8, 36912, Note_off_c, 13, 60, 64
8, 36960, Note_on_c, 13, 60, 105
8, 37032, Note_off_c, 13, 60, 64
8, 37080, Note_on_c, 13, 60, 105
8, 37152, Note_off_c, 13, 60, 64
8, 37200, Note_on_c, 13, 60, 105
8, 37272, Note_off_c, 13, 60, 64
8, 37320, Note_on_c, 13, 60, 105
8, 37392, Note_off_c, 13, 60, 64
8, 37440, Note_on_c, 13, 60, 105
8, 37632, Note_off_c, 13, 60, 64
8, 40320, Note_on_c, 13, 53, 58
8, 40512, Note_off_c, 13, 53, 64
8, 40800, Note_on_c, 13, 41, 58
8, 40992, Note_off_c, 13, 41, 64
8, 41280, Note_on_c, 13, 48, 58
8, 41472, Note_off_c, 13, 48, 64
8, 42240, Note_on_c, 13, 60, 58
8, 42432, Note_off_c, 13, 60, 64
8, 42720, Note_on_c, 13, 48, 58
8, 42912, Note_off_c, 13, 48, 64
8, 43200, Note_on_c, 13, 53, 58
8, 43392, Note_off_c, 13, 53, 64
8, 43920, Note_on_c, 13, 57, 58
8, 44160, Note_off_c, 13, 57, 64
8, 44160, Note_on_c, 13, 58, 58
8, 44400, Note_off_c, 13, 58, 64
8, 44400, Note_on_c, 13, 57, 58
8, 44592, Note_off_c, 13, 57, 64
8, 44880, Note_on_c, 13, 57, 58
8, 45120, Note_off_c, 13, 57, 64
8, 45120, Note_on_c, 13, 55, 58
8, 45360, Note_off_c, 13, 55, 64
8, 45360, Note_on_c, 13, 53, 58
8, 45552, Note_off_c, 13, 53, 64
8, 45840, Note_on_c, 13, 57, 58
8, 46080, Note_off_c, 13, 57, 64
8, 46080, Note_on_c, 13, 58, 58
8, 46320, Note_off_c, 13, 58, 64
8, 46320, Note_on_c, 13, 59, 58
8, 46560, Note_off_c, 13, 59, 64
8, 46560, Note_on_c, 13, 60, 58
8, 46800, Note_off_c, 13, 60, 64
8, 46800, Note_on_c, 13, 61, 58
8, 47040, Note_off_c, 13, 61, 64
8, 47040, Note_on_c, 13, 60, 58
8, 47232, Note_off_c, 13, 60, 64
8, 48000, Note_on_c, 13, 53, 58
8, 48192, Note_off_c, 13, 53, 64
8, 48480, Note_on_c, 13, 41, 58
8, 48672, Note_off_c, 13, 41, 64
8, 48960, Note_on_c, 13, 48, 58
8, 49152, Note_off_c, 13, 48, 64
8, 49920, Note_on_c, 13, 60, 58
8, 50112, Note_off_c, 13, 60, 64
8, 50400, Note_on_c, 13, 48, 58
8, 50592, Note_off_c, 13, 48, 64
8, 50880, Note_on_c, 13, 53, 58
8, 51072, Note_off_c, 13, 53, 64
8, 51600, Note_on_c, 13, 57, 58
8, 51840, Note_off_c, 13, 57, 64
8, 51840, Note_on_c, 13, 58, 58
8, 52080, Note_off_c, 13, 58, 64
8, 52080, Note_on_c, 13, 57, 58
8, 52272, Note_off_c, 13, 57, 64
8, 52560, Note_on_c, 13, 53, 58
8, 52800, Note_off_c, 13, 53, 64
8, 52800, Note_on_c, 13, 52, 58
8, 53040, Note_off_c, 13, 52, 64
8, 53040, Note_on_c, 13, 53, 58
8, 53232, Note_off_c, 13, 53, 64
8, 53520, Note_on_c, 13, 57, 58
8, 53664, Note_off_c, 13, 57, 64
8, 53760, Note_on_c, 13, 58, 58
8, 54240, Note_off_c, 13, 58, 64
8, 54240, Note_on_c, 13, 60, 58
8, 54624, Note_off_c, 13, 60, 64
8, 54720, Note_on_c, 13, 53, 58
8, 54876, Note_off_c, 13, 53, 64
8, 54960, Note_on_c, 13, 57, 58
8, 55092, Note_off_c, 13, 57, 64
8, 55200, Note_on_c, 13, 55, 105
8, 55332, Note_off_c, 13, 55, 64
8, 55440, Note_on_c, 13, 48, 105
8, 55572, Note_off_c, 13, 48, 64
8, 55680, Note_on_c, 13, 53, 105
8, 55812, Note_off_c, 13, 53, 64
8, 55920, Note_on_c, 13, 62, 105
8, 56052, Note_off_c, 13, 62, 64
8, 56160, Note_on_c, 13, 60, 105
8, 56292, Note_off_c, 13, 60, 64
8, 56400, Note_on_c, 13, 53, 105
8, 56532, Note_off_c, 13, 53, 64
8, 56640, Note_on_c, 13, 58, 105
8, 56772, Note_off_c, 13, 58, 64
8, 56880, Note_on_c, 13, 57, 105
8, 57012, Note_off_c, 13, 57, 64
8, 57120, Note_on_c, 13, 55, 105
8, 57252, Note_off_c, 13, 55, 64
8, 57360, Note_on_c, 13, 52, 105
8, 57492, Note_off_c, 13, 52, 64
8, 57600, Note_on_c, 13, 53, 105
8, 57732, Note_off_c, 13, 53, 64
8, 57840, Note_on_c, 13, 62, 105
8, 57972, Note_off_c, 13, 62, 64
8, 58080, Note_on_c, 13, 58, 105
8, 58212, Note_off_c, 13, 58, 64
8, 58320, Note_on_c, 13, 60, 105
8, 58452, Note_off_c, 13, 60, 64
8, 58560, Note_on_c, 13, 53, 92
8, 58716, Note_off_c, 13, 53, 64
8, 58800, Note_on_c, 13, 57, 105
8, 58932, Note_off_c, 13, 57, 64
8, 59040, Note_on_c, 13, 55, 105
8, 59172, Note_off_c, 13, 55, 64
8, 59280, Note_on_c, 13, 48, 105
8, 59412, Note_off_c, 13, 48, 64
8, 59520, Note_on_c, 13, 53, 105
8, 59652, Note_off_c, 13, 53, 64
8, 59760, Note_on_c, 13, 62, 105
8, 59892, Note_off_c, 13, 62, 64
8, 60000, Note_on_c, 13, 60, 105
8, 60132, Note_off_c, 13, 60, 64
8, 60240, Note_on_c, 13, 53, 105
8, 60372, Note_off_c, 13, 53, 64
8, 60480, Note_on_c, 13, 58, 105
8, 60612, Note_off_c, 13, 58, 64
8, 60720, Note_on_c, 13, 57, 105
8, 60852, Note_off_c, 13, 57, 64
8, 60960, Note_on_c, 13, 55, 105
8, 61092, Note_off_c, 13, 55, 64
8, 61200, Note_on_c, 13, 52, 105
8, 61332, Note_off_c, 13, 52, 64
8, 61440, Note_on_c, 13, 53, 105
8, 61572, Note_off_c, 13, 53, 64
8, 61680, Note_on_c, 13, 62, 105
8, 61812, Note_off_c, 13, 62, 64
8, 61920, Note_on_c, 13, 58, 105
8, 62052, Note_off_c, 13, 58, 64
8, 62160, Note_on_c, 13, 60, 105
8, 62292, Note_off_c, 13, 60, 64
8, 62400, Note_on_c, 13, 53, 92
8, 62556, Note_off_c, 13, 53, 64
8, 62880, Note_on_c, 13, 53, 58
8, 63072, Note_off_c, 13, 53, 64
8, 63360, Note_on_c, 13, 53, 58
8, 63552, Note_off_c, 13, 53, 64
8, 63840, Note_on_c, 13, 53, 58
8, 64032, Note_off_c, 13, 53, 64
8, 64320, Note_on_c, 13, 48, 58
8, 64512, Note_off_c, 13, 48, 64
8, 64800, Note_on_c, 13, 48, 58
8, 64992, Note_off_c, 13, 48, 64
8, 65280, Note_on_c, 13, 53, 58
8, 65472, Note_off_c, 13, 53, 64
8, 65760, Note_on_c, 13, 48, 58
8, 65952, Note_off_c, 13, 48, 64
8, 66240, Note_on_c, 13, 53, 105
8, 66384, Note_off_c, 13, 53, 64
8, 66480, Note_on_c, 13, 53, 105
8, 66552, Note_off_c, 13, 53, 64
8, 66600, Note_on_c, 13, 53, 105
8, 66672, Note_off_c, 13, 53, 64
8, 66720, Note_on_c, 13, 53, 105
8, 66864, Note_off_c, 13, 53, 64
8, 66960, Note_on_c, 13, 53, 105
8, 67032, Note_off_c, 13, 53, 64
8, 67080, Note_on_c, 13, 53, 105
8, 67152, Note_off_c, 13, 53, 64
8, 67200, Note_on_c, 13, 53, 92
8, 67272, Note_off_c, 13, 53, 64
8, 67320, Note_on_c, 13, 53, 92
8, 67392, Note_off_c, 13, 53, 64
8, 67440, Note_on_c, 13, 53, 92
8, 67512, Note_off_c, 13, 53, 64
8, 67560, Note_on_c, 13, 53, 92
8, 67632, Note_off_c, 13, 53, 64
8, 67680, Note_on_c, 13, 53, 92
8, 67752, Note_off_c, 13, 53, 64
8, 67800, Note_on_c, 13, 53, 92
8, 67872, Note_off_c, 13, 53, 64
8, 67920, Note_on_c, 13, 53, 92
8, 67992, Note_off_c, 13, 53, 64
8, 68040, Note_on_c, 13, 53, 92
8, 68112, Note_off_c, 13, 53, 64
8, 68160, Note_on_c, 13, 48, 92
8, 68232, Note_off_c, 13, 48, 64
8, 68280, Note_on_c, 13, 48, 92
8, 68352, Note_off_c, 13, 48, 64
8, 68400, Note_on_c, 13, 48, 92
8, 68472, Note_off_c, 13, 48, 64
8, 68520, Note_on_c, 13, 48, 92
8, 68592, Note_off_c, 13, 48, 64
8, 68640, Note_on_c, 13, 48, 92
8, 68712, Note_off_c, 13, 48, 64
8, 68760, Note_on_c, 13, 48, 92
8, 68832, Note_off_c, 13, 48, 64
8, 68880, Note_on_c, 13, 48, 92
8, 68952, Note_off_c, 13, 48, 64
8, 69000, Note_on_c, 13, 48, 92
8, 69072, Note_off_c, 13, 48, 64
8, 69120, Note_on_c, 13, 53, 92
8, 69192, Note_off_c, 13, 53, 64
8, 69240, Note_on_c, 13, 53, 92
8, 69312, Note_off_c, 13, 53, 64
8, 69360, Note_on_c, 13, 53, 92
8, 69432, Note_off_c, 13, 53, 64
8, 69480, Note_on_c, 13, 53, 92
8, 69552, Note_off_c, 13, 53, 64
8, 69600, Note_on_c, 13, 60, 92
8, 69672, Note_off_c, 13, 60, 64
8, 69720, Note_on_c, 13, 60, 92
8, 69792, Note_off_c, 13, 60, 64
8, 69840, Note_on_c, 13, 48, 92
8, 69912, Note_off_c, 13, 48, 64
8, 69960, Note_on_c, 13, 48, 92
8, 70032, Note_off_c, 13, 48, 64
8, 70080, Note_on_c, 13, 53, 105
8, 70272, Note_off_c, 13, 53, 64
8, 70800, Note_on_c, 13, 48, 105
8, 70932, Note_off_c, 13, 48, 64
8, 71040, Note_on_c, 13, 53, 105
8, 71172, Note_off_c, 13, 53, 64
8, 71760, Note_on_c, 13, 60, 105
8, 71892, Note_off_c, 13, 60, 64
8, 72000, Note_on_c, 13, 53, 105
8, 72132, Note_off_c, 13, 53, 64
8, 72720, Note_on_c, 13, 48, 105
8, 72852, Note_off_c, 13, 48, 64
8, 72960, Note_on_c, 13, 53, 105
8, 73092, Note_off_c, 13, 53, 64
8, 73680, Note_on_c, 13, 60, 105
8, 73812, Note_off_c, 13, 60, 64
8, 73920, Note_on_c, 13, 53, 92
8, 73984, Note_off_c, 13, 53, 64
8, 74000, Note_on_c, 13, 55, 92
8, 74064, Note_off_c, 13, 55, 64
8, 74080, Note_on_c, 13, 57, 92
8, 74144, Note_off_c, 13, 57, 64
8, 74160, Note_on_c, 13, 58, 92
8, 74224, Note_off_c, 13, 58, 64
8, 74240, Note_on_c, 13, 60, 92
8, 74304, Note_off_c, 13, 60, 64
8, 74320, Note_on_c, 13, 62, 92
8, 74384, Note_off_c, 13, 62, 64
8, 74400, Note_on_c, 13, 60, 92
8, 74464, Note_off_c, 13, 60, 64
8, 74480, Note_on_c, 13, 58, 92
8, 74544, Note_off_c, 13, 58, 64
8, 74560, Note_on_c, 13, 57, 92
8, 74624, Note_off_c, 13, 57, 64
8, 74640, Note_on_c, 13, 55, 92
8, 74704, Note_off_c, 13, 55, 64
8, 74720, Note_on_c, 13, 53, 92
8, 74784, Note_off_c, 13, 53, 64
8, 74800, Note_on_c, 13, 52, 92
8, 74864, Note_off_c, 13, 52, 64
8, 74880, Note_on_c, 13, 50, 92
8, 74944, Note_off_c, 13, 50, 64
8, 74960, Note_on_c, 13, 52, 92
8, 75024, Note_off_c, 13, 52, 64
8, 75040, Note_on_c, 13, 53, 92
8, 75104, Note_off_c, 13, 53, 64
8, 75120, Note_on_c, 13, 55, 92
8, 75184, Note_off_c, 13, 55, 64
8, 75200, Note_on_c, 13, 57, 92
8, 75264, Note_off_c, 13, 57, 64
8, 75280, Note_on_c, 13, 58, 92
8, 75344, Note_off_c, 13, 58, 64
8, 75360, Note_on_c, 13, 57, 92
8, 75424, Note_off_c, 13, 57, 64
8, 75440, Note_on_c, 13, 55, 92
8, 75504, Note_off_c, 13, 55, 64
8, 75520, Note_on_c, 13, 53, 92
8, 75584, Note_off_c, 13, 53, 64
8, 75600, Note_on_c, 13, 52, 92
8, 75664, Note_off_c, 13, 52, 64
8, 75680, Note_on_c, 13, 50, 92
8, 75744, Note_off_c, 13, 50, 64
8, 75760, Note_on_c, 13, 48, 92
8, 75824, Note_off_c, 13, 48, 64
8, 75840, Note_on_c, 13, 46, 92
8, 75957, Note_off_c, 13, 46, 64
8, 76020, Note_on_c, 13, 58, 92
8, 76059, Note_off_c, 13, 58, 64
8, 76080, Note_on_c, 13, 57, 92
8, 76197, Note_off_c, 13, 57, 64
8, 76260, Note_on_c, 13, 55, 92
8, 76299, Note_off_c, 13, 55, 64
8, 76320, Note_on_c, 13, 60, 92
8, 76476, Note_off_c, 13, 60, 64
8, 76560, Note_on_c, 13, 48, 92
8, 76716, Note_off_c, 13, 48, 64
8, 76800, Note_on_c, 13, 53, 92
8, 76956, Note_off_c, 13, 53, 64
8, 77040, Note_on_c, 13, 53, 92
8, 77196, Note_off_c, 13, 53, 64
8, 77280, Note_on_c, 13, 53, 92
8, 77472, Note_off_c, 13, 53, 64
8, 77760, Note_on_c, 13, 46, 105
8, 77952, Note_off_c, 13, 46, 64
8, 79680, Note_on_c, 13, 53, 105
8, 79872, Note_off_c, 13, 53, 64
8, 81600, Note_on_c, 13, 46, 58
8, 81792, Note_off_c, 13, 46, 64
8, 82560, Note_on_c, 13, 46, 58
8, 82752, Note_off_c, 13, 46, 64
8, 83040, Note_on_c, 13, 53, 58
8, 83232, Note_off_c, 13, 53, 64
8, 83520, Note_on_c, 13, 58, 58
8, 83712, Note_off_c, 13, 58, 64
8, 85440, Note_on_c, 13, 46, 105
8, 85632, Note_off_c, 13, 46, 64
8, 87360, Note_on_c, 13, 53, 105
8, 87552, Note_off_c, 13, 53, 64
8, 89280, Note_on_c, 13, 46, 58
8, 89472, Note_off_c, 13, 46, 64
8, 90240, Note_on_c, 13, 46, 58
8, 90432, Note_off_c, 13, 46, 64
8, 90720, Note_on_c, 13, 53, 58
8, 90912, Note_off_c, 13, 53, 64
8, 91200, Note_on_c, 13, 58, 58
8, 91392, Note_off_c, 13, 58, 64
8, 91920, Note_on_c, 13, 51, 58
8, 91986, Note_off_c, 13, 51, 64
8, 92160, Note_on_c, 13, 53, 58
8, 92226, Note_off_c, 13, 53, 64
8, 92400, Note_on_c, 13, 41, 58
8, 92466, Note_off_c, 13, 41, 64
8, 92640, Note_on_c, 13, 46, 105
8, 92832, Note_off_c, 13, 46, 64
8, 92880, Note_on_c, 13, 46, 105
8, 92944, Note_off_c, 13, 46, 64
8, 92960, Note_on_c, 13, 46, 105
8, 93024, Note_off_c, 13, 46, 64
8, 93040, Note_on_c, 13, 46, 105
8, 93104, Note_off_c, 13, 46, 64
8, 93120, Note_on_c, 13, 46, 105
8, 93184, Note_off_c, 13, 46, 64
8, 93200, Note_on_c, 13, 46, 105
8, 93264, Note_off_c, 13, 46, 64
8, 93280, Note_on_c, 13, 46, 105
8, 93344, Note_off_c, 13, 46, 64
8, 93360, Note_on_c, 13, 46, 105
8, 93424, Note_off_c, 13, 46, 64
8, 93440, Note_on_c, 13, 46, 105
8, 93504, Note_off_c, 13, 46, 64
8, 93520, Note_on_c, 13, 46, 105
8, 93584, Note_off_c, 13, 46, 64
8, 93600, Note_on_c, 13, 46, 105
8, 93732, Note_off_c, 13, 46, 64
8, 93840, Note_on_c, 13, 50, 105
8, 93972, Note_off_c, 13, 50, 64
8, 94080, Note_on_c, 13, 53, 105
8, 94212, Note_off_c, 13, 53, 64
8, 94560, Note_on_c, 13, 50, 58
8, 94692, Note_off_c, 13, 50, 64
8, 94800, Note_on_c, 13, 53, 58
8, 94932, Note_off_c, 13, 53, 64
8, 95040, Note_on_c, 13, 58, 58
8, 95172, Note_off_c, 13, 58, 64
8, 95520, Note_on_c, 13, 46, 105
8, 95652, Note_off_c, 13, 46, 64
8, 95760, Note_on_c, 13, 50, 105
8, 95892, Note_off_c, 13, 50, 64
8, 96000, Note_on_c, 13, 53, 105
8, 96132, Note_off_c, 13, 53, 64
8, 96240, Note_on_c, 13, 58, 105
8, 96372, Note_off_c, 13, 58, 64
8, 96480, Note_on_c, 13, 53, 105
8, 96612, Note_off_c, 13, 53, 64
8, 96720, Note_on_c, 13, 50, 105
8, 96852, Note_off_c, 13, 50, 64
8, 96960, Note_on_c, 13, 46, 105
8, 97092, Note_off_c, 13, 46, 64
8, 104880, Note_on_c, 13, 45, 58
8, 104952, Note_off_c, 13, 45, 64
8, 105120, Note_on_c, 13, 46, 58
8, 105192, Note_off_c, 13, 46, 64
8, 105360, Note_on_c, 13, 49, 58
8, 105432, Note_off_c, 13, 49, 64
8, 105600, Note_on_c, 13, 50, 58
8, 105672, Note_off_c, 13, 50, 64
8, 105840, Note_on_c, 13, 55, 58
8, 105912, Note_off_c, 13, 55, 64
8, 106080, Note_on_c, 13, 58, 58
8, 106440, Note_off_c, 13, 58, 64
8, 106440, Note_on_c, 13, 60, 58
8, 106500, Note_off_c, 13, 60, 64
8, 106500, Note_on_c, 13, 58, 58
8, 106560, Note_off_c, 13, 58, 64
8, 106560, Note_on_c, 13, 55, 58
8, 106632, Note_off_c, 13, 55, 64
8, 106800, Note_on_c, 13, 45, 58
8, 106872, Note_off_c, 13, 45, 64
8, 107040, Note_on_c, 13, 46, 58
8, 107112, Note_off_c, 13, 46, 64
8, 107280, Note_on_c, 13, 49, 58
8, 107352, Note_off_c, 13, 49, 64
8, 107520, Note_on_c, 13, 50, 58
8, 107592, Note_off_c, 13, 50, 64
8, 107760, Note_on_c, 13, 55, 58
8, 107832, Note_off_c, 13, 55, 64
8, 108000, Note_on_c, 13, 58, 58
8, 108360, Note_off_c, 13, 58, 64
8, 108360, Note_on_c, 13, 60, 58
8, 108420, Note_off_c, 13, 60, 64
8, 108420, Note_on_c, 13, 58, 58
8, 108480, Note_off_c, 13, 58, 64
8, 108480, Note_on_c, 13, 55, 58
8, 108552, Note_off_c, 13, 55, 64
8, 108720, Note_on_c, 13, 45, 58
8, 108792, Note_off_c, 13, 45, 64
8, 108960, Note_on_c, 13, 46, 58
8, 109152, Note_off_c, 13, 46, 64
8, 110880, Note_on_c, 13, 60, 105
8, 110952, Note_off_c, 13, 60, 64
8, 111000, Note_on_c, 13, 59, 105
8, 111072, Note_off_c, 13, 59, 64
8, 111120, Note_on_c, 13, 60, 105
8, 111192, Note_off_c, 13, 60, 64
8, 111240, Note_on_c, 13, 59, 105
8, 111312, Note_off_c, 13, 59, 64
8, 111360, Note_on_c, 13, 58, 105
8, 111432, Note_off_c, 13, 58, 64
8, 111480, Note_on_c, 13, 57, 105
8, 111552, Note_off_c, 13, 57, 64
8, 111600, Note_on_c, 13, 58, 105
8, 111672, Note_off_c, 13, 58, 64
8, 111720, Note_on_c, 13, 57, 105
8, 111792, Note_off_c, 13, 57, 64
8, 111840, Note_on_c, 13, 55, 105
8, 111912, Note_off_c, 13, 55, 64
8, 111960, Note_on_c, 13, 54, 105
8, 112032, Note_off_c, 13, 54, 64
8, 112080, Note_on_c, 13, 55, 105
8, 112152, Note_off_c, 13, 55, 64
8, 112200, Note_on_c, 13, 53, 105
8, 112272, Note_off_c, 13, 53, 64
8, 112320, Note_on_c, 13, 52, 105
8, 112392, Note_off_c, 13, 52, 64
8, 112440, Note_on_c, 13, 51, 105
8, 112512, Note_off_c, 13, 51, 64
8, 112560, Note_on_c, 13, 52, 105
8, 112632, Note_off_c, 13, 52, 64
8, 112680, Note_on_c, 13, 50, 105
8, 112752, Note_off_c, 13, 50, 64
8, 112800, Note_on_c, 13, 48, 105
8, 112872, Note_off_c, 13, 48, 64
8, 112920, Note_on_c, 13, 60, 105
8, 112992, Note_off_c, 13, 60, 64
8, 113040, Note_on_c, 13, 60, 105
8, 113112, Note_off_c, 13, 60, 64
8, 113160, Note_on_c, 13, 60, 105
8, 113232, Note_off_c, 13, 60, 64
8, 113280, Note_on_c, 13, 48, 105
8, 113352, Note_off_c, 13, 48, 64
8, 113400, Note_on_c, 13, 60, 105
8, 113472, Note_off_c, 13, 60, 64
8, 113520, Note_on_c, 13, 60, 105
8, 113592, Note_off_c, 13, 60, 64
8, 113640, Note_on_c, 13, 60, 105
8, 113712, Note_off_c, 13, 60, 64
8, 113760, Note_on_c, 13, 60, 105
8, 113832, Note_off_c, 13, 60, 64
8, 113880, Note_on_c, 13, 60, 105
8, 113952, Note_off_c, 13, 60, 64
8, 114000, Note_on_c, 13, 60, 105
8, 114072, Note_off_c, 13, 60, 64
8, 114120, Note_on_c, 13, 60, 105
8, 114192, Note_off_c, 13, 60, 64
8, 114240, Note_on_c, 13, 60, 105
8, 114312, Note_off_c, 13, 60, 64
8, 114360, Note_on_c, 13, 60, 105
8, 114432, Note_off_c, 13, 60, 64
8, 114480, Note_on_c, 13, 60, 105
8, 114552, Note_off_c, 13, 60, 64
8, 114600, Note_on_c, 13, 60, 105
8, 114672, Note_off_c, 13, 60, 64
8, 114720, Note_on_c, 13, 60, 105
8, 114912, Note_off_c, 13, 60, 64
8, 117600, Note_on_c, 13, 53, 58
8, 117792, Note_off_c, 13, 53, 64
8, 118080, Note_on_c, 13, 41, 58
8, 118272, Note_off_c, 13, 41, 64
8, 118560, Note_on_c, 13, 48, 58
8, 118752, Note_off_c, 13, 48, 64
8, 119520, Note_on_c, 13, 60, 58
8, 119712, Note_off_c, 13, 60, 64
8, 120000, Note_on_c, 13, 48, 58
8, 120192, Note_off_c, 13, 48, 64
8, 120480, Note_on_c, 13, 53, 58
8, 120672, Note_off_c, 13, 53, 64
8, 121200, Note_on_c, 13, 57, 58
8, 121440, Note_off_c, 13, 57, 64
8, 121440, Note_on_c, 13, 58, 58
8, 121680, Note_off_c, 13, 58, 64
8, 121680, Note_on_c, 13, 57, 58
8, 121872, Note_off_c, 13, 57, 64
8, 122160, Note_on_c, 13, 57, 58
8, 122400, Note_off_c, 13, 57, 64
8, 122400, Note_on_c, 13, 55, 58
8, 122640, Note_off_c, 13, 55, 64
8, 122640, Note_on_c, 13, 53, 58
8, 122832, Note_off_c, 13, 53, 64
8, 123120, Note_on_c, 13, 57, 58
8, 123360, Note_off_c, 13, 57, 64
8, 123360, Note_on_c, 13, 58, 58
8, 123600, Note_off_c, 13, 58, 64
8, 123600, Note_on_c, 13, 59, 58
8, 123840, Note_off_c, 13, 59, 64
8, 123840, Note_on_c, 13, 60, 58
8, 124080, Note_off_c, 13, 60, 64
8, 124080, Note_on_c, 13, 61, 58
8, 124320, Note_off_c, 13, 61, 64
8, 124320, Note_on_c, 13, 60, 58
8, 124512, Note_off_c, 13, 60, 64
8, 125280, Note_on_c, 13, 53, 58
8, 125472, Note_off_c, 13, 53, 64
8, 125760, Note_on_c, 13, 41, 58
8, 125952, Note_off_c, 13, 41, 64
8, 126240, Note_on_c, 13, 48, 58
8, 126432, Note_off_c, 13, 48, 64
8, 127200, Note_on_c, 13, 60, 58
8, 127392, Note_off_c, 13, 60, 64
8, 127680, Note_on_c, 13, 48, 58
8, 127872, Note_off_c, 13, 48, 64
8, 128160, Note_on_c, 13, 53, 58
8, 128352, Note_off_c, 13, 53, 64
8, 128880, Note_on_c, 13, 57, 58
8, 129120, Note_off_c, 13, 57, 64
8, 129120, Note_on_c, 13, 58, 58
8, 129360, Note_off_c, 13, 58, 64
8, 129360, Note_on_c, 13, 57, 58
8, 129552, Note_off_c, 13, 57, 64
8, 129840, Note_on_c, 13, 53, 58
8, 130080, Note_off_c, 13, 53, 64
8, 130080, Note_on_c, 13, 52, 58
8, 130320, Note_off_c, 13, 52, 64
8, 130320, Note_on_c, 13, 53, 58
8, 130512, Note_off_c, 13, 53, 64
8, 130800, Note_on_c, 13, 57, 58
8, 130944, Note_off_c, 13, 57, 64
8, 131040, Note_on_c, 13, 58, 58
8, 131520, Note_off_c, 13, 58, 64
8, 131520, Note_on_c, 13, 60, 58
8, 131904, Note_off_c, 13, 60, 64
8, 132000, Note_on_c, 13, 53, 58
8, 132156, Note_off_c, 13, 53, 64
8, 132240, Note_on_c, 13, 57, 58
8, 132372, Note_off_c, 13, 57, 64
8, 132480, Note_on_c, 13, 55, 105
8, 132612, Note_off_c, 13, 55, 64
8, 132720, Note_on_c, 13, 48, 105
8, 132852, Note_off_c, 13, 48, 64
8, 132960, Note_on_c, 13, 53, 105
8, 133092, Note_off_c, 13, 53, 64
8, 133200, Note_on_c, 13, 62, 105
8, 133332, Note_off_c, 13, 62, 64
8, 133440, Note_on_c, 13, 60, 105
8, 133572, Note_off_c, 13, 60, 64
8, 133680, Note_on_c, 13, 53, 105
8, 133812, Note_off_c, 13, 53, 64
8, 133920, Note_on_c, 13, 58, 105
8, 134052, Note_off_c, 13, 58, 64
8, 134160, Note_on_c, 13, 57, 105
8, 134292, Note_off_c, 13, 57, 64
8, 134400, Note_on_c, 13, 55, 105
8, 134532, Note_off_c, 13, 55, 64
8, 134640, Note_on_c, 13, 52, 105
8, 134772, Note_off_c, 13, 52, 64
8, 134880, Note_on_c, 13, 53, 105
8, 135012, Note_off_c, 13, 53, 64
8, 135120, Note_on_c, 13, 62, 105
8, 135252, Note_off_c, 13, 62, 64
8, 135360, Note_on_c, 13, 58, 105
8, 135492, Note_off_c, 13, 58, 64
8, 135600, Note_on_c, 13, 60, 105
8, 135732, Note_off_c, 13, 60, 64
8, 135840, Note_on_c, 13, 53, 92
8, 135996, Note_off_c, 13, 53, 64
8, 136080, Note_on_c, 13, 57, 105
8, 136212, Note_off_c, 13, 57, 64
8, 136320, Note_on_c, 13, 55, 105
8, 136452, Note_off_c, 13, 55, 64
8, 136560, Note_on_c, 13, 48, 105
8, 136692, Note_off_c, 13, 48, 64
8, 136800, Note_on_c, 13, 53, 105
8, 136932, Note_off_c, 13, 53, 64
8, 137040, Note_on_c, 13, 62, 105
8, 137172, Note_off_c, 13, 62, 64
8, 137280, Note_on_c, 13, 60, 105
8, 137412, Note_off_c, 13, 60, 64
8, 137520, Note_on_c, 13, 53, 105
8, 137652, Note_off_c, 13, 53, 64
8, 137760, Note_on_c, 13, 58, 105
8, 137892, Note_off_c, 13, 58, 64
8, 138000, Note_on_c, 13, 57, 105
8, 138132, Note_off_c, 13, 57, 64
8, 138240, Note_on_c, 13, 55, 105
8, 138372, Note_off_c, 13, 55, 64
8, 138480, Note_on_c, 13, 52, 105
8, 138612, Note_off_c, 13, 52, 64
8, 138720, Note_on_c, 13, 53, 105
8, 138852, Note_off_c, 13, 53, 64
8, 138960, Note_on_c, 13, 62, 105
8, 139092, Note_off_c, 13, 62, 64
8, 139200, Note_on_c, 13, 58, 105
8, 139332, Note_off_c, 13, 58, 64
8, 139440, Note_on_c, 13, 60, 105
8, 139572, Note_off_c, 13, 60, 64
8, 139680, Note_on_c, 13, 53, 92
8, 139836, Note_off_c, 13, 53, 64
8, 140160, Note_on_c, 13, 53, 58
8, 140352, Note_off_c, 13, 53, 64
8, 140640, Note_on_c, 13, 53, 58
8, 140832, Note_off_c, 13, 53, 64
8, 141120, Note_on_c, 13, 53, 58
8, 141312, Note_off_c, 13, 53, 64
8, 141600, Note_on_c, 13, 48, 58
8, 141792, Note_off_c, 13, 48, 64
8, 142080, Note_on_c, 13, 48, 58
8, 142272, Note_off_c, 13, 48, 64
8, 142560, Note_on_c, 13, 53, 58
8, 142752, Note_off_c, 13, 53, 64
8, 143040, Note_on_c, 13, 48, 58
8, 143232, Note_off_c, 13, 48, 64
8, 143520, Note_on_c, 13, 53, 105
8, 143664, Note_off_c, 13, 53, 64
8, 143760, Note_on_c, 13, 53, 105
8, 143832, Note_off_c, 13, 53, 64
8, 143880, Note_on_c, 13, 53, 105
8, 143952, Note_off_c, 13, 53, 64
8, 144000, Note_on_c, 13, 53, 105
8, 144144, Note_off_c, 13, 53, 64
8, 144240, Note_on_c, 13, 53, 105
8, 144312, Note_off_c, 13, 53, 64
8, 144360, Note_on_c, 13, 53, 105
8, 144432, Note_off_c, 13, 53, 64
8, 144480, Note_on_c, 13, 53, 92
8, 144552, Note_off_c, 13, 53, 64
8, 144600, Note_on_c, 13, 53, 92
8, 144672, Note_off_c, 13, 53, 64
8, 144720, Note_on_c, 13, 53, 92
8, 144792, Note_off_c, 13, 53, 64
8, 144840, Note_on_c, 13, 53, 92
8, 144912, Note_off_c, 13, 53, 64
8, 144960, Note_on_c, 13, 53, 92
8, 145032, Note_off_c, 13, 53, 64
8, 145080, Note_on_c, 13, 53, 92
8, 145152, Note_off_c, 13, 53, 64
8, 145200, Note_on_c, 13, 53, 92
8, 145272, Note_off_c, 13, 53, 64
8, 145320, Note_on_c, 13, 53, 92
8, 145392, Note_off_c, 13, 53, 64
8, 145440, Note_on_c, 13, 48, 92
8, 145512, Note_off_c, 13, 48, 64
8, 145560, Note_on_c, 13, 48, 92
8, 145632, Note_off_c, 13, 48, 64
8, 145680, Note_on_c, 13, 48, 92
8, 145752, Note_off_c, 13, 48, 64
8, 145800, Note_on_c, 13, 48, 92
8, 145872, Note_off_c, 13, 48, 64
8, 145920, Note_on_c, 13, 48, 92
8, 145992, Note_off_c, 13, 48, 64
8, 146040, Note_on_c, 13, 48, 92
8, 146112, Note_off_c, 13, 48, 64
8, 146160, Note_on_c, 13, 48, 92
8, 146232, Note_off_c, 13, 48, 64
8, 146280, Note_on_c, 13, 48, 92
8, 146352, Note_off_c, 13, 48, 64
8, 146400, Note_on_c, 13, 53, 92
8, 146472, Note_off_c, 13, 53, 64
8, 146520, Note_on_c, 13, 53, 92
8, 146592, Note_off_c, 13, 53, 64
8, 146640, Note_on_c, 13, 53, 92
8, 146712, Note_off_c, 13, 53, 64
8, 146760, Note_on_c, 13, 53, 92
8, 146832, Note_off_c, 13, 53, 64
8, 146880, Note_on_c, 13, 60, 92
8, 146952, Note_off_c, 13, 60, 64
8, 147000, Note_on_c, 13, 60, 92
8, 147072, Note_off_c, 13, 60, 64
8, 147120, Note_on_c, 13, 48, 92
8, 147192, Note_off_c, 13, 48, 64
8, 147240, Note_on_c, 13, 48, 92
8, 147312, Note_off_c, 13, 48, 64
8, 147360, Note_on_c, 13, 53, 105
8, 147552, Note_off_c, 13, 53, 64
8, 148080, Note_on_c, 13, 48, 105
8, 148212, Note_off_c, 13, 48, 64
8, 148320, Note_on_c, 13, 53, 105
8, 148452, Note_off_c, 13, 53, 64
8, 149040, Note_on_c, 13, 60, 105
8, 149172, Note_off_c, 13, 60, 64
8, 149280, Note_on_c, 13, 53, 105
8, 149412, Note_off_c, 13, 53, 64
8, 150000, Note_on_c, 13, 48, 105
8, 150132, Note_off_c, 13, 48, 64
8, 150240, Note_on_c, 13, 53, 105
8, 150372, Note_off_c, 13, 53, 64
8, 150960, Note_on_c, 13, 60, 105
8, 151092, Note_off_c, 13, 60, 64
8, 151200, Note_on_c, 13, 53, 92
8, 151264, Note_off_c, 13, 53, 64
8, 151280, Note_on_c, 13, 55, 92
8, 151344, Note_off_c, 13, 55, 64
8, 151360, Note_on_c, 13, 57, 92
8, 151424, Note_off_c, 13, 57, 64
8, 151440, Note_on_c, 13, 58, 92
8, 151504, Note_off_c, 13, 58, 64
8, 151520, Note_on_c, 13, 60, 92
8, 151584, Note_off_c, 13, 60, 64
8, 151600, Note_on_c, 13, 62, 92
8, 151664, Note_off_c, 13, 62, 64
8, 151680, Note_on_c, 13, 60, 92
8, 151744, Note_off_c, 13, 60, 64
8, 151760, Note_on_c, 13, 58, 92
8, 151824, Note_off_c, 13, 58, 64
8, 151840, Note_on_c, 13, 57, 92
8, 151904, Note_off_c, 13, 57, 64
8, 151920, Note_on_c, 13, 55, 92
8, 151984, Note_off_c, 13, 55, 64
8, 152000, Note_on_c, 13, 53, 92
8, 152064, Note_off_c, 13, 53, 64
8, 152080, Note_on_c, 13, 52, 92
8, 152144, Note_off_c, 13, 52, 64
8, 152160, Note_on_c, 13, 50, 92
8, 152224, Note_off_c, 13, 50, 64
8, 152240, Note_on_c, 13, 52, 92
8, 152304, Note_off_c, 13, 52, 64
8, 152320, Note_on_c, 13, 53, 92
8, 152384, Note_off_c, 13, 53, 64
8, 152400, Note_on_c, 13, 55, 92
8, 152464, Note_off_c, 13, 55, 64
8, 152480, Note_on_c, 13, 57, 92
8, 152544, Note_off_c, 13, 57, 64
8, 152560, Note_on_c, 13, 58, 92
8, 152624, Note_off_c, 13, 58, 64
8, 152640, Note_on_c, 13, 57, 92
8, 152704, Note_off_c, 13, 57, 64
8, 152720, Note_on_c, 13, 55, 92
8, 152784, Note_off_c, 13, 55, 64
8, 152800, Note_on_c, 13, 53, 92
8, 152864, Note_off_c, 13, 53, 64
8, 152880, Note_on_c, 13, 52, 92
8, 152944, Note_off_c, 13, 52, 64
8, 152960, Note_on_c, 13, 50, 92
8, 153024, Note_off_c, 13, 50, 64
8, 153040, Note_on_c, 13, 48, 92
8, 153104, Note_off_c, 13, 48, 64
8, 153120, Note_on_c, 13, 46, 92
8, 153237, Note_off_c, 13, 46, 64
8, 153300, Note_on_c, 13, 58, 92
8, 153339, Note_off_c, 13, 58, 64
8, 153360, Note_on_c, 13, 57, 92
8, 153477, Note_off_c, 13, 57, 64
8, 153540, Note_on_c, 13, 55, 92
8, 153579, Note_off_c, 13, 55, 64
8, 153600, Note_on_c, 13, 60, 92
8, 153756, Note_off_c, 13, 60, 64
8, 153840, Note_on_c, 13, 48, 92
8, 153996, Note_off_c, 13, 48, 64
8, 154080, Note_on_c, 13, 53, 92
8, 154236, Note_off_c, 13, 53, 64
8, 154320, Note_on_c, 13, 53, 92
8, 154476, Note_off_c, 13, 53, 64
8, 154560, Note_on_c, 13, 53, 92
8, 154752, Note_off_c, 13, 53, 64
8, 159840, Note_on_c, 13, 53, 58
8, 160320, Note_off_c, 13, 53, 64
8, 160320, Note_on_c, 13, 50, 58
8, 160776, Note_off_c, 13, 50, 64
8, 160800, Note_on_c, 13, 46, 58
8, 161280, Note_off_c, 13, 46, 64
8, 161280, Note_on_c, 13, 48, 58
8, 161760, Note_off_c, 13, 48, 64
8, 161760, Note_on_c, 13, 45, 58
8, 162240, Note_off_c, 13, 45, 64
8, 162240, Note_on_c, 13, 46, 58
8, 162696, Note_off_c, 13, 46, 64
8, 162720, Note_on_c, 13, 43, 58
8, 163200, Note_off_c, 13, 43, 64
8, 163200, Note_on_c, 13, 45, 58
8, 163656, Note_off_c, 13, 45, 64
8, 163680, Note_on_c, 13, 50, 58
8, 163872, Note_off_c, 13, 50, 64
8, 164640, Note_on_c, 13, 62, 58
8, 165600, Note_off_c, 13, 62, 64
8, 165600, Note_on_c, 13, 55, 58
8, 165792, Note_off_c, 13, 55, 64
8, 166560, Note_on_c, 13, 55, 58
8, 167520, Note_off_c, 13, 55, 64
8, 167520, Note_on_c, 13, 48, 58
8, 167712, Note_off_c, 13, 48, 64
8, 168480, Note_on_c, 13, 60, 58
8, 169440, Note_off_c, 13, 60, 64
8, 169440, Note_on_c, 13, 53, 58
8, 169632, Note_off_c, 13, 53, 64
8, 170400, Note_on_c, 13, 53, 58
8, 171360, Note_off_c, 13, 53, 64
8, 171360, Note_on_c, 13, 46, 58
8, 171552, Note_off_c, 13, 46, 64
8, 173280, Note_on_c, 13, 63, 30
8, 173760, Note_off_c, 13, 63, 64
8, 173760, Note_on_c, 13, 58, 30
8, 174144, Note_off_c, 13, 58, 64
8, 174240, Note_on_c, 13, 60, 58
8, 174480, Note_off_c, 13, 60, 64
8, 174480, Note_on_c, 13, 53, 58
8, 174720, Note_off_c, 13, 53, 64
8, 174720, Note_on_c, 13, 58, 58
8, 174960, Note_off_c, 13, 58, 64
8, 174960, Note_on_c, 13, 55, 58
8, 175152, Note_off_c, 13, 55, 64
8, 175200, Note_on_c, 13, 53, 105
8, 175584, Note_off_c, 13, 53, 64
8, 175680, Note_on_c, 13, 48, 105
8, 176064, Note_off_c, 13, 48, 64
8, 176160, Note_on_c, 13, 46, 105
8, 176400, Note_off_c, 13, 46, 64
8, 176400, Note_on_c, 13, 45, 105
8, 176592, Note_off_c, 13, 45, 64
8, 176640, Note_on_c, 13, 50, 105
8, 176880, Note_off_c, 13, 50, 64
8, 176880, Note_on_c, 13, 48, 105
8, 177072, Note_off_c, 13, 48, 64
8, 177120, Note_on_c, 13, 53, 105
8, 177360, Note_off_c, 13, 53, 64
8, 177360, Note_on_c, 13, 52, 105
8, 177552, Note_off_c, 13, 52, 64
8, 177600, Note_on_c, 13, 58, 105
8, 177840, Note_off_c, 13, 58, 64
8, 177840, Note_on_c, 13, 57, 105
8, 178032, Note_off_c, 13, 57, 64
8, 178080, Note_on_c, 13, 63, 105
8, 178368, Note_off_c, 13, 63, 64
8, 178440, Note_on_c, 13, 62, 105
8, 178518, Note_off_c, 13, 62, 64
8, 178560, Note_on_c, 13, 60, 105
8, 178638, Note_off_c, 13, 60, 64
8, 178680, Note_on_c, 13, 58, 105
8, 178758, Note_off_c, 13, 58, 64
8, 178800, Note_on_c, 13, 57, 105
8, 178878, Note_off_c, 13, 57, 64
8, 178920, Note_on_c, 13, 55, 105
8, 178998, Note_off_c, 13, 55, 64
8, 179040, Note_on_c, 13, 53, 105
8, 179118, Note_off_c, 13, 53, 64
8, 179160, Note_on_c, 13, 52, 105
8, 179238, Note_off_c, 13, 52, 64
8, 179280, Note_on_c, 13, 53, 105
8, 179358, Note_off_c, 13, 53, 64
8, 179400, Note_on_c, 13, 55, 105
8, 179478, Note_off_c, 13, 55, 64
8, 179520, Note_on_c, 13, 53, 105
8, 179598, Note_off_c, 13, 53, 64
8, 179640, Note_on_c, 13, 51, 105
8, 179718, Note_off_c, 13, 51, 64
8, 179760, Note_on_c, 13, 50, 105
8, 179838, Note_off_c, 13, 50, 64
8, 179880, Note_on_c, 13, 48, 105
8, 179958, Note_off_c, 13, 48, 64
8, 180000, Note_on_c, 13, 46, 105
8, 180192, Note_off_c, 13, 46, 64
8, 181920, Note_on_c, 13, 53, 105
8, 182112, Note_off_c, 13, 53, 64
8, 183840, Note_on_c, 13, 46, 58
8, 184032, Note_off_c, 13, 46, 64
8, 184800, Note_on_c, 13, 46, 58
8, 184992, Note_off_c, 13, 46, 64
8, 185280, Note_on_c, 13, 53, 58
8, 185472, Note_off_c, 13, 53, 64
8, 185760, Note_on_c, 13, 58, 58
8, 185952, Note_off_c, 13, 58, 64
8, 186480, Note_on_c, 13, 51, 58
8, 186546, Note_off_c, 13, 51, 64
8, 186720, Note_on_c, 13, 53, 58
8, 186786, Note_off_c, 13, 53, 64
8, 186960, Note_on_c, 13, 41, 58
8, 187026, Note_off_c, 13, 41, 64
8, 187200, Note_on_c, 13, 46, 105
8, 187356, Note_off_c, 13, 46, 64
8, 187440, Note_on_c, 13, 46, 105
8, 187492, Note_off_c, 13, 46, 64
8, 187520, Note_on_c, 13, 46, 105
8, 187572, Note_off_c, 13, 46, 64
8, 187600, Note_on_c, 13, 46, 105
8, 187652, Note_off_c, 13, 46, 64
8, 187680, Note_on_c, 13, 46, 105
8, 187732, Note_off_c, 13, 46, 64
8, 187760, Note_on_c, 13, 46, 105
8, 187812, Note_off_c, 13, 46, 64
8, 187840, Note_on_c, 13, 46, 105
8, 187892, Note_off_c, 13, 46, 64
8, 187920, Note_on_c, 13, 46, 105
8, 187972, Note_off_c, 13, 46, 64
8, 188000, Note_on_c, 13, 46, 105
8, 188052, Note_off_c, 13, 46, 64
8, 188080, Note_on_c, 13, 46, 105
8, 188132, Note_off_c, 13, 46, 64
8, 188160, Note_on_c, 13, 46, 105
8, 188292, Note_off_c, 13, 46, 64
8, 188400, Note_on_c, 13, 50, 105
8, 188532, Note_off_c, 13, 50, 64
8, 188640, Note_on_c, 13, 53, 105
8, 188772, Note_off_c, 13, 53, 64
8, 189120, Note_on_c, 13, 50, 58
8, 189252, Note_off_c, 13, 50, 64
8, 189360, Note_on_c, 13, 53, 58
8, 189492, Note_off_c, 13, 53, 64
8, 189600, Note_on_c, 13, 58, 58
8, 189732, Note_off_c, 13, 58, 64
8, 190080, Note_on_c, 13, 46, 105
8, 190212, Note_off_c, 13, 46, 64
8, 190320, Note_on_c, 13, 50, 105
8, 190452, Note_off_c, 13, 50, 64
8, 190560, Note_on_c, 13, 53, 105
8, 190692, Note_off_c, 13, 53, 64
8, 190800, Note_on_c, 13, 58, 105
8, 190932, Note_off_c, 13, 58, 64
8, 191040, Note_on_c, 13, 53, 105
8, 191172, Note_off_c, 13, 53, 64
8, 191280, Note_on_c, 13, 50, 105
8, 191412, Note_off_c, 13, 50, 64
8, 191520, Note_on_c, 13, 46, 105
8, 191652, Note_off_c, 13, 46, 64
8, 199440, Note_on_c, 13, 50, 58
8, 199506, Note_off_c, 13, 50, 64
8, 199680, Note_on_c, 13, 51, 58
8, 199746, Note_off_c, 13, 51, 64
8, 199920, Note_on_c, 13, 54, 58
8, 199986, Note_off_c, 13, 54, 64
8, 200160, Note_on_c, 13, 55, 58
8, 200226, Note_off_c, 13, 55, 64
8, 200400, Note_on_c, 13, 60, 58
8, 200466, Note_off_c, 13, 60, 64
8, 200640, Note_on_c, 13, 63, 58
8, 201000, Note_off_c, 13, 63, 64
8, 201000, Note_on_c, 13, 65, 58
8, 201060, Note_off_c, 13, 65, 64
8, 201060, Note_on_c, 13, 62, 58
8, 201120, Note_off_c, 13, 62, 64
8, 201120, Note_on_c, 13, 60, 58
8, 201186, Note_off_c, 13, 60, 64
8, 201360, Note_on_c, 13, 50, 58
8, 201426, Note_off_c, 13, 50, 64
8, 201600, Note_on_c, 13, 51, 58
8, 201666, Note_off_c, 13, 51, 64
8, 201840, Note_on_c, 13, 54, 58
8, 201906, Note_off_c, 13, 54, 64
8, 202080, Note_on_c, 13, 55, 58
8, 202146, Note_off_c, 13, 55, 64
8, 202320, Note_on_c, 13, 60, 58
8, 202386, Note_off_c, 13, 60, 64
8, 202560, Note_on_c, 13, 63, 58
8, 202920, Note_off_c, 13, 63, 64
8, 202920, Note_on_c, 13, 65, 58
8, 202980, Note_off_c, 13, 65, 64
8, 202980, Note_on_c, 13, 62, 58
8, 203040, Note_off_c, 13, 62, 64
8, 203040, Note_on_c, 13, 60, 58
8, 203106, Note_off_c, 13, 60, 64
8, 203280, Note_on_c, 13, 50, 58
8, 203346, Note_off_c, 13, 50, 64
8, 203520, Note_on_c, 13, 51, 58
8, 203712, Note_off_c, 13, 51, 64
8, 205440, Note_on_c, 13, 65, 105
8, 205512, Note_off_c, 13, 65, 64
8, 205560, Note_on_c, 13, 64, 105
8, 205632, Note_off_c, 13, 64, 64
8, 205680, Note_on_c, 13, 65, 105
8, 205752, Note_off_c, 13, 65, 64
8, 205800, Note_on_c, 13, 64, 105
8, 205872, Note_off_c, 13, 64, 64
8, 205920, Note_on_c, 13, 63, 105
8, 205992, Note_off_c, 13, 63, 64
8, 206040, Note_on_c, 13, 62, 105
8, 206112, Note_off_c, 13, 62, 64
8, 206160, Note_on_c, 13, 63, 105
8, 206232, Note_off_c, 13, 63, 64
8, 206280, Note_on_c, 13, 62, 105
8, 206352, Note_off_c, 13, 62, 64
8, 206400, Note_on_c, 13, 60, 105
8, 206472, Note_off_c, 13, 60, 64
8, 206520, Note_on_c, 13, 59, 105
8, 206592, Note_off_c, 13, 59, 64
8, 206640, Note_on_c, 13, 60, 105
8, 206712, Note_off_c, 13, 60, 64
8, 206760, Note_on_c, 13, 58, 105
8, 206832, Note_off_c, 13, 58, 64
8, 206880, Note_on_c, 13, 57, 105
8, 206952, Note_off_c, 13, 57, 64
8, 207000, Note_on_c, 13, 56, 105
8, 207072, Note_off_c, 13, 56, 64
8, 207120, Note_on_c, 13, 57, 105
8, 207192, Note_off_c, 13, 57, 64
8, 207240, Note_on_c, 13, 55, 105
8, 207312, Note_off_c, 13, 55, 64
8, 207360, Note_on_c, 13, 53, 105
8, 207432, Note_off_c, 13, 53, 64
8, 207480, Note_on_c, 13, 53, 105
8, 207552, Note_off_c, 13, 53, 64
8, 207600, Note_on_c, 13, 53, 105
8, 207672, Note_off_c, 13, 53, 64
8, 207720, Note_on_c, 13, 53, 105
8, 207792, Note_off_c, 13, 53, 64
8, 207840, Note_on_c, 13, 53, 105
8, 207912, Note_off_c, 13, 53, 64
8, 207960, Note_on_c, 13, 53, 105
8, 208032, Note_off_c, 13, 53, 64
8, 208080, Note_on_c, 13, 53, 105
8, 208152, Note_off_c, 13, 53, 64
8, 208200, Note_on_c, 13, 53, 105
8, 208272, Note_off_c, 13, 53, 64
8, 208320, Note_on_c, 13, 53, 105
8, 208392, Note_off_c, 13, 53, 64
8, 208440, Note_on_c, 13, 53, 105
8, 208512, Note_off_c, 13, 53, 64
8, 208560, Note_on_c, 13, 53, 105
8, 208632, Note_off_c, 13, 53, 64
8, 208680, Note_on_c, 13, 53, 105
8, 208752, Note_off_c, 13, 53, 64
8, 208800, Note_on_c, 13, 53, 105
8, 208872, Note_off_c, 13, 53, 64
8, 208920, Note_on_c, 13, 53, 105
8, 208992, Note_off_c, 13, 53, 64
8, 209040, Note_on_c, 13, 53, 105
8, 209112, Note_off_c, 13, 53, 64
8, 209160, Note_on_c, 13, 53, 105
8, 209232, Note_off_c, 13, 53, 64
8, 209280, Note_on_c, 13, 53, 105
8, 209472, Note_off_c, 13, 53, 64
8, 212160, Note_on_c, 13, 58, 58
8, 212352, Note_off_c, 13, 58, 64
8, 212640, Note_on_c, 13, 46, 58
8, 212832, Note_off_c, 13, 46, 64
8, 213120, Note_on_c, 13, 53, 58
8, 213312, Note_off_c, 13, 53, 64
8, 214080, Note_on_c, 13, 53, 58
8, 214272, Note_off_c, 13, 53, 64
8, 214560, Note_on_c, 13, 41, 58
8, 214752, Note_off_c, 13, 41, 64
8, 215040, Note_on_c, 13, 46, 58
8, 215232, Note_off_c, 13, 46, 64
8, 215760, Note_on_c, 13, 50, 58
8, 216000, Note_off_c, 13, 50, 64
8, 216000, Note_on_c, 13, 51, 58
8, 216240, Note_off_c, 13, 51, 64
8, 216240, Note_on_c, 13, 50, 58
8, 216432, Note_off_c, 13, 50, 64
8, 216720, Note_on_c, 13, 50, 58
8, 216960, Note_off_c, 13, 50, 64
8, 216960, Note_on_c, 13, 48, 58
8, 217200, Note_off_c, 13, 48, 64
8, 217200, Note_on_c, 13, 46, 58
8, 217392, Note_off_c, 13, 46, 64
8, 217680, Note_on_c, 13, 50, 58
8, 217920, Note_off_c, 13, 50, 64
8, 217920, Note_on_c, 13, 51, 58
8, 218160, Note_off_c, 13, 51, 64
8, 218160, Note_on_c, 13, 52, 58
8, 218400, Note_off_c, 13, 52, 64
8, 218400, Note_on_c, 13, 53, 58
8, 218640, Note_off_c, 13, 53, 64
8, 218640, Note_on_c, 13, 54, 58
8, 218880, Note_off_c, 13, 54, 64
8, 218880, Note_on_c, 13, 53, 58
8, 219072, Note_off_c, 13, 53, 64
8, 219840, Note_on_c, 13, 58, 58
8, 220032, Note_off_c, 13, 58, 64
8, 220320, Note_on_c, 13, 46, 58
8, 220512, Note_off_c, 13, 46, 64
8, 220800, Note_on_c, 13, 53, 58
8, 220992, Note_off_c, 13, 53, 64
8, 221760, Note_on_c, 13, 53, 58
8, 221952, Note_off_c, 13, 53, 64
8, 222240, Note_on_c, 13, 41, 58
8, 222432, Note_off_c, 13, 41, 64
8, 222720, Note_on_c, 13, 46, 58
8, 222912, Note_off_c, 13, 46, 64
8, 223440, Note_on_c, 13, 62, 58
8, 223680, Note_off_c, 13, 62, 64
8, 223680, Note_on_c, 13, 63, 58
8, 223920, Note_off_c, 13, 63, 64
8, 223920, Note_on_c, 13, 62, 58
8, 224112, Note_off_c, 13, 62, 64
8, 224400, Note_on_c, 13, 62, 58
8, 224640, Note_off_c, 13, 62, 64
8, 224640, Note_on_c, 13, 57, 58
8, 224880, Note_off_c, 13, 57, 64
8, 224880, Note_on_c, 13, 58, 58
8, 225072, Note_off_c, 13, 58, 64
8, 225360, Note_on_c, 13, 50, 58
8, 225552, Note_off_c, 13, 50, 64
8, 225600, Note_on_c, 13, 51, 58
8, 226080, Note_off_c, 13, 51, 64
8, 226080, Note_on_c, 13, 53, 58
8, 226464, Note_off_c, 13, 53, 64
8, 226560, Note_on_c, 13, 46, 58
8, 226704, Note_off_c, 13, 46, 64
8, 226800, Note_on_c, 13, 62, 105
8, 226932, Note_off_c, 13, 62, 64
8, 227040, Note_on_c, 13, 60, 105
8, 227172, Note_off_c, 13, 60, 64
8, 227280, Note_on_c, 13, 53, 105
8, 227412, Note_off_c, 13, 53, 64
8, 227520, Note_on_c, 13, 58, 105
8, 227652, Note_off_c, 13, 58, 64
8, 227760, Note_on_c, 13, 55, 105
8, 227892, Note_off_c, 13, 55, 64
8, 228000, Note_on_c, 13, 53, 105
8, 228132, Note_off_c, 13, 53, 64
8, 228240, Note_on_c, 13, 46, 105
8, 228372, Note_off_c, 13, 46, 64
8, 228480, Note_on_c, 13, 51, 105
8, 228612, Note_off_c, 13, 51, 64
8, 228720, Note_on_c, 13, 50, 105
8, 228852, Note_off_c, 13, 50, 64
8, 228960, Note_on_c, 13, 48, 105
8, 229092, Note_off_c, 13, 48, 64
8, 229200, Note_on_c, 13, 45, 105
8, 229332, Note_off_c, 13, 45, 64
8, 229440, Note_on_c, 13, 46, 105
8, 229572, Note_off_c, 13, 46, 64
8, 229680, Note_on_c, 13, 51, 105
8, 229812, Note_off_c, 13, 51, 64
8, 229920, Note_on_c, 13, 53, 105
8, 230052, Note_off_c, 13, 53, 64
8, 230160, Note_on_c, 13, 41, 105
8, 230292, Note_off_c, 13, 41, 64
8, 230400, Note_on_c, 13, 46, 105
8, 230532, Note_off_c, 13, 46, 64
8, 230640, Note_on_c, 13, 62, 105
8, 230772, Note_off_c, 13, 62, 64
8, 230880, Note_on_c, 13, 60, 105
8, 231012, Note_off_c, 13, 60, 64
8, 231120, Note_on_c, 13, 53, 105
8, 231252, Note_off_c, 13, 53, 64
8, 231360, Note_on_c, 13, 58, 105
8, 231492, Note_off_c, 13, 58, 64
8, 231600, Note_on_c, 13, 55, 105
8, 231732, Note_off_c, 13, 55, 64
8, 231840, Note_on_c, 13, 53, 105
8, 231972, Note_off_c, 13, 53, 64
8, 232080, Note_on_c, 13, 46, 105
8, 232212, Note_off_c, 13, 46, 64
8, 232320, Note_on_c, 13, 51, 105
8, 232452, Note_off_c, 13, 51, 64
8, 232560, Note_on_c, 13, 50, 105
8, 232692, Note_off_c, 13, 50, 64
8, 232800, Note_on_c, 13, 48, 105
8, 232932, Note_off_c, 13, 48, 64
8, 233040, Note_on_c, 13, 57, 105
8, 233172, Note_off_c, 13, 57, 64
8, 233280, Note_on_c, 13, 58, 105
8, 233412, Note_off_c, 13, 58, 64
8, 233520, Note_on_c, 13, 51, 105
8, 233652, Note_off_c, 13, 51, 64
8, 233760, Note_on_c, 13, 53, 105
8, 233892, Note_off_c, 13, 53, 64
8, 234000, Note_on_c, 13, 54, 105
8, 234132, Note_off_c, 13, 54, 64
8, 234240, Note_on_c, 13, 55, 105
8, 234372, Note_off_c, 13, 55, 64
8, 234480, Note_on_c, 13, 48, 105
8, 234612, Note_off_c, 13, 48, 64
8, 234720, Note_on_c, 13, 50, 105
8, 234852, Note_off_c, 13, 50, 64
8, 234960, Note_on_c, 13, 51, 105
8, 235092, Note_off_c, 13, 51, 64
8, 235200, Note_on_c, 13, 53, 105
8, 235332, Note_off_c, 13, 53, 64
8, 235440, Note_on_c, 13, 54, 105
8, 235572, Note_off_c, 13, 54, 64
8, 235680, Note_on_c, 13, 55, 105
8, 235812, Note_off_c, 13, 55, 64
8, 235920, Note_on_c, 13, 51, 105
8, 236052, Note_off_c, 13, 51, 64
8, 236160, Note_on_c, 13, 53, 105
8, 236316, Note_off_c, 13, 53, 64
8, 236400, Note_on_c, 13, 58, 105
8, 236478, Note_off_c, 13, 58, 64
8, 236520, Note_on_c, 13, 62, 105
8, 236598, Note_off_c, 13, 62, 64
8, 236640, Note_on_c, 13, 65, 105
8, 236796, Note_off_c, 13, 65, 64
8, 236880, Note_on_c, 13, 62, 105
8, 236958, Note_off_c, 13, 62, 64
8, 237000, Note_on_c, 13, 58, 105
8, 237078, Note_off_c, 13, 58, 64
8, 237120, Note_on_c, 13, 63, 105
8, 237252, Note_off_c, 13, 63, 64
8, 237360, Note_on_c, 13, 60, 105
8, 237492, Note_off_c, 13, 60, 64
8, 237600, Note_on_c, 13, 57, 105
8, 237732, Note_off_c, 13, 57, 64
8, 237840, Note_on_c, 13, 53, 105
8, 237972, Note_off_c, 13, 53, 64
8, 238080, Note_on_c, 13, 58, 105
8, 238236, Note_off_c, 13, 58, 64
8, 238560, Note_on_c, 13, 58, 58
8, 238752, Note_off_c, 13, 58, 64
8, 239040, Note_on_c, 13, 58, 58
8, 239232, Note_off_c, 13, 58, 64
8, 239520, Note_on_c, 13, 58, 58
8, 239712, Note_off_c, 13, 58, 64
8, 240000, Note_on_c, 13, 53, 58
8, 240192, Note_off_c, 13, 53, 64
8, 240480, Note_on_c, 13, 53, 58
8, 240672, Note_off_c, 13, 53, 64
8, 240960, Note_on_c, 13, 58, 58
8, 241152, Note_off_c, 13, 58, 64
8, 241440, Note_on_c, 13, 53, 58
8, 241632, Note_off_c, 13, 53, 64
8, 241920, Note_on_c, 13, 46, 105
8, 242064, Note_off_c, 13, 46, 64
8, 242160, Note_on_c, 13, 46, 105
8, 242232, Note_off_c, 13, 46, 64
8, 242280, Note_on_c, 13, 46, 105
8, 242352, Note_off_c, 13, 46, 64
8, 242400, Note_on_c, 13, 46, 105
8, 242544, Note_off_c, 13, 46, 64
8, 242640, Note_on_c, 13, 46, 105
8, 242712, Note_off_c, 13, 46, 64
8, 242760, Note_on_c, 13, 46, 105
8, 242832, Note_off_c, 13, 46, 64
8, 242880, Note_on_c, 13, 46, 105
8, 242952, Note_off_c, 13, 46, 64
8, 243000, Note_on_c, 13, 58, 105
8, 243072, Note_off_c, 13, 58, 64
8, 243120, Note_on_c, 13, 58, 105
8, 243192, Note_off_c, 13, 58, 64
8, 243240, Note_on_c, 13, 58, 105
8, 243312, Note_off_c, 13, 58, 64
8, 243360, Note_on_c, 13, 58, 105
8, 243432, Note_off_c, 13, 58, 64
8, 243480, Note_on_c, 13, 58, 105
8, 243552, Note_off_c, 13, 58, 64
8, 243600, Note_on_c, 13, 58, 105
8, 243672, Note_off_c, 13, 58, 64
8, 243720, Note_on_c, 13, 58, 105
8, 243792, Note_off_c, 13, 58, 64
8, 243840, Note_on_c, 13, 41, 105
8, 243912, Note_off_c, 13, 41, 64
8, 243960, Note_on_c, 13, 53, 105
8, 244032, Note_off_c, 13, 53, 64
8, 244080, Note_on_c, 13, 53, 105
8, 244152, Note_off_c, 13, 53, 64
8, 244200, Note_on_c, 13, 53, 105
8, 244272, Note_off_c, 13, 53, 64
8, 244320, Note_on_c, 13, 53, 105
8, 244392, Note_off_c, 13, 53, 64
8, 244440, Note_on_c, 13, 53, 105
8, 244512, Note_off_c, 13, 53, 64
8, 244560, Note_on_c, 13, 53, 105
8, 244632, Note_off_c, 13, 53, 64
8, 244680, Note_on_c, 13, 53, 105
8, 244752, Note_off_c, 13, 53, 64
8, 244800, Note_on_c, 13, 58, 105
8, 244872, Note_off_c, 13, 58, 64
8, 244920, Note_on_c, 13, 58, 105
8, 244992, Note_off_c, 13, 58, 64
8, 245040, Note_on_c, 13, 58, 105
8, 245112, Note_off_c, 13, 58, 64
8, 245160, Note_on_c, 13, 58, 105
8, 245232, Note_off_c, 13, 58, 64
8, 245280, Note_on_c, 13, 53, 105
8, 245352, Note_off_c, 13, 53, 64
8, 245400, Note_on_c, 13, 53, 105
8, 245472, Note_off_c, 13, 53, 64
8, 245520, Note_on_c, 13, 53, 105
8, 245592, Note_off_c, 13, 53, 64
8, 245640, Note_on_c, 13, 53, 105
8, 245712, Note_off_c, 13, 53, 64
8, 245760, Note_on_c, 13, 46, 105
8, 245952, Note_off_c, 13, 46, 64
8, 246480, Note_on_c, 13, 53, 105
8, 246612, Note_off_c, 13, 53, 64
8, 246720, Note_on_c, 13, 58, 105
8, 246852, Note_off_c, 13, 58, 64
8, 247440, Note_on_c, 13, 53, 105
8, 247572, Note_off_c, 13, 53, 64
8, 247680, Note_on_c, 13, 46, 105
8, 247812, Note_off_c, 13, 46, 64
8, 248400, Note_on_c, 13, 53, 105
8, 248532, Note_off_c, 13, 53, 64
8, 248640, Note_on_c, 13, 58, 105
8, 248772, Note_off_c, 13, 58, 64
8, 249360, Note_on_c, 13, 53, 105
8, 249492, Note_off_c, 13, 53, 64
8, 249600, Note_on_c, 13, 58, 92
8, 249652, Note_off_c, 13, 58, 64
8, 249680, Note_on_c, 13, 60, 92
8, 249732, Note_off_c, 13, 60, 64
8, 249760, Note_on_c, 13, 62, 92
8, 249812, Note_off_c, 13, 62, 64
8, 249840, Note_on_c, 13, 63, 92
8, 249892, Note_off_c, 13, 63, 64
8, 249920, Note_on_c, 13, 65, 92
8, 249972, Note_off_c, 13, 65, 64
8, 250000, Note_on_c, 13, 67, 92
8, 250052, Note_off_c, 13, 67, 64
8, 250080, Note_on_c, 13, 65, 92
8, 250132, Note_off_c, 13, 65, 64
8, 250160, Note_on_c, 13, 63, 92
8, 250212, Note_off_c, 13, 63, 64
8, 250240, Note_on_c, 13, 62, 92
8, 250292, Note_off_c, 13, 62, 64
8, 250320, Note_on_c, 13, 60, 92
8, 250372, Note_off_c, 13, 60, 64
8, 250400, Note_on_c, 13, 58, 92
8, 250452, Note_off_c, 13, 58, 64
8, 250480, Note_on_c, 13, 57, 92
8, 250532, Note_off_c, 13, 57, 64
8, 250560, Note_on_c, 13, 55, 92
8, 250612, Note_off_c, 13, 55, 64
8, 250640, Note_on_c, 13, 57, 92
8, 250692, Note_off_c, 13, 57, 64
8, 250720, Note_on_c, 13, 58, 92
8, 250772, Note_off_c, 13, 58, 64
8, 250800, Note_on_c, 13, 60, 92
8, 250852, Note_off_c, 13, 60, 64
8, 250880, Note_on_c, 13, 62, 92
8, 250932, Note_off_c, 13, 62, 64
8, 250960, Note_on_c, 13, 63, 92
8, 251012, Note_off_c, 13, 63, 64
8, 251040, Note_on_c, 13, 62, 92
8, 251092, Note_off_c, 13, 62, 64
8, 251120, Note_on_c, 13, 60, 92
8, 251172, Note_off_c, 13, 60, 64
8, 251200, Note_on_c, 13, 58, 92
8, 251252, Note_off_c, 13, 58, 64
8, 251280, Note_on_c, 13, 57, 92
8, 251332, Note_off_c, 13, 57, 64
8, 251360, Note_on_c, 13, 55, 92
8, 251412, Note_off_c, 13, 55, 64
8, 251440, Note_on_c, 13, 53, 92
8, 251492, Note_off_c, 13, 53, 64
8, 251520, Note_on_c, 13, 51, 92
8, 251637, Note_off_c, 13, 51, 64
8, 251700, Note_on_c, 13, 51, 92
8, 251739, Note_off_c, 13, 51, 64
8, 251760, Note_on_c, 13, 50, 92
8, 251877, Note_off_c, 13, 50, 64
8, 251940, Note_on_c, 13, 48, 92
8, 251979, Note_off_c, 13, 48, 64
8, 252000, Note_on_c, 13, 53, 92
8, 252156, Note_off_c, 13, 53, 64
8, 252240, Note_on_c, 13, 53, 92
8, 252396, Note_off_c, 13, 53, 64
8, 252480, Note_on_c, 13, 58, 92
8, 252636, Note_off_c, 13, 58, 64
8, 252720, Note_on_c, 13, 46, 105
8, 252772, Note_off_c, 13, 46, 64
8, 252800, Note_on_c, 13, 46, 105
8, 252852, Note_off_c, 13, 46, 64
8, 252880, Note_on_c, 13, 46, 105
8, 252932, Note_off_c, 13, 46, 64
8, 252960, Note_on_c, 13, 46, 105
8, 253012, Note_off_c, 13, 46, 64
8, 253040, Note_on_c, 13, 46, 105
8, 253092, Note_off_c, 13, 46, 64
8, 253120, Note_on_c, 13, 46, 105
8, 253172, Note_off_c, 13, 46, 64
8, 253200, Note_on_c, 13, 46, 105
8, 253252, Note_off_c, 13, 46, 64
8, 253280, Note_on_c, 13, 46, 105
8, 253332, Note_off_c, 13, 46, 64
8, 253360, Note_on_c, 13, 46, 105
8, 253412, Note_off_c, 13, 46, 64
8, 253440, Note_on_c, 13, 46, 105
8, 253572, Note_off_c, 13, 46, 64
8, 253680, Note_on_c, 13, 50, 105
8, 253812, Note_off_c, 13, 50, 64
8, 253920, Note_on_c, 13, 53, 105
8, 254052, Note_off_c, 13, 53, 64
8, 254400, Note_on_c, 13, 50, 58
8, 254532, Note_off_c, 13, 50, 64
8, 254640, Note_on_c, 13, 53, 58
8, 254772, Note_off_c, 13, 53, 64
8, 254880, Note_on_c, 13, 58, 58
8, 255012, Note_off_c, 13, 58, 64
8, 255360, Note_on_c, 13, 46, 105
8, 255492, Note_off_c, 13, 46, 64
8, 255600, Note_on_c, 13, 50, 105
8, 255732, Note_off_c, 13, 50, 64
8, 255840, Note_on_c, 13, 53, 105
8, 255972, Note_off_c, 13, 53, 64
8, 256080, Note_on_c, 13, 58, 105
8, 256212, Note_off_c, 13, 58, 64
8, 256320, Note_on_c, 13, 53, 105
8, 256452, Note_off_c, 13, 53, 64
8, 256560, Note_on_c, 13, 50, 105
8, 256692, Note_off_c, 13, 50, 64
8, 256800, Note_on_c, 13, 46, 105
8, 256932, Note_off_c, 13, 46, 64
8, 256932, End_track
9, 0, Start_track
9, 0, Program_c, 14, 43
9, 0, Control_c, 14, 7, 102
9, 0, Control_c, 14, 91, 90
9, 0, Control_c, 14, 10, 96
9, 480, Note_on_c, 14, 34, 105
9, 672, Note_off_c, 14, 34, 64
9, 2400, Note_on_c, 14, 41, 105
9, 2592, Note_off_c, 14, 41, 64
9, 4320, Note_on_c, 14, 34, 58
9, 4512, Note_off_c, 14, 34, 64
9, 5280, Note_on_c, 14, 34, 58
9, 5472, Note_off_c, 14, 34, 64
9, 5760, Note_on_c, 14, 41, 58
9, 5952, Note_off_c, 14, 41, 64
9, 6240, Note_on_c, 14, 46, 58
9, 6432, Note_off_c, 14, 46, 64
9, 8160, Note_on_c, 14, 34, 105
9, 8352, Note_off_c, 14, 34, 64
9, 10080, Note_on_c, 14, 41, 105
9, 10272, Note_off_c, 14, 41, 64
9, 12000, Note_on_c, 14, 34, 58
9, 12192, Note_off_c, 14, 34, 64
9, 12960, Note_on_c, 14, 34, 58
9, 13152, Note_off_c, 14, 34, 64
9, 13440, Note_on_c, 14, 41, 58
9, 13632, Note_off_c, 14, 41, 64
9, 13920, Note_on_c, 14, 46, 58
9, 14112, Note_off_c, 14, 46, 64
9, 14640, Note_on_c, 14, 39, 58
9, 14706, Note_off_c, 14, 39, 64
9, 14880, Note_on_c, 14, 41, 58
9, 14946, Note_off_c, 14, 41, 64
9, 15120, Note_on_c, 14, 29, 58
9, 15186, Note_off_c, 14, 29, 64
9, 15360, Note_on_c, 14, 34, 92
9, 15552, Note_off_c, 14, 34, 64
9, 15600, Note_on_c, 14, 34, 92
9, 15664, Note_off_c, 14, 34, 64
9, 15680, Note_on_c, 14, 34, 92
9, 15744, Note_off_c, 14, 34, 64
9, 15760, Note_on_c, 14, 34, 92
9, 15824, Note_off_c, 14, 34, 64
9, 15840, Note_on_c, 14, 34, 92
9, 15904, Note_off_c, 14, 34, 64
9, 15920, Note_on_c, 14, 34, 92
9, 15984, Note_off_c, 14, 34, 64
9, 16000, Note_on_c, 14, 34, 92
9, 16064, Note_off_c, 14, 34, 64
9, 16080, Note_on_c, 14, 34, 92
9, 16144, Note_off_c, 14, 34, 64
9, 16160, Note_on_c, 14, 34, 92
9, 16224, Note_off_c, 14, 34, 64
9, 16240, Note_on_c, 14, 34, 92
9, 16304, Note_off_c, 14, 34, 64
9, 16320, Note_on_c, 14, 34, 92
9, 16452, Note_off_c, 14, 34, 64
9, 16560, Note_on_c, 14, 38, 92
9, 16692, Note_off_c, 14, 38, 64
9, 16800, Note_on_c, 14, 41, 92
9, 16932, Note_off_c, 14, 41, 64
9, 17280, Note_on_c, 14, 38, 58
9, 17412, Note_off_c, 14, 38, 64
9, 17520, Note_on_c, 14, 41, 58
9, 17652, Note_off_c, 14, 41, 64
9, 17760, Note_on_c, 14, 46, 58
9, 17892, Note_off_c, 14, 46, 64
9, 18240, Note_on_c, 14, 34, 105
9, 18372, Note_off_c, 14, 34, 64
9, 18480, Note_on_c, 14, 38, 105
9, 18612, Note_off_c, 14, 38, 64
9, 18720, Note_on_c, 14, 41, 105
9, 18852, Note_off_c, 14, 41, 64
9, 18960, Note_on_c, 14, 46, 105
9, 19092, Note_off_c, 14, 46, 64
9, 19200, Note_on_c, 14, 41, 105
9, 19332, Note_off_c, 14, 41, 64
9, 19440, Note_on_c, 14, 38, 105
9, 19572, Note_off_c, 14, 38, 64
9, 19680, Note_on_c, 14, 34, 105
9, 19812, Note_off_c, 14, 34, 64
9, 27600, Note_on_c, 14, 33, 58
9, 27672, Note_off_c, 14, 33, 64
9, 27840, Note_on_c, 14, 34, 58
9, 27912, Note_off_c, 14, 34, 64
9, 28080, Note_on_c, 14, 37, 58
9, 28152, Note_off_c, 14, 37, 64
9, 28320, Note_on_c, 14, 38, 58
9, 28392, Note_off_c, 14, 38, 64
9, 28560, Note_on_c, 14, 43, 58
9, 28632, Note_off_c, 14, 43, 64
9, 28800, Note_on_c, 14, 46, 58
9, 29160, Note_off_c, 14, 46, 64
9, 29160, Note_on_c, 14, 48, 58
9, 29220, Note_off_c, 14, 48, 64
9, 29220, Note_on_c, 14, 46, 58
9, 29280, Note_off_c, 14, 46, 64
9, 29280, Note_on_c, 14, 43, 58
9, 29352, Note_off_c, 14, 43, 64
9, 29520, Note_on_c, 14, 33, 58
9, 29592, Note_off_c, 14, 33, 64
9, 29760, Note_on_c, 14, 34, 58
9, 29832, Note_off_c, 14, 34, 64
9, 30000, Note_on_c, 14, 37, 58
9, 30072, Note_off_c, 14, 37, 64
9, 30240, Note_on_c, 14, 38, 58
9, 30312, Note_off_c, 14, 38, 64
9, 30480, Note_on_c, 14, 43, 58
9, 30552, Note_off_c, 14, 43, 64
9, 30720, Note_on_c, 14, 46, 58
9, 31080, Note_off_c, 14, 46, 64
9, 31080, Note_on_c, 14, 48, 58
9, 31140, Note_off_c, 14, 48, 64
9, 31140, Note_on_c, 14, 46, 58
9, 31200, Note_off_c, 14, 46, 64
9, 31200, Note_on_c, 14, 43, 58
9, 31272, Note_off_c, 14, 43, 64
9, 31440, Note_on_c, 14, 33, 58
9, 31512, Note_off_c, 14, 33, 64
9, 31680, Note_on_c, 14, 34, 58
9, 31872, Note_off_c, 14, 34, 64
9, 33600, Note_on_c, 14, 48, 105
9, 33672, Note_off_c, 14, 48, 64
9, 33720, Note_on_c, 14, 47, 105
9, 33792, Note_off_c, 14, 47, 64
9, 33840, Note_on_c, 14, 48, 105
9, 33912, Note_off_c, 14, 48, 64
9, 33960, Note_on_c, 14, 47, 105
9, 34032, Note_off_c, 14, 47, 64
9, 34080, Note_on_c, 14, 46, 105
9, 34152, Note_off_c, 14, 46, 64
9, 34200, Note_on_c, 14, 45, 105
9, 34272, Note_off_c, 14, 45, 64
9, 34320, Note_on_c, 14, 46, 105
9, 34392, Note_off_c, 14, 46, 64
9, 34440, Note_on_c, 14, 45, 105
9, 34512, Note_off_c, 14, 45, 64
9, 34560, Note_on_c, 14, 43, 105
9, 34632, Note_off_c, 14, 43, 64
9, 34680, Note_on_c, 14, 42, 105
9, 34752, Note_off_c, 14, 42, 64
9, 34800, Note_on_c, 14, 43, 105
9, 34872, Note_off_c, 14, 43, 64
9, 34920, Note_on_c, 14, 41, 105
9, 34992, Note_off_c, 14, 41, 64
9, 35040, Note_on_c, 14, 40, 105
9, 35112, Note_off_c, 14, 40, 64
9, 35160, Note_on_c, 14, 39, 105
9, 35232, Note_off_c, 14, 39, 64
9, 35280, Note_on_c, 14, 40, 105
9, 35352, Note_off_c, 14, 40, 64
9, 35400, Note_on_c, 14, 38, 105
9, 35472, Note_off_c, 14, 38, 64
9, 35520, Note_on_c, 14, 36, 105
9, 35592, Note_off_c, 14, 36, 64
9, 35640, Note_on_c, 14, 48, 105
9, 35712, Note_off_c, 14, 48, 64
9, 35760, Note_on_c, 14, 48, 105
9, 35832, Note_off_c, 14, 48, 64
9, 35880, Note_on_c, 14, 48, 105
9, 35952, Note_off_c, 14, 48, 64
9, 36000, Note_on_c, 14, 36, 105
9, 36072, Note_off_c, 14, 36, 64
9, 36120, Note_on_c, 14, 48, 105
9, 36192, Note_off_c, 14, 48, 64
9, 36240, Note_on_c, 14, 48, 105
9, 36312, Note_off_c, 14, 48, 64
9, 36360, Note_on_c, 14, 48, 105
9, 36432, Note_off_c, 14, 48, 64
9, 36480, Note_on_c, 14, 48, 105
9, 36552, Note_off_c, 14, 48, 64
9, 36600, Note_on_c, 14, 48, 105
9, 36672, Note_off_c, 14, 48, 64
9, 36720, Note_on_c, 14, 48, 105
9, 36792, Note_off_c, 14, 48, 64
9, 36840, Note_on_c, 14, 48, 105
9, 36912, Note_off_c, 14, 48, 64
9, 36960, Note_on_c, 14, 48, 105
9, 37032, Note_off_c, 14, 48, 64
9, 37080, Note_on_c, 14, 48, 105
9, 37152, Note_off_c, 14, 48, 64
9, 37200, Note_on_c, 14, 48, 105
9, 37272, Note_off_c, 14, 48, 64
9, 37320, Note_on_c, 14, 48, 105
9, 37392, Note_off_c, 14, 48, 64
9, 37440, Note_on_c, 14, 48, 105
9, 37632, Note_off_c, 14, 48, 64
9, 40320, Note_on_c, 14, 41, 58
9, 40512, Note_off_c, 14, 41, 64
9, 40800, Note_on_c, 14, 29, 58
9, 40992, Note_off_c, 14, 29, 64
9, 41280, Note_on_c, 14, 36, 58
9, 41472, Note_off_c, 14, 36, 64
9, 42240, Note_on_c, 14, 48, 58
9, 42432, Note_off_c, 14, 48, 64
9, 42720, Note_on_c, 14, 36, 58
9, 42912, Note_off_c, 14, 36, 64
9, 43200, Note_on_c, 14, 41, 58
9, 43392, Note_off_c, 14, 41, 64
9, 43920, Note_on_c, 14, 45, 58
9, 44160, Note_off_c, 14, 45, 64
9, 44160, Note_on_c, 14, 46, 58
9, 44400, Note_off_c, 14, 46, 64
9, 44400, Note_on_c, 14, 45, 58
9, 44592, Note_off_c, 14, 45, 64
9, 44880, Note_on_c, 14, 45, 58
9, 45120, Note_off_c, 14, 45, 64
9, 45120, Note_on_c, 14, 43, 58
9, 45360, Note_off_c, 14, 43, 64
9, 45360, Note_on_c, 14, 41, 58
9, 45552, Note_off_c, 14, 41, 64
9, 45840, Note_on_c, 14, 45, 58
9, 46080, Note_off_c, 14, 45, 64
9, 46080, Note_on_c, 14, 46, 58
9, 46320, Note_off_c, 14, 46, 64
9, 46320, Note_on_c, 14, 47, 58
9, 46560, Note_off_c, 14, 47, 64
9, 46560, Note_on_c, 14, 48, 58
9, 46800, Note_off_c, 14, 48, 64
9, 46800, Note_on_c, 14, 49, 58
9, 47040, Note_off_c, 14, 49, 64
9, 47040, Note_on_c, 14, 48, 58
9, 47232, Note_off_c, 14, 48, 64
9, 48000, Note_on_c, 14, 41, 58
9, 48192, Note_off_c, 14, 41, 64
9, 48480, Note_on_c, 14, 29, 58
9, 48672, Note_off_c, 14, 29, 64
9, 48960, Note_on_c, 14, 36, 58
9, 49152, Note_off_c, 14, 36, 64
9, 49920, Note_on_c, 14, 48, 58
9, 50112, Note_off_c, 14, 48, 64
9, 50400, Note_on_c, 14, 36, 58
9, 50592, Note_off_c, 14, 36, 64
9, 50880, Note_on_c, 14, 41, 58
9, 51072, Note_off_c, 14, 41, 64
9, 51600, Note_on_c, 14, 45, 58
9, 51840, Note_off_c, 14, 45, 64
9, 51840, Note_on_c, 14, 46, 58
9, 52080, Note_off_c, 14, 46, 64
9, 52080, Note_on_c, 14, 45, 58
9, 52272, Note_off_c, 14, 45, 64
9, 52560, Note_on_c, 14, 41, 58
9, 52800, Note_off_c, 14, 41, 64
9, 52800, Note_on_c, 14, 40, 58
9, 53040, Note_off_c, 14, 40, 64
9, 53040, Note_on_c, 14, 41, 58
9, 53232, Note_off_c, 14, 41, 64
9, 53520, Note_on_c, 14, 45, 58
9, 53664, Note_off_c, 14, 45, 64
9, 53760, Note_on_c, 14, 46, 58
9, 54240, Note_off_c, 14, 46, 64
9, 54240, Note_on_c, 14, 48, 58
9, 54624, Note_off_c, 14, 48, 64
9, 54720, Note_on_c, 14, 41, 58
9, 54876, Note_off_c, 14, 41, 64
9, 54960, Note_on_c, 14, 45, 58
9, 55092, Note_off_c, 14, 45, 64
9, 55200, Note_on_c, 14, 43, 105
9, 55332, Note_off_c, 14, 43, 64
9, 55440, Note_on_c, 14, 36, 105
9, 55572, Note_off_c, 14, 36, 64
9, 55680, Note_on_c, 14, 41, 105
9, 55812, Note_off_c, 14, 41, 64
9, 55920, Note_on_c, 14, 50, 105
9, 56052, Note_off_c, 14, 50, 64
9, 56160, Note_on_c, 14, 48, 105
9, 56292, Note_off_c, 14, 48, 64
9, 56400, Note_on_c, 14, 41, 105
9, 56532, Note_off_c, 14, 41, 64
9, 56640, Note_on_c, 14, 46, 105
9, 56772, Note_off_c, 14, 46, 64
9, 56880, Note_on_c, 14, 45, 105
9, 57012, Note_off_c, 14, 45, 64
9, 57120, Note_on_c, 14, 43, 105
9, 57252, Note_off_c, 14, 43, 64
9, 57360, Note_on_c, 14, 40, 105
9, 57492, Note_off_c, 14, 40, 64
9, 57600, Note_on_c, 14, 41, 105
9, 57732, Note_off_c, 14, 41, 64
9, 57840, Note_on_c, 14, 50, 105
9, 57972, Note_off_c, 14, 50, 64
9, 58080, Note_on_c, 14, 46, 105
9, 58212, Note_off_c, 14, 46, 64
9, 58320, Note_on_c, 14, 48, 105
9, 58452, Note_off_c, 14, 48, 64
9, 58560, Note_on_c, 14, 41, 92
9, 58716, Note_off_c, 14, 41, 64
9, 58800, Note_on_c, 14, 45, 105
9, 58932, Note_off_c, 14, 45, 64
9, 59040, Note_on_c, 14, 43, 105
9, 59172, Note_off_c, 14, 43, 64
9, 59280, Note_on_c, 14, 36, 105
9, 59412, Note_off_c, 14, 36, 64
9, 59520, Note_on_c, 14, 41, 105
9, 59652, Note_off_c, 14, 41, 64
9, 59760, Note_on_c, 14, 50, 105
9, 59892, Note_off_c, 14, 50, 64
9, 60000, Note_on_c, 14, 48, 105
9, 60132, Note_off_c, 14, 48, 64
9, 60240, Note_on_c, 14, 41, 105
9, 60372, Note_off_c, 14, 41, 64
9, 60480, Note_on_c, 14, 46, 105
9, 60612, Note_off_c, 14, 46, 64
9, 60720, Note_on_c, 14, 45, 105
9, 60852, Note_off_c, 14, 45, 64
9, 60960, Note_on_c, 14, 43, 105
9, 61092, Note_off_c, 14, 43, 64
9, 61200, Note_on_c, 14, 40, 105
9, 61332, Note_off_c, 14, 40, 64
9, 61440, Note_on_c, 14, 41, 105
9, 61572, Note_off_c, 14, 41, 64
9, 61680, Note_on_c, 14, 50, 105
9, 61812, Note_off_c, 14, 50, 64
9, 61920, Note_on_c, 14, 46, 105
9, 62052, Note_off_c, 14, 46, 64
9, 62160, Note_on_c, 14, 48, 105
9, 62292, Note_off_c, 14, 48, 64
9, 62400, Note_on_c, 14, 41, 92
9, 62556, Note_off_c, 14, 41, 64
9, 62880, Note_on_c, 14, 41, 58
9, 63072, Note_off_c, 14, 41, 64
9, 63360, Note_on_c, 14, 41, 58
9, 63552, Note_off_c, 14, 41, 64
9, 63840, Note_on_c, 14, 41, 58
9, 64032, Note_off_c, 14, 41, 64
9, 64320, Note_on_c, 14, 36, 58
9, 64512, Note_off_c, 14, 36, 64
9, 64800, Note_on_c, 14, 36, 58
9, 64992, Note_off_c, 14, 36, 64
9, 65280, Note_on_c, 14, 41, 58
9, 65472, Note_off_c, 14, 41, 64
9, 65760, Note_on_c, 14, 36, 58
9, 65952, Note_off_c, 14, 36, 64
9, 66240, Note_on_c, 14, 41, 105
9, 66384, Note_off_c, 14, 41, 64
9, 66480, Note_on_c, 14, 41, 105
9, 66552, Note_off_c, 14, 41, 64
9, 66600, Note_on_c, 14, 41, 105
9, 66672, Note_off_c, 14, 41, 64
9, 66720, Note_on_c, 14, 41, 105
9, 66864, Note_off_c, 14, 41, 64
9, 66960, Note_on_c, 14, 41, 105
9, 67032, Note_off_c, 14, 41, 64
9, 67080, Note_on_c, 14, 41, 105
9, 67152, Note_off_c, 14, 41, 64
9, 67200, Note_on_c, 14, 41, 105
9, 67272, Note_off_c, 14, 41, 64
9, 67320, Note_on_c, 14, 41, 105
9, 67392, Note_off_c, 14, 41, 64
9, 67440, Note_on_c, 14, 41, 105
9, 67512, Note_off_c, 14, 41, 64
9, 67560, Note_on_c, 14, 41, 105
9, 67632, Note_off_c, 14, 41, 64
9, 67680, Note_on_c, 14, 41, 105
9, 67752, Note_off_c, 14, 41, 64
9, 67800, Note_on_c, 14, 41, 105
9, 67872, Note_off_c, 14, 41, 64
9, 67920, Note_on_c, 14, 41, 105
9, 67992, Note_off_c, 14, 41, 64
9, 68040, Note_on_c, 14, 41, 105
9, 68112, Note_off_c, 14, 41, 64
9, 68160, Note_on_c, 14, 36, 105
9, 68232, Note_off_c, 14, 36, 64
9, 68280, Note_on_c, 14, 36, 105
9, 68352, Note_off_c, 14, 36, 64
9, 68400, Note_on_c, 14, 36, 105
9, 68472, Note_off_c, 14, 36, 64
9, 68520, Note_on_c, 14, 36, 105
9, 68592, Note_off_c, 14, 36, 64
9, 68640, Note_on_c, 14, 36, 105
9, 68712, Note_off_c, 14, 36, 64
9, 68760, Note_on_c, 14, 36, 105
9, 68832, Note_off_c, 14, 36, 64
9, 68880, Note_on_c, 14, 36, 105
9, 68952, Note_off_c, 14, 36, 64
9, 69000, Note_on_c, 14, 36, 105
9, 69072, Note_off_c, 14, 36, 64
9, 69120, Note_on_c, 14, 41, 105
9, 69192, Note_off_c, 14, 41, 64
9, 69240, Note_on_c, 14, 41, 105
9, 69312, Note_off_c, 14, 41, 64
9, 69360, Note_on_c, 14, 41, 105
9, 69432, Note_off_c, 14, 41, 64
9, 69480, Note_on_c, 14, 41, 105
9, 69552, Note_off_c, 14, 41, 64
9, 69600, Note_on_c, 14, 48, 105
9, 69672, Note_off_c, 14, 48, 64
9, 69720, Note_on_c, 14, 48, 105
9, 69792, Note_off_c, 14, 48, 64
9, 69840, Note_on_c, 14, 36, 105
9, 69912, Note_off_c, 14, 36, 64
9, 69960, Note_on_c, 14, 36, 105
9, 70032, Note_off_c, 14, 36, 64
9, 70080, Note_on_c, 14, 41, 105
9, 70272, Note_off_c, 14, 41, 64
9, 70800, Note_on_c, 14, 36, 105
9, 70932, Note_off_c, 14, 36, 64
9, 71040, Note_on_c, 14, 41, 105
9, 71172, Note_off_c, 14, 41, 64
9, 71760, Note_on_c, 14, 48, 105
9, 71892, Note_off_c, 14, 48, 64
9, 72000, Note_on_c, 14, 41, 105
9, 72132, Note_off_c, 14, 41, 64
9, 72720, Note_on_c, 14, 36, 105
9, 72852, Note_off_c, 14, 36, 64
9, 72960, Note_on_c, 14, 41, 105
9, 73092, Note_off_c, 14, 41, 64
9, 73680, Note_on_c, 14, 48, 105
9, 73812, Note_off_c, 14, 48, 64
9, 73920, Note_on_c, 14, 41, 92
9, 73984, Note_off_c, 14, 41, 64
9, 74000, Note_on_c, 14, 43, 92
9, 74064, Note_off_c, 14, 43, 64
9, 74080, Note_on_c, 14, 45, 92
9, 74144, Note_off_c, 14, 45, 64
9, 74160, Note_on_c, 14, 46, 92
9, 74224, Note_off_c, 14, 46, 64
9, 74240, Note_on_c, 14, 48, 92
9, 74304, Note_off_c, 14, 48, 64
9, 74320, Note_on_c, 14, 50, 92
9, 74384, Note_off_c, 14, 50, 64
9, 74400, Note_on_c, 14, 48, 92
9, 74464, Note_off_c, 14, 48, 64
9, 74480, Note_on_c, 14, 46, 92
9, 74544, Note_off_c, 14, 46, 64
9, 74560, Note_on_c, 14, 45, 92
9, 74624, Note_off_c, 14, 45, 64
9, 74640, Note_on_c, 14, 43, 92
9, 74704, Note_off_c, 14, 43, 64
9, 74720, Note_on_c, 14, 41, 92
9, 74784, Note_off_c, 14, 41, 64
9, 74800, Note_on_c, 14, 40, 92
9, 74864, Note_off_c, 14, 40, 64
9, 74880, Note_on_c, 14, 38, 92
9, 74944, Note_off_c, 14, 38, 64
9, 74960, Note_on_c, 14, 40, 92
9, 75024, Note_off_c, 14, 40, 64
9, 75040, Note_on_c, 14, 41, 92
9, 75104, Note_off_c, 14, 41, 64
9, 75120, Note_on_c, 14, 43, 92
9, 75184, Note_off_c, 14, 43, 64
9, 75200, Note_on_c, 14, 45, 92
9, 75264, Note_off_c, 14, 45, 64
9, 75280, Note_on_c, 14, 46, 92
9, 75344, Note_off_c, 14, 46, 64
9, 75360, Note_on_c, 14, 45, 92
9, 75424, Note_off_c, 14, 45, 64
9, 75440, Note_on_c, 14, 43, 92
9, 75504, Note_off_c, 14, 43, 64
9, 75520, Note_on_c, 14, 41, 92
9, 75584, Note_off_c, 14, 41, 64
9, 75600, Note_on_c, 14, 40, 92
9, 75664, Note_off_c, 14, 40, 64
9, 75680, Note_on_c, 14, 38, 92
9, 75744, Note_off_c, 14, 38, 64
9, 75760, Note_on_c, 14, 36, 92
9, 75824, Note_off_c, 14, 36, 64
9, 75840, Note_on_c, 14, 34, 92
9, 75957, Note_off_c, 14, 34, 64
9, 76020, Note_on_c, 14, 46, 92
9, 76059, Note_off_c, 14, 46, 64
9, 76080, Note_on_c, 14, 45, 92
9, 76197, Note_off_c, 14, 45, 64
9, 76260, Note_on_c, 14, 43, 92
9, 76299, Note_off_c, 14, 43, 64
9, 76320, Note_on_c, 14, 48, 92
9, 76476, Note_off_c, 14, 48, 64
9, 76560, Note_on_c, 14, 36, 92
9, 76716, Note_off_c, 14, 36, 64
9, 76800, Note_on_c, 14, 41, 92
9, 76956, Note_off_c, 14, 41, 64
9, 77040, Note_on_c, 14, 41, 92
9, 77196, Note_off_c, 14, 41, 64
9, 77280, Note_on_c, 14, 41, 92
9, 77472, Note_off_c, 14, 41, 64
9, 77760, Note_on_c, 14, 34, 105
9, 77952, Note_off_c, 14, 34, 64
9, 79680, Note_on_c, 14, 41, 105
9, 79872, Note_off_c, 14, 41, 64
9, 81600, Note_on_c, 14, 34, 58
9, 81792, Note_off_c, 14, 34, 64
9, 82560, Note_on_c, 14, 34, 58
9, 82752, Note_off_c, 14, 34, 64
9, 83040, Note_on_c, 14, 41, 58
9, 83232, Note_off_c, 14, 41, 64
9, 83520, Note_on_c, 14, 46, 58
9, 83712, Note_off_c, 14, 46, 64
9, 85440, Note_on_c, 14, 34, 105
9, 85632, Note_off_c, 14, 34, 64
9, 87360, Note_on_c, 14, 41, 105
9, 87552, Note_off_c, 14, 41, 64
9, 89280, Note_on_c, 14, 34, 58
9, 89472, Note_off_c, 14, 34, 64
9, 90240, Note_on_c, 14, 34, 58
9, 90432, Note_off_c, 14, 34, 64
9, 90720, Note_on_c, 14, 41, 58
9, 90912, Note_off_c, 14, 41, 64
9, 91200, Note_on_c, 14, 46, 58
9, 91392, Note_off_c, 14, 46, 64
9, 91920, Note_on_c, 14, 39, 58
9, 91986, Note_off_c, 14, 39, 64
9, 92160, Note_on_c, 14, 41, 58
9, 92226, Note_off_c, 14, 41, 64
9, 92400, Note_on_c, 14, 29, 58
9, 92466, Note_off_c, 14, 29, 64
9, 92640, Note_on_c, 14, 34, 92
9, 92832, Note_off_c, 14, 34, 64
9, 92880, Note_on_c, 14, 34, 92
9, 92944, Note_off_c, 14, 34, 64
9, 92960, Note_on_c, 14, 34, 92
9, 93024, Note_off_c, 14, 34, 64
9, 93040, Note_on_c, 14, 34, 92
9, 93104, Note_off_c, 14, 34, 64
9, 93120, Note_on_c, 14, 34, 92
9, 93184, Note_off_c, 14, 34, 64
9, 93200, Note_on_c, 14, 34, 92
9, 93264, Note_off_c, 14, 34, 64
9, 93280, Note_on_c, 14, 34, 92
9, 93344, Note_off_c, 14, 34, 64
9, 93360, Note_on_c, 14, 34, 92
9, 93424, Note_off_c, 14, 34, 64
9, 93440, Note_on_c, 14, 34, 92
9, 93504, Note_off_c, 14, 34, 64
9, 93520, Note_on_c, 14, 34, 92
9, 93584, Note_off_c, 14, 34, 64
9, 93600, Note_on_c, 14, 34, 92
9, 93732, Note_off_c, 14, 34, 64
9, 93840, Note_on_c, 14, 38, 92
9, 93972, Note_off_c, 14, 38, 64
9, 94080, Note_on_c, 14, 41, 92
9, 94212, Note_off_c, 14, 41, 64
9, 94560, Note_on_c, 14, 38, 58
9, 94692, Note_off_c, 14, 38, 64
9, 94800, Note_on_c, 14, 41, 58
9, 94932, Note_off_c, 14, 41, 64
9, 95040, Note_on_c, 14, 46, 58
9, 95172, Note_off_c, 14, 46, 64
9, 95520, Note_on_c, 14, 34, 105
9, 95652, Note_off_c, 14, 34, 64
9, 95760, Note_on_c, 14, 38, 105
9, 95892, Note_off_c, 14, 38, 64
9, 96000, Note_on_c, 14, 41, 105
9, 96132, Note_off_c, 14, 41, 64
9, 96240, Note_on_c, 14, 46, 105
9, 96372, Note_off_c, 14, 46, 64
9, 96480, Note_on_c, 14, 41, 105
9, 96612, Note_off_c, 14, 41, 64
9, 96720, Note_on_c, 14, 38, 105
9, 96852, Note_off_c, 14, 38, 64
9, 96960, Note_on_c, 14, 34, 105
9, 97092, Note_off_c, 14, 34, 64
9, 104880, Note_on_c, 14, 33, 58
9, 104952, Note_off_c, 14, 33, 64
9, 105120, Note_on_c, 14, 34, 58
9, 105192, Note_off_c, 14, 34, 64
9, 105360, Note_on_c, 14, 37, 58
9, 105432, Note_off_c, 14, 37, 64
9, 105600, Note_on_c, 14, 38, 58
9, 105672, Note_off_c, 14, 38, 64
9, 105840, Note_on_c, 14, 43, 58
9, 105912, Note_off_c, 14, 43, 64
9, 106080, Note_on_c, 14, 46, 58
9, 106440, Note_off_c, 14, 46, 64
9, 106440, Note_on_c, 14, 48, 58
9, 106500, Note_off_c, 14, 48, 64
9, 106500, Note_on_c, 14, 46, 58
9, 106560, Note_off_c, 14, 46, 64
9, 106560, Note_on_c, 14, 43, 58
9, 106632, Note_off_c, 14, 43, 64
9, 106800, Note_on_c, 14, 33, 58
9, 106872, Note_off_c, 14, 33, 64
9, 107040, Note_on_c, 14, 34, 58
9, 107112, Note_off_c, 14, 34, 64
9, 107280, Note_on_c, 14, 37, 58
9, 107352, Note_off_c, 14, 37, 64
9, 107520, Note_on_c, 14, 38, 58
9, 107592, Note_off_c, 14, 38, 64
9, 107760, Note_on_c, 14, 43, 58
9, 107832, Note_off_c, 14, 43, 64
9, 108000, Note_on_c, 14, 46, 58
9, 108360, Note_off_c, 14, 46, 64
9, 108360, Note_on_c, 14, 48, 58
9, 108420, Note_off_c, 14, 48, 64
9, 108420, Note_on_c, 14, 46, 58
9, 108480, Note_off_c, 14, 46, 64
9, 108480, Note_on_c, 14, 43, 58
9, 108552, Note_off_c, 14, 43, 64
9, 108720, Note_on_c, 14, 33, 58
9, 108792, Note_off_c, 14, 33, 64
9, 108960, Note_on_c, 14, 34, 58
9, 109152, Note_off_c, 14, 34, 64
9, 110880, Note_on_c, 14, 48, 105
9, 110952, Note_off_c, 14, 48, 64
9, 111000, Note_on_c, 14, 47, 105
9, 111072, Note_off_c, 14, 47, 64
9, 111120, Note_on_c, 14, 48, 105
9, 111192, Note_off_c, 14, 48, 64
9, 111240, Note_on_c, 14, 47, 105
9, 111312, Note_off_c, 14, 47, 64
9, 111360, Note_on_c, 14, 46, 105
9, 111432, Note_off_c, 14, 46, 64
9, 111480, Note_on_c, 14, 45, 105
9, 111552, Note_off_c, 14, 45, 64
9, 111600, Note_on_c, 14, 46, 105
9, 111672, Note_off_c, 14, 46, 64
9, 111720, Note_on_c, 14, 45, 105
9, 111792, Note_off_c, 14, 45, 64
9, 111840, Note_on_c, 14, 43, 105
9, 111912, Note_off_c, 14, 43, 64
9, 111960, Note_on_c, 14, 42, 105
9, 112032, Note_off_c, 14, 42, 64
9, 112080, Note_on_c, 14, 43, 105
9, 112152, Note_off_c, 14, 43, 64
9, 112200, Note_on_c, 14, 41, 105
9, 112272, Note_off_c, 14, 41, 64
9, 112320, Note_on_c, 14, 40, 105
9, 112392, Note_off_c, 14, 40, 64
9, 112440, Note_on_c, 14, 39, 105
9, 112512, Note_off_c, 14, 39, 64
9, 112560, Note_on_c, 14, 40, 105
9, 112632, Note_off_c, 14, 40, 64
9, 112680, Note_on_c, 14, 38, 105
9, 112752, Note_off_c, 14, 38, 64
9, 112800, Note_on_c, 14, 36, 105
9, 112872, Note_off_c, 14, 36, 64
9, 112920, Note_on_c, 14, 48, 105
9, 112992, Note_off_c, 14, 48, 64
9, 113040, Note_on_c, 14, 48, 105
9, 113112, Note_off_c, 14, 48, 64
9, 113160, Note_on_c, 14, 48, 105
9, 113232, Note_off_c, 14, 48, 64
9, 113280, Note_on_c, 14, 36, 105
9, 113352, Note_off_c, 14, 36, 64
9, 113400, Note_on_c, 14, 48, 105
9, 113472, Note_off_c, 14, 48, 64
9, 113520, Note_on_c, 14, 48, 105
9, 113592, Note_off_c, 14, 48, 64
9, 113640, Note_on_c, 14, 48, 105
9, 113712, Note_off_c, 14, 48, 64
9, 113760, Note_on_c, 14, 48, 105
9, 113832, Note_off_c, 14, 48, 64
9, 113880, Note_on_c, 14, 48, 105
9, 113952, Note_off_c, 14, 48, 64
9, 114000, Note_on_c, 14, 48, 105
9, 114072, Note_off_c, 14, 48, 64
9, 114120, Note_on_c, 14, 48, 105
9, 114192, Note_off_c, 14, 48, 64
9, 114240, Note_on_c, 14, 48, 105
9, 114312, Note_off_c, 14, 48, 64
9, 114360, Note_on_c, 14, 48, 105
9, 114432, Note_off_c, 14, 48, 64
9, 114480, Note_on_c, 14, 48, 105
9, 114552, Note_off_c, 14, 48, 64
9, 114600, Note_on_c, 14, 48, 105
9, 114672, Note_off_c, 14, 48, 64
9, 114720, Note_on_c, 14, 48, 105
9, 114912, Note_off_c, 14, 48, 64
9, 117600, Note_on_c, 14, 41, 58
9, 117792, Note_off_c, 14, 41, 64
9, 118080, Note_on_c, 14, 29, 58
9, 118272, Note_off_c, 14, 29, 64
9, 118560, Note_on_c, 14, 36, 58
9, 118752, Note_off_c, 14, 36, 64
9, 119520, Note_on_c, 14, 48, 58
9, 119712, Note_off_c, 14, 48, 64
9, 120000, Note_on_c, 14, 36, 58
9, 120192, Note_off_c, 14, 36, 64
9, 120480, Note_on_c, 14, 41, 58
9, 120672, Note_off_c, 14, 41, 64
9, 121200, Note_on_c, 14, 45, 58
9, 121440, Note_off_c, 14, 45, 64
9, 121440, Note_on_c, 14, 46, 58
9, 121680, Note_off_c, 14, 46, 64
9, 121680, Note_on_c, 14, 45, 58
9, 121872, Note_off_c, 14, 45, 64
9, 122160, Note_on_c, 14, 45, 58
9, 122400, Note_off_c, 14, 45, 64
9, 122400, Note_on_c, 14, 43, 58
9, 122640, Note_off_c, 14, 43, 64
9, 122640, Note_on_c, 14, 41, 58
9, 122832, Note_off_c, 14, 41, 64
9, 123120, Note_on_c, 14, 45, 58
9, 123360, Note_off_c, 14, 45, 64
9, 123360, Note_on_c, 14, 46, 58
9, 123600, Note_off_c, 14, 46, 64
9, 123600, Note_on_c, 14, 47, 58
9, 123840, Note_off_c, 14, 47, 64
9, 123840, Note_on_c, 14, 48, 58
9, 124080, Note_off_c, 14, 48, 64
9, 124080, Note_on_c, 14, 49, 58
9, 124320, Note_off_c, 14, 49, 64
9, 124320, Note_on_c, 14, 48, 58
9, 124512, Note_off_c, 14, 48, 64
9, 125280, Note_on_c, 14, 41, 58
9, 125472, Note_off_c, 14, 41, 64
9, 125760, Note_on_c, 14, 29, 58
9, 125952, Note_off_c, 14, 29, 64
9, 126240, Note_on_c, 14, 36, 58
9, 126432, Note_off_c, 14, 36, 64
9, 127200, Note_on_c, 14, 48, 58
9, 127392, Note_off_c, 14, 48, 64
9, 127680, Note_on_c, 14, 36, 58
9, 127872, Note_off_c, 14, 36, 64
9, 128160, Note_on_c, 14, 41, 58
9, 128352, Note_off_c, 14, 41, 64
9, 128880, Note_on_c, 14, 45, 58
9, 129120, Note_off_c, 14, 45, 64
9, 129120, Note_on_c, 14, 46, 58
9, 129360, Note_off_c, 14, 46, 64
9, 129360, Note_on_c, 14, 45, 58
9, 129552, Note_off_c, 14, 45, 64
9, 129840, Note_on_c, 14, 41, 58
9, 130080, Note_off_c, 14, 41, 64
9, 130080, Note_on_c, 14, 40, 58
9, 130320, Note_off_c, 14, 40, 64
9, 130320, Note_on_c, 14, 41, 58
9, 130512, Note_off_c, 14, 41, 64
9, 130800, Note_on_c, 14, 45, 58
9, 130944, Note_off_c, 14, 45, 64
9, 131040, Note_on_c, 14, 46, 58
9, 131520, Note_off_c, 14, 46, 64
9, 131520, Note_on_c, 14, 48, 58
9, 131904, Note_off_c, 14, 48, 64
9, 132000, Note_on_c, 14, 41, 58
9, 132156, Note_off_c, 14, 41, 64
9, 132240, Note_on_c, 14, 45, 58
9, 132372, Note_off_c, 14, 45, 64
9, 132480, Note_on_c, 14, 43, 105
9, 132612, Note_off_c, 14, 43, 64
9, 132720, Note_on_c, 14, 36, 105
9, 132852, Note_off_c, 14, 36, 64
9, 132960, Note_on_c, 14, 41, 105
9, 133092, Note_off_c, 14, 41, 64
9, 133200, Note_on_c, 14, 50, 105
9, 133332, Note_off_c, 14, 50, 64
9, 133440, Note_on_c, 14, 48, 105
9, 133572, Note_off_c, 14, 48, 64
9, 133680, Note_on_c, 14, 41, 105
9, 133812, Note_off_c, 14, 41, 64
9, 133920, Note_on_c, 14, 46, 105
9, 134052, Note_off_c, 14, 46, 64
9, 134160, Note_on_c, 14, 45, 105
9, 134292, Note_off_c, 14, 45, 64
9, 134400, Note_on_c, 14, 43, 105
9, 134532, Note_off_c, 14, 43, 64
9, 134640, Note_on_c, 14, 40, 105
9, 134772, Note_off_c, 14, 40, 64
9, 134880, Note_on_c, 14, 41, 105
9, 135012, Note_off_c, 14, 41, 64
9, 135120, Note_on_c, 14, 50, 105
9, 135252, Note_off_c, 14, 50, 64
9, 135360, Note_on_c, 14, 46, 105
9, 135492, Note_off_c, 14, 46, 64
9, 135600, Note_on_c, 14, 48, 105
9, 135732, Note_off_c, 14, 48, 64
9, 135840, Note_on_c, 14, 41, 92
9, 135996, Note_off_c, 14, 41, 64
9, 136080, Note_on_c, 14, 45, 105
9, 136212, Note_off_c, 14, 45, 64
9, 136320, Note_on_c, 14, 43, 105
9, 136452, Note_off_c, 14, 43, 64
9, 136560, Note_on_c, 14, 36, 105
9, 136692, Note_off_c, 14, 36, 64
9, 136800, Note_on_c, 14, 41, 105
9, 136932, Note_off_c, 14, 41, 64
9, 137040, Note_on_c, 14, 50, 105
9, 137172, Note_off_c, 14, 50, 64
9, 137280, Note_on_c, 14, 48, 105
9, 137412, Note_off_c, 14, 48, 64
9, 137520, Note_on_c, 14, 41, 105
9, 137652, Note_off_c, 14, 41, 64
9, 137760, Note_on_c, 14, 46, 105
9, 137892, Note_off_c, 14, 46, 64
9, 138000, Note_on_c, 14, 45, 105
9, 138132, Note_off_c, 14, 45, 64
9, 138240, Note_on_c, 14, 43, 105
9, 138372, Note_off_c, 14, 43, 64
9, 138480, Note_on_c, 14, 40, 105
9, 138612, Note_off_c, 14, 40, 64
9, 138720, Note_on_c, 14, 41, 105
9, 138852, Note_off_c, 14, 41, 64
9, 138960, Note_on_c, 14, 50, 105
9, 139092, Note_off_c, 14, 50, 64
9, 139200, Note_on_c, 14, 46, 105
9, 139332, Note_off_c, 14, 46, 64
9, 139440, Note_on_c, 14, 48, 105
9, 139572, Note_off_c, 14, 48, 64
9, 139680, Note_on_c, 14, 41, 92
9, 139836, Note_off_c, 14, 41, 64
9, 140160, Note_on_c, 14, 41, 58
9, 140352, Note_off_c, 14, 41, 64
9, 140640, Note_on_c, 14, 41, 58
9, 140832, Note_off_c, 14, 41, 64
9, 141120, Note_on_c, 14, 41, 58
9, 141312, Note_off_c, 14, 41, 64
9, 141600, Note_on_c, 14, 36, 58
9, 141792, Note_off_c, 14, 36, 64
9, 142080, Note_on_c, 14, 36, 58
9, 142272, Note_off_c, 14, 36, 64
9, 142560, Note_on_c, 14, 41, 58
9, 142752, Note_off_c, 14, 41, 64
9, 143040, Note_on_c, 14, 36, 58
9, 143232, Note_off_c, 14, 36, 64
9, 143520, Note_on_c, 14, 41, 105
9, 143664, Note_off_c, 14, 41, 64
9, 143760, Note_on_c, 14, 41, 105
9, 143832, Note_off_c, 14, 41, 64
9, 143880, Note_on_c, 14, 41, 105
9, 143952, Note_off_c, 14, 41, 64
9, 144000, Note_on_c, 14, 41, 105
9, 144144, Note_off_c, 14, 41, 64
9, 144240, Note_on_c, 14, 41, 105
9, 144312, Note_off_c, 14, 41, 64
9, 144360, Note_on_c, 14, 41, 105
9, 144432, Note_off_c, 14, 41, 64
9, 144480, Note_on_c, 14, 41, 105
9, 144552, Note_off_c, 14, 41, 64
9, 144600, Note_on_c, 14, 41, 105
9, 144672, Note_off_c, 14, 41, 64
9, 144720, Note_on_c, 14, 41, 105
9, 144792, Note_off_c, 14, 41, 64
9, 144840, Note_on_c, 14, 41, 105
9, 144912, Note_off_c, 14, 41, 64
9, 144960, Note_on_c, 14, 41, 105
9, 145032, Note_off_c, 14, 41, 64
9, 145080, Note_on_c, 14, 41, 105
9, 145152, Note_off_c, 14, 41, 64
9, 145200, Note_on_c, 14, 41, 105
9, 145272, Note_off_c, 14, 41, 64
9, 145320, Note_on_c, 14, 41, 105
9, 145392, Note_off_c, 14, 41, 64
9, 145440, Note_on_c, 14, 36, 105
9, 145512, Note_off_c, 14, 36, 64
9, 145560, Note_on_c, 14, 36, 105
9, 145632, Note_off_c, 14, 36, 64
9, 145680, Note_on_c, 14, 36, 105
9, 145752, Note_off_c, 14, 36, 64
9, 145800, Note_on_c, 14, 36, 105
9, 145872, Note_off_c, 14, 36, 64
9, 145920, Note_on_c, 14, 36, 105
9, 145992, Note_off_c, 14, 36, 64
9, 146040, Note_on_c, 14, 36, 105
9, 146112, Note_off_c, 14, 36, 64
9, 146160, Note_on_c, 14, 36, 105
9, 146232, Note_off_c, 14, 36, 64
9, 146280, Note_on_c, 14, 36, 105
9, 146352, Note_off_c, 14, 36, 64
9, 146400, Note_on_c, 14, 41, 105
9, 146472, Note_off_c, 14, 41, 64
9, 146520, Note_on_c, 14, 41, 105
9, 146592, Note_off_c, 14, 41, 64
9, 146640, Note_on_c, 14, 41, 105
9, 146712, Note_off_c, 14, 41, 64
9, 146760, Note_on_c, 14, 41, 105
9, 146832, Note_off_c, 14, 41, 64
9, 146880, Note_on_c, 14, 48, 105
9, 146952, Note_off_c, 14, 48, 64
9, 147000, Note_on_c, 14, 48, 105
9, 147072, Note_off_c, 14, 48, 64
9, 147120, Note_on_c, 14, 36, 105
9, 147192, Note_off_c, 14, 36, 64
9, 147240, Note_on_c, 14, 36, 105
9, 147312, Note_off_c, 14, 36, 64
9, 147360, Note_on_c, 14, 41, 105
9, 147552, Note_off_c, 14, 41, 64
9, 148080, Note_on_c, 14, 36, 105
9, 148212, Note_off_c, 14, 36, 64
9, 148320, Note_on_c, 14, 41, 105
9, 148452, Note_off_c, 14, 41, 64
9, 149040, Note_on_c, 14, 48, 105
9, 149172, Note_off_c, 14, 48, 64
9, 149280, Note_on_c, 14, 41, 105
9, 149412, Note_off_c, 14, 41, 64
9, 150000, Note_on_c, 14, 36, 105
9, 150132, Note_off_c, 14, 36, 64
9, 150240, Note_on_c, 14, 41, 105
9, 150372, Note_off_c, 14, 41, 64
9, 150960, Note_on_c, 14, 48, 105
9, 151092, Note_off_c, 14, 48, 64
9, 151200, Note_on_c, 14, 41, 92
9, 151264, Note_off_c, 14, 41, 64
9, 151280, Note_on_c, 14, 43, 92
9, 151344, Note_off_c, 14, 43, 64
9, 151360, Note_on_c, 14, 45, 92
9, 151424, Note_off_c, 14, 45, 64
9, 151440, Note_on_c, 14, 46, 92
9, 151504, Note_off_c, 14, 46, 64
9, 151520, Note_on_c, 14, 48, 92
9, 151584, Note_off_c, 14, 48, 64
9, 151600, Note_on_c, 14, 50, 92
9, 151664, Note_off_c, 14, 50, 64
9, 151680, Note_on_c, 14, 48, 92
9, 151744, Note_off_c, 14, 48, 64
9, 151760, Note_on_c, 14, 46, 92
9, 151824, Note_off_c, 14, 46, 64
9, 151840, Note_on_c, 14, 45, 92
9, 151904, Note_off_c, 14, 45, 64
9, 151920, Note_on_c, 14, 43, 92
9, 151984, Note_off_c, 14, 43, 64
9, 152000, Note_on_c, 14, 41, 92
9, 152064, Note_off_c, 14, 41, 64
9, 152080, Note_on_c, 14, 40, 92
9, 152144, Note_off_c, 14, 40, 64
9, 152160, Note_on_c, 14, 38, 92
9, 152224, Note_off_c, 14, 38, 64
9, 152240, Note_on_c, 14, 40, 92
9, 152304, Note_off_c, 14, 40, 64
9, 152320, Note_on_c, 14, 41, 92
9, 152384, Note_off_c, 14, 41, 64
9, 152400, Note_on_c, 14, 43, 92
9, 152464, Note_off_c, 14, 43, 64
9, 152480, Note_on_c, 14, 45, 92
9, 152544, Note_off_c, 14, 45, 64
9, 152560, Note_on_c, 14, 46, 92
9, 152624, Note_off_c, 14, 46, 64
9, 152640, Note_on_c, 14, 45, 92
9, 152704, Note_off_c, 14, 45, 64
9, 152720, Note_on_c, 14, 43, 92
9, 152784, Note_off_c, 14, 43, 64
9, 152800, Note_on_c, 14, 41, 92
9, 152864, Note_off_c, 14, 41, 64
9, 152880, Note_on_c, 14, 40, 92
9, 152944, Note_off_c, 14, 40, 64
9, 152960, Note_on_c, 14, 38, 92
9, 153024, Note_off_c, 14, 38, 64
9, 153040, Note_on_c, 14, 36, 92
9, 153104, Note_off_c, 14, 36, 64
9, 153120, Note_on_c, 14, 34, 92
9, 153237, Note_off_c, 14, 34, 64
9, 153300, Note_on_c, 14, 46, 92
9, 153339, Note_off_c, 14, 46, 64
9, 153360, Note_on_c, 14, 45, 92
9, 153477, Note_off_c, 14, 45, 64
9, 153540, Note_on_c, 14, 43, 92
9, 153579, Note_off_c, 14, 43, 64
9, 153600, Note_on_c, 14, 48, 92
9, 153756, Note_off_c, 14, 48, 64
9, 153840, Note_on_c, 14, 36, 92
9, 153996, Note_off_c, 14, 36, 64
9, 154080, Note_on_c, 14, 41, 92
9, 154236, Note_off_c, 14, 41, 64
9, 154320, Note_on_c, 14, 41, 92
9, 154476, Note_off_c, 14, 41, 64
9, 154560, Note_on_c, 14, 41, 92
9, 154752, Note_off_c, 14, 41, 64
9, 159840, Note_on_c, 14, 41, 58
9, 160320, Note_off_c, 14, 41, 64
9, 160320, Note_on_c, 14, 38, 58
9, 160776, Note_off_c, 14, 38, 64
9, 160800, Note_on_c, 14, 34, 58
9, 161280, Note_off_c, 14, 34, 64
9, 161280, Note_on_c, 14, 36, 58
9, 161760, Note_off_c, 14, 36, 64
9, 161760, Note_on_c, 14, 33, 58
9, 162240, Note_off_c, 14, 33, 64
9, 162240, Note_on_c, 14, 34, 58
9, 162696, Note_off_c, 14, 34, 64
9, 162720, Note_on_c, 14, 31, 58
9, 163200, Note_off_c, 14, 31, 64
9, 163200, Note_on_c, 14, 33, 58
9, 163656, Note_off_c, 14, 33, 64
9, 163680, Note_on_c, 14, 38, 58
9, 163872, Note_off_c, 14, 38, 64
9, 175200, Note_on_c, 14, 41, 105
9, 175584, Note_off_c, 14, 41, 64
9, 175680, Note_on_c, 14, 36, 105
9, 176064, Note_off_c, 14, 36, 64
9, 176160, Note_on_c, 14, 34, 105
9, 176400, Note_off_c, 14, 34, 64
9, 176400, Note_on_c, 14, 33, 105
9, 176592, Note_off_c, 14, 33, 64
9, 176640, Note_on_c, 14, 38, 105
9, 176880, Note_off_c, 14, 38, 64
9, 176880, Note_on_c, 14, 36, 105
9, 177072, Note_off_c, 14, 36, 64
9, 177120, Note_on_c, 14, 41, 105
9, 177360, Note_off_c, 14, 41, 64
9, 177360, Note_on_c, 14, 40, 105
9, 177552, Note_off_c, 14, 40, 64
9, 177600, Note_on_c, 14, 46, 105
9, 177840, Note_off_c, 14, 46, 64
9, 177840, Note_on_c, 14, 45, 105
9, 178032, Note_off_c, 14, 45, 64
9, 178080, Note_on_c, 14, 51, 105
9, 178368, Note_off_c, 14, 51, 64
9, 178440, Note_on_c, 14, 50, 105
9, 178518, Note_off_c, 14, 50, 64
9, 178560, Note_on_c, 14, 48, 105
9, 178638, Note_off_c, 14, 48, 64
9, 178680, Note_on_c, 14, 46, 105
9, 178758, Note_off_c, 14, 46, 64
9, 178800, Note_on_c, 14, 45, 105
9, 178878, Note_off_c, 14, 45, 64
9, 178920, Note_on_c, 14, 43, 105
9, 178998, Note_off_c, 14, 43, 64
9, 179040, Note_on_c, 14, 41, 105
9, 179118, Note_off_c, 14, 41, 64
9, 179160, Note_on_c, 14, 40, 105
9, 179238, Note_off_c, 14, 40, 64
9, 179280, Note_on_c, 14, 41, 105
9, 179358, Note_off_c, 14, 41, 64
9, 179400, Note_on_c, 14, 43, 105
9, 179478, Note_off_c, 14, 43, 64
9, 179520, Note_on_c, 14, 41, 105
9, 179598, Note_off_c, 14, 41, 64
9, 179640, Note_on_c, 14, 39, 105
9, 179718, Note_off_c, 14, 39, 64
9, 179760, Note_on_c, 14, 38, 105
9, 179838, Note_off_c, 14, 38, 64
9, 179880, Note_on_c, 14, 36, 105
9, 179958, Note_off_c, 14, 36, 64
9, 180000, Note_on_c, 14, 34, 105
9, 180192, Note_off_c, 14, 34, 64
9, 181920, Note_on_c, 14, 41, 105
9, 182112, Note_off_c, 14, 41, 64
9, 183840, Note_on_c, 14, 34, 58
9, 184032, Note_off_c, 14, 34, 64
9, 184800, Note_on_c, 14, 34, 58
9, 184992, Note_off_c, 14, 34, 64
9, 185280, Note_on_c, 14, 41, 58
9, 185472, Note_off_c, 14, 41, 64
9, 185760, Note_on_c, 14, 46, 58
9, 185952, Note_off_c, 14, 46, 64
9, 186480, Note_on_c, 14, 39, 58
9, 186546, Note_off_c, 14, 39, 64
9, 186720, Note_on_c, 14, 41, 58
9, 186786, Note_off_c, 14, 41, 64
9, 186960, Note_on_c, 14, 29, 58
9, 187026, Note_off_c, 14, 29, 64
9, 187200, Note_on_c, 14, 34, 105
9, 187356, Note_off_c, 14, 34, 64
9, 187440, Note_on_c, 14, 34, 105
9, 187492, Note_off_c, 14, 34, 64
9, 187520, Note_on_c, 14, 34, 105
9, 187572, Note_off_c, 14, 34, 64
9, 187600, Note_on_c, 14, 34, 105
9, 187652, Note_off_c, 14, 34, 64
9, 187680, Note_on_c, 14, 34, 105
9, 187732, Note_off_c, 14, 34, 64
9, 187760, Note_on_c, 14, 34, 105
9, 187812, Note_off_c, 14, 34, 64
9, 187840, Note_on_c, 14, 34, 105
9, 187892, Note_off_c, 14, 34, 64
9, 187920, Note_on_c, 14, 34, 105
9, 187972, Note_off_c, 14, 34, 64
9, 188000, Note_on_c, 14, 34, 105
9, 188052, Note_off_c, 14, 34, 64
9, 188080, Note_on_c, 14, 34, 105
9, 188132, Note_off_c, 14, 34, 64
9, 188160, Note_on_c, 14, 34, 105
9, 188292, Note_off_c, 14, 34, 64
9, 188400, Note_on_c, 14, 38, 105
9, 188532, Note_off_c, 14, 38, 64
9, 188640, Note_on_c, 14, 41, 105
9, 188772, Note_off_c, 14, 41, 64
9, 189120, Note_on_c, 14, 38, 58
9, 189252, Note_off_c, 14, 38, 64
9, 189360, Note_on_c, 14, 41, 58
9, 189492, Note_off_c, 14, 41, 64
9, 189600, Note_on_c, 14, 46, 58
9, 189732, Note_off_c, 14, 46, 64
9, 190080, Note_on_c, 14, 34, 105
9, 190212, Note_off_c, 14, 34, 64
9, 190320, Note_on_c, 14, 38, 105
9, 190452, Note_off_c, 14, 38, 64
9, 190560, Note_on_c, 14, 41, 105
9, 190692, Note_off_c, 14, 41, 64
9, 190800, Note_on_c, 14, 46, 105
9, 190932, Note_off_c, 14, 46, 64
9, 191040, Note_on_c, 14, 41, 105
9, 191172, Note_off_c, 14, 41, 64
9, 191280, Note_on_c, 14, 38, 105
9, 191412, Note_off_c, 14, 38, 64
9, 191520, Note_on_c, 14, 34, 105
9, 191652, Note_off_c, 14, 34, 64
9, 199440, Note_on_c, 14, 38, 58
9, 199506, Note_off_c, 14, 38, 64
9, 199680, Note_on_c, 14, 39, 58
9, 199746, Note_off_c, 14, 39, 64
9, 199920, Note_on_c, 14, 42, 58
9, 199986, Note_off_c, 14, 42, 64
9, 200160, Note_on_c, 14, 43, 58
9, 200226, Note_off_c, 14, 43, 64
9, 200400, Note_on_c, 14, 48, 58
9, 200466, Note_off_c, 14, 48, 64
9, 200640, Note_on_c, 14, 51, 58
9, 201000, Note_off_c, 14, 51, 64
9, 201000, Note_on_c, 14, 53, 58
9, 201060, Note_off_c, 14, 53, 64
9, 201060, Note_on_c, 14, 50, 58
9, 201120, Note_off_c, 14, 50, 64
9, 201120, Note_on_c, 14, 48, 58
9, 201186, Note_off_c, 14, 48, 64
9, 201360, Note_on_c, 14, 38, 58
9, 201426, Note_off_c, 14, 38, 64
9, 201600, Note_on_c, 14, 39, 58
9, 201666, Note_off_c, 14, 39, 64
9, 201840, Note_on_c, 14, 42, 58
9, 201906, Note_off_c, 14, 42, 64
9, 202080, Note_on_c, 14, 43, 58
9, 202146, Note_off_c, 14, 43, 64
9, 202320, Note_on_c, 14, 48, 58
9, 202386, Note_off_c, 14, 48, 64
9, 202560, Note_on_c, 14, 51, 58
9, 202920, Note_off_c, 14, 51, 64
9, 202920, Note_on_c, 14, 53, 58
9, 202980, Note_off_c, 14, 53, 64
9, 202980, Note_on_c, 14, 50, 58
9, 203040, Note_off_c, 14, 50, 64
9, 203040, Note_on_c, 14, 48, 58
9, 203106, Note_off_c, 14, 48, 64
9, 203280, Note_on_c, 14, 38, 58
9, 203346, Note_off_c, 14, 38, 64
9, 203520, Note_on_c, 14, 39, 58
9, 203712, Note_off_c, 14, 39, 64
9, 205440, Note_on_c, 14, 53, 105
9, 205512, Note_off_c, 14, 53, 64
9, 205560, Note_on_c, 14, 52, 105
9, 205632, Note_off_c, 14, 52, 64
9, 205680, Note_on_c, 14, 53, 105
9, 205752, Note_off_c, 14, 53, 64
9, 205800, Note_on_c, 14, 52, 105
9, 205872, Note_off_c, 14, 52, 64
9, 205920, Note_on_c, 14, 51, 105
9, 205992, Note_off_c, 14, 51, 64
9, 206040, Note_on_c, 14, 50, 105
9, 206112, Note_off_c, 14, 50, 64
9, 206160, Note_on_c, 14, 51, 105
9, 206232, Note_off_c, 14, 51, 64
9, 206280, Note_on_c, 14, 50, 105
9, 206352, Note_off_c, 14, 50, 64
9, 206400, Note_on_c, 14, 48, 105
9, 206472, Note_off_c, 14, 48, 64
9, 206520, Note_on_c, 14, 47, 105
9, 206592, Note_off_c, 14, 47, 64
9, 206640, Note_on_c, 14, 48, 105
9, 206712, Note_off_c, 14, 48, 64
9, 206760, Note_on_c, 14, 46, 105
9, 206832, Note_off_c, 14, 46, 64
9, 206880, Note_on_c, 14, 45, 105
9, 206952, Note_off_c, 14, 45, 64
9, 207000, Note_on_c, 14, 44, 105
9, 207072, Note_off_c, 14, 44, 64
9, 207120, Note_on_c, 14, 45, 105
9, 207192, Note_off_c, 14, 45, 64
9, 207240, Note_on_c, 14, 43, 105
9, 207312, Note_off_c, 14, 43, 64
9, 207360, Note_on_c, 14, 41, 105
9, 207432, Note_off_c, 14, 41, 64
9, 207480, Note_on_c, 14, 41, 105
9, 207552, Note_off_c, 14, 41, 64
9, 207600, Note_on_c, 14, 41, 105
9, 207672, Note_off_c, 14, 41, 64
9, 207720, Note_on_c, 14, 41, 105
9, 207792, Note_off_c, 14, 41, 64
9, 207840, Note_on_c, 14, 41, 105
9, 207912, Note_off_c, 14, 41, 64
9, 207960, Note_on_c, 14, 41, 105
9, 208032, Note_off_c, 14, 41, 64
9, 208080, Note_on_c, 14, 41, 105
9, 208152, Note_off_c, 14, 41, 64
9, 208200, Note_on_c, 14, 41, 105
9, 208272, Note_off_c, 14, 41, 64
9, 208320, Note_on_c, 14, 41, 105
9, 208392, Note_off_c, 14, 41, 64
9, 208440, Note_on_c, 14, 41, 105
9, 208512, Note_off_c, 14, 41, 64
9, 208560, Note_on_c, 14, 41, 105
9, 208632, Note_off_c, 14, 41, 64
9, 208680, Note_on_c, 14, 41, 105
9, 208752, Note_off_c, 14, 41, 64
9, 208800, Note_on_c, 14, 41, 105
9, 208872, Note_off_c, 14, 41, 64
9, 208920, Note_on_c, 14, 41, 105
9, 208992, Note_off_c, 14, 41, 64
9, 209040, Note_on_c, 14, 41, 105
9, 209112, Note_off_c, 14, 41, 64
9, 209160, Note_on_c, 14, 41, 105
9, 209232, Note_off_c, 14, 41, 64
9, 209280, Note_on_c, 14, 41, 105
9, 209472, Note_off_c, 14, 41, 64
9, 212160, Note_on_c, 14, 46, 58
9, 212352, Note_off_c, 14, 46, 64
9, 212640, Note_on_c, 14, 34, 58
9, 212832, Note_off_c, 14, 34, 64
9, 213120, Note_on_c, 14, 41, 58
9, 213312, Note_off_c, 14, 41, 64
9, 214080, Note_on_c, 14, 41, 58
9, 214272, Note_off_c, 14, 41, 64
9, 214560, Note_on_c, 14, 29, 58
9, 214752, Note_off_c, 14, 29, 64
9, 215040, Note_on_c, 14, 34, 58
9, 215232, Note_off_c, 14, 34, 64
9, 215760, Note_on_c, 14, 38, 58
9, 216000, Note_off_c, 14, 38, 64
9, 216000, Note_on_c, 14, 39, 58
9, 216240, Note_off_c, 14, 39, 64
9, 216240, Note_on_c, 14, 38, 58
9, 216432, Note_off_c, 14, 38, 64
9, 216720, Note_on_c, 14, 38, 58
9, 216960, Note_off_c, 14, 38, 64
9, 216960, Note_on_c, 14, 36, 58
9, 217200, Note_off_c, 14, 36, 64
9, 217200, Note_on_c, 14, 34, 58
9, 217392, Note_off_c, 14, 34, 64
9, 217680, Note_on_c, 14, 38, 58
9, 217920, Note_off_c, 14, 38, 64
9, 217920, Note_on_c, 14, 39, 58
9, 218160, Note_off_c, 14, 39, 64
9, 218160, Note_on_c, 14, 40, 58
9, 218400, Note_off_c, 14, 40, 64
9, 218400, Note_on_c, 14, 41, 58
9, 218640, Note_off_c, 14, 41, 64
9, 218640, Note_on_c, 14, 42, 58
9, 218880, Note_off_c, 14, 42, 64
9, 218880, Note_on_c, 14, 41, 58
9, 219072, Note_off_c, 14, 41, 64
9, 219840, Note_on_c, 14, 46, 58
9, 220032, Note_off_c, 14, 46, 64
9, 220320, Note_on_c, 14, 34, 58
9, 220512, Note_off_c, 14, 34, 64
9, 220800, Note_on_c, 14, 41, 58
9, 220992, Note_off_c, 14, 41, 64
9, 221760, Note_on_c, 14, 41, 58
9, 221952, Note_off_c, 14, 41, 64
9, 222240, Note_on_c, 14, 29, 58
9, 222432, Note_off_c, 14, 29, 64
9, 222720, Note_on_c, 14, 34, 58
9, 222912, Note_off_c, 14, 34, 64
9, 223440, Note_on_c, 14, 50, 58
9, 223680, Note_off_c, 14, 50, 64
9, 223680, Note_on_c, 14, 51, 58
9, 223920, Note_off_c, 14, 51, 64
9, 223920, Note_on_c, 14, 50, 58
9, 224112, Note_off_c, 14, 50, 64
9, 224400, Note_on_c, 14, 50, 58
9, 224640, Note_off_c, 14, 50, 64
9, 224640, Note_on_c, 14, 45, 58
9, 224880, Note_off_c, 14, 45, 64
9, 224880, Note_on_c, 14, 46, 58
9, 225072, Note_off_c, 14, 46, 64
9, 225360, Note_on_c, 14, 38, 58
9, 225552, Note_off_c, 14, 38, 64
9, 225600, Note_on_c, 14, 39, 58
9, 226080, Note_off_c, 14, 39, 64
9, 226080, Note_on_c, 14, 41, 58
9, 226464, Note_off_c, 14, 41, 64
9, 226560, Note_on_c, 14, 34, 58
9, 226704, Note_off_c, 14, 34, 64
9, 226800, Note_on_c, 14, 50, 105
9, 226932, Note_off_c, 14, 50, 64
9, 227040, Note_on_c, 14, 48, 105
9, 227172, Note_off_c, 14, 48, 64
9, 227280, Note_on_c, 14, 41, 105
9, 227412, Note_off_c, 14, 41, 64
9, 227520, Note_on_c, 14, 46, 105
9, 227652, Note_off_c, 14, 46, 64
9, 227760, Note_on_c, 14, 43, 105
9, 227892, Note_off_c, 14, 43, 64
9, 228000, Note_on_c, 14, 41, 105
9, 228132, Note_off_c, 14, 41, 64
9, 228240, Note_on_c, 14, 34, 105
9, 228372, Note_off_c, 14, 34, 64
9, 228480, Note_on_c, 14, 39, 105
9, 228612, Note_off_c, 14, 39, 64
9, 228720, Note_on_c, 14, 38, 105
9, 228852, Note_off_c, 14, 38, 64
9, 228960, Note_on_c, 14, 36, 105
9, 229092, Note_off_c, 14, 36, 64
9, 229200, Note_on_c, 14, 33, 105
9, 229332, Note_off_c, 14, 33, 64
9, 229440, Note_on_c, 14, 34, 105
9, 229572, Note_off_c, 14, 34, 64
9, 229680, Note_on_c, 14, 39, 105
9, 229812, Note_off_c, 14, 39, 64
9, 229920, Note_on_c, 14, 41, 105
9, 230052, Note_off_c, 14, 41, 64
9, 230160, Note_on_c, 14, 29, 105
9, 230292, Note_off_c, 14, 29, 64
9, 230400, Note_on_c, 14, 34, 92
9, 230532, Note_off_c, 14, 34, 64
9, 230640, Note_on_c, 14, 50, 105
9, 230772, Note_off_c, 14, 50, 64
9, 230880, Note_on_c, 14, 48, 105
9, 231012, Note_off_c, 14, 48, 64
9, 231120, Note_on_c, 14, 41, 105
9, 231252, Note_off_c, 14, 41, 64
9, 231360, Note_on_c, 14, 46, 105
9, 231492, Note_off_c, 14, 46, 64
9, 231600, Note_on_c, 14, 43, 105
9, 231732, Note_off_c, 14, 43, 64
9, 231840, Note_on_c, 14, 41, 105
9, 231972, Note_off_c, 14, 41, 64
9, 232080, Note_on_c, 14, 34, 105
9, 232212, Note_off_c, 14, 34, 64
9, 232320, Note_on_c, 14, 39, 105
9, 232452, Note_off_c, 14, 39, 64
9, 232560, Note_on_c, 14, 38, 105
9, 232692, Note_off_c, 14, 38, 64
9, 232800, Note_on_c, 14, 36, 105
9, 232932, Note_off_c, 14, 36, 64
9, 233040, Note_on_c, 14, 45, 105
9, 233172, Note_off_c, 14, 45, 64
9, 233280, Note_on_c, 14, 46, 105
9, 233412, Note_off_c, 14, 46, 64
9, 233520, Note_on_c, 14, 39, 105
9, 233652, Note_off_c, 14, 39, 64
9, 233760, Note_on_c, 14, 41, 105
9, 233892, Note_off_c, 14, 41, 64
9, 234000, Note_on_c, 14, 42, 105
9, 234132, Note_off_c, 14, 42, 64
9, 234240, Note_on_c, 14, 43, 105
9, 234372, Note_off_c, 14, 43, 64
9, 234480, Note_on_c, 14, 36, 105
9, 234612, Note_off_c, 14, 36, 64
9, 234720, Note_on_c, 14, 38, 105
9, 234852, Note_off_c, 14, 38, 64
9, 234960, Note_on_c, 14, 39, 105
9, 235092, Note_off_c, 14, 39, 64
9, 235200, Note_on_c, 14, 41, 105
9, 235332, Note_off_c, 14, 41, 64
9, 235440, Note_on_c, 14, 42, 105
9, 235572, Note_off_c, 14, 42, 64
9, 235680, Note_on_c, 14, 43, 105
9, 235812, Note_off_c, 14, 43, 64
9, 235920, Note_on_c, 14, 39, 105
9, 236052, Note_off_c, 14, 39, 64
9, 236160, Note_on_c, 14, 41, 105
9, 236316, Note_off_c, 14, 41, 64
9, 236400, Note_on_c, 14, 46, 105
9, 236478, Note_off_c, 14, 46, 64
9, 236520, Note_on_c, 14, 50, 105
9, 236598, Note_off_c, 14, 50, 64
9, 236640, Note_on_c, 14, 53, 105
9, 236796, Note_off_c, 14, 53, 64
9, 236880, Note_on_c, 14, 50, 105
9, 236958, Note_off_c, 14, 50, 64
9, 237000, Note_on_c, 14, 46, 105
9, 237078, Note_off_c, 14, 46, 64
9, 237120, Note_on_c, 14, 51, 105
9, 237252, Note_off_c, 14, 51, 64
9, 237360, Note_on_c, 14, 48, 105
9, 237492, Note_off_c, 14, 48, 64
9, 237600, Note_on_c, 14, 45, 105
9, 237732, Note_off_c, 14, 45, 64
9, 237840, Note_on_c, 14, 41, 105
9, 237972, Note_off_c, 14, 41, 64
9, 238080, Note_on_c, 14, 46, 105
9, 238236, Note_off_c, 14, 46, 64
9, 238560, Note_on_c, 14, 46, 58
9, 238752, Note_off_c, 14, 46, 64
9, 239040, Note_on_c, 14, 46, 58
9, 239232, Note_off_c, 14, 46, 64
9, 239520, Note_on_c, 14, 46, 58
9, 239712, Note_off_c, 14, 46, 64
9, 240000, Note_on_c, 14, 41, 58
9, 240192, Note_off_c, 14, 41, 64
9, 240480, Note_on_c, 14, 41, 58
9, 240672, Note_off_c, 14, 41, 64
9, 240960, Note_on_c, 14, 46, 58
9, 241152, Note_off_c, 14, 46, 64
9, 241440, Note_on_c, 14, 41, 58
9, 241632, Note_off_c, 14, 41, 64
9, 241920, Note_on_c, 14, 34, 105
9, 242064, Note_off_c, 14, 34, 64
9, 242160, Note_on_c, 14, 34, 105
9, 242232, Note_off_c, 14, 34, 64
9, 242280, Note_on_c, 14, 34, 105
9, 242352, Note_off_c, 14, 34, 64
9, 242400, Note_on_c, 14, 34, 105
9, 242544, Note_off_c, 14, 34, 64
9, 242640, Note_on_c, 14, 34, 105
9, 242712, Note_off_c, 14, 34, 64
9, 242760, Note_on_c, 14, 34, 105
9, 242832, Note_off_c, 14, 34, 64
9, 242880, Note_on_c, 14, 34, 105
9, 242952, Note_off_c, 14, 34, 64
9, 243000, Note_on_c, 14, 46, 105
9, 243072, Note_off_c, 14, 46, 64
9, 243120, Note_on_c, 14, 46, 105
9, 243192, Note_off_c, 14, 46, 64
9, 243240, Note_on_c, 14, 46, 105
9, 243312, Note_off_c, 14, 46, 64
9, 243360, Note_on_c, 14, 46, 105
9, 243432, Note_off_c, 14, 46, 64
9, 243480, Note_on_c, 14, 46, 105
9, 243552, Note_off_c, 14, 46, 64
9, 243600, Note_on_c, 14, 46, 105
9, 243672, Note_off_c, 14, 46, 64
9, 243720, Note_on_c, 14, 46, 105
9, 243792, Note_off_c, 14, 46, 64
9, 243840, Note_on_c, 14, 29, 105
9, 243912, Note_off_c, 14, 29, 64
9, 243960, Note_on_c, 14, 41, 105
9, 244032, Note_off_c, 14, 41, 64
9, 244080, Note_on_c, 14, 41, 105
9, 244152, Note_off_c, 14, 41, 64
9, 244200, Note_on_c, 14, 41, 105
9, 244272, Note_off_c, 14, 41, 64
9, 244320, Note_on_c, 14, 41, 105
9, 244392, Note_off_c, 14, 41, 64
9, 244440, Note_on_c, 14, 41, 105
9, 244512, Note_off_c, 14, 41, 64
9, 244560, Note_on_c, 14, 41, 105
9, 244632, Note_off_c, 14, 41, 64
9, 244680, Note_on_c, 14, 41, 105
9, 244752, Note_off_c, 14, 41, 64
9, 244800, Note_on_c, 14, 46, 105
9, 244872, Note_off_c, 14, 46, 64
9, 244920, Note_on_c, 14, 46, 105
9, 244992, Note_off_c, 14, 46, 64
9, 245040, Note_on_c, 14, 46, 105
9, 245112, Note_off_c, 14, 46, 64
9, 245160, Note_on_c, 14, 46, 105
9, 245232, Note_off_c, 14, 46, 64
9, 245280, Note_on_c, 14, 41, 105
9, 245352, Note_off_c, 14, 41, 64
9, 245400, Note_on_c, 14, 41, 105
9, 245472, Note_off_c, 14, 41, 64
9, 245520, Note_on_c, 14, 41, 105
9, 245592, Note_off_c, 14, 41, 64
9, 245640, Note_on_c, 14, 41, 105
9, 245712, Note_off_c, 14, 41, 64
9, 245760, Note_on_c, 14, 34, 105
9, 245952, Note_off_c, 14, 34, 64
9, 246480, Note_on_c, 14, 41, 105
9, 246612, Note_off_c, 14, 41, 64
9, 246720, Note_on_c, 14, 46, 105
9, 246852, Note_off_c, 14, 46, 64
9, 247440, Note_on_c, 14, 41, 105
9, 247572, Note_off_c, 14, 41, 64
9, 247680, Note_on_c, 14, 34, 105
9, 247812, Note_off_c, 14, 34, 64
9, 248400, Note_on_c, 14, 41, 105
9, 248532, Note_off_c, 14, 41, 64
9, 248640, Note_on_c, 14, 46, 105
9, 248772, Note_off_c, 14, 46, 64
9, 249360, Note_on_c, 14, 41, 105
9, 249492, Note_off_c, 14, 41, 64
9, 249600, Note_on_c, 14, 46, 105
9, 249652, Note_off_c, 14, 46, 64
9, 249680, Note_on_c, 14, 48, 105
9, 249732, Note_off_c, 14, 48, 64
9, 249760, Note_on_c, 14, 50, 105
9, 249812, Note_off_c, 14, 50, 64
9, 249840, Note_on_c, 14, 51, 105
9, 249892, Note_off_c, 14, 51, 64
9, 249920, Note_on_c, 14, 53, 105
9, 249972, Note_off_c, 14, 53, 64
9, 250000, Note_on_c, 14, 55, 105
9, 250052, Note_off_c, 14, 55, 64
9, 250080, Note_on_c, 14, 53, 105
9, 250132, Note_off_c, 14, 53, 64
9, 250160, Note_on_c, 14, 51, 105
9, 250212, Note_off_c, 14, 51, 64
9, 250240, Note_on_c, 14, 50, 105
9, 250292, Note_off_c, 14, 50, 64
9, 250320, Note_on_c, 14, 48, 105
9, 250372, Note_off_c, 14, 48, 64
9, 250400, Note_on_c, 14, 46, 105
9, 250452, Note_off_c, 14, 46, 64
9, 250480, Note_on_c, 14, 45, 105
9, 250532, Note_off_c, 14, 45, 64
9, 250560, Note_on_c, 14, 43, 105
9, 250612, Note_off_c, 14, 43, 64
9, 250640, Note_on_c, 14, 45, 105
9, 250692, Note_off_c, 14, 45, 64
9, 250720, Note_on_c, 14, 46, 105
9, 250772, Note_off_c, 14, 46, 64
9, 250800, Note_on_c, 14, 48, 105
9, 250852, Note_off_c, 14, 48, 64
9, 250880, Note_on_c, 14, 50, 105
9, 250932, Note_off_c, 14, 50, 64
9, 250960, Note_on_c, 14, 51, 105
9, 251012, Note_off_c, 14, 51, 64
9, 251040, Note_on_c, 14, 50, 105
9, 251092, Note_off_c, 14, 50, 64
9, 251120, Note_on_c, 14, 48, 105
9, 251172, Note_off_c, 14, 48, 64
9, 251200, Note_on_c, 14, 46, 105
9, 251252, Note_off_c, 14, 46, 64
9, 251280, Note_on_c, 14, 45, 105
9, 251332, Note_off_c, 14, 45, 64
9, 251360, Note_on_c, 14, 43, 105
9, 251412, Note_off_c, 14, 43, 64
9, 251440, Note_on_c, 14, 41, 105
9, 251492, Note_off_c, 14, 41, 64
9, 251520, Note_on_c, 14, 39, 105
9, 251637, Note_off_c, 14, 39, 64
9, 251700, Note_on_c, 14, 39, 105
9, 251739, Note_off_c, 14, 39, 64
9, 251760, Note_on_c, 14, 38, 105
9, 251877, Note_off_c, 14, 38, 64
9, 251940, Note_on_c, 14, 36, 105
9, 251979, Note_off_c, 14, 36, 64
9, 252000, Note_on_c, 14, 41, 105
9, 252156, Note_off_c, 14, 41, 64
9, 252240, Note_on_c, 14, 41, 105
9, 252396, Note_off_c, 14, 41, 64
9, 252480, Note_on_c, 14, 46, 105
9, 252636, Note_off_c, 14, 46, 64
9, 252720, Note_on_c, 14, 34, 105
9, 252772, Note_off_c, 14, 34, 64
9, 252800, Note_on_c, 14, 34, 105
9, 252852, Note_off_c, 14, 34, 64
9, 252880, Note_on_c, 14, 34, 105
9, 252932, Note_off_c, 14, 34, 64
9, 252960, Note_on_c, 14, 34, 105
9, 253012, Note_off_c, 14, 34, 64
9, 253040, Note_on_c, 14, 34, 105
9, 253092, Note_off_c, 14, 34, 64
9, 253120, Note_on_c, 14, 34, 105
9, 253172, Note_off_c, 14, 34, 64
9, 253200, Note_on_c, 14, 34, 105
9, 253252, Note_off_c, 14, 34, 64
9, 253280, Note_on_c, 14, 34, 105
9, 253332, Note_off_c, 14, 34, 64
9, 253360, Note_on_c, 14, 34, 105
9, 253412, Note_off_c, 14, 34, 64
9, 253440, Note_on_c, 14, 34, 105
9, 253572, Note_off_c, 14, 34, 64
9, 253680, Note_on_c, 14, 38, 105
9, 253812, Note_off_c, 14, 38, 64
9, 253920, Note_on_c, 14, 41, 105
9, 254052, Note_off_c, 14, 41, 64
9, 254400, Note_on_c, 14, 38, 58
9, 254532, Note_off_c, 14, 38, 64
9, 254640, Note_on_c, 14, 41, 58
9, 254772, Note_off_c, 14, 41, 64
9, 254880, Note_on_c, 14, 46, 58
9, 255012, Note_off_c, 14, 46, 64
9, 255360, Note_on_c, 14, 34, 105
9, 255492, Note_off_c, 14, 34, 64
9, 255600, Note_on_c, 14, 38, 105
9, 255732, Note_off_c, 14, 38, 64
9, 255840, Note_on_c, 14, 41, 105
9, 255972, Note_off_c, 14, 41, 64
9, 256080, Note_on_c, 14, 46, 105
9, 256212, Note_off_c, 14, 46, 64
9, 256320, Note_on_c, 14, 41, 105
9, 256452, Note_off_c, 14, 41, 64
9, 256560, Note_on_c, 14, 38, 105
9, 256692, Note_off_c, 14, 38, 64
9, 256800, Note_on_c, 14, 34, 105
9, 256932, Note_off_c, 14, 34, 64
9, 258720, Note_on_c, 14, 34, 1
9, 259104, Note_off_c, 14, 34, 64
9, 259104, End_track
10, 0, Start_track
10, 0, Program_c, 6, 45
10, 0, Control_c, 6, 7, 102
10, 0, Control_c, 6, 91, 90
10, 0, End_track
11, 0, Start_track
11, 0, Program_c, 7, 45
11, 0, Control_c, 7, 7, 102
11, 0, Control_c, 7, 91, 90
11, 21360, Control_c, 7, 10, 89
11, 21840, Note_on_c, 7, 38, 58
11, 21840, Note_on_c, 7, 50, 58
11, 21936, Note_off_c, 7, 50, 64
11, 21936, Note_off_c, 7, 38, 64
11, 22080, Note_on_c, 7, 43, 58
11, 22080, Note_on_c, 7, 55, 58
11, 22176, Note_off_c, 7, 55, 64
11, 22176, Note_off_c, 7, 43, 64
11, 22320, Note_on_c, 7, 50, 58
11, 22320, Note_on_c, 7, 38, 58
11, 22416, Note_off_c, 7, 38, 64
11, 22416, Note_off_c, 7, 50, 64
11, 22560, Note_on_c, 7, 43, 58
11, 22560, Note_on_c, 7, 55, 58
11, 22656, Note_off_c, 7, 55, 64
11, 22656, Note_off_c, 7, 43, 64
11, 22800, Note_on_c, 7, 50, 58
11, 22800, Note_on_c, 7, 38, 58
11, 22896, Note_off_c, 7, 38, 64
11, 22896, Note_off_c, 7, 50, 64
11, 23040, Note_on_c, 7, 55, 58
11, 23040, Note_on_c, 7, 43, 58
11, 23232, Note_off_c, 7, 43, 64
11, 23232, Note_off_c, 7, 55, 64
11, 25680, Note_on_c, 7, 36, 58
11, 25680, Note_on_c, 7, 48, 58
11, 25776, Note_off_c, 7, 48, 64
11, 25776, Note_off_c, 7, 36, 64
11, 25920, Note_on_c, 7, 41, 58
11, 25920, Note_on_c, 7, 53, 58
11, 26016, Note_off_c, 7, 53, 64
11, 26016, Note_off_c, 7, 41, 64
11, 26160, Note_on_c, 7, 36, 58
11, 26160, Note_on_c, 7, 48, 58
11, 26256, Note_off_c, 7, 48, 64
11, 26256, Note_off_c, 7, 36, 64
11, 26400, Note_on_c, 7, 41, 58
11, 26400, Note_on_c, 7, 53, 58
11, 26496, Note_off_c, 7, 53, 64
11, 26496, Note_off_c, 7, 41, 64
11, 26640, Note_on_c, 7, 48, 58
11, 26640, Note_on_c, 7, 36, 58
11, 26736, Note_off_c, 7, 36, 64
11, 26736, Note_off_c, 7, 48, 64
11, 26880, Note_on_c, 7, 53, 58
11, 26880, Note_on_c, 7, 41, 58
11, 27072, Note_off_c, 7, 41, 64
11, 27072, Note_off_c, 7, 53, 64
11, 98640, Control_c, 7, 10, 89
11, 99120, Note_on_c, 7, 38, 58
11, 99120, Note_on_c, 7, 50, 58
11, 99216, Note_off_c, 7, 50, 64
11, 99216, Note_off_c, 7, 38, 64
11, 99360, Note_on_c, 7, 43, 58
11, 99360, Note_on_c, 7, 55, 58
11, 99456, Note_off_c, 7, 55, 64
11, 99456, Note_off_c, 7, 43, 64
11, 99600, Note_on_c, 7, 50, 58
11, 99600, Note_on_c, 7, 38, 58
11, 99696, Note_off_c, 7, 38, 64
11, 99696, Note_off_c, 7, 50, 64
11, 99840, Note_on_c, 7, 43, 58
11, 99840, Note_on_c, 7, 55, 58
11, 99936, Note_off_c, 7, 55, 64
11, 99936, Note_off_c, 7, 43, 64
11, 100080, Note_on_c, 7, 50, 58
11, 100080, Note_on_c, 7, 38, 58
11, 100176, Note_off_c, 7, 38, 64
11, 100176, Note_off_c, 7, 50, 64
11, 100320, Note_on_c, 7, 55, 58
11, 100320, Note_on_c, 7, 43, 58
11, 100512, Note_off_c, 7, 43, 64
11, 100512, Note_off_c, 7, 55, 64
11, 102960, Note_on_c, 7, 36, 58
11, 102960, Note_on_c, 7, 48, 58
11, 103056, Note_off_c, 7, 48, 64
11, 103056, Note_off_c, 7, 36, 64
11, 103200, Note_on_c, 7, 41, 58
11, 103200, Note_on_c, 7, 53, 58
11, 103296, Note_off_c, 7, 53, 64
11, 103296, Note_off_c, 7, 41, 64
11, 103440, Note_on_c, 7, 36, 58
11, 103440, Note_on_c, 7, 48, 58
11, 103536, Note_off_c, 7, 48, 64
11, 103536, Note_off_c, 7, 36, 64
11, 103680, Note_on_c, 7, 41, 58
11, 103680, Note_on_c, 7, 53, 58
11, 103776, Note_off_c, 7, 53, 64
11, 103776, Note_off_c, 7, 41, 64
11, 103920, Note_on_c, 7, 48, 58
11, 103920, Note_on_c, 7, 36, 58
11, 104016, Note_off_c, 7, 36, 64
11, 104016, Note_off_c, 7, 48, 64
11, 104160, Note_on_c, 7, 53, 58
11, 104160, Note_on_c, 7, 41, 58
11, 104352, Note_off_c, 7, 41, 64
11, 104352, Note_off_c, 7, 53, 64
11, 193680, Note_on_c, 7, 38, 58
11, 193680, Note_on_c, 7, 50, 58
11, 193776, Note_off_c, 7, 50, 64
11, 193776, Note_off_c, 7, 38, 64
11, 193920, Note_on_c, 7, 43, 58
11, 193920, Note_on_c, 7, 55, 58
11, 194016, Note_off_c, 7, 55, 64
11, 194016, Note_off_c, 7, 43, 64
11, 194160, Note_on_c, 7, 50, 58
11, 194160, Note_on_c, 7, 38, 58
11, 194256, Note_off_c, 7, 38, 64
11, 194256, Note_off_c, 7, 50, 64
11, 194400, Note_on_c, 7, 43, 58
11, 194400, Note_on_c, 7, 55, 58
11, 194496, Note_off_c, 7, 55, 64
11, 194496, Note_off_c, 7, 43, 64
11, 194640, Note_on_c, 7, 50, 58
11, 194640, Note_on_c, 7, 38, 58
11, 194736, Note_off_c, 7, 38, 64
11, 194736, Note_off_c, 7, 50, 64
11, 194880, Note_on_c, 7, 55, 58
11, 194880, Note_on_c, 7, 43, 58
11, 195072, Note_off_c, 7, 43, 64
11, 195072, Note_off_c, 7, 55, 64
11, 197520, Note_on_c, 7, 34, 58
11, 197520, Note_on_c, 7, 46, 58
11, 197592, Note_off_c, 7, 46, 64
11, 197592, Note_off_c, 7, 34, 64
11, 197760, Note_on_c, 7, 39, 58
11, 197760, Note_on_c, 7, 51, 58
11, 197832, Note_off_c, 7, 51, 64
11, 197832, Note_off_c, 7, 39, 64
11, 198000, Note_on_c, 7, 46, 58
11, 198000, Note_on_c, 7, 34, 58
11, 198072, Note_off_c, 7, 34, 64
11, 198072, Note_off_c, 7, 46, 64
11, 198240, Note_on_c, 7, 39, 58
11, 198240, Note_on_c, 7, 51, 58
11, 198312, Note_off_c, 7, 51, 64
11, 198312, Note_off_c, 7, 39, 64
11, 198480, Note_on_c, 7, 46, 58
11, 198480, Note_on_c, 7, 34, 58
11, 198552, Note_off_c, 7, 34, 64
11, 198552, Note_off_c, 7, 46, 64
11, 198720, Note_on_c, 7, 39, 58
11, 198720, Note_on_c, 7, 51, 58
11, 198912, Note_off_c, 7, 51, 64
11, 198912, Note_off_c, 7, 39, 64
11, 198912, End_track
12, 0, Start_track
12, 0, End_track
0, 0, End_of_file