0, 0, Header, 1, 4, 120
1, 0, Start_track
1, 0, Title_t, "Country Dance in F"
1, 0, Title_t, "The Chelsea Notebook"
1, 0, Text_t, "Composed by Wolfgang Amadeus Mozart (1756-1791)\012"
1, 0, Text_t, "Programmed for MIDI by Lory Werths\012"
1, 0, Text_t, "Composed in 1764 at the age of 8.\012"
1, 0, Time_signature, 2, 2, 24, 8
1, 0, Key_signature, -1, "major"
1, 0, Tempo, 461538
1, 11520, Tempo, 461538
1, 11520, End_track
2, 0, Start_track
2, 0, Control_c, 0, 0, 0
2, 0, Program_c, 0, 0
2, 0, Control_c, 0, 7, 105
2, 0, Control_c, 0, 10, 32
2, 0, Note_on_c, 0, 77, 100
2, 119, Note_on_c, 0, 77, 0
2, 120, Note_on_c, 0, 81, 100
2, 239, Note_on_c, 0, 81, 0
2, 240, Note_on_c, 0, 84, 100
2, 240, Note_on_c, 0, 65, 100
2, 359, Note_on_c, 0, 65, 0
2, 360, Note_on_c, 0, 69, 100
2, 479, Note_on_c, 0, 69, 0
2, 479, Note_on_c, 0, 84, 0
2, 480, Note_on_c, 0, 82, 100
2, 480, Note_on_c, 0, 72, 100
2, 599, Note_on_c, 0, 82, 0
2, 600, Note_on_c, 0, 81, 100
2, 659, Note_on_c, 0, 81, 0
2, 660, Note_on_c, 0, 79, 100
2, 660, Note_on_c, 0, 79, 100
2, 719, Note_on_c, 0, 79, 0
2, 719, Note_on_c, 0, 79, 0
2, 719, Note_on_c, 0, 72, 0
2, 720, Note_on_c, 0, 81, 100
2, 720, Note_on_c, 0, 72, 100
2, 839, Note_on_c, 0, 72, 0
2, 840, Note_on_c, 0, 70, 100
2, 899, Note_on_c, 0, 70, 0
2, 900, Note_on_c, 0, 69, 100
2, 959, Note_on_c, 0, 69, 0
2, 959, Note_on_c, 0, 81, 0
2, 960, Note_on_c, 0, 79, 100
2, 960, Note_on_c, 0, 70, 100
2, 1010, Note_on_c, 0, 70, 0
2, 1010, Note_on_c, 0, 79, 0
2, 1080, Note_on_c, 0, 77, 100
2, 1080, Note_on_c, 0, 69, 100
2, 1130, Note_on_c, 0, 69, 0
2, 1130, Note_on_c, 0, 77, 0
2, 1200, Note_on_c, 0, 76, 100
2, 1200, Note_on_c, 0, 67, 100
2, 1439, Note_on_c, 0, 67, 0
2, 1439, Note_on_c, 0, 76, 0
2, 1440, Note_on_c, 0, 77, 100
2, 1559, Note_on_c, 0, 77, 0
2, 1560, Note_on_c, 0, 81, 100
2, 1679, Note_on_c, 0, 81, 0
2, 1680, Note_on_c, 0, 84, 100
2, 1680, Note_on_c, 0, 65, 100
2, 1799, Note_on_c, 0, 65, 0
2, 1800, Note_on_c, 0, 69, 100
2, 1919, Note_on_c, 0, 69, 0
2, 1919, Note_on_c, 0, 84, 0
2, 1920, Note_on_c, 0, 82, 100
2, 1920, Note_on_c, 0, 72, 100
2, 2039, Note_on_c, 0, 82, 0
2, 2040, Note_on_c, 0, 81, 100
2, 2099, Note_on_c, 0, 81, 0
2, 2100, Note_on_c, 0, 79, 100
2, 2100, Note_on_c, 0, 79, 100
2, 2159, Note_on_c, 0, 79, 0
2, 2159, Note_on_c, 0, 79, 0
2, 2159, Note_on_c, 0, 72, 0
2, 2160, Note_on_c, 0, 81, 100
2, 2160, Note_on_c, 0, 72, 100
2, 2279, Note_on_c, 0, 72, 0
2, 2280, Note_on_c, 0, 70, 100
2, 2339, Note_on_c, 0, 70, 0
2, 2340, Note_on_c, 0, 69, 100
2, 2399, Note_on_c, 0, 69, 0
2, 2399, Note_on_c, 0, 81, 0
2, 2400, Note_on_c, 0, 79, 100
2, 2400, Note_on_c, 0, 70, 100
2, 2450, Note_on_c, 0, 70, 0
2, 2450, Note_on_c, 0, 79, 0
2, 2520, Note_on_c, 0, 76, 100
2, 2520, Note_on_c, 0, 67, 100
2, 2570, Note_on_c, 0, 67, 0
2, 2570, Note_on_c, 0, 76, 0
2, 2640, Note_on_c, 0, 77, 100
2, 2640, Note_on_c, 0, 69, 100
2, 2879, Note_on_c, 0, 69, 0
2, 2879, Note_on_c, 0, 77, 0
2, 2880, Note_on_c, 0, 77, 100
2, 2999, Note_on_c, 0, 77, 0
2, 3000, Note_on_c, 0, 81, 100
2, 3119, Note_on_c, 0, 81, 0
2, 3120, Note_on_c, 0, 84, 100
2, 3120, Note_on_c, 0, 65, 100
2, 3239, Note_on_c, 0, 65, 0
2, 3240, Note_on_c, 0, 69, 100
2, 3359, Note_on_c, 0, 69, 0
2, 3359, Note_on_c, 0, 84, 0
2, 3360, Note_on_c, 0, 82, 100
2, 3360, Note_on_c, 0, 72, 100
2, 3479, Note_on_c, 0, 82, 0
2, 3480, Note_on_c, 0, 81, 100
2, 3539, Note_on_c, 0, 81, 0
2, 3540, Note_on_c, 0, 79, 100
2, 3540, Note_on_c, 0, 79, 100
2, 3599, Note_on_c, 0, 79, 0
2, 3599, Note_on_c, 0, 79, 0
2, 3599, Note_on_c, 0, 72, 0
2, 3600, Note_on_c, 0, 81, 100
2, 3600, Note_on_c, 0, 72, 100
2, 3719, Note_on_c, 0, 72, 0
2, 3720, Note_on_c, 0, 70, 100
2, 3779, Note_on_c, 0, 70, 0
2, 3780, Note_on_c, 0, 69, 100
2, 3839, Note_on_c, 0, 69, 0
2, 3839, Note_on_c, 0, 81, 0
2, 3840, Note_on_c, 0, 79, 100
2, 3840, Note_on_c, 0, 70, 100
2, 3890, Note_on_c, 0, 70, 0
2, 3890, Note_on_c, 0, 79, 0
2, 3960, Note_on_c, 0, 77, 100
2, 3960, Note_on_c, 0, 69, 100
2, 4010, Note_on_c, 0, 69, 0
2, 4010, Note_on_c, 0, 77, 0
2, 4080, Note_on_c, 0, 76, 100
2, 4080, Note_on_c, 0, 67, 100
2, 4319, Note_on_c, 0, 67, 0
2, 4319, Note_on_c, 0, 76, 0
2, 4320, Note_on_c, 0, 77, 100
2, 4439, Note_on_c, 0, 77, 0
2, 4440, Note_on_c, 0, 81, 100
2, 4559, Note_on_c, 0, 81, 0
2, 4560, Note_on_c, 0, 84, 100
2, 4560, Note_on_c, 0, 65, 100
2, 4679, Note_on_c, 0, 65, 0
2, 4680, Note_on_c, 0, 69, 100
2, 4799, Note_on_c, 0, 69, 0
2, 4799, Note_on_c, 0, 84, 0
2, 4800, Note_on_c, 0, 82, 100
2, 4800, Note_on_c, 0, 72, 100
2, 4919, Note_on_c, 0, 82, 0
2, 4920, Note_on_c, 0, 81, 100
2, 4979, Note_on_c, 0, 81, 0
2, 4980, Note_on_c, 0, 79, 100
2, 4980, Note_on_c, 0, 79, 100
2, 5039, Note_on_c, 0, 79, 0
2, 5039, Note_on_c, 0, 79, 0
2, 5039, Note_on_c, 0, 72, 0
2, 5040, Note_on_c, 0, 81, 100
2, 5040, Note_on_c, 0, 72, 100
2, 5159, Note_on_c, 0, 72, 0
2, 5160, Note_on_c, 0, 70, 100
2, 5219, Note_on_c, 0, 70, 0
2, 5220, Note_on_c, 0, 69, 100
2, 5279, Note_on_c, 0, 69, 0
2, 5279, Note_on_c, 0, 81, 0
2, 5280, Note_on_c, 0, 79, 100
2, 5280, Note_on_c, 0, 70, 100
2, 5330, Note_on_c, 0, 70, 0
2, 5330, Note_on_c, 0, 79, 0
2, 5400, Note_on_c, 0, 76, 100
2, 5400, Note_on_c, 0, 67, 100
2, 5450, Note_on_c, 0, 67, 0
2, 5450, Note_on_c, 0, 76, 0
2, 5520, Note_on_c, 0, 77, 100
2, 5520, Note_on_c, 0, 69, 100
2, 5759, Note_on_c, 0, 69, 0
2, 5759, Note_on_c, 0, 77, 0
2, 5760, Note_on_c, 0, 74, 100
2, 5819, Note_on_c, 0, 74, 0
2, 5820, Note_on_c, 0, 77, 100
2, 5879, Note_on_c, 0, 77, 0
2, 5880, Note_on_c, 0, 81, 100
2, 5939, Note_on_c, 0, 81, 0
2, 5940, Note_on_c, 0, 74, 100
2, 5999, Note_on_c, 0, 74, 0
2, 6000, Note_on_c, 0, 73, 100
2, 6119, Note_on_c, 0, 73, 0
2, 6120, Note_on_c, 0, 69, 100
2, 6239, Note_on_c, 0, 69, 0
2, 6240, Note_on_c, 0, 74, 100
2, 6299, Note_on_c, 0, 74, 0
2, 6300, Note_on_c, 0, 76, 100
2, 6359, Note_on_c, 0, 76, 0
2, 6360, Note_on_c, 0, 77, 100
2, 6419, Note_on_c, 0, 77, 0
2, 6420, Note_on_c, 0, 80, 100
2, 6479, Note_on_c, 0, 80, 0
2, 6480, Note_on_c, 0, 81, 100
2, 6599, Note_on_c, 0, 81, 0
2, 6600, Note_on_c, 0, 69, 100
2, 6659, Note_on_c, 0, 69, 0
2, 6660, Note_on_c, 0, 70, 100
2, 6719, Note_on_c, 0, 70, 0
2, 6720, Note_on_c, 0, 72, 100
2, 6720, Note_on_c, 0, 69, 100
2, 6770, Note_on_c, 0, 69, 0
2, 6770, Note_on_c, 0, 72, 0
2, 6840, Note_on_c, 0, 81, 100
2, 6890, Note_on_c, 0, 81, 0
2, 6960, Note_on_c, 0, 74, 100
2, 6960, Note_on_c, 0, 70, 100
2, 7010, Note_on_c, 0, 70, 0
2, 7010, Note_on_c, 0, 74, 0
2, 7080, Note_on_c, 0, 82, 100
2, 7130, Note_on_c, 0, 82, 0
2, 7200, Note_on_c, 0, 70, 100
2, 7200, Note_on_c, 0, 67, 100
2, 7250, Note_on_c, 0, 67, 0
2, 7250, Note_on_c, 0, 70, 0
2, 7320, Note_on_c, 0, 79, 100
2, 7370, Note_on_c, 0, 79, 0
2, 7440, Note_on_c, 0, 69, 100
2, 7440, Note_on_c, 0, 65, 100
2, 7490, Note_on_c, 0, 65, 0
2, 7490, Note_on_c, 0, 69, 0
2, 7560, Note_on_c, 0, 77, 100
2, 7610, Note_on_c, 0, 77, 0
2, 7680, Note_on_c, 0, 79, 100
2, 7680, Note_on_c, 0, 70, 100
2, 7739, Note_on_c, 0, 70, 0
2, 7739, Note_on_c, 0, 79, 0
2, 7740, Note_on_c, 0, 76, 100
2, 7740, Note_on_c, 0, 67, 100
2, 7799, Note_on_c, 0, 67, 0
2, 7799, Note_on_c, 0, 76, 0
2, 7800, Note_on_c, 0, 76, 100
2, 7800, Note_on_c, 0, 67, 100
2, 7859, Note_on_c, 0, 67, 0
2, 7859, Note_on_c, 0, 76, 0
2, 7860, Note_on_c, 0, 76, 100
2, 7860, Note_on_c, 0, 67, 100
2, 7919, Note_on_c, 0, 67, 0
2, 7919, Note_on_c, 0, 76, 0
2, 7920, Note_on_c, 0, 76, 100
2, 7920, Note_on_c, 0, 67, 100
2, 8159, Note_on_c, 0, 67, 0
2, 8159, Note_on_c, 0, 76, 0
2, 8160, Note_on_c, 0, 74, 100
2, 8160, Note_on_c, 0, 65, 100
2, 8279, Note_on_c, 0, 65, 0
2, 8279, Note_on_c, 0, 74, 0
2, 8280, Note_on_c, 0, 73, 100
2, 8280, Note_on_c, 0, 64, 100
2, 8399, Note_on_c, 0, 64, 0
2, 8399, Note_on_c, 0, 73, 0
2, 8400, Note_on_c, 0, 74, 100
2, 8400, Note_on_c, 0, 65, 100
2, 8639, Note_on_c, 0, 65, 0
2, 8639, Note_on_c, 0, 74, 0
2, 8640, Note_on_c, 0, 74, 100
2, 8699, Note_on_c, 0, 74, 0
2, 8700, Note_on_c, 0, 77, 100
2, 8759, Note_on_c, 0, 77, 0
2, 8760, Note_on_c, 0, 81, 100
2, 8819, Note_on_c, 0, 81, 0
2, 8820, Note_on_c, 0, 74, 100
2, 8879, Note_on_c, 0, 74, 0
2, 8880, Note_on_c, 0, 73, 100
2, 8999, Note_on_c, 0, 73, 0
2, 9000, Note_on_c, 0, 69, 100
2, 9119, Note_on_c, 0, 69, 0
2, 9120, Note_on_c, 0, 74, 100
2, 9179, Note_on_c, 0, 74, 0
2, 9180, Note_on_c, 0, 76, 100
2, 9239, Note_on_c, 0, 76, 0
2, 9240, Note_on_c, 0, 77, 100
2, 9299, Note_on_c, 0, 77, 0
2, 9300, Note_on_c, 0, 80, 100
2, 9359, Note_on_c, 0, 80, 0
2, 9360, Note_on_c, 0, 81, 100
2, 9479, Note_on_c, 0, 81, 0
2, 9480, Note_on_c, 0, 69, 100
2, 9539, Note_on_c, 0, 69, 0
2, 9540, Note_on_c, 0, 70, 100
2, 9599, Note_on_c, 0, 70, 0
2, 9600, Note_on_c, 0, 72, 100
2, 9600, Note_on_c, 0, 69, 100
2, 9650, Note_on_c, 0, 69, 0
2, 9650, Note_on_c, 0, 72, 0
2, 9720, Note_on_c, 0, 81, 100
2, 9770, Note_on_c, 0, 81, 0
2, 9840, Note_on_c, 0, 74, 100
2, 9840, Note_on_c, 0, 70, 100
2, 9890, Note_on_c, 0, 70, 0
2, 9890, Note_on_c, 0, 74, 0
2, 9960, Note_on_c, 0, 82, 100
2, 10010, Note_on_c, 0, 82, 0
2, 10080, Note_on_c, 0, 70, 100
2, 10080, Note_on_c, 0, 67, 100
2, 10130, Note_on_c, 0, 67, 0
2, 10130, Note_on_c, 0, 70, 0
2, 10200, Note_on_c, 0, 79, 100
2, 10250, Note_on_c, 0, 79, 0
2, 10320, Note_on_c, 0, 69, 100
2, 10320, Note_on_c, 0, 65, 100
2, 10370, Note_on_c, 0, 65, 0
2, 10370, Note_on_c, 0, 69, 0
2, 10440, Note_on_c, 0, 77, 100
2, 10490, Note_on_c, 0, 77, 0
2, 10560, Note_on_c, 0, 79, 100
2, 10560, Note_on_c, 0, 70, 100
2, 10619, Note_on_c, 0, 70, 0
2, 10619, Note_on_c, 0, 79, 0
2, 10620, Note_on_c, 0, 76, 100
2, 10620, Note_on_c, 0, 67, 100
2, 10679, Note_on_c, 0, 67, 0
2, 10679, Note_on_c, 0, 76, 0
2, 10680, Note_on_c, 0, 76, 100
2, 10680, Note_on_c, 0, 67, 100
2, 10739, Note_on_c, 0, 67, 0
2, 10739, Note_on_c, 0, 76, 0
2, 10740, Note_on_c, 0, 76, 100
2, 10740, Note_on_c, 0, 67, 100
2, 10799, Note_on_c, 0, 67, 0
2, 10799, Note_on_c, 0, 76, 0
2, 10800, Note_on_c, 0, 76, 100
2, 10800, Note_on_c, 0, 67, 100
2, 11039, Note_on_c, 0, 67, 0
2, 11039, Note_on_c, 0, 76, 0
2, 11040, Note_on_c, 0, 74, 100
2, 11040, Note_on_c, 0, 65, 100
2, 11159, Note_on_c, 0, 65, 0
2, 11159, Note_on_c, 0, 74, 0
2, 11160, Note_on_c, 0, 73, 100
2, 11160, Note_on_c, 0, 64, 100
2, 11279, Note_on_c, 0, 64, 0
2, 11279, Note_on_c, 0, 73, 0
2, 11280, Note_on_c, 0, 74, 100
2, 11280, Note_on_c, 0, 65, 100
2, 11519, Note_on_c, 0, 65, 0
2, 11519, Note_on_c, 0, 74, 0
2, 11520, Note_on_c, 0, 77, 100
2, 11639, Note_on_c, 0, 77, 0
2, 11640, Note_on_c, 0, 81, 100
2, 11759, Note_on_c, 0, 81, 0
2, 11760, Note_on_c, 0, 84, 100
2, 11760, Note_on_c, 0, 65, 100
2, 11879, Note_on_c, 0, 65, 0
2, 11880, Note_on_c, 0, 69, 100
2, 11999, Note_on_c, 0, 69, 0
2, 11999, Note_on_c, 0, 84, 0
2, 12000, Note_on_c, 0, 82, 100
2, 12000, Note_on_c, 0, 72, 100
2, 12119, Note_on_c, 0, 82, 0
2, 12120, Note_on_c, 0, 81, 100
2, 12179, Note_on_c, 0, 81, 0
2, 12180, Note_on_c, 0, 79, 100
2, 12180, Note_on_c, 0, 79, 100
2, 12239, Note_on_c, 0, 79, 0
2, 12239, Note_on_c, 0, 79, 0
2, 12239, Note_on_c, 0, 72, 0
2, 12240, Note_on_c, 0, 81, 100
2, 12240, Note_on_c, 0, 72, 100
2, 12359, Note_on_c, 0, 72, 0
2, 12360, Note_on_c, 0, 70, 100
2, 12419, Note_on_c, 0, 70, 0
2, 12420, Note_on_c, 0, 69, 100
2, 12479, Note_on_c, 0, 69, 0
2, 12479, Note_on_c, 0, 81, 0
2, 12480, Note_on_c, 0, 79, 100
2, 12480, Note_on_c, 0, 70, 100
2, 12530, Note_on_c, 0, 70, 0
2, 12530, Note_on_c, 0, 79, 0
2, 12600, Note_on_c, 0, 77, 100
2, 12600, Note_on_c, 0, 69, 100
2, 12650, Note_on_c, 0, 69, 0
2, 12650, Note_on_c, 0, 77, 0
2, 12720, Note_on_c, 0, 76, 100
2, 12720, Note_on_c, 0, 67, 100
2, 12959, Note_on_c, 0, 67, 0
2, 12959, Note_on_c, 0, 76, 0
2, 12960, Note_on_c, 0, 77, 100
2, 13079, Note_on_c, 0, 77, 0
2, 13080, Note_on_c, 0, 81, 100
2, 13199, Note_on_c, 0, 81, 0
2, 13200, Note_on_c, 0, 84, 100
2, 13200, Note_on_c, 0, 65, 100
2, 13319, Note_on_c, 0, 65, 0
2, 13320, Note_on_c, 0, 69, 100
2, 13439, Note_on_c, 0, 69, 0
2, 13439, Note_on_c, 0, 84, 0
2, 13440, Note_on_c, 0, 82, 100
2, 13440, Note_on_c, 0, 72, 100
2, 13559, Note_on_c, 0, 82, 0
2, 13560, Note_on_c, 0, 81, 100
2, 13619, Note_on_c, 0, 81, 0
2, 13620, Note_on_c, 0, 79, 100
2, 13620, Note_on_c, 0, 79, 100
2, 13679, Note_on_c, 0, 79, 0
2, 13679, Note_on_c, 0, 79, 0
2, 13679, Note_on_c, 0, 72, 0
2, 13680, Note_on_c, 0, 81, 100
2, 13680, Note_on_c, 0, 72, 100
2, 13799, Note_on_c, 0, 72, 0
2, 13800, Note_on_c, 0, 70, 100
2, 13859, Note_on_c, 0, 70, 0
2, 13860, Note_on_c, 0, 69, 100
2, 13919, Note_on_c, 0, 69, 0
2, 13919, Note_on_c, 0, 81, 0
2, 13920, Note_on_c, 0, 79, 100
2, 13920, Note_on_c, 0, 70, 100
2, 13970, Note_on_c, 0, 70, 0
2, 13970, Note_on_c, 0, 79, 0
2, 14040, Note_on_c, 0, 76, 100
2, 14040, Note_on_c, 0, 67, 100
2, 14090, Note_on_c, 0, 67, 0
2, 14090, Note_on_c, 0, 76, 0
2, 14160, Note_on_c, 0, 77, 100
2, 14160, Note_on_c, 0, 69, 100
2, 14399, Note_on_c, 0, 69, 0
2, 14399, Note_on_c, 0, 77, 0
2, 14400, Note_on_c, 0, 77, 100
2, 14519, Note_on_c, 0, 77, 0
2, 14520, Note_on_c, 0, 81, 100
2, 14639, Note_on_c, 0, 81, 0
2, 14640, Note_on_c, 0, 84, 100
2, 14640, Note_on_c, 0, 65, 100
2, 14759, Note_on_c, 0, 65, 0
2, 14760, Note_on_c, 0, 69, 100
2, 14879, Note_on_c, 0, 69, 0
2, 14879, Note_on_c, 0, 84, 0
2, 14880, Note_on_c, 0, 82, 100
2, 14880, Note_on_c, 0, 72, 100
2, 14999, Note_on_c, 0, 82, 0
2, 15000, Note_on_c, 0, 81, 100
2, 15059, Note_on_c, 0, 81, 0
2, 15060, Note_on_c, 0, 79, 100
2, 15060, Note_on_c, 0, 79, 100
2, 15119, Note_on_c, 0, 79, 0
2, 15119, Note_on_c, 0, 79, 0
2, 15119, Note_on_c, 0, 72, 0
2, 15120, Note_on_c, 0, 81, 100
2, 15120, Note_on_c, 0, 72, 100
2, 15239, Note_on_c, 0, 72, 0
2, 15240, Note_on_c, 0, 70, 100
2, 15299, Note_on_c, 0, 70, 0
2, 15300, Note_on_c, 0, 69, 100
2, 15359, Note_on_c, 0, 69, 0
2, 15359, Note_on_c, 0, 81, 0
2, 15360, Note_on_c, 0, 79, 100
2, 15360, Note_on_c, 0, 70, 100
2, 15410, Note_on_c, 0, 70, 0
2, 15410, Note_on_c, 0, 79, 0
2, 15480, Note_on_c, 0, 77, 100
2, 15480, Note_on_c, 0, 69, 100
2, 15530, Note_on_c, 0, 69, 0
2, 15530, Note_on_c, 0, 77, 0
2, 15600, Note_on_c, 0, 76, 100
2, 15600, Note_on_c, 0, 67, 100
2, 15839, Note_on_c, 0, 67, 0
2, 15839, Note_on_c, 0, 76, 0
2, 15840, Note_on_c, 0, 77, 100
2, 15959, Note_on_c, 0, 77, 0
2, 15960, Note_on_c, 0, 81, 100
2, 16079, Note_on_c, 0, 81, 0
2, 16080, Note_on_c, 0, 84, 100
2, 16080, Note_on_c, 0, 65, 100
2, 16199, Note_on_c, 0, 65, 0
2, 16200, Note_on_c, 0, 69, 100
2, 16319, Note_on_c, 0, 69, 0
2, 16319, Note_on_c, 0, 84, 0
2, 16320, Note_on_c, 0, 82, 100
2, 16320, Note_on_c, 0, 72, 100
2, 16439, Note_on_c, 0, 82, 0
2, 16440, Note_on_c, 0, 81, 100
2, 16499, Note_on_c, 0, 81, 0
2, 16500, Note_on_c, 0, 79, 100
2, 16500, Note_on_c, 0, 79, 100
2, 16559, Note_on_c, 0, 79, 0
2, 16559, Note_on_c, 0, 79, 0
2, 16559, Note_on_c, 0, 72, 0
2, 16560, Note_on_c, 0, 81, 100
2, 16560, Note_on_c, 0, 72, 100
2, 16679, Note_on_c, 0, 72, 0
2, 16680, Note_on_c, 0, 70, 100
2, 16739, Note_on_c, 0, 70, 0
2, 16740, Note_on_c, 0, 69, 100
2, 16799, Note_on_c, 0, 69, 0
2, 16799, Note_on_c, 0, 81, 0
2, 16800, Note_on_c, 0, 79, 100
2, 16800, Note_on_c, 0, 70, 100
2, 16850, Note_on_c, 0, 70, 0
2, 16850, Note_on_c, 0, 79, 0
2, 16920, Note_on_c, 0, 76, 100
2, 16920, Note_on_c, 0, 67, 100
2, 16970, Note_on_c, 0, 67, 0
2, 16970, Note_on_c, 0, 76, 0
2, 17040, Note_on_c, 0, 77, 100
2, 17040, Note_on_c, 0, 69, 100
2, 17279, Note_on_c, 0, 69, 0
2, 17279, Note_on_c, 0, 77, 0
2, 17279, End_track
3, 0, Start_track
3, 0, Control_c, 1, 0, 0
3, 0, Control_c, 1, 7, 100
3, 0, Control_c, 1, 10, 95
3, 0, Program_c, 1, 0
3, 480, Note_on_c, 1, 48, 100
3, 599, Note_on_c, 1, 48, 0
3, 600, Note_on_c, 1, 52, 100
3, 719, Note_on_c, 1, 52, 0
3, 720, Note_on_c, 1, 53, 100
3, 959, Note_on_c, 1, 53, 0
3, 960, Note_on_c, 1, 46, 100
3, 1010, Note_on_c, 1, 46, 0
3, 1080, Note_on_c, 1, 47, 100
3, 1130, Note_on_c, 1, 47, 0
3, 1200, Note_on_c, 1, 48, 100
3, 1319, Note_on_c, 1, 48, 0
3, 1320, Note_on_c, 1, 36, 100
3, 1439, Note_on_c, 1, 36, 0
3, 1920, Note_on_c, 1, 48, 100
3, 2039, Note_on_c, 1, 48, 0
3, 2040, Note_on_c, 1, 52, 100
3, 2159, Note_on_c, 1, 52, 0
3, 2160, Note_on_c, 1, 53, 100
3, 2399, Note_on_c, 1, 53, 0
3, 2400, Note_on_c, 1, 58, 100
3, 2450, Note_on_c, 1, 58, 0
3, 2520, Note_on_c, 1, 60, 100
3, 2570, Note_on_c, 1, 60, 0
3, 2640, Note_on_c, 1, 53, 100
3, 2759, Note_on_c, 1, 53, 0
3, 2760, Note_on_c, 1, 41, 100
3, 2879, Note_on_c, 1, 41, 0
3, 3360, Note_on_c, 1, 48, 100
3, 3479, Note_on_c, 1, 48, 0
3, 3480, Note_on_c, 1, 52, 100
3, 3599, Note_on_c, 1, 52, 0
3, 3600, Note_on_c, 1, 53, 100
3, 3839, Note_on_c, 1, 53, 0
3, 3840, Note_on_c, 1, 46, 100
3, 3890, Note_on_c, 1, 46, 0
3, 3960, Note_on_c, 1, 47, 100
3, 4010, Note_on_c, 1, 47, 0
3, 4080, Note_on_c, 1, 48, 100
3, 4199, Note_on_c, 1, 48, 0
3, 4200, Note_on_c, 1, 36, 100
3, 4319, Note_on_c, 1, 36, 0
3, 4800, Note_on_c, 1, 48, 100
3, 4919, Note_on_c, 1, 48, 0
3, 4920, Note_on_c, 1, 52, 100
3, 5039, Note_on_c, 1, 52, 0
3, 5040, Note_on_c, 1, 53, 100
3, 5279, Note_on_c, 1, 53, 0
3, 5280, Note_on_c, 1, 58, 100
3, 5330, Note_on_c, 1, 58, 0
3, 5400, Note_on_c, 1, 60, 100
3, 5450, Note_on_c, 1, 60, 0
3, 5520, Note_on_c, 1, 53, 100
3, 5639, Note_on_c, 1, 53, 0
3, 5640, Note_on_c, 1, 41, 100
3, 5759, Note_on_c, 1, 41, 0
3, 5760, Note_on_c, 1, 53, 100
3, 5879, Note_on_c, 1, 53, 0
3, 5880, Note_on_c, 1, 62, 100
3, 5999, Note_on_c, 1, 62, 0
3, 6000, Note_on_c, 1, 57, 100
3, 6059, Note_on_c, 1, 57, 0
3, 6060, Note_on_c, 1, 61, 100
3, 6119, Note_on_c, 1, 61, 0
3, 6120, Note_on_c, 1, 64, 100
3, 6179, Note_on_c, 1, 64, 0
3, 6180, Note_on_c, 1, 61, 100
3, 6239, Note_on_c, 1, 61, 0
3, 6240, Note_on_c, 1, 58, 100
3, 6359, Note_on_c, 1, 58, 0
3, 6360, Note_on_c, 1, 58, 100
3, 6479, Note_on_c, 1, 58, 0
3, 6480, Note_on_c, 1, 57, 100
3, 6539, Note_on_c, 1, 57, 0
3, 6540, Note_on_c, 1, 45, 100
3, 6599, Note_on_c, 1, 45, 0
3, 6600, Note_on_c, 1, 57, 100
3, 6659, Note_on_c, 1, 57, 0
3, 6660, Note_on_c, 1, 55, 100
3, 6719, Note_on_c, 1, 55, 0
3, 6720, Note_on_c, 1, 53, 100
3, 6839, Note_on_c, 1, 53, 0
3, 6960, Note_on_c, 1, 58, 100
3, 7079, Note_on_c, 1, 58, 0
3, 7200, Note_on_c, 1, 52, 100
3, 7319, Note_on_c, 1, 52, 0
3, 7440, Note_on_c, 1, 53, 100
3, 7559, Note_on_c, 1, 53, 0
3, 7680, Note_on_c, 1, 49, 100
3, 7799, Note_on_c, 1, 49, 0
3, 7800, Note_on_c, 1, 49, 100
3, 7919, Note_on_c, 1, 49, 0
3, 7920, Note_on_c, 1, 49, 100
3, 8159, Note_on_c, 1, 49, 0
3, 8160, Note_on_c, 1, 50, 100
3, 8279, Note_on_c, 1, 50, 0
3, 8280, Note_on_c, 1, 45, 100
3, 8399, Note_on_c, 1, 45, 0
3, 8400, Note_on_c, 1, 50, 100
3, 8519, Note_on_c, 1, 50, 0
3, 8520, Note_on_c, 1, 38, 100
3, 8639, Note_on_c, 1, 38, 0
3, 8640, Note_on_c, 1, 53, 100
3, 8759, Note_on_c, 1, 53, 0
3, 8760, Note_on_c, 1, 62, 100
3, 8879, Note_on_c, 1, 62, 0
3, 8880, Note_on_c, 1, 57, 100
3, 8939, Note_on_c, 1, 57, 0
3, 8940, Note_on_c, 1, 61, 100
3, 8999, Note_on_c, 1, 61, 0
3, 9000, Note_on_c, 1, 64, 100
3, 9059, Note_on_c, 1, 64, 0
3, 9060, Note_on_c, 1, 61, 100
3, 9119, Note_on_c, 1, 61, 0
3, 9120, Note_on_c, 1, 58, 100
3, 9239, Note_on_c, 1, 58, 0
3, 9240, Note_on_c, 1, 58, 100
3, 9359, Note_on_c, 1, 58, 0
3, 9360, Note_on_c, 1, 57, 100
3, 9419, Note_on_c, 1, 57, 0
3, 9420, Note_on_c, 1, 45, 100
3, 9479, Note_on_c, 1, 45, 0
3, 9480, Note_on_c, 1, 57, 100
3, 9539, Note_on_c, 1, 57, 0
3, 9540, Note_on_c, 1, 55, 100
3, 9599, Note_on_c, 1, 55, 0
3, 9600, Note_on_c, 1, 53, 100
3, 9719, Note_on_c, 1, 53, 0
3, 9840, Note_on_c, 1, 58, 100
3, 9959, Note_on_c, 1, 58, 0
3, 10080, Note_on_c, 1, 52, 100
3, 10199, Note_on_c, 1, 52, 0
3, 10320, Note_on_c, 1, 53, 100
3, 10439, Note_on_c, 1, 53, 0
3, 10560, Note_on_c, 1, 49, 100
3, 10679, Note_on_c, 1, 49, 0
3, 10680, Note_on_c, 1, 49, 100
3, 10799, Note_on_c, 1, 49, 0
3, 10800, Note_on_c, 1, 49, 100
3, 11039, Note_on_c, 1, 49, 0
3, 11040, Note_on_c, 1, 50, 100
3, 11159, Note_on_c, 1, 50, 0
3, 11160, Note_on_c, 1, 45, 100
3, 11279, Note_on_c, 1, 45, 0
3, 11280, Note_on_c, 1, 50, 100
3, 11399, Note_on_c, 1, 50, 0
3, 11400, Note_on_c, 1, 38, 100
3, 11519, Note_on_c, 1, 38, 0
3, 12000, Note_on_c, 1, 48, 100
3, 12119, Note_on_c, 1, 48, 0
3, 12120, Note_on_c, 1, 52, 100
3, 12239, Note_on_c, 1, 52, 0
3, 12240, Note_on_c, 1, 53, 100
3, 12479, Note_on_c, 1, 53, 0
3, 12480, Note_on_c, 1, 46, 100
3, 12530, Note_on_c, 1, 46, 0
3, 12600, Note_on_c, 1, 47, 100
3, 12650, Note_on_c, 1, 47, 0
3, 12720, Note_on_c, 1, 48, 100
3, 12839, Note_on_c, 1, 48, 0
3, 12840, Note_on_c, 1, 36, 100
3, 12959, Note_on_c, 1, 36, 0
3, 13440, Note_on_c, 1, 48, 100
3, 13559, Note_on_c, 1, 48, 0
3, 13560, Note_on_c, 1, 52, 100
3, 13679, Note_on_c, 1, 52, 0
3, 13680, Note_on_c, 1, 53, 100
3, 13919, Note_on_c, 1, 53, 0
3, 13920, Note_on_c, 1, 58, 100
3, 13970, Note_on_c, 1, 58, 0
3, 14040, Note_on_c, 1, 60, 100
3, 14090, Note_on_c, 1, 60, 0
3, 14160, Note_on_c, 1, 53, 100
3, 14279, Note_on_c, 1, 53, 0
3, 14280, Note_on_c, 1, 41, 100
3, 14399, Note_on_c, 1, 41, 0
3, 14880, Note_on_c, 1, 48, 100
3, 14999, Note_on_c, 1, 48, 0
3, 15000, Note_on_c, 1, 52, 100
3, 15119, Note_on_c, 1, 52, 0
3, 15120, Note_on_c, 1, 53, 100
3, 15359, Note_on_c, 1, 53, 0
3, 15360, Note_on_c, 1, 46, 100
3, 15410, Note_on_c, 1, 46, 0
3, 15480, Note_on_c, 1, 47, 100
3, 15530, Note_on_c, 1, 47, 0
3, 15600, Note_on_c, 1, 48, 100
3, 15719, Note_on_c, 1, 48, 0
3, 15720, Note_on_c, 1, 36, 100
3, 15839, Note_on_c, 1, 36, 0
3, 16320, Note_on_c, 1, 48, 100
3, 16439, Note_on_c, 1, 48, 0
3, 16440, Note_on_c, 1, 52, 100
3, 16559, Note_on_c, 1, 52, 0
3, 16560, Note_on_c, 1, 53, 100
3, 16799, Note_on_c, 1, 53, 0
3, 16800, Note_on_c, 1, 58, 100
3, 16850, Note_on_c, 1, 58, 0
3, 16920, Note_on_c, 1, 60, 100
3, 16970, Note_on_c, 1, 60, 0
3, 17040, Note_on_c, 1, 53, 100
3, 17159, Note_on_c, 1, 53, 0
3, 17160, Note_on_c, 1, 41, 100
3, 17279, Note_on_c, 1, 41, 0
3, 17279, End_track
4, 0, Start_track
4, 0, End_track
0, 0, End_of_file