0, 0, Header, 1, 11, 192
1, 0, Start_track
1, 0, Title_t, "Fl\366te-Konzert Nr. 2"
1, 0, Text_t, "By Wolfgang Amadeus Mozart, KV.314"
1, 0, Copyright_t, "This Selection is in the Public Domain"
1, 0, Text_t, "Generated by NoteWorthy Composer"
1, 0, Tempo, 1500000
1, 0, Key_signature, 1, "major"
1, 0, Time_signature, 3, 2, 24, 8
1, 48211, Tempo, 1538461
1, 48230, Tempo, 1578947
1, 48249, Tempo, 1621621
1, 48268, Tempo, 1666666
1, 48288, Tempo, 1714285
1, 48307, Tempo, 1764705
1, 48326, Tempo, 1818181
1, 48345, Tempo, 1875000
1, 48364, Tempo, 1935483
1, 48384, Tempo, 2000000
1, 48768, Tempo, 3000000
1, 48960, Tempo, 1500000
1, 48995, Tempo, 1463414
1, 49030, Tempo, 1428571
1, 49065, Tempo, 1395348
1, 49100, Tempo, 1363636
1, 49135, Tempo, 1333333
1, 49170, Tempo, 1304347
1, 49205, Tempo, 1276595
1, 49240, Tempo, 1250000
1, 49275, Tempo, 1224489
1, 49310, Tempo, 1200000
1, 49345, Tempo, 1176470
1, 49380, Tempo, 1153846
1, 49416, Tempo, 1132075
1, 49451, Tempo, 1111111
1, 49486, Tempo, 1090909
1, 49521, Tempo, 1071428
1, 49556, Tempo, 1052631
1, 49591, Tempo, 1034482
1, 49626, Tempo, 1016949
1, 49661, Tempo, 1000000
1, 49696, Tempo, 983606
1, 49731, Tempo, 967741
1, 49766, Tempo, 952380
1, 49801, Tempo, 937500
1, 49836, Tempo, 923076
1, 49872, Tempo, 909090
1, 50016, Tempo, 454545
1, 50064, Tempo, 909090
1, 50214, Tempo, 923076
1, 50221, Tempo, 937500
1, 50227, Tempo, 952380
1, 50234, Tempo, 967741
1, 50241, Tempo, 983606
1, 50247, Tempo, 1000000
1, 50254, Tempo, 1016949
1, 50261, Tempo, 1034482
1, 50267, Tempo, 1052631
1, 50274, Tempo, 1071428
1, 50281, Tempo, 1090909
1, 50287, Tempo, 1111111
1, 50294, Tempo, 1132075
1, 50301, Tempo, 1153846
1, 50307, Tempo, 1176470
1, 50314, Tempo, 1200000
1, 50321, Tempo, 1224489
1, 50327, Tempo, 1250000
1, 50334, Tempo, 1276595
1, 50341, Tempo, 1304347
1, 50347, Tempo, 1333333
1, 50354, Tempo, 1363636
1, 50361, Tempo, 1395348
1, 50367, Tempo, 1428571
1, 50374, Tempo, 1463414
1, 50381, Tempo, 1500000
1, 50387, Tempo, 1538461
1, 50394, Tempo, 1578947
1, 50401, Tempo, 1621621
1, 50407, Tempo, 1666666
1, 50414, Tempo, 1714285
1, 50421, Tempo, 1764705
1, 50427, Tempo, 1818181
1, 50434, Tempo, 1875000
1, 50441, Tempo, 1935483
1, 50448, Tempo, 2000000
1, 50496, Tempo, 1000000
1, 50688, Tempo, 1500000
1, 50688, End_track
2, 0, Start_track
2, 0, MIDI_port, 0
2, 0, Title_t, "Oboe I"
2, 0, Program_c, 1, 68
2, 0, Control_c, 1, 7, 80
2, 0, Control_c, 1, 10, 64
2, 576, Note_on_c, 1, 67, 92
2, 768, Note_on_c, 1, 67, 0
2, 768, Note_on_c, 1, 72, 92
2, 960, Note_on_c, 1, 72, 0
2, 960, Note_on_c, 1, 76, 92
2, 1120, Note_on_c, 1, 76, 0
2, 1152, Note_on_c, 1, 76, 92
2, 1200, Note_on_c, 1, 76, 0
2, 1200, Note_on_c, 1, 74, 92
2, 1246, Note_on_c, 1, 74, 0
2, 1248, Note_on_c, 1, 74, 92
2, 1408, Note_on_c, 1, 74, 0
2, 1440, Note_on_c, 1, 76, 92
2, 1488, Note_on_c, 1, 76, 0
2, 1488, Note_on_c, 1, 74, 92
2, 1534, Note_on_c, 1, 74, 0
2, 1536, Note_on_c, 1, 74, 92
2, 1584, Note_on_c, 1, 74, 0
2, 1584, Note_on_c, 1, 72, 92
2, 1632, Note_on_c, 1, 72, 0
2, 1632, Note_on_c, 1, 71, 92
2, 1680, Note_on_c, 1, 71, 0
2, 1680, Note_on_c, 1, 72, 92
2, 1726, Note_on_c, 1, 72, 0
2, 1728, Note_on_c, 1, 69, 92
2, 1920, Note_on_c, 1, 69, 0
2, 1920, Note_on_c, 1, 71, 92
2, 2080, Note_on_c, 1, 71, 0
2, 3456, Note_on_c, 1, 76, 92
2, 3984, Note_on_c, 1, 76, 0
2, 4032, Note_on_c, 1, 79, 45
2, 4128, Note_on_c, 1, 79, 0
2, 4128, Note_on_c, 1, 78, 45
2, 4222, Note_on_c, 1, 78, 0
2, 4224, Note_on_c, 1, 79, 45
2, 4320, Note_on_c, 1, 79, 0
2, 4320, Note_on_c, 1, 77, 45
2, 4414, Note_on_c, 1, 77, 0
2, 4416, Note_on_c, 1, 76, 45
2, 4510, Note_on_c, 1, 76, 0
2, 19296, Note_on_c, 1, 86, 92
2, 19392, Note_on_c, 1, 86, 0
2, 19392, Note_on_c, 1, 85, 92
2, 19488, Note_on_c, 1, 85, 0
2, 19488, Note_on_c, 1, 84, 92
2, 19582, Note_on_c, 1, 84, 0
2, 19584, Note_on_c, 1, 83, 92
2, 19744, Note_on_c, 1, 83, 0
2, 22464, Note_on_c, 1, 74, 92
2, 23040, Note_on_c, 1, 74, 0
2, 23040, Note_on_c, 1, 76, 92
2, 23616, Note_on_c, 1, 76, 0
2, 23616, Note_on_c, 1, 78, 92
2, 23710, Note_on_c, 1, 78, 0
2, 26496, Note_on_c, 1, 78, 45
2, 26880, Note_on_c, 1, 78, 0
2, 26880, Note_on_c, 1, 79, 45
2, 27040, Note_on_c, 1, 79, 0
2, 27072, Note_on_c, 1, 81, 45
2, 27456, Note_on_c, 1, 81, 0
2, 27456, Note_on_c, 1, 83, 45
2, 27616, Note_on_c, 1, 83, 0
2, 27648, Note_on_c, 1, 84, 45
2, 27742, Note_on_c, 1, 84, 0
2, 28800, Note_on_c, 1, 67, 92
2, 28992, Note_on_c, 1, 67, 0
2, 28992, Note_on_c, 1, 72, 92
2, 29184, Note_on_c, 1, 72, 0
2, 29184, Note_on_c, 1, 76, 92
2, 29344, Note_on_c, 1, 76, 0
2, 29376, Note_on_c, 1, 76, 92
2, 29424, Note_on_c, 1, 76, 0
2, 29424, Note_on_c, 1, 74, 92
2, 29470, Note_on_c, 1, 74, 0
2, 29472, Note_on_c, 1, 74, 92
2, 29632, Note_on_c, 1, 74, 0
2, 29664, Note_on_c, 1, 76, 92
2, 29712, Note_on_c, 1, 76, 0
2, 29712, Note_on_c, 1, 74, 92
2, 29758, Note_on_c, 1, 74, 0
2, 29760, Note_on_c, 1, 74, 92
2, 29808, Note_on_c, 1, 74, 0
2, 29808, Note_on_c, 1, 72, 92
2, 29856, Note_on_c, 1, 72, 0
2, 29856, Note_on_c, 1, 71, 92
2, 29904, Note_on_c, 1, 71, 0
2, 29904, Note_on_c, 1, 72, 92
2, 29950, Note_on_c, 1, 72, 0
2, 29952, Note_on_c, 1, 69, 92
2, 30144, Note_on_c, 1, 69, 0
2, 30144, Note_on_c, 1, 71, 92
2, 30304, Note_on_c, 1, 71, 0
2, 31680, Note_on_c, 1, 83, 92
2, 32208, Note_on_c, 1, 83, 0
2, 44352, Note_on_c, 1, 79, 92
2, 44928, Note_on_c, 1, 79, 0
2, 44928, Note_on_c, 1, 81, 92
2, 45504, Note_on_c, 1, 81, 0
2, 45504, Note_on_c, 1, 83, 92
2, 45598, Note_on_c, 1, 83, 0
2, 46656, Note_on_c, 1, 76, 92
2, 47184, Note_on_c, 1, 76, 0
2, 47232, Note_on_c, 1, 79, 92
2, 47328, Note_on_c, 1, 79, 0
2, 47328, Note_on_c, 1, 78, 92
2, 47422, Note_on_c, 1, 78, 0
2, 47424, Note_on_c, 1, 79, 92
2, 47518, Note_on_c, 1, 79, 0
2, 48192, Note_on_c, 1, 74, 92
2, 48240, Note_on_c, 1, 74, 0
2, 48240, Note_on_c, 1, 75, 92
2, 48288, Note_on_c, 1, 75, 0
2, 48288, Note_on_c, 1, 76, 92
2, 48336, Note_on_c, 1, 76, 0
2, 48336, Note_on_c, 1, 72, 92
2, 48382, Note_on_c, 1, 72, 0
2, 48384, Note_on_c, 1, 71, 92
2, 48720, Note_on_c, 1, 71, 0
2, 51840, Note_on_c, 1, 67, 92
2, 52032, Note_on_c, 1, 67, 0
2, 52032, Note_on_c, 1, 72, 92
2, 52224, Note_on_c, 1, 72, 0
2, 52224, Note_on_c, 1, 76, 92
2, 52384, Note_on_c, 1, 76, 0
2, 52416, Note_on_c, 1, 76, 92
2, 52464, Note_on_c, 1, 76, 0
2, 52464, Note_on_c, 1, 74, 92
2, 52510, Note_on_c, 1, 74, 0
2, 52512, Note_on_c, 1, 74, 92
2, 52672, Note_on_c, 1, 74, 0
2, 52704, Note_on_c, 1, 76, 92
2, 52752, Note_on_c, 1, 76, 0
2, 52752, Note_on_c, 1, 74, 92
2, 52798, Note_on_c, 1, 74, 0
2, 52800, Note_on_c, 1, 74, 92
2, 52848, Note_on_c, 1, 74, 0
2, 52848, Note_on_c, 1, 72, 92
2, 52896, Note_on_c, 1, 72, 0
2, 52896, Note_on_c, 1, 71, 92
2, 52944, Note_on_c, 1, 71, 0
2, 52944, Note_on_c, 1, 72, 92
2, 52990, Note_on_c, 1, 72, 0
2, 52992, Note_on_c, 1, 67, 45
2, 53152, Note_on_c, 1, 67, 0
2, 53184, Note_on_c, 1, 64, 45
2, 53344, Note_on_c, 1, 64, 0
2, 53376, Note_on_c, 1, 66, 45
2, 53536, Note_on_c, 1, 66, 0
2, 53568, Note_on_c, 1, 69, 45
2, 53760, Note_on_c, 1, 69, 0
2, 53760, Note_on_c, 1, 67, 45
2, 54016, Note_on_c, 1, 67, 0
2, 54016, End_track
3, 0, Start_track
3, 0, MIDI_port, 0
3, 0, Title_t, "Oboe II"
3, 0, Program_c, 1, 68
3, 0, Control_c, 1, 7, 80
3, 0, Control_c, 1, 10, 64
3, 576, Note_on_c, 1, 64, 92
3, 768, Note_on_c, 1, 64, 0
3, 768, Note_on_c, 1, 67, 92
3, 960, Note_on_c, 1, 67, 0
3, 960, Note_on_c, 1, 72, 92
3, 1120, Note_on_c, 1, 72, 0
3, 1152, Note_on_c, 1, 72, 92
3, 1200, Note_on_c, 1, 72, 0
3, 1200, Note_on_c, 1, 71, 92
3, 1246, Note_on_c, 1, 71, 0
3, 1248, Note_on_c, 1, 71, 92
3, 1408, Note_on_c, 1, 71, 0
3, 1440, Note_on_c, 1, 72, 92
3, 1488, Note_on_c, 1, 72, 0
3, 1488, Note_on_c, 1, 71, 92
3, 1534, Note_on_c, 1, 71, 0
3, 1536, Note_on_c, 1, 71, 92
3, 1584, Note_on_c, 1, 71, 0
3, 1584, Note_on_c, 1, 69, 92
3, 1632, Note_on_c, 1, 69, 0
3, 1632, Note_on_c, 1, 67, 92
3, 1680, Note_on_c, 1, 67, 0
3, 1680, Note_on_c, 1, 69, 92
3, 1726, Note_on_c, 1, 69, 0
3, 1728, Note_on_c, 1, 66, 92
3, 1920, Note_on_c, 1, 66, 0
3, 1920, Note_on_c, 1, 67, 92
3, 2080, Note_on_c, 1, 67, 0
3, 3456, Note_on_c, 1, 64, 92
3, 3984, Note_on_c, 1, 64, 0
3, 4032, Note_on_c, 1, 71, 45
3, 4128, Note_on_c, 1, 71, 0
3, 4128, Note_on_c, 1, 72, 45
3, 4222, Note_on_c, 1, 72, 0
3, 4224, Note_on_c, 1, 71, 45
3, 4416, Note_on_c, 1, 71, 0
3, 4416, Note_on_c, 1, 72, 45
3, 4510, Note_on_c, 1, 72, 0
3, 19296, Note_on_c, 1, 74, 92
3, 19392, Note_on_c, 1, 74, 0
3, 19392, Note_on_c, 1, 73, 92
3, 19488, Note_on_c, 1, 73, 0
3, 19488, Note_on_c, 1, 72, 92
3, 19582, Note_on_c, 1, 72, 0
3, 19584, Note_on_c, 1, 71, 92
3, 19744, Note_on_c, 1, 71, 0
3, 22464, Note_on_c, 1, 74, 92
3, 23040, Note_on_c, 1, 74, 0
3, 23040, Note_on_c, 1, 73, 92
3, 23616, Note_on_c, 1, 73, 0
3, 23616, Note_on_c, 1, 72, 92
3, 23710, Note_on_c, 1, 72, 0
3, 26496, Note_on_c, 1, 74, 45
3, 26880, Note_on_c, 1, 74, 0
3, 26880, Note_on_c, 1, 76, 45
3, 27040, Note_on_c, 1, 76, 0
3, 27072, Note_on_c, 1, 78, 45
3, 27456, Note_on_c, 1, 78, 0
3, 27456, Note_on_c, 1, 79, 45
3, 27616, Note_on_c, 1, 79, 0
3, 27648, Note_on_c, 1, 81, 45
3, 27742, Note_on_c, 1, 81, 0
3, 28800, Note_on_c, 1, 64, 92
3, 28992, Note_on_c, 1, 64, 0
3, 28992, Note_on_c, 1, 67, 92
3, 29184, Note_on_c, 1, 67, 0
3, 29184, Note_on_c, 1, 72, 92
3, 29344, Note_on_c, 1, 72, 0
3, 29376, Note_on_c, 1, 72, 92
3, 29424, Note_on_c, 1, 72, 0
3, 29424, Note_on_c, 1, 71, 92
3, 29470, Note_on_c, 1, 71, 0
3, 29472, Note_on_c, 1, 71, 92
3, 29632, Note_on_c, 1, 71, 0
3, 29664, Note_on_c, 1, 72, 92
3, 29712, Note_on_c, 1, 72, 0
3, 29712, Note_on_c, 1, 71, 92
3, 29758, Note_on_c, 1, 71, 0
3, 29760, Note_on_c, 1, 71, 92
3, 29808, Note_on_c, 1, 71, 0
3, 29808, Note_on_c, 1, 69, 92
3, 29856, Note_on_c, 1, 69, 0
3, 29856, Note_on_c, 1, 67, 92
3, 29904, Note_on_c, 1, 67, 0
3, 29904, Note_on_c, 1, 69, 92
3, 29950, Note_on_c, 1, 69, 0
3, 29952, Note_on_c, 1, 66, 92
3, 30144, Note_on_c, 1, 66, 0
3, 30144, Note_on_c, 1, 67, 92
3, 30304, Note_on_c, 1, 67, 0
3, 31680, Note_on_c, 1, 74, 92
3, 32208, Note_on_c, 1, 74, 0
3, 44352, Note_on_c, 1, 67, 92
3, 44928, Note_on_c, 1, 67, 0
3, 44928, Note_on_c, 1, 66, 92
3, 45504, Note_on_c, 1, 66, 0
3, 45504, Note_on_c, 1, 65, 92
3, 45598, Note_on_c, 1, 65, 0
3, 46656, Note_on_c, 1, 76, 92
3, 47184, Note_on_c, 1, 76, 0
3, 47232, Note_on_c, 1, 71, 92
3, 47328, Note_on_c, 1, 71, 0
3, 47328, Note_on_c, 1, 72, 92
3, 47422, Note_on_c, 1, 72, 0
3, 47424, Note_on_c, 1, 71, 92
3, 47518, Note_on_c, 1, 71, 0
3, 48288, Note_on_c, 1, 72, 92
3, 48336, Note_on_c, 1, 72, 0
3, 48336, Note_on_c, 1, 69, 92
3, 48382, Note_on_c, 1, 69, 0
3, 48384, Note_on_c, 1, 67, 92
3, 48720, Note_on_c, 1, 67, 0
3, 51840, Note_on_c, 1, 64, 92
3, 52032, Note_on_c, 1, 64, 0
3, 52032, Note_on_c, 1, 67, 92
3, 52224, Note_on_c, 1, 67, 0
3, 52224, Note_on_c, 1, 72, 92
3, 52384, Note_on_c, 1, 72, 0
3, 52416, Note_on_c, 1, 72, 92
3, 52464, Note_on_c, 1, 72, 0
3, 52464, Note_on_c, 1, 71, 92
3, 52510, Note_on_c, 1, 71, 0
3, 52512, Note_on_c, 1, 71, 92
3, 52672, Note_on_c, 1, 71, 0
3, 52704, Note_on_c, 1, 72, 92
3, 52752, Note_on_c, 1, 72, 0
3, 52752, Note_on_c, 1, 71, 92
3, 52798, Note_on_c, 1, 71, 0
3, 52800, Note_on_c, 1, 71, 92
3, 52848, Note_on_c, 1, 71, 0
3, 52848, Note_on_c, 1, 69, 92
3, 52896, Note_on_c, 1, 69, 0
3, 52896, Note_on_c, 1, 67, 92
3, 52944, Note_on_c, 1, 67, 0
3, 52944, Note_on_c, 1, 69, 92
3, 52990, Note_on_c, 1, 69, 0
3, 52992, Note_on_c, 1, 67, 45
3, 53152, Note_on_c, 1, 67, 0
3, 53184, Note_on_c, 1, 76, 45
3, 53344, Note_on_c, 1, 76, 0
3, 53376, Note_on_c, 1, 69, 45
3, 53536, Note_on_c, 1, 69, 0
3, 53568, Note_on_c, 1, 72, 45
3, 53728, Note_on_c, 1, 72, 0
3, 53760, Note_on_c, 1, 71, 45
3, 54016, Note_on_c, 1, 71, 0
3, 54016, End_track
4, 0, Start_track
4, 0, MIDI_port, 0
4, 0, Title_t, "Corno I in F"
4, 0, Program_c, 5, 60
4, 0, Control_c, 5, 7, 80
4, 0, Control_c, 5, 10, 64
4, 576, Note_on_c, 5, 67, 92
4, 1104, Note_on_c, 5, 67, 0
4, 1152, Note_on_c, 5, 62, 92
4, 1680, Note_on_c, 5, 62, 0
4, 1824, Note_on_c, 5, 62, 92
4, 1918, Note_on_c, 5, 62, 0
4, 1920, Note_on_c, 5, 67, 92
4, 2014, Note_on_c, 5, 67, 0
4, 2016, Note_on_c, 5, 62, 92
4, 2110, Note_on_c, 5, 62, 0
4, 2112, Note_on_c, 5, 59, 92
4, 2206, Note_on_c, 5, 59, 0
4, 2208, Note_on_c, 5, 55, 92
4, 2302, Note_on_c, 5, 55, 0
4, 4224, Note_on_c, 5, 55, 45
4, 4510, Note_on_c, 5, 55, 0
4, 14400, Note_on_c, 5, 69, 45
4, 16864, Note_on_c, 5, 69, 0
4, 19296, Note_on_c, 5, 62, 92
4, 19390, Note_on_c, 5, 62, 0
4, 19392, Note_on_c, 5, 62, 92
4, 19486, Note_on_c, 5, 62, 0
4, 19488, Note_on_c, 5, 62, 92
4, 19582, Note_on_c, 5, 62, 0
4, 19584, Note_on_c, 5, 62, 92
4, 19744, Note_on_c, 5, 62, 0
4, 21312, Note_on_c, 5, 69, 45
4, 22416, Note_on_c, 5, 69, 0
4, 22464, Note_on_c, 5, 62, 92
4, 24720, Note_on_c, 5, 62, 0
4, 24768, Note_on_c, 5, 67, 45
4, 24928, Note_on_c, 5, 67, 0
4, 25344, Note_on_c, 5, 62, 45
4, 25504, Note_on_c, 5, 62, 0
4, 26496, Note_on_c, 5, 62, 45
4, 27742, Note_on_c, 5, 62, 0
4, 28800, Note_on_c, 5, 67, 92
4, 29328, Note_on_c, 5, 67, 0
4, 29376, Note_on_c, 5, 62, 92
4, 29904, Note_on_c, 5, 62, 0
4, 30048, Note_on_c, 5, 62, 92
4, 30142, Note_on_c, 5, 62, 0
4, 30144, Note_on_c, 5, 67, 92
4, 30238, Note_on_c, 5, 67, 0
4, 30240, Note_on_c, 5, 62, 92
4, 30334, Note_on_c, 5, 62, 0
4, 30336, Note_on_c, 5, 59, 92
4, 30430, Note_on_c, 5, 59, 0
4, 30432, Note_on_c, 5, 55, 92
4, 30526, Note_on_c, 5, 55, 0
4, 31680, Note_on_c, 5, 67, 92
4, 32208, Note_on_c, 5, 67, 0
4, 36288, Note_on_c, 5, 62, 45
4, 38752, Note_on_c, 5, 62, 0
4, 43200, Note_on_c, 5, 74, 45
4, 43360, Note_on_c, 5, 74, 0
4, 43392, Note_on_c, 5, 71, 45
4, 43552, Note_on_c, 5, 71, 0
4, 43584, Note_on_c, 5, 67, 45
4, 43744, Note_on_c, 5, 67, 0
4, 43776, Note_on_c, 5, 62, 45
4, 44304, Note_on_c, 5, 62, 0
4, 44352, Note_on_c, 5, 67, 92
4, 46816, Note_on_c, 5, 67, 0
4, 48384, Note_on_c, 5, 62, 92
4, 48720, Note_on_c, 5, 62, 0
4, 51840, Note_on_c, 5, 67, 92
4, 52368, Note_on_c, 5, 67, 0
4, 52416, Note_on_c, 5, 62, 92
4, 52944, Note_on_c, 5, 62, 0
4, 53376, Note_on_c, 5, 62, 45
4, 53536, Note_on_c, 5, 62, 0
4, 53568, Note_on_c, 5, 62, 45
4, 54046, Note_on_c, 5, 62, 0
4, 54046, End_track
5, 0, Start_track
5, 0, MIDI_port, 0
5, 0, Title_t, "Corno II in F"
5, 0, Program_c, 5, 60
5, 0, Control_c, 5, 7, 80
5, 0, Control_c, 5, 10, 64
5, 576, Note_on_c, 5, 55, 92
5, 1104, Note_on_c, 5, 55, 0
5, 1152, Note_on_c, 5, 50, 92
5, 1680, Note_on_c, 5, 50, 0
5, 1824, Note_on_c, 5, 50, 92
5, 1918, Note_on_c, 5, 50, 0
5, 1920, Note_on_c, 5, 55, 92
5, 2014, Note_on_c, 5, 55, 0
5, 2016, Note_on_c, 5, 62, 92
5, 2110, Note_on_c, 5, 62, 0
5, 2112, Note_on_c, 5, 59, 92
5, 2206, Note_on_c, 5, 59, 0
5, 2208, Note_on_c, 5, 55, 92
5, 2302, Note_on_c, 5, 55, 0
5, 4224, Note_on_c, 5, 55, 45
5, 4510, Note_on_c, 5, 55, 0
5, 14400, Note_on_c, 5, 69, 45
5, 16704, Note_on_c, 5, 69, 0
5, 16704, Note_on_c, 5, 62, 45
5, 16864, Note_on_c, 5, 62, 0
5, 19296, Note_on_c, 5, 62, 92
5, 19390, Note_on_c, 5, 62, 0
5, 19392, Note_on_c, 5, 62, 92
5, 19486, Note_on_c, 5, 62, 0
5, 19488, Note_on_c, 5, 62, 92
5, 19582, Note_on_c, 5, 62, 0
5, 19584, Note_on_c, 5, 55, 92
5, 19744, Note_on_c, 5, 55, 0
5, 21312, Note_on_c, 5, 69, 45
5, 22416, Note_on_c, 5, 69, 0
5, 22464, Note_on_c, 5, 50, 92
5, 24720, Note_on_c, 5, 50, 0
5, 24768, Note_on_c, 5, 55, 45
5, 24928, Note_on_c, 5, 55, 0
5, 25344, Note_on_c, 5, 50, 45
5, 25504, Note_on_c, 5, 50, 0
5, 26496, Note_on_c, 5, 50, 45
5, 27742, Note_on_c, 5, 50, 0
5, 28800, Note_on_c, 5, 55, 92
5, 29328, Note_on_c, 5, 55, 0
5, 29376, Note_on_c, 5, 50, 92
5, 29904, Note_on_c, 5, 50, 0
5, 30048, Note_on_c, 5, 50, 92
5, 30142, Note_on_c, 5, 50, 0
5, 30144, Note_on_c, 5, 55, 92
5, 30238, Note_on_c, 5, 55, 0
5, 30240, Note_on_c, 5, 62, 92
5, 30334, Note_on_c, 5, 62, 0
5, 30336, Note_on_c, 5, 59, 92
5, 30430, Note_on_c, 5, 59, 0
5, 30432, Note_on_c, 5, 55, 92
5, 30526, Note_on_c, 5, 55, 0
5, 31680, Note_on_c, 5, 55, 92
5, 32208, Note_on_c, 5, 55, 0
5, 36288, Note_on_c, 5, 50, 45
5, 38752, Note_on_c, 5, 50, 0
5, 43200, Note_on_c, 5, 62, 45
5, 43360, Note_on_c, 5, 62, 0
5, 43392, Note_on_c, 5, 59, 45
5, 43552, Note_on_c, 5, 59, 0
5, 43584, Note_on_c, 5, 55, 45
5, 43744, Note_on_c, 5, 55, 0
5, 43776, Note_on_c, 5, 50, 45
5, 44304, Note_on_c, 5, 50, 0
5, 44352, Note_on_c, 5, 55, 92
5, 46816, Note_on_c, 5, 55, 0
5, 48384, Note_on_c, 5, 50, 92
5, 48720, Note_on_c, 5, 50, 0
5, 51840, Note_on_c, 5, 55, 92
5, 52368, Note_on_c, 5, 55, 0
5, 52416, Note_on_c, 5, 50, 92
5, 52944, Note_on_c, 5, 50, 0
5, 53376, Note_on_c, 5, 50, 45
5, 53536, Note_on_c, 5, 50, 0
5, 53568, Note_on_c, 5, 55, 45
5, 54046, Note_on_c, 5, 55, 0
5, 54046, End_track
6, 0, Start_track
6, 0, MIDI_port, 0
6, 0, Title_t, "Flauto principale"
6, 0, Program_c, 6, 73
6, 0, Control_c, 6, 7, 127
6, 0, Control_c, 6, 10, 64
6, 5760, Note_on_c, 6, 79, 110
6, 5920, Note_on_c, 6, 79, 0
6, 5952, Note_on_c, 6, 74, 110
6, 6112, Note_on_c, 6, 74, 0
6, 6144, Note_on_c, 6, 83, 110
6, 6304, Note_on_c, 6, 83, 0
6, 6336, Note_on_c, 6, 80, 110
6, 6384, Note_on_c, 6, 80, 0
6, 6384, Note_on_c, 6, 81, 110
6, 6432, Note_on_c, 6, 81, 0
6, 6432, Note_on_c, 6, 83, 110
6, 6480, Note_on_c, 6, 83, 0
6, 6480, Note_on_c, 6, 81, 110
6, 6526, Note_on_c, 6, 81, 0
6, 6528, Note_on_c, 6, 81, 110
6, 6688, Note_on_c, 6, 81, 0
6, 6912, Note_on_c, 6, 80, 110
6, 6960, Note_on_c, 6, 80, 0
6, 6960, Note_on_c, 6, 81, 110
6, 7008, Note_on_c, 6, 81, 0
6, 7008, Note_on_c, 6, 83, 110
6, 7056, Note_on_c, 6, 83, 0
6, 7056, Note_on_c, 6, 81, 110
6, 7102, Note_on_c, 6, 81, 0
6, 7104, Note_on_c, 6, 81, 110
6, 7360, Note_on_c, 6, 81, 0
6, 7392, Note_on_c, 6, 84, 110
6, 7486, Note_on_c, 6, 84, 0
6, 7488, Note_on_c, 6, 82, 110
6, 7680, Note_on_c, 6, 82, 0
6, 7680, Note_on_c, 6, 83, 110
6, 7774, Note_on_c, 6, 83, 0
6, 8064, Note_on_c, 6, 76, 110
6, 8494, Note_on_c, 6, 76, 0
6, 8496, Note_on_c, 6, 79, 110
6, 8544, Note_on_c, 6, 79, 0
6, 8544, Note_on_c, 6, 84, 110
6, 8592, Note_on_c, 6, 84, 0
6, 8592, Note_on_c, 6, 88, 110
6, 8638, Note_on_c, 6, 88, 0
6, 8640, Note_on_c, 6, 86, 110
6, 8832, Note_on_c, 6, 86, 0
6, 8832, Note_on_c, 6, 84, 110
6, 8992, Note_on_c, 6, 84, 0
6, 9120, Note_on_c, 6, 83, 110
6, 9214, Note_on_c, 6, 83, 0
6, 9216, Note_on_c, 6, 83, 110
6, 9264, Note_on_c, 6, 83, 0
6, 9264, Note_on_c, 6, 81, 110
6, 9310, Note_on_c, 6, 81, 0
6, 9312, Note_on_c, 6, 84, 110
6, 9360, Note_on_c, 6, 84, 0
6, 9360, Note_on_c, 6, 81, 110
6, 9406, Note_on_c, 6, 81, 0
6, 9408, Note_on_c, 6, 79, 110
6, 9568, Note_on_c, 6, 79, 0
6, 9600, Note_on_c, 6, 79, 110
6, 9608, Note_on_c, 6, 79, 0
6, 9608, Note_on_c, 6, 78, 110
6, 9616, Note_on_c, 6, 78, 0
6, 9616, Note_on_c, 6, 79, 110
6, 9624, Note_on_c, 6, 79, 0
6, 9624, Note_on_c, 6, 78, 110
6, 9632, Note_on_c, 6, 78, 0
6, 9632, Note_on_c, 6, 79, 110
6, 9640, Note_on_c, 6, 79, 0
6, 9640, Note_on_c, 6, 78, 110
6, 9648, Note_on_c, 6, 78, 0
6, 9648, Note_on_c, 6, 79, 110
6, 9656, Note_on_c, 6, 79, 0
6, 9656, Note_on_c, 6, 78, 110
6, 9664, Note_on_c, 6, 78, 0
6, 9664, Note_on_c, 6, 79, 110
6, 9672, Note_on_c, 6, 79, 0
6, 9672, Note_on_c, 6, 78, 110
6, 9680, Note_on_c, 6, 78, 0
6, 9680, Note_on_c, 6, 79, 110
6, 9688, Note_on_c, 6, 79, 0
6, 9688, Note_on_c, 6, 78, 110
6, 9696, Note_on_c, 6, 78, 0
6, 9696, Note_on_c, 6, 79, 110
6, 9704, Note_on_c, 6, 79, 0
6, 9704, Note_on_c, 6, 78, 110
6, 9712, Note_on_c, 6, 78, 0
6, 9712, Note_on_c, 6, 79, 110
6, 9720, Note_on_c, 6, 79, 0
6, 9720, Note_on_c, 6, 78, 110
6, 9728, Note_on_c, 6, 78, 0
6, 9728, Note_on_c, 6, 79, 110
6, 9736, Note_on_c, 6, 79, 0
6, 9736, Note_on_c, 6, 78, 110
6, 9744, Note_on_c, 6, 78, 0
6, 9744, Note_on_c, 6, 76, 110
6, 9768, Note_on_c, 6, 76, 0
6, 9768, Note_on_c, 6, 78, 110
6, 9792, Note_on_c, 6, 78, 0
6, 9792, Note_on_c, 6, 79, 110
6, 9952, Note_on_c, 6, 79, 0
6, 10368, Note_on_c, 6, 82, 110
6, 10392, Note_on_c, 6, 82, 0
6, 10392, Note_on_c, 6, 83, 110
6, 10416, Note_on_c, 6, 83, 0
6, 10416, Note_on_c, 6, 84, 110
6, 10438, Note_on_c, 6, 84, 0
6, 10440, Note_on_c, 6, 83, 110
6, 10558, Note_on_c, 6, 83, 0
6, 10560, Note_on_c, 6, 81, 110
6, 10656, Note_on_c, 6, 81, 0
6, 10656, Note_on_c, 6, 79, 110
6, 10752, Note_on_c, 6, 79, 0
6, 10752, Note_on_c, 6, 78, 110
6, 10848, Note_on_c, 6, 78, 0
6, 10848, Note_on_c, 6, 76, 110
6, 10942, Note_on_c, 6, 76, 0
6, 10944, Note_on_c, 6, 75, 110
6, 11280, Note_on_c, 6, 75, 0
6, 11280, Note_on_c, 6, 76, 110
6, 11304, Note_on_c, 6, 76, 0
6, 11304, Note_on_c, 6, 78, 110
6, 11326, Note_on_c, 6, 78, 0
6, 11328, Note_on_c, 6, 76, 110
6, 11422, Note_on_c, 6, 76, 0
6, 11520, Note_on_c, 6, 80, 110
6, 11544, Note_on_c, 6, 80, 0
6, 11544, Note_on_c, 6, 81, 110
6, 11568, Note_on_c, 6, 81, 0
6, 11568, Note_on_c, 6, 83, 110
6, 11590, Note_on_c, 6, 83, 0
6, 11592, Note_on_c, 6, 81, 110
6, 11710, Note_on_c, 6, 81, 0
6, 11712, Note_on_c, 6, 81, 110
6, 11760, Note_on_c, 6, 81, 0
6, 11760, Note_on_c, 6, 79, 110
6, 11806, Note_on_c, 6, 79, 0
6, 11808, Note_on_c, 6, 79, 110
6, 11856, Note_on_c, 6, 79, 0
6, 11856, Note_on_c, 6, 78, 110
6, 11902, Note_on_c, 6, 78, 0
6, 11904, Note_on_c, 6, 78, 110
6, 11952, Note_on_c, 6, 78, 0
6, 11952, Note_on_c, 6, 76, 110
6, 11998, Note_on_c, 6, 76, 0
6, 12000, Note_on_c, 6, 76, 110
6, 12048, Note_on_c, 6, 76, 0
6, 12048, Note_on_c, 6, 74, 110
6, 12094, Note_on_c, 6, 74, 0
6, 12096, Note_on_c, 6, 73, 110
6, 12320, Note_on_c, 6, 73, 0
6, 12320, Note_on_c, 6, 76, 110
6, 12352, Note_on_c, 6, 76, 0
6, 12352, Note_on_c, 6, 74, 110
6, 12382, Note_on_c, 6, 74, 0
6, 12384, Note_on_c, 6, 73, 110
6, 12416, Note_on_c, 6, 73, 0
6, 12416, Note_on_c, 6, 74, 110
6, 12448, Note_on_c, 6, 74, 0
6, 12448, Note_on_c, 6, 76, 110
6, 12478, Note_on_c, 6, 76, 0
6, 12480, Note_on_c, 6, 74, 110
6, 12576, Note_on_c, 6, 74, 0
6, 12576, Note_on_c, 6, 86, 110
6, 12670, Note_on_c, 6, 86, 0
6, 12672, Note_on_c, 6, 85, 110
6, 12768, Note_on_c, 6, 85, 0
6, 12768, Note_on_c, 6, 83, 110
6, 12862, Note_on_c, 6, 83, 0
6, 12960, Note_on_c, 6, 81, 110
6, 13054, Note_on_c, 6, 81, 0
6, 13056, Note_on_c, 6, 81, 110
6, 13152, Note_on_c, 6, 81, 0
6, 13152, Note_on_c, 6, 80, 110
6, 13246, Note_on_c, 6, 80, 0
6, 13344, Note_on_c, 6, 80, 110
6, 13438, Note_on_c, 6, 80, 0
6, 13440, Note_on_c, 6, 81, 110
6, 13536, Note_on_c, 6, 81, 0
6, 13536, Note_on_c, 6, 79, 110
6, 13630, Note_on_c, 6, 79, 0
6, 13728, Note_on_c, 6, 78, 110
6, 13822, Note_on_c, 6, 78, 0
6, 13824, Note_on_c, 6, 75, 110
6, 13920, Note_on_c, 6, 75, 0
6, 13920, Note_on_c, 6, 76, 110
6, 14064, Note_on_c, 6, 76, 0
6, 14064, Note_on_c, 6, 78, 110
6, 14112, Note_on_c, 6, 78, 0
6, 14112, Note_on_c, 6, 79, 110
6, 14160, Note_on_c, 6, 79, 0
6, 14160, Note_on_c, 6, 81, 110
6, 14206, Note_on_c, 6, 81, 0
6, 14208, Note_on_c, 6, 82, 110
6, 14256, Note_on_c, 6, 82, 0
6, 14256, Note_on_c, 6, 83, 110
6, 14304, Note_on_c, 6, 83, 0
6, 14304, Note_on_c, 6, 79, 110
6, 14352, Note_on_c, 6, 79, 0
6, 14352, Note_on_c, 6, 76, 110
6, 14398, Note_on_c, 6, 76, 0
6, 14400, Note_on_c, 6, 76, 110
6, 14408, Note_on_c, 6, 76, 0
6, 14408, Note_on_c, 6, 74, 110
6, 14416, Note_on_c, 6, 74, 0
6, 14416, Note_on_c, 6, 76, 110
6, 14424, Note_on_c, 6, 76, 0
6, 14424, Note_on_c, 6, 74, 110
6, 14432, Note_on_c, 6, 74, 0
6, 14432, Note_on_c, 6, 76, 110
6, 14440, Note_on_c, 6, 76, 0
6, 14440, Note_on_c, 6, 74, 110
6, 14448, Note_on_c, 6, 74, 0
6, 14448, Note_on_c, 6, 76, 110
6, 14456, Note_on_c, 6, 76, 0
6, 14456, Note_on_c, 6, 74, 110
6, 14464, Note_on_c, 6, 74, 0
6, 14464, Note_on_c, 6, 76, 110
6, 14472, Note_on_c, 6, 76, 0
6, 14472, Note_on_c, 6, 74, 110
6, 14480, Note_on_c, 6, 74, 0
6, 14480, Note_on_c, 6, 76, 110
6, 14488, Note_on_c, 6, 76, 0
6, 14488, Note_on_c, 6, 74, 110
6, 14496, Note_on_c, 6, 74, 0
6, 14496, Note_on_c, 6, 76, 110
6, 14504, Note_on_c, 6, 76, 0
6, 14504, Note_on_c, 6, 74, 110
6, 14512, Note_on_c, 6, 74, 0
6, 14512, Note_on_c, 6, 76, 110
6, 14520, Note_on_c, 6, 76, 0
6, 14520, Note_on_c, 6, 74, 110
6, 14528, Note_on_c, 6, 74, 0
6, 14528, Note_on_c, 6, 76, 110
6, 14536, Note_on_c, 6, 76, 0
6, 14536, Note_on_c, 6, 74, 110
6, 14544, Note_on_c, 6, 74, 0
6, 14544, Note_on_c, 6, 73, 110
6, 14568, Note_on_c, 6, 73, 0
6, 14568, Note_on_c, 6, 74, 110
6, 14592, Note_on_c, 6, 74, 0
6, 14592, Note_on_c, 6, 73, 110
6, 14752, Note_on_c, 6, 73, 0
6, 15552, Note_on_c, 6, 86, 110
6, 15792, Note_on_c, 6, 86, 0
6, 15792, Note_on_c, 6, 85, 110
6, 15838, Note_on_c, 6, 85, 0
6, 15840, Note_on_c, 6, 85, 110
6, 15848, Note_on_c, 6, 85, 0
6, 15848, Note_on_c, 6, 83, 110
6, 15856, Note_on_c, 6, 83, 0
6, 15856, Note_on_c, 6, 85, 110
6, 15864, Note_on_c, 6, 85, 0
6, 15864, Note_on_c, 6, 83, 110
6, 15872, Note_on_c, 6, 83, 0
6, 15872, Note_on_c, 6, 85, 110
6, 15880, Note_on_c, 6, 85, 0
6, 15880, Note_on_c, 6, 83, 110
6, 15886, Note_on_c, 6, 83, 0
6, 15888, Note_on_c, 6, 81, 110
6, 15934, Note_on_c, 6, 81, 0
6, 15936, Note_on_c, 6, 81, 110
6, 15944, Note_on_c, 6, 81, 0
6, 15944, Note_on_c, 6, 79, 110
6, 15952, Note_on_c, 6, 79, 0
6, 15952, Note_on_c, 6, 81, 110
6, 15960, Note_on_c, 6, 81, 0
6, 15960, Note_on_c, 6, 79, 110
6, 15968, Note_on_c, 6, 79, 0
6, 15968, Note_on_c, 6, 81, 110
6, 15976, Note_on_c, 6, 81, 0
6, 15976, Note_on_c, 6, 79, 110
6, 15982, Note_on_c, 6, 79, 0
6, 15984, Note_on_c, 6, 78, 110
6, 16030, Note_on_c, 6, 78, 0
6, 16032, Note_on_c, 6, 78, 110
6, 16040, Note_on_c, 6, 78, 0
6, 16040, Note_on_c, 6, 76, 110
6, 16048, Note_on_c, 6, 76, 0
6, 16048, Note_on_c, 6, 78, 110
6, 16056, Note_on_c, 6, 78, 0
6, 16056, Note_on_c, 6, 76, 110
6, 16064, Note_on_c, 6, 76, 0
6, 16064, Note_on_c, 6, 78, 110
6, 16072, Note_on_c, 6, 78, 0
6, 16072, Note_on_c, 6, 76, 110
6, 16078, Note_on_c, 6, 76, 0
6, 16080, Note_on_c, 6, 74, 110
6, 16126, Note_on_c, 6, 74, 0
6, 16128, Note_on_c, 6, 73, 110
6, 16176, Note_on_c, 6, 73, 0
6, 16176, Note_on_c, 6, 76, 110
6, 16222, Note_on_c, 6, 76, 0
6, 16224, Note_on_c, 6, 81, 110
6, 16272, Note_on_c, 6, 81, 0
6, 16272, Note_on_c, 6, 79, 110
6, 16318, Note_on_c, 6, 79, 0
6, 16320, Note_on_c, 6, 79, 110
6, 16480, Note_on_c, 6, 79, 0
6, 16608, Note_on_c, 6, 81, 110
6, 16702, Note_on_c, 6, 81, 0
6, 16704, Note_on_c, 6, 86, 110
6, 16942, Note_on_c, 6, 86, 0
6, 16944, Note_on_c, 6, 85, 110
6, 16990, Note_on_c, 6, 85, 0
6, 16992, Note_on_c, 6, 86, 110
6, 17040, Note_on_c, 6, 86, 0
6, 17040, Note_on_c, 6, 85, 110
6, 17086, Note_on_c, 6, 85, 0
6, 17088, Note_on_c, 6, 86, 110
6, 17136, Note_on_c, 6, 86, 0
6, 17136, Note_on_c, 6, 84, 110
6, 17182, Note_on_c, 6, 84, 0
6, 17184, Note_on_c, 6, 83, 110
6, 17232, Note_on_c, 6, 83, 0
6, 17232, Note_on_c, 6, 82, 110
6, 17278, Note_on_c, 6, 82, 0
6, 17280, Note_on_c, 6, 82, 110
6, 17304, Note_on_c, 6, 82, 0
6, 17304, Note_on_c, 6, 83, 110
6, 17328, Note_on_c, 6, 83, 0
6, 17328, Note_on_c, 6, 84, 110
6, 17350, Note_on_c, 6, 84, 0
6, 17352, Note_on_c, 6, 83, 110
6, 17470, Note_on_c, 6, 83, 0
6, 17472, Note_on_c, 6, 85, 110
6, 17632, Note_on_c, 6, 85, 0
6, 17664, Note_on_c, 6, 86, 110
6, 17806, Note_on_c, 6, 86, 0
6, 17808, Note_on_c, 6, 81, 110
6, 17854, Note_on_c, 6, 81, 0
6, 17856, Note_on_c, 6, 81, 110
6, 17950, Note_on_c, 6, 81, 0
6, 17952, Note_on_c, 6, 80, 110
6, 18112, Note_on_c, 6, 80, 0
6, 18144, Note_on_c, 6, 79, 110
6, 18304, Note_on_c, 6, 79, 0
6, 18336, Note_on_c, 6, 78, 110
6, 18480, Note_on_c, 6, 78, 0
6, 18480, Note_on_c, 6, 76, 110
6, 18528, Note_on_c, 6, 76, 0
6, 18528, Note_on_c, 6, 79, 110
6, 18576, Note_on_c, 6, 79, 0
6, 18576, Note_on_c, 6, 76, 110
6, 18622, Note_on_c, 6, 76, 0
6, 18624, Note_on_c, 6, 74, 110
6, 18784, Note_on_c, 6, 74, 0
6, 18816, Note_on_c, 6, 78, 110
6, 18824, Note_on_c, 6, 78, 0
6, 18824, Note_on_c, 6, 76, 110
6, 18832, Note_on_c, 6, 76, 0
6, 18832, Note_on_c, 6, 78, 110
6, 18840, Note_on_c, 6, 78, 0
6, 18840, Note_on_c, 6, 76, 110
6, 18848, Note_on_c, 6, 76, 0
6, 18848, Note_on_c, 6, 78, 110
6, 18856, Note_on_c, 6, 78, 0
6, 18856, Note_on_c, 6, 76, 110
6, 18862, Note_on_c, 6, 76, 0
6, 18864, Note_on_c, 6, 78, 110
6, 18872, Note_on_c, 6, 78, 0
6, 18872, Note_on_c, 6, 76, 110
6, 18880, Note_on_c, 6, 76, 0
6, 18880, Note_on_c, 6, 78, 110
6, 18888, Note_on_c, 6, 78, 0
6, 18888, Note_on_c, 6, 76, 110
6, 18896, Note_on_c, 6, 76, 0
6, 18896, Note_on_c, 6, 78, 110
6, 18904, Note_on_c, 6, 78, 0
6, 18904, Note_on_c, 6, 76, 110
6, 18910, Note_on_c, 6, 76, 0
6, 18912, Note_on_c, 6, 78, 110
6, 18920, Note_on_c, 6, 78, 0
6, 18920, Note_on_c, 6, 76, 110
6, 18928, Note_on_c, 6, 76, 0
6, 18928, Note_on_c, 6, 78, 110
6, 18936, Note_on_c, 6, 78, 0
6, 18936, Note_on_c, 6, 76, 110
6, 18944, Note_on_c, 6, 76, 0
6, 18944, Note_on_c, 6, 78, 110
6, 18952, Note_on_c, 6, 78, 0
6, 18952, Note_on_c, 6, 76, 110
6, 18958, Note_on_c, 6, 76, 0
6, 18960, Note_on_c, 6, 74, 110
6, 18982, Note_on_c, 6, 74, 0
6, 18984, Note_on_c, 6, 76, 110
6, 19006, Note_on_c, 6, 76, 0
6, 19008, Note_on_c, 6, 77, 110
6, 19104, Note_on_c, 6, 77, 0
6, 19104, Note_on_c, 6, 78, 110
6, 19198, Note_on_c, 6, 78, 0
6, 19200, Note_on_c, 6, 78, 110
6, 19360, Note_on_c, 6, 78, 0
6, 19584, Note_on_c, 6, 82, 110
6, 19608, Note_on_c, 6, 82, 0
6, 19608, Note_on_c, 6, 83, 110
6, 19632, Note_on_c, 6, 83, 0
6, 19632, Note_on_c, 6, 84, 110
6, 19654, Note_on_c, 6, 84, 0
6, 19656, Note_on_c, 6, 83, 110
6, 19774, Note_on_c, 6, 83, 0
6, 19776, Note_on_c, 6, 85, 110
6, 19936, Note_on_c, 6, 85, 0
6, 19968, Note_on_c, 6, 86, 110
6, 20016, Note_on_c, 6, 86, 0
6, 20016, Note_on_c, 6, 85, 110
6, 20064, Note_on_c, 6, 85, 0
6, 20064, Note_on_c, 6, 83, 110
6, 20112, Note_on_c, 6, 83, 0
6, 20112, Note_on_c, 6, 81, 110
6, 20158, Note_on_c, 6, 81, 0
6, 20160, Note_on_c, 6, 81, 110
6, 20254, Note_on_c, 6, 81, 0
6, 20256, Note_on_c, 6, 80, 110
6, 20416, Note_on_c, 6, 80, 0
6, 20448, Note_on_c, 6, 79, 110
6, 20608, Note_on_c, 6, 79, 0
6, 20640, Note_on_c, 6, 78, 110
6, 20734, Note_on_c, 6, 78, 0
6, 20736, Note_on_c, 6, 82, 110
6, 20832, Note_on_c, 6, 82, 0
6, 20832, Note_on_c, 6, 83, 110
6, 20992, Note_on_c, 6, 83, 0
6, 21024, Note_on_c, 6, 81, 110
6, 21072, Note_on_c, 6, 81, 0
6, 21072, Note_on_c, 6, 79, 110
6, 21118, Note_on_c, 6, 79, 0
6, 21120, Note_on_c, 6, 78, 110
6, 21168, Note_on_c, 6, 78, 0
6, 21168, Note_on_c, 6, 76, 110
6, 21216, Note_on_c, 6, 76, 0
6, 21216, Note_on_c, 6, 75, 110
6, 21264, Note_on_c, 6, 75, 0
6, 21264, Note_on_c, 6, 76, 110
6, 21310, Note_on_c, 6, 76, 0
6, 21312, Note_on_c, 6, 78, 110
6, 21360, Note_on_c, 6, 78, 0
6, 21360, Note_on_c, 6, 74, 110
6, 21406, Note_on_c, 6, 74, 0
6, 21408, Note_on_c, 6, 81, 110
6, 21440, Note_on_c, 6, 81, 0
6, 21456, Note_on_c, 6, 81, 110
6, 21488, Note_on_c, 6, 81, 0
6, 21504, Note_on_c, 6, 81, 110
6, 21760, Note_on_c, 6, 81, 0
6, 21792, Note_on_c, 6, 78, 110
6, 21840, Note_on_c, 6, 78, 0
6, 21840, Note_on_c, 6, 74, 110
6, 21886, Note_on_c, 6, 74, 0
6, 21888, Note_on_c, 6, 78, 110
6, 21896, Note_on_c, 6, 78, 0
6, 21896, Note_on_c, 6, 76, 110
6, 21904, Note_on_c, 6, 76, 0
6, 21904, Note_on_c, 6, 78, 110
6, 21912, Note_on_c, 6, 78, 0
6, 21912, Note_on_c, 6, 76, 110
6, 21920, Note_on_c, 6, 76, 0
6, 21920, Note_on_c, 6, 78, 110
6, 21928, Note_on_c, 6, 78, 0
6, 21928, Note_on_c, 6, 76, 110
6, 21934, Note_on_c, 6, 76, 0
6, 21936, Note_on_c, 6, 78, 110
6, 21944, Note_on_c, 6, 78, 0
6, 21944, Note_on_c, 6, 76, 110
6, 21952, Note_on_c, 6, 76, 0
6, 21952, Note_on_c, 6, 78, 110
6, 21960, Note_on_c, 6, 78, 0
6, 21960, Note_on_c, 6, 76, 110
6, 21968, Note_on_c, 6, 76, 0
6, 21968, Note_on_c, 6, 78, 110
6, 21976, Note_on_c, 6, 78, 0
6, 21976, Note_on_c, 6, 76, 110
6, 21982, Note_on_c, 6, 76, 0
6, 21984, Note_on_c, 6, 78, 110
6, 21992, Note_on_c, 6, 78, 0
6, 21992, Note_on_c, 6, 76, 110
6, 22000, Note_on_c, 6, 76, 0
6, 22000, Note_on_c, 6, 78, 110
6, 22008, Note_on_c, 6, 78, 0
6, 22008, Note_on_c, 6, 76, 110
6, 22016, Note_on_c, 6, 76, 0
6, 22016, Note_on_c, 6, 78, 110
6, 22024, Note_on_c, 6, 78, 0
6, 22024, Note_on_c, 6, 76, 110
6, 22030, Note_on_c, 6, 76, 0
6, 22032, Note_on_c, 6, 78, 110
6, 22040, Note_on_c, 6, 78, 0
6, 22040, Note_on_c, 6, 76, 110
6, 22048, Note_on_c, 6, 76, 0
6, 22048, Note_on_c, 6, 78, 110
6, 22056, Note_on_c, 6, 78, 0
6, 22056, Note_on_c, 6, 76, 110
6, 22064, Note_on_c, 6, 76, 0
6, 22064, Note_on_c, 6, 78, 110
6, 22072, Note_on_c, 6, 78, 0
6, 22072, Note_on_c, 6, 76, 110
6, 22078, Note_on_c, 6, 76, 0
6, 22080, Note_on_c, 6, 78, 110
6, 22088, Note_on_c, 6, 78, 0
6, 22088, Note_on_c, 6, 76, 110
6, 22096, Note_on_c, 6, 76, 0
6, 22096, Note_on_c, 6, 78, 110
6, 22104, Note_on_c, 6, 78, 0
6, 22104, Note_on_c, 6, 76, 110
6, 22112, Note_on_c, 6, 76, 0
6, 22112, Note_on_c, 6, 78, 110
6, 22120, Note_on_c, 6, 78, 0
6, 22120, Note_on_c, 6, 76, 110
6, 22126, Note_on_c, 6, 76, 0
6, 22128, Note_on_c, 6, 78, 110
6, 22136, Note_on_c, 6, 78, 0
6, 22136, Note_on_c, 6, 76, 110
6, 22144, Note_on_c, 6, 76, 0
6, 22144, Note_on_c, 6, 78, 110
6, 22152, Note_on_c, 6, 78, 0
6, 22152, Note_on_c, 6, 76, 110
6, 22160, Note_on_c, 6, 76, 0
6, 22160, Note_on_c, 6, 78, 110
6, 22168, Note_on_c, 6, 78, 0
6, 22168, Note_on_c, 6, 76, 110
6, 22174, Note_on_c, 6, 76, 0
6, 22176, Note_on_c, 6, 78, 110
6, 22184, Note_on_c, 6, 78, 0
6, 22184, Note_on_c, 6, 76, 110
6, 22192, Note_on_c, 6, 76, 0
6, 22192, Note_on_c, 6, 78, 110
6, 22200, Note_on_c, 6, 78, 0
6, 22200, Note_on_c, 6, 76, 110
6, 22208, Note_on_c, 6, 76, 0
6, 22208, Note_on_c, 6, 78, 110
6, 22216, Note_on_c, 6, 78, 0
6, 22216, Note_on_c, 6, 76, 110
6, 22222, Note_on_c, 6, 76, 0
6, 22224, Note_on_c, 6, 78, 110
6, 22232, Note_on_c, 6, 78, 0
6, 22232, Note_on_c, 6, 76, 110
6, 22240, Note_on_c, 6, 76, 0
6, 22240, Note_on_c, 6, 78, 110
6, 22248, Note_on_c, 6, 78, 0
6, 22248, Note_on_c, 6, 76, 110
6, 22256, Note_on_c, 6, 76, 0
6, 22256, Note_on_c, 6, 78, 110
6, 22264, Note_on_c, 6, 78, 0
6, 22264, Note_on_c, 6, 76, 110
6, 22270, Note_on_c, 6, 76, 0
6, 22272, Note_on_c, 6, 78, 110
6, 22280, Note_on_c, 6, 78, 0
6, 22280, Note_on_c, 6, 76, 110
6, 22288, Note_on_c, 6, 76, 0
6, 22288, Note_on_c, 6, 78, 110
6, 22296, Note_on_c, 6, 78, 0
6, 22296, Note_on_c, 6, 76, 110
6, 22304, Note_on_c, 6, 76, 0
6, 22304, Note_on_c, 6, 78, 110
6, 22312, Note_on_c, 6, 78, 0
6, 22312, Note_on_c, 6, 76, 110
6, 22318, Note_on_c, 6, 76, 0
6, 22320, Note_on_c, 6, 78, 110
6, 22328, Note_on_c, 6, 78, 0
6, 22328, Note_on_c, 6, 76, 110
6, 22336, Note_on_c, 6, 76, 0
6, 22336, Note_on_c, 6, 78, 110
6, 22344, Note_on_c, 6, 78, 0
6, 22344, Note_on_c, 6, 76, 110
6, 22352, Note_on_c, 6, 76, 0
6, 22352, Note_on_c, 6, 78, 110
6, 22360, Note_on_c, 6, 78, 0
6, 22360, Note_on_c, 6, 76, 110
6, 22366, Note_on_c, 6, 76, 0
6, 22368, Note_on_c, 6, 78, 110
6, 22376, Note_on_c, 6, 78, 0
6, 22376, Note_on_c, 6, 76, 110
6, 22384, Note_on_c, 6, 76, 0
6, 22384, Note_on_c, 6, 78, 110
6, 22392, Note_on_c, 6, 78, 0
6, 22392, Note_on_c, 6, 76, 110
6, 22400, Note_on_c, 6, 76, 0
6, 22400, Note_on_c, 6, 78, 110
6, 22408, Note_on_c, 6, 78, 0
6, 22408, Note_on_c, 6, 76, 110
6, 22414, Note_on_c, 6, 76, 0
6, 22416, Note_on_c, 6, 74, 110
6, 22438, Note_on_c, 6, 74, 0
6, 22440, Note_on_c, 6, 76, 110
6, 22462, Note_on_c, 6, 76, 0
6, 22464, Note_on_c, 6, 74, 110
6, 22624, Note_on_c, 6, 74, 0
6, 23616, Note_on_c, 6, 85, 110
6, 23640, Note_on_c, 6, 85, 0
6, 23640, Note_on_c, 6, 86, 110
6, 23664, Note_on_c, 6, 86, 0
6, 23664, Note_on_c, 6, 88, 110
6, 23686, Note_on_c, 6, 88, 0
6, 23688, Note_on_c, 6, 86, 110
6, 24862, Note_on_c, 6, 86, 0
6, 24864, Note_on_c, 6, 85, 110
6, 25024, Note_on_c, 6, 85, 0
6, 25056, Note_on_c, 6, 82, 110
6, 25150, Note_on_c, 6, 82, 0
6, 25152, Note_on_c, 6, 81, 110
6, 25246, Note_on_c, 6, 81, 0
6, 25248, Note_on_c, 6, 79, 110
6, 25342, Note_on_c, 6, 79, 0
6, 25344, Note_on_c, 6, 79, 110
6, 25392, Note_on_c, 6, 79, 0
6, 25392, Note_on_c, 6, 78, 110
6, 25440, Note_on_c, 6, 78, 0
6, 25440, Note_on_c, 6, 82, 110
6, 25488, Note_on_c, 6, 82, 0
6, 25488, Note_on_c, 6, 81, 110
6, 25534, Note_on_c, 6, 81, 0
6, 25536, Note_on_c, 6, 81, 110
6, 25792, Note_on_c, 6, 81, 0
6, 25824, Note_on_c, 6, 79, 110
6, 25848, Note_on_c, 6, 79, 0
6, 25848, Note_on_c, 6, 78, 110
6, 25872, Note_on_c, 6, 78, 0
6, 25872, Note_on_c, 6, 76, 110
6, 25896, Note_on_c, 6, 76, 0
6, 25896, Note_on_c, 6, 74, 110
6, 25918, Note_on_c, 6, 74, 0
6, 25920, Note_on_c, 6, 73, 110
6, 26014, Note_on_c, 6, 73, 0
6, 26016, Note_on_c, 6, 70, 110
6, 26176, Note_on_c, 6, 70, 0
6, 26208, Note_on_c, 6, 69, 110
6, 26368, Note_on_c, 6, 69, 0
6, 26400, Note_on_c, 6, 67, 110
6, 26494, Note_on_c, 6, 67, 0
6, 26496, Note_on_c, 6, 66, 110
6, 26640, Note_on_c, 6, 66, 0
6, 26640, Note_on_c, 6, 74, 110
6, 26686, Note_on_c, 6, 74, 0
6, 26688, Note_on_c, 6, 74, 110
6, 27214, Note_on_c, 6, 74, 0
6, 27216, Note_on_c, 6, 86, 110
6, 27262, Note_on_c, 6, 86, 0
6, 27264, Note_on_c, 6, 86, 110
6, 27888, Note_on_c, 6, 86, 0
6, 27888, Note_on_c, 6, 84, 110
6, 27936, Note_on_c, 6, 84, 0
6, 27936, Note_on_c, 6, 81, 110
6, 27984, Note_on_c, 6, 81, 0
6, 27984, Note_on_c, 6, 78, 110
6, 28030, Note_on_c, 6, 78, 0
6, 28032, Note_on_c, 6, 86, 110
6, 28080, Note_on_c, 6, 86, 0
6, 28080, Note_on_c, 6, 84, 110
6, 28128, Note_on_c, 6, 84, 0
6, 28128, Note_on_c, 6, 81, 110
6, 28176, Note_on_c, 6, 81, 0
6, 28176, Note_on_c, 6, 78, 110
6, 28222, Note_on_c, 6, 78, 0
6, 28224, Note_on_c, 6, 79, 110
6, 28384, Note_on_c, 6, 79, 0
6, 30144, Note_on_c, 6, 74, 110
6, 30240, Note_on_c, 6, 74, 0
6, 30240, Note_on_c, 6, 79, 110
6, 30336, Note_on_c, 6, 79, 0
6, 30336, Note_on_c, 6, 83, 110
6, 30432, Note_on_c, 6, 83, 0
6, 30432, Note_on_c, 6, 86, 110
6, 30526, Note_on_c, 6, 86, 0
6, 30528, Note_on_c, 6, 84, 110
6, 30864, Note_on_c, 6, 84, 0
6, 30864, Note_on_c, 6, 81, 110
6, 30910, Note_on_c, 6, 81, 0
6, 30912, Note_on_c, 6, 78, 110
6, 31006, Note_on_c, 6, 78, 0
6, 31104, Note_on_c, 6, 86, 110
6, 31440, Note_on_c, 6, 86, 0
6, 31440, Note_on_c, 6, 83, 110
6, 31486, Note_on_c, 6, 83, 0
6, 31488, Note_on_c, 6, 79, 110
6, 31582, Note_on_c, 6, 79, 0
6, 32256, Note_on_c, 6, 75, 110
6, 32280, Note_on_c, 6, 75, 0
6, 32280, Note_on_c, 6, 76, 110
6, 32304, Note_on_c, 6, 76, 0
6, 32304, Note_on_c, 6, 78, 110
6, 32326, Note_on_c, 6, 78, 0
6, 32328, Note_on_c, 6, 76, 110
6, 32446, Note_on_c, 6, 76, 0
6, 32448, Note_on_c, 6, 74, 110
6, 32544, Note_on_c, 6, 74, 0
6, 32544, Note_on_c, 6, 72, 110
6, 32638, Note_on_c, 6, 72, 0
6, 32640, Note_on_c, 6, 71, 110
6, 32736, Note_on_c, 6, 71, 0
6, 32736, Note_on_c, 6, 69, 110
6, 32830, Note_on_c, 6, 69, 0
6, 32832, Note_on_c, 6, 68, 110
6, 33168, Note_on_c, 6, 68, 0
6, 33168, Note_on_c, 6, 69, 110
6, 33192, Note_on_c, 6, 69, 0
6, 33192, Note_on_c, 6, 71, 110
6, 33214, Note_on_c, 6, 71, 0
6, 33216, Note_on_c, 6, 69, 110
6, 33310, Note_on_c, 6, 69, 0
6, 33408, Note_on_c, 6, 74, 110
6, 33456, Note_on_c, 6, 74, 0
6, 33456, Note_on_c, 6, 86, 110
6, 33648, Note_on_c, 6, 86, 0
6, 33648, Note_on_c, 6, 84, 110
6, 33694, Note_on_c, 6, 84, 0
6, 33696, Note_on_c, 6, 84, 110
6, 33744, Note_on_c, 6, 84, 0
6, 33744, Note_on_c, 6, 83, 110
6, 33790, Note_on_c, 6, 83, 0
6, 33792, Note_on_c, 6, 83, 110
6, 33840, Note_on_c, 6, 83, 0
6, 33840, Note_on_c, 6, 81, 110
6, 33886, Note_on_c, 6, 81, 0
6, 33888, Note_on_c, 6, 81, 110
6, 33936, Note_on_c, 6, 81, 0
6, 33936, Note_on_c, 6, 79, 110
6, 33982, Note_on_c, 6, 79, 0
6, 33984, Note_on_c, 6, 78, 110
6, 34208, Note_on_c, 6, 78, 0
6, 34208, Note_on_c, 6, 81, 110
6, 34240, Note_on_c, 6, 81, 0
6, 34240, Note_on_c, 6, 79, 110
6, 34270, Note_on_c, 6, 79, 0
6, 34272, Note_on_c, 6, 78, 110
6, 34304, Note_on_c, 6, 78, 0
6, 34304, Note_on_c, 6, 79, 110
6, 34336, Note_on_c, 6, 79, 0
6, 34336, Note_on_c, 6, 81, 110
6, 34366, Note_on_c, 6, 81, 0
6, 34368, Note_on_c, 6, 79, 110
6, 34462, Note_on_c, 6, 79, 0
6, 34464, Note_on_c, 6, 79, 110
6, 34558, Note_on_c, 6, 79, 0
6, 34560, Note_on_c, 6, 78, 110
6, 34656, Note_on_c, 6, 78, 0
6, 34656, Note_on_c, 6, 76, 110
6, 34750, Note_on_c, 6, 76, 0
6, 34848, Note_on_c, 6, 74, 110
6, 34942, Note_on_c, 6, 74, 0
6, 34944, Note_on_c, 6, 74, 110
6, 35040, Note_on_c, 6, 74, 0
6, 35040, Note_on_c, 6, 73, 110
6, 35134, Note_on_c, 6, 73, 0
6, 35232, Note_on_c, 6, 85, 110
6, 35326, Note_on_c, 6, 85, 0
6, 35328, Note_on_c, 6, 86, 110
6, 35424, Note_on_c, 6, 86, 0
6, 35424, Note_on_c, 6, 84, 110
6, 35518, Note_on_c, 6, 84, 0
6, 35616, Note_on_c, 6, 83, 110
6, 35710, Note_on_c, 6, 83, 0
6, 35712, Note_on_c, 6, 80, 110
6, 35808, Note_on_c, 6, 80, 0
6, 35808, Note_on_c, 6, 81, 110
6, 35952, Note_on_c, 6, 81, 0
6, 35952, Note_on_c, 6, 83, 110
6, 36000, Note_on_c, 6, 83, 0
6, 36000, Note_on_c, 6, 84, 110
6, 36048, Note_on_c, 6, 84, 0
6, 36048, Note_on_c, 6, 86, 110
6, 36094, Note_on_c, 6, 86, 0
6, 36096, Note_on_c, 6, 87, 110
6, 36144, Note_on_c, 6, 87, 0
6, 36144, Note_on_c, 6, 88, 110
6, 36190, Note_on_c, 6, 88, 0
6, 36192, Note_on_c, 6, 84, 110
6, 36240, Note_on_c, 6, 84, 0
6, 36240, Note_on_c, 6, 81, 110
6, 36286, Note_on_c, 6, 81, 0
6, 36288, Note_on_c, 6, 81, 110
6, 36296, Note_on_c, 6, 81, 0
6, 36296, Note_on_c, 6, 79, 110
6, 36304, Note_on_c, 6, 79, 0
6, 36304, Note_on_c, 6, 81, 110
6, 36312, Note_on_c, 6, 81, 0
6, 36312, Note_on_c, 6, 79, 110
6, 36320, Note_on_c, 6, 79, 0
6, 36320, Note_on_c, 6, 81, 110
6, 36328, Note_on_c, 6, 81, 0
6, 36328, Note_on_c, 6, 79, 110
6, 36334, Note_on_c, 6, 79, 0
6, 36336, Note_on_c, 6, 81, 110
6, 36344, Note_on_c, 6, 81, 0
6, 36344, Note_on_c, 6, 79, 110
6, 36352, Note_on_c, 6, 79, 0
6, 36352, Note_on_c, 6, 81, 110
6, 36360, Note_on_c, 6, 81, 0
6, 36360, Note_on_c, 6, 79, 110
6, 36368, Note_on_c, 6, 79, 0
6, 36368, Note_on_c, 6, 81, 110
6, 36376, Note_on_c, 6, 81, 0
6, 36376, Note_on_c, 6, 79, 110
6, 36382, Note_on_c, 6, 79, 0
6, 36384, Note_on_c, 6, 81, 110
6, 36392, Note_on_c, 6, 81, 0
6, 36392, Note_on_c, 6, 79, 110
6, 36400, Note_on_c, 6, 79, 0
6, 36400, Note_on_c, 6, 81, 110
6, 36408, Note_on_c, 6, 81, 0
6, 36408, Note_on_c, 6, 79, 110
6, 36416, Note_on_c, 6, 79, 0
6, 36416, Note_on_c, 6, 81, 110
6, 36424, Note_on_c, 6, 81, 0
6, 36424, Note_on_c, 6, 79, 110
6, 36430, Note_on_c, 6, 79, 0
6, 36432, Note_on_c, 6, 78, 110
6, 36454, Note_on_c, 6, 78, 0
6, 36456, Note_on_c, 6, 79, 110
6, 36478, Note_on_c, 6, 79, 0
6, 36480, Note_on_c, 6, 78, 110
6, 36640, Note_on_c, 6, 78, 0
6, 37440, Note_on_c, 6, 78, 110
6, 37464, Note_on_c, 6, 78, 0
6, 37464, Note_on_c, 6, 79, 110
6, 37488, Note_on_c, 6, 79, 0
6, 37488, Note_on_c, 6, 81, 110
6, 37510, Note_on_c, 6, 81, 0
6, 37512, Note_on_c, 6, 79, 110
6, 37678, Note_on_c, 6, 79, 0
6, 37680, Note_on_c, 6, 78, 110
6, 37726, Note_on_c, 6, 78, 0
6, 37728, Note_on_c, 6, 78, 110
6, 37736, Note_on_c, 6, 78, 0
6, 37736, Note_on_c, 6, 76, 110
6, 37744, Note_on_c, 6, 76, 0
6, 37744, Note_on_c, 6, 78, 110
6, 37752, Note_on_c, 6, 78, 0
6, 37752, Note_on_c, 6, 76, 110
6, 37760, Note_on_c, 6, 76, 0
6, 37760, Note_on_c, 6, 78, 110
6, 37768, Note_on_c, 6, 78, 0
6, 37768, Note_on_c, 6, 76, 110
6, 37774, Note_on_c, 6, 76, 0
6, 37776, Note_on_c, 6, 74, 110
6, 37822, Note_on_c, 6, 74, 0
6, 37824, Note_on_c, 6, 74, 110
6, 37832, Note_on_c, 6, 74, 0
6, 37832, Note_on_c, 6, 72, 110
6, 37840, Note_on_c, 6, 72, 0
6, 37840, Note_on_c, 6, 74, 110
6, 37848, Note_on_c, 6, 74, 0
6, 37848, Note_on_c, 6, 72, 110
6, 37856, Note_on_c, 6, 72, 0
6, 37856, Note_on_c, 6, 74, 110
6, 37864, Note_on_c, 6, 74, 0
6, 37864, Note_on_c, 6, 72, 110
6, 37870, Note_on_c, 6, 72, 0
6, 37872, Note_on_c, 6, 71, 110
6, 37918, Note_on_c, 6, 71, 0
6, 37920, Note_on_c, 6, 71, 110
6, 37928, Note_on_c, 6, 71, 0
6, 37928, Note_on_c, 6, 69, 110
6, 37936, Note_on_c, 6, 69, 0
6, 37936, Note_on_c, 6, 71, 110
6, 37944, Note_on_c, 6, 71, 0
6, 37944, Note_on_c, 6, 69, 110
6, 37952, Note_on_c, 6, 69, 0
6, 37952, Note_on_c, 6, 71, 110
6, 37960, Note_on_c, 6, 71, 0
6, 37960, Note_on_c, 6, 69, 110
6, 37966, Note_on_c, 6, 69, 0
6, 37968, Note_on_c, 6, 67, 110
6, 38014, Note_on_c, 6, 67, 0
6, 38016, Note_on_c, 6, 66, 110
6, 38064, Note_on_c, 6, 66, 0
6, 38064, Note_on_c, 6, 69, 110
6, 38110, Note_on_c, 6, 69, 0
6, 38112, Note_on_c, 6, 74, 110
6, 38160, Note_on_c, 6, 74, 0
6, 38160, Note_on_c, 6, 72, 110
6, 38206, Note_on_c, 6, 72, 0
6, 38208, Note_on_c, 6, 72, 110
6, 38368, Note_on_c, 6, 72, 0
6, 38496, Note_on_c, 6, 74, 110
6, 38590, Note_on_c, 6, 74, 0
6, 38592, Note_on_c, 6, 78, 110
6, 38616, Note_on_c, 6, 78, 0
6, 38616, Note_on_c, 6, 79, 110
6, 38640, Note_on_c, 6, 79, 0
6, 38640, Note_on_c, 6, 81, 110
6, 38662, Note_on_c, 6, 81, 0
6, 38664, Note_on_c, 6, 79, 110
6, 38830, Note_on_c, 6, 79, 0
6, 38832, Note_on_c, 6, 78, 110
6, 38880, Note_on_c, 6, 78, 0
6, 38880, Note_on_c, 6, 79, 110
6, 38928, Note_on_c, 6, 79, 0
6, 38928, Note_on_c, 6, 78, 110
6, 38974, Note_on_c, 6, 78, 0
6, 38976, Note_on_c, 6, 79, 110
6, 39024, Note_on_c, 6, 79, 0
6, 39024, Note_on_c, 6, 77, 110
6, 39070, Note_on_c, 6, 77, 0
6, 39072, Note_on_c, 6, 76, 110
6, 39120, Note_on_c, 6, 76, 0
6, 39120, Note_on_c, 6, 75, 110
6, 39166, Note_on_c, 6, 75, 0
6, 39168, Note_on_c, 6, 76, 110
6, 39360, Note_on_c, 6, 76, 0
6, 39360, Note_on_c, 6, 88, 110
6, 39552, Note_on_c, 6, 88, 0
6, 39552, Note_on_c, 6, 86, 110
6, 39838, Note_on_c, 6, 86, 0
6, 39840, Note_on_c, 6, 85, 110
6, 40000, Note_on_c, 6, 85, 0
6, 40032, Note_on_c, 6, 84, 110
6, 40192, Note_on_c, 6, 84, 0
6, 40224, Note_on_c, 6, 83, 110
6, 40368, Note_on_c, 6, 83, 0
6, 40368, Note_on_c, 6, 81, 110
6, 40416, Note_on_c, 6, 81, 0
6, 40416, Note_on_c, 6, 84, 110
6, 40464, Note_on_c, 6, 84, 0
6, 40464, Note_on_c, 6, 81, 110
6, 40510, Note_on_c, 6, 81, 0
6, 40512, Note_on_c, 6, 79, 110
6, 40672, Note_on_c, 6, 79, 0
6, 40704, Note_on_c, 6, 79, 110
6, 40712, Note_on_c, 6, 79, 0
6, 40712, Note_on_c, 6, 78, 110
6, 40720, Note_on_c, 6, 78, 0
6, 40720, Note_on_c, 6, 79, 110
6, 40728, Note_on_c, 6, 79, 0
6, 40728, Note_on_c, 6, 78, 110
6, 40736, Note_on_c, 6, 78, 0
6, 40736, Note_on_c, 6, 79, 110
6, 40744, Note_on_c, 6, 79, 0
6, 40744, Note_on_c, 6, 78, 110
6, 40750, Note_on_c, 6, 78, 0
6, 40752, Note_on_c, 6, 79, 110
6, 40760, Note_on_c, 6, 79, 0
6, 40760, Note_on_c, 6, 78, 110
6, 40768, Note_on_c, 6, 78, 0
6, 40768, Note_on_c, 6, 79, 110
6, 40776, Note_on_c, 6, 79, 0
6, 40776, Note_on_c, 6, 78, 110
6, 40784, Note_on_c, 6, 78, 0
6, 40784, Note_on_c, 6, 79, 110
6, 40792, Note_on_c, 6, 79, 0
6, 40792, Note_on_c, 6, 78, 110
6, 40798, Note_on_c, 6, 78, 0
6, 40800, Note_on_c, 6, 79, 110
6, 40808, Note_on_c, 6, 79, 0
6, 40808, Note_on_c, 6, 78, 110
6, 40816, Note_on_c, 6, 78, 0
6, 40816, Note_on_c, 6, 79, 110
6, 40824, Note_on_c, 6, 79, 0
6, 40824, Note_on_c, 6, 78, 110
6, 40832, Note_on_c, 6, 78, 0
6, 40832, Note_on_c, 6, 79, 110
6, 40840, Note_on_c, 6, 79, 0
6, 40840, Note_on_c, 6, 78, 110
6, 40846, Note_on_c, 6, 78, 0
6, 40848, Note_on_c, 6, 76, 110
6, 40870, Note_on_c, 6, 76, 0
6, 40872, Note_on_c, 6, 78, 110
6, 40894, Note_on_c, 6, 78, 0
6, 40896, Note_on_c, 6, 78, 110
6, 40960, Note_on_c, 6, 78, 0
6, 40960, Note_on_c, 6, 81, 110
6, 41024, Note_on_c, 6, 81, 0
6, 41024, Note_on_c, 6, 79, 110
6, 41086, Note_on_c, 6, 79, 0
6, 41088, Note_on_c, 6, 79, 110
6, 41248, Note_on_c, 6, 79, 0
6, 41472, Note_on_c, 6, 75, 110
6, 41496, Note_on_c, 6, 75, 0
6, 41496, Note_on_c, 6, 76, 110
6, 41520, Note_on_c, 6, 76, 0
6, 41520, Note_on_c, 6, 78, 110
6, 41542, Note_on_c, 6, 78, 0
6, 41544, Note_on_c, 6, 76, 110
6, 41662, Note_on_c, 6, 76, 0
6, 41664, Note_on_c, 6, 88, 110
6, 41824, Note_on_c, 6, 88, 0
6, 41856, Note_on_c, 6, 86, 110
6, 42142, Note_on_c, 6, 86, 0
6, 42144, Note_on_c, 6, 85, 110
6, 42304, Note_on_c, 6, 85, 0
6, 42336, Note_on_c, 6, 84, 110
6, 42496, Note_on_c, 6, 84, 0
6, 42528, Note_on_c, 6, 83, 110
6, 42622, Note_on_c, 6, 83, 0
6, 42624, Note_on_c, 6, 80, 110
6, 42720, Note_on_c, 6, 80, 0
6, 42720, Note_on_c, 6, 81, 110
6, 42864, Note_on_c, 6, 81, 0
6, 42864, Note_on_c, 6, 83, 110
6, 42912, Note_on_c, 6, 83, 0
6, 42912, Note_on_c, 6, 84, 110
6, 42960, Note_on_c, 6, 84, 0
6, 42960, Note_on_c, 6, 83, 110
6, 43006, Note_on_c, 6, 83, 0
6, 43008, Note_on_c, 6, 81, 110
6, 43056, Note_on_c, 6, 81, 0
6, 43056, Note_on_c, 6, 79, 110
6, 43104, Note_on_c, 6, 79, 0
6, 43104, Note_on_c, 6, 78, 110
6, 43152, Note_on_c, 6, 78, 0
6, 43152, Note_on_c, 6, 76, 110
6, 43198, Note_on_c, 6, 76, 0
6, 43200, Note_on_c, 6, 74, 110
6, 43360, Note_on_c, 6, 74, 0
6, 43392, Note_on_c, 6, 86, 110
6, 43648, Note_on_c, 6, 86, 0
6, 43680, Note_on_c, 6, 83, 110
6, 43728, Note_on_c, 6, 83, 0
6, 43728, Note_on_c, 6, 79, 110
6, 43774, Note_on_c, 6, 79, 0
6, 43776, Note_on_c, 6, 83, 110
6, 43784, Note_on_c, 6, 83, 0
6, 43784, Note_on_c, 6, 81, 110
6, 43792, Note_on_c, 6, 81, 0
6, 43792, Note_on_c, 6, 83, 110
6, 43800, Note_on_c, 6, 83, 0
6, 43800, Note_on_c, 6, 81, 110
6, 43808, Note_on_c, 6, 81, 0
6, 43808, Note_on_c, 6, 83, 110
6, 43816, Note_on_c, 6, 83, 0
6, 43816, Note_on_c, 6, 81, 110
6, 43822, Note_on_c, 6, 81, 0
6, 43824, Note_on_c, 6, 83, 110
6, 43832, Note_on_c, 6, 83, 0
6, 43832, Note_on_c, 6, 81, 110
6, 43840, Note_on_c, 6, 81, 0
6, 43840, Note_on_c, 6, 83, 110
6, 43848, Note_on_c, 6, 83, 0
6, 43848, Note_on_c, 6, 81, 110
6, 43856, Note_on_c, 6, 81, 0
6, 43856, Note_on_c, 6, 83, 110
6, 43864, Note_on_c, 6, 83, 0
6, 43864, Note_on_c, 6, 81, 110
6, 43870, Note_on_c, 6, 81, 0
6, 43872, Note_on_c, 6, 83, 110
6, 43880, Note_on_c, 6, 83, 0
6, 43880, Note_on_c, 6, 81, 110
6, 43888, Note_on_c, 6, 81, 0
6, 43888, Note_on_c, 6, 83, 110
6, 43896, Note_on_c, 6, 83, 0
6, 43896, Note_on_c, 6, 81, 110
6, 43904, Note_on_c, 6, 81, 0
6, 43904, Note_on_c, 6, 83, 110
6, 43912, Note_on_c, 6, 83, 0
6, 43912, Note_on_c, 6, 81, 110
6, 43918, Note_on_c, 6, 81, 0
6, 43920, Note_on_c, 6, 83, 110
6, 43928, Note_on_c, 6, 83, 0
6, 43928, Note_on_c, 6, 81, 110
6, 43936, Note_on_c, 6, 81, 0
6, 43936, Note_on_c, 6, 83, 110
6, 43944, Note_on_c, 6, 83, 0
6, 43944, Note_on_c, 6, 81, 110
6, 43952, Note_on_c, 6, 81, 0
6, 43952, Note_on_c, 6, 83, 110
6, 43960, Note_on_c, 6, 83, 0
6, 43960, Note_on_c, 6, 81, 110
6, 43966, Note_on_c, 6, 81, 0
6, 43968, Note_on_c, 6, 83, 110
6, 43976, Note_on_c, 6, 83, 0
6, 43976, Note_on_c, 6, 81, 110
6, 43984, Note_on_c, 6, 81, 0
6, 43984, Note_on_c, 6, 83, 110
6, 43992, Note_on_c, 6, 83, 0
6, 43992, Note_on_c, 6, 81, 110
6, 44000, Note_on_c, 6, 81, 0
6, 44000, Note_on_c, 6, 83, 110
6, 44008, Note_on_c, 6, 83, 0
6, 44008, Note_on_c, 6, 81, 110
6, 44014, Note_on_c, 6, 81, 0
6, 44016, Note_on_c, 6, 83, 110
6, 44024, Note_on_c, 6, 83, 0
6, 44024, Note_on_c, 6, 81, 110
6, 44032, Note_on_c, 6, 81, 0
6, 44032, Note_on_c, 6, 83, 110
6, 44040, Note_on_c, 6, 83, 0
6, 44040, Note_on_c, 6, 81, 110
6, 44048, Note_on_c, 6, 81, 0
6, 44048, Note_on_c, 6, 83, 110
6, 44056, Note_on_c, 6, 83, 0
6, 44056, Note_on_c, 6, 81, 110
6, 44062, Note_on_c, 6, 81, 0
6, 44064, Note_on_c, 6, 83, 110
6, 44072, Note_on_c, 6, 83, 0
6, 44072, Note_on_c, 6, 81, 110
6, 44080, Note_on_c, 6, 81, 0
6, 44080, Note_on_c, 6, 83, 110
6, 44088, Note_on_c, 6, 83, 0
6, 44088, Note_on_c, 6, 81, 110
6, 44096, Note_on_c, 6, 81, 0
6, 44096, Note_on_c, 6, 83, 110
6, 44104, Note_on_c, 6, 83, 0
6, 44104, Note_on_c, 6, 81, 110
6, 44110, Note_on_c, 6, 81, 0
6, 44112, Note_on_c, 6, 83, 110
6, 44120, Note_on_c, 6, 83, 0
6, 44120, Note_on_c, 6, 81, 110
6, 44128, Note_on_c, 6, 81, 0
6, 44128, Note_on_c, 6, 83, 110
6, 44136, Note_on_c, 6, 83, 0
6, 44136, Note_on_c, 6, 81, 110
6, 44144, Note_on_c, 6, 81, 0
6, 44144, Note_on_c, 6, 83, 110
6, 44152, Note_on_c, 6, 83, 0
6, 44152, Note_on_c, 6, 81, 110
6, 44158, Note_on_c, 6, 81, 0
6, 44160, Note_on_c, 6, 83, 110
6, 44168, Note_on_c, 6, 83, 0
6, 44168, Note_on_c, 6, 81, 110
6, 44176, Note_on_c, 6, 81, 0
6, 44176, Note_on_c, 6, 83, 110
6, 44184, Note_on_c, 6, 83, 0
6, 44184, Note_on_c, 6, 81, 110
6, 44192, Note_on_c, 6, 81, 0
6, 44192, Note_on_c, 6, 83, 110
6, 44200, Note_on_c, 6, 83, 0
6, 44200, Note_on_c, 6, 81, 110
6, 44206, Note_on_c, 6, 81, 0
6, 44208, Note_on_c, 6, 83, 110
6, 44216, Note_on_c, 6, 83, 0
6, 44216, Note_on_c, 6, 81, 110
6, 44224, Note_on_c, 6, 81, 0
6, 44224, Note_on_c, 6, 83, 110
6, 44232, Note_on_c, 6, 83, 0
6, 44232, Note_on_c, 6, 81, 110
6, 44240, Note_on_c, 6, 81, 0
6, 44240, Note_on_c, 6, 83, 110
6, 44248, Note_on_c, 6, 83, 0
6, 44248, Note_on_c, 6, 81, 110
6, 44254, Note_on_c, 6, 81, 0
6, 44256, Note_on_c, 6, 83, 110
6, 44264, Note_on_c, 6, 83, 0
6, 44264, Note_on_c, 6, 81, 110
6, 44272, Note_on_c, 6, 81, 0
6, 44272, Note_on_c, 6, 83, 110
6, 44280, Note_on_c, 6, 83, 0
6, 44280, Note_on_c, 6, 81, 110
6, 44288, Note_on_c, 6, 81, 0
6, 44288, Note_on_c, 6, 83, 110
6, 44296, Note_on_c, 6, 83, 0
6, 44296, Note_on_c, 6, 81, 110
6, 44302, Note_on_c, 6, 81, 0
6, 44304, Note_on_c, 6, 79, 110
6, 44326, Note_on_c, 6, 79, 0
6, 44328, Note_on_c, 6, 81, 110
6, 44350, Note_on_c, 6, 81, 0
6, 44352, Note_on_c, 6, 79, 110
6, 44512, Note_on_c, 6, 79, 0
6, 48384, Note_on_c, 6, 62, 110
6, 48862, Note_on_c, 6, 62, 0
6, 48864, Note_on_c, 6, 67, 110
6, 48888, Note_on_c, 6, 67, 0
6, 48888, Note_on_c, 6, 66, 110
6, 48900, Note_on_c, 6, 66, 0
6, 48900, Note_on_c, 6, 67, 110
6, 48912, Note_on_c, 6, 67, 0
6, 48912, Note_on_c, 6, 69, 110
6, 48924, Note_on_c, 6, 69, 0
6, 48924, Note_on_c, 6, 67, 110
6, 48936, Note_on_c, 6, 67, 0
6, 48936, Note_on_c, 6, 66, 110
6, 48948, Note_on_c, 6, 66, 0
6, 48948, Note_on_c, 6, 67, 110
6, 48958, Note_on_c, 6, 67, 0
6, 48960, Note_on_c, 6, 62, 110
6, 49054, Note_on_c, 6, 62, 0
6, 49056, Note_on_c, 6, 71, 110
6, 49104, Note_on_c, 6, 71, 0
6, 49104, Note_on_c, 6, 70, 110
6, 49128, Note_on_c, 6, 70, 0
6, 49128, Note_on_c, 6, 71, 110
6, 49152, Note_on_c, 6, 71, 0
6, 49152, Note_on_c, 6, 72, 110
6, 49176, Note_on_c, 6, 72, 0
6, 49176, Note_on_c, 6, 71, 110
6, 49200, Note_on_c, 6, 71, 0
6, 49200, Note_on_c, 6, 70, 110
6, 49224, Note_on_c, 6, 70, 0
6, 49224, Note_on_c, 6, 71, 110
6, 49246, Note_on_c, 6, 71, 0
6, 49248, Note_on_c, 6, 67, 110
6, 49342, Note_on_c, 6, 67, 0
6, 49344, Note_on_c, 6, 74, 110
6, 49392, Note_on_c, 6, 74, 0
6, 49392, Note_on_c, 6, 73, 110
6, 49416, Note_on_c, 6, 73, 0
6, 49416, Note_on_c, 6, 74, 110
6, 49440, Note_on_c, 6, 74, 0
6, 49440, Note_on_c, 6, 76, 110
6, 49464, Note_on_c, 6, 76, 0
6, 49464, Note_on_c, 6, 74, 110
6, 49488, Note_on_c, 6, 74, 0
6, 49488, Note_on_c, 6, 73, 110
6, 49512, Note_on_c, 6, 73, 0
6, 49512, Note_on_c, 6, 74, 110
6, 49534, Note_on_c, 6, 74, 0
6, 49536, Note_on_c, 6, 71, 110
6, 49608, Note_on_c, 6, 71, 0
6, 49608, Note_on_c, 6, 74, 110
6, 49630, Note_on_c, 6, 74, 0
6, 49632, Note_on_c, 6, 79, 110
6, 49656, Note_on_c, 6, 79, 0
6, 49656, Note_on_c, 6, 78, 110
6, 49678, Note_on_c, 6, 78, 0
6, 49680, Note_on_c, 6, 81, 110
6, 49704, Note_on_c, 6, 81, 0
6, 49704, Note_on_c, 6, 79, 110
6, 49726, Note_on_c, 6, 79, 0
6, 49728, Note_on_c, 6, 83, 110
6, 49752, Note_on_c, 6, 83, 0
6, 49752, Note_on_c, 6, 81, 110
6, 49774, Note_on_c, 6, 81, 0
6, 49776, Note_on_c, 6, 84, 110
6, 49800, Note_on_c, 6, 84, 0
6, 49800, Note_on_c, 6, 83, 110
6, 49822, Note_on_c, 6, 83, 0
6, 49824, Note_on_c, 6, 86, 110
6, 49848, Note_on_c, 6, 86, 0
6, 49848, Note_on_c, 6, 85, 110
6, 49870, Note_on_c, 6, 85, 0
6, 49872, Note_on_c, 6, 88, 110
6, 49896, Note_on_c, 6, 88, 0
6, 49896, Note_on_c, 6, 86, 110
6, 49918, Note_on_c, 6, 86, 0
6, 49920, Note_on_c, 6, 91, 110
6, 49992, Note_on_c, 6, 91, 0
6, 49992, Note_on_c, 6, 90, 110
6, 50016, Note_on_c, 6, 90, 0
6, 50016, Note_on_c, 6, 88, 110
6, 50040, Note_on_c, 6, 88, 0
6, 50040, Note_on_c, 6, 86, 110
6, 50062, Note_on_c, 6, 86, 0
6, 50064, Note_on_c, 6, 85, 110
6, 50076, Note_on_c, 6, 85, 0
6, 50076, Note_on_c, 6, 83, 110
6, 50088, Note_on_c, 6, 83, 0
6, 50088, Note_on_c, 6, 81, 110
6, 50100, Note_on_c, 6, 81, 0
6, 50100, Note_on_c, 6, 79, 110
6, 50112, Note_on_c, 6, 79, 0
6, 50112, Note_on_c, 6, 78, 110
6, 50124, Note_on_c, 6, 78, 0
6, 50124, Note_on_c, 6, 76, 110
6, 50136, Note_on_c, 6, 76, 0
6, 50136, Note_on_c, 6, 74, 110
6, 50148, Note_on_c, 6, 74, 0
6, 50148, Note_on_c, 6, 72, 110
6, 50160, Note_on_c, 6, 72, 0
6, 50160, Note_on_c, 6, 71, 110
6, 50172, Note_on_c, 6, 71, 0
6, 50172, Note_on_c, 6, 69, 110
6, 50184, Note_on_c, 6, 69, 0
6, 50184, Note_on_c, 6, 67, 110
6, 50196, Note_on_c, 6, 67, 0
6, 50196, Note_on_c, 6, 66, 110
6, 50208, Note_on_c, 6, 66, 0
6, 50208, Note_on_c, 6, 67, 110
6, 50220, Note_on_c, 6, 67, 0
6, 50220, Note_on_c, 6, 69, 110
6, 50232, Note_on_c, 6, 69, 0
6, 50232, Note_on_c, 6, 71, 110
6, 50244, Note_on_c, 6, 71, 0
6, 50244, Note_on_c, 6, 72, 110
6, 50256, Note_on_c, 6, 72, 0
6, 50256, Note_on_c, 6, 74, 110
6, 50268, Note_on_c, 6, 74, 0
6, 50268, Note_on_c, 6, 76, 110
6, 50280, Note_on_c, 6, 76, 0
6, 50280, Note_on_c, 6, 78, 110
6, 50292, Note_on_c, 6, 78, 0
6, 50292, Note_on_c, 6, 79, 110
6, 50302, Note_on_c, 6, 79, 0
6, 50304, Note_on_c, 6, 81, 110
6, 50328, Note_on_c, 6, 81, 0
6, 50328, Note_on_c, 6, 79, 110
6, 50352, Note_on_c, 6, 79, 0
6, 50352, Note_on_c, 6, 78, 110
6, 50376, Note_on_c, 6, 78, 0
6, 50376, Note_on_c, 6, 79, 110
6, 50398, Note_on_c, 6, 79, 0
6, 50400, Note_on_c, 6, 81, 110
6, 50424, Note_on_c, 6, 81, 0
6, 50424, Note_on_c, 6, 79, 110
6, 50446, Note_on_c, 6, 79, 0
6, 50448, Note_on_c, 6, 83, 110
6, 50472, Note_on_c, 6, 83, 0
6, 50472, Note_on_c, 6, 81, 110
6, 50494, Note_on_c, 6, 81, 0
6, 50496, Note_on_c, 6, 84, 110
6, 50592, Note_on_c, 6, 84, 0
6, 50592, Note_on_c, 6, 83, 110
6, 50686, Note_on_c, 6, 83, 0
6, 50688, Note_on_c, 6, 83, 110
6, 50712, Note_on_c, 6, 83, 0
6, 50712, Note_on_c, 6, 81, 110
6, 50736, Note_on_c, 6, 81, 0
6, 50736, Note_on_c, 6, 83, 110
6, 50752, Note_on_c, 6, 83, 0
6, 50752, Note_on_c, 6, 81, 110
6, 50768, Note_on_c, 6, 81, 0
6, 50768, Note_on_c, 6, 83, 110
6, 50784, Note_on_c, 6, 83, 0
6, 50784, Note_on_c, 6, 81, 110
6, 50794, Note_on_c, 6, 81, 0
6, 50796, Note_on_c, 6, 83, 110
6, 50808, Note_on_c, 6, 83, 0
6, 50808, Note_on_c, 6, 81, 110
6, 50820, Note_on_c, 6, 81, 0
6, 50820, Note_on_c, 6, 83, 110
6, 50832, Note_on_c, 6, 83, 0
6, 50832, Note_on_c, 6, 81, 110
6, 50840, Note_on_c, 6, 81, 0
6, 50840, Note_on_c, 6, 83, 110
6, 50848, Note_on_c, 6, 83, 0
6, 50848, Note_on_c, 6, 81, 110
6, 50854, Note_on_c, 6, 81, 0
6, 50856, Note_on_c, 6, 83, 110
6, 50864, Note_on_c, 6, 83, 0
6, 50864, Note_on_c, 6, 81, 110
6, 50870, Note_on_c, 6, 81, 0
6, 50872, Note_on_c, 6, 83, 110
6, 50880, Note_on_c, 6, 83, 0
6, 50880, Note_on_c, 6, 81, 110
6, 50888, Note_on_c, 6, 81, 0
6, 50888, Note_on_c, 6, 83, 110
6, 50896, Note_on_c, 6, 83, 0
6, 50896, Note_on_c, 6, 81, 110
6, 50904, Note_on_c, 6, 81, 0
6, 50904, Note_on_c, 6, 83, 110
6, 50912, Note_on_c, 6, 83, 0
6, 50912, Note_on_c, 6, 81, 110
6, 50918, Note_on_c, 6, 81, 0
6, 50920, Note_on_c, 6, 83, 110
6, 50928, Note_on_c, 6, 83, 0
6, 50928, Note_on_c, 6, 81, 110
6, 50936, Note_on_c, 6, 81, 0
6, 50936, Note_on_c, 6, 83, 110
6, 50944, Note_on_c, 6, 83, 0
6, 50944, Note_on_c, 6, 81, 110
6, 50952, Note_on_c, 6, 81, 0
6, 50952, Note_on_c, 6, 83, 110
6, 50960, Note_on_c, 6, 83, 0
6, 50960, Note_on_c, 6, 81, 110
6, 50966, Note_on_c, 6, 81, 0
6, 50968, Note_on_c, 6, 83, 110
6, 50976, Note_on_c, 6, 83, 0
6, 50976, Note_on_c, 6, 81, 110
6, 50984, Note_on_c, 6, 81, 0
6, 50984, Note_on_c, 6, 83, 110
6, 50992, Note_on_c, 6, 83, 0
6, 50992, Note_on_c, 6, 81, 110
6, 51000, Note_on_c, 6, 81, 0
6, 51000, Note_on_c, 6, 83, 110
6, 51008, Note_on_c, 6, 83, 0
6, 51008, Note_on_c, 6, 81, 110
6, 51014, Note_on_c, 6, 81, 0
6, 51016, Note_on_c, 6, 83, 110
6, 51024, Note_on_c, 6, 83, 0
6, 51024, Note_on_c, 6, 81, 110
6, 51032, Note_on_c, 6, 81, 0
6, 51032, Note_on_c, 6, 83, 110
6, 51040, Note_on_c, 6, 83, 0
6, 51040, Note_on_c, 6, 81, 110
6, 51048, Note_on_c, 6, 81, 0
6, 51048, Note_on_c, 6, 83, 110
6, 51056, Note_on_c, 6, 83, 0
6, 51056, Note_on_c, 6, 81, 110
6, 51062, Note_on_c, 6, 81, 0
6, 51064, Note_on_c, 6, 83, 110
6, 51072, Note_on_c, 6, 83, 0
6, 51072, Note_on_c, 6, 81, 110
6, 51080, Note_on_c, 6, 81, 0
6, 51080, Note_on_c, 6, 83, 110
6, 51088, Note_on_c, 6, 83, 0
6, 51088, Note_on_c, 6, 81, 110
6, 51096, Note_on_c, 6, 81, 0
6, 51096, Note_on_c, 6, 83, 110
6, 51104, Note_on_c, 6, 83, 0
6, 51104, Note_on_c, 6, 81, 110
6, 51110, Note_on_c, 6, 81, 0
6, 51112, Note_on_c, 6, 83, 110
6, 51120, Note_on_c, 6, 83, 0
6, 51120, Note_on_c, 6, 81, 110
6, 51128, Note_on_c, 6, 81, 0
6, 51128, Note_on_c, 6, 83, 110
6, 51136, Note_on_c, 6, 83, 0
6, 51136, Note_on_c, 6, 81, 110
6, 51144, Note_on_c, 6, 81, 0
6, 51144, Note_on_c, 6, 83, 110
6, 51152, Note_on_c, 6, 83, 0
6, 51152, Note_on_c, 6, 81, 110
6, 51158, Note_on_c, 6, 81, 0
6, 51160, Note_on_c, 6, 83, 110
6, 51168, Note_on_c, 6, 83, 0
6, 51168, Note_on_c, 6, 81, 110
6, 51176, Note_on_c, 6, 81, 0
6, 51176, Note_on_c, 6, 83, 110
6, 51184, Note_on_c, 6, 83, 0
6, 51184, Note_on_c, 6, 81, 110
6, 51192, Note_on_c, 6, 81, 0
6, 51192, Note_on_c, 6, 83, 110
6, 51200, Note_on_c, 6, 83, 0
6, 51200, Note_on_c, 6, 81, 110
6, 51206, Note_on_c, 6, 81, 0
6, 51208, Note_on_c, 6, 83, 110
6, 51216, Note_on_c, 6, 83, 0
6, 51216, Note_on_c, 6, 79, 110
6, 51238, Note_on_c, 6, 79, 0
6, 51240, Note_on_c, 6, 81, 110
6, 51262, Note_on_c, 6, 81, 0
6, 51264, Note_on_c, 6, 79, 110
6, 51424, Note_on_c, 6, 79, 0
6, 51424, End_track
7, 0, Start_track
7, 0, MIDI_port, 0
7, 0, Title_t, "Violino I"
7, 0, Program_c, 7, 48
7, 0, Control_c, 7, 7, 127
7, 0, Control_c, 7, 10, 64
7, 0, Note_on_c, 7, 67, 92
7, 160, Note_on_c, 7, 67, 0
7, 192, Note_on_c, 7, 62, 92
7, 352, Note_on_c, 7, 62, 0
7, 384, Note_on_c, 7, 59, 92
7, 544, Note_on_c, 7, 59, 0
7, 576, Note_on_c, 7, 60, 92
7, 718, Note_on_c, 7, 60, 0
7, 720, Note_on_c, 7, 79, 92
7, 766, Note_on_c, 7, 79, 0
7, 768, Note_on_c, 7, 78, 92
7, 792, Note_on_c, 7, 78, 0
7, 792, Note_on_c, 7, 79, 92
7, 816, Note_on_c, 7, 79, 0
7, 816, Note_on_c, 7, 81, 92
7, 840, Note_on_c, 7, 81, 0
7, 840, Note_on_c, 7, 79, 92
7, 1024, Note_on_c, 7, 79, 0
7, 1056, Note_on_c, 7, 78, 92
7, 1104, Note_on_c, 7, 78, 0
7, 1104, Note_on_c, 7, 76, 92
7, 1150, Note_on_c, 7, 76, 0
7, 1152, Note_on_c, 7, 76, 92
7, 1200, Note_on_c, 7, 76, 0
7, 1200, Note_on_c, 7, 74, 92
7, 1246, Note_on_c, 7, 74, 0
7, 1248, Note_on_c, 7, 74, 92
7, 1408, Note_on_c, 7, 74, 0
7, 1440, Note_on_c, 7, 76, 92
7, 1488, Note_on_c, 7, 76, 0
7, 1488, Note_on_c, 7, 74, 92
7, 1534, Note_on_c, 7, 74, 0
7, 1536, Note_on_c, 7, 74, 92
7, 1584, Note_on_c, 7, 74, 0
7, 1584, Note_on_c, 7, 72, 92
7, 1632, Note_on_c, 7, 72, 0
7, 1632, Note_on_c, 7, 71, 92
7, 1680, Note_on_c, 7, 71, 0
7, 1680, Note_on_c, 7, 72, 92
7, 1726, Note_on_c, 7, 72, 0
7, 1728, Note_on_c, 7, 69, 92
7, 1920, Note_on_c, 7, 69, 0
7, 1920, Note_on_c, 7, 71, 92
7, 2080, Note_on_c, 7, 71, 0
7, 2304, Note_on_c, 7, 84, 45
7, 2640, Note_on_c, 7, 84, 0
7, 2640, Note_on_c, 7, 81, 45
7, 2686, Note_on_c, 7, 81, 0
7, 2688, Note_on_c, 7, 78, 45
7, 2782, Note_on_c, 7, 78, 0
7, 2880, Note_on_c, 7, 86, 45
7, 3216, Note_on_c, 7, 86, 0
7, 3216, Note_on_c, 7, 83, 45
7, 3262, Note_on_c, 7, 83, 0
7, 3264, Note_on_c, 7, 79, 45
7, 3358, Note_on_c, 7, 79, 0
7, 3456, Note_on_c, 7, 88, 92
7, 3712, Note_on_c, 7, 88, 0
7, 3744, Note_on_c, 7, 86, 92
7, 3792, Note_on_c, 7, 86, 0
7, 3792, Note_on_c, 7, 84, 92
7, 3838, Note_on_c, 7, 84, 0
7, 3840, Note_on_c, 7, 83, 92
7, 3888, Note_on_c, 7, 83, 0
7, 3888, Note_on_c, 7, 81, 92
7, 3934, Note_on_c, 7, 81, 0
7, 3936, Note_on_c, 7, 76, 92
7, 3984, Note_on_c, 7, 76, 0
7, 3984, Note_on_c, 7, 81, 92
7, 4030, Note_on_c, 7, 81, 0
7, 4032, Note_on_c, 7, 79, 45
7, 4128, Note_on_c, 7, 79, 0
7, 4128, Note_on_c, 7, 78, 45
7, 4222, Note_on_c, 7, 78, 0
7, 4224, Note_on_c, 7, 79, 45
7, 4320, Note_on_c, 7, 79, 0
7, 4320, Note_on_c, 7, 77, 45
7, 4414, Note_on_c, 7, 77, 0
7, 4416, Note_on_c, 7, 76, 45
7, 4512, Note_on_c, 7, 76, 0
7, 4512, Note_on_c, 7, 74, 45
7, 4606, Note_on_c, 7, 74, 0
7, 4608, Note_on_c, 7, 73, 45
7, 4704, Note_on_c, 7, 73, 0
7, 4704, Note_on_c, 7, 72, 45
7, 4798, Note_on_c, 7, 72, 0
7, 4800, Note_on_c, 7, 70, 45
7, 4848, Note_on_c, 7, 70, 0
7, 4848, Note_on_c, 7, 71, 56
7, 4896, Note_on_c, 7, 71, 0
7, 4896, Note_on_c, 7, 72, 68
7, 4944, Note_on_c, 7, 72, 0
7, 4944, Note_on_c, 7, 73, 80
7, 4992, Note_on_c, 7, 73, 0
7, 4992, Note_on_c, 7, 74, 92
7, 5040, Note_on_c, 7, 74, 0
7, 5040, Note_on_c, 7, 75, 92
7, 5088, Note_on_c, 7, 75, 0
7, 5088, Note_on_c, 7, 76, 92
7, 5136, Note_on_c, 7, 76, 0
7, 5136, Note_on_c, 7, 72, 92
7, 5182, Note_on_c, 7, 72, 0
7, 5184, Note_on_c, 7, 71, 92
7, 5376, Note_on_c, 7, 71, 0
7, 5376, Note_on_c, 7, 69, 92
7, 5536, Note_on_c, 7, 69, 0
7, 5760, Note_on_c, 7, 71, 45
7, 5854, Note_on_c, 7, 71, 0
7, 5856, Note_on_c, 7, 71, 45
7, 5950, Note_on_c, 7, 71, 0
7, 5952, Note_on_c, 7, 71, 45
7, 6046, Note_on_c, 7, 71, 0
7, 6048, Note_on_c, 7, 71, 45
7, 6142, Note_on_c, 7, 71, 0
7, 6144, Note_on_c, 7, 74, 45
7, 6238, Note_on_c, 7, 74, 0
7, 6240, Note_on_c, 7, 74, 45
7, 6334, Note_on_c, 7, 74, 0
7, 6432, Note_on_c, 7, 74, 45
7, 6526, Note_on_c, 7, 74, 0
7, 6528, Note_on_c, 7, 74, 45
7, 6622, Note_on_c, 7, 74, 0
7, 6624, Note_on_c, 7, 74, 45
7, 6718, Note_on_c, 7, 74, 0
7, 6720, Note_on_c, 7, 74, 45
7, 6814, Note_on_c, 7, 74, 0
7, 6816, Note_on_c, 7, 74, 45
7, 6910, Note_on_c, 7, 74, 0
7, 7008, Note_on_c, 7, 66, 45
7, 7102, Note_on_c, 7, 66, 0
7, 7104, Note_on_c, 7, 66, 45
7, 7198, Note_on_c, 7, 66, 0
7, 7200, Note_on_c, 7, 66, 45
7, 7294, Note_on_c, 7, 66, 0
7, 7296, Note_on_c, 7, 66, 45
7, 7390, Note_on_c, 7, 66, 0
7, 7392, Note_on_c, 7, 66, 45
7, 7486, Note_on_c, 7, 66, 0
7, 7584, Note_on_c, 7, 67, 45
7, 7678, Note_on_c, 7, 67, 0
7, 7680, Note_on_c, 7, 67, 45
7, 7774, Note_on_c, 7, 67, 0
7, 7776, Note_on_c, 7, 67, 45
7, 7870, Note_on_c, 7, 67, 0
7, 7872, Note_on_c, 7, 67, 45
7, 7966, Note_on_c, 7, 67, 0
7, 7968, Note_on_c, 7, 67, 45
7, 8062, Note_on_c, 7, 67, 0
7, 8064, Note_on_c, 7, 76, 45
7, 8158, Note_on_c, 7, 76, 0
7, 8160, Note_on_c, 7, 76, 45
7, 8254, Note_on_c, 7, 76, 0
7, 8256, Note_on_c, 7, 72, 45
7, 8350, Note_on_c, 7, 72, 0
7, 8352, Note_on_c, 7, 72, 45
7, 8446, Note_on_c, 7, 72, 0
7, 8448, Note_on_c, 7, 67, 45
7, 8542, Note_on_c, 7, 67, 0
7, 8544, Note_on_c, 7, 67, 45
7, 8638, Note_on_c, 7, 67, 0
7, 8640, Note_on_c, 7, 69, 45
7, 8734, Note_on_c, 7, 69, 0
7, 8736, Note_on_c, 7, 69, 45
7, 8830, Note_on_c, 7, 69, 0
7, 8832, Note_on_c, 7, 69, 45
7, 8926, Note_on_c, 7, 69, 0
7, 8928, Note_on_c, 7, 69, 45
7, 9022, Note_on_c, 7, 69, 0
7, 9024, Note_on_c, 7, 74, 45
7, 9118, Note_on_c, 7, 74, 0
7, 9120, Note_on_c, 7, 74, 45
7, 9214, Note_on_c, 7, 74, 0
7, 9216, Note_on_c, 7, 76, 45
7, 9360, Note_on_c, 7, 76, 0
7, 9360, Note_on_c, 7, 72, 45
7, 9406, Note_on_c, 7, 72, 0
7, 9408, Note_on_c, 7, 71, 45
7, 9502, Note_on_c, 7, 71, 0
7, 9504, Note_on_c, 7, 71, 45
7, 9598, Note_on_c, 7, 71, 0
7, 9600, Note_on_c, 7, 69, 45
7, 9694, Note_on_c, 7, 69, 0
7, 9696, Note_on_c, 7, 69, 45
7, 9790, Note_on_c, 7, 69, 0
7, 9792, Note_on_c, 7, 67, 45
7, 9886, Note_on_c, 7, 67, 0
7, 9888, Note_on_c, 7, 67, 92
7, 9982, Note_on_c, 7, 67, 0
7, 9984, Note_on_c, 7, 69, 92
7, 9992, Note_on_c, 7, 69, 0
7, 9992, Note_on_c, 7, 67, 92
7, 10000, Note_on_c, 7, 67, 0
7, 10000, Note_on_c, 7, 69, 92
7, 10008, Note_on_c, 7, 69, 0
7, 10008, Note_on_c, 7, 67, 92
7, 10016, Note_on_c, 7, 67, 0
7, 10016, Note_on_c, 7, 69, 92
7, 10024, Note_on_c, 7, 69, 0
7, 10024, Note_on_c, 7, 67, 92
7, 10032, Note_on_c, 7, 67, 0
7, 10032, Note_on_c, 7, 69, 92
7, 10040, Note_on_c, 7, 69, 0
7, 10040, Note_on_c, 7, 67, 92
7, 10048, Note_on_c, 7, 67, 0
7, 10048, Note_on_c, 7, 69, 92
7, 10056, Note_on_c, 7, 69, 0
7, 10056, Note_on_c, 7, 67, 92
7, 10064, Note_on_c, 7, 67, 0
7, 10064, Note_on_c, 7, 69, 92
7, 10072, Note_on_c, 7, 69, 0
7, 10072, Note_on_c, 7, 67, 92
7, 10080, Note_on_c, 7, 67, 0
7, 10080, Note_on_c, 7, 69, 92
7, 10088, Note_on_c, 7, 69, 0
7, 10088, Note_on_c, 7, 67, 92
7, 10096, Note_on_c, 7, 67, 0
7, 10096, Note_on_c, 7, 69, 92
7, 10104, Note_on_c, 7, 69, 0
7, 10104, Note_on_c, 7, 67, 92
7, 10112, Note_on_c, 7, 67, 0
7, 10112, Note_on_c, 7, 69, 92
7, 10120, Note_on_c, 7, 69, 0
7, 10120, Note_on_c, 7, 67, 92
7, 10128, Note_on_c, 7, 67, 0
7, 10128, Note_on_c, 7, 66, 92
7, 10152, Note_on_c, 7, 66, 0
7, 10152, Note_on_c, 7, 67, 92
7, 10174, Note_on_c, 7, 67, 0
7, 10176, Note_on_c, 7, 71, 92
7, 10270, Note_on_c, 7, 71, 0
7, 10272, Note_on_c, 7, 63, 92
7, 10366, Note_on_c, 7, 63, 0
7, 10368, Note_on_c, 7, 64, 92
7, 10462, Note_on_c, 7, 64, 0
7, 10464, Note_on_c, 7, 67, 45
7, 10560, Note_on_c, 7, 67, 0
7, 10560, Note_on_c, 7, 69, 45
7, 10656, Note_on_c, 7, 69, 0
7, 10656, Note_on_c, 7, 71, 45
7, 10752, Note_on_c, 7, 71, 0
7, 10752, Note_on_c, 7, 72, 45
7, 10848, Note_on_c, 7, 72, 0
7, 10848, Note_on_c, 7, 71, 45
7, 10942, Note_on_c, 7, 71, 0
7, 10944, Note_on_c, 7, 69, 45
7, 11038, Note_on_c, 7, 69, 0
7, 11040, Note_on_c, 7, 69, 45
7, 11134, Note_on_c, 7, 69, 0
7, 11136, Note_on_c, 7, 69, 45
7, 11230, Note_on_c, 7, 69, 0
7, 11232, Note_on_c, 7, 69, 45
7, 11326, Note_on_c, 7, 69, 0
7, 11328, Note_on_c, 7, 71, 45
7, 11422, Note_on_c, 7, 71, 0
7, 11424, Note_on_c, 7, 71, 45
7, 11518, Note_on_c, 7, 71, 0
7, 11616, Note_on_c, 7, 66, 45
7, 11710, Note_on_c, 7, 66, 0
7, 11712, Note_on_c, 7, 64, 45
7, 11808, Note_on_c, 7, 64, 0
7, 11808, Note_on_c, 7, 66, 45
7, 11904, Note_on_c, 7, 66, 0
7, 11904, Note_on_c, 7, 67, 45
7, 12000, Note_on_c, 7, 67, 0
7, 12000, Note_on_c, 7, 69, 45
7, 12094, Note_on_c, 7, 69, 0
7, 12096, Note_on_c, 7, 70, 45
7, 12190, Note_on_c, 7, 70, 0
7, 12192, Note_on_c, 7, 70, 45
7, 12286, Note_on_c, 7, 70, 0
7, 12288, Note_on_c, 7, 70, 45
7, 12382, Note_on_c, 7, 70, 0
7, 12384, Note_on_c, 7, 70, 45
7, 12478, Note_on_c, 7, 70, 0
7, 12480, Note_on_c, 7, 69, 45
7, 12574, Note_on_c, 7, 69, 0
7, 12576, Note_on_c, 7, 69, 45
7, 12670, Note_on_c, 7, 69, 0
7, 12768, Note_on_c, 7, 74, 45
7, 12862, Note_on_c, 7, 74, 0
7, 12864, Note_on_c, 7, 74, 45
7, 12960, Note_on_c, 7, 74, 0
7, 12960, Note_on_c, 7, 73, 45
7, 13054, Note_on_c, 7, 73, 0
7, 13152, Note_on_c, 7, 74, 45
7, 13246, Note_on_c, 7, 74, 0
7, 13248, Note_on_c, 7, 74, 45
7, 13344, Note_on_c, 7, 74, 0
7, 13344, Note_on_c, 7, 77, 45
7, 13438, Note_on_c, 7, 77, 0
7, 13536, Note_on_c, 7, 76, 45
7, 13630, Note_on_c, 7, 76, 0
7, 13632, Note_on_c, 7, 76, 45
7, 13728, Note_on_c, 7, 76, 0
7, 13728, Note_on_c, 7, 69, 45
7, 13822, Note_on_c, 7, 69, 0
7, 13824, Note_on_c, 7, 71, 45
7, 13918, Note_on_c, 7, 71, 0
7, 13920, Note_on_c, 7, 71, 45
7, 14014, Note_on_c, 7, 71, 0
7, 14016, Note_on_c, 7, 71, 45
7, 14110, Note_on_c, 7, 71, 0
7, 14112, Note_on_c, 7, 71, 45
7, 14206, Note_on_c, 7, 71, 0
7, 14208, Note_on_c, 7, 71, 45
7, 14302, Note_on_c, 7, 71, 0
7, 14304, Note_on_c, 7, 71, 45
7, 14398, Note_on_c, 7, 71, 0
7, 14400, Note_on_c, 7, 57, 45
7, 14400, Note_on_c, 7, 66, 45
7, 14592, Note_on_c, 7, 57, 0
7, 14592, Note_on_c, 7, 66, 0
7, 14592, Note_on_c, 7, 57, 45
7, 14592, Note_on_c, 7, 64, 45
7, 14752, Note_on_c, 7, 57, 0
7, 14752, Note_on_c, 7, 64, 0
7, 14880, Note_on_c, 7, 69, 92
7, 14974, Note_on_c, 7, 69, 0
7, 14976, Note_on_c, 7, 81, 92
7, 15024, Note_on_c, 7, 81, 0
7, 15024, Note_on_c, 7, 79, 92
7, 15070, Note_on_c, 7, 79, 0
7, 15072, Note_on_c, 7, 78, 92
7, 15096, Note_on_c, 7, 78, 0
7, 15096, Note_on_c, 7, 79, 92
7, 15120, Note_on_c, 7, 79, 0
7, 15120, Note_on_c, 7, 81, 92
7, 15144, Note_on_c, 7, 81, 0
7, 15144, Note_on_c, 7, 79, 92
7, 15262, Note_on_c, 7, 79, 0
7, 15264, Note_on_c, 7, 78, 92
7, 15312, Note_on_c, 7, 78, 0
7, 15312, Note_on_c, 7, 76, 92
7, 15358, Note_on_c, 7, 76, 0
7, 15360, Note_on_c, 7, 78, 92
7, 15408, Note_on_c, 7, 78, 0
7, 15408, Note_on_c, 7, 76, 92
7, 15456, Note_on_c, 7, 76, 0
7, 15456, Note_on_c, 7, 74, 92
7, 15504, Note_on_c, 7, 74, 0
7, 15504, Note_on_c, 7, 73, 92
7, 15550, Note_on_c, 7, 73, 0
7, 15552, Note_on_c, 7, 74, 45
7, 15600, Note_on_c, 7, 74, 0
7, 15600, Note_on_c, 7, 78, 45
7, 15648, Note_on_c, 7, 78, 0
7, 15648, Note_on_c, 7, 83, 45
7, 15696, Note_on_c, 7, 83, 0
7, 15696, Note_on_c, 7, 81, 45
7, 15742, Note_on_c, 7, 81, 0
7, 15744, Note_on_c, 7, 81, 45
7, 15904, Note_on_c, 7, 81, 0
7, 16032, Note_on_c, 7, 69, 92
7, 16126, Note_on_c, 7, 69, 0
7, 16128, Note_on_c, 7, 81, 92
7, 16176, Note_on_c, 7, 81, 0
7, 16176, Note_on_c, 7, 79, 92
7, 16222, Note_on_c, 7, 79, 0
7, 16224, Note_on_c, 7, 78, 92
7, 16248, Note_on_c, 7, 78, 0
7, 16248, Note_on_c, 7, 79, 92
7, 16272, Note_on_c, 7, 79, 0
7, 16272, Note_on_c, 7, 81, 92
7, 16296, Note_on_c, 7, 81, 0
7, 16296, Note_on_c, 7, 79, 92
7, 16414, Note_on_c, 7, 79, 0
7, 16416, Note_on_c, 7, 78, 92
7, 16464, Note_on_c, 7, 78, 0
7, 16464, Note_on_c, 7, 76, 92
7, 16510, Note_on_c, 7, 76, 0
7, 16512, Note_on_c, 7, 74, 92
7, 16560, Note_on_c, 7, 74, 0
7, 16560, Note_on_c, 7, 73, 92
7, 16608, Note_on_c, 7, 73, 0
7, 16608, Note_on_c, 7, 71, 92
7, 16656, Note_on_c, 7, 71, 0
7, 16656, Note_on_c, 7, 69, 92
7, 16702, Note_on_c, 7, 69, 0
7, 16704, Note_on_c, 7, 74, 45
7, 16752, Note_on_c, 7, 74, 0
7, 16752, Note_on_c, 7, 78, 45
7, 16800, Note_on_c, 7, 78, 0
7, 16800, Note_on_c, 7, 83, 45
7, 16848, Note_on_c, 7, 83, 0
7, 16848, Note_on_c, 7, 81, 45
7, 16894, Note_on_c, 7, 81, 0
7, 16896, Note_on_c, 7, 81, 45
7, 16990, Note_on_c, 7, 81, 0
7, 16992, Note_on_c, 7, 69, 45
7, 17086, Note_on_c, 7, 69, 0
7, 17088, Note_on_c, 7, 69, 45
7, 17182, Note_on_c, 7, 69, 0
7, 17184, Note_on_c, 7, 74, 45
7, 17278, Note_on_c, 7, 74, 0
7, 17280, Note_on_c, 7, 74, 45
7, 17374, Note_on_c, 7, 74, 0
7, 17376, Note_on_c, 7, 74, 45
7, 17470, Note_on_c, 7, 74, 0
7, 17472, Note_on_c, 7, 76, 45
7, 17566, Note_on_c, 7, 76, 0
7, 17568, Note_on_c, 7, 76, 45
7, 17662, Note_on_c, 7, 76, 0
7, 17664, Note_on_c, 7, 69, 45
7, 17758, Note_on_c, 7, 69, 0
7, 17760, Note_on_c, 7, 69, 45
7, 17854, Note_on_c, 7, 69, 0
7, 17856, Note_on_c, 7, 71, 45
7, 17950, Note_on_c, 7, 71, 0
7, 17952, Note_on_c, 7, 71, 45
7, 18046, Note_on_c, 7, 71, 0
7, 18048, Note_on_c, 7, 73, 45
7, 18142, Note_on_c, 7, 73, 0
7, 18144, Note_on_c, 7, 73, 45
7, 18238, Note_on_c, 7, 73, 0
7, 18240, Note_on_c, 7, 74, 45
7, 18334, Note_on_c, 7, 74, 0
7, 18336, Note_on_c, 7, 74, 45
7, 18430, Note_on_c, 7, 74, 0
7, 18432, Note_on_c, 7, 71, 45
7, 18574, Note_on_c, 7, 71, 0
7, 18576, Note_on_c, 7, 67, 45
7, 18622, Note_on_c, 7, 67, 0
7, 18624, Note_on_c, 7, 66, 45
7, 18672, Note_on_c, 7, 66, 0
7, 18672, Note_on_c, 7, 69, 45
7, 18720, Note_on_c, 7, 69, 0
7, 18720, Note_on_c, 7, 67, 45
7, 18768, Note_on_c, 7, 67, 0
7, 18768, Note_on_c, 7, 66, 45
7, 18814, Note_on_c, 7, 66, 0
7, 18816, Note_on_c, 7, 67, 45
7, 18864, Note_on_c, 7, 67, 0
7, 18864, Note_on_c, 7, 69, 45
7, 18912, Note_on_c, 7, 69, 0
7, 18912, Note_on_c, 7, 71, 45
7, 18960, Note_on_c, 7, 71, 0
7, 18960, Note_on_c, 7, 73, 45
7, 19006, Note_on_c, 7, 73, 0
7, 19008, Note_on_c, 7, 73, 45
7, 19104, Note_on_c, 7, 73, 0
7, 19104, Note_on_c, 7, 74, 45
7, 19198, Note_on_c, 7, 74, 0
7, 19200, Note_on_c, 7, 74, 45
7, 19232, Note_on_c, 7, 74, 0
7, 19296, Note_on_c, 7, 78, 92
7, 19392, Note_on_c, 7, 78, 0
7, 19392, Note_on_c, 7, 79, 92
7, 19488, Note_on_c, 7, 79, 0
7, 19488, Note_on_c, 7, 81, 92
7, 19582, Note_on_c, 7, 81, 0
7, 19584, Note_on_c, 7, 83, 92
7, 19678, Note_on_c, 7, 83, 0
7, 19680, Note_on_c, 7, 74, 45
7, 19774, Note_on_c, 7, 74, 0
7, 19776, Note_on_c, 7, 76, 45
7, 19870, Note_on_c, 7, 76, 0
7, 19872, Note_on_c, 7, 76, 45
7, 19966, Note_on_c, 7, 76, 0
7, 19968, Note_on_c, 7, 69, 45
7, 20062, Note_on_c, 7, 69, 0
7, 20064, Note_on_c, 7, 69, 45
7, 20158, Note_on_c, 7, 69, 0
7, 20160, Note_on_c, 7, 69, 45
7, 20254, Note_on_c, 7, 69, 0
7, 20256, Note_on_c, 7, 69, 45
7, 20350, Note_on_c, 7, 69, 0
7, 20352, Note_on_c, 7, 69, 45
7, 20446, Note_on_c, 7, 69, 0
7, 20448, Note_on_c, 7, 69, 45
7, 20542, Note_on_c, 7, 69, 0
7, 20544, Note_on_c, 7, 69, 45
7, 20638, Note_on_c, 7, 69, 0
7, 20640, Note_on_c, 7, 69, 45
7, 20734, Note_on_c, 7, 69, 0
7, 20832, Note_on_c, 7, 71, 45
7, 20926, Note_on_c, 7, 71, 0
7, 20928, Note_on_c, 7, 71, 45
7, 21022, Note_on_c, 7, 71, 0
7, 21024, Note_on_c, 7, 71, 45
7, 21118, Note_on_c, 7, 71, 0
7, 21120, Note_on_c, 7, 71, 45
7, 21214, Note_on_c, 7, 71, 0
7, 21216, Note_on_c, 7, 71, 45
7, 21310, Note_on_c, 7, 71, 0
7, 21408, Note_on_c, 7, 74, 45
7, 21502, Note_on_c, 7, 74, 0
7, 21504, Note_on_c, 7, 74, 45
7, 21598, Note_on_c, 7, 74, 0
7, 21600, Note_on_c, 7, 74, 45
7, 21694, Note_on_c, 7, 74, 0
7, 21696, Note_on_c, 7, 74, 45
7, 21790, Note_on_c, 7, 74, 0
7, 21792, Note_on_c, 7, 74, 45
7, 21886, Note_on_c, 7, 74, 0
7, 21984, Note_on_c, 7, 73, 45
7, 22078, Note_on_c, 7, 73, 0
7, 22080, Note_on_c, 7, 73, 54
7, 22174, Note_on_c, 7, 73, 0
7, 22176, Note_on_c, 7, 73, 63
7, 22270, Note_on_c, 7, 73, 0
7, 22272, Note_on_c, 7, 73, 72
7, 22366, Note_on_c, 7, 73, 0
7, 22368, Note_on_c, 7, 73, 82
7, 22462, Note_on_c, 7, 73, 0
7, 22464, Note_on_c, 7, 74, 92
7, 22558, Note_on_c, 7, 74, 0
7, 22560, Note_on_c, 7, 74, 92
7, 22720, Note_on_c, 7, 74, 0
7, 22752, Note_on_c, 7, 74, 92
7, 22912, Note_on_c, 7, 74, 0
7, 22944, Note_on_c, 7, 74, 92
7, 23038, Note_on_c, 7, 74, 0
7, 23040, Note_on_c, 7, 76, 92
7, 23134, Note_on_c, 7, 76, 0
7, 23136, Note_on_c, 7, 76, 92
7, 23296, Note_on_c, 7, 76, 0
7, 23328, Note_on_c, 7, 76, 92
7, 23488, Note_on_c, 7, 76, 0
7, 23520, Note_on_c, 7, 76, 92
7, 23614, Note_on_c, 7, 76, 0
7, 23616, Note_on_c, 7, 78, 45
7, 23710, Note_on_c, 7, 78, 0
7, 23712, Note_on_c, 7, 78, 45
7, 23872, Note_on_c, 7, 78, 0
7, 23904, Note_on_c, 7, 78, 45
7, 24064, Note_on_c, 7, 78, 0
7, 24096, Note_on_c, 7, 78, 45
7, 24190, Note_on_c, 7, 78, 0
7, 24192, Note_on_c, 7, 79, 45
7, 24286, Note_on_c, 7, 79, 0
7, 24288, Note_on_c, 7, 79, 45
7, 24448, Note_on_c, 7, 79, 0
7, 24480, Note_on_c, 7, 79, 45
7, 24640, Note_on_c, 7, 79, 0
7, 24672, Note_on_c, 7, 79, 45
7, 24862, Note_on_c, 7, 79, 0
7, 24864, Note_on_c, 7, 79, 45
7, 25024, Note_on_c, 7, 79, 0
7, 25056, Note_on_c, 7, 73, 45
7, 25216, Note_on_c, 7, 73, 0
7, 25248, Note_on_c, 7, 73, 45
7, 25392, Note_on_c, 7, 73, 0
7, 25392, Note_on_c, 7, 74, 45
7, 25440, Note_on_c, 7, 74, 0
7, 25440, Note_on_c, 7, 73, 45
7, 25488, Note_on_c, 7, 73, 0
7, 25488, Note_on_c, 7, 74, 45
7, 25534, Note_on_c, 7, 74, 0
7, 25536, Note_on_c, 7, 74, 45
7, 25630, Note_on_c, 7, 74, 0
7, 25632, Note_on_c, 7, 69, 45
7, 25726, Note_on_c, 7, 69, 0
7, 25728, Note_on_c, 7, 69, 45
7, 25822, Note_on_c, 7, 69, 0
7, 25824, Note_on_c, 7, 69, 45
7, 25918, Note_on_c, 7, 69, 0
7, 25920, Note_on_c, 7, 67, 45
7, 26080, Note_on_c, 7, 67, 0
7, 26112, Note_on_c, 7, 61, 45
7, 26272, Note_on_c, 7, 61, 0
7, 26304, Note_on_c, 7, 73, 45
7, 26464, Note_on_c, 7, 73, 0
7, 26496, Note_on_c, 7, 74, 45
7, 26528, Note_on_c, 7, 74, 0
7, 26544, Note_on_c, 7, 66, 45
7, 26592, Note_on_c, 7, 66, 0
7, 26592, Note_on_c, 7, 65, 45
7, 26640, Note_on_c, 7, 65, 0
7, 26640, Note_on_c, 7, 66, 45
7, 26686, Note_on_c, 7, 66, 0
7, 26736, Note_on_c, 7, 66, 45
7, 26768, Note_on_c, 7, 66, 0
7, 26784, Note_on_c, 7, 66, 45
7, 26832, Note_on_c, 7, 66, 0
7, 26832, Note_on_c, 7, 69, 45
7, 26878, Note_on_c, 7, 69, 0
7, 26928, Note_on_c, 7, 67, 45
7, 26960, Note_on_c, 7, 67, 0
7, 26976, Note_on_c, 7, 67, 45
7, 27024, Note_on_c, 7, 67, 0
7, 27024, Note_on_c, 7, 71, 45
7, 27070, Note_on_c, 7, 71, 0
7, 27120, Note_on_c, 7, 69, 45
7, 27168, Note_on_c, 7, 69, 0
7, 27168, Note_on_c, 7, 68, 45
7, 27216, Note_on_c, 7, 68, 0
7, 27216, Note_on_c, 7, 69, 45
7, 27262, Note_on_c, 7, 69, 0
7, 27312, Note_on_c, 7, 69, 45
7, 27344, Note_on_c, 7, 69, 0
7, 27360, Note_on_c, 7, 69, 45
7, 27408, Note_on_c, 7, 69, 0
7, 27408, Note_on_c, 7, 72, 45
7, 27454, Note_on_c, 7, 72, 0
7, 27504, Note_on_c, 7, 71, 45
7, 27536, Note_on_c, 7, 71, 0
7, 27552, Note_on_c, 7, 71, 45
7, 27600, Note_on_c, 7, 71, 0
7, 27600, Note_on_c, 7, 74, 45
7, 27646, Note_on_c, 7, 74, 0
7, 27648, Note_on_c, 7, 72, 45
7, 27742, Note_on_c, 7, 72, 0
7, 27840, Note_on_c, 7, 69, 45
7, 27934, Note_on_c, 7, 69, 0
7, 28032, Note_on_c, 7, 66, 45
7, 28126, Note_on_c, 7, 66, 0
7, 28224, Note_on_c, 7, 67, 92
7, 28384, Note_on_c, 7, 67, 0
7, 28416, Note_on_c, 7, 62, 92
7, 28576, Note_on_c, 7, 62, 0
7, 28608, Note_on_c, 7, 59, 92
7, 28768, Note_on_c, 7, 59, 0
7, 28800, Note_on_c, 7, 60, 92
7, 28942, Note_on_c, 7, 60, 0
7, 28944, Note_on_c, 7, 79, 92
7, 28990, Note_on_c, 7, 79, 0
7, 28992, Note_on_c, 7, 78, 92
7, 29016, Note_on_c, 7, 78, 0
7, 29016, Note_on_c, 7, 79, 92
7, 29040, Note_on_c, 7, 79, 0
7, 29040, Note_on_c, 7, 81, 92
7, 29064, Note_on_c, 7, 81, 0
7, 29064, Note_on_c, 7, 79, 92
7, 29248, Note_on_c, 7, 79, 0
7, 29280, Note_on_c, 7, 78, 92
7, 29328, Note_on_c, 7, 78, 0
7, 29328, Note_on_c, 7, 76, 92
7, 29374, Note_on_c, 7, 76, 0
7, 29376, Note_on_c, 7, 76, 92
7, 29424, Note_on_c, 7, 76, 0
7, 29424, Note_on_c, 7, 74, 92
7, 29470, Note_on_c, 7, 74, 0
7, 29472, Note_on_c, 7, 74, 92
7, 29632, Note_on_c, 7, 74, 0
7, 29664, Note_on_c, 7, 76, 92
7, 29712, Note_on_c, 7, 76, 0
7, 29712, Note_on_c, 7, 74, 92
7, 29758, Note_on_c, 7, 74, 0
7, 29760, Note_on_c, 7, 74, 92
7, 29808, Note_on_c, 7, 74, 0
7, 29808, Note_on_c, 7, 72, 92
7, 29856, Note_on_c, 7, 72, 0
7, 29856, Note_on_c, 7, 71, 92
7, 29904, Note_on_c, 7, 71, 0
7, 29904, Note_on_c, 7, 72, 92
7, 29950, Note_on_c, 7, 72, 0
7, 29952, Note_on_c, 7, 69, 92
7, 30144, Note_on_c, 7, 69, 0
7, 30144, Note_on_c, 7, 71, 92
7, 30304, Note_on_c, 7, 71, 0
7, 30624, Note_on_c, 7, 57, 45
7, 30720, Note_on_c, 7, 57, 0
7, 30720, Note_on_c, 7, 60, 45
7, 30816, Note_on_c, 7, 60, 0
7, 30816, Note_on_c, 7, 66, 45
7, 30912, Note_on_c, 7, 66, 0
7, 30912, Note_on_c, 7, 69, 45
7, 31008, Note_on_c, 7, 69, 0
7, 31008, Note_on_c, 7, 72, 45
7, 31102, Note_on_c, 7, 72, 0
7, 31200, Note_on_c, 7, 59, 45
7, 31296, Note_on_c, 7, 59, 0
7, 31296, Note_on_c, 7, 62, 45
7, 31392, Note_on_c, 7, 62, 0
7, 31392, Note_on_c, 7, 67, 45
7, 31488, Note_on_c, 7, 67, 0
7, 31488, Note_on_c, 7, 71, 45
7, 31584, Note_on_c, 7, 71, 0
7, 31584, Note_on_c, 7, 74, 45
7, 31678, Note_on_c, 7, 74, 0
7, 31680, Note_on_c, 7, 89, 92
7, 32016, Note_on_c, 7, 89, 0
7, 32016, Note_on_c, 7, 86, 92
7, 32062, Note_on_c, 7, 86, 0
7, 32064, Note_on_c, 7, 83, 92
7, 32158, Note_on_c, 7, 83, 0
7, 32256, Note_on_c, 7, 64, 45
7, 32350, Note_on_c, 7, 64, 0
7, 32352, Note_on_c, 7, 64, 45
7, 32446, Note_on_c, 7, 64, 0
7, 32448, Note_on_c, 7, 64, 45
7, 32542, Note_on_c, 7, 64, 0
7, 32544, Note_on_c, 7, 64, 45
7, 32638, Note_on_c, 7, 64, 0
7, 32640, Note_on_c, 7, 64, 45
7, 32734, Note_on_c, 7, 64, 0
7, 32736, Note_on_c, 7, 64, 45
7, 32830, Note_on_c, 7, 64, 0
7, 32832, Note_on_c, 7, 65, 45
7, 32926, Note_on_c, 7, 65, 0
7, 32928, Note_on_c, 7, 65, 45
7, 33022, Note_on_c, 7, 65, 0
7, 33024, Note_on_c, 7, 65, 45
7, 33118, Note_on_c, 7, 65, 0
7, 33120, Note_on_c, 7, 65, 45
7, 33214, Note_on_c, 7, 65, 0
7, 33216, Note_on_c, 7, 64, 45
7, 33310, Note_on_c, 7, 64, 0
7, 33312, Note_on_c, 7, 64, 45
7, 33406, Note_on_c, 7, 64, 0
7, 33504, Note_on_c, 7, 62, 45
7, 33598, Note_on_c, 7, 62, 0
7, 33600, Note_on_c, 7, 62, 45
7, 33694, Note_on_c, 7, 62, 0
7, 33696, Note_on_c, 7, 62, 45
7, 33790, Note_on_c, 7, 62, 0
7, 33792, Note_on_c, 7, 62, 45
7, 33886, Note_on_c, 7, 62, 0
7, 33888, Note_on_c, 7, 62, 45
7, 33982, Note_on_c, 7, 62, 0
7, 33984, Note_on_c, 7, 63, 45
7, 34078, Note_on_c, 7, 63, 0
7, 34080, Note_on_c, 7, 63, 45
7, 34174, Note_on_c, 7, 63, 0
7, 34176, Note_on_c, 7, 63, 45
7, 34270, Note_on_c, 7, 63, 0
7, 34272, Note_on_c, 7, 63, 45
7, 34366, Note_on_c, 7, 63, 0
7, 34368, Note_on_c, 7, 62, 45
7, 34462, Note_on_c, 7, 62, 0
7, 34464, Note_on_c, 7, 74, 45
7, 34558, Note_on_c, 7, 74, 0
7, 34656, Note_on_c, 7, 67, 45
7, 34750, Note_on_c, 7, 67, 0
7, 34752, Note_on_c, 7, 67, 45
7, 34848, Note_on_c, 7, 67, 0
7, 34848, Note_on_c, 7, 66, 45
7, 34942, Note_on_c, 7, 66, 0
7, 35040, Note_on_c, 7, 67, 45
7, 35134, Note_on_c, 7, 67, 0
7, 35136, Note_on_c, 7, 67, 45
7, 35232, Note_on_c, 7, 67, 0
7, 35232, Note_on_c, 7, 70, 45
7, 35326, Note_on_c, 7, 70, 0
7, 35424, Note_on_c, 7, 69, 45
7, 35518, Note_on_c, 7, 69, 0
7, 35520, Note_on_c, 7, 69, 45
7, 35616, Note_on_c, 7, 69, 0
7, 35616, Note_on_c, 7, 74, 45
7, 35710, Note_on_c, 7, 74, 0
7, 35712, Note_on_c, 7, 76, 45
7, 35806, Note_on_c, 7, 76, 0
7, 35808, Note_on_c, 7, 76, 45
7, 35902, Note_on_c, 7, 76, 0
7, 35904, Note_on_c, 7, 76, 45
7, 35998, Note_on_c, 7, 76, 0
7, 36000, Note_on_c, 7, 76, 45
7, 36094, Note_on_c, 7, 76, 0
7, 36096, Note_on_c, 7, 76, 45
7, 36190, Note_on_c, 7, 76, 0
7, 36192, Note_on_c, 7, 76, 45
7, 36286, Note_on_c, 7, 76, 0
7, 36288, Note_on_c, 7, 71, 45
7, 36480, Note_on_c, 7, 71, 0
7, 36480, Note_on_c, 7, 69, 45
7, 36640, Note_on_c, 7, 69, 0
7, 36768, Note_on_c, 7, 62, 92
7, 36862, Note_on_c, 7, 62, 0
7, 36864, Note_on_c, 7, 74, 92
7, 36912, Note_on_c, 7, 74, 0
7, 36912, Note_on_c, 7, 72, 92
7, 36958, Note_on_c, 7, 72, 0
7, 36960, Note_on_c, 7, 71, 92
7, 36984, Note_on_c, 7, 71, 0
7, 36984, Note_on_c, 7, 72, 92
7, 37008, Note_on_c, 7, 72, 0
7, 37008, Note_on_c, 7, 74, 92
7, 37032, Note_on_c, 7, 74, 0
7, 37032, Note_on_c, 7, 72, 92
7, 37150, Note_on_c, 7, 72, 0
7, 37152, Note_on_c, 7, 71, 92
7, 37200, Note_on_c, 7, 71, 0
7, 37200, Note_on_c, 7, 69, 92
7, 37246, Note_on_c, 7, 69, 0
7, 37248, Note_on_c, 7, 67, 92
7, 37296, Note_on_c, 7, 67, 0
7, 37296, Note_on_c, 7, 66, 92
7, 37344, Note_on_c, 7, 66, 0
7, 37344, Note_on_c, 7, 64, 92
7, 37392, Note_on_c, 7, 64, 0
7, 37392, Note_on_c, 7, 66, 92
7, 37438, Note_on_c, 7, 66, 0
7, 37440, Note_on_c, 7, 67, 45
7, 37488, Note_on_c, 7, 67, 0
7, 37488, Note_on_c, 7, 71, 45
7, 37536, Note_on_c, 7, 71, 0
7, 37536, Note_on_c, 7, 76, 45
7, 37584, Note_on_c, 7, 76, 0
7, 37584, Note_on_c, 7, 74, 45
7, 37630, Note_on_c, 7, 74, 0
7, 37632, Note_on_c, 7, 74, 45
7, 37792, Note_on_c, 7, 74, 0
7, 37920, Note_on_c, 7, 74, 92
7, 38014, Note_on_c, 7, 74, 0
7, 38016, Note_on_c, 7, 86, 92
7, 38064, Note_on_c, 7, 86, 0
7, 38064, Note_on_c, 7, 84, 92
7, 38110, Note_on_c, 7, 84, 0
7, 38112, Note_on_c, 7, 83, 92
7, 38136, Note_on_c, 7, 83, 0
7, 38136, Note_on_c, 7, 84, 92
7, 38160, Note_on_c, 7, 84, 0
7, 38160, Note_on_c, 7, 86, 92
7, 38184, Note_on_c, 7, 86, 0
7, 38184, Note_on_c, 7, 84, 92
7, 38302, Note_on_c, 7, 84, 0
7, 38304, Note_on_c, 7, 83, 92
7, 38352, Note_on_c, 7, 83, 0
7, 38352, Note_on_c, 7, 81, 92
7, 38398, Note_on_c, 7, 81, 0
7, 38400, Note_on_c, 7, 79, 92
7, 38446, Note_on_c, 7, 79, 0
7, 38448, Note_on_c, 7, 78, 92
7, 38494, Note_on_c, 7, 78, 0
7, 38496, Note_on_c, 7, 76, 92
7, 38542, Note_on_c, 7, 76, 0
7, 38544, Note_on_c, 7, 74, 92
7, 38590, Note_on_c, 7, 74, 0
7, 38592, Note_on_c, 7, 79, 45
7, 38640, Note_on_c, 7, 79, 0
7, 38640, Note_on_c, 7, 83, 45
7, 38688, Note_on_c, 7, 83, 0
7, 38688, Note_on_c, 7, 88, 45
7, 38736, Note_on_c, 7, 88, 0
7, 38736, Note_on_c, 7, 86, 45
7, 38782, Note_on_c, 7, 86, 0
7, 38784, Note_on_c, 7, 86, 45
7, 38878, Note_on_c, 7, 86, 0
7, 38880, Note_on_c, 7, 74, 45
7, 38974, Note_on_c, 7, 74, 0
7, 38976, Note_on_c, 7, 74, 45
7, 39070, Note_on_c, 7, 74, 0
7, 39072, Note_on_c, 7, 67, 45
7, 39166, Note_on_c, 7, 67, 0
7, 39168, Note_on_c, 7, 67, 45
7, 39262, Note_on_c, 7, 67, 0
7, 39264, Note_on_c, 7, 67, 45
7, 39358, Note_on_c, 7, 67, 0
7, 39360, Note_on_c, 7, 67, 45
7, 39454, Note_on_c, 7, 67, 0
7, 39456, Note_on_c, 7, 67, 45
7, 39550, Note_on_c, 7, 67, 0
7, 39552, Note_on_c, 7, 66, 45
7, 39646, Note_on_c, 7, 66, 0
7, 39648, Note_on_c, 7, 66, 45
7, 39742, Note_on_c, 7, 66, 0
7, 39744, Note_on_c, 7, 67, 45
7, 39936, Note_on_c, 7, 67, 0
7, 39936, Note_on_c, 7, 69, 45
7, 40128, Note_on_c, 7, 69, 0
7, 40128, Note_on_c, 7, 74, 45
7, 40288, Note_on_c, 7, 74, 0
7, 40320, Note_on_c, 7, 76, 45
7, 40462, Note_on_c, 7, 76, 0
7, 40464, Note_on_c, 7, 72, 45
7, 40510, Note_on_c, 7, 72, 0
7, 40512, Note_on_c, 7, 71, 45
7, 40560, Note_on_c, 7, 71, 0
7, 40560, Note_on_c, 7, 72, 45
7, 40608, Note_on_c, 7, 72, 0
7, 40608, Note_on_c, 7, 74, 45
7, 40656, Note_on_c, 7, 74, 0
7, 40656, Note_on_c, 7, 71, 45
7, 40702, Note_on_c, 7, 71, 0
7, 40704, Note_on_c, 7, 69, 45
7, 40752, Note_on_c, 7, 69, 0
7, 40752, Note_on_c, 7, 71, 45
7, 40800, Note_on_c, 7, 71, 0
7, 40800, Note_on_c, 7, 72, 45
7, 40848, Note_on_c, 7, 72, 0
7, 40848, Note_on_c, 7, 69, 45
7, 40894, Note_on_c, 7, 69, 0
7, 40896, Note_on_c, 7, 72, 45
7, 41040, Note_on_c, 7, 72, 0
7, 41040, Note_on_c, 7, 71, 45
7, 41086, Note_on_c, 7, 71, 0
7, 41088, Note_on_c, 7, 71, 45
7, 41248, Note_on_c, 7, 71, 0
7, 41472, Note_on_c, 7, 67, 45
7, 41566, Note_on_c, 7, 67, 0
7, 41568, Note_on_c, 7, 67, 45
7, 41662, Note_on_c, 7, 67, 0
7, 41664, Note_on_c, 7, 66, 45
7, 41758, Note_on_c, 7, 66, 0
7, 41760, Note_on_c, 7, 66, 45
7, 41854, Note_on_c, 7, 66, 0
7, 41856, Note_on_c, 7, 67, 45
7, 41950, Note_on_c, 7, 67, 0
7, 41952, Note_on_c, 7, 67, 45
7, 42046, Note_on_c, 7, 67, 0
7, 42048, Note_on_c, 7, 69, 45
7, 42208, Note_on_c, 7, 69, 0
7, 42240, Note_on_c, 7, 74, 45
7, 42528, Note_on_c, 7, 74, 0
7, 42528, Note_on_c, 7, 75, 45
7, 42622, Note_on_c, 7, 75, 0
7, 42624, Note_on_c, 7, 76, 45
7, 42718, Note_on_c, 7, 76, 0
7, 42720, Note_on_c, 7, 76, 45
7, 42814, Note_on_c, 7, 76, 0
7, 42816, Note_on_c, 7, 76, 45
7, 42912, Note_on_c, 7, 76, 0
7, 42912, Note_on_c, 7, 72, 45
7, 43006, Note_on_c, 7, 72, 0
7, 43008, Note_on_c, 7, 76, 45
7, 43104, Note_on_c, 7, 76, 0
7, 43104, Note_on_c, 7, 72, 45
7, 43198, Note_on_c, 7, 72, 0
7, 43296, Note_on_c, 7, 71, 45
7, 43390, Note_on_c, 7, 71, 0
7, 43392, Note_on_c, 7, 71, 45
7, 43486, Note_on_c, 7, 71, 0
7, 43488, Note_on_c, 7, 71, 45
7, 43582, Note_on_c, 7, 71, 0
7, 43584, Note_on_c, 7, 71, 45
7, 43678, Note_on_c, 7, 71, 0
7, 43680, Note_on_c, 7, 71, 45
7, 43774, Note_on_c, 7, 71, 0
7, 43872, Note_on_c, 7, 72, 45
7, 43966, Note_on_c, 7, 72, 0
7, 43968, Note_on_c, 7, 72, 54
7, 44062, Note_on_c, 7, 72, 0
7, 44064, Note_on_c, 7, 72, 63
7, 44158, Note_on_c, 7, 72, 0
7, 44160, Note_on_c, 7, 78, 72
7, 44254, Note_on_c, 7, 78, 0
7, 44256, Note_on_c, 7, 78, 82
7, 44350, Note_on_c, 7, 78, 0
7, 44352, Note_on_c, 7, 79, 92
7, 44446, Note_on_c, 7, 79, 0
7, 44448, Note_on_c, 7, 79, 92
7, 44608, Note_on_c, 7, 79, 0
7, 44640, Note_on_c, 7, 79, 92
7, 44800, Note_on_c, 7, 79, 0
7, 44832, Note_on_c, 7, 79, 92
7, 44926, Note_on_c, 7, 79, 0
7, 44928, Note_on_c, 7, 81, 92
7, 45022, Note_on_c, 7, 81, 0
7, 45024, Note_on_c, 7, 81, 92
7, 45184, Note_on_c, 7, 81, 0
7, 45216, Note_on_c, 7, 81, 92
7, 45376, Note_on_c, 7, 81, 0
7, 45408, Note_on_c, 7, 81, 92
7, 45502, Note_on_c, 7, 81, 0
7, 45504, Note_on_c, 7, 83, 45
7, 45598, Note_on_c, 7, 83, 0
7, 45600, Note_on_c, 7, 83, 45
7, 45760, Note_on_c, 7, 83, 0
7, 45792, Note_on_c, 7, 83, 45
7, 45952, Note_on_c, 7, 83, 0
7, 45984, Note_on_c, 7, 83, 45
7, 46078, Note_on_c, 7, 83, 0
7, 46080, Note_on_c, 7, 84, 45
7, 46174, Note_on_c, 7, 84, 0
7, 46176, Note_on_c, 7, 84, 52
7, 46336, Note_on_c, 7, 84, 0
7, 46368, Note_on_c, 7, 85, 68
7, 46462, Note_on_c, 7, 85, 0
7, 46464, Note_on_c, 7, 86, 76
7, 46558, Note_on_c, 7, 86, 0
7, 46560, Note_on_c, 7, 87, 84
7, 46654, Note_on_c, 7, 87, 0
7, 46656, Note_on_c, 7, 88, 92
7, 46912, Note_on_c, 7, 88, 0
7, 46944, Note_on_c, 7, 86, 92
7, 46992, Note_on_c, 7, 86, 0
7, 46992, Note_on_c, 7, 84, 92
7, 47038, Note_on_c, 7, 84, 0
7, 47040, Note_on_c, 7, 83, 92
7, 47088, Note_on_c, 7, 83, 0
7, 47088, Note_on_c, 7, 81, 92
7, 47134, Note_on_c, 7, 81, 0
7, 47136, Note_on_c, 7, 76, 92
7, 47184, Note_on_c, 7, 76, 0
7, 47184, Note_on_c, 7, 81, 92
7, 47230, Note_on_c, 7, 81, 0
7, 47232, Note_on_c, 7, 79, 92
7, 47328, Note_on_c, 7, 79, 0
7, 47328, Note_on_c, 7, 78, 92
7, 47422, Note_on_c, 7, 78, 0
7, 47424, Note_on_c, 7, 79, 45
7, 47520, Note_on_c, 7, 79, 0
7, 47520, Note_on_c, 7, 77, 45
7, 47614, Note_on_c, 7, 77, 0
7, 47616, Note_on_c, 7, 76, 45
7, 47712, Note_on_c, 7, 76, 0
7, 47712, Note_on_c, 7, 74, 45
7, 47806, Note_on_c, 7, 74, 0
7, 47808, Note_on_c, 7, 73, 45
7, 47902, Note_on_c, 7, 73, 0
7, 47904, Note_on_c, 7, 72, 45
7, 47998, Note_on_c, 7, 72, 0
7, 48000, Note_on_c, 7, 70, 45
7, 48048, Note_on_c, 7, 70, 0
7, 48048, Note_on_c, 7, 71, 45
7, 48096, Note_on_c, 7, 71, 0
7, 48096, Note_on_c, 7, 72, 45
7, 48144, Note_on_c, 7, 72, 0
7, 48144, Note_on_c, 7, 73, 45
7, 48190, Note_on_c, 7, 73, 0
7, 48192, Note_on_c, 7, 74, 45
7, 48240, Note_on_c, 7, 74, 0
7, 48240, Note_on_c, 7, 75, 45
7, 48288, Note_on_c, 7, 75, 0
7, 48288, Note_on_c, 7, 76, 45
7, 48336, Note_on_c, 7, 76, 0
7, 48336, Note_on_c, 7, 72, 45
7, 48382, Note_on_c, 7, 72, 0
7, 48384, Note_on_c, 7, 71, 45
7, 48720, Note_on_c, 7, 71, 0
7, 51264, Note_on_c, 7, 67, 92
7, 51424, Note_on_c, 7, 67, 0
7, 51456, Note_on_c, 7, 62, 92
7, 51616, Note_on_c, 7, 62, 0
7, 51648, Note_on_c, 7, 59, 92
7, 51808, Note_on_c, 7, 59, 0
7, 51840, Note_on_c, 7, 60, 92
7, 51982, Note_on_c, 7, 60, 0
7, 51984, Note_on_c, 7, 79, 92
7, 52030, Note_on_c, 7, 79, 0
7, 52032, Note_on_c, 7, 81, 92
7, 52078, Note_on_c, 7, 81, 0
7, 52080, Note_on_c, 7, 79, 92
7, 52222, Note_on_c, 7, 79, 0
7, 52224, Note_on_c, 7, 81, 92
7, 52272, Note_on_c, 7, 81, 0
7, 52272, Note_on_c, 7, 79, 92
7, 52320, Note_on_c, 7, 79, 0
7, 52320, Note_on_c, 7, 78, 92
7, 52368, Note_on_c, 7, 78, 0
7, 52368, Note_on_c, 7, 76, 92
7, 52414, Note_on_c, 7, 76, 0
7, 52416, Note_on_c, 7, 76, 92
7, 52464, Note_on_c, 7, 76, 0
7, 52464, Note_on_c, 7, 74, 92
7, 52510, Note_on_c, 7, 74, 0
7, 52512, Note_on_c, 7, 74, 92
7, 52654, Note_on_c, 7, 74, 0
7, 52656, Note_on_c, 7, 75, 92
7, 52702, Note_on_c, 7, 75, 0
7, 52704, Note_on_c, 7, 76, 92
7, 52750, Note_on_c, 7, 76, 0
7, 52752, Note_on_c, 7, 74, 92
7, 52798, Note_on_c, 7, 74, 0
7, 52800, Note_on_c, 7, 74, 92
7, 52848, Note_on_c, 7, 74, 0
7, 52848, Note_on_c, 7, 72, 92
7, 52896, Note_on_c, 7, 72, 0
7, 52896, Note_on_c, 7, 71, 92
7, 52944, Note_on_c, 7, 71, 0
7, 52944, Note_on_c, 7, 69, 92
7, 52990, Note_on_c, 7, 69, 0
7, 53040, Note_on_c, 7, 67, 45
7, 53072, Note_on_c, 7, 67, 0
7, 53088, Note_on_c, 7, 67, 45
7, 53136, Note_on_c, 7, 67, 0
7, 53136, Note_on_c, 7, 71, 45
7, 53182, Note_on_c, 7, 71, 0
7, 53232, Note_on_c, 7, 69, 45
7, 53264, Note_on_c, 7, 69, 0
7, 53280, Note_on_c, 7, 69, 45
7, 53328, Note_on_c, 7, 69, 0
7, 53328, Note_on_c, 7, 72, 45
7, 53374, Note_on_c, 7, 72, 0
7, 53424, Note_on_c, 7, 66, 45
7, 53456, Note_on_c, 7, 66, 0
7, 53472, Note_on_c, 7, 66, 45
7, 53520, Note_on_c, 7, 66, 0
7, 53520, Note_on_c, 7, 69, 45
7, 53566, Note_on_c, 7, 69, 0
7, 53568, Note_on_c, 7, 69, 45
7, 53760, Note_on_c, 7, 69, 0
7, 53760, Note_on_c, 7, 67, 45
7, 54016, Note_on_c, 7, 67, 0
7, 54016, End_track
8, 0, Start_track
8, 0, MIDI_port, 0
8, 0, Title_t, "Violino II"
8, 0, Program_c, 8, 48
8, 0, Control_c, 8, 7, 127
8, 0, Control_c, 8, 10, 64
8, 0, Note_on_c, 8, 67, 92
8, 160, Note_on_c, 8, 67, 0
8, 192, Note_on_c, 8, 62, 92
8, 352, Note_on_c, 8, 62, 0
8, 384, Note_on_c, 8, 59, 92
8, 544, Note_on_c, 8, 59, 0
8, 576, Note_on_c, 8, 60, 92
8, 718, Note_on_c, 8, 60, 0
8, 720, Note_on_c, 8, 76, 92
8, 766, Note_on_c, 8, 76, 0
8, 768, Note_on_c, 8, 76, 92
8, 1024, Note_on_c, 8, 76, 0
8, 1056, Note_on_c, 8, 74, 92
8, 1104, Note_on_c, 8, 74, 0
8, 1104, Note_on_c, 8, 72, 92
8, 1150, Note_on_c, 8, 72, 0
8, 1152, Note_on_c, 8, 72, 92
8, 1200, Note_on_c, 8, 72, 0
8, 1200, Note_on_c, 8, 71, 92
8, 1246, Note_on_c, 8, 71, 0
8, 1248, Note_on_c, 8, 71, 92
8, 1408, Note_on_c, 8, 71, 0
8, 1440, Note_on_c, 8, 72, 92
8, 1488, Note_on_c, 8, 72, 0
8, 1488, Note_on_c, 8, 71, 92
8, 1534, Note_on_c, 8, 71, 0
8, 1536, Note_on_c, 8, 71, 92
8, 1584, Note_on_c, 8, 71, 0
8, 1584, Note_on_c, 8, 69, 92
8, 1632, Note_on_c, 8, 69, 0
8, 1632, Note_on_c, 8, 67, 92
8, 1680, Note_on_c, 8, 67, 0
8, 1680, Note_on_c, 8, 69, 92
8, 1726, Note_on_c, 8, 69, 0
8, 1728, Note_on_c, 8, 66, 92
8, 1920, Note_on_c, 8, 66, 0
8, 1920, Note_on_c, 8, 67, 92
8, 2080, Note_on_c, 8, 67, 0
8, 2304, Note_on_c, 8, 72, 45
8, 2640, Note_on_c, 8, 72, 0
8, 2640, Note_on_c, 8, 69, 45
8, 2686, Note_on_c, 8, 69, 0
8, 2688, Note_on_c, 8, 66, 45
8, 2782, Note_on_c, 8, 66, 0
8, 2880, Note_on_c, 8, 74, 45
8, 3216, Note_on_c, 8, 74, 0
8, 3216, Note_on_c, 8, 71, 45
8, 3262, Note_on_c, 8, 71, 0
8, 3264, Note_on_c, 8, 67, 45
8, 3358, Note_on_c, 8, 67, 0
8, 3456, Note_on_c, 8, 76, 92
8, 3616, Note_on_c, 8, 76, 0
8, 3648, Note_on_c, 8, 60, 92
8, 3742, Note_on_c, 8, 60, 0
8, 3744, Note_on_c, 8, 64, 92
8, 3904, Note_on_c, 8, 64, 0
8, 3936, Note_on_c, 8, 69, 92
8, 4030, Note_on_c, 8, 69, 0
8, 4032, Note_on_c, 8, 71, 45
8, 4128, Note_on_c, 8, 71, 0
8, 4128, Note_on_c, 8, 72, 45
8, 4222, Note_on_c, 8, 72, 0
8, 4224, Note_on_c, 8, 71, 45
8, 4318, Note_on_c, 8, 71, 0
8, 4320, Note_on_c, 8, 59, 45
8, 4414, Note_on_c, 8, 59, 0
8, 4416, Note_on_c, 8, 60, 45
8, 4510, Note_on_c, 8, 60, 0
8, 4512, Note_on_c, 8, 68, 45
8, 4606, Note_on_c, 8, 68, 0
8, 4608, Note_on_c, 8, 69, 45
8, 4702, Note_on_c, 8, 69, 0
8, 4704, Note_on_c, 8, 63, 45
8, 4800, Note_on_c, 8, 63, 0
8, 4800, Note_on_c, 8, 62, 45
8, 4894, Note_on_c, 8, 62, 0
8, 5088, Note_on_c, 8, 60, 45
8, 5136, Note_on_c, 8, 60, 0
8, 5136, Note_on_c, 8, 69, 45
8, 5182, Note_on_c, 8, 69, 0
8, 5184, Note_on_c, 8, 67, 45
8, 5376, Note_on_c, 8, 67, 0
8, 5376, Note_on_c, 8, 66, 45
8, 5536, Note_on_c, 8, 66, 0
8, 5760, Note_on_c, 8, 67, 45
8, 5854, Note_on_c, 8, 67, 0
8, 5856, Note_on_c, 8, 67, 45
8, 5950, Note_on_c, 8, 67, 0
8, 5952, Note_on_c, 8, 67, 45
8, 6046, Note_on_c, 8, 67, 0
8, 6048, Note_on_c, 8, 67, 45
8, 6142, Note_on_c, 8, 67, 0
8, 6144, Note_on_c, 8, 67, 45
8, 6238, Note_on_c, 8, 67, 0
8, 6240, Note_on_c, 8, 67, 45
8, 6334, Note_on_c, 8, 67, 0
8, 6432, Note_on_c, 8, 66, 45
8, 6526, Note_on_c, 8, 66, 0
8, 6528, Note_on_c, 8, 66, 45
8, 6622, Note_on_c, 8, 66, 0
8, 6624, Note_on_c, 8, 66, 45
8, 6718, Note_on_c, 8, 66, 0
8, 6720, Note_on_c, 8, 66, 45
8, 6814, Note_on_c, 8, 66, 0
8, 6816, Note_on_c, 8, 66, 45
8, 6910, Note_on_c, 8, 66, 0
8, 7008, Note_on_c, 8, 62, 45
8, 7102, Note_on_c, 8, 62, 0
8, 7104, Note_on_c, 8, 62, 45
8, 7198, Note_on_c, 8, 62, 0
8, 7200, Note_on_c, 8, 62, 45
8, 7294, Note_on_c, 8, 62, 0
8, 7296, Note_on_c, 8, 62, 45
8, 7390, Note_on_c, 8, 62, 0
8, 7392, Note_on_c, 8, 62, 45
8, 7486, Note_on_c, 8, 62, 0
8, 7584, Note_on_c, 8, 74, 45
8, 7678, Note_on_c, 8, 74, 0
8, 7680, Note_on_c, 8, 74, 45
8, 7774, Note_on_c, 8, 74, 0
8, 7776, Note_on_c, 8, 74, 45
8, 7870, Note_on_c, 8, 74, 0
8, 7872, Note_on_c, 8, 74, 45
8, 7966, Note_on_c, 8, 74, 0
8, 7968, Note_on_c, 8, 74, 45
8, 8062, Note_on_c, 8, 74, 0
8, 8064, Note_on_c, 8, 72, 45
8, 8158, Note_on_c, 8, 72, 0
8, 8160, Note_on_c, 8, 72, 45
8, 8254, Note_on_c, 8, 72, 0
8, 8256, Note_on_c, 8, 69, 45
8, 8350, Note_on_c, 8, 69, 0
8, 8352, Note_on_c, 8, 69, 45
8, 8446, Note_on_c, 8, 69, 0
8, 8448, Note_on_c, 8, 64, 45
8, 8542, Note_on_c, 8, 64, 0
8, 8544, Note_on_c, 8, 64, 45
8, 8638, Note_on_c, 8, 64, 0
8, 8640, Note_on_c, 8, 66, 45
8, 8734, Note_on_c, 8, 66, 0
8, 8736, Note_on_c, 8, 66, 45
8, 8830, Note_on_c, 8, 66, 0
8, 8832, Note_on_c, 8, 66, 45
8, 8926, Note_on_c, 8, 66, 0
8, 8928, Note_on_c, 8, 66, 45
8, 9022, Note_on_c, 8, 66, 0
8, 9024, Note_on_c, 8, 67, 45
8, 9118, Note_on_c, 8, 67, 0
8, 9120, Note_on_c, 8, 67, 45
8, 9214, Note_on_c, 8, 67, 0
8, 9216, Note_on_c, 8, 60, 45
8, 9310, Note_on_c, 8, 60, 0
8, 9312, Note_on_c, 8, 60, 45
8, 9406, Note_on_c, 8, 60, 0
8, 9408, Note_on_c, 8, 62, 45
8, 9502, Note_on_c, 8, 62, 0
8, 9504, Note_on_c, 8, 62, 45
8, 9598, Note_on_c, 8, 62, 0
8, 9600, Note_on_c, 8, 62, 45
8, 9694, Note_on_c, 8, 62, 0
8, 9696, Note_on_c, 8, 62, 45
8, 9790, Note_on_c, 8, 62, 0
8, 9792, Note_on_c, 8, 67, 45
8, 9886, Note_on_c, 8, 67, 0
8, 9888, Note_on_c, 8, 67, 92
8, 9982, Note_on_c, 8, 67, 0
8, 9984, Note_on_c, 8, 69, 92
8, 9992, Note_on_c, 8, 69, 0
8, 9992, Note_on_c, 8, 67, 92
8, 10000, Note_on_c, 8, 67, 0
8, 10000, Note_on_c, 8, 69, 92
8, 10008, Note_on_c, 8, 69, 0
8, 10008, Note_on_c, 8, 67, 92
8, 10016, Note_on_c, 8, 67, 0
8, 10016, Note_on_c, 8, 69, 92
8, 10024, Note_on_c, 8, 69, 0
8, 10024, Note_on_c, 8, 67, 92
8, 10032, Note_on_c, 8, 67, 0
8, 10032, Note_on_c, 8, 69, 92
8, 10040, Note_on_c, 8, 69, 0
8, 10040, Note_on_c, 8, 67, 92
8, 10048, Note_on_c, 8, 67, 0
8, 10048, Note_on_c, 8, 69, 92
8, 10056, Note_on_c, 8, 69, 0
8, 10056, Note_on_c, 8, 67, 92
8, 10064, Note_on_c, 8, 67, 0
8, 10064, Note_on_c, 8, 69, 92
8, 10072, Note_on_c, 8, 69, 0
8, 10072, Note_on_c, 8, 67, 92
8, 10080, Note_on_c, 8, 67, 0
8, 10080, Note_on_c, 8, 69, 92
8, 10088, Note_on_c, 8, 69, 0
8, 10088, Note_on_c, 8, 67, 92
8, 10096, Note_on_c, 8, 67, 0
8, 10096, Note_on_c, 8, 69, 92
8, 10104, Note_on_c, 8, 69, 0
8, 10104, Note_on_c, 8, 67, 92
8, 10112, Note_on_c, 8, 67, 0
8, 10112, Note_on_c, 8, 69, 92
8, 10120, Note_on_c, 8, 69, 0
8, 10120, Note_on_c, 8, 67, 92
8, 10128, Note_on_c, 8, 67, 0
8, 10128, Note_on_c, 8, 66, 92
8, 10152, Note_on_c, 8, 66, 0
8, 10152, Note_on_c, 8, 67, 92
8, 10174, Note_on_c, 8, 67, 0
8, 10176, Note_on_c, 8, 71, 92
8, 10270, Note_on_c, 8, 71, 0
8, 10272, Note_on_c, 8, 63, 92
8, 10366, Note_on_c, 8, 63, 0
8, 10368, Note_on_c, 8, 64, 92
8, 10462, Note_on_c, 8, 64, 0
8, 10464, Note_on_c, 8, 64, 45
8, 10560, Note_on_c, 8, 64, 0
8, 10560, Note_on_c, 8, 66, 45
8, 10656, Note_on_c, 8, 66, 0
8, 10656, Note_on_c, 8, 67, 45
8, 10752, Note_on_c, 8, 67, 0
8, 10752, Note_on_c, 8, 69, 45
8, 10848, Note_on_c, 8, 69, 0
8, 10848, Note_on_c, 8, 67, 45
8, 10942, Note_on_c, 8, 67, 0
8, 10944, Note_on_c, 8, 66, 45
8, 11038, Note_on_c, 8, 66, 0
8, 11040, Note_on_c, 8, 66, 45
8, 11134, Note_on_c, 8, 66, 0
8, 11136, Note_on_c, 8, 66, 45
8, 11230, Note_on_c, 8, 66, 0
8, 11232, Note_on_c, 8, 66, 45
8, 11326, Note_on_c, 8, 66, 0
8, 11328, Note_on_c, 8, 67, 45
8, 11422, Note_on_c, 8, 67, 0
8, 11424, Note_on_c, 8, 67, 45
8, 11518, Note_on_c, 8, 67, 0
8, 11616, Note_on_c, 8, 62, 45
8, 11710, Note_on_c, 8, 62, 0
8, 11712, Note_on_c, 8, 61, 45
8, 11808, Note_on_c, 8, 61, 0
8, 11808, Note_on_c, 8, 62, 45
8, 11904, Note_on_c, 8, 62, 0
8, 11904, Note_on_c, 8, 64, 45
8, 12000, Note_on_c, 8, 64, 0
8, 12000, Note_on_c, 8, 66, 45
8, 12094, Note_on_c, 8, 66, 0
8, 12096, Note_on_c, 8, 67, 45
8, 12190, Note_on_c, 8, 67, 0
8, 12192, Note_on_c, 8, 67, 45
8, 12286, Note_on_c, 8, 67, 0
8, 12288, Note_on_c, 8, 67, 45
8, 12382, Note_on_c, 8, 67, 0
8, 12384, Note_on_c, 8, 67, 45
8, 12478, Note_on_c, 8, 67, 0
8, 12480, Note_on_c, 8, 66, 45
8, 12574, Note_on_c, 8, 66, 0
8, 12576, Note_on_c, 8, 66, 45
8, 12670, Note_on_c, 8, 66, 0
8, 12768, Note_on_c, 8, 67, 45
8, 12862, Note_on_c, 8, 67, 0
8, 12864, Note_on_c, 8, 67, 45
8, 12960, Note_on_c, 8, 67, 0
8, 12960, Note_on_c, 8, 69, 45
8, 13054, Note_on_c, 8, 69, 0
8, 13152, Note_on_c, 8, 59, 45
8, 13246, Note_on_c, 8, 59, 0
8, 13248, Note_on_c, 8, 59, 45
8, 13344, Note_on_c, 8, 59, 0
8, 13344, Note_on_c, 8, 62, 45
8, 13438, Note_on_c, 8, 62, 0
8, 13536, Note_on_c, 8, 61, 45
8, 13630, Note_on_c, 8, 61, 0
8, 13632, Note_on_c, 8, 61, 45
8, 13728, Note_on_c, 8, 61, 0
8, 13728, Note_on_c, 8, 62, 45
8, 13822, Note_on_c, 8, 62, 0
8, 13824, Note_on_c, 8, 67, 45
8, 13918, Note_on_c, 8, 67, 0
8, 13920, Note_on_c, 8, 67, 45
8, 14014, Note_on_c, 8, 67, 0
8, 14016, Note_on_c, 8, 67, 45
8, 14110, Note_on_c, 8, 67, 0
8, 14112, Note_on_c, 8, 67, 45
8, 14206, Note_on_c, 8, 67, 0
8, 14208, Note_on_c, 8, 67, 45
8, 14302, Note_on_c, 8, 67, 0
8, 14304, Note_on_c, 8, 67, 45
8, 14398, Note_on_c, 8, 67, 0
8, 14400, Note_on_c, 8, 69, 45
8, 14494, Note_on_c, 8, 69, 0
8, 14496, Note_on_c, 8, 57, 45
8, 14590, Note_on_c, 8, 57, 0
8, 14592, Note_on_c, 8, 57, 45
8, 14640, Note_on_c, 8, 57, 0
8, 14640, Note_on_c, 8, 64, 45
8, 14686, Note_on_c, 8, 64, 0
8, 14688, Note_on_c, 8, 61, 45
8, 14736, Note_on_c, 8, 61, 0
8, 14736, Note_on_c, 8, 64, 45
8, 14782, Note_on_c, 8, 64, 0
8, 14784, Note_on_c, 8, 57, 45
8, 14832, Note_on_c, 8, 57, 0
8, 14832, Note_on_c, 8, 64, 45
8, 14878, Note_on_c, 8, 64, 0
8, 14880, Note_on_c, 8, 61, 45
8, 14928, Note_on_c, 8, 61, 0
8, 14928, Note_on_c, 8, 64, 45
8, 14974, Note_on_c, 8, 64, 0
8, 14976, Note_on_c, 8, 57, 45
8, 15024, Note_on_c, 8, 57, 0
8, 15024, Note_on_c, 8, 64, 45
8, 15070, Note_on_c, 8, 64, 0
8, 15072, Note_on_c, 8, 61, 45
8, 15120, Note_on_c, 8, 61, 0
8, 15120, Note_on_c, 8, 64, 45
8, 15166, Note_on_c, 8, 64, 0
8, 15168, Note_on_c, 8, 57, 45
8, 15216, Note_on_c, 8, 57, 0
8, 15216, Note_on_c, 8, 64, 45
8, 15262, Note_on_c, 8, 64, 0
8, 15264, Note_on_c, 8, 61, 45
8, 15312, Note_on_c, 8, 61, 0
8, 15312, Note_on_c, 8, 64, 45
8, 15358, Note_on_c, 8, 64, 0
8, 15360, Note_on_c, 8, 57, 45
8, 15408, Note_on_c, 8, 57, 0
8, 15408, Note_on_c, 8, 67, 45
8, 15454, Note_on_c, 8, 67, 0
8, 15456, Note_on_c, 8, 64, 45
8, 15504, Note_on_c, 8, 64, 0
8, 15504, Note_on_c, 8, 67, 45
8, 15550, Note_on_c, 8, 67, 0
8, 15552, Note_on_c, 8, 57, 45
8, 15600, Note_on_c, 8, 57, 0
8, 15600, Note_on_c, 8, 66, 45
8, 15646, Note_on_c, 8, 66, 0
8, 15648, Note_on_c, 8, 62, 45
8, 15696, Note_on_c, 8, 62, 0
8, 15696, Note_on_c, 8, 66, 45
8, 15742, Note_on_c, 8, 66, 0
8, 15744, Note_on_c, 8, 57, 45
8, 15792, Note_on_c, 8, 57, 0
8, 15792, Note_on_c, 8, 66, 45
8, 15838, Note_on_c, 8, 66, 0
8, 15840, Note_on_c, 8, 62, 45
8, 15888, Note_on_c, 8, 62, 0
8, 15888, Note_on_c, 8, 66, 45
8, 15934, Note_on_c, 8, 66, 0
8, 15936, Note_on_c, 8, 57, 45
8, 15984, Note_on_c, 8, 57, 0
8, 15984, Note_on_c, 8, 66, 45
8, 16030, Note_on_c, 8, 66, 0
8, 16032, Note_on_c, 8, 62, 45
8, 16080, Note_on_c, 8, 62, 0
8, 16080, Note_on_c, 8, 66, 45
8, 16126, Note_on_c, 8, 66, 0
8, 16128, Note_on_c, 8, 57, 45
8, 16176, Note_on_c, 8, 57, 0
8, 16176, Note_on_c, 8, 64, 45
8, 16222, Note_on_c, 8, 64, 0
8, 16224, Note_on_c, 8, 61, 45
8, 16272, Note_on_c, 8, 61, 0
8, 16272, Note_on_c, 8, 64, 45
8, 16318, Note_on_c, 8, 64, 0
8, 16320, Note_on_c, 8, 57, 45
8, 16368, Note_on_c, 8, 57, 0
8, 16368, Note_on_c, 8, 64, 45
8, 16414, Note_on_c, 8, 64, 0
8, 16416, Note_on_c, 8, 61, 45
8, 16464, Note_on_c, 8, 61, 0
8, 16464, Note_on_c, 8, 64, 45
8, 16510, Note_on_c, 8, 64, 0
8, 16512, Note_on_c, 8, 57, 45
8, 16560, Note_on_c, 8, 57, 0
8, 16560, Note_on_c, 8, 64, 45
8, 16606, Note_on_c, 8, 64, 0
8, 16608, Note_on_c, 8, 61, 45
8, 16656, Note_on_c, 8, 61, 0
8, 16656, Note_on_c, 8, 64, 45
8, 16702, Note_on_c, 8, 64, 0
8, 16704, Note_on_c, 8, 69, 45
8, 16800, Note_on_c, 8, 69, 0
8, 16800, Note_on_c, 8, 66, 45
8, 16894, Note_on_c, 8, 66, 0
8, 16896, Note_on_c, 8, 62, 45
8, 16990, Note_on_c, 8, 62, 0
8, 16992, Note_on_c, 8, 66, 45
8, 17086, Note_on_c, 8, 66, 0
8, 17088, Note_on_c, 8, 66, 45
8, 17182, Note_on_c, 8, 66, 0
8, 17184, Note_on_c, 8, 66, 45
8, 17278, Note_on_c, 8, 66, 0
8, 17280, Note_on_c, 8, 67, 45
8, 17374, Note_on_c, 8, 67, 0
8, 17376, Note_on_c, 8, 67, 45
8, 17470, Note_on_c, 8, 67, 0
8, 17472, Note_on_c, 8, 67, 45
8, 17566, Note_on_c, 8, 67, 0
8, 17568, Note_on_c, 8, 67, 45
8, 17662, Note_on_c, 8, 67, 0
8, 17664, Note_on_c, 8, 66, 45
8, 17758, Note_on_c, 8, 66, 0
8, 17760, Note_on_c, 8, 66, 45
8, 17854, Note_on_c, 8, 66, 0
8, 17856, Note_on_c, 8, 64, 45
8, 17950, Note_on_c, 8, 64, 0
8, 17952, Note_on_c, 8, 64, 45
8, 18046, Note_on_c, 8, 64, 0
8, 18048, Note_on_c, 8, 57, 45
8, 18142, Note_on_c, 8, 57, 0
8, 18144, Note_on_c, 8, 57, 45
8, 18238, Note_on_c, 8, 57, 0
8, 18240, Note_on_c, 8, 59, 45
8, 18334, Note_on_c, 8, 59, 0
8, 18336, Note_on_c, 8, 59, 45
8, 18430, Note_on_c, 8, 59, 0
8, 18432, Note_on_c, 8, 67, 45
8, 18526, Note_on_c, 8, 67, 0
8, 18528, Note_on_c, 8, 67, 45
8, 18622, Note_on_c, 8, 67, 0
8, 18624, Note_on_c, 8, 69, 45
8, 18718, Note_on_c, 8, 69, 0
8, 18720, Note_on_c, 8, 69, 45
8, 18814, Note_on_c, 8, 69, 0
8, 18816, Note_on_c, 8, 57, 45
8, 18910, Note_on_c, 8, 57, 0
8, 18912, Note_on_c, 8, 57, 45
8, 19006, Note_on_c, 8, 57, 0
8, 19008, Note_on_c, 8, 62, 45
8, 19102, Note_on_c, 8, 62, 0
8, 19296, Note_on_c, 8, 66, 92
8, 19392, Note_on_c, 8, 66, 0
8, 19392, Note_on_c, 8, 67, 92
8, 19488, Note_on_c, 8, 67, 0
8, 19488, Note_on_c, 8, 69, 92
8, 19582, Note_on_c, 8, 69, 0
8, 19584, Note_on_c, 8, 71, 92
8, 19678, Note_on_c, 8, 71, 0
8, 19680, Note_on_c, 8, 67, 45
8, 19774, Note_on_c, 8, 67, 0
8, 19776, Note_on_c, 8, 67, 45
8, 19870, Note_on_c, 8, 67, 0
8, 19872, Note_on_c, 8, 67, 45
8, 19966, Note_on_c, 8, 67, 0
8, 19968, Note_on_c, 8, 66, 45
8, 20062, Note_on_c, 8, 66, 0
8, 20064, Note_on_c, 8, 66, 45
8, 20158, Note_on_c, 8, 66, 0
8, 20160, Note_on_c, 8, 64, 45
8, 20254, Note_on_c, 8, 64, 0
8, 20256, Note_on_c, 8, 64, 45
8, 20350, Note_on_c, 8, 64, 0
8, 20352, Note_on_c, 8, 61, 45
8, 20446, Note_on_c, 8, 61, 0
8, 20448, Note_on_c, 8, 61, 45
8, 20542, Note_on_c, 8, 61, 0
8, 20544, Note_on_c, 8, 62, 45
8, 20638, Note_on_c, 8, 62, 0
8, 20640, Note_on_c, 8, 62, 45
8, 20734, Note_on_c, 8, 62, 0
8, 20832, Note_on_c, 8, 62, 45
8, 20926, Note_on_c, 8, 62, 0
8, 20928, Note_on_c, 8, 63, 45
8, 21024, Note_on_c, 8, 63, 0
8, 21024, Note_on_c, 8, 64, 45
8, 21118, Note_on_c, 8, 64, 0
8, 21120, Note_on_c, 8, 64, 45
8, 21152, Note_on_c, 8, 64, 0
8, 21216, Note_on_c, 8, 64, 45
8, 21248, Note_on_c, 8, 64, 0
8, 21408, Note_on_c, 8, 66, 45
8, 21502, Note_on_c, 8, 66, 0
8, 21504, Note_on_c, 8, 66, 45
8, 21598, Note_on_c, 8, 66, 0
8, 21600, Note_on_c, 8, 66, 45
8, 21694, Note_on_c, 8, 66, 0
8, 21696, Note_on_c, 8, 66, 45
8, 21790, Note_on_c, 8, 66, 0
8, 21792, Note_on_c, 8, 66, 45
8, 21886, Note_on_c, 8, 66, 0
8, 21984, Note_on_c, 8, 57, 45
8, 21984, Note_on_c, 8, 67, 45
8, 22078, Note_on_c, 8, 57, 0
8, 22078, Note_on_c, 8, 67, 0
8, 22080, Note_on_c, 8, 57, 54
8, 22080, Note_on_c, 8, 67, 54
8, 22174, Note_on_c, 8, 57, 0
8, 22174, Note_on_c, 8, 67, 0
8, 22176, Note_on_c, 8, 57, 63
8, 22176, Note_on_c, 8, 67, 63
8, 22270, Note_on_c, 8, 57, 0
8, 22270, Note_on_c, 8, 67, 0
8, 22272, Note_on_c, 8, 57, 72
8, 22272, Note_on_c, 8, 67, 72
8, 22366, Note_on_c, 8, 57, 0
8, 22366, Note_on_c, 8, 67, 0
8, 22368, Note_on_c, 8, 57, 82
8, 22368, Note_on_c, 8, 67, 82
8, 22462, Note_on_c, 8, 57, 0
8, 22462, Note_on_c, 8, 67, 0
8, 22464, Note_on_c, 8, 66, 92
8, 22512, Note_on_c, 8, 66, 0
8, 22512, Note_on_c, 8, 69, 92
8, 22558, Note_on_c, 8, 69, 0
8, 22560, Note_on_c, 8, 66, 92
8, 22592, Note_on_c, 8, 66, 0
8, 22608, Note_on_c, 8, 66, 92
8, 22640, Note_on_c, 8, 66, 0
8, 22656, Note_on_c, 8, 66, 92
8, 22704, Note_on_c, 8, 66, 0
8, 22704, Note_on_c, 8, 69, 92
8, 22750, Note_on_c, 8, 69, 0
8, 22752, Note_on_c, 8, 66, 92
8, 22784, Note_on_c, 8, 66, 0
8, 22800, Note_on_c, 8, 66, 92
8, 22832, Note_on_c, 8, 66, 0
8, 22848, Note_on_c, 8, 66, 92
8, 22896, Note_on_c, 8, 66, 0
8, 22896, Note_on_c, 8, 69, 92
8, 22942, Note_on_c, 8, 69, 0
8, 22944, Note_on_c, 8, 66, 92
8, 22976, Note_on_c, 8, 66, 0
8, 22992, Note_on_c, 8, 66, 92
8, 23024, Note_on_c, 8, 66, 0
8, 23040, Note_on_c, 8, 67, 92
8, 23088, Note_on_c, 8, 67, 0
8, 23088, Note_on_c, 8, 69, 92
8, 23134, Note_on_c, 8, 69, 0
8, 23136, Note_on_c, 8, 67, 92
8, 23168, Note_on_c, 8, 67, 0
8, 23184, Note_on_c, 8, 67, 92
8, 23216, Note_on_c, 8, 67, 0
8, 23232, Note_on_c, 8, 67, 92
8, 23280, Note_on_c, 8, 67, 0
8, 23280, Note_on_c, 8, 69, 92
8, 23326, Note_on_c, 8, 69, 0
8, 23328, Note_on_c, 8, 67, 92
8, 23360, Note_on_c, 8, 67, 0
8, 23376, Note_on_c, 8, 67, 92
8, 23408, Note_on_c, 8, 67, 0
8, 23424, Note_on_c, 8, 67, 92
8, 23472, Note_on_c, 8, 67, 0
8, 23472, Note_on_c, 8, 69, 92
8, 23518, Note_on_c, 8, 69, 0
8, 23520, Note_on_c, 8, 67, 92
8, 23552, Note_on_c, 8, 67, 0
8, 23568, Note_on_c, 8, 67, 92
8, 23600, Note_on_c, 8, 67, 0
8, 23616, Note_on_c, 8, 69, 45
8, 23664, Note_on_c, 8, 69, 0
8, 23664, Note_on_c, 8, 66, 45
8, 23710, Note_on_c, 8, 66, 0
8, 23712, Note_on_c, 8, 69, 45
8, 23744, Note_on_c, 8, 69, 0
8, 23760, Note_on_c, 8, 69, 45
8, 23792, Note_on_c, 8, 69, 0
8, 23808, Note_on_c, 8, 69, 45
8, 23856, Note_on_c, 8, 69, 0
8, 23856, Note_on_c, 8, 66, 45
8, 23902, Note_on_c, 8, 66, 0
8, 23904, Note_on_c, 8, 69, 45
8, 23936, Note_on_c, 8, 69, 0
8, 23952, Note_on_c, 8, 69, 45
8, 23984, Note_on_c, 8, 69, 0
8, 24000, Note_on_c, 8, 69, 45
8, 24048, Note_on_c, 8, 69, 0
8, 24048, Note_on_c, 8, 66, 45
8, 24094, Note_on_c, 8, 66, 0
8, 24096, Note_on_c, 8, 69, 45
8, 24128, Note_on_c, 8, 69, 0
8, 24144, Note_on_c, 8, 69, 45
8, 24176, Note_on_c, 8, 69, 0
8, 24192, Note_on_c, 8, 67, 45
8, 24240, Note_on_c, 8, 67, 0
8, 24240, Note_on_c, 8, 62, 45
8, 24286, Note_on_c, 8, 62, 0
8, 24288, Note_on_c, 8, 67, 45
8, 24320, Note_on_c, 8, 67, 0
8, 24336, Note_on_c, 8, 67, 45
8, 24368, Note_on_c, 8, 67, 0
8, 24384, Note_on_c, 8, 67, 45
8, 24432, Note_on_c, 8, 67, 0
8, 24432, Note_on_c, 8, 62, 45
8, 24478, Note_on_c, 8, 62, 0
8, 24480, Note_on_c, 8, 67, 45
8, 24512, Note_on_c, 8, 67, 0
8, 24528, Note_on_c, 8, 67, 45
8, 24560, Note_on_c, 8, 67, 0
8, 24576, Note_on_c, 8, 67, 45
8, 24624, Note_on_c, 8, 67, 0
8, 24624, Note_on_c, 8, 62, 45
8, 24670, Note_on_c, 8, 62, 0
8, 24672, Note_on_c, 8, 67, 45
8, 24704, Note_on_c, 8, 67, 0
8, 24720, Note_on_c, 8, 67, 45
8, 24752, Note_on_c, 8, 67, 0
8, 24768, Note_on_c, 8, 67, 45
8, 24862, Note_on_c, 8, 67, 0
8, 24864, Note_on_c, 8, 67, 45
8, 25024, Note_on_c, 8, 67, 0
8, 25056, Note_on_c, 8, 67, 45
8, 25152, Note_on_c, 8, 67, 0
8, 25152, Note_on_c, 8, 69, 45
8, 25248, Note_on_c, 8, 69, 0
8, 25248, Note_on_c, 8, 70, 45
8, 25342, Note_on_c, 8, 70, 0
8, 25344, Note_on_c, 8, 70, 45
8, 25392, Note_on_c, 8, 70, 0
8, 25392, Note_on_c, 8, 69, 45
8, 25440, Note_on_c, 8, 69, 0
8, 25440, Note_on_c, 8, 67, 45
8, 25488, Note_on_c, 8, 67, 0
8, 25488, Note_on_c, 8, 66, 45
8, 25534, Note_on_c, 8, 66, 0
8, 25536, Note_on_c, 8, 66, 45
8, 25630, Note_on_c, 8, 66, 0
8, 25632, Note_on_c, 8, 66, 45
8, 25726, Note_on_c, 8, 66, 0
8, 25728, Note_on_c, 8, 66, 45
8, 25822, Note_on_c, 8, 66, 0
8, 25824, Note_on_c, 8, 66, 45
8, 25918, Note_on_c, 8, 66, 0
8, 25920, Note_on_c, 8, 67, 45
8, 26448, Note_on_c, 8, 67, 0
8, 26496, Note_on_c, 8, 66, 45
8, 26528, Note_on_c, 8, 66, 0
8, 26544, Note_on_c, 8, 62, 45
8, 26592, Note_on_c, 8, 62, 0
8, 26592, Note_on_c, 8, 61, 45
8, 26640, Note_on_c, 8, 61, 0
8, 26640, Note_on_c, 8, 62, 45
8, 26686, Note_on_c, 8, 62, 0
8, 26736, Note_on_c, 8, 62, 45
8, 26768, Note_on_c, 8, 62, 0
8, 26784, Note_on_c, 8, 62, 45
8, 26832, Note_on_c, 8, 62, 0
8, 26832, Note_on_c, 8, 66, 45
8, 26878, Note_on_c, 8, 66, 0
8, 26928, Note_on_c, 8, 64, 45
8, 26960, Note_on_c, 8, 64, 0
8, 26976, Note_on_c, 8, 64, 45
8, 27024, Note_on_c, 8, 64, 0
8, 27024, Note_on_c, 8, 67, 45
8, 27070, Note_on_c, 8, 67, 0
8, 27120, Note_on_c, 8, 66, 45
8, 27168, Note_on_c, 8, 66, 0
8, 27168, Note_on_c, 8, 65, 45
8, 27216, Note_on_c, 8, 65, 0
8, 27216, Note_on_c, 8, 66, 45
8, 27262, Note_on_c, 8, 66, 0
8, 27312, Note_on_c, 8, 66, 45
8, 27344, Note_on_c, 8, 66, 0
8, 27360, Note_on_c, 8, 66, 45
8, 27408, Note_on_c, 8, 66, 0
8, 27408, Note_on_c, 8, 69, 45
8, 27454, Note_on_c, 8, 69, 0
8, 27504, Note_on_c, 8, 67, 45
8, 27536, Note_on_c, 8, 67, 0
8, 27552, Note_on_c, 8, 67, 45
8, 27600, Note_on_c, 8, 67, 0
8, 27600, Note_on_c, 8, 71, 45
8, 27646, Note_on_c, 8, 71, 0
8, 27648, Note_on_c, 8, 69, 45
8, 27742, Note_on_c, 8, 69, 0
8, 27840, Note_on_c, 8, 66, 45
8, 27934, Note_on_c, 8, 66, 0
8, 28032, Note_on_c, 8, 60, 45
8, 28126, Note_on_c, 8, 60, 0
8, 28224, Note_on_c, 8, 59, 92
8, 28224, Note_on_c, 8, 67, 92
8, 28384, Note_on_c, 8, 59, 0
8, 28384, Note_on_c, 8, 67, 0
8, 28416, Note_on_c, 8, 62, 92
8, 28576, Note_on_c, 8, 62, 0
8, 28608, Note_on_c, 8, 59, 92
8, 28768, Note_on_c, 8, 59, 0
8, 28800, Note_on_c, 8, 60, 92
8, 28942, Note_on_c, 8, 60, 0
8, 28944, Note_on_c, 8, 76, 92
8, 28990, Note_on_c, 8, 76, 0
8, 28992, Note_on_c, 8, 75, 92
8, 29016, Note_on_c, 8, 75, 0
8, 29016, Note_on_c, 8, 76, 92
8, 29040, Note_on_c, 8, 76, 0
8, 29040, Note_on_c, 8, 78, 92
8, 29064, Note_on_c, 8, 78, 0
8, 29064, Note_on_c, 8, 76, 92
8, 29248, Note_on_c, 8, 76, 0
8, 29280, Note_on_c, 8, 74, 92
8, 29328, Note_on_c, 8, 74, 0
8, 29328, Note_on_c, 8, 72, 92
8, 29374, Note_on_c, 8, 72, 0
8, 29376, Note_on_c, 8, 72, 92
8, 29424, Note_on_c, 8, 72, 0
8, 29424, Note_on_c, 8, 71, 92
8, 29470, Note_on_c, 8, 71, 0
8, 29472, Note_on_c, 8, 71, 92
8, 29632, Note_on_c, 8, 71, 0
8, 29664, Note_on_c, 8, 72, 92
8, 29712, Note_on_c, 8, 72, 0
8, 29712, Note_on_c, 8, 71, 92
8, 29758, Note_on_c, 8, 71, 0
8, 29760, Note_on_c, 8, 71, 92
8, 29808, Note_on_c, 8, 71, 0
8, 29808, Note_on_c, 8, 69, 92
8, 29856, Note_on_c, 8, 69, 0
8, 29856, Note_on_c, 8, 67, 92
8, 29904, Note_on_c, 8, 67, 0
8, 29904, Note_on_c, 8, 69, 92
8, 29950, Note_on_c, 8, 69, 0
8, 29952, Note_on_c, 8, 66, 92
8, 30144, Note_on_c, 8, 66, 0
8, 30144, Note_on_c, 8, 67, 92
8, 30304, Note_on_c, 8, 67, 0
8, 30624, Note_on_c, 8, 57, 45
8, 30720, Note_on_c, 8, 57, 0
8, 30720, Note_on_c, 8, 60, 45
8, 30816, Note_on_c, 8, 60, 0
8, 30816, Note_on_c, 8, 66, 45
8, 30912, Note_on_c, 8, 66, 0
8, 30912, Note_on_c, 8, 69, 45
8, 31008, Note_on_c, 8, 69, 0
8, 31008, Note_on_c, 8, 72, 45
8, 31102, Note_on_c, 8, 72, 0
8, 31200, Note_on_c, 8, 59, 45
8, 31296, Note_on_c, 8, 59, 0
8, 31296, Note_on_c, 8, 62, 45
8, 31392, Note_on_c, 8, 62, 0
8, 31392, Note_on_c, 8, 67, 45
8, 31488, Note_on_c, 8, 67, 0
8, 31488, Note_on_c, 8, 71, 45
8, 31584, Note_on_c, 8, 71, 0
8, 31584, Note_on_c, 8, 74, 45
8, 31678, Note_on_c, 8, 74, 0
8, 31680, Note_on_c, 8, 77, 92
8, 32016, Note_on_c, 8, 77, 0
8, 32016, Note_on_c, 8, 74, 92
8, 32062, Note_on_c, 8, 74, 0
8, 32064, Note_on_c, 8, 71, 92
8, 32158, Note_on_c, 8, 71, 0
8, 32256, Note_on_c, 8, 60, 45
8, 32350, Note_on_c, 8, 60, 0
8, 32352, Note_on_c, 8, 60, 45
8, 32446, Note_on_c, 8, 60, 0
8, 32448, Note_on_c, 8, 60, 45
8, 32542, Note_on_c, 8, 60, 0
8, 32544, Note_on_c, 8, 60, 45
8, 32638, Note_on_c, 8, 60, 0
8, 32640, Note_on_c, 8, 60, 45
8, 32734, Note_on_c, 8, 60, 0
8, 32736, Note_on_c, 8, 60, 45
8, 32830, Note_on_c, 8, 60, 0
8, 32832, Note_on_c, 8, 62, 45
8, 32926, Note_on_c, 8, 62, 0
8, 32928, Note_on_c, 8, 62, 45
8, 33022, Note_on_c, 8, 62, 0
8, 33024, Note_on_c, 8, 62, 45
8, 33118, Note_on_c, 8, 62, 0
8, 33120, Note_on_c, 8, 62, 45
8, 33214, Note_on_c, 8, 62, 0
8, 33216, Note_on_c, 8, 60, 45
8, 33310, Note_on_c, 8, 60, 0
8, 33312, Note_on_c, 8, 60, 45
8, 33406, Note_on_c, 8, 60, 0
8, 33504, Note_on_c, 8, 59, 45
8, 33598, Note_on_c, 8, 59, 0
8, 33600, Note_on_c, 8, 59, 45
8, 33694, Note_on_c, 8, 59, 0
8, 33696, Note_on_c, 8, 59, 45
8, 33790, Note_on_c, 8, 59, 0
8, 33792, Note_on_c, 8, 59, 45
8, 33886, Note_on_c, 8, 59, 0
8, 33888, Note_on_c, 8, 59, 45
8, 33982, Note_on_c, 8, 59, 0
8, 33984, Note_on_c, 8, 60, 45
8, 34078, Note_on_c, 8, 60, 0
8, 34080, Note_on_c, 8, 60, 45
8, 34174, Note_on_c, 8, 60, 0
8, 34176, Note_on_c, 8, 60, 45
8, 34270, Note_on_c, 8, 60, 0
8, 34272, Note_on_c, 8, 60, 45
8, 34366, Note_on_c, 8, 60, 0
8, 34368, Note_on_c, 8, 59, 45
8, 34462, Note_on_c, 8, 59, 0
8, 34464, Note_on_c, 8, 59, 45
8, 34558, Note_on_c, 8, 59, 0
8, 34656, Note_on_c, 8, 60, 45
8, 34750, Note_on_c, 8, 60, 0
8, 34752, Note_on_c, 8, 60, 45
8, 34848, Note_on_c, 8, 60, 0
8, 34848, Note_on_c, 8, 62, 45
8, 34942, Note_on_c, 8, 62, 0
8, 35040, Note_on_c, 8, 64, 45
8, 35134, Note_on_c, 8, 64, 0
8, 35136, Note_on_c, 8, 64, 45
8, 35232, Note_on_c, 8, 64, 0
8, 35232, Note_on_c, 8, 67, 45
8, 35326, Note_on_c, 8, 67, 0
8, 35424, Note_on_c, 8, 66, 45
8, 35518, Note_on_c, 8, 66, 0
8, 35520, Note_on_c, 8, 66, 45
8, 35616, Note_on_c, 8, 66, 0
8, 35616, Note_on_c, 8, 67, 45
8, 35710, Note_on_c, 8, 67, 0
8, 35712, Note_on_c, 8, 60, 45
8, 35806, Note_on_c, 8, 60, 0
8, 35808, Note_on_c, 8, 60, 45
8, 35902, Note_on_c, 8, 60, 0
8, 35904, Note_on_c, 8, 60, 45
8, 35998, Note_on_c, 8, 60, 0
8, 36000, Note_on_c, 8, 60, 45
8, 36094, Note_on_c, 8, 60, 0
8, 36096, Note_on_c, 8, 60, 45
8, 36190, Note_on_c, 8, 60, 0
8, 36192, Note_on_c, 8, 60, 45
8, 36286, Note_on_c, 8, 60, 0
8, 36288, Note_on_c, 8, 62, 45
8, 36382, Note_on_c, 8, 62, 0
8, 36384, Note_on_c, 8, 62, 45
8, 36478, Note_on_c, 8, 62, 0
8, 36480, Note_on_c, 8, 62, 45
8, 36528, Note_on_c, 8, 62, 0
8, 36528, Note_on_c, 8, 69, 45
8, 36574, Note_on_c, 8, 69, 0
8, 36576, Note_on_c, 8, 66, 45
8, 36624, Note_on_c, 8, 66, 0
8, 36624, Note_on_c, 8, 69, 45
8, 36670, Note_on_c, 8, 69, 0
8, 36672, Note_on_c, 8, 62, 45
8, 36720, Note_on_c, 8, 62, 0
8, 36720, Note_on_c, 8, 69, 45
8, 36766, Note_on_c, 8, 69, 0
8, 36768, Note_on_c, 8, 66, 45
8, 36816, Note_on_c, 8, 66, 0
8, 36816, Note_on_c, 8, 69, 45
8, 36862, Note_on_c, 8, 69, 0
8, 36864, Note_on_c, 8, 57, 45
8, 36912, Note_on_c, 8, 57, 0
8, 36912, Note_on_c, 8, 66, 45
8, 36958, Note_on_c, 8, 66, 0
8, 36960, Note_on_c, 8, 62, 45
8, 37008, Note_on_c, 8, 62, 0
8, 37008, Note_on_c, 8, 66, 45
8, 37054, Note_on_c, 8, 66, 0
8, 37056, Note_on_c, 8, 57, 45
8, 37104, Note_on_c, 8, 57, 0
8, 37104, Note_on_c, 8, 66, 45
8, 37150, Note_on_c, 8, 66, 0
8, 37152, Note_on_c, 8, 62, 45
8, 37200, Note_on_c, 8, 62, 0
8, 37200, Note_on_c, 8, 66, 45
8, 37246, Note_on_c, 8, 66, 0
8, 37248, Note_on_c, 8, 57, 45
8, 37296, Note_on_c, 8, 57, 0
8, 37296, Note_on_c, 8, 62, 45
8, 37342, Note_on_c, 8, 62, 0
8, 37344, Note_on_c, 8, 60, 45
8, 37392, Note_on_c, 8, 60, 0
8, 37392, Note_on_c, 8, 62, 45
8, 37438, Note_on_c, 8, 62, 0
8, 37440, Note_on_c, 8, 59, 45
8, 37488, Note_on_c, 8, 59, 0
8, 37488, Note_on_c, 8, 67, 45
8, 37534, Note_on_c, 8, 67, 0
8, 37536, Note_on_c, 8, 62, 45
8, 37584, Note_on_c, 8, 62, 0
8, 37584, Note_on_c, 8, 67, 45
8, 37630, Note_on_c, 8, 67, 0
8, 37632, Note_on_c, 8, 59, 45
8, 37680, Note_on_c, 8, 59, 0
8, 37680, Note_on_c, 8, 67, 45
8, 37726, Note_on_c, 8, 67, 0
8, 37728, Note_on_c, 8, 62, 45
8, 37776, Note_on_c, 8, 62, 0
8, 37776, Note_on_c, 8, 67, 45
8, 37822, Note_on_c, 8, 67, 0
8, 37824, Note_on_c, 8, 59, 45
8, 37872, Note_on_c, 8, 59, 0
8, 37872, Note_on_c, 8, 67, 45
8, 37918, Note_on_c, 8, 67, 0
8, 37920, Note_on_c, 8, 62, 45
8, 37968, Note_on_c, 8, 62, 0
8, 37968, Note_on_c, 8, 67, 45
8, 38014, Note_on_c, 8, 67, 0
8, 38016, Note_on_c, 8, 57, 45
8, 38064, Note_on_c, 8, 57, 0
8, 38064, Note_on_c, 8, 66, 45
8, 38110, Note_on_c, 8, 66, 0
8, 38112, Note_on_c, 8, 62, 45
8, 38160, Note_on_c, 8, 62, 0
8, 38160, Note_on_c, 8, 66, 45
8, 38206, Note_on_c, 8, 66, 0
8, 38208, Note_on_c, 8, 57, 45
8, 38256, Note_on_c, 8, 57, 0
8, 38256, Note_on_c, 8, 66, 45
8, 38302, Note_on_c, 8, 66, 0
8, 38304, Note_on_c, 8, 62, 45
8, 38352, Note_on_c, 8, 62, 0
8, 38352, Note_on_c, 8, 66, 45
8, 38398, Note_on_c, 8, 66, 0
8, 38400, Note_on_c, 8, 62, 45
8, 38448, Note_on_c, 8, 62, 0
8, 38448, Note_on_c, 8, 69, 45
8, 38494, Note_on_c, 8, 69, 0
8, 38496, Note_on_c, 8, 66, 45
8, 38544, Note_on_c, 8, 66, 0
8, 38544, Note_on_c, 8, 69, 45
8, 38590, Note_on_c, 8, 69, 0
8, 38592, Note_on_c, 8, 74, 45
8, 38686, Note_on_c, 8, 74, 0
8, 38688, Note_on_c, 8, 71, 45
8, 38782, Note_on_c, 8, 71, 0
8, 38784, Note_on_c, 8, 67, 45
8, 38878, Note_on_c, 8, 67, 0
8, 38880, Note_on_c, 8, 59, 45
8, 38974, Note_on_c, 8, 59, 0
8, 38976, Note_on_c, 8, 59, 45
8, 39070, Note_on_c, 8, 59, 0
8, 39072, Note_on_c, 8, 59, 45
8, 39166, Note_on_c, 8, 59, 0
8, 39168, Note_on_c, 8, 60, 45
8, 39262, Note_on_c, 8, 60, 0
8, 39264, Note_on_c, 8, 60, 45
8, 39358, Note_on_c, 8, 60, 0
8, 39360, Note_on_c, 8, 60, 45
8, 39454, Note_on_c, 8, 60, 0
8, 39456, Note_on_c, 8, 60, 45
8, 39550, Note_on_c, 8, 60, 0
8, 39552, Note_on_c, 8, 62, 45
8, 39646, Note_on_c, 8, 62, 0
8, 39648, Note_on_c, 8, 62, 45
8, 39742, Note_on_c, 8, 62, 0
8, 39744, Note_on_c, 8, 64, 45
8, 39936, Note_on_c, 8, 64, 0
8, 39936, Note_on_c, 8, 66, 45
8, 40128, Note_on_c, 8, 66, 0
8, 40128, Note_on_c, 8, 67, 45
8, 40288, Note_on_c, 8, 67, 0
8, 40320, Note_on_c, 8, 60, 45
8, 40414, Note_on_c, 8, 60, 0
8, 40416, Note_on_c, 8, 60, 45
8, 40510, Note_on_c, 8, 60, 0
8, 40512, Note_on_c, 8, 62, 45
8, 40606, Note_on_c, 8, 62, 0
8, 40608, Note_on_c, 8, 62, 45
8, 40702, Note_on_c, 8, 62, 0
8, 40704, Note_on_c, 8, 63, 45
8, 40798, Note_on_c, 8, 63, 0
8, 40800, Note_on_c, 8, 63, 45
8, 40894, Note_on_c, 8, 63, 0
8, 40896, Note_on_c, 8, 63, 45
8, 41040, Note_on_c, 8, 63, 0
8, 41040, Note_on_c, 8, 64, 45
8, 41086, Note_on_c, 8, 64, 0
8, 41088, Note_on_c, 8, 64, 45
8, 41248, Note_on_c, 8, 64, 0
8, 41472, Note_on_c, 8, 64, 45
8, 41566, Note_on_c, 8, 64, 0
8, 41568, Note_on_c, 8, 64, 45
8, 41662, Note_on_c, 8, 64, 0
8, 41664, Note_on_c, 8, 72, 45
8, 41758, Note_on_c, 8, 72, 0
8, 41760, Note_on_c, 8, 72, 45
8, 41854, Note_on_c, 8, 72, 0
8, 41856, Note_on_c, 8, 71, 45
8, 41950, Note_on_c, 8, 71, 0
8, 41952, Note_on_c, 8, 71, 45
8, 42046, Note_on_c, 8, 71, 0
8, 42048, Note_on_c, 8, 67, 45
8, 42240, Note_on_c, 8, 67, 0
8, 42240, Note_on_c, 8, 69, 45
8, 42432, Note_on_c, 8, 69, 0
8, 42432, Note_on_c, 8, 67, 45
8, 42592, Note_on_c, 8, 67, 0
8, 42624, Note_on_c, 8, 64, 45
8, 42720, Note_on_c, 8, 64, 0
8, 42720, Note_on_c, 8, 72, 45
8, 42814, Note_on_c, 8, 72, 0
8, 42816, Note_on_c, 8, 72, 45
8, 42912, Note_on_c, 8, 72, 0
8, 42912, Note_on_c, 8, 69, 45
8, 43006, Note_on_c, 8, 69, 0
8, 43008, Note_on_c, 8, 72, 45
8, 43104, Note_on_c, 8, 72, 0
8, 43104, Note_on_c, 8, 69, 45
8, 43198, Note_on_c, 8, 69, 0
8, 43296, Note_on_c, 8, 67, 45
8, 43390, Note_on_c, 8, 67, 0
8, 43392, Note_on_c, 8, 67, 45
8, 43486, Note_on_c, 8, 67, 0
8, 43488, Note_on_c, 8, 67, 45
8, 43582, Note_on_c, 8, 67, 0
8, 43584, Note_on_c, 8, 67, 45
8, 43678, Note_on_c, 8, 67, 0
8, 43680, Note_on_c, 8, 67, 45
8, 43774, Note_on_c, 8, 67, 0
8, 43872, Note_on_c, 8, 66, 45
8, 43966, Note_on_c, 8, 66, 0
8, 43968, Note_on_c, 8, 66, 54
8, 44062, Note_on_c, 8, 66, 0
8, 44064, Note_on_c, 8, 66, 63
8, 44158, Note_on_c, 8, 66, 0
8, 44160, Note_on_c, 8, 72, 72
8, 44254, Note_on_c, 8, 72, 0
8, 44256, Note_on_c, 8, 72, 82
8, 44350, Note_on_c, 8, 72, 0
8, 44352, Note_on_c, 8, 71, 92
8, 44400, Note_on_c, 8, 71, 0
8, 44400, Note_on_c, 8, 74, 92
8, 44446, Note_on_c, 8, 74, 0
8, 44448, Note_on_c, 8, 71, 92
8, 44480, Note_on_c, 8, 71, 0
8, 44496, Note_on_c, 8, 71, 92
8, 44528, Note_on_c, 8, 71, 0
8, 44544, Note_on_c, 8, 71, 92
8, 44592, Note_on_c, 8, 71, 0
8, 44592, Note_on_c, 8, 74, 92
8, 44638, Note_on_c, 8, 74, 0
8, 44640, Note_on_c, 8, 71, 92
8, 44672, Note_on_c, 8, 71, 0
8, 44688, Note_on_c, 8, 71, 92
8, 44720, Note_on_c, 8, 71, 0
8, 44736, Note_on_c, 8, 71, 92
8, 44784, Note_on_c, 8, 71, 0
8, 44784, Note_on_c, 8, 74, 92
8, 44830, Note_on_c, 8, 74, 0
8, 44832, Note_on_c, 8, 71, 92
8, 44864, Note_on_c, 8, 71, 0
8, 44880, Note_on_c, 8, 71, 92
8, 44912, Note_on_c, 8, 71, 0
8, 44928, Note_on_c, 8, 72, 92
8, 44976, Note_on_c, 8, 72, 0
8, 44976, Note_on_c, 8, 74, 92
8, 45022, Note_on_c, 8, 74, 0
8, 45024, Note_on_c, 8, 72, 92
8, 45056, Note_on_c, 8, 72, 0
8, 45072, Note_on_c, 8, 72, 92
8, 45104, Note_on_c, 8, 72, 0
8, 45120, Note_on_c, 8, 72, 92
8, 45168, Note_on_c, 8, 72, 0
8, 45168, Note_on_c, 8, 74, 92
8, 45214, Note_on_c, 8, 74, 0
8, 45216, Note_on_c, 8, 72, 92
8, 45248, Note_on_c, 8, 72, 0
8, 45264, Note_on_c, 8, 72, 92
8, 45296, Note_on_c, 8, 72, 0
8, 45312, Note_on_c, 8, 72, 92
8, 45360, Note_on_c, 8, 72, 0
8, 45360, Note_on_c, 8, 74, 92
8, 45406, Note_on_c, 8, 74, 0
8, 45408, Note_on_c, 8, 72, 92
8, 45440, Note_on_c, 8, 72, 0
8, 45456, Note_on_c, 8, 72, 92
8, 45488, Note_on_c, 8, 72, 0
8, 45504, Note_on_c, 8, 74, 45
8, 45552, Note_on_c, 8, 74, 0
8, 45552, Note_on_c, 8, 71, 45
8, 45598, Note_on_c, 8, 71, 0
8, 45600, Note_on_c, 8, 74, 45
8, 45632, Note_on_c, 8, 74, 0
8, 45648, Note_on_c, 8, 74, 45
8, 45680, Note_on_c, 8, 74, 0
8, 45696, Note_on_c, 8, 74, 45
8, 45744, Note_on_c, 8, 74, 0
8, 45744, Note_on_c, 8, 67, 45
8, 45790, Note_on_c, 8, 67, 0
8, 45792, Note_on_c, 8, 74, 45
8, 45824, Note_on_c, 8, 74, 0
8, 45840, Note_on_c, 8, 74, 45
8, 45872, Note_on_c, 8, 74, 0
8, 45888, Note_on_c, 8, 74, 45
8, 45936, Note_on_c, 8, 74, 0
8, 45936, Note_on_c, 8, 67, 45
8, 45982, Note_on_c, 8, 67, 0
8, 45984, Note_on_c, 8, 74, 45
8, 46016, Note_on_c, 8, 74, 0
8, 46032, Note_on_c, 8, 74, 45
8, 46064, Note_on_c, 8, 74, 0
8, 46080, Note_on_c, 8, 72, 45
8, 46128, Note_on_c, 8, 72, 0
8, 46128, Note_on_c, 8, 67, 45
8, 46174, Note_on_c, 8, 67, 0
8, 46176, Note_on_c, 8, 76, 49
8, 46208, Note_on_c, 8, 76, 0
8, 46224, Note_on_c, 8, 76, 53
8, 46256, Note_on_c, 8, 76, 0
8, 46272, Note_on_c, 8, 76, 57
8, 46320, Note_on_c, 8, 76, 0
8, 46320, Note_on_c, 8, 72, 61
8, 46366, Note_on_c, 8, 72, 0
8, 46368, Note_on_c, 8, 79, 65
8, 46400, Note_on_c, 8, 79, 0
8, 46416, Note_on_c, 8, 79, 69
8, 46448, Note_on_c, 8, 79, 0
8, 46464, Note_on_c, 8, 79, 73
8, 46512, Note_on_c, 8, 79, 0
8, 46512, Note_on_c, 8, 74, 77
8, 46558, Note_on_c, 8, 74, 0
8, 46560, Note_on_c, 8, 79, 82
8, 46592, Note_on_c, 8, 79, 0
8, 46608, Note_on_c, 8, 79, 87
8, 46640, Note_on_c, 8, 79, 0
8, 46656, Note_on_c, 8, 76, 92
8, 46816, Note_on_c, 8, 76, 0
8, 46848, Note_on_c, 8, 60, 92
8, 46942, Note_on_c, 8, 60, 0
8, 46944, Note_on_c, 8, 64, 92
8, 47104, Note_on_c, 8, 64, 0
8, 47136, Note_on_c, 8, 69, 92
8, 47230, Note_on_c, 8, 69, 0
8, 47232, Note_on_c, 8, 71, 92
8, 47328, Note_on_c, 8, 71, 0
8, 47328, Note_on_c, 8, 72, 92
8, 47422, Note_on_c, 8, 72, 0
8, 47424, Note_on_c, 8, 71, 45
8, 47518, Note_on_c, 8, 71, 0
8, 47520, Note_on_c, 8, 59, 45
8, 47614, Note_on_c, 8, 59, 0
8, 47616, Note_on_c, 8, 60, 45
8, 47710, Note_on_c, 8, 60, 0
8, 47712, Note_on_c, 8, 68, 45
8, 47808, Note_on_c, 8, 68, 0
8, 47808, Note_on_c, 8, 69, 45
8, 47902, Note_on_c, 8, 69, 0
8, 47904, Note_on_c, 8, 63, 45
8, 48000, Note_on_c, 8, 63, 0
8, 48000, Note_on_c, 8, 62, 45
8, 48094, Note_on_c, 8, 62, 0
8, 48288, Note_on_c, 8, 60, 92
8, 48336, Note_on_c, 8, 60, 0
8, 48336, Note_on_c, 8, 69, 92
8, 48382, Note_on_c, 8, 69, 0
8, 48384, Note_on_c, 8, 67, 92
8, 48720, Note_on_c, 8, 67, 0
8, 51264, Note_on_c, 8, 67, 92
8, 51424, Note_on_c, 8, 67, 0
8, 51456, Note_on_c, 8, 62, 92
8, 51616, Note_on_c, 8, 62, 0
8, 51648, Note_on_c, 8, 59, 92
8, 51808, Note_on_c, 8, 59, 0
8, 51840, Note_on_c, 8, 60, 92
8, 51982, Note_on_c, 8, 60, 0
8, 51984, Note_on_c, 8, 76, 92
8, 52030, Note_on_c, 8, 76, 0
8, 52032, Note_on_c, 8, 78, 92
8, 52078, Note_on_c, 8, 78, 0
8, 52080, Note_on_c, 8, 76, 92
8, 52222, Note_on_c, 8, 76, 0
8, 52224, Note_on_c, 8, 78, 92
8, 52272, Note_on_c, 8, 78, 0
8, 52272, Note_on_c, 8, 76, 92
8, 52320, Note_on_c, 8, 76, 0
8, 52320, Note_on_c, 8, 74, 92
8, 52368, Note_on_c, 8, 74, 0
8, 52368, Note_on_c, 8, 72, 92
8, 52414, Note_on_c, 8, 72, 0
8, 52416, Note_on_c, 8, 72, 92
8, 52464, Note_on_c, 8, 72, 0
8, 52464, Note_on_c, 8, 71, 92
8, 52510, Note_on_c, 8, 71, 0
8, 52512, Note_on_c, 8, 71, 92
8, 52672, Note_on_c, 8, 71, 0
8, 52704, Note_on_c, 8, 72, 92
8, 52752, Note_on_c, 8, 72, 0
8, 52752, Note_on_c, 8, 71, 92
8, 52798, Note_on_c, 8, 71, 0
8, 52800, Note_on_c, 8, 71, 92
8, 52848, Note_on_c, 8, 71, 0
8, 52848, Note_on_c, 8, 69, 92
8, 52896, Note_on_c, 8, 69, 0
8, 52896, Note_on_c, 8, 67, 92
8, 52944, Note_on_c, 8, 67, 0
8, 52944, Note_on_c, 8, 66, 92
8, 52990, Note_on_c, 8, 66, 0
8, 53040, Note_on_c, 8, 59, 45
8, 53072, Note_on_c, 8, 59, 0
8, 53088, Note_on_c, 8, 59, 45
8, 53136, Note_on_c, 8, 59, 0
8, 53136, Note_on_c, 8, 67, 45
8, 53182, Note_on_c, 8, 67, 0
8, 53232, Note_on_c, 8, 64, 45
8, 53264, Note_on_c, 8, 64, 0
8, 53280, Note_on_c, 8, 64, 45
8, 53328, Note_on_c, 8, 64, 0
8, 53328, Note_on_c, 8, 67, 45
8, 53374, Note_on_c, 8, 67, 0
8, 53424, Note_on_c, 8, 57, 45
8, 53456, Note_on_c, 8, 57, 0
8, 53472, Note_on_c, 8, 57, 45
8, 53520, Note_on_c, 8, 57, 0
8, 53520, Note_on_c, 8, 60, 45
8, 53566, Note_on_c, 8, 60, 0
8, 53568, Note_on_c, 8, 60, 45
8, 53760, Note_on_c, 8, 60, 0
8, 53760, Note_on_c, 8, 59, 45
8, 54016, Note_on_c, 8, 59, 0
8, 54016, End_track
9, 0, Start_track
9, 0, MIDI_port, 0
9, 0, Title_t, "Viola"
9, 0, Program_c, 10, 48
9, 0, Control_c, 10, 7, 127
9, 0, Control_c, 10, 10, 64
9, 0, Note_on_c, 10, 67, 92
9, 160, Note_on_c, 10, 67, 0
9, 192, Note_on_c, 10, 62, 92
9, 352, Note_on_c, 10, 62, 0
9, 384, Note_on_c, 10, 59, 92
9, 544, Note_on_c, 10, 59, 0
9, 576, Note_on_c, 10, 60, 92
9, 672, Note_on_c, 10, 60, 0
9, 672, Note_on_c, 10, 67, 92
9, 766, Note_on_c, 10, 67, 0
9, 768, Note_on_c, 10, 67, 92
9, 862, Note_on_c, 10, 67, 0
9, 864, Note_on_c, 10, 67, 92
9, 958, Note_on_c, 10, 67, 0
9, 960, Note_on_c, 10, 67, 92
9, 1054, Note_on_c, 10, 67, 0
9, 1056, Note_on_c, 10, 67, 92
9, 1150, Note_on_c, 10, 67, 0
9, 1152, Note_on_c, 10, 67, 92
9, 1246, Note_on_c, 10, 67, 0
9, 1248, Note_on_c, 10, 67, 92
9, 1342, Note_on_c, 10, 67, 0
9, 1344, Note_on_c, 10, 67, 92
9, 1438, Note_on_c, 10, 67, 0
9, 1440, Note_on_c, 10, 67, 92
9, 1534, Note_on_c, 10, 67, 0
9, 1536, Note_on_c, 10, 62, 92
9, 1630, Note_on_c, 10, 62, 0
9, 1632, Note_on_c, 10, 62, 92
9, 1726, Note_on_c, 10, 62, 0
9, 1728, Note_on_c, 10, 60, 92
9, 1920, Note_on_c, 10, 60, 0
9, 1920, Note_on_c, 10, 59, 92
9, 2080, Note_on_c, 10, 59, 0
9, 3552, Note_on_c, 10, 57, 92
9, 3712, Note_on_c, 10, 57, 0
9, 3744, Note_on_c, 10, 57, 92
9, 3904, Note_on_c, 10, 57, 0
9, 3936, Note_on_c, 10, 61, 92
9, 4030, Note_on_c, 10, 61, 0
9, 4032, Note_on_c, 10, 62, 45
9, 4128, Note_on_c, 10, 62, 0
9, 4128, Note_on_c, 10, 69, 45
9, 4222, Note_on_c, 10, 69, 0
9, 4224, Note_on_c, 10, 67, 45
9, 4318, Note_on_c, 10, 67, 0
9, 4320, Note_on_c, 10, 67, 45
9, 4480, Note_on_c, 10, 67, 0
9, 4512, Note_on_c, 10, 64, 45
9, 4702, Note_on_c, 10, 64, 0
9, 4704, Note_on_c, 10, 69, 45
9, 4800, Note_on_c, 10, 69, 0
9, 4800, Note_on_c, 10, 67, 45
9, 4894, Note_on_c, 10, 67, 0
9, 5088, Note_on_c, 10, 64, 45
9, 5182, Note_on_c, 10, 64, 0
9, 5184, Note_on_c, 10, 62, 45
9, 5232, Note_on_c, 10, 62, 0
9, 5232, Note_on_c, 10, 61, 45
9, 5280, Note_on_c, 10, 61, 0
9, 5280, Note_on_c, 10, 62, 45
9, 5328, Note_on_c, 10, 62, 0
9, 5328, Note_on_c, 10, 61, 45
9, 5374, Note_on_c, 10, 61, 0
9, 5376, Note_on_c, 10, 62, 92
9, 5472, Note_on_c, 10, 62, 0
9, 5472, Note_on_c, 10, 60, 92
9, 5568, Note_on_c, 10, 60, 0
9, 5568, Note_on_c, 10, 59, 92
9, 5664, Note_on_c, 10, 59, 0
9, 5664, Note_on_c, 10, 57, 92
9, 5758, Note_on_c, 10, 57, 0
9, 5760, Note_on_c, 10, 55, 92
9, 5920, Note_on_c, 10, 55, 0
9, 9888, Note_on_c, 10, 67, 92
9, 9982, Note_on_c, 10, 67, 0
9, 9984, Note_on_c, 10, 69, 92
9, 9992, Note_on_c, 10, 69, 0
9, 9992, Note_on_c, 10, 67, 92
9, 10000, Note_on_c, 10, 67, 0
9, 10000, Note_on_c, 10, 69, 92
9, 10008, Note_on_c, 10, 69, 0
9, 10008, Note_on_c, 10, 67, 92
9, 10016, Note_on_c, 10, 67, 0
9, 10016, Note_on_c, 10, 69, 92
9, 10024, Note_on_c, 10, 69, 0
9, 10024, Note_on_c, 10, 67, 92
9, 10032, Note_on_c, 10, 67, 0
9, 10032, Note_on_c, 10, 69, 92
9, 10040, Note_on_c, 10, 69, 0
9, 10040, Note_on_c, 10, 67, 92
9, 10048, Note_on_c, 10, 67, 0
9, 10048, Note_on_c, 10, 69, 92
9, 10056, Note_on_c, 10, 69, 0
9, 10056, Note_on_c, 10, 67, 92
9, 10064, Note_on_c, 10, 67, 0
9, 10064, Note_on_c, 10, 69, 92
9, 10072, Note_on_c, 10, 69, 0
9, 10072, Note_on_c, 10, 67, 92
9, 10080, Note_on_c, 10, 67, 0
9, 10080, Note_on_c, 10, 69, 92
9, 10088, Note_on_c, 10, 69, 0
9, 10088, Note_on_c, 10, 67, 92
9, 10096, Note_on_c, 10, 67, 0
9, 10096, Note_on_c, 10, 69, 92
9, 10104, Note_on_c, 10, 69, 0
9, 10104, Note_on_c, 10, 67, 92
9, 10112, Note_on_c, 10, 67, 0
9, 10112, Note_on_c, 10, 69, 92
9, 10120, Note_on_c, 10, 69, 0
9, 10120, Note_on_c, 10, 67, 92
9, 10128, Note_on_c, 10, 67, 0
9, 10128, Note_on_c, 10, 66, 92
9, 10152, Note_on_c, 10, 66, 0
9, 10152, Note_on_c, 10, 67, 92
9, 10174, Note_on_c, 10, 67, 0
9, 10176, Note_on_c, 10, 71, 92
9, 10270, Note_on_c, 10, 71, 0
9, 10272, Note_on_c, 10, 63, 92
9, 10366, Note_on_c, 10, 63, 0
9, 10368, Note_on_c, 10, 64, 92
9, 10528, Note_on_c, 10, 64, 0
9, 15168, Note_on_c, 10, 64, 45
9, 15262, Note_on_c, 10, 64, 0
9, 15360, Note_on_c, 10, 61, 45
9, 15454, Note_on_c, 10, 61, 0
9, 15552, Note_on_c, 10, 66, 45
9, 15646, Note_on_c, 10, 66, 0
9, 15744, Note_on_c, 10, 54, 45
9, 15838, Note_on_c, 10, 54, 0
9, 15936, Note_on_c, 10, 50, 45
9, 16030, Note_on_c, 10, 50, 0
9, 16128, Note_on_c, 10, 57, 45
9, 16288, Note_on_c, 10, 57, 0
9, 19296, Note_on_c, 10, 62, 92
9, 19392, Note_on_c, 10, 62, 0
9, 19392, Note_on_c, 10, 64, 92
9, 19488, Note_on_c, 10, 64, 0
9, 19488, Note_on_c, 10, 66, 92
9, 19582, Note_on_c, 10, 66, 0
9, 19584, Note_on_c, 10, 67, 92
9, 19744, Note_on_c, 10, 67, 0
9, 20832, Note_on_c, 10, 67, 45
9, 20926, Note_on_c, 10, 67, 0
9, 20928, Note_on_c, 10, 67, 45
9, 21022, Note_on_c, 10, 67, 0
9, 21024, Note_on_c, 10, 67, 45
9, 21118, Note_on_c, 10, 67, 0
9, 21120, Note_on_c, 10, 67, 45
9, 21214, Note_on_c, 10, 67, 0
9, 21216, Note_on_c, 10, 67, 45
9, 21310, Note_on_c, 10, 67, 0
9, 21408, Note_on_c, 10, 69, 45
9, 21502, Note_on_c, 10, 69, 0
9, 21504, Note_on_c, 10, 69, 45
9, 21598, Note_on_c, 10, 69, 0
9, 21600, Note_on_c, 10, 69, 45
9, 21694, Note_on_c, 10, 69, 0
9, 21696, Note_on_c, 10, 69, 45
9, 21790, Note_on_c, 10, 69, 0
9, 21792, Note_on_c, 10, 69, 45
9, 21886, Note_on_c, 10, 69, 0
9, 21984, Note_on_c, 10, 69, 45
9, 22078, Note_on_c, 10, 69, 0
9, 22080, Note_on_c, 10, 69, 54
9, 22174, Note_on_c, 10, 69, 0
9, 22176, Note_on_c, 10, 69, 63
9, 22270, Note_on_c, 10, 69, 0
9, 22272, Note_on_c, 10, 69, 72
9, 22366, Note_on_c, 10, 69, 0
9, 22368, Note_on_c, 10, 69, 82
9, 22462, Note_on_c, 10, 69, 0
9, 22464, Note_on_c, 10, 69, 92
9, 22558, Note_on_c, 10, 69, 0
9, 22560, Note_on_c, 10, 69, 92
9, 22720, Note_on_c, 10, 69, 0
9, 22752, Note_on_c, 10, 69, 92
9, 22912, Note_on_c, 10, 69, 0
9, 22944, Note_on_c, 10, 74, 92
9, 23038, Note_on_c, 10, 74, 0
9, 23040, Note_on_c, 10, 73, 92
9, 23134, Note_on_c, 10, 73, 0
9, 23136, Note_on_c, 10, 73, 92
9, 23296, Note_on_c, 10, 73, 0
9, 23328, Note_on_c, 10, 73, 92
9, 23488, Note_on_c, 10, 73, 0
9, 23520, Note_on_c, 10, 73, 92
9, 23614, Note_on_c, 10, 73, 0
9, 23616, Note_on_c, 10, 72, 45
9, 23710, Note_on_c, 10, 72, 0
9, 23712, Note_on_c, 10, 72, 45
9, 23872, Note_on_c, 10, 72, 0
9, 23904, Note_on_c, 10, 72, 45
9, 24064, Note_on_c, 10, 72, 0
9, 24096, Note_on_c, 10, 72, 45
9, 24190, Note_on_c, 10, 72, 0
9, 24192, Note_on_c, 10, 71, 45
9, 24286, Note_on_c, 10, 71, 0
9, 24288, Note_on_c, 10, 71, 45
9, 24448, Note_on_c, 10, 71, 0
9, 24480, Note_on_c, 10, 71, 45
9, 24640, Note_on_c, 10, 71, 0
9, 24672, Note_on_c, 10, 71, 45
9, 24766, Note_on_c, 10, 71, 0
9, 24768, Note_on_c, 10, 70, 45
9, 24862, Note_on_c, 10, 70, 0
9, 24864, Note_on_c, 10, 63, 45
9, 24958, Note_on_c, 10, 63, 0
9, 24960, Note_on_c, 10, 63, 45
9, 25054, Note_on_c, 10, 63, 0
9, 25056, Note_on_c, 10, 63, 45
9, 25150, Note_on_c, 10, 63, 0
9, 25152, Note_on_c, 10, 63, 45
9, 25246, Note_on_c, 10, 63, 0
9, 25248, Note_on_c, 10, 63, 45
9, 25342, Note_on_c, 10, 63, 0
9, 25344, Note_on_c, 10, 62, 45
9, 25438, Note_on_c, 10, 62, 0
9, 25440, Note_on_c, 10, 62, 45
9, 25534, Note_on_c, 10, 62, 0
9, 25536, Note_on_c, 10, 62, 45
9, 25630, Note_on_c, 10, 62, 0
9, 25632, Note_on_c, 10, 62, 45
9, 25726, Note_on_c, 10, 62, 0
9, 25728, Note_on_c, 10, 62, 45
9, 25822, Note_on_c, 10, 62, 0
9, 25824, Note_on_c, 10, 62, 45
9, 25918, Note_on_c, 10, 62, 0
9, 25920, Note_on_c, 10, 55, 45
9, 26448, Note_on_c, 10, 55, 0
9, 26496, Note_on_c, 10, 57, 45
9, 26656, Note_on_c, 10, 57, 0
9, 26688, Note_on_c, 10, 50, 45
9, 27232, Note_on_c, 10, 50, 0
9, 27264, Note_on_c, 10, 50, 45
9, 27742, Note_on_c, 10, 50, 0
9, 27840, Note_on_c, 10, 50, 45
9, 27934, Note_on_c, 10, 50, 0
9, 28032, Note_on_c, 10, 50, 45
9, 28126, Note_on_c, 10, 50, 0
9, 28224, Note_on_c, 10, 67, 92
9, 28384, Note_on_c, 10, 67, 0
9, 28416, Note_on_c, 10, 62, 92
9, 28576, Note_on_c, 10, 62, 0
9, 28608, Note_on_c, 10, 59, 92
9, 28768, Note_on_c, 10, 59, 0
9, 28800, Note_on_c, 10, 60, 92
9, 28896, Note_on_c, 10, 60, 0
9, 28896, Note_on_c, 10, 67, 92
9, 28990, Note_on_c, 10, 67, 0
9, 28992, Note_on_c, 10, 67, 92
9, 29086, Note_on_c, 10, 67, 0
9, 29088, Note_on_c, 10, 67, 92
9, 29182, Note_on_c, 10, 67, 0
9, 29184, Note_on_c, 10, 67, 92
9, 29278, Note_on_c, 10, 67, 0
9, 29280, Note_on_c, 10, 67, 92
9, 29374, Note_on_c, 10, 67, 0
9, 29376, Note_on_c, 10, 67, 92
9, 29470, Note_on_c, 10, 67, 0
9, 29472, Note_on_c, 10, 67, 92
9, 29566, Note_on_c, 10, 67, 0
9, 29568, Note_on_c, 10, 67, 92
9, 29662, Note_on_c, 10, 67, 0
9, 29664, Note_on_c, 10, 67, 92
9, 29758, Note_on_c, 10, 67, 0
9, 29760, Note_on_c, 10, 62, 92
9, 29854, Note_on_c, 10, 62, 0
9, 29856, Note_on_c, 10, 62, 92
9, 29950, Note_on_c, 10, 62, 0
9, 29952, Note_on_c, 10, 60, 92
9, 30144, Note_on_c, 10, 60, 0
9, 30144, Note_on_c, 10, 59, 92
9, 30304, Note_on_c, 10, 59, 0
9, 31680, Note_on_c, 10, 74, 92
9, 32208, Note_on_c, 10, 74, 0
9, 37056, Note_on_c, 10, 66, 45
9, 37150, Note_on_c, 10, 66, 0
9, 37248, Note_on_c, 10, 62, 45
9, 37342, Note_on_c, 10, 62, 0
9, 37440, Note_on_c, 10, 62, 45
9, 37534, Note_on_c, 10, 62, 0
9, 37632, Note_on_c, 10, 59, 45
9, 37726, Note_on_c, 10, 59, 0
9, 37824, Note_on_c, 10, 55, 45
9, 37918, Note_on_c, 10, 55, 0
9, 38016, Note_on_c, 10, 50, 45
9, 38176, Note_on_c, 10, 50, 0
9, 41472, Note_on_c, 10, 60, 45
9, 41664, Note_on_c, 10, 60, 0
9, 41664, Note_on_c, 10, 57, 45
9, 41856, Note_on_c, 10, 57, 0
9, 41856, Note_on_c, 10, 59, 45
9, 42016, Note_on_c, 10, 59, 0
9, 42048, Note_on_c, 10, 52, 45
9, 42240, Note_on_c, 10, 52, 0
9, 42240, Note_on_c, 10, 54, 45
9, 42432, Note_on_c, 10, 54, 0
9, 42432, Note_on_c, 10, 55, 45
9, 42592, Note_on_c, 10, 55, 0
9, 42720, Note_on_c, 10, 60, 45
9, 42814, Note_on_c, 10, 60, 0
9, 42816, Note_on_c, 10, 60, 45
9, 42910, Note_on_c, 10, 60, 0
9, 42912, Note_on_c, 10, 60, 45
9, 43006, Note_on_c, 10, 60, 0
9, 43008, Note_on_c, 10, 60, 45
9, 43102, Note_on_c, 10, 60, 0
9, 43104, Note_on_c, 10, 60, 45
9, 43198, Note_on_c, 10, 60, 0
9, 43296, Note_on_c, 10, 62, 45
9, 43390, Note_on_c, 10, 62, 0
9, 43392, Note_on_c, 10, 62, 45
9, 43486, Note_on_c, 10, 62, 0
9, 43488, Note_on_c, 10, 62, 45
9, 43582, Note_on_c, 10, 62, 0
9, 43584, Note_on_c, 10, 62, 45
9, 43678, Note_on_c, 10, 62, 0
9, 43680, Note_on_c, 10, 62, 45
9, 43774, Note_on_c, 10, 62, 0
9, 43872, Note_on_c, 10, 50, 45
9, 43872, Note_on_c, 10, 62, 45
9, 43966, Note_on_c, 10, 50, 0
9, 43966, Note_on_c, 10, 62, 0
9, 43968, Note_on_c, 10, 50, 54
9, 43968, Note_on_c, 10, 62, 54
9, 44062, Note_on_c, 10, 50, 0
9, 44062, Note_on_c, 10, 62, 0
9, 44064, Note_on_c, 10, 50, 63
9, 44064, Note_on_c, 10, 62, 63
9, 44158, Note_on_c, 10, 50, 0
9, 44158, Note_on_c, 10, 62, 0
9, 44160, Note_on_c, 10, 50, 72
9, 44160, Note_on_c, 10, 62, 72
9, 44254, Note_on_c, 10, 50, 0
9, 44254, Note_on_c, 10, 62, 0
9, 44256, Note_on_c, 10, 50, 82
9, 44256, Note_on_c, 10, 62, 82
9, 44350, Note_on_c, 10, 50, 0
9, 44350, Note_on_c, 10, 62, 0
9, 44352, Note_on_c, 10, 62, 92
9, 44446, Note_on_c, 10, 62, 0
9, 44448, Note_on_c, 10, 62, 92
9, 44608, Note_on_c, 10, 62, 0
9, 44640, Note_on_c, 10, 62, 92
9, 44800, Note_on_c, 10, 62, 0
9, 44832, Note_on_c, 10, 67, 92
9, 44926, Note_on_c, 10, 67, 0
9, 44928, Note_on_c, 10, 66, 92
9, 45022, Note_on_c, 10, 66, 0
9, 45024, Note_on_c, 10, 66, 92
9, 45184, Note_on_c, 10, 66, 0
9, 45216, Note_on_c, 10, 66, 92
9, 45376, Note_on_c, 10, 66, 0
9, 45408, Note_on_c, 10, 66, 92
9, 45502, Note_on_c, 10, 66, 0
9, 45504, Note_on_c, 10, 65, 45
9, 45598, Note_on_c, 10, 65, 0
9, 45600, Note_on_c, 10, 65, 45
9, 45760, Note_on_c, 10, 65, 0
9, 45792, Note_on_c, 10, 55, 45
9, 45952, Note_on_c, 10, 55, 0
9, 45984, Note_on_c, 10, 67, 45
9, 46174, Note_on_c, 10, 67, 0
9, 46176, Note_on_c, 10, 67, 52
9, 46336, Note_on_c, 10, 67, 0
9, 46368, Note_on_c, 10, 64, 68
9, 46462, Note_on_c, 10, 64, 0
9, 46464, Note_on_c, 10, 59, 76
9, 46558, Note_on_c, 10, 59, 0
9, 46560, Note_on_c, 10, 59, 84
9, 46654, Note_on_c, 10, 59, 0
9, 46656, Note_on_c, 10, 60, 92
9, 46816, Note_on_c, 10, 60, 0
9, 46848, Note_on_c, 10, 57, 92
9, 46942, Note_on_c, 10, 57, 0
9, 46944, Note_on_c, 10, 57, 92
9, 47136, Note_on_c, 10, 57, 0
9, 47136, Note_on_c, 10, 61, 92
9, 47230, Note_on_c, 10, 61, 0
9, 47232, Note_on_c, 10, 62, 92
9, 47328, Note_on_c, 10, 62, 0
9, 47328, Note_on_c, 10, 69, 92
9, 47422, Note_on_c, 10, 69, 0
9, 47424, Note_on_c, 10, 67, 45
9, 47518, Note_on_c, 10, 67, 0
9, 47520, Note_on_c, 10, 67, 45
9, 47680, Note_on_c, 10, 67, 0
9, 47712, Note_on_c, 10, 64, 45
9, 47902, Note_on_c, 10, 64, 0
9, 47904, Note_on_c, 10, 69, 45
9, 48000, Note_on_c, 10, 69, 0
9, 48000, Note_on_c, 10, 67, 45
9, 48094, Note_on_c, 10, 67, 0
9, 48288, Note_on_c, 10, 64, 92
9, 48382, Note_on_c, 10, 64, 0
9, 48384, Note_on_c, 10, 50, 92
9, 48384, Note_on_c, 10, 62, 92
9, 48720, Note_on_c, 10, 50, 0
9, 48720, Note_on_c, 10, 62, 0
9, 51264, Note_on_c, 10, 67, 92
9, 51424, Note_on_c, 10, 67, 0
9, 51456, Note_on_c, 10, 62, 92
9, 51616, Note_on_c, 10, 62, 0
9, 51648, Note_on_c, 10, 59, 92
9, 51808, Note_on_c, 10, 59, 0
9, 51840, Note_on_c, 10, 60, 92
9, 51936, Note_on_c, 10, 60, 0
9, 51936, Note_on_c, 10, 67, 92
9, 52030, Note_on_c, 10, 67, 0
9, 52032, Note_on_c, 10, 67, 92
9, 52126, Note_on_c, 10, 67, 0
9, 52128, Note_on_c, 10, 67, 92
9, 52222, Note_on_c, 10, 67, 0
9, 52224, Note_on_c, 10, 67, 92
9, 52318, Note_on_c, 10, 67, 0
9, 52320, Note_on_c, 10, 67, 92
9, 52414, Note_on_c, 10, 67, 0
9, 52416, Note_on_c, 10, 67, 92
9, 52510, Note_on_c, 10, 67, 0
9, 52512, Note_on_c, 10, 67, 92
9, 52606, Note_on_c, 10, 67, 0
9, 52608, Note_on_c, 10, 67, 92
9, 52702, Note_on_c, 10, 67, 0
9, 52704, Note_on_c, 10, 67, 92
9, 52798, Note_on_c, 10, 67, 0
9, 52800, Note_on_c, 10, 62, 92
9, 52894, Note_on_c, 10, 62, 0
9, 52896, Note_on_c, 10, 62, 92
9, 52990, Note_on_c, 10, 62, 0
9, 52992, Note_on_c, 10, 59, 45
9, 53184, Note_on_c, 10, 59, 0
9, 53184, Note_on_c, 10, 60, 45
9, 53376, Note_on_c, 10, 60, 0
9, 53376, Note_on_c, 10, 62, 45
9, 53536, Note_on_c, 10, 62, 0
9, 53568, Note_on_c, 10, 55, 45
9, 53616, Note_on_c, 10, 55, 0
9, 53616, Note_on_c, 10, 54, 45
9, 53664, Note_on_c, 10, 54, 0
9, 53664, Note_on_c, 10, 55, 45
9, 53712, Note_on_c, 10, 55, 0
9, 53712, Note_on_c, 10, 54, 45
9, 53758, Note_on_c, 10, 54, 0
9, 53760, Note_on_c, 10, 55, 45
9, 54016, Note_on_c, 10, 55, 0
9, 54016, End_track
10, 0, Start_track
10, 0, MIDI_port, 0
10, 0, Title_t, "V'lncello e Contrabasso"
10, 0, Program_c, 11, 48
10, 0, Control_c, 11, 7, 127
10, 0, Control_c, 11, 10, 64
10, 0, Note_on_c, 11, 55, 92
10, 94, Note_on_c, 11, 55, 0
10, 96, Note_on_c, 11, 55, 92
10, 190, Note_on_c, 11, 55, 0
10, 192, Note_on_c, 11, 50, 92
10, 286, Note_on_c, 11, 50, 0
10, 288, Note_on_c, 11, 50, 92
10, 382, Note_on_c, 11, 50, 0
10, 384, Note_on_c, 11, 47, 92
10, 478, Note_on_c, 11, 47, 0
10, 480, Note_on_c, 11, 47, 92
10, 574, Note_on_c, 11, 47, 0
10, 576, Note_on_c, 11, 48, 92
10, 670, Note_on_c, 11, 48, 0
10, 672, Note_on_c, 11, 48, 92
10, 766, Note_on_c, 11, 48, 0
10, 768, Note_on_c, 11, 48, 92
10, 862, Note_on_c, 11, 48, 0
10, 864, Note_on_c, 11, 48, 92
10, 958, Note_on_c, 11, 48, 0
10, 960, Note_on_c, 11, 48, 92
10, 1054, Note_on_c, 11, 48, 0
10, 1056, Note_on_c, 11, 48, 92
10, 1150, Note_on_c, 11, 48, 0
10, 1152, Note_on_c, 11, 50, 92
10, 1246, Note_on_c, 11, 50, 0
10, 1248, Note_on_c, 11, 50, 92
10, 1342, Note_on_c, 11, 50, 0
10, 1344, Note_on_c, 11, 50, 92
10, 1438, Note_on_c, 11, 50, 0
10, 1440, Note_on_c, 11, 50, 92
10, 1534, Note_on_c, 11, 50, 0
10, 1536, Note_on_c, 11, 50, 92
10, 1630, Note_on_c, 11, 50, 0
10, 1632, Note_on_c, 11, 50, 92
10, 1726, Note_on_c, 11, 50, 0
10, 1824, Note_on_c, 11, 50, 92
10, 1892, Note_on_c, 11, 50, 0
10, 1920, Note_on_c, 11, 55, 92
10, 1988, Note_on_c, 11, 55, 0
10, 2016, Note_on_c, 11, 50, 92
10, 2084, Note_on_c, 11, 50, 0
10, 2112, Note_on_c, 11, 47, 92
10, 2180, Note_on_c, 11, 47, 0
10, 2208, Note_on_c, 11, 43, 92
10, 2276, Note_on_c, 11, 43, 0
10, 2400, Note_on_c, 11, 45, 45
10, 2496, Note_on_c, 11, 45, 0
10, 2496, Note_on_c, 11, 48, 45
10, 2592, Note_on_c, 11, 48, 0
10, 2592, Note_on_c, 11, 54, 45
10, 2688, Note_on_c, 11, 54, 0
10, 2688, Note_on_c, 11, 57, 45
10, 2784, Note_on_c, 11, 57, 0
10, 2784, Note_on_c, 11, 60, 45
10, 2878, Note_on_c, 11, 60, 0
10, 2976, Note_on_c, 11, 47, 45
10, 3072, Note_on_c, 11, 47, 0
10, 3072, Note_on_c, 11, 50, 45
10, 3168, Note_on_c, 11, 50, 0
10, 3168, Note_on_c, 11, 55, 45
10, 3264, Note_on_c, 11, 55, 0
10, 3264, Note_on_c, 11, 59, 45
10, 3360, Note_on_c, 11, 59, 0
10, 3360, Note_on_c, 11, 62, 45
10, 3454, Note_on_c, 11, 62, 0
10, 3552, Note_on_c, 11, 48, 92
10, 3648, Note_on_c, 11, 48, 0
10, 3648, Note_on_c, 11, 52, 92
10, 3744, Note_on_c, 11, 52, 0
10, 3744, Note_on_c, 11, 57, 92
10, 3838, Note_on_c, 11, 57, 0
10, 3840, Note_on_c, 11, 60, 92
10, 3936, Note_on_c, 11, 60, 0
10, 3936, Note_on_c, 11, 61, 92
10, 4030, Note_on_c, 11, 61, 0
10, 4032, Note_on_c, 11, 62, 45
10, 4128, Note_on_c, 11, 62, 0
10, 4128, Note_on_c, 11, 63, 45
10, 4222, Note_on_c, 11, 63, 0
10, 4224, Note_on_c, 11, 64, 45
10, 4320, Note_on_c, 11, 64, 0
10, 4320, Note_on_c, 11, 62, 45
10, 4416, Note_on_c, 11, 62, 0
10, 4416, Note_on_c, 11, 60, 45
10, 4512, Note_on_c, 11, 60, 0
10, 4512, Note_on_c, 11, 59, 45
10, 4606, Note_on_c, 11, 59, 0
10, 4608, Note_on_c, 11, 57, 45
10, 4704, Note_on_c, 11, 57, 0
10, 4704, Note_on_c, 11, 54, 45
10, 4798, Note_on_c, 11, 54, 0
10, 4800, Note_on_c, 11, 55, 45
10, 4894, Note_on_c, 11, 55, 0
10, 4992, Note_on_c, 11, 47, 45
10, 5086, Note_on_c, 11, 47, 0
10, 5088, Note_on_c, 11, 48, 45
10, 5182, Note_on_c, 11, 48, 0
10, 5184, Note_on_c, 11, 50, 45
10, 5232, Note_on_c, 11, 50, 0
10, 5232, Note_on_c, 11, 49, 45
10, 5280, Note_on_c, 11, 49, 0
10, 5280, Note_on_c, 11, 50, 45
10, 5328, Note_on_c, 11, 50, 0
10, 5328, Note_on_c, 11, 49, 45
10, 5374, Note_on_c, 11, 49, 0
10, 5376, Note_on_c, 11, 50, 92
10, 5470, Note_on_c, 11, 50, 0
10, 5472, Note_on_c, 11, 48, 92
10, 5566, Note_on_c, 11, 48, 0
10, 5568, Note_on_c, 11, 47, 92
10, 5662, Note_on_c, 11, 47, 0
10, 5664, Note_on_c, 11, 45, 92
10, 5758, Note_on_c, 11, 45, 0
10, 5760, Note_on_c, 11, 43, 92
10, 5920, Note_on_c, 11, 43, 0
10, 9888, Note_on_c, 11, 55, 92
10, 9982, Note_on_c, 11, 55, 0
10, 9984, Note_on_c, 11, 57, 92
10, 9992, Note_on_c, 11, 57, 0
10, 9992, Note_on_c, 11, 55, 92
10, 10000, Note_on_c, 11, 55, 0
10, 10000, Note_on_c, 11, 57, 92
10, 10008, Note_on_c, 11, 57, 0
10, 10008, Note_on_c, 11, 55, 92
10, 10016, Note_on_c, 11, 55, 0
10, 10016, Note_on_c, 11, 57, 92
10, 10024, Note_on_c, 11, 57, 0
10, 10024, Note_on_c, 11, 55, 92
10, 10032, Note_on_c, 11, 55, 0
10, 10032, Note_on_c, 11, 57, 92
10, 10040, Note_on_c, 11, 57, 0
10, 10040, Note_on_c, 11, 55, 92
10, 10048, Note_on_c, 11, 55, 0
10, 10048, Note_on_c, 11, 57, 92
10, 10056, Note_on_c, 11, 57, 0
10, 10056, Note_on_c, 11, 55, 92
10, 10064, Note_on_c, 11, 55, 0
10, 10064, Note_on_c, 11, 57, 92
10, 10072, Note_on_c, 11, 57, 0
10, 10072, Note_on_c, 11, 55, 92
10, 10080, Note_on_c, 11, 55, 0
10, 10080, Note_on_c, 11, 57, 92
10, 10088, Note_on_c, 11, 57, 0
10, 10088, Note_on_c, 11, 55, 92
10, 10096, Note_on_c, 11, 55, 0
10, 10096, Note_on_c, 11, 57, 92
10, 10104, Note_on_c, 11, 57, 0
10, 10104, Note_on_c, 11, 55, 92
10, 10112, Note_on_c, 11, 55, 0
10, 10112, Note_on_c, 11, 57, 92
10, 10120, Note_on_c, 11, 57, 0
10, 10120, Note_on_c, 11, 55, 92
10, 10128, Note_on_c, 11, 55, 0
10, 10128, Note_on_c, 11, 54, 92
10, 10152, Note_on_c, 11, 54, 0
10, 10152, Note_on_c, 11, 55, 92
10, 10174, Note_on_c, 11, 55, 0
10, 10176, Note_on_c, 11, 59, 92
10, 10270, Note_on_c, 11, 59, 0
10, 10272, Note_on_c, 11, 51, 92
10, 10366, Note_on_c, 11, 51, 0
10, 10368, Note_on_c, 11, 52, 92
10, 10528, Note_on_c, 11, 52, 0
10, 14592, Note_on_c, 11, 57, 45
10, 14686, Note_on_c, 11, 57, 0
10, 14784, Note_on_c, 11, 52, 45
10, 14878, Note_on_c, 11, 52, 0
10, 14976, Note_on_c, 11, 49, 45
10, 15070, Note_on_c, 11, 49, 0
10, 15168, Note_on_c, 11, 45, 45
10, 15262, Note_on_c, 11, 45, 0
10, 15360, Note_on_c, 11, 57, 45
10, 15454, Note_on_c, 11, 57, 0
10, 15552, Note_on_c, 11, 50, 45
10, 15646, Note_on_c, 11, 50, 0
10, 15744, Note_on_c, 11, 62, 45
10, 15838, Note_on_c, 11, 62, 0
10, 16128, Note_on_c, 11, 45, 45
10, 16222, Note_on_c, 11, 45, 0
10, 16320, Note_on_c, 11, 57, 45
10, 16414, Note_on_c, 11, 57, 0
10, 16512, Note_on_c, 11, 55, 45
10, 16606, Note_on_c, 11, 55, 0
10, 16704, Note_on_c, 11, 54, 45
10, 16990, Note_on_c, 11, 54, 0
10, 19296, Note_on_c, 11, 50, 92
10, 19392, Note_on_c, 11, 50, 0
10, 19392, Note_on_c, 11, 52, 92
10, 19488, Note_on_c, 11, 52, 0
10, 19488, Note_on_c, 11, 54, 92
10, 19582, Note_on_c, 11, 54, 0
10, 19584, Note_on_c, 11, 55, 92
10, 19744, Note_on_c, 11, 55, 0
10, 20736, Note_on_c, 11, 55, 45
10, 20896, Note_on_c, 11, 55, 0
10, 21312, Note_on_c, 11, 57, 45
10, 21472, Note_on_c, 11, 57, 0
10, 21888, Note_on_c, 11, 45, 45
10, 22048, Note_on_c, 11, 45, 0
10, 22464, Note_on_c, 11, 50, 92
10, 22558, Note_on_c, 11, 50, 0
10, 22560, Note_on_c, 11, 50, 92
10, 22654, Note_on_c, 11, 50, 0
10, 22656, Note_on_c, 11, 50, 92
10, 22750, Note_on_c, 11, 50, 0
10, 22752, Note_on_c, 11, 50, 92
10, 22846, Note_on_c, 11, 50, 0
10, 22848, Note_on_c, 11, 50, 92
10, 22942, Note_on_c, 11, 50, 0
10, 22944, Note_on_c, 11, 50, 92
10, 23038, Note_on_c, 11, 50, 0
10, 23040, Note_on_c, 11, 50, 92
10, 23134, Note_on_c, 11, 50, 0
10, 23136, Note_on_c, 11, 50, 92
10, 23230, Note_on_c, 11, 50, 0
10, 23232, Note_on_c, 11, 50, 92
10, 23326, Note_on_c, 11, 50, 0
10, 23328, Note_on_c, 11, 50, 92
10, 23422, Note_on_c, 11, 50, 0
10, 23424, Note_on_c, 11, 50, 92
10, 23518, Note_on_c, 11, 50, 0
10, 23520, Note_on_c, 11, 50, 92
10, 23614, Note_on_c, 11, 50, 0
10, 23616, Note_on_c, 11, 50, 45
10, 23710, Note_on_c, 11, 50, 0
10, 23712, Note_on_c, 11, 50, 45
10, 23806, Note_on_c, 11, 50, 0
10, 23808, Note_on_c, 11, 50, 45
10, 23902, Note_on_c, 11, 50, 0
10, 23904, Note_on_c, 11, 50, 45
10, 23998, Note_on_c, 11, 50, 0
10, 24000, Note_on_c, 11, 50, 45
10, 24094, Note_on_c, 11, 50, 0
10, 24096, Note_on_c, 11, 50, 45
10, 24190, Note_on_c, 11, 50, 0
10, 24192, Note_on_c, 11, 50, 45
10, 24286, Note_on_c, 11, 50, 0
10, 24288, Note_on_c, 11, 50, 45
10, 24382, Note_on_c, 11, 50, 0
10, 24384, Note_on_c, 11, 50, 45
10, 24478, Note_on_c, 11, 50, 0
10, 24480, Note_on_c, 11, 50, 45
10, 24574, Note_on_c, 11, 50, 0
10, 24576, Note_on_c, 11, 50, 45
10, 24670, Note_on_c, 11, 50, 0
10, 24672, Note_on_c, 11, 50, 45
10, 24766, Note_on_c, 11, 50, 0
10, 24768, Note_on_c, 11, 51, 45
10, 24928, Note_on_c, 11, 51, 0
10, 25344, Note_on_c, 11, 50, 45
10, 25504, Note_on_c, 11, 50, 0
10, 25920, Note_on_c, 11, 51, 45
10, 26448, Note_on_c, 11, 51, 0
10, 26496, Note_on_c, 11, 50, 45
10, 26590, Note_on_c, 11, 50, 0
10, 26688, Note_on_c, 11, 50, 45
10, 26782, Note_on_c, 11, 50, 0
10, 26880, Note_on_c, 11, 50, 45
10, 26974, Note_on_c, 11, 50, 0
10, 27072, Note_on_c, 11, 50, 45
10, 27166, Note_on_c, 11, 50, 0
10, 27264, Note_on_c, 11, 50, 45
10, 27358, Note_on_c, 11, 50, 0
10, 27456, Note_on_c, 11, 50, 45
10, 27550, Note_on_c, 11, 50, 0
10, 27648, Note_on_c, 11, 50, 45
10, 27742, Note_on_c, 11, 50, 0
10, 27840, Note_on_c, 11, 50, 45
10, 27934, Note_on_c, 11, 50, 0
10, 28032, Note_on_c, 11, 50, 45
10, 28126, Note_on_c, 11, 50, 0
10, 28224, Note_on_c, 11, 55, 92
10, 28318, Note_on_c, 11, 55, 0
10, 28320, Note_on_c, 11, 55, 92
10, 28414, Note_on_c, 11, 55, 0
10, 28416, Note_on_c, 11, 50, 92
10, 28510, Note_on_c, 11, 50, 0
10, 28512, Note_on_c, 11, 50, 92
10, 28606, Note_on_c, 11, 50, 0
10, 28608, Note_on_c, 11, 47, 92
10, 28702, Note_on_c, 11, 47, 0
10, 28704, Note_on_c, 11, 47, 92
10, 28798, Note_on_c, 11, 47, 0
10, 28800, Note_on_c, 11, 48, 92
10, 28894, Note_on_c, 11, 48, 0
10, 28896, Note_on_c, 11, 48, 92
10, 28990, Note_on_c, 11, 48, 0
10, 28992, Note_on_c, 11, 48, 92
10, 29086, Note_on_c, 11, 48, 0
10, 29088, Note_on_c, 11, 48, 92
10, 29182, Note_on_c, 11, 48, 0
10, 29184, Note_on_c, 11, 48, 92
10, 29278, Note_on_c, 11, 48, 0
10, 29280, Note_on_c, 11, 48, 92
10, 29374, Note_on_c, 11, 48, 0
10, 29376, Note_on_c, 11, 50, 92
10, 29470, Note_on_c, 11, 50, 0
10, 29472, Note_on_c, 11, 50, 92
10, 29566, Note_on_c, 11, 50, 0
10, 29568, Note_on_c, 11, 50, 92
10, 29662, Note_on_c, 11, 50, 0
10, 29664, Note_on_c, 11, 50, 92
10, 29758, Note_on_c, 11, 50, 0
10, 29760, Note_on_c, 11, 50, 92
10, 29854, Note_on_c, 11, 50, 0
10, 29856, Note_on_c, 11, 50, 92
10, 29950, Note_on_c, 11, 50, 0
10, 30048, Note_on_c, 11, 50, 92
10, 30116, Note_on_c, 11, 50, 0
10, 30144, Note_on_c, 11, 55, 92
10, 30212, Note_on_c, 11, 55, 0
10, 30240, Note_on_c, 11, 50, 92
10, 30308, Note_on_c, 11, 50, 0
10, 30336, Note_on_c, 11, 47, 92
10, 30404, Note_on_c, 11, 47, 0
10, 30432, Note_on_c, 11, 43, 92
10, 30500, Note_on_c, 11, 43, 0
10, 31776, Note_on_c, 11, 55, 92
10, 31872, Note_on_c, 11, 55, 0
10, 31872, Note_on_c, 11, 59, 92
10, 31968, Note_on_c, 11, 59, 0
10, 31968, Note_on_c, 11, 62, 92
10, 32064, Note_on_c, 11, 62, 0
10, 32064, Note_on_c, 11, 65, 92
10, 32160, Note_on_c, 11, 65, 0
10, 32160, Note_on_c, 11, 62, 92
10, 32254, Note_on_c, 11, 62, 0
10, 36480, Note_on_c, 11, 62, 45
10, 36574, Note_on_c, 11, 62, 0
10, 36672, Note_on_c, 11, 57, 45
10, 36766, Note_on_c, 11, 57, 0
10, 36864, Note_on_c, 11, 54, 45
10, 36958, Note_on_c, 11, 54, 0
10, 37056, Note_on_c, 11, 50, 45
10, 37150, Note_on_c, 11, 50, 0
10, 37248, Note_on_c, 11, 62, 45
10, 37342, Note_on_c, 11, 62, 0
10, 37440, Note_on_c, 11, 55, 45
10, 37534, Note_on_c, 11, 55, 0
10, 37632, Note_on_c, 11, 43, 45
10, 37726, Note_on_c, 11, 43, 0
10, 38016, Note_on_c, 11, 50, 45
10, 38110, Note_on_c, 11, 50, 0
10, 38208, Note_on_c, 11, 62, 45
10, 38302, Note_on_c, 11, 62, 0
10, 38400, Note_on_c, 11, 60, 45
10, 38494, Note_on_c, 11, 60, 0
10, 38592, Note_on_c, 11, 59, 45
10, 38878, Note_on_c, 11, 59, 0
10, 41472, Note_on_c, 11, 60, 45
10, 41566, Note_on_c, 11, 60, 0
10, 41568, Note_on_c, 11, 60, 45
10, 41662, Note_on_c, 11, 60, 0
10, 41664, Note_on_c, 11, 57, 45
10, 41758, Note_on_c, 11, 57, 0
10, 41760, Note_on_c, 11, 57, 45
10, 41854, Note_on_c, 11, 57, 0
10, 41856, Note_on_c, 11, 59, 45
10, 41950, Note_on_c, 11, 59, 0
10, 41952, Note_on_c, 11, 59, 45
10, 42046, Note_on_c, 11, 59, 0
10, 42048, Note_on_c, 11, 52, 45
10, 42240, Note_on_c, 11, 52, 0
10, 42240, Note_on_c, 11, 54, 45
10, 42432, Note_on_c, 11, 54, 0
10, 42432, Note_on_c, 11, 55, 45
10, 42592, Note_on_c, 11, 55, 0
10, 42624, Note_on_c, 11, 48, 45
10, 42784, Note_on_c, 11, 48, 0
10, 43200, Note_on_c, 11, 50, 45
10, 43360, Note_on_c, 11, 50, 0
10, 43776, Note_on_c, 11, 50, 45
10, 43936, Note_on_c, 11, 50, 0
10, 44352, Note_on_c, 11, 55, 92
10, 44446, Note_on_c, 11, 55, 0
10, 44448, Note_on_c, 11, 55, 92
10, 44542, Note_on_c, 11, 55, 0
10, 44544, Note_on_c, 11, 55, 92
10, 44638, Note_on_c, 11, 55, 0
10, 44640, Note_on_c, 11, 55, 92
10, 44734, Note_on_c, 11, 55, 0
10, 44736, Note_on_c, 11, 55, 92
10, 44830, Note_on_c, 11, 55, 0
10, 44832, Note_on_c, 11, 55, 92
10, 44926, Note_on_c, 11, 55, 0
10, 44928, Note_on_c, 11, 55, 92
10, 45022, Note_on_c, 11, 55, 0
10, 45024, Note_on_c, 11, 55, 92
10, 45118, Note_on_c, 11, 55, 0
10, 45120, Note_on_c, 11, 55, 92
10, 45214, Note_on_c, 11, 55, 0
10, 45216, Note_on_c, 11, 55, 92
10, 45310, Note_on_c, 11, 55, 0
10, 45312, Note_on_c, 11, 55, 92
10, 45406, Note_on_c, 11, 55, 0
10, 45408, Note_on_c, 11, 55, 92
10, 45502, Note_on_c, 11, 55, 0
10, 45504, Note_on_c, 11, 55, 45
10, 45598, Note_on_c, 11, 55, 0
10, 45600, Note_on_c, 11, 55, 45
10, 45694, Note_on_c, 11, 55, 0
10, 45696, Note_on_c, 11, 55, 45
10, 45790, Note_on_c, 11, 55, 0
10, 45792, Note_on_c, 11, 55, 45
10, 45886, Note_on_c, 11, 55, 0
10, 45888, Note_on_c, 11, 53, 45
10, 45982, Note_on_c, 11, 53, 0
10, 45984, Note_on_c, 11, 53, 45
10, 46078, Note_on_c, 11, 53, 0
10, 46080, Note_on_c, 11, 52, 45
10, 46174, Note_on_c, 11, 52, 0
10, 46176, Note_on_c, 11, 52, 52
10, 46270, Note_on_c, 11, 52, 0
10, 46272, Note_on_c, 11, 52, 60
10, 46366, Note_on_c, 11, 52, 0
10, 46368, Note_on_c, 11, 52, 68
10, 46462, Note_on_c, 11, 52, 0
10, 46464, Note_on_c, 11, 47, 76
10, 46558, Note_on_c, 11, 47, 0
10, 46560, Note_on_c, 11, 47, 84
10, 46654, Note_on_c, 11, 47, 0
10, 46656, Note_on_c, 11, 48, 92
10, 46688, Note_on_c, 11, 48, 0
10, 46752, Note_on_c, 11, 48, 92
10, 46848, Note_on_c, 11, 48, 0
10, 46848, Note_on_c, 11, 52, 92
10, 46944, Note_on_c, 11, 52, 0
10, 46944, Note_on_c, 11, 57, 92
10, 47038, Note_on_c, 11, 57, 0
10, 47040, Note_on_c, 11, 60, 92
10, 47136, Note_on_c, 11, 60, 0
10, 47136, Note_on_c, 11, 61, 92
10, 47230, Note_on_c, 11, 61, 0
10, 47232, Note_on_c, 11, 62, 92
10, 47326, Note_on_c, 11, 62, 0
10, 47328, Note_on_c, 11, 63, 92
10, 47422, Note_on_c, 11, 63, 0
10, 47424, Note_on_c, 11, 64, 45
10, 47520, Note_on_c, 11, 64, 0
10, 47520, Note_on_c, 11, 62, 45
10, 47614, Note_on_c, 11, 62, 0
10, 47616, Note_on_c, 11, 60, 45
10, 47712, Note_on_c, 11, 60, 0
10, 47712, Note_on_c, 11, 59, 45
10, 47806, Note_on_c, 11, 59, 0
10, 47808, Note_on_c, 11, 57, 45
10, 47904, Note_on_c, 11, 57, 0
10, 47904, Note_on_c, 11, 54, 45
10, 48000, Note_on_c, 11, 54, 0
10, 48000, Note_on_c, 11, 55, 45
10, 48094, Note_on_c, 11, 55, 0
10, 48192, Note_on_c, 11, 47, 92
10, 48286, Note_on_c, 11, 47, 0
10, 48288, Note_on_c, 11, 48, 92
10, 48382, Note_on_c, 11, 48, 0
10, 48384, Note_on_c, 11, 50, 92
10, 48720, Note_on_c, 11, 50, 0
10, 51264, Note_on_c, 11, 55, 92
10, 51358, Note_on_c, 11, 55, 0
10, 51360, Note_on_c, 11, 55, 92
10, 51454, Note_on_c, 11, 55, 0
10, 51456, Note_on_c, 11, 50, 92
10, 51550, Note_on_c, 11, 50, 0
10, 51552, Note_on_c, 11, 50, 92
10, 51646, Note_on_c, 11, 50, 0
10, 51648, Note_on_c, 11, 47, 92
10, 51742, Note_on_c, 11, 47, 0
10, 51744, Note_on_c, 11, 47, 92
10, 51838, Note_on_c, 11, 47, 0
10, 51840, Note_on_c, 11, 48, 92
10, 51934, Note_on_c, 11, 48, 0
10, 51936, Note_on_c, 11, 48, 92
10, 52030, Note_on_c, 11, 48, 0
10, 52032, Note_on_c, 11, 48, 92
10, 52126, Note_on_c, 11, 48, 0
10, 52128, Note_on_c, 11, 48, 92
10, 52222, Note_on_c, 11, 48, 0
10, 52224, Note_on_c, 11, 48, 92
10, 52318, Note_on_c, 11, 48, 0
10, 52320, Note_on_c, 11, 48, 92
10, 52414, Note_on_c, 11, 48, 0
10, 52416, Note_on_c, 11, 50, 92
10, 52510, Note_on_c, 11, 50, 0
10, 52512, Note_on_c, 11, 50, 92
10, 52606, Note_on_c, 11, 50, 0
10, 52608, Note_on_c, 11, 50, 92
10, 52702, Note_on_c, 11, 50, 0
10, 52704, Note_on_c, 11, 50, 92
10, 52798, Note_on_c, 11, 50, 0
10, 52800, Note_on_c, 11, 50, 92
10, 52894, Note_on_c, 11, 50, 0
10, 52896, Note_on_c, 11, 50, 92
10, 52990, Note_on_c, 11, 50, 0
10, 52992, Note_on_c, 11, 52, 45
10, 53184, Note_on_c, 11, 52, 0
10, 53184, Note_on_c, 11, 48, 45
10, 53376, Note_on_c, 11, 48, 0
10, 53376, Note_on_c, 11, 50, 45
10, 53536, Note_on_c, 11, 50, 0
10, 53568, Note_on_c, 11, 55, 45
10, 53616, Note_on_c, 11, 55, 0
10, 53616, Note_on_c, 11, 54, 45
10, 53664, Note_on_c, 11, 54, 0
10, 53664, Note_on_c, 11, 55, 45
10, 53712, Note_on_c, 11, 55, 0
10, 53712, Note_on_c, 11, 54, 45
10, 53758, Note_on_c, 11, 54, 0
10, 53760, Note_on_c, 11, 55, 45
10, 54016, Note_on_c, 11, 55, 0
10, 54016, End_track
11, 0, Start_track
11, 0, MIDI_port, 0
11, 0, Title_t, "Staff-1"
11, 0, Program_c, 12, 43
11, 0, Control_c, 12, 7, 127
11, 0, Control_c, 12, 10, 64
11, 0, Note_on_c, 12, 43, 92
11, 94, Note_on_c, 12, 43, 0
11, 96, Note_on_c, 12, 43, 92
11, 190, Note_on_c, 12, 43, 0
11, 192, Note_on_c, 12, 38, 92
11, 286, Note_on_c, 12, 38, 0
11, 288, Note_on_c, 12, 38, 92
11, 382, Note_on_c, 12, 38, 0
11, 384, Note_on_c, 12, 35, 92
11, 478, Note_on_c, 12, 35, 0
11, 480, Note_on_c, 12, 35, 92
11, 574, Note_on_c, 12, 35, 0
11, 576, Note_on_c, 12, 36, 92
11, 670, Note_on_c, 12, 36, 0
11, 672, Note_on_c, 12, 36, 92
11, 766, Note_on_c, 12, 36, 0
11, 768, Note_on_c, 12, 36, 92
11, 862, Note_on_c, 12, 36, 0
11, 864, Note_on_c, 12, 36, 92
11, 958, Note_on_c, 12, 36, 0
11, 960, Note_on_c, 12, 36, 92
11, 1054, Note_on_c, 12, 36, 0
11, 1056, Note_on_c, 12, 36, 92
11, 1150, Note_on_c, 12, 36, 0
11, 1152, Note_on_c, 12, 38, 92
11, 1246, Note_on_c, 12, 38, 0
11, 1248, Note_on_c, 12, 38, 92
11, 1342, Note_on_c, 12, 38, 0
11, 1344, Note_on_c, 12, 38, 92
11, 1438, Note_on_c, 12, 38, 0
11, 1440, Note_on_c, 12, 38, 92
11, 1534, Note_on_c, 12, 38, 0
11, 1536, Note_on_c, 12, 38, 92
11, 1630, Note_on_c, 12, 38, 0
11, 1632, Note_on_c, 12, 38, 92
11, 1726, Note_on_c, 12, 38, 0
11, 1824, Note_on_c, 12, 38, 92
11, 1892, Note_on_c, 12, 38, 0
11, 1920, Note_on_c, 12, 43, 92
11, 1988, Note_on_c, 12, 43, 0
11, 2016, Note_on_c, 12, 38, 92
11, 2084, Note_on_c, 12, 38, 0
11, 2112, Note_on_c, 12, 35, 92
11, 2180, Note_on_c, 12, 35, 0
11, 2208, Note_on_c, 12, 31, 92
11, 2276, Note_on_c, 12, 31, 0
11, 2400, Note_on_c, 12, 33, 45
11, 2496, Note_on_c, 12, 33, 0
11, 2496, Note_on_c, 12, 36, 45
11, 2592, Note_on_c, 12, 36, 0
11, 2592, Note_on_c, 12, 42, 45
11, 2688, Note_on_c, 12, 42, 0
11, 2688, Note_on_c, 12, 45, 45
11, 2784, Note_on_c, 12, 45, 0
11, 2784, Note_on_c, 12, 48, 45
11, 2878, Note_on_c, 12, 48, 0
11, 2976, Note_on_c, 12, 35, 45
11, 3072, Note_on_c, 12, 35, 0
11, 3072, Note_on_c, 12, 38, 45
11, 3168, Note_on_c, 12, 38, 0
11, 3168, Note_on_c, 12, 43, 45
11, 3264, Note_on_c, 12, 43, 0
11, 3264, Note_on_c, 12, 47, 45
11, 3360, Note_on_c, 12, 47, 0
11, 3360, Note_on_c, 12, 50, 45
11, 3454, Note_on_c, 12, 50, 0
11, 3552, Note_on_c, 12, 36, 92
11, 3648, Note_on_c, 12, 36, 0
11, 3648, Note_on_c, 12, 40, 92
11, 3744, Note_on_c, 12, 40, 0
11, 3744, Note_on_c, 12, 45, 92
11, 3838, Note_on_c, 12, 45, 0
11, 3840, Note_on_c, 12, 48, 92
11, 3936, Note_on_c, 12, 48, 0
11, 3936, Note_on_c, 12, 49, 92
11, 4030, Note_on_c, 12, 49, 0
11, 4032, Note_on_c, 12, 50, 45
11, 4128, Note_on_c, 12, 50, 0
11, 4128, Note_on_c, 12, 51, 45
11, 4222, Note_on_c, 12, 51, 0
11, 4224, Note_on_c, 12, 52, 45
11, 4320, Note_on_c, 12, 52, 0
11, 4320, Note_on_c, 12, 50, 45
11, 4416, Note_on_c, 12, 50, 0
11, 4416, Note_on_c, 12, 48, 45
11, 4512, Note_on_c, 12, 48, 0
11, 4512, Note_on_c, 12, 47, 45
11, 4606, Note_on_c, 12, 47, 0
11, 4608, Note_on_c, 12, 45, 45
11, 4704, Note_on_c, 12, 45, 0
11, 4704, Note_on_c, 12, 42, 45
11, 4798, Note_on_c, 12, 42, 0
11, 4800, Note_on_c, 12, 43, 45
11, 4894, Note_on_c, 12, 43, 0
11, 4992, Note_on_c, 12, 35, 45
11, 5086, Note_on_c, 12, 35, 0
11, 5088, Note_on_c, 12, 36, 45
11, 5182, Note_on_c, 12, 36, 0
11, 5184, Note_on_c, 12, 38, 45
11, 5232, Note_on_c, 12, 38, 0
11, 5232, Note_on_c, 12, 37, 45
11, 5280, Note_on_c, 12, 37, 0
11, 5280, Note_on_c, 12, 38, 45
11, 5328, Note_on_c, 12, 38, 0
11, 5328, Note_on_c, 12, 37, 45
11, 5374, Note_on_c, 12, 37, 0
11, 5376, Note_on_c, 12, 38, 92
11, 5470, Note_on_c, 12, 38, 0
11, 5472, Note_on_c, 12, 36, 92
11, 5566, Note_on_c, 12, 36, 0
11, 5568, Note_on_c, 12, 35, 92
11, 5662, Note_on_c, 12, 35, 0
11, 5664, Note_on_c, 12, 33, 92
11, 5758, Note_on_c, 12, 33, 0
11, 5760, Note_on_c, 12, 31, 92
11, 5920, Note_on_c, 12, 31, 0
11, 9888, Note_on_c, 12, 43, 92
11, 9982, Note_on_c, 12, 43, 0
11, 9984, Note_on_c, 12, 45, 92
11, 9992, Note_on_c, 12, 45, 0
11, 9992, Note_on_c, 12, 43, 92
11, 10000, Note_on_c, 12, 43, 0
11, 10000, Note_on_c, 12, 45, 92
11, 10008, Note_on_c, 12, 45, 0
11, 10008, Note_on_c, 12, 43, 92
11, 10016, Note_on_c, 12, 43, 0
11, 10016, Note_on_c, 12, 45, 92
11, 10024, Note_on_c, 12, 45, 0
11, 10024, Note_on_c, 12, 43, 92
11, 10032, Note_on_c, 12, 43, 0
11, 10032, Note_on_c, 12, 45, 92
11, 10040, Note_on_c, 12, 45, 0
11, 10040, Note_on_c, 12, 43, 92
11, 10048, Note_on_c, 12, 43, 0
11, 10048, Note_on_c, 12, 45, 92
11, 10056, Note_on_c, 12, 45, 0
11, 10056, Note_on_c, 12, 43, 92
11, 10064, Note_on_c, 12, 43, 0
11, 10064, Note_on_c, 12, 45, 92
11, 10072, Note_on_c, 12, 45, 0
11, 10072, Note_on_c, 12, 43, 92
11, 10080, Note_on_c, 12, 43, 0
11, 10080, Note_on_c, 12, 45, 92
11, 10088, Note_on_c, 12, 45, 0
11, 10088, Note_on_c, 12, 43, 92
11, 10096, Note_on_c, 12, 43, 0
11, 10096, Note_on_c, 12, 45, 92
11, 10104, Note_on_c, 12, 45, 0
11, 10104, Note_on_c, 12, 43, 92
11, 10112, Note_on_c, 12, 43, 0
11, 10112, Note_on_c, 12, 45, 92
11, 10120, Note_on_c, 12, 45, 0
11, 10120, Note_on_c, 12, 43, 92
11, 10128, Note_on_c, 12, 43, 0
11, 10128, Note_on_c, 12, 42, 92
11, 10152, Note_on_c, 12, 42, 0
11, 10152, Note_on_c, 12, 43, 92
11, 10174, Note_on_c, 12, 43, 0
11, 10176, Note_on_c, 12, 47, 92
11, 10270, Note_on_c, 12, 47, 0
11, 10272, Note_on_c, 12, 39, 92
11, 10366, Note_on_c, 12, 39, 0
11, 10368, Note_on_c, 12, 40, 92
11, 10528, Note_on_c, 12, 40, 0
11, 14592, Note_on_c, 12, 45, 45
11, 14686, Note_on_c, 12, 45, 0
11, 14784, Note_on_c, 12, 40, 45
11, 14878, Note_on_c, 12, 40, 0
11, 14976, Note_on_c, 12, 37, 45
11, 15070, Note_on_c, 12, 37, 0
11, 15168, Note_on_c, 12, 33, 45
11, 15262, Note_on_c, 12, 33, 0
11, 15360, Note_on_c, 12, 45, 45
11, 15454, Note_on_c, 12, 45, 0
11, 15552, Note_on_c, 12, 38, 45
11, 15646, Note_on_c, 12, 38, 0
11, 15744, Note_on_c, 12, 50, 45
11, 15838, Note_on_c, 12, 50, 0
11, 16128, Note_on_c, 12, 33, 45
11, 16222, Note_on_c, 12, 33, 0
11, 16320, Note_on_c, 12, 45, 45
11, 16414, Note_on_c, 12, 45, 0
11, 16512, Note_on_c, 12, 43, 45
11, 16606, Note_on_c, 12, 43, 0
11, 16704, Note_on_c, 12, 42, 45
11, 16990, Note_on_c, 12, 42, 0
11, 19296, Note_on_c, 12, 38, 92
11, 19392, Note_on_c, 12, 38, 0
11, 19392, Note_on_c, 12, 40, 92
11, 19488, Note_on_c, 12, 40, 0
11, 19488, Note_on_c, 12, 42, 92
11, 19582, Note_on_c, 12, 42, 0
11, 19584, Note_on_c, 12, 43, 92
11, 19744, Note_on_c, 12, 43, 0
11, 20736, Note_on_c, 12, 43, 45
11, 20896, Note_on_c, 12, 43, 0
11, 21312, Note_on_c, 12, 45, 45
11, 21472, Note_on_c, 12, 45, 0
11, 21888, Note_on_c, 12, 33, 45
11, 22048, Note_on_c, 12, 33, 0
11, 22464, Note_on_c, 12, 38, 92
11, 22558, Note_on_c, 12, 38, 0
11, 22560, Note_on_c, 12, 38, 92
11, 22654, Note_on_c, 12, 38, 0
11, 22656, Note_on_c, 12, 38, 92
11, 22750, Note_on_c, 12, 38, 0
11, 22752, Note_on_c, 12, 38, 92
11, 22846, Note_on_c, 12, 38, 0
11, 22848, Note_on_c, 12, 38, 92
11, 22942, Note_on_c, 12, 38, 0
11, 22944, Note_on_c, 12, 38, 92
11, 23038, Note_on_c, 12, 38, 0
11, 23040, Note_on_c, 12, 38, 92
11, 23134, Note_on_c, 12, 38, 0
11, 23136, Note_on_c, 12, 38, 92
11, 23230, Note_on_c, 12, 38, 0
11, 23232, Note_on_c, 12, 38, 92
11, 23326, Note_on_c, 12, 38, 0
11, 23328, Note_on_c, 12, 38, 92
11, 23422, Note_on_c, 12, 38, 0
11, 23424, Note_on_c, 12, 38, 92
11, 23518, Note_on_c, 12, 38, 0
11, 23520, Note_on_c, 12, 38, 92
11, 23614, Note_on_c, 12, 38, 0
11, 23616, Note_on_c, 12, 38, 45
11, 23710, Note_on_c, 12, 38, 0
11, 23712, Note_on_c, 12, 38, 45
11, 23806, Note_on_c, 12, 38, 0
11, 23808, Note_on_c, 12, 38, 45
11, 23902, Note_on_c, 12, 38, 0
11, 23904, Note_on_c, 12, 38, 45
11, 23998, Note_on_c, 12, 38, 0
11, 24000, Note_on_c, 12, 38, 45
11, 24094, Note_on_c, 12, 38, 0
11, 24096, Note_on_c, 12, 38, 45
11, 24190, Note_on_c, 12, 38, 0
11, 24192, Note_on_c, 12, 38, 45
11, 24286, Note_on_c, 12, 38, 0
11, 24288, Note_on_c, 12, 38, 45
11, 24382, Note_on_c, 12, 38, 0
11, 24384, Note_on_c, 12, 38, 45
11, 24478, Note_on_c, 12, 38, 0
11, 24480, Note_on_c, 12, 38, 45
11, 24574, Note_on_c, 12, 38, 0
11, 24576, Note_on_c, 12, 38, 45
11, 24670, Note_on_c, 12, 38, 0
11, 24672, Note_on_c, 12, 38, 45
11, 24766, Note_on_c, 12, 38, 0
11, 24768, Note_on_c, 12, 39, 45
11, 24928, Note_on_c, 12, 39, 0
11, 25344, Note_on_c, 12, 38, 45
11, 25504, Note_on_c, 12, 38, 0
11, 25920, Note_on_c, 12, 39, 45
11, 26448, Note_on_c, 12, 39, 0
11, 26496, Note_on_c, 12, 38, 45
11, 26590, Note_on_c, 12, 38, 0
11, 26688, Note_on_c, 12, 38, 45
11, 26782, Note_on_c, 12, 38, 0
11, 26880, Note_on_c, 12, 38, 45
11, 26974, Note_on_c, 12, 38, 0
11, 27072, Note_on_c, 12, 38, 45
11, 27166, Note_on_c, 12, 38, 0
11, 27264, Note_on_c, 12, 38, 45
11, 27358, Note_on_c, 12, 38, 0
11, 27456, Note_on_c, 12, 38, 45
11, 27550, Note_on_c, 12, 38, 0
11, 27648, Note_on_c, 12, 38, 45
11, 27742, Note_on_c, 12, 38, 0
11, 27840, Note_on_c, 12, 38, 45
11, 27934, Note_on_c, 12, 38, 0
11, 28032, Note_on_c, 12, 38, 45
11, 28126, Note_on_c, 12, 38, 0
11, 28224, Note_on_c, 12, 43, 92
11, 28318, Note_on_c, 12, 43, 0
11, 28320, Note_on_c, 12, 43, 92
11, 28414, Note_on_c, 12, 43, 0
11, 28416, Note_on_c, 12, 38, 92
11, 28510, Note_on_c, 12, 38, 0
11, 28512, Note_on_c, 12, 38, 92
11, 28606, Note_on_c, 12, 38, 0
11, 28608, Note_on_c, 12, 35, 92
11, 28702, Note_on_c, 12, 35, 0
11, 28704, Note_on_c, 12, 35, 92
11, 28798, Note_on_c, 12, 35, 0
11, 28800, Note_on_c, 12, 36, 92
11, 28894, Note_on_c, 12, 36, 0
11, 28896, Note_on_c, 12, 36, 92
11, 28990, Note_on_c, 12, 36, 0
11, 28992, Note_on_c, 12, 36, 92
11, 29086, Note_on_c, 12, 36, 0
11, 29088, Note_on_c, 12, 36, 92
11, 29182, Note_on_c, 12, 36, 0
11, 29184, Note_on_c, 12, 36, 92
11, 29278, Note_on_c, 12, 36, 0
11, 29280, Note_on_c, 12, 36, 92
11, 29374, Note_on_c, 12, 36, 0
11, 29376, Note_on_c, 12, 38, 92
11, 29470, Note_on_c, 12, 38, 0
11, 29472, Note_on_c, 12, 38, 92
11, 29566, Note_on_c, 12, 38, 0
11, 29568, Note_on_c, 12, 38, 92
11, 29662, Note_on_c, 12, 38, 0
11, 29664, Note_on_c, 12, 38, 92
11, 29758, Note_on_c, 12, 38, 0
11, 29760, Note_on_c, 12, 38, 92
11, 29854, Note_on_c, 12, 38, 0
11, 29856, Note_on_c, 12, 38, 92
11, 29950, Note_on_c, 12, 38, 0
11, 30048, Note_on_c, 12, 38, 92
11, 30116, Note_on_c, 12, 38, 0
11, 30144, Note_on_c, 12, 43, 92
11, 30212, Note_on_c, 12, 43, 0
11, 30240, Note_on_c, 12, 38, 92
11, 30308, Note_on_c, 12, 38, 0
11, 30336, Note_on_c, 12, 35, 92
11, 30404, Note_on_c, 12, 35, 0
11, 30432, Note_on_c, 12, 31, 92
11, 30500, Note_on_c, 12, 31, 0
11, 31776, Note_on_c, 12, 43, 92
11, 31872, Note_on_c, 12, 43, 0
11, 31872, Note_on_c, 12, 47, 92
11, 31968, Note_on_c, 12, 47, 0
11, 31968, Note_on_c, 12, 50, 92
11, 32064, Note_on_c, 12, 50, 0
11, 32064, Note_on_c, 12, 53, 92
11, 32160, Note_on_c, 12, 53, 0
11, 32160, Note_on_c, 12, 50, 92
11, 32254, Note_on_c, 12, 50, 0
11, 36480, Note_on_c, 12, 50, 45
11, 36574, Note_on_c, 12, 50, 0
11, 36672, Note_on_c, 12, 45, 45
11, 36766, Note_on_c, 12, 45, 0
11, 36864, Note_on_c, 12, 42, 45
11, 36958, Note_on_c, 12, 42, 0
11, 37056, Note_on_c, 12, 38, 45
11, 37150, Note_on_c, 12, 38, 0
11, 37248, Note_on_c, 12, 50, 45
11, 37342, Note_on_c, 12, 50, 0
11, 37440, Note_on_c, 12, 43, 45
11, 37534, Note_on_c, 12, 43, 0
11, 37632, Note_on_c, 12, 31, 45
11, 37726, Note_on_c, 12, 31, 0
11, 38016, Note_on_c, 12, 38, 45
11, 38110, Note_on_c, 12, 38, 0
11, 38208, Note_on_c, 12, 50, 45
11, 38302, Note_on_c, 12, 50, 0
11, 38400, Note_on_c, 12, 48, 45
11, 38494, Note_on_c, 12, 48, 0
11, 38592, Note_on_c, 12, 47, 45
11, 38878, Note_on_c, 12, 47, 0
11, 41472, Note_on_c, 12, 48, 45
11, 41566, Note_on_c, 12, 48, 0
11, 41568, Note_on_c, 12, 48, 45
11, 41662, Note_on_c, 12, 48, 0
11, 41664, Note_on_c, 12, 45, 45
11, 41758, Note_on_c, 12, 45, 0
11, 41760, Note_on_c, 12, 45, 45
11, 41854, Note_on_c, 12, 45, 0
11, 41856, Note_on_c, 12, 47, 45
11, 41950, Note_on_c, 12, 47, 0
11, 41952, Note_on_c, 12, 47, 45
11, 42046, Note_on_c, 12, 47, 0
11, 42048, Note_on_c, 12, 40, 45
11, 42240, Note_on_c, 12, 40, 0
11, 42240, Note_on_c, 12, 42, 45
11, 42432, Note_on_c, 12, 42, 0
11, 42432, Note_on_c, 12, 43, 45
11, 42592, Note_on_c, 12, 43, 0
11, 42624, Note_on_c, 12, 36, 45
11, 42784, Note_on_c, 12, 36, 0
11, 43200, Note_on_c, 12, 38, 45
11, 43360, Note_on_c, 12, 38, 0
11, 43776, Note_on_c, 12, 38, 45
11, 43936, Note_on_c, 12, 38, 0
11, 44352, Note_on_c, 12, 43, 92
11, 44446, Note_on_c, 12, 43, 0
11, 44448, Note_on_c, 12, 43, 92
11, 44542, Note_on_c, 12, 43, 0
11, 44544, Note_on_c, 12, 43, 92
11, 44638, Note_on_c, 12, 43, 0
11, 44640, Note_on_c, 12, 43, 92
11, 44734, Note_on_c, 12, 43, 0
11, 44736, Note_on_c, 12, 43, 92
11, 44830, Note_on_c, 12, 43, 0
11, 44832, Note_on_c, 12, 43, 92
11, 44926, Note_on_c, 12, 43, 0
11, 44928, Note_on_c, 12, 43, 92
11, 45022, Note_on_c, 12, 43, 0
11, 45024, Note_on_c, 12, 43, 92
11, 45118, Note_on_c, 12, 43, 0
11, 45120, Note_on_c, 12, 43, 92
11, 45214, Note_on_c, 12, 43, 0
11, 45216, Note_on_c, 12, 43, 92
11, 45310, Note_on_c, 12, 43, 0
11, 45312, Note_on_c, 12, 43, 92
11, 45406, Note_on_c, 12, 43, 0
11, 45408, Note_on_c, 12, 43, 92
11, 45502, Note_on_c, 12, 43, 0
11, 45504, Note_on_c, 12, 43, 45
11, 45598, Note_on_c, 12, 43, 0
11, 45600, Note_on_c, 12, 43, 45
11, 45694, Note_on_c, 12, 43, 0
11, 45696, Note_on_c, 12, 43, 45
11, 45790, Note_on_c, 12, 43, 0
11, 45792, Note_on_c, 12, 43, 45
11, 45886, Note_on_c, 12, 43, 0
11, 45888, Note_on_c, 12, 41, 45
11, 45982, Note_on_c, 12, 41, 0
11, 45984, Note_on_c, 12, 41, 45
11, 46078, Note_on_c, 12, 41, 0
11, 46080, Note_on_c, 12, 40, 45
11, 46174, Note_on_c, 12, 40, 0
11, 46176, Note_on_c, 12, 40, 52
11, 46270, Note_on_c, 12, 40, 0
11, 46272, Note_on_c, 12, 40, 60
11, 46366, Note_on_c, 12, 40, 0
11, 46368, Note_on_c, 12, 40, 68
11, 46462, Note_on_c, 12, 40, 0
11, 46464, Note_on_c, 12, 35, 76
11, 46558, Note_on_c, 12, 35, 0
11, 46560, Note_on_c, 12, 35, 84
11, 46654, Note_on_c, 12, 35, 0
11, 46656, Note_on_c, 12, 36, 92
11, 46688, Note_on_c, 12, 36, 0
11, 46752, Note_on_c, 12, 36, 92
11, 46848, Note_on_c, 12, 36, 0
11, 46848, Note_on_c, 12, 40, 92
11, 46944, Note_on_c, 12, 40, 0
11, 46944, Note_on_c, 12, 45, 92
11, 47038, Note_on_c, 12, 45, 0
11, 47040, Note_on_c, 12, 48, 92
11, 47136, Note_on_c, 12, 48, 0
11, 47136, Note_on_c, 12, 49, 92
11, 47230, Note_on_c, 12, 49, 0
11, 47232, Note_on_c, 12, 50, 92
11, 47326, Note_on_c, 12, 50, 0
11, 47328, Note_on_c, 12, 51, 92
11, 47422, Note_on_c, 12, 51, 0
11, 47424, Note_on_c, 12, 52, 45
11, 47520, Note_on_c, 12, 52, 0
11, 47520, Note_on_c, 12, 50, 45
11, 47614, Note_on_c, 12, 50, 0
11, 47616, Note_on_c, 12, 48, 45
11, 47712, Note_on_c, 12, 48, 0
11, 47712, Note_on_c, 12, 47, 45
11, 47806, Note_on_c, 12, 47, 0
11, 47808, Note_on_c, 12, 45, 45
11, 47904, Note_on_c, 12, 45, 0
11, 47904, Note_on_c, 12, 42, 45
11, 48000, Note_on_c, 12, 42, 0
11, 48000, Note_on_c, 12, 43, 45
11, 48094, Note_on_c, 12, 43, 0
11, 48192, Note_on_c, 12, 35, 92
11, 48286, Note_on_c, 12, 35, 0
11, 48288, Note_on_c, 12, 36, 92
11, 48382, Note_on_c, 12, 36, 0
11, 48384, Note_on_c, 12, 38, 92
11, 48720, Note_on_c, 12, 38, 0
11, 51264, Note_on_c, 12, 43, 92
11, 51358, Note_on_c, 12, 43, 0
11, 51360, Note_on_c, 12, 43, 92
11, 51454, Note_on_c, 12, 43, 0
11, 51456, Note_on_c, 12, 38, 92
11, 51550, Note_on_c, 12, 38, 0
11, 51552, Note_on_c, 12, 38, 92
11, 51646, Note_on_c, 12, 38, 0
11, 51648, Note_on_c, 12, 35, 92
11, 51742, Note_on_c, 12, 35, 0
11, 51744, Note_on_c, 12, 35, 92
11, 51838, Note_on_c, 12, 35, 0
11, 51840, Note_on_c, 12, 36, 92
11, 51934, Note_on_c, 12, 36, 0
11, 51936, Note_on_c, 12, 36, 92
11, 52030, Note_on_c, 12, 36, 0
11, 52032, Note_on_c, 12, 36, 92
11, 52126, Note_on_c, 12, 36, 0
11, 52128, Note_on_c, 12, 36, 92
11, 52222, Note_on_c, 12, 36, 0
11, 52224, Note_on_c, 12, 36, 92
11, 52318, Note_on_c, 12, 36, 0
11, 52320, Note_on_c, 12, 36, 92
11, 52414, Note_on_c, 12, 36, 0
11, 52416, Note_on_c, 12, 38, 92
11, 52510, Note_on_c, 12, 38, 0
11, 52512, Note_on_c, 12, 38, 92
11, 52606, Note_on_c, 12, 38, 0
11, 52608, Note_on_c, 12, 38, 92
11, 52702, Note_on_c, 12, 38, 0
11, 52704, Note_on_c, 12, 38, 92
11, 52798, Note_on_c, 12, 38, 0
11, 52800, Note_on_c, 12, 38, 92
11, 52894, Note_on_c, 12, 38, 0
11, 52896, Note_on_c, 12, 38, 92
11, 52990, Note_on_c, 12, 38, 0
11, 52992, Note_on_c, 12, 40, 45
11, 53184, Note_on_c, 12, 40, 0
11, 53184, Note_on_c, 12, 36, 45
11, 53376, Note_on_c, 12, 36, 0
11, 53376, Note_on_c, 12, 38, 45
11, 53536, Note_on_c, 12, 38, 0
11, 53568, Note_on_c, 12, 43, 45
11, 53616, Note_on_c, 12, 43, 0
11, 53616, Note_on_c, 12, 42, 45
11, 53664, Note_on_c, 12, 42, 0
11, 53664, Note_on_c, 12, 43, 45
11, 53712, Note_on_c, 12, 43, 0
11, 53712, Note_on_c, 12, 42, 45
11, 53758, Note_on_c, 12, 42, 0
11, 53760, Note_on_c, 12, 43, 45
11, 54016, Note_on_c, 12, 43, 0
11, 54016, End_track
0, 0, End_of_file