0, 0, Header, 1, 12, 120
1, 0, Start_track
1, 0, Title_t, "\203\202\201[\203c\203A\203\213\203g\203s\203A\203m\213\246\221t\213\310\221\346\202Q\202U\224\324\221\346\202Q\212y\217\315"
1, 0, Copyright_t, "Copyright(C)2001 Shin"
1, 0, Text_t, "Shin\012"
1, 0, System_exclusive, 05, 7E, 7F, 09, 01, F7
1, 0, Time_signature, 4, 2, 24, 8
1, 0, Key_signature, 0, "major"
1, 0, Tempo, 857143
1, 480, Key_signature, 3, "major"
1, 12960, Tempo, 1200000
1, 13080, Tempo, 1000000
1, 13200, Tempo, 857143
1, 33840, Tempo, 666667
1, 34320, Tempo, 857143
1, 34800, Tempo, 666667
1, 35520, Tempo, 600000
1, 36000, Tempo, 500000
1, 36480, Tempo, 857143
1, 40320, Key_signature, 0, "major"
1, 45120, Tempo, 1200000
1, 45240, Tempo, 1000000
1, 45360, Tempo, 857143
1, 45600, Tempo, 857143
1, 45600, End_track
2, 0, Start_track
2, 0, Title_t, "Piano.R"
2, 120, Control_c, 0, 0, 0
2, 120, Control_c, 0, 91, 127
2, 121, Control_c, 0, 32, 0
2, 122, Program_c, 0, 0
2, 123, Control_c, 0, 7, 120
2, 480, Control_c, 0, 91, 127
2, 480, Note_on_c, 0, 76, 39
2, 600, Note_on_c, 0, 76, 0
2, 600, Note_on_c, 0, 76, 39
2, 720, Note_on_c, 0, 76, 0
2, 720, Note_on_c, 0, 76, 46
2, 840, Note_on_c, 0, 76, 0
2, 840, Note_on_c, 0, 76, 46
2, 960, Note_on_c, 0, 76, 0
2, 960, Note_on_c, 0, 76, 41
2, 1020, Note_on_c, 0, 76, 0
2, 1020, Note_on_c, 0, 81, 41
2, 1080, Note_on_c, 0, 81, 0
2, 1080, Note_on_c, 0, 73, 41
2, 1108, Note_on_c, 0, 73, 0
2, 1140, Note_on_c, 0, 74, 41
2, 1168, Note_on_c, 0, 74, 0
2, 1200, Note_on_c, 0, 76, 41
2, 1320, Note_on_c, 0, 76, 0
2, 1440, Note_on_c, 0, 76, 41
2, 1500, Note_on_c, 0, 76, 0
2, 1500, Note_on_c, 0, 81, 41
2, 1560, Note_on_c, 0, 81, 0
2, 1560, Note_on_c, 0, 73, 41
2, 1588, Note_on_c, 0, 73, 0
2, 1620, Note_on_c, 0, 74, 41
2, 1648, Note_on_c, 0, 74, 0
2, 1680, Note_on_c, 0, 76, 41
2, 1740, Note_on_c, 0, 76, 0
2, 1740, Note_on_c, 0, 81, 41
2, 1800, Note_on_c, 0, 81, 0
2, 1800, Note_on_c, 0, 69, 35
2, 1828, Note_on_c, 0, 69, 0
2, 1860, Note_on_c, 0, 71, 37
2, 1888, Note_on_c, 0, 71, 0
2, 1920, Note_on_c, 0, 73, 40
2, 1980, Note_on_c, 0, 73, 0
2, 1980, Note_on_c, 0, 69, 41
2, 2040, Note_on_c, 0, 69, 0
2, 2040, Note_on_c, 0, 76, 41
2, 2100, Note_on_c, 0, 76, 0
2, 2100, Note_on_c, 0, 74, 41
2, 2160, Note_on_c, 0, 74, 0
2, 2160, Note_on_c, 0, 73, 41
2, 2250, Note_on_c, 0, 73, 0
2, 2250, Note_on_c, 0, 74, 38
2, 2265, Note_on_c, 0, 74, 0
2, 2265, Note_on_c, 0, 73, 37
2, 2280, Note_on_c, 0, 73, 0
2, 2280, Note_on_c, 0, 71, 37
2, 2400, Note_on_c, 0, 71, 0
2, 2400, Note_on_c, 0, 76, 39
2, 2520, Note_on_c, 0, 76, 0
2, 2520, Note_on_c, 0, 76, 39
2, 2640, Note_on_c, 0, 76, 0
2, 2640, Note_on_c, 0, 76, 44
2, 2760, Note_on_c, 0, 76, 0
2, 2760, Note_on_c, 0, 76, 44
2, 2880, Note_on_c, 0, 76, 0
2, 2880, Note_on_c, 0, 76, 40
2, 2940, Note_on_c, 0, 76, 0
2, 2940, Note_on_c, 0, 81, 40
2, 3000, Note_on_c, 0, 81, 0
2, 3000, Note_on_c, 0, 73, 40
2, 3028, Note_on_c, 0, 73, 0
2, 3060, Note_on_c, 0, 74, 40
2, 3088, Note_on_c, 0, 74, 0
2, 3120, Note_on_c, 0, 76, 40
2, 3240, Note_on_c, 0, 76, 0
2, 3360, Note_on_c, 0, 76, 40
2, 3420, Note_on_c, 0, 76, 0
2, 3420, Note_on_c, 0, 81, 40
2, 3480, Note_on_c, 0, 81, 0
2, 3480, Note_on_c, 0, 73, 40
2, 3508, Note_on_c, 0, 73, 0
2, 3540, Note_on_c, 0, 74, 40
2, 3568, Note_on_c, 0, 74, 0
2, 3600, Note_on_c, 0, 76, 40
2, 3660, Note_on_c, 0, 76, 0
2, 3660, Note_on_c, 0, 81, 40
2, 3720, Note_on_c, 0, 81, 0
2, 3720, Note_on_c, 0, 69, 37
2, 3748, Note_on_c, 0, 69, 0
2, 3780, Note_on_c, 0, 71, 40
2, 3808, Note_on_c, 0, 71, 0
2, 3840, Note_on_c, 0, 73, 42
2, 3930, Note_on_c, 0, 73, 0
2, 3960, Note_on_c, 0, 71, 33
2, 3970, Note_on_c, 0, 73, 33
2, 3975, Note_on_c, 0, 71, 0
2, 3980, Note_on_c, 0, 71, 33
2, 3985, Note_on_c, 0, 73, 0
2, 3990, Note_on_c, 0, 73, 33
2, 3995, Note_on_c, 0, 71, 0
2, 4000, Note_on_c, 0, 71, 33
2, 4005, Note_on_c, 0, 73, 0
2, 4010, Note_on_c, 0, 73, 33
2, 4015, Note_on_c, 0, 71, 0
2, 4020, Note_on_c, 0, 71, 33
2, 4025, Note_on_c, 0, 73, 0
2, 4030, Note_on_c, 0, 73, 33
2, 4035, Note_on_c, 0, 71, 0
2, 4040, Note_on_c, 0, 71, 33
2, 4045, Note_on_c, 0, 73, 0
2, 4050, Note_on_c, 0, 69, 33
2, 4055, Note_on_c, 0, 71, 0
2, 4065, Note_on_c, 0, 69, 0
2, 4065, Note_on_c, 0, 71, 33
2, 4080, Note_on_c, 0, 71, 0
2, 4080, Note_on_c, 0, 69, 41
2, 4210, Note_on_c, 0, 69, 0
2, 8160, Note_on_c, 0, 71, 39
2, 8310, Note_on_c, 0, 71, 0
2, 8340, Note_on_c, 0, 71, 43
2, 8400, Note_on_c, 0, 71, 0
2, 8400, Note_on_c, 0, 73, 44
2, 8520, Note_on_c, 0, 73, 0
2, 8520, Note_on_c, 0, 74, 47
2, 8640, Note_on_c, 0, 74, 0
2, 8640, Note_on_c, 0, 76, 49
2, 8700, Note_on_c, 0, 76, 0
2, 8700, Note_on_c, 0, 78, 50
2, 8730, Note_on_c, 0, 78, 0
2, 8730, Note_on_c, 0, 80, 51
2, 8760, Note_on_c, 0, 80, 0
2, 8760, Note_on_c, 0, 81, 52
2, 8790, Note_on_c, 0, 81, 0
2, 8790, Note_on_c, 0, 83, 52
2, 8820, Note_on_c, 0, 83, 0
2, 8820, Note_on_c, 0, 85, 53
2, 8850, Note_on_c, 0, 85, 0
2, 8850, Note_on_c, 0, 86, 54
2, 8880, Note_on_c, 0, 86, 0
2, 8880, Note_on_c, 0, 88, 54
2, 9000, Note_on_c, 0, 88, 0
2, 9120, Note_on_c, 0, 81, 45
2, 9180, Note_on_c, 0, 81, 0
2, 9180, Note_on_c, 0, 80, 49
2, 9240, Note_on_c, 0, 80, 0
2, 9240, Note_on_c, 0, 78, 54
2, 9300, Note_on_c, 0, 78, 0
2, 9300, Note_on_c, 0, 76, 59
2, 9360, Note_on_c, 0, 76, 0
2, 9360, Note_on_c, 0, 75, 64
2, 9420, Note_on_c, 0, 75, 0
2, 9420, Note_on_c, 0, 74, 62
2, 9480, Note_on_c, 0, 74, 0
2, 9480, Note_on_c, 0, 73, 58
2, 9540, Note_on_c, 0, 73, 0
2, 9540, Note_on_c, 0, 76, 54
2, 9600, Note_on_c, 0, 76, 0
2, 9600, Note_on_c, 0, 74, 50
2, 9720, Note_on_c, 0, 74, 0
2, 9720, Note_on_c, 0, 73, 38
2, 9730, Note_on_c, 0, 74, 38
2, 9733, Note_on_c, 0, 73, 0
2, 9740, Note_on_c, 0, 73, 38
2, 9744, Note_on_c, 0, 74, 0
2, 9750, Note_on_c, 0, 74, 38
2, 9754, Note_on_c, 0, 73, 0
2, 9760, Note_on_c, 0, 73, 38
2, 9763, Note_on_c, 0, 74, 0
2, 9770, Note_on_c, 0, 74, 38
2, 9774, Note_on_c, 0, 73, 0
2, 9780, Note_on_c, 0, 73, 38
2, 9784, Note_on_c, 0, 74, 0
2, 9790, Note_on_c, 0, 74, 38
2, 9794, Note_on_c, 0, 73, 0
2, 9800, Note_on_c, 0, 73, 38
2, 9804, Note_on_c, 0, 74, 0
2, 9812, Note_on_c, 0, 71, 38
2, 9813, Note_on_c, 0, 73, 0
2, 9826, Note_on_c, 0, 71, 0
2, 9826, Note_on_c, 0, 73, 38
2, 9840, Note_on_c, 0, 73, 0
2, 9840, Note_on_c, 0, 71, 38
2, 9950, Note_on_c, 0, 71, 0
2, 10080, Note_on_c, 0, 71, 40
2, 10230, Note_on_c, 0, 71, 0
2, 10260, Note_on_c, 0, 71, 44
2, 10320, Note_on_c, 0, 71, 0
2, 10320, Note_on_c, 0, 73, 45
2, 10440, Note_on_c, 0, 73, 0
2, 10440, Note_on_c, 0, 74, 48
2, 10560, Note_on_c, 0, 74, 0
2, 10560, Note_on_c, 0, 78, 51
2, 10575, Note_on_c, 0, 78, 0
2, 10590, Note_on_c, 0, 76, 49
2, 10605, Note_on_c, 0, 76, 0
2, 10620, Note_on_c, 0, 74, 46
2, 10635, Note_on_c, 0, 74, 0
2, 10650, Note_on_c, 0, 73, 44
2, 10665, Note_on_c, 0, 73, 0
2, 10680, Note_on_c, 0, 74, 41
2, 10695, Note_on_c, 0, 74, 0
2, 10710, Note_on_c, 0, 76, 41
2, 10725, Note_on_c, 0, 76, 0
2, 10740, Note_on_c, 0, 78, 43
2, 10755, Note_on_c, 0, 78, 0
2, 10770, Note_on_c, 0, 80, 45
2, 10785, Note_on_c, 0, 80, 0
2, 10800, Note_on_c, 0, 81, 47
2, 10815, Note_on_c, 0, 81, 0
2, 10830, Note_on_c, 0, 83, 50
2, 10845, Note_on_c, 0, 83, 0
2, 10860, Note_on_c, 0, 85, 52
2, 10875, Note_on_c, 0, 85, 0
2, 10890, Note_on_c, 0, 86, 54
2, 10905, Note_on_c, 0, 86, 0
2, 10920, Note_on_c, 0, 88, 56
2, 10980, Note_on_c, 0, 88, 0
2, 11040, Note_on_c, 0, 81, 65
2, 11100, Note_on_c, 0, 81, 0
2, 11100, Note_on_c, 0, 83, 63
2, 11130, Note_on_c, 0, 83, 0
2, 11130, Note_on_c, 0, 85, 61
2, 11160, Note_on_c, 0, 85, 0
2, 11160, Note_on_c, 0, 83, 59
2, 11190, Note_on_c, 0, 83, 0
2, 11190, Note_on_c, 0, 81, 58
2, 11220, Note_on_c, 0, 81, 0
2, 11220, Note_on_c, 0, 80, 56
2, 11250, Note_on_c, 0, 80, 0
2, 11250, Note_on_c, 0, 78, 54
2, 11280, Note_on_c, 0, 78, 0
2, 11280, Note_on_c, 0, 76, 53
2, 11310, Note_on_c, 0, 76, 0
2, 11310, Note_on_c, 0, 75, 51
2, 11340, Note_on_c, 0, 75, 0
2, 11340, Note_on_c, 0, 81, 50
2, 11370, Note_on_c, 0, 81, 0
2, 11370, Note_on_c, 0, 80, 48
2, 11400, Note_on_c, 0, 80, 0
2, 11400, Note_on_c, 0, 83, 46
2, 11430, Note_on_c, 0, 83, 0
2, 11430, Note_on_c, 0, 81, 45
2, 11460, Note_on_c, 0, 81, 0
2, 11460, Note_on_c, 0, 78, 43
2, 11490, Note_on_c, 0, 78, 0
2, 11490, Note_on_c, 0, 75, 41
2, 11520, Note_on_c, 0, 75, 0
2, 11520, Note_on_c, 0, 76, 40
2, 11550, Note_on_c, 0, 76, 0
2, 11550, Note_on_c, 0, 71, 31
2, 11564, Note_on_c, 0, 71, 0
2, 11580, Note_on_c, 0, 73, 34
2, 11594, Note_on_c, 0, 73, 0
2, 11610, Note_on_c, 0, 75, 38
2, 11624, Note_on_c, 0, 75, 0
2, 11640, Note_on_c, 0, 76, 41
2, 11654, Note_on_c, 0, 76, 0
2, 11670, Note_on_c, 0, 78, 45
2, 11684, Note_on_c, 0, 78, 0
2, 11700, Note_on_c, 0, 80, 48
2, 11714, Note_on_c, 0, 80, 0
2, 11730, Note_on_c, 0, 81, 52
2, 11744, Note_on_c, 0, 81, 0
2, 11760, Note_on_c, 0, 85, 55
2, 11790, Note_on_c, 0, 85, 0
2, 11790, Note_on_c, 0, 83, 56
2, 11820, Note_on_c, 0, 83, 0
2, 11820, Note_on_c, 0, 81, 53
2, 11834, Note_on_c, 0, 81, 0
2, 11850, Note_on_c, 0, 80, 50
2, 11864, Note_on_c, 0, 80, 0
2, 11880, Note_on_c, 0, 78, 47
2, 11910, Note_on_c, 0, 78, 0
2, 11910, Note_on_c, 0, 80, 45
2, 11920, Note_on_c, 0, 78, 44
2, 11925, Note_on_c, 0, 80, 0
2, 11930, Note_on_c, 0, 76, 43
2, 11935, Note_on_c, 0, 78, 0
2, 11940, Note_on_c, 0, 78, 42
2, 11945, Note_on_c, 0, 76, 0
2, 11963, Note_on_c, 0, 78, 0
2, 11970, Note_on_c, 0, 80, 39
2, 11984, Note_on_c, 0, 80, 0
2, 12000, Note_on_c, 0, 76, 36
2, 12014, Note_on_c, 0, 76, 0
2, 12030, Note_on_c, 0, 71, 33
2, 12044, Note_on_c, 0, 71, 0
2, 12060, Note_on_c, 0, 73, 34
2, 12074, Note_on_c, 0, 73, 0
2, 12090, Note_on_c, 0, 75, 37
2, 12104, Note_on_c, 0, 75, 0
2, 12120, Note_on_c, 0, 76, 41
2, 12134, Note_on_c, 0, 76, 0
2, 12150, Note_on_c, 0, 78, 44
2, 12164, Note_on_c, 0, 78, 0
2, 12180, Note_on_c, 0, 80, 48
2, 12194, Note_on_c, 0, 80, 0
2, 12210, Note_on_c, 0, 81, 51
2, 12224, Note_on_c, 0, 81, 0
2, 12240, Note_on_c, 0, 85, 55
2, 12270, Note_on_c, 0, 85, 0
2, 12270, Note_on_c, 0, 83, 54
2, 12300, Note_on_c, 0, 83, 0
2, 12300, Note_on_c, 0, 81, 51
2, 12314, Note_on_c, 0, 81, 0
2, 12330, Note_on_c, 0, 80, 48
2, 12344, Note_on_c, 0, 80, 0
2, 12360, Note_on_c, 0, 78, 45
2, 12390, Note_on_c, 0, 78, 0
2, 12390, Note_on_c, 0, 80, 43
2, 12400, Note_on_c, 0, 78, 42
2, 12405, Note_on_c, 0, 80, 0
2, 12410, Note_on_c, 0, 76, 41
2, 12415, Note_on_c, 0, 78, 0
2, 12420, Note_on_c, 0, 78, 40
2, 12425, Note_on_c, 0, 76, 0
2, 12443, Note_on_c, 0, 78, 0
2, 12450, Note_on_c, 0, 80, 37
2, 12464, Note_on_c, 0, 80, 0
2, 12480, Note_on_c, 0, 76, 34
2, 12494, Note_on_c, 0, 76, 0
2, 12510, Note_on_c, 0, 78, 32
2, 12520, Note_on_c, 0, 76, 33
2, 12525, Note_on_c, 0, 78, 0
2, 12530, Note_on_c, 0, 75, 33
2, 12535, Note_on_c, 0, 76, 0
2, 12540, Note_on_c, 0, 76, 34
2, 12545, Note_on_c, 0, 75, 0
2, 12570, Note_on_c, 0, 76, 0
2, 12570, Note_on_c, 0, 78, 35
2, 12600, Note_on_c, 0, 78, 0
2, 12600, Note_on_c, 0, 80, 37
2, 12614, Note_on_c, 0, 80, 0
2, 12630, Note_on_c, 0, 81, 38
2, 12640, Note_on_c, 0, 80, 39
2, 12645, Note_on_c, 0, 81, 0
2, 12650, Note_on_c, 0, 78, 39
2, 12655, Note_on_c, 0, 80, 0
2, 12660, Note_on_c, 0, 80, 39
2, 12665, Note_on_c, 0, 78, 0
2, 12690, Note_on_c, 0, 80, 0
2, 12690, Note_on_c, 0, 81, 41
2, 12720, Note_on_c, 0, 81, 0
2, 12720, Note_on_c, 0, 83, 42
2, 12734, Note_on_c, 0, 83, 0
2, 12750, Note_on_c, 0, 85, 44
2, 12760, Note_on_c, 0, 83, 44
2, 12765, Note_on_c, 0, 85, 0
2, 12770, Note_on_c, 0, 81, 45
2, 12775, Note_on_c, 0, 83, 0
2, 12780, Note_on_c, 0, 83, 45
2, 12785, Note_on_c, 0, 81, 0
2, 12810, Note_on_c, 0, 83, 0
2, 12810, Note_on_c, 0, 85, 47
2, 12840, Note_on_c, 0, 85, 0
2, 12840, Note_on_c, 0, 86, 48
2, 12900, Note_on_c, 0, 86, 0
2, 12900, Note_on_c, 0, 85, 51
2, 12960, Note_on_c, 0, 85, 0
2, 12960, Note_on_c, 0, 88, 54
2, 13020, Note_on_c, 0, 88, 0
2, 13020, Note_on_c, 0, 86, 56
2, 13080, Note_on_c, 0, 86, 0
2, 13080, Note_on_c, 0, 85, 54
2, 13140, Note_on_c, 0, 85, 0
2, 13140, Note_on_c, 0, 83, 52
2, 13200, Note_on_c, 0, 83, 0
2, 13200, Note_on_c, 0, 81, 50
2, 13230, Note_on_c, 0, 81, 0
2, 13230, Note_on_c, 0, 80, 49
2, 13260, Note_on_c, 0, 80, 0
2, 13260, Note_on_c, 0, 83, 48
2, 13290, Note_on_c, 0, 83, 0
2, 13290, Note_on_c, 0, 81, 47
2, 13320, Note_on_c, 0, 81, 0
2, 13320, Note_on_c, 0, 80, 46
2, 13350, Note_on_c, 0, 80, 0
2, 13350, Note_on_c, 0, 83, 45
2, 13380, Note_on_c, 0, 83, 0
2, 13380, Note_on_c, 0, 81, 44
2, 13410, Note_on_c, 0, 81, 0
2, 13410, Note_on_c, 0, 78, 43
2, 13440, Note_on_c, 0, 78, 0
2, 13440, Note_on_c, 0, 76, 42
2, 13560, Note_on_c, 0, 76, 0
2, 13560, Note_on_c, 0, 76, 41
2, 13680, Note_on_c, 0, 76, 0
2, 13680, Note_on_c, 0, 76, 41
2, 13800, Note_on_c, 0, 76, 0
2, 13800, Note_on_c, 0, 76, 41
2, 13920, Note_on_c, 0, 76, 0
2, 13920, Note_on_c, 0, 76, 42
2, 13980, Note_on_c, 0, 76, 0
2, 13980, Note_on_c, 0, 81, 42
2, 14040, Note_on_c, 0, 81, 0
2, 14040, Note_on_c, 0, 73, 42
2, 14068, Note_on_c, 0, 73, 0
2, 14100, Note_on_c, 0, 74, 42
2, 14128, Note_on_c, 0, 74, 0
2, 14160, Note_on_c, 0, 76, 42
2, 14280, Note_on_c, 0, 76, 0
2, 14400, Note_on_c, 0, 76, 43
2, 14460, Note_on_c, 0, 76, 0
2, 14460, Note_on_c, 0, 81, 43
2, 14520, Note_on_c, 0, 81, 0
2, 14520, Note_on_c, 0, 73, 43
2, 14548, Note_on_c, 0, 73, 0
2, 14580, Note_on_c, 0, 74, 43
2, 14608, Note_on_c, 0, 74, 0
2, 14640, Note_on_c, 0, 76, 43
2, 14700, Note_on_c, 0, 76, 0
2, 14700, Note_on_c, 0, 81, 43
2, 14760, Note_on_c, 0, 81, 0
2, 14760, Note_on_c, 0, 69, 35
2, 14788, Note_on_c, 0, 69, 0
2, 14820, Note_on_c, 0, 71, 36
2, 14848, Note_on_c, 0, 71, 0
2, 14880, Note_on_c, 0, 73, 38
2, 14940, Note_on_c, 0, 73, 0
2, 14940, Note_on_c, 0, 69, 39
2, 15000, Note_on_c, 0, 69, 0
2, 15000, Note_on_c, 0, 76, 41
2, 15060, Note_on_c, 0, 76, 0
2, 15060, Note_on_c, 0, 74, 43
2, 15120, Note_on_c, 0, 74, 0
2, 15120, Note_on_c, 0, 73, 44
2, 15210, Note_on_c, 0, 73, 0
2, 15210, Note_on_c, 0, 74, 41
2, 15225, Note_on_c, 0, 74, 0
2, 15225, Note_on_c, 0, 73, 40
2, 15240, Note_on_c, 0, 73, 0
2, 15240, Note_on_c, 0, 71, 39
2, 15360, Note_on_c, 0, 71, 0
2, 15360, Note_on_c, 0, 76, 39
2, 15480, Note_on_c, 0, 76, 0
2, 15480, Note_on_c, 0, 76, 39
2, 15600, Note_on_c, 0, 76, 0
2, 15600, Note_on_c, 0, 76, 39
2, 15720, Note_on_c, 0, 76, 0
2, 15720, Note_on_c, 0, 76, 39
2, 15840, Note_on_c, 0, 76, 0
2, 15840, Note_on_c, 0, 76, 39
2, 15900, Note_on_c, 0, 76, 0
2, 15900, Note_on_c, 0, 81, 39
2, 15960, Note_on_c, 0, 81, 0
2, 15960, Note_on_c, 0, 73, 39
2, 15988, Note_on_c, 0, 73, 0
2, 16020, Note_on_c, 0, 74, 40
2, 16048, Note_on_c, 0, 74, 0
2, 16080, Note_on_c, 0, 76, 40
2, 16200, Note_on_c, 0, 76, 0
2, 16320, Note_on_c, 0, 76, 40
2, 16380, Note_on_c, 0, 76, 0
2, 16380, Note_on_c, 0, 81, 40
2, 16440, Note_on_c, 0, 81, 0
2, 16440, Note_on_c, 0, 73, 40
2, 16468, Note_on_c, 0, 73, 0
2, 16500, Note_on_c, 0, 74, 40
2, 16528, Note_on_c, 0, 74, 0
2, 16560, Note_on_c, 0, 76, 40
2, 16620, Note_on_c, 0, 76, 0
2, 16620, Note_on_c, 0, 81, 40
2, 16680, Note_on_c, 0, 81, 0
2, 16680, Note_on_c, 0, 69, 35
2, 16708, Note_on_c, 0, 69, 0
2, 16740, Note_on_c, 0, 71, 38
2, 16768, Note_on_c, 0, 71, 0
2, 16800, Note_on_c, 0, 73, 41
2, 16890, Note_on_c, 0, 73, 0
2, 16920, Note_on_c, 0, 71, 37
2, 16930, Note_on_c, 0, 73, 37
2, 16935, Note_on_c, 0, 71, 0
2, 16940, Note_on_c, 0, 71, 37
2, 16945, Note_on_c, 0, 73, 0
2, 16950, Note_on_c, 0, 73, 37
2, 16955, Note_on_c, 0, 71, 0
2, 16960, Note_on_c, 0, 71, 37
2, 16965, Note_on_c, 0, 73, 0
2, 16970, Note_on_c, 0, 73, 37
2, 16975, Note_on_c, 0, 71, 0
2, 16980, Note_on_c, 0, 71, 37
2, 16985, Note_on_c, 0, 73, 0
2, 16990, Note_on_c, 0, 73, 37
2, 16995, Note_on_c, 0, 71, 0
2, 17000, Note_on_c, 0, 71, 37
2, 17005, Note_on_c, 0, 73, 0
2, 17010, Note_on_c, 0, 69, 37
2, 17015, Note_on_c, 0, 71, 0
2, 17025, Note_on_c, 0, 69, 0
2, 17025, Note_on_c, 0, 71, 37
2, 17040, Note_on_c, 0, 71, 0
2, 17040, Note_on_c, 0, 69, 37
2, 17170, Note_on_c, 0, 69, 0
2, 21096, Note_on_c, 0, 64, 32
2, 21104, Note_on_c, 0, 69, 34
2, 21112, Note_on_c, 0, 73, 37
2, 21120, Note_on_c, 0, 76, 41
2, 21180, Note_on_c, 0, 73, 0
2, 21180, Note_on_c, 0, 64, 0
2, 21180, Note_on_c, 0, 69, 0
2, 21480, Note_on_c, 0, 76, 0
2, 21480, Note_on_c, 0, 74, 42
2, 21540, Note_on_c, 0, 74, 0
2, 21540, Note_on_c, 0, 73, 42
2, 21600, Note_on_c, 0, 73, 0
2, 21600, Note_on_c, 0, 73, 42
2, 21660, Note_on_c, 0, 73, 0
2, 21660, Note_on_c, 0, 71, 38
2, 21720, Note_on_c, 0, 71, 0
2, 21720, Note_on_c, 0, 69, 33
2, 21840, Note_on_c, 0, 69, 0
2, 21900, Note_on_c, 0, 76, 40
2, 21960, Note_on_c, 0, 76, 0
2, 21960, Note_on_c, 0, 74, 39
2, 22020, Note_on_c, 0, 74, 0
2, 22020, Note_on_c, 0, 73, 39
2, 22080, Note_on_c, 0, 73, 0
2, 22080, Note_on_c, 0, 73, 39
2, 22140, Note_on_c, 0, 73, 0
2, 22140, Note_on_c, 0, 71, 37
2, 22200, Note_on_c, 0, 71, 0
2, 22200, Note_on_c, 0, 69, 32
2, 22320, Note_on_c, 0, 69, 0
2, 22380, Note_on_c, 0, 69, 34
2, 22440, Note_on_c, 0, 69, 0
2, 22440, Note_on_c, 0, 73, 36
2, 22500, Note_on_c, 0, 73, 0
2, 22500, Note_on_c, 0, 76, 38
2, 22560, Note_on_c, 0, 76, 0
2, 22560, Note_on_c, 0, 76, 40
2, 22620, Note_on_c, 0, 76, 0
2, 22620, Note_on_c, 0, 74, 39
2, 22680, Note_on_c, 0, 74, 0
2, 22680, Note_on_c, 0, 73, 37
2, 22740, Note_on_c, 0, 73, 0
2, 22740, Note_on_c, 0, 71, 34
2, 22800, Note_on_c, 0, 71, 0
2, 22800, Note_on_c, 0, 73, 38
2, 22830, Note_on_c, 0, 73, 0
2, 22920, Note_on_c, 0, 76, 39
2, 22950, Note_on_c, 0, 76, 0
2, 22950, Note_on_c, 0, 74, 39
2, 22980, Note_on_c, 0, 74, 0
2, 23040, Note_on_c, 0, 73, 38
2, 23220, Note_on_c, 0, 73, 0
2, 23220, Note_on_c, 0, 74, 35
2, 23250, Note_on_c, 0, 74, 0
2, 23250, Note_on_c, 0, 73, 34
2, 23280, Note_on_c, 0, 73, 0
2, 23280, Note_on_c, 0, 71, 34
2, 23310, Note_on_c, 0, 71, 0
2, 23340, Note_on_c, 0, 73, 33
2, 23400, Note_on_c, 0, 73, 0
2, 23400, Note_on_c, 0, 74, 36
2, 23460, Note_on_c, 0, 74, 0
2, 23460, Note_on_c, 0, 75, 38
2, 23520, Note_on_c, 0, 75, 0
2, 23520, Note_on_c, 0, 76, 40
2, 23880, Note_on_c, 0, 76, 0
2, 23880, Note_on_c, 0, 74, 39
2, 23940, Note_on_c, 0, 74, 0
2, 23940, Note_on_c, 0, 73, 39
2, 24000, Note_on_c, 0, 73, 0
2, 24000, Note_on_c, 0, 73, 39
2, 24060, Note_on_c, 0, 73, 0
2, 24060, Note_on_c, 0, 71, 36
2, 24120, Note_on_c, 0, 71, 0
2, 24120, Note_on_c, 0, 69, 33
2, 24240, Note_on_c, 0, 69, 0
2, 24270, Note_on_c, 0, 76, 35
2, 24300, Note_on_c, 0, 76, 0
2, 24300, Note_on_c, 0, 75, 35
2, 24330, Note_on_c, 0, 75, 0
2, 24330, Note_on_c, 0, 76, 36
2, 24360, Note_on_c, 0, 76, 0
2, 24360, Note_on_c, 0, 78, 36
2, 24390, Note_on_c, 0, 78, 0
2, 24390, Note_on_c, 0, 76, 37
2, 24420, Note_on_c, 0, 76, 0
2, 24420, Note_on_c, 0, 74, 37
2, 24450, Note_on_c, 0, 74, 0
2, 24450, Note_on_c, 0, 73, 38
2, 24480, Note_on_c, 0, 73, 0
2, 24480, Note_on_c, 0, 73, 38
2, 24540, Note_on_c, 0, 73, 0
2, 24540, Note_on_c, 0, 71, 37
2, 24600, Note_on_c, 0, 71, 0
2, 24600, Note_on_c, 0, 69, 34
2, 24720, Note_on_c, 0, 69, 0
2, 24760, Note_on_c, 0, 76, 39
2, 24800, Note_on_c, 0, 76, 0
2, 24800, Note_on_c, 0, 75, 42
2, 24840, Note_on_c, 0, 75, 0
2, 24840, Note_on_c, 0, 76, 45
2, 24880, Note_on_c, 0, 76, 0
2, 24880, Note_on_c, 0, 81, 49
2, 24920, Note_on_c, 0, 81, 0
2, 24920, Note_on_c, 0, 85, 52
2, 24960, Note_on_c, 0, 85, 0
2, 24960, Note_on_c, 0, 83, 55
2, 25020, Note_on_c, 0, 83, 0
2, 25050, Note_on_c, 0, 80, 53
2, 25080, Note_on_c, 0, 80, 0
2, 25080, Note_on_c, 0, 78, 51
2, 25140, Note_on_c, 0, 78, 0
2, 25170, Note_on_c, 0, 81, 47
2, 25200, Note_on_c, 0, 81, 0
2, 25200, Note_on_c, 0, 76, 45
2, 25260, Note_on_c, 0, 76, 0
2, 25320, Note_on_c, 0, 75, 43
2, 25380, Note_on_c, 0, 75, 0
2, 25440, Note_on_c, 0, 78, 41
2, 25680, Note_on_c, 0, 78, 0
2, 25680, Note_on_c, 0, 76, 41
2, 25800, Note_on_c, 0, 76, 0
2, 25920, Note_on_c, 0, 76, 50
2, 26220, Note_on_c, 0, 76, 0
2, 26220, Note_on_c, 0, 79, 53
2, 26280, Note_on_c, 0, 79, 0
2, 26280, Note_on_c, 0, 78, 50
2, 26310, Note_on_c, 0, 78, 0
2, 26310, Note_on_c, 0, 76, 49
2, 26340, Note_on_c, 0, 76, 0
2, 26340, Note_on_c, 0, 74, 47
2, 26370, Note_on_c, 0, 74, 0
2, 26370, Note_on_c, 0, 73, 46
2, 26400, Note_on_c, 0, 73, 0
2, 26400, Note_on_c, 0, 71, 44
2, 26460, Note_on_c, 0, 71, 0
2, 26460, Note_on_c, 0, 70, 41
2, 26520, Note_on_c, 0, 70, 0
2, 26520, Note_on_c, 0, 85, 56
2, 26580, Note_on_c, 0, 79, 40
2, 26640, Note_on_c, 0, 79, 0
2, 26640, Note_on_c, 0, 85, 0
2, 26640, Note_on_c, 0, 85, 56
2, 26700, Note_on_c, 0, 78, 42
2, 26760, Note_on_c, 0, 78, 0
2, 26760, Note_on_c, 0, 85, 0
2, 26760, Note_on_c, 0, 85, 55
2, 26820, Note_on_c, 0, 76, 38
2, 26880, Note_on_c, 0, 76, 0
2, 26880, Note_on_c, 0, 85, 0
2, 26880, Note_on_c, 0, 76, 44
2, 27000, Note_on_c, 0, 76, 0
2, 27000, Note_on_c, 0, 74, 40
2, 27180, Note_on_c, 0, 74, 0
2, 27180, Note_on_c, 0, 77, 48
2, 27210, Note_on_c, 0, 77, 0
2, 27240, Note_on_c, 0, 76, 45
2, 27270, Note_on_c, 0, 76, 0
2, 27270, Note_on_c, 0, 74, 44
2, 27300, Note_on_c, 0, 74, 0
2, 27300, Note_on_c, 0, 72, 42
2, 27330, Note_on_c, 0, 72, 0
2, 27330, Note_on_c, 0, 71, 41
2, 27360, Note_on_c, 0, 71, 0
2, 27360, Note_on_c, 0, 69, 40
2, 27420, Note_on_c, 0, 69, 0
2, 27420, Note_on_c, 0, 68, 37
2, 27480, Note_on_c, 0, 68, 0
2, 27480, Note_on_c, 0, 83, 49
2, 27640, Note_on_c, 0, 83, 0
2, 27640, Note_on_c, 0, 81, 43
2, 27680, Note_on_c, 0, 81, 0
2, 27680, Note_on_c, 0, 80, 41
2, 27720, Note_on_c, 0, 80, 0
2, 27720, Note_on_c, 0, 77, 39
2, 27760, Note_on_c, 0, 77, 0
2, 27760, Note_on_c, 0, 76, 38
2, 27800, Note_on_c, 0, 76, 0
2, 27800, Note_on_c, 0, 74, 36
2, 27840, Note_on_c, 0, 74, 0
2, 27840, Note_on_c, 0, 72, 34
2, 27920, Note_on_c, 0, 72, 0
2, 27930, Note_on_c, 0, 74, 35
2, 27940, Note_on_c, 0, 74, 0
2, 27940, Note_on_c, 0, 72, 35
2, 27950, Note_on_c, 0, 72, 0
2, 27950, Note_on_c, 0, 71, 36
2, 27960, Note_on_c, 0, 71, 0
2, 27960, Note_on_c, 0, 72, 36
2, 28040, Note_on_c, 0, 72, 0
2, 28050, Note_on_c, 0, 74, 39
2, 28080, Note_on_c, 0, 74, 0
2, 28080, Note_on_c, 0, 76, 40
2, 28200, Note_on_c, 0, 76, 0
2, 28260, Note_on_c, 0, 76, 41
2, 28320, Note_on_c, 0, 76, 0
2, 28320, Note_on_c, 0, 74, 41
2, 28400, Note_on_c, 0, 74, 0
2, 28410, Note_on_c, 0, 76, 38
2, 28420, Note_on_c, 0, 76, 0
2, 28420, Note_on_c, 0, 74, 38
2, 28430, Note_on_c, 0, 74, 0
2, 28430, Note_on_c, 0, 73, 37
2, 28440, Note_on_c, 0, 73, 0
2, 28440, Note_on_c, 0, 74, 37
2, 28455, Note_on_c, 0, 74, 0
2, 28470, Note_on_c, 0, 73, 35
2, 28485, Note_on_c, 0, 73, 0
2, 28500, Note_on_c, 0, 74, 37
2, 28515, Note_on_c, 0, 74, 0
2, 28530, Note_on_c, 0, 76, 39
2, 28545, Note_on_c, 0, 76, 0
2, 28560, Note_on_c, 0, 77, 41
2, 28680, Note_on_c, 0, 77, 0
2, 28740, Note_on_c, 0, 81, 51
2, 28800, Note_on_c, 0, 81, 0
2, 28800, Note_on_c, 0, 79, 48
2, 28845, Note_on_c, 0, 79, 0
2, 28860, Note_on_c, 0, 76, 45
2, 28905, Note_on_c, 0, 76, 0
2, 28920, Note_on_c, 0, 72, 42
2, 29100, Note_on_c, 0, 72, 0
2, 29100, Note_on_c, 0, 74, 32
2, 29115, Note_on_c, 0, 74, 0
2, 29115, Note_on_c, 0, 72, 32
2, 29130, Note_on_c, 0, 72, 0
2, 29130, Note_on_c, 0, 71, 32
2, 29145, Note_on_c, 0, 71, 0
2, 29145, Note_on_c, 0, 72, 32
2, 29160, Note_on_c, 0, 72, 0
2, 29160, Note_on_c, 0, 76, 41
2, 29220, Note_on_c, 0, 76, 0
2, 29220, Note_on_c, 0, 74, 38
2, 29280, Note_on_c, 0, 74, 0
2, 29280, Note_on_c, 0, 72, 35
2, 29400, Note_on_c, 0, 72, 0
2, 29580, Note_on_c, 0, 72, 40
2, 29625, Note_on_c, 0, 72, 0
2, 29640, Note_on_c, 0, 76, 40
2, 29685, Note_on_c, 0, 76, 0
2, 29700, Note_on_c, 0, 79, 40
2, 29745, Note_on_c, 0, 79, 0
2, 29760, Note_on_c, 0, 78, 40
2, 29820, Note_on_c, 0, 79, 40
2, 29880, Note_on_c, 0, 79, 0
2, 29880, Note_on_c, 0, 78, 0
2, 29880, Note_on_c, 0, 74, 40
2, 29940, Note_on_c, 0, 79, 40
2, 30000, Note_on_c, 0, 79, 0
2, 30000, Note_on_c, 0, 74, 0
2, 30000, Note_on_c, 0, 78, 40
2, 30060, Note_on_c, 0, 79, 40
2, 30120, Note_on_c, 0, 79, 0
2, 30120, Note_on_c, 0, 78, 0
2, 30120, Note_on_c, 0, 74, 40
2, 30180, Note_on_c, 0, 79, 40
2, 30240, Note_on_c, 0, 79, 0
2, 30240, Note_on_c, 0, 74, 0
2, 30240, Note_on_c, 0, 77, 40
2, 30360, Note_on_c, 0, 77, 0
2, 30360, Note_on_c, 0, 76, 36
2, 30480, Note_on_c, 0, 76, 0
2, 30540, Note_on_c, 0, 72, 36
2, 30585, Note_on_c, 0, 72, 0
2, 30600, Note_on_c, 0, 76, 36
2, 30645, Note_on_c, 0, 76, 0
2, 30660, Note_on_c, 0, 79, 36
2, 30720, Note_on_c, 0, 79, 0
2, 30720, Note_on_c, 0, 78, 36
2, 30750, Note_on_c, 0, 78, 0
2, 30750, Note_on_c, 0, 79, 44
2, 30780, Note_on_c, 0, 79, 0
2, 30780, Note_on_c, 0, 89, 44
2, 30810, Note_on_c, 0, 89, 0
2, 30810, Note_on_c, 0, 88, 43
2, 30840, Note_on_c, 0, 88, 0
2, 30840, Note_on_c, 0, 88, 42
2, 30870, Note_on_c, 0, 88, 0
2, 30870, Note_on_c, 0, 86, 41
2, 30900, Note_on_c, 0, 86, 0
2, 30900, Note_on_c, 0, 86, 40
2, 30930, Note_on_c, 0, 86, 0
2, 30930, Note_on_c, 0, 84, 40
2, 30960, Note_on_c, 0, 84, 0
2, 30960, Note_on_c, 0, 84, 39
2, 30990, Note_on_c, 0, 84, 0
2, 30990, Note_on_c, 0, 83, 38
2, 31020, Note_on_c, 0, 83, 0
2, 31020, Note_on_c, 0, 83, 37
2, 31050, Note_on_c, 0, 83, 0
2, 31050, Note_on_c, 0, 81, 36
2, 31080, Note_on_c, 0, 81, 0
2, 31080, Note_on_c, 0, 81, 36
2, 31110, Note_on_c, 0, 81, 0
2, 31110, Note_on_c, 0, 79, 35
2, 31140, Note_on_c, 0, 79, 0
2, 31140, Note_on_c, 0, 79, 34
2, 31170, Note_on_c, 0, 79, 0
2, 31170, Note_on_c, 0, 77, 33
2, 31200, Note_on_c, 0, 77, 0
2, 31200, Note_on_c, 0, 75, 32
2, 31320, Note_on_c, 0, 75, 0
2, 31320, Note_on_c, 0, 76, 39
2, 31440, Note_on_c, 0, 76, 0
2, 31500, Note_on_c, 0, 69, 41
2, 31560, Note_on_c, 0, 69, 0
2, 31560, Note_on_c, 0, 72, 41
2, 31620, Note_on_c, 0, 72, 0
2, 31620, Note_on_c, 0, 76, 41
2, 31680, Note_on_c, 0, 76, 0
2, 31680, Note_on_c, 0, 75, 41
2, 31740, Note_on_c, 0, 76, 41
2, 31800, Note_on_c, 0, 76, 0
2, 31800, Note_on_c, 0, 75, 0
2, 31800, Note_on_c, 0, 71, 41
2, 31860, Note_on_c, 0, 76, 41
2, 31920, Note_on_c, 0, 76, 0
2, 31920, Note_on_c, 0, 71, 0
2, 31920, Note_on_c, 0, 75, 41
2, 31980, Note_on_c, 0, 76, 41
2, 32040, Note_on_c, 0, 76, 0
2, 32040, Note_on_c, 0, 75, 0
2, 32040, Note_on_c, 0, 71, 41
2, 32100, Note_on_c, 0, 76, 41
2, 32160, Note_on_c, 0, 76, 0
2, 32160, Note_on_c, 0, 71, 0
2, 32160, Note_on_c, 0, 74, 41
2, 32280, Note_on_c, 0, 74, 0
2, 32280, Note_on_c, 0, 72, 35
2, 32400, Note_on_c, 0, 72, 0
2, 32460, Note_on_c, 0, 69, 36
2, 32520, Note_on_c, 0, 69, 0
2, 32520, Note_on_c, 0, 72, 39
2, 32580, Note_on_c, 0, 72, 0
2, 32580, Note_on_c, 0, 76, 41
2, 32640, Note_on_c, 0, 76, 0
2, 32640, Note_on_c, 0, 81, 44
2, 32730, Note_on_c, 0, 81, 0
2, 32730, Note_on_c, 0, 83, 45
2, 32740, Note_on_c, 0, 83, 0
2, 32740, Note_on_c, 0, 81, 45
2, 32750, Note_on_c, 0, 81, 0
2, 32750, Note_on_c, 0, 80, 45
2, 32760, Note_on_c, 0, 80, 0
2, 32760, Note_on_c, 0, 81, 45
2, 32820, Note_on_c, 0, 81, 0
2, 32820, Note_on_c, 0, 83, 44
2, 32880, Note_on_c, 0, 83, 0
2, 32880, Note_on_c, 0, 84, 44
2, 33000, Note_on_c, 0, 84, 0
2, 33000, Note_on_c, 0, 75, 40
2, 33120, Note_on_c, 0, 75, 0
2, 33120, Note_on_c, 0, 76, 34
2, 33240, Note_on_c, 0, 76, 0
2, 33420, Note_on_c, 0, 76, 40
2, 33465, Note_on_c, 0, 76, 0
2, 33480, Note_on_c, 0, 80, 48
2, 33525, Note_on_c, 0, 80, 0
2, 33540, Note_on_c, 0, 83, 55
2, 33585, Note_on_c, 0, 83, 0
2, 33600, Note_on_c, 0, 86, 62
2, 33690, Note_on_c, 0, 86, 0
2, 33690, Note_on_c, 0, 84, 59
2, 33840, Note_on_c, 0, 84, 0
2, 33840, Note_on_c, 0, 81, 49
2, 33870, Note_on_c, 0, 78, 47
2, 33900, Note_on_c, 0, 75, 44
2, 33930, Note_on_c, 0, 72, 42
2, 33960, Note_on_c, 0, 69, 39
2, 33990, Note_on_c, 0, 66, 37
2, 34020, Note_on_c, 0, 63, 35
2, 34050, Note_on_c, 0, 60, 32
2, 34080, Note_on_c, 0, 63, 0
2, 34080, Note_on_c, 0, 72, 0
2, 34080, Note_on_c, 0, 69, 0
2, 34080, Note_on_c, 0, 78, 0
2, 34080, Note_on_c, 0, 75, 0
2, 34080, Note_on_c, 0, 81, 0
2, 34080, Note_on_c, 0, 66, 0
2, 34140, Note_on_c, 0, 60, 0
2, 34140, Note_on_c, 0, 59, 31
2, 34170, Note_on_c, 0, 59, 0
2, 34170, Note_on_c, 0, 60, 31
2, 34200, Note_on_c, 0, 60, 0
2, 34200, Note_on_c, 0, 62, 31
2, 34230, Note_on_c, 0, 62, 0
2, 34230, Note_on_c, 0, 60, 31
2, 34260, Note_on_c, 0, 60, 0
2, 34260, Note_on_c, 0, 59, 31
2, 34290, Note_on_c, 0, 59, 0
2, 34290, Note_on_c, 0, 57, 31
2, 34320, Note_on_c, 0, 57, 0
2, 34320, Note_on_c, 0, 57, 31
2, 34440, Note_on_c, 0, 57, 0
2, 34440, Note_on_c, 0, 56, 32
2, 34560, Note_on_c, 0, 56, 0
2, 34560, Note_on_c, 0, 64, 34
2, 34600, Note_on_c, 0, 64, 0
2, 34600, Note_on_c, 0, 63, 35
2, 34640, Note_on_c, 0, 63, 0
2, 34640, Note_on_c, 0, 64, 35
2, 34680, Note_on_c, 0, 64, 0
2, 34680, Note_on_c, 0, 68, 36
2, 34720, Note_on_c, 0, 68, 0
2, 34720, Note_on_c, 0, 67, 37
2, 34760, Note_on_c, 0, 67, 0
2, 34760, Note_on_c, 0, 68, 37
2, 34800, Note_on_c, 0, 68, 0
2, 34800, Note_on_c, 0, 71, 38
2, 34840, Note_on_c, 0, 71, 0
2, 34840, Note_on_c, 0, 70, 39
2, 34880, Note_on_c, 0, 70, 0
2, 34880, Note_on_c, 0, 71, 39
2, 34920, Note_on_c, 0, 71, 0
2, 34920, Note_on_c, 0, 76, 40
2, 34960, Note_on_c, 0, 76, 0
2, 34960, Note_on_c, 0, 75, 41
2, 35000, Note_on_c, 0, 75, 0
2, 35000, Note_on_c, 0, 76, 41
2, 35040, Note_on_c, 0, 76, 0
2, 35040, Note_on_c, 0, 80, 42
2, 35080, Note_on_c, 0, 80, 0
2, 35080, Note_on_c, 0, 79, 43
2, 35120, Note_on_c, 0, 79, 0
2, 35120, Note_on_c, 0, 80, 43
2, 35160, Note_on_c, 0, 80, 0
2, 35160, Note_on_c, 0, 83, 44
2, 35200, Note_on_c, 0, 83, 0
2, 35200, Note_on_c, 0, 82, 45
2, 35240, Note_on_c, 0, 82, 0
2, 35240, Note_on_c, 0, 83, 46
2, 35280, Note_on_c, 0, 83, 0
2, 35280, Note_on_c, 0, 86, 46
2, 35400, Note_on_c, 0, 86, 0
2, 35400, Note_on_c, 0, 85, 48
2, 35520, Note_on_c, 0, 85, 0
2, 35520, Note_on_c, 0, 88, 42
2, 35640, Note_on_c, 0, 88, 0
2, 35640, Note_on_c, 0, 86, 42
2, 35760, Note_on_c, 0, 86, 0
2, 35760, Note_on_c, 0, 85, 42
2, 35880, Note_on_c, 0, 85, 0
2, 35880, Note_on_c, 0, 83, 42
2, 36000, Note_on_c, 0, 83, 0
2, 36000, Note_on_c, 0, 81, 37
2, 36060, Note_on_c, 0, 81, 0
2, 36060, Note_on_c, 0, 80, 37
2, 36120, Note_on_c, 0, 80, 0
2, 36120, Note_on_c, 0, 83, 36
2, 36180, Note_on_c, 0, 83, 0
2, 36180, Note_on_c, 0, 81, 35
2, 36240, Note_on_c, 0, 81, 0
2, 36240, Note_on_c, 0, 80, 34
2, 36300, Note_on_c, 0, 80, 0
2, 36300, Note_on_c, 0, 83, 33
2, 36360, Note_on_c, 0, 83, 0
2, 36360, Note_on_c, 0, 81, 33
2, 36420, Note_on_c, 0, 81, 0
2, 36420, Note_on_c, 0, 78, 32
2, 36480, Note_on_c, 0, 78, 0
2, 36480, Note_on_c, 0, 76, 41
2, 36600, Note_on_c, 0, 76, 0
2, 36600, Note_on_c, 0, 76, 41
2, 36720, Note_on_c, 0, 76, 0
2, 36720, Note_on_c, 0, 76, 41
2, 36840, Note_on_c, 0, 76, 0
2, 36840, Note_on_c, 0, 76, 41
2, 36960, Note_on_c, 0, 76, 0
2, 36960, Note_on_c, 0, 76, 41
2, 37020, Note_on_c, 0, 76, 0
2, 37020, Note_on_c, 0, 81, 41
2, 37080, Note_on_c, 0, 81, 0
2, 37080, Note_on_c, 0, 73, 41
2, 37108, Note_on_c, 0, 73, 0
2, 37140, Note_on_c, 0, 74, 41
2, 37168, Note_on_c, 0, 74, 0
2, 37200, Note_on_c, 0, 76, 41
2, 37320, Note_on_c, 0, 76, 0
2, 37440, Note_on_c, 0, 76, 42
2, 37500, Note_on_c, 0, 76, 0
2, 37500, Note_on_c, 0, 81, 42
2, 37560, Note_on_c, 0, 81, 0
2, 37560, Note_on_c, 0, 73, 42
2, 37588, Note_on_c, 0, 73, 0
2, 37620, Note_on_c, 0, 74, 42
2, 37648, Note_on_c, 0, 74, 0
2, 37680, Note_on_c, 0, 76, 42
2, 37740, Note_on_c, 0, 76, 0
2, 37740, Note_on_c, 0, 81, 42
2, 37800, Note_on_c, 0, 81, 0
2, 37800, Note_on_c, 0, 69, 35
2, 37828, Note_on_c, 0, 69, 0
2, 37860, Note_on_c, 0, 71, 40
2, 37888, Note_on_c, 0, 71, 0
2, 37920, Note_on_c, 0, 73, 45
2, 37980, Note_on_c, 0, 73, 0
2, 37980, Note_on_c, 0, 69, 40
2, 38040, Note_on_c, 0, 69, 0
2, 38040, Note_on_c, 0, 76, 40
2, 38100, Note_on_c, 0, 76, 0
2, 38100, Note_on_c, 0, 74, 40
2, 38160, Note_on_c, 0, 74, 0
2, 38160, Note_on_c, 0, 73, 40
2, 38250, Note_on_c, 0, 73, 0
2, 38250, Note_on_c, 0, 74, 36
2, 38265, Note_on_c, 0, 74, 0
2, 38265, Note_on_c, 0, 73, 35
2, 38280, Note_on_c, 0, 73, 0
2, 38280, Note_on_c, 0, 71, 34
2, 38400, Note_on_c, 0, 71, 0
2, 38400, Note_on_c, 0, 76, 42
2, 38520, Note_on_c, 0, 76, 0
2, 38520, Note_on_c, 0, 76, 42
2, 38640, Note_on_c, 0, 76, 0
2, 38640, Note_on_c, 0, 76, 42
2, 38760, Note_on_c, 0, 76, 0
2, 38760, Note_on_c, 0, 76, 42
2, 38880, Note_on_c, 0, 76, 0
2, 38880, Note_on_c, 0, 76, 42
2, 38940, Note_on_c, 0, 76, 0
2, 38940, Note_on_c, 0, 81, 42
2, 39000, Note_on_c, 0, 81, 0
2, 39000, Note_on_c, 0, 73, 42
2, 39028, Note_on_c, 0, 73, 0
2, 39060, Note_on_c, 0, 74, 42
2, 39088, Note_on_c, 0, 74, 0
2, 39120, Note_on_c, 0, 76, 42
2, 39240, Note_on_c, 0, 76, 0
2, 39360, Note_on_c, 0, 76, 42
2, 39420, Note_on_c, 0, 76, 0
2, 39420, Note_on_c, 0, 81, 42
2, 39480, Note_on_c, 0, 81, 0
2, 39480, Note_on_c, 0, 73, 42
2, 39508, Note_on_c, 0, 73, 0
2, 39540, Note_on_c, 0, 74, 42
2, 39568, Note_on_c, 0, 74, 0
2, 39600, Note_on_c, 0, 76, 42
2, 39660, Note_on_c, 0, 76, 0
2, 39660, Note_on_c, 0, 81, 42
2, 39720, Note_on_c, 0, 81, 0
2, 39720, Note_on_c, 0, 69, 34
2, 39748, Note_on_c, 0, 69, 0
2, 39780, Note_on_c, 0, 71, 38
2, 39808, Note_on_c, 0, 71, 0
2, 39840, Note_on_c, 0, 73, 41
2, 39930, Note_on_c, 0, 73, 0
2, 39960, Note_on_c, 0, 71, 35
2, 39970, Note_on_c, 0, 73, 35
2, 39975, Note_on_c, 0, 71, 0
2, 39980, Note_on_c, 0, 71, 35
2, 39985, Note_on_c, 0, 73, 0
2, 39990, Note_on_c, 0, 73, 35
2, 39995, Note_on_c, 0, 71, 0
2, 40000, Note_on_c, 0, 71, 35
2, 40005, Note_on_c, 0, 73, 0
2, 40010, Note_on_c, 0, 73, 35
2, 40015, Note_on_c, 0, 71, 0
2, 40020, Note_on_c, 0, 71, 35
2, 40025, Note_on_c, 0, 73, 0
2, 40030, Note_on_c, 0, 73, 35
2, 40035, Note_on_c, 0, 71, 0
2, 40040, Note_on_c, 0, 71, 35
2, 40045, Note_on_c, 0, 73, 0
2, 40050, Note_on_c, 0, 69, 35
2, 40055, Note_on_c, 0, 71, 0
2, 40065, Note_on_c, 0, 69, 0
2, 40065, Note_on_c, 0, 71, 35
2, 40080, Note_on_c, 0, 71, 0
2, 40080, Note_on_c, 0, 69, 40
2, 40210, Note_on_c, 0, 69, 0
2, 40320, Note_on_c, 0, 71, 39
2, 40470, Note_on_c, 0, 71, 0
2, 40500, Note_on_c, 0, 71, 43
2, 40560, Note_on_c, 0, 71, 0
2, 40560, Note_on_c, 0, 73, 45
2, 40680, Note_on_c, 0, 73, 0
2, 40680, Note_on_c, 0, 74, 48
2, 40800, Note_on_c, 0, 74, 0
2, 40800, Note_on_c, 0, 76, 51
2, 40860, Note_on_c, 0, 76, 0
2, 40860, Note_on_c, 0, 78, 53
2, 40890, Note_on_c, 0, 78, 0
2, 40890, Note_on_c, 0, 80, 53
2, 40920, Note_on_c, 0, 80, 0
2, 40920, Note_on_c, 0, 81, 54
2, 40950, Note_on_c, 0, 81, 0
2, 40950, Note_on_c, 0, 83, 55
2, 40980, Note_on_c, 0, 83, 0
2, 40980, Note_on_c, 0, 85, 56
2, 41010, Note_on_c, 0, 85, 0
2, 41010, Note_on_c, 0, 86, 56
2, 41040, Note_on_c, 0, 86, 0
2, 41040, Note_on_c, 0, 88, 57
2, 41160, Note_on_c, 0, 88, 0
2, 41280, Note_on_c, 0, 81, 47
2, 41340, Note_on_c, 0, 81, 0
2, 41340, Note_on_c, 0, 80, 49
2, 41400, Note_on_c, 0, 80, 0
2, 41400, Note_on_c, 0, 78, 51
2, 41460, Note_on_c, 0, 78, 0
2, 41460, Note_on_c, 0, 76, 54
2, 41520, Note_on_c, 0, 76, 0
2, 41520, Note_on_c, 0, 75, 56
2, 41580, Note_on_c, 0, 75, 0
2, 41580, Note_on_c, 0, 74, 55
2, 41640, Note_on_c, 0, 74, 0
2, 41640, Note_on_c, 0, 73, 53
2, 41700, Note_on_c, 0, 73, 0
2, 41700, Note_on_c, 0, 76, 50
2, 41760, Note_on_c, 0, 76, 0
2, 41760, Note_on_c, 0, 74, 47
2, 41880, Note_on_c, 0, 74, 0
2, 41880, Note_on_c, 0, 73, 40
2, 41890, Note_on_c, 0, 74, 40
2, 41893, Note_on_c, 0, 73, 0
2, 41900, Note_on_c, 0, 73, 40
2, 41904, Note_on_c, 0, 74, 0
2, 41910, Note_on_c, 0, 74, 40
2, 41914, Note_on_c, 0, 73, 0
2, 41920, Note_on_c, 0, 73, 40
2, 41923, Note_on_c, 0, 74, 0
2, 41930, Note_on_c, 0, 74, 40
2, 41934, Note_on_c, 0, 73, 0
2, 41940, Note_on_c, 0, 73, 40
2, 41944, Note_on_c, 0, 74, 0
2, 41950, Note_on_c, 0, 74, 40
2, 41954, Note_on_c, 0, 73, 0
2, 41960, Note_on_c, 0, 73, 40
2, 41964, Note_on_c, 0, 74, 0
2, 41972, Note_on_c, 0, 71, 40
2, 41973, Note_on_c, 0, 73, 0
2, 41986, Note_on_c, 0, 71, 0
2, 41986, Note_on_c, 0, 73, 40
2, 42000, Note_on_c, 0, 73, 0
2, 42000, Note_on_c, 0, 71, 40
2, 42110, Note_on_c, 0, 71, 0
2, 42240, Note_on_c, 0, 71, 39
2, 42390, Note_on_c, 0, 71, 0
2, 42420, Note_on_c, 0, 71, 45
2, 42480, Note_on_c, 0, 71, 0
2, 42480, Note_on_c, 0, 73, 47
2, 42600, Note_on_c, 0, 73, 0
2, 42600, Note_on_c, 0, 74, 51
2, 42720, Note_on_c, 0, 74, 0
2, 42720, Note_on_c, 0, 78, 55
2, 42735, Note_on_c, 0, 78, 0
2, 42750, Note_on_c, 0, 76, 53
2, 42765, Note_on_c, 0, 76, 0
2, 42780, Note_on_c, 0, 74, 50
2, 42795, Note_on_c, 0, 74, 0
2, 42810, Note_on_c, 0, 73, 48
2, 42825, Note_on_c, 0, 73, 0
2, 42840, Note_on_c, 0, 74, 45
2, 42855, Note_on_c, 0, 74, 0
2, 42870, Note_on_c, 0, 76, 46
2, 42885, Note_on_c, 0, 76, 0
2, 42900, Note_on_c, 0, 78, 47
2, 42915, Note_on_c, 0, 78, 0
2, 42930, Note_on_c, 0, 80, 49
2, 42945, Note_on_c, 0, 80, 0
2, 42960, Note_on_c, 0, 81, 50
2, 42975, Note_on_c, 0, 81, 0
2, 42990, Note_on_c, 0, 83, 52
2, 43005, Note_on_c, 0, 83, 0
2, 43020, Note_on_c, 0, 85, 53
2, 43035, Note_on_c, 0, 85, 0
2, 43050, Note_on_c, 0, 86, 55
2, 43065, Note_on_c, 0, 86, 0
2, 43080, Note_on_c, 0, 88, 56
2, 43140, Note_on_c, 0, 88, 0
2, 43200, Note_on_c, 0, 81, 78
2, 43260, Note_on_c, 0, 81, 0
2, 43260, Note_on_c, 0, 83, 64
2, 43290, Note_on_c, 0, 83, 0
2, 43290, Note_on_c, 0, 85, 63
2, 43320, Note_on_c, 0, 85, 0
2, 43320, Note_on_c, 0, 83, 61
2, 43350, Note_on_c, 0, 83, 0
2, 43350, Note_on_c, 0, 81, 58
2, 43380, Note_on_c, 0, 81, 0
2, 43380, Note_on_c, 0, 80, 56
2, 43410, Note_on_c, 0, 80, 0
2, 43410, Note_on_c, 0, 78, 54
2, 43440, Note_on_c, 0, 78, 0
2, 43440, Note_on_c, 0, 76, 52
2, 43470, Note_on_c, 0, 76, 0
2, 43470, Note_on_c, 0, 75, 50
2, 43500, Note_on_c, 0, 75, 0
2, 43500, Note_on_c, 0, 81, 48
2, 43530, Note_on_c, 0, 81, 0
2, 43530, Note_on_c, 0, 80, 45
2, 43560, Note_on_c, 0, 80, 0
2, 43560, Note_on_c, 0, 83, 43
2, 43590, Note_on_c, 0, 83, 0
2, 43590, Note_on_c, 0, 81, 41
2, 43620, Note_on_c, 0, 81, 0
2, 43620, Note_on_c, 0, 78, 39
2, 43650, Note_on_c, 0, 78, 0
2, 43650, Note_on_c, 0, 75, 37
2, 43680, Note_on_c, 0, 75, 0
2, 43680, Note_on_c, 0, 76, 35
2, 43710, Note_on_c, 0, 76, 0
2, 43710, Note_on_c, 0, 71, 33
2, 43724, Note_on_c, 0, 71, 0
2, 43740, Note_on_c, 0, 73, 32
2, 43754, Note_on_c, 0, 73, 0
2, 43770, Note_on_c, 0, 75, 36
2, 43784, Note_on_c, 0, 75, 0
2, 43800, Note_on_c, 0, 76, 40
2, 43814, Note_on_c, 0, 76, 0
2, 43830, Note_on_c, 0, 78, 43
2, 43844, Note_on_c, 0, 78, 0
2, 43860, Note_on_c, 0, 80, 47
2, 43874, Note_on_c, 0, 80, 0
2, 43890, Note_on_c, 0, 81, 51
2, 43904, Note_on_c, 0, 81, 0
2, 43920, Note_on_c, 0, 85, 54
2, 43950, Note_on_c, 0, 85, 0
2, 43950, Note_on_c, 0, 83, 55
2, 43980, Note_on_c, 0, 83, 0
2, 43980, Note_on_c, 0, 81, 52
2, 43994, Note_on_c, 0, 81, 0
2, 44010, Note_on_c, 0, 80, 49
2, 44024, Note_on_c, 0, 80, 0
2, 44040, Note_on_c, 0, 78, 47
2, 44070, Note_on_c, 0, 78, 0
2, 44070, Note_on_c, 0, 80, 44
2, 44080, Note_on_c, 0, 78, 43
2, 44085, Note_on_c, 0, 80, 0
2, 44090, Note_on_c, 0, 76, 42
2, 44095, Note_on_c, 0, 78, 0
2, 44100, Note_on_c, 0, 78, 41
2, 44105, Note_on_c, 0, 76, 0
2, 44123, Note_on_c, 0, 78, 0
2, 44130, Note_on_c, 0, 80, 39
2, 44144, Note_on_c, 0, 80, 0
2, 44160, Note_on_c, 0, 76, 36
2, 44174, Note_on_c, 0, 76, 0
2, 44190, Note_on_c, 0, 71, 33
2, 44204, Note_on_c, 0, 71, 0
2, 44220, Note_on_c, 0, 73, 34
2, 44234, Note_on_c, 0, 73, 0
2, 44250, Note_on_c, 0, 75, 37
2, 44264, Note_on_c, 0, 75, 0
2, 44280, Note_on_c, 0, 76, 40
2, 44294, Note_on_c, 0, 76, 0
2, 44310, Note_on_c, 0, 78, 43
2, 44324, Note_on_c, 0, 78, 0
2, 44340, Note_on_c, 0, 80, 46
2, 44354, Note_on_c, 0, 80, 0
2, 44370, Note_on_c, 0, 81, 50
2, 44384, Note_on_c, 0, 81, 0
2, 44400, Note_on_c, 0, 85, 53
2, 44430, Note_on_c, 0, 85, 0
2, 44430, Note_on_c, 0, 83, 54
2, 44460, Note_on_c, 0, 83, 0
2, 44460, Note_on_c, 0, 81, 51
2, 44474, Note_on_c, 0, 81, 0
2, 44490, Note_on_c, 0, 80, 48
2, 44504, Note_on_c, 0, 80, 0
2, 44520, Note_on_c, 0, 78, 46
2, 44550, Note_on_c, 0, 78, 0
2, 44550, Note_on_c, 0, 80, 43
2, 44560, Note_on_c, 0, 78, 42
2, 44565, Note_on_c, 0, 80, 0
2, 44570, Note_on_c, 0, 76, 41
2, 44575, Note_on_c, 0, 78, 0
2, 44580, Note_on_c, 0, 78, 40
2, 44585, Note_on_c, 0, 76, 0
2, 44603, Note_on_c, 0, 78, 0
2, 44610, Note_on_c, 0, 80, 37
2, 44624, Note_on_c, 0, 80, 0
2, 44640, Note_on_c, 0, 76, 34
2, 44654, Note_on_c, 0, 76, 0
2, 44670, Note_on_c, 0, 78, 32
2, 44680, Note_on_c, 0, 76, 33
2, 44685, Note_on_c, 0, 78, 0
2, 44690, Note_on_c, 0, 75, 33
2, 44695, Note_on_c, 0, 76, 0
2, 44700, Note_on_c, 0, 76, 33
2, 44705, Note_on_c, 0, 75, 0
2, 44730, Note_on_c, 0, 76, 0
2, 44730, Note_on_c, 0, 78, 34
2, 44760, Note_on_c, 0, 78, 0
2, 44760, Note_on_c, 0, 80, 35
2, 44774, Note_on_c, 0, 80, 0
2, 44790, Note_on_c, 0, 81, 36
2, 44800, Note_on_c, 0, 80, 37
2, 44805, Note_on_c, 0, 81, 0
2, 44810, Note_on_c, 0, 78, 37
2, 44815, Note_on_c, 0, 80, 0
2, 44820, Note_on_c, 0, 80, 37
2, 44825, Note_on_c, 0, 78, 0
2, 44850, Note_on_c, 0, 80, 0
2, 44850, Note_on_c, 0, 81, 38
2, 44880, Note_on_c, 0, 81, 0
2, 44880, Note_on_c, 0, 83, 39
2, 44894, Note_on_c, 0, 83, 0
2, 44910, Note_on_c, 0, 85, 40
2, 44920, Note_on_c, 0, 83, 41
2, 44925, Note_on_c, 0, 85, 0
2, 44930, Note_on_c, 0, 81, 41
2, 44935, Note_on_c, 0, 83, 0
2, 44940, Note_on_c, 0, 83, 41
2, 44945, Note_on_c, 0, 81, 0
2, 44970, Note_on_c, 0, 83, 0
2, 44970, Note_on_c, 0, 85, 42
2, 45000, Note_on_c, 0, 85, 0
2, 45000, Note_on_c, 0, 86, 43
2, 45060, Note_on_c, 0, 86, 0
2, 45060, Note_on_c, 0, 85, 45
2, 45120, Note_on_c, 0, 85, 0
2, 45120, Note_on_c, 0, 88, 47
2, 45180, Note_on_c, 0, 88, 0
2, 45180, Note_on_c, 0, 86, 48
2, 45240, Note_on_c, 0, 86, 0
2, 45240, Note_on_c, 0, 85, 48
2, 45300, Note_on_c, 0, 85, 0
2, 45300, Note_on_c, 0, 83, 48
2, 45360, Note_on_c, 0, 83, 0
2, 45360, Note_on_c, 0, 81, 39
2, 45390, Note_on_c, 0, 81, 0
2, 45390, Note_on_c, 0, 80, 39
2, 45420, Note_on_c, 0, 80, 0
2, 45420, Note_on_c, 0, 83, 39
2, 45450, Note_on_c, 0, 83, 0
2, 45450, Note_on_c, 0, 81, 39
2, 45480, Note_on_c, 0, 81, 0
2, 45480, Note_on_c, 0, 80, 39
2, 45510, Note_on_c, 0, 80, 0
2, 45510, Note_on_c, 0, 83, 39
2, 45540, Note_on_c, 0, 83, 0
2, 45540, Note_on_c, 0, 81, 39
2, 45570, Note_on_c, 0, 81, 0
2, 45570, Note_on_c, 0, 78, 39
2, 45600, Note_on_c, 0, 78, 0
2, 45600, Note_on_c, 0, 76, 39
2, 45720, Note_on_c, 0, 76, 0
2, 45720, Note_on_c, 0, 76, 39
2, 45840, Note_on_c, 0, 76, 0
2, 45840, Note_on_c, 0, 76, 41
2, 45960, Note_on_c, 0, 76, 0
2, 45960, Note_on_c, 0, 76, 41
2, 46080, Note_on_c, 0, 76, 0
2, 46080, Note_on_c, 0, 76, 41
2, 46140, Note_on_c, 0, 76, 0
2, 46140, Note_on_c, 0, 81, 41
2, 46200, Note_on_c, 0, 81, 0
2, 46200, Note_on_c, 0, 73, 41
2, 46228, Note_on_c, 0, 73, 0
2, 46260, Note_on_c, 0, 74, 41
2, 46288, Note_on_c, 0, 74, 0
2, 46320, Note_on_c, 0, 76, 41
2, 46440, Note_on_c, 0, 76, 0
2, 46560, Note_on_c, 0, 76, 41
2, 46620, Note_on_c, 0, 76, 0
2, 46620, Note_on_c, 0, 81, 41
2, 46680, Note_on_c, 0, 81, 0
2, 46680, Note_on_c, 0, 73, 41
2, 46708, Note_on_c, 0, 73, 0
2, 46740, Note_on_c, 0, 74, 41
2, 46768, Note_on_c, 0, 74, 0
2, 46800, Note_on_c, 0, 76, 41
2, 46860, Note_on_c, 0, 76, 0
2, 46860, Note_on_c, 0, 81, 41
2, 46920, Note_on_c, 0, 81, 0
2, 46920, Note_on_c, 0, 69, 34
2, 46948, Note_on_c, 0, 69, 0
2, 46980, Note_on_c, 0, 71, 38
2, 47008, Note_on_c, 0, 71, 0
2, 47040, Note_on_c, 0, 73, 42
2, 47070, Note_on_c, 0, 73, 0
2, 47070, Note_on_c, 0, 76, 44
2, 47100, Note_on_c, 0, 76, 0
2, 47100, Note_on_c, 0, 81, 46
2, 47130, Note_on_c, 0, 81, 0
2, 47130, Note_on_c, 0, 85, 48
2, 47160, Note_on_c, 0, 85, 0
2, 47160, Note_on_c, 0, 88, 50
2, 47250, Note_on_c, 0, 88, 0
2, 47250, Note_on_c, 0, 86, 47
2, 47280, Note_on_c, 0, 86, 0
2, 47280, Note_on_c, 0, 85, 46
2, 47370, Note_on_c, 0, 85, 0
2, 47370, Note_on_c, 0, 86, 43
2, 47385, Note_on_c, 0, 86, 0
2, 47385, Note_on_c, 0, 85, 42
2, 47400, Note_on_c, 0, 85, 0
2, 47400, Note_on_c, 0, 83, 42
2, 47520, Note_on_c, 0, 83, 0
2, 47520, Note_on_c, 0, 81, 43
2, 47550, Note_on_c, 0, 81, 0
2, 47550, Note_on_c, 0, 80, 41
2, 47580, Note_on_c, 0, 80, 0
2, 47580, Note_on_c, 0, 78, 40
2, 47610, Note_on_c, 0, 78, 0
2, 47610, Note_on_c, 0, 76, 38
2, 47640, Note_on_c, 0, 76, 0
2, 47640, Note_on_c, 0, 76, 36
2, 47760, Note_on_c, 0, 76, 0
2, 47760, Note_on_c, 0, 75, 34
2, 47780, Note_on_c, 0, 75, 0
2, 47780, Note_on_c, 0, 76, 37
2, 47880, Note_on_c, 0, 76, 0
2, 47880, Note_on_c, 0, 78, 38
2, 47900, Note_on_c, 0, 78, 0
2, 47900, Note_on_c, 0, 76, 37
2, 48000, Note_on_c, 0, 76, 0
2, 48000, Note_on_c, 0, 76, 38
2, 48060, Note_on_c, 0, 76, 0
2, 48060, Note_on_c, 0, 86, 48
2, 48090, Note_on_c, 0, 86, 0
2, 48090, Note_on_c, 0, 85, 47
2, 48120, Note_on_c, 0, 85, 0
2, 48120, Note_on_c, 0, 83, 46
2, 48150, Note_on_c, 0, 83, 0
2, 48150, Note_on_c, 0, 81, 45
2, 48180, Note_on_c, 0, 81, 0
2, 48180, Note_on_c, 0, 80, 44
2, 48210, Note_on_c, 0, 80, 0
2, 48210, Note_on_c, 0, 78, 43
2, 48240, Note_on_c, 0, 78, 0
2, 48240, Note_on_c, 0, 76, 42
2, 48300, Note_on_c, 0, 76, 0
2, 48300, Note_on_c, 0, 74, 40
2, 48330, Note_on_c, 0, 74, 0
2, 48330, Note_on_c, 0, 73, 38
2, 48360, Note_on_c, 0, 73, 0
2, 48360, Note_on_c, 0, 71, 37
2, 48390, Note_on_c, 0, 71, 0
2, 48390, Note_on_c, 0, 69, 36
2, 48420, Note_on_c, 0, 69, 0
2, 48420, Note_on_c, 0, 68, 35
2, 48450, Note_on_c, 0, 68, 0
2, 48450, Note_on_c, 0, 66, 34
2, 48480, Note_on_c, 0, 66, 0
2, 48480, Note_on_c, 0, 76, 33
2, 48510, Note_on_c, 0, 76, 0
2, 48510, Note_on_c, 0, 88, 49
2, 48540, Note_on_c, 0, 88, 0
2, 48540, Note_on_c, 0, 86, 49
2, 48570, Note_on_c, 0, 86, 0
2, 48570, Note_on_c, 0, 85, 48
2, 48600, Note_on_c, 0, 85, 0
2, 48600, Note_on_c, 0, 83, 48
2, 48630, Note_on_c, 0, 83, 0
2, 48630, Note_on_c, 0, 81, 47
2, 48660, Note_on_c, 0, 81, 0
2, 48660, Note_on_c, 0, 80, 46
2, 48690, Note_on_c, 0, 80, 0
2, 48690, Note_on_c, 0, 78, 46
2, 48720, Note_on_c, 0, 78, 0
2, 48720, Note_on_c, 0, 76, 45
2, 48750, Note_on_c, 0, 76, 0
2, 48750, Note_on_c, 0, 81, 44
2, 48780, Note_on_c, 0, 81, 0
2, 48780, Note_on_c, 0, 80, 44
2, 48810, Note_on_c, 0, 80, 0
2, 48810, Note_on_c, 0, 78, 43
2, 48840, Note_on_c, 0, 78, 0
2, 48840, Note_on_c, 0, 76, 43
2, 48930, Note_on_c, 0, 76, 0
2, 48930, Note_on_c, 0, 74, 41
2, 48960, Note_on_c, 0, 74, 0
2, 48960, Note_on_c, 0, 73, 40
2, 49050, Note_on_c, 0, 73, 0
2, 49080, Note_on_c, 0, 71, 33
2, 49090, Note_on_c, 0, 73, 33
2, 49095, Note_on_c, 0, 71, 0
2, 49100, Note_on_c, 0, 71, 33
2, 49105, Note_on_c, 0, 73, 0
2, 49110, Note_on_c, 0, 73, 33
2, 49115, Note_on_c, 0, 71, 0
2, 49120, Note_on_c, 0, 71, 33
2, 49125, Note_on_c, 0, 73, 0
2, 49130, Note_on_c, 0, 73, 33
2, 49135, Note_on_c, 0, 71, 0
2, 49140, Note_on_c, 0, 71, 33
2, 49145, Note_on_c, 0, 73, 0
2, 49150, Note_on_c, 0, 73, 33
2, 49155, Note_on_c, 0, 71, 0
2, 49160, Note_on_c, 0, 71, 33
2, 49165, Note_on_c, 0, 73, 0
2, 49170, Note_on_c, 0, 69, 33
2, 49175, Note_on_c, 0, 71, 0
2, 49185, Note_on_c, 0, 69, 0
2, 49185, Note_on_c, 0, 71, 33
2, 49200, Note_on_c, 0, 71, 0
2, 49200, Note_on_c, 0, 69, 41
2, 49330, Note_on_c, 0, 69, 0
2, 50940, Note_on_c, 0, 69, 63
2, 50970, Note_on_c, 0, 81, 57
2, 51000, Note_on_c, 0, 81, 0
2, 51000, Note_on_c, 0, 69, 0
2, 51000, Note_on_c, 0, 68, 60
2, 51030, Note_on_c, 0, 80, 51
2, 51060, Note_on_c, 0, 80, 0
2, 51060, Note_on_c, 0, 68, 0
2, 51060, Note_on_c, 0, 67, 56
2, 51090, Note_on_c, 0, 79, 47
2, 51120, Note_on_c, 0, 79, 0
2, 51120, Note_on_c, 0, 67, 0
2, 51120, Note_on_c, 0, 66, 51
2, 51150, Note_on_c, 0, 78, 40
2, 51180, Note_on_c, 0, 78, 0
2, 51180, Note_on_c, 0, 66, 0
2, 51180, Note_on_c, 0, 65, 47
2, 51210, Note_on_c, 0, 77, 37
2, 51240, Note_on_c, 0, 77, 0
2, 51240, Note_on_c, 0, 65, 0
2, 51240, Note_on_c, 0, 64, 42
2, 51270, Note_on_c, 0, 76, 32
2, 51300, Note_on_c, 0, 76, 0
2, 51300, Note_on_c, 0, 64, 0
2, 51300, Note_on_c, 0, 63, 38
2, 51330, Note_on_c, 0, 75, 28
2, 51353, Note_on_c, 0, 75, 0
2, 51360, Note_on_c, 0, 63, 0
2, 51360, Note_on_c, 0, 64, 33
2, 51383, Note_on_c, 0, 64, 0
2, 51390, Note_on_c, 0, 68, 34
2, 51404, Note_on_c, 0, 68, 0
2, 51420, Note_on_c, 0, 69, 36
2, 51434, Note_on_c, 0, 69, 0
2, 51450, Note_on_c, 0, 73, 39
2, 51464, Note_on_c, 0, 73, 0
2, 51480, Note_on_c, 0, 76, 41
2, 51494, Note_on_c, 0, 76, 0
2, 51510, Note_on_c, 0, 80, 43
2, 51524, Note_on_c, 0, 80, 0
2, 51540, Note_on_c, 0, 81, 45
2, 51554, Note_on_c, 0, 81, 0
2, 51570, Note_on_c, 0, 85, 47
2, 51584, Note_on_c, 0, 85, 0
2, 51600, Note_on_c, 0, 88, 49
2, 51660, Note_on_c, 0, 88, 0
2, 51900, Note_on_c, 0, 81, 64
2, 51930, Note_on_c, 0, 69, 54
2, 51960, Note_on_c, 0, 69, 0
2, 51960, Note_on_c, 0, 81, 0
2, 51960, Note_on_c, 0, 80, 60
2, 51990, Note_on_c, 0, 68, 50
2, 52020, Note_on_c, 0, 68, 0
2, 52020, Note_on_c, 0, 80, 0
2, 52020, Note_on_c, 0, 79, 56
2, 52050, Note_on_c, 0, 67, 46
2, 52080, Note_on_c, 0, 67, 0
2, 52080, Note_on_c, 0, 79, 0
2, 52080, Note_on_c, 0, 78, 52
2, 52110, Note_on_c, 0, 66, 42
2, 52140, Note_on_c, 0, 66, 0
2, 52140, Note_on_c, 0, 78, 0
2, 52140, Note_on_c, 0, 77, 48
2, 52170, Note_on_c, 0, 65, 38
2, 52200, Note_on_c, 0, 65, 0
2, 52200, Note_on_c, 0, 77, 0
2, 52200, Note_on_c, 0, 76, 44
2, 52230, Note_on_c, 0, 64, 33
2, 52260, Note_on_c, 0, 64, 0
2, 52260, Note_on_c, 0, 76, 0
2, 52260, Note_on_c, 0, 75, 40
2, 52290, Note_on_c, 0, 63, 29
2, 52313, Note_on_c, 0, 63, 0
2, 52320, Note_on_c, 0, 75, 0
2, 52800, Note_on_c, 0, 69, 39
2, 52920, Note_on_c, 0, 69, 0
2, 52950, Note_on_c, 0, 69, 39
2, 52973, Note_on_c, 0, 69, 0
2, 52980, Note_on_c, 0, 71, 38
2, 53003, Note_on_c, 0, 71, 0
2, 53010, Note_on_c, 0, 73, 40
2, 53033, Note_on_c, 0, 73, 0
2, 53040, Note_on_c, 0, 74, 41
2, 53063, Note_on_c, 0, 74, 0
2, 53070, Note_on_c, 0, 76, 42
2, 53093, Note_on_c, 0, 76, 0
2, 53100, Note_on_c, 0, 78, 43
2, 53123, Note_on_c, 0, 78, 0
2, 53130, Note_on_c, 0, 80, 44
2, 53153, Note_on_c, 0, 80, 0
2, 53160, Note_on_c, 0, 81, 45
2, 53183, Note_on_c, 0, 81, 0
2, 53190, Note_on_c, 0, 83, 47
2, 53213, Note_on_c, 0, 83, 0
2, 53220, Note_on_c, 0, 85, 48
2, 53243, Note_on_c, 0, 85, 0
2, 53250, Note_on_c, 0, 86, 49
2, 53273, Note_on_c, 0, 86, 0
2, 53280, Note_on_c, 0, 88, 50
2, 53299, Note_on_c, 0, 88, 0
2, 53320, Note_on_c, 0, 85, 49
2, 53339, Note_on_c, 0, 85, 0
2, 53360, Note_on_c, 0, 81, 45
2, 53379, Note_on_c, 0, 81, 0
2, 53400, Note_on_c, 0, 76, 42
2, 53419, Note_on_c, 0, 76, 0
2, 53440, Note_on_c, 0, 73, 39
2, 53459, Note_on_c, 0, 73, 0
2, 53480, Note_on_c, 0, 69, 35
2, 53499, Note_on_c, 0, 69, 0
2, 53520, Note_on_c, 0, 64, 32
2, 53565, Note_on_c, 0, 64, 0
2, 53640, Note_on_c, 0, 68, 35
2, 53685, Note_on_c, 0, 68, 0
2, 53760, Note_on_c, 0, 69, 38
2, 53850, Note_on_c, 0, 69, 0
2, 53900, Note_on_c, 0, 57, 32
2, 53915, Note_on_c, 0, 57, 0
2, 53920, Note_on_c, 0, 59, 32
2, 53935, Note_on_c, 0, 59, 0
2, 53940, Note_on_c, 0, 61, 33
2, 53955, Note_on_c, 0, 61, 0
2, 53960, Note_on_c, 0, 62, 34
2, 53975, Note_on_c, 0, 62, 0
2, 53980, Note_on_c, 0, 64, 36
2, 53995, Note_on_c, 0, 64, 0
2, 54000, Note_on_c, 0, 66, 37
2, 54015, Note_on_c, 0, 66, 0
2, 54020, Note_on_c, 0, 68, 39
2, 54035, Note_on_c, 0, 68, 0
2, 54040, Note_on_c, 0, 69, 40
2, 54055, Note_on_c, 0, 69, 0
2, 54060, Note_on_c, 0, 71, 41
2, 54075, Note_on_c, 0, 71, 0
2, 54080, Note_on_c, 0, 73, 43
2, 54095, Note_on_c, 0, 73, 0
2, 54100, Note_on_c, 0, 74, 44
2, 54115, Note_on_c, 0, 74, 0
2, 54120, Note_on_c, 0, 76, 46
2, 54135, Note_on_c, 0, 76, 0
2, 54140, Note_on_c, 0, 78, 47
2, 54155, Note_on_c, 0, 78, 0
2, 54160, Note_on_c, 0, 80, 49
2, 54175, Note_on_c, 0, 80, 0
2, 54180, Note_on_c, 0, 81, 50
2, 54191, Note_on_c, 0, 81, 0
2, 54195, Note_on_c, 0, 83, 51
2, 54206, Note_on_c, 0, 83, 0
2, 54210, Note_on_c, 0, 85, 52
2, 54221, Note_on_c, 0, 85, 0
2, 54225, Note_on_c, 0, 86, 53
2, 54236, Note_on_c, 0, 86, 0
2, 54240, Note_on_c, 0, 88, 54
2, 54251, Note_on_c, 0, 88, 0
2, 54255, Note_on_c, 0, 86, 55
2, 54266, Note_on_c, 0, 86, 0
2, 54270, Note_on_c, 0, 85, 53
2, 54281, Note_on_c, 0, 85, 0
2, 54285, Note_on_c, 0, 83, 52
2, 54296, Note_on_c, 0, 83, 0
2, 54300, Note_on_c, 0, 81, 50
2, 54315, Note_on_c, 0, 81, 0
2, 54320, Note_on_c, 0, 80, 48
2, 54335, Note_on_c, 0, 80, 0
2, 54340, Note_on_c, 0, 78, 47
2, 54355, Note_on_c, 0, 78, 0
2, 54360, Note_on_c, 0, 76, 45
2, 54375, Note_on_c, 0, 76, 0
2, 54380, Note_on_c, 0, 74, 43
2, 54395, Note_on_c, 0, 74, 0
2, 54400, Note_on_c, 0, 73, 41
2, 54415, Note_on_c, 0, 73, 0
2, 54420, Note_on_c, 0, 71, 39
2, 54431, Note_on_c, 0, 71, 0
2, 54435, Note_on_c, 0, 69, 38
2, 54446, Note_on_c, 0, 69, 0
2, 54450, Note_on_c, 0, 68, 36
2, 54461, Note_on_c, 0, 68, 0
2, 54465, Note_on_c, 0, 66, 35
2, 54476, Note_on_c, 0, 66, 0
2, 54480, Note_on_c, 0, 64, 33
2, 54525, Note_on_c, 0, 64, 0
2, 54600, Note_on_c, 0, 68, 39
2, 54645, Note_on_c, 0, 68, 0
2, 54720, Note_on_c, 0, 71, 40
2, 54720, Note_on_c, 0, 68, 40
2, 54720, Note_on_c, 0, 64, 40
2, 54720, Note_on_c, 0, 62, 40
2, 54960, Note_on_c, 0, 62, 0
2, 54960, Note_on_c, 0, 71, 0
2, 54960, Note_on_c, 0, 68, 0
2, 54960, Note_on_c, 0, 64, 0
2, 54960, Note_on_c, 0, 69, 40
2, 54960, Note_on_c, 0, 64, 40
2, 54960, Note_on_c, 0, 61, 40
2, 55080, Note_on_c, 0, 61, 0
2, 55080, Note_on_c, 0, 64, 0
2, 55080, Note_on_c, 0, 69, 0
2, 55080, End_track
3, 0, Start_track
3, 0, Title_t, "Piano.L"
3, 120, Control_c, 1, 91, 127
3, 125, Control_c, 1, 0, 0
3, 126, Control_c, 1, 32, 0
3, 127, Program_c, 1, 0
3, 128, Control_c, 1, 7, 120
3, 475, Control_c, 1, 91, 127
3, 480, Control_c, 1, 91, 80
3, 480, Note_on_c, 1, 61, 31
3, 480, Note_on_c, 1, 57, 31
3, 540, Note_on_c, 1, 61, 0
3, 540, Note_on_c, 1, 64, 31
3, 600, Note_on_c, 1, 64, 0
3, 600, Note_on_c, 1, 61, 31
3, 660, Note_on_c, 1, 61, 0
3, 660, Note_on_c, 1, 64, 31
3, 720, Note_on_c, 1, 64, 0
3, 720, Note_on_c, 1, 57, 0
3, 720, Note_on_c, 1, 62, 31
3, 720, Note_on_c, 1, 56, 31
3, 720, Note_on_c, 1, 59, 31
3, 780, Note_on_c, 1, 62, 0
3, 780, Note_on_c, 1, 64, 31
3, 840, Note_on_c, 1, 64, 0
3, 840, Note_on_c, 1, 62, 31
3, 900, Note_on_c, 1, 62, 0
3, 900, Note_on_c, 1, 64, 31
3, 960, Note_on_c, 1, 64, 0
3, 960, Note_on_c, 1, 59, 0
3, 960, Note_on_c, 1, 56, 0
3, 960, Note_on_c, 1, 61, 31
3, 960, Note_on_c, 1, 57, 31
3, 1020, Note_on_c, 1, 61, 0
3, 1020, Note_on_c, 1, 64, 31
3, 1080, Note_on_c, 1, 64, 0
3, 1080, Note_on_c, 1, 57, 0
3, 1080, Note_on_c, 1, 57, 31
3, 1080, Note_on_c, 1, 61, 31
3, 1108, Note_on_c, 1, 61, 0
3, 1108, Note_on_c, 1, 57, 0
3, 1140, Note_on_c, 1, 59, 31
3, 1140, Note_on_c, 1, 62, 31
3, 1168, Note_on_c, 1, 62, 0
3, 1168, Note_on_c, 1, 59, 0
3, 1200, Note_on_c, 1, 64, 31
3, 1200, Note_on_c, 1, 61, 31
3, 1260, Note_on_c, 1, 64, 0
3, 1260, Note_on_c, 1, 69, 31
3, 1320, Note_on_c, 1, 69, 0
3, 1320, Note_on_c, 1, 61, 0
3, 1320, Note_on_c, 1, 57, 31
3, 1320, Note_on_c, 1, 61, 31
3, 1348, Note_on_c, 1, 61, 0
3, 1348, Note_on_c, 1, 57, 0
3, 1380, Note_on_c, 1, 59, 31
3, 1380, Note_on_c, 1, 62, 31
3, 1408, Note_on_c, 1, 62, 0
3, 1408, Note_on_c, 1, 59, 0
3, 1440, Note_on_c, 1, 64, 31
3, 1440, Note_on_c, 1, 61, 31
3, 1500, Note_on_c, 1, 64, 0
3, 1500, Note_on_c, 1, 69, 31
3, 1560, Note_on_c, 1, 69, 0
3, 1560, Note_on_c, 1, 61, 0
3, 1560, Note_on_c, 1, 57, 31
3, 1560, Note_on_c, 1, 61, 31
3, 1588, Note_on_c, 1, 61, 0
3, 1588, Note_on_c, 1, 57, 0
3, 1620, Note_on_c, 1, 59, 31
3, 1620, Note_on_c, 1, 62, 31
3, 1648, Note_on_c, 1, 62, 0
3, 1648, Note_on_c, 1, 59, 0
3, 1680, Note_on_c, 1, 64, 31
3, 1680, Note_on_c, 1, 61, 31
3, 1740, Note_on_c, 1, 64, 0
3, 1740, Note_on_c, 1, 69, 31
3, 1800, Note_on_c, 1, 69, 0
3, 1800, Note_on_c, 1, 61, 0
3, 1800, Note_on_c, 1, 49, 31
3, 1800, Note_on_c, 1, 57, 31
3, 1828, Note_on_c, 1, 57, 0
3, 1828, Note_on_c, 1, 49, 0
3, 1860, Note_on_c, 1, 52, 31
3, 1860, Note_on_c, 1, 59, 31
3, 1888, Note_on_c, 1, 59, 0
3, 1888, Note_on_c, 1, 52, 0
3, 1920, Note_on_c, 1, 61, 31
3, 1920, Note_on_c, 1, 57, 31
3, 1980, Note_on_c, 1, 61, 0
3, 1980, Note_on_c, 1, 64, 31
3, 2040, Note_on_c, 1, 64, 0
3, 2040, Note_on_c, 1, 61, 31
3, 2100, Note_on_c, 1, 61, 0
3, 2100, Note_on_c, 1, 64, 31
3, 2160, Note_on_c, 1, 64, 0
3, 2160, Note_on_c, 1, 57, 0
3, 2160, Note_on_c, 1, 57, 31
3, 2160, Note_on_c, 1, 52, 31
3, 2220, Note_on_c, 1, 57, 0
3, 2220, Note_on_c, 1, 61, 31
3, 2280, Note_on_c, 1, 61, 0
3, 2280, Note_on_c, 1, 56, 31
3, 2340, Note_on_c, 1, 56, 0
3, 2340, Note_on_c, 1, 59, 31
3, 2400, Note_on_c, 1, 59, 0
3, 2400, Note_on_c, 1, 52, 0
3, 2400, Note_on_c, 1, 61, 31
3, 2400, Note_on_c, 1, 57, 31
3, 2460, Note_on_c, 1, 61, 0
3, 2460, Note_on_c, 1, 64, 31
3, 2520, Note_on_c, 1, 64, 0
3, 2520, Note_on_c, 1, 61, 31
3, 2580, Note_on_c, 1, 61, 0
3, 2580, Note_on_c, 1, 64, 31
3, 2640, Note_on_c, 1, 64, 0
3, 2640, Note_on_c, 1, 57, 0
3, 2640, Note_on_c, 1, 62, 31
3, 2640, Note_on_c, 1, 56, 31
3, 2640, Note_on_c, 1, 59, 31
3, 2700, Note_on_c, 1, 62, 0
3, 2700, Note_on_c, 1, 64, 31
3, 2760, Note_on_c, 1, 64, 0
3, 2760, Note_on_c, 1, 62, 31
3, 2820, Note_on_c, 1, 62, 0
3, 2820, Note_on_c, 1, 64, 31
3, 2880, Note_on_c, 1, 64, 0
3, 2880, Note_on_c, 1, 59, 0
3, 2880, Note_on_c, 1, 56, 0
3, 2880, Note_on_c, 1, 61, 31
3, 2880, Note_on_c, 1, 57, 31
3, 2940, Note_on_c, 1, 61, 0
3, 2940, Note_on_c, 1, 64, 31
3, 3000, Note_on_c, 1, 64, 0
3, 3000, Note_on_c, 1, 57, 0
3, 3000, Note_on_c, 1, 57, 31
3, 3000, Note_on_c, 1, 61, 31
3, 3028, Note_on_c, 1, 61, 0
3, 3028, Note_on_c, 1, 57, 0
3, 3060, Note_on_c, 1, 59, 31
3, 3060, Note_on_c, 1, 62, 31
3, 3088, Note_on_c, 1, 62, 0
3, 3088, Note_on_c, 1, 59, 0
3, 3120, Note_on_c, 1, 64, 31
3, 3120, Note_on_c, 1, 61, 31
3, 3180, Note_on_c, 1, 64, 0
3, 3180, Note_on_c, 1, 69, 31
3, 3240, Note_on_c, 1, 69, 0
3, 3240, Note_on_c, 1, 61, 0
3, 3240, Note_on_c, 1, 57, 31
3, 3240, Note_on_c, 1, 61, 31
3, 3268, Note_on_c, 1, 61, 0
3, 3268, Note_on_c, 1, 57, 0
3, 3300, Note_on_c, 1, 59, 31
3, 3300, Note_on_c, 1, 62, 31
3, 3328, Note_on_c, 1, 62, 0
3, 3328, Note_on_c, 1, 59, 0
3, 3360, Note_on_c, 1, 64, 31
3, 3360, Note_on_c, 1, 61, 31
3, 3420, Note_on_c, 1, 64, 0
3, 3420, Note_on_c, 1, 69, 31
3, 3480, Note_on_c, 1, 69, 0
3, 3480, Note_on_c, 1, 61, 0
3, 3480, Note_on_c, 1, 57, 31
3, 3480, Note_on_c, 1, 61, 31
3, 3508, Note_on_c, 1, 61, 0
3, 3508, Note_on_c, 1, 57, 0
3, 3540, Note_on_c, 1, 59, 31
3, 3540, Note_on_c, 1, 62, 31
3, 3568, Note_on_c, 1, 62, 0
3, 3568, Note_on_c, 1, 59, 0
3, 3600, Note_on_c, 1, 61, 31
3, 3600, Note_on_c, 1, 64, 31
3, 3720, Note_on_c, 1, 64, 0
3, 3720, Note_on_c, 1, 61, 0
3, 3840, Note_on_c, 1, 57, 31
3, 3840, Note_on_c, 1, 52, 31
3, 3900, Note_on_c, 1, 57, 0
3, 3900, Note_on_c, 1, 61, 31
3, 3960, Note_on_c, 1, 61, 0
3, 3960, Note_on_c, 1, 56, 31
3, 4020, Note_on_c, 1, 56, 0
3, 4020, Note_on_c, 1, 62, 31
3, 4080, Note_on_c, 1, 62, 0
3, 4080, Note_on_c, 1, 52, 0
3, 4080, Note_on_c, 1, 57, 31
3, 4080, Note_on_c, 1, 61, 31
3, 4200, Note_on_c, 1, 61, 0
3, 4200, Note_on_c, 1, 57, 0
3, 8160, Note_on_c, 1, 56, 31
3, 8160, Note_on_c, 1, 59, 31
3, 8220, Note_on_c, 1, 52, 32
3, 8280, Note_on_c, 1, 52, 0
3, 8280, Note_on_c, 1, 59, 0
3, 8280, Note_on_c, 1, 56, 0
3, 8280, Note_on_c, 1, 56, 34
3, 8280, Note_on_c, 1, 59, 34
3, 8340, Note_on_c, 1, 52, 35
3, 8400, Note_on_c, 1, 52, 0
3, 8400, Note_on_c, 1, 59, 0
3, 8400, Note_on_c, 1, 56, 0
3, 8400, Note_on_c, 1, 57, 37
3, 8400, Note_on_c, 1, 61, 37
3, 8460, Note_on_c, 1, 52, 38
3, 8520, Note_on_c, 1, 52, 0
3, 8520, Note_on_c, 1, 61, 0
3, 8520, Note_on_c, 1, 57, 0
3, 8520, Note_on_c, 1, 59, 40
3, 8520, Note_on_c, 1, 62, 40
3, 8580, Note_on_c, 1, 52, 41
3, 8640, Note_on_c, 1, 52, 0
3, 8640, Note_on_c, 1, 62, 0
3, 8640, Note_on_c, 1, 59, 0
3, 8640, Note_on_c, 1, 61, 42
3, 8640, Note_on_c, 1, 64, 42
3, 8700, Note_on_c, 1, 52, 42
3, 8760, Note_on_c, 1, 52, 0
3, 8760, Note_on_c, 1, 64, 0
3, 8760, Note_on_c, 1, 61, 0
3, 8760, Note_on_c, 1, 61, 40
3, 8760, Note_on_c, 1, 64, 40
3, 8820, Note_on_c, 1, 52, 39
3, 8880, Note_on_c, 1, 52, 0
3, 8880, Note_on_c, 1, 64, 0
3, 8880, Note_on_c, 1, 61, 0
3, 8880, Note_on_c, 1, 61, 37
3, 8880, Note_on_c, 1, 64, 37
3, 8940, Note_on_c, 1, 52, 36
3, 9000, Note_on_c, 1, 52, 0
3, 9000, Note_on_c, 1, 64, 0
3, 9000, Note_on_c, 1, 61, 0
3, 9000, Note_on_c, 1, 61, 34
3, 9000, Note_on_c, 1, 64, 34
3, 9060, Note_on_c, 1, 52, 33
3, 9120, Note_on_c, 1, 52, 0
3, 9120, Note_on_c, 1, 64, 0
3, 9120, Note_on_c, 1, 61, 0
3, 9120, Note_on_c, 1, 61, 40
3, 9120, Note_on_c, 1, 64, 40
3, 9180, Note_on_c, 1, 52, 40
3, 9240, Note_on_c, 1, 52, 0
3, 9240, Note_on_c, 1, 64, 0
3, 9240, Note_on_c, 1, 61, 0
3, 9240, Note_on_c, 1, 61, 39
3, 9240, Note_on_c, 1, 64, 39
3, 9300, Note_on_c, 1, 52, 39
3, 9360, Note_on_c, 1, 52, 0
3, 9360, Note_on_c, 1, 64, 0
3, 9360, Note_on_c, 1, 61, 0
3, 9360, Note_on_c, 1, 59, 38
3, 9360, Note_on_c, 1, 64, 38
3, 9420, Note_on_c, 1, 52, 38
3, 9480, Note_on_c, 1, 52, 0
3, 9480, Note_on_c, 1, 64, 0
3, 9480, Note_on_c, 1, 59, 0
3, 9480, Note_on_c, 1, 57, 37
3, 9480, Note_on_c, 1, 64, 37
3, 9540, Note_on_c, 1, 52, 37
3, 9600, Note_on_c, 1, 52, 0
3, 9600, Note_on_c, 1, 64, 0
3, 9600, Note_on_c, 1, 57, 0
3, 9600, Note_on_c, 1, 57, 36
3, 9600, Note_on_c, 1, 64, 36
3, 9660, Note_on_c, 1, 52, 36
3, 9720, Note_on_c, 1, 52, 0
3, 9720, Note_on_c, 1, 64, 0
3, 9720, Note_on_c, 1, 57, 0
3, 9720, Note_on_c, 1, 57, 35
3, 9720, Note_on_c, 1, 64, 35
3, 9780, Note_on_c, 1, 52, 35
3, 9840, Note_on_c, 1, 52, 0
3, 9840, Note_on_c, 1, 64, 0
3, 9840, Note_on_c, 1, 57, 0
3, 9840, Note_on_c, 1, 56, 34
3, 9840, Note_on_c, 1, 64, 34
3, 9900, Note_on_c, 1, 52, 34
3, 9960, Note_on_c, 1, 52, 0
3, 9960, Note_on_c, 1, 64, 0
3, 9960, Note_on_c, 1, 56, 0
3, 9960, Note_on_c, 1, 56, 33
3, 9960, Note_on_c, 1, 64, 33
3, 10020, Note_on_c, 1, 52, 33
3, 10080, Note_on_c, 1, 52, 0
3, 10080, Note_on_c, 1, 64, 0
3, 10080, Note_on_c, 1, 56, 0
3, 10080, Note_on_c, 1, 56, 31
3, 10080, Note_on_c, 1, 59, 31
3, 10140, Note_on_c, 1, 52, 32
3, 10200, Note_on_c, 1, 52, 0
3, 10200, Note_on_c, 1, 59, 0
3, 10200, Note_on_c, 1, 56, 0
3, 10200, Note_on_c, 1, 56, 34
3, 10200, Note_on_c, 1, 59, 34
3, 10260, Note_on_c, 1, 52, 35
3, 10320, Note_on_c, 1, 52, 0
3, 10320, Note_on_c, 1, 59, 0
3, 10320, Note_on_c, 1, 56, 0
3, 10320, Note_on_c, 1, 57, 37
3, 10320, Note_on_c, 1, 61, 37
3, 10380, Note_on_c, 1, 52, 38
3, 10440, Note_on_c, 1, 52, 0
3, 10440, Note_on_c, 1, 61, 0
3, 10440, Note_on_c, 1, 57, 0
3, 10440, Note_on_c, 1, 59, 40
3, 10440, Note_on_c, 1, 62, 40
3, 10500, Note_on_c, 1, 52, 41
3, 10560, Note_on_c, 1, 52, 0
3, 10560, Note_on_c, 1, 62, 0
3, 10560, Note_on_c, 1, 59, 0
3, 10560, Note_on_c, 1, 61, 43
3, 10560, Note_on_c, 1, 64, 43
3, 10620, Note_on_c, 1, 52, 45
3, 10680, Note_on_c, 1, 52, 0
3, 10680, Note_on_c, 1, 64, 0
3, 10680, Note_on_c, 1, 61, 0
3, 10680, Note_on_c, 1, 59, 46
3, 10680, Note_on_c, 1, 62, 46
3, 10740, Note_on_c, 1, 52, 48
3, 10800, Note_on_c, 1, 52, 0
3, 10800, Note_on_c, 1, 62, 0
3, 10800, Note_on_c, 1, 59, 0
3, 10800, Note_on_c, 1, 57, 49
3, 10800, Note_on_c, 1, 61, 49
3, 10860, Note_on_c, 1, 52, 51
3, 10920, Note_on_c, 1, 52, 0
3, 10920, Note_on_c, 1, 61, 0
3, 10920, Note_on_c, 1, 57, 0
3, 10920, Note_on_c, 1, 57, 52
3, 10920, Note_on_c, 1, 61, 52
3, 10980, Note_on_c, 1, 52, 54
3, 11040, Note_on_c, 1, 52, 0
3, 11040, Note_on_c, 1, 61, 0
3, 11040, Note_on_c, 1, 57, 0
3, 11040, Note_on_c, 1, 54, 55
3, 11040, Note_on_c, 1, 57, 55
3, 11040, Note_on_c, 1, 63, 55
3, 11400, Note_on_c, 1, 63, 0
3, 11400, Note_on_c, 1, 57, 0
3, 11400, Note_on_c, 1, 54, 0
3, 11520, Note_on_c, 1, 52, 31
3, 11520, Note_on_c, 1, 56, 31
3, 11520, Note_on_c, 1, 64, 31
3, 11640, Note_on_c, 1, 64, 0
3, 11640, Note_on_c, 1, 56, 0
3, 11640, Note_on_c, 1, 52, 0
3, 11880, Note_on_c, 1, 63, 33
3, 11880, Note_on_c, 1, 59, 33
3, 11880, Note_on_c, 1, 69, 33
3, 12000, Note_on_c, 1, 69, 0
3, 12000, Note_on_c, 1, 59, 0
3, 12000, Note_on_c, 1, 63, 0
3, 12000, Note_on_c, 1, 68, 27
3, 12000, Note_on_c, 1, 64, 27
3, 12120, Note_on_c, 1, 64, 0
3, 12120, Note_on_c, 1, 68, 0
3, 12360, Note_on_c, 1, 63, 32
3, 12360, Note_on_c, 1, 59, 32
3, 12360, Note_on_c, 1, 69, 32
3, 12480, Note_on_c, 1, 69, 0
3, 12480, Note_on_c, 1, 59, 0
3, 12480, Note_on_c, 1, 63, 0
3, 12480, Note_on_c, 1, 68, 26
3, 12480, Note_on_c, 1, 64, 26
3, 12600, Note_on_c, 1, 64, 0
3, 12600, Note_on_c, 1, 68, 0
3, 12960, Note_on_c, 1, 64, 25
3, 12960, Note_on_c, 1, 68, 25
3, 12960, Note_on_c, 1, 74, 25
3, 13320, Note_on_c, 1, 74, 0
3, 13320, Note_on_c, 1, 68, 0
3, 13320, Note_on_c, 1, 64, 0
3, 13440, Note_on_c, 1, 61, 31
3, 13440, Note_on_c, 1, 57, 31
3, 13500, Note_on_c, 1, 61, 0
3, 13500, Note_on_c, 1, 64, 31
3, 13560, Note_on_c, 1, 64, 0
3, 13560, Note_on_c, 1, 61, 31
3, 13620, Note_on_c, 1, 61, 0
3, 13620, Note_on_c, 1, 64, 31
3, 13680, Note_on_c, 1, 64, 0
3, 13680, Note_on_c, 1, 57, 0
3, 13680, Note_on_c, 1, 62, 31
3, 13680, Note_on_c, 1, 56, 31
3, 13680, Note_on_c, 1, 59, 31
3, 13740, Note_on_c, 1, 62, 0
3, 13740, Note_on_c, 1, 64, 31
3, 13800, Note_on_c, 1, 64, 0
3, 13800, Note_on_c, 1, 62, 31
3, 13860, Note_on_c, 1, 62, 0
3, 13860, Note_on_c, 1, 64, 31
3, 13920, Note_on_c, 1, 64, 0
3, 13920, Note_on_c, 1, 59, 0
3, 13920, Note_on_c, 1, 56, 0
3, 13920, Note_on_c, 1, 61, 31
3, 13920, Note_on_c, 1, 57, 31
3, 13980, Note_on_c, 1, 61, 0
3, 13980, Note_on_c, 1, 64, 31
3, 14040, Note_on_c, 1, 64, 0
3, 14040, Note_on_c, 1, 57, 0
3, 14040, Note_on_c, 1, 57, 31
3, 14040, Note_on_c, 1, 61, 31
3, 14068, Note_on_c, 1, 61, 0
3, 14068, Note_on_c, 1, 57, 0
3, 14100, Note_on_c, 1, 59, 31
3, 14100, Note_on_c, 1, 62, 31
3, 14128, Note_on_c, 1, 62, 0
3, 14128, Note_on_c, 1, 59, 0
3, 14160, Note_on_c, 1, 64, 31
3, 14160, Note_on_c, 1, 61, 31
3, 14220, Note_on_c, 1, 64, 0
3, 14220, Note_on_c, 1, 69, 31
3, 14280, Note_on_c, 1, 69, 0
3, 14280, Note_on_c, 1, 61, 0
3, 14280, Note_on_c, 1, 57, 31
3, 14280, Note_on_c, 1, 61, 31
3, 14308, Note_on_c, 1, 61, 0
3, 14308, Note_on_c, 1, 57, 0
3, 14340, Note_on_c, 1, 59, 31
3, 14340, Note_on_c, 1, 62, 31
3, 14368, Note_on_c, 1, 62, 0
3, 14368, Note_on_c, 1, 59, 0
3, 14400, Note_on_c, 1, 64, 31
3, 14400, Note_on_c, 1, 61, 31
3, 14460, Note_on_c, 1, 64, 0
3, 14460, Note_on_c, 1, 69, 31
3, 14520, Note_on_c, 1, 69, 0
3, 14520, Note_on_c, 1, 61, 0
3, 14520, Note_on_c, 1, 57, 31
3, 14520, Note_on_c, 1, 61, 31
3, 14548, Note_on_c, 1, 61, 0
3, 14548, Note_on_c, 1, 57, 0
3, 14580, Note_on_c, 1, 59, 31
3, 14580, Note_on_c, 1, 62, 31
3, 14608, Note_on_c, 1, 62, 0
3, 14608, Note_on_c, 1, 59, 0
3, 14640, Note_on_c, 1, 64, 31
3, 14640, Note_on_c, 1, 61, 31
3, 14700, Note_on_c, 1, 64, 0
3, 14700, Note_on_c, 1, 69, 31
3, 14760, Note_on_c, 1, 69, 0
3, 14760, Note_on_c, 1, 61, 0
3, 14760, Note_on_c, 1, 49, 31
3, 14760, Note_on_c, 1, 57, 31
3, 14788, Note_on_c, 1, 57, 0
3, 14788, Note_on_c, 1, 49, 0
3, 14820, Note_on_c, 1, 52, 31
3, 14820, Note_on_c, 1, 59, 31
3, 14848, Note_on_c, 1, 59, 0
3, 14848, Note_on_c, 1, 52, 0
3, 14880, Note_on_c, 1, 61, 31
3, 14880, Note_on_c, 1, 57, 31
3, 14940, Note_on_c, 1, 61, 0
3, 14940, Note_on_c, 1, 64, 31
3, 15000, Note_on_c, 1, 64, 0
3, 15000, Note_on_c, 1, 61, 31
3, 15060, Note_on_c, 1, 61, 0
3, 15060, Note_on_c, 1, 64, 31
3, 15120, Note_on_c, 1, 64, 0
3, 15120, Note_on_c, 1, 57, 0
3, 15120, Note_on_c, 1, 57, 31
3, 15120, Note_on_c, 1, 52, 31
3, 15180, Note_on_c, 1, 57, 0
3, 15180, Note_on_c, 1, 61, 31
3, 15240, Note_on_c, 1, 61, 0
3, 15240, Note_on_c, 1, 56, 31
3, 15300, Note_on_c, 1, 56, 0
3, 15300, Note_on_c, 1, 59, 31
3, 15360, Note_on_c, 1, 59, 0
3, 15360, Note_on_c, 1, 52, 0
3, 15360, Note_on_c, 1, 61, 31
3, 15360, Note_on_c, 1, 57, 31
3, 15420, Note_on_c, 1, 61, 0
3, 15420, Note_on_c, 1, 64, 32
3, 15480, Note_on_c, 1, 64, 0
3, 15480, Note_on_c, 1, 61, 32
3, 15540, Note_on_c, 1, 61, 0
3, 15540, Note_on_c, 1, 64, 32
3, 15600, Note_on_c, 1, 64, 0
3, 15600, Note_on_c, 1, 57, 0
3, 15600, Note_on_c, 1, 62, 32
3, 15600, Note_on_c, 1, 56, 32
3, 15600, Note_on_c, 1, 59, 32
3, 15660, Note_on_c, 1, 62, 0
3, 15660, Note_on_c, 1, 64, 32
3, 15720, Note_on_c, 1, 64, 0
3, 15720, Note_on_c, 1, 62, 32
3, 15780, Note_on_c, 1, 62, 0
3, 15780, Note_on_c, 1, 64, 32
3, 15840, Note_on_c, 1, 64, 0
3, 15840, Note_on_c, 1, 59, 0
3, 15840, Note_on_c, 1, 56, 0
3, 15840, Note_on_c, 1, 61, 32
3, 15840, Note_on_c, 1, 57, 32
3, 15900, Note_on_c, 1, 61, 0
3, 15900, Note_on_c, 1, 64, 32
3, 15960, Note_on_c, 1, 64, 0
3, 15960, Note_on_c, 1, 57, 0
3, 15960, Note_on_c, 1, 57, 32
3, 15960, Note_on_c, 1, 61, 32
3, 15988, Note_on_c, 1, 61, 0
3, 15988, Note_on_c, 1, 57, 0
3, 16020, Note_on_c, 1, 59, 32
3, 16020, Note_on_c, 1, 62, 32
3, 16048, Note_on_c, 1, 62, 0
3, 16048, Note_on_c, 1, 59, 0
3, 16080, Note_on_c, 1, 64, 32
3, 16080, Note_on_c, 1, 61, 32
3, 16140, Note_on_c, 1, 64, 0
3, 16140, Note_on_c, 1, 69, 32
3, 16200, Note_on_c, 1, 69, 0
3, 16200, Note_on_c, 1, 61, 0
3, 16200, Note_on_c, 1, 57, 32
3, 16200, Note_on_c, 1, 61, 32
3, 16228, Note_on_c, 1, 61, 0
3, 16228, Note_on_c, 1, 57, 0
3, 16260, Note_on_c, 1, 59, 32
3, 16260, Note_on_c, 1, 62, 32
3, 16288, Note_on_c, 1, 62, 0
3, 16288, Note_on_c, 1, 59, 0
3, 16320, Note_on_c, 1, 64, 32
3, 16320, Note_on_c, 1, 61, 32
3, 16380, Note_on_c, 1, 64, 0
3, 16380, Note_on_c, 1, 69, 32
3, 16440, Note_on_c, 1, 69, 0
3, 16440, Note_on_c, 1, 61, 0
3, 16440, Note_on_c, 1, 57, 32
3, 16440, Note_on_c, 1, 61, 32
3, 16468, Note_on_c, 1, 61, 0
3, 16468, Note_on_c, 1, 57, 0
3, 16500, Note_on_c, 1, 59, 32
3, 16500, Note_on_c, 1, 62, 32
3, 16528, Note_on_c, 1, 62, 0
3, 16528, Note_on_c, 1, 59, 0
3, 16560, Note_on_c, 1, 61, 32
3, 16560, Note_on_c, 1, 64, 32
3, 16620, Note_on_c, 1, 69, 32
3, 16680, Note_on_c, 1, 69, 0
3, 16680, Note_on_c, 1, 64, 0
3, 16680, Note_on_c, 1, 61, 0
3, 16800, Note_on_c, 1, 57, 32
3, 16800, Note_on_c, 1, 52, 32
3, 16860, Note_on_c, 1, 57, 0
3, 16860, Note_on_c, 1, 61, 32
3, 16920, Note_on_c, 1, 61, 0
3, 16920, Note_on_c, 1, 56, 32
3, 16980, Note_on_c, 1, 56, 0
3, 16980, Note_on_c, 1, 62, 32
3, 17040, Note_on_c, 1, 62, 0
3, 17040, Note_on_c, 1, 52, 0
3, 17040, Note_on_c, 1, 57, 32
3, 17040, Note_on_c, 1, 61, 32
3, 17160, Note_on_c, 1, 61, 0
3, 17160, Note_on_c, 1, 57, 0
3, 21120, Note_on_c, 1, 45, 32
3, 21120, Note_on_c, 1, 57, 32
3, 21240, Note_on_c, 1, 57, 0
3, 21240, Note_on_c, 1, 45, 0
3, 21600, Note_on_c, 1, 52, 32
3, 21600, Note_on_c, 1, 45, 32
3, 21720, Note_on_c, 1, 45, 0
3, 21720, Note_on_c, 1, 52, 0
3, 21720, Note_on_c, 1, 45, 32
3, 21840, Note_on_c, 1, 45, 0
3, 22080, Note_on_c, 1, 52, 32
3, 22080, Note_on_c, 1, 45, 32
3, 22200, Note_on_c, 1, 45, 0
3, 22200, Note_on_c, 1, 52, 0
3, 22200, Note_on_c, 1, 45, 32
3, 22320, Note_on_c, 1, 45, 0
3, 22560, Note_on_c, 1, 56, 32
3, 22560, Note_on_c, 1, 44, 32
3, 22740, Note_on_c, 1, 44, 0
3, 22740, Note_on_c, 1, 56, 0
3, 22800, Note_on_c, 1, 45, 32
3, 22845, Note_on_c, 1, 45, 0
3, 22920, Note_on_c, 1, 50, 32
3, 22965, Note_on_c, 1, 50, 0
3, 23040, Note_on_c, 1, 52, 32
3, 23160, Note_on_c, 1, 52, 0
3, 23520, Note_on_c, 1, 57, 32
3, 23520, Note_on_c, 1, 45, 32
3, 23640, Note_on_c, 1, 45, 0
3, 23640, Note_on_c, 1, 57, 0
3, 24000, Note_on_c, 1, 52, 32
3, 24000, Note_on_c, 1, 45, 32
3, 24120, Note_on_c, 1, 45, 0
3, 24120, Note_on_c, 1, 52, 0
3, 24120, Note_on_c, 1, 45, 32
3, 24240, Note_on_c, 1, 45, 0
3, 24480, Note_on_c, 1, 52, 32
3, 24480, Note_on_c, 1, 45, 32
3, 24600, Note_on_c, 1, 45, 0
3, 24600, Note_on_c, 1, 52, 0
3, 24600, Note_on_c, 1, 45, 32
3, 24720, Note_on_c, 1, 45, 0
3, 24960, Note_on_c, 1, 56, 32
3, 25005, Note_on_c, 1, 56, 0
3, 25080, Note_on_c, 1, 57, 32
3, 25125, Note_on_c, 1, 57, 0
3, 25200, Note_on_c, 1, 59, 32
3, 25245, Note_on_c, 1, 59, 0
3, 25320, Note_on_c, 1, 47, 32
3, 25365, Note_on_c, 1, 47, 0
3, 25440, Note_on_c, 1, 52, 32
3, 25530, Note_on_c, 1, 52, 0
3, 25920, Note_on_c, 1, 55, 32
3, 25920, Note_on_c, 1, 43, 32
3, 26010, Note_on_c, 1, 43, 0
3, 26010, Note_on_c, 1, 55, 0
3, 26400, Note_on_c, 1, 54, 32
3, 26400, Note_on_c, 1, 42, 32
3, 26490, Note_on_c, 1, 42, 0
3, 26490, Note_on_c, 1, 54, 0
3, 26640, Note_on_c, 1, 54, 32
3, 26730, Note_on_c, 1, 54, 0
3, 26880, Note_on_c, 1, 54, 32
3, 27060, Note_on_c, 1, 54, 0
3, 27120, Note_on_c, 1, 53, 32
3, 27300, Note_on_c, 1, 53, 0
3, 27360, Note_on_c, 1, 52, 32
3, 27450, Note_on_c, 1, 52, 0
3, 27840, Note_on_c, 1, 57, 32
3, 27840, Note_on_c, 1, 45, 32
3, 27960, Note_on_c, 1, 45, 0
3, 27960, Note_on_c, 1, 57, 0
3, 28080, Note_on_c, 1, 57, 32
3, 28200, Note_on_c, 1, 57, 0
3, 28320, Note_on_c, 1, 41, 32
3, 28320, Note_on_c, 1, 53, 32
3, 28440, Note_on_c, 1, 53, 0
3, 28440, Note_on_c, 1, 41, 0
3, 28560, Note_on_c, 1, 53, 32
3, 28680, Note_on_c, 1, 53, 0
3, 28800, Note_on_c, 1, 55, 32
3, 28980, Note_on_c, 1, 55, 0
3, 29040, Note_on_c, 1, 55, 32
3, 29040, Note_on_c, 1, 43, 32
3, 29220, Note_on_c, 1, 43, 0
3, 29220, Note_on_c, 1, 55, 0
3, 29280, Note_on_c, 1, 48, 32
3, 29400, Note_on_c, 1, 48, 0
3, 29520, Note_on_c, 1, 60, 32
3, 29640, Note_on_c, 1, 60, 0
3, 29760, Note_on_c, 1, 59, 32
3, 30120, Note_on_c, 1, 59, 0
3, 30240, Note_on_c, 1, 60, 32
3, 30360, Note_on_c, 1, 60, 0
3, 30480, Note_on_c, 1, 60, 32
3, 30600, Note_on_c, 1, 60, 0
3, 30720, Note_on_c, 1, 59, 32
3, 31080, Note_on_c, 1, 59, 0
3, 31200, Note_on_c, 1, 60, 32
3, 31320, Note_on_c, 1, 60, 0
3, 31440, Note_on_c, 1, 57, 32
3, 31560, Note_on_c, 1, 57, 0
3, 31680, Note_on_c, 1, 56, 32
3, 32040, Note_on_c, 1, 56, 0
3, 32160, Note_on_c, 1, 57, 32
3, 32280, Note_on_c, 1, 57, 0
3, 32400, Note_on_c, 1, 55, 32
3, 32520, Note_on_c, 1, 55, 0
3, 32640, Note_on_c, 1, 53, 32
3, 33120, Note_on_c, 1, 53, 0
3, 33120, Note_on_c, 1, 52, 32
3, 33240, Note_on_c, 1, 52, 0
3, 33360, Note_on_c, 1, 52, 32
3, 33480, Note_on_c, 1, 52, 0
3, 33600, Note_on_c, 1, 51, 32
3, 33960, Note_on_c, 1, 51, 0
3, 34320, Note_on_c, 1, 52, 32
3, 34560, Note_on_c, 1, 52, 0
3, 35520, Note_on_c, 1, 64, 24
3, 35520, Note_on_c, 1, 68, 24
3, 35520, Note_on_c, 1, 74, 24
3, 36000, Note_on_c, 1, 74, 0
3, 36000, Note_on_c, 1, 68, 0
3, 36000, Note_on_c, 1, 64, 0
3, 36480, Note_on_c, 1, 61, 32
3, 36480, Note_on_c, 1, 57, 32
3, 36540, Note_on_c, 1, 61, 0
3, 36540, Note_on_c, 1, 64, 32
3, 36600, Note_on_c, 1, 64, 0
3, 36600, Note_on_c, 1, 61, 32
3, 36660, Note_on_c, 1, 61, 0
3, 36660, Note_on_c, 1, 64, 32
3, 36720, Note_on_c, 1, 64, 0
3, 36720, Note_on_c, 1, 57, 0
3, 36720, Note_on_c, 1, 62, 32
3, 36720, Note_on_c, 1, 56, 32
3, 36720, Note_on_c, 1, 59, 32
3, 36780, Note_on_c, 1, 62, 0
3, 36780, Note_on_c, 1, 64, 32
3, 36840, Note_on_c, 1, 64, 0
3, 36840, Note_on_c, 1, 62, 32
3, 36900, Note_on_c, 1, 62, 0
3, 36900, Note_on_c, 1, 64, 32
3, 36960, Note_on_c, 1, 64, 0
3, 36960, Note_on_c, 1, 59, 0
3, 36960, Note_on_c, 1, 56, 0
3, 36960, Note_on_c, 1, 61, 32
3, 36960, Note_on_c, 1, 57, 32
3, 37020, Note_on_c, 1, 61, 0
3, 37020, Note_on_c, 1, 64, 32
3, 37080, Note_on_c, 1, 64, 0
3, 37080, Note_on_c, 1, 57, 0
3, 37080, Note_on_c, 1, 57, 32
3, 37080, Note_on_c, 1, 61, 32
3, 37108, Note_on_c, 1, 61, 0
3, 37108, Note_on_c, 1, 57, 0
3, 37140, Note_on_c, 1, 59, 32
3, 37140, Note_on_c, 1, 62, 32
3, 37168, Note_on_c, 1, 62, 0
3, 37168, Note_on_c, 1, 59, 0
3, 37200, Note_on_c, 1, 64, 32
3, 37200, Note_on_c, 1, 61, 32
3, 37260, Note_on_c, 1, 64, 0
3, 37260, Note_on_c, 1, 69, 32
3, 37320, Note_on_c, 1, 69, 0
3, 37320, Note_on_c, 1, 61, 0
3, 37320, Note_on_c, 1, 57, 32
3, 37320, Note_on_c, 1, 61, 32
3, 37348, Note_on_c, 1, 61, 0
3, 37348, Note_on_c, 1, 57, 0
3, 37380, Note_on_c, 1, 59, 32
3, 37380, Note_on_c, 1, 62, 32
3, 37408, Note_on_c, 1, 62, 0
3, 37408, Note_on_c, 1, 59, 0
3, 37440, Note_on_c, 1, 64, 32
3, 37440, Note_on_c, 1, 61, 32
3, 37500, Note_on_c, 1, 64, 0
3, 37500, Note_on_c, 1, 69, 32
3, 37560, Note_on_c, 1, 69, 0
3, 37560, Note_on_c, 1, 61, 0
3, 37560, Note_on_c, 1, 57, 32
3, 37560, Note_on_c, 1, 61, 32
3, 37588, Note_on_c, 1, 61, 0
3, 37588, Note_on_c, 1, 57, 0
3, 37620, Note_on_c, 1, 59, 32
3, 37620, Note_on_c, 1, 62, 32
3, 37648, Note_on_c, 1, 62, 0
3, 37648, Note_on_c, 1, 59, 0
3, 37680, Note_on_c, 1, 64, 32
3, 37680, Note_on_c, 1, 61, 32
3, 37740, Note_on_c, 1, 64, 0
3, 37740, Note_on_c, 1, 69, 32
3, 37800, Note_on_c, 1, 69, 0
3, 37800, Note_on_c, 1, 61, 0
3, 37800, Note_on_c, 1, 49, 32
3, 37800, Note_on_c, 1, 57, 32
3, 37828, Note_on_c, 1, 57, 0
3, 37828, Note_on_c, 1, 49, 0
3, 37860, Note_on_c, 1, 52, 32
3, 37860, Note_on_c, 1, 59, 32
3, 37888, Note_on_c, 1, 59, 0
3, 37888, Note_on_c, 1, 52, 0
3, 37920, Note_on_c, 1, 61, 32
3, 37920, Note_on_c, 1, 57, 32
3, 37980, Note_on_c, 1, 61, 0
3, 37980, Note_on_c, 1, 64, 32
3, 38040, Note_on_c, 1, 64, 0
3, 38040, Note_on_c, 1, 61, 32
3, 38100, Note_on_c, 1, 61, 0
3, 38100, Note_on_c, 1, 64, 32
3, 38160, Note_on_c, 1, 64, 0
3, 38160, Note_on_c, 1, 57, 0
3, 38160, Note_on_c, 1, 57, 32
3, 38160, Note_on_c, 1, 52, 32
3, 38220, Note_on_c, 1, 57, 0
3, 38220, Note_on_c, 1, 61, 32
3, 38280, Note_on_c, 1, 61, 0
3, 38280, Note_on_c, 1, 56, 32
3, 38340, Note_on_c, 1, 56, 0
3, 38340, Note_on_c, 1, 59, 32
3, 38400, Note_on_c, 1, 59, 0
3, 38400, Note_on_c, 1, 52, 0
3, 38400, Note_on_c, 1, 61, 32
3, 38400, Note_on_c, 1, 57, 32
3, 38460, Note_on_c, 1, 61, 0
3, 38460, Note_on_c, 1, 64, 32
3, 38520, Note_on_c, 1, 64, 0
3, 38520, Note_on_c, 1, 61, 32
3, 38580, Note_on_c, 1, 61, 0
3, 38580, Note_on_c, 1, 64, 32
3, 38640, Note_on_c, 1, 64, 0
3, 38640, Note_on_c, 1, 57, 0
3, 38640, Note_on_c, 1, 62, 32
3, 38640, Note_on_c, 1, 56, 32
3, 38640, Note_on_c, 1, 59, 32
3, 38700, Note_on_c, 1, 62, 0
3, 38700, Note_on_c, 1, 64, 32
3, 38760, Note_on_c, 1, 64, 0
3, 38760, Note_on_c, 1, 62, 32
3, 38820, Note_on_c, 1, 62, 0
3, 38820, Note_on_c, 1, 64, 32
3, 38880, Note_on_c, 1, 64, 0
3, 38880, Note_on_c, 1, 59, 0
3, 38880, Note_on_c, 1, 56, 0
3, 38880, Note_on_c, 1, 61, 32
3, 38880, Note_on_c, 1, 57, 32
3, 38940, Note_on_c, 1, 61, 0
3, 38940, Note_on_c, 1, 64, 32
3, 39000, Note_on_c, 1, 64, 0
3, 39000, Note_on_c, 1, 57, 0
3, 39000, Note_on_c, 1, 57, 32
3, 39000, Note_on_c, 1, 61, 32
3, 39028, Note_on_c, 1, 61, 0
3, 39028, Note_on_c, 1, 57, 0
3, 39060, Note_on_c, 1, 59, 32
3, 39060, Note_on_c, 1, 62, 32
3, 39088, Note_on_c, 1, 62, 0
3, 39088, Note_on_c, 1, 59, 0
3, 39120, Note_on_c, 1, 64, 32
3, 39120, Note_on_c, 1, 61, 32
3, 39180, Note_on_c, 1, 64, 0
3, 39180, Note_on_c, 1, 69, 32
3, 39240, Note_on_c, 1, 69, 0
3, 39240, Note_on_c, 1, 61, 0
3, 39240, Note_on_c, 1, 57, 32
3, 39240, Note_on_c, 1, 61, 32
3, 39268, Note_on_c, 1, 61, 0
3, 39268, Note_on_c, 1, 57, 0
3, 39300, Note_on_c, 1, 59, 32
3, 39300, Note_on_c, 1, 62, 32
3, 39328, Note_on_c, 1, 62, 0
3, 39328, Note_on_c, 1, 59, 0
3, 39360, Note_on_c, 1, 64, 32
3, 39360, Note_on_c, 1, 61, 32
3, 39420, Note_on_c, 1, 64, 0
3, 39420, Note_on_c, 1, 69, 32
3, 39480, Note_on_c, 1, 69, 0
3, 39480, Note_on_c, 1, 61, 0
3, 39480, Note_on_c, 1, 57, 32
3, 39480, Note_on_c, 1, 61, 32
3, 39508, Note_on_c, 1, 61, 0
3, 39508, Note_on_c, 1, 57, 0
3, 39540, Note_on_c, 1, 59, 32
3, 39540, Note_on_c, 1, 62, 32
3, 39568, Note_on_c, 1, 62, 0
3, 39568, Note_on_c, 1, 59, 0
3, 39600, Note_on_c, 1, 61, 32
3, 39600, Note_on_c, 1, 64, 32
3, 39720, Note_on_c, 1, 64, 0
3, 39720, Note_on_c, 1, 61, 0
3, 39840, Note_on_c, 1, 57, 32
3, 39840, Note_on_c, 1, 52, 32
3, 39900, Note_on_c, 1, 57, 0
3, 39900, Note_on_c, 1, 61, 32
3, 39960, Note_on_c, 1, 61, 0
3, 39960, Note_on_c, 1, 56, 32
3, 40020, Note_on_c, 1, 56, 0
3, 40020, Note_on_c, 1, 62, 32
3, 40080, Note_on_c, 1, 62, 0
3, 40080, Note_on_c, 1, 52, 0
3, 40080, Note_on_c, 1, 57, 32
3, 40080, Note_on_c, 1, 61, 32
3, 40200, Note_on_c, 1, 61, 0
3, 40200, Note_on_c, 1, 57, 0
3, 40320, Note_on_c, 1, 56, 31
3, 40320, Note_on_c, 1, 59, 31
3, 40380, Note_on_c, 1, 52, 32
3, 40440, Note_on_c, 1, 52, 0
3, 40440, Note_on_c, 1, 59, 0
3, 40440, Note_on_c, 1, 56, 0
3, 40440, Note_on_c, 1, 56, 34
3, 40440, Note_on_c, 1, 59, 34
3, 40500, Note_on_c, 1, 52, 35
3, 40560, Note_on_c, 1, 52, 0
3, 40560, Note_on_c, 1, 59, 0
3, 40560, Note_on_c, 1, 56, 0
3, 40560, Note_on_c, 1, 57, 37
3, 40560, Note_on_c, 1, 61, 37
3, 40620, Note_on_c, 1, 52, 38
3, 40680, Note_on_c, 1, 52, 0
3, 40680, Note_on_c, 1, 61, 0
3, 40680, Note_on_c, 1, 57, 0
3, 40680, Note_on_c, 1, 59, 40
3, 40680, Note_on_c, 1, 62, 40
3, 40740, Note_on_c, 1, 52, 41
3, 40800, Note_on_c, 1, 52, 0
3, 40800, Note_on_c, 1, 62, 0
3, 40800, Note_on_c, 1, 59, 0
3, 40800, Note_on_c, 1, 61, 42
3, 40800, Note_on_c, 1, 64, 42
3, 40860, Note_on_c, 1, 52, 42
3, 40920, Note_on_c, 1, 52, 0
3, 40920, Note_on_c, 1, 64, 0
3, 40920, Note_on_c, 1, 61, 0
3, 40920, Note_on_c, 1, 61, 40
3, 40920, Note_on_c, 1, 64, 40
3, 40980, Note_on_c, 1, 52, 39
3, 41040, Note_on_c, 1, 52, 0
3, 41040, Note_on_c, 1, 64, 0
3, 41040, Note_on_c, 1, 61, 0
3, 41040, Note_on_c, 1, 61, 37
3, 41040, Note_on_c, 1, 64, 37
3, 41100, Note_on_c, 1, 52, 36
3, 41160, Note_on_c, 1, 52, 0
3, 41160, Note_on_c, 1, 64, 0
3, 41160, Note_on_c, 1, 61, 0
3, 41160, Note_on_c, 1, 61, 34
3, 41160, Note_on_c, 1, 64, 34
3, 41220, Note_on_c, 1, 52, 33
3, 41280, Note_on_c, 1, 52, 0
3, 41280, Note_on_c, 1, 64, 0
3, 41280, Note_on_c, 1, 61, 0
3, 41280, Note_on_c, 1, 61, 40
3, 41280, Note_on_c, 1, 64, 40
3, 41340, Note_on_c, 1, 52, 40
3, 41400, Note_on_c, 1, 52, 0
3, 41400, Note_on_c, 1, 64, 0
3, 41400, Note_on_c, 1, 61, 0
3, 41400, Note_on_c, 1, 61, 39
3, 41400, Note_on_c, 1, 64, 39
3, 41460, Note_on_c, 1, 52, 39
3, 41520, Note_on_c, 1, 52, 0
3, 41520, Note_on_c, 1, 64, 0
3, 41520, Note_on_c, 1, 61, 0
3, 41520, Note_on_c, 1, 59, 38
3, 41520, Note_on_c, 1, 64, 38
3, 41580, Note_on_c, 1, 52, 38
3, 41640, Note_on_c, 1, 52, 0
3, 41640, Note_on_c, 1, 64, 0
3, 41640, Note_on_c, 1, 59, 0
3, 41640, Note_on_c, 1, 57, 37
3, 41640, Note_on_c, 1, 64, 37
3, 41700, Note_on_c, 1, 52, 37
3, 41760, Note_on_c, 1, 52, 0
3, 41760, Note_on_c, 1, 64, 0
3, 41760, Note_on_c, 1, 57, 0
3, 41760, Note_on_c, 1, 57, 36
3, 41760, Note_on_c, 1, 64, 36
3, 41820, Note_on_c, 1, 52, 36
3, 41880, Note_on_c, 1, 52, 0
3, 41880, Note_on_c, 1, 64, 0
3, 41880, Note_on_c, 1, 57, 0
3, 41880, Note_on_c, 1, 57, 35
3, 41880, Note_on_c, 1, 64, 35
3, 41940, Note_on_c, 1, 52, 35
3, 42000, Note_on_c, 1, 52, 0
3, 42000, Note_on_c, 1, 64, 0
3, 42000, Note_on_c, 1, 57, 0
3, 42000, Note_on_c, 1, 56, 34
3, 42000, Note_on_c, 1, 64, 34
3, 42060, Note_on_c, 1, 52, 34
3, 42120, Note_on_c, 1, 52, 0
3, 42120, Note_on_c, 1, 64, 0
3, 42120, Note_on_c, 1, 56, 0
3, 42120, Note_on_c, 1, 56, 33
3, 42120, Note_on_c, 1, 64, 33
3, 42180, Note_on_c, 1, 52, 33
3, 42240, Note_on_c, 1, 52, 0
3, 42240, Note_on_c, 1, 64, 0
3, 42240, Note_on_c, 1, 56, 0
3, 42240, Note_on_c, 1, 56, 32
3, 42240, Note_on_c, 1, 59, 32
3, 42300, Note_on_c, 1, 52, 35
3, 42360, Note_on_c, 1, 52, 0
3, 42360, Note_on_c, 1, 59, 0
3, 42360, Note_on_c, 1, 56, 0
3, 42360, Note_on_c, 1, 56, 36
3, 42360, Note_on_c, 1, 59, 36
3, 42420, Note_on_c, 1, 52, 37
3, 42480, Note_on_c, 1, 52, 0
3, 42480, Note_on_c, 1, 59, 0
3, 42480, Note_on_c, 1, 56, 0
3, 42480, Note_on_c, 1, 57, 39
3, 42480, Note_on_c, 1, 61, 39
3, 42540, Note_on_c, 1, 52, 40
3, 42600, Note_on_c, 1, 52, 0
3, 42600, Note_on_c, 1, 61, 0
3, 42600, Note_on_c, 1, 57, 0
3, 42600, Note_on_c, 1, 59, 41
3, 42600, Note_on_c, 1, 62, 41
3, 42660, Note_on_c, 1, 52, 43
3, 42720, Note_on_c, 1, 52, 0
3, 42720, Note_on_c, 1, 62, 0
3, 42720, Note_on_c, 1, 59, 0
3, 42720, Note_on_c, 1, 61, 44
3, 42720, Note_on_c, 1, 64, 44
3, 42780, Note_on_c, 1, 52, 45
3, 42840, Note_on_c, 1, 52, 0
3, 42840, Note_on_c, 1, 64, 0
3, 42840, Note_on_c, 1, 61, 0
3, 42840, Note_on_c, 1, 59, 47
3, 42840, Note_on_c, 1, 62, 47
3, 42900, Note_on_c, 1, 52, 48
3, 42960, Note_on_c, 1, 52, 0
3, 42960, Note_on_c, 1, 62, 0
3, 42960, Note_on_c, 1, 59, 0
3, 42960, Note_on_c, 1, 57, 49
3, 42960, Note_on_c, 1, 61, 49
3, 43020, Note_on_c, 1, 52, 51
3, 43080, Note_on_c, 1, 52, 0
3, 43080, Note_on_c, 1, 61, 0
3, 43080, Note_on_c, 1, 57, 0
3, 43080, Note_on_c, 1, 57, 52
3, 43080, Note_on_c, 1, 61, 52
3, 43140, Note_on_c, 1, 52, 53
3, 43200, Note_on_c, 1, 52, 0
3, 43200, Note_on_c, 1, 61, 0
3, 43200, Note_on_c, 1, 57, 0
3, 43200, Note_on_c, 1, 54, 55
3, 43200, Note_on_c, 1, 57, 55
3, 43200, Note_on_c, 1, 63, 55
3, 43560, Note_on_c, 1, 63, 0
3, 43560, Note_on_c, 1, 57, 0
3, 43560, Note_on_c, 1, 54, 0
3, 43680, Note_on_c, 1, 52, 31
3, 43680, Note_on_c, 1, 56, 31
3, 43680, Note_on_c, 1, 64, 31
3, 43800, Note_on_c, 1, 64, 0
3, 43800, Note_on_c, 1, 56, 0
3, 43800, Note_on_c, 1, 52, 0
3, 44040, Note_on_c, 1, 63, 31
3, 44040, Note_on_c, 1, 59, 31
3, 44040, Note_on_c, 1, 69, 31
3, 44160, Note_on_c, 1, 69, 0
3, 44160, Note_on_c, 1, 59, 0
3, 44160, Note_on_c, 1, 63, 0
3, 44160, Note_on_c, 1, 68, 28
3, 44160, Note_on_c, 1, 64, 28
3, 44280, Note_on_c, 1, 64, 0
3, 44280, Note_on_c, 1, 68, 0
3, 44520, Note_on_c, 1, 63, 30
3, 44520, Note_on_c, 1, 59, 30
3, 44520, Note_on_c, 1, 69, 30
3, 44640, Note_on_c, 1, 69, 0
3, 44640, Note_on_c, 1, 59, 0
3, 44640, Note_on_c, 1, 63, 0
3, 44640, Note_on_c, 1, 68, 26
3, 44640, Note_on_c, 1, 64, 26
3, 44760, Note_on_c, 1, 64, 0
3, 44760, Note_on_c, 1, 68, 0
3, 45120, Note_on_c, 1, 64, 34
3, 45120, Note_on_c, 1, 68, 34
3, 45120, Note_on_c, 1, 74, 34
3, 45480, Note_on_c, 1, 74, 0
3, 45480, Note_on_c, 1, 68, 0
3, 45480, Note_on_c, 1, 64, 0
3, 45600, Note_on_c, 1, 61, 32
3, 45600, Note_on_c, 1, 57, 32
3, 45660, Note_on_c, 1, 61, 0
3, 45660, Note_on_c, 1, 64, 32
3, 45720, Note_on_c, 1, 64, 0
3, 45720, Note_on_c, 1, 61, 32
3, 45780, Note_on_c, 1, 61, 0
3, 45780, Note_on_c, 1, 64, 32
3, 45840, Note_on_c, 1, 64, 0
3, 45840, Note_on_c, 1, 57, 0
3, 45840, Note_on_c, 1, 62, 32
3, 45840, Note_on_c, 1, 56, 32
3, 45840, Note_on_c, 1, 59, 32
3, 45900, Note_on_c, 1, 62, 0
3, 45900, Note_on_c, 1, 64, 32
3, 45960, Note_on_c, 1, 64, 0
3, 45960, Note_on_c, 1, 62, 32
3, 46020, Note_on_c, 1, 62, 0
3, 46020, Note_on_c, 1, 64, 32
3, 46080, Note_on_c, 1, 64, 0
3, 46080, Note_on_c, 1, 59, 0
3, 46080, Note_on_c, 1, 56, 0
3, 46080, Note_on_c, 1, 61, 32
3, 46080, Note_on_c, 1, 57, 32
3, 46140, Note_on_c, 1, 61, 0
3, 46140, Note_on_c, 1, 64, 32
3, 46200, Note_on_c, 1, 64, 0
3, 46200, Note_on_c, 1, 57, 0
3, 46200, Note_on_c, 1, 57, 32
3, 46200, Note_on_c, 1, 61, 32
3, 46228, Note_on_c, 1, 61, 0
3, 46228, Note_on_c, 1, 57, 0
3, 46260, Note_on_c, 1, 59, 32
3, 46260, Note_on_c, 1, 62, 32
3, 46288, Note_on_c, 1, 62, 0
3, 46288, Note_on_c, 1, 59, 0
3, 46320, Note_on_c, 1, 64, 32
3, 46320, Note_on_c, 1, 61, 32
3, 46380, Note_on_c, 1, 64, 0
3, 46380, Note_on_c, 1, 69, 32
3, 46440, Note_on_c, 1, 69, 0
3, 46440, Note_on_c, 1, 61, 0
3, 46440, Note_on_c, 1, 57, 32
3, 46440, Note_on_c, 1, 61, 32
3, 46468, Note_on_c, 1, 61, 0
3, 46468, Note_on_c, 1, 57, 0
3, 46500, Note_on_c, 1, 59, 32
3, 46500, Note_on_c, 1, 62, 32
3, 46528, Note_on_c, 1, 62, 0
3, 46528, Note_on_c, 1, 59, 0
3, 46560, Note_on_c, 1, 64, 32
3, 46560, Note_on_c, 1, 61, 32
3, 46620, Note_on_c, 1, 64, 0
3, 46620, Note_on_c, 1, 69, 32
3, 46680, Note_on_c, 1, 69, 0
3, 46680, Note_on_c, 1, 61, 0
3, 46680, Note_on_c, 1, 57, 32
3, 46680, Note_on_c, 1, 61, 32
3, 46708, Note_on_c, 1, 61, 0
3, 46708, Note_on_c, 1, 57, 0
3, 46740, Note_on_c, 1, 59, 32
3, 46740, Note_on_c, 1, 62, 32
3, 46768, Note_on_c, 1, 62, 0
3, 46768, Note_on_c, 1, 59, 0
3, 46800, Note_on_c, 1, 64, 32
3, 46800, Note_on_c, 1, 61, 32
3, 46860, Note_on_c, 1, 64, 0
3, 46860, Note_on_c, 1, 69, 32
3, 46920, Note_on_c, 1, 69, 0
3, 46920, Note_on_c, 1, 61, 0
3, 46920, Note_on_c, 1, 49, 32
3, 46920, Note_on_c, 1, 57, 32
3, 46948, Note_on_c, 1, 57, 0
3, 46948, Note_on_c, 1, 49, 0
3, 46980, Note_on_c, 1, 52, 32
3, 46980, Note_on_c, 1, 59, 32
3, 47008, Note_on_c, 1, 59, 0
3, 47008, Note_on_c, 1, 52, 0
3, 47040, Note_on_c, 1, 61, 32
3, 47040, Note_on_c, 1, 57, 32
3, 47100, Note_on_c, 1, 61, 0
3, 47100, Note_on_c, 1, 64, 32
3, 47160, Note_on_c, 1, 64, 0
3, 47160, Note_on_c, 1, 61, 32
3, 47220, Note_on_c, 1, 61, 0
3, 47220, Note_on_c, 1, 64, 32
3, 47280, Note_on_c, 1, 64, 0
3, 47280, Note_on_c, 1, 57, 0
3, 47280, Note_on_c, 1, 57, 32
3, 47280, Note_on_c, 1, 52, 32
3, 47340, Note_on_c, 1, 57, 0
3, 47340, Note_on_c, 1, 61, 32
3, 47400, Note_on_c, 1, 61, 0
3, 47400, Note_on_c, 1, 56, 32
3, 47460, Note_on_c, 1, 56, 0
3, 47460, Note_on_c, 1, 59, 32
3, 47520, Note_on_c, 1, 59, 0
3, 47520, Note_on_c, 1, 52, 0
3, 47520, Note_on_c, 1, 61, 32
3, 47520, Note_on_c, 1, 57, 32
3, 47580, Note_on_c, 1, 61, 0
3, 47580, Note_on_c, 1, 64, 32
3, 47640, Note_on_c, 1, 64, 0
3, 47640, Note_on_c, 1, 61, 32
3, 47700, Note_on_c, 1, 61, 0
3, 47700, Note_on_c, 1, 64, 32
3, 47760, Note_on_c, 1, 64, 0
3, 47760, Note_on_c, 1, 57, 0
3, 47760, Note_on_c, 1, 62, 32
3, 47760, Note_on_c, 1, 56, 32
3, 47760, Note_on_c, 1, 59, 32
3, 47820, Note_on_c, 1, 62, 0
3, 47820, Note_on_c, 1, 64, 32
3, 47880, Note_on_c, 1, 64, 0
3, 47880, Note_on_c, 1, 62, 32
3, 47940, Note_on_c, 1, 62, 0
3, 47940, Note_on_c, 1, 64, 32
3, 48000, Note_on_c, 1, 64, 0
3, 48000, Note_on_c, 1, 59, 0
3, 48000, Note_on_c, 1, 56, 0
3, 48000, Note_on_c, 1, 61, 32
3, 48000, Note_on_c, 1, 57, 32
3, 48060, Note_on_c, 1, 61, 0
3, 48060, Note_on_c, 1, 64, 32
3, 48120, Note_on_c, 1, 64, 0
3, 48120, Note_on_c, 1, 57, 0
3, 48120, Note_on_c, 1, 57, 32
3, 48120, Note_on_c, 1, 61, 32
3, 48148, Note_on_c, 1, 61, 0
3, 48148, Note_on_c, 1, 57, 0
3, 48180, Note_on_c, 1, 59, 32
3, 48180, Note_on_c, 1, 62, 32
3, 48208, Note_on_c, 1, 62, 0
3, 48208, Note_on_c, 1, 59, 0
3, 48240, Note_on_c, 1, 64, 32
3, 48240, Note_on_c, 1, 61, 32
3, 48300, Note_on_c, 1, 64, 0
3, 48300, Note_on_c, 1, 69, 32
3, 48360, Note_on_c, 1, 69, 0
3, 48360, Note_on_c, 1, 61, 0
3, 48360, Note_on_c, 1, 57, 32
3, 48360, Note_on_c, 1, 61, 32
3, 48388, Note_on_c, 1, 61, 0
3, 48388, Note_on_c, 1, 57, 0
3, 48420, Note_on_c, 1, 59, 32
3, 48420, Note_on_c, 1, 62, 32
3, 48448, Note_on_c, 1, 62, 0
3, 48448, Note_on_c, 1, 59, 0
3, 48480, Note_on_c, 1, 64, 32
3, 48480, Note_on_c, 1, 61, 32
3, 48540, Note_on_c, 1, 64, 0
3, 48540, Note_on_c, 1, 69, 32
3, 48600, Note_on_c, 1, 69, 0
3, 48600, Note_on_c, 1, 61, 0
3, 48600, Note_on_c, 1, 57, 32
3, 48600, Note_on_c, 1, 61, 32
3, 48628, Note_on_c, 1, 61, 0
3, 48628, Note_on_c, 1, 57, 0
3, 48660, Note_on_c, 1, 59, 32
3, 48660, Note_on_c, 1, 62, 32
3, 48688, Note_on_c, 1, 62, 0
3, 48688, Note_on_c, 1, 59, 0
3, 48720, Note_on_c, 1, 61, 32
3, 48720, Note_on_c, 1, 64, 32
3, 48780, Note_on_c, 1, 69, 32
3, 48840, Note_on_c, 1, 69, 0
3, 48840, Note_on_c, 1, 64, 0
3, 48840, Note_on_c, 1, 61, 0
3, 48960, Note_on_c, 1, 57, 32
3, 48960, Note_on_c, 1, 52, 32
3, 49020, Note_on_c, 1, 57, 0
3, 49020, Note_on_c, 1, 61, 32
3, 49080, Note_on_c, 1, 61, 0
3, 49080, Note_on_c, 1, 56, 32
3, 49140, Note_on_c, 1, 56, 0
3, 49140, Note_on_c, 1, 62, 32
3, 49200, Note_on_c, 1, 62, 0
3, 49200, Note_on_c, 1, 52, 0
3, 49200, Note_on_c, 1, 57, 32
3, 49200, Note_on_c, 1, 61, 32
3, 49320, Note_on_c, 1, 61, 0
3, 49320, Note_on_c, 1, 57, 0
3, 51360, Note_on_c, 1, 52, 32
3, 51660, Note_on_c, 1, 52, 0
3, 51720, Note_on_c, 1, 53, 32
3, 51780, Note_on_c, 1, 53, 0
3, 51840, Note_on_c, 1, 54, 32
3, 51960, Note_on_c, 1, 54, 0
3, 52800, Note_on_c, 1, 45, 32
3, 52920, Note_on_c, 1, 45, 0
3, 53280, Note_on_c, 1, 52, 32
3, 53400, Note_on_c, 1, 52, 0
3, 53760, Note_on_c, 1, 45, 32
3, 53880, Note_on_c, 1, 45, 0
3, 54240, Note_on_c, 1, 52, 32
3, 54360, Note_on_c, 1, 52, 0
3, 54600, Note_on_c, 1, 52, 32
3, 54660, Note_on_c, 1, 52, 0
3, 54720, Note_on_c, 1, 57, 32
3, 54780, Note_on_c, 1, 57, 0
3, 54840, Note_on_c, 1, 52, 32
3, 54900, Note_on_c, 1, 52, 0
3, 54960, Note_on_c, 1, 45, 32
3, 55080, Note_on_c, 1, 45, 0
3, 55080, End_track
4, 0, Start_track
4, 120, Control_c, 2, 91, 96
4, 130, Control_c, 2, 0, 0
4, 131, Control_c, 2, 32, 0
4, 132, Program_c, 2, 73
4, 133, Control_c, 2, 7, 90
4, 133, Control_c, 2, 10, 64
4, 240, Control_c, 2, 7, 90
4, 4320, Note_on_c, 2, 76, 69
4, 4410, Note_on_c, 2, 76, 0
4, 4440, Note_on_c, 2, 76, 69
4, 4530, Note_on_c, 2, 76, 0
4, 4560, Note_on_c, 2, 76, 69
4, 4650, Note_on_c, 2, 76, 0
4, 4680, Note_on_c, 2, 76, 69
4, 4770, Note_on_c, 2, 76, 0
4, 4800, Note_on_c, 2, 76, 69
4, 4860, Note_on_c, 2, 76, 0
4, 4860, Note_on_c, 2, 81, 69
4, 4905, Note_on_c, 2, 81, 0
4, 4920, Note_on_c, 2, 73, 69
4, 4948, Note_on_c, 2, 73, 0
4, 4980, Note_on_c, 2, 74, 69
4, 5008, Note_on_c, 2, 74, 0
4, 5040, Note_on_c, 2, 76, 69
4, 5130, Note_on_c, 2, 76, 0
4, 5280, Note_on_c, 2, 76, 69
4, 5340, Note_on_c, 2, 76, 0
4, 5340, Note_on_c, 2, 81, 69
4, 5385, Note_on_c, 2, 81, 0
4, 5400, Note_on_c, 2, 73, 69
4, 5428, Note_on_c, 2, 73, 0
4, 5460, Note_on_c, 2, 74, 69
4, 5488, Note_on_c, 2, 74, 0
4, 5520, Note_on_c, 2, 76, 69
4, 5565, Note_on_c, 2, 76, 0
4, 5640, Note_on_c, 2, 81, 69
4, 5668, Note_on_c, 2, 81, 0
4, 5700, Note_on_c, 2, 83, 69
4, 5728, Note_on_c, 2, 83, 0
4, 5760, Note_on_c, 2, 85, 69
4, 5820, Note_on_c, 2, 85, 0
4, 5820, Note_on_c, 2, 81, 69
4, 5880, Note_on_c, 2, 81, 0
4, 5880, Note_on_c, 2, 88, 69
4, 5940, Note_on_c, 2, 88, 0
4, 5940, Note_on_c, 2, 86, 69
4, 5985, Note_on_c, 2, 86, 0
4, 6000, Note_on_c, 2, 85, 69
4, 6120, Note_on_c, 2, 85, 0
4, 6120, Note_on_c, 2, 83, 69
4, 6180, Note_on_c, 2, 83, 0
4, 6240, Note_on_c, 2, 76, 69
4, 6330, Note_on_c, 2, 76, 0
4, 6360, Note_on_c, 2, 76, 69
4, 6450, Note_on_c, 2, 76, 0
4, 6480, Note_on_c, 2, 76, 69
4, 6570, Note_on_c, 2, 76, 0
4, 6600, Note_on_c, 2, 76, 69
4, 6690, Note_on_c, 2, 76, 0
4, 6720, Note_on_c, 2, 76, 69
4, 6780, Note_on_c, 2, 76, 0
4, 6780, Note_on_c, 2, 81, 69
4, 6825, Note_on_c, 2, 81, 0
4, 6840, Note_on_c, 2, 73, 69
4, 6868, Note_on_c, 2, 73, 0
4, 6900, Note_on_c, 2, 74, 69
4, 6928, Note_on_c, 2, 74, 0
4, 6960, Note_on_c, 2, 76, 69
4, 7050, Note_on_c, 2, 76, 0
4, 7200, Note_on_c, 2, 76, 69
4, 7260, Note_on_c, 2, 76, 0
4, 7260, Note_on_c, 2, 81, 69
4, 7305, Note_on_c, 2, 81, 0
4, 7320, Note_on_c, 2, 73, 69
4, 7348, Note_on_c, 2, 73, 0
4, 7380, Note_on_c, 2, 74, 69
4, 7408, Note_on_c, 2, 74, 0
4, 7440, Note_on_c, 2, 76, 69
4, 7485, Note_on_c, 2, 76, 0
4, 7560, Note_on_c, 2, 81, 69
4, 7588, Note_on_c, 2, 81, 0
4, 7620, Note_on_c, 2, 83, 69
4, 7648, Note_on_c, 2, 83, 0
4, 7680, Note_on_c, 2, 85, 69
4, 7770, Note_on_c, 2, 85, 0
4, 7800, Note_on_c, 2, 83, 69
4, 7810, Note_on_c, 2, 85, 69
4, 7813, Note_on_c, 2, 83, 0
4, 7820, Note_on_c, 2, 83, 69
4, 7824, Note_on_c, 2, 85, 0
4, 7830, Note_on_c, 2, 85, 69
4, 7834, Note_on_c, 2, 83, 0
4, 7840, Note_on_c, 2, 83, 69
4, 7843, Note_on_c, 2, 85, 0
4, 7850, Note_on_c, 2, 85, 69
4, 7854, Note_on_c, 2, 83, 0
4, 7860, Note_on_c, 2, 83, 69
4, 7864, Note_on_c, 2, 85, 0
4, 7870, Note_on_c, 2, 85, 69
4, 7874, Note_on_c, 2, 83, 0
4, 7880, Note_on_c, 2, 83, 69
4, 7884, Note_on_c, 2, 85, 0
4, 7890, Note_on_c, 2, 81, 69
4, 7893, Note_on_c, 2, 83, 0
4, 7904, Note_on_c, 2, 81, 0
4, 7905, Note_on_c, 2, 83, 69
4, 7919, Note_on_c, 2, 83, 0
4, 7920, Note_on_c, 2, 81, 69
4, 8040, Note_on_c, 2, 81, 0
4, 18240, Note_on_c, 2, 86, 69
4, 18720, Note_on_c, 2, 86, 0
4, 18720, Note_on_c, 2, 85, 69
4, 18780, Note_on_c, 2, 85, 0
4, 20280, Note_on_c, 2, 86, 52
4, 20400, Note_on_c, 2, 86, 0
4, 20400, Note_on_c, 2, 85, 52
4, 20445, Note_on_c, 2, 85, 0
4, 20520, Note_on_c, 2, 83, 52
4, 20565, Note_on_c, 2, 83, 0
4, 20640, Note_on_c, 2, 83, 52
4, 20880, Note_on_c, 2, 83, 0
4, 20880, Note_on_c, 2, 81, 52
4, 21000, Note_on_c, 2, 81, 0
4, 50400, Note_on_c, 2, 86, 69
4, 50880, Note_on_c, 2, 86, 0
4, 50880, Note_on_c, 2, 85, 69
4, 50940, Note_on_c, 2, 85, 0
4, 52440, Note_on_c, 2, 86, 50
4, 52560, Note_on_c, 2, 86, 0
4, 52560, Note_on_c, 2, 85, 50
4, 52605, Note_on_c, 2, 85, 0
4, 52680, Note_on_c, 2, 83, 50
4, 52725, Note_on_c, 2, 83, 0
4, 52800, Note_on_c, 2, 81, 50
4, 52890, Note_on_c, 2, 81, 0
4, 54720, Note_on_c, 2, 83, 44
4, 54960, Note_on_c, 2, 83, 0
4, 54960, Note_on_c, 2, 81, 44
4, 55080, Note_on_c, 2, 81, 0
4, 55080, End_track
5, 0, Start_track
5, 120, Control_c, 3, 91, 96
5, 135, Control_c, 3, 0, 0
5, 136, Control_c, 3, 32, 0
5, 137, Program_c, 3, 68
5, 138, Control_c, 3, 7, 70
5, 138, Control_c, 3, 10, 64
5, 195, Control_c, 3, 7, 70
5, 4320, Note_on_c, 3, 69, 69
5, 4320, Note_on_c, 3, 73, 69
5, 4560, Note_on_c, 3, 73, 0
5, 4560, Note_on_c, 3, 69, 0
5, 4560, Note_on_c, 3, 71, 69
5, 4560, Note_on_c, 3, 74, 69
5, 4740, Note_on_c, 3, 74, 0
5, 4740, Note_on_c, 3, 71, 0
5, 4800, Note_on_c, 3, 69, 69
5, 4800, Note_on_c, 3, 73, 69
5, 4890, Note_on_c, 3, 73, 0
5, 4890, Note_on_c, 3, 69, 0
5, 5040, Note_on_c, 3, 73, 69
5, 5040, Note_on_c, 3, 76, 69
5, 5100, Note_on_c, 3, 76, 0
5, 5100, Note_on_c, 3, 73, 0
5, 5100, Note_on_c, 3, 76, 69
5, 5100, Note_on_c, 3, 81, 69
5, 5145, Note_on_c, 3, 81, 0
5, 5145, Note_on_c, 3, 76, 0
5, 5160, Note_on_c, 3, 69, 69
5, 5160, Note_on_c, 3, 73, 69
5, 5188, Note_on_c, 3, 73, 0
5, 5188, Note_on_c, 3, 69, 0
5, 5220, Note_on_c, 3, 71, 69
5, 5220, Note_on_c, 3, 74, 69
5, 5248, Note_on_c, 3, 74, 0
5, 5248, Note_on_c, 3, 71, 0
5, 5280, Note_on_c, 3, 73, 69
5, 5280, Note_on_c, 3, 76, 69
5, 5370, Note_on_c, 3, 76, 0
5, 5370, Note_on_c, 3, 73, 0
5, 5520, Note_on_c, 3, 73, 69
5, 5520, Note_on_c, 3, 76, 69
5, 5580, Note_on_c, 3, 76, 0
5, 5580, Note_on_c, 3, 73, 0
5, 5580, Note_on_c, 3, 76, 69
5, 5580, Note_on_c, 3, 81, 69
5, 5625, Note_on_c, 3, 81, 0
5, 5625, Note_on_c, 3, 76, 0
5, 5640, Note_on_c, 3, 69, 69
5, 5668, Note_on_c, 3, 69, 0
5, 5700, Note_on_c, 3, 68, 69
5, 5700, Note_on_c, 3, 71, 69
5, 5728, Note_on_c, 3, 71, 0
5, 5728, Note_on_c, 3, 68, 0
5, 5760, Note_on_c, 3, 69, 69
5, 5760, Note_on_c, 3, 73, 69
5, 5880, Note_on_c, 3, 73, 0
5, 5880, Note_on_c, 3, 69, 0
5, 5880, Note_on_c, 3, 73, 69
5, 5880, Note_on_c, 3, 76, 69
5, 5940, Note_on_c, 3, 76, 0
5, 5940, Note_on_c, 3, 73, 0
5, 5940, Note_on_c, 3, 71, 69
5, 5940, Note_on_c, 3, 74, 69
5, 5985, Note_on_c, 3, 74, 0
5, 5985, Note_on_c, 3, 71, 0
5, 6000, Note_on_c, 3, 69, 69
5, 6000, Note_on_c, 3, 73, 69
5, 6120, Note_on_c, 3, 73, 0
5, 6120, Note_on_c, 3, 69, 0
5, 6120, Note_on_c, 3, 68, 69
5, 6120, Note_on_c, 3, 71, 69
5, 6180, Note_on_c, 3, 71, 0
5, 6180, Note_on_c, 3, 68, 0
5, 6240, Note_on_c, 3, 69, 69
5, 6240, Note_on_c, 3, 73, 69
5, 6480, Note_on_c, 3, 73, 0
5, 6480, Note_on_c, 3, 69, 0
5, 6480, Note_on_c, 3, 71, 69
5, 6480, Note_on_c, 3, 74, 69
5, 6660, Note_on_c, 3, 74, 0
5, 6660, Note_on_c, 3, 71, 0
5, 6720, Note_on_c, 3, 69, 69
5, 6720, Note_on_c, 3, 73, 69
5, 6810, Note_on_c, 3, 73, 0
5, 6810, Note_on_c, 3, 69, 0
5, 6960, Note_on_c, 3, 73, 69
5, 6960, Note_on_c, 3, 76, 69
5, 7020, Note_on_c, 3, 76, 0
5, 7020, Note_on_c, 3, 73, 0
5, 7020, Note_on_c, 3, 76, 69
5, 7020, Note_on_c, 3, 81, 69
5, 7065, Note_on_c, 3, 81, 0
5, 7065, Note_on_c, 3, 76, 0
5, 7080, Note_on_c, 3, 69, 69
5, 7080, Note_on_c, 3, 73, 69
5, 7108, Note_on_c, 3, 73, 0
5, 7108, Note_on_c, 3, 69, 0
5, 7140, Note_on_c, 3, 71, 69
5, 7140, Note_on_c, 3, 74, 69
5, 7168, Note_on_c, 3, 74, 0
5, 7168, Note_on_c, 3, 71, 0
5, 7200, Note_on_c, 3, 73, 69
5, 7200, Note_on_c, 3, 76, 69
5, 7290, Note_on_c, 3, 76, 0
5, 7290, Note_on_c, 3, 73, 0
5, 7440, Note_on_c, 3, 73, 69
5, 7440, Note_on_c, 3, 76, 69
5, 7500, Note_on_c, 3, 76, 0
5, 7500, Note_on_c, 3, 73, 0
5, 7500, Note_on_c, 3, 76, 69
5, 7500, Note_on_c, 3, 81, 69
5, 7545, Note_on_c, 3, 81, 0
5, 7545, Note_on_c, 3, 76, 0
5, 7560, Note_on_c, 3, 69, 69
5, 7588, Note_on_c, 3, 69, 0
5, 7620, Note_on_c, 3, 68, 69
5, 7620, Note_on_c, 3, 71, 69
5, 7648, Note_on_c, 3, 71, 0
5, 7648, Note_on_c, 3, 68, 0
5, 7680, Note_on_c, 3, 69, 69
5, 7680, Note_on_c, 3, 73, 69
5, 7800, Note_on_c, 3, 73, 0
5, 7800, Note_on_c, 3, 69, 0
5, 7800, Note_on_c, 3, 68, 69
5, 7800, Note_on_c, 3, 71, 69
5, 7890, Note_on_c, 3, 71, 0
5, 7890, Note_on_c, 3, 68, 0
5, 7920, Note_on_c, 3, 69, 69
5, 8040, Note_on_c, 3, 69, 0
5, 18240, Note_on_c, 3, 71, 69
5, 18240, Note_on_c, 3, 80, 69
5, 18720, Note_on_c, 3, 80, 0
5, 18720, Note_on_c, 3, 71, 0
5, 18720, Note_on_c, 3, 73, 69
5, 18720, Note_on_c, 3, 81, 69
5, 18780, Note_on_c, 3, 81, 0
5, 18780, Note_on_c, 3, 73, 0
5, 20280, Note_on_c, 3, 78, 50
5, 20400, Note_on_c, 3, 78, 0
5, 20400, Note_on_c, 3, 81, 50
5, 20445, Note_on_c, 3, 81, 0
5, 20520, Note_on_c, 3, 80, 50
5, 20565, Note_on_c, 3, 80, 0
5, 20640, Note_on_c, 3, 74, 50
5, 20640, Note_on_c, 3, 80, 50
5, 20880, Note_on_c, 3, 80, 0
5, 20880, Note_on_c, 3, 74, 0
5, 20880, Note_on_c, 3, 73, 50
5, 20880, Note_on_c, 3, 81, 50
5, 21000, Note_on_c, 3, 81, 0
5, 21000, Note_on_c, 3, 73, 0
5, 50400, Note_on_c, 3, 71, 69
5, 50400, Note_on_c, 3, 80, 69
5, 50880, Note_on_c, 3, 80, 0
5, 50880, Note_on_c, 3, 71, 0
5, 50880, Note_on_c, 3, 73, 69
5, 50880, Note_on_c, 3, 81, 69
5, 50940, Note_on_c, 3, 81, 0
5, 50940, Note_on_c, 3, 73, 0
5, 52440, Note_on_c, 3, 78, 49
5, 52560, Note_on_c, 3, 78, 0
5, 52560, Note_on_c, 3, 81, 49
5, 52605, Note_on_c, 3, 81, 0
5, 52680, Note_on_c, 3, 74, 49
5, 52680, Note_on_c, 3, 80, 49
5, 52725, Note_on_c, 3, 80, 0
5, 52725, Note_on_c, 3, 74, 0
5, 52800, Note_on_c, 3, 73, 49
5, 52800, Note_on_c, 3, 81, 49
5, 52890, Note_on_c, 3, 81, 0
5, 52890, Note_on_c, 3, 73, 0
5, 54720, Note_on_c, 3, 74, 43
5, 54720, Note_on_c, 3, 80, 43
5, 54960, Note_on_c, 3, 80, 0
5, 54960, Note_on_c, 3, 74, 0
5, 54960, Note_on_c, 3, 73, 43
5, 54960, Note_on_c, 3, 81, 43
5, 55080, Note_on_c, 3, 81, 0
5, 55080, Note_on_c, 3, 73, 0
5, 55080, End_track
6, 0, Start_track
6, 120, Control_c, 4, 91, 96
6, 140, Control_c, 4, 0, 0
6, 141, Control_c, 4, 32, 0
6, 142, Program_c, 4, 70
6, 143, Control_c, 4, 7, 70
6, 143, Control_c, 4, 10, 64
6, 190, Control_c, 4, 7, 70
6, 4320, Note_on_c, 4, 61, 70
6, 4320, Note_on_c, 4, 57, 70
6, 4560, Note_on_c, 4, 57, 0
6, 4560, Note_on_c, 4, 61, 0
6, 4560, Note_on_c, 4, 62, 70
6, 4560, Note_on_c, 4, 59, 70
6, 4740, Note_on_c, 4, 59, 0
6, 4740, Note_on_c, 4, 62, 0
6, 4800, Note_on_c, 4, 57, 70
6, 4800, Note_on_c, 4, 61, 70
6, 4890, Note_on_c, 4, 61, 0
6, 4890, Note_on_c, 4, 57, 0
6, 5040, Note_on_c, 4, 61, 70
6, 5040, Note_on_c, 4, 64, 70
6, 5130, Note_on_c, 4, 64, 0
6, 5130, Note_on_c, 4, 61, 0
6, 5160, Note_on_c, 4, 57, 70
6, 5160, Note_on_c, 4, 61, 70
6, 5188, Note_on_c, 4, 61, 0
6, 5188, Note_on_c, 4, 57, 0
6, 5220, Note_on_c, 4, 59, 70
6, 5220, Note_on_c, 4, 62, 70
6, 5248, Note_on_c, 4, 62, 0
6, 5248, Note_on_c, 4, 59, 0
6, 5280, Note_on_c, 4, 61, 70
6, 5280, Note_on_c, 4, 64, 70
6, 5370, Note_on_c, 4, 64, 0
6, 5370, Note_on_c, 4, 61, 0
6, 5520, Note_on_c, 4, 61, 70
6, 5520, Note_on_c, 4, 64, 70
6, 5610, Note_on_c, 4, 64, 0
6, 5610, Note_on_c, 4, 61, 0
6, 5640, Note_on_c, 4, 57, 70
6, 5668, Note_on_c, 4, 57, 0
6, 5700, Note_on_c, 4, 56, 70
6, 5700, Note_on_c, 4, 59, 70
6, 5728, Note_on_c, 4, 59, 0
6, 5728, Note_on_c, 4, 56, 0
6, 5760, Note_on_c, 4, 57, 70
6, 5760, Note_on_c, 4, 61, 70
6, 5880, Note_on_c, 4, 61, 0
6, 5880, Note_on_c, 4, 57, 0
6, 5880, Note_on_c, 4, 61, 70
6, 5880, Note_on_c, 4, 64, 70
6, 5940, Note_on_c, 4, 64, 0
6, 5940, Note_on_c, 4, 61, 0
6, 5940, Note_on_c, 4, 59, 70
6, 5940, Note_on_c, 4, 62, 70
6, 5985, Note_on_c, 4, 62, 0
6, 5985, Note_on_c, 4, 59, 0
6, 6000, Note_on_c, 4, 57, 70
6, 6000, Note_on_c, 4, 61, 70
6, 6120, Note_on_c, 4, 61, 0
6, 6120, Note_on_c, 4, 57, 0
6, 6120, Note_on_c, 4, 56, 70
6, 6120, Note_on_c, 4, 59, 70
6, 6165, Note_on_c, 4, 59, 0
6, 6165, Note_on_c, 4, 56, 0
6, 6240, Note_on_c, 4, 57, 70
6, 6240, Note_on_c, 4, 61, 70
6, 6480, Note_on_c, 4, 61, 0
6, 6480, Note_on_c, 4, 57, 0
6, 6480, Note_on_c, 4, 59, 70
6, 6480, Note_on_c, 4, 62, 70
6, 6660, Note_on_c, 4, 62, 0
6, 6660, Note_on_c, 4, 59, 0
6, 6720, Note_on_c, 4, 57, 70
6, 6720, Note_on_c, 4, 61, 70
6, 6810, Note_on_c, 4, 61, 0
6, 6810, Note_on_c, 4, 57, 0
6, 6960, Note_on_c, 4, 61, 70
6, 6960, Note_on_c, 4, 64, 70
6, 7050, Note_on_c, 4, 64, 0
6, 7050, Note_on_c, 4, 61, 0
6, 7080, Note_on_c, 4, 57, 70
6, 7080, Note_on_c, 4, 61, 70
6, 7108, Note_on_c, 4, 61, 0
6, 7108, Note_on_c, 4, 57, 0
6, 7140, Note_on_c, 4, 59, 70
6, 7140, Note_on_c, 4, 62, 70
6, 7168, Note_on_c, 4, 62, 0
6, 7168, Note_on_c, 4, 59, 0
6, 7200, Note_on_c, 4, 61, 70
6, 7200, Note_on_c, 4, 64, 70
6, 7290, Note_on_c, 4, 64, 0
6, 7290, Note_on_c, 4, 61, 0
6, 7440, Note_on_c, 4, 61, 70
6, 7440, Note_on_c, 4, 64, 70
6, 7530, Note_on_c, 4, 64, 0
6, 7530, Note_on_c, 4, 61, 0
6, 7560, Note_on_c, 4, 57, 70
6, 7588, Note_on_c, 4, 57, 0
6, 7620, Note_on_c, 4, 56, 70
6, 7620, Note_on_c, 4, 59, 70
6, 7648, Note_on_c, 4, 59, 0
6, 7648, Note_on_c, 4, 56, 0
6, 7680, Note_on_c, 4, 57, 70
6, 7680, Note_on_c, 4, 61, 70
6, 7800, Note_on_c, 4, 61, 0
6, 7800, Note_on_c, 4, 57, 0
6, 7800, Note_on_c, 4, 56, 70
6, 7800, Note_on_c, 4, 59, 70
6, 7890, Note_on_c, 4, 59, 0
6, 7890, Note_on_c, 4, 56, 0
6, 7920, Note_on_c, 4, 57, 70
6, 8040, Note_on_c, 4, 57, 0
6, 17280, Note_on_c, 4, 62, 49
6, 17280, Note_on_c, 4, 54, 49
6, 17565, Note_on_c, 4, 54, 0
6, 17565, Note_on_c, 4, 62, 0
6, 17580, Note_on_c, 4, 61, 49
6, 17580, Note_on_c, 4, 52, 49
6, 17640, Note_on_c, 4, 52, 0
6, 17640, Note_on_c, 4, 61, 0
6, 17640, Note_on_c, 4, 59, 49
6, 17640, Note_on_c, 4, 50, 49
6, 17700, Note_on_c, 4, 50, 0
6, 17700, Note_on_c, 4, 59, 0
6, 17700, Note_on_c, 4, 57, 49
6, 17700, Note_on_c, 4, 49, 49
6, 17745, Note_on_c, 4, 49, 0
6, 17745, Note_on_c, 4, 57, 0
6, 17760, Note_on_c, 4, 66, 49
6, 17760, Note_on_c, 4, 62, 49
6, 18045, Note_on_c, 4, 62, 0
6, 18045, Note_on_c, 4, 66, 0
6, 18060, Note_on_c, 4, 61, 49
6, 18060, Note_on_c, 4, 64, 49
6, 18120, Note_on_c, 4, 64, 0
6, 18120, Note_on_c, 4, 61, 0
6, 18120, Note_on_c, 4, 59, 49
6, 18120, Note_on_c, 4, 62, 49
6, 18180, Note_on_c, 4, 62, 0
6, 18180, Note_on_c, 4, 59, 0
6, 18180, Note_on_c, 4, 57, 49
6, 18180, Note_on_c, 4, 61, 49
6, 18225, Note_on_c, 4, 61, 0
6, 18225, Note_on_c, 4, 57, 0
6, 18240, Note_on_c, 4, 62, 69
6, 18240, Note_on_c, 4, 59, 69
6, 18720, Note_on_c, 4, 59, 0
6, 18720, Note_on_c, 4, 62, 0
6, 18720, Note_on_c, 4, 57, 69
6, 18720, Note_on_c, 4, 61, 69
6, 18780, Note_on_c, 4, 61, 0
6, 18780, Note_on_c, 4, 57, 0
6, 20280, Note_on_c, 4, 59, 49
6, 20280, Note_on_c, 4, 62, 49
6, 20400, Note_on_c, 4, 62, 0
6, 20400, Note_on_c, 4, 59, 0
6, 20400, Note_on_c, 4, 57, 49
6, 20400, Note_on_c, 4, 61, 49
6, 20445, Note_on_c, 4, 61, 0
6, 20445, Note_on_c, 4, 57, 0
6, 20520, Note_on_c, 4, 56, 49
6, 20520, Note_on_c, 4, 59, 49
6, 20565, Note_on_c, 4, 59, 0
6, 20565, Note_on_c, 4, 56, 0
6, 20640, Note_on_c, 4, 56, 49
6, 20640, Note_on_c, 4, 59, 49
6, 20880, Note_on_c, 4, 59, 0
6, 20880, Note_on_c, 4, 56, 0
6, 20880, Note_on_c, 4, 57, 49
6, 20880, Note_on_c, 4, 61, 49
6, 21000, Note_on_c, 4, 61, 0
6, 21000, Note_on_c, 4, 57, 0
6, 29280, Note_on_c, 4, 48, 49
6, 29640, Note_on_c, 4, 48, 0
6, 29760, Note_on_c, 4, 47, 49
6, 30120, Note_on_c, 4, 47, 0
6, 30240, Note_on_c, 4, 48, 49
6, 30600, Note_on_c, 4, 48, 0
6, 30720, Note_on_c, 4, 47, 49
6, 31080, Note_on_c, 4, 47, 0
6, 31200, Note_on_c, 4, 48, 49
6, 31290, Note_on_c, 4, 48, 0
6, 49440, Note_on_c, 4, 54, 50
6, 49440, Note_on_c, 4, 62, 50
6, 49725, Note_on_c, 4, 62, 0
6, 49725, Note_on_c, 4, 54, 0
6, 49740, Note_on_c, 4, 52, 50
6, 49740, Note_on_c, 4, 61, 50
6, 49800, Note_on_c, 4, 61, 0
6, 49800, Note_on_c, 4, 52, 0
6, 49800, Note_on_c, 4, 50, 50
6, 49800, Note_on_c, 4, 59, 50
6, 49860, Note_on_c, 4, 59, 0
6, 49860, Note_on_c, 4, 50, 0
6, 49860, Note_on_c, 4, 49, 50
6, 49860, Note_on_c, 4, 57, 50
6, 49905, Note_on_c, 4, 57, 0
6, 49905, Note_on_c, 4, 49, 0
6, 49920, Note_on_c, 4, 66, 50
6, 49920, Note_on_c, 4, 62, 50
6, 50205, Note_on_c, 4, 62, 0
6, 50205, Note_on_c, 4, 66, 0
6, 50220, Note_on_c, 4, 61, 50
6, 50220, Note_on_c, 4, 64, 50
6, 50280, Note_on_c, 4, 64, 0
6, 50280, Note_on_c, 4, 61, 0
6, 50280, Note_on_c, 4, 59, 51
6, 50280, Note_on_c, 4, 62, 51
6, 50340, Note_on_c, 4, 62, 0
6, 50340, Note_on_c, 4, 59, 0
6, 50340, Note_on_c, 4, 57, 51
6, 50340, Note_on_c, 4, 61, 51
6, 50385, Note_on_c, 4, 61, 0
6, 50385, Note_on_c, 4, 57, 0
6, 50400, Note_on_c, 4, 62, 68
6, 50400, Note_on_c, 4, 59, 68
6, 50925, Note_on_c, 4, 59, 0
6, 50925, Note_on_c, 4, 62, 0
6, 52440, Note_on_c, 4, 59, 49
6, 52440, Note_on_c, 4, 62, 49
6, 52560, Note_on_c, 4, 62, 0
6, 52560, Note_on_c, 4, 59, 0
6, 52560, Note_on_c, 4, 57, 49
6, 52560, Note_on_c, 4, 61, 49
6, 52605, Note_on_c, 4, 61, 0
6, 52605, Note_on_c, 4, 57, 0
6, 52680, Note_on_c, 4, 56, 49
6, 52680, Note_on_c, 4, 59, 49
6, 52725, Note_on_c, 4, 59, 0
6, 52725, Note_on_c, 4, 56, 0
6, 52800, Note_on_c, 4, 57, 49
6, 52890, Note_on_c, 4, 57, 0
6, 54720, Note_on_c, 4, 56, 43
6, 54720, Note_on_c, 4, 62, 43
6, 54960, Note_on_c, 4, 62, 0
6, 54960, Note_on_c, 4, 56, 0
6, 54960, Note_on_c, 4, 57, 43
6, 54960, Note_on_c, 4, 61, 43
6, 55080, Note_on_c, 4, 61, 0
6, 55080, Note_on_c, 4, 57, 0
6, 55080, End_track
7, 0, Start_track
7, 120, Control_c, 5, 91, 96
7, 145, Control_c, 5, 0, 0
7, 146, Control_c, 5, 32, 0
7, 147, Program_c, 5, 60
7, 148, Control_c, 5, 7, 70
7, 148, Control_c, 5, 10, 64
7, 148, Control_c, 5, 7, 70
7, 4320, Note_on_c, 5, 76, 70
7, 4410, Note_on_c, 5, 76, 0
7, 4440, Note_on_c, 5, 76, 70
7, 4530, Note_on_c, 5, 76, 0
7, 4560, Note_on_c, 5, 76, 70
7, 4650, Note_on_c, 5, 76, 0
7, 4680, Note_on_c, 5, 76, 70
7, 4770, Note_on_c, 5, 76, 0
7, 4800, Note_on_c, 5, 69, 70
7, 4800, Note_on_c, 5, 76, 70
7, 4890, Note_on_c, 5, 76, 0
7, 4890, Note_on_c, 5, 69, 0
7, 5040, Note_on_c, 5, 69, 70
7, 5130, Note_on_c, 5, 69, 0
7, 5160, Note_on_c, 5, 69, 70
7, 5205, Note_on_c, 5, 69, 0
7, 5220, Note_on_c, 5, 69, 70
7, 5265, Note_on_c, 5, 69, 0
7, 5280, Note_on_c, 5, 69, 70
7, 5370, Note_on_c, 5, 69, 0
7, 5520, Note_on_c, 5, 69, 70
7, 5610, Note_on_c, 5, 69, 0
7, 5760, Note_on_c, 5, 69, 70
7, 5850, Note_on_c, 5, 69, 0
7, 5880, Note_on_c, 5, 69, 70
7, 5970, Note_on_c, 5, 69, 0
7, 6000, Note_on_c, 5, 76, 70
7, 6090, Note_on_c, 5, 76, 0
7, 6240, Note_on_c, 5, 76, 70
7, 6330, Note_on_c, 5, 76, 0
7, 6360, Note_on_c, 5, 76, 70
7, 6450, Note_on_c, 5, 76, 0
7, 6480, Note_on_c, 5, 76, 70
7, 6570, Note_on_c, 5, 76, 0
7, 6600, Note_on_c, 5, 76, 70
7, 6690, Note_on_c, 5, 76, 0
7, 6720, Note_on_c, 5, 69, 70
7, 6720, Note_on_c, 5, 76, 70
7, 6810, Note_on_c, 5, 76, 0
7, 6810, Note_on_c, 5, 69, 0
7, 6960, Note_on_c, 5, 69, 70
7, 7050, Note_on_c, 5, 69, 0
7, 7080, Note_on_c, 5, 69, 70
7, 7125, Note_on_c, 5, 69, 0
7, 7140, Note_on_c, 5, 69, 70
7, 7185, Note_on_c, 5, 69, 0
7, 7200, Note_on_c, 5, 69, 70
7, 7290, Note_on_c, 5, 69, 0
7, 7440, Note_on_c, 5, 69, 70
7, 7530, Note_on_c, 5, 69, 0
7, 7680, Note_on_c, 5, 76, 70
7, 7770, Note_on_c, 5, 76, 0
7, 7800, Note_on_c, 5, 76, 70
7, 7890, Note_on_c, 5, 76, 0
7, 7920, Note_on_c, 5, 69, 70
7, 8040, Note_on_c, 5, 69, 0
7, 17100, Note_on_c, 5, 69, 50
7, 17145, Note_on_c, 5, 69, 0
7, 17160, Note_on_c, 5, 69, 50
7, 17205, Note_on_c, 5, 69, 0
7, 17220, Note_on_c, 5, 69, 50
7, 17265, Note_on_c, 5, 69, 0
7, 17280, Note_on_c, 5, 69, 50
7, 18120, Note_on_c, 5, 69, 0
7, 18240, Note_on_c, 5, 69, 69
7, 18765, Note_on_c, 5, 69, 0
7, 20640, Note_on_c, 5, 76, 51
7, 20880, Note_on_c, 5, 69, 51
7, 21000, Note_on_c, 5, 69, 0
7, 21000, Note_on_c, 5, 76, 0
7, 34320, Note_on_c, 5, 68, 50
7, 34680, Note_on_c, 5, 68, 0
7, 49260, Note_on_c, 5, 69, 49
7, 49305, Note_on_c, 5, 69, 0
7, 49320, Note_on_c, 5, 69, 49
7, 49365, Note_on_c, 5, 69, 0
7, 49380, Note_on_c, 5, 69, 49
7, 49425, Note_on_c, 5, 69, 0
7, 49440, Note_on_c, 5, 69, 49
7, 50280, Note_on_c, 5, 69, 0
7, 50400, Note_on_c, 5, 69, 69
7, 50925, Note_on_c, 5, 69, 0
7, 53760, Note_on_c, 5, 76, 49
7, 54960, Note_on_c, 5, 76, 0
7, 54960, Note_on_c, 5, 69, 43
7, 54960, Note_on_c, 5, 76, 43
7, 55080, Note_on_c, 5, 76, 0
7, 55080, Note_on_c, 5, 69, 0
7, 55080, End_track
8, 0, Start_track
8, 120, Control_c, 6, 91, 96
8, 150, Control_c, 6, 0, 0
8, 151, Control_c, 6, 32, 0
8, 152, Program_c, 6, 48
8, 153, Control_c, 6, 7, 80
8, 153, Control_c, 6, 10, 64
8, 215, Control_c, 6, 7, 80
8, 4320, Note_on_c, 6, 76, 69
8, 4410, Note_on_c, 6, 76, 0
8, 4440, Note_on_c, 6, 76, 69
8, 4530, Note_on_c, 6, 76, 0
8, 4560, Note_on_c, 6, 76, 69
8, 4650, Note_on_c, 6, 76, 0
8, 4680, Note_on_c, 6, 76, 69
8, 4770, Note_on_c, 6, 76, 0
8, 4800, Note_on_c, 6, 76, 69
8, 4860, Note_on_c, 6, 76, 0
8, 4860, Note_on_c, 6, 81, 69
8, 4905, Note_on_c, 6, 81, 0
8, 4920, Note_on_c, 6, 73, 69
8, 4948, Note_on_c, 6, 73, 0
8, 4980, Note_on_c, 6, 74, 69
8, 5008, Note_on_c, 6, 74, 0
8, 5040, Note_on_c, 6, 76, 69
8, 5130, Note_on_c, 6, 76, 0
8, 5280, Note_on_c, 6, 76, 69
8, 5340, Note_on_c, 6, 76, 0
8, 5340, Note_on_c, 6, 81, 69
8, 5385, Note_on_c, 6, 81, 0
8, 5400, Note_on_c, 6, 73, 69
8, 5428, Note_on_c, 6, 73, 0
8, 5460, Note_on_c, 6, 74, 69
8, 5488, Note_on_c, 6, 74, 0
8, 5520, Note_on_c, 6, 76, 69
8, 5580, Note_on_c, 6, 76, 0
8, 5580, Note_on_c, 6, 81, 69
8, 5625, Note_on_c, 6, 81, 0
8, 5640, Note_on_c, 6, 69, 69
8, 5668, Note_on_c, 6, 69, 0
8, 5700, Note_on_c, 6, 71, 69
8, 5728, Note_on_c, 6, 71, 0
8, 5760, Note_on_c, 6, 73, 69
8, 5820, Note_on_c, 6, 73, 0
8, 5820, Note_on_c, 6, 69, 69
8, 5880, Note_on_c, 6, 69, 0
8, 5880, Note_on_c, 6, 76, 69
8, 5940, Note_on_c, 6, 76, 0
8, 5940, Note_on_c, 6, 74, 69
8, 5985, Note_on_c, 6, 74, 0
8, 6000, Note_on_c, 6, 73, 69
8, 6090, Note_on_c, 6, 73, 0
8, 6090, Note_on_c, 6, 74, 69
8, 6105, Note_on_c, 6, 73, 69
8, 6120, Note_on_c, 6, 73, 0
8, 6120, Note_on_c, 6, 74, 0
8, 6120, Note_on_c, 6, 71, 69
8, 6165, Note_on_c, 6, 71, 0
8, 6240, Note_on_c, 6, 76, 69
8, 6330, Note_on_c, 6, 76, 0
8, 6360, Note_on_c, 6, 76, 69
8, 6450, Note_on_c, 6, 76, 0
8, 6480, Note_on_c, 6, 76, 69
8, 6570, Note_on_c, 6, 76, 0
8, 6600, Note_on_c, 6, 76, 69
8, 6690, Note_on_c, 6, 76, 0
8, 6720, Note_on_c, 6, 76, 69
8, 6780, Note_on_c, 6, 76, 0
8, 6780, Note_on_c, 6, 81, 69
8, 6825, Note_on_c, 6, 81, 0
8, 6840, Note_on_c, 6, 73, 69
8, 6868, Note_on_c, 6, 73, 0
8, 6900, Note_on_c, 6, 74, 69
8, 6928, Note_on_c, 6, 74, 0
8, 6960, Note_on_c, 6, 76, 69
8, 7050, Note_on_c, 6, 76, 0
8, 7200, Note_on_c, 6, 76, 69
8, 7260, Note_on_c, 6, 76, 0
8, 7260, Note_on_c, 6, 81, 69
8, 7305, Note_on_c, 6, 81, 0
8, 7320, Note_on_c, 6, 73, 69
8, 7348, Note_on_c, 6, 73, 0
8, 7380, Note_on_c, 6, 74, 69
8, 7408, Note_on_c, 6, 74, 0
8, 7440, Note_on_c, 6, 76, 69
8, 7500, Note_on_c, 6, 76, 0
8, 7500, Note_on_c, 6, 81, 69
8, 7545, Note_on_c, 6, 81, 0
8, 7560, Note_on_c, 6, 69, 69
8, 7588, Note_on_c, 6, 69, 0
8, 7620, Note_on_c, 6, 71, 69
8, 7648, Note_on_c, 6, 71, 0
8, 7680, Note_on_c, 6, 73, 69
8, 7770, Note_on_c, 6, 73, 0
8, 7800, Note_on_c, 6, 71, 69
8, 7812, Note_on_c, 6, 73, 69
8, 7813, Note_on_c, 6, 71, 0
8, 7826, Note_on_c, 6, 73, 0
8, 7826, Note_on_c, 6, 71, 69
8, 7840, Note_on_c, 6, 71, 0
8, 7840, Note_on_c, 6, 73, 69
8, 7852, Note_on_c, 6, 71, 69
8, 7853, Note_on_c, 6, 73, 0
8, 7866, Note_on_c, 6, 71, 0
8, 7866, Note_on_c, 6, 73, 69
8, 7880, Note_on_c, 6, 73, 0
8, 7880, Note_on_c, 6, 71, 69
8, 7892, Note_on_c, 6, 69, 69
8, 7893, Note_on_c, 6, 71, 0
8, 7906, Note_on_c, 6, 69, 0
8, 7906, Note_on_c, 6, 71, 69
8, 7920, Note_on_c, 6, 71, 0
8, 7920, Note_on_c, 6, 69, 69
8, 7948, Note_on_c, 6, 69, 0
8, 7980, Note_on_c, 6, 64, 69
8, 8040, Note_on_c, 6, 64, 0
8, 8040, Note_on_c, 6, 61, 65
8, 8100, Note_on_c, 6, 61, 0
8, 8100, Note_on_c, 6, 57, 59
8, 8145, Note_on_c, 6, 57, 0
8, 17280, Note_on_c, 6, 74, 50
8, 17565, Note_on_c, 6, 74, 0
8, 17580, Note_on_c, 6, 73, 50
8, 17640, Note_on_c, 6, 73, 0
8, 17640, Note_on_c, 6, 71, 50
8, 17700, Note_on_c, 6, 71, 0
8, 17700, Note_on_c, 6, 69, 50
8, 17745, Note_on_c, 6, 69, 0
8, 17760, Note_on_c, 6, 78, 50
8, 18045, Note_on_c, 6, 78, 0
8, 18060, Note_on_c, 6, 76, 50
8, 18120, Note_on_c, 6, 76, 0
8, 18120, Note_on_c, 6, 74, 50
8, 18180, Note_on_c, 6, 74, 0
8, 18180, Note_on_c, 6, 73, 50
8, 18225, Note_on_c, 6, 73, 0
8, 18240, Note_on_c, 6, 81, 70
8, 18300, Note_on_c, 6, 81, 0
8, 18300, Note_on_c, 6, 80, 70
8, 18345, Note_on_c, 6, 80, 0
8, 18360, Note_on_c, 6, 80, 70
8, 18495, Note_on_c, 6, 80, 0
8, 18540, Note_on_c, 6, 85, 70
8, 18570, Note_on_c, 6, 85, 0
8, 18570, Note_on_c, 6, 83, 70
8, 18593, Note_on_c, 6, 83, 0
8, 18600, Note_on_c, 6, 81, 70
8, 18630, Note_on_c, 6, 81, 0
8, 18630, Note_on_c, 6, 80, 70
8, 18660, Note_on_c, 6, 80, 0
8, 18660, Note_on_c, 6, 78, 70
8, 18690, Note_on_c, 6, 78, 0
8, 18690, Note_on_c, 6, 76, 70
8, 18713, Note_on_c, 6, 76, 0
8, 18720, Note_on_c, 6, 81, 70
8, 18748, Note_on_c, 6, 81, 0
8, 18780, Note_on_c, 6, 81, 70
8, 18840, Note_on_c, 6, 81, 0
8, 18840, Note_on_c, 6, 80, 51
8, 18900, Note_on_c, 6, 80, 0
8, 18900, Note_on_c, 6, 79, 51
8, 18960, Note_on_c, 6, 79, 0
8, 18960, Note_on_c, 6, 78, 51
8, 19020, Note_on_c, 6, 78, 0
8, 19020, Note_on_c, 6, 77, 50
8, 19080, Note_on_c, 6, 77, 0
8, 19080, Note_on_c, 6, 76, 50
8, 19140, Note_on_c, 6, 76, 0
8, 19140, Note_on_c, 6, 75, 50
8, 19185, Note_on_c, 6, 75, 0
8, 19200, Note_on_c, 6, 76, 50
8, 19335, Note_on_c, 6, 76, 0
8, 19380, Note_on_c, 6, 74, 50
8, 19395, Note_on_c, 6, 74, 0
8, 19395, Note_on_c, 6, 73, 50
8, 19410, Note_on_c, 6, 73, 0
8, 19410, Note_on_c, 6, 71, 50
8, 19425, Note_on_c, 6, 71, 0
8, 19425, Note_on_c, 6, 69, 50
8, 19440, Note_on_c, 6, 69, 0
8, 19440, Note_on_c, 6, 73, 50
8, 19485, Note_on_c, 6, 73, 0
8, 19560, Note_on_c, 6, 71, 50
8, 19605, Note_on_c, 6, 71, 0
8, 19680, Note_on_c, 6, 69, 50
8, 19725, Note_on_c, 6, 69, 0
8, 19740, Note_on_c, 6, 81, 50
8, 19800, Note_on_c, 6, 81, 0
8, 19800, Note_on_c, 6, 80, 50
8, 19860, Note_on_c, 6, 80, 0
8, 19860, Note_on_c, 6, 79, 50
8, 19920, Note_on_c, 6, 79, 0
8, 19920, Note_on_c, 6, 78, 50
8, 19980, Note_on_c, 6, 78, 0
8, 19980, Note_on_c, 6, 77, 50
8, 20040, Note_on_c, 6, 77, 0
8, 20040, Note_on_c, 6, 76, 50
8, 20100, Note_on_c, 6, 76, 0
8, 20100, Note_on_c, 6, 75, 50
8, 20145, Note_on_c, 6, 75, 0
8, 20160, Note_on_c, 6, 78, 50
8, 20295, Note_on_c, 6, 78, 0
8, 20340, Note_on_c, 6, 76, 50
8, 20355, Note_on_c, 6, 76, 0
8, 20355, Note_on_c, 6, 74, 50
8, 20370, Note_on_c, 6, 74, 0
8, 20370, Note_on_c, 6, 73, 50
8, 20385, Note_on_c, 6, 73, 0
8, 20385, Note_on_c, 6, 71, 50
8, 20400, Note_on_c, 6, 71, 0
8, 20400, Note_on_c, 6, 76, 50
8, 20445, Note_on_c, 6, 76, 0
8, 20520, Note_on_c, 6, 68, 50
8, 20565, Note_on_c, 6, 68, 0
8, 20640, Note_on_c, 6, 71, 50
8, 20880, Note_on_c, 6, 71, 0
8, 20880, Note_on_c, 6, 69, 50
8, 21000, Note_on_c, 6, 69, 0
8, 21180, Note_on_c, 6, 64, 50
8, 21210, Note_on_c, 6, 64, 0
8, 21240, Note_on_c, 6, 64, 50
8, 21270, Note_on_c, 6, 64, 0
8, 21300, Note_on_c, 6, 64, 50
8, 21330, Note_on_c, 6, 64, 0
8, 21360, Note_on_c, 6, 64, 50
8, 21390, Note_on_c, 6, 64, 0
8, 21420, Note_on_c, 6, 64, 50
8, 21450, Note_on_c, 6, 64, 0
8, 21480, Note_on_c, 6, 64, 50
8, 21510, Note_on_c, 6, 64, 0
8, 21540, Note_on_c, 6, 64, 50
8, 21570, Note_on_c, 6, 64, 0
8, 21660, Note_on_c, 6, 68, 50
8, 21720, Note_on_c, 6, 68, 0
8, 21720, Note_on_c, 6, 69, 50
8, 21752, Note_on_c, 6, 69, 0
8, 21780, Note_on_c, 6, 69, 50
8, 21810, Note_on_c, 6, 69, 0
8, 21840, Note_on_c, 6, 69, 50
8, 21872, Note_on_c, 6, 69, 0
8, 21900, Note_on_c, 6, 69, 50
8, 21932, Note_on_c, 6, 69, 0
8, 21960, Note_on_c, 6, 69, 50
8, 21992, Note_on_c, 6, 69, 0
8, 22020, Note_on_c, 6, 69, 50
8, 22052, Note_on_c, 6, 69, 0
8, 22140, Note_on_c, 6, 68, 50
8, 22200, Note_on_c, 6, 68, 0
8, 22200, Note_on_c, 6, 69, 50
8, 22232, Note_on_c, 6, 69, 0
8, 22260, Note_on_c, 6, 69, 50
8, 22290, Note_on_c, 6, 69, 0
8, 22320, Note_on_c, 6, 69, 50
8, 22352, Note_on_c, 6, 69, 0
8, 22380, Note_on_c, 6, 69, 50
8, 22412, Note_on_c, 6, 69, 0
8, 22440, Note_on_c, 6, 69, 50
8, 22472, Note_on_c, 6, 69, 0
8, 22500, Note_on_c, 6, 69, 50
8, 22532, Note_on_c, 6, 69, 0
8, 22560, Note_on_c, 6, 64, 50
8, 22800, Note_on_c, 6, 64, 0
8, 22800, Note_on_c, 6, 64, 50
8, 22845, Note_on_c, 6, 64, 0
8, 22920, Note_on_c, 6, 71, 50
8, 22965, Note_on_c, 6, 71, 0
8, 23040, Note_on_c, 6, 69, 50
8, 23220, Note_on_c, 6, 69, 0
8, 23220, Note_on_c, 6, 71, 49
8, 23250, Note_on_c, 6, 71, 0
8, 23250, Note_on_c, 6, 69, 49
8, 23280, Note_on_c, 6, 69, 0
8, 23280, Note_on_c, 6, 68, 49
8, 23370, Note_on_c, 6, 68, 0
8, 23580, Note_on_c, 6, 69, 49
8, 23612, Note_on_c, 6, 69, 0
8, 23640, Note_on_c, 6, 69, 49
8, 23672, Note_on_c, 6, 69, 0
8, 23700, Note_on_c, 6, 69, 49
8, 23732, Note_on_c, 6, 69, 0
8, 23760, Note_on_c, 6, 69, 49
8, 23792, Note_on_c, 6, 69, 0
8, 23820, Note_on_c, 6, 69, 49
8, 23852, Note_on_c, 6, 69, 0
8, 23880, Note_on_c, 6, 69, 49
8, 23912, Note_on_c, 6, 69, 0
8, 23940, Note_on_c, 6, 69, 49
8, 23972, Note_on_c, 6, 69, 0
8, 24060, Note_on_c, 6, 68, 49
8, 24120, Note_on_c, 6, 68, 0
8, 24120, Note_on_c, 6, 69, 49
8, 24150, Note_on_c, 6, 69, 0
8, 24180, Note_on_c, 6, 69, 49
8, 24210, Note_on_c, 6, 69, 0
8, 24240, Note_on_c, 6, 69, 49
8, 24272, Note_on_c, 6, 69, 0
8, 24300, Note_on_c, 6, 69, 49
8, 24332, Note_on_c, 6, 69, 0
8, 24360, Note_on_c, 6, 69, 49
8, 24392, Note_on_c, 6, 69, 0
8, 24420, Note_on_c, 6, 69, 49
8, 24452, Note_on_c, 6, 69, 0
8, 24540, Note_on_c, 6, 68, 49
8, 24600, Note_on_c, 6, 68, 0
8, 24600, Note_on_c, 6, 69, 49
8, 24632, Note_on_c, 6, 69, 0
8, 24660, Note_on_c, 6, 69, 49
8, 24690, Note_on_c, 6, 69, 0
8, 24720, Note_on_c, 6, 69, 49
8, 24752, Note_on_c, 6, 69, 0
8, 24780, Note_on_c, 6, 69, 49
8, 24812, Note_on_c, 6, 69, 0
8, 24840, Note_on_c, 6, 69, 49
8, 24872, Note_on_c, 6, 69, 0
8, 24900, Note_on_c, 6, 69, 49
8, 24932, Note_on_c, 6, 69, 0
8, 24960, Note_on_c, 6, 71, 49
8, 25005, Note_on_c, 6, 71, 0
8, 25080, Note_on_c, 6, 69, 49
8, 25125, Note_on_c, 6, 69, 0
8, 25200, Note_on_c, 6, 68, 49
8, 25245, Note_on_c, 6, 68, 0
8, 25320, Note_on_c, 6, 66, 49
8, 25365, Note_on_c, 6, 66, 0
8, 25440, Note_on_c, 6, 63, 49
8, 25680, Note_on_c, 6, 63, 0
8, 25680, Note_on_c, 6, 64, 49
8, 25770, Note_on_c, 6, 64, 0
8, 25980, Note_on_c, 6, 71, 49
8, 26012, Note_on_c, 6, 71, 0
8, 26040, Note_on_c, 6, 71, 49
8, 26072, Note_on_c, 6, 71, 0
8, 26100, Note_on_c, 6, 71, 49
8, 26132, Note_on_c, 6, 71, 0
8, 26160, Note_on_c, 6, 71, 49
8, 26192, Note_on_c, 6, 71, 0
8, 26220, Note_on_c, 6, 71, 49
8, 26252, Note_on_c, 6, 71, 0
8, 26280, Note_on_c, 6, 71, 49
8, 26312, Note_on_c, 6, 71, 0
8, 26340, Note_on_c, 6, 71, 49
8, 26372, Note_on_c, 6, 71, 0
8, 26400, Note_on_c, 6, 76, 49
8, 26760, Note_on_c, 6, 76, 0
8, 26940, Note_on_c, 6, 73, 49
8, 27000, Note_on_c, 6, 73, 0
8, 27000, Note_on_c, 6, 74, 49
8, 27030, Note_on_c, 6, 74, 0
8, 27060, Note_on_c, 6, 74, 49
8, 27090, Note_on_c, 6, 74, 0
8, 27120, Note_on_c, 6, 74, 49
8, 27152, Note_on_c, 6, 74, 0
8, 27180, Note_on_c, 6, 74, 49
8, 27212, Note_on_c, 6, 74, 0
8, 27240, Note_on_c, 6, 74, 49
8, 27272, Note_on_c, 6, 74, 0
8, 27300, Note_on_c, 6, 74, 49
8, 27332, Note_on_c, 6, 74, 0
8, 27360, Note_on_c, 6, 74, 49
8, 27720, Note_on_c, 6, 74, 0
8, 27900, Note_on_c, 6, 64, 49
8, 27932, Note_on_c, 6, 64, 0
8, 27960, Note_on_c, 6, 64, 49
8, 27992, Note_on_c, 6, 64, 0
8, 28020, Note_on_c, 6, 64, 49
8, 28052, Note_on_c, 6, 64, 0
8, 28080, Note_on_c, 6, 64, 49
8, 28112, Note_on_c, 6, 64, 0
8, 28140, Note_on_c, 6, 64, 49
8, 28172, Note_on_c, 6, 64, 0
8, 28200, Note_on_c, 6, 64, 49
8, 28232, Note_on_c, 6, 64, 0
8, 28260, Note_on_c, 6, 64, 49
8, 28292, Note_on_c, 6, 64, 0
8, 28380, Note_on_c, 6, 65, 49
8, 28412, Note_on_c, 6, 65, 0
8, 28440, Note_on_c, 6, 65, 49
8, 28472, Note_on_c, 6, 65, 0
8, 28500, Note_on_c, 6, 65, 49
8, 28532, Note_on_c, 6, 65, 0
8, 28560, Note_on_c, 6, 65, 49
8, 28592, Note_on_c, 6, 65, 0
8, 28620, Note_on_c, 6, 65, 49
8, 28652, Note_on_c, 6, 65, 0
8, 28680, Note_on_c, 6, 65, 49
8, 28712, Note_on_c, 6, 65, 0
8, 28740, Note_on_c, 6, 65, 49
8, 28772, Note_on_c, 6, 65, 0
8, 28860, Note_on_c, 6, 64, 49
8, 28920, Note_on_c, 6, 64, 0
8, 28920, Note_on_c, 6, 67, 49
8, 28980, Note_on_c, 6, 67, 0
8, 28980, Note_on_c, 6, 64, 49
8, 29040, Note_on_c, 6, 64, 0
8, 29040, Note_on_c, 6, 67, 49
8, 29100, Note_on_c, 6, 67, 0
8, 29100, Note_on_c, 6, 64, 49
8, 29160, Note_on_c, 6, 64, 0
8, 29160, Note_on_c, 6, 67, 49
8, 29220, Note_on_c, 6, 67, 0
8, 29220, Note_on_c, 6, 65, 49
8, 29265, Note_on_c, 6, 65, 0
8, 29340, Note_on_c, 6, 64, 49
8, 29372, Note_on_c, 6, 64, 0
8, 29400, Note_on_c, 6, 64, 49
8, 29432, Note_on_c, 6, 64, 0
8, 29460, Note_on_c, 6, 64, 49
8, 29492, Note_on_c, 6, 64, 0
8, 29520, Note_on_c, 6, 64, 49
8, 29552, Note_on_c, 6, 64, 0
8, 29580, Note_on_c, 6, 64, 49
8, 29612, Note_on_c, 6, 64, 0
8, 29640, Note_on_c, 6, 64, 49
8, 29672, Note_on_c, 6, 64, 0
8, 29700, Note_on_c, 6, 64, 49
8, 29732, Note_on_c, 6, 64, 0
8, 29820, Note_on_c, 6, 65, 49
8, 29852, Note_on_c, 6, 65, 0
8, 29880, Note_on_c, 6, 65, 49
8, 29912, Note_on_c, 6, 65, 0
8, 29940, Note_on_c, 6, 65, 49
8, 29972, Note_on_c, 6, 65, 0
8, 30000, Note_on_c, 6, 65, 49
8, 30032, Note_on_c, 6, 65, 0
8, 30060, Note_on_c, 6, 65, 49
8, 30092, Note_on_c, 6, 65, 0
8, 30120, Note_on_c, 6, 65, 49
8, 30152, Note_on_c, 6, 65, 0
8, 30180, Note_on_c, 6, 65, 49
8, 30212, Note_on_c, 6, 65, 0
8, 30300, Note_on_c, 6, 64, 49
8, 30332, Note_on_c, 6, 64, 0
8, 30360, Note_on_c, 6, 64, 49
8, 30392, Note_on_c, 6, 64, 0
8, 30420, Note_on_c, 6, 64, 49
8, 30452, Note_on_c, 6, 64, 0
8, 30480, Note_on_c, 6, 64, 49
8, 30512, Note_on_c, 6, 64, 0
8, 30540, Note_on_c, 6, 64, 49
8, 30572, Note_on_c, 6, 64, 0
8, 30600, Note_on_c, 6, 64, 49
8, 30632, Note_on_c, 6, 64, 0
8, 30660, Note_on_c, 6, 64, 49
8, 30692, Note_on_c, 6, 64, 0
8, 30780, Note_on_c, 6, 65, 49
8, 30812, Note_on_c, 6, 65, 0
8, 30840, Note_on_c, 6, 65, 49
8, 30872, Note_on_c, 6, 65, 0
8, 30900, Note_on_c, 6, 65, 49
8, 30932, Note_on_c, 6, 65, 0
8, 30960, Note_on_c, 6, 65, 49
8, 30992, Note_on_c, 6, 65, 0
8, 31020, Note_on_c, 6, 65, 49
8, 31052, Note_on_c, 6, 65, 0
8, 31080, Note_on_c, 6, 65, 49
8, 31112, Note_on_c, 6, 65, 0
8, 31140, Note_on_c, 6, 65, 49
8, 31172, Note_on_c, 6, 65, 0
8, 31260, Note_on_c, 6, 64, 49
8, 31292, Note_on_c, 6, 64, 0
8, 31320, Note_on_c, 6, 64, 49
8, 31352, Note_on_c, 6, 64, 0
8, 31380, Note_on_c, 6, 64, 49
8, 31412, Note_on_c, 6, 64, 0
8, 31440, Note_on_c, 6, 64, 49
8, 31472, Note_on_c, 6, 64, 0
8, 31500, Note_on_c, 6, 64, 49
8, 31532, Note_on_c, 6, 64, 0
8, 31560, Note_on_c, 6, 64, 49
8, 31592, Note_on_c, 6, 64, 0
8, 31620, Note_on_c, 6, 64, 49
8, 31652, Note_on_c, 6, 64, 0
8, 31740, Note_on_c, 6, 64, 49
8, 31772, Note_on_c, 6, 64, 0
8, 31800, Note_on_c, 6, 64, 49
8, 31832, Note_on_c, 6, 64, 0
8, 31860, Note_on_c, 6, 64, 49
8, 31892, Note_on_c, 6, 64, 0
8, 31920, Note_on_c, 6, 64, 49
8, 31952, Note_on_c, 6, 64, 0
8, 31980, Note_on_c, 6, 64, 49
8, 32012, Note_on_c, 6, 64, 0
8, 32040, Note_on_c, 6, 64, 49
8, 32072, Note_on_c, 6, 64, 0
8, 32100, Note_on_c, 6, 64, 49
8, 32132, Note_on_c, 6, 64, 0
8, 32220, Note_on_c, 6, 64, 49
8, 32252, Note_on_c, 6, 64, 0
8, 32280, Note_on_c, 6, 64, 49
8, 32312, Note_on_c, 6, 64, 0
8, 32340, Note_on_c, 6, 64, 49
8, 32372, Note_on_c, 6, 64, 0
8, 32460, Note_on_c, 6, 64, 49
8, 32492, Note_on_c, 6, 64, 0
8, 32520, Note_on_c, 6, 64, 49
8, 32552, Note_on_c, 6, 64, 0
8, 32580, Note_on_c, 6, 64, 49
8, 32612, Note_on_c, 6, 64, 0
8, 32640, Note_on_c, 6, 63, 49
8, 32925, Note_on_c, 6, 63, 0
8, 32940, Note_on_c, 6, 72, 49
8, 33000, Note_on_c, 6, 72, 0
8, 33000, Note_on_c, 6, 71, 49
8, 33060, Note_on_c, 6, 71, 0
8, 33060, Note_on_c, 6, 69, 49
8, 33105, Note_on_c, 6, 69, 0
8, 33180, Note_on_c, 6, 68, 49
8, 33212, Note_on_c, 6, 68, 0
8, 33240, Note_on_c, 6, 68, 49
8, 33272, Note_on_c, 6, 68, 0
8, 33300, Note_on_c, 6, 68, 49
8, 33332, Note_on_c, 6, 68, 0
8, 33420, Note_on_c, 6, 68, 49
8, 33452, Note_on_c, 6, 68, 0
8, 33480, Note_on_c, 6, 68, 49
8, 33512, Note_on_c, 6, 68, 0
8, 33540, Note_on_c, 6, 68, 49
8, 33572, Note_on_c, 6, 68, 0
8, 33600, Note_on_c, 6, 69, 49
8, 33960, Note_on_c, 6, 69, 0
8, 34320, Note_on_c, 6, 64, 49
8, 34680, Note_on_c, 6, 64, 0
8, 45600, Note_on_c, 6, 76, 49
8, 45690, Note_on_c, 6, 76, 0
8, 45720, Note_on_c, 6, 76, 49
8, 45810, Note_on_c, 6, 76, 0
8, 45840, Note_on_c, 6, 76, 49
8, 45930, Note_on_c, 6, 76, 0
8, 45960, Note_on_c, 6, 76, 49
8, 46050, Note_on_c, 6, 76, 0
8, 46080, Note_on_c, 6, 76, 49
8, 46140, Note_on_c, 6, 76, 0
8, 46140, Note_on_c, 6, 81, 49
8, 46185, Note_on_c, 6, 81, 0
8, 46200, Note_on_c, 6, 73, 49
8, 46228, Note_on_c, 6, 73, 0
8, 46260, Note_on_c, 6, 74, 49
8, 46288, Note_on_c, 6, 74, 0
8, 46320, Note_on_c, 6, 76, 49
8, 46410, Note_on_c, 6, 76, 0
8, 46560, Note_on_c, 6, 76, 49
8, 46620, Note_on_c, 6, 76, 0
8, 46620, Note_on_c, 6, 81, 49
8, 46665, Note_on_c, 6, 81, 0
8, 46680, Note_on_c, 6, 73, 49
8, 46708, Note_on_c, 6, 73, 0
8, 46740, Note_on_c, 6, 74, 49
8, 46768, Note_on_c, 6, 74, 0
8, 46800, Note_on_c, 6, 76, 49
8, 46860, Note_on_c, 6, 76, 0
8, 46860, Note_on_c, 6, 81, 49
8, 46905, Note_on_c, 6, 81, 0
8, 46920, Note_on_c, 6, 69, 49
8, 46948, Note_on_c, 6, 69, 0
8, 46980, Note_on_c, 6, 71, 49
8, 47008, Note_on_c, 6, 71, 0
8, 47040, Note_on_c, 6, 73, 49
8, 47130, Note_on_c, 6, 73, 0
8, 47130, Note_on_c, 6, 69, 49
8, 47153, Note_on_c, 6, 69, 0
8, 47160, Note_on_c, 6, 76, 49
8, 47250, Note_on_c, 6, 76, 0
8, 47250, Note_on_c, 6, 74, 49
8, 47273, Note_on_c, 6, 74, 0
8, 47280, Note_on_c, 6, 73, 49
8, 47370, Note_on_c, 6, 73, 0
8, 47370, Note_on_c, 6, 74, 49
8, 47385, Note_on_c, 6, 74, 0
8, 47385, Note_on_c, 6, 73, 49
8, 47400, Note_on_c, 6, 73, 0
8, 47400, Note_on_c, 6, 71, 49
8, 47445, Note_on_c, 6, 71, 0
8, 47520, Note_on_c, 6, 76, 49
8, 47610, Note_on_c, 6, 76, 0
8, 47640, Note_on_c, 6, 76, 49
8, 47730, Note_on_c, 6, 76, 0
8, 47760, Note_on_c, 6, 76, 49
8, 47850, Note_on_c, 6, 76, 0
8, 47880, Note_on_c, 6, 76, 49
8, 47970, Note_on_c, 6, 76, 0
8, 48000, Note_on_c, 6, 76, 49
8, 48060, Note_on_c, 6, 76, 0
8, 48060, Note_on_c, 6, 81, 49
8, 48105, Note_on_c, 6, 81, 0
8, 48120, Note_on_c, 6, 73, 49
8, 48148, Note_on_c, 6, 73, 0
8, 48180, Note_on_c, 6, 74, 49
8, 48208, Note_on_c, 6, 74, 0
8, 48240, Note_on_c, 6, 76, 49
8, 48330, Note_on_c, 6, 76, 0
8, 48480, Note_on_c, 6, 76, 49
8, 48540, Note_on_c, 6, 76, 0
8, 48540, Note_on_c, 6, 81, 49
8, 48585, Note_on_c, 6, 81, 0
8, 48600, Note_on_c, 6, 73, 49
8, 48628, Note_on_c, 6, 73, 0
8, 48660, Note_on_c, 6, 74, 49
8, 48688, Note_on_c, 6, 74, 0
8, 48720, Note_on_c, 6, 76, 49
8, 48780, Note_on_c, 6, 76, 0
8, 48780, Note_on_c, 6, 81, 49
8, 48825, Note_on_c, 6, 81, 0
8, 48840, Note_on_c, 6, 69, 49
8, 48868, Note_on_c, 6, 69, 0
8, 48900, Note_on_c, 6, 71, 49
8, 48928, Note_on_c, 6, 71, 0
8, 48960, Note_on_c, 6, 73, 49
8, 49050, Note_on_c, 6, 73, 0
8, 49080, Note_on_c, 6, 71, 49
8, 49092, Note_on_c, 6, 73, 49
8, 49093, Note_on_c, 6, 71, 0
8, 49106, Note_on_c, 6, 73, 0
8, 49106, Note_on_c, 6, 71, 49
8, 49120, Note_on_c, 6, 71, 0
8, 49120, Note_on_c, 6, 73, 49
8, 49132, Note_on_c, 6, 71, 49
8, 49133, Note_on_c, 6, 73, 0
8, 49146, Note_on_c, 6, 71, 0
8, 49146, Note_on_c, 6, 73, 49
8, 49160, Note_on_c, 6, 73, 0
8, 49160, Note_on_c, 6, 71, 49
8, 49172, Note_on_c, 6, 69, 49
8, 49173, Note_on_c, 6, 71, 0
8, 49186, Note_on_c, 6, 69, 0
8, 49186, Note_on_c, 6, 71, 49
8, 49200, Note_on_c, 6, 71, 0
8, 49200, Note_on_c, 6, 69, 49
8, 49290, Note_on_c, 6, 69, 0
8, 49440, Note_on_c, 6, 74, 49
8, 49725, Note_on_c, 6, 74, 0
8, 49740, Note_on_c, 6, 73, 49
8, 49800, Note_on_c, 6, 73, 0
8, 49800, Note_on_c, 6, 71, 49
8, 49860, Note_on_c, 6, 71, 0
8, 49860, Note_on_c, 6, 69, 49
8, 49905, Note_on_c, 6, 69, 0
8, 49920, Note_on_c, 6, 78, 49
8, 50205, Note_on_c, 6, 78, 0
8, 50220, Note_on_c, 6, 76, 49
8, 50280, Note_on_c, 6, 76, 0
8, 50280, Note_on_c, 6, 74, 49
8, 50340, Note_on_c, 6, 74, 0
8, 50340, Note_on_c, 6, 73, 49
8, 50385, Note_on_c, 6, 73, 0
8, 50400, Note_on_c, 6, 81, 49
8, 50445, Note_on_c, 6, 81, 0
8, 50460, Note_on_c, 6, 80, 68
8, 50505, Note_on_c, 6, 80, 0
8, 50520, Note_on_c, 6, 80, 68
8, 50655, Note_on_c, 6, 80, 0
8, 50700, Note_on_c, 6, 85, 68
8, 50723, Note_on_c, 6, 85, 0
8, 50730, Note_on_c, 6, 83, 68
8, 50753, Note_on_c, 6, 83, 0
8, 50760, Note_on_c, 6, 81, 68
8, 50783, Note_on_c, 6, 81, 0
8, 50790, Note_on_c, 6, 80, 68
8, 50813, Note_on_c, 6, 80, 0
8, 50820, Note_on_c, 6, 78, 68
8, 50843, Note_on_c, 6, 78, 0
8, 50850, Note_on_c, 6, 76, 68
8, 50873, Note_on_c, 6, 76, 0
8, 50880, Note_on_c, 6, 81, 68
8, 50925, Note_on_c, 6, 81, 0
8, 50940, Note_on_c, 6, 81, 51
8, 51000, Note_on_c, 6, 81, 0
8, 51000, Note_on_c, 6, 80, 51
8, 51060, Note_on_c, 6, 80, 0
8, 51060, Note_on_c, 6, 79, 51
8, 51120, Note_on_c, 6, 79, 0
8, 51120, Note_on_c, 6, 78, 50
8, 51180, Note_on_c, 6, 78, 0
8, 51180, Note_on_c, 6, 77, 50
8, 51240, Note_on_c, 6, 77, 0
8, 51240, Note_on_c, 6, 76, 50
8, 51300, Note_on_c, 6, 76, 0
8, 51300, Note_on_c, 6, 75, 50
8, 51345, Note_on_c, 6, 75, 0
8, 51360, Note_on_c, 6, 76, 49
8, 51495, Note_on_c, 6, 76, 0
8, 51540, Note_on_c, 6, 74, 49
8, 51555, Note_on_c, 6, 74, 0
8, 51555, Note_on_c, 6, 73, 49
8, 51570, Note_on_c, 6, 73, 0
8, 51570, Note_on_c, 6, 71, 49
8, 51585, Note_on_c, 6, 71, 0
8, 51585, Note_on_c, 6, 69, 49
8, 51600, Note_on_c, 6, 69, 0
8, 51600, Note_on_c, 6, 73, 49
8, 51645, Note_on_c, 6, 73, 0
8, 51720, Note_on_c, 6, 71, 49
8, 51765, Note_on_c, 6, 71, 0
8, 51840, Note_on_c, 6, 69, 49
8, 51885, Note_on_c, 6, 69, 0
8, 51900, Note_on_c, 6, 81, 49
8, 51960, Note_on_c, 6, 81, 0
8, 51960, Note_on_c, 6, 80, 49
8, 52020, Note_on_c, 6, 80, 0
8, 52020, Note_on_c, 6, 79, 49
8, 52080, Note_on_c, 6, 79, 0
8, 52080, Note_on_c, 6, 78, 49
8, 52140, Note_on_c, 6, 78, 0
8, 52140, Note_on_c, 6, 77, 49
8, 52200, Note_on_c, 6, 77, 0
8, 52200, Note_on_c, 6, 76, 49
8, 52260, Note_on_c, 6, 76, 0
8, 52260, Note_on_c, 6, 75, 49
8, 52305, Note_on_c, 6, 75, 0
8, 52320, Note_on_c, 6, 78, 49
8, 52455, Note_on_c, 6, 78, 0
8, 52500, Note_on_c, 6, 76, 49
8, 52515, Note_on_c, 6, 76, 0
8, 52515, Note_on_c, 6, 74, 49
8, 52530, Note_on_c, 6, 74, 0
8, 52530, Note_on_c, 6, 73, 49
8, 52545, Note_on_c, 6, 73, 0
8, 52545, Note_on_c, 6, 71, 49
8, 52560, Note_on_c, 6, 71, 0
8, 52560, Note_on_c, 6, 76, 49
8, 52605, Note_on_c, 6, 76, 0
8, 52680, Note_on_c, 6, 68, 49
8, 52725, Note_on_c, 6, 68, 0
8, 52800, Note_on_c, 6, 69, 49
8, 52845, Note_on_c, 6, 69, 0
8, 52860, Note_on_c, 6, 64, 49
8, 52892, Note_on_c, 6, 64, 0
8, 52920, Note_on_c, 6, 64, 49
8, 52952, Note_on_c, 6, 64, 0
8, 52980, Note_on_c, 6, 64, 49
8, 53012, Note_on_c, 6, 64, 0
8, 53040, Note_on_c, 6, 64, 49
8, 53072, Note_on_c, 6, 64, 0
8, 53100, Note_on_c, 6, 64, 49
8, 53132, Note_on_c, 6, 64, 0
8, 53160, Note_on_c, 6, 64, 49
8, 53192, Note_on_c, 6, 64, 0
8, 53220, Note_on_c, 6, 64, 49
8, 53252, Note_on_c, 6, 64, 0
8, 53340, Note_on_c, 6, 64, 49
8, 53372, Note_on_c, 6, 64, 0
8, 53400, Note_on_c, 6, 64, 49
8, 53432, Note_on_c, 6, 64, 0
8, 53460, Note_on_c, 6, 64, 49
8, 53492, Note_on_c, 6, 64, 0
8, 53520, Note_on_c, 6, 64, 49
8, 53552, Note_on_c, 6, 64, 0
8, 53580, Note_on_c, 6, 64, 49
8, 53612, Note_on_c, 6, 64, 0
8, 53640, Note_on_c, 6, 64, 49
8, 53672, Note_on_c, 6, 64, 0
8, 53700, Note_on_c, 6, 64, 49
8, 53732, Note_on_c, 6, 64, 0
8, 53820, Note_on_c, 6, 64, 49
8, 53852, Note_on_c, 6, 64, 0
8, 53880, Note_on_c, 6, 64, 49
8, 53912, Note_on_c, 6, 64, 0
8, 53940, Note_on_c, 6, 64, 49
8, 53972, Note_on_c, 6, 64, 0
8, 54000, Note_on_c, 6, 64, 49
8, 54032, Note_on_c, 6, 64, 0
8, 54060, Note_on_c, 6, 64, 49
8, 54092, Note_on_c, 6, 64, 0
8, 54120, Note_on_c, 6, 64, 49
8, 54152, Note_on_c, 6, 64, 0
8, 54180, Note_on_c, 6, 64, 49
8, 54212, Note_on_c, 6, 64, 0
8, 54300, Note_on_c, 6, 64, 49
8, 54332, Note_on_c, 6, 64, 0
8, 54360, Note_on_c, 6, 64, 49
8, 54392, Note_on_c, 6, 64, 0
8, 54420, Note_on_c, 6, 64, 49
8, 54452, Note_on_c, 6, 64, 0
8, 54480, Note_on_c, 6, 64, 49
8, 54512, Note_on_c, 6, 64, 0
8, 54540, Note_on_c, 6, 64, 49
8, 54572, Note_on_c, 6, 64, 0
8, 54600, Note_on_c, 6, 64, 49
8, 54632, Note_on_c, 6, 64, 0
8, 54660, Note_on_c, 6, 64, 49
8, 54692, Note_on_c, 6, 64, 0
8, 54720, Note_on_c, 6, 68, 49
8, 54960, Note_on_c, 6, 68, 0
8, 54960, Note_on_c, 6, 69, 49
8, 55080, Note_on_c, 6, 69, 0
8, 55080, End_track
9, 0, Start_track
9, 120, Control_c, 7, 91, 96
9, 155, Control_c, 7, 0, 0
9, 156, Control_c, 7, 32, 0
9, 157, Program_c, 7, 48
9, 158, Control_c, 7, 7, 80
9, 158, Control_c, 7, 10, 64
9, 185, Control_c, 7, 7, 80
9, 4320, Note_on_c, 7, 61, 69
9, 4380, Note_on_c, 7, 61, 0
9, 4380, Note_on_c, 7, 59, 69
9, 4440, Note_on_c, 7, 59, 0
9, 4440, Note_on_c, 7, 61, 69
9, 4500, Note_on_c, 7, 61, 0
9, 4500, Note_on_c, 7, 57, 69
9, 4560, Note_on_c, 7, 57, 0
9, 4560, Note_on_c, 7, 62, 69
9, 4620, Note_on_c, 7, 62, 0
9, 4620, Note_on_c, 7, 59, 69
9, 4680, Note_on_c, 7, 59, 0
9, 4680, Note_on_c, 7, 62, 69
9, 4740, Note_on_c, 7, 62, 0
9, 4740, Note_on_c, 7, 59, 69
9, 4785, Note_on_c, 7, 59, 0
9, 4800, Note_on_c, 7, 61, 69
9, 4860, Note_on_c, 7, 61, 0
9, 4860, Note_on_c, 7, 64, 69
9, 4905, Note_on_c, 7, 64, 0
9, 4920, Note_on_c, 7, 61, 69
9, 4948, Note_on_c, 7, 61, 0
9, 4980, Note_on_c, 7, 62, 69
9, 5008, Note_on_c, 7, 62, 0
9, 5040, Note_on_c, 7, 64, 69
9, 5100, Note_on_c, 7, 64, 0
9, 5100, Note_on_c, 7, 69, 69
9, 5145, Note_on_c, 7, 69, 0
9, 5160, Note_on_c, 7, 61, 69
9, 5188, Note_on_c, 7, 61, 0
9, 5220, Note_on_c, 7, 62, 69
9, 5248, Note_on_c, 7, 62, 0
9, 5280, Note_on_c, 7, 64, 69
9, 5340, Note_on_c, 7, 64, 0
9, 5340, Note_on_c, 7, 69, 69
9, 5385, Note_on_c, 7, 69, 0
9, 5400, Note_on_c, 7, 61, 69
9, 5428, Note_on_c, 7, 61, 0
9, 5460, Note_on_c, 7, 62, 69
9, 5488, Note_on_c, 7, 62, 0
9, 5520, Note_on_c, 7, 64, 69
9, 5580, Note_on_c, 7, 64, 0
9, 5580, Note_on_c, 7, 69, 69
9, 5625, Note_on_c, 7, 69, 0
9, 5640, Note_on_c, 7, 57, 69
9, 5668, Note_on_c, 7, 57, 0
9, 5700, Note_on_c, 7, 59, 69
9, 5728, Note_on_c, 7, 59, 0
9, 5760, Note_on_c, 7, 61, 69
9, 5820, Note_on_c, 7, 61, 0
9, 5820, Note_on_c, 7, 57, 69
9, 5880, Note_on_c, 7, 57, 0
9, 5880, Note_on_c, 7, 64, 69
9, 5940, Note_on_c, 7, 64, 0
9, 5940, Note_on_c, 7, 62, 69
9, 6000, Note_on_c, 7, 62, 0
9, 6000, Note_on_c, 7, 61, 69
9, 6060, Note_on_c, 7, 61, 0
9, 6060, Note_on_c, 7, 64, 69
9, 6120, Note_on_c, 7, 64, 0
9, 6120, Note_on_c, 7, 62, 69
9, 6180, Note_on_c, 7, 62, 0
9, 6180, Note_on_c, 7, 59, 69
9, 6225, Note_on_c, 7, 59, 0
9, 6240, Note_on_c, 7, 61, 69
9, 6300, Note_on_c, 7, 61, 0
9, 6300, Note_on_c, 7, 57, 69
9, 6360, Note_on_c, 7, 57, 0
9, 6360, Note_on_c, 7, 61, 69
9, 6420, Note_on_c, 7, 61, 0
9, 6420, Note_on_c, 7, 57, 69
9, 6480, Note_on_c, 7, 57, 0
9, 6480, Note_on_c, 7, 62, 69
9, 6540, Note_on_c, 7, 62, 0
9, 6540, Note_on_c, 7, 59, 69
9, 6600, Note_on_c, 7, 59, 0
9, 6600, Note_on_c, 7, 62, 69
9, 6660, Note_on_c, 7, 62, 0
9, 6660, Note_on_c, 7, 59, 69
9, 6705, Note_on_c, 7, 59, 0
9, 6720, Note_on_c, 7, 61, 69
9, 6780, Note_on_c, 7, 61, 0
9, 6780, Note_on_c, 7, 64, 69
9, 6825, Note_on_c, 7, 64, 0
9, 6840, Note_on_c, 7, 61, 69
9, 6868, Note_on_c, 7, 61, 0
9, 6900, Note_on_c, 7, 62, 69
9, 6928, Note_on_c, 7, 62, 0
9, 6960, Note_on_c, 7, 64, 69
9, 7020, Note_on_c, 7, 64, 0
9, 7020, Note_on_c, 7, 69, 69
9, 7065, Note_on_c, 7, 69, 0
9, 7080, Note_on_c, 7, 61, 69
9, 7108, Note_on_c, 7, 61, 0
9, 7140, Note_on_c, 7, 62, 69
9, 7168, Note_on_c, 7, 62, 0
9, 7200, Note_on_c, 7, 64, 69
9, 7260, Note_on_c, 7, 64, 0
9, 7260, Note_on_c, 7, 69, 69
9, 7305, Note_on_c, 7, 69, 0
9, 7320, Note_on_c, 7, 61, 69
9, 7348, Note_on_c, 7, 61, 0
9, 7380, Note_on_c, 7, 62, 69
9, 7408, Note_on_c, 7, 62, 0
9, 7440, Note_on_c, 7, 64, 69
9, 7500, Note_on_c, 7, 64, 0
9, 7500, Note_on_c, 7, 69, 69
9, 7545, Note_on_c, 7, 69, 0
9, 7560, Note_on_c, 7, 57, 69
9, 7588, Note_on_c, 7, 57, 0
9, 7620, Note_on_c, 7, 59, 69
9, 7648, Note_on_c, 7, 59, 0
9, 7680, Note_on_c, 7, 61, 69
9, 7740, Note_on_c, 7, 61, 0
9, 7740, Note_on_c, 7, 64, 69
9, 7800, Note_on_c, 7, 64, 0
9, 7800, Note_on_c, 7, 62, 69
9, 7860, Note_on_c, 7, 62, 0
9, 7860, Note_on_c, 7, 59, 69
9, 7905, Note_on_c, 7, 59, 0
9, 7920, Note_on_c, 7, 57, 69
9, 7948, Note_on_c, 7, 57, 0
9, 7980, Note_on_c, 7, 64, 69
9, 8040, Note_on_c, 7, 64, 0
9, 8040, Note_on_c, 7, 61, 63
9, 8100, Note_on_c, 7, 61, 0
9, 8100, Note_on_c, 7, 57, 58
9, 8145, Note_on_c, 7, 57, 0
9, 17280, Note_on_c, 7, 66, 50
9, 17565, Note_on_c, 7, 66, 0
9, 17580, Note_on_c, 7, 64, 50
9, 17640, Note_on_c, 7, 64, 0
9, 17640, Note_on_c, 7, 62, 50
9, 17700, Note_on_c, 7, 62, 0
9, 17700, Note_on_c, 7, 61, 50
9, 17745, Note_on_c, 7, 61, 0
9, 17760, Note_on_c, 7, 74, 50
9, 18045, Note_on_c, 7, 74, 0
9, 18060, Note_on_c, 7, 73, 50
9, 18120, Note_on_c, 7, 73, 0
9, 18120, Note_on_c, 7, 71, 50
9, 18180, Note_on_c, 7, 71, 0
9, 18180, Note_on_c, 7, 69, 50
9, 18225, Note_on_c, 7, 69, 0
9, 18240, Note_on_c, 7, 74, 68
9, 18240, Note_on_c, 7, 64, 68
9, 18285, Note_on_c, 7, 64, 0
9, 18285, Note_on_c, 7, 74, 0
9, 18300, Note_on_c, 7, 74, 68
9, 18300, Note_on_c, 7, 64, 68
9, 18390, Note_on_c, 7, 64, 0
9, 18390, Note_on_c, 7, 74, 0
9, 18420, Note_on_c, 7, 74, 68
9, 18420, Note_on_c, 7, 64, 68
9, 18510, Note_on_c, 7, 64, 0
9, 18510, Note_on_c, 7, 74, 0
9, 18540, Note_on_c, 7, 74, 68
9, 18540, Note_on_c, 7, 64, 68
9, 18630, Note_on_c, 7, 64, 0
9, 18630, Note_on_c, 7, 74, 0
9, 18660, Note_on_c, 7, 74, 68
9, 18660, Note_on_c, 7, 64, 68
9, 18720, Note_on_c, 7, 64, 0
9, 18720, Note_on_c, 7, 74, 0
9, 18720, Note_on_c, 7, 73, 68
9, 18720, Note_on_c, 7, 64, 68
9, 18780, Note_on_c, 7, 64, 0
9, 18780, Note_on_c, 7, 73, 0
9, 19260, Note_on_c, 7, 60, 50
9, 19305, Note_on_c, 7, 60, 0
9, 19320, Note_on_c, 7, 61, 50
9, 19365, Note_on_c, 7, 61, 0
9, 19380, Note_on_c, 7, 64, 50
9, 19425, Note_on_c, 7, 64, 0
9, 19440, Note_on_c, 7, 69, 50
9, 19485, Note_on_c, 7, 69, 0
9, 19500, Note_on_c, 7, 69, 50
9, 19545, Note_on_c, 7, 69, 0
9, 19560, Note_on_c, 7, 68, 50
9, 19605, Note_on_c, 7, 68, 0
9, 19620, Note_on_c, 7, 68, 50
9, 19665, Note_on_c, 7, 68, 0
9, 19680, Note_on_c, 7, 69, 50
9, 19770, Note_on_c, 7, 69, 0
9, 20220, Note_on_c, 7, 61, 50
9, 20280, Note_on_c, 7, 61, 0
9, 20280, Note_on_c, 7, 62, 50
9, 20340, Note_on_c, 7, 62, 0
9, 20340, Note_on_c, 7, 66, 50
9, 20385, Note_on_c, 7, 66, 0
9, 20400, Note_on_c, 7, 61, 50
9, 20445, Note_on_c, 7, 61, 0
9, 20460, Note_on_c, 7, 61, 50
9, 20505, Note_on_c, 7, 61, 0
9, 20520, Note_on_c, 7, 62, 50
9, 20565, Note_on_c, 7, 62, 0
9, 20580, Note_on_c, 7, 62, 50
9, 20625, Note_on_c, 7, 62, 0
9, 20640, Note_on_c, 7, 62, 50
9, 20880, Note_on_c, 7, 62, 0
9, 20880, Note_on_c, 7, 61, 50
9, 21000, Note_on_c, 7, 61, 0
9, 21180, Note_on_c, 7, 61, 50
9, 21210, Note_on_c, 7, 61, 0
9, 21240, Note_on_c, 7, 61, 50
9, 21270, Note_on_c, 7, 61, 0
9, 21300, Note_on_c, 7, 61, 50
9, 21330, Note_on_c, 7, 61, 0
9, 21360, Note_on_c, 7, 61, 50
9, 21390, Note_on_c, 7, 61, 0
9, 21420, Note_on_c, 7, 61, 50
9, 21450, Note_on_c, 7, 61, 0
9, 21480, Note_on_c, 7, 61, 50
9, 21510, Note_on_c, 7, 61, 0
9, 21540, Note_on_c, 7, 61, 50
9, 21570, Note_on_c, 7, 61, 0
9, 21660, Note_on_c, 7, 62, 50
9, 21720, Note_on_c, 7, 62, 0
9, 21720, Note_on_c, 7, 61, 50
9, 21752, Note_on_c, 7, 61, 0
9, 21780, Note_on_c, 7, 61, 50
9, 21810, Note_on_c, 7, 61, 0
9, 21840, Note_on_c, 7, 61, 50
9, 21872, Note_on_c, 7, 61, 0
9, 21900, Note_on_c, 7, 61, 50
9, 21932, Note_on_c, 7, 61, 0
9, 21960, Note_on_c, 7, 61, 50
9, 21992, Note_on_c, 7, 61, 0
9, 22020, Note_on_c, 7, 61, 50
9, 22052, Note_on_c, 7, 61, 0
9, 22140, Note_on_c, 7, 62, 50
9, 22200, Note_on_c, 7, 62, 0
9, 22200, Note_on_c, 7, 61, 50
9, 22232, Note_on_c, 7, 61, 0
9, 22260, Note_on_c, 7, 61, 50
9, 22290, Note_on_c, 7, 61, 0
9, 22320, Note_on_c, 7, 61, 50
9, 22352, Note_on_c, 7, 61, 0
9, 22380, Note_on_c, 7, 61, 50
9, 22412, Note_on_c, 7, 61, 0
9, 22440, Note_on_c, 7, 61, 50
9, 22472, Note_on_c, 7, 61, 0
9, 22500, Note_on_c, 7, 61, 50
9, 22532, Note_on_c, 7, 61, 0
9, 22560, Note_on_c, 7, 62, 50
9, 22800, Note_on_c, 7, 62, 0
9, 22800, Note_on_c, 7, 61, 50
9, 22845, Note_on_c, 7, 61, 0
9, 22920, Note_on_c, 7, 62, 50
9, 22965, Note_on_c, 7, 62, 0
9, 23040, Note_on_c, 7, 61, 50
9, 23220, Note_on_c, 7, 61, 0
9, 23220, Note_on_c, 7, 62, 50
9, 23250, Note_on_c, 7, 62, 0
9, 23250, Note_on_c, 7, 61, 50
9, 23280, Note_on_c, 7, 61, 0
9, 23280, Note_on_c, 7, 59, 50
9, 23370, Note_on_c, 7, 59, 0
9, 23580, Note_on_c, 7, 61, 50
9, 23612, Note_on_c, 7, 61, 0
9, 23640, Note_on_c, 7, 61, 50
9, 23672, Note_on_c, 7, 61, 0
9, 23700, Note_on_c, 7, 61, 50
9, 23732, Note_on_c, 7, 61, 0
9, 23760, Note_on_c, 7, 61, 50
9, 23792, Note_on_c, 7, 61, 0
9, 23820, Note_on_c, 7, 61, 50
9, 23852, Note_on_c, 7, 61, 0
9, 23880, Note_on_c, 7, 61, 50
9, 23912, Note_on_c, 7, 61, 0
9, 23940, Note_on_c, 7, 61, 50
9, 23972, Note_on_c, 7, 61, 0
9, 24060, Note_on_c, 7, 62, 50
9, 24120, Note_on_c, 7, 62, 0
9, 24120, Note_on_c, 7, 61, 50
9, 24150, Note_on_c, 7, 61, 0
9, 24180, Note_on_c, 7, 61, 50
9, 24210, Note_on_c, 7, 61, 0
9, 24240, Note_on_c, 7, 61, 50
9, 24272, Note_on_c, 7, 61, 0
9, 24300, Note_on_c, 7, 61, 50
9, 24332, Note_on_c, 7, 61, 0
9, 24360, Note_on_c, 7, 61, 50
9, 24392, Note_on_c, 7, 61, 0
9, 24420, Note_on_c, 7, 61, 50
9, 24452, Note_on_c, 7, 61, 0
9, 24540, Note_on_c, 7, 62, 50
9, 24600, Note_on_c, 7, 62, 0
9, 24600, Note_on_c, 7, 61, 50
9, 24632, Note_on_c, 7, 61, 0
9, 24660, Note_on_c, 7, 61, 50
9, 24690, Note_on_c, 7, 61, 0
9, 24720, Note_on_c, 7, 61, 50
9, 24752, Note_on_c, 7, 61, 0
9, 24780, Note_on_c, 7, 61, 50
9, 24812, Note_on_c, 7, 61, 0
9, 24840, Note_on_c, 7, 61, 50
9, 24872, Note_on_c, 7, 61, 0
9, 24900, Note_on_c, 7, 61, 50
9, 24932, Note_on_c, 7, 61, 0
9, 24960, Note_on_c, 7, 59, 50
9, 25005, Note_on_c, 7, 59, 0
9, 25080, Note_on_c, 7, 61, 58
9, 25125, Note_on_c, 7, 61, 0
9, 25200, Note_on_c, 7, 59, 50
9, 25245, Note_on_c, 7, 59, 0
9, 25320, Note_on_c, 7, 57, 50
9, 25365, Note_on_c, 7, 57, 0
9, 25440, Note_on_c, 7, 57, 50
9, 25680, Note_on_c, 7, 57, 0
9, 25680, Note_on_c, 7, 56, 50
9, 25770, Note_on_c, 7, 56, 0
9, 25980, Note_on_c, 7, 64, 50
9, 26012, Note_on_c, 7, 64, 0
9, 26040, Note_on_c, 7, 64, 50
9, 26072, Note_on_c, 7, 64, 0
9, 26100, Note_on_c, 7, 64, 50
9, 26132, Note_on_c, 7, 64, 0
9, 26160, Note_on_c, 7, 64, 50
9, 26192, Note_on_c, 7, 64, 0
9, 26220, Note_on_c, 7, 64, 50
9, 26252, Note_on_c, 7, 64, 0
9, 26280, Note_on_c, 7, 64, 50
9, 26312, Note_on_c, 7, 64, 0
9, 26340, Note_on_c, 7, 64, 50
9, 26372, Note_on_c, 7, 64, 0
9, 26400, Note_on_c, 7, 66, 50
9, 26520, Note_on_c, 7, 66, 0
9, 26520, Note_on_c, 7, 71, 50
9, 26640, Note_on_c, 7, 71, 0
9, 26640, Note_on_c, 7, 70, 50
9, 26760, Note_on_c, 7, 70, 0
9, 26760, Note_on_c, 7, 73, 50
9, 26850, Note_on_c, 7, 73, 0
9, 26940, Note_on_c, 7, 70, 50
9, 27000, Note_on_c, 7, 70, 0
9, 27000, Note_on_c, 7, 71, 50
9, 27030, Note_on_c, 7, 71, 0
9, 27060, Note_on_c, 7, 71, 50
9, 27090, Note_on_c, 7, 71, 0
9, 27120, Note_on_c, 7, 69, 50
9, 27152, Note_on_c, 7, 69, 0
9, 27180, Note_on_c, 7, 69, 50
9, 27212, Note_on_c, 7, 69, 0
9, 27240, Note_on_c, 7, 69, 50
9, 27272, Note_on_c, 7, 69, 0
9, 27300, Note_on_c, 7, 69, 50
9, 27332, Note_on_c, 7, 69, 0
9, 27360, Note_on_c, 7, 71, 50
9, 27480, Note_on_c, 7, 71, 0
9, 27480, Note_on_c, 7, 69, 50
9, 27600, Note_on_c, 7, 69, 0
9, 27600, Note_on_c, 7, 68, 50
9, 27720, Note_on_c, 7, 68, 0
9, 27720, Note_on_c, 7, 71, 50
9, 27810, Note_on_c, 7, 71, 0
9, 27900, Note_on_c, 7, 60, 51
9, 27932, Note_on_c, 7, 60, 0
9, 27960, Note_on_c, 7, 60, 51
9, 27992, Note_on_c, 7, 60, 0
9, 28020, Note_on_c, 7, 60, 51
9, 28052, Note_on_c, 7, 60, 0
9, 28080, Note_on_c, 7, 60, 51
9, 28112, Note_on_c, 7, 60, 0
9, 28140, Note_on_c, 7, 60, 51
9, 28172, Note_on_c, 7, 60, 0
9, 28200, Note_on_c, 7, 60, 51
9, 28232, Note_on_c, 7, 60, 0
9, 28260, Note_on_c, 7, 60, 51
9, 28292, Note_on_c, 7, 60, 0
9, 28380, Note_on_c, 7, 62, 51
9, 28412, Note_on_c, 7, 62, 0
9, 28440, Note_on_c, 7, 62, 51
9, 28472, Note_on_c, 7, 62, 0
9, 28500, Note_on_c, 7, 62, 51
9, 28532, Note_on_c, 7, 62, 0
9, 28560, Note_on_c, 7, 62, 51
9, 28592, Note_on_c, 7, 62, 0
9, 28620, Note_on_c, 7, 62, 51
9, 28652, Note_on_c, 7, 62, 0
9, 28680, Note_on_c, 7, 62, 51
9, 28712, Note_on_c, 7, 62, 0
9, 28740, Note_on_c, 7, 62, 51
9, 28772, Note_on_c, 7, 62, 0
9, 28860, Note_on_c, 7, 60, 51
9, 28920, Note_on_c, 7, 60, 0
9, 28920, Note_on_c, 7, 64, 51
9, 28980, Note_on_c, 7, 64, 0
9, 28980, Note_on_c, 7, 60, 51
9, 29040, Note_on_c, 7, 60, 0
9, 29040, Note_on_c, 7, 64, 51
9, 29100, Note_on_c, 7, 64, 0
9, 29100, Note_on_c, 7, 60, 51
9, 29160, Note_on_c, 7, 60, 0
9, 29160, Note_on_c, 7, 64, 51
9, 29220, Note_on_c, 7, 64, 0
9, 29220, Note_on_c, 7, 59, 51
9, 29265, Note_on_c, 7, 59, 0
9, 29340, Note_on_c, 7, 60, 51
9, 29372, Note_on_c, 7, 60, 0
9, 29400, Note_on_c, 7, 60, 51
9, 29432, Note_on_c, 7, 60, 0
9, 29460, Note_on_c, 7, 60, 51
9, 29492, Note_on_c, 7, 60, 0
9, 29520, Note_on_c, 7, 60, 51
9, 29552, Note_on_c, 7, 60, 0
9, 29580, Note_on_c, 7, 60, 51
9, 29612, Note_on_c, 7, 60, 0
9, 29640, Note_on_c, 7, 60, 51
9, 29672, Note_on_c, 7, 60, 0
9, 29700, Note_on_c, 7, 60, 51
9, 29732, Note_on_c, 7, 60, 0
9, 29820, Note_on_c, 7, 62, 51
9, 29852, Note_on_c, 7, 62, 0
9, 29880, Note_on_c, 7, 62, 51
9, 29912, Note_on_c, 7, 62, 0
9, 29940, Note_on_c, 7, 62, 51
9, 29972, Note_on_c, 7, 62, 0
9, 30000, Note_on_c, 7, 62, 51
9, 30032, Note_on_c, 7, 62, 0
9, 30060, Note_on_c, 7, 62, 51
9, 30092, Note_on_c, 7, 62, 0
9, 30120, Note_on_c, 7, 62, 51
9, 30152, Note_on_c, 7, 62, 0
9, 30180, Note_on_c, 7, 62, 51
9, 30212, Note_on_c, 7, 62, 0
9, 30300, Note_on_c, 7, 60, 51
9, 30332, Note_on_c, 7, 60, 0
9, 30360, Note_on_c, 7, 60, 51
9, 30392, Note_on_c, 7, 60, 0
9, 30420, Note_on_c, 7, 60, 51
9, 30452, Note_on_c, 7, 60, 0
9, 30480, Note_on_c, 7, 60, 51
9, 30512, Note_on_c, 7, 60, 0
9, 30540, Note_on_c, 7, 60, 51
9, 30572, Note_on_c, 7, 60, 0
9, 30600, Note_on_c, 7, 60, 51
9, 30632, Note_on_c, 7, 60, 0
9, 30660, Note_on_c, 7, 60, 51
9, 30692, Note_on_c, 7, 60, 0
9, 30780, Note_on_c, 7, 62, 50
9, 30812, Note_on_c, 7, 62, 0
9, 30840, Note_on_c, 7, 62, 50
9, 30872, Note_on_c, 7, 62, 0
9, 30900, Note_on_c, 7, 62, 50
9, 30932, Note_on_c, 7, 62, 0
9, 30960, Note_on_c, 7, 62, 50
9, 30992, Note_on_c, 7, 62, 0
9, 31020, Note_on_c, 7, 62, 50
9, 31052, Note_on_c, 7, 62, 0
9, 31080, Note_on_c, 7, 62, 50
9, 31112, Note_on_c, 7, 62, 0
9, 31140, Note_on_c, 7, 62, 50
9, 31172, Note_on_c, 7, 62, 0
9, 31260, Note_on_c, 7, 60, 50
9, 31292, Note_on_c, 7, 60, 0
9, 31320, Note_on_c, 7, 60, 50
9, 31352, Note_on_c, 7, 60, 0
9, 31380, Note_on_c, 7, 60, 50
9, 31412, Note_on_c, 7, 60, 0
9, 31440, Note_on_c, 7, 60, 50
9, 31472, Note_on_c, 7, 60, 0
9, 31500, Note_on_c, 7, 60, 50
9, 31532, Note_on_c, 7, 60, 0
9, 31560, Note_on_c, 7, 60, 50
9, 31592, Note_on_c, 7, 60, 0
9, 31620, Note_on_c, 7, 60, 50
9, 31652, Note_on_c, 7, 60, 0
9, 31740, Note_on_c, 7, 62, 50
9, 31772, Note_on_c, 7, 62, 0
9, 31800, Note_on_c, 7, 62, 50
9, 31832, Note_on_c, 7, 62, 0
9, 31860, Note_on_c, 7, 62, 50
9, 31892, Note_on_c, 7, 62, 0
9, 31920, Note_on_c, 7, 62, 50
9, 31952, Note_on_c, 7, 62, 0
9, 31980, Note_on_c, 7, 62, 50
9, 32012, Note_on_c, 7, 62, 0
9, 32040, Note_on_c, 7, 62, 50
9, 32072, Note_on_c, 7, 62, 0
9, 32100, Note_on_c, 7, 62, 50
9, 32132, Note_on_c, 7, 62, 0
9, 32220, Note_on_c, 7, 60, 50
9, 32252, Note_on_c, 7, 60, 0
9, 32280, Note_on_c, 7, 60, 50
9, 32312, Note_on_c, 7, 60, 0
9, 32340, Note_on_c, 7, 60, 50
9, 32372, Note_on_c, 7, 60, 0
9, 32460, Note_on_c, 7, 60, 50
9, 32492, Note_on_c, 7, 60, 0
9, 32520, Note_on_c, 7, 60, 50
9, 32552, Note_on_c, 7, 60, 0
9, 32580, Note_on_c, 7, 60, 50
9, 32612, Note_on_c, 7, 60, 0
9, 32640, Note_on_c, 7, 60, 51
9, 33000, Note_on_c, 7, 60, 0
9, 33000, Note_on_c, 7, 59, 51
9, 33060, Note_on_c, 7, 59, 0
9, 33060, Note_on_c, 7, 57, 51
9, 33105, Note_on_c, 7, 57, 0
9, 33120, Note_on_c, 7, 56, 51
9, 33165, Note_on_c, 7, 56, 0
9, 33180, Note_on_c, 7, 64, 51
9, 33212, Note_on_c, 7, 64, 0
9, 33240, Note_on_c, 7, 64, 51
9, 33272, Note_on_c, 7, 64, 0
9, 33300, Note_on_c, 7, 64, 51
9, 33332, Note_on_c, 7, 64, 0
9, 33420, Note_on_c, 7, 64, 51
9, 33452, Note_on_c, 7, 64, 0
9, 33480, Note_on_c, 7, 64, 51
9, 33512, Note_on_c, 7, 64, 0
9, 33540, Note_on_c, 7, 64, 51
9, 33572, Note_on_c, 7, 64, 0
9, 33600, Note_on_c, 7, 66, 51
9, 33960, Note_on_c, 7, 66, 0
9, 34320, Note_on_c, 7, 59, 51
9, 34680, Note_on_c, 7, 59, 0
9, 45600, Note_on_c, 7, 61, 49
9, 45660, Note_on_c, 7, 61, 0
9, 45660, Note_on_c, 7, 57, 49
9, 45720, Note_on_c, 7, 57, 0
9, 45720, Note_on_c, 7, 61, 49
9, 45780, Note_on_c, 7, 61, 0
9, 45780, Note_on_c, 7, 57, 49
9, 45840, Note_on_c, 7, 57, 0
9, 45840, Note_on_c, 7, 62, 49
9, 45900, Note_on_c, 7, 62, 0
9, 45900, Note_on_c, 7, 59, 49
9, 45960, Note_on_c, 7, 59, 0
9, 45960, Note_on_c, 7, 62, 49
9, 46020, Note_on_c, 7, 62, 0
9, 46020, Note_on_c, 7, 59, 49
9, 46065, Note_on_c, 7, 59, 0
9, 46080, Note_on_c, 7, 61, 49
9, 46140, Note_on_c, 7, 61, 0
9, 46140, Note_on_c, 7, 64, 49
9, 46185, Note_on_c, 7, 64, 0
9, 46200, Note_on_c, 7, 61, 49
9, 46228, Note_on_c, 7, 61, 0
9, 46260, Note_on_c, 7, 62, 49
9, 46288, Note_on_c, 7, 62, 0
9, 46320, Note_on_c, 7, 64, 49
9, 46380, Note_on_c, 7, 64, 0
9, 46380, Note_on_c, 7, 69, 49
9, 46425, Note_on_c, 7, 69, 0
9, 46440, Note_on_c, 7, 61, 49
9, 46468, Note_on_c, 7, 61, 0
9, 46500, Note_on_c, 7, 62, 49
9, 46528, Note_on_c, 7, 62, 0
9, 46560, Note_on_c, 7, 64, 49
9, 46620, Note_on_c, 7, 64, 0
9, 46620, Note_on_c, 7, 69, 49
9, 46665, Note_on_c, 7, 69, 0
9, 46680, Note_on_c, 7, 61, 49
9, 46708, Note_on_c, 7, 61, 0
9, 46740, Note_on_c, 7, 62, 49
9, 46768, Note_on_c, 7, 62, 0
9, 46800, Note_on_c, 7, 64, 49
9, 46860, Note_on_c, 7, 64, 0
9, 46860, Note_on_c, 7, 69, 49
9, 46905, Note_on_c, 7, 69, 0
9, 46920, Note_on_c, 7, 57, 49
9, 46948, Note_on_c, 7, 57, 0
9, 46980, Note_on_c, 7, 59, 49
9, 47008, Note_on_c, 7, 59, 0
9, 47040, Note_on_c, 7, 61, 49
9, 47100, Note_on_c, 7, 61, 0
9, 47100, Note_on_c, 7, 57, 49
9, 47160, Note_on_c, 7, 57, 0
9, 47160, Note_on_c, 7, 64, 49
9, 47220, Note_on_c, 7, 64, 0
9, 47220, Note_on_c, 7, 62, 49
9, 47280, Note_on_c, 7, 62, 0
9, 47280, Note_on_c, 7, 61, 49
9, 47340, Note_on_c, 7, 61, 0
9, 47340, Note_on_c, 7, 64, 49
9, 47400, Note_on_c, 7, 64, 0
9, 47400, Note_on_c, 7, 62, 49
9, 47460, Note_on_c, 7, 62, 0
9, 47460, Note_on_c, 7, 59, 49
9, 47505, Note_on_c, 7, 59, 0
9, 47520, Note_on_c, 7, 61, 49
9, 47580, Note_on_c, 7, 61, 0
9, 47580, Note_on_c, 7, 57, 49
9, 47640, Note_on_c, 7, 57, 0
9, 47640, Note_on_c, 7, 61, 49
9, 47700, Note_on_c, 7, 61, 0
9, 47700, Note_on_c, 7, 57, 49
9, 47760, Note_on_c, 7, 57, 0
9, 47760, Note_on_c, 7, 62, 49
9, 47820, Note_on_c, 7, 62, 0
9, 47820, Note_on_c, 7, 59, 49
9, 47880, Note_on_c, 7, 59, 0
9, 47880, Note_on_c, 7, 62, 49
9, 47940, Note_on_c, 7, 62, 0
9, 47940, Note_on_c, 7, 59, 49
9, 47985, Note_on_c, 7, 59, 0
9, 48000, Note_on_c, 7, 61, 49
9, 48060, Note_on_c, 7, 61, 0
9, 48060, Note_on_c, 7, 64, 49
9, 48105, Note_on_c, 7, 64, 0
9, 48120, Note_on_c, 7, 61, 49
9, 48148, Note_on_c, 7, 61, 0
9, 48180, Note_on_c, 7, 62, 49
9, 48208, Note_on_c, 7, 62, 0
9, 48240, Note_on_c, 7, 64, 49
9, 48300, Note_on_c, 7, 64, 0
9, 48300, Note_on_c, 7, 69, 49
9, 48345, Note_on_c, 7, 69, 0
9, 48360, Note_on_c, 7, 61, 49
9, 48388, Note_on_c, 7, 61, 0
9, 48420, Note_on_c, 7, 62, 49
9, 48448, Note_on_c, 7, 62, 0
9, 48480, Note_on_c, 7, 64, 49
9, 48540, Note_on_c, 7, 64, 0
9, 48540, Note_on_c, 7, 69, 49
9, 48585, Note_on_c, 7, 69, 0
9, 48600, Note_on_c, 7, 61, 49
9, 48628, Note_on_c, 7, 61, 0
9, 48660, Note_on_c, 7, 62, 49
9, 48688, Note_on_c, 7, 62, 0
9, 48720, Note_on_c, 7, 64, 49
9, 48780, Note_on_c, 7, 64, 0
9, 48780, Note_on_c, 7, 69, 49
9, 48825, Note_on_c, 7, 69, 0
9, 48840, Note_on_c, 7, 57, 49
9, 48868, Note_on_c, 7, 57, 0
9, 48900, Note_on_c, 7, 59, 49
9, 48928, Note_on_c, 7, 59, 0
9, 48960, Note_on_c, 7, 61, 49
9, 49020, Note_on_c, 7, 61, 0
9, 49020, Note_on_c, 7, 64, 49
9, 49080, Note_on_c, 7, 64, 0
9, 49080, Note_on_c, 7, 62, 49
9, 49140, Note_on_c, 7, 62, 0
9, 49140, Note_on_c, 7, 59, 49
9, 49185, Note_on_c, 7, 59, 0
9, 49200, Note_on_c, 7, 57, 49
9, 49290, Note_on_c, 7, 57, 0
9, 49440, Note_on_c, 7, 66, 49
9, 49725, Note_on_c, 7, 66, 0
9, 49740, Note_on_c, 7, 64, 49
9, 49800, Note_on_c, 7, 64, 0
9, 49800, Note_on_c, 7, 62, 49
9, 49860, Note_on_c, 7, 62, 0
9, 49860, Note_on_c, 7, 61, 49
9, 49905, Note_on_c, 7, 61, 0
9, 49920, Note_on_c, 7, 74, 49
9, 50205, Note_on_c, 7, 74, 0
9, 50220, Note_on_c, 7, 73, 49
9, 50280, Note_on_c, 7, 73, 0
9, 50280, Note_on_c, 7, 71, 49
9, 50340, Note_on_c, 7, 71, 0
9, 50340, Note_on_c, 7, 69, 49
9, 50385, Note_on_c, 7, 69, 0
9, 50400, Note_on_c, 7, 74, 68
9, 50400, Note_on_c, 7, 64, 68
9, 50445, Note_on_c, 7, 64, 0
9, 50445, Note_on_c, 7, 74, 0
9, 50460, Note_on_c, 7, 74, 68
9, 50460, Note_on_c, 7, 64, 68
9, 50550, Note_on_c, 7, 64, 0
9, 50550, Note_on_c, 7, 74, 0
9, 50580, Note_on_c, 7, 74, 68
9, 50580, Note_on_c, 7, 64, 68
9, 50670, Note_on_c, 7, 64, 0
9, 50670, Note_on_c, 7, 74, 0
9, 50700, Note_on_c, 7, 74, 68
9, 50700, Note_on_c, 7, 64, 68
9, 50790, Note_on_c, 7, 64, 0
9, 50790, Note_on_c, 7, 74, 0
9, 50820, Note_on_c, 7, 64, 68
9, 50820, Note_on_c, 7, 74, 68
9, 50880, Note_on_c, 7, 74, 0
9, 50880, Note_on_c, 7, 64, 0
9, 50880, Note_on_c, 7, 64, 68
9, 50880, Note_on_c, 7, 73, 68
9, 50940, Note_on_c, 7, 73, 0
9, 50940, Note_on_c, 7, 64, 0
9, 51420, Note_on_c, 7, 60, 50
9, 51480, Note_on_c, 7, 60, 0
9, 51480, Note_on_c, 7, 61, 50
9, 51540, Note_on_c, 7, 61, 0
9, 51540, Note_on_c, 7, 64, 50
9, 51585, Note_on_c, 7, 64, 0
9, 51600, Note_on_c, 7, 69, 50
9, 51645, Note_on_c, 7, 69, 0
9, 51660, Note_on_c, 7, 69, 50
9, 51705, Note_on_c, 7, 69, 0
9, 51720, Note_on_c, 7, 68, 50
9, 51765, Note_on_c, 7, 68, 0
9, 51780, Note_on_c, 7, 68, 50
9, 51825, Note_on_c, 7, 68, 0
9, 51840, Note_on_c, 7, 69, 50
9, 51930, Note_on_c, 7, 69, 0
9, 52380, Note_on_c, 7, 61, 50
9, 52440, Note_on_c, 7, 61, 0
9, 52440, Note_on_c, 7, 62, 50
9, 52500, Note_on_c, 7, 62, 0
9, 52500, Note_on_c, 7, 66, 50
9, 52545, Note_on_c, 7, 66, 0
9, 52560, Note_on_c, 7, 61, 50
9, 52605, Note_on_c, 7, 61, 0
9, 52620, Note_on_c, 7, 61, 50
9, 52665, Note_on_c, 7, 61, 0
9, 52680, Note_on_c, 7, 62, 50
9, 52725, Note_on_c, 7, 62, 0
9, 52740, Note_on_c, 7, 62, 50
9, 52785, Note_on_c, 7, 62, 0
9, 52800, Note_on_c, 7, 61, 50
9, 52845, Note_on_c, 7, 61, 0
9, 52860, Note_on_c, 7, 61, 50
9, 52892, Note_on_c, 7, 61, 0
9, 52920, Note_on_c, 7, 61, 50
9, 52952, Note_on_c, 7, 61, 0
9, 52980, Note_on_c, 7, 61, 50
9, 53012, Note_on_c, 7, 61, 0
9, 53040, Note_on_c, 7, 61, 50
9, 53072, Note_on_c, 7, 61, 0
9, 53100, Note_on_c, 7, 61, 50
9, 53132, Note_on_c, 7, 61, 0
9, 53160, Note_on_c, 7, 61, 50
9, 53192, Note_on_c, 7, 61, 0
9, 53220, Note_on_c, 7, 61, 50
9, 53252, Note_on_c, 7, 61, 0
9, 53340, Note_on_c, 7, 61, 50
9, 53372, Note_on_c, 7, 61, 0
9, 53400, Note_on_c, 7, 61, 50
9, 53432, Note_on_c, 7, 61, 0
9, 53460, Note_on_c, 7, 61, 50
9, 53492, Note_on_c, 7, 61, 0
9, 53520, Note_on_c, 7, 59, 50
9, 53552, Note_on_c, 7, 59, 0
9, 53580, Note_on_c, 7, 59, 50
9, 53612, Note_on_c, 7, 59, 0
9, 53640, Note_on_c, 7, 62, 50
9, 53672, Note_on_c, 7, 62, 0
9, 53700, Note_on_c, 7, 62, 50
9, 53732, Note_on_c, 7, 62, 0
9, 53820, Note_on_c, 7, 61, 50
9, 53852, Note_on_c, 7, 61, 0
9, 53880, Note_on_c, 7, 61, 50
9, 53912, Note_on_c, 7, 61, 0
9, 53940, Note_on_c, 7, 61, 50
9, 53972, Note_on_c, 7, 61, 0
9, 54000, Note_on_c, 7, 61, 50
9, 54032, Note_on_c, 7, 61, 0
9, 54060, Note_on_c, 7, 61, 50
9, 54092, Note_on_c, 7, 61, 0
9, 54120, Note_on_c, 7, 61, 50
9, 54152, Note_on_c, 7, 61, 0
9, 54180, Note_on_c, 7, 61, 50
9, 54212, Note_on_c, 7, 61, 0
9, 54300, Note_on_c, 7, 61, 50
9, 54332, Note_on_c, 7, 61, 0
9, 54360, Note_on_c, 7, 61, 50
9, 54392, Note_on_c, 7, 61, 0
9, 54420, Note_on_c, 7, 61, 50
9, 54452, Note_on_c, 7, 61, 0
9, 54480, Note_on_c, 7, 59, 50
9, 54512, Note_on_c, 7, 59, 0
9, 54540, Note_on_c, 7, 59, 50
9, 54572, Note_on_c, 7, 59, 0
9, 54600, Note_on_c, 7, 62, 50
9, 54632, Note_on_c, 7, 62, 0
9, 54660, Note_on_c, 7, 62, 50
9, 54692, Note_on_c, 7, 62, 0
9, 54720, Note_on_c, 7, 64, 50
9, 54720, Note_on_c, 7, 62, 50
9, 54960, Note_on_c, 7, 62, 0
9, 54960, Note_on_c, 7, 64, 0
9, 54960, Note_on_c, 7, 61, 50
9, 54960, Note_on_c, 7, 64, 50
9, 55080, Note_on_c, 7, 64, 0
9, 55080, Note_on_c, 7, 61, 0
9, 55080, End_track
10, 0, Start_track
10, 120, Control_c, 8, 91, 96
10, 160, Control_c, 8, 0, 0
10, 161, Control_c, 8, 32, 0
10, 162, Program_c, 8, 48
10, 163, Control_c, 8, 7, 80
10, 163, Control_c, 8, 10, 64
10, 165, Control_c, 8, 7, 80
10, 4320, Note_on_c, 8, 57, 69
10, 4380, Note_on_c, 8, 57, 0
10, 4380, Note_on_c, 8, 52, 70
10, 4440, Note_on_c, 8, 52, 0
10, 4440, Note_on_c, 8, 57, 70
10, 4500, Note_on_c, 8, 57, 0
10, 4500, Note_on_c, 8, 52, 70
10, 4560, Note_on_c, 8, 52, 0
10, 4560, Note_on_c, 8, 59, 70
10, 4620, Note_on_c, 8, 59, 0
10, 4620, Note_on_c, 8, 52, 70
10, 4680, Note_on_c, 8, 52, 0
10, 4680, Note_on_c, 8, 59, 70
10, 4740, Note_on_c, 8, 59, 0
10, 4740, Note_on_c, 8, 52, 70
10, 4785, Note_on_c, 8, 52, 0
10, 4800, Note_on_c, 8, 57, 70
10, 4860, Note_on_c, 8, 57, 0
10, 4860, Note_on_c, 8, 61, 70
10, 4905, Note_on_c, 8, 61, 0
10, 4920, Note_on_c, 8, 57, 70
10, 4948, Note_on_c, 8, 57, 0
10, 4980, Note_on_c, 8, 59, 70
10, 5008, Note_on_c, 8, 59, 0
10, 5040, Note_on_c, 8, 61, 70
10, 5100, Note_on_c, 8, 61, 0
10, 5100, Note_on_c, 8, 64, 70
10, 5145, Note_on_c, 8, 64, 0
10, 5160, Note_on_c, 8, 57, 70
10, 5188, Note_on_c, 8, 57, 0
10, 5220, Note_on_c, 8, 59, 70
10, 5248, Note_on_c, 8, 59, 0
10, 5280, Note_on_c, 8, 61, 70
10, 5340, Note_on_c, 8, 61, 0
10, 5340, Note_on_c, 8, 64, 70
10, 5385, Note_on_c, 8, 64, 0
10, 5400, Note_on_c, 8, 57, 70
10, 5428, Note_on_c, 8, 57, 0
10, 5460, Note_on_c, 8, 59, 70
10, 5488, Note_on_c, 8, 59, 0
10, 5520, Note_on_c, 8, 61, 70
10, 5580, Note_on_c, 8, 61, 0
10, 5580, Note_on_c, 8, 64, 70
10, 5625, Note_on_c, 8, 64, 0
10, 5640, Note_on_c, 8, 57, 70
10, 5668, Note_on_c, 8, 57, 0
10, 5700, Note_on_c, 8, 56, 70
10, 5728, Note_on_c, 8, 56, 0
10, 5760, Note_on_c, 8, 57, 70
10, 5820, Note_on_c, 8, 57, 0
10, 5820, Note_on_c, 8, 52, 70
10, 5880, Note_on_c, 8, 52, 0
10, 5880, Note_on_c, 8, 61, 70
10, 5940, Note_on_c, 8, 61, 0
10, 5940, Note_on_c, 8, 59, 70
10, 6000, Note_on_c, 8, 59, 0
10, 6000, Note_on_c, 8, 57, 70
10, 6060, Note_on_c, 8, 57, 0
10, 6060, Note_on_c, 8, 61, 70
10, 6120, Note_on_c, 8, 61, 0
10, 6120, Note_on_c, 8, 59, 70
10, 6180, Note_on_c, 8, 59, 0
10, 6180, Note_on_c, 8, 56, 70
10, 6225, Note_on_c, 8, 56, 0
10, 6240, Note_on_c, 8, 57, 70
10, 6300, Note_on_c, 8, 57, 0
10, 6300, Note_on_c, 8, 52, 70
10, 6360, Note_on_c, 8, 52, 0
10, 6360, Note_on_c, 8, 57, 70
10, 6420, Note_on_c, 8, 57, 0
10, 6420, Note_on_c, 8, 52, 70
10, 6480, Note_on_c, 8, 52, 0
10, 6480, Note_on_c, 8, 59, 70
10, 6540, Note_on_c, 8, 59, 0
10, 6540, Note_on_c, 8, 52, 70
10, 6600, Note_on_c, 8, 52, 0
10, 6600, Note_on_c, 8, 59, 70
10, 6660, Note_on_c, 8, 59, 0
10, 6660, Note_on_c, 8, 52, 70
10, 6705, Note_on_c, 8, 52, 0
10, 6720, Note_on_c, 8, 57, 70
10, 6780, Note_on_c, 8, 57, 0
10, 6780, Note_on_c, 8, 61, 70
10, 6825, Note_on_c, 8, 61, 0
10, 6840, Note_on_c, 8, 57, 70
10, 6868, Note_on_c, 8, 57, 0
10, 6900, Note_on_c, 8, 59, 70
10, 6928, Note_on_c, 8, 59, 0
10, 6960, Note_on_c, 8, 61, 70
10, 7020, Note_on_c, 8, 61, 0
10, 7020, Note_on_c, 8, 64, 70
10, 7065, Note_on_c, 8, 64, 0
10, 7080, Note_on_c, 8, 57, 70
10, 7108, Note_on_c, 8, 57, 0
10, 7140, Note_on_c, 8, 59, 70
10, 7168, Note_on_c, 8, 59, 0
10, 7200, Note_on_c, 8, 61, 70
10, 7260, Note_on_c, 8, 61, 0
10, 7260, Note_on_c, 8, 64, 70
10, 7305, Note_on_c, 8, 64, 0
10, 7320, Note_on_c, 8, 57, 70
10, 7348, Note_on_c, 8, 57, 0
10, 7380, Note_on_c, 8, 59, 70
10, 7408, Note_on_c, 8, 59, 0
10, 7440, Note_on_c, 8, 61, 70
10, 7500, Note_on_c, 8, 61, 0
10, 7500, Note_on_c, 8, 64, 70
10, 7545, Note_on_c, 8, 64, 0
10, 7560, Note_on_c, 8, 57, 70
10, 7588, Note_on_c, 8, 57, 0
10, 7620, Note_on_c, 8, 56, 70
10, 7648, Note_on_c, 8, 56, 0
10, 7680, Note_on_c, 8, 57, 70
10, 7740, Note_on_c, 8, 57, 0
10, 7740, Note_on_c, 8, 61, 70
10, 7800, Note_on_c, 8, 61, 0
10, 7800, Note_on_c, 8, 59, 70
10, 7860, Note_on_c, 8, 59, 0
10, 7860, Note_on_c, 8, 56, 70
10, 7905, Note_on_c, 8, 56, 0
10, 7920, Note_on_c, 8, 57, 70
10, 7948, Note_on_c, 8, 57, 0
10, 7980, Note_on_c, 8, 64, 70
10, 8040, Note_on_c, 8, 64, 0
10, 8040, Note_on_c, 8, 61, 64
10, 8100, Note_on_c, 8, 61, 0
10, 8100, Note_on_c, 8, 57, 59
10, 8145, Note_on_c, 8, 57, 0
10, 17100, Note_on_c, 8, 69, 50
10, 17145, Note_on_c, 8, 69, 0
10, 17160, Note_on_c, 8, 69, 50
10, 17205, Note_on_c, 8, 69, 0
10, 17220, Note_on_c, 8, 69, 50
10, 17265, Note_on_c, 8, 69, 0
10, 17280, Note_on_c, 8, 57, 50
10, 17325, Note_on_c, 8, 57, 0
10, 17340, Note_on_c, 8, 69, 50
10, 17385, Note_on_c, 8, 69, 0
10, 17400, Note_on_c, 8, 69, 50
10, 17445, Note_on_c, 8, 69, 0
10, 17460, Note_on_c, 8, 69, 50
10, 17505, Note_on_c, 8, 69, 0
10, 17520, Note_on_c, 8, 69, 50
10, 17565, Note_on_c, 8, 69, 0
10, 17580, Note_on_c, 8, 69, 50
10, 17625, Note_on_c, 8, 69, 0
10, 17640, Note_on_c, 8, 69, 50
10, 17685, Note_on_c, 8, 69, 0
10, 17700, Note_on_c, 8, 69, 50
10, 17745, Note_on_c, 8, 69, 0
10, 17760, Note_on_c, 8, 57, 50
10, 17805, Note_on_c, 8, 57, 0
10, 17820, Note_on_c, 8, 69, 50
10, 17865, Note_on_c, 8, 69, 0
10, 17880, Note_on_c, 8, 69, 50
10, 17925, Note_on_c, 8, 69, 0
10, 17940, Note_on_c, 8, 69, 50
10, 17985, Note_on_c, 8, 69, 0
10, 18000, Note_on_c, 8, 69, 50
10, 18045, Note_on_c, 8, 69, 0
10, 18060, Note_on_c, 8, 69, 50
10, 18105, Note_on_c, 8, 69, 0
10, 18120, Note_on_c, 8, 69, 50
10, 18165, Note_on_c, 8, 69, 0
10, 18180, Note_on_c, 8, 69, 50
10, 18225, Note_on_c, 8, 69, 0
10, 18240, Note_on_c, 8, 71, 69
10, 18285, Note_on_c, 8, 71, 0
10, 18300, Note_on_c, 8, 71, 69
10, 18390, Note_on_c, 8, 71, 0
10, 18420, Note_on_c, 8, 71, 69
10, 18510, Note_on_c, 8, 71, 0
10, 18540, Note_on_c, 8, 71, 69
10, 18630, Note_on_c, 8, 71, 0
10, 18660, Note_on_c, 8, 71, 69
10, 18720, Note_on_c, 8, 71, 0
10, 18720, Note_on_c, 8, 69, 69
10, 18840, Note_on_c, 8, 69, 0
10, 19260, Note_on_c, 8, 56, 49
10, 19305, Note_on_c, 8, 56, 0
10, 19320, Note_on_c, 8, 57, 49
10, 19365, Note_on_c, 8, 57, 0
10, 19380, Note_on_c, 8, 61, 49
10, 19425, Note_on_c, 8, 61, 0
10, 19440, Note_on_c, 8, 64, 49
10, 19485, Note_on_c, 8, 64, 0
10, 19500, Note_on_c, 8, 64, 49
10, 19545, Note_on_c, 8, 64, 0
10, 19560, Note_on_c, 8, 62, 49
10, 19605, Note_on_c, 8, 62, 0
10, 19620, Note_on_c, 8, 62, 49
10, 19665, Note_on_c, 8, 62, 0
10, 19680, Note_on_c, 8, 61, 49
10, 19770, Note_on_c, 8, 61, 0
10, 20220, Note_on_c, 8, 58, 49
10, 20280, Note_on_c, 8, 58, 0
10, 20280, Note_on_c, 8, 59, 49
10, 20340, Note_on_c, 8, 59, 0
10, 20340, Note_on_c, 8, 62, 49
10, 20385, Note_on_c, 8, 62, 0
10, 20400, Note_on_c, 8, 57, 49
10, 20445, Note_on_c, 8, 57, 0
10, 20460, Note_on_c, 8, 57, 49
10, 20505, Note_on_c, 8, 57, 0
10, 20520, Note_on_c, 8, 59, 49
10, 20565, Note_on_c, 8, 59, 0
10, 20580, Note_on_c, 8, 59, 49
10, 20625, Note_on_c, 8, 59, 0
10, 20640, Note_on_c, 8, 56, 49
10, 20880, Note_on_c, 8, 56, 0
10, 20880, Note_on_c, 8, 57, 49
10, 21000, Note_on_c, 8, 57, 0
10, 21180, Note_on_c, 8, 57, 49
10, 21210, Note_on_c, 8, 57, 0
10, 21240, Note_on_c, 8, 57, 49
10, 21270, Note_on_c, 8, 57, 0
10, 21300, Note_on_c, 8, 57, 49
10, 21330, Note_on_c, 8, 57, 0
10, 21360, Note_on_c, 8, 57, 49
10, 21390, Note_on_c, 8, 57, 0
10, 21420, Note_on_c, 8, 57, 49
10, 21450, Note_on_c, 8, 57, 0
10, 21480, Note_on_c, 8, 57, 49
10, 21510, Note_on_c, 8, 57, 0
10, 21540, Note_on_c, 8, 57, 49
10, 21570, Note_on_c, 8, 57, 0
10, 21660, Note_on_c, 8, 64, 49
10, 21690, Note_on_c, 8, 64, 0
10, 21720, Note_on_c, 8, 64, 49
10, 21752, Note_on_c, 8, 64, 0
10, 21780, Note_on_c, 8, 64, 49
10, 21810, Note_on_c, 8, 64, 0
10, 21840, Note_on_c, 8, 64, 49
10, 21872, Note_on_c, 8, 64, 0
10, 21900, Note_on_c, 8, 64, 49
10, 21932, Note_on_c, 8, 64, 0
10, 21960, Note_on_c, 8, 64, 49
10, 21992, Note_on_c, 8, 64, 0
10, 22020, Note_on_c, 8, 64, 49
10, 22052, Note_on_c, 8, 64, 0
10, 22140, Note_on_c, 8, 64, 49
10, 22170, Note_on_c, 8, 64, 0
10, 22200, Note_on_c, 8, 64, 49
10, 22232, Note_on_c, 8, 64, 0
10, 22260, Note_on_c, 8, 64, 49
10, 22292, Note_on_c, 8, 64, 0
10, 22320, Note_on_c, 8, 64, 49
10, 22352, Note_on_c, 8, 64, 0
10, 22380, Note_on_c, 8, 64, 49
10, 22412, Note_on_c, 8, 64, 0
10, 22440, Note_on_c, 8, 64, 49
10, 22472, Note_on_c, 8, 64, 0
10, 22500, Note_on_c, 8, 64, 49
10, 22532, Note_on_c, 8, 64, 0
10, 22560, Note_on_c, 8, 59, 49
10, 22800, Note_on_c, 8, 59, 0
10, 22800, Note_on_c, 8, 57, 49
10, 22845, Note_on_c, 8, 57, 0
10, 22920, Note_on_c, 8, 66, 49
10, 22965, Note_on_c, 8, 66, 0
10, 23040, Note_on_c, 8, 64, 49
10, 23220, Note_on_c, 8, 64, 0
10, 23280, Note_on_c, 8, 52, 49
10, 23370, Note_on_c, 8, 52, 0
10, 23580, Note_on_c, 8, 64, 49
10, 23612, Note_on_c, 8, 64, 0
10, 23640, Note_on_c, 8, 64, 49
10, 23672, Note_on_c, 8, 64, 0
10, 23700, Note_on_c, 8, 64, 49
10, 23732, Note_on_c, 8, 64, 0
10, 23760, Note_on_c, 8, 64, 49
10, 23792, Note_on_c, 8, 64, 0
10, 23820, Note_on_c, 8, 64, 49
10, 23852, Note_on_c, 8, 64, 0
10, 23880, Note_on_c, 8, 64, 49
10, 23912, Note_on_c, 8, 64, 0
10, 23940, Note_on_c, 8, 64, 49
10, 23972, Note_on_c, 8, 64, 0
10, 24060, Note_on_c, 8, 64, 49
10, 24090, Note_on_c, 8, 64, 0
10, 24120, Note_on_c, 8, 64, 49
10, 24150, Note_on_c, 8, 64, 0
10, 24180, Note_on_c, 8, 64, 49
10, 24212, Note_on_c, 8, 64, 0
10, 24240, Note_on_c, 8, 64, 49
10, 24272, Note_on_c, 8, 64, 0
10, 24300, Note_on_c, 8, 64, 49
10, 24332, Note_on_c, 8, 64, 0
10, 24360, Note_on_c, 8, 64, 49
10, 24392, Note_on_c, 8, 64, 0
10, 24420, Note_on_c, 8, 64, 49
10, 24452, Note_on_c, 8, 64, 0
10, 24540, Note_on_c, 8, 64, 49
10, 24570, Note_on_c, 8, 64, 0
10, 24600, Note_on_c, 8, 64, 49
10, 24632, Note_on_c, 8, 64, 0
10, 24660, Note_on_c, 8, 64, 49
10, 24692, Note_on_c, 8, 64, 0
10, 24720, Note_on_c, 8, 64, 49
10, 24752, Note_on_c, 8, 64, 0
10, 24780, Note_on_c, 8, 64, 49
10, 24812, Note_on_c, 8, 64, 0
10, 24840, Note_on_c, 8, 64, 49
10, 24872, Note_on_c, 8, 64, 0
10, 24900, Note_on_c, 8, 64, 49
10, 24932, Note_on_c, 8, 64, 0
10, 24960, Note_on_c, 8, 64, 49
10, 25005, Note_on_c, 8, 64, 0
10, 25080, Note_on_c, 8, 66, 49
10, 25125, Note_on_c, 8, 66, 0
10, 25200, Note_on_c, 8, 64, 49
10, 25245, Note_on_c, 8, 64, 0
10, 25320, Note_on_c, 8, 63, 49
10, 25365, Note_on_c, 8, 63, 0
10, 25440, Note_on_c, 8, 59, 49
10, 25725, Note_on_c, 8, 59, 0
10, 25740, Note_on_c, 8, 64, 49
10, 25800, Note_on_c, 8, 64, 0
10, 25800, Note_on_c, 8, 64, 49
10, 25860, Note_on_c, 8, 64, 0
10, 25860, Note_on_c, 8, 64, 49
10, 25888, Note_on_c, 8, 64, 0
10, 25980, Note_on_c, 8, 59, 49
10, 26012, Note_on_c, 8, 59, 0
10, 26040, Note_on_c, 8, 59, 49
10, 26072, Note_on_c, 8, 59, 0
10, 26100, Note_on_c, 8, 59, 49
10, 26132, Note_on_c, 8, 59, 0
10, 26160, Note_on_c, 8, 59, 49
10, 26192, Note_on_c, 8, 59, 0
10, 26220, Note_on_c, 8, 59, 49
10, 26252, Note_on_c, 8, 59, 0
10, 26280, Note_on_c, 8, 59, 49
10, 26312, Note_on_c, 8, 59, 0
10, 26340, Note_on_c, 8, 59, 49
10, 26372, Note_on_c, 8, 59, 0
10, 26400, Note_on_c, 8, 61, 49
10, 26760, Note_on_c, 8, 61, 0
10, 26760, Note_on_c, 8, 58, 49
10, 26850, Note_on_c, 8, 58, 0
10, 26940, Note_on_c, 8, 66, 49
10, 26970, Note_on_c, 8, 66, 0
10, 27000, Note_on_c, 8, 66, 49
10, 27030, Note_on_c, 8, 66, 0
10, 27060, Note_on_c, 8, 66, 49
10, 27092, Note_on_c, 8, 66, 0
10, 27120, Note_on_c, 8, 62, 49
10, 27152, Note_on_c, 8, 62, 0
10, 27180, Note_on_c, 8, 62, 49
10, 27212, Note_on_c, 8, 62, 0
10, 27240, Note_on_c, 8, 62, 49
10, 27272, Note_on_c, 8, 62, 0
10, 27300, Note_on_c, 8, 62, 49
10, 27332, Note_on_c, 8, 62, 0
10, 27360, Note_on_c, 8, 59, 49
10, 27720, Note_on_c, 8, 59, 0
10, 27720, Note_on_c, 8, 56, 49
10, 27810, Note_on_c, 8, 56, 0
10, 27900, Note_on_c, 8, 57, 49
10, 27932, Note_on_c, 8, 57, 0
10, 27960, Note_on_c, 8, 57, 49
10, 27992, Note_on_c, 8, 57, 0
10, 28020, Note_on_c, 8, 57, 49
10, 28052, Note_on_c, 8, 57, 0
10, 28080, Note_on_c, 8, 57, 49
10, 28112, Note_on_c, 8, 57, 0
10, 28140, Note_on_c, 8, 57, 49
10, 28172, Note_on_c, 8, 57, 0
10, 28200, Note_on_c, 8, 57, 49
10, 28232, Note_on_c, 8, 57, 0
10, 28260, Note_on_c, 8, 57, 49
10, 28292, Note_on_c, 8, 57, 0
10, 28380, Note_on_c, 8, 57, 49
10, 28412, Note_on_c, 8, 57, 0
10, 28440, Note_on_c, 8, 57, 49
10, 28472, Note_on_c, 8, 57, 0
10, 28500, Note_on_c, 8, 57, 49
10, 28532, Note_on_c, 8, 57, 0
10, 28560, Note_on_c, 8, 57, 49
10, 28592, Note_on_c, 8, 57, 0
10, 28620, Note_on_c, 8, 57, 49
10, 28652, Note_on_c, 8, 57, 0
10, 28680, Note_on_c, 8, 57, 49
10, 28712, Note_on_c, 8, 57, 0
10, 28740, Note_on_c, 8, 57, 49
10, 28772, Note_on_c, 8, 57, 0
10, 28800, Note_on_c, 8, 55, 49
10, 29160, Note_on_c, 8, 55, 0
10, 29340, Note_on_c, 8, 55, 49
10, 29372, Note_on_c, 8, 55, 0
10, 29400, Note_on_c, 8, 55, 49
10, 29432, Note_on_c, 8, 55, 0
10, 29460, Note_on_c, 8, 55, 49
10, 29492, Note_on_c, 8, 55, 0
10, 29520, Note_on_c, 8, 55, 49
10, 29552, Note_on_c, 8, 55, 0
10, 29580, Note_on_c, 8, 55, 49
10, 29612, Note_on_c, 8, 55, 0
10, 29640, Note_on_c, 8, 55, 49
10, 29672, Note_on_c, 8, 55, 0
10, 29700, Note_on_c, 8, 55, 49
10, 29732, Note_on_c, 8, 55, 0
10, 29820, Note_on_c, 8, 55, 49
10, 29852, Note_on_c, 8, 55, 0
10, 29880, Note_on_c, 8, 55, 49
10, 29912, Note_on_c, 8, 55, 0
10, 29940, Note_on_c, 8, 55, 49
10, 29972, Note_on_c, 8, 55, 0
10, 30000, Note_on_c, 8, 55, 49
10, 30032, Note_on_c, 8, 55, 0
10, 30060, Note_on_c, 8, 55, 49
10, 30092, Note_on_c, 8, 55, 0
10, 30120, Note_on_c, 8, 55, 49
10, 30152, Note_on_c, 8, 55, 0
10, 30180, Note_on_c, 8, 55, 49
10, 30212, Note_on_c, 8, 55, 0
10, 30300, Note_on_c, 8, 55, 49
10, 30332, Note_on_c, 8, 55, 0
10, 30360, Note_on_c, 8, 55, 49
10, 30392, Note_on_c, 8, 55, 0
10, 30420, Note_on_c, 8, 55, 49
10, 30452, Note_on_c, 8, 55, 0
10, 30480, Note_on_c, 8, 55, 49
10, 30512, Note_on_c, 8, 55, 0
10, 30540, Note_on_c, 8, 55, 49
10, 30572, Note_on_c, 8, 55, 0
10, 30600, Note_on_c, 8, 55, 49
10, 30632, Note_on_c, 8, 55, 0
10, 30660, Note_on_c, 8, 55, 49
10, 30692, Note_on_c, 8, 55, 0
10, 30780, Note_on_c, 8, 55, 49
10, 30812, Note_on_c, 8, 55, 0
10, 30840, Note_on_c, 8, 55, 49
10, 30872, Note_on_c, 8, 55, 0
10, 30900, Note_on_c, 8, 55, 49
10, 30932, Note_on_c, 8, 55, 0
10, 30960, Note_on_c, 8, 55, 49
10, 30992, Note_on_c, 8, 55, 0
10, 31020, Note_on_c, 8, 55, 49
10, 31052, Note_on_c, 8, 55, 0
10, 31080, Note_on_c, 8, 55, 49
10, 31112, Note_on_c, 8, 55, 0
10, 31140, Note_on_c, 8, 55, 49
10, 31172, Note_on_c, 8, 55, 0
10, 31260, Note_on_c, 8, 55, 49
10, 31288, Note_on_c, 8, 55, 0
10, 31320, Note_on_c, 8, 55, 49
10, 31380, Note_on_c, 8, 55, 0
10, 31380, Note_on_c, 8, 56, 49
10, 31440, Note_on_c, 8, 56, 0
10, 31440, Note_on_c, 8, 57, 49
10, 31472, Note_on_c, 8, 57, 0
10, 31500, Note_on_c, 8, 57, 49
10, 31532, Note_on_c, 8, 57, 0
10, 31560, Note_on_c, 8, 57, 49
10, 31592, Note_on_c, 8, 57, 0
10, 31620, Note_on_c, 8, 57, 49
10, 31652, Note_on_c, 8, 57, 0
10, 31740, Note_on_c, 8, 59, 49
10, 31772, Note_on_c, 8, 59, 0
10, 31800, Note_on_c, 8, 59, 49
10, 31832, Note_on_c, 8, 59, 0
10, 31860, Note_on_c, 8, 59, 49
10, 31892, Note_on_c, 8, 59, 0
10, 31920, Note_on_c, 8, 59, 49
10, 31952, Note_on_c, 8, 59, 0
10, 31980, Note_on_c, 8, 59, 49
10, 32012, Note_on_c, 8, 59, 0
10, 32040, Note_on_c, 8, 59, 49
10, 32072, Note_on_c, 8, 59, 0
10, 32100, Note_on_c, 8, 59, 49
10, 32132, Note_on_c, 8, 59, 0
10, 32220, Note_on_c, 8, 57, 49
10, 32252, Note_on_c, 8, 57, 0
10, 32280, Note_on_c, 8, 57, 49
10, 32312, Note_on_c, 8, 57, 0
10, 32340, Note_on_c, 8, 57, 49
10, 32372, Note_on_c, 8, 57, 0
10, 32460, Note_on_c, 8, 57, 49
10, 32492, Note_on_c, 8, 57, 0
10, 32520, Note_on_c, 8, 57, 49
10, 32552, Note_on_c, 8, 57, 0
10, 32580, Note_on_c, 8, 57, 49
10, 32612, Note_on_c, 8, 57, 0
10, 32640, Note_on_c, 8, 57, 49
10, 33000, Note_on_c, 8, 57, 0
10, 33000, Note_on_c, 8, 51, 49
10, 33090, Note_on_c, 8, 51, 0
10, 33120, Note_on_c, 8, 52, 49
10, 33165, Note_on_c, 8, 52, 0
10, 33180, Note_on_c, 8, 59, 49
10, 33212, Note_on_c, 8, 59, 0
10, 33240, Note_on_c, 8, 59, 49
10, 33272, Note_on_c, 8, 59, 0
10, 33300, Note_on_c, 8, 59, 49
10, 33332, Note_on_c, 8, 59, 0
10, 33420, Note_on_c, 8, 59, 49
10, 33452, Note_on_c, 8, 59, 0
10, 33480, Note_on_c, 8, 59, 49
10, 33512, Note_on_c, 8, 59, 0
10, 33540, Note_on_c, 8, 59, 49
10, 33572, Note_on_c, 8, 59, 0
10, 33600, Note_on_c, 8, 60, 49
10, 33960, Note_on_c, 8, 60, 0
10, 45600, Note_on_c, 8, 57, 50
10, 45660, Note_on_c, 8, 57, 0
10, 45660, Note_on_c, 8, 52, 50
10, 45720, Note_on_c, 8, 52, 0
10, 45720, Note_on_c, 8, 57, 50
10, 45780, Note_on_c, 8, 57, 0
10, 45780, Note_on_c, 8, 52, 50
10, 45840, Note_on_c, 8, 52, 0
10, 45840, Note_on_c, 8, 59, 50
10, 45900, Note_on_c, 8, 59, 0
10, 45900, Note_on_c, 8, 52, 50
10, 45960, Note_on_c, 8, 52, 0
10, 45960, Note_on_c, 8, 59, 50
10, 46020, Note_on_c, 8, 59, 0
10, 46020, Note_on_c, 8, 52, 50
10, 46065, Note_on_c, 8, 52, 0
10, 46080, Note_on_c, 8, 57, 50
10, 46140, Note_on_c, 8, 57, 0
10, 46140, Note_on_c, 8, 61, 50
10, 46185, Note_on_c, 8, 61, 0
10, 46200, Note_on_c, 8, 57, 50
10, 46228, Note_on_c, 8, 57, 0
10, 46260, Note_on_c, 8, 59, 50
10, 46288, Note_on_c, 8, 59, 0
10, 46320, Note_on_c, 8, 61, 50
10, 46380, Note_on_c, 8, 61, 0
10, 46380, Note_on_c, 8, 64, 50
10, 46425, Note_on_c, 8, 64, 0
10, 46440, Note_on_c, 8, 57, 50
10, 46468, Note_on_c, 8, 57, 0
10, 46500, Note_on_c, 8, 59, 50
10, 46528, Note_on_c, 8, 59, 0
10, 46560, Note_on_c, 8, 61, 50
10, 46620, Note_on_c, 8, 61, 0
10, 46620, Note_on_c, 8, 64, 50
10, 46665, Note_on_c, 8, 64, 0
10, 46680, Note_on_c, 8, 57, 50
10, 46708, Note_on_c, 8, 57, 0
10, 46740, Note_on_c, 8, 59, 50
10, 46768, Note_on_c, 8, 59, 0
10, 46800, Note_on_c, 8, 61, 50
10, 46860, Note_on_c, 8, 61, 0
10, 46860, Note_on_c, 8, 64, 50
10, 46905, Note_on_c, 8, 64, 0
10, 46920, Note_on_c, 8, 57, 50
10, 46948, Note_on_c, 8, 57, 0
10, 46980, Note_on_c, 8, 56, 50
10, 47008, Note_on_c, 8, 56, 0
10, 47040, Note_on_c, 8, 57, 50
10, 47100, Note_on_c, 8, 57, 0
10, 47100, Note_on_c, 8, 52, 50
10, 47160, Note_on_c, 8, 52, 0
10, 47160, Note_on_c, 8, 61, 50
10, 47220, Note_on_c, 8, 61, 0
10, 47220, Note_on_c, 8, 59, 50
10, 47280, Note_on_c, 8, 59, 0
10, 47280, Note_on_c, 8, 57, 50
10, 47340, Note_on_c, 8, 57, 0
10, 47340, Note_on_c, 8, 61, 50
10, 47400, Note_on_c, 8, 61, 0
10, 47400, Note_on_c, 8, 59, 50
10, 47460, Note_on_c, 8, 59, 0
10, 47460, Note_on_c, 8, 56, 50
10, 47505, Note_on_c, 8, 56, 0
10, 47520, Note_on_c, 8, 57, 50
10, 47580, Note_on_c, 8, 57, 0
10, 47580, Note_on_c, 8, 52, 50
10, 47640, Note_on_c, 8, 52, 0
10, 47640, Note_on_c, 8, 57, 50
10, 47700, Note_on_c, 8, 57, 0
10, 47700, Note_on_c, 8, 52, 50
10, 47760, Note_on_c, 8, 52, 0
10, 47760, Note_on_c, 8, 59, 50
10, 47820, Note_on_c, 8, 59, 0
10, 47820, Note_on_c, 8, 52, 50
10, 47880, Note_on_c, 8, 52, 0
10, 47880, Note_on_c, 8, 59, 50
10, 47940, Note_on_c, 8, 59, 0
10, 47940, Note_on_c, 8, 52, 50
10, 47985, Note_on_c, 8, 52, 0
10, 48000, Note_on_c, 8, 57, 50
10, 48060, Note_on_c, 8, 57, 0
10, 48060, Note_on_c, 8, 61, 50
10, 48105, Note_on_c, 8, 61, 0
10, 48120, Note_on_c, 8, 57, 50
10, 48148, Note_on_c, 8, 57, 0
10, 48180, Note_on_c, 8, 59, 50
10, 48208, Note_on_c, 8, 59, 0
10, 48240, Note_on_c, 8, 61, 50
10, 48300, Note_on_c, 8, 61, 0
10, 48300, Note_on_c, 8, 64, 50
10, 48345, Note_on_c, 8, 64, 0
10, 48360, Note_on_c, 8, 57, 50
10, 48388, Note_on_c, 8, 57, 0
10, 48420, Note_on_c, 8, 59, 50
10, 48448, Note_on_c, 8, 59, 0
10, 48480, Note_on_c, 8, 61, 50
10, 48540, Note_on_c, 8, 61, 0
10, 48540, Note_on_c, 8, 64, 50
10, 48585, Note_on_c, 8, 64, 0
10, 48600, Note_on_c, 8, 57, 50
10, 48628, Note_on_c, 8, 57, 0
10, 48660, Note_on_c, 8, 59, 50
10, 48688, Note_on_c, 8, 59, 0
10, 48720, Note_on_c, 8, 61, 50
10, 48780, Note_on_c, 8, 61, 0
10, 48780, Note_on_c, 8, 64, 50
10, 48825, Note_on_c, 8, 64, 0
10, 48840, Note_on_c, 8, 57, 50
10, 48868, Note_on_c, 8, 57, 0
10, 48900, Note_on_c, 8, 56, 50
10, 48928, Note_on_c, 8, 56, 0
10, 48960, Note_on_c, 8, 57, 50
10, 49020, Note_on_c, 8, 57, 0
10, 49020, Note_on_c, 8, 61, 50
10, 49080, Note_on_c, 8, 61, 0
10, 49080, Note_on_c, 8, 59, 50
10, 49140, Note_on_c, 8, 59, 0
10, 49140, Note_on_c, 8, 56, 50
10, 49185, Note_on_c, 8, 56, 0
10, 49200, Note_on_c, 8, 57, 50
10, 49245, Note_on_c, 8, 57, 0
10, 49260, Note_on_c, 8, 69, 50
10, 49305, Note_on_c, 8, 69, 0
10, 49320, Note_on_c, 8, 69, 50
10, 49365, Note_on_c, 8, 69, 0
10, 49380, Note_on_c, 8, 69, 50
10, 49425, Note_on_c, 8, 69, 0
10, 49440, Note_on_c, 8, 57, 50
10, 49485, Note_on_c, 8, 57, 0
10, 49500, Note_on_c, 8, 69, 50
10, 49545, Note_on_c, 8, 69, 0
10, 49560, Note_on_c, 8, 69, 50
10, 49605, Note_on_c, 8, 69, 0
10, 49620, Note_on_c, 8, 69, 50
10, 49665, Note_on_c, 8, 69, 0
10, 49680, Note_on_c, 8, 69, 50
10, 49725, Note_on_c, 8, 69, 0
10, 49740, Note_on_c, 8, 69, 50
10, 49785, Note_on_c, 8, 69, 0
10, 49800, Note_on_c, 8, 69, 50
10, 49845, Note_on_c, 8, 69, 0
10, 49860, Note_on_c, 8, 69, 50
10, 49905, Note_on_c, 8, 69, 0
10, 49920, Note_on_c, 8, 57, 50
10, 49965, Note_on_c, 8, 57, 0
10, 49980, Note_on_c, 8, 69, 50
10, 50025, Note_on_c, 8, 69, 0
10, 50040, Note_on_c, 8, 69, 50
10, 50085, Note_on_c, 8, 69, 0
10, 50100, Note_on_c, 8, 69, 50
10, 50145, Note_on_c, 8, 69, 0
10, 50160, Note_on_c, 8, 69, 50
10, 50205, Note_on_c, 8, 69, 0
10, 50220, Note_on_c, 8, 69, 50
10, 50265, Note_on_c, 8, 69, 0
10, 50280, Note_on_c, 8, 69, 50
10, 50325, Note_on_c, 8, 69, 0
10, 50340, Note_on_c, 8, 69, 50
10, 50385, Note_on_c, 8, 69, 0
10, 50400, Note_on_c, 8, 71, 69
10, 50445, Note_on_c, 8, 71, 0
10, 50460, Note_on_c, 8, 71, 69
10, 50550, Note_on_c, 8, 71, 0
10, 50580, Note_on_c, 8, 71, 69
10, 50670, Note_on_c, 8, 71, 0
10, 50700, Note_on_c, 8, 71, 69
10, 50790, Note_on_c, 8, 71, 0
10, 50820, Note_on_c, 8, 71, 69
10, 50880, Note_on_c, 8, 71, 0
10, 50880, Note_on_c, 8, 69, 69
10, 51000, Note_on_c, 8, 69, 0
10, 51420, Note_on_c, 8, 56, 51
10, 51480, Note_on_c, 8, 56, 0
10, 51480, Note_on_c, 8, 57, 51
10, 51540, Note_on_c, 8, 57, 0
10, 51540, Note_on_c, 8, 61, 51
10, 51585, Note_on_c, 8, 61, 0
10, 51600, Note_on_c, 8, 64, 51
10, 51645, Note_on_c, 8, 64, 0
10, 51660, Note_on_c, 8, 64, 51
10, 51705, Note_on_c, 8, 64, 0
10, 51720, Note_on_c, 8, 62, 51
10, 51765, Note_on_c, 8, 62, 0
10, 51780, Note_on_c, 8, 62, 51
10, 51825, Note_on_c, 8, 62, 0
10, 51840, Note_on_c, 8, 61, 51
10, 51930, Note_on_c, 8, 61, 0
10, 52380, Note_on_c, 8, 58, 51
10, 52440, Note_on_c, 8, 58, 0
10, 52440, Note_on_c, 8, 59, 51
10, 52500, Note_on_c, 8, 59, 0
10, 52500, Note_on_c, 8, 62, 51
10, 52545, Note_on_c, 8, 62, 0
10, 52560, Note_on_c, 8, 57, 51
10, 52605, Note_on_c, 8, 57, 0
10, 52620, Note_on_c, 8, 57, 51
10, 52665, Note_on_c, 8, 57, 0
10, 52680, Note_on_c, 8, 59, 50
10, 52725, Note_on_c, 8, 59, 0
10, 52740, Note_on_c, 8, 59, 50
10, 52785, Note_on_c, 8, 59, 0
10, 52800, Note_on_c, 8, 57, 50
10, 52845, Note_on_c, 8, 57, 0
10, 52860, Note_on_c, 8, 57, 50
10, 52892, Note_on_c, 8, 57, 0
10, 52920, Note_on_c, 8, 57, 50
10, 52952, Note_on_c, 8, 57, 0
10, 52980, Note_on_c, 8, 57, 50
10, 53012, Note_on_c, 8, 57, 0
10, 53040, Note_on_c, 8, 57, 50
10, 53072, Note_on_c, 8, 57, 0
10, 53100, Note_on_c, 8, 57, 50
10, 53132, Note_on_c, 8, 57, 0
10, 53160, Note_on_c, 8, 57, 50
10, 53192, Note_on_c, 8, 57, 0
10, 53220, Note_on_c, 8, 57, 50
10, 53252, Note_on_c, 8, 57, 0
10, 53340, Note_on_c, 8, 57, 50
10, 53372, Note_on_c, 8, 57, 0
10, 53400, Note_on_c, 8, 57, 50
10, 53432, Note_on_c, 8, 57, 0
10, 53460, Note_on_c, 8, 57, 50
10, 53492, Note_on_c, 8, 57, 0
10, 53520, Note_on_c, 8, 56, 50
10, 53552, Note_on_c, 8, 56, 0
10, 53580, Note_on_c, 8, 56, 50
10, 53612, Note_on_c, 8, 56, 0
10, 53640, Note_on_c, 8, 59, 50
10, 53672, Note_on_c, 8, 59, 0
10, 53700, Note_on_c, 8, 59, 50
10, 53732, Note_on_c, 8, 59, 0
10, 53820, Note_on_c, 8, 57, 50
10, 53852, Note_on_c, 8, 57, 0
10, 53880, Note_on_c, 8, 57, 50
10, 53912, Note_on_c, 8, 57, 0
10, 53940, Note_on_c, 8, 57, 50
10, 53972, Note_on_c, 8, 57, 0
10, 54000, Note_on_c, 8, 57, 49
10, 54032, Note_on_c, 8, 57, 0
10, 54060, Note_on_c, 8, 57, 49
10, 54092, Note_on_c, 8, 57, 0
10, 54120, Note_on_c, 8, 57, 49
10, 54152, Note_on_c, 8, 57, 0
10, 54180, Note_on_c, 8, 57, 49
10, 54212, Note_on_c, 8, 57, 0
10, 54300, Note_on_c, 8, 57, 49
10, 54332, Note_on_c, 8, 57, 0
10, 54360, Note_on_c, 8, 57, 49
10, 54392, Note_on_c, 8, 57, 0
10, 54420, Note_on_c, 8, 57, 49
10, 54452, Note_on_c, 8, 57, 0
10, 54480, Note_on_c, 8, 56, 49
10, 54512, Note_on_c, 8, 56, 0
10, 54540, Note_on_c, 8, 56, 49
10, 54572, Note_on_c, 8, 56, 0
10, 54600, Note_on_c, 8, 59, 49
10, 54632, Note_on_c, 8, 59, 0
10, 54660, Note_on_c, 8, 59, 49
10, 54692, Note_on_c, 8, 59, 0
10, 54720, Note_on_c, 8, 59, 49
10, 54960, Note_on_c, 8, 59, 0
10, 54960, Note_on_c, 8, 57, 49
10, 55080, Note_on_c, 8, 57, 0
10, 55080, End_track
11, 0, Start_track
11, 165, Control_c, 9, 0, 127
11, 166, Control_c, 9, 32, 0
11, 167, Program_c, 9, 0
11, 168, Control_c, 9, 7, 0
11, 168, Control_c, 9, 10, 64
11, 168, End_track
12, 0, Start_track
12, 120, Control_c, 10, 91, 96
12, 170, Control_c, 10, 0, 0
12, 171, Control_c, 10, 32, 0
12, 172, Program_c, 10, 48
12, 173, Control_c, 10, 7, 80
12, 173, Control_c, 10, 10, 64
12, 240, Control_c, 10, 7, 80
12, 4320, Note_on_c, 10, 45, 67
12, 4560, Note_on_c, 10, 45, 0
12, 4560, Note_on_c, 10, 44, 67
12, 4740, Note_on_c, 10, 44, 0
12, 4800, Note_on_c, 10, 45, 67
12, 4890, Note_on_c, 10, 45, 0
12, 5280, Note_on_c, 10, 57, 67
12, 5370, Note_on_c, 10, 57, 0
12, 5520, Note_on_c, 10, 57, 67
12, 5610, Note_on_c, 10, 57, 0
12, 5760, Note_on_c, 10, 57, 67
12, 5850, Note_on_c, 10, 57, 0
12, 5880, Note_on_c, 10, 45, 67
12, 5970, Note_on_c, 10, 45, 0
12, 6000, Note_on_c, 10, 52, 67
12, 6090, Note_on_c, 10, 52, 0
12, 6240, Note_on_c, 10, 45, 67
12, 6480, Note_on_c, 10, 45, 0
12, 6480, Note_on_c, 10, 44, 67
12, 6660, Note_on_c, 10, 44, 0
12, 6720, Note_on_c, 10, 45, 67
12, 6810, Note_on_c, 10, 45, 0
12, 7200, Note_on_c, 10, 57, 67
12, 7290, Note_on_c, 10, 57, 0
12, 7440, Note_on_c, 10, 57, 67
12, 7530, Note_on_c, 10, 57, 0
12, 7680, Note_on_c, 10, 52, 67
12, 7770, Note_on_c, 10, 52, 0
12, 7800, Note_on_c, 10, 40, 67
12, 7890, Note_on_c, 10, 40, 0
12, 7920, Note_on_c, 10, 45, 58
12, 8010, Note_on_c, 10, 45, 0
12, 17100, Note_on_c, 10, 57, 50
12, 17145, Note_on_c, 10, 57, 0
12, 17160, Note_on_c, 10, 57, 50
12, 17205, Note_on_c, 10, 57, 0
12, 17220, Note_on_c, 10, 57, 50
12, 17265, Note_on_c, 10, 57, 0
12, 17280, Note_on_c, 10, 45, 50
12, 17325, Note_on_c, 10, 45, 0
12, 17340, Note_on_c, 10, 57, 50
12, 17385, Note_on_c, 10, 57, 0
12, 17400, Note_on_c, 10, 57, 50
12, 17445, Note_on_c, 10, 57, 0
12, 17460, Note_on_c, 10, 57, 50
12, 17505, Note_on_c, 10, 57, 0
12, 17520, Note_on_c, 10, 57, 50
12, 17565, Note_on_c, 10, 57, 0
12, 17580, Note_on_c, 10, 57, 50
12, 17625, Note_on_c, 10, 57, 0
12, 17640, Note_on_c, 10, 57, 50
12, 17685, Note_on_c, 10, 57, 0
12, 17700, Note_on_c, 10, 57, 50
12, 17745, Note_on_c, 10, 57, 0
12, 17760, Note_on_c, 10, 45, 50
12, 17805, Note_on_c, 10, 45, 0
12, 17820, Note_on_c, 10, 57, 50
12, 17865, Note_on_c, 10, 57, 0
12, 17880, Note_on_c, 10, 57, 51
12, 17925, Note_on_c, 10, 57, 0
12, 17940, Note_on_c, 10, 57, 51
12, 17985, Note_on_c, 10, 57, 0
12, 18000, Note_on_c, 10, 57, 51
12, 18045, Note_on_c, 10, 57, 0
12, 18060, Note_on_c, 10, 57, 51
12, 18105, Note_on_c, 10, 57, 0
12, 18120, Note_on_c, 10, 57, 51
12, 18165, Note_on_c, 10, 57, 0
12, 18180, Note_on_c, 10, 57, 51
12, 18225, Note_on_c, 10, 57, 0
12, 18240, Note_on_c, 10, 45, 69
12, 18285, Note_on_c, 10, 45, 0
12, 18300, Note_on_c, 10, 57, 69
12, 18345, Note_on_c, 10, 57, 0
12, 18360, Note_on_c, 10, 57, 69
12, 18405, Note_on_c, 10, 57, 0
12, 18420, Note_on_c, 10, 57, 69
12, 18465, Note_on_c, 10, 57, 0
12, 18480, Note_on_c, 10, 45, 69
12, 18525, Note_on_c, 10, 45, 0
12, 18540, Note_on_c, 10, 57, 69
12, 18585, Note_on_c, 10, 57, 0
12, 18600, Note_on_c, 10, 57, 69
12, 18645, Note_on_c, 10, 57, 0
12, 18660, Note_on_c, 10, 57, 69
12, 18705, Note_on_c, 10, 57, 0
12, 19320, Note_on_c, 10, 52, 50
12, 19365, Note_on_c, 10, 52, 0
12, 19440, Note_on_c, 10, 52, 50
12, 19485, Note_on_c, 10, 52, 0
12, 19560, Note_on_c, 10, 53, 50
12, 19605, Note_on_c, 10, 53, 0
12, 19680, Note_on_c, 10, 54, 50
12, 19770, Note_on_c, 10, 54, 0
12, 20280, Note_on_c, 10, 50, 50
12, 20400, Note_on_c, 10, 50, 0
12, 20400, Note_on_c, 10, 52, 50
12, 20445, Note_on_c, 10, 52, 0
12, 20520, Note_on_c, 10, 40, 50
12, 20565, Note_on_c, 10, 40, 0
12, 20640, Note_on_c, 10, 45, 50
12, 20685, Note_on_c, 10, 45, 0
12, 20760, Note_on_c, 10, 40, 50
12, 20805, Note_on_c, 10, 40, 0
12, 20880, Note_on_c, 10, 45, 50
12, 21000, Note_on_c, 10, 45, 0
12, 21120, Note_on_c, 10, 45, 50
12, 21210, Note_on_c, 10, 45, 0
12, 21600, Note_on_c, 10, 45, 50
12, 21690, Note_on_c, 10, 45, 0
12, 22080, Note_on_c, 10, 45, 50
12, 22170, Note_on_c, 10, 45, 0
12, 22560, Note_on_c, 10, 44, 50
12, 22800, Note_on_c, 10, 44, 0
12, 22800, Note_on_c, 10, 45, 50
12, 22845, Note_on_c, 10, 45, 0
12, 22920, Note_on_c, 10, 50, 50
12, 22965, Note_on_c, 10, 50, 0
12, 23040, Note_on_c, 10, 52, 50
12, 23085, Note_on_c, 10, 52, 0
12, 23160, Note_on_c, 10, 52, 50
12, 23205, Note_on_c, 10, 52, 0
12, 23280, Note_on_c, 10, 40, 50
12, 23325, Note_on_c, 10, 40, 0
12, 23520, Note_on_c, 10, 45, 50
12, 23610, Note_on_c, 10, 45, 0
12, 24000, Note_on_c, 10, 45, 50
12, 24090, Note_on_c, 10, 45, 0
12, 24480, Note_on_c, 10, 45, 50
12, 24570, Note_on_c, 10, 45, 0
12, 24840, Note_on_c, 10, 57, 50
12, 24885, Note_on_c, 10, 57, 0
12, 24960, Note_on_c, 10, 56, 50
12, 25005, Note_on_c, 10, 56, 0
12, 25080, Note_on_c, 10, 57, 50
12, 25125, Note_on_c, 10, 57, 0
12, 25200, Note_on_c, 10, 59, 50
12, 25245, Note_on_c, 10, 59, 0
12, 25320, Note_on_c, 10, 47, 50
12, 25365, Note_on_c, 10, 47, 0
12, 25440, Note_on_c, 10, 52, 50
12, 25485, Note_on_c, 10, 52, 0
12, 25560, Note_on_c, 10, 47, 50
12, 25605, Note_on_c, 10, 47, 0
12, 25680, Note_on_c, 10, 40, 50
12, 25725, Note_on_c, 10, 40, 0
12, 25920, Note_on_c, 10, 43, 50
12, 26280, Note_on_c, 10, 43, 0
12, 26400, Note_on_c, 10, 42, 50
12, 26760, Note_on_c, 10, 42, 0
12, 26880, Note_on_c, 10, 54, 50
12, 27120, Note_on_c, 10, 54, 0
12, 27120, Note_on_c, 10, 53, 50
12, 27300, Note_on_c, 10, 53, 0
12, 27360, Note_on_c, 10, 52, 50
12, 27720, Note_on_c, 10, 52, 0
12, 27840, Note_on_c, 10, 57, 50
12, 27930, Note_on_c, 10, 57, 0
12, 28320, Note_on_c, 10, 53, 50
12, 28410, Note_on_c, 10, 53, 0
12, 28800, Note_on_c, 10, 55, 50
12, 29040, Note_on_c, 10, 55, 0
12, 29040, Note_on_c, 10, 43, 50
12, 29220, Note_on_c, 10, 43, 0
12, 29280, Note_on_c, 10, 48, 50
12, 29370, Note_on_c, 10, 48, 0
12, 29760, Note_on_c, 10, 47, 50
12, 29850, Note_on_c, 10, 47, 0
12, 30240, Note_on_c, 10, 48, 50
12, 30330, Note_on_c, 10, 48, 0
12, 30720, Note_on_c, 10, 47, 50
12, 30810, Note_on_c, 10, 47, 0
12, 31200, Note_on_c, 10, 48, 50
12, 31290, Note_on_c, 10, 48, 0
12, 31440, Note_on_c, 10, 57, 50
12, 31530, Note_on_c, 10, 57, 0
12, 31680, Note_on_c, 10, 56, 50
12, 32040, Note_on_c, 10, 56, 0
12, 32160, Note_on_c, 10, 57, 50
12, 32250, Note_on_c, 10, 57, 0
12, 32400, Note_on_c, 10, 55, 50
12, 32490, Note_on_c, 10, 55, 0
12, 32640, Note_on_c, 10, 53, 50
12, 33120, Note_on_c, 10, 53, 0
12, 33120, Note_on_c, 10, 52, 50
12, 33240, Note_on_c, 10, 52, 0
12, 33360, Note_on_c, 10, 52, 50
12, 33450, Note_on_c, 10, 52, 0
12, 33600, Note_on_c, 10, 51, 50
12, 33960, Note_on_c, 10, 51, 0
12, 45600, Note_on_c, 10, 45, 50
12, 45780, Note_on_c, 10, 45, 0
12, 45840, Note_on_c, 10, 44, 50
12, 46020, Note_on_c, 10, 44, 0
12, 46080, Note_on_c, 10, 45, 50
12, 46170, Note_on_c, 10, 45, 0
12, 46560, Note_on_c, 10, 57, 50
12, 46650, Note_on_c, 10, 57, 0
12, 46800, Note_on_c, 10, 57, 50
12, 46890, Note_on_c, 10, 57, 0
12, 47040, Note_on_c, 10, 57, 50
12, 47130, Note_on_c, 10, 57, 0
12, 47160, Note_on_c, 10, 45, 50
12, 47250, Note_on_c, 10, 45, 0
12, 47280, Note_on_c, 10, 52, 50
12, 47370, Note_on_c, 10, 52, 0
12, 47520, Note_on_c, 10, 45, 50
12, 47760, Note_on_c, 10, 45, 0
12, 47760, Note_on_c, 10, 44, 50
12, 47940, Note_on_c, 10, 44, 0
12, 48000, Note_on_c, 10, 45, 50
12, 48090, Note_on_c, 10, 45, 0
12, 48480, Note_on_c, 10, 57, 50
12, 48570, Note_on_c, 10, 57, 0
12, 48720, Note_on_c, 10, 57, 50
12, 48810, Note_on_c, 10, 57, 0
12, 48960, Note_on_c, 10, 52, 50
12, 49050, Note_on_c, 10, 52, 0
12, 49080, Note_on_c, 10, 40, 50
12, 49170, Note_on_c, 10, 40, 0
12, 49200, Note_on_c, 10, 45, 50
12, 49245, Note_on_c, 10, 45, 0
12, 49260, Note_on_c, 10, 57, 50
12, 49305, Note_on_c, 10, 57, 0
12, 49320, Note_on_c, 10, 57, 50
12, 49365, Note_on_c, 10, 57, 0
12, 49380, Note_on_c, 10, 57, 50
12, 49425, Note_on_c, 10, 57, 0
12, 49440, Note_on_c, 10, 45, 50
12, 49485, Note_on_c, 10, 45, 0
12, 49500, Note_on_c, 10, 57, 50
12, 49545, Note_on_c, 10, 57, 0
12, 49560, Note_on_c, 10, 57, 50
12, 49605, Note_on_c, 10, 57, 0
12, 49620, Note_on_c, 10, 57, 50
12, 49665, Note_on_c, 10, 57, 0
12, 49680, Note_on_c, 10, 57, 50
12, 49725, Note_on_c, 10, 57, 0
12, 49740, Note_on_c, 10, 57, 50
12, 49785, Note_on_c, 10, 57, 0
12, 49800, Note_on_c, 10, 57, 50
12, 49845, Note_on_c, 10, 57, 0
12, 49860, Note_on_c, 10, 57, 50
12, 49905, Note_on_c, 10, 57, 0
12, 49920, Note_on_c, 10, 45, 50
12, 49965, Note_on_c, 10, 45, 0
12, 49980, Note_on_c, 10, 57, 50
12, 50025, Note_on_c, 10, 57, 0
12, 50040, Note_on_c, 10, 57, 50
12, 50085, Note_on_c, 10, 57, 0
12, 50100, Note_on_c, 10, 57, 50
12, 50145, Note_on_c, 10, 57, 0
12, 50160, Note_on_c, 10, 57, 50
12, 50205, Note_on_c, 10, 57, 0
12, 50220, Note_on_c, 10, 57, 50
12, 50265, Note_on_c, 10, 57, 0
12, 50280, Note_on_c, 10, 57, 50
12, 50325, Note_on_c, 10, 57, 0
12, 50340, Note_on_c, 10, 57, 50
12, 50385, Note_on_c, 10, 57, 0
12, 50400, Note_on_c, 10, 45, 69
12, 50445, Note_on_c, 10, 45, 0
12, 50460, Note_on_c, 10, 57, 69
12, 50505, Note_on_c, 10, 57, 0
12, 50520, Note_on_c, 10, 57, 69
12, 50565, Note_on_c, 10, 57, 0
12, 50580, Note_on_c, 10, 57, 69
12, 50625, Note_on_c, 10, 57, 0
12, 50640, Note_on_c, 10, 57, 69
12, 50685, Note_on_c, 10, 57, 0
12, 50700, Note_on_c, 10, 57, 69
12, 50745, Note_on_c, 10, 57, 0
12, 50760, Note_on_c, 10, 57, 69
12, 50805, Note_on_c, 10, 57, 0
12, 50820, Note_on_c, 10, 57, 69
12, 50865, Note_on_c, 10, 57, 0
12, 50880, Note_on_c, 10, 57, 69
12, 50970, Note_on_c, 10, 57, 0
12, 51480, Note_on_c, 10, 52, 51
12, 51525, Note_on_c, 10, 52, 0
12, 51600, Note_on_c, 10, 52, 51
12, 51645, Note_on_c, 10, 52, 0
12, 51720, Note_on_c, 10, 53, 51
12, 51765, Note_on_c, 10, 53, 0
12, 51840, Note_on_c, 10, 54, 51
12, 51930, Note_on_c, 10, 54, 0
12, 52440, Note_on_c, 10, 50, 51
12, 52560, Note_on_c, 10, 50, 0
12, 52560, Note_on_c, 10, 52, 51
12, 52605, Note_on_c, 10, 52, 0
12, 52680, Note_on_c, 10, 40, 51
12, 52725, Note_on_c, 10, 40, 0
12, 52800, Note_on_c, 10, 45, 51
12, 52890, Note_on_c, 10, 45, 0
12, 53280, Note_on_c, 10, 52, 51
12, 53370, Note_on_c, 10, 52, 0
12, 53760, Note_on_c, 10, 57, 51
12, 53850, Note_on_c, 10, 57, 0
12, 54240, Note_on_c, 10, 52, 51
12, 54330, Note_on_c, 10, 52, 0
12, 54720, Note_on_c, 10, 52, 51
12, 54960, Note_on_c, 10, 52, 0
12, 54960, Note_on_c, 10, 45, 51
12, 55080, Note_on_c, 10, 45, 0
12, 55080, End_track
0, 0, End_of_file