0, 0, Header, 1, 8, 120
1, 0, Start_track
1, 0, MIDI_port, 0
1, 0, System_exclusive, 05, 7E, 7F, 09, 01, F7
1, 0, MIDI_port, 0
1, 0, Time_signature, 3, 2, 24, 8
1, 0, Key_signature, -4, "major"
1, 0, Tempo, 1000000
1, 480, Marker_t, """Adagio"""
1, 14400, Time_signature, 4, 2, 24, 8
1, 14400, Key_signature, -1, "major"
1, 14400, Tempo, 600000
1, 14400, Marker_t, """Allegro"""
1, 86460, Tempo, 1000000
1, 86880, Time_signature, 3, 2, 24, 8
1, 86880, Key_signature, -4, "major"
1, 86880, Marker_t, """Adagio"""
1, 86880, End_track
2, 0, Start_track
2, 0, MIDI_port, 0
2, 0, Title_t, "Primo"
2, 0, Program_c, 0, 19
2, 0, Control_c, 0, 121, 0
2, 0, Control_c, 0, 1, 7
2, 0, Control_c, 0, 7, 127
2, 0, Control_c, 0, 10, 84
2, 0, Control_c, 0, 91, 127
2, 360, Note_on_c, 0, 56, 62
2, 360, Note_on_c, 0, 60, 76
2, 700, Note_on_c, 0, 56, 0
2, 720, Note_on_c, 0, 58, 62
2, 1066, Note_on_c, 0, 58, 0
2, 1080, Note_on_c, 0, 57, 56
2, 1384, Note_on_c, 0, 60, 0
2, 1440, Note_on_c, 0, 65, 55
2, 1545, Note_on_c, 0, 57, 0
2, 1560, Note_on_c, 0, 58, 53
2, 1668, Note_on_c, 0, 65, 0
2, 1680, Note_on_c, 0, 67, 68
2, 1789, Note_on_c, 0, 58, 0
2, 1792, Note_on_c, 0, 67, 0
2, 1800, Note_on_c, 0, 68, 60
2, 1800, Note_on_c, 0, 59, 56
2, 1976, Note_on_c, 0, 68, 0
2, 1980, Note_on_c, 0, 70, 60
2, 2008, Note_on_c, 0, 70, 0
2, 2010, Note_on_c, 0, 68, 60
2, 2040, Note_on_c, 0, 67, 57
2, 2041, Note_on_c, 0, 68, 0
2, 2100, Note_on_c, 0, 65, 68
2, 2101, Note_on_c, 0, 67, 0
2, 2120, Note_on_c, 0, 65, 0
2, 2160, Note_on_c, 0, 72, 76
2, 2160, Note_on_c, 0, 65, 62
2, 2261, Note_on_c, 0, 59, 0
2, 2271, Note_on_c, 0, 65, 0
2, 2280, Note_on_c, 0, 64, 60
2, 2280, Note_on_c, 0, 60, 68
2, 2385, Note_on_c, 0, 60, 0
2, 2393, Note_on_c, 0, 64, 0
2, 2400, Note_on_c, 0, 65, 43
2, 2400, Note_on_c, 0, 59, 60
2, 2400, Note_on_c, 0, 68, 64
2, 2508, Note_on_c, 0, 68, 0
2, 2508, Note_on_c, 0, 65, 0
2, 2509, Note_on_c, 0, 59, 0
2, 2520, Note_on_c, 0, 64, 62
2, 2520, Note_on_c, 0, 60, 76
2, 2520, Note_on_c, 0, 67, 68
2, 2640, Note_on_c, 0, 67, 0
2, 2643, Note_on_c, 0, 60, 0
2, 2643, Note_on_c, 0, 64, 0
2, 2705, Note_on_c, 0, 72, 0
2, 2737, Note_on_c, 0, 68, 76
2, 2745, Note_on_c, 0, 70, 64
2, 2748, Note_on_c, 0, 68, 0
2, 2752, Note_on_c, 0, 72, 89
2, 2753, Note_on_c, 0, 70, 0
2, 2760, Note_on_c, 0, 70, 76
2, 2766, Note_on_c, 0, 72, 0
2, 2811, Note_on_c, 0, 70, 0
2, 2820, Note_on_c, 0, 68, 72
2, 2869, Note_on_c, 0, 68, 0
2, 2880, Note_on_c, 0, 68, 68
2, 3000, Note_on_c, 0, 63, 62
2, 3112, Note_on_c, 0, 63, 0
2, 3120, Note_on_c, 0, 65, 76
2, 3233, Note_on_c, 0, 65, 0
2, 3240, Note_on_c, 0, 61, 60
2, 3315, Note_on_c, 0, 68, 0
2, 3330, Note_on_c, 0, 70, 68
2, 3344, Note_on_c, 0, 70, 0
2, 3345, Note_on_c, 0, 68, 72
2, 3356, Note_on_c, 0, 68, 0
2, 3360, Note_on_c, 0, 67, 80
2, 3468, Note_on_c, 0, 61, 0
2, 3480, Note_on_c, 0, 60, 52
2, 3480, Note_on_c, 0, 65, 64
2, 3481, Note_on_c, 0, 67, 0
2, 3594, Note_on_c, 0, 60, 0
2, 3600, Note_on_c, 0, 58, 64
2, 3690, Note_on_c, 0, 67, 72
2, 3692, Note_on_c, 0, 65, 0
2, 3705, Note_on_c, 0, 65, 72
2, 3707, Note_on_c, 0, 67, 0
2, 3720, Note_on_c, 0, 63, 68
2, 3721, Note_on_c, 0, 65, 0
2, 3825, Note_on_c, 0, 63, 0
2, 3834, Note_on_c, 0, 58, 0
2, 3840, Note_on_c, 0, 61, 60
2, 3840, Note_on_c, 0, 56, 62
2, 3960, Note_on_c, 0, 55, 64
2, 3961, Note_on_c, 0, 56, 0
2, 4067, Note_on_c, 0, 55, 0
2, 4071, Note_on_c, 0, 61, 0
2, 4080, Note_on_c, 0, 56, 53
2, 4080, Note_on_c, 0, 60, 59
2, 4207, Note_on_c, 0, 60, 0
2, 4209, Note_on_c, 0, 56, 0
2, 4320, Note_on_c, 0, 65, 80
2, 4440, Note_on_c, 0, 53, 60
2, 4440, Note_on_c, 0, 56, 62
2, 4545, Note_on_c, 0, 53, 0
2, 4551, Note_on_c, 0, 56, 0
2, 4560, Note_on_c, 0, 55, 80
2, 4560, Note_on_c, 0, 58, 45
2, 4665, Note_on_c, 0, 58, 0
2, 4672, Note_on_c, 0, 55, 0
2, 4680, Note_on_c, 0, 56, 62
2, 4680, Note_on_c, 0, 60, 85
2, 4750, Note_on_c, 0, 65, 0
2, 4770, Note_on_c, 0, 67, 80
2, 4785, Note_on_c, 0, 60, 0
2, 4785, Note_on_c, 0, 65, 64
2, 4786, Note_on_c, 0, 67, 0
2, 4798, Note_on_c, 0, 65, 0
2, 4800, Note_on_c, 0, 63, 62
2, 4919, Note_on_c, 0, 63, 0
2, 4920, Note_on_c, 0, 61, 72
2, 5122, Note_on_c, 0, 61, 0
2, 5130, Note_on_c, 0, 63, 60
2, 5145, Note_on_c, 0, 61, 60
2, 5148, Note_on_c, 0, 63, 0
2, 5160, Note_on_c, 0, 60, 76
2, 5162, Note_on_c, 0, 61, 0
2, 5274, Note_on_c, 0, 60, 0
2, 5280, Note_on_c, 0, 58, 62
2, 6053, Note_on_c, 0, 56, 0
2, 6120, Note_on_c, 0, 55, 76
2, 6234, Note_on_c, 0, 55, 0
2, 6240, Note_on_c, 0, 53, 89
2, 6357, Note_on_c, 0, 53, 0
2, 6360, Note_on_c, 0, 52, 62
2, 6476, Note_on_c, 0, 52, 0
2, 6480, Note_on_c, 0, 51, 64
2, 6543, Note_on_c, 0, 58, 0
2, 6600, Note_on_c, 0, 56, 68
2, 6708, Note_on_c, 0, 51, 0
2, 6720, Note_on_c, 0, 50, 85
2, 6828, Note_on_c, 0, 50, 0
2, 6840, Note_on_c, 0, 49, 72
2, 6941, Note_on_c, 0, 56, 0
2, 6960, Note_on_c, 0, 55, 76
2, 7017, Note_on_c, 0, 55, 0
2, 7020, Note_on_c, 0, 65, 60
2, 7077, Note_on_c, 0, 65, 0
2, 7080, Note_on_c, 0, 63, 60
2, 7140, Note_on_c, 0, 55, 68
2, 7144, Note_on_c, 0, 63, 0
2, 7188, Note_on_c, 0, 49, 0
2, 7199, Note_on_c, 0, 55, 0
2, 7200, Note_on_c, 0, 56, 64
2, 7200, Note_on_c, 0, 48, 56
2, 7261, Note_on_c, 0, 48, 0
2, 7320, Note_on_c, 0, 51, 72
2, 7342, Note_on_c, 0, 56, 0
2, 7440, Note_on_c, 0, 49, 68
2, 7443, Note_on_c, 0, 51, 0
2, 7560, Note_on_c, 0, 66, 64
2, 7668, Note_on_c, 0, 49, 0
2, 7680, Note_on_c, 0, 48, 76
2, 7796, Note_on_c, 0, 48, 0
2, 7800, Note_on_c, 0, 57, 72
2, 7915, Note_on_c, 0, 57, 0
2, 7920, Note_on_c, 0, 58, 62
2, 8033, Note_on_c, 0, 58, 0
2, 8040, Note_on_c, 0, 60, 62
2, 8133, Note_on_c, 0, 66, 0
2, 8156, Note_on_c, 0, 60, 0
2, 8160, Note_on_c, 0, 65, 76
2, 8160, Note_on_c, 0, 61, 72
2, 8264, Note_on_c, 0, 61, 0
2, 8266, Note_on_c, 0, 65, 0
2, 8280, Note_on_c, 0, 61, 68
2, 8280, Note_on_c, 0, 65, 76
2, 8340, Note_on_c, 0, 63, 68
2, 8340, Note_on_c, 0, 60, 64
2, 8342, Note_on_c, 0, 65, 0
2, 8342, Note_on_c, 0, 61, 0
2, 8377, Note_on_c, 0, 60, 0
2, 8378, Note_on_c, 0, 63, 0
2, 8400, Note_on_c, 0, 63, 64
2, 8400, Note_on_c, 0, 60, 60
2, 8450, Note_on_c, 0, 60, 0
2, 8453, Note_on_c, 0, 63, 0
2, 8460, Note_on_c, 0, 58, 56
2, 8460, Note_on_c, 0, 61, 68
2, 8486, Note_on_c, 0, 61, 0
2, 8487, Note_on_c, 0, 58, 0
2, 8520, Note_on_c, 0, 61, 68
2, 8520, Note_on_c, 0, 58, 80
2, 8575, Note_on_c, 0, 58, 0
2, 8576, Note_on_c, 0, 61, 0
2, 8580, Note_on_c, 0, 60, 76
2, 8580, Note_on_c, 0, 57, 60
2, 8619, Note_on_c, 0, 57, 0
2, 8623, Note_on_c, 0, 60, 0
2, 8640, Note_on_c, 0, 58, 76
2, 8760, Note_on_c, 0, 53, 76
2, 8808, Note_on_c, 0, 58, 0
2, 8880, Note_on_c, 0, 51, 60
2, 8887, Note_on_c, 0, 53, 0
2, 9000, Note_on_c, 0, 68, 85
2, 9114, Note_on_c, 0, 51, 0
2, 9120, Note_on_c, 0, 50, 89
2, 9230, Note_on_c, 0, 50, 0
2, 9240, Note_on_c, 0, 59, 76
2, 9351, Note_on_c, 0, 59, 0
2, 9360, Note_on_c, 0, 60, 64
2, 9471, Note_on_c, 0, 60, 0
2, 9480, Note_on_c, 0, 62, 80
2, 9565, Note_on_c, 0, 68, 0
2, 9570, Note_on_c, 0, 60, 64
2, 9571, Note_on_c, 0, 62, 0
2, 9585, Note_on_c, 0, 62, 76
2, 9589, Note_on_c, 0, 60, 0
2, 9600, Note_on_c, 0, 67, 72
2, 9600, Note_on_c, 0, 63, 76
2, 9604, Note_on_c, 0, 62, 0
2, 9690, Note_on_c, 0, 63, 0
2, 9697, Note_on_c, 0, 67, 0
2, 9720, Note_on_c, 0, 67, 72
2, 9720, Note_on_c, 0, 63, 76
2, 9775, Note_on_c, 0, 63, 0
2, 9777, Note_on_c, 0, 67, 0
2, 9780, Note_on_c, 0, 62, 62
2, 9780, Note_on_c, 0, 65, 76
2, 9804, Note_on_c, 0, 62, 0
2, 9805, Note_on_c, 0, 65, 0
2, 9840, Note_on_c, 0, 65, 68
2, 9840, Note_on_c, 0, 62, 85
2, 9900, Note_on_c, 0, 63, 55
2, 9900, Note_on_c, 0, 60, 60
2, 9904, Note_on_c, 0, 62, 0
2, 9906, Note_on_c, 0, 65, 0
2, 9916, Note_on_c, 0, 60, 0
2, 9918, Note_on_c, 0, 63, 0
2, 9960, Note_on_c, 0, 63, 60
2, 9960, Note_on_c, 0, 60, 76
2, 10014, Note_on_c, 0, 60, 0
2, 10020, Note_on_c, 0, 63, 0
2, 10020, Note_on_c, 0, 59, 72
2, 10020, Note_on_c, 0, 62, 76
2, 10045, Note_on_c, 0, 62, 0
2, 10049, Note_on_c, 0, 59, 0
2, 10080, Note_on_c, 0, 60, 72
2, 10200, Note_on_c, 0, 55, 60
2, 10306, Note_on_c, 0, 55, 0
2, 10320, Note_on_c, 0, 58, 68
2, 10436, Note_on_c, 0, 58, 0
2, 10440, Note_on_c, 0, 57, 76
2, 10480, Note_on_c, 0, 60, 0
2, 10500, Note_on_c, 0, 65, 68
2, 10560, Note_on_c, 0, 65, 0
2, 10560, Note_on_c, 0, 64, 68
2, 10619, Note_on_c, 0, 64, 0
2, 10620, Note_on_c, 0, 63, 68
2, 10667, Note_on_c, 0, 57, 0
2, 10679, Note_on_c, 0, 63, 0
2, 10680, Note_on_c, 0, 56, 62
2, 10680, Note_on_c, 0, 62, 72
2, 10739, Note_on_c, 0, 62, 0
2, 10740, Note_on_c, 0, 61, 68
2, 10797, Note_on_c, 0, 56, 0
2, 10800, Note_on_c, 0, 61, 0
2, 10800, Note_on_c, 0, 60, 64
2, 10800, Note_on_c, 0, 55, 59
2, 10924, Note_on_c, 0, 60, 0
2, 11031, Note_on_c, 0, 55, 0
2, 11760, Note_on_c, 0, 58, 72
2, 11877, Note_on_c, 0, 58, 0
2, 11880, Note_on_c, 0, 57, 76
2, 11936, Note_on_c, 0, 57, 0
2, 11940, Note_on_c, 0, 56, 76
2, 11998, Note_on_c, 0, 56, 0
2, 12000, Note_on_c, 0, 55, 64
2, 12000, Note_on_c, 0, 60, 72
2, 12056, Note_on_c, 0, 55, 0
2, 12060, Note_on_c, 0, 54, 72
2, 12120, Note_on_c, 0, 53, 76
2, 12121, Note_on_c, 0, 54, 0
2, 12124, Note_on_c, 0, 60, 0
2, 12180, Note_on_c, 0, 59, 80
2, 12180, Note_on_c, 0, 65, 62
2, 12225, Note_on_c, 0, 65, 0
2, 12229, Note_on_c, 0, 53, 0
2, 12231, Note_on_c, 0, 59, 0
2, 12240, Note_on_c, 0, 55, 76
2, 12240, Note_on_c, 0, 60, 72
2, 12240, Note_on_c, 0, 64, 47
2, 12284, Note_on_c, 0, 60, 0
2, 12285, Note_on_c, 0, 64, 0
2, 12289, Note_on_c, 0, 55, 0
2, 12300, Note_on_c, 0, 63, 60
2, 12300, Note_on_c, 0, 54, 68
2, 12351, Note_on_c, 0, 63, 0
2, 12360, Note_on_c, 0, 53, 68
2, 12360, Note_on_c, 0, 58, 60
2, 12360, Note_on_c, 0, 62, 64
2, 12361, Note_on_c, 0, 54, 0
2, 12413, Note_on_c, 0, 53, 0
2, 12413, Note_on_c, 0, 58, 0
2, 12415, Note_on_c, 0, 62, 0
2, 12420, Note_on_c, 0, 52, 53
2, 12420, Note_on_c, 0, 61, 72
2, 12457, Note_on_c, 0, 61, 0
2, 12478, Note_on_c, 0, 52, 0
2, 12480, Note_on_c, 0, 53, 85
2, 12480, Note_on_c, 0, 60, 76
2, 12480, Note_on_c, 0, 56, 72
2, 12520, Note_on_c, 0, 60, 0
2, 12523, Note_on_c, 0, 56, 0
2, 12529, Note_on_c, 0, 53, 0
2, 12540, Note_on_c, 0, 67, 68
2, 12540, Note_on_c, 0, 70, 89
2, 12587, Note_on_c, 0, 67, 0
2, 12588, Note_on_c, 0, 70, 0
2, 12600, Note_on_c, 0, 65, 72
2, 12600, Note_on_c, 0, 68, 68
2, 12645, Note_on_c, 0, 65, 0
2, 12649, Note_on_c, 0, 68, 0
2, 12660, Note_on_c, 0, 64, 76
2, 12660, Note_on_c, 0, 62, 64
2, 12703, Note_on_c, 0, 62, 0
2, 12715, Note_on_c, 0, 64, 0
2, 12720, Note_on_c, 0, 65, 80
2, 12720, Note_on_c, 0, 60, 62
2, 12758, Note_on_c, 0, 65, 0
2, 12765, Note_on_c, 0, 60, 0
2, 12780, Note_on_c, 0, 56, 64
2, 12780, Note_on_c, 0, 60, 72
2, 12829, Note_on_c, 0, 56, 0
2, 12830, Note_on_c, 0, 60, 0
2, 12840, Note_on_c, 0, 58, 60
2, 12840, Note_on_c, 0, 55, 68
2, 12887, Note_on_c, 0, 55, 0
2, 12894, Note_on_c, 0, 58, 0
2, 12900, Note_on_c, 0, 53, 64
2, 12900, Note_on_c, 0, 56, 68
2, 12949, Note_on_c, 0, 53, 0
2, 12951, Note_on_c, 0, 56, 0
2, 12960, Note_on_c, 0, 52, 56
2, 12960, Note_on_c, 0, 55, 76
2, 13020, Note_on_c, 0, 52, 0
2, 13021, Note_on_c, 0, 55, 0
2, 13200, Note_on_c, 0, 65, 76
2, 13200, Note_on_c, 0, 59, 68
2, 13316, Note_on_c, 0, 59, 0
2, 13318, Note_on_c, 0, 65, 0
2, 13320, Note_on_c, 0, 64, 64
2, 13320, Note_on_c, 0, 60, 60
2, 13380, Note_on_c, 0, 60, 0
2, 13386, Note_on_c, 0, 64, 0
2, 13560, Note_on_c, 0, 68, 60
2, 13560, Note_on_c, 0, 65, 62
2, 13675, Note_on_c, 0, 65, 0
2, 13676, Note_on_c, 0, 68, 0
2, 13680, Note_on_c, 0, 64, 56
2, 13680, Note_on_c, 0, 67, 68
2, 13738, Note_on_c, 0, 67, 0
2, 13738, Note_on_c, 0, 64, 0
2, 13920, Note_on_c, 0, 71, 72
2, 13920, Note_on_c, 0, 68, 76
2, 13920, Note_on_c, 0, 62, 62
2, 13920, Note_on_c, 0, 65, 52
2, 14028, Note_on_c, 0, 65, 0
2, 14029, Note_on_c, 0, 62, 0
2, 14036, Note_on_c, 0, 68, 0
2, 14037, Note_on_c, 0, 71, 0
2, 14040, Note_on_c, 0, 72, 85
2, 14040, Note_on_c, 0, 64, 68
2, 14040, Note_on_c, 0, 67, 85
2, 14095, Note_on_c, 0, 67, 0
2, 14095, Note_on_c, 0, 64, 0
2, 14097, Note_on_c, 0, 72, 0
2, 14400, Note_on_c, 0, 65, 76
2, 14400, Note_on_c, 0, 60, 64
2, 14526, Note_on_c, 0, 65, 0
2, 14531, Note_on_c, 0, 60, 0
2, 14580, Note_on_c, 0, 65, 80
2, 14580, Note_on_c, 0, 60, 76
2, 14594, Note_on_c, 0, 60, 0
2, 14602, Note_on_c, 0, 65, 0
2, 14610, Note_on_c, 0, 65, 76
2, 14610, Note_on_c, 0, 60, 72
2, 14622, Note_on_c, 0, 60, 0
2, 14631, Note_on_c, 0, 65, 0
2, 14640, Note_on_c, 0, 67, 76
2, 14640, Note_on_c, 0, 60, 72
2, 14777, Note_on_c, 0, 60, 0
2, 14782, Note_on_c, 0, 67, 0
2, 14820, Note_on_c, 0, 67, 89
2, 14820, Note_on_c, 0, 60, 76
2, 14838, Note_on_c, 0, 67, 0
2, 14839, Note_on_c, 0, 60, 0
2, 14850, Note_on_c, 0, 67, 85
2, 14850, Note_on_c, 0, 60, 80
2, 14869, Note_on_c, 0, 60, 0
2, 14871, Note_on_c, 0, 67, 0
2, 14880, Note_on_c, 0, 69, 80
2, 14880, Note_on_c, 0, 65, 68
2, 15026, Note_on_c, 0, 69, 0
2, 15027, Note_on_c, 0, 65, 0
2, 15060, Note_on_c, 0, 69, 80
2, 15060, Note_on_c, 0, 65, 76
2, 15073, Note_on_c, 0, 65, 0
2, 15077, Note_on_c, 0, 69, 0
2, 15090, Note_on_c, 0, 69, 76
2, 15090, Note_on_c, 0, 65, 76
2, 15104, Note_on_c, 0, 65, 0
2, 15111, Note_on_c, 0, 69, 0
2, 15120, Note_on_c, 0, 72, 80
2, 15120, Note_on_c, 0, 64, 80
2, 15120, Note_on_c, 0, 67, 72
2, 15251, Note_on_c, 0, 64, 0
2, 15252, Note_on_c, 0, 67, 0
2, 15258, Note_on_c, 0, 72, 0
2, 15300, Note_on_c, 0, 60, 80
2, 15300, Note_on_c, 0, 55, 80
2, 15318, Note_on_c, 0, 60, 0
2, 15319, Note_on_c, 0, 55, 0
2, 15330, Note_on_c, 0, 60, 80
2, 15330, Note_on_c, 0, 55, 62
2, 15345, Note_on_c, 0, 55, 0
2, 15349, Note_on_c, 0, 60, 0
2, 15360, Note_on_c, 0, 65, 80
2, 15360, Note_on_c, 0, 57, 72
2, 15360, Note_on_c, 0, 60, 72
2, 15417, Note_on_c, 0, 65, 0
2, 15420, Note_on_c, 0, 67, 76
2, 15477, Note_on_c, 0, 67, 0
2, 15480, Note_on_c, 0, 69, 72
2, 15513, Note_on_c, 0, 60, 0
2, 15514, Note_on_c, 0, 57, 0
2, 15534, Note_on_c, 0, 69, 0
2, 15540, Note_on_c, 0, 60, 76
2, 15540, Note_on_c, 0, 53, 76
2, 15584, Note_on_c, 0, 53, 0
2, 15585, Note_on_c, 0, 53, 76
2, 15600, Note_on_c, 0, 62, 76
2, 15604, Note_on_c, 0, 60, 0
2, 15707, Note_on_c, 0, 53, 0
2, 15716, Note_on_c, 0, 62, 0
2, 15720, Note_on_c, 0, 65, 80
2, 15720, Note_on_c, 0, 60, 76
2, 15821, Note_on_c, 0, 60, 0
2, 15840, Note_on_c, 0, 60, 76
2, 15855, Note_on_c, 0, 58, 57
2, 15856, Note_on_c, 0, 60, 0
2, 15867, Note_on_c, 0, 58, 0
2, 15870, Note_on_c, 0, 60, 80
2, 15885, Note_on_c, 0, 58, 60
2, 15886, Note_on_c, 0, 60, 0
2, 15899, Note_on_c, 0, 58, 0
2, 15900, Note_on_c, 0, 60, 72
2, 15915, Note_on_c, 0, 58, 60
2, 15916, Note_on_c, 0, 60, 0
2, 15930, Note_on_c, 0, 58, 0
2, 15930, Note_on_c, 0, 57, 56
2, 15942, Note_on_c, 0, 57, 0
2, 15945, Note_on_c, 0, 58, 59
2, 15951, Note_on_c, 0, 65, 0
2, 15958, Note_on_c, 0, 58, 0
2, 15960, Note_on_c, 0, 64, 80
2, 15960, Note_on_c, 0, 60, 72
2, 16015, Note_on_c, 0, 60, 0
2, 16020, Note_on_c, 0, 58, 76
2, 16075, Note_on_c, 0, 58, 0
2, 16079, Note_on_c, 0, 64, 0
2, 16080, Note_on_c, 0, 65, 76
2, 16080, Note_on_c, 0, 57, 85
2, 16202, Note_on_c, 0, 57, 0
2, 16203, Note_on_c, 0, 65, 0
2, 16230, Note_on_c, 0, 60, 80
2, 16230, Note_on_c, 0, 57, 85
2, 16258, Note_on_c, 0, 57, 0
2, 16260, Note_on_c, 0, 62, 76
2, 16260, Note_on_c, 0, 58, 68
2, 16261, Note_on_c, 0, 60, 0
2, 16287, Note_on_c, 0, 58, 0
2, 16288, Note_on_c, 0, 62, 0
2, 16290, Note_on_c, 0, 64, 80
2, 16290, Note_on_c, 0, 60, 76
2, 16319, Note_on_c, 0, 60, 0
2, 16319, Note_on_c, 0, 64, 0
2, 16320, Note_on_c, 0, 65, 76
2, 16320, Note_on_c, 0, 62, 89
2, 16345, Note_on_c, 0, 65, 0
2, 16349, Note_on_c, 0, 62, 0
2, 16350, Note_on_c, 0, 67, 80
2, 16350, Note_on_c, 0, 64, 76
2, 16376, Note_on_c, 0, 64, 0
2, 16379, Note_on_c, 0, 67, 0
2, 16380, Note_on_c, 0, 69, 76
2, 16380, Note_on_c, 0, 65, 72
2, 16406, Note_on_c, 0, 65, 0
2, 16408, Note_on_c, 0, 69, 0
2, 16410, Note_on_c, 0, 70, 72
2, 16410, Note_on_c, 0, 67, 85
2, 16439, Note_on_c, 0, 67, 0
2, 16439, Note_on_c, 0, 70, 0
2, 16440, Note_on_c, 0, 72, 80
2, 16440, Note_on_c, 0, 69, 80
2, 16615, Note_on_c, 0, 69, 0
2, 16618, Note_on_c, 0, 72, 0
2, 16620, Note_on_c, 0, 70, 72
2, 16620, Note_on_c, 0, 67, 76
2, 16680, Note_on_c, 0, 69, 80
2, 16680, Note_on_c, 0, 65, 72
2, 16683, Note_on_c, 0, 67, 0
2, 16683, Note_on_c, 0, 70, 0
2, 16779, Note_on_c, 0, 69, 0
2, 16800, Note_on_c, 0, 69, 89
2, 16815, Note_on_c, 0, 69, 0
2, 16815, Note_on_c, 0, 67, 68
2, 16828, Note_on_c, 0, 67, 0
2, 16830, Note_on_c, 0, 69, 64
2, 16845, Note_on_c, 0, 67, 64
2, 16847, Note_on_c, 0, 69, 0
2, 16858, Note_on_c, 0, 67, 0
2, 16860, Note_on_c, 0, 69, 72
2, 16875, Note_on_c, 0, 67, 64
2, 16876, Note_on_c, 0, 69, 0
2, 16890, Note_on_c, 0, 67, 0
2, 16890, Note_on_c, 0, 69, 68
2, 16905, Note_on_c, 0, 69, 0
2, 16905, Note_on_c, 0, 67, 62
2, 16914, Note_on_c, 0, 65, 0
2, 16919, Note_on_c, 0, 67, 0
2, 16920, Note_on_c, 0, 69, 72
2, 16920, Note_on_c, 0, 64, 80
2, 16935, Note_on_c, 0, 69, 0
2, 16935, Note_on_c, 0, 67, 62
2, 16949, Note_on_c, 0, 67, 0
2, 16950, Note_on_c, 0, 69, 72
2, 16965, Note_on_c, 0, 67, 68
2, 16966, Note_on_c, 0, 69, 0
2, 16978, Note_on_c, 0, 67, 0
2, 16980, Note_on_c, 0, 65, 64
2, 17010, Note_on_c, 0, 65, 0
2, 17010, Note_on_c, 0, 67, 76
2, 17040, Note_on_c, 0, 65, 76
2, 17041, Note_on_c, 0, 67, 0
2, 17044, Note_on_c, 0, 64, 0
2, 17096, Note_on_c, 0, 65, 0
2, 17100, Note_on_c, 0, 69, 68
2, 17128, Note_on_c, 0, 69, 0
2, 17130, Note_on_c, 0, 67, 72
2, 17159, Note_on_c, 0, 67, 0
2, 17160, Note_on_c, 0, 65, 72
2, 17190, Note_on_c, 0, 65, 0
2, 17190, Note_on_c, 0, 64, 76
2, 17220, Note_on_c, 0, 62, 85
2, 17220, Note_on_c, 0, 53, 85
2, 17222, Note_on_c, 0, 64, 0
2, 17250, Note_on_c, 0, 62, 0
2, 17250, Note_on_c, 0, 60, 72
2, 17280, Note_on_c, 0, 58, 76
2, 17281, Note_on_c, 0, 60, 0
2, 17338, Note_on_c, 0, 53, 0
2, 17340, Note_on_c, 0, 70, 38
2, 17340, Note_on_c, 0, 52, 64
2, 17341, Note_on_c, 0, 58, 0
2, 17362, Note_on_c, 0, 70, 0
2, 17370, Note_on_c, 0, 69, 80
2, 17400, Note_on_c, 0, 67, 80
2, 17403, Note_on_c, 0, 69, 0
2, 17412, Note_on_c, 0, 52, 0
2, 17430, Note_on_c, 0, 67, 0
2, 17430, Note_on_c, 0, 65, 72
2, 17460, Note_on_c, 0, 65, 0
2, 17460, Note_on_c, 0, 64, 76
2, 17460, Note_on_c, 0, 55, 93
2, 17485, Note_on_c, 0, 64, 0
2, 17490, Note_on_c, 0, 62, 64
2, 17520, Note_on_c, 0, 62, 0
2, 17520, Note_on_c, 0, 60, 76
2, 17576, Note_on_c, 0, 55, 0
2, 17578, Note_on_c, 0, 60, 0
2, 17580, Note_on_c, 0, 72, 68
2, 17580, Note_on_c, 0, 53, 76
2, 17610, Note_on_c, 0, 72, 0
2, 17610, Note_on_c, 0, 70, 68
2, 17639, Note_on_c, 0, 70, 0
2, 17640, Note_on_c, 0, 69, 76
2, 17649, Note_on_c, 0, 53, 0
2, 17670, Note_on_c, 0, 69, 0
2, 17670, Note_on_c, 0, 67, 76
2, 17697, Note_on_c, 0, 67, 0
2, 17700, Note_on_c, 0, 65, 64
2, 17700, Note_on_c, 0, 57, 93
2, 17728, Note_on_c, 0, 65, 0
2, 17730, Note_on_c, 0, 64, 80
2, 17759, Note_on_c, 0, 64, 0
2, 17760, Note_on_c, 0, 62, 85
2, 17817, Note_on_c, 0, 57, 0
2, 17818, Note_on_c, 0, 62, 0
2, 17820, Note_on_c, 0, 74, 89
2, 17820, Note_on_c, 0, 55, 89
2, 17850, Note_on_c, 0, 72, 89
2, 17852, Note_on_c, 0, 74, 0
2, 17880, Note_on_c, 0, 70, 76
2, 17881, Note_on_c, 0, 72, 0
2, 17882, Note_on_c, 0, 55, 0
2, 17910, Note_on_c, 0, 69, 76
2, 17910, Note_on_c, 0, 65, 85
2, 17912, Note_on_c, 0, 70, 0
2, 17939, Note_on_c, 0, 69, 0
2, 17940, Note_on_c, 0, 67, 76
2, 17940, Note_on_c, 0, 64, 89
2, 17943, Note_on_c, 0, 65, 0
2, 17969, Note_on_c, 0, 67, 0
2, 17970, Note_on_c, 0, 64, 0
2, 17970, Note_on_c, 0, 65, 68
2, 17970, Note_on_c, 0, 62, 85
2, 17999, Note_on_c, 0, 62, 0
2, 18000, Note_on_c, 0, 64, 76
2, 18000, Note_on_c, 0, 60, 76
2, 18002, Note_on_c, 0, 65, 0
2, 18132, Note_on_c, 0, 64, 0
2, 18145, Note_on_c, 0, 60, 0
2, 18180, Note_on_c, 0, 64, 93
2, 18180, Note_on_c, 0, 60, 85
2, 18240, Note_on_c, 0, 65, 80
2, 18243, Note_on_c, 0, 64, 0
2, 18297, Note_on_c, 0, 65, 0
2, 18298, Note_on_c, 0, 60, 0
2, 18300, Note_on_c, 0, 62, 76
2, 18300, Note_on_c, 0, 59, 80
2, 18363, Note_on_c, 0, 59, 0
2, 18378, Note_on_c, 0, 62, 0
2, 18420, Note_on_c, 0, 65, 85
2, 18420, Note_on_c, 0, 62, 85
2, 18480, Note_on_c, 0, 67, 85
2, 18481, Note_on_c, 0, 65, 0
2, 18539, Note_on_c, 0, 62, 0
2, 18540, Note_on_c, 0, 64, 80
2, 18540, Note_on_c, 0, 60, 72
2, 18542, Note_on_c, 0, 67, 0
2, 18617, Note_on_c, 0, 60, 0
2, 18626, Note_on_c, 0, 64, 0
2, 18660, Note_on_c, 0, 67, 93
2, 18660, Note_on_c, 0, 64, 89
2, 18716, Note_on_c, 0, 67, 0
2, 18720, Note_on_c, 0, 69, 89
2, 18777, Note_on_c, 0, 64, 0
2, 18780, Note_on_c, 0, 62, 89
2, 18848, Note_on_c, 0, 62, 0
2, 18897, Note_on_c, 0, 69, 0
2, 18900, Note_on_c, 0, 60, 80
2, 18900, Note_on_c, 0, 54, 76
2, 18945, Note_on_c, 0, 54, 0
2, 18955, Note_on_c, 0, 60, 0
2, 18960, Note_on_c, 0, 59, 93
2, 18960, Note_on_c, 0, 55, 89
2, 19002, Note_on_c, 0, 55, 0
2, 19020, Note_on_c, 0, 74, 89
2, 19020, Note_on_c, 0, 71, 76
2, 19021, Note_on_c, 0, 59, 0
2, 19048, Note_on_c, 0, 74, 0
2, 19050, Note_on_c, 0, 71, 0
2, 19050, Note_on_c, 0, 72, 76
2, 19050, Note_on_c, 0, 69, 72
2, 19080, Note_on_c, 0, 72, 0
2, 19080, Note_on_c, 0, 71, 89
2, 19080, Note_on_c, 0, 67, 64
2, 19087, Note_on_c, 0, 69, 0
2, 19110, Note_on_c, 0, 71, 0
2, 19110, Note_on_c, 0, 69, 85
2, 19110, Note_on_c, 0, 65, 80
2, 19111, Note_on_c, 0, 67, 0
2, 19137, Note_on_c, 0, 69, 0
2, 19139, Note_on_c, 0, 65, 0
2, 19140, Note_on_c, 0, 67, 72
2, 19140, Note_on_c, 0, 64, 76
2, 19166, Note_on_c, 0, 64, 0
2, 19170, Note_on_c, 0, 67, 0
2, 19170, Note_on_c, 0, 65, 76
2, 19170, Note_on_c, 0, 62, 80
2, 19195, Note_on_c, 0, 65, 0
2, 19200, Note_on_c, 0, 65, 89
2, 19215, Note_on_c, 0, 64, 89
2, 19217, Note_on_c, 0, 65, 0
2, 19228, Note_on_c, 0, 64, 0
2, 19230, Note_on_c, 0, 65, 72
2, 19245, Note_on_c, 0, 64, 72
2, 19246, Note_on_c, 0, 65, 0
2, 19260, Note_on_c, 0, 62, 0
2, 19260, Note_on_c, 0, 65, 68
2, 19260, Note_on_c, 0, 55, 80
2, 19261, Note_on_c, 0, 64, 0
2, 19275, Note_on_c, 0, 64, 76
2, 19277, Note_on_c, 0, 65, 0
2, 19290, Note_on_c, 0, 64, 0
2, 19290, Note_on_c, 0, 65, 68
2, 19305, Note_on_c, 0, 64, 72
2, 19307, Note_on_c, 0, 65, 0
2, 19319, Note_on_c, 0, 55, 0
2, 19320, Note_on_c, 0, 65, 76
2, 19320, Note_on_c, 0, 60, 80
2, 19322, Note_on_c, 0, 64, 0
2, 19335, Note_on_c, 0, 64, 80
2, 19336, Note_on_c, 0, 65, 0
2, 19350, Note_on_c, 0, 65, 64
2, 19351, Note_on_c, 0, 64, 0
2, 19365, Note_on_c, 0, 64, 80
2, 19367, Note_on_c, 0, 65, 0
2, 19379, Note_on_c, 0, 64, 0
2, 19380, Note_on_c, 0, 62, 89
2, 19408, Note_on_c, 0, 62, 0
2, 19410, Note_on_c, 0, 64, 76
2, 19439, Note_on_c, 0, 64, 0
2, 19440, Note_on_c, 0, 62, 80
2, 19457, Note_on_c, 0, 60, 0
2, 19470, Note_on_c, 0, 59, 85
2, 19493, Note_on_c, 0, 62, 0
2, 19500, Note_on_c, 0, 74, 89
2, 19500, Note_on_c, 0, 71, 80
2, 19503, Note_on_c, 0, 59, 0
2, 19527, Note_on_c, 0, 71, 0
2, 19528, Note_on_c, 0, 74, 0
2, 19530, Note_on_c, 0, 72, 76
2, 19530, Note_on_c, 0, 69, 60
2, 19560, Note_on_c, 0, 72, 0
2, 19560, Note_on_c, 0, 71, 76
2, 19560, Note_on_c, 0, 67, 85
2, 19565, Note_on_c, 0, 69, 0
2, 19589, Note_on_c, 0, 71, 0
2, 19590, Note_on_c, 0, 67, 0
2, 19590, Note_on_c, 0, 69, 80
2, 19590, Note_on_c, 0, 65, 76
2, 19618, Note_on_c, 0, 65, 0
2, 19619, Note_on_c, 0, 69, 0
2, 19620, Note_on_c, 0, 67, 80
2, 19620, Note_on_c, 0, 64, 76
2, 19649, Note_on_c, 0, 64, 0
2, 19650, Note_on_c, 0, 65, 76
2, 19650, Note_on_c, 0, 62, 93
2, 19652, Note_on_c, 0, 67, 0
2, 19671, Note_on_c, 0, 65, 0
2, 19680, Note_on_c, 0, 65, 80
2, 19695, Note_on_c, 0, 64, 72
2, 19700, Note_on_c, 0, 65, 0
2, 19710, Note_on_c, 0, 65, 68
2, 19711, Note_on_c, 0, 64, 0
2, 19725, Note_on_c, 0, 64, 72
2, 19726, Note_on_c, 0, 65, 0
2, 19740, Note_on_c, 0, 64, 0
2, 19740, Note_on_c, 0, 62, 0
2, 19740, Note_on_c, 0, 65, 72
2, 19740, Note_on_c, 0, 55, 80
2, 19755, Note_on_c, 0, 64, 64
2, 19757, Note_on_c, 0, 65, 0
2, 19769, Note_on_c, 0, 64, 0
2, 19770, Note_on_c, 0, 65, 62
2, 19785, Note_on_c, 0, 65, 0
2, 19785, Note_on_c, 0, 64, 68
2, 19798, Note_on_c, 0, 55, 0
2, 19800, Note_on_c, 0, 64, 0
2, 19800, Note_on_c, 0, 65, 76
2, 19800, Note_on_c, 0, 60, 76
2, 19815, Note_on_c, 0, 65, 0
2, 19815, Note_on_c, 0, 64, 72
2, 19828, Note_on_c, 0, 64, 0
2, 19830, Note_on_c, 0, 65, 76
2, 19845, Note_on_c, 0, 64, 80
2, 19847, Note_on_c, 0, 65, 0
2, 19857, Note_on_c, 0, 64, 0
2, 19860, Note_on_c, 0, 62, 93
2, 19890, Note_on_c, 0, 62, 0
2, 19890, Note_on_c, 0, 64, 80
2, 19917, Note_on_c, 0, 60, 0
2, 19920, Note_on_c, 0, 64, 0
2, 19920, Note_on_c, 0, 62, 85
2, 19920, Note_on_c, 0, 59, 89
2, 20032, Note_on_c, 0, 62, 0
2, 20043, Note_on_c, 0, 59, 0
2, 20160, Note_on_c, 0, 52, 80
2, 20189, Note_on_c, 0, 52, 0
2, 20190, Note_on_c, 0, 53, 80
2, 20219, Note_on_c, 0, 53, 0
2, 20220, Note_on_c, 0, 52, 85
2, 20249, Note_on_c, 0, 52, 0
2, 20250, Note_on_c, 0, 53, 80
2, 20280, Note_on_c, 0, 55, 85
2, 20281, Note_on_c, 0, 53, 0
2, 20309, Note_on_c, 0, 55, 0
2, 20310, Note_on_c, 0, 53, 64
2, 20340, Note_on_c, 0, 59, 85
2, 20340, Note_on_c, 0, 55, 72
2, 20343, Note_on_c, 0, 53, 0
2, 20368, Note_on_c, 0, 55, 0
2, 20370, Note_on_c, 0, 53, 62
2, 20397, Note_on_c, 0, 59, 0
2, 20398, Note_on_c, 0, 53, 0
2, 20400, Note_on_c, 0, 60, 76
2, 20400, Note_on_c, 0, 52, 80
2, 20429, Note_on_c, 0, 52, 0
2, 20430, Note_on_c, 0, 53, 64
2, 20458, Note_on_c, 0, 60, 0
2, 20459, Note_on_c, 0, 53, 0
2, 20460, Note_on_c, 0, 55, 89
2, 20460, Note_on_c, 0, 52, 64
2, 20490, Note_on_c, 0, 53, 72
2, 20491, Note_on_c, 0, 52, 0
2, 20520, Note_on_c, 0, 53, 0
2, 20520, Note_on_c, 0, 55, 80
2, 20523, Note_on_c, 0, 55, 0
2, 20549, Note_on_c, 0, 55, 0
2, 20550, Note_on_c, 0, 53, 76
2, 20580, Note_on_c, 0, 53, 0
2, 20580, Note_on_c, 0, 59, 85
2, 20580, Note_on_c, 0, 55, 80
2, 20610, Note_on_c, 0, 53, 80
2, 20613, Note_on_c, 0, 55, 0
2, 20638, Note_on_c, 0, 59, 0
2, 20640, Note_on_c, 0, 60, 89
2, 20640, Note_on_c, 0, 52, 85
2, 20641, Note_on_c, 0, 53, 0
2, 20693, Note_on_c, 0, 60, 0
2, 20700, Note_on_c, 0, 64, 85
2, 20722, Note_on_c, 0, 64, 0
2, 20747, Note_on_c, 0, 52, 0
2, 20760, Note_on_c, 0, 67, 93
2, 20790, Note_on_c, 0, 64, 76
2, 20818, Note_on_c, 0, 64, 0
2, 20820, Note_on_c, 0, 62, 68
2, 20850, Note_on_c, 0, 60, 72
2, 20851, Note_on_c, 0, 62, 0
2, 20879, Note_on_c, 0, 60, 0
2, 20880, Note_on_c, 0, 59, 76
2, 20909, Note_on_c, 0, 59, 0
2, 20910, Note_on_c, 0, 60, 76
2, 20940, Note_on_c, 0, 59, 80
2, 20941, Note_on_c, 0, 60, 0
2, 20969, Note_on_c, 0, 59, 0
2, 20970, Note_on_c, 0, 57, 68
2, 20984, Note_on_c, 0, 67, 0
2, 20999, Note_on_c, 0, 57, 0
2, 21000, Note_on_c, 0, 60, 85
2, 21000, Note_on_c, 0, 55, 85
2, 21015, Note_on_c, 0, 60, 0
2, 21015, Note_on_c, 0, 59, 85
2, 21026, Note_on_c, 0, 59, 0
2, 21028, Note_on_c, 0, 55, 0
2, 21030, Note_on_c, 0, 60, 68
2, 21030, Note_on_c, 0, 57, 76
2, 21043, Note_on_c, 0, 60, 0
2, 21045, Note_on_c, 0, 59, 76
2, 21059, Note_on_c, 0, 59, 0
2, 21060, Note_on_c, 0, 60, 80
2, 21060, Note_on_c, 0, 55, 80
2, 21062, Note_on_c, 0, 57, 0
2, 21075, Note_on_c, 0, 59, 89
2, 21078, Note_on_c, 0, 60, 0
2, 21090, Note_on_c, 0, 59, 0
2, 21090, Note_on_c, 0, 55, 0
2, 21090, Note_on_c, 0, 57, 76
2, 21090, Note_on_c, 0, 53, 72
2, 21105, Note_on_c, 0, 59, 68
2, 21106, Note_on_c, 0, 57, 0
2, 21117, Note_on_c, 0, 53, 0
2, 21119, Note_on_c, 0, 59, 0
2, 21120, Note_on_c, 0, 60, 80
2, 21120, Note_on_c, 0, 52, 80
2, 21165, Note_on_c, 0, 52, 0
2, 21180, Note_on_c, 0, 64, 59
2, 21209, Note_on_c, 0, 64, 0
2, 21210, Note_on_c, 0, 65, 76
2, 21231, Note_on_c, 0, 60, 0
2, 21238, Note_on_c, 0, 65, 0
2, 21240, Note_on_c, 0, 67, 72
2, 21269, Note_on_c, 0, 67, 0
2, 21270, Note_on_c, 0, 65, 76
2, 21298, Note_on_c, 0, 65, 0
2, 21300, Note_on_c, 0, 71, 93
2, 21300, Note_on_c, 0, 67, 55
2, 21328, Note_on_c, 0, 67, 0
2, 21330, Note_on_c, 0, 65, 64
2, 21360, Note_on_c, 0, 72, 89
2, 21360, Note_on_c, 0, 64, 76
2, 21361, Note_on_c, 0, 71, 0
2, 21362, Note_on_c, 0, 65, 0
2, 21390, Note_on_c, 0, 65, 76
2, 21391, Note_on_c, 0, 64, 0
2, 21415, Note_on_c, 0, 72, 0
2, 21420, Note_on_c, 0, 65, 0
2, 21420, Note_on_c, 0, 67, 85
2, 21420, Note_on_c, 0, 64, 76
2, 21448, Note_on_c, 0, 64, 0
2, 21450, Note_on_c, 0, 65, 76
2, 21470, Note_on_c, 0, 67, 0
2, 21480, Note_on_c, 0, 65, 0
2, 21480, Note_on_c, 0, 67, 68
2, 21508, Note_on_c, 0, 67, 0
2, 21510, Note_on_c, 0, 65, 72
2, 21540, Note_on_c, 0, 65, 0
2, 21540, Note_on_c, 0, 71, 93
2, 21540, Note_on_c, 0, 67, 76
2, 21565, Note_on_c, 0, 67, 0
2, 21570, Note_on_c, 0, 65, 64
2, 21598, Note_on_c, 0, 71, 0
2, 21600, Note_on_c, 0, 72, 89
2, 21600, Note_on_c, 0, 64, 76
2, 21605, Note_on_c, 0, 65, 0
2, 21656, Note_on_c, 0, 72, 0
2, 21660, Note_on_c, 0, 64, 89
2, 21676, Note_on_c, 0, 64, 0
2, 21720, Note_on_c, 0, 67, 85
2, 21724, Note_on_c, 0, 64, 0
2, 21750, Note_on_c, 0, 64, 93
2, 21779, Note_on_c, 0, 64, 0
2, 21780, Note_on_c, 0, 62, 76
2, 21810, Note_on_c, 0, 60, 72
2, 21811, Note_on_c, 0, 62, 0
2, 21840, Note_on_c, 0, 59, 89
2, 21841, Note_on_c, 0, 60, 0
2, 21869, Note_on_c, 0, 59, 0
2, 21870, Note_on_c, 0, 60, 80
2, 21900, Note_on_c, 0, 59, 89
2, 21902, Note_on_c, 0, 60, 0
2, 21929, Note_on_c, 0, 59, 0
2, 21930, Note_on_c, 0, 57, 72
2, 21939, Note_on_c, 0, 67, 0
2, 21959, Note_on_c, 0, 57, 0
2, 21960, Note_on_c, 0, 60, 72
2, 21960, Note_on_c, 0, 55, 80
2, 21974, Note_on_c, 0, 60, 0
2, 21975, Note_on_c, 0, 59, 68
2, 21989, Note_on_c, 0, 59, 0
2, 21989, Note_on_c, 0, 55, 0
2, 21990, Note_on_c, 0, 60, 72
2, 21990, Note_on_c, 0, 57, 80
2, 22005, Note_on_c, 0, 59, 72
2, 22006, Note_on_c, 0, 60, 0
2, 22020, Note_on_c, 0, 60, 72
2, 22020, Note_on_c, 0, 55, 85
2, 22021, Note_on_c, 0, 59, 0
2, 22021, Note_on_c, 0, 57, 0
2, 22035, Note_on_c, 0, 59, 68
2, 22037, Note_on_c, 0, 60, 0
2, 22049, Note_on_c, 0, 59, 0
2, 22049, Note_on_c, 0, 55, 0
2, 22050, Note_on_c, 0, 57, 76
2, 22050, Note_on_c, 0, 53, 72
2, 22065, Note_on_c, 0, 57, 0
2, 22065, Note_on_c, 0, 59, 89
2, 22077, Note_on_c, 0, 59, 0
2, 22078, Note_on_c, 0, 53, 0
2, 22080, Note_on_c, 0, 60, 80
2, 22080, Note_on_c, 0, 52, 72
2, 22109, Note_on_c, 0, 52, 0
2, 22110, Note_on_c, 0, 53, 80
2, 22137, Note_on_c, 0, 53, 0
2, 22140, Note_on_c, 0, 52, 76
2, 22170, Note_on_c, 0, 53, 85
2, 22171, Note_on_c, 0, 52, 0
2, 22200, Note_on_c, 0, 55, 89
2, 22202, Note_on_c, 0, 53, 0
2, 22230, Note_on_c, 0, 55, 0
2, 22230, Note_on_c, 0, 53, 68
2, 22260, Note_on_c, 0, 55, 85
2, 22261, Note_on_c, 0, 53, 0
2, 22289, Note_on_c, 0, 55, 0
2, 22290, Note_on_c, 0, 52, 80
2, 22310, Note_on_c, 0, 60, 0
2, 22320, Note_on_c, 0, 59, 85
2, 22320, Note_on_c, 0, 53, 85
2, 22321, Note_on_c, 0, 52, 0
2, 22349, Note_on_c, 0, 53, 0
2, 22350, Note_on_c, 0, 55, 80
2, 22379, Note_on_c, 0, 55, 0
2, 22380, Note_on_c, 0, 53, 72
2, 22409, Note_on_c, 0, 53, 0
2, 22410, Note_on_c, 0, 55, 89
2, 22440, Note_on_c, 0, 56, 76
2, 22444, Note_on_c, 0, 55, 0
2, 22469, Note_on_c, 0, 56, 0
2, 22470, Note_on_c, 0, 55, 80
2, 22500, Note_on_c, 0, 55, 0
2, 22500, Note_on_c, 0, 56, 76
2, 22529, Note_on_c, 0, 56, 0
2, 22530, Note_on_c, 0, 53, 80
2, 22539, Note_on_c, 0, 59, 0
2, 22560, Note_on_c, 0, 60, 76
2, 22560, Note_on_c, 0, 55, 93
2, 22561, Note_on_c, 0, 53, 0
2, 22575, Note_on_c, 0, 58, 68
2, 22576, Note_on_c, 0, 60, 0
2, 22588, Note_on_c, 0, 55, 0
2, 22589, Note_on_c, 0, 58, 0
2, 22590, Note_on_c, 0, 60, 62
2, 22590, Note_on_c, 0, 53, 72
2, 22605, Note_on_c, 0, 58, 64
2, 22607, Note_on_c, 0, 60, 0
2, 22618, Note_on_c, 0, 58, 0
2, 22620, Note_on_c, 0, 53, 0
2, 22620, Note_on_c, 0, 60, 64
2, 22620, Note_on_c, 0, 55, 89
2, 22635, Note_on_c, 0, 58, 59
2, 22637, Note_on_c, 0, 60, 0
2, 22647, Note_on_c, 0, 58, 0
2, 22650, Note_on_c, 0, 55, 0
2, 22650, Note_on_c, 0, 60, 68
2, 22650, Note_on_c, 0, 53, 76
2, 22665, Note_on_c, 0, 60, 0
2, 22665, Note_on_c, 0, 58, 72
2, 22678, Note_on_c, 0, 53, 0
2, 22679, Note_on_c, 0, 58, 0
2, 22680, Note_on_c, 0, 60, 64
2, 22680, Note_on_c, 0, 52, 89
2, 22695, Note_on_c, 0, 60, 0
2, 22695, Note_on_c, 0, 58, 60
2, 22709, Note_on_c, 0, 52, 0
2, 22710, Note_on_c, 0, 60, 62
2, 22710, Note_on_c, 0, 53, 89
2, 22712, Note_on_c, 0, 58, 0
2, 22723, Note_on_c, 0, 60, 0
2, 22725, Note_on_c, 0, 58, 57
2, 22739, Note_on_c, 0, 58, 0
2, 22739, Note_on_c, 0, 53, 0
2, 22740, Note_on_c, 0, 57, 89
2, 22740, Note_on_c, 0, 52, 85
2, 22767, Note_on_c, 0, 57, 0
2, 22769, Note_on_c, 0, 52, 0
2, 22770, Note_on_c, 0, 58, 85
2, 22770, Note_on_c, 0, 55, 89
2, 22797, Note_on_c, 0, 58, 0
2, 22800, Note_on_c, 0, 57, 85
2, 22800, Note_on_c, 0, 53, 80
2, 22801, Note_on_c, 0, 55, 0
2, 22828, Note_on_c, 0, 57, 0
2, 22830, Note_on_c, 0, 53, 0
2, 22830, Note_on_c, 0, 58, 76
2, 22830, Note_on_c, 0, 55, 93
2, 22859, Note_on_c, 0, 55, 0
2, 22859, Note_on_c, 0, 58, 0
2, 22860, Note_on_c, 0, 57, 76
2, 22860, Note_on_c, 0, 53, 80
2, 22889, Note_on_c, 0, 53, 0
2, 22889, Note_on_c, 0, 57, 0
2, 22890, Note_on_c, 0, 58, 76
2, 22890, Note_on_c, 0, 55, 93
2, 22919, Note_on_c, 0, 58, 0
2, 22920, Note_on_c, 0, 55, 0
2, 22920, Note_on_c, 0, 60, 89
2, 22920, Note_on_c, 0, 57, 89
2, 22948, Note_on_c, 0, 57, 0
2, 22948, Note_on_c, 0, 60, 0
2, 22950, Note_on_c, 0, 58, 80
2, 22950, Note_on_c, 0, 55, 89
2, 22979, Note_on_c, 0, 55, 0
2, 22979, Note_on_c, 0, 58, 0
2, 22980, Note_on_c, 0, 60, 93
2, 22980, Note_on_c, 0, 57, 98
2, 23007, Note_on_c, 0, 60, 0
2, 23010, Note_on_c, 0, 57, 0
2, 23010, Note_on_c, 0, 57, 85
2, 23010, Note_on_c, 0, 53, 59
2, 23040, Note_on_c, 0, 67, 76
2, 23040, Note_on_c, 0, 55, 93
2, 23041, Note_on_c, 0, 57, 0
2, 23044, Note_on_c, 0, 53, 0
2, 23069, Note_on_c, 0, 55, 0
2, 23070, Note_on_c, 0, 57, 89
2, 23100, Note_on_c, 0, 57, 0
2, 23100, Note_on_c, 0, 55, 85
2, 23130, Note_on_c, 0, 55, 0
2, 23130, Note_on_c, 0, 57, 89
2, 23159, Note_on_c, 0, 57, 0
2, 23160, Note_on_c, 0, 59, 89
2, 23188, Note_on_c, 0, 59, 0
2, 23190, Note_on_c, 0, 57, 89
2, 23220, Note_on_c, 0, 59, 89
2, 23223, Note_on_c, 0, 57, 0
2, 23250, Note_on_c, 0, 59, 0
2, 23250, Note_on_c, 0, 55, 72
2, 23280, Note_on_c, 0, 66, 72
2, 23280, Note_on_c, 0, 57, 93
2, 23282, Note_on_c, 0, 55, 0
2, 23309, Note_on_c, 0, 57, 0
2, 23310, Note_on_c, 0, 59, 85
2, 23339, Note_on_c, 0, 59, 0
2, 23340, Note_on_c, 0, 57, 76
2, 23369, Note_on_c, 0, 57, 0
2, 23370, Note_on_c, 0, 59, 85
2, 23400, Note_on_c, 0, 60, 85
2, 23401, Note_on_c, 0, 59, 0
2, 23429, Note_on_c, 0, 60, 0
2, 23430, Note_on_c, 0, 59, 85
2, 23460, Note_on_c, 0, 59, 0
2, 23460, Note_on_c, 0, 60, 89
2, 23490, Note_on_c, 0, 60, 0
2, 23490, Note_on_c, 0, 57, 76
2, 23508, Note_on_c, 0, 66, 0
2, 23520, Note_on_c, 0, 65, 68
2, 23520, Note_on_c, 0, 59, 89
2, 23521, Note_on_c, 0, 57, 0
2, 23549, Note_on_c, 0, 59, 0
2, 23550, Note_on_c, 0, 60, 80
2, 23580, Note_on_c, 0, 59, 93
2, 23581, Note_on_c, 0, 60, 0
2, 23609, Note_on_c, 0, 59, 0
2, 23610, Note_on_c, 0, 60, 89
2, 23640, Note_on_c, 0, 62, 85
2, 23641, Note_on_c, 0, 60, 0
2, 23669, Note_on_c, 0, 62, 0
2, 23670, Note_on_c, 0, 60, 85
2, 23688, Note_on_c, 0, 65, 0
2, 23700, Note_on_c, 0, 64, 89
2, 23700, Note_on_c, 0, 62, 89
2, 23701, Note_on_c, 0, 60, 0
2, 23730, Note_on_c, 0, 64, 0
2, 23730, Note_on_c, 0, 65, 72
2, 23730, Note_on_c, 0, 59, 76
2, 23733, Note_on_c, 0, 62, 0
2, 23760, Note_on_c, 0, 63, 62
2, 23760, Note_on_c, 0, 60, 85
2, 23761, Note_on_c, 0, 65, 0
2, 23762, Note_on_c, 0, 59, 0
2, 23790, Note_on_c, 0, 60, 0
2, 23790, Note_on_c, 0, 62, 89
2, 23820, Note_on_c, 0, 62, 0
2, 23820, Note_on_c, 0, 60, 80
2, 23849, Note_on_c, 0, 60, 0
2, 23850, Note_on_c, 0, 62, 80
2, 23875, Note_on_c, 0, 63, 0
2, 23880, Note_on_c, 0, 63, 80
2, 23881, Note_on_c, 0, 62, 0
2, 23910, Note_on_c, 0, 63, 0
2, 23910, Note_on_c, 0, 62, 85
2, 23939, Note_on_c, 0, 62, 0
2, 23940, Note_on_c, 0, 63, 72
2, 23950, Note_on_c, 0, 67, 0
2, 23970, Note_on_c, 0, 63, 0
2, 23970, Note_on_c, 0, 60, 89
2, 23996, Note_on_c, 0, 60, 0
2, 24000, Note_on_c, 0, 70, 76
2, 24000, Note_on_c, 0, 63, 64
2, 24000, Note_on_c, 0, 61, 64
2, 24000, Note_on_c, 0, 55, 89
2, 24030, Note_on_c, 0, 56, 76
2, 24031, Note_on_c, 0, 55, 0
2, 24059, Note_on_c, 0, 56, 0
2, 24060, Note_on_c, 0, 55, 80
2, 24089, Note_on_c, 0, 55, 0
2, 24090, Note_on_c, 0, 56, 85
2, 24119, Note_on_c, 0, 56, 0
2, 24120, Note_on_c, 0, 58, 80
2, 24147, Note_on_c, 0, 58, 0
2, 24150, Note_on_c, 0, 56, 80
2, 24179, Note_on_c, 0, 56, 0
2, 24180, Note_on_c, 0, 58, 80
2, 24210, Note_on_c, 0, 58, 0
2, 24210, Note_on_c, 0, 55, 76
2, 24224, Note_on_c, 0, 61, 0
2, 24228, Note_on_c, 0, 70, 0
2, 24239, Note_on_c, 0, 55, 0
2, 24240, Note_on_c, 0, 68, 76
2, 24240, Note_on_c, 0, 60, 89
2, 24269, Note_on_c, 0, 68, 0
2, 24270, Note_on_c, 0, 72, 72
2, 24299, Note_on_c, 0, 72, 0
2, 24299, Note_on_c, 0, 60, 0
2, 24300, Note_on_c, 0, 70, 62
2, 24300, Note_on_c, 0, 61, 76
2, 24329, Note_on_c, 0, 61, 0
2, 24329, Note_on_c, 0, 70, 0
2, 24330, Note_on_c, 0, 68, 72
2, 24330, Note_on_c, 0, 60, 80
2, 24359, Note_on_c, 0, 68, 0
2, 24360, Note_on_c, 0, 67, 76
2, 24360, Note_on_c, 0, 58, 76
2, 24367, Note_on_c, 0, 60, 0
2, 24390, Note_on_c, 0, 58, 0
2, 24390, Note_on_c, 0, 70, 80
2, 24390, Note_on_c, 0, 61, 76
2, 24392, Note_on_c, 0, 67, 0
2, 24416, Note_on_c, 0, 61, 0
2, 24420, Note_on_c, 0, 68, 72
2, 24420, Note_on_c, 0, 60, 76
2, 24422, Note_on_c, 0, 70, 0
2, 24443, Note_on_c, 0, 63, 0
2, 24447, Note_on_c, 0, 68, 0
2, 24449, Note_on_c, 0, 60, 0
2, 24450, Note_on_c, 0, 67, 76
2, 24450, Note_on_c, 0, 58, 76
2, 24479, Note_on_c, 0, 58, 0
2, 24480, Note_on_c, 0, 68, 76
2, 24480, Note_on_c, 0, 63, 72
2, 24480, Note_on_c, 0, 60, 80
2, 24482, Note_on_c, 0, 67, 0
2, 24508, Note_on_c, 0, 68, 0
2, 24510, Note_on_c, 0, 72, 80
2, 24539, Note_on_c, 0, 72, 0
2, 24540, Note_on_c, 0, 60, 0
2, 24540, Note_on_c, 0, 70, 59
2, 24540, Note_on_c, 0, 61, 68
2, 24569, Note_on_c, 0, 61, 0
2, 24569, Note_on_c, 0, 70, 0
2, 24570, Note_on_c, 0, 68, 62
2, 24570, Note_on_c, 0, 60, 68
2, 24599, Note_on_c, 0, 68, 0
2, 24600, Note_on_c, 0, 67, 68
2, 24600, Note_on_c, 0, 58, 72
2, 24604, Note_on_c, 0, 60, 0
2, 24630, Note_on_c, 0, 58, 0
2, 24630, Note_on_c, 0, 70, 62
2, 24630, Note_on_c, 0, 61, 76
2, 24631, Note_on_c, 0, 67, 0
2, 24656, Note_on_c, 0, 61, 0
2, 24660, Note_on_c, 0, 70, 0
2, 24660, Note_on_c, 0, 68, 72
2, 24660, Note_on_c, 0, 60, 72
2, 24689, Note_on_c, 0, 68, 0
2, 24690, Note_on_c, 0, 60, 0
2, 24690, Note_on_c, 0, 67, 72
2, 24690, Note_on_c, 0, 58, 80
2, 24719, Note_on_c, 0, 58, 0
2, 24720, Note_on_c, 0, 68, 76
2, 24720, Note_on_c, 0, 60, 76
2, 24723, Note_on_c, 0, 67, 0
2, 24750, Note_on_c, 0, 59, 85
2, 24751, Note_on_c, 0, 60, 0
2, 24779, Note_on_c, 0, 68, 0
2, 24780, Note_on_c, 0, 59, 0
2, 24780, Note_on_c, 0, 67, 80
2, 24780, Note_on_c, 0, 60, 93
2, 24810, Note_on_c, 0, 60, 0
2, 24810, Note_on_c, 0, 59, 89
2, 24839, Note_on_c, 0, 59, 0
2, 24840, Note_on_c, 0, 60, 80
2, 24870, Note_on_c, 0, 60, 0
2, 24870, Note_on_c, 0, 59, 76
2, 24894, Note_on_c, 0, 67, 0
2, 24899, Note_on_c, 0, 59, 0
2, 24900, Note_on_c, 0, 66, 80
2, 24900, Note_on_c, 0, 60, 80
2, 24930, Note_on_c, 0, 59, 85
2, 24933, Note_on_c, 0, 60, 0
2, 24933, Note_on_c, 0, 63, 0
2, 24958, Note_on_c, 0, 66, 0
2, 24960, Note_on_c, 0, 64, 76
2, 24960, Note_on_c, 0, 67, 89
2, 24960, Note_on_c, 0, 60, 89
2, 24962, Note_on_c, 0, 59, 0
2, 25084, Note_on_c, 0, 60, 0
2, 25084, Note_on_c, 0, 67, 0
2, 25088, Note_on_c, 0, 64, 0
2, 25110, Note_on_c, 0, 64, 76
2, 25110, Note_on_c, 0, 60, 98
2, 25139, Note_on_c, 0, 64, 0
2, 25140, Note_on_c, 0, 65, 89
2, 25140, Note_on_c, 0, 62, 89
2, 25141, Note_on_c, 0, 60, 0
2, 25167, Note_on_c, 0, 65, 0
2, 25170, Note_on_c, 0, 67, 76
2, 25170, Note_on_c, 0, 64, 89
2, 25171, Note_on_c, 0, 62, 0
2, 25198, Note_on_c, 0, 67, 0
2, 25200, Note_on_c, 0, 70, 76
2, 25200, Note_on_c, 0, 67, 64
2, 25201, Note_on_c, 0, 64, 0
2, 25212, Note_on_c, 0, 70, 0
2, 25213, Note_on_c, 0, 67, 0
2, 25215, Note_on_c, 0, 69, 59
2, 25215, Note_on_c, 0, 65, 76
2, 25230, Note_on_c, 0, 67, 89
2, 25230, Note_on_c, 0, 64, 85
2, 25232, Note_on_c, 0, 69, 0
2, 25235, Note_on_c, 0, 65, 0
2, 25259, Note_on_c, 0, 64, 0
2, 25260, Note_on_c, 0, 69, 85
2, 25260, Note_on_c, 0, 65, 80
2, 25263, Note_on_c, 0, 67, 0
2, 25290, Note_on_c, 0, 65, 0
2, 25290, Note_on_c, 0, 69, 0
2, 25290, Note_on_c, 0, 71, 85
2, 25290, Note_on_c, 0, 67, 72
2, 25318, Note_on_c, 0, 67, 0
2, 25319, Note_on_c, 0, 71, 0
2, 25320, Note_on_c, 0, 72, 85
2, 25320, Note_on_c, 0, 69, 76
2, 25349, Note_on_c, 0, 72, 0
2, 25350, Note_on_c, 0, 68, 76
2, 25350, Note_on_c, 0, 64, 76
2, 25353, Note_on_c, 0, 69, 0
2, 25379, Note_on_c, 0, 68, 0
2, 25380, Note_on_c, 0, 64, 0
2, 25380, Note_on_c, 0, 69, 80
2, 25380, Note_on_c, 0, 65, 85
2, 25408, Note_on_c, 0, 65, 0
2, 25409, Note_on_c, 0, 69, 0
2, 25410, Note_on_c, 0, 65, 80
2, 25410, Note_on_c, 0, 62, 76
2, 25436, Note_on_c, 0, 65, 0
2, 25439, Note_on_c, 0, 62, 0
2, 25440, Note_on_c, 0, 64, 80
2, 25440, Note_on_c, 0, 60, 80
2, 25455, Note_on_c, 0, 60, 0
2, 25455, Note_on_c, 0, 64, 0
2, 25455, Note_on_c, 0, 62, 76
2, 25455, Note_on_c, 0, 59, 76
2, 25467, Note_on_c, 0, 62, 0
2, 25469, Note_on_c, 0, 59, 0
2, 25470, Note_on_c, 0, 64, 62
2, 25470, Note_on_c, 0, 60, 76
2, 25484, Note_on_c, 0, 60, 0
2, 25484, Note_on_c, 0, 64, 0
2, 25485, Note_on_c, 0, 62, 62
2, 25485, Note_on_c, 0, 59, 68
2, 25498, Note_on_c, 0, 59, 0
2, 25499, Note_on_c, 0, 62, 0
2, 25500, Note_on_c, 0, 64, 76
2, 25500, Note_on_c, 0, 60, 80
2, 25512, Note_on_c, 0, 60, 0
2, 25515, Note_on_c, 0, 64, 0
2, 25515, Note_on_c, 0, 62, 59
2, 25515, Note_on_c, 0, 59, 72
2, 25527, Note_on_c, 0, 59, 0
2, 25529, Note_on_c, 0, 62, 0
2, 25530, Note_on_c, 0, 64, 72
2, 25530, Note_on_c, 0, 60, 64
2, 25543, Note_on_c, 0, 60, 0
2, 25545, Note_on_c, 0, 64, 0
2, 25545, Note_on_c, 0, 62, 53
2, 25545, Note_on_c, 0, 59, 62
2, 25557, Note_on_c, 0, 59, 0
2, 25560, Note_on_c, 0, 62, 0
2, 25560, Note_on_c, 0, 64, 68
2, 25560, Note_on_c, 0, 60, 72
2, 25572, Note_on_c, 0, 60, 0
2, 25575, Note_on_c, 0, 64, 0
2, 25575, Note_on_c, 0, 62, 62
2, 25575, Note_on_c, 0, 59, 80
2, 25587, Note_on_c, 0, 62, 0
2, 25588, Note_on_c, 0, 59, 0
2, 25590, Note_on_c, 0, 64, 59
2, 25590, Note_on_c, 0, 60, 62
2, 25604, Note_on_c, 0, 60, 0
2, 25605, Note_on_c, 0, 64, 0
2, 25605, Note_on_c, 0, 62, 72
2, 25605, Note_on_c, 0, 59, 64
2, 25618, Note_on_c, 0, 59, 0
2, 25618, Note_on_c, 0, 62, 0
2, 25620, Note_on_c, 0, 64, 72
2, 25620, Note_on_c, 0, 60, 76
2, 25633, Note_on_c, 0, 60, 0
2, 25634, Note_on_c, 0, 64, 0
2, 25635, Note_on_c, 0, 62, 62
2, 25635, Note_on_c, 0, 59, 68
2, 25648, Note_on_c, 0, 59, 0
2, 25648, Note_on_c, 0, 62, 0
2, 25650, Note_on_c, 0, 64, 60
2, 25650, Note_on_c, 0, 60, 68
2, 25665, Note_on_c, 0, 60, 0
2, 25665, Note_on_c, 0, 62, 72
2, 25665, Note_on_c, 0, 59, 64
2, 25666, Note_on_c, 0, 64, 0
2, 25680, Note_on_c, 0, 59, 0
2, 25680, Note_on_c, 0, 62, 0
2, 25680, Note_on_c, 0, 64, 80
2, 25680, Note_on_c, 0, 60, 76
2, 25693, Note_on_c, 0, 60, 0
2, 25695, Note_on_c, 0, 64, 0
2, 25695, Note_on_c, 0, 62, 59
2, 25695, Note_on_c, 0, 59, 64
2, 25708, Note_on_c, 0, 59, 0
2, 25709, Note_on_c, 0, 62, 0
2, 25710, Note_on_c, 0, 64, 72
2, 25710, Note_on_c, 0, 60, 64
2, 25723, Note_on_c, 0, 64, 0
2, 25724, Note_on_c, 0, 60, 0
2, 25725, Note_on_c, 0, 62, 64
2, 25725, Note_on_c, 0, 59, 72
2, 25738, Note_on_c, 0, 59, 0
2, 25740, Note_on_c, 0, 62, 0
2, 25740, Note_on_c, 0, 64, 64
2, 25740, Note_on_c, 0, 60, 76
2, 25753, Note_on_c, 0, 60, 0
2, 25755, Note_on_c, 0, 62, 59
2, 25755, Note_on_c, 0, 59, 72
2, 25756, Note_on_c, 0, 64, 0
2, 25768, Note_on_c, 0, 62, 0
2, 25769, Note_on_c, 0, 59, 0
2, 25770, Note_on_c, 0, 64, 72
2, 25770, Note_on_c, 0, 60, 62
2, 25784, Note_on_c, 0, 60, 0
2, 25785, Note_on_c, 0, 62, 64
2, 25785, Note_on_c, 0, 59, 76
2, 25786, Note_on_c, 0, 64, 0
2, 25797, Note_on_c, 0, 59, 0
2, 25799, Note_on_c, 0, 62, 0
2, 25800, Note_on_c, 0, 64, 72
2, 25800, Note_on_c, 0, 60, 76
2, 25813, Note_on_c, 0, 60, 0
2, 25815, Note_on_c, 0, 62, 64
2, 25815, Note_on_c, 0, 59, 76
2, 25817, Note_on_c, 0, 64, 0
2, 25829, Note_on_c, 0, 59, 0
2, 25830, Note_on_c, 0, 62, 0
2, 25830, Note_on_c, 0, 64, 80
2, 25830, Note_on_c, 0, 60, 68
2, 25843, Note_on_c, 0, 64, 0
2, 25845, Note_on_c, 0, 60, 0
2, 25845, Note_on_c, 0, 62, 72
2, 25845, Note_on_c, 0, 59, 68
2, 25858, Note_on_c, 0, 59, 0
2, 25859, Note_on_c, 0, 62, 0
2, 25860, Note_on_c, 0, 64, 89
2, 25860, Note_on_c, 0, 60, 72
2, 25873, Note_on_c, 0, 60, 0
2, 25875, Note_on_c, 0, 64, 0
2, 25875, Note_on_c, 0, 62, 64
2, 25875, Note_on_c, 0, 59, 76
2, 25886, Note_on_c, 0, 59, 0
2, 25887, Note_on_c, 0, 62, 0
2, 25890, Note_on_c, 0, 60, 76
2, 25890, Note_on_c, 0, 60, 76
2, 25905, Note_on_c, 0, 60, 0
2, 25905, Note_on_c, 0, 62, 76
2, 25905, Note_on_c, 0, 59, 76
2, 25907, Note_on_c, 0, 60, 0
2, 25918, Note_on_c, 0, 62, 0
2, 25920, Note_on_c, 0, 60, 85
2, 25921, Note_on_c, 0, 59, 0
2, 25949, Note_on_c, 0, 60, 0
2, 25950, Note_on_c, 0, 64, 85
2, 25980, Note_on_c, 0, 64, 0
2, 25980, Note_on_c, 0, 67, 89
2, 26010, Note_on_c, 0, 67, 0
2, 26010, Note_on_c, 0, 72, 80
2, 26032, Note_on_c, 0, 72, 0
2, 26040, Note_on_c, 0, 57, 46
2, 26040, Note_on_c, 0, 59, 55
2, 26049, Note_on_c, 0, 59, 0
2, 26069, Note_on_c, 0, 57, 0
2, 26070, Note_on_c, 0, 60, 72
2, 26100, Note_on_c, 0, 64, 89
2, 26102, Note_on_c, 0, 60, 0
2, 26129, Note_on_c, 0, 64, 0
2, 26130, Note_on_c, 0, 69, 64
2, 26149, Note_on_c, 0, 69, 0
2, 26160, Note_on_c, 0, 53, 89
2, 26188, Note_on_c, 0, 53, 0
2, 26190, Note_on_c, 0, 57, 85
2, 26220, Note_on_c, 0, 62, 76
2, 26225, Note_on_c, 0, 57, 0
2, 26250, Note_on_c, 0, 62, 0
2, 26250, Note_on_c, 0, 65, 89
2, 26277, Note_on_c, 0, 65, 0
2, 26280, Note_on_c, 0, 55, 89
2, 26310, Note_on_c, 0, 55, 0
2, 26310, Note_on_c, 0, 59, 80
2, 26340, Note_on_c, 0, 59, 0
2, 26340, Note_on_c, 0, 62, 85
2, 26369, Note_on_c, 0, 62, 0
2, 26370, Note_on_c, 0, 67, 85
2, 26398, Note_on_c, 0, 67, 0
2, 26400, Note_on_c, 0, 64, 76
2, 26400, Note_on_c, 0, 60, 76
2, 26461, Note_on_c, 0, 60, 0
2, 26463, Note_on_c, 0, 64, 0
2, 26520, Note_on_c, 0, 72, 89
2, 26520, Note_on_c, 0, 64, 93
2, 26584, Note_on_c, 0, 64, 0
2, 26585, Note_on_c, 0, 72, 0
2, 26640, Note_on_c, 0, 69, 76
2, 26640, Note_on_c, 0, 62, 72
2, 26640, Note_on_c, 0, 72, 80
2, 26710, Note_on_c, 0, 69, 0
2, 26712, Note_on_c, 0, 72, 0
2, 26712, Note_on_c, 0, 62, 0
2, 26760, Note_on_c, 0, 67, 76
2, 26760, Note_on_c, 0, 71, 76
2, 26760, Note_on_c, 0, 62, 72
2, 26760, Note_on_c, 0, 65, 89
2, 26839, Note_on_c, 0, 65, 0
2, 26840, Note_on_c, 0, 67, 0
2, 26841, Note_on_c, 0, 71, 0
2, 26845, Note_on_c, 0, 62, 0
2, 26880, Note_on_c, 0, 72, 89
2, 26880, Note_on_c, 0, 64, 76
2, 26880, Note_on_c, 0, 67, 89
2, 26932, Note_on_c, 0, 67, 0
2, 26933, Note_on_c, 0, 64, 0
2, 26936, Note_on_c, 0, 72, 0
2, 26940, Note_on_c, 0, 55, 72
2, 26940, Note_on_c, 0, 52, 76
2, 26940, Note_on_c, 0, 60, 60
2, 26989, Note_on_c, 0, 60, 0
2, 26990, Note_on_c, 0, 52, 0
2, 26990, Note_on_c, 0, 55, 0
2, 27000, Note_on_c, 0, 55, 76
2, 27000, Note_on_c, 0, 52, 80
2, 27000, Note_on_c, 0, 60, 64
2, 27045, Note_on_c, 0, 52, 0
2, 27046, Note_on_c, 0, 60, 0
2, 27046, Note_on_c, 0, 55, 0
2, 27060, Note_on_c, 0, 52, 80
2, 27060, Note_on_c, 0, 55, 80
2, 27060, Note_on_c, 0, 60, 72
2, 27105, Note_on_c, 0, 52, 0
2, 27106, Note_on_c, 0, 60, 0
2, 27106, Note_on_c, 0, 55, 0
2, 27120, Note_on_c, 0, 55, 76
2, 27120, Note_on_c, 0, 52, 85
2, 27120, Note_on_c, 0, 60, 72
2, 27237, Note_on_c, 0, 60, 0
2, 27239, Note_on_c, 0, 52, 0
2, 27239, Note_on_c, 0, 55, 0
2, 27360, Note_on_c, 0, 65, 76
2, 27360, Note_on_c, 0, 60, 64
2, 27486, Note_on_c, 0, 65, 0
2, 27491, Note_on_c, 0, 60, 0
2, 27540, Note_on_c, 0, 65, 80
2, 27540, Note_on_c, 0, 60, 76
2, 27554, Note_on_c, 0, 60, 0
2, 27562, Note_on_c, 0, 65, 0
2, 27570, Note_on_c, 0, 65, 76
2, 27570, Note_on_c, 0, 60, 72
2, 27582, Note_on_c, 0, 60, 0
2, 27591, Note_on_c, 0, 65, 0
2, 27600, Note_on_c, 0, 67, 76
2, 27600, Note_on_c, 0, 60, 72
2, 27737, Note_on_c, 0, 60, 0
2, 27742, Note_on_c, 0, 67, 0
2, 27780, Note_on_c, 0, 67, 89
2, 27780, Note_on_c, 0, 60, 76
2, 27798, Note_on_c, 0, 67, 0
2, 27799, Note_on_c, 0, 60, 0
2, 27810, Note_on_c, 0, 67, 85
2, 27810, Note_on_c, 0, 60, 80
2, 27829, Note_on_c, 0, 60, 0
2, 27831, Note_on_c, 0, 67, 0
2, 27840, Note_on_c, 0, 69, 80
2, 27840, Note_on_c, 0, 65, 68
2, 27986, Note_on_c, 0, 69, 0
2, 27987, Note_on_c, 0, 65, 0
2, 28020, Note_on_c, 0, 69, 80
2, 28020, Note_on_c, 0, 65, 76
2, 28033, Note_on_c, 0, 65, 0
2, 28037, Note_on_c, 0, 69, 0
2, 28050, Note_on_c, 0, 69, 76
2, 28050, Note_on_c, 0, 65, 76
2, 28064, Note_on_c, 0, 65, 0
2, 28071, Note_on_c, 0, 69, 0
2, 28080, Note_on_c, 0, 72, 80
2, 28080, Note_on_c, 0, 64, 80
2, 28080, Note_on_c, 0, 67, 72
2, 28211, Note_on_c, 0, 64, 0
2, 28212, Note_on_c, 0, 67, 0
2, 28218, Note_on_c, 0, 72, 0
2, 28260, Note_on_c, 0, 60, 80
2, 28260, Note_on_c, 0, 55, 80
2, 28278, Note_on_c, 0, 60, 0
2, 28279, Note_on_c, 0, 55, 0
2, 28290, Note_on_c, 0, 60, 80
2, 28290, Note_on_c, 0, 55, 62
2, 28305, Note_on_c, 0, 55, 0
2, 28309, Note_on_c, 0, 60, 0
2, 28320, Note_on_c, 0, 65, 80
2, 28320, Note_on_c, 0, 57, 72
2, 28320, Note_on_c, 0, 60, 72
2, 28377, Note_on_c, 0, 65, 0
2, 28380, Note_on_c, 0, 67, 76
2, 28437, Note_on_c, 0, 67, 0
2, 28440, Note_on_c, 0, 69, 72
2, 28473, Note_on_c, 0, 60, 0
2, 28474, Note_on_c, 0, 57, 0
2, 28494, Note_on_c, 0, 69, 0
2, 28500, Note_on_c, 0, 60, 76
2, 28500, Note_on_c, 0, 53, 76
2, 28544, Note_on_c, 0, 53, 0
2, 28545, Note_on_c, 0, 53, 76
2, 28560, Note_on_c, 0, 62, 76
2, 28564, Note_on_c, 0, 60, 0
2, 28667, Note_on_c, 0, 53, 0
2, 28676, Note_on_c, 0, 62, 0
2, 28680, Note_on_c, 0, 65, 80
2, 28680, Note_on_c, 0, 60, 76
2, 28781, Note_on_c, 0, 60, 0
2, 28800, Note_on_c, 0, 60, 76
2, 28815, Note_on_c, 0, 58, 57
2, 28816, Note_on_c, 0, 60, 0
2, 28827, Note_on_c, 0, 58, 0
2, 28830, Note_on_c, 0, 60, 80
2, 28845, Note_on_c, 0, 58, 60
2, 28846, Note_on_c, 0, 60, 0
2, 28859, Note_on_c, 0, 58, 0
2, 28860, Note_on_c, 0, 60, 72
2, 28875, Note_on_c, 0, 58, 60
2, 28876, Note_on_c, 0, 60, 0
2, 28890, Note_on_c, 0, 58, 0
2, 28890, Note_on_c, 0, 57, 56
2, 28902, Note_on_c, 0, 57, 0
2, 28905, Note_on_c, 0, 58, 59
2, 28911, Note_on_c, 0, 65, 0
2, 28918, Note_on_c, 0, 58, 0
2, 28920, Note_on_c, 0, 64, 80
2, 28920, Note_on_c, 0, 60, 72
2, 28975, Note_on_c, 0, 60, 0
2, 28980, Note_on_c, 0, 58, 76
2, 29035, Note_on_c, 0, 58, 0
2, 29039, Note_on_c, 0, 64, 0
2, 29040, Note_on_c, 0, 65, 76
2, 29040, Note_on_c, 0, 57, 85
2, 29162, Note_on_c, 0, 57, 0
2, 29163, Note_on_c, 0, 65, 0
2, 29190, Note_on_c, 0, 60, 80
2, 29190, Note_on_c, 0, 57, 85
2, 29218, Note_on_c, 0, 57, 0
2, 29220, Note_on_c, 0, 62, 76
2, 29220, Note_on_c, 0, 58, 68
2, 29221, Note_on_c, 0, 60, 0
2, 29247, Note_on_c, 0, 58, 0
2, 29248, Note_on_c, 0, 62, 0
2, 29250, Note_on_c, 0, 64, 80
2, 29250, Note_on_c, 0, 60, 76
2, 29279, Note_on_c, 0, 60, 0
2, 29279, Note_on_c, 0, 64, 0
2, 29280, Note_on_c, 0, 65, 76
2, 29280, Note_on_c, 0, 62, 89
2, 29305, Note_on_c, 0, 65, 0
2, 29309, Note_on_c, 0, 62, 0
2, 29310, Note_on_c, 0, 67, 80
2, 29310, Note_on_c, 0, 64, 76
2, 29336, Note_on_c, 0, 64, 0
2, 29339, Note_on_c, 0, 67, 0
2, 29340, Note_on_c, 0, 69, 76
2, 29340, Note_on_c, 0, 65, 72
2, 29366, Note_on_c, 0, 65, 0
2, 29368, Note_on_c, 0, 69, 0
2, 29370, Note_on_c, 0, 70, 72
2, 29370, Note_on_c, 0, 67, 85
2, 29399, Note_on_c, 0, 67, 0
2, 29399, Note_on_c, 0, 70, 0
2, 29400, Note_on_c, 0, 72, 80
2, 29400, Note_on_c, 0, 69, 80
2, 29575, Note_on_c, 0, 69, 0
2, 29578, Note_on_c, 0, 72, 0
2, 29580, Note_on_c, 0, 70, 72
2, 29580, Note_on_c, 0, 67, 76
2, 29640, Note_on_c, 0, 69, 80
2, 29640, Note_on_c, 0, 65, 72
2, 29643, Note_on_c, 0, 67, 0
2, 29643, Note_on_c, 0, 70, 0
2, 29739, Note_on_c, 0, 69, 0
2, 29760, Note_on_c, 0, 69, 89
2, 29775, Note_on_c, 0, 69, 0
2, 29775, Note_on_c, 0, 67, 68
2, 29788, Note_on_c, 0, 67, 0
2, 29790, Note_on_c, 0, 69, 64
2, 29805, Note_on_c, 0, 67, 64
2, 29807, Note_on_c, 0, 69, 0
2, 29818, Note_on_c, 0, 67, 0
2, 29820, Note_on_c, 0, 69, 72
2, 29835, Note_on_c, 0, 67, 64
2, 29836, Note_on_c, 0, 69, 0
2, 29850, Note_on_c, 0, 67, 0
2, 29850, Note_on_c, 0, 69, 68
2, 29865, Note_on_c, 0, 69, 0
2, 29865, Note_on_c, 0, 67, 62
2, 29874, Note_on_c, 0, 65, 0
2, 29879, Note_on_c, 0, 67, 0
2, 29880, Note_on_c, 0, 69, 72
2, 29880, Note_on_c, 0, 64, 80
2, 29895, Note_on_c, 0, 69, 0
2, 29895, Note_on_c, 0, 67, 62
2, 29909, Note_on_c, 0, 67, 0
2, 29910, Note_on_c, 0, 69, 72
2, 29925, Note_on_c, 0, 67, 68
2, 29926, Note_on_c, 0, 69, 0
2, 29938, Note_on_c, 0, 67, 0
2, 29940, Note_on_c, 0, 65, 64
2, 29970, Note_on_c, 0, 65, 0
2, 29970, Note_on_c, 0, 67, 76
2, 30000, Note_on_c, 0, 65, 76
2, 30001, Note_on_c, 0, 67, 0
2, 30004, Note_on_c, 0, 64, 0
2, 30056, Note_on_c, 0, 65, 0
2, 30060, Note_on_c, 0, 69, 68
2, 30088, Note_on_c, 0, 69, 0
2, 30090, Note_on_c, 0, 67, 72
2, 30119, Note_on_c, 0, 67, 0
2, 30120, Note_on_c, 0, 65, 72
2, 30150, Note_on_c, 0, 65, 0
2, 30150, Note_on_c, 0, 64, 76
2, 30180, Note_on_c, 0, 62, 85
2, 30180, Note_on_c, 0, 53, 85
2, 30182, Note_on_c, 0, 64, 0
2, 30210, Note_on_c, 0, 62, 0
2, 30210, Note_on_c, 0, 60, 72
2, 30240, Note_on_c, 0, 58, 76
2, 30241, Note_on_c, 0, 60, 0
2, 30298, Note_on_c, 0, 53, 0
2, 30300, Note_on_c, 0, 70, 38
2, 30300, Note_on_c, 0, 52, 64
2, 30301, Note_on_c, 0, 58, 0
2, 30322, Note_on_c, 0, 70, 0
2, 30330, Note_on_c, 0, 69, 80
2, 30360, Note_on_c, 0, 67, 80
2, 30363, Note_on_c, 0, 69, 0
2, 30372, Note_on_c, 0, 52, 0
2, 30390, Note_on_c, 0, 67, 0
2, 30390, Note_on_c, 0, 65, 72
2, 30420, Note_on_c, 0, 65, 0
2, 30420, Note_on_c, 0, 64, 76
2, 30420, Note_on_c, 0, 55, 93
2, 30445, Note_on_c, 0, 64, 0
2, 30450, Note_on_c, 0, 62, 64
2, 30480, Note_on_c, 0, 62, 0
2, 30480, Note_on_c, 0, 60, 76
2, 30536, Note_on_c, 0, 55, 0
2, 30538, Note_on_c, 0, 60, 0
2, 30540, Note_on_c, 0, 72, 68
2, 30540, Note_on_c, 0, 53, 76
2, 30570, Note_on_c, 0, 72, 0
2, 30570, Note_on_c, 0, 70, 68
2, 30599, Note_on_c, 0, 70, 0
2, 30600, Note_on_c, 0, 69, 76
2, 30609, Note_on_c, 0, 53, 0
2, 30630, Note_on_c, 0, 69, 0
2, 30630, Note_on_c, 0, 67, 76
2, 30657, Note_on_c, 0, 67, 0
2, 30660, Note_on_c, 0, 65, 64
2, 30660, Note_on_c, 0, 57, 93
2, 30688, Note_on_c, 0, 65, 0
2, 30690, Note_on_c, 0, 64, 80
2, 30719, Note_on_c, 0, 64, 0
2, 30720, Note_on_c, 0, 62, 85
2, 30777, Note_on_c, 0, 57, 0
2, 30778, Note_on_c, 0, 62, 0
2, 30780, Note_on_c, 0, 74, 89
2, 30780, Note_on_c, 0, 55, 89
2, 30810, Note_on_c, 0, 72, 89
2, 30812, Note_on_c, 0, 74, 0
2, 30840, Note_on_c, 0, 70, 76
2, 30841, Note_on_c, 0, 72, 0
2, 30842, Note_on_c, 0, 55, 0
2, 30870, Note_on_c, 0, 69, 76
2, 30870, Note_on_c, 0, 65, 85
2, 30872, Note_on_c, 0, 70, 0
2, 30899, Note_on_c, 0, 69, 0
2, 30900, Note_on_c, 0, 67, 76
2, 30900, Note_on_c, 0, 64, 89
2, 30903, Note_on_c, 0, 65, 0
2, 30929, Note_on_c, 0, 67, 0
2, 30930, Note_on_c, 0, 64, 0
2, 30930, Note_on_c, 0, 65, 68
2, 30930, Note_on_c, 0, 62, 85
2, 30959, Note_on_c, 0, 62, 0
2, 30960, Note_on_c, 0, 64, 76
2, 30960, Note_on_c, 0, 60, 76
2, 30962, Note_on_c, 0, 65, 0
2, 31092, Note_on_c, 0, 64, 0
2, 31105, Note_on_c, 0, 60, 0
2, 31140, Note_on_c, 0, 64, 93
2, 31140, Note_on_c, 0, 60, 85
2, 31200, Note_on_c, 0, 65, 80
2, 31203, Note_on_c, 0, 64, 0
2, 31257, Note_on_c, 0, 65, 0
2, 31258, Note_on_c, 0, 60, 0
2, 31260, Note_on_c, 0, 62, 76
2, 31260, Note_on_c, 0, 59, 80
2, 31323, Note_on_c, 0, 59, 0
2, 31338, Note_on_c, 0, 62, 0
2, 31380, Note_on_c, 0, 65, 85
2, 31380, Note_on_c, 0, 62, 85
2, 31440, Note_on_c, 0, 67, 85
2, 31441, Note_on_c, 0, 65, 0
2, 31499, Note_on_c, 0, 62, 0
2, 31500, Note_on_c, 0, 64, 80
2, 31500, Note_on_c, 0, 60, 72
2, 31502, Note_on_c, 0, 67, 0
2, 31577, Note_on_c, 0, 60, 0
2, 31586, Note_on_c, 0, 64, 0
2, 31620, Note_on_c, 0, 67, 93
2, 31620, Note_on_c, 0, 64, 89
2, 31676, Note_on_c, 0, 67, 0
2, 31680, Note_on_c, 0, 69, 89
2, 31737, Note_on_c, 0, 64, 0
2, 31740, Note_on_c, 0, 62, 89
2, 31808, Note_on_c, 0, 62, 0
2, 31857, Note_on_c, 0, 69, 0
2, 31860, Note_on_c, 0, 60, 80
2, 31860, Note_on_c, 0, 54, 76
2, 31905, Note_on_c, 0, 54, 0
2, 31915, Note_on_c, 0, 60, 0
2, 31920, Note_on_c, 0, 59, 93
2, 31920, Note_on_c, 0, 55, 89
2, 31962, Note_on_c, 0, 55, 0
2, 31980, Note_on_c, 0, 74, 89
2, 31980, Note_on_c, 0, 71, 76
2, 31981, Note_on_c, 0, 59, 0
2, 32008, Note_on_c, 0, 74, 0
2, 32010, Note_on_c, 0, 71, 0
2, 32010, Note_on_c, 0, 72, 76
2, 32010, Note_on_c, 0, 69, 72
2, 32040, Note_on_c, 0, 72, 0
2, 32040, Note_on_c, 0, 71, 89
2, 32040, Note_on_c, 0, 67, 64
2, 32047, Note_on_c, 0, 69, 0
2, 32070, Note_on_c, 0, 71, 0
2, 32070, Note_on_c, 0, 69, 85
2, 32070, Note_on_c, 0, 65, 80
2, 32071, Note_on_c, 0, 67, 0
2, 32097, Note_on_c, 0, 69, 0
2, 32099, Note_on_c, 0, 65, 0
2, 32100, Note_on_c, 0, 67, 72
2, 32100, Note_on_c, 0, 64, 76
2, 32126, Note_on_c, 0, 64, 0
2, 32130, Note_on_c, 0, 67, 0
2, 32130, Note_on_c, 0, 65, 76
2, 32130, Note_on_c, 0, 62, 80
2, 32155, Note_on_c, 0, 65, 0
2, 32160, Note_on_c, 0, 65, 89
2, 32175, Note_on_c, 0, 64, 89
2, 32177, Note_on_c, 0, 65, 0
2, 32188, Note_on_c, 0, 64, 0
2, 32190, Note_on_c, 0, 65, 72
2, 32205, Note_on_c, 0, 64, 72
2, 32206, Note_on_c, 0, 65, 0
2, 32220, Note_on_c, 0, 62, 0
2, 32220, Note_on_c, 0, 65, 68
2, 32220, Note_on_c, 0, 55, 80
2, 32221, Note_on_c, 0, 64, 0
2, 32235, Note_on_c, 0, 64, 76
2, 32237, Note_on_c, 0, 65, 0
2, 32250, Note_on_c, 0, 64, 0
2, 32250, Note_on_c, 0, 65, 68
2, 32265, Note_on_c, 0, 64, 72
2, 32267, Note_on_c, 0, 65, 0
2, 32279, Note_on_c, 0, 55, 0
2, 32280, Note_on_c, 0, 65, 76
2, 32280, Note_on_c, 0, 60, 80
2, 32282, Note_on_c, 0, 64, 0
2, 32295, Note_on_c, 0, 64, 80
2, 32296, Note_on_c, 0, 65, 0
2, 32310, Note_on_c, 0, 65, 64
2, 32311, Note_on_c, 0, 64, 0
2, 32325, Note_on_c, 0, 64, 80
2, 32327, Note_on_c, 0, 65, 0
2, 32339, Note_on_c, 0, 64, 0
2, 32340, Note_on_c, 0, 62, 89
2, 32368, Note_on_c, 0, 62, 0
2, 32370, Note_on_c, 0, 64, 76
2, 32399, Note_on_c, 0, 64, 0
2, 32400, Note_on_c, 0, 62, 80
2, 32417, Note_on_c, 0, 60, 0
2, 32430, Note_on_c, 0, 59, 85
2, 32453, Note_on_c, 0, 62, 0
2, 32460, Note_on_c, 0, 74, 89
2, 32460, Note_on_c, 0, 71, 80
2, 32463, Note_on_c, 0, 59, 0
2, 32487, Note_on_c, 0, 71, 0
2, 32488, Note_on_c, 0, 74, 0
2, 32490, Note_on_c, 0, 72, 76
2, 32490, Note_on_c, 0, 69, 60
2, 32520, Note_on_c, 0, 72, 0
2, 32520, Note_on_c, 0, 71, 76
2, 32520, Note_on_c, 0, 67, 85
2, 32525, Note_on_c, 0, 69, 0
2, 32549, Note_on_c, 0, 71, 0
2, 32550, Note_on_c, 0, 67, 0
2, 32550, Note_on_c, 0, 69, 80
2, 32550, Note_on_c, 0, 65, 76
2, 32578, Note_on_c, 0, 65, 0
2, 32579, Note_on_c, 0, 69, 0
2, 32580, Note_on_c, 0, 67, 80
2, 32580, Note_on_c, 0, 64, 76
2, 32609, Note_on_c, 0, 64, 0
2, 32610, Note_on_c, 0, 65, 76
2, 32610, Note_on_c, 0, 62, 93
2, 32612, Note_on_c, 0, 67, 0
2, 32631, Note_on_c, 0, 65, 0
2, 32640, Note_on_c, 0, 65, 80
2, 32655, Note_on_c, 0, 64, 72
2, 32660, Note_on_c, 0, 65, 0
2, 32670, Note_on_c, 0, 65, 68
2, 32671, Note_on_c, 0, 64, 0
2, 32685, Note_on_c, 0, 64, 72
2, 32686, Note_on_c, 0, 65, 0
2, 32700, Note_on_c, 0, 64, 0
2, 32700, Note_on_c, 0, 62, 0
2, 32700, Note_on_c, 0, 65, 72
2, 32700, Note_on_c, 0, 55, 80
2, 32715, Note_on_c, 0, 64, 64
2, 32717, Note_on_c, 0, 65, 0
2, 32729, Note_on_c, 0, 64, 0
2, 32730, Note_on_c, 0, 65, 62
2, 32745, Note_on_c, 0, 65, 0
2, 32745, Note_on_c, 0, 64, 68
2, 32758, Note_on_c, 0, 55, 0
2, 32760, Note_on_c, 0, 64, 0
2, 32760, Note_on_c, 0, 65, 76
2, 32760, Note_on_c, 0, 60, 76
2, 32775, Note_on_c, 0, 65, 0
2, 32775, Note_on_c, 0, 64, 72
2, 32788, Note_on_c, 0, 64, 0
2, 32790, Note_on_c, 0, 65, 76
2, 32805, Note_on_c, 0, 64, 80
2, 32807, Note_on_c, 0, 65, 0
2, 32817, Note_on_c, 0, 64, 0
2, 32820, Note_on_c, 0, 62, 93
2, 32850, Note_on_c, 0, 62, 0
2, 32850, Note_on_c, 0, 64, 80
2, 32877, Note_on_c, 0, 60, 0
2, 32880, Note_on_c, 0, 64, 0
2, 32880, Note_on_c, 0, 62, 85
2, 32880, Note_on_c, 0, 59, 89
2, 32992, Note_on_c, 0, 62, 0
2, 33003, Note_on_c, 0, 59, 0
2, 33120, Note_on_c, 0, 52, 80
2, 33149, Note_on_c, 0, 52, 0
2, 33150, Note_on_c, 0, 53, 80
2, 33179, Note_on_c, 0, 53, 0
2, 33180, Note_on_c, 0, 52, 85
2, 33209, Note_on_c, 0, 52, 0
2, 33210, Note_on_c, 0, 53, 80
2, 33240, Note_on_c, 0, 55, 85
2, 33241, Note_on_c, 0, 53, 0
2, 33269, Note_on_c, 0, 55, 0
2, 33270, Note_on_c, 0, 53, 64
2, 33300, Note_on_c, 0, 59, 85
2, 33300, Note_on_c, 0, 55, 72
2, 33303, Note_on_c, 0, 53, 0
2, 33328, Note_on_c, 0, 55, 0
2, 33330, Note_on_c, 0, 53, 62
2, 33357, Note_on_c, 0, 59, 0
2, 33358, Note_on_c, 0, 53, 0
2, 33360, Note_on_c, 0, 60, 76
2, 33360, Note_on_c, 0, 52, 80
2, 33389, Note_on_c, 0, 52, 0
2, 33390, Note_on_c, 0, 53, 64
2, 33418, Note_on_c, 0, 60, 0
2, 33419, Note_on_c, 0, 53, 0
2, 33420, Note_on_c, 0, 55, 89
2, 33420, Note_on_c, 0, 52, 64
2, 33450, Note_on_c, 0, 53, 72
2, 33451, Note_on_c, 0, 52, 0
2, 33480, Note_on_c, 0, 53, 0
2, 33480, Note_on_c, 0, 55, 80
2, 33483, Note_on_c, 0, 55, 0
2, 33509, Note_on_c, 0, 55, 0
2, 33510, Note_on_c, 0, 53, 76
2, 33540, Note_on_c, 0, 53, 0
2, 33540, Note_on_c, 0, 59, 85
2, 33540, Note_on_c, 0, 55, 80
2, 33570, Note_on_c, 0, 53, 80
2, 33573, Note_on_c, 0, 55, 0
2, 33598, Note_on_c, 0, 59, 0
2, 33600, Note_on_c, 0, 60, 89
2, 33600, Note_on_c, 0, 52, 85
2, 33601, Note_on_c, 0, 53, 0
2, 33653, Note_on_c, 0, 60, 0
2, 33660, Note_on_c, 0, 64, 85
2, 33682, Note_on_c, 0, 64, 0
2, 33707, Note_on_c, 0, 52, 0
2, 33720, Note_on_c, 0, 67, 93
2, 33750, Note_on_c, 0, 64, 76
2, 33778, Note_on_c, 0, 64, 0
2, 33780, Note_on_c, 0, 62, 68
2, 33810, Note_on_c, 0, 60, 72
2, 33811, Note_on_c, 0, 62, 0
2, 33839, Note_on_c, 0, 60, 0
2, 33840, Note_on_c, 0, 59, 76
2, 33869, Note_on_c, 0, 59, 0
2, 33870, Note_on_c, 0, 60, 76
2, 33900, Note_on_c, 0, 59, 80
2, 33901, Note_on_c, 0, 60, 0
2, 33929, Note_on_c, 0, 59, 0
2, 33930, Note_on_c, 0, 57, 68
2, 33944, Note_on_c, 0, 67, 0
2, 33959, Note_on_c, 0, 57, 0
2, 33960, Note_on_c, 0, 60, 85
2, 33960, Note_on_c, 0, 55, 85
2, 33975, Note_on_c, 0, 60, 0
2, 33975, Note_on_c, 0, 59, 85
2, 33986, Note_on_c, 0, 59, 0
2, 33988, Note_on_c, 0, 55, 0
2, 33990, Note_on_c, 0, 60, 68
2, 33990, Note_on_c, 0, 57, 76
2, 34003, Note_on_c, 0, 60, 0
2, 34005, Note_on_c, 0, 59, 76
2, 34019, Note_on_c, 0, 59, 0
2, 34020, Note_on_c, 0, 60, 80
2, 34020, Note_on_c, 0, 55, 80
2, 34022, Note_on_c, 0, 57, 0
2, 34035, Note_on_c, 0, 59, 89
2, 34038, Note_on_c, 0, 60, 0
2, 34050, Note_on_c, 0, 59, 0
2, 34050, Note_on_c, 0, 55, 0
2, 34050, Note_on_c, 0, 57, 76
2, 34050, Note_on_c, 0, 53, 72
2, 34065, Note_on_c, 0, 59, 68
2, 34066, Note_on_c, 0, 57, 0
2, 34077, Note_on_c, 0, 53, 0
2, 34079, Note_on_c, 0, 59, 0
2, 34080, Note_on_c, 0, 60, 80
2, 34080, Note_on_c, 0, 52, 80
2, 34125, Note_on_c, 0, 52, 0
2, 34140, Note_on_c, 0, 64, 59
2, 34169, Note_on_c, 0, 64, 0
2, 34170, Note_on_c, 0, 65, 76
2, 34191, Note_on_c, 0, 60, 0
2, 34198, Note_on_c, 0, 65, 0
2, 34200, Note_on_c, 0, 67, 72
2, 34229, Note_on_c, 0, 67, 0
2, 34230, Note_on_c, 0, 65, 76
2, 34258, Note_on_c, 0, 65, 0
2, 34260, Note_on_c, 0, 71, 93
2, 34260, Note_on_c, 0, 67, 55
2, 34288, Note_on_c, 0, 67, 0
2, 34290, Note_on_c, 0, 65, 64
2, 34320, Note_on_c, 0, 72, 89
2, 34320, Note_on_c, 0, 64, 76
2, 34321, Note_on_c, 0, 71, 0
2, 34322, Note_on_c, 0, 65, 0
2, 34350, Note_on_c, 0, 65, 76
2, 34351, Note_on_c, 0, 64, 0
2, 34375, Note_on_c, 0, 72, 0
2, 34380, Note_on_c, 0, 65, 0
2, 34380, Note_on_c, 0, 67, 85
2, 34380, Note_on_c, 0, 64, 76
2, 34408, Note_on_c, 0, 64, 0
2, 34410, Note_on_c, 0, 65, 76
2, 34430, Note_on_c, 0, 67, 0
2, 34440, Note_on_c, 0, 65, 0
2, 34440, Note_on_c, 0, 67, 68
2, 34468, Note_on_c, 0, 67, 0
2, 34470, Note_on_c, 0, 65, 72
2, 34500, Note_on_c, 0, 65, 0
2, 34500, Note_on_c, 0, 71, 93
2, 34500, Note_on_c, 0, 67, 76
2, 34525, Note_on_c, 0, 67, 0
2, 34530, Note_on_c, 0, 65, 64
2, 34558, Note_on_c, 0, 71, 0
2, 34560, Note_on_c, 0, 72, 89
2, 34560, Note_on_c, 0, 64, 76
2, 34565, Note_on_c, 0, 65, 0
2, 34616, Note_on_c, 0, 72, 0
2, 34620, Note_on_c, 0, 64, 105
2, 34636, Note_on_c, 0, 64, 0
2, 34680, Note_on_c, 0, 67, 85
2, 34684, Note_on_c, 0, 64, 0
2, 34710, Note_on_c, 0, 64, 93
2, 34739, Note_on_c, 0, 64, 0
2, 34740, Note_on_c, 0, 62, 76
2, 34770, Note_on_c, 0, 60, 72
2, 34771, Note_on_c, 0, 62, 0
2, 34800, Note_on_c, 0, 59, 89
2, 34801, Note_on_c, 0, 60, 0
2, 34829, Note_on_c, 0, 59, 0
2, 34830, Note_on_c, 0, 60, 80
2, 34860, Note_on_c, 0, 59, 89
2, 34862, Note_on_c, 0, 60, 0
2, 34889, Note_on_c, 0, 59, 0
2, 34890, Note_on_c, 0, 57, 72
2, 34899, Note_on_c, 0, 67, 0
2, 34919, Note_on_c, 0, 57, 0
2, 34920, Note_on_c, 0, 60, 72
2, 34920, Note_on_c, 0, 55, 80
2, 34934, Note_on_c, 0, 60, 0
2, 34935, Note_on_c, 0, 59, 68
2, 34949, Note_on_c, 0, 59, 0
2, 34949, Note_on_c, 0, 55, 0
2, 34950, Note_on_c, 0, 60, 72
2, 34950, Note_on_c, 0, 57, 80
2, 34965, Note_on_c, 0, 59, 72
2, 34966, Note_on_c, 0, 60, 0
2, 34980, Note_on_c, 0, 60, 72
2, 34980, Note_on_c, 0, 55, 85
2, 34981, Note_on_c, 0, 59, 0
2, 34981, Note_on_c, 0, 57, 0
2, 34995, Note_on_c, 0, 59, 68
2, 34997, Note_on_c, 0, 60, 0
2, 35009, Note_on_c, 0, 59, 0
2, 35009, Note_on_c, 0, 55, 0
2, 35010, Note_on_c, 0, 57, 76
2, 35010, Note_on_c, 0, 53, 72
2, 35025, Note_on_c, 0, 57, 0
2, 35025, Note_on_c, 0, 59, 89
2, 35037, Note_on_c, 0, 59, 0
2, 35038, Note_on_c, 0, 53, 0
2, 35040, Note_on_c, 0, 60, 80
2, 35040, Note_on_c, 0, 52, 72
2, 35069, Note_on_c, 0, 52, 0
2, 35070, Note_on_c, 0, 53, 80
2, 35097, Note_on_c, 0, 53, 0
2, 35100, Note_on_c, 0, 52, 76
2, 35130, Note_on_c, 0, 53, 85
2, 35131, Note_on_c, 0, 52, 0
2, 35160, Note_on_c, 0, 55, 89
2, 35162, Note_on_c, 0, 53, 0
2, 35190, Note_on_c, 0, 55, 0
2, 35190, Note_on_c, 0, 53, 68
2, 35220, Note_on_c, 0, 55, 85
2, 35221, Note_on_c, 0, 53, 0
2, 35249, Note_on_c, 0, 55, 0
2, 35250, Note_on_c, 0, 52, 80
2, 35270, Note_on_c, 0, 60, 0
2, 35280, Note_on_c, 0, 59, 85
2, 35280, Note_on_c, 0, 53, 85
2, 35281, Note_on_c, 0, 52, 0
2, 35309, Note_on_c, 0, 53, 0
2, 35310, Note_on_c, 0, 55, 80
2, 35339, Note_on_c, 0, 55, 0
2, 35340, Note_on_c, 0, 53, 72
2, 35369, Note_on_c, 0, 53, 0
2, 35370, Note_on_c, 0, 55, 89
2, 35400, Note_on_c, 0, 56, 76
2, 35404, Note_on_c, 0, 55, 0
2, 35429, Note_on_c, 0, 56, 0
2, 35430, Note_on_c, 0, 55, 80
2, 35460, Note_on_c, 0, 55, 0
2, 35460, Note_on_c, 0, 56, 76
2, 35489, Note_on_c, 0, 56, 0
2, 35490, Note_on_c, 0, 53, 80
2, 35499, Note_on_c, 0, 59, 0
2, 35520, Note_on_c, 0, 60, 76
2, 35520, Note_on_c, 0, 55, 93
2, 35521, Note_on_c, 0, 53, 0
2, 35535, Note_on_c, 0, 58, 68
2, 35536, Note_on_c, 0, 60, 0
2, 35548, Note_on_c, 0, 55, 0
2, 35549, Note_on_c, 0, 58, 0
2, 35550, Note_on_c, 0, 60, 62
2, 35550, Note_on_c, 0, 53, 72
2, 35565, Note_on_c, 0, 58, 64
2, 35567, Note_on_c, 0, 60, 0
2, 35578, Note_on_c, 0, 58, 0
2, 35580, Note_on_c, 0, 53, 0
2, 35580, Note_on_c, 0, 60, 64
2, 35580, Note_on_c, 0, 55, 89
2, 35595, Note_on_c, 0, 58, 59
2, 35597, Note_on_c, 0, 60, 0
2, 35607, Note_on_c, 0, 58, 0
2, 35610, Note_on_c, 0, 55, 0
2, 35610, Note_on_c, 0, 60, 68
2, 35610, Note_on_c, 0, 53, 76
2, 35625, Note_on_c, 0, 60, 0
2, 35625, Note_on_c, 0, 58, 72
2, 35638, Note_on_c, 0, 53, 0
2, 35639, Note_on_c, 0, 58, 0
2, 35640, Note_on_c, 0, 60, 64
2, 35640, Note_on_c, 0, 52, 89
2, 35655, Note_on_c, 0, 60, 0
2, 35655, Note_on_c, 0, 58, 60
2, 35669, Note_on_c, 0, 52, 0
2, 35670, Note_on_c, 0, 60, 62
2, 35670, Note_on_c, 0, 53, 89
2, 35672, Note_on_c, 0, 58, 0
2, 35683, Note_on_c, 0, 60, 0
2, 35685, Note_on_c, 0, 58, 57
2, 35699, Note_on_c, 0, 58, 0
2, 35699, Note_on_c, 0, 53, 0
2, 35700, Note_on_c, 0, 57, 89
2, 35700, Note_on_c, 0, 52, 85
2, 35727, Note_on_c, 0, 57, 0
2, 35729, Note_on_c, 0, 52, 0
2, 35730, Note_on_c, 0, 58, 85
2, 35730, Note_on_c, 0, 55, 89
2, 35757, Note_on_c, 0, 58, 0
2, 35760, Note_on_c, 0, 57, 85
2, 35760, Note_on_c, 0, 53, 80
2, 35761, Note_on_c, 0, 55, 0
2, 35788, Note_on_c, 0, 57, 0
2, 35790, Note_on_c, 0, 53, 0
2, 35790, Note_on_c, 0, 58, 76
2, 35790, Note_on_c, 0, 55, 93
2, 35819, Note_on_c, 0, 55, 0
2, 35819, Note_on_c, 0, 58, 0
2, 35820, Note_on_c, 0, 57, 76
2, 35820, Note_on_c, 0, 53, 80
2, 35849, Note_on_c, 0, 53, 0
2, 35849, Note_on_c, 0, 57, 0
2, 35850, Note_on_c, 0, 58, 76
2, 35850, Note_on_c, 0, 55, 93
2, 35879, Note_on_c, 0, 58, 0
2, 35880, Note_on_c, 0, 55, 0
2, 35880, Note_on_c, 0, 60, 89
2, 35880, Note_on_c, 0, 57, 89
2, 35908, Note_on_c, 0, 57, 0
2, 35908, Note_on_c, 0, 60, 0
2, 35910, Note_on_c, 0, 58, 80
2, 35910, Note_on_c, 0, 55, 89
2, 35939, Note_on_c, 0, 55, 0
2, 35939, Note_on_c, 0, 58, 0
2, 35940, Note_on_c, 0, 60, 93
2, 35940, Note_on_c, 0, 57, 98
2, 35967, Note_on_c, 0, 60, 0
2, 35970, Note_on_c, 0, 57, 0
2, 35970, Note_on_c, 0, 57, 85
2, 35970, Note_on_c, 0, 53, 59
2, 36000, Note_on_c, 0, 67, 76
2, 36000, Note_on_c, 0, 55, 93
2, 36001, Note_on_c, 0, 57, 0
2, 36004, Note_on_c, 0, 53, 0
2, 36029, Note_on_c, 0, 55, 0
2, 36030, Note_on_c, 0, 57, 89
2, 36060, Note_on_c, 0, 57, 0
2, 36060, Note_on_c, 0, 55, 85
2, 36090, Note_on_c, 0, 55, 0
2, 36090, Note_on_c, 0, 57, 89
2, 36119, Note_on_c, 0, 57, 0
2, 36120, Note_on_c, 0, 59, 89
2, 36148, Note_on_c, 0, 59, 0
2, 36150, Note_on_c, 0, 57, 89
2, 36180, Note_on_c, 0, 59, 89
2, 36183, Note_on_c, 0, 57, 0
2, 36210, Note_on_c, 0, 59, 0
2, 36210, Note_on_c, 0, 55, 72
2, 36240, Note_on_c, 0, 66, 72
2, 36240, Note_on_c, 0, 57, 93
2, 36242, Note_on_c, 0, 55, 0
2, 36269, Note_on_c, 0, 57, 0
2, 36270, Note_on_c, 0, 59, 85
2, 36299, Note_on_c, 0, 59, 0
2, 36300, Note_on_c, 0, 57, 76
2, 36329, Note_on_c, 0, 57, 0
2, 36330, Note_on_c, 0, 59, 85
2, 36360, Note_on_c, 0, 60, 85
2, 36361, Note_on_c, 0, 59, 0
2, 36389, Note_on_c, 0, 60, 0
2, 36390, Note_on_c, 0, 59, 85
2, 36420, Note_on_c, 0, 59, 0
2, 36420, Note_on_c, 0, 60, 89
2, 36450, Note_on_c, 0, 60, 0
2, 36450, Note_on_c, 0, 57, 76
2, 36468, Note_on_c, 0, 66, 0
2, 36480, Note_on_c, 0, 65, 68
2, 36480, Note_on_c, 0, 59, 89
2, 36481, Note_on_c, 0, 57, 0
2, 36509, Note_on_c, 0, 59, 0
2, 36510, Note_on_c, 0, 60, 80
2, 36540, Note_on_c, 0, 59, 93
2, 36541, Note_on_c, 0, 60, 0
2, 36569, Note_on_c, 0, 59, 0
2, 36570, Note_on_c, 0, 60, 89
2, 36600, Note_on_c, 0, 62, 85
2, 36601, Note_on_c, 0, 60, 0
2, 36629, Note_on_c, 0, 62, 0
2, 36630, Note_on_c, 0, 60, 85
2, 36648, Note_on_c, 0, 65, 0
2, 36660, Note_on_c, 0, 64, 89
2, 36660, Note_on_c, 0, 62, 89
2, 36661, Note_on_c, 0, 60, 0
2, 36690, Note_on_c, 0, 64, 0
2, 36690, Note_on_c, 0, 65, 72
2, 36690, Note_on_c, 0, 59, 76
2, 36693, Note_on_c, 0, 62, 0
2, 36720, Note_on_c, 0, 63, 62
2, 36720, Note_on_c, 0, 60, 85
2, 36721, Note_on_c, 0, 65, 0
2, 36722, Note_on_c, 0, 59, 0
2, 36750, Note_on_c, 0, 60, 0
2, 36750, Note_on_c, 0, 62, 89
2, 36780, Note_on_c, 0, 62, 0
2, 36780, Note_on_c, 0, 60, 80
2, 36809, Note_on_c, 0, 60, 0
2, 36810, Note_on_c, 0, 62, 80
2, 36835, Note_on_c, 0, 63, 0
2, 36840, Note_on_c, 0, 63, 80
2, 36841, Note_on_c, 0, 62, 0
2, 36870, Note_on_c, 0, 63, 0
2, 36870, Note_on_c, 0, 62, 85
2, 36899, Note_on_c, 0, 62, 0
2, 36900, Note_on_c, 0, 63, 72
2, 36910, Note_on_c, 0, 67, 0
2, 36930, Note_on_c, 0, 63, 0
2, 36930, Note_on_c, 0, 60, 89
2, 36956, Note_on_c, 0, 60, 0
2, 36960, Note_on_c, 0, 70, 76
2, 36960, Note_on_c, 0, 63, 64
2, 36960, Note_on_c, 0, 61, 64
2, 36960, Note_on_c, 0, 55, 89
2, 36990, Note_on_c, 0, 56, 76
2, 36991, Note_on_c, 0, 55, 0
2, 37019, Note_on_c, 0, 56, 0
2, 37020, Note_on_c, 0, 55, 80
2, 37049, Note_on_c, 0, 55, 0
2, 37050, Note_on_c, 0, 56, 85
2, 37079, Note_on_c, 0, 56, 0
2, 37080, Note_on_c, 0, 58, 80
2, 37107, Note_on_c, 0, 58, 0
2, 37110, Note_on_c, 0, 56, 80
2, 37139, Note_on_c, 0, 56, 0
2, 37140, Note_on_c, 0, 58, 80
2, 37170, Note_on_c, 0, 58, 0
2, 37170, Note_on_c, 0, 55, 76
2, 37184, Note_on_c, 0, 61, 0
2, 37188, Note_on_c, 0, 70, 0
2, 37199, Note_on_c, 0, 55, 0
2, 37200, Note_on_c, 0, 68, 76
2, 37200, Note_on_c, 0, 60, 89
2, 37229, Note_on_c, 0, 68, 0
2, 37230, Note_on_c, 0, 72, 72
2, 37259, Note_on_c, 0, 72, 0
2, 37259, Note_on_c, 0, 60, 0
2, 37260, Note_on_c, 0, 70, 62
2, 37260, Note_on_c, 0, 61, 76
2, 37289, Note_on_c, 0, 61, 0
2, 37289, Note_on_c, 0, 70, 0
2, 37290, Note_on_c, 0, 68, 72
2, 37290, Note_on_c, 0, 60, 80
2, 37319, Note_on_c, 0, 68, 0
2, 37320, Note_on_c, 0, 67, 76
2, 37320, Note_on_c, 0, 58, 76
2, 37327, Note_on_c, 0, 60, 0
2, 37350, Note_on_c, 0, 58, 0
2, 37350, Note_on_c, 0, 70, 80
2, 37350, Note_on_c, 0, 61, 76
2, 37352, Note_on_c, 0, 67, 0
2, 37376, Note_on_c, 0, 61, 0
2, 37380, Note_on_c, 0, 68, 72
2, 37380, Note_on_c, 0, 60, 76
2, 37382, Note_on_c, 0, 70, 0
2, 37403, Note_on_c, 0, 63, 0
2, 37407, Note_on_c, 0, 68, 0
2, 37409, Note_on_c, 0, 60, 0
2, 37410, Note_on_c, 0, 67, 76
2, 37410, Note_on_c, 0, 58, 76
2, 37439, Note_on_c, 0, 58, 0
2, 37440, Note_on_c, 0, 68, 76
2, 37440, Note_on_c, 0, 63, 72
2, 37440, Note_on_c, 0, 60, 80
2, 37442, Note_on_c, 0, 67, 0
2, 37468, Note_on_c, 0, 68, 0
2, 37470, Note_on_c, 0, 72, 80
2, 37499, Note_on_c, 0, 72, 0
2, 37500, Note_on_c, 0, 60, 0
2, 37500, Note_on_c, 0, 70, 59
2, 37500, Note_on_c, 0, 61, 68
2, 37529, Note_on_c, 0, 61, 0
2, 37529, Note_on_c, 0, 70, 0
2, 37530, Note_on_c, 0, 68, 62
2, 37530, Note_on_c, 0, 60, 68
2, 37559, Note_on_c, 0, 68, 0
2, 37560, Note_on_c, 0, 67, 68
2, 37560, Note_on_c, 0, 58, 72
2, 37564, Note_on_c, 0, 60, 0
2, 37590, Note_on_c, 0, 58, 0
2, 37590, Note_on_c, 0, 70, 62
2, 37590, Note_on_c, 0, 61, 76
2, 37591, Note_on_c, 0, 67, 0
2, 37616, Note_on_c, 0, 61, 0
2, 37620, Note_on_c, 0, 70, 0
2, 37620, Note_on_c, 0, 68, 72
2, 37620, Note_on_c, 0, 60, 72
2, 37649, Note_on_c, 0, 68, 0
2, 37650, Note_on_c, 0, 60, 0
2, 37650, Note_on_c, 0, 67, 72
2, 37650, Note_on_c, 0, 58, 80
2, 37679, Note_on_c, 0, 58, 0
2, 37680, Note_on_c, 0, 68, 76
2, 37680, Note_on_c, 0, 60, 76
2, 37683, Note_on_c, 0, 67, 0
2, 37710, Note_on_c, 0, 59, 85
2, 37711, Note_on_c, 0, 60, 0
2, 37739, Note_on_c, 0, 68, 0
2, 37740, Note_on_c, 0, 59, 0
2, 37740, Note_on_c, 0, 67, 80
2, 37740, Note_on_c, 0, 60, 93
2, 37770, Note_on_c, 0, 60, 0
2, 37770, Note_on_c, 0, 59, 89
2, 37799, Note_on_c, 0, 59, 0
2, 37800, Note_on_c, 0, 60, 80
2, 37830, Note_on_c, 0, 60, 0
2, 37830, Note_on_c, 0, 59, 76
2, 37854, Note_on_c, 0, 67, 0
2, 37859, Note_on_c, 0, 59, 0
2, 37860, Note_on_c, 0, 66, 80
2, 37860, Note_on_c, 0, 60, 80
2, 37890, Note_on_c, 0, 59, 85
2, 37893, Note_on_c, 0, 60, 0
2, 37893, Note_on_c, 0, 63, 0
2, 37918, Note_on_c, 0, 66, 0
2, 37920, Note_on_c, 0, 64, 76
2, 37920, Note_on_c, 0, 67, 89
2, 37920, Note_on_c, 0, 60, 89
2, 37922, Note_on_c, 0, 59, 0
2, 38044, Note_on_c, 0, 60, 0
2, 38044, Note_on_c, 0, 67, 0
2, 38048, Note_on_c, 0, 64, 0
2, 38070, Note_on_c, 0, 64, 76
2, 38070, Note_on_c, 0, 60, 98
2, 38099, Note_on_c, 0, 64, 0
2, 38100, Note_on_c, 0, 65, 89
2, 38100, Note_on_c, 0, 62, 89
2, 38101, Note_on_c, 0, 60, 0
2, 38127, Note_on_c, 0, 65, 0
2, 38130, Note_on_c, 0, 67, 76
2, 38130, Note_on_c, 0, 64, 89
2, 38131, Note_on_c, 0, 62, 0
2, 38158, Note_on_c, 0, 67, 0
2, 38160, Note_on_c, 0, 70, 76
2, 38160, Note_on_c, 0, 67, 64
2, 38161, Note_on_c, 0, 64, 0
2, 38172, Note_on_c, 0, 70, 0
2, 38173, Note_on_c, 0, 67, 0
2, 38175, Note_on_c, 0, 69, 59
2, 38175, Note_on_c, 0, 65, 76
2, 38190, Note_on_c, 0, 67, 89
2, 38190, Note_on_c, 0, 64, 85
2, 38192, Note_on_c, 0, 69, 0
2, 38195, Note_on_c, 0, 65, 0
2, 38219, Note_on_c, 0, 64, 0
2, 38220, Note_on_c, 0, 69, 85
2, 38220, Note_on_c, 0, 65, 80
2, 38223, Note_on_c, 0, 67, 0
2, 38250, Note_on_c, 0, 65, 0
2, 38250, Note_on_c, 0, 69, 0
2, 38250, Note_on_c, 0, 71, 85
2, 38250, Note_on_c, 0, 67, 72
2, 38278, Note_on_c, 0, 67, 0
2, 38279, Note_on_c, 0, 71, 0
2, 38280, Note_on_c, 0, 72, 85
2, 38280, Note_on_c, 0, 69, 76
2, 38309, Note_on_c, 0, 72, 0
2, 38310, Note_on_c, 0, 68, 76
2, 38310, Note_on_c, 0, 64, 76
2, 38313, Note_on_c, 0, 69, 0
2, 38339, Note_on_c, 0, 68, 0
2, 38340, Note_on_c, 0, 64, 0
2, 38340, Note_on_c, 0, 69, 80
2, 38340, Note_on_c, 0, 65, 85
2, 38368, Note_on_c, 0, 65, 0
2, 38369, Note_on_c, 0, 69, 0
2, 38370, Note_on_c, 0, 65, 80
2, 38370, Note_on_c, 0, 62, 76
2, 38396, Note_on_c, 0, 65, 0
2, 38399, Note_on_c, 0, 62, 0
2, 38400, Note_on_c, 0, 64, 80
2, 38400, Note_on_c, 0, 60, 80
2, 38415, Note_on_c, 0, 60, 0
2, 38415, Note_on_c, 0, 64, 0
2, 38415, Note_on_c, 0, 62, 76
2, 38415, Note_on_c, 0, 59, 76
2, 38427, Note_on_c, 0, 62, 0
2, 38429, Note_on_c, 0, 59, 0
2, 38430, Note_on_c, 0, 64, 62
2, 38430, Note_on_c, 0, 60, 76
2, 38444, Note_on_c, 0, 60, 0
2, 38444, Note_on_c, 0, 64, 0
2, 38445, Note_on_c, 0, 62, 62
2, 38445, Note_on_c, 0, 59, 68
2, 38458, Note_on_c, 0, 59, 0
2, 38459, Note_on_c, 0, 62, 0
2, 38460, Note_on_c, 0, 64, 76
2, 38460, Note_on_c, 0, 60, 80
2, 38472, Note_on_c, 0, 60, 0
2, 38475, Note_on_c, 0, 64, 0
2, 38475, Note_on_c, 0, 62, 59
2, 38475, Note_on_c, 0, 59, 72
2, 38487, Note_on_c, 0, 59, 0
2, 38489, Note_on_c, 0, 62, 0
2, 38490, Note_on_c, 0, 64, 72
2, 38490, Note_on_c, 0, 60, 64
2, 38503, Note_on_c, 0, 60, 0
2, 38505, Note_on_c, 0, 64, 0
2, 38505, Note_on_c, 0, 62, 53
2, 38505, Note_on_c, 0, 59, 62
2, 38517, Note_on_c, 0, 59, 0
2, 38520, Note_on_c, 0, 62, 0
2, 38520, Note_on_c, 0, 64, 68
2, 38520, Note_on_c, 0, 60, 72
2, 38532, Note_on_c, 0, 60, 0
2, 38535, Note_on_c, 0, 64, 0
2, 38535, Note_on_c, 0, 62, 62
2, 38535, Note_on_c, 0, 59, 80
2, 38547, Note_on_c, 0, 62, 0
2, 38548, Note_on_c, 0, 59, 0
2, 38550, Note_on_c, 0, 64, 59
2, 38550, Note_on_c, 0, 60, 62
2, 38564, Note_on_c, 0, 60, 0
2, 38565, Note_on_c, 0, 64, 0
2, 38565, Note_on_c, 0, 62, 72
2, 38565, Note_on_c, 0, 59, 64
2, 38578, Note_on_c, 0, 59, 0
2, 38578, Note_on_c, 0, 62, 0
2, 38580, Note_on_c, 0, 64, 72
2, 38580, Note_on_c, 0, 60, 76
2, 38593, Note_on_c, 0, 60, 0
2, 38594, Note_on_c, 0, 64, 0
2, 38595, Note_on_c, 0, 62, 62
2, 38595, Note_on_c, 0, 59, 68
2, 38608, Note_on_c, 0, 59, 0
2, 38608, Note_on_c, 0, 62, 0
2, 38610, Note_on_c, 0, 64, 60
2, 38610, Note_on_c, 0, 60, 68
2, 38625, Note_on_c, 0, 60, 0
2, 38625, Note_on_c, 0, 62, 72
2, 38625, Note_on_c, 0, 59, 64
2, 38626, Note_on_c, 0, 64, 0
2, 38640, Note_on_c, 0, 59, 0
2, 38640, Note_on_c, 0, 62, 0
2, 38640, Note_on_c, 0, 64, 80
2, 38640, Note_on_c, 0, 60, 76
2, 38653, Note_on_c, 0, 60, 0
2, 38655, Note_on_c, 0, 64, 0
2, 38655, Note_on_c, 0, 62, 59
2, 38655, Note_on_c, 0, 59, 64
2, 38668, Note_on_c, 0, 59, 0
2, 38669, Note_on_c, 0, 62, 0
2, 38670, Note_on_c, 0, 64, 72
2, 38670, Note_on_c, 0, 60, 64
2, 38683, Note_on_c, 0, 64, 0
2, 38684, Note_on_c, 0, 60, 0
2, 38685, Note_on_c, 0, 62, 64
2, 38685, Note_on_c, 0, 59, 72
2, 38698, Note_on_c, 0, 59, 0
2, 38700, Note_on_c, 0, 62, 0
2, 38700, Note_on_c, 0, 64, 64
2, 38700, Note_on_c, 0, 60, 76
2, 38713, Note_on_c, 0, 60, 0
2, 38715, Note_on_c, 0, 62, 59
2, 38715, Note_on_c, 0, 59, 72
2, 38716, Note_on_c, 0, 64, 0
2, 38728, Note_on_c, 0, 62, 0
2, 38729, Note_on_c, 0, 59, 0
2, 38730, Note_on_c, 0, 64, 72
2, 38730, Note_on_c, 0, 60, 62
2, 38744, Note_on_c, 0, 60, 0
2, 38745, Note_on_c, 0, 62, 64
2, 38745, Note_on_c, 0, 59, 76
2, 38746, Note_on_c, 0, 64, 0
2, 38757, Note_on_c, 0, 59, 0
2, 38759, Note_on_c, 0, 62, 0
2, 38760, Note_on_c, 0, 64, 72
2, 38760, Note_on_c, 0, 60, 76
2, 38773, Note_on_c, 0, 60, 0
2, 38775, Note_on_c, 0, 62, 64
2, 38775, Note_on_c, 0, 59, 76
2, 38777, Note_on_c, 0, 64, 0
2, 38789, Note_on_c, 0, 59, 0
2, 38790, Note_on_c, 0, 62, 0
2, 38790, Note_on_c, 0, 64, 80
2, 38790, Note_on_c, 0, 60, 68
2, 38803, Note_on_c, 0, 64, 0
2, 38805, Note_on_c, 0, 60, 0
2, 38805, Note_on_c, 0, 62, 72
2, 38805, Note_on_c, 0, 59, 68
2, 38818, Note_on_c, 0, 59, 0
2, 38819, Note_on_c, 0, 62, 0
2, 38820, Note_on_c, 0, 64, 89
2, 38820, Note_on_c, 0, 60, 72
2, 38833, Note_on_c, 0, 60, 0
2, 38835, Note_on_c, 0, 64, 0
2, 38835, Note_on_c, 0, 62, 64
2, 38835, Note_on_c, 0, 59, 76
2, 38846, Note_on_c, 0, 59, 0
2, 38847, Note_on_c, 0, 62, 0
2, 38850, Note_on_c, 0, 60, 76
2, 38850, Note_on_c, 0, 60, 76
2, 38865, Note_on_c, 0, 60, 0
2, 38865, Note_on_c, 0, 62, 76
2, 38865, Note_on_c, 0, 59, 76
2, 38867, Note_on_c, 0, 60, 0
2, 38878, Note_on_c, 0, 62, 0
2, 38880, Note_on_c, 0, 60, 85
2, 38881, Note_on_c, 0, 59, 0
2, 38909, Note_on_c, 0, 60, 0
2, 38910, Note_on_c, 0, 64, 85
2, 38940, Note_on_c, 0, 64, 0
2, 38940, Note_on_c, 0, 67, 89
2, 38970, Note_on_c, 0, 67, 0
2, 38970, Note_on_c, 0, 72, 80
2, 38992, Note_on_c, 0, 72, 0
2, 39000, Note_on_c, 0, 57, 46
2, 39000, Note_on_c, 0, 59, 55
2, 39009, Note_on_c, 0, 59, 0
2, 39029, Note_on_c, 0, 57, 0
2, 39030, Note_on_c, 0, 60, 72
2, 39060, Note_on_c, 0, 64, 89
2, 39062, Note_on_c, 0, 60, 0
2, 39089, Note_on_c, 0, 64, 0
2, 39090, Note_on_c, 0, 69, 64
2, 39109, Note_on_c, 0, 69, 0
2, 39120, Note_on_c, 0, 53, 89
2, 39148, Note_on_c, 0, 53, 0
2, 39150, Note_on_c, 0, 57, 85
2, 39180, Note_on_c, 0, 62, 76
2, 39185, Note_on_c, 0, 57, 0
2, 39210, Note_on_c, 0, 62, 0
2, 39210, Note_on_c, 0, 65, 89
2, 39237, Note_on_c, 0, 65, 0
2, 39240, Note_on_c, 0, 55, 89
2, 39270, Note_on_c, 0, 55, 0
2, 39270, Note_on_c, 0, 59, 80
2, 39300, Note_on_c, 0, 59, 0
2, 39300, Note_on_c, 0, 62, 85
2, 39329, Note_on_c, 0, 62, 0
2, 39330, Note_on_c, 0, 67, 85
2, 39358, Note_on_c, 0, 67, 0
2, 39360, Note_on_c, 0, 64, 76
2, 39360, Note_on_c, 0, 60, 76
2, 39421, Note_on_c, 0, 60, 0
2, 39423, Note_on_c, 0, 64, 0
2, 39480, Note_on_c, 0, 72, 89
2, 39480, Note_on_c, 0, 64, 93
2, 39544, Note_on_c, 0, 64, 0
2, 39545, Note_on_c, 0, 72, 0
2, 39600, Note_on_c, 0, 69, 76
2, 39600, Note_on_c, 0, 62, 72
2, 39600, Note_on_c, 0, 72, 80
2, 39670, Note_on_c, 0, 69, 0
2, 39672, Note_on_c, 0, 72, 0
2, 39672, Note_on_c, 0, 62, 0
2, 39720, Note_on_c, 0, 67, 76
2, 39720, Note_on_c, 0, 71, 76
2, 39720, Note_on_c, 0, 62, 72
2, 39720, Note_on_c, 0, 65, 89
2, 39799, Note_on_c, 0, 65, 0
2, 39800, Note_on_c, 0, 67, 0
2, 39801, Note_on_c, 0, 71, 0
2, 39805, Note_on_c, 0, 62, 0
2, 39840, Note_on_c, 0, 60, 85
2, 39840, Note_on_c, 0, 55, 80
2, 39964, Note_on_c, 0, 55, 0
2, 39965, Note_on_c, 0, 60, 0
2, 40020, Note_on_c, 0, 60, 85
2, 40020, Note_on_c, 0, 55, 76
2, 40037, Note_on_c, 0, 55, 0
2, 40040, Note_on_c, 0, 60, 0
2, 40050, Note_on_c, 0, 60, 89
2, 40050, Note_on_c, 0, 55, 64
2, 40074, Note_on_c, 0, 55, 0
2, 40074, Note_on_c, 0, 60, 0
2, 40080, Note_on_c, 0, 67, 85
2, 40080, Note_on_c, 0, 62, 80
2, 40204, Note_on_c, 0, 62, 0
2, 40204, Note_on_c, 0, 67, 0
2, 40260, Note_on_c, 0, 67, 93
2, 40260, Note_on_c, 0, 62, 89
2, 40279, Note_on_c, 0, 67, 0
2, 40280, Note_on_c, 0, 62, 0
2, 40290, Note_on_c, 0, 67, 85
2, 40290, Note_on_c, 0, 62, 76
2, 40309, Note_on_c, 0, 67, 0
2, 40312, Note_on_c, 0, 62, 0
2, 40320, Note_on_c, 0, 72, 89
2, 40320, Note_on_c, 0, 63, 72
2, 40445, Note_on_c, 0, 63, 0
2, 40450, Note_on_c, 0, 72, 0
2, 40500, Note_on_c, 0, 69, 93
2, 40500, Note_on_c, 0, 62, 89
2, 40519, Note_on_c, 0, 69, 0
2, 40520, Note_on_c, 0, 62, 0
2, 40530, Note_on_c, 0, 69, 76
2, 40530, Note_on_c, 0, 62, 76
2, 40547, Note_on_c, 0, 62, 0
2, 40549, Note_on_c, 0, 69, 0
2, 40560, Note_on_c, 0, 70, 89
2, 40560, Note_on_c, 0, 62, 80
2, 40682, Note_on_c, 0, 62, 0
2, 40688, Note_on_c, 0, 70, 0
2, 40740, Note_on_c, 0, 66, 89
2, 40740, Note_on_c, 0, 60, 89
2, 40758, Note_on_c, 0, 66, 0
2, 40761, Note_on_c, 0, 60, 0
2, 40770, Note_on_c, 0, 66, 72
2, 40770, Note_on_c, 0, 60, 72
2, 40790, Note_on_c, 0, 60, 0
2, 40794, Note_on_c, 0, 66, 0
2, 40800, Note_on_c, 0, 67, 89
2, 40800, Note_on_c, 0, 58, 85
2, 40857, Note_on_c, 0, 67, 0
2, 40860, Note_on_c, 0, 69, 80
2, 40920, Note_on_c, 0, 70, 76
2, 40922, Note_on_c, 0, 69, 0
2, 40943, Note_on_c, 0, 58, 0
2, 40979, Note_on_c, 0, 70, 0
2, 40980, Note_on_c, 0, 62, 89
2, 40980, Note_on_c, 0, 55, 89
2, 41026, Note_on_c, 0, 55, 0
2, 41036, Note_on_c, 0, 62, 0
2, 41040, Note_on_c, 0, 63, 89
2, 41040, Note_on_c, 0, 55, 93
2, 41155, Note_on_c, 0, 63, 0
2, 41159, Note_on_c, 0, 55, 0
2, 41160, Note_on_c, 0, 67, 93
2, 41160, Note_on_c, 0, 62, 93
2, 41255, Note_on_c, 0, 62, 0
2, 41280, Note_on_c, 0, 62, 89
2, 41295, Note_on_c, 0, 60, 68
2, 41296, Note_on_c, 0, 62, 0
2, 41308, Note_on_c, 0, 60, 0
2, 41310, Note_on_c, 0, 62, 76
2, 41324, Note_on_c, 0, 62, 0
2, 41325, Note_on_c, 0, 60, 76
2, 41340, Note_on_c, 0, 62, 76
2, 41341, Note_on_c, 0, 60, 0
2, 41355, Note_on_c, 0, 60, 85
2, 41357, Note_on_c, 0, 62, 0
2, 41370, Note_on_c, 0, 58, 76
2, 41371, Note_on_c, 0, 60, 0
2, 41382, Note_on_c, 0, 58, 0
2, 41385, Note_on_c, 0, 60, 76
2, 41390, Note_on_c, 0, 67, 0
2, 41397, Note_on_c, 0, 60, 0
2, 41400, Note_on_c, 0, 66, 76
2, 41400, Note_on_c, 0, 62, 85
2, 41453, Note_on_c, 0, 62, 0
2, 41460, Note_on_c, 0, 60, 85
2, 41514, Note_on_c, 0, 66, 0
2, 41519, Note_on_c, 0, 60, 0
2, 41520, Note_on_c, 0, 67, 89
2, 41520, Note_on_c, 0, 58, 64
2, 41643, Note_on_c, 0, 58, 0
2, 41645, Note_on_c, 0, 67, 0
2, 41670, Note_on_c, 0, 62, 93
2, 41670, Note_on_c, 0, 58, 89
2, 41696, Note_on_c, 0, 58, 0
2, 41699, Note_on_c, 0, 62, 0
2, 41700, Note_on_c, 0, 64, 85
2, 41700, Note_on_c, 0, 60, 85
2, 41729, Note_on_c, 0, 64, 0
2, 41730, Note_on_c, 0, 66, 76
2, 41730, Note_on_c, 0, 62, 89
2, 41732, Note_on_c, 0, 60, 0
2, 41756, Note_on_c, 0, 66, 0
2, 41759, Note_on_c, 0, 62, 0
2, 41760, Note_on_c, 0, 67, 62
2, 41760, Note_on_c, 0, 64, 80
2, 41790, Note_on_c, 0, 64, 0
2, 41790, Note_on_c, 0, 67, 0
2, 41790, Note_on_c, 0, 69, 85
2, 41790, Note_on_c, 0, 66, 76
2, 41819, Note_on_c, 0, 66, 0
2, 41819, Note_on_c, 0, 69, 0
2, 41820, Note_on_c, 0, 70, 80
2, 41820, Note_on_c, 0, 67, 76
2, 41847, Note_on_c, 0, 70, 0
2, 41850, Note_on_c, 0, 72, 80
2, 41850, Note_on_c, 0, 69, 85
2, 41851, Note_on_c, 0, 67, 0
2, 41880, Note_on_c, 0, 72, 0
2, 41880, Note_on_c, 0, 74, 89
2, 41880, Note_on_c, 0, 70, 89
2, 41881, Note_on_c, 0, 69, 0
2, 42053, Note_on_c, 0, 74, 0
2, 42057, Note_on_c, 0, 70, 0
2, 42060, Note_on_c, 0, 72, 89
2, 42060, Note_on_c, 0, 69, 89
2, 42117, Note_on_c, 0, 72, 0
2, 42120, Note_on_c, 0, 70, 80
2, 42120, Note_on_c, 0, 67, 89
2, 42121, Note_on_c, 0, 69, 0
2, 42218, Note_on_c, 0, 70, 0
2, 42240, Note_on_c, 0, 70, 93
2, 42254, Note_on_c, 0, 70, 0
2, 42255, Note_on_c, 0, 69, 76
2, 42268, Note_on_c, 0, 69, 0
2, 42270, Note_on_c, 0, 70, 68
2, 42285, Note_on_c, 0, 69, 72
2, 42286, Note_on_c, 0, 70, 0
2, 42300, Note_on_c, 0, 69, 0
2, 42300, Note_on_c, 0, 70, 72
2, 42315, Note_on_c, 0, 70, 0
2, 42315, Note_on_c, 0, 69, 62
2, 42329, Note_on_c, 0, 69, 0
2, 42330, Note_on_c, 0, 70, 62
2, 42345, Note_on_c, 0, 69, 62
2, 42346, Note_on_c, 0, 70, 0
2, 42350, Note_on_c, 0, 67, 0
2, 42360, Note_on_c, 0, 69, 0
2, 42360, Note_on_c, 0, 70, 64
2, 42360, Note_on_c, 0, 65, 85
2, 42375, Note_on_c, 0, 70, 0
2, 42375, Note_on_c, 0, 69, 60
2, 42390, Note_on_c, 0, 69, 0
2, 42390, Note_on_c, 0, 70, 64
2, 42405, Note_on_c, 0, 69, 62
2, 42408, Note_on_c, 0, 70, 0
2, 42419, Note_on_c, 0, 69, 0
2, 42420, Note_on_c, 0, 70, 85
2, 42435, Note_on_c, 0, 69, 72
2, 42436, Note_on_c, 0, 70, 0
2, 42449, Note_on_c, 0, 69, 0
2, 42450, Note_on_c, 0, 67, 93
2, 42464, Note_on_c, 0, 67, 0
2, 42465, Note_on_c, 0, 69, 68
2, 42472, Note_on_c, 0, 69, 0
2, 42480, Note_on_c, 0, 67, 68
2, 42588, Note_on_c, 0, 65, 0
2, 42598, Note_on_c, 0, 67, 0
2, 42600, Note_on_c, 0, 72, 85
2, 42600, Note_on_c, 0, 63, 80
2, 42702, Note_on_c, 0, 63, 0
2, 42720, Note_on_c, 0, 63, 89
2, 42735, Note_on_c, 0, 63, 0
2, 42735, Note_on_c, 0, 62, 80
2, 42749, Note_on_c, 0, 62, 0
2, 42750, Note_on_c, 0, 63, 76
2, 42765, Note_on_c, 0, 62, 76
2, 42766, Note_on_c, 0, 63, 0
2, 42778, Note_on_c, 0, 62, 0
2, 42780, Note_on_c, 0, 63, 72
2, 42795, Note_on_c, 0, 62, 72
2, 42797, Note_on_c, 0, 63, 0
2, 42808, Note_on_c, 0, 62, 0
2, 42810, Note_on_c, 0, 63, 76
2, 42824, Note_on_c, 0, 63, 0
2, 42825, Note_on_c, 0, 62, 64
2, 42832, Note_on_c, 0, 72, 0
2, 42838, Note_on_c, 0, 62, 0
2, 42840, Note_on_c, 0, 70, 89
2, 42840, Note_on_c, 0, 63, 72
2, 42854, Note_on_c, 0, 63, 0
2, 42855, Note_on_c, 0, 62, 68
2, 42869, Note_on_c, 0, 62, 0
2, 42870, Note_on_c, 0, 63, 80
2, 42882, Note_on_c, 0, 63, 0
2, 42885, Note_on_c, 0, 62, 72
2, 42900, Note_on_c, 0, 62, 0
2, 42900, Note_on_c, 0, 63, 76
2, 42915, Note_on_c, 0, 62, 72
2, 42917, Note_on_c, 0, 63, 0
2, 42929, Note_on_c, 0, 62, 0
2, 42930, Note_on_c, 0, 60, 76
2, 42945, Note_on_c, 0, 62, 89
2, 42946, Note_on_c, 0, 60, 0
2, 42957, Note_on_c, 0, 62, 0
2, 42960, Note_on_c, 0, 60, 80
2, 43057, Note_on_c, 0, 60, 0
2, 43073, Note_on_c, 0, 70, 0
2, 43080, Note_on_c, 0, 69, 85
2, 43080, Note_on_c, 0, 65, 93
2, 43184, Note_on_c, 0, 69, 0
2, 43200, Note_on_c, 0, 69, 76
2, 43213, Note_on_c, 0, 69, 0
2, 43215, Note_on_c, 0, 67, 76
2, 43230, Note_on_c, 0, 69, 76
2, 43231, Note_on_c, 0, 67, 0
2, 43245, Note_on_c, 0, 67, 76
2, 43249, Note_on_c, 0, 69, 0
2, 43259, Note_on_c, 0, 67, 0
2, 43260, Note_on_c, 0, 69, 76
2, 43275, Note_on_c, 0, 67, 72
2, 43277, Note_on_c, 0, 69, 0
2, 43289, Note_on_c, 0, 67, 0
2, 43290, Note_on_c, 0, 69, 64
2, 43305, Note_on_c, 0, 67, 68
2, 43306, Note_on_c, 0, 69, 0
2, 43317, Note_on_c, 0, 65, 0
2, 43320, Note_on_c, 0, 67, 0
2, 43320, Note_on_c, 0, 69, 76
2, 43320, Note_on_c, 0, 63, 89
2, 43335, Note_on_c, 0, 67, 68
2, 43337, Note_on_c, 0, 69, 0
2, 43349, Note_on_c, 0, 67, 0
2, 43350, Note_on_c, 0, 69, 72
2, 43365, Note_on_c, 0, 67, 62
2, 43366, Note_on_c, 0, 69, 0
2, 43380, Note_on_c, 0, 69, 80
2, 43381, Note_on_c, 0, 67, 0
2, 43395, Note_on_c, 0, 67, 68
2, 43398, Note_on_c, 0, 69, 0
2, 43409, Note_on_c, 0, 67, 0
2, 43410, Note_on_c, 0, 65, 72
2, 43425, Note_on_c, 0, 65, 0
2, 43425, Note_on_c, 0, 67, 76
2, 43437, Note_on_c, 0, 67, 0
2, 43440, Note_on_c, 0, 65, 72
2, 43557, Note_on_c, 0, 63, 0
2, 43560, Note_on_c, 0, 70, 76
2, 43560, Note_on_c, 0, 62, 85
2, 43564, Note_on_c, 0, 65, 0
2, 43663, Note_on_c, 0, 62, 0
2, 43680, Note_on_c, 0, 60, 80
2, 43782, Note_on_c, 0, 70, 0
2, 43800, Note_on_c, 0, 69, 89
2, 43897, Note_on_c, 0, 60, 0
2, 43920, Note_on_c, 0, 58, 89
2, 43950, Note_on_c, 0, 74, 93
2, 43978, Note_on_c, 0, 74, 0
2, 43980, Note_on_c, 0, 72, 85
2, 44009, Note_on_c, 0, 72, 0
2, 44010, Note_on_c, 0, 74, 85
2, 44024, Note_on_c, 0, 69, 0
2, 44040, Note_on_c, 0, 70, 80
2, 44040, Note_on_c, 0, 67, 89
2, 44045, Note_on_c, 0, 74, 0
2, 44070, Note_on_c, 0, 70, 0
2, 44070, Note_on_c, 0, 69, 76
2, 44098, Note_on_c, 0, 58, 0
2, 44100, Note_on_c, 0, 70, 85
2, 44102, Note_on_c, 0, 69, 0
2, 44108, Note_on_c, 0, 67, 0
2, 44129, Note_on_c, 0, 70, 0
2, 44130, Note_on_c, 0, 67, 85
2, 44158, Note_on_c, 0, 67, 0
2, 44190, Note_on_c, 0, 72, 89
2, 44190, Note_on_c, 0, 69, 98
2, 44217, Note_on_c, 0, 69, 0
2, 44218, Note_on_c, 0, 72, 0
2, 44220, Note_on_c, 0, 70, 72
2, 44220, Note_on_c, 0, 67, 80
2, 44249, Note_on_c, 0, 67, 0
2, 44249, Note_on_c, 0, 70, 0
2, 44250, Note_on_c, 0, 72, 76
2, 44250, Note_on_c, 0, 69, 76
2, 44279, Note_on_c, 0, 69, 0
2, 44280, Note_on_c, 0, 69, 80
2, 44280, Note_on_c, 0, 66, 72
2, 44281, Note_on_c, 0, 72, 0
2, 44309, Note_on_c, 0, 69, 0
2, 44310, Note_on_c, 0, 67, 76
2, 44310, Note_on_c, 0, 64, 80
2, 44311, Note_on_c, 0, 66, 0
2, 44338, Note_on_c, 0, 67, 0
2, 44340, Note_on_c, 0, 69, 80
2, 44340, Note_on_c, 0, 66, 76
2, 44342, Note_on_c, 0, 64, 0
2, 44370, Note_on_c, 0, 69, 0
2, 44370, Note_on_c, 0, 66, 80
2, 44370, Note_on_c, 0, 62, 80
2, 44371, Note_on_c, 0, 66, 0
2, 44393, Note_on_c, 0, 62, 0
2, 44394, Note_on_c, 0, 66, 0
2, 44430, Note_on_c, 0, 70, 80
2, 44430, Note_on_c, 0, 67, 89
2, 44459, Note_on_c, 0, 67, 0
2, 44460, Note_on_c, 0, 70, 0
2, 44460, Note_on_c, 0, 69, 76
2, 44460, Note_on_c, 0, 65, 76
2, 44489, Note_on_c, 0, 65, 0
2, 44489, Note_on_c, 0, 69, 0
2, 44490, Note_on_c, 0, 70, 72
2, 44490, Note_on_c, 0, 67, 85
2, 44520, Note_on_c, 0, 67, 0
2, 44520, Note_on_c, 0, 67, 76
2, 44520, Note_on_c, 0, 64, 89
2, 44523, Note_on_c, 0, 70, 0
2, 44547, Note_on_c, 0, 67, 0
2, 44550, Note_on_c, 0, 65, 72
2, 44550, Note_on_c, 0, 62, 80
2, 44551, Note_on_c, 0, 64, 0
2, 44579, Note_on_c, 0, 62, 0
2, 44580, Note_on_c, 0, 65, 0
2, 44580, Note_on_c, 0, 67, 76
2, 44580, Note_on_c, 0, 64, 89
2, 44610, Note_on_c, 0, 67, 0
2, 44610, Note_on_c, 0, 64, 80
2, 44610, Note_on_c, 0, 60, 80
2, 44613, Note_on_c, 0, 64, 0
2, 44629, Note_on_c, 0, 60, 0
2, 44632, Note_on_c, 0, 64, 0
2, 44670, Note_on_c, 0, 69, 80
2, 44670, Note_on_c, 0, 65, 89
2, 44697, Note_on_c, 0, 69, 0
2, 44698, Note_on_c, 0, 65, 0
2, 44700, Note_on_c, 0, 67, 76
2, 44700, Note_on_c, 0, 64, 85
2, 44729, Note_on_c, 0, 64, 0
2, 44730, Note_on_c, 0, 69, 76
2, 44730, Note_on_c, 0, 65, 76
2, 44731, Note_on_c, 0, 67, 0
2, 44760, Note_on_c, 0, 65, 80
2, 44760, Note_on_c, 0, 62, 80
2, 44761, Note_on_c, 0, 65, 0
2, 44762, Note_on_c, 0, 69, 0
2, 44789, Note_on_c, 0, 62, 0
2, 44790, Note_on_c, 0, 65, 0
2, 44790, Note_on_c, 0, 64, 68
2, 44790, Note_on_c, 0, 60, 72
2, 44819, Note_on_c, 0, 64, 0
2, 44820, Note_on_c, 0, 65, 76
2, 44820, Note_on_c, 0, 62, 89
2, 44824, Note_on_c, 0, 60, 0
2, 44848, Note_on_c, 0, 65, 0
2, 44849, Note_on_c, 0, 62, 0
2, 44850, Note_on_c, 0, 62, 68
2, 44850, Note_on_c, 0, 58, 56
2, 44880, Note_on_c, 0, 58, 0
2, 44880, Note_on_c, 0, 67, 72
2, 44880, Note_on_c, 0, 64, 85
2, 44882, Note_on_c, 0, 62, 0
2, 44909, Note_on_c, 0, 64, 0
2, 44909, Note_on_c, 0, 67, 0
2, 44910, Note_on_c, 0, 65, 68
2, 44910, Note_on_c, 0, 62, 80
2, 44939, Note_on_c, 0, 62, 0
2, 44940, Note_on_c, 0, 67, 76
2, 44940, Note_on_c, 0, 64, 85
2, 44941, Note_on_c, 0, 65, 0
2, 44969, Note_on_c, 0, 67, 0
2, 44970, Note_on_c, 0, 64, 80
2, 44970, Note_on_c, 0, 61, 72
2, 44972, Note_on_c, 0, 64, 0
2, 44999, Note_on_c, 0, 61, 0
2, 44999, Note_on_c, 0, 64, 0
2, 45000, Note_on_c, 0, 65, 89
2, 45000, Note_on_c, 0, 62, 85
2, 45028, Note_on_c, 0, 65, 0
2, 45030, Note_on_c, 0, 64, 76
2, 45030, Note_on_c, 0, 61, 93
2, 45032, Note_on_c, 0, 62, 0
2, 45055, Note_on_c, 0, 61, 0
2, 45060, Note_on_c, 0, 64, 0
2, 45060, Note_on_c, 0, 65, 80
2, 45060, Note_on_c, 0, 62, 89
2, 45089, Note_on_c, 0, 62, 0
2, 45089, Note_on_c, 0, 65, 0
2, 45090, Note_on_c, 0, 62, 80
2, 45090, Note_on_c, 0, 59, 80
2, 45115, Note_on_c, 0, 59, 0
2, 45118, Note_on_c, 0, 62, 0
2, 45120, Note_on_c, 0, 61, 93
2, 45120, Note_on_c, 0, 57, 76
2, 45240, Note_on_c, 0, 57, 0
2, 45244, Note_on_c, 0, 61, 0
2, 45270, Note_on_c, 0, 57, 93
2, 45300, Note_on_c, 0, 61, 72
2, 45303, Note_on_c, 0, 57, 0
2, 45330, Note_on_c, 0, 64, 76
2, 45352, Note_on_c, 0, 61, 0
2, 45359, Note_on_c, 0, 64, 0
2, 45360, Note_on_c, 0, 69, 85
2, 45390, Note_on_c, 0, 69, 0
2, 45390, Note_on_c, 0, 69, 89
2, 45390, Note_on_c, 0, 65, 62
2, 45420, Note_on_c, 0, 69, 0
2, 45420, Note_on_c, 0, 71, 89
2, 45420, Note_on_c, 0, 67, 80
2, 45421, Note_on_c, 0, 65, 0
2, 45449, Note_on_c, 0, 67, 0
2, 45450, Note_on_c, 0, 73, 76
2, 45450, Note_on_c, 0, 64, 89
2, 45454, Note_on_c, 0, 71, 0
2, 45480, Note_on_c, 0, 73, 0
2, 45480, Note_on_c, 0, 74, 80
2, 45480, Note_on_c, 0, 66, 72
2, 45484, Note_on_c, 0, 64, 0
2, 45509, Note_on_c, 0, 74, 0
2, 45510, Note_on_c, 0, 70, 76
2, 45510, Note_on_c, 0, 67, 76
2, 45511, Note_on_c, 0, 66, 0
2, 45538, Note_on_c, 0, 70, 0
2, 45540, Note_on_c, 0, 67, 0
2, 45540, Note_on_c, 0, 72, 76
2, 45540, Note_on_c, 0, 64, 85
2, 45569, Note_on_c, 0, 64, 0
2, 45570, Note_on_c, 0, 72, 0
2, 45570, Note_on_c, 0, 69, 76
2, 45570, Note_on_c, 0, 66, 68
2, 45599, Note_on_c, 0, 69, 0
2, 45600, Note_on_c, 0, 70, 89
2, 45600, Note_on_c, 0, 67, 89
2, 45601, Note_on_c, 0, 66, 0
2, 45715, Note_on_c, 0, 67, 0
2, 45718, Note_on_c, 0, 70, 0
2, 45750, Note_on_c, 0, 55, 85
2, 45780, Note_on_c, 0, 58, 80
2, 45784, Note_on_c, 0, 55, 0
2, 45810, Note_on_c, 0, 62, 80
2, 45818, Note_on_c, 0, 58, 0
2, 45839, Note_on_c, 0, 62, 0
2, 45840, Note_on_c, 0, 67, 80
2, 45870, Note_on_c, 0, 67, 0
2, 45870, Note_on_c, 0, 67, 89
2, 45870, Note_on_c, 0, 64, 76
2, 45899, Note_on_c, 0, 64, 0
2, 45899, Note_on_c, 0, 67, 0
2, 45900, Note_on_c, 0, 69, 85
2, 45900, Note_on_c, 0, 65, 80
2, 45930, Note_on_c, 0, 65, 0
2, 45930, Note_on_c, 0, 71, 80
2, 45930, Note_on_c, 0, 62, 80
2, 45932, Note_on_c, 0, 69, 0
2, 45960, Note_on_c, 0, 72, 80
2, 45960, Note_on_c, 0, 64, 80
2, 45961, Note_on_c, 0, 62, 0
2, 45962, Note_on_c, 0, 71, 0
2, 45990, Note_on_c, 0, 64, 0
2, 45990, Note_on_c, 0, 69, 76
2, 45990, Note_on_c, 0, 65, 72
2, 45992, Note_on_c, 0, 72, 0
2, 46020, Note_on_c, 0, 70, 72
2, 46020, Note_on_c, 0, 62, 76
2, 46021, Note_on_c, 0, 65, 0
2, 46023, Note_on_c, 0, 69, 0
2, 46050, Note_on_c, 0, 62, 0
2, 46050, Note_on_c, 0, 67, 76
2, 46050, Note_on_c, 0, 64, 89
2, 46051, Note_on_c, 0, 70, 0
2, 46080, Note_on_c, 0, 64, 0
2, 46080, Note_on_c, 0, 65, 89
2, 46080, Note_on_c, 0, 60, 89
2, 46083, Note_on_c, 0, 67, 0
2, 46202, Note_on_c, 0, 65, 0
2, 46204, Note_on_c, 0, 60, 0
2, 46260, Note_on_c, 0, 65, 93
2, 46260, Note_on_c, 0, 60, 89
2, 46280, Note_on_c, 0, 60, 0
2, 46281, Note_on_c, 0, 65, 0
2, 46290, Note_on_c, 0, 65, 80
2, 46290, Note_on_c, 0, 60, 72
2, 46309, Note_on_c, 0, 60, 0
2, 46312, Note_on_c, 0, 65, 0
2, 46320, Note_on_c, 0, 67, 85
2, 46320, Note_on_c, 0, 60, 76
2, 46450, Note_on_c, 0, 60, 0
2, 46466, Note_on_c, 0, 67, 0
2, 46500, Note_on_c, 0, 67, 85
2, 46500, Note_on_c, 0, 60, 85
2, 46518, Note_on_c, 0, 67, 0
2, 46521, Note_on_c, 0, 60, 0
2, 46530, Note_on_c, 0, 67, 76
2, 46530, Note_on_c, 0, 60, 72
2, 46548, Note_on_c, 0, 67, 0
2, 46553, Note_on_c, 0, 60, 0
2, 46560, Note_on_c, 0, 69, 76
2, 46560, Note_on_c, 0, 65, 85
2, 46691, Note_on_c, 0, 65, 0
2, 46708, Note_on_c, 0, 69, 0
2, 46740, Note_on_c, 0, 69, 93
2, 46740, Note_on_c, 0, 65, 89
2, 46756, Note_on_c, 0, 69, 0
2, 46760, Note_on_c, 0, 65, 0
2, 46770, Note_on_c, 0, 69, 72
2, 46770, Note_on_c, 0, 65, 80
2, 46787, Note_on_c, 0, 69, 0
2, 46792, Note_on_c, 0, 65, 0
2, 46800, Note_on_c, 0, 72, 85
2, 46800, Note_on_c, 0, 64, 80
2, 46800, Note_on_c, 0, 67, 76
2, 46936, Note_on_c, 0, 64, 0
2, 46937, Note_on_c, 0, 67, 0
2, 46942, Note_on_c, 0, 72, 0
2, 46980, Note_on_c, 0, 60, 93
2, 46980, Note_on_c, 0, 55, 68
2, 46980, Note_on_c, 0, 57, 80
2, 46984, Note_on_c, 0, 57, 0
2, 46999, Note_on_c, 0, 60, 0
2, 47002, Note_on_c, 0, 55, 0
2, 47010, Note_on_c, 0, 60, 76
2, 47010, Note_on_c, 0, 55, 89
2, 47032, Note_on_c, 0, 60, 0
2, 47035, Note_on_c, 0, 55, 0
2, 47040, Note_on_c, 0, 65, 85
2, 47040, Note_on_c, 0, 57, 89
2, 47040, Note_on_c, 0, 60, 76
2, 47098, Note_on_c, 0, 65, 0
2, 47100, Note_on_c, 0, 67, 85
2, 47156, Note_on_c, 0, 67, 0
2, 47160, Note_on_c, 0, 69, 76
2, 47164, Note_on_c, 0, 57, 0
2, 47166, Note_on_c, 0, 60, 0
2, 47217, Note_on_c, 0, 69, 0
2, 47220, Note_on_c, 0, 60, 80
2, 47220, Note_on_c, 0, 53, 93
2, 47267, Note_on_c, 0, 53, 0
2, 47278, Note_on_c, 0, 60, 0
2, 47280, Note_on_c, 0, 62, 76
2, 47280, Note_on_c, 0, 53, 72
2, 47399, Note_on_c, 0, 62, 0
2, 47400, Note_on_c, 0, 65, 85
2, 47400, Note_on_c, 0, 60, 89
2, 47402, Note_on_c, 0, 53, 0
2, 47496, Note_on_c, 0, 60, 0
2, 47520, Note_on_c, 0, 60, 89
2, 47535, Note_on_c, 0, 58, 85
2, 47537, Note_on_c, 0, 60, 0
2, 47549, Note_on_c, 0, 58, 0
2, 47550, Note_on_c, 0, 60, 80
2, 47563, Note_on_c, 0, 60, 0
2, 47565, Note_on_c, 0, 58, 64
2, 47577, Note_on_c, 0, 58, 0
2, 47580, Note_on_c, 0, 60, 80
2, 47595, Note_on_c, 0, 58, 62
2, 47599, Note_on_c, 0, 60, 0
2, 47608, Note_on_c, 0, 58, 0
2, 47610, Note_on_c, 0, 57, 72
2, 47625, Note_on_c, 0, 57, 0
2, 47625, Note_on_c, 0, 58, 72
2, 47631, Note_on_c, 0, 65, 0
2, 47637, Note_on_c, 0, 58, 0
2, 47640, Note_on_c, 0, 64, 76
2, 47640, Note_on_c, 0, 60, 85
2, 47695, Note_on_c, 0, 60, 0
2, 47700, Note_on_c, 0, 58, 85
2, 47756, Note_on_c, 0, 58, 0
2, 47760, Note_on_c, 0, 65, 80
2, 47760, Note_on_c, 0, 57, 85
2, 47761, Note_on_c, 0, 64, 0
2, 47882, Note_on_c, 0, 65, 0
2, 47884, Note_on_c, 0, 57, 0
2, 47910, Note_on_c, 0, 60, 80
2, 47910, Note_on_c, 0, 57, 89
2, 47936, Note_on_c, 0, 57, 0
2, 47940, Note_on_c, 0, 60, 0
2, 47940, Note_on_c, 0, 62, 80
2, 47940, Note_on_c, 0, 58, 72
2, 47966, Note_on_c, 0, 58, 0
2, 47968, Note_on_c, 0, 62, 0
2, 47970, Note_on_c, 0, 64, 68
2, 47970, Note_on_c, 0, 60, 85
2, 47999, Note_on_c, 0, 60, 0
2, 47999, Note_on_c, 0, 64, 0
2, 48000, Note_on_c, 0, 65, 80
2, 48000, Note_on_c, 0, 62, 76
2, 48029, Note_on_c, 0, 62, 0
2, 48029, Note_on_c, 0, 65, 0
2, 48030, Note_on_c, 0, 67, 80
2, 48030, Note_on_c, 0, 64, 80
2, 48058, Note_on_c, 0, 64, 0
2, 48059, Note_on_c, 0, 67, 0
2, 48060, Note_on_c, 0, 69, 80
2, 48060, Note_on_c, 0, 65, 76
2, 48087, Note_on_c, 0, 65, 0
2, 48089, Note_on_c, 0, 69, 0
2, 48090, Note_on_c, 0, 70, 80
2, 48090, Note_on_c, 0, 67, 89
2, 48119, Note_on_c, 0, 67, 0
2, 48120, Note_on_c, 0, 70, 0
2, 48120, Note_on_c, 0, 72, 85
2, 48120, Note_on_c, 0, 69, 85
2, 48290, Note_on_c, 0, 72, 0
2, 48300, Note_on_c, 0, 70, 80
2, 48300, Note_on_c, 0, 67, 80
2, 48301, Note_on_c, 0, 69, 0
2, 48360, Note_on_c, 0, 70, 0
2, 48360, Note_on_c, 0, 69, 89
2, 48360, Note_on_c, 0, 65, 85
2, 48361, Note_on_c, 0, 67, 0
2, 48461, Note_on_c, 0, 69, 0
2, 48480, Note_on_c, 0, 69, 89
2, 48495, Note_on_c, 0, 67, 72
2, 48497, Note_on_c, 0, 69, 0
2, 48509, Note_on_c, 0, 67, 0
2, 48510, Note_on_c, 0, 69, 72
2, 48525, Note_on_c, 0, 67, 68
2, 48527, Note_on_c, 0, 69, 0
2, 48537, Note_on_c, 0, 67, 0
2, 48540, Note_on_c, 0, 69, 72
2, 48555, Note_on_c, 0, 67, 68
2, 48557, Note_on_c, 0, 69, 0
2, 48567, Note_on_c, 0, 67, 0
2, 48570, Note_on_c, 0, 69, 68
2, 48585, Note_on_c, 0, 67, 68
2, 48586, Note_on_c, 0, 69, 0
2, 48596, Note_on_c, 0, 65, 0
2, 48600, Note_on_c, 0, 67, 0
2, 48600, Note_on_c, 0, 69, 80
2, 48600, Note_on_c, 0, 64, 89
2, 48615, Note_on_c, 0, 69, 0
2, 48615, Note_on_c, 0, 67, 76
2, 48627, Note_on_c, 0, 67, 0
2, 48630, Note_on_c, 0, 69, 80
2, 48644, Note_on_c, 0, 69, 0
2, 48645, Note_on_c, 0, 67, 72
2, 48659, Note_on_c, 0, 67, 0
2, 48660, Note_on_c, 0, 65, 80
2, 48690, Note_on_c, 0, 65, 0
2, 48690, Note_on_c, 0, 67, 89
2, 48719, Note_on_c, 0, 67, 0
2, 48720, Note_on_c, 0, 65, 80
2, 48724, Note_on_c, 0, 64, 0
2, 48777, Note_on_c, 0, 65, 0
2, 48780, Note_on_c, 0, 69, 76
2, 48810, Note_on_c, 0, 69, 0
2, 48810, Note_on_c, 0, 67, 85
2, 48839, Note_on_c, 0, 67, 0
2, 48840, Note_on_c, 0, 65, 72
2, 48870, Note_on_c, 0, 65, 0
2, 48870, Note_on_c, 0, 64, 89
2, 48900, Note_on_c, 0, 62, 85
2, 48900, Note_on_c, 0, 53, 93
2, 48901, Note_on_c, 0, 64, 0
2, 48927, Note_on_c, 0, 62, 0
2, 48930, Note_on_c, 0, 60, 76
2, 48958, Note_on_c, 0, 60, 0
2, 48960, Note_on_c, 0, 58, 76
2, 49018, Note_on_c, 0, 53, 0
2, 49020, Note_on_c, 0, 70, 85
2, 49020, Note_on_c, 0, 52, 76
2, 49021, Note_on_c, 0, 58, 0
2, 49047, Note_on_c, 0, 70, 0
2, 49050, Note_on_c, 0, 69, 76
2, 49080, Note_on_c, 0, 67, 89
2, 49081, Note_on_c, 0, 69, 0
2, 49087, Note_on_c, 0, 52, 0
2, 49110, Note_on_c, 0, 67, 0
2, 49110, Note_on_c, 0, 65, 72
2, 49139, Note_on_c, 0, 65, 0
2, 49140, Note_on_c, 0, 64, 76
2, 49140, Note_on_c, 0, 55, 93
2, 49167, Note_on_c, 0, 64, 0
2, 49170, Note_on_c, 0, 62, 72
2, 49199, Note_on_c, 0, 62, 0
2, 49200, Note_on_c, 0, 60, 76
2, 49257, Note_on_c, 0, 60, 0
2, 49260, Note_on_c, 0, 72, 89
2, 49260, Note_on_c, 0, 53, 89
2, 49265, Note_on_c, 0, 55, 0
2, 49289, Note_on_c, 0, 72, 0
2, 49290, Note_on_c, 0, 70, 72
2, 49320, Note_on_c, 0, 69, 80
2, 49321, Note_on_c, 0, 70, 0
2, 49327, Note_on_c, 0, 53, 0
2, 49350, Note_on_c, 0, 67, 89
2, 49354, Note_on_c, 0, 69, 0
2, 49379, Note_on_c, 0, 67, 0
2, 49380, Note_on_c, 0, 65, 72
2, 49380, Note_on_c, 0, 57, 98
2, 49408, Note_on_c, 0, 65, 0
2, 49410, Note_on_c, 0, 64, 80
2, 49439, Note_on_c, 0, 64, 0
2, 49440, Note_on_c, 0, 62, 89
2, 49495, Note_on_c, 0, 57, 0
2, 49496, Note_on_c, 0, 62, 0
2, 49500, Note_on_c, 0, 74, 93
2, 49500, Note_on_c, 0, 55, 89
2, 49530, Note_on_c, 0, 72, 89
2, 49531, Note_on_c, 0, 74, 0
2, 49560, Note_on_c, 0, 70, 89
2, 49561, Note_on_c, 0, 72, 0
2, 49568, Note_on_c, 0, 55, 0
2, 49590, Note_on_c, 0, 69, 76
2, 49590, Note_on_c, 0, 65, 93
2, 49592, Note_on_c, 0, 70, 0
2, 49619, Note_on_c, 0, 69, 0
2, 49620, Note_on_c, 0, 65, 0
2, 49620, Note_on_c, 0, 67, 89
2, 49620, Note_on_c, 0, 64, 80
2, 49650, Note_on_c, 0, 64, 0
2, 49650, Note_on_c, 0, 67, 0
2, 49650, Note_on_c, 0, 65, 76
2, 49650, Note_on_c, 0, 62, 89
2, 49679, Note_on_c, 0, 62, 0
2, 49680, Note_on_c, 0, 65, 0
2, 49680, Note_on_c, 0, 64, 93
2, 49680, Note_on_c, 0, 60, 89
2, 49806, Note_on_c, 0, 60, 0
2, 49814, Note_on_c, 0, 64, 0
2, 49860, Note_on_c, 0, 64, 93
2, 49860, Note_on_c, 0, 60, 93
2, 49920, Note_on_c, 0, 65, 89
2, 49922, Note_on_c, 0, 64, 0
2, 49976, Note_on_c, 0, 65, 0
2, 49980, Note_on_c, 0, 60, 0
2, 49980, Note_on_c, 0, 62, 80
2, 49980, Note_on_c, 0, 59, 80
2, 50044, Note_on_c, 0, 62, 0
2, 50062, Note_on_c, 0, 59, 0
2, 50100, Note_on_c, 0, 65, 93
2, 50100, Note_on_c, 0, 62, 93
2, 50157, Note_on_c, 0, 65, 0
2, 50160, Note_on_c, 0, 67, 89
2, 50218, Note_on_c, 0, 62, 0
2, 50220, Note_on_c, 0, 64, 89
2, 50220, Note_on_c, 0, 60, 89
2, 50223, Note_on_c, 0, 67, 0
2, 50298, Note_on_c, 0, 60, 0
2, 50306, Note_on_c, 0, 64, 0
2, 50340, Note_on_c, 0, 67, 93
2, 50340, Note_on_c, 0, 64, 98
2, 50392, Note_on_c, 0, 64, 0
2, 50398, Note_on_c, 0, 67, 0
2, 50400, Note_on_c, 0, 69, 89
2, 50400, Note_on_c, 0, 65, 93
2, 50459, Note_on_c, 0, 65, 0
2, 50460, Note_on_c, 0, 57, 89
2, 50489, Note_on_c, 0, 57, 0
2, 50490, Note_on_c, 0, 58, 85
2, 50520, Note_on_c, 0, 58, 0
2, 50520, Note_on_c, 0, 60, 89
2, 50530, Note_on_c, 0, 69, 0
2, 50549, Note_on_c, 0, 60, 0
2, 50550, Note_on_c, 0, 62, 89
2, 50580, Note_on_c, 0, 69, 102
2, 50580, Note_on_c, 0, 64, 93
2, 50582, Note_on_c, 0, 62, 0
2, 50606, Note_on_c, 0, 64, 0
2, 50610, Note_on_c, 0, 65, 76
2, 50639, Note_on_c, 0, 65, 0
2, 50640, Note_on_c, 0, 70, 89
2, 50640, Note_on_c, 0, 67, 89
2, 50644, Note_on_c, 0, 69, 0
2, 50700, Note_on_c, 0, 67, 0
2, 50700, Note_on_c, 0, 58, 80
2, 50729, Note_on_c, 0, 58, 0
2, 50730, Note_on_c, 0, 60, 85
2, 50760, Note_on_c, 0, 60, 0
2, 50760, Note_on_c, 0, 62, 89
2, 50767, Note_on_c, 0, 70, 0
2, 50790, Note_on_c, 0, 64, 89
2, 50791, Note_on_c, 0, 62, 0
2, 50818, Note_on_c, 0, 64, 0
2, 50820, Note_on_c, 0, 70, 93
2, 50820, Note_on_c, 0, 65, 89
2, 50850, Note_on_c, 0, 67, 89
2, 50851, Note_on_c, 0, 65, 0
2, 50879, Note_on_c, 0, 67, 0
2, 50880, Note_on_c, 0, 70, 0
2, 50880, Note_on_c, 0, 72, 93
2, 50880, Note_on_c, 0, 69, 93
2, 50939, Note_on_c, 0, 69, 0
2, 50940, Note_on_c, 0, 60, 76
2, 50969, Note_on_c, 0, 60, 0
2, 50970, Note_on_c, 0, 62, 85
2, 51000, Note_on_c, 0, 62, 0
2, 51000, Note_on_c, 0, 64, 93
2, 51013, Note_on_c, 0, 72, 0
2, 51028, Note_on_c, 0, 64, 0
2, 51030, Note_on_c, 0, 65, 85
2, 51060, Note_on_c, 0, 72, 89
2, 51060, Note_on_c, 0, 67, 76
2, 51062, Note_on_c, 0, 65, 0
2, 51088, Note_on_c, 0, 67, 0
2, 51090, Note_on_c, 0, 69, 85
2, 51119, Note_on_c, 0, 72, 0
2, 51120, Note_on_c, 0, 74, 93
2, 51120, Note_on_c, 0, 70, 85
2, 51123, Note_on_c, 0, 69, 0
2, 51149, Note_on_c, 0, 70, 0
2, 51150, Note_on_c, 0, 72, 80
2, 51180, Note_on_c, 0, 70, 85
2, 51181, Note_on_c, 0, 72, 0
2, 51210, Note_on_c, 0, 69, 89
2, 51212, Note_on_c, 0, 70, 0
2, 51239, Note_on_c, 0, 69, 0
2, 51240, Note_on_c, 0, 67, 85
2, 51269, Note_on_c, 0, 67, 0
2, 51270, Note_on_c, 0, 65, 76
2, 51287, Note_on_c, 0, 74, 0
2, 51300, Note_on_c, 0, 65, 85
2, 51300, Note_on_c, 0, 64, 85
2, 51310, Note_on_c, 0, 65, 0
2, 51329, Note_on_c, 0, 64, 0
2, 51330, Note_on_c, 0, 62, 76
2, 51358, Note_on_c, 0, 65, 0
2, 51360, Note_on_c, 0, 64, 89
2, 51360, Note_on_c, 0, 60, 89
2, 51362, Note_on_c, 0, 62, 0
2, 51417, Note_on_c, 0, 64, 0
2, 51419, Note_on_c, 0, 60, 0
2, 51420, Note_on_c, 0, 67, 93
2, 51420, Note_on_c, 0, 64, 89
2, 51448, Note_on_c, 0, 67, 0
2, 51450, Note_on_c, 0, 65, 89
2, 51450, Note_on_c, 0, 62, 89
2, 51453, Note_on_c, 0, 64, 0
2, 51478, Note_on_c, 0, 62, 0
2, 51480, Note_on_c, 0, 65, 0
2, 51480, Note_on_c, 0, 64, 80
2, 51480, Note_on_c, 0, 60, 76
2, 51509, Note_on_c, 0, 64, 0
2, 51510, Note_on_c, 0, 60, 0
2, 51510, Note_on_c, 0, 62, 62
2, 51510, Note_on_c, 0, 58, 64
2, 51536, Note_on_c, 0, 62, 0
2, 51539, Note_on_c, 0, 58, 0
2, 51540, Note_on_c, 0, 60, 76
2, 51540, Note_on_c, 0, 57, 89
2, 51569, Note_on_c, 0, 60, 0
2, 51570, Note_on_c, 0, 57, 0
2, 51570, Note_on_c, 0, 58, 80
2, 51570, Note_on_c, 0, 55, 80
2, 51596, Note_on_c, 0, 58, 0
2, 51600, Note_on_c, 0, 58, 80
2, 51615, Note_on_c, 0, 57, 64
2, 51616, Note_on_c, 0, 58, 0
2, 51628, Note_on_c, 0, 57, 0
2, 51630, Note_on_c, 0, 58, 76
2, 51645, Note_on_c, 0, 57, 76
2, 51646, Note_on_c, 0, 58, 0
2, 51660, Note_on_c, 0, 57, 0
2, 51660, Note_on_c, 0, 58, 85
2, 51660, Note_on_c, 0, 48, 76
2, 51664, Note_on_c, 0, 55, 0
2, 51675, Note_on_c, 0, 58, 0
2, 51675, Note_on_c, 0, 57, 76
2, 51687, Note_on_c, 0, 57, 0
2, 51690, Note_on_c, 0, 58, 76
2, 51705, Note_on_c, 0, 58, 0
2, 51705, Note_on_c, 0, 57, 76
2, 51717, Note_on_c, 0, 48, 0
2, 51720, Note_on_c, 0, 57, 0
2, 51720, Note_on_c, 0, 58, 89
2, 51720, Note_on_c, 0, 53, 93
2, 51734, Note_on_c, 0, 58, 0
2, 51735, Note_on_c, 0, 57, 85
2, 51747, Note_on_c, 0, 57, 0
2, 51750, Note_on_c, 0, 58, 89
2, 51762, Note_on_c, 0, 58, 0
2, 51765, Note_on_c, 0, 57, 80
2, 51780, Note_on_c, 0, 57, 0
2, 51780, Note_on_c, 0, 55, 89
2, 51809, Note_on_c, 0, 55, 0
2, 51810, Note_on_c, 0, 57, 80
2, 51836, Note_on_c, 0, 57, 0
2, 51836, Note_on_c, 0, 53, 0
2, 51840, Note_on_c, 0, 55, 85
2, 51840, Note_on_c, 0, 52, 89
2, 51900, Note_on_c, 0, 52, 0
2, 51900, Note_on_c, 0, 67, 93
2, 51928, Note_on_c, 0, 67, 0
2, 51930, Note_on_c, 0, 65, 89
2, 51959, Note_on_c, 0, 55, 0
2, 51960, Note_on_c, 0, 64, 76
2, 51962, Note_on_c, 0, 65, 0
2, 51990, Note_on_c, 0, 64, 0
2, 51990, Note_on_c, 0, 62, 80
2, 52018, Note_on_c, 0, 62, 0
2, 52020, Note_on_c, 0, 60, 64
2, 52050, Note_on_c, 0, 58, 72
2, 52052, Note_on_c, 0, 60, 0
2, 52074, Note_on_c, 0, 58, 0
2, 52080, Note_on_c, 0, 58, 89
2, 52095, Note_on_c, 0, 57, 80
2, 52096, Note_on_c, 0, 58, 0
2, 52108, Note_on_c, 0, 57, 0
2, 52110, Note_on_c, 0, 60, 93
2, 52110, Note_on_c, 0, 58, 72
2, 52125, Note_on_c, 0, 57, 80
2, 52126, Note_on_c, 0, 58, 0
2, 52138, Note_on_c, 0, 57, 0
2, 52139, Note_on_c, 0, 60, 0
2, 52140, Note_on_c, 0, 62, 89
2, 52140, Note_on_c, 0, 58, 72
2, 52155, Note_on_c, 0, 57, 72
2, 52156, Note_on_c, 0, 58, 0
2, 52167, Note_on_c, 0, 57, 0
2, 52169, Note_on_c, 0, 62, 0
2, 52170, Note_on_c, 0, 64, 93
2, 52170, Note_on_c, 0, 58, 68
2, 52185, Note_on_c, 0, 57, 76
2, 52186, Note_on_c, 0, 58, 0
2, 52198, Note_on_c, 0, 64, 0
2, 52200, Note_on_c, 0, 57, 0
2, 52200, Note_on_c, 0, 65, 89
2, 52200, Note_on_c, 0, 58, 76
2, 52214, Note_on_c, 0, 58, 0
2, 52215, Note_on_c, 0, 57, 80
2, 52229, Note_on_c, 0, 65, 0
2, 52230, Note_on_c, 0, 67, 89
2, 52230, Note_on_c, 0, 58, 72
2, 52231, Note_on_c, 0, 57, 0
2, 52245, Note_on_c, 0, 58, 0
2, 52245, Note_on_c, 0, 57, 64
2, 52256, Note_on_c, 0, 57, 0
2, 52260, Note_on_c, 0, 67, 0
2, 52260, Note_on_c, 0, 69, 85
2, 52260, Note_on_c, 0, 55, 98
2, 52289, Note_on_c, 0, 69, 0
2, 52290, Note_on_c, 0, 71, 89
2, 52290, Note_on_c, 0, 57, 85
2, 52291, Note_on_c, 0, 55, 0
2, 52319, Note_on_c, 0, 57, 0
2, 52320, Note_on_c, 0, 72, 80
2, 52320, Note_on_c, 0, 55, 89
2, 52321, Note_on_c, 0, 71, 0
2, 52432, Note_on_c, 0, 55, 0
2, 52442, Note_on_c, 0, 72, 0
2, 52800, Note_on_c, 0, 57, 85
2, 52827, Note_on_c, 0, 57, 0
2, 52830, Note_on_c, 0, 58, 76
2, 52860, Note_on_c, 0, 57, 76
2, 52862, Note_on_c, 0, 58, 0
2, 52889, Note_on_c, 0, 57, 0
2, 52890, Note_on_c, 0, 58, 64
2, 52920, Note_on_c, 0, 58, 0
2, 52920, Note_on_c, 0, 60, 76
2, 52948, Note_on_c, 0, 60, 0
2, 52950, Note_on_c, 0, 58, 68
2, 52980, Note_on_c, 0, 58, 0
2, 52980, Note_on_c, 0, 64, 89
2, 52980, Note_on_c, 0, 60, 85
2, 53010, Note_on_c, 0, 60, 0
2, 53010, Note_on_c, 0, 58, 89
2, 53038, Note_on_c, 0, 64, 0
2, 53040, Note_on_c, 0, 58, 0
2, 53040, Note_on_c, 0, 65, 85
2, 53040, Note_on_c, 0, 57, 80
2, 53070, Note_on_c, 0, 58, 72
2, 53075, Note_on_c, 0, 57, 0
2, 53092, Note_on_c, 0, 65, 0
2, 53099, Note_on_c, 0, 58, 0
2, 53100, Note_on_c, 0, 60, 80
2, 53100, Note_on_c, 0, 57, 80
2, 53130, Note_on_c, 0, 58, 76
2, 53132, Note_on_c, 0, 57, 0
2, 53158, Note_on_c, 0, 58, 0
2, 53160, Note_on_c, 0, 60, 80
2, 53162, Note_on_c, 0, 60, 0
2, 53190, Note_on_c, 0, 60, 0
2, 53190, Note_on_c, 0, 58, 76
2, 53217, Note_on_c, 0, 58, 0
2, 53220, Note_on_c, 0, 64, 98
2, 53220, Note_on_c, 0, 60, 80
2, 53249, Note_on_c, 0, 60, 0
2, 53250, Note_on_c, 0, 58, 76
2, 53273, Note_on_c, 0, 64, 0
2, 53280, Note_on_c, 0, 65, 89
2, 53280, Note_on_c, 0, 57, 89
2, 53285, Note_on_c, 0, 58, 0
2, 53336, Note_on_c, 0, 65, 0
2, 53340, Note_on_c, 0, 69, 102
2, 53356, Note_on_c, 0, 69, 0
2, 53394, Note_on_c, 0, 57, 0
2, 53400, Note_on_c, 0, 72, 93
2, 53430, Note_on_c, 0, 69, 89
2, 53456, Note_on_c, 0, 69, 0
2, 53460, Note_on_c, 0, 67, 76
2, 53489, Note_on_c, 0, 67, 0
2, 53490, Note_on_c, 0, 65, 72
2, 53519, Note_on_c, 0, 65, 0
2, 53520, Note_on_c, 0, 64, 80
2, 53550, Note_on_c, 0, 65, 76
2, 53551, Note_on_c, 0, 64, 0
2, 53580, Note_on_c, 0, 65, 0
2, 53580, Note_on_c, 0, 64, 76
2, 53610, Note_on_c, 0, 62, 76
2, 53612, Note_on_c, 0, 64, 0
2, 53620, Note_on_c, 0, 72, 0
2, 53639, Note_on_c, 0, 62, 0
2, 53640, Note_on_c, 0, 65, 72
2, 53640, Note_on_c, 0, 60, 72
2, 53655, Note_on_c, 0, 65, 0
2, 53655, Note_on_c, 0, 64, 64
2, 53668, Note_on_c, 0, 64, 0
2, 53670, Note_on_c, 0, 60, 0
2, 53670, Note_on_c, 0, 65, 85
2, 53670, Note_on_c, 0, 62, 76
2, 53683, Note_on_c, 0, 65, 0
2, 53685, Note_on_c, 0, 64, 68
2, 53697, Note_on_c, 0, 62, 0
2, 53698, Note_on_c, 0, 64, 0
2, 53700, Note_on_c, 0, 65, 76
2, 53700, Note_on_c, 0, 60, 76
2, 53715, Note_on_c, 0, 65, 0
2, 53715, Note_on_c, 0, 64, 76
2, 53729, Note_on_c, 0, 64, 0
2, 53730, Note_on_c, 0, 62, 64
2, 53730, Note_on_c, 0, 58, 72
2, 53733, Note_on_c, 0, 60, 0
2, 53745, Note_on_c, 0, 62, 0
2, 53745, Note_on_c, 0, 64, 85
2, 53756, Note_on_c, 0, 64, 0
2, 53759, Note_on_c, 0, 58, 0
2, 53760, Note_on_c, 0, 65, 80
2, 53760, Note_on_c, 0, 57, 76
2, 53790, Note_on_c, 0, 58, 80
2, 53791, Note_on_c, 0, 57, 0
2, 53815, Note_on_c, 0, 65, 0
2, 53820, Note_on_c, 0, 60, 93
2, 53820, Note_on_c, 0, 57, 76
2, 53822, Note_on_c, 0, 58, 0
2, 53849, Note_on_c, 0, 57, 0
2, 53850, Note_on_c, 0, 58, 76
2, 53873, Note_on_c, 0, 60, 0
2, 53879, Note_on_c, 0, 58, 0
2, 53880, Note_on_c, 0, 60, 80
2, 53909, Note_on_c, 0, 60, 0
2, 53910, Note_on_c, 0, 58, 76
2, 53939, Note_on_c, 0, 58, 0
2, 53940, Note_on_c, 0, 64, 89
2, 53940, Note_on_c, 0, 60, 76
2, 53970, Note_on_c, 0, 60, 0
2, 53970, Note_on_c, 0, 58, 72
2, 53996, Note_on_c, 0, 64, 0
2, 54000, Note_on_c, 0, 58, 0
2, 54000, Note_on_c, 0, 65, 89
2, 54000, Note_on_c, 0, 57, 68
2, 54030, Note_on_c, 0, 58, 72
2, 54032, Note_on_c, 0, 57, 0
2, 54058, Note_on_c, 0, 65, 0
2, 54060, Note_on_c, 0, 58, 0
2, 54060, Note_on_c, 0, 60, 80
2, 54060, Note_on_c, 0, 57, 80
2, 54088, Note_on_c, 0, 57, 0
2, 54090, Note_on_c, 0, 58, 72
2, 54119, Note_on_c, 0, 58, 0
2, 54120, Note_on_c, 0, 60, 85
2, 54128, Note_on_c, 0, 60, 0
2, 54150, Note_on_c, 0, 60, 0
2, 54150, Note_on_c, 0, 58, 68
2, 54179, Note_on_c, 0, 58, 0
2, 54180, Note_on_c, 0, 64, 93
2, 54180, Note_on_c, 0, 60, 80
2, 54210, Note_on_c, 0, 60, 0
2, 54210, Note_on_c, 0, 58, 80
2, 54235, Note_on_c, 0, 64, 0
2, 54238, Note_on_c, 0, 58, 0
2, 54240, Note_on_c, 0, 65, 80
2, 54240, Note_on_c, 0, 57, 89
2, 54299, Note_on_c, 0, 65, 0
2, 54300, Note_on_c, 0, 69, 107
2, 54313, Note_on_c, 0, 69, 0
2, 54360, Note_on_c, 0, 72, 93
2, 54364, Note_on_c, 0, 57, 0
2, 54390, Note_on_c, 0, 69, 89
2, 54419, Note_on_c, 0, 69, 0
2, 54420, Note_on_c, 0, 67, 89
2, 54450, Note_on_c, 0, 67, 0
2, 54450, Note_on_c, 0, 65, 68
2, 54480, Note_on_c, 0, 64, 89
2, 54481, Note_on_c, 0, 65, 0
2, 54508, Note_on_c, 0, 64, 0
2, 54510, Note_on_c, 0, 65, 80
2, 54540, Note_on_c, 0, 65, 0
2, 54540, Note_on_c, 0, 64, 80
2, 54570, Note_on_c, 0, 64, 0
2, 54570, Note_on_c, 0, 62, 76
2, 54577, Note_on_c, 0, 72, 0
2, 54599, Note_on_c, 0, 62, 0
2, 54600, Note_on_c, 0, 65, 89
2, 54600, Note_on_c, 0, 60, 76
2, 54614, Note_on_c, 0, 65, 0
2, 54615, Note_on_c, 0, 64, 76
2, 54630, Note_on_c, 0, 64, 0
2, 54630, Note_on_c, 0, 65, 80
2, 54630, Note_on_c, 0, 62, 68
2, 54633, Note_on_c, 0, 60, 0
2, 54642, Note_on_c, 0, 65, 0
2, 54645, Note_on_c, 0, 64, 68
2, 54659, Note_on_c, 0, 64, 0
2, 54659, Note_on_c, 0, 62, 0
2, 54660, Note_on_c, 0, 65, 76
2, 54660, Note_on_c, 0, 60, 80
2, 54674, Note_on_c, 0, 65, 0
2, 54675, Note_on_c, 0, 64, 64
2, 54689, Note_on_c, 0, 60, 0
2, 54690, Note_on_c, 0, 64, 0
2, 54690, Note_on_c, 0, 62, 76
2, 54690, Note_on_c, 0, 58, 76
2, 54705, Note_on_c, 0, 64, 85
2, 54706, Note_on_c, 0, 62, 0
2, 54717, Note_on_c, 0, 64, 0
2, 54720, Note_on_c, 0, 58, 0
2, 54720, Note_on_c, 0, 65, 89
2, 54720, Note_on_c, 0, 57, 76
2, 54750, Note_on_c, 0, 57, 0
2, 54750, Note_on_c, 0, 58, 76
2, 54779, Note_on_c, 0, 58, 0
2, 54780, Note_on_c, 0, 57, 76
2, 54809, Note_on_c, 0, 57, 0
2, 54810, Note_on_c, 0, 58, 76
2, 54840, Note_on_c, 0, 58, 0
2, 54840, Note_on_c, 0, 60, 76
2, 54868, Note_on_c, 0, 60, 0
2, 54870, Note_on_c, 0, 58, 72
2, 54899, Note_on_c, 0, 58, 0
2, 54900, Note_on_c, 0, 60, 72
2, 54930, Note_on_c, 0, 60, 0
2, 54930, Note_on_c, 0, 57, 76
2, 54954, Note_on_c, 0, 65, 0
2, 54960, Note_on_c, 0, 64, 93
2, 54960, Note_on_c, 0, 58, 76
2, 54961, Note_on_c, 0, 57, 0
2, 54988, Note_on_c, 0, 58, 0
2, 54990, Note_on_c, 0, 60, 80
2, 55020, Note_on_c, 0, 58, 76
2, 55024, Note_on_c, 0, 60, 0
2, 55049, Note_on_c, 0, 58, 0
2, 55050, Note_on_c, 0, 60, 80
2, 55080, Note_on_c, 0, 61, 80
2, 55081, Note_on_c, 0, 60, 0
2, 55109, Note_on_c, 0, 61, 0
2, 55110, Note_on_c, 0, 60, 62
2, 55140, Note_on_c, 0, 61, 76
2, 55142, Note_on_c, 0, 60, 0
2, 55170, Note_on_c, 0, 58, 80
2, 55173, Note_on_c, 0, 61, 0
2, 55181, Note_on_c, 0, 64, 0
2, 55197, Note_on_c, 0, 58, 0
2, 55200, Note_on_c, 0, 65, 89
2, 55200, Note_on_c, 0, 60, 89
2, 55215, Note_on_c, 0, 65, 0
2, 55215, Note_on_c, 0, 63, 85
2, 55228, Note_on_c, 0, 63, 0
2, 55230, Note_on_c, 0, 65, 55
2, 55230, Note_on_c, 0, 58, 76
2, 55231, Note_on_c, 0, 60, 0
2, 55244, Note_on_c, 0, 65, 0
2, 55245, Note_on_c, 0, 63, 68
2, 55258, Note_on_c, 0, 63, 0
2, 55259, Note_on_c, 0, 58, 0
2, 55260, Note_on_c, 0, 65, 76
2, 55260, Note_on_c, 0, 60, 80
2, 55275, Note_on_c, 0, 65, 0
2, 55275, Note_on_c, 0, 63, 64
2, 55289, Note_on_c, 0, 63, 0
2, 55290, Note_on_c, 0, 60, 0
2, 55290, Note_on_c, 0, 65, 64
2, 55290, Note_on_c, 0, 58, 72
2, 55303, Note_on_c, 0, 65, 0
2, 55305, Note_on_c, 0, 63, 76
2, 55318, Note_on_c, 0, 63, 0
2, 55320, Note_on_c, 0, 58, 0
2, 55320, Note_on_c, 0, 65, 80
2, 55320, Note_on_c, 0, 57, 80
2, 55335, Note_on_c, 0, 65, 0
2, 55335, Note_on_c, 0, 63, 68
2, 55349, Note_on_c, 0, 63, 0
2, 55349, Note_on_c, 0, 57, 0
2, 55350, Note_on_c, 0, 65, 76
2, 55350, Note_on_c, 0, 58, 68
2, 55364, Note_on_c, 0, 65, 0
2, 55365, Note_on_c, 0, 63, 76
2, 55380, Note_on_c, 0, 63, 0
2, 55380, Note_on_c, 0, 62, 89
2, 55380, Note_on_c, 0, 57, 72
2, 55382, Note_on_c, 0, 58, 0
2, 55408, Note_on_c, 0, 62, 0
2, 55410, Note_on_c, 0, 63, 76
2, 55410, Note_on_c, 0, 60, 80
2, 55411, Note_on_c, 0, 57, 0
2, 55438, Note_on_c, 0, 63, 0
2, 55440, Note_on_c, 0, 62, 80
2, 55440, Note_on_c, 0, 58, 68
2, 55441, Note_on_c, 0, 60, 0
2, 55469, Note_on_c, 0, 58, 0
2, 55469, Note_on_c, 0, 62, 0
2, 55470, Note_on_c, 0, 63, 80
2, 55470, Note_on_c, 0, 60, 80
2, 55500, Note_on_c, 0, 63, 0
2, 55500, Note_on_c, 0, 62, 72
2, 55500, Note_on_c, 0, 58, 76
2, 55502, Note_on_c, 0, 60, 0
2, 55529, Note_on_c, 0, 62, 0
2, 55530, Note_on_c, 0, 63, 76
2, 55530, Note_on_c, 0, 60, 85
2, 55531, Note_on_c, 0, 58, 0
2, 55558, Note_on_c, 0, 63, 0
2, 55560, Note_on_c, 0, 65, 89
2, 55560, Note_on_c, 0, 62, 89
2, 55561, Note_on_c, 0, 60, 0
2, 55587, Note_on_c, 0, 65, 0
2, 55590, Note_on_c, 0, 63, 72
2, 55590, Note_on_c, 0, 60, 76
2, 55591, Note_on_c, 0, 62, 0
2, 55617, Note_on_c, 0, 63, 0
2, 55620, Note_on_c, 0, 65, 89
2, 55620, Note_on_c, 0, 62, 80
2, 55621, Note_on_c, 0, 60, 0
2, 55647, Note_on_c, 0, 65, 0
2, 55650, Note_on_c, 0, 62, 72
2, 55650, Note_on_c, 0, 58, 72
2, 55653, Note_on_c, 0, 62, 0
2, 55679, Note_on_c, 0, 62, 0
2, 55680, Note_on_c, 0, 72, 80
2, 55680, Note_on_c, 0, 60, 80
2, 55681, Note_on_c, 0, 58, 0
2, 55709, Note_on_c, 0, 60, 0
2, 55710, Note_on_c, 0, 62, 72
2, 55738, Note_on_c, 0, 62, 0
2, 55740, Note_on_c, 0, 60, 72
2, 55770, Note_on_c, 0, 60, 0
2, 55770, Note_on_c, 0, 62, 85
2, 55799, Note_on_c, 0, 62, 0
2, 55800, Note_on_c, 0, 64, 85
2, 55830, Note_on_c, 0, 64, 0
2, 55830, Note_on_c, 0, 62, 80
2, 55859, Note_on_c, 0, 62, 0
2, 55860, Note_on_c, 0, 64, 89
2, 55890, Note_on_c, 0, 64, 0
2, 55890, Note_on_c, 0, 60, 76
2, 55920, Note_on_c, 0, 71, 85
2, 55920, Note_on_c, 0, 62, 89
2, 55921, Note_on_c, 0, 60, 0
2, 55949, Note_on_c, 0, 62, 0
2, 55950, Note_on_c, 0, 64, 80
2, 55980, Note_on_c, 0, 62, 76
2, 55981, Note_on_c, 0, 64, 0
2, 56009, Note_on_c, 0, 62, 0
2, 56010, Note_on_c, 0, 64, 76
2, 56040, Note_on_c, 0, 65, 89
2, 56041, Note_on_c, 0, 64, 0
2, 56069, Note_on_c, 0, 65, 0
2, 56070, Note_on_c, 0, 64, 80
2, 56100, Note_on_c, 0, 64, 0
2, 56100, Note_on_c, 0, 65, 89
2, 56130, Note_on_c, 0, 62, 76
2, 56134, Note_on_c, 0, 65, 0
2, 56147, Note_on_c, 0, 71, 0
2, 56160, Note_on_c, 0, 62, 0
2, 56160, Note_on_c, 0, 70, 85
2, 56160, Note_on_c, 0, 64, 93
2, 56189, Note_on_c, 0, 64, 0
2, 56190, Note_on_c, 0, 65, 64
2, 56220, Note_on_c, 0, 64, 76
2, 56221, Note_on_c, 0, 65, 0
2, 56248, Note_on_c, 0, 64, 0
2, 56250, Note_on_c, 0, 65, 85
2, 56280, Note_on_c, 0, 65, 0
2, 56280, Note_on_c, 0, 67, 89
2, 56309, Note_on_c, 0, 67, 0
2, 56310, Note_on_c, 0, 65, 80
2, 56331, Note_on_c, 0, 70, 0
2, 56339, Note_on_c, 0, 65, 0
2, 56340, Note_on_c, 0, 69, 76
2, 56340, Note_on_c, 0, 67, 89
2, 56370, Note_on_c, 0, 69, 0
2, 56370, Note_on_c, 0, 70, 72
2, 56370, Note_on_c, 0, 64, 85
2, 56371, Note_on_c, 0, 67, 0
2, 56400, Note_on_c, 0, 64, 0
2, 56400, Note_on_c, 0, 68, 76
2, 56400, Note_on_c, 0, 65, 85
2, 56402, Note_on_c, 0, 70, 0
2, 56429, Note_on_c, 0, 65, 0
2, 56430, Note_on_c, 0, 67, 89
2, 56460, Note_on_c, 0, 67, 0
2, 56460, Note_on_c, 0, 65, 89
2, 56488, Note_on_c, 0, 65, 0
2, 56490, Note_on_c, 0, 67, 93
2, 56514, Note_on_c, 0, 68, 0
2, 56520, Note_on_c, 0, 68, 76
2, 56521, Note_on_c, 0, 67, 0
2, 56549, Note_on_c, 0, 68, 0
2, 56550, Note_on_c, 0, 67, 89
2, 56580, Note_on_c, 0, 68, 80
2, 56582, Note_on_c, 0, 67, 0
2, 56599, Note_on_c, 0, 72, 0
2, 56610, Note_on_c, 0, 65, 76
2, 56611, Note_on_c, 0, 68, 0
2, 56637, Note_on_c, 0, 65, 0
2, 56640, Note_on_c, 0, 68, 76
2, 56640, Note_on_c, 0, 66, 68
2, 56640, Note_on_c, 0, 60, 68
2, 56668, Note_on_c, 0, 60, 0
2, 56670, Note_on_c, 0, 61, 80
2, 56700, Note_on_c, 0, 61, 0
2, 56700, Note_on_c, 0, 60, 80
2, 56729, Note_on_c, 0, 60, 0
2, 56730, Note_on_c, 0, 61, 89
2, 56759, Note_on_c, 0, 61, 0
2, 56760, Note_on_c, 0, 63, 85
2, 56789, Note_on_c, 0, 63, 0
2, 56790, Note_on_c, 0, 61, 76
2, 56819, Note_on_c, 0, 61, 0
2, 56820, Note_on_c, 0, 63, 76
2, 56850, Note_on_c, 0, 60, 80
2, 56854, Note_on_c, 0, 63, 0
2, 56866, Note_on_c, 0, 66, 0
2, 56879, Note_on_c, 0, 60, 0
2, 56880, Note_on_c, 0, 65, 80
2, 56880, Note_on_c, 0, 61, 76
2, 56910, Note_on_c, 0, 61, 0
2, 56910, Note_on_c, 0, 65, 80
2, 56940, Note_on_c, 0, 63, 80
2, 56943, Note_on_c, 0, 65, 0
2, 56947, Note_on_c, 0, 65, 0
2, 56970, Note_on_c, 0, 63, 0
2, 56970, Note_on_c, 0, 61, 89
2, 56999, Note_on_c, 0, 61, 0
2, 57000, Note_on_c, 0, 60, 89
2, 57029, Note_on_c, 0, 60, 0
2, 57030, Note_on_c, 0, 63, 72
2, 57060, Note_on_c, 0, 61, 85
2, 57063, Note_on_c, 0, 63, 0
2, 57088, Note_on_c, 0, 61, 0
2, 57090, Note_on_c, 0, 60, 76
2, 57120, Note_on_c, 0, 61, 89
2, 57122, Note_on_c, 0, 60, 0
2, 57149, Note_on_c, 0, 61, 0
2, 57150, Note_on_c, 0, 65, 89
2, 57156, Note_on_c, 0, 68, 0
2, 57179, Note_on_c, 0, 65, 0
2, 57180, Note_on_c, 0, 69, 93
2, 57180, Note_on_c, 0, 63, 80
2, 57210, Note_on_c, 0, 65, 85
2, 57212, Note_on_c, 0, 63, 0
2, 57239, Note_on_c, 0, 65, 0
2, 57240, Note_on_c, 0, 69, 0
2, 57240, Note_on_c, 0, 70, 85
2, 57240, Note_on_c, 0, 62, 89
2, 57270, Note_on_c, 0, 62, 0
2, 57270, Note_on_c, 0, 65, 85
2, 57300, Note_on_c, 0, 63, 64
2, 57304, Note_on_c, 0, 65, 0
2, 57330, Note_on_c, 0, 63, 0
2, 57330, Note_on_c, 0, 62, 76
2, 57360, Note_on_c, 0, 63, 85
2, 57363, Note_on_c, 0, 62, 0
2, 57390, Note_on_c, 0, 67, 89
2, 57392, Note_on_c, 0, 63, 0
2, 57415, Note_on_c, 0, 67, 0
2, 57420, Note_on_c, 0, 65, 80
2, 57450, Note_on_c, 0, 65, 0
2, 57450, Note_on_c, 0, 63, 80
2, 57480, Note_on_c, 0, 62, 76
2, 57482, Note_on_c, 0, 63, 0
2, 57509, Note_on_c, 0, 62, 0
2, 57510, Note_on_c, 0, 65, 89
2, 57540, Note_on_c, 0, 63, 64
2, 57541, Note_on_c, 0, 65, 0
2, 57570, Note_on_c, 0, 62, 89
2, 57571, Note_on_c, 0, 63, 0
2, 57599, Note_on_c, 0, 62, 0
2, 57600, Note_on_c, 0, 63, 93
2, 57629, Note_on_c, 0, 63, 0
2, 57630, Note_on_c, 0, 67, 89
2, 57638, Note_on_c, 0, 70, 0
2, 57657, Note_on_c, 0, 67, 0
2, 57660, Note_on_c, 0, 71, 89
2, 57660, Note_on_c, 0, 65, 76
2, 57690, Note_on_c, 0, 67, 89
2, 57693, Note_on_c, 0, 65, 0
2, 57719, Note_on_c, 0, 67, 0
2, 57720, Note_on_c, 0, 72, 89
2, 57720, Note_on_c, 0, 64, 93
2, 57722, Note_on_c, 0, 71, 0
2, 57750, Note_on_c, 0, 67, 93
2, 57751, Note_on_c, 0, 64, 0
2, 57780, Note_on_c, 0, 65, 89
2, 57782, Note_on_c, 0, 67, 0
2, 57810, Note_on_c, 0, 65, 0
2, 57810, Note_on_c, 0, 64, 80
2, 57840, Note_on_c, 0, 65, 93
2, 57842, Note_on_c, 0, 64, 0
2, 57870, Note_on_c, 0, 68, 93
2, 57871, Note_on_c, 0, 65, 0
2, 57900, Note_on_c, 0, 67, 80
2, 57904, Note_on_c, 0, 68, 0
2, 57930, Note_on_c, 0, 65, 89
2, 57931, Note_on_c, 0, 67, 0
2, 57960, Note_on_c, 0, 64, 93
2, 57961, Note_on_c, 0, 65, 0
2, 57990, Note_on_c, 0, 67, 89
2, 57992, Note_on_c, 0, 64, 0
2, 58020, Note_on_c, 0, 65, 93
2, 58021, Note_on_c, 0, 67, 0
2, 58050, Note_on_c, 0, 64, 80
2, 58051, Note_on_c, 0, 65, 0
2, 58078, Note_on_c, 0, 64, 0
2, 58080, Note_on_c, 0, 65, 93
2, 58093, Note_on_c, 0, 72, 0
2, 58110, Note_on_c, 0, 65, 80
2, 58140, Note_on_c, 0, 65, 0
2, 58140, Note_on_c, 0, 67, 89
2, 58142, Note_on_c, 0, 65, 0
2, 58169, Note_on_c, 0, 67, 0
2, 58170, Note_on_c, 0, 65, 72
2, 58199, Note_on_c, 0, 65, 0
2, 58200, Note_on_c, 0, 69, 89
2, 58200, Note_on_c, 0, 60, 98
2, 58200, Note_on_c, 0, 57, 93
2, 58230, Note_on_c, 0, 65, 76
2, 58233, Note_on_c, 0, 69, 0
2, 58256, Note_on_c, 0, 65, 0
2, 58260, Note_on_c, 0, 57, 0
2, 58260, Note_on_c, 0, 67, 89
2, 58261, Note_on_c, 0, 60, 0
2, 58290, Note_on_c, 0, 65, 80
2, 58291, Note_on_c, 0, 67, 0
2, 58320, Note_on_c, 0, 65, 0
2, 58320, Note_on_c, 0, 70, 93
2, 58320, Note_on_c, 0, 62, 98
2, 58320, Note_on_c, 0, 58, 85
2, 58350, Note_on_c, 0, 65, 68
2, 58357, Note_on_c, 0, 70, 0
2, 58377, Note_on_c, 0, 65, 0
2, 58379, Note_on_c, 0, 62, 0
2, 58380, Note_on_c, 0, 67, 76
2, 58383, Note_on_c, 0, 58, 0
2, 58410, Note_on_c, 0, 65, 76
2, 58411, Note_on_c, 0, 67, 0
2, 58439, Note_on_c, 0, 65, 0
2, 58440, Note_on_c, 0, 71, 89
2, 58440, Note_on_c, 0, 65, 89
2, 58440, Note_on_c, 0, 59, 89
2, 58470, Note_on_c, 0, 65, 76
2, 58473, Note_on_c, 0, 71, 0
2, 58499, Note_on_c, 0, 65, 0
2, 58500, Note_on_c, 0, 67, 89
2, 58503, Note_on_c, 0, 65, 0
2, 58506, Note_on_c, 0, 59, 0
2, 58530, Note_on_c, 0, 65, 76
2, 58534, Note_on_c, 0, 67, 0
2, 58559, Note_on_c, 0, 65, 0
2, 58560, Note_on_c, 0, 72, 93
2, 58560, Note_on_c, 0, 57, 93
2, 58560, Note_on_c, 0, 53, 80
2, 58560, Note_on_c, 0, 60, 89
2, 58560, Note_on_c, 0, 65, 85
2, 58674, Note_on_c, 0, 72, 0
2, 58680, Note_on_c, 0, 65, 0
2, 58681, Note_on_c, 0, 60, 0
2, 58682, Note_on_c, 0, 57, 0
2, 58684, Note_on_c, 0, 53, 0
2, 58710, Note_on_c, 0, 57, 93
2, 58710, Note_on_c, 0, 53, 85
2, 58739, Note_on_c, 0, 53, 0
2, 58740, Note_on_c, 0, 58, 80
2, 58740, Note_on_c, 0, 55, 89
2, 58741, Note_on_c, 0, 57, 0
2, 58768, Note_on_c, 0, 58, 0
2, 58770, Note_on_c, 0, 55, 0
2, 58770, Note_on_c, 0, 60, 85
2, 58770, Note_on_c, 0, 57, 57
2, 58800, Note_on_c, 0, 62, 76
2, 58800, Note_on_c, 0, 58, 89
2, 58802, Note_on_c, 0, 57, 0
2, 58809, Note_on_c, 0, 60, 0
2, 58826, Note_on_c, 0, 58, 0
2, 58829, Note_on_c, 0, 62, 0
2, 58830, Note_on_c, 0, 64, 80
2, 58830, Note_on_c, 0, 60, 89
2, 58856, Note_on_c, 0, 64, 0
2, 58858, Note_on_c, 0, 60, 0
2, 58860, Note_on_c, 0, 65, 76
2, 58860, Note_on_c, 0, 62, 76
2, 58889, Note_on_c, 0, 65, 0
2, 58890, Note_on_c, 0, 67, 80
2, 58890, Note_on_c, 0, 64, 80
2, 58896, Note_on_c, 0, 62, 0
2, 58919, Note_on_c, 0, 64, 0
2, 58919, Note_on_c, 0, 67, 0
2, 58920, Note_on_c, 0, 70, 76
2, 58920, Note_on_c, 0, 67, 80
2, 58931, Note_on_c, 0, 70, 0
2, 58935, Note_on_c, 0, 69, 62
2, 58935, Note_on_c, 0, 65, 76
2, 58936, Note_on_c, 0, 67, 0
2, 58950, Note_on_c, 0, 69, 0
2, 58950, Note_on_c, 0, 67, 93
2, 58950, Note_on_c, 0, 64, 89
2, 58954, Note_on_c, 0, 65, 0
2, 58978, Note_on_c, 0, 64, 0
2, 58980, Note_on_c, 0, 67, 0
2, 58980, Note_on_c, 0, 69, 93
2, 58980, Note_on_c, 0, 65, 93
2, 59010, Note_on_c, 0, 70, 89
2, 59010, Note_on_c, 0, 67, 85
2, 59011, Note_on_c, 0, 65, 0
2, 59012, Note_on_c, 0, 69, 0
2, 59037, Note_on_c, 0, 67, 0
2, 59039, Note_on_c, 0, 70, 0
2, 59040, Note_on_c, 0, 72, 93
2, 59040, Note_on_c, 0, 69, 62
2, 59153, Note_on_c, 0, 69, 0
2, 59153, Note_on_c, 0, 72, 0
2, 59190, Note_on_c, 0, 57, 102
2, 59190, Note_on_c, 0, 53, 93
2, 59219, Note_on_c, 0, 53, 0
2, 59219, Note_on_c, 0, 57, 0
2, 59220, Note_on_c, 0, 58, 76
2, 59220, Note_on_c, 0, 55, 93
2, 59246, Note_on_c, 0, 58, 0
2, 59250, Note_on_c, 0, 60, 93
2, 59250, Note_on_c, 0, 57, 85
2, 59251, Note_on_c, 0, 55, 0
2, 59279, Note_on_c, 0, 60, 0
2, 59280, Note_on_c, 0, 62, 89
2, 59280, Note_on_c, 0, 58, 89
2, 59281, Note_on_c, 0, 57, 0
2, 59306, Note_on_c, 0, 58, 0
2, 59309, Note_on_c, 0, 62, 0
2, 59310, Note_on_c, 0, 64, 89
2, 59310, Note_on_c, 0, 60, 89
2, 59337, Note_on_c, 0, 64, 0
2, 59339, Note_on_c, 0, 60, 0
2, 59340, Note_on_c, 0, 65, 76
2, 59340, Note_on_c, 0, 62, 80
2, 59367, Note_on_c, 0, 65, 0
2, 59369, Note_on_c, 0, 62, 0
2, 59370, Note_on_c, 0, 67, 68
2, 59370, Note_on_c, 0, 64, 89
2, 59397, Note_on_c, 0, 64, 0
2, 59399, Note_on_c, 0, 67, 0
2, 59400, Note_on_c, 0, 69, 89
2, 59400, Note_on_c, 0, 65, 72
2, 59430, Note_on_c, 0, 70, 76
2, 59430, Note_on_c, 0, 67, 89
2, 59432, Note_on_c, 0, 65, 0
2, 59433, Note_on_c, 0, 69, 0
2, 59458, Note_on_c, 0, 70, 0
2, 59460, Note_on_c, 0, 71, 76
2, 59460, Note_on_c, 0, 68, 85
2, 59461, Note_on_c, 0, 67, 0
2, 59490, Note_on_c, 0, 71, 0
2, 59490, Note_on_c, 0, 72, 89
2, 59490, Note_on_c, 0, 69, 76
2, 59491, Note_on_c, 0, 68, 0
2, 59519, Note_on_c, 0, 69, 0
2, 59519, Note_on_c, 0, 72, 0
2, 59520, Note_on_c, 0, 74, 98
2, 59520, Note_on_c, 0, 68, 85
2, 59520, Note_on_c, 0, 65, 89
2, 59752, Note_on_c, 0, 74, 0
2, 59760, Note_on_c, 0, 72, 80
2, 59869, Note_on_c, 0, 72, 0
2, 59880, Note_on_c, 0, 71, 93
2, 59973, Note_on_c, 0, 68, 0
2, 59994, Note_on_c, 0, 71, 0
2, 60000, Note_on_c, 0, 72, 80
2, 60000, Note_on_c, 0, 69, 89
2, 60000, Note_on_c, 0, 69, 93
2, 60238, Note_on_c, 0, 69, 0
2, 60288, Note_on_c, 0, 69, 0
2, 60292, Note_on_c, 0, 72, 0
2, 60300, Note_on_c, 0, 71, 80
2, 60300, Note_on_c, 0, 68, 76
2, 60352, Note_on_c, 0, 68, 0
2, 60360, Note_on_c, 0, 70, 85
2, 60360, Note_on_c, 0, 67, 89
2, 60362, Note_on_c, 0, 71, 0
2, 60373, Note_on_c, 0, 65, 0
2, 60416, Note_on_c, 0, 67, 0
2, 60420, Note_on_c, 0, 69, 89
2, 60420, Note_on_c, 0, 65, 98
2, 60421, Note_on_c, 0, 70, 0
2, 60468, Note_on_c, 0, 65, 0
2, 60468, Note_on_c, 0, 69, 0
2, 60480, Note_on_c, 0, 69, 89
2, 60480, Note_on_c, 0, 65, 89
2, 60495, Note_on_c, 0, 67, 72
2, 60495, Note_on_c, 0, 64, 89
2, 60497, Note_on_c, 0, 65, 0
2, 60500, Note_on_c, 0, 69, 0
2, 60508, Note_on_c, 0, 67, 0
2, 60509, Note_on_c, 0, 64, 0
2, 60510, Note_on_c, 0, 69, 80
2, 60510, Note_on_c, 0, 65, 85
2, 60525, Note_on_c, 0, 65, 0
2, 60525, Note_on_c, 0, 67, 76
2, 60525, Note_on_c, 0, 64, 76
2, 60527, Note_on_c, 0, 69, 0
2, 60537, Note_on_c, 0, 67, 0
2, 60538, Note_on_c, 0, 64, 0
2, 60540, Note_on_c, 0, 69, 76
2, 60540, Note_on_c, 0, 65, 89
2, 60554, Note_on_c, 0, 65, 0
2, 60554, Note_on_c, 0, 69, 0
2, 60555, Note_on_c, 0, 67, 68
2, 60555, Note_on_c, 0, 64, 64
2, 60568, Note_on_c, 0, 64, 0
2, 60568, Note_on_c, 0, 67, 0
2, 60570, Note_on_c, 0, 69, 72
2, 60570, Note_on_c, 0, 65, 89
2, 60584, Note_on_c, 0, 65, 0
2, 60585, Note_on_c, 0, 69, 0
2, 60585, Note_on_c, 0, 67, 76
2, 60585, Note_on_c, 0, 64, 80
2, 60598, Note_on_c, 0, 67, 0
2, 60600, Note_on_c, 0, 64, 0
2, 60600, Note_on_c, 0, 69, 76
2, 60600, Note_on_c, 0, 65, 89
2, 60614, Note_on_c, 0, 65, 0
2, 60614, Note_on_c, 0, 69, 0
2, 60615, Note_on_c, 0, 67, 72
2, 60615, Note_on_c, 0, 64, 76
2, 60630, Note_on_c, 0, 67, 0
2, 60630, Note_on_c, 0, 69, 62
2, 60630, Note_on_c, 0, 65, 85
2, 60631, Note_on_c, 0, 64, 0
2, 60644, Note_on_c, 0, 69, 0
2, 60645, Note_on_c, 0, 65, 0
2, 60645, Note_on_c, 0, 67, 64
2, 60645, Note_on_c, 0, 64, 76
2, 60659, Note_on_c, 0, 64, 0
2, 60659, Note_on_c, 0, 67, 0
2, 60660, Note_on_c, 0, 69, 72
2, 60660, Note_on_c, 0, 65, 85
2, 60674, Note_on_c, 0, 69, 0
2, 60675, Note_on_c, 0, 65, 0
2, 60675, Note_on_c, 0, 67, 76
2, 60675, Note_on_c, 0, 64, 76
2, 60690, Note_on_c, 0, 64, 0
2, 60690, Note_on_c, 0, 67, 0
2, 60690, Note_on_c, 0, 69, 62
2, 60690, Note_on_c, 0, 65, 85
2, 60705, Note_on_c, 0, 69, 0
2, 60705, Note_on_c, 0, 67, 72
2, 60705, Note_on_c, 0, 64, 80
2, 60706, Note_on_c, 0, 65, 0
2, 60720, Note_on_c, 0, 64, 0
2, 60720, Note_on_c, 0, 67, 0
2, 60720, Note_on_c, 0, 69, 76
2, 60720, Note_on_c, 0, 65, 85
2, 60734, Note_on_c, 0, 69, 0
2, 60735, Note_on_c, 0, 67, 80
2, 60735, Note_on_c, 0, 64, 80
2, 60737, Note_on_c, 0, 65, 0
2, 60749, Note_on_c, 0, 64, 0
2, 60750, Note_on_c, 0, 67, 0
2, 60750, Note_on_c, 0, 69, 60
2, 60750, Note_on_c, 0, 65, 89
2, 60765, Note_on_c, 0, 67, 72
2, 60765, Note_on_c, 0, 64, 85
2, 60766, Note_on_c, 0, 65, 0
2, 60766, Note_on_c, 0, 69, 0
2, 60780, Note_on_c, 0, 69, 76
2, 60780, Note_on_c, 0, 65, 89
2, 60781, Note_on_c, 0, 67, 0
2, 60782, Note_on_c, 0, 64, 0
2, 60795, Note_on_c, 0, 67, 60
2, 60795, Note_on_c, 0, 64, 68
2, 60796, Note_on_c, 0, 69, 0
2, 60797, Note_on_c, 0, 65, 0
2, 60809, Note_on_c, 0, 64, 0
2, 60810, Note_on_c, 0, 69, 72
2, 60810, Note_on_c, 0, 65, 89
2, 60811, Note_on_c, 0, 67, 0
2, 60825, Note_on_c, 0, 65, 0
2, 60825, Note_on_c, 0, 67, 72
2, 60825, Note_on_c, 0, 64, 72
2, 60827, Note_on_c, 0, 69, 0
2, 60840, Note_on_c, 0, 69, 76
2, 60840, Note_on_c, 0, 65, 89
2, 60841, Note_on_c, 0, 64, 0
2, 60841, Note_on_c, 0, 67, 0
2, 60855, Note_on_c, 0, 67, 80
2, 60855, Note_on_c, 0, 64, 80
2, 60856, Note_on_c, 0, 65, 0
2, 60858, Note_on_c, 0, 69, 0
2, 60867, Note_on_c, 0, 64, 0
2, 60870, Note_on_c, 0, 69, 85
2, 60870, Note_on_c, 0, 65, 89
2, 60872, Note_on_c, 0, 67, 0
2, 60883, Note_on_c, 0, 65, 0
2, 60884, Note_on_c, 0, 69, 0
2, 60885, Note_on_c, 0, 67, 85
2, 60885, Note_on_c, 0, 64, 72
2, 60899, Note_on_c, 0, 67, 0
2, 60900, Note_on_c, 0, 64, 0
2, 60900, Note_on_c, 0, 69, 85
2, 60900, Note_on_c, 0, 65, 93
2, 60915, Note_on_c, 0, 65, 0
2, 60915, Note_on_c, 0, 69, 0
2, 60915, Note_on_c, 0, 67, 64
2, 60915, Note_on_c, 0, 64, 68
2, 60929, Note_on_c, 0, 67, 0
2, 60930, Note_on_c, 0, 65, 72
2, 60930, Note_on_c, 0, 62, 80
2, 60931, Note_on_c, 0, 64, 0
2, 60945, Note_on_c, 0, 62, 0
2, 60945, Note_on_c, 0, 65, 0
2, 60945, Note_on_c, 0, 67, 89
2, 60945, Note_on_c, 0, 64, 76
2, 60956, Note_on_c, 0, 64, 0
2, 60958, Note_on_c, 0, 67, 0
2, 60960, Note_on_c, 0, 64, 53
2, 60989, Note_on_c, 0, 64, 0
2, 60990, Note_on_c, 0, 65, 89
2, 61020, Note_on_c, 0, 69, 85
2, 61023, Note_on_c, 0, 65, 0
2, 61049, Note_on_c, 0, 69, 0
2, 61050, Note_on_c, 0, 65, 76
2, 61077, Note_on_c, 0, 65, 0
2, 61080, Note_on_c, 0, 61, 76
2, 61107, Note_on_c, 0, 61, 0
2, 61110, Note_on_c, 0, 62, 85
2, 61137, Note_on_c, 0, 62, 0
2, 61140, Note_on_c, 0, 65, 80
2, 61169, Note_on_c, 0, 65, 0
2, 61170, Note_on_c, 0, 62, 80
2, 61198, Note_on_c, 0, 62, 0
2, 61200, Note_on_c, 0, 57, 85
2, 61229, Note_on_c, 0, 57, 0
2, 61230, Note_on_c, 0, 58, 80
2, 61258, Note_on_c, 0, 58, 0
2, 61260, Note_on_c, 0, 62, 76
2, 61290, Note_on_c, 0, 58, 76
2, 61291, Note_on_c, 0, 62, 0
2, 61319, Note_on_c, 0, 58, 0
2, 61320, Note_on_c, 0, 59, 80
2, 61350, Note_on_c, 0, 60, 85
2, 61351, Note_on_c, 0, 59, 0
2, 61379, Note_on_c, 0, 60, 0
2, 61380, Note_on_c, 0, 64, 76
2, 61410, Note_on_c, 0, 60, 76
2, 61411, Note_on_c, 0, 64, 0
2, 61437, Note_on_c, 0, 60, 0
2, 61440, Note_on_c, 0, 65, 89
2, 61440, Note_on_c, 0, 60, 89
2, 61440, Note_on_c, 0, 57, 93
2, 61491, Note_on_c, 0, 60, 0
2, 61494, Note_on_c, 0, 57, 0
2, 61500, Note_on_c, 0, 65, 0
2, 61560, Note_on_c, 0, 69, 89
2, 61560, Note_on_c, 0, 62, 85
2, 61560, Note_on_c, 0, 57, 80
2, 61560, Note_on_c, 0, 65, 80
2, 61615, Note_on_c, 0, 62, 0
2, 61616, Note_on_c, 0, 65, 0
2, 61617, Note_on_c, 0, 57, 0
2, 61624, Note_on_c, 0, 69, 0
2, 61680, Note_on_c, 0, 67, 93
2, 61680, Note_on_c, 0, 55, 80
2, 61680, Note_on_c, 0, 62, 89
2, 61680, Note_on_c, 0, 65, 80
2, 61736, Note_on_c, 0, 62, 0
2, 61738, Note_on_c, 0, 65, 0
2, 61739, Note_on_c, 0, 55, 0
2, 61742, Note_on_c, 0, 67, 0
2, 61800, Note_on_c, 0, 72, 89
2, 61800, Note_on_c, 0, 64, 89
2, 61800, Note_on_c, 0, 55, 89
2, 61800, Note_on_c, 0, 58, 80
2, 61866, Note_on_c, 0, 72, 0
2, 61867, Note_on_c, 0, 64, 0
2, 61867, Note_on_c, 0, 58, 0
2, 61870, Note_on_c, 0, 55, 0
2, 61920, Note_on_c, 0, 65, 89
2, 61920, Note_on_c, 0, 57, 93
2, 61920, Note_on_c, 0, 60, 93
2, 61984, Note_on_c, 0, 65, 0
2, 61986, Note_on_c, 0, 60, 0
2, 61986, Note_on_c, 0, 57, 0
2, 62040, Note_on_c, 0, 60, 89
2, 62040, Note_on_c, 0, 56, 93
2, 62156, Note_on_c, 0, 56, 0
2, 62160, Note_on_c, 0, 55, 89
2, 62267, Note_on_c, 0, 60, 0
2, 62279, Note_on_c, 0, 55, 0
2, 62280, Note_on_c, 0, 59, 80
2, 62280, Note_on_c, 0, 53, 76
2, 62385, Note_on_c, 0, 53, 0
2, 62390, Note_on_c, 0, 59, 0
2, 62400, Note_on_c, 0, 60, 85
2, 62400, Note_on_c, 0, 55, 80
2, 62524, Note_on_c, 0, 55, 0
2, 62525, Note_on_c, 0, 60, 0
2, 62580, Note_on_c, 0, 60, 85
2, 62580, Note_on_c, 0, 55, 76
2, 62597, Note_on_c, 0, 55, 0
2, 62600, Note_on_c, 0, 60, 0
2, 62610, Note_on_c, 0, 60, 89
2, 62610, Note_on_c, 0, 55, 64
2, 62634, Note_on_c, 0, 55, 0
2, 62634, Note_on_c, 0, 60, 0
2, 62640, Note_on_c, 0, 67, 85
2, 62640, Note_on_c, 0, 62, 80
2, 62764, Note_on_c, 0, 62, 0
2, 62764, Note_on_c, 0, 67, 0
2, 62820, Note_on_c, 0, 67, 93
2, 62820, Note_on_c, 0, 62, 89
2, 62839, Note_on_c, 0, 67, 0
2, 62840, Note_on_c, 0, 62, 0
2, 62850, Note_on_c, 0, 67, 85
2, 62850, Note_on_c, 0, 62, 76
2, 62869, Note_on_c, 0, 67, 0
2, 62872, Note_on_c, 0, 62, 0
2, 62880, Note_on_c, 0, 72, 89
2, 62880, Note_on_c, 0, 63, 72
2, 63005, Note_on_c, 0, 63, 0
2, 63010, Note_on_c, 0, 72, 0
2, 63060, Note_on_c, 0, 69, 93
2, 63060, Note_on_c, 0, 62, 89
2, 63079, Note_on_c, 0, 69, 0
2, 63080, Note_on_c, 0, 62, 0
2, 63090, Note_on_c, 0, 69, 76
2, 63090, Note_on_c, 0, 62, 76
2, 63107, Note_on_c, 0, 62, 0
2, 63109, Note_on_c, 0, 69, 0
2, 63120, Note_on_c, 0, 70, 89
2, 63120, Note_on_c, 0, 62, 80
2, 63242, Note_on_c, 0, 62, 0
2, 63248, Note_on_c, 0, 70, 0
2, 63300, Note_on_c, 0, 66, 89
2, 63300, Note_on_c, 0, 60, 89
2, 63318, Note_on_c, 0, 66, 0
2, 63321, Note_on_c, 0, 60, 0
2, 63330, Note_on_c, 0, 66, 72
2, 63330, Note_on_c, 0, 60, 72
2, 63350, Note_on_c, 0, 60, 0
2, 63354, Note_on_c, 0, 66, 0
2, 63360, Note_on_c, 0, 67, 89
2, 63360, Note_on_c, 0, 58, 85
2, 63417, Note_on_c, 0, 67, 0
2, 63420, Note_on_c, 0, 69, 80
2, 63480, Note_on_c, 0, 70, 76
2, 63482, Note_on_c, 0, 69, 0
2, 63503, Note_on_c, 0, 58, 0
2, 63539, Note_on_c, 0, 70, 0
2, 63540, Note_on_c, 0, 62, 89
2, 63540, Note_on_c, 0, 55, 89
2, 63586, Note_on_c, 0, 55, 0
2, 63596, Note_on_c, 0, 62, 0
2, 63600, Note_on_c, 0, 63, 89
2, 63600, Note_on_c, 0, 55, 93
2, 63715, Note_on_c, 0, 63, 0
2, 63719, Note_on_c, 0, 55, 0
2, 63720, Note_on_c, 0, 67, 93
2, 63720, Note_on_c, 0, 62, 93
2, 63815, Note_on_c, 0, 62, 0
2, 63840, Note_on_c, 0, 62, 89
2, 63855, Note_on_c, 0, 60, 68
2, 63856, Note_on_c, 0, 62, 0
2, 63868, Note_on_c, 0, 60, 0
2, 63870, Note_on_c, 0, 62, 76
2, 63884, Note_on_c, 0, 62, 0
2, 63885, Note_on_c, 0, 60, 76
2, 63900, Note_on_c, 0, 62, 76
2, 63901, Note_on_c, 0, 60, 0
2, 63915, Note_on_c, 0, 60, 85
2, 63917, Note_on_c, 0, 62, 0
2, 63930, Note_on_c, 0, 58, 76
2, 63931, Note_on_c, 0, 60, 0
2, 63942, Note_on_c, 0, 58, 0
2, 63945, Note_on_c, 0, 60, 76
2, 63950, Note_on_c, 0, 67, 0
2, 63957, Note_on_c, 0, 60, 0
2, 63960, Note_on_c, 0, 66, 76
2, 63960, Note_on_c, 0, 62, 85
2, 64013, Note_on_c, 0, 62, 0
2, 64020, Note_on_c, 0, 60, 85
2, 64074, Note_on_c, 0, 66, 0
2, 64079, Note_on_c, 0, 60, 0
2, 64080, Note_on_c, 0, 67, 89
2, 64080, Note_on_c, 0, 58, 64
2, 64203, Note_on_c, 0, 58, 0
2, 64205, Note_on_c, 0, 67, 0
2, 64230, Note_on_c, 0, 62, 93
2, 64230, Note_on_c, 0, 58, 89
2, 64256, Note_on_c, 0, 58, 0
2, 64259, Note_on_c, 0, 62, 0
2, 64260, Note_on_c, 0, 64, 85
2, 64260, Note_on_c, 0, 60, 85
2, 64289, Note_on_c, 0, 64, 0
2, 64290, Note_on_c, 0, 66, 76
2, 64290, Note_on_c, 0, 62, 89
2, 64292, Note_on_c, 0, 60, 0
2, 64316, Note_on_c, 0, 66, 0
2, 64319, Note_on_c, 0, 62, 0
2, 64320, Note_on_c, 0, 67, 62
2, 64320, Note_on_c, 0, 64, 80
2, 64350, Note_on_c, 0, 64, 0
2, 64350, Note_on_c, 0, 67, 0
2, 64350, Note_on_c, 0, 69, 85
2, 64350, Note_on_c, 0, 66, 76
2, 64379, Note_on_c, 0, 66, 0
2, 64379, Note_on_c, 0, 69, 0
2, 64380, Note_on_c, 0, 70, 80
2, 64380, Note_on_c, 0, 67, 76
2, 64407, Note_on_c, 0, 70, 0
2, 64410, Note_on_c, 0, 72, 80
2, 64410, Note_on_c, 0, 69, 85
2, 64411, Note_on_c, 0, 67, 0
2, 64440, Note_on_c, 0, 72, 0
2, 64440, Note_on_c, 0, 74, 89
2, 64440, Note_on_c, 0, 70, 89
2, 64441, Note_on_c, 0, 69, 0
2, 64613, Note_on_c, 0, 74, 0
2, 64617, Note_on_c, 0, 70, 0
2, 64620, Note_on_c, 0, 72, 89
2, 64620, Note_on_c, 0, 69, 89
2, 64677, Note_on_c, 0, 72, 0
2, 64680, Note_on_c, 0, 70, 80
2, 64680, Note_on_c, 0, 67, 89
2, 64681, Note_on_c, 0, 69, 0
2, 64778, Note_on_c, 0, 70, 0
2, 64800, Note_on_c, 0, 70, 93
2, 64814, Note_on_c, 0, 70, 0
2, 64815, Note_on_c, 0, 69, 76
2, 64828, Note_on_c, 0, 69, 0
2, 64830, Note_on_c, 0, 70, 68
2, 64845, Note_on_c, 0, 69, 72
2, 64846, Note_on_c, 0, 70, 0
2, 64860, Note_on_c, 0, 69, 0
2, 64860, Note_on_c, 0, 70, 72
2, 64875, Note_on_c, 0, 70, 0
2, 64875, Note_on_c, 0, 69, 62
2, 64889, Note_on_c, 0, 69, 0
2, 64890, Note_on_c, 0, 70, 62
2, 64905, Note_on_c, 0, 69, 62
2, 64906, Note_on_c, 0, 70, 0
2, 64910, Note_on_c, 0, 67, 0
2, 64920, Note_on_c, 0, 69, 0
2, 64920, Note_on_c, 0, 70, 64
2, 64920, Note_on_c, 0, 65, 85
2, 64935, Note_on_c, 0, 70, 0
2, 64935, Note_on_c, 0, 69, 60
2, 64950, Note_on_c, 0, 69, 0
2, 64950, Note_on_c, 0, 70, 64
2, 64965, Note_on_c, 0, 69, 62
2, 64968, Note_on_c, 0, 70, 0
2, 64979, Note_on_c, 0, 69, 0
2, 64980, Note_on_c, 0, 70, 85
2, 64995, Note_on_c, 0, 69, 72
2, 64996, Note_on_c, 0, 70, 0
2, 65009, Note_on_c, 0, 69, 0
2, 65010, Note_on_c, 0, 67, 93
2, 65024, Note_on_c, 0, 67, 0
2, 65025, Note_on_c, 0, 69, 68
2, 65032, Note_on_c, 0, 69, 0
2, 65040, Note_on_c, 0, 67, 68
2, 65148, Note_on_c, 0, 65, 0
2, 65158, Note_on_c, 0, 67, 0
2, 65160, Note_on_c, 0, 72, 85
2, 65160, Note_on_c, 0, 63, 80
2, 65262, Note_on_c, 0, 63, 0
2, 65280, Note_on_c, 0, 63, 89
2, 65295, Note_on_c, 0, 63, 0
2, 65295, Note_on_c, 0, 62, 80
2, 65309, Note_on_c, 0, 62, 0
2, 65310, Note_on_c, 0, 63, 76
2, 65325, Note_on_c, 0, 62, 76
2, 65326, Note_on_c, 0, 63, 0
2, 65338, Note_on_c, 0, 62, 0
2, 65340, Note_on_c, 0, 63, 72
2, 65355, Note_on_c, 0, 62, 72
2, 65357, Note_on_c, 0, 63, 0
2, 65368, Note_on_c, 0, 62, 0
2, 65370, Note_on_c, 0, 63, 76
2, 65384, Note_on_c, 0, 63, 0
2, 65385, Note_on_c, 0, 62, 64
2, 65392, Note_on_c, 0, 72, 0
2, 65398, Note_on_c, 0, 62, 0
2, 65400, Note_on_c, 0, 70, 89
2, 65400, Note_on_c, 0, 63, 72
2, 65414, Note_on_c, 0, 63, 0
2, 65415, Note_on_c, 0, 62, 68
2, 65429, Note_on_c, 0, 62, 0
2, 65430, Note_on_c, 0, 63, 80
2, 65442, Note_on_c, 0, 63, 0
2, 65445, Note_on_c, 0, 62, 72
2, 65460, Note_on_c, 0, 62, 0
2, 65460, Note_on_c, 0, 63, 76
2, 65475, Note_on_c, 0, 62, 72
2, 65477, Note_on_c, 0, 63, 0
2, 65489, Note_on_c, 0, 62, 0
2, 65490, Note_on_c, 0, 60, 76
2, 65505, Note_on_c, 0, 62, 89
2, 65506, Note_on_c, 0, 60, 0
2, 65517, Note_on_c, 0, 62, 0
2, 65520, Note_on_c, 0, 60, 80
2, 65617, Note_on_c, 0, 60, 0
2, 65633, Note_on_c, 0, 70, 0
2, 65640, Note_on_c, 0, 69, 85
2, 65640, Note_on_c, 0, 65, 93
2, 65744, Note_on_c, 0, 69, 0
2, 65760, Note_on_c, 0, 69, 76
2, 65773, Note_on_c, 0, 69, 0
2, 65775, Note_on_c, 0, 67, 76
2, 65790, Note_on_c, 0, 69, 76
2, 65791, Note_on_c, 0, 67, 0
2, 65805, Note_on_c, 0, 67, 76
2, 65809, Note_on_c, 0, 69, 0
2, 65819, Note_on_c, 0, 67, 0
2, 65820, Note_on_c, 0, 69, 76
2, 65835, Note_on_c, 0, 67, 72
2, 65837, Note_on_c, 0, 69, 0
2, 65849, Note_on_c, 0, 67, 0
2, 65850, Note_on_c, 0, 69, 64
2, 65865, Note_on_c, 0, 67, 68
2, 65866, Note_on_c, 0, 69, 0
2, 65877, Note_on_c, 0, 65, 0
2, 65880, Note_on_c, 0, 67, 0
2, 65880, Note_on_c, 0, 69, 76
2, 65880, Note_on_c, 0, 63, 89
2, 65895, Note_on_c, 0, 67, 68
2, 65897, Note_on_c, 0, 69, 0
2, 65909, Note_on_c, 0, 67, 0
2, 65910, Note_on_c, 0, 69, 72
2, 65925, Note_on_c, 0, 67, 62
2, 65926, Note_on_c, 0, 69, 0
2, 65940, Note_on_c, 0, 69, 80
2, 65941, Note_on_c, 0, 67, 0
2, 65955, Note_on_c, 0, 67, 68
2, 65958, Note_on_c, 0, 69, 0
2, 65969, Note_on_c, 0, 67, 0
2, 65970, Note_on_c, 0, 65, 72
2, 65985, Note_on_c, 0, 65, 0
2, 65985, Note_on_c, 0, 67, 76
2, 65997, Note_on_c, 0, 67, 0
2, 66000, Note_on_c, 0, 65, 72
2, 66117, Note_on_c, 0, 63, 0
2, 66120, Note_on_c, 0, 70, 76
2, 66120, Note_on_c, 0, 62, 85
2, 66124, Note_on_c, 0, 65, 0
2, 66223, Note_on_c, 0, 62, 0
2, 66240, Note_on_c, 0, 60, 80
2, 66342, Note_on_c, 0, 70, 0
2, 66360, Note_on_c, 0, 69, 89
2, 66457, Note_on_c, 0, 60, 0
2, 66480, Note_on_c, 0, 58, 89
2, 66510, Note_on_c, 0, 74, 93
2, 66538, Note_on_c, 0, 74, 0
2, 66540, Note_on_c, 0, 72, 85
2, 66569, Note_on_c, 0, 72, 0
2, 66570, Note_on_c, 0, 74, 85
2, 66584, Note_on_c, 0, 69, 0
2, 66600, Note_on_c, 0, 70, 80
2, 66600, Note_on_c, 0, 67, 89
2, 66605, Note_on_c, 0, 74, 0
2, 66630, Note_on_c, 0, 70, 0
2, 66630, Note_on_c, 0, 69, 76
2, 66658, Note_on_c, 0, 58, 0
2, 66660, Note_on_c, 0, 70, 85
2, 66662, Note_on_c, 0, 69, 0
2, 66668, Note_on_c, 0, 67, 0
2, 66689, Note_on_c, 0, 70, 0
2, 66690, Note_on_c, 0, 67, 85
2, 66718, Note_on_c, 0, 67, 0
2, 66750, Note_on_c, 0, 72, 89
2, 66750, Note_on_c, 0, 69, 98
2, 66777, Note_on_c, 0, 69, 0
2, 66778, Note_on_c, 0, 72, 0
2, 66780, Note_on_c, 0, 70, 72
2, 66780, Note_on_c, 0, 67, 80
2, 66809, Note_on_c, 0, 67, 0
2, 66809, Note_on_c, 0, 70, 0
2, 66810, Note_on_c, 0, 72, 76
2, 66810, Note_on_c, 0, 69, 76
2, 66839, Note_on_c, 0, 69, 0
2, 66840, Note_on_c, 0, 69, 80
2, 66840, Note_on_c, 0, 66, 72
2, 66841, Note_on_c, 0, 72, 0
2, 66869, Note_on_c, 0, 69, 0
2, 66870, Note_on_c, 0, 67, 76
2, 66870, Note_on_c, 0, 64, 80
2, 66871, Note_on_c, 0, 66, 0
2, 66898, Note_on_c, 0, 67, 0
2, 66900, Note_on_c, 0, 69, 80
2, 66900, Note_on_c, 0, 66, 76
2, 66902, Note_on_c, 0, 64, 0
2, 66930, Note_on_c, 0, 69, 0
2, 66930, Note_on_c, 0, 66, 80
2, 66930, Note_on_c, 0, 62, 80
2, 66931, Note_on_c, 0, 66, 0
2, 66953, Note_on_c, 0, 62, 0
2, 66954, Note_on_c, 0, 66, 0
2, 66990, Note_on_c, 0, 70, 80
2, 66990, Note_on_c, 0, 67, 89
2, 67019, Note_on_c, 0, 67, 0
2, 67020, Note_on_c, 0, 70, 0
2, 67020, Note_on_c, 0, 69, 76
2, 67020, Note_on_c, 0, 65, 76
2, 67049, Note_on_c, 0, 65, 0
2, 67049, Note_on_c, 0, 69, 0
2, 67050, Note_on_c, 0, 70, 72
2, 67050, Note_on_c, 0, 67, 85
2, 67080, Note_on_c, 0, 67, 0
2, 67080, Note_on_c, 0, 67, 76
2, 67080, Note_on_c, 0, 64, 89
2, 67083, Note_on_c, 0, 70, 0
2, 67107, Note_on_c, 0, 67, 0
2, 67110, Note_on_c, 0, 65, 72
2, 67110, Note_on_c, 0, 62, 80
2, 67111, Note_on_c, 0, 64, 0
2, 67139, Note_on_c, 0, 62, 0
2, 67140, Note_on_c, 0, 65, 0
2, 67140, Note_on_c, 0, 67, 76
2, 67140, Note_on_c, 0, 64, 89
2, 67170, Note_on_c, 0, 67, 0
2, 67170, Note_on_c, 0, 64, 80
2, 67170, Note_on_c, 0, 60, 80
2, 67173, Note_on_c, 0, 64, 0
2, 67189, Note_on_c, 0, 60, 0
2, 67192, Note_on_c, 0, 64, 0
2, 67230, Note_on_c, 0, 69, 80
2, 67230, Note_on_c, 0, 65, 89
2, 67257, Note_on_c, 0, 69, 0
2, 67258, Note_on_c, 0, 65, 0
2, 67260, Note_on_c, 0, 67, 76
2, 67260, Note_on_c, 0, 64, 85
2, 67289, Note_on_c, 0, 64, 0
2, 67290, Note_on_c, 0, 69, 76
2, 67290, Note_on_c, 0, 65, 76
2, 67291, Note_on_c, 0, 67, 0
2, 67320, Note_on_c, 0, 65, 80
2, 67320, Note_on_c, 0, 62, 80
2, 67321, Note_on_c, 0, 65, 0
2, 67322, Note_on_c, 0, 69, 0
2, 67349, Note_on_c, 0, 62, 0
2, 67350, Note_on_c, 0, 65, 0
2, 67350, Note_on_c, 0, 64, 68
2, 67350, Note_on_c, 0, 60, 72
2, 67379, Note_on_c, 0, 64, 0
2, 67380, Note_on_c, 0, 65, 76
2, 67380, Note_on_c, 0, 62, 89
2, 67384, Note_on_c, 0, 60, 0
2, 67408, Note_on_c, 0, 65, 0
2, 67409, Note_on_c, 0, 62, 0
2, 67410, Note_on_c, 0, 62, 68
2, 67410, Note_on_c, 0, 58, 56
2, 67440, Note_on_c, 0, 58, 0
2, 67440, Note_on_c, 0, 67, 72
2, 67440, Note_on_c, 0, 64, 85
2, 67442, Note_on_c, 0, 62, 0
2, 67469, Note_on_c, 0, 64, 0
2, 67469, Note_on_c, 0, 67, 0
2, 67470, Note_on_c, 0, 65, 68
2, 67470, Note_on_c, 0, 62, 80
2, 67499, Note_on_c, 0, 62, 0
2, 67500, Note_on_c, 0, 67, 76
2, 67500, Note_on_c, 0, 64, 85
2, 67501, Note_on_c, 0, 65, 0
2, 67529, Note_on_c, 0, 67, 0
2, 67530, Note_on_c, 0, 64, 80
2, 67530, Note_on_c, 0, 61, 72
2, 67532, Note_on_c, 0, 64, 0
2, 67559, Note_on_c, 0, 61, 0
2, 67559, Note_on_c, 0, 64, 0
2, 67560, Note_on_c, 0, 65, 89
2, 67560, Note_on_c, 0, 62, 85
2, 67588, Note_on_c, 0, 65, 0
2, 67590, Note_on_c, 0, 64, 76
2, 67590, Note_on_c, 0, 61, 93
2, 67592, Note_on_c, 0, 62, 0
2, 67615, Note_on_c, 0, 61, 0
2, 67620, Note_on_c, 0, 64, 0
2, 67620, Note_on_c, 0, 65, 80
2, 67620, Note_on_c, 0, 62, 89
2, 67649, Note_on_c, 0, 62, 0
2, 67649, Note_on_c, 0, 65, 0
2, 67650, Note_on_c, 0, 62, 80
2, 67650, Note_on_c, 0, 59, 80
2, 67675, Note_on_c, 0, 59, 0
2, 67678, Note_on_c, 0, 62, 0
2, 67680, Note_on_c, 0, 61, 93
2, 67680, Note_on_c, 0, 57, 76
2, 67800, Note_on_c, 0, 57, 0
2, 67804, Note_on_c, 0, 61, 0
2, 67830, Note_on_c, 0, 57, 93
2, 67860, Note_on_c, 0, 61, 72
2, 67863, Note_on_c, 0, 57, 0
2, 67890, Note_on_c, 0, 64, 76
2, 67912, Note_on_c, 0, 61, 0
2, 67919, Note_on_c, 0, 64, 0
2, 67920, Note_on_c, 0, 69, 85
2, 67950, Note_on_c, 0, 69, 0
2, 67950, Note_on_c, 0, 69, 89
2, 67950, Note_on_c, 0, 65, 62
2, 67980, Note_on_c, 0, 69, 0
2, 67980, Note_on_c, 0, 71, 89
2, 67980, Note_on_c, 0, 67, 80
2, 67981, Note_on_c, 0, 65, 0
2, 68009, Note_on_c, 0, 67, 0
2, 68010, Note_on_c, 0, 73, 76
2, 68010, Note_on_c, 0, 64, 89
2, 68014, Note_on_c, 0, 71, 0
2, 68040, Note_on_c, 0, 73, 0
2, 68040, Note_on_c, 0, 74, 80
2, 68040, Note_on_c, 0, 66, 72
2, 68044, Note_on_c, 0, 64, 0
2, 68069, Note_on_c, 0, 74, 0
2, 68070, Note_on_c, 0, 70, 76
2, 68070, Note_on_c, 0, 67, 76
2, 68071, Note_on_c, 0, 66, 0
2, 68098, Note_on_c, 0, 70, 0
2, 68100, Note_on_c, 0, 67, 0
2, 68100, Note_on_c, 0, 72, 76
2, 68100, Note_on_c, 0, 64, 85
2, 68129, Note_on_c, 0, 64, 0
2, 68130, Note_on_c, 0, 72, 0
2, 68130, Note_on_c, 0, 69, 76
2, 68130, Note_on_c, 0, 66, 68
2, 68159, Note_on_c, 0, 69, 0
2, 68160, Note_on_c, 0, 70, 89
2, 68160, Note_on_c, 0, 67, 89
2, 68161, Note_on_c, 0, 66, 0
2, 68275, Note_on_c, 0, 67, 0
2, 68278, Note_on_c, 0, 70, 0
2, 68310, Note_on_c, 0, 55, 85
2, 68340, Note_on_c, 0, 58, 80
2, 68344, Note_on_c, 0, 55, 0
2, 68370, Note_on_c, 0, 62, 80
2, 68378, Note_on_c, 0, 58, 0
2, 68399, Note_on_c, 0, 62, 0
2, 68400, Note_on_c, 0, 67, 80
2, 68430, Note_on_c, 0, 67, 0
2, 68430, Note_on_c, 0, 67, 89
2, 68430, Note_on_c, 0, 64, 76
2, 68459, Note_on_c, 0, 64, 0
2, 68459, Note_on_c, 0, 67, 0
2, 68460, Note_on_c, 0, 69, 85
2, 68460, Note_on_c, 0, 65, 80
2, 68490, Note_on_c, 0, 65, 0
2, 68490, Note_on_c, 0, 71, 80
2, 68490, Note_on_c, 0, 62, 80
2, 68492, Note_on_c, 0, 69, 0
2, 68520, Note_on_c, 0, 72, 80
2, 68520, Note_on_c, 0, 64, 80
2, 68521, Note_on_c, 0, 62, 0
2, 68522, Note_on_c, 0, 71, 0
2, 68550, Note_on_c, 0, 64, 0
2, 68550, Note_on_c, 0, 69, 76
2, 68550, Note_on_c, 0, 65, 72
2, 68552, Note_on_c, 0, 72, 0
2, 68580, Note_on_c, 0, 70, 72
2, 68580, Note_on_c, 0, 62, 76
2, 68581, Note_on_c, 0, 65, 0
2, 68583, Note_on_c, 0, 69, 0
2, 68610, Note_on_c, 0, 62, 0
2, 68610, Note_on_c, 0, 67, 76
2, 68610, Note_on_c, 0, 64, 89
2, 68611, Note_on_c, 0, 70, 0
2, 68640, Note_on_c, 0, 64, 0
2, 68640, Note_on_c, 0, 65, 89
2, 68640, Note_on_c, 0, 60, 89
2, 68643, Note_on_c, 0, 67, 0
2, 68762, Note_on_c, 0, 65, 0
2, 68764, Note_on_c, 0, 60, 0
2, 68820, Note_on_c, 0, 65, 93
2, 68820, Note_on_c, 0, 60, 89
2, 68840, Note_on_c, 0, 60, 0
2, 68841, Note_on_c, 0, 65, 0
2, 68850, Note_on_c, 0, 65, 80
2, 68850, Note_on_c, 0, 60, 72
2, 68869, Note_on_c, 0, 60, 0
2, 68872, Note_on_c, 0, 65, 0
2, 68880, Note_on_c, 0, 67, 85
2, 68880, Note_on_c, 0, 60, 76
2, 69010, Note_on_c, 0, 60, 0
2, 69026, Note_on_c, 0, 67, 0
2, 69060, Note_on_c, 0, 67, 85
2, 69060, Note_on_c, 0, 60, 85
2, 69078, Note_on_c, 0, 67, 0
2, 69081, Note_on_c, 0, 60, 0
2, 69090, Note_on_c, 0, 67, 76
2, 69090, Note_on_c, 0, 60, 72
2, 69108, Note_on_c, 0, 67, 0
2, 69113, Note_on_c, 0, 60, 0
2, 69120, Note_on_c, 0, 69, 76
2, 69120, Note_on_c, 0, 65, 85
2, 69251, Note_on_c, 0, 65, 0
2, 69268, Note_on_c, 0, 69, 0
2, 69300, Note_on_c, 0, 69, 93
2, 69300, Note_on_c, 0, 65, 89
2, 69316, Note_on_c, 0, 69, 0
2, 69320, Note_on_c, 0, 65, 0
2, 69330, Note_on_c, 0, 69, 72
2, 69330, Note_on_c, 0, 65, 80
2, 69347, Note_on_c, 0, 69, 0
2, 69352, Note_on_c, 0, 65, 0
2, 69360, Note_on_c, 0, 72, 85
2, 69360, Note_on_c, 0, 64, 80
2, 69360, Note_on_c, 0, 67, 76
2, 69496, Note_on_c, 0, 64, 0
2, 69497, Note_on_c, 0, 67, 0
2, 69502, Note_on_c, 0, 72, 0
2, 69540, Note_on_c, 0, 60, 93
2, 69540, Note_on_c, 0, 55, 68
2, 69540, Note_on_c, 0, 57, 80
2, 69544, Note_on_c, 0, 57, 0
2, 69559, Note_on_c, 0, 60, 0
2, 69562, Note_on_c, 0, 55, 0
2, 69570, Note_on_c, 0, 60, 76
2, 69570, Note_on_c, 0, 55, 89
2, 69592, Note_on_c, 0, 60, 0
2, 69595, Note_on_c, 0, 55, 0
2, 69600, Note_on_c, 0, 65, 85
2, 69600, Note_on_c, 0, 57, 89
2, 69600, Note_on_c, 0, 60, 76
2, 69658, Note_on_c, 0, 65, 0
2, 69660, Note_on_c, 0, 67, 85
2, 69716, Note_on_c, 0, 67, 0
2, 69720, Note_on_c, 0, 69, 76
2, 69724, Note_on_c, 0, 57, 0
2, 69726, Note_on_c, 0, 60, 0
2, 69777, Note_on_c, 0, 69, 0
2, 69780, Note_on_c, 0, 60, 80
2, 69780, Note_on_c, 0, 53, 93
2, 69827, Note_on_c, 0, 53, 0
2, 69838, Note_on_c, 0, 60, 0
2, 69840, Note_on_c, 0, 62, 76
2, 69840, Note_on_c, 0, 53, 72
2, 69959, Note_on_c, 0, 62, 0
2, 69960, Note_on_c, 0, 65, 85
2, 69960, Note_on_c, 0, 60, 89
2, 69962, Note_on_c, 0, 53, 0
2, 70056, Note_on_c, 0, 60, 0
2, 70080, Note_on_c, 0, 60, 89
2, 70095, Note_on_c, 0, 58, 85
2, 70097, Note_on_c, 0, 60, 0
2, 70109, Note_on_c, 0, 58, 0
2, 70110, Note_on_c, 0, 60, 80
2, 70123, Note_on_c, 0, 60, 0
2, 70125, Note_on_c, 0, 58, 64
2, 70137, Note_on_c, 0, 58, 0
2, 70140, Note_on_c, 0, 60, 80
2, 70155, Note_on_c, 0, 58, 62
2, 70159, Note_on_c, 0, 60, 0
2, 70168, Note_on_c, 0, 58, 0
2, 70170, Note_on_c, 0, 57, 72
2, 70185, Note_on_c, 0, 57, 0
2, 70185, Note_on_c, 0, 58, 72
2, 70191, Note_on_c, 0, 65, 0
2, 70197, Note_on_c, 0, 58, 0
2, 70200, Note_on_c, 0, 64, 76
2, 70200, Note_on_c, 0, 60, 85
2, 70255, Note_on_c, 0, 60, 0
2, 70260, Note_on_c, 0, 58, 85
2, 70316, Note_on_c, 0, 58, 0
2, 70320, Note_on_c, 0, 65, 80
2, 70320, Note_on_c, 0, 57, 85
2, 70321, Note_on_c, 0, 64, 0
2, 70442, Note_on_c, 0, 65, 0
2, 70444, Note_on_c, 0, 57, 0
2, 70470, Note_on_c, 0, 60, 80
2, 70470, Note_on_c, 0, 57, 89
2, 70496, Note_on_c, 0, 57, 0
2, 70500, Note_on_c, 0, 60, 0
2, 70500, Note_on_c, 0, 62, 80
2, 70500, Note_on_c, 0, 58, 72
2, 70526, Note_on_c, 0, 58, 0
2, 70528, Note_on_c, 0, 62, 0
2, 70530, Note_on_c, 0, 64, 68
2, 70530, Note_on_c, 0, 60, 85
2, 70559, Note_on_c, 0, 60, 0
2, 70559, Note_on_c, 0, 64, 0
2, 70560, Note_on_c, 0, 65, 80
2, 70560, Note_on_c, 0, 62, 76
2, 70589, Note_on_c, 0, 62, 0
2, 70589, Note_on_c, 0, 65, 0
2, 70590, Note_on_c, 0, 67, 80
2, 70590, Note_on_c, 0, 64, 80
2, 70618, Note_on_c, 0, 64, 0
2, 70619, Note_on_c, 0, 67, 0
2, 70620, Note_on_c, 0, 69, 80
2, 70620, Note_on_c, 0, 65, 76
2, 70647, Note_on_c, 0, 65, 0
2, 70649, Note_on_c, 0, 69, 0
2, 70650, Note_on_c, 0, 70, 80
2, 70650, Note_on_c, 0, 67, 89
2, 70679, Note_on_c, 0, 67, 0
2, 70680, Note_on_c, 0, 70, 0
2, 70680, Note_on_c, 0, 72, 85
2, 70680, Note_on_c, 0, 69, 85
2, 70850, Note_on_c, 0, 72, 0
2, 70860, Note_on_c, 0, 70, 80
2, 70860, Note_on_c, 0, 67, 80
2, 70861, Note_on_c, 0, 69, 0
2, 70920, Note_on_c, 0, 70, 0
2, 70920, Note_on_c, 0, 69, 89
2, 70920, Note_on_c, 0, 65, 85
2, 70921, Note_on_c, 0, 67, 0
2, 71021, Note_on_c, 0, 69, 0
2, 71040, Note_on_c, 0, 69, 89
2, 71055, Note_on_c, 0, 67, 72
2, 71057, Note_on_c, 0, 69, 0
2, 71069, Note_on_c, 0, 67, 0
2, 71070, Note_on_c, 0, 69, 72
2, 71085, Note_on_c, 0, 67, 68
2, 71087, Note_on_c, 0, 69, 0
2, 71097, Note_on_c, 0, 67, 0
2, 71100, Note_on_c, 0, 69, 72
2, 71115, Note_on_c, 0, 67, 68
2, 71117, Note_on_c, 0, 69, 0
2, 71127, Note_on_c, 0, 67, 0
2, 71130, Note_on_c, 0, 69, 68
2, 71145, Note_on_c, 0, 67, 68
2, 71146, Note_on_c, 0, 69, 0
2, 71156, Note_on_c, 0, 65, 0
2, 71160, Note_on_c, 0, 67, 0
2, 71160, Note_on_c, 0, 69, 80
2, 71160, Note_on_c, 0, 64, 89
2, 71175, Note_on_c, 0, 69, 0
2, 71175, Note_on_c, 0, 67, 76
2, 71187, Note_on_c, 0, 67, 0
2, 71190, Note_on_c, 0, 69, 80
2, 71204, Note_on_c, 0, 69, 0
2, 71205, Note_on_c, 0, 67, 72
2, 71219, Note_on_c, 0, 67, 0
2, 71220, Note_on_c, 0, 65, 80
2, 71250, Note_on_c, 0, 65, 0
2, 71250, Note_on_c, 0, 67, 89
2, 71279, Note_on_c, 0, 67, 0
2, 71280, Note_on_c, 0, 65, 80
2, 71284, Note_on_c, 0, 64, 0
2, 71337, Note_on_c, 0, 65, 0
2, 71340, Note_on_c, 0, 69, 76
2, 71370, Note_on_c, 0, 69, 0
2, 71370, Note_on_c, 0, 67, 85
2, 71399, Note_on_c, 0, 67, 0
2, 71400, Note_on_c, 0, 65, 72
2, 71430, Note_on_c, 0, 65, 0
2, 71430, Note_on_c, 0, 64, 89
2, 71460, Note_on_c, 0, 62, 85
2, 71460, Note_on_c, 0, 53, 93
2, 71461, Note_on_c, 0, 64, 0
2, 71487, Note_on_c, 0, 62, 0
2, 71490, Note_on_c, 0, 60, 76
2, 71518, Note_on_c, 0, 60, 0
2, 71520, Note_on_c, 0, 58, 76
2, 71578, Note_on_c, 0, 53, 0
2, 71580, Note_on_c, 0, 70, 85
2, 71580, Note_on_c, 0, 52, 76
2, 71581, Note_on_c, 0, 58, 0
2, 71607, Note_on_c, 0, 70, 0
2, 71610, Note_on_c, 0, 69, 76
2, 71640, Note_on_c, 0, 67, 89
2, 71641, Note_on_c, 0, 69, 0
2, 71647, Note_on_c, 0, 52, 0
2, 71670, Note_on_c, 0, 67, 0
2, 71670, Note_on_c, 0, 65, 72
2, 71699, Note_on_c, 0, 65, 0
2, 71700, Note_on_c, 0, 64, 76
2, 71700, Note_on_c, 0, 55, 93
2, 71727, Note_on_c, 0, 64, 0
2, 71730, Note_on_c, 0, 62, 72
2, 71759, Note_on_c, 0, 62, 0
2, 71760, Note_on_c, 0, 60, 76
2, 71817, Note_on_c, 0, 60, 0
2, 71820, Note_on_c, 0, 72, 89
2, 71820, Note_on_c, 0, 53, 89
2, 71825, Note_on_c, 0, 55, 0
2, 71849, Note_on_c, 0, 72, 0
2, 71850, Note_on_c, 0, 70, 72
2, 71880, Note_on_c, 0, 69, 80
2, 71881, Note_on_c, 0, 70, 0
2, 71887, Note_on_c, 0, 53, 0
2, 71910, Note_on_c, 0, 67, 89
2, 71914, Note_on_c, 0, 69, 0
2, 71939, Note_on_c, 0, 67, 0
2, 71940, Note_on_c, 0, 65, 72
2, 71940, Note_on_c, 0, 57, 98
2, 71968, Note_on_c, 0, 65, 0
2, 71970, Note_on_c, 0, 64, 80
2, 71999, Note_on_c, 0, 64, 0
2, 72000, Note_on_c, 0, 62, 89
2, 72055, Note_on_c, 0, 57, 0
2, 72056, Note_on_c, 0, 62, 0
2, 72060, Note_on_c, 0, 74, 93
2, 72060, Note_on_c, 0, 55, 89
2, 72090, Note_on_c, 0, 72, 89
2, 72091, Note_on_c, 0, 74, 0
2, 72120, Note_on_c, 0, 70, 89
2, 72121, Note_on_c, 0, 72, 0
2, 72128, Note_on_c, 0, 55, 0
2, 72150, Note_on_c, 0, 69, 76
2, 72150, Note_on_c, 0, 65, 93
2, 72152, Note_on_c, 0, 70, 0
2, 72179, Note_on_c, 0, 69, 0
2, 72180, Note_on_c, 0, 65, 0
2, 72180, Note_on_c, 0, 67, 89
2, 72180, Note_on_c, 0, 64, 80
2, 72210, Note_on_c, 0, 64, 0
2, 72210, Note_on_c, 0, 67, 0
2, 72210, Note_on_c, 0, 65, 76
2, 72210, Note_on_c, 0, 62, 89
2, 72239, Note_on_c, 0, 62, 0
2, 72240, Note_on_c, 0, 65, 0
2, 72240, Note_on_c, 0, 64, 93
2, 72240, Note_on_c, 0, 60, 89
2, 72366, Note_on_c, 0, 60, 0
2, 72374, Note_on_c, 0, 64, 0
2, 72420, Note_on_c, 0, 64, 93
2, 72420, Note_on_c, 0, 60, 93
2, 72480, Note_on_c, 0, 65, 89
2, 72482, Note_on_c, 0, 64, 0
2, 72536, Note_on_c, 0, 65, 0
2, 72540, Note_on_c, 0, 60, 0
2, 72540, Note_on_c, 0, 62, 80
2, 72540, Note_on_c, 0, 59, 80
2, 72604, Note_on_c, 0, 62, 0
2, 72622, Note_on_c, 0, 59, 0
2, 72660, Note_on_c, 0, 65, 93
2, 72660, Note_on_c, 0, 62, 93
2, 72717, Note_on_c, 0, 65, 0
2, 72720, Note_on_c, 0, 67, 89
2, 72778, Note_on_c, 0, 62, 0
2, 72780, Note_on_c, 0, 64, 89
2, 72780, Note_on_c, 0, 60, 89
2, 72783, Note_on_c, 0, 67, 0
2, 72858, Note_on_c, 0, 60, 0
2, 72866, Note_on_c, 0, 64, 0
2, 72900, Note_on_c, 0, 67, 93
2, 72900, Note_on_c, 0, 64, 98
2, 72952, Note_on_c, 0, 64, 0
2, 72958, Note_on_c, 0, 67, 0
2, 72960, Note_on_c, 0, 69, 89
2, 72960, Note_on_c, 0, 65, 93
2, 73019, Note_on_c, 0, 65, 0
2, 73020, Note_on_c, 0, 57, 89
2, 73049, Note_on_c, 0, 57, 0
2, 73050, Note_on_c, 0, 58, 85
2, 73080, Note_on_c, 0, 58, 0
2, 73080, Note_on_c, 0, 60, 89
2, 73090, Note_on_c, 0, 69, 0
2, 73109, Note_on_c, 0, 60, 0
2, 73110, Note_on_c, 0, 62, 89
2, 73140, Note_on_c, 0, 69, 102
2, 73140, Note_on_c, 0, 64, 93
2, 73142, Note_on_c, 0, 62, 0
2, 73166, Note_on_c, 0, 64, 0
2, 73170, Note_on_c, 0, 65, 76
2, 73199, Note_on_c, 0, 65, 0
2, 73200, Note_on_c, 0, 70, 89
2, 73200, Note_on_c, 0, 67, 89
2, 73204, Note_on_c, 0, 69, 0
2, 73260, Note_on_c, 0, 67, 0
2, 73260, Note_on_c, 0, 58, 80
2, 73289, Note_on_c, 0, 58, 0
2, 73290, Note_on_c, 0, 60, 85
2, 73320, Note_on_c, 0, 60, 0
2, 73320, Note_on_c, 0, 62, 89
2, 73327, Note_on_c, 0, 70, 0
2, 73350, Note_on_c, 0, 64, 89
2, 73351, Note_on_c, 0, 62, 0
2, 73378, Note_on_c, 0, 64, 0
2, 73380, Note_on_c, 0, 70, 93
2, 73380, Note_on_c, 0, 65, 89
2, 73410, Note_on_c, 0, 67, 89
2, 73411, Note_on_c, 0, 65, 0
2, 73439, Note_on_c, 0, 67, 0
2, 73440, Note_on_c, 0, 70, 0
2, 73440, Note_on_c, 0, 72, 93
2, 73440, Note_on_c, 0, 69, 93
2, 73499, Note_on_c, 0, 69, 0
2, 73500, Note_on_c, 0, 60, 76
2, 73529, Note_on_c, 0, 60, 0
2, 73530, Note_on_c, 0, 62, 85
2, 73560, Note_on_c, 0, 62, 0
2, 73560, Note_on_c, 0, 64, 93
2, 73573, Note_on_c, 0, 72, 0
2, 73588, Note_on_c, 0, 64, 0
2, 73590, Note_on_c, 0, 65, 85
2, 73620, Note_on_c, 0, 72, 89
2, 73620, Note_on_c, 0, 67, 76
2, 73622, Note_on_c, 0, 65, 0
2, 73648, Note_on_c, 0, 67, 0
2, 73650, Note_on_c, 0, 69, 85
2, 73679, Note_on_c, 0, 72, 0
2, 73680, Note_on_c, 0, 74, 93
2, 73680, Note_on_c, 0, 70, 85
2, 73683, Note_on_c, 0, 69, 0
2, 73709, Note_on_c, 0, 70, 0
2, 73710, Note_on_c, 0, 72, 80
2, 73740, Note_on_c, 0, 70, 85
2, 73741, Note_on_c, 0, 72, 0
2, 73770, Note_on_c, 0, 69, 89
2, 73772, Note_on_c, 0, 70, 0
2, 73799, Note_on_c, 0, 69, 0
2, 73800, Note_on_c, 0, 67, 85
2, 73829, Note_on_c, 0, 67, 0
2, 73830, Note_on_c, 0, 65, 76
2, 73847, Note_on_c, 0, 74, 0
2, 73860, Note_on_c, 0, 65, 85
2, 73860, Note_on_c, 0, 64, 85
2, 73870, Note_on_c, 0, 65, 0
2, 73889, Note_on_c, 0, 64, 0
2, 73890, Note_on_c, 0, 62, 76
2, 73918, Note_on_c, 0, 65, 0
2, 73920, Note_on_c, 0, 64, 89
2, 73920, Note_on_c, 0, 60, 89
2, 73922, Note_on_c, 0, 62, 0
2, 73977, Note_on_c, 0, 64, 0
2, 73979, Note_on_c, 0, 60, 0
2, 73980, Note_on_c, 0, 67, 93
2, 73980, Note_on_c, 0, 64, 89
2, 74008, Note_on_c, 0, 67, 0
2, 74010, Note_on_c, 0, 65, 89
2, 74010, Note_on_c, 0, 62, 89
2, 74013, Note_on_c, 0, 64, 0
2, 74038, Note_on_c, 0, 62, 0
2, 74040, Note_on_c, 0, 65, 0
2, 74040, Note_on_c, 0, 64, 80
2, 74040, Note_on_c, 0, 60, 76
2, 74069, Note_on_c, 0, 64, 0
2, 74070, Note_on_c, 0, 60, 0
2, 74070, Note_on_c, 0, 62, 62
2, 74070, Note_on_c, 0, 58, 64
2, 74096, Note_on_c, 0, 62, 0
2, 74099, Note_on_c, 0, 58, 0
2, 74100, Note_on_c, 0, 60, 76
2, 74100, Note_on_c, 0, 57, 89
2, 74129, Note_on_c, 0, 60, 0
2, 74130, Note_on_c, 0, 57, 0
2, 74130, Note_on_c, 0, 58, 80
2, 74130, Note_on_c, 0, 55, 80
2, 74156, Note_on_c, 0, 58, 0
2, 74160, Note_on_c, 0, 58, 80
2, 74175, Note_on_c, 0, 57, 64
2, 74176, Note_on_c, 0, 58, 0
2, 74188, Note_on_c, 0, 57, 0
2, 74190, Note_on_c, 0, 58, 76
2, 74205, Note_on_c, 0, 57, 76
2, 74206, Note_on_c, 0, 58, 0
2, 74220, Note_on_c, 0, 57, 0
2, 74220, Note_on_c, 0, 58, 85
2, 74220, Note_on_c, 0, 48, 76
2, 74224, Note_on_c, 0, 55, 0
2, 74235, Note_on_c, 0, 58, 0
2, 74235, Note_on_c, 0, 57, 76
2, 74247, Note_on_c, 0, 57, 0
2, 74250, Note_on_c, 0, 58, 76
2, 74265, Note_on_c, 0, 58, 0
2, 74265, Note_on_c, 0, 57, 76
2, 74277, Note_on_c, 0, 48, 0
2, 74280, Note_on_c, 0, 57, 0
2, 74280, Note_on_c, 0, 58, 89
2, 74280, Note_on_c, 0, 53, 93
2, 74294, Note_on_c, 0, 58, 0
2, 74295, Note_on_c, 0, 57, 85
2, 74307, Note_on_c, 0, 57, 0
2, 74310, Note_on_c, 0, 58, 89
2, 74322, Note_on_c, 0, 58, 0
2, 74325, Note_on_c, 0, 57, 80
2, 74340, Note_on_c, 0, 57, 0
2, 74340, Note_on_c, 0, 55, 89
2, 74369, Note_on_c, 0, 55, 0
2, 74370, Note_on_c, 0, 57, 80
2, 74396, Note_on_c, 0, 57, 0
2, 74396, Note_on_c, 0, 53, 0
2, 74400, Note_on_c, 0, 55, 85
2, 74400, Note_on_c, 0, 52, 89
2, 74460, Note_on_c, 0, 52, 0
2, 74460, Note_on_c, 0, 67, 93
2, 74488, Note_on_c, 0, 67, 0
2, 74490, Note_on_c, 0, 65, 89
2, 74519, Note_on_c, 0, 55, 0
2, 74520, Note_on_c, 0, 64, 76
2, 74522, Note_on_c, 0, 65, 0
2, 74550, Note_on_c, 0, 64, 0
2, 74550, Note_on_c, 0, 62, 80
2, 74578, Note_on_c, 0, 62, 0
2, 74580, Note_on_c, 0, 60, 64
2, 74610, Note_on_c, 0, 58, 72
2, 74612, Note_on_c, 0, 60, 0
2, 74634, Note_on_c, 0, 58, 0
2, 74640, Note_on_c, 0, 58, 89
2, 74655, Note_on_c, 0, 57, 80
2, 74656, Note_on_c, 0, 58, 0
2, 74668, Note_on_c, 0, 57, 0
2, 74670, Note_on_c, 0, 60, 93
2, 74670, Note_on_c, 0, 58, 72
2, 74685, Note_on_c, 0, 57, 80
2, 74686, Note_on_c, 0, 58, 0
2, 74698, Note_on_c, 0, 57, 0
2, 74699, Note_on_c, 0, 60, 0
2, 74700, Note_on_c, 0, 62, 89
2, 74700, Note_on_c, 0, 58, 72
2, 74715, Note_on_c, 0, 57, 72
2, 74716, Note_on_c, 0, 58, 0
2, 74727, Note_on_c, 0, 57, 0
2, 74729, Note_on_c, 0, 62, 0
2, 74730, Note_on_c, 0, 64, 93
2, 74730, Note_on_c, 0, 58, 68
2, 74745, Note_on_c, 0, 57, 76
2, 74746, Note_on_c, 0, 58, 0
2, 74758, Note_on_c, 0, 64, 0
2, 74760, Note_on_c, 0, 57, 0
2, 74760, Note_on_c, 0, 65, 89
2, 74760, Note_on_c, 0, 58, 76
2, 74774, Note_on_c, 0, 58, 0
2, 74775, Note_on_c, 0, 57, 80
2, 74789, Note_on_c, 0, 65, 0
2, 74790, Note_on_c, 0, 67, 89
2, 74790, Note_on_c, 0, 58, 72
2, 74791, Note_on_c, 0, 57, 0
2, 74805, Note_on_c, 0, 58, 0
2, 74805, Note_on_c, 0, 57, 64
2, 74816, Note_on_c, 0, 57, 0
2, 74820, Note_on_c, 0, 67, 0
2, 74820, Note_on_c, 0, 69, 85
2, 74820, Note_on_c, 0, 55, 98
2, 74849, Note_on_c, 0, 69, 0
2, 74850, Note_on_c, 0, 71, 89
2, 74850, Note_on_c, 0, 57, 85
2, 74851, Note_on_c, 0, 55, 0
2, 74879, Note_on_c, 0, 57, 0
2, 74880, Note_on_c, 0, 72, 80
2, 74880, Note_on_c, 0, 55, 89
2, 74881, Note_on_c, 0, 71, 0
2, 74992, Note_on_c, 0, 55, 0
2, 75002, Note_on_c, 0, 72, 0
2, 75360, Note_on_c, 0, 57, 85
2, 75387, Note_on_c, 0, 57, 0
2, 75390, Note_on_c, 0, 58, 76
2, 75420, Note_on_c, 0, 57, 76
2, 75422, Note_on_c, 0, 58, 0
2, 75449, Note_on_c, 0, 57, 0
2, 75450, Note_on_c, 0, 58, 64
2, 75480, Note_on_c, 0, 58, 0
2, 75480, Note_on_c, 0, 60, 76
2, 75508, Note_on_c, 0, 60, 0
2, 75510, Note_on_c, 0, 58, 68
2, 75540, Note_on_c, 0, 58, 0
2, 75540, Note_on_c, 0, 64, 89
2, 75540, Note_on_c, 0, 60, 85
2, 75570, Note_on_c, 0, 60, 0
2, 75570, Note_on_c, 0, 58, 89
2, 75598, Note_on_c, 0, 64, 0
2, 75600, Note_on_c, 0, 58, 0
2, 75600, Note_on_c, 0, 65, 85
2, 75600, Note_on_c, 0, 57, 80
2, 75630, Note_on_c, 0, 58, 72
2, 75635, Note_on_c, 0, 57, 0
2, 75652, Note_on_c, 0, 65, 0
2, 75659, Note_on_c, 0, 58, 0
2, 75660, Note_on_c, 0, 60, 80
2, 75660, Note_on_c, 0, 57, 80
2, 75690, Note_on_c, 0, 58, 76
2, 75692, Note_on_c, 0, 57, 0
2, 75718, Note_on_c, 0, 58, 0
2, 75720, Note_on_c, 0, 60, 80
2, 75722, Note_on_c, 0, 60, 0
2, 75750, Note_on_c, 0, 60, 0
2, 75750, Note_on_c, 0, 58, 76
2, 75777, Note_on_c, 0, 58, 0
2, 75780, Note_on_c, 0, 64, 98
2, 75780, Note_on_c, 0, 60, 80
2, 75809, Note_on_c, 0, 60, 0
2, 75810, Note_on_c, 0, 58, 76
2, 75833, Note_on_c, 0, 64, 0
2, 75840, Note_on_c, 0, 65, 89
2, 75840, Note_on_c, 0, 57, 89
2, 75845, Note_on_c, 0, 58, 0
2, 75896, Note_on_c, 0, 65, 0
2, 75900, Note_on_c, 0, 69, 102
2, 75916, Note_on_c, 0, 69, 0
2, 75954, Note_on_c, 0, 57, 0
2, 75960, Note_on_c, 0, 72, 93
2, 75990, Note_on_c, 0, 69, 89
2, 76016, Note_on_c, 0, 69, 0
2, 76020, Note_on_c, 0, 67, 76
2, 76049, Note_on_c, 0, 67, 0
2, 76050, Note_on_c, 0, 65, 72
2, 76079, Note_on_c, 0, 65, 0
2, 76080, Note_on_c, 0, 64, 80
2, 76110, Note_on_c, 0, 65, 76
2, 76111, Note_on_c, 0, 64, 0
2, 76140, Note_on_c, 0, 65, 0
2, 76140, Note_on_c, 0, 64, 76
2, 76170, Note_on_c, 0, 62, 76
2, 76172, Note_on_c, 0, 64, 0
2, 76180, Note_on_c, 0, 72, 0
2, 76199, Note_on_c, 0, 62, 0
2, 76200, Note_on_c, 0, 65, 72
2, 76200, Note_on_c, 0, 60, 72
2, 76215, Note_on_c, 0, 65, 0
2, 76215, Note_on_c, 0, 64, 64
2, 76228, Note_on_c, 0, 64, 0
2, 76230, Note_on_c, 0, 60, 0
2, 76230, Note_on_c, 0, 65, 85
2, 76230, Note_on_c, 0, 62, 76
2, 76243, Note_on_c, 0, 65, 0
2, 76245, Note_on_c, 0, 64, 68
2, 76257, Note_on_c, 0, 62, 0
2, 76258, Note_on_c, 0, 64, 0
2, 76260, Note_on_c, 0, 65, 76
2, 76260, Note_on_c, 0, 60, 76
2, 76275, Note_on_c, 0, 65, 0
2, 76275, Note_on_c, 0, 64, 76
2, 76289, Note_on_c, 0, 64, 0
2, 76290, Note_on_c, 0, 62, 64
2, 76290, Note_on_c, 0, 58, 72
2, 76293, Note_on_c, 0, 60, 0
2, 76305, Note_on_c, 0, 62, 0
2, 76305, Note_on_c, 0, 64, 85
2, 76316, Note_on_c, 0, 64, 0
2, 76319, Note_on_c, 0, 58, 0
2, 76320, Note_on_c, 0, 65, 80
2, 76320, Note_on_c, 0, 57, 76
2, 76350, Note_on_c, 0, 58, 80
2, 76351, Note_on_c, 0, 57, 0
2, 76375, Note_on_c, 0, 65, 0
2, 76380, Note_on_c, 0, 60, 93
2, 76380, Note_on_c, 0, 57, 76
2, 76382, Note_on_c, 0, 58, 0
2, 76409, Note_on_c, 0, 57, 0
2, 76410, Note_on_c, 0, 58, 76
2, 76433, Note_on_c, 0, 60, 0
2, 76439, Note_on_c, 0, 58, 0
2, 76440, Note_on_c, 0, 60, 80
2, 76469, Note_on_c, 0, 60, 0
2, 76470, Note_on_c, 0, 58, 76
2, 76499, Note_on_c, 0, 58, 0
2, 76500, Note_on_c, 0, 64, 89
2, 76500, Note_on_c, 0, 60, 76
2, 76530, Note_on_c, 0, 60, 0
2, 76530, Note_on_c, 0, 58, 72
2, 76556, Note_on_c, 0, 64, 0
2, 76560, Note_on_c, 0, 58, 0
2, 76560, Note_on_c, 0, 65, 89
2, 76560, Note_on_c, 0, 57, 68
2, 76590, Note_on_c, 0, 58, 72
2, 76592, Note_on_c, 0, 57, 0
2, 76618, Note_on_c, 0, 65, 0
2, 76620, Note_on_c, 0, 58, 0
2, 76620, Note_on_c, 0, 60, 80
2, 76620, Note_on_c, 0, 57, 80
2, 76648, Note_on_c, 0, 57, 0
2, 76650, Note_on_c, 0, 58, 72
2, 76679, Note_on_c, 0, 58, 0
2, 76680, Note_on_c, 0, 60, 85
2, 76688, Note_on_c, 0, 60, 0
2, 76710, Note_on_c, 0, 60, 0
2, 76710, Note_on_c, 0, 58, 68
2, 76739, Note_on_c, 0, 58, 0
2, 76740, Note_on_c, 0, 64, 93
2, 76740, Note_on_c, 0, 60, 80
2, 76770, Note_on_c, 0, 60, 0
2, 76770, Note_on_c, 0, 58, 80
2, 76795, Note_on_c, 0, 64, 0
2, 76798, Note_on_c, 0, 58, 0
2, 76800, Note_on_c, 0, 65, 80
2, 76800, Note_on_c, 0, 57, 89
2, 76859, Note_on_c, 0, 65, 0
2, 76860, Note_on_c, 0, 69, 107
2, 76873, Note_on_c, 0, 69, 0
2, 76920, Note_on_c, 0, 72, 93
2, 76924, Note_on_c, 0, 57, 0
2, 76950, Note_on_c, 0, 69, 89
2, 76979, Note_on_c, 0, 69, 0
2, 76980, Note_on_c, 0, 67, 89
2, 77010, Note_on_c, 0, 67, 0
2, 77010, Note_on_c, 0, 65, 68
2, 77040, Note_on_c, 0, 64, 89
2, 77041, Note_on_c, 0, 65, 0
2, 77068, Note_on_c, 0, 64, 0
2, 77070, Note_on_c, 0, 65, 80
2, 77100, Note_on_c, 0, 65, 0
2, 77100, Note_on_c, 0, 64, 80
2, 77130, Note_on_c, 0, 64, 0
2, 77130, Note_on_c, 0, 62, 76
2, 77137, Note_on_c, 0, 72, 0
2, 77159, Note_on_c, 0, 62, 0
2, 77160, Note_on_c, 0, 65, 89
2, 77160, Note_on_c, 0, 60, 76
2, 77174, Note_on_c, 0, 65, 0
2, 77175, Note_on_c, 0, 64, 76
2, 77190, Note_on_c, 0, 64, 0
2, 77190, Note_on_c, 0, 65, 80
2, 77190, Note_on_c, 0, 62, 68
2, 77193, Note_on_c, 0, 60, 0
2, 77202, Note_on_c, 0, 65, 0
2, 77205, Note_on_c, 0, 64, 68
2, 77219, Note_on_c, 0, 64, 0
2, 77219, Note_on_c, 0, 62, 0
2, 77220, Note_on_c, 0, 65, 76
2, 77220, Note_on_c, 0, 60, 80
2, 77234, Note_on_c, 0, 65, 0
2, 77235, Note_on_c, 0, 64, 64
2, 77249, Note_on_c, 0, 60, 0
2, 77250, Note_on_c, 0, 64, 0
2, 77250, Note_on_c, 0, 62, 76
2, 77250, Note_on_c, 0, 58, 76
2, 77265, Note_on_c, 0, 64, 85
2, 77266, Note_on_c, 0, 62, 0
2, 77277, Note_on_c, 0, 64, 0
2, 77280, Note_on_c, 0, 58, 0
2, 77280, Note_on_c, 0, 65, 89
2, 77280, Note_on_c, 0, 57, 76
2, 77310, Note_on_c, 0, 57, 0
2, 77310, Note_on_c, 0, 58, 76
2, 77339, Note_on_c, 0, 58, 0
2, 77340, Note_on_c, 0, 57, 76
2, 77369, Note_on_c, 0, 57, 0
2, 77370, Note_on_c, 0, 58, 76
2, 77400, Note_on_c, 0, 58, 0
2, 77400, Note_on_c, 0, 60, 76
2, 77428, Note_on_c, 0, 60, 0
2, 77430, Note_on_c, 0, 58, 72
2, 77459, Note_on_c, 0, 58, 0
2, 77460, Note_on_c, 0, 60, 72
2, 77490, Note_on_c, 0, 60, 0
2, 77490, Note_on_c, 0, 57, 76
2, 77514, Note_on_c, 0, 65, 0
2, 77520, Note_on_c, 0, 64, 93
2, 77520, Note_on_c, 0, 58, 76
2, 77521, Note_on_c, 0, 57, 0
2, 77548, Note_on_c, 0, 58, 0
2, 77550, Note_on_c, 0, 60, 80
2, 77580, Note_on_c, 0, 58, 76
2, 77584, Note_on_c, 0, 60, 0
2, 77609, Note_on_c, 0, 58, 0
2, 77610, Note_on_c, 0, 60, 80
2, 77640, Note_on_c, 0, 61, 80
2, 77641, Note_on_c, 0, 60, 0
2, 77669, Note_on_c, 0, 61, 0
2, 77670, Note_on_c, 0, 60, 62
2, 77700, Note_on_c, 0, 61, 76
2, 77702, Note_on_c, 0, 60, 0
2, 77730, Note_on_c, 0, 58, 80
2, 77733, Note_on_c, 0, 61, 0
2, 77741, Note_on_c, 0, 64, 0
2, 77757, Note_on_c, 0, 58, 0
2, 77760, Note_on_c, 0, 65, 89
2, 77760, Note_on_c, 0, 60, 89
2, 77775, Note_on_c, 0, 65, 0
2, 77775, Note_on_c, 0, 63, 85
2, 77788, Note_on_c, 0, 63, 0
2, 77790, Note_on_c, 0, 65, 55
2, 77790, Note_on_c, 0, 58, 76
2, 77791, Note_on_c, 0, 60, 0
2, 77804, Note_on_c, 0, 65, 0
2, 77805, Note_on_c, 0, 63, 68
2, 77818, Note_on_c, 0, 63, 0
2, 77819, Note_on_c, 0, 58, 0
2, 77820, Note_on_c, 0, 65, 76
2, 77820, Note_on_c, 0, 60, 80
2, 77835, Note_on_c, 0, 65, 0
2, 77835, Note_on_c, 0, 63, 64
2, 77849, Note_on_c, 0, 63, 0
2, 77850, Note_on_c, 0, 60, 0
2, 77850, Note_on_c, 0, 65, 64
2, 77850, Note_on_c, 0, 58, 72
2, 77863, Note_on_c, 0, 65, 0
2, 77865, Note_on_c, 0, 63, 76
2, 77878, Note_on_c, 0, 63, 0
2, 77880, Note_on_c, 0, 58, 0
2, 77880, Note_on_c, 0, 65, 80
2, 77880, Note_on_c, 0, 57, 80
2, 77895, Note_on_c, 0, 65, 0
2, 77895, Note_on_c, 0, 63, 68
2, 77909, Note_on_c, 0, 63, 0
2, 77909, Note_on_c, 0, 57, 0
2, 77910, Note_on_c, 0, 65, 76
2, 77910, Note_on_c, 0, 58, 68
2, 77924, Note_on_c, 0, 65, 0
2, 77925, Note_on_c, 0, 63, 76
2, 77940, Note_on_c, 0, 63, 0
2, 77940, Note_on_c, 0, 62, 89
2, 77940, Note_on_c, 0, 57, 72
2, 77942, Note_on_c, 0, 58, 0
2, 77968, Note_on_c, 0, 62, 0
2, 77970, Note_on_c, 0, 63, 76
2, 77970, Note_on_c, 0, 60, 80
2, 77971, Note_on_c, 0, 57, 0
2, 77998, Note_on_c, 0, 63, 0
2, 78000, Note_on_c, 0, 62, 80
2, 78000, Note_on_c, 0, 58, 68
2, 78001, Note_on_c, 0, 60, 0
2, 78029, Note_on_c, 0, 58, 0
2, 78029, Note_on_c, 0, 62, 0
2, 78030, Note_on_c, 0, 63, 80
2, 78030, Note_on_c, 0, 60, 80
2, 78060, Note_on_c, 0, 63, 0
2, 78060, Note_on_c, 0, 62, 72
2, 78060, Note_on_c, 0, 58, 76
2, 78062, Note_on_c, 0, 60, 0
2, 78089, Note_on_c, 0, 62, 0
2, 78090, Note_on_c, 0, 63, 76
2, 78090, Note_on_c, 0, 60, 85
2, 78091, Note_on_c, 0, 58, 0
2, 78118, Note_on_c, 0, 63, 0
2, 78120, Note_on_c, 0, 65, 89
2, 78120, Note_on_c, 0, 62, 89
2, 78121, Note_on_c, 0, 60, 0
2, 78147, Note_on_c, 0, 65, 0
2, 78150, Note_on_c, 0, 63, 72
2, 78150, Note_on_c, 0, 60, 76
2, 78151, Note_on_c, 0, 62, 0
2, 78177, Note_on_c, 0, 63, 0
2, 78180, Note_on_c, 0, 65, 89
2, 78180, Note_on_c, 0, 62, 80
2, 78181, Note_on_c, 0, 60, 0
2, 78207, Note_on_c, 0, 65, 0
2, 78210, Note_on_c, 0, 62, 72
2, 78210, Note_on_c, 0, 58, 72
2, 78213, Note_on_c, 0, 62, 0
2, 78239, Note_on_c, 0, 62, 0
2, 78240, Note_on_c, 0, 72, 80
2, 78240, Note_on_c, 0, 60, 80
2, 78241, Note_on_c, 0, 58, 0
2, 78269, Note_on_c, 0, 60, 0
2, 78270, Note_on_c, 0, 62, 72
2, 78298, Note_on_c, 0, 62, 0
2, 78300, Note_on_c, 0, 60, 72
2, 78330, Note_on_c, 0, 60, 0
2, 78330, Note_on_c, 0, 62, 85
2, 78359, Note_on_c, 0, 62, 0
2, 78360, Note_on_c, 0, 64, 85
2, 78390, Note_on_c, 0, 64, 0
2, 78390, Note_on_c, 0, 62, 80
2, 78419, Note_on_c, 0, 62, 0
2, 78420, Note_on_c, 0, 64, 89
2, 78450, Note_on_c, 0, 64, 0
2, 78450, Note_on_c, 0, 60, 76
2, 78480, Note_on_c, 0, 71, 85
2, 78480, Note_on_c, 0, 62, 89
2, 78481, Note_on_c, 0, 60, 0
2, 78509, Note_on_c, 0, 62, 0
2, 78510, Note_on_c, 0, 64, 80
2, 78540, Note_on_c, 0, 62, 76
2, 78541, Note_on_c, 0, 64, 0
2, 78569, Note_on_c, 0, 62, 0
2, 78570, Note_on_c, 0, 64, 76
2, 78600, Note_on_c, 0, 65, 89
2, 78601, Note_on_c, 0, 64, 0
2, 78629, Note_on_c, 0, 65, 0
2, 78630, Note_on_c, 0, 64, 80
2, 78660, Note_on_c, 0, 64, 0
2, 78660, Note_on_c, 0, 65, 89
2, 78690, Note_on_c, 0, 62, 76
2, 78694, Note_on_c, 0, 65, 0
2, 78707, Note_on_c, 0, 71, 0
2, 78720, Note_on_c, 0, 62, 0
2, 78720, Note_on_c, 0, 70, 85
2, 78720, Note_on_c, 0, 64, 93
2, 78749, Note_on_c, 0, 64, 0
2, 78750, Note_on_c, 0, 65, 64
2, 78780, Note_on_c, 0, 64, 76
2, 78781, Note_on_c, 0, 65, 0
2, 78808, Note_on_c, 0, 64, 0
2, 78810, Note_on_c, 0, 65, 85
2, 78840, Note_on_c, 0, 65, 0
2, 78840, Note_on_c, 0, 67, 89
2, 78869, Note_on_c, 0, 67, 0
2, 78870, Note_on_c, 0, 65, 80
2, 78891, Note_on_c, 0, 70, 0
2, 78899, Note_on_c, 0, 65, 0
2, 78900, Note_on_c, 0, 69, 76
2, 78900, Note_on_c, 0, 67, 89
2, 78930, Note_on_c, 0, 69, 0
2, 78930, Note_on_c, 0, 70, 72
2, 78930, Note_on_c, 0, 64, 85
2, 78931, Note_on_c, 0, 67, 0
2, 78960, Note_on_c, 0, 64, 0
2, 78960, Note_on_c, 0, 68, 76
2, 78960, Note_on_c, 0, 65, 85
2, 78962, Note_on_c, 0, 70, 0
2, 78989, Note_on_c, 0, 65, 0
2, 78990, Note_on_c, 0, 67, 89
2, 79020, Note_on_c, 0, 67, 0
2, 79020, Note_on_c, 0, 65, 89
2, 79048, Note_on_c, 0, 65, 0
2, 79050, Note_on_c, 0, 67, 93
2, 79074, Note_on_c, 0, 68, 0
2, 79080, Note_on_c, 0, 68, 76
2, 79081, Note_on_c, 0, 67, 0
2, 79109, Note_on_c, 0, 68, 0
2, 79110, Note_on_c, 0, 67, 89
2, 79140, Note_on_c, 0, 68, 80
2, 79142, Note_on_c, 0, 67, 0
2, 79159, Note_on_c, 0, 72, 0
2, 79170, Note_on_c, 0, 65, 76
2, 79171, Note_on_c, 0, 68, 0
2, 79197, Note_on_c, 0, 65, 0
2, 79200, Note_on_c, 0, 68, 76
2, 79200, Note_on_c, 0, 66, 68
2, 79200, Note_on_c, 0, 60, 68
2, 79228, Note_on_c, 0, 60, 0
2, 79230, Note_on_c, 0, 61, 80
2, 79260, Note_on_c, 0, 61, 0
2, 79260, Note_on_c, 0, 60, 80
2, 79289, Note_on_c, 0, 60, 0
2, 79290, Note_on_c, 0, 61, 89
2, 79319, Note_on_c, 0, 61, 0
2, 79320, Note_on_c, 0, 63, 85
2, 79349, Note_on_c, 0, 63, 0
2, 79350, Note_on_c, 0, 61, 76
2, 79379, Note_on_c, 0, 61, 0
2, 79380, Note_on_c, 0, 63, 76
2, 79410, Note_on_c, 0, 60, 80
2, 79414, Note_on_c, 0, 63, 0
2, 79426, Note_on_c, 0, 66, 0
2, 79439, Note_on_c, 0, 60, 0
2, 79440, Note_on_c, 0, 65, 80
2, 79440, Note_on_c, 0, 61, 76
2, 79470, Note_on_c, 0, 61, 0
2, 79470, Note_on_c, 0, 65, 80
2, 79500, Note_on_c, 0, 63, 80
2, 79503, Note_on_c, 0, 65, 0
2, 79507, Note_on_c, 0, 65, 0
2, 79530, Note_on_c, 0, 63, 0
2, 79530, Note_on_c, 0, 61, 89
2, 79559, Note_on_c, 0, 61, 0
2, 79560, Note_on_c, 0, 60, 89
2, 79589, Note_on_c, 0, 60, 0
2, 79590, Note_on_c, 0, 63, 72
2, 79620, Note_on_c, 0, 61, 85
2, 79623, Note_on_c, 0, 63, 0
2, 79648, Note_on_c, 0, 61, 0
2, 79650, Note_on_c, 0, 60, 76
2, 79680, Note_on_c, 0, 61, 89
2, 79682, Note_on_c, 0, 60, 0
2, 79709, Note_on_c, 0, 61, 0
2, 79710, Note_on_c, 0, 65, 89
2, 79716, Note_on_c, 0, 68, 0
2, 79739, Note_on_c, 0, 65, 0
2, 79740, Note_on_c, 0, 69, 93
2, 79740, Note_on_c, 0, 63, 80
2, 79770, Note_on_c, 0, 65, 85
2, 79772, Note_on_c, 0, 63, 0
2, 79799, Note_on_c, 0, 65, 0
2, 79800, Note_on_c, 0, 69, 0
2, 79800, Note_on_c, 0, 70, 85
2, 79800, Note_on_c, 0, 62, 89
2, 79830, Note_on_c, 0, 62, 0
2, 79830, Note_on_c, 0, 65, 85
2, 79860, Note_on_c, 0, 63, 64
2, 79864, Note_on_c, 0, 65, 0
2, 79890, Note_on_c, 0, 63, 0
2, 79890, Note_on_c, 0, 62, 76
2, 79920, Note_on_c, 0, 63, 85
2, 79923, Note_on_c, 0, 62, 0
2, 79950, Note_on_c, 0, 67, 89
2, 79952, Note_on_c, 0, 63, 0
2, 79975, Note_on_c, 0, 67, 0
2, 79980, Note_on_c, 0, 65, 80
2, 80010, Note_on_c, 0, 65, 0
2, 80010, Note_on_c, 0, 63, 80
2, 80040, Note_on_c, 0, 62, 76
2, 80042, Note_on_c, 0, 63, 0
2, 80069, Note_on_c, 0, 62, 0
2, 80070, Note_on_c, 0, 65, 89
2, 80100, Note_on_c, 0, 63, 64
2, 80101, Note_on_c, 0, 65, 0
2, 80130, Note_on_c, 0, 62, 89
2, 80131, Note_on_c, 0, 63, 0
2, 80159, Note_on_c, 0, 62, 0
2, 80160, Note_on_c, 0, 63, 93
2, 80189, Note_on_c, 0, 63, 0
2, 80190, Note_on_c, 0, 67, 89
2, 80198, Note_on_c, 0, 70, 0
2, 80217, Note_on_c, 0, 67, 0
2, 80220, Note_on_c, 0, 71, 89
2, 80220, Note_on_c, 0, 65, 76
2, 80250, Note_on_c, 0, 67, 89
2, 80253, Note_on_c, 0, 65, 0
2, 80279, Note_on_c, 0, 67, 0
2, 80280, Note_on_c, 0, 72, 89
2, 80280, Note_on_c, 0, 64, 93
2, 80282, Note_on_c, 0, 71, 0
2, 80310, Note_on_c, 0, 67, 93
2, 80311, Note_on_c, 0, 64, 0
2, 80340, Note_on_c, 0, 65, 89
2, 80342, Note_on_c, 0, 67, 0
2, 80370, Note_on_c, 0, 65, 0
2, 80370, Note_on_c, 0, 64, 80
2, 80400, Note_on_c, 0, 65, 93
2, 80402, Note_on_c, 0, 64, 0
2, 80430, Note_on_c, 0, 68, 93
2, 80431, Note_on_c, 0, 65, 0
2, 80460, Note_on_c, 0, 67, 80
2, 80464, Note_on_c, 0, 68, 0
2, 80490, Note_on_c, 0, 65, 89
2, 80491, Note_on_c, 0, 67, 0
2, 80520, Note_on_c, 0, 64, 93
2, 80521, Note_on_c, 0, 65, 0
2, 80550, Note_on_c, 0, 67, 89
2, 80552, Note_on_c, 0, 64, 0
2, 80580, Note_on_c, 0, 65, 93
2, 80581, Note_on_c, 0, 67, 0
2, 80610, Note_on_c, 0, 64, 80
2, 80611, Note_on_c, 0, 65, 0
2, 80638, Note_on_c, 0, 64, 0
2, 80640, Note_on_c, 0, 65, 93
2, 80653, Note_on_c, 0, 72, 0
2, 80670, Note_on_c, 0, 65, 80
2, 80700, Note_on_c, 0, 65, 0
2, 80700, Note_on_c, 0, 67, 89
2, 80702, Note_on_c, 0, 65, 0
2, 80729, Note_on_c, 0, 67, 0
2, 80730, Note_on_c, 0, 65, 72
2, 80759, Note_on_c, 0, 65, 0
2, 80760, Note_on_c, 0, 69, 89
2, 80760, Note_on_c, 0, 60, 98
2, 80760, Note_on_c, 0, 57, 93
2, 80790, Note_on_c, 0, 65, 76
2, 80793, Note_on_c, 0, 69, 0
2, 80816, Note_on_c, 0, 65, 0
2, 80820, Note_on_c, 0, 57, 0
2, 80820, Note_on_c, 0, 67, 89
2, 80821, Note_on_c, 0, 60, 0
2, 80850, Note_on_c, 0, 65, 80
2, 80851, Note_on_c, 0, 67, 0
2, 80880, Note_on_c, 0, 65, 0
2, 80880, Note_on_c, 0, 70, 93
2, 80880, Note_on_c, 0, 62, 98
2, 80880, Note_on_c, 0, 58, 85
2, 80910, Note_on_c, 0, 65, 68
2, 80917, Note_on_c, 0, 70, 0
2, 80937, Note_on_c, 0, 65, 0
2, 80939, Note_on_c, 0, 62, 0
2, 80940, Note_on_c, 0, 67, 76
2, 80943, Note_on_c, 0, 58, 0
2, 80970, Note_on_c, 0, 65, 76
2, 80971, Note_on_c, 0, 67, 0
2, 80999, Note_on_c, 0, 65, 0
2, 81000, Note_on_c, 0, 71, 89
2, 81000, Note_on_c, 0, 65, 89
2, 81000, Note_on_c, 0, 59, 89
2, 81030, Note_on_c, 0, 65, 76
2, 81033, Note_on_c, 0, 71, 0
2, 81059, Note_on_c, 0, 65, 0
2, 81060, Note_on_c, 0, 67, 89
2, 81063, Note_on_c, 0, 65, 0
2, 81066, Note_on_c, 0, 59, 0
2, 81090, Note_on_c, 0, 65, 76
2, 81094, Note_on_c, 0, 67, 0
2, 81119, Note_on_c, 0, 65, 0
2, 81120, Note_on_c, 0, 72, 93
2, 81120, Note_on_c, 0, 57, 93
2, 81120, Note_on_c, 0, 53, 80
2, 81120, Note_on_c, 0, 60, 89
2, 81120, Note_on_c, 0, 65, 85
2, 81234, Note_on_c, 0, 72, 0
2, 81240, Note_on_c, 0, 65, 0
2, 81241, Note_on_c, 0, 60, 0
2, 81242, Note_on_c, 0, 57, 0
2, 81244, Note_on_c, 0, 53, 0
2, 81270, Note_on_c, 0, 57, 93
2, 81270, Note_on_c, 0, 53, 85
2, 81299, Note_on_c, 0, 53, 0
2, 81300, Note_on_c, 0, 58, 80
2, 81300, Note_on_c, 0, 55, 89
2, 81301, Note_on_c, 0, 57, 0
2, 81328, Note_on_c, 0, 58, 0
2, 81330, Note_on_c, 0, 55, 0
2, 81330, Note_on_c, 0, 60, 85
2, 81330, Note_on_c, 0, 57, 57
2, 81360, Note_on_c, 0, 62, 76
2, 81360, Note_on_c, 0, 58, 89
2, 81362, Note_on_c, 0, 57, 0
2, 81369, Note_on_c, 0, 60, 0
2, 81386, Note_on_c, 0, 58, 0
2, 81389, Note_on_c, 0, 62, 0
2, 81390, Note_on_c, 0, 64, 80
2, 81390, Note_on_c, 0, 60, 89
2, 81416, Note_on_c, 0, 64, 0
2, 81418, Note_on_c, 0, 60, 0
2, 81420, Note_on_c, 0, 65, 76
2, 81420, Note_on_c, 0, 62, 76
2, 81449, Note_on_c, 0, 65, 0
2, 81450, Note_on_c, 0, 67, 80
2, 81450, Note_on_c, 0, 64, 80
2, 81456, Note_on_c, 0, 62, 0
2, 81479, Note_on_c, 0, 64, 0
2, 81479, Note_on_c, 0, 67, 0
2, 81480, Note_on_c, 0, 70, 76
2, 81480, Note_on_c, 0, 67, 80
2, 81491, Note_on_c, 0, 70, 0
2, 81495, Note_on_c, 0, 69, 62
2, 81495, Note_on_c, 0, 65, 76
2, 81496, Note_on_c, 0, 67, 0
2, 81510, Note_on_c, 0, 69, 0
2, 81510, Note_on_c, 0, 67, 93
2, 81510, Note_on_c, 0, 64, 89
2, 81514, Note_on_c, 0, 65, 0
2, 81538, Note_on_c, 0, 64, 0
2, 81540, Note_on_c, 0, 67, 0
2, 81540, Note_on_c, 0, 69, 93
2, 81540, Note_on_c, 0, 65, 93
2, 81570, Note_on_c, 0, 70, 89
2, 81570, Note_on_c, 0, 67, 85
2, 81571, Note_on_c, 0, 65, 0
2, 81572, Note_on_c, 0, 69, 0
2, 81597, Note_on_c, 0, 67, 0
2, 81599, Note_on_c, 0, 70, 0
2, 81600, Note_on_c, 0, 72, 93
2, 81600, Note_on_c, 0, 69, 62
2, 81713, Note_on_c, 0, 69, 0
2, 81713, Note_on_c, 0, 72, 0
2, 81750, Note_on_c, 0, 57, 102
2, 81750, Note_on_c, 0, 53, 93
2, 81779, Note_on_c, 0, 53, 0
2, 81779, Note_on_c, 0, 57, 0
2, 81780, Note_on_c, 0, 58, 76
2, 81780, Note_on_c, 0, 55, 93
2, 81806, Note_on_c, 0, 58, 0
2, 81810, Note_on_c, 0, 60, 93
2, 81810, Note_on_c, 0, 57, 85
2, 81811, Note_on_c, 0, 55, 0
2, 81839, Note_on_c, 0, 60, 0
2, 81840, Note_on_c, 0, 62, 89
2, 81840, Note_on_c, 0, 58, 89
2, 81841, Note_on_c, 0, 57, 0
2, 81866, Note_on_c, 0, 58, 0
2, 81869, Note_on_c, 0, 62, 0
2, 81870, Note_on_c, 0, 64, 89
2, 81870, Note_on_c, 0, 60, 89
2, 81897, Note_on_c, 0, 64, 0
2, 81899, Note_on_c, 0, 60, 0
2, 81900, Note_on_c, 0, 65, 76
2, 81900, Note_on_c, 0, 62, 80
2, 81927, Note_on_c, 0, 65, 0
2, 81929, Note_on_c, 0, 62, 0
2, 81930, Note_on_c, 0, 67, 68
2, 81930, Note_on_c, 0, 64, 89
2, 81957, Note_on_c, 0, 64, 0
2, 81959, Note_on_c, 0, 67, 0
2, 81960, Note_on_c, 0, 69, 89
2, 81960, Note_on_c, 0, 65, 72
2, 81990, Note_on_c, 0, 70, 76
2, 81990, Note_on_c, 0, 67, 89
2, 81992, Note_on_c, 0, 65, 0
2, 81993, Note_on_c, 0, 69, 0
2, 82018, Note_on_c, 0, 70, 0
2, 82020, Note_on_c, 0, 71, 76
2, 82020, Note_on_c, 0, 68, 85
2, 82021, Note_on_c, 0, 67, 0
2, 82050, Note_on_c, 0, 71, 0
2, 82050, Note_on_c, 0, 72, 89
2, 82050, Note_on_c, 0, 69, 76
2, 82051, Note_on_c, 0, 68, 0
2, 82079, Note_on_c, 0, 69, 0
2, 82079, Note_on_c, 0, 72, 0
2, 82080, Note_on_c, 0, 74, 98
2, 82080, Note_on_c, 0, 68, 85
2, 82080, Note_on_c, 0, 65, 89
2, 82312, Note_on_c, 0, 74, 0
2, 82320, Note_on_c, 0, 72, 80
2, 82429, Note_on_c, 0, 72, 0
2, 82440, Note_on_c, 0, 71, 93
2, 82533, Note_on_c, 0, 68, 0
2, 82554, Note_on_c, 0, 71, 0
2, 82560, Note_on_c, 0, 72, 80
2, 82560, Note_on_c, 0, 69, 89
2, 82560, Note_on_c, 0, 69, 93
2, 82798, Note_on_c, 0, 69, 0
2, 82848, Note_on_c, 0, 69, 0
2, 82852, Note_on_c, 0, 72, 0
2, 82860, Note_on_c, 0, 71, 80
2, 82860, Note_on_c, 0, 68, 76
2, 82912, Note_on_c, 0, 68, 0
2, 82920, Note_on_c, 0, 70, 85
2, 82920, Note_on_c, 0, 67, 89
2, 82922, Note_on_c, 0, 71, 0
2, 82933, Note_on_c, 0, 65, 0
2, 82976, Note_on_c, 0, 67, 0
2, 82980, Note_on_c, 0, 69, 89
2, 82980, Note_on_c, 0, 65, 98
2, 82981, Note_on_c, 0, 70, 0
2, 83028, Note_on_c, 0, 65, 0
2, 83028, Note_on_c, 0, 69, 0
2, 83040, Note_on_c, 0, 69, 89
2, 83040, Note_on_c, 0, 65, 89
2, 83055, Note_on_c, 0, 67, 72
2, 83055, Note_on_c, 0, 64, 89
2, 83057, Note_on_c, 0, 65, 0
2, 83060, Note_on_c, 0, 69, 0
2, 83068, Note_on_c, 0, 67, 0
2, 83069, Note_on_c, 0, 64, 0
2, 83070, Note_on_c, 0, 69, 80
2, 83070, Note_on_c, 0, 65, 85
2, 83085, Note_on_c, 0, 65, 0
2, 83085, Note_on_c, 0, 67, 76
2, 83085, Note_on_c, 0, 64, 76
2, 83087, Note_on_c, 0, 69, 0
2, 83097, Note_on_c, 0, 67, 0
2, 83098, Note_on_c, 0, 64, 0
2, 83100, Note_on_c, 0, 69, 76
2, 83100, Note_on_c, 0, 65, 89
2, 83114, Note_on_c, 0, 65, 0
2, 83114, Note_on_c, 0, 69, 0
2, 83115, Note_on_c, 0, 67, 68
2, 83115, Note_on_c, 0, 64, 64
2, 83128, Note_on_c, 0, 64, 0
2, 83128, Note_on_c, 0, 67, 0
2, 83130, Note_on_c, 0, 69, 72
2, 83130, Note_on_c, 0, 65, 89
2, 83144, Note_on_c, 0, 65, 0
2, 83145, Note_on_c, 0, 69, 0
2, 83145, Note_on_c, 0, 67, 76
2, 83145, Note_on_c, 0, 64, 80
2, 83158, Note_on_c, 0, 67, 0
2, 83160, Note_on_c, 0, 64, 0
2, 83160, Note_on_c, 0, 69, 76
2, 83160, Note_on_c, 0, 65, 89
2, 83174, Note_on_c, 0, 65, 0
2, 83174, Note_on_c, 0, 69, 0
2, 83175, Note_on_c, 0, 67, 72
2, 83175, Note_on_c, 0, 64, 76
2, 83190, Note_on_c, 0, 67, 0
2, 83190, Note_on_c, 0, 69, 62
2, 83190, Note_on_c, 0, 65, 85
2, 83191, Note_on_c, 0, 64, 0
2, 83204, Note_on_c, 0, 69, 0
2, 83205, Note_on_c, 0, 65, 0
2, 83205, Note_on_c, 0, 67, 64
2, 83205, Note_on_c, 0, 64, 76
2, 83219, Note_on_c, 0, 64, 0
2, 83219, Note_on_c, 0, 67, 0
2, 83220, Note_on_c, 0, 69, 72
2, 83220, Note_on_c, 0, 65, 85
2, 83234, Note_on_c, 0, 69, 0
2, 83235, Note_on_c, 0, 65, 0
2, 83235, Note_on_c, 0, 67, 76
2, 83235, Note_on_c, 0, 64, 76
2, 83250, Note_on_c, 0, 64, 0
2, 83250, Note_on_c, 0, 67, 0
2, 83250, Note_on_c, 0, 69, 62
2, 83250, Note_on_c, 0, 65, 85
2, 83265, Note_on_c, 0, 69, 0
2, 83265, Note_on_c, 0, 67, 72
2, 83265, Note_on_c, 0, 64, 80
2, 83266, Note_on_c, 0, 65, 0
2, 83280, Note_on_c, 0, 64, 0
2, 83280, Note_on_c, 0, 67, 0
2, 83280, Note_on_c, 0, 69, 76
2, 83280, Note_on_c, 0, 65, 85
2, 83294, Note_on_c, 0, 69, 0
2, 83295, Note_on_c, 0, 67, 80
2, 83295, Note_on_c, 0, 64, 80
2, 83297, Note_on_c, 0, 65, 0
2, 83309, Note_on_c, 0, 64, 0
2, 83310, Note_on_c, 0, 67, 0
2, 83310, Note_on_c, 0, 69, 60
2, 83310, Note_on_c, 0, 65, 89
2, 83325, Note_on_c, 0, 67, 72
2, 83325, Note_on_c, 0, 64, 85
2, 83326, Note_on_c, 0, 65, 0
2, 83326, Note_on_c, 0, 69, 0
2, 83340, Note_on_c, 0, 69, 76
2, 83340, Note_on_c, 0, 65, 89
2, 83341, Note_on_c, 0, 67, 0
2, 83342, Note_on_c, 0, 64, 0
2, 83355, Note_on_c, 0, 67, 60
2, 83355, Note_on_c, 0, 64, 68
2, 83356, Note_on_c, 0, 69, 0
2, 83357, Note_on_c, 0, 65, 0
2, 83369, Note_on_c, 0, 64, 0
2, 83370, Note_on_c, 0, 69, 72
2, 83370, Note_on_c, 0, 65, 89
2, 83371, Note_on_c, 0, 67, 0
2, 83385, Note_on_c, 0, 65, 0
2, 83385, Note_on_c, 0, 67, 72
2, 83385, Note_on_c, 0, 64, 72
2, 83387, Note_on_c, 0, 69, 0
2, 83400, Note_on_c, 0, 69, 76
2, 83400, Note_on_c, 0, 65, 89
2, 83401, Note_on_c, 0, 64, 0
2, 83401, Note_on_c, 0, 67, 0
2, 83415, Note_on_c, 0, 67, 80
2, 83415, Note_on_c, 0, 64, 80
2, 83416, Note_on_c, 0, 65, 0
2, 83418, Note_on_c, 0, 69, 0
2, 83427, Note_on_c, 0, 64, 0
2, 83430, Note_on_c, 0, 69, 85
2, 83430, Note_on_c, 0, 65, 89
2, 83432, Note_on_c, 0, 67, 0
2, 83443, Note_on_c, 0, 65, 0
2, 83444, Note_on_c, 0, 69, 0
2, 83445, Note_on_c, 0, 67, 85
2, 83445, Note_on_c, 0, 64, 72
2, 83459, Note_on_c, 0, 67, 0
2, 83460, Note_on_c, 0, 64, 0
2, 83460, Note_on_c, 0, 69, 85
2, 83460, Note_on_c, 0, 65, 93
2, 83475, Note_on_c, 0, 65, 0
2, 83475, Note_on_c, 0, 69, 0
2, 83475, Note_on_c, 0, 67, 64
2, 83475, Note_on_c, 0, 64, 68
2, 83489, Note_on_c, 0, 67, 0
2, 83490, Note_on_c, 0, 65, 72
2, 83490, Note_on_c, 0, 62, 80
2, 83491, Note_on_c, 0, 64, 0
2, 83505, Note_on_c, 0, 62, 0
2, 83505, Note_on_c, 0, 65, 0
2, 83505, Note_on_c, 0, 67, 89
2, 83505, Note_on_c, 0, 64, 76
2, 83516, Note_on_c, 0, 64, 0
2, 83518, Note_on_c, 0, 67, 0
2, 83520, Note_on_c, 0, 64, 53
2, 83549, Note_on_c, 0, 64, 0
2, 83550, Note_on_c, 0, 65, 89
2, 83580, Note_on_c, 0, 69, 85
2, 83583, Note_on_c, 0, 65, 0
2, 83609, Note_on_c, 0, 69, 0
2, 83610, Note_on_c, 0, 65, 76
2, 83637, Note_on_c, 0, 65, 0
2, 83640, Note_on_c, 0, 61, 76
2, 83667, Note_on_c, 0, 61, 0
2, 83670, Note_on_c, 0, 62, 85
2, 83697, Note_on_c, 0, 62, 0
2, 83700, Note_on_c, 0, 65, 80
2, 83729, Note_on_c, 0, 65, 0
2, 83730, Note_on_c, 0, 62, 80
2, 83758, Note_on_c, 0, 62, 0
2, 83760, Note_on_c, 0, 57, 85
2, 83789, Note_on_c, 0, 57, 0
2, 83790, Note_on_c, 0, 58, 80
2, 83818, Note_on_c, 0, 58, 0
2, 83820, Note_on_c, 0, 62, 76
2, 83850, Note_on_c, 0, 58, 76
2, 83851, Note_on_c, 0, 62, 0
2, 83879, Note_on_c, 0, 58, 0
2, 83880, Note_on_c, 0, 59, 80
2, 83910, Note_on_c, 0, 60, 85
2, 83911, Note_on_c, 0, 59, 0
2, 83939, Note_on_c, 0, 60, 0
2, 83940, Note_on_c, 0, 64, 76
2, 83970, Note_on_c, 0, 60, 76
2, 83971, Note_on_c, 0, 64, 0
2, 83997, Note_on_c, 0, 60, 0
2, 84000, Note_on_c, 0, 65, 89
2, 84000, Note_on_c, 0, 60, 89
2, 84000, Note_on_c, 0, 57, 93
2, 84051, Note_on_c, 0, 60, 0
2, 84054, Note_on_c, 0, 57, 0
2, 84060, Note_on_c, 0, 65, 0
2, 84120, Note_on_c, 0, 69, 89
2, 84120, Note_on_c, 0, 62, 85
2, 84120, Note_on_c, 0, 57, 80
2, 84120, Note_on_c, 0, 65, 80
2, 84175, Note_on_c, 0, 62, 0
2, 84176, Note_on_c, 0, 65, 0
2, 84177, Note_on_c, 0, 57, 0
2, 84184, Note_on_c, 0, 69, 0
2, 84240, Note_on_c, 0, 67, 93
2, 84240, Note_on_c, 0, 55, 80
2, 84240, Note_on_c, 0, 62, 89
2, 84240, Note_on_c, 0, 65, 80
2, 84296, Note_on_c, 0, 62, 0
2, 84298, Note_on_c, 0, 65, 0
2, 84299, Note_on_c, 0, 55, 0
2, 84302, Note_on_c, 0, 67, 0
2, 84360, Note_on_c, 0, 72, 89
2, 84360, Note_on_c, 0, 64, 89
2, 84360, Note_on_c, 0, 55, 89
2, 84360, Note_on_c, 0, 58, 80
2, 84426, Note_on_c, 0, 72, 0
2, 84427, Note_on_c, 0, 64, 0
2, 84427, Note_on_c, 0, 58, 0
2, 84430, Note_on_c, 0, 55, 0
2, 84480, Note_on_c, 0, 65, 89
2, 84480, Note_on_c, 0, 60, 89
2, 84598, Note_on_c, 0, 60, 0
2, 84601, Note_on_c, 0, 65, 0
2, 84660, Note_on_c, 0, 60, 72
2, 84660, Note_on_c, 0, 65, 85
2, 84674, Note_on_c, 0, 65, 0
2, 84675, Note_on_c, 0, 60, 0
2, 84690, Note_on_c, 0, 60, 72
2, 84690, Note_on_c, 0, 65, 80
2, 84704, Note_on_c, 0, 60, 0
2, 84705, Note_on_c, 0, 65, 0
2, 84720, Note_on_c, 0, 65, 89
2, 84720, Note_on_c, 0, 69, 85
2, 84844, Note_on_c, 0, 65, 0
2, 84845, Note_on_c, 0, 69, 0
2, 84900, Note_on_c, 0, 65, 85
2, 84900, Note_on_c, 0, 60, 80
2, 84916, Note_on_c, 0, 60, 0
2, 84918, Note_on_c, 0, 65, 0
2, 84930, Note_on_c, 0, 65, 76
2, 84930, Note_on_c, 0, 60, 72
2, 84943, Note_on_c, 0, 60, 0
2, 84947, Note_on_c, 0, 65, 0
2, 84960, Note_on_c, 0, 65, 89
2, 84960, Note_on_c, 0, 70, 80
2, 85084, Note_on_c, 0, 70, 0
2, 85088, Note_on_c, 0, 65, 0
2, 85140, Note_on_c, 0, 65, 89
2, 85140, Note_on_c, 0, 62, 89
2, 85154, Note_on_c, 0, 62, 0
2, 85158, Note_on_c, 0, 65, 0
2, 85170, Note_on_c, 0, 65, 76
2, 85170, Note_on_c, 0, 62, 72
2, 85182, Note_on_c, 0, 62, 0
2, 85188, Note_on_c, 0, 65, 0
2, 85200, Note_on_c, 0, 65, 85
2, 85200, Note_on_c, 0, 71, 93
2, 85323, Note_on_c, 0, 71, 0
2, 85323, Note_on_c, 0, 65, 0
2, 85650, Note_on_c, 0, 71, 93
2, 85650, Note_on_c, 0, 65, 89
2, 85666, Note_on_c, 0, 65, 0
2, 85670, Note_on_c, 0, 71, 0
2, 85680, Note_on_c, 0, 71, 89
2, 85680, Note_on_c, 0, 65, 93
2, 85794, Note_on_c, 0, 65, 0
2, 85797, Note_on_c, 0, 71, 0
2, 85890, Note_on_c, 0, 65, 89
2, 85890, Note_on_c, 0, 72, 85
2, 85903, Note_on_c, 0, 72, 0
2, 85905, Note_on_c, 0, 65, 0
2, 85920, Note_on_c, 0, 60, 119
2, 85920, Note_on_c, 0, 55, 76
2, 86485, Note_on_c, 0, 55, 0
2, 86488, Note_on_c, 0, 60, 0
2, 86880, Note_on_c, 0, 56, 59
2, 86880, Note_on_c, 0, 60, 72
2, 87210, Note_on_c, 0, 56, 0
2, 87244, Note_on_c, 0, 58, 72
2, 87580, Note_on_c, 0, 58, 0
2, 87600, Note_on_c, 0, 57, 62
2, 87908, Note_on_c, 0, 60, 0
2, 87960, Note_on_c, 0, 65, 72
2, 88038, Note_on_c, 0, 57, 0
2, 88079, Note_on_c, 0, 58, 55
2, 88186, Note_on_c, 0, 65, 0
2, 88197, Note_on_c, 0, 67, 68
2, 88302, Note_on_c, 0, 67, 0
2, 88307, Note_on_c, 0, 58, 0
2, 88310, Note_on_c, 0, 68, 52
2, 88314, Note_on_c, 0, 59, 80
2, 88485, Note_on_c, 0, 68, 0
2, 88491, Note_on_c, 0, 70, 68
2, 88523, Note_on_c, 0, 68, 68
2, 88528, Note_on_c, 0, 70, 0
2, 88554, Note_on_c, 0, 68, 0
2, 88556, Note_on_c, 0, 67, 80
2, 88620, Note_on_c, 0, 67, 0
2, 88620, Note_on_c, 0, 65, 68
2, 88666, Note_on_c, 0, 65, 0
2, 88681, Note_on_c, 0, 65, 76
2, 88682, Note_on_c, 0, 72, 80
2, 88778, Note_on_c, 0, 59, 0
2, 88786, Note_on_c, 0, 65, 0
2, 88799, Note_on_c, 0, 60, 76
2, 88801, Note_on_c, 0, 64, 68
2, 88904, Note_on_c, 0, 64, 0
2, 88908, Note_on_c, 0, 60, 0
2, 88914, Note_on_c, 0, 68, 62
2, 88914, Note_on_c, 0, 59, 68
2, 88915, Note_on_c, 0, 65, 72
2, 89034, Note_on_c, 0, 65, 0
2, 89034, Note_on_c, 0, 59, 0
2, 89036, Note_on_c, 0, 68, 0
2, 89042, Note_on_c, 0, 67, 72
2, 89043, Note_on_c, 0, 60, 62
2, 89044, Note_on_c, 0, 64, 80
2, 89152, Note_on_c, 0, 67, 0
2, 89155, Note_on_c, 0, 64, 0
2, 89155, Note_on_c, 0, 60, 0
2, 89253, Note_on_c, 0, 72, 0
2, 89279, Note_on_c, 0, 70, 76
2, 89334, Note_on_c, 0, 68, 76
2, 89335, Note_on_c, 0, 70, 0
2, 89386, Note_on_c, 0, 68, 0
2, 89394, Note_on_c, 0, 68, 62
2, 89524, Note_on_c, 0, 63, 76
2, 89638, Note_on_c, 0, 68, 0
2, 89647, Note_on_c, 0, 67, 76
2, 89691, Note_on_c, 0, 63, 0
2, 89699, Note_on_c, 0, 67, 0
2, 89701, Note_on_c, 0, 61, 72
2, 89702, Note_on_c, 0, 65, 76
2, 89757, Note_on_c, 0, 61, 0
2, 89759, Note_on_c, 0, 60, 68
2, 89760, Note_on_c, 0, 63, 76
2, 89762, Note_on_c, 0, 65, 0
2, 89811, Note_on_c, 0, 60, 0
2, 89814, Note_on_c, 0, 58, 72
2, 89814, Note_on_c, 0, 61, 76
2, 89816, Note_on_c, 0, 63, 0
2, 89875, Note_on_c, 0, 58, 0
2, 89876, Note_on_c, 0, 61, 0
2, 89877, Note_on_c, 0, 60, 72
2, 89879, Note_on_c, 0, 56, 76
2, 90000, Note_on_c, 0, 56, 0
2, 90004, Note_on_c, 0, 60, 0
2, 90118, Note_on_c, 0, 65, 76
2, 90240, Note_on_c, 0, 60, 80
2, 90288, Note_on_c, 0, 65, 0
2, 90297, Note_on_c, 0, 67, 62
2, 90323, Note_on_c, 0, 65, 76
2, 90325, Note_on_c, 0, 67, 0
2, 90352, Note_on_c, 0, 65, 0
2, 90352, Note_on_c, 0, 63, 68
2, 90406, Note_on_c, 0, 60, 0
2, 90414, Note_on_c, 0, 63, 0
2, 90414, Note_on_c, 0, 61, 72
2, 90415, Note_on_c, 0, 58, 68
2, 90470, Note_on_c, 0, 58, 0
2, 90473, Note_on_c, 0, 61, 0
2, 90474, Note_on_c, 0, 60, 72
2, 90475, Note_on_c, 0, 56, 76
2, 90529, Note_on_c, 0, 56, 0
2, 90530, Note_on_c, 0, 58, 68
2, 90531, Note_on_c, 0, 60, 0
2, 90531, Note_on_c, 0, 55, 68
2, 90592, Note_on_c, 0, 55, 0
2, 90592, Note_on_c, 0, 58, 0
2, 90593, Note_on_c, 0, 56, 68
2, 90595, Note_on_c, 0, 53, 76
2, 90713, Note_on_c, 0, 53, 0
2, 90714, Note_on_c, 0, 56, 0
2, 90843, Note_on_c, 0, 54, 76
2, 91068, Note_on_c, 0, 54, 0
2, 91080, Note_on_c, 0, 55, 80
2, 91194, Note_on_c, 0, 55, 0
2, 91199, Note_on_c, 0, 58, 80
2, 91318, Note_on_c, 0, 58, 0
2, 91325, Note_on_c, 0, 66, 64
2, 91325, Note_on_c, 0, 57, 85
2, 91441, Note_on_c, 0, 57, 0
2, 91487, Note_on_c, 0, 66, 0
2, 91492, Note_on_c, 0, 65, 76
2, 91542, Note_on_c, 0, 65, 0
2, 91553, Note_on_c, 0, 56, 76
2, 91553, Note_on_c, 0, 65, 80
2, 91673, Note_on_c, 0, 65, 0
2, 91791, Note_on_c, 0, 56, 0
2, 91803, Note_on_c, 0, 57, 89
2, 91911, Note_on_c, 0, 57, 0
2, 91920, Note_on_c, 0, 60, 68
2, 92035, Note_on_c, 0, 60, 0
2, 92040, Note_on_c, 0, 68, 89
2, 92041, Note_on_c, 0, 59, 76
2, 92155, Note_on_c, 0, 59, 0
2, 92210, Note_on_c, 0, 68, 0
2, 92217, Note_on_c, 0, 67, 85
2, 92265, Note_on_c, 0, 67, 0
2, 92280, Note_on_c, 0, 67, 80
2, 92398, Note_on_c, 0, 67, 0
2, 92400, Note_on_c, 0, 72, 89
2, 92628, Note_on_c, 0, 72, 0
2, 92640, Note_on_c, 0, 61, 89
2, 92670, Note_on_c, 0, 73, 85
2, 92683, Note_on_c, 0, 73, 0
2, 92685, Note_on_c, 0, 72, 76
2, 92698, Note_on_c, 0, 72, 0
2, 92700, Note_on_c, 0, 71, 76
2, 92713, Note_on_c, 0, 71, 0
2, 92715, Note_on_c, 0, 72, 64
2, 92728, Note_on_c, 0, 72, 0
2, 92730, Note_on_c, 0, 73, 76
2, 92758, Note_on_c, 0, 73, 0
2, 92760, Note_on_c, 0, 70, 76
2, 92867, Note_on_c, 0, 61, 0
2, 92910, Note_on_c, 0, 63, 72
2, 92923, Note_on_c, 0, 63, 0
2, 92925, Note_on_c, 0, 61, 60
2, 92938, Note_on_c, 0, 61, 0
2, 92940, Note_on_c, 0, 60, 62
2, 92953, Note_on_c, 0, 60, 0
2, 92955, Note_on_c, 0, 61, 76
2, 92968, Note_on_c, 0, 61, 0
2, 92970, Note_on_c, 0, 63, 68
2, 92987, Note_on_c, 0, 70, 0
2, 92998, Note_on_c, 0, 63, 0
2, 93000, Note_on_c, 0, 60, 76
2, 93030, Note_on_c, 0, 72, 72
2, 93043, Note_on_c, 0, 72, 0
2, 93045, Note_on_c, 0, 70, 64
2, 93058, Note_on_c, 0, 70, 0
2, 93060, Note_on_c, 0, 69, 60
2, 93073, Note_on_c, 0, 69, 0
2, 93075, Note_on_c, 0, 70, 68
2, 93088, Note_on_c, 0, 70, 0
2, 93090, Note_on_c, 0, 72, 72
2, 93118, Note_on_c, 0, 72, 0
2, 93120, Note_on_c, 0, 68, 85
2, 93227, Note_on_c, 0, 60, 0
2, 93270, Note_on_c, 0, 61, 60
2, 93283, Note_on_c, 0, 61, 0
2, 93285, Note_on_c, 0, 60, 64
2, 93298, Note_on_c, 0, 60, 0
2, 93300, Note_on_c, 0, 59, 62
2, 93313, Note_on_c, 0, 59, 0
2, 93315, Note_on_c, 0, 60, 72
2, 93328, Note_on_c, 0, 60, 0
2, 93330, Note_on_c, 0, 61, 76
2, 93347, Note_on_c, 0, 68, 0
2, 93358, Note_on_c, 0, 61, 0
2, 93360, Note_on_c, 0, 58, 85
2, 93390, Note_on_c, 0, 70, 72
2, 93403, Note_on_c, 0, 70, 0
2, 93405, Note_on_c, 0, 68, 72
2, 93418, Note_on_c, 0, 68, 0
2, 93420, Note_on_c, 0, 67, 56
2, 93433, Note_on_c, 0, 67, 0
2, 93435, Note_on_c, 0, 68, 72
2, 93448, Note_on_c, 0, 68, 0
2, 93450, Note_on_c, 0, 70, 80
2, 93478, Note_on_c, 0, 70, 0
2, 93480, Note_on_c, 0, 67, 89
2, 93587, Note_on_c, 0, 58, 0
2, 93630, Note_on_c, 0, 60, 76
2, 93643, Note_on_c, 0, 60, 0
2, 93645, Note_on_c, 0, 58, 62
2, 93658, Note_on_c, 0, 58, 0
2, 93660, Note_on_c, 0, 57, 64
2, 93673, Note_on_c, 0, 57, 0
2, 93675, Note_on_c, 0, 58, 62
2, 93688, Note_on_c, 0, 58, 0
2, 93690, Note_on_c, 0, 60, 76
2, 93707, Note_on_c, 0, 67, 0
2, 93718, Note_on_c, 0, 60, 0
2, 93720, Note_on_c, 0, 56, 76
2, 93750, Note_on_c, 0, 68, 85
2, 93763, Note_on_c, 0, 68, 0
2, 93765, Note_on_c, 0, 67, 76
2, 93778, Note_on_c, 0, 67, 0
2, 93780, Note_on_c, 0, 65, 72
2, 93793, Note_on_c, 0, 65, 0
2, 93795, Note_on_c, 0, 67, 68
2, 93808, Note_on_c, 0, 67, 0
2, 93810, Note_on_c, 0, 68, 76
2, 93838, Note_on_c, 0, 68, 0
2, 93840, Note_on_c, 0, 65, 85
2, 94061, Note_on_c, 0, 56, 0
2, 94067, Note_on_c, 0, 65, 0
2, 94170, Note_on_c, 0, 53, 93
2, 94198, Note_on_c, 0, 53, 0
2, 94200, Note_on_c, 0, 56, 72
2, 94213, Note_on_c, 0, 56, 0
2, 94215, Note_on_c, 0, 55, 76
2, 94228, Note_on_c, 0, 55, 0
2, 94230, Note_on_c, 0, 56, 59
2, 94243, Note_on_c, 0, 56, 0
2, 94245, Note_on_c, 0, 55, 72
2, 94258, Note_on_c, 0, 55, 0
2, 94260, Note_on_c, 0, 56, 72
2, 94273, Note_on_c, 0, 56, 0
2, 94275, Note_on_c, 0, 55, 80
2, 94288, Note_on_c, 0, 55, 0
2, 94290, Note_on_c, 0, 56, 62
2, 94303, Note_on_c, 0, 56, 0
2, 94305, Note_on_c, 0, 55, 76
2, 94318, Note_on_c, 0, 55, 0
2, 94320, Note_on_c, 0, 56, 76
2, 94333, Note_on_c, 0, 56, 0
2, 94335, Note_on_c, 0, 55, 62
2, 94348, Note_on_c, 0, 55, 0
2, 94350, Note_on_c, 0, 56, 64
2, 94363, Note_on_c, 0, 56, 0
2, 94365, Note_on_c, 0, 55, 76
2, 94378, Note_on_c, 0, 55, 0
2, 94380, Note_on_c, 0, 56, 72
2, 94393, Note_on_c, 0, 56, 0
2, 94395, Note_on_c, 0, 55, 80
2, 94408, Note_on_c, 0, 55, 0
2, 94410, Note_on_c, 0, 53, 80
2, 94423, Note_on_c, 0, 53, 0
2, 94425, Note_on_c, 0, 55, 80
2, 94438, Note_on_c, 0, 55, 0
2, 94440, Note_on_c, 0, 65, 80
2, 94441, Note_on_c, 0, 53, 89
2, 94565, Note_on_c, 0, 53, 0
2, 94568, Note_on_c, 0, 65, 0
2, 94676, Note_on_c, 0, 53, 85
2, 94854, Note_on_c, 0, 53, 0
2, 94857, Note_on_c, 0, 56, 76
2, 94914, Note_on_c, 0, 55, 76
2, 94916, Note_on_c, 0, 56, 0
2, 94967, Note_on_c, 0, 55, 0
2, 94971, Note_on_c, 0, 53, 76
2, 95029, Note_on_c, 0, 51, 76
2, 95030, Note_on_c, 0, 53, 0
2, 95037, Note_on_c, 0, 58, 80
2, 95088, Note_on_c, 0, 51, 0
2, 95088, Note_on_c, 0, 49, 76
2, 95151, Note_on_c, 0, 49, 0
2, 95152, Note_on_c, 0, 48, 72
2, 95212, Note_on_c, 0, 58, 0
2, 95219, Note_on_c, 0, 61, 89
2, 95269, Note_on_c, 0, 61, 0
2, 95273, Note_on_c, 0, 60, 80
2, 95332, Note_on_c, 0, 60, 0
2, 95334, Note_on_c, 0, 58, 76
2, 95391, Note_on_c, 0, 58, 0
2, 95391, Note_on_c, 0, 67, 80
2, 95393, Note_on_c, 0, 56, 80
2, 95456, Note_on_c, 0, 56, 0
2, 95457, Note_on_c, 0, 55, 80
2, 95516, Note_on_c, 0, 55, 0
2, 95520, Note_on_c, 0, 56, 80
2, 95571, Note_on_c, 0, 67, 0
2, 95579, Note_on_c, 0, 70, 85
2, 95637, Note_on_c, 0, 68, 85
2, 95638, Note_on_c, 0, 70, 0
2, 95691, Note_on_c, 0, 68, 0
2, 95694, Note_on_c, 0, 67, 76
2, 95739, Note_on_c, 0, 56, 0
2, 95750, Note_on_c, 0, 55, 72
2, 95751, Note_on_c, 0, 67, 0
2, 95754, Note_on_c, 0, 65, 76
2, 95804, Note_on_c, 0, 65, 0
2, 95809, Note_on_c, 0, 64, 89
2, 95869, Note_on_c, 0, 55, 0
2, 95872, Note_on_c, 0, 64, 0
2, 95873, Note_on_c, 0, 53, 76
2, 95874, Note_on_c, 0, 65, 89
2, 95901, Note_on_c, 0, 48, 0
2, 95933, Note_on_c, 0, 65, 0
2, 95934, Note_on_c, 0, 66, 76
2, 95939, Note_on_c, 0, 63, 68
2, 95949, Note_on_c, 0, 53, 0
2, 95994, Note_on_c, 0, 66, 0
2, 95994, Note_on_c, 0, 65, 80
2, 95996, Note_on_c, 0, 63, 0
2, 95997, Note_on_c, 0, 61, 85
2, 96047, Note_on_c, 0, 61, 0
2, 96052, Note_on_c, 0, 60, 72
2, 96056, Note_on_c, 0, 65, 0
2, 96056, Note_on_c, 0, 63, 80
2, 96112, Note_on_c, 0, 60, 0
2, 96114, Note_on_c, 0, 58, 72
2, 96119, Note_on_c, 0, 61, 76
2, 96122, Note_on_c, 0, 63, 0
2, 96171, Note_on_c, 0, 61, 0
2, 96174, Note_on_c, 0, 58, 0
2, 96175, Note_on_c, 0, 60, 89
2, 96177, Note_on_c, 0, 57, 93
2, 96220, Note_on_c, 0, 57, 0
2, 96229, Note_on_c, 0, 60, 0
2, 96236, Note_on_c, 0, 61, 80
2, 96237, Note_on_c, 0, 58, 72
2, 96299, Note_on_c, 0, 58, 0
2, 96299, Note_on_c, 0, 70, 85
2, 96300, Note_on_c, 0, 73, 89
2, 96301, Note_on_c, 0, 61, 0
2, 96356, Note_on_c, 0, 73, 0
2, 96356, Note_on_c, 0, 72, 89
2, 96358, Note_on_c, 0, 70, 0
2, 96358, Note_on_c, 0, 68, 89
2, 96416, Note_on_c, 0, 68, 0
2, 96416, Note_on_c, 0, 70, 80
2, 96417, Note_on_c, 0, 72, 0
2, 96417, Note_on_c, 0, 67, 80
2, 96476, Note_on_c, 0, 67, 0
2, 96477, Note_on_c, 0, 68, 89
2, 96477, Note_on_c, 0, 65, 76
2, 96479, Note_on_c, 0, 70, 0
2, 96534, Note_on_c, 0, 65, 0
2, 96537, Note_on_c, 0, 64, 85
2, 96538, Note_on_c, 0, 68, 0
2, 96539, Note_on_c, 0, 67, 85
2, 96586, Note_on_c, 0, 67, 0
2, 96588, Note_on_c, 0, 64, 0
2, 96595, Note_on_c, 0, 65, 72
2, 96596, Note_on_c, 0, 68, 72
2, 96652, Note_on_c, 0, 65, 0
2, 96655, Note_on_c, 0, 56, 80
2, 96656, Note_on_c, 0, 68, 0
2, 96656, Note_on_c, 0, 59, 85
2, 96716, Note_on_c, 0, 59, 0
2, 96719, Note_on_c, 0, 60, 85
2, 96775, Note_on_c, 0, 56, 0
2, 96776, Note_on_c, 0, 57, 85
2, 96835, Note_on_c, 0, 57, 0
2, 96836, Note_on_c, 0, 58, 80
2, 96893, Note_on_c, 0, 58, 0
2, 96895, Note_on_c, 0, 52, 85
2, 96954, Note_on_c, 0, 52, 0
2, 96959, Note_on_c, 0, 53, 80
2, 97009, Note_on_c, 0, 60, 0
2, 97025, Note_on_c, 0, 53, 0
2, 97201, Note_on_c, 0, 60, 85
2, 97202, Note_on_c, 0, 63, 93
2, 97312, Note_on_c, 0, 63, 0
2, 97314, Note_on_c, 0, 60, 0
2, 97315, Note_on_c, 0, 58, 76
2, 97316, Note_on_c, 0, 61, 76
2, 97382, Note_on_c, 0, 58, 0
2, 97400, Note_on_c, 0, 61, 0
2, 97560, Note_on_c, 0, 64, 89
2, 97561, Note_on_c, 0, 60, 85
2, 97673, Note_on_c, 0, 64, 0
2, 97677, Note_on_c, 0, 65, 85
2, 97739, Note_on_c, 0, 60, 0
2, 97744, Note_on_c, 0, 65, 0
2, 97916, Note_on_c, 0, 66, 93
2, 97917, Note_on_c, 0, 69, 85
2, 98011, Note_on_c, 0, 66, 0
2, 98012, Note_on_c, 0, 65, 76
2, 98014, Note_on_c, 0, 70, 76
2, 98016, Note_on_c, 0, 69, 0
2, 98036, Note_on_c, 0, 65, 0
2, 98037, Note_on_c, 0, 70, 0
2, 98043, Note_on_c, 0, 70, 80
2, 98045, Note_on_c, 0, 65, 93
2, 98072, Note_on_c, 0, 70, 0
2, 98076, Note_on_c, 0, 65, 0
2, 98280, Note_on_c, 0, 61, 85
2, 98282, Note_on_c, 0, 64, 85
2, 98370, Note_on_c, 0, 64, 0
2, 98371, Note_on_c, 0, 65, 85
2, 98374, Note_on_c, 0, 60, 76
2, 98376, Note_on_c, 0, 61, 0
2, 98389, Note_on_c, 0, 65, 0
2, 98394, Note_on_c, 0, 60, 0
2, 98399, Note_on_c, 0, 65, 89
2, 98403, Note_on_c, 0, 60, 80
2, 98462, Note_on_c, 0, 61, 76
2, 98463, Note_on_c, 0, 60, 0
2, 98513, Note_on_c, 0, 61, 0
2, 98514, Note_on_c, 0, 60, 64
2, 98572, Note_on_c, 0, 65, 0
2, 98577, Note_on_c, 0, 60, 0
2, 98577, Note_on_c, 0, 61, 72
2, 98578, Note_on_c, 0, 64, 89
2, 98636, Note_on_c, 0, 64, 0
2, 98636, Note_on_c, 0, 65, 80
2, 98637, Note_on_c, 0, 61, 0
2, 98637, Note_on_c, 0, 60, 68
2, 98693, Note_on_c, 0, 61, 80
2, 98695, Note_on_c, 0, 60, 0
2, 98696, Note_on_c, 0, 64, 89
2, 98698, Note_on_c, 0, 65, 0
2, 98753, Note_on_c, 0, 61, 0
2, 98755, Note_on_c, 0, 60, 76
2, 98759, Note_on_c, 0, 65, 76
2, 98762, Note_on_c, 0, 64, 0
2, 98819, Note_on_c, 0, 58, 80
2, 98821, Note_on_c, 0, 60, 0
2, 98880, Note_on_c, 0, 58, 0
2, 98880, Note_on_c, 0, 56, 80
2, 98936, Note_on_c, 0, 56, 0
2, 98936, Note_on_c, 0, 65, 0
2, 98937, Note_on_c, 0, 55, 80
2, 98942, Note_on_c, 0, 61, 76
2, 98996, Note_on_c, 0, 55, 0
2, 98996, Note_on_c, 0, 56, 76
2, 98997, Note_on_c, 0, 61, 0
2, 98998, Note_on_c, 0, 60, 80
2, 99051, Note_on_c, 0, 56, 0
2, 99054, Note_on_c, 0, 55, 80
2, 99055, Note_on_c, 0, 60, 0
2, 99055, Note_on_c, 0, 61, 76
2, 99117, Note_on_c, 0, 61, 0
2, 99117, Note_on_c, 0, 56, 80
2, 99118, Note_on_c, 0, 60, 85
2, 99119, Note_on_c, 0, 55, 0
2, 99173, Note_on_c, 0, 56, 0
2, 99175, Note_on_c, 0, 58, 72
2, 99238, Note_on_c, 0, 56, 80
2, 99241, Note_on_c, 0, 58, 0
2, 99291, Note_on_c, 0, 60, 0
2, 99293, Note_on_c, 0, 56, 0
2, 99297, Note_on_c, 0, 55, 85
2, 99298, Note_on_c, 0, 58, 80
2, 99351, Note_on_c, 0, 55, 0
2, 99353, Note_on_c, 0, 53, 80
2, 99356, Note_on_c, 0, 58, 0
2, 99356, Note_on_c, 0, 56, 76
2, 99414, Note_on_c, 0, 56, 0
2, 99414, Note_on_c, 0, 55, 80
2, 99415, Note_on_c, 0, 53, 0
2, 99416, Note_on_c, 0, 52, 93
2, 99470, Note_on_c, 0, 52, 0
2, 99479, Note_on_c, 0, 55, 0
2, 99481, Note_on_c, 0, 53, 80
2, 99535, Note_on_c, 0, 49, 89
2, 99549, Note_on_c, 0, 53, 0
2, 99595, Note_on_c, 0, 49, 0
2, 99596, Note_on_c, 0, 48, 76
2, 99607, Note_on_c, 0, 53, 80
2, 99660, Note_on_c, 0, 48, 0
2, 99661, Note_on_c, 0, 49, 76
2, 99669, Note_on_c, 0, 53, 0
2, 99720, Note_on_c, 0, 53, 80
2, 99723, Note_on_c, 0, 49, 0
2, 99724, Note_on_c, 0, 48, 76
2, 99777, Note_on_c, 0, 48, 0
2, 99778, Note_on_c, 0, 49, 72
2, 99789, Note_on_c, 0, 53, 0
2, 99836, Note_on_c, 0, 49, 0
2, 99837, Note_on_c, 0, 48, 72
2, 99844, Note_on_c, 0, 53, 72
2, 100076, Note_on_c, 0, 53, 0
2, 100080, Note_on_c, 0, 48, 0
2, 100200, Control_c, 0, 121, 0
2, 100200, End_track
3, 0, Start_track
3, 0, MIDI_port, 0
3, 0, Title_t, "Secondo"
3, 0, Program_c, 1, 19
3, 0, Control_c, 1, 121, 7
3, 0, Control_c, 1, 1, 5
3, 0, Control_c, 1, 7, 127
3, 0, Control_c, 1, 10, 44
3, 0, Control_c, 1, 91, 127
3, 360, Note_on_c, 1, 53, 96
3, 360, Note_on_c, 1, 41, 92
3, 473, Note_on_c, 1, 41, 0
3, 480, Note_on_c, 1, 44, 96
3, 590, Note_on_c, 1, 44, 0
3, 600, Note_on_c, 1, 48, 84
3, 701, Note_on_c, 1, 53, 0
3, 720, Note_on_c, 1, 40, 84
3, 720, Note_on_c, 1, 55, 96
3, 721, Note_on_c, 1, 48, 0
3, 831, Note_on_c, 1, 40, 0
3, 840, Note_on_c, 1, 43, 92
3, 956, Note_on_c, 1, 43, 0
3, 960, Note_on_c, 1, 48, 88
3, 1062, Note_on_c, 1, 55, 0
3, 1080, Note_on_c, 1, 39, 82
3, 1080, Note_on_c, 1, 54, 88
3, 1081, Note_on_c, 1, 48, 0
3, 1196, Note_on_c, 1, 39, 0
3, 1200, Note_on_c, 1, 42, 96
3, 1316, Note_on_c, 1, 42, 0
3, 1320, Note_on_c, 1, 48, 92
3, 1431, Note_on_c, 1, 54, 0
3, 1440, Note_on_c, 1, 48, 0
3, 1440, Note_on_c, 1, 38, 100
3, 1440, Note_on_c, 1, 53, 105
3, 1549, Note_on_c, 1, 38, 0
3, 1560, Note_on_c, 1, 41, 100
3, 1672, Note_on_c, 1, 53, 0
3, 1680, Note_on_c, 1, 52, 100
3, 1680, Note_on_c, 1, 46, 79
3, 1683, Note_on_c, 1, 41, 0
3, 1793, Note_on_c, 1, 46, 0
3, 1795, Note_on_c, 1, 52, 0
3, 1800, Note_on_c, 1, 37, 84
3, 1800, Note_on_c, 1, 53, 96
3, 1910, Note_on_c, 1, 37, 0
3, 1920, Note_on_c, 1, 41, 96
3, 2031, Note_on_c, 1, 53, 0
3, 2038, Note_on_c, 1, 41, 0
3, 2040, Note_on_c, 1, 55, 100
3, 2040, Note_on_c, 1, 47, 80
3, 2093, Note_on_c, 1, 55, 0
3, 2100, Note_on_c, 1, 56, 96
3, 2143, Note_on_c, 1, 47, 0
3, 2154, Note_on_c, 1, 56, 0
3, 2160, Note_on_c, 1, 56, 96
3, 2160, Note_on_c, 1, 48, 82
3, 2160, Note_on_c, 1, 36, 92
3, 2279, Note_on_c, 1, 56, 0
3, 2280, Note_on_c, 1, 55, 96
3, 2393, Note_on_c, 1, 55, 0
3, 2400, Note_on_c, 1, 53, 96
3, 2400, Note_on_c, 1, 50, 79
3, 2501, Note_on_c, 1, 50, 0
3, 2518, Note_on_c, 1, 53, 0
3, 2520, Note_on_c, 1, 52, 69
3, 2520, Note_on_c, 1, 55, 84
3, 2631, Note_on_c, 1, 36, 0
3, 2631, Note_on_c, 1, 48, 0
3, 2651, Note_on_c, 1, 52, 0
3, 2654, Note_on_c, 1, 55, 0
3, 3000, Note_on_c, 1, 60, 79
3, 3117, Note_on_c, 1, 60, 0
3, 3120, Note_on_c, 1, 61, 80
3, 3240, Note_on_c, 1, 58, 84
3, 3244, Note_on_c, 1, 61, 0
3, 3474, Note_on_c, 1, 58, 0
3, 3480, Note_on_c, 1, 56, 82
3, 3588, Note_on_c, 1, 56, 0
3, 3600, Note_on_c, 1, 55, 92
3, 3838, Note_on_c, 1, 55, 0
3, 3840, Note_on_c, 1, 53, 82
3, 3958, Note_on_c, 1, 53, 0
3, 3960, Note_on_c, 1, 52, 84
3, 4080, Note_on_c, 1, 53, 77
3, 4083, Note_on_c, 1, 52, 0
3, 4205, Note_on_c, 1, 53, 0
3, 4320, Note_on_c, 1, 49, 92
3, 4670, Note_on_c, 1, 49, 0
3, 4680, Note_on_c, 1, 48, 92
3, 4913, Note_on_c, 1, 48, 0
3, 4920, Note_on_c, 1, 53, 84
3, 5034, Note_on_c, 1, 53, 0
3, 5040, Note_on_c, 1, 51, 84
3, 5274, Note_on_c, 1, 51, 0
3, 5280, Note_on_c, 1, 50, 100
3, 5395, Note_on_c, 1, 50, 0
3, 5400, Note_on_c, 1, 51, 92
3, 5520, Note_on_c, 1, 51, 0
3, 5520, Note_on_c, 1, 52, 109
3, 5638, Note_on_c, 1, 52, 0
3, 5640, Note_on_c, 1, 50, 100
3, 5754, Note_on_c, 1, 50, 0
3, 5760, Note_on_c, 1, 51, 88
3, 5848, Note_on_c, 1, 51, 0
3, 5850, Note_on_c, 1, 50, 79
3, 5865, Note_on_c, 1, 51, 92
3, 5870, Note_on_c, 1, 50, 0
3, 5880, Note_on_c, 1, 53, 100
3, 5881, Note_on_c, 1, 51, 0
3, 5986, Note_on_c, 1, 53, 0
3, 6000, Note_on_c, 1, 48, 96
3, 6113, Note_on_c, 1, 48, 0
3, 6120, Note_on_c, 1, 49, 96
3, 6120, Note_on_c, 1, 40, 82
3, 6240, Note_on_c, 1, 40, 0
3, 6240, Note_on_c, 1, 41, 96
3, 6355, Note_on_c, 1, 41, 0
3, 6360, Note_on_c, 1, 43, 96
3, 6475, Note_on_c, 1, 43, 0
3, 6480, Note_on_c, 1, 44, 92
3, 6588, Note_on_c, 1, 49, 0
3, 6600, Note_on_c, 1, 48, 80
3, 6710, Note_on_c, 1, 48, 0
3, 6720, Note_on_c, 1, 47, 96
3, 6830, Note_on_c, 1, 44, 0
3, 6837, Note_on_c, 1, 47, 0
3, 6840, Note_on_c, 1, 46, 88
3, 6840, Note_on_c, 1, 39, 75
3, 7150, Note_on_c, 1, 39, 0
3, 7154, Note_on_c, 1, 46, 0
3, 7200, Note_on_c, 1, 44, 88
3, 7320, Note_on_c, 1, 44, 0
3, 7320, Note_on_c, 1, 48, 96
3, 7437, Note_on_c, 1, 48, 0
3, 7440, Note_on_c, 1, 46, 82
3, 7678, Note_on_c, 1, 46, 0
3, 7680, Note_on_c, 1, 45, 84
3, 7791, Note_on_c, 1, 45, 0
3, 7800, Note_on_c, 1, 48, 96
3, 7918, Note_on_c, 1, 48, 0
3, 7920, Note_on_c, 1, 37, 92
3, 7920, Note_on_c, 1, 49, 92
3, 8039, Note_on_c, 1, 49, 0
3, 8040, Note_on_c, 1, 57, 88
3, 8147, Note_on_c, 1, 57, 0
3, 8160, Note_on_c, 1, 58, 100
3, 8261, Note_on_c, 1, 37, 0
3, 8277, Note_on_c, 1, 58, 0
3, 8280, Note_on_c, 1, 39, 82
3, 8280, Note_on_c, 1, 54, 84
3, 8348, Note_on_c, 1, 54, 0
3, 8348, Note_on_c, 1, 39, 0
3, 8400, Note_on_c, 1, 41, 80
3, 8400, Note_on_c, 1, 53, 109
3, 8464, Note_on_c, 1, 53, 0
3, 8467, Note_on_c, 1, 41, 0
3, 8520, Note_on_c, 1, 51, 96
3, 8520, Note_on_c, 1, 41, 92
3, 8593, Note_on_c, 1, 41, 0
3, 8593, Note_on_c, 1, 51, 0
3, 8640, Note_on_c, 1, 49, 96
3, 8640, Note_on_c, 1, 46, 88
3, 8703, Note_on_c, 1, 49, 0
3, 8755, Note_on_c, 1, 46, 0
3, 8760, Note_on_c, 1, 49, 96
3, 8873, Note_on_c, 1, 49, 0
3, 8880, Note_on_c, 1, 48, 96
3, 9118, Note_on_c, 1, 48, 0
3, 9120, Note_on_c, 1, 47, 92
3, 9230, Note_on_c, 1, 47, 0
3, 9240, Note_on_c, 1, 50, 92
3, 9354, Note_on_c, 1, 50, 0
3, 9360, Note_on_c, 1, 51, 96
3, 9360, Note_on_c, 1, 39, 79
3, 9480, Note_on_c, 1, 59, 82
3, 9484, Note_on_c, 1, 51, 0
3, 9591, Note_on_c, 1, 59, 0
3, 9600, Note_on_c, 1, 60, 96
3, 9709, Note_on_c, 1, 39, 0
3, 9715, Note_on_c, 1, 60, 0
3, 9720, Note_on_c, 1, 56, 96
3, 9720, Note_on_c, 1, 41, 77
3, 9787, Note_on_c, 1, 41, 0
3, 9788, Note_on_c, 1, 56, 0
3, 9840, Note_on_c, 1, 55, 100
3, 9840, Note_on_c, 1, 43, 92
3, 9904, Note_on_c, 1, 55, 0
3, 9906, Note_on_c, 1, 43, 0
3, 9960, Note_on_c, 1, 53, 96
3, 9960, Note_on_c, 1, 43, 92
3, 10038, Note_on_c, 1, 53, 0
3, 10041, Note_on_c, 1, 43, 0
3, 10080, Note_on_c, 1, 52, 92
3, 10080, Note_on_c, 1, 36, 82
3, 10200, Note_on_c, 1, 36, 0
3, 10309, Note_on_c, 1, 52, 0
3, 10320, Note_on_c, 1, 55, 96
3, 10440, Note_on_c, 1, 53, 100
3, 10441, Note_on_c, 1, 55, 0
3, 10800, Note_on_c, 1, 48, 88
3, 10899, Note_on_c, 1, 53, 0
3, 10920, Note_on_c, 1, 52, 92
3, 11040, Note_on_c, 1, 46, 80
3, 11040, Note_on_c, 1, 40, 96
3, 11149, Note_on_c, 1, 48, 0
3, 11153, Note_on_c, 1, 52, 0
3, 11158, Note_on_c, 1, 40, 0
3, 11160, Note_on_c, 1, 46, 0
3, 11160, Note_on_c, 1, 41, 105
3, 11160, Note_on_c, 1, 45, 88
3, 11220, Note_on_c, 1, 53, 100
3, 11280, Note_on_c, 1, 52, 100
3, 11284, Note_on_c, 1, 53, 0
3, 11339, Note_on_c, 1, 52, 0
3, 11340, Note_on_c, 1, 51, 92
3, 11370, Note_on_c, 1, 45, 0
3, 11400, Note_on_c, 1, 44, 96
3, 11400, Note_on_c, 1, 50, 96
3, 11401, Note_on_c, 1, 51, 0
3, 11460, Note_on_c, 1, 49, 88
3, 11461, Note_on_c, 1, 50, 0
3, 11515, Note_on_c, 1, 44, 0
3, 11516, Note_on_c, 1, 49, 0
3, 11520, Note_on_c, 1, 48, 100
3, 11520, Note_on_c, 1, 36, 92
3, 11520, Note_on_c, 1, 43, 84
3, 11617, Note_on_c, 1, 41, 0
3, 11638, Note_on_c, 1, 43, 0
3, 11640, Note_on_c, 1, 40, 68
3, 11756, Note_on_c, 1, 48, 0
3, 11760, Note_on_c, 1, 55, 96
3, 11760, Note_on_c, 1, 52, 100
3, 11866, Note_on_c, 1, 40, 0
3, 11871, Note_on_c, 1, 52, 0
3, 11873, Note_on_c, 1, 55, 0
3, 11880, Note_on_c, 1, 53, 100
3, 11915, Note_on_c, 1, 36, 0
3, 11940, Note_on_c, 1, 41, 96
3, 11996, Note_on_c, 1, 53, 0
3, 11998, Note_on_c, 1, 41, 0
3, 12000, Note_on_c, 1, 40, 109
3, 12058, Note_on_c, 1, 40, 0
3, 12060, Note_on_c, 1, 39, 92
3, 12120, Note_on_c, 1, 39, 0
3, 12120, Note_on_c, 1, 38, 100
3, 12177, Note_on_c, 1, 38, 0
3, 12180, Note_on_c, 1, 37, 100
3, 12237, Note_on_c, 1, 37, 0
3, 12240, Note_on_c, 1, 36, 96
3, 12240, Note_on_c, 1, 36, 109
3, 12300, Note_on_c, 1, 45, 92
3, 12355, Note_on_c, 1, 45, 0
3, 12360, Note_on_c, 1, 46, 88
3, 12419, Note_on_c, 1, 46, 0
3, 12420, Note_on_c, 1, 43, 92
3, 12473, Note_on_c, 1, 43, 0
3, 12480, Note_on_c, 1, 44, 92
3, 12533, Note_on_c, 1, 36, 0
3, 12540, Note_on_c, 1, 44, 0
3, 12540, Note_on_c, 1, 61, 96
3, 12540, Note_on_c, 1, 40, 92
3, 12595, Note_on_c, 1, 61, 0
3, 12598, Note_on_c, 1, 40, 0
3, 12600, Note_on_c, 1, 60, 75
3, 12600, Note_on_c, 1, 41, 100
3, 12655, Note_on_c, 1, 41, 0
3, 12660, Note_on_c, 1, 43, 70
3, 12660, Note_on_c, 1, 58, 92
3, 12663, Note_on_c, 1, 60, 0
3, 12700, Note_on_c, 1, 36, 0
3, 12714, Note_on_c, 1, 58, 0
3, 12720, Note_on_c, 1, 43, 0
3, 12720, Note_on_c, 1, 56, 92
3, 12720, Note_on_c, 1, 46, 80
3, 12733, Note_on_c, 1, 46, 0
3, 12735, Note_on_c, 1, 44, 88
3, 12748, Note_on_c, 1, 44, 0
3, 12750, Note_on_c, 1, 46, 80
3, 12763, Note_on_c, 1, 46, 0
3, 12765, Note_on_c, 1, 44, 96
3, 12778, Note_on_c, 1, 44, 0
3, 12778, Note_on_c, 1, 56, 0
3, 12780, Note_on_c, 1, 48, 100
3, 12780, Note_on_c, 1, 46, 80
3, 12793, Note_on_c, 1, 46, 0
3, 12795, Note_on_c, 1, 44, 96
3, 12808, Note_on_c, 1, 44, 0
3, 12810, Note_on_c, 1, 43, 100
3, 12823, Note_on_c, 1, 43, 0
3, 12825, Note_on_c, 1, 44, 92
3, 12838, Note_on_c, 1, 44, 0
3, 12838, Note_on_c, 1, 48, 0
3, 12840, Note_on_c, 1, 49, 96
3, 12840, Note_on_c, 1, 46, 84
3, 12892, Note_on_c, 1, 46, 0
3, 12892, Note_on_c, 1, 49, 0
3, 12900, Note_on_c, 1, 47, 96
3, 12900, Note_on_c, 1, 50, 92
3, 12957, Note_on_c, 1, 50, 0
3, 12959, Note_on_c, 1, 47, 0
3, 12960, Note_on_c, 1, 48, 92
3, 12960, Note_on_c, 1, 36, 84
3, 13020, Note_on_c, 1, 36, 0
3, 13020, Note_on_c, 1, 40, 109
3, 13067, Note_on_c, 1, 48, 0
3, 13076, Note_on_c, 1, 40, 0
3, 13080, Note_on_c, 1, 43, 105
3, 13139, Note_on_c, 1, 43, 0
3, 13140, Note_on_c, 1, 48, 92
3, 13200, Note_on_c, 1, 56, 96
3, 13200, Note_on_c, 1, 44, 92
3, 13204, Note_on_c, 1, 48, 0
3, 13256, Note_on_c, 1, 44, 0
3, 13260, Note_on_c, 1, 41, 100
3, 13313, Note_on_c, 1, 56, 0
3, 13314, Note_on_c, 1, 41, 0
3, 13320, Note_on_c, 1, 55, 88
3, 13320, Note_on_c, 1, 36, 92
3, 13377, Note_on_c, 1, 36, 0
3, 13380, Note_on_c, 1, 40, 100
3, 13383, Note_on_c, 1, 55, 0
3, 13440, Note_on_c, 1, 43, 105
3, 13442, Note_on_c, 1, 40, 0
3, 13496, Note_on_c, 1, 43, 0
3, 13500, Note_on_c, 1, 48, 100
3, 13560, Note_on_c, 1, 44, 96
3, 13560, Note_on_c, 1, 59, 105
3, 13565, Note_on_c, 1, 48, 0
3, 13614, Note_on_c, 1, 44, 0
3, 13620, Note_on_c, 1, 41, 105
3, 13674, Note_on_c, 1, 59, 0
3, 13680, Note_on_c, 1, 41, 0
3, 13680, Note_on_c, 1, 36, 100
3, 13680, Note_on_c, 1, 60, 105
3, 13740, Note_on_c, 1, 40, 113
3, 13742, Note_on_c, 1, 36, 0
3, 13745, Note_on_c, 1, 60, 0
3, 13800, Note_on_c, 1, 40, 0
3, 13800, Note_on_c, 1, 43, 100
3, 13853, Note_on_c, 1, 43, 0
3, 13860, Note_on_c, 1, 48, 96
3, 13920, Note_on_c, 1, 48, 0
3, 13920, Note_on_c, 1, 56, 79
3, 13920, Note_on_c, 1, 59, 100
3, 13920, Note_on_c, 1, 50, 80
3, 13920, Note_on_c, 1, 53, 100
3, 13920, Note_on_c, 1, 44, 88
3, 13974, Note_on_c, 1, 44, 0
3, 13980, Note_on_c, 1, 41, 105
3, 14027, Note_on_c, 1, 50, 0
3, 14029, Note_on_c, 1, 59, 0
3, 14031, Note_on_c, 1, 56, 0
3, 14032, Note_on_c, 1, 53, 0
3, 14040, Note_on_c, 1, 41, 0
3, 14040, Note_on_c, 1, 36, 96
3, 14040, Note_on_c, 1, 55, 65
3, 14040, Note_on_c, 1, 52, 84
3, 14040, Note_on_c, 1, 60, 100
3, 14095, Note_on_c, 1, 52, 0
3, 14096, Note_on_c, 1, 55, 0
3, 14098, Note_on_c, 1, 36, 0
3, 14098, Note_on_c, 1, 60, 0
3, 14400, Note_on_c, 1, 57, 109
3, 14400, Note_on_c, 1, 41, 82
3, 14400, Note_on_c, 1, 53, 82
3, 14524, Note_on_c, 1, 53, 0
3, 14525, Note_on_c, 1, 41, 0
3, 14526, Note_on_c, 1, 57, 0
3, 14580, Note_on_c, 1, 41, 96
3, 14580, Note_on_c, 1, 57, 96
3, 14580, Note_on_c, 1, 53, 84
3, 14599, Note_on_c, 1, 53, 0
3, 14599, Note_on_c, 1, 41, 0
3, 14600, Note_on_c, 1, 57, 0
3, 14610, Note_on_c, 1, 41, 84
3, 14610, Note_on_c, 1, 53, 80
3, 14610, Note_on_c, 1, 57, 100
3, 14626, Note_on_c, 1, 53, 0
3, 14628, Note_on_c, 1, 57, 0
3, 14629, Note_on_c, 1, 41, 0
3, 14640, Note_on_c, 1, 52, 82
3, 14640, Note_on_c, 1, 40, 96
3, 14640, Note_on_c, 1, 55, 100
3, 14767, Note_on_c, 1, 52, 0
3, 14768, Note_on_c, 1, 40, 0
3, 14771, Note_on_c, 1, 55, 0
3, 14820, Note_on_c, 1, 40, 100
3, 14820, Note_on_c, 1, 55, 113
3, 14820, Note_on_c, 1, 52, 75
3, 14836, Note_on_c, 1, 55, 0
3, 14838, Note_on_c, 1, 52, 0
3, 14838, Note_on_c, 1, 40, 0
3, 14850, Note_on_c, 1, 55, 92
3, 14850, Note_on_c, 1, 40, 84
3, 14850, Note_on_c, 1, 52, 77
3, 14865, Note_on_c, 1, 52, 0
3, 14866, Note_on_c, 1, 55, 0
3, 14868, Note_on_c, 1, 40, 0
3, 14880, Note_on_c, 1, 53, 96
3, 14880, Note_on_c, 1, 57, 96
3, 14880, Note_on_c, 1, 50, 84
3, 14880, Note_on_c, 1, 38, 105
3, 15012, Note_on_c, 1, 38, 0
3, 15013, Note_on_c, 1, 50, 0
3, 15014, Note_on_c, 1, 53, 0
3, 15018, Note_on_c, 1, 57, 0
3, 15060, Note_on_c, 1, 38, 109
3, 15060, Note_on_c, 1, 53, 100
3, 15060, Note_on_c, 1, 57, 105
3, 15060, Note_on_c, 1, 50, 82
3, 15075, Note_on_c, 1, 50, 0
3, 15076, Note_on_c, 1, 57, 0
3, 15077, Note_on_c, 1, 53, 0
3, 15078, Note_on_c, 1, 38, 0
3, 15090, Note_on_c, 1, 38, 96
3, 15090, Note_on_c, 1, 53, 88
3, 15090, Note_on_c, 1, 57, 92
3, 15090, Note_on_c, 1, 50, 79
3, 15103, Note_on_c, 1, 50, 0
3, 15103, Note_on_c, 1, 53, 0
3, 15105, Note_on_c, 1, 57, 0
3, 15106, Note_on_c, 1, 38, 0
3, 15120, Note_on_c, 1, 52, 100
3, 15120, Note_on_c, 1, 48, 105
3, 15120, Note_on_c, 1, 36, 113
3, 15120, Note_on_c, 1, 60, 105
3, 15120, Note_on_c, 1, 55, 105
3, 15255, Note_on_c, 1, 36, 0
3, 15256, Note_on_c, 1, 55, 0
3, 15257, Note_on_c, 1, 60, 0
3, 15263, Note_on_c, 1, 48, 0
3, 15263, Note_on_c, 1, 52, 0
3, 15300, Note_on_c, 1, 46, 92
3, 15300, Note_on_c, 1, 52, 105
3, 15318, Note_on_c, 1, 52, 0
3, 15318, Note_on_c, 1, 46, 0
3, 15330, Note_on_c, 1, 46, 96
3, 15330, Note_on_c, 1, 52, 100
3, 15347, Note_on_c, 1, 52, 0
3, 15347, Note_on_c, 1, 46, 0
3, 15360, Note_on_c, 1, 53, 96
3, 15360, Note_on_c, 1, 45, 96
3, 15486, Note_on_c, 1, 53, 0
3, 15491, Note_on_c, 1, 45, 0
3, 15540, Note_on_c, 1, 45, 105
3, 15592, Note_on_c, 1, 45, 0
3, 15600, Note_on_c, 1, 46, 109
3, 15719, Note_on_c, 1, 46, 0
3, 15720, Note_on_c, 1, 45, 96
3, 15720, Note_on_c, 1, 53, 100
3, 15831, Note_on_c, 1, 45, 0
3, 15832, Note_on_c, 1, 53, 0
3, 15840, Note_on_c, 1, 43, 105
3, 15840, Note_on_c, 1, 55, 109
3, 15951, Note_on_c, 1, 43, 0
3, 15960, Note_on_c, 1, 36, 109
3, 16070, Note_on_c, 1, 55, 0
3, 16076, Note_on_c, 1, 36, 0
3, 16080, Note_on_c, 1, 41, 92
3, 16080, Note_on_c, 1, 53, 96
3, 16201, Note_on_c, 1, 53, 0
3, 16203, Note_on_c, 1, 41, 0
3, 16470, Note_on_c, 1, 53, 96
3, 16470, Note_on_c, 1, 57, 96
3, 16492, Note_on_c, 1, 53, 0
3, 16498, Note_on_c, 1, 57, 0
3, 16500, Note_on_c, 1, 58, 82
3, 16500, Note_on_c, 1, 55, 100
3, 16523, Note_on_c, 1, 55, 0
3, 16524, Note_on_c, 1, 58, 0
3, 16530, Note_on_c, 1, 60, 84
3, 16530, Note_on_c, 1, 57, 92
3, 16556, Note_on_c, 1, 57, 0
3, 16557, Note_on_c, 1, 60, 0
3, 16560, Note_on_c, 1, 58, 75
3, 16560, Note_on_c, 1, 62, 92
3, 16584, Note_on_c, 1, 62, 0
3, 16584, Note_on_c, 1, 58, 0
3, 16590, Note_on_c, 1, 60, 96
3, 16590, Note_on_c, 1, 57, 84
3, 16615, Note_on_c, 1, 57, 0
3, 16616, Note_on_c, 1, 60, 0
3, 16620, Note_on_c, 1, 62, 92
3, 16620, Note_on_c, 1, 58, 92
3, 16635, Note_on_c, 1, 58, 0
3, 16637, Note_on_c, 1, 62, 0
3, 16650, Note_on_c, 1, 64, 96
3, 16650, Note_on_c, 1, 60, 100
3, 16668, Note_on_c, 1, 60, 0
3, 16668, Note_on_c, 1, 64, 0
3, 16680, Note_on_c, 1, 62, 105
3, 16710, Note_on_c, 1, 50, 105
3, 16740, Note_on_c, 1, 50, 0
3, 16740, Note_on_c, 1, 48, 92
3, 16765, Note_on_c, 1, 48, 0
3, 16770, Note_on_c, 1, 50, 100
3, 16799, Note_on_c, 1, 50, 0
3, 16800, Note_on_c, 1, 46, 92
3, 16830, Note_on_c, 1, 43, 100
3, 16831, Note_on_c, 1, 46, 0
3, 16859, Note_on_c, 1, 43, 0
3, 16860, Note_on_c, 1, 45, 96
3, 16890, Note_on_c, 1, 46, 96
3, 16893, Note_on_c, 1, 45, 0
3, 16911, Note_on_c, 1, 62, 0
3, 16919, Note_on_c, 1, 46, 0
3, 16920, Note_on_c, 1, 60, 105
3, 16920, Note_on_c, 1, 48, 96
3, 16949, Note_on_c, 1, 48, 0
3, 16950, Note_on_c, 1, 46, 92
3, 16978, Note_on_c, 1, 46, 0
3, 16979, Note_on_c, 1, 60, 0
3, 16980, Note_on_c, 1, 58, 100
3, 16980, Note_on_c, 1, 48, 92
3, 17009, Note_on_c, 1, 48, 0
3, 17010, Note_on_c, 1, 36, 96
3, 17037, Note_on_c, 1, 58, 0
3, 17040, Note_on_c, 1, 57, 105
3, 17040, Note_on_c, 1, 41, 100
3, 17041, Note_on_c, 1, 36, 0
3, 17153, Note_on_c, 1, 57, 0
3, 17155, Note_on_c, 1, 41, 0
3, 17220, Note_on_c, 1, 45, 109
3, 17220, Note_on_c, 1, 41, 105
3, 17276, Note_on_c, 1, 41, 0
3, 17278, Note_on_c, 1, 45, 0
3, 17280, Note_on_c, 1, 43, 105
3, 17280, Note_on_c, 1, 46, 109
3, 17401, Note_on_c, 1, 46, 0
3, 17404, Note_on_c, 1, 43, 0
3, 17460, Note_on_c, 1, 46, 105
3, 17460, Note_on_c, 1, 43, 109
3, 17519, Note_on_c, 1, 43, 0
3, 17519, Note_on_c, 1, 46, 0
3, 17520, Note_on_c, 1, 48, 109
3, 17520, Note_on_c, 1, 45, 109
3, 17649, Note_on_c, 1, 45, 0
3, 17650, Note_on_c, 1, 48, 0
3, 17700, Note_on_c, 1, 45, 118
3, 17700, Note_on_c, 1, 48, 109
3, 17755, Note_on_c, 1, 48, 0
3, 17758, Note_on_c, 1, 45, 0
3, 17760, Note_on_c, 1, 46, 100
3, 17760, Note_on_c, 1, 50, 109
3, 17890, Note_on_c, 1, 46, 0
3, 17894, Note_on_c, 1, 50, 0
3, 17940, Note_on_c, 1, 55, 109
3, 17940, Note_on_c, 1, 47, 109
3, 17987, Note_on_c, 1, 47, 0
3, 17989, Note_on_c, 1, 55, 0
3, 18000, Note_on_c, 1, 55, 109
3, 18000, Note_on_c, 1, 48, 109
3, 18031, Note_on_c, 1, 48, 0
3, 18060, Note_on_c, 1, 48, 118
3, 18086, Note_on_c, 1, 48, 0
3, 18090, Note_on_c, 1, 47, 118
3, 18118, Note_on_c, 1, 47, 0
3, 18120, Note_on_c, 1, 45, 109
3, 18121, Note_on_c, 1, 55, 0
3, 18147, Note_on_c, 1, 45, 0
3, 18150, Note_on_c, 1, 43, 92
3, 18180, Note_on_c, 1, 43, 0
3, 18180, Note_on_c, 1, 55, 109
3, 18180, Note_on_c, 1, 41, 105
3, 18209, Note_on_c, 1, 41, 0
3, 18210, Note_on_c, 1, 40, 100
3, 18234, Note_on_c, 1, 55, 0
3, 18237, Note_on_c, 1, 40, 0
3, 18241, Note_on_c, 1, 53, 100
3, 18298, Note_on_c, 1, 50, 105
3, 18324, Note_on_c, 1, 50, 0
3, 18324, Note_on_c, 1, 48, 96
3, 18353, Note_on_c, 1, 53, 0
3, 18354, Note_on_c, 1, 48, 0
3, 18356, Note_on_c, 1, 47, 109
3, 18380, Note_on_c, 1, 47, 0
3, 18385, Note_on_c, 1, 45, 100
3, 18413, Note_on_c, 1, 45, 0
3, 18414, Note_on_c, 1, 43, 109
3, 18414, Note_on_c, 1, 59, 100
3, 18438, Note_on_c, 1, 59, 0
3, 18443, Note_on_c, 1, 43, 0
3, 18443, Note_on_c, 1, 41, 96
3, 18443, Note_on_c, 1, 57, 109
3, 18469, Note_on_c, 1, 41, 0
3, 18471, Note_on_c, 1, 57, 0
3, 18474, Note_on_c, 1, 40, 96
3, 18475, Note_on_c, 1, 55, 100
3, 18530, Note_on_c, 1, 40, 0
3, 18537, Note_on_c, 1, 52, 109
3, 18563, Note_on_c, 1, 52, 0
3, 18565, Note_on_c, 1, 50, 105
3, 18593, Note_on_c, 1, 50, 0
3, 18595, Note_on_c, 1, 55, 0
3, 18595, Note_on_c, 1, 48, 113
3, 18622, Note_on_c, 1, 48, 0
3, 18624, Note_on_c, 1, 47, 96
3, 18653, Note_on_c, 1, 47, 0
3, 18655, Note_on_c, 1, 45, 109
3, 18656, Note_on_c, 1, 60, 105
3, 18682, Note_on_c, 1, 60, 0
3, 18683, Note_on_c, 1, 45, 0
3, 18684, Note_on_c, 1, 43, 96
3, 18690, Note_on_c, 1, 59, 100
3, 18712, Note_on_c, 1, 43, 0
3, 18714, Note_on_c, 1, 41, 100
3, 18717, Note_on_c, 1, 57, 105
3, 18720, Note_on_c, 1, 59, 0
3, 18721, Note_on_c, 1, 41, 105
3, 18723, Note_on_c, 1, 57, 113
3, 18775, Note_on_c, 1, 41, 0
3, 18782, Note_on_c, 1, 53, 109
3, 18812, Note_on_c, 1, 52, 109
3, 18813, Note_on_c, 1, 53, 0
3, 18834, Note_on_c, 1, 57, 0
3, 18839, Note_on_c, 1, 52, 0
3, 18842, Note_on_c, 1, 50, 105
3, 18873, Note_on_c, 1, 50, 0
3, 18874, Note_on_c, 1, 48, 105
3, 18902, Note_on_c, 1, 48, 0
3, 18903, Note_on_c, 1, 47, 105
3, 18903, Note_on_c, 1, 50, 109
3, 18927, Note_on_c, 1, 50, 0
3, 18930, Note_on_c, 1, 47, 0
3, 18933, Note_on_c, 1, 45, 96
3, 18935, Note_on_c, 1, 50, 105
3, 18948, Note_on_c, 1, 50, 0
3, 18962, Note_on_c, 1, 45, 0
3, 18964, Note_on_c, 1, 43, 113
3, 18965, Note_on_c, 1, 50, 105
3, 19020, Note_on_c, 1, 50, 0
3, 19024, Note_on_c, 1, 43, 0
3, 19200, Note_on_c, 1, 48, 105
3, 19228, Note_on_c, 1, 48, 0
3, 19230, Note_on_c, 1, 47, 100
3, 19257, Note_on_c, 1, 47, 0
3, 19260, Note_on_c, 1, 48, 105
3, 19260, Note_on_c, 1, 43, 109
3, 19290, Note_on_c, 1, 50, 96
3, 19292, Note_on_c, 1, 48, 0
3, 19315, Note_on_c, 1, 50, 0
3, 19318, Note_on_c, 1, 43, 0
3, 19320, Note_on_c, 1, 52, 105
3, 19320, Note_on_c, 1, 40, 100
3, 19348, Note_on_c, 1, 52, 0
3, 19350, Note_on_c, 1, 50, 100
3, 19376, Note_on_c, 1, 50, 0
3, 19377, Note_on_c, 1, 40, 0
3, 19380, Note_on_c, 1, 52, 113
3, 19380, Note_on_c, 1, 36, 113
3, 19410, Note_on_c, 1, 54, 92
3, 19411, Note_on_c, 1, 52, 0
3, 19437, Note_on_c, 1, 36, 0
3, 19437, Note_on_c, 1, 54, 0
3, 19440, Note_on_c, 1, 55, 100
3, 19440, Note_on_c, 1, 43, 109
3, 19553, Note_on_c, 1, 55, 0
3, 19556, Note_on_c, 1, 43, 0
3, 19590, Note_on_c, 1, 43, 105
3, 19617, Note_on_c, 1, 43, 0
3, 19617, Note_on_c, 1, 57, 0
3, 19617, Note_on_c, 1, 41, 0
3, 19620, Note_on_c, 1, 45, 92
3, 19650, Note_on_c, 1, 47, 92
3, 19652, Note_on_c, 1, 45, 0
3, 19679, Note_on_c, 1, 47, 0
3, 19680, Note_on_c, 1, 48, 105
3, 19708, Note_on_c, 1, 48, 0
3, 19710, Note_on_c, 1, 47, 96
3, 19738, Note_on_c, 1, 47, 0
3, 19740, Note_on_c, 1, 48, 113
3, 19740, Note_on_c, 1, 43, 127
3, 19770, Note_on_c, 1, 50, 96
3, 19773, Note_on_c, 1, 48, 0
3, 19797, Note_on_c, 1, 50, 0
3, 19797, Note_on_c, 1, 43, 0
3, 19800, Note_on_c, 1, 52, 105
3, 19800, Note_on_c, 1, 40, 109
3, 19829, Note_on_c, 1, 52, 0
3, 19830, Note_on_c, 1, 50, 100
3, 19855, Note_on_c, 1, 50, 0
3, 19860, Note_on_c, 1, 40, 0
3, 19860, Note_on_c, 1, 52, 109
3, 19860, Note_on_c, 1, 36, 109
3, 19889, Note_on_c, 1, 52, 0
3, 19890, Note_on_c, 1, 54, 88
3, 19914, Note_on_c, 1, 36, 0
3, 19915, Note_on_c, 1, 54, 0
3, 19920, Note_on_c, 1, 55, 100
3, 19920, Note_on_c, 1, 43, 105
3, 19949, Note_on_c, 1, 43, 0
3, 19950, Note_on_c, 1, 42, 92
3, 19976, Note_on_c, 1, 42, 0
3, 19980, Note_on_c, 1, 43, 100
3, 20008, Note_on_c, 1, 43, 0
3, 20010, Note_on_c, 1, 45, 96
3, 20037, Note_on_c, 1, 45, 0
3, 20037, Note_on_c, 1, 55, 0
3, 20040, Note_on_c, 1, 43, 105
3, 20070, Note_on_c, 1, 40, 96
3, 20071, Note_on_c, 1, 43, 0
3, 20099, Note_on_c, 1, 40, 0
3, 20100, Note_on_c, 1, 41, 105
3, 20127, Note_on_c, 1, 41, 0
3, 20130, Note_on_c, 1, 38, 109
3, 20160, Note_on_c, 1, 38, 0
3, 20160, Note_on_c, 1, 48, 109
3, 20160, Note_on_c, 1, 36, 113
3, 20187, Note_on_c, 1, 48, 0
3, 20190, Note_on_c, 1, 50, 105
3, 20216, Note_on_c, 1, 50, 0
3, 20220, Note_on_c, 1, 48, 92
3, 20247, Note_on_c, 1, 48, 0
3, 20250, Note_on_c, 1, 50, 100
3, 20280, Note_on_c, 1, 50, 0
3, 20280, Note_on_c, 1, 52, 109
3, 20288, Note_on_c, 1, 36, 0
3, 20309, Note_on_c, 1, 52, 0
3, 20310, Note_on_c, 1, 50, 96
3, 20340, Note_on_c, 1, 52, 100
3, 20340, Note_on_c, 1, 43, 109
3, 20342, Note_on_c, 1, 50, 0
3, 20356, Note_on_c, 1, 43, 0
3, 20364, Note_on_c, 1, 52, 0
3, 20370, Note_on_c, 1, 50, 105
3, 20370, Note_on_c, 1, 43, 100
3, 20396, Note_on_c, 1, 43, 0
3, 20397, Note_on_c, 1, 50, 0
3, 20400, Note_on_c, 1, 48, 96
3, 20400, Note_on_c, 1, 36, 109
3, 20430, Note_on_c, 1, 50, 100
3, 20431, Note_on_c, 1, 48, 0
3, 20460, Note_on_c, 1, 48, 92
3, 20463, Note_on_c, 1, 50, 0
3, 20490, Note_on_c, 1, 50, 109
3, 20491, Note_on_c, 1, 48, 0
3, 20519, Note_on_c, 1, 50, 0
3, 20519, Note_on_c, 1, 36, 0
3, 20520, Note_on_c, 1, 52, 100
3, 20548, Note_on_c, 1, 52, 0
3, 20550, Note_on_c, 1, 50, 96
3, 20577, Note_on_c, 1, 50, 0
3, 20580, Note_on_c, 1, 52, 109
3, 20580, Note_on_c, 1, 43, 109
3, 20597, Note_on_c, 1, 43, 0
3, 20605, Note_on_c, 1, 52, 0
3, 20610, Note_on_c, 1, 50, 109
3, 20610, Note_on_c, 1, 43, 96
3, 20631, Note_on_c, 1, 43, 0
3, 20635, Note_on_c, 1, 50, 0
3, 20640, Note_on_c, 1, 48, 96
3, 20640, Note_on_c, 1, 36, 109
3, 20695, Note_on_c, 1, 36, 0
3, 20746, Note_on_c, 1, 48, 0
3, 20760, Note_on_c, 1, 40, 109
3, 20790, Note_on_c, 1, 60, 109
3, 20819, Note_on_c, 1, 60, 0
3, 20820, Note_on_c, 1, 59, 100
3, 20824, Note_on_c, 1, 40, 0
3, 20850, Note_on_c, 1, 57, 96
3, 20851, Note_on_c, 1, 59, 0
3, 20879, Note_on_c, 1, 57, 0
3, 20880, Note_on_c, 1, 55, 109
3, 20880, Note_on_c, 1, 43, 109
3, 20909, Note_on_c, 1, 55, 0
3, 20910, Note_on_c, 1, 57, 109
3, 20939, Note_on_c, 1, 57, 0
3, 20940, Note_on_c, 1, 55, 100
3, 20970, Note_on_c, 1, 53, 100
3, 20973, Note_on_c, 1, 55, 0
3, 20996, Note_on_c, 1, 43, 0
3, 20998, Note_on_c, 1, 53, 0
3, 21000, Note_on_c, 1, 52, 100
3, 21030, Note_on_c, 1, 53, 105
3, 21032, Note_on_c, 1, 52, 0
3, 21060, Note_on_c, 1, 53, 0
3, 21060, Note_on_c, 1, 52, 109
3, 21088, Note_on_c, 1, 52, 0
3, 21090, Note_on_c, 1, 50, 109
3, 21115, Note_on_c, 1, 50, 0
3, 21120, Note_on_c, 1, 48, 109
3, 21179, Note_on_c, 1, 48, 0
3, 21180, Note_on_c, 1, 60, 105
3, 21207, Note_on_c, 1, 60, 0
3, 21210, Note_on_c, 1, 62, 96
3, 21239, Note_on_c, 1, 62, 0
3, 21240, Note_on_c, 1, 64, 100
3, 21270, Note_on_c, 1, 64, 0
3, 21270, Note_on_c, 1, 62, 100
3, 21296, Note_on_c, 1, 62, 0
3, 21300, Note_on_c, 1, 64, 109
3, 21300, Note_on_c, 1, 43, 100
3, 21300, Note_on_c, 1, 55, 96
3, 21315, Note_on_c, 1, 55, 0
3, 21315, Note_on_c, 1, 43, 0
3, 21324, Note_on_c, 1, 64, 0
3, 21330, Note_on_c, 1, 62, 109
3, 21330, Note_on_c, 1, 43, 105
3, 21330, Note_on_c, 1, 55, 82
3, 21351, Note_on_c, 1, 55, 0
3, 21354, Note_on_c, 1, 43, 0
3, 21357, Note_on_c, 1, 62, 0
3, 21360, Note_on_c, 1, 60, 96
3, 21360, Note_on_c, 1, 48, 96
3, 21390, Note_on_c, 1, 62, 100
3, 21391, Note_on_c, 1, 60, 0
3, 21411, Note_on_c, 1, 48, 0
3, 21418, Note_on_c, 1, 62, 0
3, 21420, Note_on_c, 1, 60, 100
3, 21449, Note_on_c, 1, 60, 0
3, 21450, Note_on_c, 1, 62, 96
3, 21480, Note_on_c, 1, 64, 100
3, 21481, Note_on_c, 1, 62, 0
3, 21509, Note_on_c, 1, 64, 0
3, 21510, Note_on_c, 1, 62, 100
3, 21537, Note_on_c, 1, 62, 0
3, 21540, Note_on_c, 1, 64, 100
3, 21540, Note_on_c, 1, 43, 105
3, 21540, Note_on_c, 1, 55, 84
3, 21553, Note_on_c, 1, 43, 0
3, 21554, Note_on_c, 1, 55, 0
3, 21562, Note_on_c, 1, 64, 0
3, 21570, Note_on_c, 1, 62, 88
3, 21570, Note_on_c, 1, 43, 96
3, 21570, Note_on_c, 1, 55, 75
3, 21586, Note_on_c, 1, 55, 0
3, 21596, Note_on_c, 1, 43, 0
3, 21596, Note_on_c, 1, 62, 0
3, 21600, Note_on_c, 1, 60, 105
3, 21600, Note_on_c, 1, 48, 96
3, 21652, Note_on_c, 1, 60, 0
3, 21653, Note_on_c, 1, 48, 0
3, 21720, Note_on_c, 1, 40, 113
3, 21750, Note_on_c, 1, 60, 96
3, 21776, Note_on_c, 1, 60, 0
3, 21780, Note_on_c, 1, 59, 96
3, 21789, Note_on_c, 1, 40, 0
3, 21810, Note_on_c, 1, 59, 0
3, 21810, Note_on_c, 1, 57, 92
3, 21840, Note_on_c, 1, 57, 0
3, 21840, Note_on_c, 1, 55, 105
3, 21840, Note_on_c, 1, 43, 92
3, 21869, Note_on_c, 1, 55, 0
3, 21870, Note_on_c, 1, 57, 92
3, 21898, Note_on_c, 1, 57, 0
3, 21900, Note_on_c, 1, 55, 92
3, 21930, Note_on_c, 1, 55, 0
3, 21930, Note_on_c, 1, 53, 96
3, 21950, Note_on_c, 1, 43, 0
3, 21954, Note_on_c, 1, 53, 0
3, 21960, Note_on_c, 1, 52, 96
3, 21990, Note_on_c, 1, 52, 0
3, 21990, Note_on_c, 1, 53, 96
3, 22020, Note_on_c, 1, 52, 105
3, 22022, Note_on_c, 1, 53, 0
3, 22050, Note_on_c, 1, 52, 0
3, 22050, Note_on_c, 1, 50, 109
3, 22075, Note_on_c, 1, 50, 0
3, 22080, Note_on_c, 1, 48, 92
3, 22080, Note_on_c, 1, 36, 100
3, 22109, Note_on_c, 1, 36, 0
3, 22110, Note_on_c, 1, 38, 100
3, 22136, Note_on_c, 1, 38, 0
3, 22140, Note_on_c, 1, 36, 96
3, 22170, Note_on_c, 1, 38, 96
3, 22172, Note_on_c, 1, 36, 0
3, 22199, Note_on_c, 1, 38, 0
3, 22200, Note_on_c, 1, 40, 92
3, 22226, Note_on_c, 1, 40, 0
3, 22230, Note_on_c, 1, 38, 82
3, 22259, Note_on_c, 1, 38, 0
3, 22260, Note_on_c, 1, 40, 96
3, 22290, Note_on_c, 1, 40, 0
3, 22290, Note_on_c, 1, 36, 113
3, 22319, Note_on_c, 1, 36, 0
3, 22320, Note_on_c, 1, 38, 100
3, 22349, Note_on_c, 1, 38, 0
3, 22350, Note_on_c, 1, 40, 100
3, 22379, Note_on_c, 1, 40, 0
3, 22380, Note_on_c, 1, 38, 109
3, 22410, Note_on_c, 1, 38, 0
3, 22410, Note_on_c, 1, 40, 105
3, 22439, Note_on_c, 1, 40, 0
3, 22440, Note_on_c, 1, 41, 109
3, 22469, Note_on_c, 1, 41, 0
3, 22470, Note_on_c, 1, 40, 105
3, 22500, Note_on_c, 1, 40, 0
3, 22500, Note_on_c, 1, 41, 100
3, 22529, Note_on_c, 1, 41, 0
3, 22530, Note_on_c, 1, 38, 105
3, 22560, Note_on_c, 1, 38, 0
3, 22560, Note_on_c, 1, 40, 113
3, 22590, Note_on_c, 1, 40, 0
3, 22590, Note_on_c, 1, 41, 109
3, 22618, Note_on_c, 1, 41, 0
3, 22620, Note_on_c, 1, 40, 113
3, 22649, Note_on_c, 1, 40, 0
3, 22650, Note_on_c, 1, 41, 109
3, 22679, Note_on_c, 1, 41, 0
3, 22680, Note_on_c, 1, 43, 105
3, 22708, Note_on_c, 1, 43, 0
3, 22710, Note_on_c, 1, 41, 96
3, 22740, Note_on_c, 1, 41, 0
3, 22740, Note_on_c, 1, 43, 100
3, 22770, Note_on_c, 1, 40, 96
3, 22771, Note_on_c, 1, 43, 0
3, 22800, Note_on_c, 1, 40, 0
3, 22800, Note_on_c, 1, 41, 113
3, 22883, Note_on_c, 1, 48, 0
3, 22919, Note_on_c, 1, 41, 0
3, 23040, Note_on_c, 1, 47, 100
3, 23040, Note_on_c, 1, 43, 100
3, 23070, Note_on_c, 1, 47, 0
3, 23070, Note_on_c, 1, 48, 100
3, 23100, Note_on_c, 1, 47, 92
3, 23102, Note_on_c, 1, 48, 0
3, 23130, Note_on_c, 1, 47, 0
3, 23130, Note_on_c, 1, 48, 100
3, 23158, Note_on_c, 1, 48, 0
3, 23160, Note_on_c, 1, 50, 100
3, 23189, Note_on_c, 1, 50, 0
3, 23190, Note_on_c, 1, 48, 96
3, 23220, Note_on_c, 1, 48, 0
3, 23220, Note_on_c, 1, 50, 96
3, 23250, Note_on_c, 1, 47, 105
3, 23251, Note_on_c, 1, 50, 0
3, 23279, Note_on_c, 1, 47, 0
3, 23280, Note_on_c, 1, 48, 109
3, 23310, Note_on_c, 1, 48, 0
3, 23310, Note_on_c, 1, 50, 105
3, 23339, Note_on_c, 1, 50, 0
3, 23340, Note_on_c, 1, 48, 96
3, 23369, Note_on_c, 1, 48, 0
3, 23370, Note_on_c, 1, 50, 113
3, 23399, Note_on_c, 1, 50, 0
3, 23400, Note_on_c, 1, 51, 96
3, 23429, Note_on_c, 1, 51, 0
3, 23430, Note_on_c, 1, 50, 109
3, 23459, Note_on_c, 1, 50, 0
3, 23460, Note_on_c, 1, 51, 100
3, 23490, Note_on_c, 1, 48, 109
3, 23493, Note_on_c, 1, 51, 0
3, 23520, Note_on_c, 1, 48, 0
3, 23520, Note_on_c, 1, 50, 118
3, 23549, Note_on_c, 1, 50, 0
3, 23550, Note_on_c, 1, 52, 105
3, 23579, Note_on_c, 1, 52, 0
3, 23580, Note_on_c, 1, 50, 109
3, 23610, Note_on_c, 1, 52, 109
3, 23612, Note_on_c, 1, 50, 0
3, 23639, Note_on_c, 1, 52, 0
3, 23640, Note_on_c, 1, 53, 109
3, 23669, Note_on_c, 1, 53, 0
3, 23670, Note_on_c, 1, 52, 105
3, 23699, Note_on_c, 1, 52, 0
3, 23700, Note_on_c, 1, 53, 113
3, 23729, Note_on_c, 1, 53, 0
3, 23730, Note_on_c, 1, 50, 109
3, 23760, Note_on_c, 1, 50, 0
3, 23760, Note_on_c, 1, 51, 113
3, 23788, Note_on_c, 1, 51, 0
3, 23790, Note_on_c, 1, 53, 113
3, 23818, Note_on_c, 1, 53, 0
3, 23820, Note_on_c, 1, 51, 100
3, 23848, Note_on_c, 1, 51, 0
3, 23850, Note_on_c, 1, 53, 105
3, 23878, Note_on_c, 1, 53, 0
3, 23880, Note_on_c, 1, 55, 100
3, 23908, Note_on_c, 1, 55, 0
3, 23910, Note_on_c, 1, 53, 105
3, 23939, Note_on_c, 1, 53, 0
3, 23940, Note_on_c, 1, 55, 105
3, 23953, Note_on_c, 1, 43, 0
3, 23970, Note_on_c, 1, 55, 0
3, 23970, Note_on_c, 1, 51, 105
3, 23994, Note_on_c, 1, 51, 0
3, 24000, Note_on_c, 1, 51, 105
3, 24030, Note_on_c, 1, 51, 0
3, 24030, Note_on_c, 1, 53, 113
3, 24059, Note_on_c, 1, 53, 0
3, 24060, Note_on_c, 1, 51, 100
3, 24088, Note_on_c, 1, 51, 0
3, 24090, Note_on_c, 1, 53, 105
3, 24119, Note_on_c, 1, 53, 0
3, 24120, Note_on_c, 1, 55, 84
3, 24148, Note_on_c, 1, 55, 0
3, 24150, Note_on_c, 1, 53, 105
3, 24177, Note_on_c, 1, 53, 0
3, 24180, Note_on_c, 1, 55, 109
3, 24180, Note_on_c, 1, 39, 113
3, 24195, Note_on_c, 1, 39, 0
3, 24207, Note_on_c, 1, 55, 0
3, 24210, Note_on_c, 1, 51, 96
3, 24210, Note_on_c, 1, 39, 100
3, 24236, Note_on_c, 1, 39, 0
3, 24237, Note_on_c, 1, 51, 0
3, 24240, Note_on_c, 1, 56, 105
3, 24240, Note_on_c, 1, 44, 96
3, 24363, Note_on_c, 1, 44, 0
3, 24363, Note_on_c, 1, 56, 0
3, 24420, Note_on_c, 1, 51, 113
3, 24420, Note_on_c, 1, 39, 109
3, 24436, Note_on_c, 1, 39, 0
3, 24440, Note_on_c, 1, 51, 0
3, 24450, Note_on_c, 1, 39, 100
3, 24450, Note_on_c, 1, 51, 109
3, 24474, Note_on_c, 1, 51, 0
3, 24478, Note_on_c, 1, 39, 0
3, 24480, Note_on_c, 1, 56, 105
3, 24480, Note_on_c, 1, 44, 100
3, 24608, Note_on_c, 1, 56, 0
3, 24611, Note_on_c, 1, 44, 0
3, 24660, Note_on_c, 1, 51, 122
3, 24660, Note_on_c, 1, 39, 118
3, 24680, Note_on_c, 1, 39, 0
3, 24681, Note_on_c, 1, 51, 0
3, 24690, Note_on_c, 1, 51, 105
3, 24690, Note_on_c, 1, 39, 80
3, 24713, Note_on_c, 1, 51, 0
3, 24717, Note_on_c, 1, 39, 0
3, 24720, Note_on_c, 1, 56, 113
3, 24720, Note_on_c, 1, 44, 109
3, 24946, Note_on_c, 1, 44, 0
3, 24948, Note_on_c, 1, 56, 0
3, 24960, Note_on_c, 1, 43, 105
3, 24960, Note_on_c, 1, 55, 109
3, 24988, Note_on_c, 1, 55, 0
3, 24989, Note_on_c, 1, 43, 0
3, 24990, Note_on_c, 1, 42, 88
3, 24990, Note_on_c, 1, 54, 92
3, 25014, Note_on_c, 1, 54, 0
3, 25018, Note_on_c, 1, 42, 0
3, 25020, Note_on_c, 1, 55, 105
3, 25020, Note_on_c, 1, 43, 96
3, 25049, Note_on_c, 1, 43, 0
3, 25050, Note_on_c, 1, 42, 96
3, 25050, Note_on_c, 1, 54, 84
3, 25051, Note_on_c, 1, 55, 0
3, 25079, Note_on_c, 1, 54, 0
3, 25080, Note_on_c, 1, 55, 109
3, 25080, Note_on_c, 1, 43, 96
3, 25082, Note_on_c, 1, 42, 0
3, 25197, Note_on_c, 1, 43, 0
3, 25198, Note_on_c, 1, 55, 0
3, 25440, Note_on_c, 1, 43, 122
3, 25470, Note_on_c, 1, 45, 96
3, 25500, Note_on_c, 1, 45, 0
3, 25500, Note_on_c, 1, 47, 109
3, 25529, Note_on_c, 1, 47, 0
3, 25530, Note_on_c, 1, 48, 105
3, 25558, Note_on_c, 1, 48, 0
3, 25560, Note_on_c, 1, 50, 92
3, 25587, Note_on_c, 1, 50, 0
3, 25590, Note_on_c, 1, 52, 79
3, 25619, Note_on_c, 1, 52, 0
3, 25620, Note_on_c, 1, 53, 105
3, 25650, Note_on_c, 1, 54, 84
3, 25653, Note_on_c, 1, 53, 0
3, 25678, Note_on_c, 1, 54, 0
3, 25680, Note_on_c, 1, 55, 84
3, 25710, Note_on_c, 1, 54, 109
3, 25712, Note_on_c, 1, 55, 0
3, 25739, Note_on_c, 1, 54, 0
3, 25740, Note_on_c, 1, 55, 100
3, 25769, Note_on_c, 1, 55, 0
3, 25770, Note_on_c, 1, 57, 113
3, 25799, Note_on_c, 1, 57, 0
3, 25800, Note_on_c, 1, 55, 88
3, 25830, Note_on_c, 1, 55, 0
3, 25830, Note_on_c, 1, 57, 92
3, 25860, Note_on_c, 1, 53, 105
3, 25861, Note_on_c, 1, 57, 0
3, 25887, Note_on_c, 1, 53, 0
3, 25890, Note_on_c, 1, 55, 109
3, 25904, Note_on_c, 1, 43, 0
3, 25920, Note_on_c, 1, 55, 0
3, 25920, Note_on_c, 1, 52, 109
3, 25920, Note_on_c, 1, 48, 113
3, 25990, Note_on_c, 1, 52, 0
3, 25991, Note_on_c, 1, 48, 0
3, 26040, Note_on_c, 1, 52, 109
3, 26040, Note_on_c, 1, 48, 109
3, 26040, Note_on_c, 1, 45, 113
3, 26125, Note_on_c, 1, 48, 0
3, 26125, Note_on_c, 1, 52, 0
3, 26126, Note_on_c, 1, 45, 0
3, 26160, Note_on_c, 1, 50, 109
3, 26160, Note_on_c, 1, 48, 109
3, 26160, Note_on_c, 1, 41, 113
3, 26236, Note_on_c, 1, 48, 0
3, 26237, Note_on_c, 1, 41, 0
3, 26238, Note_on_c, 1, 50, 0
3, 26280, Note_on_c, 1, 47, 113
3, 26280, Note_on_c, 1, 50, 109
3, 26280, Note_on_c, 1, 43, 122
3, 26351, Note_on_c, 1, 50, 0
3, 26352, Note_on_c, 1, 43, 0
3, 26352, Note_on_c, 1, 47, 0
3, 26400, Note_on_c, 1, 48, 127
3, 26429, Note_on_c, 1, 48, 0
3, 26430, Note_on_c, 1, 52, 109
3, 26457, Note_on_c, 1, 52, 0
3, 26460, Note_on_c, 1, 55, 100
3, 26486, Note_on_c, 1, 55, 0
3, 26490, Note_on_c, 1, 60, 100
3, 26515, Note_on_c, 1, 60, 0
3, 26520, Note_on_c, 1, 45, 105
3, 26550, Note_on_c, 1, 48, 100
3, 26551, Note_on_c, 1, 45, 0
3, 26579, Note_on_c, 1, 48, 0
3, 26580, Note_on_c, 1, 52, 109
3, 26610, Note_on_c, 1, 52, 0
3, 26610, Note_on_c, 1, 57, 109
3, 26635, Note_on_c, 1, 57, 0
3, 26640, Note_on_c, 1, 41, 109
3, 26668, Note_on_c, 1, 41, 0
3, 26670, Note_on_c, 1, 45, 113
3, 26700, Note_on_c, 1, 45, 0
3, 26700, Note_on_c, 1, 50, 109
3, 26727, Note_on_c, 1, 50, 0
3, 26730, Note_on_c, 1, 53, 109
3, 26756, Note_on_c, 1, 53, 0
3, 26760, Note_on_c, 1, 43, 105
3, 26789, Note_on_c, 1, 43, 0
3, 26790, Note_on_c, 1, 47, 109
3, 26820, Note_on_c, 1, 50, 100
3, 26822, Note_on_c, 1, 47, 0
3, 26847, Note_on_c, 1, 50, 0
3, 26850, Note_on_c, 1, 55, 96
3, 26879, Note_on_c, 1, 55, 0
3, 26880, Note_on_c, 1, 48, 100
3, 26880, Note_on_c, 1, 36, 109
3, 26925, Note_on_c, 1, 36, 0
3, 26927, Note_on_c, 1, 48, 0
3, 26940, Note_on_c, 1, 48, 109
3, 26940, Note_on_c, 1, 36, 113
3, 26985, Note_on_c, 1, 36, 0
3, 26985, Note_on_c, 1, 48, 0
3, 27000, Note_on_c, 1, 36, 96
3, 27000, Note_on_c, 1, 48, 109
3, 27042, Note_on_c, 1, 36, 0
3, 27044, Note_on_c, 1, 48, 0
3, 27060, Note_on_c, 1, 36, 113
3, 27060, Note_on_c, 1, 48, 113
3, 27104, Note_on_c, 1, 36, 0
3, 27106, Note_on_c, 1, 48, 0
3, 27120, Note_on_c, 1, 36, 113
3, 27120, Note_on_c, 1, 48, 113
3, 27234, Note_on_c, 1, 36, 0
3, 27239, Note_on_c, 1, 48, 0
3, 27360, Note_on_c, 1, 57, 109
3, 27360, Note_on_c, 1, 41, 82
3, 27360, Note_on_c, 1, 53, 82
3, 27484, Note_on_c, 1, 53, 0
3, 27485, Note_on_c, 1, 41, 0
3, 27486, Note_on_c, 1, 57, 0
3, 27540, Note_on_c, 1, 41, 96
3, 27540, Note_on_c, 1, 57, 96
3, 27540, Note_on_c, 1, 53, 84
3, 27559, Note_on_c, 1, 53, 0
3, 27559, Note_on_c, 1, 41, 0
3, 27560, Note_on_c, 1, 57, 0
3, 27570, Note_on_c, 1, 41, 84
3, 27570, Note_on_c, 1, 53, 80
3, 27570, Note_on_c, 1, 57, 100
3, 27586, Note_on_c, 1, 53, 0
3, 27588, Note_on_c, 1, 57, 0
3, 27589, Note_on_c, 1, 41, 0
3, 27600, Note_on_c, 1, 52, 82
3, 27600, Note_on_c, 1, 40, 96
3, 27600, Note_on_c, 1, 55, 100
3, 27727, Note_on_c, 1, 52, 0
3, 27728, Note_on_c, 1, 40, 0
3, 27731, Note_on_c, 1, 55, 0
3, 27780, Note_on_c, 1, 40, 100
3, 27780, Note_on_c, 1, 55, 113
3, 27780, Note_on_c, 1, 52, 75
3, 27796, Note_on_c, 1, 55, 0
3, 27798, Note_on_c, 1, 52, 0
3, 27798, Note_on_c, 1, 40, 0
3, 27810, Note_on_c, 1, 55, 92
3, 27810, Note_on_c, 1, 40, 84
3, 27810, Note_on_c, 1, 52, 77
3, 27825, Note_on_c, 1, 52, 0
3, 27826, Note_on_c, 1, 55, 0
3, 27828, Note_on_c, 1, 40, 0
3, 27840, Note_on_c, 1, 53, 96
3, 27840, Note_on_c, 1, 57, 96
3, 27840, Note_on_c, 1, 50, 84
3, 27840, Note_on_c, 1, 38, 105
3, 27972, Note_on_c, 1, 38, 0
3, 27973, Note_on_c, 1, 50, 0
3, 27974, Note_on_c, 1, 53, 0
3, 27978, Note_on_c, 1, 57, 0
3, 28020, Note_on_c, 1, 38, 109
3, 28020, Note_on_c, 1, 53, 100
3, 28020, Note_on_c, 1, 57, 105
3, 28020, Note_on_c, 1, 50, 82
3, 28035, Note_on_c, 1, 50, 0
3, 28036, Note_on_c, 1, 57, 0
3, 28037, Note_on_c, 1, 53, 0
3, 28038, Note_on_c, 1, 38, 0
3, 28050, Note_on_c, 1, 38, 96
3, 28050, Note_on_c, 1, 53, 88
3, 28050, Note_on_c, 1, 57, 92
3, 28050, Note_on_c, 1, 50, 79
3, 28063, Note_on_c, 1, 50, 0
3, 28063, Note_on_c, 1, 53, 0
3, 28065, Note_on_c, 1, 57, 0
3, 28066, Note_on_c, 1, 38, 0
3, 28080, Note_on_c, 1, 52, 100
3, 28080, Note_on_c, 1, 48, 105
3, 28080, Note_on_c, 1, 36, 113
3, 28080, Note_on_c, 1, 60, 105
3, 28080, Note_on_c, 1, 55, 105
3, 28215, Note_on_c, 1, 36, 0
3, 28216, Note_on_c, 1, 55, 0
3, 28217, Note_on_c, 1, 60, 0
3, 28223, Note_on_c, 1, 48, 0
3, 28223, Note_on_c, 1, 52, 0
3, 28260, Note_on_c, 1, 46, 92
3, 28260, Note_on_c, 1, 52, 105
3, 28278, Note_on_c, 1, 52, 0
3, 28278, Note_on_c, 1, 46, 0
3, 28290, Note_on_c, 1, 46, 96
3, 28290, Note_on_c, 1, 52, 100
3, 28307, Note_on_c, 1, 52, 0
3, 28307, Note_on_c, 1, 46, 0
3, 28320, Note_on_c, 1, 53, 96
3, 28320, Note_on_c, 1, 45, 96
3, 28446, Note_on_c, 1, 53, 0
3, 28451, Note_on_c, 1, 45, 0
3, 28500, Note_on_c, 1, 45, 105
3, 28552, Note_on_c, 1, 45, 0
3, 28560, Note_on_c, 1, 46, 109
3, 28679, Note_on_c, 1, 46, 0
3, 28680, Note_on_c, 1, 45, 96
3, 28680, Note_on_c, 1, 53, 100
3, 28791, Note_on_c, 1, 45, 0
3, 28792, Note_on_c, 1, 53, 0
3, 28800, Note_on_c, 1, 43, 105
3, 28800, Note_on_c, 1, 55, 109
3, 28911, Note_on_c, 1, 43, 0
3, 28920, Note_on_c, 1, 36, 109
3, 29030, Note_on_c, 1, 55, 0
3, 29036, Note_on_c, 1, 36, 0
3, 29040, Note_on_c, 1, 41, 92
3, 29040, Note_on_c, 1, 53, 96
3, 29161, Note_on_c, 1, 53, 0
3, 29163, Note_on_c, 1, 41, 0
3, 29430, Note_on_c, 1, 53, 96
3, 29430, Note_on_c, 1, 57, 96
3, 29452, Note_on_c, 1, 53, 0
3, 29458, Note_on_c, 1, 57, 0
3, 29460, Note_on_c, 1, 58, 82
3, 29460, Note_on_c, 1, 55, 100
3, 29483, Note_on_c, 1, 55, 0
3, 29484, Note_on_c, 1, 58, 0
3, 29490, Note_on_c, 1, 60, 84
3, 29490, Note_on_c, 1, 57, 92
3, 29516, Note_on_c, 1, 57, 0
3, 29517, Note_on_c, 1, 60, 0
3, 29520, Note_on_c, 1, 58, 75
3, 29520, Note_on_c, 1, 62, 92
3, 29544, Note_on_c, 1, 62, 0
3, 29544, Note_on_c, 1, 58, 0
3, 29550, Note_on_c, 1, 60, 96
3, 29550, Note_on_c, 1, 57, 84
3, 29575, Note_on_c, 1, 57, 0
3, 29576, Note_on_c, 1, 60, 0
3, 29580, Note_on_c, 1, 62, 92
3, 29580, Note_on_c, 1, 58, 92
3, 29595, Note_on_c, 1, 58, 0
3, 29597, Note_on_c, 1, 62, 0
3, 29610, Note_on_c, 1, 64, 96
3, 29610, Note_on_c, 1, 60, 100
3, 29628, Note_on_c, 1, 60, 0
3, 29628, Note_on_c, 1, 64, 0
3, 29640, Note_on_c, 1, 62, 105
3, 29670, Note_on_c, 1, 50, 105
3, 29700, Note_on_c, 1, 50, 0
3, 29700, Note_on_c, 1, 48, 92
3, 29725, Note_on_c, 1, 48, 0
3, 29730, Note_on_c, 1, 50, 100
3, 29759, Note_on_c, 1, 50, 0
3, 29760, Note_on_c, 1, 46, 92
3, 29790, Note_on_c, 1, 43, 100
3, 29791, Note_on_c, 1, 46, 0
3, 29819, Note_on_c, 1, 43, 0
3, 29820, Note_on_c, 1, 45, 96
3, 29850, Note_on_c, 1, 46, 96
3, 29853, Note_on_c, 1, 45, 0
3, 29871, Note_on_c, 1, 62, 0
3, 29879, Note_on_c, 1, 46, 0
3, 29880, Note_on_c, 1, 60, 105
3, 29880, Note_on_c, 1, 48, 96
3, 29909, Note_on_c, 1, 48, 0
3, 29910, Note_on_c, 1, 46, 92
3, 29938, Note_on_c, 1, 46, 0
3, 29939, Note_on_c, 1, 60, 0
3, 29940, Note_on_c, 1, 58, 100
3, 29940, Note_on_c, 1, 48, 92
3, 29969, Note_on_c, 1, 48, 0
3, 29970, Note_on_c, 1, 36, 96
3, 29997, Note_on_c, 1, 58, 0
3, 30000, Note_on_c, 1, 57, 105
3, 30000, Note_on_c, 1, 41, 100
3, 30001, Note_on_c, 1, 36, 0
3, 30113, Note_on_c, 1, 57, 0
3, 30115, Note_on_c, 1, 41, 0
3, 30180, Note_on_c, 1, 45, 109
3, 30180, Note_on_c, 1, 41, 105
3, 30236, Note_on_c, 1, 41, 0
3, 30238, Note_on_c, 1, 45, 0
3, 30240, Note_on_c, 1, 43, 105
3, 30240, Note_on_c, 1, 46, 109
3, 30361, Note_on_c, 1, 46, 0
3, 30364, Note_on_c, 1, 43, 0
3, 30420, Note_on_c, 1, 46, 105
3, 30420, Note_on_c, 1, 43, 109
3, 30479, Note_on_c, 1, 43, 0
3, 30479, Note_on_c, 1, 46, 0
3, 30480, Note_on_c, 1, 48, 109
3, 30480, Note_on_c, 1, 45, 109
3, 30609, Note_on_c, 1, 45, 0
3, 30610, Note_on_c, 1, 48, 0
3, 30660, Note_on_c, 1, 45, 118
3, 30660, Note_on_c, 1, 48, 109
3, 30715, Note_on_c, 1, 48, 0
3, 30718, Note_on_c, 1, 45, 0
3, 30720, Note_on_c, 1, 46, 100
3, 30720, Note_on_c, 1, 50, 109
3, 30850, Note_on_c, 1, 46, 0
3, 30854, Note_on_c, 1, 50, 0
3, 30900, Note_on_c, 1, 55, 109
3, 30900, Note_on_c, 1, 47, 109
3, 30947, Note_on_c, 1, 47, 0
3, 30949, Note_on_c, 1, 55, 0
3, 30960, Note_on_c, 1, 55, 109
3, 30960, Note_on_c, 1, 48, 109
3, 30991, Note_on_c, 1, 48, 0
3, 31020, Note_on_c, 1, 48, 118
3, 31046, Note_on_c, 1, 48, 0
3, 31050, Note_on_c, 1, 47, 118
3, 31078, Note_on_c, 1, 47, 0
3, 31080, Note_on_c, 1, 45, 109
3, 31081, Note_on_c, 1, 55, 0
3, 31107, Note_on_c, 1, 45, 0
3, 31110, Note_on_c, 1, 43, 92
3, 31140, Note_on_c, 1, 43, 0
3, 31140, Note_on_c, 1, 55, 109
3, 31140, Note_on_c, 1, 41, 105
3, 31169, Note_on_c, 1, 41, 0
3, 31170, Note_on_c, 1, 40, 100
3, 31194, Note_on_c, 1, 55, 0
3, 31197, Note_on_c, 1, 40, 0
3, 31201, Note_on_c, 1, 53, 100
3, 31258, Note_on_c, 1, 50, 105
3, 31284, Note_on_c, 1, 50, 0
3, 31284, Note_on_c, 1, 48, 96
3, 31313, Note_on_c, 1, 53, 0
3, 31314, Note_on_c, 1, 48, 0
3, 31316, Note_on_c, 1, 47, 109
3, 31340, Note_on_c, 1, 47, 0
3, 31345, Note_on_c, 1, 45, 100
3, 31373, Note_on_c, 1, 45, 0
3, 31374, Note_on_c, 1, 43, 109
3, 31374, Note_on_c, 1, 59, 100
3, 31398, Note_on_c, 1, 59, 0
3, 31403, Note_on_c, 1, 43, 0
3, 31403, Note_on_c, 1, 41, 96
3, 31403, Note_on_c, 1, 57, 109
3, 31429, Note_on_c, 1, 41, 0
3, 31431, Note_on_c, 1, 57, 0
3, 31434, Note_on_c, 1, 40, 96
3, 31435, Note_on_c, 1, 55, 100
3, 31490, Note_on_c, 1, 40, 0
3, 31497, Note_on_c, 1, 52, 109
3, 31523, Note_on_c, 1, 52, 0
3, 31525, Note_on_c, 1, 50, 105
3, 31553, Note_on_c, 1, 50, 0
3, 31555, Note_on_c, 1, 55, 0
3, 31555, Note_on_c, 1, 48, 113
3, 31582, Note_on_c, 1, 48, 0
3, 31584, Note_on_c, 1, 47, 96
3, 31613, Note_on_c, 1, 47, 0
3, 31615, Note_on_c, 1, 45, 109
3, 31616, Note_on_c, 1, 60, 105
3, 31642, Note_on_c, 1, 60, 0
3, 31643, Note_on_c, 1, 45, 0
3, 31644, Note_on_c, 1, 43, 96
3, 31650, Note_on_c, 1, 59, 100
3, 31672, Note_on_c, 1, 43, 0
3, 31674, Note_on_c, 1, 41, 100
3, 31677, Note_on_c, 1, 57, 105
3, 31680, Note_on_c, 1, 59, 0
3, 31681, Note_on_c, 1, 41, 105
3, 31683, Note_on_c, 1, 57, 113
3, 31735, Note_on_c, 1, 41, 0
3, 31742, Note_on_c, 1, 53, 109
3, 31772, Note_on_c, 1, 52, 109
3, 31773, Note_on_c, 1, 53, 0
3, 31794, Note_on_c, 1, 57, 0
3, 31799, Note_on_c, 1, 52, 0
3, 31802, Note_on_c, 1, 50, 105
3, 31833, Note_on_c, 1, 50, 0
3, 31834, Note_on_c, 1, 48, 105
3, 31862, Note_on_c, 1, 48, 0
3, 31863, Note_on_c, 1, 47, 105
3, 31863, Note_on_c, 1, 50, 109
3, 31887, Note_on_c, 1, 50, 0
3, 31890, Note_on_c, 1, 47, 0
3, 31893, Note_on_c, 1, 45, 96
3, 31895, Note_on_c, 1, 50, 105
3, 31908, Note_on_c, 1, 50, 0
3, 31922, Note_on_c, 1, 45, 0
3, 31924, Note_on_c, 1, 43, 113
3, 31925, Note_on_c, 1, 50, 105
3, 31980, Note_on_c, 1, 50, 0
3, 31984, Note_on_c, 1, 43, 0
3, 32160, Note_on_c, 1, 48, 105
3, 32188, Note_on_c, 1, 48, 0
3, 32190, Note_on_c, 1, 47, 100
3, 32217, Note_on_c, 1, 47, 0
3, 32220, Note_on_c, 1, 48, 105
3, 32220, Note_on_c, 1, 43, 109
3, 32250, Note_on_c, 1, 50, 96
3, 32252, Note_on_c, 1, 48, 0
3, 32275, Note_on_c, 1, 50, 0
3, 32278, Note_on_c, 1, 43, 0
3, 32280, Note_on_c, 1, 52, 105
3, 32280, Note_on_c, 1, 40, 100
3, 32308, Note_on_c, 1, 52, 0
3, 32310, Note_on_c, 1, 50, 100
3, 32336, Note_on_c, 1, 50, 0
3, 32337, Note_on_c, 1, 40, 0
3, 32340, Note_on_c, 1, 52, 113
3, 32340, Note_on_c, 1, 36, 113
3, 32370, Note_on_c, 1, 54, 92
3, 32371, Note_on_c, 1, 52, 0
3, 32397, Note_on_c, 1, 36, 0
3, 32397, Note_on_c, 1, 54, 0
3, 32400, Note_on_c, 1, 55, 100
3, 32400, Note_on_c, 1, 43, 109
3, 32513, Note_on_c, 1, 55, 0
3, 32516, Note_on_c, 1, 43, 0
3, 32550, Note_on_c, 1, 43, 105
3, 32577, Note_on_c, 1, 43, 0
3, 32577, Note_on_c, 1, 57, 0
3, 32577, Note_on_c, 1, 41, 0
3, 32580, Note_on_c, 1, 45, 92
3, 32610, Note_on_c, 1, 47, 92
3, 32612, Note_on_c, 1, 45, 0
3, 32639, Note_on_c, 1, 47, 0
3, 32640, Note_on_c, 1, 48, 105
3, 32668, Note_on_c, 1, 48, 0
3, 32670, Note_on_c, 1, 47, 96
3, 32698, Note_on_c, 1, 47, 0
3, 32700, Note_on_c, 1, 48, 113
3, 32700, Note_on_c, 1, 43, 127
3, 32730, Note_on_c, 1, 50, 96
3, 32733, Note_on_c, 1, 48, 0
3, 32757, Note_on_c, 1, 50, 0
3, 32757, Note_on_c, 1, 43, 0
3, 32760, Note_on_c, 1, 52, 105
3, 32760, Note_on_c, 1, 40, 109
3, 32789, Note_on_c, 1, 52, 0
3, 32790, Note_on_c, 1, 50, 100
3, 32815, Note_on_c, 1, 50, 0
3, 32820, Note_on_c, 1, 40, 0
3, 32820, Note_on_c, 1, 52, 109
3, 32820, Note_on_c, 1, 36, 109
3, 32849, Note_on_c, 1, 52, 0
3, 32850, Note_on_c, 1, 54, 88
3, 32874, Note_on_c, 1, 36, 0
3, 32875, Note_on_c, 1, 54, 0
3, 32880, Note_on_c, 1, 55, 100
3, 32880, Note_on_c, 1, 43, 105
3, 32909, Note_on_c, 1, 43, 0
3, 32910, Note_on_c, 1, 42, 92
3, 32936, Note_on_c, 1, 42, 0
3, 32940, Note_on_c, 1, 43, 100
3, 32968, Note_on_c, 1, 43, 0
3, 32970, Note_on_c, 1, 45, 96
3, 32997, Note_on_c, 1, 45, 0
3, 32997, Note_on_c, 1, 55, 0
3, 33000, Note_on_c, 1, 43, 105
3, 33030, Note_on_c, 1, 40, 96
3, 33031, Note_on_c, 1, 43, 0
3, 33059, Note_on_c, 1, 40, 0
3, 33060, Note_on_c, 1, 41, 105
3, 33087, Note_on_c, 1, 41, 0
3, 33090, Note_on_c, 1, 38, 109
3, 33120, Note_on_c, 1, 38, 0
3, 33120, Note_on_c, 1, 48, 109
3, 33120, Note_on_c, 1, 36, 113
3, 33147, Note_on_c, 1, 48, 0
3, 33150, Note_on_c, 1, 50, 105
3, 33176, Note_on_c, 1, 50, 0
3, 33180, Note_on_c, 1, 48, 92
3, 33207, Note_on_c, 1, 48, 0
3, 33210, Note_on_c, 1, 50, 100
3, 33240, Note_on_c, 1, 50, 0
3, 33240, Note_on_c, 1, 52, 109
3, 33248, Note_on_c, 1, 36, 0
3, 33269, Note_on_c, 1, 52, 0
3, 33270, Note_on_c, 1, 50, 96
3, 33300, Note_on_c, 1, 52, 100
3, 33300, Note_on_c, 1, 43, 109
3, 33302, Note_on_c, 1, 50, 0
3, 33316, Note_on_c, 1, 43, 0
3, 33324, Note_on_c, 1, 52, 0
3, 33330, Note_on_c, 1, 50, 105
3, 33330, Note_on_c, 1, 43, 100
3, 33356, Note_on_c, 1, 43, 0
3, 33357, Note_on_c, 1, 50, 0
3, 33360, Note_on_c, 1, 48, 96
3, 33360, Note_on_c, 1, 36, 109
3, 33390, Note_on_c, 1, 50, 100
3, 33391, Note_on_c, 1, 48, 0
3, 33420, Note_on_c, 1, 48, 92
3, 33423, Note_on_c, 1, 50, 0
3, 33450, Note_on_c, 1, 50, 109
3, 33451, Note_on_c, 1, 48, 0
3, 33479, Note_on_c, 1, 50, 0
3, 33479, Note_on_c, 1, 36, 0
3, 33480, Note_on_c, 1, 52, 100
3, 33508, Note_on_c, 1, 52, 0
3, 33510, Note_on_c, 1, 50, 96
3, 33537, Note_on_c, 1, 50, 0
3, 33540, Note_on_c, 1, 52, 109
3, 33540, Note_on_c, 1, 43, 109
3, 33557, Note_on_c, 1, 43, 0
3, 33565, Note_on_c, 1, 52, 0
3, 33570, Note_on_c, 1, 50, 109
3, 33570, Note_on_c, 1, 43, 96
3, 33591, Note_on_c, 1, 43, 0
3, 33595, Note_on_c, 1, 50, 0
3, 33600, Note_on_c, 1, 48, 96
3, 33600, Note_on_c, 1, 36, 109
3, 33655, Note_on_c, 1, 36, 0
3, 33706, Note_on_c, 1, 48, 0
3, 33720, Note_on_c, 1, 40, 109
3, 33750, Note_on_c, 1, 60, 109
3, 33779, Note_on_c, 1, 60, 0
3, 33780, Note_on_c, 1, 59, 100
3, 33784, Note_on_c, 1, 40, 0
3, 33810, Note_on_c, 1, 57, 96
3, 33811, Note_on_c, 1, 59, 0
3, 33839, Note_on_c, 1, 57, 0
3, 33840, Note_on_c, 1, 55, 109
3, 33840, Note_on_c, 1, 43, 109
3, 33869, Note_on_c, 1, 55, 0
3, 33870, Note_on_c, 1, 57, 109
3, 33899, Note_on_c, 1, 57, 0
3, 33900, Note_on_c, 1, 55, 100
3, 33930, Note_on_c, 1, 53, 100
3, 33933, Note_on_c, 1, 55, 0
3, 33956, Note_on_c, 1, 43, 0
3, 33958, Note_on_c, 1, 53, 0
3, 33960, Note_on_c, 1, 52, 100
3, 33990, Note_on_c, 1, 53, 105
3, 33992, Note_on_c, 1, 52, 0
3, 34020, Note_on_c, 1, 53, 0
3, 34020, Note_on_c, 1, 52, 109
3, 34048, Note_on_c, 1, 52, 0
3, 34050, Note_on_c, 1, 50, 109
3, 34075, Note_on_c, 1, 50, 0
3, 34080, Note_on_c, 1, 48, 109
3, 34139, Note_on_c, 1, 48, 0
3, 34140, Note_on_c, 1, 60, 105
3, 34167, Note_on_c, 1, 60, 0
3, 34170, Note_on_c, 1, 62, 96
3, 34199, Note_on_c, 1, 62, 0
3, 34200, Note_on_c, 1, 64, 100
3, 34230, Note_on_c, 1, 64, 0
3, 34230, Note_on_c, 1, 62, 100
3, 34256, Note_on_c, 1, 62, 0
3, 34260, Note_on_c, 1, 64, 109
3, 34260, Note_on_c, 1, 43, 100
3, 34260, Note_on_c, 1, 55, 96
3, 34275, Note_on_c, 1, 55, 0
3, 34275, Note_on_c, 1, 43, 0
3, 34284, Note_on_c, 1, 64, 0
3, 34290, Note_on_c, 1, 62, 109
3, 34290, Note_on_c, 1, 43, 105
3, 34290, Note_on_c, 1, 55, 82
3, 34311, Note_on_c, 1, 55, 0
3, 34314, Note_on_c, 1, 43, 0
3, 34317, Note_on_c, 1, 62, 0
3, 34320, Note_on_c, 1, 60, 96
3, 34320, Note_on_c, 1, 48, 96
3, 34350, Note_on_c, 1, 62, 100
3, 34351, Note_on_c, 1, 60, 0
3, 34371, Note_on_c, 1, 48, 0
3, 34378, Note_on_c, 1, 62, 0
3, 34380, Note_on_c, 1, 60, 100
3, 34409, Note_on_c, 1, 60, 0
3, 34410, Note_on_c, 1, 62, 96
3, 34440, Note_on_c, 1, 64, 100
3, 34441, Note_on_c, 1, 62, 0
3, 34469, Note_on_c, 1, 64, 0
3, 34470, Note_on_c, 1, 62, 100
3, 34497, Note_on_c, 1, 62, 0
3, 34500, Note_on_c, 1, 64, 100
3, 34500, Note_on_c, 1, 43, 105
3, 34500, Note_on_c, 1, 55, 84
3, 34513, Note_on_c, 1, 43, 0
3, 34514, Note_on_c, 1, 55, 0
3, 34522, Note_on_c, 1, 64, 0
3, 34530, Note_on_c, 1, 62, 88
3, 34530, Note_on_c, 1, 43, 96
3, 34530, Note_on_c, 1, 55, 75
3, 34546, Note_on_c, 1, 55, 0
3, 34556, Note_on_c, 1, 43, 0
3, 34556, Note_on_c, 1, 62, 0
3, 34560, Note_on_c, 1, 60, 105
3, 34560, Note_on_c, 1, 48, 96
3, 34612, Note_on_c, 1, 60, 0
3, 34613, Note_on_c, 1, 48, 0
3, 34680, Note_on_c, 1, 40, 113
3, 34710, Note_on_c, 1, 60, 96
3, 34736, Note_on_c, 1, 60, 0
3, 34740, Note_on_c, 1, 59, 96
3, 34749, Note_on_c, 1, 40, 0
3, 34770, Note_on_c, 1, 59, 0
3, 34770, Note_on_c, 1, 57, 92
3, 34800, Note_on_c, 1, 57, 0
3, 34800, Note_on_c, 1, 55, 105
3, 34800, Note_on_c, 1, 43, 92
3, 34829, Note_on_c, 1, 55, 0
3, 34830, Note_on_c, 1, 57, 92
3, 34858, Note_on_c, 1, 57, 0
3, 34860, Note_on_c, 1, 55, 92
3, 34890, Note_on_c, 1, 55, 0
3, 34890, Note_on_c, 1, 53, 96
3, 34910, Note_on_c, 1, 43, 0
3, 34914, Note_on_c, 1, 53, 0
3, 34920, Note_on_c, 1, 52, 96
3, 34950, Note_on_c, 1, 52, 0
3, 34950, Note_on_c, 1, 53, 96
3, 34980, Note_on_c, 1, 52, 105
3, 34982, Note_on_c, 1, 53, 0
3, 35010, Note_on_c, 1, 52, 0
3, 35010, Note_on_c, 1, 50, 109
3, 35035, Note_on_c, 1, 50, 0
3, 35040, Note_on_c, 1, 48, 92
3, 35040, Note_on_c, 1, 36, 100
3, 35069, Note_on_c, 1, 36, 0
3, 35070, Note_on_c, 1, 38, 100
3, 35096, Note_on_c, 1, 38, 0
3, 35100, Note_on_c, 1, 36, 96
3, 35130, Note_on_c, 1, 38, 96
3, 35132, Note_on_c, 1, 36, 0
3, 35159, Note_on_c, 1, 38, 0
3, 35160, Note_on_c, 1, 40, 92
3, 35186, Note_on_c, 1, 40, 0
3, 35190, Note_on_c, 1, 38, 82
3, 35219, Note_on_c, 1, 38, 0
3, 35220, Note_on_c, 1, 40, 96
3, 35250, Note_on_c, 1, 40, 0
3, 35250, Note_on_c, 1, 36, 113
3, 35279, Note_on_c, 1, 36, 0
3, 35280, Note_on_c, 1, 38, 100
3, 35309, Note_on_c, 1, 38, 0
3, 35310, Note_on_c, 1, 40, 100
3, 35339, Note_on_c, 1, 40, 0
3, 35340, Note_on_c, 1, 38, 109
3, 35370, Note_on_c, 1, 38, 0
3, 35370, Note_on_c, 1, 40, 105
3, 35399, Note_on_c, 1, 40, 0
3, 35400, Note_on_c, 1, 41, 109
3, 35429, Note_on_c, 1, 41, 0
3, 35430, Note_on_c, 1, 40, 105
3, 35460, Note_on_c, 1, 40, 0
3, 35460, Note_on_c, 1, 41, 100
3, 35489, Note_on_c, 1, 41, 0
3, 35490, Note_on_c, 1, 38, 105
3, 35520, Note_on_c, 1, 38, 0
3, 35520, Note_on_c, 1, 40, 113
3, 35550, Note_on_c, 1, 40, 0
3, 35550, Note_on_c, 1, 41, 109
3, 35578, Note_on_c, 1, 41, 0
3, 35580, Note_on_c, 1, 40, 113
3, 35609, Note_on_c, 1, 40, 0
3, 35610, Note_on_c, 1, 41, 109
3, 35639, Note_on_c, 1, 41, 0
3, 35640, Note_on_c, 1, 43, 105
3, 35668, Note_on_c, 1, 43, 0
3, 35670, Note_on_c, 1, 41, 96
3, 35700, Note_on_c, 1, 41, 0
3, 35700, Note_on_c, 1, 43, 100
3, 35730, Note_on_c, 1, 40, 96
3, 35731, Note_on_c, 1, 43, 0
3, 35760, Note_on_c, 1, 40, 0
3, 35760, Note_on_c, 1, 41, 113
3, 35843, Note_on_c, 1, 48, 0
3, 35879, Note_on_c, 1, 41, 0
3, 36000, Note_on_c, 1, 47, 100
3, 36000, Note_on_c, 1, 43, 100
3, 36030, Note_on_c, 1, 47, 0
3, 36030, Note_on_c, 1, 48, 100
3, 36060, Note_on_c, 1, 47, 92
3, 36062, Note_on_c, 1, 48, 0
3, 36090, Note_on_c, 1, 47, 0
3, 36090, Note_on_c, 1, 48, 100
3, 36118, Note_on_c, 1, 48, 0
3, 36120, Note_on_c, 1, 50, 100
3, 36149, Note_on_c, 1, 50, 0
3, 36150, Note_on_c, 1, 48, 96
3, 36180, Note_on_c, 1, 48, 0
3, 36180, Note_on_c, 1, 50, 96
3, 36210, Note_on_c, 1, 47, 105
3, 36211, Note_on_c, 1, 50, 0
3, 36239, Note_on_c, 1, 47, 0
3, 36240, Note_on_c, 1, 48, 109
3, 36270, Note_on_c, 1, 48, 0
3, 36270, Note_on_c, 1, 50, 105
3, 36299, Note_on_c, 1, 50, 0
3, 36300, Note_on_c, 1, 48, 96
3, 36329, Note_on_c, 1, 48, 0
3, 36330, Note_on_c, 1, 50, 113
3, 36359, Note_on_c, 1, 50, 0
3, 36360, Note_on_c, 1, 51, 96
3, 36389, Note_on_c, 1, 51, 0
3, 36390, Note_on_c, 1, 50, 109
3, 36419, Note_on_c, 1, 50, 0
3, 36420, Note_on_c, 1, 51, 100
3, 36450, Note_on_c, 1, 48, 109
3, 36453, Note_on_c, 1, 51, 0
3, 36480, Note_on_c, 1, 48, 0
3, 36480, Note_on_c, 1, 50, 118
3, 36509, Note_on_c, 1, 50, 0
3, 36510, Note_on_c, 1, 52, 105
3, 36539, Note_on_c, 1, 52, 0
3, 36540, Note_on_c, 1, 50, 109
3, 36570, Note_on_c, 1, 52, 109
3, 36572, Note_on_c, 1, 50, 0
3, 36599, Note_on_c, 1, 52, 0
3, 36600, Note_on_c, 1, 53, 109
3, 36629, Note_on_c, 1, 53, 0
3, 36630, Note_on_c, 1, 52, 105
3, 36659, Note_on_c, 1, 52, 0
3, 36660, Note_on_c, 1, 53, 113
3, 36689, Note_on_c, 1, 53, 0
3, 36690, Note_on_c, 1, 50, 109
3, 36720, Note_on_c, 1, 50, 0
3, 36720, Note_on_c, 1, 51, 113
3, 36748, Note_on_c, 1, 51, 0
3, 36750, Note_on_c, 1, 53, 113
3, 36778, Note_on_c, 1, 53, 0
3, 36780, Note_on_c, 1, 51, 100
3, 36808, Note_on_c, 1, 51, 0
3, 36810, Note_on_c, 1, 53, 105
3, 36838, Note_on_c, 1, 53, 0
3, 36840, Note_on_c, 1, 55, 100
3, 36868, Note_on_c, 1, 55, 0
3, 36870, Note_on_c, 1, 53, 105
3, 36899, Note_on_c, 1, 53, 0
3, 36900, Note_on_c, 1, 55, 105
3, 36913, Note_on_c, 1, 43, 0
3, 36930, Note_on_c, 1, 55, 0
3, 36930, Note_on_c, 1, 51, 105
3, 36954, Note_on_c, 1, 51, 0
3, 36960, Note_on_c, 1, 51, 105
3, 36990, Note_on_c, 1, 51, 0
3, 36990, Note_on_c, 1, 53, 113
3, 37019, Note_on_c, 1, 53, 0
3, 37020, Note_on_c, 1, 51, 100
3, 37048, Note_on_c, 1, 51, 0
3, 37050, Note_on_c, 1, 53, 105
3, 37079, Note_on_c, 1, 53, 0
3, 37080, Note_on_c, 1, 55, 84
3, 37108, Note_on_c, 1, 55, 0
3, 37110, Note_on_c, 1, 53, 105
3, 37137, Note_on_c, 1, 53, 0
3, 37140, Note_on_c, 1, 55, 109
3, 37140, Note_on_c, 1, 39, 113
3, 37155, Note_on_c, 1, 39, 0
3, 37167, Note_on_c, 1, 55, 0
3, 37170, Note_on_c, 1, 51, 96
3, 37170, Note_on_c, 1, 39, 100
3, 37196, Note_on_c, 1, 39, 0
3, 37197, Note_on_c, 1, 51, 0
3, 37200, Note_on_c, 1, 56, 105
3, 37200, Note_on_c, 1, 44, 96
3, 37323, Note_on_c, 1, 44, 0
3, 37323, Note_on_c, 1, 56, 0
3, 37380, Note_on_c, 1, 51, 113
3, 37380, Note_on_c, 1, 39, 109
3, 37396, Note_on_c, 1, 39, 0
3, 37400, Note_on_c, 1, 51, 0
3, 37410, Note_on_c, 1, 39, 100
3, 37410, Note_on_c, 1, 51, 109
3, 37434, Note_on_c, 1, 51, 0
3, 37438, Note_on_c, 1, 39, 0
3, 37440, Note_on_c, 1, 56, 105
3, 37440, Note_on_c, 1, 44, 100
3, 37568, Note_on_c, 1, 56, 0
3, 37571, Note_on_c, 1, 44, 0
3, 37620, Note_on_c, 1, 51, 122
3, 37620, Note_on_c, 1, 39, 118
3, 37640, Note_on_c, 1, 39, 0
3, 37641, Note_on_c, 1, 51, 0
3, 37650, Note_on_c, 1, 51, 105
3, 37650, Note_on_c, 1, 39, 80
3, 37673, Note_on_c, 1, 51, 0
3, 37677, Note_on_c, 1, 39, 0
3, 37680, Note_on_c, 1, 56, 113
3, 37680, Note_on_c, 1, 44, 109
3, 37906, Note_on_c, 1, 44, 0
3, 37908, Note_on_c, 1, 56, 0
3, 37920, Note_on_c, 1, 43, 105
3, 37920, Note_on_c, 1, 55, 109
3, 37948, Note_on_c, 1, 55, 0
3, 37949, Note_on_c, 1, 43, 0
3, 37950, Note_on_c, 1, 42, 88
3, 37950, Note_on_c, 1, 54, 92
3, 37974, Note_on_c, 1, 54, 0
3, 37978, Note_on_c, 1, 42, 0
3, 37980, Note_on_c, 1, 55, 105
3, 37980, Note_on_c, 1, 43, 96
3, 38009, Note_on_c, 1, 43, 0
3, 38010, Note_on_c, 1, 42, 96
3, 38010, Note_on_c, 1, 54, 84
3, 38011, Note_on_c, 1, 55, 0
3, 38039, Note_on_c, 1, 54, 0
3, 38040, Note_on_c, 1, 55, 109
3, 38040, Note_on_c, 1, 43, 96
3, 38042, Note_on_c, 1, 42, 0
3, 38157, Note_on_c, 1, 43, 0
3, 38158, Note_on_c, 1, 55, 0
3, 38400, Note_on_c, 1, 43, 122
3, 38430, Note_on_c, 1, 45, 96
3, 38460, Note_on_c, 1, 45, 0
3, 38460, Note_on_c, 1, 47, 109
3, 38489, Note_on_c, 1, 47, 0
3, 38490, Note_on_c, 1, 48, 105
3, 38518, Note_on_c, 1, 48, 0
3, 38520, Note_on_c, 1, 50, 92
3, 38547, Note_on_c, 1, 50, 0
3, 38550, Note_on_c, 1, 52, 79
3, 38579, Note_on_c, 1, 52, 0
3, 38580, Note_on_c, 1, 53, 105
3, 38610, Note_on_c, 1, 54, 84
3, 38613, Note_on_c, 1, 53, 0
3, 38638, Note_on_c, 1, 54, 0
3, 38640, Note_on_c, 1, 55, 84
3, 38670, Note_on_c, 1, 54, 109
3, 38672, Note_on_c, 1, 55, 0
3, 38699, Note_on_c, 1, 54, 0
3, 38700, Note_on_c, 1, 55, 100
3, 38729, Note_on_c, 1, 55, 0
3, 38730, Note_on_c, 1, 57, 113
3, 38759, Note_on_c, 1, 57, 0
3, 38760, Note_on_c, 1, 55, 88
3, 38790, Note_on_c, 1, 55, 0
3, 38790, Note_on_c, 1, 57, 92
3, 38820, Note_on_c, 1, 53, 105
3, 38821, Note_on_c, 1, 57, 0
3, 38847, Note_on_c, 1, 53, 0
3, 38850, Note_on_c, 1, 55, 109
3, 38864, Note_on_c, 1, 43, 0
3, 38880, Note_on_c, 1, 55, 0
3, 38880, Note_on_c, 1, 52, 109
3, 38880, Note_on_c, 1, 48, 113
3, 38950, Note_on_c, 1, 52, 0
3, 38951, Note_on_c, 1, 48, 0
3, 39000, Note_on_c, 1, 52, 109
3, 39000, Note_on_c, 1, 48, 109
3, 39000, Note_on_c, 1, 45, 113
3, 39085, Note_on_c, 1, 48, 0
3, 39085, Note_on_c, 1, 52, 0
3, 39086, Note_on_c, 1, 45, 0
3, 39120, Note_on_c, 1, 50, 109
3, 39120, Note_on_c, 1, 48, 109
3, 39120, Note_on_c, 1, 41, 113
3, 39196, Note_on_c, 1, 48, 0
3, 39197, Note_on_c, 1, 41, 0
3, 39198, Note_on_c, 1, 50, 0
3, 39240, Note_on_c, 1, 47, 113
3, 39240, Note_on_c, 1, 50, 109
3, 39240, Note_on_c, 1, 43, 122
3, 39311, Note_on_c, 1, 50, 0
3, 39312, Note_on_c, 1, 43, 0
3, 39312, Note_on_c, 1, 47, 0
3, 39360, Note_on_c, 1, 48, 127
3, 39389, Note_on_c, 1, 48, 0
3, 39390, Note_on_c, 1, 52, 109
3, 39417, Note_on_c, 1, 52, 0
3, 39420, Note_on_c, 1, 55, 100
3, 39446, Note_on_c, 1, 55, 0
3, 39450, Note_on_c, 1, 60, 100
3, 39475, Note_on_c, 1, 60, 0
3, 39480, Note_on_c, 1, 45, 105
3, 39510, Note_on_c, 1, 48, 100
3, 39511, Note_on_c, 1, 45, 0
3, 39539, Note_on_c, 1, 48, 0
3, 39540, Note_on_c, 1, 52, 109
3, 39570, Note_on_c, 1, 52, 0
3, 39570, Note_on_c, 1, 57, 109
3, 39595, Note_on_c, 1, 57, 0
3, 39600, Note_on_c, 1, 41, 109
3, 39628, Note_on_c, 1, 41, 0
3, 39630, Note_on_c, 1, 45, 113
3, 39660, Note_on_c, 1, 45, 0
3, 39660, Note_on_c, 1, 50, 109
3, 39687, Note_on_c, 1, 50, 0
3, 39690, Note_on_c, 1, 53, 109
3, 39716, Note_on_c, 1, 53, 0
3, 39720, Note_on_c, 1, 43, 105
3, 39749, Note_on_c, 1, 43, 0
3, 39750, Note_on_c, 1, 47, 109
3, 39780, Note_on_c, 1, 50, 100
3, 39782, Note_on_c, 1, 47, 0
3, 39807, Note_on_c, 1, 50, 0
3, 39810, Note_on_c, 1, 55, 96
3, 39839, Note_on_c, 1, 55, 0
3, 39840, Note_on_c, 1, 51, 118
3, 39840, Note_on_c, 1, 36, 109
3, 39840, Note_on_c, 1, 48, 100
3, 39965, Note_on_c, 1, 36, 0
3, 39965, Note_on_c, 1, 51, 0
3, 39968, Note_on_c, 1, 48, 0
3, 40020, Note_on_c, 1, 51, 109
3, 40020, Note_on_c, 1, 48, 113
3, 40037, Note_on_c, 1, 48, 0
3, 40038, Note_on_c, 1, 51, 0
3, 40050, Note_on_c, 1, 48, 100
3, 40050, Note_on_c, 1, 51, 92
3, 40068, Note_on_c, 1, 48, 0
3, 40069, Note_on_c, 1, 51, 0
3, 40080, Note_on_c, 1, 55, 109
3, 40080, Note_on_c, 1, 46, 122
3, 40207, Note_on_c, 1, 46, 0
3, 40211, Note_on_c, 1, 55, 0
3, 40260, Note_on_c, 1, 46, 105
3, 40260, Note_on_c, 1, 55, 105
3, 40275, Note_on_c, 1, 46, 0
3, 40279, Note_on_c, 1, 55, 0
3, 40290, Note_on_c, 1, 46, 80
3, 40290, Note_on_c, 1, 55, 109
3, 40309, Note_on_c, 1, 55, 0
3, 40314, Note_on_c, 1, 46, 0
3, 40320, Note_on_c, 1, 54, 113
3, 40320, Note_on_c, 1, 45, 109
3, 40458, Note_on_c, 1, 45, 0
3, 40459, Note_on_c, 1, 54, 0
3, 40500, Note_on_c, 1, 42, 109
3, 40500, Note_on_c, 1, 54, 96
3, 40500, Note_on_c, 1, 57, 109
3, 40500, Note_on_c, 1, 60, 113
3, 40514, Note_on_c, 1, 54, 0
3, 40516, Note_on_c, 1, 42, 0
3, 40516, Note_on_c, 1, 57, 0
3, 40517, Note_on_c, 1, 60, 0
3, 40530, Note_on_c, 1, 42, 96
3, 40530, Note_on_c, 1, 54, 82
3, 40530, Note_on_c, 1, 60, 100
3, 40530, Note_on_c, 1, 57, 96
3, 40546, Note_on_c, 1, 42, 0
3, 40547, Note_on_c, 1, 54, 0
3, 40547, Note_on_c, 1, 57, 0
3, 40550, Note_on_c, 1, 60, 0
3, 40560, Note_on_c, 1, 58, 113
3, 40560, Note_on_c, 1, 43, 96
3, 40560, Note_on_c, 1, 55, 84
3, 40685, Note_on_c, 1, 55, 0
3, 40688, Note_on_c, 1, 58, 0
3, 40689, Note_on_c, 1, 43, 0
3, 40740, Note_on_c, 1, 57, 113
3, 40740, Note_on_c, 1, 38, 113
3, 40740, Note_on_c, 1, 50, 105
3, 40755, Note_on_c, 1, 38, 109
3, 40755, Note_on_c, 1, 57, 105
3, 40755, Note_on_c, 1, 50, 88
3, 40756, Note_on_c, 1, 50, 0
3, 40758, Note_on_c, 1, 57, 0
3, 40758, Note_on_c, 1, 38, 0
3, 40769, Note_on_c, 1, 38, 0
3, 40772, Note_on_c, 1, 50, 0
3, 40775, Note_on_c, 1, 57, 0
3, 40800, Note_on_c, 1, 39, 96
3, 40800, Note_on_c, 1, 55, 122
3, 40800, Note_on_c, 1, 51, 96
3, 40929, Note_on_c, 1, 55, 0
3, 40931, Note_on_c, 1, 51, 0
3, 40931, Note_on_c, 1, 39, 0
3, 40980, Note_on_c, 1, 46, 109
3, 41036, Note_on_c, 1, 46, 0
3, 41040, Note_on_c, 1, 48, 109
3, 41160, Note_on_c, 1, 48, 0
3, 41160, Note_on_c, 1, 46, 100
3, 41160, Note_on_c, 1, 55, 113
3, 41268, Note_on_c, 1, 46, 0
3, 41271, Note_on_c, 1, 55, 0
3, 41280, Note_on_c, 1, 45, 109
3, 41280, Note_on_c, 1, 57, 113
3, 41394, Note_on_c, 1, 45, 0
3, 41400, Note_on_c, 1, 38, 118
3, 41511, Note_on_c, 1, 57, 0
3, 41517, Note_on_c, 1, 38, 0
3, 41520, Note_on_c, 1, 43, 105
3, 41520, Note_on_c, 1, 55, 105
3, 41638, Note_on_c, 1, 43, 0
3, 41639, Note_on_c, 1, 55, 0
3, 41910, Note_on_c, 1, 58, 105
3, 41910, Note_on_c, 1, 55, 113
3, 41932, Note_on_c, 1, 55, 0
3, 41938, Note_on_c, 1, 58, 0
3, 41940, Note_on_c, 1, 60, 96
3, 41940, Note_on_c, 1, 57, 109
3, 41966, Note_on_c, 1, 57, 0
3, 41967, Note_on_c, 1, 60, 0
3, 41970, Note_on_c, 1, 58, 77
3, 41970, Note_on_c, 1, 62, 92
3, 41993, Note_on_c, 1, 62, 0
3, 41998, Note_on_c, 1, 58, 0
3, 42000, Note_on_c, 1, 64, 96
3, 42000, Note_on_c, 1, 60, 109
3, 42026, Note_on_c, 1, 64, 0
3, 42030, Note_on_c, 1, 58, 82
3, 42030, Note_on_c, 1, 62, 105
3, 42032, Note_on_c, 1, 60, 0
3, 42055, Note_on_c, 1, 62, 0
3, 42057, Note_on_c, 1, 58, 0
3, 42060, Note_on_c, 1, 64, 82
3, 42060, Note_on_c, 1, 60, 100
3, 42078, Note_on_c, 1, 60, 0
3, 42079, Note_on_c, 1, 64, 0
3, 42090, Note_on_c, 1, 62, 118
3, 42090, Note_on_c, 1, 66, 105
3, 42120, Note_on_c, 1, 62, 0
3, 42121, Note_on_c, 1, 66, 0
3, 42150, Note_on_c, 1, 51, 105
3, 42179, Note_on_c, 1, 51, 0
3, 42180, Note_on_c, 1, 50, 105
3, 42210, Note_on_c, 1, 50, 0
3, 42210, Note_on_c, 1, 51, 96
3, 42240, Note_on_c, 1, 51, 0
3, 42240, Note_on_c, 1, 48, 100
3, 42269, Note_on_c, 1, 48, 0
3, 42270, Note_on_c, 1, 46, 96
3, 42299, Note_on_c, 1, 46, 0
3, 42300, Note_on_c, 1, 48, 118
3, 42330, Note_on_c, 1, 45, 109
3, 42332, Note_on_c, 1, 48, 0
3, 42354, Note_on_c, 1, 45, 0
3, 42390, Note_on_c, 1, 50, 109
3, 42418, Note_on_c, 1, 50, 0
3, 42420, Note_on_c, 1, 48, 109
3, 42449, Note_on_c, 1, 48, 0
3, 42450, Note_on_c, 1, 50, 105
3, 42478, Note_on_c, 1, 50, 0
3, 42480, Note_on_c, 1, 47, 113
3, 42507, Note_on_c, 1, 47, 0
3, 42510, Note_on_c, 1, 45, 109
3, 42540, Note_on_c, 1, 45, 0
3, 42540, Note_on_c, 1, 47, 100
3, 42570, Note_on_c, 1, 43, 113
3, 42571, Note_on_c, 1, 47, 0
3, 42596, Note_on_c, 1, 43, 0
3, 42630, Note_on_c, 1, 56, 105
3, 42660, Note_on_c, 1, 56, 0
3, 42660, Note_on_c, 1, 55, 105
3, 42690, Note_on_c, 1, 55, 0
3, 42690, Note_on_c, 1, 56, 105
3, 42719, Note_on_c, 1, 56, 0
3, 42720, Note_on_c, 1, 53, 105
3, 42749, Note_on_c, 1, 53, 0
3, 42750, Note_on_c, 1, 51, 92
3, 42778, Note_on_c, 1, 51, 0
3, 42780, Note_on_c, 1, 53, 113
3, 42810, Note_on_c, 1, 50, 109
3, 42814, Note_on_c, 1, 53, 0
3, 42836, Note_on_c, 1, 50, 0
3, 42870, Note_on_c, 1, 55, 100
3, 42899, Note_on_c, 1, 55, 0
3, 42900, Note_on_c, 1, 53, 105
3, 42927, Note_on_c, 1, 53, 0
3, 42930, Note_on_c, 1, 55, 96
3, 42959, Note_on_c, 1, 55, 0
3, 42960, Note_on_c, 1, 52, 109
3, 42989, Note_on_c, 1, 52, 0
3, 42990, Note_on_c, 1, 50, 105
3, 43020, Note_on_c, 1, 50, 0
3, 43020, Note_on_c, 1, 52, 105
3, 43050, Note_on_c, 1, 48, 96
3, 43052, Note_on_c, 1, 52, 0
3, 43075, Note_on_c, 1, 48, 0
3, 43110, Note_on_c, 1, 50, 109
3, 43138, Note_on_c, 1, 50, 0
3, 43140, Note_on_c, 1, 48, 100
3, 43166, Note_on_c, 1, 48, 0
3, 43170, Note_on_c, 1, 50, 105
3, 43199, Note_on_c, 1, 50, 0
3, 43200, Note_on_c, 1, 46, 100
3, 43229, Note_on_c, 1, 46, 0
3, 43230, Note_on_c, 1, 45, 100
3, 43258, Note_on_c, 1, 45, 0
3, 43260, Note_on_c, 1, 46, 109
3, 43290, Note_on_c, 1, 43, 109
3, 43291, Note_on_c, 1, 46, 0
3, 43316, Note_on_c, 1, 43, 0
3, 43350, Note_on_c, 1, 48, 100
3, 43379, Note_on_c, 1, 48, 0
3, 43380, Note_on_c, 1, 46, 100
3, 43408, Note_on_c, 1, 46, 0
3, 43410, Note_on_c, 1, 48, 109
3, 43439, Note_on_c, 1, 48, 0
3, 43440, Note_on_c, 1, 45, 105
3, 43467, Note_on_c, 1, 45, 0
3, 43470, Note_on_c, 1, 43, 96
3, 43498, Note_on_c, 1, 43, 0
3, 43500, Note_on_c, 1, 45, 113
3, 43530, Note_on_c, 1, 41, 109
3, 43534, Note_on_c, 1, 45, 0
3, 43552, Note_on_c, 1, 41, 0
3, 43590, Note_on_c, 1, 55, 113
3, 43616, Note_on_c, 1, 55, 0
3, 43620, Note_on_c, 1, 53, 96
3, 43646, Note_on_c, 1, 53, 0
3, 43650, Note_on_c, 1, 55, 96
3, 43680, Note_on_c, 1, 51, 105
3, 43681, Note_on_c, 1, 55, 0
3, 43708, Note_on_c, 1, 51, 0
3, 43710, Note_on_c, 1, 50, 109
3, 43739, Note_on_c, 1, 50, 0
3, 43740, Note_on_c, 1, 51, 105
3, 43769, Note_on_c, 1, 51, 0
3, 43770, Note_on_c, 1, 48, 105
3, 43794, Note_on_c, 1, 48, 0
3, 43830, Note_on_c, 1, 53, 109
3, 43860, Note_on_c, 1, 53, 0
3, 43860, Note_on_c, 1, 51, 96
3, 43887, Note_on_c, 1, 51, 0
3, 43890, Note_on_c, 1, 53, 100
3, 43919, Note_on_c, 1, 53, 0
3, 43920, Note_on_c, 1, 50, 113
3, 43947, Note_on_c, 1, 50, 0
3, 43950, Note_on_c, 1, 48, 100
3, 43977, Note_on_c, 1, 48, 0
3, 43980, Note_on_c, 1, 50, 109
3, 44010, Note_on_c, 1, 50, 0
3, 44010, Note_on_c, 1, 46, 109
3, 44027, Note_on_c, 1, 46, 0
3, 44070, Note_on_c, 1, 51, 92
3, 44070, Note_on_c, 1, 55, 113
3, 44098, Note_on_c, 1, 51, 0
3, 44099, Note_on_c, 1, 55, 0
3, 44100, Note_on_c, 1, 50, 109
3, 44100, Note_on_c, 1, 53, 105
3, 44125, Note_on_c, 1, 50, 0
3, 44127, Note_on_c, 1, 53, 0
3, 44130, Note_on_c, 1, 51, 82
3, 44130, Note_on_c, 1, 55, 100
3, 44156, Note_on_c, 1, 51, 0
3, 44159, Note_on_c, 1, 55, 0
3, 44160, Note_on_c, 1, 48, 100
3, 44160, Note_on_c, 1, 51, 76
3, 44187, Note_on_c, 1, 48, 0
3, 44188, Note_on_c, 1, 51, 0
3, 44190, Note_on_c, 1, 50, 113
3, 44190, Note_on_c, 1, 46, 92
3, 44216, Note_on_c, 1, 50, 0
3, 44218, Note_on_c, 1, 46, 0
3, 44220, Note_on_c, 1, 51, 105
3, 44220, Note_on_c, 1, 48, 100
3, 44242, Note_on_c, 1, 48, 0
3, 44249, Note_on_c, 1, 51, 0
3, 44250, Note_on_c, 1, 48, 109
3, 44250, Note_on_c, 1, 45, 109
3, 44274, Note_on_c, 1, 45, 0
3, 44277, Note_on_c, 1, 48, 0
3, 44310, Note_on_c, 1, 54, 105
3, 44310, Note_on_c, 1, 50, 100
3, 44337, Note_on_c, 1, 50, 0
3, 44339, Note_on_c, 1, 54, 0
3, 44340, Note_on_c, 1, 48, 96
3, 44340, Note_on_c, 1, 52, 113
3, 44366, Note_on_c, 1, 48, 0
3, 44369, Note_on_c, 1, 52, 0
3, 44370, Note_on_c, 1, 50, 100
3, 44370, Note_on_c, 1, 54, 96
3, 44397, Note_on_c, 1, 50, 0
3, 44399, Note_on_c, 1, 54, 0
3, 44400, Note_on_c, 1, 46, 82
3, 44400, Note_on_c, 1, 50, 82
3, 44429, Note_on_c, 1, 46, 0
3, 44430, Note_on_c, 1, 50, 0
3, 44430, Note_on_c, 1, 45, 109
3, 44430, Note_on_c, 1, 48, 92
3, 44450, Note_on_c, 1, 48, 0
3, 44459, Note_on_c, 1, 45, 0
3, 44460, Note_on_c, 1, 46, 113
3, 44460, Note_on_c, 1, 50, 113
3, 44484, Note_on_c, 1, 46, 0
3, 44490, Note_on_c, 1, 50, 0
3, 44490, Note_on_c, 1, 43, 113
3, 44490, Note_on_c, 1, 46, 92
3, 44516, Note_on_c, 1, 46, 0
3, 44519, Note_on_c, 1, 43, 0
3, 44550, Note_on_c, 1, 52, 109
3, 44550, Note_on_c, 1, 48, 109
3, 44577, Note_on_c, 1, 48, 0
3, 44579, Note_on_c, 1, 52, 0
3, 44580, Note_on_c, 1, 50, 109
3, 44580, Note_on_c, 1, 46, 96
3, 44609, Note_on_c, 1, 46, 0
3, 44609, Note_on_c, 1, 50, 0
3, 44610, Note_on_c, 1, 52, 109
3, 44610, Note_on_c, 1, 48, 96
3, 44635, Note_on_c, 1, 52, 0
3, 44640, Note_on_c, 1, 45, 113
3, 44665, Note_on_c, 1, 45, 0
3, 44668, Note_on_c, 1, 48, 0
3, 44670, Note_on_c, 1, 46, 96
3, 44670, Note_on_c, 1, 43, 96
3, 44695, Note_on_c, 1, 46, 0
3, 44697, Note_on_c, 1, 43, 0
3, 44700, Note_on_c, 1, 48, 109
3, 44700, Note_on_c, 1, 45, 113
3, 44728, Note_on_c, 1, 45, 0
3, 44730, Note_on_c, 1, 45, 92
3, 44730, Note_on_c, 1, 41, 109
3, 44732, Note_on_c, 1, 48, 0
3, 44752, Note_on_c, 1, 41, 0
3, 44755, Note_on_c, 1, 45, 0
3, 44790, Note_on_c, 1, 46, 100
3, 44790, Note_on_c, 1, 50, 109
3, 44815, Note_on_c, 1, 46, 0
3, 44817, Note_on_c, 1, 50, 0
3, 44820, Note_on_c, 1, 48, 100
3, 44820, Note_on_c, 1, 45, 105
3, 44849, Note_on_c, 1, 45, 0
3, 44849, Note_on_c, 1, 48, 0
3, 44850, Note_on_c, 1, 50, 109
3, 44850, Note_on_c, 1, 46, 109
3, 44869, Note_on_c, 1, 50, 0
3, 44879, Note_on_c, 1, 46, 0
3, 44880, Note_on_c, 1, 58, 100
3, 44880, Note_on_c, 1, 55, 113
3, 44880, Note_on_c, 1, 50, 109
3, 44880, Note_on_c, 1, 43, 109
3, 44946, Note_on_c, 1, 55, 0
3, 44947, Note_on_c, 1, 58, 0
3, 44947, Note_on_c, 1, 50, 0
3, 44947, Note_on_c, 1, 43, 0
3, 45000, Note_on_c, 1, 53, 109
3, 45000, Note_on_c, 1, 59, 113
3, 45000, Note_on_c, 1, 50, 113
3, 45000, Note_on_c, 1, 44, 118
3, 45084, Note_on_c, 1, 44, 0
3, 45085, Note_on_c, 1, 50, 0
3, 45085, Note_on_c, 1, 53, 0
3, 45086, Note_on_c, 1, 59, 0
3, 45150, Note_on_c, 1, 45, 122
3, 45179, Note_on_c, 1, 45, 0
3, 45180, Note_on_c, 1, 49, 109
3, 45209, Note_on_c, 1, 49, 0
3, 45210, Note_on_c, 1, 52, 109
3, 45239, Note_on_c, 1, 52, 0
3, 45240, Note_on_c, 1, 57, 109
3, 45268, Note_on_c, 1, 57, 0
3, 45270, Note_on_c, 1, 53, 109
3, 45300, Note_on_c, 1, 55, 109
3, 45301, Note_on_c, 1, 53, 0
3, 45329, Note_on_c, 1, 55, 0
3, 45330, Note_on_c, 1, 52, 96
3, 45359, Note_on_c, 1, 52, 0
3, 45360, Note_on_c, 1, 53, 113
3, 45418, Note_on_c, 1, 53, 0
3, 45420, Note_on_c, 1, 52, 113
3, 45477, Note_on_c, 1, 52, 0
3, 45480, Note_on_c, 1, 50, 113
3, 45510, Note_on_c, 1, 58, 118
3, 45537, Note_on_c, 1, 58, 0
3, 45540, Note_on_c, 1, 57, 100
3, 45566, Note_on_c, 1, 50, 0
3, 45569, Note_on_c, 1, 57, 0
3, 45570, Note_on_c, 1, 62, 113
3, 45585, Note_on_c, 1, 54, 49
3, 45589, Note_on_c, 1, 54, 0
3, 45598, Note_on_c, 1, 62, 0
3, 45600, Note_on_c, 1, 55, 113
3, 45630, Note_on_c, 1, 43, 105
3, 45660, Note_on_c, 1, 43, 0
3, 45660, Note_on_c, 1, 46, 92
3, 45690, Note_on_c, 1, 50, 113
3, 45692, Note_on_c, 1, 46, 0
3, 45706, Note_on_c, 1, 55, 0
3, 45720, Note_on_c, 1, 50, 0
3, 45720, Note_on_c, 1, 55, 118
3, 45749, Note_on_c, 1, 55, 0
3, 45750, Note_on_c, 1, 52, 100
3, 45779, Note_on_c, 1, 52, 0
3, 45780, Note_on_c, 1, 53, 109
3, 45810, Note_on_c, 1, 53, 0
3, 45810, Note_on_c, 1, 50, 100
3, 45838, Note_on_c, 1, 50, 0
3, 45840, Note_on_c, 1, 52, 113
3, 45896, Note_on_c, 1, 52, 0
3, 45900, Note_on_c, 1, 50, 113
3, 45956, Note_on_c, 1, 50, 0
3, 45960, Note_on_c, 1, 48, 109
3, 45990, Note_on_c, 1, 57, 109
3, 46019, Note_on_c, 1, 57, 0
3, 46020, Note_on_c, 1, 55, 113
3, 46028, Note_on_c, 1, 48, 0
3, 46050, Note_on_c, 1, 55, 0
3, 46050, Note_on_c, 1, 60, 109
3, 46077, Note_on_c, 1, 60, 0
3, 46080, Note_on_c, 1, 57, 113
3, 46080, Note_on_c, 1, 41, 105
3, 46080, Note_on_c, 1, 53, 96
3, 46202, Note_on_c, 1, 53, 0
3, 46204, Note_on_c, 1, 57, 0
3, 46205, Note_on_c, 1, 41, 0
3, 46260, Note_on_c, 1, 41, 109
3, 46260, Note_on_c, 1, 57, 118
3, 46260, Note_on_c, 1, 53, 96
3, 46278, Note_on_c, 1, 53, 0
3, 46279, Note_on_c, 1, 41, 0
3, 46281, Note_on_c, 1, 57, 0
3, 46290, Note_on_c, 1, 57, 109
3, 46290, Note_on_c, 1, 41, 96
3, 46290, Note_on_c, 1, 53, 82
3, 46305, Note_on_c, 1, 53, 0
3, 46307, Note_on_c, 1, 41, 0
3, 46311, Note_on_c, 1, 57, 0
3, 46320, Note_on_c, 1, 52, 92
3, 46320, Note_on_c, 1, 55, 122
3, 46320, Note_on_c, 1, 40, 118
3, 46471, Note_on_c, 1, 40, 0
3, 46473, Note_on_c, 1, 55, 0
3, 46473, Note_on_c, 1, 52, 0
3, 46500, Note_on_c, 1, 40, 109
3, 46500, Note_on_c, 1, 55, 109
3, 46500, Note_on_c, 1, 52, 96
3, 46516, Note_on_c, 1, 52, 0
3, 46517, Note_on_c, 1, 55, 0
3, 46517, Note_on_c, 1, 40, 0
3, 46530, Note_on_c, 1, 40, 100
3, 46530, Note_on_c, 1, 55, 100
3, 46530, Note_on_c, 1, 52, 80
3, 46543, Note_on_c, 1, 52, 0
3, 46545, Note_on_c, 1, 40, 0
3, 46548, Note_on_c, 1, 55, 0
3, 46560, Note_on_c, 1, 57, 109
3, 46560, Note_on_c, 1, 53, 109
3, 46560, Note_on_c, 1, 50, 96
3, 46560, Note_on_c, 1, 38, 109
3, 46714, Note_on_c, 1, 38, 0
3, 46714, Note_on_c, 1, 50, 0
3, 46716, Note_on_c, 1, 53, 0
3, 46718, Note_on_c, 1, 57, 0
3, 46740, Note_on_c, 1, 53, 96
3, 46740, Note_on_c, 1, 57, 100
3, 46740, Note_on_c, 1, 38, 109
3, 46740, Note_on_c, 1, 50, 96
3, 46756, Note_on_c, 1, 50, 0
3, 46758, Note_on_c, 1, 38, 0
3, 46759, Note_on_c, 1, 53, 0
3, 46760, Note_on_c, 1, 57, 0
3, 46770, Note_on_c, 1, 38, 100
3, 46770, Note_on_c, 1, 50, 88
3, 46770, Note_on_c, 1, 57, 96
3, 46770, Note_on_c, 1, 53, 96
3, 46786, Note_on_c, 1, 53, 0
3, 46786, Note_on_c, 1, 50, 0
3, 46789, Note_on_c, 1, 57, 0
3, 46791, Note_on_c, 1, 38, 0
3, 46800, Note_on_c, 1, 52, 96
3, 46800, Note_on_c, 1, 48, 96
3, 46800, Note_on_c, 1, 55, 109
3, 46800, Note_on_c, 1, 36, 109
3, 46800, Note_on_c, 1, 60, 100
3, 46928, Note_on_c, 1, 36, 0
3, 46930, Note_on_c, 1, 55, 0
3, 46930, Note_on_c, 1, 60, 0
3, 46939, Note_on_c, 1, 48, 0
3, 46941, Note_on_c, 1, 52, 0
3, 46980, Note_on_c, 1, 52, 113
3, 46980, Note_on_c, 1, 46, 100
3, 47000, Note_on_c, 1, 46, 0
3, 47003, Note_on_c, 1, 52, 0
3, 47010, Note_on_c, 1, 52, 109
3, 47010, Note_on_c, 1, 46, 100
3, 47026, Note_on_c, 1, 46, 0
3, 47027, Note_on_c, 1, 52, 0
3, 47040, Note_on_c, 1, 53, 113
3, 47040, Note_on_c, 1, 45, 118
3, 47175, Note_on_c, 1, 53, 0
3, 47178, Note_on_c, 1, 45, 0
3, 47220, Note_on_c, 1, 45, 118
3, 47275, Note_on_c, 1, 45, 0
3, 47280, Note_on_c, 1, 46, 113
3, 47400, Note_on_c, 1, 46, 0
3, 47400, Note_on_c, 1, 45, 109
3, 47400, Note_on_c, 1, 53, 113
3, 47511, Note_on_c, 1, 45, 0
3, 47512, Note_on_c, 1, 53, 0
3, 47520, Note_on_c, 1, 43, 109
3, 47520, Note_on_c, 1, 55, 109
3, 47630, Note_on_c, 1, 43, 0
3, 47640, Note_on_c, 1, 36, 113
3, 47751, Note_on_c, 1, 55, 0
3, 47758, Note_on_c, 1, 36, 0
3, 47760, Note_on_c, 1, 41, 109
3, 47760, Note_on_c, 1, 53, 113
3, 47882, Note_on_c, 1, 41, 0
3, 47884, Note_on_c, 1, 53, 0
3, 48150, Note_on_c, 1, 57, 109
3, 48150, Note_on_c, 1, 53, 100
3, 48170, Note_on_c, 1, 53, 0
3, 48177, Note_on_c, 1, 57, 0
3, 48180, Note_on_c, 1, 58, 79
3, 48180, Note_on_c, 1, 55, 92
3, 48204, Note_on_c, 1, 55, 0
3, 48209, Note_on_c, 1, 58, 0
3, 48210, Note_on_c, 1, 57, 84
3, 48210, Note_on_c, 1, 60, 92
3, 48236, Note_on_c, 1, 60, 0
3, 48238, Note_on_c, 1, 57, 0
3, 48240, Note_on_c, 1, 62, 79
3, 48240, Note_on_c, 1, 58, 96
3, 48265, Note_on_c, 1, 58, 0
3, 48266, Note_on_c, 1, 62, 0
3, 48270, Note_on_c, 1, 57, 82
3, 48270, Note_on_c, 1, 60, 92
3, 48298, Note_on_c, 1, 60, 0
3, 48299, Note_on_c, 1, 57, 0
3, 48300, Note_on_c, 1, 62, 92
3, 48300, Note_on_c, 1, 58, 88
3, 48317, Note_on_c, 1, 62, 0
3, 48319, Note_on_c, 1, 58, 0
3, 48330, Note_on_c, 1, 64, 109
3, 48330, Note_on_c, 1, 60, 113
3, 48351, Note_on_c, 1, 60, 0
3, 48351, Note_on_c, 1, 64, 0
3, 48360, Note_on_c, 1, 62, 109
3, 48390, Note_on_c, 1, 50, 100
3, 48419, Note_on_c, 1, 50, 0
3, 48420, Note_on_c, 1, 48, 92
3, 48450, Note_on_c, 1, 50, 100
3, 48451, Note_on_c, 1, 48, 0
3, 48480, Note_on_c, 1, 46, 88
3, 48483, Note_on_c, 1, 50, 0
3, 48510, Note_on_c, 1, 43, 105
3, 48511, Note_on_c, 1, 46, 0
3, 48540, Note_on_c, 1, 45, 96
3, 48541, Note_on_c, 1, 43, 0
3, 48570, Note_on_c, 1, 46, 82
3, 48577, Note_on_c, 1, 45, 0
3, 48590, Note_on_c, 1, 62, 0
3, 48600, Note_on_c, 1, 60, 113
3, 48600, Note_on_c, 1, 48, 100
3, 48601, Note_on_c, 1, 46, 0
3, 48628, Note_on_c, 1, 48, 0
3, 48630, Note_on_c, 1, 46, 92
3, 48656, Note_on_c, 1, 46, 0
3, 48660, Note_on_c, 1, 60, 0
3, 48660, Note_on_c, 1, 58, 109
3, 48660, Note_on_c, 1, 48, 100
3, 48688, Note_on_c, 1, 48, 0
3, 48690, Note_on_c, 1, 36, 105
3, 48718, Note_on_c, 1, 58, 0
3, 48720, Note_on_c, 1, 57, 113
3, 48720, Note_on_c, 1, 41, 109
3, 48722, Note_on_c, 1, 36, 0
3, 48834, Note_on_c, 1, 41, 0
3, 48836, Note_on_c, 1, 57, 0
3, 48900, Note_on_c, 1, 41, 109
3, 48900, Note_on_c, 1, 45, 109
3, 48956, Note_on_c, 1, 45, 0
3, 48957, Note_on_c, 1, 41, 0
3, 48960, Note_on_c, 1, 46, 109
3, 48960, Note_on_c, 1, 43, 109
3, 49079, Note_on_c, 1, 43, 0
3, 49082, Note_on_c, 1, 46, 0
3, 49140, Note_on_c, 1, 46, 105
3, 49140, Note_on_c, 1, 43, 109
3, 49196, Note_on_c, 1, 43, 0
3, 49196, Note_on_c, 1, 46, 0
3, 49200, Note_on_c, 1, 48, 113
3, 49200, Note_on_c, 1, 45, 109
3, 49327, Note_on_c, 1, 45, 0
3, 49327, Note_on_c, 1, 48, 0
3, 49380, Note_on_c, 1, 45, 113
3, 49380, Note_on_c, 1, 48, 109
3, 49435, Note_on_c, 1, 48, 0
3, 49435, Note_on_c, 1, 45, 0
3, 49440, Note_on_c, 1, 50, 122
3, 49440, Note_on_c, 1, 46, 109
3, 49561, Note_on_c, 1, 46, 0
3, 49565, Note_on_c, 1, 50, 0
3, 49620, Note_on_c, 1, 55, 113
3, 49620, Note_on_c, 1, 47, 109
3, 49668, Note_on_c, 1, 47, 0
3, 49670, Note_on_c, 1, 55, 0
3, 49680, Note_on_c, 1, 48, 109
3, 49680, Note_on_c, 1, 55, 113
3, 49726, Note_on_c, 1, 48, 0
3, 49740, Note_on_c, 1, 48, 96
3, 49769, Note_on_c, 1, 48, 0
3, 49770, Note_on_c, 1, 47, 113
3, 49796, Note_on_c, 1, 47, 0
3, 49800, Note_on_c, 1, 45, 105
3, 49819, Note_on_c, 1, 55, 0
3, 49826, Note_on_c, 1, 45, 0
3, 49830, Note_on_c, 1, 43, 105
3, 49860, Note_on_c, 1, 41, 109
3, 49860, Note_on_c, 1, 55, 109
3, 49862, Note_on_c, 1, 43, 0
3, 49890, Note_on_c, 1, 40, 109
3, 49891, Note_on_c, 1, 41, 0
3, 49915, Note_on_c, 1, 55, 0
3, 49920, Note_on_c, 1, 40, 0
3, 49920, Note_on_c, 1, 53, 118
3, 49920, Note_on_c, 1, 38, 109
3, 49970, Note_on_c, 1, 38, 0
3, 49980, Note_on_c, 1, 50, 105
3, 50010, Note_on_c, 1, 48, 109
3, 50011, Note_on_c, 1, 50, 0
3, 50040, Note_on_c, 1, 48, 0
3, 50040, Note_on_c, 1, 47, 105
3, 50070, Note_on_c, 1, 47, 0
3, 50070, Note_on_c, 1, 45, 92
3, 50093, Note_on_c, 1, 53, 0
3, 50100, Note_on_c, 1, 45, 0
3, 50100, Note_on_c, 1, 59, 113
3, 50100, Note_on_c, 1, 43, 113
3, 50127, Note_on_c, 1, 59, 0
3, 50129, Note_on_c, 1, 43, 0
3, 50130, Note_on_c, 1, 41, 105
3, 50130, Note_on_c, 1, 57, 113
3, 50159, Note_on_c, 1, 57, 0
3, 50159, Note_on_c, 1, 41, 0
3, 50160, Note_on_c, 1, 55, 109
3, 50160, Note_on_c, 1, 40, 96
3, 50217, Note_on_c, 1, 40, 0
3, 50220, Note_on_c, 1, 52, 105
3, 50248, Note_on_c, 1, 52, 0
3, 50250, Note_on_c, 1, 50, 113
3, 50278, Note_on_c, 1, 55, 0
3, 50279, Note_on_c, 1, 50, 0
3, 50280, Note_on_c, 1, 48, 67
3, 50310, Note_on_c, 1, 46, 105
3, 50313, Note_on_c, 1, 48, 0
3, 50335, Note_on_c, 1, 46, 0
3, 50340, Note_on_c, 1, 45, 109
3, 50340, Note_on_c, 1, 58, 96
3, 50340, Note_on_c, 1, 60, 105
3, 50370, Note_on_c, 1, 43, 100
3, 50373, Note_on_c, 1, 45, 0
3, 50390, Note_on_c, 1, 60, 0
3, 50391, Note_on_c, 1, 58, 0
3, 50397, Note_on_c, 1, 43, 0
3, 50400, Note_on_c, 1, 60, 80
3, 50400, Note_on_c, 1, 41, 118
3, 50400, Note_on_c, 1, 57, 109
3, 50514, Note_on_c, 1, 57, 0
3, 50517, Note_on_c, 1, 41, 0
3, 50518, Note_on_c, 1, 60, 0
3, 50580, Note_on_c, 1, 53, 113
3, 50580, Note_on_c, 1, 45, 113
3, 50633, Note_on_c, 1, 45, 0
3, 50640, Note_on_c, 1, 43, 105
3, 50700, Note_on_c, 1, 53, 0
3, 50700, Note_on_c, 1, 52, 113
3, 50786, Note_on_c, 1, 52, 0
3, 50788, Note_on_c, 1, 43, 0
3, 50820, Note_on_c, 1, 55, 113
3, 50820, Note_on_c, 1, 46, 122
3, 50876, Note_on_c, 1, 46, 0
3, 50880, Note_on_c, 1, 45, 109
3, 50937, Note_on_c, 1, 55, 0
3, 50940, Note_on_c, 1, 53, 109
3, 51017, Note_on_c, 1, 45, 0
3, 51031, Note_on_c, 1, 53, 0
3, 51060, Note_on_c, 1, 48, 109
3, 51060, Note_on_c, 1, 57, 113
3, 51115, Note_on_c, 1, 48, 0
3, 51120, Note_on_c, 1, 46, 105
3, 51176, Note_on_c, 1, 57, 0
3, 51180, Note_on_c, 1, 55, 109
3, 51209, Note_on_c, 1, 55, 0
3, 51210, Note_on_c, 1, 57, 105
3, 51240, Note_on_c, 1, 58, 100
3, 51242, Note_on_c, 1, 57, 0
3, 51289, Note_on_c, 1, 46, 0
3, 51298, Note_on_c, 1, 58, 0
3, 51300, Note_on_c, 1, 47, 96
3, 51300, Note_on_c, 1, 55, 113
3, 51348, Note_on_c, 1, 55, 0
3, 51354, Note_on_c, 1, 47, 0
3, 51360, Note_on_c, 1, 55, 109
3, 51360, Note_on_c, 1, 48, 109
3, 51474, Note_on_c, 1, 48, 0
3, 51474, Note_on_c, 1, 55, 0
3, 51510, Note_on_c, 1, 36, 109
3, 51539, Note_on_c, 1, 36, 0
3, 51540, Note_on_c, 1, 38, 113
3, 51569, Note_on_c, 1, 38, 0
3, 51570, Note_on_c, 1, 40, 96
3, 51599, Note_on_c, 1, 40, 0
3, 51600, Note_on_c, 1, 41, 113
3, 51629, Note_on_c, 1, 41, 0
3, 51630, Note_on_c, 1, 40, 96
3, 51660, Note_on_c, 1, 41, 105
3, 51663, Note_on_c, 1, 40, 0
3, 51689, Note_on_c, 1, 41, 0
3, 51690, Note_on_c, 1, 43, 105
3, 51720, Note_on_c, 1, 45, 113
3, 51721, Note_on_c, 1, 43, 0
3, 51746, Note_on_c, 1, 45, 0
3, 51750, Note_on_c, 1, 43, 88
3, 51779, Note_on_c, 1, 43, 0
3, 51780, Note_on_c, 1, 45, 113
3, 51810, Note_on_c, 1, 45, 0
3, 51810, Note_on_c, 1, 47, 109
3, 51840, Note_on_c, 1, 47, 0
3, 51840, Note_on_c, 1, 48, 118
3, 51900, Note_on_c, 1, 64, 109
3, 51928, Note_on_c, 1, 64, 0
3, 51930, Note_on_c, 1, 62, 100
3, 51958, Note_on_c, 1, 62, 0
3, 51959, Note_on_c, 1, 48, 0
3, 51960, Note_on_c, 1, 60, 96
3, 51988, Note_on_c, 1, 60, 0
3, 51990, Note_on_c, 1, 58, 105
3, 51990, Note_on_c, 1, 36, 113
3, 52018, Note_on_c, 1, 58, 0
3, 52019, Note_on_c, 1, 36, 0
3, 52020, Note_on_c, 1, 57, 100
3, 52020, Note_on_c, 1, 38, 113
3, 52048, Note_on_c, 1, 57, 0
3, 52049, Note_on_c, 1, 38, 0
3, 52050, Note_on_c, 1, 40, 113
3, 52050, Note_on_c, 1, 55, 109
3, 52078, Note_on_c, 1, 55, 0
3, 52080, Note_on_c, 1, 40, 0
3, 52080, Note_on_c, 1, 55, 96
3, 52080, Note_on_c, 1, 41, 105
3, 52093, Note_on_c, 1, 55, 0
3, 52095, Note_on_c, 1, 53, 113
3, 52108, Note_on_c, 1, 53, 0
3, 52110, Note_on_c, 1, 55, 96
3, 52123, Note_on_c, 1, 55, 0
3, 52125, Note_on_c, 1, 53, 100
3, 52136, Note_on_c, 1, 41, 0
3, 52138, Note_on_c, 1, 53, 0
3, 52140, Note_on_c, 1, 55, 96
3, 52140, Note_on_c, 1, 48, 122
3, 52153, Note_on_c, 1, 55, 0
3, 52155, Note_on_c, 1, 53, 96
3, 52168, Note_on_c, 1, 53, 0
3, 52170, Note_on_c, 1, 55, 96
3, 52183, Note_on_c, 1, 55, 0
3, 52185, Note_on_c, 1, 53, 105
3, 52196, Note_on_c, 1, 48, 0
3, 52198, Note_on_c, 1, 53, 0
3, 52200, Note_on_c, 1, 45, 109
3, 52200, Note_on_c, 1, 55, 92
3, 52213, Note_on_c, 1, 55, 0
3, 52215, Note_on_c, 1, 53, 105
3, 52228, Note_on_c, 1, 53, 0
3, 52230, Note_on_c, 1, 55, 100
3, 52243, Note_on_c, 1, 55, 0
3, 52245, Note_on_c, 1, 53, 109
3, 52257, Note_on_c, 1, 45, 0
3, 52258, Note_on_c, 1, 53, 0
3, 52260, Note_on_c, 1, 52, 109
3, 52260, Note_on_c, 1, 41, 109
3, 52288, Note_on_c, 1, 52, 0
3, 52290, Note_on_c, 1, 53, 105
3, 52316, Note_on_c, 1, 41, 0
3, 52318, Note_on_c, 1, 53, 0
3, 52320, Note_on_c, 1, 52, 113
3, 52320, Note_on_c, 1, 36, 113
3, 52380, Note_on_c, 1, 38, 113
3, 52382, Note_on_c, 1, 36, 0
3, 52409, Note_on_c, 1, 38, 0
3, 52410, Note_on_c, 1, 40, 113
3, 52434, Note_on_c, 1, 52, 0
3, 52440, Note_on_c, 1, 41, 105
3, 52447, Note_on_c, 1, 40, 0
3, 52469, Note_on_c, 1, 41, 0
3, 52470, Note_on_c, 1, 43, 109
3, 52500, Note_on_c, 1, 43, 0
3, 52500, Note_on_c, 1, 45, 113
3, 52530, Note_on_c, 1, 45, 0
3, 52530, Note_on_c, 1, 47, 113
3, 52559, Note_on_c, 1, 47, 0
3, 52560, Note_on_c, 1, 48, 105
3, 52589, Note_on_c, 1, 48, 0
3, 52590, Note_on_c, 1, 50, 100
3, 52617, Note_on_c, 1, 50, 0
3, 52620, Note_on_c, 1, 48, 113
3, 52648, Note_on_c, 1, 48, 0
3, 52650, Note_on_c, 1, 47, 109
3, 52680, Note_on_c, 1, 47, 0
3, 52680, Note_on_c, 1, 48, 100
3, 52710, Note_on_c, 1, 45, 109
3, 52711, Note_on_c, 1, 48, 0
3, 52739, Note_on_c, 1, 45, 0
3, 52740, Note_on_c, 1, 46, 105
3, 52770, Note_on_c, 1, 46, 0
3, 52770, Note_on_c, 1, 43, 105
3, 52795, Note_on_c, 1, 43, 0
3, 52800, Note_on_c, 1, 41, 105
3, 52800, Note_on_c, 1, 53, 113
3, 52829, Note_on_c, 1, 53, 0
3, 52830, Note_on_c, 1, 55, 105
3, 52860, Note_on_c, 1, 53, 96
3, 52863, Note_on_c, 1, 55, 0
3, 52889, Note_on_c, 1, 53, 0
3, 52890, Note_on_c, 1, 55, 113
3, 52919, Note_on_c, 1, 55, 0
3, 52920, Note_on_c, 1, 57, 105
3, 52921, Note_on_c, 1, 41, 0
3, 52949, Note_on_c, 1, 57, 0
3, 52950, Note_on_c, 1, 55, 109
3, 52976, Note_on_c, 1, 55, 0
3, 52980, Note_on_c, 1, 57, 109
3, 52980, Note_on_c, 1, 36, 109
3, 52980, Note_on_c, 1, 48, 105
3, 52993, Note_on_c, 1, 36, 0
3, 52994, Note_on_c, 1, 48, 0
3, 53005, Note_on_c, 1, 57, 0
3, 53010, Note_on_c, 1, 55, 105
3, 53010, Note_on_c, 1, 36, 109
3, 53010, Note_on_c, 1, 48, 109
3, 53026, Note_on_c, 1, 36, 0
3, 53028, Note_on_c, 1, 48, 0
3, 53038, Note_on_c, 1, 55, 0
3, 53040, Note_on_c, 1, 53, 109
3, 53040, Note_on_c, 1, 41, 109
3, 53070, Note_on_c, 1, 53, 0
3, 53070, Note_on_c, 1, 55, 105
3, 53100, Note_on_c, 1, 53, 96
3, 53103, Note_on_c, 1, 55, 0
3, 53130, Note_on_c, 1, 53, 0
3, 53130, Note_on_c, 1, 55, 96
3, 53154, Note_on_c, 1, 41, 0
3, 53159, Note_on_c, 1, 55, 0
3, 53160, Note_on_c, 1, 57, 109
3, 53188, Note_on_c, 1, 57, 0
3, 53190, Note_on_c, 1, 55, 100
3, 53216, Note_on_c, 1, 55, 0
3, 53220, Note_on_c, 1, 57, 105
3, 53220, Note_on_c, 1, 36, 118
3, 53220, Note_on_c, 1, 48, 109
3, 53232, Note_on_c, 1, 36, 0
3, 53234, Note_on_c, 1, 48, 0
3, 53245, Note_on_c, 1, 57, 0
3, 53250, Note_on_c, 1, 55, 105
3, 53250, Note_on_c, 1, 36, 109
3, 53250, Note_on_c, 1, 48, 100
3, 53264, Note_on_c, 1, 48, 0
3, 53266, Note_on_c, 1, 36, 0
3, 53276, Note_on_c, 1, 55, 0
3, 53280, Note_on_c, 1, 53, 113
3, 53280, Note_on_c, 1, 41, 113
3, 53331, Note_on_c, 1, 41, 0
3, 53392, Note_on_c, 1, 53, 0
3, 53400, Note_on_c, 1, 45, 113
3, 53430, Note_on_c, 1, 65, 109
3, 53459, Note_on_c, 1, 65, 0
3, 53460, Note_on_c, 1, 64, 100
3, 53481, Note_on_c, 1, 45, 0
3, 53489, Note_on_c, 1, 64, 0
3, 53490, Note_on_c, 1, 62, 109
3, 53519, Note_on_c, 1, 62, 0
3, 53520, Note_on_c, 1, 60, 113
3, 53520, Note_on_c, 1, 48, 109
3, 53549, Note_on_c, 1, 60, 0
3, 53550, Note_on_c, 1, 62, 105
3, 53579, Note_on_c, 1, 62, 0
3, 53580, Note_on_c, 1, 60, 105
3, 53610, Note_on_c, 1, 58, 100
3, 53614, Note_on_c, 1, 60, 0
3, 53638, Note_on_c, 1, 48, 0
3, 53639, Note_on_c, 1, 58, 0
3, 53640, Note_on_c, 1, 57, 118
3, 53670, Note_on_c, 1, 58, 96
3, 53672, Note_on_c, 1, 57, 0
3, 53700, Note_on_c, 1, 57, 113
3, 53702, Note_on_c, 1, 58, 0
3, 53730, Note_on_c, 1, 57, 0
3, 53730, Note_on_c, 1, 55, 105
3, 53760, Note_on_c, 1, 55, 0
3, 53760, Note_on_c, 1, 53, 105
3, 53760, Note_on_c, 1, 41, 109
3, 53790, Note_on_c, 1, 53, 0
3, 53790, Note_on_c, 1, 55, 109
3, 53820, Note_on_c, 1, 53, 100
3, 53822, Note_on_c, 1, 55, 0
3, 53850, Note_on_c, 1, 53, 0
3, 53850, Note_on_c, 1, 55, 105
3, 53862, Note_on_c, 1, 41, 0
3, 53880, Note_on_c, 1, 55, 0
3, 53880, Note_on_c, 1, 57, 109
3, 53908, Note_on_c, 1, 57, 0
3, 53910, Note_on_c, 1, 55, 105
3, 53938, Note_on_c, 1, 55, 0
3, 53940, Note_on_c, 1, 57, 100
3, 53940, Note_on_c, 1, 36, 109
3, 53940, Note_on_c, 1, 48, 105
3, 53953, Note_on_c, 1, 36, 0
3, 53954, Note_on_c, 1, 48, 0
3, 53969, Note_on_c, 1, 57, 0
3, 53970, Note_on_c, 1, 55, 109
3, 53970, Note_on_c, 1, 36, 109
3, 53970, Note_on_c, 1, 48, 109
3, 53983, Note_on_c, 1, 48, 0
3, 53986, Note_on_c, 1, 36, 0
3, 53997, Note_on_c, 1, 55, 0
3, 54000, Note_on_c, 1, 53, 113
3, 54000, Note_on_c, 1, 41, 109
3, 54030, Note_on_c, 1, 55, 100
3, 54035, Note_on_c, 1, 53, 0
3, 54060, Note_on_c, 1, 53, 96
3, 54062, Note_on_c, 1, 55, 0
3, 54089, Note_on_c, 1, 53, 0
3, 54090, Note_on_c, 1, 55, 105
3, 54112, Note_on_c, 1, 41, 0
3, 54120, Note_on_c, 1, 55, 0
3, 54120, Note_on_c, 1, 57, 105
3, 54149, Note_on_c, 1, 57, 0
3, 54150, Note_on_c, 1, 55, 109
3, 54178, Note_on_c, 1, 55, 0
3, 54180, Note_on_c, 1, 57, 96
3, 54180, Note_on_c, 1, 36, 113
3, 54180, Note_on_c, 1, 48, 96
3, 54192, Note_on_c, 1, 36, 0
3, 54193, Note_on_c, 1, 48, 0
3, 54207, Note_on_c, 1, 57, 0
3, 54210, Note_on_c, 1, 55, 100
3, 54210, Note_on_c, 1, 36, 105
3, 54210, Note_on_c, 1, 48, 96
3, 54224, Note_on_c, 1, 48, 0
3, 54224, Note_on_c, 1, 36, 0
3, 54237, Note_on_c, 1, 55, 0
3, 54240, Note_on_c, 1, 53, 122
3, 54240, Note_on_c, 1, 41, 109
3, 54294, Note_on_c, 1, 41, 0
3, 54350, Note_on_c, 1, 53, 0
3, 54360, Note_on_c, 1, 45, 109
3, 54390, Note_on_c, 1, 65, 113
3, 54418, Note_on_c, 1, 65, 0
3, 54420, Note_on_c, 1, 64, 109
3, 54448, Note_on_c, 1, 45, 0
3, 54449, Note_on_c, 1, 64, 0
3, 54450, Note_on_c, 1, 62, 109
3, 54480, Note_on_c, 1, 62, 0
3, 54480, Note_on_c, 1, 60, 113
3, 54480, Note_on_c, 1, 48, 109
3, 54509, Note_on_c, 1, 60, 0
3, 54510, Note_on_c, 1, 62, 109
3, 54540, Note_on_c, 1, 60, 109
3, 54541, Note_on_c, 1, 62, 0
3, 54549, Note_on_c, 1, 48, 0
3, 54570, Note_on_c, 1, 58, 96
3, 54574, Note_on_c, 1, 60, 0
3, 54597, Note_on_c, 1, 58, 0
3, 54600, Note_on_c, 1, 57, 118
3, 54628, Note_on_c, 1, 57, 0
3, 54630, Note_on_c, 1, 58, 100
3, 54659, Note_on_c, 1, 58, 0
3, 54660, Note_on_c, 1, 57, 109
3, 54689, Note_on_c, 1, 57, 0
3, 54690, Note_on_c, 1, 55, 113
3, 54719, Note_on_c, 1, 55, 0
3, 54720, Note_on_c, 1, 53, 109
3, 54720, Note_on_c, 1, 41, 113
3, 54749, Note_on_c, 1, 41, 0
3, 54750, Note_on_c, 1, 43, 105
3, 54779, Note_on_c, 1, 43, 0
3, 54780, Note_on_c, 1, 41, 109
3, 54808, Note_on_c, 1, 41, 0
3, 54810, Note_on_c, 1, 43, 84
3, 54840, Note_on_c, 1, 43, 0
3, 54840, Note_on_c, 1, 45, 100
3, 54869, Note_on_c, 1, 45, 0
3, 54870, Note_on_c, 1, 43, 105
3, 54898, Note_on_c, 1, 43, 0
3, 54900, Note_on_c, 1, 45, 96
3, 54930, Note_on_c, 1, 41, 105
3, 54933, Note_on_c, 1, 45, 0
3, 54959, Note_on_c, 1, 41, 0
3, 54960, Note_on_c, 1, 43, 105
3, 54989, Note_on_c, 1, 43, 0
3, 54990, Note_on_c, 1, 45, 92
3, 55019, Note_on_c, 1, 45, 0
3, 55020, Note_on_c, 1, 43, 105
3, 55049, Note_on_c, 1, 43, 0
3, 55050, Note_on_c, 1, 45, 96
3, 55079, Note_on_c, 1, 45, 0
3, 55080, Note_on_c, 1, 46, 84
3, 55108, Note_on_c, 1, 46, 0
3, 55110, Note_on_c, 1, 45, 105
3, 55140, Note_on_c, 1, 46, 105
3, 55143, Note_on_c, 1, 45, 0
3, 55169, Note_on_c, 1, 46, 0
3, 55170, Note_on_c, 1, 43, 100
3, 55200, Note_on_c, 1, 43, 0
3, 55200, Note_on_c, 1, 45, 109
3, 55230, Note_on_c, 1, 46, 92
3, 55231, Note_on_c, 1, 45, 0
3, 55258, Note_on_c, 1, 46, 0
3, 55260, Note_on_c, 1, 45, 105
3, 55290, Note_on_c, 1, 46, 96
3, 55291, Note_on_c, 1, 45, 0
3, 55320, Note_on_c, 1, 48, 96
3, 55321, Note_on_c, 1, 46, 0
3, 55350, Note_on_c, 1, 48, 0
3, 55350, Note_on_c, 1, 46, 92
3, 55379, Note_on_c, 1, 46, 0
3, 55380, Note_on_c, 1, 48, 96
3, 55400, Note_on_c, 1, 53, 0
3, 55410, Note_on_c, 1, 48, 0
3, 55410, Note_on_c, 1, 45, 105
3, 55433, Note_on_c, 1, 45, 0
3, 55440, Note_on_c, 1, 46, 118
3, 55440, Note_on_c, 1, 53, 113
3, 55549, Note_on_c, 1, 53, 0
3, 55552, Note_on_c, 1, 46, 0
3, 55680, Note_on_c, 1, 52, 113
3, 55680, Note_on_c, 1, 36, 109
3, 55709, Note_on_c, 1, 52, 0
3, 55710, Note_on_c, 1, 53, 96
3, 55740, Note_on_c, 1, 52, 92
3, 55741, Note_on_c, 1, 53, 0
3, 55769, Note_on_c, 1, 52, 0
3, 55770, Note_on_c, 1, 53, 100
3, 55799, Note_on_c, 1, 53, 0
3, 55800, Note_on_c, 1, 55, 105
3, 55828, Note_on_c, 1, 55, 0
3, 55830, Note_on_c, 1, 53, 100
3, 55860, Note_on_c, 1, 55, 100
3, 55861, Note_on_c, 1, 53, 0
3, 55890, Note_on_c, 1, 52, 100
3, 55891, Note_on_c, 1, 55, 0
3, 55920, Note_on_c, 1, 52, 0
3, 55920, Note_on_c, 1, 53, 113
3, 55950, Note_on_c, 1, 53, 0
3, 55950, Note_on_c, 1, 55, 100
3, 55980, Note_on_c, 1, 53, 92
3, 55981, Note_on_c, 1, 55, 0
3, 56007, Note_on_c, 1, 53, 0
3, 56010, Note_on_c, 1, 55, 100
3, 56039, Note_on_c, 1, 55, 0
3, 56040, Note_on_c, 1, 56, 100
3, 56069, Note_on_c, 1, 56, 0
3, 56070, Note_on_c, 1, 55, 109
3, 56099, Note_on_c, 1, 55, 0
3, 56100, Note_on_c, 1, 56, 96
3, 56130, Note_on_c, 1, 53, 100
3, 56132, Note_on_c, 1, 56, 0
3, 56160, Note_on_c, 1, 53, 0
3, 56160, Note_on_c, 1, 55, 113
3, 56190, Note_on_c, 1, 55, 0
3, 56190, Note_on_c, 1, 57, 109
3, 56219, Note_on_c, 1, 57, 0
3, 56220, Note_on_c, 1, 55, 96
3, 56250, Note_on_c, 1, 55, 0
3, 56250, Note_on_c, 1, 57, 105
3, 56280, Note_on_c, 1, 57, 0
3, 56280, Note_on_c, 1, 58, 105
3, 56309, Note_on_c, 1, 58, 0
3, 56310, Note_on_c, 1, 57, 109
3, 56340, Note_on_c, 1, 58, 100
3, 56342, Note_on_c, 1, 57, 0
3, 56369, Note_on_c, 1, 58, 0
3, 56370, Note_on_c, 1, 55, 105
3, 56400, Note_on_c, 1, 56, 109
3, 56401, Note_on_c, 1, 55, 0
3, 56429, Note_on_c, 1, 56, 0
3, 56430, Note_on_c, 1, 58, 96
3, 56460, Note_on_c, 1, 56, 109
3, 56461, Note_on_c, 1, 58, 0
3, 56490, Note_on_c, 1, 58, 100
3, 56495, Note_on_c, 1, 56, 0
3, 56517, Note_on_c, 1, 58, 0
3, 56520, Note_on_c, 1, 60, 80
3, 56550, Note_on_c, 1, 58, 100
3, 56551, Note_on_c, 1, 60, 0
3, 56580, Note_on_c, 1, 60, 113
3, 56582, Note_on_c, 1, 58, 0
3, 56595, Note_on_c, 1, 36, 0
3, 56610, Note_on_c, 1, 56, 109
3, 56611, Note_on_c, 1, 60, 0
3, 56632, Note_on_c, 1, 56, 0
3, 56640, Note_on_c, 1, 56, 118
3, 56670, Note_on_c, 1, 58, 100
3, 56672, Note_on_c, 1, 56, 0
3, 56699, Note_on_c, 1, 58, 0
3, 56700, Note_on_c, 1, 56, 105
3, 56730, Note_on_c, 1, 58, 100
3, 56733, Note_on_c, 1, 56, 0
3, 56756, Note_on_c, 1, 58, 0
3, 56760, Note_on_c, 1, 60, 96
3, 56790, Note_on_c, 1, 58, 96
3, 56791, Note_on_c, 1, 60, 0
3, 56812, Note_on_c, 1, 58, 0
3, 56820, Note_on_c, 1, 60, 113
3, 56820, Note_on_c, 1, 44, 113
3, 56836, Note_on_c, 1, 44, 0
3, 56850, Note_on_c, 1, 56, 113
3, 56850, Note_on_c, 1, 44, 122
3, 56851, Note_on_c, 1, 60, 0
3, 56872, Note_on_c, 1, 44, 0
3, 56878, Note_on_c, 1, 56, 0
3, 56880, Note_on_c, 1, 53, 113
3, 56880, Note_on_c, 1, 37, 127
3, 56880, Note_on_c, 1, 49, 109
3, 56909, Note_on_c, 1, 53, 0
3, 56910, Note_on_c, 1, 56, 100
3, 56936, Note_on_c, 1, 56, 0
3, 56940, Note_on_c, 1, 55, 109
3, 56970, Note_on_c, 1, 55, 0
3, 56970, Note_on_c, 1, 53, 109
3, 56997, Note_on_c, 1, 53, 0
3, 57000, Note_on_c, 1, 49, 0
3, 57000, Note_on_c, 1, 51, 105
3, 57005, Note_on_c, 1, 37, 0
3, 57029, Note_on_c, 1, 51, 0
3, 57030, Note_on_c, 1, 54, 100
3, 57055, Note_on_c, 1, 54, 0
3, 57060, Note_on_c, 1, 53, 109
3, 57060, Note_on_c, 1, 44, 113
3, 57077, Note_on_c, 1, 44, 0
3, 57089, Note_on_c, 1, 53, 0
3, 57090, Note_on_c, 1, 51, 92
3, 57090, Note_on_c, 1, 44, 118
3, 57111, Note_on_c, 1, 51, 0
3, 57112, Note_on_c, 1, 44, 0
3, 57120, Note_on_c, 1, 53, 109
3, 57120, Note_on_c, 1, 37, 105
3, 57120, Note_on_c, 1, 49, 105
3, 57150, Note_on_c, 1, 56, 96
3, 57153, Note_on_c, 1, 53, 0
3, 57180, Note_on_c, 1, 54, 96
3, 57181, Note_on_c, 1, 56, 0
3, 57207, Note_on_c, 1, 54, 0
3, 57210, Note_on_c, 1, 56, 96
3, 57239, Note_on_c, 1, 56, 0
3, 57240, Note_on_c, 1, 53, 113
3, 57244, Note_on_c, 1, 49, 0
3, 57244, Note_on_c, 1, 37, 0
3, 57270, Note_on_c, 1, 53, 0
3, 57270, Note_on_c, 1, 56, 105
3, 57299, Note_on_c, 1, 56, 0
3, 57300, Note_on_c, 1, 55, 109
3, 57300, Note_on_c, 1, 46, 109
3, 57315, Note_on_c, 1, 46, 0
3, 57325, Note_on_c, 1, 55, 0
3, 57330, Note_on_c, 1, 53, 118
3, 57330, Note_on_c, 1, 46, 109
3, 57355, Note_on_c, 1, 53, 0
3, 57356, Note_on_c, 1, 46, 0
3, 57360, Note_on_c, 1, 55, 122
3, 57360, Note_on_c, 1, 39, 105
3, 57360, Note_on_c, 1, 51, 92
3, 57390, Note_on_c, 1, 58, 109
3, 57391, Note_on_c, 1, 55, 0
3, 57420, Note_on_c, 1, 58, 0
3, 57420, Note_on_c, 1, 56, 100
3, 57450, Note_on_c, 1, 55, 113
3, 57451, Note_on_c, 1, 56, 0
3, 57480, Note_on_c, 1, 55, 0
3, 57480, Note_on_c, 1, 53, 109
3, 57486, Note_on_c, 1, 39, 0
3, 57488, Note_on_c, 1, 51, 0
3, 57510, Note_on_c, 1, 53, 0
3, 57510, Note_on_c, 1, 56, 109
3, 57537, Note_on_c, 1, 56, 0
3, 57540, Note_on_c, 1, 55, 109
3, 57540, Note_on_c, 1, 46, 109
3, 57554, Note_on_c, 1, 46, 0
3, 57562, Note_on_c, 1, 55, 0
3, 57570, Note_on_c, 1, 53, 113
3, 57570, Note_on_c, 1, 46, 105
3, 57590, Note_on_c, 1, 46, 0
3, 57590, Note_on_c, 1, 53, 0
3, 57600, Note_on_c, 1, 55, 118
3, 57600, Note_on_c, 1, 39, 109
3, 57600, Note_on_c, 1, 51, 105
3, 57630, Note_on_c, 1, 58, 100
3, 57634, Note_on_c, 1, 55, 0
3, 57657, Note_on_c, 1, 58, 0
3, 57660, Note_on_c, 1, 56, 96
3, 57690, Note_on_c, 1, 58, 100
3, 57692, Note_on_c, 1, 56, 0
3, 57718, Note_on_c, 1, 58, 0
3, 57720, Note_on_c, 1, 55, 109
3, 57722, Note_on_c, 1, 39, 0
3, 57723, Note_on_c, 1, 51, 0
3, 57750, Note_on_c, 1, 58, 96
3, 57753, Note_on_c, 1, 55, 0
3, 57773, Note_on_c, 1, 58, 0
3, 57780, Note_on_c, 1, 56, 109
3, 57780, Note_on_c, 1, 36, 113
3, 57780, Note_on_c, 1, 48, 105
3, 57794, Note_on_c, 1, 48, 0
3, 57794, Note_on_c, 1, 36, 0
3, 57805, Note_on_c, 1, 56, 0
3, 57810, Note_on_c, 1, 55, 100
3, 57810, Note_on_c, 1, 36, 105
3, 57810, Note_on_c, 1, 48, 96
3, 57821, Note_on_c, 1, 36, 0
3, 57824, Note_on_c, 1, 48, 0
3, 57831, Note_on_c, 1, 55, 0
3, 57840, Note_on_c, 1, 56, 100
3, 57840, Note_on_c, 1, 41, 100
3, 57840, Note_on_c, 1, 53, 113
3, 57870, Note_on_c, 1, 60, 113
3, 57871, Note_on_c, 1, 56, 0
3, 57899, Note_on_c, 1, 60, 0
3, 57900, Note_on_c, 1, 58, 100
3, 57930, Note_on_c, 1, 58, 0
3, 57930, Note_on_c, 1, 56, 109
3, 57947, Note_on_c, 1, 53, 0
3, 57958, Note_on_c, 1, 56, 0
3, 57958, Note_on_c, 1, 41, 0
3, 57960, Note_on_c, 1, 55, 109
3, 57990, Note_on_c, 1, 58, 100
3, 57991, Note_on_c, 1, 55, 0
3, 58016, Note_on_c, 1, 58, 0
3, 58020, Note_on_c, 1, 56, 113
3, 58020, Note_on_c, 1, 36, 109
3, 58020, Note_on_c, 1, 48, 96
3, 58034, Note_on_c, 1, 48, 0
3, 58034, Note_on_c, 1, 36, 0
3, 58045, Note_on_c, 1, 56, 0
3, 58050, Note_on_c, 1, 55, 109
3, 58050, Note_on_c, 1, 36, 109
3, 58050, Note_on_c, 1, 48, 100
3, 58060, Note_on_c, 1, 36, 0
3, 58062, Note_on_c, 1, 48, 0
3, 58073, Note_on_c, 1, 55, 0
3, 58080, Note_on_c, 1, 56, 122
3, 58080, Note_on_c, 1, 41, 113
3, 58080, Note_on_c, 1, 53, 100
3, 58140, Note_on_c, 1, 53, 0
3, 58143, Note_on_c, 1, 56, 0
3, 58144, Note_on_c, 1, 41, 0
3, 58200, Note_on_c, 1, 39, 100
3, 58200, Note_on_c, 1, 51, 96
3, 58200, Note_on_c, 1, 53, 118
3, 58271, Note_on_c, 1, 53, 0
3, 58275, Note_on_c, 1, 51, 0
3, 58277, Note_on_c, 1, 39, 0
3, 58320, Note_on_c, 1, 53, 127
3, 58320, Note_on_c, 1, 38, 113
3, 58320, Note_on_c, 1, 50, 113
3, 58383, Note_on_c, 1, 53, 0
3, 58384, Note_on_c, 1, 50, 0
3, 58384, Note_on_c, 1, 38, 0
3, 58440, Note_on_c, 1, 53, 113
3, 58440, Note_on_c, 1, 37, 113
3, 58440, Note_on_c, 1, 56, 113
3, 58440, Note_on_c, 1, 49, 96
3, 58519, Note_on_c, 1, 56, 0
3, 58521, Note_on_c, 1, 49, 0
3, 58521, Note_on_c, 1, 53, 0
3, 58524, Note_on_c, 1, 37, 0
3, 58560, Note_on_c, 1, 36, 100
3, 58560, Note_on_c, 1, 36, 122
3, 58560, Note_on_c, 1, 48, 118
3, 58589, Note_on_c, 1, 48, 0
3, 58590, Note_on_c, 1, 53, 113
3, 58590, Note_on_c, 1, 41, 109
3, 58591, Note_on_c, 1, 36, 0
3, 58593, Note_on_c, 1, 36, 0
3, 58618, Note_on_c, 1, 41, 0
3, 58619, Note_on_c, 1, 53, 0
3, 58620, Note_on_c, 1, 57, 113
3, 58620, Note_on_c, 1, 45, 109
3, 58648, Note_on_c, 1, 45, 0
3, 58650, Note_on_c, 1, 57, 0
3, 58650, Note_on_c, 1, 41, 100
3, 58650, Note_on_c, 1, 53, 109
3, 58678, Note_on_c, 1, 53, 0
3, 58679, Note_on_c, 1, 41, 0
3, 58680, Note_on_c, 1, 48, 105
3, 58680, Note_on_c, 1, 36, 113
3, 58797, Note_on_c, 1, 48, 0
3, 58798, Note_on_c, 1, 36, 0
3, 59040, Note_on_c, 1, 36, 113
3, 59040, Note_on_c, 1, 48, 118
3, 59068, Note_on_c, 1, 48, 0
3, 59070, Note_on_c, 1, 41, 105
3, 59070, Note_on_c, 1, 53, 113
3, 59072, Note_on_c, 1, 36, 0
3, 59098, Note_on_c, 1, 53, 0
3, 59099, Note_on_c, 1, 41, 0
3, 59100, Note_on_c, 1, 57, 113
3, 59100, Note_on_c, 1, 45, 113
3, 59127, Note_on_c, 1, 45, 0
3, 59129, Note_on_c, 1, 57, 0
3, 59130, Note_on_c, 1, 53, 105
3, 59130, Note_on_c, 1, 41, 105
3, 59158, Note_on_c, 1, 53, 0
3, 59160, Note_on_c, 1, 41, 0
3, 59160, Note_on_c, 1, 48, 109
3, 59160, Note_on_c, 1, 36, 122
3, 59272, Note_on_c, 1, 36, 0
3, 59273, Note_on_c, 1, 48, 0
3, 59520, Note_on_c, 1, 59, 118
3, 59520, Note_on_c, 1, 47, 118
3, 59749, Note_on_c, 1, 59, 0
3, 59751, Note_on_c, 1, 47, 0
3, 59760, Note_on_c, 1, 60, 113
3, 59760, Note_on_c, 1, 48, 113
3, 59875, Note_on_c, 1, 48, 0
3, 59875, Note_on_c, 1, 60, 0
3, 59880, Note_on_c, 1, 61, 109
3, 59880, Note_on_c, 1, 49, 109
3, 59989, Note_on_c, 1, 49, 0
3, 59992, Note_on_c, 1, 61, 0
3, 60000, Note_on_c, 1, 36, 113
3, 60045, Note_on_c, 1, 48, 105
3, 60060, Note_on_c, 1, 50, 109
3, 60074, Note_on_c, 1, 48, 0
3, 60087, Note_on_c, 1, 50, 0
3, 60090, Note_on_c, 1, 52, 105
3, 60115, Note_on_c, 1, 52, 0
3, 60120, Note_on_c, 1, 53, 113
3, 60147, Note_on_c, 1, 53, 0
3, 60150, Note_on_c, 1, 55, 88
3, 60180, Note_on_c, 1, 57, 109
3, 60182, Note_on_c, 1, 55, 0
3, 60208, Note_on_c, 1, 57, 0
3, 60210, Note_on_c, 1, 58, 92
3, 60236, Note_on_c, 1, 58, 0
3, 60240, Note_on_c, 1, 60, 113
3, 60296, Note_on_c, 1, 60, 0
3, 60300, Note_on_c, 1, 62, 109
3, 60361, Note_on_c, 1, 62, 0
3, 60375, Note_on_c, 1, 64, 122
3, 60463, Note_on_c, 1, 64, 0
3, 60476, Note_on_c, 1, 36, 0
3, 60480, Note_on_c, 1, 60, 84
3, 60493, Note_on_c, 1, 60, 0
3, 60495, Note_on_c, 1, 58, 96
3, 60508, Note_on_c, 1, 58, 0
3, 60510, Note_on_c, 1, 60, 84
3, 60510, Note_on_c, 1, 36, 113
3, 60523, Note_on_c, 1, 60, 0
3, 60525, Note_on_c, 1, 58, 92
3, 60538, Note_on_c, 1, 58, 0
3, 60538, Note_on_c, 1, 36, 0
3, 60540, Note_on_c, 1, 60, 92
3, 60540, Note_on_c, 1, 38, 105
3, 60553, Note_on_c, 1, 60, 0
3, 60555, Note_on_c, 1, 58, 105
3, 60568, Note_on_c, 1, 58, 0
3, 60568, Note_on_c, 1, 38, 0
3, 60570, Note_on_c, 1, 60, 88
3, 60570, Note_on_c, 1, 40, 109
3, 60583, Note_on_c, 1, 60, 0
3, 60585, Note_on_c, 1, 58, 109
3, 60598, Note_on_c, 1, 58, 0
3, 60598, Note_on_c, 1, 40, 0
3, 60600, Note_on_c, 1, 60, 88
3, 60600, Note_on_c, 1, 41, 109
3, 60613, Note_on_c, 1, 60, 0
3, 60615, Note_on_c, 1, 58, 109
3, 60628, Note_on_c, 1, 58, 0
3, 60628, Note_on_c, 1, 41, 0
3, 60630, Note_on_c, 1, 60, 92
3, 60630, Note_on_c, 1, 43, 109
3, 60643, Note_on_c, 1, 60, 0
3, 60645, Note_on_c, 1, 58, 109
3, 60658, Note_on_c, 1, 58, 0
3, 60658, Note_on_c, 1, 43, 0
3, 60660, Note_on_c, 1, 60, 88
3, 60660, Note_on_c, 1, 45, 113
3, 60673, Note_on_c, 1, 60, 0
3, 60675, Note_on_c, 1, 58, 109
3, 60688, Note_on_c, 1, 58, 0
3, 60688, Note_on_c, 1, 45, 0
3, 60690, Note_on_c, 1, 60, 96
3, 60690, Note_on_c, 1, 46, 118
3, 60703, Note_on_c, 1, 60, 0
3, 60705, Note_on_c, 1, 58, 109
3, 60718, Note_on_c, 1, 58, 0
3, 60718, Note_on_c, 1, 46, 0
3, 60720, Note_on_c, 1, 60, 100
3, 60720, Note_on_c, 1, 48, 96
3, 60733, Note_on_c, 1, 60, 0
3, 60735, Note_on_c, 1, 58, 105
3, 60748, Note_on_c, 1, 58, 0
3, 60748, Note_on_c, 1, 48, 0
3, 60750, Note_on_c, 1, 60, 92
3, 60750, Note_on_c, 1, 50, 109
3, 60763, Note_on_c, 1, 60, 0
3, 60765, Note_on_c, 1, 58, 96
3, 60778, Note_on_c, 1, 58, 0
3, 60778, Note_on_c, 1, 50, 0
3, 60780, Note_on_c, 1, 60, 92
3, 60780, Note_on_c, 1, 48, 109
3, 60793, Note_on_c, 1, 60, 0
3, 60795, Note_on_c, 1, 58, 96
3, 60808, Note_on_c, 1, 58, 0
3, 60808, Note_on_c, 1, 48, 0
3, 60810, Note_on_c, 1, 60, 84
3, 60810, Note_on_c, 1, 47, 109
3, 60823, Note_on_c, 1, 60, 0
3, 60825, Note_on_c, 1, 58, 96
3, 60838, Note_on_c, 1, 58, 0
3, 60838, Note_on_c, 1, 47, 0
3, 60840, Note_on_c, 1, 60, 92
3, 60840, Note_on_c, 1, 48, 113
3, 60853, Note_on_c, 1, 60, 0
3, 60855, Note_on_c, 1, 58, 84
3, 60868, Note_on_c, 1, 58, 0
3, 60868, Note_on_c, 1, 48, 0
3, 60870, Note_on_c, 1, 60, 92
3, 60870, Note_on_c, 1, 43, 100
3, 60883, Note_on_c, 1, 60, 0
3, 60885, Note_on_c, 1, 58, 100
3, 60898, Note_on_c, 1, 58, 0
3, 60898, Note_on_c, 1, 43, 0
3, 60900, Note_on_c, 1, 60, 96
3, 60900, Note_on_c, 1, 40, 109
3, 60913, Note_on_c, 1, 60, 0
3, 60915, Note_on_c, 1, 58, 96
3, 60928, Note_on_c, 1, 58, 0
3, 60928, Note_on_c, 1, 40, 0
3, 60930, Note_on_c, 1, 57, 105
3, 60930, Note_on_c, 1, 36, 122
3, 60943, Note_on_c, 1, 57, 0
3, 60945, Note_on_c, 1, 58, 100
3, 60958, Note_on_c, 1, 58, 0
3, 60958, Note_on_c, 1, 36, 0
3, 60960, Note_on_c, 1, 57, 113
3, 60960, Note_on_c, 1, 41, 113
3, 61024, Note_on_c, 1, 57, 0
3, 61027, Note_on_c, 1, 41, 0
3, 61080, Note_on_c, 1, 57, 109
3, 61080, Note_on_c, 1, 53, 109
3, 61080, Note_on_c, 1, 50, 118
3, 61152, Note_on_c, 1, 53, 0
3, 61154, Note_on_c, 1, 50, 0
3, 61154, Note_on_c, 1, 57, 0
3, 61200, Note_on_c, 1, 53, 113
3, 61200, Note_on_c, 1, 55, 113
3, 61200, Note_on_c, 1, 46, 122
3, 61272, Note_on_c, 1, 55, 0
3, 61273, Note_on_c, 1, 53, 0
3, 61274, Note_on_c, 1, 46, 0
3, 61320, Note_on_c, 1, 55, 113
3, 61320, Note_on_c, 1, 52, 113
3, 61320, Note_on_c, 1, 48, 109
3, 61406, Note_on_c, 1, 55, 0
3, 61410, Note_on_c, 1, 48, 0
3, 61412, Note_on_c, 1, 52, 0
3, 61440, Note_on_c, 1, 53, 109
3, 61469, Note_on_c, 1, 53, 0
3, 61470, Note_on_c, 1, 57, 113
3, 61498, Note_on_c, 1, 57, 0
3, 61500, Note_on_c, 1, 53, 109
3, 61530, Note_on_c, 1, 49, 96
3, 61531, Note_on_c, 1, 53, 0
3, 61559, Note_on_c, 1, 49, 0
3, 61560, Note_on_c, 1, 50, 113
3, 61587, Note_on_c, 1, 50, 0
3, 61590, Note_on_c, 1, 53, 100
3, 61620, Note_on_c, 1, 50, 109
3, 61623, Note_on_c, 1, 53, 0
3, 61648, Note_on_c, 1, 50, 0
3, 61650, Note_on_c, 1, 45, 113
3, 61680, Note_on_c, 1, 46, 105
3, 61681, Note_on_c, 1, 45, 0
3, 61708, Note_on_c, 1, 46, 0
3, 61710, Note_on_c, 1, 50, 96
3, 61740, Note_on_c, 1, 50, 0
3, 61740, Note_on_c, 1, 46, 100
3, 61770, Note_on_c, 1, 46, 0
3, 61770, Note_on_c, 1, 43, 88
3, 61799, Note_on_c, 1, 43, 0
3, 61800, Note_on_c, 1, 48, 113
3, 61829, Note_on_c, 1, 48, 0
3, 61830, Note_on_c, 1, 43, 113
3, 61857, Note_on_c, 1, 43, 0
3, 61860, Note_on_c, 1, 40, 113
3, 61890, Note_on_c, 1, 40, 0
3, 61890, Note_on_c, 1, 36, 109
3, 61919, Note_on_c, 1, 36, 0
3, 61920, Note_on_c, 1, 53, 113
3, 61920, Note_on_c, 1, 41, 113
3, 61987, Note_on_c, 1, 41, 0
3, 61987, Note_on_c, 1, 53, 0
3, 62040, Note_on_c, 1, 53, 127
3, 62151, Note_on_c, 1, 53, 0
3, 62160, Note_on_c, 1, 51, 109
3, 62274, Note_on_c, 1, 51, 0
3, 62280, Note_on_c, 1, 50, 113
3, 62385, Note_on_c, 1, 50, 0
3, 62400, Note_on_c, 1, 51, 118
3, 62400, Note_on_c, 1, 36, 109
3, 62400, Note_on_c, 1, 48, 100
3, 62525, Note_on_c, 1, 36, 0
3, 62525, Note_on_c, 1, 51, 0
3, 62528, Note_on_c, 1, 48, 0
3, 62580, Note_on_c, 1, 51, 109
3, 62580, Note_on_c, 1, 48, 113
3, 62597, Note_on_c, 1, 48, 0
3, 62598, Note_on_c, 1, 51, 0
3, 62610, Note_on_c, 1, 48, 100
3, 62610, Note_on_c, 1, 51, 92
3, 62628, Note_on_c, 1, 48, 0
3, 62629, Note_on_c, 1, 51, 0
3, 62640, Note_on_c, 1, 55, 109
3, 62640, Note_on_c, 1, 46, 122
3, 62767, Note_on_c, 1, 46, 0
3, 62771, Note_on_c, 1, 55, 0
3, 62820, Note_on_c, 1, 46, 105
3, 62820, Note_on_c, 1, 55, 105
3, 62835, Note_on_c, 1, 46, 0
3, 62839, Note_on_c, 1, 55, 0
3, 62850, Note_on_c, 1, 46, 80
3, 62850, Note_on_c, 1, 55, 109
3, 62869, Note_on_c, 1, 55, 0
3, 62874, Note_on_c, 1, 46, 0
3, 62880, Note_on_c, 1, 54, 113
3, 62880, Note_on_c, 1, 45, 109
3, 63018, Note_on_c, 1, 45, 0
3, 63019, Note_on_c, 1, 54, 0
3, 63060, Note_on_c, 1, 42, 109
3, 63060, Note_on_c, 1, 54, 96
3, 63060, Note_on_c, 1, 57, 109
3, 63060, Note_on_c, 1, 60, 113
3, 63074, Note_on_c, 1, 54, 0
3, 63076, Note_on_c, 1, 42, 0
3, 63076, Note_on_c, 1, 57, 0
3, 63077, Note_on_c, 1, 60, 0
3, 63090, Note_on_c, 1, 42, 96
3, 63090, Note_on_c, 1, 54, 82
3, 63090, Note_on_c, 1, 60, 100
3, 63090, Note_on_c, 1, 57, 96
3, 63106, Note_on_c, 1, 42, 0
3, 63107, Note_on_c, 1, 54, 0
3, 63107, Note_on_c, 1, 57, 0
3, 63110, Note_on_c, 1, 60, 0
3, 63120, Note_on_c, 1, 58, 113
3, 63120, Note_on_c, 1, 43, 96
3, 63120, Note_on_c, 1, 55, 84
3, 63245, Note_on_c, 1, 55, 0
3, 63248, Note_on_c, 1, 58, 0
3, 63249, Note_on_c, 1, 43, 0
3, 63300, Note_on_c, 1, 57, 113
3, 63300, Note_on_c, 1, 38, 113
3, 63300, Note_on_c, 1, 50, 105
3, 63315, Note_on_c, 1, 38, 109
3, 63315, Note_on_c, 1, 57, 105
3, 63315, Note_on_c, 1, 50, 88
3, 63316, Note_on_c, 1, 50, 0
3, 63318, Note_on_c, 1, 57, 0
3, 63318, Note_on_c, 1, 38, 0
3, 63329, Note_on_c, 1, 38, 0
3, 63332, Note_on_c, 1, 50, 0
3, 63335, Note_on_c, 1, 57, 0
3, 63360, Note_on_c, 1, 39, 96
3, 63360, Note_on_c, 1, 55, 122
3, 63360, Note_on_c, 1, 51, 96
3, 63489, Note_on_c, 1, 55, 0
3, 63491, Note_on_c, 1, 51, 0
3, 63491, Note_on_c, 1, 39, 0
3, 63540, Note_on_c, 1, 46, 109
3, 63596, Note_on_c, 1, 46, 0
3, 63600, Note_on_c, 1, 48, 109
3, 63720, Note_on_c, 1, 48, 0
3, 63720, Note_on_c, 1, 46, 100
3, 63720, Note_on_c, 1, 55, 113
3, 63828, Note_on_c, 1, 46, 0
3, 63831, Note_on_c, 1, 55, 0
3, 63840, Note_on_c, 1, 45, 109
3, 63840, Note_on_c, 1, 57, 113
3, 63954, Note_on_c, 1, 45, 0
3, 63960, Note_on_c, 1, 38, 118
3, 64071, Note_on_c, 1, 57, 0
3, 64077, Note_on_c, 1, 38, 0
3, 64080, Note_on_c, 1, 43, 105
3, 64080, Note_on_c, 1, 55, 105
3, 64198, Note_on_c, 1, 43, 0
3, 64199, Note_on_c, 1, 55, 0
3, 64470, Note_on_c, 1, 58, 105
3, 64470, Note_on_c, 1, 55, 113
3, 64492, Note_on_c, 1, 55, 0
3, 64498, Note_on_c, 1, 58, 0
3, 64500, Note_on_c, 1, 60, 96
3, 64500, Note_on_c, 1, 57, 109
3, 64526, Note_on_c, 1, 57, 0
3, 64527, Note_on_c, 1, 60, 0
3, 64530, Note_on_c, 1, 58, 77
3, 64530, Note_on_c, 1, 62, 92
3, 64553, Note_on_c, 1, 62, 0
3, 64558, Note_on_c, 1, 58, 0
3, 64560, Note_on_c, 1, 64, 96
3, 64560, Note_on_c, 1, 60, 109
3, 64586, Note_on_c, 1, 64, 0
3, 64590, Note_on_c, 1, 58, 82
3, 64590, Note_on_c, 1, 62, 105
3, 64592, Note_on_c, 1, 60, 0
3, 64615, Note_on_c, 1, 62, 0
3, 64617, Note_on_c, 1, 58, 0
3, 64620, Note_on_c, 1, 64, 82
3, 64620, Note_on_c, 1, 60, 100
3, 64638, Note_on_c, 1, 60, 0
3, 64639, Note_on_c, 1, 64, 0
3, 64650, Note_on_c, 1, 62, 118
3, 64650, Note_on_c, 1, 66, 105
3, 64680, Note_on_c, 1, 62, 0
3, 64681, Note_on_c, 1, 66, 0
3, 64710, Note_on_c, 1, 51, 105
3, 64739, Note_on_c, 1, 51, 0
3, 64740, Note_on_c, 1, 50, 105
3, 64770, Note_on_c, 1, 50, 0
3, 64770, Note_on_c, 1, 51, 96
3, 64800, Note_on_c, 1, 51, 0
3, 64800, Note_on_c, 1, 48, 100
3, 64829, Note_on_c, 1, 48, 0
3, 64830, Note_on_c, 1, 46, 96
3, 64859, Note_on_c, 1, 46, 0
3, 64860, Note_on_c, 1, 48, 118
3, 64890, Note_on_c, 1, 45, 109
3, 64892, Note_on_c, 1, 48, 0
3, 64914, Note_on_c, 1, 45, 0
3, 64950, Note_on_c, 1, 50, 109
3, 64978, Note_on_c, 1, 50, 0
3, 64980, Note_on_c, 1, 48, 109
3, 65009, Note_on_c, 1, 48, 0
3, 65010, Note_on_c, 1, 50, 105
3, 65038, Note_on_c, 1, 50, 0
3, 65040, Note_on_c, 1, 47, 113
3, 65067, Note_on_c, 1, 47, 0
3, 65070, Note_on_c, 1, 45, 109
3, 65100, Note_on_c, 1, 45, 0
3, 65100, Note_on_c, 1, 47, 100
3, 65130, Note_on_c, 1, 43, 113
3, 65131, Note_on_c, 1, 47, 0
3, 65156, Note_on_c, 1, 43, 0
3, 65190, Note_on_c, 1, 56, 105
3, 65220, Note_on_c, 1, 56, 0
3, 65220, Note_on_c, 1, 55, 105
3, 65250, Note_on_c, 1, 55, 0
3, 65250, Note_on_c, 1, 56, 105
3, 65279, Note_on_c, 1, 56, 0
3, 65280, Note_on_c, 1, 53, 105
3, 65309, Note_on_c, 1, 53, 0
3, 65310, Note_on_c, 1, 51, 92
3, 65338, Note_on_c, 1, 51, 0
3, 65340, Note_on_c, 1, 53, 113
3, 65370, Note_on_c, 1, 50, 109
3, 65374, Note_on_c, 1, 53, 0
3, 65396, Note_on_c, 1, 50, 0
3, 65430, Note_on_c, 1, 55, 100
3, 65459, Note_on_c, 1, 55, 0
3, 65460, Note_on_c, 1, 53, 105
3, 65487, Note_on_c, 1, 53, 0
3, 65490, Note_on_c, 1, 55, 96
3, 65519, Note_on_c, 1, 55, 0
3, 65520, Note_on_c, 1, 52, 109
3, 65549, Note_on_c, 1, 52, 0
3, 65550, Note_on_c, 1, 50, 105
3, 65580, Note_on_c, 1, 50, 0
3, 65580, Note_on_c, 1, 52, 105
3, 65610, Note_on_c, 1, 48, 96
3, 65612, Note_on_c, 1, 52, 0
3, 65635, Note_on_c, 1, 48, 0
3, 65670, Note_on_c, 1, 50, 109
3, 65698, Note_on_c, 1, 50, 0
3, 65700, Note_on_c, 1, 48, 100
3, 65726, Note_on_c, 1, 48, 0
3, 65730, Note_on_c, 1, 50, 105
3, 65759, Note_on_c, 1, 50, 0
3, 65760, Note_on_c, 1, 46, 100
3, 65789, Note_on_c, 1, 46, 0
3, 65790, Note_on_c, 1, 45, 100
3, 65818, Note_on_c, 1, 45, 0
3, 65820, Note_on_c, 1, 46, 109
3, 65850, Note_on_c, 1, 43, 109
3, 65851, Note_on_c, 1, 46, 0
3, 65876, Note_on_c, 1, 43, 0
3, 65910, Note_on_c, 1, 48, 100
3, 65939, Note_on_c, 1, 48, 0
3, 65940, Note_on_c, 1, 46, 100
3, 65968, Note_on_c, 1, 46, 0
3, 65970, Note_on_c, 1, 48, 109
3, 65999, Note_on_c, 1, 48, 0
3, 66000, Note_on_c, 1, 45, 105
3, 66027, Note_on_c, 1, 45, 0
3, 66030, Note_on_c, 1, 43, 96
3, 66058, Note_on_c, 1, 43, 0
3, 66060, Note_on_c, 1, 45, 113
3, 66090, Note_on_c, 1, 41, 109
3, 66094, Note_on_c, 1, 45, 0
3, 66112, Note_on_c, 1, 41, 0
3, 66150, Note_on_c, 1, 55, 113
3, 66176, Note_on_c, 1, 55, 0
3, 66180, Note_on_c, 1, 53, 96
3, 66206, Note_on_c, 1, 53, 0
3, 66210, Note_on_c, 1, 55, 96
3, 66240, Note_on_c, 1, 51, 105
3, 66241, Note_on_c, 1, 55, 0
3, 66268, Note_on_c, 1, 51, 0
3, 66270, Note_on_c, 1, 50, 109
3, 66299, Note_on_c, 1, 50, 0
3, 66300, Note_on_c, 1, 51, 105
3, 66329, Note_on_c, 1, 51, 0
3, 66330, Note_on_c, 1, 48, 105
3, 66354, Note_on_c, 1, 48, 0
3, 66390, Note_on_c, 1, 53, 109
3, 66420, Note_on_c, 1, 53, 0
3, 66420, Note_on_c, 1, 51, 96
3, 66447, Note_on_c, 1, 51, 0
3, 66450, Note_on_c, 1, 53, 100
3, 66479, Note_on_c, 1, 53, 0
3, 66480, Note_on_c, 1, 50, 113
3, 66507, Note_on_c, 1, 50, 0
3, 66510, Note_on_c, 1, 48, 100
3, 66537, Note_on_c, 1, 48, 0
3, 66540, Note_on_c, 1, 50, 109
3, 66570, Note_on_c, 1, 50, 0
3, 66570, Note_on_c, 1, 46, 109
3, 66587, Note_on_c, 1, 46, 0
3, 66630, Note_on_c, 1, 51, 92
3, 66630, Note_on_c, 1, 55, 113
3, 66658, Note_on_c, 1, 51, 0
3, 66659, Note_on_c, 1, 55, 0
3, 66660, Note_on_c, 1, 50, 109
3, 66660, Note_on_c, 1, 53, 105
3, 66685, Note_on_c, 1, 50, 0
3, 66687, Note_on_c, 1, 53, 0
3, 66690, Note_on_c, 1, 51, 82
3, 66690, Note_on_c, 1, 55, 100
3, 66716, Note_on_c, 1, 51, 0
3, 66719, Note_on_c, 1, 55, 0
3, 66720, Note_on_c, 1, 48, 100
3, 66720, Note_on_c, 1, 51, 76
3, 66747, Note_on_c, 1, 48, 0
3, 66748, Note_on_c, 1, 51, 0
3, 66750, Note_on_c, 1, 50, 113
3, 66750, Note_on_c, 1, 46, 92
3, 66776, Note_on_c, 1, 50, 0
3, 66778, Note_on_c, 1, 46, 0
3, 66780, Note_on_c, 1, 51, 105
3, 66780, Note_on_c, 1, 48, 100
3, 66802, Note_on_c, 1, 48, 0
3, 66809, Note_on_c, 1, 51, 0
3, 66810, Note_on_c, 1, 48, 109
3, 66810, Note_on_c, 1, 45, 109
3, 66834, Note_on_c, 1, 45, 0
3, 66837, Note_on_c, 1, 48, 0
3, 66870, Note_on_c, 1, 54, 105
3, 66870, Note_on_c, 1, 50, 100
3, 66897, Note_on_c, 1, 50, 0
3, 66899, Note_on_c, 1, 54, 0
3, 66900, Note_on_c, 1, 48, 96
3, 66900, Note_on_c, 1, 52, 113
3, 66926, Note_on_c, 1, 48, 0
3, 66929, Note_on_c, 1, 52, 0
3, 66930, Note_on_c, 1, 50, 100
3, 66930, Note_on_c, 1, 54, 96
3, 66957, Note_on_c, 1, 50, 0
3, 66959, Note_on_c, 1, 54, 0
3, 66960, Note_on_c, 1, 46, 82
3, 66960, Note_on_c, 1, 50, 82
3, 66989, Note_on_c, 1, 46, 0
3, 66990, Note_on_c, 1, 50, 0
3, 66990, Note_on_c, 1, 45, 109
3, 66990, Note_on_c, 1, 48, 92
3, 67010, Note_on_c, 1, 48, 0
3, 67019, Note_on_c, 1, 45, 0
3, 67020, Note_on_c, 1, 46, 113
3, 67020, Note_on_c, 1, 50, 113
3, 67044, Note_on_c, 1, 46, 0
3, 67050, Note_on_c, 1, 50, 0
3, 67050, Note_on_c, 1, 43, 113
3, 67050, Note_on_c, 1, 46, 92
3, 67076, Note_on_c, 1, 46, 0
3, 67079, Note_on_c, 1, 43, 0
3, 67110, Note_on_c, 1, 52, 109
3, 67110, Note_on_c, 1, 48, 109
3, 67137, Note_on_c, 1, 48, 0
3, 67139, Note_on_c, 1, 52, 0
3, 67140, Note_on_c, 1, 50, 109
3, 67140, Note_on_c, 1, 46, 96
3, 67169, Note_on_c, 1, 46, 0
3, 67169, Note_on_c, 1, 50, 0
3, 67170, Note_on_c, 1, 52, 109
3, 67170, Note_on_c, 1, 48, 96
3, 67195, Note_on_c, 1, 52, 0
3, 67200, Note_on_c, 1, 45, 113
3, 67225, Note_on_c, 1, 45, 0
3, 67228, Note_on_c, 1, 48, 0
3, 67230, Note_on_c, 1, 46, 96
3, 67230, Note_on_c, 1, 43, 96
3, 67255, Note_on_c, 1, 46, 0
3, 67257, Note_on_c, 1, 43, 0
3, 67260, Note_on_c, 1, 48, 109
3, 67260, Note_on_c, 1, 45, 113
3, 67288, Note_on_c, 1, 45, 0
3, 67290, Note_on_c, 1, 45, 92
3, 67290, Note_on_c, 1, 41, 109
3, 67292, Note_on_c, 1, 48, 0
3, 67312, Note_on_c, 1, 41, 0
3, 67315, Note_on_c, 1, 45, 0
3, 67350, Note_on_c, 1, 46, 100
3, 67350, Note_on_c, 1, 50, 109
3, 67375, Note_on_c, 1, 46, 0
3, 67377, Note_on_c, 1, 50, 0
3, 67380, Note_on_c, 1, 48, 100
3, 67380, Note_on_c, 1, 45, 105
3, 67409, Note_on_c, 1, 45, 0
3, 67409, Note_on_c, 1, 48, 0
3, 67410, Note_on_c, 1, 50, 109
3, 67410, Note_on_c, 1, 46, 109
3, 67429, Note_on_c, 1, 50, 0
3, 67439, Note_on_c, 1, 46, 0
3, 67440, Note_on_c, 1, 58, 100
3, 67440, Note_on_c, 1, 55, 113
3, 67440, Note_on_c, 1, 50, 109
3, 67440, Note_on_c, 1, 43, 109
3, 67506, Note_on_c, 1, 55, 0
3, 67507, Note_on_c, 1, 58, 0
3, 67507, Note_on_c, 1, 50, 0
3, 67507, Note_on_c, 1, 43, 0
3, 67560, Note_on_c, 1, 53, 109
3, 67560, Note_on_c, 1, 59, 113
3, 67560, Note_on_c, 1, 50, 113
3, 67560, Note_on_c, 1, 44, 118
3, 67644, Note_on_c, 1, 44, 0
3, 67645, Note_on_c, 1, 50, 0
3, 67645, Note_on_c, 1, 53, 0
3, 67646, Note_on_c, 1, 59, 0
3, 67710, Note_on_c, 1, 45, 122
3, 67739, Note_on_c, 1, 45, 0
3, 67740, Note_on_c, 1, 49, 109
3, 67769, Note_on_c, 1, 49, 0
3, 67770, Note_on_c, 1, 52, 109
3, 67799, Note_on_c, 1, 52, 0
3, 67800, Note_on_c, 1, 57, 109
3, 67828, Note_on_c, 1, 57, 0
3, 67830, Note_on_c, 1, 53, 109
3, 67860, Note_on_c, 1, 55, 109
3, 67861, Note_on_c, 1, 53, 0
3, 67889, Note_on_c, 1, 55, 0
3, 67890, Note_on_c, 1, 52, 96
3, 67919, Note_on_c, 1, 52, 0
3, 67920, Note_on_c, 1, 53, 113
3, 67978, Note_on_c, 1, 53, 0
3, 67980, Note_on_c, 1, 52, 113
3, 68037, Note_on_c, 1, 52, 0
3, 68040, Note_on_c, 1, 50, 113
3, 68070, Note_on_c, 1, 58, 118
3, 68097, Note_on_c, 1, 58, 0
3, 68100, Note_on_c, 1, 57, 100
3, 68126, Note_on_c, 1, 50, 0
3, 68129, Note_on_c, 1, 57, 0
3, 68130, Note_on_c, 1, 62, 113
3, 68145, Note_on_c, 1, 54, 49
3, 68149, Note_on_c, 1, 54, 0
3, 68158, Note_on_c, 1, 62, 0
3, 68160, Note_on_c, 1, 55, 113
3, 68190, Note_on_c, 1, 43, 105
3, 68220, Note_on_c, 1, 43, 0
3, 68220, Note_on_c, 1, 46, 92
3, 68250, Note_on_c, 1, 50, 113
3, 68252, Note_on_c, 1, 46, 0
3, 68266, Note_on_c, 1, 55, 0
3, 68280, Note_on_c, 1, 50, 0
3, 68280, Note_on_c, 1, 55, 118
3, 68309, Note_on_c, 1, 55, 0
3, 68310, Note_on_c, 1, 52, 100
3, 68339, Note_on_c, 1, 52, 0
3, 68340, Note_on_c, 1, 53, 109
3, 68370, Note_on_c, 1, 53, 0
3, 68370, Note_on_c, 1, 50, 100
3, 68398, Note_on_c, 1, 50, 0
3, 68400, Note_on_c, 1, 52, 113
3, 68456, Note_on_c, 1, 52, 0
3, 68460, Note_on_c, 1, 50, 113
3, 68516, Note_on_c, 1, 50, 0
3, 68520, Note_on_c, 1, 48, 109
3, 68550, Note_on_c, 1, 57, 109
3, 68579, Note_on_c, 1, 57, 0
3, 68580, Note_on_c, 1, 55, 113
3, 68588, Note_on_c, 1, 48, 0
3, 68610, Note_on_c, 1, 55, 0
3, 68610, Note_on_c, 1, 60, 109
3, 68637, Note_on_c, 1, 60, 0
3, 68640, Note_on_c, 1, 57, 113
3, 68640, Note_on_c, 1, 41, 105
3, 68640, Note_on_c, 1, 53, 96
3, 68762, Note_on_c, 1, 53, 0
3, 68764, Note_on_c, 1, 57, 0
3, 68765, Note_on_c, 1, 41, 0
3, 68820, Note_on_c, 1, 41, 109
3, 68820, Note_on_c, 1, 57, 118
3, 68820, Note_on_c, 1, 53, 96
3, 68838, Note_on_c, 1, 53, 0
3, 68839, Note_on_c, 1, 41, 0
3, 68841, Note_on_c, 1, 57, 0
3, 68850, Note_on_c, 1, 57, 109
3, 68850, Note_on_c, 1, 41, 96
3, 68850, Note_on_c, 1, 53, 82
3, 68865, Note_on_c, 1, 53, 0
3, 68867, Note_on_c, 1, 41, 0
3, 68871, Note_on_c, 1, 57, 0
3, 68880, Note_on_c, 1, 52, 92
3, 68880, Note_on_c, 1, 55, 122
3, 68880, Note_on_c, 1, 40, 118
3, 69031, Note_on_c, 1, 40, 0
3, 69033, Note_on_c, 1, 55, 0
3, 69033, Note_on_c, 1, 52, 0
3, 69060, Note_on_c, 1, 40, 109
3, 69060, Note_on_c, 1, 55, 109
3, 69060, Note_on_c, 1, 52, 96
3, 69076, Note_on_c, 1, 52, 0
3, 69077, Note_on_c, 1, 55, 0
3, 69077, Note_on_c, 1, 40, 0
3, 69090, Note_on_c, 1, 40, 100
3, 69090, Note_on_c, 1, 55, 100
3, 69090, Note_on_c, 1, 52, 80
3, 69103, Note_on_c, 1, 52, 0
3, 69105, Note_on_c, 1, 40, 0
3, 69108, Note_on_c, 1, 55, 0
3, 69120, Note_on_c, 1, 57, 109
3, 69120, Note_on_c, 1, 53, 109
3, 69120, Note_on_c, 1, 50, 96
3, 69120, Note_on_c, 1, 38, 109
3, 69274, Note_on_c, 1, 38, 0
3, 69274, Note_on_c, 1, 50, 0
3, 69276, Note_on_c, 1, 53, 0
3, 69278, Note_on_c, 1, 57, 0
3, 69300, Note_on_c, 1, 53, 96
3, 69300, Note_on_c, 1, 57, 100
3, 69300, Note_on_c, 1, 38, 109
3, 69300, Note_on_c, 1, 50, 96
3, 69316, Note_on_c, 1, 50, 0
3, 69318, Note_on_c, 1, 38, 0
3, 69319, Note_on_c, 1, 53, 0
3, 69320, Note_on_c, 1, 57, 0
3, 69330, Note_on_c, 1, 38, 100
3, 69330, Note_on_c, 1, 50, 88
3, 69330, Note_on_c, 1, 57, 96
3, 69330, Note_on_c, 1, 53, 96
3, 69346, Note_on_c, 1, 53, 0
3, 69346, Note_on_c, 1, 50, 0
3, 69349, Note_on_c, 1, 57, 0
3, 69351, Note_on_c, 1, 38, 0
3, 69360, Note_on_c, 1, 52, 96
3, 69360, Note_on_c, 1, 48, 96
3, 69360, Note_on_c, 1, 55, 109
3, 69360, Note_on_c, 1, 36, 109
3, 69360, Note_on_c, 1, 60, 100
3, 69488, Note_on_c, 1, 36, 0
3, 69490, Note_on_c, 1, 55, 0
3, 69490, Note_on_c, 1, 60, 0
3, 69499, Note_on_c, 1, 48, 0
3, 69501, Note_on_c, 1, 52, 0
3, 69540, Note_on_c, 1, 52, 113
3, 69540, Note_on_c, 1, 46, 100
3, 69560, Note_on_c, 1, 46, 0
3, 69563, Note_on_c, 1, 52, 0
3, 69570, Note_on_c, 1, 52, 109
3, 69570, Note_on_c, 1, 46, 100
3, 69586, Note_on_c, 1, 46, 0
3, 69587, Note_on_c, 1, 52, 0
3, 69600, Note_on_c, 1, 53, 113
3, 69600, Note_on_c, 1, 45, 118
3, 69735, Note_on_c, 1, 53, 0
3, 69738, Note_on_c, 1, 45, 0
3, 69780, Note_on_c, 1, 45, 118
3, 69835, Note_on_c, 1, 45, 0
3, 69840, Note_on_c, 1, 46, 113
3, 69960, Note_on_c, 1, 46, 0
3, 69960, Note_on_c, 1, 45, 109
3, 69960, Note_on_c, 1, 53, 113
3, 70071, Note_on_c, 1, 45, 0
3, 70072, Note_on_c, 1, 53, 0
3, 70080, Note_on_c, 1, 43, 109
3, 70080, Note_on_c, 1, 55, 109
3, 70190, Note_on_c, 1, 43, 0
3, 70200, Note_on_c, 1, 36, 113
3, 70311, Note_on_c, 1, 55, 0
3, 70318, Note_on_c, 1, 36, 0
3, 70320, Note_on_c, 1, 41, 109
3, 70320, Note_on_c, 1, 53, 113
3, 70442, Note_on_c, 1, 41, 0
3, 70444, Note_on_c, 1, 53, 0
3, 70710, Note_on_c, 1, 57, 109
3, 70710, Note_on_c, 1, 53, 100
3, 70730, Note_on_c, 1, 53, 0
3, 70737, Note_on_c, 1, 57, 0
3, 70740, Note_on_c, 1, 58, 79
3, 70740, Note_on_c, 1, 55, 92
3, 70764, Note_on_c, 1, 55, 0
3, 70769, Note_on_c, 1, 58, 0
3, 70770, Note_on_c, 1, 57, 84
3, 70770, Note_on_c, 1, 60, 92
3, 70796, Note_on_c, 1, 60, 0
3, 70798, Note_on_c, 1, 57, 0
3, 70800, Note_on_c, 1, 62, 79
3, 70800, Note_on_c, 1, 58, 96
3, 70825, Note_on_c, 1, 58, 0
3, 70826, Note_on_c, 1, 62, 0
3, 70830, Note_on_c, 1, 57, 82
3, 70830, Note_on_c, 1, 60, 92
3, 70858, Note_on_c, 1, 60, 0
3, 70859, Note_on_c, 1, 57, 0
3, 70860, Note_on_c, 1, 62, 92
3, 70860, Note_on_c, 1, 58, 88
3, 70877, Note_on_c, 1, 62, 0
3, 70879, Note_on_c, 1, 58, 0
3, 70890, Note_on_c, 1, 64, 109
3, 70890, Note_on_c, 1, 60, 113
3, 70911, Note_on_c, 1, 60, 0
3, 70911, Note_on_c, 1, 64, 0
3, 70920, Note_on_c, 1, 62, 109
3, 70950, Note_on_c, 1, 50, 100
3, 70979, Note_on_c, 1, 50, 0
3, 70980, Note_on_c, 1, 48, 92
3, 71010, Note_on_c, 1, 50, 100
3, 71011, Note_on_c, 1, 48, 0
3, 71040, Note_on_c, 1, 46, 88
3, 71043, Note_on_c, 1, 50, 0
3, 71070, Note_on_c, 1, 43, 105
3, 71071, Note_on_c, 1, 46, 0
3, 71100, Note_on_c, 1, 45, 96
3, 71101, Note_on_c, 1, 43, 0
3, 71130, Note_on_c, 1, 46, 82
3, 71137, Note_on_c, 1, 45, 0
3, 71150, Note_on_c, 1, 62, 0
3, 71160, Note_on_c, 1, 60, 113
3, 71160, Note_on_c, 1, 48, 100
3, 71161, Note_on_c, 1, 46, 0
3, 71188, Note_on_c, 1, 48, 0
3, 71190, Note_on_c, 1, 46, 92
3, 71216, Note_on_c, 1, 46, 0
3, 71220, Note_on_c, 1, 60, 0
3, 71220, Note_on_c, 1, 58, 109
3, 71220, Note_on_c, 1, 48, 100
3, 71248, Note_on_c, 1, 48, 0
3, 71250, Note_on_c, 1, 36, 105
3, 71278, Note_on_c, 1, 58, 0
3, 71280, Note_on_c, 1, 57, 113
3, 71280, Note_on_c, 1, 41, 109
3, 71282, Note_on_c, 1, 36, 0
3, 71394, Note_on_c, 1, 41, 0
3, 71396, Note_on_c, 1, 57, 0
3, 71460, Note_on_c, 1, 41, 109
3, 71460, Note_on_c, 1, 45, 109
3, 71516, Note_on_c, 1, 45, 0
3, 71517, Note_on_c, 1, 41, 0
3, 71520, Note_on_c, 1, 46, 109
3, 71520, Note_on_c, 1, 43, 109
3, 71639, Note_on_c, 1, 43, 0
3, 71642, Note_on_c, 1, 46, 0
3, 71700, Note_on_c, 1, 46, 105
3, 71700, Note_on_c, 1, 43, 109
3, 71756, Note_on_c, 1, 43, 0
3, 71756, Note_on_c, 1, 46, 0
3, 71760, Note_on_c, 1, 48, 113
3, 71760, Note_on_c, 1, 45, 109
3, 71887, Note_on_c, 1, 45, 0
3, 71887, Note_on_c, 1, 48, 0
3, 71940, Note_on_c, 1, 45, 113
3, 71940, Note_on_c, 1, 48, 109
3, 71995, Note_on_c, 1, 48, 0
3, 71995, Note_on_c, 1, 45, 0
3, 72000, Note_on_c, 1, 50, 122
3, 72000, Note_on_c, 1, 46, 109
3, 72121, Note_on_c, 1, 46, 0
3, 72125, Note_on_c, 1, 50, 0
3, 72180, Note_on_c, 1, 55, 113
3, 72180, Note_on_c, 1, 47, 109
3, 72228, Note_on_c, 1, 47, 0
3, 72230, Note_on_c, 1, 55, 0
3, 72240, Note_on_c, 1, 48, 109
3, 72240, Note_on_c, 1, 55, 113
3, 72286, Note_on_c, 1, 48, 0
3, 72300, Note_on_c, 1, 48, 96
3, 72329, Note_on_c, 1, 48, 0
3, 72330, Note_on_c, 1, 47, 113
3, 72356, Note_on_c, 1, 47, 0
3, 72360, Note_on_c, 1, 45, 105
3, 72379, Note_on_c, 1, 55, 0
3, 72386, Note_on_c, 1, 45, 0
3, 72390, Note_on_c, 1, 43, 105
3, 72420, Note_on_c, 1, 41, 109
3, 72420, Note_on_c, 1, 55, 109
3, 72422, Note_on_c, 1, 43, 0
3, 72450, Note_on_c, 1, 40, 109
3, 72451, Note_on_c, 1, 41, 0
3, 72475, Note_on_c, 1, 55, 0
3, 72480, Note_on_c, 1, 40, 0
3, 72480, Note_on_c, 1, 53, 118
3, 72480, Note_on_c, 1, 38, 109
3, 72530, Note_on_c, 1, 38, 0
3, 72540, Note_on_c, 1, 50, 105
3, 72570, Note_on_c, 1, 48, 109
3, 72571, Note_on_c, 1, 50, 0
3, 72600, Note_on_c, 1, 48, 0
3, 72600, Note_on_c, 1, 47, 105
3, 72630, Note_on_c, 1, 47, 0
3, 72630, Note_on_c, 1, 45, 92
3, 72653, Note_on_c, 1, 53, 0
3, 72660, Note_on_c, 1, 45, 0
3, 72660, Note_on_c, 1, 59, 113
3, 72660, Note_on_c, 1, 43, 113
3, 72687, Note_on_c, 1, 59, 0
3, 72689, Note_on_c, 1, 43, 0
3, 72690, Note_on_c, 1, 41, 105
3, 72690, Note_on_c, 1, 57, 113
3, 72719, Note_on_c, 1, 57, 0
3, 72719, Note_on_c, 1, 41, 0
3, 72720, Note_on_c, 1, 55, 109
3, 72720, Note_on_c, 1, 40, 96
3, 72777, Note_on_c, 1, 40, 0
3, 72780, Note_on_c, 1, 52, 105
3, 72808, Note_on_c, 1, 52, 0
3, 72810, Note_on_c, 1, 50, 113
3, 72838, Note_on_c, 1, 55, 0
3, 72839, Note_on_c, 1, 50, 0
3, 72840, Note_on_c, 1, 48, 67
3, 72870, Note_on_c, 1, 46, 105
3, 72873, Note_on_c, 1, 48, 0
3, 72895, Note_on_c, 1, 46, 0
3, 72900, Note_on_c, 1, 45, 109
3, 72900, Note_on_c, 1, 58, 96
3, 72900, Note_on_c, 1, 60, 105
3, 72930, Note_on_c, 1, 43, 100
3, 72933, Note_on_c, 1, 45, 0
3, 72950, Note_on_c, 1, 60, 0
3, 72951, Note_on_c, 1, 58, 0
3, 72957, Note_on_c, 1, 43, 0
3, 72960, Note_on_c, 1, 60, 80
3, 72960, Note_on_c, 1, 41, 118
3, 72960, Note_on_c, 1, 57, 109
3, 73074, Note_on_c, 1, 57, 0
3, 73077, Note_on_c, 1, 41, 0
3, 73078, Note_on_c, 1, 60, 0
3, 73140, Note_on_c, 1, 53, 113
3, 73140, Note_on_c, 1, 45, 113
3, 73193, Note_on_c, 1, 45, 0
3, 73200, Note_on_c, 1, 43, 105
3, 73260, Note_on_c, 1, 53, 0
3, 73260, Note_on_c, 1, 52, 113
3, 73346, Note_on_c, 1, 52, 0
3, 73348, Note_on_c, 1, 43, 0
3, 73380, Note_on_c, 1, 55, 113
3, 73380, Note_on_c, 1, 46, 122
3, 73436, Note_on_c, 1, 46, 0
3, 73440, Note_on_c, 1, 45, 109
3, 73497, Note_on_c, 1, 55, 0
3, 73500, Note_on_c, 1, 53, 109
3, 73577, Note_on_c, 1, 45, 0
3, 73591, Note_on_c, 1, 53, 0
3, 73620, Note_on_c, 1, 48, 109
3, 73620, Note_on_c, 1, 57, 113
3, 73675, Note_on_c, 1, 48, 0
3, 73680, Note_on_c, 1, 46, 105
3, 73736, Note_on_c, 1, 57, 0
3, 73740, Note_on_c, 1, 55, 109
3, 73769, Note_on_c, 1, 55, 0
3, 73770, Note_on_c, 1, 57, 105
3, 73800, Note_on_c, 1, 58, 100
3, 73802, Note_on_c, 1, 57, 0
3, 73849, Note_on_c, 1, 46, 0
3, 73858, Note_on_c, 1, 58, 0
3, 73860, Note_on_c, 1, 47, 96
3, 73860, Note_on_c, 1, 55, 113
3, 73908, Note_on_c, 1, 55, 0
3, 73914, Note_on_c, 1, 47, 0
3, 73920, Note_on_c, 1, 55, 109
3, 73920, Note_on_c, 1, 48, 109
3, 74034, Note_on_c, 1, 48, 0
3, 74034, Note_on_c, 1, 55, 0
3, 74070, Note_on_c, 1, 36, 109
3, 74099, Note_on_c, 1, 36, 0
3, 74100, Note_on_c, 1, 38, 113
3, 74129, Note_on_c, 1, 38, 0
3, 74130, Note_on_c, 1, 40, 96
3, 74159, Note_on_c, 1, 40, 0
3, 74160, Note_on_c, 1, 41, 113
3, 74189, Note_on_c, 1, 41, 0
3, 74190, Note_on_c, 1, 40, 96
3, 74220, Note_on_c, 1, 41, 105
3, 74223, Note_on_c, 1, 40, 0
3, 74249, Note_on_c, 1, 41, 0
3, 74250, Note_on_c, 1, 43, 105
3, 74280, Note_on_c, 1, 45, 113
3, 74281, Note_on_c, 1, 43, 0
3, 74306, Note_on_c, 1, 45, 0
3, 74310, Note_on_c, 1, 43, 88
3, 74339, Note_on_c, 1, 43, 0
3, 74340, Note_on_c, 1, 45, 113
3, 74370, Note_on_c, 1, 45, 0
3, 74370, Note_on_c, 1, 47, 109
3, 74400, Note_on_c, 1, 47, 0
3, 74400, Note_on_c, 1, 48, 118
3, 74460, Note_on_c, 1, 64, 109
3, 74488, Note_on_c, 1, 64, 0
3, 74490, Note_on_c, 1, 62, 100
3, 74518, Note_on_c, 1, 62, 0
3, 74519, Note_on_c, 1, 48, 0
3, 74520, Note_on_c, 1, 60, 96
3, 74548, Note_on_c, 1, 60, 0
3, 74550, Note_on_c, 1, 58, 105
3, 74550, Note_on_c, 1, 36, 113
3, 74578, Note_on_c, 1, 58, 0
3, 74579, Note_on_c, 1, 36, 0
3, 74580, Note_on_c, 1, 57, 100
3, 74580, Note_on_c, 1, 38, 113
3, 74608, Note_on_c, 1, 57, 0
3, 74609, Note_on_c, 1, 38, 0
3, 74610, Note_on_c, 1, 40, 113
3, 74610, Note_on_c, 1, 55, 109
3, 74638, Note_on_c, 1, 55, 0
3, 74640, Note_on_c, 1, 40, 0
3, 74640, Note_on_c, 1, 55, 96
3, 74640, Note_on_c, 1, 41, 105
3, 74653, Note_on_c, 1, 55, 0
3, 74655, Note_on_c, 1, 53, 113
3, 74668, Note_on_c, 1, 53, 0
3, 74670, Note_on_c, 1, 55, 96
3, 74683, Note_on_c, 1, 55, 0
3, 74685, Note_on_c, 1, 53, 100
3, 74696, Note_on_c, 1, 41, 0
3, 74698, Note_on_c, 1, 53, 0
3, 74700, Note_on_c, 1, 55, 96
3, 74700, Note_on_c, 1, 48, 122
3, 74713, Note_on_c, 1, 55, 0
3, 74715, Note_on_c, 1, 53, 96
3, 74728, Note_on_c, 1, 53, 0
3, 74730, Note_on_c, 1, 55, 96
3, 74743, Note_on_c, 1, 55, 0
3, 74745, Note_on_c, 1, 53, 105
3, 74756, Note_on_c, 1, 48, 0
3, 74758, Note_on_c, 1, 53, 0
3, 74760, Note_on_c, 1, 45, 109
3, 74760, Note_on_c, 1, 55, 92
3, 74773, Note_on_c, 1, 55, 0
3, 74775, Note_on_c, 1, 53, 105
3, 74788, Note_on_c, 1, 53, 0
3, 74790, Note_on_c, 1, 55, 100
3, 74803, Note_on_c, 1, 55, 0
3, 74805, Note_on_c, 1, 53, 109
3, 74817, Note_on_c, 1, 45, 0
3, 74818, Note_on_c, 1, 53, 0
3, 74820, Note_on_c, 1, 52, 109
3, 74820, Note_on_c, 1, 41, 109
3, 74848, Note_on_c, 1, 52, 0
3, 74850, Note_on_c, 1, 53, 105
3, 74876, Note_on_c, 1, 41, 0
3, 74878, Note_on_c, 1, 53, 0
3, 74880, Note_on_c, 1, 52, 113
3, 74880, Note_on_c, 1, 36, 113
3, 74940, Note_on_c, 1, 38, 113
3, 74942, Note_on_c, 1, 36, 0
3, 74969, Note_on_c, 1, 38, 0
3, 74970, Note_on_c, 1, 40, 113
3, 74994, Note_on_c, 1, 52, 0
3, 75000, Note_on_c, 1, 41, 105
3, 75007, Note_on_c, 1, 40, 0
3, 75029, Note_on_c, 1, 41, 0
3, 75030, Note_on_c, 1, 43, 109
3, 75060, Note_on_c, 1, 43, 0
3, 75060, Note_on_c, 1, 45, 113
3, 75090, Note_on_c, 1, 45, 0
3, 75090, Note_on_c, 1, 47, 113
3, 75119, Note_on_c, 1, 47, 0
3, 75120, Note_on_c, 1, 48, 105
3, 75149, Note_on_c, 1, 48, 0
3, 75150, Note_on_c, 1, 50, 100
3, 75177, Note_on_c, 1, 50, 0
3, 75180, Note_on_c, 1, 48, 113
3, 75208, Note_on_c, 1, 48, 0
3, 75210, Note_on_c, 1, 47, 109
3, 75240, Note_on_c, 1, 47, 0
3, 75240, Note_on_c, 1, 48, 100
3, 75270, Note_on_c, 1, 45, 109
3, 75271, Note_on_c, 1, 48, 0
3, 75299, Note_on_c, 1, 45, 0
3, 75300, Note_on_c, 1, 46, 105
3, 75330, Note_on_c, 1, 46, 0
3, 75330, Note_on_c, 1, 43, 105
3, 75355, Note_on_c, 1, 43, 0
3, 75360, Note_on_c, 1, 41, 105
3, 75360, Note_on_c, 1, 53, 113
3, 75389, Note_on_c, 1, 53, 0
3, 75390, Note_on_c, 1, 55, 105
3, 75420, Note_on_c, 1, 53, 96
3, 75423, Note_on_c, 1, 55, 0
3, 75449, Note_on_c, 1, 53, 0
3, 75450, Note_on_c, 1, 55, 113
3, 75479, Note_on_c, 1, 55, 0
3, 75480, Note_on_c, 1, 57, 105
3, 75481, Note_on_c, 1, 41, 0
3, 75509, Note_on_c, 1, 57, 0
3, 75510, Note_on_c, 1, 55, 109
3, 75536, Note_on_c, 1, 55, 0
3, 75540, Note_on_c, 1, 57, 109
3, 75540, Note_on_c, 1, 36, 109
3, 75540, Note_on_c, 1, 48, 105
3, 75553, Note_on_c, 1, 36, 0
3, 75554, Note_on_c, 1, 48, 0
3, 75565, Note_on_c, 1, 57, 0
3, 75570, Note_on_c, 1, 55, 105
3, 75570, Note_on_c, 1, 36, 109
3, 75570, Note_on_c, 1, 48, 109
3, 75586, Note_on_c, 1, 36, 0
3, 75588, Note_on_c, 1, 48, 0
3, 75598, Note_on_c, 1, 55, 0
3, 75600, Note_on_c, 1, 53, 109
3, 75600, Note_on_c, 1, 41, 109
3, 75630, Note_on_c, 1, 53, 0
3, 75630, Note_on_c, 1, 55, 105
3, 75660, Note_on_c, 1, 53, 96
3, 75663, Note_on_c, 1, 55, 0
3, 75690, Note_on_c, 1, 53, 0
3, 75690, Note_on_c, 1, 55, 96
3, 75714, Note_on_c, 1, 41, 0
3, 75719, Note_on_c, 1, 55, 0
3, 75720, Note_on_c, 1, 57, 109
3, 75748, Note_on_c, 1, 57, 0
3, 75750, Note_on_c, 1, 55, 100
3, 75776, Note_on_c, 1, 55, 0
3, 75780, Note_on_c, 1, 57, 105
3, 75780, Note_on_c, 1, 36, 118
3, 75780, Note_on_c, 1, 48, 109
3, 75792, Note_on_c, 1, 36, 0
3, 75794, Note_on_c, 1, 48, 0
3, 75805, Note_on_c, 1, 57, 0
3, 75810, Note_on_c, 1, 55, 105
3, 75810, Note_on_c, 1, 36, 109
3, 75810, Note_on_c, 1, 48, 100
3, 75824, Note_on_c, 1, 48, 0
3, 75826, Note_on_c, 1, 36, 0
3, 75836, Note_on_c, 1, 55, 0
3, 75840, Note_on_c, 1, 53, 113
3, 75840, Note_on_c, 1, 41, 113
3, 75891, Note_on_c, 1, 41, 0
3, 75952, Note_on_c, 1, 53, 0
3, 75960, Note_on_c, 1, 45, 113
3, 75990, Note_on_c, 1, 65, 109
3, 76019, Note_on_c, 1, 65, 0
3, 76020, Note_on_c, 1, 64, 100
3, 76041, Note_on_c, 1, 45, 0
3, 76049, Note_on_c, 1, 64, 0
3, 76050, Note_on_c, 1, 62, 109
3, 76079, Note_on_c, 1, 62, 0
3, 76080, Note_on_c, 1, 60, 113
3, 76080, Note_on_c, 1, 48, 109
3, 76109, Note_on_c, 1, 60, 0
3, 76110, Note_on_c, 1, 62, 105
3, 76139, Note_on_c, 1, 62, 0
3, 76140, Note_on_c, 1, 60, 105
3, 76170, Note_on_c, 1, 58, 100
3, 76174, Note_on_c, 1, 60, 0
3, 76198, Note_on_c, 1, 48, 0
3, 76199, Note_on_c, 1, 58, 0
3, 76200, Note_on_c, 1, 57, 118
3, 76230, Note_on_c, 1, 58, 96
3, 76232, Note_on_c, 1, 57, 0
3, 76260, Note_on_c, 1, 57, 113
3, 76262, Note_on_c, 1, 58, 0
3, 76290, Note_on_c, 1, 57, 0
3, 76290, Note_on_c, 1, 55, 105
3, 76320, Note_on_c, 1, 55, 0
3, 76320, Note_on_c, 1, 53, 105
3, 76320, Note_on_c, 1, 41, 109
3, 76350, Note_on_c, 1, 53, 0
3, 76350, Note_on_c, 1, 55, 109
3, 76380, Note_on_c, 1, 53, 100
3, 76382, Note_on_c, 1, 55, 0
3, 76410, Note_on_c, 1, 53, 0
3, 76410, Note_on_c, 1, 55, 105
3, 76422, Note_on_c, 1, 41, 0
3, 76440, Note_on_c, 1, 55, 0
3, 76440, Note_on_c, 1, 57, 109
3, 76468, Note_on_c, 1, 57, 0
3, 76470, Note_on_c, 1, 55, 105
3, 76498, Note_on_c, 1, 55, 0
3, 76500, Note_on_c, 1, 57, 100
3, 76500, Note_on_c, 1, 36, 109
3, 76500, Note_on_c, 1, 48, 105
3, 76513, Note_on_c, 1, 36, 0
3, 76514, Note_on_c, 1, 48, 0
3, 76529, Note_on_c, 1, 57, 0
3, 76530, Note_on_c, 1, 55, 109
3, 76530, Note_on_c, 1, 36, 109
3, 76530, Note_on_c, 1, 48, 109
3, 76543, Note_on_c, 1, 48, 0
3, 76546, Note_on_c, 1, 36, 0
3, 76557, Note_on_c, 1, 55, 0
3, 76560, Note_on_c, 1, 53, 113
3, 76560, Note_on_c, 1, 41, 109
3, 76590, Note_on_c, 1, 55, 100
3, 76595, Note_on_c, 1, 53, 0
3, 76620, Note_on_c, 1, 53, 96
3, 76622, Note_on_c, 1, 55, 0
3, 76649, Note_on_c, 1, 53, 0
3, 76650, Note_on_c, 1, 55, 105
3, 76672, Note_on_c, 1, 41, 0
3, 76680, Note_on_c, 1, 55, 0
3, 76680, Note_on_c, 1, 57, 105
3, 76709, Note_on_c, 1, 57, 0
3, 76710, Note_on_c, 1, 55, 109
3, 76738, Note_on_c, 1, 55, 0
3, 76740, Note_on_c, 1, 57, 96
3, 76740, Note_on_c, 1, 36, 113
3, 76740, Note_on_c, 1, 48, 96
3, 76752, Note_on_c, 1, 36, 0
3, 76753, Note_on_c, 1, 48, 0
3, 76767, Note_on_c, 1, 57, 0
3, 76770, Note_on_c, 1, 55, 100
3, 76770, Note_on_c, 1, 36, 105
3, 76770, Note_on_c, 1, 48, 96
3, 76784, Note_on_c, 1, 48, 0
3, 76784, Note_on_c, 1, 36, 0
3, 76797, Note_on_c, 1, 55, 0
3, 76800, Note_on_c, 1, 53, 122
3, 76800, Note_on_c, 1, 41, 109
3, 76854, Note_on_c, 1, 41, 0
3, 76910, Note_on_c, 1, 53, 0
3, 76920, Note_on_c, 1, 45, 109
3, 76950, Note_on_c, 1, 65, 113
3, 76978, Note_on_c, 1, 65, 0
3, 76980, Note_on_c, 1, 64, 109
3, 77008, Note_on_c, 1, 45, 0
3, 77009, Note_on_c, 1, 64, 0
3, 77010, Note_on_c, 1, 62, 109
3, 77040, Note_on_c, 1, 62, 0
3, 77040, Note_on_c, 1, 60, 113
3, 77040, Note_on_c, 1, 48, 109
3, 77069, Note_on_c, 1, 60, 0
3, 77070, Note_on_c, 1, 62, 109
3, 77100, Note_on_c, 1, 60, 109
3, 77101, Note_on_c, 1, 62, 0
3, 77109, Note_on_c, 1, 48, 0
3, 77130, Note_on_c, 1, 58, 96
3, 77134, Note_on_c, 1, 60, 0
3, 77157, Note_on_c, 1, 58, 0
3, 77160, Note_on_c, 1, 57, 118
3, 77188, Note_on_c, 1, 57, 0
3, 77190, Note_on_c, 1, 58, 100
3, 77219, Note_on_c, 1, 58, 0
3, 77220, Note_on_c, 1, 57, 109
3, 77249, Note_on_c, 1, 57, 0
3, 77250, Note_on_c, 1, 55, 113
3, 77279, Note_on_c, 1, 55, 0
3, 77280, Note_on_c, 1, 53, 109
3, 77280, Note_on_c, 1, 41, 113
3, 77309, Note_on_c, 1, 41, 0
3, 77310, Note_on_c, 1, 43, 105
3, 77339, Note_on_c, 1, 43, 0
3, 77340, Note_on_c, 1, 41, 109
3, 77368, Note_on_c, 1, 41, 0
3, 77370, Note_on_c, 1, 43, 84
3, 77400, Note_on_c, 1, 43, 0
3, 77400, Note_on_c, 1, 45, 100
3, 77429, Note_on_c, 1, 45, 0
3, 77430, Note_on_c, 1, 43, 105
3, 77458, Note_on_c, 1, 43, 0
3, 77460, Note_on_c, 1, 45, 96
3, 77490, Note_on_c, 1, 41, 105
3, 77493, Note_on_c, 1, 45, 0
3, 77519, Note_on_c, 1, 41, 0
3, 77520, Note_on_c, 1, 43, 105
3, 77549, Note_on_c, 1, 43, 0
3, 77550, Note_on_c, 1, 45, 92
3, 77579, Note_on_c, 1, 45, 0
3, 77580, Note_on_c, 1, 43, 105
3, 77609, Note_on_c, 1, 43, 0
3, 77610, Note_on_c, 1, 45, 96
3, 77639, Note_on_c, 1, 45, 0
3, 77640, Note_on_c, 1, 46, 84
3, 77668, Note_on_c, 1, 46, 0
3, 77670, Note_on_c, 1, 45, 105
3, 77700, Note_on_c, 1, 46, 105
3, 77703, Note_on_c, 1, 45, 0
3, 77729, Note_on_c, 1, 46, 0
3, 77730, Note_on_c, 1, 43, 100
3, 77760, Note_on_c, 1, 43, 0
3, 77760, Note_on_c, 1, 45, 109
3, 77790, Note_on_c, 1, 46, 92
3, 77791, Note_on_c, 1, 45, 0
3, 77818, Note_on_c, 1, 46, 0
3, 77820, Note_on_c, 1, 45, 105
3, 77850, Note_on_c, 1, 46, 96
3, 77851, Note_on_c, 1, 45, 0
3, 77880, Note_on_c, 1, 48, 96
3, 77881, Note_on_c, 1, 46, 0
3, 77910, Note_on_c, 1, 48, 0
3, 77910, Note_on_c, 1, 46, 92
3, 77939, Note_on_c, 1, 46, 0
3, 77940, Note_on_c, 1, 48, 96
3, 77960, Note_on_c, 1, 53, 0
3, 77970, Note_on_c, 1, 48, 0
3, 77970, Note_on_c, 1, 45, 105
3, 77993, Note_on_c, 1, 45, 0
3, 78000, Note_on_c, 1, 46, 118
3, 78000, Note_on_c, 1, 53, 113
3, 78109, Note_on_c, 1, 53, 0
3, 78112, Note_on_c, 1, 46, 0
3, 78240, Note_on_c, 1, 52, 113
3, 78240, Note_on_c, 1, 36, 109
3, 78269, Note_on_c, 1, 52, 0
3, 78270, Note_on_c, 1, 53, 96
3, 78300, Note_on_c, 1, 52, 92
3, 78301, Note_on_c, 1, 53, 0
3, 78329, Note_on_c, 1, 52, 0
3, 78330, Note_on_c, 1, 53, 100
3, 78359, Note_on_c, 1, 53, 0
3, 78360, Note_on_c, 1, 55, 105
3, 78388, Note_on_c, 1, 55, 0
3, 78390, Note_on_c, 1, 53, 100
3, 78420, Note_on_c, 1, 55, 100
3, 78421, Note_on_c, 1, 53, 0
3, 78450, Note_on_c, 1, 52, 100
3, 78451, Note_on_c, 1, 55, 0
3, 78480, Note_on_c, 1, 52, 0
3, 78480, Note_on_c, 1, 53, 113
3, 78510, Note_on_c, 1, 53, 0
3, 78510, Note_on_c, 1, 55, 100
3, 78540, Note_on_c, 1, 53, 92
3, 78541, Note_on_c, 1, 55, 0
3, 78567, Note_on_c, 1, 53, 0
3, 78570, Note_on_c, 1, 55, 100
3, 78599, Note_on_c, 1, 55, 0
3, 78600, Note_on_c, 1, 56, 100
3, 78629, Note_on_c, 1, 56, 0
3, 78630, Note_on_c, 1, 55, 109
3, 78659, Note_on_c, 1, 55, 0
3, 78660, Note_on_c, 1, 56, 96
3, 78690, Note_on_c, 1, 53, 100
3, 78692, Note_on_c, 1, 56, 0
3, 78720, Note_on_c, 1, 53, 0
3, 78720, Note_on_c, 1, 55, 113
3, 78750, Note_on_c, 1, 55, 0
3, 78750, Note_on_c, 1, 57, 109
3, 78779, Note_on_c, 1, 57, 0
3, 78780, Note_on_c, 1, 55, 96
3, 78810, Note_on_c, 1, 55, 0
3, 78810, Note_on_c, 1, 57, 105
3, 78840, Note_on_c, 1, 57, 0
3, 78840, Note_on_c, 1, 58, 105
3, 78869, Note_on_c, 1, 58, 0
3, 78870, Note_on_c, 1, 57, 109
3, 78900, Note_on_c, 1, 58, 100
3, 78902, Note_on_c, 1, 57, 0
3, 78929, Note_on_c, 1, 58, 0
3, 78930, Note_on_c, 1, 55, 105
3, 78960, Note_on_c, 1, 56, 109
3, 78961, Note_on_c, 1, 55, 0
3, 78989, Note_on_c, 1, 56, 0
3, 78990, Note_on_c, 1, 58, 96
3, 79020, Note_on_c, 1, 56, 109
3, 79021, Note_on_c, 1, 58, 0
3, 79050, Note_on_c, 1, 58, 100
3, 79055, Note_on_c, 1, 56, 0
3, 79077, Note_on_c, 1, 58, 0
3, 79080, Note_on_c, 1, 60, 80
3, 79110, Note_on_c, 1, 58, 100
3, 79111, Note_on_c, 1, 60, 0
3, 79140, Note_on_c, 1, 60, 113
3, 79142, Note_on_c, 1, 58, 0
3, 79155, Note_on_c, 1, 36, 0
3, 79170, Note_on_c, 1, 56, 109
3, 79171, Note_on_c, 1, 60, 0
3, 79192, Note_on_c, 1, 56, 0
3, 79200, Note_on_c, 1, 56, 118
3, 79230, Note_on_c, 1, 58, 100
3, 79232, Note_on_c, 1, 56, 0
3, 79259, Note_on_c, 1, 58, 0
3, 79260, Note_on_c, 1, 56, 105
3, 79290, Note_on_c, 1, 58, 100
3, 79293, Note_on_c, 1, 56, 0
3, 79316, Note_on_c, 1, 58, 0
3, 79320, Note_on_c, 1, 60, 96
3, 79350, Note_on_c, 1, 58, 96
3, 79351, Note_on_c, 1, 60, 0
3, 79372, Note_on_c, 1, 58, 0
3, 79380, Note_on_c, 1, 60, 113
3, 79380, Note_on_c, 1, 44, 113
3, 79396, Note_on_c, 1, 44, 0
3, 79410, Note_on_c, 1, 56, 113
3, 79410, Note_on_c, 1, 44, 122
3, 79411, Note_on_c, 1, 60, 0
3, 79432, Note_on_c, 1, 44, 0
3, 79438, Note_on_c, 1, 56, 0
3, 79440, Note_on_c, 1, 53, 113
3, 79440, Note_on_c, 1, 37, 127
3, 79440, Note_on_c, 1, 49, 109
3, 79469, Note_on_c, 1, 53, 0
3, 79470, Note_on_c, 1, 56, 100
3, 79496, Note_on_c, 1, 56, 0
3, 79500, Note_on_c, 1, 55, 109
3, 79530, Note_on_c, 1, 55, 0
3, 79530, Note_on_c, 1, 53, 109
3, 79557, Note_on_c, 1, 53, 0
3, 79560, Note_on_c, 1, 49, 0
3, 79560, Note_on_c, 1, 51, 105
3, 79565, Note_on_c, 1, 37, 0
3, 79589, Note_on_c, 1, 51, 0
3, 79590, Note_on_c, 1, 54, 100
3, 79615, Note_on_c, 1, 54, 0
3, 79620, Note_on_c, 1, 53, 109
3, 79620, Note_on_c, 1, 44, 113
3, 79637, Note_on_c, 1, 44, 0
3, 79649, Note_on_c, 1, 53, 0
3, 79650, Note_on_c, 1, 51, 92
3, 79650, Note_on_c, 1, 44, 118
3, 79671, Note_on_c, 1, 51, 0
3, 79672, Note_on_c, 1, 44, 0
3, 79680, Note_on_c, 1, 53, 109
3, 79680, Note_on_c, 1, 37, 105
3, 79680, Note_on_c, 1, 49, 105
3, 79710, Note_on_c, 1, 56, 96
3, 79713, Note_on_c, 1, 53, 0
3, 79740, Note_on_c, 1, 54, 96
3, 79741, Note_on_c, 1, 56, 0
3, 79767, Note_on_c, 1, 54, 0
3, 79770, Note_on_c, 1, 56, 96
3, 79799, Note_on_c, 1, 56, 0
3, 79800, Note_on_c, 1, 53, 113
3, 79804, Note_on_c, 1, 49, 0
3, 79804, Note_on_c, 1, 37, 0
3, 79830, Note_on_c, 1, 53, 0
3, 79830, Note_on_c, 1, 56, 105
3, 79859, Note_on_c, 1, 56, 0
3, 79860, Note_on_c, 1, 55, 109
3, 79860, Note_on_c, 1, 46, 109
3, 79875, Note_on_c, 1, 46, 0
3, 79885, Note_on_c, 1, 55, 0
3, 79890, Note_on_c, 1, 53, 118
3, 79890, Note_on_c, 1, 46, 109
3, 79915, Note_on_c, 1, 53, 0
3, 79916, Note_on_c, 1, 46, 0
3, 79920, Note_on_c, 1, 55, 122
3, 79920, Note_on_c, 1, 39, 105
3, 79920, Note_on_c, 1, 51, 92
3, 79950, Note_on_c, 1, 58, 109
3, 79951, Note_on_c, 1, 55, 0
3, 79980, Note_on_c, 1, 58, 0
3, 79980, Note_on_c, 1, 56, 100
3, 80010, Note_on_c, 1, 55, 113
3, 80011, Note_on_c, 1, 56, 0
3, 80040, Note_on_c, 1, 55, 0
3, 80040, Note_on_c, 1, 53, 109
3, 80046, Note_on_c, 1, 39, 0
3, 80048, Note_on_c, 1, 51, 0
3, 80070, Note_on_c, 1, 53, 0
3, 80070, Note_on_c, 1, 56, 109
3, 80097, Note_on_c, 1, 56, 0
3, 80100, Note_on_c, 1, 55, 109
3, 80100, Note_on_c, 1, 46, 109
3, 80114, Note_on_c, 1, 46, 0
3, 80122, Note_on_c, 1, 55, 0
3, 80130, Note_on_c, 1, 53, 113
3, 80130, Note_on_c, 1, 46, 105
3, 80150, Note_on_c, 1, 46, 0
3, 80150, Note_on_c, 1, 53, 0
3, 80160, Note_on_c, 1, 55, 118
3, 80160, Note_on_c, 1, 39, 109
3, 80160, Note_on_c, 1, 51, 105
3, 80190, Note_on_c, 1, 58, 100
3, 80194, Note_on_c, 1, 55, 0
3, 80217, Note_on_c, 1, 58, 0
3, 80220, Note_on_c, 1, 56, 96
3, 80250, Note_on_c, 1, 58, 100
3, 80252, Note_on_c, 1, 56, 0
3, 80278, Note_on_c, 1, 58, 0
3, 80280, Note_on_c, 1, 55, 109
3, 80282, Note_on_c, 1, 39, 0
3, 80283, Note_on_c, 1, 51, 0
3, 80310, Note_on_c, 1, 58, 96
3, 80313, Note_on_c, 1, 55, 0
3, 80333, Note_on_c, 1, 58, 0
3, 80340, Note_on_c, 1, 56, 109
3, 80340, Note_on_c, 1, 36, 113
3, 80340, Note_on_c, 1, 48, 105
3, 80354, Note_on_c, 1, 48, 0
3, 80354, Note_on_c, 1, 36, 0
3, 80365, Note_on_c, 1, 56, 0
3, 80370, Note_on_c, 1, 55, 100
3, 80370, Note_on_c, 1, 36, 105
3, 80370, Note_on_c, 1, 48, 96
3, 80381, Note_on_c, 1, 36, 0
3, 80384, Note_on_c, 1, 48, 0
3, 80391, Note_on_c, 1, 55, 0
3, 80400, Note_on_c, 1, 56, 100
3, 80400, Note_on_c, 1, 41, 100
3, 80400, Note_on_c, 1, 53, 113
3, 80430, Note_on_c, 1, 60, 113
3, 80431, Note_on_c, 1, 56, 0
3, 80459, Note_on_c, 1, 60, 0
3, 80460, Note_on_c, 1, 58, 100
3, 80490, Note_on_c, 1, 58, 0
3, 80490, Note_on_c, 1, 56, 109
3, 80507, Note_on_c, 1, 53, 0
3, 80518, Note_on_c, 1, 56, 0
3, 80518, Note_on_c, 1, 41, 0
3, 80520, Note_on_c, 1, 55, 109
3, 80550, Note_on_c, 1, 58, 100
3, 80551, Note_on_c, 1, 55, 0
3, 80576, Note_on_c, 1, 58, 0
3, 80580, Note_on_c, 1, 56, 113
3, 80580, Note_on_c, 1, 36, 109
3, 80580, Note_on_c, 1, 48, 96
3, 80594, Note_on_c, 1, 48, 0
3, 80594, Note_on_c, 1, 36, 0
3, 80605, Note_on_c, 1, 56, 0
3, 80610, Note_on_c, 1, 55, 109
3, 80610, Note_on_c, 1, 36, 109
3, 80610, Note_on_c, 1, 48, 100
3, 80620, Note_on_c, 1, 36, 0
3, 80622, Note_on_c, 1, 48, 0
3, 80633, Note_on_c, 1, 55, 0
3, 80640, Note_on_c, 1, 56, 122
3, 80640, Note_on_c, 1, 41, 113
3, 80640, Note_on_c, 1, 53, 100
3, 80700, Note_on_c, 1, 53, 0
3, 80703, Note_on_c, 1, 56, 0
3, 80704, Note_on_c, 1, 41, 0
3, 80760, Note_on_c, 1, 39, 100
3, 80760, Note_on_c, 1, 51, 96
3, 80760, Note_on_c, 1, 53, 118
3, 80831, Note_on_c, 1, 53, 0
3, 80835, Note_on_c, 1, 51, 0
3, 80837, Note_on_c, 1, 39, 0
3, 80880, Note_on_c, 1, 53, 127
3, 80880, Note_on_c, 1, 38, 113
3, 80880, Note_on_c, 1, 50, 113
3, 80943, Note_on_c, 1, 53, 0
3, 80944, Note_on_c, 1, 50, 0
3, 80944, Note_on_c, 1, 38, 0
3, 81000, Note_on_c, 1, 53, 113
3, 81000, Note_on_c, 1, 37, 113
3, 81000, Note_on_c, 1, 56, 113
3, 81000, Note_on_c, 1, 49, 96
3, 81079, Note_on_c, 1, 56, 0
3, 81081, Note_on_c, 1, 49, 0
3, 81081, Note_on_c, 1, 53, 0
3, 81084, Note_on_c, 1, 37, 0
3, 81120, Note_on_c, 1, 36, 100
3, 81120, Note_on_c, 1, 36, 122
3, 81120, Note_on_c, 1, 48, 118
3, 81149, Note_on_c, 1, 48, 0
3, 81150, Note_on_c, 1, 53, 113
3, 81150, Note_on_c, 1, 41, 109
3, 81151, Note_on_c, 1, 36, 0
3, 81153, Note_on_c, 1, 36, 0
3, 81178, Note_on_c, 1, 41, 0
3, 81179, Note_on_c, 1, 53, 0
3, 81180, Note_on_c, 1, 57, 113
3, 81180, Note_on_c, 1, 45, 109
3, 81208, Note_on_c, 1, 45, 0
3, 81210, Note_on_c, 1, 57, 0
3, 81210, Note_on_c, 1, 41, 100
3, 81210, Note_on_c, 1, 53, 109
3, 81238, Note_on_c, 1, 53, 0
3, 81239, Note_on_c, 1, 41, 0
3, 81240, Note_on_c, 1, 48, 105
3, 81240, Note_on_c, 1, 36, 113
3, 81357, Note_on_c, 1, 48, 0
3, 81358, Note_on_c, 1, 36, 0
3, 81600, Note_on_c, 1, 36, 113
3, 81600, Note_on_c, 1, 48, 118
3, 81628, Note_on_c, 1, 48, 0
3, 81630, Note_on_c, 1, 41, 105
3, 81630, Note_on_c, 1, 53, 113
3, 81632, Note_on_c, 1, 36, 0
3, 81658, Note_on_c, 1, 53, 0
3, 81659, Note_on_c, 1, 41, 0
3, 81660, Note_on_c, 1, 57, 113
3, 81660, Note_on_c, 1, 45, 113
3, 81687, Note_on_c, 1, 45, 0
3, 81689, Note_on_c, 1, 57, 0
3, 81690, Note_on_c, 1, 53, 105
3, 81690, Note_on_c, 1, 41, 105
3, 81718, Note_on_c, 1, 53, 0
3, 81720, Note_on_c, 1, 41, 0
3, 81720, Note_on_c, 1, 48, 109
3, 81720, Note_on_c, 1, 36, 122
3, 81832, Note_on_c, 1, 36, 0
3, 81833, Note_on_c, 1, 48, 0
3, 82080, Note_on_c, 1, 59, 118
3, 82080, Note_on_c, 1, 47, 118
3, 82309, Note_on_c, 1, 59, 0
3, 82311, Note_on_c, 1, 47, 0
3, 82320, Note_on_c, 1, 60, 113
3, 82320, Note_on_c, 1, 48, 113
3, 82435, Note_on_c, 1, 48, 0
3, 82435, Note_on_c, 1, 60, 0
3, 82440, Note_on_c, 1, 61, 109
3, 82440, Note_on_c, 1, 49, 109
3, 82549, Note_on_c, 1, 49, 0
3, 82552, Note_on_c, 1, 61, 0
3, 82560, Note_on_c, 1, 36, 113
3, 82605, Note_on_c, 1, 48, 105
3, 82620, Note_on_c, 1, 50, 109
3, 82634, Note_on_c, 1, 48, 0
3, 82647, Note_on_c, 1, 50, 0
3, 82650, Note_on_c, 1, 52, 105
3, 82675, Note_on_c, 1, 52, 0
3, 82680, Note_on_c, 1, 53, 113
3, 82707, Note_on_c, 1, 53, 0
3, 82710, Note_on_c, 1, 55, 88
3, 82740, Note_on_c, 1, 57, 109
3, 82742, Note_on_c, 1, 55, 0
3, 82768, Note_on_c, 1, 57, 0
3, 82770, Note_on_c, 1, 58, 92
3, 82796, Note_on_c, 1, 58, 0
3, 82800, Note_on_c, 1, 60, 113
3, 82856, Note_on_c, 1, 60, 0
3, 82860, Note_on_c, 1, 62, 109
3, 82921, Note_on_c, 1, 62, 0
3, 82935, Note_on_c, 1, 64, 122
3, 83023, Note_on_c, 1, 64, 0
3, 83036, Note_on_c, 1, 36, 0
3, 83040, Note_on_c, 1, 60, 84
3, 83053, Note_on_c, 1, 60, 0
3, 83055, Note_on_c, 1, 58, 96
3, 83068, Note_on_c, 1, 58, 0
3, 83070, Note_on_c, 1, 60, 84
3, 83070, Note_on_c, 1, 36, 113
3, 83083, Note_on_c, 1, 60, 0
3, 83085, Note_on_c, 1, 58, 92
3, 83098, Note_on_c, 1, 58, 0
3, 83098, Note_on_c, 1, 36, 0
3, 83100, Note_on_c, 1, 60, 92
3, 83100, Note_on_c, 1, 38, 105
3, 83113, Note_on_c, 1, 60, 0
3, 83115, Note_on_c, 1, 58, 105
3, 83128, Note_on_c, 1, 58, 0
3, 83128, Note_on_c, 1, 38, 0
3, 83130, Note_on_c, 1, 60, 88
3, 83130, Note_on_c, 1, 40, 109
3, 83143, Note_on_c, 1, 60, 0
3, 83145, Note_on_c, 1, 58, 109
3, 83158, Note_on_c, 1, 58, 0
3, 83158, Note_on_c, 1, 40, 0
3, 83160, Note_on_c, 1, 60, 88
3, 83160, Note_on_c, 1, 41, 109
3, 83173, Note_on_c, 1, 60, 0
3, 83175, Note_on_c, 1, 58, 109
3, 83188, Note_on_c, 1, 58, 0
3, 83188, Note_on_c, 1, 41, 0
3, 83190, Note_on_c, 1, 60, 92
3, 83190, Note_on_c, 1, 43, 109
3, 83203, Note_on_c, 1, 60, 0
3, 83205, Note_on_c, 1, 58, 109
3, 83218, Note_on_c, 1, 58, 0
3, 83218, Note_on_c, 1, 43, 0
3, 83220, Note_on_c, 1, 60, 88
3, 83220, Note_on_c, 1, 45, 113
3, 83233, Note_on_c, 1, 60, 0
3, 83235, Note_on_c, 1, 58, 109
3, 83248, Note_on_c, 1, 58, 0
3, 83248, Note_on_c, 1, 45, 0
3, 83250, Note_on_c, 1, 60, 96
3, 83250, Note_on_c, 1, 46, 118
3, 83263, Note_on_c, 1, 60, 0
3, 83265, Note_on_c, 1, 58, 109
3, 83278, Note_on_c, 1, 58, 0
3, 83278, Note_on_c, 1, 46, 0
3, 83280, Note_on_c, 1, 60, 100
3, 83280, Note_on_c, 1, 48, 96
3, 83293, Note_on_c, 1, 60, 0
3, 83295, Note_on_c, 1, 58, 105
3, 83308, Note_on_c, 1, 58, 0
3, 83308, Note_on_c, 1, 48, 0
3, 83310, Note_on_c, 1, 60, 92
3, 83310, Note_on_c, 1, 50, 109
3, 83323, Note_on_c, 1, 60, 0
3, 83325, Note_on_c, 1, 58, 96
3, 83338, Note_on_c, 1, 58, 0
3, 83338, Note_on_c, 1, 50, 0
3, 83340, Note_on_c, 1, 60, 92
3, 83340, Note_on_c, 1, 48, 109
3, 83353, Note_on_c, 1, 60, 0
3, 83355, Note_on_c, 1, 58, 96
3, 83368, Note_on_c, 1, 58, 0
3, 83368, Note_on_c, 1, 48, 0
3, 83370, Note_on_c, 1, 60, 84
3, 83370, Note_on_c, 1, 47, 109
3, 83383, Note_on_c, 1, 60, 0
3, 83385, Note_on_c, 1, 58, 96
3, 83398, Note_on_c, 1, 58, 0
3, 83398, Note_on_c, 1, 47, 0
3, 83400, Note_on_c, 1, 60, 92
3, 83400, Note_on_c, 1, 48, 113
3, 83413, Note_on_c, 1, 60, 0
3, 83415, Note_on_c, 1, 58, 84
3, 83428, Note_on_c, 1, 58, 0
3, 83428, Note_on_c, 1, 48, 0
3, 83430, Note_on_c, 1, 60, 92
3, 83430, Note_on_c, 1, 43, 100
3, 83443, Note_on_c, 1, 60, 0
3, 83445, Note_on_c, 1, 58, 100
3, 83458, Note_on_c, 1, 58, 0
3, 83458, Note_on_c, 1, 43, 0
3, 83460, Note_on_c, 1, 60, 96
3, 83460, Note_on_c, 1, 40, 109
3, 83473, Note_on_c, 1, 60, 0
3, 83475, Note_on_c, 1, 58, 96
3, 83488, Note_on_c, 1, 58, 0
3, 83488, Note_on_c, 1, 40, 0
3, 83490, Note_on_c, 1, 57, 105
3, 83490, Note_on_c, 1, 36, 122
3, 83503, Note_on_c, 1, 57, 0
3, 83505, Note_on_c, 1, 58, 100
3, 83518, Note_on_c, 1, 58, 0
3, 83518, Note_on_c, 1, 36, 0
3, 83520, Note_on_c, 1, 57, 113
3, 83520, Note_on_c, 1, 41, 113
3, 83584, Note_on_c, 1, 57, 0
3, 83587, Note_on_c, 1, 41, 0
3, 83640, Note_on_c, 1, 57, 109
3, 83640, Note_on_c, 1, 53, 109
3, 83640, Note_on_c, 1, 50, 118
3, 83712, Note_on_c, 1, 53, 0
3, 83714, Note_on_c, 1, 50, 0
3, 83714, Note_on_c, 1, 57, 0
3, 83760, Note_on_c, 1, 53, 113
3, 83760, Note_on_c, 1, 55, 113
3, 83760, Note_on_c, 1, 46, 122
3, 83832, Note_on_c, 1, 55, 0
3, 83833, Note_on_c, 1, 53, 0
3, 83834, Note_on_c, 1, 46, 0
3, 83880, Note_on_c, 1, 55, 113
3, 83880, Note_on_c, 1, 52, 113
3, 83880, Note_on_c, 1, 48, 109
3, 83966, Note_on_c, 1, 55, 0
3, 83970, Note_on_c, 1, 48, 0
3, 83972, Note_on_c, 1, 52, 0
3, 84000, Note_on_c, 1, 53, 109
3, 84029, Note_on_c, 1, 53, 0
3, 84030, Note_on_c, 1, 57, 113
3, 84058, Note_on_c, 1, 57, 0
3, 84060, Note_on_c, 1, 53, 109
3, 84090, Note_on_c, 1, 49, 96
3, 84091, Note_on_c, 1, 53, 0
3, 84119, Note_on_c, 1, 49, 0
3, 84120, Note_on_c, 1, 50, 113
3, 84147, Note_on_c, 1, 50, 0
3, 84150, Note_on_c, 1, 53, 100
3, 84180, Note_on_c, 1, 50, 109
3, 84183, Note_on_c, 1, 53, 0
3, 84208, Note_on_c, 1, 50, 0
3, 84210, Note_on_c, 1, 45, 113
3, 84240, Note_on_c, 1, 46, 105
3, 84241, Note_on_c, 1, 45, 0
3, 84268, Note_on_c, 1, 46, 0
3, 84270, Note_on_c, 1, 50, 96
3, 84300, Note_on_c, 1, 50, 0
3, 84300, Note_on_c, 1, 46, 100
3, 84330, Note_on_c, 1, 46, 0
3, 84330, Note_on_c, 1, 43, 88
3, 84359, Note_on_c, 1, 43, 0
3, 84360, Note_on_c, 1, 48, 113
3, 84389, Note_on_c, 1, 48, 0
3, 84390, Note_on_c, 1, 43, 113
3, 84417, Note_on_c, 1, 43, 0
3, 84420, Note_on_c, 1, 40, 113
3, 84450, Note_on_c, 1, 40, 0
3, 84450, Note_on_c, 1, 36, 109
3, 84479, Note_on_c, 1, 36, 0
3, 84480, Note_on_c, 1, 41, 109
3, 84480, Note_on_c, 1, 57, 113
3, 84480, Note_on_c, 1, 53, 92
3, 84604, Note_on_c, 1, 57, 0
3, 84605, Note_on_c, 1, 53, 0
3, 84607, Note_on_c, 1, 41, 0
3, 84660, Note_on_c, 1, 57, 113
3, 84660, Note_on_c, 1, 41, 109
3, 84660, Note_on_c, 1, 53, 100
3, 84677, Note_on_c, 1, 53, 0
3, 84677, Note_on_c, 1, 41, 0
3, 84679, Note_on_c, 1, 57, 0
3, 84690, Note_on_c, 1, 57, 96
3, 84690, Note_on_c, 1, 41, 100
3, 84690, Note_on_c, 1, 53, 96
3, 84700, Note_on_c, 1, 53, 0
3, 84701, Note_on_c, 1, 41, 0
3, 84706, Note_on_c, 1, 57, 0
3, 84720, Note_on_c, 1, 39, 96
3, 84720, Note_on_c, 1, 51, 92
3, 84720, Note_on_c, 1, 60, 109
3, 84851, Note_on_c, 1, 60, 0
3, 84853, Note_on_c, 1, 51, 0
3, 84854, Note_on_c, 1, 39, 0
3, 84900, Note_on_c, 1, 39, 109
3, 84900, Note_on_c, 1, 57, 109
3, 84900, Note_on_c, 1, 51, 96
3, 84914, Note_on_c, 1, 51, 0
3, 84915, Note_on_c, 1, 39, 0
3, 84916, Note_on_c, 1, 57, 0
3, 84930, Note_on_c, 1, 39, 100
3, 84930, Note_on_c, 1, 51, 92
3, 84930, Note_on_c, 1, 57, 105
3, 84946, Note_on_c, 1, 57, 0
3, 84946, Note_on_c, 1, 51, 0
3, 84947, Note_on_c, 1, 39, 0
3, 84960, Note_on_c, 1, 62, 113
3, 84960, Note_on_c, 1, 50, 105
3, 84960, Note_on_c, 1, 38, 113
3, 85097, Note_on_c, 1, 62, 0
3, 85099, Note_on_c, 1, 38, 0
3, 85099, Note_on_c, 1, 50, 0
3, 85140, Note_on_c, 1, 58, 113
3, 85140, Note_on_c, 1, 38, 109
3, 85140, Note_on_c, 1, 50, 109
3, 85154, Note_on_c, 1, 50, 0
3, 85154, Note_on_c, 1, 38, 0
3, 85158, Note_on_c, 1, 58, 0
3, 85170, Note_on_c, 1, 38, 105
3, 85170, Note_on_c, 1, 58, 100
3, 85170, Note_on_c, 1, 50, 96
3, 85180, Note_on_c, 1, 50, 0
3, 85180, Note_on_c, 1, 38, 0
3, 85185, Note_on_c, 1, 58, 0
3, 85200, Note_on_c, 1, 59, 109
3, 85200, Note_on_c, 1, 49, 109
3, 85200, Note_on_c, 1, 37, 127
3, 85318, Note_on_c, 1, 49, 0
3, 85319, Note_on_c, 1, 37, 0
3, 85320, Note_on_c, 1, 59, 0
3, 85650, Note_on_c, 1, 53, 113
3, 85650, Note_on_c, 1, 49, 109
3, 85650, Note_on_c, 1, 37, 113
3, 85660, Note_on_c, 1, 49, 0
3, 85661, Note_on_c, 1, 37, 0
3, 85666, Note_on_c, 1, 53, 0
3, 85680, Note_on_c, 1, 53, 122
3, 85680, Note_on_c, 1, 37, 109
3, 85680, Note_on_c, 1, 49, 109
3, 85793, Note_on_c, 1, 49, 0
3, 85793, Note_on_c, 1, 37, 0
3, 85793, Note_on_c, 1, 53, 0
3, 85890, Note_on_c, 1, 55, 109
3, 85890, Note_on_c, 1, 48, 109
3, 85890, Note_on_c, 1, 36, 109
3, 85900, Note_on_c, 1, 36, 0
3, 85900, Note_on_c, 1, 48, 0
3, 85902, Note_on_c, 1, 55, 0
3, 85920, Note_on_c, 1, 48, 109
3, 85920, Note_on_c, 1, 53, 122
3, 85920, Note_on_c, 1, 36, 113
3, 86149, Note_on_c, 1, 53, 0
3, 86160, Note_on_c, 1, 52, 113
3, 86273, Note_on_c, 1, 52, 0
3, 86280, Note_on_c, 1, 50, 122
3, 86396, Note_on_c, 1, 50, 0
3, 86400, Note_on_c, 1, 52, 118
3, 86490, Note_on_c, 1, 48, 0
3, 86501, Note_on_c, 1, 36, 0
3, 86514, Note_on_c, 1, 52, 0
3, 86880, Note_on_c, 1, 53, 105
3, 86880, Note_on_c, 1, 41, 105
3, 86993, Note_on_c, 1, 41, 0
3, 87000, Note_on_c, 1, 44, 92
3, 87114, Note_on_c, 1, 44, 0
3, 87120, Note_on_c, 1, 48, 82
3, 87216, Note_on_c, 1, 53, 0
3, 87235, Note_on_c, 1, 48, 0
3, 87240, Note_on_c, 1, 55, 100
3, 87240, Note_on_c, 1, 40, 105
3, 87360, Note_on_c, 1, 40, 0
3, 87360, Note_on_c, 1, 43, 96
3, 87476, Note_on_c, 1, 43, 0
3, 87480, Note_on_c, 1, 48, 96
3, 87592, Note_on_c, 1, 55, 0
3, 87599, Note_on_c, 1, 48, 0
3, 87600, Note_on_c, 1, 39, 96
3, 87600, Note_on_c, 1, 54, 96
3, 87716, Note_on_c, 1, 39, 0
3, 87720, Note_on_c, 1, 42, 96
3, 87838, Note_on_c, 1, 42, 0
3, 87840, Note_on_c, 1, 48, 96
3, 87945, Note_on_c, 1, 54, 0
3, 87953, Note_on_c, 1, 48, 0
3, 87960, Note_on_c, 1, 38, 109
3, 87960, Note_on_c, 1, 53, 105
3, 88076, Note_on_c, 1, 38, 0
3, 88080, Note_on_c, 1, 41, 109
3, 88187, Note_on_c, 1, 53, 0
3, 88196, Note_on_c, 1, 41, 0
3, 88200, Note_on_c, 1, 52, 96
3, 88200, Note_on_c, 1, 46, 82
3, 88314, Note_on_c, 1, 52, 0
3, 88316, Note_on_c, 1, 46, 0
3, 88320, Note_on_c, 1, 53, 109
3, 88320, Note_on_c, 1, 37, 96
3, 88433, Note_on_c, 1, 37, 0
3, 88440, Note_on_c, 1, 41, 105
3, 88551, Note_on_c, 1, 53, 0
3, 88554, Note_on_c, 1, 41, 0
3, 88560, Note_on_c, 1, 55, 113
3, 88560, Note_on_c, 1, 47, 100
3, 88619, Note_on_c, 1, 55, 0
3, 88620, Note_on_c, 1, 56, 100
3, 88659, Note_on_c, 1, 47, 0
3, 88671, Note_on_c, 1, 56, 0
3, 88680, Note_on_c, 1, 36, 96
3, 88680, Note_on_c, 1, 48, 75
3, 88680, Note_on_c, 1, 56, 109
3, 88799, Note_on_c, 1, 56, 0
3, 88800, Note_on_c, 1, 55, 96
3, 88917, Note_on_c, 1, 55, 0
3, 88920, Note_on_c, 1, 53, 105
3, 88920, Note_on_c, 1, 50, 96
3, 89015, Note_on_c, 1, 50, 0
3, 89032, Note_on_c, 1, 53, 0
3, 89040, Note_on_c, 1, 52, 84
3, 89040, Note_on_c, 1, 55, 100
3, 89156, Note_on_c, 1, 48, 0
3, 89158, Note_on_c, 1, 36, 0
3, 89172, Note_on_c, 1, 52, 0
3, 89178, Note_on_c, 1, 55, 0
3, 89520, Note_on_c, 1, 48, 109
3, 89520, Note_on_c, 1, 56, 92
3, 89633, Note_on_c, 1, 48, 0
3, 89640, Note_on_c, 1, 49, 88
3, 89749, Note_on_c, 1, 56, 0
3, 89756, Note_on_c, 1, 49, 0
3, 89760, Note_on_c, 1, 51, 88
3, 89760, Note_on_c, 1, 55, 72
3, 89878, Note_on_c, 1, 51, 0
3, 89879, Note_on_c, 1, 55, 0
3, 89880, Note_on_c, 1, 48, 100
3, 89880, Note_on_c, 1, 44, 84
3, 90006, Note_on_c, 1, 44, 0
3, 90010, Note_on_c, 1, 48, 0
3, 90240, Note_on_c, 1, 53, 109
3, 90240, Note_on_c, 1, 44, 100
3, 90351, Note_on_c, 1, 44, 0
3, 90360, Note_on_c, 1, 46, 100
3, 90473, Note_on_c, 1, 46, 0
3, 90480, Note_on_c, 1, 48, 105
3, 90525, Note_on_c, 1, 53, 0
3, 90540, Note_on_c, 1, 52, 92
3, 90589, Note_on_c, 1, 48, 0
3, 90596, Note_on_c, 1, 52, 0
3, 90600, Note_on_c, 1, 41, 109
3, 90730, Note_on_c, 1, 41, 0
3, 90960, Note_on_c, 1, 49, 100
3, 90960, Note_on_c, 1, 46, 109
3, 91067, Note_on_c, 1, 49, 0
3, 91070, Note_on_c, 1, 46, 0
3, 91080, Note_on_c, 1, 50, 109
3, 91080, Note_on_c, 1, 47, 109
3, 91197, Note_on_c, 1, 47, 0
3, 91198, Note_on_c, 1, 50, 0
3, 91200, Note_on_c, 1, 53, 105
3, 91200, Note_on_c, 1, 49, 100
3, 91318, Note_on_c, 1, 49, 0
3, 91320, Note_on_c, 1, 53, 0
3, 91320, Note_on_c, 1, 51, 92
3, 91320, Note_on_c, 1, 48, 92
3, 91440, Note_on_c, 1, 48, 0
3, 91443, Note_on_c, 1, 51, 0
3, 91680, Note_on_c, 1, 51, 105
3, 91680, Note_on_c, 1, 48, 109
3, 91792, Note_on_c, 1, 51, 0
3, 91795, Note_on_c, 1, 48, 0
3, 91800, Note_on_c, 1, 52, 100
3, 91800, Note_on_c, 1, 49, 100
3, 91910, Note_on_c, 1, 49, 0
3, 91913, Note_on_c, 1, 52, 0
3, 91920, Note_on_c, 1, 55, 96
3, 91920, Note_on_c, 1, 51, 96
3, 92040, Note_on_c, 1, 51, 0
3, 92040, Note_on_c, 1, 50, 100
3, 92040, Note_on_c, 1, 53, 100
3, 92042, Note_on_c, 1, 55, 0
3, 92157, Note_on_c, 1, 53, 0
3, 92162, Note_on_c, 1, 50, 0
3, 92280, Note_on_c, 1, 36, 113
3, 92520, Note_on_c, 1, 52, 109
3, 92520, Note_on_c, 1, 55, 100
3, 92636, Note_on_c, 1, 52, 0
3, 92637, Note_on_c, 1, 55, 0
3, 92640, Note_on_c, 1, 53, 96
3, 92640, Note_on_c, 1, 56, 92
3, 92745, Note_on_c, 1, 56, 0
3, 92747, Note_on_c, 1, 53, 0
3, 92760, Note_on_c, 1, 55, 100
3, 92760, Note_on_c, 1, 58, 77
3, 92872, Note_on_c, 1, 58, 0
3, 92880, Note_on_c, 1, 55, 0
3, 92880, Note_on_c, 1, 53, 82
3, 92880, Note_on_c, 1, 56, 88
3, 92993, Note_on_c, 1, 56, 0
3, 92995, Note_on_c, 1, 53, 0
3, 93000, Note_on_c, 1, 55, 92
3, 93000, Note_on_c, 1, 52, 88
3, 93106, Note_on_c, 1, 52, 0
3, 93115, Note_on_c, 1, 55, 0
3, 93120, Note_on_c, 1, 53, 88
3, 93120, Note_on_c, 1, 56, 84
3, 93233, Note_on_c, 1, 56, 0
3, 93235, Note_on_c, 1, 53, 0
3, 93240, Note_on_c, 1, 51, 84
3, 93240, Note_on_c, 1, 55, 105
3, 93353, Note_on_c, 1, 51, 0
3, 93357, Note_on_c, 1, 55, 0
3, 93360, Note_on_c, 1, 53, 105
3, 93360, Note_on_c, 1, 50, 88
3, 93474, Note_on_c, 1, 50, 0
3, 93474, Note_on_c, 1, 53, 0
3, 93480, Note_on_c, 1, 55, 100
3, 93480, Note_on_c, 1, 52, 109
3, 93585, Note_on_c, 1, 52, 0
3, 93585, Note_on_c, 1, 55, 0
3, 93600, Note_on_c, 1, 52, 77
3, 93600, Note_on_c, 1, 48, 75
3, 93709, Note_on_c, 1, 48, 0
3, 93714, Note_on_c, 1, 52, 0
3, 93720, Note_on_c, 1, 48, 105
3, 93720, Note_on_c, 1, 53, 109
3, 93779, Note_on_c, 1, 36, 0
3, 93840, Note_on_c, 1, 47, 92
3, 93840, Note_on_c, 1, 37, 109
3, 93949, Note_on_c, 1, 37, 0
3, 93960, Note_on_c, 1, 38, 118
3, 94072, Note_on_c, 1, 47, 0
3, 94077, Note_on_c, 1, 38, 0
3, 94080, Note_on_c, 1, 36, 109
3, 94143, Note_on_c, 1, 48, 0
3, 94144, Note_on_c, 1, 53, 0
3, 94162, Note_on_c, 1, 36, 0
3, 94320, Note_on_c, 1, 48, 100
3, 94320, Note_on_c, 1, 36, 113
3, 94436, Note_on_c, 1, 36, 0
3, 94440, Note_on_c, 1, 37, 96
3, 94492, Note_on_c, 1, 48, 0
3, 94500, Note_on_c, 1, 51, 96
3, 94560, Note_on_c, 1, 51, 0
3, 94560, Note_on_c, 1, 49, 100
3, 94616, Note_on_c, 1, 49, 0
3, 94620, Note_on_c, 1, 48, 96
3, 94669, Note_on_c, 1, 37, 0
3, 94680, Note_on_c, 1, 46, 96
3, 94680, Note_on_c, 1, 38, 105
3, 94682, Note_on_c, 1, 48, 0
3, 94736, Note_on_c, 1, 46, 0
3, 94740, Note_on_c, 1, 44, 96
3, 94798, Note_on_c, 1, 38, 0
3, 94800, Note_on_c, 1, 43, 92
3, 94800, Note_on_c, 1, 39, 100
3, 94804, Note_on_c, 1, 44, 0
3, 95142, Note_on_c, 1, 39, 0
3, 95160, Note_on_c, 1, 40, 113
3, 95383, Note_on_c, 1, 43, 0
3, 95400, Note_on_c, 1, 46, 100
3, 95513, Note_on_c, 1, 40, 0
3, 95520, Note_on_c, 1, 41, 96
3, 95520, Note_on_c, 1, 44, 96
3, 95521, Note_on_c, 1, 46, 0
3, 95739, Note_on_c, 1, 44, 0
3, 95739, Note_on_c, 1, 41, 0
3, 95760, Note_on_c, 1, 43, 105
3, 95760, Note_on_c, 1, 46, 96
3, 95880, Note_on_c, 1, 44, 109
3, 95882, Note_on_c, 1, 46, 0
3, 95885, Note_on_c, 1, 43, 0
3, 95936, Note_on_c, 1, 44, 0
3, 95940, Note_on_c, 1, 48, 96
3, 95940, Note_on_c, 1, 45, 105
3, 95998, Note_on_c, 1, 48, 0
3, 96000, Note_on_c, 1, 45, 0
3, 96000, Note_on_c, 1, 46, 100
3, 96000, Note_on_c, 1, 49, 92
3, 96052, Note_on_c, 1, 49, 0
3, 96059, Note_on_c, 1, 46, 0
3, 96060, Note_on_c, 1, 51, 92
3, 96060, Note_on_c, 1, 48, 92
3, 96118, Note_on_c, 1, 51, 0
3, 96120, Note_on_c, 1, 53, 76
3, 96120, Note_on_c, 1, 49, 96
3, 96124, Note_on_c, 1, 48, 0
3, 96176, Note_on_c, 1, 49, 0
3, 96176, Note_on_c, 1, 53, 0
3, 96180, Note_on_c, 1, 54, 96
3, 96180, Note_on_c, 1, 51, 88
3, 96240, Note_on_c, 1, 49, 92
3, 96240, Note_on_c, 1, 53, 109
3, 96242, Note_on_c, 1, 51, 0
3, 96247, Note_on_c, 1, 54, 0
3, 96293, Note_on_c, 1, 53, 0
3, 96294, Note_on_c, 1, 49, 0
3, 96300, Note_on_c, 1, 55, 109
3, 96300, Note_on_c, 1, 52, 109
3, 96356, Note_on_c, 1, 55, 0
3, 96359, Note_on_c, 1, 52, 0
3, 96360, Note_on_c, 1, 53, 113
3, 96360, Note_on_c, 1, 56, 100
3, 96412, Note_on_c, 1, 56, 0
3, 96416, Note_on_c, 1, 53, 0
3, 96420, Note_on_c, 1, 58, 92
3, 96420, Note_on_c, 1, 55, 109
3, 96479, Note_on_c, 1, 58, 0
3, 96480, Note_on_c, 1, 55, 0
3, 96480, Note_on_c, 1, 60, 82
3, 96480, Note_on_c, 1, 56, 96
3, 96536, Note_on_c, 1, 60, 0
3, 96537, Note_on_c, 1, 56, 0
3, 96540, Note_on_c, 1, 61, 109
3, 96540, Note_on_c, 1, 58, 96
3, 96596, Note_on_c, 1, 61, 0
3, 96600, Note_on_c, 1, 59, 109
3, 96600, Note_on_c, 1, 62, 96
3, 96602, Note_on_c, 1, 58, 0
3, 96658, Note_on_c, 1, 59, 0
3, 96660, Note_on_c, 1, 53, 109
3, 96660, Note_on_c, 1, 50, 113
3, 96662, Note_on_c, 1, 62, 0
3, 96714, Note_on_c, 1, 50, 0
3, 96720, Note_on_c, 1, 48, 109
3, 96777, Note_on_c, 1, 53, 0
3, 96780, Note_on_c, 1, 54, 96
3, 96834, Note_on_c, 1, 54, 0
3, 96840, Note_on_c, 1, 55, 109
3, 96895, Note_on_c, 1, 48, 0
3, 96897, Note_on_c, 1, 55, 0
3, 96900, Note_on_c, 1, 46, 109
3, 96948, Note_on_c, 1, 46, 0
3, 96960, Note_on_c, 1, 45, 84
3, 96960, Note_on_c, 1, 41, 96
3, 97017, Note_on_c, 1, 45, 0
3, 97020, Note_on_c, 1, 45, 105
3, 97057, Note_on_c, 1, 41, 0
3, 97075, Note_on_c, 1, 45, 0
3, 97080, Note_on_c, 1, 48, 105
3, 97133, Note_on_c, 1, 48, 0
3, 97140, Note_on_c, 1, 53, 113
3, 97200, Note_on_c, 1, 53, 0
3, 97200, Note_on_c, 1, 57, 113
3, 97200, Note_on_c, 1, 48, 109
3, 97250, Note_on_c, 1, 48, 0
3, 97260, Note_on_c, 1, 45, 100
3, 97309, Note_on_c, 1, 57, 0
3, 97317, Note_on_c, 1, 45, 0
3, 97320, Note_on_c, 1, 53, 105
3, 97320, Note_on_c, 1, 41, 109
3, 97380, Note_on_c, 1, 46, 100
3, 97383, Note_on_c, 1, 41, 0
3, 97398, Note_on_c, 1, 53, 0
3, 97439, Note_on_c, 1, 46, 0
3, 97440, Note_on_c, 1, 50, 109
3, 97496, Note_on_c, 1, 50, 0
3, 97500, Note_on_c, 1, 53, 105
3, 97558, Note_on_c, 1, 53, 0
3, 97560, Note_on_c, 1, 50, 73
3, 97560, Note_on_c, 1, 55, 113
3, 97613, Note_on_c, 1, 50, 0
3, 97614, Note_on_c, 1, 55, 0
3, 97620, Note_on_c, 1, 46, 80
3, 97620, Note_on_c, 1, 58, 105
3, 97679, Note_on_c, 1, 58, 0
3, 97680, Note_on_c, 1, 41, 100
3, 97680, Note_on_c, 1, 57, 96
3, 97681, Note_on_c, 1, 46, 0
3, 97740, Note_on_c, 1, 45, 100
3, 97742, Note_on_c, 1, 41, 0
3, 97760, Note_on_c, 1, 57, 0
3, 97798, Note_on_c, 1, 45, 0
3, 97800, Note_on_c, 1, 48, 109
3, 97859, Note_on_c, 1, 48, 0
3, 97860, Note_on_c, 1, 53, 100
3, 97918, Note_on_c, 1, 53, 0
3, 97920, Note_on_c, 1, 63, 105
3, 97920, Note_on_c, 1, 48, 100
3, 97980, Note_on_c, 1, 45, 109
3, 97986, Note_on_c, 1, 48, 0
3, 98008, Note_on_c, 1, 63, 0
3, 98024, Note_on_c, 1, 45, 0
3, 98040, Note_on_c, 1, 60, 96
3, 98040, Note_on_c, 1, 41, 96
3, 98040, Note_on_c, 1, 62, 118
3, 98062, Note_on_c, 1, 60, 0
3, 98078, Note_on_c, 1, 62, 0
3, 98097, Note_on_c, 1, 41, 0
3, 98100, Note_on_c, 1, 46, 92
3, 98160, Note_on_c, 1, 50, 92
3, 98163, Note_on_c, 1, 46, 0
3, 98220, Note_on_c, 1, 53, 100
3, 98221, Note_on_c, 1, 50, 0
3, 98280, Note_on_c, 1, 53, 0
3, 98280, Note_on_c, 1, 55, 113
3, 98280, Note_on_c, 1, 46, 92
3, 98334, Note_on_c, 1, 55, 0
3, 98335, Note_on_c, 1, 46, 0
3, 98340, Note_on_c, 1, 43, 105
3, 98340, Note_on_c, 1, 58, 100
3, 98391, Note_on_c, 1, 43, 0
3, 98400, Note_on_c, 1, 41, 105
3, 98400, Note_on_c, 1, 56, 109
3, 98402, Note_on_c, 1, 58, 0
3, 98455, Note_on_c, 1, 56, 0
3, 98460, Note_on_c, 1, 58, 96
3, 98520, Note_on_c, 1, 56, 109
3, 98521, Note_on_c, 1, 58, 0
3, 98580, Note_on_c, 1, 56, 0
3, 98580, Note_on_c, 1, 58, 96
3, 98640, Note_on_c, 1, 56, 96
3, 98642, Note_on_c, 1, 58, 0
3, 98699, Note_on_c, 1, 56, 0
3, 98700, Note_on_c, 1, 58, 100
3, 98760, Note_on_c, 1, 56, 105
3, 98761, Note_on_c, 1, 58, 0
3, 98814, Note_on_c, 1, 56, 0
3, 98820, Note_on_c, 1, 55, 100
3, 98879, Note_on_c, 1, 55, 0
3, 98880, Note_on_c, 1, 53, 100
3, 98935, Note_on_c, 1, 53, 0
3, 98940, Note_on_c, 1, 52, 113
3, 99000, Note_on_c, 1, 52, 0
3, 99000, Note_on_c, 1, 53, 100
3, 99059, Note_on_c, 1, 53, 0
3, 99060, Note_on_c, 1, 52, 100
3, 99120, Note_on_c, 1, 53, 96
3, 99123, Note_on_c, 1, 52, 0
3, 99141, Note_on_c, 1, 41, 0
3, 99174, Note_on_c, 1, 53, 0
3, 99180, Note_on_c, 1, 40, 92
3, 99180, Note_on_c, 1, 55, 100
3, 99238, Note_on_c, 1, 55, 0
3, 99240, Note_on_c, 1, 40, 0
3, 99240, Note_on_c, 1, 53, 96
3, 99240, Note_on_c, 1, 41, 96
3, 99295, Note_on_c, 1, 53, 0
3, 99297, Note_on_c, 1, 41, 0
3, 99300, Note_on_c, 1, 52, 100
3, 99300, Note_on_c, 1, 36, 96
3, 99355, Note_on_c, 1, 36, 0
3, 99359, Note_on_c, 1, 52, 0
3, 99360, Note_on_c, 1, 41, 105
3, 99417, Note_on_c, 1, 41, 0
3, 99420, Note_on_c, 1, 36, 109
3, 99450, Note_on_c, 1, 46, 96
3, 99452, Note_on_c, 1, 36, 0
3, 99464, Note_on_c, 1, 46, 0
3, 99480, Note_on_c, 1, 44, 109
3, 99480, Note_on_c, 1, 41, 105
3, 99540, Note_on_c, 1, 46, 96
3, 99541, Note_on_c, 1, 44, 0
3, 99542, Note_on_c, 1, 41, 0
3, 99595, Note_on_c, 1, 46, 0
3, 99600, Note_on_c, 1, 44, 113
3, 99600, Note_on_c, 1, 41, 109
3, 99653, Note_on_c, 1, 41, 0
3, 99660, Note_on_c, 1, 46, 100
3, 99661, Note_on_c, 1, 44, 0
3, 99714, Note_on_c, 1, 46, 0
3, 99720, Note_on_c, 1, 44, 92
3, 99720, Note_on_c, 1, 41, 96
3, 99775, Note_on_c, 1, 44, 0
3, 99779, Note_on_c, 1, 41, 0
3, 99780, Note_on_c, 1, 46, 96
3, 99840, Note_on_c, 1, 46, 0
3, 99840, Note_on_c, 1, 44, 105
3, 99840, Note_on_c, 1, 41, 92
3, 100076, Note_on_c, 1, 44, 0
3, 100077, Note_on_c, 1, 41, 0
3, 100200, Control_c, 1, 121, 0
3, 100200, End_track
4, 0, Start_track
4, 0, MIDI_port, 0
4, 0, End_track
5, 0, Start_track
5, 0, MIDI_port, 0
5, 0, Title_t, "Title: Ein St\374ck F\374r Orgelwerk In Einer Uhr (K. 594, 1790)"
5, 0, End_track
6, 0, Start_track
6, 0, MIDI_port, 0
6, 0, Title_t, "Composer: W. A. Mozart"
6, 0, End_track
7, 0, Start_track
7, 0, MIDI_port, 0
7, 0, Title_t, "Sequence: Faren Raborn, Copyright 1996"
7, 0, End_track
8, 0, Start_track
8, 0, MIDI_port, 0
8, 0, Title_t, "Email: raborn@dtx.net"
8, 0, End_track
0, 0, End_of_file