0, 0, Header, 1, 10, 120
1, 0, Start_track
1, 0, Time_signature, 3, 2, 24, 8
1, 0, Key_signature, -1, "major"
1, 0, Tempo, 1500000
1, 9593, Tempo, 1578947
1, 9651, Tempo, 1666667
1, 9717, Tempo, 1500000
1, 15204, Tempo, 1538462
1, 15246, Tempo, 1621622
1, 15272, Tempo, 1666667
1, 15308, Tempo, 1500000
1, 15884, Tempo, 1538462
1, 15920, Tempo, 1621622
1, 15956, Tempo, 1500000
1, 16254, Tempo, 1538462
1, 16310, Tempo, 1578947
1, 16362, Tempo, 1578947
1, 16438, Tempo, 1621622
1, 16558, Tempo, 1500000
1, 21104, Tempo, 1538462
1, 21136, Tempo, 1578947
1, 21170, Tempo, 1621622
1, 21172, Tempo, 1666667
1, 21238, Tempo, 1500000
1, 26844, Tempo, 1578947
1, 26894, Tempo, 1621622
1, 26944, Tempo, 1666667
1, 26998, Tempo, 1500000
1, 32590, Tempo, 1578947
1, 32650, Tempo, 1621622
1, 32700, Tempo, 1714286
1, 32804, Tempo, 1463415
1, 34560, Tempo, 1500000
1, 35122, Tempo, 1538462
1, 35186, Tempo, 1621622
1, 35234, Tempo, 1666667
1, 35280, Tempo, 1500000
1, 35522, Tempo, 1578947
1, 35558, Tempo, 1621622
1, 35620, Tempo, 1500000
1, 35860, Tempo, 1578947
1, 35920, Tempo, 1714286
1, 36002, Tempo, 1875000
1, 36040, Tempo, 2142857
1, 36040, End_track
2, 0, Start_track
2, 0, MIDI_port, 0
2, 0, Title_t, "Flauti"
2, 0, Program_c, 0, 73
2, 0, Control_c, 0, 7, 85
2, 0, Control_c, 0, 10, 80
2, 480, Note_on_c, 0, 82, 53
2, 520, Note_on_c, 0, 82, 0
2, 1200, Note_on_c, 0, 84, 53
2, 1240, Note_on_c, 0, 84, 0
2, 2880, Note_on_c, 0, 81, 55
2, 3029, Note_on_c, 0, 81, 0
2, 3030, Note_on_c, 0, 82, 55
2, 3045, Note_on_c, 0, 82, 0
2, 3045, Note_on_c, 0, 81, 55
2, 3060, Note_on_c, 0, 81, 0
2, 3060, Note_on_c, 0, 80, 55
2, 3075, Note_on_c, 0, 80, 0
2, 3075, Note_on_c, 0, 81, 55
2, 3090, Note_on_c, 0, 81, 0
2, 3090, Note_on_c, 0, 80, 55
2, 3105, Note_on_c, 0, 80, 0
2, 3105, Note_on_c, 0, 81, 55
2, 3120, Note_on_c, 0, 81, 0
2, 3120, Note_on_c, 0, 84, 55
2, 3150, Note_on_c, 0, 84, 0
2, 3150, Note_on_c, 0, 82, 55
2, 3180, Note_on_c, 0, 82, 0
2, 3180, Note_on_c, 0, 81, 55
2, 3210, Note_on_c, 0, 81, 0
2, 3210, Note_on_c, 0, 79, 55
2, 3240, Note_on_c, 0, 79, 0
2, 3240, Note_on_c, 0, 84, 55
2, 3285, Note_on_c, 0, 84, 0
2, 3285, Note_on_c, 0, 81, 55
2, 3299, Note_on_c, 0, 81, 0
2, 3300, Note_on_c, 0, 77, 55
2, 3419, Note_on_c, 0, 77, 0
2, 3420, Note_on_c, 0, 79, 55
2, 3449, Note_on_c, 0, 79, 0
2, 3450, Note_on_c, 0, 81, 55
2, 3475, Note_on_c, 0, 81, 0
2, 3480, Note_on_c, 0, 81, 55
2, 3510, Note_on_c, 0, 81, 0
2, 3510, Note_on_c, 0, 79, 55
2, 3540, Note_on_c, 0, 79, 0
2, 3540, Note_on_c, 0, 77, 55
2, 3570, Note_on_c, 0, 77, 0
2, 3570, Note_on_c, 0, 76, 55
2, 3600, Note_on_c, 0, 76, 0
2, 3600, Note_on_c, 0, 77, 55
2, 3720, Note_on_c, 0, 77, 0
2, 6480, Note_on_c, 0, 84, 55
2, 6840, Note_on_c, 0, 84, 0
2, 6840, Note_on_c, 0, 80, 51
2, 6960, Note_on_c, 0, 80, 0
2, 7200, Note_on_c, 0, 86, 55
2, 7560, Note_on_c, 0, 86, 0
2, 7560, Note_on_c, 0, 84, 55
2, 7680, Note_on_c, 0, 84, 0
2, 7740, Note_on_c, 0, 72, 55
2, 7800, Note_on_c, 0, 72, 0
2, 7800, Note_on_c, 0, 75, 55
2, 7860, Note_on_c, 0, 75, 0
2, 7860, Note_on_c, 0, 79, 55
2, 7920, Note_on_c, 0, 79, 0
2, 7920, Note_on_c, 0, 84, 68
2, 8160, Note_on_c, 0, 84, 0
2, 8160, Note_on_c, 0, 85, 68
2, 8280, Note_on_c, 0, 85, 0
2, 8280, Note_on_c, 0, 86, 57
2, 8400, Note_on_c, 0, 86, 0
2, 8400, Note_on_c, 0, 87, 68
2, 8520, Note_on_c, 0, 87, 0
2, 8520, Note_on_c, 0, 88, 57
2, 8760, Note_on_c, 0, 88, 0
2, 8760, Note_on_c, 0, 89, 57
2, 8880, Note_on_c, 0, 89, 0
2, 8880, Note_on_c, 0, 89, 68
2, 9000, Note_on_c, 0, 89, 0
2, 9000, Note_on_c, 0, 90, 57
2, 9120, Note_on_c, 0, 90, 0
2, 9120, Note_on_c, 0, 84, 57
2, 9240, Note_on_c, 0, 84, 0
2, 9240, Note_on_c, 0, 78, 57
2, 9360, Note_on_c, 0, 78, 0
2, 9360, Note_on_c, 0, 78, 53
2, 9480, Note_on_c, 0, 78, 0
2, 9480, Note_on_c, 0, 79, 53
2, 9540, Note_on_c, 0, 79, 0
2, 10260, Note_on_c, 0, 79, 39
2, 10317, Note_on_c, 0, 79, 0
2, 10320, Note_on_c, 0, 79, 39
2, 10378, Note_on_c, 0, 79, 0
2, 10380, Note_on_c, 0, 79, 39
2, 10438, Note_on_c, 0, 79, 0
2, 10440, Note_on_c, 0, 79, 39
2, 10920, Note_on_c, 0, 79, 0
2, 10980, Note_on_c, 0, 84, 39
2, 11039, Note_on_c, 0, 84, 0
2, 11040, Note_on_c, 0, 84, 39
2, 11099, Note_on_c, 0, 84, 0
2, 11100, Note_on_c, 0, 84, 39
2, 11159, Note_on_c, 0, 84, 0
2, 12380, Note_on_c, 0, 87, 50
2, 12400, Note_on_c, 0, 87, 0
2, 12400, Note_on_c, 0, 86, 50
2, 12413, Note_on_c, 0, 86, 0
2, 12420, Note_on_c, 0, 86, 50
2, 12437, Note_on_c, 0, 86, 0
2, 12440, Note_on_c, 0, 86, 50
2, 12457, Note_on_c, 0, 86, 0
2, 12460, Note_on_c, 0, 86, 50
2, 12477, Note_on_c, 0, 86, 0
2, 12480, Note_on_c, 0, 86, 50
2, 12539, Note_on_c, 0, 86, 0
2, 12540, Note_on_c, 0, 79, 50
2, 12599, Note_on_c, 0, 79, 0
2, 12620, Note_on_c, 0, 85, 50
2, 12640, Note_on_c, 0, 85, 0
2, 12640, Note_on_c, 0, 84, 50
2, 12653, Note_on_c, 0, 84, 0
2, 12660, Note_on_c, 0, 84, 50
2, 12677, Note_on_c, 0, 84, 0
2, 12680, Note_on_c, 0, 84, 50
2, 12697, Note_on_c, 0, 84, 0
2, 12700, Note_on_c, 0, 84, 50
2, 12717, Note_on_c, 0, 84, 0
2, 12720, Note_on_c, 0, 84, 50
2, 12779, Note_on_c, 0, 84, 0
2, 12780, Note_on_c, 0, 77, 50
2, 12839, Note_on_c, 0, 77, 0
2, 13201, Note_on_c, 0, 85, 54
2, 13260, Note_on_c, 0, 86, 56
2, 13261, Note_on_c, 0, 85, 0
2, 13320, Note_on_c, 0, 86, 0
2, 13320, Note_on_c, 0, 88, 65
2, 13374, Note_on_c, 0, 89, 56
2, 13380, Note_on_c, 0, 88, 0
2, 13434, Note_on_c, 0, 89, 0
2, 13435, Note_on_c, 0, 88, 56
2, 13495, Note_on_c, 0, 88, 0
2, 13499, Note_on_c, 0, 86, 56
2, 13555, Note_on_c, 0, 86, 0
2, 13560, Note_on_c, 0, 84, 56
2, 13616, Note_on_c, 0, 84, 0
2, 13619, Note_on_c, 0, 83, 56
2, 13675, Note_on_c, 0, 83, 0
2, 13680, Note_on_c, 0, 84, 56
2, 13800, Note_on_c, 0, 84, 0
2, 14100, Note_on_c, 0, 88, 52
2, 14160, Note_on_c, 0, 88, 0
2, 14160, Note_on_c, 0, 84, 52
2, 14220, Note_on_c, 0, 84, 0
2, 14220, Note_on_c, 0, 79, 52
2, 14300, Note_on_c, 0, 79, 0
2, 14300, Note_on_c, 0, 78, 52
2, 14320, Note_on_c, 0, 78, 0
2, 14320, Note_on_c, 0, 79, 52
2, 14340, Note_on_c, 0, 79, 0
2, 14340, Note_on_c, 0, 80, 52
2, 14360, Note_on_c, 0, 80, 0
2, 14360, Note_on_c, 0, 81, 52
2, 14380, Note_on_c, 0, 81, 0
2, 14380, Note_on_c, 0, 77, 52
2, 14400, Note_on_c, 0, 77, 0
2, 14400, Note_on_c, 0, 76, 52
2, 14460, Note_on_c, 0, 76, 0
2, 14820, Note_on_c, 0, 84, 52
2, 14880, Note_on_c, 0, 84, 0
2, 14880, Note_on_c, 0, 79, 52
2, 14940, Note_on_c, 0, 79, 0
2, 14940, Note_on_c, 0, 76, 52
2, 15020, Note_on_c, 0, 76, 0
2, 15020, Note_on_c, 0, 74, 52
2, 15040, Note_on_c, 0, 74, 0
2, 15040, Note_on_c, 0, 76, 52
2, 15060, Note_on_c, 0, 76, 0
2, 15060, Note_on_c, 0, 79, 52
2, 15080, Note_on_c, 0, 79, 0
2, 15080, Note_on_c, 0, 77, 52
2, 15100, Note_on_c, 0, 77, 0
2, 15100, Note_on_c, 0, 74, 52
2, 15117, Note_on_c, 0, 74, 0
2, 15120, Note_on_c, 0, 74, 51
2, 15239, Note_on_c, 0, 74, 0
2, 15240, Note_on_c, 0, 72, 49
2, 15299, Note_on_c, 0, 72, 0
2, 16380, Note_on_c, 0, 69, 53
2, 16440, Note_on_c, 0, 69, 0
2, 16440, Note_on_c, 0, 73, 55
2, 16500, Note_on_c, 0, 73, 0
2, 16500, Note_on_c, 0, 76, 56
2, 16560, Note_on_c, 0, 76, 0
2, 16560, Note_on_c, 0, 81, 68
2, 16920, Note_on_c, 0, 81, 0
2, 16920, Note_on_c, 0, 79, 54
2, 17040, Note_on_c, 0, 79, 0
2, 17100, Note_on_c, 0, 70, 53
2, 17160, Note_on_c, 0, 70, 0
2, 17160, Note_on_c, 0, 76, 53
2, 17220, Note_on_c, 0, 76, 0
2, 17220, Note_on_c, 0, 79, 53
2, 17280, Note_on_c, 0, 79, 0
2, 17280, Note_on_c, 0, 82, 68
2, 17640, Note_on_c, 0, 82, 0
2, 17640, Note_on_c, 0, 81, 54
2, 17760, Note_on_c, 0, 81, 0
2, 17820, Note_on_c, 0, 75, 53
2, 17880, Note_on_c, 0, 75, 0
2, 17880, Note_on_c, 0, 81, 53
2, 17940, Note_on_c, 0, 81, 0
2, 17940, Note_on_c, 0, 84, 53
2, 18000, Note_on_c, 0, 84, 0
2, 18000, Note_on_c, 0, 87, 68
2, 18360, Note_on_c, 0, 87, 0
2, 18360, Note_on_c, 0, 85, 68
2, 18477, Note_on_c, 0, 85, 0
2, 18480, Note_on_c, 0, 84, 68
2, 18600, Note_on_c, 0, 84, 0
2, 18600, Note_on_c, 0, 89, 68
2, 18840, Note_on_c, 0, 89, 0
2, 18840, Note_on_c, 0, 87, 68
2, 18957, Note_on_c, 0, 87, 0
2, 18960, Note_on_c, 0, 86, 68
2, 19080, Note_on_c, 0, 86, 0
2, 19080, Note_on_c, 0, 91, 68
2, 19320, Note_on_c, 0, 91, 0
2, 19320, Note_on_c, 0, 89, 68
2, 19560, Note_on_c, 0, 89, 0
2, 19560, Note_on_c, 0, 87, 68
2, 19680, Note_on_c, 0, 87, 0
2, 19680, Note_on_c, 0, 86, 68
2, 19800, Note_on_c, 0, 86, 0
2, 19800, Note_on_c, 0, 85, 68
2, 19860, Note_on_c, 0, 85, 0
2, 20520, Note_on_c, 0, 81, 55
2, 20540, Note_on_c, 0, 81, 0
2, 20540, Note_on_c, 0, 80, 55
2, 20560, Note_on_c, 0, 80, 0
2, 20560, Note_on_c, 0, 81, 55
2, 20580, Note_on_c, 0, 81, 0
2, 20580, Note_on_c, 0, 85, 55
2, 20600, Note_on_c, 0, 85, 0
2, 20600, Note_on_c, 0, 83, 55
2, 20620, Note_on_c, 0, 83, 0
2, 20620, Note_on_c, 0, 81, 55
2, 20636, Note_on_c, 0, 81, 0
2, 20640, Note_on_c, 0, 86, 55
2, 20660, Note_on_c, 0, 86, 0
2, 20660, Note_on_c, 0, 85, 55
2, 20680, Note_on_c, 0, 85, 0
2, 20680, Note_on_c, 0, 86, 55
2, 20700, Note_on_c, 0, 86, 0
2, 20700, Note_on_c, 0, 89, 55
2, 20720, Note_on_c, 0, 89, 0
2, 20720, Note_on_c, 0, 88, 55
2, 20740, Note_on_c, 0, 88, 0
2, 20740, Note_on_c, 0, 86, 55
2, 20760, Note_on_c, 0, 86, 0
2, 20760, Note_on_c, 0, 85, 55
2, 20880, Note_on_c, 0, 85, 0
2, 20880, Note_on_c, 0, 84, 55
2, 20900, Note_on_c, 0, 84, 0
2, 20900, Note_on_c, 0, 83, 55
2, 20920, Note_on_c, 0, 83, 0
2, 20920, Note_on_c, 0, 84, 55
2, 20940, Note_on_c, 0, 84, 0
2, 20940, Note_on_c, 0, 87, 55
2, 20960, Note_on_c, 0, 87, 0
2, 20960, Note_on_c, 0, 86, 55
2, 20980, Note_on_c, 0, 86, 0
2, 20980, Note_on_c, 0, 84, 55
2, 21000, Note_on_c, 0, 84, 0
2, 21000, Note_on_c, 0, 83, 55
2, 21120, Note_on_c, 0, 83, 0
2, 21120, Note_on_c, 0, 82, 55
2, 21140, Note_on_c, 0, 82, 0
2, 21140, Note_on_c, 0, 81, 55
2, 21160, Note_on_c, 0, 81, 0
2, 21160, Note_on_c, 0, 82, 55
2, 21180, Note_on_c, 0, 82, 0
2, 21180, Note_on_c, 0, 86, 55
2, 21200, Note_on_c, 0, 86, 0
2, 21200, Note_on_c, 0, 84, 55
2, 21220, Note_on_c, 0, 84, 0
2, 21220, Note_on_c, 0, 82, 55
2, 21240, Note_on_c, 0, 82, 0
2, 21240, Note_on_c, 0, 81, 55
2, 21300, Note_on_c, 0, 81, 0
2, 23820, Note_on_c, 0, 77, 61
2, 23865, Note_on_c, 0, 77, 0
2, 23865, Note_on_c, 0, 74, 61
2, 23880, Note_on_c, 0, 74, 0
2, 23880, Note_on_c, 0, 82, 61
2, 23922, Note_on_c, 0, 82, 0
2, 23940, Note_on_c, 0, 86, 61
2, 23982, Note_on_c, 0, 86, 0
2, 24060, Note_on_c, 0, 78, 61
2, 24105, Note_on_c, 0, 78, 0
2, 24105, Note_on_c, 0, 74, 61
2, 24120, Note_on_c, 0, 74, 0
2, 24120, Note_on_c, 0, 81, 61
2, 24162, Note_on_c, 0, 81, 0
2, 24180, Note_on_c, 0, 86, 61
2, 24222, Note_on_c, 0, 86, 0
2, 24300, Note_on_c, 0, 79, 61
2, 24345, Note_on_c, 0, 79, 0
2, 24345, Note_on_c, 0, 74, 61
2, 24360, Note_on_c, 0, 74, 0
2, 24360, Note_on_c, 0, 82, 61
2, 24402, Note_on_c, 0, 82, 0
2, 24420, Note_on_c, 0, 86, 61
2, 24462, Note_on_c, 0, 86, 0
2, 24540, Note_on_c, 0, 76, 61
2, 24585, Note_on_c, 0, 76, 0
2, 24585, Note_on_c, 0, 72, 61
2, 24600, Note_on_c, 0, 72, 0
2, 24600, Note_on_c, 0, 79, 61
2, 24642, Note_on_c, 0, 79, 0
2, 24660, Note_on_c, 0, 84, 61
2, 24702, Note_on_c, 0, 84, 0
2, 24780, Note_on_c, 0, 77, 61
2, 24825, Note_on_c, 0, 77, 0
2, 24825, Note_on_c, 0, 72, 61
2, 24840, Note_on_c, 0, 72, 0
2, 24840, Note_on_c, 0, 81, 61
2, 24882, Note_on_c, 0, 81, 0
2, 24900, Note_on_c, 0, 84, 53
2, 24942, Note_on_c, 0, 84, 0
2, 25020, Note_on_c, 0, 74, 53
2, 25065, Note_on_c, 0, 74, 0
2, 25065, Note_on_c, 0, 71, 53
2, 25080, Note_on_c, 0, 71, 0
2, 25080, Note_on_c, 0, 77, 53
2, 25122, Note_on_c, 0, 77, 0
2, 25140, Note_on_c, 0, 83, 53
2, 25182, Note_on_c, 0, 83, 0
2, 25200, Note_on_c, 0, 84, 68
2, 25252, Note_on_c, 0, 84, 0
2, 25260, Note_on_c, 0, 84, 68
2, 25305, Note_on_c, 0, 84, 0
2, 25305, Note_on_c, 0, 84, 68
2, 25320, Note_on_c, 0, 84, 0
2, 25320, Note_on_c, 0, 84, 68
2, 25376, Note_on_c, 0, 84, 0
2, 25380, Note_on_c, 0, 84, 68
2, 25436, Note_on_c, 0, 84, 0
2, 25440, Note_on_c, 0, 84, 68
2, 25496, Note_on_c, 0, 84, 0
2, 25500, Note_on_c, 0, 84, 68
2, 25556, Note_on_c, 0, 84, 0
2, 25560, Note_on_c, 0, 84, 68
2, 25612, Note_on_c, 0, 84, 0
2, 25620, Note_on_c, 0, 84, 68
2, 25665, Note_on_c, 0, 84, 0
2, 25665, Note_on_c, 0, 84, 68
2, 25680, Note_on_c, 0, 84, 0
2, 25680, Note_on_c, 0, 84, 68
2, 25736, Note_on_c, 0, 84, 0
2, 25740, Note_on_c, 0, 84, 68
2, 25796, Note_on_c, 0, 84, 0
2, 25800, Note_on_c, 0, 84, 68
2, 25856, Note_on_c, 0, 84, 0
2, 25860, Note_on_c, 0, 84, 68
2, 25916, Note_on_c, 0, 84, 0
2, 25920, Note_on_c, 0, 84, 63
2, 26100, Note_on_c, 0, 84, 0
2, 26100, Note_on_c, 0, 85, 53
2, 26160, Note_on_c, 0, 85, 0
2, 26160, Note_on_c, 0, 84, 53
2, 26220, Note_on_c, 0, 84, 0
2, 26220, Note_on_c, 0, 83, 53
2, 26280, Note_on_c, 0, 83, 0
2, 26280, Note_on_c, 0, 84, 63
2, 26460, Note_on_c, 0, 84, 0
2, 26460, Note_on_c, 0, 85, 53
2, 26520, Note_on_c, 0, 85, 0
2, 26520, Note_on_c, 0, 84, 53
2, 26580, Note_on_c, 0, 84, 0
2, 26580, Note_on_c, 0, 83, 53
2, 26640, Note_on_c, 0, 83, 0
2, 26640, Note_on_c, 0, 84, 53
2, 26780, Note_on_c, 0, 84, 0
2, 26780, Note_on_c, 0, 85, 53
2, 26800, Note_on_c, 0, 85, 0
2, 26800, Note_on_c, 0, 86, 53
2, 26820, Note_on_c, 0, 86, 0
2, 26820, Note_on_c, 0, 84, 53
2, 26836, Note_on_c, 0, 84, 0
2, 26840, Note_on_c, 0, 82, 53
2, 26856, Note_on_c, 0, 82, 0
2, 26860, Note_on_c, 0, 81, 53
2, 26876, Note_on_c, 0, 81, 0
2, 26880, Note_on_c, 0, 79, 53
2, 26896, Note_on_c, 0, 79, 0
2, 26900, Note_on_c, 0, 77, 53
2, 26916, Note_on_c, 0, 77, 0
2, 26920, Note_on_c, 0, 76, 53
2, 26936, Note_on_c, 0, 76, 0
2, 26940, Note_on_c, 0, 84, 53
2, 26960, Note_on_c, 0, 84, 0
2, 26960, Note_on_c, 0, 82, 53
2, 26980, Note_on_c, 0, 82, 0
2, 26980, Note_on_c, 0, 79, 53
2, 27000, Note_on_c, 0, 79, 0
2, 27000, Note_on_c, 0, 77, 41
2, 27120, Note_on_c, 0, 77, 0
2, 27120, Note_on_c, 0, 79, 41
2, 27240, Note_on_c, 0, 79, 0
2, 27240, Note_on_c, 0, 81, 41
2, 27360, Note_on_c, 0, 81, 0
2, 27360, Note_on_c, 0, 82, 41
2, 27480, Note_on_c, 0, 82, 0
2, 27480, Note_on_c, 0, 79, 41
2, 27540, Note_on_c, 0, 79, 0
2, 27720, Note_on_c, 0, 79, 41
2, 27840, Note_on_c, 0, 79, 0
2, 27840, Note_on_c, 0, 81, 41
2, 27960, Note_on_c, 0, 81, 0
2, 27960, Note_on_c, 0, 82, 41
2, 28080, Note_on_c, 0, 82, 0
2, 28080, Note_on_c, 0, 84, 41
2, 28200, Note_on_c, 0, 84, 0
2, 28200, Note_on_c, 0, 81, 41
2, 28260, Note_on_c, 0, 81, 0
2, 28260, Note_on_c, 0, 89, 51
2, 28318, Note_on_c, 0, 89, 0
2, 28320, Note_on_c, 0, 89, 51
2, 28378, Note_on_c, 0, 89, 0
2, 28380, Note_on_c, 0, 89, 51
2, 28438, Note_on_c, 0, 89, 0
2, 29280, Note_on_c, 0, 81, 51
2, 29400, Note_on_c, 0, 81, 0
2, 29400, Note_on_c, 0, 79, 51
2, 29520, Note_on_c, 0, 79, 0
2, 29520, Note_on_c, 0, 84, 51
2, 29640, Note_on_c, 0, 84, 0
2, 29640, Note_on_c, 0, 83, 51
2, 29760, Note_on_c, 0, 83, 0
2, 29760, Note_on_c, 0, 82, 51
2, 29880, Note_on_c, 0, 82, 0
2, 29880, Note_on_c, 0, 81, 51
2, 30000, Note_on_c, 0, 81, 0
2, 30000, Note_on_c, 0, 82, 51
2, 30180, Note_on_c, 0, 82, 0
2, 30180, Note_on_c, 0, 81, 51
2, 30240, Note_on_c, 0, 81, 0
2, 30240, Note_on_c, 0, 82, 51
2, 30300, Note_on_c, 0, 82, 0
2, 30300, Note_on_c, 0, 83, 51
2, 30360, Note_on_c, 0, 83, 0
2, 30360, Note_on_c, 0, 85, 53
2, 30420, Note_on_c, 0, 85, 0
2, 30420, Note_on_c, 0, 86, 54
2, 30480, Note_on_c, 0, 86, 0
2, 30660, Note_on_c, 0, 88, 59
2, 30720, Note_on_c, 0, 88, 0
2, 30720, Note_on_c, 0, 89, 61
2, 30780, Note_on_c, 0, 89, 0
2, 30780, Note_on_c, 0, 91, 62
2, 30836, Note_on_c, 0, 91, 0
2, 30840, Note_on_c, 0, 89, 63
2, 30896, Note_on_c, 0, 89, 0
2, 30900, Note_on_c, 0, 88, 64
2, 30956, Note_on_c, 0, 88, 0
2, 30960, Note_on_c, 0, 89, 51
2, 31080, Note_on_c, 0, 89, 0
2, 31380, Note_on_c, 0, 84, 51
2, 31440, Note_on_c, 0, 84, 0
2, 31440, Note_on_c, 0, 81, 51
2, 31500, Note_on_c, 0, 81, 0
2, 31500, Note_on_c, 0, 77, 51
2, 31580, Note_on_c, 0, 77, 0
2, 31580, Note_on_c, 0, 76, 51
2, 31600, Note_on_c, 0, 76, 0
2, 31600, Note_on_c, 0, 79, 51
2, 31620, Note_on_c, 0, 79, 0
2, 31620, Note_on_c, 0, 82, 51
2, 31640, Note_on_c, 0, 82, 0
2, 31640, Note_on_c, 0, 79, 51
2, 31660, Note_on_c, 0, 79, 0
2, 31660, Note_on_c, 0, 76, 51
2, 31680, Note_on_c, 0, 76, 0
2, 31680, Note_on_c, 0, 77, 51
2, 31740, Note_on_c, 0, 77, 0
2, 32100, Note_on_c, 0, 89, 51
2, 32160, Note_on_c, 0, 89, 0
2, 32160, Note_on_c, 0, 84, 51
2, 32220, Note_on_c, 0, 84, 0
2, 32220, Note_on_c, 0, 81, 51
2, 32300, Note_on_c, 0, 81, 0
2, 32300, Note_on_c, 0, 84, 51
2, 32317, Note_on_c, 0, 84, 0
2, 32320, Note_on_c, 0, 77, 51
2, 32337, Note_on_c, 0, 77, 0
2, 32340, Note_on_c, 0, 79, 51
2, 32357, Note_on_c, 0, 79, 0
2, 32360, Note_on_c, 0, 82, 51
2, 32377, Note_on_c, 0, 82, 0
2, 32380, Note_on_c, 0, 76, 51
2, 32397, Note_on_c, 0, 76, 0
2, 32400, Note_on_c, 0, 79, 51
2, 32520, Note_on_c, 0, 79, 0
2, 32520, Note_on_c, 0, 77, 51
2, 32580, Note_on_c, 0, 77, 0
2, 33255, Note_on_c, 0, 78, 45
2, 33270, Note_on_c, 0, 78, 0
2, 33270, Note_on_c, 0, 79, 45
2, 33285, Note_on_c, 0, 79, 0
2, 33285, Note_on_c, 0, 78, 45
2, 33300, Note_on_c, 0, 78, 0
2, 33300, Note_on_c, 0, 79, 44
2, 33315, Note_on_c, 0, 79, 0
2, 33315, Note_on_c, 0, 81, 44
2, 33330, Note_on_c, 0, 81, 0
2, 33330, Note_on_c, 0, 82, 43
2, 33345, Note_on_c, 0, 82, 0
2, 33345, Note_on_c, 0, 81, 43
2, 33360, Note_on_c, 0, 81, 0
2, 33360, Note_on_c, 0, 84, 42
2, 33375, Note_on_c, 0, 84, 0
2, 33375, Note_on_c, 0, 82, 41
2, 33390, Note_on_c, 0, 82, 0
2, 33390, Note_on_c, 0, 81, 41
2, 33405, Note_on_c, 0, 81, 0
2, 33405, Note_on_c, 0, 79, 40
2, 33420, Note_on_c, 0, 79, 0
2, 33420, Note_on_c, 0, 81, 40
2, 33435, Note_on_c, 0, 81, 0
2, 33435, Note_on_c, 0, 79, 39
2, 33450, Note_on_c, 0, 79, 0
2, 33450, Note_on_c, 0, 77, 39
2, 33465, Note_on_c, 0, 77, 0
2, 33465, Note_on_c, 0, 76, 39
2, 33480, Note_on_c, 0, 76, 0
2, 33615, Note_on_c, 0, 80, 51
2, 33630, Note_on_c, 0, 80, 0
2, 33630, Note_on_c, 0, 81, 51
2, 33645, Note_on_c, 0, 81, 0
2, 33645, Note_on_c, 0, 80, 51
2, 33660, Note_on_c, 0, 80, 0
2, 33660, Note_on_c, 0, 81, 51
2, 33675, Note_on_c, 0, 81, 0
2, 33675, Note_on_c, 0, 83, 51
2, 33690, Note_on_c, 0, 83, 0
2, 33690, Note_on_c, 0, 84, 51
2, 33705, Note_on_c, 0, 84, 0
2, 33705, Note_on_c, 0, 83, 51
2, 33720, Note_on_c, 0, 83, 0
2, 33720, Note_on_c, 0, 86, 51
2, 33735, Note_on_c, 0, 86, 0
2, 33735, Note_on_c, 0, 84, 51
2, 33750, Note_on_c, 0, 84, 0
2, 33750, Note_on_c, 0, 82, 51
2, 33765, Note_on_c, 0, 82, 0
2, 33765, Note_on_c, 0, 81, 51
2, 33780, Note_on_c, 0, 81, 0
2, 33780, Note_on_c, 0, 82, 51
2, 33795, Note_on_c, 0, 82, 0
2, 33795, Note_on_c, 0, 81, 51
2, 33810, Note_on_c, 0, 81, 0
2, 33810, Note_on_c, 0, 79, 51
2, 33825, Note_on_c, 0, 79, 0
2, 33825, Note_on_c, 0, 77, 51
2, 33840, Note_on_c, 0, 77, 0
2, 34560, Note_on_c, 0, 81, 43
2, 34710, Note_on_c, 0, 81, 0
2, 34710, Note_on_c, 0, 82, 43
2, 34725, Note_on_c, 0, 82, 0
2, 34725, Note_on_c, 0, 81, 43
2, 34740, Note_on_c, 0, 81, 0
2, 34740, Note_on_c, 0, 80, 43
2, 34755, Note_on_c, 0, 80, 0
2, 34755, Note_on_c, 0, 81, 43
2, 34770, Note_on_c, 0, 81, 0
2, 34770, Note_on_c, 0, 80, 43
2, 34785, Note_on_c, 0, 80, 0
2, 34785, Note_on_c, 0, 81, 43
2, 34800, Note_on_c, 0, 81, 0
2, 34800, Note_on_c, 0, 84, 43
2, 34830, Note_on_c, 0, 84, 0
2, 34830, Note_on_c, 0, 82, 43
2, 34860, Note_on_c, 0, 82, 0
2, 34860, Note_on_c, 0, 81, 43
2, 34890, Note_on_c, 0, 81, 0
2, 34890, Note_on_c, 0, 79, 43
2, 34920, Note_on_c, 0, 79, 0
2, 34920, Note_on_c, 0, 84, 43
2, 34965, Note_on_c, 0, 84, 0
2, 34965, Note_on_c, 0, 81, 43
2, 34980, Note_on_c, 0, 81, 0
2, 34982, Note_on_c, 0, 77, 42
2, 35100, Note_on_c, 0, 79, 39
2, 35102, Note_on_c, 0, 77, 0
2, 35130, Note_on_c, 0, 79, 0
2, 35130, Note_on_c, 0, 81, 39
2, 35160, Note_on_c, 0, 81, 0
2, 35160, Note_on_c, 0, 81, 38
2, 35190, Note_on_c, 0, 81, 0
2, 35190, Note_on_c, 0, 79, 38
2, 35220, Note_on_c, 0, 79, 0
2, 35220, Note_on_c, 0, 77, 38
2, 35250, Note_on_c, 0, 77, 0
2, 35250, Note_on_c, 0, 76, 38
2, 35280, Note_on_c, 0, 76, 0
2, 35280, Note_on_c, 0, 77, 36
2, 35340, Note_on_c, 0, 77, 0
2, 35900, Note_on_c, 0, 79, 51
2, 35920, Note_on_c, 0, 79, 0
2, 35920, Note_on_c, 0, 82, 51
2, 35940, Note_on_c, 0, 82, 0
2, 35940, Note_on_c, 0, 86, 51
2, 35960, Note_on_c, 0, 86, 0
2, 35960, Note_on_c, 0, 84, 51
2, 35980, Note_on_c, 0, 84, 0
2, 35980, Note_on_c, 0, 76, 50
2, 36000, Note_on_c, 0, 76, 0
2, 36000, Note_on_c, 0, 79, 48
2, 36120, Note_on_c, 0, 79, 0
2, 36120, Note_on_c, 0, 77, 48
2, 36180, Note_on_c, 0, 77, 0
2, 36180, End_track
3, 0, Start_track
3, 0, MIDI_port, 0
3, 0, Title_t, "Oboi"
3, 0, Program_c, 1, 68
3, 0, Control_c, 1, 7, 85
3, 0, Control_c, 1, 10, 40
3, 480, Note_on_c, 1, 79, 53
3, 480, Note_on_c, 1, 76, 53
3, 520, Note_on_c, 1, 76, 0
3, 520, Note_on_c, 1, 79, 0
3, 1200, Note_on_c, 1, 77, 53
3, 1200, Note_on_c, 1, 72, 53
3, 1240, Note_on_c, 1, 72, 0
3, 1240, Note_on_c, 1, 77, 0
3, 2160, Note_on_c, 1, 74, 65
3, 2294, Note_on_c, 1, 74, 0
3, 2295, Note_on_c, 1, 76, 65
3, 2310, Note_on_c, 1, 76, 0
3, 2310, Note_on_c, 1, 74, 64
3, 2325, Note_on_c, 1, 74, 0
3, 2325, Note_on_c, 1, 73, 64
3, 2340, Note_on_c, 1, 73, 0
3, 2340, Note_on_c, 1, 74, 64
3, 2370, Note_on_c, 1, 74, 0
3, 2370, Note_on_c, 1, 76, 64
3, 2400, Note_on_c, 1, 76, 0
3, 2400, Note_on_c, 1, 79, 64
3, 2430, Note_on_c, 1, 79, 0
3, 2430, Note_on_c, 1, 77, 64
3, 2460, Note_on_c, 1, 77, 0
3, 2460, Note_on_c, 1, 76, 63
3, 2490, Note_on_c, 1, 76, 0
3, 2490, Note_on_c, 1, 74, 63
3, 2520, Note_on_c, 1, 74, 0
3, 2520, Note_on_c, 1, 74, 63
3, 2610, Note_on_c, 1, 74, 0
3, 2610, Note_on_c, 1, 72, 63
3, 2640, Note_on_c, 1, 72, 0
3, 2640, Note_on_c, 1, 72, 63
3, 2790, Note_on_c, 1, 72, 0
3, 2790, Note_on_c, 1, 73, 62
3, 2820, Note_on_c, 1, 73, 0
3, 2820, Note_on_c, 1, 74, 62
3, 2850, Note_on_c, 1, 74, 0
3, 2850, Note_on_c, 1, 70, 62
3, 2880, Note_on_c, 1, 70, 0
3, 2880, Note_on_c, 1, 69, 56
3, 2940, Note_on_c, 1, 69, 0
3, 6300, Note_on_c, 1, 67, 55
3, 6360, Note_on_c, 1, 67, 0
3, 6360, Note_on_c, 1, 72, 55
3, 6420, Note_on_c, 1, 72, 0
3, 6420, Note_on_c, 1, 75, 55
3, 6480, Note_on_c, 1, 75, 0
3, 6480, Note_on_c, 1, 75, 53
3, 6480, Note_on_c, 1, 79, 55
3, 6840, Note_on_c, 1, 79, 0
3, 6840, Note_on_c, 1, 75, 0
3, 6840, Note_on_c, 1, 74, 51
3, 6840, Note_on_c, 1, 77, 51
3, 6960, Note_on_c, 1, 77, 0
3, 6960, Note_on_c, 1, 74, 0
3, 7020, Note_on_c, 1, 68, 55
3, 7080, Note_on_c, 1, 68, 0
3, 7080, Note_on_c, 1, 74, 55
3, 7140, Note_on_c, 1, 74, 0
3, 7140, Note_on_c, 1, 77, 55
3, 7200, Note_on_c, 1, 77, 0
3, 7200, Note_on_c, 1, 80, 55
3, 7200, Note_on_c, 1, 77, 55
3, 7560, Note_on_c, 1, 77, 0
3, 7560, Note_on_c, 1, 80, 0
3, 7560, Note_on_c, 1, 75, 55
3, 7560, Note_on_c, 1, 79, 55
3, 7680, Note_on_c, 1, 79, 0
3, 7680, Note_on_c, 1, 75, 0
3, 7740, Note_on_c, 1, 63, 55
3, 7740, Note_on_c, 1, 67, 55
3, 7800, Note_on_c, 1, 67, 0
3, 7800, Note_on_c, 1, 63, 0
3, 7800, Note_on_c, 1, 67, 55
3, 7800, Note_on_c, 1, 72, 55
3, 7860, Note_on_c, 1, 72, 0
3, 7860, Note_on_c, 1, 67, 0
3, 7860, Note_on_c, 1, 72, 55
3, 7860, Note_on_c, 1, 75, 55
3, 7920, Note_on_c, 1, 75, 0
3, 7920, Note_on_c, 1, 72, 0
3, 7920, Note_on_c, 1, 75, 68
3, 7920, Note_on_c, 1, 79, 68
3, 8040, Note_on_c, 1, 79, 0
3, 8040, Note_on_c, 1, 75, 0
3, 8040, Note_on_c, 1, 72, 56
3, 8040, Note_on_c, 1, 84, 56
3, 8160, Note_on_c, 1, 84, 0
3, 8160, Note_on_c, 1, 72, 0
3, 8160, Note_on_c, 1, 73, 68
3, 8160, Note_on_c, 1, 84, 68
3, 8280, Note_on_c, 1, 73, 0
3, 8280, Note_on_c, 1, 74, 56
3, 8400, Note_on_c, 1, 74, 0
3, 8400, Note_on_c, 1, 84, 0
3, 8400, Note_on_c, 1, 84, 68
3, 8400, Note_on_c, 1, 75, 56
3, 8520, Note_on_c, 1, 75, 0
3, 8520, Note_on_c, 1, 76, 56
3, 8640, Note_on_c, 1, 84, 0
3, 8640, Note_on_c, 1, 84, 68
3, 8760, Note_on_c, 1, 76, 0
3, 8760, Note_on_c, 1, 77, 56
3, 8880, Note_on_c, 1, 77, 0
3, 8880, Note_on_c, 1, 84, 0
3, 8880, Note_on_c, 1, 84, 65
3, 8880, Note_on_c, 1, 77, 68
3, 9000, Note_on_c, 1, 77, 0
3, 9000, Note_on_c, 1, 78, 56
3, 9120, Note_on_c, 1, 78, 0
3, 9120, Note_on_c, 1, 84, 0
3, 9120, Note_on_c, 1, 78, 53
3, 9240, Note_on_c, 1, 78, 0
3, 9240, Note_on_c, 1, 72, 53
3, 9360, Note_on_c, 1, 72, 0
3, 9360, Note_on_c, 1, 75, 53
3, 9480, Note_on_c, 1, 75, 0
3, 9480, Note_on_c, 1, 74, 51
3, 9540, Note_on_c, 1, 74, 0
3, 9570, Note_on_c, 1, 79, 55
3, 9600, Note_on_c, 1, 79, 0
3, 9600, Note_on_c, 1, 78, 60
3, 9614, Note_on_c, 1, 78, 0
3, 9615, Note_on_c, 1, 79, 59
3, 9629, Note_on_c, 1, 79, 0
3, 9630, Note_on_c, 1, 81, 56
3, 9644, Note_on_c, 1, 81, 0
3, 9645, Note_on_c, 1, 79, 55
3, 9659, Note_on_c, 1, 79, 0
3, 9660, Note_on_c, 1, 77, 55
3, 9674, Note_on_c, 1, 77, 0
3, 9675, Note_on_c, 1, 76, 55
3, 9689, Note_on_c, 1, 76, 0
3, 9690, Note_on_c, 1, 77, 54
3, 9704, Note_on_c, 1, 77, 0
3, 9705, Note_on_c, 1, 74, 54
3, 9719, Note_on_c, 1, 74, 0
3, 9720, Note_on_c, 1, 67, 37
3, 9720, Note_on_c, 1, 72, 38
3, 9840, Note_on_c, 1, 72, 0
3, 9840, Note_on_c, 1, 67, 0
3, 9840, Note_on_c, 1, 71, 37
3, 9840, Note_on_c, 1, 74, 38
3, 9960, Note_on_c, 1, 74, 0
3, 9960, Note_on_c, 1, 71, 0
3, 9960, Note_on_c, 1, 72, 36
3, 9960, Note_on_c, 1, 76, 38
3, 10080, Note_on_c, 1, 76, 0
3, 10080, Note_on_c, 1, 72, 0
3, 10080, Note_on_c, 1, 74, 36
3, 10080, Note_on_c, 1, 77, 38
3, 10200, Note_on_c, 1, 77, 0
3, 10200, Note_on_c, 1, 74, 0
3, 10200, Note_on_c, 1, 71, 36
3, 10200, Note_on_c, 1, 74, 38
3, 10260, Note_on_c, 1, 74, 0
3, 10260, Note_on_c, 1, 71, 0
3, 10440, Note_on_c, 1, 71, 36
3, 10440, Note_on_c, 1, 74, 38
3, 10560, Note_on_c, 1, 74, 0
3, 10560, Note_on_c, 1, 71, 0
3, 10560, Note_on_c, 1, 72, 36
3, 10560, Note_on_c, 1, 76, 38
3, 10680, Note_on_c, 1, 76, 0
3, 10680, Note_on_c, 1, 72, 0
3, 10680, Note_on_c, 1, 74, 36
3, 10680, Note_on_c, 1, 77, 38
3, 10800, Note_on_c, 1, 77, 0
3, 10800, Note_on_c, 1, 74, 0
3, 10800, Note_on_c, 1, 76, 36
3, 10800, Note_on_c, 1, 79, 38
3, 10920, Note_on_c, 1, 79, 0
3, 10920, Note_on_c, 1, 76, 0
3, 10920, Note_on_c, 1, 72, 36
3, 10920, Note_on_c, 1, 76, 38
3, 10980, Note_on_c, 1, 76, 0
3, 10980, Note_on_c, 1, 72, 0
3, 10980, Note_on_c, 1, 72, 52
3, 10980, Note_on_c, 1, 76, 52
3, 11039, Note_on_c, 1, 76, 0
3, 11039, Note_on_c, 1, 72, 0
3, 11040, Note_on_c, 1, 76, 52
3, 11040, Note_on_c, 1, 72, 52
3, 11099, Note_on_c, 1, 72, 0
3, 11099, Note_on_c, 1, 76, 0
3, 11100, Note_on_c, 1, 72, 52
3, 11100, Note_on_c, 1, 76, 52
3, 11159, Note_on_c, 1, 76, 0
3, 11159, Note_on_c, 1, 72, 0
3, 12000, Note_on_c, 1, 72, 50
3, 12000, Note_on_c, 1, 76, 50
3, 12120, Note_on_c, 1, 76, 0
3, 12120, Note_on_c, 1, 72, 0
3, 12120, Note_on_c, 1, 71, 50
3, 12120, Note_on_c, 1, 74, 50
3, 12240, Note_on_c, 1, 74, 0
3, 12240, Note_on_c, 1, 71, 0
3, 12240, Note_on_c, 1, 73, 50
3, 12240, Note_on_c, 1, 79, 50
3, 12360, Note_on_c, 1, 79, 0
3, 12360, Note_on_c, 1, 73, 0
3, 12360, Note_on_c, 1, 72, 50
3, 12360, Note_on_c, 1, 78, 50
3, 12480, Note_on_c, 1, 78, 0
3, 12480, Note_on_c, 1, 72, 0
3, 12480, Note_on_c, 1, 71, 50
3, 12480, Note_on_c, 1, 77, 50
3, 12600, Note_on_c, 1, 77, 0
3, 12600, Note_on_c, 1, 71, 0
3, 12600, Note_on_c, 1, 70, 50
3, 12600, Note_on_c, 1, 76, 50
3, 12718, Note_on_c, 1, 77, 50
3, 12719, Note_on_c, 1, 69, 50
3, 12720, Note_on_c, 1, 76, 0
3, 12720, Note_on_c, 1, 70, 0
3, 12778, Note_on_c, 1, 77, 0
3, 12778, Note_on_c, 1, 74, 50
3, 12839, Note_on_c, 1, 69, 0
3, 12841, Note_on_c, 1, 69, 50
3, 12898, Note_on_c, 1, 74, 0
3, 12900, Note_on_c, 1, 72, 50
3, 12901, Note_on_c, 1, 69, 0
3, 12901, Note_on_c, 1, 72, 50
3, 12960, Note_on_c, 1, 77, 50
3, 12961, Note_on_c, 1, 72, 0
3, 13018, Note_on_c, 1, 71, 51
3, 13020, Note_on_c, 1, 77, 0
3, 13020, Note_on_c, 1, 72, 0
3, 13021, Note_on_c, 1, 78, 51
3, 13079, Note_on_c, 1, 80, 51
3, 13080, Note_on_c, 1, 69, 51
3, 13081, Note_on_c, 1, 78, 0
3, 13136, Note_on_c, 1, 81, 53
3, 13138, Note_on_c, 1, 71, 0
3, 13139, Note_on_c, 1, 80, 0
3, 13140, Note_on_c, 1, 67, 53
3, 13196, Note_on_c, 1, 81, 0
3, 13200, Note_on_c, 1, 69, 0
3, 13201, Note_on_c, 1, 73, 54
3, 13259, Note_on_c, 1, 74, 56
3, 13260, Note_on_c, 1, 67, 0
3, 13260, Note_on_c, 1, 67, 56
3, 13261, Note_on_c, 1, 73, 0
3, 13319, Note_on_c, 1, 74, 0
3, 13320, Note_on_c, 1, 76, 65
3, 13378, Note_on_c, 1, 81, 56
3, 13379, Note_on_c, 1, 77, 56
3, 13380, Note_on_c, 1, 76, 0
3, 13380, Note_on_c, 1, 67, 0
3, 13437, Note_on_c, 1, 79, 56
3, 13438, Note_on_c, 1, 81, 0
3, 13439, Note_on_c, 1, 77, 0
3, 13439, Note_on_c, 1, 76, 56
3, 13497, Note_on_c, 1, 79, 0
3, 13499, Note_on_c, 1, 76, 0
3, 13500, Note_on_c, 1, 77, 56
3, 13501, Note_on_c, 1, 74, 56
3, 13556, Note_on_c, 1, 77, 0
3, 13557, Note_on_c, 1, 74, 0
3, 13558, Note_on_c, 1, 76, 56
3, 13561, Note_on_c, 1, 72, 56
3, 13614, Note_on_c, 1, 76, 0
3, 13617, Note_on_c, 1, 72, 0
3, 13620, Note_on_c, 1, 71, 56
3, 13621, Note_on_c, 1, 74, 56
3, 13676, Note_on_c, 1, 71, 0
3, 13677, Note_on_c, 1, 74, 0
3, 13680, Note_on_c, 1, 72, 56
3, 13687, Note_on_c, 1, 72, 56
3, 13800, Note_on_c, 1, 72, 0
3, 13807, Note_on_c, 1, 72, 0
3, 14100, Note_on_c, 1, 84, 52
3, 14160, Note_on_c, 1, 84, 0
3, 14160, Note_on_c, 1, 79, 52
3, 14220, Note_on_c, 1, 79, 0
3, 14220, Note_on_c, 1, 76, 52
3, 14280, Note_on_c, 1, 76, 0
3, 14280, Note_on_c, 1, 74, 52
3, 14400, Note_on_c, 1, 74, 0
3, 14400, Note_on_c, 1, 72, 52
3, 14460, Note_on_c, 1, 72, 0
3, 14820, Note_on_c, 1, 79, 52
3, 14880, Note_on_c, 1, 79, 0
3, 14880, Note_on_c, 1, 76, 52
3, 14940, Note_on_c, 1, 76, 0
3, 14940, Note_on_c, 1, 72, 52
3, 15000, Note_on_c, 1, 72, 0
3, 15000, Note_on_c, 1, 72, 52
3, 15020, Note_on_c, 1, 72, 0
3, 15020, Note_on_c, 1, 71, 52
3, 15040, Note_on_c, 1, 71, 0
3, 15040, Note_on_c, 1, 72, 52
3, 15060, Note_on_c, 1, 72, 0
3, 15060, Note_on_c, 1, 76, 52
3, 15080, Note_on_c, 1, 76, 0
3, 15080, Note_on_c, 1, 74, 52
3, 15100, Note_on_c, 1, 74, 0
3, 15100, Note_on_c, 1, 71, 52
3, 15120, Note_on_c, 1, 71, 0
3, 15120, Note_on_c, 1, 71, 51
3, 15240, Note_on_c, 1, 71, 0
3, 15240, Note_on_c, 1, 72, 49
3, 15300, Note_on_c, 1, 72, 0
3, 16380, Note_on_c, 1, 67, 52
3, 16380, Note_on_c, 1, 69, 55
3, 16440, Note_on_c, 1, 69, 0
3, 16440, Note_on_c, 1, 67, 0
3, 16440, Note_on_c, 1, 67, 52
3, 16440, Note_on_c, 1, 73, 55
3, 16500, Note_on_c, 1, 73, 0
3, 16500, Note_on_c, 1, 67, 0
3, 16500, Note_on_c, 1, 67, 52
3, 16500, Note_on_c, 1, 76, 55
3, 16560, Note_on_c, 1, 76, 0
3, 16560, Note_on_c, 1, 67, 0
3, 16560, Note_on_c, 1, 74, 68
3, 16560, Note_on_c, 1, 77, 68
3, 16920, Note_on_c, 1, 77, 0
3, 16920, Note_on_c, 1, 74, 0
3, 16920, Note_on_c, 1, 70, 54
3, 16920, Note_on_c, 1, 76, 54
3, 17040, Note_on_c, 1, 76, 0
3, 17040, Note_on_c, 1, 70, 0
3, 17100, Note_on_c, 1, 64, 53
3, 17100, Note_on_c, 1, 67, 53
3, 17160, Note_on_c, 1, 67, 0
3, 17160, Note_on_c, 1, 64, 0
3, 17160, Note_on_c, 1, 67, 53
3, 17160, Note_on_c, 1, 70, 53
3, 17220, Note_on_c, 1, 70, 0
3, 17220, Note_on_c, 1, 67, 0
3, 17220, Note_on_c, 1, 70, 53
3, 17220, Note_on_c, 1, 76, 53
3, 17280, Note_on_c, 1, 76, 0
3, 17280, Note_on_c, 1, 70, 0
3, 17280, Note_on_c, 1, 76, 68
3, 17280, Note_on_c, 1, 79, 68
3, 17640, Note_on_c, 1, 79, 0
3, 17640, Note_on_c, 1, 76, 0
3, 17640, Note_on_c, 1, 75, 54
3, 17640, Note_on_c, 1, 78, 54
3, 17760, Note_on_c, 1, 78, 0
3, 17760, Note_on_c, 1, 75, 0
3, 17820, Note_on_c, 1, 69, 53
3, 17820, Note_on_c, 1, 72, 53
3, 17880, Note_on_c, 1, 72, 0
3, 17880, Note_on_c, 1, 69, 0
3, 17880, Note_on_c, 1, 72, 53
3, 17880, Note_on_c, 1, 75, 53
3, 17940, Note_on_c, 1, 75, 0
3, 17940, Note_on_c, 1, 72, 0
3, 17940, Note_on_c, 1, 76, 53
3, 17940, Note_on_c, 1, 81, 53
3, 18000, Note_on_c, 1, 81, 0
3, 18000, Note_on_c, 1, 76, 0
3, 18000, Note_on_c, 1, 78, 68
3, 18000, Note_on_c, 1, 82, 68
3, 18117, Note_on_c, 1, 82, 0
3, 18117, Note_on_c, 1, 78, 0
3, 18120, Note_on_c, 1, 78, 68
3, 18120, Note_on_c, 1, 75, 68
3, 18240, Note_on_c, 1, 78, 0
3, 18240, Note_on_c, 1, 77, 68
3, 18360, Note_on_c, 1, 77, 0
3, 18360, Note_on_c, 1, 75, 0
3, 18360, Note_on_c, 1, 82, 68
3, 18360, Note_on_c, 1, 73, 68
3, 18477, Note_on_c, 1, 73, 0
3, 18480, Note_on_c, 1, 72, 68
3, 18597, Note_on_c, 1, 72, 0
3, 18600, Note_on_c, 1, 82, 0
3, 18600, Note_on_c, 1, 77, 68
3, 18600, Note_on_c, 1, 80, 68
3, 18720, Note_on_c, 1, 80, 0
3, 18720, Note_on_c, 1, 79, 68
3, 18840, Note_on_c, 1, 79, 0
3, 18840, Note_on_c, 1, 77, 0
3, 18840, Note_on_c, 1, 75, 68
3, 18840, Note_on_c, 1, 84, 68
3, 18957, Note_on_c, 1, 75, 0
3, 18960, Note_on_c, 1, 74, 68
3, 19080, Note_on_c, 1, 74, 0
3, 19080, Note_on_c, 1, 84, 0
3, 19080, Note_on_c, 1, 79, 68
3, 19080, Note_on_c, 1, 82, 68
3, 19200, Note_on_c, 1, 82, 0
3, 19200, Note_on_c, 1, 81, 68
3, 19320, Note_on_c, 1, 79, 0
3, 19320, Note_on_c, 1, 77, 68
3, 19560, Note_on_c, 1, 77, 0
3, 19560, Note_on_c, 1, 81, 0
3, 19560, Note_on_c, 1, 75, 68
3, 19560, Note_on_c, 1, 79, 68
3, 19680, Note_on_c, 1, 79, 0
3, 19680, Note_on_c, 1, 75, 0
3, 19680, Note_on_c, 1, 74, 68
3, 19680, Note_on_c, 1, 77, 68
3, 19800, Note_on_c, 1, 77, 0
3, 19800, Note_on_c, 1, 74, 0
3, 19800, Note_on_c, 1, 73, 68
3, 19800, Note_on_c, 1, 76, 68
3, 19860, Note_on_c, 1, 76, 0
3, 19860, Note_on_c, 1, 73, 0
3, 20280, Note_on_c, 1, 69, 55
3, 20300, Note_on_c, 1, 69, 0
3, 20300, Note_on_c, 1, 68, 54
3, 20320, Note_on_c, 1, 68, 0
3, 20320, Note_on_c, 1, 69, 55
3, 20340, Note_on_c, 1, 69, 0
3, 20340, Note_on_c, 1, 73, 56
3, 20360, Note_on_c, 1, 73, 0
3, 20360, Note_on_c, 1, 71, 55
3, 20380, Note_on_c, 1, 71, 0
3, 20380, Note_on_c, 1, 69, 53
3, 20400, Note_on_c, 1, 69, 0
3, 20640, Note_on_c, 1, 80, 55
3, 20760, Note_on_c, 1, 80, 0
3, 20760, Note_on_c, 1, 79, 55
3, 20780, Note_on_c, 1, 79, 0
3, 20780, Note_on_c, 1, 78, 55
3, 20800, Note_on_c, 1, 78, 0
3, 20800, Note_on_c, 1, 79, 55
3, 20820, Note_on_c, 1, 79, 0
3, 20820, Note_on_c, 1, 82, 55
3, 20840, Note_on_c, 1, 82, 0
3, 20840, Note_on_c, 1, 81, 55
3, 20860, Note_on_c, 1, 81, 0
3, 20860, Note_on_c, 1, 79, 55
3, 20880, Note_on_c, 1, 79, 0
3, 20880, Note_on_c, 1, 78, 55
3, 21000, Note_on_c, 1, 78, 0
3, 21000, Note_on_c, 1, 77, 55
3, 21020, Note_on_c, 1, 77, 0
3, 21020, Note_on_c, 1, 76, 55
3, 21040, Note_on_c, 1, 76, 0
3, 21040, Note_on_c, 1, 77, 55
3, 21060, Note_on_c, 1, 77, 0
3, 21060, Note_on_c, 1, 80, 55
3, 21080, Note_on_c, 1, 80, 0
3, 21080, Note_on_c, 1, 79, 55
3, 21100, Note_on_c, 1, 79, 0
3, 21100, Note_on_c, 1, 77, 55
3, 21120, Note_on_c, 1, 77, 0
3, 21120, Note_on_c, 1, 70, 55
3, 21120, Note_on_c, 1, 76, 55
3, 21240, Note_on_c, 1, 76, 0
3, 21240, Note_on_c, 1, 70, 0
3, 21240, Note_on_c, 1, 69, 55
3, 21240, Note_on_c, 1, 77, 55
3, 21300, Note_on_c, 1, 77, 0
3, 21300, Note_on_c, 1, 69, 0
3, 23820, Note_on_c, 1, 70, 61
3, 23820, Note_on_c, 1, 74, 61
3, 23865, Note_on_c, 1, 74, 0
3, 23865, Note_on_c, 1, 70, 0
3, 23865, Note_on_c, 1, 65, 61
3, 23865, Note_on_c, 1, 70, 61
3, 23880, Note_on_c, 1, 70, 0
3, 23880, Note_on_c, 1, 65, 0
3, 23880, Note_on_c, 1, 74, 61
3, 23880, Note_on_c, 1, 77, 61
3, 23922, Note_on_c, 1, 77, 0
3, 23922, Note_on_c, 1, 74, 0
3, 23940, Note_on_c, 1, 79, 61
3, 23940, Note_on_c, 1, 82, 61
3, 23982, Note_on_c, 1, 82, 0
3, 23982, Note_on_c, 1, 79, 0
3, 24060, Note_on_c, 1, 69, 61
3, 24060, Note_on_c, 1, 74, 61
3, 24105, Note_on_c, 1, 74, 0
3, 24105, Note_on_c, 1, 69, 0
3, 24105, Note_on_c, 1, 66, 61
3, 24105, Note_on_c, 1, 69, 61
3, 24120, Note_on_c, 1, 69, 0
3, 24120, Note_on_c, 1, 66, 0
3, 24120, Note_on_c, 1, 78, 61
3, 24120, Note_on_c, 1, 74, 61
3, 24162, Note_on_c, 1, 74, 0
3, 24162, Note_on_c, 1, 78, 0
3, 24180, Note_on_c, 1, 81, 61
3, 24180, Note_on_c, 1, 78, 61
3, 24222, Note_on_c, 1, 78, 0
3, 24222, Note_on_c, 1, 81, 0
3, 24300, Note_on_c, 1, 70, 61
3, 24300, Note_on_c, 1, 74, 61
3, 24345, Note_on_c, 1, 74, 0
3, 24345, Note_on_c, 1, 70, 0
3, 24345, Note_on_c, 1, 67, 61
3, 24345, Note_on_c, 1, 70, 61
3, 24360, Note_on_c, 1, 70, 0
3, 24360, Note_on_c, 1, 67, 0
3, 24360, Note_on_c, 1, 74, 61
3, 24360, Note_on_c, 1, 79, 61
3, 24402, Note_on_c, 1, 79, 0
3, 24402, Note_on_c, 1, 74, 0
3, 24420, Note_on_c, 1, 82, 61
3, 24420, Note_on_c, 1, 79, 61
3, 24462, Note_on_c, 1, 79, 0
3, 24462, Note_on_c, 1, 82, 0
3, 24540, Note_on_c, 1, 67, 61
3, 24540, Note_on_c, 1, 72, 61
3, 24585, Note_on_c, 1, 72, 0
3, 24585, Note_on_c, 1, 67, 0
3, 24585, Note_on_c, 1, 64, 61
3, 24585, Note_on_c, 1, 67, 61
3, 24600, Note_on_c, 1, 67, 0
3, 24600, Note_on_c, 1, 64, 0
3, 24600, Note_on_c, 1, 72, 61
3, 24600, Note_on_c, 1, 76, 61
3, 24642, Note_on_c, 1, 76, 0
3, 24642, Note_on_c, 1, 72, 0
3, 24660, Note_on_c, 1, 76, 61
3, 24660, Note_on_c, 1, 79, 61
3, 24702, Note_on_c, 1, 79, 0
3, 24702, Note_on_c, 1, 76, 0
3, 24780, Note_on_c, 1, 69, 61
3, 24780, Note_on_c, 1, 72, 61
3, 24825, Note_on_c, 1, 72, 0
3, 24825, Note_on_c, 1, 69, 0
3, 24825, Note_on_c, 1, 65, 61
3, 24825, Note_on_c, 1, 69, 61
3, 24840, Note_on_c, 1, 69, 0
3, 24840, Note_on_c, 1, 65, 0
3, 24840, Note_on_c, 1, 72, 61
3, 24840, Note_on_c, 1, 77, 61
3, 24882, Note_on_c, 1, 77, 0
3, 24882, Note_on_c, 1, 72, 0
3, 24900, Note_on_c, 1, 77, 53
3, 24900, Note_on_c, 1, 81, 53
3, 24942, Note_on_c, 1, 81, 0
3, 24942, Note_on_c, 1, 77, 0
3, 25020, Note_on_c, 1, 65, 53
3, 25020, Note_on_c, 1, 71, 53
3, 25065, Note_on_c, 1, 71, 0
3, 25065, Note_on_c, 1, 65, 0
3, 25065, Note_on_c, 1, 62, 53
3, 25065, Note_on_c, 1, 65, 53
3, 25080, Note_on_c, 1, 65, 0
3, 25080, Note_on_c, 1, 62, 0
3, 25080, Note_on_c, 1, 71, 53
3, 25080, Note_on_c, 1, 74, 53
3, 25122, Note_on_c, 1, 74, 0
3, 25122, Note_on_c, 1, 71, 0
3, 25140, Note_on_c, 1, 77, 53
3, 25140, Note_on_c, 1, 74, 53
3, 25182, Note_on_c, 1, 74, 0
3, 25182, Note_on_c, 1, 77, 0
3, 25200, Note_on_c, 1, 67, 68
3, 25200, Note_on_c, 1, 76, 68
3, 25252, Note_on_c, 1, 76, 0
3, 25252, Note_on_c, 1, 67, 0
3, 25260, Note_on_c, 1, 67, 68
3, 25260, Note_on_c, 1, 76, 68
3, 25305, Note_on_c, 1, 76, 0
3, 25305, Note_on_c, 1, 67, 0
3, 25305, Note_on_c, 1, 67, 68
3, 25305, Note_on_c, 1, 76, 68
3, 25320, Note_on_c, 1, 76, 0
3, 25320, Note_on_c, 1, 67, 0
3, 25320, Note_on_c, 1, 67, 68
3, 25320, Note_on_c, 1, 76, 68
3, 25376, Note_on_c, 1, 76, 0
3, 25376, Note_on_c, 1, 67, 0
3, 25380, Note_on_c, 1, 67, 68
3, 25380, Note_on_c, 1, 76, 68
3, 25436, Note_on_c, 1, 76, 0
3, 25436, Note_on_c, 1, 67, 0
3, 25440, Note_on_c, 1, 67, 68
3, 25440, Note_on_c, 1, 76, 68
3, 25496, Note_on_c, 1, 76, 0
3, 25496, Note_on_c, 1, 67, 0
3, 25500, Note_on_c, 1, 67, 68
3, 25500, Note_on_c, 1, 76, 68
3, 25556, Note_on_c, 1, 76, 0
3, 25556, Note_on_c, 1, 67, 0
3, 25560, Note_on_c, 1, 67, 68
3, 25560, Note_on_c, 1, 76, 68
3, 25612, Note_on_c, 1, 76, 0
3, 25612, Note_on_c, 1, 67, 0
3, 25620, Note_on_c, 1, 67, 68
3, 25620, Note_on_c, 1, 76, 68
3, 25665, Note_on_c, 1, 76, 0
3, 25665, Note_on_c, 1, 67, 0
3, 25665, Note_on_c, 1, 67, 68
3, 25665, Note_on_c, 1, 76, 68
3, 25680, Note_on_c, 1, 76, 0
3, 25680, Note_on_c, 1, 67, 0
3, 25680, Note_on_c, 1, 67, 68
3, 25680, Note_on_c, 1, 76, 68
3, 25736, Note_on_c, 1, 76, 0
3, 25736, Note_on_c, 1, 67, 0
3, 25740, Note_on_c, 1, 67, 68
3, 25740, Note_on_c, 1, 76, 68
3, 25796, Note_on_c, 1, 76, 0
3, 25796, Note_on_c, 1, 67, 0
3, 25800, Note_on_c, 1, 67, 68
3, 25800, Note_on_c, 1, 76, 68
3, 25856, Note_on_c, 1, 76, 0
3, 25856, Note_on_c, 1, 67, 0
3, 25860, Note_on_c, 1, 67, 68
3, 25860, Note_on_c, 1, 76, 68
3, 25916, Note_on_c, 1, 76, 0
3, 25916, Note_on_c, 1, 67, 0
3, 25920, Note_on_c, 1, 67, 61
3, 25920, Note_on_c, 1, 76, 61
3, 25980, Note_on_c, 1, 76, 0
3, 25980, Note_on_c, 1, 67, 0
3, 26040, Note_on_c, 1, 76, 49
3, 26040, Note_on_c, 1, 79, 49
3, 26160, Note_on_c, 1, 79, 0
3, 26160, Note_on_c, 1, 76, 0
3, 26160, Note_on_c, 1, 77, 49
3, 26160, Note_on_c, 1, 80, 49
3, 26280, Note_on_c, 1, 80, 0
3, 26280, Note_on_c, 1, 77, 0
3, 26280, Note_on_c, 1, 76, 63
3, 26280, Note_on_c, 1, 79, 63
3, 26340, Note_on_c, 1, 79, 0
3, 26340, Note_on_c, 1, 76, 0
3, 26400, Note_on_c, 1, 76, 49
3, 26400, Note_on_c, 1, 79, 49
3, 26520, Note_on_c, 1, 79, 0
3, 26520, Note_on_c, 1, 76, 0
3, 26520, Note_on_c, 1, 77, 49
3, 26520, Note_on_c, 1, 80, 49
3, 26640, Note_on_c, 1, 80, 0
3, 26640, Note_on_c, 1, 77, 0
3, 26640, Note_on_c, 1, 76, 49
3, 26640, Note_on_c, 1, 79, 49
3, 26700, Note_on_c, 1, 79, 0
3, 26700, Note_on_c, 1, 76, 0
3, 26760, Note_on_c, 1, 76, 49
3, 26760, Note_on_c, 1, 79, 49
3, 26820, Note_on_c, 1, 79, 0
3, 26820, Note_on_c, 1, 76, 0
3, 27000, Note_on_c, 1, 72, 41
3, 27120, Note_on_c, 1, 72, 0
3, 27120, Note_on_c, 1, 76, 41
3, 27240, Note_on_c, 1, 76, 0
3, 27240, Note_on_c, 1, 77, 41
3, 27360, Note_on_c, 1, 77, 0
3, 27360, Note_on_c, 1, 79, 41
3, 27480, Note_on_c, 1, 79, 0
3, 27480, Note_on_c, 1, 76, 41
3, 27540, Note_on_c, 1, 76, 0
3, 27540, Note_on_c, 1, 84, 50
3, 27540, Note_on_c, 1, 72, 50
3, 27598, Note_on_c, 1, 72, 0
3, 27598, Note_on_c, 1, 84, 0
3, 27600, Note_on_c, 1, 84, 50
3, 27600, Note_on_c, 1, 72, 50
3, 27658, Note_on_c, 1, 72, 0
3, 27658, Note_on_c, 1, 84, 0
3, 27660, Note_on_c, 1, 84, 50
3, 27660, Note_on_c, 1, 72, 50
3, 27718, Note_on_c, 1, 72, 0
3, 27718, Note_on_c, 1, 84, 0
3, 27720, Note_on_c, 1, 76, 41
3, 27840, Note_on_c, 1, 76, 0
3, 27840, Note_on_c, 1, 77, 41
3, 27960, Note_on_c, 1, 77, 0
3, 27960, Note_on_c, 1, 79, 41
3, 28080, Note_on_c, 1, 79, 0
3, 28080, Note_on_c, 1, 81, 41
3, 28200, Note_on_c, 1, 81, 0
3, 28200, Note_on_c, 1, 77, 41
3, 28260, Note_on_c, 1, 77, 0
3, 28260, Note_on_c, 1, 72, 51
3, 28260, Note_on_c, 1, 81, 51
3, 28318, Note_on_c, 1, 81, 0
3, 28318, Note_on_c, 1, 72, 0
3, 28320, Note_on_c, 1, 72, 51
3, 28320, Note_on_c, 1, 81, 51
3, 28378, Note_on_c, 1, 81, 0
3, 28378, Note_on_c, 1, 72, 0
3, 28380, Note_on_c, 1, 72, 51
3, 28380, Note_on_c, 1, 81, 51
3, 28438, Note_on_c, 1, 81, 0
3, 28438, Note_on_c, 1, 72, 0
3, 29280, Note_on_c, 1, 77, 51
3, 29400, Note_on_c, 1, 77, 0
3, 29400, Note_on_c, 1, 76, 49
3, 29520, Note_on_c, 1, 76, 0
3, 29520, Note_on_c, 1, 78, 47
3, 29640, Note_on_c, 1, 78, 0
3, 29640, Note_on_c, 1, 77, 47
3, 29660, Note_on_c, 1, 80, 50
3, 29680, Note_on_c, 1, 80, 0
3, 29680, Note_on_c, 1, 79, 50
3, 29700, Note_on_c, 1, 79, 0
3, 29700, Note_on_c, 1, 79, 50
3, 29716, Note_on_c, 1, 79, 0
3, 29720, Note_on_c, 1, 79, 50
3, 29736, Note_on_c, 1, 79, 0
3, 29740, Note_on_c, 1, 79, 50
3, 29756, Note_on_c, 1, 79, 0
3, 29760, Note_on_c, 1, 77, 0
3, 29760, Note_on_c, 1, 79, 50
3, 29760, Note_on_c, 1, 76, 47
3, 29820, Note_on_c, 1, 79, 0
3, 29820, Note_on_c, 1, 84, 50
3, 29880, Note_on_c, 1, 84, 0
3, 29880, Note_on_c, 1, 76, 0
3, 29880, Note_on_c, 1, 75, 47
3, 29900, Note_on_c, 1, 78, 50
3, 29920, Note_on_c, 1, 78, 0
3, 29920, Note_on_c, 1, 77, 50
3, 29940, Note_on_c, 1, 77, 0
3, 29940, Note_on_c, 1, 77, 50
3, 29956, Note_on_c, 1, 77, 0
3, 29960, Note_on_c, 1, 77, 50
3, 29976, Note_on_c, 1, 77, 0
3, 29980, Note_on_c, 1, 77, 50
3, 29996, Note_on_c, 1, 77, 0
3, 30000, Note_on_c, 1, 75, 0
3, 30000, Note_on_c, 1, 77, 50
3, 30000, Note_on_c, 1, 74, 47
3, 30060, Note_on_c, 1, 77, 0
3, 30060, Note_on_c, 1, 82, 50
3, 30120, Note_on_c, 1, 82, 0
3, 30120, Note_on_c, 1, 74, 0
3, 30120, Note_on_c, 1, 76, 47
3, 30179, Note_on_c, 1, 77, 47
3, 30180, Note_on_c, 1, 76, 0
3, 30240, Note_on_c, 1, 70, 50
3, 30298, Note_on_c, 1, 76, 48
3, 30299, Note_on_c, 1, 77, 0
3, 30300, Note_on_c, 1, 70, 0
3, 30300, Note_on_c, 1, 71, 51
3, 30360, Note_on_c, 1, 71, 0
3, 30360, Note_on_c, 1, 73, 51
3, 30418, Note_on_c, 1, 76, 0
3, 30420, Note_on_c, 1, 73, 0
3, 30420, Note_on_c, 1, 74, 53
3, 30420, Note_on_c, 1, 74, 50
3, 30480, Note_on_c, 1, 74, 0
3, 30480, Note_on_c, 1, 74, 0
3, 30480, Note_on_c, 1, 78, 54
3, 30480, Note_on_c, 1, 66, 51
3, 30540, Note_on_c, 1, 66, 0
3, 30540, Note_on_c, 1, 78, 0
3, 30540, Note_on_c, 1, 79, 56
3, 30540, Note_on_c, 1, 67, 52
3, 30600, Note_on_c, 1, 67, 0
3, 30600, Note_on_c, 1, 79, 0
3, 30600, Note_on_c, 1, 81, 56
3, 30600, Note_on_c, 1, 69, 54
3, 30657, Note_on_c, 1, 81, 0
3, 30658, Note_on_c, 1, 69, 0
3, 30660, Note_on_c, 1, 82, 58
3, 30660, Note_on_c, 1, 79, 56
3, 30720, Note_on_c, 1, 79, 0
3, 30720, Note_on_c, 1, 82, 0
3, 30720, Note_on_c, 1, 84, 59
3, 30720, Note_on_c, 1, 77, 56
3, 30780, Note_on_c, 1, 77, 0
3, 30780, Note_on_c, 1, 84, 0
3, 30780, Note_on_c, 1, 82, 61
3, 30780, Note_on_c, 1, 79, 57
3, 30835, Note_on_c, 1, 79, 0
3, 30837, Note_on_c, 1, 82, 0
3, 30840, Note_on_c, 1, 81, 62
3, 30840, Note_on_c, 1, 77, 59
3, 30895, Note_on_c, 1, 77, 0
3, 30897, Note_on_c, 1, 81, 0
3, 30900, Note_on_c, 1, 79, 63
3, 30900, Note_on_c, 1, 76, 60
3, 30955, Note_on_c, 1, 76, 0
3, 30957, Note_on_c, 1, 79, 0
3, 30960, Note_on_c, 1, 77, 47
3, 30960, Note_on_c, 1, 77, 47
3, 31080, Note_on_c, 1, 77, 0
3, 31080, Note_on_c, 1, 77, 0
3, 31380, Note_on_c, 1, 81, 49
3, 31440, Note_on_c, 1, 81, 0
3, 31440, Note_on_c, 1, 77, 49
3, 31500, Note_on_c, 1, 77, 0
3, 31500, Note_on_c, 1, 72, 49
3, 31560, Note_on_c, 1, 72, 0
3, 31560, Note_on_c, 1, 70, 49
3, 31680, Note_on_c, 1, 70, 0
3, 31680, Note_on_c, 1, 69, 49
3, 31740, Note_on_c, 1, 69, 0
3, 32100, Note_on_c, 1, 84, 49
3, 32160, Note_on_c, 1, 84, 0
3, 32160, Note_on_c, 1, 81, 49
3, 32220, Note_on_c, 1, 81, 0
3, 32220, Note_on_c, 1, 77, 49
3, 32280, Note_on_c, 1, 72, 49
3, 32340, Note_on_c, 1, 72, 0
3, 32340, Note_on_c, 1, 77, 0
3, 32340, Note_on_c, 1, 70, 49
3, 32340, Note_on_c, 1, 76, 49
3, 32397, Note_on_c, 1, 76, 0
3, 32397, Note_on_c, 1, 70, 0
3, 32400, Note_on_c, 1, 70, 49
3, 32400, Note_on_c, 1, 76, 49
3, 32520, Note_on_c, 1, 76, 0
3, 32520, Note_on_c, 1, 70, 0
3, 32520, Note_on_c, 1, 69, 49
3, 32520, Note_on_c, 1, 77, 49
3, 32580, Note_on_c, 1, 77, 0
3, 32580, Note_on_c, 1, 69, 0
3, 33840, Note_on_c, 1, 74, 56
3, 33975, Note_on_c, 1, 74, 0
3, 33975, Note_on_c, 1, 76, 56
3, 33990, Note_on_c, 1, 76, 0
3, 33990, Note_on_c, 1, 74, 56
3, 34005, Note_on_c, 1, 74, 0
3, 34005, Note_on_c, 1, 73, 56
3, 34020, Note_on_c, 1, 73, 0
3, 34020, Note_on_c, 1, 74, 56
3, 34050, Note_on_c, 1, 74, 0
3, 34050, Note_on_c, 1, 76, 56
3, 34080, Note_on_c, 1, 76, 0
3, 34080, Note_on_c, 1, 79, 56
3, 34110, Note_on_c, 1, 79, 0
3, 34110, Note_on_c, 1, 77, 56
3, 34140, Note_on_c, 1, 77, 0
3, 34140, Note_on_c, 1, 76, 56
3, 34170, Note_on_c, 1, 76, 0
3, 34170, Note_on_c, 1, 74, 56
3, 34200, Note_on_c, 1, 74, 0
3, 34200, Note_on_c, 1, 74, 56
3, 34290, Note_on_c, 1, 74, 0
3, 34290, Note_on_c, 1, 72, 56
3, 34317, Note_on_c, 1, 72, 0
3, 34320, Note_on_c, 1, 72, 56
3, 34470, Note_on_c, 1, 72, 0
3, 34470, Note_on_c, 1, 73, 56
3, 34500, Note_on_c, 1, 73, 0
3, 34500, Note_on_c, 1, 74, 56
3, 34530, Note_on_c, 1, 74, 0
3, 34530, Note_on_c, 1, 70, 56
3, 34560, Note_on_c, 1, 70, 0
3, 34560, Note_on_c, 1, 69, 42
3, 34620, Note_on_c, 1, 69, 0
3, 36000, Note_on_c, 1, 70, 45
3, 36000, Note_on_c, 1, 76, 45
3, 36120, Note_on_c, 1, 76, 0
3, 36120, Note_on_c, 1, 70, 0
3, 36120, Note_on_c, 1, 69, 44
3, 36120, Note_on_c, 1, 77, 45
3, 36180, Note_on_c, 1, 77, 0
3, 36180, Note_on_c, 1, 69, 0
3, 36180, End_track
4, 0, Start_track
4, 0, MIDI_port, 0
4, 0, Title_t, "Fagotti"
4, 0, Program_c, 2, 70
4, 0, Control_c, 2, 7, 85
4, 0, Control_c, 2, 10, 70
4, 480, Note_on_c, 2, 64, 53
4, 480, Note_on_c, 2, 58, 53
4, 520, Note_on_c, 2, 58, 0
4, 520, Note_on_c, 2, 64, 0
4, 1200, Note_on_c, 2, 65, 53
4, 1200, Note_on_c, 2, 60, 53
4, 1240, Note_on_c, 2, 60, 0
4, 1240, Note_on_c, 2, 65, 0
4, 2160, Note_on_c, 2, 58, 62
4, 2160, Note_on_c, 2, 62, 62
4, 2520, Note_on_c, 2, 62, 0
4, 2520, Note_on_c, 2, 58, 0
4, 2520, Note_on_c, 2, 57, 62
4, 2520, Note_on_c, 2, 60, 62
4, 2760, Note_on_c, 2, 60, 0
4, 2760, Note_on_c, 2, 57, 0
4, 2760, Note_on_c, 2, 55, 61
4, 2760, Note_on_c, 2, 58, 61
4, 2880, Note_on_c, 2, 58, 0
4, 2880, Note_on_c, 2, 55, 0
4, 2880, Note_on_c, 2, 57, 55
4, 3029, Note_on_c, 2, 57, 0
4, 3030, Note_on_c, 2, 58, 55
4, 3045, Note_on_c, 2, 58, 0
4, 3045, Note_on_c, 2, 57, 55
4, 3060, Note_on_c, 2, 57, 0
4, 3060, Note_on_c, 2, 56, 55
4, 3075, Note_on_c, 2, 56, 0
4, 3075, Note_on_c, 2, 57, 55
4, 3090, Note_on_c, 2, 57, 0
4, 3090, Note_on_c, 2, 56, 55
4, 3105, Note_on_c, 2, 56, 0
4, 3105, Note_on_c, 2, 57, 55
4, 3120, Note_on_c, 2, 57, 0
4, 3120, Note_on_c, 2, 60, 55
4, 3150, Note_on_c, 2, 60, 0
4, 3150, Note_on_c, 2, 58, 55
4, 3180, Note_on_c, 2, 58, 0
4, 3180, Note_on_c, 2, 57, 55
4, 3210, Note_on_c, 2, 57, 0
4, 3210, Note_on_c, 2, 55, 55
4, 3240, Note_on_c, 2, 55, 0
4, 3240, Note_on_c, 2, 60, 55
4, 3285, Note_on_c, 2, 60, 0
4, 3285, Note_on_c, 2, 57, 55
4, 3299, Note_on_c, 2, 57, 0
4, 3300, Note_on_c, 2, 53, 55
4, 3419, Note_on_c, 2, 53, 0
4, 3420, Note_on_c, 2, 55, 55
4, 3449, Note_on_c, 2, 55, 0
4, 3450, Note_on_c, 2, 57, 55
4, 3477, Note_on_c, 2, 57, 0
4, 3480, Note_on_c, 2, 57, 55
4, 3510, Note_on_c, 2, 57, 0
4, 3510, Note_on_c, 2, 55, 55
4, 3540, Note_on_c, 2, 55, 0
4, 3540, Note_on_c, 2, 53, 55
4, 3570, Note_on_c, 2, 53, 0
4, 3570, Note_on_c, 2, 52, 55
4, 3600, Note_on_c, 2, 52, 0
4, 3600, Note_on_c, 2, 53, 55
4, 3660, Note_on_c, 2, 53, 0
4, 3660, Note_on_c, 2, 57, 51
4, 3660, Note_on_c, 2, 53, 51
4, 3720, Note_on_c, 2, 53, 0
4, 3720, Note_on_c, 2, 57, 0
4, 3720, Note_on_c, 2, 57, 51
4, 3720, Note_on_c, 2, 53, 51
4, 3780, Note_on_c, 2, 53, 0
4, 3780, Note_on_c, 2, 57, 0
4, 3780, Note_on_c, 2, 57, 51
4, 3780, Note_on_c, 2, 53, 51
4, 3840, Note_on_c, 2, 53, 0
4, 3840, Note_on_c, 2, 57, 0
4, 3840, Note_on_c, 2, 57, 51
4, 3840, Note_on_c, 2, 53, 51
4, 3900, Note_on_c, 2, 53, 0
4, 3900, Note_on_c, 2, 57, 0
4, 3900, Note_on_c, 2, 57, 51
4, 3900, Note_on_c, 2, 53, 51
4, 3960, Note_on_c, 2, 53, 0
4, 3960, Note_on_c, 2, 57, 0
4, 3960, Note_on_c, 2, 58, 51
4, 3960, Note_on_c, 2, 55, 51
4, 4020, Note_on_c, 2, 55, 0
4, 4020, Note_on_c, 2, 58, 0
4, 4020, Note_on_c, 2, 58, 51
4, 4020, Note_on_c, 2, 55, 51
4, 4080, Note_on_c, 2, 55, 0
4, 4080, Note_on_c, 2, 58, 0
4, 4080, Note_on_c, 2, 58, 51
4, 4080, Note_on_c, 2, 55, 51
4, 4140, Note_on_c, 2, 55, 0
4, 4140, Note_on_c, 2, 58, 0
4, 4140, Note_on_c, 2, 58, 51
4, 4140, Note_on_c, 2, 55, 51
4, 4200, Note_on_c, 2, 55, 0
4, 4200, Note_on_c, 2, 58, 0
4, 4200, Note_on_c, 2, 58, 51
4, 4200, Note_on_c, 2, 55, 51
4, 4260, Note_on_c, 2, 55, 0
4, 4260, Note_on_c, 2, 58, 0
4, 4260, Note_on_c, 2, 58, 51
4, 4260, Note_on_c, 2, 55, 51
4, 4320, Note_on_c, 2, 55, 0
4, 4320, Note_on_c, 2, 58, 0
4, 4320, Note_on_c, 2, 58, 51
4, 4320, Note_on_c, 2, 55, 51
4, 4380, Note_on_c, 2, 55, 0
4, 4380, Note_on_c, 2, 58, 0
4, 4380, Note_on_c, 2, 58, 51
4, 4380, Note_on_c, 2, 55, 51
4, 4440, Note_on_c, 2, 55, 0
4, 4440, Note_on_c, 2, 58, 0
4, 4440, Note_on_c, 2, 58, 51
4, 4440, Note_on_c, 2, 55, 51
4, 4500, Note_on_c, 2, 55, 0
4, 4500, Note_on_c, 2, 58, 0
4, 4500, Note_on_c, 2, 55, 51
4, 4500, Note_on_c, 2, 52, 51
4, 4560, Note_on_c, 2, 52, 0
4, 4560, Note_on_c, 2, 55, 0
4, 4560, Note_on_c, 2, 55, 51
4, 4560, Note_on_c, 2, 52, 51
4, 4620, Note_on_c, 2, 52, 0
4, 4620, Note_on_c, 2, 55, 0
4, 4620, Note_on_c, 2, 55, 51
4, 4620, Note_on_c, 2, 52, 51
4, 4680, Note_on_c, 2, 52, 0
4, 4680, Note_on_c, 2, 55, 0
4, 4680, Note_on_c, 2, 57, 51
4, 4680, Note_on_c, 2, 53, 51
4, 4740, Note_on_c, 2, 53, 0
4, 4740, Note_on_c, 2, 57, 0
4, 4740, Note_on_c, 2, 60, 51
4, 4740, Note_on_c, 2, 57, 51
4, 4800, Note_on_c, 2, 57, 0
4, 4800, Note_on_c, 2, 60, 0
4, 4800, Note_on_c, 2, 60, 51
4, 4800, Note_on_c, 2, 57, 51
4, 4860, Note_on_c, 2, 57, 0
4, 4860, Note_on_c, 2, 60, 0
4, 4860, Note_on_c, 2, 60, 51
4, 4860, Note_on_c, 2, 57, 51
4, 4920, Note_on_c, 2, 57, 0
4, 4920, Note_on_c, 2, 60, 0
4, 4920, Note_on_c, 2, 60, 51
4, 4920, Note_on_c, 2, 57, 51
4, 4980, Note_on_c, 2, 57, 0
4, 4980, Note_on_c, 2, 60, 0
4, 4980, Note_on_c, 2, 60, 51
4, 4980, Note_on_c, 2, 57, 51
4, 5040, Note_on_c, 2, 57, 0
4, 5040, Note_on_c, 2, 60, 0
4, 6300, Note_on_c, 2, 55, 55
4, 6360, Note_on_c, 2, 55, 0
4, 6360, Note_on_c, 2, 60, 55
4, 6420, Note_on_c, 2, 60, 0
4, 6420, Note_on_c, 2, 63, 55
4, 6480, Note_on_c, 2, 63, 0
4, 6480, Note_on_c, 2, 63, 55
4, 6480, Note_on_c, 2, 60, 55
4, 6840, Note_on_c, 2, 60, 0
4, 6840, Note_on_c, 2, 63, 0
4, 6840, Note_on_c, 2, 62, 51
4, 6840, Note_on_c, 2, 65, 52
4, 6960, Note_on_c, 2, 65, 0
4, 6960, Note_on_c, 2, 62, 0
4, 7020, Note_on_c, 2, 56, 55
4, 7080, Note_on_c, 2, 56, 0
4, 7080, Note_on_c, 2, 62, 55
4, 7140, Note_on_c, 2, 62, 0
4, 7140, Note_on_c, 2, 65, 55
4, 7200, Note_on_c, 2, 65, 0
4, 7200, Note_on_c, 2, 62, 55
4, 7200, Note_on_c, 2, 59, 55
4, 7560, Note_on_c, 2, 59, 0
4, 7560, Note_on_c, 2, 62, 0
4, 7560, Note_on_c, 2, 63, 55
4, 7560, Note_on_c, 2, 60, 55
4, 7680, Note_on_c, 2, 60, 0
4, 7680, Note_on_c, 2, 63, 0
4, 7740, Note_on_c, 2, 60, 55
4, 7740, Note_on_c, 2, 63, 55
4, 7800, Note_on_c, 2, 63, 0
4, 7800, Note_on_c, 2, 60, 0
4, 7800, Note_on_c, 2, 55, 55
4, 7800, Note_on_c, 2, 60, 55
4, 7860, Note_on_c, 2, 60, 0
4, 7860, Note_on_c, 2, 55, 0
4, 7860, Note_on_c, 2, 51, 55
4, 7860, Note_on_c, 2, 55, 55
4, 7920, Note_on_c, 2, 55, 0
4, 7920, Note_on_c, 2, 51, 0
4, 7920, Note_on_c, 2, 51, 68
4, 7920, Note_on_c, 2, 48, 68
4, 8040, Note_on_c, 2, 48, 0
4, 8040, Note_on_c, 2, 51, 0
4, 8040, Note_on_c, 2, 60, 56
4, 8040, Note_on_c, 2, 55, 56
4, 8160, Note_on_c, 2, 55, 0
4, 8160, Note_on_c, 2, 60, 0
4, 8160, Note_on_c, 2, 61, 68
4, 8160, Note_on_c, 2, 56, 68
4, 8280, Note_on_c, 2, 61, 0
4, 8280, Note_on_c, 2, 62, 68
4, 8400, Note_on_c, 2, 62, 0
4, 8400, Note_on_c, 2, 56, 0
4, 8400, Note_on_c, 2, 58, 68
4, 8400, Note_on_c, 2, 63, 56
4, 8520, Note_on_c, 2, 63, 0
4, 8520, Note_on_c, 2, 64, 68
4, 8640, Note_on_c, 2, 58, 0
4, 8640, Note_on_c, 2, 60, 68
4, 8760, Note_on_c, 2, 64, 0
4, 8760, Note_on_c, 2, 65, 68
4, 8880, Note_on_c, 2, 65, 0
4, 8880, Note_on_c, 2, 60, 0
4, 8880, Note_on_c, 2, 59, 68
4, 8880, Note_on_c, 2, 65, 68
4, 9000, Note_on_c, 2, 65, 0
4, 9000, Note_on_c, 2, 66, 68
4, 9120, Note_on_c, 2, 66, 0
4, 9120, Note_on_c, 2, 59, 0
4, 9720, Note_on_c, 2, 55, 36
4, 9720, Note_on_c, 2, 60, 37
4, 9840, Note_on_c, 2, 60, 0
4, 9840, Note_on_c, 2, 55, 0
4, 9840, Note_on_c, 2, 59, 36
4, 9840, Note_on_c, 2, 62, 37
4, 9960, Note_on_c, 2, 62, 0
4, 9960, Note_on_c, 2, 59, 0
4, 9960, Note_on_c, 2, 60, 36
4, 9960, Note_on_c, 2, 64, 37
4, 10080, Note_on_c, 2, 64, 0
4, 10080, Note_on_c, 2, 60, 0
4, 10080, Note_on_c, 2, 62, 36
4, 10080, Note_on_c, 2, 65, 37
4, 10200, Note_on_c, 2, 65, 0
4, 10200, Note_on_c, 2, 62, 0
4, 10200, Note_on_c, 2, 59, 36
4, 10200, Note_on_c, 2, 62, 37
4, 10260, Note_on_c, 2, 62, 0
4, 10320, Note_on_c, 2, 59, 0
4, 10440, Note_on_c, 2, 59, 36
4, 10440, Note_on_c, 2, 62, 37
4, 10560, Note_on_c, 2, 62, 0
4, 10560, Note_on_c, 2, 59, 0
4, 10560, Note_on_c, 2, 60, 36
4, 10560, Note_on_c, 2, 64, 37
4, 10680, Note_on_c, 2, 64, 0
4, 10680, Note_on_c, 2, 60, 0
4, 10680, Note_on_c, 2, 62, 36
4, 10680, Note_on_c, 2, 65, 37
4, 10800, Note_on_c, 2, 65, 0
4, 10800, Note_on_c, 2, 62, 0
4, 10800, Note_on_c, 2, 64, 36
4, 10800, Note_on_c, 2, 67, 37
4, 10920, Note_on_c, 2, 67, 0
4, 10920, Note_on_c, 2, 64, 0
4, 10920, Note_on_c, 2, 60, 36
4, 10920, Note_on_c, 2, 64, 37
4, 10980, Note_on_c, 2, 64, 0
4, 10980, Note_on_c, 2, 60, 0
4, 11160, Note_on_c, 2, 55, 50
4, 11160, Note_on_c, 2, 61, 50
4, 11280, Note_on_c, 2, 61, 0
4, 11280, Note_on_c, 2, 55, 0
4, 11280, Note_on_c, 2, 54, 50
4, 11280, Note_on_c, 2, 60, 50
4, 11400, Note_on_c, 2, 60, 0
4, 11400, Note_on_c, 2, 54, 0
4, 11400, Note_on_c, 2, 53, 50
4, 11400, Note_on_c, 2, 59, 50
4, 11520, Note_on_c, 2, 59, 0
4, 11520, Note_on_c, 2, 53, 0
4, 11520, Note_on_c, 2, 52, 50
4, 11520, Note_on_c, 2, 58, 50
4, 11640, Note_on_c, 2, 58, 0
4, 11640, Note_on_c, 2, 52, 0
4, 11640, Note_on_c, 2, 57, 50
4, 11640, Note_on_c, 2, 53, 50
4, 11760, Note_on_c, 2, 53, 0
4, 11760, Note_on_c, 2, 57, 0
4, 11760, Note_on_c, 2, 55, 50
4, 11760, Note_on_c, 2, 59, 50
4, 11820, Note_on_c, 2, 59, 0
4, 11820, Note_on_c, 2, 55, 0
4, 11820, Note_on_c, 2, 57, 50
4, 11820, Note_on_c, 2, 60, 50
4, 11880, Note_on_c, 2, 60, 0
4, 11880, Note_on_c, 2, 57, 0
4, 12300, Note_on_c, 2, 61, 50
4, 12300, Note_on_c, 2, 55, 50
4, 12360, Note_on_c, 2, 55, 0
4, 12360, Note_on_c, 2, 61, 0
4, 12420, Note_on_c, 2, 54, 50
4, 12420, Note_on_c, 2, 60, 50
4, 12480, Note_on_c, 2, 60, 0
4, 12480, Note_on_c, 2, 54, 0
4, 12540, Note_on_c, 2, 59, 50
4, 12540, Note_on_c, 2, 53, 50
4, 12600, Note_on_c, 2, 53, 0
4, 12600, Note_on_c, 2, 59, 0
4, 12659, Note_on_c, 2, 52, 50
4, 12664, Note_on_c, 2, 58, 50
4, 12719, Note_on_c, 2, 52, 0
4, 12724, Note_on_c, 2, 58, 0
4, 12779, Note_on_c, 2, 53, 50
4, 12780, Note_on_c, 2, 57, 50
4, 12838, Note_on_c, 2, 59, 50
4, 12839, Note_on_c, 2, 53, 0
4, 12840, Note_on_c, 2, 57, 0
4, 12842, Note_on_c, 2, 55, 50
4, 12898, Note_on_c, 2, 59, 0
4, 12898, Note_on_c, 2, 57, 50
4, 12900, Note_on_c, 2, 60, 50
4, 12902, Note_on_c, 2, 55, 0
4, 12958, Note_on_c, 2, 57, 0
4, 12960, Note_on_c, 2, 60, 0
4, 12960, Note_on_c, 2, 50, 50
4, 12962, Note_on_c, 2, 50, 50
4, 13080, Note_on_c, 2, 50, 0
4, 13080, Note_on_c, 2, 52, 51
4, 13081, Note_on_c, 2, 52, 51
4, 13082, Note_on_c, 2, 50, 0
4, 13140, Note_on_c, 2, 52, 0
4, 13140, Note_on_c, 2, 53, 53
4, 13140, Note_on_c, 2, 53, 53
4, 13141, Note_on_c, 2, 52, 0
4, 13198, Note_on_c, 2, 46, 54
4, 13199, Note_on_c, 2, 46, 54
4, 13200, Note_on_c, 2, 53, 0
4, 13200, Note_on_c, 2, 53, 0
4, 13318, Note_on_c, 2, 46, 0
4, 13319, Note_on_c, 2, 46, 0
4, 13320, Note_on_c, 2, 48, 65
4, 13321, Note_on_c, 2, 48, 56
4, 13379, Note_on_c, 2, 59, 56
4, 13380, Note_on_c, 2, 48, 0
4, 13381, Note_on_c, 2, 48, 0
4, 13382, Note_on_c, 2, 59, 56
4, 13437, Note_on_c, 2, 60, 56
4, 13439, Note_on_c, 2, 59, 0
4, 13441, Note_on_c, 2, 60, 56
4, 13442, Note_on_c, 2, 59, 0
4, 13497, Note_on_c, 2, 60, 0
4, 13500, Note_on_c, 2, 57, 56
4, 13500, Note_on_c, 2, 65, 56
4, 13501, Note_on_c, 2, 60, 0
4, 13556, Note_on_c, 2, 65, 0
4, 13556, Note_on_c, 2, 57, 0
4, 13558, Note_on_c, 2, 64, 56
4, 13559, Note_on_c, 2, 55, 56
4, 13614, Note_on_c, 2, 64, 0
4, 13615, Note_on_c, 2, 55, 0
4, 13617, Note_on_c, 2, 53, 56
4, 13618, Note_on_c, 2, 62, 56
4, 13673, Note_on_c, 2, 53, 0
4, 13674, Note_on_c, 2, 62, 0
4, 13680, Note_on_c, 2, 52, 56
4, 13680, Note_on_c, 2, 60, 56
4, 13800, Note_on_c, 2, 60, 0
4, 13800, Note_on_c, 2, 52, 0
4, 14060, Note_on_c, 2, 48, 52
4, 14060, Note_on_c, 2, 52, 52
4, 14076, Note_on_c, 2, 52, 0
4, 14076, Note_on_c, 2, 48, 0
4, 14080, Note_on_c, 2, 48, 52
4, 14080, Note_on_c, 2, 52, 52
4, 14096, Note_on_c, 2, 52, 0
4, 14096, Note_on_c, 2, 48, 0
4, 14100, Note_on_c, 2, 52, 52
4, 14100, Note_on_c, 2, 48, 52
4, 14120, Note_on_c, 2, 48, 0
4, 14120, Note_on_c, 2, 52, 0
4, 14120, Note_on_c, 2, 52, 52
4, 14120, Note_on_c, 2, 55, 52
4, 14134, Note_on_c, 2, 55, 0
4, 14134, Note_on_c, 2, 52, 0
4, 14140, Note_on_c, 2, 52, 52
4, 14140, Note_on_c, 2, 55, 52
4, 14156, Note_on_c, 2, 55, 0
4, 14156, Note_on_c, 2, 52, 0
4, 14160, Note_on_c, 2, 55, 52
4, 14160, Note_on_c, 2, 52, 52
4, 14180, Note_on_c, 2, 52, 0
4, 14180, Note_on_c, 2, 55, 0
4, 14180, Note_on_c, 2, 60, 52
4, 14180, Note_on_c, 2, 55, 52
4, 14193, Note_on_c, 2, 55, 0
4, 14193, Note_on_c, 2, 60, 0
4, 14200, Note_on_c, 2, 55, 52
4, 14200, Note_on_c, 2, 60, 52
4, 14216, Note_on_c, 2, 60, 0
4, 14216, Note_on_c, 2, 55, 0
4, 14220, Note_on_c, 2, 60, 52
4, 14220, Note_on_c, 2, 55, 52
4, 14240, Note_on_c, 2, 55, 0
4, 14240, Note_on_c, 2, 60, 0
4, 14240, Note_on_c, 2, 64, 52
4, 14240, Note_on_c, 2, 60, 52
4, 14254, Note_on_c, 2, 60, 0
4, 14254, Note_on_c, 2, 64, 0
4, 14260, Note_on_c, 2, 64, 52
4, 14260, Note_on_c, 2, 60, 52
4, 14274, Note_on_c, 2, 60, 0
4, 14274, Note_on_c, 2, 64, 0
4, 14280, Note_on_c, 2, 65, 52
4, 14280, Note_on_c, 2, 59, 52
4, 14340, Note_on_c, 2, 65, 0
4, 14340, Note_on_c, 2, 62, 52
4, 14385, Note_on_c, 2, 62, 0
4, 14385, Note_on_c, 2, 67, 52
4, 14400, Note_on_c, 2, 67, 0
4, 14400, Note_on_c, 2, 59, 0
4, 14400, Note_on_c, 2, 60, 52
4, 14400, Note_on_c, 2, 67, 52
4, 14460, Note_on_c, 2, 67, 0
4, 14460, Note_on_c, 2, 60, 0
4, 14780, Note_on_c, 2, 48, 52
4, 14780, Note_on_c, 2, 52, 52
4, 14796, Note_on_c, 2, 52, 0
4, 14796, Note_on_c, 2, 48, 0
4, 14800, Note_on_c, 2, 48, 52
4, 14800, Note_on_c, 2, 52, 52
4, 14816, Note_on_c, 2, 52, 0
4, 14816, Note_on_c, 2, 48, 0
4, 14820, Note_on_c, 2, 52, 52
4, 14820, Note_on_c, 2, 48, 52
4, 14840, Note_on_c, 2, 48, 0
4, 14840, Note_on_c, 2, 52, 0
4, 14840, Note_on_c, 2, 52, 52
4, 14840, Note_on_c, 2, 55, 52
4, 14854, Note_on_c, 2, 55, 0
4, 14854, Note_on_c, 2, 52, 0
4, 14860, Note_on_c, 2, 52, 52
4, 14860, Note_on_c, 2, 55, 52
4, 14876, Note_on_c, 2, 55, 0
4, 14876, Note_on_c, 2, 52, 0
4, 14880, Note_on_c, 2, 55, 52
4, 14880, Note_on_c, 2, 52, 52
4, 14900, Note_on_c, 2, 52, 0
4, 14900, Note_on_c, 2, 55, 0
4, 14900, Note_on_c, 2, 60, 52
4, 14900, Note_on_c, 2, 55, 52
4, 14913, Note_on_c, 2, 55, 0
4, 14913, Note_on_c, 2, 60, 0
4, 14920, Note_on_c, 2, 55, 52
4, 14920, Note_on_c, 2, 60, 52
4, 14936, Note_on_c, 2, 60, 0
4, 14936, Note_on_c, 2, 55, 0
4, 14940, Note_on_c, 2, 60, 52
4, 14940, Note_on_c, 2, 55, 52
4, 14960, Note_on_c, 2, 55, 0
4, 14960, Note_on_c, 2, 60, 0
4, 14960, Note_on_c, 2, 64, 52
4, 14960, Note_on_c, 2, 60, 52
4, 14974, Note_on_c, 2, 60, 0
4, 14974, Note_on_c, 2, 64, 0
4, 14980, Note_on_c, 2, 64, 52
4, 14980, Note_on_c, 2, 60, 52
4, 14994, Note_on_c, 2, 60, 0
4, 14994, Note_on_c, 2, 64, 0
4, 15000, Note_on_c, 2, 67, 52
4, 15000, Note_on_c, 2, 55, 52
4, 15090, Note_on_c, 2, 67, 0
4, 15090, Note_on_c, 2, 65, 52
4, 15120, Note_on_c, 2, 65, 0
4, 15120, Note_on_c, 2, 55, 0
4, 15120, Note_on_c, 2, 55, 48
4, 15120, Note_on_c, 2, 65, 50
4, 15240, Note_on_c, 2, 65, 0
4, 15240, Note_on_c, 2, 64, 49
4, 15300, Note_on_c, 2, 64, 0
4, 15300, Note_on_c, 2, 55, 0
4, 16380, Note_on_c, 2, 61, 52
4, 16380, Note_on_c, 2, 64, 52
4, 16437, Note_on_c, 2, 64, 0
4, 16437, Note_on_c, 2, 61, 0
4, 16440, Note_on_c, 2, 61, 52
4, 16440, Note_on_c, 2, 64, 52
4, 16497, Note_on_c, 2, 64, 0
4, 16497, Note_on_c, 2, 61, 0
4, 16500, Note_on_c, 2, 61, 52
4, 16500, Note_on_c, 2, 64, 52
4, 16557, Note_on_c, 2, 64, 0
4, 16557, Note_on_c, 2, 61, 0
4, 16560, Note_on_c, 2, 62, 68
4, 16560, Note_on_c, 2, 65, 68
4, 16920, Note_on_c, 2, 65, 0
4, 16920, Note_on_c, 2, 62, 0
4, 16920, Note_on_c, 2, 58, 54
4, 16920, Note_on_c, 2, 64, 54
4, 17040, Note_on_c, 2, 64, 0
4, 17040, Note_on_c, 2, 58, 0
4, 17100, Note_on_c, 2, 58, 53
4, 17100, Note_on_c, 2, 64, 53
4, 17160, Note_on_c, 2, 64, 0
4, 17160, Note_on_c, 2, 58, 0
4, 17160, Note_on_c, 2, 55, 53
4, 17160, Note_on_c, 2, 58, 53
4, 17220, Note_on_c, 2, 58, 0
4, 17220, Note_on_c, 2, 55, 0
4, 17220, Note_on_c, 2, 52, 53
4, 17220, Note_on_c, 2, 55, 53
4, 17280, Note_on_c, 2, 55, 0
4, 17280, Note_on_c, 2, 52, 0
4, 17280, Note_on_c, 2, 58, 68
4, 17280, Note_on_c, 2, 64, 68
4, 17640, Note_on_c, 2, 64, 0
4, 17640, Note_on_c, 2, 58, 0
4, 17640, Note_on_c, 2, 59, 54
4, 17640, Note_on_c, 2, 66, 54
4, 17760, Note_on_c, 2, 66, 0
4, 17760, Note_on_c, 2, 59, 0
4, 17820, Note_on_c, 2, 63, 53
4, 17820, Note_on_c, 2, 66, 53
4, 17880, Note_on_c, 2, 66, 0
4, 17880, Note_on_c, 2, 63, 0
4, 17880, Note_on_c, 2, 63, 53
4, 17880, Note_on_c, 2, 60, 53
4, 17940, Note_on_c, 2, 60, 0
4, 17940, Note_on_c, 2, 63, 0
4, 17940, Note_on_c, 2, 57, 53
4, 17940, Note_on_c, 2, 60, 53
4, 18000, Note_on_c, 2, 60, 0
4, 18000, Note_on_c, 2, 57, 0
4, 18000, Note_on_c, 2, 58, 68
4, 18000, Note_on_c, 2, 63, 68
4, 18120, Note_on_c, 2, 58, 0
4, 18120, Note_on_c, 2, 54, 68
4, 18240, Note_on_c, 2, 54, 0
4, 18240, Note_on_c, 2, 53, 68
4, 18360, Note_on_c, 2, 53, 0
4, 18360, Note_on_c, 2, 63, 0
4, 18360, Note_on_c, 2, 61, 68
4, 18360, Note_on_c, 2, 58, 68
4, 18477, Note_on_c, 2, 61, 0
4, 18480, Note_on_c, 2, 60, 68
4, 18600, Note_on_c, 2, 60, 0
4, 18600, Note_on_c, 2, 58, 0
4, 18600, Note_on_c, 2, 65, 68
4, 18600, Note_on_c, 2, 56, 68
4, 18720, Note_on_c, 2, 56, 0
4, 18720, Note_on_c, 2, 55, 68
4, 18840, Note_on_c, 2, 55, 0
4, 18840, Note_on_c, 2, 65, 0
4, 18840, Note_on_c, 2, 63, 68
4, 18840, Note_on_c, 2, 60, 68
4, 18957, Note_on_c, 2, 63, 0
4, 18960, Note_on_c, 2, 62, 68
4, 19080, Note_on_c, 2, 62, 0
4, 19080, Note_on_c, 2, 60, 0
4, 19080, Note_on_c, 2, 58, 68
4, 19080, Note_on_c, 2, 67, 68
4, 19200, Note_on_c, 2, 58, 0
4, 19200, Note_on_c, 2, 57, 68
4, 19320, Note_on_c, 2, 67, 0
4, 19320, Note_on_c, 2, 65, 68
4, 19560, Note_on_c, 2, 65, 0
4, 19560, Note_on_c, 2, 57, 0
4, 19560, Note_on_c, 2, 55, 68
4, 19560, Note_on_c, 2, 63, 68
4, 19680, Note_on_c, 2, 63, 0
4, 19680, Note_on_c, 2, 55, 0
4, 19680, Note_on_c, 2, 53, 68
4, 19680, Note_on_c, 2, 62, 68
4, 19800, Note_on_c, 2, 62, 0
4, 19800, Note_on_c, 2, 53, 0
4, 19800, Note_on_c, 2, 52, 68
4, 19800, Note_on_c, 2, 61, 68
4, 19860, Note_on_c, 2, 61, 0
4, 19860, Note_on_c, 2, 52, 0
4, 20040, Note_on_c, 2, 57, 56
4, 20060, Note_on_c, 2, 57, 0
4, 20060, Note_on_c, 2, 56, 55
4, 20080, Note_on_c, 2, 56, 0
4, 20080, Note_on_c, 2, 57, 54
4, 20100, Note_on_c, 2, 57, 0
4, 20100, Note_on_c, 2, 61, 54
4, 20120, Note_on_c, 2, 61, 0
4, 20120, Note_on_c, 2, 59, 53
4, 20140, Note_on_c, 2, 59, 0
4, 20140, Note_on_c, 2, 57, 52
4, 20160, Note_on_c, 2, 57, 0
4, 21120, Note_on_c, 2, 58, 55
4, 21120, Note_on_c, 2, 64, 55
4, 21240, Note_on_c, 2, 64, 0
4, 21240, Note_on_c, 2, 58, 0
4, 21240, Note_on_c, 2, 57, 55
4, 21240, Note_on_c, 2, 65, 55
4, 21300, Note_on_c, 2, 65, 0
4, 21300, Note_on_c, 2, 57, 0
4, 22680, Note_on_c, 2, 62, 50
4, 22680, Note_on_c, 2, 58, 50
4, 22740, Note_on_c, 2, 58, 0
4, 22740, Note_on_c, 2, 62, 0
4, 22740, Note_on_c, 2, 62, 50
4, 22740, Note_on_c, 2, 58, 50
4, 22800, Note_on_c, 2, 58, 0
4, 22800, Note_on_c, 2, 62, 0
4, 22800, Note_on_c, 2, 62, 50
4, 22800, Note_on_c, 2, 58, 50
4, 22860, Note_on_c, 2, 58, 0
4, 22860, Note_on_c, 2, 62, 0
4, 22860, Note_on_c, 2, 62, 50
4, 22860, Note_on_c, 2, 58, 50
4, 22920, Note_on_c, 2, 58, 0
4, 22920, Note_on_c, 2, 62, 0
4, 22920, Note_on_c, 2, 62, 50
4, 22920, Note_on_c, 2, 58, 50
4, 22980, Note_on_c, 2, 58, 0
4, 22980, Note_on_c, 2, 62, 0
4, 22980, Note_on_c, 2, 62, 50
4, 22980, Note_on_c, 2, 58, 50
4, 23040, Note_on_c, 2, 58, 0
4, 23040, Note_on_c, 2, 62, 0
4, 23040, Note_on_c, 2, 63, 50
4, 23040, Note_on_c, 2, 60, 50
4, 23100, Note_on_c, 2, 60, 0
4, 23100, Note_on_c, 2, 63, 0
4, 23100, Note_on_c, 2, 63, 50
4, 23100, Note_on_c, 2, 60, 50
4, 23160, Note_on_c, 2, 60, 0
4, 23160, Note_on_c, 2, 63, 0
4, 23160, Note_on_c, 2, 63, 50
4, 23160, Note_on_c, 2, 60, 50
4, 23220, Note_on_c, 2, 60, 0
4, 23220, Note_on_c, 2, 63, 0
4, 23220, Note_on_c, 2, 63, 50
4, 23220, Note_on_c, 2, 60, 50
4, 23280, Note_on_c, 2, 60, 0
4, 23280, Note_on_c, 2, 63, 0
4, 23280, Note_on_c, 2, 63, 50
4, 23280, Note_on_c, 2, 60, 50
4, 23340, Note_on_c, 2, 60, 0
4, 23340, Note_on_c, 2, 63, 0
4, 23340, Note_on_c, 2, 63, 50
4, 23340, Note_on_c, 2, 60, 50
4, 23400, Note_on_c, 2, 60, 0
4, 23400, Note_on_c, 2, 63, 0
4, 23400, Note_on_c, 2, 60, 50
4, 23400, Note_on_c, 2, 63, 50
4, 23460, Note_on_c, 2, 63, 0
4, 23460, Note_on_c, 2, 60, 0
4, 23460, Note_on_c, 2, 60, 50
4, 23460, Note_on_c, 2, 63, 50
4, 23520, Note_on_c, 2, 63, 0
4, 23520, Note_on_c, 2, 60, 0
4, 23520, Note_on_c, 2, 60, 50
4, 23520, Note_on_c, 2, 63, 50
4, 23580, Note_on_c, 2, 63, 0
4, 23580, Note_on_c, 2, 60, 0
4, 23580, Note_on_c, 2, 60, 50
4, 23580, Note_on_c, 2, 63, 50
4, 23640, Note_on_c, 2, 63, 0
4, 23640, Note_on_c, 2, 60, 0
4, 23640, Note_on_c, 2, 60, 50
4, 23640, Note_on_c, 2, 63, 50
4, 23700, Note_on_c, 2, 63, 0
4, 23700, Note_on_c, 2, 60, 0
4, 23700, Note_on_c, 2, 57, 50
4, 23700, Note_on_c, 2, 60, 50
4, 23760, Note_on_c, 2, 60, 0
4, 23760, Note_on_c, 2, 57, 0
4, 23760, Note_on_c, 2, 58, 61
4, 23805, Note_on_c, 2, 58, 0
4, 23805, Note_on_c, 2, 46, 61
4, 23820, Note_on_c, 2, 46, 0
4, 23820, Note_on_c, 2, 50, 61
4, 23865, Note_on_c, 2, 50, 0
4, 23865, Note_on_c, 2, 53, 61
4, 23880, Note_on_c, 2, 53, 0
4, 23880, Note_on_c, 2, 58, 61
4, 23922, Note_on_c, 2, 58, 0
4, 23940, Note_on_c, 2, 46, 61
4, 23982, Note_on_c, 2, 46, 0
4, 24045, Note_on_c, 2, 48, 61
4, 24060, Note_on_c, 2, 48, 0
4, 24060, Note_on_c, 2, 54, 61
4, 24105, Note_on_c, 2, 54, 0
4, 24105, Note_on_c, 2, 57, 61
4, 24120, Note_on_c, 2, 57, 0
4, 24120, Note_on_c, 2, 60, 61
4, 24162, Note_on_c, 2, 60, 0
4, 24180, Note_on_c, 2, 48, 61
4, 24222, Note_on_c, 2, 48, 0
4, 24285, Note_on_c, 2, 46, 61
4, 24300, Note_on_c, 2, 46, 0
4, 24300, Note_on_c, 2, 50, 61
4, 24345, Note_on_c, 2, 50, 0
4, 24345, Note_on_c, 2, 55, 61
4, 24360, Note_on_c, 2, 55, 0
4, 24360, Note_on_c, 2, 58, 61
4, 24402, Note_on_c, 2, 58, 0
4, 24420, Note_on_c, 2, 46, 61
4, 24462, Note_on_c, 2, 46, 0
4, 24525, Note_on_c, 2, 46, 61
4, 24540, Note_on_c, 2, 46, 0
4, 24540, Note_on_c, 2, 52, 61
4, 24585, Note_on_c, 2, 52, 0
4, 24585, Note_on_c, 2, 55, 61
4, 24600, Note_on_c, 2, 55, 0
4, 24600, Note_on_c, 2, 58, 61
4, 24642, Note_on_c, 2, 58, 0
4, 24660, Note_on_c, 2, 46, 61
4, 24702, Note_on_c, 2, 46, 0
4, 24765, Note_on_c, 2, 45, 61
4, 24780, Note_on_c, 2, 45, 0
4, 24780, Note_on_c, 2, 48, 61
4, 24825, Note_on_c, 2, 48, 0
4, 24825, Note_on_c, 2, 53, 61
4, 24840, Note_on_c, 2, 53, 0
4, 24840, Note_on_c, 2, 57, 61
4, 24882, Note_on_c, 2, 57, 0
4, 24900, Note_on_c, 2, 45, 53
4, 24942, Note_on_c, 2, 45, 0
4, 25005, Note_on_c, 2, 50, 53
4, 25020, Note_on_c, 2, 50, 0
4, 25020, Note_on_c, 2, 53, 53
4, 25065, Note_on_c, 2, 53, 0
4, 25065, Note_on_c, 2, 59, 53
4, 25080, Note_on_c, 2, 59, 0
4, 25080, Note_on_c, 2, 62, 53
4, 25122, Note_on_c, 2, 62, 0
4, 25140, Note_on_c, 2, 50, 53
4, 25182, Note_on_c, 2, 50, 0
4, 25200, Note_on_c, 2, 48, 68
4, 25252, Note_on_c, 2, 48, 0
4, 25260, Note_on_c, 2, 55, 68
4, 25260, Note_on_c, 2, 64, 68
4, 25305, Note_on_c, 2, 64, 0
4, 25305, Note_on_c, 2, 55, 0
4, 25305, Note_on_c, 2, 55, 68
4, 25305, Note_on_c, 2, 64, 68
4, 25320, Note_on_c, 2, 64, 0
4, 25320, Note_on_c, 2, 55, 0
4, 25320, Note_on_c, 2, 55, 68
4, 25320, Note_on_c, 2, 64, 68
4, 25376, Note_on_c, 2, 64, 0
4, 25376, Note_on_c, 2, 55, 0
4, 25380, Note_on_c, 2, 55, 68
4, 25380, Note_on_c, 2, 64, 68
4, 25436, Note_on_c, 2, 64, 0
4, 25436, Note_on_c, 2, 55, 0
4, 25440, Note_on_c, 2, 55, 68
4, 25440, Note_on_c, 2, 64, 68
4, 25496, Note_on_c, 2, 64, 0
4, 25496, Note_on_c, 2, 55, 0
4, 25500, Note_on_c, 2, 55, 68
4, 25500, Note_on_c, 2, 64, 68
4, 25556, Note_on_c, 2, 64, 0
4, 25556, Note_on_c, 2, 55, 0
4, 25560, Note_on_c, 2, 48, 68
4, 25612, Note_on_c, 2, 48, 0
4, 25620, Note_on_c, 2, 55, 68
4, 25620, Note_on_c, 2, 64, 68
4, 25665, Note_on_c, 2, 64, 0
4, 25665, Note_on_c, 2, 55, 0
4, 25665, Note_on_c, 2, 55, 68
4, 25665, Note_on_c, 2, 64, 68
4, 25680, Note_on_c, 2, 64, 0
4, 25680, Note_on_c, 2, 55, 0
4, 25680, Note_on_c, 2, 55, 68
4, 25680, Note_on_c, 2, 64, 68
4, 25736, Note_on_c, 2, 64, 0
4, 25736, Note_on_c, 2, 55, 0
4, 25740, Note_on_c, 2, 55, 68
4, 25740, Note_on_c, 2, 64, 68
4, 25796, Note_on_c, 2, 64, 0
4, 25796, Note_on_c, 2, 55, 0
4, 25800, Note_on_c, 2, 55, 68
4, 25800, Note_on_c, 2, 64, 68
4, 25856, Note_on_c, 2, 64, 0
4, 25856, Note_on_c, 2, 55, 0
4, 25860, Note_on_c, 2, 55, 68
4, 25860, Note_on_c, 2, 64, 68
4, 25916, Note_on_c, 2, 64, 0
4, 25916, Note_on_c, 2, 55, 0
4, 25920, Note_on_c, 2, 55, 61
4, 25920, Note_on_c, 2, 64, 61
4, 25980, Note_on_c, 2, 64, 0
4, 25980, Note_on_c, 2, 55, 0
4, 25982, Note_on_c, 2, 60, 53
4, 26100, Note_on_c, 2, 61, 53
4, 26102, Note_on_c, 2, 60, 0
4, 26156, Note_on_c, 2, 60, 53
4, 26160, Note_on_c, 2, 61, 0
4, 26216, Note_on_c, 2, 60, 0
4, 26217, Note_on_c, 2, 59, 53
4, 26277, Note_on_c, 2, 59, 0
4, 26280, Note_on_c, 2, 60, 63
4, 26460, Note_on_c, 2, 60, 0
4, 26460, Note_on_c, 2, 61, 53
4, 26520, Note_on_c, 2, 61, 0
4, 26520, Note_on_c, 2, 60, 53
4, 26580, Note_on_c, 2, 60, 0
4, 26580, Note_on_c, 2, 59, 53
4, 26640, Note_on_c, 2, 59, 0
4, 26640, Note_on_c, 2, 60, 53
4, 26780, Note_on_c, 2, 60, 0
4, 26780, Note_on_c, 2, 61, 53
4, 26800, Note_on_c, 2, 61, 0
4, 26800, Note_on_c, 2, 62, 53
4, 26820, Note_on_c, 2, 62, 0
4, 26821, Note_on_c, 2, 60, 53
4, 26837, Note_on_c, 2, 60, 0
4, 26841, Note_on_c, 2, 58, 53
4, 26857, Note_on_c, 2, 58, 0
4, 26860, Note_on_c, 2, 57, 53
4, 26876, Note_on_c, 2, 57, 0
4, 26879, Note_on_c, 2, 55, 53
4, 26895, Note_on_c, 2, 55, 0
4, 26899, Note_on_c, 2, 53, 53
4, 26915, Note_on_c, 2, 53, 0
4, 26920, Note_on_c, 2, 52, 53
4, 26936, Note_on_c, 2, 52, 0
4, 26940, Note_on_c, 2, 60, 53
4, 26960, Note_on_c, 2, 60, 0
4, 26960, Note_on_c, 2, 58, 53
4, 26980, Note_on_c, 2, 58, 0
4, 26980, Note_on_c, 2, 55, 53
4, 27000, Note_on_c, 2, 55, 0
4, 27000, Note_on_c, 2, 48, 41
4, 27000, Note_on_c, 2, 53, 41
4, 27120, Note_on_c, 2, 53, 0
4, 27120, Note_on_c, 2, 48, 0
4, 27120, Note_on_c, 2, 52, 41
4, 27120, Note_on_c, 2, 55, 41
4, 27240, Note_on_c, 2, 55, 0
4, 27240, Note_on_c, 2, 52, 0
4, 27240, Note_on_c, 2, 53, 41
4, 27240, Note_on_c, 2, 57, 41
4, 27360, Note_on_c, 2, 57, 0
4, 27360, Note_on_c, 2, 53, 0
4, 27360, Note_on_c, 2, 55, 41
4, 27360, Note_on_c, 2, 58, 41
4, 27480, Note_on_c, 2, 58, 0
4, 27480, Note_on_c, 2, 55, 0
4, 27480, Note_on_c, 2, 52, 41
4, 27480, Note_on_c, 2, 55, 41
4, 27540, Note_on_c, 2, 55, 0
4, 27540, Note_on_c, 2, 52, 0
4, 27720, Note_on_c, 2, 52, 41
4, 27720, Note_on_c, 2, 55, 41
4, 27840, Note_on_c, 2, 55, 0
4, 27840, Note_on_c, 2, 52, 0
4, 27840, Note_on_c, 2, 53, 41
4, 27840, Note_on_c, 2, 57, 41
4, 27960, Note_on_c, 2, 57, 0
4, 27960, Note_on_c, 2, 53, 0
4, 27960, Note_on_c, 2, 55, 41
4, 27960, Note_on_c, 2, 58, 41
4, 28080, Note_on_c, 2, 58, 0
4, 28080, Note_on_c, 2, 55, 0
4, 28080, Note_on_c, 2, 57, 41
4, 28080, Note_on_c, 2, 60, 41
4, 28200, Note_on_c, 2, 60, 0
4, 28200, Note_on_c, 2, 57, 0
4, 28200, Note_on_c, 2, 53, 41
4, 28200, Note_on_c, 2, 57, 41
4, 28260, Note_on_c, 2, 57, 0
4, 28260, Note_on_c, 2, 53, 0
4, 28440, Note_on_c, 2, 54, 50
4, 28440, Note_on_c, 2, 60, 50
4, 28560, Note_on_c, 2, 60, 0
4, 28560, Note_on_c, 2, 54, 0
4, 28560, Note_on_c, 2, 53, 50
4, 28560, Note_on_c, 2, 59, 50
4, 28680, Note_on_c, 2, 59, 0
4, 28680, Note_on_c, 2, 53, 0
4, 28680, Note_on_c, 2, 52, 50
4, 28680, Note_on_c, 2, 58, 50
4, 28800, Note_on_c, 2, 58, 0
4, 28800, Note_on_c, 2, 52, 0
4, 28800, Note_on_c, 2, 51, 50
4, 28800, Note_on_c, 2, 57, 50
4, 28920, Note_on_c, 2, 57, 0
4, 28920, Note_on_c, 2, 51, 0
4, 28920, Note_on_c, 2, 55, 50
4, 28980, Note_on_c, 2, 55, 0
4, 28980, Note_on_c, 2, 58, 50
4, 28980, Note_on_c, 2, 62, 50
4, 29040, Note_on_c, 2, 62, 0
4, 29040, Note_on_c, 2, 64, 50
4, 29100, Note_on_c, 2, 64, 0
4, 29100, Note_on_c, 2, 58, 0
4, 29100, Note_on_c, 2, 57, 50
4, 29100, Note_on_c, 2, 65, 50
4, 29160, Note_on_c, 2, 65, 0
4, 29160, Note_on_c, 2, 57, 0
4, 29580, Note_on_c, 2, 54, 47
4, 29580, Note_on_c, 2, 60, 47
4, 29640, Note_on_c, 2, 60, 0
4, 29640, Note_on_c, 2, 54, 0
4, 29700, Note_on_c, 2, 53, 47
4, 29700, Note_on_c, 2, 59, 47
4, 29760, Note_on_c, 2, 59, 0
4, 29760, Note_on_c, 2, 53, 0
4, 29820, Note_on_c, 2, 52, 47
4, 29820, Note_on_c, 2, 58, 47
4, 29880, Note_on_c, 2, 58, 0
4, 29880, Note_on_c, 2, 52, 0
4, 29940, Note_on_c, 2, 51, 47
4, 29940, Note_on_c, 2, 57, 47
4, 30000, Note_on_c, 2, 57, 0
4, 30000, Note_on_c, 2, 51, 0
4, 30059, Note_on_c, 2, 58, 47
4, 30060, Note_on_c, 2, 50, 47
4, 30120, Note_on_c, 2, 50, 0
4, 30120, Note_on_c, 2, 52, 47
4, 30179, Note_on_c, 2, 58, 0
4, 30179, Note_on_c, 2, 57, 47
4, 30180, Note_on_c, 2, 52, 0
4, 30180, Note_on_c, 2, 53, 47
4, 30239, Note_on_c, 2, 57, 0
4, 30240, Note_on_c, 2, 53, 0
4, 30240, Note_on_c, 2, 58, 47
4, 30240, Note_on_c, 2, 55, 47
4, 30300, Note_on_c, 2, 58, 0
4, 30300, Note_on_c, 2, 59, 48
4, 30356, Note_on_c, 2, 57, 49
4, 30360, Note_on_c, 2, 59, 0
4, 30360, Note_on_c, 2, 55, 0
4, 30360, Note_on_c, 2, 61, 49
4, 30416, Note_on_c, 2, 57, 0
4, 30420, Note_on_c, 2, 61, 0
4, 30420, Note_on_c, 2, 62, 50
4, 30421, Note_on_c, 2, 58, 50
4, 30480, Note_on_c, 2, 51, 51
4, 30481, Note_on_c, 2, 58, 0
4, 30540, Note_on_c, 2, 62, 0
4, 30540, Note_on_c, 2, 60, 52
4, 30600, Note_on_c, 2, 51, 0
4, 30600, Note_on_c, 2, 50, 54
4, 30656, Note_on_c, 2, 50, 0
4, 30656, Note_on_c, 2, 60, 0
4, 30659, Note_on_c, 2, 64, 55
4, 30660, Note_on_c, 2, 55, 56
4, 30718, Note_on_c, 2, 65, 56
4, 30720, Note_on_c, 2, 55, 0
4, 30720, Note_on_c, 2, 57, 56
4, 30775, Note_on_c, 2, 64, 0
4, 30778, Note_on_c, 2, 62, 57
4, 30780, Note_on_c, 2, 57, 0
4, 30780, Note_on_c, 2, 58, 57
4, 30834, Note_on_c, 2, 62, 0
4, 30834, Note_on_c, 2, 65, 0
4, 30836, Note_on_c, 2, 58, 0
4, 30838, Note_on_c, 2, 60, 59
4, 30840, Note_on_c, 2, 57, 59
4, 30894, Note_on_c, 2, 60, 0
4, 30896, Note_on_c, 2, 57, 0
4, 30899, Note_on_c, 2, 58, 60
4, 30900, Note_on_c, 2, 55, 60
4, 30955, Note_on_c, 2, 58, 0
4, 30956, Note_on_c, 2, 55, 0
4, 30960, Note_on_c, 2, 53, 47
4, 30960, Note_on_c, 2, 57, 47
4, 31012, Note_on_c, 2, 57, 0
4, 31012, Note_on_c, 2, 53, 0
4, 31019, Note_on_c, 2, 57, 51
4, 31020, Note_on_c, 2, 53, 50
4, 31079, Note_on_c, 2, 57, 0
4, 31080, Note_on_c, 2, 53, 0
4, 31080, Note_on_c, 2, 55, 50
4, 31080, Note_on_c, 2, 58, 51
4, 31140, Note_on_c, 2, 58, 0
4, 31140, Note_on_c, 2, 55, 0
4, 31140, Note_on_c, 2, 57, 50
4, 31140, Note_on_c, 2, 60, 51
4, 31200, Note_on_c, 2, 60, 0
4, 31200, Note_on_c, 2, 57, 0
4, 31200, Note_on_c, 2, 58, 51
4, 31200, Note_on_c, 2, 62, 51
4, 31220, Note_on_c, 2, 62, 0
4, 31220, Note_on_c, 2, 58, 0
4, 31220, Note_on_c, 2, 57, 51
4, 31220, Note_on_c, 2, 61, 51
4, 31240, Note_on_c, 2, 61, 0
4, 31240, Note_on_c, 2, 57, 0
4, 31240, Note_on_c, 2, 58, 51
4, 31240, Note_on_c, 2, 62, 51
4, 31260, Note_on_c, 2, 62, 0
4, 31260, Note_on_c, 2, 58, 0
4, 31260, Note_on_c, 2, 62, 51
4, 31260, Note_on_c, 2, 65, 51
4, 31280, Note_on_c, 2, 65, 0
4, 31280, Note_on_c, 2, 62, 0
4, 31280, Note_on_c, 2, 60, 51
4, 31280, Note_on_c, 2, 64, 51
4, 31300, Note_on_c, 2, 64, 0
4, 31300, Note_on_c, 2, 60, 0
4, 31300, Note_on_c, 2, 58, 51
4, 31300, Note_on_c, 2, 62, 51
4, 31320, Note_on_c, 2, 62, 0
4, 31320, Note_on_c, 2, 58, 0
4, 31320, Note_on_c, 2, 53, 50
4, 31320, Note_on_c, 2, 57, 51
4, 31380, Note_on_c, 2, 57, 0
4, 31380, Note_on_c, 2, 53, 0
4, 31739, Note_on_c, 2, 57, 51
4, 31740, Note_on_c, 2, 53, 50
4, 31799, Note_on_c, 2, 57, 0
4, 31800, Note_on_c, 2, 53, 0
4, 31800, Note_on_c, 2, 55, 50
4, 31800, Note_on_c, 2, 58, 51
4, 31860, Note_on_c, 2, 58, 0
4, 31860, Note_on_c, 2, 55, 0
4, 31860, Note_on_c, 2, 57, 50
4, 31860, Note_on_c, 2, 60, 51
4, 31920, Note_on_c, 2, 60, 0
4, 31920, Note_on_c, 2, 57, 0
4, 31920, Note_on_c, 2, 58, 51
4, 31920, Note_on_c, 2, 62, 51
4, 31940, Note_on_c, 2, 62, 0
4, 31940, Note_on_c, 2, 58, 0
4, 31940, Note_on_c, 2, 57, 51
4, 31940, Note_on_c, 2, 61, 51
4, 31960, Note_on_c, 2, 61, 0
4, 31960, Note_on_c, 2, 57, 0
4, 31960, Note_on_c, 2, 58, 51
4, 31960, Note_on_c, 2, 62, 51
4, 31980, Note_on_c, 2, 62, 0
4, 31980, Note_on_c, 2, 58, 0
4, 31980, Note_on_c, 2, 62, 51
4, 31980, Note_on_c, 2, 65, 51
4, 32000, Note_on_c, 2, 65, 0
4, 32000, Note_on_c, 2, 62, 0
4, 32000, Note_on_c, 2, 60, 51
4, 32000, Note_on_c, 2, 64, 51
4, 32020, Note_on_c, 2, 64, 0
4, 32020, Note_on_c, 2, 60, 0
4, 32020, Note_on_c, 2, 58, 51
4, 32020, Note_on_c, 2, 62, 51
4, 32040, Note_on_c, 2, 62, 0
4, 32040, Note_on_c, 2, 58, 0
4, 32040, Note_on_c, 2, 53, 50
4, 32040, Note_on_c, 2, 57, 51
4, 32100, Note_on_c, 2, 57, 0
4, 32100, Note_on_c, 2, 53, 0
4, 32340, Note_on_c, 2, 58, 49
4, 32340, Note_on_c, 2, 64, 49
4, 32397, Note_on_c, 2, 64, 0
4, 32397, Note_on_c, 2, 58, 0
4, 32400, Note_on_c, 2, 58, 49
4, 32400, Note_on_c, 2, 64, 49
4, 32520, Note_on_c, 2, 64, 0
4, 32520, Note_on_c, 2, 58, 0
4, 32520, Note_on_c, 2, 57, 49
4, 32520, Note_on_c, 2, 65, 49
4, 32580, Note_on_c, 2, 65, 0
4, 32580, Note_on_c, 2, 57, 0
4, 33255, Note_on_c, 2, 54, 45
4, 33270, Note_on_c, 2, 54, 0
4, 33270, Note_on_c, 2, 55, 45
4, 33285, Note_on_c, 2, 55, 0
4, 33285, Note_on_c, 2, 54, 45
4, 33300, Note_on_c, 2, 54, 0
4, 33300, Note_on_c, 2, 55, 44
4, 33315, Note_on_c, 2, 55, 0
4, 33315, Note_on_c, 2, 57, 44
4, 33330, Note_on_c, 2, 57, 0
4, 33330, Note_on_c, 2, 58, 43
4, 33345, Note_on_c, 2, 58, 0
4, 33345, Note_on_c, 2, 57, 43
4, 33360, Note_on_c, 2, 57, 0
4, 33360, Note_on_c, 2, 60, 42
4, 33375, Note_on_c, 2, 60, 0
4, 33375, Note_on_c, 2, 58, 41
4, 33390, Note_on_c, 2, 58, 0
4, 33390, Note_on_c, 2, 57, 41
4, 33405, Note_on_c, 2, 57, 0
4, 33405, Note_on_c, 2, 55, 40
4, 33420, Note_on_c, 2, 55, 0
4, 33420, Note_on_c, 2, 57, 40
4, 33435, Note_on_c, 2, 57, 0
4, 33435, Note_on_c, 2, 55, 39
4, 33450, Note_on_c, 2, 55, 0
4, 33450, Note_on_c, 2, 53, 39
4, 33465, Note_on_c, 2, 53, 0
4, 33465, Note_on_c, 2, 52, 39
4, 33480, Note_on_c, 2, 52, 0
4, 33615, Note_on_c, 2, 56, 51
4, 33630, Note_on_c, 2, 56, 0
4, 33630, Note_on_c, 2, 57, 51
4, 33645, Note_on_c, 2, 57, 0
4, 33645, Note_on_c, 2, 56, 51
4, 33660, Note_on_c, 2, 56, 0
4, 33660, Note_on_c, 2, 57, 51
4, 33675, Note_on_c, 2, 57, 0
4, 33675, Note_on_c, 2, 59, 51
4, 33690, Note_on_c, 2, 59, 0
4, 33690, Note_on_c, 2, 60, 51
4, 33705, Note_on_c, 2, 60, 0
4, 33705, Note_on_c, 2, 59, 51
4, 33720, Note_on_c, 2, 59, 0
4, 33720, Note_on_c, 2, 62, 51
4, 33735, Note_on_c, 2, 62, 0
4, 33735, Note_on_c, 2, 60, 51
4, 33750, Note_on_c, 2, 60, 0
4, 33750, Note_on_c, 2, 58, 51
4, 33765, Note_on_c, 2, 58, 0
4, 33765, Note_on_c, 2, 57, 51
4, 33780, Note_on_c, 2, 57, 0
4, 33780, Note_on_c, 2, 58, 51
4, 33795, Note_on_c, 2, 58, 0
4, 33795, Note_on_c, 2, 57, 51
4, 33810, Note_on_c, 2, 57, 0
4, 33810, Note_on_c, 2, 55, 51
4, 33825, Note_on_c, 2, 55, 0
4, 33825, Note_on_c, 2, 53, 51
4, 33840, Note_on_c, 2, 53, 0
4, 33840, Note_on_c, 2, 58, 50
4, 33840, Note_on_c, 2, 62, 50
4, 34200, Note_on_c, 2, 62, 0
4, 34200, Note_on_c, 2, 58, 0
4, 34200, Note_on_c, 2, 57, 50
4, 34200, Note_on_c, 2, 60, 50
4, 34440, Note_on_c, 2, 60, 0
4, 34440, Note_on_c, 2, 57, 0
4, 34440, Note_on_c, 2, 55, 50
4, 34440, Note_on_c, 2, 58, 50
4, 34560, Note_on_c, 2, 58, 0
4, 34560, Note_on_c, 2, 55, 0
4, 34560, Note_on_c, 2, 57, 42
4, 34708, Note_on_c, 2, 57, 0
4, 34710, Note_on_c, 2, 58, 42
4, 34725, Note_on_c, 2, 58, 0
4, 34725, Note_on_c, 2, 57, 42
4, 34740, Note_on_c, 2, 57, 0
4, 34740, Note_on_c, 2, 56, 42
4, 34755, Note_on_c, 2, 56, 0
4, 34755, Note_on_c, 2, 57, 42
4, 34770, Note_on_c, 2, 57, 0
4, 34770, Note_on_c, 2, 56, 42
4, 34785, Note_on_c, 2, 56, 0
4, 34785, Note_on_c, 2, 57, 42
4, 34800, Note_on_c, 2, 57, 0
4, 34800, Note_on_c, 2, 60, 42
4, 34830, Note_on_c, 2, 60, 0
4, 34830, Note_on_c, 2, 58, 42
4, 34860, Note_on_c, 2, 58, 0
4, 34860, Note_on_c, 2, 57, 42
4, 34890, Note_on_c, 2, 57, 0
4, 34890, Note_on_c, 2, 55, 42
4, 34920, Note_on_c, 2, 55, 0
4, 34920, Note_on_c, 2, 60, 42
4, 34965, Note_on_c, 2, 60, 0
4, 34965, Note_on_c, 2, 57, 41
4, 34978, Note_on_c, 2, 53, 40
4, 34980, Note_on_c, 2, 57, 0
4, 35098, Note_on_c, 2, 53, 0
4, 35100, Note_on_c, 2, 55, 38
4, 35130, Note_on_c, 2, 55, 0
4, 35130, Note_on_c, 2, 57, 38
4, 35157, Note_on_c, 2, 57, 0
4, 35160, Note_on_c, 2, 57, 38
4, 35190, Note_on_c, 2, 57, 0
4, 35190, Note_on_c, 2, 55, 37
4, 35220, Note_on_c, 2, 55, 0
4, 35220, Note_on_c, 2, 53, 36
4, 35250, Note_on_c, 2, 53, 0
4, 35250, Note_on_c, 2, 52, 36
4, 35280, Note_on_c, 2, 52, 0
4, 35280, Note_on_c, 2, 53, 35
4, 35340, Note_on_c, 2, 53, 0
4, 36000, Note_on_c, 2, 55, 45
4, 36000, Note_on_c, 2, 64, 45
4, 36120, Note_on_c, 2, 64, 0
4, 36120, Note_on_c, 2, 55, 0
4, 36120, Note_on_c, 2, 57, 45
4, 36120, Note_on_c, 2, 65, 44
4, 36180, Note_on_c, 2, 65, 0
4, 36180, Note_on_c, 2, 57, 0
4, 36180, End_track
5, 0, Start_track
5, 0, MIDI_port, 0
5, 0, Title_t, "Corni"
5, 0, Program_c, 3, 60
5, 0, Control_c, 3, 7, 85
5, 0, Control_c, 3, 10, 31
5, 480, Note_on_c, 3, 60, 55
5, 480, Note_on_c, 3, 67, 55
5, 520, Note_on_c, 3, 67, 0
5, 520, Note_on_c, 3, 60, 0
5, 1200, Note_on_c, 3, 53, 55
5, 1200, Note_on_c, 3, 65, 55
5, 1240, Note_on_c, 3, 65, 0
5, 1240, Note_on_c, 3, 53, 0
5, 2160, Note_on_c, 3, 65, 62
5, 2160, Note_on_c, 3, 53, 62
5, 2520, Note_on_c, 3, 53, 0
5, 2520, Note_on_c, 3, 65, 0
5, 2520, Note_on_c, 3, 48, 62
5, 2520, Note_on_c, 3, 60, 62
5, 2880, Note_on_c, 3, 60, 0
5, 2880, Note_on_c, 3, 48, 0
5, 3600, Note_on_c, 3, 48, 51
5, 3600, Note_on_c, 3, 60, 51
5, 3660, Note_on_c, 3, 60, 0
5, 3660, Note_on_c, 3, 48, 0
5, 3660, Note_on_c, 3, 48, 51
5, 3660, Note_on_c, 3, 60, 51
5, 3720, Note_on_c, 3, 60, 0
5, 3720, Note_on_c, 3, 48, 0
5, 3720, Note_on_c, 3, 48, 51
5, 3720, Note_on_c, 3, 60, 51
5, 3780, Note_on_c, 3, 60, 0
5, 3780, Note_on_c, 3, 48, 0
5, 3780, Note_on_c, 3, 48, 51
5, 3780, Note_on_c, 3, 60, 51
5, 3840, Note_on_c, 3, 60, 0
5, 3840, Note_on_c, 3, 48, 0
5, 3840, Note_on_c, 3, 48, 51
5, 3840, Note_on_c, 3, 60, 51
5, 3900, Note_on_c, 3, 60, 0
5, 3900, Note_on_c, 3, 48, 0
5, 3900, Note_on_c, 3, 48, 51
5, 3900, Note_on_c, 3, 60, 51
5, 3960, Note_on_c, 3, 60, 0
5, 3960, Note_on_c, 3, 48, 0
5, 3960, Note_on_c, 3, 48, 51
5, 3960, Note_on_c, 3, 60, 51
5, 4020, Note_on_c, 3, 60, 0
5, 4020, Note_on_c, 3, 48, 0
5, 4020, Note_on_c, 3, 48, 51
5, 4020, Note_on_c, 3, 60, 51
5, 4080, Note_on_c, 3, 60, 0
5, 4080, Note_on_c, 3, 48, 0
5, 4080, Note_on_c, 3, 48, 51
5, 4080, Note_on_c, 3, 60, 51
5, 4140, Note_on_c, 3, 60, 0
5, 4140, Note_on_c, 3, 48, 0
5, 4140, Note_on_c, 3, 48, 51
5, 4140, Note_on_c, 3, 60, 51
5, 4200, Note_on_c, 3, 60, 0
5, 4200, Note_on_c, 3, 48, 0
5, 4200, Note_on_c, 3, 48, 51
5, 4200, Note_on_c, 3, 60, 51
5, 4260, Note_on_c, 3, 60, 0
5, 4260, Note_on_c, 3, 48, 0
5, 4260, Note_on_c, 3, 48, 51
5, 4260, Note_on_c, 3, 60, 51
5, 4320, Note_on_c, 3, 60, 0
5, 4320, Note_on_c, 3, 48, 0
5, 4320, Note_on_c, 3, 48, 51
5, 4320, Note_on_c, 3, 60, 51
5, 4380, Note_on_c, 3, 60, 0
5, 4380, Note_on_c, 3, 48, 0
5, 4380, Note_on_c, 3, 48, 51
5, 4380, Note_on_c, 3, 60, 51
5, 4440, Note_on_c, 3, 60, 0
5, 4440, Note_on_c, 3, 48, 0
5, 4440, Note_on_c, 3, 48, 51
5, 4440, Note_on_c, 3, 60, 51
5, 4500, Note_on_c, 3, 60, 0
5, 4500, Note_on_c, 3, 48, 0
5, 4500, Note_on_c, 3, 48, 51
5, 4500, Note_on_c, 3, 60, 51
5, 4560, Note_on_c, 3, 60, 0
5, 4560, Note_on_c, 3, 48, 0
5, 4560, Note_on_c, 3, 48, 51
5, 4560, Note_on_c, 3, 60, 51
5, 4620, Note_on_c, 3, 60, 0
5, 4620, Note_on_c, 3, 48, 0
5, 4620, Note_on_c, 3, 48, 51
5, 4620, Note_on_c, 3, 60, 51
5, 4680, Note_on_c, 3, 60, 0
5, 4680, Note_on_c, 3, 48, 0
5, 4680, Note_on_c, 3, 48, 51
5, 4680, Note_on_c, 3, 60, 51
5, 4740, Note_on_c, 3, 60, 0
5, 4740, Note_on_c, 3, 48, 0
5, 4740, Note_on_c, 3, 53, 51
5, 4740, Note_on_c, 3, 65, 51
5, 4800, Note_on_c, 3, 65, 0
5, 4800, Note_on_c, 3, 53, 0
5, 4800, Note_on_c, 3, 53, 51
5, 4800, Note_on_c, 3, 65, 51
5, 4860, Note_on_c, 3, 65, 0
5, 4860, Note_on_c, 3, 53, 0
5, 4860, Note_on_c, 3, 53, 51
5, 4860, Note_on_c, 3, 65, 51
5, 4920, Note_on_c, 3, 65, 0
5, 4920, Note_on_c, 3, 53, 0
5, 4920, Note_on_c, 3, 53, 51
5, 4920, Note_on_c, 3, 65, 51
5, 4980, Note_on_c, 3, 65, 0
5, 4980, Note_on_c, 3, 53, 0
5, 4980, Note_on_c, 3, 53, 51
5, 4980, Note_on_c, 3, 65, 51
5, 5040, Note_on_c, 3, 65, 0
5, 5040, Note_on_c, 3, 53, 0
5, 5760, Note_on_c, 3, 48, 50
5, 5760, Note_on_c, 3, 60, 50
5, 6240, Note_on_c, 3, 60, 0
5, 6240, Note_on_c, 3, 48, 0
5, 6480, Note_on_c, 3, 48, 59
5, 6480, Note_on_c, 3, 60, 58
5, 6960, Note_on_c, 3, 60, 0
5, 6960, Note_on_c, 3, 48, 0
5, 7200, Note_on_c, 3, 48, 59
5, 7200, Note_on_c, 3, 60, 59
5, 7680, Note_on_c, 3, 60, 0
5, 7680, Note_on_c, 3, 48, 0
5, 7920, Note_on_c, 3, 48, 68
5, 7920, Note_on_c, 3, 60, 68
5, 8160, Note_on_c, 3, 60, 0
5, 8160, Note_on_c, 3, 48, 0
5, 8160, Note_on_c, 3, 48, 68
5, 8160, Note_on_c, 3, 60, 68
5, 8400, Note_on_c, 3, 60, 0
5, 8400, Note_on_c, 3, 48, 0
5, 8400, Note_on_c, 3, 48, 68
5, 8400, Note_on_c, 3, 60, 68
5, 8640, Note_on_c, 3, 60, 0
5, 8640, Note_on_c, 3, 48, 0
5, 8640, Note_on_c, 3, 48, 68
5, 8640, Note_on_c, 3, 60, 68
5, 8880, Note_on_c, 3, 60, 0
5, 8880, Note_on_c, 3, 48, 0
5, 8880, Note_on_c, 3, 48, 68
5, 8880, Note_on_c, 3, 60, 68
5, 9120, Note_on_c, 3, 60, 0
5, 9120, Note_on_c, 3, 48, 0
5, 9720, Note_on_c, 3, 67, 52
5, 9720, Note_on_c, 3, 67, 52
5, 10259, Note_on_c, 3, 67, 0
5, 10259, Note_on_c, 3, 67, 0
5, 10260, Note_on_c, 3, 67, 52
5, 10260, Note_on_c, 3, 67, 52
5, 10319, Note_on_c, 3, 67, 0
5, 10319, Note_on_c, 3, 67, 0
5, 10320, Note_on_c, 3, 67, 52
5, 10320, Note_on_c, 3, 67, 52
5, 10379, Note_on_c, 3, 67, 0
5, 10379, Note_on_c, 3, 67, 0
5, 10380, Note_on_c, 3, 67, 52
5, 10380, Note_on_c, 3, 67, 52
5, 10439, Note_on_c, 3, 67, 0
5, 10439, Note_on_c, 3, 67, 0
5, 10440, Note_on_c, 3, 67, 52
5, 10440, Note_on_c, 3, 67, 52
5, 10979, Note_on_c, 3, 67, 0
5, 10979, Note_on_c, 3, 67, 0
5, 10980, Note_on_c, 3, 60, 52
5, 10980, Note_on_c, 3, 67, 52
5, 11039, Note_on_c, 3, 67, 0
5, 11039, Note_on_c, 3, 60, 0
5, 11040, Note_on_c, 3, 60, 52
5, 11040, Note_on_c, 3, 67, 52
5, 11099, Note_on_c, 3, 67, 0
5, 11099, Note_on_c, 3, 60, 0
5, 11100, Note_on_c, 3, 60, 52
5, 11100, Note_on_c, 3, 67, 52
5, 11159, Note_on_c, 3, 67, 0
5, 11159, Note_on_c, 3, 60, 0
5, 13700, Note_on_c, 3, 60, 45
5, 13701, Note_on_c, 3, 48, 45
5, 13719, Note_on_c, 3, 60, 0
5, 13720, Note_on_c, 3, 48, 0
5, 13720, Note_on_c, 3, 60, 45
5, 13721, Note_on_c, 3, 48, 45
5, 13739, Note_on_c, 3, 60, 0
5, 13739, Note_on_c, 3, 60, 45
5, 13739, Note_on_c, 3, 48, 45
5, 13740, Note_on_c, 3, 48, 0
5, 13758, Note_on_c, 3, 60, 0
5, 13758, Note_on_c, 3, 48, 0
5, 13759, Note_on_c, 3, 60, 45
5, 13759, Note_on_c, 3, 48, 45
5, 13778, Note_on_c, 3, 48, 0
5, 13778, Note_on_c, 3, 60, 0
5, 13779, Note_on_c, 3, 60, 45
5, 13779, Note_on_c, 3, 48, 45
5, 13798, Note_on_c, 3, 48, 0
5, 13798, Note_on_c, 3, 60, 0
5, 13799, Note_on_c, 3, 48, 45
5, 13801, Note_on_c, 3, 60, 45
5, 13818, Note_on_c, 3, 48, 0
5, 13819, Note_on_c, 3, 48, 45
5, 13820, Note_on_c, 3, 60, 0
5, 13821, Note_on_c, 3, 60, 45
5, 13838, Note_on_c, 3, 48, 0
5, 13839, Note_on_c, 3, 48, 45
5, 13840, Note_on_c, 3, 60, 0
5, 13841, Note_on_c, 3, 60, 45
5, 13858, Note_on_c, 3, 48, 0
5, 13859, Note_on_c, 3, 48, 45
5, 13860, Note_on_c, 3, 60, 0
5, 13860, Note_on_c, 3, 60, 45
5, 13878, Note_on_c, 3, 48, 0
5, 13879, Note_on_c, 3, 60, 0
5, 13879, Note_on_c, 3, 48, 45
5, 13880, Note_on_c, 3, 60, 45
5, 13898, Note_on_c, 3, 48, 0
5, 13899, Note_on_c, 3, 60, 0
5, 13899, Note_on_c, 3, 48, 45
5, 13900, Note_on_c, 3, 60, 45
5, 13918, Note_on_c, 3, 48, 0
5, 13918, Note_on_c, 3, 48, 45
5, 13919, Note_on_c, 3, 60, 0
5, 13922, Note_on_c, 3, 60, 45
5, 13937, Note_on_c, 3, 48, 0
5, 13938, Note_on_c, 3, 48, 45
5, 13941, Note_on_c, 3, 60, 0
5, 13942, Note_on_c, 3, 60, 45
5, 13957, Note_on_c, 3, 48, 0
5, 13958, Note_on_c, 3, 48, 45
5, 13961, Note_on_c, 3, 60, 0
5, 13962, Note_on_c, 3, 60, 45
5, 13977, Note_on_c, 3, 48, 0
5, 13979, Note_on_c, 3, 48, 45
5, 13981, Note_on_c, 3, 60, 0
5, 13981, Note_on_c, 3, 60, 45
5, 13998, Note_on_c, 3, 48, 0
5, 13999, Note_on_c, 3, 48, 45
5, 14000, Note_on_c, 3, 60, 0
5, 14001, Note_on_c, 3, 60, 45
5, 14018, Note_on_c, 3, 48, 0
5, 14019, Note_on_c, 3, 48, 45
5, 14020, Note_on_c, 3, 60, 0
5, 14021, Note_on_c, 3, 60, 45
5, 14038, Note_on_c, 3, 48, 0
5, 14040, Note_on_c, 3, 60, 0
5, 14040, Note_on_c, 3, 48, 45
5, 14040, Note_on_c, 3, 60, 45
5, 14100, Note_on_c, 3, 60, 0
5, 14100, Note_on_c, 3, 48, 0
5, 14420, Note_on_c, 3, 60, 45
5, 14421, Note_on_c, 3, 48, 45
5, 14439, Note_on_c, 3, 60, 0
5, 14440, Note_on_c, 3, 48, 0
5, 14440, Note_on_c, 3, 60, 45
5, 14441, Note_on_c, 3, 48, 45
5, 14459, Note_on_c, 3, 60, 0
5, 14459, Note_on_c, 3, 60, 45
5, 14459, Note_on_c, 3, 48, 45
5, 14460, Note_on_c, 3, 48, 0
5, 14478, Note_on_c, 3, 60, 0
5, 14478, Note_on_c, 3, 48, 0
5, 14479, Note_on_c, 3, 60, 45
5, 14479, Note_on_c, 3, 48, 45
5, 14498, Note_on_c, 3, 48, 0
5, 14498, Note_on_c, 3, 60, 0
5, 14499, Note_on_c, 3, 60, 45
5, 14499, Note_on_c, 3, 48, 45
5, 14518, Note_on_c, 3, 48, 0
5, 14518, Note_on_c, 3, 60, 0
5, 14519, Note_on_c, 3, 48, 45
5, 14521, Note_on_c, 3, 60, 45
5, 14538, Note_on_c, 3, 48, 0
5, 14539, Note_on_c, 3, 48, 45
5, 14540, Note_on_c, 3, 60, 0
5, 14541, Note_on_c, 3, 60, 45
5, 14558, Note_on_c, 3, 48, 0
5, 14559, Note_on_c, 3, 48, 45
5, 14560, Note_on_c, 3, 60, 0
5, 14561, Note_on_c, 3, 60, 45
5, 14578, Note_on_c, 3, 48, 0
5, 14579, Note_on_c, 3, 48, 45
5, 14580, Note_on_c, 3, 60, 0
5, 14580, Note_on_c, 3, 60, 45
5, 14598, Note_on_c, 3, 48, 0
5, 14599, Note_on_c, 3, 60, 0
5, 14599, Note_on_c, 3, 48, 45
5, 14600, Note_on_c, 3, 60, 45
5, 14618, Note_on_c, 3, 48, 0
5, 14619, Note_on_c, 3, 60, 0
5, 14619, Note_on_c, 3, 48, 45
5, 14620, Note_on_c, 3, 60, 45
5, 14638, Note_on_c, 3, 48, 0
5, 14638, Note_on_c, 3, 48, 45
5, 14639, Note_on_c, 3, 60, 0
5, 14642, Note_on_c, 3, 60, 45
5, 14657, Note_on_c, 3, 48, 0
5, 14658, Note_on_c, 3, 48, 45
5, 14661, Note_on_c, 3, 60, 0
5, 14662, Note_on_c, 3, 60, 45
5, 14677, Note_on_c, 3, 48, 0
5, 14678, Note_on_c, 3, 48, 45
5, 14681, Note_on_c, 3, 60, 0
5, 14682, Note_on_c, 3, 60, 45
5, 14697, Note_on_c, 3, 48, 0
5, 14699, Note_on_c, 3, 48, 45
5, 14701, Note_on_c, 3, 60, 0
5, 14701, Note_on_c, 3, 60, 45
5, 14718, Note_on_c, 3, 48, 0
5, 14719, Note_on_c, 3, 48, 45
5, 14720, Note_on_c, 3, 60, 0
5, 14721, Note_on_c, 3, 60, 45
5, 14738, Note_on_c, 3, 48, 0
5, 14739, Note_on_c, 3, 48, 45
5, 14740, Note_on_c, 3, 60, 0
5, 14741, Note_on_c, 3, 60, 45
5, 14758, Note_on_c, 3, 48, 0
5, 14760, Note_on_c, 3, 60, 0
5, 14760, Note_on_c, 3, 48, 45
5, 14760, Note_on_c, 3, 60, 45
5, 14820, Note_on_c, 3, 60, 0
5, 14820, Note_on_c, 3, 48, 0
5, 16380, Note_on_c, 3, 69, 52
5, 16437, Note_on_c, 3, 69, 0
5, 16440, Note_on_c, 3, 69, 52
5, 16497, Note_on_c, 3, 69, 0
5, 16500, Note_on_c, 3, 69, 52
5, 16557, Note_on_c, 3, 69, 0
5, 16560, Note_on_c, 3, 57, 68
5, 16560, Note_on_c, 3, 69, 68
5, 16920, Note_on_c, 3, 69, 0
5, 16920, Note_on_c, 3, 57, 0
5, 16920, Note_on_c, 3, 67, 54
5, 16920, Note_on_c, 3, 67, 56
5, 17040, Note_on_c, 3, 67, 0
5, 17040, Note_on_c, 3, 67, 0
5, 17280, Note_on_c, 3, 67, 68
5, 17280, Note_on_c, 3, 70, 68
5, 17640, Note_on_c, 3, 70, 0
5, 17640, Note_on_c, 3, 67, 0
5, 17640, Note_on_c, 3, 69, 54
5, 17640, Note_on_c, 3, 69, 54
5, 17760, Note_on_c, 3, 69, 0
5, 17760, Note_on_c, 3, 69, 0
5, 18240, Note_on_c, 3, 53, 68
5, 18240, Note_on_c, 3, 65, 68
5, 18476, Note_on_c, 3, 65, 0
5, 18476, Note_on_c, 3, 53, 0
5, 18480, Note_on_c, 3, 53, 68
5, 18480, Note_on_c, 3, 65, 68
5, 18720, Note_on_c, 3, 65, 0
5, 18720, Note_on_c, 3, 53, 0
5, 18720, Note_on_c, 3, 48, 68
5, 18720, Note_on_c, 3, 60, 68
5, 18960, Note_on_c, 3, 60, 0
5, 18960, Note_on_c, 3, 48, 0
5, 18960, Note_on_c, 3, 67, 68
5, 18960, Note_on_c, 3, 67, 68
5, 19200, Note_on_c, 3, 67, 0
5, 19200, Note_on_c, 3, 67, 0
5, 19200, Note_on_c, 3, 67, 68
5, 19200, Note_on_c, 3, 69, 68
5, 19320, Note_on_c, 3, 67, 0
5, 19320, Note_on_c, 3, 65, 68
5, 19440, Note_on_c, 3, 65, 0
5, 19440, Note_on_c, 3, 69, 0
5, 21120, Note_on_c, 3, 48, 55
5, 21120, Note_on_c, 3, 67, 55
5, 21240, Note_on_c, 3, 67, 0
5, 21240, Note_on_c, 3, 48, 0
5, 21240, Note_on_c, 3, 53, 55
5, 21240, Note_on_c, 3, 65, 55
5, 21300, Note_on_c, 3, 65, 0
5, 21300, Note_on_c, 3, 53, 0
5, 22680, Note_on_c, 3, 53, 50
5, 22680, Note_on_c, 3, 65, 50
5, 22740, Note_on_c, 3, 65, 0
5, 22740, Note_on_c, 3, 53, 0
5, 22740, Note_on_c, 3, 53, 50
5, 22740, Note_on_c, 3, 65, 50
5, 22800, Note_on_c, 3, 65, 0
5, 22800, Note_on_c, 3, 53, 0
5, 22800, Note_on_c, 3, 53, 50
5, 22800, Note_on_c, 3, 65, 50
5, 22860, Note_on_c, 3, 65, 0
5, 22860, Note_on_c, 3, 53, 0
5, 22860, Note_on_c, 3, 53, 50
5, 22860, Note_on_c, 3, 65, 50
5, 22920, Note_on_c, 3, 65, 0
5, 22920, Note_on_c, 3, 53, 0
5, 22920, Note_on_c, 3, 53, 50
5, 22920, Note_on_c, 3, 65, 50
5, 22980, Note_on_c, 3, 65, 0
5, 22980, Note_on_c, 3, 53, 0
5, 22980, Note_on_c, 3, 53, 50
5, 22980, Note_on_c, 3, 65, 50
5, 23040, Note_on_c, 3, 65, 0
5, 23040, Note_on_c, 3, 53, 0
5, 23040, Note_on_c, 3, 53, 50
5, 23040, Note_on_c, 3, 65, 50
5, 23100, Note_on_c, 3, 65, 0
5, 23100, Note_on_c, 3, 53, 0
5, 23100, Note_on_c, 3, 53, 50
5, 23100, Note_on_c, 3, 65, 50
5, 23160, Note_on_c, 3, 65, 0
5, 23160, Note_on_c, 3, 53, 0
5, 23160, Note_on_c, 3, 53, 50
5, 23160, Note_on_c, 3, 65, 50
5, 23220, Note_on_c, 3, 65, 0
5, 23220, Note_on_c, 3, 53, 0
5, 23220, Note_on_c, 3, 53, 50
5, 23220, Note_on_c, 3, 65, 50
5, 23280, Note_on_c, 3, 65, 0
5, 23280, Note_on_c, 3, 53, 0
5, 23280, Note_on_c, 3, 53, 50
5, 23280, Note_on_c, 3, 65, 50
5, 23340, Note_on_c, 3, 65, 0
5, 23340, Note_on_c, 3, 53, 0
5, 23340, Note_on_c, 3, 53, 50
5, 23340, Note_on_c, 3, 65, 50
5, 23400, Note_on_c, 3, 65, 0
5, 23400, Note_on_c, 3, 53, 0
5, 23400, Note_on_c, 3, 53, 50
5, 23400, Note_on_c, 3, 65, 50
5, 23460, Note_on_c, 3, 65, 0
5, 23460, Note_on_c, 3, 53, 0
5, 23460, Note_on_c, 3, 53, 50
5, 23460, Note_on_c, 3, 65, 50
5, 23520, Note_on_c, 3, 65, 0
5, 23520, Note_on_c, 3, 53, 0
5, 23520, Note_on_c, 3, 53, 50
5, 23520, Note_on_c, 3, 65, 50
5, 23580, Note_on_c, 3, 65, 0
5, 23580, Note_on_c, 3, 53, 0
5, 23580, Note_on_c, 3, 53, 50
5, 23580, Note_on_c, 3, 65, 50
5, 23640, Note_on_c, 3, 65, 0
5, 23640, Note_on_c, 3, 53, 0
5, 23640, Note_on_c, 3, 53, 50
5, 23640, Note_on_c, 3, 65, 50
5, 23700, Note_on_c, 3, 65, 0
5, 23700, Note_on_c, 3, 53, 0
5, 23700, Note_on_c, 3, 53, 50
5, 23700, Note_on_c, 3, 65, 50
5, 23760, Note_on_c, 3, 65, 0
5, 23760, Note_on_c, 3, 53, 0
5, 23760, Note_on_c, 3, 53, 56
5, 23760, Note_on_c, 3, 65, 56
5, 23820, Note_on_c, 3, 65, 0
5, 23820, Note_on_c, 3, 53, 0
5, 23820, Note_on_c, 3, 65, 61
5, 23820, Note_on_c, 3, 65, 61
5, 23865, Note_on_c, 3, 65, 0
5, 23865, Note_on_c, 3, 65, 0
5, 23865, Note_on_c, 3, 65, 61
5, 23865, Note_on_c, 3, 65, 61
5, 23880, Note_on_c, 3, 65, 0
5, 23880, Note_on_c, 3, 65, 0
5, 23880, Note_on_c, 3, 65, 61
5, 23880, Note_on_c, 3, 65, 61
5, 23922, Note_on_c, 3, 65, 0
5, 23922, Note_on_c, 3, 65, 0
5, 23940, Note_on_c, 3, 67, 61
5, 23940, Note_on_c, 3, 67, 61
5, 23982, Note_on_c, 3, 67, 0
5, 23982, Note_on_c, 3, 67, 0
5, 24060, Note_on_c, 3, 69, 61
5, 24060, Note_on_c, 3, 69, 61
5, 24105, Note_on_c, 3, 69, 0
5, 24105, Note_on_c, 3, 69, 0
5, 24105, Note_on_c, 3, 69, 61
5, 24105, Note_on_c, 3, 69, 61
5, 24120, Note_on_c, 3, 69, 0
5, 24120, Note_on_c, 3, 69, 0
5, 24120, Note_on_c, 3, 69, 61
5, 24120, Note_on_c, 3, 69, 61
5, 24162, Note_on_c, 3, 69, 0
5, 24162, Note_on_c, 3, 69, 0
5, 24180, Note_on_c, 3, 69, 61
5, 24180, Note_on_c, 3, 69, 61
5, 24222, Note_on_c, 3, 69, 0
5, 24222, Note_on_c, 3, 69, 0
5, 24300, Note_on_c, 3, 67, 61
5, 24300, Note_on_c, 3, 70, 61
5, 24345, Note_on_c, 3, 70, 0
5, 24345, Note_on_c, 3, 67, 0
5, 24345, Note_on_c, 3, 67, 61
5, 24345, Note_on_c, 3, 70, 61
5, 24360, Note_on_c, 3, 70, 0
5, 24360, Note_on_c, 3, 67, 0
5, 24360, Note_on_c, 3, 67, 61
5, 24360, Note_on_c, 3, 70, 61
5, 24402, Note_on_c, 3, 70, 0
5, 24402, Note_on_c, 3, 67, 0
5, 24420, Note_on_c, 3, 67, 61
5, 24420, Note_on_c, 3, 70, 61
5, 24462, Note_on_c, 3, 70, 0
5, 24462, Note_on_c, 3, 67, 0
5, 24540, Note_on_c, 3, 60, 61
5, 24540, Note_on_c, 3, 67, 61
5, 24585, Note_on_c, 3, 67, 0
5, 24585, Note_on_c, 3, 60, 0
5, 24585, Note_on_c, 3, 60, 61
5, 24585, Note_on_c, 3, 67, 61
5, 24600, Note_on_c, 3, 67, 0
5, 24600, Note_on_c, 3, 60, 0
5, 24600, Note_on_c, 3, 60, 61
5, 24600, Note_on_c, 3, 67, 61
5, 24642, Note_on_c, 3, 67, 0
5, 24642, Note_on_c, 3, 60, 0
5, 24660, Note_on_c, 3, 60, 61
5, 24660, Note_on_c, 3, 67, 61
5, 24702, Note_on_c, 3, 67, 0
5, 24702, Note_on_c, 3, 60, 0
5, 24780, Note_on_c, 3, 65, 61
5, 24780, Note_on_c, 3, 69, 61
5, 24825, Note_on_c, 3, 69, 0
5, 24825, Note_on_c, 3, 65, 0
5, 24825, Note_on_c, 3, 65, 61
5, 24825, Note_on_c, 3, 69, 61
5, 24840, Note_on_c, 3, 69, 0
5, 24840, Note_on_c, 3, 65, 0
5, 24840, Note_on_c, 3, 65, 61
5, 24840, Note_on_c, 3, 69, 61
5, 24882, Note_on_c, 3, 69, 0
5, 24882, Note_on_c, 3, 65, 0
5, 24900, Note_on_c, 3, 65, 53
5, 24900, Note_on_c, 3, 69, 53
5, 24942, Note_on_c, 3, 69, 0
5, 24942, Note_on_c, 3, 65, 0
5, 25020, Note_on_c, 3, 53, 53
5, 25020, Note_on_c, 3, 65, 53
5, 25065, Note_on_c, 3, 65, 0
5, 25065, Note_on_c, 3, 53, 0
5, 25065, Note_on_c, 3, 53, 53
5, 25065, Note_on_c, 3, 65, 53
5, 25080, Note_on_c, 3, 65, 0
5, 25080, Note_on_c, 3, 53, 0
5, 25080, Note_on_c, 3, 53, 53
5, 25080, Note_on_c, 3, 65, 53
5, 25122, Note_on_c, 3, 65, 0
5, 25122, Note_on_c, 3, 53, 0
5, 25140, Note_on_c, 3, 53, 53
5, 25140, Note_on_c, 3, 65, 53
5, 25182, Note_on_c, 3, 65, 0
5, 25182, Note_on_c, 3, 53, 0
5, 25200, Note_on_c, 3, 48, 68
5, 25200, Note_on_c, 3, 60, 68
5, 25252, Note_on_c, 3, 60, 0
5, 25252, Note_on_c, 3, 48, 0
5, 25260, Note_on_c, 3, 48, 68
5, 25260, Note_on_c, 3, 60, 68
5, 25305, Note_on_c, 3, 60, 0
5, 25305, Note_on_c, 3, 48, 0
5, 25305, Note_on_c, 3, 48, 68
5, 25305, Note_on_c, 3, 60, 68
5, 25320, Note_on_c, 3, 60, 0
5, 25320, Note_on_c, 3, 48, 0
5, 25320, Note_on_c, 3, 48, 68
5, 25320, Note_on_c, 3, 60, 68
5, 25376, Note_on_c, 3, 60, 0
5, 25376, Note_on_c, 3, 48, 0
5, 25380, Note_on_c, 3, 48, 68
5, 25380, Note_on_c, 3, 60, 68
5, 25436, Note_on_c, 3, 60, 0
5, 25436, Note_on_c, 3, 48, 0
5, 25440, Note_on_c, 3, 48, 68
5, 25440, Note_on_c, 3, 60, 68
5, 25496, Note_on_c, 3, 60, 0
5, 25496, Note_on_c, 3, 48, 0
5, 25500, Note_on_c, 3, 48, 68
5, 25500, Note_on_c, 3, 60, 68
5, 25556, Note_on_c, 3, 60, 0
5, 25556, Note_on_c, 3, 48, 0
5, 25560, Note_on_c, 3, 48, 68
5, 25560, Note_on_c, 3, 60, 68
5, 25612, Note_on_c, 3, 60, 0
5, 25612, Note_on_c, 3, 48, 0
5, 25620, Note_on_c, 3, 48, 68
5, 25620, Note_on_c, 3, 60, 68
5, 25665, Note_on_c, 3, 60, 0
5, 25665, Note_on_c, 3, 48, 0
5, 25665, Note_on_c, 3, 48, 68
5, 25665, Note_on_c, 3, 60, 68
5, 25680, Note_on_c, 3, 60, 0
5, 25680, Note_on_c, 3, 48, 0
5, 25680, Note_on_c, 3, 48, 68
5, 25680, Note_on_c, 3, 60, 68
5, 25736, Note_on_c, 3, 60, 0
5, 25736, Note_on_c, 3, 48, 0
5, 25740, Note_on_c, 3, 48, 68
5, 25740, Note_on_c, 3, 60, 68
5, 25796, Note_on_c, 3, 60, 0
5, 25796, Note_on_c, 3, 48, 0
5, 25800, Note_on_c, 3, 48, 68
5, 25800, Note_on_c, 3, 60, 68
5, 25856, Note_on_c, 3, 60, 0
5, 25856, Note_on_c, 3, 48, 0
5, 25860, Note_on_c, 3, 48, 68
5, 25860, Note_on_c, 3, 60, 68
5, 25916, Note_on_c, 3, 60, 0
5, 25916, Note_on_c, 3, 48, 0
5, 25920, Note_on_c, 3, 48, 61
5, 25920, Note_on_c, 3, 60, 61
5, 26280, Note_on_c, 3, 60, 0
5, 26280, Note_on_c, 3, 48, 0
5, 26280, Note_on_c, 3, 48, 61
5, 26280, Note_on_c, 3, 60, 61
5, 26700, Note_on_c, 3, 60, 0
5, 26700, Note_on_c, 3, 48, 0
5, 27000, Note_on_c, 3, 48, 41
5, 27000, Note_on_c, 3, 60, 41
5, 27540, Note_on_c, 3, 60, 0
5, 27540, Note_on_c, 3, 48, 0
5, 27540, Note_on_c, 3, 48, 51
5, 27540, Note_on_c, 3, 60, 51
5, 27598, Note_on_c, 3, 60, 0
5, 27598, Note_on_c, 3, 48, 0
5, 27600, Note_on_c, 3, 48, 51
5, 27600, Note_on_c, 3, 60, 51
5, 27658, Note_on_c, 3, 60, 0
5, 27658, Note_on_c, 3, 48, 0
5, 27660, Note_on_c, 3, 48, 51
5, 27660, Note_on_c, 3, 60, 51
5, 27718, Note_on_c, 3, 60, 0
5, 27718, Note_on_c, 3, 48, 0
5, 27720, Note_on_c, 3, 48, 41
5, 27720, Note_on_c, 3, 60, 41
5, 28080, Note_on_c, 3, 60, 0
5, 28080, Note_on_c, 3, 48, 0
5, 28080, Note_on_c, 3, 53, 41
5, 28080, Note_on_c, 3, 65, 41
5, 28260, Note_on_c, 3, 65, 0
5, 28260, Note_on_c, 3, 53, 0
5, 28260, Note_on_c, 3, 53, 51
5, 28260, Note_on_c, 3, 65, 51
5, 28318, Note_on_c, 3, 65, 0
5, 28318, Note_on_c, 3, 53, 0
5, 28320, Note_on_c, 3, 53, 51
5, 28320, Note_on_c, 3, 65, 51
5, 28378, Note_on_c, 3, 65, 0
5, 28378, Note_on_c, 3, 53, 0
5, 28380, Note_on_c, 3, 53, 51
5, 28380, Note_on_c, 3, 65, 51
5, 28438, Note_on_c, 3, 65, 0
5, 28438, Note_on_c, 3, 53, 0
5, 29280, Note_on_c, 3, 65, 51
5, 29280, Note_on_c, 3, 69, 51
5, 29400, Note_on_c, 3, 69, 0
5, 29400, Note_on_c, 3, 65, 0
5, 29400, Note_on_c, 3, 60, 51
5, 29400, Note_on_c, 3, 67, 51
5, 29520, Note_on_c, 3, 67, 0
5, 29520, Note_on_c, 3, 60, 0
5, 30657, Note_on_c, 3, 67, 55
5, 30717, Note_on_c, 3, 67, 0
5, 30718, Note_on_c, 3, 72, 56
5, 30721, Note_on_c, 3, 60, 56
5, 30776, Note_on_c, 3, 70, 57
5, 30778, Note_on_c, 3, 72, 0
5, 30779, Note_on_c, 3, 67, 57
5, 30781, Note_on_c, 3, 60, 0
5, 30832, Note_on_c, 3, 70, 0
5, 30835, Note_on_c, 3, 67, 0
5, 30836, Note_on_c, 3, 69, 59
5, 30840, Note_on_c, 3, 65, 59
5, 30892, Note_on_c, 3, 69, 0
5, 30896, Note_on_c, 3, 65, 0
5, 30896, Note_on_c, 3, 67, 60
5, 30899, Note_on_c, 3, 64, 60
5, 30952, Note_on_c, 3, 67, 0
5, 30955, Note_on_c, 3, 64, 0
5, 30960, Note_on_c, 3, 65, 47
5, 30962, Note_on_c, 3, 53, 47
5, 31080, Note_on_c, 3, 65, 0
5, 31082, Note_on_c, 3, 53, 0
5, 31340, Note_on_c, 3, 57, 49
5, 31340, Note_on_c, 3, 53, 49
5, 31355, Note_on_c, 3, 53, 0
5, 31355, Note_on_c, 3, 57, 0
5, 31360, Note_on_c, 3, 57, 49
5, 31360, Note_on_c, 3, 53, 49
5, 31377, Note_on_c, 3, 53, 0
5, 31377, Note_on_c, 3, 57, 0
5, 31380, Note_on_c, 3, 57, 49
5, 31380, Note_on_c, 3, 53, 49
5, 31400, Note_on_c, 3, 53, 0
5, 31400, Note_on_c, 3, 57, 0
5, 31400, Note_on_c, 3, 60, 49
5, 31400, Note_on_c, 3, 57, 49
5, 31413, Note_on_c, 3, 57, 0
5, 31413, Note_on_c, 3, 60, 0
5, 31420, Note_on_c, 3, 60, 49
5, 31420, Note_on_c, 3, 57, 49
5, 31435, Note_on_c, 3, 57, 0
5, 31435, Note_on_c, 3, 60, 0
5, 31440, Note_on_c, 3, 60, 49
5, 31440, Note_on_c, 3, 57, 49
5, 31460, Note_on_c, 3, 57, 0
5, 31460, Note_on_c, 3, 60, 0
5, 31460, Note_on_c, 3, 65, 49
5, 31460, Note_on_c, 3, 60, 49
5, 31473, Note_on_c, 3, 60, 0
5, 31473, Note_on_c, 3, 65, 0
5, 31480, Note_on_c, 3, 65, 49
5, 31480, Note_on_c, 3, 60, 49
5, 31495, Note_on_c, 3, 60, 0
5, 31495, Note_on_c, 3, 65, 0
5, 31500, Note_on_c, 3, 65, 49
5, 31500, Note_on_c, 3, 60, 49
5, 31520, Note_on_c, 3, 60, 0
5, 31520, Note_on_c, 3, 65, 0
5, 31520, Note_on_c, 3, 69, 49
5, 31520, Note_on_c, 3, 65, 49
5, 31533, Note_on_c, 3, 65, 0
5, 31540, Note_on_c, 3, 69, 0
5, 31540, Note_on_c, 3, 69, 49
5, 31540, Note_on_c, 3, 65, 49
5, 31555, Note_on_c, 3, 65, 0
5, 31555, Note_on_c, 3, 69, 0
5, 31560, Note_on_c, 3, 67, 49
5, 31560, Note_on_c, 3, 60, 49
5, 31679, Note_on_c, 3, 60, 0
5, 31679, Note_on_c, 3, 67, 0
5, 31680, Note_on_c, 3, 65, 49
5, 31680, Note_on_c, 3, 53, 49
5, 31739, Note_on_c, 3, 53, 0
5, 31739, Note_on_c, 3, 65, 0
5, 32060, Note_on_c, 3, 57, 49
5, 32060, Note_on_c, 3, 53, 49
5, 32075, Note_on_c, 3, 53, 0
5, 32075, Note_on_c, 3, 57, 0
5, 32080, Note_on_c, 3, 57, 49
5, 32080, Note_on_c, 3, 53, 49
5, 32097, Note_on_c, 3, 53, 0
5, 32097, Note_on_c, 3, 57, 0
5, 32100, Note_on_c, 3, 57, 49
5, 32100, Note_on_c, 3, 53, 49
5, 32120, Note_on_c, 3, 53, 0
5, 32120, Note_on_c, 3, 57, 0
5, 32120, Note_on_c, 3, 60, 49
5, 32120, Note_on_c, 3, 57, 49
5, 32133, Note_on_c, 3, 57, 0
5, 32133, Note_on_c, 3, 60, 0
5, 32140, Note_on_c, 3, 60, 49
5, 32140, Note_on_c, 3, 57, 49
5, 32155, Note_on_c, 3, 57, 0
5, 32155, Note_on_c, 3, 60, 0
5, 32160, Note_on_c, 3, 60, 49
5, 32160, Note_on_c, 3, 57, 49
5, 32180, Note_on_c, 3, 57, 0
5, 32180, Note_on_c, 3, 60, 0
5, 32180, Note_on_c, 3, 65, 49
5, 32180, Note_on_c, 3, 60, 49
5, 32193, Note_on_c, 3, 60, 0
5, 32193, Note_on_c, 3, 65, 0
5, 32200, Note_on_c, 3, 65, 49
5, 32200, Note_on_c, 3, 60, 49
5, 32215, Note_on_c, 3, 60, 0
5, 32215, Note_on_c, 3, 65, 0
5, 32220, Note_on_c, 3, 65, 49
5, 32220, Note_on_c, 3, 60, 49
5, 32240, Note_on_c, 3, 60, 0
5, 32240, Note_on_c, 3, 65, 0
5, 32240, Note_on_c, 3, 69, 49
5, 32240, Note_on_c, 3, 65, 49
5, 32253, Note_on_c, 3, 65, 0
5, 32260, Note_on_c, 3, 69, 0
5, 32260, Note_on_c, 3, 69, 49
5, 32260, Note_on_c, 3, 65, 49
5, 32275, Note_on_c, 3, 65, 0
5, 32275, Note_on_c, 3, 69, 0
5, 32280, Note_on_c, 3, 65, 49
5, 32280, Note_on_c, 3, 69, 49
5, 32338, Note_on_c, 3, 69, 0
5, 32339, Note_on_c, 3, 65, 0
5, 32340, Note_on_c, 3, 60, 49
5, 32340, Note_on_c, 3, 67, 49
5, 32398, Note_on_c, 3, 67, 0
5, 32399, Note_on_c, 3, 60, 0
5, 32400, Note_on_c, 3, 60, 49
5, 32400, Note_on_c, 3, 67, 49
5, 32520, Note_on_c, 3, 67, 0
5, 32520, Note_on_c, 3, 60, 0
5, 32520, Note_on_c, 3, 53, 49
5, 32520, Note_on_c, 3, 65, 49
5, 32580, Note_on_c, 3, 65, 0
5, 32580, Note_on_c, 3, 53, 0
5, 33240, Note_on_c, 3, 60, 59
5, 33240, Note_on_c, 3, 48, 59
5, 33280, Note_on_c, 3, 48, 0
5, 33280, Note_on_c, 3, 60, 0
5, 33600, Note_on_c, 3, 53, 59
5, 33600, Note_on_c, 3, 65, 59
5, 33640, Note_on_c, 3, 65, 0
5, 33640, Note_on_c, 3, 53, 0
5, 35300, Note_on_c, 3, 48, 49
5, 35300, Note_on_c, 3, 60, 49
5, 35315, Note_on_c, 3, 60, 0
5, 35315, Note_on_c, 3, 48, 0
5, 35320, Note_on_c, 3, 48, 49
5, 35320, Note_on_c, 3, 60, 49
5, 35335, Note_on_c, 3, 60, 0
5, 35335, Note_on_c, 3, 48, 0
5, 35340, Note_on_c, 3, 48, 49
5, 35340, Note_on_c, 3, 60, 49
5, 35355, Note_on_c, 3, 60, 0
5, 35355, Note_on_c, 3, 48, 0
5, 35360, Note_on_c, 3, 48, 49
5, 35360, Note_on_c, 3, 60, 49
5, 35375, Note_on_c, 3, 60, 0
5, 35375, Note_on_c, 3, 48, 0
5, 35380, Note_on_c, 3, 48, 49
5, 35380, Note_on_c, 3, 60, 49
5, 35395, Note_on_c, 3, 60, 0
5, 35395, Note_on_c, 3, 48, 0
5, 35400, Note_on_c, 3, 48, 49
5, 35400, Note_on_c, 3, 60, 49
5, 35415, Note_on_c, 3, 60, 0
5, 35415, Note_on_c, 3, 48, 0
5, 35420, Note_on_c, 3, 48, 49
5, 35420, Note_on_c, 3, 60, 49
5, 35435, Note_on_c, 3, 60, 0
5, 35435, Note_on_c, 3, 48, 0
5, 35440, Note_on_c, 3, 48, 49
5, 35440, Note_on_c, 3, 60, 49
5, 35455, Note_on_c, 3, 60, 0
5, 35455, Note_on_c, 3, 48, 0
5, 35460, Note_on_c, 3, 48, 49
5, 35460, Note_on_c, 3, 60, 49
5, 35475, Note_on_c, 3, 60, 0
5, 35475, Note_on_c, 3, 48, 0
5, 35480, Note_on_c, 3, 48, 49
5, 35480, Note_on_c, 3, 60, 49
5, 35495, Note_on_c, 3, 60, 0
5, 35495, Note_on_c, 3, 48, 0
5, 35500, Note_on_c, 3, 48, 49
5, 35500, Note_on_c, 3, 60, 49
5, 35515, Note_on_c, 3, 60, 0
5, 35515, Note_on_c, 3, 48, 0
5, 35520, Note_on_c, 3, 48, 49
5, 35520, Note_on_c, 3, 60, 49
5, 35655, Note_on_c, 3, 60, 0
5, 35655, Note_on_c, 3, 48, 0
5, 35660, Note_on_c, 3, 48, 49
5, 35660, Note_on_c, 3, 60, 49
5, 35675, Note_on_c, 3, 60, 0
5, 35675, Note_on_c, 3, 48, 0
5, 35680, Note_on_c, 3, 48, 49
5, 35680, Note_on_c, 3, 60, 49
5, 35695, Note_on_c, 3, 60, 0
5, 35695, Note_on_c, 3, 48, 0
5, 35700, Note_on_c, 3, 48, 49
5, 35700, Note_on_c, 3, 60, 49
5, 35715, Note_on_c, 3, 60, 0
5, 35715, Note_on_c, 3, 48, 0
5, 35720, Note_on_c, 3, 48, 49
5, 35720, Note_on_c, 3, 60, 49
5, 35735, Note_on_c, 3, 60, 0
5, 35735, Note_on_c, 3, 48, 0
5, 35740, Note_on_c, 3, 48, 49
5, 35740, Note_on_c, 3, 60, 49
5, 35755, Note_on_c, 3, 60, 0
5, 35755, Note_on_c, 3, 48, 0
5, 35760, Note_on_c, 3, 48, 49
5, 35760, Note_on_c, 3, 60, 49
5, 35775, Note_on_c, 3, 60, 0
5, 35775, Note_on_c, 3, 48, 0
5, 35780, Note_on_c, 3, 48, 49
5, 35780, Note_on_c, 3, 60, 49
5, 35795, Note_on_c, 3, 60, 0
5, 35795, Note_on_c, 3, 48, 0
5, 35800, Note_on_c, 3, 48, 49
5, 35800, Note_on_c, 3, 60, 49
5, 35815, Note_on_c, 3, 60, 0
5, 35815, Note_on_c, 3, 48, 0
5, 35820, Note_on_c, 3, 48, 49
5, 35820, Note_on_c, 3, 60, 49
5, 35835, Note_on_c, 3, 60, 0
5, 35835, Note_on_c, 3, 48, 0
5, 35840, Note_on_c, 3, 48, 49
5, 35840, Note_on_c, 3, 60, 49
5, 35855, Note_on_c, 3, 60, 0
5, 35855, Note_on_c, 3, 48, 0
5, 35860, Note_on_c, 3, 48, 49
5, 35860, Note_on_c, 3, 60, 49
5, 35875, Note_on_c, 3, 60, 0
5, 35875, Note_on_c, 3, 48, 0
5, 35880, Note_on_c, 3, 60, 49
5, 35880, Note_on_c, 3, 48, 49
5, 36120, Note_on_c, 3, 48, 0
5, 36120, Note_on_c, 3, 53, 49
5, 36180, Note_on_c, 3, 53, 0
5, 36180, Note_on_c, 3, 60, 0
5, 36180, End_track
6, 0, Start_track
6, 0, MIDI_port, 0
6, 0, Title_t, "Violini I."
6, 0, Program_c, 4, 48
6, 0, Control_c, 4, 7, 127
6, 0, Control_c, 4, 10, 25
6, 0, Note_on_c, 4, 65, 56
6, 90, Note_on_c, 4, 65, 0
6, 90, Note_on_c, 4, 60, 56
6, 120, Note_on_c, 4, 60, 0
6, 120, Note_on_c, 4, 69, 56
6, 329, Note_on_c, 4, 69, 0
6, 330, Note_on_c, 4, 67, 56
6, 344, Note_on_c, 4, 67, 0
6, 345, Note_on_c, 4, 65, 56
6, 359, Note_on_c, 4, 65, 0
6, 360, Note_on_c, 4, 64, 56
6, 420, Note_on_c, 4, 64, 0
6, 480, Note_on_c, 4, 70, 62
6, 520, Note_on_c, 4, 70, 0
6, 720, Note_on_c, 4, 67, 56
6, 810, Note_on_c, 4, 67, 0
6, 810, Note_on_c, 4, 60, 56
6, 840, Note_on_c, 4, 60, 0
6, 840, Note_on_c, 4, 70, 56
6, 1049, Note_on_c, 4, 70, 0
6, 1050, Note_on_c, 4, 69, 56
6, 1064, Note_on_c, 4, 69, 0
6, 1065, Note_on_c, 4, 67, 56
6, 1079, Note_on_c, 4, 67, 0
6, 1080, Note_on_c, 4, 65, 56
6, 1140, Note_on_c, 4, 65, 0
6, 1200, Note_on_c, 4, 72, 60
6, 1240, Note_on_c, 4, 72, 0
6, 1440, Note_on_c, 4, 77, 56
6, 1530, Note_on_c, 4, 77, 0
6, 1530, Note_on_c, 4, 72, 56
6, 1560, Note_on_c, 4, 72, 0
6, 1560, Note_on_c, 4, 81, 56
6, 1650, Note_on_c, 4, 81, 0
6, 1650, Note_on_c, 4, 79, 56
6, 1660, Note_on_c, 4, 79, 0
6, 1660, Note_on_c, 4, 77, 56
6, 1670, Note_on_c, 4, 77, 0
6, 1670, Note_on_c, 4, 76, 56
6, 1680, Note_on_c, 4, 76, 0
6, 1680, Note_on_c, 4, 79, 56
6, 1710, Note_on_c, 4, 79, 0
6, 1710, Note_on_c, 4, 77, 56
6, 1740, Note_on_c, 4, 77, 0
6, 1740, Note_on_c, 4, 76, 56
6, 1770, Note_on_c, 4, 76, 0
6, 1770, Note_on_c, 4, 74, 56
6, 1800, Note_on_c, 4, 74, 0
6, 1800, Note_on_c, 4, 72, 56
6, 1860, Note_on_c, 4, 72, 0
6, 1860, Note_on_c, 4, 71, 56
6, 1920, Note_on_c, 4, 71, 0
6, 1920, Note_on_c, 4, 70, 56
6, 2040, Note_on_c, 4, 70, 0
6, 2040, Note_on_c, 4, 69, 56
6, 2160, Note_on_c, 4, 69, 0
6, 2160, Note_on_c, 4, 74, 65
6, 2294, Note_on_c, 4, 74, 0
6, 2295, Note_on_c, 4, 76, 65
6, 2310, Note_on_c, 4, 76, 0
6, 2310, Note_on_c, 4, 74, 64
6, 2325, Note_on_c, 4, 74, 0
6, 2325, Note_on_c, 4, 73, 64
6, 2340, Note_on_c, 4, 73, 0
6, 2340, Note_on_c, 4, 74, 64
6, 2370, Note_on_c, 4, 74, 0
6, 2370, Note_on_c, 4, 76, 64
6, 2400, Note_on_c, 4, 76, 0
6, 2400, Note_on_c, 4, 79, 64
6, 2430, Note_on_c, 4, 79, 0
6, 2430, Note_on_c, 4, 77, 64
6, 2460, Note_on_c, 4, 77, 0
6, 2460, Note_on_c, 4, 76, 63
6, 2490, Note_on_c, 4, 76, 0
6, 2490, Note_on_c, 4, 74, 63
6, 2520, Note_on_c, 4, 74, 0
6, 2520, Note_on_c, 4, 74, 63
6, 2610, Note_on_c, 4, 74, 0
6, 2610, Note_on_c, 4, 72, 63
6, 2640, Note_on_c, 4, 72, 0
6, 2640, Note_on_c, 4, 72, 63
6, 2790, Note_on_c, 4, 72, 0
6, 2790, Note_on_c, 4, 73, 62
6, 2820, Note_on_c, 4, 73, 0
6, 2820, Note_on_c, 4, 74, 62
6, 2850, Note_on_c, 4, 74, 0
6, 2850, Note_on_c, 4, 70, 62
6, 2880, Note_on_c, 4, 70, 0
6, 2880, Note_on_c, 4, 69, 55
6, 3029, Note_on_c, 4, 69, 0
6, 3030, Note_on_c, 4, 70, 55
6, 3045, Note_on_c, 4, 70, 0
6, 3045, Note_on_c, 4, 69, 55
6, 3060, Note_on_c, 4, 69, 0
6, 3060, Note_on_c, 4, 68, 55
6, 3075, Note_on_c, 4, 68, 0
6, 3075, Note_on_c, 4, 69, 55
6, 3090, Note_on_c, 4, 69, 0
6, 3090, Note_on_c, 4, 68, 55
6, 3105, Note_on_c, 4, 68, 0
6, 3105, Note_on_c, 4, 69, 55
6, 3120, Note_on_c, 4, 69, 0
6, 3120, Note_on_c, 4, 72, 55
6, 3150, Note_on_c, 4, 72, 0
6, 3150, Note_on_c, 4, 70, 55
6, 3180, Note_on_c, 4, 70, 0
6, 3180, Note_on_c, 4, 69, 55
6, 3210, Note_on_c, 4, 69, 0
6, 3210, Note_on_c, 4, 67, 55
6, 3240, Note_on_c, 4, 67, 0
6, 3240, Note_on_c, 4, 72, 55
6, 3285, Note_on_c, 4, 72, 0
6, 3285, Note_on_c, 4, 69, 55
6, 3299, Note_on_c, 4, 69, 0
6, 3300, Note_on_c, 4, 65, 55
6, 3419, Note_on_c, 4, 65, 0
6, 3420, Note_on_c, 4, 67, 55
6, 3449, Note_on_c, 4, 67, 0
6, 3450, Note_on_c, 4, 69, 55
6, 3476, Note_on_c, 4, 69, 0
6, 3480, Note_on_c, 4, 69, 55
6, 3510, Note_on_c, 4, 69, 0
6, 3510, Note_on_c, 4, 67, 55
6, 3540, Note_on_c, 4, 67, 0
6, 3540, Note_on_c, 4, 65, 55
6, 3570, Note_on_c, 4, 65, 0
6, 3570, Note_on_c, 4, 64, 55
6, 3600, Note_on_c, 4, 64, 0
6, 3600, Note_on_c, 4, 65, 51
6, 3720, Note_on_c, 4, 65, 0
6, 4095, Note_on_c, 4, 78, 50
6, 4110, Note_on_c, 4, 78, 0
6, 4110, Note_on_c, 4, 79, 50
6, 4125, Note_on_c, 4, 79, 0
6, 4125, Note_on_c, 4, 78, 50
6, 4140, Note_on_c, 4, 78, 0
6, 4140, Note_on_c, 4, 79, 50
6, 4155, Note_on_c, 4, 79, 0
6, 4155, Note_on_c, 4, 81, 50
6, 4170, Note_on_c, 4, 81, 0
6, 4170, Note_on_c, 4, 82, 50
6, 4185, Note_on_c, 4, 82, 0
6, 4185, Note_on_c, 4, 81, 50
6, 4200, Note_on_c, 4, 81, 0
6, 4200, Note_on_c, 4, 82, 50
6, 4215, Note_on_c, 4, 82, 0
6, 4215, Note_on_c, 4, 85, 50
6, 4230, Note_on_c, 4, 85, 0
6, 4230, Note_on_c, 4, 86, 50
6, 4245, Note_on_c, 4, 86, 0
6, 4245, Note_on_c, 4, 81, 50
6, 4260, Note_on_c, 4, 81, 0
6, 4260, Note_on_c, 4, 84, 50
6, 4275, Note_on_c, 4, 84, 0
6, 4275, Note_on_c, 4, 82, 50
6, 4290, Note_on_c, 4, 82, 0
6, 4290, Note_on_c, 4, 81, 50
6, 4305, Note_on_c, 4, 81, 0
6, 4305, Note_on_c, 4, 79, 50
6, 4320, Note_on_c, 4, 79, 0
6, 4320, Note_on_c, 4, 77, 50
6, 4440, Note_on_c, 4, 77, 0
6, 4440, Note_on_c, 4, 76, 50
6, 4500, Note_on_c, 4, 76, 0
6, 4815, Note_on_c, 4, 80, 49
6, 4830, Note_on_c, 4, 80, 0
6, 4830, Note_on_c, 4, 81, 50
6, 4845, Note_on_c, 4, 81, 0
6, 4845, Note_on_c, 4, 80, 50
6, 4860, Note_on_c, 4, 80, 0
6, 4860, Note_on_c, 4, 81, 50
6, 4875, Note_on_c, 4, 81, 0
6, 4875, Note_on_c, 4, 83, 50
6, 4890, Note_on_c, 4, 83, 0
6, 4890, Note_on_c, 4, 84, 50
6, 4905, Note_on_c, 4, 84, 0
6, 4905, Note_on_c, 4, 83, 51
6, 4920, Note_on_c, 4, 83, 0
6, 4920, Note_on_c, 4, 86, 51
6, 4935, Note_on_c, 4, 86, 0
6, 4935, Note_on_c, 4, 84, 51
6, 4950, Note_on_c, 4, 84, 0
6, 4950, Note_on_c, 4, 83, 51
6, 4965, Note_on_c, 4, 83, 0
6, 4965, Note_on_c, 4, 84, 51
6, 4980, Note_on_c, 4, 84, 0
6, 4980, Note_on_c, 4, 82, 51
6, 4995, Note_on_c, 4, 82, 0
6, 4995, Note_on_c, 4, 81, 51
6, 5010, Note_on_c, 4, 81, 0
6, 5010, Note_on_c, 4, 79, 51
6, 5025, Note_on_c, 4, 79, 0
6, 5025, Note_on_c, 4, 77, 51
6, 5040, Note_on_c, 4, 77, 0
6, 5040, Note_on_c, 4, 84, 51
6, 5130, Note_on_c, 4, 84, 0
6, 5130, Note_on_c, 4, 83, 51
6, 5160, Note_on_c, 4, 83, 0
6, 5160, Note_on_c, 4, 82, 51
6, 5340, Note_on_c, 4, 82, 0
6, 5340, Note_on_c, 4, 81, 49
6, 5393, Note_on_c, 4, 81, 0
6, 5400, Note_on_c, 4, 81, 49
6, 5490, Note_on_c, 4, 81, 0
6, 5490, Note_on_c, 4, 79, 48
6, 5512, Note_on_c, 4, 79, 0
6, 5520, Note_on_c, 4, 79, 48
6, 5700, Note_on_c, 4, 79, 0
6, 5700, Note_on_c, 4, 77, 47
6, 5752, Note_on_c, 4, 77, 0
6, 5760, Note_on_c, 4, 77, 46
6, 5909, Note_on_c, 4, 77, 0
6, 5910, Note_on_c, 4, 76, 46
6, 5940, Note_on_c, 4, 76, 0
6, 5940, Note_on_c, 4, 74, 45
6, 5970, Note_on_c, 4, 74, 0
6, 5970, Note_on_c, 4, 72, 45
6, 6000, Note_on_c, 4, 72, 0
6, 6000, Note_on_c, 4, 71, 45
6, 6030, Note_on_c, 4, 71, 0
6, 6030, Note_on_c, 4, 70, 45
6, 6060, Note_on_c, 4, 70, 0
6, 6060, Note_on_c, 4, 69, 45
6, 6090, Note_on_c, 4, 69, 0
6, 6090, Note_on_c, 4, 72, 45
6, 6116, Note_on_c, 4, 72, 0
6, 6120, Note_on_c, 4, 70, 45
6, 6194, Note_on_c, 4, 70, 0
6, 6195, Note_on_c, 4, 69, 44
6, 6209, Note_on_c, 4, 69, 0
6, 6210, Note_on_c, 4, 67, 44
6, 6224, Note_on_c, 4, 67, 0
6, 6225, Note_on_c, 4, 69, 44
6, 6239, Note_on_c, 4, 69, 0
6, 6240, Note_on_c, 4, 67, 44
6, 6359, Note_on_c, 4, 67, 0
6, 6480, Note_on_c, 4, 79, 63
6, 6570, Note_on_c, 4, 79, 0
6, 6570, Note_on_c, 4, 75, 54
6, 6630, Note_on_c, 4, 75, 0
6, 6630, Note_on_c, 4, 72, 54
6, 6690, Note_on_c, 4, 72, 0
6, 6690, Note_on_c, 4, 67, 54
6, 6750, Note_on_c, 4, 67, 0
6, 6750, Note_on_c, 4, 63, 54
6, 6809, Note_on_c, 4, 63, 0
6, 6810, Note_on_c, 4, 60, 54
6, 6839, Note_on_c, 4, 60, 0
6, 6840, Note_on_c, 4, 61, 54
6, 6860, Note_on_c, 4, 61, 0
6, 6860, Note_on_c, 4, 62, 54
6, 6875, Note_on_c, 4, 62, 0
6, 6880, Note_on_c, 4, 62, 54
6, 6893, Note_on_c, 4, 62, 0
6, 6919, Note_on_c, 4, 61, 54
6, 6939, Note_on_c, 4, 61, 0
6, 6939, Note_on_c, 4, 62, 54
6, 6959, Note_on_c, 4, 62, 0
6, 6979, Note_on_c, 4, 61, 54
6, 6999, Note_on_c, 4, 61, 0
6, 6999, Note_on_c, 4, 62, 54
6, 7019, Note_on_c, 4, 62, 0
6, 7042, Note_on_c, 4, 61, 54
6, 7062, Note_on_c, 4, 61, 0
6, 7062, Note_on_c, 4, 62, 54
6, 7082, Note_on_c, 4, 62, 0
6, 7099, Note_on_c, 4, 61, 54
6, 7119, Note_on_c, 4, 61, 0
6, 7119, Note_on_c, 4, 62, 54
6, 7139, Note_on_c, 4, 62, 0
6, 7161, Note_on_c, 4, 61, 54
6, 7181, Note_on_c, 4, 61, 0
6, 7181, Note_on_c, 4, 62, 54
6, 7200, Note_on_c, 4, 80, 63
6, 7201, Note_on_c, 4, 62, 0
6, 7290, Note_on_c, 4, 80, 0
6, 7290, Note_on_c, 4, 77, 54
6, 7350, Note_on_c, 4, 77, 0
6, 7350, Note_on_c, 4, 74, 54
6, 7410, Note_on_c, 4, 74, 0
6, 7410, Note_on_c, 4, 71, 54
6, 7470, Note_on_c, 4, 71, 0
6, 7470, Note_on_c, 4, 65, 54
6, 7530, Note_on_c, 4, 65, 0
6, 7530, Note_on_c, 4, 62, 54
6, 7557, Note_on_c, 4, 62, 0
6, 7560, Note_on_c, 4, 62, 54
6, 7580, Note_on_c, 4, 62, 0
6, 7580, Note_on_c, 4, 63, 54
6, 7595, Note_on_c, 4, 63, 0
6, 7600, Note_on_c, 4, 63, 54
6, 7613, Note_on_c, 4, 63, 0
6, 7639, Note_on_c, 4, 62, 54
6, 7659, Note_on_c, 4, 62, 0
6, 7659, Note_on_c, 4, 63, 54
6, 7679, Note_on_c, 4, 63, 0
6, 7699, Note_on_c, 4, 62, 54
6, 7719, Note_on_c, 4, 62, 0
6, 7719, Note_on_c, 4, 63, 54
6, 7739, Note_on_c, 4, 63, 0
6, 7762, Note_on_c, 4, 62, 54
6, 7782, Note_on_c, 4, 62, 0
6, 7782, Note_on_c, 4, 63, 54
6, 7802, Note_on_c, 4, 63, 0
6, 7819, Note_on_c, 4, 62, 54
6, 7839, Note_on_c, 4, 62, 0
6, 7839, Note_on_c, 4, 63, 54
6, 7859, Note_on_c, 4, 63, 0
6, 7881, Note_on_c, 4, 62, 54
6, 7901, Note_on_c, 4, 62, 0
6, 7901, Note_on_c, 4, 63, 54
6, 7920, Note_on_c, 4, 84, 69
6, 7921, Note_on_c, 4, 63, 0
6, 8010, Note_on_c, 4, 84, 0
6, 8010, Note_on_c, 4, 79, 55
6, 8069, Note_on_c, 4, 79, 0
6, 8070, Note_on_c, 4, 75, 55
6, 8129, Note_on_c, 4, 75, 0
6, 8130, Note_on_c, 4, 72, 55
6, 8160, Note_on_c, 4, 72, 0
6, 8160, Note_on_c, 4, 84, 69
6, 8250, Note_on_c, 4, 84, 0
6, 8250, Note_on_c, 4, 80, 55
6, 8309, Note_on_c, 4, 80, 0
6, 8310, Note_on_c, 4, 77, 55
6, 8369, Note_on_c, 4, 77, 0
6, 8370, Note_on_c, 4, 72, 55
6, 8400, Note_on_c, 4, 72, 0
6, 8400, Note_on_c, 4, 84, 69
6, 8490, Note_on_c, 4, 84, 0
6, 8490, Note_on_c, 4, 79, 55
6, 8549, Note_on_c, 4, 79, 0
6, 8550, Note_on_c, 4, 76, 55
6, 8609, Note_on_c, 4, 76, 0
6, 8610, Note_on_c, 4, 72, 55
6, 8640, Note_on_c, 4, 72, 0
6, 8640, Note_on_c, 4, 84, 69
6, 8730, Note_on_c, 4, 84, 0
6, 8730, Note_on_c, 4, 80, 55
6, 8789, Note_on_c, 4, 80, 0
6, 8790, Note_on_c, 4, 77, 55
6, 8849, Note_on_c, 4, 77, 0
6, 8850, Note_on_c, 4, 72, 55
6, 8880, Note_on_c, 4, 72, 0
6, 8880, Note_on_c, 4, 87, 69
6, 8970, Note_on_c, 4, 87, 0
6, 8970, Note_on_c, 4, 84, 55
6, 9029, Note_on_c, 4, 84, 0
6, 9030, Note_on_c, 4, 81, 55
6, 9089, Note_on_c, 4, 81, 0
6, 9090, Note_on_c, 4, 78, 55
6, 9149, Note_on_c, 4, 78, 0
6, 9150, Note_on_c, 4, 75, 55
6, 9209, Note_on_c, 4, 75, 0
6, 9210, Note_on_c, 4, 72, 55
6, 9240, Note_on_c, 4, 72, 0
6, 9240, Note_on_c, 4, 71, 57
6, 9270, Note_on_c, 4, 71, 0
6, 9270, Note_on_c, 4, 72, 57
6, 9300, Note_on_c, 4, 72, 0
6, 9300, Note_on_c, 4, 75, 57
6, 9330, Note_on_c, 4, 75, 0
6, 9330, Note_on_c, 4, 72, 57
6, 9357, Note_on_c, 4, 72, 0
6, 9360, Note_on_c, 4, 72, 57
6, 9505, Note_on_c, 4, 72, 0
6, 9510, Note_on_c, 4, 71, 57
6, 9540, Note_on_c, 4, 71, 0
6, 9540, Note_on_c, 4, 69, 57
6, 9570, Note_on_c, 4, 69, 0
6, 9570, Note_on_c, 4, 67, 57
6, 9600, Note_on_c, 4, 67, 0
6, 9600, Note_on_c, 4, 66, 60
6, 9614, Note_on_c, 4, 66, 0
6, 9615, Note_on_c, 4, 67, 59
6, 9629, Note_on_c, 4, 67, 0
6, 9630, Note_on_c, 4, 69, 58
6, 9644, Note_on_c, 4, 69, 0
6, 9645, Note_on_c, 4, 67, 57
6, 9659, Note_on_c, 4, 67, 0
6, 9660, Note_on_c, 4, 65, 57
6, 9674, Note_on_c, 4, 65, 0
6, 9675, Note_on_c, 4, 64, 57
6, 9689, Note_on_c, 4, 64, 0
6, 9690, Note_on_c, 4, 65, 57
6, 9704, Note_on_c, 4, 65, 0
6, 9705, Note_on_c, 4, 62, 57
6, 9719, Note_on_c, 4, 62, 0
6, 9720, Note_on_c, 4, 60, 57
6, 9840, Note_on_c, 4, 60, 0
6, 9840, Note_on_c, 4, 62, 56
6, 9960, Note_on_c, 4, 62, 0
6, 9960, Note_on_c, 4, 64, 56
6, 10080, Note_on_c, 4, 64, 0
6, 10080, Note_on_c, 4, 65, 56
6, 10154, Note_on_c, 4, 65, 0
6, 10155, Note_on_c, 4, 67, 57
6, 10169, Note_on_c, 4, 67, 0
6, 10170, Note_on_c, 4, 64, 57
6, 10184, Note_on_c, 4, 64, 0
6, 10185, Note_on_c, 4, 65, 57
6, 10199, Note_on_c, 4, 65, 0
6, 10200, Note_on_c, 4, 62, 57
6, 10259, Note_on_c, 4, 62, 0
6, 10440, Note_on_c, 4, 62, 57
6, 10520, Note_on_c, 4, 62, 0
6, 10520, Note_on_c, 4, 59, 56
6, 10540, Note_on_c, 4, 59, 0
6, 10540, Note_on_c, 4, 55, 57
6, 10560, Note_on_c, 4, 55, 0
6, 10560, Note_on_c, 4, 64, 57
6, 10640, Note_on_c, 4, 64, 0
6, 10640, Note_on_c, 4, 60, 56
6, 10660, Note_on_c, 4, 60, 0
6, 10660, Note_on_c, 4, 55, 57
6, 10680, Note_on_c, 4, 55, 0
6, 10680, Note_on_c, 4, 65, 57
6, 10760, Note_on_c, 4, 65, 0
6, 10760, Note_on_c, 4, 62, 56
6, 10780, Note_on_c, 4, 62, 0
6, 10780, Note_on_c, 4, 59, 58
6, 10800, Note_on_c, 4, 59, 0
6, 10800, Note_on_c, 4, 67, 56
6, 10874, Note_on_c, 4, 67, 0
6, 10875, Note_on_c, 4, 69, 56
6, 10889, Note_on_c, 4, 69, 0
6, 10890, Note_on_c, 4, 65, 57
6, 10904, Note_on_c, 4, 65, 0
6, 10905, Note_on_c, 4, 67, 57
6, 10919, Note_on_c, 4, 67, 0
6, 10920, Note_on_c, 4, 64, 56
6, 10979, Note_on_c, 4, 64, 0
6, 11180, Note_on_c, 4, 82, 57
6, 11200, Note_on_c, 4, 82, 0
6, 11200, Note_on_c, 4, 81, 56
6, 11213, Note_on_c, 4, 81, 0
6, 11220, Note_on_c, 4, 81, 56
6, 11237, Note_on_c, 4, 81, 0
6, 11240, Note_on_c, 4, 81, 56
6, 11257, Note_on_c, 4, 81, 0
6, 11260, Note_on_c, 4, 81, 56
6, 11277, Note_on_c, 4, 81, 0
6, 11280, Note_on_c, 4, 81, 58
6, 11336, Note_on_c, 4, 86, 56
6, 11340, Note_on_c, 4, 81, 0
6, 11396, Note_on_c, 4, 86, 0
6, 11420, Note_on_c, 4, 80, 57
6, 11440, Note_on_c, 4, 80, 0
6, 11440, Note_on_c, 4, 79, 56
6, 11453, Note_on_c, 4, 79, 0
6, 11460, Note_on_c, 4, 79, 56
6, 11477, Note_on_c, 4, 79, 0
6, 11480, Note_on_c, 4, 79, 56
6, 11497, Note_on_c, 4, 79, 0
6, 11500, Note_on_c, 4, 79, 56
6, 11517, Note_on_c, 4, 79, 0
6, 11520, Note_on_c, 4, 79, 58
6, 11580, Note_on_c, 4, 79, 0
6, 11580, Note_on_c, 4, 84, 56
6, 11640, Note_on_c, 4, 84, 0
6, 11660, Note_on_c, 4, 79, 56
6, 11680, Note_on_c, 4, 79, 0
6, 11680, Note_on_c, 4, 77, 56
6, 11693, Note_on_c, 4, 77, 0
6, 11699, Note_on_c, 4, 77, 56
6, 11716, Note_on_c, 4, 77, 0
6, 11719, Note_on_c, 4, 77, 56
6, 11736, Note_on_c, 4, 77, 0
6, 11739, Note_on_c, 4, 77, 56
6, 11756, Note_on_c, 4, 77, 0
6, 11760, Note_on_c, 4, 77, 56
6, 11780, Note_on_c, 4, 77, 0
6, 11780, Note_on_c, 4, 79, 56
6, 11800, Note_on_c, 4, 79, 0
6, 11800, Note_on_c, 4, 77, 56
6, 11820, Note_on_c, 4, 77, 0
6, 11820, Note_on_c, 4, 76, 56
6, 11840, Note_on_c, 4, 76, 0
6, 11840, Note_on_c, 4, 77, 56
6, 11860, Note_on_c, 4, 77, 0
6, 11860, Note_on_c, 4, 76, 56
6, 11880, Note_on_c, 4, 76, 0
6, 11880, Note_on_c, 4, 73, 56
6, 11900, Note_on_c, 4, 73, 0
6, 11900, Note_on_c, 4, 74, 56
6, 11920, Note_on_c, 4, 74, 0
6, 11920, Note_on_c, 4, 77, 56
6, 11940, Note_on_c, 4, 77, 0
6, 11940, Note_on_c, 4, 81, 56
6, 11960, Note_on_c, 4, 81, 0
6, 11960, Note_on_c, 4, 77, 56
6, 11980, Note_on_c, 4, 77, 0
6, 11980, Note_on_c, 4, 74, 56
6, 12000, Note_on_c, 4, 74, 0
6, 12000, Note_on_c, 4, 72, 56
6, 12120, Note_on_c, 4, 72, 0
6, 12120, Note_on_c, 4, 71, 56
6, 12140, Note_on_c, 4, 71, 0
6, 12140, Note_on_c, 4, 81, 56
6, 12160, Note_on_c, 4, 81, 0
6, 12160, Note_on_c, 4, 79, 56
6, 12173, Note_on_c, 4, 79, 0
6, 12180, Note_on_c, 4, 79, 56
6, 12197, Note_on_c, 4, 79, 0
6, 12200, Note_on_c, 4, 79, 56
6, 12217, Note_on_c, 4, 79, 0
6, 12220, Note_on_c, 4, 79, 56
6, 12237, Note_on_c, 4, 79, 0
6, 12240, Note_on_c, 4, 79, 56
6, 12257, Note_on_c, 4, 79, 0
6, 12260, Note_on_c, 4, 82, 56
6, 12280, Note_on_c, 4, 82, 0
6, 12280, Note_on_c, 4, 81, 56
6, 12293, Note_on_c, 4, 81, 0
6, 12300, Note_on_c, 4, 81, 56
6, 12317, Note_on_c, 4, 81, 0
6, 12320, Note_on_c, 4, 81, 56
6, 12337, Note_on_c, 4, 81, 0
6, 12340, Note_on_c, 4, 81, 56
6, 12357, Note_on_c, 4, 81, 0
6, 12360, Note_on_c, 4, 81, 58
6, 12420, Note_on_c, 4, 81, 0
6, 12420, Note_on_c, 4, 86, 56
6, 12480, Note_on_c, 4, 86, 0
6, 12500, Note_on_c, 4, 80, 56
6, 12520, Note_on_c, 4, 80, 0
6, 12520, Note_on_c, 4, 79, 56
6, 12533, Note_on_c, 4, 79, 0
6, 12540, Note_on_c, 4, 79, 56
6, 12557, Note_on_c, 4, 79, 0
6, 12560, Note_on_c, 4, 79, 56
6, 12577, Note_on_c, 4, 79, 0
6, 12580, Note_on_c, 4, 79, 56
6, 12597, Note_on_c, 4, 79, 0
6, 12600, Note_on_c, 4, 79, 58
6, 12660, Note_on_c, 4, 79, 0
6, 12660, Note_on_c, 4, 84, 56
6, 12720, Note_on_c, 4, 84, 0
6, 12740, Note_on_c, 4, 79, 56
6, 12760, Note_on_c, 4, 79, 0
6, 12760, Note_on_c, 4, 77, 56
6, 12773, Note_on_c, 4, 77, 0
6, 12780, Note_on_c, 4, 77, 56
6, 12797, Note_on_c, 4, 77, 0
6, 12800, Note_on_c, 4, 77, 56
6, 12817, Note_on_c, 4, 77, 0
6, 12820, Note_on_c, 4, 77, 56
6, 12837, Note_on_c, 4, 77, 0
6, 12840, Note_on_c, 4, 77, 56
6, 12860, Note_on_c, 4, 77, 0
6, 12860, Note_on_c, 4, 79, 56
6, 12880, Note_on_c, 4, 79, 0
6, 12880, Note_on_c, 4, 77, 56
6, 12900, Note_on_c, 4, 77, 0
6, 12900, Note_on_c, 4, 76, 56
6, 12920, Note_on_c, 4, 76, 0
6, 12920, Note_on_c, 4, 77, 56
6, 12940, Note_on_c, 4, 77, 0
6, 12940, Note_on_c, 4, 76, 56
6, 12957, Note_on_c, 4, 76, 0
6, 12960, Note_on_c, 4, 76, 56
6, 12980, Note_on_c, 4, 76, 0
6, 12980, Note_on_c, 4, 74, 56
6, 12997, Note_on_c, 4, 74, 0
6, 13000, Note_on_c, 4, 74, 56
6, 13017, Note_on_c, 4, 74, 0
6, 13020, Note_on_c, 4, 74, 56
6, 13037, Note_on_c, 4, 74, 0
6, 13040, Note_on_c, 4, 74, 56
6, 13057, Note_on_c, 4, 74, 0
6, 13060, Note_on_c, 4, 74, 57
6, 13077, Note_on_c, 4, 74, 0
6, 13080, Note_on_c, 4, 74, 58
6, 13100, Note_on_c, 4, 74, 0
6, 13100, Note_on_c, 4, 76, 58
6, 13120, Note_on_c, 4, 76, 0
6, 13120, Note_on_c, 4, 74, 58
6, 13140, Note_on_c, 4, 74, 0
6, 13140, Note_on_c, 4, 72, 59
6, 13160, Note_on_c, 4, 72, 0
6, 13160, Note_on_c, 4, 74, 60
6, 13180, Note_on_c, 4, 74, 0
6, 13180, Note_on_c, 4, 72, 60
6, 13198, Note_on_c, 4, 72, 0
6, 13200, Note_on_c, 4, 72, 61
6, 13220, Note_on_c, 4, 72, 0
6, 13220, Note_on_c, 4, 70, 61
6, 13233, Note_on_c, 4, 70, 0
6, 13240, Note_on_c, 4, 70, 62
6, 13257, Note_on_c, 4, 70, 0
6, 13260, Note_on_c, 4, 70, 62
6, 13277, Note_on_c, 4, 70, 0
6, 13280, Note_on_c, 4, 70, 62
6, 13297, Note_on_c, 4, 70, 0
6, 13300, Note_on_c, 4, 70, 63
6, 13317, Note_on_c, 4, 70, 0
6, 13320, Note_on_c, 4, 70, 73
6, 13340, Note_on_c, 4, 70, 0
6, 13340, Note_on_c, 4, 72, 63
6, 13360, Note_on_c, 4, 72, 0
6, 13360, Note_on_c, 4, 70, 63
6, 13380, Note_on_c, 4, 70, 0
6, 13380, Note_on_c, 4, 69, 63
6, 13400, Note_on_c, 4, 69, 0
6, 13400, Note_on_c, 4, 70, 63
6, 13420, Note_on_c, 4, 70, 0
6, 13420, Note_on_c, 4, 69, 63
6, 13440, Note_on_c, 4, 69, 0
6, 13440, Note_on_c, 4, 67, 63
6, 13460, Note_on_c, 4, 67, 0
6, 13460, Note_on_c, 4, 69, 63
6, 13480, Note_on_c, 4, 69, 0
6, 13480, Note_on_c, 4, 67, 63
6, 13500, Note_on_c, 4, 67, 0
6, 13500, Note_on_c, 4, 65, 63
6, 13520, Note_on_c, 4, 65, 0
6, 13520, Note_on_c, 4, 67, 63
6, 13540, Note_on_c, 4, 67, 0
6, 13540, Note_on_c, 4, 65, 63
6, 13560, Note_on_c, 4, 65, 0
6, 13560, Note_on_c, 4, 64, 63
6, 13580, Note_on_c, 4, 64, 0
6, 13580, Note_on_c, 4, 65, 63
6, 13600, Note_on_c, 4, 65, 0
6, 13600, Note_on_c, 4, 64, 63
6, 13620, Note_on_c, 4, 64, 0
6, 13620, Note_on_c, 4, 62, 63
6, 13640, Note_on_c, 4, 62, 0
6, 13640, Note_on_c, 4, 64, 63
6, 13660, Note_on_c, 4, 64, 0
6, 13660, Note_on_c, 4, 62, 63
6, 13680, Note_on_c, 4, 62, 0
6, 13680, Note_on_c, 4, 60, 63
6, 13740, Note_on_c, 4, 60, 0
6, 13743, Note_on_c, 4, 76, 47
6, 13797, Note_on_c, 4, 77, 47
6, 13803, Note_on_c, 4, 76, 0
6, 13857, Note_on_c, 4, 77, 0
6, 13860, Note_on_c, 4, 79, 47
6, 13919, Note_on_c, 4, 81, 47
6, 13920, Note_on_c, 4, 79, 0
6, 13939, Note_on_c, 4, 81, 0
6, 13941, Note_on_c, 4, 80, 47
6, 13959, Note_on_c, 4, 81, 47
6, 13961, Note_on_c, 4, 80, 0
6, 13979, Note_on_c, 4, 81, 0
6, 13979, Note_on_c, 4, 84, 47
6, 13999, Note_on_c, 4, 84, 0
6, 14000, Note_on_c, 4, 83, 47
6, 14020, Note_on_c, 4, 83, 0
6, 14020, Note_on_c, 4, 81, 47
6, 14040, Note_on_c, 4, 81, 0
6, 14040, Note_on_c, 4, 79, 47
6, 14100, Note_on_c, 4, 79, 0
6, 14460, Note_on_c, 4, 76, 47
6, 14520, Note_on_c, 4, 76, 0
6, 14520, Note_on_c, 4, 77, 47
6, 14580, Note_on_c, 4, 77, 0
6, 14580, Note_on_c, 4, 79, 47
6, 14640, Note_on_c, 4, 79, 0
6, 14640, Note_on_c, 4, 81, 47
6, 14660, Note_on_c, 4, 81, 0
6, 14660, Note_on_c, 4, 80, 47
6, 14680, Note_on_c, 4, 80, 0
6, 14680, Note_on_c, 4, 81, 47
6, 14700, Note_on_c, 4, 81, 0
6, 14700, Note_on_c, 4, 84, 47
6, 14720, Note_on_c, 4, 84, 0
6, 14720, Note_on_c, 4, 83, 47
6, 14740, Note_on_c, 4, 83, 0
6, 14740, Note_on_c, 4, 81, 47
6, 14760, Note_on_c, 4, 81, 0
6, 14760, Note_on_c, 4, 79, 47
6, 14820, Note_on_c, 4, 79, 0
6, 15120, Note_on_c, 4, 60, 47
6, 15255, Note_on_c, 4, 60, 0
6, 15260, Note_on_c, 4, 67, 47
6, 15280, Note_on_c, 4, 67, 0
6, 15280, Note_on_c, 4, 65, 47
6, 15300, Note_on_c, 4, 65, 0
6, 15300, Note_on_c, 4, 64, 47
6, 15315, Note_on_c, 4, 64, 0
6, 15320, Note_on_c, 4, 70, 47
6, 15340, Note_on_c, 4, 70, 0
6, 15340, Note_on_c, 4, 69, 47
6, 15360, Note_on_c, 4, 69, 0
6, 15360, Note_on_c, 4, 67, 47
6, 15376, Note_on_c, 4, 67, 0
6, 15380, Note_on_c, 4, 74, 47
6, 15400, Note_on_c, 4, 74, 0
6, 15400, Note_on_c, 4, 72, 47
6, 15420, Note_on_c, 4, 72, 0
6, 15420, Note_on_c, 4, 70, 47
6, 15440, Note_on_c, 4, 70, 0
6, 15440, Note_on_c, 4, 69, 47
6, 15460, Note_on_c, 4, 69, 0
6, 15460, Note_on_c, 4, 67, 47
6, 15480, Note_on_c, 4, 67, 0
6, 15480, Note_on_c, 4, 65, 47
6, 15525, Note_on_c, 4, 65, 0
6, 15525, Note_on_c, 4, 64, 47
6, 15540, Note_on_c, 4, 64, 0
6, 15540, Note_on_c, 4, 67, 47
6, 15585, Note_on_c, 4, 67, 0
6, 15585, Note_on_c, 4, 66, 47
6, 15600, Note_on_c, 4, 66, 0
6, 15600, Note_on_c, 4, 69, 47
6, 15645, Note_on_c, 4, 69, 0
6, 15645, Note_on_c, 4, 67, 47
6, 15660, Note_on_c, 4, 67, 0
6, 15660, Note_on_c, 4, 70, 47
6, 15705, Note_on_c, 4, 70, 0
6, 15705, Note_on_c, 4, 69, 47
6, 15720, Note_on_c, 4, 69, 0
6, 15720, Note_on_c, 4, 72, 47
6, 15749, Note_on_c, 4, 72, 0
6, 15750, Note_on_c, 4, 70, 47
6, 15779, Note_on_c, 4, 70, 0
6, 15780, Note_on_c, 4, 67, 47
6, 15809, Note_on_c, 4, 67, 0
6, 15810, Note_on_c, 4, 64, 47
6, 15839, Note_on_c, 4, 64, 0
6, 15840, Note_on_c, 4, 62, 47
6, 15980, Note_on_c, 4, 62, 0
6, 15980, Note_on_c, 4, 61, 47
6, 16000, Note_on_c, 4, 61, 0
6, 16000, Note_on_c, 4, 67, 47
6, 16013, Note_on_c, 4, 67, 0
6, 16020, Note_on_c, 4, 65, 47
6, 16040, Note_on_c, 4, 65, 0
6, 16040, Note_on_c, 4, 64, 47
6, 16055, Note_on_c, 4, 64, 0
6, 16060, Note_on_c, 4, 70, 47
6, 16073, Note_on_c, 4, 70, 0
6, 16080, Note_on_c, 4, 69, 47
6, 16100, Note_on_c, 4, 69, 0
6, 16100, Note_on_c, 4, 67, 47
6, 16116, Note_on_c, 4, 67, 0
6, 16120, Note_on_c, 4, 76, 47
6, 16133, Note_on_c, 4, 76, 0
6, 16140, Note_on_c, 4, 74, 47
6, 16160, Note_on_c, 4, 74, 0
6, 16160, Note_on_c, 4, 73, 47
6, 16175, Note_on_c, 4, 73, 0
6, 16180, Note_on_c, 4, 79, 47
6, 16195, Note_on_c, 4, 79, 0
6, 16200, Note_on_c, 4, 77, 47
6, 16230, Note_on_c, 4, 77, 0
6, 16230, Note_on_c, 4, 76, 47
6, 16260, Note_on_c, 4, 76, 0
6, 16260, Note_on_c, 4, 74, 47
6, 16290, Note_on_c, 4, 74, 0
6, 16290, Note_on_c, 4, 73, 47
6, 16320, Note_on_c, 4, 73, 0
6, 16320, Note_on_c, 4, 70, 47
6, 16350, Note_on_c, 4, 70, 0
6, 16350, Note_on_c, 4, 69, 47
6, 16380, Note_on_c, 4, 69, 0
6, 16380, Note_on_c, 4, 68, 47
6, 16410, Note_on_c, 4, 68, 0
6, 16410, Note_on_c, 4, 69, 47
6, 16440, Note_on_c, 4, 69, 0
6, 16440, Note_on_c, 4, 68, 47
6, 16470, Note_on_c, 4, 68, 0
6, 16470, Note_on_c, 4, 69, 47
6, 16500, Note_on_c, 4, 69, 0
6, 16500, Note_on_c, 4, 67, 47
6, 16530, Note_on_c, 4, 67, 0
6, 16530, Note_on_c, 4, 64, 47
6, 16560, Note_on_c, 4, 64, 0
6, 16560, Note_on_c, 4, 81, 64
6, 16645, Note_on_c, 4, 77, 54
6, 16650, Note_on_c, 4, 81, 0
6, 16705, Note_on_c, 4, 77, 0
6, 16708, Note_on_c, 4, 74, 54
6, 16768, Note_on_c, 4, 74, 0
6, 16770, Note_on_c, 4, 69, 54
6, 16830, Note_on_c, 4, 69, 0
6, 16830, Note_on_c, 4, 65, 54
6, 16890, Note_on_c, 4, 65, 0
6, 16890, Note_on_c, 4, 62, 54
6, 16919, Note_on_c, 4, 62, 0
6, 16920, Note_on_c, 4, 63, 54
6, 16940, Note_on_c, 4, 63, 0
6, 16940, Note_on_c, 4, 64, 54
6, 16960, Note_on_c, 4, 64, 0
6, 16960, Note_on_c, 4, 64, 54
6, 16980, Note_on_c, 4, 64, 0
6, 16998, Note_on_c, 4, 63, 54
6, 17018, Note_on_c, 4, 63, 0
6, 17018, Note_on_c, 4, 64, 54
6, 17038, Note_on_c, 4, 64, 0
6, 17058, Note_on_c, 4, 63, 54
6, 17078, Note_on_c, 4, 63, 0
6, 17078, Note_on_c, 4, 64, 54
6, 17098, Note_on_c, 4, 64, 0
6, 17121, Note_on_c, 4, 63, 54
6, 17141, Note_on_c, 4, 63, 0
6, 17141, Note_on_c, 4, 64, 54
6, 17161, Note_on_c, 4, 64, 0
6, 17180, Note_on_c, 4, 63, 54
6, 17200, Note_on_c, 4, 63, 0
6, 17200, Note_on_c, 4, 64, 54
6, 17220, Note_on_c, 4, 64, 0
6, 17240, Note_on_c, 4, 63, 54
6, 17260, Note_on_c, 4, 63, 0
6, 17260, Note_on_c, 4, 64, 54
6, 17280, Note_on_c, 4, 64, 0
6, 17280, Note_on_c, 4, 82, 64
6, 17363, Note_on_c, 4, 79, 54
6, 17370, Note_on_c, 4, 82, 0
6, 17423, Note_on_c, 4, 79, 0
6, 17428, Note_on_c, 4, 76, 54
6, 17488, Note_on_c, 4, 76, 0
6, 17491, Note_on_c, 4, 70, 54
6, 17548, Note_on_c, 4, 67, 54
6, 17551, Note_on_c, 4, 70, 0
6, 17608, Note_on_c, 4, 67, 0
6, 17608, Note_on_c, 4, 64, 54
6, 17637, Note_on_c, 4, 64, 0
6, 17640, Note_on_c, 4, 65, 54
6, 17660, Note_on_c, 4, 65, 0
6, 17660, Note_on_c, 4, 66, 54
6, 17680, Note_on_c, 4, 66, 0
6, 17680, Note_on_c, 4, 66, 54
6, 17696, Note_on_c, 4, 66, 0
6, 17720, Note_on_c, 4, 65, 54
6, 17740, Note_on_c, 4, 65, 0
6, 17740, Note_on_c, 4, 66, 54
6, 17760, Note_on_c, 4, 66, 0
6, 17780, Note_on_c, 4, 65, 54
6, 17800, Note_on_c, 4, 65, 0
6, 17800, Note_on_c, 4, 66, 54
6, 17820, Note_on_c, 4, 66, 0
6, 17840, Note_on_c, 4, 65, 54
6, 17860, Note_on_c, 4, 65, 0
6, 17860, Note_on_c, 4, 66, 54
6, 17880, Note_on_c, 4, 66, 0
6, 17898, Note_on_c, 4, 65, 54
6, 17918, Note_on_c, 4, 65, 0
6, 17920, Note_on_c, 4, 66, 54
6, 17940, Note_on_c, 4, 66, 0
6, 17961, Note_on_c, 4, 65, 54
6, 17980, Note_on_c, 4, 66, 54
6, 17981, Note_on_c, 4, 65, 0
6, 18000, Note_on_c, 4, 66, 0
6, 18000, Note_on_c, 4, 82, 64
6, 18090, Note_on_c, 4, 82, 0
6, 18090, Note_on_c, 4, 78, 54
6, 18150, Note_on_c, 4, 78, 0
6, 18150, Note_on_c, 4, 75, 54
6, 18210, Note_on_c, 4, 75, 0
6, 18210, Note_on_c, 4, 70, 54
6, 18240, Note_on_c, 4, 70, 0
6, 18240, Note_on_c, 4, 82, 64
6, 18330, Note_on_c, 4, 82, 0
6, 18330, Note_on_c, 4, 77, 54
6, 18390, Note_on_c, 4, 77, 0
6, 18390, Note_on_c, 4, 73, 54
6, 18450, Note_on_c, 4, 73, 0
6, 18450, Note_on_c, 4, 70, 54
6, 18480, Note_on_c, 4, 70, 0
6, 18480, Note_on_c, 4, 84, 64
6, 18570, Note_on_c, 4, 84, 0
6, 18570, Note_on_c, 4, 77, 54
6, 18630, Note_on_c, 4, 77, 0
6, 18630, Note_on_c, 4, 72, 54
6, 18690, Note_on_c, 4, 72, 0
6, 18690, Note_on_c, 4, 65, 54
6, 18720, Note_on_c, 4, 65, 0
6, 18720, Note_on_c, 4, 84, 64
6, 18810, Note_on_c, 4, 84, 0
6, 18810, Note_on_c, 4, 79, 54
6, 18870, Note_on_c, 4, 79, 0
6, 18870, Note_on_c, 4, 75, 54
6, 18930, Note_on_c, 4, 75, 0
6, 18930, Note_on_c, 4, 72, 54
6, 18960, Note_on_c, 4, 72, 0
6, 18960, Note_on_c, 4, 86, 64
6, 19050, Note_on_c, 4, 86, 0
6, 19050, Note_on_c, 4, 79, 54
6, 19110, Note_on_c, 4, 79, 0
6, 19110, Note_on_c, 4, 74, 54
6, 19170, Note_on_c, 4, 74, 0
6, 19170, Note_on_c, 4, 67, 54
6, 19200, Note_on_c, 4, 67, 0
6, 19200, Note_on_c, 4, 86, 64
6, 19290, Note_on_c, 4, 86, 0
6, 19290, Note_on_c, 4, 81, 54
6, 19350, Note_on_c, 4, 81, 0
6, 19350, Note_on_c, 4, 77, 54
6, 19410, Note_on_c, 4, 77, 0
6, 19410, Note_on_c, 4, 74, 54
6, 19440, Note_on_c, 4, 74, 0
6, 19440, Note_on_c, 4, 82, 64
6, 19530, Note_on_c, 4, 82, 0
6, 19530, Note_on_c, 4, 70, 54
6, 19590, Note_on_c, 4, 70, 0
6, 19590, Note_on_c, 4, 67, 54
6, 19650, Note_on_c, 4, 67, 0
6, 19650, Note_on_c, 4, 63, 54
6, 19680, Note_on_c, 4, 63, 0
6, 19680, Note_on_c, 4, 62, 56
6, 19700, Note_on_c, 4, 62, 0
6, 19700, Note_on_c, 4, 61, 55
6, 19720, Note_on_c, 4, 61, 0
6, 19720, Note_on_c, 4, 62, 55
6, 19740, Note_on_c, 4, 62, 0
6, 19740, Note_on_c, 4, 65, 56
6, 19760, Note_on_c, 4, 65, 0
6, 19760, Note_on_c, 4, 64, 56
6, 19780, Note_on_c, 4, 64, 0
6, 19780, Note_on_c, 4, 62, 55
6, 19800, Note_on_c, 4, 62, 0
6, 19800, Note_on_c, 4, 61, 54
6, 19860, Note_on_c, 4, 61, 0
6, 20160, Note_on_c, 4, 74, 56
6, 20180, Note_on_c, 4, 74, 0
6, 20180, Note_on_c, 4, 73, 56
6, 20200, Note_on_c, 4, 73, 0
6, 20200, Note_on_c, 4, 74, 56
6, 20220, Note_on_c, 4, 74, 0
6, 20220, Note_on_c, 4, 77, 55
6, 20240, Note_on_c, 4, 77, 0
6, 20240, Note_on_c, 4, 76, 55
6, 20260, Note_on_c, 4, 76, 0
6, 20260, Note_on_c, 4, 74, 54
6, 20280, Note_on_c, 4, 74, 0
6, 20280, Note_on_c, 4, 73, 55
6, 20340, Note_on_c, 4, 73, 0
6, 20400, Note_on_c, 4, 80, 53
6, 20520, Note_on_c, 4, 80, 0
6, 20520, Note_on_c, 4, 81, 53
6, 20580, Note_on_c, 4, 81, 0
6, 20700, Note_on_c, 4, 59, 49
6, 20700, Note_on_c, 4, 68, 49
6, 20755, Note_on_c, 4, 68, 0
6, 20755, Note_on_c, 4, 59, 0
6, 20820, Note_on_c, 4, 57, 49
6, 20820, Note_on_c, 4, 67, 49
6, 20875, Note_on_c, 4, 67, 0
6, 20875, Note_on_c, 4, 57, 0
6, 20940, Note_on_c, 4, 57, 49
6, 20940, Note_on_c, 4, 66, 49
6, 20995, Note_on_c, 4, 66, 0
6, 20995, Note_on_c, 4, 57, 0
6, 21060, Note_on_c, 4, 65, 49
6, 21060, Note_on_c, 4, 55, 49
6, 21115, Note_on_c, 4, 55, 0
6, 21115, Note_on_c, 4, 65, 0
6, 21180, Note_on_c, 4, 55, 49
6, 21180, Note_on_c, 4, 64, 49
6, 21235, Note_on_c, 4, 64, 0
6, 21235, Note_on_c, 4, 55, 0
6, 21240, Note_on_c, 4, 65, 55
6, 21330, Note_on_c, 4, 65, 0
6, 21330, Note_on_c, 4, 60, 55
6, 21360, Note_on_c, 4, 60, 0
6, 21360, Note_on_c, 4, 69, 55
6, 21569, Note_on_c, 4, 69, 0
6, 21570, Note_on_c, 4, 67, 55
6, 21585, Note_on_c, 4, 67, 0
6, 21585, Note_on_c, 4, 65, 55
6, 21600, Note_on_c, 4, 65, 0
6, 21600, Note_on_c, 4, 64, 55
6, 21660, Note_on_c, 4, 64, 0
6, 21720, Note_on_c, 4, 70, 63
6, 21780, Note_on_c, 4, 70, 0
6, 21975, Note_on_c, 4, 78, 55
6, 21990, Note_on_c, 4, 78, 0
6, 21990, Note_on_c, 4, 79, 55
6, 22005, Note_on_c, 4, 79, 0
6, 22005, Note_on_c, 4, 78, 55
6, 22020, Note_on_c, 4, 78, 0
6, 22020, Note_on_c, 4, 79, 55
6, 22035, Note_on_c, 4, 79, 0
6, 22035, Note_on_c, 4, 81, 55
6, 22050, Note_on_c, 4, 81, 0
6, 22050, Note_on_c, 4, 82, 55
6, 22065, Note_on_c, 4, 82, 0
6, 22065, Note_on_c, 4, 81, 55
6, 22080, Note_on_c, 4, 81, 0
6, 22080, Note_on_c, 4, 82, 55
6, 22095, Note_on_c, 4, 82, 0
6, 22095, Note_on_c, 4, 85, 55
6, 22110, Note_on_c, 4, 85, 0
6, 22110, Note_on_c, 4, 86, 55
6, 22125, Note_on_c, 4, 86, 0
6, 22125, Note_on_c, 4, 81, 55
6, 22140, Note_on_c, 4, 81, 0
6, 22140, Note_on_c, 4, 84, 55
6, 22155, Note_on_c, 4, 84, 0
6, 22155, Note_on_c, 4, 82, 55
6, 22170, Note_on_c, 4, 82, 0
6, 22170, Note_on_c, 4, 81, 55
6, 22185, Note_on_c, 4, 81, 0
6, 22185, Note_on_c, 4, 79, 55
6, 22200, Note_on_c, 4, 79, 0
6, 22200, Note_on_c, 4, 77, 55
6, 22215, Note_on_c, 4, 77, 0
6, 22215, Note_on_c, 4, 76, 55
6, 22230, Note_on_c, 4, 76, 0
6, 22230, Note_on_c, 4, 81, 55
6, 22245, Note_on_c, 4, 81, 0
6, 22245, Note_on_c, 4, 79, 55
6, 22260, Note_on_c, 4, 79, 0
6, 22260, Note_on_c, 4, 77, 55
6, 22275, Note_on_c, 4, 77, 0
6, 22275, Note_on_c, 4, 76, 55
6, 22290, Note_on_c, 4, 76, 0
6, 22290, Note_on_c, 4, 74, 55
6, 22305, Note_on_c, 4, 74, 0
6, 22305, Note_on_c, 4, 72, 55
6, 22320, Note_on_c, 4, 72, 0
6, 22320, Note_on_c, 4, 70, 55
6, 22335, Note_on_c, 4, 70, 0
6, 22335, Note_on_c, 4, 69, 55
6, 22350, Note_on_c, 4, 69, 0
6, 22350, Note_on_c, 4, 77, 55
6, 22365, Note_on_c, 4, 77, 0
6, 22365, Note_on_c, 4, 75, 55
6, 22380, Note_on_c, 4, 75, 0
6, 22380, Note_on_c, 4, 74, 55
6, 22395, Note_on_c, 4, 74, 0
6, 22395, Note_on_c, 4, 72, 55
6, 22410, Note_on_c, 4, 72, 0
6, 22410, Note_on_c, 4, 70, 55
6, 22425, Note_on_c, 4, 70, 0
6, 22425, Note_on_c, 4, 69, 55
6, 22440, Note_on_c, 4, 69, 0
6, 22440, Note_on_c, 4, 67, 55
6, 22455, Note_on_c, 4, 67, 0
6, 22455, Note_on_c, 4, 65, 55
6, 22470, Note_on_c, 4, 65, 0
6, 22470, Note_on_c, 4, 74, 55
6, 22485, Note_on_c, 4, 74, 0
6, 22485, Note_on_c, 4, 72, 55
6, 22500, Note_on_c, 4, 72, 0
6, 22500, Note_on_c, 4, 70, 55
6, 22515, Note_on_c, 4, 70, 0
6, 22515, Note_on_c, 4, 69, 55
6, 22530, Note_on_c, 4, 69, 0
6, 22530, Note_on_c, 4, 67, 55
6, 22545, Note_on_c, 4, 67, 0
6, 22545, Note_on_c, 4, 65, 55
6, 22560, Note_on_c, 4, 65, 0
6, 22560, Note_on_c, 4, 64, 55
6, 22575, Note_on_c, 4, 64, 0
6, 22575, Note_on_c, 4, 65, 55
6, 22590, Note_on_c, 4, 65, 0
6, 22590, Note_on_c, 4, 67, 55
6, 22605, Note_on_c, 4, 67, 0
6, 22605, Note_on_c, 4, 65, 55
6, 22620, Note_on_c, 4, 65, 0
6, 22620, Note_on_c, 4, 63, 55
6, 22635, Note_on_c, 4, 63, 0
6, 22635, Note_on_c, 4, 62, 55
6, 22650, Note_on_c, 4, 62, 0
6, 22650, Note_on_c, 4, 63, 55
6, 22665, Note_on_c, 4, 63, 0
6, 22665, Note_on_c, 4, 60, 55
6, 22680, Note_on_c, 4, 60, 0
6, 22680, Note_on_c, 4, 58, 55
6, 22800, Note_on_c, 4, 58, 0
6, 23175, Note_on_c, 4, 71, 50
6, 23190, Note_on_c, 4, 71, 0
6, 23190, Note_on_c, 4, 72, 50
6, 23205, Note_on_c, 4, 72, 0
6, 23205, Note_on_c, 4, 71, 50
6, 23220, Note_on_c, 4, 71, 0
6, 23220, Note_on_c, 4, 72, 50
6, 23235, Note_on_c, 4, 72, 0
6, 23235, Note_on_c, 4, 74, 50
6, 23250, Note_on_c, 4, 74, 0
6, 23250, Note_on_c, 4, 75, 50
6, 23265, Note_on_c, 4, 75, 0
6, 23265, Note_on_c, 4, 74, 50
6, 23280, Note_on_c, 4, 74, 0
6, 23280, Note_on_c, 4, 75, 50
6, 23295, Note_on_c, 4, 75, 0
6, 23295, Note_on_c, 4, 78, 50
6, 23310, Note_on_c, 4, 78, 0
6, 23310, Note_on_c, 4, 79, 50
6, 23325, Note_on_c, 4, 79, 0
6, 23325, Note_on_c, 4, 74, 50
6, 23340, Note_on_c, 4, 74, 0
6, 23340, Note_on_c, 4, 77, 50
6, 23355, Note_on_c, 4, 77, 0
6, 23355, Note_on_c, 4, 75, 50
6, 23370, Note_on_c, 4, 75, 0
6, 23370, Note_on_c, 4, 74, 50
6, 23385, Note_on_c, 4, 74, 0
6, 23385, Note_on_c, 4, 72, 50
6, 23400, Note_on_c, 4, 72, 0
6, 23400, Note_on_c, 4, 70, 50
6, 23520, Note_on_c, 4, 70, 0
6, 23520, Note_on_c, 4, 69, 50
6, 23580, Note_on_c, 4, 69, 0
6, 23775, Note_on_c, 4, 70, 56
6, 23790, Note_on_c, 4, 70, 0
6, 23790, Note_on_c, 4, 72, 56
6, 23805, Note_on_c, 4, 72, 0
6, 23805, Note_on_c, 4, 74, 56
6, 23820, Note_on_c, 4, 74, 0
6, 23820, Note_on_c, 4, 75, 56
6, 23835, Note_on_c, 4, 75, 0
6, 23835, Note_on_c, 4, 77, 56
6, 23850, Note_on_c, 4, 77, 0
6, 23850, Note_on_c, 4, 79, 56
6, 23865, Note_on_c, 4, 79, 0
6, 23865, Note_on_c, 4, 81, 56
6, 23880, Note_on_c, 4, 81, 0
6, 23880, Note_on_c, 4, 84, 56
6, 23895, Note_on_c, 4, 84, 0
6, 23895, Note_on_c, 4, 82, 56
6, 23910, Note_on_c, 4, 82, 0
6, 23910, Note_on_c, 4, 87, 56
6, 23925, Note_on_c, 4, 87, 0
6, 23925, Note_on_c, 4, 86, 56
6, 23940, Note_on_c, 4, 86, 0
6, 23940, Note_on_c, 4, 84, 56
6, 23955, Note_on_c, 4, 84, 0
6, 23955, Note_on_c, 4, 82, 56
6, 23970, Note_on_c, 4, 82, 0
6, 23970, Note_on_c, 4, 81, 56
6, 23985, Note_on_c, 4, 81, 0
6, 23985, Note_on_c, 4, 79, 56
6, 24000, Note_on_c, 4, 79, 0
6, 24000, Note_on_c, 4, 78, 56
6, 24015, Note_on_c, 4, 78, 0
6, 24015, Note_on_c, 4, 76, 56
6, 24030, Note_on_c, 4, 76, 0
6, 24030, Note_on_c, 4, 74, 56
6, 24045, Note_on_c, 4, 74, 0
6, 24045, Note_on_c, 4, 76, 56
6, 24060, Note_on_c, 4, 76, 0
6, 24060, Note_on_c, 4, 78, 56
6, 24075, Note_on_c, 4, 78, 0
6, 24075, Note_on_c, 4, 79, 56
6, 24090, Note_on_c, 4, 79, 0
6, 24090, Note_on_c, 4, 81, 56
6, 24105, Note_on_c, 4, 81, 0
6, 24105, Note_on_c, 4, 82, 56
6, 24120, Note_on_c, 4, 82, 0
6, 24120, Note_on_c, 4, 84, 56
6, 24135, Note_on_c, 4, 84, 0
6, 24135, Note_on_c, 4, 83, 56
6, 24150, Note_on_c, 4, 83, 0
6, 24150, Note_on_c, 4, 86, 56
6, 24165, Note_on_c, 4, 86, 0
6, 24165, Note_on_c, 4, 84, 56
6, 24180, Note_on_c, 4, 84, 0
6, 24180, Note_on_c, 4, 82, 56
6, 24195, Note_on_c, 4, 82, 0
6, 24195, Note_on_c, 4, 81, 56
6, 24210, Note_on_c, 4, 81, 0
6, 24210, Note_on_c, 4, 79, 56
6, 24225, Note_on_c, 4, 79, 0
6, 24225, Note_on_c, 4, 78, 56
6, 24240, Note_on_c, 4, 78, 0
6, 24240, Note_on_c, 4, 79, 56
6, 24255, Note_on_c, 4, 79, 0
6, 24255, Note_on_c, 4, 74, 56
6, 24270, Note_on_c, 4, 74, 0
6, 24270, Note_on_c, 4, 76, 56
6, 24285, Note_on_c, 4, 76, 0
6, 24285, Note_on_c, 4, 78, 56
6, 24300, Note_on_c, 4, 78, 0
6, 24300, Note_on_c, 4, 79, 56
6, 24315, Note_on_c, 4, 79, 0
6, 24315, Note_on_c, 4, 78, 56
6, 24330, Note_on_c, 4, 78, 0
6, 24330, Note_on_c, 4, 81, 56
6, 24345, Note_on_c, 4, 81, 0
6, 24345, Note_on_c, 4, 79, 56
6, 24360, Note_on_c, 4, 79, 0
6, 24360, Note_on_c, 4, 82, 56
6, 24375, Note_on_c, 4, 82, 0
6, 24375, Note_on_c, 4, 81, 56
6, 24390, Note_on_c, 4, 81, 0
6, 24390, Note_on_c, 4, 84, 56
6, 24405, Note_on_c, 4, 84, 0
6, 24405, Note_on_c, 4, 82, 56
6, 24420, Note_on_c, 4, 82, 0
6, 24420, Note_on_c, 4, 86, 56
6, 24435, Note_on_c, 4, 86, 0
6, 24435, Note_on_c, 4, 82, 56
6, 24450, Note_on_c, 4, 82, 0
6, 24450, Note_on_c, 4, 79, 56
6, 24465, Note_on_c, 4, 79, 0
6, 24465, Note_on_c, 4, 77, 56
6, 24480, Note_on_c, 4, 77, 0
6, 24480, Note_on_c, 4, 76, 56
6, 24495, Note_on_c, 4, 76, 0
6, 24495, Note_on_c, 4, 74, 56
6, 24510, Note_on_c, 4, 74, 0
6, 24510, Note_on_c, 4, 72, 56
6, 24525, Note_on_c, 4, 72, 0
6, 24525, Note_on_c, 4, 74, 56
6, 24540, Note_on_c, 4, 74, 0
6, 24540, Note_on_c, 4, 76, 56
6, 24555, Note_on_c, 4, 76, 0
6, 24555, Note_on_c, 4, 77, 56
6, 24570, Note_on_c, 4, 77, 0
6, 24570, Note_on_c, 4, 79, 56
6, 24585, Note_on_c, 4, 79, 0
6, 24585, Note_on_c, 4, 81, 56
6, 24600, Note_on_c, 4, 81, 0
6, 24600, Note_on_c, 4, 82, 56
6, 24615, Note_on_c, 4, 82, 0
6, 24615, Note_on_c, 4, 84, 56
6, 24630, Note_on_c, 4, 84, 0
6, 24630, Note_on_c, 4, 86, 56
6, 24645, Note_on_c, 4, 86, 0
6, 24645, Note_on_c, 4, 82, 56
6, 24660, Note_on_c, 4, 82, 0
6, 24660, Note_on_c, 4, 81, 56
6, 24675, Note_on_c, 4, 81, 0
6, 24675, Note_on_c, 4, 79, 56
6, 24690, Note_on_c, 4, 79, 0
6, 24690, Note_on_c, 4, 77, 56
6, 24705, Note_on_c, 4, 77, 0
6, 24705, Note_on_c, 4, 76, 56
6, 24720, Note_on_c, 4, 76, 0
6, 24720, Note_on_c, 4, 77, 56
6, 24735, Note_on_c, 4, 77, 0
6, 24735, Note_on_c, 4, 72, 56
6, 24750, Note_on_c, 4, 72, 0
6, 24750, Note_on_c, 4, 74, 56
6, 24765, Note_on_c, 4, 74, 0
6, 24765, Note_on_c, 4, 76, 56
6, 24780, Note_on_c, 4, 76, 0
6, 24780, Note_on_c, 4, 77, 56
6, 24795, Note_on_c, 4, 77, 0
6, 24795, Note_on_c, 4, 79, 56
6, 24810, Note_on_c, 4, 79, 0
6, 24810, Note_on_c, 4, 81, 56
6, 24825, Note_on_c, 4, 81, 0
6, 24825, Note_on_c, 4, 82, 56
6, 24840, Note_on_c, 4, 82, 0
6, 24840, Note_on_c, 4, 84, 56
6, 24855, Note_on_c, 4, 84, 0
6, 24855, Note_on_c, 4, 86, 50
6, 24870, Note_on_c, 4, 86, 0
6, 24870, Note_on_c, 4, 84, 50
6, 24885, Note_on_c, 4, 84, 0
6, 24885, Note_on_c, 4, 82, 50
6, 24900, Note_on_c, 4, 82, 0
6, 24900, Note_on_c, 4, 81, 50
6, 24915, Note_on_c, 4, 81, 0
6, 24915, Note_on_c, 4, 79, 50
6, 24930, Note_on_c, 4, 79, 0
6, 24930, Note_on_c, 4, 77, 50
6, 24945, Note_on_c, 4, 77, 0
6, 24945, Note_on_c, 4, 76, 50
6, 24960, Note_on_c, 4, 76, 0
6, 24960, Note_on_c, 4, 77, 50
6, 24975, Note_on_c, 4, 77, 0
6, 24975, Note_on_c, 4, 79, 50
6, 24990, Note_on_c, 4, 79, 0
6, 24990, Note_on_c, 4, 81, 50
6, 25005, Note_on_c, 4, 81, 0
6, 25005, Note_on_c, 4, 79, 50
6, 25020, Note_on_c, 4, 79, 0
6, 25020, Note_on_c, 4, 77, 50
6, 25035, Note_on_c, 4, 77, 0
6, 25035, Note_on_c, 4, 76, 50
6, 25050, Note_on_c, 4, 76, 0
6, 25050, Note_on_c, 4, 74, 50
6, 25065, Note_on_c, 4, 74, 0
6, 25065, Note_on_c, 4, 72, 50
6, 25080, Note_on_c, 4, 72, 0
6, 25080, Note_on_c, 4, 71, 50
6, 25095, Note_on_c, 4, 71, 0
6, 25095, Note_on_c, 4, 69, 50
6, 25110, Note_on_c, 4, 69, 0
6, 25110, Note_on_c, 4, 67, 50
6, 25125, Note_on_c, 4, 67, 0
6, 25125, Note_on_c, 4, 65, 50
6, 25140, Note_on_c, 4, 65, 0
6, 25140, Note_on_c, 4, 64, 50
6, 25155, Note_on_c, 4, 64, 0
6, 25155, Note_on_c, 4, 62, 50
6, 25170, Note_on_c, 4, 62, 0
6, 25170, Note_on_c, 4, 60, 50
6, 25185, Note_on_c, 4, 60, 0
6, 25185, Note_on_c, 4, 59, 50
6, 25200, Note_on_c, 4, 59, 0
6, 25200, Note_on_c, 4, 60, 64
6, 25320, Note_on_c, 4, 60, 0
6, 25380, Note_on_c, 4, 55, 61
6, 25380, Note_on_c, 4, 64, 61
6, 25380, Note_on_c, 4, 72, 61
6, 25440, Note_on_c, 4, 72, 0
6, 25440, Note_on_c, 4, 64, 0
6, 25440, Note_on_c, 4, 55, 0
6, 25440, Note_on_c, 4, 60, 61
6, 25440, Note_on_c, 4, 67, 61
6, 25440, Note_on_c, 4, 76, 61
6, 25500, Note_on_c, 4, 76, 0
6, 25500, Note_on_c, 4, 67, 0
6, 25500, Note_on_c, 4, 60, 0
6, 25500, Note_on_c, 4, 67, 61
6, 25500, Note_on_c, 4, 72, 61
6, 25500, Note_on_c, 4, 79, 61
6, 25560, Note_on_c, 4, 79, 0
6, 25560, Note_on_c, 4, 72, 0
6, 25560, Note_on_c, 4, 67, 0
6, 25560, Note_on_c, 4, 67, 61
6, 25560, Note_on_c, 4, 76, 61
6, 25560, Note_on_c, 4, 84, 61
6, 25680, Note_on_c, 4, 84, 0
6, 25680, Note_on_c, 4, 76, 0
6, 25680, Note_on_c, 4, 67, 0
6, 25740, Note_on_c, 4, 55, 61
6, 25740, Note_on_c, 4, 64, 61
6, 25740, Note_on_c, 4, 72, 61
6, 25800, Note_on_c, 4, 72, 0
6, 25800, Note_on_c, 4, 64, 0
6, 25800, Note_on_c, 4, 55, 0
6, 25800, Note_on_c, 4, 60, 61
6, 25800, Note_on_c, 4, 67, 61
6, 25800, Note_on_c, 4, 76, 61
6, 25860, Note_on_c, 4, 76, 0
6, 25860, Note_on_c, 4, 67, 0
6, 25860, Note_on_c, 4, 60, 0
6, 25860, Note_on_c, 4, 64, 61
6, 25860, Note_on_c, 4, 72, 61
6, 25860, Note_on_c, 4, 79, 61
6, 25920, Note_on_c, 4, 79, 0
6, 25920, Note_on_c, 4, 72, 0
6, 25920, Note_on_c, 4, 64, 0
6, 25920, Note_on_c, 4, 84, 61
6, 25920, Note_on_c, 4, 76, 61
6, 25920, Note_on_c, 4, 67, 61
6, 25980, Note_on_c, 4, 67, 0
6, 25980, Note_on_c, 4, 76, 0
6, 26010, Note_on_c, 4, 84, 0
6, 26010, Note_on_c, 4, 79, 51
6, 26040, Note_on_c, 4, 79, 0
6, 26040, Note_on_c, 4, 76, 51
6, 26070, Note_on_c, 4, 76, 0
6, 26070, Note_on_c, 4, 72, 51
6, 26129, Note_on_c, 4, 72, 0
6, 26130, Note_on_c, 4, 73, 51
6, 26189, Note_on_c, 4, 73, 0
6, 26190, Note_on_c, 4, 72, 51
6, 26249, Note_on_c, 4, 72, 0
6, 26250, Note_on_c, 4, 71, 51
6, 26279, Note_on_c, 4, 71, 0
6, 26280, Note_on_c, 4, 84, 68
6, 26370, Note_on_c, 4, 84, 0
6, 26370, Note_on_c, 4, 79, 51
6, 26400, Note_on_c, 4, 79, 0
6, 26400, Note_on_c, 4, 76, 51
6, 26430, Note_on_c, 4, 76, 0
6, 26430, Note_on_c, 4, 72, 51
6, 26489, Note_on_c, 4, 72, 0
6, 26490, Note_on_c, 4, 73, 51
6, 26549, Note_on_c, 4, 73, 0
6, 26550, Note_on_c, 4, 72, 51
6, 26609, Note_on_c, 4, 72, 0
6, 26610, Note_on_c, 4, 71, 51
6, 26640, Note_on_c, 4, 71, 0
6, 26640, Note_on_c, 4, 72, 52
6, 26780, Note_on_c, 4, 72, 0
6, 26780, Note_on_c, 4, 73, 52
6, 26800, Note_on_c, 4, 73, 0
6, 26800, Note_on_c, 4, 74, 52
6, 26820, Note_on_c, 4, 74, 0
6, 26820, Note_on_c, 4, 72, 52
6, 26837, Note_on_c, 4, 72, 0
6, 26840, Note_on_c, 4, 70, 52
6, 26857, Note_on_c, 4, 70, 0
6, 26860, Note_on_c, 4, 69, 52
6, 26877, Note_on_c, 4, 69, 0
6, 26880, Note_on_c, 4, 67, 52
6, 26897, Note_on_c, 4, 67, 0
6, 26900, Note_on_c, 4, 65, 52
6, 26917, Note_on_c, 4, 65, 0
6, 26920, Note_on_c, 4, 64, 52
6, 26937, Note_on_c, 4, 64, 0
6, 26940, Note_on_c, 4, 72, 52
6, 26960, Note_on_c, 4, 72, 0
6, 26960, Note_on_c, 4, 70, 52
6, 26980, Note_on_c, 4, 70, 0
6, 26980, Note_on_c, 4, 67, 52
6, 27000, Note_on_c, 4, 67, 0
6, 27000, Note_on_c, 4, 65, 54
6, 27120, Note_on_c, 4, 65, 0
6, 27120, Note_on_c, 4, 67, 54
6, 27240, Note_on_c, 4, 67, 0
6, 27240, Note_on_c, 4, 69, 54
6, 27360, Note_on_c, 4, 69, 0
6, 27360, Note_on_c, 4, 70, 54
6, 27435, Note_on_c, 4, 70, 0
6, 27435, Note_on_c, 4, 72, 54
6, 27450, Note_on_c, 4, 72, 0
6, 27450, Note_on_c, 4, 69, 54
6, 27465, Note_on_c, 4, 69, 0
6, 27465, Note_on_c, 4, 70, 54
6, 27480, Note_on_c, 4, 70, 0
6, 27480, Note_on_c, 4, 67, 54
6, 27540, Note_on_c, 4, 67, 0
6, 27720, Note_on_c, 4, 67, 54
6, 27800, Note_on_c, 4, 67, 0
6, 27800, Note_on_c, 4, 64, 54
6, 27820, Note_on_c, 4, 64, 0
6, 27820, Note_on_c, 4, 60, 54
6, 27840, Note_on_c, 4, 60, 0
6, 27840, Note_on_c, 4, 69, 54
6, 27920, Note_on_c, 4, 69, 0
6, 27920, Note_on_c, 4, 65, 54
6, 27940, Note_on_c, 4, 65, 0
6, 27940, Note_on_c, 4, 60, 54
6, 27960, Note_on_c, 4, 60, 0
6, 27960, Note_on_c, 4, 70, 54
6, 28040, Note_on_c, 4, 70, 0
6, 28040, Note_on_c, 4, 67, 54
6, 28060, Note_on_c, 4, 67, 0
6, 28060, Note_on_c, 4, 64, 54
6, 28080, Note_on_c, 4, 64, 0
6, 28080, Note_on_c, 4, 72, 54
6, 28155, Note_on_c, 4, 72, 0
6, 28155, Note_on_c, 4, 74, 54
6, 28170, Note_on_c, 4, 74, 0
6, 28170, Note_on_c, 4, 70, 54
6, 28185, Note_on_c, 4, 70, 0
6, 28185, Note_on_c, 4, 72, 54
6, 28200, Note_on_c, 4, 72, 0
6, 28200, Note_on_c, 4, 69, 54
6, 28260, Note_on_c, 4, 69, 0
6, 28460, Note_on_c, 4, 75, 54
6, 28480, Note_on_c, 4, 75, 0
6, 28480, Note_on_c, 4, 74, 54
6, 28500, Note_on_c, 4, 74, 0
6, 28500, Note_on_c, 4, 74, 54
6, 28517, Note_on_c, 4, 74, 0
6, 28520, Note_on_c, 4, 74, 54
6, 28537, Note_on_c, 4, 74, 0
6, 28540, Note_on_c, 4, 74, 54
6, 28557, Note_on_c, 4, 74, 0
6, 28560, Note_on_c, 4, 74, 54
6, 28620, Note_on_c, 4, 74, 0
6, 28620, Note_on_c, 4, 79, 54
6, 28680, Note_on_c, 4, 79, 0
6, 28700, Note_on_c, 4, 73, 54
6, 28720, Note_on_c, 4, 73, 0
6, 28720, Note_on_c, 4, 72, 54
6, 28740, Note_on_c, 4, 72, 0
6, 28740, Note_on_c, 4, 72, 54
6, 28757, Note_on_c, 4, 72, 0
6, 28760, Note_on_c, 4, 72, 54
6, 28777, Note_on_c, 4, 72, 0
6, 28780, Note_on_c, 4, 72, 54
6, 28797, Note_on_c, 4, 72, 0
6, 28800, Note_on_c, 4, 72, 54
6, 28860, Note_on_c, 4, 72, 0
6, 28860, Note_on_c, 4, 77, 54
6, 28920, Note_on_c, 4, 77, 0
6, 28940, Note_on_c, 4, 72, 54
6, 28960, Note_on_c, 4, 72, 0
6, 28960, Note_on_c, 4, 70, 54
6, 28980, Note_on_c, 4, 70, 0
6, 28980, Note_on_c, 4, 70, 54
6, 28997, Note_on_c, 4, 70, 0
6, 29000, Note_on_c, 4, 70, 54
6, 29017, Note_on_c, 4, 70, 0
6, 29020, Note_on_c, 4, 70, 54
6, 29037, Note_on_c, 4, 70, 0
6, 29040, Note_on_c, 4, 70, 54
6, 29060, Note_on_c, 4, 70, 0
6, 29060, Note_on_c, 4, 72, 54
6, 29080, Note_on_c, 4, 72, 0
6, 29080, Note_on_c, 4, 70, 54
6, 29100, Note_on_c, 4, 70, 0
6, 29100, Note_on_c, 4, 69, 54
6, 29120, Note_on_c, 4, 69, 0
6, 29120, Note_on_c, 4, 70, 54
6, 29140, Note_on_c, 4, 70, 0
6, 29140, Note_on_c, 4, 69, 54
6, 29158, Note_on_c, 4, 69, 0
6, 29160, Note_on_c, 4, 66, 54
6, 29178, Note_on_c, 4, 66, 0
6, 29180, Note_on_c, 4, 67, 54
6, 29198, Note_on_c, 4, 67, 0
6, 29200, Note_on_c, 4, 70, 54
6, 29218, Note_on_c, 4, 70, 0
6, 29220, Note_on_c, 4, 74, 54
6, 29238, Note_on_c, 4, 74, 0
6, 29240, Note_on_c, 4, 70, 54
6, 29258, Note_on_c, 4, 70, 0
6, 29260, Note_on_c, 4, 67, 54
6, 29278, Note_on_c, 4, 67, 0
6, 29280, Note_on_c, 4, 65, 54
6, 29400, Note_on_c, 4, 64, 54
6, 29401, Note_on_c, 4, 65, 0
6, 29420, Note_on_c, 4, 64, 0
6, 29420, Note_on_c, 4, 86, 54
6, 29440, Note_on_c, 4, 86, 0
6, 29440, Note_on_c, 4, 84, 54
6, 29460, Note_on_c, 4, 84, 0
6, 29460, Note_on_c, 4, 84, 54
6, 29477, Note_on_c, 4, 84, 0
6, 29480, Note_on_c, 4, 84, 54
6, 29497, Note_on_c, 4, 84, 0
6, 29500, Note_on_c, 4, 84, 54
6, 29517, Note_on_c, 4, 84, 0
6, 29520, Note_on_c, 4, 84, 54
6, 29535, Note_on_c, 4, 84, 0
6, 29540, Note_on_c, 4, 87, 54
6, 29560, Note_on_c, 4, 87, 0
6, 29560, Note_on_c, 4, 86, 54
6, 29580, Note_on_c, 4, 86, 0
6, 29580, Note_on_c, 4, 86, 54
6, 29597, Note_on_c, 4, 86, 0
6, 29600, Note_on_c, 4, 86, 54
6, 29617, Note_on_c, 4, 86, 0
6, 29620, Note_on_c, 4, 86, 54
6, 29637, Note_on_c, 4, 86, 0
6, 29640, Note_on_c, 4, 86, 54
6, 29700, Note_on_c, 4, 86, 0
6, 29700, Note_on_c, 4, 79, 54
6, 29760, Note_on_c, 4, 79, 0
6, 29780, Note_on_c, 4, 85, 54
6, 29800, Note_on_c, 4, 85, 0
6, 29800, Note_on_c, 4, 84, 54
6, 29820, Note_on_c, 4, 84, 0
6, 29820, Note_on_c, 4, 84, 54
6, 29837, Note_on_c, 4, 84, 0
6, 29840, Note_on_c, 4, 84, 54
6, 29857, Note_on_c, 4, 84, 0
6, 29860, Note_on_c, 4, 84, 54
6, 29877, Note_on_c, 4, 84, 0
6, 29880, Note_on_c, 4, 84, 54
6, 29940, Note_on_c, 4, 84, 0
6, 29940, Note_on_c, 4, 77, 54
6, 30000, Note_on_c, 4, 77, 0
6, 30020, Note_on_c, 4, 84, 54
6, 30040, Note_on_c, 4, 84, 0
6, 30040, Note_on_c, 4, 82, 54
6, 30060, Note_on_c, 4, 82, 0
6, 30060, Note_on_c, 4, 82, 54
6, 30077, Note_on_c, 4, 82, 0
6, 30080, Note_on_c, 4, 82, 54
6, 30097, Note_on_c, 4, 82, 0
6, 30100, Note_on_c, 4, 82, 54
6, 30117, Note_on_c, 4, 82, 0
6, 30120, Note_on_c, 4, 82, 54
6, 30140, Note_on_c, 4, 82, 0
6, 30140, Note_on_c, 4, 84, 54
6, 30160, Note_on_c, 4, 84, 0
6, 30160, Note_on_c, 4, 82, 54
6, 30180, Note_on_c, 4, 82, 0
6, 30180, Note_on_c, 4, 81, 54
6, 30200, Note_on_c, 4, 81, 0
6, 30200, Note_on_c, 4, 82, 54
6, 30220, Note_on_c, 4, 82, 0
6, 30220, Note_on_c, 4, 81, 54
6, 30240, Note_on_c, 4, 81, 0
6, 30240, Note_on_c, 4, 81, 54
6, 30260, Note_on_c, 4, 81, 0
6, 30260, Note_on_c, 4, 79, 54
6, 30280, Note_on_c, 4, 79, 0
6, 30280, Note_on_c, 4, 79, 54
6, 30297, Note_on_c, 4, 79, 0
6, 30300, Note_on_c, 4, 79, 55
6, 30317, Note_on_c, 4, 79, 0
6, 30320, Note_on_c, 4, 79, 55
6, 30337, Note_on_c, 4, 79, 0
6, 30340, Note_on_c, 4, 79, 56
6, 30357, Note_on_c, 4, 79, 0
6, 30360, Note_on_c, 4, 79, 56
6, 30380, Note_on_c, 4, 79, 0
6, 30380, Note_on_c, 4, 81, 56
6, 30400, Note_on_c, 4, 81, 0
6, 30400, Note_on_c, 4, 79, 56
6, 30420, Note_on_c, 4, 79, 0
6, 30420, Note_on_c, 4, 77, 57
6, 30440, Note_on_c, 4, 77, 0
6, 30440, Note_on_c, 4, 79, 58
6, 30460, Note_on_c, 4, 79, 0
6, 30460, Note_on_c, 4, 77, 58
6, 30480, Note_on_c, 4, 77, 0
6, 30480, Note_on_c, 4, 77, 59
6, 30500, Note_on_c, 4, 77, 0
6, 30500, Note_on_c, 4, 75, 60
6, 30520, Note_on_c, 4, 75, 0
6, 30520, Note_on_c, 4, 75, 60
6, 30540, Note_on_c, 4, 75, 0
6, 30540, Note_on_c, 4, 75, 60
6, 30557, Note_on_c, 4, 75, 0
6, 30560, Note_on_c, 4, 75, 61
6, 30577, Note_on_c, 4, 75, 0
6, 30580, Note_on_c, 4, 75, 61
6, 30597, Note_on_c, 4, 75, 0
6, 30600, Note_on_c, 4, 75, 62
6, 30620, Note_on_c, 4, 75, 0
6, 30620, Note_on_c, 4, 77, 62
6, 30640, Note_on_c, 4, 77, 0
6, 30640, Note_on_c, 4, 75, 62
6, 30660, Note_on_c, 4, 75, 0
6, 30660, Note_on_c, 4, 74, 63
6, 30680, Note_on_c, 4, 74, 0
6, 30680, Note_on_c, 4, 75, 63
6, 30700, Note_on_c, 4, 75, 0
6, 30700, Note_on_c, 4, 74, 64
6, 30718, Note_on_c, 4, 74, 0
6, 30720, Note_on_c, 4, 72, 64
6, 30740, Note_on_c, 4, 72, 0
6, 30740, Note_on_c, 4, 74, 65
6, 30760, Note_on_c, 4, 74, 0
6, 30760, Note_on_c, 4, 72, 66
6, 30780, Note_on_c, 4, 72, 0
6, 30780, Note_on_c, 4, 70, 66
6, 30800, Note_on_c, 4, 70, 0
6, 30800, Note_on_c, 4, 72, 67
6, 30820, Note_on_c, 4, 72, 0
6, 30820, Note_on_c, 4, 70, 67
6, 30838, Note_on_c, 4, 70, 0
6, 30840, Note_on_c, 4, 69, 68
6, 30860, Note_on_c, 4, 69, 0
6, 30860, Note_on_c, 4, 70, 68
6, 30880, Note_on_c, 4, 70, 0
6, 30880, Note_on_c, 4, 69, 68
6, 30900, Note_on_c, 4, 69, 0
6, 30900, Note_on_c, 4, 67, 68
6, 30920, Note_on_c, 4, 67, 0
6, 30920, Note_on_c, 4, 69, 69
6, 30940, Note_on_c, 4, 69, 0
6, 30940, Note_on_c, 4, 67, 70
6, 30960, Note_on_c, 4, 67, 0
6, 30960, Note_on_c, 4, 65, 49
6, 30980, Note_on_c, 4, 65, 0
6, 30980, Note_on_c, 4, 77, 49
6, 30995, Note_on_c, 4, 77, 0
6, 31000, Note_on_c, 4, 77, 49
6, 31015, Note_on_c, 4, 77, 0
6, 31020, Note_on_c, 4, 77, 49
6, 31035, Note_on_c, 4, 77, 0
6, 31040, Note_on_c, 4, 77, 49
6, 31055, Note_on_c, 4, 77, 0
6, 31060, Note_on_c, 4, 77, 49
6, 31075, Note_on_c, 4, 77, 0
6, 31080, Note_on_c, 4, 77, 49
6, 31095, Note_on_c, 4, 77, 0
6, 31100, Note_on_c, 4, 77, 49
6, 31115, Note_on_c, 4, 77, 0
6, 31120, Note_on_c, 4, 77, 49
6, 31135, Note_on_c, 4, 77, 0
6, 31140, Note_on_c, 4, 77, 49
6, 31155, Note_on_c, 4, 77, 0
6, 31160, Note_on_c, 4, 77, 49
6, 31175, Note_on_c, 4, 77, 0
6, 31180, Note_on_c, 4, 77, 49
6, 31195, Note_on_c, 4, 77, 0
6, 31200, Note_on_c, 4, 77, 49
6, 31215, Note_on_c, 4, 77, 0
6, 31220, Note_on_c, 4, 77, 49
6, 31235, Note_on_c, 4, 77, 0
6, 31240, Note_on_c, 4, 77, 49
6, 31255, Note_on_c, 4, 77, 0
6, 31260, Note_on_c, 4, 77, 49
6, 31275, Note_on_c, 4, 77, 0
6, 31280, Note_on_c, 4, 77, 49
6, 31295, Note_on_c, 4, 77, 0
6, 31300, Note_on_c, 4, 77, 49
6, 31315, Note_on_c, 4, 77, 0
6, 31320, Note_on_c, 4, 77, 49
6, 31380, Note_on_c, 4, 77, 0
6, 31700, Note_on_c, 4, 89, 47
6, 31715, Note_on_c, 4, 89, 0
6, 31720, Note_on_c, 4, 89, 47
6, 31735, Note_on_c, 4, 89, 0
6, 31740, Note_on_c, 4, 89, 47
6, 31755, Note_on_c, 4, 89, 0
6, 31760, Note_on_c, 4, 89, 47
6, 31775, Note_on_c, 4, 89, 0
6, 31780, Note_on_c, 4, 89, 47
6, 31795, Note_on_c, 4, 89, 0
6, 31800, Note_on_c, 4, 89, 47
6, 31815, Note_on_c, 4, 89, 0
6, 31820, Note_on_c, 4, 89, 47
6, 31835, Note_on_c, 4, 89, 0
6, 31840, Note_on_c, 4, 89, 47
6, 31855, Note_on_c, 4, 89, 0
6, 31860, Note_on_c, 4, 89, 47
6, 31875, Note_on_c, 4, 89, 0
6, 31880, Note_on_c, 4, 89, 47
6, 31895, Note_on_c, 4, 89, 0
6, 31900, Note_on_c, 4, 89, 47
6, 31915, Note_on_c, 4, 89, 0
6, 31920, Note_on_c, 4, 89, 47
6, 31935, Note_on_c, 4, 89, 0
6, 31940, Note_on_c, 4, 89, 47
6, 31955, Note_on_c, 4, 89, 0
6, 31960, Note_on_c, 4, 89, 47
6, 31975, Note_on_c, 4, 89, 0
6, 31980, Note_on_c, 4, 89, 47
6, 31995, Note_on_c, 4, 89, 0
6, 32000, Note_on_c, 4, 89, 47
6, 32015, Note_on_c, 4, 89, 0
6, 32020, Note_on_c, 4, 89, 47
6, 32035, Note_on_c, 4, 89, 0
6, 32040, Note_on_c, 4, 89, 47
6, 32100, Note_on_c, 4, 89, 0
6, 32400, Note_on_c, 4, 72, 54
6, 32540, Note_on_c, 4, 72, 0
6, 32540, Note_on_c, 4, 81, 54
6, 32553, Note_on_c, 4, 81, 0
6, 32560, Note_on_c, 4, 79, 54
6, 32573, Note_on_c, 4, 79, 0
6, 32580, Note_on_c, 4, 77, 54
6, 32593, Note_on_c, 4, 77, 0
6, 32600, Note_on_c, 4, 76, 54
6, 32613, Note_on_c, 4, 76, 0
6, 32620, Note_on_c, 4, 74, 54
6, 32633, Note_on_c, 4, 74, 0
6, 32640, Note_on_c, 4, 72, 54
6, 32660, Note_on_c, 4, 72, 0
6, 32660, Note_on_c, 4, 71, 54
6, 32680, Note_on_c, 4, 71, 0
6, 32680, Note_on_c, 4, 70, 54
6, 32700, Note_on_c, 4, 70, 0
6, 32700, Note_on_c, 4, 69, 54
6, 32720, Note_on_c, 4, 69, 0
6, 32720, Note_on_c, 4, 70, 54
6, 32740, Note_on_c, 4, 70, 0
6, 32740, Note_on_c, 4, 67, 54
6, 32760, Note_on_c, 4, 67, 0
6, 32760, Note_on_c, 4, 65, 55
6, 32850, Note_on_c, 4, 65, 0
6, 32850, Note_on_c, 4, 60, 55
6, 32880, Note_on_c, 4, 60, 0
6, 32880, Note_on_c, 4, 69, 55
6, 33090, Note_on_c, 4, 69, 0
6, 33090, Note_on_c, 4, 67, 55
6, 33105, Note_on_c, 4, 67, 0
6, 33105, Note_on_c, 4, 65, 55
6, 33120, Note_on_c, 4, 65, 0
6, 33120, Note_on_c, 4, 64, 55
6, 33180, Note_on_c, 4, 64, 0
6, 33240, Note_on_c, 4, 70, 63
6, 33280, Note_on_c, 4, 70, 0
6, 33465, Note_on_c, 4, 64, 55
6, 33480, Note_on_c, 4, 64, 0
6, 33480, Note_on_c, 4, 65, 55
6, 33540, Note_on_c, 4, 65, 0
6, 33600, Note_on_c, 4, 72, 58
6, 33640, Note_on_c, 4, 72, 0
6, 33840, Note_on_c, 4, 74, 58
6, 33975, Note_on_c, 4, 74, 0
6, 33975, Note_on_c, 4, 76, 58
6, 33990, Note_on_c, 4, 76, 0
6, 33990, Note_on_c, 4, 74, 58
6, 34005, Note_on_c, 4, 74, 0
6, 34005, Note_on_c, 4, 73, 58
6, 34020, Note_on_c, 4, 73, 0
6, 34020, Note_on_c, 4, 74, 58
6, 34050, Note_on_c, 4, 74, 0
6, 34050, Note_on_c, 4, 76, 58
6, 34080, Note_on_c, 4, 76, 0
6, 34080, Note_on_c, 4, 79, 58
6, 34110, Note_on_c, 4, 79, 0
6, 34110, Note_on_c, 4, 77, 58
6, 34140, Note_on_c, 4, 77, 0
6, 34140, Note_on_c, 4, 76, 58
6, 34170, Note_on_c, 4, 76, 0
6, 34170, Note_on_c, 4, 74, 58
6, 34200, Note_on_c, 4, 74, 0
6, 34200, Note_on_c, 4, 74, 58
6, 34290, Note_on_c, 4, 74, 0
6, 34290, Note_on_c, 4, 72, 58
6, 34316, Note_on_c, 4, 72, 0
6, 34320, Note_on_c, 4, 72, 58
6, 34467, Note_on_c, 4, 72, 0
6, 34470, Note_on_c, 4, 73, 58
6, 34500, Note_on_c, 4, 73, 0
6, 34500, Note_on_c, 4, 74, 58
6, 34530, Note_on_c, 4, 74, 0
6, 34530, Note_on_c, 4, 70, 58
6, 34560, Note_on_c, 4, 70, 0
6, 34560, Note_on_c, 4, 69, 49
6, 34707, Note_on_c, 4, 69, 0
6, 34710, Note_on_c, 4, 70, 49
6, 34725, Note_on_c, 4, 70, 0
6, 34725, Note_on_c, 4, 69, 49
6, 34740, Note_on_c, 4, 69, 0
6, 34740, Note_on_c, 4, 68, 49
6, 34755, Note_on_c, 4, 68, 0
6, 34755, Note_on_c, 4, 69, 49
6, 34770, Note_on_c, 4, 69, 0
6, 34770, Note_on_c, 4, 68, 49
6, 34785, Note_on_c, 4, 68, 0
6, 34785, Note_on_c, 4, 69, 49
6, 34800, Note_on_c, 4, 69, 0
6, 34800, Note_on_c, 4, 72, 49
6, 34830, Note_on_c, 4, 72, 0
6, 34830, Note_on_c, 4, 70, 49
6, 34860, Note_on_c, 4, 70, 0
6, 34860, Note_on_c, 4, 69, 49
6, 34890, Note_on_c, 4, 69, 0
6, 34890, Note_on_c, 4, 67, 49
6, 34920, Note_on_c, 4, 67, 0
6, 34920, Note_on_c, 4, 72, 49
6, 34965, Note_on_c, 4, 72, 0
6, 34965, Note_on_c, 4, 69, 48
6, 34980, Note_on_c, 4, 69, 0
6, 34980, Note_on_c, 4, 65, 47
6, 35100, Note_on_c, 4, 65, 0
6, 35100, Note_on_c, 4, 67, 45
6, 35130, Note_on_c, 4, 67, 0
6, 35130, Note_on_c, 4, 69, 45
6, 35156, Note_on_c, 4, 69, 0
6, 35160, Note_on_c, 4, 69, 44
6, 35190, Note_on_c, 4, 69, 0
6, 35190, Note_on_c, 4, 67, 43
6, 35220, Note_on_c, 4, 67, 0
6, 35220, Note_on_c, 4, 65, 43
6, 35250, Note_on_c, 4, 65, 0
6, 35250, Note_on_c, 4, 64, 43
6, 35280, Note_on_c, 4, 64, 0
6, 35280, Note_on_c, 4, 65, 41
6, 35340, Note_on_c, 4, 65, 0
6, 35540, Note_on_c, 4, 64, 58
6, 35560, Note_on_c, 4, 64, 0
6, 35560, Note_on_c, 4, 67, 58
6, 35580, Note_on_c, 4, 67, 0
6, 35580, Note_on_c, 4, 70, 58
6, 35600, Note_on_c, 4, 70, 0
6, 35600, Note_on_c, 4, 67, 58
6, 35620, Note_on_c, 4, 67, 0
6, 35620, Note_on_c, 4, 64, 58
6, 35640, Note_on_c, 4, 64, 0
6, 35640, Note_on_c, 4, 65, 58
6, 35700, Note_on_c, 4, 65, 0
6, 35900, Note_on_c, 4, 67, 58
6, 35920, Note_on_c, 4, 67, 0
6, 35920, Note_on_c, 4, 70, 58
6, 35940, Note_on_c, 4, 70, 0
6, 35940, Note_on_c, 4, 74, 55
6, 35960, Note_on_c, 4, 74, 0
6, 35960, Note_on_c, 4, 72, 54
6, 35980, Note_on_c, 4, 72, 0
6, 35980, Note_on_c, 4, 64, 51
6, 36000, Note_on_c, 4, 64, 0
6, 36000, Note_on_c, 4, 67, 51
6, 36120, Note_on_c, 4, 67, 0
6, 36120, Note_on_c, 4, 65, 50
6, 36180, Note_on_c, 4, 65, 0
6, 36480, Note_on_c, 4, 65, 1
6, 36600, Note_on_c, 4, 65, 0
6, 36600, End_track
7, 0, Start_track
7, 0, MIDI_port, 0
7, 0, Title_t, "Violini II."
7, 0, Program_c, 5, 48
7, 0, Control_c, 5, 7, 105
7, 0, Control_c, 5, 10, 44
7, 240, Note_on_c, 5, 57, 54
7, 360, Note_on_c, 5, 57, 0
7, 360, Note_on_c, 5, 58, 54
7, 420, Note_on_c, 5, 58, 0
7, 480, Note_on_c, 5, 55, 58
7, 480, Note_on_c, 5, 64, 59
7, 520, Note_on_c, 5, 64, 0
7, 520, Note_on_c, 5, 55, 0
7, 960, Note_on_c, 5, 64, 53
7, 1080, Note_on_c, 5, 64, 0
7, 1080, Note_on_c, 5, 65, 53
7, 1140, Note_on_c, 5, 65, 0
7, 1200, Note_on_c, 5, 57, 58
7, 1200, Note_on_c, 5, 65, 56
7, 1240, Note_on_c, 5, 65, 0
7, 1240, Note_on_c, 5, 57, 0
7, 1440, Note_on_c, 5, 65, 56
7, 1530, Note_on_c, 5, 65, 0
7, 1530, Note_on_c, 5, 60, 56
7, 1560, Note_on_c, 5, 60, 0
7, 1560, Note_on_c, 5, 69, 56
7, 1650, Note_on_c, 5, 69, 0
7, 1650, Note_on_c, 5, 67, 56
7, 1660, Note_on_c, 5, 67, 0
7, 1660, Note_on_c, 5, 65, 56
7, 1670, Note_on_c, 5, 65, 0
7, 1670, Note_on_c, 5, 64, 56
7, 1680, Note_on_c, 5, 64, 0
7, 1680, Note_on_c, 5, 67, 56
7, 1710, Note_on_c, 5, 67, 0
7, 1710, Note_on_c, 5, 65, 56
7, 1740, Note_on_c, 5, 65, 0
7, 1740, Note_on_c, 5, 64, 56
7, 1770, Note_on_c, 5, 64, 0
7, 1770, Note_on_c, 5, 62, 56
7, 1800, Note_on_c, 5, 62, 0
7, 1800, Note_on_c, 5, 60, 56
7, 1860, Note_on_c, 5, 60, 0
7, 1860, Note_on_c, 5, 59, 56
7, 1920, Note_on_c, 5, 59, 0
7, 1920, Note_on_c, 5, 58, 56
7, 2040, Note_on_c, 5, 58, 0
7, 2040, Note_on_c, 5, 57, 56
7, 2160, Note_on_c, 5, 57, 0
7, 2160, Note_on_c, 5, 62, 65
7, 2190, Note_on_c, 5, 62, 0
7, 2190, Note_on_c, 5, 65, 65
7, 2220, Note_on_c, 5, 65, 0
7, 2220, Note_on_c, 5, 65, 65
7, 2235, Note_on_c, 5, 65, 0
7, 2250, Note_on_c, 5, 65, 65
7, 2265, Note_on_c, 5, 65, 0
7, 2280, Note_on_c, 5, 62, 65
7, 2310, Note_on_c, 5, 62, 0
7, 2310, Note_on_c, 5, 65, 64
7, 2340, Note_on_c, 5, 65, 0
7, 2340, Note_on_c, 5, 65, 64
7, 2355, Note_on_c, 5, 65, 0
7, 2370, Note_on_c, 5, 65, 64
7, 2385, Note_on_c, 5, 65, 0
7, 2400, Note_on_c, 5, 62, 64
7, 2430, Note_on_c, 5, 62, 0
7, 2430, Note_on_c, 5, 65, 64
7, 2460, Note_on_c, 5, 65, 0
7, 2460, Note_on_c, 5, 65, 63
7, 2475, Note_on_c, 5, 65, 0
7, 2490, Note_on_c, 5, 65, 63
7, 2505, Note_on_c, 5, 65, 0
7, 2520, Note_on_c, 5, 57, 63
7, 2550, Note_on_c, 5, 57, 0
7, 2550, Note_on_c, 5, 65, 63
7, 2580, Note_on_c, 5, 65, 0
7, 2580, Note_on_c, 5, 65, 63
7, 2595, Note_on_c, 5, 65, 0
7, 2610, Note_on_c, 5, 65, 63
7, 2625, Note_on_c, 5, 65, 0
7, 2640, Note_on_c, 5, 57, 63
7, 2670, Note_on_c, 5, 57, 0
7, 2670, Note_on_c, 5, 65, 63
7, 2700, Note_on_c, 5, 65, 0
7, 2700, Note_on_c, 5, 65, 63
7, 2715, Note_on_c, 5, 65, 0
7, 2730, Note_on_c, 5, 65, 63
7, 2745, Note_on_c, 5, 65, 0
7, 2760, Note_on_c, 5, 55, 62
7, 2790, Note_on_c, 5, 55, 0
7, 2790, Note_on_c, 5, 64, 62
7, 2820, Note_on_c, 5, 64, 0
7, 2820, Note_on_c, 5, 64, 62
7, 2835, Note_on_c, 5, 64, 0
7, 2850, Note_on_c, 5, 64, 62
7, 2865, Note_on_c, 5, 64, 0
7, 2880, Note_on_c, 5, 57, 54
7, 2910, Note_on_c, 5, 57, 0
7, 2910, Note_on_c, 5, 67, 54
7, 2940, Note_on_c, 5, 67, 0
7, 2940, Note_on_c, 5, 67, 54
7, 2955, Note_on_c, 5, 67, 0
7, 2970, Note_on_c, 5, 67, 54
7, 2985, Note_on_c, 5, 67, 0
7, 3000, Note_on_c, 5, 57, 54
7, 3030, Note_on_c, 5, 57, 0
7, 3030, Note_on_c, 5, 65, 54
7, 3060, Note_on_c, 5, 65, 0
7, 3060, Note_on_c, 5, 65, 54
7, 3075, Note_on_c, 5, 65, 0
7, 3090, Note_on_c, 5, 65, 54
7, 3105, Note_on_c, 5, 65, 0
7, 3120, Note_on_c, 5, 55, 54
7, 3150, Note_on_c, 5, 55, 0
7, 3150, Note_on_c, 5, 62, 54
7, 3180, Note_on_c, 5, 62, 0
7, 3180, Note_on_c, 5, 62, 54
7, 3195, Note_on_c, 5, 62, 0
7, 3210, Note_on_c, 5, 62, 54
7, 3225, Note_on_c, 5, 62, 0
7, 3240, Note_on_c, 5, 57, 54
7, 3270, Note_on_c, 5, 57, 0
7, 3270, Note_on_c, 5, 60, 54
7, 3300, Note_on_c, 5, 60, 0
7, 3300, Note_on_c, 5, 60, 54
7, 3315, Note_on_c, 5, 60, 0
7, 3330, Note_on_c, 5, 60, 54
7, 3345, Note_on_c, 5, 60, 0
7, 3360, Note_on_c, 5, 57, 54
7, 3390, Note_on_c, 5, 57, 0
7, 3390, Note_on_c, 5, 60, 54
7, 3420, Note_on_c, 5, 60, 0
7, 3420, Note_on_c, 5, 60, 54
7, 3435, Note_on_c, 5, 60, 0
7, 3450, Note_on_c, 5, 60, 54
7, 3465, Note_on_c, 5, 60, 0
7, 3480, Note_on_c, 5, 58, 54
7, 3510, Note_on_c, 5, 58, 0
7, 3510, Note_on_c, 5, 60, 54
7, 3540, Note_on_c, 5, 60, 0
7, 3540, Note_on_c, 5, 60, 54
7, 3555, Note_on_c, 5, 60, 0
7, 3570, Note_on_c, 5, 60, 54
7, 3585, Note_on_c, 5, 60, 0
7, 3600, Note_on_c, 5, 60, 51
7, 3720, Note_on_c, 5, 60, 0
7, 4095, Note_on_c, 5, 66, 50
7, 4110, Note_on_c, 5, 66, 0
7, 4110, Note_on_c, 5, 67, 50
7, 4125, Note_on_c, 5, 67, 0
7, 4125, Note_on_c, 5, 66, 50
7, 4140, Note_on_c, 5, 66, 0
7, 4140, Note_on_c, 5, 67, 50
7, 4155, Note_on_c, 5, 67, 0
7, 4155, Note_on_c, 5, 69, 50
7, 4170, Note_on_c, 5, 69, 0
7, 4170, Note_on_c, 5, 70, 50
7, 4185, Note_on_c, 5, 70, 0
7, 4185, Note_on_c, 5, 69, 50
7, 4200, Note_on_c, 5, 69, 0
7, 4200, Note_on_c, 5, 70, 50
7, 4215, Note_on_c, 5, 70, 0
7, 4215, Note_on_c, 5, 73, 50
7, 4230, Note_on_c, 5, 73, 0
7, 4230, Note_on_c, 5, 74, 50
7, 4245, Note_on_c, 5, 74, 0
7, 4245, Note_on_c, 5, 69, 50
7, 4260, Note_on_c, 5, 69, 0
7, 4260, Note_on_c, 5, 72, 50
7, 4275, Note_on_c, 5, 72, 0
7, 4275, Note_on_c, 5, 70, 50
7, 4290, Note_on_c, 5, 70, 0
7, 4290, Note_on_c, 5, 69, 50
7, 4305, Note_on_c, 5, 69, 0
7, 4305, Note_on_c, 5, 67, 50
7, 4320, Note_on_c, 5, 67, 0
7, 4320, Note_on_c, 5, 65, 50
7, 4440, Note_on_c, 5, 65, 0
7, 4440, Note_on_c, 5, 64, 50
7, 4500, Note_on_c, 5, 64, 0
7, 4815, Note_on_c, 5, 68, 49
7, 4830, Note_on_c, 5, 68, 0
7, 4830, Note_on_c, 5, 69, 50
7, 4845, Note_on_c, 5, 69, 0
7, 4845, Note_on_c, 5, 68, 50
7, 4860, Note_on_c, 5, 68, 0
7, 4860, Note_on_c, 5, 69, 50
7, 4875, Note_on_c, 5, 69, 0
7, 4875, Note_on_c, 5, 71, 50
7, 4890, Note_on_c, 5, 71, 0
7, 4890, Note_on_c, 5, 72, 50
7, 4905, Note_on_c, 5, 72, 0
7, 4905, Note_on_c, 5, 71, 51
7, 4920, Note_on_c, 5, 71, 0
7, 4920, Note_on_c, 5, 74, 51
7, 4935, Note_on_c, 5, 74, 0
7, 4935, Note_on_c, 5, 72, 51
7, 4950, Note_on_c, 5, 72, 0
7, 4950, Note_on_c, 5, 71, 51
7, 4965, Note_on_c, 5, 71, 0
7, 4965, Note_on_c, 5, 72, 51
7, 4980, Note_on_c, 5, 72, 0
7, 4980, Note_on_c, 5, 70, 51
7, 4995, Note_on_c, 5, 70, 0
7, 4995, Note_on_c, 5, 69, 51
7, 5010, Note_on_c, 5, 69, 0
7, 5010, Note_on_c, 5, 67, 51
7, 5025, Note_on_c, 5, 67, 0
7, 5025, Note_on_c, 5, 65, 51
7, 5040, Note_on_c, 5, 65, 0
7, 5040, Note_on_c, 5, 72, 51
7, 5130, Note_on_c, 5, 72, 0
7, 5130, Note_on_c, 5, 71, 51
7, 5160, Note_on_c, 5, 71, 0
7, 5160, Note_on_c, 5, 70, 51
7, 5340, Note_on_c, 5, 70, 0
7, 5340, Note_on_c, 5, 69, 49
7, 5393, Note_on_c, 5, 69, 0
7, 5400, Note_on_c, 5, 69, 49
7, 5490, Note_on_c, 5, 69, 0
7, 5490, Note_on_c, 5, 67, 48
7, 5512, Note_on_c, 5, 67, 0
7, 5520, Note_on_c, 5, 67, 48
7, 5700, Note_on_c, 5, 67, 0
7, 5700, Note_on_c, 5, 65, 47
7, 5752, Note_on_c, 5, 65, 0
7, 5760, Note_on_c, 5, 65, 46
7, 5909, Note_on_c, 5, 65, 0
7, 5910, Note_on_c, 5, 64, 46
7, 5940, Note_on_c, 5, 64, 0
7, 5940, Note_on_c, 5, 62, 45
7, 5970, Note_on_c, 5, 62, 0
7, 5970, Note_on_c, 5, 60, 45
7, 6000, Note_on_c, 5, 60, 0
7, 6000, Note_on_c, 5, 59, 45
7, 6030, Note_on_c, 5, 59, 0
7, 6030, Note_on_c, 5, 58, 45
7, 6060, Note_on_c, 5, 58, 0
7, 6060, Note_on_c, 5, 57, 45
7, 6090, Note_on_c, 5, 57, 0
7, 6090, Note_on_c, 5, 60, 45
7, 6116, Note_on_c, 5, 60, 0
7, 6120, Note_on_c, 5, 58, 45
7, 6194, Note_on_c, 5, 58, 0
7, 6195, Note_on_c, 5, 57, 44
7, 6209, Note_on_c, 5, 57, 0
7, 6210, Note_on_c, 5, 55, 44
7, 6224, Note_on_c, 5, 55, 0
7, 6225, Note_on_c, 5, 57, 44
7, 6239, Note_on_c, 5, 57, 0
7, 6240, Note_on_c, 5, 55, 44
7, 6359, Note_on_c, 5, 55, 0
7, 6480, Note_on_c, 5, 55, 63
7, 6553, Note_on_c, 5, 55, 0
7, 6570, Note_on_c, 5, 55, 54
7, 6627, Note_on_c, 5, 55, 0
7, 6630, Note_on_c, 5, 55, 54
7, 6687, Note_on_c, 5, 55, 0
7, 6690, Note_on_c, 5, 55, 54
7, 6747, Note_on_c, 5, 55, 0
7, 6750, Note_on_c, 5, 55, 54
7, 6807, Note_on_c, 5, 55, 0
7, 6810, Note_on_c, 5, 55, 56
7, 6839, Note_on_c, 5, 55, 0
7, 6840, Note_on_c, 5, 56, 56
7, 6864, Note_on_c, 5, 56, 0
7, 6870, Note_on_c, 5, 56, 56
7, 6899, Note_on_c, 5, 56, 0
7, 6930, Note_on_c, 5, 56, 56
7, 6960, Note_on_c, 5, 56, 0
7, 6990, Note_on_c, 5, 56, 56
7, 7020, Note_on_c, 5, 56, 0
7, 7050, Note_on_c, 5, 56, 56
7, 7080, Note_on_c, 5, 56, 0
7, 7110, Note_on_c, 5, 56, 56
7, 7140, Note_on_c, 5, 56, 0
7, 7170, Note_on_c, 5, 56, 56
7, 7200, Note_on_c, 5, 56, 0
7, 7200, Note_on_c, 5, 59, 62
7, 7224, Note_on_c, 5, 59, 0
7, 7230, Note_on_c, 5, 59, 59
7, 7287, Note_on_c, 5, 59, 0
7, 7290, Note_on_c, 5, 59, 56
7, 7347, Note_on_c, 5, 59, 0
7, 7350, Note_on_c, 5, 59, 56
7, 7407, Note_on_c, 5, 59, 0
7, 7410, Note_on_c, 5, 59, 56
7, 7467, Note_on_c, 5, 59, 0
7, 7470, Note_on_c, 5, 59, 56
7, 7527, Note_on_c, 5, 59, 0
7, 7530, Note_on_c, 5, 59, 56
7, 7560, Note_on_c, 5, 60, 56
7, 7561, Note_on_c, 5, 59, 0
7, 7584, Note_on_c, 5, 60, 0
7, 7589, Note_on_c, 5, 60, 56
7, 7618, Note_on_c, 5, 60, 0
7, 7650, Note_on_c, 5, 60, 56
7, 7679, Note_on_c, 5, 60, 0
7, 7712, Note_on_c, 5, 60, 56
7, 7741, Note_on_c, 5, 60, 0
7, 7770, Note_on_c, 5, 60, 56
7, 7799, Note_on_c, 5, 60, 0
7, 7831, Note_on_c, 5, 60, 56
7, 7860, Note_on_c, 5, 60, 0
7, 7890, Note_on_c, 5, 60, 56
7, 7919, Note_on_c, 5, 60, 0
7, 7920, Note_on_c, 5, 60, 69
7, 7940, Note_on_c, 5, 60, 0
7, 7940, Note_on_c, 5, 60, 68
7, 7960, Note_on_c, 5, 60, 0
7, 7960, Note_on_c, 5, 60, 64
7, 7980, Note_on_c, 5, 60, 0
7, 7980, Note_on_c, 5, 60, 54
7, 8000, Note_on_c, 5, 60, 0
7, 8000, Note_on_c, 5, 60, 54
7, 8020, Note_on_c, 5, 60, 0
7, 8020, Note_on_c, 5, 60, 54
7, 8040, Note_on_c, 5, 60, 0
7, 8040, Note_on_c, 5, 60, 54
7, 8060, Note_on_c, 5, 60, 0
7, 8060, Note_on_c, 5, 60, 54
7, 8080, Note_on_c, 5, 60, 0
7, 8080, Note_on_c, 5, 60, 54
7, 8100, Note_on_c, 5, 60, 0
7, 8100, Note_on_c, 5, 60, 54
7, 8120, Note_on_c, 5, 60, 0
7, 8120, Note_on_c, 5, 60, 54
7, 8140, Note_on_c, 5, 60, 0
7, 8140, Note_on_c, 5, 60, 54
7, 8160, Note_on_c, 5, 60, 0
7, 8160, Note_on_c, 5, 60, 54
7, 8180, Note_on_c, 5, 60, 0
7, 8180, Note_on_c, 5, 60, 54
7, 8200, Note_on_c, 5, 60, 0
7, 8200, Note_on_c, 5, 60, 54
7, 8220, Note_on_c, 5, 60, 0
7, 8220, Note_on_c, 5, 60, 54
7, 8240, Note_on_c, 5, 60, 0
7, 8240, Note_on_c, 5, 60, 54
7, 8260, Note_on_c, 5, 60, 0
7, 8260, Note_on_c, 5, 60, 54
7, 8280, Note_on_c, 5, 60, 0
7, 8280, Note_on_c, 5, 62, 54
7, 8300, Note_on_c, 5, 62, 0
7, 8300, Note_on_c, 5, 62, 54
7, 8320, Note_on_c, 5, 62, 0
7, 8320, Note_on_c, 5, 62, 54
7, 8340, Note_on_c, 5, 62, 0
7, 8340, Note_on_c, 5, 62, 54
7, 8360, Note_on_c, 5, 62, 0
7, 8360, Note_on_c, 5, 62, 54
7, 8380, Note_on_c, 5, 62, 0
7, 8380, Note_on_c, 5, 62, 54
7, 8400, Note_on_c, 5, 62, 0
7, 8400, Note_on_c, 5, 63, 69
7, 8420, Note_on_c, 5, 63, 0
7, 8420, Note_on_c, 5, 63, 68
7, 8440, Note_on_c, 5, 63, 0
7, 8440, Note_on_c, 5, 63, 64
7, 8460, Note_on_c, 5, 63, 0
7, 8460, Note_on_c, 5, 63, 54
7, 8480, Note_on_c, 5, 63, 0
7, 8480, Note_on_c, 5, 63, 54
7, 8500, Note_on_c, 5, 63, 0
7, 8500, Note_on_c, 5, 63, 54
7, 8520, Note_on_c, 5, 63, 0
7, 8520, Note_on_c, 5, 64, 54
7, 8540, Note_on_c, 5, 64, 0
7, 8540, Note_on_c, 5, 64, 54
7, 8560, Note_on_c, 5, 64, 0
7, 8560, Note_on_c, 5, 64, 54
7, 8580, Note_on_c, 5, 64, 0
7, 8580, Note_on_c, 5, 64, 54
7, 8600, Note_on_c, 5, 64, 0
7, 8600, Note_on_c, 5, 64, 54
7, 8620, Note_on_c, 5, 64, 0
7, 8620, Note_on_c, 5, 64, 54
7, 8640, Note_on_c, 5, 64, 0
7, 8640, Note_on_c, 5, 64, 69
7, 8660, Note_on_c, 5, 64, 0
7, 8660, Note_on_c, 5, 64, 68
7, 8680, Note_on_c, 5, 64, 0
7, 8680, Note_on_c, 5, 64, 64
7, 8700, Note_on_c, 5, 64, 0
7, 8700, Note_on_c, 5, 64, 54
7, 8720, Note_on_c, 5, 64, 0
7, 8720, Note_on_c, 5, 64, 54
7, 8740, Note_on_c, 5, 64, 0
7, 8740, Note_on_c, 5, 64, 54
7, 8760, Note_on_c, 5, 64, 0
7, 8760, Note_on_c, 5, 65, 54
7, 8780, Note_on_c, 5, 65, 0
7, 8780, Note_on_c, 5, 65, 54
7, 8800, Note_on_c, 5, 65, 0
7, 8800, Note_on_c, 5, 65, 54
7, 8820, Note_on_c, 5, 65, 0
7, 8820, Note_on_c, 5, 65, 54
7, 8840, Note_on_c, 5, 65, 0
7, 8840, Note_on_c, 5, 65, 54
7, 8860, Note_on_c, 5, 65, 0
7, 8860, Note_on_c, 5, 65, 54
7, 8880, Note_on_c, 5, 65, 0
7, 8880, Note_on_c, 5, 65, 69
7, 8900, Note_on_c, 5, 65, 0
7, 8900, Note_on_c, 5, 65, 68
7, 8920, Note_on_c, 5, 65, 0
7, 8920, Note_on_c, 5, 65, 63
7, 8940, Note_on_c, 5, 65, 0
7, 8940, Note_on_c, 5, 65, 54
7, 8960, Note_on_c, 5, 65, 0
7, 8960, Note_on_c, 5, 65, 54
7, 8980, Note_on_c, 5, 65, 0
7, 8980, Note_on_c, 5, 65, 54
7, 9000, Note_on_c, 5, 65, 0
7, 9000, Note_on_c, 5, 66, 54
7, 9360, Note_on_c, 5, 66, 0
7, 9360, Note_on_c, 5, 67, 54
7, 9420, Note_on_c, 5, 67, 0
7, 9480, Note_on_c, 5, 55, 54
7, 9540, Note_on_c, 5, 55, 0
7, 9720, Note_on_c, 5, 55, 45
7, 9740, Note_on_c, 5, 55, 0
7, 9740, Note_on_c, 5, 60, 45
7, 9760, Note_on_c, 5, 60, 0
7, 9760, Note_on_c, 5, 64, 45
7, 9780, Note_on_c, 5, 64, 0
7, 9780, Note_on_c, 5, 67, 45
7, 9800, Note_on_c, 5, 67, 0
7, 9800, Note_on_c, 5, 64, 45
7, 9820, Note_on_c, 5, 64, 0
7, 9820, Note_on_c, 5, 60, 45
7, 9840, Note_on_c, 5, 60, 0
7, 9840, Note_on_c, 5, 55, 45
7, 9860, Note_on_c, 5, 55, 0
7, 9860, Note_on_c, 5, 59, 45
7, 9880, Note_on_c, 5, 59, 0
7, 9880, Note_on_c, 5, 62, 45
7, 9900, Note_on_c, 5, 62, 0
7, 9900, Note_on_c, 5, 67, 45
7, 9920, Note_on_c, 5, 67, 0
7, 9920, Note_on_c, 5, 62, 45
7, 9940, Note_on_c, 5, 62, 0
7, 9940, Note_on_c, 5, 59, 45
7, 9960, Note_on_c, 5, 59, 0
7, 9960, Note_on_c, 5, 55, 45
7, 9980, Note_on_c, 5, 55, 0
7, 9980, Note_on_c, 5, 60, 45
7, 10000, Note_on_c, 5, 60, 0
7, 10000, Note_on_c, 5, 64, 45
7, 10020, Note_on_c, 5, 64, 0
7, 10020, Note_on_c, 5, 67, 45
7, 10040, Note_on_c, 5, 67, 0
7, 10040, Note_on_c, 5, 64, 45
7, 10060, Note_on_c, 5, 64, 0
7, 10060, Note_on_c, 5, 60, 45
7, 10080, Note_on_c, 5, 60, 0
7, 10080, Note_on_c, 5, 55, 45
7, 10100, Note_on_c, 5, 55, 0
7, 10100, Note_on_c, 5, 59, 45
7, 10120, Note_on_c, 5, 59, 0
7, 10120, Note_on_c, 5, 62, 45
7, 10140, Note_on_c, 5, 62, 0
7, 10140, Note_on_c, 5, 67, 45
7, 10160, Note_on_c, 5, 67, 0
7, 10160, Note_on_c, 5, 62, 45
7, 10180, Note_on_c, 5, 62, 0
7, 10180, Note_on_c, 5, 59, 45
7, 10200, Note_on_c, 5, 59, 0
7, 10200, Note_on_c, 5, 55, 45
7, 10220, Note_on_c, 5, 55, 0
7, 10220, Note_on_c, 5, 59, 45
7, 10240, Note_on_c, 5, 59, 0
7, 10240, Note_on_c, 5, 62, 45
7, 10260, Note_on_c, 5, 62, 0
7, 10260, Note_on_c, 5, 67, 45
7, 10280, Note_on_c, 5, 67, 0
7, 10280, Note_on_c, 5, 62, 45
7, 10300, Note_on_c, 5, 62, 0
7, 10300, Note_on_c, 5, 59, 45
7, 10320, Note_on_c, 5, 59, 0
7, 10320, Note_on_c, 5, 55, 45
7, 10340, Note_on_c, 5, 55, 0
7, 10340, Note_on_c, 5, 59, 45
7, 10360, Note_on_c, 5, 59, 0
7, 10360, Note_on_c, 5, 62, 45
7, 10380, Note_on_c, 5, 62, 0
7, 10380, Note_on_c, 5, 67, 45
7, 10400, Note_on_c, 5, 67, 0
7, 10400, Note_on_c, 5, 62, 45
7, 10420, Note_on_c, 5, 62, 0
7, 10420, Note_on_c, 5, 59, 45
7, 10440, Note_on_c, 5, 59, 0
7, 10440, Note_on_c, 5, 55, 45
7, 10460, Note_on_c, 5, 55, 0
7, 10460, Note_on_c, 5, 59, 45
7, 10480, Note_on_c, 5, 59, 0
7, 10480, Note_on_c, 5, 62, 45
7, 10500, Note_on_c, 5, 62, 0
7, 10500, Note_on_c, 5, 67, 45
7, 10520, Note_on_c, 5, 67, 0
7, 10520, Note_on_c, 5, 62, 45
7, 10540, Note_on_c, 5, 62, 0
7, 10540, Note_on_c, 5, 59, 45
7, 10560, Note_on_c, 5, 59, 0
7, 10560, Note_on_c, 5, 55, 45
7, 10580, Note_on_c, 5, 55, 0
7, 10580, Note_on_c, 5, 60, 45
7, 10600, Note_on_c, 5, 60, 0
7, 10600, Note_on_c, 5, 64, 45
7, 10620, Note_on_c, 5, 64, 0
7, 10620, Note_on_c, 5, 67, 45
7, 10640, Note_on_c, 5, 67, 0
7, 10640, Note_on_c, 5, 64, 45
7, 10660, Note_on_c, 5, 64, 0
7, 10660, Note_on_c, 5, 60, 45
7, 10680, Note_on_c, 5, 60, 0
7, 10680, Note_on_c, 5, 55, 45
7, 10700, Note_on_c, 5, 55, 0
7, 10700, Note_on_c, 5, 59, 45
7, 10720, Note_on_c, 5, 59, 0
7, 10720, Note_on_c, 5, 62, 45
7, 10740, Note_on_c, 5, 62, 0
7, 10740, Note_on_c, 5, 67, 45
7, 10760, Note_on_c, 5, 67, 0
7, 10760, Note_on_c, 5, 65, 45
7, 10780, Note_on_c, 5, 65, 0
7, 10780, Note_on_c, 5, 62, 45
7, 10800, Note_on_c, 5, 62, 0
7, 10800, Note_on_c, 5, 55, 45
7, 10820, Note_on_c, 5, 55, 0
7, 10820, Note_on_c, 5, 60, 45
7, 10840, Note_on_c, 5, 60, 0
7, 10840, Note_on_c, 5, 64, 45
7, 10860, Note_on_c, 5, 64, 0
7, 10860, Note_on_c, 5, 67, 45
7, 10880, Note_on_c, 5, 67, 0
7, 10880, Note_on_c, 5, 64, 45
7, 10900, Note_on_c, 5, 64, 0
7, 10900, Note_on_c, 5, 60, 45
7, 10920, Note_on_c, 5, 60, 0
7, 10920, Note_on_c, 5, 55, 45
7, 10940, Note_on_c, 5, 55, 0
7, 10940, Note_on_c, 5, 60, 45
7, 10960, Note_on_c, 5, 60, 0
7, 10960, Note_on_c, 5, 64, 45
7, 10980, Note_on_c, 5, 64, 0
7, 10980, Note_on_c, 5, 67, 45
7, 11000, Note_on_c, 5, 67, 0
7, 11000, Note_on_c, 5, 64, 45
7, 11020, Note_on_c, 5, 64, 0
7, 11020, Note_on_c, 5, 60, 45
7, 11040, Note_on_c, 5, 60, 0
7, 11040, Note_on_c, 5, 55, 45
7, 11060, Note_on_c, 5, 55, 0
7, 11060, Note_on_c, 5, 60, 45
7, 11080, Note_on_c, 5, 60, 0
7, 11080, Note_on_c, 5, 64, 45
7, 11100, Note_on_c, 5, 64, 0
7, 11100, Note_on_c, 5, 67, 45
7, 11120, Note_on_c, 5, 67, 0
7, 11120, Note_on_c, 5, 64, 45
7, 11140, Note_on_c, 5, 64, 0
7, 11140, Note_on_c, 5, 60, 45
7, 11160, Note_on_c, 5, 60, 0
7, 11160, Note_on_c, 5, 55, 45
7, 11180, Note_on_c, 5, 55, 0
7, 11180, Note_on_c, 5, 61, 45
7, 11200, Note_on_c, 5, 61, 0
7, 11200, Note_on_c, 5, 64, 45
7, 11220, Note_on_c, 5, 64, 0
7, 11220, Note_on_c, 5, 67, 45
7, 11240, Note_on_c, 5, 67, 0
7, 11240, Note_on_c, 5, 64, 45
7, 11260, Note_on_c, 5, 64, 0
7, 11260, Note_on_c, 5, 61, 45
7, 11280, Note_on_c, 5, 61, 0
7, 11280, Note_on_c, 5, 60, 45
7, 11300, Note_on_c, 5, 60, 0
7, 11300, Note_on_c, 5, 62, 45
7, 11320, Note_on_c, 5, 62, 0
7, 11320, Note_on_c, 5, 66, 45
7, 11340, Note_on_c, 5, 66, 0
7, 11340, Note_on_c, 5, 69, 45
7, 11360, Note_on_c, 5, 69, 0
7, 11360, Note_on_c, 5, 66, 45
7, 11380, Note_on_c, 5, 66, 0
7, 11380, Note_on_c, 5, 62, 45
7, 11400, Note_on_c, 5, 62, 0
7, 11400, Note_on_c, 5, 59, 45
7, 11420, Note_on_c, 5, 59, 0
7, 11420, Note_on_c, 5, 62, 45
7, 11440, Note_on_c, 5, 62, 0
7, 11440, Note_on_c, 5, 65, 45
7, 11460, Note_on_c, 5, 65, 0
7, 11460, Note_on_c, 5, 67, 45
7, 11480, Note_on_c, 5, 67, 0
7, 11480, Note_on_c, 5, 65, 45
7, 11500, Note_on_c, 5, 65, 0
7, 11500, Note_on_c, 5, 62, 45
7, 11520, Note_on_c, 5, 62, 0
7, 11520, Note_on_c, 5, 58, 45
7, 11540, Note_on_c, 5, 58, 0
7, 11540, Note_on_c, 5, 60, 45
7, 11560, Note_on_c, 5, 60, 0
7, 11560, Note_on_c, 5, 64, 45
7, 11580, Note_on_c, 5, 64, 0
7, 11580, Note_on_c, 5, 67, 45
7, 11600, Note_on_c, 5, 67, 0
7, 11600, Note_on_c, 5, 64, 45
7, 11620, Note_on_c, 5, 64, 0
7, 11620, Note_on_c, 5, 60, 45
7, 11640, Note_on_c, 5, 60, 0
7, 11640, Note_on_c, 5, 57, 45
7, 11660, Note_on_c, 5, 57, 0
7, 11660, Note_on_c, 5, 60, 45
7, 11680, Note_on_c, 5, 60, 0
7, 11680, Note_on_c, 5, 65, 45
7, 11700, Note_on_c, 5, 65, 0
7, 11700, Note_on_c, 5, 69, 45
7, 11720, Note_on_c, 5, 69, 0
7, 11720, Note_on_c, 5, 65, 45
7, 11740, Note_on_c, 5, 65, 0
7, 11740, Note_on_c, 5, 62, 45
7, 11760, Note_on_c, 5, 62, 0
7, 11760, Note_on_c, 5, 59, 45
7, 11780, Note_on_c, 5, 59, 0
7, 11780, Note_on_c, 5, 57, 45
7, 11800, Note_on_c, 5, 57, 0
7, 11800, Note_on_c, 5, 59, 45
7, 11820, Note_on_c, 5, 59, 0
7, 11820, Note_on_c, 5, 60, 45
7, 11840, Note_on_c, 5, 60, 0
7, 11840, Note_on_c, 5, 59, 45
7, 11860, Note_on_c, 5, 59, 0
7, 11860, Note_on_c, 5, 60, 45
7, 11880, Note_on_c, 5, 60, 0
7, 11880, Note_on_c, 5, 57, 45
7, 11900, Note_on_c, 5, 57, 0
7, 11900, Note_on_c, 5, 65, 45
7, 11920, Note_on_c, 5, 65, 0
7, 11920, Note_on_c, 5, 62, 45
7, 11940, Note_on_c, 5, 62, 0
7, 11940, Note_on_c, 5, 65, 45
7, 11960, Note_on_c, 5, 65, 0
7, 11960, Note_on_c, 5, 69, 45
7, 11980, Note_on_c, 5, 69, 0
7, 11980, Note_on_c, 5, 65, 45
7, 12000, Note_on_c, 5, 65, 0
7, 12000, Note_on_c, 5, 55, 45
7, 12020, Note_on_c, 5, 55, 0
7, 12020, Note_on_c, 5, 60, 45
7, 12040, Note_on_c, 5, 60, 0
7, 12040, Note_on_c, 5, 64, 45
7, 12060, Note_on_c, 5, 64, 0
7, 12060, Note_on_c, 5, 67, 45
7, 12080, Note_on_c, 5, 67, 0
7, 12080, Note_on_c, 5, 64, 45
7, 12100, Note_on_c, 5, 64, 0
7, 12100, Note_on_c, 5, 60, 45
7, 12120, Note_on_c, 5, 60, 0
7, 12120, Note_on_c, 5, 62, 45
7, 12140, Note_on_c, 5, 62, 0
7, 12140, Note_on_c, 5, 65, 45
7, 12160, Note_on_c, 5, 65, 0
7, 12160, Note_on_c, 5, 67, 45
7, 12180, Note_on_c, 5, 67, 0
7, 12180, Note_on_c, 5, 65, 45
7, 12200, Note_on_c, 5, 65, 0
7, 12200, Note_on_c, 5, 62, 45
7, 12220, Note_on_c, 5, 62, 0
7, 12220, Note_on_c, 5, 59, 45
7, 12240, Note_on_c, 5, 59, 0
7, 12240, Note_on_c, 5, 61, 45
7, 12260, Note_on_c, 5, 61, 0
7, 12260, Note_on_c, 5, 64, 45
7, 12280, Note_on_c, 5, 64, 0
7, 12280, Note_on_c, 5, 67, 45
7, 12300, Note_on_c, 5, 67, 0
7, 12300, Note_on_c, 5, 69, 45
7, 12320, Note_on_c, 5, 69, 0
7, 12320, Note_on_c, 5, 67, 45
7, 12340, Note_on_c, 5, 67, 0
7, 12340, Note_on_c, 5, 64, 45
7, 12360, Note_on_c, 5, 64, 0
7, 12360, Note_on_c, 5, 60, 45
7, 12380, Note_on_c, 5, 60, 0
7, 12380, Note_on_c, 5, 62, 45
7, 12400, Note_on_c, 5, 62, 0
7, 12400, Note_on_c, 5, 66, 45
7, 12420, Note_on_c, 5, 66, 0
7, 12420, Note_on_c, 5, 69, 45
7, 12440, Note_on_c, 5, 69, 0
7, 12440, Note_on_c, 5, 66, 45
7, 12460, Note_on_c, 5, 66, 0
7, 12460, Note_on_c, 5, 62, 45
7, 12480, Note_on_c, 5, 62, 0
7, 12480, Note_on_c, 5, 59, 45
7, 12500, Note_on_c, 5, 59, 0
7, 12500, Note_on_c, 5, 62, 45
7, 12520, Note_on_c, 5, 62, 0
7, 12520, Note_on_c, 5, 65, 45
7, 12540, Note_on_c, 5, 65, 0
7, 12540, Note_on_c, 5, 67, 45
7, 12560, Note_on_c, 5, 67, 0
7, 12560, Note_on_c, 5, 65, 45
7, 12580, Note_on_c, 5, 65, 0
7, 12580, Note_on_c, 5, 62, 45
7, 12600, Note_on_c, 5, 62, 0
7, 12600, Note_on_c, 5, 58, 45
7, 12620, Note_on_c, 5, 58, 0
7, 12620, Note_on_c, 5, 60, 45
7, 12640, Note_on_c, 5, 60, 0
7, 12640, Note_on_c, 5, 64, 45
7, 12660, Note_on_c, 5, 64, 0
7, 12660, Note_on_c, 5, 67, 45
7, 12680, Note_on_c, 5, 67, 0
7, 12680, Note_on_c, 5, 64, 45
7, 12700, Note_on_c, 5, 64, 0
7, 12700, Note_on_c, 5, 60, 45
7, 12720, Note_on_c, 5, 60, 0
7, 12720, Note_on_c, 5, 57, 45
7, 12740, Note_on_c, 5, 57, 0
7, 12740, Note_on_c, 5, 60, 45
7, 12760, Note_on_c, 5, 60, 0
7, 12760, Note_on_c, 5, 65, 45
7, 12780, Note_on_c, 5, 65, 0
7, 12780, Note_on_c, 5, 69, 45
7, 12800, Note_on_c, 5, 69, 0
7, 12800, Note_on_c, 5, 65, 45
7, 12820, Note_on_c, 5, 65, 0
7, 12820, Note_on_c, 5, 62, 45
7, 12840, Note_on_c, 5, 62, 0
7, 12840, Note_on_c, 5, 59, 45
7, 12860, Note_on_c, 5, 59, 0
7, 12860, Note_on_c, 5, 57, 45
7, 12880, Note_on_c, 5, 57, 0
7, 12880, Note_on_c, 5, 59, 45
7, 12900, Note_on_c, 5, 59, 0
7, 12900, Note_on_c, 5, 60, 45
7, 12920, Note_on_c, 5, 60, 0
7, 12920, Note_on_c, 5, 59, 45
7, 12940, Note_on_c, 5, 59, 0
7, 12940, Note_on_c, 5, 60, 45
7, 12960, Note_on_c, 5, 60, 0
7, 12960, Note_on_c, 5, 65, 45
7, 12980, Note_on_c, 5, 65, 0
7, 12980, Note_on_c, 5, 64, 45
7, 13000, Note_on_c, 5, 64, 0
7, 13000, Note_on_c, 5, 65, 45
7, 13020, Note_on_c, 5, 65, 0
7, 13020, Note_on_c, 5, 66, 46
7, 13040, Note_on_c, 5, 66, 0
7, 13040, Note_on_c, 5, 64, 46
7, 13060, Note_on_c, 5, 64, 0
7, 13060, Note_on_c, 5, 66, 47
7, 13080, Note_on_c, 5, 66, 0
7, 13080, Note_on_c, 5, 68, 47
7, 13100, Note_on_c, 5, 68, 0
7, 13100, Note_on_c, 5, 66, 47
7, 13120, Note_on_c, 5, 66, 0
7, 13120, Note_on_c, 5, 68, 48
7, 13140, Note_on_c, 5, 68, 0
7, 13140, Note_on_c, 5, 69, 48
7, 13160, Note_on_c, 5, 69, 0
7, 13160, Note_on_c, 5, 68, 49
7, 13180, Note_on_c, 5, 68, 0
7, 13180, Note_on_c, 5, 69, 49
7, 13200, Note_on_c, 5, 69, 0
7, 13200, Note_on_c, 5, 61, 50
7, 13220, Note_on_c, 5, 61, 0
7, 13220, Note_on_c, 5, 60, 50
7, 13240, Note_on_c, 5, 60, 0
7, 13240, Note_on_c, 5, 61, 50
7, 13260, Note_on_c, 5, 61, 0
7, 13260, Note_on_c, 5, 62, 51
7, 13280, Note_on_c, 5, 62, 0
7, 13280, Note_on_c, 5, 61, 51
7, 13300, Note_on_c, 5, 61, 0
7, 13300, Note_on_c, 5, 62, 51
7, 13320, Note_on_c, 5, 62, 0
7, 13320, Note_on_c, 5, 64, 60
7, 13340, Note_on_c, 5, 64, 0
7, 13340, Note_on_c, 5, 62, 52
7, 13360, Note_on_c, 5, 62, 0
7, 13360, Note_on_c, 5, 64, 52
7, 13380, Note_on_c, 5, 64, 0
7, 13380, Note_on_c, 5, 65, 52
7, 13400, Note_on_c, 5, 65, 0
7, 13400, Note_on_c, 5, 67, 52
7, 13420, Note_on_c, 5, 67, 0
7, 13420, Note_on_c, 5, 65, 52
7, 13440, Note_on_c, 5, 65, 0
7, 13440, Note_on_c, 5, 64, 52
7, 13460, Note_on_c, 5, 64, 0
7, 13460, Note_on_c, 5, 65, 52
7, 13480, Note_on_c, 5, 65, 0
7, 13480, Note_on_c, 5, 64, 52
7, 13500, Note_on_c, 5, 64, 0
7, 13500, Note_on_c, 5, 62, 52
7, 13520, Note_on_c, 5, 62, 0
7, 13520, Note_on_c, 5, 64, 52
7, 13540, Note_on_c, 5, 64, 0
7, 13540, Note_on_c, 5, 62, 52
7, 13560, Note_on_c, 5, 62, 0
7, 13560, Note_on_c, 5, 60, 52
7, 13580, Note_on_c, 5, 60, 0
7, 13580, Note_on_c, 5, 62, 52
7, 13600, Note_on_c, 5, 62, 0
7, 13600, Note_on_c, 5, 60, 52
7, 13620, Note_on_c, 5, 60, 0
7, 13620, Note_on_c, 5, 59, 52
7, 13640, Note_on_c, 5, 59, 0
7, 13640, Note_on_c, 5, 60, 52
7, 13660, Note_on_c, 5, 60, 0
7, 13660, Note_on_c, 5, 59, 52
7, 13680, Note_on_c, 5, 59, 0
7, 13680, Note_on_c, 5, 60, 52
7, 13740, Note_on_c, 5, 60, 0
7, 13740, Note_on_c, 5, 60, 45
7, 13798, Note_on_c, 5, 62, 45
7, 13800, Note_on_c, 5, 60, 0
7, 13858, Note_on_c, 5, 62, 0
7, 13858, Note_on_c, 5, 64, 45
7, 13918, Note_on_c, 5, 64, 0
7, 13919, Note_on_c, 5, 65, 45
7, 13939, Note_on_c, 5, 65, 0
7, 13941, Note_on_c, 5, 64, 45
7, 13959, Note_on_c, 5, 65, 45
7, 13961, Note_on_c, 5, 64, 0
7, 13979, Note_on_c, 5, 65, 0
7, 13980, Note_on_c, 5, 69, 45
7, 13999, Note_on_c, 5, 67, 45
7, 14000, Note_on_c, 5, 69, 0
7, 14019, Note_on_c, 5, 67, 0
7, 14020, Note_on_c, 5, 65, 45
7, 14040, Note_on_c, 5, 65, 0
7, 14040, Note_on_c, 5, 64, 45
7, 14100, Note_on_c, 5, 64, 0
7, 14460, Note_on_c, 5, 60, 45
7, 14520, Note_on_c, 5, 60, 0
7, 14520, Note_on_c, 5, 62, 45
7, 14580, Note_on_c, 5, 62, 0
7, 14580, Note_on_c, 5, 64, 45
7, 14640, Note_on_c, 5, 64, 0
7, 14640, Note_on_c, 5, 65, 45
7, 14660, Note_on_c, 5, 65, 0
7, 14660, Note_on_c, 5, 64, 45
7, 14680, Note_on_c, 5, 64, 0
7, 14680, Note_on_c, 5, 65, 45
7, 14700, Note_on_c, 5, 65, 0
7, 14700, Note_on_c, 5, 69, 45
7, 14720, Note_on_c, 5, 69, 0
7, 14720, Note_on_c, 5, 67, 45
7, 14740, Note_on_c, 5, 67, 0
7, 14740, Note_on_c, 5, 65, 45
7, 14760, Note_on_c, 5, 65, 0
7, 14760, Note_on_c, 5, 64, 45
7, 14820, Note_on_c, 5, 64, 0
7, 15840, Note_on_c, 5, 55, 45
7, 16020, Note_on_c, 5, 55, 0
7, 16560, Note_on_c, 5, 57, 63
7, 16586, Note_on_c, 5, 57, 0
7, 16590, Note_on_c, 5, 57, 59
7, 16647, Note_on_c, 5, 57, 0
7, 16650, Note_on_c, 5, 57, 53
7, 16707, Note_on_c, 5, 57, 0
7, 16710, Note_on_c, 5, 57, 53
7, 16767, Note_on_c, 5, 57, 0
7, 16770, Note_on_c, 5, 57, 53
7, 16827, Note_on_c, 5, 57, 0
7, 16830, Note_on_c, 5, 57, 53
7, 16887, Note_on_c, 5, 57, 0
7, 16890, Note_on_c, 5, 57, 53
7, 16920, Note_on_c, 5, 57, 0
7, 16920, Note_on_c, 5, 58, 53
7, 16946, Note_on_c, 5, 58, 0
7, 16950, Note_on_c, 5, 58, 53
7, 16980, Note_on_c, 5, 58, 0
7, 17010, Note_on_c, 5, 58, 53
7, 17040, Note_on_c, 5, 58, 0
7, 17070, Note_on_c, 5, 58, 53
7, 17100, Note_on_c, 5, 58, 0
7, 17130, Note_on_c, 5, 58, 53
7, 17160, Note_on_c, 5, 58, 0
7, 17190, Note_on_c, 5, 58, 53
7, 17220, Note_on_c, 5, 58, 0
7, 17250, Note_on_c, 5, 58, 53
7, 17280, Note_on_c, 5, 58, 0
7, 17280, Note_on_c, 5, 55, 63
7, 17306, Note_on_c, 5, 55, 0
7, 17310, Note_on_c, 5, 55, 53
7, 17367, Note_on_c, 5, 55, 0
7, 17370, Note_on_c, 5, 55, 53
7, 17427, Note_on_c, 5, 55, 0
7, 17430, Note_on_c, 5, 55, 53
7, 17487, Note_on_c, 5, 55, 0
7, 17490, Note_on_c, 5, 55, 53
7, 17547, Note_on_c, 5, 55, 0
7, 17550, Note_on_c, 5, 55, 53
7, 17607, Note_on_c, 5, 55, 0
7, 17610, Note_on_c, 5, 55, 53
7, 17640, Note_on_c, 5, 63, 53
7, 17641, Note_on_c, 5, 55, 0
7, 17667, Note_on_c, 5, 63, 0
7, 17670, Note_on_c, 5, 63, 53
7, 17700, Note_on_c, 5, 63, 0
7, 17730, Note_on_c, 5, 63, 53
7, 17760, Note_on_c, 5, 63, 0
7, 17790, Note_on_c, 5, 63, 53
7, 17820, Note_on_c, 5, 63, 0
7, 17850, Note_on_c, 5, 63, 53
7, 17880, Note_on_c, 5, 63, 0
7, 17910, Note_on_c, 5, 63, 53
7, 17940, Note_on_c, 5, 63, 0
7, 17970, Note_on_c, 5, 63, 53
7, 18000, Note_on_c, 5, 63, 0
7, 18000, Note_on_c, 5, 66, 53
7, 18020, Note_on_c, 5, 66, 0
7, 18020, Note_on_c, 5, 66, 53
7, 18040, Note_on_c, 5, 66, 0
7, 18040, Note_on_c, 5, 66, 53
7, 18060, Note_on_c, 5, 66, 0
7, 18060, Note_on_c, 5, 66, 53
7, 18080, Note_on_c, 5, 66, 0
7, 18080, Note_on_c, 5, 66, 53
7, 18100, Note_on_c, 5, 66, 0
7, 18100, Note_on_c, 5, 66, 53
7, 18120, Note_on_c, 5, 66, 0
7, 18120, Note_on_c, 5, 66, 53
7, 18140, Note_on_c, 5, 66, 0
7, 18140, Note_on_c, 5, 66, 53
7, 18160, Note_on_c, 5, 66, 0
7, 18160, Note_on_c, 5, 66, 53
7, 18180, Note_on_c, 5, 66, 0
7, 18180, Note_on_c, 5, 66, 53
7, 18200, Note_on_c, 5, 66, 0
7, 18200, Note_on_c, 5, 66, 53
7, 18220, Note_on_c, 5, 66, 0
7, 18220, Note_on_c, 5, 66, 53
7, 18240, Note_on_c, 5, 66, 0
7, 18240, Note_on_c, 5, 65, 53
7, 18260, Note_on_c, 5, 65, 0
7, 18260, Note_on_c, 5, 65, 53
7, 18280, Note_on_c, 5, 65, 0
7, 18280, Note_on_c, 5, 65, 53
7, 18300, Note_on_c, 5, 65, 0
7, 18300, Note_on_c, 5, 65, 53
7, 18320, Note_on_c, 5, 65, 0
7, 18320, Note_on_c, 5, 65, 53
7, 18340, Note_on_c, 5, 65, 0
7, 18340, Note_on_c, 5, 65, 53
7, 18360, Note_on_c, 5, 65, 0
7, 18360, Note_on_c, 5, 70, 63
7, 18380, Note_on_c, 5, 70, 0
7, 18380, Note_on_c, 5, 70, 53
7, 18400, Note_on_c, 5, 70, 0
7, 18400, Note_on_c, 5, 70, 53
7, 18420, Note_on_c, 5, 70, 0
7, 18420, Note_on_c, 5, 70, 53
7, 18440, Note_on_c, 5, 70, 0
7, 18440, Note_on_c, 5, 70, 53
7, 18460, Note_on_c, 5, 70, 0
7, 18460, Note_on_c, 5, 70, 53
7, 18479, Note_on_c, 5, 70, 53
7, 18480, Note_on_c, 5, 70, 0
7, 18499, Note_on_c, 5, 70, 0
7, 18501, Note_on_c, 5, 70, 53
7, 18519, Note_on_c, 5, 70, 53
7, 18521, Note_on_c, 5, 70, 0
7, 18539, Note_on_c, 5, 70, 0
7, 18540, Note_on_c, 5, 70, 53
7, 18560, Note_on_c, 5, 70, 0
7, 18560, Note_on_c, 5, 70, 53
7, 18580, Note_on_c, 5, 70, 0
7, 18580, Note_on_c, 5, 70, 53
7, 18600, Note_on_c, 5, 70, 0
7, 18600, Note_on_c, 5, 68, 53
7, 18620, Note_on_c, 5, 68, 0
7, 18620, Note_on_c, 5, 68, 53
7, 18640, Note_on_c, 5, 68, 0
7, 18640, Note_on_c, 5, 68, 53
7, 18660, Note_on_c, 5, 68, 0
7, 18660, Note_on_c, 5, 68, 53
7, 18680, Note_on_c, 5, 68, 0
7, 18680, Note_on_c, 5, 68, 53
7, 18700, Note_on_c, 5, 68, 0
7, 18700, Note_on_c, 5, 68, 53
7, 18720, Note_on_c, 5, 68, 0
7, 18720, Note_on_c, 5, 67, 63
7, 18740, Note_on_c, 5, 67, 0
7, 18740, Note_on_c, 5, 67, 53
7, 18760, Note_on_c, 5, 67, 0
7, 18760, Note_on_c, 5, 67, 53
7, 18780, Note_on_c, 5, 67, 0
7, 18780, Note_on_c, 5, 67, 53
7, 18800, Note_on_c, 5, 67, 0
7, 18800, Note_on_c, 5, 67, 53
7, 18820, Note_on_c, 5, 67, 0
7, 18820, Note_on_c, 5, 67, 53
7, 18840, Note_on_c, 5, 67, 0
7, 18840, Note_on_c, 5, 72, 53
7, 18860, Note_on_c, 5, 72, 0
7, 18860, Note_on_c, 5, 72, 53
7, 18880, Note_on_c, 5, 72, 0
7, 18880, Note_on_c, 5, 72, 53
7, 18900, Note_on_c, 5, 72, 0
7, 18900, Note_on_c, 5, 72, 53
7, 18920, Note_on_c, 5, 72, 0
7, 18920, Note_on_c, 5, 72, 53
7, 18940, Note_on_c, 5, 72, 0
7, 18940, Note_on_c, 5, 72, 53
7, 18960, Note_on_c, 5, 72, 0
7, 18960, Note_on_c, 5, 72, 53
7, 18980, Note_on_c, 5, 72, 0
7, 18980, Note_on_c, 5, 72, 53
7, 19000, Note_on_c, 5, 72, 0
7, 19000, Note_on_c, 5, 72, 53
7, 19020, Note_on_c, 5, 72, 0
7, 19020, Note_on_c, 5, 72, 53
7, 19040, Note_on_c, 5, 72, 0
7, 19040, Note_on_c, 5, 72, 53
7, 19060, Note_on_c, 5, 72, 0
7, 19060, Note_on_c, 5, 72, 53
7, 19080, Note_on_c, 5, 72, 0
7, 19080, Note_on_c, 5, 70, 53
7, 19100, Note_on_c, 5, 70, 0
7, 19100, Note_on_c, 5, 70, 53
7, 19120, Note_on_c, 5, 70, 0
7, 19120, Note_on_c, 5, 70, 53
7, 19140, Note_on_c, 5, 70, 0
7, 19140, Note_on_c, 5, 70, 53
7, 19160, Note_on_c, 5, 70, 0
7, 19160, Note_on_c, 5, 70, 53
7, 19180, Note_on_c, 5, 70, 0
7, 19180, Note_on_c, 5, 70, 53
7, 19200, Note_on_c, 5, 70, 0
7, 19200, Note_on_c, 5, 69, 53
7, 19220, Note_on_c, 5, 69, 0
7, 19220, Note_on_c, 5, 69, 53
7, 19240, Note_on_c, 5, 69, 0
7, 19240, Note_on_c, 5, 69, 53
7, 19260, Note_on_c, 5, 69, 0
7, 19260, Note_on_c, 5, 69, 53
7, 19280, Note_on_c, 5, 69, 0
7, 19280, Note_on_c, 5, 69, 53
7, 19300, Note_on_c, 5, 69, 0
7, 19300, Note_on_c, 5, 69, 53
7, 19320, Note_on_c, 5, 69, 0
7, 19320, Note_on_c, 5, 69, 53
7, 19340, Note_on_c, 5, 69, 0
7, 19340, Note_on_c, 5, 69, 53
7, 19360, Note_on_c, 5, 69, 0
7, 19360, Note_on_c, 5, 69, 53
7, 19380, Note_on_c, 5, 69, 0
7, 19380, Note_on_c, 5, 69, 53
7, 19400, Note_on_c, 5, 69, 0
7, 19400, Note_on_c, 5, 69, 53
7, 19420, Note_on_c, 5, 69, 0
7, 19420, Note_on_c, 5, 69, 53
7, 19440, Note_on_c, 5, 69, 0
7, 19440, Note_on_c, 5, 69, 53
7, 19460, Note_on_c, 5, 69, 0
7, 19460, Note_on_c, 5, 69, 53
7, 19480, Note_on_c, 5, 69, 0
7, 19480, Note_on_c, 5, 69, 53
7, 19500, Note_on_c, 5, 69, 0
7, 19500, Note_on_c, 5, 69, 53
7, 19520, Note_on_c, 5, 69, 0
7, 19520, Note_on_c, 5, 69, 53
7, 19540, Note_on_c, 5, 69, 0
7, 19540, Note_on_c, 5, 69, 53
7, 19560, Note_on_c, 5, 69, 0
7, 19560, Note_on_c, 5, 67, 53
7, 19580, Note_on_c, 5, 67, 0
7, 19580, Note_on_c, 5, 67, 53
7, 19600, Note_on_c, 5, 67, 0
7, 19600, Note_on_c, 5, 67, 53
7, 19620, Note_on_c, 5, 67, 0
7, 19620, Note_on_c, 5, 67, 53
7, 19640, Note_on_c, 5, 67, 0
7, 19640, Note_on_c, 5, 67, 53
7, 19660, Note_on_c, 5, 67, 0
7, 19660, Note_on_c, 5, 67, 53
7, 19680, Note_on_c, 5, 67, 0
7, 19680, Note_on_c, 5, 65, 53
7, 19740, Note_on_c, 5, 65, 0
7, 19740, Note_on_c, 5, 62, 53
7, 19760, Note_on_c, 5, 62, 0
7, 19760, Note_on_c, 5, 61, 53
7, 19780, Note_on_c, 5, 61, 0
7, 19780, Note_on_c, 5, 59, 53
7, 19800, Note_on_c, 5, 59, 0
7, 19800, Note_on_c, 5, 57, 54
7, 19860, Note_on_c, 5, 57, 0
7, 19920, Note_on_c, 5, 62, 56
7, 19940, Note_on_c, 5, 62, 0
7, 19940, Note_on_c, 5, 61, 56
7, 19960, Note_on_c, 5, 61, 0
7, 19960, Note_on_c, 5, 62, 55
7, 19980, Note_on_c, 5, 62, 0
7, 19980, Note_on_c, 5, 65, 54
7, 20000, Note_on_c, 5, 65, 0
7, 20000, Note_on_c, 5, 64, 54
7, 20020, Note_on_c, 5, 64, 0
7, 20020, Note_on_c, 5, 62, 54
7, 20040, Note_on_c, 5, 62, 0
7, 20040, Note_on_c, 5, 61, 54
7, 20100, Note_on_c, 5, 61, 0
7, 20160, Note_on_c, 5, 68, 51
7, 20280, Note_on_c, 5, 68, 0
7, 20280, Note_on_c, 5, 69, 51
7, 20340, Note_on_c, 5, 69, 0
7, 20400, Note_on_c, 5, 74, 55
7, 20420, Note_on_c, 5, 74, 0
7, 20420, Note_on_c, 5, 73, 55
7, 20440, Note_on_c, 5, 73, 0
7, 20440, Note_on_c, 5, 74, 54
7, 20460, Note_on_c, 5, 74, 0
7, 20460, Note_on_c, 5, 77, 56
7, 20480, Note_on_c, 5, 77, 0
7, 20480, Note_on_c, 5, 76, 55
7, 20500, Note_on_c, 5, 76, 0
7, 20500, Note_on_c, 5, 74, 53
7, 20520, Note_on_c, 5, 74, 0
7, 20520, Note_on_c, 5, 73, 52
7, 20580, Note_on_c, 5, 73, 0
7, 20700, Note_on_c, 5, 62, 49
7, 20755, Note_on_c, 5, 62, 0
7, 20820, Note_on_c, 5, 61, 49
7, 20875, Note_on_c, 5, 61, 0
7, 20940, Note_on_c, 5, 60, 49
7, 20995, Note_on_c, 5, 60, 0
7, 21060, Note_on_c, 5, 59, 49
7, 21115, Note_on_c, 5, 59, 0
7, 21180, Note_on_c, 5, 58, 49
7, 21235, Note_on_c, 5, 58, 0
7, 21240, Note_on_c, 5, 57, 45
7, 21297, Note_on_c, 5, 57, 0
7, 21300, Note_on_c, 5, 60, 45
7, 21357, Note_on_c, 5, 60, 0
7, 21360, Note_on_c, 5, 60, 45
7, 21417, Note_on_c, 5, 60, 0
7, 21420, Note_on_c, 5, 60, 45
7, 21477, Note_on_c, 5, 60, 0
7, 21480, Note_on_c, 5, 60, 45
7, 21537, Note_on_c, 5, 60, 0
7, 21540, Note_on_c, 5, 60, 45
7, 21597, Note_on_c, 5, 60, 0
7, 21600, Note_on_c, 5, 60, 45
7, 21657, Note_on_c, 5, 60, 0
7, 21660, Note_on_c, 5, 60, 45
7, 21717, Note_on_c, 5, 60, 0
7, 21720, Note_on_c, 5, 60, 45
7, 21777, Note_on_c, 5, 60, 0
7, 21780, Note_on_c, 5, 60, 45
7, 21837, Note_on_c, 5, 60, 0
7, 21840, Note_on_c, 5, 60, 45
7, 21897, Note_on_c, 5, 60, 0
7, 21900, Note_on_c, 5, 60, 45
7, 21957, Note_on_c, 5, 60, 0
7, 21960, Note_on_c, 5, 60, 45
7, 22017, Note_on_c, 5, 60, 0
7, 22020, Note_on_c, 5, 60, 45
7, 22077, Note_on_c, 5, 60, 0
7, 22080, Note_on_c, 5, 60, 45
7, 22137, Note_on_c, 5, 60, 0
7, 22140, Note_on_c, 5, 60, 45
7, 22197, Note_on_c, 5, 60, 0
7, 22200, Note_on_c, 5, 60, 45
7, 22257, Note_on_c, 5, 60, 0
7, 22260, Note_on_c, 5, 60, 45
7, 22317, Note_on_c, 5, 60, 0
7, 22320, Note_on_c, 5, 60, 45
7, 22377, Note_on_c, 5, 60, 0
7, 22380, Note_on_c, 5, 60, 45
7, 22437, Note_on_c, 5, 60, 0
7, 22440, Note_on_c, 5, 63, 45
7, 22497, Note_on_c, 5, 63, 0
7, 22500, Note_on_c, 5, 63, 45
7, 22557, Note_on_c, 5, 63, 0
7, 22560, Note_on_c, 5, 60, 45
7, 22617, Note_on_c, 5, 60, 0
7, 22620, Note_on_c, 5, 60, 45
7, 22677, Note_on_c, 5, 60, 0
7, 22680, Note_on_c, 5, 58, 45
7, 22800, Note_on_c, 5, 58, 0
7, 23175, Note_on_c, 5, 59, 48
7, 23190, Note_on_c, 5, 59, 0
7, 23190, Note_on_c, 5, 60, 48
7, 23205, Note_on_c, 5, 60, 0
7, 23205, Note_on_c, 5, 59, 48
7, 23220, Note_on_c, 5, 59, 0
7, 23220, Note_on_c, 5, 60, 48
7, 23235, Note_on_c, 5, 60, 0
7, 23235, Note_on_c, 5, 62, 48
7, 23250, Note_on_c, 5, 62, 0
7, 23250, Note_on_c, 5, 63, 48
7, 23265, Note_on_c, 5, 63, 0
7, 23265, Note_on_c, 5, 62, 48
7, 23280, Note_on_c, 5, 62, 0
7, 23280, Note_on_c, 5, 63, 48
7, 23295, Note_on_c, 5, 63, 0
7, 23295, Note_on_c, 5, 66, 48
7, 23310, Note_on_c, 5, 66, 0
7, 23310, Note_on_c, 5, 67, 48
7, 23325, Note_on_c, 5, 67, 0
7, 23325, Note_on_c, 5, 62, 48
7, 23340, Note_on_c, 5, 62, 0
7, 23340, Note_on_c, 5, 65, 48
7, 23355, Note_on_c, 5, 65, 0
7, 23355, Note_on_c, 5, 63, 48
7, 23370, Note_on_c, 5, 63, 0
7, 23370, Note_on_c, 5, 62, 48
7, 23385, Note_on_c, 5, 62, 0
7, 23385, Note_on_c, 5, 60, 48
7, 23400, Note_on_c, 5, 60, 0
7, 23400, Note_on_c, 5, 58, 48
7, 23520, Note_on_c, 5, 58, 0
7, 23520, Note_on_c, 5, 57, 48
7, 23580, Note_on_c, 5, 57, 0
7, 24480, Note_on_c, 5, 64, 56
7, 24495, Note_on_c, 5, 64, 0
7, 24495, Note_on_c, 5, 62, 56
7, 24510, Note_on_c, 5, 62, 0
7, 24510, Note_on_c, 5, 60, 56
7, 24525, Note_on_c, 5, 60, 0
7, 24525, Note_on_c, 5, 62, 56
7, 24540, Note_on_c, 5, 62, 0
7, 24540, Note_on_c, 5, 64, 56
7, 24555, Note_on_c, 5, 64, 0
7, 24555, Note_on_c, 5, 65, 56
7, 24570, Note_on_c, 5, 65, 0
7, 24570, Note_on_c, 5, 67, 56
7, 24585, Note_on_c, 5, 67, 0
7, 24585, Note_on_c, 5, 69, 56
7, 24600, Note_on_c, 5, 69, 0
7, 24600, Note_on_c, 5, 70, 56
7, 24615, Note_on_c, 5, 70, 0
7, 24615, Note_on_c, 5, 72, 56
7, 24630, Note_on_c, 5, 72, 0
7, 24630, Note_on_c, 5, 74, 56
7, 24645, Note_on_c, 5, 74, 0
7, 24645, Note_on_c, 5, 70, 56
7, 24660, Note_on_c, 5, 70, 0
7, 24660, Note_on_c, 5, 69, 56
7, 24675, Note_on_c, 5, 69, 0
7, 24675, Note_on_c, 5, 67, 56
7, 24690, Note_on_c, 5, 67, 0
7, 24690, Note_on_c, 5, 65, 56
7, 24705, Note_on_c, 5, 65, 0
7, 24705, Note_on_c, 5, 64, 56
7, 24720, Note_on_c, 5, 64, 0
7, 24720, Note_on_c, 5, 65, 56
7, 24735, Note_on_c, 5, 65, 0
7, 24735, Note_on_c, 5, 60, 56
7, 24750, Note_on_c, 5, 60, 0
7, 24750, Note_on_c, 5, 62, 56
7, 24765, Note_on_c, 5, 62, 0
7, 24765, Note_on_c, 5, 64, 56
7, 24780, Note_on_c, 5, 64, 0
7, 24780, Note_on_c, 5, 65, 56
7, 24795, Note_on_c, 5, 65, 0
7, 24795, Note_on_c, 5, 67, 56
7, 24810, Note_on_c, 5, 67, 0
7, 24810, Note_on_c, 5, 69, 56
7, 24825, Note_on_c, 5, 69, 0
7, 24825, Note_on_c, 5, 70, 56
7, 24840, Note_on_c, 5, 70, 0
7, 24840, Note_on_c, 5, 72, 56
7, 24855, Note_on_c, 5, 72, 0
7, 24855, Note_on_c, 5, 74, 50
7, 24870, Note_on_c, 5, 74, 0
7, 24870, Note_on_c, 5, 72, 50
7, 24885, Note_on_c, 5, 72, 0
7, 24885, Note_on_c, 5, 70, 50
7, 24900, Note_on_c, 5, 70, 0
7, 24900, Note_on_c, 5, 69, 50
7, 24915, Note_on_c, 5, 69, 0
7, 24915, Note_on_c, 5, 67, 50
7, 24930, Note_on_c, 5, 67, 0
7, 24930, Note_on_c, 5, 65, 50
7, 24945, Note_on_c, 5, 65, 0
7, 24945, Note_on_c, 5, 64, 50
7, 24960, Note_on_c, 5, 64, 0
7, 24960, Note_on_c, 5, 65, 50
7, 24975, Note_on_c, 5, 65, 0
7, 24975, Note_on_c, 5, 67, 50
7, 24990, Note_on_c, 5, 67, 0
7, 24990, Note_on_c, 5, 69, 50
7, 25005, Note_on_c, 5, 69, 0
7, 25005, Note_on_c, 5, 67, 50
7, 25020, Note_on_c, 5, 67, 0
7, 25020, Note_on_c, 5, 65, 50
7, 25035, Note_on_c, 5, 65, 0
7, 25035, Note_on_c, 5, 64, 50
7, 25050, Note_on_c, 5, 64, 0
7, 25050, Note_on_c, 5, 62, 50
7, 25065, Note_on_c, 5, 62, 0
7, 25065, Note_on_c, 5, 60, 50
7, 25080, Note_on_c, 5, 60, 0
7, 25080, Note_on_c, 5, 59, 50
7, 25095, Note_on_c, 5, 59, 0
7, 25095, Note_on_c, 5, 69, 50
7, 25110, Note_on_c, 5, 69, 0
7, 25110, Note_on_c, 5, 67, 50
7, 25125, Note_on_c, 5, 67, 0
7, 25125, Note_on_c, 5, 65, 50
7, 25140, Note_on_c, 5, 65, 0
7, 25140, Note_on_c, 5, 64, 50
7, 25155, Note_on_c, 5, 64, 0
7, 25155, Note_on_c, 5, 62, 50
7, 25170, Note_on_c, 5, 62, 0
7, 25170, Note_on_c, 5, 60, 50
7, 25185, Note_on_c, 5, 60, 0
7, 25185, Note_on_c, 5, 59, 50
7, 25200, Note_on_c, 5, 59, 0
7, 25200, Note_on_c, 5, 60, 64
7, 25320, Note_on_c, 5, 60, 0
7, 25380, Note_on_c, 5, 72, 61
7, 25380, Note_on_c, 5, 64, 61
7, 25380, Note_on_c, 5, 55, 61
7, 25440, Note_on_c, 5, 55, 0
7, 25440, Note_on_c, 5, 64, 0
7, 25440, Note_on_c, 5, 72, 0
7, 25440, Note_on_c, 5, 76, 61
7, 25440, Note_on_c, 5, 67, 61
7, 25440, Note_on_c, 5, 60, 61
7, 25500, Note_on_c, 5, 60, 0
7, 25500, Note_on_c, 5, 67, 0
7, 25500, Note_on_c, 5, 76, 0
7, 25500, Note_on_c, 5, 64, 61
7, 25500, Note_on_c, 5, 72, 61
7, 25500, Note_on_c, 5, 79, 61
7, 25560, Note_on_c, 5, 79, 0
7, 25560, Note_on_c, 5, 72, 0
7, 25560, Note_on_c, 5, 64, 0
7, 25560, Note_on_c, 5, 67, 61
7, 25560, Note_on_c, 5, 76, 61
7, 25560, Note_on_c, 5, 84, 61
7, 25680, Note_on_c, 5, 84, 0
7, 25680, Note_on_c, 5, 76, 0
7, 25680, Note_on_c, 5, 67, 0
7, 25740, Note_on_c, 5, 72, 61
7, 25740, Note_on_c, 5, 64, 61
7, 25740, Note_on_c, 5, 55, 61
7, 25800, Note_on_c, 5, 55, 0
7, 25800, Note_on_c, 5, 64, 0
7, 25800, Note_on_c, 5, 72, 0
7, 25800, Note_on_c, 5, 76, 61
7, 25800, Note_on_c, 5, 67, 61
7, 25800, Note_on_c, 5, 60, 61
7, 25860, Note_on_c, 5, 60, 0
7, 25860, Note_on_c, 5, 67, 0
7, 25860, Note_on_c, 5, 76, 0
7, 25860, Note_on_c, 5, 79, 61
7, 25860, Note_on_c, 5, 72, 61
7, 25860, Note_on_c, 5, 64, 61
7, 25920, Note_on_c, 5, 64, 0
7, 25920, Note_on_c, 5, 72, 0
7, 25920, Note_on_c, 5, 79, 0
7, 25920, Note_on_c, 5, 67, 62
7, 25940, Note_on_c, 5, 67, 0
7, 25940, Note_on_c, 5, 67, 62
7, 25960, Note_on_c, 5, 67, 0
7, 25960, Note_on_c, 5, 67, 62
7, 25980, Note_on_c, 5, 67, 0
7, 25980, Note_on_c, 5, 67, 51
7, 26000, Note_on_c, 5, 67, 0
7, 26000, Note_on_c, 5, 67, 51
7, 26020, Note_on_c, 5, 67, 0
7, 26020, Note_on_c, 5, 67, 51
7, 26040, Note_on_c, 5, 67, 0
7, 26040, Note_on_c, 5, 67, 51
7, 26060, Note_on_c, 5, 67, 0
7, 26060, Note_on_c, 5, 67, 51
7, 26080, Note_on_c, 5, 67, 0
7, 26080, Note_on_c, 5, 67, 51
7, 26100, Note_on_c, 5, 67, 0
7, 26100, Note_on_c, 5, 67, 51
7, 26120, Note_on_c, 5, 67, 0
7, 26120, Note_on_c, 5, 67, 51
7, 26140, Note_on_c, 5, 67, 0
7, 26140, Note_on_c, 5, 67, 51
7, 26160, Note_on_c, 5, 67, 0
7, 26160, Note_on_c, 5, 68, 51
7, 26180, Note_on_c, 5, 68, 0
7, 26180, Note_on_c, 5, 68, 51
7, 26200, Note_on_c, 5, 68, 0
7, 26200, Note_on_c, 5, 68, 51
7, 26220, Note_on_c, 5, 68, 0
7, 26220, Note_on_c, 5, 68, 51
7, 26240, Note_on_c, 5, 68, 0
7, 26240, Note_on_c, 5, 68, 51
7, 26260, Note_on_c, 5, 68, 0
7, 26260, Note_on_c, 5, 68, 51
7, 26280, Note_on_c, 5, 68, 0
7, 26280, Note_on_c, 5, 67, 62
7, 26300, Note_on_c, 5, 67, 0
7, 26300, Note_on_c, 5, 67, 62
7, 26320, Note_on_c, 5, 67, 0
7, 26320, Note_on_c, 5, 67, 62
7, 26340, Note_on_c, 5, 67, 0
7, 26340, Note_on_c, 5, 67, 51
7, 26360, Note_on_c, 5, 67, 0
7, 26360, Note_on_c, 5, 67, 51
7, 26380, Note_on_c, 5, 67, 0
7, 26380, Note_on_c, 5, 67, 51
7, 26400, Note_on_c, 5, 67, 0
7, 26400, Note_on_c, 5, 67, 51
7, 26420, Note_on_c, 5, 67, 0
7, 26420, Note_on_c, 5, 67, 51
7, 26440, Note_on_c, 5, 67, 0
7, 26440, Note_on_c, 5, 67, 51
7, 26460, Note_on_c, 5, 67, 0
7, 26460, Note_on_c, 5, 67, 51
7, 26480, Note_on_c, 5, 67, 0
7, 26480, Note_on_c, 5, 67, 51
7, 26500, Note_on_c, 5, 67, 0
7, 26500, Note_on_c, 5, 67, 51
7, 26520, Note_on_c, 5, 67, 0
7, 26520, Note_on_c, 5, 68, 51
7, 26540, Note_on_c, 5, 68, 0
7, 26540, Note_on_c, 5, 68, 51
7, 26560, Note_on_c, 5, 68, 0
7, 26560, Note_on_c, 5, 68, 51
7, 26580, Note_on_c, 5, 68, 0
7, 26580, Note_on_c, 5, 68, 51
7, 26600, Note_on_c, 5, 68, 0
7, 26600, Note_on_c, 5, 68, 51
7, 26620, Note_on_c, 5, 68, 0
7, 26620, Note_on_c, 5, 68, 51
7, 26640, Note_on_c, 5, 68, 0
7, 26640, Note_on_c, 5, 67, 51
7, 26730, Note_on_c, 5, 67, 0
7, 26730, Note_on_c, 5, 64, 51
7, 26760, Note_on_c, 5, 64, 0
7, 26760, Note_on_c, 5, 67, 51
7, 26812, Note_on_c, 5, 67, 0
7, 27000, Note_on_c, 5, 57, 51
7, 27020, Note_on_c, 5, 57, 0
7, 27020, Note_on_c, 5, 60, 51
7, 27040, Note_on_c, 5, 60, 0
7, 27040, Note_on_c, 5, 65, 51
7, 27060, Note_on_c, 5, 65, 0
7, 27060, Note_on_c, 5, 69, 51
7, 27080, Note_on_c, 5, 69, 0
7, 27080, Note_on_c, 5, 65, 51
7, 27100, Note_on_c, 5, 65, 0
7, 27100, Note_on_c, 5, 60, 51
7, 27120, Note_on_c, 5, 60, 0
7, 27120, Note_on_c, 5, 58, 51
7, 27140, Note_on_c, 5, 58, 0
7, 27140, Note_on_c, 5, 60, 51
7, 27160, Note_on_c, 5, 60, 0
7, 27160, Note_on_c, 5, 64, 51
7, 27180, Note_on_c, 5, 64, 0
7, 27180, Note_on_c, 5, 67, 51
7, 27200, Note_on_c, 5, 67, 0
7, 27200, Note_on_c, 5, 64, 51
7, 27220, Note_on_c, 5, 64, 0
7, 27220, Note_on_c, 5, 60, 51
7, 27240, Note_on_c, 5, 60, 0
7, 27240, Note_on_c, 5, 57, 51
7, 27260, Note_on_c, 5, 57, 0
7, 27260, Note_on_c, 5, 60, 51
7, 27280, Note_on_c, 5, 60, 0
7, 27280, Note_on_c, 5, 65, 51
7, 27300, Note_on_c, 5, 65, 0
7, 27300, Note_on_c, 5, 69, 51
7, 27320, Note_on_c, 5, 69, 0
7, 27320, Note_on_c, 5, 65, 51
7, 27340, Note_on_c, 5, 65, 0
7, 27340, Note_on_c, 5, 60, 51
7, 27360, Note_on_c, 5, 60, 0
7, 27360, Note_on_c, 5, 55, 51
7, 27380, Note_on_c, 5, 55, 0
7, 27380, Note_on_c, 5, 60, 51
7, 27400, Note_on_c, 5, 60, 0
7, 27400, Note_on_c, 5, 64, 51
7, 27420, Note_on_c, 5, 64, 0
7, 27420, Note_on_c, 5, 67, 51
7, 27440, Note_on_c, 5, 67, 0
7, 27440, Note_on_c, 5, 64, 51
7, 27460, Note_on_c, 5, 64, 0
7, 27460, Note_on_c, 5, 60, 51
7, 27480, Note_on_c, 5, 60, 0
7, 27480, Note_on_c, 5, 55, 51
7, 27500, Note_on_c, 5, 55, 0
7, 27500, Note_on_c, 5, 60, 51
7, 27520, Note_on_c, 5, 60, 0
7, 27520, Note_on_c, 5, 64, 51
7, 27540, Note_on_c, 5, 64, 0
7, 27540, Note_on_c, 5, 67, 51
7, 27560, Note_on_c, 5, 67, 0
7, 27560, Note_on_c, 5, 64, 51
7, 27580, Note_on_c, 5, 64, 0
7, 27580, Note_on_c, 5, 60, 51
7, 27600, Note_on_c, 5, 60, 0
7, 27600, Note_on_c, 5, 55, 51
7, 27620, Note_on_c, 5, 55, 0
7, 27620, Note_on_c, 5, 60, 51
7, 27640, Note_on_c, 5, 60, 0
7, 27640, Note_on_c, 5, 64, 51
7, 27660, Note_on_c, 5, 64, 0
7, 27660, Note_on_c, 5, 67, 51
7, 27680, Note_on_c, 5, 67, 0
7, 27680, Note_on_c, 5, 64, 51
7, 27700, Note_on_c, 5, 64, 0
7, 27700, Note_on_c, 5, 60, 51
7, 27720, Note_on_c, 5, 60, 0
7, 27720, Note_on_c, 5, 55, 51
7, 27740, Note_on_c, 5, 55, 0
7, 27740, Note_on_c, 5, 58, 51
7, 27760, Note_on_c, 5, 58, 0
7, 27760, Note_on_c, 5, 60, 51
7, 27780, Note_on_c, 5, 60, 0
7, 27780, Note_on_c, 5, 64, 51
7, 27798, Note_on_c, 5, 60, 51
7, 27800, Note_on_c, 5, 64, 0
7, 27818, Note_on_c, 5, 60, 0
7, 27820, Note_on_c, 5, 55, 51
7, 27840, Note_on_c, 5, 55, 0
7, 27840, Note_on_c, 5, 57, 51
7, 27858, Note_on_c, 5, 60, 51
7, 27860, Note_on_c, 5, 57, 0
7, 27878, Note_on_c, 5, 60, 0
7, 27880, Note_on_c, 5, 64, 51
7, 27900, Note_on_c, 5, 64, 0
7, 27900, Note_on_c, 5, 65, 51
7, 27920, Note_on_c, 5, 65, 0
7, 27920, Note_on_c, 5, 60, 51
7, 27940, Note_on_c, 5, 60, 0
7, 27940, Note_on_c, 5, 57, 51
7, 27960, Note_on_c, 5, 57, 0
7, 27960, Note_on_c, 5, 58, 51
7, 27980, Note_on_c, 5, 58, 0
7, 27980, Note_on_c, 5, 60, 51
7, 28000, Note_on_c, 5, 60, 0
7, 28000, Note_on_c, 5, 64, 51
7, 28020, Note_on_c, 5, 64, 0
7, 28020, Note_on_c, 5, 67, 51
7, 28040, Note_on_c, 5, 67, 0
7, 28040, Note_on_c, 5, 64, 51
7, 28060, Note_on_c, 5, 64, 0
7, 28060, Note_on_c, 5, 58, 51
7, 28080, Note_on_c, 5, 58, 0
7, 28080, Note_on_c, 5, 57, 51
7, 28100, Note_on_c, 5, 57, 0
7, 28100, Note_on_c, 5, 60, 51
7, 28120, Note_on_c, 5, 60, 0
7, 28120, Note_on_c, 5, 65, 51
7, 28140, Note_on_c, 5, 65, 0
7, 28140, Note_on_c, 5, 69, 51
7, 28160, Note_on_c, 5, 69, 0
7, 28160, Note_on_c, 5, 65, 51
7, 28180, Note_on_c, 5, 65, 0
7, 28180, Note_on_c, 5, 60, 51
7, 28200, Note_on_c, 5, 60, 0
7, 28200, Note_on_c, 5, 57, 51
7, 28220, Note_on_c, 5, 57, 0
7, 28220, Note_on_c, 5, 60, 51
7, 28240, Note_on_c, 5, 60, 0
7, 28240, Note_on_c, 5, 65, 51
7, 28260, Note_on_c, 5, 65, 0
7, 28260, Note_on_c, 5, 69, 51
7, 28280, Note_on_c, 5, 69, 0
7, 28280, Note_on_c, 5, 65, 51
7, 28300, Note_on_c, 5, 65, 0
7, 28300, Note_on_c, 5, 60, 51
7, 28320, Note_on_c, 5, 60, 0
7, 28320, Note_on_c, 5, 57, 51
7, 28340, Note_on_c, 5, 57, 0
7, 28340, Note_on_c, 5, 60, 51
7, 28360, Note_on_c, 5, 60, 0
7, 28360, Note_on_c, 5, 65, 51
7, 28380, Note_on_c, 5, 65, 0
7, 28380, Note_on_c, 5, 69, 51
7, 28400, Note_on_c, 5, 69, 0
7, 28400, Note_on_c, 5, 65, 51
7, 28420, Note_on_c, 5, 65, 0
7, 28420, Note_on_c, 5, 60, 51
7, 28440, Note_on_c, 5, 60, 0
7, 28440, Note_on_c, 5, 57, 51
7, 28460, Note_on_c, 5, 57, 0
7, 28460, Note_on_c, 5, 60, 51
7, 28480, Note_on_c, 5, 60, 0
7, 28480, Note_on_c, 5, 62, 51
7, 28500, Note_on_c, 5, 62, 0
7, 28500, Note_on_c, 5, 66, 51
7, 28520, Note_on_c, 5, 66, 0
7, 28520, Note_on_c, 5, 62, 51
7, 28540, Note_on_c, 5, 62, 0
7, 28540, Note_on_c, 5, 60, 51
7, 28560, Note_on_c, 5, 60, 0
7, 28560, Note_on_c, 5, 59, 51
7, 28580, Note_on_c, 5, 59, 0
7, 28580, Note_on_c, 5, 62, 51
7, 28600, Note_on_c, 5, 62, 0
7, 28600, Note_on_c, 5, 65, 51
7, 28620, Note_on_c, 5, 65, 0
7, 28620, Note_on_c, 5, 67, 51
7, 28640, Note_on_c, 5, 67, 0
7, 28640, Note_on_c, 5, 65, 51
7, 28660, Note_on_c, 5, 65, 0
7, 28660, Note_on_c, 5, 62, 51
7, 28680, Note_on_c, 5, 62, 0
7, 28680, Note_on_c, 5, 58, 51
7, 28700, Note_on_c, 5, 58, 0
7, 28700, Note_on_c, 5, 60, 51
7, 28720, Note_on_c, 5, 60, 0
7, 28720, Note_on_c, 5, 64, 51
7, 28740, Note_on_c, 5, 64, 0
7, 28740, Note_on_c, 5, 67, 51
7, 28760, Note_on_c, 5, 67, 0
7, 28760, Note_on_c, 5, 64, 51
7, 28780, Note_on_c, 5, 64, 0
7, 28780, Note_on_c, 5, 60, 51
7, 28800, Note_on_c, 5, 60, 0
7, 28800, Note_on_c, 5, 57, 51
7, 28820, Note_on_c, 5, 57, 0
7, 28820, Note_on_c, 5, 60, 51
7, 28840, Note_on_c, 5, 60, 0
7, 28840, Note_on_c, 5, 63, 51
7, 28860, Note_on_c, 5, 63, 0
7, 28860, Note_on_c, 5, 65, 51
7, 28880, Note_on_c, 5, 65, 0
7, 28880, Note_on_c, 5, 63, 51
7, 28900, Note_on_c, 5, 63, 0
7, 28900, Note_on_c, 5, 60, 51
7, 28920, Note_on_c, 5, 60, 0
7, 28920, Note_on_c, 5, 58, 51
7, 28940, Note_on_c, 5, 58, 0
7, 28940, Note_on_c, 5, 62, 51
7, 28960, Note_on_c, 5, 62, 0
7, 28960, Note_on_c, 5, 65, 51
7, 28980, Note_on_c, 5, 65, 0
7, 28980, Note_on_c, 5, 67, 51
7, 29000, Note_on_c, 5, 67, 0
7, 29000, Note_on_c, 5, 62, 51
7, 29020, Note_on_c, 5, 62, 0
7, 29020, Note_on_c, 5, 67, 51
7, 29040, Note_on_c, 5, 67, 0
7, 29040, Note_on_c, 5, 64, 51
7, 29060, Note_on_c, 5, 64, 0
7, 29060, Note_on_c, 5, 62, 51
7, 29080, Note_on_c, 5, 62, 0
7, 29080, Note_on_c, 5, 64, 51
7, 29100, Note_on_c, 5, 64, 0
7, 29100, Note_on_c, 5, 65, 51
7, 29120, Note_on_c, 5, 65, 0
7, 29120, Note_on_c, 5, 64, 51
7, 29140, Note_on_c, 5, 64, 0
7, 29140, Note_on_c, 5, 65, 51
7, 29160, Note_on_c, 5, 65, 0
7, 29160, Note_on_c, 5, 62, 51
7, 29180, Note_on_c, 5, 62, 0
7, 29180, Note_on_c, 5, 58, 51
7, 29200, Note_on_c, 5, 58, 0
7, 29200, Note_on_c, 5, 55, 51
7, 29220, Note_on_c, 5, 55, 0
7, 29220, Note_on_c, 5, 58, 51
7, 29240, Note_on_c, 5, 58, 0
7, 29240, Note_on_c, 5, 62, 51
7, 29260, Note_on_c, 5, 62, 0
7, 29260, Note_on_c, 5, 58, 51
7, 29280, Note_on_c, 5, 58, 0
7, 29280, Note_on_c, 5, 57, 51
7, 29300, Note_on_c, 5, 57, 0
7, 29300, Note_on_c, 5, 60, 51
7, 29320, Note_on_c, 5, 60, 0
7, 29320, Note_on_c, 5, 65, 51
7, 29340, Note_on_c, 5, 65, 0
7, 29340, Note_on_c, 5, 69, 51
7, 29360, Note_on_c, 5, 69, 0
7, 29360, Note_on_c, 5, 65, 51
7, 29380, Note_on_c, 5, 65, 0
7, 29380, Note_on_c, 5, 60, 51
7, 29400, Note_on_c, 5, 60, 0
7, 29400, Note_on_c, 5, 58, 51
7, 29420, Note_on_c, 5, 58, 0
7, 29420, Note_on_c, 5, 60, 51
7, 29440, Note_on_c, 5, 60, 0
7, 29440, Note_on_c, 5, 64, 51
7, 29460, Note_on_c, 5, 64, 0
7, 29460, Note_on_c, 5, 67, 51
7, 29480, Note_on_c, 5, 67, 0
7, 29480, Note_on_c, 5, 64, 51
7, 29500, Note_on_c, 5, 64, 0
7, 29500, Note_on_c, 5, 60, 51
7, 29520, Note_on_c, 5, 60, 0
7, 29520, Note_on_c, 5, 57, 51
7, 29540, Note_on_c, 5, 57, 0
7, 29540, Note_on_c, 5, 60, 51
7, 29560, Note_on_c, 5, 60, 0
7, 29560, Note_on_c, 5, 62, 51
7, 29580, Note_on_c, 5, 62, 0
7, 29580, Note_on_c, 5, 66, 51
7, 29600, Note_on_c, 5, 66, 0
7, 29600, Note_on_c, 5, 62, 51
7, 29620, Note_on_c, 5, 62, 0
7, 29620, Note_on_c, 5, 60, 51
7, 29640, Note_on_c, 5, 60, 0
7, 29640, Note_on_c, 5, 59, 51
7, 29660, Note_on_c, 5, 59, 0
7, 29660, Note_on_c, 5, 62, 51
7, 29680, Note_on_c, 5, 62, 0
7, 29680, Note_on_c, 5, 65, 51
7, 29700, Note_on_c, 5, 65, 0
7, 29700, Note_on_c, 5, 67, 51
7, 29720, Note_on_c, 5, 67, 0
7, 29720, Note_on_c, 5, 65, 51
7, 29740, Note_on_c, 5, 65, 0
7, 29740, Note_on_c, 5, 62, 51
7, 29760, Note_on_c, 5, 62, 0
7, 29760, Note_on_c, 5, 58, 51
7, 29780, Note_on_c, 5, 58, 0
7, 29780, Note_on_c, 5, 60, 51
7, 29800, Note_on_c, 5, 60, 0
7, 29800, Note_on_c, 5, 64, 51
7, 29820, Note_on_c, 5, 64, 0
7, 29820, Note_on_c, 5, 67, 51
7, 29840, Note_on_c, 5, 67, 0
7, 29840, Note_on_c, 5, 64, 51
7, 29860, Note_on_c, 5, 64, 0
7, 29860, Note_on_c, 5, 60, 51
7, 29880, Note_on_c, 5, 60, 0
7, 29880, Note_on_c, 5, 57, 51
7, 29900, Note_on_c, 5, 57, 0
7, 29900, Note_on_c, 5, 60, 51
7, 29920, Note_on_c, 5, 60, 0
7, 29920, Note_on_c, 5, 63, 51
7, 29940, Note_on_c, 5, 63, 0
7, 29940, Note_on_c, 5, 65, 51
7, 29960, Note_on_c, 5, 65, 0
7, 29960, Note_on_c, 5, 63, 51
7, 29980, Note_on_c, 5, 63, 0
7, 29980, Note_on_c, 5, 60, 51
7, 30000, Note_on_c, 5, 60, 0
7, 30000, Note_on_c, 5, 62, 51
7, 30020, Note_on_c, 5, 62, 0
7, 30020, Note_on_c, 5, 65, 51
7, 30040, Note_on_c, 5, 65, 0
7, 30040, Note_on_c, 5, 70, 51
7, 30060, Note_on_c, 5, 70, 0
7, 30060, Note_on_c, 5, 74, 51
7, 30080, Note_on_c, 5, 74, 0
7, 30080, Note_on_c, 5, 70, 51
7, 30100, Note_on_c, 5, 70, 0
7, 30100, Note_on_c, 5, 67, 51
7, 30120, Note_on_c, 5, 67, 0
7, 30120, Note_on_c, 5, 64, 51
7, 30140, Note_on_c, 5, 64, 0
7, 30140, Note_on_c, 5, 62, 51
7, 30160, Note_on_c, 5, 62, 0
7, 30160, Note_on_c, 5, 64, 51
7, 30180, Note_on_c, 5, 64, 0
7, 30180, Note_on_c, 5, 65, 51
7, 30200, Note_on_c, 5, 65, 0
7, 30200, Note_on_c, 5, 64, 51
7, 30220, Note_on_c, 5, 64, 0
7, 30220, Note_on_c, 5, 65, 51
7, 30240, Note_on_c, 5, 65, 0
7, 30240, Note_on_c, 5, 58, 51
7, 30260, Note_on_c, 5, 58, 0
7, 30260, Note_on_c, 5, 57, 51
7, 30280, Note_on_c, 5, 57, 0
7, 30280, Note_on_c, 5, 58, 51
7, 30300, Note_on_c, 5, 58, 0
7, 30300, Note_on_c, 5, 59, 51
7, 30320, Note_on_c, 5, 59, 0
7, 30320, Note_on_c, 5, 57, 51
7, 30340, Note_on_c, 5, 57, 0
7, 30340, Note_on_c, 5, 59, 52
7, 30360, Note_on_c, 5, 59, 0
7, 30360, Note_on_c, 5, 61, 53
7, 30380, Note_on_c, 5, 61, 0
7, 30380, Note_on_c, 5, 59, 53
7, 30400, Note_on_c, 5, 59, 0
7, 30400, Note_on_c, 5, 61, 53
7, 30420, Note_on_c, 5, 61, 0
7, 30420, Note_on_c, 5, 62, 54
7, 30440, Note_on_c, 5, 62, 0
7, 30440, Note_on_c, 5, 61, 54
7, 30460, Note_on_c, 5, 61, 0
7, 30460, Note_on_c, 5, 62, 55
7, 30480, Note_on_c, 5, 62, 0
7, 30480, Note_on_c, 5, 66, 56
7, 30500, Note_on_c, 5, 66, 0
7, 30500, Note_on_c, 5, 65, 56
7, 30520, Note_on_c, 5, 65, 0
7, 30520, Note_on_c, 5, 66, 56
7, 30540, Note_on_c, 5, 66, 0
7, 30540, Note_on_c, 5, 67, 56
7, 30560, Note_on_c, 5, 67, 0
7, 30560, Note_on_c, 5, 66, 56
7, 30580, Note_on_c, 5, 66, 0
7, 30580, Note_on_c, 5, 67, 57
7, 30600, Note_on_c, 5, 67, 0
7, 30600, Note_on_c, 5, 69, 58
7, 30620, Note_on_c, 5, 69, 0
7, 30620, Note_on_c, 5, 67, 58
7, 30640, Note_on_c, 5, 67, 0
7, 30640, Note_on_c, 5, 69, 59
7, 30660, Note_on_c, 5, 69, 0
7, 30660, Note_on_c, 5, 70, 59
7, 30680, Note_on_c, 5, 70, 0
7, 30680, Note_on_c, 5, 72, 59
7, 30700, Note_on_c, 5, 72, 0
7, 30700, Note_on_c, 5, 70, 60
7, 30720, Note_on_c, 5, 70, 0
7, 30720, Note_on_c, 5, 69, 61
7, 30740, Note_on_c, 5, 69, 0
7, 30740, Note_on_c, 5, 70, 61
7, 30760, Note_on_c, 5, 70, 0
7, 30760, Note_on_c, 5, 69, 62
7, 30780, Note_on_c, 5, 69, 0
7, 30780, Note_on_c, 5, 67, 62
7, 30800, Note_on_c, 5, 67, 0
7, 30800, Note_on_c, 5, 69, 62
7, 30820, Note_on_c, 5, 69, 0
7, 30820, Note_on_c, 5, 67, 62
7, 30840, Note_on_c, 5, 67, 0
7, 30840, Note_on_c, 5, 65, 63
7, 30860, Note_on_c, 5, 65, 0
7, 30860, Note_on_c, 5, 67, 63
7, 30880, Note_on_c, 5, 67, 0
7, 30880, Note_on_c, 5, 65, 64
7, 30900, Note_on_c, 5, 65, 0
7, 30900, Note_on_c, 5, 64, 64
7, 30920, Note_on_c, 5, 64, 0
7, 30920, Note_on_c, 5, 65, 65
7, 30940, Note_on_c, 5, 65, 0
7, 30940, Note_on_c, 5, 64, 66
7, 30960, Note_on_c, 5, 64, 0
7, 30960, Note_on_c, 5, 65, 49
7, 30980, Note_on_c, 5, 65, 0
7, 30980, Note_on_c, 5, 65, 49
7, 31000, Note_on_c, 5, 65, 0
7, 31000, Note_on_c, 5, 65, 49
7, 31020, Note_on_c, 5, 65, 0
7, 31020, Note_on_c, 5, 65, 49
7, 31040, Note_on_c, 5, 65, 0
7, 31040, Note_on_c, 5, 65, 49
7, 31060, Note_on_c, 5, 65, 0
7, 31060, Note_on_c, 5, 65, 49
7, 31080, Note_on_c, 5, 65, 0
7, 31080, Note_on_c, 5, 65, 49
7, 31100, Note_on_c, 5, 65, 0
7, 31100, Note_on_c, 5, 65, 49
7, 31120, Note_on_c, 5, 65, 0
7, 31120, Note_on_c, 5, 65, 49
7, 31140, Note_on_c, 5, 65, 0
7, 31140, Note_on_c, 5, 65, 49
7, 31160, Note_on_c, 5, 65, 0
7, 31160, Note_on_c, 5, 65, 49
7, 31180, Note_on_c, 5, 65, 0
7, 31180, Note_on_c, 5, 65, 49
7, 31200, Note_on_c, 5, 65, 0
7, 31200, Note_on_c, 5, 65, 49
7, 31220, Note_on_c, 5, 65, 0
7, 31220, Note_on_c, 5, 65, 49
7, 31240, Note_on_c, 5, 65, 0
7, 31240, Note_on_c, 5, 65, 49
7, 31260, Note_on_c, 5, 65, 0
7, 31260, Note_on_c, 5, 65, 49
7, 31280, Note_on_c, 5, 65, 0
7, 31280, Note_on_c, 5, 65, 49
7, 31300, Note_on_c, 5, 65, 0
7, 31300, Note_on_c, 5, 65, 49
7, 31320, Note_on_c, 5, 65, 0
7, 31320, Note_on_c, 5, 65, 49
7, 31380, Note_on_c, 5, 65, 0
7, 31680, Note_on_c, 5, 65, 45
7, 31695, Note_on_c, 5, 65, 0
7, 31700, Note_on_c, 5, 65, 45
7, 31715, Note_on_c, 5, 65, 0
7, 31720, Note_on_c, 5, 65, 45
7, 31735, Note_on_c, 5, 65, 0
7, 31740, Note_on_c, 5, 65, 45
7, 31755, Note_on_c, 5, 65, 0
7, 31760, Note_on_c, 5, 65, 45
7, 31775, Note_on_c, 5, 65, 0
7, 31780, Note_on_c, 5, 65, 45
7, 31795, Note_on_c, 5, 65, 0
7, 31800, Note_on_c, 5, 65, 45
7, 31815, Note_on_c, 5, 65, 0
7, 31820, Note_on_c, 5, 65, 45
7, 31835, Note_on_c, 5, 65, 0
7, 31840, Note_on_c, 5, 65, 45
7, 31855, Note_on_c, 5, 65, 0
7, 31860, Note_on_c, 5, 65, 45
7, 31875, Note_on_c, 5, 65, 0
7, 31880, Note_on_c, 5, 65, 45
7, 31895, Note_on_c, 5, 65, 0
7, 31900, Note_on_c, 5, 65, 45
7, 31915, Note_on_c, 5, 65, 0
7, 31920, Note_on_c, 5, 65, 45
7, 31935, Note_on_c, 5, 65, 0
7, 31940, Note_on_c, 5, 65, 45
7, 31955, Note_on_c, 5, 65, 0
7, 31960, Note_on_c, 5, 65, 45
7, 31975, Note_on_c, 5, 65, 0
7, 31980, Note_on_c, 5, 65, 45
7, 31995, Note_on_c, 5, 65, 0
7, 32000, Note_on_c, 5, 65, 45
7, 32015, Note_on_c, 5, 65, 0
7, 32020, Note_on_c, 5, 65, 45
7, 32035, Note_on_c, 5, 65, 0
7, 32040, Note_on_c, 5, 65, 45
7, 32100, Note_on_c, 5, 65, 0
7, 33000, Note_on_c, 5, 57, 48
7, 33120, Note_on_c, 5, 57, 0
7, 33120, Note_on_c, 5, 58, 48
7, 33180, Note_on_c, 5, 58, 0
7, 33240, Note_on_c, 5, 55, 56
7, 33240, Note_on_c, 5, 64, 56
7, 33280, Note_on_c, 5, 64, 0
7, 33280, Note_on_c, 5, 55, 0
7, 33465, Note_on_c, 5, 58, 55
7, 33480, Note_on_c, 5, 58, 0
7, 33480, Note_on_c, 5, 57, 55
7, 33540, Note_on_c, 5, 57, 0
7, 33600, Note_on_c, 5, 57, 53
7, 33600, Note_on_c, 5, 65, 53
7, 33640, Note_on_c, 5, 65, 0
7, 33640, Note_on_c, 5, 57, 0
7, 33840, Note_on_c, 5, 62, 51
7, 33870, Note_on_c, 5, 62, 0
7, 33870, Note_on_c, 5, 65, 51
7, 33900, Note_on_c, 5, 65, 0
7, 33900, Note_on_c, 5, 65, 51
7, 33925, Note_on_c, 5, 65, 0
7, 33930, Note_on_c, 5, 65, 51
7, 33955, Note_on_c, 5, 65, 0
7, 33960, Note_on_c, 5, 62, 51
7, 33990, Note_on_c, 5, 62, 0
7, 33990, Note_on_c, 5, 65, 51
7, 34020, Note_on_c, 5, 65, 0
7, 34020, Note_on_c, 5, 65, 51
7, 34045, Note_on_c, 5, 65, 0
7, 34050, Note_on_c, 5, 65, 51
7, 34075, Note_on_c, 5, 65, 0
7, 34080, Note_on_c, 5, 62, 51
7, 34110, Note_on_c, 5, 62, 0
7, 34110, Note_on_c, 5, 65, 51
7, 34140, Note_on_c, 5, 65, 0
7, 34140, Note_on_c, 5, 65, 51
7, 34165, Note_on_c, 5, 65, 0
7, 34170, Note_on_c, 5, 65, 51
7, 34195, Note_on_c, 5, 65, 0
7, 34200, Note_on_c, 5, 57, 51
7, 34230, Note_on_c, 5, 57, 0
7, 34230, Note_on_c, 5, 65, 51
7, 34260, Note_on_c, 5, 65, 0
7, 34260, Note_on_c, 5, 65, 51
7, 34285, Note_on_c, 5, 65, 0
7, 34290, Note_on_c, 5, 65, 51
7, 34315, Note_on_c, 5, 65, 0
7, 34320, Note_on_c, 5, 57, 51
7, 34350, Note_on_c, 5, 57, 0
7, 34350, Note_on_c, 5, 65, 51
7, 34380, Note_on_c, 5, 65, 0
7, 34380, Note_on_c, 5, 65, 51
7, 34405, Note_on_c, 5, 65, 0
7, 34410, Note_on_c, 5, 65, 51
7, 34435, Note_on_c, 5, 65, 0
7, 34440, Note_on_c, 5, 55, 51
7, 34470, Note_on_c, 5, 55, 0
7, 34470, Note_on_c, 5, 64, 51
7, 34500, Note_on_c, 5, 64, 0
7, 34500, Note_on_c, 5, 64, 51
7, 34525, Note_on_c, 5, 64, 0
7, 34530, Note_on_c, 5, 64, 51
7, 34555, Note_on_c, 5, 64, 0
7, 34560, Note_on_c, 5, 57, 43
7, 34590, Note_on_c, 5, 57, 0
7, 34590, Note_on_c, 5, 67, 43
7, 34620, Note_on_c, 5, 67, 0
7, 34620, Note_on_c, 5, 67, 43
7, 34645, Note_on_c, 5, 67, 0
7, 34650, Note_on_c, 5, 67, 43
7, 34675, Note_on_c, 5, 67, 0
7, 34680, Note_on_c, 5, 57, 43
7, 34710, Note_on_c, 5, 57, 0
7, 34710, Note_on_c, 5, 65, 43
7, 34740, Note_on_c, 5, 65, 0
7, 34740, Note_on_c, 5, 65, 43
7, 34765, Note_on_c, 5, 65, 0
7, 34770, Note_on_c, 5, 65, 43
7, 34795, Note_on_c, 5, 65, 0
7, 34800, Note_on_c, 5, 55, 43
7, 34830, Note_on_c, 5, 55, 0
7, 34830, Note_on_c, 5, 62, 43
7, 34860, Note_on_c, 5, 62, 0
7, 34860, Note_on_c, 5, 62, 43
7, 34885, Note_on_c, 5, 62, 0
7, 34890, Note_on_c, 5, 62, 43
7, 34915, Note_on_c, 5, 62, 0
7, 34920, Note_on_c, 5, 57, 43
7, 34950, Note_on_c, 5, 57, 0
7, 34950, Note_on_c, 5, 60, 42
7, 34980, Note_on_c, 5, 60, 0
7, 34980, Note_on_c, 5, 60, 41
7, 35005, Note_on_c, 5, 60, 0
7, 35010, Note_on_c, 5, 60, 41
7, 35035, Note_on_c, 5, 60, 0
7, 35040, Note_on_c, 5, 57, 40
7, 35070, Note_on_c, 5, 57, 0
7, 35070, Note_on_c, 5, 60, 39
7, 35100, Note_on_c, 5, 60, 0
7, 35100, Note_on_c, 5, 60, 39
7, 35125, Note_on_c, 5, 60, 0
7, 35130, Note_on_c, 5, 60, 39
7, 35155, Note_on_c, 5, 60, 0
7, 35160, Note_on_c, 5, 58, 38
7, 35190, Note_on_c, 5, 58, 0
7, 35190, Note_on_c, 5, 60, 38
7, 35220, Note_on_c, 5, 60, 0
7, 35220, Note_on_c, 5, 60, 37
7, 35245, Note_on_c, 5, 60, 0
7, 35250, Note_on_c, 5, 60, 37
7, 35275, Note_on_c, 5, 60, 0
7, 35280, Note_on_c, 5, 60, 27
7, 35340, Note_on_c, 5, 60, 0
7, 35520, Note_on_c, 5, 58, 38
7, 35640, Note_on_c, 5, 58, 0
7, 35640, Note_on_c, 5, 57, 38
7, 35700, Note_on_c, 5, 57, 0
7, 35880, Note_on_c, 5, 58, 51
7, 36000, Note_on_c, 5, 58, 0
7, 36000, Note_on_c, 5, 58, 47
7, 36120, Note_on_c, 5, 58, 0
7, 36120, Note_on_c, 5, 57, 45
7, 36180, Note_on_c, 5, 57, 0
7, 36180, End_track
8, 0, Start_track
8, 0, MIDI_port, 0
8, 0, Title_t, "Viole"
8, 0, Program_c, 6, 48
8, 0, Control_c, 6, 7, 105
8, 0, Control_c, 6, 10, 86
8, 240, Note_on_c, 6, 60, 54
8, 420, Note_on_c, 6, 60, 0
8, 480, Note_on_c, 6, 48, 56
8, 520, Note_on_c, 6, 48, 0
8, 960, Note_on_c, 6, 60, 53
8, 1140, Note_on_c, 6, 60, 0
8, 1200, Note_on_c, 6, 57, 59
8, 1240, Note_on_c, 6, 57, 0
8, 1920, Note_on_c, 6, 52, 49
8, 2040, Note_on_c, 6, 52, 0
8, 2040, Note_on_c, 6, 53, 51
8, 2160, Note_on_c, 6, 53, 0
8, 2160, Note_on_c, 6, 58, 65
8, 2190, Note_on_c, 6, 58, 0
8, 2190, Note_on_c, 6, 62, 65
8, 2220, Note_on_c, 6, 62, 0
8, 2220, Note_on_c, 6, 62, 65
8, 2235, Note_on_c, 6, 62, 0
8, 2250, Note_on_c, 6, 62, 65
8, 2265, Note_on_c, 6, 62, 0
8, 2280, Note_on_c, 6, 58, 65
8, 2310, Note_on_c, 6, 58, 0
8, 2310, Note_on_c, 6, 62, 64
8, 2340, Note_on_c, 6, 62, 0
8, 2340, Note_on_c, 6, 62, 64
8, 2355, Note_on_c, 6, 62, 0
8, 2370, Note_on_c, 6, 62, 64
8, 2385, Note_on_c, 6, 62, 0
8, 2400, Note_on_c, 6, 58, 64
8, 2430, Note_on_c, 6, 58, 0
8, 2430, Note_on_c, 6, 62, 64
8, 2460, Note_on_c, 6, 62, 0
8, 2460, Note_on_c, 6, 62, 63
8, 2475, Note_on_c, 6, 62, 0
8, 2490, Note_on_c, 6, 62, 63
8, 2505, Note_on_c, 6, 62, 0
8, 2520, Note_on_c, 6, 53, 63
8, 2550, Note_on_c, 6, 53, 0
8, 2550, Note_on_c, 6, 57, 63
8, 2580, Note_on_c, 6, 57, 0
8, 2580, Note_on_c, 6, 57, 63
8, 2595, Note_on_c, 6, 57, 0
8, 2610, Note_on_c, 6, 57, 63
8, 2625, Note_on_c, 6, 57, 0
8, 2640, Note_on_c, 6, 53, 63
8, 2670, Note_on_c, 6, 53, 0
8, 2670, Note_on_c, 6, 57, 63
8, 2700, Note_on_c, 6, 57, 0
8, 2700, Note_on_c, 6, 57, 63
8, 2715, Note_on_c, 6, 57, 0
8, 2730, Note_on_c, 6, 57, 63
8, 2745, Note_on_c, 6, 57, 0
8, 2760, Note_on_c, 6, 52, 62
8, 2790, Note_on_c, 6, 52, 0
8, 2790, Note_on_c, 6, 55, 62
8, 2820, Note_on_c, 6, 55, 0
8, 2820, Note_on_c, 6, 55, 62
8, 2835, Note_on_c, 6, 55, 0
8, 2850, Note_on_c, 6, 55, 62
8, 2865, Note_on_c, 6, 55, 0
8, 2880, Note_on_c, 6, 52, 54
8, 2910, Note_on_c, 6, 52, 0
8, 2910, Note_on_c, 6, 64, 54
8, 2940, Note_on_c, 6, 64, 0
8, 2940, Note_on_c, 6, 64, 54
8, 2955, Note_on_c, 6, 64, 0
8, 2970, Note_on_c, 6, 64, 54
8, 2985, Note_on_c, 6, 64, 0
8, 3000, Note_on_c, 6, 53, 54
8, 3030, Note_on_c, 6, 53, 0
8, 3030, Note_on_c, 6, 62, 54
8, 3060, Note_on_c, 6, 62, 0
8, 3060, Note_on_c, 6, 62, 54
8, 3075, Note_on_c, 6, 62, 0
8, 3090, Note_on_c, 6, 62, 54
8, 3105, Note_on_c, 6, 62, 0
8, 3120, Note_on_c, 6, 50, 54
8, 3150, Note_on_c, 6, 50, 0
8, 3150, Note_on_c, 6, 58, 54
8, 3180, Note_on_c, 6, 58, 0
8, 3180, Note_on_c, 6, 58, 54
8, 3195, Note_on_c, 6, 58, 0
8, 3210, Note_on_c, 6, 58, 54
8, 3225, Note_on_c, 6, 58, 0
8, 3240, Note_on_c, 6, 48, 54
8, 3270, Note_on_c, 6, 48, 0
8, 3270, Note_on_c, 6, 57, 54
8, 3300, Note_on_c, 6, 57, 0
8, 3300, Note_on_c, 6, 57, 54
8, 3315, Note_on_c, 6, 57, 0
8, 3330, Note_on_c, 6, 57, 54
8, 3345, Note_on_c, 6, 57, 0
8, 3360, Note_on_c, 6, 48, 54
8, 3390, Note_on_c, 6, 48, 0
8, 3390, Note_on_c, 6, 57, 54
8, 3420, Note_on_c, 6, 57, 0
8, 3420, Note_on_c, 6, 57, 54
8, 3435, Note_on_c, 6, 57, 0
8, 3450, Note_on_c, 6, 57, 54
8, 3465, Note_on_c, 6, 57, 0
8, 3480, Note_on_c, 6, 48, 54
8, 3510, Note_on_c, 6, 48, 0
8, 3510, Note_on_c, 6, 58, 54
8, 3540, Note_on_c, 6, 58, 0
8, 3540, Note_on_c, 6, 58, 54
8, 3555, Note_on_c, 6, 58, 0
8, 3570, Note_on_c, 6, 58, 54
8, 3585, Note_on_c, 6, 58, 0
8, 3600, Note_on_c, 6, 57, 51
8, 3660, Note_on_c, 6, 57, 0
8, 3720, Note_on_c, 6, 57, 57
8, 3929, Note_on_c, 6, 57, 0
8, 3930, Note_on_c, 6, 55, 57
8, 3944, Note_on_c, 6, 55, 0
8, 3945, Note_on_c, 6, 53, 57
8, 3959, Note_on_c, 6, 53, 0
8, 3960, Note_on_c, 6, 52, 57
8, 4020, Note_on_c, 6, 52, 0
8, 4080, Note_on_c, 6, 58, 63
8, 4125, Note_on_c, 6, 58, 0
8, 4320, Note_on_c, 6, 55, 57
8, 4410, Note_on_c, 6, 55, 0
8, 4410, Note_on_c, 6, 48, 62
8, 4440, Note_on_c, 6, 48, 0
8, 4440, Note_on_c, 6, 58, 57
8, 4649, Note_on_c, 6, 58, 0
8, 4650, Note_on_c, 6, 57, 57
8, 4665, Note_on_c, 6, 57, 0
8, 4665, Note_on_c, 6, 55, 57
8, 4680, Note_on_c, 6, 55, 0
8, 4680, Note_on_c, 6, 53, 57
8, 4740, Note_on_c, 6, 53, 0
8, 4800, Note_on_c, 6, 63, 57
8, 4845, Note_on_c, 6, 63, 0
8, 5100, Note_on_c, 6, 65, 36
8, 5135, Note_on_c, 6, 65, 0
8, 5160, Note_on_c, 6, 65, 38
8, 5195, Note_on_c, 6, 65, 0
8, 5220, Note_on_c, 6, 65, 40
8, 5280, Note_on_c, 6, 65, 0
8, 5280, Note_on_c, 6, 64, 40
8, 5340, Note_on_c, 6, 64, 0
8, 5340, Note_on_c, 6, 63, 39
8, 5400, Note_on_c, 6, 63, 0
8, 5460, Note_on_c, 6, 62, 38
8, 5495, Note_on_c, 6, 62, 0
8, 5520, Note_on_c, 6, 62, 38
8, 5555, Note_on_c, 6, 62, 0
8, 5580, Note_on_c, 6, 62, 39
8, 5640, Note_on_c, 6, 62, 0
8, 5640, Note_on_c, 6, 61, 39
8, 5700, Note_on_c, 6, 61, 0
8, 5700, Note_on_c, 6, 60, 39
8, 5760, Note_on_c, 6, 60, 0
8, 5820, Note_on_c, 6, 58, 39
8, 5855, Note_on_c, 6, 58, 0
8, 5880, Note_on_c, 6, 58, 39
8, 5940, Note_on_c, 6, 58, 0
8, 5940, Note_on_c, 6, 52, 39
8, 5995, Note_on_c, 6, 52, 0
8, 6000, Note_on_c, 6, 55, 39
8, 6060, Note_on_c, 6, 55, 0
8, 6060, Note_on_c, 6, 53, 39
8, 6090, Note_on_c, 6, 53, 0
8, 6090, Note_on_c, 6, 57, 39
8, 6120, Note_on_c, 6, 57, 0
8, 6120, Note_on_c, 6, 55, 38
8, 6194, Note_on_c, 6, 55, 0
8, 6195, Note_on_c, 6, 53, 38
8, 6209, Note_on_c, 6, 53, 0
8, 6210, Note_on_c, 6, 52, 38
8, 6224, Note_on_c, 6, 52, 0
8, 6225, Note_on_c, 6, 53, 38
8, 6239, Note_on_c, 6, 53, 0
8, 6240, Note_on_c, 6, 52, 38
8, 6300, Note_on_c, 6, 52, 0
8, 6480, Note_on_c, 6, 51, 63
8, 6553, Note_on_c, 6, 51, 0
8, 6566, Note_on_c, 6, 51, 54
8, 6623, Note_on_c, 6, 51, 0
8, 6626, Note_on_c, 6, 51, 54
8, 6683, Note_on_c, 6, 51, 0
8, 6687, Note_on_c, 6, 51, 54
8, 6744, Note_on_c, 6, 51, 0
8, 6744, Note_on_c, 6, 51, 54
8, 6801, Note_on_c, 6, 51, 0
8, 6807, Note_on_c, 6, 51, 56
8, 6836, Note_on_c, 6, 51, 0
8, 6840, Note_on_c, 6, 53, 56
8, 6864, Note_on_c, 6, 53, 0
8, 6868, Note_on_c, 6, 53, 56
8, 6897, Note_on_c, 6, 53, 0
8, 6929, Note_on_c, 6, 53, 56
8, 6958, Note_on_c, 6, 53, 0
8, 6989, Note_on_c, 6, 53, 56
8, 7018, Note_on_c, 6, 53, 0
8, 7051, Note_on_c, 6, 53, 56
8, 7080, Note_on_c, 6, 53, 0
8, 7110, Note_on_c, 6, 53, 56
8, 7139, Note_on_c, 6, 53, 0
8, 7169, Note_on_c, 6, 53, 56
8, 7198, Note_on_c, 6, 53, 0
8, 7200, Note_on_c, 6, 53, 62
8, 7224, Note_on_c, 6, 53, 0
8, 7226, Note_on_c, 6, 53, 59
8, 7283, Note_on_c, 6, 53, 0
8, 7283, Note_on_c, 6, 53, 59
8, 7340, Note_on_c, 6, 53, 0
8, 7347, Note_on_c, 6, 53, 59
8, 7404, Note_on_c, 6, 53, 0
8, 7407, Note_on_c, 6, 53, 59
8, 7464, Note_on_c, 6, 53, 0
8, 7467, Note_on_c, 6, 53, 59
8, 7524, Note_on_c, 6, 53, 0
8, 7529, Note_on_c, 6, 56, 59
8, 7560, Note_on_c, 6, 56, 0
8, 7560, Note_on_c, 6, 55, 56
8, 7584, Note_on_c, 6, 55, 0
8, 7585, Note_on_c, 6, 55, 56
8, 7614, Note_on_c, 6, 55, 0
8, 7650, Note_on_c, 6, 55, 56
8, 7679, Note_on_c, 6, 55, 0
8, 7710, Note_on_c, 6, 55, 56
8, 7739, Note_on_c, 6, 55, 0
8, 7770, Note_on_c, 6, 55, 56
8, 7799, Note_on_c, 6, 55, 0
8, 7830, Note_on_c, 6, 55, 56
8, 7859, Note_on_c, 6, 55, 0
8, 7890, Note_on_c, 6, 55, 56
8, 7919, Note_on_c, 6, 55, 0
8, 7920, Note_on_c, 6, 55, 69
8, 7940, Note_on_c, 6, 55, 0
8, 7940, Note_on_c, 6, 55, 68
8, 7960, Note_on_c, 6, 55, 0
8, 7960, Note_on_c, 6, 55, 64
8, 7980, Note_on_c, 6, 55, 0
8, 7980, Note_on_c, 6, 55, 54
8, 8000, Note_on_c, 6, 55, 0
8, 8000, Note_on_c, 6, 55, 54
8, 8020, Note_on_c, 6, 55, 0
8, 8020, Note_on_c, 6, 55, 54
8, 8040, Note_on_c, 6, 55, 0
8, 8040, Note_on_c, 6, 55, 54
8, 8060, Note_on_c, 6, 55, 0
8, 8060, Note_on_c, 6, 55, 54
8, 8080, Note_on_c, 6, 55, 0
8, 8080, Note_on_c, 6, 55, 54
8, 8100, Note_on_c, 6, 55, 0
8, 8100, Note_on_c, 6, 55, 54
8, 8120, Note_on_c, 6, 55, 0
8, 8120, Note_on_c, 6, 55, 54
8, 8140, Note_on_c, 6, 55, 0
8, 8140, Note_on_c, 6, 55, 54
8, 8160, Note_on_c, 6, 55, 0
8, 8160, Note_on_c, 6, 56, 54
8, 8180, Note_on_c, 6, 56, 0
8, 8180, Note_on_c, 6, 56, 54
8, 8200, Note_on_c, 6, 56, 0
8, 8200, Note_on_c, 6, 56, 54
8, 8220, Note_on_c, 6, 56, 0
8, 8220, Note_on_c, 6, 56, 54
8, 8240, Note_on_c, 6, 56, 0
8, 8240, Note_on_c, 6, 56, 54
8, 8260, Note_on_c, 6, 56, 0
8, 8260, Note_on_c, 6, 56, 54
8, 8280, Note_on_c, 6, 56, 0
8, 8280, Note_on_c, 6, 56, 54
8, 8300, Note_on_c, 6, 56, 0
8, 8300, Note_on_c, 6, 56, 54
8, 8320, Note_on_c, 6, 56, 0
8, 8320, Note_on_c, 6, 56, 54
8, 8340, Note_on_c, 6, 56, 0
8, 8340, Note_on_c, 6, 56, 54
8, 8360, Note_on_c, 6, 56, 0
8, 8360, Note_on_c, 6, 56, 54
8, 8380, Note_on_c, 6, 56, 0
8, 8380, Note_on_c, 6, 56, 54
8, 8400, Note_on_c, 6, 56, 0
8, 8400, Note_on_c, 6, 58, 69
8, 8420, Note_on_c, 6, 58, 0
8, 8420, Note_on_c, 6, 58, 68
8, 8440, Note_on_c, 6, 58, 0
8, 8440, Note_on_c, 6, 58, 64
8, 8460, Note_on_c, 6, 58, 0
8, 8460, Note_on_c, 6, 58, 54
8, 8480, Note_on_c, 6, 58, 0
8, 8480, Note_on_c, 6, 58, 54
8, 8500, Note_on_c, 6, 58, 0
8, 8500, Note_on_c, 6, 58, 54
8, 8520, Note_on_c, 6, 58, 0
8, 8520, Note_on_c, 6, 58, 54
8, 8540, Note_on_c, 6, 58, 0
8, 8540, Note_on_c, 6, 58, 54
8, 8560, Note_on_c, 6, 58, 0
8, 8560, Note_on_c, 6, 58, 54
8, 8580, Note_on_c, 6, 58, 0
8, 8580, Note_on_c, 6, 58, 54
8, 8600, Note_on_c, 6, 58, 0
8, 8600, Note_on_c, 6, 58, 54
8, 8620, Note_on_c, 6, 58, 0
8, 8620, Note_on_c, 6, 58, 54
8, 8640, Note_on_c, 6, 58, 0
8, 8640, Note_on_c, 6, 56, 69
8, 8660, Note_on_c, 6, 56, 0
8, 8660, Note_on_c, 6, 56, 68
8, 8680, Note_on_c, 6, 56, 0
8, 8680, Note_on_c, 6, 56, 64
8, 8700, Note_on_c, 6, 56, 0
8, 8700, Note_on_c, 6, 56, 54
8, 8720, Note_on_c, 6, 56, 0
8, 8720, Note_on_c, 6, 56, 54
8, 8740, Note_on_c, 6, 56, 0
8, 8740, Note_on_c, 6, 56, 54
8, 8760, Note_on_c, 6, 56, 0
8, 8760, Note_on_c, 6, 60, 54
8, 8780, Note_on_c, 6, 60, 0
8, 8780, Note_on_c, 6, 60, 54
8, 8800, Note_on_c, 6, 60, 0
8, 8800, Note_on_c, 6, 60, 54
8, 8820, Note_on_c, 6, 60, 0
8, 8820, Note_on_c, 6, 60, 54
8, 8840, Note_on_c, 6, 60, 0
8, 8840, Note_on_c, 6, 60, 54
8, 8860, Note_on_c, 6, 60, 0
8, 8860, Note_on_c, 6, 60, 54
8, 8880, Note_on_c, 6, 60, 0
8, 8880, Note_on_c, 6, 63, 68
8, 8900, Note_on_c, 6, 63, 0
8, 8900, Note_on_c, 6, 63, 68
8, 8920, Note_on_c, 6, 63, 0
8, 8920, Note_on_c, 6, 63, 63
8, 8940, Note_on_c, 6, 63, 0
8, 8940, Note_on_c, 6, 63, 54
8, 8960, Note_on_c, 6, 63, 0
8, 8960, Note_on_c, 6, 63, 54
8, 8980, Note_on_c, 6, 63, 0
8, 8980, Note_on_c, 6, 63, 54
8, 9000, Note_on_c, 6, 63, 0
8, 9000, Note_on_c, 6, 63, 54
8, 9360, Note_on_c, 6, 63, 0
8, 9360, Note_on_c, 6, 55, 54
8, 9420, Note_on_c, 6, 55, 0
8, 9480, Note_on_c, 6, 55, 54
8, 9540, Note_on_c, 6, 55, 0
8, 9720, Note_on_c, 6, 55, 45
8, 9840, Note_on_c, 6, 55, 0
8, 9840, Note_on_c, 6, 53, 45
8, 9960, Note_on_c, 6, 53, 0
8, 9960, Note_on_c, 6, 52, 45
8, 10080, Note_on_c, 6, 52, 0
8, 10080, Note_on_c, 6, 50, 45
8, 10200, Note_on_c, 6, 50, 0
8, 10440, Note_on_c, 6, 53, 45
8, 10560, Note_on_c, 6, 53, 0
8, 10560, Note_on_c, 6, 52, 45
8, 10680, Note_on_c, 6, 52, 0
8, 10680, Note_on_c, 6, 50, 45
8, 10800, Note_on_c, 6, 50, 0
8, 10800, Note_on_c, 6, 48, 45
8, 10920, Note_on_c, 6, 48, 0
8, 11160, Note_on_c, 6, 64, 45
8, 11280, Note_on_c, 6, 64, 0
8, 11280, Note_on_c, 6, 62, 45
8, 11520, Note_on_c, 6, 62, 0
8, 11520, Note_on_c, 6, 60, 45
8, 11700, Note_on_c, 6, 60, 0
8, 11700, Note_on_c, 6, 62, 45
8, 11820, Note_on_c, 6, 62, 0
8, 11820, Note_on_c, 6, 60, 45
8, 11880, Note_on_c, 6, 60, 0
8, 11880, Note_on_c, 6, 57, 45
8, 12000, Note_on_c, 6, 57, 0
8, 12000, Note_on_c, 6, 55, 45
8, 12240, Note_on_c, 6, 55, 0
8, 12240, Note_on_c, 6, 64, 45
8, 12360, Note_on_c, 6, 64, 0
8, 12360, Note_on_c, 6, 62, 45
8, 12599, Note_on_c, 6, 62, 0
8, 12600, Note_on_c, 6, 60, 45
8, 12779, Note_on_c, 6, 60, 0
8, 12780, Note_on_c, 6, 62, 45
8, 12899, Note_on_c, 6, 62, 0
8, 12900, Note_on_c, 6, 60, 45
8, 13019, Note_on_c, 6, 60, 0
8, 13020, Note_on_c, 6, 59, 46
8, 13139, Note_on_c, 6, 59, 0
8, 13140, Note_on_c, 6, 57, 48
8, 13259, Note_on_c, 6, 57, 0
8, 13260, Note_on_c, 6, 55, 51
8, 13379, Note_on_c, 6, 55, 0
8, 13380, Note_on_c, 6, 59, 54
8, 13440, Note_on_c, 6, 59, 0
8, 13440, Note_on_c, 6, 60, 54
8, 13500, Note_on_c, 6, 60, 0
8, 13500, Note_on_c, 6, 57, 54
8, 13554, Note_on_c, 6, 57, 0
8, 13560, Note_on_c, 6, 55, 54
8, 13614, Note_on_c, 6, 55, 0
8, 13620, Note_on_c, 6, 53, 54
8, 13674, Note_on_c, 6, 53, 0
8, 13680, Note_on_c, 6, 52, 54
8, 13800, Note_on_c, 6, 52, 0
8, 14280, Note_on_c, 6, 55, 45
8, 14460, Note_on_c, 6, 55, 0
8, 15000, Note_on_c, 6, 55, 45
8, 15120, Note_on_c, 6, 55, 0
8, 15120, Note_on_c, 6, 48, 45
8, 15180, Note_on_c, 6, 48, 0
8, 15240, Note_on_c, 6, 60, 45
8, 15296, Note_on_c, 6, 60, 0
8, 15840, Note_on_c, 6, 52, 45
8, 16020, Note_on_c, 6, 52, 0
8, 16561, Note_on_c, 6, 53, 63
8, 16587, Note_on_c, 6, 53, 0
8, 16590, Note_on_c, 6, 53, 59
8, 16647, Note_on_c, 6, 53, 0
8, 16652, Note_on_c, 6, 53, 53
8, 16709, Note_on_c, 6, 53, 0
8, 16711, Note_on_c, 6, 53, 53
8, 16768, Note_on_c, 6, 53, 0
8, 16772, Note_on_c, 6, 53, 53
8, 16829, Note_on_c, 6, 53, 0
8, 16830, Note_on_c, 6, 53, 53
8, 16887, Note_on_c, 6, 53, 0
8, 16890, Note_on_c, 6, 53, 53
8, 16920, Note_on_c, 6, 53, 0
8, 16920, Note_on_c, 6, 55, 53
8, 16946, Note_on_c, 6, 55, 0
8, 16952, Note_on_c, 6, 55, 53
8, 16978, Note_on_c, 6, 55, 0
8, 17012, Note_on_c, 6, 55, 53
8, 17042, Note_on_c, 6, 55, 0
8, 17072, Note_on_c, 6, 55, 53
8, 17102, Note_on_c, 6, 55, 0
8, 17132, Note_on_c, 6, 55, 53
8, 17162, Note_on_c, 6, 55, 0
8, 17194, Note_on_c, 6, 55, 53
8, 17224, Note_on_c, 6, 55, 0
8, 17252, Note_on_c, 6, 55, 53
8, 17280, Note_on_c, 6, 52, 63
8, 17282, Note_on_c, 6, 55, 0
8, 17303, Note_on_c, 6, 52, 0
8, 17306, Note_on_c, 6, 52, 53
8, 17363, Note_on_c, 6, 52, 0
8, 17365, Note_on_c, 6, 52, 53
8, 17422, Note_on_c, 6, 52, 0
8, 17427, Note_on_c, 6, 52, 53
8, 17484, Note_on_c, 6, 52, 0
8, 17489, Note_on_c, 6, 52, 53
8, 17546, Note_on_c, 6, 52, 0
8, 17548, Note_on_c, 6, 52, 53
8, 17605, Note_on_c, 6, 52, 0
8, 17611, Note_on_c, 6, 55, 53
8, 17640, Note_on_c, 6, 57, 53
8, 17642, Note_on_c, 6, 55, 0
8, 17666, Note_on_c, 6, 57, 0
8, 17670, Note_on_c, 6, 57, 53
8, 17700, Note_on_c, 6, 57, 0
8, 17730, Note_on_c, 6, 57, 53
8, 17760, Note_on_c, 6, 57, 0
8, 17790, Note_on_c, 6, 57, 53
8, 17820, Note_on_c, 6, 57, 0
8, 17850, Note_on_c, 6, 57, 53
8, 17880, Note_on_c, 6, 57, 0
8, 17908, Note_on_c, 6, 57, 53
8, 17938, Note_on_c, 6, 57, 0
8, 17970, Note_on_c, 6, 57, 53
8, 18000, Note_on_c, 6, 57, 0
8, 18000, Note_on_c, 6, 58, 63
8, 18020, Note_on_c, 6, 58, 0
8, 18020, Note_on_c, 6, 63, 59
8, 18040, Note_on_c, 6, 63, 0
8, 18040, Note_on_c, 6, 63, 53
8, 18060, Note_on_c, 6, 63, 0
8, 18060, Note_on_c, 6, 63, 53
8, 18080, Note_on_c, 6, 63, 0
8, 18080, Note_on_c, 6, 63, 53
8, 18100, Note_on_c, 6, 63, 0
8, 18100, Note_on_c, 6, 63, 53
8, 18120, Note_on_c, 6, 63, 0
8, 18120, Note_on_c, 6, 63, 53
8, 18140, Note_on_c, 6, 63, 0
8, 18140, Note_on_c, 6, 63, 53
8, 18160, Note_on_c, 6, 63, 0
8, 18160, Note_on_c, 6, 63, 53
8, 18180, Note_on_c, 6, 63, 0
8, 18180, Note_on_c, 6, 63, 53
8, 18200, Note_on_c, 6, 63, 0
8, 18200, Note_on_c, 6, 63, 53
8, 18220, Note_on_c, 6, 63, 0
8, 18220, Note_on_c, 6, 63, 53
8, 18240, Note_on_c, 6, 63, 0
8, 18240, Note_on_c, 6, 63, 53
8, 18260, Note_on_c, 6, 63, 0
8, 18260, Note_on_c, 6, 63, 53
8, 18280, Note_on_c, 6, 63, 0
8, 18280, Note_on_c, 6, 63, 53
8, 18300, Note_on_c, 6, 63, 0
8, 18300, Note_on_c, 6, 63, 53
8, 18320, Note_on_c, 6, 63, 0
8, 18320, Note_on_c, 6, 63, 53
8, 18340, Note_on_c, 6, 63, 0
8, 18340, Note_on_c, 6, 63, 53
8, 18360, Note_on_c, 6, 63, 0
8, 18360, Note_on_c, 6, 61, 63
8, 18380, Note_on_c, 6, 61, 0
8, 18380, Note_on_c, 6, 61, 53
8, 18400, Note_on_c, 6, 61, 0
8, 18400, Note_on_c, 6, 61, 53
8, 18420, Note_on_c, 6, 61, 0
8, 18420, Note_on_c, 6, 61, 53
8, 18440, Note_on_c, 6, 61, 0
8, 18440, Note_on_c, 6, 61, 53
8, 18460, Note_on_c, 6, 61, 0
8, 18460, Note_on_c, 6, 61, 53
8, 18480, Note_on_c, 6, 61, 0
8, 18480, Note_on_c, 6, 60, 53
8, 18500, Note_on_c, 6, 60, 0
8, 18500, Note_on_c, 6, 60, 53
8, 18520, Note_on_c, 6, 60, 0
8, 18520, Note_on_c, 6, 60, 53
8, 18540, Note_on_c, 6, 60, 0
8, 18540, Note_on_c, 6, 60, 53
8, 18560, Note_on_c, 6, 60, 0
8, 18560, Note_on_c, 6, 60, 53
8, 18580, Note_on_c, 6, 60, 0
8, 18580, Note_on_c, 6, 60, 53
8, 18600, Note_on_c, 6, 60, 0
8, 18600, Note_on_c, 6, 65, 53
8, 18620, Note_on_c, 6, 65, 0
8, 18620, Note_on_c, 6, 65, 53
8, 18640, Note_on_c, 6, 65, 0
8, 18640, Note_on_c, 6, 65, 53
8, 18660, Note_on_c, 6, 65, 0
8, 18660, Note_on_c, 6, 65, 53
8, 18680, Note_on_c, 6, 65, 0
8, 18680, Note_on_c, 6, 65, 53
8, 18700, Note_on_c, 6, 65, 0
8, 18700, Note_on_c, 6, 65, 53
8, 18720, Note_on_c, 6, 65, 0
8, 18720, Note_on_c, 6, 65, 63
8, 18740, Note_on_c, 6, 65, 0
8, 18740, Note_on_c, 6, 65, 53
8, 18760, Note_on_c, 6, 65, 0
8, 18760, Note_on_c, 6, 65, 53
8, 18780, Note_on_c, 6, 65, 0
8, 18780, Note_on_c, 6, 65, 53
8, 18800, Note_on_c, 6, 65, 0
8, 18800, Note_on_c, 6, 65, 53
8, 18820, Note_on_c, 6, 65, 0
8, 18820, Note_on_c, 6, 65, 53
8, 18840, Note_on_c, 6, 65, 0
8, 18840, Note_on_c, 6, 63, 53
8, 18860, Note_on_c, 6, 63, 0
8, 18860, Note_on_c, 6, 63, 53
8, 18880, Note_on_c, 6, 63, 0
8, 18880, Note_on_c, 6, 63, 53
8, 18900, Note_on_c, 6, 63, 0
8, 18900, Note_on_c, 6, 63, 53
8, 18920, Note_on_c, 6, 63, 0
8, 18920, Note_on_c, 6, 63, 53
8, 18940, Note_on_c, 6, 63, 0
8, 18940, Note_on_c, 6, 63, 53
8, 18960, Note_on_c, 6, 63, 0
8, 18960, Note_on_c, 6, 62, 53
8, 18980, Note_on_c, 6, 62, 0
8, 18980, Note_on_c, 6, 62, 53
8, 19000, Note_on_c, 6, 62, 0
8, 19000, Note_on_c, 6, 62, 53
8, 19020, Note_on_c, 6, 62, 0
8, 19020, Note_on_c, 6, 62, 53
8, 19040, Note_on_c, 6, 62, 0
8, 19040, Note_on_c, 6, 62, 53
8, 19060, Note_on_c, 6, 62, 0
8, 19060, Note_on_c, 6, 62, 53
8, 19080, Note_on_c, 6, 62, 0
8, 19080, Note_on_c, 6, 67, 53
8, 19100, Note_on_c, 6, 67, 0
8, 19100, Note_on_c, 6, 67, 53
8, 19120, Note_on_c, 6, 67, 0
8, 19120, Note_on_c, 6, 67, 53
8, 19140, Note_on_c, 6, 67, 0
8, 19140, Note_on_c, 6, 67, 53
8, 19160, Note_on_c, 6, 67, 0
8, 19160, Note_on_c, 6, 67, 53
8, 19180, Note_on_c, 6, 67, 0
8, 19180, Note_on_c, 6, 67, 53
8, 19200, Note_on_c, 6, 67, 0
8, 19200, Note_on_c, 6, 67, 53
8, 19220, Note_on_c, 6, 67, 0
8, 19220, Note_on_c, 6, 67, 53
8, 19240, Note_on_c, 6, 67, 0
8, 19240, Note_on_c, 6, 67, 53
8, 19260, Note_on_c, 6, 67, 0
8, 19260, Note_on_c, 6, 67, 53
8, 19280, Note_on_c, 6, 67, 0
8, 19280, Note_on_c, 6, 67, 53
8, 19300, Note_on_c, 6, 67, 0
8, 19300, Note_on_c, 6, 67, 53
8, 19320, Note_on_c, 6, 67, 0
8, 19320, Note_on_c, 6, 65, 53
8, 19340, Note_on_c, 6, 65, 0
8, 19340, Note_on_c, 6, 65, 53
8, 19360, Note_on_c, 6, 65, 0
8, 19360, Note_on_c, 6, 65, 53
8, 19380, Note_on_c, 6, 65, 0
8, 19380, Note_on_c, 6, 65, 53
8, 19400, Note_on_c, 6, 65, 0
8, 19400, Note_on_c, 6, 65, 53
8, 19420, Note_on_c, 6, 65, 0
8, 19420, Note_on_c, 6, 65, 53
8, 19440, Note_on_c, 6, 65, 0
8, 19440, Note_on_c, 6, 65, 53
8, 19460, Note_on_c, 6, 65, 0
8, 19460, Note_on_c, 6, 65, 53
8, 19480, Note_on_c, 6, 65, 0
8, 19480, Note_on_c, 6, 65, 53
8, 19500, Note_on_c, 6, 65, 0
8, 19500, Note_on_c, 6, 65, 53
8, 19520, Note_on_c, 6, 65, 0
8, 19520, Note_on_c, 6, 65, 53
8, 19540, Note_on_c, 6, 65, 0
8, 19540, Note_on_c, 6, 65, 53
8, 19560, Note_on_c, 6, 65, 0
8, 19560, Note_on_c, 6, 63, 53
8, 19580, Note_on_c, 6, 63, 0
8, 19580, Note_on_c, 6, 63, 53
8, 19600, Note_on_c, 6, 63, 0
8, 19600, Note_on_c, 6, 63, 53
8, 19620, Note_on_c, 6, 63, 0
8, 19620, Note_on_c, 6, 63, 53
8, 19640, Note_on_c, 6, 63, 0
8, 19640, Note_on_c, 6, 63, 53
8, 19660, Note_on_c, 6, 63, 0
8, 19660, Note_on_c, 6, 63, 53
8, 19680, Note_on_c, 6, 63, 0
8, 19680, Note_on_c, 6, 62, 53
8, 19740, Note_on_c, 6, 62, 0
8, 19740, Note_on_c, 6, 53, 53
8, 19800, Note_on_c, 6, 53, 0
8, 19800, Note_on_c, 6, 52, 53
8, 19860, Note_on_c, 6, 52, 0
8, 20160, Note_on_c, 6, 58, 51
8, 20280, Note_on_c, 6, 58, 0
8, 20280, Note_on_c, 6, 57, 51
8, 20340, Note_on_c, 6, 57, 0
8, 20400, Note_on_c, 6, 70, 51
8, 20520, Note_on_c, 6, 70, 0
8, 20520, Note_on_c, 6, 69, 51
8, 20580, Note_on_c, 6, 69, 0
8, 20700, Note_on_c, 6, 52, 49
8, 20755, Note_on_c, 6, 52, 0
8, 20820, Note_on_c, 6, 52, 49
8, 20875, Note_on_c, 6, 52, 0
8, 20940, Note_on_c, 6, 50, 49
8, 20995, Note_on_c, 6, 50, 0
8, 21060, Note_on_c, 6, 50, 49
8, 21115, Note_on_c, 6, 50, 0
8, 21240, Note_on_c, 6, 48, 45
8, 21297, Note_on_c, 6, 48, 0
8, 21300, Note_on_c, 6, 53, 45
8, 21300, Note_on_c, 6, 57, 45
8, 21357, Note_on_c, 6, 57, 0
8, 21357, Note_on_c, 6, 53, 0
8, 21360, Note_on_c, 6, 53, 45
8, 21360, Note_on_c, 6, 57, 45
8, 21417, Note_on_c, 6, 57, 0
8, 21417, Note_on_c, 6, 53, 0
8, 21420, Note_on_c, 6, 53, 45
8, 21420, Note_on_c, 6, 57, 45
8, 21477, Note_on_c, 6, 57, 0
8, 21477, Note_on_c, 6, 53, 0
8, 21480, Note_on_c, 6, 53, 45
8, 21480, Note_on_c, 6, 57, 45
8, 21537, Note_on_c, 6, 57, 0
8, 21537, Note_on_c, 6, 53, 0
8, 21540, Note_on_c, 6, 53, 45
8, 21540, Note_on_c, 6, 57, 45
8, 21597, Note_on_c, 6, 57, 0
8, 21597, Note_on_c, 6, 53, 0
8, 21600, Note_on_c, 6, 55, 45
8, 21600, Note_on_c, 6, 58, 45
8, 21657, Note_on_c, 6, 58, 0
8, 21657, Note_on_c, 6, 55, 0
8, 21660, Note_on_c, 6, 55, 45
8, 21660, Note_on_c, 6, 58, 45
8, 21717, Note_on_c, 6, 58, 0
8, 21717, Note_on_c, 6, 55, 0
8, 21720, Note_on_c, 6, 55, 45
8, 21720, Note_on_c, 6, 58, 45
8, 21777, Note_on_c, 6, 58, 0
8, 21777, Note_on_c, 6, 55, 0
8, 21780, Note_on_c, 6, 55, 45
8, 21780, Note_on_c, 6, 58, 45
8, 21837, Note_on_c, 6, 58, 0
8, 21837, Note_on_c, 6, 55, 0
8, 21840, Note_on_c, 6, 55, 45
8, 21840, Note_on_c, 6, 58, 45
8, 21897, Note_on_c, 6, 58, 0
8, 21897, Note_on_c, 6, 55, 0
8, 21900, Note_on_c, 6, 55, 45
8, 21900, Note_on_c, 6, 58, 45
8, 21957, Note_on_c, 6, 58, 0
8, 21957, Note_on_c, 6, 55, 0
8, 21960, Note_on_c, 6, 55, 45
8, 21960, Note_on_c, 6, 58, 45
8, 22017, Note_on_c, 6, 58, 0
8, 22017, Note_on_c, 6, 55, 0
8, 22020, Note_on_c, 6, 55, 45
8, 22020, Note_on_c, 6, 58, 45
8, 22077, Note_on_c, 6, 58, 0
8, 22077, Note_on_c, 6, 55, 0
8, 22080, Note_on_c, 6, 55, 45
8, 22080, Note_on_c, 6, 58, 45
8, 22137, Note_on_c, 6, 58, 0
8, 22137, Note_on_c, 6, 55, 0
8, 22140, Note_on_c, 6, 55, 45
8, 22140, Note_on_c, 6, 58, 45
8, 22197, Note_on_c, 6, 58, 0
8, 22197, Note_on_c, 6, 55, 0
8, 22200, Note_on_c, 6, 55, 45
8, 22200, Note_on_c, 6, 58, 45
8, 22257, Note_on_c, 6, 58, 0
8, 22257, Note_on_c, 6, 55, 0
8, 22260, Note_on_c, 6, 55, 45
8, 22260, Note_on_c, 6, 58, 45
8, 22317, Note_on_c, 6, 58, 0
8, 22317, Note_on_c, 6, 55, 0
8, 22320, Note_on_c, 6, 53, 45
8, 22320, Note_on_c, 6, 57, 45
8, 22377, Note_on_c, 6, 57, 0
8, 22377, Note_on_c, 6, 53, 0
8, 22380, Note_on_c, 6, 53, 45
8, 22380, Note_on_c, 6, 57, 45
8, 22437, Note_on_c, 6, 57, 0
8, 22437, Note_on_c, 6, 53, 0
8, 22440, Note_on_c, 6, 53, 45
8, 22440, Note_on_c, 6, 57, 45
8, 22497, Note_on_c, 6, 57, 0
8, 22497, Note_on_c, 6, 53, 0
8, 22500, Note_on_c, 6, 53, 45
8, 22500, Note_on_c, 6, 57, 45
8, 22557, Note_on_c, 6, 57, 0
8, 22557, Note_on_c, 6, 53, 0
8, 22560, Note_on_c, 6, 48, 45
8, 22560, Note_on_c, 6, 53, 45
8, 22617, Note_on_c, 6, 53, 0
8, 22617, Note_on_c, 6, 48, 0
8, 22620, Note_on_c, 6, 51, 45
8, 22620, Note_on_c, 6, 53, 45
8, 22677, Note_on_c, 6, 53, 0
8, 22677, Note_on_c, 6, 51, 0
8, 22680, Note_on_c, 6, 50, 45
8, 22680, Note_on_c, 6, 53, 45
8, 22740, Note_on_c, 6, 53, 0
8, 22740, Note_on_c, 6, 50, 0
8, 22800, Note_on_c, 6, 62, 56
8, 23009, Note_on_c, 6, 62, 0
8, 23010, Note_on_c, 6, 60, 56
8, 23025, Note_on_c, 6, 60, 0
8, 23025, Note_on_c, 6, 58, 56
8, 23040, Note_on_c, 6, 58, 0
8, 23040, Note_on_c, 6, 57, 56
8, 23100, Note_on_c, 6, 57, 0
8, 23160, Note_on_c, 6, 63, 64
8, 23220, Note_on_c, 6, 63, 0
8, 23415, Note_on_c, 6, 59, 50
8, 23430, Note_on_c, 6, 59, 0
8, 23430, Note_on_c, 6, 60, 50
8, 23445, Note_on_c, 6, 60, 0
8, 23445, Note_on_c, 6, 59, 50
8, 23460, Note_on_c, 6, 59, 0
8, 23460, Note_on_c, 6, 60, 50
8, 23475, Note_on_c, 6, 60, 0
8, 23475, Note_on_c, 6, 62, 50
8, 23490, Note_on_c, 6, 62, 0
8, 23490, Note_on_c, 6, 63, 50
8, 23505, Note_on_c, 6, 63, 0
8, 23505, Note_on_c, 6, 62, 50
8, 23520, Note_on_c, 6, 62, 0
8, 23520, Note_on_c, 6, 63, 50
8, 23535, Note_on_c, 6, 63, 0
8, 23535, Note_on_c, 6, 66, 50
8, 23550, Note_on_c, 6, 66, 0
8, 23550, Note_on_c, 6, 67, 50
8, 23565, Note_on_c, 6, 67, 0
8, 23565, Note_on_c, 6, 62, 50
8, 23580, Note_on_c, 6, 62, 0
8, 23580, Note_on_c, 6, 65, 50
8, 23595, Note_on_c, 6, 65, 0
8, 23595, Note_on_c, 6, 63, 50
8, 23610, Note_on_c, 6, 63, 0
8, 23610, Note_on_c, 6, 62, 50
8, 23625, Note_on_c, 6, 62, 0
8, 23625, Note_on_c, 6, 60, 50
8, 23640, Note_on_c, 6, 60, 0
8, 23640, Note_on_c, 6, 58, 50
8, 23655, Note_on_c, 6, 58, 0
8, 23655, Note_on_c, 6, 57, 50
8, 23670, Note_on_c, 6, 57, 0
8, 23670, Note_on_c, 6, 60, 50
8, 23685, Note_on_c, 6, 60, 0
8, 23685, Note_on_c, 6, 58, 50
8, 23700, Note_on_c, 6, 58, 0
8, 23700, Note_on_c, 6, 57, 50
8, 23715, Note_on_c, 6, 57, 0
8, 23715, Note_on_c, 6, 55, 50
8, 23730, Note_on_c, 6, 55, 0
8, 23730, Note_on_c, 6, 53, 50
8, 23745, Note_on_c, 6, 53, 0
8, 23745, Note_on_c, 6, 51, 50
8, 23760, Note_on_c, 6, 51, 0
8, 23760, Note_on_c, 6, 50, 56
8, 23820, Note_on_c, 6, 50, 0
8, 24000, Note_on_c, 6, 60, 56
8, 24060, Note_on_c, 6, 60, 0
8, 24240, Note_on_c, 6, 58, 56
8, 24300, Note_on_c, 6, 58, 0
8, 24480, Note_on_c, 6, 58, 56
8, 24540, Note_on_c, 6, 58, 0
8, 24720, Note_on_c, 6, 57, 56
8, 24780, Note_on_c, 6, 57, 0
8, 24960, Note_on_c, 6, 62, 50
8, 25020, Note_on_c, 6, 62, 0
8, 25215, Note_on_c, 6, 60, 64
8, 25230, Note_on_c, 6, 60, 0
8, 25230, Note_on_c, 6, 62, 64
8, 25245, Note_on_c, 6, 62, 0
8, 25245, Note_on_c, 6, 64, 64
8, 25260, Note_on_c, 6, 64, 0
8, 25260, Note_on_c, 6, 65, 64
8, 25275, Note_on_c, 6, 65, 0
8, 25275, Note_on_c, 6, 67, 64
8, 25290, Note_on_c, 6, 67, 0
8, 25290, Note_on_c, 6, 69, 64
8, 25305, Note_on_c, 6, 69, 0
8, 25305, Note_on_c, 6, 71, 64
8, 25320, Note_on_c, 6, 71, 0
8, 25320, Note_on_c, 6, 72, 64
8, 25335, Note_on_c, 6, 72, 0
8, 25335, Note_on_c, 6, 76, 64
8, 25350, Note_on_c, 6, 76, 0
8, 25350, Note_on_c, 6, 74, 64
8, 25365, Note_on_c, 6, 74, 0
8, 25365, Note_on_c, 6, 72, 64
8, 25380, Note_on_c, 6, 72, 0
8, 25380, Note_on_c, 6, 71, 64
8, 25395, Note_on_c, 6, 71, 0
8, 25395, Note_on_c, 6, 69, 64
8, 25410, Note_on_c, 6, 69, 0
8, 25410, Note_on_c, 6, 67, 64
8, 25425, Note_on_c, 6, 67, 0
8, 25425, Note_on_c, 6, 66, 64
8, 25440, Note_on_c, 6, 66, 0
8, 25440, Note_on_c, 6, 67, 64
8, 25455, Note_on_c, 6, 67, 0
8, 25455, Note_on_c, 6, 69, 64
8, 25470, Note_on_c, 6, 69, 0
8, 25470, Note_on_c, 6, 67, 64
8, 25485, Note_on_c, 6, 67, 0
8, 25485, Note_on_c, 6, 65, 64
8, 25500, Note_on_c, 6, 65, 0
8, 25500, Note_on_c, 6, 64, 64
8, 25515, Note_on_c, 6, 64, 0
8, 25515, Note_on_c, 6, 62, 64
8, 25530, Note_on_c, 6, 62, 0
8, 25530, Note_on_c, 6, 60, 64
8, 25545, Note_on_c, 6, 60, 0
8, 25545, Note_on_c, 6, 59, 64
8, 25560, Note_on_c, 6, 59, 0
8, 25560, Note_on_c, 6, 60, 64
8, 25590, Note_on_c, 6, 60, 0
8, 25590, Note_on_c, 6, 62, 64
8, 25605, Note_on_c, 6, 62, 0
8, 25605, Note_on_c, 6, 64, 64
8, 25620, Note_on_c, 6, 64, 0
8, 25620, Note_on_c, 6, 65, 64
8, 25635, Note_on_c, 6, 65, 0
8, 25635, Note_on_c, 6, 67, 64
8, 25650, Note_on_c, 6, 67, 0
8, 25650, Note_on_c, 6, 69, 64
8, 25665, Note_on_c, 6, 69, 0
8, 25665, Note_on_c, 6, 71, 64
8, 25680, Note_on_c, 6, 71, 0
8, 25680, Note_on_c, 6, 72, 64
8, 25695, Note_on_c, 6, 72, 0
8, 25695, Note_on_c, 6, 76, 64
8, 25710, Note_on_c, 6, 76, 0
8, 25710, Note_on_c, 6, 74, 64
8, 25725, Note_on_c, 6, 74, 0
8, 25725, Note_on_c, 6, 72, 64
8, 25740, Note_on_c, 6, 72, 0
8, 25740, Note_on_c, 6, 71, 64
8, 25755, Note_on_c, 6, 71, 0
8, 25755, Note_on_c, 6, 69, 64
8, 25770, Note_on_c, 6, 69, 0
8, 25770, Note_on_c, 6, 67, 64
8, 25785, Note_on_c, 6, 67, 0
8, 25785, Note_on_c, 6, 66, 64
8, 25800, Note_on_c, 6, 66, 0
8, 25800, Note_on_c, 6, 67, 64
8, 25815, Note_on_c, 6, 67, 0
8, 25815, Note_on_c, 6, 69, 64
8, 25830, Note_on_c, 6, 69, 0
8, 25830, Note_on_c, 6, 67, 64
8, 25845, Note_on_c, 6, 67, 0
8, 25845, Note_on_c, 6, 65, 64
8, 25860, Note_on_c, 6, 65, 0
8, 25860, Note_on_c, 6, 64, 64
8, 25875, Note_on_c, 6, 64, 0
8, 25875, Note_on_c, 6, 62, 64
8, 25890, Note_on_c, 6, 62, 0
8, 25890, Note_on_c, 6, 60, 64
8, 25905, Note_on_c, 6, 60, 0
8, 25905, Note_on_c, 6, 59, 64
8, 25920, Note_on_c, 6, 59, 0
8, 25920, Note_on_c, 6, 60, 62
8, 25940, Note_on_c, 6, 60, 0
8, 25940, Note_on_c, 6, 64, 62
8, 25960, Note_on_c, 6, 64, 0
8, 25960, Note_on_c, 6, 64, 62
8, 25980, Note_on_c, 6, 64, 0
8, 25980, Note_on_c, 6, 64, 51
8, 26000, Note_on_c, 6, 64, 0
8, 26000, Note_on_c, 6, 64, 51
8, 26020, Note_on_c, 6, 64, 0
8, 26020, Note_on_c, 6, 64, 51
8, 26040, Note_on_c, 6, 64, 0
8, 26040, Note_on_c, 6, 64, 51
8, 26060, Note_on_c, 6, 64, 0
8, 26060, Note_on_c, 6, 64, 51
8, 26080, Note_on_c, 6, 64, 0
8, 26080, Note_on_c, 6, 64, 51
8, 26100, Note_on_c, 6, 64, 0
8, 26100, Note_on_c, 6, 64, 51
8, 26120, Note_on_c, 6, 64, 0
8, 26120, Note_on_c, 6, 64, 51
8, 26140, Note_on_c, 6, 64, 0
8, 26140, Note_on_c, 6, 64, 51
8, 26160, Note_on_c, 6, 64, 0
8, 26160, Note_on_c, 6, 65, 51
8, 26180, Note_on_c, 6, 65, 0
8, 26180, Note_on_c, 6, 65, 51
8, 26200, Note_on_c, 6, 65, 0
8, 26200, Note_on_c, 6, 65, 51
8, 26220, Note_on_c, 6, 65, 0
8, 26220, Note_on_c, 6, 65, 51
8, 26240, Note_on_c, 6, 65, 0
8, 26240, Note_on_c, 6, 65, 51
8, 26260, Note_on_c, 6, 65, 0
8, 26260, Note_on_c, 6, 65, 51
8, 26280, Note_on_c, 6, 65, 0
8, 26280, Note_on_c, 6, 64, 62
8, 26300, Note_on_c, 6, 64, 0
8, 26300, Note_on_c, 6, 64, 62
8, 26320, Note_on_c, 6, 64, 0
8, 26320, Note_on_c, 6, 64, 62
8, 26340, Note_on_c, 6, 64, 0
8, 26340, Note_on_c, 6, 64, 51
8, 26360, Note_on_c, 6, 64, 0
8, 26360, Note_on_c, 6, 64, 51
8, 26380, Note_on_c, 6, 64, 0
8, 26380, Note_on_c, 6, 64, 51
8, 26400, Note_on_c, 6, 64, 0
8, 26400, Note_on_c, 6, 64, 51
8, 26420, Note_on_c, 6, 64, 0
8, 26420, Note_on_c, 6, 64, 51
8, 26440, Note_on_c, 6, 64, 0
8, 26440, Note_on_c, 6, 64, 51
8, 26460, Note_on_c, 6, 64, 0
8, 26460, Note_on_c, 6, 64, 51
8, 26480, Note_on_c, 6, 64, 0
8, 26480, Note_on_c, 6, 64, 51
8, 26500, Note_on_c, 6, 64, 0
8, 26500, Note_on_c, 6, 64, 51
8, 26520, Note_on_c, 6, 64, 0
8, 26520, Note_on_c, 6, 65, 51
8, 26540, Note_on_c, 6, 65, 0
8, 26540, Note_on_c, 6, 65, 51
8, 26560, Note_on_c, 6, 65, 0
8, 26560, Note_on_c, 6, 65, 51
8, 26580, Note_on_c, 6, 65, 0
8, 26580, Note_on_c, 6, 65, 51
8, 26600, Note_on_c, 6, 65, 0
8, 26600, Note_on_c, 6, 65, 51
8, 26620, Note_on_c, 6, 65, 0
8, 26620, Note_on_c, 6, 65, 51
8, 26640, Note_on_c, 6, 65, 0
8, 26640, Note_on_c, 6, 64, 51
8, 26730, Note_on_c, 6, 64, 0
8, 26730, Note_on_c, 6, 60, 51
8, 26760, Note_on_c, 6, 60, 0
8, 26760, Note_on_c, 6, 64, 51
8, 26812, Note_on_c, 6, 64, 0
8, 27000, Note_on_c, 6, 57, 38
8, 27120, Note_on_c, 6, 57, 0
8, 27120, Note_on_c, 6, 55, 38
8, 27240, Note_on_c, 6, 55, 0
8, 27240, Note_on_c, 6, 53, 38
8, 27360, Note_on_c, 6, 53, 0
8, 27360, Note_on_c, 6, 52, 38
8, 27480, Note_on_c, 6, 52, 0
8, 27720, Note_on_c, 6, 58, 38
8, 27840, Note_on_c, 6, 58, 0
8, 27840, Note_on_c, 6, 57, 38
8, 27960, Note_on_c, 6, 57, 0
8, 27960, Note_on_c, 6, 55, 38
8, 28080, Note_on_c, 6, 55, 0
8, 28080, Note_on_c, 6, 53, 38
8, 28200, Note_on_c, 6, 53, 0
8, 28440, Note_on_c, 6, 57, 48
8, 28560, Note_on_c, 6, 57, 0
8, 28560, Note_on_c, 6, 55, 48
8, 28800, Note_on_c, 6, 55, 0
8, 28800, Note_on_c, 6, 53, 48
8, 28980, Note_on_c, 6, 53, 0
8, 28980, Note_on_c, 6, 50, 48
8, 29040, Note_on_c, 6, 50, 0
8, 29040, Note_on_c, 6, 55, 48
8, 29100, Note_on_c, 6, 55, 0
8, 29100, Note_on_c, 6, 53, 48
8, 29160, Note_on_c, 6, 53, 0
8, 29160, Note_on_c, 6, 62, 48
8, 29280, Note_on_c, 6, 62, 0
8, 29280, Note_on_c, 6, 60, 48
8, 29520, Note_on_c, 6, 60, 0
8, 29520, Note_on_c, 6, 57, 48
8, 29640, Note_on_c, 6, 57, 0
8, 29640, Note_on_c, 6, 55, 48
8, 29880, Note_on_c, 6, 55, 0
8, 29880, Note_on_c, 6, 53, 48
8, 30059, Note_on_c, 6, 55, 48
8, 30060, Note_on_c, 6, 53, 0
8, 30178, Note_on_c, 6, 53, 48
8, 30179, Note_on_c, 6, 55, 0
8, 30298, Note_on_c, 6, 53, 0
8, 30299, Note_on_c, 6, 52, 49
8, 30418, Note_on_c, 6, 50, 51
8, 30419, Note_on_c, 6, 52, 0
8, 30538, Note_on_c, 6, 50, 0
8, 30539, Note_on_c, 6, 48, 53
8, 30656, Note_on_c, 6, 48, 0
8, 30659, Note_on_c, 6, 50, 56
8, 30716, Note_on_c, 6, 52, 57
8, 30719, Note_on_c, 6, 50, 0
8, 30776, Note_on_c, 6, 52, 0
8, 30778, Note_on_c, 6, 62, 59
8, 30832, Note_on_c, 6, 62, 0
8, 30837, Note_on_c, 6, 60, 60
8, 30891, Note_on_c, 6, 60, 0
8, 30899, Note_on_c, 6, 58, 61
8, 30953, Note_on_c, 6, 58, 0
8, 30960, Note_on_c, 6, 57, 45
8, 31080, Note_on_c, 6, 57, 0
8, 31560, Note_on_c, 6, 60, 44
8, 31740, Note_on_c, 6, 60, 0
8, 32280, Note_on_c, 6, 60, 44
8, 32400, Note_on_c, 6, 60, 0
8, 32400, Note_on_c, 6, 65, 44
8, 32460, Note_on_c, 6, 65, 0
8, 32520, Note_on_c, 6, 53, 59
8, 32580, Note_on_c, 6, 53, 0
8, 33000, Note_on_c, 6, 60, 48
8, 33180, Note_on_c, 6, 60, 0
8, 33240, Note_on_c, 6, 48, 56
8, 33240, Note_on_c, 6, 60, 56
8, 33280, Note_on_c, 6, 60, 0
8, 33280, Note_on_c, 6, 48, 0
8, 33465, Note_on_c, 6, 60, 55
8, 33540, Note_on_c, 6, 60, 0
8, 33600, Note_on_c, 6, 57, 56
8, 33640, Note_on_c, 6, 57, 0
8, 33840, Note_on_c, 6, 58, 51
8, 33870, Note_on_c, 6, 58, 0
8, 33870, Note_on_c, 6, 62, 51
8, 33900, Note_on_c, 6, 62, 0
8, 33900, Note_on_c, 6, 62, 51
8, 33930, Note_on_c, 6, 62, 0
8, 33930, Note_on_c, 6, 62, 51
8, 33960, Note_on_c, 6, 62, 0
8, 33960, Note_on_c, 6, 58, 51
8, 33990, Note_on_c, 6, 58, 0
8, 33990, Note_on_c, 6, 62, 51
8, 34020, Note_on_c, 6, 62, 0
8, 34020, Note_on_c, 6, 62, 51
8, 34050, Note_on_c, 6, 62, 0
8, 34050, Note_on_c, 6, 62, 51
8, 34080, Note_on_c, 6, 62, 0
8, 34080, Note_on_c, 6, 58, 51
8, 34110, Note_on_c, 6, 58, 0
8, 34110, Note_on_c, 6, 62, 51
8, 34140, Note_on_c, 6, 62, 0
8, 34140, Note_on_c, 6, 62, 51
8, 34170, Note_on_c, 6, 62, 0
8, 34170, Note_on_c, 6, 62, 51
8, 34200, Note_on_c, 6, 62, 0
8, 34200, Note_on_c, 6, 53, 51
8, 34230, Note_on_c, 6, 53, 0
8, 34230, Note_on_c, 6, 57, 51
8, 34260, Note_on_c, 6, 57, 0
8, 34260, Note_on_c, 6, 57, 51
8, 34285, Note_on_c, 6, 57, 0
8, 34290, Note_on_c, 6, 57, 51
8, 34315, Note_on_c, 6, 57, 0
8, 34320, Note_on_c, 6, 53, 51
8, 34350, Note_on_c, 6, 53, 0
8, 34350, Note_on_c, 6, 57, 51
8, 34380, Note_on_c, 6, 57, 0
8, 34380, Note_on_c, 6, 57, 51
8, 34405, Note_on_c, 6, 57, 0
8, 34410, Note_on_c, 6, 57, 51
8, 34435, Note_on_c, 6, 57, 0
8, 34440, Note_on_c, 6, 52, 51
8, 34470, Note_on_c, 6, 52, 0
8, 34470, Note_on_c, 6, 55, 51
8, 34500, Note_on_c, 6, 55, 0
8, 34500, Note_on_c, 6, 55, 51
8, 34525, Note_on_c, 6, 55, 0
8, 34530, Note_on_c, 6, 55, 51
8, 34555, Note_on_c, 6, 55, 0
8, 34560, Note_on_c, 6, 52, 43
8, 34590, Note_on_c, 6, 52, 0
8, 34590, Note_on_c, 6, 64, 43
8, 34620, Note_on_c, 6, 64, 0
8, 34620, Note_on_c, 6, 64, 43
8, 34645, Note_on_c, 6, 64, 0
8, 34650, Note_on_c, 6, 64, 43
8, 34675, Note_on_c, 6, 64, 0
8, 34680, Note_on_c, 6, 53, 43
8, 34710, Note_on_c, 6, 53, 0
8, 34710, Note_on_c, 6, 62, 43
8, 34740, Note_on_c, 6, 62, 0
8, 34740, Note_on_c, 6, 62, 43
8, 34765, Note_on_c, 6, 62, 0
8, 34770, Note_on_c, 6, 62, 43
8, 34795, Note_on_c, 6, 62, 0
8, 34800, Note_on_c, 6, 50, 43
8, 34830, Note_on_c, 6, 50, 0
8, 34830, Note_on_c, 6, 58, 43
8, 34860, Note_on_c, 6, 58, 0
8, 34860, Note_on_c, 6, 58, 43
8, 34885, Note_on_c, 6, 58, 0
8, 34890, Note_on_c, 6, 58, 43
8, 34915, Note_on_c, 6, 58, 0
8, 34920, Note_on_c, 6, 48, 43
8, 34950, Note_on_c, 6, 48, 0
8, 34950, Note_on_c, 6, 57, 42
8, 34980, Note_on_c, 6, 57, 0
8, 34980, Note_on_c, 6, 57, 41
8, 35005, Note_on_c, 6, 57, 0
8, 35010, Note_on_c, 6, 57, 41
8, 35035, Note_on_c, 6, 57, 0
8, 35040, Note_on_c, 6, 48, 40
8, 35070, Note_on_c, 6, 48, 0
8, 35070, Note_on_c, 6, 57, 39
8, 35100, Note_on_c, 6, 57, 0
8, 35100, Note_on_c, 6, 57, 39
8, 35125, Note_on_c, 6, 57, 0
8, 35130, Note_on_c, 6, 57, 39
8, 35155, Note_on_c, 6, 57, 0
8, 35160, Note_on_c, 6, 48, 38
8, 35190, Note_on_c, 6, 48, 0
8, 35190, Note_on_c, 6, 58, 38
8, 35220, Note_on_c, 6, 58, 0
8, 35220, Note_on_c, 6, 58, 37
8, 35245, Note_on_c, 6, 58, 0
8, 35250, Note_on_c, 6, 58, 37
8, 35275, Note_on_c, 6, 58, 0
8, 35280, Note_on_c, 6, 58, 27
8, 35340, Note_on_c, 6, 58, 0
8, 35520, Note_on_c, 6, 55, 38
8, 35640, Note_on_c, 6, 55, 0
8, 35640, Note_on_c, 6, 53, 38
8, 35700, Note_on_c, 6, 53, 0
8, 35880, Note_on_c, 6, 52, 47
8, 35970, Note_on_c, 6, 52, 0
8, 35970, Note_on_c, 6, 55, 47
8, 36000, Note_on_c, 6, 55, 0
8, 36000, Note_on_c, 6, 52, 44
8, 36120, Note_on_c, 6, 52, 0
8, 36120, Note_on_c, 6, 53, 44
8, 36180, Note_on_c, 6, 53, 0
8, 36180, End_track
9, 0, Start_track
9, 0, MIDI_port, 0
9, 0, Title_t, "Violoncelli"
9, 0, Program_c, 7, 48
9, 0, Control_c, 7, 7, 105
9, 0, Control_c, 7, 10, 105
9, 240, Note_on_c, 7, 53, 54
9, 360, Note_on_c, 7, 53, 0
9, 360, Note_on_c, 7, 55, 54
9, 420, Note_on_c, 7, 55, 0
9, 480, Note_on_c, 7, 48, 59
9, 520, Note_on_c, 7, 48, 0
9, 960, Note_on_c, 7, 58, 53
9, 1080, Note_on_c, 7, 58, 0
9, 1080, Note_on_c, 7, 57, 53
9, 1140, Note_on_c, 7, 57, 0
9, 1200, Note_on_c, 7, 45, 59
9, 1240, Note_on_c, 7, 45, 0
9, 1920, Note_on_c, 7, 49, 49
9, 2040, Note_on_c, 7, 49, 0
9, 2040, Note_on_c, 7, 50, 51
9, 2160, Note_on_c, 7, 50, 0
9, 2160, Note_on_c, 7, 46, 65
9, 2214, Note_on_c, 7, 46, 0
9, 2220, Note_on_c, 7, 46, 65
9, 2274, Note_on_c, 7, 46, 0
9, 2280, Note_on_c, 7, 46, 65
9, 2334, Note_on_c, 7, 46, 0
9, 2340, Note_on_c, 7, 46, 64
9, 2394, Note_on_c, 7, 46, 0
9, 2400, Note_on_c, 7, 46, 64
9, 2454, Note_on_c, 7, 46, 0
9, 2460, Note_on_c, 7, 46, 63
9, 2514, Note_on_c, 7, 46, 0
9, 2520, Note_on_c, 7, 48, 63
9, 2574, Note_on_c, 7, 48, 0
9, 2580, Note_on_c, 7, 48, 63
9, 2634, Note_on_c, 7, 48, 0
9, 2640, Note_on_c, 7, 48, 63
9, 2694, Note_on_c, 7, 48, 0
9, 2700, Note_on_c, 7, 48, 63
9, 2754, Note_on_c, 7, 48, 0
9, 2760, Note_on_c, 7, 48, 62
9, 2814, Note_on_c, 7, 48, 0
9, 2820, Note_on_c, 7, 48, 62
9, 2874, Note_on_c, 7, 48, 0
9, 2880, Note_on_c, 7, 49, 56
9, 2934, Note_on_c, 7, 49, 0
9, 2940, Note_on_c, 7, 49, 56
9, 2994, Note_on_c, 7, 49, 0
9, 3000, Note_on_c, 7, 50, 56
9, 3054, Note_on_c, 7, 50, 0
9, 3060, Note_on_c, 7, 50, 56
9, 3114, Note_on_c, 7, 50, 0
9, 3120, Note_on_c, 7, 46, 56
9, 3174, Note_on_c, 7, 46, 0
9, 3180, Note_on_c, 7, 46, 56
9, 3234, Note_on_c, 7, 46, 0
9, 3240, Note_on_c, 7, 48, 56
9, 3294, Note_on_c, 7, 48, 0
9, 3300, Note_on_c, 7, 48, 56
9, 3354, Note_on_c, 7, 48, 0
9, 3360, Note_on_c, 7, 48, 56
9, 3414, Note_on_c, 7, 48, 0
9, 3420, Note_on_c, 7, 48, 56
9, 3474, Note_on_c, 7, 48, 0
9, 3480, Note_on_c, 7, 48, 56
9, 3534, Note_on_c, 7, 48, 0
9, 3540, Note_on_c, 7, 48, 56
9, 3594, Note_on_c, 7, 48, 0
9, 3600, Note_on_c, 7, 53, 57
9, 3688, Note_on_c, 7, 53, 0
9, 3690, Note_on_c, 7, 48, 61
9, 3720, Note_on_c, 7, 48, 0
9, 3720, Note_on_c, 7, 57, 57
9, 3929, Note_on_c, 7, 57, 0
9, 3930, Note_on_c, 7, 55, 57
9, 3944, Note_on_c, 7, 55, 0
9, 3945, Note_on_c, 7, 53, 57
9, 3959, Note_on_c, 7, 53, 0
9, 3960, Note_on_c, 7, 52, 57
9, 4020, Note_on_c, 7, 52, 0
9, 4080, Note_on_c, 7, 58, 63
9, 4125, Note_on_c, 7, 58, 0
9, 4320, Note_on_c, 7, 55, 57
9, 4410, Note_on_c, 7, 55, 0
9, 4410, Note_on_c, 7, 48, 62
9, 4440, Note_on_c, 7, 48, 0
9, 4440, Note_on_c, 7, 58, 57
9, 4649, Note_on_c, 7, 58, 0
9, 4650, Note_on_c, 7, 57, 57
9, 4665, Note_on_c, 7, 57, 0
9, 4665, Note_on_c, 7, 55, 57
9, 4680, Note_on_c, 7, 55, 0
9, 4680, Note_on_c, 7, 53, 57
9, 4740, Note_on_c, 7, 53, 0
9, 4800, Note_on_c, 7, 63, 57
9, 4845, Note_on_c, 7, 63, 0
9, 5100, Note_on_c, 7, 62, 36
9, 5135, Note_on_c, 7, 62, 0
9, 5160, Note_on_c, 7, 62, 38
9, 5195, Note_on_c, 7, 62, 0
9, 5220, Note_on_c, 7, 62, 40
9, 5280, Note_on_c, 7, 62, 0
9, 5280, Note_on_c, 7, 61, 40
9, 5340, Note_on_c, 7, 61, 0
9, 5340, Note_on_c, 7, 60, 39
9, 5400, Note_on_c, 7, 60, 0
9, 5460, Note_on_c, 7, 59, 37
9, 5495, Note_on_c, 7, 59, 0
9, 5520, Note_on_c, 7, 59, 38
9, 5555, Note_on_c, 7, 59, 0
9, 5580, Note_on_c, 7, 59, 39
9, 5640, Note_on_c, 7, 59, 0
9, 5640, Note_on_c, 7, 58, 39
9, 5700, Note_on_c, 7, 58, 0
9, 5700, Note_on_c, 7, 57, 39
9, 5760, Note_on_c, 7, 57, 0
9, 5820, Note_on_c, 7, 55, 39
9, 5855, Note_on_c, 7, 55, 0
9, 5880, Note_on_c, 7, 55, 39
9, 5915, Note_on_c, 7, 55, 0
9, 5940, Note_on_c, 7, 55, 39
9, 5975, Note_on_c, 7, 55, 0
9, 6000, Note_on_c, 7, 52, 39
9, 6060, Note_on_c, 7, 52, 0
9, 6060, Note_on_c, 7, 53, 39
9, 6120, Note_on_c, 7, 53, 0
9, 6120, Note_on_c, 7, 48, 38
9, 6300, Note_on_c, 7, 48, 0
9, 6480, Note_on_c, 7, 36, 63
9, 6537, Note_on_c, 7, 48, 54
9, 6540, Note_on_c, 7, 36, 0
9, 6594, Note_on_c, 7, 48, 0
9, 6600, Note_on_c, 7, 48, 54
9, 6657, Note_on_c, 7, 48, 0
9, 6660, Note_on_c, 7, 48, 54
9, 6717, Note_on_c, 7, 48, 0
9, 6720, Note_on_c, 7, 48, 54
9, 6777, Note_on_c, 7, 48, 0
9, 6780, Note_on_c, 7, 48, 54
9, 6837, Note_on_c, 7, 48, 0
9, 6840, Note_on_c, 7, 48, 54
9, 6897, Note_on_c, 7, 48, 0
9, 6900, Note_on_c, 7, 48, 54
9, 6957, Note_on_c, 7, 48, 0
9, 6960, Note_on_c, 7, 48, 54
9, 7017, Note_on_c, 7, 48, 0
9, 7020, Note_on_c, 7, 48, 54
9, 7077, Note_on_c, 7, 48, 0
9, 7080, Note_on_c, 7, 48, 54
9, 7137, Note_on_c, 7, 48, 0
9, 7140, Note_on_c, 7, 48, 54
9, 7197, Note_on_c, 7, 48, 0
9, 7200, Note_on_c, 7, 36, 63
9, 7260, Note_on_c, 7, 36, 0
9, 7260, Note_on_c, 7, 48, 54
9, 7317, Note_on_c, 7, 48, 0
9, 7320, Note_on_c, 7, 48, 54
9, 7377, Note_on_c, 7, 48, 0
9, 7380, Note_on_c, 7, 48, 54
9, 7437, Note_on_c, 7, 48, 0
9, 7440, Note_on_c, 7, 48, 54
9, 7497, Note_on_c, 7, 48, 0
9, 7500, Note_on_c, 7, 48, 54
9, 7557, Note_on_c, 7, 48, 0
9, 7560, Note_on_c, 7, 48, 54
9, 7617, Note_on_c, 7, 48, 0
9, 7620, Note_on_c, 7, 48, 54
9, 7677, Note_on_c, 7, 48, 0
9, 7680, Note_on_c, 7, 48, 54
9, 7737, Note_on_c, 7, 48, 0
9, 7740, Note_on_c, 7, 48, 54
9, 7797, Note_on_c, 7, 48, 0
9, 7800, Note_on_c, 7, 48, 54
9, 7857, Note_on_c, 7, 48, 0
9, 7860, Note_on_c, 7, 48, 54
9, 7917, Note_on_c, 7, 48, 0
9, 7920, Note_on_c, 7, 39, 72
9, 7977, Note_on_c, 7, 39, 0
9, 7980, Note_on_c, 7, 51, 54
9, 8037, Note_on_c, 7, 51, 0
9, 8040, Note_on_c, 7, 51, 54
9, 8097, Note_on_c, 7, 51, 0
9, 8100, Note_on_c, 7, 51, 54
9, 8157, Note_on_c, 7, 51, 0
9, 8160, Note_on_c, 7, 41, 72
9, 8217, Note_on_c, 7, 41, 0
9, 8220, Note_on_c, 7, 53, 54
9, 8277, Note_on_c, 7, 53, 0
9, 8280, Note_on_c, 7, 53, 54
9, 8337, Note_on_c, 7, 53, 0
9, 8340, Note_on_c, 7, 53, 54
9, 8397, Note_on_c, 7, 53, 0
9, 8400, Note_on_c, 7, 43, 72
9, 8457, Note_on_c, 7, 43, 0
9, 8460, Note_on_c, 7, 55, 54
9, 8517, Note_on_c, 7, 55, 0
9, 8520, Note_on_c, 7, 55, 54
9, 8577, Note_on_c, 7, 55, 0
9, 8580, Note_on_c, 7, 55, 54
9, 8637, Note_on_c, 7, 55, 0
9, 8640, Note_on_c, 7, 44, 72
9, 8697, Note_on_c, 7, 44, 0
9, 8700, Note_on_c, 7, 56, 54
9, 8757, Note_on_c, 7, 56, 0
9, 8760, Note_on_c, 7, 56, 54
9, 8817, Note_on_c, 7, 56, 0
9, 8820, Note_on_c, 7, 56, 54
9, 8877, Note_on_c, 7, 56, 0
9, 8880, Note_on_c, 7, 45, 72
9, 8937, Note_on_c, 7, 45, 0
9, 8940, Note_on_c, 7, 57, 54
9, 8997, Note_on_c, 7, 57, 0
9, 9000, Note_on_c, 7, 57, 54
9, 9240, Note_on_c, 7, 57, 0
9, 9240, Note_on_c, 7, 56, 52
9, 9360, Note_on_c, 7, 56, 0
9, 9360, Note_on_c, 7, 55, 51
9, 9420, Note_on_c, 7, 55, 0
9, 9480, Note_on_c, 7, 43, 54
9, 9540, Note_on_c, 7, 43, 0
9, 9720, Note_on_c, 7, 52, 45
9, 9840, Note_on_c, 7, 52, 0
9, 9840, Note_on_c, 7, 50, 45
9, 9960, Note_on_c, 7, 50, 0
9, 9960, Note_on_c, 7, 48, 45
9, 10080, Note_on_c, 7, 48, 0
9, 10080, Note_on_c, 7, 47, 45
9, 10200, Note_on_c, 7, 47, 0
9, 10440, Note_on_c, 7, 53, 45
9, 10560, Note_on_c, 7, 53, 0
9, 10560, Note_on_c, 7, 52, 45
9, 10680, Note_on_c, 7, 52, 0
9, 10680, Note_on_c, 7, 50, 45
9, 10800, Note_on_c, 7, 50, 0
9, 10800, Note_on_c, 7, 48, 45
9, 10920, Note_on_c, 7, 48, 0
9, 11160, Note_on_c, 7, 57, 47
9, 11220, Note_on_c, 7, 57, 0
9, 11280, Note_on_c, 7, 62, 47
9, 11340, Note_on_c, 7, 62, 0
9, 11400, Note_on_c, 7, 55, 47
9, 11460, Note_on_c, 7, 55, 0
9, 11520, Note_on_c, 7, 60, 47
9, 11580, Note_on_c, 7, 60, 0
9, 11640, Note_on_c, 7, 53, 47
9, 11760, Note_on_c, 7, 53, 0
9, 11760, Note_on_c, 7, 55, 47
9, 11820, Note_on_c, 7, 55, 0
9, 11820, Note_on_c, 7, 57, 47
9, 11880, Note_on_c, 7, 57, 0
9, 11880, Note_on_c, 7, 53, 47
9, 11940, Note_on_c, 7, 53, 0
9, 12000, Note_on_c, 7, 55, 47
9, 12060, Note_on_c, 7, 55, 0
9, 12120, Note_on_c, 7, 43, 47
9, 12180, Note_on_c, 7, 43, 0
9, 12240, Note_on_c, 7, 57, 47
9, 12300, Note_on_c, 7, 57, 0
9, 12360, Note_on_c, 7, 62, 47
9, 12420, Note_on_c, 7, 62, 0
9, 12480, Note_on_c, 7, 55, 47
9, 12540, Note_on_c, 7, 55, 0
9, 12600, Note_on_c, 7, 60, 47
9, 12660, Note_on_c, 7, 60, 0
9, 12720, Note_on_c, 7, 53, 47
9, 12840, Note_on_c, 7, 53, 0
9, 12840, Note_on_c, 7, 55, 47
9, 12900, Note_on_c, 7, 55, 0
9, 12900, Note_on_c, 7, 57, 47
9, 12960, Note_on_c, 7, 57, 0
9, 12960, Note_on_c, 7, 50, 47
9, 13080, Note_on_c, 7, 50, 0
9, 13080, Note_on_c, 7, 52, 49
9, 13140, Note_on_c, 7, 52, 0
9, 13140, Note_on_c, 7, 53, 50
9, 13200, Note_on_c, 7, 53, 0
9, 13200, Note_on_c, 7, 46, 51
9, 13320, Note_on_c, 7, 46, 0
9, 13320, Note_on_c, 7, 48, 62
9, 13377, Note_on_c, 7, 48, 0
9, 13380, Note_on_c, 7, 50, 54
9, 13440, Note_on_c, 7, 50, 0
9, 13440, Note_on_c, 7, 52, 54
9, 13500, Note_on_c, 7, 52, 0
9, 13500, Note_on_c, 7, 53, 54
9, 13554, Note_on_c, 7, 53, 0
9, 13560, Note_on_c, 7, 55, 54
9, 13614, Note_on_c, 7, 55, 0
9, 13620, Note_on_c, 7, 43, 54
9, 13674, Note_on_c, 7, 43, 0
9, 13680, Note_on_c, 7, 48, 54
9, 13800, Note_on_c, 7, 48, 0
9, 14280, Note_on_c, 7, 55, 45
9, 14400, Note_on_c, 7, 55, 0
9, 14400, Note_on_c, 7, 60, 45
9, 14460, Note_on_c, 7, 60, 0
9, 15000, Note_on_c, 7, 55, 45
9, 15120, Note_on_c, 7, 55, 0
9, 15120, Note_on_c, 7, 48, 45
9, 15180, Note_on_c, 7, 48, 0
9, 15240, Note_on_c, 7, 60, 45
9, 15296, Note_on_c, 7, 60, 0
9, 15840, Note_on_c, 7, 45, 45
9, 16020, Note_on_c, 7, 45, 0
9, 16560, Note_on_c, 7, 34, 63
9, 16620, Note_on_c, 7, 34, 0
9, 16620, Note_on_c, 7, 50, 53
9, 16673, Note_on_c, 7, 50, 0
9, 16680, Note_on_c, 7, 50, 53
9, 16733, Note_on_c, 7, 50, 0
9, 16740, Note_on_c, 7, 50, 53
9, 16793, Note_on_c, 7, 50, 0
9, 16800, Note_on_c, 7, 50, 53
9, 16853, Note_on_c, 7, 50, 0
9, 16860, Note_on_c, 7, 50, 53
9, 16913, Note_on_c, 7, 50, 0
9, 16920, Note_on_c, 7, 50, 53
9, 16973, Note_on_c, 7, 50, 0
9, 16980, Note_on_c, 7, 50, 53
9, 17033, Note_on_c, 7, 50, 0
9, 17040, Note_on_c, 7, 50, 53
9, 17093, Note_on_c, 7, 50, 0
9, 17100, Note_on_c, 7, 50, 53
9, 17153, Note_on_c, 7, 50, 0
9, 17160, Note_on_c, 7, 50, 53
9, 17213, Note_on_c, 7, 50, 0
9, 17220, Note_on_c, 7, 50, 53
9, 17273, Note_on_c, 7, 50, 0
9, 17280, Note_on_c, 7, 37, 63
9, 17333, Note_on_c, 7, 37, 0
9, 17340, Note_on_c, 7, 49, 53
9, 17393, Note_on_c, 7, 49, 0
9, 17400, Note_on_c, 7, 49, 53
9, 17453, Note_on_c, 7, 49, 0
9, 17460, Note_on_c, 7, 49, 53
9, 17513, Note_on_c, 7, 49, 0
9, 17520, Note_on_c, 7, 49, 53
9, 17573, Note_on_c, 7, 49, 0
9, 17580, Note_on_c, 7, 49, 53
9, 17633, Note_on_c, 7, 49, 0
9, 17640, Note_on_c, 7, 48, 53
9, 17693, Note_on_c, 7, 48, 0
9, 17700, Note_on_c, 7, 48, 53
9, 17753, Note_on_c, 7, 48, 0
9, 17760, Note_on_c, 7, 48, 53
9, 17813, Note_on_c, 7, 48, 0
9, 17820, Note_on_c, 7, 48, 53
9, 17873, Note_on_c, 7, 48, 0
9, 17880, Note_on_c, 7, 48, 53
9, 17933, Note_on_c, 7, 48, 0
9, 17940, Note_on_c, 7, 48, 53
9, 17993, Note_on_c, 7, 48, 0
9, 18000, Note_on_c, 7, 46, 65
9, 18053, Note_on_c, 7, 46, 0
9, 18060, Note_on_c, 7, 58, 53
9, 18113, Note_on_c, 7, 58, 0
9, 18120, Note_on_c, 7, 58, 53
9, 18173, Note_on_c, 7, 58, 0
9, 18180, Note_on_c, 7, 58, 53
9, 18233, Note_on_c, 7, 58, 0
9, 18240, Note_on_c, 7, 46, 65
9, 18293, Note_on_c, 7, 46, 0
9, 18300, Note_on_c, 7, 58, 53
9, 18353, Note_on_c, 7, 58, 0
9, 18360, Note_on_c, 7, 58, 53
9, 18413, Note_on_c, 7, 58, 0
9, 18420, Note_on_c, 7, 58, 53
9, 18473, Note_on_c, 7, 58, 0
9, 18480, Note_on_c, 7, 41, 65
9, 18533, Note_on_c, 7, 41, 0
9, 18540, Note_on_c, 7, 53, 53
9, 18593, Note_on_c, 7, 53, 0
9, 18600, Note_on_c, 7, 53, 53
9, 18653, Note_on_c, 7, 53, 0
9, 18660, Note_on_c, 7, 53, 53
9, 18713, Note_on_c, 7, 53, 0
9, 18720, Note_on_c, 7, 36, 65
9, 18773, Note_on_c, 7, 36, 0
9, 18780, Note_on_c, 7, 48, 53
9, 18833, Note_on_c, 7, 48, 0
9, 18840, Note_on_c, 7, 48, 53
9, 18893, Note_on_c, 7, 48, 0
9, 18900, Note_on_c, 7, 48, 53
9, 18953, Note_on_c, 7, 48, 0
9, 18960, Note_on_c, 7, 43, 65
9, 19013, Note_on_c, 7, 43, 0
9, 19020, Note_on_c, 7, 55, 53
9, 19073, Note_on_c, 7, 55, 0
9, 19080, Note_on_c, 7, 55, 53
9, 19133, Note_on_c, 7, 55, 0
9, 19140, Note_on_c, 7, 55, 53
9, 19193, Note_on_c, 7, 55, 0
9, 19200, Note_on_c, 7, 50, 65
9, 19253, Note_on_c, 7, 50, 0
9, 19260, Note_on_c, 7, 62, 53
9, 19313, Note_on_c, 7, 62, 0
9, 19320, Note_on_c, 7, 62, 53
9, 19373, Note_on_c, 7, 62, 0
9, 19380, Note_on_c, 7, 62, 53
9, 19433, Note_on_c, 7, 62, 0
9, 19440, Note_on_c, 7, 43, 65
9, 19493, Note_on_c, 7, 43, 0
9, 19500, Note_on_c, 7, 55, 53
9, 19553, Note_on_c, 7, 55, 0
9, 19560, Note_on_c, 7, 55, 53
9, 19613, Note_on_c, 7, 55, 0
9, 19620, Note_on_c, 7, 55, 53
9, 19673, Note_on_c, 7, 55, 0
9, 19680, Note_on_c, 7, 56, 53
9, 19733, Note_on_c, 7, 56, 0
9, 19740, Note_on_c, 7, 56, 53
9, 19793, Note_on_c, 7, 56, 0
9, 19800, Note_on_c, 7, 57, 53
9, 19853, Note_on_c, 7, 57, 0
9, 19920, Note_on_c, 7, 46, 53
9, 20040, Note_on_c, 7, 46, 0
9, 20040, Note_on_c, 7, 45, 53
9, 20100, Note_on_c, 7, 45, 0
9, 20160, Note_on_c, 7, 58, 48
9, 20280, Note_on_c, 7, 58, 0
9, 20280, Note_on_c, 7, 57, 48
9, 20340, Note_on_c, 7, 57, 0
9, 20640, Note_on_c, 7, 52, 53
9, 20700, Note_on_c, 7, 52, 0
9, 20760, Note_on_c, 7, 57, 53
9, 20820, Note_on_c, 7, 57, 0
9, 20880, Note_on_c, 7, 50, 53
9, 20940, Note_on_c, 7, 50, 0
9, 21000, Note_on_c, 7, 55, 53
9, 21060, Note_on_c, 7, 55, 0
9, 21120, Note_on_c, 7, 48, 53
9, 21180, Note_on_c, 7, 48, 0
9, 21240, Note_on_c, 7, 53, 53
9, 21360, Note_on_c, 7, 53, 0
9, 21600, Note_on_c, 7, 46, 55
9, 21720, Note_on_c, 7, 46, 0
9, 21735, Note_on_c, 7, 54, 55
9, 21750, Note_on_c, 7, 54, 0
9, 21750, Note_on_c, 7, 55, 55
9, 21765, Note_on_c, 7, 55, 0
9, 21765, Note_on_c, 7, 54, 55
9, 21780, Note_on_c, 7, 54, 0
9, 21780, Note_on_c, 7, 55, 55
9, 21795, Note_on_c, 7, 55, 0
9, 21795, Note_on_c, 7, 57, 55
9, 21810, Note_on_c, 7, 57, 0
9, 21810, Note_on_c, 7, 58, 55
9, 21825, Note_on_c, 7, 58, 0
9, 21825, Note_on_c, 7, 57, 55
9, 21840, Note_on_c, 7, 57, 0
9, 21840, Note_on_c, 7, 58, 55
9, 21855, Note_on_c, 7, 58, 0
9, 21855, Note_on_c, 7, 61, 55
9, 21870, Note_on_c, 7, 61, 0
9, 21870, Note_on_c, 7, 62, 55
9, 21885, Note_on_c, 7, 62, 0
9, 21885, Note_on_c, 7, 57, 55
9, 21900, Note_on_c, 7, 57, 0
9, 21900, Note_on_c, 7, 60, 55
9, 21915, Note_on_c, 7, 60, 0
9, 21915, Note_on_c, 7, 58, 55
9, 21930, Note_on_c, 7, 58, 0
9, 21930, Note_on_c, 7, 57, 55
9, 21945, Note_on_c, 7, 57, 0
9, 21945, Note_on_c, 7, 55, 55
9, 21960, Note_on_c, 7, 55, 0
9, 21960, Note_on_c, 7, 53, 55
9, 22080, Note_on_c, 7, 53, 0
9, 22080, Note_on_c, 7, 52, 55
9, 22140, Note_on_c, 7, 52, 0
9, 22200, Note_on_c, 7, 48, 52
9, 22260, Note_on_c, 7, 48, 0
9, 22320, Note_on_c, 7, 51, 52
9, 22380, Note_on_c, 7, 51, 0
9, 22440, Note_on_c, 7, 48, 52
9, 22500, Note_on_c, 7, 48, 0
9, 22560, Note_on_c, 7, 45, 52
9, 22620, Note_on_c, 7, 45, 0
9, 22680, Note_on_c, 7, 58, 56
9, 22770, Note_on_c, 7, 58, 0
9, 22770, Note_on_c, 7, 53, 56
9, 22800, Note_on_c, 7, 53, 0
9, 22800, Note_on_c, 7, 62, 56
9, 23009, Note_on_c, 7, 62, 0
9, 23010, Note_on_c, 7, 60, 56
9, 23025, Note_on_c, 7, 60, 0
9, 23025, Note_on_c, 7, 58, 56
9, 23040, Note_on_c, 7, 58, 0
9, 23040, Note_on_c, 7, 57, 56
9, 23100, Note_on_c, 7, 57, 0
9, 23160, Note_on_c, 7, 63, 64
9, 23220, Note_on_c, 7, 63, 0
9, 23415, Note_on_c, 7, 59, 50
9, 23430, Note_on_c, 7, 59, 0
9, 23430, Note_on_c, 7, 60, 50
9, 23445, Note_on_c, 7, 60, 0
9, 23445, Note_on_c, 7, 59, 50
9, 23460, Note_on_c, 7, 59, 0
9, 23460, Note_on_c, 7, 60, 50
9, 23475, Note_on_c, 7, 60, 0
9, 23475, Note_on_c, 7, 62, 50
9, 23490, Note_on_c, 7, 62, 0
9, 23490, Note_on_c, 7, 63, 50
9, 23505, Note_on_c, 7, 63, 0
9, 23505, Note_on_c, 7, 62, 50
9, 23520, Note_on_c, 7, 62, 0
9, 23520, Note_on_c, 7, 63, 50
9, 23535, Note_on_c, 7, 63, 0
9, 23535, Note_on_c, 7, 66, 50
9, 23550, Note_on_c, 7, 66, 0
9, 23550, Note_on_c, 7, 67, 50
9, 23565, Note_on_c, 7, 67, 0
9, 23565, Note_on_c, 7, 62, 50
9, 23580, Note_on_c, 7, 62, 0
9, 23580, Note_on_c, 7, 65, 50
9, 23595, Note_on_c, 7, 65, 0
9, 23595, Note_on_c, 7, 63, 50
9, 23610, Note_on_c, 7, 63, 0
9, 23610, Note_on_c, 7, 62, 50
9, 23625, Note_on_c, 7, 62, 0
9, 23625, Note_on_c, 7, 60, 50
9, 23640, Note_on_c, 7, 60, 0
9, 23640, Note_on_c, 7, 58, 50
9, 23655, Note_on_c, 7, 58, 0
9, 23655, Note_on_c, 7, 57, 50
9, 23670, Note_on_c, 7, 57, 0
9, 23670, Note_on_c, 7, 60, 50
9, 23685, Note_on_c, 7, 60, 0
9, 23685, Note_on_c, 7, 58, 50
9, 23700, Note_on_c, 7, 58, 0
9, 23700, Note_on_c, 7, 57, 50
9, 23715, Note_on_c, 7, 57, 0
9, 23715, Note_on_c, 7, 55, 50
9, 23730, Note_on_c, 7, 55, 0
9, 23730, Note_on_c, 7, 53, 50
9, 23745, Note_on_c, 7, 53, 0
9, 23745, Note_on_c, 7, 51, 50
9, 23760, Note_on_c, 7, 51, 0
9, 23760, Note_on_c, 7, 50, 56
9, 23820, Note_on_c, 7, 50, 0
9, 24000, Note_on_c, 7, 60, 56
9, 24060, Note_on_c, 7, 60, 0
9, 24240, Note_on_c, 7, 58, 56
9, 24300, Note_on_c, 7, 58, 0
9, 24480, Note_on_c, 7, 46, 56
9, 24540, Note_on_c, 7, 46, 0
9, 24720, Note_on_c, 7, 57, 56
9, 24780, Note_on_c, 7, 57, 0
9, 24960, Note_on_c, 7, 50, 50
9, 25020, Note_on_c, 7, 50, 0
9, 25215, Note_on_c, 7, 48, 64
9, 25230, Note_on_c, 7, 48, 0
9, 25230, Note_on_c, 7, 50, 64
9, 25245, Note_on_c, 7, 50, 0
9, 25245, Note_on_c, 7, 52, 64
9, 25260, Note_on_c, 7, 52, 0
9, 25260, Note_on_c, 7, 53, 64
9, 25275, Note_on_c, 7, 53, 0
9, 25275, Note_on_c, 7, 55, 64
9, 25290, Note_on_c, 7, 55, 0
9, 25290, Note_on_c, 7, 57, 64
9, 25305, Note_on_c, 7, 57, 0
9, 25305, Note_on_c, 7, 59, 64
9, 25320, Note_on_c, 7, 59, 0
9, 25320, Note_on_c, 7, 60, 64
9, 25335, Note_on_c, 7, 60, 0
9, 25335, Note_on_c, 7, 64, 64
9, 25350, Note_on_c, 7, 64, 0
9, 25350, Note_on_c, 7, 62, 64
9, 25365, Note_on_c, 7, 62, 0
9, 25365, Note_on_c, 7, 60, 64
9, 25380, Note_on_c, 7, 60, 0
9, 25380, Note_on_c, 7, 59, 64
9, 25395, Note_on_c, 7, 59, 0
9, 25395, Note_on_c, 7, 57, 64
9, 25410, Note_on_c, 7, 57, 0
9, 25410, Note_on_c, 7, 55, 64
9, 25425, Note_on_c, 7, 55, 0
9, 25425, Note_on_c, 7, 54, 64
9, 25440, Note_on_c, 7, 54, 0
9, 25440, Note_on_c, 7, 55, 64
9, 25455, Note_on_c, 7, 55, 0
9, 25455, Note_on_c, 7, 57, 64
9, 25470, Note_on_c, 7, 57, 0
9, 25470, Note_on_c, 7, 55, 64
9, 25485, Note_on_c, 7, 55, 0
9, 25485, Note_on_c, 7, 53, 64
9, 25500, Note_on_c, 7, 53, 0
9, 25500, Note_on_c, 7, 52, 64
9, 25515, Note_on_c, 7, 52, 0
9, 25515, Note_on_c, 7, 50, 64
9, 25530, Note_on_c, 7, 50, 0
9, 25530, Note_on_c, 7, 48, 64
9, 25545, Note_on_c, 7, 48, 0
9, 25545, Note_on_c, 7, 47, 64
9, 25560, Note_on_c, 7, 47, 0
9, 25560, Note_on_c, 7, 48, 64
9, 25590, Note_on_c, 7, 48, 0
9, 25590, Note_on_c, 7, 50, 64
9, 25605, Note_on_c, 7, 50, 0
9, 25605, Note_on_c, 7, 52, 64
9, 25620, Note_on_c, 7, 52, 0
9, 25620, Note_on_c, 7, 53, 64
9, 25635, Note_on_c, 7, 53, 0
9, 25635, Note_on_c, 7, 55, 64
9, 25650, Note_on_c, 7, 55, 0
9, 25650, Note_on_c, 7, 57, 64
9, 25665, Note_on_c, 7, 57, 0
9, 25665, Note_on_c, 7, 59, 64
9, 25680, Note_on_c, 7, 59, 0
9, 25680, Note_on_c, 7, 60, 64
9, 25695, Note_on_c, 7, 60, 0
9, 25695, Note_on_c, 7, 64, 64
9, 25710, Note_on_c, 7, 64, 0
9, 25710, Note_on_c, 7, 62, 64
9, 25725, Note_on_c, 7, 62, 0
9, 25725, Note_on_c, 7, 60, 64
9, 25740, Note_on_c, 7, 60, 0
9, 25740, Note_on_c, 7, 59, 64
9, 25755, Note_on_c, 7, 59, 0
9, 25755, Note_on_c, 7, 57, 64
9, 25770, Note_on_c, 7, 57, 0
9, 25770, Note_on_c, 7, 55, 64
9, 25785, Note_on_c, 7, 55, 0
9, 25785, Note_on_c, 7, 54, 64
9, 25800, Note_on_c, 7, 54, 0
9, 25800, Note_on_c, 7, 55, 64
9, 25815, Note_on_c, 7, 55, 0
9, 25815, Note_on_c, 7, 57, 64
9, 25830, Note_on_c, 7, 57, 0
9, 25830, Note_on_c, 7, 55, 64
9, 25845, Note_on_c, 7, 55, 0
9, 25845, Note_on_c, 7, 53, 64
9, 25860, Note_on_c, 7, 53, 0
9, 25860, Note_on_c, 7, 52, 64
9, 25875, Note_on_c, 7, 52, 0
9, 25875, Note_on_c, 7, 50, 64
9, 25890, Note_on_c, 7, 50, 0
9, 25890, Note_on_c, 7, 48, 64
9, 25905, Note_on_c, 7, 48, 0
9, 25905, Note_on_c, 7, 47, 64
9, 25920, Note_on_c, 7, 47, 0
9, 25920, Note_on_c, 7, 48, 62
9, 25980, Note_on_c, 7, 48, 0
9, 25980, Note_on_c, 7, 60, 48
9, 26040, Note_on_c, 7, 60, 0
9, 26040, Note_on_c, 7, 60, 48
9, 26100, Note_on_c, 7, 60, 0
9, 26100, Note_on_c, 7, 60, 48
9, 26160, Note_on_c, 7, 60, 0
9, 26160, Note_on_c, 7, 60, 48
9, 26220, Note_on_c, 7, 60, 0
9, 26220, Note_on_c, 7, 60, 48
9, 26280, Note_on_c, 7, 60, 0
9, 26280, Note_on_c, 7, 48, 62
9, 26340, Note_on_c, 7, 48, 0
9, 26340, Note_on_c, 7, 60, 48
9, 26400, Note_on_c, 7, 60, 0
9, 26400, Note_on_c, 7, 60, 48
9, 26460, Note_on_c, 7, 60, 0
9, 26460, Note_on_c, 7, 60, 48
9, 26520, Note_on_c, 7, 60, 0
9, 26520, Note_on_c, 7, 60, 48
9, 26580, Note_on_c, 7, 60, 0
9, 26580, Note_on_c, 7, 60, 48
9, 26640, Note_on_c, 7, 60, 0
9, 26640, Note_on_c, 7, 60, 48
9, 26700, Note_on_c, 7, 60, 0
9, 26760, Note_on_c, 7, 48, 48
9, 26820, Note_on_c, 7, 48, 0
9, 27000, Note_on_c, 7, 57, 38
9, 27120, Note_on_c, 7, 57, 0
9, 27120, Note_on_c, 7, 55, 38
9, 27240, Note_on_c, 7, 55, 0
9, 27240, Note_on_c, 7, 53, 38
9, 27360, Note_on_c, 7, 53, 0
9, 27360, Note_on_c, 7, 52, 38
9, 27480, Note_on_c, 7, 52, 0
9, 27720, Note_on_c, 7, 58, 38
9, 27840, Note_on_c, 7, 58, 0
9, 27840, Note_on_c, 7, 57, 38
9, 27960, Note_on_c, 7, 57, 0
9, 27960, Note_on_c, 7, 55, 38
9, 28080, Note_on_c, 7, 55, 0
9, 28080, Note_on_c, 7, 53, 38
9, 28200, Note_on_c, 7, 53, 0
9, 28440, Note_on_c, 7, 50, 48
9, 28500, Note_on_c, 7, 50, 0
9, 28560, Note_on_c, 7, 55, 48
9, 28620, Note_on_c, 7, 55, 0
9, 28680, Note_on_c, 7, 48, 48
9, 28740, Note_on_c, 7, 48, 0
9, 28800, Note_on_c, 7, 53, 48
9, 28860, Note_on_c, 7, 53, 0
9, 28920, Note_on_c, 7, 46, 48
9, 29040, Note_on_c, 7, 46, 0
9, 29040, Note_on_c, 7, 48, 48
9, 29100, Note_on_c, 7, 48, 0
9, 29100, Note_on_c, 7, 50, 48
9, 29160, Note_on_c, 7, 50, 0
9, 29160, Note_on_c, 7, 46, 48
9, 29220, Note_on_c, 7, 46, 0
9, 29280, Note_on_c, 7, 48, 48
9, 29340, Note_on_c, 7, 48, 0
9, 29400, Note_on_c, 7, 60, 48
9, 29460, Note_on_c, 7, 60, 0
9, 29520, Note_on_c, 7, 62, 48
9, 29580, Note_on_c, 7, 62, 0
9, 29640, Note_on_c, 7, 55, 48
9, 29700, Note_on_c, 7, 55, 0
9, 29760, Note_on_c, 7, 60, 48
9, 29820, Note_on_c, 7, 60, 0
9, 29880, Note_on_c, 7, 53, 48
9, 29940, Note_on_c, 7, 53, 0
9, 30000, Note_on_c, 7, 58, 48
9, 30120, Note_on_c, 7, 58, 0
9, 30120, Note_on_c, 7, 60, 48
9, 30180, Note_on_c, 7, 60, 0
9, 30180, Note_on_c, 7, 62, 48
9, 30240, Note_on_c, 7, 62, 0
9, 30240, Note_on_c, 7, 55, 48
9, 30360, Note_on_c, 7, 55, 0
9, 30360, Note_on_c, 7, 57, 50
9, 30420, Note_on_c, 7, 57, 0
9, 30420, Note_on_c, 7, 58, 51
9, 30480, Note_on_c, 7, 58, 0
9, 30480, Note_on_c, 7, 51, 52
9, 30600, Note_on_c, 7, 51, 0
9, 30600, Note_on_c, 7, 50, 55
9, 30657, Note_on_c, 7, 50, 0
9, 30660, Note_on_c, 7, 55, 56
9, 30720, Note_on_c, 7, 55, 0
9, 30720, Note_on_c, 7, 57, 57
9, 30777, Note_on_c, 7, 57, 0
9, 30780, Note_on_c, 7, 58, 59
9, 30837, Note_on_c, 7, 58, 0
9, 30840, Note_on_c, 7, 60, 60
9, 30897, Note_on_c, 7, 60, 0
9, 30900, Note_on_c, 7, 48, 61
9, 30957, Note_on_c, 7, 48, 0
9, 30960, Note_on_c, 7, 53, 48
9, 31020, Note_on_c, 7, 53, 0
9, 31560, Note_on_c, 7, 60, 44
9, 31680, Note_on_c, 7, 60, 0
9, 31680, Note_on_c, 7, 65, 44
9, 31740, Note_on_c, 7, 65, 0
9, 32280, Note_on_c, 7, 48, 44
9, 32400, Note_on_c, 7, 48, 0
9, 32400, Note_on_c, 7, 53, 44
9, 32460, Note_on_c, 7, 53, 0
9, 32520, Note_on_c, 7, 41, 59
9, 32580, Note_on_c, 7, 41, 0
9, 33000, Note_on_c, 7, 53, 48
9, 33120, Note_on_c, 7, 53, 0
9, 33120, Note_on_c, 7, 55, 48
9, 33180, Note_on_c, 7, 55, 0
9, 33240, Note_on_c, 7, 43, 56
9, 33280, Note_on_c, 7, 43, 0
9, 33465, Note_on_c, 7, 55, 55
9, 33480, Note_on_c, 7, 55, 0
9, 33480, Note_on_c, 7, 57, 55
9, 33540, Note_on_c, 7, 57, 0
9, 33600, Note_on_c, 7, 45, 56
9, 33640, Note_on_c, 7, 45, 0
9, 33840, Note_on_c, 7, 46, 51
9, 33898, Note_on_c, 7, 46, 0
9, 33900, Note_on_c, 7, 46, 51
9, 33958, Note_on_c, 7, 46, 0
9, 33960, Note_on_c, 7, 46, 51
9, 34018, Note_on_c, 7, 46, 0
9, 34020, Note_on_c, 7, 46, 51
9, 34078, Note_on_c, 7, 46, 0
9, 34080, Note_on_c, 7, 46, 51
9, 34138, Note_on_c, 7, 46, 0
9, 34140, Note_on_c, 7, 46, 51
9, 34198, Note_on_c, 7, 46, 0
9, 34200, Note_on_c, 7, 48, 51
9, 34258, Note_on_c, 7, 48, 0
9, 34260, Note_on_c, 7, 48, 51
9, 34318, Note_on_c, 7, 48, 0
9, 34320, Note_on_c, 7, 48, 51
9, 34378, Note_on_c, 7, 48, 0
9, 34380, Note_on_c, 7, 48, 51
9, 34438, Note_on_c, 7, 48, 0
9, 34440, Note_on_c, 7, 48, 51
9, 34498, Note_on_c, 7, 48, 0
9, 34500, Note_on_c, 7, 48, 51
9, 34558, Note_on_c, 7, 48, 0
9, 34560, Note_on_c, 7, 49, 43
9, 34618, Note_on_c, 7, 49, 0
9, 34620, Note_on_c, 7, 49, 43
9, 34678, Note_on_c, 7, 49, 0
9, 34680, Note_on_c, 7, 50, 43
9, 34738, Note_on_c, 7, 50, 0
9, 34740, Note_on_c, 7, 50, 43
9, 34798, Note_on_c, 7, 50, 0
9, 34800, Note_on_c, 7, 46, 43
9, 34858, Note_on_c, 7, 46, 0
9, 34860, Note_on_c, 7, 46, 43
9, 34918, Note_on_c, 7, 46, 0
9, 34920, Note_on_c, 7, 48, 43
9, 34978, Note_on_c, 7, 48, 0
9, 34980, Note_on_c, 7, 48, 41
9, 35038, Note_on_c, 7, 48, 0
9, 35040, Note_on_c, 7, 48, 40
9, 35098, Note_on_c, 7, 48, 0
9, 35100, Note_on_c, 7, 48, 39
9, 35158, Note_on_c, 7, 48, 0
9, 35160, Note_on_c, 7, 48, 38
9, 35218, Note_on_c, 7, 48, 0
9, 35220, Note_on_c, 7, 48, 37
9, 35278, Note_on_c, 7, 48, 0
9, 35280, Note_on_c, 7, 41, 27
9, 35340, Note_on_c, 7, 41, 0
9, 35520, Note_on_c, 7, 48, 38
9, 35640, Note_on_c, 7, 48, 0
9, 35640, Note_on_c, 7, 53, 38
9, 35700, Note_on_c, 7, 53, 0
9, 35880, Note_on_c, 7, 48, 47
9, 36000, Note_on_c, 7, 48, 0
9, 36000, Note_on_c, 7, 41, 45
9, 36180, Note_on_c, 7, 41, 0
9, 36180, End_track
10, 0, Start_track
10, 0, MIDI_port, 0
10, 0, Title_t, "Contrabassi"
10, 0, Program_c, 8, 48
10, 0, Control_c, 8, 7, 105
10, 0, Control_c, 8, 10, 120
10, 240, Note_on_c, 8, 41, 54
10, 360, Note_on_c, 8, 41, 0
10, 360, Note_on_c, 8, 43, 53
10, 420, Note_on_c, 8, 43, 0
10, 480, Note_on_c, 8, 36, 59
10, 520, Note_on_c, 8, 36, 0
10, 960, Note_on_c, 8, 46, 53
10, 1080, Note_on_c, 8, 46, 0
10, 1080, Note_on_c, 8, 45, 53
10, 1140, Note_on_c, 8, 45, 0
10, 1200, Note_on_c, 8, 33, 59
10, 1240, Note_on_c, 8, 33, 0
10, 1920, Note_on_c, 8, 37, 49
10, 2040, Note_on_c, 8, 37, 0
10, 2040, Note_on_c, 8, 38, 51
10, 2160, Note_on_c, 8, 38, 0
10, 2160, Note_on_c, 8, 34, 65
10, 2214, Note_on_c, 8, 34, 0
10, 2220, Note_on_c, 8, 34, 65
10, 2274, Note_on_c, 8, 34, 0
10, 2280, Note_on_c, 8, 34, 65
10, 2334, Note_on_c, 8, 34, 0
10, 2340, Note_on_c, 8, 34, 64
10, 2394, Note_on_c, 8, 34, 0
10, 2400, Note_on_c, 8, 34, 64
10, 2454, Note_on_c, 8, 34, 0
10, 2460, Note_on_c, 8, 34, 63
10, 2514, Note_on_c, 8, 34, 0
10, 2520, Note_on_c, 8, 36, 63
10, 2574, Note_on_c, 8, 36, 0
10, 2580, Note_on_c, 8, 36, 63
10, 2634, Note_on_c, 8, 36, 0
10, 2640, Note_on_c, 8, 36, 63
10, 2694, Note_on_c, 8, 36, 0
10, 2700, Note_on_c, 8, 36, 63
10, 2754, Note_on_c, 8, 36, 0
10, 2760, Note_on_c, 8, 36, 62
10, 2814, Note_on_c, 8, 36, 0
10, 2820, Note_on_c, 8, 36, 62
10, 2874, Note_on_c, 8, 36, 0
10, 2880, Note_on_c, 8, 37, 56
10, 2934, Note_on_c, 8, 37, 0
10, 2940, Note_on_c, 8, 37, 56
10, 2994, Note_on_c, 8, 37, 0
10, 3000, Note_on_c, 8, 38, 56
10, 3054, Note_on_c, 8, 38, 0
10, 3060, Note_on_c, 8, 38, 56
10, 3114, Note_on_c, 8, 38, 0
10, 3120, Note_on_c, 8, 34, 56
10, 3174, Note_on_c, 8, 34, 0
10, 3180, Note_on_c, 8, 34, 56
10, 3234, Note_on_c, 8, 34, 0
10, 3240, Note_on_c, 8, 36, 56
10, 3294, Note_on_c, 8, 36, 0
10, 3300, Note_on_c, 8, 36, 56
10, 3354, Note_on_c, 8, 36, 0
10, 3360, Note_on_c, 8, 36, 56
10, 3414, Note_on_c, 8, 36, 0
10, 3420, Note_on_c, 8, 36, 56
10, 3474, Note_on_c, 8, 36, 0
10, 3480, Note_on_c, 8, 36, 56
10, 3534, Note_on_c, 8, 36, 0
10, 3540, Note_on_c, 8, 36, 56
10, 3594, Note_on_c, 8, 36, 0
10, 3600, Note_on_c, 8, 41, 57
10, 3688, Note_on_c, 8, 41, 0
10, 3690, Note_on_c, 8, 36, 61
10, 3720, Note_on_c, 8, 36, 0
10, 3720, Note_on_c, 8, 45, 57
10, 3929, Note_on_c, 8, 45, 0
10, 3930, Note_on_c, 8, 43, 57
10, 3944, Note_on_c, 8, 43, 0
10, 3945, Note_on_c, 8, 41, 57
10, 3959, Note_on_c, 8, 41, 0
10, 3960, Note_on_c, 8, 40, 57
10, 4020, Note_on_c, 8, 40, 0
10, 4080, Note_on_c, 8, 46, 63
10, 4125, Note_on_c, 8, 46, 0
10, 4320, Note_on_c, 8, 43, 57
10, 4410, Note_on_c, 8, 43, 0
10, 4410, Note_on_c, 8, 36, 61
10, 4440, Note_on_c, 8, 36, 0
10, 4440, Note_on_c, 8, 46, 57
10, 4649, Note_on_c, 8, 46, 0
10, 4650, Note_on_c, 8, 45, 57
10, 4665, Note_on_c, 8, 45, 0
10, 4665, Note_on_c, 8, 43, 57
10, 4680, Note_on_c, 8, 43, 0
10, 4680, Note_on_c, 8, 41, 57
10, 4740, Note_on_c, 8, 41, 0
10, 4800, Note_on_c, 8, 51, 57
10, 4845, Note_on_c, 8, 51, 0
10, 5100, Note_on_c, 8, 50, 38
10, 5135, Note_on_c, 8, 50, 0
10, 5160, Note_on_c, 8, 50, 40
10, 5195, Note_on_c, 8, 50, 0
10, 5220, Note_on_c, 8, 50, 40
10, 5280, Note_on_c, 8, 50, 0
10, 5280, Note_on_c, 8, 49, 40
10, 5340, Note_on_c, 8, 49, 0
10, 5340, Note_on_c, 8, 48, 39
10, 5400, Note_on_c, 8, 48, 0
10, 5460, Note_on_c, 8, 47, 39
10, 5495, Note_on_c, 8, 47, 0
10, 5520, Note_on_c, 8, 47, 39
10, 5555, Note_on_c, 8, 47, 0
10, 5580, Note_on_c, 8, 47, 39
10, 5640, Note_on_c, 8, 47, 0
10, 5640, Note_on_c, 8, 46, 39
10, 5700, Note_on_c, 8, 46, 0
10, 5700, Note_on_c, 8, 46, 39
10, 5760, Note_on_c, 8, 46, 0
10, 5820, Note_on_c, 8, 43, 39
10, 5855, Note_on_c, 8, 43, 0
10, 5880, Note_on_c, 8, 43, 39
10, 5915, Note_on_c, 8, 43, 0
10, 5940, Note_on_c, 8, 43, 39
10, 5975, Note_on_c, 8, 43, 0
10, 6000, Note_on_c, 8, 40, 39
10, 6060, Note_on_c, 8, 40, 0
10, 6060, Note_on_c, 8, 41, 39
10, 6120, Note_on_c, 8, 41, 0
10, 6120, Note_on_c, 8, 36, 38
10, 6300, Note_on_c, 8, 36, 0
10, 6480, Note_on_c, 8, 24, 63
10, 6540, Note_on_c, 8, 24, 0
10, 6540, Note_on_c, 8, 36, 54
10, 6597, Note_on_c, 8, 36, 0
10, 6600, Note_on_c, 8, 36, 54
10, 6657, Note_on_c, 8, 36, 0
10, 6660, Note_on_c, 8, 36, 54
10, 6717, Note_on_c, 8, 36, 0
10, 6720, Note_on_c, 8, 36, 54
10, 6777, Note_on_c, 8, 36, 0
10, 6780, Note_on_c, 8, 36, 54
10, 6837, Note_on_c, 8, 36, 0
10, 6840, Note_on_c, 8, 36, 54
10, 6897, Note_on_c, 8, 36, 0
10, 6900, Note_on_c, 8, 36, 54
10, 6957, Note_on_c, 8, 36, 0
10, 6960, Note_on_c, 8, 36, 54
10, 7017, Note_on_c, 8, 36, 0
10, 7020, Note_on_c, 8, 36, 54
10, 7077, Note_on_c, 8, 36, 0
10, 7080, Note_on_c, 8, 36, 54
10, 7137, Note_on_c, 8, 36, 0
10, 7140, Note_on_c, 8, 36, 54
10, 7197, Note_on_c, 8, 36, 0
10, 7200, Note_on_c, 8, 24, 63
10, 7260, Note_on_c, 8, 24, 0
10, 7260, Note_on_c, 8, 36, 54
10, 7317, Note_on_c, 8, 36, 0
10, 7320, Note_on_c, 8, 36, 54
10, 7377, Note_on_c, 8, 36, 0
10, 7380, Note_on_c, 8, 36, 54
10, 7437, Note_on_c, 8, 36, 0
10, 7440, Note_on_c, 8, 36, 54
10, 7497, Note_on_c, 8, 36, 0
10, 7500, Note_on_c, 8, 36, 54
10, 7557, Note_on_c, 8, 36, 0
10, 7560, Note_on_c, 8, 36, 54
10, 7617, Note_on_c, 8, 36, 0
10, 7620, Note_on_c, 8, 36, 54
10, 7677, Note_on_c, 8, 36, 0
10, 7680, Note_on_c, 8, 36, 54
10, 7737, Note_on_c, 8, 36, 0
10, 7740, Note_on_c, 8, 36, 54
10, 7797, Note_on_c, 8, 36, 0
10, 7800, Note_on_c, 8, 36, 54
10, 7857, Note_on_c, 8, 36, 0
10, 7860, Note_on_c, 8, 36, 54
10, 7917, Note_on_c, 8, 36, 0
10, 7920, Note_on_c, 8, 27, 72
10, 7977, Note_on_c, 8, 27, 0
10, 7980, Note_on_c, 8, 39, 54
10, 8037, Note_on_c, 8, 39, 0
10, 8040, Note_on_c, 8, 39, 54
10, 8097, Note_on_c, 8, 39, 0
10, 8100, Note_on_c, 8, 39, 54
10, 8157, Note_on_c, 8, 39, 0
10, 8160, Note_on_c, 8, 29, 72
10, 8217, Note_on_c, 8, 29, 0
10, 8220, Note_on_c, 8, 41, 54
10, 8277, Note_on_c, 8, 41, 0
10, 8280, Note_on_c, 8, 41, 54
10, 8337, Note_on_c, 8, 41, 0
10, 8340, Note_on_c, 8, 41, 54
10, 8397, Note_on_c, 8, 41, 0
10, 8400, Note_on_c, 8, 31, 72
10, 8457, Note_on_c, 8, 31, 0
10, 8460, Note_on_c, 8, 43, 54
10, 8517, Note_on_c, 8, 43, 0
10, 8520, Note_on_c, 8, 43, 54
10, 8577, Note_on_c, 8, 43, 0
10, 8580, Note_on_c, 8, 43, 54
10, 8637, Note_on_c, 8, 43, 0
10, 8640, Note_on_c, 8, 32, 72
10, 8697, Note_on_c, 8, 32, 0
10, 8700, Note_on_c, 8, 44, 54
10, 8757, Note_on_c, 8, 44, 0
10, 8760, Note_on_c, 8, 44, 54
10, 8817, Note_on_c, 8, 44, 0
10, 8820, Note_on_c, 8, 44, 54
10, 8877, Note_on_c, 8, 44, 0
10, 8880, Note_on_c, 8, 33, 72
10, 8937, Note_on_c, 8, 33, 0
10, 8940, Note_on_c, 8, 45, 54
10, 8997, Note_on_c, 8, 45, 0
10, 9000, Note_on_c, 8, 45, 54
10, 9240, Note_on_c, 8, 45, 0
10, 9240, Note_on_c, 8, 44, 52
10, 9360, Note_on_c, 8, 44, 0
10, 9360, Note_on_c, 8, 43, 51
10, 9420, Note_on_c, 8, 43, 0
10, 9480, Note_on_c, 8, 31, 54
10, 9540, Note_on_c, 8, 31, 0
10, 9720, Note_on_c, 8, 40, 45
10, 9840, Note_on_c, 8, 40, 0
10, 9840, Note_on_c, 8, 38, 45
10, 9960, Note_on_c, 8, 38, 0
10, 9960, Note_on_c, 8, 36, 45
10, 10080, Note_on_c, 8, 36, 0
10, 10080, Note_on_c, 8, 35, 45
10, 10200, Note_on_c, 8, 35, 0
10, 10440, Note_on_c, 8, 41, 45
10, 10560, Note_on_c, 8, 41, 0
10, 10560, Note_on_c, 8, 40, 45
10, 10680, Note_on_c, 8, 40, 0
10, 10680, Note_on_c, 8, 38, 45
10, 10800, Note_on_c, 8, 38, 0
10, 10800, Note_on_c, 8, 36, 45
10, 10920, Note_on_c, 8, 36, 0
10, 11160, Note_on_c, 8, 45, 47
10, 11220, Note_on_c, 8, 45, 0
10, 11280, Note_on_c, 8, 50, 47
10, 11340, Note_on_c, 8, 50, 0
10, 11400, Note_on_c, 8, 43, 47
10, 11460, Note_on_c, 8, 43, 0
10, 11520, Note_on_c, 8, 48, 47
10, 11580, Note_on_c, 8, 48, 0
10, 11640, Note_on_c, 8, 41, 47
10, 11760, Note_on_c, 8, 41, 0
10, 11760, Note_on_c, 8, 43, 47
10, 11820, Note_on_c, 8, 43, 0
10, 11820, Note_on_c, 8, 45, 47
10, 11880, Note_on_c, 8, 45, 0
10, 11880, Note_on_c, 8, 41, 47
10, 11940, Note_on_c, 8, 41, 0
10, 12000, Note_on_c, 8, 43, 47
10, 12060, Note_on_c, 8, 43, 0
10, 12120, Note_on_c, 8, 31, 47
10, 12180, Note_on_c, 8, 31, 0
10, 12240, Note_on_c, 8, 45, 47
10, 12300, Note_on_c, 8, 45, 0
10, 12360, Note_on_c, 8, 50, 47
10, 12420, Note_on_c, 8, 50, 0
10, 12480, Note_on_c, 8, 43, 47
10, 12540, Note_on_c, 8, 43, 0
10, 12600, Note_on_c, 8, 48, 47
10, 12660, Note_on_c, 8, 48, 0
10, 12720, Note_on_c, 8, 41, 47
10, 12840, Note_on_c, 8, 41, 0
10, 12840, Note_on_c, 8, 43, 47
10, 12900, Note_on_c, 8, 43, 0
10, 12900, Note_on_c, 8, 45, 47
10, 12960, Note_on_c, 8, 45, 0
10, 12960, Note_on_c, 8, 38, 47
10, 13080, Note_on_c, 8, 38, 0
10, 13080, Note_on_c, 8, 40, 49
10, 13140, Note_on_c, 8, 40, 0
10, 13140, Note_on_c, 8, 41, 50
10, 13200, Note_on_c, 8, 41, 0
10, 13200, Note_on_c, 8, 34, 51
10, 13320, Note_on_c, 8, 34, 0
10, 13320, Note_on_c, 8, 36, 62
10, 13377, Note_on_c, 8, 36, 0
10, 13380, Note_on_c, 8, 38, 54
10, 13440, Note_on_c, 8, 38, 0
10, 13440, Note_on_c, 8, 40, 54
10, 13500, Note_on_c, 8, 40, 0
10, 13500, Note_on_c, 8, 41, 54
10, 13554, Note_on_c, 8, 41, 0
10, 13560, Note_on_c, 8, 43, 54
10, 13614, Note_on_c, 8, 43, 0
10, 13620, Note_on_c, 8, 31, 54
10, 13674, Note_on_c, 8, 31, 0
10, 13680, Note_on_c, 8, 36, 54
10, 13800, Note_on_c, 8, 36, 0
10, 15000, Note_on_c, 8, 43, 45
10, 15120, Note_on_c, 8, 43, 0
10, 15120, Note_on_c, 8, 36, 45
10, 15180, Note_on_c, 8, 36, 0
10, 15240, Note_on_c, 8, 48, 45
10, 15296, Note_on_c, 8, 48, 0
10, 15840, Note_on_c, 8, 33, 45
10, 16020, Note_on_c, 8, 33, 0
10, 16560, Note_on_c, 8, 26, 63
10, 16620, Note_on_c, 8, 26, 0
10, 16620, Note_on_c, 8, 38, 53
10, 16673, Note_on_c, 8, 38, 0
10, 16680, Note_on_c, 8, 38, 53
10, 16733, Note_on_c, 8, 38, 0
10, 16740, Note_on_c, 8, 38, 53
10, 16793, Note_on_c, 8, 38, 0
10, 16800, Note_on_c, 8, 38, 53
10, 16853, Note_on_c, 8, 38, 0
10, 16860, Note_on_c, 8, 38, 53
10, 16913, Note_on_c, 8, 38, 0
10, 16920, Note_on_c, 8, 38, 53
10, 16973, Note_on_c, 8, 38, 0
10, 16980, Note_on_c, 8, 38, 53
10, 17033, Note_on_c, 8, 38, 0
10, 17040, Note_on_c, 8, 38, 53
10, 17093, Note_on_c, 8, 38, 0
10, 17100, Note_on_c, 8, 38, 53
10, 17153, Note_on_c, 8, 38, 0
10, 17160, Note_on_c, 8, 38, 53
10, 17213, Note_on_c, 8, 38, 0
10, 17220, Note_on_c, 8, 38, 53
10, 17273, Note_on_c, 8, 38, 0
10, 17280, Note_on_c, 8, 25, 63
10, 17333, Note_on_c, 8, 25, 0
10, 17340, Note_on_c, 8, 37, 53
10, 17393, Note_on_c, 8, 37, 0
10, 17400, Note_on_c, 8, 37, 53
10, 17453, Note_on_c, 8, 37, 0
10, 17460, Note_on_c, 8, 37, 53
10, 17513, Note_on_c, 8, 37, 0
10, 17520, Note_on_c, 8, 37, 53
10, 17573, Note_on_c, 8, 37, 0
10, 17580, Note_on_c, 8, 37, 53
10, 17633, Note_on_c, 8, 37, 0
10, 17640, Note_on_c, 8, 36, 53
10, 17693, Note_on_c, 8, 36, 0
10, 17700, Note_on_c, 8, 36, 53
10, 17753, Note_on_c, 8, 36, 0
10, 17760, Note_on_c, 8, 36, 53
10, 17813, Note_on_c, 8, 36, 0
10, 17820, Note_on_c, 8, 36, 53
10, 17873, Note_on_c, 8, 36, 0
10, 17880, Note_on_c, 8, 36, 53
10, 17933, Note_on_c, 8, 36, 0
10, 17940, Note_on_c, 8, 36, 53
10, 17993, Note_on_c, 8, 36, 0
10, 18000, Note_on_c, 8, 34, 65
10, 18053, Note_on_c, 8, 34, 0
10, 18060, Note_on_c, 8, 46, 53
10, 18113, Note_on_c, 8, 46, 0
10, 18120, Note_on_c, 8, 46, 53
10, 18173, Note_on_c, 8, 46, 0
10, 18180, Note_on_c, 8, 46, 53
10, 18233, Note_on_c, 8, 46, 0
10, 18240, Note_on_c, 8, 34, 65
10, 18293, Note_on_c, 8, 34, 0
10, 18300, Note_on_c, 8, 46, 53
10, 18353, Note_on_c, 8, 46, 0
10, 18360, Note_on_c, 8, 46, 53
10, 18413, Note_on_c, 8, 46, 0
10, 18420, Note_on_c, 8, 46, 53
10, 18473, Note_on_c, 8, 46, 0
10, 18480, Note_on_c, 8, 29, 65
10, 18533, Note_on_c, 8, 29, 0
10, 18540, Note_on_c, 8, 41, 53
10, 18593, Note_on_c, 8, 41, 0
10, 18600, Note_on_c, 8, 41, 53
10, 18653, Note_on_c, 8, 41, 0
10, 18660, Note_on_c, 8, 41, 53
10, 18713, Note_on_c, 8, 41, 0
10, 18720, Note_on_c, 8, 24, 65
10, 18773, Note_on_c, 8, 24, 0
10, 18780, Note_on_c, 8, 36, 53
10, 18833, Note_on_c, 8, 36, 0
10, 18840, Note_on_c, 8, 36, 53
10, 18893, Note_on_c, 8, 36, 0
10, 18900, Note_on_c, 8, 36, 53
10, 18953, Note_on_c, 8, 36, 0
10, 18960, Note_on_c, 8, 31, 65
10, 19013, Note_on_c, 8, 31, 0
10, 19020, Note_on_c, 8, 43, 53
10, 19073, Note_on_c, 8, 43, 0
10, 19080, Note_on_c, 8, 43, 53
10, 19133, Note_on_c, 8, 43, 0
10, 19140, Note_on_c, 8, 43, 53
10, 19193, Note_on_c, 8, 43, 0
10, 19200, Note_on_c, 8, 38, 65
10, 19253, Note_on_c, 8, 38, 0
10, 19260, Note_on_c, 8, 50, 53
10, 19313, Note_on_c, 8, 50, 0
10, 19320, Note_on_c, 8, 50, 53
10, 19373, Note_on_c, 8, 50, 0
10, 19380, Note_on_c, 8, 50, 53
10, 19433, Note_on_c, 8, 50, 0
10, 19440, Note_on_c, 8, 31, 65
10, 19493, Note_on_c, 8, 31, 0
10, 19500, Note_on_c, 8, 43, 53
10, 19553, Note_on_c, 8, 43, 0
10, 19560, Note_on_c, 8, 43, 53
10, 19613, Note_on_c, 8, 43, 0
10, 19620, Note_on_c, 8, 43, 53
10, 19673, Note_on_c, 8, 43, 0
10, 19680, Note_on_c, 8, 44, 53
10, 19733, Note_on_c, 8, 44, 0
10, 19740, Note_on_c, 8, 44, 53
10, 19793, Note_on_c, 8, 44, 0
10, 19800, Note_on_c, 8, 45, 53
10, 19853, Note_on_c, 8, 45, 0
10, 19920, Note_on_c, 8, 34, 53
10, 20040, Note_on_c, 8, 34, 0
10, 20040, Note_on_c, 8, 33, 53
10, 20100, Note_on_c, 8, 33, 0
10, 20160, Note_on_c, 8, 46, 51
10, 20280, Note_on_c, 8, 46, 0
10, 20280, Note_on_c, 8, 45, 51
10, 20340, Note_on_c, 8, 45, 0
10, 20640, Note_on_c, 8, 40, 53
10, 20700, Note_on_c, 8, 40, 0
10, 20760, Note_on_c, 8, 45, 53
10, 20820, Note_on_c, 8, 45, 0
10, 20880, Note_on_c, 8, 38, 53
10, 20940, Note_on_c, 8, 38, 0
10, 21000, Note_on_c, 8, 43, 53
10, 21060, Note_on_c, 8, 43, 0
10, 21120, Note_on_c, 8, 36, 53
10, 21180, Note_on_c, 8, 36, 0
10, 21240, Note_on_c, 8, 41, 53
10, 21360, Note_on_c, 8, 41, 0
10, 21600, Note_on_c, 8, 34, 55
10, 21720, Note_on_c, 8, 34, 0
10, 21735, Note_on_c, 8, 42, 55
10, 21750, Note_on_c, 8, 42, 0
10, 21750, Note_on_c, 8, 43, 55
10, 21765, Note_on_c, 8, 43, 0
10, 21765, Note_on_c, 8, 42, 55
10, 21780, Note_on_c, 8, 42, 0
10, 21780, Note_on_c, 8, 43, 55
10, 21795, Note_on_c, 8, 43, 0
10, 21795, Note_on_c, 8, 45, 55
10, 21810, Note_on_c, 8, 45, 0
10, 21810, Note_on_c, 8, 46, 55
10, 21825, Note_on_c, 8, 46, 0
10, 21825, Note_on_c, 8, 45, 55
10, 21840, Note_on_c, 8, 45, 0
10, 21840, Note_on_c, 8, 46, 55
10, 21855, Note_on_c, 8, 46, 0
10, 21855, Note_on_c, 8, 49, 55
10, 21870, Note_on_c, 8, 49, 0
10, 21870, Note_on_c, 8, 50, 55
10, 21885, Note_on_c, 8, 50, 0
10, 21885, Note_on_c, 8, 45, 55
10, 21900, Note_on_c, 8, 45, 0
10, 21900, Note_on_c, 8, 48, 55
10, 21915, Note_on_c, 8, 48, 0
10, 21915, Note_on_c, 8, 46, 55
10, 21930, Note_on_c, 8, 46, 0
10, 21930, Note_on_c, 8, 45, 55
10, 21945, Note_on_c, 8, 45, 0
10, 21945, Note_on_c, 8, 43, 55
10, 21960, Note_on_c, 8, 43, 0
10, 21960, Note_on_c, 8, 41, 55
10, 22080, Note_on_c, 8, 41, 0
10, 22080, Note_on_c, 8, 40, 55
10, 22140, Note_on_c, 8, 40, 0
10, 22200, Note_on_c, 8, 36, 52
10, 22260, Note_on_c, 8, 36, 0
10, 22320, Note_on_c, 8, 39, 52
10, 22380, Note_on_c, 8, 39, 0
10, 22440, Note_on_c, 8, 36, 52
10, 22500, Note_on_c, 8, 36, 0
10, 22560, Note_on_c, 8, 33, 52
10, 22620, Note_on_c, 8, 33, 0
10, 22680, Note_on_c, 8, 46, 56
10, 22770, Note_on_c, 8, 46, 0
10, 22770, Note_on_c, 8, 41, 56
10, 22800, Note_on_c, 8, 41, 0
10, 22800, Note_on_c, 8, 50, 56
10, 23009, Note_on_c, 8, 50, 0
10, 23010, Note_on_c, 8, 48, 56
10, 23025, Note_on_c, 8, 48, 0
10, 23025, Note_on_c, 8, 46, 56
10, 23040, Note_on_c, 8, 46, 0
10, 23040, Note_on_c, 8, 45, 56
10, 23100, Note_on_c, 8, 45, 0
10, 23160, Note_on_c, 8, 51, 64
10, 23220, Note_on_c, 8, 51, 0
10, 23415, Note_on_c, 8, 47, 50
10, 23430, Note_on_c, 8, 47, 0
10, 23430, Note_on_c, 8, 48, 50
10, 23445, Note_on_c, 8, 48, 0
10, 23445, Note_on_c, 8, 47, 50
10, 23460, Note_on_c, 8, 47, 0
10, 23460, Note_on_c, 8, 48, 50
10, 23475, Note_on_c, 8, 48, 0
10, 23475, Note_on_c, 8, 50, 50
10, 23490, Note_on_c, 8, 50, 0
10, 23490, Note_on_c, 8, 51, 50
10, 23505, Note_on_c, 8, 51, 0
10, 23505, Note_on_c, 8, 50, 50
10, 23520, Note_on_c, 8, 50, 0
10, 23520, Note_on_c, 8, 51, 50
10, 23535, Note_on_c, 8, 51, 0
10, 23535, Note_on_c, 8, 54, 50
10, 23550, Note_on_c, 8, 54, 0
10, 23550, Note_on_c, 8, 55, 50
10, 23565, Note_on_c, 8, 55, 0
10, 23565, Note_on_c, 8, 50, 50
10, 23580, Note_on_c, 8, 50, 0
10, 23580, Note_on_c, 8, 53, 50
10, 23595, Note_on_c, 8, 53, 0
10, 23595, Note_on_c, 8, 51, 50
10, 23610, Note_on_c, 8, 51, 0
10, 23610, Note_on_c, 8, 50, 50
10, 23625, Note_on_c, 8, 50, 0
10, 23625, Note_on_c, 8, 48, 50
10, 23640, Note_on_c, 8, 48, 0
10, 23640, Note_on_c, 8, 46, 50
10, 23655, Note_on_c, 8, 46, 0
10, 23655, Note_on_c, 8, 45, 50
10, 23670, Note_on_c, 8, 45, 0
10, 23670, Note_on_c, 8, 48, 50
10, 23685, Note_on_c, 8, 48, 0
10, 23685, Note_on_c, 8, 46, 50
10, 23700, Note_on_c, 8, 46, 0
10, 23700, Note_on_c, 8, 45, 50
10, 23715, Note_on_c, 8, 45, 0
10, 23715, Note_on_c, 8, 43, 50
10, 23730, Note_on_c, 8, 43, 0
10, 23730, Note_on_c, 8, 41, 50
10, 23745, Note_on_c, 8, 41, 0
10, 23745, Note_on_c, 8, 39, 50
10, 23760, Note_on_c, 8, 39, 0
10, 23760, Note_on_c, 8, 38, 56
10, 23820, Note_on_c, 8, 38, 0
10, 24000, Note_on_c, 8, 48, 56
10, 24060, Note_on_c, 8, 48, 0
10, 24240, Note_on_c, 8, 46, 56
10, 24300, Note_on_c, 8, 46, 0
10, 24480, Note_on_c, 8, 34, 56
10, 24540, Note_on_c, 8, 34, 0
10, 24720, Note_on_c, 8, 45, 56
10, 24780, Note_on_c, 8, 45, 0
10, 24960, Note_on_c, 8, 38, 50
10, 25020, Note_on_c, 8, 38, 0
10, 25215, Note_on_c, 8, 36, 64
10, 25230, Note_on_c, 8, 36, 0
10, 25230, Note_on_c, 8, 38, 64
10, 25245, Note_on_c, 8, 38, 0
10, 25245, Note_on_c, 8, 40, 64
10, 25260, Note_on_c, 8, 40, 0
10, 25260, Note_on_c, 8, 41, 64
10, 25275, Note_on_c, 8, 41, 0
10, 25275, Note_on_c, 8, 43, 64
10, 25290, Note_on_c, 8, 43, 0
10, 25290, Note_on_c, 8, 45, 64
10, 25305, Note_on_c, 8, 45, 0
10, 25305, Note_on_c, 8, 47, 64
10, 25320, Note_on_c, 8, 47, 0
10, 25320, Note_on_c, 8, 48, 64
10, 25335, Note_on_c, 8, 48, 0
10, 25335, Note_on_c, 8, 52, 64
10, 25350, Note_on_c, 8, 52, 0
10, 25350, Note_on_c, 8, 50, 64
10, 25365, Note_on_c, 8, 50, 0
10, 25365, Note_on_c, 8, 48, 64
10, 25380, Note_on_c, 8, 48, 0
10, 25380, Note_on_c, 8, 47, 64
10, 25395, Note_on_c, 8, 47, 0
10, 25395, Note_on_c, 8, 45, 64
10, 25410, Note_on_c, 8, 45, 0
10, 25410, Note_on_c, 8, 43, 64
10, 25425, Note_on_c, 8, 43, 0
10, 25425, Note_on_c, 8, 42, 64
10, 25440, Note_on_c, 8, 42, 0
10, 25440, Note_on_c, 8, 43, 64
10, 25455, Note_on_c, 8, 43, 0
10, 25455, Note_on_c, 8, 45, 64
10, 25470, Note_on_c, 8, 45, 0
10, 25470, Note_on_c, 8, 43, 64
10, 25485, Note_on_c, 8, 43, 0
10, 25485, Note_on_c, 8, 41, 64
10, 25500, Note_on_c, 8, 41, 0
10, 25500, Note_on_c, 8, 40, 64
10, 25515, Note_on_c, 8, 40, 0
10, 25515, Note_on_c, 8, 38, 64
10, 25530, Note_on_c, 8, 38, 0
10, 25530, Note_on_c, 8, 36, 64
10, 25545, Note_on_c, 8, 36, 0
10, 25545, Note_on_c, 8, 35, 64
10, 25560, Note_on_c, 8, 35, 0
10, 25560, Note_on_c, 8, 36, 64
10, 25590, Note_on_c, 8, 36, 0
10, 25590, Note_on_c, 8, 38, 64
10, 25605, Note_on_c, 8, 38, 0
10, 25605, Note_on_c, 8, 40, 64
10, 25620, Note_on_c, 8, 40, 0
10, 25620, Note_on_c, 8, 41, 64
10, 25635, Note_on_c, 8, 41, 0
10, 25635, Note_on_c, 8, 43, 64
10, 25650, Note_on_c, 8, 43, 0
10, 25650, Note_on_c, 8, 45, 64
10, 25665, Note_on_c, 8, 45, 0
10, 25665, Note_on_c, 8, 47, 64
10, 25680, Note_on_c, 8, 47, 0
10, 25680, Note_on_c, 8, 48, 64
10, 25695, Note_on_c, 8, 48, 0
10, 25695, Note_on_c, 8, 52, 64
10, 25710, Note_on_c, 8, 52, 0
10, 25710, Note_on_c, 8, 50, 64
10, 25725, Note_on_c, 8, 50, 0
10, 25725, Note_on_c, 8, 48, 64
10, 25740, Note_on_c, 8, 48, 0
10, 25740, Note_on_c, 8, 47, 64
10, 25755, Note_on_c, 8, 47, 0
10, 25755, Note_on_c, 8, 45, 64
10, 25770, Note_on_c, 8, 45, 0
10, 25770, Note_on_c, 8, 43, 64
10, 25785, Note_on_c, 8, 43, 0
10, 25785, Note_on_c, 8, 42, 64
10, 25800, Note_on_c, 8, 42, 0
10, 25800, Note_on_c, 8, 43, 64
10, 25815, Note_on_c, 8, 43, 0
10, 25815, Note_on_c, 8, 45, 64
10, 25830, Note_on_c, 8, 45, 0
10, 25830, Note_on_c, 8, 43, 64
10, 25845, Note_on_c, 8, 43, 0
10, 25845, Note_on_c, 8, 41, 64
10, 25860, Note_on_c, 8, 41, 0
10, 25860, Note_on_c, 8, 40, 64
10, 25875, Note_on_c, 8, 40, 0
10, 25875, Note_on_c, 8, 38, 64
10, 25890, Note_on_c, 8, 38, 0
10, 25890, Note_on_c, 8, 36, 64
10, 25905, Note_on_c, 8, 36, 0
10, 25905, Note_on_c, 8, 35, 64
10, 25920, Note_on_c, 8, 35, 0
10, 25920, Note_on_c, 8, 36, 62
10, 25980, Note_on_c, 8, 36, 0
10, 25980, Note_on_c, 8, 48, 48
10, 26040, Note_on_c, 8, 48, 0
10, 26040, Note_on_c, 8, 48, 48
10, 26100, Note_on_c, 8, 48, 0
10, 26100, Note_on_c, 8, 48, 48
10, 26160, Note_on_c, 8, 48, 0
10, 26160, Note_on_c, 8, 48, 48
10, 26220, Note_on_c, 8, 48, 0
10, 26220, Note_on_c, 8, 48, 48
10, 26280, Note_on_c, 8, 48, 0
10, 26280, Note_on_c, 8, 36, 62
10, 26340, Note_on_c, 8, 36, 0
10, 26340, Note_on_c, 8, 48, 48
10, 26400, Note_on_c, 8, 48, 0
10, 26400, Note_on_c, 8, 48, 48
10, 26460, Note_on_c, 8, 48, 0
10, 26460, Note_on_c, 8, 48, 48
10, 26520, Note_on_c, 8, 48, 0
10, 26520, Note_on_c, 8, 48, 48
10, 26580, Note_on_c, 8, 48, 0
10, 26580, Note_on_c, 8, 48, 48
10, 26640, Note_on_c, 8, 48, 0
10, 26640, Note_on_c, 8, 48, 48
10, 26700, Note_on_c, 8, 48, 0
10, 26760, Note_on_c, 8, 36, 48
10, 26820, Note_on_c, 8, 36, 0
10, 27000, Note_on_c, 8, 45, 38
10, 27120, Note_on_c, 8, 45, 0
10, 27120, Note_on_c, 8, 43, 38
10, 27240, Note_on_c, 8, 43, 0
10, 27240, Note_on_c, 8, 41, 38
10, 27360, Note_on_c, 8, 41, 0
10, 27360, Note_on_c, 8, 40, 38
10, 27480, Note_on_c, 8, 40, 0
10, 27720, Note_on_c, 8, 46, 38
10, 27840, Note_on_c, 8, 46, 0
10, 27840, Note_on_c, 8, 45, 38
10, 27960, Note_on_c, 8, 45, 0
10, 27960, Note_on_c, 8, 43, 38
10, 28080, Note_on_c, 8, 43, 0
10, 28080, Note_on_c, 8, 41, 38
10, 28200, Note_on_c, 8, 41, 0
10, 28440, Note_on_c, 8, 38, 48
10, 28500, Note_on_c, 8, 38, 0
10, 28560, Note_on_c, 8, 43, 48
10, 28620, Note_on_c, 8, 43, 0
10, 28680, Note_on_c, 8, 36, 48
10, 28740, Note_on_c, 8, 36, 0
10, 28800, Note_on_c, 8, 41, 48
10, 28860, Note_on_c, 8, 41, 0
10, 28920, Note_on_c, 8, 34, 48
10, 29040, Note_on_c, 8, 34, 0
10, 29040, Note_on_c, 8, 36, 48
10, 29100, Note_on_c, 8, 36, 0
10, 29100, Note_on_c, 8, 38, 48
10, 29160, Note_on_c, 8, 38, 0
10, 29160, Note_on_c, 8, 34, 48
10, 29220, Note_on_c, 8, 34, 0
10, 29280, Note_on_c, 8, 36, 48
10, 29340, Note_on_c, 8, 36, 0
10, 29400, Note_on_c, 8, 48, 48
10, 29460, Note_on_c, 8, 48, 0
10, 29520, Note_on_c, 8, 50, 48
10, 29580, Note_on_c, 8, 50, 0
10, 29640, Note_on_c, 8, 43, 48
10, 29700, Note_on_c, 8, 43, 0
10, 29760, Note_on_c, 8, 48, 48
10, 29820, Note_on_c, 8, 48, 0
10, 29880, Note_on_c, 8, 41, 48
10, 29940, Note_on_c, 8, 41, 0
10, 30000, Note_on_c, 8, 34, 48
10, 30120, Note_on_c, 8, 34, 0
10, 30120, Note_on_c, 8, 36, 48
10, 30180, Note_on_c, 8, 36, 0
10, 30180, Note_on_c, 8, 38, 48
10, 30240, Note_on_c, 8, 38, 0
10, 30240, Note_on_c, 8, 43, 48
10, 30360, Note_on_c, 8, 43, 0
10, 30360, Note_on_c, 8, 45, 50
10, 30420, Note_on_c, 8, 45, 0
10, 30420, Note_on_c, 8, 46, 51
10, 30480, Note_on_c, 8, 46, 0
10, 30480, Note_on_c, 8, 39, 52
10, 30600, Note_on_c, 8, 39, 0
10, 30600, Note_on_c, 8, 38, 55
10, 30657, Note_on_c, 8, 38, 0
10, 30660, Note_on_c, 8, 43, 56
10, 30720, Note_on_c, 8, 43, 0
10, 30720, Note_on_c, 8, 45, 57
10, 30777, Note_on_c, 8, 45, 0
10, 30780, Note_on_c, 8, 46, 59
10, 30837, Note_on_c, 8, 46, 0
10, 30840, Note_on_c, 8, 48, 60
10, 30897, Note_on_c, 8, 48, 0
10, 30900, Note_on_c, 8, 36, 61
10, 30957, Note_on_c, 8, 36, 0
10, 30960, Note_on_c, 8, 41, 48
10, 31020, Note_on_c, 8, 41, 0
10, 31560, Note_on_c, 8, 48, 44
10, 31680, Note_on_c, 8, 48, 0
10, 31680, Note_on_c, 8, 53, 44
10, 31740, Note_on_c, 8, 53, 0
10, 32280, Note_on_c, 8, 36, 44
10, 32400, Note_on_c, 8, 36, 0
10, 32400, Note_on_c, 8, 41, 44
10, 32460, Note_on_c, 8, 41, 0
10, 32520, Note_on_c, 8, 29, 59
10, 32580, Note_on_c, 8, 29, 0
10, 33000, Note_on_c, 8, 41, 48
10, 33120, Note_on_c, 8, 41, 0
10, 33120, Note_on_c, 8, 43, 48
10, 33180, Note_on_c, 8, 43, 0
10, 33240, Note_on_c, 8, 31, 56
10, 33280, Note_on_c, 8, 31, 0
10, 33465, Note_on_c, 8, 43, 55
10, 33480, Note_on_c, 8, 43, 0
10, 33480, Note_on_c, 8, 45, 55
10, 33540, Note_on_c, 8, 45, 0
10, 33600, Note_on_c, 8, 33, 56
10, 33640, Note_on_c, 8, 33, 0
10, 33840, Note_on_c, 8, 34, 51
10, 33898, Note_on_c, 8, 34, 0
10, 33900, Note_on_c, 8, 34, 51
10, 33958, Note_on_c, 8, 34, 0
10, 33960, Note_on_c, 8, 34, 51
10, 34018, Note_on_c, 8, 34, 0
10, 34020, Note_on_c, 8, 34, 51
10, 34078, Note_on_c, 8, 34, 0
10, 34080, Note_on_c, 8, 34, 51
10, 34138, Note_on_c, 8, 34, 0
10, 34140, Note_on_c, 8, 34, 51
10, 34198, Note_on_c, 8, 34, 0
10, 34200, Note_on_c, 8, 36, 51
10, 34258, Note_on_c, 8, 36, 0
10, 34260, Note_on_c, 8, 36, 51
10, 34318, Note_on_c, 8, 36, 0
10, 34320, Note_on_c, 8, 36, 51
10, 34378, Note_on_c, 8, 36, 0
10, 34380, Note_on_c, 8, 36, 51
10, 34438, Note_on_c, 8, 36, 0
10, 34440, Note_on_c, 8, 36, 51
10, 34498, Note_on_c, 8, 36, 0
10, 34500, Note_on_c, 8, 36, 51
10, 34558, Note_on_c, 8, 36, 0
10, 34560, Note_on_c, 8, 37, 43
10, 34618, Note_on_c, 8, 37, 0
10, 34620, Note_on_c, 8, 37, 43
10, 34678, Note_on_c, 8, 37, 0
10, 34680, Note_on_c, 8, 38, 43
10, 34738, Note_on_c, 8, 38, 0
10, 34740, Note_on_c, 8, 38, 43
10, 34798, Note_on_c, 8, 38, 0
10, 34800, Note_on_c, 8, 34, 43
10, 34858, Note_on_c, 8, 34, 0
10, 34860, Note_on_c, 8, 34, 43
10, 34918, Note_on_c, 8, 34, 0
10, 34920, Note_on_c, 8, 36, 43
10, 34978, Note_on_c, 8, 36, 0
10, 34980, Note_on_c, 8, 36, 41
10, 35038, Note_on_c, 8, 36, 0
10, 35040, Note_on_c, 8, 36, 40
10, 35098, Note_on_c, 8, 36, 0
10, 35100, Note_on_c, 8, 36, 39
10, 35158, Note_on_c, 8, 36, 0
10, 35160, Note_on_c, 8, 36, 38
10, 35218, Note_on_c, 8, 36, 0
10, 35220, Note_on_c, 8, 36, 37
10, 35278, Note_on_c, 8, 36, 0
10, 35280, Note_on_c, 8, 29, 27
10, 35340, Note_on_c, 8, 29, 0
10, 35520, Note_on_c, 8, 36, 38
10, 35640, Note_on_c, 8, 36, 0
10, 35640, Note_on_c, 8, 41, 38
10, 35700, Note_on_c, 8, 41, 0
10, 35880, Note_on_c, 8, 36, 47
10, 36000, Note_on_c, 8, 36, 0
10, 36000, Note_on_c, 8, 29, 45
10, 36180, Note_on_c, 8, 29, 0
10, 36180, End_track
0, 0, End_of_file