0, 0, Header, 1, 6, 480
1, 0, Start_track
1, 0, Title_t, "Untitled"
1, 0, SMPTE_offset, 96, 0, 0, 0, 0
1, 0, Tempo, 500000
1, 0, Time_signature, 4, 2, 24, 8
1, 0, Key_signature, -2, "major"
1, 0, Marker_t, "Mozart"
1, 960, Tempo, 416666
1, 1280, Tempo, 410958
1, 1920, Tempo, 413793
1, 1920, Marker_t, "Piano Sonata  No.3,   Rev"
1, 1980, Tempo, 408163
1, 2820, Tempo, 413793
1, 2880, Tempo, 408163
1, 3780, Tempo, 413793
1, 3840, Tempo, 408163
1, 3840, Marker_t, "Bunji Hisamori"
1, 4260, Tempo, 410958
1, 4630, Tempo, 413793
1, 5760, Tempo, 413793
1, 5760, Marker_t, "Feb. 2000"
1, 6600, Tempo, 425531
1, 6720, Tempo, 413793
1, 7620, Tempo, 416666
1, 8040, Tempo, 419580
1, 9600, Tempo, 419580
1, 9660, Tempo, 413793
1, 10500, Tempo, 419580
1, 10560, Tempo, 413793
1, 11460, Tempo, 419580
1, 11520, Tempo, 413793
1, 11940, Tempo, 416666
1, 12320, Tempo, 425531
1, 13320, Tempo, 408163
1, 14340, Tempo, 410958
1, 14400, Tempo, 408163
1, 14820, Tempo, 410958
1, 15240, Tempo, 413793
1, 23040, Tempo, 416666
1, 23100, Tempo, 413793
1, 24960, Tempo, 416666
1, 25020, Tempo, 413793
1, 26880, Tempo, 416666
1, 26940, Tempo, 413793
1, 28740, Tempo, 416666
1, 28800, Tempo, 413793
1, 30660, Tempo, 416666
1, 30720, Tempo, 413793
1, 31620, Tempo, 416666
1, 31680, Tempo, 413793
1, 32520, Tempo, 419580
1, 32640, Tempo, 447761
1, 33360, Tempo, 419580
1, 34500, Tempo, 425531
1, 34560, Tempo, 419580
1, 37140, Tempo, 425531
1, 37200, Tempo, 419580
1, 38340, Tempo, 425531
1, 38400, Tempo, 419580
1, 40980, Tempo, 425531
1, 41040, Tempo, 419580
1, 42120, Tempo, 425531
1, 42240, Tempo, 408163
1, 44100, Tempo, 413793
1, 44160, Tempo, 408163
1, 46020, Tempo, 413793
1, 46080, Tempo, 408163
1, 47940, Tempo, 413793
1, 48000, Tempo, 408163
1, 49860, Tempo, 413793
1, 49920, Tempo, 408163
1, 51780, Tempo, 413793
1, 51840, Tempo, 408163
1, 57540, Tempo, 413793
1, 57600, Tempo, 408163
1, 59460, Tempo, 413793
1, 59520, Tempo, 408163
1, 65220, Tempo, 413793
1, 65280, Tempo, 408163
1, 67080, Tempo, 413793
1, 69000, Tempo, 419580
1, 69120, Tempo, 408163
1, 70920, Tempo, 413793
1, 72840, Tempo, 419580
1, 72960, Tempo, 408163
1, 76680, Tempo, 428571
1, 76800, Tempo, 441176
1, 77760, Tempo, 500000
1, 78720, Tempo, 413793
1, 86220, Tempo, 425531
1, 86280, Tempo, 500000
1, 86400, Tempo, 419580
1, 86460, Tempo, 413793
1, 87300, Tempo, 419580
1, 87360, Tempo, 413793
1, 88260, Tempo, 419580
1, 88320, Tempo, 413793
1, 88740, Tempo, 416666
1, 89120, Tempo, 419580
1, 90120, Tempo, 408163
1, 91140, Tempo, 410958
1, 91200, Tempo, 408163
1, 91620, Tempo, 410958
1, 92040, Tempo, 413793
1, 94020, Tempo, 419580
1, 94080, Tempo, 413793
1, 95880, Tempo, 419580
1, 96000, Tempo, 413793
1, 97860, Tempo, 419580
1, 97920, Tempo, 413793
1, 99720, Tempo, 419580
1, 99840, Tempo, 413793
1, 101640, Tempo, 419580
1, 103620, Tempo, 425531
1, 103680, Tempo, 419580
1, 104220, Tempo, 425531
1, 105120, Tempo, 500000
1, 105600, Tempo, 408163
1, 109380, Tempo, 413793
1, 109440, Tempo, 408163
1, 113220, Tempo, 413793
1, 113280, Tempo, 408163
1, 117060, Tempo, 413793
1, 120900, Tempo, 425531
1, 120960, Tempo, 408163
1, 122820, Tempo, 413793
1, 124740, Tempo, 425531
1, 124800, Tempo, 408163
1, 126660, Tempo, 413793
1, 126720, Tempo, 408163
1, 128580, Tempo, 413793
1, 130500, Tempo, 419580
1, 130560, Tempo, 408163
1, 131450, Tempo, 413793
1, 132420, Tempo, 419580
1, 132480, Tempo, 454545
1, 133140, Tempo, 419580
1, 133200, Tempo, 413793
1, 134220, Tempo, 419580
1, 134280, Tempo, 434782
1, 134400, Tempo, 413793
1, 134460, Tempo, 408163
1, 135300, Tempo, 413793
1, 135360, Tempo, 408163
1, 136260, Tempo, 413793
1, 136320, Tempo, 408163
1, 136740, Tempo, 410958
1, 137110, Tempo, 413793
1, 138240, Tempo, 413793
1, 139080, Tempo, 419580
1, 139200, Tempo, 413793
1, 140100, Tempo, 416666
1, 140520, Tempo, 419580
1, 142080, Tempo, 419580
1, 142140, Tempo, 413793
1, 142980, Tempo, 419580
1, 143040, Tempo, 413793
1, 143940, Tempo, 419580
1, 144000, Tempo, 413793
1, 144420, Tempo, 416666
1, 144790, Tempo, 425531
1, 145800, Tempo, 408163
1, 146820, Tempo, 410958
1, 146880, Tempo, 408163
1, 147300, Tempo, 410958
1, 147720, Tempo, 413793
1, 155520, Tempo, 416666
1, 155580, Tempo, 413793
1, 157440, Tempo, 416666
1, 157500, Tempo, 413793
1, 159360, Tempo, 416666
1, 159420, Tempo, 413793
1, 161220, Tempo, 416666
1, 161280, Tempo, 413793
1, 163140, Tempo, 416666
1, 163200, Tempo, 413793
1, 164100, Tempo, 416666
1, 164160, Tempo, 413793
1, 165000, Tempo, 419580
1, 165120, Tempo, 454545
1, 165840, Tempo, 419580
1, 166980, Tempo, 425531
1, 167040, Tempo, 419580
1, 169620, Tempo, 425531
1, 169680, Tempo, 419580
1, 170820, Tempo, 425531
1, 170880, Tempo, 419580
1, 173460, Tempo, 425531
1, 173520, Tempo, 419580
1, 174600, Tempo, 425531
1, 174720, Tempo, 408163
1, 176580, Tempo, 413793
1, 176640, Tempo, 408163
1, 178500, Tempo, 413793
1, 178560, Tempo, 408163
1, 180420, Tempo, 413793
1, 180480, Tempo, 408163
1, 182340, Tempo, 413793
1, 182400, Tempo, 408163
1, 184260, Tempo, 413793
1, 184320, Tempo, 408163
1, 190020, Tempo, 413793
1, 190080, Tempo, 408163
1, 191940, Tempo, 413793
1, 192000, Tempo, 408163
1, 197700, Tempo, 413793
1, 197760, Tempo, 408163
1, 199560, Tempo, 413793
1, 201480, Tempo, 419580
1, 201600, Tempo, 408163
1, 203400, Tempo, 413793
1, 205320, Tempo, 419580
1, 205440, Tempo, 408163
1, 209160, Tempo, 434782
1, 209280, Tempo, 461538
1, 210240, Tempo, 500000
1, 211200, Tempo, 1500000
1, 211200, Time_signature, 3, 3, 24, 8
1, 211200, Marker_t, "(2)"
1, 211680, Tempo, 1016949
1, 211740, Tempo, 1052631
1, 211800, Tempo, 1090909
1, 211920, Tempo, 1071428
1, 211980, Tempo, 1034482
1, 214020, Tempo, 1071428
1, 214080, Tempo, 1034482
1, 215460, Tempo, 1071428
1, 215520, Tempo, 1034482
1, 216660, Tempo, 1052631
1, 216900, Tempo, 1071428
1, 216960, Tempo, 1034482
1, 217620, Tempo, 1071428
1, 217680, Tempo, 1034482
1, 218340, Tempo, 1071428
1, 218400, Tempo, 1034482
1, 219060, Tempo, 1071428
1, 219120, Tempo, 1034482
1, 219780, Tempo, 1071428
1, 219840, Tempo, 1034482
1, 221220, Tempo, 1071428
1, 221950, Tempo, 1111111
1, 222250, Tempo, 1132075
1, 222720, Tempo, 1034482
1, 224100, Tempo, 1071428
1, 224160, Tempo, 1034482
1, 225540, Tempo, 1071428
1, 225600, Tempo, 1034482
1, 226980, Tempo, 1071428
1, 227040, Tempo, 1034482
1, 228420, Tempo, 1071428
1, 228480, Tempo, 1034482
1, 229860, Tempo, 1071428
1, 230520, Tempo, 1111111
1, 230640, Tempo, 1034482
1, 231300, Tempo, 1071428
1, 231405, Tempo, 1034482
1, 232740, Tempo, 1071428
1, 232860, Tempo, 1034482
1, 234180, Tempo, 1071428
1, 234240, Tempo, 1034482
1, 235620, Tempo, 1071428
1, 235680, Tempo, 1052631
1, 236340, Tempo, 1071428
1, 236400, Tempo, 1052631
1, 237060, Tempo, 1071428
1, 237120, Tempo, 1034482
1, 238500, Tempo, 1071428
1, 238560, Tempo, 1052631
1, 239220, Tempo, 1071428
1, 239280, Tempo, 1034482
1, 239940, Tempo, 1071428
1, 240000, Tempo, 1052631
1, 240660, Tempo, 1071428
1, 240720, Tempo, 1034482
1, 241380, Tempo, 1071428
1, 241440, Tempo, 1052631
1, 242100, Tempo, 1071428
1, 242160, Tempo, 1034482
1, 243540, Tempo, 1071428
1, 244260, Tempo, 1111111
1, 244560, Tempo, 1132075
1, 245040, Tempo, 1034482
1, 245700, Tempo, 1071428
1, 245760, Tempo, 1034482
1, 246180, Tempo, 1052631
1, 246420, Tempo, 1071428
1, 246480, Tempo, 1034482
1, 247140, Tempo, 1071428
1, 247200, Tempo, 1034482
1, 247620, Tempo, 1052631
1, 247860, Tempo, 1071428
1, 247920, Tempo, 1034482
1, 248580, Tempo, 1071428
1, 248640, Tempo, 1034482
1, 249060, Tempo, 1052631
1, 249300, Tempo, 1071428
1, 249360, Tempo, 1034482
1, 250020, Tempo, 1071428
1, 250080, Tempo, 1052631
1, 250740, Tempo, 1071428
1, 250800, Tempo, 1052631
1, 252060, Tempo, 1071428
1, 252900, Tempo, 1111111
1, 253200, Tempo, 1276595
1, 253680, Tempo, 1071428
1, 253740, Tempo, 1034482
1, 255780, Tempo, 1071428
1, 255840, Tempo, 1034482
1, 257220, Tempo, 1071428
1, 257280, Tempo, 1034482
1, 258420, Tempo, 1052631
1, 258660, Tempo, 1071428
1, 258720, Tempo, 1034482
1, 259380, Tempo, 1071428
1, 259440, Tempo, 1034482
1, 260100, Tempo, 1071428
1, 260160, Tempo, 1034482
1, 260820, Tempo, 1071428
1, 260880, Tempo, 1034482
1, 261540, Tempo, 1071428
1, 261600, Tempo, 1034482
1, 262980, Tempo, 1071428
1, 263710, Tempo, 1111111
1, 264010, Tempo, 1132075
1, 264480, Tempo, 1034482
1, 265860, Tempo, 1071428
1, 265920, Tempo, 1034482
1, 267300, Tempo, 1071428
1, 267360, Tempo, 1034482
1, 268740, Tempo, 1071428
1, 268800, Tempo, 1034482
1, 270180, Tempo, 1071428
1, 270240, Tempo, 1034482
1, 271620, Tempo, 1071428
1, 271680, Tempo, 1034482
1, 272820, Tempo, 1052631
1, 273060, Tempo, 1071428
1, 273600, Tempo, 1111111
1, 273840, Tempo, 1034482
1, 274500, Tempo, 1071428
1, 274612, Tempo, 1034482
1, 275940, Tempo, 1071428
1, 276060, Tempo, 1034482
1, 277380, Tempo, 1071428
1, 277440, Tempo, 1034482
1, 278820, Tempo, 1071428
1, 278880, Tempo, 1052631
1, 279540, Tempo, 1071428
1, 279600, Tempo, 1052631
1, 280260, Tempo, 1071428
1, 280320, Tempo, 1034482
1, 281700, Tempo, 1071428
1, 281760, Tempo, 1052631
1, 282420, Tempo, 1071428
1, 282480, Tempo, 1034482
1, 283140, Tempo, 1071428
1, 283200, Tempo, 1052631
1, 283860, Tempo, 1071428
1, 283920, Tempo, 1034482
1, 284580, Tempo, 1071428
1, 284640, Tempo, 1052631
1, 285300, Tempo, 1071428
1, 285360, Tempo, 1034482
1, 286740, Tempo, 1071428
1, 287460, Tempo, 1132075
1, 287520, Tempo, 1176470
1, 288240, Tempo, 1071428
1, 288240, Time_signature, 2, 1, 24, 8
1, 288240, Marker_t, "(3) "
1, 289200, Tempo, 392156
1, 290040, Tempo, 394736
1, 290160, Tempo, 392156
1, 291960, Tempo, 394736
1, 292080, Tempo, 392156
1, 293880, Tempo, 394736
1, 294000, Tempo, 392156
1, 295880, Tempo, 402684
1, 295920, Tempo, 400000
1, 296400, Tempo, 413793
1, 296880, Tempo, 392156
1, 297720, Tempo, 394736
1, 297840, Tempo, 392156
1, 299640, Tempo, 394736
1, 299760, Tempo, 392156
1, 301560, Tempo, 394736
1, 301680, Tempo, 392156
1, 302520, Tempo, 394736
1, 303480, Tempo, 402684
1, 303600, Tempo, 394736
1, 303735, Tempo, 392156
1, 307440, Tempo, 400000
1, 307575, Tempo, 392156
1, 311280, Tempo, 400000
1, 311400, Tempo, 394736
1, 313440, Tempo, 392156
1, 315120, Tempo, 400000
1, 315240, Tempo, 394736
1, 317280, Tempo, 392156
1, 320880, Tempo, 394736
1, 321720, Tempo, 408163
1, 322560, Tempo, 500000
1, 322800, Tempo, 392156
1, 324720, Tempo, 394736
1, 326520, Tempo, 402684
1, 326640, Tempo, 392156
1, 328560, Tempo, 394736
1, 330360, Tempo, 402684
1, 330480, Tempo, 394736
1, 330600, Tempo, 392156
1, 334200, Tempo, 394736
1, 334320, Tempo, 392156
1, 338040, Tempo, 394736
1, 338160, Tempo, 392156
1, 340080, Tempo, 400000
1, 340560, Tempo, 413793
1, 341040, Tempo, 392156
1, 341880, Tempo, 394736
1, 342000, Tempo, 392156
1, 343800, Tempo, 394736
1, 343920, Tempo, 392156
1, 345600, Tempo, 394736
1, 345840, Tempo, 392156
1, 347640, Tempo, 394736
1, 347760, Tempo, 392156
1, 349440, Tempo, 394736
1, 349680, Tempo, 392156
1, 351480, Tempo, 394736
1, 351600, Tempo, 392156
1, 353400, Tempo, 394736
1, 353520, Tempo, 392156
1, 355320, Tempo, 394736
1, 355440, Tempo, 392156
1, 360840, Tempo, 394736
1, 361095, Tempo, 402684
1, 361200, Tempo, 392156
1, 362040, Tempo, 394736
1, 363000, Tempo, 400000
1, 363120, Tempo, 394736
1, 363240, Tempo, 392156
1, 364920, Tempo, 394736
1, 365175, Tempo, 392156
1, 366840, Tempo, 394736
1, 367095, Tempo, 392156
1, 368760, Tempo, 394736
1, 369000, Tempo, 392156
1, 370800, Tempo, 260869
1, 372240, Tempo, 402684
1, 373080, Tempo, 408163
1, 373200, Tempo, 517241
1, 373920, Tempo, 402684
1, 374520, Tempo, 408163
1, 374640, Tempo, 402684
1, 376440, Tempo, 408163
1, 377010, Tempo, 413793
1, 377280, Tempo, 500000
1, 377520, Tempo, 392156
1, 378360, Tempo, 394736
1, 378480, Tempo, 392156
1, 380280, Tempo, 394736
1, 380400, Tempo, 392156
1, 382200, Tempo, 394736
1, 382320, Tempo, 392156
1, 384200, Tempo, 402684
1, 384240, Tempo, 400000
1, 384720, Tempo, 413793
1, 385200, Tempo, 392156
1, 386040, Tempo, 394736
1, 386160, Tempo, 392156
1, 387960, Tempo, 394736
1, 388080, Tempo, 392156
1, 389880, Tempo, 394736
1, 390000, Tempo, 392156
1, 390840, Tempo, 394736
1, 391800, Tempo, 402684
1, 391920, Tempo, 400000
1, 393240, Tempo, 402684
1, 393600, Tempo, 447761
1, 393840, Tempo, 394736
1, 395640, Tempo, 397350
1, 395760, Tempo, 394736
1, 397560, Tempo, 397350
1, 397680, Tempo, 394736
1, 399480, Tempo, 397350
1, 399600, Tempo, 394736
1, 401400, Tempo, 400000
1, 401520, Tempo, 394736
1, 403320, Tempo, 397350
1, 403440, Tempo, 394736
1, 405240, Tempo, 397350
1, 405360, Tempo, 394736
1, 407160, Tempo, 397350
1, 407940, Tempo, 400000
1, 408720, Tempo, 408163
1, 409200, Tempo, 394736
1, 411000, Tempo, 397350
1, 411120, Tempo, 394736
1, 412920, Tempo, 397350
1, 413040, Tempo, 394736
1, 414840, Tempo, 397350
1, 414960, Tempo, 394736
1, 416760, Tempo, 400000
1, 416880, Tempo, 394736
1, 418680, Tempo, 397350
1, 418800, Tempo, 394736
1, 420600, Tempo, 397350
1, 420720, Tempo, 394736
1, 422520, Tempo, 397350
1, 423300, Tempo, 400000
1, 424080, Tempo, 408163
1, 424560, Tempo, 394736
1, 426360, Tempo, 397350
1, 426480, Tempo, 394736
1, 428280, Tempo, 397350
1, 430200, Tempo, 400000
1, 431280, Tempo, 402684
1, 431760, Tempo, 408163
1, 432240, Tempo, 394736
1, 434040, Tempo, 397350
1, 434640, Tempo, 535714
1, 434985, Tempo, 240000
1, 437760, Tempo, 394736
1, 439800, Tempo, 397350
1, 439920, Tempo, 402684
1, 441360, Tempo, 408163
1, 441840, Tempo, 394736
1, 443640, Tempo, 397350
1, 443760, Tempo, 394736
1, 445560, Tempo, 397350
1, 447480, Tempo, 400000
1, 448560, Tempo, 402684
1, 449040, Tempo, 408163
1, 449520, Tempo, 394736
1, 451320, Tempo, 397350
1, 451920, Tempo, 535714
1, 452265, Tempo, 240000
1, 455040, Tempo, 394736
1, 457080, Tempo, 397350
1, 457200, Tempo, 402684
1, 458640, Tempo, 408163
1, 459120, Tempo, 394736
1, 460560, Tempo, 397350
1, 461040, Tempo, 400000
1, 462480, Tempo, 402684
1, 462960, Tempo, 810810
1, 463440, Tempo, 674157
1, 465840, Tempo, 392156
1, 466680, Tempo, 394736
1, 466800, Tempo, 392156
1, 468600, Tempo, 394736
1, 468720, Tempo, 392156
1, 470520, Tempo, 394736
1, 470640, Tempo, 392156
1, 472520, Tempo, 402684
1, 472560, Tempo, 400000
1, 473040, Tempo, 413793
1, 473520, Tempo, 392156
1, 474360, Tempo, 394736
1, 474480, Tempo, 392156
1, 476280, Tempo, 394736
1, 476400, Tempo, 392156
1, 478200, Tempo, 394736
1, 478320, Tempo, 392156
1, 479160, Tempo, 394736
1, 480120, Tempo, 402684
1, 480240, Tempo, 394736
1, 480480, Tempo, 392156
1, 484080, Tempo, 400000
1, 484215, Tempo, 392156
1, 487920, Tempo, 400000
1, 488040, Tempo, 394736
1, 490080, Tempo, 392156
1, 491760, Tempo, 400000
1, 491880, Tempo, 394736
1, 493920, Tempo, 392156
1, 496560, Tempo, 394736
1, 497520, Tempo, 400000
1, 498360, Tempo, 408163
1, 498960, Tempo, 394736
1, 499440, Tempo, 408163
1, 501360, Tempo, 394736
1, 503160, Tempo, 394736
1, 503280, Tempo, 392156
1, 504960, Tempo, 394736
1, 505200, Tempo, 392156
1, 507000, Tempo, 394736
1, 507120, Tempo, 392156
1, 508800, Tempo, 394736
1, 509040, Tempo, 392156
1, 510960, Tempo, 394736
1, 512760, Tempo, 400000
1, 512880, Tempo, 392156
1, 514800, Tempo, 394736
1, 516600, Tempo, 400000
1, 516720, Tempo, 392156
1, 518640, Tempo, 394736
1, 520440, Tempo, 400000
1, 520560, Tempo, 392156
1, 522480, Tempo, 394736
1, 524160, Tempo, 400000
1, 524400, Tempo, 392156
1, 526320, Tempo, 394736
1, 527985, Tempo, 400000
1, 528240, Tempo, 392156
1, 535800, Tempo, 394736
1, 535920, Tempo, 392156
1, 537840, Tempo, 400000
1, 538320, Tempo, 408163
1, 538800, Tempo, 392156
1, 539640, Tempo, 394736
1, 539760, Tempo, 392156
1, 541560, Tempo, 394736
1, 541680, Tempo, 392156
1, 543480, Tempo, 394736
1, 543600, Tempo, 392156
1, 545400, Tempo, 394736
1, 545520, Tempo, 392156
1, 547080, Tempo, 394736
1, 547200, Tempo, 402684
1, 547440, Tempo, 392156
1, 548280, Tempo, 394736
1, 548400, Tempo, 392156
1, 550200, Tempo, 394736
1, 550320, Tempo, 392156
1, 553080, Tempo, 394736
1, 553200, Tempo, 392156
1, 555000, Tempo, 394736
1, 555120, Tempo, 392156
1, 556800, Tempo, 400000
1, 557040, Tempo, 392156
1, 558000, Tempo, 392156
1, 558840, Tempo, 394736
1, 558960, Tempo, 392156
1, 560760, Tempo, 394736
1, 560880, Tempo, 392156
1, 562680, Tempo, 394736
1, 562800, Tempo, 392156
1, 564600, Tempo, 394736
1, 564720, Tempo, 392156
1, 566520, Tempo, 402684
1, 566640, Tempo, 392156
1, 568440, Tempo, 394736
1, 568560, Tempo, 392156
1, 570240, Tempo, 394736
1, 570480, Tempo, 392156
1, 572280, Tempo, 394736
1, 572400, Tempo, 392156
1, 574080, Tempo, 394736
1, 574320, Tempo, 392156
1, 576120, Tempo, 394736
1, 576240, Tempo, 392156
1, 578040, Tempo, 394736
1, 578160, Tempo, 392156
1, 579960, Tempo, 394736
1, 580080, Tempo, 392156
1, 585480, Tempo, 394736
1, 585735, Tempo, 402684
1, 587760, Tempo, 392156
1, 588600, Tempo, 394736
1, 589560, Tempo, 400000
1, 589680, Tempo, 394736
1, 589800, Tempo, 392156
1, 591480, Tempo, 394736
1, 591735, Tempo, 392156
1, 593400, Tempo, 394736
1, 593625, Tempo, 392156
1, 595320, Tempo, 394736
1, 595560, Tempo, 392156
1, 597240, Tempo, 394736
1, 597360, Tempo, 392156
1, 598200, Tempo, 394736
1, 598320, Tempo, 392156
1, 600120, Tempo, 394736
1, 600240, Tempo, 392156
1, 601665, Tempo, 402684
1, 601920, Tempo, 600000
1, 602160, Tempo, 392156
1, 603000, Tempo, 394736
1, 603120, Tempo, 392156
1, 604920, Tempo, 394736
1, 605040, Tempo, 392156
1, 606840, Tempo, 394736
1, 606960, Tempo, 392156
1, 608840, Tempo, 402684
1, 608880, Tempo, 400000
1, 609360, Tempo, 413793
1, 609840, Tempo, 392156
1, 610680, Tempo, 394736
1, 610800, Tempo, 392156
1, 612600, Tempo, 394736
1, 612720, Tempo, 392156
1, 614520, Tempo, 394736
1, 614640, Tempo, 392156
1, 615480, Tempo, 394736
1, 616440, Tempo, 402684
1, 616560, Tempo, 394736
1, 616800, Tempo, 392156
1, 620400, Tempo, 400000
1, 620535, Tempo, 392156
1, 624240, Tempo, 400000
1, 624360, Tempo, 394736
1, 626400, Tempo, 392156
1, 628080, Tempo, 400000
1, 628200, Tempo, 394736
1, 630240, Tempo, 392156
1, 634800, Tempo, 394736
1, 636720, Tempo, 400000
1, 638640, Tempo, 408163
1, 638880, Tempo, 413793
1, 639120, Tempo, 394736
1, 639480, Tempo, 400000
1, 639600, Tempo, 408163
1, 641520, End_track
2, 0, Start_track
2, 0, Instrument_name_t, "Roland Serial MIDI Out Port A"
2, 0, Title_t, "Unnamed Track"
2, 0, Control_c, 1, 0, 0
2, 0, Control_c, 1, 32, 0
2, 0, Program_c, 1, 0
2, 0, Control_c, 1, 10, 73
2, 0, Control_c, 1, 7, 127
2, 0, Pitch_bend_c, 1, 8192
2, 0, Control_c, 1, 1, 0
2, 0, Control_c, 1, 1, 0
2, 0, Pitch_bend_c, 1, 8192
2, 0, Control_c, 1, 93, 18
2, 0, Pitch_bend_c, 1, 8192
2, 0, Control_c, 1, 93, 28
2, 0, Control_c, 1, 91, 100
2, 1920, Note_on_c, 1, 70, 65
2, 1920, Control_c, 1, 64, 0
2, 2040, Note_off_c, 1, 70, 0
2, 2040, Note_on_c, 1, 72, 65
2, 2160, Note_off_c, 1, 72, 0
2, 2160, Note_on_c, 1, 70, 65
2, 2280, Note_off_c, 1, 70, 0
2, 2280, Note_on_c, 1, 72, 64
2, 2400, Note_off_c, 1, 72, 0
2, 2400, Note_on_c, 1, 70, 64
2, 2480, Note_off_c, 1, 70, 0
2, 2480, Note_on_c, 1, 72, 63
2, 2560, Note_off_c, 1, 72, 0
2, 2560, Note_on_c, 1, 70, 63
2, 2640, Note_off_c, 1, 70, 0
2, 2640, Note_on_c, 1, 72, 63
2, 2760, Note_off_c, 1, 72, 0
2, 2760, Note_on_c, 1, 74, 62
2, 2880, Note_off_c, 1, 74, 0
2, 2880, Note_on_c, 1, 70, 62
2, 3040, Note_off_c, 1, 70, 0
2, 3040, Note_on_c, 1, 69, 61
2, 3200, Note_off_c, 1, 69, 0
2, 3200, Note_on_c, 1, 72, 61
2, 3360, Note_off_c, 1, 72, 0
2, 3360, Note_on_c, 1, 70, 60
2, 3520, Note_off_c, 1, 70, 0
2, 3520, Note_on_c, 1, 69, 59
2, 3680, Note_off_c, 1, 69, 0
2, 3680, Note_on_c, 1, 75, 59
2, 3840, Note_off_c, 1, 75, 0
2, 3840, Note_on_c, 1, 72, 58
2, 4000, Note_off_c, 1, 72, 0
2, 4000, Note_on_c, 1, 70, 58
2, 4160, Note_off_c, 1, 70, 0
2, 4160, Note_on_c, 1, 74, 57
2, 4320, Note_off_c, 1, 74, 0
2, 4320, Note_on_c, 1, 72, 55
2, 4480, Note_off_c, 1, 72, 0
2, 4480, Note_on_c, 1, 70, 53
2, 4640, Note_off_c, 1, 70, 0
2, 4640, Note_on_c, 1, 77, 52
2, 4800, Note_off_c, 1, 77, 0
2, 4800, Note_on_c, 1, 74, 50
2, 5110, Note_off_c, 1, 74, 0
2, 5840, Note_on_c, 1, 79, 79
2, 6120, Note_off_c, 1, 79, 0
2, 6320, Note_on_c, 1, 77, 74
2, 6590, Note_off_c, 1, 77, 0
2, 6720, Note_on_c, 1, 77, 71
2, 6840, Note_off_c, 1, 77, 0
2, 6840, Note_on_c, 1, 82, 72
2, 6960, Note_off_c, 1, 82, 0
2, 6960, Note_on_c, 1, 81, 73
2, 7080, Note_off_c, 1, 81, 0
2, 7080, Note_on_c, 1, 82, 74
2, 7200, Note_off_c, 1, 82, 0
2, 7200, Note_on_c, 1, 86, 75
2, 7320, Note_off_c, 1, 86, 0
2, 7320, Note_on_c, 1, 82, 76
2, 7440, Note_off_c, 1, 82, 0
2, 7440, Note_on_c, 1, 81, 77
2, 7560, Note_off_c, 1, 81, 0
2, 7560, Note_on_c, 1, 82, 78
2, 7680, Note_off_c, 1, 82, 0
2, 7680, Note_on_c, 1, 77, 79
2, 7920, Note_off_c, 1, 77, 0
2, 7920, Note_on_c, 1, 75, 76
2, 8110, Note_off_c, 1, 75, 0
2, 8160, Note_on_c, 1, 74, 73
2, 8470, Note_off_c, 1, 74, 0
2, 9600, Note_on_c, 1, 58, 55
2, 9720, Note_off_c, 1, 58, 0
2, 9720, Note_on_c, 1, 60, 55
2, 9840, Note_off_c, 1, 60, 0
2, 9840, Note_on_c, 1, 58, 55
2, 9960, Note_off_c, 1, 58, 0
2, 9960, Note_on_c, 1, 60, 54
2, 10080, Note_off_c, 1, 60, 0
2, 10080, Note_on_c, 1, 58, 54
2, 10160, Note_off_c, 1, 58, 0
2, 10160, Note_on_c, 1, 60, 54
2, 10240, Note_off_c, 1, 60, 0
2, 10240, Note_on_c, 1, 58, 53
2, 10320, Note_off_c, 1, 58, 0
2, 10320, Note_on_c, 1, 60, 53
2, 10440, Note_off_c, 1, 60, 0
2, 10440, Note_on_c, 1, 62, 53
2, 10560, Note_off_c, 1, 62, 0
2, 10560, Note_on_c, 1, 58, 52
2, 10720, Note_off_c, 1, 58, 0
2, 10720, Note_on_c, 1, 57, 52
2, 10880, Note_off_c, 1, 57, 0
2, 10880, Note_on_c, 1, 60, 52
2, 11040, Note_off_c, 1, 60, 0
2, 11040, Note_on_c, 1, 58, 51
2, 11200, Note_off_c, 1, 58, 0
2, 11200, Note_on_c, 1, 57, 51
2, 11360, Note_off_c, 1, 57, 0
2, 11360, Note_on_c, 1, 63, 50
2, 11520, Note_off_c, 1, 63, 0
2, 11520, Note_on_c, 1, 60, 51
2, 11680, Note_off_c, 1, 60, 0
2, 11680, Note_on_c, 1, 58, 50
2, 11840, Note_off_c, 1, 58, 0
2, 11840, Note_on_c, 1, 62, 48
2, 12000, Note_off_c, 1, 62, 0
2, 12000, Note_on_c, 1, 60, 46
2, 12160, Note_off_c, 1, 60, 0
2, 12160, Note_on_c, 1, 58, 45
2, 12320, Note_off_c, 1, 58, 0
2, 12320, Note_on_c, 1, 65, 43
2, 12480, Note_off_c, 1, 65, 0
2, 12480, Note_on_c, 1, 62, 41
2, 12790, Note_off_c, 1, 62, 0
2, 13440, Note_on_c, 1, 67, 73
2, 13600, Note_off_c, 1, 67, 0
2, 13600, Note_on_c, 1, 72, 74
2, 13760, Note_off_c, 1, 72, 0
2, 13760, Note_on_c, 1, 75, 75
2, 13920, Note_off_c, 1, 75, 0
2, 13920, Note_on_c, 1, 72, 76
2, 14080, Note_off_c, 1, 72, 0
2, 14080, Note_on_c, 1, 75, 77
2, 14240, Note_off_c, 1, 75, 0
2, 14240, Note_on_c, 1, 79, 78
2, 14360, Note_off_c, 1, 79, 0
2, 14400, Note_on_c, 1, 79, 79
2, 14520, Note_off_c, 1, 79, 0
2, 14520, Note_on_c, 1, 77, 77
2, 14640, Note_off_c, 1, 77, 0
2, 14640, Note_on_c, 1, 75, 75
2, 14760, Note_off_c, 1, 75, 0
2, 14760, Note_on_c, 1, 74, 74
2, 14850, Note_off_c, 1, 74, 0
2, 14880, Note_on_c, 1, 74, 72
2, 15000, Note_off_c, 1, 74, 0
2, 15000, Note_on_c, 1, 72, 70
2, 15120, Note_off_c, 1, 72, 0
2, 15120, Note_on_c, 1, 70, 68
2, 15240, Note_off_c, 1, 70, 0
2, 15240, Note_on_c, 1, 69, 66
2, 15330, Note_off_c, 1, 69, 0
2, 15360, Note_on_c, 1, 70, 63
2, 16320, Note_off_c, 1, 70, 0
2, 16560, Note_on_c, 1, 70, 60
2, 16800, Note_off_c, 1, 70, 0
2, 16800, Note_on_c, 1, 69, 62
2, 17040, Note_off_c, 1, 69, 0
2, 17040, Note_on_c, 1, 68, 63
2, 17230, Note_off_c, 1, 68, 0
2, 17280, Note_on_c, 1, 67, 69
2, 17520, Note_off_c, 1, 67, 0
2, 17520, Note_on_c, 1, 69, 67
2, 17640, Note_off_c, 1, 69, 0
2, 17640, Note_on_c, 1, 70, 66
2, 17760, Note_off_c, 1, 70, 0
2, 17760, Note_on_c, 1, 72, 65
2, 17880, Note_off_c, 1, 72, 0
2, 17880, Note_on_c, 1, 74, 64
2, 18000, Note_off_c, 1, 74, 0
2, 18000, Note_on_c, 1, 75, 63
2, 18120, Note_off_c, 1, 75, 0
2, 18120, Note_on_c, 1, 77, 62
2, 18240, Note_off_c, 1, 77, 0
2, 18240, Note_on_c, 1, 79, 61
2, 18360, Note_off_c, 1, 79, 0
2, 18360, Note_on_c, 1, 81, 61
2, 18480, Note_off_c, 1, 81, 0
2, 18480, Note_on_c, 1, 82, 60
2, 18600, Note_off_c, 1, 82, 0
2, 18600, Note_on_c, 1, 81, 59
2, 18720, Note_off_c, 1, 81, 0
2, 18720, Note_on_c, 1, 82, 58
2, 18840, Note_off_c, 1, 82, 0
2, 18840, Note_on_c, 1, 81, 57
2, 18960, Note_off_c, 1, 81, 0
2, 18960, Note_on_c, 1, 82, 56
2, 19080, Note_off_c, 1, 82, 0
2, 19080, Note_on_c, 1, 79, 55
2, 19200, Note_off_c, 1, 79, 0
2, 19200, Note_on_c, 1, 77, 54
2, 20160, Note_off_c, 1, 77, 0
2, 20400, Note_on_c, 1, 70, 56
2, 20640, Note_off_c, 1, 70, 0
2, 20640, Note_on_c, 1, 69, 57
2, 20880, Note_off_c, 1, 69, 0
2, 20880, Note_on_c, 1, 68, 59
2, 21070, Note_off_c, 1, 68, 0
2, 21120, Note_on_c, 1, 67, 63
2, 21360, Note_off_c, 1, 67, 0
2, 21360, Note_on_c, 1, 69, 62
2, 21480, Note_off_c, 1, 69, 0
2, 21480, Note_on_c, 1, 70, 61
2, 21600, Note_off_c, 1, 70, 0
2, 21600, Note_on_c, 1, 72, 60
2, 21720, Note_off_c, 1, 72, 0
2, 21720, Note_on_c, 1, 74, 60
2, 21840, Note_off_c, 1, 74, 0
2, 21840, Note_on_c, 1, 75, 59
2, 21960, Note_off_c, 1, 75, 0
2, 21960, Note_on_c, 1, 77, 58
2, 22080, Note_off_c, 1, 77, 0
2, 22080, Note_on_c, 1, 79, 57
2, 22200, Note_off_c, 1, 79, 0
2, 22200, Note_on_c, 1, 81, 56
2, 22320, Note_off_c, 1, 81, 0
2, 22320, Note_on_c, 1, 82, 56
2, 22440, Note_off_c, 1, 82, 0
2, 22440, Note_on_c, 1, 81, 55
2, 22560, Note_off_c, 1, 81, 0
2, 22560, Note_on_c, 1, 82, 54
2, 22680, Note_off_c, 1, 82, 0
2, 22680, Note_on_c, 1, 81, 53
2, 22800, Note_off_c, 1, 81, 0
2, 22800, Note_on_c, 1, 82, 53
2, 22920, Note_off_c, 1, 82, 0
2, 22920, Note_on_c, 1, 79, 52
2, 23040, Note_off_c, 1, 79, 0
2, 23040, Note_on_c, 1, 77, 51
2, 23520, Note_off_c, 1, 77, 0
2, 23640, Note_on_c, 1, 82, 56
2, 23760, Note_off_c, 1, 82, 0
2, 23760, Note_on_c, 1, 84, 57
2, 23880, Note_off_c, 1, 84, 0
2, 23880, Note_on_c, 1, 82, 59
2, 23950, Note_off_c, 1, 82, 0
2, 24000, Note_on_c, 1, 86, 61
2, 24070, Note_off_c, 1, 86, 0
2, 24120, Note_on_c, 1, 84, 61
2, 24190, Note_off_c, 1, 84, 0
2, 24240, Note_on_c, 1, 82, 60
2, 24310, Note_off_c, 1, 82, 0
2, 24360, Note_on_c, 1, 81, 59
2, 24430, Note_off_c, 1, 81, 0
2, 24480, Note_on_c, 1, 79, 58
2, 24550, Note_off_c, 1, 79, 0
2, 24600, Note_on_c, 1, 77, 57
2, 24670, Note_off_c, 1, 77, 0
2, 24720, Note_on_c, 1, 75, 56
2, 24790, Note_off_c, 1, 75, 0
2, 24840, Note_on_c, 1, 74, 55
2, 24910, Note_off_c, 1, 74, 0
2, 24960, Note_on_c, 1, 75, 52
2, 25440, Note_off_c, 1, 75, 0
2, 25560, Note_on_c, 1, 81, 55
2, 25680, Note_off_c, 1, 81, 0
2, 25680, Note_on_c, 1, 82, 55
2, 25800, Note_off_c, 1, 82, 0
2, 25800, Note_on_c, 1, 81, 57
2, 25870, Note_off_c, 1, 81, 0
2, 25920, Note_on_c, 1, 84, 59
2, 25990, Note_off_c, 1, 84, 0
2, 26040, Note_on_c, 1, 82, 59
2, 26110, Note_off_c, 1, 82, 0
2, 26160, Note_on_c, 1, 81, 58
2, 26230, Note_off_c, 1, 81, 0
2, 26280, Note_on_c, 1, 79, 57
2, 26350, Note_off_c, 1, 79, 0
2, 26400, Note_on_c, 1, 77, 56
2, 26470, Note_off_c, 1, 77, 0
2, 26520, Note_on_c, 1, 75, 55
2, 26590, Note_off_c, 1, 75, 0
2, 26640, Note_on_c, 1, 74, 54
2, 26710, Note_off_c, 1, 74, 0
2, 26760, Note_on_c, 1, 72, 53
2, 26830, Note_off_c, 1, 72, 0
2, 26880, Note_on_c, 1, 74, 51
2, 27360, Note_off_c, 1, 74, 0
2, 27480, Note_on_c, 1, 77, 74
2, 27600, Note_off_c, 1, 77, 0
2, 27600, Note_on_c, 1, 79, 76
2, 27720, Note_off_c, 1, 79, 0
2, 27720, Note_on_c, 1, 77, 77
2, 27790, Note_off_c, 1, 77, 0
2, 27840, Note_on_c, 1, 82, 79
2, 27910, Note_off_c, 1, 82, 0
2, 27960, Note_on_c, 1, 81, 79
2, 28030, Note_off_c, 1, 81, 0
2, 28080, Note_on_c, 1, 79, 78
2, 28150, Note_off_c, 1, 79, 0
2, 28200, Note_on_c, 1, 77, 77
2, 28270, Note_off_c, 1, 77, 0
2, 28320, Note_on_c, 1, 75, 76
2, 28390, Note_off_c, 1, 75, 0
2, 28440, Note_on_c, 1, 74, 75
2, 28510, Note_off_c, 1, 74, 0
2, 28560, Note_on_c, 1, 72, 74
2, 28630, Note_off_c, 1, 72, 0
2, 28680, Note_on_c, 1, 71, 73
2, 28750, Note_off_c, 1, 71, 0
2, 28800, Note_on_c, 1, 74, 74
2, 28920, Note_off_c, 1, 74, 0
2, 28920, Note_on_c, 1, 72, 74
2, 29040, Note_off_c, 1, 72, 0
2, 29040, Note_on_c, 1, 75, 74
2, 29160, Note_off_c, 1, 75, 0
2, 29160, Note_on_c, 1, 74, 74
2, 29280, Note_off_c, 1, 74, 0
2, 29280, Note_on_c, 1, 77, 74
2, 29400, Note_off_c, 1, 77, 0
2, 29400, Note_on_c, 1, 75, 73
2, 29520, Note_off_c, 1, 75, 0
2, 29520, Note_on_c, 1, 79, 73
2, 29640, Note_off_c, 1, 79, 0
2, 29640, Note_on_c, 1, 78, 73
2, 29710, Note_off_c, 1, 78, 0
2, 29760, Note_on_c, 1, 79, 73
2, 29830, Note_off_c, 1, 79, 0
2, 29880, Note_on_c, 1, 77, 73
2, 29950, Note_off_c, 1, 77, 0
2, 30000, Note_on_c, 1, 75, 72
2, 30070, Note_off_c, 1, 75, 0
2, 30120, Note_on_c, 1, 74, 72
2, 30190, Note_off_c, 1, 74, 0
2, 30240, Note_on_c, 1, 72, 72
2, 30310, Note_off_c, 1, 72, 0
2, 30360, Note_on_c, 1, 70, 72
2, 30430, Note_off_c, 1, 70, 0
2, 30480, Note_on_c, 1, 69, 72
2, 30550, Note_off_c, 1, 69, 0
2, 30600, Note_on_c, 1, 70, 71
2, 30670, Note_off_c, 1, 70, 0
2, 30720, Note_on_c, 1, 69, 71
2, 30790, Note_off_c, 1, 69, 0
2, 30840, Note_on_c, 1, 70, 71
2, 30910, Note_off_c, 1, 70, 0
2, 30960, Note_on_c, 1, 72, 71
2, 31030, Note_off_c, 1, 72, 0
2, 31080, Note_on_c, 1, 74, 70
2, 31150, Note_off_c, 1, 74, 0
2, 31200, Note_on_c, 1, 76, 70
2, 31320, Note_off_c, 1, 76, 0
2, 31320, Note_on_c, 1, 77, 70
2, 31440, Note_off_c, 1, 77, 0
2, 31440, Note_on_c, 1, 76, 70
2, 31560, Note_off_c, 1, 76, 0
2, 31560, Note_on_c, 1, 77, 70
2, 31650, Note_off_c, 1, 77, 0
2, 31680, Note_on_c, 1, 65, 69
2, 32160, Note_off_c, 1, 65, 0
2, 33360, Note_on_c, 1, 84, 42
2, 33510, Note_off_c, 1, 84, 0
2, 33600, Note_on_c, 1, 84, 43
2, 33750, Note_off_c, 1, 84, 0
2, 33840, Note_on_c, 1, 84, 44
2, 33990, Note_off_c, 1, 84, 0
2, 34080, Note_on_c, 1, 84, 45
2, 34230, Note_off_c, 1, 84, 0
2, 34320, Note_on_c, 1, 84, 46
2, 34470, Note_off_c, 1, 84, 0
2, 34560, Note_on_c, 1, 84, 48
2, 35280, Note_off_c, 1, 84, 0
2, 35280, Note_on_c, 1, 82, 44
2, 35400, Note_off_c, 1, 82, 0
2, 35400, Note_on_c, 1, 81, 44
2, 35520, Note_off_c, 1, 81, 0
2, 35520, Note_on_c, 1, 79, 43
2, 35670, Note_off_c, 1, 79, 0
2, 35760, Note_on_c, 1, 77, 42
2, 35910, Note_off_c, 1, 77, 0
2, 36000, Note_on_c, 1, 76, 41
2, 36150, Note_off_c, 1, 76, 0
2, 36240, Note_on_c, 1, 79, 39
2, 36390, Note_off_c, 1, 79, 0
2, 36480, Note_on_c, 1, 77, 36
2, 36960, Note_off_c, 1, 77, 0
2, 37200, Note_on_c, 1, 84, 38
2, 37350, Note_off_c, 1, 84, 0
2, 37440, Note_on_c, 1, 84, 39
2, 37590, Note_off_c, 1, 84, 0
2, 37680, Note_on_c, 1, 84, 40
2, 37830, Note_off_c, 1, 84, 0
2, 37920, Note_on_c, 1, 84, 41
2, 38070, Note_off_c, 1, 84, 0
2, 38160, Note_on_c, 1, 84, 42
2, 38310, Note_off_c, 1, 84, 0
2, 38400, Note_on_c, 1, 84, 46
2, 39120, Note_off_c, 1, 84, 0
2, 39120, Note_on_c, 1, 82, 40
2, 39240, Note_off_c, 1, 82, 0
2, 39240, Note_on_c, 1, 81, 40
2, 39360, Note_off_c, 1, 81, 0
2, 39360, Note_on_c, 1, 79, 39
2, 39510, Note_off_c, 1, 79, 0
2, 39600, Note_on_c, 1, 81, 37
2, 39750, Note_off_c, 1, 81, 0
2, 39840, Note_on_c, 1, 82, 35
2, 39990, Note_off_c, 1, 82, 0
2, 40080, Note_on_c, 1, 79, 34
2, 40230, Note_off_c, 1, 79, 0
2, 40320, Note_on_c, 1, 81, 32
2, 40800, Note_off_c, 1, 81, 0
2, 41040, Note_on_c, 1, 84, 41
2, 41190, Note_off_c, 1, 84, 0
2, 41280, Note_on_c, 1, 84, 47
2, 41430, Note_off_c, 1, 84, 0
2, 41520, Note_on_c, 1, 84, 53
2, 41670, Note_off_c, 1, 84, 0
2, 41760, Note_on_c, 1, 84, 59
2, 42000, Note_off_c, 1, 84, 0
2, 42000, Note_on_c, 1, 85, 65
2, 42240, Note_off_c, 1, 85, 0
2, 42240, Note_on_c, 1, 86, 72
2, 42360, Note_off_c, 1, 86, 0
2, 42360, Note_on_c, 1, 74, 66
2, 42480, Note_off_c, 1, 74, 0
2, 42480, Note_on_c, 1, 73, 66
2, 42600, Note_off_c, 1, 73, 0
2, 42600, Note_on_c, 1, 74, 67
2, 42720, Note_off_c, 1, 74, 0
2, 42720, Note_on_c, 1, 75, 67
2, 42840, Note_off_c, 1, 75, 0
2, 42960, Note_on_c, 1, 76, 68
2, 43080, Note_off_c, 1, 76, 0
2, 43200, Note_on_c, 1, 77, 69
2, 43320, Note_off_c, 1, 77, 0
2, 43440, Note_on_c, 1, 78, 70
2, 43560, Note_off_c, 1, 78, 0
2, 43680, Note_on_c, 1, 79, 71
2, 43800, Note_off_c, 1, 79, 0
2, 43920, Note_on_c, 1, 81, 72
2, 44040, Note_off_c, 1, 81, 0
2, 44160, Note_on_c, 1, 82, 73
2, 45120, Note_off_c, 1, 82, 0
2, 45480, Note_on_c, 1, 82, 69
2, 45600, Note_off_c, 1, 82, 0
2, 45600, Note_on_c, 1, 84, 62
2, 45680, Note_off_c, 1, 84, 0
2, 45680, Note_on_c, 1, 82, 63
2, 45760, Note_off_c, 1, 82, 0
2, 45760, Note_on_c, 1, 84, 64
2, 45840, Note_off_c, 1, 84, 0
2, 45840, Note_on_c, 1, 82, 65
2, 45920, Note_off_c, 1, 82, 0
2, 45920, Note_on_c, 1, 81, 66
2, 46000, Note_off_c, 1, 81, 0
2, 46000, Note_on_c, 1, 82, 67
2, 46080, Note_off_c, 1, 82, 0
2, 46080, Note_on_c, 1, 84, 68
2, 46200, Note_off_c, 1, 84, 0
2, 46200, Note_on_c, 1, 72, 60
2, 46320, Note_off_c, 1, 72, 0
2, 46320, Note_on_c, 1, 71, 60
2, 46440, Note_off_c, 1, 71, 0
2, 46440, Note_on_c, 1, 72, 61
2, 46560, Note_off_c, 1, 72, 0
2, 46560, Note_on_c, 1, 73, 62
2, 46680, Note_off_c, 1, 73, 0
2, 46800, Note_on_c, 1, 74, 63
2, 46920, Note_off_c, 1, 74, 0
2, 47040, Note_on_c, 1, 75, 64
2, 47160, Note_off_c, 1, 75, 0
2, 47280, Note_on_c, 1, 76, 65
2, 47400, Note_off_c, 1, 76, 0
2, 47520, Note_on_c, 1, 77, 67
2, 47640, Note_off_c, 1, 77, 0
2, 47760, Note_on_c, 1, 79, 68
2, 47880, Note_off_c, 1, 79, 0
2, 48000, Note_on_c, 1, 81, 69
2, 48960, Note_off_c, 1, 81, 0
2, 49320, Note_on_c, 1, 81, 67
2, 49440, Note_off_c, 1, 81, 0
2, 49440, Note_on_c, 1, 82, 60
2, 49520, Note_off_c, 1, 82, 0
2, 49520, Note_on_c, 1, 81, 62
2, 49600, Note_off_c, 1, 81, 0
2, 49600, Note_on_c, 1, 82, 63
2, 49680, Note_off_c, 1, 82, 0
2, 49680, Note_on_c, 1, 81, 64
2, 49760, Note_off_c, 1, 81, 0
2, 49760, Note_on_c, 1, 79, 65
2, 49840, Note_off_c, 1, 79, 0
2, 49840, Note_on_c, 1, 81, 66
2, 49920, Note_off_c, 1, 81, 0
2, 49920, Note_on_c, 1, 82, 67
2, 50040, Note_off_c, 1, 82, 0
2, 50040, Note_on_c, 1, 70, 58
2, 50160, Note_off_c, 1, 70, 0
2, 50160, Note_on_c, 1, 69, 58
2, 50280, Note_off_c, 1, 69, 0
2, 50280, Note_on_c, 1, 70, 59
2, 50400, Note_off_c, 1, 70, 0
2, 50400, Note_on_c, 1, 72, 59
2, 50520, Note_off_c, 1, 72, 0
2, 50640, Note_on_c, 1, 73, 60
2, 50760, Note_off_c, 1, 73, 0
2, 50880, Note_on_c, 1, 74, 61
2, 51000, Note_off_c, 1, 74, 0
2, 51120, Note_on_c, 1, 76, 62
2, 51240, Note_off_c, 1, 76, 0
2, 51360, Note_on_c, 1, 77, 62
2, 51480, Note_off_c, 1, 77, 0
2, 51600, Note_on_c, 1, 78, 63
2, 51720, Note_off_c, 1, 78, 0
2, 51840, Note_on_c, 1, 79, 64
2, 52320, Note_off_c, 1, 79, 0
2, 52560, Note_on_c, 1, 82, 64
2, 52716, Note_off_c, 1, 82, 0
2, 52800, Note_on_c, 1, 81, 64
2, 53040, Note_off_c, 1, 81, 0
2, 53040, Note_on_c, 1, 79, 61
2, 53196, Note_off_c, 1, 79, 0
2, 53280, Note_on_c, 1, 77, 64
2, 53520, Note_off_c, 1, 77, 0
2, 53520, Note_on_c, 1, 76, 60
2, 53676, Note_off_c, 1, 76, 0
2, 53760, Note_on_c, 1, 79, 63
2, 54000, Note_off_c, 1, 79, 0
2, 54000, Note_on_c, 1, 77, 60
2, 54156, Note_off_c, 1, 77, 0
2, 54480, Note_on_c, 1, 84, 63
2, 54636, Note_off_c, 1, 84, 0
2, 54720, Note_on_c, 1, 82, 63
2, 54960, Note_off_c, 1, 82, 0
2, 54960, Note_on_c, 1, 81, 61
2, 55116, Note_off_c, 1, 81, 0
2, 55200, Note_on_c, 1, 79, 62
2, 55440, Note_off_c, 1, 79, 0
2, 55440, Note_on_c, 1, 78, 60
2, 55596, Note_off_c, 1, 78, 0
2, 55680, Note_on_c, 1, 79, 62
2, 56040, Note_off_c, 1, 79, 0
2, 56040, Note_on_c, 1, 81, 62
2, 56160, Note_off_c, 1, 81, 0
2, 56160, Note_on_c, 1, 84, 62
2, 56280, Note_off_c, 1, 84, 0
2, 56280, Note_on_c, 1, 82, 62
2, 56400, Note_off_c, 1, 82, 0
2, 56400, Note_on_c, 1, 81, 62
2, 56520, Note_off_c, 1, 81, 0
2, 56520, Note_on_c, 1, 79, 62
2, 56640, Note_off_c, 1, 79, 0
2, 56640, Note_on_c, 1, 77, 61
2, 57120, Note_off_c, 1, 77, 0
2, 57120, Note_on_c, 1, 76, 58
2, 57360, Note_off_c, 1, 76, 0
2, 57720, Note_on_c, 1, 77, 61
2, 57840, Note_off_c, 1, 77, 0
2, 57840, Note_on_c, 1, 76, 61
2, 57960, Note_off_c, 1, 76, 0
2, 57960, Note_on_c, 1, 77, 61
2, 58080, Note_off_c, 1, 77, 0
2, 58200, Note_on_c, 1, 72, 60
2, 58320, Note_off_c, 1, 72, 0
2, 58320, Note_on_c, 1, 71, 60
2, 58440, Note_off_c, 1, 71, 0
2, 58440, Note_on_c, 1, 72, 60
2, 58560, Note_off_c, 1, 72, 0
2, 58680, Note_on_c, 1, 69, 60
2, 58800, Note_off_c, 1, 69, 0
2, 58800, Note_on_c, 1, 68, 60
2, 58920, Note_off_c, 1, 68, 0
2, 58920, Note_on_c, 1, 69, 60
2, 59040, Note_off_c, 1, 69, 0
2, 59160, Note_on_c, 1, 65, 60
2, 59280, Note_off_c, 1, 65, 0
2, 59280, Note_on_c, 1, 64, 60
2, 59400, Note_off_c, 1, 64, 0
2, 59400, Note_on_c, 1, 65, 60
2, 59520, Note_off_c, 1, 65, 0
2, 59600, Note_on_c, 1, 76, 47
2, 60000, Note_off_c, 1, 76, 0
2, 60240, Note_on_c, 1, 82, 47
2, 60396, Note_off_c, 1, 82, 0
2, 60480, Note_on_c, 1, 81, 46
2, 60720, Note_off_c, 1, 81, 0
2, 60720, Note_on_c, 1, 79, 45
2, 60876, Note_off_c, 1, 79, 0
2, 60960, Note_on_c, 1, 77, 46
2, 61200, Note_off_c, 1, 77, 0
2, 61200, Note_on_c, 1, 76, 43
2, 61356, Note_off_c, 1, 76, 0
2, 61440, Note_on_c, 1, 79, 45
2, 61680, Note_off_c, 1, 79, 0
2, 61680, Note_on_c, 1, 77, 43
2, 61836, Note_off_c, 1, 77, 0
2, 62160, Note_on_c, 1, 84, 44
2, 62316, Note_off_c, 1, 84, 0
2, 62400, Note_on_c, 1, 82, 44
2, 62640, Note_off_c, 1, 82, 0
2, 62640, Note_on_c, 1, 81, 40
2, 62796, Note_off_c, 1, 81, 0
2, 62880, Note_on_c, 1, 79, 43
2, 63120, Note_off_c, 1, 79, 0
2, 63120, Note_on_c, 1, 78, 40
2, 63276, Note_off_c, 1, 78, 0
2, 63360, Note_on_c, 1, 79, 42
2, 63720, Note_off_c, 1, 79, 0
2, 63720, Note_on_c, 1, 81, 42
2, 63840, Note_off_c, 1, 81, 0
2, 63840, Note_on_c, 1, 81, 42
2, 63960, Note_off_c, 1, 81, 0
2, 63960, Note_on_c, 1, 82, 41
2, 64080, Note_off_c, 1, 82, 0
2, 64080, Note_on_c, 1, 84, 41
2, 64200, Note_off_c, 1, 84, 0
2, 64200, Note_on_c, 1, 86, 41
2, 64320, Note_off_c, 1, 86, 0
2, 64320, Note_on_c, 1, 86, 41
2, 64380, Note_off_c, 1, 86, 0
2, 64380, Note_on_c, 1, 77, 41
2, 64790, Note_off_c, 1, 77, 0
2, 64800, Note_on_c, 1, 79, 40
2, 64880, Note_off_c, 1, 79, 0
2, 64880, Note_on_c, 1, 81, 40
2, 64960, Note_off_c, 1, 81, 0
2, 64960, Note_on_c, 1, 79, 40
2, 65040, Note_off_c, 1, 79, 0
2, 65040, Note_on_c, 1, 77, 40
2, 65160, Note_off_c, 1, 77, 0
2, 65160, Note_on_c, 1, 79, 40
2, 65280, Note_off_c, 1, 79, 0
2, 65520, Note_on_c, 1, 84, 72
2, 65640, Note_off_c, 1, 84, 0
2, 65640, Note_on_c, 1, 81, 73
2, 65760, Note_off_c, 1, 81, 0
2, 65760, Note_on_c, 1, 77, 74
2, 65880, Note_off_c, 1, 77, 0
2, 65880, Note_on_c, 1, 72, 74
2, 66000, Note_off_c, 1, 72, 0
2, 66000, Note_on_c, 1, 69, 75
2, 66120, Note_off_c, 1, 69, 0
2, 66120, Note_on_c, 1, 65, 76
2, 66240, Note_off_c, 1, 65, 0
2, 66240, Note_on_c, 1, 63, 77
2, 67440, Note_on_c, 1, 62, 49
2, 67450, Note_off_c, 1, 63, 0
2, 67596, Note_off_c, 1, 62, 0
2, 67920, Note_on_c, 1, 74, 48
2, 68076, Note_off_c, 1, 74, 0
2, 68400, Note_on_c, 1, 72, 46
2, 68556, Note_off_c, 1, 72, 0
2, 68880, Note_on_c, 1, 64, 45
2, 69036, Note_off_c, 1, 64, 0
2, 69360, Note_on_c, 1, 84, 58
2, 69480, Note_off_c, 1, 84, 0
2, 69480, Note_on_c, 1, 81, 60
2, 69600, Note_off_c, 1, 81, 0
2, 69600, Note_on_c, 1, 77, 61
2, 69720, Note_off_c, 1, 77, 0
2, 69720, Note_on_c, 1, 72, 62
2, 69840, Note_off_c, 1, 72, 0
2, 69840, Note_on_c, 1, 69, 63
2, 69960, Note_off_c, 1, 69, 0
2, 69960, Note_on_c, 1, 65, 64
2, 70080, Note_off_c, 1, 65, 0
2, 70080, Note_on_c, 1, 63, 66
2, 71280, Note_off_c, 1, 63, 0
2, 71280, Note_on_c, 1, 62, 40
2, 71436, Note_off_c, 1, 62, 0
2, 71760, Note_on_c, 1, 74, 38
2, 71916, Note_off_c, 1, 74, 0
2, 72240, Note_on_c, 1, 72, 37
2, 72396, Note_off_c, 1, 72, 0
2, 72720, Note_on_c, 1, 64, 36
2, 72876, Note_off_c, 1, 64, 0
2, 72960, Note_on_c, 1, 65, 39
2, 73320, Note_off_c, 1, 65, 0
2, 73680, Note_on_c, 1, 69, 45
2, 73920, Note_off_c, 1, 69, 0
2, 73920, Note_on_c, 1, 67, 47
2, 74076, Note_off_c, 1, 67, 0
2, 74160, Note_on_c, 1, 67, 49
2, 74316, Note_off_c, 1, 67, 0
2, 74640, Note_on_c, 1, 70, 54
2, 74880, Note_off_c, 1, 70, 0
2, 74880, Note_on_c, 1, 69, 56
2, 75036, Note_off_c, 1, 69, 0
2, 75120, Note_on_c, 1, 69, 58
2, 75276, Note_off_c, 1, 69, 0
2, 75600, Note_on_c, 1, 81, 62
2, 75840, Note_off_c, 1, 81, 0
2, 75840, Note_on_c, 1, 79, 64
2, 75996, Note_off_c, 1, 79, 0
2, 76080, Note_on_c, 1, 79, 66
2, 76236, Note_off_c, 1, 79, 0
2, 76560, Note_on_c, 1, 82, 71
2, 76716, Note_off_c, 1, 82, 0
2, 76800, Note_on_c, 1, 82, 73
2, 77760, Note_off_c, 1, 82, 0
2, 77760, Note_on_c, 1, 81, 53
2, 78240, Note_off_c, 1, 81, 0
2, 78720, Note_on_c, 1, 71, 51
2, 78760, Note_off_c, 1, 71, 0
2, 78760, Note_on_c, 1, 72, 51
2, 78800, Note_off_c, 1, 72, 0
2, 78800, Note_on_c, 1, 74, 51
2, 78840, Note_off_c, 1, 74, 0
2, 78840, Note_on_c, 1, 72, 51
2, 79920, Note_on_c, 1, 77, 50
2, 79930, Note_off_c, 1, 72, 0
2, 80160, Note_off_c, 1, 77, 0
2, 80160, Note_on_c, 1, 76, 50
2, 80400, Note_off_c, 1, 76, 0
2, 80400, Note_on_c, 1, 74, 49
2, 80593, Note_off_c, 1, 74, 0
2, 80640, Note_on_c, 1, 74, 49
2, 80720, Note_off_c, 1, 74, 0
2, 80720, Note_on_c, 1, 76, 47
2, 80800, Note_off_c, 1, 76, 0
2, 80800, Note_on_c, 1, 74, 46
2, 80880, Note_off_c, 1, 74, 0
2, 80880, Note_on_c, 1, 72, 45
2, 81073, Note_off_c, 1, 72, 0
2, 81360, Note_on_c, 1, 72, 48
2, 81516, Note_off_c, 1, 72, 0
2, 81600, Note_on_c, 1, 71, 48
2, 81840, Note_off_c, 1, 71, 0
2, 81840, Note_on_c, 1, 72, 48
2, 82080, Note_off_c, 1, 72, 0
2, 82080, Note_on_c, 1, 74, 47
2, 82320, Note_off_c, 1, 74, 0
2, 82320, Note_on_c, 1, 72, 47
2, 82513, Note_off_c, 1, 72, 0
2, 82560, Note_on_c, 1, 72, 47
2, 82640, Note_off_c, 1, 72, 0
2, 82640, Note_on_c, 1, 74, 45
2, 82720, Note_off_c, 1, 74, 0
2, 82720, Note_on_c, 1, 72, 44
2, 82800, Note_off_c, 1, 72, 0
2, 82800, Note_on_c, 1, 70, 43
2, 82956, Note_off_c, 1, 70, 0
2, 83280, Note_on_c, 1, 70, 46
2, 83436, Note_off_c, 1, 70, 0
2, 83520, Note_on_c, 1, 70, 44
2, 83600, Note_off_c, 1, 70, 0
2, 83600, Note_on_c, 1, 72, 43
2, 83680, Note_off_c, 1, 72, 0
2, 83680, Note_on_c, 1, 70, 42
2, 83760, Note_off_c, 1, 70, 0
2, 83760, Note_on_c, 1, 69, 41
2, 83916, Note_off_c, 1, 69, 0
2, 84240, Note_on_c, 1, 69, 45
2, 84396, Note_off_c, 1, 69, 0
2, 84480, Note_on_c, 1, 69, 43
2, 84560, Note_off_c, 1, 69, 0
2, 84560, Note_on_c, 1, 70, 42
2, 84640, Note_off_c, 1, 70, 0
2, 84640, Note_on_c, 1, 69, 41
2, 84720, Note_off_c, 1, 69, 0
2, 84720, Note_on_c, 1, 67, 40
2, 84876, Note_off_c, 1, 67, 0
2, 84960, Note_on_c, 1, 70, 44
2, 85200, Note_off_c, 1, 70, 0
2, 85200, Note_on_c, 1, 67, 38
2, 85356, Note_off_c, 1, 67, 0
2, 85440, Note_on_c, 1, 64, 43
2, 85680, Note_off_c, 1, 64, 0
2, 85680, Note_on_c, 1, 65, 38
2, 85836, Note_off_c, 1, 65, 0
2, 86400, Note_on_c, 1, 65, 42
2, 86520, Note_off_c, 1, 65, 0
2, 86520, Note_on_c, 1, 67, 42
2, 86640, Note_off_c, 1, 67, 0
2, 86640, Note_on_c, 1, 65, 42
2, 86760, Note_off_c, 1, 65, 0
2, 86760, Note_on_c, 1, 67, 41
2, 86880, Note_off_c, 1, 67, 0
2, 86880, Note_on_c, 1, 65, 41
2, 86960, Note_off_c, 1, 65, 0
2, 86960, Note_on_c, 1, 67, 41
2, 87040, Note_off_c, 1, 67, 0
2, 87040, Note_on_c, 1, 65, 41
2, 87120, Note_off_c, 1, 65, 0
2, 87120, Note_on_c, 1, 67, 41
2, 87240, Note_off_c, 1, 67, 0
2, 87240, Note_on_c, 1, 69, 41
2, 87360, Note_off_c, 1, 69, 0
2, 87360, Note_on_c, 1, 65, 41
2, 87520, Note_off_c, 1, 65, 0
2, 87520, Note_on_c, 1, 64, 40
2, 87680, Note_off_c, 1, 64, 0
2, 87680, Note_on_c, 1, 67, 40
2, 87840, Note_off_c, 1, 67, 0
2, 87840, Note_on_c, 1, 65, 40
2, 88000, Note_off_c, 1, 65, 0
2, 88000, Note_on_c, 1, 64, 40
2, 88160, Note_off_c, 1, 64, 0
2, 88160, Note_on_c, 1, 70, 40
2, 88320, Note_off_c, 1, 70, 0
2, 88320, Note_on_c, 1, 67, 41
2, 88480, Note_off_c, 1, 67, 0
2, 88480, Note_on_c, 1, 65, 40
2, 88640, Note_off_c, 1, 65, 0
2, 88640, Note_on_c, 1, 69, 39
2, 88800, Note_off_c, 1, 69, 0
2, 88800, Note_on_c, 1, 67, 38
2, 88960, Note_off_c, 1, 67, 0
2, 88960, Note_on_c, 1, 65, 37
2, 89120, Note_off_c, 1, 65, 0
2, 89120, Note_on_c, 1, 72, 36
2, 89280, Note_off_c, 1, 72, 0
2, 89280, Note_on_c, 1, 69, 35
2, 89436, Note_off_c, 1, 69, 0
2, 90240, Note_on_c, 1, 67, 75
2, 90400, Note_off_c, 1, 67, 0
2, 90400, Note_on_c, 1, 70, 76
2, 90560, Note_off_c, 1, 70, 0
2, 90560, Note_on_c, 1, 74, 77
2, 90720, Note_off_c, 1, 74, 0
2, 90720, Note_on_c, 1, 79, 78
2, 90880, Note_off_c, 1, 79, 0
2, 90880, Note_on_c, 1, 82, 79
2, 91040, Note_off_c, 1, 82, 0
2, 91040, Note_on_c, 1, 86, 80
2, 91175, Note_off_c, 1, 86, 0
2, 91200, Note_on_c, 1, 86, 82
2, 91320, Note_off_c, 1, 86, 0
2, 91320, Note_on_c, 1, 84, 81
2, 91440, Note_off_c, 1, 84, 0
2, 91440, Note_on_c, 1, 82, 79
2, 91560, Note_off_c, 1, 82, 0
2, 91560, Note_on_c, 1, 81, 78
2, 91665, Note_off_c, 1, 81, 0
2, 91680, Note_on_c, 1, 81, 76
2, 91800, Note_off_c, 1, 81, 0
2, 91800, Note_on_c, 1, 79, 75
2, 91920, Note_off_c, 1, 79, 0
2, 91920, Note_on_c, 1, 77, 74
2, 92040, Note_off_c, 1, 77, 0
2, 92040, Note_on_c, 1, 76, 72
2, 92140, Note_off_c, 1, 76, 0
2, 92160, Note_on_c, 1, 77, 71
2, 93120, Note_off_c, 1, 77, 0
2, 94240, Note_on_c, 1, 81, 68
2, 94400, Note_off_c, 1, 81, 0
2, 94400, Note_on_c, 1, 82, 67
2, 94560, Note_off_c, 1, 82, 0
2, 94560, Note_on_c, 1, 84, 63
2, 94664, Note_off_c, 1, 84, 0
2, 94720, Note_on_c, 1, 78, 67
2, 94880, Note_off_c, 1, 78, 0
2, 94880, Note_on_c, 1, 79, 64
2, 95040, Note_off_c, 1, 79, 0
2, 95040, Note_on_c, 1, 81, 62
2, 95144, Note_off_c, 1, 81, 0
2, 95200, Note_on_c, 1, 72, 66
2, 95360, Note_off_c, 1, 72, 0
2, 95360, Note_on_c, 1, 74, 63
2, 95520, Note_off_c, 1, 74, 0
2, 95520, Note_on_c, 1, 75, 60
2, 95624, Note_off_c, 1, 75, 0
2, 95680, Note_on_c, 1, 69, 66
2, 95840, Note_off_c, 1, 69, 0
2, 95840, Note_on_c, 1, 72, 63
2, 95944, Note_off_c, 1, 72, 0
2, 96000, Note_on_c, 1, 70, 61
2, 96960, Note_off_c, 1, 70, 0
2, 98080, Note_on_c, 1, 74, 62
2, 98240, Note_off_c, 1, 74, 0
2, 98240, Note_on_c, 1, 75, 61
2, 98400, Note_off_c, 1, 75, 0
2, 98400, Note_on_c, 1, 77, 58
2, 98504, Note_off_c, 1, 77, 0
2, 98560, Note_on_c, 1, 71, 61
2, 98720, Note_off_c, 1, 71, 0
2, 98720, Note_on_c, 1, 72, 58
2, 98880, Note_off_c, 1, 72, 0
2, 98880, Note_on_c, 1, 74, 56
2, 98984, Note_off_c, 1, 74, 0
2, 99040, Note_on_c, 1, 65, 60
2, 99200, Note_off_c, 1, 65, 0
2, 99200, Note_on_c, 1, 67, 59
2, 99360, Note_off_c, 1, 67, 0
2, 99360, Note_on_c, 1, 68, 56
2, 99464, Note_off_c, 1, 68, 0
2, 99520, Note_on_c, 1, 62, 59
2, 99680, Note_off_c, 1, 62, 0
2, 99680, Note_on_c, 1, 65, 56
2, 99784, Note_off_c, 1, 65, 0
2, 99840, Note_on_c, 1, 64, 55
2, 100800, Note_off_c, 1, 64, 0
2, 101920, Note_on_c, 1, 82, 52
2, 102080, Note_off_c, 1, 82, 0
2, 102080, Note_on_c, 1, 81, 49
2, 102240, Note_off_c, 1, 81, 0
2, 102240, Note_on_c, 1, 82, 47
2, 102400, Note_off_c, 1, 82, 0
2, 102400, Note_on_c, 1, 81, 45
2, 102560, Note_off_c, 1, 81, 0
2, 102560, Note_on_c, 1, 82, 43
2, 102688, Note_off_c, 1, 82, 0
2, 102880, Note_on_c, 1, 70, 48
2, 103040, Note_off_c, 1, 70, 0
2, 103040, Note_on_c, 1, 69, 46
2, 103200, Note_off_c, 1, 69, 0
2, 103200, Note_on_c, 1, 70, 44
2, 103360, Note_off_c, 1, 70, 0
2, 103360, Note_on_c, 1, 69, 42
2, 103520, Note_off_c, 1, 69, 0
2, 103520, Note_on_c, 1, 70, 40
2, 103648, Note_off_c, 1, 70, 0
2, 103680, Note_on_c, 1, 69, 79
2, 103968, Note_off_c, 1, 69, 0
2, 104240, Note_on_c, 1, 75, 74
2, 104445, Note_off_c, 1, 75, 0
2, 105600, Note_on_c, 1, 74, 77
2, 105840, Note_off_c, 1, 74, 0
2, 106080, Note_on_c, 1, 81, 77
2, 106320, Note_off_c, 1, 81, 0
2, 106560, Note_on_c, 1, 82, 76
2, 106800, Note_off_c, 1, 82, 0
2, 107040, Note_on_c, 1, 75, 75
2, 107280, Note_off_c, 1, 75, 0
2, 107520, Note_on_c, 1, 74, 75
2, 107760, Note_off_c, 1, 74, 0
2, 108000, Note_on_c, 1, 81, 74
2, 108240, Note_off_c, 1, 81, 0
2, 108480, Note_on_c, 1, 82, 73
2, 108720, Note_off_c, 1, 82, 0
2, 108960, Note_on_c, 1, 72, 73
2, 109200, Note_off_c, 1, 72, 0
2, 109440, Note_on_c, 1, 70, 72
2, 109680, Note_off_c, 1, 70, 0
2, 109680, Note_on_c, 1, 79, 72
2, 109920, Note_off_c, 1, 79, 0
2, 109920, Note_on_c, 1, 71, 71
2, 110160, Note_off_c, 1, 71, 0
2, 110160, Note_on_c, 1, 77, 71
2, 110400, Note_off_c, 1, 77, 0
2, 110400, Note_on_c, 1, 72, 71
2, 110640, Note_off_c, 1, 72, 0
2, 110640, Note_on_c, 1, 75, 70
2, 111120, Note_off_c, 1, 75, 0
2, 111120, Note_on_c, 1, 74, 70
2, 111360, Note_off_c, 1, 74, 0
2, 111360, Note_on_c, 1, 75, 62
2, 111440, Note_off_c, 1, 75, 0
2, 111440, Note_on_c, 1, 77, 63
2, 111520, Note_off_c, 1, 77, 0
2, 111520, Note_on_c, 1, 75, 63
2, 111600, Note_off_c, 1, 75, 0
2, 111600, Note_on_c, 1, 77, 64
2, 111680, Note_off_c, 1, 77, 0
2, 111680, Note_on_c, 1, 75, 64
2, 111760, Note_off_c, 1, 75, 0
2, 111760, Note_on_c, 1, 77, 65
2, 111840, Note_off_c, 1, 77, 0
2, 111840, Note_on_c, 1, 75, 66
2, 111920, Note_off_c, 1, 75, 0
2, 111920, Note_on_c, 1, 77, 66
2, 112000, Note_off_c, 1, 77, 0
2, 112000, Note_on_c, 1, 75, 67
2, 112080, Note_off_c, 1, 75, 0
2, 112080, Note_on_c, 1, 74, 67
2, 112200, Note_off_c, 1, 74, 0
2, 112200, Note_on_c, 1, 72, 68
2, 112320, Note_off_c, 1, 72, 0
2, 112320, Note_on_c, 1, 70, 69
2, 112680, Note_off_c, 1, 70, 0
2, 112800, Note_on_c, 1, 69, 67
2, 112880, Note_off_c, 1, 69, 0
2, 112880, Note_on_c, 1, 70, 67
2, 112960, Note_off_c, 1, 70, 0
2, 112960, Note_on_c, 1, 69, 67
2, 113040, Note_off_c, 1, 69, 0
2, 113040, Note_on_c, 1, 67, 67
2, 113160, Note_off_c, 1, 67, 0
2, 113160, Note_on_c, 1, 69, 67
2, 113280, Note_off_c, 1, 69, 0
2, 113280, Note_on_c, 1, 70, 67
2, 113520, Note_off_c, 1, 70, 0
2, 113520, Note_on_c, 1, 79, 66
2, 113760, Note_off_c, 1, 79, 0
2, 113760, Note_on_c, 1, 71, 66
2, 114000, Note_off_c, 1, 71, 0
2, 114000, Note_on_c, 1, 77, 66
2, 114240, Note_off_c, 1, 77, 0
2, 114240, Note_on_c, 1, 72, 65
2, 114480, Note_off_c, 1, 72, 0
2, 114480, Note_on_c, 1, 75, 65
2, 114960, Note_off_c, 1, 75, 0
2, 114960, Note_on_c, 1, 74, 64
2, 115200, Note_off_c, 1, 74, 0
2, 115200, Note_on_c, 1, 75, 59
2, 115280, Note_off_c, 1, 75, 0
2, 115280, Note_on_c, 1, 77, 59
2, 115360, Note_off_c, 1, 77, 0
2, 115360, Note_on_c, 1, 75, 60
2, 115440, Note_off_c, 1, 75, 0
2, 115440, Note_on_c, 1, 77, 60
2, 115520, Note_off_c, 1, 77, 0
2, 115520, Note_on_c, 1, 75, 61
2, 115600, Note_off_c, 1, 75, 0
2, 115600, Note_on_c, 1, 77, 61
2, 115680, Note_off_c, 1, 77, 0
2, 115680, Note_on_c, 1, 75, 62
2, 115760, Note_off_c, 1, 75, 0
2, 115760, Note_on_c, 1, 77, 63
2, 115840, Note_off_c, 1, 77, 0
2, 115840, Note_on_c, 1, 75, 63
2, 115920, Note_off_c, 1, 75, 0
2, 115920, Note_on_c, 1, 74, 64
2, 116040, Note_off_c, 1, 74, 0
2, 116040, Note_on_c, 1, 72, 64
2, 116160, Note_off_c, 1, 72, 0
2, 116160, Note_on_c, 1, 70, 65
2, 116520, Note_off_c, 1, 70, 0
2, 116640, Note_on_c, 1, 69, 62
2, 116720, Note_off_c, 1, 69, 0
2, 116720, Note_on_c, 1, 70, 62
2, 116800, Note_off_c, 1, 70, 0
2, 116800, Note_on_c, 1, 69, 62
2, 116880, Note_off_c, 1, 69, 0
2, 116880, Note_on_c, 1, 67, 62
2, 117000, Note_off_c, 1, 67, 0
2, 117000, Note_on_c, 1, 69, 62
2, 117120, Note_off_c, 1, 69, 0
2, 117120, Note_on_c, 1, 67, 62
2, 117600, Note_off_c, 1, 67, 0
2, 117840, Note_on_c, 1, 67, 51
2, 118080, Note_off_c, 1, 67, 0
2, 118080, Note_on_c, 1, 70, 53
2, 118560, Note_off_c, 1, 70, 0
2, 118800, Note_on_c, 1, 70, 57
2, 119040, Note_off_c, 1, 70, 0
2, 119040, Note_on_c, 1, 75, 59
2, 119520, Note_off_c, 1, 75, 0
2, 119760, Note_on_c, 1, 75, 63
2, 120000, Note_off_c, 1, 75, 0
2, 120000, Note_on_c, 1, 79, 65
2, 120480, Note_off_c, 1, 79, 0
2, 120720, Note_on_c, 1, 79, 69
2, 120885, Note_off_c, 1, 79, 0
2, 120960, Note_on_c, 1, 80, 72
2, 121080, Note_off_c, 1, 80, 0
2, 121080, Note_on_c, 1, 82, 71
2, 121200, Note_off_c, 1, 82, 0
2, 121200, Note_on_c, 1, 80, 71
2, 121320, Note_off_c, 1, 80, 0
2, 121320, Note_on_c, 1, 79, 70
2, 121440, Note_off_c, 1, 79, 0
2, 121440, Note_on_c, 1, 77, 69
2, 121560, Note_off_c, 1, 77, 0
2, 121560, Note_on_c, 1, 79, 68
2, 121680, Note_off_c, 1, 79, 0
2, 121680, Note_on_c, 1, 77, 67
2, 121800, Note_off_c, 1, 77, 0
2, 121800, Note_on_c, 1, 75, 66
2, 121920, Note_off_c, 1, 75, 0
2, 121920, Note_on_c, 1, 74, 65
2, 122040, Note_off_c, 1, 74, 0
2, 122040, Note_on_c, 1, 75, 64
2, 122160, Note_off_c, 1, 75, 0
2, 122160, Note_on_c, 1, 74, 63
2, 122280, Note_off_c, 1, 74, 0
2, 122280, Note_on_c, 1, 72, 62
2, 122400, Note_off_c, 1, 72, 0
2, 122400, Note_on_c, 1, 70, 61
2, 122520, Note_off_c, 1, 70, 0
2, 122520, Note_on_c, 1, 72, 60
2, 122640, Note_off_c, 1, 72, 0
2, 122640, Note_on_c, 1, 70, 59
2, 122760, Note_off_c, 1, 70, 0
2, 122760, Note_on_c, 1, 68, 58
2, 122880, Note_off_c, 1, 68, 0
2, 123000, Note_on_c, 1, 67, 40
2, 123120, Note_off_c, 1, 67, 0
2, 123120, Note_on_c, 1, 68, 41
2, 123240, Note_off_c, 1, 68, 0
2, 123240, Note_on_c, 1, 67, 42
2, 123360, Note_off_c, 1, 67, 0
2, 123480, Note_on_c, 1, 70, 43
2, 123600, Note_off_c, 1, 70, 0
2, 123600, Note_on_c, 1, 72, 43
2, 123720, Note_off_c, 1, 72, 0
2, 123720, Note_on_c, 1, 70, 44
2, 123840, Note_off_c, 1, 70, 0
2, 123960, Note_on_c, 1, 75, 45
2, 124080, Note_off_c, 1, 75, 0
2, 124080, Note_on_c, 1, 77, 46
2, 124200, Note_off_c, 1, 77, 0
2, 124200, Note_on_c, 1, 75, 47
2, 124320, Note_off_c, 1, 75, 0
2, 124440, Note_on_c, 1, 79, 48
2, 124560, Note_off_c, 1, 79, 0
2, 124560, Note_on_c, 1, 80, 48
2, 124680, Note_off_c, 1, 80, 0
2, 124680, Note_on_c, 1, 79, 49
2, 124765, Note_off_c, 1, 79, 0
2, 124800, Note_on_c, 1, 80, 63
2, 124920, Note_off_c, 1, 80, 0
2, 124920, Note_on_c, 1, 82, 63
2, 125040, Note_off_c, 1, 82, 0
2, 125040, Note_on_c, 1, 80, 62
2, 125160, Note_off_c, 1, 80, 0
2, 125160, Note_on_c, 1, 79, 62
2, 125280, Note_off_c, 1, 79, 0
2, 125280, Note_on_c, 1, 77, 61
2, 125400, Note_off_c, 1, 77, 0
2, 125400, Note_on_c, 1, 79, 61
2, 125520, Note_off_c, 1, 79, 0
2, 125520, Note_on_c, 1, 77, 60
2, 125640, Note_off_c, 1, 77, 0
2, 125640, Note_on_c, 1, 75, 60
2, 125760, Note_off_c, 1, 75, 0
2, 125760, Note_on_c, 1, 74, 59
2, 125880, Note_off_c, 1, 74, 0
2, 125880, Note_on_c, 1, 75, 59
2, 126000, Note_off_c, 1, 75, 0
2, 126000, Note_on_c, 1, 74, 58
2, 126120, Note_off_c, 1, 74, 0
2, 126120, Note_on_c, 1, 72, 58
2, 126240, Note_off_c, 1, 72, 0
2, 126240, Note_on_c, 1, 70, 57
2, 126360, Note_off_c, 1, 70, 0
2, 126360, Note_on_c, 1, 72, 57
2, 126480, Note_off_c, 1, 72, 0
2, 126480, Note_on_c, 1, 70, 56
2, 126600, Note_off_c, 1, 70, 0
2, 126600, Note_on_c, 1, 68, 56
2, 126720, Note_off_c, 1, 68, 0
2, 126720, Note_on_c, 1, 67, 55
2, 126840, Note_off_c, 1, 67, 0
2, 126840, Note_on_c, 1, 69, 55
2, 126960, Note_off_c, 1, 69, 0
2, 126960, Note_on_c, 1, 70, 54
2, 127080, Note_off_c, 1, 70, 0
2, 127080, Note_on_c, 1, 69, 54
2, 127200, Note_off_c, 1, 69, 0
2, 127200, Note_on_c, 1, 70, 53
2, 127320, Note_off_c, 1, 70, 0
2, 127320, Note_on_c, 1, 71, 53
2, 127440, Note_off_c, 1, 71, 0
2, 127440, Note_on_c, 1, 72, 52
2, 127560, Note_off_c, 1, 72, 0
2, 127560, Note_on_c, 1, 71, 52
2, 127680, Note_off_c, 1, 71, 0
2, 127680, Note_on_c, 1, 72, 51
2, 127800, Note_off_c, 1, 72, 0
2, 127800, Note_on_c, 1, 74, 51
2, 127920, Note_off_c, 1, 74, 0
2, 127920, Note_on_c, 1, 75, 50
2, 128040, Note_off_c, 1, 75, 0
2, 128040, Note_on_c, 1, 74, 50
2, 128160, Note_off_c, 1, 74, 0
2, 128160, Note_on_c, 1, 75, 49
2, 128280, Note_off_c, 1, 75, 0
2, 128280, Note_on_c, 1, 78, 49
2, 128400, Note_off_c, 1, 78, 0
2, 128400, Note_on_c, 1, 79, 48
2, 128520, Note_off_c, 1, 79, 0
2, 128520, Note_on_c, 1, 78, 48
2, 128640, Note_off_c, 1, 78, 0
2, 128640, Note_on_c, 1, 79, 47
2, 128760, Note_off_c, 1, 79, 0
2, 128760, Note_on_c, 1, 81, 47
2, 128880, Note_off_c, 1, 81, 0
2, 128880, Note_on_c, 1, 82, 46
2, 129000, Note_off_c, 1, 82, 0
2, 129000, Note_on_c, 1, 81, 46
2, 129120, Note_off_c, 1, 81, 0
2, 129120, Note_on_c, 1, 82, 45
2, 129240, Note_off_c, 1, 82, 0
2, 129240, Note_on_c, 1, 81, 45
2, 129360, Note_off_c, 1, 81, 0
2, 129360, Note_on_c, 1, 82, 44
2, 129480, Note_off_c, 1, 82, 0
2, 129480, Note_on_c, 1, 81, 44
2, 129600, Note_off_c, 1, 81, 0
2, 129600, Note_on_c, 1, 82, 41
2, 129960, Note_off_c, 1, 82, 0
2, 130080, Note_on_c, 1, 76, 67
2, 130440, Note_off_c, 1, 76, 0
2, 130560, Note_on_c, 1, 77, 63
2, 130920, Note_off_c, 1, 77, 0
2, 131160, Note_on_c, 1, 82, 58
2, 131280, Note_off_c, 1, 82, 0
2, 131280, Note_on_c, 1, 79, 57
2, 131400, Note_off_c, 1, 79, 0
2, 131400, Note_on_c, 1, 76, 56
2, 131520, Note_off_c, 1, 76, 0
2, 131520, Note_on_c, 1, 77, 54
2, 131880, Note_off_c, 1, 77, 0
2, 132120, Note_on_c, 1, 82, 47
2, 132240, Note_off_c, 1, 82, 0
2, 132240, Note_on_c, 1, 79, 46
2, 132360, Note_off_c, 1, 79, 0
2, 132360, Note_on_c, 1, 76, 45
2, 132480, Note_off_c, 1, 76, 0
2, 132480, Note_on_c, 1, 77, 43
2, 132840, Note_off_c, 1, 77, 0
2, 133200, Note_on_c, 1, 78, 45
2, 133320, Note_off_c, 1, 78, 0
2, 133320, Note_on_c, 1, 79, 47
2, 133440, Note_off_c, 1, 79, 0
2, 133440, Note_on_c, 1, 76, 49
2, 133560, Note_off_c, 1, 76, 0
2, 133560, Note_on_c, 1, 77, 51
2, 133680, Note_off_c, 1, 77, 0
2, 133680, Note_on_c, 1, 74, 53
2, 133800, Note_off_c, 1, 74, 0
2, 133800, Note_on_c, 1, 75, 54
2, 133920, Note_off_c, 1, 75, 0
2, 133920, Note_on_c, 1, 73, 56
2, 134040, Note_off_c, 1, 73, 0
2, 134040, Note_on_c, 1, 74, 58
2, 134160, Note_off_c, 1, 74, 0
2, 134160, Note_on_c, 1, 71, 60
2, 134280, Note_off_c, 1, 71, 0
2, 134280, Note_on_c, 1, 72, 62
2, 134400, Control_c, 1, 64, 0
2, 134400, Note_off_c, 1, 72, 0
2, 134400, Note_on_c, 1, 70, 65
2, 134520, Note_off_c, 1, 70, 0
2, 134520, Note_on_c, 1, 72, 65
2, 134640, Note_off_c, 1, 72, 0
2, 134640, Note_on_c, 1, 70, 65
2, 134760, Note_off_c, 1, 70, 0
2, 134760, Note_on_c, 1, 72, 64
2, 134880, Note_off_c, 1, 72, 0
2, 134880, Note_on_c, 1, 70, 64
2, 134960, Note_off_c, 1, 70, 0
2, 134960, Note_on_c, 1, 72, 63
2, 135040, Note_off_c, 1, 72, 0
2, 135040, Note_on_c, 1, 70, 63
2, 135120, Note_off_c, 1, 70, 0
2, 135120, Note_on_c, 1, 72, 63
2, 135240, Note_off_c, 1, 72, 0
2, 135240, Note_on_c, 1, 74, 62
2, 135360, Note_off_c, 1, 74, 0
2, 135360, Note_on_c, 1, 70, 62
2, 135520, Note_off_c, 1, 70, 0
2, 135520, Note_on_c, 1, 69, 61
2, 135680, Note_off_c, 1, 69, 0
2, 135680, Note_on_c, 1, 72, 61
2, 135840, Note_off_c, 1, 72, 0
2, 135840, Note_on_c, 1, 70, 60
2, 136000, Note_off_c, 1, 70, 0
2, 136000, Note_on_c, 1, 69, 59
2, 136160, Note_off_c, 1, 69, 0
2, 136160, Note_on_c, 1, 75, 59
2, 136320, Note_off_c, 1, 75, 0
2, 136320, Note_on_c, 1, 72, 59
2, 136480, Note_off_c, 1, 72, 0
2, 136480, Note_on_c, 1, 70, 58
2, 136640, Note_off_c, 1, 70, 0
2, 136640, Note_on_c, 1, 74, 57
2, 136800, Note_off_c, 1, 74, 0
2, 136800, Note_on_c, 1, 72, 55
2, 136960, Note_off_c, 1, 72, 0
2, 136960, Note_on_c, 1, 70, 53
2, 137120, Note_off_c, 1, 70, 0
2, 137120, Note_on_c, 1, 77, 52
2, 137280, Note_off_c, 1, 77, 0
2, 137280, Note_on_c, 1, 74, 50
2, 137590, Note_off_c, 1, 74, 0
2, 138320, Note_on_c, 1, 79, 79
2, 138600, Note_off_c, 1, 79, 0
2, 138800, Note_on_c, 1, 77, 74
2, 139070, Note_off_c, 1, 77, 0
2, 139200, Note_on_c, 1, 77, 71
2, 139320, Note_off_c, 1, 77, 0
2, 139320, Note_on_c, 1, 82, 72
2, 139440, Note_off_c, 1, 82, 0
2, 139440, Note_on_c, 1, 81, 73
2, 139560, Note_off_c, 1, 81, 0
2, 139560, Note_on_c, 1, 82, 74
2, 139680, Note_off_c, 1, 82, 0
2, 139680, Note_on_c, 1, 86, 75
2, 139800, Note_off_c, 1, 86, 0
2, 139800, Note_on_c, 1, 82, 76
2, 139920, Note_off_c, 1, 82, 0
2, 139920, Note_on_c, 1, 81, 77
2, 140040, Note_off_c, 1, 81, 0
2, 140040, Note_on_c, 1, 82, 78
2, 140160, Note_off_c, 1, 82, 0
2, 140160, Note_on_c, 1, 77, 79
2, 140400, Note_off_c, 1, 77, 0
2, 140400, Note_on_c, 1, 75, 76
2, 140590, Note_off_c, 1, 75, 0
2, 140640, Note_on_c, 1, 74, 73
2, 140950, Note_off_c, 1, 74, 0
2, 142080, Note_on_c, 1, 58, 55
2, 142200, Note_off_c, 1, 58, 0
2, 142200, Note_on_c, 1, 60, 55
2, 142320, Note_off_c, 1, 60, 0
2, 142320, Note_on_c, 1, 58, 55
2, 142440, Note_off_c, 1, 58, 0
2, 142440, Note_on_c, 1, 60, 54
2, 142560, Note_off_c, 1, 60, 0
2, 142560, Note_on_c, 1, 58, 54
2, 142640, Note_off_c, 1, 58, 0
2, 142640, Note_on_c, 1, 60, 54
2, 142720, Note_off_c, 1, 60, 0
2, 142720, Note_on_c, 1, 58, 53
2, 142800, Note_off_c, 1, 58, 0
2, 142800, Note_on_c, 1, 60, 53
2, 142920, Note_off_c, 1, 60, 0
2, 142920, Note_on_c, 1, 62, 53
2, 143040, Note_off_c, 1, 62, 0
2, 143040, Note_on_c, 1, 58, 52
2, 143200, Note_off_c, 1, 58, 0
2, 143200, Note_on_c, 1, 57, 52
2, 143360, Note_off_c, 1, 57, 0
2, 143360, Note_on_c, 1, 60, 52
2, 143520, Note_off_c, 1, 60, 0
2, 143520, Note_on_c, 1, 58, 51
2, 143680, Note_off_c, 1, 58, 0
2, 143680, Note_on_c, 1, 57, 51
2, 143840, Note_off_c, 1, 57, 0
2, 143840, Note_on_c, 1, 63, 50
2, 144000, Note_off_c, 1, 63, 0
2, 144000, Note_on_c, 1, 60, 51
2, 144160, Note_off_c, 1, 60, 0
2, 144160, Note_on_c, 1, 58, 49
2, 144320, Note_off_c, 1, 58, 0
2, 144320, Note_on_c, 1, 62, 48
2, 144480, Note_off_c, 1, 62, 0
2, 144480, Note_on_c, 1, 60, 47
2, 144640, Note_off_c, 1, 60, 0
2, 144640, Note_on_c, 1, 58, 46
2, 144800, Note_off_c, 1, 58, 0
2, 144800, Note_on_c, 1, 65, 44
2, 144960, Note_off_c, 1, 65, 0
2, 144960, Note_on_c, 1, 62, 43
2, 145270, Note_off_c, 1, 62, 0
2, 145920, Note_on_c, 1, 67, 73
2, 146080, Note_off_c, 1, 67, 0
2, 146080, Note_on_c, 1, 72, 74
2, 146240, Note_off_c, 1, 72, 0
2, 146240, Note_on_c, 1, 75, 75
2, 146400, Note_off_c, 1, 75, 0
2, 146400, Note_on_c, 1, 72, 76
2, 146560, Note_off_c, 1, 72, 0
2, 146560, Note_on_c, 1, 75, 77
2, 146720, Note_off_c, 1, 75, 0
2, 146720, Note_on_c, 1, 79, 78
2, 146840, Note_off_c, 1, 79, 0
2, 146880, Note_on_c, 1, 79, 79
2, 147000, Note_off_c, 1, 79, 0
2, 147000, Note_on_c, 1, 77, 77
2, 147120, Note_off_c, 1, 77, 0
2, 147120, Note_on_c, 1, 75, 75
2, 147240, Note_off_c, 1, 75, 0
2, 147240, Note_on_c, 1, 74, 74
2, 147330, Note_off_c, 1, 74, 0
2, 147360, Note_on_c, 1, 74, 72
2, 147480, Note_off_c, 1, 74, 0
2, 147480, Note_on_c, 1, 72, 70
2, 147600, Note_off_c, 1, 72, 0
2, 147600, Note_on_c, 1, 70, 68
2, 147720, Note_off_c, 1, 70, 0
2, 147720, Note_on_c, 1, 69, 66
2, 147810, Note_off_c, 1, 69, 0
2, 147840, Note_on_c, 1, 70, 63
2, 148800, Note_off_c, 1, 70, 0
2, 149040, Note_on_c, 1, 70, 61
2, 149280, Note_off_c, 1, 70, 0
2, 149280, Note_on_c, 1, 69, 63
2, 149520, Note_off_c, 1, 69, 0
2, 149520, Note_on_c, 1, 68, 65
2, 149710, Note_off_c, 1, 68, 0
2, 149760, Note_on_c, 1, 67, 66
2, 150000, Note_off_c, 1, 67, 0
2, 150000, Note_on_c, 1, 69, 64
2, 150120, Note_off_c, 1, 69, 0
2, 150120, Note_on_c, 1, 70, 64
2, 150240, Note_off_c, 1, 70, 0
2, 150240, Note_on_c, 1, 72, 63
2, 150360, Note_off_c, 1, 72, 0
2, 150360, Note_on_c, 1, 74, 62
2, 150480, Note_off_c, 1, 74, 0
2, 150480, Note_on_c, 1, 75, 62
2, 150600, Note_off_c, 1, 75, 0
2, 150600, Note_on_c, 1, 77, 61
2, 150720, Note_off_c, 1, 77, 0
2, 150720, Note_on_c, 1, 79, 60
2, 150840, Note_off_c, 1, 79, 0
2, 150840, Note_on_c, 1, 81, 59
2, 150960, Note_off_c, 1, 81, 0
2, 150960, Note_on_c, 1, 82, 59
2, 151080, Note_off_c, 1, 82, 0
2, 151080, Note_on_c, 1, 81, 58
2, 151200, Note_off_c, 1, 81, 0
2, 151200, Note_on_c, 1, 82, 57
2, 151320, Note_off_c, 1, 82, 0
2, 151320, Note_on_c, 1, 81, 57
2, 151440, Note_off_c, 1, 81, 0
2, 151440, Note_on_c, 1, 82, 56
2, 151560, Note_off_c, 1, 82, 0
2, 151560, Note_on_c, 1, 79, 55
2, 151680, Note_off_c, 1, 79, 0
2, 151680, Note_on_c, 1, 77, 55
2, 152640, Note_off_c, 1, 77, 0
2, 152880, Note_on_c, 1, 70, 57
2, 153120, Note_off_c, 1, 70, 0
2, 153120, Note_on_c, 1, 69, 59
2, 153360, Note_off_c, 1, 69, 0
2, 153360, Note_on_c, 1, 68, 61
2, 153550, Note_off_c, 1, 68, 0
2, 153600, Note_on_c, 1, 67, 63
2, 153840, Note_off_c, 1, 67, 0
2, 153840, Note_on_c, 1, 69, 61
2, 153960, Note_off_c, 1, 69, 0
2, 153960, Note_on_c, 1, 70, 60
2, 154080, Note_off_c, 1, 70, 0
2, 154080, Note_on_c, 1, 72, 60
2, 154200, Note_off_c, 1, 72, 0
2, 154200, Note_on_c, 1, 74, 59
2, 154320, Note_off_c, 1, 74, 0
2, 154320, Note_on_c, 1, 75, 59
2, 154440, Note_off_c, 1, 75, 0
2, 154440, Note_on_c, 1, 77, 58
2, 154560, Note_off_c, 1, 77, 0
2, 154560, Note_on_c, 1, 79, 58
2, 154680, Note_off_c, 1, 79, 0
2, 154680, Note_on_c, 1, 81, 57
2, 154800, Note_off_c, 1, 81, 0
2, 154800, Note_on_c, 1, 82, 57
2, 154920, Note_off_c, 1, 82, 0
2, 154920, Note_on_c, 1, 81, 56
2, 155040, Note_off_c, 1, 81, 0
2, 155040, Note_on_c, 1, 82, 56
2, 155160, Note_off_c, 1, 82, 0
2, 155160, Note_on_c, 1, 81, 55
2, 155280, Note_off_c, 1, 81, 0
2, 155280, Note_on_c, 1, 82, 55
2, 155400, Note_off_c, 1, 82, 0
2, 155400, Note_on_c, 1, 79, 54
2, 155520, Note_off_c, 1, 79, 0
2, 155520, Note_on_c, 1, 77, 54
2, 156000, Note_off_c, 1, 77, 0
2, 156120, Note_on_c, 1, 82, 55
2, 156240, Note_off_c, 1, 82, 0
2, 156240, Note_on_c, 1, 84, 57
2, 156360, Note_off_c, 1, 84, 0
2, 156360, Note_on_c, 1, 82, 59
2, 156430, Note_off_c, 1, 82, 0
2, 156480, Note_on_c, 1, 86, 61
2, 156550, Note_off_c, 1, 86, 0
2, 156600, Note_on_c, 1, 84, 61
2, 156670, Note_off_c, 1, 84, 0
2, 156720, Note_on_c, 1, 82, 59
2, 156790, Note_off_c, 1, 82, 0
2, 156840, Note_on_c, 1, 81, 58
2, 156910, Note_off_c, 1, 81, 0
2, 156960, Note_on_c, 1, 79, 56
2, 157030, Note_off_c, 1, 79, 0
2, 157080, Note_on_c, 1, 77, 55
2, 157150, Note_off_c, 1, 77, 0
2, 157200, Note_on_c, 1, 75, 53
2, 157270, Note_off_c, 1, 75, 0
2, 157320, Note_on_c, 1, 74, 52
2, 157390, Note_off_c, 1, 74, 0
2, 157440, Note_on_c, 1, 75, 50
2, 157920, Note_off_c, 1, 75, 0
2, 158040, Note_on_c, 1, 81, 54
2, 158160, Note_off_c, 1, 81, 0
2, 158160, Note_on_c, 1, 82, 56
2, 158280, Note_off_c, 1, 82, 0
2, 158280, Note_on_c, 1, 81, 57
2, 158350, Note_off_c, 1, 81, 0
2, 158400, Note_on_c, 1, 84, 58
2, 158470, Note_off_c, 1, 84, 0
2, 158520, Note_on_c, 1, 82, 59
2, 158590, Note_off_c, 1, 82, 0
2, 158640, Note_on_c, 1, 81, 57
2, 158710, Note_off_c, 1, 81, 0
2, 158760, Note_on_c, 1, 79, 56
2, 158830, Note_off_c, 1, 79, 0
2, 158880, Note_on_c, 1, 77, 55
2, 158950, Note_off_c, 1, 77, 0
2, 159000, Note_on_c, 1, 75, 54
2, 159070, Note_off_c, 1, 75, 0
2, 159120, Note_on_c, 1, 74, 53
2, 159190, Note_off_c, 1, 74, 0
2, 159240, Note_on_c, 1, 72, 52
2, 159310, Note_off_c, 1, 72, 0
2, 159360, Note_on_c, 1, 74, 51
2, 159840, Note_off_c, 1, 74, 0
2, 159960, Note_on_c, 1, 77, 73
2, 160080, Note_off_c, 1, 77, 0
2, 160080, Note_on_c, 1, 79, 74
2, 160200, Note_off_c, 1, 79, 0
2, 160200, Note_on_c, 1, 77, 76
2, 160270, Note_off_c, 1, 77, 0
2, 160320, Note_on_c, 1, 82, 77
2, 160390, Note_off_c, 1, 82, 0
2, 160440, Note_on_c, 1, 81, 77
2, 160510, Note_off_c, 1, 81, 0
2, 160560, Note_on_c, 1, 79, 77
2, 160630, Note_off_c, 1, 79, 0
2, 160680, Note_on_c, 1, 77, 76
2, 160750, Note_off_c, 1, 77, 0
2, 160800, Note_on_c, 1, 75, 76
2, 160870, Note_off_c, 1, 75, 0
2, 160920, Note_on_c, 1, 74, 76
2, 160990, Note_off_c, 1, 74, 0
2, 161040, Note_on_c, 1, 72, 76
2, 161110, Note_off_c, 1, 72, 0
2, 161160, Note_on_c, 1, 71, 75
2, 161230, Note_off_c, 1, 71, 0
2, 161280, Note_on_c, 1, 74, 75
2, 161400, Note_off_c, 1, 74, 0
2, 161400, Note_on_c, 1, 72, 75
2, 161520, Note_off_c, 1, 72, 0
2, 161520, Note_on_c, 1, 75, 74
2, 161640, Note_off_c, 1, 75, 0
2, 161640, Note_on_c, 1, 74, 74
2, 161760, Note_off_c, 1, 74, 0
2, 161760, Note_on_c, 1, 77, 74
2, 161880, Note_off_c, 1, 77, 0
2, 161880, Note_on_c, 1, 75, 74
2, 162000, Note_off_c, 1, 75, 0
2, 162000, Note_on_c, 1, 79, 73
2, 162120, Note_off_c, 1, 79, 0
2, 162120, Note_on_c, 1, 78, 73
2, 162190, Note_off_c, 1, 78, 0
2, 162240, Note_on_c, 1, 79, 73
2, 162310, Note_off_c, 1, 79, 0
2, 162360, Note_on_c, 1, 77, 72
2, 162430, Note_off_c, 1, 77, 0
2, 162480, Note_on_c, 1, 75, 72
2, 162550, Note_off_c, 1, 75, 0
2, 162600, Note_on_c, 1, 74, 72
2, 162670, Note_off_c, 1, 74, 0
2, 162720, Note_on_c, 1, 72, 71
2, 162790, Note_off_c, 1, 72, 0
2, 162840, Note_on_c, 1, 70, 71
2, 162910, Note_off_c, 1, 70, 0
2, 162960, Note_on_c, 1, 69, 71
2, 163030, Note_off_c, 1, 69, 0
2, 163080, Note_on_c, 1, 70, 71
2, 163150, Note_off_c, 1, 70, 0
2, 163200, Note_on_c, 1, 69, 70
2, 163270, Note_off_c, 1, 69, 0
2, 163320, Note_on_c, 1, 70, 70
2, 163390, Note_off_c, 1, 70, 0
2, 163440, Note_on_c, 1, 72, 70
2, 163510, Note_off_c, 1, 72, 0
2, 163560, Note_on_c, 1, 74, 69
2, 163630, Note_off_c, 1, 74, 0
2, 163680, Note_on_c, 1, 76, 69
2, 163800, Note_off_c, 1, 76, 0
2, 163800, Note_on_c, 1, 77, 69
2, 163920, Note_off_c, 1, 77, 0
2, 163920, Note_on_c, 1, 76, 69
2, 164040, Note_off_c, 1, 76, 0
2, 164040, Note_on_c, 1, 77, 68
2, 164130, Note_off_c, 1, 77, 0
2, 164160, Note_on_c, 1, 65, 68
2, 164640, Note_off_c, 1, 65, 0
2, 165840, Note_on_c, 1, 77, 42
2, 165990, Note_off_c, 1, 77, 0
2, 166080, Note_on_c, 1, 77, 43
2, 166230, Note_off_c, 1, 77, 0
2, 166320, Note_on_c, 1, 77, 44
2, 166470, Note_off_c, 1, 77, 0
2, 166560, Note_on_c, 1, 77, 45
2, 166710, Note_off_c, 1, 77, 0
2, 166800, Note_on_c, 1, 77, 46
2, 166950, Note_off_c, 1, 77, 0
2, 167040, Note_on_c, 1, 77, 48
2, 167760, Note_off_c, 1, 77, 0
2, 167760, Note_on_c, 1, 75, 44
2, 167880, Note_off_c, 1, 75, 0
2, 167880, Note_on_c, 1, 74, 44
2, 168000, Note_off_c, 1, 74, 0
2, 168000, Note_on_c, 1, 72, 43
2, 168150, Note_off_c, 1, 72, 0
2, 168240, Note_on_c, 1, 70, 42
2, 168390, Note_off_c, 1, 70, 0
2, 168480, Note_on_c, 1, 69, 41
2, 168630, Note_off_c, 1, 69, 0
2, 168720, Note_on_c, 1, 72, 39
2, 168870, Note_off_c, 1, 72, 0
2, 168960, Note_on_c, 1, 70, 37
2, 169440, Note_off_c, 1, 70, 0
2, 169680, Note_on_c, 1, 77, 38
2, 169830, Note_off_c, 1, 77, 0
2, 169920, Note_on_c, 1, 77, 39
2, 170070, Note_off_c, 1, 77, 0
2, 170160, Note_on_c, 1, 77, 40
2, 170310, Note_off_c, 1, 77, 0
2, 170400, Note_on_c, 1, 77, 41
2, 170550, Note_off_c, 1, 77, 0
2, 170640, Note_on_c, 1, 77, 42
2, 170790, Note_off_c, 1, 77, 0
2, 170880, Note_on_c, 1, 77, 45
2, 171600, Note_off_c, 1, 77, 0
2, 171600, Note_on_c, 1, 75, 40
2, 171720, Note_off_c, 1, 75, 0
2, 171720, Note_on_c, 1, 74, 40
2, 171840, Note_off_c, 1, 74, 0
2, 171840, Note_on_c, 1, 72, 39
2, 171990, Note_off_c, 1, 72, 0
2, 172080, Note_on_c, 1, 74, 38
2, 172230, Note_off_c, 1, 74, 0
2, 172320, Note_on_c, 1, 75, 37
2, 172470, Note_off_c, 1, 75, 0
2, 172560, Note_on_c, 1, 72, 36
2, 172710, Note_off_c, 1, 72, 0
2, 172800, Note_on_c, 1, 74, 35
2, 173280, Note_off_c, 1, 74, 0
2, 173520, Note_on_c, 1, 77, 41
2, 173670, Note_off_c, 1, 77, 0
2, 173760, Note_on_c, 1, 77, 47
2, 173910, Note_off_c, 1, 77, 0
2, 174000, Note_on_c, 1, 77, 53
2, 174150, Note_off_c, 1, 77, 0
2, 174240, Note_on_c, 1, 77, 59
2, 174480, Note_off_c, 1, 77, 0
2, 174480, Note_on_c, 1, 78, 65
2, 174720, Note_off_c, 1, 78, 0
2, 174720, Note_on_c, 1, 79, 72
2, 174840, Note_off_c, 1, 79, 0
2, 174840, Note_on_c, 1, 67, 64
2, 174960, Note_off_c, 1, 67, 0
2, 174960, Note_on_c, 1, 66, 64
2, 175080, Note_off_c, 1, 66, 0
2, 175080, Note_on_c, 1, 67, 65
2, 175200, Note_off_c, 1, 67, 0
2, 175200, Note_on_c, 1, 68, 65
2, 175320, Note_off_c, 1, 68, 0
2, 175440, Note_on_c, 1, 69, 66
2, 175560, Note_off_c, 1, 69, 0
2, 175680, Note_on_c, 1, 70, 67
2, 175800, Note_off_c, 1, 70, 0
2, 175920, Note_on_c, 1, 71, 68
2, 176040, Note_off_c, 1, 71, 0
2, 176160, Note_on_c, 1, 72, 69
2, 176280, Note_off_c, 1, 72, 0
2, 176400, Note_on_c, 1, 74, 70
2, 176520, Note_off_c, 1, 74, 0
2, 176640, Note_on_c, 1, 75, 71
2, 177600, Note_off_c, 1, 75, 0
2, 177960, Note_on_c, 1, 75, 69
2, 178080, Note_off_c, 1, 75, 0
2, 178080, Note_on_c, 1, 77, 62
2, 178160, Note_off_c, 1, 77, 0
2, 178160, Note_on_c, 1, 75, 64
2, 178240, Note_off_c, 1, 75, 0
2, 178240, Note_on_c, 1, 77, 65
2, 178320, Note_off_c, 1, 77, 0
2, 178320, Note_on_c, 1, 75, 66
2, 178400, Note_off_c, 1, 75, 0
2, 178400, Note_on_c, 1, 74, 68
2, 178480, Note_off_c, 1, 74, 0
2, 178480, Note_on_c, 1, 75, 69
2, 178560, Note_off_c, 1, 75, 0
2, 178560, Note_on_c, 1, 77, 70
2, 178680, Note_off_c, 1, 77, 0
2, 178680, Note_on_c, 1, 65, 60
2, 178800, Note_off_c, 1, 65, 0
2, 178800, Note_on_c, 1, 64, 60
2, 178920, Note_off_c, 1, 64, 0
2, 178920, Note_on_c, 1, 65, 61
2, 179040, Note_off_c, 1, 65, 0
2, 179040, Note_on_c, 1, 66, 61
2, 179160, Note_off_c, 1, 66, 0
2, 179280, Note_on_c, 1, 67, 62
2, 179400, Note_off_c, 1, 67, 0
2, 179520, Note_on_c, 1, 68, 63
2, 179640, Note_off_c, 1, 68, 0
2, 179760, Note_on_c, 1, 69, 64
2, 179880, Note_off_c, 1, 69, 0
2, 180000, Note_on_c, 1, 70, 65
2, 180120, Note_off_c, 1, 70, 0
2, 180240, Note_on_c, 1, 72, 66
2, 180360, Note_off_c, 1, 72, 0
2, 180480, Note_on_c, 1, 74, 67
2, 181440, Note_off_c, 1, 74, 0
2, 181800, Note_on_c, 1, 74, 67
2, 181920, Note_off_c, 1, 74, 0
2, 181920, Note_on_c, 1, 75, 58
2, 182000, Note_off_c, 1, 75, 0
2, 182000, Note_on_c, 1, 74, 59
2, 182080, Note_off_c, 1, 74, 0
2, 182080, Note_on_c, 1, 75, 61
2, 182160, Note_off_c, 1, 75, 0
2, 182160, Note_on_c, 1, 74, 62
2, 182240, Note_off_c, 1, 74, 0
2, 182240, Note_on_c, 1, 72, 63
2, 182320, Note_off_c, 1, 72, 0
2, 182320, Note_on_c, 1, 74, 64
2, 182400, Note_off_c, 1, 74, 0
2, 182400, Note_on_c, 1, 75, 66
2, 182520, Note_off_c, 1, 75, 0
2, 182520, Note_on_c, 1, 75, 58
2, 182640, Note_off_c, 1, 75, 0
2, 182640, Note_on_c, 1, 74, 58
2, 182760, Note_off_c, 1, 74, 0
2, 182760, Note_on_c, 1, 75, 59
2, 182880, Note_off_c, 1, 75, 0
2, 182880, Note_on_c, 1, 77, 59
2, 183000, Note_off_c, 1, 77, 0
2, 183120, Note_on_c, 1, 78, 60
2, 183240, Note_off_c, 1, 78, 0
2, 183360, Note_on_c, 1, 79, 61
2, 183480, Note_off_c, 1, 79, 0
2, 183600, Note_on_c, 1, 81, 62
2, 183720, Note_off_c, 1, 81, 0
2, 183840, Note_on_c, 1, 82, 63
2, 183960, Note_off_c, 1, 82, 0
2, 184080, Note_on_c, 1, 83, 64
2, 184200, Note_off_c, 1, 83, 0
2, 184320, Note_on_c, 1, 84, 65
2, 184800, Note_off_c, 1, 84, 0
2, 185040, Note_on_c, 1, 87, 64
2, 185196, Note_off_c, 1, 87, 0
2, 185280, Note_on_c, 1, 86, 64
2, 185520, Note_off_c, 1, 86, 0
2, 185520, Note_on_c, 1, 84, 61
2, 185676, Note_off_c, 1, 84, 0
2, 185760, Note_on_c, 1, 82, 64
2, 186000, Note_off_c, 1, 82, 0
2, 186000, Note_on_c, 1, 81, 60
2, 186156, Note_off_c, 1, 81, 0
2, 186240, Note_on_c, 1, 84, 63
2, 186480, Note_off_c, 1, 84, 0
2, 186480, Note_on_c, 1, 82, 59
2, 186636, Note_off_c, 1, 82, 0
2, 186960, Note_on_c, 1, 89, 63
2, 187116, Note_off_c, 1, 89, 0
2, 187200, Note_on_c, 1, 87, 63
2, 187440, Note_off_c, 1, 87, 0
2, 187440, Note_on_c, 1, 86, 60
2, 187596, Note_off_c, 1, 86, 0
2, 187680, Note_on_c, 1, 84, 62
2, 187920, Note_off_c, 1, 84, 0
2, 187920, Note_on_c, 1, 83, 60
2, 188076, Note_off_c, 1, 83, 0
2, 188160, Note_on_c, 1, 84, 62
2, 188520, Note_off_c, 1, 84, 0
2, 188520, Note_on_c, 1, 86, 62
2, 188640, Note_off_c, 1, 86, 0
2, 188640, Note_on_c, 1, 89, 62
2, 188760, Note_off_c, 1, 89, 0
2, 188760, Note_on_c, 1, 87, 62
2, 188880, Note_off_c, 1, 87, 0
2, 188880, Note_on_c, 1, 86, 62
2, 189000, Note_off_c, 1, 86, 0
2, 189000, Note_on_c, 1, 84, 62
2, 189120, Note_off_c, 1, 84, 0
2, 189120, Note_on_c, 1, 82, 61
2, 189600, Note_off_c, 1, 82, 0
2, 189600, Note_on_c, 1, 81, 58
2, 189840, Note_off_c, 1, 81, 0
2, 190200, Note_on_c, 1, 82, 61
2, 190320, Note_off_c, 1, 82, 0
2, 190320, Note_on_c, 1, 81, 61
2, 190440, Note_off_c, 1, 81, 0
2, 190440, Note_on_c, 1, 82, 61
2, 190560, Note_off_c, 1, 82, 0
2, 190680, Note_on_c, 1, 77, 60
2, 190800, Note_off_c, 1, 77, 0
2, 190800, Note_on_c, 1, 76, 60
2, 190920, Note_off_c, 1, 76, 0
2, 190920, Note_on_c, 1, 77, 60
2, 191040, Note_off_c, 1, 77, 0
2, 191160, Note_on_c, 1, 74, 60
2, 191280, Note_off_c, 1, 74, 0
2, 191280, Note_on_c, 1, 73, 60
2, 191400, Note_off_c, 1, 73, 0
2, 191400, Note_on_c, 1, 74, 60
2, 191520, Note_off_c, 1, 74, 0
2, 191640, Note_on_c, 1, 70, 60
2, 191760, Note_off_c, 1, 70, 0
2, 191760, Note_on_c, 1, 69, 60
2, 191880, Note_off_c, 1, 69, 0
2, 191880, Note_on_c, 1, 70, 60
2, 192000, Note_off_c, 1, 70, 0
2, 192080, Note_on_c, 1, 69, 47
2, 192480, Note_off_c, 1, 69, 0
2, 192720, Note_on_c, 1, 75, 47
2, 192876, Note_off_c, 1, 75, 0
2, 192960, Note_on_c, 1, 74, 46
2, 193200, Note_off_c, 1, 74, 0
2, 193200, Note_on_c, 1, 72, 44
2, 193356, Note_off_c, 1, 72, 0
2, 193440, Note_on_c, 1, 70, 46
2, 193680, Note_off_c, 1, 70, 0
2, 193680, Note_on_c, 1, 69, 42
2, 193836, Note_off_c, 1, 69, 0
2, 193920, Note_on_c, 1, 72, 45
2, 194160, Note_off_c, 1, 72, 0
2, 194160, Note_on_c, 1, 70, 42
2, 194316, Note_off_c, 1, 70, 0
2, 194640, Note_on_c, 1, 77, 44
2, 194796, Note_off_c, 1, 77, 0
2, 194880, Note_on_c, 1, 75, 44
2, 195120, Note_off_c, 1, 75, 0
2, 195120, Note_on_c, 1, 74, 40
2, 195276, Note_off_c, 1, 74, 0
2, 195360, Note_on_c, 1, 72, 43
2, 195600, Note_off_c, 1, 72, 0
2, 195600, Note_on_c, 1, 71, 40
2, 195756, Note_off_c, 1, 71, 0
2, 195840, Note_on_c, 1, 72, 42
2, 196200, Note_off_c, 1, 72, 0
2, 196200, Note_on_c, 1, 74, 42
2, 196320, Note_off_c, 1, 74, 0
2, 196320, Note_on_c, 1, 74, 42
2, 196440, Note_off_c, 1, 74, 0
2, 196440, Note_on_c, 1, 75, 41
2, 196560, Note_off_c, 1, 75, 0
2, 196560, Note_on_c, 1, 77, 41
2, 196680, Note_off_c, 1, 77, 0
2, 196680, Note_on_c, 1, 79, 41
2, 196800, Note_off_c, 1, 79, 0
2, 196800, Note_on_c, 1, 79, 41
2, 196860, Note_off_c, 1, 79, 0
2, 196860, Note_on_c, 1, 70, 41
2, 197270, Note_off_c, 1, 70, 0
2, 197280, Note_on_c, 1, 72, 40
2, 197360, Note_off_c, 1, 72, 0
2, 197360, Note_on_c, 1, 74, 40
2, 197440, Note_off_c, 1, 74, 0
2, 197440, Note_on_c, 1, 72, 40
2, 197520, Note_off_c, 1, 72, 0
2, 197520, Note_on_c, 1, 70, 40
2, 197640, Note_off_c, 1, 70, 0
2, 197640, Note_on_c, 1, 72, 40
2, 197760, Note_off_c, 1, 72, 0
2, 198000, Note_on_c, 1, 89, 68
2, 198120, Note_off_c, 1, 89, 0
2, 198120, Note_on_c, 1, 86, 70
2, 198240, Note_off_c, 1, 86, 0
2, 198240, Note_on_c, 1, 82, 71
2, 198360, Note_off_c, 1, 82, 0
2, 198360, Note_on_c, 1, 77, 72
2, 198480, Note_off_c, 1, 77, 0
2, 198480, Note_on_c, 1, 74, 73
2, 198600, Note_off_c, 1, 74, 0
2, 198600, Note_on_c, 1, 70, 74
2, 198720, Note_off_c, 1, 70, 0
2, 198720, Note_on_c, 1, 68, 75
2, 199920, Note_on_c, 1, 67, 49
2, 199930, Note_off_c, 1, 68, 0
2, 200076, Note_off_c, 1, 67, 0
2, 200400, Note_on_c, 1, 79, 48
2, 200556, Note_off_c, 1, 79, 0
2, 200880, Note_on_c, 1, 77, 46
2, 201036, Note_off_c, 1, 77, 0
2, 201360, Note_on_c, 1, 69, 45
2, 201516, Note_off_c, 1, 69, 0
2, 201840, Note_on_c, 1, 77, 61
2, 201960, Note_off_c, 1, 77, 0
2, 201960, Note_on_c, 1, 74, 62
2, 202080, Note_off_c, 1, 74, 0
2, 202080, Note_on_c, 1, 70, 63
2, 202200, Note_off_c, 1, 70, 0
2, 202200, Note_on_c, 1, 65, 64
2, 202320, Note_off_c, 1, 65, 0
2, 202320, Note_on_c, 1, 62, 65
2, 202440, Note_off_c, 1, 62, 0
2, 202440, Note_on_c, 1, 58, 66
2, 202560, Note_off_c, 1, 58, 0
2, 202560, Note_on_c, 1, 56, 67
2, 203760, Note_off_c, 1, 56, 0
2, 203760, Note_on_c, 1, 55, 40
2, 203916, Note_off_c, 1, 55, 0
2, 204240, Note_on_c, 1, 67, 38
2, 204396, Note_off_c, 1, 67, 0
2, 204720, Note_on_c, 1, 65, 37
2, 204876, Note_off_c, 1, 65, 0
2, 205200, Note_on_c, 1, 69, 36
2, 205356, Note_off_c, 1, 69, 0
2, 205440, Note_on_c, 1, 70, 40
2, 205800, Note_off_c, 1, 70, 0
2, 206160, Note_on_c, 1, 74, 47
2, 206400, Note_off_c, 1, 74, 0
2, 206400, Note_on_c, 1, 72, 49
2, 206556, Note_off_c, 1, 72, 0
2, 206640, Note_on_c, 1, 72, 51
2, 206796, Note_off_c, 1, 72, 0
2, 207120, Note_on_c, 1, 75, 56
2, 207360, Note_off_c, 1, 75, 0
2, 207360, Note_on_c, 1, 74, 58
2, 207516, Note_off_c, 1, 74, 0
2, 207600, Note_on_c, 1, 74, 61
2, 207756, Note_off_c, 1, 74, 0
2, 208080, Note_on_c, 1, 80, 65
2, 208320, Note_off_c, 1, 80, 0
2, 208320, Note_on_c, 1, 79, 67
2, 208476, Note_off_c, 1, 79, 0
2, 208560, Note_on_c, 1, 79, 70
2, 208716, Note_off_c, 1, 79, 0
2, 209040, Note_on_c, 1, 81, 74
2, 209196, Note_off_c, 1, 81, 0
2, 209280, Note_on_c, 1, 81, 76
2, 210240, Note_off_c, 1, 81, 0
2, 210240, Note_on_c, 1, 82, 53
2, 210720, Note_off_c, 1, 82, 0
2, 211920, Control_c, 1, 64, 0
2, 212160, Note_on_c, 1, 82, 46
2, 212400, Note_off_c, 1, 82, 0
2, 212400, Note_on_c, 1, 80, 48
2, 212640, Note_off_c, 1, 80, 0
2, 212640, Note_on_c, 1, 79, 51
2, 212880, Note_off_c, 1, 79, 0
2, 212880, Note_on_c, 1, 77, 53
2, 213120, Note_off_c, 1, 77, 0
2, 213120, Note_on_c, 1, 75, 55
2, 213360, Note_off_c, 1, 75, 0
2, 213360, Note_on_c, 1, 74, 57
2, 213600, Note_off_c, 1, 74, 0
2, 213600, Note_on_c, 1, 72, 59
2, 213840, Note_off_c, 1, 72, 0
2, 213840, Note_on_c, 1, 70, 61
2, 214032, Note_off_c, 1, 70, 0
2, 214080, Note_on_c, 1, 70, 64
2, 215040, Note_off_c, 1, 70, 0
2, 215040, Note_on_c, 1, 72, 69
2, 215280, Note_off_c, 1, 72, 0
2, 215280, Note_on_c, 1, 74, 65
2, 215472, Note_off_c, 1, 74, 0
2, 215520, Note_on_c, 1, 75, 62
2, 216000, Note_off_c, 1, 75, 0
2, 216000, Note_on_c, 1, 72, 55
2, 216192, Note_off_c, 1, 72, 0
2, 216240, Note_on_c, 1, 70, 51
2, 216720, Note_off_c, 1, 70, 0
2, 216720, Note_on_c, 1, 68, 44
2, 216760, Note_off_c, 1, 68, 0
2, 216760, Note_on_c, 1, 70, 43
2, 216800, Note_off_c, 1, 70, 0
2, 216800, Note_on_c, 1, 68, 42
2, 216840, Note_off_c, 1, 68, 0
2, 216840, Note_on_c, 1, 67, 42
2, 216900, Note_off_c, 1, 67, 0
2, 216900, Note_on_c, 1, 68, 40
2, 216960, Note_off_c, 1, 68, 0
2, 216960, Note_on_c, 1, 67, 39
2, 217152, Note_off_c, 1, 67, 0
2, 217200, Note_on_c, 1, 74, 48
2, 217440, Note_off_c, 1, 74, 0
2, 217440, Note_on_c, 1, 75, 40
2, 217596, Note_off_c, 1, 75, 0
2, 217920, Note_on_c, 1, 82, 52
2, 218160, Note_off_c, 1, 82, 0
2, 218160, Note_on_c, 1, 79, 47
2, 218316, Note_off_c, 1, 79, 0
2, 218520, Note_on_c, 1, 77, 51
2, 218640, Note_off_c, 1, 77, 0
2, 218640, Note_on_c, 1, 79, 54
2, 218760, Note_off_c, 1, 79, 0
2, 218760, Note_on_c, 1, 80, 56
2, 218880, Note_off_c, 1, 80, 0
2, 218880, Note_on_c, 1, 82, 58
2, 219000, Note_off_c, 1, 82, 0
2, 219000, Note_on_c, 1, 84, 61
2, 219240, Note_off_c, 1, 84, 0
2, 219240, Note_on_c, 1, 82, 63
2, 219360, Note_off_c, 1, 82, 0
2, 219360, Note_on_c, 1, 80, 61
2, 219480, Note_off_c, 1, 80, 0
2, 219480, Note_on_c, 1, 79, 58
2, 219600, Note_off_c, 1, 79, 0
2, 219600, Note_on_c, 1, 77, 56
2, 219720, Note_off_c, 1, 77, 0
2, 219720, Note_on_c, 1, 74, 54
2, 219816, Note_off_c, 1, 74, 0
2, 219840, Note_on_c, 1, 75, 67
2, 219920, Note_off_c, 1, 75, 0
2, 219920, Note_on_c, 1, 70, 67
2, 220000, Note_off_c, 1, 70, 0
2, 220000, Note_on_c, 1, 67, 66
2, 220064, Note_off_c, 1, 67, 0
2, 220080, Note_on_c, 1, 70, 65
2, 220160, Note_off_c, 1, 70, 0
2, 220160, Note_on_c, 1, 67, 64
2, 220240, Note_off_c, 1, 67, 0
2, 220240, Note_on_c, 1, 63, 64
2, 220304, Note_off_c, 1, 63, 0
2, 220320, Note_on_c, 1, 62, 63
2, 220400, Note_off_c, 1, 62, 0
2, 220400, Note_on_c, 1, 65, 62
2, 220480, Note_off_c, 1, 65, 0
2, 220480, Note_on_c, 1, 68, 61
2, 220544, Note_off_c, 1, 68, 0
2, 220560, Note_on_c, 1, 67, 61
2, 220640, Note_off_c, 1, 67, 0
2, 220640, Note_on_c, 1, 70, 60
2, 220720, Note_off_c, 1, 70, 0
2, 220720, Note_on_c, 1, 67, 59
2, 220784, Note_off_c, 1, 67, 0
2, 220800, Note_on_c, 1, 75, 58
2, 220880, Note_off_c, 1, 75, 0
2, 220880, Note_on_c, 1, 70, 58
2, 220960, Note_off_c, 1, 70, 0
2, 220960, Note_on_c, 1, 67, 57
2, 221024, Note_off_c, 1, 67, 0
2, 221040, Note_on_c, 1, 68, 56
2, 221120, Note_off_c, 1, 68, 0
2, 221120, Note_on_c, 1, 65, 56
2, 221200, Note_off_c, 1, 65, 0
2, 221200, Note_on_c, 1, 62, 55
2, 221264, Note_off_c, 1, 62, 0
2, 221280, Note_on_c, 1, 63, 54
2, 221472, Note_off_c, 1, 63, 0
2, 221760, Note_on_c, 1, 63, 32
2, 221880, Note_off_c, 1, 63, 0
2, 222000, Note_on_c, 1, 63, 28
2, 222156, Note_off_c, 1, 63, 0
2, 222720, Note_on_c, 1, 79, 65
2, 223020, Note_off_c, 1, 79, 0
2, 223020, Note_on_c, 1, 80, 62
2, 223080, Note_off_c, 1, 80, 0
2, 223080, Note_on_c, 1, 79, 61
2, 223140, Note_off_c, 1, 79, 0
2, 223140, Note_on_c, 1, 77, 60
2, 223200, Note_off_c, 1, 77, 0
2, 223200, Note_on_c, 1, 75, 59
2, 223392, Note_off_c, 1, 75, 0
2, 223680, Note_on_c, 1, 81, 61
2, 223740, Note_off_c, 1, 81, 0
2, 223740, Note_on_c, 1, 82, 60
2, 223860, Note_off_c, 1, 82, 0
2, 223920, Note_on_c, 1, 81, 60
2, 223980, Note_off_c, 1, 81, 0
2, 223980, Note_on_c, 1, 82, 59
2, 224105, Note_off_c, 1, 82, 0
2, 224160, Note_on_c, 1, 77, 59
2, 224460, Note_off_c, 1, 77, 0
2, 224460, Note_on_c, 1, 79, 56
2, 224520, Note_off_c, 1, 79, 0
2, 224520, Note_on_c, 1, 77, 55
2, 224580, Note_off_c, 1, 77, 0
2, 224580, Note_on_c, 1, 75, 54
2, 224640, Note_off_c, 1, 75, 0
2, 224640, Note_on_c, 1, 74, 53
2, 224832, Note_off_c, 1, 74, 0
2, 225120, Note_on_c, 1, 81, 54
2, 225180, Note_off_c, 1, 81, 0
2, 225180, Note_on_c, 1, 82, 53
2, 225300, Note_off_c, 1, 82, 0
2, 225360, Note_on_c, 1, 81, 52
2, 225420, Note_off_c, 1, 81, 0
2, 225420, Note_on_c, 1, 82, 52
2, 225545, Note_off_c, 1, 82, 0
2, 225600, Note_on_c, 1, 82, 57
2, 225720, Note_off_c, 1, 82, 0
2, 225720, Note_on_c, 1, 81, 55
2, 225840, Note_off_c, 1, 81, 0
2, 225840, Note_on_c, 1, 84, 53
2, 225960, Note_off_c, 1, 84, 0
2, 225960, Note_on_c, 1, 81, 51
2, 226080, Note_off_c, 1, 81, 0
2, 226080, Note_on_c, 1, 77, 49
2, 226200, Note_off_c, 1, 77, 0
2, 226200, Note_on_c, 1, 75, 47
2, 226320, Note_off_c, 1, 75, 0
2, 226320, Note_on_c, 1, 74, 45
2, 226512, Note_off_c, 1, 74, 0
2, 226800, Note_on_c, 1, 82, 45
2, 226992, Note_off_c, 1, 82, 0
2, 227040, Note_on_c, 1, 82, 47
2, 227160, Note_off_c, 1, 82, 0
2, 227160, Note_on_c, 1, 81, 46
2, 227280, Note_off_c, 1, 81, 0
2, 227280, Note_on_c, 1, 84, 44
2, 227400, Note_off_c, 1, 84, 0
2, 227400, Note_on_c, 1, 81, 43
2, 227520, Note_off_c, 1, 81, 0
2, 227520, Note_on_c, 1, 77, 42
2, 227640, Note_off_c, 1, 77, 0
2, 227640, Note_on_c, 1, 75, 40
2, 227760, Note_off_c, 1, 75, 0
2, 227760, Note_on_c, 1, 74, 39
2, 227952, Note_off_c, 1, 74, 0
2, 228240, Note_on_c, 1, 74, 43
2, 228432, Note_off_c, 1, 74, 0
2, 228480, Note_on_c, 1, 71, 44
2, 228540, Note_off_c, 1, 71, 0
2, 228540, Note_on_c, 1, 72, 45
2, 228660, Note_off_c, 1, 72, 0
2, 228960, Note_on_c, 1, 74, 51
2, 229020, Note_off_c, 1, 74, 0
2, 229020, Note_on_c, 1, 75, 52
2, 229140, Note_off_c, 1, 75, 0
2, 229440, Note_on_c, 1, 78, 58
2, 229500, Note_off_c, 1, 78, 0
2, 229500, Note_on_c, 1, 79, 59
2, 229680, Note_off_c, 1, 79, 0
2, 229680, Note_on_c, 1, 77, 59
2, 229740, Note_off_c, 1, 77, 0
2, 229740, Note_on_c, 1, 75, 60
2, 229800, Note_off_c, 1, 75, 0
2, 229800, Note_on_c, 1, 74, 60
2, 229860, Note_off_c, 1, 74, 0
2, 229860, Note_on_c, 1, 72, 61
2, 229920, Note_off_c, 1, 72, 0
2, 229920, Note_on_c, 1, 70, 62
2, 230400, Note_off_c, 1, 70, 0
2, 230400, Note_on_c, 1, 69, 48
2, 230592, Note_off_c, 1, 69, 0
2, 231600, Note_on_c, 1, 77, 63
2, 231680, Note_off_c, 1, 77, 0
2, 231680, Note_on_c, 1, 74, 63
2, 231760, Note_off_c, 1, 74, 0
2, 231760, Note_on_c, 1, 75, 62
2, 231840, Note_off_c, 1, 75, 0
2, 231840, Note_on_c, 1, 77, 62
2, 231920, Note_off_c, 1, 77, 0
2, 231920, Note_on_c, 1, 74, 61
2, 232000, Note_off_c, 1, 74, 0
2, 232000, Note_on_c, 1, 75, 61
2, 232064, Note_off_c, 1, 75, 0
2, 232080, Note_on_c, 1, 77, 61
2, 232320, Note_off_c, 1, 77, 0
2, 232320, Note_on_c, 1, 79, 56
2, 232476, Note_off_c, 1, 79, 0
2, 232560, Note_on_c, 1, 75, 53
2, 232716, Note_off_c, 1, 75, 0
2, 233040, Note_on_c, 1, 75, 61
2, 233120, Note_off_c, 1, 75, 0
2, 233120, Note_on_c, 1, 72, 61
2, 233200, Note_off_c, 1, 72, 0
2, 233200, Note_on_c, 1, 74, 60
2, 233280, Note_off_c, 1, 74, 0
2, 233280, Note_on_c, 1, 75, 60
2, 233360, Note_off_c, 1, 75, 0
2, 233360, Note_on_c, 1, 72, 59
2, 233440, Note_off_c, 1, 72, 0
2, 233440, Note_on_c, 1, 74, 59
2, 233504, Note_off_c, 1, 74, 0
2, 233520, Note_on_c, 1, 75, 58
2, 233760, Note_off_c, 1, 75, 0
2, 233760, Note_on_c, 1, 77, 53
2, 233916, Note_off_c, 1, 77, 0
2, 234000, Note_on_c, 1, 74, 49
2, 234156, Note_off_c, 1, 74, 0
2, 234240, Note_on_c, 1, 70, 76
2, 234480, Note_off_c, 1, 70, 0
2, 234480, Note_on_c, 1, 82, 76
2, 234636, Note_off_c, 1, 82, 0
2, 234720, Note_on_c, 1, 82, 76
2, 234876, Note_off_c, 1, 82, 0
2, 234960, Note_on_c, 1, 81, 76
2, 235080, Note_on_c, 1, 79, 75
2, 235085, Note_off_c, 1, 81, 0
2, 235200, Note_off_c, 1, 79, 0
2, 235200, Note_on_c, 1, 77, 75
2, 235320, Note_off_c, 1, 77, 0
2, 235320, Note_on_c, 1, 75, 75
2, 235440, Note_off_c, 1, 75, 0
2, 235440, Note_on_c, 1, 74, 75
2, 235560, Note_off_c, 1, 74, 0
2, 235560, Note_on_c, 1, 72, 75
2, 235656, Note_off_c, 1, 72, 0
2, 235680, Note_on_c, 1, 70, 75
2, 235720, Note_off_c, 1, 70, 0
2, 235720, Note_on_c, 1, 72, 74
2, 235760, Note_off_c, 1, 72, 0
2, 235760, Note_on_c, 1, 70, 73
2, 235800, Note_off_c, 1, 70, 0
2, 235800, Note_on_c, 1, 72, 73
2, 235840, Note_off_c, 1, 72, 0
2, 235840, Note_on_c, 1, 70, 72
2, 235880, Note_off_c, 1, 70, 0
2, 235880, Note_on_c, 1, 72, 72
2, 235920, Note_off_c, 1, 72, 0
2, 235920, Note_on_c, 1, 70, 71
2, 235960, Note_off_c, 1, 70, 0
2, 235960, Note_on_c, 1, 72, 70
2, 236000, Note_off_c, 1, 72, 0
2, 236000, Note_on_c, 1, 70, 70
2, 236040, Note_off_c, 1, 70, 0
2, 236040, Note_on_c, 1, 69, 69
2, 236100, Note_off_c, 1, 69, 0
2, 236100, Note_on_c, 1, 70, 68
2, 236160, Note_off_c, 1, 70, 0
2, 236160, Note_on_c, 1, 72, 67
2, 236280, Note_off_c, 1, 72, 0
2, 236280, Note_on_c, 1, 69, 65
2, 236376, Note_off_c, 1, 69, 0
2, 236400, Note_on_c, 1, 70, 63
2, 236592, Note_off_c, 1, 70, 0
2, 237120, Note_on_c, 1, 70, 52
2, 237360, Note_off_c, 1, 70, 0
2, 237360, Note_on_c, 1, 82, 52
2, 237516, Note_off_c, 1, 82, 0
2, 237600, Note_on_c, 1, 82, 51
2, 237756, Note_off_c, 1, 82, 0
2, 237840, Note_on_c, 1, 81, 50
2, 237960, Note_on_c, 1, 79, 50
2, 237965, Note_off_c, 1, 81, 0
2, 238080, Note_off_c, 1, 79, 0
2, 238080, Note_on_c, 1, 77, 50
2, 238200, Note_off_c, 1, 77, 0
2, 238200, Note_on_c, 1, 75, 49
2, 238320, Note_off_c, 1, 75, 0
2, 238320, Note_on_c, 1, 74, 49
2, 238440, Note_off_c, 1, 74, 0
2, 238440, Note_on_c, 1, 72, 48
2, 238536, Note_off_c, 1, 72, 0
2, 238560, Note_on_c, 1, 70, 49
2, 238600, Note_off_c, 1, 70, 0
2, 238600, Note_on_c, 1, 72, 48
2, 238640, Note_off_c, 1, 72, 0
2, 238640, Note_on_c, 1, 70, 48
2, 238680, Note_off_c, 1, 70, 0
2, 238680, Note_on_c, 1, 72, 47
2, 238720, Note_off_c, 1, 72, 0
2, 238720, Note_on_c, 1, 70, 46
2, 238760, Note_off_c, 1, 70, 0
2, 238760, Note_on_c, 1, 72, 46
2, 238800, Note_off_c, 1, 72, 0
2, 238800, Note_on_c, 1, 70, 45
2, 238840, Note_off_c, 1, 70, 0
2, 238840, Note_on_c, 1, 72, 45
2, 238880, Note_off_c, 1, 72, 0
2, 238880, Note_on_c, 1, 70, 44
2, 238920, Note_off_c, 1, 70, 0
2, 238920, Note_on_c, 1, 69, 44
2, 238980, Note_off_c, 1, 69, 0
2, 238980, Note_on_c, 1, 70, 43
2, 239040, Note_off_c, 1, 70, 0
2, 239040, Note_on_c, 1, 72, 42
2, 239160, Note_off_c, 1, 72, 0
2, 239160, Note_on_c, 1, 69, 41
2, 239256, Note_off_c, 1, 69, 0
2, 239280, Note_on_c, 1, 80, 73
2, 239520, Note_off_c, 1, 80, 0
2, 239520, Note_on_c, 1, 79, 71
2, 239760, Note_off_c, 1, 79, 0
2, 239760, Note_on_c, 1, 82, 68
2, 239952, Note_off_c, 1, 82, 0
2, 240000, Note_on_c, 1, 74, 65
2, 240040, Note_off_c, 1, 74, 0
2, 240040, Note_on_c, 1, 75, 64
2, 240080, Note_off_c, 1, 75, 0
2, 240080, Note_on_c, 1, 74, 63
2, 240120, Note_off_c, 1, 74, 0
2, 240120, Note_on_c, 1, 75, 62
2, 240160, Note_off_c, 1, 75, 0
2, 240160, Note_on_c, 1, 74, 61
2, 240200, Note_off_c, 1, 74, 0
2, 240200, Note_on_c, 1, 75, 60
2, 240240, Note_off_c, 1, 75, 0
2, 240240, Note_on_c, 1, 74, 59
2, 240280, Note_off_c, 1, 74, 0
2, 240280, Note_on_c, 1, 75, 58
2, 240320, Note_off_c, 1, 75, 0
2, 240320, Note_on_c, 1, 74, 58
2, 240360, Note_off_c, 1, 74, 0
2, 240360, Note_on_c, 1, 72, 57
2, 240420, Note_off_c, 1, 72, 0
2, 240420, Note_on_c, 1, 74, 55
2, 240480, Note_off_c, 1, 74, 0
2, 240480, Note_on_c, 1, 75, 54
2, 240600, Note_off_c, 1, 75, 0
2, 240600, Note_on_c, 1, 72, 51
2, 240696, Note_off_c, 1, 72, 0
2, 240720, Note_on_c, 1, 80, 71
2, 240960, Note_off_c, 1, 80, 0
2, 240960, Note_on_c, 1, 79, 69
2, 241200, Note_off_c, 1, 79, 0
2, 241200, Note_on_c, 1, 82, 68
2, 241392, Note_off_c, 1, 82, 0
2, 241440, Note_on_c, 1, 74, 63
2, 241480, Note_off_c, 1, 74, 0
2, 241480, Note_on_c, 1, 75, 62
2, 241520, Note_off_c, 1, 75, 0
2, 241520, Note_on_c, 1, 74, 61
2, 241560, Note_off_c, 1, 74, 0
2, 241560, Note_on_c, 1, 75, 60
2, 241600, Note_off_c, 1, 75, 0
2, 241600, Note_on_c, 1, 74, 60
2, 241640, Note_off_c, 1, 74, 0
2, 241640, Note_on_c, 1, 75, 59
2, 241680, Note_off_c, 1, 75, 0
2, 241680, Note_on_c, 1, 74, 58
2, 241720, Note_off_c, 1, 74, 0
2, 241720, Note_on_c, 1, 75, 57
2, 241760, Note_off_c, 1, 75, 0
2, 241760, Note_on_c, 1, 74, 57
2, 241800, Note_off_c, 1, 74, 0
2, 241800, Note_on_c, 1, 72, 56
2, 241860, Note_off_c, 1, 72, 0
2, 241860, Note_on_c, 1, 74, 55
2, 241920, Note_off_c, 1, 74, 0
2, 241920, Note_on_c, 1, 75, 53
2, 242040, Note_off_c, 1, 75, 0
2, 242040, Note_on_c, 1, 72, 51
2, 242136, Note_off_c, 1, 72, 0
2, 242160, Note_on_c, 1, 70, 73
2, 242240, Note_off_c, 1, 70, 0
2, 242240, Note_on_c, 1, 74, 73
2, 242320, Note_off_c, 1, 74, 0
2, 242320, Note_on_c, 1, 77, 72
2, 242384, Note_off_c, 1, 77, 0
2, 242400, Note_on_c, 1, 82, 72
2, 242480, Note_off_c, 1, 82, 0
2, 242480, Note_on_c, 1, 77, 71
2, 242560, Note_off_c, 1, 77, 0
2, 242560, Note_on_c, 1, 74, 71
2, 242624, Note_off_c, 1, 74, 0
2, 242640, Note_on_c, 1, 75, 70
2, 242720, Note_off_c, 1, 75, 0
2, 242720, Note_on_c, 1, 72, 70
2, 242800, Note_off_c, 1, 72, 0
2, 242800, Note_on_c, 1, 69, 69
2, 242864, Note_off_c, 1, 69, 0
2, 242880, Note_on_c, 1, 70, 69
2, 242960, Note_off_c, 1, 70, 0
2, 242960, Note_on_c, 1, 74, 68
2, 243040, Note_off_c, 1, 74, 0
2, 243040, Note_on_c, 1, 65, 68
2, 243104, Note_off_c, 1, 65, 0
2, 243120, Note_on_c, 1, 70, 67
2, 243200, Note_off_c, 1, 70, 0
2, 243200, Note_on_c, 1, 65, 67
2, 243280, Note_off_c, 1, 65, 0
2, 243280, Note_on_c, 1, 62, 66
2, 243360, Note_off_c, 1, 62, 0
2, 243360, Note_on_c, 1, 63, 66
2, 243440, Note_off_c, 1, 63, 0
2, 243440, Note_on_c, 1, 60, 65
2, 243520, Note_off_c, 1, 60, 0
2, 243520, Note_on_c, 1, 57, 65
2, 243584, Note_off_c, 1, 57, 0
2, 243600, Note_on_c, 1, 58, 64
2, 243792, Note_off_c, 1, 58, 0
2, 244080, Note_on_c, 1, 58, 37
2, 244200, Note_off_c, 1, 58, 0
2, 244320, Note_on_c, 1, 58, 32
2, 244476, Note_off_c, 1, 58, 0
2, 245120, Note_on_c, 1, 69, 33
2, 245200, Note_off_c, 1, 69, 0
2, 245200, Note_on_c, 1, 70, 36
2, 245280, Note_off_c, 1, 70, 0
2, 245280, Note_on_c, 1, 72, 38
2, 245360, Note_off_c, 1, 72, 0
2, 245360, Note_on_c, 1, 69, 41
2, 245440, Note_off_c, 1, 69, 0
2, 245440, Note_on_c, 1, 70, 43
2, 245520, Note_off_c, 1, 70, 0
2, 245520, Note_on_c, 1, 72, 46
2, 245600, Note_off_c, 1, 72, 0
2, 245600, Note_on_c, 1, 69, 48
2, 245680, Note_off_c, 1, 69, 0
2, 245680, Note_on_c, 1, 70, 50
2, 245744, Note_off_c, 1, 70, 0
2, 245760, Note_on_c, 1, 82, 58
2, 246240, Note_off_c, 1, 82, 0
2, 246240, Note_on_c, 1, 74, 46
2, 246280, Note_off_c, 1, 74, 0
2, 246280, Note_on_c, 1, 75, 45
2, 246320, Note_off_c, 1, 75, 0
2, 246320, Note_on_c, 1, 74, 44
2, 246360, Note_off_c, 1, 74, 0
2, 246360, Note_on_c, 1, 72, 43
2, 246420, Note_on_c, 1, 74, 41
2, 246430, Note_off_c, 1, 72, 0
2, 246480, Note_off_c, 1, 74, 0
2, 246480, Note_on_c, 1, 75, 40
2, 246544, Note_off_c, 1, 75, 0
2, 246560, Note_on_c, 1, 69, 41
2, 246640, Note_off_c, 1, 69, 0
2, 246640, Note_on_c, 1, 70, 44
2, 246720, Note_off_c, 1, 70, 0
2, 246720, Note_on_c, 1, 72, 46
2, 246800, Note_off_c, 1, 72, 0
2, 246800, Note_on_c, 1, 69, 49
2, 246880, Note_off_c, 1, 69, 0
2, 246880, Note_on_c, 1, 70, 52
2, 246960, Note_off_c, 1, 70, 0
2, 246960, Note_on_c, 1, 72, 54
2, 247040, Note_off_c, 1, 72, 0
2, 247040, Note_on_c, 1, 69, 57
2, 247120, Note_off_c, 1, 69, 0
2, 247120, Note_on_c, 1, 70, 59
2, 247184, Note_off_c, 1, 70, 0
2, 247200, Note_on_c, 1, 82, 66
2, 247680, Note_off_c, 1, 82, 0
2, 247680, Note_on_c, 1, 76, 53
2, 247720, Note_off_c, 1, 76, 0
2, 247720, Note_on_c, 1, 77, 52
2, 247760, Note_off_c, 1, 77, 0
2, 247760, Note_on_c, 1, 76, 51
2, 247800, Note_off_c, 1, 76, 0
2, 247800, Note_on_c, 1, 74, 50
2, 247860, Note_off_c, 1, 74, 0
2, 247860, Note_on_c, 1, 76, 48
2, 247920, Note_off_c, 1, 76, 0
2, 247920, Note_on_c, 1, 77, 46
2, 247984, Note_off_c, 1, 77, 0
2, 248000, Note_on_c, 1, 69, 49
2, 248080, Note_off_c, 1, 69, 0
2, 248080, Note_on_c, 1, 70, 52
2, 248160, Note_off_c, 1, 70, 0
2, 248160, Note_on_c, 1, 72, 55
2, 248240, Note_off_c, 1, 72, 0
2, 248240, Note_on_c, 1, 69, 57
2, 248320, Note_off_c, 1, 69, 0
2, 248320, Note_on_c, 1, 70, 60
2, 248400, Note_off_c, 1, 70, 0
2, 248400, Note_on_c, 1, 72, 62
2, 248480, Note_off_c, 1, 72, 0
2, 248480, Note_on_c, 1, 69, 65
2, 248560, Note_off_c, 1, 69, 0
2, 248560, Note_on_c, 1, 70, 68
2, 248624, Note_off_c, 1, 70, 0
2, 248640, Note_on_c, 1, 82, 76
2, 249120, Note_off_c, 1, 82, 0
2, 249120, Note_on_c, 1, 77, 64
2, 249160, Note_off_c, 1, 77, 0
2, 249160, Note_on_c, 1, 79, 63
2, 249200, Note_off_c, 1, 79, 0
2, 249200, Note_on_c, 1, 77, 62
2, 249240, Note_off_c, 1, 77, 0
2, 249240, Note_on_c, 1, 75, 61
2, 249300, Note_off_c, 1, 75, 0
2, 249300, Note_on_c, 1, 77, 59
2, 249360, Note_off_c, 1, 77, 0
2, 249600, Note_on_c, 1, 78, 51
2, 249840, Note_off_c, 1, 78, 0
2, 249840, Note_on_c, 1, 75, 42
2, 249996, Note_off_c, 1, 75, 0
2, 250320, Note_on_c, 1, 75, 42
2, 250560, Note_off_c, 1, 75, 0
2, 250560, Note_on_c, 1, 69, 36
2, 250716, Note_off_c, 1, 69, 0
2, 251040, Note_on_c, 1, 70, 49
2, 251280, Note_off_c, 1, 70, 0
2, 251280, Note_on_c, 1, 74, 53
2, 251520, Note_off_c, 1, 74, 0
2, 251520, Note_on_c, 1, 77, 58
2, 251760, Note_off_c, 1, 77, 0
2, 251760, Note_on_c, 1, 81, 67
2, 252000, Note_off_c, 1, 81, 0
2, 252000, Note_on_c, 1, 82, 60
2, 252240, Note_off_c, 1, 82, 0
2, 252240, Note_on_c, 1, 70, 51
2, 252432, Note_off_c, 1, 70, 0
2, 252720, Note_on_c, 1, 68, 37
2, 252840, Note_off_c, 1, 68, 0
2, 252960, Note_on_c, 1, 68, 33
2, 253116, Note_off_c, 1, 68, 0
2, 253680, Control_c, 1, 64, 0
2, 253920, Note_on_c, 1, 82, 46
2, 254000, Note_off_c, 1, 82, 0
2, 254000, Note_on_c, 1, 84, 46
2, 254080, Note_off_c, 1, 84, 0
2, 254080, Note_on_c, 1, 82, 46
2, 254160, Note_off_c, 1, 82, 0
2, 254160, Note_on_c, 1, 80, 48
2, 254240, Note_off_c, 1, 80, 0
2, 254240, Note_on_c, 1, 82, 48
2, 254320, Note_off_c, 1, 82, 0
2, 254320, Note_on_c, 1, 80, 48
2, 254400, Note_off_c, 1, 80, 0
2, 254400, Note_on_c, 1, 79, 51
2, 254480, Note_off_c, 1, 79, 0
2, 254480, Note_on_c, 1, 80, 51
2, 254560, Note_off_c, 1, 80, 0
2, 254560, Note_on_c, 1, 79, 51
2, 254640, Note_off_c, 1, 79, 0
2, 254640, Note_on_c, 1, 77, 53
2, 254720, Note_on_c, 1, 79, 53
2, 254730, Note_off_c, 1, 77, 0
2, 254800, Note_on_c, 1, 77, 53
2, 254810, Note_off_c, 1, 79, 0
2, 254880, Note_off_c, 1, 77, 0
2, 254880, Note_on_c, 1, 75, 55
2, 254960, Note_off_c, 1, 75, 0
2, 254960, Note_on_c, 1, 77, 55
2, 255040, Note_off_c, 1, 77, 0
2, 255040, Note_on_c, 1, 75, 55
2, 255120, Note_off_c, 1, 75, 0
2, 255120, Note_on_c, 1, 74, 57
2, 255200, Note_off_c, 1, 74, 0
2, 255200, Note_on_c, 1, 75, 57
2, 255280, Note_off_c, 1, 75, 0
2, 255280, Note_on_c, 1, 74, 57
2, 255360, Note_off_c, 1, 74, 0
2, 255360, Note_on_c, 1, 72, 59
2, 255440, Note_off_c, 1, 72, 0
2, 255440, Note_on_c, 1, 74, 59
2, 255520, Note_off_c, 1, 74, 0
2, 255520, Note_on_c, 1, 72, 59
2, 255600, Note_off_c, 1, 72, 0
2, 255600, Note_on_c, 1, 70, 61
2, 256800, Note_on_c, 1, 72, 69
2, 256807, Note_off_c, 1, 70, 0
2, 257040, Note_off_c, 1, 72, 0
2, 257040, Note_on_c, 1, 74, 65
2, 257232, Note_off_c, 1, 74, 0
2, 257280, Note_on_c, 1, 75, 62
2, 257340, Note_off_c, 1, 75, 0
2, 257360, Note_on_c, 1, 77, 64
2, 257440, Note_off_c, 1, 77, 0
2, 257440, Note_on_c, 1, 75, 63
2, 257520, Note_off_c, 1, 75, 0
2, 257520, Note_on_c, 1, 74, 61
2, 257600, Note_off_c, 1, 74, 0
2, 257600, Note_on_c, 1, 75, 60
2, 257680, Note_off_c, 1, 75, 0
2, 257680, Note_on_c, 1, 74, 59
2, 257760, Note_off_c, 1, 74, 0
2, 257760, Note_on_c, 1, 72, 57
2, 257840, Note_off_c, 1, 72, 0
2, 257840, Note_on_c, 1, 74, 56
2, 257920, Note_off_c, 1, 74, 0
2, 257920, Note_on_c, 1, 72, 54
2, 257984, Note_off_c, 1, 72, 0
2, 258000, Note_on_c, 1, 70, 53
2, 258480, Note_off_c, 1, 70, 0
2, 258480, Note_on_c, 1, 68, 44
2, 258520, Note_off_c, 1, 68, 0
2, 258520, Note_on_c, 1, 70, 43
2, 258560, Note_off_c, 1, 70, 0
2, 258560, Note_on_c, 1, 68, 42
2, 258600, Note_off_c, 1, 68, 0
2, 258600, Note_on_c, 1, 67, 42
2, 258660, Note_off_c, 1, 67, 0
2, 258660, Note_on_c, 1, 68, 40
2, 258720, Note_off_c, 1, 68, 0
2, 258720, Note_on_c, 1, 67, 39
2, 258912, Note_off_c, 1, 67, 0
2, 258960, Note_on_c, 1, 74, 48
2, 259200, Note_off_c, 1, 74, 0
2, 259200, Note_on_c, 1, 75, 40
2, 259356, Note_off_c, 1, 75, 0
2, 259680, Note_on_c, 1, 82, 54
2, 259920, Note_off_c, 1, 82, 0
2, 259920, Note_on_c, 1, 79, 47
2, 260076, Note_off_c, 1, 79, 0
2, 260280, Note_on_c, 1, 77, 51
2, 260400, Note_off_c, 1, 77, 0
2, 260400, Note_on_c, 1, 79, 54
2, 260520, Note_off_c, 1, 79, 0
2, 260520, Note_on_c, 1, 80, 56
2, 260640, Note_off_c, 1, 80, 0
2, 260640, Note_on_c, 1, 82, 58
2, 260760, Note_off_c, 1, 82, 0
2, 260760, Note_on_c, 1, 84, 61
2, 261000, Note_off_c, 1, 84, 0
2, 261000, Note_on_c, 1, 82, 64
2, 261120, Note_off_c, 1, 82, 0
2, 261120, Note_on_c, 1, 80, 62
2, 261240, Note_off_c, 1, 80, 0
2, 261240, Note_on_c, 1, 79, 60
2, 261360, Note_off_c, 1, 79, 0
2, 261360, Note_on_c, 1, 77, 57
2, 261480, Note_off_c, 1, 77, 0
2, 261480, Note_on_c, 1, 74, 55
2, 261576, Note_off_c, 1, 74, 0
2, 261600, Note_on_c, 1, 75, 67
2, 261680, Note_off_c, 1, 75, 0
2, 261680, Note_on_c, 1, 70, 67
2, 261760, Note_off_c, 1, 70, 0
2, 261760, Note_on_c, 1, 67, 66
2, 261824, Note_off_c, 1, 67, 0
2, 261840, Note_on_c, 1, 70, 65
2, 261920, Note_off_c, 1, 70, 0
2, 261920, Note_on_c, 1, 67, 64
2, 262000, Note_off_c, 1, 67, 0
2, 262000, Note_on_c, 1, 63, 64
2, 262064, Note_off_c, 1, 63, 0
2, 262080, Note_on_c, 1, 62, 63
2, 262160, Note_off_c, 1, 62, 0
2, 262160, Note_on_c, 1, 65, 62
2, 262240, Note_off_c, 1, 65, 0
2, 262240, Note_on_c, 1, 68, 61
2, 262304, Note_off_c, 1, 68, 0
2, 262320, Note_on_c, 1, 67, 61
2, 262400, Note_off_c, 1, 67, 0
2, 262400, Note_on_c, 1, 70, 60
2, 262480, Note_off_c, 1, 70, 0
2, 262480, Note_on_c, 1, 67, 59
2, 262544, Note_off_c, 1, 67, 0
2, 262560, Note_on_c, 1, 75, 58
2, 262640, Note_off_c, 1, 75, 0
2, 262640, Note_on_c, 1, 70, 58
2, 262720, Note_off_c, 1, 70, 0
2, 262720, Note_on_c, 1, 67, 57
2, 262784, Note_off_c, 1, 67, 0
2, 262800, Note_on_c, 1, 68, 56
2, 262880, Note_off_c, 1, 68, 0
2, 262880, Note_on_c, 1, 65, 56
2, 262960, Note_off_c, 1, 65, 0
2, 262960, Note_on_c, 1, 62, 55
2, 263024, Note_off_c, 1, 62, 0
2, 263040, Note_on_c, 1, 63, 54
2, 263232, Note_off_c, 1, 63, 0
2, 263520, Note_on_c, 1, 63, 32
2, 263640, Note_off_c, 1, 63, 0
2, 263760, Note_on_c, 1, 63, 29
2, 263916, Note_off_c, 1, 63, 0
2, 264480, Note_on_c, 1, 75, 66
2, 264780, Note_off_c, 1, 75, 0
2, 264780, Note_on_c, 1, 77, 62
2, 264840, Note_off_c, 1, 77, 0
2, 264840, Note_on_c, 1, 75, 61
2, 264900, Note_off_c, 1, 75, 0
2, 264900, Note_on_c, 1, 73, 60
2, 264960, Note_off_c, 1, 73, 0
2, 264960, Note_on_c, 1, 72, 60
2, 265152, Note_off_c, 1, 72, 0
2, 265440, Note_on_c, 1, 79, 60
2, 265500, Note_off_c, 1, 79, 0
2, 265500, Note_on_c, 1, 80, 60
2, 265620, Note_off_c, 1, 80, 0
2, 265680, Note_on_c, 1, 79, 59
2, 265740, Note_off_c, 1, 79, 0
2, 265740, Note_on_c, 1, 80, 58
2, 265865, Note_off_c, 1, 80, 0
2, 265920, Note_on_c, 1, 79, 58
2, 266220, Note_off_c, 1, 79, 0
2, 266220, Note_on_c, 1, 80, 54
2, 266280, Note_off_c, 1, 80, 0
2, 266280, Note_on_c, 1, 82, 53
2, 266340, Note_off_c, 1, 82, 0
2, 266340, Note_on_c, 1, 80, 52
2, 266400, Note_off_c, 1, 80, 0
2, 266400, Note_on_c, 1, 79, 51
2, 266592, Note_off_c, 1, 79, 0
2, 266880, Note_on_c, 1, 84, 51
2, 266940, Note_off_c, 1, 84, 0
2, 266940, Note_on_c, 1, 85, 50
2, 267060, Note_off_c, 1, 85, 0
2, 267120, Note_on_c, 1, 84, 49
2, 267180, Note_off_c, 1, 84, 0
2, 267180, Note_on_c, 1, 85, 49
2, 267305, Note_off_c, 1, 85, 0
2, 267360, Note_on_c, 1, 84, 61
2, 267660, Note_off_c, 1, 84, 0
2, 267660, Note_on_c, 1, 85, 56
2, 267720, Note_off_c, 1, 85, 0
2, 267720, Note_on_c, 1, 87, 55
2, 267780, Note_off_c, 1, 87, 0
2, 267780, Note_on_c, 1, 85, 54
2, 267840, Note_off_c, 1, 85, 0
2, 267840, Note_on_c, 1, 84, 53
2, 268032, Note_off_c, 1, 84, 0
2, 268320, Note_on_c, 1, 76, 54
2, 268380, Note_off_c, 1, 76, 0
2, 268380, Note_on_c, 1, 77, 53
2, 268500, Note_off_c, 1, 77, 0
2, 268560, Note_on_c, 1, 76, 52
2, 268620, Note_off_c, 1, 76, 0
2, 268620, Note_on_c, 1, 77, 52
2, 268745, Note_off_c, 1, 77, 0
2, 268800, Control_c, 1, 64, 0
2, 268800, Note_on_c, 1, 77, 55
2, 268920, Note_off_c, 1, 77, 0
2, 268920, Note_on_c, 1, 76, 53
2, 269040, Note_off_c, 1, 76, 0
2, 269040, Note_on_c, 1, 79, 51
2, 269160, Note_off_c, 1, 79, 0
2, 269160, Note_on_c, 1, 76, 50
2, 269280, Note_off_c, 1, 76, 0
2, 269280, Note_on_c, 1, 72, 48
2, 269400, Note_off_c, 1, 72, 0
2, 269400, Note_on_c, 1, 70, 46
2, 269520, Note_off_c, 1, 70, 0
2, 269520, Note_on_c, 1, 68, 44
2, 269712, Note_off_c, 1, 68, 0
2, 270000, Note_on_c, 1, 75, 45
2, 270192, Note_off_c, 1, 75, 0
2, 270240, Note_on_c, 1, 75, 48
2, 270360, Note_off_c, 1, 75, 0
2, 270360, Note_on_c, 1, 74, 46
2, 270480, Note_off_c, 1, 74, 0
2, 270480, Note_on_c, 1, 77, 44
2, 270600, Note_off_c, 1, 77, 0
2, 270600, Note_on_c, 1, 74, 43
2, 270720, Note_off_c, 1, 74, 0
2, 270720, Note_on_c, 1, 70, 41
2, 270840, Note_off_c, 1, 70, 0
2, 270840, Note_on_c, 1, 68, 39
2, 270960, Note_off_c, 1, 68, 0
2, 270960, Note_on_c, 1, 67, 38
2, 271152, Note_off_c, 1, 67, 0
2, 271440, Note_on_c, 1, 79, 43
2, 271632, Note_off_c, 1, 79, 0
2, 271680, Note_on_c, 1, 76, 44
2, 271740, Note_off_c, 1, 76, 0
2, 271740, Note_on_c, 1, 77, 45
2, 271860, Note_off_c, 1, 77, 0
2, 272160, Note_on_c, 1, 79, 51
2, 272220, Note_off_c, 1, 79, 0
2, 272220, Note_on_c, 1, 80, 52
2, 272340, Note_off_c, 1, 80, 0
2, 272640, Note_on_c, 1, 83, 58
2, 272700, Note_off_c, 1, 83, 0
2, 272700, Note_on_c, 1, 84, 63
2, 272880, Note_off_c, 1, 84, 0
2, 272880, Note_on_c, 1, 82, 58
2, 272940, Note_off_c, 1, 82, 0
2, 272940, Note_on_c, 1, 80, 59
2, 273000, Note_off_c, 1, 80, 0
2, 273000, Note_on_c, 1, 79, 60
2, 273060, Note_off_c, 1, 79, 0
2, 273060, Note_on_c, 1, 77, 61
2, 273120, Note_off_c, 1, 77, 0
2, 273120, Note_on_c, 1, 75, 62
2, 273600, Note_off_c, 1, 75, 0
2, 273600, Note_on_c, 1, 74, 48
2, 273792, Note_off_c, 1, 74, 0
2, 274800, Note_on_c, 1, 82, 63
2, 274880, Note_off_c, 1, 82, 0
2, 274880, Note_on_c, 1, 79, 63
2, 274960, Note_off_c, 1, 79, 0
2, 274960, Note_on_c, 1, 80, 62
2, 275040, Note_off_c, 1, 80, 0
2, 275040, Note_on_c, 1, 82, 62
2, 275120, Note_off_c, 1, 82, 0
2, 275120, Note_on_c, 1, 79, 61
2, 275200, Note_off_c, 1, 79, 0
2, 275200, Note_on_c, 1, 80, 61
2, 275264, Note_off_c, 1, 80, 0
2, 275280, Note_on_c, 1, 82, 61
2, 275520, Note_off_c, 1, 82, 0
2, 275520, Note_on_c, 1, 84, 56
2, 275676, Note_off_c, 1, 84, 0
2, 275760, Note_on_c, 1, 80, 53
2, 275916, Note_off_c, 1, 80, 0
2, 276240, Note_on_c, 1, 80, 61
2, 276320, Note_off_c, 1, 80, 0
2, 276320, Note_on_c, 1, 77, 61
2, 276400, Note_off_c, 1, 77, 0
2, 276400, Note_on_c, 1, 79, 60
2, 276480, Note_off_c, 1, 79, 0
2, 276480, Note_on_c, 1, 80, 60
2, 276560, Note_off_c, 1, 80, 0
2, 276560, Note_on_c, 1, 77, 59
2, 276640, Note_off_c, 1, 77, 0
2, 276640, Note_on_c, 1, 79, 59
2, 276704, Note_off_c, 1, 79, 0
2, 276720, Note_on_c, 1, 80, 58
2, 276960, Note_off_c, 1, 80, 0
2, 276960, Note_on_c, 1, 82, 53
2, 277116, Note_off_c, 1, 82, 0
2, 277200, Note_on_c, 1, 79, 49
2, 277356, Note_off_c, 1, 79, 0
2, 277440, Note_on_c, 1, 75, 76
2, 277680, Note_off_c, 1, 75, 0
2, 277680, Note_on_c, 1, 87, 76
2, 277836, Note_off_c, 1, 87, 0
2, 277920, Note_on_c, 1, 87, 76
2, 278076, Note_off_c, 1, 87, 0
2, 278160, Note_on_c, 1, 86, 76
2, 278280, Note_on_c, 1, 84, 75
2, 278285, Note_off_c, 1, 86, 0
2, 278400, Note_off_c, 1, 84, 0
2, 278400, Note_on_c, 1, 82, 75
2, 278520, Note_off_c, 1, 82, 0
2, 278520, Note_on_c, 1, 80, 75
2, 278640, Note_off_c, 1, 80, 0
2, 278640, Note_on_c, 1, 79, 75
2, 278760, Note_off_c, 1, 79, 0
2, 278760, Note_on_c, 1, 77, 75
2, 278856, Note_off_c, 1, 77, 0
2, 278880, Note_on_c, 1, 75, 75
2, 278920, Note_off_c, 1, 75, 0
2, 278920, Note_on_c, 1, 77, 74
2, 278960, Note_off_c, 1, 77, 0
2, 278960, Note_on_c, 1, 75, 73
2, 279000, Note_off_c, 1, 75, 0
2, 279000, Note_on_c, 1, 77, 73
2, 279040, Note_off_c, 1, 77, 0
2, 279040, Note_on_c, 1, 75, 72
2, 279080, Note_off_c, 1, 75, 0
2, 279080, Note_on_c, 1, 77, 72
2, 279120, Note_off_c, 1, 77, 0
2, 279120, Note_on_c, 1, 75, 71
2, 279160, Note_off_c, 1, 75, 0
2, 279160, Note_on_c, 1, 77, 70
2, 279200, Note_off_c, 1, 77, 0
2, 279200, Note_on_c, 1, 75, 70
2, 279240, Note_off_c, 1, 75, 0
2, 279240, Note_on_c, 1, 74, 69
2, 279300, Note_off_c, 1, 74, 0
2, 279300, Note_on_c, 1, 75, 68
2, 279360, Note_off_c, 1, 75, 0
2, 279360, Note_on_c, 1, 77, 67
2, 279480, Note_off_c, 1, 77, 0
2, 279480, Note_on_c, 1, 74, 65
2, 279576, Note_off_c, 1, 74, 0
2, 279600, Note_on_c, 1, 75, 63
2, 279792, Note_off_c, 1, 75, 0
2, 280320, Note_on_c, 1, 70, 57
2, 280560, Note_off_c, 1, 70, 0
2, 280560, Note_on_c, 1, 79, 55
2, 280640, Note_off_c, 1, 79, 0
2, 280640, Note_on_c, 1, 74, 54
2, 280720, Note_off_c, 1, 74, 0
2, 280720, Note_on_c, 1, 75, 54
2, 280800, Note_off_c, 1, 75, 0
2, 280800, Note_on_c, 1, 79, 53
2, 280880, Note_off_c, 1, 79, 0
2, 280880, Note_on_c, 1, 74, 52
2, 280960, Note_off_c, 1, 74, 0
2, 280960, Note_on_c, 1, 75, 52
2, 281024, Note_off_c, 1, 75, 0
2, 281040, Note_on_c, 1, 74, 51
2, 281160, Note_on_c, 1, 72, 50
2, 281165, Note_off_c, 1, 74, 0
2, 281280, Note_off_c, 1, 72, 0
2, 281280, Note_on_c, 1, 70, 49
2, 281400, Note_off_c, 1, 70, 0
2, 281400, Note_on_c, 1, 68, 48
2, 281520, Note_off_c, 1, 68, 0
2, 281520, Note_on_c, 1, 67, 47
2, 281640, Note_off_c, 1, 67, 0
2, 281640, Note_on_c, 1, 65, 46
2, 281736, Note_off_c, 1, 65, 0
2, 281760, Note_on_c, 1, 63, 49
2, 281800, Note_off_c, 1, 63, 0
2, 281800, Note_on_c, 1, 65, 48
2, 281840, Note_off_c, 1, 65, 0
2, 281840, Note_on_c, 1, 63, 48
2, 281880, Note_off_c, 1, 63, 0
2, 281880, Note_on_c, 1, 65, 47
2, 281920, Note_off_c, 1, 65, 0
2, 281920, Note_on_c, 1, 63, 46
2, 281960, Note_off_c, 1, 63, 0
2, 281960, Note_on_c, 1, 65, 46
2, 282000, Note_off_c, 1, 65, 0
2, 282000, Note_on_c, 1, 63, 45
2, 282040, Note_off_c, 1, 63, 0
2, 282040, Note_on_c, 1, 65, 45
2, 282080, Note_off_c, 1, 65, 0
2, 282080, Note_on_c, 1, 63, 44
2, 282120, Note_off_c, 1, 63, 0
2, 282120, Note_on_c, 1, 62, 44
2, 282180, Note_off_c, 1, 62, 0
2, 282180, Note_on_c, 1, 63, 43
2, 282240, Note_off_c, 1, 63, 0
2, 282240, Note_on_c, 1, 65, 42
2, 282360, Note_off_c, 1, 65, 0
2, 282360, Note_on_c, 1, 62, 41
2, 282456, Note_off_c, 1, 62, 0
2, 282480, Note_on_c, 1, 73, 73
2, 282720, Note_off_c, 1, 73, 0
2, 282720, Note_on_c, 1, 72, 71
2, 282960, Note_off_c, 1, 72, 0
2, 282960, Note_on_c, 1, 75, 68
2, 283152, Note_off_c, 1, 75, 0
2, 283200, Note_on_c, 1, 67, 65
2, 283240, Note_off_c, 1, 67, 0
2, 283240, Note_on_c, 1, 68, 64
2, 283280, Note_off_c, 1, 68, 0
2, 283280, Note_on_c, 1, 67, 63
2, 283320, Note_off_c, 1, 67, 0
2, 283320, Note_on_c, 1, 68, 62
2, 283360, Note_off_c, 1, 68, 0
2, 283360, Note_on_c, 1, 67, 61
2, 283400, Note_off_c, 1, 67, 0
2, 283400, Note_on_c, 1, 68, 60
2, 283440, Note_off_c, 1, 68, 0
2, 283440, Note_on_c, 1, 67, 59
2, 283480, Note_off_c, 1, 67, 0
2, 283480, Note_on_c, 1, 68, 58
2, 283520, Note_off_c, 1, 68, 0
2, 283520, Note_on_c, 1, 67, 58
2, 283560, Note_off_c, 1, 67, 0
2, 283560, Note_on_c, 1, 65, 57
2, 283620, Note_off_c, 1, 65, 0
2, 283620, Note_on_c, 1, 67, 55
2, 283680, Note_off_c, 1, 67, 0
2, 283680, Note_on_c, 1, 68, 54
2, 283800, Note_off_c, 1, 68, 0
2, 283800, Note_on_c, 1, 65, 51
2, 283896, Note_off_c, 1, 65, 0
2, 283920, Note_on_c, 1, 85, 71
2, 284160, Note_off_c, 1, 85, 0
2, 284160, Note_on_c, 1, 84, 69
2, 284400, Note_off_c, 1, 84, 0
2, 284400, Note_on_c, 1, 87, 68
2, 284592, Note_off_c, 1, 87, 0
2, 284640, Note_on_c, 1, 79, 63
2, 284680, Note_off_c, 1, 79, 0
2, 284680, Note_on_c, 1, 80, 62
2, 284720, Note_off_c, 1, 80, 0
2, 284720, Note_on_c, 1, 79, 61
2, 284760, Note_off_c, 1, 79, 0
2, 284760, Note_on_c, 1, 80, 60
2, 284800, Note_off_c, 1, 80, 0
2, 284800, Note_on_c, 1, 79, 60
2, 284840, Note_off_c, 1, 79, 0
2, 284840, Note_on_c, 1, 80, 59
2, 284880, Note_off_c, 1, 80, 0
2, 284880, Note_on_c, 1, 79, 58
2, 284920, Note_off_c, 1, 79, 0
2, 284920, Note_on_c, 1, 80, 57
2, 284960, Note_off_c, 1, 80, 0
2, 284960, Note_on_c, 1, 79, 57
2, 285000, Note_off_c, 1, 79, 0
2, 285000, Note_on_c, 1, 77, 56
2, 285060, Note_off_c, 1, 77, 0
2, 285060, Note_on_c, 1, 79, 55
2, 285120, Note_off_c, 1, 79, 0
2, 285120, Note_on_c, 1, 80, 53
2, 285240, Note_off_c, 1, 80, 0
2, 285240, Note_on_c, 1, 77, 51
2, 285336, Note_off_c, 1, 77, 0
2, 285360, Note_on_c, 1, 75, 73
2, 285440, Note_off_c, 1, 75, 0
2, 285440, Note_on_c, 1, 79, 73
2, 285520, Note_off_c, 1, 79, 0
2, 285520, Note_on_c, 1, 82, 72
2, 285584, Note_off_c, 1, 82, 0
2, 285600, Note_on_c, 1, 87, 72
2, 285680, Note_off_c, 1, 87, 0
2, 285680, Note_on_c, 1, 82, 71
2, 285760, Note_off_c, 1, 82, 0
2, 285760, Note_on_c, 1, 79, 71
2, 285824, Note_off_c, 1, 79, 0
2, 285840, Note_on_c, 1, 80, 70
2, 285920, Note_off_c, 1, 80, 0
2, 285920, Note_on_c, 1, 77, 70
2, 286000, Note_off_c, 1, 77, 0
2, 286000, Note_on_c, 1, 74, 69
2, 286064, Note_off_c, 1, 74, 0
2, 286080, Note_on_c, 1, 75, 69
2, 286160, Note_off_c, 1, 75, 0
2, 286160, Note_on_c, 1, 79, 68
2, 286240, Note_off_c, 1, 79, 0
2, 286240, Note_on_c, 1, 70, 68
2, 286304, Note_off_c, 1, 70, 0
2, 286320, Note_on_c, 1, 75, 67
2, 286400, Note_off_c, 1, 75, 0
2, 286400, Note_on_c, 1, 70, 67
2, 286480, Note_off_c, 1, 70, 0
2, 286480, Note_on_c, 1, 67, 66
2, 286560, Note_off_c, 1, 67, 0
2, 286560, Note_on_c, 1, 68, 66
2, 286640, Note_off_c, 1, 68, 0
2, 286640, Note_on_c, 1, 65, 65
2, 286720, Note_off_c, 1, 65, 0
2, 286720, Note_on_c, 1, 62, 65
2, 286784, Note_off_c, 1, 62, 0
2, 286800, Note_on_c, 1, 63, 64
2, 286992, Note_off_c, 1, 63, 0
2, 287280, Note_on_c, 1, 63, 37
2, 287400, Note_off_c, 1, 63, 0
2, 287520, Note_on_c, 1, 63, 32
2, 287676, Note_off_c, 1, 63, 0
2, 289200, Control_c, 1, 64, 0
2, 289200, Note_on_c, 1, 77, 56
2, 289680, Note_off_c, 1, 77, 0
2, 289680, Note_on_c, 1, 79, 59
2, 290040, Note_off_c, 1, 79, 0
2, 290160, Note_on_c, 1, 77, 63
2, 290400, Note_off_c, 1, 77, 0
2, 290400, Note_on_c, 1, 75, 61
2, 290640, Note_off_c, 1, 75, 0
2, 290640, Note_on_c, 1, 74, 57
2, 290880, Note_off_c, 1, 74, 0
2, 290880, Note_on_c, 1, 72, 54
2, 291072, Note_off_c, 1, 72, 0
2, 291120, Note_on_c, 1, 75, 55
2, 291600, Note_off_c, 1, 75, 0
2, 291600, Note_on_c, 1, 77, 59
2, 291960, Note_off_c, 1, 77, 0
2, 292080, Note_on_c, 1, 75, 60
2, 292320, Note_off_c, 1, 75, 0
2, 292320, Note_on_c, 1, 74, 56
2, 292560, Note_off_c, 1, 74, 0
2, 292560, Note_on_c, 1, 72, 54
2, 292800, Note_off_c, 1, 72, 0
2, 292800, Note_on_c, 1, 70, 52
2, 292992, Note_off_c, 1, 70, 0
2, 293040, Note_on_c, 1, 77, 54
2, 293520, Note_off_c, 1, 77, 0
2, 293520, Note_on_c, 1, 82, 60
2, 293880, Note_off_c, 1, 82, 0
2, 294000, Note_on_c, 1, 81, 66
2, 294240, Note_off_c, 1, 81, 0
2, 294240, Note_on_c, 1, 79, 65
2, 294432, Note_off_c, 1, 79, 0
2, 294480, Note_on_c, 1, 79, 63
2, 294720, Note_off_c, 1, 79, 0
2, 294720, Note_on_c, 1, 77, 61
2, 294912, Note_off_c, 1, 77, 0
2, 294960, Note_on_c, 1, 77, 58
2, 295200, Note_off_c, 1, 77, 0
2, 295200, Note_on_c, 1, 75, 56
2, 295392, Note_off_c, 1, 75, 0
2, 295440, Note_on_c, 1, 75, 54
2, 295680, Note_off_c, 1, 75, 0
2, 295680, Note_on_c, 1, 74, 51
2, 295872, Note_off_c, 1, 74, 0
2, 295920, Note_on_c, 1, 74, 49
2, 296400, Note_off_c, 1, 74, 0
2, 296400, Note_on_c, 1, 72, 44
2, 296760, Note_off_c, 1, 72, 0
2, 296880, Note_on_c, 1, 77, 70
2, 297120, Note_off_c, 1, 77, 0
2, 297120, Note_on_c, 1, 76, 72
2, 297312, Note_off_c, 1, 76, 0
2, 297360, Note_on_c, 1, 77, 74
2, 297600, Note_off_c, 1, 77, 0
2, 297600, Note_on_c, 1, 79, 75
2, 297792, Note_off_c, 1, 79, 0
2, 297840, Note_on_c, 1, 77, 79
2, 298080, Note_off_c, 1, 77, 0
2, 298080, Note_on_c, 1, 75, 76
2, 298272, Note_off_c, 1, 75, 0
2, 298320, Note_on_c, 1, 74, 73
2, 298560, Note_off_c, 1, 74, 0
2, 298560, Note_on_c, 1, 72, 69
2, 298752, Note_off_c, 1, 72, 0
2, 298800, Note_on_c, 1, 75, 70
2, 299040, Note_off_c, 1, 75, 0
2, 299040, Note_on_c, 1, 74, 71
2, 299232, Note_off_c, 1, 74, 0
2, 299280, Note_on_c, 1, 75, 72
2, 299520, Note_off_c, 1, 75, 0
2, 299520, Note_on_c, 1, 77, 74
2, 299712, Note_off_c, 1, 77, 0
2, 299760, Note_on_c, 1, 75, 76
2, 300000, Note_off_c, 1, 75, 0
2, 300000, Note_on_c, 1, 74, 73
2, 300192, Note_off_c, 1, 74, 0
2, 300240, Note_on_c, 1, 72, 70
2, 300480, Note_off_c, 1, 72, 0
2, 300480, Note_on_c, 1, 70, 67
2, 300672, Note_off_c, 1, 70, 0
2, 300720, Note_on_c, 1, 70, 67
2, 300960, Note_off_c, 1, 70, 0
2, 300960, Note_on_c, 1, 74, 70
2, 301152, Note_off_c, 1, 74, 0
2, 301200, Note_on_c, 1, 77, 73
2, 301440, Note_off_c, 1, 77, 0
2, 301440, Note_on_c, 1, 82, 75
2, 301632, Note_off_c, 1, 82, 0
2, 301680, Note_on_c, 1, 82, 78
2, 301920, Note_off_c, 1, 82, 0
2, 301920, Note_on_c, 1, 79, 78
2, 302112, Note_off_c, 1, 79, 0
2, 302160, Note_on_c, 1, 75, 76
2, 302400, Note_off_c, 1, 75, 0
2, 302400, Note_on_c, 1, 72, 74
2, 302592, Note_off_c, 1, 72, 0
2, 302640, Note_on_c, 1, 70, 74
2, 302720, Note_off_c, 1, 70, 0
2, 302720, Note_on_c, 1, 72, 73
2, 302800, Note_off_c, 1, 72, 0
2, 302800, Note_on_c, 1, 74, 72
2, 302880, Note_off_c, 1, 74, 0
2, 302880, Note_on_c, 1, 72, 71
2, 302960, Note_off_c, 1, 72, 0
2, 302960, Note_on_c, 1, 74, 69
2, 303040, Note_off_c, 1, 74, 0
2, 303040, Note_on_c, 1, 72, 68
2, 303120, Note_off_c, 1, 72, 0
2, 303120, Note_on_c, 1, 74, 67
2, 303200, Note_off_c, 1, 74, 0
2, 303200, Note_on_c, 1, 72, 66
2, 303280, Note_off_c, 1, 72, 0
2, 303280, Note_on_c, 1, 74, 64
2, 303360, Note_off_c, 1, 74, 0
2, 303360, Note_on_c, 1, 72, 63
2, 303440, Note_off_c, 1, 72, 0
2, 303440, Note_on_c, 1, 70, 62
2, 303520, Note_off_c, 1, 70, 0
2, 303520, Note_on_c, 1, 72, 61
2, 303600, Note_off_c, 1, 72, 0
2, 303600, Note_on_c, 1, 70, 59
2, 303960, Note_off_c, 1, 70, 0
2, 311760, Note_on_c, 1, 70, 65
2, 313560, Note_off_c, 1, 70, 0
2, 313680, Note_on_c, 1, 75, 53
2, 313840, Note_off_c, 1, 75, 0
2, 313840, Note_on_c, 1, 77, 52
2, 314000, Note_off_c, 1, 77, 0
2, 314000, Note_on_c, 1, 79, 50
2, 314160, Note_off_c, 1, 79, 0
2, 314160, Note_on_c, 1, 77, 49
2, 314320, Note_off_c, 1, 77, 0
2, 314320, Note_on_c, 1, 75, 47
2, 314480, Note_off_c, 1, 75, 0
2, 314480, Note_on_c, 1, 74, 46
2, 314640, Note_off_c, 1, 74, 0
2, 314640, Note_on_c, 1, 72, 45
2, 314800, Note_off_c, 1, 72, 0
2, 314800, Note_on_c, 1, 70, 43
2, 314960, Note_off_c, 1, 70, 0
2, 314960, Note_on_c, 1, 69, 42
2, 315120, Note_off_c, 1, 69, 0
2, 315120, Note_on_c, 1, 70, 40
2, 315480, Note_off_c, 1, 70, 0
2, 315600, Note_on_c, 1, 70, 68
2, 317400, Note_off_c, 1, 70, 0
2, 317520, Note_on_c, 1, 75, 59
2, 317680, Note_off_c, 1, 75, 0
2, 317680, Note_on_c, 1, 77, 58
2, 317840, Note_off_c, 1, 77, 0
2, 317840, Note_on_c, 1, 79, 56
2, 318000, Note_off_c, 1, 79, 0
2, 318000, Note_on_c, 1, 77, 55
2, 318160, Note_off_c, 1, 77, 0
2, 318160, Note_on_c, 1, 75, 54
2, 318320, Note_off_c, 1, 75, 0
2, 318320, Note_on_c, 1, 74, 53
2, 318480, Note_off_c, 1, 74, 0
2, 318480, Note_on_c, 1, 72, 52
2, 318640, Note_off_c, 1, 72, 0
2, 318640, Note_on_c, 1, 70, 50
2, 318800, Note_off_c, 1, 70, 0
2, 318800, Note_on_c, 1, 69, 49
2, 318960, Note_off_c, 1, 69, 0
2, 318960, Note_on_c, 1, 70, 48
2, 319320, Note_off_c, 1, 70, 0
2, 319440, Note_on_c, 1, 75, 44
2, 319600, Note_off_c, 1, 75, 0
2, 319600, Note_on_c, 1, 72, 43
2, 319760, Note_off_c, 1, 72, 0
2, 319760, Note_on_c, 1, 69, 42
2, 319920, Note_off_c, 1, 69, 0
2, 319920, Note_on_c, 1, 70, 41
2, 320280, Note_off_c, 1, 70, 0
2, 320400, Note_on_c, 1, 75, 37
2, 320560, Note_off_c, 1, 75, 0
2, 320560, Note_on_c, 1, 72, 36
2, 320720, Note_off_c, 1, 72, 0
2, 320720, Note_on_c, 1, 69, 35
2, 320880, Note_off_c, 1, 69, 0
2, 320880, Note_on_c, 1, 70, 34
2, 321240, Note_off_c, 1, 70, 0
2, 321360, Note_on_c, 1, 76, 30
2, 321480, Note_off_c, 1, 76, 0
2, 321480, Note_on_c, 1, 77, 29
2, 321720, Note_off_c, 1, 77, 0
2, 321840, Note_on_c, 1, 81, 27
2, 321960, Note_off_c, 1, 81, 0
2, 321960, Note_on_c, 1, 82, 26
2, 322200, Note_off_c, 1, 82, 0
2, 322800, Note_on_c, 1, 70, 73
2, 322880, Note_off_c, 1, 70, 0
2, 322880, Note_on_c, 1, 72, 69
2, 322960, Note_off_c, 1, 72, 0
2, 322960, Note_on_c, 1, 70, 69
2, 323040, Note_off_c, 1, 70, 0
2, 323040, Note_on_c, 1, 72, 68
2, 323120, Note_off_c, 1, 72, 0
2, 323120, Note_on_c, 1, 70, 68
2, 323200, Note_off_c, 1, 70, 0
2, 323200, Note_on_c, 1, 72, 67
2, 323280, Note_off_c, 1, 72, 0
2, 323280, Note_on_c, 1, 70, 66
2, 323360, Note_off_c, 1, 70, 0
2, 323360, Note_on_c, 1, 72, 66
2, 323440, Note_off_c, 1, 72, 0
2, 323440, Note_on_c, 1, 70, 65
2, 323520, Note_off_c, 1, 70, 0
2, 323520, Note_on_c, 1, 72, 65
2, 323600, Note_off_c, 1, 72, 0
2, 323600, Note_on_c, 1, 70, 64
2, 323680, Note_off_c, 1, 70, 0
2, 323680, Note_on_c, 1, 72, 64
2, 323760, Note_off_c, 1, 72, 0
2, 323760, Note_on_c, 1, 70, 63
2, 323840, Note_off_c, 1, 70, 0
2, 323840, Note_on_c, 1, 72, 62
2, 323920, Note_off_c, 1, 72, 0
2, 323920, Note_on_c, 1, 70, 62
2, 324000, Note_off_c, 1, 70, 0
2, 324000, Note_on_c, 1, 69, 61
2, 324120, Note_off_c, 1, 69, 0
2, 324120, Note_on_c, 1, 70, 61
2, 324240, Note_off_c, 1, 70, 0
2, 324240, Note_on_c, 1, 74, 60
2, 324600, Note_off_c, 1, 74, 0
2, 324720, Note_on_c, 1, 77, 56
2, 325080, Note_off_c, 1, 77, 0
2, 325200, Note_on_c, 1, 81, 53
2, 325320, Note_off_c, 1, 81, 0
2, 325320, Note_on_c, 1, 82, 52
2, 325560, Note_off_c, 1, 82, 0
2, 325680, Note_on_c, 1, 85, 50
2, 325800, Note_off_c, 1, 85, 0
2, 325800, Note_on_c, 1, 86, 49
2, 326040, Note_off_c, 1, 86, 0
2, 326640, Note_on_c, 1, 69, 67
2, 326720, Note_off_c, 1, 69, 0
2, 326720, Note_on_c, 1, 70, 63
2, 326800, Note_off_c, 1, 70, 0
2, 326800, Note_on_c, 1, 69, 63
2, 326880, Note_off_c, 1, 69, 0
2, 326880, Note_on_c, 1, 70, 62
2, 326960, Note_off_c, 1, 70, 0
2, 326960, Note_on_c, 1, 69, 62
2, 327040, Note_off_c, 1, 69, 0
2, 327040, Note_on_c, 1, 70, 61
2, 327120, Note_off_c, 1, 70, 0
2, 327120, Note_on_c, 1, 69, 61
2, 327200, Note_off_c, 1, 69, 0
2, 327200, Note_on_c, 1, 70, 60
2, 327280, Note_off_c, 1, 70, 0
2, 327280, Note_on_c, 1, 69, 60
2, 327360, Note_off_c, 1, 69, 0
2, 327360, Note_on_c, 1, 70, 60
2, 327440, Note_off_c, 1, 70, 0
2, 327440, Note_on_c, 1, 69, 59
2, 327520, Note_off_c, 1, 69, 0
2, 327520, Note_on_c, 1, 70, 59
2, 327600, Note_off_c, 1, 70, 0
2, 327600, Note_on_c, 1, 69, 58
2, 327680, Note_off_c, 1, 69, 0
2, 327680, Note_on_c, 1, 70, 58
2, 327760, Note_off_c, 1, 70, 0
2, 327760, Note_on_c, 1, 69, 57
2, 327840, Note_off_c, 1, 69, 0
2, 327840, Note_on_c, 1, 67, 57
2, 327960, Note_off_c, 1, 67, 0
2, 327960, Note_on_c, 1, 69, 56
2, 328080, Note_off_c, 1, 69, 0
2, 328080, Note_on_c, 1, 72, 55
2, 328440, Note_off_c, 1, 72, 0
2, 328560, Note_on_c, 1, 77, 52
2, 328920, Note_off_c, 1, 77, 0
2, 329040, Note_on_c, 1, 80, 50
2, 329160, Note_off_c, 1, 80, 0
2, 329160, Note_on_c, 1, 81, 49
2, 329280, Note_off_c, 1, 81, 0
2, 329520, Note_on_c, 1, 83, 47
2, 329640, Note_off_c, 1, 83, 0
2, 329640, Note_on_c, 1, 84, 46
2, 329760, Note_off_c, 1, 84, 0
2, 337360, Note_on_c, 1, 65, 47
2, 337520, Note_off_c, 1, 65, 0
2, 337520, Note_on_c, 1, 69, 51
2, 337680, Note_off_c, 1, 69, 0
2, 337680, Note_on_c, 1, 72, 55
2, 337840, Note_off_c, 1, 72, 0
2, 337840, Note_on_c, 1, 77, 59
2, 338000, Note_off_c, 1, 77, 0
2, 338000, Note_on_c, 1, 81, 63
2, 338128, Note_off_c, 1, 81, 0
2, 338160, Note_on_c, 1, 74, 68
2, 338256, Note_off_c, 1, 74, 0
2, 338320, Note_on_c, 1, 79, 69
2, 338480, Note_off_c, 1, 79, 0
2, 338480, Note_on_c, 1, 78, 69
2, 338640, Note_off_c, 1, 78, 0
2, 338640, Note_on_c, 1, 79, 70
2, 338800, Note_off_c, 1, 79, 0
2, 338800, Note_on_c, 1, 82, 71
2, 338960, Note_off_c, 1, 82, 0
2, 338960, Note_on_c, 1, 81, 72
2, 339120, Note_off_c, 1, 81, 0
2, 339120, Note_on_c, 1, 82, 72
2, 339280, Note_off_c, 1, 82, 0
2, 339280, Note_on_c, 1, 86, 73
2, 339440, Note_off_c, 1, 86, 0
2, 339440, Note_on_c, 1, 85, 74
2, 339568, Note_off_c, 1, 85, 0
2, 339600, Note_on_c, 1, 86, 75
2, 339760, Note_off_c, 1, 86, 0
2, 339760, Note_on_c, 1, 82, 75
2, 339920, Note_off_c, 1, 82, 0
2, 339920, Note_on_c, 1, 79, 76
2, 340048, Note_off_c, 1, 79, 0
2, 340080, Note_on_c, 1, 77, 77
2, 340560, Note_off_c, 1, 77, 0
2, 340560, Note_on_c, 1, 76, 68
2, 340920, Note_off_c, 1, 76, 0
2, 342000, Note_on_c, 1, 72, 60
2, 342360, Note_off_c, 1, 72, 0
2, 342480, Note_on_c, 1, 77, 61
2, 342768, Note_off_c, 1, 77, 0
2, 342840, Note_on_c, 1, 69, 61
2, 342936, Note_off_c, 1, 69, 0
2, 342960, Note_on_c, 1, 72, 61
2, 343080, Note_off_c, 1, 72, 0
2, 343080, Note_on_c, 1, 70, 62
2, 343320, Note_off_c, 1, 70, 0
2, 343440, Note_on_c, 1, 67, 61
2, 343800, Note_off_c, 1, 67, 0
2, 343920, Note_on_c, 1, 79, 63
2, 343980, Note_off_c, 1, 79, 0
2, 343980, Note_on_c, 1, 81, 63
2, 344040, Note_off_c, 1, 81, 0
2, 344040, Note_on_c, 1, 82, 63
2, 344287, Note_off_c, 1, 82, 0
2, 344400, Note_on_c, 1, 81, 64
2, 344520, Note_off_c, 1, 81, 0
2, 344520, Note_on_c, 1, 79, 64
2, 344640, Note_off_c, 1, 79, 0
2, 344640, Note_on_c, 1, 77, 64
2, 344760, Note_off_c, 1, 77, 0
2, 344760, Note_on_c, 1, 76, 65
2, 344856, Note_off_c, 1, 76, 0
2, 344880, Note_on_c, 1, 77, 65
2, 345360, Note_off_c, 1, 77, 0
2, 345360, Note_on_c, 1, 81, 61
2, 345600, Note_off_c, 1, 81, 0
2, 345840, Note_on_c, 1, 72, 67
2, 345920, Note_off_c, 1, 72, 0
2, 345920, Note_on_c, 1, 74, 67
2, 346000, Note_off_c, 1, 74, 0
2, 346000, Note_on_c, 1, 72, 67
2, 346080, Note_off_c, 1, 72, 0
2, 346080, Note_on_c, 1, 71, 67
2, 346200, Note_off_c, 1, 71, 0
2, 346200, Note_on_c, 1, 72, 67
2, 346320, Note_off_c, 1, 72, 0
2, 346320, Note_on_c, 1, 77, 67
2, 346608, Note_off_c, 1, 77, 0
2, 346680, Note_on_c, 1, 69, 68
2, 346776, Note_off_c, 1, 69, 0
2, 346800, Note_on_c, 1, 72, 68
2, 346920, Note_off_c, 1, 72, 0
2, 346920, Note_on_c, 1, 70, 68
2, 347160, Note_off_c, 1, 70, 0
2, 347280, Note_on_c, 1, 67, 65
2, 347640, Note_off_c, 1, 67, 0
2, 347760, Note_on_c, 1, 79, 70
2, 347820, Note_off_c, 1, 79, 0
2, 347820, Note_on_c, 1, 81, 70
2, 347880, Note_off_c, 1, 81, 0
2, 347880, Note_on_c, 1, 82, 70
2, 348127, Note_off_c, 1, 82, 0
2, 348240, Note_on_c, 1, 81, 71
2, 348360, Note_off_c, 1, 81, 0
2, 348360, Note_on_c, 1, 79, 71
2, 348480, Note_off_c, 1, 79, 0
2, 348480, Note_on_c, 1, 77, 71
2, 348600, Note_off_c, 1, 77, 0
2, 348600, Note_on_c, 1, 76, 71
2, 348696, Note_off_c, 1, 76, 0
2, 348720, Note_on_c, 1, 77, 72
2, 349200, Note_off_c, 1, 77, 0
2, 349200, Note_on_c, 1, 81, 68
2, 349440, Note_off_c, 1, 81, 0
2, 349840, Note_on_c, 1, 84, 53
2, 350000, Note_off_c, 1, 84, 0
2, 350000, Note_on_c, 1, 82, 52
2, 350160, Note_off_c, 1, 82, 0
2, 350160, Note_on_c, 1, 81, 51
2, 350288, Note_off_c, 1, 81, 0
2, 350320, Note_on_c, 1, 81, 50
2, 350480, Note_off_c, 1, 81, 0
2, 350480, Note_on_c, 1, 79, 48
2, 350640, Note_off_c, 1, 79, 0
2, 350640, Note_on_c, 1, 77, 47
2, 350768, Note_off_c, 1, 77, 0
2, 350800, Note_on_c, 1, 77, 46
2, 350960, Note_off_c, 1, 77, 0
2, 350960, Note_on_c, 1, 75, 45
2, 351120, Note_off_c, 1, 75, 0
2, 351120, Note_on_c, 1, 74, 43
2, 351248, Note_off_c, 1, 74, 0
2, 351280, Note_on_c, 1, 74, 42
2, 351440, Note_off_c, 1, 74, 0
2, 351440, Note_on_c, 1, 73, 41
2, 351600, Note_off_c, 1, 73, 0
2, 351600, Note_on_c, 1, 74, 43
2, 351756, Note_off_c, 1, 74, 0
2, 351840, Note_on_c, 1, 76, 44
2, 351996, Note_off_c, 1, 76, 0
2, 352080, Note_on_c, 1, 77, 47
2, 352236, Note_off_c, 1, 77, 0
2, 352320, Note_on_c, 1, 78, 50
2, 352476, Note_off_c, 1, 78, 0
2, 352560, Note_on_c, 1, 79, 53
2, 352716, Note_off_c, 1, 79, 0
2, 352800, Note_on_c, 1, 81, 55
2, 352956, Note_off_c, 1, 81, 0
2, 353040, Note_on_c, 1, 82, 58
2, 353196, Note_off_c, 1, 82, 0
2, 353280, Note_on_c, 1, 86, 61
2, 353436, Note_off_c, 1, 86, 0
2, 353520, Note_on_c, 1, 86, 66
2, 353676, Note_off_c, 1, 86, 0
2, 353760, Note_on_c, 1, 84, 61
2, 353952, Note_off_c, 1, 84, 0
2, 354000, Note_on_c, 1, 82, 60
2, 354080, Note_off_c, 1, 82, 0
2, 354080, Note_on_c, 1, 84, 59
2, 354160, Note_off_c, 1, 84, 0
2, 354160, Note_on_c, 1, 82, 59
2, 354240, Note_off_c, 1, 82, 0
2, 354240, Note_on_c, 1, 81, 58
2, 354432, Note_off_c, 1, 81, 0
2, 354480, Note_on_c, 1, 81, 57
2, 354720, Note_off_c, 1, 81, 0
2, 354720, Note_on_c, 1, 79, 55
2, 354912, Note_off_c, 1, 79, 0
2, 354960, Note_on_c, 1, 77, 54
2, 355040, Note_off_c, 1, 77, 0
2, 355040, Note_on_c, 1, 79, 53
2, 355120, Note_off_c, 1, 79, 0
2, 355120, Note_on_c, 1, 77, 53
2, 355200, Note_off_c, 1, 77, 0
2, 355200, Note_on_c, 1, 76, 52
2, 355392, Note_off_c, 1, 76, 0
2, 355600, Note_on_c, 1, 84, 50
2, 355760, Note_off_c, 1, 84, 0
2, 355760, Note_on_c, 1, 82, 49
2, 355920, Note_off_c, 1, 82, 0
2, 355920, Note_on_c, 1, 81, 48
2, 356048, Note_off_c, 1, 81, 0
2, 356080, Note_on_c, 1, 81, 47
2, 356240, Note_off_c, 1, 81, 0
2, 356240, Note_on_c, 1, 79, 46
2, 356400, Note_off_c, 1, 79, 0
2, 356400, Note_on_c, 1, 77, 45
2, 356528, Note_off_c, 1, 77, 0
2, 356560, Note_on_c, 1, 77, 44
2, 356720, Note_off_c, 1, 77, 0
2, 356720, Note_on_c, 1, 75, 43
2, 356880, Note_off_c, 1, 75, 0
2, 356880, Note_on_c, 1, 74, 42
2, 357008, Note_off_c, 1, 74, 0
2, 357040, Note_on_c, 1, 74, 41
2, 357200, Note_off_c, 1, 74, 0
2, 357200, Note_on_c, 1, 73, 40
2, 357360, Note_off_c, 1, 73, 0
2, 357360, Note_on_c, 1, 74, 42
2, 357516, Note_off_c, 1, 74, 0
2, 357600, Note_on_c, 1, 76, 44
2, 357756, Note_off_c, 1, 76, 0
2, 357840, Note_on_c, 1, 77, 47
2, 357996, Note_off_c, 1, 77, 0
2, 358080, Note_on_c, 1, 78, 49
2, 358236, Note_off_c, 1, 78, 0
2, 358320, Note_on_c, 1, 79, 52
2, 358476, Note_off_c, 1, 79, 0
2, 358560, Note_on_c, 1, 81, 54
2, 358716, Note_off_c, 1, 81, 0
2, 358800, Note_on_c, 1, 82, 57
2, 358956, Note_off_c, 1, 82, 0
2, 359040, Note_on_c, 1, 84, 59
2, 359196, Note_off_c, 1, 84, 0
2, 359280, Note_on_c, 1, 86, 61
2, 359472, Note_off_c, 1, 86, 0
2, 359520, Note_on_c, 1, 88, 64
2, 359712, Note_off_c, 1, 88, 0
2, 359760, Note_on_c, 1, 89, 66
2, 359952, Note_off_c, 1, 89, 0
2, 360000, Note_on_c, 1, 88, 69
2, 360192, Note_off_c, 1, 88, 0
2, 360240, Note_on_c, 1, 89, 71
2, 360432, Note_off_c, 1, 89, 0
2, 360480, Note_on_c, 1, 88, 74
2, 360672, Note_off_c, 1, 88, 0
2, 360720, Note_on_c, 1, 89, 76
2, 360912, Note_off_c, 1, 89, 0
2, 360960, Note_on_c, 1, 88, 79
2, 361152, Note_off_c, 1, 88, 0
2, 361200, Note_on_c, 1, 89, 82
2, 361440, Note_off_c, 1, 89, 0
2, 361440, Note_on_c, 1, 86, 79
2, 361680, Note_off_c, 1, 86, 0
2, 361680, Note_on_c, 1, 82, 76
2, 361920, Note_off_c, 1, 82, 0
2, 361920, Note_on_c, 1, 79, 73
2, 362112, Note_off_c, 1, 79, 0
2, 362160, Note_on_c, 1, 77, 72
2, 362240, Note_off_c, 1, 77, 0
2, 362240, Note_on_c, 1, 79, 71
2, 362320, Note_off_c, 1, 79, 0
2, 362320, Note_on_c, 1, 81, 70
2, 362400, Note_off_c, 1, 81, 0
2, 362400, Note_on_c, 1, 79, 69
2, 362480, Note_off_c, 1, 79, 0
2, 362480, Note_on_c, 1, 81, 68
2, 362560, Note_off_c, 1, 81, 0
2, 362560, Note_on_c, 1, 79, 67
2, 362640, Note_off_c, 1, 79, 0
2, 362640, Note_on_c, 1, 81, 67
2, 362720, Note_off_c, 1, 81, 0
2, 362720, Note_on_c, 1, 79, 66
2, 362800, Note_off_c, 1, 79, 0
2, 362800, Note_on_c, 1, 81, 65
2, 362880, Note_off_c, 1, 81, 0
2, 362880, Note_on_c, 1, 79, 64
2, 362960, Note_off_c, 1, 79, 0
2, 362960, Note_on_c, 1, 77, 63
2, 363040, Note_off_c, 1, 77, 0
2, 363040, Note_on_c, 1, 79, 62
2, 363120, Note_off_c, 1, 79, 0
2, 363120, Note_on_c, 1, 77, 61
2, 363480, Note_off_c, 1, 77, 0
2, 365040, Note_on_c, 1, 74, 57
2, 365400, Note_off_c, 1, 74, 0
2, 366960, Note_on_c, 1, 77, 57
2, 367320, Note_off_c, 1, 77, 0
2, 368880, Note_on_c, 1, 74, 54
2, 369240, Note_off_c, 1, 74, 0
2, 370800, Note_on_c, 1, 77, 47
2, 372240, Control_c, 1, 64, 0
2, 372480, Note_on_c, 1, 82, 70
2, 372720, Note_off_c, 1, 77, 0
2, 372720, Note_off_c, 1, 82, 0
2, 372720, Note_on_c, 1, 79, 63
2, 372960, Note_off_c, 1, 79, 0
2, 372960, Note_on_c, 1, 76, 59
2, 373152, Note_off_c, 1, 76, 0
2, 373200, Note_on_c, 1, 77, 56
2, 373860, Note_off_c, 1, 77, 0
2, 373920, Note_on_c, 1, 82, 68
2, 374160, Note_off_c, 1, 82, 0
2, 374160, Note_on_c, 1, 79, 59
2, 374400, Note_off_c, 1, 79, 0
2, 374400, Note_on_c, 1, 76, 55
2, 374640, Note_off_c, 1, 76, 0
2, 374640, Note_on_c, 1, 77, 51
2, 374832, Note_off_c, 1, 77, 0
2, 374880, Note_on_c, 1, 79, 60
2, 375120, Note_off_c, 1, 79, 0
2, 375120, Note_on_c, 1, 75, 54
2, 375360, Note_off_c, 1, 75, 0
2, 375360, Note_on_c, 1, 73, 51
2, 375600, Note_off_c, 1, 73, 0
2, 375600, Note_on_c, 1, 74, 48
2, 375792, Note_off_c, 1, 74, 0
2, 375840, Note_on_c, 1, 75, 54
2, 376080, Note_off_c, 1, 75, 0
2, 376080, Note_on_c, 1, 72, 51
2, 376320, Note_off_c, 1, 72, 0
2, 376320, Note_on_c, 1, 69, 48
2, 376560, Note_off_c, 1, 69, 0
2, 376560, Note_on_c, 1, 70, 45
2, 376752, Note_off_c, 1, 70, 0
2, 376800, Note_on_c, 1, 72, 49
2, 377040, Note_off_c, 1, 72, 0
2, 377040, Note_on_c, 1, 74, 51
2, 377280, Note_off_c, 1, 74, 0
2, 377280, Note_on_c, 1, 75, 53
2, 377520, Control_c, 1, 64, 0
2, 377520, Note_off_c, 1, 75, 0
2, 377520, Note_on_c, 1, 77, 56
2, 378000, Note_off_c, 1, 77, 0
2, 378000, Note_on_c, 1, 79, 60
2, 378360, Note_off_c, 1, 79, 0
2, 378480, Note_on_c, 1, 77, 63
2, 378720, Note_off_c, 1, 77, 0
2, 378720, Note_on_c, 1, 75, 61
2, 378960, Note_off_c, 1, 75, 0
2, 378960, Note_on_c, 1, 74, 57
2, 379200, Note_off_c, 1, 74, 0
2, 379200, Note_on_c, 1, 72, 54
2, 379392, Note_off_c, 1, 72, 0
2, 379440, Note_on_c, 1, 75, 55
2, 379920, Note_off_c, 1, 75, 0
2, 379920, Note_on_c, 1, 77, 59
2, 380280, Note_off_c, 1, 77, 0
2, 380400, Note_on_c, 1, 75, 60
2, 380640, Note_off_c, 1, 75, 0
2, 380640, Note_on_c, 1, 74, 56
2, 380880, Note_off_c, 1, 74, 0
2, 380880, Note_on_c, 1, 72, 54
2, 381120, Note_off_c, 1, 72, 0
2, 381120, Note_on_c, 1, 70, 52
2, 381312, Note_off_c, 1, 70, 0
2, 381360, Note_on_c, 1, 77, 54
2, 381840, Note_off_c, 1, 77, 0
2, 381840, Note_on_c, 1, 82, 60
2, 382200, Note_off_c, 1, 82, 0
2, 382320, Note_on_c, 1, 81, 66
2, 382560, Note_off_c, 1, 81, 0
2, 382560, Note_on_c, 1, 79, 65
2, 382752, Note_off_c, 1, 79, 0
2, 382800, Note_on_c, 1, 79, 63
2, 383040, Note_off_c, 1, 79, 0
2, 383040, Note_on_c, 1, 77, 61
2, 383232, Note_off_c, 1, 77, 0
2, 383280, Note_on_c, 1, 77, 58
2, 383520, Note_off_c, 1, 77, 0
2, 383520, Note_on_c, 1, 75, 56
2, 383712, Note_off_c, 1, 75, 0
2, 383760, Note_on_c, 1, 75, 54
2, 384000, Note_off_c, 1, 75, 0
2, 384000, Note_on_c, 1, 74, 51
2, 384192, Note_off_c, 1, 74, 0
2, 384240, Note_on_c, 1, 74, 49
2, 384720, Note_off_c, 1, 74, 0
2, 384720, Note_on_c, 1, 72, 44
2, 385080, Note_off_c, 1, 72, 0
2, 385200, Note_on_c, 1, 77, 70
2, 385440, Note_off_c, 1, 77, 0
2, 385440, Note_on_c, 1, 76, 72
2, 385632, Note_off_c, 1, 76, 0
2, 385680, Note_on_c, 1, 77, 74
2, 385920, Note_off_c, 1, 77, 0
2, 385920, Note_on_c, 1, 79, 75
2, 386112, Note_off_c, 1, 79, 0
2, 386160, Note_on_c, 1, 77, 79
2, 386400, Note_off_c, 1, 77, 0
2, 386400, Note_on_c, 1, 75, 76
2, 386592, Note_off_c, 1, 75, 0
2, 386640, Note_on_c, 1, 74, 73
2, 386880, Note_off_c, 1, 74, 0
2, 386880, Note_on_c, 1, 72, 69
2, 387072, Note_off_c, 1, 72, 0
2, 387120, Note_on_c, 1, 75, 70
2, 387360, Note_off_c, 1, 75, 0
2, 387360, Note_on_c, 1, 74, 71
2, 387552, Note_off_c, 1, 74, 0
2, 387600, Note_on_c, 1, 75, 72
2, 387840, Note_off_c, 1, 75, 0
2, 387840, Note_on_c, 1, 77, 74
2, 388032, Note_off_c, 1, 77, 0
2, 388080, Note_on_c, 1, 75, 76
2, 388320, Note_off_c, 1, 75, 0
2, 388320, Note_on_c, 1, 74, 73
2, 388512, Note_off_c, 1, 74, 0
2, 388560, Note_on_c, 1, 72, 70
2, 388800, Note_off_c, 1, 72, 0
2, 388800, Note_on_c, 1, 70, 67
2, 388992, Note_off_c, 1, 70, 0
2, 389040, Note_on_c, 1, 70, 67
2, 389280, Note_off_c, 1, 70, 0
2, 389280, Note_on_c, 1, 74, 70
2, 389472, Note_off_c, 1, 74, 0
2, 389520, Note_on_c, 1, 77, 73
2, 389760, Note_off_c, 1, 77, 0
2, 389760, Note_on_c, 1, 82, 75
2, 389952, Note_off_c, 1, 82, 0
2, 390000, Note_on_c, 1, 82, 78
2, 390240, Note_off_c, 1, 82, 0
2, 390240, Note_on_c, 1, 79, 78
2, 390432, Note_off_c, 1, 79, 0
2, 390480, Note_on_c, 1, 75, 76
2, 390720, Note_off_c, 1, 75, 0
2, 390720, Note_on_c, 1, 72, 74
2, 390912, Note_off_c, 1, 72, 0
2, 390960, Note_on_c, 1, 70, 73
2, 391040, Note_off_c, 1, 70, 0
2, 391040, Note_on_c, 1, 72, 72
2, 391120, Note_off_c, 1, 72, 0
2, 391120, Note_on_c, 1, 74, 71
2, 391200, Note_off_c, 1, 74, 0
2, 391200, Note_on_c, 1, 72, 70
2, 391280, Note_off_c, 1, 72, 0
2, 391280, Note_on_c, 1, 74, 69
2, 391360, Note_off_c, 1, 74, 0
2, 391360, Note_on_c, 1, 72, 67
2, 391440, Note_off_c, 1, 72, 0
2, 391440, Note_on_c, 1, 74, 66
2, 391520, Note_off_c, 1, 74, 0
2, 391520, Note_on_c, 1, 72, 65
2, 391600, Note_off_c, 1, 72, 0
2, 391600, Note_on_c, 1, 74, 64
2, 391680, Note_off_c, 1, 74, 0
2, 391680, Note_on_c, 1, 72, 63
2, 391760, Note_off_c, 1, 72, 0
2, 391760, Note_on_c, 1, 70, 62
2, 391840, Note_off_c, 1, 70, 0
2, 391840, Note_on_c, 1, 72, 60
2, 391920, Note_off_c, 1, 72, 0
2, 391920, Note_on_c, 1, 70, 59
2, 392400, Note_off_c, 1, 70, 0
2, 392400, Note_on_c, 1, 72, 63
2, 392880, Note_off_c, 1, 72, 0
2, 392880, Note_on_c, 1, 73, 55
2, 393360, Note_off_c, 1, 73, 0
2, 393360, Note_on_c, 1, 74, 47
2, 393720, Note_off_c, 1, 74, 0
2, 393840, Control_c, 1, 64, 0
2, 393840, Note_on_c, 1, 74, 46
2, 394200, Note_off_c, 1, 74, 0
2, 395040, Note_on_c, 1, 78, 48
2, 395196, Note_off_c, 1, 78, 0
2, 395280, Note_on_c, 1, 79, 48
2, 395436, Note_off_c, 1, 79, 0
2, 395520, Note_on_c, 1, 82, 49
2, 395760, Note_off_c, 1, 82, 0
2, 395760, Note_on_c, 1, 72, 50
2, 396120, Note_off_c, 1, 72, 0
2, 396960, Note_on_c, 1, 71, 51
2, 397116, Note_off_c, 1, 71, 0
2, 397200, Note_on_c, 1, 72, 51
2, 397356, Note_off_c, 1, 72, 0
2, 397440, Note_on_c, 1, 75, 52
2, 397680, Note_off_c, 1, 75, 0
2, 397680, Note_on_c, 1, 66, 54
2, 398040, Note_off_c, 1, 66, 0
2, 398880, Note_on_c, 1, 75, 55
2, 399120, Note_off_c, 1, 75, 0
2, 399120, Note_on_c, 1, 74, 55
2, 399276, Note_off_c, 1, 74, 0
2, 399360, Note_on_c, 1, 66, 56
2, 399516, Note_off_c, 1, 66, 0
2, 399600, Note_on_c, 1, 69, 67
2, 399840, Note_off_c, 1, 69, 0
2, 399840, Note_on_c, 1, 67, 58
2, 400032, Note_off_c, 1, 67, 0
2, 400080, Note_on_c, 1, 70, 69
2, 400320, Note_off_c, 1, 70, 0
2, 400320, Note_on_c, 1, 69, 60
2, 400512, Note_off_c, 1, 69, 0
2, 400560, Note_on_c, 1, 72, 70
2, 400800, Note_off_c, 1, 72, 0
2, 400800, Note_on_c, 1, 70, 61
2, 400992, Note_off_c, 1, 70, 0
2, 401040, Note_on_c, 1, 74, 72
2, 401280, Note_off_c, 1, 74, 0
2, 401280, Note_on_c, 1, 72, 62
2, 401472, Note_off_c, 1, 72, 0
2, 401520, Note_on_c, 1, 75, 79
2, 401760, Note_off_c, 1, 75, 0
2, 401760, Note_on_c, 1, 74, 69
2, 401952, Note_off_c, 1, 74, 0
2, 402000, Note_on_c, 1, 74, 64
2, 402960, Note_off_c, 1, 74, 0
2, 402960, Note_on_c, 1, 77, 66
2, 403320, Note_off_c, 1, 77, 0
2, 403440, Note_on_c, 1, 77, 82
2, 403680, Note_off_c, 1, 77, 0
2, 403680, Note_on_c, 1, 75, 73
2, 403872, Note_off_c, 1, 75, 0
2, 403920, Note_on_c, 1, 75, 69
2, 404880, Note_off_c, 1, 75, 0
2, 404880, Note_on_c, 1, 74, 71
2, 405240, Note_off_c, 1, 74, 0
2, 405360, Note_on_c, 1, 74, 87
2, 405600, Note_off_c, 1, 74, 0
2, 405600, Note_on_c, 1, 73, 78
2, 405792, Note_off_c, 1, 73, 0
2, 405840, Note_on_c, 1, 73, 74
2, 406800, Note_off_c, 1, 73, 0
2, 406800, Note_on_c, 1, 85, 76
2, 407160, Note_off_c, 1, 85, 0
2, 407280, Note_on_c, 1, 85, 81
2, 407360, Note_off_c, 1, 85, 0
2, 407360, Note_on_c, 1, 86, 79
2, 407440, Note_off_c, 1, 86, 0
2, 407440, Note_on_c, 1, 85, 76
2, 407520, Note_off_c, 1, 85, 0
2, 407520, Note_on_c, 1, 86, 74
2, 407600, Note_off_c, 1, 86, 0
2, 407600, Note_on_c, 1, 85, 71
2, 407680, Note_off_c, 1, 85, 0
2, 407680, Note_on_c, 1, 86, 69
2, 407760, Note_off_c, 1, 86, 0
2, 407760, Note_on_c, 1, 85, 66
2, 407840, Note_off_c, 1, 85, 0
2, 407840, Note_on_c, 1, 84, 63
2, 407920, Note_off_c, 1, 84, 0
2, 407920, Note_on_c, 1, 85, 61
2, 408000, Note_off_c, 1, 85, 0
2, 408000, Note_on_c, 1, 86, 58
2, 408240, Note_off_c, 1, 86, 0
2, 408240, Note_on_c, 1, 74, 56
2, 408600, Note_off_c, 1, 74, 0
2, 409200, Control_c, 1, 64, 0
2, 409200, Note_on_c, 1, 74, 46
2, 409560, Note_off_c, 1, 74, 0
2, 410400, Note_on_c, 1, 78, 48
2, 410556, Note_off_c, 1, 78, 0
2, 410640, Note_on_c, 1, 79, 48
2, 410796, Note_off_c, 1, 79, 0
2, 410880, Note_on_c, 1, 82, 49
2, 411120, Note_off_c, 1, 82, 0
2, 411120, Note_on_c, 1, 72, 50
2, 411480, Note_off_c, 1, 72, 0
2, 412320, Note_on_c, 1, 71, 51
2, 412476, Note_off_c, 1, 71, 0
2, 412560, Note_on_c, 1, 72, 51
2, 412716, Note_off_c, 1, 72, 0
2, 412800, Note_on_c, 1, 75, 52
2, 413040, Note_off_c, 1, 75, 0
2, 413040, Note_on_c, 1, 66, 54
2, 413400, Note_off_c, 1, 66, 0
2, 414240, Note_on_c, 1, 75, 55
2, 414480, Note_off_c, 1, 75, 0
2, 414480, Note_on_c, 1, 74, 55
2, 414636, Note_off_c, 1, 74, 0
2, 414720, Note_on_c, 1, 66, 56
2, 414876, Note_off_c, 1, 66, 0
2, 414960, Note_on_c, 1, 69, 67
2, 415200, Note_off_c, 1, 69, 0
2, 415200, Note_on_c, 1, 67, 58
2, 415392, Note_off_c, 1, 67, 0
2, 415440, Note_on_c, 1, 70, 69
2, 415680, Note_off_c, 1, 70, 0
2, 415680, Note_on_c, 1, 69, 60
2, 415872, Note_off_c, 1, 69, 0
2, 415920, Note_on_c, 1, 72, 70
2, 416160, Note_off_c, 1, 72, 0
2, 416160, Note_on_c, 1, 70, 61
2, 416352, Note_off_c, 1, 70, 0
2, 416400, Note_on_c, 1, 74, 72
2, 416640, Note_off_c, 1, 74, 0
2, 416640, Note_on_c, 1, 72, 62
2, 416832, Note_off_c, 1, 72, 0
2, 416880, Note_on_c, 1, 75, 79
2, 417120, Note_off_c, 1, 75, 0
2, 417120, Note_on_c, 1, 74, 69
2, 417312, Note_off_c, 1, 74, 0
2, 417360, Note_on_c, 1, 74, 64
2, 418320, Note_off_c, 1, 74, 0
2, 418320, Note_on_c, 1, 77, 66
2, 418680, Note_off_c, 1, 77, 0
2, 418800, Note_on_c, 1, 77, 82
2, 419040, Note_off_c, 1, 77, 0
2, 419040, Note_on_c, 1, 75, 73
2, 419232, Note_off_c, 1, 75, 0
2, 419280, Note_on_c, 1, 75, 69
2, 420240, Note_off_c, 1, 75, 0
2, 420240, Note_on_c, 1, 74, 71
2, 420600, Note_off_c, 1, 74, 0
2, 420720, Note_on_c, 1, 74, 87
2, 420960, Note_off_c, 1, 74, 0
2, 420960, Note_on_c, 1, 73, 78
2, 421152, Note_off_c, 1, 73, 0
2, 421200, Note_on_c, 1, 73, 74
2, 422160, Note_off_c, 1, 73, 0
2, 422160, Note_on_c, 1, 85, 76
2, 422520, Note_off_c, 1, 85, 0
2, 422640, Note_on_c, 1, 85, 81
2, 422720, Note_off_c, 1, 85, 0
2, 422720, Note_on_c, 1, 86, 79
2, 422800, Note_off_c, 1, 86, 0
2, 422800, Note_on_c, 1, 85, 76
2, 422880, Note_off_c, 1, 85, 0
2, 422880, Note_on_c, 1, 86, 74
2, 422960, Note_off_c, 1, 86, 0
2, 422960, Note_on_c, 1, 85, 71
2, 423040, Note_off_c, 1, 85, 0
2, 423040, Note_on_c, 1, 86, 69
2, 423120, Note_off_c, 1, 86, 0
2, 423120, Note_on_c, 1, 85, 66
2, 423200, Note_off_c, 1, 85, 0
2, 423200, Note_on_c, 1, 84, 63
2, 423280, Note_off_c, 1, 84, 0
2, 423280, Note_on_c, 1, 85, 61
2, 423360, Note_off_c, 1, 85, 0
2, 423360, Note_on_c, 1, 86, 58
2, 423600, Note_off_c, 1, 86, 0
2, 423600, Note_on_c, 1, 74, 56
2, 423960, Note_off_c, 1, 74, 0
2, 424560, Control_c, 1, 64, 0
2, 424800, Note_on_c, 1, 86, 78
2, 424956, Note_off_c, 1, 86, 0
2, 425040, Note_on_c, 1, 85, 77
2, 425280, Note_off_c, 1, 85, 0
2, 425280, Note_on_c, 1, 86, 75
2, 425436, Note_off_c, 1, 86, 0
2, 425760, Note_on_c, 1, 84, 73
2, 425916, Note_off_c, 1, 84, 0
2, 426000, Note_on_c, 1, 83, 72
2, 426240, Note_off_c, 1, 83, 0
2, 426240, Note_on_c, 1, 84, 71
2, 426396, Note_off_c, 1, 84, 0
2, 426480, Note_on_c, 1, 82, 70
2, 427200, Note_off_c, 1, 82, 0
2, 427440, Note_on_c, 1, 78, 65
2, 428160, Note_off_c, 1, 78, 0
2, 428640, Note_on_c, 1, 79, 44
2, 428880, Note_off_c, 1, 79, 0
2, 428880, Note_on_c, 1, 78, 45
2, 429120, Note_off_c, 1, 78, 0
2, 429120, Note_on_c, 1, 77, 46
2, 429360, Note_off_c, 1, 77, 0
2, 429360, Note_on_c, 1, 76, 47
2, 429600, Note_off_c, 1, 76, 0
2, 429600, Note_on_c, 1, 75, 48
2, 429840, Note_off_c, 1, 75, 0
2, 429840, Note_on_c, 1, 74, 49
2, 430080, Note_off_c, 1, 74, 0
2, 430080, Note_on_c, 1, 73, 50
2, 430272, Note_off_c, 1, 73, 0
2, 430320, Note_on_c, 1, 73, 54
2, 431280, Note_off_c, 1, 73, 0
2, 431280, Note_on_c, 1, 74, 40
2, 431640, Note_off_c, 1, 74, 0
2, 432240, Note_on_c, 1, 74, 72
2, 432480, Note_off_c, 1, 74, 0
2, 432480, Note_on_c, 1, 79, 59
2, 432672, Note_off_c, 1, 79, 0
2, 432720, Note_on_c, 1, 79, 53
2, 433680, Note_off_c, 1, 79, 0
2, 433680, Note_on_c, 1, 77, 48
2, 434040, Note_off_c, 1, 77, 0
2, 434160, Note_on_c, 1, 77, 65
2, 434400, Note_off_c, 1, 77, 0
2, 434400, Note_on_c, 1, 75, 60
2, 434592, Note_off_c, 1, 75, 0
2, 434640, Control_c, 1, 64, 127
2, 434920, Note_on_c, 1, 75, 75
2, 435280, Note_off_c, 1, 75, 0
2, 436080, Control_c, 1, 64, 0
2, 437760, Note_on_c, 1, 75, 59
2, 437916, Note_off_c, 1, 75, 0
2, 438000, Note_on_c, 1, 75, 65
2, 438240, Note_off_c, 1, 75, 0
2, 438240, Note_on_c, 1, 74, 57
2, 438396, Note_off_c, 1, 74, 0
2, 438720, Note_on_c, 1, 72, 58
2, 438876, Note_off_c, 1, 72, 0
2, 438960, Note_on_c, 1, 72, 60
2, 439200, Note_off_c, 1, 72, 0
2, 439200, Note_on_c, 1, 70, 54
2, 439356, Note_off_c, 1, 70, 0
2, 439680, Note_on_c, 1, 69, 52
2, 439836, Note_off_c, 1, 69, 0
2, 439920, Note_on_c, 1, 69, 54
2, 440880, Note_off_c, 1, 69, 0
2, 440880, Note_on_c, 1, 67, 45
2, 441240, Note_off_c, 1, 67, 0
2, 441840, Control_c, 1, 64, 0
2, 442080, Note_on_c, 1, 86, 78
2, 442236, Note_off_c, 1, 86, 0
2, 442320, Note_on_c, 1, 85, 77
2, 442560, Note_off_c, 1, 85, 0
2, 442560, Note_on_c, 1, 86, 75
2, 442716, Note_off_c, 1, 86, 0
2, 443040, Note_on_c, 1, 84, 73
2, 443196, Note_off_c, 1, 84, 0
2, 443280, Note_on_c, 1, 83, 72
2, 443520, Note_off_c, 1, 83, 0
2, 443520, Note_on_c, 1, 84, 71
2, 443676, Note_off_c, 1, 84, 0
2, 443760, Note_on_c, 1, 82, 70
2, 444480, Note_off_c, 1, 82, 0
2, 444720, Note_on_c, 1, 78, 65
2, 445440, Note_off_c, 1, 78, 0
2, 445920, Note_on_c, 1, 79, 44
2, 446160, Note_off_c, 1, 79, 0
2, 446160, Note_on_c, 1, 78, 45
2, 446400, Note_off_c, 1, 78, 0
2, 446400, Note_on_c, 1, 77, 46
2, 446640, Note_off_c, 1, 77, 0
2, 446640, Note_on_c, 1, 76, 47
2, 446880, Note_off_c, 1, 76, 0
2, 446880, Note_on_c, 1, 75, 48
2, 447120, Note_off_c, 1, 75, 0
2, 447120, Note_on_c, 1, 74, 49
2, 447360, Note_off_c, 1, 74, 0
2, 447360, Note_on_c, 1, 73, 50
2, 447552, Note_off_c, 1, 73, 0
2, 447600, Note_on_c, 1, 73, 54
2, 448560, Note_off_c, 1, 73, 0
2, 448560, Note_on_c, 1, 74, 40
2, 448920, Note_off_c, 1, 74, 0
2, 449520, Note_on_c, 1, 74, 72
2, 449760, Note_off_c, 1, 74, 0
2, 449760, Note_on_c, 1, 79, 59
2, 449952, Note_off_c, 1, 79, 0
2, 450000, Note_on_c, 1, 79, 53
2, 450960, Note_off_c, 1, 79, 0
2, 450960, Note_on_c, 1, 77, 48
2, 451320, Note_off_c, 1, 77, 0
2, 451440, Note_on_c, 1, 77, 65
2, 451680, Note_off_c, 1, 77, 0
2, 451680, Note_on_c, 1, 75, 60
2, 451872, Note_off_c, 1, 75, 0
2, 451920, Control_c, 1, 64, 127
2, 452200, Note_on_c, 1, 75, 75
2, 452560, Note_off_c, 1, 75, 0
2, 453360, Control_c, 1, 64, 0
2, 455040, Note_on_c, 1, 75, 59
2, 455196, Note_off_c, 1, 75, 0
2, 455280, Note_on_c, 1, 75, 65
2, 455520, Note_off_c, 1, 75, 0
2, 455520, Note_on_c, 1, 74, 57
2, 455676, Note_off_c, 1, 74, 0
2, 456000, Note_on_c, 1, 72, 58
2, 456156, Note_off_c, 1, 72, 0
2, 456240, Note_on_c, 1, 72, 60
2, 456480, Note_off_c, 1, 72, 0
2, 456480, Note_on_c, 1, 70, 54
2, 456636, Note_off_c, 1, 70, 0
2, 456960, Note_on_c, 1, 69, 52
2, 457116, Note_off_c, 1, 69, 0
2, 457200, Note_on_c, 1, 69, 54
2, 458160, Note_off_c, 1, 69, 0
2, 458160, Note_on_c, 1, 67, 45
2, 458520, Note_off_c, 1, 67, 0
2, 459120, Control_c, 1, 64, 0
2, 459120, Note_on_c, 1, 71, 79
2, 460080, Note_off_c, 1, 71, 0
2, 460080, Note_on_c, 1, 72, 68
2, 460440, Note_off_c, 1, 72, 0
2, 461040, Note_on_c, 1, 73, 47
2, 462000, Note_off_c, 1, 73, 0
2, 462000, Note_on_c, 1, 74, 40
2, 462360, Note_off_c, 1, 74, 0
2, 462960, Control_c, 1, 64, 127
2, 463240, Note_on_c, 1, 75, 79
2, 463842, Note_off_c, 1, 75, 0
2, 465600, Control_c, 1, 64, 0
2, 465840, Note_on_c, 1, 77, 56
2, 465840, Control_c, 1, 64, 0
2, 466320, Note_off_c, 1, 77, 0
2, 466320, Note_on_c, 1, 79, 59
2, 466680, Note_off_c, 1, 79, 0
2, 466800, Note_on_c, 1, 77, 63
2, 467040, Note_off_c, 1, 77, 0
2, 467040, Note_on_c, 1, 75, 61
2, 467280, Note_off_c, 1, 75, 0
2, 467280, Note_on_c, 1, 74, 57
2, 467520, Note_off_c, 1, 74, 0
2, 467520, Note_on_c, 1, 72, 54
2, 467712, Note_off_c, 1, 72, 0
2, 467760, Note_on_c, 1, 75, 55
2, 468240, Note_off_c, 1, 75, 0
2, 468240, Note_on_c, 1, 77, 59
2, 468600, Note_off_c, 1, 77, 0
2, 468720, Note_on_c, 1, 75, 60
2, 468960, Note_off_c, 1, 75, 0
2, 468960, Note_on_c, 1, 74, 56
2, 469200, Note_off_c, 1, 74, 0
2, 469200, Note_on_c, 1, 72, 54
2, 469440, Note_off_c, 1, 72, 0
2, 469440, Note_on_c, 1, 70, 52
2, 469632, Note_off_c, 1, 70, 0
2, 469680, Note_on_c, 1, 77, 54
2, 470160, Note_off_c, 1, 77, 0
2, 470160, Note_on_c, 1, 82, 60
2, 470520, Note_off_c, 1, 82, 0
2, 470640, Note_on_c, 1, 81, 66
2, 470880, Note_off_c, 1, 81, 0
2, 470880, Note_on_c, 1, 79, 65
2, 471072, Note_off_c, 1, 79, 0
2, 471120, Note_on_c, 1, 79, 63
2, 471360, Note_off_c, 1, 79, 0
2, 471360, Note_on_c, 1, 77, 61
2, 471552, Note_off_c, 1, 77, 0
2, 471600, Note_on_c, 1, 77, 58
2, 471840, Note_off_c, 1, 77, 0
2, 471840, Note_on_c, 1, 75, 56
2, 472032, Note_off_c, 1, 75, 0
2, 472080, Note_on_c, 1, 75, 54
2, 472320, Note_off_c, 1, 75, 0
2, 472320, Note_on_c, 1, 74, 51
2, 472512, Note_off_c, 1, 74, 0
2, 472560, Note_on_c, 1, 74, 49
2, 473040, Note_off_c, 1, 74, 0
2, 473040, Note_on_c, 1, 72, 44
2, 473400, Note_off_c, 1, 72, 0
2, 473520, Note_on_c, 1, 77, 70
2, 473760, Note_off_c, 1, 77, 0
2, 473760, Note_on_c, 1, 76, 72
2, 473952, Note_off_c, 1, 76, 0
2, 474000, Note_on_c, 1, 77, 74
2, 474240, Note_off_c, 1, 77, 0
2, 474240, Note_on_c, 1, 79, 75
2, 474432, Note_off_c, 1, 79, 0
2, 474480, Note_on_c, 1, 77, 79
2, 474720, Note_off_c, 1, 77, 0
2, 474720, Note_on_c, 1, 75, 76
2, 474912, Note_off_c, 1, 75, 0
2, 474960, Note_on_c, 1, 74, 73
2, 475200, Note_off_c, 1, 74, 0
2, 475200, Note_on_c, 1, 72, 69
2, 475392, Note_off_c, 1, 72, 0
2, 475440, Note_on_c, 1, 75, 70
2, 475680, Note_off_c, 1, 75, 0
2, 475680, Note_on_c, 1, 74, 71
2, 475872, Note_off_c, 1, 74, 0
2, 475920, Note_on_c, 1, 75, 72
2, 476160, Note_off_c, 1, 75, 0
2, 476160, Note_on_c, 1, 77, 74
2, 476352, Note_off_c, 1, 77, 0
2, 476400, Note_on_c, 1, 75, 76
2, 476640, Note_off_c, 1, 75, 0
2, 476640, Note_on_c, 1, 74, 73
2, 476832, Note_off_c, 1, 74, 0
2, 476880, Note_on_c, 1, 72, 70
2, 477120, Note_off_c, 1, 72, 0
2, 477120, Note_on_c, 1, 70, 67
2, 477312, Note_off_c, 1, 70, 0
2, 477360, Note_on_c, 1, 70, 67
2, 477600, Note_off_c, 1, 70, 0
2, 477600, Note_on_c, 1, 74, 70
2, 477792, Note_off_c, 1, 74, 0
2, 477840, Note_on_c, 1, 77, 73
2, 478080, Note_off_c, 1, 77, 0
2, 478080, Note_on_c, 1, 82, 75
2, 478272, Note_off_c, 1, 82, 0
2, 478320, Note_on_c, 1, 82, 78
2, 478560, Note_off_c, 1, 82, 0
2, 478560, Note_on_c, 1, 79, 78
2, 478752, Note_off_c, 1, 79, 0
2, 478800, Note_on_c, 1, 75, 76
2, 479040, Note_off_c, 1, 75, 0
2, 479040, Note_on_c, 1, 72, 74
2, 479232, Note_off_c, 1, 72, 0
2, 479280, Note_on_c, 1, 70, 73
2, 479360, Note_off_c, 1, 70, 0
2, 479360, Note_on_c, 1, 72, 71
2, 479440, Note_off_c, 1, 72, 0
2, 479440, Note_on_c, 1, 74, 70
2, 479520, Note_off_c, 1, 74, 0
2, 479520, Note_on_c, 1, 72, 69
2, 479600, Note_off_c, 1, 72, 0
2, 479600, Note_on_c, 1, 74, 68
2, 479680, Note_off_c, 1, 74, 0
2, 479680, Note_on_c, 1, 72, 67
2, 479760, Note_off_c, 1, 72, 0
2, 479760, Note_on_c, 1, 74, 66
2, 479840, Note_off_c, 1, 74, 0
2, 479840, Note_on_c, 1, 72, 65
2, 479920, Note_off_c, 1, 72, 0
2, 479920, Note_on_c, 1, 74, 64
2, 480000, Note_off_c, 1, 74, 0
2, 480000, Note_on_c, 1, 72, 63
2, 480080, Note_off_c, 1, 72, 0
2, 480080, Note_on_c, 1, 70, 62
2, 480160, Note_off_c, 1, 70, 0
2, 480160, Note_on_c, 1, 72, 61
2, 480240, Note_off_c, 1, 72, 0
2, 480240, Note_on_c, 1, 70, 60
2, 480600, Note_off_c, 1, 70, 0
2, 488400, Note_on_c, 1, 70, 62
2, 490200, Note_off_c, 1, 70, 0
2, 490320, Note_on_c, 1, 75, 53
2, 490480, Note_off_c, 1, 75, 0
2, 490480, Note_on_c, 1, 77, 52
2, 490640, Note_off_c, 1, 77, 0
2, 490640, Note_on_c, 1, 79, 50
2, 490800, Note_off_c, 1, 79, 0
2, 490800, Note_on_c, 1, 77, 49
2, 490960, Note_off_c, 1, 77, 0
2, 490960, Note_on_c, 1, 75, 47
2, 491120, Note_off_c, 1, 75, 0
2, 491120, Note_on_c, 1, 74, 46
2, 491280, Note_off_c, 1, 74, 0
2, 491280, Note_on_c, 1, 72, 45
2, 491440, Note_off_c, 1, 72, 0
2, 491440, Note_on_c, 1, 70, 43
2, 491600, Note_off_c, 1, 70, 0
2, 491600, Note_on_c, 1, 69, 42
2, 491760, Note_off_c, 1, 69, 0
2, 491760, Note_on_c, 1, 70, 40
2, 492120, Note_off_c, 1, 70, 0
2, 492240, Note_on_c, 1, 70, 68
2, 494040, Note_off_c, 1, 70, 0
2, 494160, Note_on_c, 1, 75, 58
2, 494320, Note_off_c, 1, 75, 0
2, 494320, Note_on_c, 1, 77, 57
2, 494480, Note_off_c, 1, 77, 0
2, 494480, Note_on_c, 1, 79, 56
2, 494640, Note_off_c, 1, 79, 0
2, 494640, Note_on_c, 1, 77, 54
2, 494800, Note_off_c, 1, 77, 0
2, 494800, Note_on_c, 1, 75, 53
2, 494960, Note_off_c, 1, 75, 0
2, 494960, Note_on_c, 1, 74, 52
2, 495120, Note_off_c, 1, 74, 0
2, 495120, Note_on_c, 1, 72, 50
2, 495280, Note_off_c, 1, 72, 0
2, 495280, Note_on_c, 1, 70, 49
2, 495440, Note_off_c, 1, 70, 0
2, 495440, Note_on_c, 1, 69, 48
2, 495600, Note_off_c, 1, 69, 0
2, 495600, Note_on_c, 1, 70, 49
2, 495960, Note_off_c, 1, 70, 0
2, 496080, Note_on_c, 1, 75, 45
2, 496240, Note_off_c, 1, 75, 0
2, 496240, Note_on_c, 1, 72, 44
2, 496400, Note_off_c, 1, 72, 0
2, 496400, Note_on_c, 1, 69, 43
2, 496560, Note_off_c, 1, 69, 0
2, 496560, Note_on_c, 1, 70, 41
2, 496920, Note_off_c, 1, 70, 0
2, 497040, Note_on_c, 1, 75, 38
2, 497200, Note_off_c, 1, 75, 0
2, 497200, Note_on_c, 1, 72, 36
2, 497360, Note_off_c, 1, 72, 0
2, 497360, Note_on_c, 1, 69, 35
2, 497520, Note_off_c, 1, 69, 0
2, 497520, Note_on_c, 1, 70, 34
2, 497880, Note_off_c, 1, 70, 0
2, 498000, Note_on_c, 1, 76, 30
2, 498120, Note_off_c, 1, 76, 0
2, 498120, Note_on_c, 1, 77, 29
2, 498360, Note_off_c, 1, 77, 0
2, 498480, Note_on_c, 1, 81, 27
2, 498600, Note_off_c, 1, 81, 0
2, 498600, Note_on_c, 1, 82, 26
2, 498840, Note_off_c, 1, 82, 0
2, 498960, Control_c, 1, 64, 0
2, 498960, Note_on_c, 1, 64, 82
2, 499080, Note_off_c, 1, 64, 0
2, 499080, Note_on_c, 1, 65, 82
2, 499320, Note_off_c, 1, 65, 0
2, 499440, Note_on_c, 1, 67, 78
2, 499560, Note_off_c, 1, 67, 0
2, 499560, Note_on_c, 1, 68, 76
2, 499800, Note_off_c, 1, 68, 0
2, 501360, Note_on_c, 1, 70, 44
2, 502320, Note_off_c, 1, 70, 0
2, 502320, Note_on_c, 1, 75, 48
2, 502560, Note_off_c, 1, 75, 0
2, 502560, Note_on_c, 1, 74, 49
2, 502800, Note_off_c, 1, 74, 0
2, 502800, Note_on_c, 1, 72, 50
2, 503040, Note_off_c, 1, 72, 0
2, 503040, Note_on_c, 1, 70, 51
2, 503232, Note_off_c, 1, 70, 0
2, 503280, Note_on_c, 1, 70, 59
2, 504000, Note_off_c, 1, 70, 0
2, 504000, Note_on_c, 1, 72, 48
2, 504240, Note_off_c, 1, 72, 0
2, 504240, Note_on_c, 1, 70, 45
2, 504600, Note_off_c, 1, 70, 0
2, 505680, Note_on_c, 1, 70, 42
2, 506040, Note_off_c, 1, 70, 0
2, 506160, Note_on_c, 1, 75, 45
2, 506400, Note_off_c, 1, 75, 0
2, 506400, Note_on_c, 1, 74, 46
2, 506640, Note_off_c, 1, 74, 0
2, 506640, Note_on_c, 1, 72, 47
2, 506880, Note_off_c, 1, 72, 0
2, 506880, Note_on_c, 1, 70, 49
2, 507072, Note_off_c, 1, 70, 0
2, 507120, Note_on_c, 1, 70, 55
2, 507840, Note_off_c, 1, 70, 0
2, 507840, Note_on_c, 1, 72, 45
2, 508080, Note_off_c, 1, 72, 0
2, 508080, Note_on_c, 1, 70, 43
2, 508440, Note_off_c, 1, 70, 0
2, 509520, Note_on_c, 1, 79, 70
2, 509880, Note_off_c, 1, 79, 0
2, 510000, Note_on_c, 1, 80, 73
2, 510360, Note_off_c, 1, 80, 0
2, 510480, Note_on_c, 1, 82, 75
2, 510840, Note_off_c, 1, 82, 0
2, 510960, Note_on_c, 1, 80, 79
2, 511020, Note_off_c, 1, 80, 0
2, 511020, Note_on_c, 1, 82, 79
2, 511080, Note_off_c, 1, 82, 0
2, 511080, Note_on_c, 1, 84, 78
2, 511680, Note_on_c, 1, 82, 74
2, 511695, Note_off_c, 1, 84, 0
2, 511920, Note_off_c, 1, 82, 0
2, 511920, Note_on_c, 1, 80, 73
2, 512280, Note_off_c, 1, 80, 0
2, 513360, Note_on_c, 1, 70, 71
2, 513720, Note_off_c, 1, 70, 0
2, 513840, Note_on_c, 1, 72, 73
2, 514200, Note_off_c, 1, 72, 0
2, 514320, Note_on_c, 1, 74, 75
2, 514680, Note_off_c, 1, 74, 0
2, 514800, Note_on_c, 1, 75, 79
2, 514880, Note_off_c, 1, 75, 0
2, 514880, Note_on_c, 1, 77, 77
2, 514960, Note_off_c, 1, 77, 0
2, 514960, Note_on_c, 1, 75, 77
2, 515040, Note_off_c, 1, 75, 0
2, 515040, Note_on_c, 1, 77, 76
2, 515120, Note_off_c, 1, 77, 0
2, 515120, Note_on_c, 1, 75, 75
2, 515200, Note_off_c, 1, 75, 0
2, 515200, Note_on_c, 1, 77, 75
2, 515280, Note_off_c, 1, 77, 0
2, 515280, Note_on_c, 1, 75, 74
2, 515360, Note_off_c, 1, 75, 0
2, 515360, Note_on_c, 1, 77, 73
2, 515440, Note_off_c, 1, 77, 0
2, 515440, Note_on_c, 1, 75, 73
2, 515520, Note_off_c, 1, 75, 0
2, 515520, Note_on_c, 1, 77, 72
2, 515760, Note_off_c, 1, 77, 0
2, 515760, Note_on_c, 1, 79, 69
2, 516120, Note_off_c, 1, 79, 0
2, 517200, Note_on_c, 1, 79, 48
2, 517560, Note_off_c, 1, 79, 0
2, 517680, Note_on_c, 1, 80, 51
2, 518040, Note_off_c, 1, 80, 0
2, 518160, Note_on_c, 1, 82, 54
2, 518520, Note_off_c, 1, 82, 0
2, 518640, Note_on_c, 1, 80, 59
2, 518700, Note_off_c, 1, 80, 0
2, 518700, Note_on_c, 1, 82, 59
2, 518760, Note_off_c, 1, 82, 0
2, 518760, Note_on_c, 1, 84, 59
2, 519360, Note_on_c, 1, 82, 56
2, 519375, Note_off_c, 1, 84, 0
2, 519600, Note_off_c, 1, 82, 0
2, 519600, Note_on_c, 1, 80, 55
2, 519960, Note_off_c, 1, 80, 0
2, 521040, Note_on_c, 1, 70, 68
2, 521400, Note_off_c, 1, 70, 0
2, 521520, Note_on_c, 1, 72, 70
2, 521880, Note_off_c, 1, 72, 0
2, 522000, Note_on_c, 1, 74, 72
2, 522360, Note_off_c, 1, 74, 0
2, 522480, Note_on_c, 1, 75, 75
2, 522840, Note_off_c, 1, 75, 0
2, 523440, Note_on_c, 1, 78, 53
2, 523560, Note_off_c, 1, 78, 0
2, 523560, Note_on_c, 1, 79, 52
2, 523800, Note_off_c, 1, 79, 0
2, 523920, Note_on_c, 1, 78, 50
2, 524040, Note_off_c, 1, 78, 0
2, 524040, Note_on_c, 1, 79, 49
2, 524280, Note_off_c, 1, 79, 0
2, 524400, Note_on_c, 1, 71, 79
2, 524560, Note_off_c, 1, 71, 0
2, 525360, Note_on_c, 1, 71, 77
2, 525520, Note_off_c, 1, 71, 0
2, 526320, Note_on_c, 1, 72, 74
2, 526680, Note_off_c, 1, 72, 0
2, 527280, Note_on_c, 1, 76, 44
2, 527400, Note_off_c, 1, 76, 0
2, 527400, Note_on_c, 1, 77, 44
2, 527640, Note_off_c, 1, 77, 0
2, 527760, Note_on_c, 1, 76, 42
2, 527880, Note_off_c, 1, 76, 0
2, 527880, Note_on_c, 1, 77, 41
2, 528120, Note_off_c, 1, 77, 0
2, 528240, Note_on_c, 1, 69, 73
2, 528400, Note_off_c, 1, 69, 0
2, 529200, Note_on_c, 1, 69, 70
2, 529360, Note_off_c, 1, 69, 0
2, 530160, Note_on_c, 1, 70, 67
2, 530520, Note_off_c, 1, 70, 0
2, 531120, Note_on_c, 1, 82, 70
2, 531224, Note_off_c, 1, 82, 0
2, 531280, Note_on_c, 1, 81, 71
2, 531384, Note_off_c, 1, 81, 0
2, 531440, Note_on_c, 1, 79, 72
2, 531544, Note_off_c, 1, 79, 0
2, 531600, Note_on_c, 1, 77, 73
2, 531704, Note_off_c, 1, 77, 0
2, 531760, Note_on_c, 1, 75, 73
2, 531864, Note_off_c, 1, 75, 0
2, 531920, Note_on_c, 1, 74, 74
2, 532024, Note_off_c, 1, 74, 0
2, 532080, Note_on_c, 1, 71, 75
2, 532240, Note_off_c, 1, 71, 0
2, 532560, Note_on_c, 1, 71, 77
2, 532720, Note_off_c, 1, 71, 0
2, 533040, Note_on_c, 1, 73, 79
2, 533200, Note_off_c, 1, 73, 0
2, 533520, Note_on_c, 1, 73, 82
2, 533680, Note_off_c, 1, 73, 0
2, 534000, Note_on_c, 1, 74, 84
2, 534160, Note_off_c, 1, 74, 0
2, 534480, Note_on_c, 1, 74, 86
2, 534640, Note_off_c, 1, 74, 0
2, 534960, Note_on_c, 1, 76, 89
2, 535120, Note_off_c, 1, 76, 0
2, 535440, Note_on_c, 1, 76, 91
2, 535600, Note_off_c, 1, 76, 0
2, 535920, Note_on_c, 1, 78, 93
2, 536160, Note_off_c, 1, 78, 0
2, 536160, Note_on_c, 1, 79, 91
2, 536400, Note_off_c, 1, 79, 0
2, 536400, Note_on_c, 1, 74, 88
2, 536640, Note_off_c, 1, 74, 0
2, 536640, Note_on_c, 1, 75, 86
2, 536880, Note_off_c, 1, 75, 0
2, 536880, Note_on_c, 1, 71, 84
2, 537120, Note_off_c, 1, 71, 0
2, 537120, Note_on_c, 1, 72, 82
2, 537360, Note_off_c, 1, 72, 0
2, 537360, Note_on_c, 1, 75, 80
2, 537600, Note_off_c, 1, 75, 0
2, 537600, Note_on_c, 1, 72, 78
2, 537792, Note_off_c, 1, 72, 0
2, 537840, Note_on_c, 1, 70, 76
2, 538320, Note_off_c, 1, 70, 0
2, 538320, Note_on_c, 1, 69, 71
2, 538680, Note_off_c, 1, 69, 0
2, 538800, Note_on_c, 1, 65, 77
2, 538960, Note_off_c, 1, 65, 0
2, 538960, Note_on_c, 1, 69, 77
2, 539120, Note_off_c, 1, 69, 0
2, 539120, Note_on_c, 1, 72, 77
2, 539280, Note_off_c, 1, 72, 0
2, 539280, Note_on_c, 1, 77, 77
2, 539440, Note_off_c, 1, 77, 0
2, 539440, Note_on_c, 1, 81, 77
2, 539600, Note_off_c, 1, 81, 0
2, 539600, Note_on_c, 1, 84, 76
2, 539760, Note_off_c, 1, 84, 0
2, 539760, Note_on_c, 1, 82, 76
2, 540120, Note_off_c, 1, 82, 0
2, 540720, Note_on_c, 1, 82, 75
2, 540880, Note_off_c, 1, 82, 0
2, 540880, Note_on_c, 1, 79, 75
2, 541040, Note_off_c, 1, 79, 0
2, 541040, Note_on_c, 1, 76, 75
2, 541200, Note_off_c, 1, 76, 0
2, 541200, Note_on_c, 1, 72, 75
2, 541360, Note_off_c, 1, 72, 0
2, 541360, Note_on_c, 1, 70, 74
2, 541520, Note_off_c, 1, 70, 0
2, 541520, Note_on_c, 1, 67, 74
2, 541680, Note_off_c, 1, 67, 0
2, 541680, Note_on_c, 1, 69, 74
2, 542040, Note_off_c, 1, 69, 0
2, 542640, Note_on_c, 1, 65, 73
2, 542800, Note_off_c, 1, 65, 0
2, 542800, Note_on_c, 1, 69, 73
2, 542960, Note_off_c, 1, 69, 0
2, 542960, Note_on_c, 1, 72, 73
2, 543120, Note_off_c, 1, 72, 0
2, 543120, Note_on_c, 1, 77, 72
2, 543280, Note_off_c, 1, 77, 0
2, 543280, Note_on_c, 1, 81, 72
2, 543440, Note_off_c, 1, 81, 0
2, 543440, Note_on_c, 1, 84, 72
2, 543600, Note_off_c, 1, 84, 0
2, 543600, Note_on_c, 1, 82, 72
2, 543960, Note_off_c, 1, 82, 0
2, 544560, Note_on_c, 1, 82, 71
2, 544720, Note_off_c, 1, 82, 0
2, 544720, Note_on_c, 1, 79, 71
2, 544880, Note_off_c, 1, 79, 0
2, 544880, Note_on_c, 1, 76, 70
2, 545040, Note_off_c, 1, 76, 0
2, 545040, Note_on_c, 1, 72, 70
2, 545200, Note_off_c, 1, 72, 0
2, 545200, Note_on_c, 1, 70, 70
2, 545360, Note_off_c, 1, 70, 0
2, 545360, Note_on_c, 1, 67, 70
2, 545520, Note_off_c, 1, 67, 0
2, 545520, Note_on_c, 1, 69, 70
2, 545640, Note_off_c, 1, 69, 0
2, 545640, Note_on_c, 1, 72, 70
2, 545760, Note_off_c, 1, 72, 0
2, 545760, Note_on_c, 1, 70, 71
2, 545880, Note_off_c, 1, 70, 0
2, 545880, Note_on_c, 1, 69, 71
2, 546000, Note_off_c, 1, 69, 0
2, 546000, Note_on_c, 1, 70, 71
2, 546120, Note_off_c, 1, 70, 0
2, 546120, Note_on_c, 1, 72, 72
2, 546240, Note_off_c, 1, 72, 0
2, 546240, Note_on_c, 1, 74, 72
2, 546360, Note_off_c, 1, 74, 0
2, 546360, Note_on_c, 1, 76, 73
2, 546480, Note_off_c, 1, 76, 0
2, 546480, Note_on_c, 1, 77, 72
2, 546636, Note_off_c, 1, 77, 0
2, 546720, Note_on_c, 1, 77, 74
2, 546876, Note_off_c, 1, 77, 0
2, 546960, Note_on_c, 1, 77, 76
2, 547116, Note_off_c, 1, 77, 0
2, 547200, Note_on_c, 1, 77, 79
2, 547356, Note_off_c, 1, 77, 0
2, 558000, Note_on_c, 1, 77, 58
2, 558480, Note_off_c, 1, 77, 0
2, 558480, Note_on_c, 1, 79, 62
2, 558840, Note_off_c, 1, 79, 0
2, 558960, Note_on_c, 1, 77, 67
2, 559200, Note_off_c, 1, 77, 0
2, 559200, Note_on_c, 1, 75, 65
2, 559440, Note_off_c, 1, 75, 0
2, 559440, Note_on_c, 1, 74, 63
2, 559680, Note_off_c, 1, 74, 0
2, 559680, Note_on_c, 1, 72, 60
2, 559920, Note_off_c, 1, 72, 0
2, 559920, Note_on_c, 1, 75, 58
2, 560400, Note_off_c, 1, 75, 0
2, 560400, Note_on_c, 1, 77, 61
2, 560760, Note_off_c, 1, 77, 0
2, 560880, Note_on_c, 1, 75, 66
2, 561120, Note_off_c, 1, 75, 0
2, 561120, Note_on_c, 1, 74, 63
2, 561360, Note_off_c, 1, 74, 0
2, 561360, Note_on_c, 1, 72, 62
2, 561600, Note_off_c, 1, 72, 0
2, 561600, Note_on_c, 1, 70, 60
2, 561792, Note_off_c, 1, 70, 0
2, 561840, Note_on_c, 1, 77, 58
2, 562320, Note_off_c, 1, 77, 0
2, 562320, Note_on_c, 1, 82, 63
2, 562680, Note_off_c, 1, 82, 0
2, 562800, Note_on_c, 1, 72, 70
2, 563040, Note_off_c, 1, 72, 0
2, 563040, Note_on_c, 1, 81, 69
2, 563280, Note_off_c, 1, 81, 0
2, 563280, Note_on_c, 1, 70, 68
2, 563520, Note_off_c, 1, 70, 0
2, 563520, Note_on_c, 1, 79, 67
2, 563760, Note_off_c, 1, 79, 0
2, 563760, Note_on_c, 1, 69, 66
2, 564000, Note_off_c, 1, 69, 0
2, 564000, Note_on_c, 1, 77, 66
2, 564240, Note_off_c, 1, 77, 0
2, 564240, Note_on_c, 1, 67, 65
2, 564400, Note_off_c, 1, 67, 0
2, 564480, Note_on_c, 1, 76, 64
2, 564720, Note_off_c, 1, 76, 0
2, 564720, Note_on_c, 1, 77, 63
2, 565080, Note_off_c, 1, 77, 0
2, 566640, Control_c, 1, 64, 0
2, 566640, Note_on_c, 1, 77, 60
2, 567000, Note_off_c, 1, 77, 0
2, 567120, Note_on_c, 1, 82, 60
2, 567408, Note_off_c, 1, 82, 0
2, 567480, Note_on_c, 1, 74, 61
2, 567576, Note_off_c, 1, 74, 0
2, 567600, Note_on_c, 1, 77, 63
2, 567720, Note_off_c, 1, 77, 0
2, 567720, Note_on_c, 1, 75, 63
2, 567960, Note_off_c, 1, 75, 0
2, 568080, Note_on_c, 1, 72, 60
2, 568440, Note_off_c, 1, 72, 0
2, 568560, Note_on_c, 1, 84, 63
2, 568620, Note_off_c, 1, 84, 0
2, 568620, Note_on_c, 1, 86, 63
2, 568680, Note_off_c, 1, 86, 0
2, 568680, Note_on_c, 1, 87, 63
2, 568927, Note_off_c, 1, 87, 0
2, 569040, Note_on_c, 1, 86, 64
2, 569160, Note_off_c, 1, 86, 0
2, 569160, Note_on_c, 1, 84, 64
2, 569280, Note_off_c, 1, 84, 0
2, 569280, Note_on_c, 1, 82, 64
2, 569400, Note_off_c, 1, 82, 0
2, 569400, Note_on_c, 1, 81, 65
2, 569496, Note_off_c, 1, 81, 0
2, 569520, Note_on_c, 1, 82, 65
2, 570000, Note_off_c, 1, 82, 0
2, 570000, Note_on_c, 1, 86, 59
2, 570240, Note_off_c, 1, 86, 0
2, 570480, Note_on_c, 1, 77, 66
2, 570560, Note_off_c, 1, 77, 0
2, 570560, Note_on_c, 1, 79, 67
2, 570640, Note_off_c, 1, 79, 0
2, 570640, Note_on_c, 1, 77, 67
2, 570720, Note_off_c, 1, 77, 0
2, 570720, Note_on_c, 1, 76, 67
2, 570840, Note_off_c, 1, 76, 0
2, 570840, Note_on_c, 1, 77, 67
2, 570960, Note_off_c, 1, 77, 0
2, 570960, Note_on_c, 1, 82, 67
2, 571248, Note_off_c, 1, 82, 0
2, 571320, Note_on_c, 1, 74, 68
2, 571416, Note_off_c, 1, 74, 0
2, 571440, Note_on_c, 1, 77, 69
2, 571560, Note_off_c, 1, 77, 0
2, 571560, Note_on_c, 1, 75, 67
2, 571800, Note_off_c, 1, 75, 0
2, 571920, Note_on_c, 1, 72, 63
2, 572280, Note_off_c, 1, 72, 0
2, 572400, Note_on_c, 1, 72, 70
2, 572460, Note_off_c, 1, 72, 0
2, 572460, Note_on_c, 1, 74, 70
2, 572520, Note_off_c, 1, 74, 0
2, 572520, Note_on_c, 1, 75, 70
2, 572767, Note_off_c, 1, 75, 0
2, 572880, Note_on_c, 1, 74, 71
2, 573000, Note_off_c, 1, 74, 0
2, 573000, Note_on_c, 1, 72, 71
2, 573120, Note_off_c, 1, 72, 0
2, 573120, Note_on_c, 1, 70, 71
2, 573240, Note_off_c, 1, 70, 0
2, 573240, Note_on_c, 1, 69, 71
2, 573336, Note_off_c, 1, 69, 0
2, 573360, Note_on_c, 1, 70, 72
2, 573840, Note_off_c, 1, 70, 0
2, 573840, Note_on_c, 1, 74, 68
2, 574080, Note_off_c, 1, 74, 0
2, 574480, Note_on_c, 1, 77, 53
2, 574640, Note_off_c, 1, 77, 0
2, 574640, Note_on_c, 1, 75, 52
2, 574800, Note_off_c, 1, 75, 0
2, 574800, Note_on_c, 1, 74, 51
2, 574928, Note_off_c, 1, 74, 0
2, 574960, Note_on_c, 1, 74, 50
2, 575120, Note_off_c, 1, 74, 0
2, 575120, Note_on_c, 1, 72, 48
2, 575280, Note_off_c, 1, 72, 0
2, 575280, Note_on_c, 1, 70, 47
2, 575408, Note_off_c, 1, 70, 0
2, 575440, Note_on_c, 1, 70, 46
2, 575600, Note_off_c, 1, 70, 0
2, 575600, Note_on_c, 1, 68, 45
2, 575760, Note_off_c, 1, 68, 0
2, 575760, Note_on_c, 1, 67, 43
2, 575888, Note_off_c, 1, 67, 0
2, 575920, Note_on_c, 1, 67, 42
2, 576080, Note_off_c, 1, 67, 0
2, 576080, Note_on_c, 1, 66, 41
2, 576240, Note_off_c, 1, 66, 0
2, 576240, Note_on_c, 1, 67, 41
2, 576396, Note_off_c, 1, 67, 0
2, 576480, Note_on_c, 1, 69, 44
2, 576636, Note_off_c, 1, 69, 0
2, 576720, Note_on_c, 1, 70, 47
2, 576876, Note_off_c, 1, 70, 0
2, 576960, Note_on_c, 1, 71, 50
2, 577116, Note_off_c, 1, 71, 0
2, 577200, Note_on_c, 1, 72, 53
2, 577356, Note_off_c, 1, 72, 0
2, 577440, Note_on_c, 1, 74, 56
2, 577596, Note_off_c, 1, 74, 0
2, 577680, Note_on_c, 1, 75, 59
2, 577836, Note_off_c, 1, 75, 0
2, 577920, Note_on_c, 1, 79, 61
2, 578076, Note_off_c, 1, 79, 0
2, 578160, Note_on_c, 1, 79, 65
2, 578316, Note_off_c, 1, 79, 0
2, 578400, Note_on_c, 1, 77, 61
2, 578592, Note_off_c, 1, 77, 0
2, 578640, Note_on_c, 1, 75, 60
2, 578720, Note_off_c, 1, 75, 0
2, 578720, Note_on_c, 1, 77, 59
2, 578800, Note_off_c, 1, 77, 0
2, 578800, Note_on_c, 1, 75, 59
2, 578880, Note_off_c, 1, 75, 0
2, 578880, Note_on_c, 1, 74, 58
2, 579072, Note_off_c, 1, 74, 0
2, 579120, Note_on_c, 1, 74, 57
2, 579360, Note_off_c, 1, 74, 0
2, 579360, Note_on_c, 1, 72, 55
2, 579552, Note_off_c, 1, 72, 0
2, 579600, Note_on_c, 1, 70, 54
2, 579680, Note_off_c, 1, 70, 0
2, 579680, Note_on_c, 1, 72, 53
2, 579760, Note_off_c, 1, 72, 0
2, 579760, Note_on_c, 1, 70, 53
2, 579840, Note_off_c, 1, 70, 0
2, 579840, Note_on_c, 1, 69, 52
2, 580032, Note_off_c, 1, 69, 0
2, 580240, Note_on_c, 1, 77, 50
2, 580400, Note_off_c, 1, 77, 0
2, 580400, Note_on_c, 1, 75, 49
2, 580560, Note_off_c, 1, 75, 0
2, 580560, Note_on_c, 1, 74, 48
2, 580688, Note_off_c, 1, 74, 0
2, 580720, Note_on_c, 1, 74, 47
2, 580880, Note_off_c, 1, 74, 0
2, 580880, Note_on_c, 1, 72, 46
2, 581040, Note_off_c, 1, 72, 0
2, 581040, Note_on_c, 1, 70, 45
2, 581168, Note_off_c, 1, 70, 0
2, 581200, Note_on_c, 1, 70, 44
2, 581360, Note_off_c, 1, 70, 0
2, 581360, Note_on_c, 1, 68, 43
2, 581520, Note_off_c, 1, 68, 0
2, 581520, Note_on_c, 1, 67, 42
2, 581648, Note_off_c, 1, 67, 0
2, 581680, Note_on_c, 1, 67, 41
2, 581840, Note_off_c, 1, 67, 0
2, 581840, Note_on_c, 1, 66, 40
2, 582000, Note_off_c, 1, 66, 0
2, 582000, Note_on_c, 1, 67, 38
2, 582156, Note_off_c, 1, 67, 0
2, 582240, Note_on_c, 1, 69, 40
2, 582396, Note_off_c, 1, 69, 0
2, 582480, Note_on_c, 1, 70, 42
2, 582636, Note_off_c, 1, 70, 0
2, 582720, Note_on_c, 1, 71, 44
2, 582876, Note_off_c, 1, 71, 0
2, 582960, Note_on_c, 1, 72, 47
2, 583116, Note_off_c, 1, 72, 0
2, 583200, Note_on_c, 1, 74, 49
2, 583356, Note_off_c, 1, 74, 0
2, 583440, Note_on_c, 1, 75, 51
2, 583596, Note_off_c, 1, 75, 0
2, 583680, Note_on_c, 1, 77, 53
2, 583836, Note_off_c, 1, 77, 0
2, 583920, Note_on_c, 1, 79, 55
2, 584112, Note_off_c, 1, 79, 0
2, 584160, Note_on_c, 1, 81, 57
2, 584352, Note_off_c, 1, 81, 0
2, 584400, Note_on_c, 1, 82, 59
2, 584592, Note_off_c, 1, 82, 0
2, 584640, Note_on_c, 1, 81, 61
2, 584832, Note_off_c, 1, 81, 0
2, 584880, Note_on_c, 1, 82, 63
2, 585072, Note_off_c, 1, 82, 0
2, 585120, Note_on_c, 1, 81, 65
2, 585312, Note_off_c, 1, 81, 0
2, 585360, Note_on_c, 1, 82, 67
2, 585552, Note_off_c, 1, 82, 0
2, 585600, Note_on_c, 1, 81, 69
2, 585792, Note_off_c, 1, 81, 0
2, 585840, Note_on_c, 1, 82, 71
2, 586032, Note_off_c, 1, 82, 0
2, 586080, Note_on_c, 1, 84, 73
2, 586272, Note_off_c, 1, 84, 0
2, 586320, Note_on_c, 1, 86, 75
2, 586512, Note_off_c, 1, 86, 0
2, 586560, Note_on_c, 1, 85, 77
2, 586752, Note_off_c, 1, 85, 0
2, 586800, Note_on_c, 1, 86, 79
2, 586992, Note_off_c, 1, 86, 0
2, 587040, Note_on_c, 1, 85, 81
2, 587232, Note_off_c, 1, 85, 0
2, 587280, Note_on_c, 1, 86, 83
2, 587472, Note_off_c, 1, 86, 0
2, 587520, Note_on_c, 1, 85, 86
2, 587712, Note_off_c, 1, 85, 0
2, 587760, Control_c, 1, 64, 0
2, 587760, Note_on_c, 1, 86, 90
2, 588000, Note_off_c, 1, 86, 0
2, 588000, Note_on_c, 1, 82, 86
2, 588240, Note_off_c, 1, 82, 0
2, 588240, Note_on_c, 1, 77, 82
2, 588480, Note_off_c, 1, 77, 0
2, 588480, Note_on_c, 1, 74, 78
2, 588672, Note_off_c, 1, 74, 0
2, 588720, Note_on_c, 1, 70, 73
2, 588800, Note_off_c, 1, 70, 0
2, 588800, Note_on_c, 1, 72, 73
2, 588880, Note_off_c, 1, 72, 0
2, 588880, Note_on_c, 1, 74, 72
2, 588960, Note_off_c, 1, 74, 0
2, 588960, Note_on_c, 1, 72, 71
2, 589040, Note_off_c, 1, 72, 0
2, 589040, Note_on_c, 1, 74, 70
2, 589120, Note_off_c, 1, 74, 0
2, 589120, Note_on_c, 1, 72, 70
2, 589200, Note_off_c, 1, 72, 0
2, 589200, Note_on_c, 1, 74, 69
2, 589280, Note_off_c, 1, 74, 0
2, 589280, Note_on_c, 1, 72, 68
2, 589360, Note_off_c, 1, 72, 0
2, 589360, Note_on_c, 1, 74, 67
2, 589440, Note_off_c, 1, 74, 0
2, 589440, Note_on_c, 1, 72, 66
2, 589520, Note_off_c, 1, 72, 0
2, 589520, Note_on_c, 1, 70, 66
2, 589600, Note_off_c, 1, 70, 0
2, 589600, Note_on_c, 1, 72, 65
2, 589680, Note_off_c, 1, 72, 0
2, 589680, Note_on_c, 1, 70, 64
2, 590040, Note_off_c, 1, 70, 0
2, 591600, Note_on_c, 1, 79, 56
2, 591960, Note_off_c, 1, 79, 0
2, 593520, Note_on_c, 1, 82, 56
2, 593880, Note_off_c, 1, 82, 0
2, 595440, Note_on_c, 1, 67, 54
2, 595800, Note_off_c, 1, 67, 0
2, 597600, Note_on_c, 1, 70, 38
2, 597756, Note_off_c, 1, 70, 0
2, 597840, Note_on_c, 1, 70, 42
2, 598080, Note_off_c, 1, 70, 0
2, 598080, Note_on_c, 1, 71, 40
2, 598236, Note_off_c, 1, 71, 0
2, 598560, Note_on_c, 1, 71, 54
2, 598716, Note_off_c, 1, 71, 0
2, 598800, Note_on_c, 1, 71, 58
2, 599040, Note_off_c, 1, 71, 0
2, 599040, Note_on_c, 1, 72, 57
2, 599196, Note_off_c, 1, 72, 0
2, 599520, Note_on_c, 1, 73, 46
2, 599676, Note_off_c, 1, 73, 0
2, 599760, Note_on_c, 1, 73, 50
2, 600000, Note_off_c, 1, 73, 0
2, 600000, Note_on_c, 1, 74, 47
2, 600156, Note_off_c, 1, 74, 0
2, 600480, Note_on_c, 1, 74, 62
2, 600636, Note_off_c, 1, 74, 0
2, 600720, Note_on_c, 1, 74, 67
2, 600960, Note_off_c, 1, 74, 0
2, 600960, Note_on_c, 1, 75, 65
2, 601116, Note_off_c, 1, 75, 0
2, 601440, Note_on_c, 1, 76, 53
2, 601596, Note_off_c, 1, 76, 0
2, 601680, Note_on_c, 1, 76, 57
2, 601920, Note_off_c, 1, 76, 0
2, 601920, Note_on_c, 1, 77, 55
2, 602076, Note_off_c, 1, 77, 0
2, 602160, Control_c, 1, 64, 0
2, 602160, Note_on_c, 1, 77, 56
2, 602640, Note_off_c, 1, 77, 0
2, 602640, Note_on_c, 1, 79, 59
2, 603000, Note_off_c, 1, 79, 0
2, 603120, Note_on_c, 1, 77, 63
2, 603360, Note_off_c, 1, 77, 0
2, 603360, Note_on_c, 1, 75, 61
2, 603600, Note_off_c, 1, 75, 0
2, 603600, Note_on_c, 1, 74, 57
2, 603840, Note_off_c, 1, 74, 0
2, 603840, Note_on_c, 1, 72, 54
2, 604032, Note_off_c, 1, 72, 0
2, 604080, Note_on_c, 1, 75, 55
2, 604560, Note_off_c, 1, 75, 0
2, 604560, Note_on_c, 1, 77, 59
2, 604920, Note_off_c, 1, 77, 0
2, 605040, Note_on_c, 1, 75, 60
2, 605280, Note_off_c, 1, 75, 0
2, 605280, Note_on_c, 1, 74, 56
2, 605520, Note_off_c, 1, 74, 0
2, 605520, Note_on_c, 1, 72, 54
2, 605760, Note_off_c, 1, 72, 0
2, 605760, Note_on_c, 1, 70, 52
2, 605952, Note_off_c, 1, 70, 0
2, 606000, Note_on_c, 1, 77, 54
2, 606480, Note_off_c, 1, 77, 0
2, 606480, Note_on_c, 1, 82, 60
2, 606840, Note_off_c, 1, 82, 0
2, 606960, Note_on_c, 1, 81, 66
2, 607200, Note_off_c, 1, 81, 0
2, 607200, Note_on_c, 1, 79, 65
2, 607392, Note_off_c, 1, 79, 0
2, 607440, Note_on_c, 1, 79, 63
2, 607680, Note_off_c, 1, 79, 0
2, 607680, Note_on_c, 1, 77, 61
2, 607872, Note_off_c, 1, 77, 0
2, 607920, Note_on_c, 1, 77, 58
2, 608160, Note_off_c, 1, 77, 0
2, 608160, Note_on_c, 1, 75, 56
2, 608352, Note_off_c, 1, 75, 0
2, 608400, Note_on_c, 1, 75, 54
2, 608640, Note_off_c, 1, 75, 0
2, 608640, Note_on_c, 1, 74, 51
2, 608832, Note_off_c, 1, 74, 0
2, 608880, Note_on_c, 1, 74, 49
2, 609360, Note_off_c, 1, 74, 0
2, 609360, Note_on_c, 1, 72, 44
2, 609720, Note_off_c, 1, 72, 0
2, 609840, Note_on_c, 1, 77, 70
2, 610080, Note_off_c, 1, 77, 0
2, 610080, Note_on_c, 1, 76, 72
2, 610272, Note_off_c, 1, 76, 0
2, 610320, Note_on_c, 1, 77, 74
2, 610560, Note_off_c, 1, 77, 0
2, 610560, Note_on_c, 1, 79, 75
2, 610752, Note_off_c, 1, 79, 0
2, 610800, Note_on_c, 1, 77, 79
2, 611040, Note_off_c, 1, 77, 0
2, 611040, Note_on_c, 1, 75, 76
2, 611232, Note_off_c, 1, 75, 0
2, 611280, Note_on_c, 1, 74, 73
2, 611520, Note_off_c, 1, 74, 0
2, 611520, Note_on_c, 1, 72, 69
2, 611712, Note_off_c, 1, 72, 0
2, 611760, Note_on_c, 1, 75, 70
2, 612000, Note_off_c, 1, 75, 0
2, 612000, Note_on_c, 1, 74, 71
2, 612192, Note_off_c, 1, 74, 0
2, 612240, Note_on_c, 1, 75, 72
2, 612480, Note_off_c, 1, 75, 0
2, 612480, Note_on_c, 1, 77, 74
2, 612672, Note_off_c, 1, 77, 0
2, 612720, Note_on_c, 1, 75, 76
2, 612960, Note_off_c, 1, 75, 0
2, 612960, Note_on_c, 1, 74, 73
2, 613152, Note_off_c, 1, 74, 0
2, 613200, Note_on_c, 1, 72, 70
2, 613440, Note_off_c, 1, 72, 0
2, 613440, Note_on_c, 1, 70, 67
2, 613632, Note_off_c, 1, 70, 0
2, 613680, Note_on_c, 1, 70, 67
2, 613920, Note_off_c, 1, 70, 0
2, 613920, Note_on_c, 1, 74, 70
2, 614112, Note_off_c, 1, 74, 0
2, 614160, Note_on_c, 1, 77, 73
2, 614400, Note_off_c, 1, 77, 0
2, 614400, Note_on_c, 1, 82, 75
2, 614592, Note_off_c, 1, 82, 0
2, 614640, Note_on_c, 1, 82, 81
2, 614880, Note_off_c, 1, 82, 0
2, 614880, Note_on_c, 1, 79, 78
2, 615072, Note_off_c, 1, 79, 0
2, 615120, Note_on_c, 1, 75, 76
2, 615360, Note_off_c, 1, 75, 0
2, 615360, Note_on_c, 1, 72, 73
2, 615552, Note_off_c, 1, 72, 0
2, 615600, Note_on_c, 1, 70, 71
2, 615680, Note_off_c, 1, 70, 0
2, 615680, Note_on_c, 1, 72, 70
2, 615760, Note_off_c, 1, 72, 0
2, 615760, Note_on_c, 1, 74, 69
2, 615840, Note_off_c, 1, 74, 0
2, 615840, Note_on_c, 1, 72, 68
2, 615920, Note_off_c, 1, 72, 0
2, 615920, Note_on_c, 1, 74, 66
2, 616000, Note_off_c, 1, 74, 0
2, 616000, Note_on_c, 1, 72, 65
2, 616080, Note_off_c, 1, 72, 0
2, 616080, Note_on_c, 1, 74, 64
2, 616160, Note_off_c, 1, 74, 0
2, 616160, Note_on_c, 1, 72, 63
2, 616240, Note_off_c, 1, 72, 0
2, 616240, Note_on_c, 1, 74, 62
2, 616320, Note_off_c, 1, 74, 0
2, 616320, Note_on_c, 1, 72, 61
2, 616400, Note_off_c, 1, 72, 0
2, 616400, Note_on_c, 1, 70, 60
2, 616480, Note_off_c, 1, 70, 0
2, 616480, Note_on_c, 1, 72, 58
2, 616560, Note_off_c, 1, 72, 0
2, 616560, Note_on_c, 1, 70, 57
2, 616920, Note_off_c, 1, 70, 0
2, 624720, Note_on_c, 1, 70, 63
2, 626520, Note_off_c, 1, 70, 0
2, 626640, Note_on_c, 1, 75, 53
2, 626800, Note_off_c, 1, 75, 0
2, 626800, Note_on_c, 1, 77, 52
2, 626960, Note_off_c, 1, 77, 0
2, 626960, Note_on_c, 1, 79, 50
2, 627120, Note_off_c, 1, 79, 0
2, 627120, Note_on_c, 1, 77, 49
2, 627280, Note_off_c, 1, 77, 0
2, 627280, Note_on_c, 1, 75, 47
2, 627440, Note_off_c, 1, 75, 0
2, 627440, Note_on_c, 1, 74, 46
2, 627600, Note_off_c, 1, 74, 0
2, 627600, Note_on_c, 1, 72, 45
2, 627760, Note_off_c, 1, 72, 0
2, 627760, Note_on_c, 1, 70, 43
2, 627920, Note_off_c, 1, 70, 0
2, 627920, Note_on_c, 1, 69, 42
2, 628080, Note_off_c, 1, 69, 0
2, 628080, Note_on_c, 1, 70, 40
2, 628440, Note_off_c, 1, 70, 0
2, 628560, Note_on_c, 1, 70, 68
2, 630360, Note_off_c, 1, 70, 0
2, 630480, Note_on_c, 1, 75, 71
2, 630640, Note_off_c, 1, 75, 0
2, 630640, Note_on_c, 1, 77, 70
2, 630800, Note_off_c, 1, 77, 0
2, 630800, Note_on_c, 1, 79, 69
2, 630960, Note_off_c, 1, 79, 0
2, 630960, Note_on_c, 1, 77, 68
2, 631120, Note_off_c, 1, 77, 0
2, 631120, Note_on_c, 1, 75, 67
2, 631280, Note_off_c, 1, 75, 0
2, 631280, Note_on_c, 1, 74, 66
2, 631440, Note_off_c, 1, 74, 0
2, 631440, Note_on_c, 1, 72, 65
2, 631600, Note_off_c, 1, 72, 0
2, 631600, Note_on_c, 1, 70, 64
2, 631760, Note_off_c, 1, 70, 0
2, 631760, Note_on_c, 1, 69, 63
2, 631920, Note_off_c, 1, 69, 0
2, 631920, Note_on_c, 1, 70, 62
2, 632280, Note_off_c, 1, 70, 0
2, 632400, Note_on_c, 1, 75, 59
2, 632560, Note_off_c, 1, 75, 0
2, 632560, Note_on_c, 1, 72, 58
2, 632720, Note_off_c, 1, 72, 0
2, 632720, Note_on_c, 1, 69, 57
2, 632880, Note_off_c, 1, 69, 0
2, 632880, Note_on_c, 1, 70, 56
2, 633240, Note_off_c, 1, 70, 0
2, 633360, Note_on_c, 1, 75, 53
2, 633520, Note_off_c, 1, 75, 0
2, 633520, Note_on_c, 1, 72, 52
2, 633680, Note_off_c, 1, 72, 0
2, 633680, Note_on_c, 1, 69, 51
2, 633840, Note_off_c, 1, 69, 0
2, 633840, Note_on_c, 1, 70, 50
2, 634200, Note_off_c, 1, 70, 0
2, 634320, Note_on_c, 1, 76, 47
2, 634440, Note_off_c, 1, 76, 0
2, 634440, Note_on_c, 1, 77, 46
2, 634680, Note_off_c, 1, 77, 0
2, 634800, Note_on_c, 1, 81, 44
2, 634920, Note_off_c, 1, 81, 0
2, 634920, Note_on_c, 1, 82, 43
2, 635160, Note_off_c, 1, 82, 0
2, 635280, Note_on_c, 1, 75, 41
2, 635440, Note_off_c, 1, 75, 0
2, 635440, Note_on_c, 1, 72, 40
2, 635600, Note_off_c, 1, 72, 0
2, 635600, Note_on_c, 1, 69, 39
2, 635760, Note_off_c, 1, 69, 0
2, 635760, Note_on_c, 1, 70, 38
2, 636120, Note_off_c, 1, 70, 0
2, 636240, Note_on_c, 1, 76, 35
2, 636360, Note_off_c, 1, 76, 0
2, 636360, Note_on_c, 1, 77, 34
2, 636600, Note_off_c, 1, 77, 0
2, 636720, Note_on_c, 1, 81, 32
2, 636840, Note_off_c, 1, 81, 0
2, 636840, Note_on_c, 1, 82, 31
2, 637080, Note_off_c, 1, 82, 0
2, 637200, Note_on_c, 1, 75, 29
2, 637360, Note_off_c, 1, 75, 0
2, 637360, Note_on_c, 1, 72, 28
2, 637520, Note_off_c, 1, 72, 0
2, 637520, Note_on_c, 1, 69, 27
2, 637680, Note_off_c, 1, 69, 0
2, 637680, Note_on_c, 1, 70, 26
2, 638040, Note_off_c, 1, 70, 0
2, 638160, Note_on_c, 1, 76, 23
2, 638280, Note_off_c, 1, 76, 0
2, 638280, Note_on_c, 1, 77, 22
2, 638520, Note_off_c, 1, 77, 0
2, 638640, Note_on_c, 1, 81, 20
2, 638760, Note_off_c, 1, 81, 0
2, 638760, Note_on_c, 1, 82, 19
2, 639000, Note_off_c, 1, 82, 0
2, 639120, Note_on_c, 1, 64, 99
2, 639240, Note_off_c, 1, 64, 0
2, 639240, Note_on_c, 1, 65, 98
2, 639480, Note_off_c, 1, 65, 0
2, 639600, Note_on_c, 1, 69, 95
2, 639720, Note_off_c, 1, 69, 0
2, 639720, Note_on_c, 1, 70, 94
2, 639960, Note_off_c, 1, 70, 0
2, 641520, End_track
3, 0, Start_track
3, 0, Instrument_name_t, "Roland Serial MIDI Out Port A"
3, 0, Title_t, "Unnamed Track"
3, 0, Control_c, 2, 0, 0
3, 0, Control_c, 2, 32, 0
3, 0, Program_c, 2, 0
3, 0, Control_c, 2, 10, 73
3, 0, Control_c, 2, 1, 0
3, 0, Pitch_bend_c, 2, 8192
3, 0, Control_c, 2, 93, 18
3, 0, Pitch_bend_c, 2, 8192
3, 0, Control_c, 2, 1, 0
3, 0, Control_c, 2, 64, 0
3, 0, Control_c, 2, 91, 100
3, 0, Control_c, 2, 93, 28
3, 0, Control_c, 2, 64, 0
3, 0, Control_c, 2, 1, 0
3, 0, Pitch_bend_c, 2, 8192
3, 0, Control_c, 2, 7, 122
3, 5760, Note_on_c, 2, 70, 79
3, 5800, Note_on_c, 2, 75, 79
3, 6120, Note_off_c, 2, 70, 0
3, 6120, Note_off_c, 2, 75, 0
3, 6240, Note_on_c, 2, 70, 74
3, 6280, Note_on_c, 2, 74, 74
3, 6600, Note_off_c, 2, 70, 0
3, 6600, Note_off_c, 2, 74, 0
3, 7680, Note_on_c, 2, 74, 79
3, 7920, Note_off_c, 2, 74, 0
3, 7920, Note_on_c, 2, 72, 76
3, 8110, Note_off_c, 2, 72, 0
3, 8160, Note_on_c, 2, 70, 73
3, 8470, Note_off_c, 2, 70, 0
3, 59520, Note_on_c, 2, 67, 47
3, 59560, Note_on_c, 2, 72, 47
3, 59635, Note_off_c, 2, 67, 0
3, 59665, Note_off_c, 2, 72, 0
3, 66240, Note_on_c, 2, 60, 77
3, 67445, Note_off_c, 2, 60, 0
3, 67920, Note_on_c, 2, 70, 48
3, 68076, Note_off_c, 2, 70, 0
3, 68400, Note_on_c, 2, 69, 46
3, 68556, Note_off_c, 2, 69, 0
3, 68880, Note_on_c, 2, 58, 45
3, 69036, Note_off_c, 2, 58, 0
3, 70080, Note_on_c, 2, 60, 66
3, 71285, Note_off_c, 2, 60, 0
3, 71760, Note_on_c, 2, 70, 38
3, 71916, Note_off_c, 2, 70, 0
3, 72240, Note_on_c, 2, 69, 37
3, 72396, Note_off_c, 2, 69, 0
3, 72720, Note_on_c, 2, 58, 36
3, 72876, Note_off_c, 2, 58, 0
3, 72960, Note_on_c, 2, 57, 39
3, 73320, Note_off_c, 2, 57, 0
3, 73680, Note_on_c, 2, 65, 45
3, 73920, Note_off_c, 2, 65, 0
3, 73920, Note_on_c, 2, 64, 47
3, 74076, Note_off_c, 2, 64, 0
3, 74160, Note_on_c, 2, 64, 49
3, 74316, Note_off_c, 2, 64, 0
3, 74640, Note_on_c, 2, 67, 54
3, 74880, Note_off_c, 2, 67, 0
3, 74880, Note_on_c, 2, 65, 56
3, 75036, Note_off_c, 2, 65, 0
3, 75120, Note_on_c, 2, 65, 58
3, 75276, Note_off_c, 2, 65, 0
3, 75600, Note_on_c, 2, 77, 62
3, 75840, Note_off_c, 2, 77, 0
3, 75840, Note_on_c, 2, 76, 64
3, 75996, Note_off_c, 2, 76, 0
3, 76080, Note_on_c, 2, 76, 66
3, 76236, Note_off_c, 2, 76, 0
3, 76560, Note_on_c, 2, 79, 71
3, 76560, Note_on_c, 2, 76, 71
3, 76716, Note_off_c, 2, 79, 0
3, 76716, Note_off_c, 2, 76, 0
3, 76800, Note_on_c, 2, 79, 73
3, 76800, Note_on_c, 2, 76, 73
3, 77760, Note_off_c, 2, 79, 0
3, 77760, Note_off_c, 2, 76, 0
3, 77760, Note_on_c, 2, 77, 53
3, 78240, Note_off_c, 2, 77, 0
3, 101920, Note_on_c, 2, 79, 52
3, 102080, Note_off_c, 2, 79, 0
3, 102080, Note_on_c, 2, 78, 49
3, 102240, Note_off_c, 2, 78, 0
3, 102240, Note_on_c, 2, 79, 47
3, 102400, Note_off_c, 2, 79, 0
3, 102400, Note_on_c, 2, 78, 45
3, 102560, Note_off_c, 2, 78, 0
3, 102560, Note_on_c, 2, 79, 43
3, 102688, Note_off_c, 2, 79, 0
3, 102880, Note_on_c, 2, 67, 48
3, 103040, Note_off_c, 2, 67, 0
3, 103040, Note_on_c, 2, 66, 46
3, 103200, Note_off_c, 2, 66, 0
3, 103200, Note_on_c, 2, 67, 44
3, 103360, Note_off_c, 2, 67, 0
3, 103360, Note_on_c, 2, 66, 42
3, 103520, Note_off_c, 2, 66, 0
3, 103520, Note_on_c, 2, 67, 40
3, 103648, Note_off_c, 2, 67, 0
3, 103680, Note_on_c, 2, 66, 79
3, 103968, Note_off_c, 2, 66, 0
3, 104160, Note_on_c, 2, 66, 74
3, 104200, Note_on_c, 2, 69, 74
3, 104445, Note_off_c, 2, 69, 0
3, 104448, Note_off_c, 2, 66, 0
3, 130080, Note_on_c, 2, 67, 67
3, 130080, Note_on_c, 2, 72, 67
3, 130080, Note_on_c, 2, 70, 67
3, 130440, Note_off_c, 2, 67, 0
3, 130440, Note_off_c, 2, 72, 0
3, 130440, Note_off_c, 2, 70, 0
3, 130560, Note_on_c, 2, 69, 63
3, 130560, Note_on_c, 2, 72, 63
3, 130920, Note_off_c, 2, 69, 0
3, 130920, Note_off_c, 2, 72, 0
3, 138240, Note_on_c, 2, 70, 79
3, 138280, Note_on_c, 2, 75, 79
3, 138600, Note_off_c, 2, 70, 0
3, 138600, Note_off_c, 2, 75, 0
3, 138720, Note_on_c, 2, 70, 74
3, 138760, Note_on_c, 2, 74, 74
3, 139080, Note_off_c, 2, 70, 0
3, 139080, Note_off_c, 2, 74, 0
3, 140160, Note_on_c, 2, 74, 79
3, 140400, Note_off_c, 2, 74, 0
3, 140400, Note_on_c, 2, 72, 76
3, 140590, Note_off_c, 2, 72, 0
3, 140640, Note_on_c, 2, 70, 73
3, 140950, Note_off_c, 2, 70, 0
3, 192000, Note_on_c, 2, 60, 47
3, 192040, Note_on_c, 2, 65, 47
3, 192115, Note_off_c, 2, 60, 0
3, 192145, Note_off_c, 2, 65, 0
3, 198720, Note_on_c, 2, 65, 75
3, 199680, Note_on_c, 2, 63, 70
3, 199925, Note_off_c, 2, 65, 0
3, 200040, Note_off_c, 2, 63, 0
3, 200400, Note_on_c, 2, 75, 48
3, 200556, Note_off_c, 2, 75, 0
3, 200880, Note_on_c, 2, 74, 46
3, 201036, Note_off_c, 2, 74, 0
3, 201360, Note_on_c, 2, 63, 45
3, 201516, Note_off_c, 2, 63, 0
3, 202560, Note_on_c, 2, 53, 67
3, 203765, Note_off_c, 2, 53, 0
3, 204240, Note_on_c, 2, 63, 38
3, 204396, Note_off_c, 2, 63, 0
3, 204720, Note_on_c, 2, 62, 37
3, 204876, Note_off_c, 2, 62, 0
3, 205200, Note_on_c, 2, 63, 36
3, 205356, Note_off_c, 2, 63, 0
3, 205440, Note_on_c, 2, 62, 40
3, 205800, Note_off_c, 2, 62, 0
3, 206160, Note_on_c, 2, 70, 47
3, 206400, Note_off_c, 2, 70, 0
3, 206400, Note_on_c, 2, 69, 49
3, 206556, Note_off_c, 2, 69, 0
3, 206640, Note_on_c, 2, 69, 51
3, 206796, Note_off_c, 2, 69, 0
3, 207120, Note_on_c, 2, 72, 56
3, 207360, Note_off_c, 2, 72, 0
3, 207360, Note_on_c, 2, 70, 58
3, 207516, Note_off_c, 2, 70, 0
3, 207600, Note_on_c, 2, 70, 61
3, 207756, Note_off_c, 2, 70, 0
3, 208080, Note_on_c, 2, 77, 65
3, 208080, Note_on_c, 2, 74, 65
3, 208320, Note_off_c, 2, 77, 0
3, 208320, Note_off_c, 2, 74, 0
3, 208320, Note_on_c, 2, 75, 67
3, 208476, Note_off_c, 2, 75, 0
3, 208560, Note_on_c, 2, 75, 70
3, 208716, Note_off_c, 2, 75, 0
3, 209040, Note_on_c, 2, 75, 74
3, 209040, Note_on_c, 2, 72, 74
3, 209196, Note_off_c, 2, 75, 0
3, 209196, Note_off_c, 2, 72, 0
3, 209280, Note_on_c, 2, 75, 76
3, 209280, Note_on_c, 2, 72, 76
3, 210240, Note_off_c, 2, 75, 0
3, 210240, Note_off_c, 2, 72, 0
3, 210240, Note_on_c, 2, 74, 53
3, 210720, Note_off_c, 2, 74, 0
3, 212160, Note_on_c, 2, 79, 46
3, 212400, Note_off_c, 2, 79, 0
3, 212400, Note_on_c, 2, 77, 48
3, 212640, Note_off_c, 2, 77, 0
3, 212640, Note_on_c, 2, 75, 51
3, 212880, Note_off_c, 2, 75, 0
3, 212880, Note_on_c, 2, 74, 53
3, 213120, Note_off_c, 2, 74, 0
3, 213120, Note_on_c, 2, 72, 55
3, 213360, Note_off_c, 2, 72, 0
3, 213360, Note_on_c, 2, 70, 57
3, 213600, Note_off_c, 2, 70, 0
3, 213600, Note_on_c, 2, 68, 59
3, 213840, Note_off_c, 2, 68, 0
3, 213840, Note_on_c, 2, 67, 61
3, 214032, Note_off_c, 2, 67, 0
3, 214080, Note_on_c, 2, 65, 64
3, 214320, Note_off_c, 2, 65, 0
3, 214320, Note_on_c, 2, 63, 66
3, 214560, Note_off_c, 2, 63, 0
3, 214560, Note_on_c, 2, 62, 68
3, 215040, Note_off_c, 2, 62, 0
3, 215040, Note_on_c, 2, 63, 69
3, 215280, Note_off_c, 2, 63, 0
3, 215280, Note_on_c, 2, 65, 65
3, 215472, Note_off_c, 2, 65, 0
3, 215520, Note_on_c, 2, 67, 62
3, 216000, Note_off_c, 2, 67, 0
3, 216000, Note_on_c, 2, 68, 55
3, 216192, Note_off_c, 2, 68, 0
3, 216240, Note_on_c, 2, 67, 51
3, 216720, Note_off_c, 2, 67, 0
3, 216720, Note_on_c, 2, 65, 44
3, 216960, Note_off_c, 2, 65, 0
3, 216960, Note_on_c, 2, 63, 39
3, 217152, Note_off_c, 2, 63, 0
3, 221760, Note_on_c, 2, 58, 32
3, 221880, Note_off_c, 2, 58, 0
3, 222000, Note_on_c, 2, 58, 29
3, 222156, Note_off_c, 2, 58, 0
3, 239280, Note_on_c, 2, 68, 73
3, 239520, Note_off_c, 2, 68, 0
3, 239520, Note_on_c, 2, 67, 71
3, 239760, Note_off_c, 2, 67, 0
3, 239760, Note_on_c, 2, 70, 68
3, 239952, Note_off_c, 2, 70, 0
3, 240720, Note_on_c, 2, 68, 71
3, 240960, Note_off_c, 2, 68, 0
3, 240960, Note_on_c, 2, 67, 69
3, 241200, Note_off_c, 2, 67, 0
3, 241200, Note_on_c, 2, 70, 68
3, 241392, Note_off_c, 2, 70, 0
3, 244080, Note_on_c, 2, 53, 37
3, 244200, Note_off_c, 2, 53, 0
3, 244320, Note_on_c, 2, 53, 32
3, 244476, Note_off_c, 2, 53, 0
3, 252720, Note_on_c, 2, 62, 37
3, 252840, Note_off_c, 2, 62, 0
3, 252960, Note_on_c, 2, 62, 33
3, 253116, Note_off_c, 2, 62, 0
3, 253920, Note_on_c, 2, 79, 46
3, 254160, Note_off_c, 2, 79, 0
3, 254160, Note_on_c, 2, 77, 48
3, 254400, Note_off_c, 2, 77, 0
3, 254400, Note_on_c, 2, 75, 51
3, 254640, Note_off_c, 2, 75, 0
3, 254640, Note_on_c, 2, 74, 53
3, 254880, Note_off_c, 2, 74, 0
3, 254880, Note_on_c, 2, 72, 55
3, 255120, Note_off_c, 2, 72, 0
3, 255120, Note_on_c, 2, 70, 57
3, 255360, Note_off_c, 2, 70, 0
3, 255360, Note_on_c, 2, 68, 59
3, 255600, Note_off_c, 2, 68, 0
3, 255600, Note_on_c, 2, 67, 61
3, 255792, Note_off_c, 2, 67, 0
3, 255840, Note_on_c, 2, 65, 64
3, 256080, Note_off_c, 2, 65, 0
3, 256080, Note_on_c, 2, 63, 66
3, 256320, Note_off_c, 2, 63, 0
3, 256320, Note_on_c, 2, 62, 68
3, 256800, Note_off_c, 2, 62, 0
3, 256800, Note_on_c, 2, 63, 69
3, 257040, Note_off_c, 2, 63, 0
3, 257040, Note_on_c, 2, 65, 65
3, 257232, Note_off_c, 2, 65, 0
3, 257280, Note_on_c, 2, 67, 62
3, 257760, Note_off_c, 2, 67, 0
3, 257760, Note_on_c, 2, 68, 57
3, 257952, Note_off_c, 2, 68, 0
3, 258000, Note_on_c, 2, 67, 53
3, 258480, Note_off_c, 2, 67, 0
3, 258480, Note_on_c, 2, 65, 44
3, 258720, Note_off_c, 2, 65, 0
3, 258720, Note_on_c, 2, 63, 39
3, 258912, Note_off_c, 2, 63, 0
3, 263520, Note_on_c, 2, 58, 32
3, 263640, Note_off_c, 2, 58, 0
3, 263760, Note_on_c, 2, 58, 29
3, 263916, Note_off_c, 2, 58, 0
3, 282480, Note_on_c, 2, 61, 73
3, 282720, Note_off_c, 2, 61, 0
3, 282720, Note_on_c, 2, 60, 71
3, 282960, Note_off_c, 2, 60, 0
3, 282960, Note_on_c, 2, 63, 68
3, 283152, Note_off_c, 2, 63, 0
3, 283920, Note_on_c, 2, 73, 71
3, 284160, Note_off_c, 2, 73, 0
3, 284160, Note_on_c, 2, 72, 69
3, 284400, Note_off_c, 2, 72, 0
3, 284400, Note_on_c, 2, 75, 68
3, 284592, Note_off_c, 2, 75, 0
3, 287280, Note_on_c, 2, 58, 37
3, 287400, Note_off_c, 2, 58, 0
3, 287520, Note_on_c, 2, 58, 32
3, 287676, Note_off_c, 2, 58, 0
3, 304240, Note_on_c, 2, 74, 48
3, 304400, Note_off_c, 2, 74, 0
3, 304400, Note_on_c, 2, 77, 47
3, 304528, Note_off_c, 2, 77, 0
3, 304720, Note_on_c, 2, 75, 46
3, 304880, Note_off_c, 2, 75, 0
3, 304880, Note_on_c, 2, 79, 46
3, 305008, Note_off_c, 2, 79, 0
3, 305200, Note_on_c, 2, 72, 45
3, 305360, Note_off_c, 2, 72, 0
3, 305360, Note_on_c, 2, 75, 44
3, 305488, Note_off_c, 2, 75, 0
3, 305680, Note_on_c, 2, 74, 43
3, 305840, Note_off_c, 2, 74, 0
3, 305840, Note_on_c, 2, 77, 43
3, 305968, Note_off_c, 2, 77, 0
3, 306160, Note_on_c, 2, 70, 42
3, 306320, Note_off_c, 2, 70, 0
3, 306320, Note_on_c, 2, 74, 41
3, 306448, Note_off_c, 2, 74, 0
3, 306640, Note_on_c, 2, 72, 40
3, 306800, Note_off_c, 2, 72, 0
3, 306800, Note_on_c, 2, 75, 40
3, 306928, Note_off_c, 2, 75, 0
3, 307120, Note_on_c, 2, 67, 39
3, 307280, Note_off_c, 2, 67, 0
3, 307280, Note_on_c, 2, 70, 38
3, 307408, Note_off_c, 2, 70, 0
3, 307600, Note_on_c, 2, 69, 46
3, 307760, Note_off_c, 2, 69, 0
3, 307760, Note_on_c, 2, 72, 55
3, 307888, Note_off_c, 2, 72, 0
3, 307920, Note_on_c, 2, 74, 75
3, 308080, Note_off_c, 2, 74, 0
3, 308080, Note_on_c, 2, 75, 75
3, 308240, Note_off_c, 2, 75, 0
3, 308240, Note_on_c, 2, 77, 74
3, 308368, Note_off_c, 2, 77, 0
3, 308400, Note_on_c, 2, 75, 74
3, 308560, Note_off_c, 2, 75, 0
3, 308560, Note_on_c, 2, 77, 73
3, 308720, Note_off_c, 2, 77, 0
3, 308720, Note_on_c, 2, 79, 72
3, 308848, Note_off_c, 2, 79, 0
3, 308880, Note_on_c, 2, 72, 72
3, 309040, Note_off_c, 2, 72, 0
3, 309040, Note_on_c, 2, 74, 71
3, 309200, Note_off_c, 2, 74, 0
3, 309200, Note_on_c, 2, 75, 71
3, 309328, Note_off_c, 2, 75, 0
3, 309360, Note_on_c, 2, 74, 70
3, 309520, Note_off_c, 2, 74, 0
3, 309520, Note_on_c, 2, 75, 69
3, 309680, Note_off_c, 2, 75, 0
3, 309680, Note_on_c, 2, 77, 69
3, 309808, Note_off_c, 2, 77, 0
3, 309840, Note_on_c, 2, 79, 68
3, 309944, Note_off_c, 2, 79, 0
3, 310000, Note_on_c, 2, 81, 68
3, 310104, Note_off_c, 2, 81, 0
3, 310160, Note_on_c, 2, 82, 67
3, 310264, Note_off_c, 2, 82, 0
3, 310320, Note_on_c, 2, 81, 66
3, 310424, Note_off_c, 2, 81, 0
3, 310480, Note_on_c, 2, 79, 66
3, 310584, Note_off_c, 2, 79, 0
3, 310640, Note_on_c, 2, 77, 65
3, 310744, Note_off_c, 2, 77, 0
3, 310800, Note_on_c, 2, 75, 65
3, 310904, Note_off_c, 2, 75, 0
3, 310960, Note_on_c, 2, 74, 64
3, 311064, Note_off_c, 2, 74, 0
3, 311120, Note_on_c, 2, 72, 63
3, 311224, Note_off_c, 2, 72, 0
3, 311280, Note_on_c, 2, 70, 63
3, 311640, Note_off_c, 2, 70, 0
3, 311760, Note_on_c, 2, 66, 65
3, 312240, Note_off_c, 2, 66, 0
3, 312240, Note_on_c, 2, 67, 67
3, 312720, Note_off_c, 2, 67, 0
3, 312720, Note_on_c, 2, 66, 69
3, 313200, Note_off_c, 2, 66, 0
3, 313200, Note_on_c, 2, 67, 71
3, 313560, Note_off_c, 2, 67, 0
3, 315600, Note_on_c, 2, 66, 68
3, 316080, Note_off_c, 2, 66, 0
3, 316080, Note_on_c, 2, 67, 71
3, 316560, Note_off_c, 2, 67, 0
3, 316560, Note_on_c, 2, 66, 75
3, 317040, Note_off_c, 2, 66, 0
3, 317040, Note_on_c, 2, 67, 79
3, 317400, Note_off_c, 2, 67, 0
3, 330640, Note_on_c, 2, 84, 68
3, 330800, Note_off_c, 2, 84, 0
3, 330800, Note_on_c, 2, 82, 68
3, 330928, Note_off_c, 2, 82, 0
3, 331120, Note_on_c, 2, 81, 67
3, 331280, Note_off_c, 2, 81, 0
3, 331280, Note_on_c, 2, 79, 66
3, 331408, Note_off_c, 2, 79, 0
3, 331600, Note_on_c, 2, 82, 65
3, 331760, Note_off_c, 2, 82, 0
3, 331760, Note_on_c, 2, 81, 64
3, 331888, Note_off_c, 2, 81, 0
3, 332080, Note_on_c, 2, 79, 63
3, 332240, Note_off_c, 2, 79, 0
3, 332240, Note_on_c, 2, 77, 62
3, 332368, Note_off_c, 2, 77, 0
3, 332560, Note_on_c, 2, 81, 61
3, 332720, Note_off_c, 2, 81, 0
3, 332720, Note_on_c, 2, 79, 61
3, 332848, Note_off_c, 2, 79, 0
3, 333040, Note_on_c, 2, 77, 59
3, 333200, Note_off_c, 2, 77, 0
3, 333200, Note_on_c, 2, 76, 59
3, 333328, Note_off_c, 2, 76, 0
3, 333520, Note_on_c, 2, 79, 58
3, 333680, Note_off_c, 2, 79, 0
3, 333680, Note_on_c, 2, 77, 57
3, 333808, Note_off_c, 2, 77, 0
3, 334000, Note_on_c, 2, 69, 56
3, 334160, Note_off_c, 2, 69, 0
3, 334160, Note_on_c, 2, 72, 55
3, 334288, Note_off_c, 2, 72, 0
3, 334480, Note_on_c, 2, 72, 54
3, 334640, Note_off_c, 2, 72, 0
3, 334640, Note_on_c, 2, 70, 53
3, 334768, Note_off_c, 2, 70, 0
3, 334960, Note_on_c, 2, 69, 52
3, 335120, Note_off_c, 2, 69, 0
3, 335120, Note_on_c, 2, 67, 52
3, 335248, Note_off_c, 2, 67, 0
3, 335440, Note_on_c, 2, 70, 50
3, 335600, Note_off_c, 2, 70, 0
3, 335600, Note_on_c, 2, 69, 50
3, 335728, Note_off_c, 2, 69, 0
3, 335920, Note_on_c, 2, 67, 49
3, 336080, Note_off_c, 2, 67, 0
3, 336080, Note_on_c, 2, 65, 48
3, 336208, Note_off_c, 2, 65, 0
3, 336400, Note_on_c, 2, 69, 47
3, 336560, Note_off_c, 2, 69, 0
3, 336560, Note_on_c, 2, 67, 46
3, 336688, Note_off_c, 2, 67, 0
3, 336880, Note_on_c, 2, 65, 45
3, 337040, Note_off_c, 2, 65, 0
3, 337040, Note_on_c, 2, 64, 44
3, 337168, Note_off_c, 2, 64, 0
3, 365520, Note_on_c, 2, 70, 73
3, 366960, Note_off_c, 2, 70, 0
3, 367440, Note_on_c, 2, 72, 73
3, 368880, Note_off_c, 2, 72, 0
3, 369360, Note_on_c, 2, 70, 69
3, 370800, Note_off_c, 2, 70, 0
3, 370800, Note_on_c, 2, 69, 51
3, 372240, Control_c, 2, 64, 0
3, 372720, Note_off_c, 2, 69, 0
3, 393840, Control_c, 2, 64, 0
3, 409200, Control_c, 2, 64, 0
3, 424560, Control_c, 2, 64, 0
3, 424800, Note_on_c, 2, 74, 78
3, 424956, Note_off_c, 2, 74, 0
3, 425040, Note_on_c, 2, 73, 77
3, 425280, Note_off_c, 2, 73, 0
3, 425280, Note_on_c, 2, 74, 75
3, 425436, Note_off_c, 2, 74, 0
3, 425760, Note_on_c, 2, 72, 73
3, 425916, Note_off_c, 2, 72, 0
3, 426000, Note_on_c, 2, 71, 72
3, 426240, Note_off_c, 2, 71, 0
3, 426240, Note_on_c, 2, 72, 71
3, 426396, Note_off_c, 2, 72, 0
3, 426480, Note_on_c, 2, 70, 70
3, 427200, Note_off_c, 2, 70, 0
3, 427440, Note_on_c, 2, 66, 65
3, 428160, Note_off_c, 2, 66, 0
3, 430320, Note_on_c, 2, 70, 54
3, 431280, Note_off_c, 2, 70, 0
3, 431280, Note_on_c, 2, 69, 40
3, 431640, Note_off_c, 2, 69, 0
3, 434640, Control_c, 2, 64, 127
3, 434800, Note_on_c, 2, 66, 75
3, 434840, Note_on_c, 2, 69, 75
3, 434880, Note_on_c, 2, 72, 75
3, 435160, Note_off_c, 2, 66, 0
3, 435200, Note_off_c, 2, 69, 0
3, 435240, Note_off_c, 2, 72, 0
3, 436080, Control_c, 2, 64, 0
3, 437760, Note_on_c, 2, 72, 59
3, 437916, Note_off_c, 2, 72, 0
3, 438000, Note_on_c, 2, 72, 65
3, 438240, Note_off_c, 2, 72, 0
3, 438240, Note_on_c, 2, 70, 57
3, 438396, Note_off_c, 2, 70, 0
3, 438720, Note_on_c, 2, 69, 58
3, 438876, Note_off_c, 2, 69, 0
3, 438960, Note_on_c, 2, 69, 60
3, 439200, Note_off_c, 2, 69, 0
3, 439200, Note_on_c, 2, 67, 54
3, 439356, Note_off_c, 2, 67, 0
3, 439680, Note_on_c, 2, 66, 52
3, 439836, Note_off_c, 2, 66, 0
3, 439920, Note_on_c, 2, 66, 54
3, 440880, Note_off_c, 2, 66, 0
3, 441840, Control_c, 2, 64, 0
3, 442080, Note_on_c, 2, 74, 78
3, 442236, Note_off_c, 2, 74, 0
3, 442320, Note_on_c, 2, 73, 77
3, 442560, Note_off_c, 2, 73, 0
3, 442560, Note_on_c, 2, 74, 75
3, 442716, Note_off_c, 2, 74, 0
3, 443040, Note_on_c, 2, 72, 73
3, 443196, Note_off_c, 2, 72, 0
3, 443280, Note_on_c, 2, 71, 72
3, 443520, Note_off_c, 2, 71, 0
3, 443520, Note_on_c, 2, 72, 71
3, 443676, Note_off_c, 2, 72, 0
3, 443760, Note_on_c, 2, 70, 70
3, 444480, Note_off_c, 2, 70, 0
3, 444720, Note_on_c, 2, 66, 65
3, 445440, Note_off_c, 2, 66, 0
3, 447600, Note_on_c, 2, 70, 54
3, 448560, Note_off_c, 2, 70, 0
3, 448560, Note_on_c, 2, 69, 40
3, 448920, Note_off_c, 2, 69, 0
3, 451920, Control_c, 2, 64, 127
3, 452080, Note_on_c, 2, 66, 75
3, 452120, Note_on_c, 2, 69, 75
3, 452160, Note_on_c, 2, 72, 75
3, 452440, Note_off_c, 2, 66, 0
3, 452480, Note_off_c, 2, 69, 0
3, 452520, Note_off_c, 2, 72, 0
3, 453360, Control_c, 2, 64, 0
3, 455040, Note_on_c, 2, 72, 59
3, 455196, Note_off_c, 2, 72, 0
3, 455280, Note_on_c, 2, 72, 65
3, 455520, Note_off_c, 2, 72, 0
3, 455520, Note_on_c, 2, 70, 57
3, 455676, Note_off_c, 2, 70, 0
3, 456000, Note_on_c, 2, 69, 58
3, 456156, Note_off_c, 2, 69, 0
3, 456240, Note_on_c, 2, 69, 60
3, 456480, Note_off_c, 2, 69, 0
3, 456480, Note_on_c, 2, 67, 54
3, 456636, Note_off_c, 2, 67, 0
3, 456960, Note_on_c, 2, 66, 52
3, 457116, Note_off_c, 2, 66, 0
3, 457200, Note_on_c, 2, 66, 54
3, 458160, Note_off_c, 2, 66, 0
3, 459120, Control_c, 2, 64, 0
3, 459120, Note_on_c, 2, 62, 79
3, 459120, Note_on_c, 2, 68, 79
3, 460080, Note_off_c, 2, 62, 0
3, 460080, Note_off_c, 2, 68, 0
3, 460080, Note_on_c, 2, 67, 68
3, 460080, Note_on_c, 2, 64, 68
3, 460440, Note_off_c, 2, 67, 0
3, 460440, Note_off_c, 2, 64, 0
3, 462960, Control_c, 2, 64, 127
3, 463120, Note_on_c, 2, 65, 79
3, 463160, Note_on_c, 2, 69, 79
3, 463200, Note_on_c, 2, 72, 79
3, 463722, Note_off_c, 2, 65, 0
3, 463762, Note_off_c, 2, 69, 0
3, 463802, Note_off_c, 2, 72, 0
3, 465360, Control_c, 2, 64, 0
3, 465840, Control_c, 2, 64, 0
3, 480880, Note_on_c, 2, 74, 48
3, 481040, Note_off_c, 2, 74, 0
3, 481040, Note_on_c, 2, 77, 47
3, 481168, Note_off_c, 2, 77, 0
3, 481360, Note_on_c, 2, 75, 46
3, 481520, Note_off_c, 2, 75, 0
3, 481520, Note_on_c, 2, 79, 46
3, 481648, Note_off_c, 2, 79, 0
3, 481840, Note_on_c, 2, 72, 45
3, 482000, Note_off_c, 2, 72, 0
3, 482000, Note_on_c, 2, 75, 44
3, 482128, Note_off_c, 2, 75, 0
3, 482320, Note_on_c, 2, 74, 43
3, 482480, Note_off_c, 2, 74, 0
3, 482480, Note_on_c, 2, 77, 43
3, 482608, Note_off_c, 2, 77, 0
3, 482800, Note_on_c, 2, 70, 42
3, 482960, Note_off_c, 2, 70, 0
3, 482960, Note_on_c, 2, 74, 41
3, 483088, Note_off_c, 2, 74, 0
3, 483280, Note_on_c, 2, 72, 40
3, 483440, Note_off_c, 2, 72, 0
3, 483440, Note_on_c, 2, 75, 40
3, 483568, Note_off_c, 2, 75, 0
3, 483760, Note_on_c, 2, 67, 39
3, 483920, Note_off_c, 2, 67, 0
3, 483920, Note_on_c, 2, 70, 38
3, 484048, Note_off_c, 2, 70, 0
3, 484240, Note_on_c, 2, 69, 46
3, 484400, Note_off_c, 2, 69, 0
3, 484400, Note_on_c, 2, 72, 55
3, 484528, Note_off_c, 2, 72, 0
3, 484560, Note_on_c, 2, 74, 75
3, 484720, Note_off_c, 2, 74, 0
3, 484720, Note_on_c, 2, 75, 75
3, 484880, Note_off_c, 2, 75, 0
3, 484880, Note_on_c, 2, 77, 74
3, 485008, Note_off_c, 2, 77, 0
3, 485040, Note_on_c, 2, 75, 74
3, 485200, Note_off_c, 2, 75, 0
3, 485200, Note_on_c, 2, 77, 73
3, 485360, Note_off_c, 2, 77, 0
3, 485360, Note_on_c, 2, 79, 73
3, 485488, Note_off_c, 2, 79, 0
3, 485520, Note_on_c, 2, 72, 72
3, 485680, Note_off_c, 2, 72, 0
3, 485680, Note_on_c, 2, 74, 72
3, 485840, Note_off_c, 2, 74, 0
3, 485840, Note_on_c, 2, 75, 71
3, 485968, Note_off_c, 2, 75, 0
3, 486000, Note_on_c, 2, 74, 71
3, 486160, Note_off_c, 2, 74, 0
3, 486160, Note_on_c, 2, 75, 70
3, 486320, Note_off_c, 2, 75, 0
3, 486320, Note_on_c, 2, 77, 70
3, 486448, Note_off_c, 2, 77, 0
3, 486480, Note_on_c, 2, 79, 69
3, 486584, Note_off_c, 2, 79, 0
3, 486640, Note_on_c, 2, 81, 68
3, 486744, Note_off_c, 2, 81, 0
3, 486800, Note_on_c, 2, 82, 68
3, 486904, Note_off_c, 2, 82, 0
3, 486960, Note_on_c, 2, 81, 67
3, 487064, Note_off_c, 2, 81, 0
3, 487120, Note_on_c, 2, 79, 67
3, 487224, Note_off_c, 2, 79, 0
3, 487280, Note_on_c, 2, 77, 66
3, 487384, Note_off_c, 2, 77, 0
3, 487440, Note_on_c, 2, 75, 66
3, 487544, Note_off_c, 2, 75, 0
3, 487600, Note_on_c, 2, 74, 65
3, 487704, Note_off_c, 2, 74, 0
3, 487760, Note_on_c, 2, 72, 65
3, 487864, Note_off_c, 2, 72, 0
3, 487920, Note_on_c, 2, 70, 64
3, 488280, Note_off_c, 2, 70, 0
3, 488400, Note_on_c, 2, 66, 62
3, 488880, Note_off_c, 2, 66, 0
3, 488880, Note_on_c, 2, 67, 65
3, 489360, Note_off_c, 2, 67, 0
3, 489360, Note_on_c, 2, 66, 67
3, 489840, Note_off_c, 2, 66, 0
3, 489840, Note_on_c, 2, 67, 70
3, 490200, Note_off_c, 2, 67, 0
3, 492240, Note_on_c, 2, 66, 68
3, 492720, Note_off_c, 2, 66, 0
3, 492720, Note_on_c, 2, 67, 71
3, 493200, Note_off_c, 2, 67, 0
3, 493200, Note_on_c, 2, 66, 75
3, 493680, Note_off_c, 2, 66, 0
3, 493680, Note_on_c, 2, 67, 79
3, 494040, Note_off_c, 2, 67, 0
3, 524560, Note_on_c, 2, 74, 79
3, 524720, Note_off_c, 2, 74, 0
3, 524720, Note_on_c, 2, 77, 78
3, 524880, Note_off_c, 2, 77, 0
3, 524880, Note_on_c, 2, 80, 78
3, 525040, Note_off_c, 2, 80, 0
3, 525040, Note_on_c, 2, 77, 77
3, 525200, Note_off_c, 2, 77, 0
3, 525200, Note_on_c, 2, 74, 77
3, 525328, Note_off_c, 2, 74, 0
3, 525520, Note_on_c, 2, 74, 76
3, 525680, Note_off_c, 2, 74, 0
3, 525680, Note_on_c, 2, 77, 76
3, 525840, Note_off_c, 2, 77, 0
3, 525840, Note_on_c, 2, 80, 75
3, 526000, Note_off_c, 2, 80, 0
3, 526000, Note_on_c, 2, 77, 75
3, 526160, Note_off_c, 2, 77, 0
3, 526160, Note_on_c, 2, 74, 74
3, 526288, Note_off_c, 2, 74, 0
3, 528400, Note_on_c, 2, 72, 73
3, 528560, Note_off_c, 2, 72, 0
3, 528560, Note_on_c, 2, 75, 72
3, 528720, Note_off_c, 2, 75, 0
3, 528720, Note_on_c, 2, 78, 72
3, 528880, Note_off_c, 2, 78, 0
3, 528880, Note_on_c, 2, 75, 71
3, 529040, Note_off_c, 2, 75, 0
3, 529040, Note_on_c, 2, 72, 71
3, 529168, Note_off_c, 2, 72, 0
3, 529360, Note_on_c, 2, 72, 70
3, 529520, Note_off_c, 2, 72, 0
3, 529520, Note_on_c, 2, 75, 69
3, 529680, Note_off_c, 2, 75, 0
3, 529680, Note_on_c, 2, 78, 69
3, 529840, Note_off_c, 2, 78, 0
3, 529840, Note_on_c, 2, 75, 68
3, 530000, Note_off_c, 2, 75, 0
3, 530000, Note_on_c, 2, 72, 68
3, 530128, Note_off_c, 2, 72, 0
3, 532240, Note_on_c, 2, 72, 76
3, 532400, Note_off_c, 2, 72, 0
3, 532400, Note_on_c, 2, 75, 76
3, 532560, Note_off_c, 2, 75, 0
3, 532720, Note_on_c, 2, 72, 78
3, 532880, Note_off_c, 2, 72, 0
3, 532880, Note_on_c, 2, 75, 79
3, 533040, Note_off_c, 2, 75, 0
3, 533200, Note_on_c, 2, 74, 80
3, 533360, Note_off_c, 2, 74, 0
3, 533360, Note_on_c, 2, 77, 81
3, 533520, Note_off_c, 2, 77, 0
3, 533680, Note_on_c, 2, 74, 82
3, 533840, Note_off_c, 2, 74, 0
3, 533840, Note_on_c, 2, 77, 83
3, 534000, Note_off_c, 2, 77, 0
3, 534160, Note_on_c, 2, 75, 85
3, 534320, Note_off_c, 2, 75, 0
3, 534320, Note_on_c, 2, 79, 86
3, 534480, Note_off_c, 2, 79, 0
3, 534640, Note_on_c, 2, 75, 87
3, 534800, Note_off_c, 2, 75, 0
3, 534800, Note_on_c, 2, 79, 88
3, 534960, Note_off_c, 2, 79, 0
3, 535120, Note_on_c, 2, 77, 89
3, 535280, Note_off_c, 2, 77, 0
3, 535280, Note_on_c, 2, 80, 90
3, 535440, Note_off_c, 2, 80, 0
3, 535600, Note_on_c, 2, 77, 92
3, 535760, Note_off_c, 2, 77, 0
3, 535760, Note_on_c, 2, 80, 92
3, 535888, Note_off_c, 2, 80, 0
3, 558000, Note_on_c, 2, 74, 58
3, 558480, Note_off_c, 2, 74, 0
3, 558480, Note_on_c, 2, 71, 62
3, 558840, Note_off_c, 2, 71, 0
3, 558960, Note_on_c, 2, 72, 67
3, 559440, Note_off_c, 2, 72, 0
3, 559920, Note_on_c, 2, 72, 58
3, 560400, Note_off_c, 2, 72, 0
3, 560400, Note_on_c, 2, 69, 61
3, 560760, Note_off_c, 2, 69, 0
3, 560880, Note_on_c, 2, 70, 66
3, 561360, Note_off_c, 2, 70, 0
3, 561840, Note_on_c, 2, 74, 58
3, 562320, Note_off_c, 2, 74, 0
3, 562320, Note_on_c, 2, 70, 63
3, 562680, Note_off_c, 2, 70, 0
3, 564720, Note_on_c, 2, 72, 63
3, 564720, Note_on_c, 2, 69, 63
3, 565080, Note_off_c, 2, 72, 0
3, 565080, Note_off_c, 2, 69, 0
3, 587760, Control_c, 2, 64, 0
3, 590160, Note_on_c, 2, 80, 77
3, 590240, Note_off_c, 2, 80, 0
3, 590240, Note_on_c, 2, 82, 69
3, 590320, Note_off_c, 2, 82, 0
3, 590320, Note_on_c, 2, 80, 68
3, 590400, Note_off_c, 2, 80, 0
3, 590400, Note_on_c, 2, 82, 68
3, 590480, Note_off_c, 2, 82, 0
3, 590480, Note_on_c, 2, 80, 67
3, 590560, Note_off_c, 2, 80, 0
3, 590560, Note_on_c, 2, 82, 66
3, 590640, Note_off_c, 2, 82, 0
3, 590640, Note_on_c, 2, 80, 65
3, 590720, Note_off_c, 2, 80, 0
3, 590720, Note_on_c, 2, 82, 65
3, 590800, Note_off_c, 2, 82, 0
3, 590800, Note_on_c, 2, 80, 64
3, 590880, Note_off_c, 2, 80, 0
3, 590880, Note_on_c, 2, 82, 63
3, 590960, Note_off_c, 2, 82, 0
3, 590960, Note_on_c, 2, 80, 62
3, 591040, Note_off_c, 2, 80, 0
3, 591040, Note_on_c, 2, 82, 62
3, 591120, Note_off_c, 2, 82, 0
3, 591120, Note_on_c, 2, 80, 61
3, 591200, Note_off_c, 2, 80, 0
3, 591200, Note_on_c, 2, 82, 60
3, 591280, Note_off_c, 2, 82, 0
3, 591280, Note_on_c, 2, 80, 59
3, 591360, Note_off_c, 2, 80, 0
3, 591360, Note_on_c, 2, 79, 59
3, 591480, Note_off_c, 2, 79, 0
3, 591480, Note_on_c, 2, 80, 58
3, 591600, Note_off_c, 2, 80, 0
3, 592080, Note_on_c, 2, 63, 73
3, 592080, Note_on_c, 2, 81, 73
3, 592160, Note_off_c, 2, 81, 0
3, 592160, Note_on_c, 2, 82, 65
3, 592240, Note_off_c, 2, 82, 0
3, 592240, Note_on_c, 2, 81, 65
3, 592320, Note_off_c, 2, 81, 0
3, 592320, Note_on_c, 2, 82, 64
3, 592400, Note_off_c, 2, 82, 0
3, 592400, Note_on_c, 2, 81, 64
3, 592480, Note_off_c, 2, 81, 0
3, 592480, Note_on_c, 2, 82, 63
3, 592560, Note_off_c, 2, 82, 0
3, 592560, Note_on_c, 2, 81, 63
3, 592640, Note_off_c, 2, 81, 0
3, 592640, Note_on_c, 2, 82, 62
3, 592720, Note_off_c, 2, 82, 0
3, 592720, Note_on_c, 2, 81, 62
3, 592800, Note_off_c, 2, 81, 0
3, 592800, Note_on_c, 2, 82, 61
3, 592880, Note_off_c, 2, 82, 0
3, 592880, Note_on_c, 2, 81, 61
3, 592960, Note_off_c, 2, 81, 0
3, 592960, Note_on_c, 2, 82, 60
3, 593040, Note_off_c, 2, 82, 0
3, 593040, Note_on_c, 2, 81, 59
3, 593120, Note_off_c, 2, 81, 0
3, 593120, Note_on_c, 2, 82, 59
3, 593200, Note_off_c, 2, 82, 0
3, 593200, Note_on_c, 2, 81, 58
3, 593280, Note_off_c, 2, 81, 0
3, 593280, Note_on_c, 2, 79, 58
3, 593400, Note_off_c, 2, 79, 0
3, 593400, Note_on_c, 2, 81, 57
3, 593520, Note_off_c, 2, 63, 0
3, 593520, Note_off_c, 2, 81, 0
3, 594000, Note_on_c, 2, 65, 73
3, 594000, Note_on_c, 2, 68, 73
3, 594080, Note_off_c, 2, 68, 0
3, 594080, Note_on_c, 2, 70, 65
3, 594160, Note_off_c, 2, 70, 0
3, 594160, Note_on_c, 2, 68, 65
3, 594240, Note_off_c, 2, 68, 0
3, 594240, Note_on_c, 2, 70, 64
3, 594320, Note_off_c, 2, 70, 0
3, 594320, Note_on_c, 2, 68, 63
3, 594400, Note_off_c, 2, 68, 0
3, 594400, Note_on_c, 2, 70, 63
3, 594480, Note_off_c, 2, 70, 0
3, 594480, Note_on_c, 2, 68, 62
3, 594560, Note_off_c, 2, 68, 0
3, 594560, Note_on_c, 2, 70, 61
3, 594640, Note_off_c, 2, 70, 0
3, 594640, Note_on_c, 2, 68, 61
3, 594720, Note_off_c, 2, 68, 0
3, 594720, Note_on_c, 2, 70, 60
3, 594800, Note_off_c, 2, 70, 0
3, 594800, Note_on_c, 2, 68, 59
3, 594880, Note_off_c, 2, 68, 0
3, 594880, Note_on_c, 2, 70, 59
3, 594960, Note_off_c, 2, 70, 0
3, 594960, Note_on_c, 2, 68, 58
3, 595040, Note_off_c, 2, 68, 0
3, 595040, Note_on_c, 2, 70, 57
3, 595120, Note_off_c, 2, 70, 0
3, 595120, Note_on_c, 2, 68, 57
3, 595200, Note_off_c, 2, 68, 0
3, 595200, Note_on_c, 2, 67, 56
3, 595320, Note_off_c, 2, 67, 0
3, 595320, Note_on_c, 2, 68, 55
3, 595440, Note_off_c, 2, 65, 0
3, 595440, Note_off_c, 2, 68, 0
3, 595920, Note_on_c, 2, 69, 69
3, 595920, Note_on_c, 2, 63, 69
3, 596000, Note_off_c, 2, 69, 0
3, 596000, Note_on_c, 2, 70, 59
3, 596080, Note_off_c, 2, 70, 0
3, 596080, Note_on_c, 2, 69, 59
3, 596160, Note_off_c, 2, 69, 0
3, 596160, Note_on_c, 2, 70, 58
3, 596240, Note_off_c, 2, 70, 0
3, 596240, Note_on_c, 2, 69, 57
3, 596320, Note_off_c, 2, 69, 0
3, 596320, Note_on_c, 2, 70, 57
3, 596400, Note_off_c, 2, 70, 0
3, 596400, Note_on_c, 2, 69, 56
3, 596480, Note_off_c, 2, 69, 0
3, 596480, Note_on_c, 2, 70, 55
3, 596560, Note_off_c, 2, 70, 0
3, 596560, Note_on_c, 2, 69, 55
3, 596640, Note_off_c, 2, 69, 0
3, 596640, Note_on_c, 2, 70, 54
3, 596720, Note_off_c, 2, 70, 0
3, 596720, Note_on_c, 2, 69, 53
3, 596800, Note_off_c, 2, 69, 0
3, 596800, Note_on_c, 2, 70, 53
3, 596880, Note_off_c, 2, 70, 0
3, 596880, Note_on_c, 2, 69, 52
3, 596960, Note_off_c, 2, 69, 0
3, 596960, Note_on_c, 2, 70, 51
3, 597040, Note_off_c, 2, 70, 0
3, 597040, Note_on_c, 2, 69, 51
3, 597120, Note_off_c, 2, 69, 0
3, 597120, Note_on_c, 2, 67, 50
3, 597240, Note_off_c, 2, 67, 0
3, 597240, Note_on_c, 2, 69, 49
3, 597360, Note_off_c, 2, 63, 0
3, 597360, Note_off_c, 2, 69, 0
3, 617200, Note_on_c, 2, 74, 48
3, 617360, Note_off_c, 2, 74, 0
3, 617360, Note_on_c, 2, 77, 47
3, 617488, Note_off_c, 2, 77, 0
3, 617680, Note_on_c, 2, 75, 46
3, 617840, Note_off_c, 2, 75, 0
3, 617840, Note_on_c, 2, 79, 46
3, 617968, Note_off_c, 2, 79, 0
3, 618160, Note_on_c, 2, 72, 45
3, 618320, Note_off_c, 2, 72, 0
3, 618320, Note_on_c, 2, 75, 44
3, 618448, Note_off_c, 2, 75, 0
3, 618640, Note_on_c, 2, 74, 43
3, 618800, Note_off_c, 2, 74, 0
3, 618800, Note_on_c, 2, 77, 43
3, 618928, Note_off_c, 2, 77, 0
3, 619120, Note_on_c, 2, 70, 42
3, 619280, Note_off_c, 2, 70, 0
3, 619280, Note_on_c, 2, 74, 41
3, 619408, Note_off_c, 2, 74, 0
3, 619600, Note_on_c, 2, 72, 40
3, 619760, Note_off_c, 2, 72, 0
3, 619760, Note_on_c, 2, 75, 40
3, 619888, Note_off_c, 2, 75, 0
3, 620080, Note_on_c, 2, 67, 39
3, 620240, Note_off_c, 2, 67, 0
3, 620240, Note_on_c, 2, 70, 38
3, 620368, Note_off_c, 2, 70, 0
3, 620560, Note_on_c, 2, 69, 46
3, 620720, Note_off_c, 2, 69, 0
3, 620720, Note_on_c, 2, 72, 55
3, 620848, Note_off_c, 2, 72, 0
3, 620880, Note_on_c, 2, 74, 75
3, 621040, Note_off_c, 2, 74, 0
3, 621040, Note_on_c, 2, 75, 75
3, 621200, Note_off_c, 2, 75, 0
3, 621200, Note_on_c, 2, 77, 74
3, 621328, Note_off_c, 2, 77, 0
3, 621360, Note_on_c, 2, 75, 74
3, 621520, Note_off_c, 2, 75, 0
3, 621520, Note_on_c, 2, 77, 74
3, 621680, Note_off_c, 2, 77, 0
3, 621680, Note_on_c, 2, 79, 73
3, 621808, Note_off_c, 2, 79, 0
3, 621840, Note_on_c, 2, 72, 73
3, 622000, Note_off_c, 2, 72, 0
3, 622000, Note_on_c, 2, 74, 72
3, 622160, Note_off_c, 2, 74, 0
3, 622160, Note_on_c, 2, 75, 72
3, 622288, Note_off_c, 2, 75, 0
3, 622320, Note_on_c, 2, 74, 71
3, 622480, Note_off_c, 2, 74, 0
3, 622480, Note_on_c, 2, 75, 71
3, 622640, Note_off_c, 2, 75, 0
3, 622640, Note_on_c, 2, 77, 71
3, 622768, Note_off_c, 2, 77, 0
3, 622800, Note_on_c, 2, 79, 70
3, 622904, Note_off_c, 2, 79, 0
3, 622960, Note_on_c, 2, 81, 70
3, 623064, Note_off_c, 2, 81, 0
3, 623120, Note_on_c, 2, 82, 69
3, 623224, Note_off_c, 2, 82, 0
3, 623280, Note_on_c, 2, 81, 69
3, 623384, Note_off_c, 2, 81, 0
3, 623440, Note_on_c, 2, 79, 68
3, 623544, Note_off_c, 2, 79, 0
3, 623600, Note_on_c, 2, 77, 68
3, 623704, Note_off_c, 2, 77, 0
3, 623760, Note_on_c, 2, 75, 68
3, 623864, Note_off_c, 2, 75, 0
3, 623920, Note_on_c, 2, 74, 67
3, 624024, Note_off_c, 2, 74, 0
3, 624080, Note_on_c, 2, 72, 67
3, 624184, Note_off_c, 2, 72, 0
3, 624240, Note_on_c, 2, 70, 66
3, 624600, Note_off_c, 2, 70, 0
3, 624720, Note_on_c, 2, 66, 63
3, 625200, Note_off_c, 2, 66, 0
3, 625200, Note_on_c, 2, 67, 66
3, 625680, Note_off_c, 2, 67, 0
3, 625680, Note_on_c, 2, 66, 70
3, 626160, Note_off_c, 2, 66, 0
3, 626160, Note_on_c, 2, 67, 74
3, 626520, Note_off_c, 2, 67, 0
3, 628560, Note_on_c, 2, 66, 68
3, 629040, Note_off_c, 2, 66, 0
3, 629040, Note_on_c, 2, 67, 71
3, 629520, Note_off_c, 2, 67, 0
3, 629520, Note_on_c, 2, 66, 75
3, 630000, Note_off_c, 2, 66, 0
3, 630000, Note_on_c, 2, 67, 79
3, 630360, Note_off_c, 2, 67, 0
3, 641520, End_track
4, 0, Start_track
4, 0, Instrument_name_t, "Roland Serial MIDI Out Port A"
4, 0, Title_t, "Unnamed Track"
4, 0, Control_c, 3, 0, 0
4, 0, Control_c, 3, 32, 0
4, 0, Program_c, 3, 0
4, 0, Control_c, 3, 64, 0
4, 0, Control_c, 3, 1, 0
4, 0, Pitch_bend_c, 3, 8192
4, 0, Pitch_bend_c, 3, 8192
4, 0, Control_c, 3, 1, 0
4, 0, Control_c, 3, 64, 0
4, 0, Control_c, 3, 91, 100
4, 0, Control_c, 3, 93, 28
4, 0, Control_c, 3, 64, 0
4, 0, Control_c, 3, 1, 0
4, 0, Pitch_bend_c, 3, 8192
4, 0, Control_c, 3, 7, 112
4, 15360, Note_on_c, 3, 62, 61
4, 15360, Note_on_c, 3, 58, 61
4, 15550, Note_off_c, 3, 62, 0
4, 15550, Note_off_c, 3, 58, 0
4, 15600, Note_on_c, 3, 58, 59
4, 15600, Note_on_c, 3, 62, 59
4, 15790, Note_off_c, 3, 58, 0
4, 15790, Note_off_c, 3, 62, 0
4, 15840, Note_on_c, 3, 58, 59
4, 15840, Note_on_c, 3, 62, 59
4, 16030, Note_off_c, 3, 58, 0
4, 16030, Note_off_c, 3, 62, 0
4, 16080, Note_on_c, 3, 58, 59
4, 16080, Note_on_c, 3, 62, 59
4, 16270, Note_off_c, 3, 58, 0
4, 16270, Note_off_c, 3, 62, 0
4, 16320, Note_on_c, 3, 58, 59
4, 16320, Note_on_c, 3, 62, 59
4, 16510, Note_off_c, 3, 58, 0
4, 16510, Note_off_c, 3, 62, 0
4, 16560, Note_on_c, 3, 58, 58
4, 16560, Note_on_c, 3, 62, 58
4, 16750, Note_off_c, 3, 58, 0
4, 16750, Note_off_c, 3, 62, 0
4, 16800, Note_on_c, 3, 58, 58
4, 16800, Note_on_c, 3, 62, 58
4, 16990, Note_off_c, 3, 58, 0
4, 16990, Note_off_c, 3, 62, 0
4, 17040, Note_on_c, 3, 58, 58
4, 17040, Note_on_c, 3, 62, 58
4, 17230, Note_off_c, 3, 58, 0
4, 17230, Note_off_c, 3, 62, 0
4, 17280, Note_on_c, 3, 58, 58
4, 17280, Note_on_c, 3, 63, 58
4, 17470, Note_off_c, 3, 58, 0
4, 17470, Note_off_c, 3, 63, 0
4, 17520, Note_on_c, 3, 58, 57
4, 17520, Note_on_c, 3, 63, 57
4, 17710, Note_off_c, 3, 58, 0
4, 17710, Note_off_c, 3, 63, 0
4, 17760, Note_on_c, 3, 58, 57
4, 17760, Note_on_c, 3, 63, 57
4, 17950, Note_off_c, 3, 58, 0
4, 17950, Note_off_c, 3, 63, 0
4, 18000, Note_on_c, 3, 58, 57
4, 18000, Note_on_c, 3, 63, 57
4, 18190, Note_off_c, 3, 58, 0
4, 18190, Note_off_c, 3, 63, 0
4, 18240, Note_on_c, 3, 58, 57
4, 18240, Note_on_c, 3, 63, 57
4, 18430, Note_off_c, 3, 58, 0
4, 18430, Note_off_c, 3, 63, 0
4, 18480, Note_on_c, 3, 58, 56
4, 18480, Note_on_c, 3, 63, 56
4, 18670, Note_off_c, 3, 58, 0
4, 18670, Note_off_c, 3, 63, 0
4, 18720, Note_on_c, 3, 58, 56
4, 18720, Note_on_c, 3, 63, 56
4, 18910, Note_off_c, 3, 58, 0
4, 18910, Note_off_c, 3, 63, 0
4, 18960, Note_on_c, 3, 58, 56
4, 18960, Note_on_c, 3, 63, 56
4, 19150, Note_off_c, 3, 58, 0
4, 19150, Note_off_c, 3, 63, 0
4, 19200, Note_on_c, 3, 58, 56
4, 19200, Note_on_c, 3, 62, 56
4, 19390, Note_off_c, 3, 58, 0
4, 19390, Note_off_c, 3, 62, 0
4, 19440, Note_on_c, 3, 58, 56
4, 19440, Note_on_c, 3, 62, 56
4, 19630, Note_off_c, 3, 58, 0
4, 19630, Note_off_c, 3, 62, 0
4, 19680, Note_on_c, 3, 58, 55
4, 19680, Note_on_c, 3, 62, 55
4, 19870, Note_off_c, 3, 58, 0
4, 19870, Note_off_c, 3, 62, 0
4, 19920, Note_on_c, 3, 58, 55
4, 19920, Note_on_c, 3, 62, 55
4, 20110, Note_off_c, 3, 58, 0
4, 20110, Note_off_c, 3, 62, 0
4, 20160, Note_on_c, 3, 58, 55
4, 20160, Note_on_c, 3, 62, 55
4, 20350, Note_off_c, 3, 58, 0
4, 20350, Note_off_c, 3, 62, 0
4, 20400, Note_on_c, 3, 58, 55
4, 20400, Note_on_c, 3, 62, 55
4, 20590, Note_off_c, 3, 58, 0
4, 20590, Note_off_c, 3, 62, 0
4, 20640, Note_on_c, 3, 58, 54
4, 20640, Note_on_c, 3, 62, 54
4, 20830, Note_off_c, 3, 58, 0
4, 20830, Note_off_c, 3, 62, 0
4, 20880, Note_on_c, 3, 58, 54
4, 20880, Note_on_c, 3, 62, 54
4, 21070, Note_off_c, 3, 58, 0
4, 21070, Note_off_c, 3, 62, 0
4, 21120, Note_on_c, 3, 58, 54
4, 21120, Note_on_c, 3, 63, 54
4, 21310, Note_off_c, 3, 58, 0
4, 21310, Note_off_c, 3, 63, 0
4, 21360, Note_on_c, 3, 58, 54
4, 21360, Note_on_c, 3, 63, 54
4, 21550, Note_off_c, 3, 58, 0
4, 21550, Note_off_c, 3, 63, 0
4, 21600, Note_on_c, 3, 58, 53
4, 21600, Note_on_c, 3, 63, 53
4, 21790, Note_off_c, 3, 58, 0
4, 21790, Note_off_c, 3, 63, 0
4, 21840, Note_on_c, 3, 58, 53
4, 21840, Note_on_c, 3, 63, 53
4, 22030, Note_off_c, 3, 58, 0
4, 22030, Note_off_c, 3, 63, 0
4, 22080, Note_on_c, 3, 58, 53
4, 22080, Note_on_c, 3, 63, 53
4, 22270, Note_off_c, 3, 58, 0
4, 22270, Note_off_c, 3, 63, 0
4, 22320, Note_on_c, 3, 58, 53
4, 22320, Note_on_c, 3, 63, 53
4, 22510, Note_off_c, 3, 58, 0
4, 22510, Note_off_c, 3, 63, 0
4, 22560, Note_on_c, 3, 58, 53
4, 22560, Note_on_c, 3, 63, 53
4, 22750, Note_off_c, 3, 58, 0
4, 22750, Note_off_c, 3, 63, 0
4, 22800, Note_on_c, 3, 58, 52
4, 22800, Note_on_c, 3, 63, 52
4, 22990, Note_off_c, 3, 58, 0
4, 22990, Note_off_c, 3, 63, 0
4, 23040, Note_on_c, 3, 58, 52
4, 23040, Note_on_c, 3, 62, 52
4, 23190, Note_off_c, 3, 58, 0
4, 23190, Note_off_c, 3, 62, 0
4, 34800, Note_on_c, 3, 72, 47
4, 35040, Note_off_c, 3, 72, 0
4, 35280, Note_on_c, 3, 72, 44
4, 35520, Note_off_c, 3, 72, 0
4, 35760, Note_on_c, 3, 72, 42
4, 36000, Note_off_c, 3, 72, 0
4, 36240, Note_on_c, 3, 72, 39
4, 36480, Note_off_c, 3, 72, 0
4, 36720, Note_on_c, 3, 65, 37
4, 36960, Note_off_c, 3, 65, 0
4, 36960, Note_on_c, 3, 72, 36
4, 37200, Note_off_c, 3, 72, 0
4, 38640, Note_on_c, 3, 72, 43
4, 38880, Note_off_c, 3, 72, 0
4, 39120, Note_on_c, 3, 72, 40
4, 39360, Note_off_c, 3, 72, 0
4, 39600, Note_on_c, 3, 72, 38
4, 39840, Note_off_c, 3, 72, 0
4, 40080, Note_on_c, 3, 72, 36
4, 40320, Note_off_c, 3, 72, 0
4, 40560, Note_on_c, 3, 69, 34
4, 40800, Note_off_c, 3, 69, 0
4, 40800, Note_on_c, 3, 72, 32
4, 41040, Note_off_c, 3, 72, 0
4, 42840, Note_on_c, 3, 74, 71
4, 42960, Note_off_c, 3, 74, 0
4, 43080, Note_on_c, 3, 74, 71
4, 43200, Note_off_c, 3, 74, 0
4, 43320, Note_on_c, 3, 74, 71
4, 43440, Note_off_c, 3, 74, 0
4, 43560, Note_on_c, 3, 74, 71
4, 43680, Note_off_c, 3, 74, 0
4, 43800, Note_on_c, 3, 74, 70
4, 43920, Note_off_c, 3, 74, 0
4, 44040, Note_on_c, 3, 74, 70
4, 44160, Note_off_c, 3, 74, 0
4, 46680, Note_on_c, 3, 72, 68
4, 46800, Note_off_c, 3, 72, 0
4, 46920, Note_on_c, 3, 72, 68
4, 47040, Note_off_c, 3, 72, 0
4, 47160, Note_on_c, 3, 72, 68
4, 47280, Note_off_c, 3, 72, 0
4, 47400, Note_on_c, 3, 72, 68
4, 47520, Note_off_c, 3, 72, 0
4, 47640, Note_on_c, 3, 72, 68
4, 47760, Note_off_c, 3, 72, 0
4, 47880, Note_on_c, 3, 72, 68
4, 48000, Note_off_c, 3, 72, 0
4, 50520, Note_on_c, 3, 70, 66
4, 50640, Note_off_c, 3, 70, 0
4, 50760, Note_on_c, 3, 70, 66
4, 50880, Note_off_c, 3, 70, 0
4, 51000, Note_on_c, 3, 70, 65
4, 51120, Note_off_c, 3, 70, 0
4, 51240, Note_on_c, 3, 70, 65
4, 51360, Note_off_c, 3, 70, 0
4, 51480, Note_on_c, 3, 70, 65
4, 51600, Note_off_c, 3, 70, 0
4, 51720, Note_on_c, 3, 70, 65
4, 51840, Note_off_c, 3, 70, 0
4, 51960, Note_on_c, 3, 64, 65
4, 52080, Note_off_c, 3, 64, 0
4, 52080, Note_on_c, 3, 67, 65
4, 52200, Note_off_c, 3, 67, 0
4, 52200, Note_on_c, 3, 64, 65
4, 52320, Note_off_c, 3, 64, 0
4, 52440, Note_on_c, 3, 64, 64
4, 52560, Note_off_c, 3, 64, 0
4, 52560, Note_on_c, 3, 67, 64
4, 52680, Note_off_c, 3, 67, 0
4, 52680, Note_on_c, 3, 64, 64
4, 52800, Note_off_c, 3, 64, 0
4, 52920, Note_on_c, 3, 67, 64
4, 53040, Note_off_c, 3, 67, 0
4, 53040, Note_on_c, 3, 70, 64
4, 53160, Note_off_c, 3, 70, 0
4, 53160, Note_on_c, 3, 67, 64
4, 53280, Note_off_c, 3, 67, 0
4, 53400, Note_on_c, 3, 67, 64
4, 53520, Note_off_c, 3, 67, 0
4, 53520, Note_on_c, 3, 70, 64
4, 53640, Note_off_c, 3, 70, 0
4, 53640, Note_on_c, 3, 67, 64
4, 53760, Note_off_c, 3, 67, 0
4, 53880, Note_on_c, 3, 65, 63
4, 54000, Note_off_c, 3, 65, 0
4, 54000, Note_on_c, 3, 69, 63
4, 54120, Note_off_c, 3, 69, 0
4, 54120, Note_on_c, 3, 65, 63
4, 54240, Note_off_c, 3, 65, 0
4, 54360, Note_on_c, 3, 65, 63
4, 54480, Note_off_c, 3, 65, 0
4, 54480, Note_on_c, 3, 69, 63
4, 54600, Note_off_c, 3, 69, 0
4, 54600, Note_on_c, 3, 65, 63
4, 54720, Note_off_c, 3, 65, 0
4, 54840, Note_on_c, 3, 63, 63
4, 54960, Note_off_c, 3, 63, 0
4, 54960, Note_on_c, 3, 66, 63
4, 55080, Note_off_c, 3, 66, 0
4, 55080, Note_on_c, 3, 63, 63
4, 55200, Note_off_c, 3, 63, 0
4, 55320, Note_on_c, 3, 63, 62
4, 55440, Note_off_c, 3, 63, 0
4, 55440, Note_on_c, 3, 69, 62
4, 55560, Note_off_c, 3, 69, 0
4, 55560, Note_on_c, 3, 63, 62
4, 55680, Note_off_c, 3, 63, 0
4, 55800, Note_on_c, 3, 62, 62
4, 55920, Note_off_c, 3, 62, 0
4, 55920, Note_on_c, 3, 67, 62
4, 56040, Note_off_c, 3, 67, 0
4, 56040, Note_on_c, 3, 62, 62
4, 56160, Note_off_c, 3, 62, 0
4, 56280, Note_on_c, 3, 62, 62
4, 56400, Note_off_c, 3, 62, 0
4, 56400, Note_on_c, 3, 67, 62
4, 56520, Note_off_c, 3, 67, 0
4, 56520, Note_on_c, 3, 62, 62
4, 56640, Note_off_c, 3, 62, 0
4, 56760, Note_on_c, 3, 65, 61
4, 56880, Note_off_c, 3, 65, 0
4, 56880, Note_on_c, 3, 69, 61
4, 57000, Note_off_c, 3, 69, 0
4, 57000, Note_on_c, 3, 65, 61
4, 57120, Note_off_c, 3, 65, 0
4, 57240, Note_on_c, 3, 67, 61
4, 57360, Note_off_c, 3, 67, 0
4, 57360, Note_on_c, 3, 70, 61
4, 57480, Note_off_c, 3, 70, 0
4, 57480, Note_on_c, 3, 67, 61
4, 57600, Note_off_c, 3, 67, 0
4, 59640, Note_on_c, 3, 67, 47
4, 59760, Note_off_c, 3, 67, 0
4, 59760, Note_on_c, 3, 70, 47
4, 59880, Note_off_c, 3, 70, 0
4, 59880, Note_on_c, 3, 67, 47
4, 60000, Note_off_c, 3, 67, 0
4, 60120, Note_on_c, 3, 67, 47
4, 60240, Note_off_c, 3, 67, 0
4, 60240, Note_on_c, 3, 70, 47
4, 60360, Note_off_c, 3, 70, 0
4, 60360, Note_on_c, 3, 67, 46
4, 60480, Note_off_c, 3, 67, 0
4, 60600, Note_on_c, 3, 67, 46
4, 60720, Note_off_c, 3, 67, 0
4, 60720, Note_on_c, 3, 70, 46
4, 60840, Note_off_c, 3, 70, 0
4, 60840, Note_on_c, 3, 67, 46
4, 60960, Note_off_c, 3, 67, 0
4, 61080, Note_on_c, 3, 67, 45
4, 61200, Note_off_c, 3, 67, 0
4, 61200, Note_on_c, 3, 70, 45
4, 61320, Note_off_c, 3, 70, 0
4, 61320, Note_on_c, 3, 67, 45
4, 61440, Note_off_c, 3, 67, 0
4, 61560, Note_on_c, 3, 65, 45
4, 61680, Note_off_c, 3, 65, 0
4, 61680, Note_on_c, 3, 69, 45
4, 61800, Note_off_c, 3, 69, 0
4, 61800, Note_on_c, 3, 65, 44
4, 61920, Note_off_c, 3, 65, 0
4, 62040, Note_on_c, 3, 65, 44
4, 62160, Note_off_c, 3, 65, 0
4, 62160, Note_on_c, 3, 69, 44
4, 62280, Note_off_c, 3, 69, 0
4, 62280, Note_on_c, 3, 65, 44
4, 62400, Note_off_c, 3, 65, 0
4, 62520, Note_on_c, 3, 63, 43
4, 62640, Note_off_c, 3, 63, 0
4, 62640, Note_on_c, 3, 66, 43
4, 62760, Note_off_c, 3, 66, 0
4, 62760, Note_on_c, 3, 63, 43
4, 62880, Note_off_c, 3, 63, 0
4, 63000, Note_on_c, 3, 63, 43
4, 63120, Note_off_c, 3, 63, 0
4, 63120, Note_on_c, 3, 69, 43
4, 63240, Note_off_c, 3, 69, 0
4, 63240, Note_on_c, 3, 63, 42
4, 63360, Note_off_c, 3, 63, 0
4, 63480, Note_on_c, 3, 62, 42
4, 63600, Note_off_c, 3, 62, 0
4, 63600, Note_on_c, 3, 67, 42
4, 63720, Note_off_c, 3, 67, 0
4, 63720, Note_on_c, 3, 62, 42
4, 63840, Note_off_c, 3, 62, 0
4, 63960, Note_on_c, 3, 62, 41
4, 64080, Note_off_c, 3, 62, 0
4, 64080, Note_on_c, 3, 67, 41
4, 64200, Note_off_c, 3, 67, 0
4, 64200, Note_on_c, 3, 62, 41
4, 64320, Note_off_c, 3, 62, 0
4, 64440, Note_on_c, 3, 65, 41
4, 64560, Note_off_c, 3, 65, 0
4, 64560, Note_on_c, 3, 69, 41
4, 64680, Note_off_c, 3, 69, 0
4, 64680, Note_on_c, 3, 65, 40
4, 64800, Note_off_c, 3, 65, 0
4, 64920, Note_on_c, 3, 64, 40
4, 65040, Note_off_c, 3, 64, 0
4, 65040, Note_on_c, 3, 70, 40
4, 65160, Note_off_c, 3, 70, 0
4, 65160, Note_on_c, 3, 64, 40
4, 65280, Note_off_c, 3, 64, 0
4, 73080, Note_on_c, 3, 53, 40
4, 73200, Note_off_c, 3, 53, 0
4, 73200, Note_on_c, 3, 52, 41
4, 73320, Note_off_c, 3, 52, 0
4, 73320, Note_on_c, 3, 53, 42
4, 73440, Note_off_c, 3, 53, 0
4, 73560, Note_on_c, 3, 53, 44
4, 73680, Note_off_c, 3, 53, 0
4, 73680, Note_on_c, 3, 52, 45
4, 73800, Note_off_c, 3, 52, 0
4, 73800, Note_on_c, 3, 53, 46
4, 73920, Note_off_c, 3, 53, 0
4, 74040, Note_on_c, 3, 53, 48
4, 74160, Note_off_c, 3, 53, 0
4, 74160, Note_on_c, 3, 52, 49
4, 74280, Note_off_c, 3, 52, 0
4, 74280, Note_on_c, 3, 53, 50
4, 74400, Note_off_c, 3, 53, 0
4, 74520, Note_on_c, 3, 53, 52
4, 74640, Note_off_c, 3, 53, 0
4, 74640, Note_on_c, 3, 52, 54
4, 74760, Note_off_c, 3, 52, 0
4, 74760, Note_on_c, 3, 53, 55
4, 74880, Note_off_c, 3, 53, 0
4, 75000, Note_on_c, 3, 53, 57
4, 75120, Note_off_c, 3, 53, 0
4, 75120, Note_on_c, 3, 52, 58
4, 75240, Note_off_c, 3, 52, 0
4, 75240, Note_on_c, 3, 53, 59
4, 75360, Note_off_c, 3, 53, 0
4, 75480, Note_on_c, 3, 53, 61
4, 75600, Note_off_c, 3, 53, 0
4, 75600, Note_on_c, 3, 52, 62
4, 75720, Note_off_c, 3, 52, 0
4, 75720, Note_on_c, 3, 53, 63
4, 75840, Note_off_c, 3, 53, 0
4, 75960, Note_on_c, 3, 53, 65
4, 76080, Note_off_c, 3, 53, 0
4, 76080, Note_on_c, 3, 52, 66
4, 76200, Note_off_c, 3, 52, 0
4, 76200, Note_on_c, 3, 53, 67
4, 76320, Note_off_c, 3, 53, 0
4, 76440, Note_on_c, 3, 53, 69
4, 76560, Note_off_c, 3, 53, 0
4, 76560, Note_on_c, 3, 52, 71
4, 76680, Note_off_c, 3, 52, 0
4, 76680, Note_on_c, 3, 53, 72
4, 76800, Note_off_c, 3, 53, 0
4, 78840, Note_on_c, 3, 69, 51
4, 78960, Note_off_c, 3, 69, 0
4, 78960, Note_on_c, 3, 68, 51
4, 79080, Note_off_c, 3, 68, 0
4, 79080, Note_on_c, 3, 69, 51
4, 79200, Note_off_c, 3, 69, 0
4, 79320, Note_on_c, 3, 69, 51
4, 79440, Note_off_c, 3, 69, 0
4, 79440, Note_on_c, 3, 68, 51
4, 79560, Note_off_c, 3, 68, 0
4, 79560, Note_on_c, 3, 69, 50
4, 79680, Note_off_c, 3, 69, 0
4, 79800, Note_on_c, 3, 69, 50
4, 79920, Note_off_c, 3, 69, 0
4, 79920, Note_on_c, 3, 68, 50
4, 80040, Note_off_c, 3, 68, 0
4, 80040, Note_on_c, 3, 69, 50
4, 80160, Note_off_c, 3, 69, 0
4, 80280, Note_on_c, 3, 69, 49
4, 80400, Note_off_c, 3, 69, 0
4, 80400, Note_on_c, 3, 68, 49
4, 80520, Note_off_c, 3, 68, 0
4, 80520, Note_on_c, 3, 69, 49
4, 80640, Note_off_c, 3, 69, 0
4, 80760, Note_on_c, 3, 67, 49
4, 80880, Note_off_c, 3, 67, 0
4, 80880, Note_on_c, 3, 66, 49
4, 81000, Note_off_c, 3, 66, 0
4, 81000, Note_on_c, 3, 67, 49
4, 81120, Note_off_c, 3, 67, 0
4, 81240, Note_on_c, 3, 67, 48
4, 81360, Note_off_c, 3, 67, 0
4, 81360, Note_on_c, 3, 66, 48
4, 81480, Note_off_c, 3, 66, 0
4, 81480, Note_on_c, 3, 67, 48
4, 81600, Note_off_c, 3, 67, 0
4, 81720, Note_on_c, 3, 67, 48
4, 81840, Note_off_c, 3, 67, 0
4, 81840, Note_on_c, 3, 66, 48
4, 81960, Note_off_c, 3, 66, 0
4, 81960, Note_on_c, 3, 67, 47
4, 82080, Note_off_c, 3, 67, 0
4, 82200, Note_on_c, 3, 67, 47
4, 82320, Note_off_c, 3, 67, 0
4, 82320, Note_on_c, 3, 66, 47
4, 82440, Note_off_c, 3, 66, 0
4, 82440, Note_on_c, 3, 67, 47
4, 82560, Note_off_c, 3, 67, 0
4, 82680, Note_on_c, 3, 65, 46
4, 82800, Note_off_c, 3, 65, 0
4, 82800, Note_on_c, 3, 64, 46
4, 82920, Note_off_c, 3, 64, 0
4, 82920, Note_on_c, 3, 65, 46
4, 83040, Note_off_c, 3, 65, 0
4, 83160, Note_on_c, 3, 65, 46
4, 83280, Note_off_c, 3, 65, 0
4, 83280, Note_on_c, 3, 64, 46
4, 83400, Note_off_c, 3, 64, 0
4, 83400, Note_on_c, 3, 65, 46
4, 83520, Note_off_c, 3, 65, 0
4, 83640, Note_on_c, 3, 64, 45
4, 83760, Note_off_c, 3, 64, 0
4, 83760, Note_on_c, 3, 62, 45
4, 83880, Note_off_c, 3, 62, 0
4, 83880, Note_on_c, 3, 64, 45
4, 84000, Note_off_c, 3, 64, 0
4, 84120, Note_on_c, 3, 64, 45
4, 84240, Note_off_c, 3, 64, 0
4, 84240, Note_on_c, 3, 62, 45
4, 84360, Note_off_c, 3, 62, 0
4, 84360, Note_on_c, 3, 64, 44
4, 84480, Note_off_c, 3, 64, 0
4, 84600, Note_on_c, 3, 62, 44
4, 84720, Note_off_c, 3, 62, 0
4, 84720, Note_on_c, 3, 60, 44
4, 84840, Note_off_c, 3, 60, 0
4, 84840, Note_on_c, 3, 62, 44
4, 84960, Note_off_c, 3, 62, 0
4, 85080, Note_on_c, 3, 62, 43
4, 85200, Note_off_c, 3, 62, 0
4, 85200, Note_on_c, 3, 60, 43
4, 85320, Note_off_c, 3, 60, 0
4, 85320, Note_on_c, 3, 62, 43
4, 85440, Note_off_c, 3, 62, 0
4, 85560, Note_on_c, 3, 60, 43
4, 85680, Note_off_c, 3, 60, 0
4, 85680, Note_on_c, 3, 58, 43
4, 85800, Note_off_c, 3, 58, 0
4, 85800, Note_on_c, 3, 60, 43
4, 85920, Note_off_c, 3, 60, 0
4, 86040, Note_on_c, 3, 60, 42
4, 86160, Note_off_c, 3, 60, 0
4, 86160, Note_on_c, 3, 58, 42
4, 86280, Note_off_c, 3, 58, 0
4, 86280, Note_on_c, 3, 60, 42
4, 86400, Note_off_c, 3, 60, 0
4, 105720, Note_on_c, 3, 79, 77
4, 105840, Note_off_c, 3, 79, 0
4, 105840, Note_on_c, 3, 78, 77
4, 105960, Note_off_c, 3, 78, 0
4, 105960, Note_on_c, 3, 79, 77
4, 106080, Note_off_c, 3, 79, 0
4, 106200, Note_on_c, 3, 79, 77
4, 106320, Note_off_c, 3, 79, 0
4, 106320, Note_on_c, 3, 78, 76
4, 106440, Note_off_c, 3, 78, 0
4, 106440, Note_on_c, 3, 79, 76
4, 106560, Note_off_c, 3, 79, 0
4, 106680, Note_on_c, 3, 79, 76
4, 106800, Note_off_c, 3, 79, 0
4, 106800, Note_on_c, 3, 78, 76
4, 106920, Note_off_c, 3, 78, 0
4, 106920, Note_on_c, 3, 79, 76
4, 107040, Note_off_c, 3, 79, 0
4, 107160, Note_on_c, 3, 79, 75
4, 107280, Note_off_c, 3, 79, 0
4, 107280, Note_on_c, 3, 78, 75
4, 107400, Note_off_c, 3, 78, 0
4, 107400, Note_on_c, 3, 79, 75
4, 107520, Note_off_c, 3, 79, 0
4, 107640, Note_on_c, 3, 79, 75
4, 107760, Note_off_c, 3, 79, 0
4, 107760, Note_on_c, 3, 78, 74
4, 107880, Note_off_c, 3, 78, 0
4, 107880, Note_on_c, 3, 79, 74
4, 108000, Note_off_c, 3, 79, 0
4, 108120, Note_on_c, 3, 79, 74
4, 108240, Note_off_c, 3, 79, 0
4, 108240, Note_on_c, 3, 78, 74
4, 108360, Note_off_c, 3, 78, 0
4, 108360, Note_on_c, 3, 79, 74
4, 108480, Note_off_c, 3, 79, 0
4, 108600, Note_on_c, 3, 79, 73
4, 108720, Note_off_c, 3, 79, 0
4, 108720, Note_on_c, 3, 78, 73
4, 108840, Note_off_c, 3, 78, 0
4, 108840, Note_on_c, 3, 79, 73
4, 108960, Note_off_c, 3, 79, 0
4, 109080, Note_on_c, 3, 79, 73
4, 109200, Note_off_c, 3, 79, 0
4, 109200, Note_on_c, 3, 78, 72
4, 109320, Note_off_c, 3, 78, 0
4, 109320, Note_on_c, 3, 79, 72
4, 109440, Note_off_c, 3, 79, 0
4, 109560, Note_on_c, 3, 67, 72
4, 109680, Note_off_c, 3, 67, 0
4, 109680, Note_on_c, 3, 66, 72
4, 109800, Note_off_c, 3, 66, 0
4, 109800, Note_on_c, 3, 67, 72
4, 109920, Note_off_c, 3, 67, 0
4, 110040, Note_on_c, 3, 67, 71
4, 110160, Note_off_c, 3, 67, 0
4, 110160, Note_on_c, 3, 66, 71
4, 110280, Note_off_c, 3, 66, 0
4, 110280, Note_on_c, 3, 67, 71
4, 110400, Note_off_c, 3, 67, 0
4, 110520, Note_on_c, 3, 67, 71
4, 110640, Note_off_c, 3, 67, 0
4, 110640, Note_on_c, 3, 66, 70
4, 110760, Note_off_c, 3, 66, 0
4, 110760, Note_on_c, 3, 67, 70
4, 110880, Note_off_c, 3, 67, 0
4, 111000, Note_on_c, 3, 67, 70
4, 111120, Note_off_c, 3, 67, 0
4, 111120, Note_on_c, 3, 66, 70
4, 111240, Note_off_c, 3, 66, 0
4, 111240, Note_on_c, 3, 67, 70
4, 111360, Note_off_c, 3, 67, 0
4, 111480, Note_on_c, 3, 67, 69
4, 111600, Note_off_c, 3, 67, 0
4, 111600, Note_on_c, 3, 66, 69
4, 111720, Note_off_c, 3, 66, 0
4, 111720, Note_on_c, 3, 67, 69
4, 111840, Note_off_c, 3, 67, 0
4, 111960, Note_on_c, 3, 69, 69
4, 112080, Note_off_c, 3, 69, 0
4, 112080, Note_on_c, 3, 70, 68
4, 112200, Note_off_c, 3, 70, 0
4, 112200, Note_on_c, 3, 69, 68
4, 112320, Note_off_c, 3, 69, 0
4, 112440, Note_on_c, 3, 67, 68
4, 112560, Note_off_c, 3, 67, 0
4, 112560, Note_on_c, 3, 66, 68
4, 112680, Note_off_c, 3, 66, 0
4, 112680, Note_on_c, 3, 67, 68
4, 112800, Note_off_c, 3, 67, 0
4, 112920, Note_on_c, 3, 66, 67
4, 113040, Note_off_c, 3, 66, 0
4, 113040, Note_on_c, 3, 64, 67
4, 113160, Note_off_c, 3, 64, 0
4, 113160, Note_on_c, 3, 66, 67
4, 113280, Note_off_c, 3, 66, 0
4, 113400, Note_on_c, 3, 67, 67
4, 113520, Note_off_c, 3, 67, 0
4, 113520, Note_on_c, 3, 66, 66
4, 113640, Note_off_c, 3, 66, 0
4, 113640, Note_on_c, 3, 67, 66
4, 113760, Note_off_c, 3, 67, 0
4, 113880, Note_on_c, 3, 67, 66
4, 114000, Note_off_c, 3, 67, 0
4, 114000, Note_on_c, 3, 66, 66
4, 114120, Note_off_c, 3, 66, 0
4, 114120, Note_on_c, 3, 67, 66
4, 114240, Note_off_c, 3, 67, 0
4, 114360, Note_on_c, 3, 67, 65
4, 114480, Note_off_c, 3, 67, 0
4, 114480, Note_on_c, 3, 66, 65
4, 114600, Note_off_c, 3, 66, 0
4, 114600, Note_on_c, 3, 67, 65
4, 114720, Note_off_c, 3, 67, 0
4, 114840, Note_on_c, 3, 67, 65
4, 114960, Note_off_c, 3, 67, 0
4, 114960, Note_on_c, 3, 66, 64
4, 115080, Note_off_c, 3, 66, 0
4, 115080, Note_on_c, 3, 67, 64
4, 115200, Note_off_c, 3, 67, 0
4, 115320, Note_on_c, 3, 67, 64
4, 115440, Note_off_c, 3, 67, 0
4, 115440, Note_on_c, 3, 66, 64
4, 115560, Note_off_c, 3, 66, 0
4, 115560, Note_on_c, 3, 67, 64
4, 115680, Note_off_c, 3, 67, 0
4, 115800, Note_on_c, 3, 69, 63
4, 115920, Note_off_c, 3, 69, 0
4, 115920, Note_on_c, 3, 70, 63
4, 116040, Note_off_c, 3, 70, 0
4, 116040, Note_on_c, 3, 69, 63
4, 116160, Note_off_c, 3, 69, 0
4, 116280, Note_on_c, 3, 67, 63
4, 116400, Note_off_c, 3, 67, 0
4, 116400, Note_on_c, 3, 66, 62
4, 116520, Note_off_c, 3, 66, 0
4, 116520, Note_on_c, 3, 67, 62
4, 116640, Note_off_c, 3, 67, 0
4, 116760, Note_on_c, 3, 66, 62
4, 116880, Note_off_c, 3, 66, 0
4, 116880, Note_on_c, 3, 64, 62
4, 117000, Note_off_c, 3, 64, 0
4, 117000, Note_on_c, 3, 66, 62
4, 117120, Note_off_c, 3, 66, 0
4, 147840, Note_on_c, 3, 58, 59
4, 147840, Note_on_c, 3, 62, 59
4, 148030, Note_off_c, 3, 58, 0
4, 148030, Note_off_c, 3, 62, 0
4, 148080, Note_on_c, 3, 58, 59
4, 148080, Note_on_c, 3, 62, 59
4, 148270, Note_off_c, 3, 58, 0
4, 148270, Note_off_c, 3, 62, 0
4, 148320, Note_on_c, 3, 58, 59
4, 148320, Note_on_c, 3, 62, 59
4, 148510, Note_off_c, 3, 58, 0
4, 148510, Note_off_c, 3, 62, 0
4, 148560, Note_on_c, 3, 58, 59
4, 148560, Note_on_c, 3, 62, 59
4, 148750, Note_off_c, 3, 58, 0
4, 148750, Note_off_c, 3, 62, 0
4, 148800, Note_on_c, 3, 58, 58
4, 148800, Note_on_c, 3, 62, 58
4, 148990, Note_off_c, 3, 58, 0
4, 148990, Note_off_c, 3, 62, 0
4, 149040, Note_on_c, 3, 58, 58
4, 149040, Note_on_c, 3, 62, 58
4, 149230, Note_off_c, 3, 58, 0
4, 149230, Note_off_c, 3, 62, 0
4, 149280, Note_on_c, 3, 58, 58
4, 149280, Note_on_c, 3, 62, 58
4, 149470, Note_off_c, 3, 58, 0
4, 149470, Note_off_c, 3, 62, 0
4, 149520, Note_on_c, 3, 58, 57
4, 149520, Note_on_c, 3, 62, 57
4, 149710, Note_off_c, 3, 58, 0
4, 149710, Note_off_c, 3, 62, 0
4, 149760, Note_on_c, 3, 58, 57
4, 149760, Note_on_c, 3, 63, 57
4, 149950, Note_off_c, 3, 58, 0
4, 149950, Note_off_c, 3, 63, 0
4, 150000, Note_on_c, 3, 58, 57
4, 150000, Note_on_c, 3, 63, 57
4, 150190, Note_off_c, 3, 58, 0
4, 150190, Note_off_c, 3, 63, 0
4, 150240, Note_on_c, 3, 58, 57
4, 150240, Note_on_c, 3, 63, 57
4, 150430, Note_off_c, 3, 58, 0
4, 150430, Note_off_c, 3, 63, 0
4, 150480, Note_on_c, 3, 58, 56
4, 150480, Note_on_c, 3, 63, 56
4, 150670, Note_off_c, 3, 58, 0
4, 150670, Note_off_c, 3, 63, 0
4, 150720, Note_on_c, 3, 58, 56
4, 150720, Note_on_c, 3, 63, 56
4, 150910, Note_off_c, 3, 58, 0
4, 150910, Note_off_c, 3, 63, 0
4, 150960, Note_on_c, 3, 58, 56
4, 150960, Note_on_c, 3, 63, 56
4, 151150, Note_off_c, 3, 58, 0
4, 151150, Note_off_c, 3, 63, 0
4, 151200, Note_on_c, 3, 58, 55
4, 151200, Note_on_c, 3, 63, 55
4, 151390, Note_off_c, 3, 58, 0
4, 151390, Note_off_c, 3, 63, 0
4, 151440, Note_on_c, 3, 58, 55
4, 151440, Note_on_c, 3, 63, 55
4, 151630, Note_off_c, 3, 58, 0
4, 151630, Note_off_c, 3, 63, 0
4, 151680, Note_on_c, 3, 58, 55
4, 151680, Note_on_c, 3, 62, 55
4, 151870, Note_off_c, 3, 58, 0
4, 151870, Note_off_c, 3, 62, 0
4, 151920, Note_on_c, 3, 58, 54
4, 151920, Note_on_c, 3, 62, 54
4, 152110, Note_off_c, 3, 58, 0
4, 152110, Note_off_c, 3, 62, 0
4, 152160, Note_on_c, 3, 58, 54
4, 152160, Note_on_c, 3, 62, 54
4, 152350, Note_off_c, 3, 58, 0
4, 152350, Note_off_c, 3, 62, 0
4, 152400, Note_on_c, 3, 58, 54
4, 152400, Note_on_c, 3, 62, 54
4, 152590, Note_off_c, 3, 58, 0
4, 152590, Note_off_c, 3, 62, 0
4, 152640, Note_on_c, 3, 58, 54
4, 152640, Note_on_c, 3, 62, 54
4, 152830, Note_off_c, 3, 58, 0
4, 152830, Note_off_c, 3, 62, 0
4, 152880, Note_on_c, 3, 58, 53
4, 152880, Note_on_c, 3, 62, 53
4, 153070, Note_off_c, 3, 58, 0
4, 153070, Note_off_c, 3, 62, 0
4, 153120, Note_on_c, 3, 58, 53
4, 153120, Note_on_c, 3, 62, 53
4, 153310, Note_off_c, 3, 58, 0
4, 153310, Note_off_c, 3, 62, 0
4, 153360, Note_on_c, 3, 58, 53
4, 153360, Note_on_c, 3, 62, 53
4, 153550, Note_off_c, 3, 58, 0
4, 153550, Note_off_c, 3, 62, 0
4, 153600, Note_on_c, 3, 58, 52
4, 153600, Note_on_c, 3, 63, 52
4, 153790, Note_off_c, 3, 58, 0
4, 153790, Note_off_c, 3, 63, 0
4, 153840, Note_on_c, 3, 58, 52
4, 153840, Note_on_c, 3, 63, 52
4, 154030, Note_off_c, 3, 58, 0
4, 154030, Note_off_c, 3, 63, 0
4, 154080, Note_on_c, 3, 58, 52
4, 154080, Note_on_c, 3, 63, 52
4, 154270, Note_off_c, 3, 58, 0
4, 154270, Note_off_c, 3, 63, 0
4, 154320, Note_on_c, 3, 58, 52
4, 154320, Note_on_c, 3, 63, 52
4, 154510, Note_off_c, 3, 58, 0
4, 154510, Note_off_c, 3, 63, 0
4, 154560, Note_on_c, 3, 58, 51
4, 154560, Note_on_c, 3, 63, 51
4, 154750, Note_off_c, 3, 58, 0
4, 154750, Note_off_c, 3, 63, 0
4, 154800, Note_on_c, 3, 58, 51
4, 154800, Note_on_c, 3, 63, 51
4, 154990, Note_off_c, 3, 58, 0
4, 154990, Note_off_c, 3, 63, 0
4, 155040, Note_on_c, 3, 58, 51
4, 155040, Note_on_c, 3, 63, 51
4, 155230, Note_off_c, 3, 58, 0
4, 155230, Note_off_c, 3, 63, 0
4, 155280, Note_on_c, 3, 58, 50
4, 155280, Note_on_c, 3, 63, 50
4, 155470, Note_off_c, 3, 58, 0
4, 155470, Note_off_c, 3, 63, 0
4, 155520, Note_on_c, 3, 58, 50
4, 155520, Note_on_c, 3, 62, 50
4, 155670, Note_off_c, 3, 58, 0
4, 155670, Note_off_c, 3, 62, 0
4, 175320, Note_on_c, 3, 67, 71
4, 175440, Note_off_c, 3, 67, 0
4, 175560, Note_on_c, 3, 67, 71
4, 175680, Note_off_c, 3, 67, 0
4, 175800, Note_on_c, 3, 67, 71
4, 175920, Note_off_c, 3, 67, 0
4, 176040, Note_on_c, 3, 67, 71
4, 176160, Note_off_c, 3, 67, 0
4, 176280, Note_on_c, 3, 67, 70
4, 176400, Note_off_c, 3, 67, 0
4, 176520, Note_on_c, 3, 67, 70
4, 176640, Note_off_c, 3, 67, 0
4, 179160, Note_on_c, 3, 65, 68
4, 179280, Note_off_c, 3, 65, 0
4, 179400, Note_on_c, 3, 65, 68
4, 179520, Note_off_c, 3, 65, 0
4, 179640, Note_on_c, 3, 65, 68
4, 179760, Note_off_c, 3, 65, 0
4, 179880, Note_on_c, 3, 65, 68
4, 180000, Note_off_c, 3, 65, 0
4, 180120, Note_on_c, 3, 65, 68
4, 180240, Note_off_c, 3, 65, 0
4, 180360, Note_on_c, 3, 65, 68
4, 180480, Note_off_c, 3, 65, 0
4, 183000, Note_on_c, 3, 75, 66
4, 183120, Note_off_c, 3, 75, 0
4, 183240, Note_on_c, 3, 75, 66
4, 183360, Note_off_c, 3, 75, 0
4, 183480, Note_on_c, 3, 75, 65
4, 183600, Note_off_c, 3, 75, 0
4, 183720, Note_on_c, 3, 75, 65
4, 183840, Note_off_c, 3, 75, 0
4, 183960, Note_on_c, 3, 75, 65
4, 184080, Note_off_c, 3, 75, 0
4, 184200, Note_on_c, 3, 75, 65
4, 184320, Note_off_c, 3, 75, 0
4, 184440, Note_on_c, 3, 69, 65
4, 184560, Note_off_c, 3, 69, 0
4, 184560, Note_on_c, 3, 72, 65
4, 184680, Note_off_c, 3, 72, 0
4, 184680, Note_on_c, 3, 69, 65
4, 184800, Note_off_c, 3, 69, 0
4, 184920, Note_on_c, 3, 69, 64
4, 185040, Note_off_c, 3, 69, 0
4, 185040, Note_on_c, 3, 72, 64
4, 185160, Note_off_c, 3, 72, 0
4, 185160, Note_on_c, 3, 69, 64
4, 185280, Note_off_c, 3, 69, 0
4, 185400, Note_on_c, 3, 72, 64
4, 185520, Note_off_c, 3, 72, 0
4, 185520, Note_on_c, 3, 75, 64
4, 185640, Note_off_c, 3, 75, 0
4, 185640, Note_on_c, 3, 72, 64
4, 185760, Note_off_c, 3, 72, 0
4, 185880, Note_on_c, 3, 72, 64
4, 186000, Note_off_c, 3, 72, 0
4, 186000, Note_on_c, 3, 75, 64
4, 186120, Note_off_c, 3, 75, 0
4, 186120, Note_on_c, 3, 72, 64
4, 186240, Note_off_c, 3, 72, 0
4, 186360, Note_on_c, 3, 70, 63
4, 186480, Note_off_c, 3, 70, 0
4, 186480, Note_on_c, 3, 74, 63
4, 186600, Note_off_c, 3, 74, 0
4, 186600, Note_on_c, 3, 70, 63
4, 186720, Note_off_c, 3, 70, 0
4, 186840, Note_on_c, 3, 70, 63
4, 186960, Note_off_c, 3, 70, 0
4, 186960, Note_on_c, 3, 74, 63
4, 187080, Note_off_c, 3, 74, 0
4, 187080, Note_on_c, 3, 70, 63
4, 187200, Note_off_c, 3, 70, 0
4, 187320, Note_on_c, 3, 68, 63
4, 187440, Note_off_c, 3, 68, 0
4, 187440, Note_on_c, 3, 71, 63
4, 187560, Note_off_c, 3, 71, 0
4, 187560, Note_on_c, 3, 68, 63
4, 187680, Note_off_c, 3, 68, 0
4, 187800, Note_on_c, 3, 68, 62
4, 187920, Note_off_c, 3, 68, 0
4, 187920, Note_on_c, 3, 74, 62
4, 188040, Note_off_c, 3, 74, 0
4, 188040, Note_on_c, 3, 68, 62
4, 188160, Note_off_c, 3, 68, 0
4, 188280, Note_on_c, 3, 67, 62
4, 188400, Note_off_c, 3, 67, 0
4, 188400, Note_on_c, 3, 72, 62
4, 188520, Note_off_c, 3, 72, 0
4, 188520, Note_on_c, 3, 67, 62
4, 188640, Note_off_c, 3, 67, 0
4, 188760, Note_on_c, 3, 67, 62
4, 188880, Note_off_c, 3, 67, 0
4, 188880, Note_on_c, 3, 72, 62
4, 189000, Note_off_c, 3, 72, 0
4, 189000, Note_on_c, 3, 67, 62
4, 189120, Note_off_c, 3, 67, 0
4, 189240, Note_on_c, 3, 70, 61
4, 189360, Note_off_c, 3, 70, 0
4, 189360, Note_on_c, 3, 74, 61
4, 189480, Note_off_c, 3, 74, 0
4, 189480, Note_on_c, 3, 70, 61
4, 189600, Note_off_c, 3, 70, 0
4, 189720, Note_on_c, 3, 72, 61
4, 189840, Note_off_c, 3, 72, 0
4, 189840, Note_on_c, 3, 75, 61
4, 189960, Note_off_c, 3, 75, 0
4, 189960, Note_on_c, 3, 72, 61
4, 190080, Note_off_c, 3, 72, 0
4, 192120, Note_on_c, 3, 60, 47
4, 192240, Note_off_c, 3, 60, 0
4, 192240, Note_on_c, 3, 63, 47
4, 192360, Note_off_c, 3, 63, 0
4, 192360, Note_on_c, 3, 60, 47
4, 192480, Note_off_c, 3, 60, 0
4, 192600, Note_on_c, 3, 60, 47
4, 192720, Note_off_c, 3, 60, 0
4, 192720, Note_on_c, 3, 63, 47
4, 192840, Note_off_c, 3, 63, 0
4, 192840, Note_on_c, 3, 60, 46
4, 192960, Note_off_c, 3, 60, 0
4, 193080, Note_on_c, 3, 60, 46
4, 193200, Note_off_c, 3, 60, 0
4, 193200, Note_on_c, 3, 63, 46
4, 193320, Note_off_c, 3, 63, 0
4, 193320, Note_on_c, 3, 60, 46
4, 193440, Note_off_c, 3, 60, 0
4, 193560, Note_on_c, 3, 60, 45
4, 193680, Note_off_c, 3, 60, 0
4, 193680, Note_on_c, 3, 63, 45
4, 193800, Note_off_c, 3, 63, 0
4, 193800, Note_on_c, 3, 60, 45
4, 193920, Note_off_c, 3, 60, 0
4, 194040, Note_on_c, 3, 58, 45
4, 194160, Note_off_c, 3, 58, 0
4, 194160, Note_on_c, 3, 62, 45
4, 194280, Note_off_c, 3, 62, 0
4, 194280, Note_on_c, 3, 58, 44
4, 194400, Note_off_c, 3, 58, 0
4, 194520, Note_on_c, 3, 58, 44
4, 194640, Note_off_c, 3, 58, 0
4, 194640, Note_on_c, 3, 62, 44
4, 194760, Note_off_c, 3, 62, 0
4, 194760, Note_on_c, 3, 58, 44
4, 194880, Note_off_c, 3, 58, 0
4, 195000, Note_on_c, 3, 56, 43
4, 195120, Note_off_c, 3, 56, 0
4, 195120, Note_on_c, 3, 59, 43
4, 195240, Note_off_c, 3, 59, 0
4, 195240, Note_on_c, 3, 56, 43
4, 195360, Note_off_c, 3, 56, 0
4, 195480, Note_on_c, 3, 56, 43
4, 195600, Note_off_c, 3, 56, 0
4, 195600, Note_on_c, 3, 62, 43
4, 195720, Note_off_c, 3, 62, 0
4, 195720, Note_on_c, 3, 56, 42
4, 195840, Note_off_c, 3, 56, 0
4, 195960, Note_on_c, 3, 55, 42
4, 196080, Note_off_c, 3, 55, 0
4, 196080, Note_on_c, 3, 60, 42
4, 196200, Note_off_c, 3, 60, 0
4, 196200, Note_on_c, 3, 55, 42
4, 196320, Note_off_c, 3, 55, 0
4, 196440, Note_on_c, 3, 55, 41
4, 196560, Note_off_c, 3, 55, 0
4, 196560, Note_on_c, 3, 60, 41
4, 196680, Note_off_c, 3, 60, 0
4, 196680, Note_on_c, 3, 55, 41
4, 196800, Note_off_c, 3, 55, 0
4, 196920, Note_on_c, 3, 58, 41
4, 197040, Note_off_c, 3, 58, 0
4, 197040, Note_on_c, 3, 62, 41
4, 197160, Note_off_c, 3, 62, 0
4, 197160, Note_on_c, 3, 58, 40
4, 197280, Note_off_c, 3, 58, 0
4, 197400, Note_on_c, 3, 57, 40
4, 197520, Note_off_c, 3, 57, 0
4, 197520, Note_on_c, 3, 63, 40
4, 197640, Note_off_c, 3, 63, 0
4, 197640, Note_on_c, 3, 57, 40
4, 197760, Note_off_c, 3, 57, 0
4, 205560, Note_on_c, 3, 46, 41
4, 205680, Note_off_c, 3, 46, 0
4, 205680, Note_on_c, 3, 45, 42
4, 205800, Note_off_c, 3, 45, 0
4, 205800, Note_on_c, 3, 46, 43
4, 205920, Note_off_c, 3, 46, 0
4, 206040, Note_on_c, 3, 46, 46
4, 206160, Note_off_c, 3, 46, 0
4, 206160, Note_on_c, 3, 45, 47
4, 206280, Note_off_c, 3, 45, 0
4, 206280, Note_on_c, 3, 46, 48
4, 206400, Note_off_c, 3, 46, 0
4, 206520, Note_on_c, 3, 46, 50
4, 206640, Note_off_c, 3, 46, 0
4, 206640, Note_on_c, 3, 45, 51
4, 206760, Note_off_c, 3, 45, 0
4, 206760, Note_on_c, 3, 46, 52
4, 206880, Note_off_c, 3, 46, 0
4, 207000, Note_on_c, 3, 46, 55
4, 207120, Note_off_c, 3, 46, 0
4, 207120, Note_on_c, 3, 45, 56
4, 207240, Note_off_c, 3, 45, 0
4, 207240, Note_on_c, 3, 46, 57
4, 207360, Note_off_c, 3, 46, 0
4, 207480, Note_on_c, 3, 46, 59
4, 207600, Note_off_c, 3, 46, 0
4, 207600, Note_on_c, 3, 45, 61
4, 207720, Note_off_c, 3, 45, 0
4, 207720, Note_on_c, 3, 46, 62
4, 207840, Note_off_c, 3, 46, 0
4, 207960, Note_on_c, 3, 46, 64
4, 208080, Note_off_c, 3, 46, 0
4, 208080, Note_on_c, 3, 45, 65
4, 208200, Note_off_c, 3, 45, 0
4, 208200, Note_on_c, 3, 46, 66
4, 208320, Note_off_c, 3, 46, 0
4, 208440, Note_on_c, 3, 46, 69
4, 208560, Note_off_c, 3, 46, 0
4, 208560, Note_on_c, 3, 45, 70
4, 208680, Note_off_c, 3, 45, 0
4, 208680, Note_on_c, 3, 46, 71
4, 208800, Note_off_c, 3, 46, 0
4, 208920, Note_on_c, 3, 46, 73
4, 209040, Note_off_c, 3, 46, 0
4, 209040, Note_on_c, 3, 45, 74
4, 209160, Note_off_c, 3, 45, 0
4, 209160, Note_on_c, 3, 46, 76
4, 209280, Note_off_c, 3, 46, 0
4, 222840, Note_on_c, 3, 67, 65
4, 222960, Note_off_c, 3, 67, 0
4, 222960, Note_on_c, 3, 70, 64
4, 223080, Note_off_c, 3, 70, 0
4, 223080, Note_on_c, 3, 67, 64
4, 223200, Note_off_c, 3, 67, 0
4, 223200, Note_on_c, 3, 70, 63
4, 223320, Note_off_c, 3, 70, 0
4, 223320, Note_on_c, 3, 67, 63
4, 223440, Note_off_c, 3, 67, 0
4, 223560, Note_on_c, 3, 67, 61
4, 223680, Note_off_c, 3, 67, 0
4, 223680, Note_on_c, 3, 70, 61
4, 223800, Note_off_c, 3, 70, 0
4, 223800, Note_on_c, 3, 67, 60
4, 223920, Note_off_c, 3, 67, 0
4, 223920, Note_on_c, 3, 63, 60
4, 224040, Note_off_c, 3, 63, 0
4, 224040, Note_on_c, 3, 67, 59
4, 224136, Note_off_c, 3, 67, 0
4, 224280, Note_on_c, 3, 65, 58
4, 224400, Note_off_c, 3, 65, 0
4, 224400, Note_on_c, 3, 70, 57
4, 224520, Note_off_c, 3, 70, 0
4, 224520, Note_on_c, 3, 65, 57
4, 224640, Note_off_c, 3, 65, 0
4, 224640, Note_on_c, 3, 70, 56
4, 224760, Note_off_c, 3, 70, 0
4, 224760, Note_on_c, 3, 65, 55
4, 224880, Note_off_c, 3, 65, 0
4, 225000, Note_on_c, 3, 65, 54
4, 225120, Note_off_c, 3, 65, 0
4, 225120, Note_on_c, 3, 70, 54
4, 225240, Note_off_c, 3, 70, 0
4, 225240, Note_on_c, 3, 65, 53
4, 225360, Note_off_c, 3, 65, 0
4, 225360, Note_on_c, 3, 62, 52
4, 225480, Note_off_c, 3, 62, 0
4, 225480, Note_on_c, 3, 65, 52
4, 225576, Note_off_c, 3, 65, 0
4, 225720, Note_on_c, 3, 63, 51
4, 225840, Note_off_c, 3, 63, 0
4, 225840, Note_on_c, 3, 65, 50
4, 225960, Note_off_c, 3, 65, 0
4, 225960, Note_on_c, 3, 63, 50
4, 226080, Note_off_c, 3, 63, 0
4, 226200, Note_on_c, 3, 60, 48
4, 226320, Note_off_c, 3, 60, 0
4, 226440, Note_on_c, 3, 62, 47
4, 226560, Note_off_c, 3, 62, 0
4, 226560, Note_on_c, 3, 65, 47
4, 226680, Note_off_c, 3, 65, 0
4, 226680, Note_on_c, 3, 62, 46
4, 226800, Note_off_c, 3, 62, 0
4, 226800, Note_on_c, 3, 65, 45
4, 226920, Note_off_c, 3, 65, 0
4, 226920, Note_on_c, 3, 62, 45
4, 227016, Note_off_c, 3, 62, 0
4, 227160, Note_on_c, 3, 63, 44
4, 227280, Note_off_c, 3, 63, 0
4, 227280, Note_on_c, 3, 65, 43
4, 227400, Note_off_c, 3, 65, 0
4, 227400, Note_on_c, 3, 63, 42
4, 227520, Note_off_c, 3, 63, 0
4, 227640, Note_on_c, 3, 60, 41
4, 227760, Note_off_c, 3, 60, 0
4, 227880, Note_on_c, 3, 62, 40
4, 228000, Note_off_c, 3, 62, 0
4, 228000, Note_on_c, 3, 65, 39
4, 228120, Note_off_c, 3, 65, 0
4, 228120, Note_on_c, 3, 62, 39
4, 228240, Note_off_c, 3, 62, 0
4, 228240, Note_on_c, 3, 58, 38
4, 228360, Note_off_c, 3, 58, 0
4, 228360, Note_on_c, 3, 62, 38
4, 228456, Note_off_c, 3, 62, 0
4, 228600, Note_on_c, 3, 55, 46
4, 228720, Note_off_c, 3, 55, 0
4, 228720, Note_on_c, 3, 60, 48
4, 228840, Note_off_c, 3, 60, 0
4, 228840, Note_on_c, 3, 55, 49
4, 228960, Note_off_c, 3, 55, 0
4, 228960, Note_on_c, 3, 51, 51
4, 229080, Note_off_c, 3, 51, 0
4, 229080, Note_on_c, 3, 55, 53
4, 229200, Note_off_c, 3, 55, 0
4, 229320, Note_on_c, 3, 55, 56
4, 229440, Note_off_c, 3, 55, 0
4, 229440, Note_on_c, 3, 51, 58
4, 229560, Note_off_c, 3, 51, 0
4, 229560, Note_on_c, 3, 55, 60
4, 229680, Note_off_c, 3, 55, 0
4, 229680, Note_on_c, 3, 60, 61
4, 229800, Note_off_c, 3, 60, 0
4, 229800, Note_on_c, 3, 51, 63
4, 229896, Note_off_c, 3, 51, 0
4, 234320, Note_on_c, 3, 53, 76
4, 234400, Note_off_c, 3, 53, 0
4, 234400, Note_on_c, 3, 58, 76
4, 234480, Note_off_c, 3, 58, 0
4, 234560, Note_on_c, 3, 53, 76
4, 234640, Note_off_c, 3, 53, 0
4, 234640, Note_on_c, 3, 58, 76
4, 234720, Note_off_c, 3, 58, 0
4, 234800, Note_on_c, 3, 53, 76
4, 234880, Note_off_c, 3, 53, 0
4, 234880, Note_on_c, 3, 58, 76
4, 234944, Note_off_c, 3, 58, 0
4, 235040, Note_on_c, 3, 55, 75
4, 235120, Note_off_c, 3, 55, 0
4, 235120, Note_on_c, 3, 58, 75
4, 235200, Note_off_c, 3, 58, 0
4, 235280, Note_on_c, 3, 55, 75
4, 235360, Note_off_c, 3, 55, 0
4, 235360, Note_on_c, 3, 58, 75
4, 235440, Note_off_c, 3, 58, 0
4, 235520, Note_on_c, 3, 55, 75
4, 235600, Note_off_c, 3, 55, 0
4, 235600, Note_on_c, 3, 60, 75
4, 235664, Note_off_c, 3, 60, 0
4, 235760, Note_on_c, 3, 58, 73
4, 235840, Note_off_c, 3, 58, 0
4, 235840, Note_on_c, 3, 62, 72
4, 235920, Note_off_c, 3, 62, 0
4, 236000, Note_on_c, 3, 58, 70
4, 236080, Note_off_c, 3, 58, 0
4, 236080, Note_on_c, 3, 62, 68
4, 236160, Note_off_c, 3, 62, 0
4, 236240, Note_on_c, 3, 60, 66
4, 236320, Note_off_c, 3, 60, 0
4, 236320, Note_on_c, 3, 63, 64
4, 236384, Note_off_c, 3, 63, 0
4, 236480, Note_on_c, 3, 58, 62
4, 236560, Note_off_c, 3, 58, 0
4, 236560, Note_on_c, 3, 62, 61
4, 236640, Note_off_c, 3, 62, 0
4, 236720, Note_on_c, 3, 58, 58
4, 236800, Note_off_c, 3, 58, 0
4, 236800, Note_on_c, 3, 62, 57
4, 236880, Note_off_c, 3, 62, 0
4, 236960, Note_on_c, 3, 55, 54
4, 237040, Note_off_c, 3, 55, 0
4, 237040, Note_on_c, 3, 60, 53
4, 237104, Note_off_c, 3, 60, 0
4, 237200, Note_on_c, 3, 53, 53
4, 237280, Note_off_c, 3, 53, 0
4, 237280, Note_on_c, 3, 58, 53
4, 237360, Note_off_c, 3, 58, 0
4, 237440, Note_on_c, 3, 53, 52
4, 237520, Note_off_c, 3, 53, 0
4, 237520, Note_on_c, 3, 58, 52
4, 237600, Note_off_c, 3, 58, 0
4, 237680, Note_on_c, 3, 53, 51
4, 237760, Note_off_c, 3, 53, 0
4, 237760, Note_on_c, 3, 58, 51
4, 237824, Note_off_c, 3, 58, 0
4, 237920, Note_on_c, 3, 55, 50
4, 238000, Note_off_c, 3, 55, 0
4, 238000, Note_on_c, 3, 58, 50
4, 238080, Note_off_c, 3, 58, 0
4, 238160, Note_on_c, 3, 55, 49
4, 238240, Note_off_c, 3, 55, 0
4, 238240, Note_on_c, 3, 58, 49
4, 238320, Note_off_c, 3, 58, 0
4, 238400, Note_on_c, 3, 55, 48
4, 238480, Note_off_c, 3, 55, 0
4, 238480, Note_on_c, 3, 60, 48
4, 238544, Note_off_c, 3, 60, 0
4, 238640, Note_on_c, 3, 58, 48
4, 238720, Note_off_c, 3, 58, 0
4, 238720, Note_on_c, 3, 62, 46
4, 238800, Note_off_c, 3, 62, 0
4, 238880, Note_on_c, 3, 58, 44
4, 238960, Note_off_c, 3, 58, 0
4, 238960, Note_on_c, 3, 62, 43
4, 239040, Note_off_c, 3, 62, 0
4, 239120, Note_on_c, 3, 60, 41
4, 239200, Note_off_c, 3, 60, 0
4, 239200, Note_on_c, 3, 63, 40
4, 239264, Note_off_c, 3, 63, 0
4, 239360, Note_on_c, 3, 59, 73
4, 239440, Note_off_c, 3, 59, 0
4, 239440, Note_on_c, 3, 62, 72
4, 239520, Note_off_c, 3, 62, 0
4, 239600, Note_on_c, 3, 55, 70
4, 239680, Note_off_c, 3, 55, 0
4, 239680, Note_on_c, 3, 60, 69
4, 239760, Note_off_c, 3, 60, 0
4, 239840, Note_on_c, 3, 55, 67
4, 239920, Note_off_c, 3, 55, 0
4, 239920, Note_on_c, 3, 61, 67
4, 239984, Note_off_c, 3, 61, 0
4, 240080, Note_on_c, 3, 58, 63
4, 240160, Note_off_c, 3, 58, 0
4, 240160, Note_on_c, 3, 62, 61
4, 240240, Note_off_c, 3, 62, 0
4, 240320, Note_on_c, 3, 58, 58
4, 240400, Note_off_c, 3, 58, 0
4, 240400, Note_on_c, 3, 62, 56
4, 240480, Note_off_c, 3, 62, 0
4, 240560, Note_on_c, 3, 57, 52
4, 240640, Note_off_c, 3, 57, 0
4, 240640, Note_on_c, 3, 60, 50
4, 240704, Note_off_c, 3, 60, 0
4, 240800, Note_on_c, 3, 59, 71
4, 240880, Note_off_c, 3, 59, 0
4, 240880, Note_on_c, 3, 62, 70
4, 240960, Note_off_c, 3, 62, 0
4, 241040, Note_on_c, 3, 55, 69
4, 241120, Note_off_c, 3, 55, 0
4, 241120, Note_on_c, 3, 60, 68
4, 241200, Note_off_c, 3, 60, 0
4, 241280, Note_on_c, 3, 55, 67
4, 241360, Note_off_c, 3, 55, 0
4, 241360, Note_on_c, 3, 61, 66
4, 241424, Note_off_c, 3, 61, 0
4, 241520, Note_on_c, 3, 58, 61
4, 241600, Note_off_c, 3, 58, 0
4, 241600, Note_on_c, 3, 62, 60
4, 241680, Note_off_c, 3, 62, 0
4, 241760, Note_on_c, 3, 58, 57
4, 241840, Note_off_c, 3, 58, 0
4, 241840, Note_on_c, 3, 62, 55
4, 241920, Note_off_c, 3, 62, 0
4, 242000, Note_on_c, 3, 57, 52
4, 242080, Note_off_c, 3, 57, 0
4, 242080, Note_on_c, 3, 63, 50
4, 242144, Note_off_c, 3, 63, 0
4, 245840, Note_on_c, 3, 62, 51
4, 245920, Note_off_c, 3, 62, 0
4, 245920, Note_on_c, 3, 65, 49
4, 246000, Note_off_c, 3, 65, 0
4, 246080, Note_on_c, 3, 63, 47
4, 246160, Note_off_c, 3, 63, 0
4, 246160, Note_on_c, 3, 67, 45
4, 246240, Note_off_c, 3, 67, 0
4, 246320, Note_on_c, 3, 65, 43
4, 246400, Note_off_c, 3, 65, 0
4, 246400, Note_on_c, 3, 68, 41
4, 246464, Note_off_c, 3, 68, 0
4, 246480, Note_on_c, 3, 67, 40
4, 246672, Note_off_c, 3, 67, 0
4, 247280, Note_on_c, 3, 63, 60
4, 247360, Note_off_c, 3, 63, 0
4, 247360, Note_on_c, 3, 67, 59
4, 247440, Note_off_c, 3, 67, 0
4, 247520, Note_on_c, 3, 65, 57
4, 247600, Note_off_c, 3, 65, 0
4, 247600, Note_on_c, 3, 68, 55
4, 247680, Note_off_c, 3, 68, 0
4, 247760, Note_on_c, 3, 67, 53
4, 247840, Note_off_c, 3, 67, 0
4, 247840, Note_on_c, 3, 70, 52
4, 247904, Note_off_c, 3, 70, 0
4, 247920, Note_on_c, 3, 68, 50
4, 247920, Note_on_c, 3, 62, 50
4, 248112, Note_off_c, 3, 68, 0
4, 248112, Note_off_c, 3, 62, 0
4, 248720, Note_on_c, 3, 65, 72
4, 248800, Note_off_c, 3, 65, 0
4, 248800, Note_on_c, 3, 68, 70
4, 248880, Note_off_c, 3, 68, 0
4, 248960, Note_on_c, 3, 63, 67
4, 249040, Note_off_c, 3, 63, 0
4, 249040, Note_on_c, 3, 67, 65
4, 249120, Note_off_c, 3, 67, 0
4, 249200, Note_on_c, 3, 62, 62
4, 249280, Note_off_c, 3, 62, 0
4, 249280, Note_on_c, 3, 65, 60
4, 249360, Note_off_c, 3, 65, 0
4, 264600, Note_on_c, 3, 63, 65
4, 264720, Note_off_c, 3, 63, 0
4, 264720, Note_on_c, 3, 68, 64
4, 264840, Note_off_c, 3, 68, 0
4, 264840, Note_on_c, 3, 63, 63
4, 264960, Note_off_c, 3, 63, 0
4, 264960, Note_on_c, 3, 68, 63
4, 265080, Note_off_c, 3, 68, 0
4, 265080, Note_on_c, 3, 63, 62
4, 265200, Note_off_c, 3, 63, 0
4, 265320, Note_on_c, 3, 63, 61
4, 265440, Note_off_c, 3, 63, 0
4, 265440, Note_on_c, 3, 68, 60
4, 265560, Note_off_c, 3, 68, 0
4, 265560, Note_on_c, 3, 63, 59
4, 265680, Note_off_c, 3, 63, 0
4, 265680, Note_on_c, 3, 60, 59
4, 265800, Note_off_c, 3, 60, 0
4, 265800, Note_on_c, 3, 63, 58
4, 265896, Note_off_c, 3, 63, 0
4, 266040, Note_on_c, 3, 61, 57
4, 266160, Note_off_c, 3, 61, 0
4, 266160, Note_on_c, 3, 63, 56
4, 266280, Note_off_c, 3, 63, 0
4, 266280, Note_on_c, 3, 61, 55
4, 266400, Note_off_c, 3, 61, 0
4, 266400, Note_on_c, 3, 63, 55
4, 266520, Note_off_c, 3, 63, 0
4, 266520, Note_on_c, 3, 61, 54
4, 266640, Note_off_c, 3, 61, 0
4, 266760, Note_on_c, 3, 58, 52
4, 266880, Note_off_c, 3, 58, 0
4, 266880, Note_on_c, 3, 63, 51
4, 267000, Note_off_c, 3, 63, 0
4, 267000, Note_on_c, 3, 58, 50
4, 267120, Note_off_c, 3, 58, 0
4, 267120, Note_on_c, 3, 55, 49
4, 267240, Note_off_c, 3, 55, 0
4, 267240, Note_on_c, 3, 58, 48
4, 267336, Note_off_c, 3, 58, 0
4, 267480, Note_on_c, 3, 60, 58
4, 267600, Note_off_c, 3, 60, 0
4, 267600, Note_on_c, 3, 63, 57
4, 267720, Note_off_c, 3, 63, 0
4, 267720, Note_on_c, 3, 60, 57
4, 267840, Note_off_c, 3, 60, 0
4, 267840, Note_on_c, 3, 64, 56
4, 267960, Note_off_c, 3, 64, 0
4, 267960, Note_on_c, 3, 60, 55
4, 268080, Note_off_c, 3, 60, 0
4, 268200, Note_on_c, 3, 60, 54
4, 268320, Note_off_c, 3, 60, 0
4, 268440, Note_on_c, 3, 60, 53
4, 268560, Note_off_c, 3, 60, 0
4, 268680, Note_on_c, 3, 56, 52
4, 268776, Note_off_c, 3, 56, 0
4, 268920, Note_on_c, 3, 58, 51
4, 269040, Note_off_c, 3, 58, 0
4, 269040, Note_on_c, 3, 60, 50
4, 269160, Note_off_c, 3, 60, 0
4, 269160, Note_on_c, 3, 58, 50
4, 269280, Note_off_c, 3, 58, 0
4, 269400, Note_on_c, 3, 55, 48
4, 269520, Note_off_c, 3, 55, 0
4, 269640, Note_on_c, 3, 56, 47
4, 269760, Note_off_c, 3, 56, 0
4, 269760, Note_on_c, 3, 62, 47
4, 269880, Note_off_c, 3, 62, 0
4, 269880, Note_on_c, 3, 56, 46
4, 270000, Note_off_c, 3, 56, 0
4, 270120, Note_on_c, 3, 58, 45
4, 270216, Note_off_c, 3, 58, 0
4, 270360, Note_on_c, 3, 56, 44
4, 270480, Note_off_c, 3, 56, 0
4, 270480, Note_on_c, 3, 58, 43
4, 270600, Note_off_c, 3, 58, 0
4, 270600, Note_on_c, 3, 56, 42
4, 270720, Note_off_c, 3, 56, 0
4, 270840, Note_on_c, 3, 53, 41
4, 270960, Note_off_c, 3, 53, 0
4, 271080, Note_on_c, 3, 55, 40
4, 271200, Note_off_c, 3, 55, 0
4, 271200, Note_on_c, 3, 58, 39
4, 271320, Note_off_c, 3, 58, 0
4, 271320, Note_on_c, 3, 63, 39
4, 271440, Note_off_c, 3, 63, 0
4, 271440, Note_on_c, 3, 58, 38
4, 271560, Note_off_c, 3, 58, 0
4, 271560, Note_on_c, 3, 55, 38
4, 271656, Note_off_c, 3, 55, 0
4, 271800, Note_on_c, 3, 60, 46
4, 271920, Note_off_c, 3, 60, 0
4, 271920, Note_on_c, 3, 65, 48
4, 272040, Note_off_c, 3, 65, 0
4, 272040, Note_on_c, 3, 60, 49
4, 272160, Note_off_c, 3, 60, 0
4, 272160, Note_on_c, 3, 56, 51
4, 272280, Note_off_c, 3, 56, 0
4, 272280, Note_on_c, 3, 60, 53
4, 272400, Note_off_c, 3, 60, 0
4, 272520, Note_on_c, 3, 60, 56
4, 272640, Note_off_c, 3, 60, 0
4, 272640, Note_on_c, 3, 56, 58
4, 272760, Note_off_c, 3, 56, 0
4, 272760, Note_on_c, 3, 60, 60
4, 272880, Note_off_c, 3, 60, 0
4, 272880, Note_on_c, 3, 65, 61
4, 273000, Note_off_c, 3, 65, 0
4, 273000, Note_on_c, 3, 56, 63
4, 273096, Note_off_c, 3, 56, 0
4, 277520, Note_on_c, 3, 58, 76
4, 277600, Note_off_c, 3, 58, 0
4, 277600, Note_on_c, 3, 63, 76
4, 277680, Note_off_c, 3, 63, 0
4, 277760, Note_on_c, 3, 58, 76
4, 277840, Note_off_c, 3, 58, 0
4, 277840, Note_on_c, 3, 63, 76
4, 277920, Note_off_c, 3, 63, 0
4, 278000, Note_on_c, 3, 58, 76
4, 278080, Note_off_c, 3, 58, 0
4, 278080, Note_on_c, 3, 63, 76
4, 278144, Note_off_c, 3, 63, 0
4, 278240, Note_on_c, 3, 60, 75
4, 278320, Note_off_c, 3, 60, 0
4, 278320, Note_on_c, 3, 63, 75
4, 278400, Note_off_c, 3, 63, 0
4, 278480, Note_on_c, 3, 60, 75
4, 278560, Note_off_c, 3, 60, 0
4, 278560, Note_on_c, 3, 63, 75
4, 278640, Note_off_c, 3, 63, 0
4, 278720, Note_on_c, 3, 60, 75
4, 278800, Note_off_c, 3, 60, 0
4, 278800, Note_on_c, 3, 65, 75
4, 278864, Note_off_c, 3, 65, 0
4, 278960, Note_on_c, 3, 63, 73
4, 279040, Note_off_c, 3, 63, 0
4, 279040, Note_on_c, 3, 67, 72
4, 279120, Note_off_c, 3, 67, 0
4, 279200, Note_on_c, 3, 63, 70
4, 279280, Note_off_c, 3, 63, 0
4, 279280, Note_on_c, 3, 67, 68
4, 279360, Note_off_c, 3, 67, 0
4, 279440, Note_on_c, 3, 65, 66
4, 279520, Note_off_c, 3, 65, 0
4, 279520, Note_on_c, 3, 68, 64
4, 279584, Note_off_c, 3, 68, 0
4, 279680, Note_on_c, 3, 63, 62
4, 279760, Note_off_c, 3, 63, 0
4, 279760, Note_on_c, 3, 67, 61
4, 279840, Note_off_c, 3, 67, 0
4, 279920, Note_on_c, 3, 63, 58
4, 280000, Note_off_c, 3, 63, 0
4, 280000, Note_on_c, 3, 67, 57
4, 280080, Note_off_c, 3, 67, 0
4, 280160, Note_on_c, 3, 60, 54
4, 280240, Note_off_c, 3, 60, 0
4, 280240, Note_on_c, 3, 65, 53
4, 280304, Note_off_c, 3, 65, 0
4, 280400, Note_on_c, 3, 58, 53
4, 280480, Note_off_c, 3, 58, 0
4, 280480, Note_on_c, 3, 63, 53
4, 280560, Note_off_c, 3, 63, 0
4, 280640, Note_on_c, 3, 58, 52
4, 280720, Note_off_c, 3, 58, 0
4, 280720, Note_on_c, 3, 63, 52
4, 280800, Note_off_c, 3, 63, 0
4, 280880, Note_on_c, 3, 58, 51
4, 280960, Note_off_c, 3, 58, 0
4, 280960, Note_on_c, 3, 63, 51
4, 281024, Note_off_c, 3, 63, 0
4, 281120, Note_on_c, 3, 60, 50
4, 281200, Note_off_c, 3, 60, 0
4, 281200, Note_on_c, 3, 63, 50
4, 281280, Note_off_c, 3, 63, 0
4, 281360, Note_on_c, 3, 60, 49
4, 281440, Note_off_c, 3, 60, 0
4, 281440, Note_on_c, 3, 63, 49
4, 281520, Note_off_c, 3, 63, 0
4, 281600, Note_on_c, 3, 48, 48
4, 281680, Note_off_c, 3, 48, 0
4, 281680, Note_on_c, 3, 53, 48
4, 281744, Note_off_c, 3, 53, 0
4, 281840, Note_on_c, 3, 51, 48
4, 281920, Note_off_c, 3, 51, 0
4, 281920, Note_on_c, 3, 55, 46
4, 282000, Note_off_c, 3, 55, 0
4, 282080, Note_on_c, 3, 51, 44
4, 282160, Note_off_c, 3, 51, 0
4, 282160, Note_on_c, 3, 55, 43
4, 282240, Note_off_c, 3, 55, 0
4, 282320, Note_on_c, 3, 53, 41
4, 282400, Note_off_c, 3, 53, 0
4, 282400, Note_on_c, 3, 56, 40
4, 282464, Note_off_c, 3, 56, 0
4, 282560, Note_on_c, 3, 46, 73
4, 282640, Note_off_c, 3, 46, 0
4, 282640, Note_on_c, 3, 52, 72
4, 282720, Note_off_c, 3, 52, 0
4, 282800, Note_on_c, 3, 48, 70
4, 282880, Note_off_c, 3, 48, 0
4, 282880, Note_on_c, 3, 53, 69
4, 282960, Note_off_c, 3, 53, 0
4, 283040, Note_on_c, 3, 48, 67
4, 283120, Note_off_c, 3, 48, 0
4, 283120, Note_on_c, 3, 54, 67
4, 283184, Note_off_c, 3, 54, 0
4, 283280, Note_on_c, 3, 51, 63
4, 283360, Note_off_c, 3, 51, 0
4, 283360, Note_on_c, 3, 55, 61
4, 283440, Note_off_c, 3, 55, 0
4, 283520, Note_on_c, 3, 51, 58
4, 283600, Note_off_c, 3, 51, 0
4, 283600, Note_on_c, 3, 55, 56
4, 283680, Note_off_c, 3, 55, 0
4, 283760, Note_on_c, 3, 50, 52
4, 283840, Note_off_c, 3, 50, 0
4, 283840, Note_on_c, 3, 53, 50
4, 283904, Note_off_c, 3, 53, 0
4, 284000, Note_on_c, 3, 58, 71
4, 284080, Note_off_c, 3, 58, 0
4, 284080, Note_on_c, 3, 64, 70
4, 284160, Note_off_c, 3, 64, 0
4, 284240, Note_on_c, 3, 60, 69
4, 284320, Note_off_c, 3, 60, 0
4, 284320, Note_on_c, 3, 65, 68
4, 284400, Note_off_c, 3, 65, 0
4, 284480, Note_on_c, 3, 60, 67
4, 284560, Note_off_c, 3, 60, 0
4, 284560, Note_on_c, 3, 66, 66
4, 284624, Note_off_c, 3, 66, 0
4, 284720, Note_on_c, 3, 63, 61
4, 284800, Note_off_c, 3, 63, 0
4, 284800, Note_on_c, 3, 67, 60
4, 284880, Note_off_c, 3, 67, 0
4, 284960, Note_on_c, 3, 63, 57
4, 285040, Note_off_c, 3, 63, 0
4, 285040, Note_on_c, 3, 67, 55
4, 285120, Note_off_c, 3, 67, 0
4, 285200, Note_on_c, 3, 62, 52
4, 285280, Note_off_c, 3, 62, 0
4, 285280, Note_on_c, 3, 68, 50
4, 285344, Note_off_c, 3, 68, 0
4, 322960, Note_on_c, 3, 62, 69
4, 323120, Note_off_c, 3, 62, 0
4, 323120, Note_on_c, 3, 65, 68
4, 323280, Note_off_c, 3, 65, 0
4, 323440, Note_on_c, 3, 62, 65
4, 323600, Note_off_c, 3, 62, 0
4, 323600, Note_on_c, 3, 65, 64
4, 323760, Note_off_c, 3, 65, 0
4, 323920, Note_on_c, 3, 62, 62
4, 324080, Note_off_c, 3, 62, 0
4, 324080, Note_on_c, 3, 65, 61
4, 324240, Note_off_c, 3, 65, 0
4, 324400, Note_on_c, 3, 62, 59
4, 324560, Note_off_c, 3, 62, 0
4, 324560, Note_on_c, 3, 65, 57
4, 324720, Note_off_c, 3, 65, 0
4, 324880, Note_on_c, 3, 62, 55
4, 325040, Note_off_c, 3, 62, 0
4, 325040, Note_on_c, 3, 65, 54
4, 325200, Note_off_c, 3, 65, 0
4, 325360, Note_on_c, 3, 62, 52
4, 325520, Note_off_c, 3, 62, 0
4, 325520, Note_on_c, 3, 65, 51
4, 325680, Note_off_c, 3, 65, 0
4, 325840, Note_on_c, 3, 62, 48
4, 326000, Note_off_c, 3, 62, 0
4, 326000, Note_on_c, 3, 65, 47
4, 326160, Note_off_c, 3, 65, 0
4, 326320, Note_on_c, 3, 62, 45
4, 326480, Note_off_c, 3, 62, 0
4, 326480, Note_on_c, 3, 65, 44
4, 326640, Note_off_c, 3, 65, 0
4, 326800, Note_on_c, 3, 60, 63
4, 326960, Note_off_c, 3, 60, 0
4, 326960, Note_on_c, 3, 65, 62
4, 327120, Note_off_c, 3, 65, 0
4, 327280, Note_on_c, 3, 60, 60
4, 327440, Note_off_c, 3, 60, 0
4, 327440, Note_on_c, 3, 65, 59
4, 327600, Note_off_c, 3, 65, 0
4, 327760, Note_on_c, 3, 60, 57
4, 327920, Note_off_c, 3, 60, 0
4, 327920, Note_on_c, 3, 65, 56
4, 328080, Note_off_c, 3, 65, 0
4, 328240, Note_on_c, 3, 60, 54
4, 328400, Note_off_c, 3, 60, 0
4, 328400, Note_on_c, 3, 65, 53
4, 328560, Note_off_c, 3, 65, 0
4, 328720, Note_on_c, 3, 60, 51
4, 328880, Note_off_c, 3, 60, 0
4, 328880, Note_on_c, 3, 65, 51
4, 329040, Note_off_c, 3, 65, 0
4, 329200, Note_on_c, 3, 60, 49
4, 329360, Note_off_c, 3, 60, 0
4, 329360, Note_on_c, 3, 65, 48
4, 329520, Note_off_c, 3, 65, 0
4, 329680, Note_on_c, 3, 60, 46
4, 329840, Note_off_c, 3, 60, 0
4, 329840, Note_on_c, 3, 65, 45
4, 330000, Note_off_c, 3, 65, 0
4, 330160, Note_on_c, 3, 60, 43
4, 330320, Note_off_c, 3, 60, 0
4, 330320, Note_on_c, 3, 65, 42
4, 330480, Note_off_c, 3, 65, 0
4, 342160, Note_on_c, 3, 57, 60
4, 342320, Note_off_c, 3, 57, 0
4, 342320, Note_on_c, 3, 60, 60
4, 342480, Note_off_c, 3, 60, 0
4, 342640, Note_on_c, 3, 57, 61
4, 342800, Note_off_c, 3, 57, 0
4, 342800, Note_on_c, 3, 60, 61
4, 342960, Note_off_c, 3, 60, 0
4, 343120, Note_on_c, 3, 55, 62
4, 343280, Note_off_c, 3, 55, 0
4, 343280, Note_on_c, 3, 60, 62
4, 343440, Note_off_c, 3, 60, 0
4, 343600, Note_on_c, 3, 55, 63
4, 343760, Note_off_c, 3, 55, 0
4, 343760, Note_on_c, 3, 60, 63
4, 343888, Note_off_c, 3, 60, 0
4, 344080, Note_on_c, 3, 58, 63
4, 344240, Note_off_c, 3, 58, 0
4, 344240, Note_on_c, 3, 60, 64
4, 344400, Note_off_c, 3, 60, 0
4, 344560, Note_on_c, 3, 58, 64
4, 344720, Note_off_c, 3, 58, 0
4, 344720, Note_on_c, 3, 60, 65
4, 344880, Note_off_c, 3, 60, 0
4, 345040, Note_on_c, 3, 60, 65
4, 345200, Note_off_c, 3, 60, 0
4, 345200, Note_on_c, 3, 65, 65
4, 345360, Note_off_c, 3, 65, 0
4, 345360, Note_on_c, 3, 60, 66
4, 345520, Note_off_c, 3, 60, 0
4, 345520, Note_on_c, 3, 57, 66
4, 345680, Note_off_c, 3, 57, 0
4, 345680, Note_on_c, 3, 60, 66
4, 345808, Note_off_c, 3, 60, 0
4, 346000, Note_on_c, 3, 57, 67
4, 346160, Note_off_c, 3, 57, 0
4, 346160, Note_on_c, 3, 60, 67
4, 346320, Note_off_c, 3, 60, 0
4, 346480, Note_on_c, 3, 57, 68
4, 346640, Note_off_c, 3, 57, 0
4, 346640, Note_on_c, 3, 60, 68
4, 346800, Note_off_c, 3, 60, 0
4, 346960, Note_on_c, 3, 55, 69
4, 347120, Note_off_c, 3, 55, 0
4, 347120, Note_on_c, 3, 60, 69
4, 347280, Note_off_c, 3, 60, 0
4, 347440, Note_on_c, 3, 55, 69
4, 347600, Note_off_c, 3, 55, 0
4, 347600, Note_on_c, 3, 60, 70
4, 347728, Note_off_c, 3, 60, 0
4, 347920, Note_on_c, 3, 58, 70
4, 348080, Note_off_c, 3, 58, 0
4, 348080, Note_on_c, 3, 60, 71
4, 348240, Note_off_c, 3, 60, 0
4, 348400, Note_on_c, 3, 58, 71
4, 348560, Note_off_c, 3, 58, 0
4, 348560, Note_on_c, 3, 60, 71
4, 348720, Note_off_c, 3, 60, 0
4, 348880, Note_on_c, 3, 60, 72
4, 349040, Note_off_c, 3, 60, 0
4, 349040, Note_on_c, 3, 65, 72
4, 349200, Note_off_c, 3, 65, 0
4, 349200, Note_on_c, 3, 60, 72
4, 349360, Note_off_c, 3, 60, 0
4, 349360, Note_on_c, 3, 57, 73
4, 349520, Note_off_c, 3, 57, 0
4, 349520, Note_on_c, 3, 53, 73
4, 349648, Note_off_c, 3, 53, 0
4, 363600, Note_on_c, 3, 75, 77
4, 363680, Note_off_c, 3, 75, 0
4, 363680, Note_on_c, 3, 77, 69
4, 363760, Note_off_c, 3, 77, 0
4, 363760, Note_on_c, 3, 75, 68
4, 363840, Note_off_c, 3, 75, 0
4, 363840, Note_on_c, 3, 77, 68
4, 363920, Note_off_c, 3, 77, 0
4, 363920, Note_on_c, 3, 75, 67
4, 364000, Note_off_c, 3, 75, 0
4, 364000, Note_on_c, 3, 77, 66
4, 364080, Note_off_c, 3, 77, 0
4, 364080, Note_on_c, 3, 75, 66
4, 364160, Note_off_c, 3, 75, 0
4, 364160, Note_on_c, 3, 77, 65
4, 364240, Note_off_c, 3, 77, 0
4, 364240, Note_on_c, 3, 75, 64
4, 364320, Note_off_c, 3, 75, 0
4, 364320, Note_on_c, 3, 77, 63
4, 364400, Note_off_c, 3, 77, 0
4, 364400, Note_on_c, 3, 75, 63
4, 364480, Note_off_c, 3, 75, 0
4, 364480, Note_on_c, 3, 77, 62
4, 364560, Note_off_c, 3, 77, 0
4, 364560, Note_on_c, 3, 75, 61
4, 364640, Note_off_c, 3, 75, 0
4, 364640, Note_on_c, 3, 77, 61
4, 364720, Note_off_c, 3, 77, 0
4, 364720, Note_on_c, 3, 75, 60
4, 364800, Note_off_c, 3, 75, 0
4, 364800, Note_on_c, 3, 74, 59
4, 364920, Note_off_c, 3, 74, 0
4, 364920, Note_on_c, 3, 75, 58
4, 365040, Note_off_c, 3, 75, 0
4, 365520, Note_on_c, 3, 76, 73
4, 365600, Note_off_c, 3, 76, 0
4, 365600, Note_on_c, 3, 77, 65
4, 365680, Note_off_c, 3, 77, 0
4, 365680, Note_on_c, 3, 76, 65
4, 365760, Note_off_c, 3, 76, 0
4, 365760, Note_on_c, 3, 77, 64
4, 365840, Note_off_c, 3, 77, 0
4, 365840, Note_on_c, 3, 76, 64
4, 365920, Note_off_c, 3, 76, 0
4, 365920, Note_on_c, 3, 77, 63
4, 366000, Note_off_c, 3, 77, 0
4, 366000, Note_on_c, 3, 76, 63
4, 366080, Note_off_c, 3, 76, 0
4, 366080, Note_on_c, 3, 77, 62
4, 366160, Note_off_c, 3, 77, 0
4, 366160, Note_on_c, 3, 76, 62
4, 366240, Note_off_c, 3, 76, 0
4, 366240, Note_on_c, 3, 77, 61
4, 366320, Note_off_c, 3, 77, 0
4, 366320, Note_on_c, 3, 76, 61
4, 366400, Note_off_c, 3, 76, 0
4, 366400, Note_on_c, 3, 77, 60
4, 366480, Note_off_c, 3, 77, 0
4, 366480, Note_on_c, 3, 76, 60
4, 366560, Note_off_c, 3, 76, 0
4, 366560, Note_on_c, 3, 77, 59
4, 366640, Note_off_c, 3, 77, 0
4, 366640, Note_on_c, 3, 76, 59
4, 366720, Note_off_c, 3, 76, 0
4, 366720, Note_on_c, 3, 74, 58
4, 366840, Note_off_c, 3, 74, 0
4, 366840, Note_on_c, 3, 76, 57
4, 366960, Note_off_c, 3, 76, 0
4, 367440, Note_on_c, 3, 75, 73
4, 367520, Note_off_c, 3, 75, 0
4, 367520, Note_on_c, 3, 77, 65
4, 367600, Note_off_c, 3, 77, 0
4, 367600, Note_on_c, 3, 75, 65
4, 367680, Note_off_c, 3, 75, 0
4, 367680, Note_on_c, 3, 77, 64
4, 367760, Note_off_c, 3, 77, 0
4, 367760, Note_on_c, 3, 75, 63
4, 367840, Note_off_c, 3, 75, 0
4, 367840, Note_on_c, 3, 77, 63
4, 367920, Note_off_c, 3, 77, 0
4, 367920, Note_on_c, 3, 75, 62
4, 368000, Note_off_c, 3, 75, 0
4, 368000, Note_on_c, 3, 77, 61
4, 368080, Note_off_c, 3, 77, 0
4, 368080, Note_on_c, 3, 75, 61
4, 368160, Note_off_c, 3, 75, 0
4, 368160, Note_on_c, 3, 77, 60
4, 368240, Note_off_c, 3, 77, 0
4, 368240, Note_on_c, 3, 75, 59
4, 368320, Note_off_c, 3, 75, 0
4, 368320, Note_on_c, 3, 77, 59
4, 368400, Note_off_c, 3, 77, 0
4, 368400, Note_on_c, 3, 75, 58
4, 368480, Note_off_c, 3, 75, 0
4, 368480, Note_on_c, 3, 77, 57
4, 368560, Note_off_c, 3, 77, 0
4, 368560, Note_on_c, 3, 75, 57
4, 368640, Note_off_c, 3, 75, 0
4, 368640, Note_on_c, 3, 74, 56
4, 368760, Note_off_c, 3, 74, 0
4, 368760, Note_on_c, 3, 75, 55
4, 368880, Note_off_c, 3, 75, 0
4, 369360, Note_on_c, 3, 76, 69
4, 369440, Note_off_c, 3, 76, 0
4, 369440, Note_on_c, 3, 77, 61
4, 369520, Note_off_c, 3, 77, 0
4, 369520, Note_on_c, 3, 76, 60
4, 369600, Note_off_c, 3, 76, 0
4, 369600, Note_on_c, 3, 77, 59
4, 369680, Note_off_c, 3, 77, 0
4, 369680, Note_on_c, 3, 76, 59
4, 369760, Note_off_c, 3, 76, 0
4, 369760, Note_on_c, 3, 77, 58
4, 369840, Note_off_c, 3, 77, 0
4, 369840, Note_on_c, 3, 76, 57
4, 369920, Note_off_c, 3, 76, 0
4, 369920, Note_on_c, 3, 77, 56
4, 370000, Note_off_c, 3, 77, 0
4, 370000, Note_on_c, 3, 76, 55
4, 370080, Note_off_c, 3, 76, 0
4, 370080, Note_on_c, 3, 77, 54
4, 370160, Note_off_c, 3, 77, 0
4, 370160, Note_on_c, 3, 76, 53
4, 370240, Note_off_c, 3, 76, 0
4, 370240, Note_on_c, 3, 77, 53
4, 370320, Note_off_c, 3, 77, 0
4, 370320, Note_on_c, 3, 76, 52
4, 370400, Note_off_c, 3, 76, 0
4, 370400, Note_on_c, 3, 77, 51
4, 370480, Note_off_c, 3, 77, 0
4, 370480, Note_on_c, 3, 76, 50
4, 370560, Note_off_c, 3, 76, 0
4, 370560, Note_on_c, 3, 74, 49
4, 370680, Note_off_c, 3, 74, 0
4, 370680, Note_on_c, 3, 76, 48
4, 370800, Note_off_c, 3, 76, 0
4, 372240, Control_c, 3, 64, 0
4, 393840, Control_c, 3, 64, 0
4, 401760, Note_on_c, 3, 67, 69
4, 402000, Note_off_c, 3, 67, 0
4, 402240, Note_on_c, 3, 67, 64
4, 402432, Note_off_c, 3, 67, 0
4, 402720, Note_on_c, 3, 67, 66
4, 402876, Note_off_c, 3, 67, 0
4, 403200, Note_on_c, 3, 67, 67
4, 403356, Note_off_c, 3, 67, 0
4, 403680, Note_on_c, 3, 67, 73
4, 403920, Note_off_c, 3, 67, 0
4, 404160, Note_on_c, 3, 67, 69
4, 404352, Note_off_c, 3, 67, 0
4, 404640, Note_on_c, 3, 67, 71
4, 404796, Note_off_c, 3, 67, 0
4, 405120, Note_on_c, 3, 67, 72
4, 405276, Note_off_c, 3, 67, 0
4, 405600, Note_on_c, 3, 67, 78
4, 405840, Note_off_c, 3, 67, 0
4, 405840, Note_on_c, 3, 70, 74
4, 406080, Note_off_c, 3, 70, 0
4, 406080, Note_on_c, 3, 67, 74
4, 406320, Note_off_c, 3, 67, 0
4, 406560, Note_on_c, 3, 67, 76
4, 406800, Note_off_c, 3, 67, 0
4, 406800, Note_on_c, 3, 70, 76
4, 407040, Note_off_c, 3, 70, 0
4, 407040, Note_on_c, 3, 67, 77
4, 407232, Note_off_c, 3, 67, 0
4, 407280, Note_on_c, 3, 70, 85
4, 408240, Note_off_c, 3, 70, 0
4, 408240, Note_on_c, 3, 69, 56
4, 408600, Note_off_c, 3, 69, 0
4, 409200, Control_c, 3, 64, 0
4, 417120, Note_on_c, 3, 67, 69
4, 417360, Note_off_c, 3, 67, 0
4, 417600, Note_on_c, 3, 67, 64
4, 417792, Note_off_c, 3, 67, 0
4, 418080, Note_on_c, 3, 67, 66
4, 418236, Note_off_c, 3, 67, 0
4, 418560, Note_on_c, 3, 67, 67
4, 418716, Note_off_c, 3, 67, 0
4, 419040, Note_on_c, 3, 67, 73
4, 419280, Note_off_c, 3, 67, 0
4, 419520, Note_on_c, 3, 67, 69
4, 419712, Note_off_c, 3, 67, 0
4, 420000, Note_on_c, 3, 67, 71
4, 420156, Note_off_c, 3, 67, 0
4, 420480, Note_on_c, 3, 67, 72
4, 420636, Note_off_c, 3, 67, 0
4, 420960, Note_on_c, 3, 67, 78
4, 421200, Note_off_c, 3, 67, 0
4, 421200, Note_on_c, 3, 70, 74
4, 421440, Note_off_c, 3, 70, 0
4, 421440, Note_on_c, 3, 67, 74
4, 421680, Note_off_c, 3, 67, 0
4, 421920, Note_on_c, 3, 67, 76
4, 422160, Note_off_c, 3, 67, 0
4, 422160, Note_on_c, 3, 70, 76
4, 422400, Note_off_c, 3, 70, 0
4, 422400, Note_on_c, 3, 67, 77
4, 422592, Note_off_c, 3, 67, 0
4, 422640, Note_on_c, 3, 70, 85
4, 423600, Note_off_c, 3, 70, 0
4, 423600, Note_on_c, 3, 69, 56
4, 423960, Note_off_c, 3, 69, 0
4, 424560, Control_c, 3, 64, 0
4, 434640, Control_c, 3, 64, 127
4, 436080, Control_c, 3, 64, 0
4, 441840, Control_c, 3, 64, 0
4, 451920, Control_c, 3, 64, 127
4, 453360, Control_c, 3, 64, 0
4, 459120, Control_c, 3, 64, 0
4, 462960, Control_c, 3, 64, 127
4, 465360, Control_c, 3, 64, 0
4, 465840, Control_c, 3, 64, 0
4, 501600, Note_on_c, 3, 67, 45
4, 501840, Note_off_c, 3, 67, 0
4, 502080, Note_on_c, 3, 67, 47
4, 502320, Note_off_c, 3, 67, 0
4, 502560, Note_on_c, 3, 67, 49
4, 502800, Note_off_c, 3, 67, 0
4, 503040, Note_on_c, 3, 67, 51
4, 503232, Note_off_c, 3, 67, 0
4, 503520, Note_on_c, 3, 68, 52
4, 503760, Note_off_c, 3, 68, 0
4, 504000, Note_on_c, 3, 68, 48
4, 504240, Note_off_c, 3, 68, 0
4, 504480, Note_on_c, 3, 68, 43
4, 504720, Note_off_c, 3, 68, 0
4, 504960, Note_on_c, 3, 68, 39
4, 505152, Note_off_c, 3, 68, 0
4, 505440, Note_on_c, 3, 67, 41
4, 505680, Note_off_c, 3, 67, 0
4, 505920, Note_on_c, 3, 67, 43
4, 506160, Note_off_c, 3, 67, 0
4, 506400, Note_on_c, 3, 67, 46
4, 506640, Note_off_c, 3, 67, 0
4, 506880, Note_on_c, 3, 67, 49
4, 507072, Note_off_c, 3, 67, 0
4, 507360, Note_on_c, 3, 68, 48
4, 507600, Note_off_c, 3, 68, 0
4, 507840, Note_on_c, 3, 68, 45
4, 508080, Note_off_c, 3, 68, 0
4, 508320, Note_on_c, 3, 68, 42
4, 508560, Note_off_c, 3, 68, 0
4, 508800, Note_on_c, 3, 68, 38
4, 508992, Note_off_c, 3, 68, 0
4, 547440, Note_on_c, 3, 77, 79
4, 547520, Note_off_c, 3, 77, 0
4, 547520, Note_on_c, 3, 79, 73
4, 547600, Note_off_c, 3, 79, 0
4, 547600, Note_on_c, 3, 77, 72
4, 547680, Note_off_c, 3, 77, 0
4, 547680, Note_on_c, 3, 79, 71
4, 547760, Note_off_c, 3, 79, 0
4, 547760, Note_on_c, 3, 77, 70
4, 547840, Note_off_c, 3, 77, 0
4, 547840, Note_on_c, 3, 79, 69
4, 547920, Note_off_c, 3, 79, 0
4, 547920, Note_on_c, 3, 77, 68
4, 548000, Note_off_c, 3, 77, 0
4, 548000, Note_on_c, 3, 79, 67
4, 548080, Note_off_c, 3, 79, 0
4, 548080, Note_on_c, 3, 77, 66
4, 548160, Note_off_c, 3, 77, 0
4, 548160, Note_on_c, 3, 79, 65
4, 548240, Note_off_c, 3, 79, 0
4, 548240, Note_on_c, 3, 77, 64
4, 548320, Note_off_c, 3, 77, 0
4, 548320, Note_on_c, 3, 79, 63
4, 548400, Note_off_c, 3, 79, 0
4, 548400, Note_on_c, 3, 77, 64
4, 548480, Note_off_c, 3, 77, 0
4, 548480, Note_on_c, 3, 79, 64
4, 548560, Note_off_c, 3, 79, 0
4, 548560, Note_on_c, 3, 77, 65
4, 548640, Note_off_c, 3, 77, 0
4, 548640, Note_on_c, 3, 79, 66
4, 548720, Note_off_c, 3, 79, 0
4, 548720, Note_on_c, 3, 77, 66
4, 548800, Note_off_c, 3, 77, 0
4, 548800, Note_on_c, 3, 79, 67
4, 548880, Note_off_c, 3, 79, 0
4, 548880, Note_on_c, 3, 77, 67
4, 548960, Note_off_c, 3, 77, 0
4, 548960, Note_on_c, 3, 79, 68
4, 549040, Note_off_c, 3, 79, 0
4, 549040, Note_on_c, 3, 77, 69
4, 549120, Note_off_c, 3, 77, 0
4, 549120, Note_on_c, 3, 79, 69
4, 549200, Note_off_c, 3, 79, 0
4, 549200, Note_on_c, 3, 77, 70
4, 549280, Note_off_c, 3, 77, 0
4, 549280, Note_on_c, 3, 79, 70
4, 549360, Note_off_c, 3, 79, 0
4, 549360, Note_on_c, 3, 77, 71
4, 549440, Note_off_c, 3, 77, 0
4, 549440, Note_on_c, 3, 79, 70
4, 549520, Note_off_c, 3, 79, 0
4, 549520, Note_on_c, 3, 77, 69
4, 549600, Note_off_c, 3, 77, 0
4, 549600, Note_on_c, 3, 79, 68
4, 549680, Note_off_c, 3, 79, 0
4, 549680, Note_on_c, 3, 77, 67
4, 549760, Note_off_c, 3, 77, 0
4, 549760, Note_on_c, 3, 79, 67
4, 549840, Note_off_c, 3, 79, 0
4, 549840, Note_on_c, 3, 77, 66
4, 549920, Note_off_c, 3, 77, 0
4, 549920, Note_on_c, 3, 79, 65
4, 550000, Note_off_c, 3, 79, 0
4, 550000, Note_on_c, 3, 77, 64
4, 550080, Note_off_c, 3, 77, 0
4, 550080, Note_on_c, 3, 79, 63
4, 550160, Note_off_c, 3, 79, 0
4, 550160, Note_on_c, 3, 77, 62
4, 550240, Note_off_c, 3, 77, 0
4, 550240, Note_on_c, 3, 79, 61
4, 550320, Note_off_c, 3, 79, 0
4, 550320, Note_on_c, 3, 77, 56
4, 550400, Note_off_c, 3, 77, 0
4, 550400, Note_on_c, 3, 79, 57
4, 550480, Note_off_c, 3, 79, 0
4, 550480, Note_on_c, 3, 77, 58
4, 550560, Note_off_c, 3, 77, 0
4, 550560, Note_on_c, 3, 79, 58
4, 550640, Note_off_c, 3, 79, 0
4, 550640, Note_on_c, 3, 77, 59
4, 550720, Note_off_c, 3, 77, 0
4, 550720, Note_on_c, 3, 79, 60
4, 550800, Note_off_c, 3, 79, 0
4, 550800, Note_on_c, 3, 77, 61
4, 550880, Note_off_c, 3, 77, 0
4, 550880, Note_on_c, 3, 79, 62
4, 550960, Note_off_c, 3, 79, 0
4, 550960, Note_on_c, 3, 77, 63
4, 551040, Note_off_c, 3, 77, 0
4, 551040, Note_on_c, 3, 79, 64
4, 551120, Note_off_c, 3, 79, 0
4, 551120, Note_on_c, 3, 77, 65
4, 551200, Note_off_c, 3, 77, 0
4, 551200, Note_on_c, 3, 79, 66
4, 551280, Note_off_c, 3, 79, 0
4, 551280, Note_on_c, 3, 77, 67
4, 551360, Note_off_c, 3, 77, 0
4, 551360, Note_on_c, 3, 79, 66
4, 551440, Note_off_c, 3, 79, 0
4, 551440, Note_on_c, 3, 77, 66
4, 551520, Note_off_c, 3, 77, 0
4, 551520, Note_on_c, 3, 79, 65
4, 551600, Note_off_c, 3, 79, 0
4, 551600, Note_on_c, 3, 77, 64
4, 551680, Note_off_c, 3, 77, 0
4, 551680, Note_on_c, 3, 79, 63
4, 551760, Note_off_c, 3, 79, 0
4, 551760, Note_on_c, 3, 77, 63
4, 551840, Note_off_c, 3, 77, 0
4, 551840, Note_on_c, 3, 79, 62
4, 551920, Note_off_c, 3, 79, 0
4, 551920, Note_on_c, 3, 77, 61
4, 552000, Note_off_c, 3, 77, 0
4, 552000, Note_on_c, 3, 79, 60
4, 552080, Note_off_c, 3, 79, 0
4, 552080, Note_on_c, 3, 77, 60
4, 552160, Note_off_c, 3, 77, 0
4, 552160, Note_on_c, 3, 79, 59
4, 552240, Note_off_c, 3, 79, 0
4, 552240, Note_on_c, 3, 77, 58
4, 552320, Note_off_c, 3, 77, 0
4, 552320, Note_on_c, 3, 79, 57
4, 552400, Note_off_c, 3, 79, 0
4, 552400, Note_on_c, 3, 77, 58
4, 552480, Note_off_c, 3, 77, 0
4, 552480, Note_on_c, 3, 79, 59
4, 552560, Note_off_c, 3, 79, 0
4, 552560, Note_on_c, 3, 77, 60
4, 552640, Note_off_c, 3, 77, 0
4, 552640, Note_on_c, 3, 79, 61
4, 552720, Note_off_c, 3, 79, 0
4, 552720, Note_on_c, 3, 77, 62
4, 552800, Note_off_c, 3, 77, 0
4, 552800, Note_on_c, 3, 79, 63
4, 552880, Note_off_c, 3, 79, 0
4, 552880, Note_on_c, 3, 77, 64
4, 552960, Note_off_c, 3, 77, 0
4, 552960, Note_on_c, 3, 79, 65
4, 553040, Note_off_c, 3, 79, 0
4, 553040, Note_on_c, 3, 77, 67
4, 553120, Note_off_c, 3, 77, 0
4, 553120, Note_on_c, 3, 79, 68
4, 553200, Note_off_c, 3, 79, 0
4, 553200, Note_on_c, 3, 77, 69
4, 553280, Note_off_c, 3, 77, 0
4, 553280, Note_on_c, 3, 79, 69
4, 553360, Note_off_c, 3, 79, 0
4, 553360, Note_on_c, 3, 77, 69
4, 553440, Note_off_c, 3, 77, 0
4, 553440, Note_on_c, 3, 79, 69
4, 553520, Note_off_c, 3, 79, 0
4, 553520, Note_on_c, 3, 77, 68
4, 553600, Note_off_c, 3, 77, 0
4, 553600, Note_on_c, 3, 79, 68
4, 553680, Note_off_c, 3, 79, 0
4, 553680, Note_on_c, 3, 77, 68
4, 553760, Note_off_c, 3, 77, 0
4, 553760, Note_on_c, 3, 79, 67
4, 553840, Note_off_c, 3, 79, 0
4, 553840, Note_on_c, 3, 77, 67
4, 553920, Note_off_c, 3, 77, 0
4, 553920, Note_on_c, 3, 79, 67
4, 554000, Note_off_c, 3, 79, 0
4, 554000, Note_on_c, 3, 77, 66
4, 554080, Note_off_c, 3, 77, 0
4, 554080, Note_on_c, 3, 79, 66
4, 554160, Note_off_c, 3, 79, 0
4, 554160, Note_on_c, 3, 77, 66
4, 554240, Note_off_c, 3, 77, 0
4, 554240, Note_on_c, 3, 79, 65
4, 554320, Note_off_c, 3, 79, 0
4, 554320, Note_on_c, 3, 77, 65
4, 554400, Note_off_c, 3, 77, 0
4, 554400, Note_on_c, 3, 79, 65
4, 554480, Note_off_c, 3, 79, 0
4, 554480, Note_on_c, 3, 77, 64
4, 554560, Note_off_c, 3, 77, 0
4, 554560, Note_on_c, 3, 79, 64
4, 554640, Note_off_c, 3, 79, 0
4, 554640, Note_on_c, 3, 77, 64
4, 554720, Note_off_c, 3, 77, 0
4, 554720, Note_on_c, 3, 79, 64
4, 554800, Note_off_c, 3, 79, 0
4, 554800, Note_on_c, 3, 77, 63
4, 554880, Note_off_c, 3, 77, 0
4, 554880, Note_on_c, 3, 79, 63
4, 554960, Note_off_c, 3, 79, 0
4, 554960, Note_on_c, 3, 77, 63
4, 555040, Note_off_c, 3, 77, 0
4, 555040, Note_on_c, 3, 79, 62
4, 555120, Note_off_c, 3, 79, 0
4, 555120, Note_on_c, 3, 77, 62
4, 555480, Note_off_c, 3, 77, 0
4, 557040, Note_on_c, 3, 65, 64
4, 557120, Note_off_c, 3, 65, 0
4, 557120, Note_on_c, 3, 67, 57
4, 557200, Note_off_c, 3, 67, 0
4, 557200, Note_on_c, 3, 65, 57
4, 557280, Note_off_c, 3, 65, 0
4, 557280, Note_on_c, 3, 67, 56
4, 557360, Note_off_c, 3, 67, 0
4, 557360, Note_on_c, 3, 65, 56
4, 557440, Note_off_c, 3, 65, 0
4, 557440, Note_on_c, 3, 67, 55
4, 557520, Note_off_c, 3, 67, 0
4, 557520, Note_on_c, 3, 65, 55
4, 557600, Note_off_c, 3, 65, 0
4, 557600, Note_on_c, 3, 67, 54
4, 557680, Note_off_c, 3, 67, 0
4, 557680, Note_on_c, 3, 65, 54
4, 557760, Note_off_c, 3, 65, 0
4, 557760, Note_on_c, 3, 67, 53
4, 557840, Note_off_c, 3, 67, 0
4, 557840, Note_on_c, 3, 65, 53
4, 557920, Note_off_c, 3, 65, 0
4, 557920, Note_on_c, 3, 67, 52
4, 558000, Note_off_c, 3, 67, 0
4, 558000, Note_on_c, 3, 65, 50
4, 558080, Note_off_c, 3, 65, 0
4, 558080, Note_on_c, 3, 67, 50
4, 558160, Note_off_c, 3, 67, 0
4, 558160, Note_on_c, 3, 65, 51
4, 558240, Note_off_c, 3, 65, 0
4, 558240, Note_on_c, 3, 67, 52
4, 558320, Note_off_c, 3, 67, 0
4, 558320, Note_on_c, 3, 65, 53
4, 558400, Note_off_c, 3, 65, 0
4, 558400, Note_on_c, 3, 67, 54
4, 558480, Note_off_c, 3, 67, 0
4, 558480, Note_on_c, 3, 65, 55
4, 558560, Note_off_c, 3, 65, 0
4, 558560, Note_on_c, 3, 67, 56
4, 558640, Note_off_c, 3, 67, 0
4, 558640, Note_on_c, 3, 65, 57
4, 558720, Note_off_c, 3, 65, 0
4, 558720, Note_on_c, 3, 67, 58
4, 558800, Note_off_c, 3, 67, 0
4, 558800, Note_on_c, 3, 65, 59
4, 558880, Note_off_c, 3, 65, 0
4, 558880, Note_on_c, 3, 67, 60
4, 558960, Note_off_c, 3, 67, 0
4, 558960, Note_on_c, 3, 65, 59
4, 559040, Note_off_c, 3, 65, 0
4, 559040, Note_on_c, 3, 67, 59
4, 559120, Note_off_c, 3, 67, 0
4, 559120, Note_on_c, 3, 65, 58
4, 559200, Note_off_c, 3, 65, 0
4, 559200, Note_on_c, 3, 67, 57
4, 559280, Note_off_c, 3, 67, 0
4, 559280, Note_on_c, 3, 65, 57
4, 559360, Note_off_c, 3, 65, 0
4, 559360, Note_on_c, 3, 67, 56
4, 559440, Note_off_c, 3, 67, 0
4, 559440, Note_on_c, 3, 65, 56
4, 559520, Note_off_c, 3, 65, 0
4, 559520, Note_on_c, 3, 67, 55
4, 559600, Note_off_c, 3, 67, 0
4, 559600, Note_on_c, 3, 65, 54
4, 559680, Note_off_c, 3, 65, 0
4, 559680, Note_on_c, 3, 67, 54
4, 559760, Note_off_c, 3, 67, 0
4, 559760, Note_on_c, 3, 65, 53
4, 559840, Note_off_c, 3, 65, 0
4, 559840, Note_on_c, 3, 67, 52
4, 559920, Note_off_c, 3, 67, 0
4, 559920, Note_on_c, 3, 65, 52
4, 560000, Note_off_c, 3, 65, 0
4, 560000, Note_on_c, 3, 67, 52
4, 560080, Note_off_c, 3, 67, 0
4, 560080, Note_on_c, 3, 65, 53
4, 560160, Note_off_c, 3, 65, 0
4, 560160, Note_on_c, 3, 67, 54
4, 560240, Note_off_c, 3, 67, 0
4, 560240, Note_on_c, 3, 65, 55
4, 560320, Note_off_c, 3, 65, 0
4, 560320, Note_on_c, 3, 67, 56
4, 560400, Note_off_c, 3, 67, 0
4, 560400, Note_on_c, 3, 65, 56
4, 560480, Note_off_c, 3, 65, 0
4, 560480, Note_on_c, 3, 67, 57
4, 560560, Note_off_c, 3, 67, 0
4, 560560, Note_on_c, 3, 65, 58
4, 560640, Note_off_c, 3, 65, 0
4, 560640, Note_on_c, 3, 67, 59
4, 560720, Note_off_c, 3, 67, 0
4, 560720, Note_on_c, 3, 65, 60
4, 560800, Note_off_c, 3, 65, 0
4, 560800, Note_on_c, 3, 67, 61
4, 560880, Note_off_c, 3, 67, 0
4, 560880, Note_on_c, 3, 65, 61
4, 560960, Note_off_c, 3, 65, 0
4, 560960, Note_on_c, 3, 67, 60
4, 561040, Note_off_c, 3, 67, 0
4, 561040, Note_on_c, 3, 65, 60
4, 561120, Note_off_c, 3, 65, 0
4, 561120, Note_on_c, 3, 67, 59
4, 561200, Note_off_c, 3, 67, 0
4, 561200, Note_on_c, 3, 65, 58
4, 561280, Note_off_c, 3, 65, 0
4, 561280, Note_on_c, 3, 67, 57
4, 561360, Note_off_c, 3, 67, 0
4, 561360, Note_on_c, 3, 65, 57
4, 561440, Note_off_c, 3, 65, 0
4, 561440, Note_on_c, 3, 67, 56
4, 561520, Note_off_c, 3, 67, 0
4, 561520, Note_on_c, 3, 65, 55
4, 561600, Note_off_c, 3, 65, 0
4, 561600, Note_on_c, 3, 67, 54
4, 561680, Note_off_c, 3, 67, 0
4, 561680, Note_on_c, 3, 65, 54
4, 561760, Note_off_c, 3, 65, 0
4, 561760, Note_on_c, 3, 67, 53
4, 561840, Note_off_c, 3, 67, 0
4, 561840, Note_on_c, 3, 65, 50
4, 561920, Note_off_c, 3, 65, 0
4, 561920, Note_on_c, 3, 67, 51
4, 562000, Note_off_c, 3, 67, 0
4, 562000, Note_on_c, 3, 65, 51
4, 562080, Note_off_c, 3, 65, 0
4, 562080, Note_on_c, 3, 67, 52
4, 562160, Note_off_c, 3, 67, 0
4, 562160, Note_on_c, 3, 65, 53
4, 562240, Note_off_c, 3, 65, 0
4, 562240, Note_on_c, 3, 67, 54
4, 562320, Note_off_c, 3, 67, 0
4, 562320, Note_on_c, 3, 65, 55
4, 562400, Note_off_c, 3, 65, 0
4, 562400, Note_on_c, 3, 67, 56
4, 562480, Note_off_c, 3, 67, 0
4, 562480, Note_on_c, 3, 65, 57
4, 562560, Note_off_c, 3, 65, 0
4, 562560, Note_on_c, 3, 67, 58
4, 562640, Note_off_c, 3, 67, 0
4, 562640, Note_on_c, 3, 65, 59
4, 562720, Note_off_c, 3, 65, 0
4, 562720, Note_on_c, 3, 67, 60
4, 562800, Note_off_c, 3, 67, 0
4, 562800, Note_on_c, 3, 65, 63
4, 562880, Note_off_c, 3, 65, 0
4, 562880, Note_on_c, 3, 67, 63
4, 562960, Note_off_c, 3, 67, 0
4, 562960, Note_on_c, 3, 65, 63
4, 563040, Note_off_c, 3, 65, 0
4, 563040, Note_on_c, 3, 67, 62
4, 563120, Note_off_c, 3, 67, 0
4, 563120, Note_on_c, 3, 65, 62
4, 563200, Note_off_c, 3, 65, 0
4, 563200, Note_on_c, 3, 67, 61
4, 563280, Note_off_c, 3, 67, 0
4, 563280, Note_on_c, 3, 65, 61
4, 563360, Note_off_c, 3, 65, 0
4, 563360, Note_on_c, 3, 67, 60
4, 563440, Note_off_c, 3, 67, 0
4, 563440, Note_on_c, 3, 65, 60
4, 563520, Note_off_c, 3, 65, 0
4, 563520, Note_on_c, 3, 67, 60
4, 563600, Note_off_c, 3, 67, 0
4, 563600, Note_on_c, 3, 65, 59
4, 563680, Note_off_c, 3, 65, 0
4, 563680, Note_on_c, 3, 67, 59
4, 563760, Note_off_c, 3, 67, 0
4, 563760, Note_on_c, 3, 65, 58
4, 563840, Note_off_c, 3, 65, 0
4, 563840, Note_on_c, 3, 67, 58
4, 563920, Note_off_c, 3, 67, 0
4, 563920, Note_on_c, 3, 65, 58
4, 564000, Note_off_c, 3, 65, 0
4, 564000, Note_on_c, 3, 67, 57
4, 564080, Note_off_c, 3, 67, 0
4, 564080, Note_on_c, 3, 65, 57
4, 564160, Note_off_c, 3, 65, 0
4, 564160, Note_on_c, 3, 67, 56
4, 564240, Note_off_c, 3, 67, 0
4, 564240, Note_on_c, 3, 65, 56
4, 564320, Note_off_c, 3, 65, 0
4, 564320, Note_on_c, 3, 67, 55
4, 564400, Note_off_c, 3, 67, 0
4, 564400, Note_on_c, 3, 65, 55
4, 564480, Note_off_c, 3, 65, 0
4, 564480, Note_on_c, 3, 67, 55
4, 564560, Note_off_c, 3, 67, 0
4, 564560, Note_on_c, 3, 65, 54
4, 564640, Note_off_c, 3, 65, 0
4, 564640, Note_on_c, 3, 67, 54
4, 564720, Note_off_c, 3, 67, 0
4, 566800, Note_on_c, 3, 62, 60
4, 566960, Note_off_c, 3, 62, 0
4, 566960, Note_on_c, 3, 65, 60
4, 567120, Note_off_c, 3, 65, 0
4, 567280, Note_on_c, 3, 62, 61
4, 567440, Note_off_c, 3, 62, 0
4, 567440, Note_on_c, 3, 65, 61
4, 567600, Note_off_c, 3, 65, 0
4, 567760, Note_on_c, 3, 60, 62
4, 567920, Note_off_c, 3, 60, 0
4, 567920, Note_on_c, 3, 65, 62
4, 568080, Note_off_c, 3, 65, 0
4, 568240, Note_on_c, 3, 60, 62
4, 568400, Note_off_c, 3, 60, 0
4, 568400, Note_on_c, 3, 65, 63
4, 568528, Note_off_c, 3, 65, 0
4, 568720, Note_on_c, 3, 63, 63
4, 568880, Note_off_c, 3, 63, 0
4, 568880, Note_on_c, 3, 65, 64
4, 569040, Note_off_c, 3, 65, 0
4, 569200, Note_on_c, 3, 63, 64
4, 569360, Note_off_c, 3, 63, 0
4, 569360, Note_on_c, 3, 65, 64
4, 569520, Note_off_c, 3, 65, 0
4, 569680, Note_on_c, 3, 65, 65
4, 569840, Note_off_c, 3, 65, 0
4, 569840, Note_on_c, 3, 70, 65
4, 570000, Note_off_c, 3, 70, 0
4, 570000, Note_on_c, 3, 65, 66
4, 570160, Note_off_c, 3, 65, 0
4, 570160, Note_on_c, 3, 62, 66
4, 570320, Note_off_c, 3, 62, 0
4, 570320, Note_on_c, 3, 65, 66
4, 570448, Note_off_c, 3, 65, 0
4, 570640, Note_on_c, 3, 62, 67
4, 570800, Note_off_c, 3, 62, 0
4, 570800, Note_on_c, 3, 65, 67
4, 570960, Note_off_c, 3, 65, 0
4, 571120, Note_on_c, 3, 62, 68
4, 571280, Note_off_c, 3, 62, 0
4, 571280, Note_on_c, 3, 65, 68
4, 571440, Note_off_c, 3, 65, 0
4, 571600, Note_on_c, 3, 60, 68
4, 571760, Note_off_c, 3, 60, 0
4, 571760, Note_on_c, 3, 65, 69
4, 571920, Note_off_c, 3, 65, 0
4, 572080, Note_on_c, 3, 60, 69
4, 572240, Note_off_c, 3, 60, 0
4, 572240, Note_on_c, 3, 65, 70
4, 572368, Note_off_c, 3, 65, 0
4, 572560, Note_on_c, 3, 53, 70
4, 572720, Note_off_c, 3, 53, 0
4, 572720, Note_on_c, 3, 57, 71
4, 572880, Note_off_c, 3, 57, 0
4, 573040, Note_on_c, 3, 53, 71
4, 573200, Note_off_c, 3, 53, 0
4, 573200, Note_on_c, 3, 57, 71
4, 573360, Note_off_c, 3, 57, 0
4, 573520, Note_on_c, 3, 50, 72
4, 573680, Note_off_c, 3, 50, 0
4, 573680, Note_on_c, 3, 53, 72
4, 573840, Note_off_c, 3, 53, 0
4, 573840, Note_on_c, 3, 58, 73
4, 574000, Note_off_c, 3, 58, 0
4, 574000, Note_on_c, 3, 53, 73
4, 574160, Note_off_c, 3, 53, 0
4, 574160, Note_on_c, 3, 50, 73
4, 574288, Note_off_c, 3, 50, 0
4, 587760, Control_c, 3, 64, 0
4, 589920, Note_on_c, 3, 65, 71
4, 590160, Note_off_c, 3, 65, 0
4, 590400, Note_on_c, 3, 58, 72
4, 590592, Note_off_c, 3, 58, 0
4, 590880, Note_on_c, 3, 58, 68
4, 591072, Note_off_c, 3, 58, 0
4, 591360, Note_on_c, 3, 58, 63
4, 591552, Note_off_c, 3, 58, 0
4, 591840, Note_on_c, 3, 58, 59
4, 592032, Note_off_c, 3, 58, 0
4, 592320, Note_on_c, 3, 58, 68
4, 592512, Note_off_c, 3, 58, 0
4, 592800, Note_on_c, 3, 58, 65
4, 592992, Note_off_c, 3, 58, 0
4, 593280, Note_on_c, 3, 58, 63
4, 593472, Note_off_c, 3, 58, 0
4, 593760, Note_on_c, 3, 58, 60
4, 593952, Note_off_c, 3, 58, 0
4, 594240, Note_on_c, 3, 58, 68
4, 594432, Note_off_c, 3, 58, 0
4, 594720, Note_on_c, 3, 58, 64
4, 594912, Note_off_c, 3, 58, 0
4, 595200, Note_on_c, 3, 58, 60
4, 595392, Note_off_c, 3, 58, 0
4, 595680, Note_on_c, 3, 58, 56
4, 595872, Note_off_c, 3, 58, 0
4, 596160, Note_on_c, 3, 58, 63
4, 596352, Note_off_c, 3, 58, 0
4, 596640, Note_on_c, 3, 58, 58
4, 596832, Note_off_c, 3, 58, 0
4, 597120, Note_on_c, 3, 58, 53
4, 597312, Note_off_c, 3, 58, 0
4, 641520, End_track
5, 0, Start_track
5, 0, Instrument_name_t, "Roland Serial MIDI Out Port A"
5, 0, Title_t, "Unnamed Track"
5, 0, Control_c, 4, 0, 0
5, 0, Control_c, 4, 32, 0
5, 0, Program_c, 4, 0
5, 0, Control_c, 4, 10, 55
5, 0, Control_c, 4, 7, 120
5, 0, Pitch_bend_c, 4, 8192
5, 0, Control_c, 4, 1, 0
5, 0, Control_c, 4, 64, 0
5, 0, Control_c, 4, 64, 0
5, 0, Control_c, 4, 1, 0
5, 0, Pitch_bend_c, 4, 8192
5, 0, Control_c, 4, 93, 18
5, 0, Pitch_bend_c, 4, 8192
5, 0, Control_c, 4, 1, 0
5, 0, Control_c, 4, 64, 0
5, 0, Control_c, 4, 93, 28
5, 0, Control_c, 4, 91, 100
5, 1920, Note_on_c, 4, 62, 65
5, 2640, Note_off_c, 4, 62, 0
5, 2880, Note_on_c, 4, 63, 62
5, 3600, Note_off_c, 4, 63, 0
5, 3840, Note_on_c, 4, 65, 58
5, 4560, Note_off_c, 4, 65, 0
5, 9600, Note_on_c, 4, 50, 55
5, 10320, Note_off_c, 4, 50, 0
5, 10560, Note_on_c, 4, 51, 52
5, 11280, Note_off_c, 4, 51, 0
5, 11520, Note_on_c, 4, 53, 50
5, 12240, Note_off_c, 4, 53, 0
5, 13400, Note_on_c, 4, 55, 73
5, 13440, Note_on_c, 4, 60, 73
5, 14160, Note_off_c, 4, 55, 0
5, 14160, Note_off_c, 4, 60, 0
5, 14400, Note_on_c, 4, 62, 79
5, 14880, Note_off_c, 4, 62, 0
5, 14880, Note_on_c, 4, 63, 72
5, 15190, Note_off_c, 4, 63, 0
5, 28560, Note_on_c, 4, 65, 75
5, 28800, Note_off_c, 4, 65, 0
5, 28800, Note_on_c, 4, 67, 74
5, 29760, Note_off_c, 4, 67, 0
5, 30480, Note_on_c, 4, 67, 72
5, 30720, Note_off_c, 4, 67, 0
5, 51840, Note_on_c, 4, 60, 65
5, 52200, Note_off_c, 4, 60, 0
5, 52320, Note_on_c, 4, 60, 64
5, 52680, Note_off_c, 4, 60, 0
5, 52800, Note_on_c, 4, 60, 64
5, 53160, Note_off_c, 4, 60, 0
5, 53280, Note_on_c, 4, 60, 64
5, 53640, Note_off_c, 4, 60, 0
5, 53760, Note_on_c, 4, 60, 63
5, 54120, Note_off_c, 4, 60, 0
5, 54240, Note_on_c, 4, 60, 63
5, 54600, Note_off_c, 4, 60, 0
5, 54720, Note_on_c, 4, 60, 63
5, 55080, Note_off_c, 4, 60, 0
5, 55200, Note_on_c, 4, 60, 62
5, 55560, Note_off_c, 4, 60, 0
5, 55680, Note_on_c, 4, 58, 62
5, 56040, Note_off_c, 4, 58, 0
5, 56160, Note_on_c, 4, 58, 62
5, 56520, Note_off_c, 4, 58, 0
5, 56640, Note_on_c, 4, 60, 61
5, 57000, Note_off_c, 4, 60, 0
5, 57120, Note_on_c, 4, 60, 61
5, 57480, Note_off_c, 4, 60, 0
5, 59520, Note_on_c, 4, 60, 47
5, 59880, Note_off_c, 4, 60, 0
5, 60000, Note_on_c, 4, 60, 47
5, 60360, Note_off_c, 4, 60, 0
5, 60480, Note_on_c, 4, 60, 46
5, 60840, Note_off_c, 4, 60, 0
5, 60960, Note_on_c, 4, 60, 46
5, 61320, Note_off_c, 4, 60, 0
5, 61440, Note_on_c, 4, 60, 45
5, 61800, Note_off_c, 4, 60, 0
5, 61920, Note_on_c, 4, 60, 44
5, 62280, Note_off_c, 4, 60, 0
5, 62400, Note_on_c, 4, 60, 44
5, 62760, Note_off_c, 4, 60, 0
5, 62880, Note_on_c, 4, 60, 43
5, 63240, Note_off_c, 4, 60, 0
5, 63360, Note_on_c, 4, 58, 42
5, 63720, Note_off_c, 4, 58, 0
5, 63840, Note_on_c, 4, 58, 42
5, 64200, Note_off_c, 4, 58, 0
5, 64320, Note_on_c, 4, 60, 41
5, 64680, Note_off_c, 4, 60, 0
5, 64800, Note_on_c, 4, 60, 40
5, 65160, Note_off_c, 4, 60, 0
5, 65280, Note_on_c, 4, 65, 40
5, 65280, Note_on_c, 4, 69, 40
5, 65640, Note_off_c, 4, 65, 0
5, 65640, Note_off_c, 4, 69, 0
5, 69120, Note_on_c, 4, 57, 63
5, 69480, Note_off_c, 4, 57, 0
5, 78720, Note_on_c, 4, 65, 51
5, 79080, Note_off_c, 4, 65, 0
5, 79200, Note_on_c, 4, 65, 51
5, 79560, Note_off_c, 4, 65, 0
5, 79680, Note_on_c, 4, 65, 50
5, 80040, Note_off_c, 4, 65, 0
5, 80160, Note_on_c, 4, 65, 50
5, 80520, Note_off_c, 4, 65, 0
5, 80640, Note_on_c, 4, 64, 49
5, 81000, Note_off_c, 4, 64, 0
5, 81120, Note_on_c, 4, 64, 48
5, 81480, Note_off_c, 4, 64, 0
5, 81600, Note_on_c, 4, 64, 48
5, 81960, Note_off_c, 4, 64, 0
5, 82080, Note_on_c, 4, 64, 47
5, 82440, Note_off_c, 4, 64, 0
5, 82560, Note_on_c, 4, 62, 47
5, 82920, Note_off_c, 4, 62, 0
5, 83040, Note_on_c, 4, 62, 46
5, 83400, Note_off_c, 4, 62, 0
5, 83520, Note_on_c, 4, 60, 45
5, 83880, Note_off_c, 4, 60, 0
5, 84000, Note_on_c, 4, 60, 45
5, 84360, Note_off_c, 4, 60, 0
5, 84480, Note_on_c, 4, 58, 44
5, 84840, Note_off_c, 4, 58, 0
5, 84960, Note_on_c, 4, 58, 44
5, 85320, Note_off_c, 4, 58, 0
5, 85440, Note_on_c, 4, 57, 43
5, 85800, Note_off_c, 4, 57, 0
5, 85920, Note_on_c, 4, 57, 42
5, 86280, Note_off_c, 4, 57, 0
5, 86400, Note_on_c, 4, 60, 42
5, 88320, Note_off_c, 4, 60, 0
5, 88320, Note_on_c, 4, 60, 39
5, 89280, Note_off_c, 4, 60, 0
5, 90200, Note_on_c, 4, 50, 74
5, 90240, Note_on_c, 4, 55, 75
5, 91180, Note_off_c, 4, 50, 0
5, 91180, Note_off_c, 4, 55, 0
5, 91200, Note_on_c, 4, 57, 81
5, 91680, Note_off_c, 4, 57, 0
5, 91680, Note_on_c, 4, 58, 77
5, 92040, Note_off_c, 4, 58, 0
5, 109440, Note_on_c, 4, 62, 72
5, 109800, Note_off_c, 4, 62, 0
5, 109920, Note_on_c, 4, 62, 71
5, 110280, Note_off_c, 4, 62, 0
5, 110400, Note_on_c, 4, 60, 71
5, 110760, Note_off_c, 4, 60, 0
5, 110880, Note_on_c, 4, 59, 70
5, 111240, Note_off_c, 4, 59, 0
5, 111360, Note_on_c, 4, 60, 69
5, 111720, Note_off_c, 4, 60, 0
5, 111840, Note_on_c, 4, 60, 69
5, 112200, Note_off_c, 4, 60, 0
5, 112320, Note_on_c, 4, 62, 68
5, 112680, Note_off_c, 4, 62, 0
5, 112800, Note_on_c, 4, 62, 67
5, 113160, Note_off_c, 4, 62, 0
5, 113280, Note_on_c, 4, 55, 67
5, 113640, Note_off_c, 4, 55, 0
5, 113760, Note_on_c, 4, 62, 66
5, 114120, Note_off_c, 4, 62, 0
5, 114240, Note_on_c, 4, 60, 65
5, 114600, Note_off_c, 4, 60, 0
5, 114720, Note_on_c, 4, 59, 65
5, 115080, Note_off_c, 4, 59, 0
5, 115200, Note_on_c, 4, 60, 64
5, 115560, Note_off_c, 4, 60, 0
5, 115680, Note_on_c, 4, 60, 63
5, 116040, Note_off_c, 4, 60, 0
5, 116160, Note_on_c, 4, 62, 63
5, 116520, Note_off_c, 4, 62, 0
5, 116640, Note_on_c, 4, 62, 62
5, 117000, Note_off_c, 4, 62, 0
5, 117360, Note_on_c, 4, 58, 48
5, 117600, Note_off_c, 4, 58, 0
5, 117600, Note_on_c, 4, 62, 50
5, 118080, Note_off_c, 4, 62, 0
5, 118320, Note_on_c, 4, 58, 54
5, 118560, Note_off_c, 4, 58, 0
5, 118560, Note_on_c, 4, 62, 56
5, 119040, Note_off_c, 4, 62, 0
5, 119280, Note_on_c, 4, 58, 60
5, 119520, Note_off_c, 4, 58, 0
5, 119520, Note_on_c, 4, 63, 62
5, 120000, Note_off_c, 4, 63, 0
5, 120240, Note_on_c, 4, 58, 66
5, 120480, Note_off_c, 4, 58, 0
5, 120480, Note_on_c, 4, 63, 68
5, 120880, Note_off_c, 4, 63, 0
5, 120920, Note_on_c, 4, 56, 73
5, 120960, Note_on_c, 4, 58, 72
5, 120960, Note_on_c, 4, 62, 72
5, 122875, Note_off_c, 4, 56, 0
5, 122880, Note_off_c, 4, 58, 0
5, 122880, Note_off_c, 4, 62, 0
5, 124760, Note_on_c, 4, 56, 63
5, 124800, Note_on_c, 4, 58, 63
5, 124800, Note_on_c, 4, 62, 63
5, 126715, Note_off_c, 4, 56, 0
5, 126720, Note_off_c, 4, 58, 0
5, 126720, Note_off_c, 4, 62, 0
5, 126720, Note_on_c, 4, 55, 55
5, 126720, Note_on_c, 4, 58, 55
5, 126720, Note_on_c, 4, 63, 55
5, 127200, Note_off_c, 4, 55, 0
5, 127200, Note_off_c, 4, 58, 0
5, 127200, Note_off_c, 4, 63, 0
5, 131280, Note_on_c, 4, 72, 58
5, 131473, Note_off_c, 4, 72, 0
5, 131520, Note_on_c, 4, 72, 55
5, 131880, Note_off_c, 4, 72, 0
5, 132240, Note_on_c, 4, 72, 48
5, 132433, Note_off_c, 4, 72, 0
5, 132480, Note_on_c, 4, 72, 45
5, 132840, Note_off_c, 4, 72, 0
5, 134400, Note_on_c, 4, 62, 65
5, 135120, Note_off_c, 4, 62, 0
5, 135360, Note_on_c, 4, 63, 62
5, 136080, Note_off_c, 4, 63, 0
5, 136320, Note_on_c, 4, 65, 58
5, 137040, Note_off_c, 4, 65, 0
5, 142080, Note_on_c, 4, 50, 55
5, 142800, Note_off_c, 4, 50, 0
5, 143040, Note_on_c, 4, 51, 52
5, 143760, Note_off_c, 4, 51, 0
5, 144000, Note_on_c, 4, 53, 50
5, 144720, Note_off_c, 4, 53, 0
5, 145880, Note_on_c, 4, 55, 73
5, 145920, Note_on_c, 4, 60, 73
5, 146640, Note_off_c, 4, 55, 0
5, 146640, Note_off_c, 4, 60, 0
5, 146880, Note_on_c, 4, 62, 79
5, 147360, Note_off_c, 4, 62, 0
5, 147360, Note_on_c, 4, 63, 72
5, 147670, Note_off_c, 4, 63, 0
5, 161040, Note_on_c, 4, 65, 75
5, 161280, Note_off_c, 4, 65, 0
5, 161280, Note_on_c, 4, 67, 74
5, 162240, Note_off_c, 4, 67, 0
5, 162960, Note_on_c, 4, 67, 72
5, 163200, Note_off_c, 4, 67, 0
5, 167280, Note_on_c, 4, 65, 47
5, 167520, Note_off_c, 4, 65, 0
5, 167760, Note_on_c, 4, 65, 44
5, 168000, Note_off_c, 4, 65, 0
5, 168240, Note_on_c, 4, 65, 42
5, 168480, Note_off_c, 4, 65, 0
5, 168720, Note_on_c, 4, 65, 39
5, 168960, Note_off_c, 4, 65, 0
5, 169200, Note_on_c, 4, 58, 37
5, 169440, Note_off_c, 4, 58, 0
5, 169440, Note_on_c, 4, 65, 36
5, 169680, Note_off_c, 4, 65, 0
5, 171120, Note_on_c, 4, 65, 43
5, 171360, Note_off_c, 4, 65, 0
5, 171600, Note_on_c, 4, 65, 40
5, 171840, Note_off_c, 4, 65, 0
5, 172080, Note_on_c, 4, 65, 38
5, 172320, Note_off_c, 4, 65, 0
5, 172560, Note_on_c, 4, 65, 36
5, 172800, Note_off_c, 4, 65, 0
5, 173040, Note_on_c, 4, 62, 34
5, 173280, Note_off_c, 4, 62, 0
5, 173280, Note_on_c, 4, 65, 32
5, 173520, Note_off_c, 4, 65, 0
5, 184320, Note_on_c, 4, 65, 65
5, 184680, Note_off_c, 4, 65, 0
5, 184800, Note_on_c, 4, 65, 64
5, 185160, Note_off_c, 4, 65, 0
5, 185280, Note_on_c, 4, 65, 64
5, 185640, Note_off_c, 4, 65, 0
5, 185760, Note_on_c, 4, 65, 64
5, 186120, Note_off_c, 4, 65, 0
5, 186240, Note_on_c, 4, 65, 63
5, 186600, Note_off_c, 4, 65, 0
5, 186720, Note_on_c, 4, 65, 63
5, 187080, Note_off_c, 4, 65, 0
5, 187200, Note_on_c, 4, 65, 63
5, 187560, Note_off_c, 4, 65, 0
5, 187680, Note_on_c, 4, 65, 62
5, 188040, Note_off_c, 4, 65, 0
5, 188160, Note_on_c, 4, 63, 62
5, 188520, Note_off_c, 4, 63, 0
5, 188640, Note_on_c, 4, 63, 62
5, 189000, Note_off_c, 4, 63, 0
5, 189120, Note_on_c, 4, 65, 61
5, 189480, Note_off_c, 4, 65, 0
5, 189600, Note_on_c, 4, 65, 61
5, 189960, Note_off_c, 4, 65, 0
5, 192000, Note_on_c, 4, 53, 47
5, 192360, Note_off_c, 4, 53, 0
5, 192480, Note_on_c, 4, 53, 47
5, 192840, Note_off_c, 4, 53, 0
5, 192960, Note_on_c, 4, 53, 46
5, 193320, Note_off_c, 4, 53, 0
5, 193440, Note_on_c, 4, 53, 46
5, 193800, Note_off_c, 4, 53, 0
5, 193920, Note_on_c, 4, 53, 45
5, 194280, Note_off_c, 4, 53, 0
5, 194400, Note_on_c, 4, 53, 44
5, 194760, Note_off_c, 4, 53, 0
5, 194880, Note_on_c, 4, 53, 44
5, 195240, Note_off_c, 4, 53, 0
5, 195360, Note_on_c, 4, 53, 43
5, 195720, Note_off_c, 4, 53, 0
5, 195840, Note_on_c, 4, 51, 42
5, 196200, Note_off_c, 4, 51, 0
5, 196320, Note_on_c, 4, 51, 42
5, 196680, Note_off_c, 4, 51, 0
5, 196800, Note_on_c, 4, 53, 41
5, 197160, Note_off_c, 4, 53, 0
5, 197280, Note_on_c, 4, 53, 40
5, 197640, Note_off_c, 4, 53, 0
5, 197760, Note_on_c, 4, 58, 40
5, 197760, Note_on_c, 4, 62, 40
5, 198120, Note_off_c, 4, 58, 0
5, 198120, Note_off_c, 4, 62, 0
5, 201600, Note_on_c, 4, 62, 63
5, 201960, Note_off_c, 4, 62, 0
5, 215760, Note_on_c, 4, 60, 58
5, 216000, Note_off_c, 4, 60, 0
5, 216000, Note_on_c, 4, 56, 55
5, 216192, Note_off_c, 4, 56, 0
5, 216480, Note_on_c, 4, 60, 48
5, 216720, Note_off_c, 4, 60, 0
5, 216720, Note_on_c, 4, 62, 44
5, 216960, Note_off_c, 4, 62, 0
5, 216960, Note_on_c, 4, 63, 39
5, 217152, Note_off_c, 4, 63, 0
5, 217660, Note_on_c, 4, 58, 47
5, 217680, Note_on_c, 4, 63, 48
5, 217875, Note_off_c, 4, 58, 0
5, 217885, Note_off_c, 4, 63, 0
5, 218380, Note_on_c, 4, 60, 49
5, 218400, Note_on_c, 4, 65, 49
5, 218595, Note_off_c, 4, 65, 0
5, 218600, Note_off_c, 4, 60, 0
5, 219100, Note_on_c, 4, 62, 61
5, 219120, Note_on_c, 4, 65, 60
5, 219120, Note_on_c, 4, 68, 60
5, 219320, Note_off_c, 4, 62, 0
5, 219320, Note_off_c, 4, 65, 0
5, 219320, Note_off_c, 4, 68, 0
5, 221760, Note_on_c, 4, 55, 32
5, 221880, Note_off_c, 4, 55, 0
5, 222000, Note_on_c, 4, 55, 29
5, 222156, Note_off_c, 4, 55, 0
5, 222720, Note_on_c, 4, 63, 65
5, 223200, Note_off_c, 4, 63, 0
5, 223440, Note_on_c, 4, 63, 62
5, 223920, Note_off_c, 4, 63, 0
5, 224160, Note_on_c, 4, 62, 58
5, 224640, Note_off_c, 4, 62, 0
5, 224880, Note_on_c, 4, 62, 55
5, 225360, Note_off_c, 4, 62, 0
5, 225600, Note_on_c, 4, 60, 51
5, 226080, Note_off_c, 4, 60, 0
5, 226080, Note_on_c, 4, 57, 49
5, 226260, Note_off_c, 4, 57, 0
5, 226320, Note_on_c, 4, 58, 48
5, 226800, Note_off_c, 4, 58, 0
5, 227040, Note_on_c, 4, 60, 44
5, 227520, Note_off_c, 4, 60, 0
5, 227520, Note_on_c, 4, 57, 42
5, 227700, Note_off_c, 4, 57, 0
5, 227760, Note_on_c, 4, 58, 41
5, 228240, Note_off_c, 4, 58, 0
5, 228480, Note_on_c, 4, 51, 44
5, 228960, Note_off_c, 4, 51, 0
5, 229200, Note_on_c, 4, 60, 54
5, 229680, Note_off_c, 4, 60, 0
5, 229920, Note_on_c, 4, 53, 65
5, 229920, Note_on_c, 4, 62, 65
5, 230400, Note_off_c, 4, 62, 0
5, 230400, Note_on_c, 4, 60, 48
5, 230592, Note_off_c, 4, 60, 0
5, 230595, Note_off_c, 4, 53, 0
5, 234240, Note_on_c, 4, 50, 76
5, 234420, Note_off_c, 4, 50, 0
5, 234480, Note_on_c, 4, 50, 76
5, 234660, Note_off_c, 4, 50, 0
5, 234720, Note_on_c, 4, 50, 76
5, 234900, Note_off_c, 4, 50, 0
5, 234960, Note_on_c, 4, 51, 76
5, 235140, Note_off_c, 4, 51, 0
5, 235200, Note_on_c, 4, 51, 75
5, 235380, Note_off_c, 4, 51, 0
5, 235440, Note_on_c, 4, 51, 75
5, 235620, Note_off_c, 4, 51, 0
5, 235680, Note_on_c, 4, 53, 75
5, 235860, Note_off_c, 4, 53, 0
5, 235920, Note_on_c, 4, 53, 71
5, 236100, Note_off_c, 4, 53, 0
5, 236160, Note_on_c, 4, 53, 67
5, 236340, Note_off_c, 4, 53, 0
5, 236400, Note_on_c, 4, 55, 63
5, 236580, Note_off_c, 4, 55, 0
5, 236640, Note_on_c, 4, 53, 59
5, 236820, Note_off_c, 4, 53, 0
5, 236880, Note_on_c, 4, 51, 56
5, 237060, Note_off_c, 4, 51, 0
5, 237120, Note_on_c, 4, 50, 52
5, 237300, Note_off_c, 4, 50, 0
5, 237360, Note_on_c, 4, 50, 52
5, 237540, Note_off_c, 4, 50, 0
5, 237600, Note_on_c, 4, 50, 51
5, 237780, Note_off_c, 4, 50, 0
5, 237840, Note_on_c, 4, 51, 50
5, 238020, Note_off_c, 4, 51, 0
5, 238080, Note_on_c, 4, 51, 50
5, 238260, Note_off_c, 4, 51, 0
5, 238320, Note_on_c, 4, 51, 49
5, 238500, Note_off_c, 4, 51, 0
5, 238560, Note_on_c, 4, 53, 49
5, 238740, Note_off_c, 4, 53, 0
5, 238800, Note_on_c, 4, 53, 45
5, 238980, Note_off_c, 4, 53, 0
5, 239040, Note_on_c, 4, 53, 42
5, 239220, Note_off_c, 4, 53, 0
5, 239280, Note_on_c, 4, 53, 73
5, 239460, Note_off_c, 4, 53, 0
5, 239520, Note_on_c, 4, 51, 71
5, 239700, Note_off_c, 4, 51, 0
5, 239760, Note_on_c, 4, 52, 68
5, 239940, Note_off_c, 4, 52, 0
5, 240000, Note_on_c, 4, 53, 65
5, 240180, Note_off_c, 4, 53, 0
5, 240240, Note_on_c, 4, 53, 59
5, 240420, Note_off_c, 4, 53, 0
5, 240480, Note_on_c, 4, 53, 54
5, 240660, Note_off_c, 4, 53, 0
5, 240720, Note_on_c, 4, 53, 71
5, 240900, Note_off_c, 4, 53, 0
5, 240960, Note_on_c, 4, 51, 69
5, 241140, Note_off_c, 4, 51, 0
5, 241200, Note_on_c, 4, 52, 68
5, 241380, Note_off_c, 4, 52, 0
5, 241440, Note_on_c, 4, 53, 63
5, 241620, Note_off_c, 4, 53, 0
5, 241680, Note_on_c, 4, 53, 58
5, 241860, Note_off_c, 4, 53, 0
5, 241920, Note_on_c, 4, 53, 53
5, 242100, Note_off_c, 4, 53, 0
5, 242160, Note_on_c, 4, 62, 73
5, 242352, Note_off_c, 4, 62, 0
5, 244080, Note_on_c, 4, 50, 37
5, 244200, Note_off_c, 4, 50, 0
5, 244320, Note_on_c, 4, 50, 32
5, 244476, Note_off_c, 4, 50, 0
5, 249360, Note_on_c, 4, 63, 59
5, 249552, Note_off_c, 4, 63, 0
5, 250080, Note_on_c, 4, 63, 45
5, 250272, Note_off_c, 4, 63, 0
5, 250800, Note_on_c, 4, 62, 41
5, 250992, Note_off_c, 4, 62, 0
5, 252720, Note_on_c, 4, 53, 37
5, 252840, Note_off_c, 4, 53, 0
5, 252960, Note_on_c, 4, 53, 33
5, 253116, Note_off_c, 4, 53, 0
5, 257520, Note_on_c, 4, 60, 57
5, 257760, Note_off_c, 4, 60, 0
5, 257760, Note_on_c, 4, 56, 54
5, 257952, Note_off_c, 4, 56, 0
5, 258080, Note_on_c, 4, 60, 50
5, 258160, Note_off_c, 4, 60, 0
5, 258240, Note_on_c, 4, 60, 48
5, 258320, Note_off_c, 4, 60, 0
5, 258320, Note_on_c, 4, 62, 47
5, 258400, Note_off_c, 4, 62, 0
5, 258400, Note_on_c, 4, 60, 46
5, 258480, Note_off_c, 4, 60, 0
5, 258480, Note_on_c, 4, 62, 45
5, 258560, Note_off_c, 4, 62, 0
5, 258560, Note_on_c, 4, 63, 44
5, 258640, Note_off_c, 4, 63, 0
5, 258640, Note_on_c, 4, 62, 43
5, 258720, Note_off_c, 4, 62, 0
5, 259440, Note_on_c, 4, 58, 47
5, 259460, Note_on_c, 4, 63, 48
5, 259655, Note_off_c, 4, 58, 0
5, 259665, Note_off_c, 4, 63, 0
5, 260160, Note_on_c, 4, 60, 49
5, 260180, Note_on_c, 4, 65, 49
5, 260375, Note_off_c, 4, 65, 0
5, 260380, Note_off_c, 4, 60, 0
5, 260860, Note_on_c, 4, 62, 61
5, 260880, Note_on_c, 4, 68, 60
5, 260880, Note_on_c, 4, 65, 60
5, 261080, Note_off_c, 4, 62, 0
5, 261080, Note_off_c, 4, 68, 0
5, 261080, Note_off_c, 4, 65, 0
5, 263520, Note_on_c, 4, 55, 32
5, 263640, Note_off_c, 4, 55, 0
5, 263760, Note_on_c, 4, 55, 29
5, 263916, Note_off_c, 4, 55, 0
5, 264480, Note_on_c, 4, 60, 65
5, 264960, Note_off_c, 4, 60, 0
5, 265200, Note_on_c, 4, 60, 61
5, 265680, Note_off_c, 4, 60, 0
5, 265920, Note_on_c, 4, 58, 57
5, 266400, Note_off_c, 4, 58, 0
5, 266640, Note_on_c, 4, 55, 53
5, 267120, Note_off_c, 4, 55, 0
5, 267360, Note_on_c, 4, 56, 58
5, 267840, Note_off_c, 4, 56, 0
5, 268080, Note_on_c, 4, 65, 55
5, 268260, Note_off_c, 4, 65, 0
5, 268320, Note_on_c, 4, 56, 54
5, 268500, Note_off_c, 4, 56, 0
5, 268560, Note_on_c, 4, 53, 52
5, 268740, Note_off_c, 4, 53, 0
5, 268800, Note_on_c, 4, 55, 51
5, 269160, Note_off_c, 4, 55, 0
5, 269280, Note_on_c, 4, 52, 49
5, 269460, Note_off_c, 4, 52, 0
5, 269520, Note_on_c, 4, 53, 48
5, 269880, Note_off_c, 4, 53, 0
5, 270000, Note_on_c, 4, 55, 45
5, 270180, Note_off_c, 4, 55, 0
5, 270240, Note_on_c, 4, 53, 44
5, 270600, Note_off_c, 4, 53, 0
5, 270720, Note_on_c, 4, 50, 42
5, 270900, Note_off_c, 4, 50, 0
5, 270960, Note_on_c, 4, 51, 41
5, 271440, Note_off_c, 4, 51, 0
5, 271680, Note_on_c, 4, 56, 44
5, 272160, Note_off_c, 4, 56, 0
5, 272400, Note_on_c, 4, 65, 54
5, 272880, Note_off_c, 4, 65, 0
5, 273120, Note_on_c, 4, 67, 65
5, 273600, Note_off_c, 4, 67, 0
5, 273600, Note_on_c, 4, 65, 48
5, 273792, Note_off_c, 4, 65, 0
5, 277440, Note_on_c, 4, 55, 76
5, 277620, Note_off_c, 4, 55, 0
5, 277680, Note_on_c, 4, 55, 76
5, 277860, Note_off_c, 4, 55, 0
5, 277920, Note_on_c, 4, 55, 76
5, 278100, Note_off_c, 4, 55, 0
5, 278160, Note_on_c, 4, 56, 76
5, 278340, Note_off_c, 4, 56, 0
5, 278400, Note_on_c, 4, 56, 75
5, 278580, Note_off_c, 4, 56, 0
5, 278640, Note_on_c, 4, 56, 75
5, 278820, Note_off_c, 4, 56, 0
5, 278880, Note_on_c, 4, 58, 75
5, 279060, Note_off_c, 4, 58, 0
5, 279120, Note_on_c, 4, 58, 71
5, 279300, Note_off_c, 4, 58, 0
5, 279360, Note_on_c, 4, 58, 67
5, 279540, Note_off_c, 4, 58, 0
5, 279600, Note_on_c, 4, 60, 63
5, 279780, Note_off_c, 4, 60, 0
5, 279840, Note_on_c, 4, 58, 59
5, 280020, Note_off_c, 4, 58, 0
5, 280080, Note_on_c, 4, 56, 56
5, 280260, Note_off_c, 4, 56, 0
5, 280320, Note_on_c, 4, 55, 52
5, 280500, Note_off_c, 4, 55, 0
5, 280560, Note_on_c, 4, 55, 52
5, 280740, Note_off_c, 4, 55, 0
5, 280800, Note_on_c, 4, 55, 51
5, 280980, Note_off_c, 4, 55, 0
5, 281040, Note_on_c, 4, 56, 50
5, 281220, Note_off_c, 4, 56, 0
5, 281280, Note_on_c, 4, 56, 50
5, 281460, Note_off_c, 4, 56, 0
5, 281520, Note_on_c, 4, 44, 49
5, 281700, Note_off_c, 4, 44, 0
5, 281760, Note_on_c, 4, 46, 49
5, 281940, Note_off_c, 4, 46, 0
5, 282000, Note_on_c, 4, 46, 45
5, 282180, Note_off_c, 4, 46, 0
5, 282240, Note_on_c, 4, 46, 42
5, 282420, Note_off_c, 4, 46, 0
5, 282480, Note_on_c, 4, 43, 73
5, 282660, Note_off_c, 4, 43, 0
5, 282720, Note_on_c, 4, 44, 71
5, 282900, Note_off_c, 4, 44, 0
5, 282960, Note_on_c, 4, 45, 68
5, 283140, Note_off_c, 4, 45, 0
5, 283200, Note_on_c, 4, 46, 65
5, 283380, Note_off_c, 4, 46, 0
5, 283440, Note_on_c, 4, 46, 59
5, 283620, Note_off_c, 4, 46, 0
5, 283680, Note_on_c, 4, 46, 54
5, 283860, Note_off_c, 4, 46, 0
5, 283920, Note_on_c, 4, 55, 71
5, 284100, Note_off_c, 4, 55, 0
5, 284160, Note_on_c, 4, 56, 69
5, 284340, Note_off_c, 4, 56, 0
5, 284400, Note_on_c, 4, 57, 68
5, 284580, Note_off_c, 4, 57, 0
5, 284640, Note_on_c, 4, 58, 63
5, 284820, Note_off_c, 4, 58, 0
5, 284880, Note_on_c, 4, 58, 58
5, 285060, Note_off_c, 4, 58, 0
5, 285120, Note_on_c, 4, 58, 53
5, 285300, Note_off_c, 4, 58, 0
5, 285360, Note_on_c, 4, 67, 73
5, 285552, Note_off_c, 4, 67, 0
5, 287280, Note_on_c, 4, 55, 37
5, 287400, Note_off_c, 4, 55, 0
5, 287520, Note_on_c, 4, 55, 32
5, 287676, Note_off_c, 4, 55, 0
5, 289680, Note_on_c, 4, 67, 59
5, 290040, Note_off_c, 4, 67, 0
5, 290160, Note_on_c, 4, 67, 63
5, 291090, Note_off_c, 4, 67, 0
5, 291600, Note_on_c, 4, 65, 59
5, 291960, Note_off_c, 4, 65, 0
5, 292080, Note_on_c, 4, 65, 60
5, 292987, Note_off_c, 4, 65, 0
5, 293520, Note_on_c, 4, 70, 60
5, 293880, Note_off_c, 4, 70, 0
5, 294000, Note_on_c, 4, 70, 66
5, 294960, Note_off_c, 4, 70, 0
5, 294960, Note_on_c, 4, 69, 58
5, 295440, Note_off_c, 4, 69, 0
5, 295440, Note_on_c, 4, 70, 54
5, 295800, Note_off_c, 4, 70, 0
5, 295920, Note_on_c, 4, 70, 49
5, 296400, Note_off_c, 4, 70, 0
5, 296400, Note_on_c, 4, 69, 44
5, 296760, Note_off_c, 4, 69, 0
5, 301200, Note_on_c, 4, 58, 73
5, 301560, Note_off_c, 4, 58, 0
5, 301680, Note_on_c, 4, 58, 78
5, 302040, Note_off_c, 4, 58, 0
5, 302160, Note_on_c, 4, 58, 76
5, 303120, Note_off_c, 4, 58, 0
5, 303120, Note_on_c, 4, 57, 67
5, 303480, Note_off_c, 4, 57, 0
5, 303600, Note_on_c, 4, 58, 59
5, 303960, Note_off_c, 4, 58, 0
5, 314160, Note_on_c, 4, 62, 49
5, 314640, Note_off_c, 4, 62, 0
5, 314640, Note_on_c, 4, 63, 45
5, 315000, Note_off_c, 4, 63, 0
5, 315120, Note_on_c, 4, 62, 40
5, 315480, Note_off_c, 4, 62, 0
5, 318000, Note_on_c, 4, 62, 55
5, 318480, Note_off_c, 4, 62, 0
5, 318480, Note_on_c, 4, 63, 52
5, 318840, Note_off_c, 4, 63, 0
5, 318960, Note_on_c, 4, 62, 48
5, 319320, Note_off_c, 4, 62, 0
5, 319440, Note_on_c, 4, 63, 44
5, 319800, Note_off_c, 4, 63, 0
5, 319920, Note_on_c, 4, 62, 41
5, 320280, Note_off_c, 4, 62, 0
5, 320400, Note_on_c, 4, 63, 37
5, 320760, Note_off_c, 4, 63, 0
5, 320880, Note_on_c, 4, 62, 34
5, 321240, Note_off_c, 4, 62, 0
5, 322800, Note_on_c, 4, 58, 73
5, 323160, Note_off_c, 4, 58, 0
5, 323280, Note_on_c, 4, 58, 66
5, 323640, Note_off_c, 4, 58, 0
5, 323760, Note_on_c, 4, 58, 63
5, 324120, Note_off_c, 4, 58, 0
5, 324240, Note_on_c, 4, 58, 60
5, 324600, Note_off_c, 4, 58, 0
5, 324720, Note_on_c, 4, 58, 56
5, 325080, Note_off_c, 4, 58, 0
5, 325200, Note_on_c, 4, 58, 53
5, 325560, Note_off_c, 4, 58, 0
5, 325680, Note_on_c, 4, 58, 50
5, 326040, Note_off_c, 4, 58, 0
5, 326160, Note_on_c, 4, 58, 46
5, 326520, Note_off_c, 4, 58, 0
5, 326640, Note_on_c, 4, 57, 67
5, 327000, Note_off_c, 4, 57, 0
5, 327120, Note_on_c, 4, 57, 61
5, 327480, Note_off_c, 4, 57, 0
5, 327600, Note_on_c, 4, 57, 58
5, 327960, Note_off_c, 4, 57, 0
5, 328080, Note_on_c, 4, 57, 55
5, 328440, Note_off_c, 4, 57, 0
5, 328560, Note_on_c, 4, 57, 52
5, 328920, Note_off_c, 4, 57, 0
5, 329040, Note_on_c, 4, 57, 50
5, 329400, Note_off_c, 4, 57, 0
5, 329520, Note_on_c, 4, 57, 47
5, 329880, Note_off_c, 4, 57, 0
5, 330000, Note_on_c, 4, 57, 44
5, 330360, Note_off_c, 4, 57, 0
5, 339600, Note_on_c, 4, 67, 75
5, 339960, Note_off_c, 4, 67, 0
5, 340080, Note_on_c, 4, 69, 77
5, 340560, Note_off_c, 4, 69, 0
5, 340560, Note_on_c, 4, 67, 68
5, 340920, Note_off_c, 4, 67, 0
5, 342000, Note_on_c, 4, 53, 60
5, 342360, Note_off_c, 4, 53, 0
5, 342480, Note_on_c, 4, 53, 61
5, 342840, Note_off_c, 4, 53, 0
5, 342960, Note_on_c, 4, 52, 61
5, 343320, Note_off_c, 4, 52, 0
5, 343440, Note_on_c, 4, 52, 62
5, 343800, Note_off_c, 4, 52, 0
5, 343920, Note_on_c, 4, 55, 63
5, 344280, Note_off_c, 4, 55, 0
5, 344400, Note_on_c, 4, 55, 64
5, 344760, Note_off_c, 4, 55, 0
5, 344880, Note_on_c, 4, 57, 65
5, 345600, Note_off_c, 4, 57, 0
5, 345840, Note_on_c, 4, 53, 67
5, 346200, Note_off_c, 4, 53, 0
5, 346320, Note_on_c, 4, 53, 67
5, 346680, Note_off_c, 4, 53, 0
5, 346800, Note_on_c, 4, 52, 68
5, 347160, Note_off_c, 4, 52, 0
5, 347280, Note_on_c, 4, 52, 69
5, 347640, Note_off_c, 4, 52, 0
5, 347760, Note_on_c, 4, 55, 70
5, 348120, Note_off_c, 4, 55, 0
5, 348240, Note_on_c, 4, 55, 71
5, 348600, Note_off_c, 4, 55, 0
5, 348720, Note_on_c, 4, 57, 72
5, 349440, Note_off_c, 4, 57, 0
5, 361680, Note_on_c, 4, 65, 76
5, 362640, Note_off_c, 4, 65, 0
5, 362640, Note_on_c, 4, 64, 67
5, 363000, Note_off_c, 4, 64, 0
5, 363840, Note_on_c, 4, 65, 70
5, 364032, Note_off_c, 4, 65, 0
5, 364320, Note_on_c, 4, 65, 66
5, 364512, Note_off_c, 4, 65, 0
5, 364800, Note_on_c, 4, 65, 62
5, 364992, Note_off_c, 4, 65, 0
5, 365280, Note_on_c, 4, 65, 58
5, 365472, Note_off_c, 4, 65, 0
5, 365760, Note_on_c, 4, 65, 67
5, 365952, Note_off_c, 4, 65, 0
5, 366240, Note_on_c, 4, 65, 64
5, 366432, Note_off_c, 4, 65, 0
5, 366720, Note_on_c, 4, 65, 61
5, 366912, Note_off_c, 4, 65, 0
5, 367200, Note_on_c, 4, 65, 58
5, 367392, Note_off_c, 4, 65, 0
5, 367680, Note_on_c, 4, 65, 68
5, 367872, Note_off_c, 4, 65, 0
5, 368160, Note_on_c, 4, 65, 64
5, 368352, Note_off_c, 4, 65, 0
5, 368640, Note_on_c, 4, 65, 61
5, 368832, Note_off_c, 4, 65, 0
5, 369120, Note_on_c, 4, 65, 57
5, 369312, Note_off_c, 4, 65, 0
5, 369600, Note_on_c, 4, 65, 63
5, 369792, Note_off_c, 4, 65, 0
5, 370080, Note_on_c, 4, 65, 58
5, 370272, Note_off_c, 4, 65, 0
5, 370560, Note_on_c, 4, 65, 53
5, 370752, Note_off_c, 4, 65, 0
5, 372240, Control_c, 4, 64, 0
5, 378000, Note_on_c, 4, 67, 59
5, 378360, Note_off_c, 4, 67, 0
5, 378480, Note_on_c, 4, 67, 63
5, 379410, Note_off_c, 4, 67, 0
5, 379920, Note_on_c, 4, 65, 59
5, 380280, Note_off_c, 4, 65, 0
5, 380400, Note_on_c, 4, 65, 60
5, 381307, Note_off_c, 4, 65, 0
5, 381840, Note_on_c, 4, 70, 60
5, 382200, Note_off_c, 4, 70, 0
5, 382320, Note_on_c, 4, 70, 66
5, 383280, Note_off_c, 4, 70, 0
5, 383280, Note_on_c, 4, 69, 58
5, 383760, Note_off_c, 4, 69, 0
5, 383760, Note_on_c, 4, 70, 54
5, 384120, Note_off_c, 4, 70, 0
5, 384240, Note_on_c, 4, 70, 49
5, 384720, Note_off_c, 4, 70, 0
5, 384720, Note_on_c, 4, 69, 44
5, 385080, Note_off_c, 4, 69, 0
5, 389520, Note_on_c, 4, 58, 73
5, 389880, Note_off_c, 4, 58, 0
5, 390000, Note_on_c, 4, 58, 78
5, 390360, Note_off_c, 4, 58, 0
5, 390480, Note_on_c, 4, 58, 76
5, 391440, Note_off_c, 4, 58, 0
5, 391440, Note_on_c, 4, 57, 66
5, 391800, Note_off_c, 4, 57, 0
5, 391920, Note_on_c, 4, 58, 59
5, 392280, Note_off_c, 4, 58, 0
5, 393840, Control_c, 4, 64, 0
5, 407280, Note_on_c, 4, 67, 85
5, 408240, Note_off_c, 4, 67, 0
5, 408240, Note_on_c, 4, 66, 56
5, 408600, Note_off_c, 4, 66, 0
5, 409200, Control_c, 4, 64, 0
5, 422640, Note_on_c, 4, 67, 85
5, 423600, Note_off_c, 4, 67, 0
5, 423600, Note_on_c, 4, 66, 56
5, 423960, Note_off_c, 4, 66, 0
5, 424560, Control_c, 4, 64, 0
5, 429840, Note_on_c, 4, 67, 49
5, 430200, Note_off_c, 4, 67, 0
5, 430320, Note_on_c, 4, 67, 54
5, 431280, Note_off_c, 4, 67, 0
5, 431280, Note_on_c, 4, 66, 40
5, 431640, Note_off_c, 4, 66, 0
5, 432480, Note_on_c, 4, 67, 59
5, 432720, Note_off_c, 4, 67, 0
5, 432960, Note_on_c, 4, 67, 51
5, 433152, Note_off_c, 4, 67, 0
5, 433440, Note_on_c, 4, 67, 49
5, 433596, Note_off_c, 4, 67, 0
5, 433920, Note_on_c, 4, 67, 46
5, 434076, Note_off_c, 4, 67, 0
5, 434640, Control_c, 4, 64, 127
5, 434680, Note_on_c, 4, 51, 75
5, 434720, Note_on_c, 4, 54, 75
5, 434760, Note_on_c, 4, 57, 75
5, 435040, Note_off_c, 4, 51, 0
5, 435080, Note_off_c, 4, 54, 0
5, 435120, Note_off_c, 4, 57, 0
5, 436080, Control_c, 4, 64, 0
5, 439440, Note_on_c, 4, 60, 53
5, 439800, Note_off_c, 4, 60, 0
5, 439920, Note_on_c, 4, 60, 54
5, 440880, Note_off_c, 4, 60, 0
5, 440880, Note_on_c, 4, 58, 45
5, 441240, Note_off_c, 4, 58, 0
5, 441840, Control_c, 4, 64, 0
5, 447120, Note_on_c, 4, 67, 49
5, 447480, Note_off_c, 4, 67, 0
5, 447600, Note_on_c, 4, 67, 54
5, 448560, Note_off_c, 4, 67, 0
5, 448560, Note_on_c, 4, 66, 40
5, 448920, Note_off_c, 4, 66, 0
5, 449760, Note_on_c, 4, 67, 59
5, 450000, Note_off_c, 4, 67, 0
5, 450240, Note_on_c, 4, 67, 51
5, 450432, Note_off_c, 4, 67, 0
5, 450720, Note_on_c, 4, 67, 49
5, 450876, Note_off_c, 4, 67, 0
5, 451200, Note_on_c, 4, 67, 46
5, 451356, Note_off_c, 4, 67, 0
5, 451920, Control_c, 4, 64, 127
5, 451960, Note_on_c, 4, 51, 75
5, 452000, Note_on_c, 4, 54, 75
5, 452040, Note_on_c, 4, 57, 75
5, 452320, Note_off_c, 4, 51, 0
5, 452360, Note_off_c, 4, 54, 0
5, 452400, Note_off_c, 4, 57, 0
5, 453360, Control_c, 4, 64, 0
5, 456720, Note_on_c, 4, 60, 53
5, 457080, Note_off_c, 4, 60, 0
5, 457200, Note_on_c, 4, 60, 54
5, 458160, Note_off_c, 4, 60, 0
5, 458160, Note_on_c, 4, 58, 45
5, 458520, Note_off_c, 4, 58, 0
5, 459120, Control_c, 4, 64, 0
5, 461040, Note_on_c, 4, 67, 47
5, 462000, Note_off_c, 4, 67, 0
5, 462000, Note_on_c, 4, 66, 40
5, 462360, Note_off_c, 4, 66, 0
5, 462960, Control_c, 4, 64, 127
5, 463000, Note_on_c, 4, 51, 79
5, 463040, Note_on_c, 4, 53, 79
5, 463080, Note_on_c, 4, 57, 79
5, 463602, Note_off_c, 4, 51, 0
5, 463642, Note_off_c, 4, 53, 0
5, 463682, Note_off_c, 4, 57, 0
5, 465360, Control_c, 4, 64, 0
5, 465840, Control_c, 4, 64, 0
5, 466320, Note_on_c, 4, 67, 59
5, 466680, Note_off_c, 4, 67, 0
5, 466800, Note_on_c, 4, 67, 63
5, 467730, Note_off_c, 4, 67, 0
5, 468240, Note_on_c, 4, 65, 59
5, 468600, Note_off_c, 4, 65, 0
5, 468720, Note_on_c, 4, 65, 63
5, 469627, Note_off_c, 4, 65, 0
5, 470160, Note_on_c, 4, 70, 60
5, 470520, Note_off_c, 4, 70, 0
5, 470640, Note_on_c, 4, 70, 66
5, 471600, Note_off_c, 4, 70, 0
5, 471600, Note_on_c, 4, 69, 58
5, 472080, Note_off_c, 4, 69, 0
5, 472080, Note_on_c, 4, 70, 54
5, 472440, Note_off_c, 4, 70, 0
5, 472560, Note_on_c, 4, 70, 49
5, 473040, Note_off_c, 4, 70, 0
5, 473040, Note_on_c, 4, 69, 44
5, 473400, Note_off_c, 4, 69, 0
5, 477840, Note_on_c, 4, 58, 73
5, 478200, Note_off_c, 4, 58, 0
5, 478320, Note_on_c, 4, 58, 78
5, 478680, Note_off_c, 4, 58, 0
5, 478800, Note_on_c, 4, 58, 76
5, 479760, Note_off_c, 4, 58, 0
5, 479760, Note_on_c, 4, 57, 66
5, 480120, Note_off_c, 4, 57, 0
5, 480240, Note_on_c, 4, 58, 60
5, 480600, Note_off_c, 4, 58, 0
5, 490800, Note_on_c, 4, 62, 49
5, 491280, Note_off_c, 4, 62, 0
5, 491280, Note_on_c, 4, 63, 45
5, 491640, Note_off_c, 4, 63, 0
5, 491760, Note_on_c, 4, 62, 40
5, 492120, Note_off_c, 4, 62, 0
5, 494640, Note_on_c, 4, 62, 54
5, 495120, Note_off_c, 4, 62, 0
5, 495120, Note_on_c, 4, 63, 50
5, 495480, Note_off_c, 4, 63, 0
5, 495600, Note_on_c, 4, 62, 47
5, 495960, Note_off_c, 4, 62, 0
5, 496080, Note_on_c, 4, 63, 43
5, 496440, Note_off_c, 4, 63, 0
5, 496560, Note_on_c, 4, 62, 39
5, 496920, Note_off_c, 4, 62, 0
5, 497040, Note_on_c, 4, 63, 35
5, 497400, Note_off_c, 4, 63, 0
5, 497520, Note_on_c, 4, 62, 31
5, 497880, Note_off_c, 4, 62, 0
5, 501360, Note_on_c, 4, 63, 44
5, 501720, Note_off_c, 4, 63, 0
5, 501840, Note_on_c, 4, 63, 46
5, 502200, Note_off_c, 4, 63, 0
5, 502320, Note_on_c, 4, 63, 48
5, 502680, Note_off_c, 4, 63, 0
5, 502800, Note_on_c, 4, 63, 50
5, 503160, Note_off_c, 4, 63, 0
5, 503280, Note_on_c, 4, 65, 59
5, 503640, Note_off_c, 4, 65, 0
5, 503760, Note_on_c, 4, 65, 50
5, 504120, Note_off_c, 4, 65, 0
5, 504240, Note_on_c, 4, 65, 45
5, 504600, Note_off_c, 4, 65, 0
5, 504720, Note_on_c, 4, 65, 41
5, 505080, Note_off_c, 4, 65, 0
5, 505200, Note_on_c, 4, 63, 40
5, 505560, Note_off_c, 4, 63, 0
5, 505680, Note_on_c, 4, 63, 42
5, 506040, Note_off_c, 4, 63, 0
5, 506160, Note_on_c, 4, 63, 45
5, 506520, Note_off_c, 4, 63, 0
5, 506640, Note_on_c, 4, 63, 47
5, 507000, Note_off_c, 4, 63, 0
5, 507120, Note_on_c, 4, 65, 55
5, 507480, Note_off_c, 4, 65, 0
5, 507600, Note_on_c, 4, 65, 46
5, 507960, Note_off_c, 4, 65, 0
5, 508080, Note_on_c, 4, 65, 43
5, 508440, Note_off_c, 4, 65, 0
5, 508560, Note_on_c, 4, 65, 40
5, 508920, Note_off_c, 4, 65, 0
5, 524560, Note_on_c, 4, 65, 79
5, 524720, Note_off_c, 4, 65, 0
5, 524720, Note_on_c, 4, 68, 78
5, 524880, Note_off_c, 4, 68, 0
5, 524880, Note_on_c, 4, 71, 78
5, 525040, Note_off_c, 4, 71, 0
5, 525040, Note_on_c, 4, 68, 77
5, 525200, Note_off_c, 4, 68, 0
5, 525200, Note_on_c, 4, 65, 77
5, 525328, Note_off_c, 4, 65, 0
5, 525520, Note_on_c, 4, 65, 76
5, 525680, Note_off_c, 4, 65, 0
5, 525680, Note_on_c, 4, 68, 76
5, 525840, Note_off_c, 4, 68, 0
5, 525840, Note_on_c, 4, 71, 75
5, 526000, Note_off_c, 4, 71, 0
5, 526000, Note_on_c, 4, 68, 75
5, 526160, Note_off_c, 4, 68, 0
5, 526160, Note_on_c, 4, 65, 74
5, 526288, Note_off_c, 4, 65, 0
5, 528400, Note_on_c, 4, 63, 73
5, 528560, Note_off_c, 4, 63, 0
5, 528560, Note_on_c, 4, 66, 72
5, 528720, Note_off_c, 4, 66, 0
5, 528720, Note_on_c, 4, 69, 72
5, 528880, Note_off_c, 4, 69, 0
5, 528880, Note_on_c, 4, 66, 71
5, 529040, Note_off_c, 4, 66, 0
5, 529040, Note_on_c, 4, 63, 71
5, 529168, Note_off_c, 4, 63, 0
5, 529360, Note_on_c, 4, 63, 70
5, 529520, Note_off_c, 4, 63, 0
5, 529520, Note_on_c, 4, 66, 69
5, 529680, Note_off_c, 4, 66, 0
5, 529680, Note_on_c, 4, 69, 69
5, 529840, Note_off_c, 4, 69, 0
5, 529840, Note_on_c, 4, 66, 68
5, 530000, Note_off_c, 4, 66, 0
5, 530000, Note_on_c, 4, 63, 68
5, 530128, Note_off_c, 4, 63, 0
5, 531600, Note_on_c, 4, 70, 73
5, 531960, Note_off_c, 4, 70, 0
5, 532080, Note_on_c, 4, 70, 75
5, 533880, Note_off_c, 4, 70, 0
5, 534000, Note_on_c, 4, 70, 84
5, 534840, Note_off_c, 4, 70, 0
5, 534960, Note_on_c, 4, 70, 89
5, 535800, Note_off_c, 4, 70, 0
5, 535920, Note_on_c, 4, 70, 93
5, 536280, Note_off_c, 4, 70, 0
5, 537360, Note_on_c, 4, 60, 80
5, 537600, Note_off_c, 4, 60, 0
5, 537600, Note_on_c, 4, 63, 78
5, 537792, Note_off_c, 4, 63, 0
5, 537840, Note_on_c, 4, 62, 76
5, 538320, Note_off_c, 4, 62, 0
5, 538320, Note_on_c, 4, 60, 71
5, 538680, Note_off_c, 4, 60, 0
5, 545520, Note_on_c, 4, 57, 70
5, 545520, Note_on_c, 4, 60, 70
5, 545880, Note_off_c, 4, 57, 0
5, 545880, Note_off_c, 4, 60, 0
5, 548400, Note_on_c, 4, 62, 72
5, 548880, Note_off_c, 4, 62, 0
5, 548880, Note_on_c, 4, 59, 76
5, 549240, Note_off_c, 4, 59, 0
5, 549360, Note_on_c, 4, 60, 79
5, 549840, Note_off_c, 4, 60, 0
5, 550320, Note_on_c, 4, 60, 68
5, 550800, Note_off_c, 4, 60, 0
5, 550800, Note_on_c, 4, 57, 70
5, 551160, Note_off_c, 4, 57, 0
5, 551280, Note_on_c, 4, 58, 73
5, 551760, Note_off_c, 4, 58, 0
5, 552240, Note_on_c, 4, 62, 64
5, 552720, Note_off_c, 4, 62, 0
5, 552720, Note_on_c, 4, 58, 71
5, 553080, Note_off_c, 4, 58, 0
5, 566640, Note_on_c, 4, 58, 60
5, 567000, Note_off_c, 4, 58, 0
5, 567120, Note_on_c, 4, 58, 60
5, 567480, Note_off_c, 4, 58, 0
5, 567600, Note_on_c, 4, 57, 61
5, 567960, Note_off_c, 4, 57, 0
5, 568080, Note_on_c, 4, 57, 62
5, 568440, Note_off_c, 4, 57, 0
5, 568560, Note_on_c, 4, 60, 63
5, 568920, Note_off_c, 4, 60, 0
5, 569040, Note_on_c, 4, 60, 64
5, 569400, Note_off_c, 4, 60, 0
5, 569520, Note_on_c, 4, 62, 65
5, 570240, Note_off_c, 4, 62, 0
5, 570480, Note_on_c, 4, 58, 66
5, 570840, Note_off_c, 4, 58, 0
5, 570960, Note_on_c, 4, 58, 67
5, 571320, Note_off_c, 4, 58, 0
5, 571440, Note_on_c, 4, 57, 68
5, 571800, Note_off_c, 4, 57, 0
5, 571920, Note_on_c, 4, 57, 69
5, 572280, Note_off_c, 4, 57, 0
5, 572400, Note_on_c, 4, 51, 70
5, 572760, Note_off_c, 4, 51, 0
5, 572880, Note_on_c, 4, 51, 71
5, 573240, Note_off_c, 4, 51, 0
5, 573360, Note_on_c, 4, 50, 72
5, 574080, Note_off_c, 4, 50, 0
5, 587760, Control_c, 4, 64, 0
5, 588240, Note_on_c, 4, 70, 82
5, 589200, Note_off_c, 4, 70, 0
5, 589200, Note_on_c, 4, 69, 69
5, 589560, Note_off_c, 4, 69, 0
5, 598320, Note_on_c, 4, 65, 52
5, 598680, Note_off_c, 4, 65, 0
5, 599280, Note_on_c, 4, 65, 45
5, 599640, Note_off_c, 4, 65, 0
5, 600240, Note_on_c, 4, 69, 60
5, 600600, Note_off_c, 4, 69, 0
5, 601200, Note_on_c, 4, 70, 52
5, 601560, Note_off_c, 4, 70, 0
5, 602640, Note_on_c, 4, 67, 59
5, 603000, Note_off_c, 4, 67, 0
5, 603120, Note_on_c, 4, 67, 63
5, 604050, Note_off_c, 4, 67, 0
5, 604560, Note_on_c, 4, 65, 59
5, 604920, Note_off_c, 4, 65, 0
5, 605040, Note_on_c, 4, 65, 60
5, 605947, Note_off_c, 4, 65, 0
5, 606480, Note_on_c, 4, 70, 60
5, 606840, Note_off_c, 4, 70, 0
5, 606960, Note_on_c, 4, 70, 66
5, 607920, Note_off_c, 4, 70, 0
5, 607920, Note_on_c, 4, 69, 58
5, 608400, Note_off_c, 4, 69, 0
5, 608400, Note_on_c, 4, 70, 54
5, 608760, Note_off_c, 4, 70, 0
5, 608880, Note_on_c, 4, 70, 49
5, 609360, Note_off_c, 4, 70, 0
5, 609360, Note_on_c, 4, 69, 44
5, 609720, Note_off_c, 4, 69, 0
5, 614160, Note_on_c, 4, 58, 73
5, 614520, Note_off_c, 4, 58, 0
5, 614640, Note_on_c, 4, 58, 81
5, 615000, Note_off_c, 4, 58, 0
5, 615120, Note_on_c, 4, 58, 76
5, 616080, Note_off_c, 4, 58, 0
5, 616080, Note_on_c, 4, 57, 64
5, 616440, Note_off_c, 4, 57, 0
5, 616560, Note_on_c, 4, 58, 57
5, 616920, Note_off_c, 4, 58, 0
5, 627120, Note_on_c, 4, 62, 49
5, 627600, Note_off_c, 4, 62, 0
5, 627600, Note_on_c, 4, 63, 45
5, 627960, Note_off_c, 4, 63, 0
5, 628080, Note_on_c, 4, 62, 40
5, 628440, Note_off_c, 4, 62, 0
5, 630960, Note_on_c, 4, 62, 65
5, 631440, Note_off_c, 4, 62, 0
5, 631440, Note_on_c, 4, 63, 62
5, 631800, Note_off_c, 4, 63, 0
5, 631920, Note_on_c, 4, 62, 59
5, 632280, Note_off_c, 4, 62, 0
5, 632400, Note_on_c, 4, 63, 57
5, 632760, Note_off_c, 4, 63, 0
5, 632880, Note_on_c, 4, 62, 54
5, 633240, Note_off_c, 4, 62, 0
5, 633360, Note_on_c, 4, 63, 51
5, 633720, Note_off_c, 4, 63, 0
5, 633840, Note_on_c, 4, 62, 48
5, 634200, Note_off_c, 4, 62, 0
5, 635280, Note_on_c, 4, 63, 40
5, 635640, Note_off_c, 4, 63, 0
5, 635760, Note_on_c, 4, 62, 38
5, 636120, Note_off_c, 4, 62, 0
5, 637200, Note_on_c, 4, 63, 30
5, 637560, Note_off_c, 4, 63, 0
5, 637680, Note_on_c, 4, 62, 27
5, 638040, Note_off_c, 4, 62, 0
5, 641520, End_track
6, 0, Start_track
6, 0, Instrument_name_t, "Roland Serial MIDI Out Port A"
6, 0, Title_t, "Unnamed Track"
6, 0, Control_c, 5, 0, 0
6, 0, Control_c, 5, 32, 0
6, 0, Program_c, 5, 0
6, 0, Control_c, 5, 10, 55
6, 0, Control_c, 5, 1, 0
6, 0, Pitch_bend_c, 5, 8192
6, 0, Control_c, 5, 93, 18
6, 0, Pitch_bend_c, 5, 8192
6, 0, Control_c, 5, 1, 0
6, 0, Control_c, 5, 64, 0
6, 0, Control_c, 5, 91, 100
6, 0, Control_c, 5, 93, 28
6, 0, Control_c, 5, 64, 0
6, 0, Control_c, 5, 1, 0
6, 0, Pitch_bend_c, 5, 8192
6, 0, Control_c, 5, 7, 125
6, 1920, Note_on_c, 5, 58, 65
6, 2640, Note_off_c, 5, 58, 0
6, 2880, Note_on_c, 5, 60, 62
6, 3600, Note_off_c, 5, 60, 0
6, 3840, Note_on_c, 5, 62, 58
6, 4560, Note_off_c, 5, 62, 0
6, 5760, Note_on_c, 5, 51, 79
6, 5760, Note_on_c, 5, 63, 79
6, 6120, Note_off_c, 5, 51, 0
6, 6120, Note_off_c, 5, 63, 0
6, 6240, Note_on_c, 5, 46, 74
6, 6240, Note_on_c, 5, 58, 74
6, 6600, Note_off_c, 5, 46, 0
6, 6600, Note_off_c, 5, 58, 0
6, 7680, Note_on_c, 5, 41, 79
6, 7680, Note_on_c, 5, 53, 79
6, 7990, Note_off_c, 5, 41, 0
6, 7990, Note_off_c, 5, 53, 0
6, 8160, Note_on_c, 5, 46, 73
6, 8160, Note_on_c, 5, 58, 73
6, 8470, Note_off_c, 5, 46, 0
6, 8470, Note_off_c, 5, 58, 0
6, 9600, Note_on_c, 5, 46, 55
6, 10320, Note_off_c, 5, 46, 0
6, 10560, Note_on_c, 5, 48, 52
6, 11280, Note_off_c, 5, 48, 0
6, 11520, Note_on_c, 5, 50, 50
6, 12240, Note_off_c, 5, 50, 0
6, 13360, Note_on_c, 5, 51, 73
6, 14180, Note_off_c, 5, 51, 0
6, 14400, Note_on_c, 5, 53, 79
6, 15190, Note_off_c, 5, 53, 0
6, 23280, Note_on_c, 5, 58, 57
6, 23430, Note_off_c, 5, 58, 0
6, 23520, Note_on_c, 5, 62, 56
6, 23670, Note_off_c, 5, 62, 0
6, 23760, Note_on_c, 5, 65, 56
6, 23910, Note_off_c, 5, 65, 0
6, 24000, Note_on_c, 5, 58, 56
6, 24310, Note_off_c, 5, 58, 0
6, 25200, Note_on_c, 5, 53, 55
6, 25350, Note_off_c, 5, 53, 0
6, 25440, Note_on_c, 5, 57, 55
6, 25590, Note_off_c, 5, 57, 0
6, 25680, Note_on_c, 5, 60, 55
6, 25830, Note_off_c, 5, 60, 0
6, 25920, Note_on_c, 5, 53, 54
6, 26230, Note_off_c, 5, 53, 0
6, 27120, Note_on_c, 5, 34, 77
6, 27120, Note_on_c, 5, 46, 77
6, 27270, Note_off_c, 5, 34, 0
6, 27270, Note_off_c, 5, 46, 0
6, 27360, Note_on_c, 5, 50, 77
6, 27360, Note_on_c, 5, 38, 77
6, 27510, Note_off_c, 5, 50, 0
6, 27510, Note_off_c, 5, 38, 0
6, 27600, Note_on_c, 5, 41, 77
6, 27600, Note_on_c, 5, 53, 77
6, 27750, Note_off_c, 5, 41, 0
6, 27750, Note_off_c, 5, 53, 0
6, 27840, Note_on_c, 5, 34, 76
6, 27840, Note_on_c, 5, 46, 76
6, 28150, Note_off_c, 5, 34, 0
6, 28150, Note_off_c, 5, 46, 0
6, 28560, Note_on_c, 5, 62, 75
6, 28800, Note_off_c, 5, 62, 0
6, 28800, Note_on_c, 5, 63, 74
6, 29760, Note_off_c, 5, 63, 0
6, 30480, Note_on_c, 5, 64, 72
6, 30720, Note_off_c, 5, 64, 0
6, 30720, Note_on_c, 5, 65, 71
6, 31200, Note_off_c, 5, 65, 0
6, 31680, Note_on_c, 5, 45, 69
6, 31750, Note_off_c, 5, 45, 0
6, 31800, Note_on_c, 5, 46, 69
6, 31870, Note_off_c, 5, 46, 0
6, 31920, Note_on_c, 5, 48, 69
6, 31990, Note_off_c, 5, 48, 0
6, 32040, Note_on_c, 5, 50, 69
6, 32110, Note_off_c, 5, 50, 0
6, 32160, Note_on_c, 5, 52, 69
6, 32280, Note_off_c, 5, 52, 0
6, 32280, Note_on_c, 5, 53, 68
6, 32400, Note_off_c, 5, 53, 0
6, 32400, Note_on_c, 5, 52, 68
6, 32520, Note_off_c, 5, 52, 0
6, 32520, Note_on_c, 5, 53, 68
6, 32610, Note_off_c, 5, 53, 0
6, 32640, Note_on_c, 5, 41, 68
6, 32950, Note_off_c, 5, 41, 0
6, 34560, Note_on_c, 5, 65, 48
6, 34920, Note_off_c, 5, 65, 0
6, 35040, Note_on_c, 5, 69, 45
6, 35280, Note_off_c, 5, 69, 0
6, 35520, Note_on_c, 5, 67, 43
6, 35880, Note_off_c, 5, 67, 0
6, 36000, Note_on_c, 5, 70, 41
6, 36240, Note_off_c, 5, 70, 0
6, 36480, Note_on_c, 5, 69, 38
6, 36840, Note_off_c, 5, 69, 0
6, 38400, Note_on_c, 5, 65, 45
6, 38760, Note_off_c, 5, 65, 0
6, 38880, Note_on_c, 5, 69, 42
6, 39120, Note_off_c, 5, 69, 0
6, 39360, Note_on_c, 5, 64, 39
6, 39720, Note_off_c, 5, 64, 0
6, 39840, Note_on_c, 5, 67, 37
6, 40080, Note_off_c, 5, 67, 0
6, 40320, Note_on_c, 5, 65, 35
6, 40680, Note_off_c, 5, 65, 0
6, 42240, Note_on_c, 5, 46, 72
6, 42240, Note_on_c, 5, 58, 72
6, 43200, Note_off_c, 5, 46, 0
6, 43200, Note_off_c, 5, 58, 0
6, 44160, Note_on_c, 5, 67, 62
6, 44280, Note_off_c, 5, 67, 0
6, 44280, Note_on_c, 5, 69, 63
6, 44400, Note_off_c, 5, 69, 0
6, 44400, Note_on_c, 5, 70, 63
6, 44520, Note_off_c, 5, 70, 0
6, 44520, Note_on_c, 5, 69, 64
6, 44640, Note_off_c, 5, 69, 0
6, 44640, Note_on_c, 5, 67, 64
6, 44760, Note_off_c, 5, 67, 0
6, 44760, Note_on_c, 5, 69, 65
6, 44880, Note_off_c, 5, 69, 0
6, 44880, Note_on_c, 5, 65, 65
6, 45000, Note_off_c, 5, 65, 0
6, 45000, Note_on_c, 5, 67, 66
6, 45120, Note_off_c, 5, 67, 0
6, 45120, Note_on_c, 5, 64, 66
6, 45240, Note_off_c, 5, 64, 0
6, 45240, Note_on_c, 5, 65, 67
6, 45360, Note_off_c, 5, 65, 0
6, 45360, Note_on_c, 5, 62, 67
6, 45480, Note_off_c, 5, 62, 0
6, 45480, Note_on_c, 5, 64, 68
6, 45600, Note_off_c, 5, 64, 0
6, 45600, Note_on_c, 5, 60, 68
6, 45720, Note_off_c, 5, 60, 0
6, 45720, Note_on_c, 5, 62, 69
6, 45840, Note_off_c, 5, 62, 0
6, 45840, Note_on_c, 5, 58, 69
6, 45960, Note_off_c, 5, 58, 0
6, 45960, Note_on_c, 5, 60, 70
6, 46080, Note_off_c, 5, 60, 0
6, 46080, Note_on_c, 5, 45, 70
6, 46080, Note_on_c, 5, 57, 70
6, 47040, Note_off_c, 5, 45, 0
6, 47040, Note_off_c, 5, 57, 0
6, 48000, Note_on_c, 5, 65, 60
6, 48120, Note_off_c, 5, 65, 0
6, 48120, Note_on_c, 5, 67, 60
6, 48240, Note_off_c, 5, 67, 0
6, 48240, Note_on_c, 5, 69, 61
6, 48360, Note_off_c, 5, 69, 0
6, 48360, Note_on_c, 5, 67, 61
6, 48480, Note_off_c, 5, 67, 0
6, 48480, Note_on_c, 5, 65, 62
6, 48600, Note_off_c, 5, 65, 0
6, 48600, Note_on_c, 5, 67, 62
6, 48720, Note_off_c, 5, 67, 0
6, 48720, Note_on_c, 5, 64, 63
6, 48840, Note_off_c, 5, 64, 0
6, 48840, Note_on_c, 5, 65, 63
6, 48960, Note_off_c, 5, 65, 0
6, 48960, Note_on_c, 5, 62, 64
6, 49080, Note_off_c, 5, 62, 0
6, 49080, Note_on_c, 5, 64, 64
6, 49200, Note_off_c, 5, 64, 0
6, 49200, Note_on_c, 5, 60, 65
6, 49320, Note_off_c, 5, 60, 0
6, 49320, Note_on_c, 5, 62, 65
6, 49440, Note_off_c, 5, 62, 0
6, 49440, Note_on_c, 5, 58, 66
6, 49560, Note_off_c, 5, 58, 0
6, 49560, Note_on_c, 5, 60, 66
6, 49680, Note_off_c, 5, 60, 0
6, 49680, Note_on_c, 5, 57, 67
6, 49800, Note_off_c, 5, 57, 0
6, 49800, Note_on_c, 5, 58, 67
6, 49920, Note_off_c, 5, 58, 0
6, 49920, Note_on_c, 5, 55, 67
6, 49920, Note_on_c, 5, 43, 67
6, 50880, Note_off_c, 5, 55, 0
6, 50880, Note_off_c, 5, 43, 0
6, 57600, Note_on_c, 5, 53, 61
6, 57600, Note_on_c, 5, 65, 61
6, 57960, Note_off_c, 5, 53, 0
6, 57960, Note_off_c, 5, 65, 0
6, 58080, Note_on_c, 5, 48, 60
6, 58080, Note_on_c, 5, 60, 60
6, 58440, Note_off_c, 5, 48, 0
6, 58440, Note_off_c, 5, 60, 0
6, 58560, Note_on_c, 5, 57, 60
6, 58560, Note_on_c, 5, 45, 60
6, 58920, Note_off_c, 5, 57, 0
6, 58920, Note_off_c, 5, 45, 0
6, 59040, Note_on_c, 5, 41, 60
6, 59040, Note_on_c, 5, 53, 60
6, 59400, Note_off_c, 5, 41, 0
6, 59400, Note_off_c, 5, 53, 0
6, 66480, Note_on_c, 5, 41, 71
6, 66480, Note_on_c, 5, 53, 71
6, 66636, Note_off_c, 5, 41, 0
6, 66636, Note_off_c, 5, 53, 0
6, 66720, Note_on_c, 5, 45, 71
6, 66720, Note_on_c, 5, 57, 71
6, 66876, Note_off_c, 5, 45, 0
6, 66876, Note_off_c, 5, 57, 0
6, 66960, Note_on_c, 5, 41, 70
6, 66960, Note_on_c, 5, 53, 70
6, 67116, Note_off_c, 5, 41, 0
6, 67116, Note_off_c, 5, 53, 0
6, 67200, Note_on_c, 5, 58, 70
6, 67200, Note_on_c, 5, 46, 70
6, 67560, Note_off_c, 5, 58, 0
6, 67560, Note_off_c, 5, 46, 0
6, 67680, Note_on_c, 5, 55, 48
6, 68040, Note_off_c, 5, 55, 0
6, 68160, Note_on_c, 5, 60, 47
6, 68520, Note_off_c, 5, 60, 0
6, 68640, Note_on_c, 5, 48, 46
6, 69000, Note_off_c, 5, 48, 0
6, 69120, Note_on_c, 5, 53, 63
6, 69480, Note_off_c, 5, 53, 0
6, 70320, Note_on_c, 5, 53, 60
6, 70320, Note_on_c, 5, 41, 60
6, 70476, Note_off_c, 5, 53, 0
6, 70476, Note_off_c, 5, 41, 0
6, 70560, Note_on_c, 5, 45, 59
6, 70560, Note_on_c, 5, 57, 59
6, 70716, Note_off_c, 5, 45, 0
6, 70716, Note_off_c, 5, 57, 0
6, 70800, Note_on_c, 5, 41, 59
6, 70800, Note_on_c, 5, 53, 59
6, 70956, Note_off_c, 5, 41, 0
6, 70956, Note_off_c, 5, 53, 0
6, 71040, Note_on_c, 5, 58, 58
6, 71040, Note_on_c, 5, 46, 58
6, 71400, Note_off_c, 5, 58, 0
6, 71400, Note_off_c, 5, 46, 0
6, 71520, Note_on_c, 5, 55, 39
6, 71880, Note_off_c, 5, 55, 0
6, 72000, Note_on_c, 5, 60, 38
6, 72360, Note_off_c, 5, 60, 0
6, 72480, Note_on_c, 5, 48, 37
6, 72840, Note_off_c, 5, 48, 0
6, 72960, Note_on_c, 5, 41, 39
6, 73320, Note_off_c, 5, 41, 0
6, 73440, Note_on_c, 5, 41, 43
6, 73800, Note_off_c, 5, 41, 0
6, 73920, Note_on_c, 5, 41, 47
6, 74280, Note_off_c, 5, 41, 0
6, 74400, Note_on_c, 5, 41, 51
6, 74760, Note_off_c, 5, 41, 0
6, 74880, Note_on_c, 5, 41, 56
6, 75240, Note_off_c, 5, 41, 0
6, 75360, Note_on_c, 5, 41, 60
6, 75720, Note_off_c, 5, 41, 0
6, 75840, Note_on_c, 5, 41, 64
6, 76200, Note_off_c, 5, 41, 0
6, 76320, Note_on_c, 5, 41, 68
6, 76680, Note_off_c, 5, 41, 0
6, 76800, Note_on_c, 5, 41, 73
6, 76800, Note_on_c, 5, 53, 73
6, 78240, Note_off_c, 5, 41, 0
6, 78240, Note_off_c, 5, 53, 0
6, 86400, Note_on_c, 5, 57, 42
6, 87360, Note_off_c, 5, 57, 0
6, 87360, Note_on_c, 5, 58, 41
6, 88320, Note_off_c, 5, 58, 0
6, 88320, Note_on_c, 5, 57, 39
6, 89280, Note_off_c, 5, 57, 0
6, 90160, Note_on_c, 5, 46, 74
6, 91180, Note_off_c, 5, 46, 0
6, 91200, Note_on_c, 5, 48, 81
6, 92045, Note_off_c, 5, 48, 0
6, 92160, Note_on_c, 5, 53, 71
6, 92264, Note_off_c, 5, 53, 0
6, 92320, Note_on_c, 5, 55, 71
6, 92424, Note_off_c, 5, 55, 0
6, 92480, Note_on_c, 5, 57, 71
6, 92584, Note_off_c, 5, 57, 0
6, 92640, Note_on_c, 5, 58, 71
6, 92744, Note_off_c, 5, 58, 0
6, 92800, Note_on_c, 5, 60, 70
6, 92904, Note_off_c, 5, 60, 0
6, 92960, Note_on_c, 5, 62, 70
6, 93064, Note_off_c, 5, 62, 0
6, 93120, Note_on_c, 5, 63, 71
6, 93224, Note_off_c, 5, 63, 0
6, 93280, Note_on_c, 5, 62, 70
6, 93384, Note_off_c, 5, 62, 0
6, 93440, Note_on_c, 5, 60, 69
6, 93544, Note_off_c, 5, 60, 0
6, 93600, Note_on_c, 5, 58, 68
6, 93704, Note_off_c, 5, 58, 0
6, 93760, Note_on_c, 5, 57, 67
6, 93864, Note_off_c, 5, 57, 0
6, 93920, Note_on_c, 5, 55, 65
6, 94024, Note_off_c, 5, 55, 0
6, 94080, Note_on_c, 5, 54, 64
6, 95040, Note_off_c, 5, 54, 0
6, 96000, Note_on_c, 5, 55, 65
6, 96104, Note_off_c, 5, 55, 0
6, 96160, Note_on_c, 5, 58, 65
6, 96264, Note_off_c, 5, 58, 0
6, 96320, Note_on_c, 5, 60, 65
6, 96424, Note_off_c, 5, 60, 0
6, 96480, Note_on_c, 5, 62, 64
6, 96584, Note_off_c, 5, 62, 0
6, 96640, Note_on_c, 5, 65, 64
6, 96744, Note_off_c, 5, 65, 0
6, 96800, Note_on_c, 5, 67, 64
6, 96904, Note_off_c, 5, 67, 0
6, 96960, Note_on_c, 5, 68, 65
6, 97064, Note_off_c, 5, 68, 0
6, 97120, Note_on_c, 5, 67, 64
6, 97224, Note_off_c, 5, 67, 0
6, 97280, Note_on_c, 5, 65, 63
6, 97384, Note_off_c, 5, 65, 0
6, 97440, Note_on_c, 5, 63, 62
6, 97544, Note_off_c, 5, 63, 0
6, 97600, Note_on_c, 5, 62, 61
6, 97704, Note_off_c, 5, 62, 0
6, 97760, Note_on_c, 5, 60, 60
6, 97864, Note_off_c, 5, 60, 0
6, 97920, Note_on_c, 5, 59, 59
6, 98880, Note_off_c, 5, 59, 0
6, 99840, Note_on_c, 5, 48, 59
6, 99944, Note_off_c, 5, 48, 0
6, 100000, Note_on_c, 5, 50, 59
6, 100104, Note_off_c, 5, 50, 0
6, 100160, Note_on_c, 5, 52, 58
6, 100264, Note_off_c, 5, 52, 0
6, 100320, Note_on_c, 5, 53, 58
6, 100424, Note_off_c, 5, 53, 0
6, 100480, Note_on_c, 5, 55, 58
6, 100584, Note_off_c, 5, 55, 0
6, 100640, Note_on_c, 5, 57, 58
6, 100744, Note_off_c, 5, 57, 0
6, 100800, Note_on_c, 5, 58, 59
6, 100904, Note_off_c, 5, 58, 0
6, 100960, Note_on_c, 5, 57, 58
6, 101064, Note_off_c, 5, 57, 0
6, 101120, Note_on_c, 5, 55, 57
6, 101224, Note_off_c, 5, 55, 0
6, 101280, Note_on_c, 5, 53, 56
6, 101384, Note_off_c, 5, 53, 0
6, 101440, Note_on_c, 5, 52, 55
6, 101544, Note_off_c, 5, 52, 0
6, 101600, Note_on_c, 5, 50, 54
6, 101704, Note_off_c, 5, 50, 0
6, 101760, Note_on_c, 5, 49, 53
6, 102240, Note_off_c, 5, 49, 0
6, 102720, Note_on_c, 5, 61, 47
6, 103200, Note_off_c, 5, 61, 0
6, 103680, Note_on_c, 5, 50, 79
6, 103680, Note_on_c, 5, 62, 79
6, 103968, Note_off_c, 5, 50, 0
6, 103968, Note_off_c, 5, 62, 0
6, 104160, Note_on_c, 5, 48, 74
6, 104160, Note_on_c, 5, 60, 74
6, 104448, Note_off_c, 5, 48, 0
6, 104448, Note_off_c, 5, 60, 0
6, 105600, Note_on_c, 5, 46, 77
6, 105600, Note_on_c, 5, 58, 77
6, 106560, Note_off_c, 5, 46, 0
6, 106560, Note_off_c, 5, 58, 0
6, 107040, Note_on_c, 5, 48, 75
6, 107040, Note_on_c, 5, 60, 75
6, 107400, Note_off_c, 5, 48, 0
6, 107400, Note_off_c, 5, 60, 0
6, 107520, Note_on_c, 5, 46, 75
6, 107520, Note_on_c, 5, 58, 75
6, 108480, Note_off_c, 5, 46, 0
6, 108480, Note_off_c, 5, 58, 0
6, 108960, Note_on_c, 5, 51, 73
6, 108960, Note_on_c, 5, 63, 73
6, 109320, Note_off_c, 5, 51, 0
6, 109320, Note_off_c, 5, 63, 0
6, 117360, Note_on_c, 5, 55, 48
6, 117600, Note_off_c, 5, 55, 0
6, 117600, Note_on_c, 5, 58, 50
6, 118080, Note_off_c, 5, 58, 0
6, 118320, Note_on_c, 5, 55, 54
6, 118560, Note_off_c, 5, 55, 0
6, 118560, Note_on_c, 5, 58, 56
6, 119040, Note_off_c, 5, 58, 0
6, 119280, Note_on_c, 5, 55, 60
6, 119520, Note_off_c, 5, 55, 0
6, 119520, Note_on_c, 5, 58, 62
6, 120000, Note_off_c, 5, 58, 0
6, 120240, Note_on_c, 5, 55, 66
6, 120480, Note_off_c, 5, 55, 0
6, 120480, Note_on_c, 5, 58, 68
6, 120875, Note_off_c, 5, 58, 0
6, 120880, Note_on_c, 5, 53, 73
6, 122875, Note_off_c, 5, 53, 0
6, 122880, Note_on_c, 5, 51, 42
6, 123240, Note_off_c, 5, 51, 0
6, 123360, Note_on_c, 5, 55, 45
6, 123720, Note_off_c, 5, 55, 0
6, 123840, Note_on_c, 5, 58, 47
6, 124200, Note_off_c, 5, 58, 0
6, 124320, Note_on_c, 5, 63, 50
6, 124680, Note_off_c, 5, 63, 0
6, 124720, Note_on_c, 5, 53, 63
6, 126715, Note_off_c, 5, 53, 0
6, 126720, Note_on_c, 5, 51, 55
6, 127200, Note_off_c, 5, 51, 0
6, 130080, Note_on_c, 5, 55, 67
6, 130080, Note_on_c, 5, 43, 67
6, 130440, Note_off_c, 5, 55, 0
6, 130440, Note_off_c, 5, 43, 0
6, 130560, Note_on_c, 5, 41, 63
6, 130560, Note_on_c, 5, 53, 63
6, 130920, Note_off_c, 5, 41, 0
6, 130920, Note_off_c, 5, 53, 0
6, 131280, Note_on_c, 5, 70, 58
6, 131473, Note_off_c, 5, 70, 0
6, 131520, Note_on_c, 5, 69, 55
6, 131880, Note_off_c, 5, 69, 0
6, 132240, Note_on_c, 5, 70, 48
6, 132433, Note_off_c, 5, 70, 0
6, 132480, Note_on_c, 5, 69, 45
6, 132840, Note_off_c, 5, 69, 0
6, 134400, Note_on_c, 5, 58, 65
6, 135120, Note_off_c, 5, 58, 0
6, 135360, Note_on_c, 5, 60, 62
6, 136080, Note_off_c, 5, 60, 0
6, 136320, Note_on_c, 5, 62, 58
6, 137040, Note_off_c, 5, 62, 0
6, 138240, Note_on_c, 5, 63, 79
6, 138240, Note_on_c, 5, 51, 79
6, 138600, Note_off_c, 5, 63, 0
6, 138600, Note_off_c, 5, 51, 0
6, 138720, Note_on_c, 5, 58, 74
6, 138720, Note_on_c, 5, 46, 74
6, 139080, Note_off_c, 5, 58, 0
6, 139080, Note_off_c, 5, 46, 0
6, 140160, Note_on_c, 5, 53, 79
6, 140160, Note_on_c, 5, 41, 79
6, 140470, Note_off_c, 5, 53, 0
6, 140470, Note_off_c, 5, 41, 0
6, 140640, Note_on_c, 5, 58, 73
6, 140640, Note_on_c, 5, 46, 73
6, 140950, Note_off_c, 5, 58, 0
6, 140950, Note_off_c, 5, 46, 0
6, 142080, Note_on_c, 5, 46, 55
6, 142800, Note_off_c, 5, 46, 0
6, 143040, Note_on_c, 5, 48, 52
6, 143760, Note_off_c, 5, 48, 0
6, 144000, Note_on_c, 5, 50, 50
6, 144720, Note_off_c, 5, 50, 0
6, 145840, Note_on_c, 5, 51, 73
6, 146660, Note_off_c, 5, 51, 0
6, 146880, Note_on_c, 5, 53, 79
6, 147670, Note_off_c, 5, 53, 0
6, 155760, Note_on_c, 5, 58, 57
6, 155910, Note_off_c, 5, 58, 0
6, 156000, Note_on_c, 5, 62, 56
6, 156150, Note_off_c, 5, 62, 0
6, 156240, Note_on_c, 5, 65, 56
6, 156390, Note_off_c, 5, 65, 0
6, 156480, Note_on_c, 5, 58, 56
6, 156790, Note_off_c, 5, 58, 0
6, 157680, Note_on_c, 5, 53, 55
6, 157830, Note_off_c, 5, 53, 0
6, 157920, Note_on_c, 5, 57, 55
6, 158070, Note_off_c, 5, 57, 0
6, 158160, Note_on_c, 5, 60, 55
6, 158310, Note_off_c, 5, 60, 0
6, 158400, Note_on_c, 5, 53, 54
6, 158710, Note_off_c, 5, 53, 0
6, 159600, Note_on_c, 5, 46, 77
6, 159600, Note_on_c, 5, 34, 77
6, 159750, Note_off_c, 5, 46, 0
6, 159750, Note_off_c, 5, 34, 0
6, 159840, Note_on_c, 5, 38, 77
6, 159840, Note_on_c, 5, 50, 77
6, 159990, Note_off_c, 5, 38, 0
6, 159990, Note_off_c, 5, 50, 0
6, 160080, Note_on_c, 5, 53, 77
6, 160080, Note_on_c, 5, 41, 77
6, 160230, Note_off_c, 5, 53, 0
6, 160230, Note_off_c, 5, 41, 0
6, 160320, Note_on_c, 5, 46, 76
6, 160320, Note_on_c, 5, 34, 76
6, 160630, Note_off_c, 5, 46, 0
6, 160630, Note_off_c, 5, 34, 0
6, 161040, Note_on_c, 5, 62, 75
6, 161280, Note_off_c, 5, 62, 0
6, 161280, Note_on_c, 5, 63, 74
6, 162240, Note_off_c, 5, 63, 0
6, 162960, Note_on_c, 5, 64, 72
6, 163200, Note_off_c, 5, 64, 0
6, 163200, Note_on_c, 5, 65, 71
6, 163680, Note_off_c, 5, 65, 0
6, 164160, Note_on_c, 5, 45, 69
6, 164230, Note_off_c, 5, 45, 0
6, 164280, Note_on_c, 5, 46, 69
6, 164350, Note_off_c, 5, 46, 0
6, 164400, Note_on_c, 5, 48, 69
6, 164470, Note_off_c, 5, 48, 0
6, 164520, Note_on_c, 5, 50, 69
6, 164590, Note_off_c, 5, 50, 0
6, 164640, Note_on_c, 5, 52, 69
6, 164760, Note_off_c, 5, 52, 0
6, 164760, Note_on_c, 5, 53, 68
6, 164880, Note_off_c, 5, 53, 0
6, 164880, Note_on_c, 5, 52, 68
6, 165000, Note_off_c, 5, 52, 0
6, 165000, Note_on_c, 5, 53, 68
6, 165090, Note_off_c, 5, 53, 0
6, 165120, Note_on_c, 5, 41, 68
6, 165430, Note_off_c, 5, 41, 0
6, 167040, Note_on_c, 5, 58, 48
6, 167400, Note_off_c, 5, 58, 0
6, 167520, Note_on_c, 5, 62, 45
6, 167880, Note_off_c, 5, 62, 0
6, 168000, Note_on_c, 5, 60, 43
6, 168360, Note_off_c, 5, 60, 0
6, 168480, Note_on_c, 5, 63, 41
6, 168840, Note_off_c, 5, 63, 0
6, 168960, Note_on_c, 5, 62, 38
6, 169320, Note_off_c, 5, 62, 0
6, 170880, Note_on_c, 5, 58, 45
6, 171240, Note_off_c, 5, 58, 0
6, 171360, Note_on_c, 5, 62, 42
6, 171720, Note_off_c, 5, 62, 0
6, 171840, Note_on_c, 5, 57, 39
6, 172200, Note_off_c, 5, 57, 0
6, 172320, Note_on_c, 5, 60, 37
6, 172680, Note_off_c, 5, 60, 0
6, 172800, Note_on_c, 5, 58, 35
6, 173160, Note_off_c, 5, 58, 0
6, 174720, Note_on_c, 5, 51, 72
6, 174720, Note_on_c, 5, 39, 72
6, 175680, Note_off_c, 5, 51, 0
6, 175680, Note_off_c, 5, 39, 0
6, 176640, Note_on_c, 5, 60, 66
6, 176760, Note_off_c, 5, 60, 0
6, 176760, Note_on_c, 5, 62, 66
6, 176880, Note_off_c, 5, 62, 0
6, 176880, Note_on_c, 5, 63, 66
6, 177000, Note_off_c, 5, 63, 0
6, 177000, Note_on_c, 5, 62, 67
6, 177120, Note_off_c, 5, 62, 0
6, 177120, Note_on_c, 5, 60, 67
6, 177240, Note_off_c, 5, 60, 0
6, 177240, Note_on_c, 5, 62, 67
6, 177360, Note_off_c, 5, 62, 0
6, 177360, Note_on_c, 5, 58, 68
6, 177480, Note_off_c, 5, 58, 0
6, 177480, Note_on_c, 5, 60, 68
6, 177600, Note_off_c, 5, 60, 0
6, 177600, Note_on_c, 5, 57, 68
6, 177720, Note_off_c, 5, 57, 0
6, 177720, Note_on_c, 5, 58, 69
6, 177840, Note_off_c, 5, 58, 0
6, 177840, Note_on_c, 5, 55, 69
6, 177960, Note_off_c, 5, 55, 0
6, 177960, Note_on_c, 5, 57, 69
6, 178080, Note_off_c, 5, 57, 0
6, 178080, Note_on_c, 5, 53, 70
6, 178200, Note_off_c, 5, 53, 0
6, 178200, Note_on_c, 5, 55, 70
6, 178320, Note_off_c, 5, 55, 0
6, 178320, Note_on_c, 5, 51, 70
6, 178440, Note_off_c, 5, 51, 0
6, 178440, Note_on_c, 5, 53, 71
6, 178560, Note_off_c, 5, 53, 0
6, 178560, Note_on_c, 5, 50, 71
6, 178560, Note_on_c, 5, 38, 71
6, 179520, Note_off_c, 5, 50, 0
6, 179520, Note_off_c, 5, 38, 0
6, 180480, Note_on_c, 5, 58, 60
6, 180600, Note_off_c, 5, 58, 0
6, 180600, Note_on_c, 5, 60, 60
6, 180720, Note_off_c, 5, 60, 0
6, 180720, Note_on_c, 5, 62, 61
6, 180840, Note_off_c, 5, 62, 0
6, 180840, Note_on_c, 5, 60, 62
6, 180960, Note_off_c, 5, 60, 0
6, 180960, Note_on_c, 5, 58, 62
6, 181080, Note_off_c, 5, 58, 0
6, 181080, Note_on_c, 5, 60, 63
6, 181200, Note_off_c, 5, 60, 0
6, 181200, Note_on_c, 5, 57, 63
6, 181320, Note_off_c, 5, 57, 0
6, 181320, Note_on_c, 5, 58, 64
6, 181440, Note_off_c, 5, 58, 0
6, 181440, Note_on_c, 5, 55, 64
6, 181560, Note_off_c, 5, 55, 0
6, 181560, Note_on_c, 5, 57, 65
6, 181680, Note_off_c, 5, 57, 0
6, 181680, Note_on_c, 5, 53, 65
6, 181800, Note_off_c, 5, 53, 0
6, 181800, Note_on_c, 5, 55, 66
6, 181920, Note_off_c, 5, 55, 0
6, 181920, Note_on_c, 5, 51, 67
6, 182040, Note_off_c, 5, 51, 0
6, 182040, Note_on_c, 5, 53, 67
6, 182160, Note_off_c, 5, 53, 0
6, 182160, Note_on_c, 5, 50, 68
6, 182280, Note_off_c, 5, 50, 0
6, 182280, Note_on_c, 5, 51, 68
6, 182400, Note_off_c, 5, 51, 0
6, 182400, Note_on_c, 5, 36, 69
6, 182400, Note_on_c, 5, 48, 69
6, 183360, Note_off_c, 5, 36, 0
6, 183360, Note_off_c, 5, 48, 0
6, 190080, Note_on_c, 5, 70, 61
6, 190080, Note_on_c, 5, 58, 61
6, 190440, Note_off_c, 5, 70, 0
6, 190440, Note_off_c, 5, 58, 0
6, 190560, Note_on_c, 5, 65, 60
6, 190560, Note_on_c, 5, 53, 60
6, 190920, Note_off_c, 5, 65, 0
6, 190920, Note_off_c, 5, 53, 0
6, 191040, Note_on_c, 5, 50, 60
6, 191040, Note_on_c, 5, 62, 60
6, 191400, Note_off_c, 5, 50, 0
6, 191400, Note_off_c, 5, 62, 0
6, 191520, Note_on_c, 5, 58, 60
6, 191520, Note_on_c, 5, 46, 60
6, 191880, Note_off_c, 5, 58, 0
6, 191880, Note_off_c, 5, 46, 0
6, 198960, Note_on_c, 5, 58, 71
6, 198960, Note_on_c, 5, 46, 71
6, 199116, Note_off_c, 5, 58, 0
6, 199116, Note_off_c, 5, 46, 0
6, 199200, Note_on_c, 5, 50, 71
6, 199200, Note_on_c, 5, 62, 71
6, 199356, Note_off_c, 5, 50, 0
6, 199356, Note_off_c, 5, 62, 0
6, 199440, Note_on_c, 5, 58, 70
6, 199440, Note_on_c, 5, 46, 70
6, 199596, Note_off_c, 5, 58, 0
6, 199596, Note_off_c, 5, 46, 0
6, 199680, Note_on_c, 5, 51, 70
6, 200040, Note_off_c, 5, 51, 0
6, 200160, Note_on_c, 5, 60, 48
6, 200520, Note_off_c, 5, 60, 0
6, 200640, Note_on_c, 5, 65, 47
6, 201000, Note_off_c, 5, 65, 0
6, 201120, Note_on_c, 5, 53, 46
6, 201480, Note_off_c, 5, 53, 0
6, 201600, Note_on_c, 5, 58, 63
6, 201960, Note_off_c, 5, 58, 0
6, 202800, Note_on_c, 5, 34, 60
6, 202800, Note_on_c, 5, 46, 60
6, 202956, Note_off_c, 5, 34, 0
6, 202956, Note_off_c, 5, 46, 0
6, 203040, Note_on_c, 5, 50, 59
6, 203040, Note_on_c, 5, 38, 59
6, 203196, Note_off_c, 5, 50, 0
6, 203196, Note_off_c, 5, 38, 0
6, 203280, Note_on_c, 5, 46, 59
6, 203280, Note_on_c, 5, 34, 59
6, 203436, Note_off_c, 5, 46, 0
6, 203436, Note_off_c, 5, 34, 0
6, 203520, Note_on_c, 5, 39, 58
6, 203520, Note_on_c, 5, 51, 58
6, 203880, Note_off_c, 5, 39, 0
6, 203880, Note_off_c, 5, 51, 0
6, 204000, Note_on_c, 5, 48, 39
6, 204360, Note_off_c, 5, 48, 0
6, 204480, Note_on_c, 5, 53, 38
6, 204840, Note_off_c, 5, 53, 0
6, 204960, Note_on_c, 5, 41, 37
6, 205320, Note_off_c, 5, 41, 0
6, 205440, Note_on_c, 5, 34, 40
6, 205800, Note_off_c, 5, 34, 0
6, 205920, Note_on_c, 5, 34, 45
6, 206280, Note_off_c, 5, 34, 0
6, 206400, Note_on_c, 5, 34, 49
6, 206760, Note_off_c, 5, 34, 0
6, 206880, Note_on_c, 5, 34, 54
6, 207240, Note_off_c, 5, 34, 0
6, 207360, Note_on_c, 5, 34, 59
6, 207720, Note_off_c, 5, 34, 0
6, 207840, Note_on_c, 5, 34, 63
6, 208200, Note_off_c, 5, 34, 0
6, 208320, Note_on_c, 5, 34, 68
6, 208680, Note_off_c, 5, 34, 0
6, 208800, Note_on_c, 5, 34, 72
6, 209160, Note_off_c, 5, 34, 0
6, 209280, Note_on_c, 5, 46, 77
6, 209280, Note_on_c, 5, 34, 77
6, 210720, Note_off_c, 5, 46, 0
6, 210720, Note_off_c, 5, 34, 0
6, 211920, Note_on_c, 5, 51, 77
6, 211920, Note_on_c, 5, 39, 77
6, 212112, Note_off_c, 5, 51, 0
6, 212112, Note_off_c, 5, 39, 0
6, 213840, Note_on_c, 5, 51, 61
6, 213840, Note_on_c, 5, 63, 61
6, 214032, Note_off_c, 5, 51, 0
6, 214032, Note_off_c, 5, 63, 0
6, 214080, Note_on_c, 5, 62, 64
6, 214080, Note_on_c, 5, 50, 64
6, 214320, Note_off_c, 5, 62, 0
6, 214320, Note_off_c, 5, 50, 0
6, 214320, Note_on_c, 5, 60, 66
6, 214320, Note_on_c, 5, 48, 66
6, 214560, Note_off_c, 5, 60, 0
6, 214560, Note_off_c, 5, 48, 0
6, 214560, Note_on_c, 5, 46, 68
6, 214560, Note_on_c, 5, 58, 68
6, 214800, Note_off_c, 5, 46, 0
6, 214800, Note_off_c, 5, 58, 0
6, 214800, Note_on_c, 5, 56, 70
6, 214800, Note_on_c, 5, 44, 70
6, 215040, Note_off_c, 5, 56, 0
6, 215040, Note_off_c, 5, 44, 0
6, 215040, Note_on_c, 5, 55, 69
6, 215040, Note_on_c, 5, 43, 69
6, 215280, Note_off_c, 5, 55, 0
6, 215280, Note_off_c, 5, 43, 0
6, 215280, Note_on_c, 5, 53, 65
6, 215280, Note_on_c, 5, 41, 65
6, 215472, Note_off_c, 5, 53, 0
6, 215472, Note_off_c, 5, 41, 0
6, 215520, Note_on_c, 5, 39, 62
6, 215520, Note_on_c, 5, 51, 62
6, 215712, Note_off_c, 5, 39, 0
6, 215712, Note_off_c, 5, 51, 0
6, 216240, Note_on_c, 5, 58, 51
6, 216960, Note_off_c, 5, 58, 0
6, 217640, Note_on_c, 5, 55, 47
6, 217880, Note_off_c, 5, 55, 0
6, 218360, Note_on_c, 5, 56, 48
6, 218600, Note_off_c, 5, 56, 0
6, 219080, Note_on_c, 5, 58, 61
6, 219320, Note_off_c, 5, 58, 0
6, 219840, Note_on_c, 5, 63, 67
6, 219840, Note_on_c, 5, 51, 67
6, 220032, Note_off_c, 5, 63, 0
6, 220032, Note_off_c, 5, 51, 0
6, 220320, Note_on_c, 5, 58, 63
6, 220320, Note_on_c, 5, 46, 63
6, 220512, Note_off_c, 5, 58, 0
6, 220512, Note_off_c, 5, 46, 0
6, 220560, Note_on_c, 5, 51, 61
6, 220560, Note_on_c, 5, 39, 61
6, 220752, Note_off_c, 5, 51, 0
6, 220752, Note_off_c, 5, 39, 0
6, 220800, Note_on_c, 5, 55, 58
6, 220800, Note_on_c, 5, 43, 58
6, 220992, Note_off_c, 5, 55, 0
6, 220992, Note_off_c, 5, 43, 0
6, 221040, Note_on_c, 5, 46, 56
6, 221040, Note_on_c, 5, 58, 56
6, 221232, Note_off_c, 5, 46, 0
6, 221232, Note_off_c, 5, 58, 0
6, 221280, Note_on_c, 5, 51, 54
6, 221280, Note_on_c, 5, 39, 54
6, 221472, Note_off_c, 5, 51, 0
6, 221472, Note_off_c, 5, 39, 0
6, 221760, Note_on_c, 5, 51, 32
6, 221880, Note_off_c, 5, 51, 0
6, 222000, Note_on_c, 5, 51, 29
6, 222156, Note_off_c, 5, 51, 0
6, 230640, Note_on_c, 5, 51, 79
6, 230640, Note_on_c, 5, 39, 79
6, 230784, Note_off_c, 5, 51, 0
6, 230784, Note_off_c, 5, 39, 0
6, 230880, Note_on_c, 5, 38, 79
6, 230880, Note_on_c, 5, 50, 79
6, 231024, Note_off_c, 5, 38, 0
6, 231024, Note_off_c, 5, 50, 0
6, 231120, Note_on_c, 5, 48, 79
6, 231120, Note_on_c, 5, 36, 79
6, 231264, Note_off_c, 5, 48, 0
6, 231264, Note_off_c, 5, 36, 0
6, 231360, Note_on_c, 5, 46, 79
6, 231360, Note_on_c, 5, 34, 79
6, 231504, Note_off_c, 5, 46, 0
6, 231504, Note_off_c, 5, 34, 0
6, 231600, Note_on_c, 5, 62, 63
6, 231680, Note_off_c, 5, 62, 0
6, 231680, Note_on_c, 5, 58, 63
6, 231760, Note_off_c, 5, 58, 0
6, 231760, Note_on_c, 5, 60, 62
6, 231840, Note_off_c, 5, 60, 0
6, 231840, Note_on_c, 5, 62, 62
6, 231920, Note_off_c, 5, 62, 0
6, 231920, Note_on_c, 5, 58, 61
6, 232000, Note_off_c, 5, 58, 0
6, 232000, Note_on_c, 5, 60, 61
6, 232064, Note_off_c, 5, 60, 0
6, 232080, Note_on_c, 5, 62, 61
6, 232320, Note_off_c, 5, 62, 0
6, 232320, Note_on_c, 5, 63, 56
6, 232476, Note_off_c, 5, 63, 0
6, 232560, Note_on_c, 5, 60, 53
6, 232716, Note_off_c, 5, 60, 0
6, 232800, Note_on_c, 5, 53, 78
6, 232800, Note_on_c, 5, 41, 78
6, 232956, Note_off_c, 5, 53, 0
6, 232956, Note_off_c, 5, 41, 0
6, 233040, Note_on_c, 5, 60, 61
6, 233120, Note_off_c, 5, 60, 0
6, 233120, Note_on_c, 5, 57, 61
6, 233200, Note_off_c, 5, 57, 0
6, 233200, Note_on_c, 5, 58, 60
6, 233280, Note_off_c, 5, 58, 0
6, 233280, Note_on_c, 5, 60, 60
6, 233360, Note_off_c, 5, 60, 0
6, 233360, Note_on_c, 5, 57, 59
6, 233440, Note_off_c, 5, 57, 0
6, 233440, Note_on_c, 5, 58, 59
6, 233504, Note_off_c, 5, 58, 0
6, 233520, Note_on_c, 5, 60, 58
6, 233760, Note_off_c, 5, 60, 0
6, 233760, Note_on_c, 5, 62, 53
6, 233916, Note_off_c, 5, 62, 0
6, 234000, Note_on_c, 5, 58, 49
6, 234156, Note_off_c, 5, 58, 0
6, 242160, Note_on_c, 5, 58, 73
6, 242352, Note_off_c, 5, 58, 0
6, 242640, Note_on_c, 5, 53, 70
6, 242640, Note_on_c, 5, 41, 70
6, 242832, Note_off_c, 5, 53, 0
6, 242832, Note_off_c, 5, 41, 0
6, 242880, Note_on_c, 5, 58, 69
6, 242880, Note_on_c, 5, 46, 69
6, 243072, Note_off_c, 5, 58, 0
6, 243072, Note_off_c, 5, 46, 0
6, 243120, Note_on_c, 5, 50, 67
6, 243120, Note_on_c, 5, 38, 67
6, 243312, Note_off_c, 5, 50, 0
6, 243312, Note_off_c, 5, 38, 0
6, 243360, Note_on_c, 5, 41, 66
6, 243360, Note_on_c, 5, 53, 66
6, 243552, Note_off_c, 5, 41, 0
6, 243552, Note_off_c, 5, 53, 0
6, 243600, Note_on_c, 5, 34, 64
6, 243600, Note_on_c, 5, 46, 64
6, 243792, Note_off_c, 5, 34, 0
6, 243792, Note_off_c, 5, 46, 0
6, 244080, Note_on_c, 5, 46, 37
6, 244200, Note_off_c, 5, 46, 0
6, 244320, Note_on_c, 5, 46, 32
6, 244476, Note_off_c, 5, 46, 0
6, 245040, Note_on_c, 5, 58, 35
6, 245040, Note_on_c, 5, 46, 35
6, 245232, Note_off_c, 5, 58, 0
6, 245232, Note_off_c, 5, 46, 0
6, 245760, Note_on_c, 5, 58, 52
6, 245940, Note_off_c, 5, 58, 0
6, 246000, Note_on_c, 5, 58, 48
6, 246180, Note_off_c, 5, 58, 0
6, 246240, Note_on_c, 5, 58, 44
6, 246420, Note_off_c, 5, 58, 0
6, 246480, Note_on_c, 5, 58, 40
6, 246660, Note_off_c, 5, 58, 0
6, 247200, Note_on_c, 5, 58, 62
6, 247380, Note_off_c, 5, 58, 0
6, 247440, Note_on_c, 5, 58, 58
6, 247620, Note_off_c, 5, 58, 0
6, 247680, Note_on_c, 5, 58, 54
6, 247860, Note_off_c, 5, 58, 0
6, 247920, Note_on_c, 5, 58, 50
6, 248100, Note_off_c, 5, 58, 0
6, 248640, Note_on_c, 5, 58, 73
6, 248820, Note_off_c, 5, 58, 0
6, 248880, Note_on_c, 5, 58, 68
6, 249060, Note_off_c, 5, 58, 0
6, 249120, Note_on_c, 5, 58, 63
6, 249300, Note_off_c, 5, 58, 0
6, 249360, Note_on_c, 5, 57, 59
6, 249552, Note_off_c, 5, 57, 0
6, 250080, Note_on_c, 5, 59, 45
6, 250272, Note_off_c, 5, 59, 0
6, 250800, Note_on_c, 5, 58, 41
6, 250992, Note_off_c, 5, 58, 0
6, 252720, Note_on_c, 5, 46, 37
6, 252840, Note_off_c, 5, 46, 0
6, 252960, Note_on_c, 5, 46, 33
6, 253116, Note_off_c, 5, 46, 0
6, 253680, Note_on_c, 5, 39, 72
6, 253680, Note_on_c, 5, 51, 72
6, 253872, Note_off_c, 5, 39, 0
6, 253872, Note_off_c, 5, 51, 0
6, 255600, Note_on_c, 5, 63, 61
6, 255680, Note_off_c, 5, 63, 0
6, 255680, Note_on_c, 5, 65, 61
6, 255760, Note_off_c, 5, 65, 0
6, 255760, Note_on_c, 5, 63, 61
6, 255840, Note_off_c, 5, 63, 0
6, 255840, Note_on_c, 5, 62, 64
6, 255920, Note_off_c, 5, 62, 0
6, 255920, Note_on_c, 5, 63, 64
6, 256000, Note_off_c, 5, 63, 0
6, 256000, Note_on_c, 5, 62, 64
6, 256080, Note_off_c, 5, 62, 0
6, 256080, Note_on_c, 5, 60, 66
6, 256160, Note_off_c, 5, 60, 0
6, 256160, Note_on_c, 5, 62, 66
6, 256240, Note_off_c, 5, 62, 0
6, 256240, Note_on_c, 5, 60, 66
6, 256320, Note_off_c, 5, 60, 0
6, 256320, Note_on_c, 5, 58, 68
6, 256400, Note_off_c, 5, 58, 0
6, 256400, Note_on_c, 5, 60, 68
6, 256480, Note_off_c, 5, 60, 0
6, 256480, Note_on_c, 5, 58, 68
6, 256560, Note_off_c, 5, 58, 0
6, 256560, Note_on_c, 5, 56, 70
6, 256640, Note_off_c, 5, 56, 0
6, 256640, Note_on_c, 5, 58, 69
6, 256720, Note_off_c, 5, 58, 0
6, 256720, Note_on_c, 5, 56, 68
6, 256800, Note_off_c, 5, 56, 0
6, 256800, Note_on_c, 5, 55, 67
6, 256880, Note_off_c, 5, 55, 0
6, 256880, Note_on_c, 5, 56, 66
6, 256960, Note_off_c, 5, 56, 0
6, 256960, Note_on_c, 5, 55, 65
6, 257040, Note_off_c, 5, 55, 0
6, 257040, Note_on_c, 5, 53, 64
6, 257120, Note_off_c, 5, 53, 0
6, 257120, Note_on_c, 5, 55, 63
6, 257200, Note_off_c, 5, 55, 0
6, 257200, Note_on_c, 5, 53, 62
6, 257280, Note_off_c, 5, 53, 0
6, 257280, Note_on_c, 5, 51, 61
6, 257472, Note_off_c, 5, 51, 0
6, 258000, Note_on_c, 5, 58, 51
6, 258240, Note_off_c, 5, 58, 0
6, 259400, Note_on_c, 5, 55, 47
6, 259640, Note_off_c, 5, 55, 0
6, 260120, Note_on_c, 5, 56, 48
6, 260360, Note_off_c, 5, 56, 0
6, 260840, Note_on_c, 5, 58, 61
6, 261080, Note_off_c, 5, 58, 0
6, 261600, Note_on_c, 5, 51, 67
6, 261600, Note_on_c, 5, 63, 67
6, 261792, Note_off_c, 5, 51, 0
6, 261792, Note_off_c, 5, 63, 0
6, 262080, Note_on_c, 5, 46, 63
6, 262080, Note_on_c, 5, 58, 63
6, 262272, Note_off_c, 5, 46, 0
6, 262272, Note_off_c, 5, 58, 0
6, 262320, Note_on_c, 5, 39, 61
6, 262320, Note_on_c, 5, 51, 61
6, 262512, Note_off_c, 5, 39, 0
6, 262512, Note_off_c, 5, 51, 0
6, 262560, Note_on_c, 5, 43, 58
6, 262560, Note_on_c, 5, 55, 58
6, 262752, Note_off_c, 5, 43, 0
6, 262752, Note_off_c, 5, 55, 0
6, 262800, Note_on_c, 5, 58, 56
6, 262800, Note_on_c, 5, 46, 56
6, 262992, Note_off_c, 5, 58, 0
6, 262992, Note_off_c, 5, 46, 0
6, 263040, Note_on_c, 5, 39, 54
6, 263040, Note_on_c, 5, 51, 54
6, 263232, Note_off_c, 5, 39, 0
6, 263232, Note_off_c, 5, 51, 0
6, 263520, Note_on_c, 5, 51, 32
6, 263640, Note_off_c, 5, 51, 0
6, 263760, Note_on_c, 5, 51, 29
6, 263916, Note_off_c, 5, 51, 0
6, 268800, Control_c, 5, 64, 0
6, 273120, Note_on_c, 5, 58, 65
6, 273795, Note_off_c, 5, 58, 0
6, 273840, Note_on_c, 5, 44, 79
6, 273840, Note_on_c, 5, 56, 79
6, 273984, Note_off_c, 5, 44, 0
6, 273984, Note_off_c, 5, 56, 0
6, 274080, Note_on_c, 5, 55, 79
6, 274080, Note_on_c, 5, 43, 79
6, 274224, Note_off_c, 5, 55, 0
6, 274224, Note_off_c, 5, 43, 0
6, 274320, Note_on_c, 5, 41, 79
6, 274320, Note_on_c, 5, 53, 79
6, 274464, Note_off_c, 5, 41, 0
6, 274464, Note_off_c, 5, 53, 0
6, 274560, Note_on_c, 5, 39, 79
6, 274560, Note_on_c, 5, 51, 79
6, 274704, Note_off_c, 5, 39, 0
6, 274704, Note_off_c, 5, 51, 0
6, 274800, Note_on_c, 5, 67, 63
6, 274880, Note_off_c, 5, 67, 0
6, 274880, Note_on_c, 5, 63, 63
6, 274960, Note_off_c, 5, 63, 0
6, 274960, Note_on_c, 5, 65, 62
6, 275040, Note_off_c, 5, 65, 0
6, 275040, Note_on_c, 5, 67, 62
6, 275120, Note_off_c, 5, 67, 0
6, 275120, Note_on_c, 5, 63, 61
6, 275200, Note_off_c, 5, 63, 0
6, 275200, Note_on_c, 5, 65, 61
6, 275264, Note_off_c, 5, 65, 0
6, 275280, Note_on_c, 5, 67, 61
6, 275520, Note_off_c, 5, 67, 0
6, 275520, Note_on_c, 5, 68, 56
6, 275676, Note_off_c, 5, 68, 0
6, 275760, Note_on_c, 5, 65, 53
6, 275916, Note_off_c, 5, 65, 0
6, 276000, Note_on_c, 5, 46, 78
6, 276000, Note_on_c, 5, 58, 78
6, 276156, Note_off_c, 5, 46, 0
6, 276156, Note_off_c, 5, 58, 0
6, 276240, Note_on_c, 5, 65, 61
6, 276320, Note_off_c, 5, 65, 0
6, 276320, Note_on_c, 5, 62, 61
6, 276400, Note_off_c, 5, 62, 0
6, 276400, Note_on_c, 5, 63, 60
6, 276480, Note_off_c, 5, 63, 0
6, 276480, Note_on_c, 5, 65, 60
6, 276560, Note_off_c, 5, 65, 0
6, 276560, Note_on_c, 5, 62, 59
6, 276640, Note_off_c, 5, 62, 0
6, 276640, Note_on_c, 5, 63, 59
6, 276704, Note_off_c, 5, 63, 0
6, 276720, Note_on_c, 5, 65, 58
6, 276960, Note_off_c, 5, 65, 0
6, 276960, Note_on_c, 5, 67, 53
6, 277116, Note_off_c, 5, 67, 0
6, 277200, Note_on_c, 5, 63, 49
6, 277356, Note_off_c, 5, 63, 0
6, 285360, Note_on_c, 5, 63, 73
6, 285552, Note_off_c, 5, 63, 0
6, 285840, Note_on_c, 5, 46, 70
6, 285840, Note_on_c, 5, 58, 70
6, 286032, Note_off_c, 5, 46, 0
6, 286032, Note_off_c, 5, 58, 0
6, 286080, Note_on_c, 5, 51, 69
6, 286080, Note_on_c, 5, 63, 69
6, 286272, Note_off_c, 5, 51, 0
6, 286272, Note_off_c, 5, 63, 0
6, 286320, Note_on_c, 5, 43, 67
6, 286320, Note_on_c, 5, 55, 67
6, 286512, Note_off_c, 5, 43, 0
6, 286512, Note_off_c, 5, 55, 0
6, 286560, Note_on_c, 5, 58, 66
6, 286560, Note_on_c, 5, 46, 66
6, 286752, Note_off_c, 5, 58, 0
6, 286752, Note_off_c, 5, 46, 0
6, 286800, Note_on_c, 5, 51, 64
6, 286800, Note_on_c, 5, 39, 64
6, 286992, Note_off_c, 5, 51, 0
6, 286992, Note_off_c, 5, 39, 0
6, 287280, Note_on_c, 5, 51, 37
6, 287400, Note_off_c, 5, 51, 0
6, 287520, Note_on_c, 5, 51, 32
6, 287676, Note_off_c, 5, 51, 0
6, 289680, Note_on_c, 5, 59, 59
6, 290040, Note_off_c, 5, 59, 0
6, 290160, Note_on_c, 5, 60, 63
6, 291075, Note_off_c, 5, 60, 0
6, 291600, Note_on_c, 5, 57, 59
6, 291960, Note_off_c, 5, 57, 0
6, 292080, Note_on_c, 5, 58, 60
6, 292995, Note_off_c, 5, 58, 0
6, 293520, Note_on_c, 5, 62, 60
6, 293880, Note_off_c, 5, 62, 0
6, 294000, Note_on_c, 5, 63, 66
6, 294480, Note_off_c, 5, 63, 0
6, 294480, Note_on_c, 5, 62, 63
6, 294960, Note_off_c, 5, 62, 0
6, 294960, Note_on_c, 5, 60, 58
6, 295440, Note_off_c, 5, 60, 0
6, 295440, Note_on_c, 5, 58, 54
6, 295800, Note_off_c, 5, 58, 0
6, 295920, Note_on_c, 5, 65, 49
6, 296775, Note_off_c, 5, 65, 0
6, 297360, Note_on_c, 5, 47, 74
6, 297360, Note_on_c, 5, 59, 74
6, 297720, Note_off_c, 5, 47, 0
6, 297720, Note_off_c, 5, 59, 0
6, 297840, Note_on_c, 5, 48, 79
6, 297840, Note_on_c, 5, 60, 79
6, 298200, Note_off_c, 5, 48, 0
6, 298200, Note_off_c, 5, 60, 0
6, 298320, Note_on_c, 5, 63, 73
6, 298320, Note_on_c, 5, 51, 73
6, 298680, Note_off_c, 5, 63, 0
6, 298680, Note_off_c, 5, 51, 0
6, 299280, Note_on_c, 5, 57, 72
6, 299280, Note_on_c, 5, 45, 72
6, 299640, Note_off_c, 5, 57, 0
6, 299640, Note_off_c, 5, 45, 0
6, 299760, Note_on_c, 5, 46, 76
6, 299760, Note_on_c, 5, 58, 76
6, 300120, Note_off_c, 5, 46, 0
6, 300120, Note_off_c, 5, 58, 0
6, 300240, Note_on_c, 5, 50, 70
6, 300240, Note_on_c, 5, 62, 70
6, 300600, Note_off_c, 5, 50, 0
6, 300600, Note_off_c, 5, 62, 0
6, 301200, Note_on_c, 5, 50, 73
6, 301560, Note_off_c, 5, 50, 0
6, 301680, Note_on_c, 5, 51, 78
6, 302040, Note_off_c, 5, 51, 0
6, 302160, Note_on_c, 5, 55, 76
6, 302520, Note_off_c, 5, 55, 0
6, 302640, Note_on_c, 5, 53, 74
6, 303480, Note_off_c, 5, 53, 0
6, 303600, Note_on_c, 5, 46, 59
6, 303960, Note_off_c, 5, 46, 0
6, 304080, Note_on_c, 5, 70, 48
6, 304440, Note_off_c, 5, 70, 0
6, 304560, Note_on_c, 5, 72, 47
6, 304920, Note_off_c, 5, 72, 0
6, 305040, Note_on_c, 5, 69, 45
6, 305400, Note_off_c, 5, 69, 0
6, 305520, Note_on_c, 5, 70, 44
6, 305880, Note_off_c, 5, 70, 0
6, 306000, Note_on_c, 5, 62, 42
6, 306360, Note_off_c, 5, 62, 0
6, 306480, Note_on_c, 5, 63, 41
6, 306840, Note_off_c, 5, 63, 0
6, 306960, Note_on_c, 5, 64, 39
6, 307320, Note_off_c, 5, 64, 0
6, 307440, Note_on_c, 5, 65, 41
6, 307800, Note_off_c, 5, 65, 0
6, 307920, Note_on_c, 5, 58, 75
6, 307920, Note_on_c, 5, 46, 75
6, 308280, Note_off_c, 5, 58, 0
6, 308280, Note_off_c, 5, 46, 0
6, 308400, Note_on_c, 5, 60, 74
6, 308400, Note_on_c, 5, 48, 74
6, 308760, Note_off_c, 5, 60, 0
6, 308760, Note_off_c, 5, 48, 0
6, 308880, Note_on_c, 5, 57, 72
6, 308880, Note_on_c, 5, 45, 72
6, 309240, Note_off_c, 5, 57, 0
6, 309240, Note_off_c, 5, 45, 0
6, 309360, Note_on_c, 5, 58, 70
6, 309360, Note_on_c, 5, 46, 70
6, 309720, Note_off_c, 5, 58, 0
6, 309720, Note_off_c, 5, 46, 0
6, 309840, Note_on_c, 5, 39, 68
6, 309840, Note_on_c, 5, 51, 68
6, 310200, Note_off_c, 5, 39, 0
6, 310200, Note_off_c, 5, 51, 0
6, 310320, Note_on_c, 5, 41, 66
6, 310320, Note_on_c, 5, 53, 66
6, 310680, Note_off_c, 5, 41, 0
6, 310680, Note_off_c, 5, 53, 0
6, 310800, Note_on_c, 5, 29, 65
6, 310800, Note_on_c, 5, 41, 65
6, 311160, Note_off_c, 5, 29, 0
6, 311160, Note_off_c, 5, 41, 0
6, 311280, Note_on_c, 5, 34, 63
6, 311280, Note_on_c, 5, 46, 63
6, 311640, Note_off_c, 5, 34, 0
6, 311640, Note_off_c, 5, 46, 0
6, 311760, Note_on_c, 5, 38, 66
6, 311760, Note_on_c, 5, 50, 66
6, 312240, Note_off_c, 5, 38, 0
6, 312240, Note_off_c, 5, 50, 0
6, 312240, Note_on_c, 5, 39, 68
6, 312240, Note_on_c, 5, 51, 68
6, 312720, Note_off_c, 5, 39, 0
6, 312720, Note_off_c, 5, 51, 0
6, 312720, Note_on_c, 5, 50, 70
6, 312720, Note_on_c, 5, 38, 70
6, 313200, Note_off_c, 5, 50, 0
6, 313200, Note_off_c, 5, 38, 0
6, 313200, Note_on_c, 5, 39, 73
6, 313200, Note_on_c, 5, 51, 73
6, 313560, Note_off_c, 5, 39, 0
6, 313560, Note_off_c, 5, 51, 0
6, 314160, Note_on_c, 5, 53, 49
6, 315000, Note_off_c, 5, 53, 0
6, 315120, Note_on_c, 5, 58, 40
6, 315480, Note_off_c, 5, 58, 0
6, 315600, Note_on_c, 5, 50, 68
6, 315600, Note_on_c, 5, 38, 68
6, 316080, Note_off_c, 5, 50, 0
6, 316080, Note_off_c, 5, 38, 0
6, 316080, Note_on_c, 5, 51, 71
6, 316080, Note_on_c, 5, 39, 71
6, 316560, Note_off_c, 5, 51, 0
6, 316560, Note_off_c, 5, 39, 0
6, 316560, Note_on_c, 5, 38, 75
6, 316560, Note_on_c, 5, 50, 75
6, 317040, Note_off_c, 5, 38, 0
6, 317040, Note_off_c, 5, 50, 0
6, 317040, Note_on_c, 5, 51, 79
6, 317040, Note_on_c, 5, 39, 79
6, 317400, Note_off_c, 5, 51, 0
6, 317400, Note_off_c, 5, 39, 0
6, 318000, Note_on_c, 5, 53, 55
6, 318840, Note_off_c, 5, 53, 0
6, 318960, Note_on_c, 5, 58, 48
6, 319320, Note_off_c, 5, 58, 0
6, 319440, Note_on_c, 5, 53, 44
6, 319800, Note_off_c, 5, 53, 0
6, 319920, Note_on_c, 5, 58, 41
6, 320280, Note_off_c, 5, 58, 0
6, 320400, Note_on_c, 5, 53, 37
6, 320760, Note_off_c, 5, 53, 0
6, 320880, Note_on_c, 5, 58, 34
6, 321240, Note_off_c, 5, 58, 0
6, 330480, Note_on_c, 5, 67, 69
6, 330840, Note_off_c, 5, 67, 0
6, 330960, Note_on_c, 5, 64, 67
6, 331320, Note_off_c, 5, 64, 0
6, 331440, Note_on_c, 5, 65, 65
6, 331800, Note_off_c, 5, 65, 0
6, 331920, Note_on_c, 5, 69, 64
6, 332280, Note_off_c, 5, 69, 0
6, 332400, Note_on_c, 5, 70, 62
6, 332760, Note_off_c, 5, 70, 0
6, 332880, Note_on_c, 5, 67, 60
6, 333240, Note_off_c, 5, 67, 0
6, 333360, Note_on_c, 5, 69, 58
6, 333720, Note_off_c, 5, 69, 0
6, 333840, Note_on_c, 5, 53, 56
6, 334200, Note_off_c, 5, 53, 0
6, 334320, Note_on_c, 5, 55, 55
6, 334680, Note_off_c, 5, 55, 0
6, 334800, Note_on_c, 5, 52, 53
6, 335160, Note_off_c, 5, 52, 0
6, 335280, Note_on_c, 5, 53, 51
6, 335640, Note_off_c, 5, 53, 0
6, 335760, Note_on_c, 5, 57, 49
6, 336120, Note_off_c, 5, 57, 0
6, 336240, Note_on_c, 5, 58, 47
6, 336600, Note_off_c, 5, 58, 0
6, 336720, Note_on_c, 5, 55, 46
6, 337080, Note_off_c, 5, 55, 0
6, 337200, Note_on_c, 5, 57, 44
6, 337560, Note_off_c, 5, 57, 0
6, 338160, Note_on_c, 5, 46, 68
6, 338160, Note_on_c, 5, 58, 68
6, 339120, Note_off_c, 5, 46, 0
6, 339120, Note_off_c, 5, 58, 0
6, 339600, Note_on_c, 5, 58, 75
6, 339960, Note_off_c, 5, 58, 0
6, 340080, Note_on_c, 5, 60, 77
6, 340920, Note_off_c, 5, 60, 0
6, 341040, Note_on_c, 5, 60, 64
6, 341200, Note_off_c, 5, 60, 0
6, 341200, Note_on_c, 5, 62, 62
6, 341360, Note_off_c, 5, 62, 0
6, 341360, Note_on_c, 5, 60, 61
6, 341520, Note_off_c, 5, 60, 0
6, 341520, Note_on_c, 5, 58, 59
6, 341680, Note_off_c, 5, 58, 0
6, 341680, Note_on_c, 5, 57, 58
6, 341840, Note_off_c, 5, 57, 0
6, 341840, Note_on_c, 5, 55, 57
6, 341968, Note_off_c, 5, 55, 0
6, 349680, Note_on_c, 5, 57, 73
6, 350040, Note_off_c, 5, 57, 0
6, 351600, Note_on_c, 5, 58, 43
6, 351960, Note_off_c, 5, 58, 0
6, 353040, Note_on_c, 5, 70, 58
6, 353400, Note_off_c, 5, 70, 0
6, 353520, Note_on_c, 5, 69, 63
6, 353880, Note_off_c, 5, 69, 0
6, 354000, Note_on_c, 5, 74, 60
6, 354360, Note_off_c, 5, 74, 0
6, 354480, Note_on_c, 5, 70, 57
6, 354840, Note_off_c, 5, 70, 0
6, 354960, Note_on_c, 5, 72, 54
6, 355320, Note_off_c, 5, 72, 0
6, 355440, Note_on_c, 5, 69, 51
6, 355800, Note_off_c, 5, 69, 0
6, 357360, Note_on_c, 5, 58, 42
6, 357720, Note_off_c, 5, 58, 0
6, 358560, Note_on_c, 5, 66, 54
6, 358752, Note_off_c, 5, 66, 0
6, 358800, Note_on_c, 5, 67, 57
6, 358992, Note_off_c, 5, 67, 0
6, 359040, Note_on_c, 5, 69, 59
6, 359232, Note_off_c, 5, 69, 0
6, 359280, Note_on_c, 5, 70, 61
6, 359472, Note_off_c, 5, 70, 0
6, 359520, Note_on_c, 5, 72, 64
6, 359712, Note_off_c, 5, 72, 0
6, 359760, Note_on_c, 5, 74, 66
6, 359952, Note_off_c, 5, 74, 0
6, 360000, Note_on_c, 5, 73, 69
6, 360192, Note_off_c, 5, 73, 0
6, 360240, Note_on_c, 5, 74, 71
6, 360432, Note_off_c, 5, 74, 0
6, 360480, Note_on_c, 5, 73, 74
6, 360672, Note_off_c, 5, 73, 0
6, 360720, Note_on_c, 5, 74, 76
6, 360912, Note_off_c, 5, 74, 0
6, 360960, Note_on_c, 5, 73, 79
6, 361152, Note_off_c, 5, 73, 0
6, 361200, Note_on_c, 5, 74, 82
6, 361560, Note_off_c, 5, 74, 0
6, 361680, Note_on_c, 5, 58, 76
6, 362160, Note_off_c, 5, 58, 0
6, 362160, Note_on_c, 5, 60, 72
6, 363000, Note_off_c, 5, 60, 0
6, 363120, Note_on_c, 5, 65, 61
6, 363312, Note_off_c, 5, 65, 0
6, 363360, Note_on_c, 5, 72, 71
6, 363600, Note_off_c, 5, 72, 0
6, 363600, Note_on_c, 5, 69, 77
6, 363840, Note_off_c, 5, 69, 0
6, 364080, Note_on_c, 5, 69, 68
6, 364320, Note_off_c, 5, 69, 0
6, 364560, Note_on_c, 5, 69, 64
6, 364800, Note_off_c, 5, 69, 0
6, 365040, Note_on_c, 5, 70, 60
6, 365232, Note_off_c, 5, 70, 0
6, 365520, Note_on_c, 5, 67, 73
6, 365760, Note_off_c, 5, 67, 0
6, 366000, Note_on_c, 5, 67, 66
6, 366240, Note_off_c, 5, 67, 0
6, 366480, Note_on_c, 5, 67, 63
6, 366720, Note_off_c, 5, 67, 0
6, 366960, Note_on_c, 5, 69, 60
6, 367200, Note_off_c, 5, 69, 0
6, 367440, Note_on_c, 5, 69, 73
6, 367680, Note_off_c, 5, 69, 0
6, 367920, Note_on_c, 5, 69, 66
6, 368160, Note_off_c, 5, 69, 0
6, 368400, Note_on_c, 5, 69, 62
6, 368640, Note_off_c, 5, 69, 0
6, 368880, Note_on_c, 5, 70, 59
6, 369072, Note_off_c, 5, 70, 0
6, 369360, Note_on_c, 5, 67, 69
6, 369600, Note_off_c, 5, 67, 0
6, 369840, Note_on_c, 5, 67, 61
6, 370080, Note_off_c, 5, 67, 0
6, 370320, Note_on_c, 5, 67, 56
6, 370560, Note_off_c, 5, 67, 0
6, 370800, Note_on_c, 5, 65, 51
6, 372240, Control_c, 5, 64, 0
6, 372720, Note_off_c, 5, 65, 0
6, 378000, Note_on_c, 5, 59, 59
6, 378360, Note_off_c, 5, 59, 0
6, 378480, Note_on_c, 5, 60, 63
6, 379395, Note_off_c, 5, 60, 0
6, 379920, Note_on_c, 5, 57, 59
6, 380280, Note_off_c, 5, 57, 0
6, 380400, Note_on_c, 5, 58, 60
6, 381315, Note_off_c, 5, 58, 0
6, 381840, Note_on_c, 5, 62, 60
6, 382200, Note_off_c, 5, 62, 0
6, 382320, Note_on_c, 5, 63, 66
6, 382800, Note_off_c, 5, 63, 0
6, 382800, Note_on_c, 5, 62, 63
6, 383280, Note_off_c, 5, 62, 0
6, 383280, Note_on_c, 5, 60, 58
6, 383760, Note_off_c, 5, 60, 0
6, 383760, Note_on_c, 5, 58, 54
6, 384120, Note_off_c, 5, 58, 0
6, 384240, Note_on_c, 5, 65, 49
6, 385095, Note_off_c, 5, 65, 0
6, 385680, Note_on_c, 5, 59, 74
6, 385680, Note_on_c, 5, 47, 74
6, 386040, Note_off_c, 5, 59, 0
6, 386040, Note_off_c, 5, 47, 0
6, 386160, Note_on_c, 5, 60, 79
6, 386160, Note_on_c, 5, 48, 79
6, 386520, Note_off_c, 5, 60, 0
6, 386520, Note_off_c, 5, 48, 0
6, 386640, Note_on_c, 5, 51, 73
6, 386640, Note_on_c, 5, 63, 73
6, 387000, Note_off_c, 5, 51, 0
6, 387000, Note_off_c, 5, 63, 0
6, 387600, Note_on_c, 5, 45, 72
6, 387600, Note_on_c, 5, 57, 72
6, 387960, Note_off_c, 5, 45, 0
6, 387960, Note_off_c, 5, 57, 0
6, 388080, Note_on_c, 5, 58, 76
6, 388080, Note_on_c, 5, 46, 76
6, 388440, Note_off_c, 5, 58, 0
6, 388440, Note_off_c, 5, 46, 0
6, 388560, Note_on_c, 5, 62, 70
6, 388560, Note_on_c, 5, 50, 70
6, 388920, Note_off_c, 5, 62, 0
6, 388920, Note_off_c, 5, 50, 0
6, 389520, Note_on_c, 5, 50, 73
6, 389880, Note_off_c, 5, 50, 0
6, 390000, Note_on_c, 5, 51, 78
6, 390360, Note_off_c, 5, 51, 0
6, 390480, Note_on_c, 5, 55, 76
6, 390840, Note_off_c, 5, 55, 0
6, 390960, Note_on_c, 5, 53, 73
6, 391800, Note_off_c, 5, 53, 0
6, 391920, Note_on_c, 5, 46, 59
6, 392280, Note_off_c, 5, 46, 0
6, 393840, Control_c, 5, 64, 0
6, 394080, Note_on_c, 5, 55, 46
6, 394236, Note_off_c, 5, 55, 0
6, 394320, Note_on_c, 5, 58, 45
6, 394476, Note_off_c, 5, 58, 0
6, 394560, Note_on_c, 5, 62, 46
6, 394716, Note_off_c, 5, 62, 0
6, 394800, Note_on_c, 5, 67, 48
6, 395160, Note_off_c, 5, 67, 0
6, 396000, Note_on_c, 5, 57, 48
6, 396156, Note_off_c, 5, 57, 0
6, 396240, Note_on_c, 5, 60, 50
6, 396396, Note_off_c, 5, 60, 0
6, 396480, Note_on_c, 5, 63, 51
6, 396636, Note_off_c, 5, 63, 0
6, 396720, Note_on_c, 5, 66, 53
6, 397080, Note_off_c, 5, 66, 0
6, 397920, Note_on_c, 5, 48, 50
6, 398076, Note_off_c, 5, 48, 0
6, 398160, Note_on_c, 5, 51, 52
6, 398316, Note_off_c, 5, 51, 0
6, 398400, Note_on_c, 5, 57, 54
6, 398556, Note_off_c, 5, 57, 0
6, 398640, Note_on_c, 5, 60, 56
6, 399000, Note_off_c, 5, 60, 0
6, 399600, Note_on_c, 5, 58, 68
6, 399960, Note_off_c, 5, 58, 0
6, 400080, Note_on_c, 5, 54, 69
6, 400440, Note_off_c, 5, 54, 0
6, 400560, Note_on_c, 5, 55, 70
6, 400920, Note_off_c, 5, 55, 0
6, 401040, Note_on_c, 5, 57, 72
6, 401400, Note_off_c, 5, 57, 0
6, 401520, Note_on_c, 5, 58, 79
6, 401880, Note_off_c, 5, 58, 0
6, 402000, Note_on_c, 5, 62, 64
6, 402360, Note_off_c, 5, 62, 0
6, 402480, Note_on_c, 5, 58, 65
6, 402840, Note_off_c, 5, 58, 0
6, 402960, Note_on_c, 5, 59, 66
6, 403320, Note_off_c, 5, 59, 0
6, 403440, Note_on_c, 5, 60, 82
6, 403800, Note_off_c, 5, 60, 0
6, 403920, Note_on_c, 5, 63, 69
6, 404280, Note_off_c, 5, 63, 0
6, 404400, Note_on_c, 5, 60, 70
6, 404760, Note_off_c, 5, 60, 0
6, 404880, Note_on_c, 5, 62, 71
6, 405240, Note_off_c, 5, 62, 0
6, 405360, Note_on_c, 5, 63, 87
6, 406080, Note_off_c, 5, 63, 0
6, 406320, Note_on_c, 5, 63, 75
6, 407040, Note_off_c, 5, 63, 0
6, 407280, Note_on_c, 5, 62, 85
6, 408600, Note_off_c, 5, 62, 0
6, 409200, Control_c, 5, 64, 0
6, 409440, Note_on_c, 5, 55, 46
6, 409596, Note_off_c, 5, 55, 0
6, 409680, Note_on_c, 5, 58, 45
6, 409836, Note_off_c, 5, 58, 0
6, 409920, Note_on_c, 5, 62, 46
6, 410076, Note_off_c, 5, 62, 0
6, 410160, Note_on_c, 5, 67, 48
6, 410520, Note_off_c, 5, 67, 0
6, 411360, Note_on_c, 5, 57, 48
6, 411516, Note_off_c, 5, 57, 0
6, 411600, Note_on_c, 5, 60, 50
6, 411756, Note_off_c, 5, 60, 0
6, 411840, Note_on_c, 5, 63, 51
6, 411996, Note_off_c, 5, 63, 0
6, 412080, Note_on_c, 5, 66, 53
6, 412440, Note_off_c, 5, 66, 0
6, 413280, Note_on_c, 5, 48, 50
6, 413436, Note_off_c, 5, 48, 0
6, 413520, Note_on_c, 5, 51, 52
6, 413676, Note_off_c, 5, 51, 0
6, 413760, Note_on_c, 5, 57, 54
6, 413916, Note_off_c, 5, 57, 0
6, 414000, Note_on_c, 5, 60, 56
6, 414360, Note_off_c, 5, 60, 0
6, 414960, Note_on_c, 5, 58, 68
6, 415320, Note_off_c, 5, 58, 0
6, 415440, Note_on_c, 5, 54, 69
6, 415800, Note_off_c, 5, 54, 0
6, 415920, Note_on_c, 5, 55, 70
6, 416280, Note_off_c, 5, 55, 0
6, 416400, Note_on_c, 5, 57, 72
6, 416760, Note_off_c, 5, 57, 0
6, 416880, Note_on_c, 5, 58, 79
6, 417240, Note_off_c, 5, 58, 0
6, 417360, Note_on_c, 5, 62, 64
6, 417720, Note_off_c, 5, 62, 0
6, 417840, Note_on_c, 5, 58, 65
6, 418200, Note_off_c, 5, 58, 0
6, 418320, Note_on_c, 5, 59, 66
6, 418680, Note_off_c, 5, 59, 0
6, 418800, Note_on_c, 5, 60, 82
6, 419160, Note_off_c, 5, 60, 0
6, 419280, Note_on_c, 5, 63, 69
6, 419640, Note_off_c, 5, 63, 0
6, 419760, Note_on_c, 5, 60, 70
6, 420120, Note_off_c, 5, 60, 0
6, 420240, Note_on_c, 5, 62, 71
6, 420600, Note_off_c, 5, 62, 0
6, 420720, Note_on_c, 5, 63, 87
6, 421440, Note_off_c, 5, 63, 0
6, 421680, Note_on_c, 5, 63, 75
6, 422400, Note_off_c, 5, 63, 0
6, 422640, Note_on_c, 5, 62, 85
6, 423960, Note_off_c, 5, 62, 0
6, 424560, Control_c, 5, 64, 0
6, 424560, Note_on_c, 5, 38, 79
6, 424560, Note_on_c, 5, 50, 79
6, 425280, Note_off_c, 5, 38, 0
6, 425280, Note_off_c, 5, 50, 0
6, 425520, Note_on_c, 5, 42, 74
6, 425520, Note_on_c, 5, 54, 74
6, 426240, Note_off_c, 5, 42, 0
6, 426240, Note_off_c, 5, 54, 0
6, 426720, Note_on_c, 5, 43, 68
6, 426720, Note_on_c, 5, 55, 68
6, 426876, Note_off_c, 5, 43, 0
6, 426876, Note_off_c, 5, 55, 0
6, 426960, Note_on_c, 5, 42, 67
6, 426960, Note_on_c, 5, 54, 67
6, 427200, Note_off_c, 5, 42, 0
6, 427200, Note_off_c, 5, 54, 0
6, 427200, Note_on_c, 5, 43, 66
6, 427200, Note_on_c, 5, 55, 66
6, 427356, Note_off_c, 5, 43, 0
6, 427356, Note_off_c, 5, 55, 0
6, 427680, Note_on_c, 5, 48, 64
6, 427680, Note_on_c, 5, 60, 64
6, 427836, Note_off_c, 5, 48, 0
6, 427836, Note_off_c, 5, 60, 0
6, 427920, Note_on_c, 5, 47, 62
6, 427920, Note_on_c, 5, 59, 62
6, 428160, Note_off_c, 5, 47, 0
6, 428160, Note_off_c, 5, 59, 0
6, 428160, Note_on_c, 5, 48, 61
6, 428160, Note_on_c, 5, 60, 61
6, 428316, Note_off_c, 5, 48, 0
6, 428316, Note_off_c, 5, 60, 0
6, 428400, Note_on_c, 5, 46, 60
6, 428400, Note_on_c, 5, 58, 60
6, 428760, Note_off_c, 5, 46, 0
6, 428760, Note_off_c, 5, 58, 0
6, 429840, Note_on_c, 5, 63, 49
6, 430200, Note_off_c, 5, 63, 0
6, 430320, Note_on_c, 5, 62, 54
6, 431640, Note_off_c, 5, 62, 0
6, 432240, Note_on_c, 5, 58, 72
6, 432600, Note_off_c, 5, 58, 0
6, 432720, Note_on_c, 5, 62, 53
6, 433080, Note_off_c, 5, 62, 0
6, 433200, Note_on_c, 5, 58, 50
6, 433560, Note_off_c, 5, 58, 0
6, 433680, Note_on_c, 5, 59, 48
6, 434040, Note_off_c, 5, 59, 0
6, 434160, Note_on_c, 5, 60, 65
6, 434520, Note_off_c, 5, 60, 0
6, 434640, Control_c, 5, 64, 127
6, 434640, Note_on_c, 5, 48, 75
6, 435000, Note_off_c, 5, 48, 0
6, 436080, Control_c, 5, 64, 0
6, 438480, Note_on_c, 5, 62, 56
6, 438840, Note_off_c, 5, 62, 0
6, 439440, Note_on_c, 5, 50, 53
6, 439800, Note_off_c, 5, 50, 0
6, 439920, Note_on_c, 5, 55, 54
6, 441240, Note_off_c, 5, 55, 0
6, 441840, Control_c, 5, 64, 0
6, 441840, Note_on_c, 5, 50, 79
6, 441840, Note_on_c, 5, 38, 79
6, 442560, Note_off_c, 5, 50, 0
6, 442560, Note_off_c, 5, 38, 0
6, 442800, Note_on_c, 5, 54, 74
6, 442800, Note_on_c, 5, 42, 74
6, 443520, Note_off_c, 5, 54, 0
6, 443520, Note_off_c, 5, 42, 0
6, 444000, Note_on_c, 5, 55, 68
6, 444000, Note_on_c, 5, 43, 68
6, 444156, Note_off_c, 5, 55, 0
6, 444156, Note_off_c, 5, 43, 0
6, 444240, Note_on_c, 5, 54, 67
6, 444240, Note_on_c, 5, 42, 67
6, 444480, Note_off_c, 5, 54, 0
6, 444480, Note_off_c, 5, 42, 0
6, 444480, Note_on_c, 5, 55, 66
6, 444480, Note_on_c, 5, 43, 66
6, 444636, Note_off_c, 5, 55, 0
6, 444636, Note_off_c, 5, 43, 0
6, 444960, Note_on_c, 5, 60, 64
6, 444960, Note_on_c, 5, 48, 64
6, 445116, Note_off_c, 5, 60, 0
6, 445116, Note_off_c, 5, 48, 0
6, 445200, Note_on_c, 5, 59, 62
6, 445200, Note_on_c, 5, 47, 62
6, 445440, Note_off_c, 5, 59, 0
6, 445440, Note_off_c, 5, 47, 0
6, 445440, Note_on_c, 5, 60, 61
6, 445440, Note_on_c, 5, 48, 61
6, 445596, Note_off_c, 5, 60, 0
6, 445596, Note_off_c, 5, 48, 0
6, 445680, Note_on_c, 5, 58, 60
6, 445680, Note_on_c, 5, 46, 60
6, 446040, Note_off_c, 5, 58, 0
6, 446040, Note_off_c, 5, 46, 0
6, 447120, Note_on_c, 5, 63, 49
6, 447480, Note_off_c, 5, 63, 0
6, 447600, Note_on_c, 5, 62, 54
6, 448920, Note_off_c, 5, 62, 0
6, 449520, Note_on_c, 5, 58, 72
6, 449880, Note_off_c, 5, 58, 0
6, 450000, Note_on_c, 5, 62, 53
6, 450360, Note_off_c, 5, 62, 0
6, 450480, Note_on_c, 5, 58, 50
6, 450840, Note_off_c, 5, 58, 0
6, 450960, Note_on_c, 5, 59, 48
6, 451320, Note_off_c, 5, 59, 0
6, 451440, Note_on_c, 5, 60, 65
6, 451800, Note_off_c, 5, 60, 0
6, 451920, Control_c, 5, 64, 127
6, 451920, Note_on_c, 5, 48, 75
6, 452280, Note_off_c, 5, 48, 0
6, 453360, Control_c, 5, 64, 0
6, 455760, Note_on_c, 5, 62, 56
6, 456120, Note_off_c, 5, 62, 0
6, 456720, Note_on_c, 5, 50, 53
6, 457080, Note_off_c, 5, 50, 0
6, 457200, Note_on_c, 5, 55, 54
6, 458520, Note_off_c, 5, 55, 0
6, 459120, Control_c, 5, 64, 0
6, 459120, Note_on_c, 5, 53, 79
6, 459120, Note_on_c, 5, 41, 79
6, 460080, Note_off_c, 5, 53, 0
6, 460080, Note_off_c, 5, 41, 0
6, 460080, Note_on_c, 5, 40, 68
6, 460080, Note_on_c, 5, 52, 68
6, 460440, Note_off_c, 5, 40, 0
6, 460440, Note_off_c, 5, 52, 0
6, 461040, Note_on_c, 5, 63, 47
6, 462000, Note_off_c, 5, 63, 0
6, 462000, Note_on_c, 5, 62, 40
6, 462360, Note_off_c, 5, 62, 0
6, 462960, Control_c, 5, 64, 127
6, 462960, Note_on_c, 5, 48, 79
6, 463562, Note_off_c, 5, 48, 0
6, 465360, Control_c, 5, 64, 0
6, 465840, Control_c, 5, 64, 0
6, 466320, Note_on_c, 5, 59, 59
6, 466680, Note_off_c, 5, 59, 0
6, 466800, Note_on_c, 5, 60, 63
6, 467715, Note_off_c, 5, 60, 0
6, 468240, Note_on_c, 5, 57, 59
6, 468600, Note_off_c, 5, 57, 0
6, 468720, Note_on_c, 5, 58, 63
6, 469635, Note_off_c, 5, 58, 0
6, 470160, Note_on_c, 5, 62, 60
6, 470520, Note_off_c, 5, 62, 0
6, 470640, Note_on_c, 5, 63, 66
6, 471120, Note_off_c, 5, 63, 0
6, 471120, Note_on_c, 5, 62, 63
6, 471600, Note_off_c, 5, 62, 0
6, 471600, Note_on_c, 5, 60, 58
6, 472080, Note_off_c, 5, 60, 0
6, 472080, Note_on_c, 5, 58, 54
6, 472440, Note_off_c, 5, 58, 0
6, 472560, Note_on_c, 5, 65, 49
6, 473415, Note_off_c, 5, 65, 0
6, 474000, Note_on_c, 5, 59, 74
6, 474000, Note_on_c, 5, 47, 74
6, 474360, Note_off_c, 5, 59, 0
6, 474360, Note_off_c, 5, 47, 0
6, 474480, Note_on_c, 5, 60, 79
6, 474480, Note_on_c, 5, 48, 79
6, 474840, Note_off_c, 5, 60, 0
6, 474840, Note_off_c, 5, 48, 0
6, 474960, Note_on_c, 5, 51, 73
6, 474960, Note_on_c, 5, 63, 73
6, 475320, Note_off_c, 5, 51, 0
6, 475320, Note_off_c, 5, 63, 0
6, 475920, Note_on_c, 5, 45, 72
6, 475920, Note_on_c, 5, 57, 72
6, 476280, Note_off_c, 5, 45, 0
6, 476280, Note_off_c, 5, 57, 0
6, 476400, Note_on_c, 5, 58, 76
6, 476400, Note_on_c, 5, 46, 76
6, 476760, Note_off_c, 5, 58, 0
6, 476760, Note_off_c, 5, 46, 0
6, 476880, Note_on_c, 5, 62, 70
6, 476880, Note_on_c, 5, 50, 70
6, 477240, Note_off_c, 5, 62, 0
6, 477240, Note_off_c, 5, 50, 0
6, 477840, Note_on_c, 5, 50, 73
6, 478200, Note_off_c, 5, 50, 0
6, 478320, Note_on_c, 5, 51, 78
6, 478680, Note_off_c, 5, 51, 0
6, 478800, Note_on_c, 5, 55, 76
6, 479160, Note_off_c, 5, 55, 0
6, 479280, Note_on_c, 5, 53, 73
6, 480120, Note_off_c, 5, 53, 0
6, 480240, Note_on_c, 5, 46, 60
6, 480600, Note_off_c, 5, 46, 0
6, 480720, Note_on_c, 5, 70, 48
6, 481080, Note_off_c, 5, 70, 0
6, 481200, Note_on_c, 5, 72, 47
6, 481560, Note_off_c, 5, 72, 0
6, 481680, Note_on_c, 5, 69, 45
6, 482040, Note_off_c, 5, 69, 0
6, 482160, Note_on_c, 5, 70, 44
6, 482520, Note_off_c, 5, 70, 0
6, 482640, Note_on_c, 5, 62, 42
6, 483000, Note_off_c, 5, 62, 0
6, 483120, Note_on_c, 5, 63, 41
6, 483480, Note_off_c, 5, 63, 0
6, 483600, Note_on_c, 5, 64, 39
6, 483960, Note_off_c, 5, 64, 0
6, 484080, Note_on_c, 5, 65, 41
6, 484440, Note_off_c, 5, 65, 0
6, 484560, Note_on_c, 5, 58, 75
6, 484560, Note_on_c, 5, 46, 75
6, 484920, Note_off_c, 5, 58, 0
6, 484920, Note_off_c, 5, 46, 0
6, 485040, Note_on_c, 5, 60, 74
6, 485040, Note_on_c, 5, 48, 74
6, 485400, Note_off_c, 5, 60, 0
6, 485400, Note_off_c, 5, 48, 0
6, 485520, Note_on_c, 5, 57, 72
6, 485520, Note_on_c, 5, 45, 72
6, 485880, Note_off_c, 5, 57, 0
6, 485880, Note_off_c, 5, 45, 0
6, 486000, Note_on_c, 5, 58, 71
6, 486000, Note_on_c, 5, 46, 71
6, 486360, Note_off_c, 5, 58, 0
6, 486360, Note_off_c, 5, 46, 0
6, 486480, Note_on_c, 5, 39, 69
6, 486480, Note_on_c, 5, 51, 69
6, 486840, Note_off_c, 5, 39, 0
6, 486840, Note_off_c, 5, 51, 0
6, 486960, Note_on_c, 5, 41, 67
6, 486960, Note_on_c, 5, 53, 67
6, 487320, Note_off_c, 5, 41, 0
6, 487320, Note_off_c, 5, 53, 0
6, 487440, Note_on_c, 5, 29, 66
6, 487440, Note_on_c, 5, 41, 66
6, 487800, Note_off_c, 5, 29, 0
6, 487800, Note_off_c, 5, 41, 0
6, 487920, Note_on_c, 5, 34, 64
6, 487920, Note_on_c, 5, 46, 64
6, 488280, Note_off_c, 5, 34, 0
6, 488280, Note_off_c, 5, 46, 0
6, 488400, Note_on_c, 5, 50, 62
6, 488400, Note_on_c, 5, 38, 62
6, 488880, Note_off_c, 5, 50, 0
6, 488880, Note_off_c, 5, 38, 0
6, 488880, Note_on_c, 5, 51, 65
6, 488880, Note_on_c, 5, 39, 65
6, 489360, Note_off_c, 5, 51, 0
6, 489360, Note_off_c, 5, 39, 0
6, 489360, Note_on_c, 5, 38, 67
6, 489360, Note_on_c, 5, 50, 67
6, 489840, Note_off_c, 5, 38, 0
6, 489840, Note_off_c, 5, 50, 0
6, 489840, Note_on_c, 5, 51, 70
6, 489840, Note_on_c, 5, 39, 70
6, 490200, Note_off_c, 5, 51, 0
6, 490200, Note_off_c, 5, 39, 0
6, 490800, Note_on_c, 5, 53, 49
6, 491640, Note_off_c, 5, 53, 0
6, 491760, Note_on_c, 5, 58, 40
6, 492120, Note_off_c, 5, 58, 0
6, 492240, Note_on_c, 5, 38, 68
6, 492240, Note_on_c, 5, 50, 68
6, 492720, Note_off_c, 5, 38, 0
6, 492720, Note_off_c, 5, 50, 0
6, 492720, Note_on_c, 5, 39, 71
6, 492720, Note_on_c, 5, 51, 71
6, 493200, Note_off_c, 5, 39, 0
6, 493200, Note_off_c, 5, 51, 0
6, 493200, Note_on_c, 5, 50, 75
6, 493200, Note_on_c, 5, 38, 75
6, 493680, Note_off_c, 5, 50, 0
6, 493680, Note_off_c, 5, 38, 0
6, 493680, Note_on_c, 5, 39, 79
6, 493680, Note_on_c, 5, 51, 79
6, 494040, Note_off_c, 5, 39, 0
6, 494040, Note_off_c, 5, 51, 0
6, 494640, Note_on_c, 5, 53, 54
6, 495480, Note_off_c, 5, 53, 0
6, 495600, Note_on_c, 5, 58, 47
6, 495960, Note_off_c, 5, 58, 0
6, 496080, Note_on_c, 5, 53, 43
6, 496440, Note_off_c, 5, 53, 0
6, 496560, Note_on_c, 5, 58, 39
6, 496920, Note_off_c, 5, 58, 0
6, 497040, Note_on_c, 5, 53, 35
6, 497400, Note_off_c, 5, 53, 0
6, 497520, Note_on_c, 5, 58, 31
6, 497880, Note_off_c, 5, 58, 0
6, 498960, Note_on_c, 5, 52, 82
6, 499080, Note_off_c, 5, 52, 0
6, 499080, Note_on_c, 5, 53, 82
6, 499320, Note_off_c, 5, 53, 0
6, 499440, Note_on_c, 5, 55, 78
6, 499560, Note_off_c, 5, 55, 0
6, 499560, Note_on_c, 5, 56, 76
6, 499800, Note_off_c, 5, 56, 0
6, 503280, Note_on_c, 5, 62, 59
6, 503640, Note_off_c, 5, 62, 0
6, 503760, Note_on_c, 5, 62, 50
6, 504120, Note_off_c, 5, 62, 0
6, 504240, Note_on_c, 5, 62, 45
6, 504600, Note_off_c, 5, 62, 0
6, 504720, Note_on_c, 5, 62, 41
6, 505080, Note_off_c, 5, 62, 0
6, 507120, Note_on_c, 5, 62, 55
6, 507480, Note_off_c, 5, 62, 0
6, 507600, Note_on_c, 5, 62, 46
6, 507960, Note_off_c, 5, 62, 0
6, 508080, Note_on_c, 5, 62, 43
6, 508440, Note_off_c, 5, 62, 0
6, 508560, Note_on_c, 5, 62, 40
6, 508920, Note_off_c, 5, 62, 0
6, 509040, Note_on_c, 5, 63, 70
6, 509280, Note_off_c, 5, 63, 0
6, 509280, Note_on_c, 5, 65, 71
6, 509520, Note_off_c, 5, 65, 0
6, 509520, Note_on_c, 5, 62, 72
6, 509760, Note_off_c, 5, 62, 0
6, 509760, Note_on_c, 5, 63, 73
6, 510000, Note_off_c, 5, 63, 0
6, 510000, Note_on_c, 5, 60, 73
6, 510240, Note_off_c, 5, 60, 0
6, 510240, Note_on_c, 5, 62, 74
6, 510480, Note_off_c, 5, 62, 0
6, 510480, Note_on_c, 5, 58, 75
6, 510720, Note_off_c, 5, 58, 0
6, 510720, Note_on_c, 5, 60, 76
6, 510960, Note_off_c, 5, 60, 0
6, 510960, Note_on_c, 5, 56, 79
6, 511200, Note_off_c, 5, 56, 0
6, 511200, Note_on_c, 5, 60, 78
6, 511440, Note_off_c, 5, 60, 0
6, 511440, Note_on_c, 5, 62, 76
6, 511680, Note_off_c, 5, 62, 0
6, 511680, Note_on_c, 5, 64, 74
6, 511920, Note_off_c, 5, 64, 0
6, 511920, Note_on_c, 5, 65, 73
6, 512160, Note_off_c, 5, 65, 0
6, 512160, Note_on_c, 5, 63, 71
6, 512400, Note_off_c, 5, 63, 0
6, 512400, Note_on_c, 5, 62, 70
6, 512640, Note_off_c, 5, 62, 0
6, 512640, Note_on_c, 5, 60, 68
6, 512832, Note_off_c, 5, 60, 0
6, 512880, Note_on_c, 5, 58, 68
6, 513120, Note_off_c, 5, 58, 0
6, 513120, Note_on_c, 5, 56, 69
6, 513360, Note_off_c, 5, 56, 0
6, 513360, Note_on_c, 5, 55, 71
6, 513600, Note_off_c, 5, 55, 0
6, 513600, Note_on_c, 5, 51, 72
6, 513840, Note_off_c, 5, 51, 0
6, 513840, Note_on_c, 5, 56, 73
6, 514080, Note_off_c, 5, 56, 0
6, 514080, Note_on_c, 5, 53, 74
6, 514320, Note_off_c, 5, 53, 0
6, 514320, Note_on_c, 5, 58, 75
6, 514560, Note_off_c, 5, 58, 0
6, 514560, Note_on_c, 5, 56, 76
6, 514800, Note_off_c, 5, 56, 0
6, 514800, Note_on_c, 5, 55, 79
6, 515040, Note_off_c, 5, 55, 0
6, 515040, Note_on_c, 5, 56, 76
6, 515280, Note_off_c, 5, 56, 0
6, 515280, Note_on_c, 5, 55, 74
6, 515520, Note_off_c, 5, 55, 0
6, 515520, Note_on_c, 5, 53, 72
6, 515760, Note_off_c, 5, 53, 0
6, 515760, Note_on_c, 5, 51, 69
6, 516000, Note_off_c, 5, 51, 0
6, 516000, Note_on_c, 5, 55, 67
6, 516240, Note_off_c, 5, 55, 0
6, 516240, Note_on_c, 5, 58, 65
6, 516480, Note_off_c, 5, 58, 0
6, 516480, Note_on_c, 5, 62, 63
6, 516720, Note_off_c, 5, 62, 0
6, 516720, Note_on_c, 5, 63, 61
6, 516912, Note_off_c, 5, 63, 0
6, 516960, Note_on_c, 5, 75, 46
6, 517152, Note_off_c, 5, 75, 0
6, 517200, Note_on_c, 5, 74, 48
6, 517440, Note_off_c, 5, 74, 0
6, 517440, Note_on_c, 5, 75, 49
6, 517632, Note_off_c, 5, 75, 0
6, 517680, Note_on_c, 5, 72, 51
6, 517920, Note_off_c, 5, 72, 0
6, 517920, Note_on_c, 5, 74, 52
6, 518112, Note_off_c, 5, 74, 0
6, 518160, Note_on_c, 5, 70, 54
6, 518400, Note_off_c, 5, 70, 0
6, 518400, Note_on_c, 5, 72, 55
6, 518592, Note_off_c, 5, 72, 0
6, 518640, Note_on_c, 5, 68, 59
6, 518832, Note_off_c, 5, 68, 0
6, 518880, Note_on_c, 5, 72, 58
6, 519120, Note_off_c, 5, 72, 0
6, 519120, Note_on_c, 5, 74, 57
6, 519360, Note_off_c, 5, 74, 0
6, 519360, Note_on_c, 5, 76, 56
6, 519600, Note_off_c, 5, 76, 0
6, 519600, Note_on_c, 5, 77, 55
6, 519840, Note_off_c, 5, 77, 0
6, 519840, Note_on_c, 5, 75, 54
6, 520080, Note_off_c, 5, 75, 0
6, 520080, Note_on_c, 5, 74, 53
6, 520320, Note_off_c, 5, 74, 0
6, 520320, Note_on_c, 5, 72, 52
6, 520512, Note_off_c, 5, 72, 0
6, 520560, Note_on_c, 5, 70, 66
6, 520800, Note_off_c, 5, 70, 0
6, 520800, Note_on_c, 5, 68, 67
6, 521040, Note_off_c, 5, 68, 0
6, 521040, Note_on_c, 5, 67, 68
6, 521280, Note_off_c, 5, 67, 0
6, 521280, Note_on_c, 5, 63, 69
6, 521472, Note_off_c, 5, 63, 0
6, 521520, Note_on_c, 5, 68, 70
6, 521676, Note_off_c, 5, 68, 0
6, 521760, Note_on_c, 5, 65, 71
6, 521916, Note_off_c, 5, 65, 0
6, 522000, Note_on_c, 5, 70, 72
6, 522156, Note_off_c, 5, 70, 0
6, 522240, Note_on_c, 5, 58, 73
6, 522396, Note_off_c, 5, 58, 0
6, 522480, Note_on_c, 5, 63, 75
6, 522840, Note_off_c, 5, 63, 0
6, 524400, Note_on_c, 5, 62, 79
6, 524560, Note_off_c, 5, 62, 0
6, 525360, Note_on_c, 5, 62, 77
6, 525520, Note_off_c, 5, 62, 0
6, 526320, Note_on_c, 5, 63, 74
6, 526680, Note_off_c, 5, 63, 0
6, 528240, Note_on_c, 5, 60, 73
6, 528400, Note_off_c, 5, 60, 0
6, 529200, Note_on_c, 5, 60, 70
6, 529360, Note_off_c, 5, 60, 0
6, 530160, Note_on_c, 5, 62, 67
6, 530520, Note_off_c, 5, 62, 0
6, 531600, Note_on_c, 5, 62, 73
6, 531960, Note_off_c, 5, 62, 0
6, 532080, Note_on_c, 5, 63, 75
6, 532560, Note_off_c, 5, 63, 0
6, 532560, Note_on_c, 5, 67, 77
6, 533040, Note_off_c, 5, 67, 0
6, 533040, Note_on_c, 5, 65, 79
6, 533520, Note_off_c, 5, 65, 0
6, 533520, Note_on_c, 5, 68, 82
6, 533880, Note_off_c, 5, 68, 0
6, 534000, Note_on_c, 5, 67, 84
6, 534480, Note_off_c, 5, 67, 0
6, 534480, Note_on_c, 5, 63, 86
6, 534840, Note_off_c, 5, 63, 0
6, 534960, Note_on_c, 5, 62, 89
6, 535440, Note_off_c, 5, 62, 0
6, 535440, Note_on_c, 5, 58, 91
6, 535800, Note_off_c, 5, 58, 0
6, 535920, Note_on_c, 5, 63, 93
6, 536280, Note_off_c, 5, 63, 0
6, 537360, Note_on_c, 5, 51, 80
6, 537720, Note_off_c, 5, 51, 0
6, 537840, Note_on_c, 5, 53, 76
6, 538680, Note_off_c, 5, 53, 0
6, 539760, Note_on_c, 5, 43, 76
6, 539920, Note_off_c, 5, 43, 0
6, 539920, Note_on_c, 5, 46, 76
6, 540080, Note_off_c, 5, 46, 0
6, 540080, Note_on_c, 5, 52, 76
6, 540240, Note_off_c, 5, 52, 0
6, 540240, Note_on_c, 5, 55, 76
6, 540400, Note_off_c, 5, 55, 0
6, 540400, Note_on_c, 5, 58, 75
6, 540560, Note_on_c, 5, 64, 75
6, 540565, Note_off_c, 5, 58, 0
6, 540720, Note_off_c, 5, 64, 0
6, 540720, Note_on_c, 5, 67, 75
6, 541080, Note_off_c, 5, 67, 0
6, 541680, Note_on_c, 5, 65, 74
6, 541840, Note_off_c, 5, 65, 0
6, 541840, Note_on_c, 5, 60, 74
6, 542000, Note_off_c, 5, 60, 0
6, 542000, Note_on_c, 5, 57, 74
6, 542160, Note_off_c, 5, 57, 0
6, 542160, Note_on_c, 5, 53, 73
6, 542320, Note_off_c, 5, 53, 0
6, 542320, Note_on_c, 5, 48, 73
6, 542480, Note_off_c, 5, 48, 0
6, 542480, Note_on_c, 5, 45, 73
6, 542640, Note_off_c, 5, 45, 0
6, 542640, Note_on_c, 5, 41, 73
6, 543000, Note_off_c, 5, 41, 0
6, 543600, Note_on_c, 5, 43, 72
6, 543760, Note_off_c, 5, 43, 0
6, 543760, Note_on_c, 5, 46, 72
6, 543920, Note_off_c, 5, 46, 0
6, 543920, Note_on_c, 5, 52, 71
6, 544080, Note_off_c, 5, 52, 0
6, 544080, Note_on_c, 5, 55, 71
6, 544240, Note_off_c, 5, 55, 0
6, 544240, Note_on_c, 5, 58, 71
6, 544400, Note_off_c, 5, 58, 0
6, 544400, Note_on_c, 5, 64, 71
6, 544560, Note_off_c, 5, 64, 0
6, 544560, Note_on_c, 5, 67, 71
6, 544920, Note_off_c, 5, 67, 0
6, 545520, Note_on_c, 5, 53, 70
6, 545880, Note_off_c, 5, 53, 0
6, 548400, Note_on_c, 5, 65, 72
6, 548880, Note_off_c, 5, 65, 0
6, 548880, Note_on_c, 5, 67, 76
6, 549240, Note_off_c, 5, 67, 0
6, 549360, Note_on_c, 5, 65, 79
6, 549600, Note_off_c, 5, 65, 0
6, 549600, Note_on_c, 5, 63, 76
6, 549840, Note_off_c, 5, 63, 0
6, 549840, Note_on_c, 5, 62, 73
6, 550080, Note_off_c, 5, 62, 0
6, 550080, Note_on_c, 5, 60, 71
6, 550320, Note_off_c, 5, 60, 0
6, 550320, Note_on_c, 5, 63, 68
6, 550800, Note_off_c, 5, 63, 0
6, 550800, Note_on_c, 5, 65, 70
6, 551160, Note_off_c, 5, 65, 0
6, 551280, Note_on_c, 5, 63, 73
6, 551520, Note_off_c, 5, 63, 0
6, 551520, Note_on_c, 5, 62, 71
6, 551760, Note_off_c, 5, 62, 0
6, 551760, Note_on_c, 5, 60, 69
6, 552000, Note_off_c, 5, 60, 0
6, 552000, Note_on_c, 5, 58, 66
6, 552192, Note_off_c, 5, 58, 0
6, 552240, Note_on_c, 5, 65, 64
6, 552720, Note_off_c, 5, 65, 0
6, 552720, Note_on_c, 5, 70, 71
6, 553080, Note_off_c, 5, 70, 0
6, 553200, Note_on_c, 5, 60, 77
6, 553440, Note_off_c, 5, 60, 0
6, 553440, Note_on_c, 5, 69, 76
6, 553680, Note_off_c, 5, 69, 0
6, 553680, Note_on_c, 5, 58, 75
6, 553920, Note_off_c, 5, 58, 0
6, 553920, Note_on_c, 5, 67, 74
6, 554160, Note_off_c, 5, 67, 0
6, 554160, Note_on_c, 5, 57, 73
6, 554400, Note_off_c, 5, 57, 0
6, 554400, Note_on_c, 5, 65, 73
6, 554640, Note_off_c, 5, 65, 0
6, 554640, Note_on_c, 5, 55, 72
6, 554880, Note_off_c, 5, 55, 0
6, 554880, Note_on_c, 5, 64, 71
6, 555120, Note_off_c, 5, 64, 0
6, 555120, Note_on_c, 5, 65, 70
6, 555240, Note_off_c, 5, 65, 0
6, 555240, Note_on_c, 5, 67, 71
6, 555360, Note_off_c, 5, 67, 0
6, 555360, Note_on_c, 5, 69, 71
6, 555480, Note_off_c, 5, 69, 0
6, 555480, Note_on_c, 5, 70, 70
6, 555600, Note_off_c, 5, 70, 0
6, 555600, Note_on_c, 5, 72, 70
6, 555720, Note_off_c, 5, 72, 0
6, 555720, Note_on_c, 5, 70, 69
6, 555840, Note_off_c, 5, 70, 0
6, 555840, Note_on_c, 5, 69, 69
6, 555960, Note_off_c, 5, 69, 0
6, 555960, Note_on_c, 5, 67, 68
6, 556080, Note_off_c, 5, 67, 0
6, 556080, Note_on_c, 5, 65, 68
6, 556236, Note_off_c, 5, 65, 0
6, 556320, Note_on_c, 5, 65, 67
6, 556476, Note_off_c, 5, 65, 0
6, 556560, Note_on_c, 5, 65, 66
6, 556716, Note_off_c, 5, 65, 0
6, 556800, Note_on_c, 5, 65, 65
6, 556956, Note_off_c, 5, 65, 0
6, 564720, Note_on_c, 5, 65, 63
6, 564880, Note_off_c, 5, 65, 0
6, 564880, Note_on_c, 5, 67, 62
6, 565040, Note_off_c, 5, 67, 0
6, 565040, Note_on_c, 5, 65, 62
6, 565200, Note_off_c, 5, 65, 0
6, 565200, Note_on_c, 5, 63, 61
6, 565360, Note_off_c, 5, 63, 0
6, 565360, Note_on_c, 5, 65, 60
6, 565520, Note_off_c, 5, 65, 0
6, 565520, Note_on_c, 5, 63, 60
6, 565680, Note_off_c, 5, 63, 0
6, 565680, Note_on_c, 5, 62, 59
6, 565840, Note_off_c, 5, 62, 0
6, 565840, Note_on_c, 5, 63, 58
6, 566000, Note_off_c, 5, 63, 0
6, 566000, Note_on_c, 5, 62, 58
6, 566160, Note_off_c, 5, 62, 0
6, 566160, Note_on_c, 5, 60, 57
6, 566320, Note_off_c, 5, 60, 0
6, 566320, Note_on_c, 5, 62, 56
6, 566480, Note_off_c, 5, 62, 0
6, 566480, Note_on_c, 5, 60, 56
6, 566640, Note_off_c, 5, 60, 0
6, 574320, Note_on_c, 5, 50, 73
6, 574680, Note_off_c, 5, 50, 0
6, 576240, Note_on_c, 5, 51, 41
6, 576600, Note_off_c, 5, 51, 0
6, 577680, Note_on_c, 5, 63, 59
6, 578040, Note_off_c, 5, 63, 0
6, 578160, Note_on_c, 5, 62, 64
6, 578520, Note_off_c, 5, 62, 0
6, 578640, Note_on_c, 5, 67, 60
6, 579000, Note_off_c, 5, 67, 0
6, 579120, Note_on_c, 5, 63, 57
6, 579480, Note_off_c, 5, 63, 0
6, 579600, Note_on_c, 5, 65, 54
6, 579960, Note_off_c, 5, 65, 0
6, 580080, Note_on_c, 5, 62, 51
6, 580440, Note_off_c, 5, 62, 0
6, 582000, Note_on_c, 5, 63, 42
6, 582360, Note_off_c, 5, 63, 0
6, 583200, Note_on_c, 5, 59, 49
6, 583392, Note_off_c, 5, 59, 0
6, 583440, Note_on_c, 5, 60, 51
6, 583632, Note_off_c, 5, 60, 0
6, 583680, Note_on_c, 5, 62, 53
6, 583872, Note_off_c, 5, 62, 0
6, 583920, Note_on_c, 5, 63, 55
6, 584112, Note_off_c, 5, 63, 0
6, 584160, Note_on_c, 5, 65, 57
6, 584352, Note_off_c, 5, 65, 0
6, 584400, Note_on_c, 5, 67, 59
6, 584592, Note_off_c, 5, 67, 0
6, 584640, Note_on_c, 5, 66, 61
6, 584832, Note_off_c, 5, 66, 0
6, 584880, Note_on_c, 5, 67, 63
6, 585072, Note_off_c, 5, 67, 0
6, 585120, Note_on_c, 5, 66, 65
6, 585312, Note_off_c, 5, 66, 0
6, 585360, Note_on_c, 5, 67, 67
6, 585552, Note_off_c, 5, 67, 0
6, 585600, Note_on_c, 5, 66, 69
6, 585792, Note_off_c, 5, 66, 0
6, 585840, Note_on_c, 5, 67, 71
6, 586032, Note_off_c, 5, 67, 0
6, 586080, Note_on_c, 5, 69, 73
6, 586272, Note_off_c, 5, 69, 0
6, 586320, Note_on_c, 5, 70, 75
6, 586512, Note_off_c, 5, 70, 0
6, 586560, Note_on_c, 5, 69, 77
6, 586752, Note_off_c, 5, 69, 0
6, 586800, Note_on_c, 5, 70, 79
6, 586992, Note_off_c, 5, 70, 0
6, 587040, Note_on_c, 5, 69, 81
6, 587232, Note_off_c, 5, 69, 0
6, 587280, Note_on_c, 5, 70, 83
6, 587472, Note_off_c, 5, 70, 0
6, 587520, Note_on_c, 5, 69, 86
6, 587712, Note_off_c, 5, 69, 0
6, 587760, Control_c, 5, 64, 0
6, 587760, Note_on_c, 5, 70, 90
6, 588120, Note_off_c, 5, 70, 0
6, 588240, Note_on_c, 5, 62, 82
6, 588720, Note_off_c, 5, 62, 0
6, 588720, Note_on_c, 5, 63, 73
6, 589200, Note_on_c, 5, 65, 69
6, 589222, Note_off_c, 5, 63, 0
6, 589560, Note_off_c, 5, 65, 0
6, 589680, Note_on_c, 5, 58, 64
6, 589872, Note_off_c, 5, 58, 0
6, 590160, Note_on_c, 5, 62, 77
6, 590400, Note_off_c, 5, 62, 0
6, 590640, Note_on_c, 5, 62, 70
6, 590880, Note_off_c, 5, 62, 0
6, 591120, Note_on_c, 5, 62, 66
6, 591360, Note_off_c, 5, 62, 0
6, 591600, Note_on_c, 5, 63, 61
6, 591792, Note_off_c, 5, 63, 0
6, 592080, Note_on_c, 5, 60, 73
6, 592320, Note_off_c, 5, 60, 0
6, 592560, Note_on_c, 5, 60, 67
6, 592800, Note_off_c, 5, 60, 0
6, 593040, Note_on_c, 5, 60, 64
6, 593280, Note_off_c, 5, 60, 0
6, 593520, Note_on_c, 5, 62, 61
6, 593760, Note_off_c, 5, 62, 0
6, 594000, Note_on_c, 5, 62, 73
6, 594240, Note_off_c, 5, 62, 0
6, 594480, Note_on_c, 5, 62, 66
6, 594720, Note_off_c, 5, 62, 0
6, 594960, Note_on_c, 5, 62, 62
6, 595200, Note_off_c, 5, 62, 0
6, 595440, Note_on_c, 5, 63, 58
6, 595632, Note_off_c, 5, 63, 0
6, 595920, Note_on_c, 5, 60, 69
6, 596160, Note_off_c, 5, 60, 0
6, 596400, Note_on_c, 5, 60, 61
6, 596640, Note_off_c, 5, 60, 0
6, 596880, Note_on_c, 5, 60, 56
6, 597120, Note_off_c, 5, 60, 0
6, 597360, Note_on_c, 5, 62, 47
6, 597720, Note_off_c, 5, 62, 0
6, 598320, Note_on_c, 5, 57, 52
6, 598680, Note_off_c, 5, 57, 0
6, 599280, Note_on_c, 5, 60, 45
6, 599640, Note_off_c, 5, 60, 0
6, 600240, Note_on_c, 5, 60, 60
6, 600600, Note_off_c, 5, 60, 0
6, 601200, Note_on_c, 5, 62, 52
6, 601560, Note_off_c, 5, 62, 0
6, 602640, Note_on_c, 5, 59, 59
6, 603000, Note_off_c, 5, 59, 0
6, 603120, Note_on_c, 5, 60, 63
6, 604035, Note_off_c, 5, 60, 0
6, 604560, Note_on_c, 5, 57, 59
6, 604920, Note_off_c, 5, 57, 0
6, 605040, Note_on_c, 5, 58, 60
6, 605955, Note_off_c, 5, 58, 0
6, 606480, Note_on_c, 5, 62, 60
6, 606840, Note_off_c, 5, 62, 0
6, 606960, Note_on_c, 5, 63, 66
6, 607440, Note_off_c, 5, 63, 0
6, 607440, Note_on_c, 5, 62, 63
6, 607920, Note_off_c, 5, 62, 0
6, 607920, Note_on_c, 5, 60, 58
6, 608400, Note_off_c, 5, 60, 0
6, 608400, Note_on_c, 5, 58, 54
6, 608760, Note_off_c, 5, 58, 0
6, 608880, Note_on_c, 5, 65, 49
6, 609735, Note_off_c, 5, 65, 0
6, 610320, Note_on_c, 5, 59, 74
6, 610320, Note_on_c, 5, 47, 74
6, 610680, Note_off_c, 5, 59, 0
6, 610680, Note_off_c, 5, 47, 0
6, 610800, Note_on_c, 5, 60, 79
6, 610800, Note_on_c, 5, 48, 79
6, 611160, Note_off_c, 5, 60, 0
6, 611160, Note_off_c, 5, 48, 0
6, 611280, Note_on_c, 5, 51, 73
6, 611280, Note_on_c, 5, 63, 73
6, 611640, Note_off_c, 5, 51, 0
6, 611640, Note_off_c, 5, 63, 0
6, 612240, Note_on_c, 5, 45, 72
6, 612240, Note_on_c, 5, 57, 72
6, 612600, Note_off_c, 5, 45, 0
6, 612600, Note_off_c, 5, 57, 0
6, 612720, Note_on_c, 5, 58, 76
6, 612720, Note_on_c, 5, 46, 76
6, 613080, Note_off_c, 5, 58, 0
6, 613080, Note_off_c, 5, 46, 0
6, 613200, Note_on_c, 5, 62, 70
6, 613200, Note_on_c, 5, 50, 70
6, 613560, Note_off_c, 5, 62, 0
6, 613560, Note_off_c, 5, 50, 0
6, 614160, Note_on_c, 5, 50, 73
6, 614520, Note_off_c, 5, 50, 0
6, 614640, Note_on_c, 5, 51, 81
6, 615000, Note_off_c, 5, 51, 0
6, 615120, Note_on_c, 5, 55, 76
6, 615480, Note_off_c, 5, 55, 0
6, 615600, Note_on_c, 5, 53, 71
6, 616440, Note_off_c, 5, 53, 0
6, 616560, Note_on_c, 5, 46, 57
6, 616920, Note_off_c, 5, 46, 0
6, 617040, Note_on_c, 5, 70, 48
6, 617400, Note_off_c, 5, 70, 0
6, 617520, Note_on_c, 5, 72, 47
6, 617880, Note_off_c, 5, 72, 0
6, 618000, Note_on_c, 5, 69, 45
6, 618360, Note_off_c, 5, 69, 0
6, 618480, Note_on_c, 5, 70, 44
6, 618840, Note_off_c, 5, 70, 0
6, 618960, Note_on_c, 5, 62, 42
6, 619320, Note_off_c, 5, 62, 0
6, 619440, Note_on_c, 5, 63, 41
6, 619800, Note_off_c, 5, 63, 0
6, 619920, Note_on_c, 5, 64, 39
6, 620280, Note_off_c, 5, 64, 0
6, 620400, Note_on_c, 5, 65, 41
6, 620760, Note_off_c, 5, 65, 0
6, 620880, Note_on_c, 5, 58, 75
6, 620880, Note_on_c, 5, 46, 75
6, 621240, Note_off_c, 5, 58, 0
6, 621240, Note_off_c, 5, 46, 0
6, 621360, Note_on_c, 5, 60, 74
6, 621360, Note_on_c, 5, 48, 74
6, 621720, Note_off_c, 5, 60, 0
6, 621720, Note_off_c, 5, 48, 0
6, 621840, Note_on_c, 5, 57, 73
6, 621840, Note_on_c, 5, 45, 73
6, 622200, Note_off_c, 5, 57, 0
6, 622200, Note_off_c, 5, 45, 0
6, 622320, Note_on_c, 5, 58, 71
6, 622320, Note_on_c, 5, 46, 71
6, 622680, Note_off_c, 5, 58, 0
6, 622680, Note_off_c, 5, 46, 0
6, 622800, Note_on_c, 5, 39, 70
6, 622800, Note_on_c, 5, 51, 70
6, 623160, Note_off_c, 5, 39, 0
6, 623160, Note_off_c, 5, 51, 0
6, 623280, Note_on_c, 5, 41, 69
6, 623280, Note_on_c, 5, 53, 69
6, 623640, Note_off_c, 5, 41, 0
6, 623640, Note_off_c, 5, 53, 0
6, 623760, Note_on_c, 5, 29, 68
6, 623760, Note_on_c, 5, 41, 68
6, 624120, Note_off_c, 5, 29, 0
6, 624120, Note_off_c, 5, 41, 0
6, 624240, Note_on_c, 5, 34, 66
6, 624240, Note_on_c, 5, 46, 66
6, 624600, Note_off_c, 5, 34, 0
6, 624600, Note_off_c, 5, 46, 0
6, 624720, Note_on_c, 5, 50, 61
6, 624720, Note_on_c, 5, 38, 61
6, 625200, Note_off_c, 5, 50, 0
6, 625200, Note_off_c, 5, 38, 0
6, 625200, Note_on_c, 5, 51, 65
6, 625200, Note_on_c, 5, 39, 65
6, 625680, Note_off_c, 5, 51, 0
6, 625680, Note_off_c, 5, 39, 0
6, 625680, Note_on_c, 5, 38, 68
6, 625680, Note_on_c, 5, 50, 68
6, 626160, Note_off_c, 5, 38, 0
6, 626160, Note_off_c, 5, 50, 0
6, 626160, Note_on_c, 5, 51, 72
6, 626160, Note_on_c, 5, 39, 72
6, 626520, Note_off_c, 5, 51, 0
6, 626520, Note_off_c, 5, 39, 0
6, 627120, Note_on_c, 5, 53, 49
6, 627960, Note_off_c, 5, 53, 0
6, 628080, Note_on_c, 5, 58, 40
6, 628440, Note_off_c, 5, 58, 0
6, 628560, Note_on_c, 5, 38, 68
6, 628560, Note_on_c, 5, 50, 68
6, 629040, Note_off_c, 5, 38, 0
6, 629040, Note_off_c, 5, 50, 0
6, 629040, Note_on_c, 5, 39, 71
6, 629040, Note_on_c, 5, 51, 71
6, 629520, Note_off_c, 5, 39, 0
6, 629520, Note_off_c, 5, 51, 0
6, 629520, Note_on_c, 5, 50, 75
6, 629520, Note_on_c, 5, 38, 75
6, 630000, Note_off_c, 5, 50, 0
6, 630000, Note_off_c, 5, 38, 0
6, 630000, Note_on_c, 5, 39, 79
6, 630000, Note_on_c, 5, 51, 79
6, 630360, Note_off_c, 5, 39, 0
6, 630360, Note_off_c, 5, 51, 0
6, 630960, Note_on_c, 5, 53, 65
6, 631800, Note_off_c, 5, 53, 0
6, 631920, Note_on_c, 5, 58, 59
6, 632280, Note_off_c, 5, 58, 0
6, 632400, Note_on_c, 5, 53, 57
6, 632760, Note_off_c, 5, 53, 0
6, 632880, Note_on_c, 5, 58, 54
6, 633240, Note_off_c, 5, 58, 0
6, 633360, Note_on_c, 5, 53, 51
6, 633720, Note_off_c, 5, 53, 0
6, 633840, Note_on_c, 5, 58, 48
6, 634200, Note_off_c, 5, 58, 0
6, 635280, Note_on_c, 5, 53, 40
6, 635640, Note_off_c, 5, 53, 0
6, 635760, Note_on_c, 5, 58, 38
6, 636120, Note_off_c, 5, 58, 0
6, 637200, Note_on_c, 5, 53, 30
6, 637560, Note_off_c, 5, 53, 0
6, 637680, Note_on_c, 5, 58, 27
6, 638040, Note_off_c, 5, 58, 0
6, 639120, Note_on_c, 5, 52, 99
6, 639240, Note_off_c, 5, 52, 0
6, 639240, Note_on_c, 5, 53, 98
6, 639480, Note_off_c, 5, 53, 0
6, 639600, Note_on_c, 5, 57, 95
6, 639720, Note_off_c, 5, 57, 0
6, 639720, Note_on_c, 5, 58, 94
6, 639960, Note_off_c, 5, 58, 0
6, 641520, End_track
0, 0, End_of_file