0, 0, Header, 1, 20, 120
1, 0, Start_track
1, 0, Sequencer_specific, 0A, 00, 00, 5B, 23, 01, 00, 05, 04, 23, 00
1, 0, Title_t, "W. A. Mozart - Requiem K. 626"
1, 0, Instrument_name_t, "Conductor Track"
1, 0, SMPTE_offset, 96, 0, 3, 0, 0
1, 0, MIDI_port, 0
1, 0, Key_signature, -3, "major"
1, 0, Tempo, 923076
1, 0, Time_signature, 3, 2, 24, 8
1, 19200, Tempo, 1500000
1, 19440, Tempo, 800000
1, 19440, Key_signature, -2, "major"
1, 19440, Time_signature, 4, 2, 24, 8
1, 36720, Tempo, 750000
1, 36720, End_track
2, 0, Start_track
2, 0, Title_t, "No. 9 - Hostias"
2, 0, MIDI_port, 0
2, 0, End_track
3, 0, Start_track
3, 0, Title_t, "Sequenced by D. Viens 8 Nov 1997"
3, 0, MIDI_port, 0
3, 0, End_track
4, 0, Start_track
4, 0, Title_t, "dlviens@ix.netcom.com"
4, 0, MIDI_port, 0
4, 0, End_track
5, 0, Start_track
5, 0, MIDI_port, 0
5, 0, End_track
6, 0, Start_track
6, 0, Title_t, "Corni di Bassetto in F"
6, 0, MIDI_port, 0
6, 0, Control_c, 0, 7, 96
6, 0, Control_c, 0, 10, 75
6, 0, Control_c, 0, 11, 127
6, 0, Program_c, 0, 71
6, 720, Note_on_c, 0, 70, 48
6, 720, Note_on_c, 0, 67, 48
6, 1079, Note_on_c, 0, 67, 0
6, 1080, Note_on_c, 0, 65, 48
6, 1199, Note_on_c, 0, 70, 0
6, 1200, Note_on_c, 0, 72, 48
6, 1319, Note_on_c, 0, 72, 0
6, 1320, Note_on_c, 0, 74, 48
6, 1439, Note_on_c, 0, 65, 0
6, 1439, Note_on_c, 0, 74, 0
6, 1440, Note_on_c, 0, 75, 48
6, 1440, Note_on_c, 0, 67, 48
6, 1679, Note_on_c, 0, 67, 0
6, 1680, Note_on_c, 0, 65, 48
6, 1799, Note_on_c, 0, 75, 0
6, 1799, Note_on_c, 0, 65, 0
6, 1800, Note_on_c, 0, 75, 48
6, 1800, Note_on_c, 0, 65, 48
6, 2039, Note_on_c, 0, 75, 0
6, 2040, Note_on_c, 0, 74, 48
6, 2159, Note_on_c, 0, 65, 0
6, 2159, Note_on_c, 0, 74, 0
6, 2160, Note_on_c, 0, 67, 48
6, 2160, Note_on_c, 0, 72, 48
6, 2399, Note_on_c, 0, 67, 0
6, 2400, Note_on_c, 0, 68, 48
6, 2519, Note_on_c, 0, 72, 0
6, 2519, Note_on_c, 0, 68, 0
6, 2520, Note_on_c, 0, 70, 48
6, 2520, Note_on_c, 0, 65, 48
6, 2759, Note_on_c, 0, 65, 0
6, 2760, Note_on_c, 0, 67, 48
6, 2879, Note_on_c, 0, 70, 0
6, 2879, Note_on_c, 0, 67, 0
6, 2880, Note_on_c, 0, 68, 48
6, 2880, Note_on_c, 0, 67, 48
6, 2999, Note_on_c, 0, 68, 0
6, 2999, Note_on_c, 0, 67, 0
6, 3000, Note_on_c, 0, 68, 48
6, 3000, Note_on_c, 0, 65, 48
6, 3119, Note_on_c, 0, 68, 0
6, 3119, Note_on_c, 0, 65, 0
6, 3120, Note_on_c, 0, 68, 48
6, 3120, Note_on_c, 0, 65, 48
6, 3239, Note_on_c, 0, 68, 0
6, 3239, Note_on_c, 0, 65, 0
6, 3240, Note_on_c, 0, 68, 48
6, 3240, Note_on_c, 0, 65, 48
6, 3479, Note_on_c, 0, 68, 0
6, 3479, Note_on_c, 0, 65, 0
6, 3480, Note_on_c, 0, 67, 48
6, 3480, Note_on_c, 0, 63, 48
6, 3599, Note_on_c, 0, 67, 0
6, 3599, Note_on_c, 0, 63, 0
6, 3600, Note_on_c, 0, 67, 48
6, 3600, Note_on_c, 0, 63, 48
6, 3959, Note_on_c, 0, 67, 0
6, 3959, Note_on_c, 0, 63, 0
6, 3960, Note_on_c, 0, 70, 48
6, 3960, Note_on_c, 0, 65, 48
6, 4139, Note_on_c, 0, 70, 0
6, 4139, Note_on_c, 0, 65, 0
6, 4140, Note_on_c, 0, 69, 48
6, 4140, Note_on_c, 0, 65, 48
6, 4199, Note_on_c, 0, 69, 0
6, 4199, Note_on_c, 0, 65, 0
6, 4200, Note_on_c, 0, 69, 48
6, 4200, Note_on_c, 0, 65, 48
6, 4319, Note_on_c, 0, 69, 0
6, 4319, Note_on_c, 0, 65, 0
6, 4320, Note_on_c, 0, 69, 48
6, 4320, Note_on_c, 0, 65, 48
6, 4439, Note_on_c, 0, 69, 0
6, 4439, Note_on_c, 0, 65, 0
6, 4440, Note_on_c, 0, 69, 48
6, 4440, Note_on_c, 0, 65, 48
6, 4559, Note_on_c, 0, 69, 0
6, 4559, Note_on_c, 0, 65, 0
6, 4560, Note_on_c, 0, 69, 48
6, 4560, Note_on_c, 0, 65, 48
6, 4679, Note_on_c, 0, 69, 0
6, 4679, Note_on_c, 0, 65, 0
6, 4680, Note_on_c, 0, 69, 48
6, 4680, Note_on_c, 0, 65, 48
6, 4799, Note_on_c, 0, 69, 0
6, 4800, Note_on_c, 0, 71, 48
6, 4919, Note_on_c, 0, 65, 0
6, 4919, Note_on_c, 0, 71, 0
6, 4920, Note_on_c, 0, 72, 48
6, 4920, Note_on_c, 0, 67, 48
6, 5039, Note_on_c, 0, 72, 0
6, 5039, Note_on_c, 0, 67, 0
6, 5040, Note_on_c, 0, 72, 48
6, 5040, Note_on_c, 0, 67, 48
6, 5279, Note_on_c, 0, 72, 0
6, 5279, Note_on_c, 0, 67, 0
6, 5280, Note_on_c, 0, 71, 48
6, 5280, Note_on_c, 0, 67, 48
6, 5399, Note_on_c, 0, 71, 0
6, 5399, Note_on_c, 0, 67, 0
6, 5520, Note_on_c, 0, 75, 48
6, 5520, Note_on_c, 0, 67, 48
6, 5639, Note_on_c, 0, 75, 0
6, 5639, Note_on_c, 0, 67, 0
6, 5640, Note_on_c, 0, 75, 48
6, 5640, Note_on_c, 0, 67, 48
6, 5759, Note_on_c, 0, 75, 0
6, 5759, Note_on_c, 0, 67, 0
6, 5760, Note_on_c, 0, 75, 48
6, 5760, Note_on_c, 0, 68, 48
6, 5939, Note_on_c, 0, 75, 0
6, 5939, Note_on_c, 0, 68, 0
6, 5940, Note_on_c, 0, 75, 48
6, 5940, Note_on_c, 0, 68, 48
6, 5999, Note_on_c, 0, 75, 0
6, 5999, Note_on_c, 0, 68, 0
6, 6000, Note_on_c, 0, 75, 48
6, 6000, Note_on_c, 0, 68, 48
6, 6059, Note_on_c, 0, 75, 0
6, 6060, Note_on_c, 0, 75, 48
6, 6119, Note_on_c, 0, 68, 0
6, 6119, Note_on_c, 0, 75, 0
6, 6120, Note_on_c, 0, 75, 48
6, 6120, Note_on_c, 0, 70, 48
6, 6299, Note_on_c, 0, 75, 0
6, 6299, Note_on_c, 0, 70, 0
6, 6300, Note_on_c, 0, 75, 48
6, 6300, Note_on_c, 0, 70, 48
6, 6359, Note_on_c, 0, 75, 0
6, 6359, Note_on_c, 0, 70, 0
6, 6360, Note_on_c, 0, 75, 48
6, 6360, Note_on_c, 0, 68, 48
6, 6419, Note_on_c, 0, 68, 0
6, 6420, Note_on_c, 0, 68, 48
6, 6479, Note_on_c, 0, 75, 0
6, 6479, Note_on_c, 0, 68, 0
6, 6480, Note_on_c, 0, 75, 48
6, 6480, Note_on_c, 0, 65, 48
6, 6719, Note_on_c, 0, 75, 0
6, 6720, Note_on_c, 0, 74, 48
6, 6959, Note_on_c, 0, 65, 0
6, 6959, Note_on_c, 0, 74, 0
6, 6960, Note_on_c, 0, 72, 48
6, 6960, Note_on_c, 0, 65, 48
6, 7139, Note_on_c, 0, 72, 0
6, 7140, Note_on_c, 0, 72, 48
6, 7199, Note_on_c, 0, 65, 0
6, 7199, Note_on_c, 0, 72, 0
6, 7200, Note_on_c, 0, 70, 48
6, 7200, Note_on_c, 0, 65, 48
6, 7319, Note_on_c, 0, 70, 0
6, 7319, Note_on_c, 0, 65, 0
6, 7920, Note_on_c, 0, 77, 72
6, 7920, Note_on_c, 0, 70, 72
6, 8279, Note_on_c, 0, 70, 0
6, 8280, Note_on_c, 0, 72, 72
6, 8399, Note_on_c, 0, 77, 0
6, 8399, Note_on_c, 0, 72, 0
6, 9360, Note_on_c, 0, 77, 72
6, 9360, Note_on_c, 0, 68, 72
6, 9719, Note_on_c, 0, 77, 0
6, 9720, Note_on_c, 0, 78, 72
6, 9839, Note_on_c, 0, 68, 0
6, 9839, Note_on_c, 0, 78, 0
6, 10800, Note_on_c, 0, 77, 72
6, 10800, Note_on_c, 0, 68, 72
6, 11159, Note_on_c, 0, 77, 0
6, 11159, Note_on_c, 0, 68, 0
6, 11160, Note_on_c, 0, 79, 72
6, 11160, Note_on_c, 0, 70, 72
6, 11279, Note_on_c, 0, 79, 0
6, 11279, Note_on_c, 0, 70, 0
6, 12120, Note_on_c, 0, 72, 72
6, 12120, Note_on_c, 0, 67, 72
6, 12239, Note_on_c, 0, 72, 0
6, 12239, Note_on_c, 0, 67, 0
6, 12240, Note_on_c, 0, 73, 72
6, 12240, Note_on_c, 0, 67, 72
6, 12479, Note_on_c, 0, 73, 0
6, 12479, Note_on_c, 0, 67, 0
6, 12480, Note_on_c, 0, 73, 72
6, 12480, Note_on_c, 0, 67, 72
6, 12599, Note_on_c, 0, 73, 0
6, 12599, Note_on_c, 0, 67, 0
6, 13800, Note_on_c, 0, 77, 72
6, 13800, Note_on_c, 0, 69, 72
6, 13919, Note_on_c, 0, 77, 0
6, 13919, Note_on_c, 0, 69, 0
6, 13920, Note_on_c, 0, 77, 72
6, 13920, Note_on_c, 0, 69, 72
6, 14039, Note_on_c, 0, 77, 0
6, 14039, Note_on_c, 0, 69, 0
6, 14040, Note_on_c, 0, 77, 72
6, 14040, Note_on_c, 0, 69, 72
6, 14279, Note_on_c, 0, 77, 0
6, 14279, Note_on_c, 0, 69, 0
6, 14280, Note_on_c, 0, 77, 72
6, 14280, Note_on_c, 0, 69, 72
6, 14399, Note_on_c, 0, 77, 0
6, 14399, Note_on_c, 0, 69, 0
6, 14400, Note_on_c, 0, 77, 72
6, 14400, Note_on_c, 0, 69, 72
6, 14759, Note_on_c, 0, 69, 0
6, 14760, Note_on_c, 0, 68, 72
6, 14999, Note_on_c, 0, 77, 0
6, 14999, Note_on_c, 0, 68, 0
6, 15000, Note_on_c, 0, 75, 72
6, 15000, Note_on_c, 0, 67, 72
6, 15239, Note_on_c, 0, 67, 0
6, 15240, Note_on_c, 0, 65, 72
6, 15359, Note_on_c, 0, 75, 0
6, 15360, Note_on_c, 0, 74, 72
6, 15479, Note_on_c, 0, 65, 0
6, 15479, Note_on_c, 0, 74, 0
6, 15480, Note_on_c, 0, 75, 72
6, 15480, Note_on_c, 0, 63, 72
6, 15599, Note_on_c, 0, 75, 0
6, 15599, Note_on_c, 0, 63, 0
6, 21420, Note_on_c, 0, 67, 72
6, 21479, Note_on_c, 0, 67, 0
6, 21480, Note_on_c, 0, 67, 72
6, 21539, Note_on_c, 0, 67, 0
6, 21540, Note_on_c, 0, 67, 72
6, 21599, Note_on_c, 0, 67, 0
6, 21600, Note_on_c, 0, 67, 72
6, 21689, Note_on_c, 0, 67, 0
6, 21690, Note_on_c, 0, 66, 72
6, 21719, Note_on_c, 0, 66, 0
6, 21720, Note_on_c, 0, 66, 72
6, 21839, Note_on_c, 0, 66, 0
6, 21900, Note_on_c, 0, 72, 72
6, 22019, Note_on_c, 0, 72, 0
6, 22020, Note_on_c, 0, 72, 72
6, 22079, Note_on_c, 0, 72, 0
6, 22080, Note_on_c, 0, 72, 72
6, 22140, Note_on_c, 0, 74, 72
6, 22199, Note_on_c, 0, 72, 0
6, 22199, Note_on_c, 0, 74, 0
6, 22200, Note_on_c, 0, 70, 72
6, 22200, Note_on_c, 0, 74, 72
6, 22259, Note_on_c, 0, 74, 0
6, 22260, Note_on_c, 0, 74, 72
6, 22319, Note_on_c, 0, 70, 0
6, 22319, Note_on_c, 0, 74, 0
6, 22320, Note_on_c, 0, 74, 72
6, 22380, Note_on_c, 0, 70, 72
6, 22409, Note_on_c, 0, 74, 0
6, 22410, Note_on_c, 0, 73, 72
6, 22439, Note_on_c, 0, 70, 0
6, 22439, Note_on_c, 0, 73, 0
6, 22440, Note_on_c, 0, 73, 72
6, 22440, Note_on_c, 0, 67, 72
6, 22499, Note_on_c, 0, 67, 0
6, 22500, Note_on_c, 0, 69, 72
6, 22529, Note_on_c, 0, 69, 0
6, 22530, Note_on_c, 0, 70, 72
6, 22559, Note_on_c, 0, 73, 0
6, 22559, Note_on_c, 0, 70, 0
6, 22560, Note_on_c, 0, 64, 72
6, 22620, Note_on_c, 0, 79, 72
6, 22679, Note_on_c, 0, 64, 0
6, 22680, Note_on_c, 0, 69, 72
6, 22739, Note_on_c, 0, 79, 0
6, 22740, Note_on_c, 0, 79, 72
6, 22799, Note_on_c, 0, 69, 0
6, 22799, Note_on_c, 0, 79, 0
6, 22800, Note_on_c, 0, 79, 72
6, 22860, Note_on_c, 0, 72, 72
6, 22919, Note_on_c, 0, 79, 0
6, 22919, Note_on_c, 0, 72, 0
6, 22920, Note_on_c, 0, 78, 72
6, 22920, Note_on_c, 0, 72, 72
6, 22979, Note_on_c, 0, 72, 0
6, 22980, Note_on_c, 0, 72, 72
6, 23039, Note_on_c, 0, 78, 0
6, 23039, Note_on_c, 0, 72, 0
6, 23040, Note_on_c, 0, 72, 72
6, 23100, Note_on_c, 0, 77, 72
6, 23129, Note_on_c, 0, 72, 0
6, 23130, Note_on_c, 0, 71, 72
6, 23159, Note_on_c, 0, 77, 0
6, 23159, Note_on_c, 0, 71, 0
6, 23160, Note_on_c, 0, 77, 72
6, 23160, Note_on_c, 0, 71, 72
6, 23219, Note_on_c, 0, 77, 0
6, 23220, Note_on_c, 0, 77, 72
6, 23279, Note_on_c, 0, 71, 0
6, 23279, Note_on_c, 0, 77, 0
6, 23280, Note_on_c, 0, 77, 72
6, 23340, Note_on_c, 0, 70, 72
6, 23369, Note_on_c, 0, 77, 0
6, 23370, Note_on_c, 0, 76, 72
6, 23399, Note_on_c, 0, 76, 0
6, 23400, Note_on_c, 0, 76, 72
6, 23459, Note_on_c, 0, 70, 0
6, 23460, Note_on_c, 0, 70, 72
6, 23519, Note_on_c, 0, 76, 0
6, 23519, Note_on_c, 0, 70, 0
6, 23520, Note_on_c, 0, 70, 72
6, 23580, Note_on_c, 0, 75, 72
6, 23639, Note_on_c, 0, 70, 0
6, 23640, Note_on_c, 0, 69, 72
6, 23699, Note_on_c, 0, 75, 0
6, 23700, Note_on_c, 0, 75, 72
6, 23759, Note_on_c, 0, 69, 0
6, 23759, Note_on_c, 0, 75, 0
6, 23760, Note_on_c, 0, 75, 72
6, 23879, Note_on_c, 0, 75, 0
6, 23880, Note_on_c, 0, 74, 72
6, 23999, Note_on_c, 0, 74, 0
6, 24060, Note_on_c, 0, 67, 72
6, 24119, Note_on_c, 0, 67, 0
6, 24120, Note_on_c, 0, 63, 72
6, 24179, Note_on_c, 0, 63, 0
6, 24180, Note_on_c, 0, 65, 72
6, 24209, Note_on_c, 0, 65, 0
6, 24210, Note_on_c, 0, 67, 72
6, 24239, Note_on_c, 0, 67, 0
6, 24240, Note_on_c, 0, 60, 72
6, 24359, Note_on_c, 0, 60, 0
6, 24360, Note_on_c, 0, 65, 72
6, 24479, Note_on_c, 0, 65, 0
6, 24540, Note_on_c, 0, 72, 72
6, 24599, Note_on_c, 0, 72, 0
6, 24600, Note_on_c, 0, 72, 72
6, 24659, Note_on_c, 0, 72, 0
6, 24660, Note_on_c, 0, 72, 72
6, 24719, Note_on_c, 0, 72, 0
6, 24720, Note_on_c, 0, 72, 72
6, 24780, Note_on_c, 0, 77, 72
6, 24809, Note_on_c, 0, 72, 0
6, 24810, Note_on_c, 0, 71, 72
6, 24839, Note_on_c, 0, 71, 0
6, 24840, Note_on_c, 0, 71, 72
6, 24899, Note_on_c, 0, 77, 0
6, 24900, Note_on_c, 0, 77, 72
6, 24959, Note_on_c, 0, 71, 0
6, 24959, Note_on_c, 0, 77, 0
6, 24960, Note_on_c, 0, 77, 72
6, 25079, Note_on_c, 0, 77, 0
6, 25080, Note_on_c, 0, 75, 72
6, 25199, Note_on_c, 0, 75, 0
6, 25260, Note_on_c, 0, 68, 72
6, 25319, Note_on_c, 0, 68, 0
6, 25320, Note_on_c, 0, 65, 72
6, 25379, Note_on_c, 0, 65, 0
6, 25380, Note_on_c, 0, 67, 72
6, 25409, Note_on_c, 0, 67, 0
6, 25410, Note_on_c, 0, 68, 72
6, 25439, Note_on_c, 0, 68, 0
6, 25440, Note_on_c, 0, 62, 72
6, 25559, Note_on_c, 0, 62, 0
6, 25560, Note_on_c, 0, 67, 72
6, 25679, Note_on_c, 0, 67, 0
6, 25740, Note_on_c, 0, 74, 72
6, 25859, Note_on_c, 0, 74, 0
6, 25860, Note_on_c, 0, 74, 72
6, 25919, Note_on_c, 0, 74, 0
6, 25920, Note_on_c, 0, 74, 72
6, 25980, Note_on_c, 0, 76, 72
6, 26039, Note_on_c, 0, 74, 0
6, 26039, Note_on_c, 0, 76, 0
6, 26040, Note_on_c, 0, 73, 72
6, 26040, Note_on_c, 0, 73, 72
6, 26099, Note_on_c, 0, 73, 0
6, 26100, Note_on_c, 0, 74, 72
6, 26129, Note_on_c, 0, 74, 0
6, 26130, Note_on_c, 0, 76, 72
6, 26159, Note_on_c, 0, 73, 0
6, 26159, Note_on_c, 0, 76, 0
6, 26160, Note_on_c, 0, 69, 72
6, 26279, Note_on_c, 0, 69, 0
6, 26280, Note_on_c, 0, 74, 72
6, 26460, Note_on_c, 0, 67, 72
6, 26519, Note_on_c, 0, 74, 0
6, 26520, Note_on_c, 0, 72, 72
6, 26579, Note_on_c, 0, 67, 0
6, 26580, Note_on_c, 0, 69, 72
6, 26639, Note_on_c, 0, 69, 0
6, 26640, Note_on_c, 0, 65, 72
6, 26759, Note_on_c, 0, 72, 0
6, 26760, Note_on_c, 0, 70, 72
6, 26879, Note_on_c, 0, 65, 0
6, 26880, Note_on_c, 0, 63, 72
6, 26999, Note_on_c, 0, 70, 0
6, 27000, Note_on_c, 0, 69, 72
6, 27059, Note_on_c, 0, 69, 0
6, 27060, Note_on_c, 0, 75, 72
6, 27119, Note_on_c, 0, 63, 0
6, 27119, Note_on_c, 0, 75, 0
6, 27120, Note_on_c, 0, 74, 72
6, 27120, Note_on_c, 0, 57, 72
6, 27179, Note_on_c, 0, 74, 0
6, 27179, Note_on_c, 0, 57, 0
6, 27180, Note_on_c, 0, 66, 72
6, 27180, Note_on_c, 0, 62, 72
6, 27239, Note_on_c, 0, 66, 0
6, 27239, Note_on_c, 0, 62, 0
6, 27240, Note_on_c, 0, 67, 72
6, 27240, Note_on_c, 0, 62, 72
6, 27299, Note_on_c, 0, 67, 0
6, 27299, Note_on_c, 0, 62, 0
6, 27300, Note_on_c, 0, 74, 72
6, 27300, Note_on_c, 0, 70, 72
6, 27359, Note_on_c, 0, 74, 0
6, 27359, Note_on_c, 0, 70, 0
6, 27360, Note_on_c, 0, 74, 72
6, 27360, Note_on_c, 0, 70, 72
6, 27479, Note_on_c, 0, 74, 0
6, 27479, Note_on_c, 0, 70, 0
6, 27480, Note_on_c, 0, 73, 72
6, 27480, Note_on_c, 0, 69, 72
6, 27539, Note_on_c, 0, 69, 0
6, 27540, Note_on_c, 0, 67, 72
6, 27599, Note_on_c, 0, 73, 0
6, 27599, Note_on_c, 0, 67, 0
6, 27600, Note_on_c, 0, 74, 72
6, 27600, Note_on_c, 0, 66, 72
6, 27659, Note_on_c, 0, 74, 0
6, 27660, Note_on_c, 0, 74, 72
6, 27719, Note_on_c, 0, 66, 0
6, 27719, Note_on_c, 0, 74, 0
6, 27720, Note_on_c, 0, 74, 72
6, 27779, Note_on_c, 0, 74, 0
6, 27780, Note_on_c, 0, 74, 72
6, 27839, Note_on_c, 0, 74, 0
6, 27840, Note_on_c, 0, 74, 72
6, 27900, Note_on_c, 0, 67, 72
6, 27929, Note_on_c, 0, 74, 0
6, 27930, Note_on_c, 0, 75, 72
6, 27959, Note_on_c, 0, 67, 0
6, 27959, Note_on_c, 0, 75, 0
6, 27960, Note_on_c, 0, 75, 72
6, 27960, Note_on_c, 0, 67, 72
6, 28019, Note_on_c, 0, 67, 0
6, 28020, Note_on_c, 0, 67, 72
6, 28079, Note_on_c, 0, 75, 0
6, 28079, Note_on_c, 0, 67, 0
6, 28080, Note_on_c, 0, 67, 72
6, 28140, Note_on_c, 0, 72, 72
6, 28169, Note_on_c, 0, 67, 0
6, 28170, Note_on_c, 0, 69, 72
6, 28199, Note_on_c, 0, 69, 0
6, 28200, Note_on_c, 0, 69, 72
6, 28259, Note_on_c, 0, 72, 0
6, 28260, Note_on_c, 0, 72, 72
6, 28319, Note_on_c, 0, 69, 0
6, 28319, Note_on_c, 0, 72, 0
6, 28320, Note_on_c, 0, 72, 72
6, 28380, Note_on_c, 0, 66, 72
6, 28439, Note_on_c, 0, 72, 0
6, 28440, Note_on_c, 0, 74, 72
6, 28499, Note_on_c, 0, 66, 0
6, 28500, Note_on_c, 0, 66, 72
6, 28559, Note_on_c, 0, 74, 0
6, 28559, Note_on_c, 0, 66, 0
6, 28560, Note_on_c, 0, 66, 72
6, 28619, Note_on_c, 0, 66, 0
6, 28620, Note_on_c, 0, 67, 72
6, 28620, Note_on_c, 0, 70, 72
6, 28679, Note_on_c, 0, 67, 0
6, 28679, Note_on_c, 0, 70, 0
6, 28680, Note_on_c, 0, 67, 72
6, 28680, Note_on_c, 0, 70, 72
6, 28739, Note_on_c, 0, 70, 0
6, 28740, Note_on_c, 0, 70, 72
6, 28799, Note_on_c, 0, 67, 0
6, 28799, Note_on_c, 0, 70, 0
6, 28800, Note_on_c, 0, 70, 72
6, 28860, Note_on_c, 0, 64, 72
6, 28889, Note_on_c, 0, 70, 0
6, 28890, Note_on_c, 0, 72, 72
6, 28919, Note_on_c, 0, 64, 0
6, 28919, Note_on_c, 0, 72, 0
6, 28920, Note_on_c, 0, 64, 72
6, 28920, Note_on_c, 0, 72, 72
6, 28979, Note_on_c, 0, 64, 0
6, 28980, Note_on_c, 0, 64, 72
6, 29039, Note_on_c, 0, 72, 0
6, 29039, Note_on_c, 0, 64, 0
6, 29040, Note_on_c, 0, 64, 72
6, 29100, Note_on_c, 0, 69, 72
6, 29129, Note_on_c, 0, 64, 0
6, 29130, Note_on_c, 0, 66, 72
6, 29159, Note_on_c, 0, 66, 0
6, 29160, Note_on_c, 0, 66, 72
6, 29219, Note_on_c, 0, 69, 0
6, 29220, Note_on_c, 0, 69, 72
6, 29279, Note_on_c, 0, 66, 0
6, 29279, Note_on_c, 0, 69, 0
6, 29280, Note_on_c, 0, 69, 72
6, 29339, Note_on_c, 0, 69, 0
6, 29340, Note_on_c, 0, 70, 72
6, 29340, Note_on_c, 0, 67, 72
6, 29399, Note_on_c, 0, 70, 0
6, 29400, Note_on_c, 0, 70, 72
6, 29459, Note_on_c, 0, 67, 0
6, 29460, Note_on_c, 0, 67, 72
6, 29519, Note_on_c, 0, 70, 0
6, 29519, Note_on_c, 0, 67, 0
6, 29520, Note_on_c, 0, 70, 72
6, 29579, Note_on_c, 0, 70, 0
6, 29580, Note_on_c, 0, 67, 72
6, 29639, Note_on_c, 0, 67, 0
6, 29640, Note_on_c, 0, 67, 72
6, 29640, Note_on_c, 0, 76, 48
6, 29759, Note_on_c, 0, 67, 0
6, 29759, Note_on_c, 0, 76, 0
6, 29760, Note_on_c, 0, 67, 48
6, 29880, Note_on_c, 0, 64, 48
6, 29999, Note_on_c, 0, 67, 0
6, 29999, Note_on_c, 0, 64, 0
6, 30000, Note_on_c, 0, 66, 48
6, 30000, Note_on_c, 0, 62, 48
6, 30119, Note_on_c, 0, 66, 0
6, 30119, Note_on_c, 0, 62, 0
6, 30120, Note_on_c, 0, 61, 48
6, 30120, Note_on_c, 0, 67, 48
6, 30239, Note_on_c, 0, 61, 0
6, 30240, Note_on_c, 0, 62, 48
6, 30359, Note_on_c, 0, 67, 0
6, 30360, Note_on_c, 0, 66, 48
6, 30479, Note_on_c, 0, 62, 0
6, 30479, Note_on_c, 0, 66, 0
6, 30480, Note_on_c, 0, 67, 48
6, 30480, Note_on_c, 0, 62, 48
6, 30599, Note_on_c, 0, 67, 0
6, 30599, Note_on_c, 0, 62, 0
6, 32700, Note_on_c, 0, 75, 72
6, 32700, Note_on_c, 0, 67, 72
6, 32759, Note_on_c, 0, 75, 0
6, 32759, Note_on_c, 0, 67, 0
6, 32760, Note_on_c, 0, 79, 72
6, 32760, Note_on_c, 0, 70, 72
6, 32819, Note_on_c, 0, 79, 0
6, 32819, Note_on_c, 0, 70, 0
6, 32820, Note_on_c, 0, 75, 72
6, 32820, Note_on_c, 0, 67, 72
6, 32879, Note_on_c, 0, 75, 0
6, 32879, Note_on_c, 0, 67, 0
6, 32880, Note_on_c, 0, 75, 72
6, 32880, Note_on_c, 0, 69, 72
6, 32969, Note_on_c, 0, 75, 0
6, 32969, Note_on_c, 0, 69, 0
6, 32970, Note_on_c, 0, 74, 72
6, 32970, Note_on_c, 0, 69, 72
6, 32999, Note_on_c, 0, 74, 0
6, 32999, Note_on_c, 0, 69, 0
6, 33000, Note_on_c, 0, 74, 72
6, 33000, Note_on_c, 0, 69, 72
6, 33119, Note_on_c, 0, 74, 0
6, 33119, Note_on_c, 0, 69, 0
6, 33180, Note_on_c, 0, 74, 72
6, 33180, Note_on_c, 0, 65, 72
6, 33239, Note_on_c, 0, 74, 0
6, 33239, Note_on_c, 0, 65, 0
6, 33240, Note_on_c, 0, 77, 72
6, 33240, Note_on_c, 0, 69, 72
6, 33299, Note_on_c, 0, 77, 0
6, 33299, Note_on_c, 0, 69, 0
6, 33300, Note_on_c, 0, 74, 72
6, 33300, Note_on_c, 0, 65, 72
6, 33359, Note_on_c, 0, 74, 0
6, 33359, Note_on_c, 0, 65, 0
6, 33360, Note_on_c, 0, 74, 72
6, 33360, Note_on_c, 0, 67, 72
6, 33449, Note_on_c, 0, 74, 0
6, 33450, Note_on_c, 0, 72, 72
6, 33479, Note_on_c, 0, 67, 0
6, 33479, Note_on_c, 0, 72, 0
6, 33480, Note_on_c, 0, 67, 72
6, 33480, Note_on_c, 0, 72, 72
6, 33599, Note_on_c, 0, 67, 0
6, 33599, Note_on_c, 0, 72, 0
6, 33660, Note_on_c, 0, 72, 72
6, 33660, Note_on_c, 0, 67, 72
6, 33719, Note_on_c, 0, 72, 0
6, 33719, Note_on_c, 0, 67, 0
6, 33720, Note_on_c, 0, 72, 72
6, 33720, Note_on_c, 0, 67, 72
6, 33779, Note_on_c, 0, 72, 0
6, 33779, Note_on_c, 0, 67, 0
6, 33780, Note_on_c, 0, 72, 72
6, 33780, Note_on_c, 0, 67, 72
6, 33839, Note_on_c, 0, 72, 0
6, 33839, Note_on_c, 0, 67, 0
6, 33840, Note_on_c, 0, 72, 72
6, 33840, Note_on_c, 0, 66, 72
6, 33899, Note_on_c, 0, 72, 0
6, 33899, Note_on_c, 0, 66, 0
6, 33900, Note_on_c, 0, 74, 72
6, 33900, Note_on_c, 0, 69, 72
6, 33959, Note_on_c, 0, 74, 0
6, 33959, Note_on_c, 0, 69, 0
6, 33960, Note_on_c, 0, 70, 72
6, 33960, Note_on_c, 0, 67, 72
6, 34019, Note_on_c, 0, 70, 0
6, 34019, Note_on_c, 0, 67, 0
6, 34020, Note_on_c, 0, 72, 72
6, 34020, Note_on_c, 0, 70, 72
6, 34079, Note_on_c, 0, 72, 0
6, 34079, Note_on_c, 0, 70, 0
6, 34080, Note_on_c, 0, 70, 72
6, 34080, Note_on_c, 0, 67, 72
6, 34199, Note_on_c, 0, 70, 0
6, 34199, Note_on_c, 0, 67, 0
6, 34200, Note_on_c, 0, 69, 72
6, 34200, Note_on_c, 0, 66, 72
6, 34319, Note_on_c, 0, 69, 0
6, 34319, Note_on_c, 0, 66, 0
6, 34320, Note_on_c, 0, 67, 72
6, 36239, Note_on_c, 0, 67, 0
6, 36239, End_track
7, 0, Start_track
7, 0, Title_t, "Bassoon"
7, 0, MIDI_port, 0
7, 0, Program_c, 1, 70
7, 0, Control_c, 1, 7, 96
7, 0, Control_c, 1, 10, 65
7, 0, Control_c, 1, 11, 127
7, 720, Note_on_c, 1, 63, 48
7, 720, Note_on_c, 1, 51, 48
7, 839, Note_on_c, 1, 51, 0
7, 840, Note_on_c, 1, 55, 48
7, 959, Note_on_c, 1, 63, 0
7, 959, Note_on_c, 1, 55, 0
7, 960, Note_on_c, 1, 51, 48
7, 960, Note_on_c, 1, 58, 48
7, 1079, Note_on_c, 1, 51, 0
7, 1079, Note_on_c, 1, 58, 0
7, 1080, Note_on_c, 1, 62, 48
7, 1080, Note_on_c, 1, 50, 48
7, 1199, Note_on_c, 1, 62, 0
7, 1199, Note_on_c, 1, 50, 0
7, 1200, Note_on_c, 1, 60, 48
7, 1200, Note_on_c, 1, 58, 48
7, 1319, Note_on_c, 1, 60, 0
7, 1319, Note_on_c, 1, 58, 0
7, 1320, Note_on_c, 1, 58, 48
7, 1320, Note_on_c, 1, 50, 48
7, 1439, Note_on_c, 1, 58, 0
7, 1439, Note_on_c, 1, 50, 0
7, 1440, Note_on_c, 1, 58, 48
7, 1440, Note_on_c, 1, 48, 48
7, 1559, Note_on_c, 1, 48, 0
7, 1560, Note_on_c, 1, 60, 48
7, 1679, Note_on_c, 1, 58, 0
7, 1679, Note_on_c, 1, 60, 0
7, 1680, Note_on_c, 1, 53, 48
7, 1680, Note_on_c, 1, 57, 48
7, 1739, Note_on_c, 1, 57, 0
7, 1740, Note_on_c, 1, 60, 48
7, 1799, Note_on_c, 1, 53, 0
7, 1799, Note_on_c, 1, 60, 0
7, 1800, Note_on_c, 1, 60, 48
7, 1800, Note_on_c, 1, 58, 48
7, 1919, Note_on_c, 1, 58, 0
7, 1920, Note_on_c, 1, 46, 48
7, 2039, Note_on_c, 1, 60, 0
7, 2039, Note_on_c, 1, 46, 0
7, 2040, Note_on_c, 1, 58, 48
7, 2159, Note_on_c, 1, 58, 0
7, 2160, Note_on_c, 1, 63, 48
7, 2160, Note_on_c, 1, 46, 48
7, 2279, Note_on_c, 1, 46, 0
7, 2280, Note_on_c, 1, 58, 48
7, 2399, Note_on_c, 1, 63, 0
7, 2399, Note_on_c, 1, 58, 0
7, 2400, Note_on_c, 1, 65, 48
7, 2400, Note_on_c, 1, 56, 48
7, 2519, Note_on_c, 1, 65, 0
7, 2519, Note_on_c, 1, 56, 0
7, 2520, Note_on_c, 1, 62, 48
7, 2520, Note_on_c, 1, 44, 48
7, 2639, Note_on_c, 1, 44, 0
7, 2640, Note_on_c, 1, 56, 48
7, 2759, Note_on_c, 1, 62, 0
7, 2759, Note_on_c, 1, 56, 0
7, 2760, Note_on_c, 1, 55, 48
7, 2760, Note_on_c, 1, 63, 48
7, 2879, Note_on_c, 1, 55, 0
7, 2879, Note_on_c, 1, 63, 0
7, 2880, Note_on_c, 1, 63, 48
7, 2880, Note_on_c, 1, 53, 48
7, 2999, Note_on_c, 1, 63, 0
7, 2999, Note_on_c, 1, 53, 0
7, 3000, Note_on_c, 1, 62, 48
7, 3000, Note_on_c, 1, 58, 48
7, 3119, Note_on_c, 1, 62, 0
7, 3119, Note_on_c, 1, 58, 0
7, 3120, Note_on_c, 1, 50, 48
7, 3120, Note_on_c, 1, 58, 48
7, 3239, Note_on_c, 1, 50, 0
7, 3239, Note_on_c, 1, 58, 0
7, 3240, Note_on_c, 1, 58, 48
7, 3240, Note_on_c, 1, 51, 48
7, 3359, Note_on_c, 1, 51, 0
7, 3360, Note_on_c, 1, 39, 48
7, 3479, Note_on_c, 1, 58, 0
7, 3479, Note_on_c, 1, 39, 0
7, 3480, Note_on_c, 1, 58, 48
7, 3480, Note_on_c, 1, 51, 48
7, 3599, Note_on_c, 1, 58, 0
7, 3599, Note_on_c, 1, 51, 0
7, 3600, Note_on_c, 1, 63, 48
7, 3600, Note_on_c, 1, 58, 48
7, 3719, Note_on_c, 1, 63, 0
7, 3720, Note_on_c, 1, 51, 48
7, 3839, Note_on_c, 1, 51, 0
7, 3840, Note_on_c, 1, 63, 48
7, 3959, Note_on_c, 1, 58, 0
7, 3959, Note_on_c, 1, 63, 0
7, 3960, Note_on_c, 1, 51, 48
7, 3960, Note_on_c, 1, 60, 48
7, 4079, Note_on_c, 1, 51, 0
7, 4080, Note_on_c, 1, 39, 48
7, 4139, Note_on_c, 1, 60, 0
7, 4140, Note_on_c, 1, 60, 48
7, 4199, Note_on_c, 1, 39, 0
7, 4199, Note_on_c, 1, 60, 0
7, 4200, Note_on_c, 1, 60, 48
7, 4200, Note_on_c, 1, 51, 48
7, 4319, Note_on_c, 1, 60, 0
7, 4319, Note_on_c, 1, 51, 0
7, 4320, Note_on_c, 1, 63, 48
7, 4320, Note_on_c, 1, 60, 48
7, 4439, Note_on_c, 1, 63, 0
7, 4439, Note_on_c, 1, 60, 0
7, 4440, Note_on_c, 1, 60, 48
7, 4440, Note_on_c, 1, 51, 48
7, 4559, Note_on_c, 1, 60, 0
7, 4559, Note_on_c, 1, 51, 0
7, 4560, Note_on_c, 1, 63, 48
7, 4560, Note_on_c, 1, 60, 48
7, 4679, Note_on_c, 1, 63, 0
7, 4679, Note_on_c, 1, 60, 0
7, 4680, Note_on_c, 1, 62, 48
7, 4680, Note_on_c, 1, 62, 48
7, 4799, Note_on_c, 1, 62, 0
7, 4800, Note_on_c, 1, 50, 48
7, 4919, Note_on_c, 1, 62, 0
7, 4919, Note_on_c, 1, 50, 0
7, 4920, Note_on_c, 1, 63, 48
7, 4920, Note_on_c, 1, 48, 48
7, 5039, Note_on_c, 1, 63, 0
7, 5039, Note_on_c, 1, 48, 0
7, 5040, Note_on_c, 1, 63, 48
7, 5040, Note_on_c, 1, 55, 48
7, 5159, Note_on_c, 1, 55, 0
7, 5160, Note_on_c, 1, 43, 48
7, 5279, Note_on_c, 1, 63, 0
7, 5279, Note_on_c, 1, 43, 0
7, 5280, Note_on_c, 1, 62, 48
7, 5280, Note_on_c, 1, 55, 48
7, 5399, Note_on_c, 1, 62, 0
7, 5399, Note_on_c, 1, 55, 0
7, 5400, Note_on_c, 1, 60, 48
7, 5519, Note_on_c, 1, 60, 0
7, 5520, Note_on_c, 1, 48, 48
7, 5520, Note_on_c, 1, 60, 48
7, 5639, Note_on_c, 1, 48, 0
7, 5639, Note_on_c, 1, 60, 0
7, 5640, Note_on_c, 1, 60, 48
7, 5759, Note_on_c, 1, 60, 0
7, 5760, Note_on_c, 1, 60, 48
7, 5760, Note_on_c, 1, 56, 48
7, 5879, Note_on_c, 1, 56, 0
7, 5880, Note_on_c, 1, 44, 48
7, 5939, Note_on_c, 1, 60, 0
7, 5940, Note_on_c, 1, 60, 48
7, 5999, Note_on_c, 1, 44, 0
7, 5999, Note_on_c, 1, 60, 0
7, 6000, Note_on_c, 1, 56, 48
7, 6000, Note_on_c, 1, 60, 48
7, 6119, Note_on_c, 1, 56, 0
7, 6119, Note_on_c, 1, 60, 0
7, 6120, Note_on_c, 1, 61, 48
7, 6120, Note_on_c, 1, 55, 48
7, 6239, Note_on_c, 1, 55, 0
7, 6240, Note_on_c, 1, 51, 48
7, 6299, Note_on_c, 1, 61, 0
7, 6300, Note_on_c, 1, 61, 48
7, 6359, Note_on_c, 1, 51, 0
7, 6359, Note_on_c, 1, 61, 0
7, 6360, Note_on_c, 1, 56, 48
7, 6360, Note_on_c, 1, 60, 48
7, 6419, Note_on_c, 1, 60, 0
7, 6420, Note_on_c, 1, 60, 48
7, 6479, Note_on_c, 1, 56, 0
7, 6479, Note_on_c, 1, 60, 0
7, 6480, Note_on_c, 1, 60, 48
7, 6480, Note_on_c, 1, 57, 48
7, 6599, Note_on_c, 1, 57, 0
7, 6600, Note_on_c, 1, 53, 48
7, 6719, Note_on_c, 1, 60, 0
7, 6719, Note_on_c, 1, 53, 0
7, 6720, Note_on_c, 1, 58, 48
7, 6840, Note_on_c, 1, 50, 48
7, 6899, Note_on_c, 1, 50, 0
7, 6900, Note_on_c, 1, 51, 48
7, 6959, Note_on_c, 1, 51, 0
7, 6960, Note_on_c, 1, 53, 48
7, 7079, Note_on_c, 1, 58, 0
7, 7079, Note_on_c, 1, 53, 0
7, 7080, Note_on_c, 1, 57, 48
7, 7080, Note_on_c, 1, 41, 48
7, 7199, Note_on_c, 1, 57, 0
7, 7199, Note_on_c, 1, 41, 0
7, 7200, Note_on_c, 1, 46, 48
7, 7200, Note_on_c, 1, 58, 48
7, 7319, Note_on_c, 1, 46, 0
7, 7319, Note_on_c, 1, 58, 0
7, 7920, Note_on_c, 1, 61, 72
7, 7920, Note_on_c, 1, 58, 72
7, 8039, Note_on_c, 1, 58, 0
7, 8040, Note_on_c, 1, 61, 72
7, 8159, Note_on_c, 1, 61, 0
7, 8160, Note_on_c, 1, 58, 72
7, 8279, Note_on_c, 1, 61, 0
7, 8279, Note_on_c, 1, 58, 0
7, 8280, Note_on_c, 1, 63, 72
7, 8280, Note_on_c, 1, 57, 72
7, 8399, Note_on_c, 1, 63, 0
7, 8399, Note_on_c, 1, 57, 0
7, 9360, Note_on_c, 1, 65, 72
7, 9360, Note_on_c, 1, 49, 72
7, 9479, Note_on_c, 1, 49, 0
7, 9480, Note_on_c, 1, 61, 72
7, 9599, Note_on_c, 1, 61, 0
7, 9600, Note_on_c, 1, 49, 72
7, 9719, Note_on_c, 1, 65, 0
7, 9719, Note_on_c, 1, 49, 0
7, 9720, Note_on_c, 1, 63, 72
7, 9720, Note_on_c, 1, 48, 72
7, 9839, Note_on_c, 1, 63, 0
7, 9839, Note_on_c, 1, 48, 0
7, 10800, Note_on_c, 1, 60, 72
7, 10800, Note_on_c, 1, 53, 72
7, 10919, Note_on_c, 1, 53, 0
7, 10920, Note_on_c, 1, 56, 72
7, 11039, Note_on_c, 1, 56, 0
7, 11040, Note_on_c, 1, 53, 72
7, 11159, Note_on_c, 1, 60, 0
7, 11159, Note_on_c, 1, 53, 0
7, 11160, Note_on_c, 1, 60, 72
7, 11160, Note_on_c, 1, 52, 72
7, 11279, Note_on_c, 1, 60, 0
7, 11279, Note_on_c, 1, 52, 0
7, 12120, Note_on_c, 1, 64, 72
7, 12120, Note_on_c, 1, 48, 72
7, 12239, Note_on_c, 1, 64, 0
7, 12239, Note_on_c, 1, 48, 0
7, 12240, Note_on_c, 1, 64, 72
7, 12240, Note_on_c, 1, 46, 72
7, 12359, Note_on_c, 1, 46, 0
7, 12360, Note_on_c, 1, 58, 72
7, 12479, Note_on_c, 1, 64, 0
7, 12479, Note_on_c, 1, 58, 0
7, 12480, Note_on_c, 1, 64, 72
7, 12480, Note_on_c, 1, 46, 72
7, 12599, Note_on_c, 1, 64, 0
7, 12599, Note_on_c, 1, 46, 0
7, 13680, Note_on_c, 1, 50, 72
7, 13799, Note_on_c, 1, 50, 0
7, 13800, Note_on_c, 1, 62, 72
7, 13919, Note_on_c, 1, 62, 0
7, 13920, Note_on_c, 1, 62, 72
7, 14039, Note_on_c, 1, 62, 0
7, 14040, Note_on_c, 1, 63, 72
7, 14040, Note_on_c, 1, 60, 72
7, 14279, Note_on_c, 1, 63, 0
7, 14279, Note_on_c, 1, 60, 0
7, 14280, Note_on_c, 1, 63, 72
7, 14280, Note_on_c, 1, 60, 72
7, 14399, Note_on_c, 1, 63, 0
7, 14399, Note_on_c, 1, 60, 0
7, 14400, Note_on_c, 1, 63, 72
7, 14400, Note_on_c, 1, 59, 72
7, 14759, Note_on_c, 1, 63, 0
7, 14759, Note_on_c, 1, 59, 0
7, 14760, Note_on_c, 1, 62, 72
7, 14760, Note_on_c, 1, 58, 72
7, 14999, Note_on_c, 1, 62, 0
7, 15000, Note_on_c, 1, 60, 72
7, 15119, Note_on_c, 1, 58, 0
7, 15119, Note_on_c, 1, 60, 0
7, 15120, Note_on_c, 1, 58, 72
7, 15120, Note_on_c, 1, 55, 72
7, 15179, Note_on_c, 1, 55, 0
7, 15180, Note_on_c, 1, 51, 72
7, 15239, Note_on_c, 1, 51, 0
7, 15240, Note_on_c, 1, 46, 72
7, 15359, Note_on_c, 1, 58, 0
7, 15360, Note_on_c, 1, 56, 72
7, 15419, Note_on_c, 1, 46, 0
7, 15420, Note_on_c, 1, 46, 72
7, 15479, Note_on_c, 1, 56, 0
7, 15479, Note_on_c, 1, 46, 0
7, 15480, Note_on_c, 1, 55, 72
7, 15480, Note_on_c, 1, 51, 72
7, 15599, Note_on_c, 1, 55, 0
7, 15599, Note_on_c, 1, 51, 0
7, 19500, Note_on_c, 1, 55, 72
7, 19559, Note_on_c, 1, 55, 0
7, 19560, Note_on_c, 1, 55, 72
7, 19619, Note_on_c, 1, 55, 0
7, 19620, Note_on_c, 1, 55, 72
7, 19679, Note_on_c, 1, 55, 0
7, 19680, Note_on_c, 1, 55, 72
7, 19769, Note_on_c, 1, 55, 0
7, 19770, Note_on_c, 1, 54, 72
7, 19799, Note_on_c, 1, 54, 0
7, 19800, Note_on_c, 1, 54, 72
7, 19919, Note_on_c, 1, 54, 0
7, 19980, Note_on_c, 1, 60, 72
7, 20099, Note_on_c, 1, 60, 0
7, 20100, Note_on_c, 1, 60, 72
7, 20159, Note_on_c, 1, 60, 0
7, 20160, Note_on_c, 1, 60, 72
7, 20220, Note_on_c, 1, 62, 72
7, 20279, Note_on_c, 1, 60, 0
7, 20279, Note_on_c, 1, 62, 0
7, 20280, Note_on_c, 1, 58, 72
7, 20280, Note_on_c, 1, 62, 72
7, 20339, Note_on_c, 1, 62, 0
7, 20340, Note_on_c, 1, 62, 72
7, 20399, Note_on_c, 1, 58, 0
7, 20399, Note_on_c, 1, 62, 0
7, 20400, Note_on_c, 1, 62, 72
7, 20460, Note_on_c, 1, 58, 72
7, 20489, Note_on_c, 1, 62, 0
7, 20490, Note_on_c, 1, 61, 72
7, 20519, Note_on_c, 1, 58, 0
7, 20519, Note_on_c, 1, 61, 0
7, 20520, Note_on_c, 1, 61, 72
7, 20520, Note_on_c, 1, 55, 72
7, 20579, Note_on_c, 1, 55, 0
7, 20580, Note_on_c, 1, 57, 72
7, 20609, Note_on_c, 1, 57, 0
7, 20610, Note_on_c, 1, 58, 72
7, 20639, Note_on_c, 1, 61, 0
7, 20639, Note_on_c, 1, 58, 0
7, 20640, Note_on_c, 1, 52, 72
7, 20700, Note_on_c, 1, 67, 72
7, 20759, Note_on_c, 1, 52, 0
7, 20760, Note_on_c, 1, 57, 72
7, 20819, Note_on_c, 1, 67, 0
7, 20820, Note_on_c, 1, 67, 72
7, 20879, Note_on_c, 1, 57, 0
7, 20879, Note_on_c, 1, 67, 0
7, 20880, Note_on_c, 1, 67, 72
7, 20940, Note_on_c, 1, 60, 72
7, 20999, Note_on_c, 1, 67, 0
7, 20999, Note_on_c, 1, 60, 0
7, 21000, Note_on_c, 1, 66, 72
7, 21000, Note_on_c, 1, 60, 72
7, 21059, Note_on_c, 1, 60, 0
7, 21060, Note_on_c, 1, 60, 72
7, 21119, Note_on_c, 1, 66, 0
7, 21119, Note_on_c, 1, 60, 0
7, 21120, Note_on_c, 1, 60, 72
7, 21180, Note_on_c, 1, 65, 72
7, 21209, Note_on_c, 1, 60, 0
7, 21210, Note_on_c, 1, 59, 72
7, 21239, Note_on_c, 1, 65, 0
7, 21239, Note_on_c, 1, 59, 0
7, 21240, Note_on_c, 1, 65, 72
7, 21240, Note_on_c, 1, 59, 72
7, 21299, Note_on_c, 1, 65, 0
7, 21300, Note_on_c, 1, 65, 72
7, 21359, Note_on_c, 1, 59, 0
7, 21359, Note_on_c, 1, 65, 0
7, 21360, Note_on_c, 1, 65, 72
7, 21420, Note_on_c, 1, 60, 72
7, 21449, Note_on_c, 1, 65, 0
7, 21450, Note_on_c, 1, 63, 72
7, 21479, Note_on_c, 1, 63, 0
7, 21480, Note_on_c, 1, 63, 72
7, 21539, Note_on_c, 1, 60, 0
7, 21540, Note_on_c, 1, 63, 72
7, 21599, Note_on_c, 1, 63, 0
7, 21599, Note_on_c, 1, 63, 0
7, 21600, Note_on_c, 1, 60, 72
7, 21660, Note_on_c, 1, 63, 72
7, 21719, Note_on_c, 1, 60, 0
7, 21719, Note_on_c, 1, 63, 0
7, 21720, Note_on_c, 1, 57, 72
7, 21720, Note_on_c, 1, 60, 72
7, 21779, Note_on_c, 1, 60, 0
7, 21780, Note_on_c, 1, 62, 72
7, 21809, Note_on_c, 1, 62, 0
7, 21810, Note_on_c, 1, 63, 72
7, 21839, Note_on_c, 1, 57, 0
7, 21839, Note_on_c, 1, 63, 0
7, 21840, Note_on_c, 1, 57, 72
7, 21840, Note_on_c, 1, 54, 72
7, 21959, Note_on_c, 1, 57, 0
7, 21959, Note_on_c, 1, 54, 0
7, 21960, Note_on_c, 1, 62, 72
7, 21960, Note_on_c, 1, 50, 72
7, 22079, Note_on_c, 1, 62, 0
7, 22079, Note_on_c, 1, 50, 0
7, 22080, Note_on_c, 1, 55, 72
7, 22140, Note_on_c, 1, 55, 72
7, 22199, Note_on_c, 1, 55, 0
7, 22259, Note_on_c, 1, 55, 0
7, 22260, Note_on_c, 1, 67, 72
7, 22319, Note_on_c, 1, 67, 0
7, 22320, Note_on_c, 1, 67, 72
7, 22439, Note_on_c, 1, 67, 0
7, 22440, Note_on_c, 1, 64, 72
7, 22559, Note_on_c, 1, 64, 0
7, 22560, Note_on_c, 1, 61, 72
7, 22679, Note_on_c, 1, 61, 0
7, 22680, Note_on_c, 1, 57, 72
7, 22799, Note_on_c, 1, 57, 0
7, 22800, Note_on_c, 1, 50, 72
7, 22859, Note_on_c, 1, 50, 0
7, 22860, Note_on_c, 1, 62, 72
7, 22889, Note_on_c, 1, 62, 0
7, 22890, Note_on_c, 1, 61, 72
7, 22919, Note_on_c, 1, 61, 0
7, 22920, Note_on_c, 1, 62, 72
7, 22979, Note_on_c, 1, 62, 0
7, 22980, Note_on_c, 1, 66, 72
7, 23039, Note_on_c, 1, 66, 0
7, 23040, Note_on_c, 1, 43, 72
7, 23099, Note_on_c, 1, 43, 0
7, 23100, Note_on_c, 1, 55, 72
7, 23129, Note_on_c, 1, 55, 0
7, 23130, Note_on_c, 1, 54, 72
7, 23159, Note_on_c, 1, 54, 0
7, 23160, Note_on_c, 1, 55, 72
7, 23219, Note_on_c, 1, 55, 0
7, 23220, Note_on_c, 1, 59, 72
7, 23279, Note_on_c, 1, 59, 0
7, 23280, Note_on_c, 1, 48, 72
7, 23339, Note_on_c, 1, 48, 0
7, 23340, Note_on_c, 1, 60, 72
7, 23369, Note_on_c, 1, 60, 0
7, 23370, Note_on_c, 1, 59, 72
7, 23399, Note_on_c, 1, 59, 0
7, 23400, Note_on_c, 1, 60, 72
7, 23459, Note_on_c, 1, 60, 0
7, 23460, Note_on_c, 1, 64, 72
7, 23519, Note_on_c, 1, 64, 0
7, 23520, Note_on_c, 1, 41, 72
7, 23579, Note_on_c, 1, 41, 0
7, 23580, Note_on_c, 1, 53, 72
7, 23609, Note_on_c, 1, 53, 0
7, 23610, Note_on_c, 1, 52, 72
7, 23639, Note_on_c, 1, 52, 0
7, 23640, Note_on_c, 1, 53, 72
7, 23699, Note_on_c, 1, 53, 0
7, 23700, Note_on_c, 1, 57, 72
7, 23759, Note_on_c, 1, 57, 0
7, 23760, Note_on_c, 1, 46, 72
7, 23819, Note_on_c, 1, 46, 0
7, 23820, Note_on_c, 1, 58, 72
7, 23849, Note_on_c, 1, 58, 0
7, 23850, Note_on_c, 1, 57, 72
7, 23879, Note_on_c, 1, 57, 0
7, 23880, Note_on_c, 1, 58, 72
7, 23939, Note_on_c, 1, 58, 0
7, 23940, Note_on_c, 1, 62, 72
7, 23999, Note_on_c, 1, 62, 0
7, 24000, Note_on_c, 1, 48, 72
7, 24059, Note_on_c, 1, 48, 0
7, 24060, Note_on_c, 1, 60, 72
7, 24089, Note_on_c, 1, 60, 0
7, 24090, Note_on_c, 1, 58, 72
7, 24119, Note_on_c, 1, 58, 0
7, 24120, Note_on_c, 1, 60, 72
7, 24179, Note_on_c, 1, 60, 0
7, 24180, Note_on_c, 1, 63, 72
7, 24239, Note_on_c, 1, 63, 0
7, 24240, Note_on_c, 1, 41, 72
7, 24299, Note_on_c, 1, 41, 0
7, 24300, Note_on_c, 1, 53, 72
7, 24329, Note_on_c, 1, 53, 0
7, 24330, Note_on_c, 1, 52, 72
7, 24359, Note_on_c, 1, 52, 0
7, 24360, Note_on_c, 1, 53, 72
7, 24419, Note_on_c, 1, 53, 0
7, 24420, Note_on_c, 1, 57, 72
7, 24479, Note_on_c, 1, 57, 0
7, 24480, Note_on_c, 1, 36, 72
7, 24539, Note_on_c, 1, 36, 0
7, 24540, Note_on_c, 1, 50, 72
7, 24569, Note_on_c, 1, 50, 0
7, 24570, Note_on_c, 1, 48, 72
7, 24599, Note_on_c, 1, 48, 0
7, 24600, Note_on_c, 1, 50, 72
7, 24659, Note_on_c, 1, 50, 0
7, 24660, Note_on_c, 1, 53, 72
7, 24719, Note_on_c, 1, 53, 0
7, 24720, Note_on_c, 1, 43, 72
7, 24779, Note_on_c, 1, 43, 0
7, 24780, Note_on_c, 1, 55, 72
7, 24809, Note_on_c, 1, 55, 0
7, 24810, Note_on_c, 1, 54, 72
7, 24839, Note_on_c, 1, 54, 0
7, 24840, Note_on_c, 1, 55, 72
7, 24899, Note_on_c, 1, 55, 0
7, 24900, Note_on_c, 1, 59, 72
7, 24959, Note_on_c, 1, 59, 0
7, 24960, Note_on_c, 1, 48, 72
7, 25019, Note_on_c, 1, 48, 0
7, 25020, Note_on_c, 1, 60, 72
7, 25049, Note_on_c, 1, 60, 0
7, 25050, Note_on_c, 1, 59, 72
7, 25079, Note_on_c, 1, 59, 0
7, 25080, Note_on_c, 1, 60, 72
7, 25139, Note_on_c, 1, 60, 0
7, 25140, Note_on_c, 1, 63, 72
7, 25199, Note_on_c, 1, 63, 0
7, 25200, Note_on_c, 1, 46, 72
7, 25259, Note_on_c, 1, 46, 0
7, 25260, Note_on_c, 1, 62, 72
7, 25289, Note_on_c, 1, 62, 0
7, 25290, Note_on_c, 1, 60, 72
7, 25319, Note_on_c, 1, 60, 0
7, 25320, Note_on_c, 1, 62, 72
7, 25379, Note_on_c, 1, 62, 0
7, 25380, Note_on_c, 1, 65, 72
7, 25439, Note_on_c, 1, 65, 0
7, 25440, Note_on_c, 1, 43, 72
7, 25499, Note_on_c, 1, 43, 0
7, 25500, Note_on_c, 1, 55, 72
7, 25529, Note_on_c, 1, 55, 0
7, 25530, Note_on_c, 1, 54, 72
7, 25559, Note_on_c, 1, 54, 0
7, 25560, Note_on_c, 1, 55, 72
7, 25619, Note_on_c, 1, 55, 0
7, 25620, Note_on_c, 1, 59, 72
7, 25679, Note_on_c, 1, 59, 0
7, 25680, Note_on_c, 1, 40, 72
7, 25739, Note_on_c, 1, 40, 0
7, 25740, Note_on_c, 1, 52, 72
7, 25769, Note_on_c, 1, 52, 0
7, 25770, Note_on_c, 1, 50, 72
7, 25799, Note_on_c, 1, 50, 0
7, 25800, Note_on_c, 1, 52, 72
7, 25859, Note_on_c, 1, 52, 0
7, 25860, Note_on_c, 1, 55, 72
7, 25919, Note_on_c, 1, 55, 0
7, 25920, Note_on_c, 1, 45, 72
7, 25979, Note_on_c, 1, 45, 0
7, 25980, Note_on_c, 1, 57, 72
7, 26009, Note_on_c, 1, 57, 0
7, 26010, Note_on_c, 1, 56, 72
7, 26039, Note_on_c, 1, 56, 0
7, 26040, Note_on_c, 1, 57, 72
7, 26099, Note_on_c, 1, 57, 0
7, 26100, Note_on_c, 1, 61, 72
7, 26159, Note_on_c, 1, 61, 0
7, 26160, Note_on_c, 1, 50, 72
7, 26219, Note_on_c, 1, 50, 0
7, 26220, Note_on_c, 1, 62, 72
7, 26249, Note_on_c, 1, 62, 0
7, 26250, Note_on_c, 1, 61, 72
7, 26279, Note_on_c, 1, 61, 0
7, 26280, Note_on_c, 1, 62, 72
7, 26339, Note_on_c, 1, 62, 0
7, 26340, Note_on_c, 1, 66, 72
7, 26399, Note_on_c, 1, 66, 0
7, 26400, Note_on_c, 1, 51, 72
7, 26459, Note_on_c, 1, 51, 0
7, 26460, Note_on_c, 1, 63, 72
7, 26489, Note_on_c, 1, 63, 0
7, 26490, Note_on_c, 1, 62, 72
7, 26519, Note_on_c, 1, 62, 0
7, 26520, Note_on_c, 1, 63, 72
7, 26579, Note_on_c, 1, 63, 0
7, 26580, Note_on_c, 1, 51, 72
7, 26639, Note_on_c, 1, 51, 0
7, 26640, Note_on_c, 1, 50, 72
7, 26699, Note_on_c, 1, 50, 0
7, 26700, Note_on_c, 1, 62, 72
7, 26729, Note_on_c, 1, 62, 0
7, 26730, Note_on_c, 1, 60, 72
7, 26759, Note_on_c, 1, 60, 0
7, 26760, Note_on_c, 1, 62, 72
7, 26819, Note_on_c, 1, 62, 0
7, 26820, Note_on_c, 1, 65, 72
7, 26879, Note_on_c, 1, 65, 0
7, 26880, Note_on_c, 1, 48, 72
7, 26939, Note_on_c, 1, 48, 0
7, 26940, Note_on_c, 1, 60, 72
7, 26969, Note_on_c, 1, 60, 0
7, 26970, Note_on_c, 1, 58, 72
7, 26999, Note_on_c, 1, 58, 0
7, 27000, Note_on_c, 1, 60, 72
7, 27059, Note_on_c, 1, 60, 0
7, 27060, Note_on_c, 1, 48, 72
7, 27119, Note_on_c, 1, 48, 0
7, 27120, Note_on_c, 1, 46, 72
7, 27179, Note_on_c, 1, 46, 0
7, 27180, Note_on_c, 1, 58, 72
7, 27209, Note_on_c, 1, 58, 0
7, 27210, Note_on_c, 1, 57, 72
7, 27239, Note_on_c, 1, 57, 0
7, 27240, Note_on_c, 1, 58, 72
7, 27299, Note_on_c, 1, 58, 0
7, 27300, Note_on_c, 1, 55, 72
7, 27359, Note_on_c, 1, 55, 0
7, 27360, Note_on_c, 1, 51, 72
7, 27419, Note_on_c, 1, 51, 0
7, 27420, Note_on_c, 1, 63, 72
7, 27449, Note_on_c, 1, 63, 0
7, 27450, Note_on_c, 1, 62, 72
7, 27479, Note_on_c, 1, 62, 0
7, 27480, Note_on_c, 1, 63, 72
7, 27539, Note_on_c, 1, 63, 0
7, 27540, Note_on_c, 1, 51, 72
7, 27599, Note_on_c, 1, 51, 0
7, 27600, Note_on_c, 1, 50, 72
7, 27659, Note_on_c, 1, 50, 0
7, 27660, Note_on_c, 1, 62, 72
7, 27689, Note_on_c, 1, 62, 0
7, 27690, Note_on_c, 1, 61, 72
7, 27719, Note_on_c, 1, 61, 0
7, 27720, Note_on_c, 1, 62, 72
7, 27779, Note_on_c, 1, 62, 0
7, 27780, Note_on_c, 1, 66, 72
7, 27839, Note_on_c, 1, 66, 0
7, 27840, Note_on_c, 1, 50, 72
7, 27899, Note_on_c, 1, 50, 0
7, 27900, Note_on_c, 1, 58, 72
7, 27929, Note_on_c, 1, 58, 0
7, 27930, Note_on_c, 1, 57, 72
7, 27959, Note_on_c, 1, 57, 0
7, 27960, Note_on_c, 1, 58, 72
7, 28019, Note_on_c, 1, 58, 0
7, 28020, Note_on_c, 1, 67, 72
7, 28079, Note_on_c, 1, 67, 0
7, 28080, Note_on_c, 1, 50, 72
7, 28139, Note_on_c, 1, 50, 0
7, 28140, Note_on_c, 1, 60, 72
7, 28169, Note_on_c, 1, 60, 0
7, 28170, Note_on_c, 1, 58, 72
7, 28199, Note_on_c, 1, 58, 0
7, 28200, Note_on_c, 1, 60, 72
7, 28259, Note_on_c, 1, 60, 0
7, 28260, Note_on_c, 1, 63, 72
7, 28319, Note_on_c, 1, 63, 0
7, 28320, Note_on_c, 1, 50, 72
7, 28379, Note_on_c, 1, 50, 0
7, 28380, Note_on_c, 1, 57, 72
7, 28409, Note_on_c, 1, 57, 0
7, 28410, Note_on_c, 1, 55, 72
7, 28439, Note_on_c, 1, 55, 0
7, 28440, Note_on_c, 1, 57, 72
7, 28499, Note_on_c, 1, 57, 0
7, 28500, Note_on_c, 1, 66, 72
7, 28559, Note_on_c, 1, 66, 0
7, 28560, Note_on_c, 1, 50, 72
7, 28619, Note_on_c, 1, 50, 0
7, 28620, Note_on_c, 1, 58, 72
7, 28649, Note_on_c, 1, 58, 0
7, 28650, Note_on_c, 1, 57, 72
7, 28679, Note_on_c, 1, 57, 0
7, 28680, Note_on_c, 1, 58, 72
7, 28739, Note_on_c, 1, 58, 0
7, 28740, Note_on_c, 1, 62, 72
7, 28799, Note_on_c, 1, 62, 0
7, 28800, Note_on_c, 1, 50, 72
7, 28859, Note_on_c, 1, 50, 0
7, 28860, Note_on_c, 1, 55, 72
7, 28889, Note_on_c, 1, 55, 0
7, 28890, Note_on_c, 1, 54, 72
7, 28919, Note_on_c, 1, 54, 0
7, 28920, Note_on_c, 1, 55, 72
7, 28979, Note_on_c, 1, 55, 0
7, 28980, Note_on_c, 1, 64, 72
7, 29039, Note_on_c, 1, 64, 0
7, 29040, Note_on_c, 1, 50, 72
7, 29099, Note_on_c, 1, 50, 0
7, 29100, Note_on_c, 1, 57, 72
7, 29129, Note_on_c, 1, 57, 0
7, 29130, Note_on_c, 1, 55, 72
7, 29159, Note_on_c, 1, 55, 0
7, 29160, Note_on_c, 1, 57, 72
7, 29219, Note_on_c, 1, 57, 0
7, 29220, Note_on_c, 1, 60, 72
7, 29279, Note_on_c, 1, 60, 0
7, 29280, Note_on_c, 1, 50, 72
7, 29339, Note_on_c, 1, 50, 0
7, 29340, Note_on_c, 1, 55, 72
7, 29369, Note_on_c, 1, 55, 0
7, 29370, Note_on_c, 1, 54, 72
7, 29399, Note_on_c, 1, 54, 0
7, 29400, Note_on_c, 1, 55, 72
7, 29459, Note_on_c, 1, 55, 0
7, 29460, Note_on_c, 1, 58, 72
7, 29519, Note_on_c, 1, 58, 0
7, 29520, Note_on_c, 1, 49, 72
7, 29639, Note_on_c, 1, 49, 0
7, 29880, Note_on_c, 1, 58, 48
7, 29880, Note_on_c, 1, 49, 48
7, 29999, Note_on_c, 1, 58, 0
7, 29999, Note_on_c, 1, 49, 0
7, 30000, Note_on_c, 1, 57, 48
7, 30000, Note_on_c, 1, 50, 48
7, 30119, Note_on_c, 1, 57, 0
7, 30119, Note_on_c, 1, 50, 0
7, 30120, Note_on_c, 1, 55, 48
7, 30120, Note_on_c, 1, 51, 48
7, 30239, Note_on_c, 1, 55, 0
7, 30239, Note_on_c, 1, 51, 0
7, 30240, Note_on_c, 1, 57, 48
7, 30240, Note_on_c, 1, 50, 48
7, 30479, Note_on_c, 1, 57, 0
7, 30479, Note_on_c, 1, 50, 0
7, 30480, Note_on_c, 1, 55, 48
7, 30480, Note_on_c, 1, 43, 48
7, 30599, Note_on_c, 1, 55, 0
7, 30599, Note_on_c, 1, 43, 0
7, 32400, Note_on_c, 1, 43, 72
7, 32459, Note_on_c, 1, 43, 0
7, 32460, Note_on_c, 1, 55, 72
7, 32489, Note_on_c, 1, 55, 0
7, 32490, Note_on_c, 1, 54, 72
7, 32519, Note_on_c, 1, 54, 0
7, 32520, Note_on_c, 1, 55, 72
7, 32579, Note_on_c, 1, 55, 0
7, 32580, Note_on_c, 1, 58, 72
7, 32639, Note_on_c, 1, 58, 0
7, 32640, Note_on_c, 1, 43, 72
7, 32699, Note_on_c, 1, 43, 0
7, 32700, Note_on_c, 1, 55, 72
7, 32729, Note_on_c, 1, 55, 0
7, 32730, Note_on_c, 1, 53, 72
7, 32759, Note_on_c, 1, 53, 0
7, 32760, Note_on_c, 1, 55, 72
7, 32819, Note_on_c, 1, 55, 0
7, 32820, Note_on_c, 1, 63, 72
7, 32879, Note_on_c, 1, 63, 0
7, 32880, Note_on_c, 1, 42, 72
7, 32939, Note_on_c, 1, 42, 0
7, 32940, Note_on_c, 1, 54, 72
7, 32969, Note_on_c, 1, 54, 0
7, 32970, Note_on_c, 1, 52, 72
7, 32999, Note_on_c, 1, 52, 0
7, 33000, Note_on_c, 1, 54, 72
7, 33059, Note_on_c, 1, 54, 0
7, 33060, Note_on_c, 1, 57, 72
7, 33119, Note_on_c, 1, 57, 0
7, 33120, Note_on_c, 1, 41, 72
7, 33179, Note_on_c, 1, 41, 0
7, 33180, Note_on_c, 1, 53, 72
7, 33209, Note_on_c, 1, 53, 0
7, 33210, Note_on_c, 1, 52, 72
7, 33239, Note_on_c, 1, 52, 0
7, 33240, Note_on_c, 1, 53, 72
7, 33299, Note_on_c, 1, 53, 0
7, 33300, Note_on_c, 1, 62, 72
7, 33359, Note_on_c, 1, 62, 0
7, 33360, Note_on_c, 1, 40, 72
7, 33419, Note_on_c, 1, 40, 0
7, 33420, Note_on_c, 1, 52, 72
7, 33449, Note_on_c, 1, 52, 0
7, 33450, Note_on_c, 1, 50, 72
7, 33479, Note_on_c, 1, 50, 0
7, 33480, Note_on_c, 1, 52, 72
7, 33539, Note_on_c, 1, 52, 0
7, 33540, Note_on_c, 1, 55, 72
7, 33599, Note_on_c, 1, 55, 0
7, 33600, Note_on_c, 1, 39, 72
7, 33659, Note_on_c, 1, 39, 0
7, 33660, Note_on_c, 1, 51, 72
7, 33689, Note_on_c, 1, 51, 0
7, 33690, Note_on_c, 1, 50, 72
7, 33719, Note_on_c, 1, 50, 0
7, 33720, Note_on_c, 1, 51, 72
7, 33779, Note_on_c, 1, 51, 0
7, 33780, Note_on_c, 1, 60, 72
7, 33839, Note_on_c, 1, 60, 0
7, 33840, Note_on_c, 1, 50, 72
7, 33899, Note_on_c, 1, 50, 0
7, 33900, Note_on_c, 1, 54, 72
7, 33929, Note_on_c, 1, 54, 0
7, 33930, Note_on_c, 1, 50, 72
7, 33959, Note_on_c, 1, 50, 0
7, 33960, Note_on_c, 1, 55, 72
7, 34019, Note_on_c, 1, 55, 0
7, 34020, Note_on_c, 1, 48, 72
7, 34079, Note_on_c, 1, 48, 0
7, 34080, Note_on_c, 1, 50, 72
7, 34139, Note_on_c, 1, 50, 0
7, 34140, Note_on_c, 1, 58, 72
7, 34169, Note_on_c, 1, 58, 0
7, 34170, Note_on_c, 1, 55, 72
7, 34199, Note_on_c, 1, 55, 0
7, 34200, Note_on_c, 1, 62, 72
7, 34259, Note_on_c, 1, 62, 0
7, 34260, Note_on_c, 1, 50, 72
7, 34319, Note_on_c, 1, 50, 0
7, 34320, Note_on_c, 1, 55, 72
7, 34439, Note_on_c, 1, 55, 0
7, 34680, Note_on_c, 1, 59, 72
7, 34680, Note_on_c, 1, 62, 72
7, 34799, Note_on_c, 1, 59, 0
7, 34799, Note_on_c, 1, 62, 0
7, 34800, Note_on_c, 1, 63, 72
7, 34800, Note_on_c, 1, 60, 72
7, 34919, Note_on_c, 1, 63, 0
7, 34919, Note_on_c, 1, 60, 0
7, 34920, Note_on_c, 1, 62, 72
7, 34920, Note_on_c, 1, 59, 72
7, 35039, Note_on_c, 1, 62, 0
7, 35039, Note_on_c, 1, 59, 0
7, 35040, Note_on_c, 1, 63, 72
7, 35040, Note_on_c, 1, 60, 72
7, 35159, Note_on_c, 1, 63, 0
7, 35159, Note_on_c, 1, 60, 0
7, 35160, Note_on_c, 1, 65, 72
7, 35160, Note_on_c, 1, 62, 72
7, 35279, Note_on_c, 1, 65, 0
7, 35280, Note_on_c, 1, 63, 72
7, 35399, Note_on_c, 1, 62, 0
7, 35400, Note_on_c, 1, 60, 72
7, 35459, Note_on_c, 1, 60, 0
7, 35460, Note_on_c, 1, 59, 72
7, 35519, Note_on_c, 1, 59, 0
7, 35520, Note_on_c, 1, 60, 72
7, 35759, Note_on_c, 1, 63, 0
7, 35759, Note_on_c, 1, 60, 0
7, 35760, Note_on_c, 1, 62, 72
7, 35760, Note_on_c, 1, 59, 72
7, 36239, Note_on_c, 1, 62, 0
7, 36239, Note_on_c, 1, 59, 0
7, 36239, End_track
8, 0, Start_track
8, 0, Title_t, "Alto Trombone"
8, 0, MIDI_port, 0
8, 0, Control_c, 3, 7, 96
8, 0, Control_c, 3, 10, 96
8, 0, Control_c, 3, 11, 127
8, 0, Program_c, 3, 57
8, 21420, Note_on_c, 3, 67, 72
8, 21479, Note_on_c, 3, 67, 0
8, 21480, Note_on_c, 3, 67, 72
8, 21539, Note_on_c, 3, 67, 0
8, 21540, Note_on_c, 3, 67, 72
8, 21599, Note_on_c, 3, 67, 0
8, 21600, Note_on_c, 3, 67, 72
8, 21689, Note_on_c, 3, 67, 0
8, 21690, Note_on_c, 3, 66, 72
8, 21719, Note_on_c, 3, 66, 0
8, 21720, Note_on_c, 3, 66, 72
8, 21839, Note_on_c, 3, 66, 0
8, 21900, Note_on_c, 3, 72, 72
8, 22019, Note_on_c, 3, 72, 0
8, 22020, Note_on_c, 3, 72, 72
8, 22079, Note_on_c, 3, 72, 0
8, 22080, Note_on_c, 3, 72, 72
8, 22199, Note_on_c, 3, 72, 0
8, 22200, Note_on_c, 3, 70, 72
8, 22319, Note_on_c, 3, 70, 0
8, 22380, Note_on_c, 3, 70, 72
8, 22439, Note_on_c, 3, 70, 0
8, 22440, Note_on_c, 3, 67, 72
8, 22499, Note_on_c, 3, 67, 0
8, 22500, Note_on_c, 3, 69, 72
8, 22529, Note_on_c, 3, 69, 0
8, 22530, Note_on_c, 3, 70, 72
8, 22559, Note_on_c, 3, 70, 0
8, 22560, Note_on_c, 3, 64, 72
8, 22679, Note_on_c, 3, 64, 0
8, 22680, Note_on_c, 3, 69, 72
8, 22799, Note_on_c, 3, 69, 0
8, 22860, Note_on_c, 3, 72, 72
8, 22919, Note_on_c, 3, 72, 0
8, 22920, Note_on_c, 3, 72, 72
8, 22979, Note_on_c, 3, 72, 0
8, 22980, Note_on_c, 3, 72, 72
8, 23039, Note_on_c, 3, 72, 0
8, 23040, Note_on_c, 3, 72, 72
8, 23129, Note_on_c, 3, 72, 0
8, 23130, Note_on_c, 3, 71, 72
8, 23159, Note_on_c, 3, 71, 0
8, 23160, Note_on_c, 3, 71, 72
8, 23279, Note_on_c, 3, 71, 0
8, 23340, Note_on_c, 3, 70, 72
8, 23459, Note_on_c, 3, 70, 0
8, 23460, Note_on_c, 3, 70, 72
8, 23519, Note_on_c, 3, 70, 0
8, 23520, Note_on_c, 3, 70, 72
8, 23639, Note_on_c, 3, 70, 0
8, 23640, Note_on_c, 3, 69, 72
8, 23759, Note_on_c, 3, 69, 0
8, 24060, Note_on_c, 3, 67, 72
8, 24119, Note_on_c, 3, 67, 0
8, 24120, Note_on_c, 3, 63, 72
8, 24179, Note_on_c, 3, 63, 0
8, 24180, Note_on_c, 3, 65, 72
8, 24209, Note_on_c, 3, 65, 0
8, 24210, Note_on_c, 3, 67, 72
8, 24239, Note_on_c, 3, 67, 0
8, 24240, Note_on_c, 3, 60, 72
8, 24359, Note_on_c, 3, 60, 0
8, 24360, Note_on_c, 3, 65, 72
8, 24479, Note_on_c, 3, 65, 0
8, 24540, Note_on_c, 3, 72, 72
8, 24599, Note_on_c, 3, 72, 0
8, 24600, Note_on_c, 3, 72, 72
8, 24659, Note_on_c, 3, 72, 0
8, 24660, Note_on_c, 3, 72, 72
8, 24719, Note_on_c, 3, 72, 0
8, 24720, Note_on_c, 3, 72, 72
8, 24809, Note_on_c, 3, 72, 0
8, 24810, Note_on_c, 3, 71, 72
8, 24839, Note_on_c, 3, 71, 0
8, 24840, Note_on_c, 3, 71, 72
8, 24959, Note_on_c, 3, 71, 0
8, 25260, Note_on_c, 3, 68, 72
8, 25319, Note_on_c, 3, 68, 0
8, 25320, Note_on_c, 3, 65, 72
8, 25379, Note_on_c, 3, 65, 0
8, 25380, Note_on_c, 3, 67, 72
8, 25409, Note_on_c, 3, 67, 0
8, 25410, Note_on_c, 3, 68, 72
8, 25439, Note_on_c, 3, 68, 0
8, 25440, Note_on_c, 3, 62, 72
8, 25559, Note_on_c, 3, 62, 0
8, 25560, Note_on_c, 3, 67, 72
8, 25679, Note_on_c, 3, 67, 0
8, 25740, Note_on_c, 3, 74, 72
8, 25859, Note_on_c, 3, 74, 0
8, 25860, Note_on_c, 3, 74, 72
8, 25919, Note_on_c, 3, 74, 0
8, 25920, Note_on_c, 3, 74, 72
8, 26039, Note_on_c, 3, 74, 0
8, 26040, Note_on_c, 3, 73, 72
8, 26159, Note_on_c, 3, 73, 0
8, 26460, Note_on_c, 3, 67, 72
8, 26519, Note_on_c, 3, 67, 0
8, 26520, Note_on_c, 3, 67, 72
8, 26579, Note_on_c, 3, 67, 0
8, 26580, Note_on_c, 3, 69, 72
8, 26639, Note_on_c, 3, 69, 0
8, 26640, Note_on_c, 3, 69, 72
8, 26729, Note_on_c, 3, 69, 0
8, 26730, Note_on_c, 3, 72, 72
8, 26759, Note_on_c, 3, 72, 0
8, 26760, Note_on_c, 3, 70, 72
8, 26879, Note_on_c, 3, 70, 0
8, 26940, Note_on_c, 3, 67, 72
8, 26999, Note_on_c, 3, 67, 0
8, 27000, Note_on_c, 3, 66, 72
8, 27059, Note_on_c, 3, 66, 0
8, 27060, Note_on_c, 3, 66, 72
8, 27119, Note_on_c, 3, 66, 0
8, 27120, Note_on_c, 3, 66, 72
8, 27179, Note_on_c, 3, 66, 0
8, 27180, Note_on_c, 3, 72, 72
8, 27239, Note_on_c, 3, 72, 0
8, 27240, Note_on_c, 3, 70, 72
8, 27299, Note_on_c, 3, 70, 0
8, 27300, Note_on_c, 3, 70, 72
8, 27359, Note_on_c, 3, 70, 0
8, 27360, Note_on_c, 3, 70, 72
8, 27479, Note_on_c, 3, 70, 0
8, 27480, Note_on_c, 3, 69, 72
8, 27539, Note_on_c, 3, 69, 0
8, 27540, Note_on_c, 3, 67, 72
8, 27599, Note_on_c, 3, 67, 0
8, 27600, Note_on_c, 3, 66, 72
8, 27719, Note_on_c, 3, 66, 0
8, 27900, Note_on_c, 3, 67, 72
8, 27959, Note_on_c, 3, 67, 0
8, 27960, Note_on_c, 3, 67, 72
8, 28019, Note_on_c, 3, 67, 0
8, 28020, Note_on_c, 3, 67, 72
8, 28079, Note_on_c, 3, 67, 0
8, 28080, Note_on_c, 3, 67, 72
8, 28169, Note_on_c, 3, 67, 0
8, 28170, Note_on_c, 3, 69, 72
8, 28199, Note_on_c, 3, 69, 0
8, 28200, Note_on_c, 3, 69, 72
8, 28319, Note_on_c, 3, 69, 0
8, 28380, Note_on_c, 3, 66, 72
8, 28499, Note_on_c, 3, 66, 0
8, 28500, Note_on_c, 3, 66, 72
8, 28559, Note_on_c, 3, 66, 0
8, 28560, Note_on_c, 3, 66, 72
8, 28619, Note_on_c, 3, 66, 0
8, 28620, Note_on_c, 3, 67, 72
8, 28679, Note_on_c, 3, 67, 0
8, 28680, Note_on_c, 3, 67, 72
8, 28799, Note_on_c, 3, 67, 0
8, 28860, Note_on_c, 3, 64, 72
8, 28919, Note_on_c, 3, 64, 0
8, 28920, Note_on_c, 3, 64, 72
8, 28979, Note_on_c, 3, 64, 0
8, 28980, Note_on_c, 3, 64, 72
8, 29039, Note_on_c, 3, 64, 0
8, 29040, Note_on_c, 3, 64, 72
8, 29129, Note_on_c, 3, 64, 0
8, 29130, Note_on_c, 3, 66, 72
8, 29159, Note_on_c, 3, 66, 0
8, 29160, Note_on_c, 3, 66, 72
8, 29279, Note_on_c, 3, 66, 0
8, 29340, Note_on_c, 3, 67, 72
8, 29459, Note_on_c, 3, 67, 0
8, 29460, Note_on_c, 3, 67, 72
8, 29519, Note_on_c, 3, 67, 0
8, 29520, Note_on_c, 3, 70, 72
8, 29579, Note_on_c, 3, 70, 0
8, 29580, Note_on_c, 3, 67, 72
8, 29639, Note_on_c, 3, 67, 0
8, 29640, Note_on_c, 3, 67, 72
8, 29759, Note_on_c, 3, 67, 0
8, 29880, Note_on_c, 3, 64, 48
8, 29999, Note_on_c, 3, 64, 0
8, 30000, Note_on_c, 3, 62, 48
8, 30119, Note_on_c, 3, 62, 0
8, 30120, Note_on_c, 3, 61, 48
8, 30239, Note_on_c, 3, 61, 0
8, 30240, Note_on_c, 3, 62, 48
8, 30479, Note_on_c, 3, 62, 0
8, 30480, Note_on_c, 3, 62, 48
8, 30599, Note_on_c, 3, 62, 0
8, 32700, Note_on_c, 3, 67, 72
8, 32759, Note_on_c, 3, 67, 0
8, 32760, Note_on_c, 3, 70, 72
8, 32819, Note_on_c, 3, 70, 0
8, 32820, Note_on_c, 3, 67, 72
8, 32879, Note_on_c, 3, 67, 0
8, 32880, Note_on_c, 3, 69, 72
8, 32969, Note_on_c, 3, 69, 0
8, 32970, Note_on_c, 3, 69, 72
8, 32999, Note_on_c, 3, 69, 0
8, 33000, Note_on_c, 3, 69, 72
8, 33119, Note_on_c, 3, 69, 0
8, 33180, Note_on_c, 3, 65, 72
8, 33239, Note_on_c, 3, 65, 0
8, 33240, Note_on_c, 3, 69, 72
8, 33299, Note_on_c, 3, 69, 0
8, 33300, Note_on_c, 3, 65, 72
8, 33359, Note_on_c, 3, 65, 0
8, 33360, Note_on_c, 3, 67, 72
8, 33479, Note_on_c, 3, 67, 0
8, 33480, Note_on_c, 3, 67, 72
8, 33599, Note_on_c, 3, 67, 0
8, 33660, Note_on_c, 3, 67, 72
8, 33719, Note_on_c, 3, 67, 0
8, 33720, Note_on_c, 3, 67, 72
8, 33779, Note_on_c, 3, 67, 0
8, 33780, Note_on_c, 3, 67, 72
8, 33839, Note_on_c, 3, 67, 0
8, 33840, Note_on_c, 3, 66, 72
8, 33899, Note_on_c, 3, 66, 0
8, 33900, Note_on_c, 3, 69, 72
8, 33959, Note_on_c, 3, 69, 0
8, 33960, Note_on_c, 3, 67, 72
8, 34019, Note_on_c, 3, 67, 0
8, 34020, Note_on_c, 3, 67, 72
8, 34079, Note_on_c, 3, 67, 0
8, 34080, Note_on_c, 3, 67, 72
8, 34199, Note_on_c, 3, 67, 0
8, 34200, Note_on_c, 3, 66, 72
8, 34319, Note_on_c, 3, 66, 0
8, 34320, Note_on_c, 3, 67, 72
8, 34439, Note_on_c, 3, 67, 0
8, 34680, Note_on_c, 3, 62, 72
8, 34799, Note_on_c, 3, 62, 0
8, 34800, Note_on_c, 3, 63, 72
8, 34919, Note_on_c, 3, 63, 0
8, 34920, Note_on_c, 3, 62, 72
8, 35039, Note_on_c, 3, 62, 0
8, 35040, Note_on_c, 3, 63, 72
8, 35159, Note_on_c, 3, 63, 0
8, 35160, Note_on_c, 3, 65, 72
8, 35279, Note_on_c, 3, 65, 0
8, 35280, Note_on_c, 3, 63, 72
8, 35759, Note_on_c, 3, 63, 0
8, 35760, Note_on_c, 3, 62, 72
8, 36239, Note_on_c, 3, 62, 0
8, 36239, End_track
9, 0, Start_track
9, 0, Title_t, "Tenor Trombone"
9, 0, MIDI_port, 0
9, 0, Control_c, 3, 7, 96
9, 0, Control_c, 3, 10, 96
9, 0, Control_c, 3, 11, 127
9, 0, Program_c, 3, 57
9, 20220, Note_on_c, 3, 62, 72
9, 20279, Note_on_c, 3, 62, 0
9, 20280, Note_on_c, 3, 62, 72
9, 20339, Note_on_c, 3, 62, 0
9, 20340, Note_on_c, 3, 62, 72
9, 20399, Note_on_c, 3, 62, 0
9, 20400, Note_on_c, 3, 62, 72
9, 20489, Note_on_c, 3, 62, 0
9, 20490, Note_on_c, 3, 61, 72
9, 20519, Note_on_c, 3, 61, 0
9, 20520, Note_on_c, 3, 61, 72
9, 20639, Note_on_c, 3, 61, 0
9, 20700, Note_on_c, 3, 67, 72
9, 20819, Note_on_c, 3, 67, 0
9, 20820, Note_on_c, 3, 67, 72
9, 20879, Note_on_c, 3, 67, 0
9, 20880, Note_on_c, 3, 67, 72
9, 20999, Note_on_c, 3, 67, 0
9, 21000, Note_on_c, 3, 66, 72
9, 21119, Note_on_c, 3, 66, 0
9, 21180, Note_on_c, 3, 65, 72
9, 21239, Note_on_c, 3, 65, 0
9, 21240, Note_on_c, 3, 65, 72
9, 21299, Note_on_c, 3, 65, 0
9, 21300, Note_on_c, 3, 65, 72
9, 21359, Note_on_c, 3, 65, 0
9, 21360, Note_on_c, 3, 65, 72
9, 21449, Note_on_c, 3, 65, 0
9, 21450, Note_on_c, 3, 63, 72
9, 21479, Note_on_c, 3, 63, 0
9, 21480, Note_on_c, 3, 63, 72
9, 21599, Note_on_c, 3, 63, 0
9, 21660, Note_on_c, 3, 63, 72
9, 21719, Note_on_c, 3, 63, 0
9, 21720, Note_on_c, 3, 60, 72
9, 21779, Note_on_c, 3, 60, 0
9, 21780, Note_on_c, 3, 62, 72
9, 21809, Note_on_c, 3, 62, 0
9, 21810, Note_on_c, 3, 63, 72
9, 21839, Note_on_c, 3, 63, 0
9, 21840, Note_on_c, 3, 57, 72
9, 21959, Note_on_c, 3, 57, 0
9, 21960, Note_on_c, 3, 62, 72
9, 22079, Note_on_c, 3, 62, 0
9, 22140, Note_on_c, 3, 55, 72
9, 22259, Note_on_c, 3, 55, 0
9, 22260, Note_on_c, 3, 67, 72
9, 22319, Note_on_c, 3, 67, 0
9, 22320, Note_on_c, 3, 67, 72
9, 22439, Note_on_c, 3, 67, 0
9, 22440, Note_on_c, 3, 64, 72
9, 22559, Note_on_c, 3, 64, 0
9, 22560, Note_on_c, 3, 61, 72
9, 22679, Note_on_c, 3, 61, 0
9, 22680, Note_on_c, 3, 57, 72
9, 22799, Note_on_c, 3, 57, 0
9, 22800, Note_on_c, 3, 62, 72
9, 22919, Note_on_c, 3, 62, 0
9, 23820, Note_on_c, 3, 58, 72
9, 23879, Note_on_c, 3, 58, 0
9, 23880, Note_on_c, 3, 58, 72
9, 23939, Note_on_c, 3, 58, 0
9, 23940, Note_on_c, 3, 58, 72
9, 23999, Note_on_c, 3, 58, 0
9, 24000, Note_on_c, 3, 58, 72
9, 24089, Note_on_c, 3, 58, 0
9, 24090, Note_on_c, 3, 57, 72
9, 24119, Note_on_c, 3, 57, 0
9, 24120, Note_on_c, 3, 57, 72
9, 24239, Note_on_c, 3, 57, 0
9, 24300, Note_on_c, 3, 63, 72
9, 24419, Note_on_c, 3, 63, 0
9, 24420, Note_on_c, 3, 63, 72
9, 24479, Note_on_c, 3, 63, 0
9, 24480, Note_on_c, 3, 63, 72
9, 24599, Note_on_c, 3, 63, 0
9, 24600, Note_on_c, 3, 62, 72
9, 24719, Note_on_c, 3, 62, 0
9, 25020, Note_on_c, 3, 60, 72
9, 25079, Note_on_c, 3, 60, 0
9, 25080, Note_on_c, 3, 60, 72
9, 25139, Note_on_c, 3, 60, 0
9, 25140, Note_on_c, 3, 60, 72
9, 25199, Note_on_c, 3, 60, 0
9, 25200, Note_on_c, 3, 60, 72
9, 25289, Note_on_c, 3, 60, 0
9, 25290, Note_on_c, 3, 59, 72
9, 25319, Note_on_c, 3, 59, 0
9, 25320, Note_on_c, 3, 59, 72
9, 25439, Note_on_c, 3, 59, 0
9, 25500, Note_on_c, 3, 65, 72
9, 25619, Note_on_c, 3, 65, 0
9, 25620, Note_on_c, 3, 65, 72
9, 25679, Note_on_c, 3, 65, 0
9, 25680, Note_on_c, 3, 65, 72
9, 25799, Note_on_c, 3, 65, 0
9, 25800, Note_on_c, 3, 64, 72
9, 25919, Note_on_c, 3, 64, 0
9, 25980, Note_on_c, 3, 67, 72
9, 26039, Note_on_c, 3, 67, 0
9, 26040, Note_on_c, 3, 67, 72
9, 26099, Note_on_c, 3, 67, 0
9, 26100, Note_on_c, 3, 67, 72
9, 26159, Note_on_c, 3, 67, 0
9, 26160, Note_on_c, 3, 67, 72
9, 26249, Note_on_c, 3, 67, 0
9, 26250, Note_on_c, 3, 66, 72
9, 26279, Note_on_c, 3, 66, 0
9, 26280, Note_on_c, 3, 66, 72
9, 26399, Note_on_c, 3, 66, 0
9, 26460, Note_on_c, 3, 67, 72
9, 26519, Note_on_c, 3, 67, 0
9, 26520, Note_on_c, 3, 63, 72
9, 26579, Note_on_c, 3, 63, 0
9, 26580, Note_on_c, 3, 60, 72
9, 26639, Note_on_c, 3, 60, 0
9, 26640, Note_on_c, 3, 60, 72
9, 26729, Note_on_c, 3, 60, 0
9, 26730, Note_on_c, 3, 65, 72
9, 26759, Note_on_c, 3, 65, 0
9, 26760, Note_on_c, 3, 65, 72
9, 26879, Note_on_c, 3, 65, 0
9, 26940, Note_on_c, 3, 63, 72
9, 27059, Note_on_c, 3, 63, 0
9, 27060, Note_on_c, 3, 57, 72
9, 27119, Note_on_c, 3, 57, 0
9, 27120, Note_on_c, 3, 57, 72
9, 27179, Note_on_c, 3, 57, 0
9, 27180, Note_on_c, 3, 62, 72
9, 27239, Note_on_c, 3, 62, 0
9, 27240, Note_on_c, 3, 62, 72
9, 27299, Note_on_c, 3, 62, 0
9, 27300, Note_on_c, 3, 58, 72
9, 27359, Note_on_c, 3, 58, 0
9, 27360, Note_on_c, 3, 55, 72
9, 27599, Note_on_c, 3, 55, 0
9, 27600, Note_on_c, 3, 57, 72
9, 27719, Note_on_c, 3, 57, 0
9, 27900, Note_on_c, 3, 58, 72
9, 27959, Note_on_c, 3, 58, 0
9, 27960, Note_on_c, 3, 58, 72
9, 28019, Note_on_c, 3, 58, 0
9, 28020, Note_on_c, 3, 58, 72
9, 28079, Note_on_c, 3, 58, 0
9, 28080, Note_on_c, 3, 58, 72
9, 28169, Note_on_c, 3, 58, 0
9, 28170, Note_on_c, 3, 60, 72
9, 28199, Note_on_c, 3, 60, 0
9, 28200, Note_on_c, 3, 60, 72
9, 28319, Note_on_c, 3, 60, 0
9, 28380, Note_on_c, 3, 57, 72
9, 28499, Note_on_c, 3, 57, 0
9, 28500, Note_on_c, 3, 57, 72
9, 28559, Note_on_c, 3, 57, 0
9, 28560, Note_on_c, 3, 57, 72
9, 28619, Note_on_c, 3, 57, 0
9, 28620, Note_on_c, 3, 58, 72
9, 28679, Note_on_c, 3, 58, 0
9, 28680, Note_on_c, 3, 58, 72
9, 28799, Note_on_c, 3, 58, 0
9, 28860, Note_on_c, 3, 55, 72
9, 28919, Note_on_c, 3, 55, 0
9, 28920, Note_on_c, 3, 55, 72
9, 28979, Note_on_c, 3, 55, 0
9, 28980, Note_on_c, 3, 55, 72
9, 29039, Note_on_c, 3, 55, 0
9, 29040, Note_on_c, 3, 55, 72
9, 29129, Note_on_c, 3, 55, 0
9, 29130, Note_on_c, 3, 57, 72
9, 29159, Note_on_c, 3, 57, 0
9, 29160, Note_on_c, 3, 57, 72
9, 29279, Note_on_c, 3, 57, 0
9, 29340, Note_on_c, 3, 58, 72
9, 29459, Note_on_c, 3, 58, 0
9, 29460, Note_on_c, 3, 58, 72
9, 29519, Note_on_c, 3, 58, 0
9, 29520, Note_on_c, 3, 55, 72
9, 29579, Note_on_c, 3, 55, 0
9, 29580, Note_on_c, 3, 58, 72
9, 29639, Note_on_c, 3, 58, 0
9, 29640, Note_on_c, 3, 58, 72
9, 29759, Note_on_c, 3, 58, 0
9, 29880, Note_on_c, 3, 58, 48
9, 29999, Note_on_c, 3, 58, 0
9, 30000, Note_on_c, 3, 57, 48
9, 30119, Note_on_c, 3, 57, 0
9, 30120, Note_on_c, 3, 55, 48
9, 30239, Note_on_c, 3, 55, 0
9, 30240, Note_on_c, 3, 55, 48
9, 30479, Note_on_c, 3, 55, 0
9, 30480, Note_on_c, 3, 58, 48
9, 30599, Note_on_c, 3, 58, 0
9, 32700, Note_on_c, 3, 58, 72
9, 32759, Note_on_c, 3, 58, 0
9, 32760, Note_on_c, 3, 55, 72
9, 32819, Note_on_c, 3, 55, 0
9, 32820, Note_on_c, 3, 58, 72
9, 32879, Note_on_c, 3, 58, 0
9, 32880, Note_on_c, 3, 57, 72
9, 32969, Note_on_c, 3, 57, 0
9, 32970, Note_on_c, 3, 62, 72
9, 32999, Note_on_c, 3, 62, 0
9, 33000, Note_on_c, 3, 62, 72
9, 33119, Note_on_c, 3, 62, 0
9, 33180, Note_on_c, 3, 57, 72
9, 33239, Note_on_c, 3, 57, 0
9, 33240, Note_on_c, 3, 53, 72
9, 33299, Note_on_c, 3, 53, 0
9, 33300, Note_on_c, 3, 57, 72
9, 33359, Note_on_c, 3, 57, 0
9, 33360, Note_on_c, 3, 55, 72
9, 33479, Note_on_c, 3, 55, 0
9, 33480, Note_on_c, 3, 60, 72
9, 33599, Note_on_c, 3, 60, 0
9, 33660, Note_on_c, 3, 55, 72
9, 33719, Note_on_c, 3, 55, 0
9, 33720, Note_on_c, 3, 55, 72
9, 33779, Note_on_c, 3, 55, 0
9, 33780, Note_on_c, 3, 55, 72
9, 33839, Note_on_c, 3, 55, 0
9, 33840, Note_on_c, 3, 57, 72
9, 33899, Note_on_c, 3, 57, 0
9, 33900, Note_on_c, 3, 57, 72
9, 33959, Note_on_c, 3, 57, 0
9, 33960, Note_on_c, 3, 62, 72
9, 34019, Note_on_c, 3, 62, 0
9, 34020, Note_on_c, 3, 63, 72
9, 34079, Note_on_c, 3, 63, 0
9, 34080, Note_on_c, 3, 62, 72
9, 34319, Note_on_c, 3, 62, 0
9, 34320, Note_on_c, 3, 62, 72
9, 34439, Note_on_c, 3, 62, 0
9, 34680, Note_on_c, 3, 59, 72
9, 34799, Note_on_c, 3, 59, 0
9, 34800, Note_on_c, 3, 60, 72
9, 34919, Note_on_c, 3, 60, 0
9, 34920, Note_on_c, 3, 59, 72
9, 35039, Note_on_c, 3, 59, 0
9, 35040, Note_on_c, 3, 60, 72
9, 35159, Note_on_c, 3, 60, 0
9, 35160, Note_on_c, 3, 62, 72
9, 35399, Note_on_c, 3, 62, 0
9, 35400, Note_on_c, 3, 60, 72
9, 35459, Note_on_c, 3, 60, 0
9, 35460, Note_on_c, 3, 59, 72
9, 35519, Note_on_c, 3, 59, 0
9, 35520, Note_on_c, 3, 60, 72
9, 35759, Note_on_c, 3, 60, 0
9, 35760, Note_on_c, 3, 59, 72
9, 36239, Note_on_c, 3, 59, 0
9, 36239, End_track
10, 0, Start_track
10, 0, Title_t, "Baritone Trombone"
10, 0, MIDI_port, 0
10, 0, Control_c, 3, 7, 96
10, 0, Control_c, 3, 10, 96
10, 0, Control_c, 3, 11, 127
10, 0, Program_c, 3, 57
10, 20100, Note_on_c, 3, 60, 72
10, 20159, Note_on_c, 3, 60, 0
10, 20160, Note_on_c, 3, 60, 72
10, 20279, Note_on_c, 3, 60, 0
10, 20280, Note_on_c, 3, 58, 72
10, 20399, Note_on_c, 3, 58, 0
10, 20460, Note_on_c, 3, 58, 72
10, 20519, Note_on_c, 3, 58, 0
10, 20520, Note_on_c, 3, 55, 72
10, 20579, Note_on_c, 3, 55, 0
10, 20580, Note_on_c, 3, 57, 72
10, 20609, Note_on_c, 3, 57, 0
10, 20610, Note_on_c, 3, 58, 72
10, 20639, Note_on_c, 3, 58, 0
10, 20640, Note_on_c, 3, 52, 72
10, 20759, Note_on_c, 3, 52, 0
10, 20760, Note_on_c, 3, 57, 72
10, 20879, Note_on_c, 3, 57, 0
10, 20940, Note_on_c, 3, 60, 72
10, 20999, Note_on_c, 3, 60, 0
10, 21000, Note_on_c, 3, 60, 72
10, 21059, Note_on_c, 3, 60, 0
10, 21060, Note_on_c, 3, 60, 72
10, 21119, Note_on_c, 3, 60, 0
10, 21120, Note_on_c, 3, 60, 72
10, 21209, Note_on_c, 3, 60, 0
10, 21210, Note_on_c, 3, 59, 72
10, 21239, Note_on_c, 3, 59, 0
10, 21240, Note_on_c, 3, 59, 72
10, 21359, Note_on_c, 3, 59, 0
10, 21420, Note_on_c, 3, 60, 72
10, 21539, Note_on_c, 3, 60, 0
10, 21540, Note_on_c, 3, 63, 72
10, 21599, Note_on_c, 3, 63, 0
10, 21600, Note_on_c, 3, 60, 72
10, 21719, Note_on_c, 3, 60, 0
10, 21720, Note_on_c, 3, 57, 72
10, 21839, Note_on_c, 3, 57, 0
10, 21840, Note_on_c, 3, 54, 72
10, 21959, Note_on_c, 3, 54, 0
10, 21960, Note_on_c, 3, 50, 72
10, 22079, Note_on_c, 3, 50, 0
10, 22080, Note_on_c, 3, 55, 72
10, 22199, Note_on_c, 3, 55, 0
10, 24540, Note_on_c, 3, 56, 72
10, 24599, Note_on_c, 3, 56, 0
10, 24600, Note_on_c, 3, 53, 72
10, 24659, Note_on_c, 3, 53, 0
10, 24660, Note_on_c, 3, 55, 72
10, 24689, Note_on_c, 3, 55, 0
10, 24690, Note_on_c, 3, 56, 72
10, 24719, Note_on_c, 3, 56, 0
10, 24720, Note_on_c, 3, 50, 72
10, 24839, Note_on_c, 3, 50, 0
10, 24840, Note_on_c, 3, 55, 72
10, 24959, Note_on_c, 3, 55, 0
10, 25740, Note_on_c, 3, 58, 72
10, 25799, Note_on_c, 3, 58, 0
10, 25800, Note_on_c, 3, 55, 72
10, 25859, Note_on_c, 3, 55, 0
10, 25860, Note_on_c, 3, 57, 72
10, 25889, Note_on_c, 3, 57, 0
10, 25890, Note_on_c, 3, 58, 72
10, 25919, Note_on_c, 3, 58, 0
10, 25920, Note_on_c, 3, 52, 72
10, 25980, Note_on_c, 3, 55, 72
10, 26039, Note_on_c, 3, 52, 0
10, 26039, Note_on_c, 3, 55, 0
10, 26040, Note_on_c, 3, 57, 72
10, 26040, Note_on_c, 3, 55, 72
10, 26099, Note_on_c, 3, 55, 0
10, 26100, Note_on_c, 3, 55, 72
10, 26159, Note_on_c, 3, 57, 0
10, 26159, Note_on_c, 3, 55, 0
10, 26160, Note_on_c, 3, 55, 72
10, 26220, Note_on_c, 3, 62, 72
10, 26249, Note_on_c, 3, 55, 0
10, 26250, Note_on_c, 3, 54, 72
10, 26279, Note_on_c, 3, 62, 0
10, 26279, Note_on_c, 3, 54, 0
10, 26280, Note_on_c, 3, 54, 72
10, 26280, Note_on_c, 3, 62, 72
10, 26339, Note_on_c, 3, 62, 0
10, 26340, Note_on_c, 3, 62, 72
10, 26399, Note_on_c, 3, 54, 0
10, 26399, Note_on_c, 3, 62, 0
10, 26400, Note_on_c, 3, 63, 72
10, 26460, Note_on_c, 3, 60, 72
10, 26489, Note_on_c, 3, 63, 0
10, 26490, Note_on_c, 3, 51, 72
10, 26519, Note_on_c, 3, 51, 0
10, 26520, Note_on_c, 3, 51, 72
10, 26579, Note_on_c, 3, 60, 0
10, 26639, Note_on_c, 3, 51, 0
10, 26700, Note_on_c, 3, 62, 72
10, 26819, Note_on_c, 3, 62, 0
10, 26820, Note_on_c, 3, 62, 72
10, 26879, Note_on_c, 3, 62, 0
10, 26880, Note_on_c, 3, 60, 72
10, 26999, Note_on_c, 3, 60, 0
10, 27000, Note_on_c, 3, 48, 72
10, 27119, Note_on_c, 3, 48, 0
10, 27180, Note_on_c, 3, 58, 72
10, 27299, Note_on_c, 3, 58, 0
10, 27300, Note_on_c, 3, 55, 72
10, 27359, Note_on_c, 3, 55, 0
10, 27360, Note_on_c, 3, 51, 72
10, 27599, Note_on_c, 3, 51, 0
10, 27600, Note_on_c, 3, 50, 72
10, 27719, Note_on_c, 3, 50, 0
10, 27900, Note_on_c, 3, 50, 72
10, 27959, Note_on_c, 3, 50, 0
10, 27960, Note_on_c, 3, 50, 72
10, 28019, Note_on_c, 3, 50, 0
10, 28020, Note_on_c, 3, 50, 72
10, 28079, Note_on_c, 3, 50, 0
10, 28080, Note_on_c, 3, 50, 72
10, 28169, Note_on_c, 3, 50, 0
10, 28170, Note_on_c, 3, 50, 72
10, 28199, Note_on_c, 3, 50, 0
10, 28200, Note_on_c, 3, 50, 72
10, 28319, Note_on_c, 3, 50, 0
10, 28380, Note_on_c, 3, 50, 72
10, 28499, Note_on_c, 3, 50, 0
10, 28500, Note_on_c, 3, 50, 72
10, 28559, Note_on_c, 3, 50, 0
10, 28560, Note_on_c, 3, 50, 72
10, 28679, Note_on_c, 3, 50, 0
10, 28680, Note_on_c, 3, 50, 72
10, 28799, Note_on_c, 3, 50, 0
10, 28860, Note_on_c, 3, 50, 72
10, 28919, Note_on_c, 3, 50, 0
10, 28920, Note_on_c, 3, 50, 72
10, 28979, Note_on_c, 3, 50, 0
10, 28980, Note_on_c, 3, 50, 72
10, 29039, Note_on_c, 3, 50, 0
10, 29040, Note_on_c, 3, 50, 72
10, 29129, Note_on_c, 3, 50, 0
10, 29130, Note_on_c, 3, 50, 72
10, 29159, Note_on_c, 3, 50, 0
10, 29160, Note_on_c, 3, 50, 72
10, 29279, Note_on_c, 3, 50, 0
10, 29340, Note_on_c, 3, 50, 72
10, 29459, Note_on_c, 3, 50, 0
10, 29460, Note_on_c, 3, 50, 72
10, 29519, Note_on_c, 3, 50, 0
10, 29520, Note_on_c, 3, 49, 72
10, 29639, Note_on_c, 3, 49, 0
10, 29640, Note_on_c, 3, 49, 72
10, 29759, Note_on_c, 3, 49, 0
10, 29880, Note_on_c, 3, 49, 48
10, 29999, Note_on_c, 3, 49, 0
10, 30000, Note_on_c, 3, 50, 48
10, 30119, Note_on_c, 3, 50, 0
10, 30120, Note_on_c, 3, 51, 48
10, 30239, Note_on_c, 3, 51, 0
10, 30240, Note_on_c, 3, 50, 48
10, 30479, Note_on_c, 3, 50, 0
10, 30480, Note_on_c, 3, 43, 48
10, 30599, Note_on_c, 3, 43, 0
10, 32460, Note_on_c, 3, 55, 72
10, 32519, Note_on_c, 3, 55, 0
10, 32520, Note_on_c, 3, 58, 72
10, 32579, Note_on_c, 3, 58, 0
10, 32580, Note_on_c, 3, 55, 72
10, 32639, Note_on_c, 3, 55, 0
10, 32640, Note_on_c, 3, 63, 72
10, 32729, Note_on_c, 3, 63, 0
10, 32730, Note_on_c, 3, 55, 72
10, 32759, Note_on_c, 3, 55, 0
10, 32760, Note_on_c, 3, 55, 72
10, 32879, Note_on_c, 3, 55, 0
10, 32940, Note_on_c, 3, 54, 72
10, 32999, Note_on_c, 3, 54, 0
10, 33000, Note_on_c, 3, 57, 72
10, 33059, Note_on_c, 3, 57, 0
10, 33060, Note_on_c, 3, 54, 72
10, 33119, Note_on_c, 3, 54, 0
10, 33120, Note_on_c, 3, 62, 72
10, 33239, Note_on_c, 3, 62, 0
10, 33240, Note_on_c, 3, 53, 72
10, 33359, Note_on_c, 3, 53, 0
10, 33420, Note_on_c, 3, 52, 72
10, 33479, Note_on_c, 3, 52, 0
10, 33480, Note_on_c, 3, 55, 72
10, 33539, Note_on_c, 3, 55, 0
10, 33540, Note_on_c, 3, 52, 72
10, 33599, Note_on_c, 3, 52, 0
10, 33600, Note_on_c, 3, 60, 72
10, 33659, Note_on_c, 3, 60, 0
10, 33660, Note_on_c, 3, 51, 72
10, 33719, Note_on_c, 3, 51, 0
10, 33720, Note_on_c, 3, 51, 72
10, 33779, Note_on_c, 3, 51, 0
10, 33780, Note_on_c, 3, 51, 72
10, 33839, Note_on_c, 3, 51, 0
10, 33840, Note_on_c, 3, 50, 72
10, 33899, Note_on_c, 3, 50, 0
10, 33900, Note_on_c, 3, 54, 72
10, 33959, Note_on_c, 3, 54, 0
10, 33960, Note_on_c, 3, 55, 72
10, 34019, Note_on_c, 3, 55, 0
10, 34020, Note_on_c, 3, 48, 72
10, 34079, Note_on_c, 3, 48, 0
10, 34080, Note_on_c, 3, 50, 72
10, 34319, Note_on_c, 3, 50, 0
10, 34320, Note_on_c, 3, 55, 72
10, 34439, Note_on_c, 3, 55, 0
10, 34680, Note_on_c, 3, 55, 72
10, 34799, Note_on_c, 3, 55, 0
10, 34800, Note_on_c, 3, 51, 72
10, 34919, Note_on_c, 3, 51, 0
10, 34920, Note_on_c, 3, 55, 72
10, 35039, Note_on_c, 3, 55, 0
10, 35040, Note_on_c, 3, 51, 72
10, 35159, Note_on_c, 3, 51, 0
10, 35160, Note_on_c, 3, 47, 72
10, 35279, Note_on_c, 3, 47, 0
10, 35280, Note_on_c, 3, 48, 72
10, 35759, Note_on_c, 3, 48, 0
10, 35760, Note_on_c, 3, 43, 72
10, 36239, Note_on_c, 3, 43, 0
10, 36239, End_track
11, 0, Start_track
11, 0, Title_t, "Violin I"
11, 0, MIDI_port, 0
11, 0, Program_c, 4, 48
11, 0, Control_c, 4, 7, 96
11, 0, Control_c, 4, 10, 48
11, 0, Control_c, 4, 11, 127
11, 0, Note_on_c, 4, 70, 48
11, 239, Note_on_c, 4, 70, 0
11, 240, Note_on_c, 4, 70, 48
11, 359, Note_on_c, 4, 70, 0
11, 360, Note_on_c, 4, 70, 48
11, 539, Note_on_c, 4, 70, 0
11, 540, Note_on_c, 4, 70, 48
11, 599, Note_on_c, 4, 70, 0
11, 600, Note_on_c, 4, 70, 48
11, 719, Note_on_c, 4, 70, 0
11, 780, Note_on_c, 4, 70, 48
11, 899, Note_on_c, 4, 70, 0
11, 900, Note_on_c, 4, 75, 48
11, 1019, Note_on_c, 4, 75, 0
11, 1020, Note_on_c, 4, 79, 48
11, 1079, Note_on_c, 4, 79, 0
11, 1080, Note_on_c, 4, 80, 48
11, 1139, Note_on_c, 4, 80, 0
11, 1140, Note_on_c, 4, 77, 48
11, 1259, Note_on_c, 4, 77, 0
11, 1260, Note_on_c, 4, 74, 48
11, 1379, Note_on_c, 4, 74, 0
11, 1380, Note_on_c, 4, 70, 48
11, 1439, Note_on_c, 4, 70, 0
11, 1440, Note_on_c, 4, 75, 48
11, 1679, Note_on_c, 4, 75, 0
11, 1680, Note_on_c, 4, 75, 48
11, 1799, Note_on_c, 4, 75, 0
11, 1800, Note_on_c, 4, 75, 48
11, 2039, Note_on_c, 4, 75, 0
11, 2040, Note_on_c, 4, 74, 48
11, 2159, Note_on_c, 4, 74, 0
11, 2160, Note_on_c, 4, 72, 48
11, 2219, Note_on_c, 4, 72, 0
11, 2220, Note_on_c, 4, 72, 48
11, 2339, Note_on_c, 4, 72, 0
11, 2340, Note_on_c, 4, 72, 48
11, 2459, Note_on_c, 4, 72, 0
11, 2460, Note_on_c, 4, 77, 48
11, 2519, Note_on_c, 4, 77, 0
11, 2520, Note_on_c, 4, 70, 48
11, 2579, Note_on_c, 4, 70, 0
11, 2580, Note_on_c, 4, 70, 48
11, 2699, Note_on_c, 4, 70, 0
11, 2700, Note_on_c, 4, 70, 48
11, 2819, Note_on_c, 4, 70, 0
11, 2820, Note_on_c, 4, 75, 48
11, 2879, Note_on_c, 4, 75, 0
11, 2880, Note_on_c, 4, 68, 48
11, 2939, Note_on_c, 4, 68, 0
11, 2940, Note_on_c, 4, 68, 48
11, 3059, Note_on_c, 4, 68, 0
11, 3060, Note_on_c, 4, 68, 48
11, 3179, Note_on_c, 4, 68, 0
11, 3180, Note_on_c, 4, 77, 48
11, 3239, Note_on_c, 4, 77, 0
11, 3240, Note_on_c, 4, 68, 48
11, 3299, Note_on_c, 4, 68, 0
11, 3300, Note_on_c, 4, 58, 48
11, 3419, Note_on_c, 4, 58, 0
11, 3420, Note_on_c, 4, 68, 48
11, 3479, Note_on_c, 4, 68, 0
11, 3480, Note_on_c, 4, 67, 48
11, 3539, Note_on_c, 4, 67, 0
11, 3540, Note_on_c, 4, 75, 48
11, 3599, Note_on_c, 4, 75, 0
11, 3600, Note_on_c, 4, 79, 48
11, 3659, Note_on_c, 4, 79, 0
11, 3660, Note_on_c, 4, 75, 48
11, 3779, Note_on_c, 4, 75, 0
11, 3780, Note_on_c, 4, 70, 48
11, 3899, Note_on_c, 4, 70, 0
11, 3900, Note_on_c, 4, 67, 48
11, 3959, Note_on_c, 4, 67, 0
11, 3960, Note_on_c, 4, 70, 48
11, 4019, Note_on_c, 4, 70, 0
11, 4020, Note_on_c, 4, 60, 48
11, 4139, Note_on_c, 4, 60, 0
11, 4140, Note_on_c, 4, 69, 48
11, 4259, Note_on_c, 4, 69, 0
11, 4260, Note_on_c, 4, 77, 48
11, 4379, Note_on_c, 4, 77, 0
11, 4380, Note_on_c, 4, 72, 48
11, 4499, Note_on_c, 4, 72, 0
11, 4500, Note_on_c, 4, 69, 48
11, 4619, Note_on_c, 4, 69, 0
11, 4620, Note_on_c, 4, 65, 48
11, 4739, Note_on_c, 4, 65, 0
11, 4740, Note_on_c, 4, 69, 48
11, 4799, Note_on_c, 4, 69, 0
11, 4800, Note_on_c, 4, 71, 48
11, 4859, Note_on_c, 4, 71, 0
11, 4860, Note_on_c, 4, 65, 48
11, 4919, Note_on_c, 4, 65, 0
11, 4920, Note_on_c, 4, 63, 48
11, 4979, Note_on_c, 4, 63, 0
11, 4980, Note_on_c, 4, 72, 48
11, 5099, Note_on_c, 4, 72, 0
11, 5100, Note_on_c, 4, 79, 48
11, 5219, Note_on_c, 4, 79, 0
11, 5220, Note_on_c, 4, 75, 48
11, 5279, Note_on_c, 4, 75, 0
11, 5280, Note_on_c, 4, 74, 48
11, 5339, Note_on_c, 4, 74, 0
11, 5340, Note_on_c, 4, 71, 48
11, 5399, Note_on_c, 4, 71, 0
11, 5400, Note_on_c, 4, 75, 48
11, 5459, Note_on_c, 4, 75, 0
11, 5460, Note_on_c, 4, 63, 48
11, 5579, Note_on_c, 4, 63, 0
11, 5580, Note_on_c, 4, 75, 48
11, 5699, Note_on_c, 4, 75, 0
11, 5700, Note_on_c, 4, 75, 48
11, 5819, Note_on_c, 4, 75, 0
11, 5820, Note_on_c, 4, 63, 48
11, 5939, Note_on_c, 4, 63, 0
11, 5940, Note_on_c, 4, 75, 48
11, 6059, Note_on_c, 4, 75, 0
11, 6060, Note_on_c, 4, 75, 48
11, 6179, Note_on_c, 4, 75, 0
11, 6180, Note_on_c, 4, 61, 48
11, 6299, Note_on_c, 4, 61, 0
11, 6300, Note_on_c, 4, 58, 48
11, 6359, Note_on_c, 4, 58, 0
11, 6360, Note_on_c, 4, 60, 48
11, 6419, Note_on_c, 4, 60, 0
11, 6420, Note_on_c, 4, 75, 48
11, 6539, Note_on_c, 4, 75, 0
11, 6540, Note_on_c, 4, 60, 48
11, 6659, Note_on_c, 4, 60, 0
11, 6660, Note_on_c, 4, 57, 48
11, 6719, Note_on_c, 4, 57, 0
11, 6720, Note_on_c, 4, 58, 48
11, 6779, Note_on_c, 4, 58, 0
11, 6780, Note_on_c, 4, 74, 48
11, 6899, Note_on_c, 4, 74, 0
11, 6900, Note_on_c, 4, 79, 48
11, 7019, Note_on_c, 4, 79, 0
11, 7020, Note_on_c, 4, 70, 48
11, 7139, Note_on_c, 4, 70, 0
11, 7140, Note_on_c, 4, 74, 48
11, 7154, Note_on_c, 4, 74, 0
11, 7155, Note_on_c, 4, 72, 48
11, 7199, Note_on_c, 4, 72, 0
11, 7200, Note_on_c, 4, 70, 48
11, 7439, Note_on_c, 4, 70, 0
11, 7440, Note_on_c, 4, 77, 48
11, 7559, Note_on_c, 4, 77, 0
11, 7560, Note_on_c, 4, 77, 48
11, 7739, Note_on_c, 4, 77, 0
11, 7740, Note_on_c, 4, 77, 48
11, 7799, Note_on_c, 4, 77, 0
11, 7800, Note_on_c, 4, 77, 48
11, 7919, Note_on_c, 4, 77, 0
11, 7920, Note_on_c, 4, 77, 48
11, 8339, Note_on_c, 4, 77, 0
11, 8340, Note_on_c, 4, 69, 48
11, 8459, Note_on_c, 4, 69, 0
11, 8460, Note_on_c, 4, 72, 48
11, 8579, Note_on_c, 4, 72, 0
11, 8580, Note_on_c, 4, 65, 48
11, 8699, Note_on_c, 4, 65, 0
11, 8700, Note_on_c, 4, 65, 48
11, 8819, Note_on_c, 4, 65, 0
11, 8820, Note_on_c, 4, 65, 48
11, 8939, Note_on_c, 4, 65, 0
11, 8940, Note_on_c, 4, 65, 48
11, 9059, Note_on_c, 4, 65, 0
11, 9060, Note_on_c, 4, 69, 48
11, 9179, Note_on_c, 4, 69, 0
11, 9180, Note_on_c, 4, 72, 56
11, 9299, Note_on_c, 4, 72, 0
11, 9300, Note_on_c, 4, 77, 64
11, 9359, Note_on_c, 4, 77, 0
11, 9360, Note_on_c, 4, 77, 72
11, 9419, Note_on_c, 4, 77, 0
11, 9420, Note_on_c, 4, 80, 72
11, 9539, Note_on_c, 4, 80, 0
11, 9540, Note_on_c, 4, 85, 72
11, 9659, Note_on_c, 4, 85, 0
11, 9660, Note_on_c, 4, 77, 72
11, 9719, Note_on_c, 4, 77, 0
11, 9720, Note_on_c, 4, 78, 72
11, 9779, Note_on_c, 4, 78, 0
11, 9780, Note_on_c, 4, 75, 72
11, 9899, Note_on_c, 4, 75, 0
11, 9900, Note_on_c, 4, 72, 72
11, 10019, Note_on_c, 4, 72, 0
11, 10020, Note_on_c, 4, 66, 48
11, 10139, Note_on_c, 4, 66, 0
11, 10140, Note_on_c, 4, 56, 48
11, 10259, Note_on_c, 4, 56, 0
11, 10260, Note_on_c, 4, 61, 48
11, 10379, Note_on_c, 4, 61, 0
11, 10380, Note_on_c, 4, 65, 48
11, 10439, Note_on_c, 4, 65, 0
11, 10440, Note_on_c, 4, 63, 48
11, 10499, Note_on_c, 4, 63, 0
11, 10500, Note_on_c, 4, 68, 56
11, 10619, Note_on_c, 4, 68, 0
11, 10620, Note_on_c, 4, 72, 60
11, 10739, Note_on_c, 4, 72, 0
11, 10740, Note_on_c, 4, 75, 68
11, 10799, Note_on_c, 4, 75, 0
11, 10800, Note_on_c, 4, 77, 72
11, 10859, Note_on_c, 4, 77, 0
11, 10860, Note_on_c, 4, 72, 72
11, 10979, Note_on_c, 4, 72, 0
11, 10980, Note_on_c, 4, 80, 72
11, 11099, Note_on_c, 4, 80, 0
11, 11100, Note_on_c, 4, 77, 72
11, 11159, Note_on_c, 4, 77, 0
11, 11160, Note_on_c, 4, 79, 72
11, 11219, Note_on_c, 4, 79, 0
11, 11220, Note_on_c, 4, 76, 72
11, 11339, Note_on_c, 4, 76, 0
11, 11340, Note_on_c, 4, 70, 72
11, 11459, Note_on_c, 4, 70, 0
11, 11460, Note_on_c, 4, 67, 48
11, 11579, Note_on_c, 4, 67, 0
11, 11580, Note_on_c, 4, 60, 48
11, 11699, Note_on_c, 4, 60, 0
11, 11700, Note_on_c, 4, 68, 48
11, 11819, Note_on_c, 4, 68, 0
11, 11820, Note_on_c, 4, 65, 48
11, 11879, Note_on_c, 4, 65, 0
11, 11880, Note_on_c, 4, 64, 48
11, 11939, Note_on_c, 4, 64, 0
11, 11940, Note_on_c, 4, 67, 52
11, 12059, Note_on_c, 4, 67, 0
11, 12060, Note_on_c, 4, 72, 60
11, 12179, Note_on_c, 4, 72, 0
11, 12180, Note_on_c, 4, 76, 66
11, 12239, Note_on_c, 4, 76, 0
11, 12240, Note_on_c, 4, 79, 72
11, 12299, Note_on_c, 4, 79, 0
11, 12300, Note_on_c, 4, 82, 72
11, 12419, Note_on_c, 4, 82, 0
11, 12420, Note_on_c, 4, 79, 72
11, 12539, Note_on_c, 4, 79, 0
11, 12540, Note_on_c, 4, 76, 48
11, 12659, Note_on_c, 4, 76, 0
11, 12660, Note_on_c, 4, 73, 48
11, 12779, Note_on_c, 4, 73, 0
11, 12780, Note_on_c, 4, 73, 48
11, 12899, Note_on_c, 4, 73, 0
11, 12900, Note_on_c, 4, 73, 48
11, 13019, Note_on_c, 4, 73, 0
11, 13020, Note_on_c, 4, 74, 48
11, 13139, Note_on_c, 4, 74, 0
11, 13140, Note_on_c, 4, 74, 48
11, 13259, Note_on_c, 4, 74, 0
11, 13260, Note_on_c, 4, 74, 48
11, 13379, Note_on_c, 4, 74, 0
11, 13380, Note_on_c, 4, 77, 48
11, 13499, Note_on_c, 4, 77, 0
11, 13500, Note_on_c, 4, 74, 48
11, 13559, Note_on_c, 4, 74, 0
11, 13560, Note_on_c, 4, 73, 48
11, 13619, Note_on_c, 4, 73, 0
11, 13620, Note_on_c, 4, 81, 72
11, 13739, Note_on_c, 4, 81, 0
11, 13740, Note_on_c, 4, 77, 72
11, 13859, Note_on_c, 4, 77, 0
11, 13860, Note_on_c, 4, 74, 72
11, 13979, Note_on_c, 4, 74, 0
11, 13980, Note_on_c, 4, 69, 72
11, 14099, Note_on_c, 4, 69, 0
11, 14100, Note_on_c, 4, 75, 72
11, 14219, Note_on_c, 4, 75, 0
11, 14220, Note_on_c, 4, 72, 72
11, 14339, Note_on_c, 4, 72, 0
11, 14340, Note_on_c, 4, 69, 72
11, 14459, Note_on_c, 4, 69, 0
11, 14460, Note_on_c, 4, 75, 72
11, 14579, Note_on_c, 4, 75, 0
11, 14580, Note_on_c, 4, 71, 72
11, 14699, Note_on_c, 4, 71, 0
11, 14700, Note_on_c, 4, 63, 72
11, 14759, Note_on_c, 4, 63, 0
11, 14760, Note_on_c, 4, 62, 72
11, 14819, Note_on_c, 4, 62, 0
11, 14820, Note_on_c, 4, 80, 72
11, 14939, Note_on_c, 4, 80, 0
11, 14940, Note_on_c, 4, 77, 72
11, 14999, Note_on_c, 4, 77, 0
11, 15000, Note_on_c, 4, 67, 72
11, 15059, Note_on_c, 4, 67, 0
11, 15060, Note_on_c, 4, 75, 72
11, 15179, Note_on_c, 4, 75, 0
11, 15180, Note_on_c, 4, 67, 72
11, 15239, Note_on_c, 4, 67, 0
11, 15240, Note_on_c, 4, 65, 72
11, 15299, Note_on_c, 4, 65, 0
11, 15300, Note_on_c, 4, 75, 72
11, 15359, Note_on_c, 4, 75, 0
11, 15360, Note_on_c, 4, 74, 72
11, 15419, Note_on_c, 4, 74, 0
11, 15420, Note_on_c, 4, 74, 72
11, 15479, Note_on_c, 4, 74, 0
11, 15480, Note_on_c, 4, 75, 72
11, 15599, Note_on_c, 4, 75, 0
11, 15600, Note_on_c, 4, 70, 72
11, 15839, Note_on_c, 4, 70, 0
11, 15840, Note_on_c, 4, 70, 72
11, 16019, Note_on_c, 4, 70, 0
11, 16020, Note_on_c, 4, 70, 72
11, 16079, Note_on_c, 4, 70, 0
11, 16080, Note_on_c, 4, 70, 72
11, 16199, Note_on_c, 4, 70, 0
11, 16260, Note_on_c, 4, 70, 48
11, 16379, Note_on_c, 4, 70, 0
11, 16380, Note_on_c, 4, 75, 48
11, 16499, Note_on_c, 4, 75, 0
11, 16500, Note_on_c, 4, 79, 48
11, 16559, Note_on_c, 4, 79, 0
11, 16560, Note_on_c, 4, 80, 48
11, 16619, Note_on_c, 4, 80, 0
11, 16620, Note_on_c, 4, 77, 48
11, 16739, Note_on_c, 4, 77, 0
11, 16740, Note_on_c, 4, 74, 48
11, 16859, Note_on_c, 4, 74, 0
11, 16860, Note_on_c, 4, 71, 48
11, 16919, Note_on_c, 4, 71, 0
11, 16920, Note_on_c, 4, 72, 48
11, 16979, Note_on_c, 4, 72, 0
11, 16980, Note_on_c, 4, 75, 48
11, 17099, Note_on_c, 4, 75, 0
11, 17100, Note_on_c, 4, 79, 48
11, 17219, Note_on_c, 4, 79, 0
11, 17220, Note_on_c, 4, 77, 48
11, 17279, Note_on_c, 4, 77, 0
11, 17280, Note_on_c, 4, 75, 48
11, 17339, Note_on_c, 4, 75, 0
11, 17340, Note_on_c, 4, 63, 48
11, 17459, Note_on_c, 4, 63, 0
11, 17460, Note_on_c, 4, 60, 48
11, 17579, Note_on_c, 4, 60, 0
11, 17580, Note_on_c, 4, 58, 48
11, 17639, Note_on_c, 4, 58, 0
11, 17640, Note_on_c, 4, 57, 48
11, 17699, Note_on_c, 4, 57, 0
11, 17700, Note_on_c, 4, 78, 48
11, 17819, Note_on_c, 4, 78, 0
11, 17820, Note_on_c, 4, 79, 48
11, 17939, Note_on_c, 4, 79, 0
11, 17940, Note_on_c, 4, 81, 48
11, 17999, Note_on_c, 4, 81, 0
11, 18000, Note_on_c, 4, 82, 48
11, 18059, Note_on_c, 4, 82, 0
11, 18060, Note_on_c, 4, 70, 48
11, 18179, Note_on_c, 4, 70, 0
11, 18180, Note_on_c, 4, 67, 48
11, 18299, Note_on_c, 4, 67, 0
11, 18300, Note_on_c, 4, 65, 48
11, 18359, Note_on_c, 4, 65, 0
11, 18360, Note_on_c, 4, 64, 48
11, 18419, Note_on_c, 4, 64, 0
11, 18420, Note_on_c, 4, 58, 48
11, 18539, Note_on_c, 4, 58, 0
11, 18540, Note_on_c, 4, 55, 48
11, 18659, Note_on_c, 4, 55, 0
11, 18660, Note_on_c, 4, 79, 48
11, 18719, Note_on_c, 4, 79, 0
11, 18720, Note_on_c, 4, 78, 48
11, 18779, Note_on_c, 4, 78, 0
11, 18780, Note_on_c, 4, 73, 48
11, 18839, Note_on_c, 4, 73, 0
11, 18840, Note_on_c, 4, 74, 48
11, 18899, Note_on_c, 4, 74, 0
11, 18900, Note_on_c, 4, 69, 48
11, 18959, Note_on_c, 4, 69, 0
11, 18960, Note_on_c, 4, 70, 48
11, 19019, Note_on_c, 4, 70, 0
11, 19020, Note_on_c, 4, 61, 48
11, 19079, Note_on_c, 4, 61, 0
11, 19080, Note_on_c, 4, 62, 48
11, 19199, Note_on_c, 4, 62, 0
11, 19440, Note_on_c, 4, 55, 72
11, 19499, Note_on_c, 4, 55, 0
11, 19500, Note_on_c, 4, 67, 72
11, 19559, Note_on_c, 4, 67, 0
11, 19620, Note_on_c, 4, 79, 72
11, 19649, Note_on_c, 4, 79, 0
11, 19650, Note_on_c, 4, 70, 72
11, 19679, Note_on_c, 4, 70, 0
11, 19680, Note_on_c, 4, 72, 72
11, 19739, Note_on_c, 4, 72, 0
11, 19740, Note_on_c, 4, 75, 72
11, 19799, Note_on_c, 4, 75, 0
11, 19860, Note_on_c, 4, 75, 72
11, 19889, Note_on_c, 4, 75, 0
11, 19890, Note_on_c, 4, 66, 72
11, 19919, Note_on_c, 4, 66, 0
11, 19920, Note_on_c, 4, 81, 72
11, 19979, Note_on_c, 4, 81, 0
11, 19980, Note_on_c, 4, 62, 72
11, 20039, Note_on_c, 4, 62, 0
11, 20100, Note_on_c, 4, 69, 72
11, 20129, Note_on_c, 4, 69, 0
11, 20130, Note_on_c, 4, 62, 72
11, 20159, Note_on_c, 4, 62, 0
11, 20160, Note_on_c, 4, 74, 72
11, 20219, Note_on_c, 4, 74, 0
11, 20220, Note_on_c, 4, 55, 72
11, 20279, Note_on_c, 4, 55, 0
11, 20340, Note_on_c, 4, 74, 72
11, 20369, Note_on_c, 4, 74, 0
11, 20370, Note_on_c, 4, 67, 72
11, 20399, Note_on_c, 4, 67, 0
11, 20400, Note_on_c, 4, 79, 72
11, 20459, Note_on_c, 4, 79, 0
11, 20460, Note_on_c, 4, 55, 72
11, 20519, Note_on_c, 4, 55, 0
11, 20580, Note_on_c, 4, 76, 72
11, 20609, Note_on_c, 4, 76, 0
11, 20610, Note_on_c, 4, 73, 72
11, 20639, Note_on_c, 4, 73, 0
11, 20640, Note_on_c, 4, 79, 72
11, 20699, Note_on_c, 4, 79, 0
11, 20700, Note_on_c, 4, 57, 72
11, 20759, Note_on_c, 4, 57, 0
11, 20820, Note_on_c, 4, 76, 72
11, 20849, Note_on_c, 4, 76, 0
11, 20850, Note_on_c, 4, 69, 72
11, 20879, Note_on_c, 4, 69, 0
11, 20880, Note_on_c, 4, 81, 72
11, 20939, Note_on_c, 4, 81, 0
11, 20940, Note_on_c, 4, 62, 72
11, 20999, Note_on_c, 4, 62, 0
11, 21060, Note_on_c, 4, 78, 72
11, 21089, Note_on_c, 4, 78, 0
11, 21090, Note_on_c, 4, 74, 72
11, 21119, Note_on_c, 4, 74, 0
11, 21120, Note_on_c, 4, 77, 72
11, 21179, Note_on_c, 4, 77, 0
11, 21180, Note_on_c, 4, 55, 72
11, 21239, Note_on_c, 4, 55, 0
11, 21300, Note_on_c, 4, 74, 72
11, 21329, Note_on_c, 4, 74, 0
11, 21330, Note_on_c, 4, 67, 72
11, 21359, Note_on_c, 4, 67, 0
11, 21360, Note_on_c, 4, 79, 72
11, 21419, Note_on_c, 4, 79, 0
11, 21420, Note_on_c, 4, 60, 72
11, 21479, Note_on_c, 4, 60, 0
11, 21540, Note_on_c, 4, 75, 72
11, 21569, Note_on_c, 4, 75, 0
11, 21570, Note_on_c, 4, 72, 72
11, 21599, Note_on_c, 4, 72, 0
11, 21600, Note_on_c, 4, 84, 72
11, 21659, Note_on_c, 4, 84, 0
11, 21660, Note_on_c, 4, 72, 72
11, 21719, Note_on_c, 4, 72, 0
11, 21780, Note_on_c, 4, 75, 72
11, 21809, Note_on_c, 4, 75, 0
11, 21810, Note_on_c, 4, 66, 72
11, 21839, Note_on_c, 4, 66, 0
11, 21840, Note_on_c, 4, 81, 72
11, 21899, Note_on_c, 4, 81, 0
11, 21900, Note_on_c, 4, 62, 72
11, 21959, Note_on_c, 4, 62, 0
11, 22020, Note_on_c, 4, 81, 72
11, 22049, Note_on_c, 4, 81, 0
11, 22050, Note_on_c, 4, 74, 72
11, 22079, Note_on_c, 4, 74, 0
11, 22080, Note_on_c, 4, 86, 72
11, 22139, Note_on_c, 4, 86, 0
11, 22140, Note_on_c, 4, 67, 72
11, 22199, Note_on_c, 4, 67, 0
11, 22260, Note_on_c, 4, 74, 72
11, 22289, Note_on_c, 4, 74, 0
11, 22290, Note_on_c, 4, 67, 72
11, 22319, Note_on_c, 4, 67, 0
11, 22320, Note_on_c, 4, 79, 72
11, 22379, Note_on_c, 4, 79, 0
11, 22380, Note_on_c, 4, 67, 72
11, 22439, Note_on_c, 4, 67, 0
11, 22500, Note_on_c, 4, 70, 72
11, 22529, Note_on_c, 4, 70, 0
11, 22530, Note_on_c, 4, 67, 72
11, 22559, Note_on_c, 4, 67, 0
11, 22560, Note_on_c, 4, 79, 72
11, 22619, Note_on_c, 4, 79, 0
11, 22620, Note_on_c, 4, 69, 72
11, 22679, Note_on_c, 4, 69, 0
11, 22740, Note_on_c, 4, 76, 72
11, 22769, Note_on_c, 4, 76, 0
11, 22770, Note_on_c, 4, 69, 72
11, 22799, Note_on_c, 4, 69, 0
11, 22800, Note_on_c, 4, 79, 72
11, 22859, Note_on_c, 4, 79, 0
11, 22860, Note_on_c, 4, 62, 72
11, 22919, Note_on_c, 4, 62, 0
11, 22980, Note_on_c, 4, 78, 72
11, 23009, Note_on_c, 4, 78, 0
11, 23010, Note_on_c, 4, 74, 72
11, 23039, Note_on_c, 4, 74, 0
11, 23040, Note_on_c, 4, 86, 72
11, 23099, Note_on_c, 4, 86, 0
11, 23100, Note_on_c, 4, 55, 72
11, 23159, Note_on_c, 4, 55, 0
11, 23220, Note_on_c, 4, 74, 72
11, 23249, Note_on_c, 4, 74, 0
11, 23250, Note_on_c, 4, 67, 72
11, 23279, Note_on_c, 4, 67, 0
11, 23280, Note_on_c, 4, 77, 72
11, 23339, Note_on_c, 4, 77, 0
11, 23340, Note_on_c, 4, 60, 72
11, 23399, Note_on_c, 4, 60, 0
11, 23460, Note_on_c, 4, 76, 72
11, 23489, Note_on_c, 4, 76, 0
11, 23490, Note_on_c, 4, 72, 72
11, 23519, Note_on_c, 4, 72, 0
11, 23520, Note_on_c, 4, 84, 72
11, 23579, Note_on_c, 4, 84, 0
11, 23580, Note_on_c, 4, 65, 72
11, 23639, Note_on_c, 4, 65, 0
11, 23700, Note_on_c, 4, 72, 72
11, 23729, Note_on_c, 4, 72, 0
11, 23730, Note_on_c, 4, 65, 72
11, 23759, Note_on_c, 4, 65, 0
11, 23760, Note_on_c, 4, 75, 72
11, 23819, Note_on_c, 4, 75, 0
11, 23820, Note_on_c, 4, 58, 72
11, 23879, Note_on_c, 4, 58, 0
11, 23940, Note_on_c, 4, 82, 72
11, 23969, Note_on_c, 4, 82, 0
11, 23970, Note_on_c, 4, 74, 72
11, 23999, Note_on_c, 4, 74, 0
11, 24000, Note_on_c, 4, 75, 72
11, 24059, Note_on_c, 4, 75, 0
11, 24060, Note_on_c, 4, 79, 72
11, 24119, Note_on_c, 4, 79, 0
11, 24180, Note_on_c, 4, 79, 72
11, 24209, Note_on_c, 4, 79, 0
11, 24210, Note_on_c, 4, 72, 72
11, 24239, Note_on_c, 4, 72, 0
11, 24240, Note_on_c, 4, 81, 72
11, 24299, Note_on_c, 4, 81, 0
11, 24300, Note_on_c, 4, 65, 72
11, 24359, Note_on_c, 4, 65, 0
11, 24420, Note_on_c, 4, 72, 72
11, 24449, Note_on_c, 4, 72, 0
11, 24450, Note_on_c, 4, 65, 72
11, 24479, Note_on_c, 4, 65, 0
11, 24480, Note_on_c, 4, 77, 72
11, 24539, Note_on_c, 4, 77, 0
11, 24540, Note_on_c, 4, 56, 72
11, 24599, Note_on_c, 4, 56, 0
11, 24660, Note_on_c, 4, 72, 72
11, 24689, Note_on_c, 4, 72, 0
11, 24690, Note_on_c, 4, 68, 72
11, 24719, Note_on_c, 4, 68, 0
11, 24720, Note_on_c, 4, 77, 72
11, 24779, Note_on_c, 4, 77, 0
11, 24780, Note_on_c, 4, 59, 72
11, 24839, Note_on_c, 4, 59, 0
11, 24900, Note_on_c, 4, 74, 72
11, 24929, Note_on_c, 4, 74, 0
11, 24930, Note_on_c, 4, 67, 72
11, 24959, Note_on_c, 4, 67, 0
11, 24960, Note_on_c, 4, 79, 72
11, 25019, Note_on_c, 4, 79, 0
11, 25020, Note_on_c, 4, 60, 72
11, 25079, Note_on_c, 4, 60, 0
11, 25140, Note_on_c, 4, 84, 72
11, 25169, Note_on_c, 4, 84, 0
11, 25170, Note_on_c, 4, 75, 72
11, 25199, Note_on_c, 4, 75, 0
11, 25200, Note_on_c, 4, 77, 72
11, 25259, Note_on_c, 4, 77, 0
11, 25260, Note_on_c, 4, 80, 72
11, 25319, Note_on_c, 4, 80, 0
11, 25380, Note_on_c, 4, 77, 72
11, 25409, Note_on_c, 4, 77, 0
11, 25410, Note_on_c, 4, 74, 72
11, 25439, Note_on_c, 4, 74, 0
11, 25440, Note_on_c, 4, 71, 72
11, 25499, Note_on_c, 4, 71, 0
11, 25500, Note_on_c, 4, 59, 72
11, 25559, Note_on_c, 4, 59, 0
11, 25620, Note_on_c, 4, 74, 72
11, 25649, Note_on_c, 4, 74, 0
11, 25650, Note_on_c, 4, 67, 72
11, 25679, Note_on_c, 4, 67, 0
11, 25680, Note_on_c, 4, 79, 72
11, 25739, Note_on_c, 4, 79, 0
11, 25740, Note_on_c, 4, 64, 72
11, 25799, Note_on_c, 4, 64, 0
11, 25860, Note_on_c, 4, 82, 72
11, 25889, Note_on_c, 4, 82, 0
11, 25890, Note_on_c, 4, 70, 72
11, 25919, Note_on_c, 4, 70, 0
11, 25920, Note_on_c, 4, 74, 72
11, 25979, Note_on_c, 4, 74, 0
11, 25980, Note_on_c, 4, 64, 72
11, 26039, Note_on_c, 4, 64, 0
11, 26100, Note_on_c, 4, 76, 72
11, 26129, Note_on_c, 4, 76, 0
11, 26130, Note_on_c, 4, 69, 72
11, 26159, Note_on_c, 4, 69, 0
11, 26160, Note_on_c, 4, 79, 72
11, 26219, Note_on_c, 4, 79, 0
11, 26220, Note_on_c, 4, 62, 72
11, 26279, Note_on_c, 4, 62, 0
11, 26340, Note_on_c, 4, 78, 72
11, 26369, Note_on_c, 4, 78, 0
11, 26370, Note_on_c, 4, 74, 72
11, 26399, Note_on_c, 4, 74, 0
11, 26400, Note_on_c, 4, 79, 72
11, 26459, Note_on_c, 4, 79, 0
11, 26460, Note_on_c, 4, 55, 72
11, 26519, Note_on_c, 4, 55, 0
11, 26580, Note_on_c, 4, 79, 72
11, 26609, Note_on_c, 4, 79, 0
11, 26610, Note_on_c, 4, 72, 72
11, 26639, Note_on_c, 4, 72, 0
11, 26640, Note_on_c, 4, 77, 72
11, 26699, Note_on_c, 4, 77, 0
11, 26700, Note_on_c, 4, 58, 72
11, 26759, Note_on_c, 4, 58, 0
11, 26820, Note_on_c, 4, 74, 72
11, 26849, Note_on_c, 4, 74, 0
11, 26850, Note_on_c, 4, 70, 72
11, 26879, Note_on_c, 4, 70, 0
11, 26880, Note_on_c, 4, 75, 72
11, 26939, Note_on_c, 4, 75, 0
11, 26940, Note_on_c, 4, 60, 72
11, 26999, Note_on_c, 4, 60, 0
11, 27060, Note_on_c, 4, 75, 72
11, 27089, Note_on_c, 4, 75, 0
11, 27090, Note_on_c, 4, 69, 72
11, 27119, Note_on_c, 4, 69, 0
11, 27120, Note_on_c, 4, 74, 72
11, 27179, Note_on_c, 4, 74, 0
11, 27180, Note_on_c, 4, 62, 72
11, 27239, Note_on_c, 4, 62, 0
11, 27300, Note_on_c, 4, 70, 72
11, 27329, Note_on_c, 4, 70, 0
11, 27330, Note_on_c, 4, 67, 72
11, 27359, Note_on_c, 4, 67, 0
11, 27360, Note_on_c, 4, 79, 72
11, 27419, Note_on_c, 4, 79, 0
11, 27420, Note_on_c, 4, 67, 72
11, 27479, Note_on_c, 4, 67, 0
11, 27540, Note_on_c, 4, 79, 72
11, 27569, Note_on_c, 4, 79, 0
11, 27570, Note_on_c, 4, 73, 72
11, 27599, Note_on_c, 4, 73, 0
11, 27600, Note_on_c, 4, 74, 72
11, 27659, Note_on_c, 4, 74, 0
11, 27660, Note_on_c, 4, 62, 72
11, 27719, Note_on_c, 4, 62, 0
11, 27780, Note_on_c, 4, 69, 72
11, 27809, Note_on_c, 4, 69, 0
11, 27810, Note_on_c, 4, 62, 72
11, 27839, Note_on_c, 4, 62, 0
11, 27840, Note_on_c, 4, 74, 72
11, 27899, Note_on_c, 4, 74, 0
11, 27900, Note_on_c, 4, 58, 72
11, 27959, Note_on_c, 4, 58, 0
11, 28020, Note_on_c, 4, 70, 72
11, 28049, Note_on_c, 4, 70, 0
11, 28050, Note_on_c, 4, 67, 72
11, 28079, Note_on_c, 4, 67, 0
11, 28080, Note_on_c, 4, 75, 72
11, 28139, Note_on_c, 4, 75, 0
11, 28140, Note_on_c, 4, 63, 72
11, 28199, Note_on_c, 4, 63, 0
11, 28260, Note_on_c, 4, 72, 72
11, 28289, Note_on_c, 4, 72, 0
11, 28290, Note_on_c, 4, 69, 72
11, 28319, Note_on_c, 4, 69, 0
11, 28320, Note_on_c, 4, 81, 72
11, 28379, Note_on_c, 4, 81, 0
11, 28380, Note_on_c, 4, 66, 72
11, 28439, Note_on_c, 4, 66, 0
11, 28500, Note_on_c, 4, 79, 72
11, 28529, Note_on_c, 4, 79, 0
11, 28530, Note_on_c, 4, 74, 72
11, 28559, Note_on_c, 4, 74, 0
11, 28560, Note_on_c, 4, 82, 72
11, 28619, Note_on_c, 4, 82, 0
11, 28620, Note_on_c, 4, 67, 72
11, 28679, Note_on_c, 4, 67, 0
11, 28740, Note_on_c, 4, 70, 72
11, 28769, Note_on_c, 4, 70, 0
11, 28770, Note_on_c, 4, 67, 72
11, 28799, Note_on_c, 4, 67, 0
11, 28800, Note_on_c, 4, 74, 72
11, 28859, Note_on_c, 4, 74, 0
11, 28860, Note_on_c, 4, 64, 72
11, 28919, Note_on_c, 4, 64, 0
11, 28980, Note_on_c, 4, 72, 72
11, 29009, Note_on_c, 4, 72, 0
11, 29010, Note_on_c, 4, 64, 72
11, 29039, Note_on_c, 4, 64, 0
11, 29040, Note_on_c, 4, 72, 72
11, 29099, Note_on_c, 4, 72, 0
11, 29100, Note_on_c, 4, 62, 72
11, 29159, Note_on_c, 4, 62, 0
11, 29220, Note_on_c, 4, 74, 72
11, 29249, Note_on_c, 4, 74, 0
11, 29250, Note_on_c, 4, 69, 72
11, 29279, Note_on_c, 4, 69, 0
11, 29280, Note_on_c, 4, 69, 72
11, 29339, Note_on_c, 4, 69, 0
11, 29340, Note_on_c, 4, 70, 72
11, 29399, Note_on_c, 4, 70, 0
11, 29460, Note_on_c, 4, 74, 72
11, 29489, Note_on_c, 4, 74, 0
11, 29490, Note_on_c, 4, 67, 72
11, 29519, Note_on_c, 4, 67, 0
11, 29520, Note_on_c, 4, 79, 72
11, 29579, Note_on_c, 4, 79, 0
11, 29580, Note_on_c, 4, 67, 72
11, 29639, Note_on_c, 4, 67, 0
11, 29640, Note_on_c, 4, 76, 48
11, 29759, Note_on_c, 4, 76, 0
11, 29760, Note_on_c, 4, 67, 48
11, 29999, Note_on_c, 4, 67, 0
11, 30000, Note_on_c, 4, 66, 48
11, 30119, Note_on_c, 4, 66, 0
11, 30120, Note_on_c, 4, 67, 48
11, 30359, Note_on_c, 4, 67, 0
11, 30360, Note_on_c, 4, 66, 48
11, 30479, Note_on_c, 4, 66, 0
11, 30480, Note_on_c, 4, 67, 48
11, 30539, Note_on_c, 4, 67, 0
11, 30540, Note_on_c, 4, 70, 48
11, 30569, Note_on_c, 4, 70, 0
11, 30570, Note_on_c, 4, 69, 48
11, 30599, Note_on_c, 4, 69, 0
11, 30600, Note_on_c, 4, 70, 48
11, 30659, Note_on_c, 4, 70, 0
11, 30660, Note_on_c, 4, 74, 48
11, 30719, Note_on_c, 4, 74, 0
11, 30720, Note_on_c, 4, 63, 48
11, 30779, Note_on_c, 4, 63, 0
11, 30780, Note_on_c, 4, 75, 48
11, 30809, Note_on_c, 4, 75, 0
11, 30810, Note_on_c, 4, 74, 48
11, 30839, Note_on_c, 4, 74, 0
11, 30840, Note_on_c, 4, 75, 48
11, 30899, Note_on_c, 4, 75, 0
11, 30900, Note_on_c, 4, 79, 48
11, 30959, Note_on_c, 4, 79, 0
11, 30960, Note_on_c, 4, 60, 48
11, 31019, Note_on_c, 4, 60, 0
11, 31020, Note_on_c, 4, 69, 48
11, 31049, Note_on_c, 4, 69, 0
11, 31050, Note_on_c, 4, 67, 48
11, 31079, Note_on_c, 4, 67, 0
11, 31080, Note_on_c, 4, 69, 48
11, 31139, Note_on_c, 4, 69, 0
11, 31140, Note_on_c, 4, 72, 48
11, 31199, Note_on_c, 4, 72, 0
11, 31200, Note_on_c, 4, 62, 48
11, 31259, Note_on_c, 4, 62, 0
11, 31260, Note_on_c, 4, 74, 48
11, 31289, Note_on_c, 4, 74, 0
11, 31290, Note_on_c, 4, 72, 48
11, 31319, Note_on_c, 4, 72, 0
11, 31320, Note_on_c, 4, 74, 48
11, 31379, Note_on_c, 4, 74, 0
11, 31380, Note_on_c, 4, 77, 48
11, 31439, Note_on_c, 4, 77, 0
11, 31440, Note_on_c, 4, 58, 48
11, 31499, Note_on_c, 4, 58, 0
11, 31500, Note_on_c, 4, 67, 48
11, 31529, Note_on_c, 4, 67, 0
11, 31530, Note_on_c, 4, 66, 48
11, 31559, Note_on_c, 4, 66, 0
11, 31560, Note_on_c, 4, 67, 48
11, 31619, Note_on_c, 4, 67, 0
11, 31620, Note_on_c, 4, 70, 48
11, 31679, Note_on_c, 4, 70, 0
11, 31680, Note_on_c, 4, 60, 48
11, 31739, Note_on_c, 4, 60, 0
11, 31740, Note_on_c, 4, 75, 48
11, 31769, Note_on_c, 4, 75, 0
11, 31770, Note_on_c, 4, 74, 48
11, 31799, Note_on_c, 4, 74, 0
11, 31800, Note_on_c, 4, 72, 48
11, 31859, Note_on_c, 4, 72, 0
11, 31860, Note_on_c, 4, 79, 48
11, 31919, Note_on_c, 4, 79, 0
11, 31920, Note_on_c, 4, 66, 48
11, 31979, Note_on_c, 4, 66, 0
11, 31980, Note_on_c, 4, 81, 48
11, 32039, Note_on_c, 4, 81, 0
11, 32040, Note_on_c, 4, 82, 48
11, 32099, Note_on_c, 4, 82, 0
11, 32100, Note_on_c, 4, 75, 48
11, 32129, Note_on_c, 4, 75, 0
11, 32130, Note_on_c, 4, 72, 48
11, 32159, Note_on_c, 4, 72, 0
11, 32160, Note_on_c, 4, 70, 48
11, 32219, Note_on_c, 4, 70, 0
11, 32220, Note_on_c, 4, 79, 48
11, 32279, Note_on_c, 4, 79, 0
11, 32280, Note_on_c, 4, 69, 48
11, 32339, Note_on_c, 4, 69, 0
11, 32340, Note_on_c, 4, 78, 48
11, 32399, Note_on_c, 4, 78, 0
11, 32400, Note_on_c, 4, 67, 48
11, 32519, Note_on_c, 4, 67, 0
11, 32580, Note_on_c, 4, 82, 72
11, 32609, Note_on_c, 4, 82, 0
11, 32610, Note_on_c, 4, 79, 72
11, 32639, Note_on_c, 4, 79, 0
11, 32640, Note_on_c, 4, 87, 72
11, 32699, Note_on_c, 4, 87, 0
11, 32700, Note_on_c, 4, 75, 72
11, 32759, Note_on_c, 4, 75, 0
11, 32820, Note_on_c, 4, 79, 72
11, 32849, Note_on_c, 4, 79, 0
11, 32850, Note_on_c, 4, 75, 72
11, 32879, Note_on_c, 4, 75, 0
11, 32880, Note_on_c, 4, 81, 72
11, 32939, Note_on_c, 4, 81, 0
11, 32940, Note_on_c, 4, 69, 72
11, 32999, Note_on_c, 4, 69, 0
11, 33060, Note_on_c, 4, 81, 72
11, 33089, Note_on_c, 4, 81, 0
11, 33090, Note_on_c, 4, 78, 72
11, 33119, Note_on_c, 4, 78, 0
11, 33120, Note_on_c, 4, 86, 72
11, 33179, Note_on_c, 4, 86, 0
11, 33180, Note_on_c, 4, 74, 72
11, 33239, Note_on_c, 4, 74, 0
11, 33300, Note_on_c, 4, 77, 72
11, 33329, Note_on_c, 4, 77, 0
11, 33330, Note_on_c, 4, 74, 72
11, 33359, Note_on_c, 4, 74, 0
11, 33360, Note_on_c, 4, 79, 72
11, 33419, Note_on_c, 4, 79, 0
11, 33420, Note_on_c, 4, 67, 72
11, 33479, Note_on_c, 4, 67, 0
11, 33540, Note_on_c, 4, 79, 72
11, 33569, Note_on_c, 4, 79, 0
11, 33570, Note_on_c, 4, 76, 72
11, 33599, Note_on_c, 4, 76, 0
11, 33600, Note_on_c, 4, 84, 72
11, 33659, Note_on_c, 4, 84, 0
11, 33660, Note_on_c, 4, 72, 72
11, 33719, Note_on_c, 4, 72, 0
11, 33780, Note_on_c, 4, 76, 72
11, 33809, Note_on_c, 4, 76, 0
11, 33810, Note_on_c, 4, 67, 72
11, 33839, Note_on_c, 4, 67, 0
11, 33840, Note_on_c, 4, 66, 72
11, 33899, Note_on_c, 4, 66, 0
11, 33900, Note_on_c, 4, 81, 72
11, 33929, Note_on_c, 4, 81, 0
11, 33930, Note_on_c, 4, 78, 72
11, 33959, Note_on_c, 4, 78, 0
11, 33960, Note_on_c, 4, 82, 72
11, 34019, Note_on_c, 4, 82, 0
11, 34020, Note_on_c, 4, 75, 72
11, 34049, Note_on_c, 4, 75, 0
11, 34050, Note_on_c, 4, 72, 72
11, 34079, Note_on_c, 4, 72, 0
11, 34080, Note_on_c, 4, 70, 72
11, 34139, Note_on_c, 4, 70, 0
11, 34140, Note_on_c, 4, 79, 72
11, 34199, Note_on_c, 4, 79, 0
11, 34200, Note_on_c, 4, 69, 72
11, 34259, Note_on_c, 4, 69, 0
11, 34260, Note_on_c, 4, 77, 72
11, 34319, Note_on_c, 4, 77, 0
11, 34320, Note_on_c, 4, 79, 72
11, 34379, Note_on_c, 4, 79, 0
11, 34380, Note_on_c, 4, 67, 72
11, 34499, Note_on_c, 4, 67, 0
11, 34500, Note_on_c, 4, 67, 72
11, 34619, Note_on_c, 4, 67, 0
11, 34620, Note_on_c, 4, 67, 72
11, 34739, Note_on_c, 4, 67, 0
11, 34740, Note_on_c, 4, 67, 72
11, 34859, Note_on_c, 4, 67, 0
11, 34860, Note_on_c, 4, 67, 72
11, 34979, Note_on_c, 4, 67, 0
11, 34980, Note_on_c, 4, 67, 72
11, 35099, Note_on_c, 4, 67, 0
11, 35100, Note_on_c, 4, 67, 72
11, 35219, Note_on_c, 4, 67, 0
11, 35220, Note_on_c, 4, 67, 72
11, 35279, Note_on_c, 4, 67, 0
11, 35280, Note_on_c, 4, 67, 72
11, 35639, Note_on_c, 4, 67, 0
11, 35640, Note_on_c, 4, 67, 72
11, 35759, Note_on_c, 4, 67, 0
11, 35760, Note_on_c, 4, 67, 72
11, 36239, Note_on_c, 4, 67, 0
11, 36239, End_track
12, 0, Start_track
12, 0, Title_t, "Violin II"
12, 0, MIDI_port, 0
12, 0, Program_c, 5, 48
12, 0, Control_c, 5, 7, 96
12, 0, Control_c, 5, 10, 24
12, 0, Control_c, 5, 11, 127
12, 0, Note_on_c, 5, 55, 48
12, 59, Note_on_c, 5, 55, 0
12, 60, Note_on_c, 5, 63, 48
12, 179, Note_on_c, 5, 63, 0
12, 180, Note_on_c, 5, 67, 48
12, 299, Note_on_c, 5, 67, 0
12, 300, Note_on_c, 5, 70, 48
12, 359, Note_on_c, 5, 70, 0
12, 360, Note_on_c, 5, 68, 48
12, 419, Note_on_c, 5, 68, 0
12, 420, Note_on_c, 5, 65, 48
12, 539, Note_on_c, 5, 65, 0
12, 540, Note_on_c, 5, 62, 48
12, 659, Note_on_c, 5, 62, 0
12, 660, Note_on_c, 5, 56, 48
12, 719, Note_on_c, 5, 56, 0
12, 720, Note_on_c, 5, 55, 48
12, 779, Note_on_c, 5, 55, 0
12, 780, Note_on_c, 5, 63, 48
12, 899, Note_on_c, 5, 63, 0
12, 900, Note_on_c, 5, 67, 48
12, 1019, Note_on_c, 5, 67, 0
12, 1020, Note_on_c, 5, 70, 48
12, 1079, Note_on_c, 5, 70, 0
12, 1080, Note_on_c, 5, 68, 48
12, 1139, Note_on_c, 5, 68, 0
12, 1140, Note_on_c, 5, 65, 48
12, 1259, Note_on_c, 5, 65, 0
12, 1260, Note_on_c, 5, 62, 48
12, 1379, Note_on_c, 5, 62, 0
12, 1380, Note_on_c, 5, 56, 48
12, 1439, Note_on_c, 5, 56, 0
12, 1440, Note_on_c, 5, 55, 48
12, 1499, Note_on_c, 5, 55, 0
12, 1500, Note_on_c, 5, 63, 48
12, 1619, Note_on_c, 5, 63, 0
12, 1620, Note_on_c, 5, 67, 48
12, 1679, Note_on_c, 5, 67, 0
12, 1680, Note_on_c, 5, 69, 48
12, 1739, Note_on_c, 5, 69, 0
12, 1740, Note_on_c, 5, 72, 48
12, 1799, Note_on_c, 5, 72, 0
12, 1800, Note_on_c, 5, 65, 48
12, 1859, Note_on_c, 5, 65, 0
12, 1860, Note_on_c, 5, 65, 48
12, 1979, Note_on_c, 5, 65, 0
12, 1980, Note_on_c, 5, 72, 48
12, 2039, Note_on_c, 5, 72, 0
12, 2040, Note_on_c, 5, 70, 48
12, 2099, Note_on_c, 5, 70, 0
12, 2100, Note_on_c, 5, 65, 48
12, 2159, Note_on_c, 5, 65, 0
12, 2160, Note_on_c, 5, 67, 48
12, 2219, Note_on_c, 5, 67, 0
12, 2220, Note_on_c, 5, 67, 48
12, 2339, Note_on_c, 5, 67, 0
12, 2340, Note_on_c, 5, 67, 48
12, 2399, Note_on_c, 5, 67, 0
12, 2400, Note_on_c, 5, 68, 48
12, 2459, Note_on_c, 5, 68, 0
12, 2460, Note_on_c, 5, 68, 48
12, 2519, Note_on_c, 5, 68, 0
12, 2520, Note_on_c, 5, 65, 48
12, 2579, Note_on_c, 5, 65, 0
12, 2580, Note_on_c, 5, 65, 48
12, 2699, Note_on_c, 5, 65, 0
12, 2700, Note_on_c, 5, 65, 48
12, 2759, Note_on_c, 5, 65, 0
12, 2760, Note_on_c, 5, 67, 48
12, 2819, Note_on_c, 5, 67, 0
12, 2820, Note_on_c, 5, 67, 48
12, 2879, Note_on_c, 5, 67, 0
12, 2880, Note_on_c, 5, 67, 48
12, 2999, Note_on_c, 5, 67, 0
12, 3000, Note_on_c, 5, 65, 48
12, 3059, Note_on_c, 5, 65, 0
12, 3060, Note_on_c, 5, 63, 48
12, 3119, Note_on_c, 5, 63, 0
12, 3120, Note_on_c, 5, 62, 48
12, 3179, Note_on_c, 5, 62, 0
12, 3180, Note_on_c, 5, 65, 48
12, 3239, Note_on_c, 5, 65, 0
12, 3240, Note_on_c, 5, 65, 48
12, 3479, Note_on_c, 5, 65, 0
12, 3480, Note_on_c, 5, 63, 48
12, 3539, Note_on_c, 5, 63, 0
12, 3540, Note_on_c, 5, 70, 48
12, 3659, Note_on_c, 5, 70, 0
12, 3660, Note_on_c, 5, 67, 48
12, 3779, Note_on_c, 5, 67, 0
12, 3780, Note_on_c, 5, 63, 48
12, 3899, Note_on_c, 5, 63, 0
12, 3900, Note_on_c, 5, 58, 48
12, 3959, Note_on_c, 5, 58, 0
12, 3960, Note_on_c, 5, 65, 48
12, 4019, Note_on_c, 5, 65, 0
12, 4020, Note_on_c, 5, 65, 48
12, 4139, Note_on_c, 5, 65, 0
12, 4140, Note_on_c, 5, 65, 48
12, 4259, Note_on_c, 5, 65, 0
12, 4260, Note_on_c, 5, 65, 48
12, 4379, Note_on_c, 5, 65, 0
12, 4380, Note_on_c, 5, 65, 48
12, 4499, Note_on_c, 5, 65, 0
12, 4500, Note_on_c, 5, 65, 48
12, 4619, Note_on_c, 5, 65, 0
12, 4620, Note_on_c, 5, 65, 48
12, 4739, Note_on_c, 5, 65, 0
12, 4740, Note_on_c, 5, 65, 48
12, 4859, Note_on_c, 5, 65, 0
12, 4860, Note_on_c, 5, 65, 48
12, 4919, Note_on_c, 5, 65, 0
12, 4920, Note_on_c, 5, 67, 48
12, 5099, Note_on_c, 5, 67, 0
12, 5100, Note_on_c, 5, 75, 48
12, 5219, Note_on_c, 5, 75, 0
12, 5220, Note_on_c, 5, 72, 48
12, 5279, Note_on_c, 5, 72, 0
12, 5280, Note_on_c, 5, 71, 48
12, 5339, Note_on_c, 5, 71, 0
12, 5340, Note_on_c, 5, 67, 48
12, 5459, Note_on_c, 5, 67, 0
12, 5460, Note_on_c, 5, 67, 48
12, 5579, Note_on_c, 5, 67, 0
12, 5580, Note_on_c, 5, 67, 48
12, 5699, Note_on_c, 5, 67, 0
12, 5700, Note_on_c, 5, 67, 48
12, 5759, Note_on_c, 5, 67, 0
12, 5760, Note_on_c, 5, 68, 48
12, 5819, Note_on_c, 5, 68, 0
12, 5820, Note_on_c, 5, 68, 48
12, 5939, Note_on_c, 5, 68, 0
12, 5940, Note_on_c, 5, 68, 48
12, 6059, Note_on_c, 5, 68, 0
12, 6060, Note_on_c, 5, 68, 48
12, 6119, Note_on_c, 5, 68, 0
12, 6120, Note_on_c, 5, 70, 48
12, 6179, Note_on_c, 5, 70, 0
12, 6180, Note_on_c, 5, 58, 48
12, 6299, Note_on_c, 5, 58, 0
12, 6300, Note_on_c, 5, 55, 48
12, 6359, Note_on_c, 5, 55, 0
12, 6360, Note_on_c, 5, 56, 48
12, 6419, Note_on_c, 5, 56, 0
12, 6420, Note_on_c, 5, 60, 48
12, 6539, Note_on_c, 5, 60, 0
12, 6540, Note_on_c, 5, 65, 48
12, 6659, Note_on_c, 5, 65, 0
12, 6660, Note_on_c, 5, 65, 48
12, 6779, Note_on_c, 5, 65, 0
12, 6780, Note_on_c, 5, 65, 48
12, 6899, Note_on_c, 5, 65, 0
12, 6900, Note_on_c, 5, 63, 48
12, 7019, Note_on_c, 5, 63, 0
12, 7020, Note_on_c, 5, 62, 48
12, 7139, Note_on_c, 5, 62, 0
12, 7140, Note_on_c, 5, 63, 48
12, 7199, Note_on_c, 5, 63, 0
12, 7200, Note_on_c, 5, 62, 48
12, 7259, Note_on_c, 5, 62, 0
12, 7260, Note_on_c, 5, 65, 48
12, 7379, Note_on_c, 5, 65, 0
12, 7380, Note_on_c, 5, 70, 48
12, 7499, Note_on_c, 5, 70, 0
12, 7500, Note_on_c, 5, 74, 48
12, 7559, Note_on_c, 5, 74, 0
12, 7560, Note_on_c, 5, 75, 48
12, 7619, Note_on_c, 5, 75, 0
12, 7620, Note_on_c, 5, 72, 48
12, 7739, Note_on_c, 5, 72, 0
12, 7740, Note_on_c, 5, 69, 48
12, 7859, Note_on_c, 5, 69, 0
12, 7860, Note_on_c, 5, 63, 48
12, 7919, Note_on_c, 5, 63, 0
12, 7920, Note_on_c, 5, 61, 48
12, 7979, Note_on_c, 5, 61, 0
12, 7980, Note_on_c, 5, 65, 48
12, 8099, Note_on_c, 5, 65, 0
12, 8100, Note_on_c, 5, 70, 48
12, 8219, Note_on_c, 5, 70, 0
12, 8220, Note_on_c, 5, 73, 48
12, 8279, Note_on_c, 5, 73, 0
12, 8280, Note_on_c, 5, 72, 48
12, 8339, Note_on_c, 5, 72, 0
12, 8340, Note_on_c, 5, 75, 48
12, 8459, Note_on_c, 5, 75, 0
12, 8460, Note_on_c, 5, 63, 48
12, 8579, Note_on_c, 5, 63, 0
12, 8580, Note_on_c, 5, 60, 48
12, 8639, Note_on_c, 5, 60, 0
12, 8640, Note_on_c, 5, 63, 48
12, 8699, Note_on_c, 5, 63, 0
12, 8700, Note_on_c, 5, 60, 48
12, 8819, Note_on_c, 5, 60, 0
12, 8820, Note_on_c, 5, 63, 48
12, 8879, Note_on_c, 5, 63, 0
12, 8880, Note_on_c, 5, 61, 48
12, 8939, Note_on_c, 5, 61, 0
12, 8940, Note_on_c, 5, 58, 48
12, 8999, Note_on_c, 5, 58, 0
12, 9000, Note_on_c, 5, 57, 48
12, 9059, Note_on_c, 5, 57, 0
12, 9060, Note_on_c, 5, 60, 56
12, 9179, Note_on_c, 5, 60, 0
12, 9180, Note_on_c, 5, 69, 64
12, 9299, Note_on_c, 5, 69, 0
12, 9300, Note_on_c, 5, 72, 68
12, 9359, Note_on_c, 5, 72, 0
12, 9360, Note_on_c, 5, 73, 72
12, 9419, Note_on_c, 5, 73, 0
12, 9420, Note_on_c, 5, 77, 72
12, 9539, Note_on_c, 5, 77, 0
12, 9540, Note_on_c, 5, 80, 72
12, 9659, Note_on_c, 5, 80, 0
12, 9660, Note_on_c, 5, 73, 72
12, 9719, Note_on_c, 5, 73, 0
12, 9720, Note_on_c, 5, 75, 72
12, 9779, Note_on_c, 5, 75, 0
12, 9780, Note_on_c, 5, 66, 72
12, 9899, Note_on_c, 5, 66, 0
12, 9900, Note_on_c, 5, 63, 72
12, 10019, Note_on_c, 5, 63, 0
12, 10020, Note_on_c, 5, 56, 48
12, 10139, Note_on_c, 5, 56, 0
12, 10140, Note_on_c, 5, 56, 48
12, 10259, Note_on_c, 5, 56, 0
12, 10260, Note_on_c, 5, 56, 48
12, 10379, Note_on_c, 5, 56, 0
12, 10380, Note_on_c, 5, 56, 48
12, 10439, Note_on_c, 5, 56, 0
12, 10440, Note_on_c, 5, 60, 48
12, 10499, Note_on_c, 5, 60, 0
12, 10500, Note_on_c, 5, 63, 54
12, 10619, Note_on_c, 5, 63, 0
12, 10620, Note_on_c, 5, 68, 60
12, 10739, Note_on_c, 5, 68, 0
12, 10740, Note_on_c, 5, 72, 66
12, 10859, Note_on_c, 5, 72, 0
12, 10860, Note_on_c, 5, 68, 72
12, 10979, Note_on_c, 5, 68, 0
12, 10980, Note_on_c, 5, 65, 72
12, 11099, Note_on_c, 5, 65, 0
12, 11100, Note_on_c, 5, 68, 72
12, 11159, Note_on_c, 5, 68, 0
12, 11160, Note_on_c, 5, 70, 72
12, 11219, Note_on_c, 5, 70, 0
12, 11220, Note_on_c, 5, 67, 72
12, 11339, Note_on_c, 5, 67, 0
12, 11340, Note_on_c, 5, 64, 72
12, 11459, Note_on_c, 5, 64, 0
12, 11460, Note_on_c, 5, 58, 48
12, 11579, Note_on_c, 5, 58, 0
12, 11580, Note_on_c, 5, 65, 48
12, 11699, Note_on_c, 5, 65, 0
12, 11700, Note_on_c, 5, 60, 48
12, 11819, Note_on_c, 5, 60, 0
12, 11820, Note_on_c, 5, 56, 48
12, 11879, Note_on_c, 5, 56, 0
12, 11880, Note_on_c, 5, 55, 48
12, 11939, Note_on_c, 5, 55, 0
12, 11940, Note_on_c, 5, 60, 54
12, 12059, Note_on_c, 5, 60, 0
12, 12060, Note_on_c, 5, 64, 60
12, 12179, Note_on_c, 5, 64, 0
12, 12180, Note_on_c, 5, 67, 66
12, 12239, Note_on_c, 5, 67, 0
12, 12240, Note_on_c, 5, 70, 72
12, 12299, Note_on_c, 5, 70, 0
12, 12300, Note_on_c, 5, 79, 72
12, 12419, Note_on_c, 5, 79, 0
12, 12420, Note_on_c, 5, 76, 72
12, 12539, Note_on_c, 5, 76, 0
12, 12540, Note_on_c, 5, 73, 48
12, 12659, Note_on_c, 5, 73, 0
12, 12660, Note_on_c, 5, 67, 48
12, 12779, Note_on_c, 5, 67, 0
12, 12780, Note_on_c, 5, 64, 48
12, 12899, Note_on_c, 5, 64, 0
12, 12900, Note_on_c, 5, 67, 48
12, 13019, Note_on_c, 5, 67, 0
12, 13020, Note_on_c, 5, 68, 48
12, 13139, Note_on_c, 5, 68, 0
12, 13140, Note_on_c, 5, 68, 48
12, 13259, Note_on_c, 5, 68, 0
12, 13260, Note_on_c, 5, 68, 48
12, 13319, Note_on_c, 5, 68, 0
12, 13320, Note_on_c, 5, 69, 48
12, 13379, Note_on_c, 5, 69, 0
12, 13380, Note_on_c, 5, 69, 48
12, 13499, Note_on_c, 5, 69, 0
12, 13500, Note_on_c, 5, 69, 48
12, 13619, Note_on_c, 5, 69, 0
12, 13620, Note_on_c, 5, 76, 72
12, 13679, Note_on_c, 5, 76, 0
12, 13680, Note_on_c, 5, 77, 72
12, 13739, Note_on_c, 5, 77, 0
12, 13740, Note_on_c, 5, 74, 72
12, 13859, Note_on_c, 5, 74, 0
12, 13860, Note_on_c, 5, 69, 72
12, 13979, Note_on_c, 5, 69, 0
12, 13980, Note_on_c, 5, 65, 72
12, 14039, Note_on_c, 5, 65, 0
12, 14040, Note_on_c, 5, 63, 72
12, 14099, Note_on_c, 5, 63, 0
12, 14100, Note_on_c, 5, 72, 72
12, 14219, Note_on_c, 5, 72, 0
12, 14220, Note_on_c, 5, 69, 72
12, 14339, Note_on_c, 5, 69, 0
12, 14340, Note_on_c, 5, 63, 72
12, 14459, Note_on_c, 5, 63, 0
12, 14460, Note_on_c, 5, 59, 72
12, 14579, Note_on_c, 5, 59, 0
12, 14580, Note_on_c, 5, 63, 72
12, 14699, Note_on_c, 5, 63, 0
12, 14700, Note_on_c, 5, 65, 72
12, 14759, Note_on_c, 5, 65, 0
12, 14760, Note_on_c, 5, 68, 72
12, 14819, Note_on_c, 5, 68, 0
12, 14820, Note_on_c, 5, 77, 72
12, 14939, Note_on_c, 5, 77, 0
12, 14940, Note_on_c, 5, 74, 72
12, 14999, Note_on_c, 5, 74, 0
12, 15000, Note_on_c, 5, 63, 72
12, 15059, Note_on_c, 5, 63, 0
12, 15060, Note_on_c, 5, 67, 72
12, 15179, Note_on_c, 5, 67, 0
12, 15180, Note_on_c, 5, 58, 72
12, 15299, Note_on_c, 5, 58, 0
12, 15300, Note_on_c, 5, 65, 72
12, 15419, Note_on_c, 5, 65, 0
12, 15420, Note_on_c, 5, 56, 72
12, 15479, Note_on_c, 5, 56, 0
12, 15480, Note_on_c, 5, 55, 72
12, 15539, Note_on_c, 5, 55, 0
12, 15540, Note_on_c, 5, 58, 72
12, 15659, Note_on_c, 5, 58, 0
12, 15660, Note_on_c, 5, 63, 72
12, 15779, Note_on_c, 5, 63, 0
12, 15780, Note_on_c, 5, 67, 72
12, 15839, Note_on_c, 5, 67, 0
12, 15840, Note_on_c, 5, 68, 72
12, 15899, Note_on_c, 5, 68, 0
12, 15900, Note_on_c, 5, 65, 72
12, 16019, Note_on_c, 5, 65, 0
12, 16020, Note_on_c, 5, 62, 72
12, 16139, Note_on_c, 5, 62, 0
12, 16140, Note_on_c, 5, 56, 72
12, 16199, Note_on_c, 5, 56, 0
12, 16200, Note_on_c, 5, 55, 72
12, 16259, Note_on_c, 5, 55, 0
12, 16260, Note_on_c, 5, 67, 48
12, 16379, Note_on_c, 5, 67, 0
12, 16380, Note_on_c, 5, 63, 48
12, 16499, Note_on_c, 5, 63, 0
12, 16500, Note_on_c, 5, 58, 48
12, 16559, Note_on_c, 5, 58, 0
12, 16560, Note_on_c, 5, 59, 48
12, 16619, Note_on_c, 5, 59, 0
12, 16620, Note_on_c, 5, 62, 48
12, 16739, Note_on_c, 5, 62, 0
12, 16740, Note_on_c, 5, 65, 48
12, 16859, Note_on_c, 5, 65, 0
12, 16860, Note_on_c, 5, 68, 48
12, 16919, Note_on_c, 5, 68, 0
12, 16920, Note_on_c, 5, 67, 48
12, 16979, Note_on_c, 5, 67, 0
12, 16980, Note_on_c, 5, 67, 48
12, 17099, Note_on_c, 5, 67, 0
12, 17100, Note_on_c, 5, 67, 48
12, 17219, Note_on_c, 5, 67, 0
12, 17220, Note_on_c, 5, 67, 48
12, 17339, Note_on_c, 5, 67, 0
12, 17340, Note_on_c, 5, 63, 48
12, 17459, Note_on_c, 5, 63, 0
12, 17460, Note_on_c, 5, 60, 48
12, 17579, Note_on_c, 5, 60, 0
12, 17580, Note_on_c, 5, 58, 48
12, 17639, Note_on_c, 5, 58, 0
12, 17640, Note_on_c, 5, 57, 48
12, 17699, Note_on_c, 5, 57, 0
12, 17700, Note_on_c, 5, 72, 48
12, 17819, Note_on_c, 5, 72, 0
12, 17820, Note_on_c, 5, 72, 48
12, 17939, Note_on_c, 5, 72, 0
12, 17940, Note_on_c, 5, 72, 48
12, 17999, Note_on_c, 5, 72, 0
12, 18000, Note_on_c, 5, 62, 48
12, 18059, Note_on_c, 5, 62, 0
12, 18060, Note_on_c, 5, 70, 48
12, 18179, Note_on_c, 5, 70, 0
12, 18180, Note_on_c, 5, 67, 48
12, 18299, Note_on_c, 5, 67, 0
12, 18300, Note_on_c, 5, 65, 48
12, 18359, Note_on_c, 5, 65, 0
12, 18360, Note_on_c, 5, 64, 48
12, 18405, Note_on_c, 5, 58, 48
12, 18419, Note_on_c, 5, 64, 0
12, 18524, Note_on_c, 5, 58, 0
12, 18525, Note_on_c, 5, 55, 48
12, 18644, Note_on_c, 5, 55, 0
12, 18660, Note_on_c, 5, 64, 48
12, 18719, Note_on_c, 5, 64, 0
12, 18720, Note_on_c, 5, 62, 48
12, 18779, Note_on_c, 5, 62, 0
12, 18780, Note_on_c, 5, 73, 48
12, 18839, Note_on_c, 5, 73, 0
12, 18840, Note_on_c, 5, 74, 48
12, 18899, Note_on_c, 5, 74, 0
12, 18900, Note_on_c, 5, 69, 48
12, 18959, Note_on_c, 5, 69, 0
12, 18960, Note_on_c, 5, 70, 48
12, 19019, Note_on_c, 5, 70, 0
12, 19020, Note_on_c, 5, 61, 48
12, 19079, Note_on_c, 5, 61, 0
12, 19080, Note_on_c, 5, 62, 48
12, 19199, Note_on_c, 5, 62, 0
12, 19440, Note_on_c, 5, 55, 72
12, 19499, Note_on_c, 5, 55, 0
12, 19500, Note_on_c, 5, 67, 72
12, 19559, Note_on_c, 5, 67, 0
12, 19620, Note_on_c, 5, 70, 72
12, 19649, Note_on_c, 5, 70, 0
12, 19650, Note_on_c, 5, 62, 72
12, 19679, Note_on_c, 5, 62, 0
12, 19680, Note_on_c, 5, 63, 72
12, 19739, Note_on_c, 5, 63, 0
12, 19740, Note_on_c, 5, 72, 72
12, 19799, Note_on_c, 5, 72, 0
12, 19860, Note_on_c, 5, 72, 72
12, 19889, Note_on_c, 5, 72, 0
12, 19890, Note_on_c, 5, 69, 72
12, 19919, Note_on_c, 5, 69, 0
12, 19920, Note_on_c, 5, 78, 72
12, 19979, Note_on_c, 5, 78, 0
12, 19980, Note_on_c, 5, 57, 72
12, 20039, Note_on_c, 5, 57, 0
12, 20100, Note_on_c, 5, 66, 72
12, 20129, Note_on_c, 5, 66, 0
12, 20130, Note_on_c, 5, 62, 72
12, 20159, Note_on_c, 5, 62, 0
12, 20160, Note_on_c, 5, 74, 72
12, 20219, Note_on_c, 5, 74, 0
12, 20220, Note_on_c, 5, 55, 72
12, 20279, Note_on_c, 5, 55, 0
12, 20340, Note_on_c, 5, 70, 72
12, 20369, Note_on_c, 5, 70, 0
12, 20370, Note_on_c, 5, 67, 72
12, 20399, Note_on_c, 5, 67, 0
12, 20400, Note_on_c, 5, 79, 72
12, 20459, Note_on_c, 5, 79, 0
12, 20460, Note_on_c, 5, 55, 72
12, 20519, Note_on_c, 5, 55, 0
12, 20580, Note_on_c, 5, 76, 72
12, 20609, Note_on_c, 5, 76, 0
12, 20610, Note_on_c, 5, 73, 72
12, 20639, Note_on_c, 5, 73, 0
12, 20640, Note_on_c, 5, 79, 72
12, 20699, Note_on_c, 5, 79, 0
12, 20700, Note_on_c, 5, 57, 72
12, 20759, Note_on_c, 5, 57, 0
12, 20820, Note_on_c, 5, 76, 72
12, 20849, Note_on_c, 5, 76, 0
12, 20850, Note_on_c, 5, 69, 72
12, 20879, Note_on_c, 5, 69, 0
12, 20880, Note_on_c, 5, 81, 72
12, 20939, Note_on_c, 5, 81, 0
12, 20940, Note_on_c, 5, 62, 72
12, 20999, Note_on_c, 5, 62, 0
12, 21060, Note_on_c, 5, 78, 72
12, 21089, Note_on_c, 5, 78, 0
12, 21090, Note_on_c, 5, 74, 72
12, 21119, Note_on_c, 5, 74, 0
12, 21120, Note_on_c, 5, 77, 72
12, 21179, Note_on_c, 5, 77, 0
12, 21180, Note_on_c, 5, 55, 72
12, 21239, Note_on_c, 5, 55, 0
12, 21300, Note_on_c, 5, 74, 72
12, 21329, Note_on_c, 5, 74, 0
12, 21330, Note_on_c, 5, 67, 72
12, 21359, Note_on_c, 5, 67, 0
12, 21360, Note_on_c, 5, 79, 72
12, 21419, Note_on_c, 5, 79, 0
12, 21420, Note_on_c, 5, 60, 72
12, 21479, Note_on_c, 5, 60, 0
12, 21540, Note_on_c, 5, 75, 72
12, 21569, Note_on_c, 5, 75, 0
12, 21570, Note_on_c, 5, 72, 72
12, 21599, Note_on_c, 5, 72, 0
12, 21600, Note_on_c, 5, 84, 72
12, 21659, Note_on_c, 5, 84, 0
12, 21660, Note_on_c, 5, 72, 72
12, 21719, Note_on_c, 5, 72, 0
12, 21780, Note_on_c, 5, 75, 72
12, 21809, Note_on_c, 5, 75, 0
12, 21810, Note_on_c, 5, 66, 72
12, 21839, Note_on_c, 5, 66, 0
12, 21840, Note_on_c, 5, 81, 72
12, 21899, Note_on_c, 5, 81, 0
12, 21900, Note_on_c, 5, 62, 72
12, 21959, Note_on_c, 5, 62, 0
12, 22020, Note_on_c, 5, 81, 72
12, 22049, Note_on_c, 5, 81, 0
12, 22050, Note_on_c, 5, 74, 72
12, 22079, Note_on_c, 5, 74, 0
12, 22080, Note_on_c, 5, 86, 72
12, 22139, Note_on_c, 5, 86, 0
12, 22140, Note_on_c, 5, 67, 72
12, 22199, Note_on_c, 5, 67, 0
12, 22260, Note_on_c, 5, 74, 72
12, 22289, Note_on_c, 5, 74, 0
12, 22290, Note_on_c, 5, 67, 72
12, 22319, Note_on_c, 5, 67, 0
12, 22320, Note_on_c, 5, 79, 72
12, 22379, Note_on_c, 5, 79, 0
12, 22380, Note_on_c, 5, 67, 72
12, 22439, Note_on_c, 5, 67, 0
12, 22500, Note_on_c, 5, 70, 72
12, 22529, Note_on_c, 5, 70, 0
12, 22530, Note_on_c, 5, 67, 72
12, 22559, Note_on_c, 5, 67, 0
12, 22560, Note_on_c, 5, 79, 72
12, 22619, Note_on_c, 5, 79, 0
12, 22620, Note_on_c, 5, 69, 72
12, 22679, Note_on_c, 5, 69, 0
12, 22740, Note_on_c, 5, 76, 72
12, 22769, Note_on_c, 5, 76, 0
12, 22770, Note_on_c, 5, 69, 72
12, 22799, Note_on_c, 5, 69, 0
12, 22800, Note_on_c, 5, 79, 72
12, 22859, Note_on_c, 5, 79, 0
12, 22860, Note_on_c, 5, 62, 72
12, 22919, Note_on_c, 5, 62, 0
12, 22980, Note_on_c, 5, 78, 72
12, 23009, Note_on_c, 5, 78, 0
12, 23010, Note_on_c, 5, 74, 72
12, 23039, Note_on_c, 5, 74, 0
12, 23040, Note_on_c, 5, 86, 72
12, 23099, Note_on_c, 5, 86, 0
12, 23100, Note_on_c, 5, 55, 72
12, 23159, Note_on_c, 5, 55, 0
12, 23220, Note_on_c, 5, 74, 72
12, 23249, Note_on_c, 5, 74, 0
12, 23250, Note_on_c, 5, 67, 72
12, 23279, Note_on_c, 5, 67, 0
12, 23280, Note_on_c, 5, 77, 72
12, 23339, Note_on_c, 5, 77, 0
12, 23340, Note_on_c, 5, 60, 72
12, 23399, Note_on_c, 5, 60, 0
12, 23460, Note_on_c, 5, 76, 72
12, 23489, Note_on_c, 5, 76, 0
12, 23490, Note_on_c, 5, 72, 72
12, 23519, Note_on_c, 5, 72, 0
12, 23520, Note_on_c, 5, 84, 72
12, 23579, Note_on_c, 5, 84, 0
12, 23580, Note_on_c, 5, 65, 72
12, 23639, Note_on_c, 5, 65, 0
12, 23700, Note_on_c, 5, 72, 72
12, 23729, Note_on_c, 5, 72, 0
12, 23730, Note_on_c, 5, 65, 72
12, 23759, Note_on_c, 5, 65, 0
12, 23760, Note_on_c, 5, 75, 72
12, 23819, Note_on_c, 5, 75, 0
12, 23820, Note_on_c, 5, 58, 72
12, 23879, Note_on_c, 5, 58, 0
12, 23940, Note_on_c, 5, 82, 72
12, 23969, Note_on_c, 5, 82, 0
12, 23970, Note_on_c, 5, 74, 72
12, 23999, Note_on_c, 5, 74, 0
12, 24000, Note_on_c, 5, 75, 72
12, 24059, Note_on_c, 5, 75, 0
12, 24060, Note_on_c, 5, 79, 72
12, 24119, Note_on_c, 5, 79, 0
12, 24180, Note_on_c, 5, 79, 72
12, 24209, Note_on_c, 5, 79, 0
12, 24210, Note_on_c, 5, 72, 72
12, 24239, Note_on_c, 5, 72, 0
12, 24240, Note_on_c, 5, 81, 72
12, 24299, Note_on_c, 5, 81, 0
12, 24300, Note_on_c, 5, 65, 72
12, 24359, Note_on_c, 5, 65, 0
12, 24420, Note_on_c, 5, 72, 72
12, 24449, Note_on_c, 5, 72, 0
12, 24450, Note_on_c, 5, 65, 72
12, 24479, Note_on_c, 5, 65, 0
12, 24480, Note_on_c, 5, 77, 72
12, 24539, Note_on_c, 5, 77, 0
12, 24540, Note_on_c, 5, 56, 72
12, 24599, Note_on_c, 5, 56, 0
12, 24660, Note_on_c, 5, 72, 72
12, 24689, Note_on_c, 5, 72, 0
12, 24690, Note_on_c, 5, 68, 72
12, 24719, Note_on_c, 5, 68, 0
12, 24720, Note_on_c, 5, 77, 72
12, 24779, Note_on_c, 5, 77, 0
12, 24780, Note_on_c, 5, 59, 72
12, 24839, Note_on_c, 5, 59, 0
12, 24900, Note_on_c, 5, 74, 72
12, 24929, Note_on_c, 5, 74, 0
12, 24930, Note_on_c, 5, 67, 72
12, 24959, Note_on_c, 5, 67, 0
12, 24960, Note_on_c, 5, 79, 72
12, 25019, Note_on_c, 5, 79, 0
12, 25020, Note_on_c, 5, 60, 72
12, 25079, Note_on_c, 5, 60, 0
12, 25140, Note_on_c, 5, 84, 72
12, 25169, Note_on_c, 5, 84, 0
12, 25170, Note_on_c, 5, 75, 72
12, 25199, Note_on_c, 5, 75, 0
12, 25200, Note_on_c, 5, 77, 72
12, 25259, Note_on_c, 5, 77, 0
12, 25260, Note_on_c, 5, 80, 72
12, 25319, Note_on_c, 5, 80, 0
12, 25380, Note_on_c, 5, 77, 72
12, 25409, Note_on_c, 5, 77, 0
12, 25410, Note_on_c, 5, 74, 72
12, 25439, Note_on_c, 5, 74, 0
12, 25440, Note_on_c, 5, 71, 72
12, 25499, Note_on_c, 5, 71, 0
12, 25500, Note_on_c, 5, 59, 72
12, 25559, Note_on_c, 5, 59, 0
12, 25620, Note_on_c, 5, 74, 72
12, 25649, Note_on_c, 5, 74, 0
12, 25650, Note_on_c, 5, 67, 72
12, 25679, Note_on_c, 5, 67, 0
12, 25680, Note_on_c, 5, 79, 72
12, 25739, Note_on_c, 5, 79, 0
12, 25740, Note_on_c, 5, 64, 72
12, 25799, Note_on_c, 5, 64, 0
12, 25860, Note_on_c, 5, 82, 72
12, 25889, Note_on_c, 5, 82, 0
12, 25890, Note_on_c, 5, 70, 72
12, 25919, Note_on_c, 5, 70, 0
12, 25920, Note_on_c, 5, 74, 72
12, 25979, Note_on_c, 5, 74, 0
12, 25980, Note_on_c, 5, 64, 72
12, 26039, Note_on_c, 5, 64, 0
12, 26100, Note_on_c, 5, 76, 72
12, 26129, Note_on_c, 5, 76, 0
12, 26130, Note_on_c, 5, 69, 72
12, 26159, Note_on_c, 5, 69, 0
12, 26160, Note_on_c, 5, 79, 72
12, 26219, Note_on_c, 5, 79, 0
12, 26220, Note_on_c, 5, 62, 72
12, 26279, Note_on_c, 5, 62, 0
12, 26340, Note_on_c, 5, 78, 72
12, 26369, Note_on_c, 5, 78, 0
12, 26370, Note_on_c, 5, 74, 72
12, 26399, Note_on_c, 5, 74, 0
12, 26400, Note_on_c, 5, 79, 72
12, 26459, Note_on_c, 5, 79, 0
12, 26460, Note_on_c, 5, 55, 72
12, 26519, Note_on_c, 5, 55, 0
12, 26580, Note_on_c, 5, 79, 72
12, 26609, Note_on_c, 5, 79, 0
12, 26610, Note_on_c, 5, 72, 72
12, 26639, Note_on_c, 5, 72, 0
12, 26640, Note_on_c, 5, 77, 72
12, 26699, Note_on_c, 5, 77, 0
12, 26700, Note_on_c, 5, 58, 72
12, 26759, Note_on_c, 5, 58, 0
12, 26820, Note_on_c, 5, 74, 72
12, 26849, Note_on_c, 5, 74, 0
12, 26850, Note_on_c, 5, 70, 72
12, 26879, Note_on_c, 5, 70, 0
12, 26880, Note_on_c, 5, 75, 72
12, 26939, Note_on_c, 5, 75, 0
12, 26940, Note_on_c, 5, 60, 72
12, 26999, Note_on_c, 5, 60, 0
12, 27060, Note_on_c, 5, 75, 72
12, 27089, Note_on_c, 5, 75, 0
12, 27090, Note_on_c, 5, 69, 72
12, 27119, Note_on_c, 5, 69, 0
12, 27120, Note_on_c, 5, 74, 72
12, 27179, Note_on_c, 5, 74, 0
12, 27180, Note_on_c, 5, 62, 72
12, 27239, Note_on_c, 5, 62, 0
12, 27300, Note_on_c, 5, 70, 72
12, 27329, Note_on_c, 5, 70, 0
12, 27330, Note_on_c, 5, 67, 72
12, 27359, Note_on_c, 5, 67, 0
12, 27360, Note_on_c, 5, 79, 72
12, 27419, Note_on_c, 5, 79, 0
12, 27420, Note_on_c, 5, 67, 72
12, 27479, Note_on_c, 5, 67, 0
12, 27540, Note_on_c, 5, 79, 72
12, 27569, Note_on_c, 5, 79, 0
12, 27570, Note_on_c, 5, 73, 72
12, 27599, Note_on_c, 5, 73, 0
12, 27600, Note_on_c, 5, 74, 72
12, 27659, Note_on_c, 5, 74, 0
12, 27660, Note_on_c, 5, 62, 72
12, 27719, Note_on_c, 5, 62, 0
12, 27780, Note_on_c, 5, 69, 72
12, 27809, Note_on_c, 5, 69, 0
12, 27810, Note_on_c, 5, 62, 72
12, 27839, Note_on_c, 5, 62, 0
12, 27840, Note_on_c, 5, 74, 72
12, 27899, Note_on_c, 5, 74, 0
12, 27900, Note_on_c, 5, 58, 72
12, 27959, Note_on_c, 5, 58, 0
12, 28020, Note_on_c, 5, 70, 72
12, 28049, Note_on_c, 5, 70, 0
12, 28050, Note_on_c, 5, 67, 72
12, 28079, Note_on_c, 5, 67, 0
12, 28080, Note_on_c, 5, 75, 72
12, 28139, Note_on_c, 5, 75, 0
12, 28140, Note_on_c, 5, 63, 72
12, 28199, Note_on_c, 5, 63, 0
12, 28260, Note_on_c, 5, 72, 72
12, 28289, Note_on_c, 5, 72, 0
12, 28290, Note_on_c, 5, 69, 72
12, 28319, Note_on_c, 5, 69, 0
12, 28320, Note_on_c, 5, 81, 72
12, 28379, Note_on_c, 5, 81, 0
12, 28380, Note_on_c, 5, 66, 72
12, 28439, Note_on_c, 5, 66, 0
12, 28500, Note_on_c, 5, 79, 72
12, 28529, Note_on_c, 5, 79, 0
12, 28530, Note_on_c, 5, 74, 72
12, 28559, Note_on_c, 5, 74, 0
12, 28560, Note_on_c, 5, 82, 72
12, 28619, Note_on_c, 5, 82, 0
12, 28620, Note_on_c, 5, 67, 72
12, 28679, Note_on_c, 5, 67, 0
12, 28740, Note_on_c, 5, 70, 72
12, 28769, Note_on_c, 5, 70, 0
12, 28770, Note_on_c, 5, 67, 72
12, 28799, Note_on_c, 5, 67, 0
12, 28800, Note_on_c, 5, 74, 72
12, 28859, Note_on_c, 5, 74, 0
12, 28860, Note_on_c, 5, 64, 72
12, 28919, Note_on_c, 5, 64, 0
12, 28980, Note_on_c, 5, 72, 72
12, 29009, Note_on_c, 5, 72, 0
12, 29010, Note_on_c, 5, 64, 72
12, 29039, Note_on_c, 5, 64, 0
12, 29040, Note_on_c, 5, 72, 72
12, 29099, Note_on_c, 5, 72, 0
12, 29100, Note_on_c, 5, 62, 72
12, 29159, Note_on_c, 5, 62, 0
12, 29220, Note_on_c, 5, 74, 72
12, 29249, Note_on_c, 5, 74, 0
12, 29250, Note_on_c, 5, 69, 72
12, 29279, Note_on_c, 5, 69, 0
12, 29280, Note_on_c, 5, 69, 72
12, 29339, Note_on_c, 5, 69, 0
12, 29340, Note_on_c, 5, 70, 72
12, 29399, Note_on_c, 5, 70, 0
12, 29460, Note_on_c, 5, 74, 72
12, 29489, Note_on_c, 5, 74, 0
12, 29490, Note_on_c, 5, 67, 72
12, 29519, Note_on_c, 5, 67, 0
12, 29520, Note_on_c, 5, 79, 72
12, 29579, Note_on_c, 5, 79, 0
12, 29580, Note_on_c, 5, 67, 72
12, 29639, Note_on_c, 5, 67, 0
12, 29880, Note_on_c, 5, 64, 48
12, 29999, Note_on_c, 5, 64, 0
12, 30000, Note_on_c, 5, 62, 48
12, 30119, Note_on_c, 5, 62, 0
12, 30120, Note_on_c, 5, 61, 48
12, 30239, Note_on_c, 5, 61, 0
12, 30240, Note_on_c, 5, 62, 48
12, 30479, Note_on_c, 5, 62, 0
12, 30480, Note_on_c, 5, 58, 48
12, 30539, Note_on_c, 5, 58, 0
12, 30540, Note_on_c, 5, 67, 48
12, 30569, Note_on_c, 5, 67, 0
12, 30570, Note_on_c, 5, 66, 48
12, 30599, Note_on_c, 5, 66, 0
12, 30600, Note_on_c, 5, 67, 48
12, 30659, Note_on_c, 5, 67, 0
12, 30660, Note_on_c, 5, 70, 48
12, 30719, Note_on_c, 5, 70, 0
12, 30720, Note_on_c, 5, 60, 48
12, 30779, Note_on_c, 5, 60, 0
12, 30780, Note_on_c, 5, 72, 48
12, 30809, Note_on_c, 5, 72, 0
12, 30810, Note_on_c, 5, 71, 48
12, 30839, Note_on_c, 5, 71, 0
12, 30840, Note_on_c, 5, 72, 48
12, 30899, Note_on_c, 5, 72, 0
12, 30900, Note_on_c, 5, 75, 48
12, 30959, Note_on_c, 5, 75, 0
12, 30960, Note_on_c, 5, 57, 48
12, 31019, Note_on_c, 5, 57, 0
12, 31020, Note_on_c, 5, 65, 48
12, 31049, Note_on_c, 5, 65, 0
12, 31050, Note_on_c, 5, 64, 48
12, 31079, Note_on_c, 5, 64, 0
12, 31080, Note_on_c, 5, 65, 48
12, 31139, Note_on_c, 5, 65, 0
12, 31140, Note_on_c, 5, 69, 48
12, 31199, Note_on_c, 5, 69, 0
12, 31200, Note_on_c, 5, 58, 48
12, 31259, Note_on_c, 5, 58, 0
12, 31260, Note_on_c, 5, 65, 48
12, 31289, Note_on_c, 5, 65, 0
12, 31290, Note_on_c, 5, 63, 48
12, 31319, Note_on_c, 5, 63, 0
12, 31320, Note_on_c, 5, 65, 48
12, 31379, Note_on_c, 5, 65, 0
12, 31380, Note_on_c, 5, 69, 48
12, 31439, Note_on_c, 5, 69, 0
12, 31440, Note_on_c, 5, 55, 48
12, 31499, Note_on_c, 5, 55, 0
12, 31500, Note_on_c, 5, 63, 48
12, 31529, Note_on_c, 5, 63, 0
12, 31530, Note_on_c, 5, 62, 48
12, 31559, Note_on_c, 5, 62, 0
12, 31560, Note_on_c, 5, 63, 48
12, 31619, Note_on_c, 5, 63, 0
12, 31620, Note_on_c, 5, 67, 48
12, 31679, Note_on_c, 5, 67, 0
12, 31680, Note_on_c, 5, 57, 48
12, 31739, Note_on_c, 5, 57, 0
12, 31740, Note_on_c, 5, 67, 48
12, 31769, Note_on_c, 5, 67, 0
12, 31770, Note_on_c, 5, 65, 48
12, 31799, Note_on_c, 5, 65, 0
12, 31800, Note_on_c, 5, 63, 48
12, 31859, Note_on_c, 5, 63, 0
12, 31860, Note_on_c, 5, 75, 48
12, 31919, Note_on_c, 5, 75, 0
12, 31920, Note_on_c, 5, 57, 48
12, 31979, Note_on_c, 5, 57, 0
12, 31980, Note_on_c, 5, 78, 48
12, 32039, Note_on_c, 5, 78, 0
12, 32040, Note_on_c, 5, 79, 48
12, 32099, Note_on_c, 5, 79, 0
12, 32100, Note_on_c, 5, 72, 48
12, 32129, Note_on_c, 5, 72, 0
12, 32130, Note_on_c, 5, 69, 48
12, 32159, Note_on_c, 5, 69, 0
12, 32160, Note_on_c, 5, 67, 48
12, 32219, Note_on_c, 5, 67, 0
12, 32220, Note_on_c, 5, 79, 48
12, 32279, Note_on_c, 5, 79, 0
12, 32280, Note_on_c, 5, 65, 48
12, 32339, Note_on_c, 5, 65, 0
12, 32340, Note_on_c, 5, 78, 48
12, 32399, Note_on_c, 5, 78, 0
12, 32400, Note_on_c, 5, 67, 48
12, 32519, Note_on_c, 5, 67, 0
12, 32580, Note_on_c, 5, 82, 72
12, 32609, Note_on_c, 5, 82, 0
12, 32610, Note_on_c, 5, 79, 72
12, 32639, Note_on_c, 5, 79, 0
12, 32640, Note_on_c, 5, 87, 72
12, 32699, Note_on_c, 5, 87, 0
12, 32700, Note_on_c, 5, 75, 72
12, 32759, Note_on_c, 5, 75, 0
12, 32820, Note_on_c, 5, 79, 72
12, 32849, Note_on_c, 5, 79, 0
12, 32850, Note_on_c, 5, 75, 72
12, 32879, Note_on_c, 5, 75, 0
12, 32880, Note_on_c, 5, 81, 72
12, 32939, Note_on_c, 5, 81, 0
12, 32940, Note_on_c, 5, 69, 72
12, 32999, Note_on_c, 5, 69, 0
12, 33060, Note_on_c, 5, 81, 72
12, 33089, Note_on_c, 5, 81, 0
12, 33090, Note_on_c, 5, 78, 72
12, 33119, Note_on_c, 5, 78, 0
12, 33120, Note_on_c, 5, 86, 72
12, 33179, Note_on_c, 5, 86, 0
12, 33180, Note_on_c, 5, 74, 72
12, 33239, Note_on_c, 5, 74, 0
12, 33300, Note_on_c, 5, 77, 72
12, 33329, Note_on_c, 5, 77, 0
12, 33330, Note_on_c, 5, 74, 72
12, 33359, Note_on_c, 5, 74, 0
12, 33360, Note_on_c, 5, 74, 72
12, 33419, Note_on_c, 5, 74, 0
12, 33420, Note_on_c, 5, 64, 72
12, 33479, Note_on_c, 5, 64, 0
12, 33540, Note_on_c, 5, 76, 72
12, 33569, Note_on_c, 5, 76, 0
12, 33570, Note_on_c, 5, 72, 72
12, 33599, Note_on_c, 5, 72, 0
12, 33600, Note_on_c, 5, 79, 72
12, 33659, Note_on_c, 5, 79, 0
12, 33660, Note_on_c, 5, 67, 72
12, 33719, Note_on_c, 5, 67, 0
12, 33780, Note_on_c, 5, 67, 72
12, 33809, Note_on_c, 5, 67, 0
12, 33810, Note_on_c, 5, 63, 72
12, 33839, Note_on_c, 5, 63, 0
12, 33840, Note_on_c, 5, 57, 72
12, 33899, Note_on_c, 5, 57, 0
12, 33900, Note_on_c, 5, 74, 72
12, 33929, Note_on_c, 5, 74, 0
12, 33930, Note_on_c, 5, 69, 72
12, 33959, Note_on_c, 5, 69, 0
12, 33960, Note_on_c, 5, 67, 72
12, 34019, Note_on_c, 5, 67, 0
12, 34020, Note_on_c, 5, 72, 72
12, 34049, Note_on_c, 5, 72, 0
12, 34050, Note_on_c, 5, 69, 72
12, 34079, Note_on_c, 5, 69, 0
12, 34080, Note_on_c, 5, 67, 72
12, 34139, Note_on_c, 5, 67, 0
12, 34140, Note_on_c, 5, 70, 72
12, 34199, Note_on_c, 5, 70, 0
12, 34200, Note_on_c, 5, 66, 72
12, 34259, Note_on_c, 5, 66, 0
12, 34260, Note_on_c, 5, 69, 72
12, 34319, Note_on_c, 5, 69, 0
12, 34320, Note_on_c, 5, 67, 72
12, 34439, Note_on_c, 5, 67, 0
12, 34680, Note_on_c, 5, 62, 72
12, 34799, Note_on_c, 5, 62, 0
12, 34800, Note_on_c, 5, 63, 72
12, 34919, Note_on_c, 5, 63, 0
12, 34920, Note_on_c, 5, 62, 72
12, 35039, Note_on_c, 5, 62, 0
12, 35040, Note_on_c, 5, 63, 72
12, 35159, Note_on_c, 5, 63, 0
12, 35160, Note_on_c, 5, 65, 72
12, 35279, Note_on_c, 5, 65, 0
12, 35280, Note_on_c, 5, 63, 72
12, 35759, Note_on_c, 5, 63, 0
12, 35760, Note_on_c, 5, 62, 72
12, 36239, Note_on_c, 5, 62, 0
12, 36239, End_track
13, 0, Start_track
13, 0, Title_t, "Viola"
13, 0, MIDI_port, 0
13, 0, Program_c, 6, 48
13, 0, Control_c, 6, 7, 96
13, 0, Control_c, 6, 10, 80
13, 0, Control_c, 6, 11, 127
13, 0, Note_on_c, 6, 55, 48
13, 59, Note_on_c, 6, 55, 0
13, 60, Note_on_c, 6, 63, 48
13, 179, Note_on_c, 6, 63, 0
13, 180, Note_on_c, 6, 67, 48
13, 299, Note_on_c, 6, 67, 0
13, 300, Note_on_c, 6, 70, 48
13, 359, Note_on_c, 6, 70, 0
13, 360, Note_on_c, 6, 68, 48
13, 419, Note_on_c, 6, 68, 0
13, 420, Note_on_c, 6, 65, 48
13, 539, Note_on_c, 6, 65, 0
13, 540, Note_on_c, 6, 62, 48
13, 659, Note_on_c, 6, 62, 0
13, 660, Note_on_c, 6, 56, 48
13, 719, Note_on_c, 6, 56, 0
13, 720, Note_on_c, 6, 55, 48
13, 779, Note_on_c, 6, 55, 0
13, 780, Note_on_c, 6, 63, 48
13, 899, Note_on_c, 6, 63, 0
13, 900, Note_on_c, 6, 67, 48
13, 1019, Note_on_c, 6, 67, 0
13, 1020, Note_on_c, 6, 70, 48
13, 1079, Note_on_c, 6, 70, 0
13, 1080, Note_on_c, 6, 68, 48
13, 1139, Note_on_c, 6, 68, 0
13, 1140, Note_on_c, 6, 65, 48
13, 1259, Note_on_c, 6, 65, 0
13, 1260, Note_on_c, 6, 62, 48
13, 1379, Note_on_c, 6, 62, 0
13, 1380, Note_on_c, 6, 56, 48
13, 1439, Note_on_c, 6, 56, 0
13, 1440, Note_on_c, 6, 55, 48
13, 1499, Note_on_c, 6, 55, 0
13, 1500, Note_on_c, 6, 63, 48
13, 1619, Note_on_c, 6, 63, 0
13, 1620, Note_on_c, 6, 60, 48
13, 1679, Note_on_c, 6, 60, 0
13, 1680, Note_on_c, 6, 65, 48
13, 1739, Note_on_c, 6, 65, 0
13, 1740, Note_on_c, 6, 57, 48
13, 1799, Note_on_c, 6, 57, 0
13, 1800, Note_on_c, 6, 60, 48
13, 1859, Note_on_c, 6, 60, 0
13, 1860, Note_on_c, 6, 60, 48
13, 1979, Note_on_c, 6, 60, 0
13, 1980, Note_on_c, 6, 57, 48
13, 2039, Note_on_c, 6, 57, 0
13, 2040, Note_on_c, 6, 58, 48
13, 2099, Note_on_c, 6, 58, 0
13, 2100, Note_on_c, 6, 62, 48
13, 2159, Note_on_c, 6, 62, 0
13, 2160, Note_on_c, 6, 63, 48
13, 2219, Note_on_c, 6, 63, 0
13, 2220, Note_on_c, 6, 63, 48
13, 2339, Note_on_c, 6, 63, 0
13, 2340, Note_on_c, 6, 63, 48
13, 2399, Note_on_c, 6, 63, 0
13, 2400, Note_on_c, 6, 65, 48
13, 2459, Note_on_c, 6, 65, 0
13, 2460, Note_on_c, 6, 65, 48
13, 2519, Note_on_c, 6, 65, 0
13, 2520, Note_on_c, 6, 62, 48
13, 2579, Note_on_c, 6, 62, 0
13, 2580, Note_on_c, 6, 62, 48
13, 2699, Note_on_c, 6, 62, 0
13, 2700, Note_on_c, 6, 62, 48
13, 2759, Note_on_c, 6, 62, 0
13, 2760, Note_on_c, 6, 63, 48
13, 2819, Note_on_c, 6, 63, 0
13, 2820, Note_on_c, 6, 63, 48
13, 2879, Note_on_c, 6, 63, 0
13, 2880, Note_on_c, 6, 63, 48
13, 2999, Note_on_c, 6, 63, 0
13, 3000, Note_on_c, 6, 62, 48
13, 3059, Note_on_c, 6, 62, 0
13, 3060, Note_on_c, 6, 60, 48
13, 3119, Note_on_c, 6, 60, 0
13, 3120, Note_on_c, 6, 58, 48
13, 3179, Note_on_c, 6, 58, 0
13, 3180, Note_on_c, 6, 58, 48
13, 3239, Note_on_c, 6, 58, 0
13, 3240, Note_on_c, 6, 58, 48
13, 3299, Note_on_c, 6, 58, 0
13, 3300, Note_on_c, 6, 65, 48
13, 3419, Note_on_c, 6, 65, 0
13, 3420, Note_on_c, 6, 58, 48
13, 3539, Note_on_c, 6, 58, 0
13, 3540, Note_on_c, 6, 67, 48
13, 3659, Note_on_c, 6, 67, 0
13, 3660, Note_on_c, 6, 58, 48
13, 3779, Note_on_c, 6, 58, 0
13, 3780, Note_on_c, 6, 55, 48
13, 3899, Note_on_c, 6, 55, 0
13, 3900, Note_on_c, 6, 63, 48
13, 3959, Note_on_c, 6, 63, 0
13, 3960, Note_on_c, 6, 60, 48
13, 4019, Note_on_c, 6, 60, 0
13, 4020, Note_on_c, 6, 57, 48
13, 4139, Note_on_c, 6, 57, 0
13, 4140, Note_on_c, 6, 60, 48
13, 4259, Note_on_c, 6, 60, 0
13, 4260, Note_on_c, 6, 69, 48
13, 4379, Note_on_c, 6, 69, 0
13, 4380, Note_on_c, 6, 57, 48
13, 4499, Note_on_c, 6, 57, 0
13, 4500, Note_on_c, 6, 60, 48
13, 4619, Note_on_c, 6, 60, 0
13, 4620, Note_on_c, 6, 57, 48
13, 4679, Note_on_c, 6, 57, 0
13, 4680, Note_on_c, 6, 62, 48
13, 4739, Note_on_c, 6, 62, 0
13, 4740, Note_on_c, 6, 62, 48
13, 4859, Note_on_c, 6, 62, 0
13, 4860, Note_on_c, 6, 55, 48
13, 4919, Note_on_c, 6, 55, 0
13, 4920, Note_on_c, 6, 60, 48
13, 4979, Note_on_c, 6, 60, 0
13, 4980, Note_on_c, 6, 63, 48
13, 5099, Note_on_c, 6, 63, 0
13, 5100, Note_on_c, 6, 60, 48
13, 5219, Note_on_c, 6, 60, 0
13, 5220, Note_on_c, 6, 67, 48
13, 5339, Note_on_c, 6, 67, 0
13, 5340, Note_on_c, 6, 55, 48
13, 5399, Note_on_c, 6, 55, 0
13, 5400, Note_on_c, 6, 60, 48
13, 5459, Note_on_c, 6, 60, 0
13, 5460, Note_on_c, 6, 60, 48
13, 5579, Note_on_c, 6, 60, 0
13, 5580, Note_on_c, 6, 60, 48
13, 5699, Note_on_c, 6, 60, 0
13, 5700, Note_on_c, 6, 60, 48
13, 5819, Note_on_c, 6, 60, 0
13, 5820, Note_on_c, 6, 60, 48
13, 5939, Note_on_c, 6, 60, 0
13, 5940, Note_on_c, 6, 60, 48
13, 6059, Note_on_c, 6, 60, 0
13, 6060, Note_on_c, 6, 60, 48
13, 6119, Note_on_c, 6, 60, 0
13, 6120, Note_on_c, 6, 62, 48
13, 6179, Note_on_c, 6, 62, 0
13, 6180, Note_on_c, 6, 55, 48
13, 6299, Note_on_c, 6, 55, 0
13, 6300, Note_on_c, 6, 63, 48
13, 6419, Note_on_c, 6, 63, 0
13, 6420, Note_on_c, 6, 56, 48
13, 6479, Note_on_c, 6, 56, 0
13, 6480, Note_on_c, 6, 57, 48
13, 6539, Note_on_c, 6, 57, 0
13, 6540, Note_on_c, 6, 57, 48
13, 6659, Note_on_c, 6, 57, 0
13, 6660, Note_on_c, 6, 53, 48
13, 6719, Note_on_c, 6, 53, 0
13, 6720, Note_on_c, 6, 62, 48
13, 6779, Note_on_c, 6, 62, 0
13, 6780, Note_on_c, 6, 58, 48
13, 6839, Note_on_c, 6, 58, 0
13, 6840, Note_on_c, 6, 58, 48
13, 6899, Note_on_c, 6, 58, 0
13, 6900, Note_on_c, 6, 58, 48
13, 7019, Note_on_c, 6, 58, 0
13, 7020, Note_on_c, 6, 65, 48
13, 7139, Note_on_c, 6, 65, 0
13, 7140, Note_on_c, 6, 57, 48
13, 7199, Note_on_c, 6, 57, 0
13, 7200, Note_on_c, 6, 58, 48
13, 7259, Note_on_c, 6, 58, 0
13, 7260, Note_on_c, 6, 53, 48
13, 7379, Note_on_c, 6, 53, 0
13, 7380, Note_on_c, 6, 58, 48
13, 7499, Note_on_c, 6, 58, 0
13, 7500, Note_on_c, 6, 62, 48
13, 7559, Note_on_c, 6, 62, 0
13, 7560, Note_on_c, 6, 63, 48
13, 7619, Note_on_c, 6, 63, 0
13, 7620, Note_on_c, 6, 60, 48
13, 7739, Note_on_c, 6, 60, 0
13, 7740, Note_on_c, 6, 57, 48
13, 7859, Note_on_c, 6, 57, 0
13, 7860, Note_on_c, 6, 53, 48
13, 7919, Note_on_c, 6, 53, 0
13, 7920, Note_on_c, 6, 53, 72
13, 7979, Note_on_c, 6, 53, 0
13, 7980, Note_on_c, 6, 58, 72
13, 8099, Note_on_c, 6, 58, 0
13, 8100, Note_on_c, 6, 61, 72
13, 8219, Note_on_c, 6, 61, 0
13, 8220, Note_on_c, 6, 58, 72
13, 8279, Note_on_c, 6, 58, 0
13, 8280, Note_on_c, 6, 57, 72
13, 8339, Note_on_c, 6, 57, 0
13, 8340, Note_on_c, 6, 60, 72
13, 8459, Note_on_c, 6, 60, 0
13, 8460, Note_on_c, 6, 57, 72
13, 8579, Note_on_c, 6, 57, 0
13, 8580, Note_on_c, 6, 53, 48
13, 8699, Note_on_c, 6, 53, 0
13, 8700, Note_on_c, 6, 63, 48
13, 8819, Note_on_c, 6, 63, 0
13, 8820, Note_on_c, 6, 53, 48
13, 8939, Note_on_c, 6, 53, 0
13, 8940, Note_on_c, 6, 61, 48
13, 8999, Note_on_c, 6, 61, 0
13, 9000, Note_on_c, 6, 60, 48
13, 9059, Note_on_c, 6, 60, 0
13, 9060, Note_on_c, 6, 65, 54
13, 9179, Note_on_c, 6, 65, 0
13, 9180, Note_on_c, 6, 65, 60
13, 9299, Note_on_c, 6, 65, 0
13, 9300, Note_on_c, 6, 65, 66
13, 9359, Note_on_c, 6, 65, 0
13, 9360, Note_on_c, 6, 68, 72
13, 9419, Note_on_c, 6, 68, 0
13, 9420, Note_on_c, 6, 73, 72
13, 9539, Note_on_c, 6, 73, 0
13, 9540, Note_on_c, 6, 65, 72
13, 9659, Note_on_c, 6, 65, 0
13, 9660, Note_on_c, 6, 68, 72
13, 9719, Note_on_c, 6, 68, 0
13, 9720, Note_on_c, 6, 56, 72
13, 9779, Note_on_c, 6, 56, 0
13, 9780, Note_on_c, 6, 56, 72
13, 9899, Note_on_c, 6, 56, 0
13, 9900, Note_on_c, 6, 56, 72
13, 10019, Note_on_c, 6, 56, 0
13, 10020, Note_on_c, 6, 63, 48
13, 10139, Note_on_c, 6, 63, 0
13, 10140, Note_on_c, 6, 63, 48
13, 10199, Note_on_c, 6, 63, 0
13, 10200, Note_on_c, 6, 61, 48
13, 10379, Note_on_c, 6, 61, 0
13, 10380, Note_on_c, 6, 61, 48
13, 10439, Note_on_c, 6, 61, 0
13, 10440, Note_on_c, 6, 56, 48
13, 10499, Note_on_c, 6, 56, 0
13, 10500, Note_on_c, 6, 60, 54
13, 10619, Note_on_c, 6, 60, 0
13, 10620, Note_on_c, 6, 63, 60
13, 10739, Note_on_c, 6, 63, 0
13, 10740, Note_on_c, 6, 68, 66
13, 10859, Note_on_c, 6, 68, 0
13, 10860, Note_on_c, 6, 65, 72
13, 10979, Note_on_c, 6, 65, 0
13, 10980, Note_on_c, 6, 60, 72
13, 11099, Note_on_c, 6, 60, 0
13, 11100, Note_on_c, 6, 72, 72
13, 11219, Note_on_c, 6, 72, 0
13, 11220, Note_on_c, 6, 60, 72
13, 11339, Note_on_c, 6, 60, 0
13, 11340, Note_on_c, 6, 60, 72
13, 11459, Note_on_c, 6, 60, 0
13, 11460, Note_on_c, 6, 60, 48
13, 11579, Note_on_c, 6, 60, 0
13, 11580, Note_on_c, 6, 53, 48
13, 11699, Note_on_c, 6, 53, 0
13, 11700, Note_on_c, 6, 56, 48
13, 11819, Note_on_c, 6, 56, 0
13, 11820, Note_on_c, 6, 60, 48
13, 11939, Note_on_c, 6, 60, 0
13, 11940, Note_on_c, 6, 64, 54
13, 12059, Note_on_c, 6, 64, 0
13, 12060, Note_on_c, 6, 55, 60
13, 12179, Note_on_c, 6, 55, 0
13, 12180, Note_on_c, 6, 60, 66
13, 12239, Note_on_c, 6, 60, 0
13, 12240, Note_on_c, 6, 64, 72
13, 12299, Note_on_c, 6, 64, 0
13, 12300, Note_on_c, 6, 61, 72
13, 12419, Note_on_c, 6, 61, 0
13, 12420, Note_on_c, 6, 70, 72
13, 12539, Note_on_c, 6, 70, 0
13, 12540, Note_on_c, 6, 67, 48
13, 12659, Note_on_c, 6, 67, 0
13, 12660, Note_on_c, 6, 64, 48
13, 12779, Note_on_c, 6, 64, 0
13, 12780, Note_on_c, 6, 67, 48
13, 12899, Note_on_c, 6, 67, 0
13, 12900, Note_on_c, 6, 64, 48
13, 13019, Note_on_c, 6, 64, 0
13, 13020, Note_on_c, 6, 65, 48
13, 13139, Note_on_c, 6, 65, 0
13, 13140, Note_on_c, 6, 65, 48
13, 13259, Note_on_c, 6, 65, 0
13, 13260, Note_on_c, 6, 65, 48
13, 13379, Note_on_c, 6, 65, 0
13, 13380, Note_on_c, 6, 62, 48
13, 13499, Note_on_c, 6, 62, 0
13, 13500, Note_on_c, 6, 65, 48
13, 13559, Note_on_c, 6, 65, 0
13, 13560, Note_on_c, 6, 64, 48
13, 13619, Note_on_c, 6, 64, 0
13, 13620, Note_on_c, 6, 61, 72
13, 13679, Note_on_c, 6, 61, 0
13, 13680, Note_on_c, 6, 62, 72
13, 13739, Note_on_c, 6, 62, 0
13, 13740, Note_on_c, 6, 57, 72
13, 13859, Note_on_c, 6, 57, 0
13, 13860, Note_on_c, 6, 65, 72
13, 13979, Note_on_c, 6, 65, 0
13, 13980, Note_on_c, 6, 62, 72
13, 14039, Note_on_c, 6, 62, 0
13, 14040, Note_on_c, 6, 60, 72
13, 14099, Note_on_c, 6, 60, 0
13, 14100, Note_on_c, 6, 57, 72
13, 14219, Note_on_c, 6, 57, 0
13, 14220, Note_on_c, 6, 63, 72
13, 14339, Note_on_c, 6, 63, 0
13, 14340, Note_on_c, 6, 60, 72
13, 14399, Note_on_c, 6, 60, 0
13, 14400, Note_on_c, 6, 59, 72
13, 14459, Note_on_c, 6, 59, 0
13, 14460, Note_on_c, 6, 63, 72
13, 14579, Note_on_c, 6, 63, 0
13, 14580, Note_on_c, 6, 57, 72
13, 14699, Note_on_c, 6, 57, 0
13, 14700, Note_on_c, 6, 57, 72
13, 14759, Note_on_c, 6, 57, 0
13, 14760, Note_on_c, 6, 58, 72
13, 14819, Note_on_c, 6, 58, 0
13, 14820, Note_on_c, 6, 62, 72
13, 14939, Note_on_c, 6, 62, 0
13, 14940, Note_on_c, 6, 65, 72
13, 14999, Note_on_c, 6, 65, 0
13, 15000, Note_on_c, 6, 58, 72
13, 15059, Note_on_c, 6, 58, 0
13, 15060, Note_on_c, 6, 63, 72
13, 15179, Note_on_c, 6, 63, 0
13, 15180, Note_on_c, 6, 63, 72
13, 15299, Note_on_c, 6, 63, 0
13, 15300, Note_on_c, 6, 63, 72
13, 15359, Note_on_c, 6, 63, 0
13, 15360, Note_on_c, 6, 65, 72
13, 15419, Note_on_c, 6, 65, 0
13, 15420, Note_on_c, 6, 65, 72
13, 15479, Note_on_c, 6, 65, 0
13, 15480, Note_on_c, 6, 63, 72
13, 15539, Note_on_c, 6, 63, 0
13, 15540, Note_on_c, 6, 58, 72
13, 15659, Note_on_c, 6, 58, 0
13, 15660, Note_on_c, 6, 63, 72
13, 15779, Note_on_c, 6, 63, 0
13, 15780, Note_on_c, 6, 67, 72
13, 15839, Note_on_c, 6, 67, 0
13, 15840, Note_on_c, 6, 68, 72
13, 15899, Note_on_c, 6, 68, 0
13, 15900, Note_on_c, 6, 65, 72
13, 16019, Note_on_c, 6, 65, 0
13, 16020, Note_on_c, 6, 62, 72
13, 16139, Note_on_c, 6, 62, 0
13, 16140, Note_on_c, 6, 56, 72
13, 16199, Note_on_c, 6, 56, 0
13, 16200, Note_on_c, 6, 55, 72
13, 16259, Note_on_c, 6, 55, 0
13, 16260, Note_on_c, 6, 63, 48
13, 16379, Note_on_c, 6, 63, 0
13, 16380, Note_on_c, 6, 58, 48
13, 16499, Note_on_c, 6, 58, 0
13, 16500, Note_on_c, 6, 55, 48
13, 16559, Note_on_c, 6, 55, 0
13, 16560, Note_on_c, 6, 53, 48
13, 16619, Note_on_c, 6, 53, 0
13, 16620, Note_on_c, 6, 56, 48
13, 16739, Note_on_c, 6, 56, 0
13, 16740, Note_on_c, 6, 62, 48
13, 16859, Note_on_c, 6, 62, 0
13, 16860, Note_on_c, 6, 65, 48
13, 16919, Note_on_c, 6, 65, 0
13, 16920, Note_on_c, 6, 63, 48
13, 16979, Note_on_c, 6, 63, 0
13, 16980, Note_on_c, 6, 60, 48
13, 17099, Note_on_c, 6, 60, 0
13, 17100, Note_on_c, 6, 63, 48
13, 17159, Note_on_c, 6, 63, 0
13, 17160, Note_on_c, 6, 62, 48
13, 17219, Note_on_c, 6, 62, 0
13, 17220, Note_on_c, 6, 62, 48
13, 17279, Note_on_c, 6, 62, 0
13, 17280, Note_on_c, 6, 60, 48
13, 17399, Note_on_c, 6, 60, 0
13, 17400, Note_on_c, 6, 56, 48
13, 17519, Note_on_c, 6, 56, 0
13, 17520, Note_on_c, 6, 55, 48
13, 17639, Note_on_c, 6, 55, 0
13, 17640, Note_on_c, 6, 54, 48
13, 17759, Note_on_c, 6, 54, 0
13, 17760, Note_on_c, 6, 69, 48
13, 17879, Note_on_c, 6, 69, 0
13, 17880, Note_on_c, 6, 69, 48
13, 17999, Note_on_c, 6, 69, 0
13, 18000, Note_on_c, 6, 67, 48
13, 18119, Note_on_c, 6, 67, 0
13, 18120, Note_on_c, 6, 55, 48
13, 18239, Note_on_c, 6, 55, 0
13, 18240, Note_on_c, 6, 62, 48
13, 18359, Note_on_c, 6, 62, 0
13, 18360, Note_on_c, 6, 61, 48
13, 18479, Note_on_c, 6, 61, 0
13, 18480, Note_on_c, 6, 52, 48
13, 18599, Note_on_c, 6, 52, 0
13, 18600, Note_on_c, 6, 61, 48
13, 18719, Note_on_c, 6, 61, 0
13, 18720, Note_on_c, 6, 62, 48
13, 18839, Note_on_c, 6, 62, 0
13, 19440, Note_on_c, 6, 58, 72
13, 19499, Note_on_c, 6, 58, 0
13, 19500, Note_on_c, 6, 58, 72
13, 19529, Note_on_c, 6, 58, 0
13, 19530, Note_on_c, 6, 57, 72
13, 19559, Note_on_c, 6, 57, 0
13, 19560, Note_on_c, 6, 58, 72
13, 19619, Note_on_c, 6, 58, 0
13, 19620, Note_on_c, 6, 62, 72
13, 19679, Note_on_c, 6, 62, 0
13, 19680, Note_on_c, 6, 60, 72
13, 19739, Note_on_c, 6, 60, 0
13, 19740, Note_on_c, 6, 60, 72
13, 19769, Note_on_c, 6, 60, 0
13, 19770, Note_on_c, 6, 58, 72
13, 19799, Note_on_c, 6, 58, 0
13, 19800, Note_on_c, 6, 60, 72
13, 19859, Note_on_c, 6, 60, 0
13, 19860, Note_on_c, 6, 63, 72
13, 19919, Note_on_c, 6, 63, 0
13, 19920, Note_on_c, 6, 62, 72
13, 19979, Note_on_c, 6, 62, 0
13, 19980, Note_on_c, 6, 54, 72
13, 20009, Note_on_c, 6, 54, 0
13, 20010, Note_on_c, 6, 52, 72
13, 20039, Note_on_c, 6, 52, 0
13, 20040, Note_on_c, 6, 54, 72
13, 20099, Note_on_c, 6, 54, 0
13, 20100, Note_on_c, 6, 57, 72
13, 20159, Note_on_c, 6, 57, 0
13, 20160, Note_on_c, 6, 55, 72
13, 20219, Note_on_c, 6, 55, 0
13, 20220, Note_on_c, 6, 58, 72
13, 20249, Note_on_c, 6, 58, 0
13, 20250, Note_on_c, 6, 57, 72
13, 20279, Note_on_c, 6, 57, 0
13, 20280, Note_on_c, 6, 58, 72
13, 20339, Note_on_c, 6, 58, 0
13, 20340, Note_on_c, 6, 62, 72
13, 20399, Note_on_c, 6, 62, 0
13, 20400, Note_on_c, 6, 55, 72
13, 20459, Note_on_c, 6, 55, 0
13, 20460, Note_on_c, 6, 67, 72
13, 20489, Note_on_c, 6, 67, 0
13, 20490, Note_on_c, 6, 65, 72
13, 20519, Note_on_c, 6, 65, 0
13, 20520, Note_on_c, 6, 67, 72
13, 20579, Note_on_c, 6, 67, 0
13, 20580, Note_on_c, 6, 70, 72
13, 20639, Note_on_c, 6, 70, 0
13, 20640, Note_on_c, 6, 61, 72
13, 20699, Note_on_c, 6, 61, 0
13, 20700, Note_on_c, 6, 61, 72
13, 20729, Note_on_c, 6, 61, 0
13, 20730, Note_on_c, 6, 59, 72
13, 20759, Note_on_c, 6, 59, 0
13, 20760, Note_on_c, 6, 61, 72
13, 20819, Note_on_c, 6, 61, 0
13, 20820, Note_on_c, 6, 64, 72
13, 20879, Note_on_c, 6, 64, 0
13, 20880, Note_on_c, 6, 62, 72
13, 20939, Note_on_c, 6, 62, 0
13, 20940, Note_on_c, 6, 66, 72
13, 20969, Note_on_c, 6, 66, 0
13, 20970, Note_on_c, 6, 64, 72
13, 20999, Note_on_c, 6, 64, 0
13, 21000, Note_on_c, 6, 66, 72
13, 21059, Note_on_c, 6, 66, 0
13, 21060, Note_on_c, 6, 69, 72
13, 21119, Note_on_c, 6, 69, 0
13, 21120, Note_on_c, 6, 62, 72
13, 21179, Note_on_c, 6, 62, 0
13, 21180, Note_on_c, 6, 59, 72
13, 21209, Note_on_c, 6, 59, 0
13, 21210, Note_on_c, 6, 57, 72
13, 21239, Note_on_c, 6, 57, 0
13, 21240, Note_on_c, 6, 59, 72
13, 21299, Note_on_c, 6, 59, 0
13, 21300, Note_on_c, 6, 62, 72
13, 21359, Note_on_c, 6, 62, 0
13, 21360, Note_on_c, 6, 55, 72
13, 21419, Note_on_c, 6, 55, 0
13, 21420, Note_on_c, 6, 63, 72
13, 21449, Note_on_c, 6, 63, 0
13, 21450, Note_on_c, 6, 62, 72
13, 21479, Note_on_c, 6, 62, 0
13, 21480, Note_on_c, 6, 63, 72
13, 21539, Note_on_c, 6, 63, 0
13, 21540, Note_on_c, 6, 67, 72
13, 21599, Note_on_c, 6, 67, 0
13, 21600, Note_on_c, 6, 67, 72
13, 21659, Note_on_c, 6, 67, 0
13, 21660, Note_on_c, 6, 60, 72
13, 21689, Note_on_c, 6, 60, 0
13, 21690, Note_on_c, 6, 58, 72
13, 21719, Note_on_c, 6, 58, 0
13, 21720, Note_on_c, 6, 60, 72
13, 21779, Note_on_c, 6, 60, 0
13, 21780, Note_on_c, 6, 63, 72
13, 21839, Note_on_c, 6, 63, 0
13, 21840, Note_on_c, 6, 54, 72
13, 21899, Note_on_c, 6, 54, 0
13, 21900, Note_on_c, 6, 66, 72
13, 21929, Note_on_c, 6, 66, 0
13, 21930, Note_on_c, 6, 64, 72
13, 21959, Note_on_c, 6, 64, 0
13, 21960, Note_on_c, 6, 66, 72
13, 22019, Note_on_c, 6, 66, 0
13, 22020, Note_on_c, 6, 69, 72
13, 22079, Note_on_c, 6, 69, 0
13, 22080, Note_on_c, 6, 62, 72
13, 22139, Note_on_c, 6, 62, 0
13, 22140, Note_on_c, 6, 55, 72
13, 22169, Note_on_c, 6, 55, 0
13, 22170, Note_on_c, 6, 53, 72
13, 22199, Note_on_c, 6, 53, 0
13, 22200, Note_on_c, 6, 55, 72
13, 22259, Note_on_c, 6, 55, 0
13, 22260, Note_on_c, 6, 58, 72
13, 22319, Note_on_c, 6, 58, 0
13, 22320, Note_on_c, 6, 52, 72
13, 22379, Note_on_c, 6, 52, 0
13, 22380, Note_on_c, 6, 64, 72
13, 22409, Note_on_c, 6, 64, 0
13, 22410, Note_on_c, 6, 62, 72
13, 22439, Note_on_c, 6, 62, 0
13, 22440, Note_on_c, 6, 64, 72
13, 22499, Note_on_c, 6, 64, 0
13, 22500, Note_on_c, 6, 67, 72
13, 22559, Note_on_c, 6, 67, 0
13, 22560, Note_on_c, 6, 57, 72
13, 22619, Note_on_c, 6, 57, 0
13, 22620, Note_on_c, 6, 57, 72
13, 22649, Note_on_c, 6, 57, 0
13, 22650, Note_on_c, 6, 56, 72
13, 22679, Note_on_c, 6, 56, 0
13, 22680, Note_on_c, 6, 57, 72
13, 22739, Note_on_c, 6, 57, 0
13, 22740, Note_on_c, 6, 61, 72
13, 22799, Note_on_c, 6, 61, 0
13, 22800, Note_on_c, 6, 50, 72
13, 22859, Note_on_c, 6, 50, 0
13, 22860, Note_on_c, 6, 62, 72
13, 22889, Note_on_c, 6, 62, 0
13, 22890, Note_on_c, 6, 61, 72
13, 22919, Note_on_c, 6, 61, 0
13, 22920, Note_on_c, 6, 62, 72
13, 22979, Note_on_c, 6, 62, 0
13, 22980, Note_on_c, 6, 66, 72
13, 23039, Note_on_c, 6, 66, 0
13, 23040, Note_on_c, 6, 67, 72
13, 23099, Note_on_c, 6, 67, 0
13, 23100, Note_on_c, 6, 59, 72
13, 23129, Note_on_c, 6, 59, 0
13, 23130, Note_on_c, 6, 57, 72
13, 23159, Note_on_c, 6, 57, 0
13, 23160, Note_on_c, 6, 59, 72
13, 23219, Note_on_c, 6, 59, 0
13, 23220, Note_on_c, 6, 62, 72
13, 23279, Note_on_c, 6, 62, 0
13, 23280, Note_on_c, 6, 55, 72
13, 23339, Note_on_c, 6, 55, 0
13, 23340, Note_on_c, 6, 64, 72
13, 23369, Note_on_c, 6, 64, 0
13, 23370, Note_on_c, 6, 62, 72
13, 23399, Note_on_c, 6, 62, 0
13, 23400, Note_on_c, 6, 64, 72
13, 23459, Note_on_c, 6, 64, 0
13, 23460, Note_on_c, 6, 67, 72
13, 23519, Note_on_c, 6, 67, 0
13, 23520, Note_on_c, 6, 60, 72
13, 23579, Note_on_c, 6, 60, 0
13, 23580, Note_on_c, 6, 57, 72
13, 23609, Note_on_c, 6, 57, 0
13, 23610, Note_on_c, 6, 55, 72
13, 23639, Note_on_c, 6, 55, 0
13, 23640, Note_on_c, 6, 57, 72
13, 23699, Note_on_c, 6, 57, 0
13, 23700, Note_on_c, 6, 60, 72
13, 23759, Note_on_c, 6, 60, 0
13, 23760, Note_on_c, 6, 53, 72
13, 23819, Note_on_c, 6, 53, 0
13, 23820, Note_on_c, 6, 62, 72
13, 23849, Note_on_c, 6, 62, 0
13, 23850, Note_on_c, 6, 60, 72
13, 23879, Note_on_c, 6, 60, 0
13, 23880, Note_on_c, 6, 62, 72
13, 23939, Note_on_c, 6, 62, 0
13, 23940, Note_on_c, 6, 65, 72
13, 23999, Note_on_c, 6, 65, 0
13, 24000, Note_on_c, 6, 55, 72
13, 24059, Note_on_c, 6, 55, 0
13, 24060, Note_on_c, 6, 63, 72
13, 24089, Note_on_c, 6, 63, 0
13, 24090, Note_on_c, 6, 62, 72
13, 24119, Note_on_c, 6, 62, 0
13, 24120, Note_on_c, 6, 63, 72
13, 24179, Note_on_c, 6, 63, 0
13, 24180, Note_on_c, 6, 67, 72
13, 24239, Note_on_c, 6, 67, 0
13, 24240, Note_on_c, 6, 60, 72
13, 24299, Note_on_c, 6, 60, 0
13, 24300, Note_on_c, 6, 57, 72
13, 24329, Note_on_c, 6, 57, 0
13, 24330, Note_on_c, 6, 55, 72
13, 24359, Note_on_c, 6, 55, 0
13, 24360, Note_on_c, 6, 57, 72
13, 24419, Note_on_c, 6, 57, 0
13, 24420, Note_on_c, 6, 60, 72
13, 24479, Note_on_c, 6, 60, 0
13, 24480, Note_on_c, 6, 53, 72
13, 24539, Note_on_c, 6, 53, 0
13, 24540, Note_on_c, 6, 65, 72
13, 24569, Note_on_c, 6, 65, 0
13, 24570, Note_on_c, 6, 63, 72
13, 24599, Note_on_c, 6, 63, 0
13, 24600, Note_on_c, 6, 65, 72
13, 24659, Note_on_c, 6, 65, 0
13, 24660, Note_on_c, 6, 56, 72
13, 24719, Note_on_c, 6, 56, 0
13, 24720, Note_on_c, 6, 55, 72
13, 24779, Note_on_c, 6, 55, 0
13, 24780, Note_on_c, 6, 59, 72
13, 24809, Note_on_c, 6, 59, 0
13, 24810, Note_on_c, 6, 57, 72
13, 24839, Note_on_c, 6, 57, 0
13, 24840, Note_on_c, 6, 59, 72
13, 24899, Note_on_c, 6, 59, 0
13, 24900, Note_on_c, 6, 62, 72
13, 24959, Note_on_c, 6, 62, 0
13, 24960, Note_on_c, 6, 60, 72
13, 25019, Note_on_c, 6, 60, 0
13, 25020, Note_on_c, 6, 67, 72
13, 25079, Note_on_c, 6, 67, 0
13, 25080, Note_on_c, 6, 63, 72
13, 25139, Note_on_c, 6, 63, 0
13, 25140, Note_on_c, 6, 60, 72
13, 25259, Note_on_c, 6, 60, 0
13, 25260, Note_on_c, 6, 59, 72
13, 25289, Note_on_c, 6, 59, 0
13, 25290, Note_on_c, 6, 57, 72
13, 25319, Note_on_c, 6, 57, 0
13, 25320, Note_on_c, 6, 59, 72
13, 25379, Note_on_c, 6, 59, 0
13, 25380, Note_on_c, 6, 62, 72
13, 25499, Note_on_c, 6, 62, 0
13, 25500, Note_on_c, 6, 59, 72
13, 25529, Note_on_c, 6, 59, 0
13, 25530, Note_on_c, 6, 57, 72
13, 25559, Note_on_c, 6, 57, 0
13, 25560, Note_on_c, 6, 59, 72
13, 25619, Note_on_c, 6, 59, 0
13, 25620, Note_on_c, 6, 62, 72
13, 25679, Note_on_c, 6, 62, 0
13, 25680, Note_on_c, 6, 58, 72
13, 25739, Note_on_c, 6, 58, 0
13, 25740, Note_on_c, 6, 67, 72
13, 25769, Note_on_c, 6, 67, 0
13, 25770, Note_on_c, 6, 65, 72
13, 25799, Note_on_c, 6, 65, 0
13, 25800, Note_on_c, 6, 64, 72
13, 25859, Note_on_c, 6, 64, 0
13, 25860, Note_on_c, 6, 67, 72
13, 25919, Note_on_c, 6, 67, 0
13, 25920, Note_on_c, 6, 57, 72
13, 25979, Note_on_c, 6, 57, 0
13, 25980, Note_on_c, 6, 61, 72
13, 26009, Note_on_c, 6, 61, 0
13, 26010, Note_on_c, 6, 59, 72
13, 26039, Note_on_c, 6, 59, 0
13, 26040, Note_on_c, 6, 61, 72
13, 26099, Note_on_c, 6, 61, 0
13, 26100, Note_on_c, 6, 64, 72
13, 26219, Note_on_c, 6, 64, 0
13, 26220, Note_on_c, 6, 62, 72
13, 26249, Note_on_c, 6, 62, 0
13, 26250, Note_on_c, 6, 64, 72
13, 26279, Note_on_c, 6, 64, 0
13, 26280, Note_on_c, 6, 66, 72
13, 26339, Note_on_c, 6, 66, 0
13, 26340, Note_on_c, 6, 69, 72
13, 26399, Note_on_c, 6, 69, 0
13, 26400, Note_on_c, 6, 58, 72
13, 26459, Note_on_c, 6, 58, 0
13, 26460, Note_on_c, 6, 67, 72
13, 26489, Note_on_c, 6, 67, 0
13, 26490, Note_on_c, 6, 65, 72
13, 26519, Note_on_c, 6, 65, 0
13, 26520, Note_on_c, 6, 63, 72
13, 26579, Note_on_c, 6, 63, 0
13, 26580, Note_on_c, 6, 60, 72
13, 26699, Note_on_c, 6, 60, 0
13, 26700, Note_on_c, 6, 65, 72
13, 26729, Note_on_c, 6, 65, 0
13, 26730, Note_on_c, 6, 63, 72
13, 26759, Note_on_c, 6, 63, 0
13, 26760, Note_on_c, 6, 62, 72
13, 26819, Note_on_c, 6, 62, 0
13, 26820, Note_on_c, 6, 65, 72
13, 26879, Note_on_c, 6, 65, 0
13, 26880, Note_on_c, 6, 67, 72
13, 26939, Note_on_c, 6, 67, 0
13, 26940, Note_on_c, 6, 63, 72
13, 26969, Note_on_c, 6, 63, 0
13, 26970, Note_on_c, 6, 62, 72
13, 26999, Note_on_c, 6, 62, 0
13, 27000, Note_on_c, 6, 63, 72
13, 27059, Note_on_c, 6, 63, 0
13, 27060, Note_on_c, 6, 66, 72
13, 27179, Note_on_c, 6, 66, 0
13, 27180, Note_on_c, 6, 62, 72
13, 27209, Note_on_c, 6, 62, 0
13, 27210, Note_on_c, 6, 60, 72
13, 27239, Note_on_c, 6, 60, 0
13, 27240, Note_on_c, 6, 62, 72
13, 27299, Note_on_c, 6, 62, 0
13, 27300, Note_on_c, 6, 58, 72
13, 27359, Note_on_c, 6, 58, 0
13, 27360, Note_on_c, 6, 55, 72
13, 27419, Note_on_c, 6, 55, 0
13, 27420, Note_on_c, 6, 67, 72
13, 27449, Note_on_c, 6, 67, 0
13, 27450, Note_on_c, 6, 66, 72
13, 27479, Note_on_c, 6, 66, 0
13, 27480, Note_on_c, 6, 67, 72
13, 27539, Note_on_c, 6, 67, 0
13, 27540, Note_on_c, 6, 58, 72
13, 27599, Note_on_c, 6, 58, 0
13, 27600, Note_on_c, 6, 50, 72
13, 27659, Note_on_c, 6, 50, 0
13, 27660, Note_on_c, 6, 62, 72
13, 27689, Note_on_c, 6, 62, 0
13, 27690, Note_on_c, 6, 61, 72
13, 27719, Note_on_c, 6, 61, 0
13, 27720, Note_on_c, 6, 62, 72
13, 27779, Note_on_c, 6, 62, 0
13, 27780, Note_on_c, 6, 66, 72
13, 27839, Note_on_c, 6, 66, 0
13, 27840, Note_on_c, 6, 50, 72
13, 27899, Note_on_c, 6, 50, 0
13, 27900, Note_on_c, 6, 58, 72
13, 27929, Note_on_c, 6, 58, 0
13, 27930, Note_on_c, 6, 57, 72
13, 27959, Note_on_c, 6, 57, 0
13, 27960, Note_on_c, 6, 58, 72
13, 28019, Note_on_c, 6, 58, 0
13, 28020, Note_on_c, 6, 67, 72
13, 28079, Note_on_c, 6, 67, 0
13, 28080, Note_on_c, 6, 50, 72
13, 28139, Note_on_c, 6, 50, 0
13, 28140, Note_on_c, 6, 60, 72
13, 28169, Note_on_c, 6, 60, 0
13, 28170, Note_on_c, 6, 58, 72
13, 28199, Note_on_c, 6, 58, 0
13, 28200, Note_on_c, 6, 60, 72
13, 28259, Note_on_c, 6, 60, 0
13, 28260, Note_on_c, 6, 63, 72
13, 28319, Note_on_c, 6, 63, 0
13, 28320, Note_on_c, 6, 50, 72
13, 28379, Note_on_c, 6, 50, 0
13, 28380, Note_on_c, 6, 57, 72
13, 28409, Note_on_c, 6, 57, 0
13, 28410, Note_on_c, 6, 55, 72
13, 28439, Note_on_c, 6, 55, 0
13, 28440, Note_on_c, 6, 57, 72
13, 28499, Note_on_c, 6, 57, 0
13, 28500, Note_on_c, 6, 66, 72
13, 28559, Note_on_c, 6, 66, 0
13, 28560, Note_on_c, 6, 50, 72
13, 28619, Note_on_c, 6, 50, 0
13, 28620, Note_on_c, 6, 58, 72
13, 28649, Note_on_c, 6, 58, 0
13, 28650, Note_on_c, 6, 57, 72
13, 28679, Note_on_c, 6, 57, 0
13, 28680, Note_on_c, 6, 58, 72
13, 28739, Note_on_c, 6, 58, 0
13, 28740, Note_on_c, 6, 62, 72
13, 28799, Note_on_c, 6, 62, 0
13, 28800, Note_on_c, 6, 50, 72
13, 28859, Note_on_c, 6, 50, 0
13, 28860, Note_on_c, 6, 55, 72
13, 28889, Note_on_c, 6, 55, 0
13, 28890, Note_on_c, 6, 54, 72
13, 28919, Note_on_c, 6, 54, 0
13, 28920, Note_on_c, 6, 55, 72
13, 28979, Note_on_c, 6, 55, 0
13, 28980, Note_on_c, 6, 64, 72
13, 29039, Note_on_c, 6, 64, 0
13, 29040, Note_on_c, 6, 50, 72
13, 29099, Note_on_c, 6, 50, 0
13, 29100, Note_on_c, 6, 57, 72
13, 29129, Note_on_c, 6, 57, 0
13, 29130, Note_on_c, 6, 55, 72
13, 29159, Note_on_c, 6, 55, 0
13, 29160, Note_on_c, 6, 57, 72
13, 29219, Note_on_c, 6, 57, 0
13, 29220, Note_on_c, 6, 60, 72
13, 29279, Note_on_c, 6, 60, 0
13, 29280, Note_on_c, 6, 50, 72
13, 29339, Note_on_c, 6, 50, 0
13, 29340, Note_on_c, 6, 55, 72
13, 29369, Note_on_c, 6, 55, 0
13, 29370, Note_on_c, 6, 54, 72
13, 29399, Note_on_c, 6, 54, 0
13, 29400, Note_on_c, 6, 55, 72
13, 29459, Note_on_c, 6, 55, 0
13, 29460, Note_on_c, 6, 58, 72
13, 29519, Note_on_c, 6, 58, 0
13, 29520, Note_on_c, 6, 52, 72
13, 29639, Note_on_c, 6, 52, 0
13, 29880, Note_on_c, 6, 58, 48
13, 29999, Note_on_c, 6, 58, 0
13, 30000, Note_on_c, 6, 57, 48
13, 30119, Note_on_c, 6, 57, 0
13, 30120, Note_on_c, 6, 55, 48
13, 30239, Note_on_c, 6, 55, 0
13, 30240, Note_on_c, 6, 57, 48
13, 30479, Note_on_c, 6, 57, 0
13, 30480, Note_on_c, 6, 55, 48
13, 30599, Note_on_c, 6, 55, 0
13, 30660, Note_on_c, 6, 62, 48
13, 30689, Note_on_c, 6, 62, 0
13, 30690, Note_on_c, 6, 58, 48
13, 30719, Note_on_c, 6, 58, 0
13, 30720, Note_on_c, 6, 55, 48
13, 30779, Note_on_c, 6, 55, 0
13, 30780, Note_on_c, 6, 67, 48
13, 30839, Note_on_c, 6, 67, 0
13, 30900, Note_on_c, 6, 67, 48
13, 30929, Note_on_c, 6, 67, 0
13, 30930, Note_on_c, 6, 63, 48
13, 30959, Note_on_c, 6, 63, 0
13, 30960, Note_on_c, 6, 57, 48
13, 31019, Note_on_c, 6, 57, 0
13, 31020, Note_on_c, 6, 69, 48
13, 31079, Note_on_c, 6, 69, 0
13, 31140, Note_on_c, 6, 60, 48
13, 31169, Note_on_c, 6, 60, 0
13, 31170, Note_on_c, 6, 57, 48
13, 31199, Note_on_c, 6, 57, 0
13, 31200, Note_on_c, 6, 53, 48
13, 31259, Note_on_c, 6, 53, 0
13, 31260, Note_on_c, 6, 70, 48
13, 31319, Note_on_c, 6, 70, 0
13, 31380, Note_on_c, 6, 62, 48
13, 31409, Note_on_c, 6, 62, 0
13, 31410, Note_on_c, 6, 58, 48
13, 31439, Note_on_c, 6, 58, 0
13, 31440, Note_on_c, 6, 55, 48
13, 31499, Note_on_c, 6, 55, 0
13, 31500, Note_on_c, 6, 58, 48
13, 31559, Note_on_c, 6, 58, 0
13, 31620, Note_on_c, 6, 67, 48
13, 31649, Note_on_c, 6, 67, 0
13, 31650, Note_on_c, 6, 63, 48
13, 31679, Note_on_c, 6, 63, 0
13, 31680, Note_on_c, 6, 60, 48
13, 31739, Note_on_c, 6, 60, 0
13, 31740, Note_on_c, 6, 72, 48
13, 31799, Note_on_c, 6, 72, 0
13, 31860, Note_on_c, 6, 63, 48
13, 31889, Note_on_c, 6, 63, 0
13, 31890, Note_on_c, 6, 60, 48
13, 31919, Note_on_c, 6, 60, 0
13, 31920, Note_on_c, 6, 57, 48
13, 31979, Note_on_c, 6, 57, 0
13, 31980, Note_on_c, 6, 62, 48
13, 32039, Note_on_c, 6, 62, 0
13, 32040, Note_on_c, 6, 62, 48
13, 32099, Note_on_c, 6, 62, 0
13, 32100, Note_on_c, 6, 63, 48
13, 32159, Note_on_c, 6, 63, 0
13, 32160, Note_on_c, 6, 62, 48
13, 32219, Note_on_c, 6, 62, 0
13, 32220, Note_on_c, 6, 62, 48
13, 32279, Note_on_c, 6, 62, 0
13, 32280, Note_on_c, 6, 60, 48
13, 32339, Note_on_c, 6, 60, 0
13, 32340, Note_on_c, 6, 60, 48
13, 32399, Note_on_c, 6, 60, 0
13, 32400, Note_on_c, 6, 58, 48
13, 32459, Note_on_c, 6, 58, 0
13, 32460, Note_on_c, 6, 58, 72
13, 32489, Note_on_c, 6, 58, 0
13, 32490, Note_on_c, 6, 57, 72
13, 32519, Note_on_c, 6, 57, 0
13, 32520, Note_on_c, 6, 58, 72
13, 32579, Note_on_c, 6, 58, 0
13, 32580, Note_on_c, 6, 62, 72
13, 32639, Note_on_c, 6, 62, 0
13, 32640, Note_on_c, 6, 55, 72
13, 32699, Note_on_c, 6, 55, 0
13, 32700, Note_on_c, 6, 58, 72
13, 32729, Note_on_c, 6, 58, 0
13, 32730, Note_on_c, 6, 57, 72
13, 32759, Note_on_c, 6, 57, 0
13, 32760, Note_on_c, 6, 58, 72
13, 32819, Note_on_c, 6, 58, 0
13, 32820, Note_on_c, 6, 67, 72
13, 32879, Note_on_c, 6, 67, 0
13, 32880, Note_on_c, 6, 57, 72
13, 32939, Note_on_c, 6, 57, 0
13, 32940, Note_on_c, 6, 62, 72
13, 32969, Note_on_c, 6, 62, 0
13, 32970, Note_on_c, 6, 61, 72
13, 32999, Note_on_c, 6, 61, 0
13, 33000, Note_on_c, 6, 62, 72
13, 33059, Note_on_c, 6, 62, 0
13, 33060, Note_on_c, 6, 66, 72
13, 33119, Note_on_c, 6, 66, 0
13, 33120, Note_on_c, 6, 69, 72
13, 33179, Note_on_c, 6, 69, 0
13, 33180, Note_on_c, 6, 62, 72
13, 33209, Note_on_c, 6, 62, 0
13, 33210, Note_on_c, 6, 61, 72
13, 33239, Note_on_c, 6, 61, 0
13, 33240, Note_on_c, 6, 62, 72
13, 33299, Note_on_c, 6, 62, 0
13, 33300, Note_on_c, 6, 65, 72
13, 33359, Note_on_c, 6, 65, 0
13, 33360, Note_on_c, 6, 67, 72
13, 33419, Note_on_c, 6, 67, 0
13, 33420, Note_on_c, 6, 60, 72
13, 33449, Note_on_c, 6, 60, 0
13, 33450, Note_on_c, 6, 59, 72
13, 33479, Note_on_c, 6, 59, 0
13, 33480, Note_on_c, 6, 60, 72
13, 33539, Note_on_c, 6, 60, 0
13, 33540, Note_on_c, 6, 60, 72
13, 33599, Note_on_c, 6, 60, 0
13, 33600, Note_on_c, 6, 51, 72
13, 33659, Note_on_c, 6, 51, 0
13, 33660, Note_on_c, 6, 63, 72
13, 33689, Note_on_c, 6, 63, 0
13, 33690, Note_on_c, 6, 62, 72
13, 33719, Note_on_c, 6, 62, 0
13, 33720, Note_on_c, 6, 63, 72
13, 33779, Note_on_c, 6, 63, 0
13, 33780, Note_on_c, 6, 60, 72
13, 33839, Note_on_c, 6, 60, 0
13, 33840, Note_on_c, 6, 62, 72
13, 33899, Note_on_c, 6, 62, 0
13, 33900, Note_on_c, 6, 62, 72
13, 33929, Note_on_c, 6, 62, 0
13, 33930, Note_on_c, 6, 66, 72
13, 33959, Note_on_c, 6, 66, 0
13, 33960, Note_on_c, 6, 67, 72
13, 34019, Note_on_c, 6, 67, 0
13, 34020, Note_on_c, 6, 63, 72
13, 34079, Note_on_c, 6, 63, 0
13, 34080, Note_on_c, 6, 62, 72
13, 34139, Note_on_c, 6, 62, 0
13, 34140, Note_on_c, 6, 62, 72
13, 34199, Note_on_c, 6, 62, 0
13, 34200, Note_on_c, 6, 62, 72
13, 34259, Note_on_c, 6, 62, 0
13, 34260, Note_on_c, 6, 62, 72
13, 34319, Note_on_c, 6, 62, 0
13, 34320, Note_on_c, 6, 62, 72
13, 34439, Note_on_c, 6, 62, 0
13, 34680, Note_on_c, 6, 59, 72
13, 34799, Note_on_c, 6, 59, 0
13, 34800, Note_on_c, 6, 60, 72
13, 34919, Note_on_c, 6, 60, 0
13, 34920, Note_on_c, 6, 59, 72
13, 35039, Note_on_c, 6, 59, 0
13, 35040, Note_on_c, 6, 60, 72
13, 35159, Note_on_c, 6, 60, 0
13, 35160, Note_on_c, 6, 62, 72
13, 35399, Note_on_c, 6, 62, 0
13, 35400, Note_on_c, 6, 60, 72
13, 35459, Note_on_c, 6, 60, 0
13, 35460, Note_on_c, 6, 59, 72
13, 35519, Note_on_c, 6, 59, 0
13, 35520, Note_on_c, 6, 60, 72
13, 35759, Note_on_c, 6, 60, 0
13, 35760, Note_on_c, 6, 59, 72
13, 36239, Note_on_c, 6, 59, 0
13, 36239, End_track
14, 0, Start_track
14, 0, Title_t, "Cello"
14, 0, MIDI_port, 0
14, 0, Program_c, 7, 48
14, 0, Control_c, 7, 7, 96
14, 0, Control_c, 7, 10, 96
14, 0, Control_c, 7, 11, 127
14, 0, Note_on_c, 7, 51, 48
14, 119, Note_on_c, 7, 51, 0
14, 120, Note_on_c, 7, 55, 48
14, 239, Note_on_c, 7, 55, 0
14, 240, Note_on_c, 7, 51, 48
14, 359, Note_on_c, 7, 51, 0
14, 360, Note_on_c, 7, 53, 48
14, 479, Note_on_c, 7, 53, 0
14, 480, Note_on_c, 7, 46, 48
14, 599, Note_on_c, 7, 46, 0
14, 600, Note_on_c, 7, 50, 48
14, 719, Note_on_c, 7, 50, 0
14, 720, Note_on_c, 7, 51, 48
14, 839, Note_on_c, 7, 51, 0
14, 840, Note_on_c, 7, 55, 48
14, 959, Note_on_c, 7, 55, 0
14, 960, Note_on_c, 7, 51, 48
14, 1079, Note_on_c, 7, 51, 0
14, 1080, Note_on_c, 7, 50, 48
14, 1199, Note_on_c, 7, 50, 0
14, 1200, Note_on_c, 7, 58, 48
14, 1319, Note_on_c, 7, 58, 0
14, 1320, Note_on_c, 7, 50, 48
14, 1439, Note_on_c, 7, 50, 0
14, 1440, Note_on_c, 7, 48, 48
14, 1559, Note_on_c, 7, 48, 0
14, 1560, Note_on_c, 7, 60, 48
14, 1679, Note_on_c, 7, 60, 0
14, 1680, Note_on_c, 7, 53, 48
14, 1799, Note_on_c, 7, 53, 0
14, 1800, Note_on_c, 7, 58, 48
14, 1919, Note_on_c, 7, 58, 0
14, 1920, Note_on_c, 7, 46, 48
14, 2039, Note_on_c, 7, 46, 0
14, 2040, Note_on_c, 7, 58, 48
14, 2159, Note_on_c, 7, 58, 0
14, 2160, Note_on_c, 7, 46, 48
14, 2279, Note_on_c, 7, 46, 0
14, 2280, Note_on_c, 7, 58, 48
14, 2399, Note_on_c, 7, 58, 0
14, 2400, Note_on_c, 7, 56, 48
14, 2519, Note_on_c, 7, 56, 0
14, 2520, Note_on_c, 7, 44, 48
14, 2639, Note_on_c, 7, 44, 0
14, 2640, Note_on_c, 7, 56, 48
14, 2759, Note_on_c, 7, 56, 0
14, 2760, Note_on_c, 7, 55, 48
14, 2879, Note_on_c, 7, 55, 0
14, 2880, Note_on_c, 7, 53, 48
14, 2999, Note_on_c, 7, 53, 0
14, 3000, Note_on_c, 7, 58, 48
14, 3119, Note_on_c, 7, 58, 0
14, 3120, Note_on_c, 7, 50, 48
14, 3239, Note_on_c, 7, 50, 0
14, 3240, Note_on_c, 7, 51, 48
14, 3359, Note_on_c, 7, 51, 0
14, 3360, Note_on_c, 7, 39, 48
14, 3479, Note_on_c, 7, 39, 0
14, 3480, Note_on_c, 7, 51, 48
14, 3599, Note_on_c, 7, 51, 0
14, 3600, Note_on_c, 7, 63, 48
14, 3719, Note_on_c, 7, 63, 0
14, 3720, Note_on_c, 7, 51, 48
14, 3839, Note_on_c, 7, 51, 0
14, 3840, Note_on_c, 7, 63, 48
14, 3959, Note_on_c, 7, 63, 0
14, 3960, Note_on_c, 7, 51, 48
14, 4079, Note_on_c, 7, 51, 0
14, 4080, Note_on_c, 7, 39, 48
14, 4199, Note_on_c, 7, 39, 0
14, 4200, Note_on_c, 7, 51, 48
14, 4319, Note_on_c, 7, 51, 0
14, 4320, Note_on_c, 7, 63, 48
14, 4439, Note_on_c, 7, 63, 0
14, 4440, Note_on_c, 7, 51, 48
14, 4559, Note_on_c, 7, 51, 0
14, 4560, Note_on_c, 7, 63, 48
14, 4679, Note_on_c, 7, 63, 0
14, 4680, Note_on_c, 7, 62, 48
14, 4799, Note_on_c, 7, 62, 0
14, 4800, Note_on_c, 7, 50, 48
14, 4919, Note_on_c, 7, 50, 0
14, 4920, Note_on_c, 7, 48, 48
14, 5039, Note_on_c, 7, 48, 0
14, 5040, Note_on_c, 7, 55, 48
14, 5159, Note_on_c, 7, 55, 0
14, 5160, Note_on_c, 7, 43, 48
14, 5279, Note_on_c, 7, 43, 0
14, 5280, Note_on_c, 7, 55, 48
14, 5399, Note_on_c, 7, 55, 0
14, 5400, Note_on_c, 7, 60, 48
14, 5519, Note_on_c, 7, 60, 0
14, 5520, Note_on_c, 7, 48, 48
14, 5639, Note_on_c, 7, 48, 0
14, 5640, Note_on_c, 7, 60, 48
14, 5759, Note_on_c, 7, 60, 0
14, 5760, Note_on_c, 7, 56, 48
14, 5879, Note_on_c, 7, 56, 0
14, 5880, Note_on_c, 7, 44, 48
14, 5999, Note_on_c, 7, 44, 0
14, 6000, Note_on_c, 7, 56, 48
14, 6119, Note_on_c, 7, 56, 0
14, 6120, Note_on_c, 7, 55, 48
14, 6239, Note_on_c, 7, 55, 0
14, 6240, Note_on_c, 7, 51, 48
14, 6359, Note_on_c, 7, 51, 0
14, 6360, Note_on_c, 7, 56, 48
14, 6479, Note_on_c, 7, 56, 0
14, 6480, Note_on_c, 7, 57, 48
14, 6599, Note_on_c, 7, 57, 0
14, 6600, Note_on_c, 7, 53, 48
14, 6719, Note_on_c, 7, 53, 0
14, 6720, Note_on_c, 7, 58, 48
14, 6839, Note_on_c, 7, 58, 0
14, 6840, Note_on_c, 7, 50, 48
14, 6899, Note_on_c, 7, 50, 0
14, 6900, Note_on_c, 7, 51, 48
14, 6959, Note_on_c, 7, 51, 0
14, 6960, Note_on_c, 7, 53, 48
14, 7079, Note_on_c, 7, 53, 0
14, 7080, Note_on_c, 7, 53, 48
14, 7199, Note_on_c, 7, 53, 0
14, 7200, Note_on_c, 7, 46, 48
14, 7319, Note_on_c, 7, 46, 0
14, 7320, Note_on_c, 7, 62, 48
14, 7439, Note_on_c, 7, 62, 0
14, 7440, Note_on_c, 7, 58, 48
14, 7559, Note_on_c, 7, 58, 0
14, 7560, Note_on_c, 7, 60, 48
14, 7679, Note_on_c, 7, 60, 0
14, 7680, Note_on_c, 7, 53, 48
14, 7799, Note_on_c, 7, 53, 0
14, 7800, Note_on_c, 7, 57, 48
14, 7919, Note_on_c, 7, 57, 0
14, 7920, Note_on_c, 7, 58, 48
14, 8039, Note_on_c, 7, 58, 0
14, 8040, Note_on_c, 7, 61, 48
14, 8159, Note_on_c, 7, 61, 0
14, 8160, Note_on_c, 7, 58, 48
14, 8279, Note_on_c, 7, 58, 0
14, 8280, Note_on_c, 7, 57, 48
14, 8399, Note_on_c, 7, 57, 0
14, 8400, Note_on_c, 7, 53, 48
14, 8519, Note_on_c, 7, 53, 0
14, 8520, Note_on_c, 7, 45, 48
14, 8639, Note_on_c, 7, 45, 0
14, 8640, Note_on_c, 7, 46, 48
14, 8759, Note_on_c, 7, 46, 0
14, 8760, Note_on_c, 7, 46, 48
14, 8879, Note_on_c, 7, 46, 0
14, 8880, Note_on_c, 7, 49, 48
14, 8999, Note_on_c, 7, 49, 0
14, 9000, Note_on_c, 7, 53, 48
14, 9119, Note_on_c, 7, 53, 0
14, 9120, Note_on_c, 7, 41, 56
14, 9239, Note_on_c, 7, 41, 0
14, 9240, Note_on_c, 7, 53, 64
14, 9359, Note_on_c, 7, 53, 0
14, 9360, Note_on_c, 7, 49, 72
14, 9479, Note_on_c, 7, 49, 0
14, 9480, Note_on_c, 7, 61, 72
14, 9599, Note_on_c, 7, 61, 0
14, 9600, Note_on_c, 7, 49, 72
14, 9719, Note_on_c, 7, 49, 0
14, 9720, Note_on_c, 7, 51, 72
14, 9839, Note_on_c, 7, 51, 0
14, 9840, Note_on_c, 7, 60, 72
14, 9959, Note_on_c, 7, 60, 0
14, 9960, Note_on_c, 7, 51, 48
14, 10079, Note_on_c, 7, 51, 0
14, 10080, Note_on_c, 7, 49, 48
14, 10199, Note_on_c, 7, 49, 0
14, 10200, Note_on_c, 7, 53, 48
14, 10319, Note_on_c, 7, 53, 0
14, 10320, Note_on_c, 7, 49, 48
14, 10439, Note_on_c, 7, 49, 0
14, 10440, Note_on_c, 7, 44, 48
14, 10559, Note_on_c, 7, 44, 0
14, 10560, Note_on_c, 7, 56, 56
14, 10679, Note_on_c, 7, 56, 0
14, 10680, Note_on_c, 7, 44, 64
14, 10799, Note_on_c, 7, 44, 0
14, 10800, Note_on_c, 7, 53, 72
14, 10919, Note_on_c, 7, 53, 0
14, 10920, Note_on_c, 7, 56, 72
14, 11039, Note_on_c, 7, 56, 0
14, 11040, Note_on_c, 7, 53, 72
14, 11159, Note_on_c, 7, 53, 0
14, 11160, Note_on_c, 7, 52, 72
14, 11279, Note_on_c, 7, 52, 0
14, 11280, Note_on_c, 7, 48, 72
14, 11399, Note_on_c, 7, 48, 0
14, 11400, Note_on_c, 7, 52, 48
14, 11519, Note_on_c, 7, 52, 0
14, 11520, Note_on_c, 7, 53, 48
14, 11639, Note_on_c, 7, 53, 0
14, 11640, Note_on_c, 7, 41, 48
14, 11759, Note_on_c, 7, 41, 0
14, 11760, Note_on_c, 7, 44, 48
14, 11879, Note_on_c, 7, 44, 0
14, 11880, Note_on_c, 7, 48, 48
14, 11999, Note_on_c, 7, 48, 0
14, 12000, Note_on_c, 7, 60, 48
14, 12119, Note_on_c, 7, 60, 0
14, 12120, Note_on_c, 7, 48, 72
14, 12239, Note_on_c, 7, 48, 0
14, 12240, Note_on_c, 7, 46, 72
14, 12359, Note_on_c, 7, 46, 0
14, 12360, Note_on_c, 7, 58, 72
14, 12479, Note_on_c, 7, 58, 0
14, 12480, Note_on_c, 7, 46, 72
14, 12599, Note_on_c, 7, 46, 0
14, 12600, Note_on_c, 7, 58, 48
14, 12719, Note_on_c, 7, 58, 0
14, 12720, Note_on_c, 7, 46, 48
14, 12839, Note_on_c, 7, 46, 0
14, 12840, Note_on_c, 7, 58, 48
14, 12959, Note_on_c, 7, 58, 0
14, 12960, Note_on_c, 7, 46, 48
14, 13079, Note_on_c, 7, 46, 0
14, 13080, Note_on_c, 7, 58, 48
14, 13199, Note_on_c, 7, 58, 0
14, 13200, Note_on_c, 7, 46, 48
14, 13319, Note_on_c, 7, 46, 0
14, 13320, Note_on_c, 7, 45, 48
14, 13439, Note_on_c, 7, 45, 0
14, 13440, Note_on_c, 7, 57, 48
14, 13559, Note_on_c, 7, 57, 0
14, 13560, Note_on_c, 7, 45, 48
14, 13679, Note_on_c, 7, 45, 0
14, 13680, Note_on_c, 7, 50, 72
14, 13799, Note_on_c, 7, 50, 0
14, 13800, Note_on_c, 7, 62, 72
14, 13919, Note_on_c, 7, 62, 0
14, 13920, Note_on_c, 7, 50, 72
14, 14039, Note_on_c, 7, 50, 0
14, 14040, Note_on_c, 7, 48, 72
14, 14159, Note_on_c, 7, 48, 0
14, 14160, Note_on_c, 7, 60, 72
14, 14279, Note_on_c, 7, 60, 0
14, 14280, Note_on_c, 7, 48, 72
14, 14399, Note_on_c, 7, 48, 0
14, 14400, Note_on_c, 7, 47, 72
14, 14519, Note_on_c, 7, 47, 0
14, 14520, Note_on_c, 7, 59, 72
14, 14639, Note_on_c, 7, 59, 0
14, 14640, Note_on_c, 7, 47, 72
14, 14759, Note_on_c, 7, 47, 0
14, 14760, Note_on_c, 7, 46, 72
14, 14879, Note_on_c, 7, 46, 0
14, 14880, Note_on_c, 7, 58, 72
14, 14999, Note_on_c, 7, 58, 0
14, 15000, Note_on_c, 7, 46, 72
14, 15059, Note_on_c, 7, 46, 0
14, 15060, Note_on_c, 7, 58, 72
14, 15119, Note_on_c, 7, 58, 0
14, 15120, Note_on_c, 7, 55, 72
14, 15179, Note_on_c, 7, 55, 0
14, 15180, Note_on_c, 7, 51, 72
14, 15239, Note_on_c, 7, 51, 0
14, 15240, Note_on_c, 7, 58, 72
14, 15359, Note_on_c, 7, 58, 0
14, 15360, Note_on_c, 7, 46, 72
14, 15479, Note_on_c, 7, 46, 0
14, 15480, Note_on_c, 7, 51, 72
14, 15599, Note_on_c, 7, 51, 0
14, 15600, Note_on_c, 7, 55, 72
14, 15719, Note_on_c, 7, 55, 0
14, 15720, Note_on_c, 7, 51, 72
14, 15839, Note_on_c, 7, 51, 0
14, 15840, Note_on_c, 7, 53, 72
14, 15959, Note_on_c, 7, 53, 0
14, 15960, Note_on_c, 7, 46, 72
14, 16079, Note_on_c, 7, 46, 0
14, 16080, Note_on_c, 7, 50, 72
14, 16199, Note_on_c, 7, 50, 0
14, 16200, Note_on_c, 7, 51, 48
14, 16319, Note_on_c, 7, 51, 0
14, 16320, Note_on_c, 7, 55, 48
14, 16439, Note_on_c, 7, 55, 0
14, 16440, Note_on_c, 7, 51, 48
14, 16559, Note_on_c, 7, 51, 0
14, 16560, Note_on_c, 7, 50, 48
14, 16679, Note_on_c, 7, 50, 0
14, 16680, Note_on_c, 7, 53, 48
14, 16799, Note_on_c, 7, 53, 0
14, 16800, Note_on_c, 7, 50, 48
14, 16919, Note_on_c, 7, 50, 0
14, 16920, Note_on_c, 7, 51, 48
14, 17039, Note_on_c, 7, 51, 0
14, 17040, Note_on_c, 7, 48, 48
14, 17159, Note_on_c, 7, 48, 0
14, 17160, Note_on_c, 7, 47, 48
14, 17279, Note_on_c, 7, 47, 0
14, 17280, Note_on_c, 7, 48, 48
14, 17399, Note_on_c, 7, 48, 0
14, 17400, Note_on_c, 7, 56, 48
14, 17519, Note_on_c, 7, 56, 0
14, 17520, Note_on_c, 7, 55, 48
14, 17639, Note_on_c, 7, 55, 0
14, 17640, Note_on_c, 7, 54, 48
14, 17759, Note_on_c, 7, 54, 0
14, 17760, Note_on_c, 7, 42, 48
14, 17879, Note_on_c, 7, 42, 0
14, 17880, Note_on_c, 7, 54, 48
14, 17999, Note_on_c, 7, 54, 0
14, 18000, Note_on_c, 7, 55, 48
14, 18119, Note_on_c, 7, 55, 0
14, 18120, Note_on_c, 7, 51, 48
14, 18239, Note_on_c, 7, 51, 0
14, 18240, Note_on_c, 7, 50, 48
14, 18359, Note_on_c, 7, 50, 0
14, 18360, Note_on_c, 7, 49, 48
14, 18479, Note_on_c, 7, 49, 0
14, 18480, Note_on_c, 7, 55, 48
14, 18599, Note_on_c, 7, 55, 0
14, 18600, Note_on_c, 7, 49, 48
14, 18719, Note_on_c, 7, 49, 0
14, 18720, Note_on_c, 7, 50, 48
14, 18839, Note_on_c, 7, 50, 0
14, 22140, Note_on_c, 7, 55, 72
14, 22169, Note_on_c, 7, 55, 0
14, 22170, Note_on_c, 7, 54, 72
14, 22199, Note_on_c, 7, 54, 0
14, 22200, Note_on_c, 7, 55, 72
14, 22259, Note_on_c, 7, 55, 0
14, 22260, Note_on_c, 7, 58, 72
14, 22319, Note_on_c, 7, 58, 0
14, 22320, Note_on_c, 7, 52, 72
14, 22379, Note_on_c, 7, 52, 0
14, 22380, Note_on_c, 7, 64, 72
14, 22409, Note_on_c, 7, 64, 0
14, 22410, Note_on_c, 7, 62, 72
14, 22439, Note_on_c, 7, 62, 0
14, 22440, Note_on_c, 7, 64, 72
14, 22499, Note_on_c, 7, 64, 0
14, 22500, Note_on_c, 7, 67, 72
14, 22559, Note_on_c, 7, 67, 0
14, 22560, Note_on_c, 7, 45, 72
14, 22619, Note_on_c, 7, 45, 0
14, 22620, Note_on_c, 7, 57, 72
14, 22649, Note_on_c, 7, 57, 0
14, 22650, Note_on_c, 7, 56, 72
14, 22679, Note_on_c, 7, 56, 0
14, 22680, Note_on_c, 7, 57, 72
14, 22739, Note_on_c, 7, 57, 0
14, 22740, Note_on_c, 7, 61, 72
14, 22799, Note_on_c, 7, 61, 0
14, 22800, Note_on_c, 7, 50, 72
14, 22859, Note_on_c, 7, 50, 0
14, 22860, Note_on_c, 7, 62, 72
14, 22889, Note_on_c, 7, 62, 0
14, 22890, Note_on_c, 7, 61, 72
14, 22919, Note_on_c, 7, 61, 0
14, 22920, Note_on_c, 7, 62, 72
14, 22979, Note_on_c, 7, 62, 0
14, 22980, Note_on_c, 7, 66, 72
14, 23039, Note_on_c, 7, 66, 0
14, 23040, Note_on_c, 7, 43, 72
14, 23099, Note_on_c, 7, 43, 0
14, 23100, Note_on_c, 7, 55, 72
14, 23129, Note_on_c, 7, 55, 0
14, 23130, Note_on_c, 7, 54, 72
14, 23159, Note_on_c, 7, 54, 0
14, 23160, Note_on_c, 7, 55, 72
14, 23219, Note_on_c, 7, 55, 0
14, 23220, Note_on_c, 7, 59, 72
14, 23279, Note_on_c, 7, 59, 0
14, 23280, Note_on_c, 7, 48, 72
14, 23339, Note_on_c, 7, 48, 0
14, 23340, Note_on_c, 7, 60, 72
14, 23369, Note_on_c, 7, 60, 0
14, 23370, Note_on_c, 7, 59, 72
14, 23399, Note_on_c, 7, 59, 0
14, 23400, Note_on_c, 7, 60, 72
14, 23459, Note_on_c, 7, 60, 0
14, 23460, Note_on_c, 7, 64, 72
14, 23519, Note_on_c, 7, 64, 0
14, 23520, Note_on_c, 7, 41, 72
14, 23579, Note_on_c, 7, 41, 0
14, 23580, Note_on_c, 7, 53, 72
14, 23609, Note_on_c, 7, 53, 0
14, 23610, Note_on_c, 7, 52, 72
14, 23639, Note_on_c, 7, 52, 0
14, 23640, Note_on_c, 7, 53, 72
14, 23699, Note_on_c, 7, 53, 0
14, 23700, Note_on_c, 7, 57, 72
14, 23759, Note_on_c, 7, 57, 0
14, 27600, Note_on_c, 7, 50, 72
14, 27659, Note_on_c, 7, 50, 0
14, 27660, Note_on_c, 7, 62, 72
14, 27689, Note_on_c, 7, 62, 0
14, 27690, Note_on_c, 7, 61, 72
14, 27719, Note_on_c, 7, 61, 0
14, 27720, Note_on_c, 7, 62, 72
14, 27779, Note_on_c, 7, 62, 0
14, 27780, Note_on_c, 7, 66, 72
14, 27839, Note_on_c, 7, 66, 0
14, 27840, Note_on_c, 7, 50, 72
14, 27899, Note_on_c, 7, 50, 0
14, 27900, Note_on_c, 7, 58, 72
14, 27929, Note_on_c, 7, 58, 0
14, 27930, Note_on_c, 7, 57, 72
14, 27959, Note_on_c, 7, 57, 0
14, 27960, Note_on_c, 7, 58, 72
14, 28019, Note_on_c, 7, 58, 0
14, 28020, Note_on_c, 7, 67, 72
14, 28079, Note_on_c, 7, 67, 0
14, 28080, Note_on_c, 7, 50, 72
14, 28139, Note_on_c, 7, 50, 0
14, 28140, Note_on_c, 7, 60, 72
14, 28169, Note_on_c, 7, 60, 0
14, 28170, Note_on_c, 7, 58, 72
14, 28199, Note_on_c, 7, 58, 0
14, 28200, Note_on_c, 7, 60, 72
14, 28259, Note_on_c, 7, 60, 0
14, 28260, Note_on_c, 7, 63, 72
14, 28319, Note_on_c, 7, 63, 0
14, 28320, Note_on_c, 7, 50, 72
14, 28379, Note_on_c, 7, 50, 0
14, 28380, Note_on_c, 7, 57, 72
14, 28409, Note_on_c, 7, 57, 0
14, 28410, Note_on_c, 7, 55, 72
14, 28439, Note_on_c, 7, 55, 0
14, 28440, Note_on_c, 7, 57, 72
14, 28499, Note_on_c, 7, 57, 0
14, 28500, Note_on_c, 7, 66, 72
14, 28559, Note_on_c, 7, 66, 0
14, 28560, Note_on_c, 7, 50, 72
14, 28619, Note_on_c, 7, 50, 0
14, 28620, Note_on_c, 7, 58, 72
14, 28649, Note_on_c, 7, 58, 0
14, 28650, Note_on_c, 7, 57, 72
14, 28679, Note_on_c, 7, 57, 0
14, 28680, Note_on_c, 7, 58, 72
14, 28739, Note_on_c, 7, 58, 0
14, 28740, Note_on_c, 7, 62, 72
14, 28799, Note_on_c, 7, 62, 0
14, 28800, Note_on_c, 7, 50, 72
14, 28859, Note_on_c, 7, 50, 0
14, 28860, Note_on_c, 7, 55, 72
14, 28889, Note_on_c, 7, 55, 0
14, 28890, Note_on_c, 7, 54, 72
14, 28919, Note_on_c, 7, 54, 0
14, 28920, Note_on_c, 7, 55, 72
14, 28979, Note_on_c, 7, 55, 0
14, 28980, Note_on_c, 7, 64, 72
14, 29039, Note_on_c, 7, 64, 0
14, 29040, Note_on_c, 7, 50, 72
14, 29099, Note_on_c, 7, 50, 0
14, 29100, Note_on_c, 7, 57, 72
14, 29129, Note_on_c, 7, 57, 0
14, 29130, Note_on_c, 7, 55, 72
14, 29159, Note_on_c, 7, 55, 0
14, 29160, Note_on_c, 7, 57, 72
14, 29219, Note_on_c, 7, 57, 0
14, 29220, Note_on_c, 7, 60, 72
14, 29279, Note_on_c, 7, 60, 0
14, 29280, Note_on_c, 7, 50, 72
14, 29339, Note_on_c, 7, 50, 0
14, 29340, Note_on_c, 7, 55, 72
14, 29369, Note_on_c, 7, 55, 0
14, 29370, Note_on_c, 7, 54, 72
14, 29399, Note_on_c, 7, 54, 0
14, 29400, Note_on_c, 7, 55, 72
14, 29459, Note_on_c, 7, 55, 0
14, 29460, Note_on_c, 7, 58, 72
14, 29519, Note_on_c, 7, 58, 0
14, 29520, Note_on_c, 7, 49, 72
14, 29639, Note_on_c, 7, 49, 0
14, 29880, Note_on_c, 7, 48, 48
14, 29939, Note_on_c, 7, 48, 0
14, 29940, Note_on_c, 7, 48, 48
14, 29999, Note_on_c, 7, 48, 0
14, 30000, Note_on_c, 7, 50, 48
14, 30059, Note_on_c, 7, 50, 0
14, 30060, Note_on_c, 7, 50, 48
14, 30119, Note_on_c, 7, 50, 0
14, 30120, Note_on_c, 7, 51, 48
14, 30179, Note_on_c, 7, 51, 0
14, 30180, Note_on_c, 7, 51, 48
14, 30239, Note_on_c, 7, 51, 0
14, 30240, Note_on_c, 7, 50, 48
14, 30299, Note_on_c, 7, 50, 0
14, 30300, Note_on_c, 7, 50, 48
14, 30359, Note_on_c, 7, 50, 0
14, 30360, Note_on_c, 7, 50, 48
14, 30419, Note_on_c, 7, 50, 0
14, 30420, Note_on_c, 7, 50, 48
14, 30479, Note_on_c, 7, 50, 0
14, 30480, Note_on_c, 7, 43, 48
14, 30599, Note_on_c, 7, 43, 0
14, 30660, Note_on_c, 7, 58, 48
14, 30689, Note_on_c, 7, 58, 0
14, 30690, Note_on_c, 7, 55, 48
14, 30719, Note_on_c, 7, 55, 0
14, 30720, Note_on_c, 7, 51, 48
14, 30779, Note_on_c, 7, 51, 0
14, 30780, Note_on_c, 7, 63, 48
14, 30839, Note_on_c, 7, 63, 0
14, 30900, Note_on_c, 7, 51, 48
14, 30929, Note_on_c, 7, 51, 0
14, 30930, Note_on_c, 7, 48, 48
14, 30959, Note_on_c, 7, 48, 0
14, 30960, Note_on_c, 7, 41, 48
14, 31019, Note_on_c, 7, 41, 0
14, 31020, Note_on_c, 7, 53, 48
14, 31079, Note_on_c, 7, 53, 0
14, 31140, Note_on_c, 7, 57, 48
14, 31169, Note_on_c, 7, 57, 0
14, 31170, Note_on_c, 7, 53, 48
14, 31199, Note_on_c, 7, 53, 0
14, 31200, Note_on_c, 7, 50, 48
14, 31259, Note_on_c, 7, 50, 0
14, 31260, Note_on_c, 7, 62, 48
14, 31319, Note_on_c, 7, 62, 0
14, 31380, Note_on_c, 7, 46, 48
14, 31409, Note_on_c, 7, 46, 0
14, 31410, Note_on_c, 7, 43, 48
14, 31439, Note_on_c, 7, 43, 0
14, 31440, Note_on_c, 7, 39, 48
14, 31499, Note_on_c, 7, 39, 0
14, 31500, Note_on_c, 7, 51, 48
14, 31559, Note_on_c, 7, 51, 0
14, 31620, Note_on_c, 7, 51, 48
14, 31649, Note_on_c, 7, 51, 0
14, 31650, Note_on_c, 7, 48, 48
14, 31679, Note_on_c, 7, 48, 0
14, 31680, Note_on_c, 7, 45, 48
14, 31739, Note_on_c, 7, 45, 0
14, 31740, Note_on_c, 7, 57, 48
14, 31799, Note_on_c, 7, 57, 0
14, 31860, Note_on_c, 7, 48, 48
14, 31889, Note_on_c, 7, 48, 0
14, 31890, Note_on_c, 7, 45, 48
14, 31919, Note_on_c, 7, 45, 0
14, 31920, Note_on_c, 7, 50, 48
14, 31979, Note_on_c, 7, 50, 0
14, 31980, Note_on_c, 7, 48, 48
14, 32039, Note_on_c, 7, 48, 0
14, 32040, Note_on_c, 7, 46, 48
14, 32099, Note_on_c, 7, 46, 0
14, 32100, Note_on_c, 7, 48, 48
14, 32159, Note_on_c, 7, 48, 0
14, 32160, Note_on_c, 7, 50, 48
14, 32279, Note_on_c, 7, 50, 0
14, 32280, Note_on_c, 7, 50, 48
14, 32399, Note_on_c, 7, 50, 0
14, 32400, Note_on_c, 7, 43, 48
14, 32459, Note_on_c, 7, 43, 0
14, 32460, Note_on_c, 7, 55, 72
14, 32489, Note_on_c, 7, 55, 0
14, 32490, Note_on_c, 7, 54, 72
14, 32519, Note_on_c, 7, 54, 0
14, 32520, Note_on_c, 7, 55, 72
14, 32579, Note_on_c, 7, 55, 0
14, 32580, Note_on_c, 7, 58, 72
14, 32639, Note_on_c, 7, 58, 0
14, 32640, Note_on_c, 7, 43, 72
14, 32699, Note_on_c, 7, 43, 0
14, 32700, Note_on_c, 7, 55, 72
14, 32729, Note_on_c, 7, 55, 0
14, 32730, Note_on_c, 7, 53, 72
14, 32759, Note_on_c, 7, 53, 0
14, 32760, Note_on_c, 7, 55, 72
14, 32819, Note_on_c, 7, 55, 0
14, 32820, Note_on_c, 7, 63, 72
14, 32879, Note_on_c, 7, 63, 0
14, 32880, Note_on_c, 7, 42, 72
14, 32939, Note_on_c, 7, 42, 0
14, 32940, Note_on_c, 7, 54, 72
14, 32969, Note_on_c, 7, 54, 0
14, 32970, Note_on_c, 7, 52, 72
14, 32999, Note_on_c, 7, 52, 0
14, 33000, Note_on_c, 7, 54, 72
14, 33059, Note_on_c, 7, 54, 0
14, 33060, Note_on_c, 7, 57, 72
14, 33119, Note_on_c, 7, 57, 0
14, 33120, Note_on_c, 7, 41, 72
14, 33179, Note_on_c, 7, 41, 0
14, 33180, Note_on_c, 7, 53, 72
14, 33209, Note_on_c, 7, 53, 0
14, 33210, Note_on_c, 7, 52, 72
14, 33239, Note_on_c, 7, 52, 0
14, 33240, Note_on_c, 7, 53, 72
14, 33299, Note_on_c, 7, 53, 0
14, 33300, Note_on_c, 7, 62, 72
14, 33359, Note_on_c, 7, 62, 0
14, 33360, Note_on_c, 7, 40, 72
14, 33419, Note_on_c, 7, 40, 0
14, 33420, Note_on_c, 7, 52, 72
14, 33449, Note_on_c, 7, 52, 0
14, 33450, Note_on_c, 7, 50, 72
14, 33479, Note_on_c, 7, 50, 0
14, 33480, Note_on_c, 7, 52, 72
14, 33539, Note_on_c, 7, 52, 0
14, 33540, Note_on_c, 7, 55, 72
14, 33599, Note_on_c, 7, 55, 0
14, 33600, Note_on_c, 7, 39, 72
14, 33659, Note_on_c, 7, 39, 0
14, 33660, Note_on_c, 7, 51, 72
14, 33689, Note_on_c, 7, 51, 0
14, 33690, Note_on_c, 7, 50, 72
14, 33719, Note_on_c, 7, 50, 0
14, 33720, Note_on_c, 7, 51, 72
14, 33779, Note_on_c, 7, 51, 0
14, 33780, Note_on_c, 7, 60, 72
14, 33839, Note_on_c, 7, 60, 0
14, 33840, Note_on_c, 7, 50, 72
14, 33899, Note_on_c, 7, 50, 0
14, 33900, Note_on_c, 7, 54, 72
14, 33929, Note_on_c, 7, 54, 0
14, 33930, Note_on_c, 7, 50, 72
14, 33959, Note_on_c, 7, 50, 0
14, 33960, Note_on_c, 7, 55, 72
14, 34019, Note_on_c, 7, 55, 0
14, 34020, Note_on_c, 7, 48, 72
14, 34079, Note_on_c, 7, 48, 0
14, 34080, Note_on_c, 7, 50, 72
14, 34139, Note_on_c, 7, 50, 0
14, 34140, Note_on_c, 7, 58, 72
14, 34169, Note_on_c, 7, 58, 0
14, 34170, Note_on_c, 7, 55, 72
14, 34199, Note_on_c, 7, 55, 0
14, 34200, Note_on_c, 7, 62, 72
14, 34259, Note_on_c, 7, 62, 0
14, 34260, Note_on_c, 7, 50, 72
14, 34319, Note_on_c, 7, 50, 0
14, 34320, Note_on_c, 7, 55, 72
14, 34439, Note_on_c, 7, 55, 0
14, 34680, Note_on_c, 7, 55, 72
14, 34799, Note_on_c, 7, 55, 0
14, 34800, Note_on_c, 7, 51, 72
14, 34919, Note_on_c, 7, 51, 0
14, 34920, Note_on_c, 7, 55, 72
14, 35039, Note_on_c, 7, 55, 0
14, 35040, Note_on_c, 7, 51, 72
14, 35159, Note_on_c, 7, 51, 0
14, 35160, Note_on_c, 7, 47, 72
14, 35279, Note_on_c, 7, 47, 0
14, 35280, Note_on_c, 7, 48, 72
14, 35759, Note_on_c, 7, 48, 0
14, 35760, Note_on_c, 7, 43, 72
14, 36239, Note_on_c, 7, 43, 0
14, 36239, End_track
15, 0, Start_track
15, 0, Title_t, "Contrabass"
15, 0, MIDI_port, 0
15, 0, Program_c, 8, 48
15, 0, Control_c, 8, 7, 104
15, 0, Control_c, 8, 10, 112
15, 0, Control_c, 8, 11, 127
15, 0, Note_on_c, 8, 39, 48
15, 119, Note_on_c, 8, 39, 0
15, 120, Note_on_c, 8, 43, 48
15, 239, Note_on_c, 8, 43, 0
15, 240, Note_on_c, 8, 39, 48
15, 359, Note_on_c, 8, 39, 0
15, 360, Note_on_c, 8, 41, 48
15, 479, Note_on_c, 8, 41, 0
15, 480, Note_on_c, 8, 34, 48
15, 599, Note_on_c, 8, 34, 0
15, 600, Note_on_c, 8, 38, 48
15, 719, Note_on_c, 8, 38, 0
15, 720, Note_on_c, 8, 39, 48
15, 839, Note_on_c, 8, 39, 0
15, 840, Note_on_c, 8, 43, 48
15, 959, Note_on_c, 8, 43, 0
15, 960, Note_on_c, 8, 39, 48
15, 1079, Note_on_c, 8, 39, 0
15, 1080, Note_on_c, 8, 38, 48
15, 1199, Note_on_c, 8, 38, 0
15, 1200, Note_on_c, 8, 46, 48
15, 1319, Note_on_c, 8, 46, 0
15, 1320, Note_on_c, 8, 38, 48
15, 1439, Note_on_c, 8, 38, 0
15, 1440, Note_on_c, 8, 36, 48
15, 1559, Note_on_c, 8, 36, 0
15, 1560, Note_on_c, 8, 48, 48
15, 1679, Note_on_c, 8, 48, 0
15, 1680, Note_on_c, 8, 41, 48
15, 1799, Note_on_c, 8, 41, 0
15, 1800, Note_on_c, 8, 46, 48
15, 1919, Note_on_c, 8, 46, 0
15, 1920, Note_on_c, 8, 34, 48
15, 2039, Note_on_c, 8, 34, 0
15, 2040, Note_on_c, 8, 46, 48
15, 2159, Note_on_c, 8, 46, 0
15, 2160, Note_on_c, 8, 34, 48
15, 2279, Note_on_c, 8, 34, 0
15, 2280, Note_on_c, 8, 46, 48
15, 2399, Note_on_c, 8, 46, 0
15, 2400, Note_on_c, 8, 44, 48
15, 2519, Note_on_c, 8, 44, 0
15, 2520, Note_on_c, 8, 32, 48
15, 2639, Note_on_c, 8, 32, 0
15, 2640, Note_on_c, 8, 44, 48
15, 2759, Note_on_c, 8, 44, 0
15, 2760, Note_on_c, 8, 43, 48
15, 2879, Note_on_c, 8, 43, 0
15, 2880, Note_on_c, 8, 41, 48
15, 2999, Note_on_c, 8, 41, 0
15, 3000, Note_on_c, 8, 46, 48
15, 3119, Note_on_c, 8, 46, 0
15, 3120, Note_on_c, 8, 38, 48
15, 3239, Note_on_c, 8, 38, 0
15, 3240, Note_on_c, 8, 39, 48
15, 3359, Note_on_c, 8, 39, 0
15, 3360, Note_on_c, 8, 27, 48
15, 3479, Note_on_c, 8, 27, 0
15, 3480, Note_on_c, 8, 39, 48
15, 3599, Note_on_c, 8, 39, 0
15, 3600, Note_on_c, 8, 51, 48
15, 3719, Note_on_c, 8, 51, 0
15, 3720, Note_on_c, 8, 39, 48
15, 3839, Note_on_c, 8, 39, 0
15, 3840, Note_on_c, 8, 51, 48
15, 3959, Note_on_c, 8, 51, 0
15, 3960, Note_on_c, 8, 39, 48
15, 4079, Note_on_c, 8, 39, 0
15, 4080, Note_on_c, 8, 27, 48
15, 4199, Note_on_c, 8, 27, 0
15, 4200, Note_on_c, 8, 39, 48
15, 4319, Note_on_c, 8, 39, 0
15, 4320, Note_on_c, 8, 51, 48
15, 4439, Note_on_c, 8, 51, 0
15, 4440, Note_on_c, 8, 39, 48
15, 4559, Note_on_c, 8, 39, 0
15, 4560, Note_on_c, 8, 51, 48
15, 4679, Note_on_c, 8, 51, 0
15, 4680, Note_on_c, 8, 50, 48
15, 4799, Note_on_c, 8, 50, 0
15, 4800, Note_on_c, 8, 38, 48
15, 4919, Note_on_c, 8, 38, 0
15, 4920, Note_on_c, 8, 36, 48
15, 5039, Note_on_c, 8, 36, 0
15, 5040, Note_on_c, 8, 43, 48
15, 5159, Note_on_c, 8, 43, 0
15, 5160, Note_on_c, 8, 31, 48
15, 5279, Note_on_c, 8, 31, 0
15, 5280, Note_on_c, 8, 43, 48
15, 5399, Note_on_c, 8, 43, 0
15, 5400, Note_on_c, 8, 48, 48
15, 5519, Note_on_c, 8, 48, 0
15, 5520, Note_on_c, 8, 36, 48
15, 5639, Note_on_c, 8, 36, 0
15, 5640, Note_on_c, 8, 48, 48
15, 5759, Note_on_c, 8, 48, 0
15, 5760, Note_on_c, 8, 44, 48
15, 5879, Note_on_c, 8, 44, 0
15, 5880, Note_on_c, 8, 32, 48
15, 5999, Note_on_c, 8, 32, 0
15, 6000, Note_on_c, 8, 44, 48
15, 6119, Note_on_c, 8, 44, 0
15, 6120, Note_on_c, 8, 43, 48
15, 6239, Note_on_c, 8, 43, 0
15, 6240, Note_on_c, 8, 39, 48
15, 6359, Note_on_c, 8, 39, 0
15, 6360, Note_on_c, 8, 44, 48
15, 6479, Note_on_c, 8, 44, 0
15, 6480, Note_on_c, 8, 45, 48
15, 6599, Note_on_c, 8, 45, 0
15, 6600, Note_on_c, 8, 41, 48
15, 6719, Note_on_c, 8, 41, 0
15, 6720, Note_on_c, 8, 46, 48
15, 6839, Note_on_c, 8, 46, 0
15, 6840, Note_on_c, 8, 38, 48
15, 6899, Note_on_c, 8, 38, 0
15, 6900, Note_on_c, 8, 39, 48
15, 6959, Note_on_c, 8, 39, 0
15, 6960, Note_on_c, 8, 41, 48
15, 7079, Note_on_c, 8, 41, 0
15, 7080, Note_on_c, 8, 41, 48
15, 7199, Note_on_c, 8, 41, 0
15, 7200, Note_on_c, 8, 34, 48
15, 7319, Note_on_c, 8, 34, 0
15, 7320, Note_on_c, 8, 50, 48
15, 7439, Note_on_c, 8, 50, 0
15, 7440, Note_on_c, 8, 46, 48
15, 7559, Note_on_c, 8, 46, 0
15, 7560, Note_on_c, 8, 48, 48
15, 7679, Note_on_c, 8, 48, 0
15, 7680, Note_on_c, 8, 41, 48
15, 7799, Note_on_c, 8, 41, 0
15, 7800, Note_on_c, 8, 45, 48
15, 7919, Note_on_c, 8, 45, 0
15, 7920, Note_on_c, 8, 46, 48
15, 8039, Note_on_c, 8, 46, 0
15, 8040, Note_on_c, 8, 49, 48
15, 8159, Note_on_c, 8, 49, 0
15, 8160, Note_on_c, 8, 46, 48
15, 8279, Note_on_c, 8, 46, 0
15, 8280, Note_on_c, 8, 45, 48
15, 8399, Note_on_c, 8, 45, 0
15, 8400, Note_on_c, 8, 41, 48
15, 8519, Note_on_c, 8, 41, 0
15, 8520, Note_on_c, 8, 33, 48
15, 8639, Note_on_c, 8, 33, 0
15, 8640, Note_on_c, 8, 34, 48
15, 8759, Note_on_c, 8, 34, 0
15, 8760, Note_on_c, 8, 34, 48
15, 8879, Note_on_c, 8, 34, 0
15, 8880, Note_on_c, 8, 37, 48
15, 8999, Note_on_c, 8, 37, 0
15, 9000, Note_on_c, 8, 41, 48
15, 9119, Note_on_c, 8, 41, 0
15, 9120, Note_on_c, 8, 29, 56
15, 9239, Note_on_c, 8, 29, 0
15, 9240, Note_on_c, 8, 41, 64
15, 9359, Note_on_c, 8, 41, 0
15, 9360, Note_on_c, 8, 37, 72
15, 9479, Note_on_c, 8, 37, 0
15, 9480, Note_on_c, 8, 49, 72
15, 9599, Note_on_c, 8, 49, 0
15, 9600, Note_on_c, 8, 37, 72
15, 9719, Note_on_c, 8, 37, 0
15, 9720, Note_on_c, 8, 39, 72
15, 9839, Note_on_c, 8, 39, 0
15, 9840, Note_on_c, 8, 48, 72
15, 9959, Note_on_c, 8, 48, 0
15, 9960, Note_on_c, 8, 39, 48
15, 10079, Note_on_c, 8, 39, 0
15, 10080, Note_on_c, 8, 37, 48
15, 10199, Note_on_c, 8, 37, 0
15, 10200, Note_on_c, 8, 41, 48
15, 10319, Note_on_c, 8, 41, 0
15, 10320, Note_on_c, 8, 37, 48
15, 10439, Note_on_c, 8, 37, 0
15, 10440, Note_on_c, 8, 32, 48
15, 10559, Note_on_c, 8, 32, 0
15, 10560, Note_on_c, 8, 44, 56
15, 10679, Note_on_c, 8, 44, 0
15, 10680, Note_on_c, 8, 32, 64
15, 10799, Note_on_c, 8, 32, 0
15, 10800, Note_on_c, 8, 41, 72
15, 10919, Note_on_c, 8, 41, 0
15, 10920, Note_on_c, 8, 44, 72
15, 11039, Note_on_c, 8, 44, 0
15, 11040, Note_on_c, 8, 41, 72
15, 11159, Note_on_c, 8, 41, 0
15, 11160, Note_on_c, 8, 40, 72
15, 11279, Note_on_c, 8, 40, 0
15, 11280, Note_on_c, 8, 36, 72
15, 11399, Note_on_c, 8, 36, 0
15, 11400, Note_on_c, 8, 40, 48
15, 11519, Note_on_c, 8, 40, 0
15, 11520, Note_on_c, 8, 41, 48
15, 11639, Note_on_c, 8, 41, 0
15, 11640, Note_on_c, 8, 29, 48
15, 11759, Note_on_c, 8, 29, 0
15, 11760, Note_on_c, 8, 32, 48
15, 11879, Note_on_c, 8, 32, 0
15, 11880, Note_on_c, 8, 36, 48
15, 11999, Note_on_c, 8, 36, 0
15, 12000, Note_on_c, 8, 48, 48
15, 12119, Note_on_c, 8, 48, 0
15, 12120, Note_on_c, 8, 36, 72
15, 12239, Note_on_c, 8, 36, 0
15, 12240, Note_on_c, 8, 34, 72
15, 12359, Note_on_c, 8, 34, 0
15, 12360, Note_on_c, 8, 46, 72
15, 12479, Note_on_c, 8, 46, 0
15, 12480, Note_on_c, 8, 34, 72
15, 12599, Note_on_c, 8, 34, 0
15, 12600, Note_on_c, 8, 46, 48
15, 12719, Note_on_c, 8, 46, 0
15, 12720, Note_on_c, 8, 34, 48
15, 12839, Note_on_c, 8, 34, 0
15, 12840, Note_on_c, 8, 46, 48
15, 12959, Note_on_c, 8, 46, 0
15, 12960, Note_on_c, 8, 34, 48
15, 13079, Note_on_c, 8, 34, 0
15, 13080, Note_on_c, 8, 46, 48
15, 13199, Note_on_c, 8, 46, 0
15, 13200, Note_on_c, 8, 34, 48
15, 13319, Note_on_c, 8, 34, 0
15, 13320, Note_on_c, 8, 33, 48
15, 13439, Note_on_c, 8, 33, 0
15, 13440, Note_on_c, 8, 45, 48
15, 13559, Note_on_c, 8, 45, 0
15, 13560, Note_on_c, 8, 33, 48
15, 13679, Note_on_c, 8, 33, 0
15, 13680, Note_on_c, 8, 38, 72
15, 13799, Note_on_c, 8, 38, 0
15, 13800, Note_on_c, 8, 50, 72
15, 13919, Note_on_c, 8, 50, 0
15, 13920, Note_on_c, 8, 38, 72
15, 14039, Note_on_c, 8, 38, 0
15, 14040, Note_on_c, 8, 36, 72
15, 14159, Note_on_c, 8, 36, 0
15, 14160, Note_on_c, 8, 48, 72
15, 14279, Note_on_c, 8, 48, 0
15, 14280, Note_on_c, 8, 36, 72
15, 14399, Note_on_c, 8, 36, 0
15, 14400, Note_on_c, 8, 35, 72
15, 14519, Note_on_c, 8, 35, 0
15, 14520, Note_on_c, 8, 47, 72
15, 14639, Note_on_c, 8, 47, 0
15, 14640, Note_on_c, 8, 35, 72
15, 14759, Note_on_c, 8, 35, 0
15, 14760, Note_on_c, 8, 34, 72
15, 14879, Note_on_c, 8, 34, 0
15, 14880, Note_on_c, 8, 46, 72
15, 14999, Note_on_c, 8, 46, 0
15, 15000, Note_on_c, 8, 34, 72
15, 15059, Note_on_c, 8, 34, 0
15, 15060, Note_on_c, 8, 46, 72
15, 15119, Note_on_c, 8, 46, 0
15, 15120, Note_on_c, 8, 43, 72
15, 15179, Note_on_c, 8, 43, 0
15, 15180, Note_on_c, 8, 39, 72
15, 15239, Note_on_c, 8, 39, 0
15, 15240, Note_on_c, 8, 46, 72
15, 15359, Note_on_c, 8, 46, 0
15, 15360, Note_on_c, 8, 34, 72
15, 15479, Note_on_c, 8, 34, 0
15, 15480, Note_on_c, 8, 39, 72
15, 15599, Note_on_c, 8, 39, 0
15, 15600, Note_on_c, 8, 43, 72
15, 15719, Note_on_c, 8, 43, 0
15, 15720, Note_on_c, 8, 39, 72
15, 15839, Note_on_c, 8, 39, 0
15, 15840, Note_on_c, 8, 41, 72
15, 15959, Note_on_c, 8, 41, 0
15, 15960, Note_on_c, 8, 34, 72
15, 16079, Note_on_c, 8, 34, 0
15, 16080, Note_on_c, 8, 38, 72
15, 16199, Note_on_c, 8, 38, 0
15, 16200, Note_on_c, 8, 39, 48
15, 16319, Note_on_c, 8, 39, 0
15, 16320, Note_on_c, 8, 43, 48
15, 16439, Note_on_c, 8, 43, 0
15, 16440, Note_on_c, 8, 39, 48
15, 16559, Note_on_c, 8, 39, 0
15, 16560, Note_on_c, 8, 38, 48
15, 16679, Note_on_c, 8, 38, 0
15, 16680, Note_on_c, 8, 41, 48
15, 16799, Note_on_c, 8, 41, 0
15, 16800, Note_on_c, 8, 38, 48
15, 16919, Note_on_c, 8, 38, 0
15, 16920, Note_on_c, 8, 39, 48
15, 17039, Note_on_c, 8, 39, 0
15, 17040, Note_on_c, 8, 36, 48
15, 17159, Note_on_c, 8, 36, 0
15, 17160, Note_on_c, 8, 35, 48
15, 17279, Note_on_c, 8, 35, 0
15, 17280, Note_on_c, 8, 36, 48
15, 17399, Note_on_c, 8, 36, 0
15, 17400, Note_on_c, 8, 44, 48
15, 17519, Note_on_c, 8, 44, 0
15, 17520, Note_on_c, 8, 43, 48
15, 17639, Note_on_c, 8, 43, 0
15, 17640, Note_on_c, 8, 42, 48
15, 17759, Note_on_c, 8, 42, 0
15, 17760, Note_on_c, 8, 30, 48
15, 17879, Note_on_c, 8, 30, 0
15, 17880, Note_on_c, 8, 42, 48
15, 17999, Note_on_c, 8, 42, 0
15, 18000, Note_on_c, 8, 43, 48
15, 18119, Note_on_c, 8, 43, 0
15, 18120, Note_on_c, 8, 39, 48
15, 18239, Note_on_c, 8, 39, 0
15, 18240, Note_on_c, 8, 38, 48
15, 18359, Note_on_c, 8, 38, 0
15, 18360, Note_on_c, 8, 37, 48
15, 18479, Note_on_c, 8, 37, 0
15, 18480, Note_on_c, 8, 43, 48
15, 18599, Note_on_c, 8, 43, 0
15, 18600, Note_on_c, 8, 37, 48
15, 18719, Note_on_c, 8, 37, 0
15, 18720, Note_on_c, 8, 38, 48
15, 18839, Note_on_c, 8, 38, 0
15, 19440, Note_on_c, 8, 31, 72
15, 19499, Note_on_c, 8, 31, 0
15, 19500, Note_on_c, 8, 43, 72
15, 19529, Note_on_c, 8, 43, 0
15, 19530, Note_on_c, 8, 42, 72
15, 19559, Note_on_c, 8, 42, 0
15, 19560, Note_on_c, 8, 43, 72
15, 19619, Note_on_c, 8, 43, 0
15, 19620, Note_on_c, 8, 46, 72
15, 19679, Note_on_c, 8, 46, 0
15, 19680, Note_on_c, 8, 33, 72
15, 19739, Note_on_c, 8, 33, 0
15, 19740, Note_on_c, 8, 45, 72
15, 19769, Note_on_c, 8, 45, 0
15, 19770, Note_on_c, 8, 43, 72
15, 19799, Note_on_c, 8, 43, 0
15, 19800, Note_on_c, 8, 45, 72
15, 19859, Note_on_c, 8, 45, 0
15, 19860, Note_on_c, 8, 48, 72
15, 19919, Note_on_c, 8, 48, 0
15, 19920, Note_on_c, 8, 26, 72
15, 19979, Note_on_c, 8, 26, 0
15, 19980, Note_on_c, 8, 38, 72
15, 20009, Note_on_c, 8, 38, 0
15, 20010, Note_on_c, 8, 37, 72
15, 20039, Note_on_c, 8, 37, 0
15, 20040, Note_on_c, 8, 38, 72
15, 20099, Note_on_c, 8, 38, 0
15, 20100, Note_on_c, 8, 42, 72
15, 20159, Note_on_c, 8, 42, 0
15, 20160, Note_on_c, 8, 31, 72
15, 20219, Note_on_c, 8, 31, 0
15, 20220, Note_on_c, 8, 43, 72
15, 20249, Note_on_c, 8, 43, 0
15, 20250, Note_on_c, 8, 42, 72
15, 20279, Note_on_c, 8, 42, 0
15, 20280, Note_on_c, 8, 43, 72
15, 20339, Note_on_c, 8, 43, 0
15, 20340, Note_on_c, 8, 46, 72
15, 20399, Note_on_c, 8, 46, 0
15, 20400, Note_on_c, 8, 28, 72
15, 20459, Note_on_c, 8, 28, 0
15, 20460, Note_on_c, 8, 40, 72
15, 20489, Note_on_c, 8, 40, 0
15, 20490, Note_on_c, 8, 38, 72
15, 20519, Note_on_c, 8, 38, 0
15, 20520, Note_on_c, 8, 40, 72
15, 20579, Note_on_c, 8, 40, 0
15, 20580, Note_on_c, 8, 43, 72
15, 20639, Note_on_c, 8, 43, 0
15, 20640, Note_on_c, 8, 33, 72
15, 20699, Note_on_c, 8, 33, 0
15, 20700, Note_on_c, 8, 45, 72
15, 20729, Note_on_c, 8, 45, 0
15, 20730, Note_on_c, 8, 44, 72
15, 20759, Note_on_c, 8, 44, 0
15, 20760, Note_on_c, 8, 45, 72
15, 20819, Note_on_c, 8, 45, 0
15, 20820, Note_on_c, 8, 49, 72
15, 20879, Note_on_c, 8, 49, 0
15, 20880, Note_on_c, 8, 38, 72
15, 20939, Note_on_c, 8, 38, 0
15, 20940, Note_on_c, 8, 50, 72
15, 20969, Note_on_c, 8, 50, 0
15, 20970, Note_on_c, 8, 49, 72
15, 20999, Note_on_c, 8, 49, 0
15, 21000, Note_on_c, 8, 50, 72
15, 21059, Note_on_c, 8, 50, 0
15, 21060, Note_on_c, 8, 54, 72
15, 21119, Note_on_c, 8, 54, 0
15, 21120, Note_on_c, 8, 31, 72
15, 21179, Note_on_c, 8, 31, 0
15, 21180, Note_on_c, 8, 43, 72
15, 21209, Note_on_c, 8, 43, 0
15, 21210, Note_on_c, 8, 42, 72
15, 21239, Note_on_c, 8, 42, 0
15, 21240, Note_on_c, 8, 43, 72
15, 21299, Note_on_c, 8, 43, 0
15, 21300, Note_on_c, 8, 47, 72
15, 21359, Note_on_c, 8, 47, 0
15, 21360, Note_on_c, 8, 36, 72
15, 21419, Note_on_c, 8, 36, 0
15, 21420, Note_on_c, 8, 48, 72
15, 21449, Note_on_c, 8, 48, 0
15, 21450, Note_on_c, 8, 47, 72
15, 21479, Note_on_c, 8, 47, 0
15, 21480, Note_on_c, 8, 48, 72
15, 21539, Note_on_c, 8, 48, 0
15, 21540, Note_on_c, 8, 51, 72
15, 21599, Note_on_c, 8, 51, 0
15, 21600, Note_on_c, 8, 33, 72
15, 21659, Note_on_c, 8, 33, 0
15, 21660, Note_on_c, 8, 45, 72
15, 21689, Note_on_c, 8, 45, 0
15, 21690, Note_on_c, 8, 43, 72
15, 21719, Note_on_c, 8, 43, 0
15, 21720, Note_on_c, 8, 45, 72
15, 21779, Note_on_c, 8, 45, 0
15, 21780, Note_on_c, 8, 48, 72
15, 21839, Note_on_c, 8, 48, 0
15, 21840, Note_on_c, 8, 26, 72
15, 21899, Note_on_c, 8, 26, 0
15, 21900, Note_on_c, 8, 38, 72
15, 21929, Note_on_c, 8, 38, 0
15, 21930, Note_on_c, 8, 37, 72
15, 21959, Note_on_c, 8, 37, 0
15, 21960, Note_on_c, 8, 38, 72
15, 22019, Note_on_c, 8, 38, 0
15, 22020, Note_on_c, 8, 42, 72
15, 22079, Note_on_c, 8, 42, 0
15, 22080, Note_on_c, 8, 31, 72
15, 22139, Note_on_c, 8, 31, 0
15, 23760, Note_on_c, 8, 34, 72
15, 23819, Note_on_c, 8, 34, 0
15, 23820, Note_on_c, 8, 46, 72
15, 23849, Note_on_c, 8, 46, 0
15, 23850, Note_on_c, 8, 45, 72
15, 23879, Note_on_c, 8, 45, 0
15, 23880, Note_on_c, 8, 46, 72
15, 23939, Note_on_c, 8, 46, 0
15, 23940, Note_on_c, 8, 50, 72
15, 23999, Note_on_c, 8, 50, 0
15, 24000, Note_on_c, 8, 36, 72
15, 24059, Note_on_c, 8, 36, 0
15, 24060, Note_on_c, 8, 48, 72
15, 24089, Note_on_c, 8, 48, 0
15, 24090, Note_on_c, 8, 46, 72
15, 24119, Note_on_c, 8, 46, 0
15, 24120, Note_on_c, 8, 48, 72
15, 24179, Note_on_c, 8, 48, 0
15, 24180, Note_on_c, 8, 51, 72
15, 24239, Note_on_c, 8, 51, 0
15, 24240, Note_on_c, 8, 29, 72
15, 24299, Note_on_c, 8, 29, 0
15, 24300, Note_on_c, 8, 41, 72
15, 24329, Note_on_c, 8, 41, 0
15, 24330, Note_on_c, 8, 40, 72
15, 24359, Note_on_c, 8, 40, 0
15, 24360, Note_on_c, 8, 41, 72
15, 24419, Note_on_c, 8, 41, 0
15, 24420, Note_on_c, 8, 45, 72
15, 24479, Note_on_c, 8, 45, 0
15, 24480, Note_on_c, 8, 26, 72
15, 24539, Note_on_c, 8, 26, 0
15, 24540, Note_on_c, 8, 38, 72
15, 24569, Note_on_c, 8, 38, 0
15, 24570, Note_on_c, 8, 36, 72
15, 24599, Note_on_c, 8, 36, 0
15, 24600, Note_on_c, 8, 38, 72
15, 24659, Note_on_c, 8, 38, 0
15, 24660, Note_on_c, 8, 41, 72
15, 24719, Note_on_c, 8, 41, 0
15, 24720, Note_on_c, 8, 31, 72
15, 24779, Note_on_c, 8, 31, 0
15, 24780, Note_on_c, 8, 43, 72
15, 24809, Note_on_c, 8, 43, 0
15, 24810, Note_on_c, 8, 42, 72
15, 24839, Note_on_c, 8, 42, 0
15, 24840, Note_on_c, 8, 43, 72
15, 24899, Note_on_c, 8, 43, 0
15, 24900, Note_on_c, 8, 47, 72
15, 24959, Note_on_c, 8, 47, 0
15, 24960, Note_on_c, 8, 36, 72
15, 25019, Note_on_c, 8, 36, 0
15, 25020, Note_on_c, 8, 48, 72
15, 25049, Note_on_c, 8, 48, 0
15, 25050, Note_on_c, 8, 47, 72
15, 25079, Note_on_c, 8, 47, 0
15, 25080, Note_on_c, 8, 48, 72
15, 25139, Note_on_c, 8, 48, 0
15, 25140, Note_on_c, 8, 51, 72
15, 25199, Note_on_c, 8, 51, 0
15, 25200, Note_on_c, 8, 38, 72
15, 25259, Note_on_c, 8, 38, 0
15, 25260, Note_on_c, 8, 50, 72
15, 25289, Note_on_c, 8, 50, 0
15, 25290, Note_on_c, 8, 48, 72
15, 25319, Note_on_c, 8, 48, 0
15, 25320, Note_on_c, 8, 50, 72
15, 25379, Note_on_c, 8, 50, 0
15, 25380, Note_on_c, 8, 53, 72
15, 25439, Note_on_c, 8, 53, 0
15, 25440, Note_on_c, 8, 31, 72
15, 25499, Note_on_c, 8, 31, 0
15, 25500, Note_on_c, 8, 43, 72
15, 25529, Note_on_c, 8, 43, 0
15, 25530, Note_on_c, 8, 42, 72
15, 25559, Note_on_c, 8, 42, 0
15, 25560, Note_on_c, 8, 43, 72
15, 25619, Note_on_c, 8, 43, 0
15, 25620, Note_on_c, 8, 47, 72
15, 25679, Note_on_c, 8, 47, 0
15, 25680, Note_on_c, 8, 28, 72
15, 25739, Note_on_c, 8, 28, 0
15, 25740, Note_on_c, 8, 40, 72
15, 25769, Note_on_c, 8, 40, 0
15, 25770, Note_on_c, 8, 38, 72
15, 25799, Note_on_c, 8, 38, 0
15, 25800, Note_on_c, 8, 40, 72
15, 25859, Note_on_c, 8, 40, 0
15, 25860, Note_on_c, 8, 43, 72
15, 25919, Note_on_c, 8, 43, 0
15, 25920, Note_on_c, 8, 33, 72
15, 25979, Note_on_c, 8, 33, 0
15, 25980, Note_on_c, 8, 45, 72
15, 26009, Note_on_c, 8, 45, 0
15, 26010, Note_on_c, 8, 44, 72
15, 26039, Note_on_c, 8, 44, 0
15, 26040, Note_on_c, 8, 45, 72
15, 26099, Note_on_c, 8, 45, 0
15, 26100, Note_on_c, 8, 49, 72
15, 26159, Note_on_c, 8, 49, 0
15, 26160, Note_on_c, 8, 38, 72
15, 26219, Note_on_c, 8, 38, 0
15, 26220, Note_on_c, 8, 50, 72
15, 26249, Note_on_c, 8, 50, 0
15, 26250, Note_on_c, 8, 49, 72
15, 26279, Note_on_c, 8, 49, 0
15, 26280, Note_on_c, 8, 50, 72
15, 26339, Note_on_c, 8, 50, 0
15, 26340, Note_on_c, 8, 54, 72
15, 26399, Note_on_c, 8, 54, 0
15, 26400, Note_on_c, 8, 39, 72
15, 26459, Note_on_c, 8, 39, 0
15, 26460, Note_on_c, 8, 51, 72
15, 26489, Note_on_c, 8, 51, 0
15, 26490, Note_on_c, 8, 50, 72
15, 26519, Note_on_c, 8, 50, 0
15, 26520, Note_on_c, 8, 51, 72
15, 26579, Note_on_c, 8, 51, 0
15, 26580, Note_on_c, 8, 39, 72
15, 26639, Note_on_c, 8, 39, 0
15, 26640, Note_on_c, 8, 38, 72
15, 26699, Note_on_c, 8, 38, 0
15, 26700, Note_on_c, 8, 50, 72
15, 26729, Note_on_c, 8, 50, 0
15, 26730, Note_on_c, 8, 48, 72
15, 26759, Note_on_c, 8, 48, 0
15, 26760, Note_on_c, 8, 50, 72
15, 26819, Note_on_c, 8, 50, 0
15, 26820, Note_on_c, 8, 53, 72
15, 26879, Note_on_c, 8, 53, 0
15, 26880, Note_on_c, 8, 36, 72
15, 26939, Note_on_c, 8, 36, 0
15, 26940, Note_on_c, 8, 48, 72
15, 26969, Note_on_c, 8, 48, 0
15, 26970, Note_on_c, 8, 46, 72
15, 26999, Note_on_c, 8, 46, 0
15, 27000, Note_on_c, 8, 48, 72
15, 27059, Note_on_c, 8, 48, 0
15, 27060, Note_on_c, 8, 36, 72
15, 27119, Note_on_c, 8, 36, 0
15, 27120, Note_on_c, 8, 34, 72
15, 27179, Note_on_c, 8, 34, 0
15, 27180, Note_on_c, 8, 46, 72
15, 27209, Note_on_c, 8, 46, 0
15, 27210, Note_on_c, 8, 45, 72
15, 27239, Note_on_c, 8, 45, 0
15, 27240, Note_on_c, 8, 46, 72
15, 27299, Note_on_c, 8, 46, 0
15, 27300, Note_on_c, 8, 43, 72
15, 27359, Note_on_c, 8, 43, 0
15, 27360, Note_on_c, 8, 39, 72
15, 27419, Note_on_c, 8, 39, 0
15, 27420, Note_on_c, 8, 51, 72
15, 27449, Note_on_c, 8, 51, 0
15, 27450, Note_on_c, 8, 50, 72
15, 27479, Note_on_c, 8, 50, 0
15, 27480, Note_on_c, 8, 51, 72
15, 27539, Note_on_c, 8, 51, 0
15, 27540, Note_on_c, 8, 39, 72
15, 27599, Note_on_c, 8, 39, 0
15, 27600, Note_on_c, 8, 38, 72
15, 27839, Note_on_c, 8, 38, 0
15, 27840, Note_on_c, 8, 38, 72
15, 28079, Note_on_c, 8, 38, 0
15, 28080, Note_on_c, 8, 38, 72
15, 28319, Note_on_c, 8, 38, 0
15, 28320, Note_on_c, 8, 38, 72
15, 28559, Note_on_c, 8, 38, 0
15, 28560, Note_on_c, 8, 38, 72
15, 28799, Note_on_c, 8, 38, 0
15, 28800, Note_on_c, 8, 38, 72
15, 29039, Note_on_c, 8, 38, 0
15, 29040, Note_on_c, 8, 38, 72
15, 29279, Note_on_c, 8, 38, 0
15, 29280, Note_on_c, 8, 38, 72
15, 29519, Note_on_c, 8, 38, 0
15, 29520, Note_on_c, 8, 37, 72
15, 29639, Note_on_c, 8, 37, 0
15, 29880, Note_on_c, 8, 36, 48
15, 29939, Note_on_c, 8, 36, 0
15, 29940, Note_on_c, 8, 36, 48
15, 29999, Note_on_c, 8, 36, 0
15, 30000, Note_on_c, 8, 38, 48
15, 30059, Note_on_c, 8, 38, 0
15, 30060, Note_on_c, 8, 38, 48
15, 30119, Note_on_c, 8, 38, 0
15, 30120, Note_on_c, 8, 39, 48
15, 30179, Note_on_c, 8, 39, 0
15, 30180, Note_on_c, 8, 39, 48
15, 30239, Note_on_c, 8, 39, 0
15, 30240, Note_on_c, 8, 38, 48
15, 30299, Note_on_c, 8, 38, 0
15, 30300, Note_on_c, 8, 38, 48
15, 30359, Note_on_c, 8, 38, 0
15, 30360, Note_on_c, 8, 38, 48
15, 30419, Note_on_c, 8, 38, 0
15, 30420, Note_on_c, 8, 38, 48
15, 30479, Note_on_c, 8, 38, 0
15, 30480, Note_on_c, 8, 31, 48
15, 30599, Note_on_c, 8, 31, 0
15, 30660, Note_on_c, 8, 46, 48
15, 30689, Note_on_c, 8, 46, 0
15, 30690, Note_on_c, 8, 43, 48
15, 30719, Note_on_c, 8, 43, 0
15, 30720, Note_on_c, 8, 39, 48
15, 30779, Note_on_c, 8, 39, 0
15, 30780, Note_on_c, 8, 51, 48
15, 30839, Note_on_c, 8, 51, 0
15, 30900, Note_on_c, 8, 39, 48
15, 30929, Note_on_c, 8, 39, 0
15, 30930, Note_on_c, 8, 36, 48
15, 30959, Note_on_c, 8, 36, 0
15, 30960, Note_on_c, 8, 29, 48
15, 31019, Note_on_c, 8, 29, 0
15, 31020, Note_on_c, 8, 41, 48
15, 31079, Note_on_c, 8, 41, 0
15, 31140, Note_on_c, 8, 45, 48
15, 31169, Note_on_c, 8, 45, 0
15, 31170, Note_on_c, 8, 41, 48
15, 31199, Note_on_c, 8, 41, 0
15, 31200, Note_on_c, 8, 38, 48
15, 31259, Note_on_c, 8, 38, 0
15, 31260, Note_on_c, 8, 50, 48
15, 31319, Note_on_c, 8, 50, 0
15, 31380, Note_on_c, 8, 34, 48
15, 31409, Note_on_c, 8, 34, 0
15, 31410, Note_on_c, 8, 31, 48
15, 31439, Note_on_c, 8, 31, 0
15, 31440, Note_on_c, 8, 27, 48
15, 31499, Note_on_c, 8, 27, 0
15, 31500, Note_on_c, 8, 39, 48
15, 31559, Note_on_c, 8, 39, 0
15, 31620, Note_on_c, 8, 39, 48
15, 31649, Note_on_c, 8, 39, 0
15, 31650, Note_on_c, 8, 36, 48
15, 31679, Note_on_c, 8, 36, 0
15, 31680, Note_on_c, 8, 33, 48
15, 31739, Note_on_c, 8, 33, 0
15, 31740, Note_on_c, 8, 45, 48
15, 31799, Note_on_c, 8, 45, 0
15, 31860, Note_on_c, 8, 36, 48
15, 31889, Note_on_c, 8, 36, 0
15, 31890, Note_on_c, 8, 33, 48
15, 31919, Note_on_c, 8, 33, 0
15, 31920, Note_on_c, 8, 38, 48
15, 31979, Note_on_c, 8, 38, 0
15, 31980, Note_on_c, 8, 36, 48
15, 32039, Note_on_c, 8, 36, 0
15, 32040, Note_on_c, 8, 34, 48
15, 32099, Note_on_c, 8, 34, 0
15, 32100, Note_on_c, 8, 36, 48
15, 32159, Note_on_c, 8, 36, 0
15, 32160, Note_on_c, 8, 38, 48
15, 32279, Note_on_c, 8, 38, 0
15, 32280, Note_on_c, 8, 38, 48
15, 32399, Note_on_c, 8, 38, 0
15, 32400, Note_on_c, 8, 31, 48
15, 32459, Note_on_c, 8, 31, 0
15, 32460, Note_on_c, 8, 43, 72
15, 32489, Note_on_c, 8, 43, 0
15, 32490, Note_on_c, 8, 42, 72
15, 32519, Note_on_c, 8, 42, 0
15, 32520, Note_on_c, 8, 43, 72
15, 32579, Note_on_c, 8, 43, 0
15, 32580, Note_on_c, 8, 46, 72
15, 32639, Note_on_c, 8, 46, 0
15, 32640, Note_on_c, 8, 31, 72
15, 32699, Note_on_c, 8, 31, 0
15, 32700, Note_on_c, 8, 43, 72
15, 32729, Note_on_c, 8, 43, 0
15, 32730, Note_on_c, 8, 41, 72
15, 32759, Note_on_c, 8, 41, 0
15, 32760, Note_on_c, 8, 43, 72
15, 32819, Note_on_c, 8, 43, 0
15, 32820, Note_on_c, 8, 51, 72
15, 32879, Note_on_c, 8, 51, 0
15, 32880, Note_on_c, 8, 30, 72
15, 32939, Note_on_c, 8, 30, 0
15, 32940, Note_on_c, 8, 42, 72
15, 32969, Note_on_c, 8, 42, 0
15, 32970, Note_on_c, 8, 40, 72
15, 32999, Note_on_c, 8, 40, 0
15, 33000, Note_on_c, 8, 42, 72
15, 33059, Note_on_c, 8, 42, 0
15, 33060, Note_on_c, 8, 45, 72
15, 33119, Note_on_c, 8, 45, 0
15, 33120, Note_on_c, 8, 29, 72
15, 33179, Note_on_c, 8, 29, 0
15, 33180, Note_on_c, 8, 41, 72
15, 33209, Note_on_c, 8, 41, 0
15, 33210, Note_on_c, 8, 40, 72
15, 33239, Note_on_c, 8, 40, 0
15, 33240, Note_on_c, 8, 41, 72
15, 33299, Note_on_c, 8, 41, 0
15, 33300, Note_on_c, 8, 50, 72
15, 33359, Note_on_c, 8, 50, 0
15, 33360, Note_on_c, 8, 28, 72
15, 33419, Note_on_c, 8, 28, 0
15, 33420, Note_on_c, 8, 40, 72
15, 33449, Note_on_c, 8, 40, 0
15, 33450, Note_on_c, 8, 38, 72
15, 33479, Note_on_c, 8, 38, 0
15, 33480, Note_on_c, 8, 40, 72
15, 33539, Note_on_c, 8, 40, 0
15, 33540, Note_on_c, 8, 43, 72
15, 33599, Note_on_c, 8, 43, 0
15, 33600, Note_on_c, 8, 27, 72
15, 33659, Note_on_c, 8, 27, 0
15, 33660, Note_on_c, 8, 39, 72
15, 33689, Note_on_c, 8, 39, 0
15, 33690, Note_on_c, 8, 38, 72
15, 33719, Note_on_c, 8, 38, 0
15, 33720, Note_on_c, 8, 39, 72
15, 33779, Note_on_c, 8, 39, 0
15, 33780, Note_on_c, 8, 48, 72
15, 33839, Note_on_c, 8, 48, 0
15, 33840, Note_on_c, 8, 38, 72
15, 33899, Note_on_c, 8, 38, 0
15, 33900, Note_on_c, 8, 42, 72
15, 33929, Note_on_c, 8, 42, 0
15, 33930, Note_on_c, 8, 38, 72
15, 33959, Note_on_c, 8, 38, 0
15, 33960, Note_on_c, 8, 43, 72
15, 34019, Note_on_c, 8, 43, 0
15, 34020, Note_on_c, 8, 36, 72
15, 34079, Note_on_c, 8, 36, 0
15, 34080, Note_on_c, 8, 38, 72
15, 34139, Note_on_c, 8, 38, 0
15, 34140, Note_on_c, 8, 46, 72
15, 34169, Note_on_c, 8, 46, 0
15, 34170, Note_on_c, 8, 43, 72
15, 34199, Note_on_c, 8, 43, 0
15, 34200, Note_on_c, 8, 50, 72
15, 34259, Note_on_c, 8, 50, 0
15, 34260, Note_on_c, 8, 38, 72
15, 34319, Note_on_c, 8, 38, 0
15, 34320, Note_on_c, 8, 43, 72
15, 34439, Note_on_c, 8, 43, 0
15, 34680, Note_on_c, 8, 43, 72
15, 34799, Note_on_c, 8, 43, 0
15, 34800, Note_on_c, 8, 39, 72
15, 34919, Note_on_c, 8, 39, 0
15, 34920, Note_on_c, 8, 43, 72
15, 35039, Note_on_c, 8, 43, 0
15, 35040, Note_on_c, 8, 39, 72
15, 35159, Note_on_c, 8, 39, 0
15, 35160, Note_on_c, 8, 35, 72
15, 35279, Note_on_c, 8, 35, 0
15, 35280, Note_on_c, 8, 36, 72
15, 35759, Note_on_c, 8, 36, 0
15, 35760, Note_on_c, 8, 31, 72
15, 36239, Note_on_c, 8, 31, 0
15, 36239, End_track
16, 0, Start_track
16, 0, Title_t, "Soprano "
16, 0, MIDI_port, 0
16, 0, Program_c, 10, 73
16, 0, Control_c, 10, 7, 96
16, 0, Control_c, 10, 10, 24
16, 0, Control_c, 10, 11, 127
16, 720, Note_on_c, 10, 70, 58
16, 899, Note_on_c, 10, 70, 0
16, 900, Note_on_c, 10, 70, 58
16, 959, Note_on_c, 10, 70, 0
16, 960, Note_on_c, 10, 70, 58
16, 1079, Note_on_c, 10, 70, 0
16, 1080, Note_on_c, 10, 70, 58
16, 1199, Note_on_c, 10, 70, 0
16, 1200, Note_on_c, 10, 72, 58
16, 1319, Note_on_c, 10, 72, 0
16, 1320, Note_on_c, 10, 74, 58
16, 1439, Note_on_c, 10, 74, 0
16, 1440, Note_on_c, 10, 75, 58
16, 1679, Note_on_c, 10, 75, 0
16, 1680, Note_on_c, 10, 75, 58
16, 1799, Note_on_c, 10, 75, 0
16, 1800, Note_on_c, 10, 75, 58
16, 1979, Note_on_c, 10, 75, 0
16, 1980, Note_on_c, 10, 75, 58
16, 2039, Note_on_c, 10, 75, 0
16, 2040, Note_on_c, 10, 74, 58
16, 2159, Note_on_c, 10, 74, 0
16, 2160, Note_on_c, 10, 72, 58
16, 2399, Note_on_c, 10, 72, 0
16, 2400, Note_on_c, 10, 72, 58
16, 2519, Note_on_c, 10, 72, 0
16, 2520, Note_on_c, 10, 70, 58
16, 2699, Note_on_c, 10, 70, 0
16, 2700, Note_on_c, 10, 70, 58
16, 2759, Note_on_c, 10, 70, 0
16, 2760, Note_on_c, 10, 70, 58
16, 2879, Note_on_c, 10, 70, 0
16, 2880, Note_on_c, 10, 68, 58
16, 2999, Note_on_c, 10, 68, 0
16, 3000, Note_on_c, 10, 68, 58
16, 3119, Note_on_c, 10, 68, 0
16, 3120, Note_on_c, 10, 68, 58
16, 3239, Note_on_c, 10, 68, 0
16, 3240, Note_on_c, 10, 68, 58
16, 3419, Note_on_c, 10, 68, 0
16, 3420, Note_on_c, 10, 68, 58
16, 3479, Note_on_c, 10, 68, 0
16, 3480, Note_on_c, 10, 67, 58
16, 3599, Note_on_c, 10, 67, 0
16, 3840, Note_on_c, 10, 67, 58
16, 3959, Note_on_c, 10, 67, 0
16, 3960, Note_on_c, 10, 70, 58
16, 4139, Note_on_c, 10, 70, 0
16, 4140, Note_on_c, 10, 69, 58
16, 4199, Note_on_c, 10, 69, 0
16, 4200, Note_on_c, 10, 69, 58
16, 4319, Note_on_c, 10, 69, 0
16, 4320, Note_on_c, 10, 69, 58
16, 4439, Note_on_c, 10, 69, 0
16, 4440, Note_on_c, 10, 69, 58
16, 4559, Note_on_c, 10, 69, 0
16, 4560, Note_on_c, 10, 69, 58
16, 4679, Note_on_c, 10, 69, 0
16, 4680, Note_on_c, 10, 69, 58
16, 4799, Note_on_c, 10, 69, 0
16, 4800, Note_on_c, 10, 71, 58
16, 4919, Note_on_c, 10, 71, 0
16, 4920, Note_on_c, 10, 72, 58
16, 5039, Note_on_c, 10, 72, 0
16, 5040, Note_on_c, 10, 72, 58
16, 5279, Note_on_c, 10, 72, 0
16, 5280, Note_on_c, 10, 71, 58
16, 5399, Note_on_c, 10, 71, 0
16, 5520, Note_on_c, 10, 75, 58
16, 5639, Note_on_c, 10, 75, 0
16, 5640, Note_on_c, 10, 75, 58
16, 5759, Note_on_c, 10, 75, 0
16, 5760, Note_on_c, 10, 75, 58
16, 5939, Note_on_c, 10, 75, 0
16, 5940, Note_on_c, 10, 75, 58
16, 5999, Note_on_c, 10, 75, 0
16, 6000, Note_on_c, 10, 75, 58
16, 6059, Note_on_c, 10, 75, 0
16, 6060, Note_on_c, 10, 75, 58
16, 6119, Note_on_c, 10, 75, 0
16, 6120, Note_on_c, 10, 75, 58
16, 6299, Note_on_c, 10, 75, 0
16, 6300, Note_on_c, 10, 75, 58
16, 6359, Note_on_c, 10, 75, 0
16, 6360, Note_on_c, 10, 75, 58
16, 6479, Note_on_c, 10, 75, 0
16, 6480, Note_on_c, 10, 75, 58
16, 6719, Note_on_c, 10, 75, 0
16, 6720, Note_on_c, 10, 74, 58
16, 6959, Note_on_c, 10, 74, 0
16, 6960, Note_on_c, 10, 72, 58
16, 7139, Note_on_c, 10, 72, 0
16, 7140, Note_on_c, 10, 72, 58
16, 7199, Note_on_c, 10, 72, 0
16, 7200, Note_on_c, 10, 70, 58
16, 7319, Note_on_c, 10, 70, 0
16, 7920, Note_on_c, 10, 77, 88
16, 8219, Note_on_c, 10, 77, 0
16, 8220, Note_on_c, 10, 77, 88
16, 8279, Note_on_c, 10, 77, 0
16, 8280, Note_on_c, 10, 77, 88
16, 8399, Note_on_c, 10, 77, 0
16, 8520, Note_on_c, 10, 65, 58
16, 8639, Note_on_c, 10, 65, 0
16, 8640, Note_on_c, 10, 65, 58
16, 8999, Note_on_c, 10, 65, 0
16, 9000, Note_on_c, 10, 65, 58
16, 9119, Note_on_c, 10, 65, 0
16, 9360, Note_on_c, 10, 77, 88
16, 9719, Note_on_c, 10, 77, 0
16, 9720, Note_on_c, 10, 78, 88
16, 9839, Note_on_c, 10, 78, 0
16, 10080, Note_on_c, 10, 66, 58
16, 10199, Note_on_c, 10, 66, 0
16, 10200, Note_on_c, 10, 65, 58
16, 10379, Note_on_c, 10, 65, 0
16, 10380, Note_on_c, 10, 65, 58
16, 10439, Note_on_c, 10, 65, 0
16, 10440, Note_on_c, 10, 63, 58
16, 10559, Note_on_c, 10, 63, 0
16, 10800, Note_on_c, 10, 77, 88
16, 11159, Note_on_c, 10, 77, 0
16, 11160, Note_on_c, 10, 79, 88
16, 11279, Note_on_c, 10, 79, 0
16, 11400, Note_on_c, 10, 67, 58
16, 11519, Note_on_c, 10, 67, 0
16, 11520, Note_on_c, 10, 67, 58
16, 11639, Note_on_c, 10, 67, 0
16, 11640, Note_on_c, 10, 65, 58
16, 11819, Note_on_c, 10, 65, 0
16, 11820, Note_on_c, 10, 65, 58
16, 11879, Note_on_c, 10, 65, 0
16, 11880, Note_on_c, 10, 64, 58
16, 11999, Note_on_c, 10, 64, 0
16, 12120, Note_on_c, 10, 72, 88
16, 12239, Note_on_c, 10, 72, 0
16, 12240, Note_on_c, 10, 73, 88
16, 12419, Note_on_c, 10, 73, 0
16, 12420, Note_on_c, 10, 73, 88
16, 12479, Note_on_c, 10, 73, 0
16, 12480, Note_on_c, 10, 73, 88
16, 12599, Note_on_c, 10, 73, 0
16, 12600, Note_on_c, 10, 73, 58
16, 12719, Note_on_c, 10, 73, 0
16, 12720, Note_on_c, 10, 73, 58
16, 12839, Note_on_c, 10, 73, 0
16, 12840, Note_on_c, 10, 73, 58
16, 12959, Note_on_c, 10, 73, 0
16, 12960, Note_on_c, 10, 73, 58
16, 13079, Note_on_c, 10, 73, 0
16, 13080, Note_on_c, 10, 74, 58
16, 13199, Note_on_c, 10, 74, 0
16, 13200, Note_on_c, 10, 74, 58
16, 13319, Note_on_c, 10, 74, 0
16, 13320, Note_on_c, 10, 74, 58
16, 13559, Note_on_c, 10, 74, 0
16, 13560, Note_on_c, 10, 73, 58
16, 13679, Note_on_c, 10, 73, 0
16, 13800, Note_on_c, 10, 77, 88
16, 13919, Note_on_c, 10, 77, 0
16, 13920, Note_on_c, 10, 77, 88
16, 14039, Note_on_c, 10, 77, 0
16, 14040, Note_on_c, 10, 77, 88
16, 14219, Note_on_c, 10, 77, 0
16, 14220, Note_on_c, 10, 77, 88
16, 14279, Note_on_c, 10, 77, 0
16, 14280, Note_on_c, 10, 77, 88
16, 14399, Note_on_c, 10, 77, 0
16, 14400, Note_on_c, 10, 77, 88
16, 14579, Note_on_c, 10, 77, 0
16, 14580, Note_on_c, 10, 77, 88
16, 14639, Note_on_c, 10, 77, 0
16, 14640, Note_on_c, 10, 77, 88
16, 14699, Note_on_c, 10, 77, 0
16, 14700, Note_on_c, 10, 77, 88
16, 14759, Note_on_c, 10, 77, 0
16, 14760, Note_on_c, 10, 77, 88
16, 14939, Note_on_c, 10, 77, 0
16, 14940, Note_on_c, 10, 77, 88
16, 14999, Note_on_c, 10, 77, 0
16, 15000, Note_on_c, 10, 75, 88
16, 15239, Note_on_c, 10, 75, 0
16, 15240, Note_on_c, 10, 75, 88
16, 15359, Note_on_c, 10, 75, 0
16, 15360, Note_on_c, 10, 74, 88
16, 15419, Note_on_c, 10, 74, 0
16, 15420, Note_on_c, 10, 74, 88
16, 15479, Note_on_c, 10, 74, 0
16, 15480, Note_on_c, 10, 75, 88
16, 15599, Note_on_c, 10, 75, 0
16, 16200, Note_on_c, 10, 70, 58
16, 16559, Note_on_c, 10, 70, 0
16, 16560, Note_on_c, 10, 71, 58
16, 16799, Note_on_c, 10, 71, 0
16, 16800, Note_on_c, 10, 71, 58
16, 16919, Note_on_c, 10, 71, 0
16, 16920, Note_on_c, 10, 72, 58
16, 17099, Note_on_c, 10, 72, 0
16, 17100, Note_on_c, 10, 72, 58
16, 17159, Note_on_c, 10, 72, 0
16, 17160, Note_on_c, 10, 74, 58
16, 17219, Note_on_c, 10, 74, 0
16, 17220, Note_on_c, 10, 74, 58
16, 17279, Note_on_c, 10, 74, 0
16, 17280, Note_on_c, 10, 75, 58
16, 17759, Note_on_c, 10, 75, 0
16, 17760, Note_on_c, 10, 74, 58
16, 17879, Note_on_c, 10, 74, 0
16, 17880, Note_on_c, 10, 72, 58
16, 17999, Note_on_c, 10, 72, 0
16, 18000, Note_on_c, 10, 70, 58
16, 18119, Note_on_c, 10, 70, 0
16, 18120, Note_on_c, 10, 70, 58
16, 18239, Note_on_c, 10, 70, 0
16, 18240, Note_on_c, 10, 70, 58
16, 18359, Note_on_c, 10, 70, 0
16, 18360, Note_on_c, 10, 70, 58
16, 18719, Note_on_c, 10, 70, 0
16, 18720, Note_on_c, 10, 69, 58
16, 18839, Note_on_c, 10, 69, 0
16, 19440, Control_c, 10, 10, 24
16, 22140, Note_on_c, 10, 74, 88
16, 22199, Note_on_c, 10, 74, 0
16, 22200, Note_on_c, 10, 74, 88
16, 22259, Note_on_c, 10, 74, 0
16, 22260, Note_on_c, 10, 74, 88
16, 22319, Note_on_c, 10, 74, 0
16, 22320, Note_on_c, 10, 74, 88
16, 22409, Note_on_c, 10, 74, 0
16, 22410, Note_on_c, 10, 73, 88
16, 22439, Note_on_c, 10, 73, 0
16, 22440, Note_on_c, 10, 73, 88
16, 22559, Note_on_c, 10, 73, 0
16, 22620, Note_on_c, 10, 79, 88
16, 22739, Note_on_c, 10, 79, 0
16, 22740, Note_on_c, 10, 79, 88
16, 22799, Note_on_c, 10, 79, 0
16, 22800, Note_on_c, 10, 79, 88
16, 22919, Note_on_c, 10, 79, 0
16, 22920, Note_on_c, 10, 78, 88
16, 23039, Note_on_c, 10, 78, 0
16, 23100, Note_on_c, 10, 77, 88
16, 23159, Note_on_c, 10, 77, 0
16, 23160, Note_on_c, 10, 77, 88
16, 23219, Note_on_c, 10, 77, 0
16, 23220, Note_on_c, 10, 77, 88
16, 23279, Note_on_c, 10, 77, 0
16, 23280, Note_on_c, 10, 77, 88
16, 23369, Note_on_c, 10, 77, 0
16, 23370, Note_on_c, 10, 76, 88
16, 23399, Note_on_c, 10, 76, 0
16, 23400, Note_on_c, 10, 76, 88
16, 23519, Note_on_c, 10, 76, 0
16, 23580, Note_on_c, 10, 75, 88
16, 23699, Note_on_c, 10, 75, 0
16, 23700, Note_on_c, 10, 75, 88
16, 23759, Note_on_c, 10, 75, 0
16, 23760, Note_on_c, 10, 75, 88
16, 23879, Note_on_c, 10, 75, 0
16, 23880, Note_on_c, 10, 74, 88
16, 23999, Note_on_c, 10, 74, 0
16, 24780, Note_on_c, 10, 77, 88
16, 24899, Note_on_c, 10, 77, 0
16, 24900, Note_on_c, 10, 77, 88
16, 24959, Note_on_c, 10, 77, 0
16, 24960, Note_on_c, 10, 77, 88
16, 25079, Note_on_c, 10, 77, 0
16, 25080, Note_on_c, 10, 75, 88
16, 25199, Note_on_c, 10, 75, 0
16, 25980, Note_on_c, 10, 76, 88
16, 26039, Note_on_c, 10, 76, 0
16, 26040, Note_on_c, 10, 73, 88
16, 26099, Note_on_c, 10, 73, 0
16, 26100, Note_on_c, 10, 74, 88
16, 26129, Note_on_c, 10, 74, 0
16, 26130, Note_on_c, 10, 76, 88
16, 26159, Note_on_c, 10, 76, 0
16, 26160, Note_on_c, 10, 69, 88
16, 26279, Note_on_c, 10, 69, 0
16, 26280, Note_on_c, 10, 74, 88
16, 26399, Note_on_c, 10, 74, 0
16, 26460, Note_on_c, 10, 74, 88
16, 26519, Note_on_c, 10, 74, 0
16, 26520, Note_on_c, 10, 72, 88
16, 26579, Note_on_c, 10, 72, 0
16, 26580, Note_on_c, 10, 79, 88
16, 26639, Note_on_c, 10, 79, 0
16, 26640, Note_on_c, 10, 77, 88
16, 26729, Note_on_c, 10, 77, 0
16, 26730, Note_on_c, 10, 69, 88
16, 26759, Note_on_c, 10, 69, 0
16, 26760, Note_on_c, 10, 70, 88
16, 26879, Note_on_c, 10, 70, 0
16, 26940, Note_on_c, 10, 70, 88
16, 26999, Note_on_c, 10, 70, 0
16, 27000, Note_on_c, 10, 69, 88
16, 27059, Note_on_c, 10, 69, 0
16, 27060, Note_on_c, 10, 75, 88
16, 27119, Note_on_c, 10, 75, 0
16, 27120, Note_on_c, 10, 74, 88
16, 27179, Note_on_c, 10, 74, 0
16, 27180, Note_on_c, 10, 66, 88
16, 27239, Note_on_c, 10, 66, 0
16, 27240, Note_on_c, 10, 67, 88
16, 27299, Note_on_c, 10, 67, 0
16, 27300, Note_on_c, 10, 74, 88
16, 27359, Note_on_c, 10, 74, 0
16, 27360, Note_on_c, 10, 74, 88
16, 27479, Note_on_c, 10, 74, 0
16, 27480, Note_on_c, 10, 73, 88
16, 27599, Note_on_c, 10, 73, 0
16, 27600, Note_on_c, 10, 74, 88
16, 27659, Note_on_c, 10, 74, 0
16, 27660, Note_on_c, 10, 74, 88
16, 27719, Note_on_c, 10, 74, 0
16, 27720, Note_on_c, 10, 74, 88
16, 27779, Note_on_c, 10, 74, 0
16, 27780, Note_on_c, 10, 74, 88
16, 27839, Note_on_c, 10, 74, 0
16, 27840, Note_on_c, 10, 74, 88
16, 27929, Note_on_c, 10, 74, 0
16, 27930, Note_on_c, 10, 75, 88
16, 27959, Note_on_c, 10, 75, 0
16, 27960, Note_on_c, 10, 75, 88
16, 28079, Note_on_c, 10, 75, 0
16, 28140, Note_on_c, 10, 72, 88
16, 28259, Note_on_c, 10, 72, 0
16, 28260, Note_on_c, 10, 72, 88
16, 28319, Note_on_c, 10, 72, 0
16, 28320, Note_on_c, 10, 72, 88
16, 28439, Note_on_c, 10, 72, 0
16, 28440, Note_on_c, 10, 74, 88
16, 28559, Note_on_c, 10, 74, 0
16, 28620, Note_on_c, 10, 70, 88
16, 28679, Note_on_c, 10, 70, 0
16, 28680, Note_on_c, 10, 70, 88
16, 28739, Note_on_c, 10, 70, 0
16, 28740, Note_on_c, 10, 70, 88
16, 28799, Note_on_c, 10, 70, 0
16, 28800, Note_on_c, 10, 70, 88
16, 28889, Note_on_c, 10, 70, 0
16, 28890, Note_on_c, 10, 72, 88
16, 28919, Note_on_c, 10, 72, 0
16, 28920, Note_on_c, 10, 72, 88
16, 29039, Note_on_c, 10, 72, 0
16, 29100, Note_on_c, 10, 69, 88
16, 29219, Note_on_c, 10, 69, 0
16, 29220, Note_on_c, 10, 69, 88
16, 29279, Note_on_c, 10, 69, 0
16, 29280, Note_on_c, 10, 69, 88
16, 29339, Note_on_c, 10, 69, 0
16, 29340, Note_on_c, 10, 70, 88
16, 29399, Note_on_c, 10, 70, 0
16, 29400, Note_on_c, 10, 70, 88
16, 29519, Note_on_c, 10, 70, 0
16, 29640, Note_on_c, 10, 76, 58
16, 29759, Note_on_c, 10, 76, 0
16, 29760, Note_on_c, 10, 67, 58
16, 29999, Note_on_c, 10, 67, 0
16, 30000, Note_on_c, 10, 66, 58
16, 30119, Note_on_c, 10, 66, 0
16, 30120, Note_on_c, 10, 67, 58
16, 30179, Note_on_c, 10, 67, 0
16, 30180, Note_on_c, 10, 67, 58
16, 30239, Note_on_c, 10, 67, 0
16, 30240, Note_on_c, 10, 67, 58
16, 30359, Note_on_c, 10, 67, 0
16, 30360, Note_on_c, 10, 66, 58
16, 30479, Note_on_c, 10, 66, 0
16, 30480, Note_on_c, 10, 67, 58
16, 30599, Note_on_c, 10, 67, 0
16, 30600, Note_on_c, 10, 74, 58
16, 30719, Note_on_c, 10, 74, 0
16, 30720, Note_on_c, 10, 79, 58
16, 31079, Note_on_c, 10, 79, 0
16, 31080, Note_on_c, 10, 72, 58
16, 31139, Note_on_c, 10, 72, 0
16, 31140, Note_on_c, 10, 72, 58
16, 31199, Note_on_c, 10, 72, 0
16, 31200, Note_on_c, 10, 77, 58
16, 31499, Note_on_c, 10, 77, 0
16, 31500, Note_on_c, 10, 70, 58
16, 31559, Note_on_c, 10, 70, 0
16, 31560, Note_on_c, 10, 75, 58
16, 31619, Note_on_c, 10, 75, 0
16, 31620, Note_on_c, 10, 74, 58
16, 31679, Note_on_c, 10, 74, 0
16, 31680, Note_on_c, 10, 72, 58
16, 31739, Note_on_c, 10, 72, 0
16, 31740, Note_on_c, 10, 70, 58
16, 31799, Note_on_c, 10, 70, 0
16, 31800, Note_on_c, 10, 69, 58
16, 31859, Note_on_c, 10, 69, 0
16, 31860, Note_on_c, 10, 67, 58
16, 31919, Note_on_c, 10, 67, 0
16, 31920, Note_on_c, 10, 66, 58
16, 32039, Note_on_c, 10, 66, 0
16, 32040, Note_on_c, 10, 67, 58
16, 32099, Note_on_c, 10, 67, 0
16, 32100, Note_on_c, 10, 69, 58
16, 32159, Note_on_c, 10, 69, 0
16, 32160, Note_on_c, 10, 70, 58
16, 32279, Note_on_c, 10, 70, 0
16, 32280, Note_on_c, 10, 69, 58
16, 32399, Note_on_c, 10, 69, 0
16, 32400, Note_on_c, 10, 67, 58
16, 32519, Note_on_c, 10, 67, 0
16, 32700, Note_on_c, 10, 75, 88
16, 32759, Note_on_c, 10, 75, 0
16, 32760, Note_on_c, 10, 79, 88
16, 32819, Note_on_c, 10, 79, 0
16, 32820, Note_on_c, 10, 75, 88
16, 32879, Note_on_c, 10, 75, 0
16, 32880, Note_on_c, 10, 81, 88
16, 32969, Note_on_c, 10, 81, 0
16, 32970, Note_on_c, 10, 74, 88
16, 32999, Note_on_c, 10, 74, 0
16, 33000, Note_on_c, 10, 74, 88
16, 33119, Note_on_c, 10, 74, 0
16, 33180, Note_on_c, 10, 74, 88
16, 33239, Note_on_c, 10, 74, 0
16, 33240, Note_on_c, 10, 77, 88
16, 33299, Note_on_c, 10, 77, 0
16, 33300, Note_on_c, 10, 74, 88
16, 33359, Note_on_c, 10, 74, 0
16, 33360, Note_on_c, 10, 79, 88
16, 33479, Note_on_c, 10, 79, 0
16, 33480, Note_on_c, 10, 72, 88
16, 33599, Note_on_c, 10, 72, 0
16, 33660, Note_on_c, 10, 72, 88
16, 33719, Note_on_c, 10, 72, 0
16, 33720, Note_on_c, 10, 72, 88
16, 33779, Note_on_c, 10, 72, 0
16, 33780, Note_on_c, 10, 72, 88
16, 33839, Note_on_c, 10, 72, 0
16, 33840, Note_on_c, 10, 72, 88
16, 33899, Note_on_c, 10, 72, 0
16, 33900, Note_on_c, 10, 74, 88
16, 33929, Note_on_c, 10, 74, 0
16, 33930, Note_on_c, 10, 74, 88
16, 33959, Note_on_c, 10, 74, 0
16, 33960, Note_on_c, 10, 70, 88
16, 34019, Note_on_c, 10, 70, 0
16, 34020, Note_on_c, 10, 69, 88
16, 34079, Note_on_c, 10, 69, 0
16, 34080, Note_on_c, 10, 70, 88
16, 34199, Note_on_c, 10, 70, 0
16, 34200, Note_on_c, 10, 69, 88
16, 34319, Note_on_c, 10, 69, 0
16, 34320, Note_on_c, 10, 67, 88
16, 34439, Note_on_c, 10, 67, 0
16, 34440, Note_on_c, 10, 67, 88
16, 34559, Note_on_c, 10, 67, 0
16, 34560, Note_on_c, 10, 67, 88
16, 35039, Note_on_c, 10, 67, 0
16, 35040, Note_on_c, 10, 67, 88
16, 35159, Note_on_c, 10, 67, 0
16, 35160, Note_on_c, 10, 67, 88
16, 35279, Note_on_c, 10, 67, 0
16, 35280, Note_on_c, 10, 67, 88
16, 35759, Note_on_c, 10, 67, 0
16, 35760, Note_on_c, 10, 67, 88
16, 36239, Note_on_c, 10, 67, 0
16, 36239, End_track
17, 0, Start_track
17, 0, Title_t, "Alto "
17, 0, MIDI_port, 0
17, 0, Program_c, 11, 73
17, 0, Control_c, 11, 7, 96
17, 0, Control_c, 11, 10, 96
17, 0, Control_c, 11, 11, 127
17, 720, Note_on_c, 11, 67, 58
17, 899, Note_on_c, 11, 67, 0
17, 900, Note_on_c, 11, 67, 58
17, 959, Note_on_c, 11, 67, 0
17, 960, Note_on_c, 11, 67, 58
17, 1079, Note_on_c, 11, 67, 0
17, 1080, Note_on_c, 11, 65, 58
17, 1199, Note_on_c, 11, 65, 0
17, 1200, Note_on_c, 11, 65, 58
17, 1319, Note_on_c, 11, 65, 0
17, 1320, Note_on_c, 11, 65, 58
17, 1439, Note_on_c, 11, 65, 0
17, 1440, Note_on_c, 11, 67, 58
17, 1679, Note_on_c, 11, 67, 0
17, 1680, Note_on_c, 11, 65, 58
17, 1799, Note_on_c, 11, 65, 0
17, 1800, Note_on_c, 11, 65, 58
17, 1979, Note_on_c, 11, 65, 0
17, 1980, Note_on_c, 11, 65, 58
17, 2039, Note_on_c, 11, 65, 0
17, 2040, Note_on_c, 11, 65, 58
17, 2159, Note_on_c, 11, 65, 0
17, 2160, Note_on_c, 11, 67, 58
17, 2399, Note_on_c, 11, 67, 0
17, 2400, Note_on_c, 11, 68, 58
17, 2519, Note_on_c, 11, 68, 0
17, 2520, Note_on_c, 11, 65, 58
17, 2699, Note_on_c, 11, 65, 0
17, 2700, Note_on_c, 11, 65, 58
17, 2759, Note_on_c, 11, 65, 0
17, 2760, Note_on_c, 11, 67, 58
17, 2879, Note_on_c, 11, 67, 0
17, 2880, Note_on_c, 11, 67, 58
17, 2999, Note_on_c, 11, 67, 0
17, 3000, Note_on_c, 11, 65, 58
17, 3119, Note_on_c, 11, 65, 0
17, 3120, Note_on_c, 11, 65, 58
17, 3239, Note_on_c, 11, 65, 0
17, 3240, Note_on_c, 11, 65, 58
17, 3419, Note_on_c, 11, 65, 0
17, 3420, Note_on_c, 11, 65, 58
17, 3479, Note_on_c, 11, 65, 0
17, 3480, Note_on_c, 11, 63, 58
17, 3599, Note_on_c, 11, 63, 0
17, 3840, Note_on_c, 11, 63, 58
17, 3959, Note_on_c, 11, 63, 0
17, 3960, Note_on_c, 11, 65, 58
17, 4139, Note_on_c, 11, 65, 0
17, 4140, Note_on_c, 11, 65, 58
17, 4199, Note_on_c, 11, 65, 0
17, 4200, Note_on_c, 11, 65, 58
17, 4319, Note_on_c, 11, 65, 0
17, 4320, Note_on_c, 11, 65, 58
17, 4439, Note_on_c, 11, 65, 0
17, 4440, Note_on_c, 11, 65, 58
17, 4559, Note_on_c, 11, 65, 0
17, 4560, Note_on_c, 11, 65, 58
17, 4679, Note_on_c, 11, 65, 0
17, 4680, Note_on_c, 11, 65, 58
17, 4919, Note_on_c, 11, 65, 0
17, 4920, Note_on_c, 11, 67, 58
17, 5039, Note_on_c, 11, 67, 0
17, 5040, Note_on_c, 11, 67, 58
17, 5279, Note_on_c, 11, 67, 0
17, 5280, Note_on_c, 11, 67, 58
17, 5399, Note_on_c, 11, 67, 0
17, 5520, Note_on_c, 11, 67, 58
17, 5639, Note_on_c, 11, 67, 0
17, 5640, Note_on_c, 11, 67, 58
17, 5759, Note_on_c, 11, 67, 0
17, 5760, Note_on_c, 11, 68, 58
17, 5939, Note_on_c, 11, 68, 0
17, 5940, Note_on_c, 11, 68, 58
17, 5999, Note_on_c, 11, 68, 0
17, 6000, Note_on_c, 11, 68, 58
17, 6119, Note_on_c, 11, 68, 0
17, 6120, Note_on_c, 11, 70, 58
17, 6299, Note_on_c, 11, 70, 0
17, 6300, Note_on_c, 11, 70, 58
17, 6359, Note_on_c, 11, 70, 0
17, 6360, Note_on_c, 11, 68, 58
17, 6419, Note_on_c, 11, 68, 0
17, 6420, Note_on_c, 11, 68, 58
17, 6479, Note_on_c, 11, 68, 0
17, 6480, Note_on_c, 11, 65, 58
17, 6659, Note_on_c, 11, 65, 0
17, 6660, Note_on_c, 11, 65, 58
17, 6719, Note_on_c, 11, 65, 0
17, 6720, Note_on_c, 11, 65, 58
17, 6959, Note_on_c, 11, 65, 0
17, 6960, Note_on_c, 11, 65, 58
17, 7139, Note_on_c, 11, 65, 0
17, 7140, Note_on_c, 11, 65, 58
17, 7199, Note_on_c, 11, 65, 0
17, 7200, Note_on_c, 11, 65, 58
17, 7319, Note_on_c, 11, 65, 0
17, 7920, Note_on_c, 11, 70, 88
17, 8219, Note_on_c, 11, 70, 0
17, 8220, Note_on_c, 11, 70, 88
17, 8279, Note_on_c, 11, 70, 0
17, 8280, Note_on_c, 11, 72, 88
17, 8399, Note_on_c, 11, 72, 0
17, 8520, Note_on_c, 11, 63, 58
17, 8639, Note_on_c, 11, 63, 0
17, 8640, Note_on_c, 11, 63, 58
17, 8879, Note_on_c, 11, 63, 0
17, 8880, Note_on_c, 11, 61, 58
17, 8999, Note_on_c, 11, 61, 0
17, 9000, Note_on_c, 11, 60, 58
17, 9119, Note_on_c, 11, 60, 0
17, 9360, Note_on_c, 11, 68, 88
17, 9719, Note_on_c, 11, 68, 0
17, 9720, Note_on_c, 11, 68, 88
17, 9839, Note_on_c, 11, 68, 0
17, 10080, Note_on_c, 11, 63, 58
17, 10199, Note_on_c, 11, 63, 0
17, 10200, Note_on_c, 11, 61, 58
17, 10379, Note_on_c, 11, 61, 0
17, 10380, Note_on_c, 11, 61, 58
17, 10439, Note_on_c, 11, 61, 0
17, 10440, Note_on_c, 11, 60, 58
17, 10559, Note_on_c, 11, 60, 0
17, 10800, Note_on_c, 11, 68, 88
17, 11159, Note_on_c, 11, 68, 0
17, 11160, Note_on_c, 11, 70, 88
17, 11279, Note_on_c, 11, 70, 0
17, 11400, Note_on_c, 11, 60, 58
17, 11519, Note_on_c, 11, 60, 0
17, 11520, Note_on_c, 11, 60, 58
17, 11819, Note_on_c, 11, 60, 0
17, 11820, Note_on_c, 11, 60, 58
17, 11879, Note_on_c, 11, 60, 0
17, 11880, Note_on_c, 11, 60, 58
17, 11999, Note_on_c, 11, 60, 0
17, 12120, Note_on_c, 11, 67, 88
17, 12239, Note_on_c, 11, 67, 0
17, 12240, Note_on_c, 11, 67, 88
17, 12419, Note_on_c, 11, 67, 0
17, 12420, Note_on_c, 11, 67, 88
17, 12479, Note_on_c, 11, 67, 0
17, 12480, Note_on_c, 11, 67, 88
17, 12599, Note_on_c, 11, 67, 0
17, 12600, Note_on_c, 11, 67, 58
17, 12719, Note_on_c, 11, 67, 0
17, 12720, Note_on_c, 11, 67, 58
17, 12839, Note_on_c, 11, 67, 0
17, 12840, Note_on_c, 11, 67, 58
17, 12959, Note_on_c, 11, 67, 0
17, 12960, Note_on_c, 11, 67, 58
17, 13079, Note_on_c, 11, 67, 0
17, 13080, Note_on_c, 11, 68, 58
17, 13199, Note_on_c, 11, 68, 0
17, 13200, Note_on_c, 11, 68, 58
17, 13319, Note_on_c, 11, 68, 0
17, 13320, Note_on_c, 11, 69, 58
17, 13559, Note_on_c, 11, 69, 0
17, 13560, Note_on_c, 11, 69, 58
17, 13679, Note_on_c, 11, 69, 0
17, 13800, Note_on_c, 11, 69, 88
17, 13919, Note_on_c, 11, 69, 0
17, 13920, Note_on_c, 11, 69, 88
17, 14039, Note_on_c, 11, 69, 0
17, 14040, Note_on_c, 11, 69, 88
17, 14219, Note_on_c, 11, 69, 0
17, 14220, Note_on_c, 11, 69, 88
17, 14279, Note_on_c, 11, 69, 0
17, 14280, Note_on_c, 11, 69, 88
17, 14339, Note_on_c, 11, 69, 0
17, 14340, Note_on_c, 11, 69, 88
17, 14399, Note_on_c, 11, 69, 0
17, 14400, Note_on_c, 11, 69, 88
17, 14579, Note_on_c, 11, 69, 0
17, 14580, Note_on_c, 11, 69, 88
17, 14639, Note_on_c, 11, 69, 0
17, 14640, Note_on_c, 11, 69, 88
17, 14759, Note_on_c, 11, 69, 0
17, 14760, Note_on_c, 11, 68, 88
17, 14999, Note_on_c, 11, 68, 0
17, 15000, Note_on_c, 11, 67, 88
17, 15239, Note_on_c, 11, 67, 0
17, 15240, Note_on_c, 11, 65, 88
17, 15419, Note_on_c, 11, 65, 0
17, 15420, Note_on_c, 11, 65, 88
17, 15479, Note_on_c, 11, 65, 0
17, 15480, Note_on_c, 11, 63, 88
17, 15599, Note_on_c, 11, 63, 0
17, 16200, Note_on_c, 11, 63, 58
17, 16559, Note_on_c, 11, 63, 0
17, 16560, Note_on_c, 11, 65, 58
17, 16799, Note_on_c, 11, 65, 0
17, 16800, Note_on_c, 11, 65, 58
17, 16919, Note_on_c, 11, 65, 0
17, 16920, Note_on_c, 11, 63, 58
17, 17099, Note_on_c, 11, 63, 0
17, 17100, Note_on_c, 11, 63, 58
17, 17159, Note_on_c, 11, 63, 0
17, 17160, Note_on_c, 11, 67, 58
17, 17219, Note_on_c, 11, 67, 0
17, 17220, Note_on_c, 11, 67, 58
17, 17279, Note_on_c, 11, 67, 0
17, 17280, Note_on_c, 11, 67, 58
17, 17399, Note_on_c, 11, 67, 0
17, 17400, Note_on_c, 11, 66, 58
17, 17519, Note_on_c, 11, 66, 0
17, 17520, Note_on_c, 11, 67, 58
17, 17639, Note_on_c, 11, 67, 0
17, 17640, Note_on_c, 11, 69, 58
17, 18119, Note_on_c, 11, 69, 0
17, 18120, Note_on_c, 11, 67, 58
17, 18239, Note_on_c, 11, 67, 0
17, 18240, Note_on_c, 11, 67, 58
17, 18359, Note_on_c, 11, 67, 0
17, 18360, Note_on_c, 11, 67, 58
17, 18719, Note_on_c, 11, 67, 0
17, 18720, Note_on_c, 11, 66, 58
17, 18839, Note_on_c, 11, 66, 0
17, 19440, Control_c, 11, 10, 96
17, 21420, Note_on_c, 11, 67, 88
17, 21479, Note_on_c, 11, 67, 0
17, 21480, Note_on_c, 11, 67, 88
17, 21539, Note_on_c, 11, 67, 0
17, 21540, Note_on_c, 11, 67, 88
17, 21599, Note_on_c, 11, 67, 0
17, 21600, Note_on_c, 11, 67, 88
17, 21689, Note_on_c, 11, 67, 0
17, 21690, Note_on_c, 11, 66, 88
17, 21719, Note_on_c, 11, 66, 0
17, 21720, Note_on_c, 11, 66, 88
17, 21839, Note_on_c, 11, 66, 0
17, 21900, Note_on_c, 11, 72, 88
17, 22019, Note_on_c, 11, 72, 0
17, 22020, Note_on_c, 11, 72, 88
17, 22079, Note_on_c, 11, 72, 0
17, 22080, Note_on_c, 11, 72, 88
17, 22199, Note_on_c, 11, 72, 0
17, 22200, Note_on_c, 11, 70, 88
17, 22319, Note_on_c, 11, 70, 0
17, 22380, Note_on_c, 11, 70, 88
17, 22439, Note_on_c, 11, 70, 0
17, 22440, Note_on_c, 11, 67, 88
17, 22499, Note_on_c, 11, 67, 0
17, 22500, Note_on_c, 11, 69, 88
17, 22529, Note_on_c, 11, 69, 0
17, 22530, Note_on_c, 11, 70, 88
17, 22559, Note_on_c, 11, 70, 0
17, 22560, Note_on_c, 11, 64, 88
17, 22679, Note_on_c, 11, 64, 0
17, 22680, Note_on_c, 11, 69, 88
17, 22799, Note_on_c, 11, 69, 0
17, 22860, Note_on_c, 11, 72, 88
17, 22919, Note_on_c, 11, 72, 0
17, 22920, Note_on_c, 11, 72, 88
17, 22979, Note_on_c, 11, 72, 0
17, 22980, Note_on_c, 11, 72, 88
17, 23039, Note_on_c, 11, 72, 0
17, 23040, Note_on_c, 11, 72, 88
17, 23129, Note_on_c, 11, 72, 0
17, 23130, Note_on_c, 11, 71, 88
17, 23159, Note_on_c, 11, 71, 0
17, 23160, Note_on_c, 11, 71, 88
17, 23279, Note_on_c, 11, 71, 0
17, 23340, Note_on_c, 11, 70, 88
17, 23459, Note_on_c, 11, 70, 0
17, 23460, Note_on_c, 11, 70, 88
17, 23519, Note_on_c, 11, 70, 0
17, 23520, Note_on_c, 11, 70, 88
17, 23639, Note_on_c, 11, 70, 0
17, 23640, Note_on_c, 11, 69, 88
17, 23759, Note_on_c, 11, 69, 0
17, 24060, Note_on_c, 11, 67, 88
17, 24119, Note_on_c, 11, 67, 0
17, 24120, Note_on_c, 11, 63, 88
17, 24179, Note_on_c, 11, 63, 0
17, 24180, Note_on_c, 11, 65, 88
17, 24209, Note_on_c, 11, 65, 0
17, 24210, Note_on_c, 11, 67, 88
17, 24239, Note_on_c, 11, 67, 0
17, 24240, Note_on_c, 11, 60, 88
17, 24359, Note_on_c, 11, 60, 0
17, 24360, Note_on_c, 11, 65, 88
17, 24479, Note_on_c, 11, 65, 0
17, 24540, Note_on_c, 11, 72, 88
17, 24599, Note_on_c, 11, 72, 0
17, 24600, Note_on_c, 11, 72, 88
17, 24659, Note_on_c, 11, 72, 0
17, 24660, Note_on_c, 11, 72, 88
17, 24719, Note_on_c, 11, 72, 0
17, 24720, Note_on_c, 11, 72, 88
17, 24809, Note_on_c, 11, 72, 0
17, 24810, Note_on_c, 11, 71, 88
17, 24839, Note_on_c, 11, 71, 0
17, 24840, Note_on_c, 11, 71, 88
17, 24959, Note_on_c, 11, 71, 0
17, 25260, Note_on_c, 11, 68, 88
17, 25319, Note_on_c, 11, 68, 0
17, 25320, Note_on_c, 11, 65, 88
17, 25379, Note_on_c, 11, 65, 0
17, 25380, Note_on_c, 11, 67, 88
17, 25409, Note_on_c, 11, 67, 0
17, 25410, Note_on_c, 11, 68, 88
17, 25439, Note_on_c, 11, 68, 0
17, 25440, Note_on_c, 11, 62, 88
17, 25559, Note_on_c, 11, 62, 0
17, 25560, Note_on_c, 11, 67, 88
17, 25679, Note_on_c, 11, 67, 0
17, 25740, Note_on_c, 11, 74, 88
17, 25859, Note_on_c, 11, 74, 0
17, 25860, Note_on_c, 11, 74, 88
17, 25919, Note_on_c, 11, 74, 0
17, 25920, Note_on_c, 11, 74, 88
17, 26039, Note_on_c, 11, 74, 0
17, 26040, Note_on_c, 11, 73, 88
17, 26159, Note_on_c, 11, 73, 0
17, 26460, Note_on_c, 11, 67, 88
17, 26519, Note_on_c, 11, 67, 0
17, 26520, Note_on_c, 11, 67, 88
17, 26579, Note_on_c, 11, 67, 0
17, 26580, Note_on_c, 11, 69, 88
17, 26639, Note_on_c, 11, 69, 0
17, 26640, Note_on_c, 11, 69, 88
17, 26729, Note_on_c, 11, 69, 0
17, 26730, Note_on_c, 11, 72, 88
17, 26759, Note_on_c, 11, 72, 0
17, 26760, Note_on_c, 11, 70, 88
17, 26879, Note_on_c, 11, 70, 0
17, 26940, Note_on_c, 11, 67, 88
17, 26999, Note_on_c, 11, 67, 0
17, 27000, Note_on_c, 11, 66, 88
17, 27059, Note_on_c, 11, 66, 0
17, 27060, Note_on_c, 11, 66, 88
17, 27119, Note_on_c, 11, 66, 0
17, 27120, Note_on_c, 11, 66, 88
17, 27179, Note_on_c, 11, 66, 0
17, 27180, Note_on_c, 11, 72, 88
17, 27239, Note_on_c, 11, 72, 0
17, 27240, Note_on_c, 11, 70, 88
17, 27299, Note_on_c, 11, 70, 0
17, 27300, Note_on_c, 11, 70, 88
17, 27359, Note_on_c, 11, 70, 0
17, 27360, Note_on_c, 11, 70, 88
17, 27479, Note_on_c, 11, 70, 0
17, 27480, Note_on_c, 11, 69, 88
17, 27539, Note_on_c, 11, 69, 0
17, 27540, Note_on_c, 11, 67, 88
17, 27599, Note_on_c, 11, 67, 0
17, 27600, Note_on_c, 11, 66, 88
17, 27719, Note_on_c, 11, 66, 0
17, 27900, Note_on_c, 11, 67, 88
17, 27959, Note_on_c, 11, 67, 0
17, 27960, Note_on_c, 11, 67, 88
17, 28019, Note_on_c, 11, 67, 0
17, 28020, Note_on_c, 11, 67, 88
17, 28079, Note_on_c, 11, 67, 0
17, 28080, Note_on_c, 11, 67, 88
17, 28169, Note_on_c, 11, 67, 0
17, 28170, Note_on_c, 11, 69, 88
17, 28199, Note_on_c, 11, 69, 0
17, 28200, Note_on_c, 11, 69, 88
17, 28319, Note_on_c, 11, 69, 0
17, 28380, Note_on_c, 11, 66, 88
17, 28499, Note_on_c, 11, 66, 0
17, 28500, Note_on_c, 11, 66, 88
17, 28559, Note_on_c, 11, 66, 0
17, 28560, Note_on_c, 11, 66, 88
17, 28619, Note_on_c, 11, 66, 0
17, 28620, Note_on_c, 11, 67, 88
17, 28679, Note_on_c, 11, 67, 0
17, 28680, Note_on_c, 11, 67, 88
17, 28799, Note_on_c, 11, 67, 0
17, 28860, Note_on_c, 11, 64, 88
17, 28919, Note_on_c, 11, 64, 0
17, 28920, Note_on_c, 11, 64, 88
17, 28979, Note_on_c, 11, 64, 0
17, 28980, Note_on_c, 11, 64, 88
17, 29039, Note_on_c, 11, 64, 0
17, 29040, Note_on_c, 11, 64, 88
17, 29129, Note_on_c, 11, 64, 0
17, 29130, Note_on_c, 11, 66, 88
17, 29159, Note_on_c, 11, 66, 0
17, 29160, Note_on_c, 11, 66, 88
17, 29279, Note_on_c, 11, 66, 0
17, 29340, Note_on_c, 11, 67, 88
17, 29459, Note_on_c, 11, 67, 0
17, 29460, Note_on_c, 11, 67, 88
17, 29519, Note_on_c, 11, 67, 0
17, 29520, Note_on_c, 11, 70, 88
17, 29579, Note_on_c, 11, 70, 0
17, 29580, Note_on_c, 11, 67, 88
17, 29639, Note_on_c, 11, 67, 0
17, 29640, Note_on_c, 11, 67, 88
17, 29759, Note_on_c, 11, 67, 0
17, 29880, Note_on_c, 11, 64, 58
17, 29999, Note_on_c, 11, 64, 0
17, 30000, Note_on_c, 11, 62, 58
17, 30119, Note_on_c, 11, 62, 0
17, 30120, Note_on_c, 11, 61, 58
17, 30179, Note_on_c, 11, 61, 0
17, 30180, Note_on_c, 11, 61, 58
17, 30239, Note_on_c, 11, 61, 0
17, 30240, Note_on_c, 11, 62, 58
17, 30479, Note_on_c, 11, 62, 0
17, 30480, Note_on_c, 11, 62, 58
17, 30599, Note_on_c, 11, 62, 0
17, 30840, Note_on_c, 11, 70, 58
17, 30959, Note_on_c, 11, 70, 0
17, 30960, Note_on_c, 11, 69, 58
17, 31319, Note_on_c, 11, 69, 0
17, 31320, Note_on_c, 11, 70, 58
17, 31379, Note_on_c, 11, 70, 0
17, 31380, Note_on_c, 11, 69, 58
17, 31439, Note_on_c, 11, 69, 0
17, 31440, Note_on_c, 11, 67, 58
17, 31739, Note_on_c, 11, 67, 0
17, 31740, Note_on_c, 11, 65, 58
17, 31799, Note_on_c, 11, 65, 0
17, 31800, Note_on_c, 11, 63, 58
17, 31859, Note_on_c, 11, 63, 0
17, 31860, Note_on_c, 11, 63, 58
17, 31919, Note_on_c, 11, 63, 0
17, 31920, Note_on_c, 11, 62, 58
17, 32039, Note_on_c, 11, 62, 0
17, 32040, Note_on_c, 11, 62, 58
17, 32099, Note_on_c, 11, 62, 0
17, 32100, Note_on_c, 11, 67, 58
17, 32159, Note_on_c, 11, 67, 0
17, 32160, Note_on_c, 11, 67, 58
17, 32279, Note_on_c, 11, 67, 0
17, 32280, Note_on_c, 11, 66, 58
17, 32399, Note_on_c, 11, 66, 0
17, 32400, Note_on_c, 11, 67, 58
17, 32519, Note_on_c, 11, 67, 0
17, 32700, Note_on_c, 11, 67, 88
17, 32759, Note_on_c, 11, 67, 0
17, 32760, Note_on_c, 11, 70, 88
17, 32819, Note_on_c, 11, 70, 0
17, 32820, Note_on_c, 11, 67, 88
17, 32879, Note_on_c, 11, 67, 0
17, 32880, Note_on_c, 11, 69, 88
17, 32969, Note_on_c, 11, 69, 0
17, 32970, Note_on_c, 11, 69, 88
17, 32999, Note_on_c, 11, 69, 0
17, 33000, Note_on_c, 11, 69, 88
17, 33119, Note_on_c, 11, 69, 0
17, 33180, Note_on_c, 11, 65, 88
17, 33239, Note_on_c, 11, 65, 0
17, 33240, Note_on_c, 11, 69, 88
17, 33299, Note_on_c, 11, 69, 0
17, 33300, Note_on_c, 11, 65, 88
17, 33359, Note_on_c, 11, 65, 0
17, 33360, Note_on_c, 11, 67, 88
17, 33479, Note_on_c, 11, 67, 0
17, 33480, Note_on_c, 11, 67, 88
17, 33599, Note_on_c, 11, 67, 0
17, 33660, Note_on_c, 11, 67, 88
17, 33719, Note_on_c, 11, 67, 0
17, 33720, Note_on_c, 11, 67, 88
17, 33779, Note_on_c, 11, 67, 0
17, 33780, Note_on_c, 11, 67, 88
17, 33839, Note_on_c, 11, 67, 0
17, 33840, Note_on_c, 11, 66, 88
17, 33899, Note_on_c, 11, 66, 0
17, 33900, Note_on_c, 11, 69, 88
17, 33929, Note_on_c, 11, 69, 0
17, 33930, Note_on_c, 11, 69, 88
17, 33959, Note_on_c, 11, 69, 0
17, 33960, Note_on_c, 11, 67, 88
17, 34019, Note_on_c, 11, 67, 0
17, 34020, Note_on_c, 11, 67, 88
17, 34079, Note_on_c, 11, 67, 0
17, 34080, Note_on_c, 11, 67, 88
17, 34199, Note_on_c, 11, 67, 0
17, 34200, Note_on_c, 11, 66, 88
17, 34319, Note_on_c, 11, 66, 0
17, 34320, Note_on_c, 11, 67, 88
17, 34439, Note_on_c, 11, 67, 0
17, 34680, Note_on_c, 11, 62, 88
17, 34799, Note_on_c, 11, 62, 0
17, 34800, Note_on_c, 11, 63, 88
17, 34919, Note_on_c, 11, 63, 0
17, 34920, Note_on_c, 11, 62, 88
17, 34979, Note_on_c, 11, 62, 0
17, 34980, Note_on_c, 11, 62, 88
17, 35039, Note_on_c, 11, 62, 0
17, 35040, Note_on_c, 11, 63, 88
17, 35159, Note_on_c, 11, 63, 0
17, 35160, Note_on_c, 11, 65, 88
17, 35219, Note_on_c, 11, 65, 0
17, 35220, Note_on_c, 11, 65, 88
17, 35279, Note_on_c, 11, 65, 0
17, 35280, Note_on_c, 11, 63, 88
17, 35759, Note_on_c, 11, 63, 0
17, 35760, Note_on_c, 11, 62, 88
17, 36239, Note_on_c, 11, 62, 0
17, 36239, End_track
18, 0, Start_track
18, 0, Title_t, "Tenor "
18, 0, MIDI_port, 0
18, 0, Program_c, 12, 70
18, 0, Control_c, 12, 7, 96
18, 0, Control_c, 12, 10, 48
18, 0, Control_c, 12, 11, 127
18, 720, Note_on_c, 12, 58, 58
18, 899, Note_on_c, 12, 58, 0
18, 900, Note_on_c, 12, 58, 58
18, 959, Note_on_c, 12, 58, 0
18, 960, Note_on_c, 12, 58, 58
18, 1079, Note_on_c, 12, 58, 0
18, 1080, Note_on_c, 12, 62, 58
18, 1199, Note_on_c, 12, 62, 0
18, 1200, Note_on_c, 12, 60, 58
18, 1319, Note_on_c, 12, 60, 0
18, 1320, Note_on_c, 12, 58, 58
18, 1439, Note_on_c, 12, 58, 0
18, 1440, Note_on_c, 12, 58, 58
18, 1679, Note_on_c, 12, 58, 0
18, 1680, Note_on_c, 12, 57, 58
18, 1739, Note_on_c, 12, 57, 0
18, 1740, Note_on_c, 12, 60, 58
18, 1799, Note_on_c, 12, 60, 0
18, 1800, Note_on_c, 12, 60, 58
18, 1979, Note_on_c, 12, 60, 0
18, 1980, Note_on_c, 12, 60, 58
18, 2039, Note_on_c, 12, 60, 0
18, 2040, Note_on_c, 12, 58, 58
18, 2159, Note_on_c, 12, 58, 0
18, 2160, Note_on_c, 12, 63, 58
18, 2399, Note_on_c, 12, 63, 0
18, 2400, Note_on_c, 12, 65, 58
18, 2519, Note_on_c, 12, 65, 0
18, 2520, Note_on_c, 12, 62, 58
18, 2699, Note_on_c, 12, 62, 0
18, 2700, Note_on_c, 12, 62, 58
18, 2759, Note_on_c, 12, 62, 0
18, 2760, Note_on_c, 12, 63, 58
18, 2879, Note_on_c, 12, 63, 0
18, 2880, Note_on_c, 12, 63, 58
18, 2999, Note_on_c, 12, 63, 0
18, 3000, Note_on_c, 12, 62, 58
18, 3119, Note_on_c, 12, 62, 0
18, 3120, Note_on_c, 12, 58, 58
18, 3239, Note_on_c, 12, 58, 0
18, 3240, Note_on_c, 12, 58, 58
18, 3419, Note_on_c, 12, 58, 0
18, 3420, Note_on_c, 12, 58, 58
18, 3479, Note_on_c, 12, 58, 0
18, 3480, Note_on_c, 12, 58, 58
18, 3599, Note_on_c, 12, 58, 0
18, 3840, Note_on_c, 12, 58, 58
18, 3959, Note_on_c, 12, 58, 0
18, 3960, Note_on_c, 12, 60, 58
18, 4139, Note_on_c, 12, 60, 0
18, 4140, Note_on_c, 12, 60, 58
18, 4199, Note_on_c, 12, 60, 0
18, 4200, Note_on_c, 12, 60, 58
18, 4319, Note_on_c, 12, 60, 0
18, 4320, Note_on_c, 12, 60, 58
18, 4439, Note_on_c, 12, 60, 0
18, 4440, Note_on_c, 12, 60, 58
18, 4559, Note_on_c, 12, 60, 0
18, 4560, Note_on_c, 12, 60, 58
18, 4679, Note_on_c, 12, 60, 0
18, 4680, Note_on_c, 12, 62, 58
18, 4919, Note_on_c, 12, 62, 0
18, 4920, Note_on_c, 12, 63, 58
18, 5039, Note_on_c, 12, 63, 0
18, 5040, Note_on_c, 12, 63, 58
18, 5279, Note_on_c, 12, 63, 0
18, 5280, Note_on_c, 12, 62, 58
18, 5399, Note_on_c, 12, 62, 0
18, 5520, Note_on_c, 12, 60, 58
18, 5639, Note_on_c, 12, 60, 0
18, 5640, Note_on_c, 12, 60, 58
18, 5759, Note_on_c, 12, 60, 0
18, 5760, Note_on_c, 12, 60, 58
18, 5939, Note_on_c, 12, 60, 0
18, 5940, Note_on_c, 12, 60, 58
18, 5999, Note_on_c, 12, 60, 0
18, 6000, Note_on_c, 12, 60, 58
18, 6119, Note_on_c, 12, 60, 0
18, 6120, Note_on_c, 12, 61, 58
18, 6299, Note_on_c, 12, 61, 0
18, 6300, Note_on_c, 12, 61, 58
18, 6359, Note_on_c, 12, 61, 0
18, 6360, Note_on_c, 12, 60, 58
18, 6419, Note_on_c, 12, 60, 0
18, 6420, Note_on_c, 12, 60, 58
18, 6479, Note_on_c, 12, 60, 0
18, 6480, Note_on_c, 12, 60, 58
18, 6659, Note_on_c, 12, 60, 0
18, 6660, Note_on_c, 12, 60, 58
18, 6719, Note_on_c, 12, 60, 0
18, 6720, Note_on_c, 12, 58, 58
18, 6959, Note_on_c, 12, 58, 0
18, 6960, Note_on_c, 12, 58, 58
18, 7079, Note_on_c, 12, 58, 0
18, 7080, Note_on_c, 12, 57, 58
18, 7139, Note_on_c, 12, 57, 0
18, 7140, Note_on_c, 12, 57, 58
18, 7199, Note_on_c, 12, 57, 0
18, 7200, Note_on_c, 12, 58, 58
18, 7319, Note_on_c, 12, 58, 0
18, 7920, Note_on_c, 12, 61, 88
18, 8219, Note_on_c, 12, 61, 0
18, 8220, Note_on_c, 12, 61, 88
18, 8279, Note_on_c, 12, 61, 0
18, 8280, Note_on_c, 12, 63, 88
18, 8399, Note_on_c, 12, 63, 0
18, 8520, Note_on_c, 12, 60, 58
18, 8639, Note_on_c, 12, 60, 0
18, 8640, Note_on_c, 12, 60, 58
18, 8879, Note_on_c, 12, 60, 0
18, 8880, Note_on_c, 12, 58, 58
18, 8999, Note_on_c, 12, 58, 0
18, 9000, Note_on_c, 12, 57, 58
18, 9119, Note_on_c, 12, 57, 0
18, 9360, Note_on_c, 12, 65, 88
18, 9719, Note_on_c, 12, 65, 0
18, 9720, Note_on_c, 12, 63, 88
18, 9839, Note_on_c, 12, 63, 0
18, 10080, Note_on_c, 12, 56, 58
18, 10379, Note_on_c, 12, 56, 0
18, 10380, Note_on_c, 12, 56, 58
18, 10439, Note_on_c, 12, 56, 0
18, 10440, Note_on_c, 12, 56, 58
18, 10559, Note_on_c, 12, 56, 0
18, 10800, Note_on_c, 12, 60, 88
18, 11159, Note_on_c, 12, 60, 0
18, 11160, Note_on_c, 12, 60, 88
18, 11279, Note_on_c, 12, 60, 0
18, 11400, Note_on_c, 12, 58, 58
18, 11519, Note_on_c, 12, 58, 0
18, 11520, Note_on_c, 12, 58, 58
18, 11639, Note_on_c, 12, 58, 0
18, 11640, Note_on_c, 12, 56, 58
18, 11819, Note_on_c, 12, 56, 0
18, 11820, Note_on_c, 12, 56, 58
18, 11879, Note_on_c, 12, 56, 0
18, 11880, Note_on_c, 12, 55, 58
18, 11999, Note_on_c, 12, 55, 0
18, 12120, Note_on_c, 12, 64, 88
18, 12239, Note_on_c, 12, 64, 0
18, 12240, Note_on_c, 12, 64, 88
18, 12419, Note_on_c, 12, 64, 0
18, 12420, Note_on_c, 12, 64, 88
18, 12479, Note_on_c, 12, 64, 0
18, 12480, Note_on_c, 12, 64, 88
18, 12599, Note_on_c, 12, 64, 0
18, 12600, Note_on_c, 12, 64, 58
18, 12719, Note_on_c, 12, 64, 0
18, 12720, Note_on_c, 12, 64, 58
18, 12839, Note_on_c, 12, 64, 0
18, 12840, Note_on_c, 12, 64, 58
18, 12959, Note_on_c, 12, 64, 0
18, 12960, Note_on_c, 12, 64, 58
18, 13079, Note_on_c, 12, 64, 0
18, 13080, Note_on_c, 12, 65, 58
18, 13199, Note_on_c, 12, 65, 0
18, 13200, Note_on_c, 12, 65, 58
18, 13319, Note_on_c, 12, 65, 0
18, 13320, Note_on_c, 12, 65, 58
18, 13559, Note_on_c, 12, 65, 0
18, 13560, Note_on_c, 12, 64, 58
18, 13679, Note_on_c, 12, 64, 0
18, 13800, Note_on_c, 12, 62, 88
18, 13919, Note_on_c, 12, 62, 0
18, 13920, Note_on_c, 12, 62, 88
18, 14039, Note_on_c, 12, 62, 0
18, 14040, Note_on_c, 12, 63, 88
18, 14219, Note_on_c, 12, 63, 0
18, 14220, Note_on_c, 12, 63, 88
18, 14279, Note_on_c, 12, 63, 0
18, 14280, Note_on_c, 12, 63, 88
18, 14339, Note_on_c, 12, 63, 0
18, 14340, Note_on_c, 12, 63, 88
18, 14399, Note_on_c, 12, 63, 0
18, 14400, Note_on_c, 12, 63, 88
18, 14579, Note_on_c, 12, 63, 0
18, 14580, Note_on_c, 12, 63, 88
18, 14639, Note_on_c, 12, 63, 0
18, 14640, Note_on_c, 12, 63, 88
18, 14759, Note_on_c, 12, 63, 0
18, 14760, Note_on_c, 12, 62, 88
18, 14999, Note_on_c, 12, 62, 0
18, 15000, Note_on_c, 12, 63, 88
18, 15119, Note_on_c, 12, 63, 0
18, 15120, Note_on_c, 12, 58, 88
18, 15359, Note_on_c, 12, 58, 0
18, 15360, Note_on_c, 12, 56, 88
18, 15419, Note_on_c, 12, 56, 0
18, 15420, Note_on_c, 12, 56, 88
18, 15479, Note_on_c, 12, 56, 0
18, 15480, Note_on_c, 12, 55, 88
18, 15599, Note_on_c, 12, 55, 0
18, 16200, Note_on_c, 12, 55, 58
18, 16559, Note_on_c, 12, 55, 0
18, 16560, Note_on_c, 12, 56, 58
18, 16799, Note_on_c, 12, 56, 0
18, 16800, Note_on_c, 12, 56, 58
18, 16919, Note_on_c, 12, 56, 0
18, 16920, Note_on_c, 12, 55, 58
18, 17099, Note_on_c, 12, 55, 0
18, 17100, Note_on_c, 12, 55, 58
18, 17159, Note_on_c, 12, 55, 0
18, 17160, Note_on_c, 12, 55, 58
18, 17219, Note_on_c, 12, 55, 0
18, 17220, Note_on_c, 12, 55, 58
18, 17279, Note_on_c, 12, 55, 0
18, 17280, Note_on_c, 12, 60, 58
18, 17759, Note_on_c, 12, 60, 0
18, 17760, Note_on_c, 12, 57, 58
18, 17879, Note_on_c, 12, 57, 0
18, 17880, Note_on_c, 12, 62, 58
18, 17999, Note_on_c, 12, 62, 0
18, 18000, Note_on_c, 12, 62, 58
18, 18119, Note_on_c, 12, 62, 0
18, 18120, Note_on_c, 12, 55, 58
18, 18239, Note_on_c, 12, 55, 0
18, 18240, Note_on_c, 12, 62, 58
18, 18359, Note_on_c, 12, 62, 0
18, 18360, Note_on_c, 12, 64, 58
18, 18719, Note_on_c, 12, 64, 0
18, 18720, Note_on_c, 12, 57, 58
18, 18839, Note_on_c, 12, 57, 0
18, 19440, Control_c, 12, 10, 48
18, 20220, Note_on_c, 12, 62, 88
18, 20279, Note_on_c, 12, 62, 0
18, 20280, Note_on_c, 12, 62, 88
18, 20339, Note_on_c, 12, 62, 0
18, 20340, Note_on_c, 12, 62, 88
18, 20399, Note_on_c, 12, 62, 0
18, 20400, Note_on_c, 12, 62, 88
18, 20489, Note_on_c, 12, 62, 0
18, 20490, Note_on_c, 12, 61, 88
18, 20519, Note_on_c, 12, 61, 0
18, 20520, Note_on_c, 12, 61, 88
18, 20639, Note_on_c, 12, 61, 0
18, 20700, Note_on_c, 12, 67, 88
18, 20819, Note_on_c, 12, 67, 0
18, 20820, Note_on_c, 12, 67, 88
18, 20879, Note_on_c, 12, 67, 0
18, 20880, Note_on_c, 12, 67, 88
18, 20999, Note_on_c, 12, 67, 0
18, 21000, Note_on_c, 12, 66, 88
18, 21119, Note_on_c, 12, 66, 0
18, 21180, Note_on_c, 12, 65, 88
18, 21239, Note_on_c, 12, 65, 0
18, 21240, Note_on_c, 12, 65, 88
18, 21299, Note_on_c, 12, 65, 0
18, 21300, Note_on_c, 12, 65, 88
18, 21359, Note_on_c, 12, 65, 0
18, 21360, Note_on_c, 12, 65, 88
18, 21449, Note_on_c, 12, 65, 0
18, 21450, Note_on_c, 12, 63, 88
18, 21479, Note_on_c, 12, 63, 0
18, 21480, Note_on_c, 12, 63, 88
18, 21599, Note_on_c, 12, 63, 0
18, 21660, Note_on_c, 12, 63, 88
18, 21719, Note_on_c, 12, 63, 0
18, 21720, Note_on_c, 12, 60, 88
18, 21779, Note_on_c, 12, 60, 0
18, 21780, Note_on_c, 12, 62, 88
18, 21809, Note_on_c, 12, 62, 0
18, 21810, Note_on_c, 12, 63, 88
18, 21839, Note_on_c, 12, 63, 0
18, 21840, Note_on_c, 12, 57, 88
18, 21959, Note_on_c, 12, 57, 0
18, 21960, Note_on_c, 12, 62, 88
18, 22079, Note_on_c, 12, 62, 0
18, 22140, Note_on_c, 12, 55, 88
18, 22259, Note_on_c, 12, 55, 0
18, 22260, Note_on_c, 12, 67, 88
18, 22319, Note_on_c, 12, 67, 0
18, 22320, Note_on_c, 12, 67, 88
18, 22439, Note_on_c, 12, 67, 0
18, 22440, Note_on_c, 12, 64, 88
18, 22559, Note_on_c, 12, 64, 0
18, 22560, Note_on_c, 12, 61, 88
18, 22679, Note_on_c, 12, 61, 0
18, 22680, Note_on_c, 12, 57, 88
18, 22799, Note_on_c, 12, 57, 0
18, 22800, Note_on_c, 12, 62, 88
18, 22859, Note_on_c, 12, 62, 0
18, 22860, Note_on_c, 12, 62, 88
18, 22919, Note_on_c, 12, 62, 0
18, 23820, Note_on_c, 12, 58, 88
18, 23879, Note_on_c, 12, 58, 0
18, 23880, Note_on_c, 12, 58, 88
18, 23939, Note_on_c, 12, 58, 0
18, 23940, Note_on_c, 12, 58, 88
18, 23999, Note_on_c, 12, 58, 0
18, 24000, Note_on_c, 12, 58, 88
18, 24089, Note_on_c, 12, 58, 0
18, 24090, Note_on_c, 12, 57, 88
18, 24119, Note_on_c, 12, 57, 0
18, 24120, Note_on_c, 12, 57, 88
18, 24239, Note_on_c, 12, 57, 0
18, 24300, Note_on_c, 12, 63, 88
18, 24419, Note_on_c, 12, 63, 0
18, 24420, Note_on_c, 12, 63, 88
18, 24479, Note_on_c, 12, 63, 0
18, 24480, Note_on_c, 12, 63, 88
18, 24599, Note_on_c, 12, 63, 0
18, 24600, Note_on_c, 12, 62, 88
18, 24719, Note_on_c, 12, 62, 0
18, 25020, Note_on_c, 12, 60, 88
18, 25079, Note_on_c, 12, 60, 0
18, 25080, Note_on_c, 12, 60, 88
18, 25139, Note_on_c, 12, 60, 0
18, 25140, Note_on_c, 12, 60, 88
18, 25199, Note_on_c, 12, 60, 0
18, 25200, Note_on_c, 12, 60, 88
18, 25289, Note_on_c, 12, 60, 0
18, 25290, Note_on_c, 12, 59, 88
18, 25319, Note_on_c, 12, 59, 0
18, 25320, Note_on_c, 12, 59, 88
18, 25439, Note_on_c, 12, 59, 0
18, 25500, Note_on_c, 12, 65, 88
18, 25619, Note_on_c, 12, 65, 0
18, 25620, Note_on_c, 12, 65, 88
18, 25679, Note_on_c, 12, 65, 0
18, 25680, Note_on_c, 12, 65, 88
18, 25799, Note_on_c, 12, 65, 0
18, 25800, Note_on_c, 12, 64, 88
18, 25919, Note_on_c, 12, 64, 0
18, 25980, Note_on_c, 12, 67, 88
18, 26039, Note_on_c, 12, 67, 0
18, 26040, Note_on_c, 12, 67, 88
18, 26099, Note_on_c, 12, 67, 0
18, 26100, Note_on_c, 12, 67, 88
18, 26159, Note_on_c, 12, 67, 0
18, 26160, Note_on_c, 12, 67, 88
18, 26249, Note_on_c, 12, 67, 0
18, 26250, Note_on_c, 12, 66, 88
18, 26279, Note_on_c, 12, 66, 0
18, 26280, Note_on_c, 12, 66, 88
18, 26399, Note_on_c, 12, 66, 0
18, 26460, Note_on_c, 12, 67, 88
18, 26519, Note_on_c, 12, 67, 0
18, 26520, Note_on_c, 12, 63, 88
18, 26579, Note_on_c, 12, 63, 0
18, 26580, Note_on_c, 12, 60, 88
18, 26639, Note_on_c, 12, 60, 0
18, 26640, Note_on_c, 12, 60, 88
18, 26729, Note_on_c, 12, 60, 0
18, 26730, Note_on_c, 12, 65, 88
18, 26759, Note_on_c, 12, 65, 0
18, 26760, Note_on_c, 12, 65, 88
18, 26879, Note_on_c, 12, 65, 0
18, 26940, Note_on_c, 12, 63, 88
18, 27059, Note_on_c, 12, 63, 0
18, 27060, Note_on_c, 12, 57, 88
18, 27119, Note_on_c, 12, 57, 0
18, 27120, Note_on_c, 12, 57, 88
18, 27179, Note_on_c, 12, 57, 0
18, 27180, Note_on_c, 12, 62, 88
18, 27239, Note_on_c, 12, 62, 0
18, 27240, Note_on_c, 12, 62, 88
18, 27299, Note_on_c, 12, 62, 0
18, 27300, Note_on_c, 12, 58, 88
18, 27359, Note_on_c, 12, 58, 0
18, 27360, Note_on_c, 12, 55, 88
18, 27599, Note_on_c, 12, 55, 0
18, 27600, Note_on_c, 12, 57, 88
18, 27719, Note_on_c, 12, 57, 0
18, 27900, Note_on_c, 12, 58, 88
18, 27959, Note_on_c, 12, 58, 0
18, 27960, Note_on_c, 12, 58, 88
18, 28019, Note_on_c, 12, 58, 0
18, 28020, Note_on_c, 12, 58, 88
18, 28079, Note_on_c, 12, 58, 0
18, 28080, Note_on_c, 12, 58, 88
18, 28169, Note_on_c, 12, 58, 0
18, 28170, Note_on_c, 12, 60, 88
18, 28199, Note_on_c, 12, 60, 0
18, 28200, Note_on_c, 12, 60, 88
18, 28319, Note_on_c, 12, 60, 0
18, 28380, Note_on_c, 12, 57, 88
18, 28499, Note_on_c, 12, 57, 0
18, 28500, Note_on_c, 12, 57, 88
18, 28559, Note_on_c, 12, 57, 0
18, 28560, Note_on_c, 12, 57, 88
18, 28619, Note_on_c, 12, 57, 0
18, 28620, Note_on_c, 12, 58, 88
18, 28679, Note_on_c, 12, 58, 0
18, 28680, Note_on_c, 12, 58, 88
18, 28799, Note_on_c, 12, 58, 0
18, 28860, Note_on_c, 12, 55, 88
18, 28919, Note_on_c, 12, 55, 0
18, 28920, Note_on_c, 12, 55, 88
18, 28979, Note_on_c, 12, 55, 0
18, 28980, Note_on_c, 12, 55, 88
18, 29039, Note_on_c, 12, 55, 0
18, 29040, Note_on_c, 12, 55, 88
18, 29129, Note_on_c, 12, 55, 0
18, 29130, Note_on_c, 12, 57, 88
18, 29159, Note_on_c, 12, 57, 0
18, 29160, Note_on_c, 12, 57, 88
18, 29279, Note_on_c, 12, 57, 0
18, 29340, Note_on_c, 12, 58, 88
18, 29459, Note_on_c, 12, 58, 0
18, 29460, Note_on_c, 12, 58, 88
18, 29519, Note_on_c, 12, 58, 0
18, 29520, Note_on_c, 12, 55, 88
18, 29579, Note_on_c, 12, 55, 0
18, 29580, Note_on_c, 12, 58, 88
18, 29639, Note_on_c, 12, 58, 0
18, 29640, Note_on_c, 12, 58, 88
18, 29759, Note_on_c, 12, 58, 0
18, 29880, Note_on_c, 12, 58, 58
18, 29999, Note_on_c, 12, 58, 0
18, 30000, Note_on_c, 12, 57, 58
18, 30119, Note_on_c, 12, 57, 0
18, 30120, Note_on_c, 12, 55, 58
18, 30179, Note_on_c, 12, 55, 0
18, 30180, Note_on_c, 12, 55, 58
18, 30239, Note_on_c, 12, 55, 0
18, 30240, Note_on_c, 12, 57, 58
18, 30479, Note_on_c, 12, 57, 0
18, 30480, Note_on_c, 12, 58, 58
18, 30599, Note_on_c, 12, 58, 0
18, 31080, Note_on_c, 12, 60, 58
18, 31199, Note_on_c, 12, 60, 0
18, 31200, Note_on_c, 12, 58, 58
18, 31559, Note_on_c, 12, 58, 0
18, 31560, Note_on_c, 12, 60, 58
18, 31619, Note_on_c, 12, 60, 0
18, 31620, Note_on_c, 12, 62, 58
18, 31679, Note_on_c, 12, 62, 0
18, 31680, Note_on_c, 12, 63, 58
18, 31739, Note_on_c, 12, 63, 0
18, 31740, Note_on_c, 12, 62, 58
18, 31799, Note_on_c, 12, 62, 0
18, 31800, Note_on_c, 12, 60, 58
18, 31859, Note_on_c, 12, 60, 0
18, 31860, Note_on_c, 12, 58, 58
18, 31919, Note_on_c, 12, 58, 0
18, 31920, Note_on_c, 12, 57, 58
18, 32039, Note_on_c, 12, 57, 0
18, 32040, Note_on_c, 12, 55, 58
18, 32099, Note_on_c, 12, 55, 0
18, 32100, Note_on_c, 12, 63, 58
18, 32159, Note_on_c, 12, 63, 0
18, 32160, Note_on_c, 12, 62, 58
18, 32279, Note_on_c, 12, 62, 0
18, 32280, Note_on_c, 12, 60, 58
18, 32399, Note_on_c, 12, 60, 0
18, 32400, Note_on_c, 12, 58, 58
18, 32519, Note_on_c, 12, 58, 0
18, 32700, Note_on_c, 12, 58, 88
18, 32759, Note_on_c, 12, 58, 0
18, 32760, Note_on_c, 12, 55, 88
18, 32819, Note_on_c, 12, 55, 0
18, 32820, Note_on_c, 12, 58, 88
18, 32879, Note_on_c, 12, 58, 0
18, 32880, Note_on_c, 12, 57, 88
18, 32969, Note_on_c, 12, 57, 0
18, 32970, Note_on_c, 12, 62, 88
18, 32999, Note_on_c, 12, 62, 0
18, 33000, Note_on_c, 12, 62, 88
18, 33119, Note_on_c, 12, 62, 0
18, 33180, Note_on_c, 12, 57, 88
18, 33239, Note_on_c, 12, 57, 0
18, 33240, Note_on_c, 12, 53, 88
18, 33299, Note_on_c, 12, 53, 0
18, 33300, Note_on_c, 12, 57, 88
18, 33359, Note_on_c, 12, 57, 0
18, 33360, Note_on_c, 12, 55, 88
18, 33479, Note_on_c, 12, 55, 0
18, 33480, Note_on_c, 12, 60, 88
18, 33599, Note_on_c, 12, 60, 0
18, 33660, Note_on_c, 12, 55, 88
18, 33719, Note_on_c, 12, 55, 0
18, 33720, Note_on_c, 12, 55, 88
18, 33779, Note_on_c, 12, 55, 0
18, 33780, Note_on_c, 12, 55, 88
18, 33839, Note_on_c, 12, 55, 0
18, 33840, Note_on_c, 12, 57, 88
18, 33899, Note_on_c, 12, 57, 0
18, 33900, Note_on_c, 12, 57, 88
18, 33929, Note_on_c, 12, 57, 0
18, 33930, Note_on_c, 12, 57, 88
18, 33959, Note_on_c, 12, 57, 0
18, 33960, Note_on_c, 12, 62, 88
18, 34019, Note_on_c, 12, 62, 0
18, 34020, Note_on_c, 12, 63, 88
18, 34079, Note_on_c, 12, 63, 0
18, 34080, Note_on_c, 12, 62, 88
18, 34319, Note_on_c, 12, 62, 0
18, 34320, Note_on_c, 12, 62, 88
18, 34439, Note_on_c, 12, 62, 0
18, 34680, Note_on_c, 12, 59, 88
18, 34799, Note_on_c, 12, 59, 0
18, 34800, Note_on_c, 12, 60, 88
18, 34919, Note_on_c, 12, 60, 0
18, 34920, Note_on_c, 12, 59, 88
18, 34979, Note_on_c, 12, 59, 0
18, 34980, Note_on_c, 12, 59, 88
18, 35039, Note_on_c, 12, 59, 0
18, 35040, Note_on_c, 12, 60, 88
18, 35159, Note_on_c, 12, 60, 0
18, 35160, Note_on_c, 12, 62, 88
18, 35219, Note_on_c, 12, 62, 0
18, 35220, Note_on_c, 12, 62, 88
18, 35279, Note_on_c, 12, 62, 0
18, 35280, Note_on_c, 12, 62, 88
18, 35399, Note_on_c, 12, 62, 0
18, 35400, Note_on_c, 12, 60, 88
18, 35459, Note_on_c, 12, 60, 0
18, 35460, Note_on_c, 12, 59, 88
18, 35519, Note_on_c, 12, 59, 0
18, 35520, Note_on_c, 12, 60, 88
18, 35759, Note_on_c, 12, 60, 0
18, 35760, Note_on_c, 12, 59, 88
18, 36239, Note_on_c, 12, 59, 0
18, 36239, End_track
19, 0, Start_track
19, 0, Title_t, "Bass "
19, 0, MIDI_port, 0
19, 0, Program_c, 13, 60
19, 0, Control_c, 13, 7, 96
19, 0, Control_c, 13, 10, 80
19, 0, Control_c, 13, 11, 127
19, 720, Note_on_c, 13, 51, 58
19, 899, Note_on_c, 13, 51, 0
19, 900, Note_on_c, 13, 51, 58
19, 959, Note_on_c, 13, 51, 0
19, 960, Note_on_c, 13, 51, 58
19, 1079, Note_on_c, 13, 51, 0
19, 1080, Note_on_c, 13, 50, 58
19, 1199, Note_on_c, 13, 50, 0
19, 1200, Note_on_c, 13, 50, 58
19, 1319, Note_on_c, 13, 50, 0
19, 1320, Note_on_c, 13, 50, 58
19, 1439, Note_on_c, 13, 50, 0
19, 1440, Note_on_c, 13, 48, 58
19, 1679, Note_on_c, 13, 48, 0
19, 1680, Note_on_c, 13, 53, 58
19, 1799, Note_on_c, 13, 53, 0
19, 1800, Note_on_c, 13, 58, 58
19, 1979, Note_on_c, 13, 58, 0
19, 1980, Note_on_c, 13, 46, 58
19, 2039, Note_on_c, 13, 46, 0
19, 2040, Note_on_c, 13, 46, 58
19, 2159, Note_on_c, 13, 46, 0
19, 2160, Note_on_c, 13, 58, 58
19, 2399, Note_on_c, 13, 58, 0
19, 2400, Note_on_c, 13, 56, 58
19, 2519, Note_on_c, 13, 56, 0
19, 2520, Note_on_c, 13, 56, 58
19, 2699, Note_on_c, 13, 56, 0
19, 2700, Note_on_c, 13, 56, 58
19, 2759, Note_on_c, 13, 56, 0
19, 2760, Note_on_c, 13, 55, 58
19, 2879, Note_on_c, 13, 55, 0
19, 2880, Note_on_c, 13, 53, 58
19, 2999, Note_on_c, 13, 53, 0
19, 3000, Note_on_c, 13, 58, 58
19, 3119, Note_on_c, 13, 58, 0
19, 3120, Note_on_c, 13, 50, 58
19, 3239, Note_on_c, 13, 50, 0
19, 3240, Note_on_c, 13, 51, 58
19, 3419, Note_on_c, 13, 51, 0
19, 3420, Note_on_c, 13, 51, 58
19, 3479, Note_on_c, 13, 51, 0
19, 3480, Note_on_c, 13, 51, 58
19, 3599, Note_on_c, 13, 51, 0
19, 3840, Note_on_c, 13, 51, 58
19, 3959, Note_on_c, 13, 51, 0
19, 3960, Note_on_c, 13, 51, 58
19, 4139, Note_on_c, 13, 51, 0
19, 4140, Note_on_c, 13, 51, 58
19, 4199, Note_on_c, 13, 51, 0
19, 4200, Note_on_c, 13, 51, 58
19, 4319, Note_on_c, 13, 51, 0
19, 4320, Note_on_c, 13, 51, 58
19, 4439, Note_on_c, 13, 51, 0
19, 4440, Note_on_c, 13, 51, 58
19, 4559, Note_on_c, 13, 51, 0
19, 4560, Note_on_c, 13, 51, 58
19, 4679, Note_on_c, 13, 51, 0
19, 4680, Note_on_c, 13, 50, 58
19, 4919, Note_on_c, 13, 50, 0
19, 4920, Note_on_c, 13, 48, 58
19, 5039, Note_on_c, 13, 48, 0
19, 5040, Note_on_c, 13, 55, 58
19, 5279, Note_on_c, 13, 55, 0
19, 5280, Note_on_c, 13, 55, 58
19, 5399, Note_on_c, 13, 55, 0
19, 5520, Note_on_c, 13, 60, 58
19, 5639, Note_on_c, 13, 60, 0
19, 5640, Note_on_c, 13, 60, 58
19, 5759, Note_on_c, 13, 60, 0
19, 5760, Note_on_c, 13, 56, 58
19, 5939, Note_on_c, 13, 56, 0
19, 5940, Note_on_c, 13, 56, 58
19, 5999, Note_on_c, 13, 56, 0
19, 6000, Note_on_c, 13, 56, 58
19, 6119, Note_on_c, 13, 56, 0
19, 6120, Note_on_c, 13, 55, 58
19, 6299, Note_on_c, 13, 55, 0
19, 6300, Note_on_c, 13, 55, 58
19, 6359, Note_on_c, 13, 55, 0
19, 6360, Note_on_c, 13, 56, 58
19, 6419, Note_on_c, 13, 56, 0
19, 6420, Note_on_c, 13, 56, 58
19, 6479, Note_on_c, 13, 56, 0
19, 6480, Note_on_c, 13, 57, 58
19, 6719, Note_on_c, 13, 57, 0
19, 6720, Note_on_c, 13, 58, 58
19, 6839, Note_on_c, 13, 58, 0
19, 6840, Note_on_c, 13, 50, 58
19, 6899, Note_on_c, 13, 50, 0
19, 6900, Note_on_c, 13, 51, 58
19, 6959, Note_on_c, 13, 51, 0
19, 6960, Note_on_c, 13, 53, 58
19, 7139, Note_on_c, 13, 53, 0
19, 7140, Note_on_c, 13, 53, 58
19, 7199, Note_on_c, 13, 53, 0
19, 7200, Note_on_c, 13, 46, 58
19, 7319, Note_on_c, 13, 46, 0
19, 7920, Note_on_c, 13, 58, 88
19, 8219, Note_on_c, 13, 58, 0
19, 8220, Note_on_c, 13, 58, 88
19, 8279, Note_on_c, 13, 58, 0
19, 8280, Note_on_c, 13, 57, 88
19, 8399, Note_on_c, 13, 57, 0
19, 8520, Note_on_c, 13, 45, 58
19, 8639, Note_on_c, 13, 45, 0
19, 8640, Note_on_c, 13, 46, 58
19, 8999, Note_on_c, 13, 46, 0
19, 9000, Note_on_c, 13, 41, 58
19, 9119, Note_on_c, 13, 41, 0
19, 9360, Note_on_c, 13, 61, 88
19, 9719, Note_on_c, 13, 61, 0
19, 9720, Note_on_c, 13, 60, 88
19, 9839, Note_on_c, 13, 60, 0
19, 10080, Note_on_c, 13, 49, 58
19, 10379, Note_on_c, 13, 49, 0
19, 10380, Note_on_c, 13, 49, 58
19, 10439, Note_on_c, 13, 49, 0
19, 10440, Note_on_c, 13, 44, 58
19, 10559, Note_on_c, 13, 44, 0
19, 10800, Note_on_c, 13, 53, 88
19, 11159, Note_on_c, 13, 53, 0
19, 11160, Note_on_c, 13, 52, 88
19, 11279, Note_on_c, 13, 52, 0
19, 11400, Note_on_c, 13, 52, 58
19, 11519, Note_on_c, 13, 52, 0
19, 11520, Note_on_c, 13, 53, 58
19, 11819, Note_on_c, 13, 53, 0
19, 11820, Note_on_c, 13, 53, 58
19, 11879, Note_on_c, 13, 53, 0
19, 11880, Note_on_c, 13, 48, 58
19, 11999, Note_on_c, 13, 48, 0
19, 12120, Note_on_c, 13, 60, 88
19, 12239, Note_on_c, 13, 60, 0
19, 12240, Note_on_c, 13, 58, 88
19, 12419, Note_on_c, 13, 58, 0
19, 12420, Note_on_c, 13, 58, 88
19, 12479, Note_on_c, 13, 58, 0
19, 12480, Note_on_c, 13, 58, 88
19, 12599, Note_on_c, 13, 58, 0
19, 12600, Note_on_c, 13, 58, 58
19, 12719, Note_on_c, 13, 58, 0
19, 12720, Note_on_c, 13, 58, 58
19, 12839, Note_on_c, 13, 58, 0
19, 12840, Note_on_c, 13, 58, 58
19, 12959, Note_on_c, 13, 58, 0
19, 12960, Note_on_c, 13, 58, 58
19, 13199, Note_on_c, 13, 58, 0
19, 13200, Note_on_c, 13, 58, 58
19, 13319, Note_on_c, 13, 58, 0
19, 13320, Note_on_c, 13, 57, 58
19, 13559, Note_on_c, 13, 57, 0
19, 13560, Note_on_c, 13, 57, 58
19, 13679, Note_on_c, 13, 57, 0
19, 13800, Note_on_c, 13, 62, 88
19, 13919, Note_on_c, 13, 62, 0
19, 13920, Note_on_c, 13, 62, 88
19, 14039, Note_on_c, 13, 62, 0
19, 14040, Note_on_c, 13, 60, 88
19, 14219, Note_on_c, 13, 60, 0
19, 14220, Note_on_c, 13, 60, 88
19, 14279, Note_on_c, 13, 60, 0
19, 14280, Note_on_c, 13, 60, 88
19, 14399, Note_on_c, 13, 60, 0
19, 14400, Note_on_c, 13, 59, 88
19, 14579, Note_on_c, 13, 59, 0
19, 14580, Note_on_c, 13, 59, 88
19, 14639, Note_on_c, 13, 59, 0
19, 14640, Note_on_c, 13, 59, 88
19, 14699, Note_on_c, 13, 59, 0
19, 14700, Note_on_c, 13, 59, 88
19, 14759, Note_on_c, 13, 59, 0
19, 14760, Note_on_c, 13, 58, 88
19, 15119, Note_on_c, 13, 58, 0
19, 15120, Note_on_c, 13, 55, 88
19, 15179, Note_on_c, 13, 55, 0
19, 15180, Note_on_c, 13, 51, 88
19, 15239, Note_on_c, 13, 51, 0
19, 15240, Note_on_c, 13, 46, 88
19, 15419, Note_on_c, 13, 46, 0
19, 15420, Note_on_c, 13, 46, 88
19, 15479, Note_on_c, 13, 46, 0
19, 15480, Note_on_c, 13, 51, 88
19, 15599, Note_on_c, 13, 51, 0
19, 16200, Note_on_c, 13, 51, 58
19, 16559, Note_on_c, 13, 51, 0
19, 16560, Note_on_c, 13, 50, 58
19, 16799, Note_on_c, 13, 50, 0
19, 16800, Note_on_c, 13, 50, 58
19, 16919, Note_on_c, 13, 50, 0
19, 16920, Note_on_c, 13, 51, 58
19, 17099, Note_on_c, 13, 51, 0
19, 17100, Note_on_c, 13, 51, 58
19, 17159, Note_on_c, 13, 51, 0
19, 17160, Note_on_c, 13, 47, 58
19, 17219, Note_on_c, 13, 47, 0
19, 17220, Note_on_c, 13, 47, 58
19, 17279, Note_on_c, 13, 47, 0
19, 17280, Note_on_c, 13, 48, 58
19, 17399, Note_on_c, 13, 48, 0
19, 17400, Note_on_c, 13, 56, 58
19, 17519, Note_on_c, 13, 56, 0
19, 17520, Note_on_c, 13, 55, 58
19, 17639, Note_on_c, 13, 55, 0
19, 17640, Note_on_c, 13, 54, 58
19, 17879, Note_on_c, 13, 54, 0
19, 17880, Note_on_c, 13, 54, 58
19, 17999, Note_on_c, 13, 54, 0
19, 18000, Note_on_c, 13, 55, 58
19, 18119, Note_on_c, 13, 55, 0
19, 18120, Note_on_c, 13, 51, 58
19, 18239, Note_on_c, 13, 51, 0
19, 18240, Note_on_c, 13, 50, 58
19, 18359, Note_on_c, 13, 50, 0
19, 18360, Note_on_c, 13, 49, 58
19, 18719, Note_on_c, 13, 49, 0
19, 18720, Note_on_c, 13, 50, 58
19, 18839, Note_on_c, 13, 50, 0
19, 19440, Control_c, 13, 10, 80
19, 19500, Note_on_c, 13, 55, 88
19, 19559, Note_on_c, 13, 55, 0
19, 19560, Note_on_c, 13, 55, 88
19, 19619, Note_on_c, 13, 55, 0
19, 19620, Note_on_c, 13, 55, 88
19, 19679, Note_on_c, 13, 55, 0
19, 19680, Note_on_c, 13, 55, 88
19, 19769, Note_on_c, 13, 55, 0
19, 19770, Note_on_c, 13, 54, 88
19, 19799, Note_on_c, 13, 54, 0
19, 19800, Note_on_c, 13, 54, 88
19, 19919, Note_on_c, 13, 54, 0
19, 19980, Note_on_c, 13, 60, 88
19, 20099, Note_on_c, 13, 60, 0
19, 20100, Note_on_c, 13, 60, 88
19, 20159, Note_on_c, 13, 60, 0
19, 20160, Note_on_c, 13, 60, 88
19, 20279, Note_on_c, 13, 60, 0
19, 20280, Note_on_c, 13, 58, 88
19, 20399, Note_on_c, 13, 58, 0
19, 20460, Note_on_c, 13, 58, 88
19, 20519, Note_on_c, 13, 58, 0
19, 20520, Note_on_c, 13, 55, 88
19, 20579, Note_on_c, 13, 55, 0
19, 20580, Note_on_c, 13, 57, 88
19, 20609, Note_on_c, 13, 57, 0
19, 20610, Note_on_c, 13, 58, 88
19, 20639, Note_on_c, 13, 58, 0
19, 20640, Note_on_c, 13, 52, 88
19, 20759, Note_on_c, 13, 52, 0
19, 20760, Note_on_c, 13, 57, 88
19, 20879, Note_on_c, 13, 57, 0
19, 20940, Note_on_c, 13, 60, 88
19, 20999, Note_on_c, 13, 60, 0
19, 21000, Note_on_c, 13, 60, 88
19, 21059, Note_on_c, 13, 60, 0
19, 21060, Note_on_c, 13, 60, 88
19, 21119, Note_on_c, 13, 60, 0
19, 21120, Note_on_c, 13, 60, 88
19, 21209, Note_on_c, 13, 60, 0
19, 21210, Note_on_c, 13, 59, 88
19, 21239, Note_on_c, 13, 59, 0
19, 21240, Note_on_c, 13, 59, 88
19, 21359, Note_on_c, 13, 59, 0
19, 21420, Note_on_c, 13, 60, 88
19, 21539, Note_on_c, 13, 60, 0
19, 21540, Note_on_c, 13, 63, 88
19, 21599, Note_on_c, 13, 63, 0
19, 21600, Note_on_c, 13, 60, 88
19, 21719, Note_on_c, 13, 60, 0
19, 21720, Note_on_c, 13, 57, 88
19, 21839, Note_on_c, 13, 57, 0
19, 21840, Note_on_c, 13, 54, 88
19, 21959, Note_on_c, 13, 54, 0
19, 21960, Note_on_c, 13, 50, 88
19, 22079, Note_on_c, 13, 50, 0
19, 22080, Note_on_c, 13, 55, 88
19, 22139, Note_on_c, 13, 55, 0
19, 22140, Note_on_c, 13, 55, 88
19, 22199, Note_on_c, 13, 55, 0
19, 24540, Note_on_c, 13, 56, 88
19, 24599, Note_on_c, 13, 56, 0
19, 24600, Note_on_c, 13, 53, 88
19, 24659, Note_on_c, 13, 53, 0
19, 24660, Note_on_c, 13, 55, 88
19, 24689, Note_on_c, 13, 55, 0
19, 24690, Note_on_c, 13, 56, 88
19, 24719, Note_on_c, 13, 56, 0
19, 24720, Note_on_c, 13, 50, 88
19, 24839, Note_on_c, 13, 50, 0
19, 24840, Note_on_c, 13, 55, 88
19, 24959, Note_on_c, 13, 55, 0
19, 25740, Note_on_c, 13, 58, 88
19, 25799, Note_on_c, 13, 58, 0
19, 25800, Note_on_c, 13, 55, 88
19, 25859, Note_on_c, 13, 55, 0
19, 25860, Note_on_c, 13, 57, 88
19, 25889, Note_on_c, 13, 57, 0
19, 25890, Note_on_c, 13, 58, 88
19, 25919, Note_on_c, 13, 58, 0
19, 25920, Note_on_c, 13, 52, 88
19, 26039, Note_on_c, 13, 52, 0
19, 26040, Note_on_c, 13, 57, 88
19, 26159, Note_on_c, 13, 57, 0
19, 26220, Note_on_c, 13, 62, 88
19, 26279, Note_on_c, 13, 62, 0
19, 26280, Note_on_c, 13, 62, 88
19, 26339, Note_on_c, 13, 62, 0
19, 26340, Note_on_c, 13, 62, 88
19, 26399, Note_on_c, 13, 62, 0
19, 26400, Note_on_c, 13, 63, 88
19, 26489, Note_on_c, 13, 63, 0
19, 26490, Note_on_c, 13, 51, 88
19, 26519, Note_on_c, 13, 51, 0
19, 26520, Note_on_c, 13, 51, 88
19, 26639, Note_on_c, 13, 51, 0
19, 26700, Note_on_c, 13, 62, 88
19, 26819, Note_on_c, 13, 62, 0
19, 26820, Note_on_c, 13, 62, 88
19, 26879, Note_on_c, 13, 62, 0
19, 26880, Note_on_c, 13, 60, 88
19, 26999, Note_on_c, 13, 60, 0
19, 27000, Note_on_c, 13, 48, 88
19, 27119, Note_on_c, 13, 48, 0
19, 27180, Note_on_c, 13, 58, 88
19, 27299, Note_on_c, 13, 58, 0
19, 27300, Note_on_c, 13, 55, 88
19, 27359, Note_on_c, 13, 55, 0
19, 27360, Note_on_c, 13, 51, 88
19, 27599, Note_on_c, 13, 51, 0
19, 27600, Note_on_c, 13, 50, 88
19, 27719, Note_on_c, 13, 50, 0
19, 27900, Note_on_c, 13, 50, 88
19, 27959, Note_on_c, 13, 50, 0
19, 27960, Note_on_c, 13, 50, 88
19, 28019, Note_on_c, 13, 50, 0
19, 28020, Note_on_c, 13, 50, 88
19, 28079, Note_on_c, 13, 50, 0
19, 28080, Note_on_c, 13, 50, 88
19, 28169, Note_on_c, 13, 50, 0
19, 28170, Note_on_c, 13, 50, 88
19, 28199, Note_on_c, 13, 50, 0
19, 28200, Note_on_c, 13, 50, 88
19, 28319, Note_on_c, 13, 50, 0
19, 28380, Note_on_c, 13, 50, 88
19, 28499, Note_on_c, 13, 50, 0
19, 28500, Note_on_c, 13, 50, 88
19, 28559, Note_on_c, 13, 50, 0
19, 28560, Note_on_c, 13, 50, 88
19, 28679, Note_on_c, 13, 50, 0
19, 28680, Note_on_c, 13, 50, 88
19, 28799, Note_on_c, 13, 50, 0
19, 28860, Note_on_c, 13, 50, 88
19, 28919, Note_on_c, 13, 50, 0
19, 28920, Note_on_c, 13, 50, 88
19, 28979, Note_on_c, 13, 50, 0
19, 28980, Note_on_c, 13, 50, 88
19, 29039, Note_on_c, 13, 50, 0
19, 29040, Note_on_c, 13, 50, 88
19, 29129, Note_on_c, 13, 50, 0
19, 29130, Note_on_c, 13, 50, 88
19, 29159, Note_on_c, 13, 50, 0
19, 29160, Note_on_c, 13, 50, 88
19, 29279, Note_on_c, 13, 50, 0
19, 29340, Note_on_c, 13, 50, 88
19, 29459, Note_on_c, 13, 50, 0
19, 29460, Note_on_c, 13, 50, 88
19, 29519, Note_on_c, 13, 50, 0
19, 29520, Note_on_c, 13, 49, 88
19, 29639, Note_on_c, 13, 49, 0
19, 29640, Note_on_c, 13, 49, 88
19, 29759, Note_on_c, 13, 49, 0
19, 29880, Note_on_c, 13, 49, 58
19, 29999, Note_on_c, 13, 49, 0
19, 30000, Note_on_c, 13, 50, 58
19, 30119, Note_on_c, 13, 50, 0
19, 30120, Note_on_c, 13, 51, 58
19, 30179, Note_on_c, 13, 51, 0
19, 30180, Note_on_c, 13, 51, 58
19, 30239, Note_on_c, 13, 51, 0
19, 30240, Note_on_c, 13, 50, 58
19, 30479, Note_on_c, 13, 50, 0
19, 30480, Note_on_c, 13, 43, 58
19, 30599, Note_on_c, 13, 43, 0
19, 30720, Note_on_c, 13, 51, 58
19, 30959, Note_on_c, 13, 51, 0
19, 30960, Note_on_c, 13, 53, 58
19, 31199, Note_on_c, 13, 53, 0
19, 31200, Note_on_c, 13, 50, 58
19, 31439, Note_on_c, 13, 50, 0
19, 31440, Note_on_c, 13, 51, 58
19, 31679, Note_on_c, 13, 51, 0
19, 31680, Note_on_c, 13, 45, 58
19, 31799, Note_on_c, 13, 45, 0
19, 31800, Note_on_c, 13, 46, 58
19, 31859, Note_on_c, 13, 46, 0
19, 31860, Note_on_c, 13, 48, 58
19, 31919, Note_on_c, 13, 48, 0
19, 31920, Note_on_c, 13, 50, 58
19, 31979, Note_on_c, 13, 50, 0
19, 31980, Note_on_c, 13, 48, 58
19, 32039, Note_on_c, 13, 48, 0
19, 32040, Note_on_c, 13, 46, 58
19, 32099, Note_on_c, 13, 46, 0
19, 32100, Note_on_c, 13, 48, 58
19, 32159, Note_on_c, 13, 48, 0
19, 32160, Note_on_c, 13, 50, 58
19, 32399, Note_on_c, 13, 50, 0
19, 32400, Note_on_c, 13, 43, 58
19, 32459, Note_on_c, 13, 43, 0
19, 32460, Note_on_c, 13, 55, 88
19, 32519, Note_on_c, 13, 55, 0
19, 32520, Note_on_c, 13, 58, 88
19, 32579, Note_on_c, 13, 58, 0
19, 32580, Note_on_c, 13, 55, 88
19, 32639, Note_on_c, 13, 55, 0
19, 32640, Note_on_c, 13, 63, 88
19, 32729, Note_on_c, 13, 63, 0
19, 32730, Note_on_c, 13, 55, 88
19, 32759, Note_on_c, 13, 55, 0
19, 32760, Note_on_c, 13, 55, 88
19, 32879, Note_on_c, 13, 55, 0
19, 32940, Note_on_c, 13, 54, 88
19, 32999, Note_on_c, 13, 54, 0
19, 33000, Note_on_c, 13, 57, 88
19, 33059, Note_on_c, 13, 57, 0
19, 33060, Note_on_c, 13, 54, 88
19, 33119, Note_on_c, 13, 54, 0
19, 33120, Note_on_c, 13, 62, 88
19, 33239, Note_on_c, 13, 62, 0
19, 33240, Note_on_c, 13, 53, 88
19, 33359, Note_on_c, 13, 53, 0
19, 33420, Note_on_c, 13, 52, 88
19, 33479, Note_on_c, 13, 52, 0
19, 33480, Note_on_c, 13, 55, 88
19, 33539, Note_on_c, 13, 55, 0
19, 33540, Note_on_c, 13, 52, 88
19, 33599, Note_on_c, 13, 52, 0
19, 33600, Note_on_c, 13, 60, 88
19, 33659, Note_on_c, 13, 60, 0
19, 33660, Note_on_c, 13, 51, 88
19, 33689, Note_on_c, 13, 51, 0
19, 33690, Note_on_c, 13, 51, 88
19, 33719, Note_on_c, 13, 51, 0
19, 33720, Note_on_c, 13, 51, 88
19, 33779, Note_on_c, 13, 51, 0
19, 33780, Note_on_c, 13, 51, 88
19, 33839, Note_on_c, 13, 51, 0
19, 33840, Note_on_c, 13, 50, 88
19, 33899, Note_on_c, 13, 50, 0
19, 33900, Note_on_c, 13, 54, 88
19, 33959, Note_on_c, 13, 54, 0
19, 33960, Note_on_c, 13, 55, 88
19, 34019, Note_on_c, 13, 55, 0
19, 34020, Note_on_c, 13, 48, 88
19, 34079, Note_on_c, 13, 48, 0
19, 34080, Note_on_c, 13, 50, 88
19, 34319, Note_on_c, 13, 50, 0
19, 34320, Note_on_c, 13, 55, 88
19, 34439, Note_on_c, 13, 55, 0
19, 34680, Note_on_c, 13, 55, 88
19, 34799, Note_on_c, 13, 55, 0
19, 34800, Note_on_c, 13, 51, 88
19, 34919, Note_on_c, 13, 51, 0
19, 34920, Note_on_c, 13, 55, 88
19, 34979, Note_on_c, 13, 55, 0
19, 34980, Note_on_c, 13, 55, 88
19, 35039, Note_on_c, 13, 55, 0
19, 35040, Note_on_c, 13, 51, 88
19, 35159, Note_on_c, 13, 51, 0
19, 35160, Note_on_c, 13, 47, 88
19, 35219, Note_on_c, 13, 47, 0
19, 35220, Note_on_c, 13, 47, 88
19, 35279, Note_on_c, 13, 47, 0
19, 35280, Note_on_c, 13, 48, 88
19, 35759, Note_on_c, 13, 48, 0
19, 35760, Note_on_c, 13, 43, 88
19, 36239, Note_on_c, 13, 43, 0
19, 36239, End_track
20, 0, Start_track
20, 0, Title_t, "Organ"
20, 0, MIDI_port, 0
20, 0, Program_c, 15, 19
20, 0, Control_c, 15, 7, 104
20, 0, Control_c, 15, 10, 64
20, 0, Control_c, 15, 11, 127
20, 19440, Note_on_c, 15, 43, 72
20, 19440, Note_on_c, 15, 58, 72
20, 19440, Note_on_c, 15, 62, 72
20, 19440, Note_on_c, 15, 67, 72
20, 19499, Note_on_c, 15, 43, 0
20, 19500, Note_on_c, 15, 55, 72
20, 19529, Note_on_c, 15, 55, 0
20, 19530, Note_on_c, 15, 54, 72
20, 19559, Note_on_c, 15, 58, 0
20, 19559, Note_on_c, 15, 62, 0
20, 19559, Note_on_c, 15, 67, 0
20, 19559, Note_on_c, 15, 54, 0
20, 19560, Note_on_c, 15, 55, 72
20, 19560, Note_on_c, 15, 70, 72
20, 19560, Note_on_c, 15, 62, 72
20, 19560, Note_on_c, 15, 67, 72
20, 19619, Note_on_c, 15, 55, 0
20, 19620, Note_on_c, 15, 58, 72
20, 19679, Note_on_c, 15, 70, 0
20, 19679, Note_on_c, 15, 62, 0
20, 19679, Note_on_c, 15, 67, 0
20, 19679, Note_on_c, 15, 58, 0
20, 19680, Note_on_c, 15, 45, 72
20, 19680, Note_on_c, 15, 60, 72
20, 19680, Note_on_c, 15, 63, 72
20, 19680, Note_on_c, 15, 67, 72
20, 19739, Note_on_c, 15, 45, 0
20, 19739, Note_on_c, 15, 63, 0
20, 19739, Note_on_c, 15, 67, 0
20, 19740, Note_on_c, 15, 57, 72
20, 19740, Note_on_c, 15, 66, 72
20, 19769, Note_on_c, 15, 57, 0
20, 19770, Note_on_c, 15, 55, 72
20, 19799, Note_on_c, 15, 55, 0
20, 19800, Note_on_c, 15, 57, 72
20, 19859, Note_on_c, 15, 60, 0
20, 19859, Note_on_c, 15, 57, 0
20, 19860, Note_on_c, 15, 60, 72
20, 19919, Note_on_c, 15, 66, 0
20, 19919, Note_on_c, 15, 60, 0
20, 19920, Note_on_c, 15, 38, 72
20, 19920, Note_on_c, 15, 54, 72
20, 19920, Note_on_c, 15, 57, 72
20, 19920, Note_on_c, 15, 60, 72
20, 19920, Note_on_c, 15, 65, 72
20, 19979, Note_on_c, 15, 38, 0
20, 19980, Note_on_c, 15, 50, 72
20, 20009, Note_on_c, 15, 50, 0
20, 20010, Note_on_c, 15, 49, 72
20, 20039, Note_on_c, 15, 54, 0
20, 20039, Note_on_c, 15, 57, 0
20, 20039, Note_on_c, 15, 60, 0
20, 20039, Note_on_c, 15, 65, 0
20, 20039, Note_on_c, 15, 49, 0
20, 20040, Note_on_c, 15, 50, 72
20, 20040, Note_on_c, 15, 65, 72
20, 20040, Note_on_c, 15, 69, 72
20, 20099, Note_on_c, 15, 50, 0
20, 20099, Note_on_c, 15, 65, 0
20, 20099, Note_on_c, 15, 69, 0
20, 20100, Note_on_c, 15, 54, 72
20, 20100, Note_on_c, 15, 69, 72
20, 20100, Note_on_c, 15, 60, 72
20, 20100, Note_on_c, 15, 62, 72
20, 20159, Note_on_c, 15, 54, 0
20, 20159, Note_on_c, 15, 69, 0
20, 20159, Note_on_c, 15, 60, 0
20, 20159, Note_on_c, 15, 62, 0
20, 20160, Note_on_c, 15, 43, 72
20, 20160, Note_on_c, 15, 62, 72
20, 20160, Note_on_c, 15, 60, 72
20, 20219, Note_on_c, 15, 43, 0
20, 20220, Note_on_c, 15, 55, 72
20, 20249, Note_on_c, 15, 55, 0
20, 20250, Note_on_c, 15, 54, 72
20, 20279, Note_on_c, 15, 60, 0
20, 20279, Note_on_c, 15, 54, 0
20, 20280, Note_on_c, 15, 55, 72
20, 20280, Note_on_c, 15, 58, 72
20, 20280, Note_on_c, 15, 67, 72
20, 20339, Note_on_c, 15, 55, 0
20, 20399, Note_on_c, 15, 62, 0
20, 20399, Note_on_c, 15, 58, 0
20, 20399, Note_on_c, 15, 67, 0
20, 20400, Note_on_c, 15, 40, 72
20, 20400, Note_on_c, 15, 55, 72
20, 20400, Note_on_c, 15, 58, 72
20, 20400, Note_on_c, 15, 62, 72
20, 20459, Note_on_c, 15, 40, 0
20, 20460, Note_on_c, 15, 52, 72
20, 20489, Note_on_c, 15, 52, 0
20, 20490, Note_on_c, 15, 50, 72
20, 20519, Note_on_c, 15, 55, 0
20, 20519, Note_on_c, 15, 58, 0
20, 20519, Note_on_c, 15, 62, 0
20, 20519, Note_on_c, 15, 50, 0
20, 20520, Note_on_c, 15, 51, 72
20, 20520, Note_on_c, 15, 67, 72
20, 20520, Note_on_c, 15, 61, 72
20, 20579, Note_on_c, 15, 51, 0
20, 20580, Note_on_c, 15, 55, 72
20, 20639, Note_on_c, 15, 67, 0
20, 20639, Note_on_c, 15, 61, 0
20, 20639, Note_on_c, 15, 55, 0
20, 20640, Note_on_c, 15, 45, 72
20, 20640, Note_on_c, 15, 61, 72
20, 20640, Note_on_c, 15, 63, 72
20, 20640, Note_on_c, 15, 67, 72
20, 20699, Note_on_c, 15, 45, 0
20, 20700, Note_on_c, 15, 57, 72
20, 20729, Note_on_c, 15, 57, 0
20, 20730, Note_on_c, 15, 56, 72
20, 20759, Note_on_c, 15, 61, 0
20, 20759, Note_on_c, 15, 63, 0
20, 20759, Note_on_c, 15, 67, 0
20, 20759, Note_on_c, 15, 56, 0
20, 20760, Note_on_c, 15, 57, 72
20, 20760, Note_on_c, 15, 60, 72
20, 20760, Note_on_c, 15, 63, 72
20, 20760, Note_on_c, 15, 69, 72
20, 20819, Note_on_c, 15, 57, 0
20, 20819, Note_on_c, 15, 60, 0
20, 20819, Note_on_c, 15, 63, 0
20, 20819, Note_on_c, 15, 69, 0
20, 20820, Note_on_c, 15, 61, 72
20, 20820, Note_on_c, 15, 63, 72
20, 20820, Note_on_c, 15, 67, 72
20, 20820, Note_on_c, 15, 69, 72
20, 20879, Note_on_c, 15, 61, 0
20, 20879, Note_on_c, 15, 63, 0
20, 20879, Note_on_c, 15, 67, 0
20, 20879, Note_on_c, 15, 69, 0
20, 20880, Note_on_c, 15, 50, 72
20, 20880, Note_on_c, 15, 67, 72
20, 20880, Note_on_c, 15, 62, 72
20, 20880, Note_on_c, 15, 57, 72
20, 20939, Note_on_c, 15, 50, 0
20, 20939, Note_on_c, 15, 67, 0
20, 20939, Note_on_c, 15, 62, 0
20, 20939, Note_on_c, 15, 57, 0
20, 20940, Note_on_c, 15, 62, 72
20, 20940, Note_on_c, 15, 65, 72
20, 20940, Note_on_c, 15, 69, 72
20, 20940, Note_on_c, 15, 72, 72
20, 20969, Note_on_c, 15, 62, 0
20, 20970, Note_on_c, 15, 60, 72
20, 20999, Note_on_c, 15, 65, 0
20, 20999, Note_on_c, 15, 60, 0
20, 21000, Note_on_c, 15, 62, 72
20, 21000, Note_on_c, 15, 66, 72
20, 21059, Note_on_c, 15, 62, 0
20, 21119, Note_on_c, 15, 69, 0
20, 21119, Note_on_c, 15, 72, 0
20, 21119, Note_on_c, 15, 66, 0
20, 21120, Note_on_c, 15, 43, 72
20, 21120, Note_on_c, 15, 60, 72
20, 21120, Note_on_c, 15, 62, 72
20, 21120, Note_on_c, 15, 67, 72
20, 21179, Note_on_c, 15, 43, 0
20, 21179, Note_on_c, 15, 60, 0
20, 21179, Note_on_c, 15, 62, 0
20, 21179, Note_on_c, 15, 67, 0
20, 21180, Note_on_c, 15, 55, 72
20, 21180, Note_on_c, 15, 59, 72
20, 21180, Note_on_c, 15, 62, 72
20, 21180, Note_on_c, 15, 65, 72
20, 21209, Note_on_c, 15, 55, 0
20, 21210, Note_on_c, 15, 54, 72
20, 21239, Note_on_c, 15, 54, 0
20, 21240, Note_on_c, 15, 55, 72
20, 21299, Note_on_c, 15, 55, 0
20, 21359, Note_on_c, 15, 59, 0
20, 21359, Note_on_c, 15, 62, 0
20, 21359, Note_on_c, 15, 65, 0
20, 21360, Note_on_c, 15, 48, 72
20, 21360, Note_on_c, 15, 65, 72
20, 21360, Note_on_c, 15, 67, 72
20, 21360, Note_on_c, 15, 60, 72
20, 21419, Note_on_c, 15, 48, 0
20, 21419, Note_on_c, 15, 65, 0
20, 21419, Note_on_c, 15, 67, 0
20, 21419, Note_on_c, 15, 60, 0
20, 21420, Note_on_c, 15, 63, 72
20, 21420, Note_on_c, 15, 60, 72
20, 21420, Note_on_c, 15, 67, 72
20, 21449, Note_on_c, 15, 60, 0
20, 21450, Note_on_c, 15, 59, 72
20, 21479, Note_on_c, 15, 59, 0
20, 21480, Note_on_c, 15, 60, 72
20, 21539, Note_on_c, 15, 60, 0
20, 21599, Note_on_c, 15, 63, 0
20, 21599, Note_on_c, 15, 67, 0
20, 21600, Note_on_c, 15, 45, 72
20, 21600, Note_on_c, 15, 60, 72
20, 21600, Note_on_c, 15, 63, 72
20, 21600, Note_on_c, 15, 67, 72
20, 21659, Note_on_c, 15, 45, 0
20, 21659, Note_on_c, 15, 67, 0
20, 21660, Note_on_c, 15, 57, 72
20, 21660, Note_on_c, 15, 66, 72
20, 21689, Note_on_c, 15, 57, 0
20, 21690, Note_on_c, 15, 55, 72
20, 21719, Note_on_c, 15, 60, 0
20, 21719, Note_on_c, 15, 63, 0
20, 21719, Note_on_c, 15, 66, 0
20, 21719, Note_on_c, 15, 55, 0
20, 21720, Note_on_c, 15, 57, 72
20, 21720, Note_on_c, 15, 60, 72
20, 21720, Note_on_c, 15, 63, 72
20, 21720, Note_on_c, 15, 69, 72
20, 21779, Note_on_c, 15, 57, 0
20, 21779, Note_on_c, 15, 60, 0
20, 21780, Note_on_c, 15, 60, 72
20, 21839, Note_on_c, 15, 63, 0
20, 21839, Note_on_c, 15, 69, 0
20, 21839, Note_on_c, 15, 60, 0
20, 21840, Note_on_c, 15, 38, 72
20, 21840, Note_on_c, 15, 54, 72
20, 21840, Note_on_c, 15, 57, 72
20, 21840, Note_on_c, 15, 72, 72
20, 21899, Note_on_c, 15, 38, 0
20, 21900, Note_on_c, 15, 50, 72
20, 21929, Note_on_c, 15, 50, 0
20, 21930, Note_on_c, 15, 49, 72
20, 21959, Note_on_c, 15, 49, 0
20, 21960, Note_on_c, 15, 50, 72
20, 22019, Note_on_c, 15, 54, 0
20, 22019, Note_on_c, 15, 57, 0
20, 22019, Note_on_c, 15, 72, 0
20, 22019, Note_on_c, 15, 50, 0
20, 22020, Note_on_c, 15, 54, 72
20, 22020, Note_on_c, 15, 57, 72
20, 22020, Note_on_c, 15, 72, 72
20, 22020, Note_on_c, 15, 62, 72
20, 22079, Note_on_c, 15, 54, 0
20, 22079, Note_on_c, 15, 57, 0
20, 22079, Note_on_c, 15, 72, 0
20, 22079, Note_on_c, 15, 62, 0
20, 22080, Note_on_c, 15, 43, 72
20, 22080, Note_on_c, 15, 58, 72
20, 22080, Note_on_c, 15, 62, 72
20, 22080, Note_on_c, 15, 74, 72
20, 22139, Note_on_c, 15, 43, 0
20, 22139, Note_on_c, 15, 58, 0
20, 22139, Note_on_c, 15, 62, 0
20, 22139, Note_on_c, 15, 74, 0
20, 22140, Note_on_c, 15, 55, 72
20, 22140, Note_on_c, 15, 74, 72
20, 22140, Note_on_c, 15, 70, 72
20, 22169, Note_on_c, 15, 55, 0
20, 22170, Note_on_c, 15, 54, 72
20, 22199, Note_on_c, 15, 74, 0
20, 22199, Note_on_c, 15, 70, 0
20, 22199, Note_on_c, 15, 54, 0
20, 22200, Note_on_c, 15, 55, 72
20, 22200, Note_on_c, 15, 74, 72
20, 22200, Note_on_c, 15, 70, 72
20, 22200, Note_on_c, 15, 67, 72
20, 22259, Note_on_c, 15, 55, 0
20, 22260, Note_on_c, 15, 58, 72
20, 22319, Note_on_c, 15, 74, 0
20, 22319, Note_on_c, 15, 70, 0
20, 22319, Note_on_c, 15, 67, 0
20, 22319, Note_on_c, 15, 58, 0
20, 22320, Note_on_c, 15, 52, 72
20, 22320, Note_on_c, 15, 67, 72
20, 22320, Note_on_c, 15, 70, 72
20, 22320, Note_on_c, 15, 74, 72
20, 22379, Note_on_c, 15, 52, 0
20, 22379, Note_on_c, 15, 74, 0
20, 22380, Note_on_c, 15, 64, 72
20, 22380, Note_on_c, 15, 73, 72
20, 22409, Note_on_c, 15, 64, 0
20, 22410, Note_on_c, 15, 62, 72
20, 22439, Note_on_c, 15, 62, 0
20, 22440, Note_on_c, 15, 64, 72
20, 22499, Note_on_c, 15, 64, 0
20, 22500, Note_on_c, 15, 67, 72
20, 22559, Note_on_c, 15, 67, 0
20, 22559, Note_on_c, 15, 70, 0
20, 22559, Note_on_c, 15, 73, 0
20, 22559, Note_on_c, 15, 67, 0
20, 22560, Note_on_c, 15, 45, 72
20, 22560, Note_on_c, 15, 61, 72
20, 22560, Note_on_c, 15, 64, 72
20, 22560, Note_on_c, 15, 79, 72
20, 22560, Note_on_c, 15, 73, 72
20, 22619, Note_on_c, 15, 45, 0
20, 22620, Note_on_c, 15, 57, 72
20, 22649, Note_on_c, 15, 57, 0
20, 22650, Note_on_c, 15, 56, 72
20, 22679, Note_on_c, 15, 61, 0
20, 22679, Note_on_c, 15, 64, 0
20, 22679, Note_on_c, 15, 79, 0
20, 22679, Note_on_c, 15, 73, 0
20, 22679, Note_on_c, 15, 56, 0
20, 22680, Note_on_c, 15, 57, 72
20, 22680, Note_on_c, 15, 73, 72
20, 22680, Note_on_c, 15, 63, 72
20, 22739, Note_on_c, 15, 57, 0
20, 22739, Note_on_c, 15, 73, 0
20, 22739, Note_on_c, 15, 63, 0
20, 22740, Note_on_c, 15, 61, 72
20, 22740, Note_on_c, 15, 63, 72
20, 22740, Note_on_c, 15, 79, 72
20, 22740, Note_on_c, 15, 69, 72
20, 22799, Note_on_c, 15, 61, 0
20, 22799, Note_on_c, 15, 63, 0
20, 22799, Note_on_c, 15, 79, 0
20, 22799, Note_on_c, 15, 69, 0
20, 22800, Note_on_c, 15, 50, 72
20, 22800, Note_on_c, 15, 79, 72
20, 22800, Note_on_c, 15, 69, 72
20, 22859, Note_on_c, 15, 50, 0
20, 22860, Note_on_c, 15, 62, 72
20, 22889, Note_on_c, 15, 62, 0
20, 22890, Note_on_c, 15, 61, 72
20, 22919, Note_on_c, 15, 79, 0
20, 22919, Note_on_c, 15, 69, 0
20, 22919, Note_on_c, 15, 61, 0
20, 22920, Note_on_c, 15, 62, 72
20, 22920, Note_on_c, 15, 78, 72
20, 22920, Note_on_c, 15, 69, 72
20, 22920, Note_on_c, 15, 72, 72
20, 22979, Note_on_c, 15, 62, 0
20, 22980, Note_on_c, 15, 66, 72
20, 23039, Note_on_c, 15, 78, 0
20, 23039, Note_on_c, 15, 69, 0
20, 23039, Note_on_c, 15, 72, 0
20, 23039, Note_on_c, 15, 66, 0
20, 23040, Note_on_c, 15, 43, 72
20, 23040, Note_on_c, 15, 72, 72
20, 23040, Note_on_c, 15, 74, 72
20, 23040, Note_on_c, 15, 67, 72
20, 23099, Note_on_c, 15, 43, 0
20, 23099, Note_on_c, 15, 72, 0
20, 23099, Note_on_c, 15, 74, 0
20, 23099, Note_on_c, 15, 67, 0
20, 23100, Note_on_c, 15, 55, 72
20, 23100, Note_on_c, 15, 71, 72
20, 23100, Note_on_c, 15, 74, 72
20, 23100, Note_on_c, 15, 77, 72
20, 23129, Note_on_c, 15, 55, 0
20, 23130, Note_on_c, 15, 54, 72
20, 23159, Note_on_c, 15, 71, 0
20, 23159, Note_on_c, 15, 74, 0
20, 23159, Note_on_c, 15, 77, 0
20, 23159, Note_on_c, 15, 54, 0
20, 23160, Note_on_c, 15, 55, 72
20, 23160, Note_on_c, 15, 71, 72
20, 23160, Note_on_c, 15, 62, 72
20, 23160, Note_on_c, 15, 67, 72
20, 23219, Note_on_c, 15, 55, 0
20, 23219, Note_on_c, 15, 62, 0
20, 23219, Note_on_c, 15, 67, 0
20, 23220, Note_on_c, 15, 59, 72
20, 23220, Note_on_c, 15, 62, 72
20, 23220, Note_on_c, 15, 77, 72
20, 23220, Note_on_c, 15, 67, 72
20, 23279, Note_on_c, 15, 71, 0
20, 23279, Note_on_c, 15, 59, 0
20, 23279, Note_on_c, 15, 62, 0
20, 23279, Note_on_c, 15, 77, 0
20, 23279, Note_on_c, 15, 67, 0
20, 23280, Note_on_c, 15, 48, 72
20, 23280, Note_on_c, 15, 77, 72
20, 23280, Note_on_c, 15, 67, 72
20, 23280, Note_on_c, 15, 60, 72
20, 23339, Note_on_c, 15, 48, 0
20, 23339, Note_on_c, 15, 77, 0
20, 23339, Note_on_c, 15, 67, 0
20, 23339, Note_on_c, 15, 60, 0
20, 23340, Note_on_c, 15, 60, 72
20, 23340, Note_on_c, 15, 76, 72
20, 23340, Note_on_c, 15, 67, 72
20, 23340, Note_on_c, 15, 70, 72
20, 23369, Note_on_c, 15, 60, 0
20, 23370, Note_on_c, 15, 59, 72
20, 23399, Note_on_c, 15, 76, 0
20, 23399, Note_on_c, 15, 67, 0
20, 23399, Note_on_c, 15, 70, 0
20, 23399, Note_on_c, 15, 59, 0
20, 23400, Note_on_c, 15, 60, 72
20, 23400, Note_on_c, 15, 76, 72
20, 23400, Note_on_c, 15, 67, 72
20, 23459, Note_on_c, 15, 60, 0
20, 23459, Note_on_c, 15, 67, 0
20, 23460, Note_on_c, 15, 64, 72
20, 23460, Note_on_c, 15, 70, 72
20, 23519, Note_on_c, 15, 76, 0
20, 23519, Note_on_c, 15, 64, 0
20, 23519, Note_on_c, 15, 70, 0
20, 23520, Note_on_c, 15, 41, 72
20, 23520, Note_on_c, 15, 70, 72
20, 23520, Note_on_c, 15, 60, 72
20, 23520, Note_on_c, 15, 65, 72
20, 23579, Note_on_c, 15, 41, 0
20, 23579, Note_on_c, 15, 70, 0
20, 23579, Note_on_c, 15, 60, 0
20, 23579, Note_on_c, 15, 65, 0
20, 23580, Note_on_c, 15, 53, 72
20, 23580, Note_on_c, 15, 57, 72
20, 23580, Note_on_c, 15, 60, 72
20, 23580, Note_on_c, 15, 75, 72
20, 23609, Note_on_c, 15, 53, 0
20, 23610, Note_on_c, 15, 52, 72
20, 23639, Note_on_c, 15, 57, 0
20, 23639, Note_on_c, 15, 60, 0
20, 23639, Note_on_c, 15, 75, 0
20, 23639, Note_on_c, 15, 52, 0
20, 23640, Note_on_c, 15, 53, 72
20, 23640, Note_on_c, 15, 69, 72
20, 23640, Note_on_c, 15, 72, 72
20, 23640, Note_on_c, 15, 65, 72
20, 23699, Note_on_c, 15, 53, 0
20, 23699, Note_on_c, 15, 69, 0
20, 23699, Note_on_c, 15, 72, 0
20, 23699, Note_on_c, 15, 65, 0
20, 23700, Note_on_c, 15, 57, 72
20, 23700, Note_on_c, 15, 72, 72
20, 23700, Note_on_c, 15, 75, 72
20, 23700, Note_on_c, 15, 65, 72
20, 23759, Note_on_c, 15, 57, 0
20, 23759, Note_on_c, 15, 72, 0
20, 23759, Note_on_c, 15, 75, 0
20, 23759, Note_on_c, 15, 65, 0
20, 23760, Note_on_c, 15, 46, 72
20, 23760, Note_on_c, 15, 75, 72
20, 23760, Note_on_c, 15, 65, 72
20, 23760, Note_on_c, 15, 58, 72
20, 23819, Note_on_c, 15, 46, 0
20, 23819, Note_on_c, 15, 75, 0
20, 23819, Note_on_c, 15, 65, 0
20, 23819, Note_on_c, 15, 58, 0
20, 23820, Note_on_c, 15, 74, 72
20, 23820, Note_on_c, 15, 58, 72
20, 23820, Note_on_c, 15, 65, 72
20, 23849, Note_on_c, 15, 58, 0
20, 23850, Note_on_c, 15, 57, 72
20, 23879, Note_on_c, 15, 57, 0
20, 23880, Note_on_c, 15, 58, 72
20, 23939, Note_on_c, 15, 58, 0
20, 23940, Note_on_c, 15, 62, 72
20, 23999, Note_on_c, 15, 74, 0
20, 23999, Note_on_c, 15, 65, 0
20, 23999, Note_on_c, 15, 62, 0
20, 24000, Note_on_c, 15, 48, 72
20, 24000, Note_on_c, 15, 63, 72
20, 24000, Note_on_c, 15, 67, 72
20, 24000, Note_on_c, 15, 58, 72
20, 24059, Note_on_c, 15, 48, 0
20, 24059, Note_on_c, 15, 63, 0
20, 24059, Note_on_c, 15, 67, 0
20, 24059, Note_on_c, 15, 58, 0
20, 24060, Note_on_c, 15, 72, 72
20, 24060, Note_on_c, 15, 60, 72
20, 24060, Note_on_c, 15, 63, 72
20, 24060, Note_on_c, 15, 69, 72
20, 24089, Note_on_c, 15, 60, 0
20, 24090, Note_on_c, 15, 58, 72
20, 24119, Note_on_c, 15, 58, 0
20, 24120, Note_on_c, 15, 60, 72
20, 24179, Note_on_c, 15, 60, 0
20, 24239, Note_on_c, 15, 72, 0
20, 24239, Note_on_c, 15, 63, 0
20, 24239, Note_on_c, 15, 69, 0
20, 24240, Note_on_c, 15, 41, 72
20, 24240, Note_on_c, 15, 57, 72
20, 24240, Note_on_c, 15, 60, 72
20, 24240, Note_on_c, 15, 63, 72
20, 24299, Note_on_c, 15, 41, 0
20, 24300, Note_on_c, 15, 53, 72
20, 24329, Note_on_c, 15, 53, 0
20, 24330, Note_on_c, 15, 52, 72
20, 24359, Note_on_c, 15, 52, 0
20, 24360, Note_on_c, 15, 53, 72
20, 24419, Note_on_c, 15, 53, 0
20, 24479, Note_on_c, 15, 57, 0
20, 24479, Note_on_c, 15, 60, 0
20, 24479, Note_on_c, 15, 63, 0
20, 24480, Note_on_c, 15, 38, 72
20, 24480, Note_on_c, 15, 53, 72
20, 24480, Note_on_c, 15, 57, 72
20, 24480, Note_on_c, 15, 72, 72
20, 24480, Note_on_c, 15, 63, 72
20, 24539, Note_on_c, 15, 38, 0
20, 24539, Note_on_c, 15, 53, 0
20, 24539, Note_on_c, 15, 57, 0
20, 24539, Note_on_c, 15, 63, 0
20, 24540, Note_on_c, 15, 50, 72
20, 24540, Note_on_c, 15, 56, 72
20, 24540, Note_on_c, 15, 62, 72
20, 24569, Note_on_c, 15, 50, 0
20, 24570, Note_on_c, 15, 48, 72
20, 24599, Note_on_c, 15, 48, 0
20, 24600, Note_on_c, 15, 50, 72
20, 24659, Note_on_c, 15, 50, 0
20, 24719, Note_on_c, 15, 72, 0
20, 24719, Note_on_c, 15, 56, 0
20, 24719, Note_on_c, 15, 62, 0
20, 24720, Note_on_c, 15, 43, 72
20, 24720, Note_on_c, 15, 62, 72
20, 24720, Note_on_c, 15, 72, 72
20, 24720, Note_on_c, 15, 67, 72
20, 24779, Note_on_c, 15, 43, 0
20, 24779, Note_on_c, 15, 72, 0
20, 24779, Note_on_c, 15, 67, 0
20, 24780, Note_on_c, 15, 55, 72
20, 24780, Note_on_c, 15, 71, 72
20, 24809, Note_on_c, 15, 55, 0
20, 24810, Note_on_c, 15, 54, 72
20, 24839, Note_on_c, 15, 62, 0
20, 24839, Note_on_c, 15, 71, 0
20, 24839, Note_on_c, 15, 54, 0
20, 24840, Note_on_c, 15, 55, 72
20, 24840, Note_on_c, 15, 71, 72
20, 24840, Note_on_c, 15, 62, 72
20, 24899, Note_on_c, 15, 55, 0
20, 24900, Note_on_c, 15, 59, 72
20, 24900, Note_on_c, 15, 77, 72
20, 24900, Note_on_c, 15, 67, 72
20, 24959, Note_on_c, 15, 71, 0
20, 24959, Note_on_c, 15, 62, 0
20, 24959, Note_on_c, 15, 59, 0
20, 24959, Note_on_c, 15, 77, 0
20, 24959, Note_on_c, 15, 67, 0
20, 24960, Note_on_c, 15, 48, 72
20, 24960, Note_on_c, 15, 77, 72
20, 24960, Note_on_c, 15, 67, 72
20, 25019, Note_on_c, 15, 48, 0
20, 25020, Note_on_c, 15, 60, 72
20, 25049, Note_on_c, 15, 60, 0
20, 25050, Note_on_c, 15, 59, 72
20, 25079, Note_on_c, 15, 77, 0
20, 25079, Note_on_c, 15, 59, 0
20, 25080, Note_on_c, 15, 60, 72
20, 25080, Note_on_c, 15, 75, 72
20, 25140, Note_on_c, 15, 63, 72
20, 25199, Note_on_c, 15, 67, 0
20, 25199, Note_on_c, 15, 60, 0
20, 25199, Note_on_c, 15, 75, 0
20, 25199, Note_on_c, 15, 63, 0
20, 25200, Note_on_c, 15, 50, 72
20, 25200, Note_on_c, 15, 65, 72
20, 25200, Note_on_c, 15, 69, 72
20, 25200, Note_on_c, 15, 60, 72
20, 25259, Note_on_c, 15, 50, 0
20, 25259, Note_on_c, 15, 65, 0
20, 25259, Note_on_c, 15, 69, 0
20, 25259, Note_on_c, 15, 60, 0
20, 25260, Note_on_c, 15, 62, 72
20, 25260, Note_on_c, 15, 65, 72
20, 25260, Note_on_c, 15, 68, 72
20, 25260, Note_on_c, 15, 71, 72
20, 25289, Note_on_c, 15, 62, 0
20, 25290, Note_on_c, 15, 60, 72
20, 25319, Note_on_c, 15, 60, 0
20, 25320, Note_on_c, 15, 62, 72
20, 25379, Note_on_c, 15, 62, 0
20, 25439, Note_on_c, 15, 65, 0
20, 25439, Note_on_c, 15, 68, 0
20, 25439, Note_on_c, 15, 71, 0
20, 25440, Note_on_c, 15, 43, 72
20, 25440, Note_on_c, 15, 59, 72
20, 25440, Note_on_c, 15, 62, 72
20, 25499, Note_on_c, 15, 43, 0
20, 25499, Note_on_c, 15, 62, 0
20, 25500, Note_on_c, 15, 55, 72
20, 25500, Note_on_c, 15, 62, 72
20, 25500, Note_on_c, 15, 65, 72
20, 25529, Note_on_c, 15, 55, 0
20, 25530, Note_on_c, 15, 54, 72
20, 25559, Note_on_c, 15, 54, 0
20, 25560, Note_on_c, 15, 55, 72
20, 25560, Note_on_c, 15, 67, 72
20, 25619, Note_on_c, 15, 59, 0
20, 25619, Note_on_c, 15, 62, 0
20, 25619, Note_on_c, 15, 65, 0
20, 25619, Note_on_c, 15, 55, 0
20, 25620, Note_on_c, 15, 59, 72
20, 25620, Note_on_c, 15, 65, 72
20, 25620, Note_on_c, 15, 62, 72
20, 25679, Note_on_c, 15, 67, 0
20, 25679, Note_on_c, 15, 59, 0
20, 25679, Note_on_c, 15, 65, 0
20, 25679, Note_on_c, 15, 62, 0
20, 25680, Note_on_c, 15, 40, 72
20, 25680, Note_on_c, 15, 55, 72
20, 25680, Note_on_c, 15, 58, 72
20, 25680, Note_on_c, 15, 74, 72
20, 25680, Note_on_c, 15, 65, 72
20, 25739, Note_on_c, 15, 40, 0
20, 25740, Note_on_c, 15, 52, 72
20, 25769, Note_on_c, 15, 52, 0
20, 25770, Note_on_c, 15, 50, 72
20, 25799, Note_on_c, 15, 55, 0
20, 25799, Note_on_c, 15, 74, 0
20, 25799, Note_on_c, 15, 65, 0
20, 25799, Note_on_c, 15, 50, 0
20, 25800, Note_on_c, 15, 52, 72
20, 25800, Note_on_c, 15, 64, 72
20, 25800, Note_on_c, 15, 74, 72
20, 25859, Note_on_c, 15, 52, 0
20, 25860, Note_on_c, 15, 55, 72
20, 25919, Note_on_c, 15, 58, 0
20, 25919, Note_on_c, 15, 64, 0
20, 25919, Note_on_c, 15, 74, 0
20, 25919, Note_on_c, 15, 55, 0
20, 25920, Note_on_c, 15, 45, 72
20, 25920, Note_on_c, 15, 74, 72
20, 25920, Note_on_c, 15, 76, 72
20, 25920, Note_on_c, 15, 67, 72
20, 25979, Note_on_c, 15, 45, 0
20, 25980, Note_on_c, 15, 57, 72
20, 26009, Note_on_c, 15, 57, 0
20, 26010, Note_on_c, 15, 56, 72
20, 26039, Note_on_c, 15, 74, 0
20, 26039, Note_on_c, 15, 67, 0
20, 26039, Note_on_c, 15, 56, 0
20, 26040, Note_on_c, 15, 57, 72
20, 26040, Note_on_c, 15, 72, 72
20, 26099, Note_on_c, 15, 57, 0
20, 26100, Note_on_c, 15, 67, 72
20, 26100, Note_on_c, 15, 61, 72
20, 26100, Note_on_c, 15, 69, 72
20, 26159, Note_on_c, 15, 76, 0
20, 26159, Note_on_c, 15, 72, 0
20, 26159, Note_on_c, 15, 67, 0
20, 26159, Note_on_c, 15, 61, 0
20, 26159, Note_on_c, 15, 69, 0
20, 26160, Note_on_c, 15, 50, 72
20, 26160, Note_on_c, 15, 67, 72
20, 26160, Note_on_c, 15, 69, 72
20, 26160, Note_on_c, 15, 74, 72
20, 26219, Note_on_c, 15, 50, 0
20, 26220, Note_on_c, 15, 62, 72
20, 26249, Note_on_c, 15, 62, 0
20, 26250, Note_on_c, 15, 61, 72
20, 26279, Note_on_c, 15, 67, 0
20, 26279, Note_on_c, 15, 61, 0
20, 26280, Note_on_c, 15, 62, 72
20, 26280, Note_on_c, 15, 66, 72
20, 26339, Note_on_c, 15, 69, 0
20, 26339, Note_on_c, 15, 74, 0
20, 26339, Note_on_c, 15, 62, 0
20, 26339, Note_on_c, 15, 66, 0
20, 26340, Note_on_c, 15, 66, 72
20, 26340, Note_on_c, 15, 69, 72
20, 26340, Note_on_c, 15, 74, 72
20, 26399, Note_on_c, 15, 66, 0
20, 26399, Note_on_c, 15, 69, 0
20, 26399, Note_on_c, 15, 74, 0
20, 26400, Note_on_c, 15, 51, 72
20, 26400, Note_on_c, 15, 67, 72
20, 26400, Note_on_c, 15, 70, 72
20, 26400, Note_on_c, 15, 74, 72
20, 26459, Note_on_c, 15, 51, 0
20, 26460, Note_on_c, 15, 63, 72
20, 26489, Note_on_c, 15, 63, 0
20, 26490, Note_on_c, 15, 62, 72
20, 26519, Note_on_c, 15, 67, 0
20, 26519, Note_on_c, 15, 70, 0
20, 26519, Note_on_c, 15, 74, 0
20, 26519, Note_on_c, 15, 62, 0
20, 26520, Note_on_c, 15, 63, 72
20, 26520, Note_on_c, 15, 67, 72
20, 26520, Note_on_c, 15, 72, 72
20, 26579, Note_on_c, 15, 63, 0
20, 26580, Note_on_c, 15, 51, 72
20, 26639, Note_on_c, 15, 67, 0
20, 26639, Note_on_c, 15, 72, 0
20, 26639, Note_on_c, 15, 51, 0
20, 26640, Note_on_c, 15, 50, 72
20, 26640, Note_on_c, 15, 77, 72
20, 26640, Note_on_c, 15, 69, 72
20, 26640, Note_on_c, 15, 60, 72
20, 26699, Note_on_c, 15, 50, 0
20, 26700, Note_on_c, 15, 62, 72
20, 26729, Note_on_c, 15, 62, 0
20, 26730, Note_on_c, 15, 60, 72
20, 26759, Note_on_c, 15, 77, 0
20, 26759, Note_on_c, 15, 69, 0
20, 26759, Note_on_c, 15, 60, 0
20, 26759, Note_on_c, 15, 60, 0
20, 26760, Note_on_c, 15, 62, 72
20, 26760, Note_on_c, 15, 65, 72
20, 26760, Note_on_c, 15, 70, 72
20, 26819, Note_on_c, 15, 62, 0
20, 26879, Note_on_c, 15, 65, 0
20, 26879, Note_on_c, 15, 70, 0
20, 26880, Note_on_c, 15, 48, 72
20, 26880, Note_on_c, 15, 63, 72
20, 26880, Note_on_c, 15, 67, 72
20, 26880, Note_on_c, 15, 70, 72
20, 26939, Note_on_c, 15, 48, 0
20, 26940, Note_on_c, 15, 60, 72
20, 26969, Note_on_c, 15, 60, 0
20, 26970, Note_on_c, 15, 58, 72
20, 26999, Note_on_c, 15, 63, 0
20, 26999, Note_on_c, 15, 67, 0
20, 26999, Note_on_c, 15, 70, 0
20, 26999, Note_on_c, 15, 58, 0
20, 27000, Note_on_c, 15, 60, 72
20, 27000, Note_on_c, 15, 63, 72
20, 27000, Note_on_c, 15, 69, 72
20, 27000, Note_on_c, 15, 75, 72
20, 27059, Note_on_c, 15, 60, 0
20, 27060, Note_on_c, 15, 48, 72
20, 27119, Note_on_c, 15, 63, 0
20, 27119, Note_on_c, 15, 69, 0
20, 27119, Note_on_c, 15, 75, 0
20, 27119, Note_on_c, 15, 48, 0
20, 27120, Note_on_c, 15, 46, 72
20, 27120, Note_on_c, 15, 74, 72
20, 27120, Note_on_c, 15, 66, 72
20, 27179, Note_on_c, 15, 46, 0
20, 27180, Note_on_c, 15, 58, 72
20, 27209, Note_on_c, 15, 58, 0
20, 27210, Note_on_c, 15, 57, 72
20, 27239, Note_on_c, 15, 74, 0
20, 27239, Note_on_c, 15, 66, 0
20, 27239, Note_on_c, 15, 57, 0
20, 27240, Note_on_c, 15, 58, 72
20, 27240, Note_on_c, 15, 62, 72
20, 27240, Note_on_c, 15, 67, 72
20, 27299, Note_on_c, 15, 58, 0
20, 27299, Note_on_c, 15, 62, 0
20, 27299, Note_on_c, 15, 67, 0
20, 27300, Note_on_c, 15, 55, 72
20, 27300, Note_on_c, 15, 58, 72
20, 27300, Note_on_c, 15, 62, 72
20, 27300, Note_on_c, 15, 74, 72
20, 27359, Note_on_c, 15, 55, 0
20, 27359, Note_on_c, 15, 58, 0
20, 27359, Note_on_c, 15, 62, 0
20, 27359, Note_on_c, 15, 74, 0
20, 27360, Note_on_c, 15, 51, 72
20, 27360, Note_on_c, 15, 55, 72
20, 27360, Note_on_c, 15, 70, 72
20, 27360, Note_on_c, 15, 74, 72
20, 27419, Note_on_c, 15, 51, 0
20, 27420, Note_on_c, 15, 63, 72
20, 27449, Note_on_c, 15, 63, 0
20, 27450, Note_on_c, 15, 62, 72
20, 27479, Note_on_c, 15, 55, 0
20, 27479, Note_on_c, 15, 70, 0
20, 27479, Note_on_c, 15, 74, 0
20, 27479, Note_on_c, 15, 62, 0
20, 27480, Note_on_c, 15, 63, 72
20, 27480, Note_on_c, 15, 67, 72
20, 27480, Note_on_c, 15, 73, 72
20, 27539, Note_on_c, 15, 63, 0
20, 27540, Note_on_c, 15, 51, 72
20, 27599, Note_on_c, 15, 67, 0
20, 27599, Note_on_c, 15, 73, 0
20, 27599, Note_on_c, 15, 51, 0
20, 27600, Note_on_c, 15, 50, 72
20, 27600, Note_on_c, 15, 66, 72
20, 27600, Note_on_c, 15, 57, 72
20, 27600, Note_on_c, 15, 74, 72
20, 27839, Note_on_c, 15, 50, 0
20, 27839, Note_on_c, 15, 66, 0
20, 27839, Note_on_c, 15, 57, 0
20, 27839, Note_on_c, 15, 74, 0
20, 27840, Note_on_c, 15, 50, 72
20, 27900, Note_on_c, 15, 67, 72
20, 27900, Note_on_c, 15, 58, 72
20, 27900, Note_on_c, 15, 75, 72
20, 28079, Note_on_c, 15, 50, 0
20, 28080, Note_on_c, 15, 50, 72
20, 28139, Note_on_c, 15, 67, 0
20, 28139, Note_on_c, 15, 58, 0
20, 28139, Note_on_c, 15, 75, 0
20, 28140, Note_on_c, 15, 63, 72
20, 28140, Note_on_c, 15, 69, 72
20, 28140, Note_on_c, 15, 60, 72
20, 28319, Note_on_c, 15, 50, 0
20, 28320, Note_on_c, 15, 50, 72
20, 28379, Note_on_c, 15, 63, 0
20, 28379, Note_on_c, 15, 69, 0
20, 28379, Note_on_c, 15, 60, 0
20, 28380, Note_on_c, 15, 66, 72
20, 28380, Note_on_c, 15, 57, 72
20, 28380, Note_on_c, 15, 74, 72
20, 28559, Note_on_c, 15, 50, 0
20, 28560, Note_on_c, 15, 50, 72
20, 28619, Note_on_c, 15, 66, 0
20, 28619, Note_on_c, 15, 57, 0
20, 28619, Note_on_c, 15, 74, 0
20, 28620, Note_on_c, 15, 65, 72
20, 28620, Note_on_c, 15, 70, 72
20, 28620, Note_on_c, 15, 62, 72
20, 28739, Note_on_c, 15, 65, 0
20, 28739, Note_on_c, 15, 62, 0
20, 28740, Note_on_c, 15, 67, 72
20, 28740, Note_on_c, 15, 62, 72
20, 28799, Note_on_c, 15, 50, 0
20, 28800, Note_on_c, 15, 50, 72
20, 28859, Note_on_c, 15, 70, 0
20, 28859, Note_on_c, 15, 67, 0
20, 28859, Note_on_c, 15, 62, 0
20, 28860, Note_on_c, 15, 64, 72
20, 28860, Note_on_c, 15, 67, 72
20, 28860, Note_on_c, 15, 71, 72
20, 29039, Note_on_c, 15, 50, 0
20, 29040, Note_on_c, 15, 50, 72
20, 29099, Note_on_c, 15, 64, 0
20, 29099, Note_on_c, 15, 67, 0
20, 29099, Note_on_c, 15, 71, 0
20, 29100, Note_on_c, 15, 66, 72
20, 29100, Note_on_c, 15, 70, 72
20, 29100, Note_on_c, 15, 62, 72
20, 29279, Note_on_c, 15, 50, 0
20, 29280, Note_on_c, 15, 50, 72
20, 29339, Note_on_c, 15, 66, 0
20, 29339, Note_on_c, 15, 70, 0
20, 29339, Note_on_c, 15, 62, 0
20, 29340, Note_on_c, 15, 58, 72
20, 29340, Note_on_c, 15, 67, 72
20, 29519, Note_on_c, 15, 50, 0
20, 29519, Note_on_c, 15, 58, 0
20, 29519, Note_on_c, 15, 67, 0
20, 29520, Note_on_c, 15, 49, 72
20, 29520, Note_on_c, 15, 64, 72
20, 29520, Note_on_c, 15, 67, 72
20, 29520, Note_on_c, 15, 70, 72
20, 29639, Note_on_c, 15, 49, 0
20, 29639, Note_on_c, 15, 64, 0
20, 29639, Note_on_c, 15, 67, 0
20, 29639, Note_on_c, 15, 70, 0
20, 29880, Note_on_c, 15, 48, 48
20, 29880, Note_on_c, 15, 64, 48
20, 29880, Note_on_c, 15, 67, 48
20, 29880, Note_on_c, 15, 70, 48
20, 29939, Note_on_c, 15, 48, 0
20, 29940, Note_on_c, 15, 48, 48
20, 29999, Note_on_c, 15, 64, 0
20, 29999, Note_on_c, 15, 67, 0
20, 29999, Note_on_c, 15, 70, 0
20, 29999, Note_on_c, 15, 48, 0
20, 30000, Note_on_c, 15, 50, 48
20, 30000, Note_on_c, 15, 66, 48
20, 30000, Note_on_c, 15, 57, 48
20, 30000, Note_on_c, 15, 62, 48
20, 30059, Note_on_c, 15, 50, 0
20, 30060, Note_on_c, 15, 50, 48
20, 30119, Note_on_c, 15, 66, 0
20, 30119, Note_on_c, 15, 57, 0
20, 30119, Note_on_c, 15, 62, 0
20, 30119, Note_on_c, 15, 50, 0
20, 30120, Note_on_c, 15, 51, 48
20, 30120, Note_on_c, 15, 67, 48
20, 30120, Note_on_c, 15, 70, 48
20, 30120, Note_on_c, 15, 61, 48
20, 30179, Note_on_c, 15, 51, 0
20, 30180, Note_on_c, 15, 51, 48
20, 30239, Note_on_c, 15, 67, 0
20, 30239, Note_on_c, 15, 70, 0
20, 30239, Note_on_c, 15, 61, 0
20, 30239, Note_on_c, 15, 51, 0
20, 30240, Note_on_c, 15, 50, 48
20, 30240, Note_on_c, 15, 67, 48
20, 30240, Note_on_c, 15, 57, 48
20, 30240, Note_on_c, 15, 62, 48
20, 30299, Note_on_c, 15, 50, 0
20, 30300, Note_on_c, 15, 50, 48
20, 30359, Note_on_c, 15, 67, 0
20, 30359, Note_on_c, 15, 62, 0
20, 30359, Note_on_c, 15, 50, 0
20, 30360, Note_on_c, 15, 50, 48
20, 30360, Note_on_c, 15, 66, 48
20, 30419, Note_on_c, 15, 50, 0
20, 30420, Note_on_c, 15, 50, 48
20, 30479, Note_on_c, 15, 57, 0
20, 30479, Note_on_c, 15, 66, 0
20, 30479, Note_on_c, 15, 50, 0
20, 30480, Note_on_c, 15, 58, 48
20, 30480, Note_on_c, 15, 43, 48
20, 30480, Note_on_c, 15, 62, 48
20, 30480, Note_on_c, 15, 67, 48
20, 30599, Note_on_c, 15, 58, 0
20, 30599, Note_on_c, 15, 43, 0
20, 30599, Note_on_c, 15, 62, 0
20, 30599, Note_on_c, 15, 67, 0
20, 30660, Note_on_c, 15, 58, 48
20, 30660, Note_on_c, 15, 74, 48
20, 30660, Note_on_c, 15, 67, 48
20, 30689, Note_on_c, 15, 58, 0
20, 30690, Note_on_c, 15, 55, 48
20, 30719, Note_on_c, 15, 74, 0
20, 30719, Note_on_c, 15, 67, 0
20, 30719, Note_on_c, 15, 55, 0
20, 30720, Note_on_c, 15, 51, 48
20, 30720, Note_on_c, 15, 79, 48
20, 30720, Note_on_c, 15, 60, 48
20, 30720, Note_on_c, 15, 63, 48
20, 30779, Note_on_c, 15, 51, 0
20, 30900, Note_on_c, 15, 51, 48
20, 30929, Note_on_c, 15, 51, 0
20, 30930, Note_on_c, 15, 48, 48
20, 30959, Note_on_c, 15, 79, 0
20, 30959, Note_on_c, 15, 60, 0
20, 30959, Note_on_c, 15, 63, 0
20, 30959, Note_on_c, 15, 48, 0
20, 30960, Note_on_c, 15, 41, 48
20, 30960, Note_on_c, 15, 69, 48
20, 30960, Note_on_c, 15, 60, 48
20, 31019, Note_on_c, 15, 41, 0
20, 31020, Note_on_c, 15, 53, 48
20, 31079, Note_on_c, 15, 53, 0
20, 31140, Note_on_c, 15, 57, 48
20, 31169, Note_on_c, 15, 57, 0
20, 31170, Note_on_c, 15, 53, 48
20, 31199, Note_on_c, 15, 69, 0
20, 31199, Note_on_c, 15, 60, 0
20, 31199, Note_on_c, 15, 53, 0
20, 31200, Note_on_c, 15, 50, 48
20, 31200, Note_on_c, 15, 77, 48
20, 31200, Note_on_c, 15, 70, 48
20, 31200, Note_on_c, 15, 62, 48
20, 31259, Note_on_c, 15, 50, 0
20, 31380, Note_on_c, 15, 46, 48
20, 31409, Note_on_c, 15, 46, 0
20, 31410, Note_on_c, 15, 43, 48
20, 31439, Note_on_c, 15, 77, 0
20, 31439, Note_on_c, 15, 70, 0
20, 31439, Note_on_c, 15, 62, 0
20, 31439, Note_on_c, 15, 43, 0
20, 31440, Note_on_c, 15, 39, 48
20, 31440, Note_on_c, 15, 67, 48
20, 31440, Note_on_c, 15, 58, 48
20, 31440, Note_on_c, 15, 75, 48
20, 31499, Note_on_c, 15, 39, 0
20, 31500, Note_on_c, 15, 51, 48
20, 31559, Note_on_c, 15, 51, 0
20, 31620, Note_on_c, 15, 51, 48
20, 31649, Note_on_c, 15, 51, 0
20, 31650, Note_on_c, 15, 48, 48
20, 31679, Note_on_c, 15, 67, 0
20, 31679, Note_on_c, 15, 58, 0
20, 31679, Note_on_c, 15, 75, 0
20, 31679, Note_on_c, 15, 48, 0
20, 31680, Note_on_c, 15, 45, 48
20, 31680, Note_on_c, 15, 72, 48
20, 31680, Note_on_c, 15, 63, 48
20, 31680, Note_on_c, 15, 67, 48
20, 31739, Note_on_c, 15, 45, 0
20, 31740, Note_on_c, 15, 57, 48
20, 31799, Note_on_c, 15, 72, 0
20, 31799, Note_on_c, 15, 63, 0
20, 31799, Note_on_c, 15, 67, 0
20, 31799, Note_on_c, 15, 57, 0
20, 31800, Note_on_c, 15, 63, 48
20, 31800, Note_on_c, 15, 69, 48
20, 31859, Note_on_c, 15, 69, 0
20, 31860, Note_on_c, 15, 48, 48
20, 31860, Note_on_c, 15, 67, 48
20, 31889, Note_on_c, 15, 48, 0
20, 31890, Note_on_c, 15, 45, 48
20, 31919, Note_on_c, 15, 63, 0
20, 31919, Note_on_c, 15, 67, 0
20, 31919, Note_on_c, 15, 45, 0
20, 31920, Note_on_c, 15, 50, 48
20, 31920, Note_on_c, 15, 66, 48
20, 31920, Note_on_c, 15, 57, 48
20, 31920, Note_on_c, 15, 62, 48
20, 31979, Note_on_c, 15, 50, 0
20, 31980, Note_on_c, 15, 48, 48
20, 32039, Note_on_c, 15, 66, 0
20, 32039, Note_on_c, 15, 57, 0
20, 32039, Note_on_c, 15, 62, 0
20, 32039, Note_on_c, 15, 48, 0
20, 32040, Note_on_c, 15, 46, 48
20, 32040, Note_on_c, 15, 62, 48
20, 32040, Note_on_c, 15, 67, 48
20, 32099, Note_on_c, 15, 46, 0
20, 32099, Note_on_c, 15, 62, 0
20, 32099, Note_on_c, 15, 67, 0
20, 32100, Note_on_c, 15, 48, 48
20, 32100, Note_on_c, 15, 63, 48
20, 32100, Note_on_c, 15, 67, 48
20, 32100, Note_on_c, 15, 69, 48
20, 32159, Note_on_c, 15, 48, 0
20, 32159, Note_on_c, 15, 63, 0
20, 32159, Note_on_c, 15, 67, 0
20, 32159, Note_on_c, 15, 69, 0
20, 32160, Note_on_c, 15, 50, 48
20, 32160, Note_on_c, 15, 67, 48
20, 32160, Note_on_c, 15, 70, 48
20, 32160, Note_on_c, 15, 62, 48
20, 32279, Note_on_c, 15, 50, 0
20, 32279, Note_on_c, 15, 67, 0
20, 32279, Note_on_c, 15, 70, 0
20, 32279, Note_on_c, 15, 62, 0
20, 32280, Note_on_c, 15, 50, 48
20, 32280, Note_on_c, 15, 60, 48
20, 32280, Note_on_c, 15, 69, 48
20, 32280, Note_on_c, 15, 66, 48
20, 32399, Note_on_c, 15, 50, 0
20, 32399, Note_on_c, 15, 60, 0
20, 32399, Note_on_c, 15, 69, 0
20, 32399, Note_on_c, 15, 66, 0
20, 32400, Note_on_c, 15, 43, 48
20, 32400, Note_on_c, 15, 58, 48
20, 32400, Note_on_c, 15, 67, 48
20, 32400, Note_on_c, 15, 62, 48
20, 32459, Note_on_c, 15, 43, 0
20, 32459, Note_on_c, 15, 58, 0
20, 32459, Note_on_c, 15, 67, 0
20, 32459, Note_on_c, 15, 62, 0
20, 32460, Note_on_c, 15, 55, 72
20, 32460, Note_on_c, 15, 58, 72
20, 32460, Note_on_c, 15, 62, 72
20, 32460, Note_on_c, 15, 67, 72
20, 32489, Note_on_c, 15, 55, 0
20, 32490, Note_on_c, 15, 54, 72
20, 32519, Note_on_c, 15, 58, 0
20, 32519, Note_on_c, 15, 62, 0
20, 32519, Note_on_c, 15, 67, 0
20, 32519, Note_on_c, 15, 54, 0
20, 32520, Note_on_c, 15, 55, 72
20, 32520, Note_on_c, 15, 70, 72
20, 32520, Note_on_c, 15, 62, 72
20, 32579, Note_on_c, 15, 55, 0
20, 32580, Note_on_c, 15, 58, 72
20, 32639, Note_on_c, 15, 70, 0
20, 32639, Note_on_c, 15, 62, 0
20, 32639, Note_on_c, 15, 58, 0
20, 32640, Note_on_c, 15, 43, 72
20, 32640, Note_on_c, 15, 58, 72
20, 32640, Note_on_c, 15, 75, 72
20, 32640, Note_on_c, 15, 67, 72
20, 32699, Note_on_c, 15, 43, 0
20, 32700, Note_on_c, 15, 55, 72
20, 32729, Note_on_c, 15, 55, 0
20, 32730, Note_on_c, 15, 53, 72
20, 32759, Note_on_c, 15, 58, 0
20, 32759, Note_on_c, 15, 75, 0
20, 32759, Note_on_c, 15, 67, 0
20, 32759, Note_on_c, 15, 53, 0
20, 32760, Note_on_c, 15, 55, 72
20, 32760, Note_on_c, 15, 70, 72
20, 32760, Note_on_c, 15, 67, 72
20, 32760, Note_on_c, 15, 79, 72
20, 32819, Note_on_c, 15, 55, 0
20, 32819, Note_on_c, 15, 70, 0
20, 32819, Note_on_c, 15, 67, 0
20, 32819, Note_on_c, 15, 79, 0
20, 32820, Note_on_c, 15, 63, 72
20, 32820, Note_on_c, 15, 67, 72
20, 32820, Note_on_c, 15, 70, 72
20, 32820, Note_on_c, 15, 75, 72
20, 32879, Note_on_c, 15, 63, 0
20, 32879, Note_on_c, 15, 67, 0
20, 32879, Note_on_c, 15, 70, 0
20, 32879, Note_on_c, 15, 75, 0
20, 32880, Note_on_c, 15, 42, 72
20, 32939, Note_on_c, 15, 42, 0
20, 32940, Note_on_c, 15, 54, 72
20, 32969, Note_on_c, 15, 54, 0
20, 32970, Note_on_c, 15, 52, 72
20, 32999, Note_on_c, 15, 52, 0
20, 33000, Note_on_c, 15, 54, 72
20, 33059, Note_on_c, 15, 54, 0
20, 33060, Note_on_c, 15, 57, 72
20, 33119, Note_on_c, 15, 57, 0
20, 33120, Note_on_c, 15, 41, 72
20, 33179, Note_on_c, 15, 41, 0
20, 33180, Note_on_c, 15, 53, 72
20, 33209, Note_on_c, 15, 53, 0
20, 33210, Note_on_c, 15, 52, 72
20, 33239, Note_on_c, 15, 52, 0
20, 33240, Note_on_c, 15, 53, 72
20, 33299, Note_on_c, 15, 53, 0
20, 33300, Note_on_c, 15, 62, 72
20, 33359, Note_on_c, 15, 62, 0
20, 33360, Note_on_c, 15, 40, 72
20, 33419, Note_on_c, 15, 40, 0
20, 33420, Note_on_c, 15, 52, 72
20, 33449, Note_on_c, 15, 52, 0
20, 33450, Note_on_c, 15, 50, 72
20, 33479, Note_on_c, 15, 50, 0
20, 33480, Note_on_c, 15, 52, 72
20, 33539, Note_on_c, 15, 52, 0
20, 33540, Note_on_c, 15, 55, 72
20, 33599, Note_on_c, 15, 55, 0
20, 33600, Note_on_c, 15, 39, 72
20, 33659, Note_on_c, 15, 39, 0
20, 33660, Note_on_c, 15, 51, 72
20, 33689, Note_on_c, 15, 51, 0
20, 33690, Note_on_c, 15, 50, 72
20, 33719, Note_on_c, 15, 50, 0
20, 33720, Note_on_c, 15, 51, 72
20, 33779, Note_on_c, 15, 51, 0
20, 33780, Note_on_c, 15, 60, 72
20, 33839, Note_on_c, 15, 60, 0
20, 33840, Note_on_c, 15, 50, 72
20, 33899, Note_on_c, 15, 50, 0
20, 33900, Note_on_c, 15, 54, 72
20, 33929, Note_on_c, 15, 54, 0
20, 33930, Note_on_c, 15, 50, 72
20, 33959, Note_on_c, 15, 50, 0
20, 33960, Note_on_c, 15, 55, 72
20, 34019, Note_on_c, 15, 55, 0
20, 34020, Note_on_c, 15, 48, 72
20, 34079, Note_on_c, 15, 48, 0
20, 34080, Note_on_c, 15, 50, 72
20, 34139, Note_on_c, 15, 50, 0
20, 34140, Note_on_c, 15, 58, 72
20, 34169, Note_on_c, 15, 58, 0
20, 34170, Note_on_c, 15, 55, 72
20, 34199, Note_on_c, 15, 55, 0
20, 34200, Note_on_c, 15, 62, 72
20, 34259, Note_on_c, 15, 62, 0
20, 34260, Note_on_c, 15, 50, 72
20, 34319, Note_on_c, 15, 50, 0
20, 34320, Note_on_c, 15, 55, 72
20, 34320, Note_on_c, 15, 62, 72
20, 34320, Note_on_c, 15, 58, 72
20, 34320, Note_on_c, 15, 67, 72
20, 34439, Note_on_c, 15, 55, 0
20, 34439, Note_on_c, 15, 62, 0
20, 34439, Note_on_c, 15, 58, 0
20, 34439, Note_on_c, 15, 67, 0
20, 34680, Note_on_c, 15, 55, 72
20, 34680, Note_on_c, 15, 58, 72
20, 34680, Note_on_c, 15, 62, 72
20, 34680, Note_on_c, 15, 67, 72
20, 34799, Note_on_c, 15, 55, 0
20, 34799, Note_on_c, 15, 58, 0
20, 34799, Note_on_c, 15, 62, 0
20, 34799, Note_on_c, 15, 67, 0
20, 34800, Note_on_c, 15, 51, 72
20, 34800, Note_on_c, 15, 63, 72
20, 34800, Note_on_c, 15, 67, 72
20, 34800, Note_on_c, 15, 70, 72
20, 34919, Note_on_c, 15, 51, 0
20, 34919, Note_on_c, 15, 63, 0
20, 34919, Note_on_c, 15, 67, 0
20, 34919, Note_on_c, 15, 70, 0
20, 34920, Note_on_c, 15, 55, 72
20, 34920, Note_on_c, 15, 59, 72
20, 34920, Note_on_c, 15, 62, 72
20, 34920, Note_on_c, 15, 67, 72
20, 35039, Note_on_c, 15, 55, 0
20, 35039, Note_on_c, 15, 59, 0
20, 35039, Note_on_c, 15, 62, 0
20, 35039, Note_on_c, 15, 67, 0
20, 35040, Note_on_c, 15, 51, 72
20, 35040, Note_on_c, 15, 63, 72
20, 35040, Note_on_c, 15, 67, 72
20, 35040, Note_on_c, 15, 70, 72
20, 35159, Note_on_c, 15, 51, 0
20, 35159, Note_on_c, 15, 63, 0
20, 35159, Note_on_c, 15, 67, 0
20, 35159, Note_on_c, 15, 70, 0
20, 35160, Note_on_c, 15, 47, 72
20, 35160, Note_on_c, 15, 62, 72
20, 35160, Note_on_c, 15, 65, 72
20, 35279, Note_on_c, 15, 47, 0
20, 35279, Note_on_c, 15, 62, 0
20, 35279, Note_on_c, 15, 65, 0
20, 35280, Note_on_c, 15, 48, 72
20, 35280, Note_on_c, 15, 63, 72
20, 35280, Note_on_c, 15, 67, 72
20, 35280, Note_on_c, 15, 60, 72
20, 35759, Note_on_c, 15, 48, 0
20, 35759, Note_on_c, 15, 63, 0
20, 35759, Note_on_c, 15, 67, 0
20, 35759, Note_on_c, 15, 60, 0
20, 35760, Note_on_c, 15, 43, 72
20, 35760, Note_on_c, 15, 59, 72
20, 35760, Note_on_c, 15, 62, 72
20, 35760, Note_on_c, 15, 67, 72
20, 36239, Note_on_c, 15, 43, 0
20, 36239, Note_on_c, 15, 59, 0
20, 36239, Note_on_c, 15, 62, 0
20, 36239, Note_on_c, 15, 67, 0
20, 36239, End_track
0, 0, End_of_file