0, 0, Header, 1, 12, 120
1, 0, Start_track
1, 0, Time_signature, 8, 3, 12, 8
1, 0, Key_signature, 0, "major"
1, 0, Tempo, 674157
1, 0, Marker_t, "Credo"
1, 28320, Tempo, 1049685
1, 34080, Tempo, 669195
1, 34080, End_track
2, 0, Start_track
2, 0, MIDI_port, 0
2, 0, Title_t, "accomp"
2, 0, Program_c, 0, 0
2, 0, Control_c, 0, 1, 16
2, 0, Control_c, 0, 1, 14
2, 0, Control_c, 0, 1, 12
2, 0, Control_c, 0, 1, 10
2, 0, Control_c, 0, 1, 7
2, 0, Control_c, 0, 1, 4
2, 0, Control_c, 0, 1, 2
2, 0, Control_c, 0, 1, 0
2, 0, Note_on_c, 0, 60, 70
2, 0, Note_on_c, 0, 64, 70
2, 0, Note_on_c, 0, 67, 78
2, 29, Note_on_c, 0, 67, 0
2, 29, Note_on_c, 0, 64, 0
2, 29, Note_on_c, 0, 60, 0
2, 30, Note_on_c, 0, 72, 70
2, 59, Note_on_c, 0, 72, 0
2, 60, Note_on_c, 0, 71, 88
2, 89, Note_on_c, 0, 71, 0
2, 90, Note_on_c, 0, 72, 70
2, 119, Note_on_c, 0, 72, 0
2, 120, Note_on_c, 0, 74, 70
2, 149, Note_on_c, 0, 74, 0
2, 150, Note_on_c, 0, 72, 62
2, 179, Note_on_c, 0, 72, 0
2, 180, Note_on_c, 0, 71, 62
2, 209, Note_on_c, 0, 71, 0
2, 210, Note_on_c, 0, 72, 62
2, 239, Note_on_c, 0, 72, 0
2, 240, Note_on_c, 0, 60, 78
2, 269, Note_on_c, 0, 60, 0
2, 270, Note_on_c, 0, 72, 78
2, 299, Note_on_c, 0, 72, 0
2, 300, Note_on_c, 0, 62, 78
2, 329, Note_on_c, 0, 62, 0
2, 330, Note_on_c, 0, 72, 62
2, 359, Note_on_c, 0, 72, 0
2, 360, Note_on_c, 0, 64, 62
2, 389, Note_on_c, 0, 64, 0
2, 390, Note_on_c, 0, 72, 62
2, 419, Note_on_c, 0, 72, 0
2, 420, Note_on_c, 0, 65, 70
2, 449, Note_on_c, 0, 65, 0
2, 450, Note_on_c, 0, 72, 55
2, 479, Note_on_c, 0, 72, 0
2, 480, Note_on_c, 0, 67, 88
2, 494, Note_on_c, 0, 67, 0
2, 510, Note_on_c, 0, 72, 62
2, 539, Note_on_c, 0, 72, 0
2, 540, Note_on_c, 0, 71, 70
2, 569, Note_on_c, 0, 71, 0
2, 570, Note_on_c, 0, 72, 62
2, 599, Note_on_c, 0, 72, 0
2, 600, Note_on_c, 0, 74, 70
2, 629, Note_on_c, 0, 74, 0
2, 630, Note_on_c, 0, 72, 70
2, 659, Note_on_c, 0, 72, 0
2, 660, Note_on_c, 0, 71, 70
2, 689, Note_on_c, 0, 71, 0
2, 690, Note_on_c, 0, 72, 70
2, 719, Note_on_c, 0, 72, 0
2, 720, Note_on_c, 0, 64, 78
2, 749, Note_on_c, 0, 64, 0
2, 750, Note_on_c, 0, 72, 55
2, 779, Note_on_c, 0, 72, 0
2, 780, Note_on_c, 0, 65, 88
2, 809, Note_on_c, 0, 65, 0
2, 810, Note_on_c, 0, 72, 62
2, 839, Note_on_c, 0, 72, 0
2, 840, Note_on_c, 0, 67, 62
2, 869, Note_on_c, 0, 67, 0
2, 870, Note_on_c, 0, 72, 62
2, 899, Note_on_c, 0, 72, 0
2, 900, Note_on_c, 0, 69, 70
2, 929, Note_on_c, 0, 69, 0
2, 930, Note_on_c, 0, 72, 62
2, 959, Note_on_c, 0, 72, 0
2, 960, Note_on_c, 0, 70, 88
2, 974, Note_on_c, 0, 70, 0
2, 990, Note_on_c, 0, 72, 70
2, 1019, Note_on_c, 0, 72, 0
2, 1020, Note_on_c, 0, 71, 70
2, 1049, Note_on_c, 0, 71, 0
2, 1050, Note_on_c, 0, 72, 62
2, 1079, Note_on_c, 0, 72, 0
2, 1080, Note_on_c, 0, 74, 70
2, 1109, Note_on_c, 0, 74, 0
2, 1110, Note_on_c, 0, 72, 62
2, 1139, Note_on_c, 0, 72, 0
2, 1140, Note_on_c, 0, 71, 62
2, 1169, Note_on_c, 0, 71, 0
2, 1170, Note_on_c, 0, 72, 62
2, 1184, Note_on_c, 0, 72, 0
2, 1200, Note_on_c, 0, 72, 70
2, 1200, Note_on_c, 0, 76, 70
2, 1229, Note_on_c, 0, 76, 0
2, 1229, Note_on_c, 0, 72, 0
2, 1230, Note_on_c, 0, 67, 62
2, 1259, Note_on_c, 0, 67, 0
2, 1260, Note_on_c, 0, 77, 78
2, 1260, Note_on_c, 0, 72, 70
2, 1289, Note_on_c, 0, 72, 0
2, 1289, Note_on_c, 0, 77, 0
2, 1290, Note_on_c, 0, 69, 62
2, 1319, Note_on_c, 0, 69, 0
2, 1320, Note_on_c, 0, 72, 78
2, 1320, Note_on_c, 0, 79, 78
2, 1349, Note_on_c, 0, 79, 0
2, 1349, Note_on_c, 0, 72, 0
2, 1350, Note_on_c, 0, 70, 62
2, 1364, Note_on_c, 0, 70, 0
2, 1380, Note_on_c, 0, 72, 78
2, 1380, Note_on_c, 0, 81, 78
2, 1409, Note_on_c, 0, 81, 0
2, 1409, Note_on_c, 0, 72, 0
2, 1410, Note_on_c, 0, 69, 62
2, 1424, Note_on_c, 0, 69, 0
2, 1440, Note_on_c, 0, 82, 88
2, 1469, Note_on_c, 0, 82, 0
2, 1470, Note_on_c, 0, 79, 62
2, 1499, Note_on_c, 0, 79, 0
2, 1500, Note_on_c, 0, 72, 62
2, 1529, Note_on_c, 0, 72, 0
2, 1530, Note_on_c, 0, 82, 88
2, 1559, Note_on_c, 0, 82, 0
2, 1560, Note_on_c, 0, 81, 70
2, 1589, Note_on_c, 0, 81, 0
2, 1590, Note_on_c, 0, 77, 62
2, 1619, Note_on_c, 0, 77, 0
2, 1620, Note_on_c, 0, 72, 70
2, 1650, Note_on_c, 0, 81, 55
2, 1664, Note_on_c, 0, 72, 0
2, 1679, Note_on_c, 0, 81, 0
2, 1680, Note_on_c, 0, 79, 70
2, 1709, Note_on_c, 0, 79, 0
2, 1710, Note_on_c, 0, 76, 55
2, 1739, Note_on_c, 0, 76, 0
2, 1740, Note_on_c, 0, 79, 62
2, 1769, Note_on_c, 0, 79, 0
2, 1770, Note_on_c, 0, 76, 62
2, 1799, Note_on_c, 0, 76, 0
2, 1800, Note_on_c, 0, 77, 78
2, 1859, Note_on_c, 0, 77, 0
2, 1860, Note_on_c, 0, 76, 55
2, 1860, Note_on_c, 0, 71, 70
2, 1889, Note_on_c, 0, 71, 0
2, 1889, Note_on_c, 0, 76, 0
2, 1890, Note_on_c, 0, 74, 78
2, 1919, Note_on_c, 0, 74, 0
2, 1920, Note_on_c, 0, 72, 78
2, 1934, Note_on_c, 0, 72, 0
2, 1950, Note_on_c, 0, 72, 70
2, 1979, Note_on_c, 0, 72, 0
2, 1980, Note_on_c, 0, 71, 70
2, 2009, Note_on_c, 0, 71, 0
2, 2010, Note_on_c, 0, 72, 70
2, 2039, Note_on_c, 0, 72, 0
2, 2040, Note_on_c, 0, 74, 78
2, 2069, Note_on_c, 0, 74, 0
2, 2070, Note_on_c, 0, 72, 62
2, 2099, Note_on_c, 0, 72, 0
2, 2100, Note_on_c, 0, 71, 70
2, 2129, Note_on_c, 0, 71, 0
2, 2130, Note_on_c, 0, 72, 70
2, 2159, Note_on_c, 0, 72, 0
2, 2160, Note_on_c, 0, 60, 78
2, 2189, Note_on_c, 0, 60, 0
2, 2190, Note_on_c, 0, 72, 78
2, 2219, Note_on_c, 0, 72, 0
2, 2220, Note_on_c, 0, 62, 70
2, 2249, Note_on_c, 0, 62, 0
2, 2250, Note_on_c, 0, 72, 70
2, 2279, Note_on_c, 0, 72, 0
2, 2280, Note_on_c, 0, 64, 78
2, 2309, Note_on_c, 0, 64, 0
2, 2310, Note_on_c, 0, 72, 70
2, 2339, Note_on_c, 0, 72, 0
2, 2340, Note_on_c, 0, 65, 88
2, 2369, Note_on_c, 0, 65, 0
2, 2370, Note_on_c, 0, 72, 70
2, 2399, Note_on_c, 0, 72, 0
2, 2400, Note_on_c, 0, 67, 88
2, 2414, Note_on_c, 0, 67, 0
2, 2430, Note_on_c, 0, 72, 70
2, 2459, Note_on_c, 0, 72, 0
2, 2460, Note_on_c, 0, 71, 78
2, 2489, Note_on_c, 0, 71, 0
2, 2490, Note_on_c, 0, 72, 70
2, 2519, Note_on_c, 0, 72, 0
2, 2520, Note_on_c, 0, 74, 70
2, 2549, Note_on_c, 0, 74, 0
2, 2550, Note_on_c, 0, 72, 70
2, 2579, Note_on_c, 0, 72, 0
2, 2580, Note_on_c, 0, 71, 78
2, 2609, Note_on_c, 0, 71, 0
2, 2610, Note_on_c, 0, 72, 70
2, 2639, Note_on_c, 0, 72, 0
2, 2640, Note_on_c, 0, 64, 70
2, 2669, Note_on_c, 0, 64, 0
2, 2670, Note_on_c, 0, 72, 62
2, 2699, Note_on_c, 0, 72, 0
2, 2700, Note_on_c, 0, 65, 88
2, 2729, Note_on_c, 0, 65, 0
2, 2730, Note_on_c, 0, 72, 62
2, 2759, Note_on_c, 0, 72, 0
2, 2760, Note_on_c, 0, 67, 70
2, 2789, Note_on_c, 0, 67, 0
2, 2790, Note_on_c, 0, 72, 70
2, 2819, Note_on_c, 0, 72, 0
2, 2820, Note_on_c, 0, 69, 70
2, 2849, Note_on_c, 0, 69, 0
2, 2850, Note_on_c, 0, 72, 70
2, 2879, Note_on_c, 0, 72, 0
2, 2880, Note_on_c, 0, 70, 78
2, 2894, Note_on_c, 0, 70, 0
2, 2910, Note_on_c, 0, 72, 62
2, 2939, Note_on_c, 0, 72, 0
2, 2940, Note_on_c, 0, 71, 78
2, 2969, Note_on_c, 0, 71, 0
2, 2970, Note_on_c, 0, 72, 70
2, 2999, Note_on_c, 0, 72, 0
2, 3000, Note_on_c, 0, 74, 70
2, 3029, Note_on_c, 0, 74, 0
2, 3030, Note_on_c, 0, 72, 62
2, 3059, Note_on_c, 0, 72, 0
2, 3060, Note_on_c, 0, 71, 62
2, 3089, Note_on_c, 0, 71, 0
2, 3090, Note_on_c, 0, 72, 62
2, 3119, Note_on_c, 0, 72, 0
2, 3120, Note_on_c, 0, 76, 70
2, 3149, Note_on_c, 0, 76, 0
2, 3150, Note_on_c, 0, 72, 55
2, 3179, Note_on_c, 0, 72, 0
2, 3180, Note_on_c, 0, 77, 70
2, 3209, Note_on_c, 0, 77, 0
2, 3210, Note_on_c, 0, 72, 55
2, 3239, Note_on_c, 0, 72, 0
2, 3240, Note_on_c, 0, 79, 55
2, 3269, Note_on_c, 0, 79, 0
2, 3270, Note_on_c, 0, 72, 62
2, 3299, Note_on_c, 0, 72, 0
2, 3300, Note_on_c, 0, 81, 62
2, 3329, Note_on_c, 0, 81, 0
2, 3330, Note_on_c, 0, 72, 55
2, 3359, Note_on_c, 0, 72, 0
2, 3360, Note_on_c, 0, 82, 88
2, 3389, Note_on_c, 0, 82, 0
2, 3390, Note_on_c, 0, 79, 62
2, 3419, Note_on_c, 0, 79, 0
2, 3420, Note_on_c, 0, 72, 62
2, 3450, Note_on_c, 0, 82, 78
2, 3464, Note_on_c, 0, 72, 0
2, 3479, Note_on_c, 0, 82, 0
2, 3480, Note_on_c, 0, 81, 62
2, 3510, Note_on_c, 0, 77, 62
2, 3524, Note_on_c, 0, 81, 0
2, 3539, Note_on_c, 0, 77, 0
2, 3540, Note_on_c, 0, 72, 62
2, 3569, Note_on_c, 0, 72, 0
2, 3570, Note_on_c, 0, 81, 55
2, 3599, Note_on_c, 0, 81, 0
2, 3600, Note_on_c, 0, 79, 70
2, 3629, Note_on_c, 0, 79, 0
2, 3630, Note_on_c, 0, 76, 62
2, 3659, Note_on_c, 0, 76, 0
2, 3660, Note_on_c, 0, 79, 70
2, 3689, Note_on_c, 0, 79, 0
2, 3690, Note_on_c, 0, 76, 70
2, 3719, Note_on_c, 0, 76, 0
2, 3720, Note_on_c, 0, 77, 70
2, 3779, Note_on_c, 0, 77, 0
2, 3780, Note_on_c, 0, 76, 62
2, 3780, Note_on_c, 0, 71, 62
2, 3809, Note_on_c, 0, 71, 0
2, 3809, Note_on_c, 0, 76, 0
2, 3810, Note_on_c, 0, 74, 55
2, 3839, Note_on_c, 0, 74, 0
2, 3840, Note_on_c, 0, 72, 70
2, 3869, Note_on_c, 0, 72, 0
2, 3870, Note_on_c, 0, 67, 70
2, 3899, Note_on_c, 0, 67, 0
2, 3900, Note_on_c, 0, 69, 70
2, 3929, Note_on_c, 0, 69, 0
2, 3930, Note_on_c, 0, 71, 78
2, 3959, Note_on_c, 0, 71, 0
2, 3960, Note_on_c, 0, 72, 70
2, 3989, Note_on_c, 0, 72, 0
2, 3990, Note_on_c, 0, 71, 78
2, 4019, Note_on_c, 0, 71, 0
2, 4020, Note_on_c, 0, 72, 55
2, 4049, Note_on_c, 0, 72, 0
2, 4050, Note_on_c, 0, 74, 62
2, 4079, Note_on_c, 0, 74, 0
2, 4080, Note_on_c, 0, 76, 70
2, 4109, Note_on_c, 0, 76, 0
2, 4110, Note_on_c, 0, 72, 55
2, 4139, Note_on_c, 0, 72, 0
2, 4140, Note_on_c, 0, 71, 70
2, 4169, Note_on_c, 0, 71, 0
2, 4170, Note_on_c, 0, 74, 70
2, 4199, Note_on_c, 0, 74, 0
2, 4200, Note_on_c, 0, 72, 62
2, 4229, Note_on_c, 0, 72, 0
2, 4230, Note_on_c, 0, 69, 62
2, 4259, Note_on_c, 0, 69, 0
2, 4260, Note_on_c, 0, 68, 70
2, 4289, Note_on_c, 0, 68, 0
2, 4290, Note_on_c, 0, 71, 55
2, 4319, Note_on_c, 0, 71, 0
2, 4320, Note_on_c, 0, 69, 55
2, 4349, Note_on_c, 0, 69, 0
2, 4350, Note_on_c, 0, 80, 98
2, 4379, Note_on_c, 0, 80, 0
2, 4380, Note_on_c, 0, 81, 62
2, 4409, Note_on_c, 0, 81, 0
2, 4410, Note_on_c, 0, 80, 78
2, 4439, Note_on_c, 0, 80, 0
2, 4440, Note_on_c, 0, 81, 62
2, 4469, Note_on_c, 0, 81, 0
2, 4470, Note_on_c, 0, 79, 70
2, 4499, Note_on_c, 0, 79, 0
2, 4500, Note_on_c, 0, 78, 70
2, 4529, Note_on_c, 0, 78, 0
2, 4530, Note_on_c, 0, 76, 62
2, 4559, Note_on_c, 0, 76, 0
2, 4560, Note_on_c, 0, 74, 70
2, 4589, Note_on_c, 0, 74, 0
2, 4590, Note_on_c, 0, 71, 62
2, 4619, Note_on_c, 0, 71, 0
2, 4620, Note_on_c, 0, 69, 55
2, 4649, Note_on_c, 0, 69, 0
2, 4650, Note_on_c, 0, 72, 55
2, 4679, Note_on_c, 0, 72, 0
2, 4680, Note_on_c, 0, 71, 62
2, 4709, Note_on_c, 0, 71, 0
2, 4710, Note_on_c, 0, 67, 62
2, 4739, Note_on_c, 0, 67, 0
2, 4740, Note_on_c, 0, 66, 70
2, 4769, Note_on_c, 0, 66, 0
2, 4770, Note_on_c, 0, 69, 62
2, 4799, Note_on_c, 0, 69, 0
2, 4800, Note_on_c, 0, 67, 78
2, 4829, Note_on_c, 0, 67, 0
2, 4830, Note_on_c, 0, 78, 70
2, 4859, Note_on_c, 0, 78, 0
2, 4860, Note_on_c, 0, 79, 62
2, 4889, Note_on_c, 0, 79, 0
2, 4890, Note_on_c, 0, 78, 62
2, 4919, Note_on_c, 0, 78, 0
2, 4920, Note_on_c, 0, 79, 62
2, 4949, Note_on_c, 0, 79, 0
2, 4950, Note_on_c, 0, 78, 55
2, 4979, Note_on_c, 0, 78, 0
2, 4980, Note_on_c, 0, 76, 62
2, 5009, Note_on_c, 0, 76, 0
2, 5010, Note_on_c, 0, 74, 70
2, 5039, Note_on_c, 0, 74, 0
2, 5040, Note_on_c, 0, 72, 62
2, 5099, Note_on_c, 0, 72, 0
2, 5100, Note_on_c, 0, 71, 62
2, 5129, Note_on_c, 0, 71, 0
2, 5130, Note_on_c, 0, 72, 70
2, 5144, Note_on_c, 0, 72, 0
2, 5160, Note_on_c, 0, 72, 70
2, 5219, Note_on_c, 0, 72, 0
2, 5220, Note_on_c, 0, 71, 62
2, 5249, Note_on_c, 0, 71, 0
2, 5250, Note_on_c, 0, 72, 70
2, 5264, Note_on_c, 0, 72, 0
2, 5280, Note_on_c, 0, 72, 78
2, 5339, Note_on_c, 0, 72, 0
2, 5340, Note_on_c, 0, 71, 70
2, 5369, Note_on_c, 0, 71, 0
2, 5370, Note_on_c, 0, 72, 78
2, 5384, Note_on_c, 0, 72, 0
2, 5400, Note_on_c, 0, 72, 70
2, 5459, Note_on_c, 0, 72, 0
2, 5460, Note_on_c, 0, 71, 62
2, 5489, Note_on_c, 0, 71, 0
2, 5490, Note_on_c, 0, 72, 70
2, 5504, Note_on_c, 0, 72, 0
2, 5520, Note_on_c, 0, 72, 70
2, 5579, Note_on_c, 0, 72, 0
2, 5580, Note_on_c, 0, 74, 70
2, 5609, Note_on_c, 0, 74, 0
2, 5610, Note_on_c, 0, 76, 55
2, 5639, Note_on_c, 0, 76, 0
2, 5640, Note_on_c, 0, 78, 78
2, 5669, Note_on_c, 0, 78, 0
2, 5670, Note_on_c, 0, 79, 70
2, 5699, Note_on_c, 0, 79, 0
2, 5700, Note_on_c, 0, 81, 62
2, 5729, Note_on_c, 0, 81, 0
2, 5730, Note_on_c, 0, 83, 62
2, 5759, Note_on_c, 0, 83, 0
2, 5760, Note_on_c, 0, 84, 70
2, 5789, Note_on_c, 0, 84, 0
2, 5790, Note_on_c, 0, 86, 70
2, 5819, Note_on_c, 0, 86, 0
2, 5820, Note_on_c, 0, 83, 70
2, 5849, Note_on_c, 0, 83, 0
2, 5850, Note_on_c, 0, 84, 55
2, 5879, Note_on_c, 0, 84, 0
2, 5880, Note_on_c, 0, 81, 62
2, 5909, Note_on_c, 0, 81, 0
2, 5910, Note_on_c, 0, 83, 62
2, 5939, Note_on_c, 0, 83, 0
2, 5940, Note_on_c, 0, 79, 62
2, 5969, Note_on_c, 0, 79, 0
2, 5970, Note_on_c, 0, 81, 55
2, 5999, Note_on_c, 0, 81, 0
2, 6000, Note_on_c, 0, 78, 78
2, 6029, Note_on_c, 0, 78, 0
2, 6030, Note_on_c, 0, 79, 55
2, 6059, Note_on_c, 0, 79, 0
2, 6060, Note_on_c, 0, 76, 55
2, 6089, Note_on_c, 0, 76, 0
2, 6090, Note_on_c, 0, 78, 70
2, 6119, Note_on_c, 0, 78, 0
2, 6120, Note_on_c, 0, 74, 78
2, 6149, Note_on_c, 0, 74, 0
2, 6150, Note_on_c, 0, 76, 62
2, 6179, Note_on_c, 0, 76, 0
2, 6180, Note_on_c, 0, 72, 70
2, 6209, Note_on_c, 0, 72, 0
2, 6210, Note_on_c, 0, 74, 62
2, 6239, Note_on_c, 0, 74, 0
2, 6240, Note_on_c, 0, 71, 70
2, 6269, Note_on_c, 0, 71, 0
2, 6270, Note_on_c, 0, 74, 70
2, 6299, Note_on_c, 0, 74, 0
2, 6300, Note_on_c, 0, 72, 70
2, 6329, Note_on_c, 0, 72, 0
2, 6330, Note_on_c, 0, 71, 78
2, 6359, Note_on_c, 0, 71, 0
2, 6360, Note_on_c, 0, 76, 70
2, 6389, Note_on_c, 0, 76, 0
2, 6390, Note_on_c, 0, 72, 70
2, 6419, Note_on_c, 0, 72, 0
2, 6420, Note_on_c, 0, 71, 70
2, 6449, Note_on_c, 0, 71, 0
2, 6450, Note_on_c, 0, 69, 62
2, 6479, Note_on_c, 0, 69, 0
2, 6480, Note_on_c, 0, 74, 88
2, 6509, Note_on_c, 0, 74, 0
2, 6510, Note_on_c, 0, 71, 70
2, 6539, Note_on_c, 0, 71, 0
2, 6540, Note_on_c, 0, 69, 62
2, 6569, Note_on_c, 0, 69, 0
2, 6570, Note_on_c, 0, 67, 62
2, 6599, Note_on_c, 0, 67, 0
2, 6600, Note_on_c, 0, 72, 70
2, 6629, Note_on_c, 0, 72, 0
2, 6630, Note_on_c, 0, 69, 62
2, 6659, Note_on_c, 0, 69, 0
2, 6660, Note_on_c, 0, 67, 62
2, 6689, Note_on_c, 0, 67, 0
2, 6690, Note_on_c, 0, 66, 78
2, 6719, Note_on_c, 0, 66, 0
2, 6720, Note_on_c, 0, 67, 98
2, 6734, Note_on_c, 0, 67, 0
2, 6750, Note_on_c, 0, 67, 70
2, 6779, Note_on_c, 0, 67, 0
2, 6780, Note_on_c, 0, 66, 88
2, 6809, Note_on_c, 0, 66, 0
2, 6810, Note_on_c, 0, 67, 70
2, 6839, Note_on_c, 0, 67, 0
2, 6840, Note_on_c, 0, 69, 78
2, 6869, Note_on_c, 0, 69, 0
2, 6870, Note_on_c, 0, 67, 62
2, 6899, Note_on_c, 0, 67, 0
2, 6900, Note_on_c, 0, 66, 88
2, 6929, Note_on_c, 0, 66, 0
2, 6930, Note_on_c, 0, 67, 78
2, 6959, Note_on_c, 0, 67, 0
2, 6960, Note_on_c, 0, 55, 78
2, 6989, Note_on_c, 0, 55, 0
2, 6990, Note_on_c, 0, 67, 78
2, 7019, Note_on_c, 0, 67, 0
2, 7020, Note_on_c, 0, 57, 78
2, 7049, Note_on_c, 0, 57, 0
2, 7050, Note_on_c, 0, 67, 62
2, 7079, Note_on_c, 0, 67, 0
2, 7080, Note_on_c, 0, 59, 78
2, 7109, Note_on_c, 0, 59, 0
2, 7110, Note_on_c, 0, 67, 70
2, 7139, Note_on_c, 0, 67, 0
2, 7140, Note_on_c, 0, 60, 78
2, 7169, Note_on_c, 0, 60, 0
2, 7170, Note_on_c, 0, 67, 62
2, 7199, Note_on_c, 0, 67, 0
2, 7200, Note_on_c, 0, 62, 88
2, 7214, Note_on_c, 0, 62, 0
2, 7230, Note_on_c, 0, 79, 70
2, 7259, Note_on_c, 0, 79, 0
2, 7260, Note_on_c, 0, 78, 88
2, 7289, Note_on_c, 0, 78, 0
2, 7290, Note_on_c, 0, 79, 70
2, 7319, Note_on_c, 0, 79, 0
2, 7320, Note_on_c, 0, 81, 70
2, 7349, Note_on_c, 0, 81, 0
2, 7350, Note_on_c, 0, 79, 62
2, 7379, Note_on_c, 0, 79, 0
2, 7380, Note_on_c, 0, 78, 62
2, 7409, Note_on_c, 0, 78, 0
2, 7410, Note_on_c, 0, 79, 55
2, 7439, Note_on_c, 0, 79, 0
2, 7440, Note_on_c, 0, 71, 88
2, 7469, Note_on_c, 0, 71, 0
2, 7470, Note_on_c, 0, 79, 70
2, 7499, Note_on_c, 0, 79, 0
2, 7500, Note_on_c, 0, 72, 62
2, 7529, Note_on_c, 0, 72, 0
2, 7530, Note_on_c, 0, 79, 62
2, 7559, Note_on_c, 0, 79, 0
2, 7560, Note_on_c, 0, 74, 70
2, 7589, Note_on_c, 0, 74, 0
2, 7590, Note_on_c, 0, 79, 49
2, 7619, Note_on_c, 0, 79, 0
2, 7620, Note_on_c, 0, 76, 62
2, 7649, Note_on_c, 0, 76, 0
2, 7650, Note_on_c, 0, 79, 62
2, 7679, Note_on_c, 0, 79, 0
2, 7680, Note_on_c, 0, 77, 70
2, 7709, Note_on_c, 0, 77, 0
2, 7710, Note_on_c, 0, 79, 62
2, 7739, Note_on_c, 0, 79, 0
2, 7740, Note_on_c, 0, 76, 62
2, 7769, Note_on_c, 0, 76, 0
2, 7770, Note_on_c, 0, 77, 70
2, 7799, Note_on_c, 0, 77, 0
2, 7800, Note_on_c, 0, 74, 70
2, 7829, Note_on_c, 0, 74, 0
2, 7830, Note_on_c, 0, 76, 55
2, 7859, Note_on_c, 0, 76, 0
2, 7860, Note_on_c, 0, 72, 70
2, 7889, Note_on_c, 0, 72, 0
2, 7890, Note_on_c, 0, 74, 62
2, 7919, Note_on_c, 0, 74, 0
2, 7920, Note_on_c, 0, 71, 70
2, 7949, Note_on_c, 0, 71, 0
2, 7950, Note_on_c, 0, 72, 70
2, 7979, Note_on_c, 0, 72, 0
2, 7980, Note_on_c, 0, 69, 62
2, 8009, Note_on_c, 0, 69, 0
2, 8010, Note_on_c, 0, 71, 70
2, 8039, Note_on_c, 0, 71, 0
2, 8040, Note_on_c, 0, 67, 78
2, 8069, Note_on_c, 0, 67, 0
2, 8070, Note_on_c, 0, 69, 62
2, 8099, Note_on_c, 0, 69, 0
2, 8100, Note_on_c, 0, 65, 70
2, 8129, Note_on_c, 0, 65, 0
2, 8130, Note_on_c, 0, 67, 62
2, 8159, Note_on_c, 0, 67, 0
2, 8160, Note_on_c, 0, 64, 78
2, 8189, Note_on_c, 0, 64, 0
2, 8190, Note_on_c, 0, 68, 88
2, 8219, Note_on_c, 0, 68, 0
2, 8220, Note_on_c, 0, 71, 62
2, 8249, Note_on_c, 0, 71, 0
2, 8250, Note_on_c, 0, 76, 70
2, 8279, Note_on_c, 0, 76, 0
2, 8280, Note_on_c, 0, 64, 78
2, 8309, Note_on_c, 0, 64, 0
2, 8310, Note_on_c, 0, 76, 78
2, 8339, Note_on_c, 0, 76, 0
2, 8340, Note_on_c, 0, 64, 70
2, 8369, Note_on_c, 0, 64, 0
2, 8370, Note_on_c, 0, 76, 70
2, 8399, Note_on_c, 0, 76, 0
2, 8400, Note_on_c, 0, 64, 62
2, 8429, Note_on_c, 0, 64, 0
2, 8430, Note_on_c, 0, 68, 62
2, 8459, Note_on_c, 0, 68, 0
2, 8460, Note_on_c, 0, 71, 70
2, 8489, Note_on_c, 0, 71, 0
2, 8490, Note_on_c, 0, 76, 88
2, 8519, Note_on_c, 0, 76, 0
2, 8520, Note_on_c, 0, 64, 70
2, 8549, Note_on_c, 0, 64, 0
2, 8550, Note_on_c, 0, 76, 78
2, 8579, Note_on_c, 0, 76, 0
2, 8580, Note_on_c, 0, 64, 62
2, 8609, Note_on_c, 0, 64, 0
2, 8610, Note_on_c, 0, 76, 62
2, 8624, Note_on_c, 0, 76, 0
2, 8640, Note_on_c, 0, 76, 70
2, 8699, Note_on_c, 0, 76, 0
2, 8700, Note_on_c, 0, 81, 62
2, 8729, Note_on_c, 0, 81, 0
2, 8730, Note_on_c, 0, 77, 70
2, 8759, Note_on_c, 0, 77, 0
2, 8760, Note_on_c, 0, 74, 78
2, 8774, Note_on_c, 0, 74, 0
2, 8820, Note_on_c, 0, 74, 70
2, 8834, Note_on_c, 0, 74, 0
2, 8880, Note_on_c, 0, 74, 70
2, 8924, Note_on_c, 0, 74, 0
2, 8940, Note_on_c, 0, 74, 70
2, 8984, Note_on_c, 0, 74, 0
2, 9000, Note_on_c, 0, 74, 62
2, 9044, Note_on_c, 0, 74, 0
2, 9060, Note_on_c, 0, 74, 62
2, 9104, Note_on_c, 0, 74, 0
2, 9120, Note_on_c, 0, 74, 62
2, 9179, Note_on_c, 0, 74, 0
2, 9180, Note_on_c, 0, 79, 70
2, 9209, Note_on_c, 0, 79, 0
2, 9210, Note_on_c, 0, 76, 62
2, 9239, Note_on_c, 0, 76, 0
2, 9240, Note_on_c, 0, 72, 70
2, 9254, Note_on_c, 0, 72, 0
2, 9300, Note_on_c, 0, 72, 70
2, 9314, Note_on_c, 0, 72, 0
2, 9360, Note_on_c, 0, 72, 70
2, 9404, Note_on_c, 0, 72, 0
2, 9420, Note_on_c, 0, 72, 70
2, 9464, Note_on_c, 0, 72, 0
2, 9480, Note_on_c, 0, 72, 62
2, 9524, Note_on_c, 0, 72, 0
2, 9540, Note_on_c, 0, 72, 78
2, 9584, Note_on_c, 0, 72, 0
2, 9600, Note_on_c, 0, 72, 110
2, 9659, Note_on_c, 0, 72, 0
2, 9660, Note_on_c, 0, 77, 62
2, 9689, Note_on_c, 0, 77, 0
2, 9690, Note_on_c, 0, 74, 44
2, 9719, Note_on_c, 0, 74, 0
2, 9720, Note_on_c, 0, 71, 55
2, 9764, Note_on_c, 0, 71, 0
2, 9780, Note_on_c, 0, 71, 44
2, 9824, Note_on_c, 0, 71, 0
2, 9840, Note_on_c, 0, 71, 98
2, 9899, Note_on_c, 0, 71, 0
2, 9900, Note_on_c, 0, 76, 30
2, 9929, Note_on_c, 0, 76, 0
2, 9930, Note_on_c, 0, 72, 30
2, 9959, Note_on_c, 0, 72, 0
2, 9960, Note_on_c, 0, 69, 44
2, 10004, Note_on_c, 0, 69, 0
2, 10020, Note_on_c, 0, 69, 39
2, 10079, Note_on_c, 0, 69, 0
2, 10080, Note_on_c, 0, 68, 55
2, 10080, Note_on_c, 0, 62, 30
2, 10080, Note_on_c, 0, 65, 49
2, 10109, Note_on_c, 0, 65, 0
2, 10109, Note_on_c, 0, 62, 0
2, 10109, Note_on_c, 0, 68, 0
2, 10140, Note_on_c, 0, 80, 49
2, 10140, Note_on_c, 0, 77, 49
2, 10169, Note_on_c, 0, 77, 0
2, 10169, Note_on_c, 0, 80, 0
2, 10170, Note_on_c, 0, 74, 55
2, 10199, Note_on_c, 0, 74, 0
2, 10200, Note_on_c, 0, 81, 62
2, 10200, Note_on_c, 0, 76, 55
2, 10229, Note_on_c, 0, 76, 0
2, 10229, Note_on_c, 0, 81, 0
2, 10230, Note_on_c, 0, 72, 39
2, 10259, Note_on_c, 0, 72, 0
2, 10260, Note_on_c, 0, 83, 44
2, 10260, Note_on_c, 0, 74, 70
2, 10274, Note_on_c, 0, 74, 0
2, 10289, Note_on_c, 0, 83, 0
2, 10320, Note_on_c, 0, 84, 62
2, 10320, Note_on_c, 0, 81, 44
2, 10349, Note_on_c, 0, 81, 0
2, 10349, Note_on_c, 0, 84, 0
2, 10350, Note_on_c, 0, 72, 44
2, 10379, Note_on_c, 0, 72, 0
2, 10380, Note_on_c, 0, 84, 55
2, 10380, Note_on_c, 0, 81, 49
2, 10409, Note_on_c, 0, 81, 0
2, 10409, Note_on_c, 0, 84, 0
2, 10410, Note_on_c, 0, 72, 39
2, 10439, Note_on_c, 0, 72, 0
2, 10440, Note_on_c, 0, 84, 55
2, 10440, Note_on_c, 0, 81, 49
2, 10469, Note_on_c, 0, 81, 0
2, 10469, Note_on_c, 0, 84, 0
2, 10470, Note_on_c, 0, 72, 44
2, 10499, Note_on_c, 0, 72, 0
2, 10500, Note_on_c, 0, 84, 62
2, 10500, Note_on_c, 0, 81, 49
2, 10529, Note_on_c, 0, 81, 0
2, 10529, Note_on_c, 0, 84, 0
2, 10530, Note_on_c, 0, 72, 44
2, 10559, Note_on_c, 0, 72, 0
2, 10560, Note_on_c, 0, 80, 78
2, 10560, Note_on_c, 0, 83, 62
2, 10589, Note_on_c, 0, 83, 0
2, 10589, Note_on_c, 0, 80, 0
2, 10620, Note_on_c, 0, 64, 62
2, 10649, Note_on_c, 0, 64, 0
2, 10650, Note_on_c, 0, 66, 70
2, 10679, Note_on_c, 0, 66, 0
2, 10680, Note_on_c, 0, 68, 70
2, 10709, Note_on_c, 0, 68, 0
2, 10710, Note_on_c, 0, 69, 55
2, 10739, Note_on_c, 0, 69, 0
2, 10740, Note_on_c, 0, 71, 55
2, 10769, Note_on_c, 0, 71, 0
2, 10770, Note_on_c, 0, 68, 62
2, 10799, Note_on_c, 0, 68, 0
2, 10800, Note_on_c, 0, 64, 55
2, 10829, Note_on_c, 0, 64, 0
2, 10830, Note_on_c, 0, 76, 70
2, 10859, Note_on_c, 0, 76, 0
2, 10860, Note_on_c, 0, 64, 62
2, 10889, Note_on_c, 0, 64, 0
2, 10890, Note_on_c, 0, 76, 70
2, 10919, Note_on_c, 0, 76, 0
2, 10920, Note_on_c, 0, 66, 88
2, 10949, Note_on_c, 0, 66, 0
2, 10950, Note_on_c, 0, 76, 62
2, 10979, Note_on_c, 0, 76, 0
2, 10980, Note_on_c, 0, 68, 70
2, 11009, Note_on_c, 0, 68, 0
2, 11010, Note_on_c, 0, 76, 62
2, 11039, Note_on_c, 0, 76, 0
2, 11040, Note_on_c, 0, 69, 62
2, 11069, Note_on_c, 0, 69, 0
2, 11070, Note_on_c, 0, 76, 55
2, 11099, Note_on_c, 0, 76, 0
2, 11100, Note_on_c, 0, 72, 70
2, 11129, Note_on_c, 0, 72, 0
2, 11130, Note_on_c, 0, 76, 62
2, 11159, Note_on_c, 0, 76, 0
2, 11160, Note_on_c, 0, 71, 78
2, 11189, Note_on_c, 0, 71, 0
2, 11190, Note_on_c, 0, 76, 44
2, 11219, Note_on_c, 0, 76, 0
2, 11220, Note_on_c, 0, 69, 70
2, 11249, Note_on_c, 0, 69, 0
2, 11250, Note_on_c, 0, 76, 49
2, 11279, Note_on_c, 0, 76, 0
2, 11280, Note_on_c, 0, 68, 70
2, 11309, Note_on_c, 0, 68, 0
2, 11310, Note_on_c, 0, 76, 62
2, 11339, Note_on_c, 0, 76, 0
2, 11340, Note_on_c, 0, 64, 70
2, 11369, Note_on_c, 0, 64, 0
2, 11370, Note_on_c, 0, 76, 62
2, 11399, Note_on_c, 0, 76, 0
2, 11400, Note_on_c, 0, 66, 88
2, 11429, Note_on_c, 0, 66, 0
2, 11430, Note_on_c, 0, 76, 62
2, 11459, Note_on_c, 0, 76, 0
2, 11460, Note_on_c, 0, 68, 88
2, 11489, Note_on_c, 0, 68, 0
2, 11490, Note_on_c, 0, 76, 55
2, 11519, Note_on_c, 0, 76, 0
2, 11520, Note_on_c, 0, 69, 70
2, 11549, Note_on_c, 0, 69, 0
2, 11550, Note_on_c, 0, 76, 55
2, 11579, Note_on_c, 0, 76, 0
2, 11580, Note_on_c, 0, 64, 78
2, 11609, Note_on_c, 0, 64, 0
2, 11610, Note_on_c, 0, 76, 62
2, 11639, Note_on_c, 0, 76, 0
2, 11640, Note_on_c, 0, 71, 70
2, 11669, Note_on_c, 0, 71, 0
2, 11670, Note_on_c, 0, 76, 62
2, 11699, Note_on_c, 0, 76, 0
2, 11700, Note_on_c, 0, 68, 78
2, 11729, Note_on_c, 0, 68, 0
2, 11730, Note_on_c, 0, 76, 70
2, 11759, Note_on_c, 0, 76, 0
2, 11760, Note_on_c, 0, 79, 62
2, 11789, Note_on_c, 0, 79, 0
2, 11790, Note_on_c, 0, 77, 70
2, 11819, Note_on_c, 0, 77, 0
2, 11820, Note_on_c, 0, 86, 78
2, 11849, Note_on_c, 0, 86, 0
2, 11850, Note_on_c, 0, 84, 62
2, 11879, Note_on_c, 0, 84, 0
2, 11880, Note_on_c, 0, 83, 78
2, 11909, Note_on_c, 0, 83, 0
2, 11910, Note_on_c, 0, 81, 55
2, 11939, Note_on_c, 0, 81, 0
2, 11940, Note_on_c, 0, 79, 49
2, 11969, Note_on_c, 0, 79, 0
2, 11970, Note_on_c, 0, 77, 70
2, 11984, Note_on_c, 0, 77, 0
2, 12000, Note_on_c, 0, 77, 70
2, 12029, Note_on_c, 0, 77, 0
2, 12030, Note_on_c, 0, 76, 55
2, 12059, Note_on_c, 0, 76, 0
2, 12060, Note_on_c, 0, 84, 70
2, 12089, Note_on_c, 0, 84, 0
2, 12090, Note_on_c, 0, 83, 62
2, 12119, Note_on_c, 0, 83, 0
2, 12120, Note_on_c, 0, 81, 62
2, 12149, Note_on_c, 0, 81, 0
2, 12150, Note_on_c, 0, 79, 62
2, 12179, Note_on_c, 0, 79, 0
2, 12180, Note_on_c, 0, 77, 55
2, 12209, Note_on_c, 0, 77, 0
2, 12210, Note_on_c, 0, 76, 62
2, 12224, Note_on_c, 0, 76, 0
2, 12240, Note_on_c, 0, 76, 62
2, 12269, Note_on_c, 0, 76, 0
2, 12270, Note_on_c, 0, 74, 55
2, 12299, Note_on_c, 0, 74, 0
2, 12300, Note_on_c, 0, 83, 70
2, 12329, Note_on_c, 0, 83, 0
2, 12330, Note_on_c, 0, 81, 62
2, 12359, Note_on_c, 0, 81, 0
2, 12360, Note_on_c, 0, 80, 70
2, 12389, Note_on_c, 0, 80, 0
2, 12390, Note_on_c, 0, 77, 70
2, 12419, Note_on_c, 0, 77, 0
2, 12420, Note_on_c, 0, 76, 62
2, 12449, Note_on_c, 0, 76, 0
2, 12450, Note_on_c, 0, 74, 62
2, 12464, Note_on_c, 0, 74, 0
2, 12480, Note_on_c, 0, 74, 70
2, 12494, Note_on_c, 0, 74, 0
2, 12510, Note_on_c, 0, 76, 62
2, 12539, Note_on_c, 0, 76, 0
2, 12540, Note_on_c, 0, 81, 55
2, 12569, Note_on_c, 0, 81, 0
2, 12570, Note_on_c, 0, 76, 62
2, 12599, Note_on_c, 0, 76, 0
2, 12600, Note_on_c, 0, 77, 70
2, 12629, Note_on_c, 0, 77, 0
2, 12630, Note_on_c, 0, 74, 70
2, 12659, Note_on_c, 0, 74, 0
2, 12660, Note_on_c, 0, 72, 55
2, 12689, Note_on_c, 0, 72, 0
2, 12690, Note_on_c, 0, 71, 70
2, 12719, Note_on_c, 0, 71, 0
2, 12720, Note_on_c, 0, 76, 70
2, 12750, Note_on_c, 0, 72, 55
2, 12764, Note_on_c, 0, 76, 0
2, 12779, Note_on_c, 0, 72, 0
2, 12780, Note_on_c, 0, 71, 70
2, 12809, Note_on_c, 0, 71, 0
2, 12810, Note_on_c, 0, 69, 62
2, 12839, Note_on_c, 0, 69, 0
2, 12840, Note_on_c, 0, 74, 70
2, 12869, Note_on_c, 0, 74, 0
2, 12870, Note_on_c, 0, 71, 78
2, 12899, Note_on_c, 0, 71, 0
2, 12900, Note_on_c, 0, 69, 62
2, 12929, Note_on_c, 0, 69, 0
2, 12930, Note_on_c, 0, 68, 70
2, 12944, Note_on_c, 0, 68, 0
2, 12960, Note_on_c, 0, 69, 70
2, 12974, Note_on_c, 0, 69, 0
2, 12990, Note_on_c, 0, 81, 70
2, 13019, Note_on_c, 0, 81, 0
2, 13020, Note_on_c, 0, 80, 62
2, 13049, Note_on_c, 0, 80, 0
2, 13050, Note_on_c, 0, 81, 70
2, 13079, Note_on_c, 0, 81, 0
2, 13080, Note_on_c, 0, 83, 70
2, 13109, Note_on_c, 0, 83, 0
2, 13110, Note_on_c, 0, 81, 62
2, 13139, Note_on_c, 0, 81, 0
2, 13140, Note_on_c, 0, 80, 55
2, 13169, Note_on_c, 0, 80, 0
2, 13170, Note_on_c, 0, 81, 62
2, 13199, Note_on_c, 0, 81, 0
2, 13200, Note_on_c, 0, 84, 70
2, 13229, Note_on_c, 0, 84, 0
2, 13230, Note_on_c, 0, 81, 55
2, 13259, Note_on_c, 0, 81, 0
2, 13260, Note_on_c, 0, 79, 70
2, 13289, Note_on_c, 0, 79, 0
2, 13290, Note_on_c, 0, 83, 62
2, 13319, Note_on_c, 0, 83, 0
2, 13320, Note_on_c, 0, 81, 55
2, 13349, Note_on_c, 0, 81, 0
2, 13350, Note_on_c, 0, 78, 70
2, 13379, Note_on_c, 0, 78, 0
2, 13380, Note_on_c, 0, 76, 70
2, 13409, Note_on_c, 0, 76, 0
2, 13410, Note_on_c, 0, 79, 62
2, 13439, Note_on_c, 0, 79, 0
2, 13440, Note_on_c, 0, 78, 78
2, 13469, Note_on_c, 0, 78, 0
2, 13470, Note_on_c, 0, 71, 62
2, 13499, Note_on_c, 0, 71, 0
2, 13500, Note_on_c, 0, 81, 78
2, 13529, Note_on_c, 0, 81, 0
2, 13530, Note_on_c, 0, 69, 62
2, 13559, Note_on_c, 0, 69, 0
2, 13560, Note_on_c, 0, 81, 70
2, 13589, Note_on_c, 0, 81, 0
2, 13590, Note_on_c, 0, 78, 70
2, 13619, Note_on_c, 0, 78, 0
2, 13620, Note_on_c, 0, 83, 70
2, 13650, Note_on_c, 0, 71, 55
2, 13664, Note_on_c, 0, 83, 0
2, 13679, Note_on_c, 0, 71, 0
2, 13680, Note_on_c, 0, 83, 44
2, 13680, Note_on_c, 0, 83, 78
2, 13694, Note_on_c, 0, 83, 0
2, 13709, Note_on_c, 0, 83, 0
2, 13710, Note_on_c, 0, 81, 62
2, 13739, Note_on_c, 0, 81, 0
2, 13740, Note_on_c, 0, 79, 62
2, 13769, Note_on_c, 0, 79, 0
2, 13770, Note_on_c, 0, 81, 62
2, 13799, Note_on_c, 0, 81, 0
2, 13800, Note_on_c, 0, 79, 55
2, 13829, Note_on_c, 0, 79, 0
2, 13830, Note_on_c, 0, 76, 70
2, 13859, Note_on_c, 0, 76, 0
2, 13860, Note_on_c, 0, 74, 62
2, 13889, Note_on_c, 0, 74, 0
2, 13890, Note_on_c, 0, 77, 62
2, 13919, Note_on_c, 0, 77, 0
2, 13920, Note_on_c, 0, 76, 70
2, 13949, Note_on_c, 0, 76, 0
2, 13950, Note_on_c, 0, 69, 62
2, 13979, Note_on_c, 0, 69, 0
2, 13980, Note_on_c, 0, 79, 70
2, 14009, Note_on_c, 0, 79, 0
2, 14010, Note_on_c, 0, 67, 62
2, 14039, Note_on_c, 0, 67, 0
2, 14040, Note_on_c, 0, 79, 70
2, 14069, Note_on_c, 0, 79, 0
2, 14070, Note_on_c, 0, 76, 49
2, 14099, Note_on_c, 0, 76, 0
2, 14100, Note_on_c, 0, 81, 70
2, 14130, Note_on_c, 0, 69, 70
2, 14144, Note_on_c, 0, 81, 0
2, 14159, Note_on_c, 0, 69, 0
2, 14160, Note_on_c, 0, 81, 39
2, 14189, Note_on_c, 0, 81, 0
2, 14190, Note_on_c, 0, 77, 39
2, 14219, Note_on_c, 0, 77, 0
2, 14220, Note_on_c, 0, 76, 35
2, 14249, Note_on_c, 0, 76, 0
2, 14250, Note_on_c, 0, 79, 62
2, 14279, Note_on_c, 0, 79, 0
2, 14280, Note_on_c, 0, 77, 62
2, 14309, Note_on_c, 0, 77, 0
2, 14310, Note_on_c, 0, 74, 70
2, 14339, Note_on_c, 0, 74, 0
2, 14340, Note_on_c, 0, 72, 62
2, 14369, Note_on_c, 0, 72, 0
2, 14370, Note_on_c, 0, 75, 78
2, 14399, Note_on_c, 0, 75, 0
2, 14400, Note_on_c, 0, 74, 78
2, 14429, Note_on_c, 0, 74, 0
2, 14430, Note_on_c, 0, 65, 88
2, 14444, Note_on_c, 0, 65, 0
2, 14460, Note_on_c, 0, 77, 55
2, 14489, Note_on_c, 0, 77, 0
2, 14490, Note_on_c, 0, 65, 62
2, 14504, Note_on_c, 0, 65, 0
2, 14520, Note_on_c, 0, 77, 55
2, 14549, Note_on_c, 0, 77, 0
2, 14550, Note_on_c, 0, 74, 70
2, 14579, Note_on_c, 0, 74, 0
2, 14580, Note_on_c, 0, 79, 78
2, 14609, Note_on_c, 0, 79, 0
2, 14610, Note_on_c, 0, 67, 55
2, 14639, Note_on_c, 0, 67, 0
2, 14640, Note_on_c, 0, 79, 62
2, 14669, Note_on_c, 0, 79, 0
2, 14670, Note_on_c, 0, 72, 62
2, 14699, Note_on_c, 0, 72, 0
2, 14700, Note_on_c, 0, 80, 98
2, 14729, Note_on_c, 0, 80, 0
2, 14730, Note_on_c, 0, 72, 62
2, 14759, Note_on_c, 0, 72, 0
2, 14760, Note_on_c, 0, 79, 78
2, 14789, Note_on_c, 0, 79, 0
2, 14790, Note_on_c, 0, 72, 44
2, 14819, Note_on_c, 0, 72, 0
2, 14820, Note_on_c, 0, 77, 70
2, 14849, Note_on_c, 0, 77, 0
2, 14850, Note_on_c, 0, 72, 49
2, 14879, Note_on_c, 0, 72, 0
2, 14880, Note_on_c, 0, 75, 88
2, 14909, Note_on_c, 0, 75, 0
2, 14910, Note_on_c, 0, 67, 62
2, 14939, Note_on_c, 0, 67, 0
2, 14940, Note_on_c, 0, 77, 78
2, 14969, Note_on_c, 0, 77, 0
2, 14970, Note_on_c, 0, 67, 55
2, 14999, Note_on_c, 0, 67, 0
2, 15000, Note_on_c, 0, 75, 78
2, 15029, Note_on_c, 0, 75, 0
2, 15030, Note_on_c, 0, 67, 70
2, 15059, Note_on_c, 0, 67, 0
2, 15060, Note_on_c, 0, 74, 78
2, 15089, Note_on_c, 0, 74, 0
2, 15090, Note_on_c, 0, 67, 70
2, 15119, Note_on_c, 0, 67, 0
2, 15120, Note_on_c, 0, 72, 70
2, 15149, Note_on_c, 0, 72, 0
2, 15150, Note_on_c, 0, 60, 78
2, 15179, Note_on_c, 0, 60, 0
2, 15180, Note_on_c, 0, 72, 70
2, 15209, Note_on_c, 0, 72, 0
2, 15210, Note_on_c, 0, 60, 62
2, 15239, Note_on_c, 0, 60, 0
2, 15240, Note_on_c, 0, 72, 78
2, 15269, Note_on_c, 0, 72, 0
2, 15270, Note_on_c, 0, 66, 62
2, 15299, Note_on_c, 0, 66, 0
2, 15300, Note_on_c, 0, 78, 88
2, 15300, Note_on_c, 0, 72, 55
2, 15329, Note_on_c, 0, 72, 0
2, 15330, Note_on_c, 0, 66, 78
2, 15344, Note_on_c, 0, 66, 0
2, 15344, Note_on_c, 0, 78, 0
2, 15360, Note_on_c, 0, 79, 70
2, 15360, Note_on_c, 0, 71, 55
2, 15389, Note_on_c, 0, 71, 0
2, 15389, Note_on_c, 0, 79, 0
2, 15390, Note_on_c, 0, 67, 70
2, 15419, Note_on_c, 0, 67, 0
2, 15420, Note_on_c, 0, 66, 88
2, 15449, Note_on_c, 0, 66, 0
2, 15450, Note_on_c, 0, 67, 62
2, 15479, Note_on_c, 0, 67, 0
2, 15480, Note_on_c, 0, 69, 70
2, 15509, Note_on_c, 0, 69, 0
2, 15510, Note_on_c, 0, 67, 70
2, 15539, Note_on_c, 0, 67, 0
2, 15540, Note_on_c, 0, 66, 88
2, 15569, Note_on_c, 0, 66, 0
2, 15570, Note_on_c, 0, 67, 88
2, 15599, Note_on_c, 0, 67, 0
2, 15600, Note_on_c, 0, 55, 88
2, 15629, Note_on_c, 0, 55, 0
2, 15630, Note_on_c, 0, 67, 70
2, 15659, Note_on_c, 0, 67, 0
2, 15660, Note_on_c, 0, 57, 78
2, 15689, Note_on_c, 0, 57, 0
2, 15690, Note_on_c, 0, 67, 62
2, 15719, Note_on_c, 0, 67, 0
2, 15720, Note_on_c, 0, 59, 70
2, 15749, Note_on_c, 0, 59, 0
2, 15750, Note_on_c, 0, 67, 62
2, 15779, Note_on_c, 0, 67, 0
2, 15780, Note_on_c, 0, 60, 62
2, 15809, Note_on_c, 0, 60, 0
2, 15810, Note_on_c, 0, 67, 55
2, 15839, Note_on_c, 0, 67, 0
2, 15840, Note_on_c, 0, 62, 78
2, 15854, Note_on_c, 0, 62, 0
2, 15870, Note_on_c, 0, 67, 78
2, 15899, Note_on_c, 0, 67, 0
2, 15900, Note_on_c, 0, 66, 88
2, 15929, Note_on_c, 0, 66, 0
2, 15930, Note_on_c, 0, 67, 70
2, 15959, Note_on_c, 0, 67, 0
2, 15960, Note_on_c, 0, 69, 70
2, 15989, Note_on_c, 0, 69, 0
2, 15990, Note_on_c, 0, 67, 62
2, 16019, Note_on_c, 0, 67, 0
2, 16020, Note_on_c, 0, 66, 98
2, 16049, Note_on_c, 0, 66, 0
2, 16050, Note_on_c, 0, 67, 70
2, 16079, Note_on_c, 0, 67, 0
2, 16080, Note_on_c, 0, 59, 78
2, 16109, Note_on_c, 0, 59, 0
2, 16110, Note_on_c, 0, 67, 78
2, 16139, Note_on_c, 0, 67, 0
2, 16140, Note_on_c, 0, 60, 70
2, 16169, Note_on_c, 0, 60, 0
2, 16170, Note_on_c, 0, 67, 70
2, 16199, Note_on_c, 0, 67, 0
2, 16200, Note_on_c, 0, 62, 78
2, 16229, Note_on_c, 0, 62, 0
2, 16230, Note_on_c, 0, 67, 62
2, 16259, Note_on_c, 0, 67, 0
2, 16260, Note_on_c, 0, 64, 62
2, 16289, Note_on_c, 0, 64, 0
2, 16290, Note_on_c, 0, 67, 62
2, 16319, Note_on_c, 0, 67, 0
2, 16320, Note_on_c, 0, 65, 70
2, 16349, Note_on_c, 0, 65, 0
2, 16350, Note_on_c, 0, 67, 62
2, 16379, Note_on_c, 0, 67, 0
2, 16380, Note_on_c, 0, 64, 78
2, 16409, Note_on_c, 0, 64, 0
2, 16410, Note_on_c, 0, 65, 88
2, 16439, Note_on_c, 0, 65, 0
2, 16440, Note_on_c, 0, 62, 78
2, 16469, Note_on_c, 0, 62, 0
2, 16470, Note_on_c, 0, 65, 70
2, 16499, Note_on_c, 0, 65, 0
2, 16500, Note_on_c, 0, 64, 62
2, 16529, Note_on_c, 0, 64, 0
2, 16530, Note_on_c, 0, 67, 70
2, 16559, Note_on_c, 0, 67, 0
2, 16560, Note_on_c, 0, 65, 88
2, 16589, Note_on_c, 0, 65, 0
2, 16590, Note_on_c, 0, 69, 62
2, 16619, Note_on_c, 0, 69, 0
2, 16620, Note_on_c, 0, 67, 62
2, 16649, Note_on_c, 0, 67, 0
2, 16650, Note_on_c, 0, 71, 70
2, 16679, Note_on_c, 0, 71, 0
2, 16680, Note_on_c, 0, 69, 70
2, 16709, Note_on_c, 0, 69, 0
2, 16710, Note_on_c, 0, 72, 62
2, 16739, Note_on_c, 0, 72, 0
2, 16740, Note_on_c, 0, 71, 62
2, 16769, Note_on_c, 0, 71, 0
2, 16770, Note_on_c, 0, 74, 70
2, 16799, Note_on_c, 0, 74, 0
2, 16800, Note_on_c, 0, 72, 70
2, 16814, Note_on_c, 0, 72, 0
2, 16830, Note_on_c, 0, 72, 78
2, 16859, Note_on_c, 0, 72, 0
2, 16860, Note_on_c, 0, 71, 78
2, 16889, Note_on_c, 0, 71, 0
2, 16890, Note_on_c, 0, 72, 78
2, 16919, Note_on_c, 0, 72, 0
2, 16920, Note_on_c, 0, 74, 70
2, 16949, Note_on_c, 0, 74, 0
2, 16950, Note_on_c, 0, 72, 62
2, 16979, Note_on_c, 0, 72, 0
2, 16980, Note_on_c, 0, 71, 70
2, 17009, Note_on_c, 0, 71, 0
2, 17010, Note_on_c, 0, 72, 70
2, 17039, Note_on_c, 0, 72, 0
2, 17040, Note_on_c, 0, 60, 70
2, 17069, Note_on_c, 0, 60, 0
2, 17070, Note_on_c, 0, 72, 70
2, 17099, Note_on_c, 0, 72, 0
2, 17100, Note_on_c, 0, 62, 70
2, 17129, Note_on_c, 0, 62, 0
2, 17130, Note_on_c, 0, 72, 62
2, 17159, Note_on_c, 0, 72, 0
2, 17160, Note_on_c, 0, 64, 78
2, 17189, Note_on_c, 0, 64, 0
2, 17190, Note_on_c, 0, 72, 70
2, 17219, Note_on_c, 0, 72, 0
2, 17220, Note_on_c, 0, 65, 78
2, 17249, Note_on_c, 0, 65, 0
2, 17250, Note_on_c, 0, 72, 70
2, 17279, Note_on_c, 0, 72, 0
2, 17280, Note_on_c, 0, 67, 70
2, 17309, Note_on_c, 0, 67, 0
2, 17310, Note_on_c, 0, 72, 62
2, 17339, Note_on_c, 0, 72, 0
2, 17340, Note_on_c, 0, 71, 70
2, 17369, Note_on_c, 0, 71, 0
2, 17370, Note_on_c, 0, 72, 70
2, 17399, Note_on_c, 0, 72, 0
2, 17400, Note_on_c, 0, 74, 70
2, 17429, Note_on_c, 0, 74, 0
2, 17430, Note_on_c, 0, 72, 55
2, 17459, Note_on_c, 0, 72, 0
2, 17460, Note_on_c, 0, 71, 70
2, 17489, Note_on_c, 0, 71, 0
2, 17490, Note_on_c, 0, 72, 70
2, 17519, Note_on_c, 0, 72, 0
2, 17520, Note_on_c, 0, 64, 62
2, 17549, Note_on_c, 0, 64, 0
2, 17550, Note_on_c, 0, 72, 62
2, 17579, Note_on_c, 0, 72, 0
2, 17580, Note_on_c, 0, 65, 78
2, 17609, Note_on_c, 0, 65, 0
2, 17610, Note_on_c, 0, 72, 62
2, 17640, Note_on_c, 0, 67, 70
2, 17654, Note_on_c, 0, 72, 0
2, 17669, Note_on_c, 0, 67, 0
2, 17670, Note_on_c, 0, 72, 62
2, 17699, Note_on_c, 0, 72, 0
2, 17700, Note_on_c, 0, 65, 70
2, 17700, Note_on_c, 0, 69, 70
2, 17729, Note_on_c, 0, 69, 0
2, 17729, Note_on_c, 0, 65, 0
2, 17730, Note_on_c, 0, 72, 70
2, 17759, Note_on_c, 0, 72, 0
2, 17760, Note_on_c, 0, 70, 98
2, 17760, Note_on_c, 0, 64, 78
2, 17774, Note_on_c, 0, 64, 0
2, 17774, Note_on_c, 0, 70, 0
2, 17790, Note_on_c, 0, 72, 62
2, 17819, Note_on_c, 0, 72, 0
2, 17820, Note_on_c, 0, 71, 70
2, 17849, Note_on_c, 0, 71, 0
2, 17850, Note_on_c, 0, 72, 70
2, 17879, Note_on_c, 0, 72, 0
2, 17880, Note_on_c, 0, 74, 70
2, 17909, Note_on_c, 0, 74, 0
2, 17910, Note_on_c, 0, 72, 55
2, 17939, Note_on_c, 0, 72, 0
2, 17940, Note_on_c, 0, 71, 55
2, 17969, Note_on_c, 0, 71, 0
2, 17970, Note_on_c, 0, 72, 62
2, 17984, Note_on_c, 0, 72, 0
2, 18000, Note_on_c, 0, 72, 70
2, 18000, Note_on_c, 0, 76, 62
2, 18029, Note_on_c, 0, 76, 0
2, 18029, Note_on_c, 0, 72, 0
2, 18030, Note_on_c, 0, 67, 62
2, 18059, Note_on_c, 0, 67, 0
2, 18060, Note_on_c, 0, 77, 78
2, 18060, Note_on_c, 0, 72, 70
2, 18089, Note_on_c, 0, 72, 0
2, 18089, Note_on_c, 0, 77, 0
2, 18090, Note_on_c, 0, 69, 78
2, 18119, Note_on_c, 0, 69, 0
2, 18120, Note_on_c, 0, 79, 70
2, 18120, Note_on_c, 0, 72, 70
2, 18149, Note_on_c, 0, 72, 0
2, 18149, Note_on_c, 0, 79, 0
2, 18150, Note_on_c, 0, 70, 62
2, 18179, Note_on_c, 0, 70, 0
2, 18180, Note_on_c, 0, 81, 70
2, 18180, Note_on_c, 0, 72, 78
2, 18209, Note_on_c, 0, 72, 0
2, 18209, Note_on_c, 0, 81, 0
2, 18210, Note_on_c, 0, 69, 55
2, 18224, Note_on_c, 0, 69, 0
2, 18240, Note_on_c, 0, 82, 98
2, 18269, Note_on_c, 0, 82, 0
2, 18270, Note_on_c, 0, 79, 55
2, 18299, Note_on_c, 0, 79, 0
2, 18300, Note_on_c, 0, 72, 35
2, 18330, Note_on_c, 0, 82, 78
2, 18344, Note_on_c, 0, 82, 0
2, 18344, Note_on_c, 0, 72, 0
2, 18360, Note_on_c, 0, 81, 70
2, 18389, Note_on_c, 0, 81, 0
2, 18390, Note_on_c, 0, 77, 55
2, 18419, Note_on_c, 0, 77, 0
2, 18420, Note_on_c, 0, 72, 62
2, 18449, Note_on_c, 0, 72, 0
2, 18450, Note_on_c, 0, 81, 62
2, 18479, Note_on_c, 0, 81, 0
2, 18480, Note_on_c, 0, 79, 62
2, 18509, Note_on_c, 0, 79, 0
2, 18510, Note_on_c, 0, 76, 55
2, 18539, Note_on_c, 0, 76, 0
2, 18540, Note_on_c, 0, 79, 55
2, 18569, Note_on_c, 0, 79, 0
2, 18570, Note_on_c, 0, 76, 62
2, 18599, Note_on_c, 0, 76, 0
2, 18600, Note_on_c, 0, 77, 70
2, 18659, Note_on_c, 0, 77, 0
2, 18660, Note_on_c, 0, 76, 55
2, 18660, Note_on_c, 0, 71, 55
2, 18689, Note_on_c, 0, 71, 0
2, 18689, Note_on_c, 0, 76, 0
2, 18690, Note_on_c, 0, 74, 70
2, 18719, Note_on_c, 0, 74, 0
2, 18720, Note_on_c, 0, 76, 55
2, 18749, Note_on_c, 0, 76, 0
2, 18750, Note_on_c, 0, 72, 62
2, 18779, Note_on_c, 0, 72, 0
2, 18780, Note_on_c, 0, 84, 88
2, 18809, Note_on_c, 0, 84, 0
2, 18810, Note_on_c, 0, 83, 70
2, 18839, Note_on_c, 0, 83, 0
2, 18840, Note_on_c, 0, 81, 62
2, 18869, Note_on_c, 0, 81, 0
2, 18870, Note_on_c, 0, 79, 62
2, 18899, Note_on_c, 0, 79, 0
2, 18900, Note_on_c, 0, 77, 49
2, 18929, Note_on_c, 0, 77, 0
2, 18930, Note_on_c, 0, 76, 55
2, 18944, Note_on_c, 0, 76, 0
2, 18960, Note_on_c, 0, 76, 62
2, 18989, Note_on_c, 0, 76, 0
2, 18990, Note_on_c, 0, 74, 62
2, 19004, Note_on_c, 0, 74, 0
2, 19020, Note_on_c, 0, 83, 78
2, 19049, Note_on_c, 0, 83, 0
2, 19050, Note_on_c, 0, 81, 62
2, 19079, Note_on_c, 0, 81, 0
2, 19080, Note_on_c, 0, 80, 78
2, 19094, Note_on_c, 0, 80, 0
2, 19110, Note_on_c, 0, 77, 62
2, 19139, Note_on_c, 0, 77, 0
2, 19140, Note_on_c, 0, 76, 55
2, 19169, Note_on_c, 0, 76, 0
2, 19170, Note_on_c, 0, 74, 70
2, 19184, Note_on_c, 0, 74, 0
2, 19200, Note_on_c, 0, 74, 62
2, 19229, Note_on_c, 0, 74, 0
2, 19230, Note_on_c, 0, 72, 62
2, 19244, Note_on_c, 0, 72, 0
2, 19260, Note_on_c, 0, 81, 88
2, 19274, Note_on_c, 0, 81, 0
2, 19290, Note_on_c, 0, 79, 70
2, 19304, Note_on_c, 0, 79, 0
2, 19320, Note_on_c, 0, 77, 70
2, 19349, Note_on_c, 0, 77, 0
2, 19350, Note_on_c, 0, 76, 55
2, 19379, Note_on_c, 0, 76, 0
2, 19380, Note_on_c, 0, 74, 62
2, 19409, Note_on_c, 0, 74, 0
2, 19410, Note_on_c, 0, 72, 70
2, 19424, Note_on_c, 0, 72, 0
2, 19440, Note_on_c, 0, 72, 55
2, 19469, Note_on_c, 0, 72, 0
2, 19470, Note_on_c, 0, 70, 70
2, 19499, Note_on_c, 0, 70, 0
2, 19500, Note_on_c, 0, 79, 88
2, 19529, Note_on_c, 0, 79, 0
2, 19530, Note_on_c, 0, 77, 62
2, 19559, Note_on_c, 0, 77, 0
2, 19560, Note_on_c, 0, 76, 70
2, 19589, Note_on_c, 0, 76, 0
2, 19590, Note_on_c, 0, 74, 70
2, 19619, Note_on_c, 0, 74, 0
2, 19620, Note_on_c, 0, 72, 62
2, 19649, Note_on_c, 0, 72, 0
2, 19650, Note_on_c, 0, 70, 88
2, 19664, Note_on_c, 0, 70, 0
2, 19680, Note_on_c, 0, 70, 88
2, 19709, Note_on_c, 0, 70, 0
2, 19710, Note_on_c, 0, 69, 62
2, 19724, Note_on_c, 0, 69, 0
2, 19740, Note_on_c, 0, 77, 88
2, 19754, Note_on_c, 0, 77, 0
2, 19770, Note_on_c, 0, 76, 62
2, 19799, Note_on_c, 0, 76, 0
2, 19800, Note_on_c, 0, 74, 78
2, 19829, Note_on_c, 0, 74, 0
2, 19830, Note_on_c, 0, 72, 78
2, 19859, Note_on_c, 0, 72, 0
2, 19860, Note_on_c, 0, 70, 88
2, 19889, Note_on_c, 0, 70, 0
2, 19890, Note_on_c, 0, 69, 78
2, 19904, Note_on_c, 0, 69, 0
2, 19920, Note_on_c, 0, 69, 78
2, 19949, Note_on_c, 0, 69, 0
2, 19950, Note_on_c, 0, 67, 70
2, 19964, Note_on_c, 0, 67, 0
2, 19980, Note_on_c, 0, 76, 70
2, 19994, Note_on_c, 0, 76, 0
2, 20010, Note_on_c, 0, 74, 70
2, 20024, Note_on_c, 0, 74, 0
2, 20040, Note_on_c, 0, 73, 88
2, 20069, Note_on_c, 0, 73, 0
2, 20070, Note_on_c, 0, 70, 88
2, 20099, Note_on_c, 0, 70, 0
2, 20100, Note_on_c, 0, 69, 70
2, 20129, Note_on_c, 0, 69, 0
2, 20130, Note_on_c, 0, 67, 49
2, 20159, Note_on_c, 0, 67, 0
2, 20160, Note_on_c, 0, 65, 62
2, 20189, Note_on_c, 0, 65, 0
2, 20190, Note_on_c, 0, 69, 62
2, 20219, Note_on_c, 0, 69, 0
2, 20220, Note_on_c, 0, 67, 70
2, 20249, Note_on_c, 0, 67, 0
2, 20250, Note_on_c, 0, 70, 88
2, 20279, Note_on_c, 0, 70, 0
2, 20280, Note_on_c, 0, 69, 78
2, 20309, Note_on_c, 0, 69, 0
2, 20310, Note_on_c, 0, 72, 78
2, 20339, Note_on_c, 0, 72, 0
2, 20340, Note_on_c, 0, 71, 70
2, 20369, Note_on_c, 0, 71, 0
2, 20370, Note_on_c, 0, 74, 78
2, 20399, Note_on_c, 0, 74, 0
2, 20400, Note_on_c, 0, 72, 70
2, 20429, Note_on_c, 0, 72, 0
2, 20430, Note_on_c, 0, 76, 62
2, 20459, Note_on_c, 0, 76, 0
2, 20460, Note_on_c, 0, 74, 70
2, 20489, Note_on_c, 0, 74, 0
2, 20490, Note_on_c, 0, 77, 70
2, 20519, Note_on_c, 0, 77, 0
2, 20520, Note_on_c, 0, 76, 62
2, 20549, Note_on_c, 0, 76, 0
2, 20550, Note_on_c, 0, 79, 70
2, 20579, Note_on_c, 0, 79, 0
2, 20580, Note_on_c, 0, 78, 78
2, 20580, Note_on_c, 0, 72, 70
2, 20609, Note_on_c, 0, 72, 0
2, 20610, Note_on_c, 0, 84, 78
2, 20624, Note_on_c, 0, 84, 0
2, 20624, Note_on_c, 0, 78, 0
2, 20640, Note_on_c, 0, 83, 78
2, 20640, Note_on_c, 0, 74, 70
2, 20669, Note_on_c, 0, 83, 0
2, 20670, Note_on_c, 0, 79, 49
2, 20699, Note_on_c, 0, 79, 0
2, 20699, Note_on_c, 0, 74, 0
2, 20700, Note_on_c, 0, 78, 78
2, 20730, Note_on_c, 0, 79, 62
2, 20744, Note_on_c, 0, 78, 0
2, 20759, Note_on_c, 0, 79, 0
2, 20760, Note_on_c, 0, 81, 62
2, 20789, Note_on_c, 0, 81, 0
2, 20790, Note_on_c, 0, 79, 49
2, 20819, Note_on_c, 0, 79, 0
2, 20820, Note_on_c, 0, 78, 78
2, 20849, Note_on_c, 0, 78, 0
2, 20850, Note_on_c, 0, 79, 55
2, 20879, Note_on_c, 0, 79, 0
2, 20880, Note_on_c, 0, 81, 62
2, 20910, Note_on_c, 0, 77, 55
2, 20924, Note_on_c, 0, 81, 0
2, 20939, Note_on_c, 0, 77, 0
2, 20940, Note_on_c, 0, 76, 55
2, 20969, Note_on_c, 0, 76, 0
2, 20970, Note_on_c, 0, 79, 62
2, 20999, Note_on_c, 0, 79, 0
2, 21000, Note_on_c, 0, 77, 62
2, 21029, Note_on_c, 0, 77, 0
2, 21030, Note_on_c, 0, 74, 62
2, 21059, Note_on_c, 0, 74, 0
2, 21060, Note_on_c, 0, 73, 62
2, 21089, Note_on_c, 0, 73, 0
2, 21090, Note_on_c, 0, 76, 44
2, 21119, Note_on_c, 0, 76, 0
2, 21120, Note_on_c, 0, 74, 62
2, 21149, Note_on_c, 0, 74, 0
2, 21150, Note_on_c, 0, 73, 70
2, 21179, Note_on_c, 0, 73, 0
2, 21180, Note_on_c, 0, 74, 78
2, 21209, Note_on_c, 0, 74, 0
2, 21210, Note_on_c, 0, 76, 70
2, 21239, Note_on_c, 0, 76, 0
2, 21240, Note_on_c, 0, 77, 78
2, 21269, Note_on_c, 0, 77, 0
2, 21270, Note_on_c, 0, 79, 70
2, 21299, Note_on_c, 0, 79, 0
2, 21300, Note_on_c, 0, 81, 55
2, 21329, Note_on_c, 0, 81, 0
2, 21330, Note_on_c, 0, 77, 62
2, 21359, Note_on_c, 0, 77, 0
2, 21360, Note_on_c, 0, 79, 70
2, 21389, Note_on_c, 0, 79, 0
2, 21390, Note_on_c, 0, 76, 55
2, 21419, Note_on_c, 0, 76, 0
2, 21420, Note_on_c, 0, 74, 70
2, 21449, Note_on_c, 0, 74, 0
2, 21450, Note_on_c, 0, 77, 62
2, 21479, Note_on_c, 0, 77, 0
2, 21480, Note_on_c, 0, 76, 62
2, 21509, Note_on_c, 0, 76, 0
2, 21510, Note_on_c, 0, 72, 55
2, 21539, Note_on_c, 0, 72, 0
2, 21540, Note_on_c, 0, 71, 70
2, 21569, Note_on_c, 0, 71, 0
2, 21570, Note_on_c, 0, 74, 70
2, 21599, Note_on_c, 0, 74, 0
2, 21600, Note_on_c, 0, 72, 62
2, 21629, Note_on_c, 0, 72, 0
2, 21630, Note_on_c, 0, 71, 49
2, 21659, Note_on_c, 0, 71, 0
2, 21660, Note_on_c, 0, 72, 62
2, 21689, Note_on_c, 0, 72, 0
2, 21690, Note_on_c, 0, 74, 70
2, 21719, Note_on_c, 0, 74, 0
2, 21720, Note_on_c, 0, 76, 44
2, 21749, Note_on_c, 0, 76, 0
2, 21750, Note_on_c, 0, 77, 49
2, 21764, Note_on_c, 0, 77, 0
2, 21780, Note_on_c, 0, 79, 55
2, 21809, Note_on_c, 0, 79, 0
2, 21810, Note_on_c, 0, 76, 49
2, 21839, Note_on_c, 0, 76, 0
2, 21840, Note_on_c, 0, 77, 70
2, 21899, Note_on_c, 0, 77, 0
2, 21900, Note_on_c, 0, 76, 70
2, 21929, Note_on_c, 0, 76, 0
2, 21930, Note_on_c, 0, 77, 78
2, 21944, Note_on_c, 0, 77, 0
2, 21960, Note_on_c, 0, 77, 78
2, 22019, Note_on_c, 0, 77, 0
2, 22020, Note_on_c, 0, 76, 62
2, 22049, Note_on_c, 0, 76, 0
2, 22050, Note_on_c, 0, 77, 70
2, 22064, Note_on_c, 0, 77, 0
2, 22080, Note_on_c, 0, 77, 88
2, 22139, Note_on_c, 0, 77, 0
2, 22140, Note_on_c, 0, 76, 55
2, 22169, Note_on_c, 0, 76, 0
2, 22170, Note_on_c, 0, 77, 70
2, 22184, Note_on_c, 0, 77, 0
2, 22200, Note_on_c, 0, 77, 78
2, 22259, Note_on_c, 0, 77, 0
2, 22260, Note_on_c, 0, 76, 62
2, 22289, Note_on_c, 0, 76, 0
2, 22290, Note_on_c, 0, 77, 70
2, 22304, Note_on_c, 0, 77, 0
2, 22320, Note_on_c, 0, 77, 78
2, 22349, Note_on_c, 0, 77, 0
2, 22350, Note_on_c, 0, 74, 62
2, 22379, Note_on_c, 0, 74, 0
2, 22380, Note_on_c, 0, 83, 78
2, 22409, Note_on_c, 0, 83, 0
2, 22410, Note_on_c, 0, 71, 62
2, 22439, Note_on_c, 0, 71, 0
2, 22440, Note_on_c, 0, 83, 70
2, 22469, Note_on_c, 0, 83, 0
2, 22470, Note_on_c, 0, 79, 55
2, 22499, Note_on_c, 0, 79, 0
2, 22500, Note_on_c, 0, 86, 70
2, 22529, Note_on_c, 0, 86, 0
2, 22530, Note_on_c, 0, 74, 55
2, 22559, Note_on_c, 0, 74, 0
2, 22560, Note_on_c, 0, 83, 62
2, 22574, Note_on_c, 0, 83, 0
2, 22590, Note_on_c, 0, 86, 88
2, 22619, Note_on_c, 0, 86, 0
2, 22620, Note_on_c, 0, 84, 70
2, 22649, Note_on_c, 0, 84, 0
2, 22650, Note_on_c, 0, 86, 62
2, 22679, Note_on_c, 0, 86, 0
2, 22680, Note_on_c, 0, 83, 62
2, 22709, Note_on_c, 0, 83, 0
2, 22710, Note_on_c, 0, 84, 55
2, 22739, Note_on_c, 0, 84, 0
2, 22740, Note_on_c, 0, 81, 62
2, 22769, Note_on_c, 0, 81, 0
2, 22770, Note_on_c, 0, 83, 55
2, 22799, Note_on_c, 0, 83, 0
2, 22800, Note_on_c, 0, 79, 62
2, 22829, Note_on_c, 0, 79, 0
2, 22830, Note_on_c, 0, 81, 44
2, 22859, Note_on_c, 0, 81, 0
2, 22860, Note_on_c, 0, 77, 62
2, 22889, Note_on_c, 0, 77, 0
2, 22890, Note_on_c, 0, 79, 44
2, 22919, Note_on_c, 0, 79, 0
2, 22920, Note_on_c, 0, 76, 70
2, 22949, Note_on_c, 0, 76, 0
2, 22950, Note_on_c, 0, 77, 55
2, 22979, Note_on_c, 0, 77, 0
2, 22980, Note_on_c, 0, 74, 55
2, 23009, Note_on_c, 0, 74, 0
2, 23010, Note_on_c, 0, 77, 70
2, 23039, Note_on_c, 0, 77, 0
2, 23040, Note_on_c, 0, 76, 62
2, 23069, Note_on_c, 0, 76, 0
2, 23070, Note_on_c, 0, 79, 62
2, 23099, Note_on_c, 0, 79, 0
2, 23100, Note_on_c, 0, 77, 62
2, 23129, Note_on_c, 0, 77, 0
2, 23130, Note_on_c, 0, 76, 55
2, 23159, Note_on_c, 0, 76, 0
2, 23160, Note_on_c, 0, 81, 78
2, 23189, Note_on_c, 0, 81, 0
2, 23190, Note_on_c, 0, 77, 62
2, 23220, Note_on_c, 0, 76, 70
2, 23234, Note_on_c, 0, 77, 0
2, 23249, Note_on_c, 0, 76, 0
2, 23250, Note_on_c, 0, 74, 70
2, 23279, Note_on_c, 0, 74, 0
2, 23280, Note_on_c, 0, 79, 70
2, 23309, Note_on_c, 0, 79, 0
2, 23310, Note_on_c, 0, 76, 49
2, 23339, Note_on_c, 0, 76, 0
2, 23340, Note_on_c, 0, 74, 62
2, 23369, Note_on_c, 0, 74, 0
2, 23370, Note_on_c, 0, 72, 55
2, 23399, Note_on_c, 0, 72, 0
2, 23400, Note_on_c, 0, 77, 78
2, 23429, Note_on_c, 0, 77, 0
2, 23430, Note_on_c, 0, 74, 62
2, 23459, Note_on_c, 0, 74, 0
2, 23460, Note_on_c, 0, 72, 70
2, 23489, Note_on_c, 0, 72, 0
2, 23490, Note_on_c, 0, 71, 49
2, 23519, Note_on_c, 0, 71, 0
2, 23520, Note_on_c, 0, 72, 62
2, 23549, Note_on_c, 0, 72, 0
2, 23550, Note_on_c, 0, 67, 70
2, 23579, Note_on_c, 0, 67, 0
2, 23580, Note_on_c, 0, 69, 70
2, 23609, Note_on_c, 0, 69, 0
2, 23610, Note_on_c, 0, 71, 62
2, 23639, Note_on_c, 0, 71, 0
2, 23640, Note_on_c, 0, 72, 62
2, 23669, Note_on_c, 0, 72, 0
2, 23670, Note_on_c, 0, 74, 70
2, 23699, Note_on_c, 0, 74, 0
2, 23700, Note_on_c, 0, 76, 62
2, 23729, Note_on_c, 0, 76, 0
2, 23730, Note_on_c, 0, 77, 70
2, 23759, Note_on_c, 0, 77, 0
2, 23760, Note_on_c, 0, 79, 70
2, 23789, Note_on_c, 0, 79, 0
2, 23790, Note_on_c, 0, 76, 49
2, 23819, Note_on_c, 0, 76, 0
2, 23820, Note_on_c, 0, 77, 62
2, 23849, Note_on_c, 0, 77, 0
2, 23850, Note_on_c, 0, 74, 62
2, 23879, Note_on_c, 0, 74, 0
2, 23880, Note_on_c, 0, 76, 55
2, 23909, Note_on_c, 0, 76, 0
2, 23910, Note_on_c, 0, 72, 55
2, 23939, Note_on_c, 0, 72, 0
2, 23940, Note_on_c, 0, 74, 70
2, 23969, Note_on_c, 0, 74, 0
2, 23970, Note_on_c, 0, 71, 62
2, 23999, Note_on_c, 0, 71, 0
2, 24000, Note_on_c, 0, 72, 78
2, 24059, Note_on_c, 0, 72, 0
2, 24180, Note_on_c, 0, 76, 70
2, 24209, Note_on_c, 0, 76, 0
2, 24210, Note_on_c, 0, 72, 62
2, 24239, Note_on_c, 0, 72, 0
2, 24240, Note_on_c, 0, 77, 70
2, 24269, Note_on_c, 0, 77, 0
2, 24270, Note_on_c, 0, 79, 44
2, 24299, Note_on_c, 0, 79, 0
2, 24300, Note_on_c, 0, 76, 62
2, 24329, Note_on_c, 0, 76, 0
2, 24330, Note_on_c, 0, 77, 44
2, 24359, Note_on_c, 0, 77, 0
2, 24360, Note_on_c, 0, 74, 70
2, 24389, Note_on_c, 0, 74, 0
2, 24390, Note_on_c, 0, 76, 44
2, 24419, Note_on_c, 0, 76, 0
2, 24420, Note_on_c, 0, 72, 62
2, 24449, Note_on_c, 0, 72, 0
2, 24450, Note_on_c, 0, 74, 62
2, 24479, Note_on_c, 0, 74, 0
2, 24480, Note_on_c, 0, 71, 78
2, 24659, Note_on_c, 0, 71, 0
2, 24660, Note_on_c, 0, 74, 70
2, 24689, Note_on_c, 0, 74, 0
2, 24690, Note_on_c, 0, 71, 70
2, 24719, Note_on_c, 0, 71, 0
2, 24720, Note_on_c, 0, 76, 70
2, 24749, Note_on_c, 0, 76, 0
2, 24750, Note_on_c, 0, 77, 70
2, 24779, Note_on_c, 0, 77, 0
2, 24780, Note_on_c, 0, 74, 70
2, 24809, Note_on_c, 0, 74, 0
2, 24810, Note_on_c, 0, 76, 49
2, 24839, Note_on_c, 0, 76, 0
2, 24840, Note_on_c, 0, 72, 70
2, 24869, Note_on_c, 0, 72, 0
2, 24870, Note_on_c, 0, 84, 78
2, 24899, Note_on_c, 0, 84, 0
2, 24900, Note_on_c, 0, 83, 70
2, 24929, Note_on_c, 0, 83, 0
2, 24930, Note_on_c, 0, 84, 55
2, 24959, Note_on_c, 0, 84, 0
2, 24960, Note_on_c, 0, 81, 55
2, 24989, Note_on_c, 0, 81, 0
2, 24990, Note_on_c, 0, 83, 55
2, 25019, Note_on_c, 0, 83, 0
2, 25020, Note_on_c, 0, 79, 49
2, 25049, Note_on_c, 0, 79, 0
2, 25050, Note_on_c, 0, 81, 49
2, 25079, Note_on_c, 0, 81, 0
2, 25080, Note_on_c, 0, 77, 62
2, 25109, Note_on_c, 0, 77, 0
2, 25110, Note_on_c, 0, 79, 55
2, 25139, Note_on_c, 0, 79, 0
2, 25140, Note_on_c, 0, 76, 55
2, 25169, Note_on_c, 0, 76, 0
2, 25170, Note_on_c, 0, 77, 39
2, 25199, Note_on_c, 0, 77, 0
2, 25200, Note_on_c, 0, 74, 62
2, 25229, Note_on_c, 0, 74, 0
2, 25230, Note_on_c, 0, 86, 78
2, 25259, Note_on_c, 0, 86, 0
2, 25260, Note_on_c, 0, 84, 55
2, 25289, Note_on_c, 0, 84, 0
2, 25290, Note_on_c, 0, 86, 62
2, 25319, Note_on_c, 0, 86, 0
2, 25320, Note_on_c, 0, 83, 62
2, 25349, Note_on_c, 0, 83, 0
2, 25350, Note_on_c, 0, 84, 49
2, 25379, Note_on_c, 0, 84, 0
2, 25380, Note_on_c, 0, 81, 62
2, 25409, Note_on_c, 0, 81, 0
2, 25410, Note_on_c, 0, 83, 55
2, 25439, Note_on_c, 0, 83, 0
2, 25440, Note_on_c, 0, 79, 70
2, 25469, Note_on_c, 0, 79, 0
2, 25470, Note_on_c, 0, 81, 55
2, 25499, Note_on_c, 0, 81, 0
2, 25500, Note_on_c, 0, 77, 62
2, 25529, Note_on_c, 0, 77, 0
2, 25530, Note_on_c, 0, 79, 70
2, 25559, Note_on_c, 0, 79, 0
2, 25560, Note_on_c, 0, 76, 62
2, 25589, Note_on_c, 0, 76, 0
2, 25590, Note_on_c, 0, 77, 55
2, 25619, Note_on_c, 0, 77, 0
2, 25620, Note_on_c, 0, 74, 70
2, 25649, Note_on_c, 0, 74, 0
2, 25650, Note_on_c, 0, 76, 49
2, 25679, Note_on_c, 0, 76, 0
2, 25680, Note_on_c, 0, 72, 49
2, 25709, Note_on_c, 0, 72, 0
2, 25710, Note_on_c, 0, 84, 62
2, 25739, Note_on_c, 0, 84, 0
2, 25740, Note_on_c, 0, 83, 70
2, 25769, Note_on_c, 0, 83, 0
2, 25770, Note_on_c, 0, 84, 62
2, 25799, Note_on_c, 0, 84, 0
2, 25800, Note_on_c, 0, 81, 70
2, 25829, Note_on_c, 0, 81, 0
2, 25830, Note_on_c, 0, 83, 62
2, 25859, Note_on_c, 0, 83, 0
2, 25860, Note_on_c, 0, 79, 62
2, 25889, Note_on_c, 0, 79, 0
2, 25890, Note_on_c, 0, 81, 62
2, 25919, Note_on_c, 0, 81, 0
2, 25920, Note_on_c, 0, 77, 70
2, 25949, Note_on_c, 0, 77, 0
2, 25950, Note_on_c, 0, 79, 55
2, 25979, Note_on_c, 0, 79, 0
2, 25980, Note_on_c, 0, 76, 55
2, 26009, Note_on_c, 0, 76, 0
2, 26010, Note_on_c, 0, 77, 55
2, 26039, Note_on_c, 0, 77, 0
2, 26040, Note_on_c, 0, 74, 55
2, 26069, Note_on_c, 0, 74, 0
2, 26070, Note_on_c, 0, 76, 55
2, 26099, Note_on_c, 0, 76, 0
2, 26100, Note_on_c, 0, 72, 49
2, 26129, Note_on_c, 0, 72, 0
2, 26130, Note_on_c, 0, 74, 70
2, 26159, Note_on_c, 0, 74, 0
2, 26160, Note_on_c, 0, 71, 70
2, 26189, Note_on_c, 0, 71, 0
2, 26190, Note_on_c, 0, 72, 55
2, 26219, Note_on_c, 0, 72, 0
2, 26220, Note_on_c, 0, 74, 35
2, 26249, Note_on_c, 0, 74, 0
2, 26250, Note_on_c, 0, 76, 62
2, 26279, Note_on_c, 0, 76, 0
2, 26280, Note_on_c, 0, 77, 70
2, 26309, Note_on_c, 0, 77, 0
2, 26310, Note_on_c, 0, 79, 55
2, 26339, Note_on_c, 0, 79, 0
2, 26340, Note_on_c, 0, 81, 55
2, 26369, Note_on_c, 0, 81, 0
2, 26370, Note_on_c, 0, 83, 55
2, 26384, Note_on_c, 0, 83, 0
2, 26400, Note_on_c, 0, 84, 88
2, 26444, Note_on_c, 0, 84, 0
2, 26460, Note_on_c, 0, 72, 78
2, 26460, Note_on_c, 0, 84, 88
2, 26460, Note_on_c, 0, 76, 88
2, 26504, Note_on_c, 0, 76, 0
2, 26504, Note_on_c, 0, 84, 0
2, 26504, Note_on_c, 0, 72, 0
2, 26580, Note_on_c, 0, 72, 78
2, 26580, Note_on_c, 0, 76, 78
2, 26580, Note_on_c, 0, 84, 70
2, 26624, Note_on_c, 0, 84, 0
2, 26624, Note_on_c, 0, 76, 0
2, 26624, Note_on_c, 0, 72, 0
2, 26700, Note_on_c, 0, 74, 88
2, 26700, Note_on_c, 0, 84, 78
2, 26700, Note_on_c, 0, 81, 78
2, 26744, Note_on_c, 0, 81, 0
2, 26759, Note_on_c, 0, 84, 0
2, 26759, Note_on_c, 0, 74, 0
2, 26820, Note_on_c, 0, 74, 78
2, 26820, Note_on_c, 0, 79, 78
2, 26820, Note_on_c, 0, 83, 88
2, 26849, Note_on_c, 0, 83, 0
2, 26849, Note_on_c, 0, 74, 0
2, 26864, Note_on_c, 0, 79, 0
2, 26880, Note_on_c, 0, 84, 70
2, 26880, Note_on_c, 0, 76, 70
2, 26909, Note_on_c, 0, 76, 0
2, 26909, Note_on_c, 0, 84, 0
2, 26910, Note_on_c, 0, 72, 70
2, 26939, Note_on_c, 0, 72, 0
2, 26940, Note_on_c, 0, 71, 62
2, 26969, Note_on_c, 0, 71, 0
2, 26970, Note_on_c, 0, 72, 78
2, 26999, Note_on_c, 0, 72, 0
2, 27000, Note_on_c, 0, 74, 70
2, 27029, Note_on_c, 0, 74, 0
2, 27030, Note_on_c, 0, 72, 62
2, 27059, Note_on_c, 0, 72, 0
2, 27060, Note_on_c, 0, 71, 55
2, 27089, Note_on_c, 0, 71, 0
2, 27090, Note_on_c, 0, 72, 70
2, 27119, Note_on_c, 0, 72, 0
2, 27120, Note_on_c, 0, 60, 70
2, 27149, Note_on_c, 0, 60, 0
2, 27150, Note_on_c, 0, 72, 70
2, 27179, Note_on_c, 0, 72, 0
2, 27180, Note_on_c, 0, 62, 78
2, 27209, Note_on_c, 0, 62, 0
2, 27210, Note_on_c, 0, 72, 55
2, 27239, Note_on_c, 0, 72, 0
2, 27240, Note_on_c, 0, 64, 78
2, 27269, Note_on_c, 0, 64, 0
2, 27270, Note_on_c, 0, 72, 62
2, 27299, Note_on_c, 0, 72, 0
2, 27300, Note_on_c, 0, 65, 88
2, 27329, Note_on_c, 0, 65, 0
2, 27330, Note_on_c, 0, 72, 70
2, 27359, Note_on_c, 0, 72, 0
2, 27360, Note_on_c, 0, 67, 78
2, 27374, Note_on_c, 0, 67, 0
2, 27390, Note_on_c, 0, 72, 62
2, 27419, Note_on_c, 0, 72, 0
2, 27420, Note_on_c, 0, 71, 62
2, 27449, Note_on_c, 0, 71, 0
2, 27450, Note_on_c, 0, 72, 62
2, 27479, Note_on_c, 0, 72, 0
2, 27480, Note_on_c, 0, 74, 62
2, 27509, Note_on_c, 0, 74, 0
2, 27510, Note_on_c, 0, 72, 55
2, 27539, Note_on_c, 0, 72, 0
2, 27540, Note_on_c, 0, 71, 62
2, 27569, Note_on_c, 0, 71, 0
2, 27570, Note_on_c, 0, 72, 62
2, 27599, Note_on_c, 0, 72, 0
2, 27600, Note_on_c, 0, 64, 70
2, 27629, Note_on_c, 0, 64, 0
2, 27630, Note_on_c, 0, 72, 62
2, 27659, Note_on_c, 0, 72, 0
2, 27660, Note_on_c, 0, 65, 88
2, 27689, Note_on_c, 0, 65, 0
2, 27690, Note_on_c, 0, 72, 70
2, 27719, Note_on_c, 0, 72, 0
2, 27720, Note_on_c, 0, 67, 70
2, 27749, Note_on_c, 0, 67, 0
2, 27750, Note_on_c, 0, 72, 70
2, 27779, Note_on_c, 0, 72, 0
2, 27780, Note_on_c, 0, 69, 62
2, 27809, Note_on_c, 0, 69, 0
2, 27810, Note_on_c, 0, 72, 55
2, 27839, Note_on_c, 0, 72, 0
2, 27840, Note_on_c, 0, 70, 88
2, 27854, Note_on_c, 0, 70, 0
2, 27870, Note_on_c, 0, 72, 55
2, 27899, Note_on_c, 0, 72, 0
2, 27900, Note_on_c, 0, 71, 70
2, 27929, Note_on_c, 0, 71, 0
2, 27930, Note_on_c, 0, 72, 55
2, 27959, Note_on_c, 0, 72, 0
2, 27960, Note_on_c, 0, 74, 70
2, 27989, Note_on_c, 0, 74, 0
2, 27990, Note_on_c, 0, 72, 62
2, 28019, Note_on_c, 0, 72, 0
2, 28020, Note_on_c, 0, 71, 70
2, 28049, Note_on_c, 0, 71, 0
2, 28050, Note_on_c, 0, 72, 62
2, 28079, Note_on_c, 0, 72, 0
2, 28080, Note_on_c, 0, 76, 70
2, 28109, Note_on_c, 0, 76, 0
2, 28110, Note_on_c, 0, 72, 62
2, 28139, Note_on_c, 0, 72, 0
2, 28140, Note_on_c, 0, 77, 70
2, 28169, Note_on_c, 0, 77, 0
2, 28170, Note_on_c, 0, 72, 55
2, 28199, Note_on_c, 0, 72, 0
2, 28200, Note_on_c, 0, 79, 78
2, 28200, Note_on_c, 0, 76, 70
2, 28229, Note_on_c, 0, 76, 0
2, 28229, Note_on_c, 0, 79, 0
2, 28230, Note_on_c, 0, 72, 62
2, 28259, Note_on_c, 0, 72, 0
2, 28260, Note_on_c, 0, 81, 70
2, 28260, Note_on_c, 0, 77, 70
2, 28289, Note_on_c, 0, 77, 0
2, 28289, Note_on_c, 0, 81, 0
2, 28290, Note_on_c, 0, 72, 55
2, 28304, Note_on_c, 0, 72, 0
2, 28320, Note_on_c, 0, 72, 98
2, 28320, Note_on_c, 0, 82, 110
2, 28320, Note_on_c, 0, 79, 88
2, 28439, Note_on_c, 0, 79, 0
2, 28439, Note_on_c, 0, 82, 0
2, 28439, Note_on_c, 0, 72, 0
2, 28575, Note_on_c, 0, 79, 62
2, 28589, Note_on_c, 0, 79, 0
2, 28590, Note_on_c, 0, 80, 62
2, 28604, Note_on_c, 0, 80, 0
2, 28605, Note_on_c, 0, 82, 70
2, 28619, Note_on_c, 0, 82, 0
2, 28620, Note_on_c, 0, 84, 62
2, 28634, Note_on_c, 0, 84, 0
2, 28635, Note_on_c, 0, 79, 62
2, 28649, Note_on_c, 0, 79, 0
2, 28650, Note_on_c, 0, 80, 70
2, 28664, Note_on_c, 0, 80, 0
2, 28665, Note_on_c, 0, 76, 55
2, 28679, Note_on_c, 0, 76, 0
2, 28680, Note_on_c, 0, 77, 62
2, 28694, Note_on_c, 0, 77, 0
2, 28695, Note_on_c, 0, 71, 62
2, 28709, Note_on_c, 0, 71, 0
2, 28710, Note_on_c, 0, 72, 62
2, 28724, Note_on_c, 0, 72, 0
2, 28725, Note_on_c, 0, 67, 55
2, 28739, Note_on_c, 0, 67, 0
2, 28740, Note_on_c, 0, 68, 70
2, 28754, Note_on_c, 0, 68, 0
2, 28755, Note_on_c, 0, 64, 55
2, 28769, Note_on_c, 0, 64, 0
2, 28770, Note_on_c, 0, 65, 55
2, 28784, Note_on_c, 0, 65, 0
2, 28785, Note_on_c, 0, 60, 70
2, 28799, Note_on_c, 0, 60, 0
2, 28800, Note_on_c, 0, 59, 98
2, 28919, Note_on_c, 0, 59, 0
2, 29055, Note_on_c, 0, 74, 78
2, 29069, Note_on_c, 0, 74, 0
2, 29070, Note_on_c, 0, 75, 88
2, 29084, Note_on_c, 0, 75, 0
2, 29085, Note_on_c, 0, 77, 62
2, 29099, Note_on_c, 0, 77, 0
2, 29100, Note_on_c, 0, 79, 62
2, 29114, Note_on_c, 0, 79, 0
2, 29115, Note_on_c, 0, 74, 55
2, 29129, Note_on_c, 0, 74, 0
2, 29130, Note_on_c, 0, 75, 78
2, 29144, Note_on_c, 0, 75, 0
2, 29145, Note_on_c, 0, 71, 70
2, 29159, Note_on_c, 0, 71, 0
2, 29160, Note_on_c, 0, 72, 62
2, 29174, Note_on_c, 0, 72, 0
2, 29175, Note_on_c, 0, 66, 88
2, 29189, Note_on_c, 0, 66, 0
2, 29190, Note_on_c, 0, 67, 70
2, 29204, Note_on_c, 0, 67, 0
2, 29205, Note_on_c, 0, 62, 70
2, 29219, Note_on_c, 0, 62, 0
2, 29220, Note_on_c, 0, 63, 98
2, 29234, Note_on_c, 0, 63, 0
2, 29235, Note_on_c, 0, 59, 78
2, 29249, Note_on_c, 0, 59, 0
2, 29250, Note_on_c, 0, 60, 78
2, 29264, Note_on_c, 0, 60, 0
2, 29265, Note_on_c, 0, 55, 78
2, 29279, Note_on_c, 0, 55, 0
2, 29280, Note_on_c, 0, 61, 110
2, 29399, Note_on_c, 0, 61, 0
2, 29535, Note_on_c, 0, 70, 98
2, 29549, Note_on_c, 0, 70, 0
2, 29550, Note_on_c, 0, 72, 62
2, 29564, Note_on_c, 0, 72, 0
2, 29565, Note_on_c, 0, 73, 78
2, 29579, Note_on_c, 0, 73, 0
2, 29580, Note_on_c, 0, 75, 70
2, 29594, Note_on_c, 0, 75, 0
2, 29595, Note_on_c, 0, 70, 70
2, 29609, Note_on_c, 0, 70, 0
2, 29610, Note_on_c, 0, 72, 62
2, 29624, Note_on_c, 0, 72, 0
2, 29625, Note_on_c, 0, 67, 78
2, 29639, Note_on_c, 0, 67, 0
2, 29640, Note_on_c, 0, 68, 88
2, 29654, Note_on_c, 0, 68, 0
2, 29655, Note_on_c, 0, 62, 62
2, 29669, Note_on_c, 0, 62, 0
2, 29670, Note_on_c, 0, 63, 88
2, 29684, Note_on_c, 0, 63, 0
2, 29685, Note_on_c, 0, 59, 62
2, 29699, Note_on_c, 0, 59, 0
2, 29700, Note_on_c, 0, 60, 70
2, 29714, Note_on_c, 0, 60, 0
2, 29715, Note_on_c, 0, 53, 70
2, 29715, Note_on_c, 0, 55, 55
2, 29729, Note_on_c, 0, 55, 0
2, 29729, Note_on_c, 0, 53, 0
2, 29730, Note_on_c, 0, 56, 98
2, 29744, Note_on_c, 0, 56, 0
2, 29745, Note_on_c, 0, 60, 70
2, 29759, Note_on_c, 0, 60, 0
2, 29760, Note_on_c, 0, 68, 78
2, 29760, Note_on_c, 0, 65, 78
2, 29879, Note_on_c, 0, 65, 0
2, 29879, Note_on_c, 0, 68, 0
2, 29880, Note_on_c, 0, 63, 62
2, 29880, Note_on_c, 0, 67, 62
2, 29984, Note_on_c, 0, 67, 0
2, 29984, Note_on_c, 0, 63, 0
2, 30015, Note_on_c, 0, 71, 62
2, 30029, Note_on_c, 0, 71, 0
2, 30030, Note_on_c, 0, 72, 49
2, 30044, Note_on_c, 0, 72, 0
2, 30045, Note_on_c, 0, 74, 70
2, 30059, Note_on_c, 0, 74, 0
2, 30060, Note_on_c, 0, 75, 78
2, 30074, Note_on_c, 0, 75, 0
2, 30075, Note_on_c, 0, 71, 62
2, 30089, Note_on_c, 0, 71, 0
2, 30090, Note_on_c, 0, 72, 62
2, 30104, Note_on_c, 0, 72, 0
2, 30105, Note_on_c, 0, 68, 62
2, 30119, Note_on_c, 0, 68, 0
2, 30135, Note_on_c, 0, 74, 70
2, 30149, Note_on_c, 0, 74, 0
2, 30150, Note_on_c, 0, 75, 88
2, 30164, Note_on_c, 0, 75, 0
2, 30165, Note_on_c, 0, 77, 62
2, 30179, Note_on_c, 0, 77, 0
2, 30180, Note_on_c, 0, 78, 70
2, 30194, Note_on_c, 0, 78, 0
2, 30195, Note_on_c, 0, 74, 44
2, 30209, Note_on_c, 0, 74, 0
2, 30210, Note_on_c, 0, 75, 62
2, 30224, Note_on_c, 0, 75, 0
2, 30225, Note_on_c, 0, 72, 62
2, 30239, Note_on_c, 0, 72, 0
2, 30255, Note_on_c, 0, 81, 70
2, 30269, Note_on_c, 0, 81, 0
2, 30270, Note_on_c, 0, 82, 70
2, 30284, Note_on_c, 0, 82, 0
2, 30285, Note_on_c, 0, 78, 70
2, 30299, Note_on_c, 0, 78, 0
2, 30300, Note_on_c, 0, 79, 49
2, 30314, Note_on_c, 0, 79, 0
2, 30315, Note_on_c, 0, 74, 55
2, 30329, Note_on_c, 0, 74, 0
2, 30330, Note_on_c, 0, 75, 70
2, 30344, Note_on_c, 0, 75, 0
2, 30345, Note_on_c, 0, 71, 62
2, 30359, Note_on_c, 0, 71, 0
2, 30360, Note_on_c, 0, 72, 62
2, 30374, Note_on_c, 0, 72, 0
2, 30375, Note_on_c, 0, 67, 44
2, 30389, Note_on_c, 0, 67, 0
2, 30390, Note_on_c, 0, 68, 55
2, 30404, Note_on_c, 0, 68, 0
2, 30405, Note_on_c, 0, 64, 70
2, 30419, Note_on_c, 0, 64, 0
2, 30420, Note_on_c, 0, 65, 70
2, 30434, Note_on_c, 0, 65, 0
2, 30435, Note_on_c, 0, 60, 55
2, 30449, Note_on_c, 0, 60, 0
2, 30450, Note_on_c, 0, 62, 70
2, 30464, Note_on_c, 0, 62, 0
2, 30465, Note_on_c, 0, 58, 62
2, 30479, Note_on_c, 0, 58, 0
2, 30480, Note_on_c, 0, 63, 88
2, 30480, Note_on_c, 0, 55, 55
2, 30584, Note_on_c, 0, 55, 0
2, 30584, Note_on_c, 0, 63, 0
2, 30585, Note_on_c, 0, 58, 88
2, 30599, Note_on_c, 0, 58, 0
2, 30600, Note_on_c, 0, 63, 98
2, 30600, Note_on_c, 0, 55, 62
2, 30644, Note_on_c, 0, 55, 0
2, 30644, Note_on_c, 0, 63, 0
2, 30645, Note_on_c, 0, 58, 70
2, 30659, Note_on_c, 0, 58, 0
2, 30660, Note_on_c, 0, 63, 98
2, 30660, Note_on_c, 0, 55, 62
2, 30704, Note_on_c, 0, 55, 0
2, 30704, Note_on_c, 0, 63, 0
2, 30705, Note_on_c, 0, 58, 70
2, 30719, Note_on_c, 0, 58, 0
2, 30720, Note_on_c, 0, 63, 110
2, 30720, Note_on_c, 0, 55, 78
2, 30839, Note_on_c, 0, 55, 0
2, 30839, Note_on_c, 0, 63, 0
2, 30975, Note_on_c, 0, 79, 49
2, 30989, Note_on_c, 0, 79, 0
2, 30990, Note_on_c, 0, 80, 70
2, 31004, Note_on_c, 0, 80, 0
2, 31005, Note_on_c, 0, 82, 62
2, 31019, Note_on_c, 0, 82, 0
2, 31020, Note_on_c, 0, 83, 62
2, 31034, Note_on_c, 0, 83, 0
2, 31035, Note_on_c, 0, 79, 55
2, 31049, Note_on_c, 0, 79, 0
2, 31050, Note_on_c, 0, 80, 62
2, 31064, Note_on_c, 0, 80, 0
2, 31065, Note_on_c, 0, 74, 55
2, 31079, Note_on_c, 0, 74, 0
2, 31080, Note_on_c, 0, 75, 70
2, 31094, Note_on_c, 0, 75, 0
2, 31095, Note_on_c, 0, 70, 78
2, 31109, Note_on_c, 0, 70, 0
2, 31110, Note_on_c, 0, 71, 62
2, 31124, Note_on_c, 0, 71, 0
2, 31125, Note_on_c, 0, 67, 55
2, 31139, Note_on_c, 0, 67, 0
2, 31140, Note_on_c, 0, 68, 88
2, 31154, Note_on_c, 0, 68, 0
2, 31155, Note_on_c, 0, 62, 62
2, 31169, Note_on_c, 0, 62, 0
2, 31170, Note_on_c, 0, 63, 70
2, 31184, Note_on_c, 0, 63, 0
2, 31185, Note_on_c, 0, 59, 100
2, 31199, Note_on_c, 0, 59, 0
2, 31200, Note_on_c, 0, 58, 98
2, 31200, Note_on_c, 0, 61, 88
2, 31319, Note_on_c, 0, 61, 0
2, 31319, Note_on_c, 0, 58, 0
2, 31455, Note_on_c, 0, 81, 55
2, 31469, Note_on_c, 0, 81, 0
2, 31470, Note_on_c, 0, 82, 70
2, 31484, Note_on_c, 0, 82, 0
2, 31485, Note_on_c, 0, 84, 55
2, 31499, Note_on_c, 0, 84, 0
2, 31500, Note_on_c, 0, 85, 70
2, 31514, Note_on_c, 0, 85, 0
2, 31515, Note_on_c, 0, 81, 55
2, 31529, Note_on_c, 0, 81, 0
2, 31530, Note_on_c, 0, 82, 70
2, 31544, Note_on_c, 0, 82, 0
2, 31545, Note_on_c, 0, 76, 62
2, 31559, Note_on_c, 0, 76, 0
2, 31560, Note_on_c, 0, 77, 70
2, 31574, Note_on_c, 0, 77, 0
2, 31575, Note_on_c, 0, 72, 70
2, 31589, Note_on_c, 0, 72, 0
2, 31590, Note_on_c, 0, 73, 78
2, 31604, Note_on_c, 0, 73, 0
2, 31605, Note_on_c, 0, 69, 62
2, 31619, Note_on_c, 0, 69, 0
2, 31620, Note_on_c, 0, 70, 78
2, 31634, Note_on_c, 0, 70, 0
2, 31635, Note_on_c, 0, 64, 70
2, 31649, Note_on_c, 0, 64, 0
2, 31650, Note_on_c, 0, 65, 78
2, 31664, Note_on_c, 0, 65, 0
2, 31665, Note_on_c, 0, 61, 62
2, 31679, Note_on_c, 0, 61, 0
2, 31680, Note_on_c, 0, 60, 98
2, 31680, Note_on_c, 0, 69, 88
2, 31799, Note_on_c, 0, 69, 0
2, 31799, Note_on_c, 0, 60, 0
2, 31935, Note_on_c, 0, 83, 55
2, 31949, Note_on_c, 0, 83, 0
2, 31950, Note_on_c, 0, 84, 70
2, 31964, Note_on_c, 0, 84, 0
2, 31965, Note_on_c, 0, 86, 55
2, 31979, Note_on_c, 0, 86, 0
2, 31980, Note_on_c, 0, 87, 70
2, 31994, Note_on_c, 0, 87, 0
2, 31995, Note_on_c, 0, 83, 55
2, 32009, Note_on_c, 0, 83, 0
2, 32010, Note_on_c, 0, 84, 70
2, 32024, Note_on_c, 0, 84, 0
2, 32025, Note_on_c, 0, 78, 62
2, 32039, Note_on_c, 0, 78, 0
2, 32040, Note_on_c, 0, 79, 70
2, 32054, Note_on_c, 0, 79, 0
2, 32055, Note_on_c, 0, 74, 70
2, 32069, Note_on_c, 0, 74, 0
2, 32070, Note_on_c, 0, 75, 78
2, 32084, Note_on_c, 0, 75, 0
2, 32085, Note_on_c, 0, 71, 62
2, 32099, Note_on_c, 0, 71, 0
2, 32100, Note_on_c, 0, 72, 78
2, 32114, Note_on_c, 0, 72, 0
2, 32115, Note_on_c, 0, 66, 70
2, 32129, Note_on_c, 0, 66, 0
2, 32130, Note_on_c, 0, 67, 78
2, 32144, Note_on_c, 0, 67, 0
2, 32145, Note_on_c, 0, 63, 62
2, 32159, Note_on_c, 0, 63, 0
2, 32160, Note_on_c, 0, 60, 78
2, 32160, Note_on_c, 0, 59, 78
2, 32160, Note_on_c, 0, 62, 88
2, 32174, Note_on_c, 0, 62, 0
2, 32174, Note_on_c, 0, 59, 0
2, 32190, Note_on_c, 0, 74, 78
2, 32190, Note_on_c, 0, 71, 70
2, 32219, Note_on_c, 0, 71, 0
2, 32219, Note_on_c, 0, 74, 0
2, 32220, Note_on_c, 0, 77, 78
2, 32220, Note_on_c, 0, 74, 78
2, 32249, Note_on_c, 0, 74, 0
2, 32249, Note_on_c, 0, 77, 0
2, 32250, Note_on_c, 0, 75, 70
2, 32250, Note_on_c, 0, 72, 62
2, 32279, Note_on_c, 0, 72, 0
2, 32279, Note_on_c, 0, 75, 0
2, 32279, Note_on_c, 0, 60, 0
2, 32280, Note_on_c, 0, 74, 78
2, 32280, Note_on_c, 0, 71, 70
2, 32294, Note_on_c, 0, 71, 0
2, 32294, Note_on_c, 0, 74, 0
2, 32310, Note_on_c, 0, 59, 70
2, 32310, Note_on_c, 0, 62, 78
2, 32324, Note_on_c, 0, 59, 0
2, 32339, Note_on_c, 0, 62, 0
2, 32340, Note_on_c, 0, 63, 88
2, 32340, Note_on_c, 0, 60, 55
2, 32369, Note_on_c, 0, 60, 0
2, 32369, Note_on_c, 0, 63, 0
2, 32370, Note_on_c, 0, 62, 49
2, 32370, Note_on_c, 0, 65, 28
2, 32399, Note_on_c, 0, 65, 0
2, 32399, Note_on_c, 0, 62, 0
2, 32400, Note_on_c, 0, 63, 88
2, 32400, Note_on_c, 0, 67, 70
2, 32414, Note_on_c, 0, 67, 0
2, 32414, Note_on_c, 0, 63, 0
2, 32430, Note_on_c, 0, 75, 62
2, 32430, Note_on_c, 0, 72, 49
2, 32459, Note_on_c, 0, 72, 0
2, 32459, Note_on_c, 0, 75, 0
2, 32460, Note_on_c, 0, 75, 49
2, 32460, Note_on_c, 0, 79, 70
2, 32489, Note_on_c, 0, 79, 0
2, 32489, Note_on_c, 0, 75, 0
2, 32490, Note_on_c, 0, 74, 70
2, 32490, Note_on_c, 0, 77, 55
2, 32519, Note_on_c, 0, 77, 0
2, 32519, Note_on_c, 0, 74, 0
2, 32520, Note_on_c, 0, 75, 55
2, 32520, Note_on_c, 0, 72, 62
2, 32534, Note_on_c, 0, 72, 0
2, 32534, Note_on_c, 0, 75, 0
2, 32550, Note_on_c, 0, 60, 70
2, 32579, Note_on_c, 0, 60, 0
2, 32580, Note_on_c, 0, 62, 62
2, 32580, Note_on_c, 0, 59, 55
2, 32609, Note_on_c, 0, 59, 0
2, 32609, Note_on_c, 0, 62, 0
2, 32610, Note_on_c, 0, 63, 78
2, 32610, Note_on_c, 0, 60, 70
2, 32639, Note_on_c, 0, 60, 0
2, 32639, Note_on_c, 0, 63, 0
2, 32640, Note_on_c, 0, 62, 62
2, 32640, Note_on_c, 0, 65, 78
2, 32654, Note_on_c, 0, 65, 0
2, 32654, Note_on_c, 0, 62, 0
2, 32670, Note_on_c, 0, 77, 70
2, 32670, Note_on_c, 0, 74, 62
2, 32684, Note_on_c, 0, 77, 0
2, 32699, Note_on_c, 0, 74, 0
2, 32700, Note_on_c, 0, 77, 55
2, 32700, Note_on_c, 0, 80, 70
2, 32729, Note_on_c, 0, 80, 0
2, 32729, Note_on_c, 0, 77, 0
2, 32730, Note_on_c, 0, 75, 70
2, 32730, Note_on_c, 0, 79, 55
2, 32759, Note_on_c, 0, 79, 0
2, 32759, Note_on_c, 0, 75, 0
2, 32760, Note_on_c, 0, 77, 62
2, 32760, Note_on_c, 0, 74, 62
2, 32774, Note_on_c, 0, 74, 0
2, 32774, Note_on_c, 0, 77, 0
2, 32790, Note_on_c, 0, 59, 70
2, 32819, Note_on_c, 0, 59, 0
2, 32820, Note_on_c, 0, 57, 55
2, 32820, Note_on_c, 0, 60, 55
2, 32834, Note_on_c, 0, 57, 0
2, 32849, Note_on_c, 0, 60, 0
2, 32850, Note_on_c, 0, 62, 62
2, 32850, Note_on_c, 0, 59, 49
2, 32864, Note_on_c, 0, 59, 0
2, 32879, Note_on_c, 0, 62, 0
2, 32880, Note_on_c, 0, 60, 70
2, 32894, Note_on_c, 0, 60, 0
2, 32895, Note_on_c, 0, 75, 44
2, 32909, Note_on_c, 0, 75, 0
2, 32910, Note_on_c, 0, 74, 62
2, 32924, Note_on_c, 0, 74, 0
2, 32925, Note_on_c, 0, 75, 78
2, 32939, Note_on_c, 0, 75, 0
2, 32940, Note_on_c, 0, 77, 62
2, 32954, Note_on_c, 0, 77, 0
2, 32955, Note_on_c, 0, 75, 70
2, 32969, Note_on_c, 0, 75, 0
2, 32970, Note_on_c, 0, 79, 62
2, 32984, Note_on_c, 0, 79, 0
2, 32985, Note_on_c, 0, 75, 78
2, 32999, Note_on_c, 0, 75, 0
2, 33015, Note_on_c, 0, 73, 78
2, 33029, Note_on_c, 0, 73, 0
2, 33030, Note_on_c, 0, 72, 44
2, 33044, Note_on_c, 0, 72, 0
2, 33045, Note_on_c, 0, 73, 78
2, 33059, Note_on_c, 0, 73, 0
2, 33060, Note_on_c, 0, 75, 78
2, 33074, Note_on_c, 0, 75, 0
2, 33075, Note_on_c, 0, 73, 78
2, 33089, Note_on_c, 0, 73, 0
2, 33090, Note_on_c, 0, 77, 49
2, 33104, Note_on_c, 0, 77, 0
2, 33105, Note_on_c, 0, 73, 88
2, 33119, Note_on_c, 0, 73, 0
2, 33135, Note_on_c, 0, 72, 70
2, 33149, Note_on_c, 0, 72, 0
2, 33150, Note_on_c, 0, 71, 62
2, 33164, Note_on_c, 0, 71, 0
2, 33165, Note_on_c, 0, 72, 55
2, 33179, Note_on_c, 0, 72, 0
2, 33180, Note_on_c, 0, 74, 70
2, 33194, Note_on_c, 0, 74, 0
2, 33195, Note_on_c, 0, 72, 62
2, 33209, Note_on_c, 0, 72, 0
2, 33210, Note_on_c, 0, 75, 88
2, 33224, Note_on_c, 0, 75, 0
2, 33225, Note_on_c, 0, 72, 70
2, 33239, Note_on_c, 0, 72, 0
2, 33255, Note_on_c, 0, 84, 78
2, 33269, Note_on_c, 0, 84, 0
2, 33270, Note_on_c, 0, 83, 70
2, 33284, Note_on_c, 0, 83, 0
2, 33285, Note_on_c, 0, 84, 70
2, 33299, Note_on_c, 0, 84, 0
2, 33300, Note_on_c, 0, 86, 70
2, 33314, Note_on_c, 0, 86, 0
2, 33315, Note_on_c, 0, 84, 62
2, 33329, Note_on_c, 0, 84, 0
2, 33330, Note_on_c, 0, 87, 78
2, 33344, Note_on_c, 0, 87, 0
2, 33345, Note_on_c, 0, 84, 49
2, 33359, Note_on_c, 0, 84, 0
2, 33360, Note_on_c, 0, 79, 70
2, 33375, Note_on_c, 0, 78, 70
2, 33389, Note_on_c, 0, 78, 0
2, 33390, Note_on_c, 0, 79, 70
2, 33404, Note_on_c, 0, 79, 0
2, 33405, Note_on_c, 0, 74, 70
2, 33419, Note_on_c, 0, 74, 0
2, 33420, Note_on_c, 0, 75, 88
2, 33434, Note_on_c, 0, 75, 0
2, 33435, Note_on_c, 0, 71, 70
2, 33449, Note_on_c, 0, 71, 0
2, 33450, Note_on_c, 0, 72, 70
2, 33464, Note_on_c, 0, 72, 0
2, 33465, Note_on_c, 0, 67, 78
2, 33479, Note_on_c, 0, 67, 0
2, 33480, Note_on_c, 0, 68, 98
2, 33494, Note_on_c, 0, 68, 0
2, 33600, Note_on_c, 0, 75, 70
2, 33719, Note_on_c, 0, 75, 0
2, 33719, Note_on_c, 0, 79, 0
2, 33720, Note_on_c, 0, 74, 70
2, 33720, Note_on_c, 0, 77, 70
2, 33839, Note_on_c, 0, 77, 0
2, 33839, Note_on_c, 0, 74, 0
2, 33840, Note_on_c, 0, 75, 70
2, 33840, Note_on_c, 0, 72, 49
2, 33944, Note_on_c, 0, 72, 0
2, 33959, Note_on_c, 0, 75, 0
2, 33960, Note_on_c, 0, 74, 49
2, 33960, Note_on_c, 0, 71, 35
2, 34064, Note_on_c, 0, 71, 0
2, 34064, Note_on_c, 0, 74, 0
2, 34080, Note_on_c, 0, 60, 98
2, 34094, Note_on_c, 0, 60, 0
2, 34110, Note_on_c, 0, 72, 88
2, 34139, Note_on_c, 0, 72, 0
2, 34140, Note_on_c, 0, 71, 78
2, 34169, Note_on_c, 0, 71, 0
2, 34170, Note_on_c, 0, 72, 78
2, 34199, Note_on_c, 0, 72, 0
2, 34200, Note_on_c, 0, 74, 88
2, 34229, Note_on_c, 0, 74, 0
2, 34230, Note_on_c, 0, 72, 70
2, 34259, Note_on_c, 0, 72, 0
2, 34260, Note_on_c, 0, 71, 70
2, 34289, Note_on_c, 0, 71, 0
2, 34290, Note_on_c, 0, 72, 70
2, 34319, Note_on_c, 0, 72, 0
2, 34320, Note_on_c, 0, 60, 78
2, 34349, Note_on_c, 0, 60, 0
2, 34350, Note_on_c, 0, 72, 78
2, 34379, Note_on_c, 0, 72, 0
2, 34380, Note_on_c, 0, 62, 88
2, 34409, Note_on_c, 0, 62, 0
2, 34410, Note_on_c, 0, 72, 78
2, 34439, Note_on_c, 0, 72, 0
2, 34440, Note_on_c, 0, 64, 88
2, 34469, Note_on_c, 0, 64, 0
2, 34470, Note_on_c, 0, 72, 78
2, 34499, Note_on_c, 0, 72, 0
2, 34500, Note_on_c, 0, 65, 98
2, 34529, Note_on_c, 0, 65, 0
2, 34530, Note_on_c, 0, 72, 62
2, 34559, Note_on_c, 0, 72, 0
2, 34560, Note_on_c, 0, 67, 78
2, 34574, Note_on_c, 0, 67, 0
2, 34590, Note_on_c, 0, 72, 78
2, 34619, Note_on_c, 0, 72, 0
2, 34620, Note_on_c, 0, 71, 70
2, 34649, Note_on_c, 0, 71, 0
2, 34650, Note_on_c, 0, 72, 70
2, 34679, Note_on_c, 0, 72, 0
2, 34680, Note_on_c, 0, 74, 78
2, 34709, Note_on_c, 0, 74, 0
2, 34710, Note_on_c, 0, 72, 70
2, 34739, Note_on_c, 0, 72, 0
2, 34740, Note_on_c, 0, 71, 62
2, 34769, Note_on_c, 0, 71, 0
2, 34770, Note_on_c, 0, 72, 70
2, 34799, Note_on_c, 0, 72, 0
2, 34800, Note_on_c, 0, 64, 88
2, 34829, Note_on_c, 0, 64, 0
2, 34830, Note_on_c, 0, 72, 70
2, 34859, Note_on_c, 0, 72, 0
2, 34860, Note_on_c, 0, 65, 98
2, 34889, Note_on_c, 0, 65, 0
2, 34890, Note_on_c, 0, 72, 70
2, 34919, Note_on_c, 0, 72, 0
2, 34920, Note_on_c, 0, 67, 88
2, 34949, Note_on_c, 0, 67, 0
2, 34950, Note_on_c, 0, 72, 62
2, 34979, Note_on_c, 0, 72, 0
2, 34980, Note_on_c, 0, 69, 78
2, 35009, Note_on_c, 0, 69, 0
2, 35010, Note_on_c, 0, 72, 70
2, 35039, Note_on_c, 0, 72, 0
2, 35040, Note_on_c, 0, 70, 98
2, 35054, Note_on_c, 0, 70, 0
2, 35070, Note_on_c, 0, 72, 70
2, 35099, Note_on_c, 0, 72, 0
2, 35100, Note_on_c, 0, 71, 88
2, 35129, Note_on_c, 0, 71, 0
2, 35130, Note_on_c, 0, 72, 78
2, 35159, Note_on_c, 0, 72, 0
2, 35160, Note_on_c, 0, 74, 78
2, 35189, Note_on_c, 0, 74, 0
2, 35190, Note_on_c, 0, 72, 62
2, 35219, Note_on_c, 0, 72, 0
2, 35220, Note_on_c, 0, 71, 70
2, 35249, Note_on_c, 0, 71, 0
2, 35250, Note_on_c, 0, 72, 70
2, 35279, Note_on_c, 0, 72, 0
2, 35280, Note_on_c, 0, 76, 88
2, 35309, Note_on_c, 0, 76, 0
2, 35310, Note_on_c, 0, 72, 62
2, 35339, Note_on_c, 0, 72, 0
2, 35340, Note_on_c, 0, 77, 78
2, 35369, Note_on_c, 0, 77, 0
2, 35370, Note_on_c, 0, 72, 62
2, 35399, Note_on_c, 0, 72, 0
2, 35400, Note_on_c, 0, 79, 78
2, 35400, Note_on_c, 0, 76, 78
2, 35429, Note_on_c, 0, 76, 0
2, 35429, Note_on_c, 0, 79, 0
2, 35430, Note_on_c, 0, 72, 70
2, 35459, Note_on_c, 0, 72, 0
2, 35460, Note_on_c, 0, 77, 88
2, 35460, Note_on_c, 0, 81, 78
2, 35489, Note_on_c, 0, 81, 0
2, 35489, Note_on_c, 0, 77, 0
2, 35490, Note_on_c, 0, 72, 70
2, 35519, Note_on_c, 0, 72, 0
2, 35520, Note_on_c, 0, 82, 110
2, 35549, Note_on_c, 0, 82, 0
2, 35550, Note_on_c, 0, 79, 78
2, 35564, Note_on_c, 0, 79, 0
2, 35580, Note_on_c, 0, 72, 78
2, 35594, Note_on_c, 0, 72, 0
2, 35610, Note_on_c, 0, 82, 98
2, 35624, Note_on_c, 0, 82, 0
2, 35640, Note_on_c, 0, 81, 62
2, 35669, Note_on_c, 0, 81, 0
2, 35670, Note_on_c, 0, 77, 70
2, 35699, Note_on_c, 0, 77, 0
2, 35700, Note_on_c, 0, 72, 70
2, 35729, Note_on_c, 0, 72, 0
2, 35730, Note_on_c, 0, 81, 62
2, 35759, Note_on_c, 0, 81, 0
2, 35760, Note_on_c, 0, 79, 70
2, 35789, Note_on_c, 0, 79, 0
2, 35790, Note_on_c, 0, 76, 70
2, 35819, Note_on_c, 0, 76, 0
2, 35820, Note_on_c, 0, 79, 70
2, 35849, Note_on_c, 0, 79, 0
2, 35850, Note_on_c, 0, 76, 62
2, 35879, Note_on_c, 0, 76, 0
2, 35880, Note_on_c, 0, 77, 78
2, 35939, Note_on_c, 0, 77, 0
2, 35940, Note_on_c, 0, 71, 70
2, 35940, Note_on_c, 0, 76, 70
2, 35969, Note_on_c, 0, 76, 0
2, 35969, Note_on_c, 0, 71, 0
2, 35970, Note_on_c, 0, 74, 78
2, 35999, Note_on_c, 0, 74, 0
2, 36000, Note_on_c, 0, 72, 78
2, 36029, Note_on_c, 0, 72, 0
2, 36030, Note_on_c, 0, 67, 70
2, 36059, Note_on_c, 0, 67, 0
2, 36060, Note_on_c, 0, 69, 70
2, 36089, Note_on_c, 0, 69, 0
2, 36090, Note_on_c, 0, 71, 70
2, 36119, Note_on_c, 0, 71, 0
2, 36120, Note_on_c, 0, 72, 62
2, 36149, Note_on_c, 0, 72, 0
2, 36150, Note_on_c, 0, 71, 78
2, 36179, Note_on_c, 0, 71, 0
2, 36180, Note_on_c, 0, 72, 70
2, 36209, Note_on_c, 0, 72, 0
2, 36210, Note_on_c, 0, 74, 88
2, 36239, Note_on_c, 0, 74, 0
2, 36240, Note_on_c, 0, 76, 70
2, 36269, Note_on_c, 0, 76, 0
2, 36270, Note_on_c, 0, 72, 70
2, 36299, Note_on_c, 0, 72, 0
2, 36300, Note_on_c, 0, 71, 70
2, 36329, Note_on_c, 0, 71, 0
2, 36330, Note_on_c, 0, 74, 70
2, 36359, Note_on_c, 0, 74, 0
2, 36360, Note_on_c, 0, 72, 78
2, 36389, Note_on_c, 0, 72, 0
2, 36390, Note_on_c, 0, 69, 62
2, 36419, Note_on_c, 0, 69, 0
2, 36420, Note_on_c, 0, 68, 70
2, 36449, Note_on_c, 0, 68, 0
2, 36450, Note_on_c, 0, 71, 70
2, 36479, Note_on_c, 0, 71, 0
2, 36480, Note_on_c, 0, 69, 70
2, 36509, Note_on_c, 0, 69, 0
2, 36510, Note_on_c, 0, 80, 88
2, 36539, Note_on_c, 0, 80, 0
2, 36540, Note_on_c, 0, 81, 70
2, 36569, Note_on_c, 0, 81, 0
2, 36570, Note_on_c, 0, 80, 88
2, 36599, Note_on_c, 0, 80, 0
2, 36600, Note_on_c, 0, 81, 70
2, 36629, Note_on_c, 0, 81, 0
2, 36630, Note_on_c, 0, 79, 62
2, 36659, Note_on_c, 0, 79, 0
2, 36660, Note_on_c, 0, 78, 70
2, 36689, Note_on_c, 0, 78, 0
2, 36690, Note_on_c, 0, 76, 62
2, 36719, Note_on_c, 0, 76, 0
2, 36720, Note_on_c, 0, 74, 78
2, 36749, Note_on_c, 0, 74, 0
2, 36750, Note_on_c, 0, 71, 49
2, 36779, Note_on_c, 0, 71, 0
2, 36780, Note_on_c, 0, 69, 55
2, 36809, Note_on_c, 0, 69, 0
2, 36810, Note_on_c, 0, 72, 70
2, 36839, Note_on_c, 0, 72, 0
2, 36840, Note_on_c, 0, 71, 70
2, 36869, Note_on_c, 0, 71, 0
2, 36870, Note_on_c, 0, 67, 70
2, 36899, Note_on_c, 0, 67, 0
2, 36900, Note_on_c, 0, 66, 98
2, 36929, Note_on_c, 0, 66, 0
2, 36930, Note_on_c, 0, 69, 70
2, 36959, Note_on_c, 0, 69, 0
2, 36960, Note_on_c, 0, 67, 78
2, 36989, Note_on_c, 0, 67, 0
2, 36990, Note_on_c, 0, 78, 88
2, 37019, Note_on_c, 0, 78, 0
2, 37020, Note_on_c, 0, 79, 78
2, 37049, Note_on_c, 0, 79, 0
2, 37050, Note_on_c, 0, 78, 88
2, 37079, Note_on_c, 0, 78, 0
2, 37080, Note_on_c, 0, 79, 78
2, 37109, Note_on_c, 0, 79, 0
2, 37110, Note_on_c, 0, 78, 78
2, 37139, Note_on_c, 0, 78, 0
2, 37140, Note_on_c, 0, 76, 70
2, 37169, Note_on_c, 0, 76, 0
2, 37170, Note_on_c, 0, 74, 62
2, 37199, Note_on_c, 0, 74, 0
2, 37200, Note_on_c, 0, 72, 78
2, 37259, Note_on_c, 0, 72, 0
2, 37260, Note_on_c, 0, 71, 70
2, 37289, Note_on_c, 0, 71, 0
2, 37290, Note_on_c, 0, 72, 55
2, 37304, Note_on_c, 0, 72, 0
2, 37320, Note_on_c, 0, 72, 78
2, 37379, Note_on_c, 0, 72, 0
2, 37380, Note_on_c, 0, 71, 62
2, 37409, Note_on_c, 0, 71, 0
2, 37410, Note_on_c, 0, 72, 62
2, 37424, Note_on_c, 0, 72, 0
2, 37440, Note_on_c, 0, 72, 88
2, 37499, Note_on_c, 0, 72, 0
2, 37500, Note_on_c, 0, 71, 70
2, 37529, Note_on_c, 0, 71, 0
2, 37530, Note_on_c, 0, 72, 55
2, 37544, Note_on_c, 0, 72, 0
2, 37560, Note_on_c, 0, 72, 78
2, 37619, Note_on_c, 0, 72, 0
2, 37620, Note_on_c, 0, 71, 62
2, 37649, Note_on_c, 0, 71, 0
2, 37650, Note_on_c, 0, 72, 62
2, 37664, Note_on_c, 0, 72, 0
2, 37680, Note_on_c, 0, 72, 78
2, 37739, Note_on_c, 0, 72, 0
2, 37740, Note_on_c, 0, 74, 70
2, 37769, Note_on_c, 0, 74, 0
2, 37770, Note_on_c, 0, 76, 55
2, 37799, Note_on_c, 0, 76, 0
2, 37800, Note_on_c, 0, 78, 78
2, 37829, Note_on_c, 0, 78, 0
2, 37830, Note_on_c, 0, 79, 70
2, 37859, Note_on_c, 0, 79, 0
2, 37860, Note_on_c, 0, 81, 70
2, 37889, Note_on_c, 0, 81, 0
2, 37890, Note_on_c, 0, 83, 70
2, 37919, Note_on_c, 0, 83, 0
2, 37920, Note_on_c, 0, 84, 49
2, 37949, Note_on_c, 0, 84, 0
2, 37950, Note_on_c, 0, 86, 62
2, 37979, Note_on_c, 0, 86, 0
2, 37980, Note_on_c, 0, 83, 88
2, 38009, Note_on_c, 0, 83, 0
2, 38010, Note_on_c, 0, 84, 55
2, 38039, Note_on_c, 0, 84, 0
2, 38040, Note_on_c, 0, 81, 62
2, 38069, Note_on_c, 0, 81, 0
2, 38070, Note_on_c, 0, 83, 62
2, 38099, Note_on_c, 0, 83, 0
2, 38100, Note_on_c, 0, 79, 62
2, 38129, Note_on_c, 0, 79, 0
2, 38130, Note_on_c, 0, 81, 62
2, 38159, Note_on_c, 0, 81, 0
2, 38160, Note_on_c, 0, 78, 78
2, 38189, Note_on_c, 0, 78, 0
2, 38190, Note_on_c, 0, 79, 44
2, 38219, Note_on_c, 0, 79, 0
2, 38220, Note_on_c, 0, 76, 49
2, 38249, Note_on_c, 0, 76, 0
2, 38250, Note_on_c, 0, 78, 70
2, 38279, Note_on_c, 0, 78, 0
2, 38280, Note_on_c, 0, 74, 70
2, 38309, Note_on_c, 0, 74, 0
2, 38310, Note_on_c, 0, 76, 70
2, 38339, Note_on_c, 0, 76, 0
2, 38340, Note_on_c, 0, 72, 62
2, 38369, Note_on_c, 0, 72, 0
2, 38370, Note_on_c, 0, 74, 70
2, 38399, Note_on_c, 0, 74, 0
2, 38400, Note_on_c, 0, 71, 78
2, 38429, Note_on_c, 0, 71, 0
2, 38430, Note_on_c, 0, 74, 78
2, 38459, Note_on_c, 0, 74, 0
2, 38460, Note_on_c, 0, 72, 88
2, 38489, Note_on_c, 0, 72, 0
2, 38490, Note_on_c, 0, 71, 78
2, 38519, Note_on_c, 0, 71, 0
2, 38520, Note_on_c, 0, 76, 70
2, 38549, Note_on_c, 0, 76, 0
2, 38550, Note_on_c, 0, 72, 70
2, 38579, Note_on_c, 0, 72, 0
2, 38580, Note_on_c, 0, 71, 78
2, 38609, Note_on_c, 0, 71, 0
2, 38610, Note_on_c, 0, 69, 78
2, 38639, Note_on_c, 0, 69, 0
2, 38640, Note_on_c, 0, 74, 88
2, 38669, Note_on_c, 0, 74, 0
2, 38670, Note_on_c, 0, 71, 62
2, 38699, Note_on_c, 0, 71, 0
2, 38700, Note_on_c, 0, 69, 70
2, 38729, Note_on_c, 0, 69, 0
2, 38730, Note_on_c, 0, 67, 70
2, 38759, Note_on_c, 0, 67, 0
2, 38760, Note_on_c, 0, 72, 78
2, 38789, Note_on_c, 0, 72, 0
2, 38790, Note_on_c, 0, 69, 78
2, 38819, Note_on_c, 0, 69, 0
2, 38820, Note_on_c, 0, 67, 62
2, 38849, Note_on_c, 0, 67, 0
2, 38850, Note_on_c, 0, 66, 78
2, 38864, Note_on_c, 0, 66, 0
2, 38880, Note_on_c, 0, 67, 98
2, 38894, Note_on_c, 0, 67, 0
2, 38910, Note_on_c, 0, 67, 78
2, 38939, Note_on_c, 0, 67, 0
2, 38940, Note_on_c, 0, 66, 70
2, 38969, Note_on_c, 0, 66, 0
2, 38970, Note_on_c, 0, 67, 62
2, 38999, Note_on_c, 0, 67, 0
2, 39000, Note_on_c, 0, 69, 70
2, 39029, Note_on_c, 0, 69, 0
2, 39030, Note_on_c, 0, 67, 62
2, 39059, Note_on_c, 0, 67, 0
2, 39060, Note_on_c, 0, 66, 78
2, 39074, Note_on_c, 0, 66, 0
2, 39090, Note_on_c, 0, 67, 70
2, 39119, Note_on_c, 0, 67, 0
2, 39120, Note_on_c, 0, 55, 78
2, 39149, Note_on_c, 0, 55, 0
2, 39150, Note_on_c, 0, 67, 70
2, 39179, Note_on_c, 0, 67, 0
2, 39180, Note_on_c, 0, 57, 88
2, 39209, Note_on_c, 0, 57, 0
2, 39210, Note_on_c, 0, 67, 78
2, 39239, Note_on_c, 0, 67, 0
2, 39240, Note_on_c, 0, 59, 88
2, 39269, Note_on_c, 0, 59, 0
2, 39270, Note_on_c, 0, 67, 70
2, 39299, Note_on_c, 0, 67, 0
2, 39300, Note_on_c, 0, 60, 78
2, 39329, Note_on_c, 0, 60, 0
2, 39330, Note_on_c, 0, 67, 62
2, 39359, Note_on_c, 0, 67, 0
2, 39360, Note_on_c, 0, 62, 98
2, 39374, Note_on_c, 0, 62, 0
2, 39390, Note_on_c, 0, 79, 49
2, 39419, Note_on_c, 0, 79, 0
2, 39420, Note_on_c, 0, 78, 78
2, 39449, Note_on_c, 0, 78, 0
2, 39450, Note_on_c, 0, 79, 62
2, 39479, Note_on_c, 0, 79, 0
2, 39480, Note_on_c, 0, 81, 70
2, 39509, Note_on_c, 0, 81, 0
2, 39510, Note_on_c, 0, 79, 70
2, 39539, Note_on_c, 0, 79, 0
2, 39540, Note_on_c, 0, 78, 78
2, 39569, Note_on_c, 0, 78, 0
2, 39570, Note_on_c, 0, 79, 62
2, 39599, Note_on_c, 0, 79, 0
2, 39600, Note_on_c, 0, 71, 78
2, 39629, Note_on_c, 0, 71, 0
2, 39630, Note_on_c, 0, 79, 70
2, 39659, Note_on_c, 0, 79, 0
2, 39660, Note_on_c, 0, 72, 78
2, 39689, Note_on_c, 0, 72, 0
2, 39690, Note_on_c, 0, 79, 70
2, 39719, Note_on_c, 0, 79, 0
2, 39720, Note_on_c, 0, 74, 88
2, 39749, Note_on_c, 0, 74, 0
2, 39750, Note_on_c, 0, 79, 70
2, 39779, Note_on_c, 0, 79, 0
2, 39780, Note_on_c, 0, 76, 62
2, 39809, Note_on_c, 0, 76, 0
2, 39810, Note_on_c, 0, 79, 70
2, 39839, Note_on_c, 0, 79, 0
2, 39840, Note_on_c, 0, 77, 78
2, 39869, Note_on_c, 0, 77, 0
2, 39870, Note_on_c, 0, 79, 55
2, 39899, Note_on_c, 0, 79, 0
2, 39900, Note_on_c, 0, 76, 62
2, 39929, Note_on_c, 0, 76, 0
2, 39930, Note_on_c, 0, 77, 70
2, 39959, Note_on_c, 0, 77, 0
2, 39960, Note_on_c, 0, 74, 78
2, 39989, Note_on_c, 0, 74, 0
2, 39990, Note_on_c, 0, 76, 55
2, 40019, Note_on_c, 0, 76, 0
2, 40020, Note_on_c, 0, 72, 70
2, 40049, Note_on_c, 0, 72, 0
2, 40050, Note_on_c, 0, 74, 78
2, 40079, Note_on_c, 0, 74, 0
2, 40080, Note_on_c, 0, 71, 78
2, 40109, Note_on_c, 0, 71, 0
2, 40110, Note_on_c, 0, 72, 70
2, 40139, Note_on_c, 0, 72, 0
2, 40140, Note_on_c, 0, 69, 78
2, 40169, Note_on_c, 0, 69, 0
2, 40170, Note_on_c, 0, 71, 78
2, 40199, Note_on_c, 0, 71, 0
2, 40200, Note_on_c, 0, 67, 88
2, 40229, Note_on_c, 0, 67, 0
2, 40230, Note_on_c, 0, 69, 70
2, 40259, Note_on_c, 0, 69, 0
2, 40260, Note_on_c, 0, 65, 88
2, 40289, Note_on_c, 0, 65, 0
2, 40290, Note_on_c, 0, 67, 78
2, 40319, Note_on_c, 0, 67, 0
2, 40320, Note_on_c, 0, 64, 88
2, 40349, Note_on_c, 0, 64, 0
2, 40350, Note_on_c, 0, 68, 88
2, 40379, Note_on_c, 0, 68, 0
2, 40380, Note_on_c, 0, 71, 88
2, 40409, Note_on_c, 0, 71, 0
2, 40410, Note_on_c, 0, 76, 88
2, 40439, Note_on_c, 0, 76, 0
2, 40440, Note_on_c, 0, 64, 88
2, 40469, Note_on_c, 0, 64, 0
2, 40470, Note_on_c, 0, 76, 62
2, 40499, Note_on_c, 0, 76, 0
2, 40500, Note_on_c, 0, 64, 78
2, 40529, Note_on_c, 0, 64, 0
2, 40530, Note_on_c, 0, 76, 88
2, 40560, Note_on_c, 0, 64, 88
2, 40574, Note_on_c, 0, 76, 0
2, 40589, Note_on_c, 0, 64, 0
2, 40590, Note_on_c, 0, 68, 98
2, 40619, Note_on_c, 0, 68, 0
2, 40620, Note_on_c, 0, 71, 78
2, 40649, Note_on_c, 0, 71, 0
2, 40650, Note_on_c, 0, 76, 88
2, 40679, Note_on_c, 0, 76, 0
2, 40680, Note_on_c, 0, 64, 78
2, 40709, Note_on_c, 0, 64, 0
2, 40710, Note_on_c, 0, 76, 78
2, 40739, Note_on_c, 0, 76, 0
2, 40740, Note_on_c, 0, 64, 78
2, 40769, Note_on_c, 0, 64, 0
2, 40770, Note_on_c, 0, 76, 70
2, 40784, Note_on_c, 0, 76, 0
2, 40800, Note_on_c, 0, 76, 98
2, 40859, Note_on_c, 0, 76, 0
2, 40860, Note_on_c, 0, 81, 39
2, 40889, Note_on_c, 0, 81, 0
2, 40890, Note_on_c, 0, 77, 44
2, 40919, Note_on_c, 0, 77, 0
2, 40920, Note_on_c, 0, 74, 55
2, 40934, Note_on_c, 0, 74, 0
2, 40980, Note_on_c, 0, 74, 62
2, 41009, Note_on_c, 0, 74, 0
2, 41040, Note_on_c, 0, 74, 62
2, 41069, Note_on_c, 0, 74, 0
2, 41100, Note_on_c, 0, 74, 44
2, 41129, Note_on_c, 0, 74, 0
2, 41160, Note_on_c, 0, 74, 44
2, 41189, Note_on_c, 0, 74, 0
2, 41220, Note_on_c, 0, 74, 55
2, 41264, Note_on_c, 0, 74, 0
2, 41280, Note_on_c, 0, 74, 110
2, 41339, Note_on_c, 0, 74, 0
2, 41340, Note_on_c, 0, 79, 39
2, 41369, Note_on_c, 0, 79, 0
2, 41370, Note_on_c, 0, 76, 22
2, 41399, Note_on_c, 0, 76, 0
2, 41400, Note_on_c, 0, 72, 49
2, 41429, Note_on_c, 0, 72, 0
2, 41460, Note_on_c, 0, 72, 44
2, 41474, Note_on_c, 0, 72, 0
2, 41520, Note_on_c, 0, 72, 49
2, 41564, Note_on_c, 0, 72, 0
2, 41580, Note_on_c, 0, 72, 44
2, 41624, Note_on_c, 0, 72, 0
2, 41640, Note_on_c, 0, 72, 49
2, 41684, Note_on_c, 0, 72, 0
2, 41700, Note_on_c, 0, 72, 55
2, 41744, Note_on_c, 0, 72, 0
2, 41760, Note_on_c, 0, 72, 98
2, 41819, Note_on_c, 0, 72, 0
2, 41820, Note_on_c, 0, 77, 55
2, 41849, Note_on_c, 0, 77, 0
2, 41850, Note_on_c, 0, 74, 35
2, 41879, Note_on_c, 0, 74, 0
2, 41880, Note_on_c, 0, 71, 39
2, 41909, Note_on_c, 0, 71, 0
2, 41940, Note_on_c, 0, 71, 39
2, 41984, Note_on_c, 0, 71, 0
2, 42000, Note_on_c, 0, 71, 110
2, 42059, Note_on_c, 0, 71, 0
2, 42060, Note_on_c, 0, 76, 30
2, 42089, Note_on_c, 0, 76, 0
2, 42090, Note_on_c, 0, 72, 28
2, 42119, Note_on_c, 0, 72, 0
2, 42120, Note_on_c, 0, 69, 39
2, 42164, Note_on_c, 0, 69, 0
2, 42180, Note_on_c, 0, 69, 49
2, 42224, Note_on_c, 0, 69, 0
2, 42240, Note_on_c, 0, 68, 98
2, 42240, Note_on_c, 0, 65, 98
2, 42240, Note_on_c, 0, 62, 78
2, 42269, Note_on_c, 0, 62, 0
2, 42269, Note_on_c, 0, 65, 0
2, 42284, Note_on_c, 0, 68, 0
2, 42300, Note_on_c, 0, 80, 98
2, 42329, Note_on_c, 0, 80, 0
2, 42330, Note_on_c, 0, 68, 78
2, 42359, Note_on_c, 0, 68, 0
2, 42360, Note_on_c, 0, 81, 78
2, 42389, Note_on_c, 0, 81, 0
2, 42390, Note_on_c, 0, 69, 78
2, 42419, Note_on_c, 0, 69, 0
2, 42420, Note_on_c, 0, 83, 98
2, 42449, Note_on_c, 0, 83, 0
2, 42450, Note_on_c, 0, 71, 70
2, 42479, Note_on_c, 0, 71, 0
2, 42480, Note_on_c, 0, 84, 98
2, 42509, Note_on_c, 0, 84, 0
2, 42510, Note_on_c, 0, 72, 70
2, 42539, Note_on_c, 0, 72, 0
2, 42540, Note_on_c, 0, 84, 98
2, 42569, Note_on_c, 0, 84, 0
2, 42570, Note_on_c, 0, 72, 70
2, 42599, Note_on_c, 0, 72, 0
2, 42600, Note_on_c, 0, 84, 98
2, 42629, Note_on_c, 0, 84, 0
2, 42630, Note_on_c, 0, 72, 62
2, 42659, Note_on_c, 0, 72, 0
2, 42660, Note_on_c, 0, 84, 88
2, 42689, Note_on_c, 0, 84, 0
2, 42690, Note_on_c, 0, 72, 62
2, 42719, Note_on_c, 0, 72, 0
2, 42720, Note_on_c, 0, 83, 98
2, 42749, Note_on_c, 0, 83, 0
2, 42780, Note_on_c, 0, 64, 62
2, 42809, Note_on_c, 0, 64, 0
2, 42810, Note_on_c, 0, 66, 88
2, 42839, Note_on_c, 0, 66, 0
2, 42840, Note_on_c, 0, 68, 88
2, 42869, Note_on_c, 0, 68, 0
2, 42870, Note_on_c, 0, 69, 78
2, 42899, Note_on_c, 0, 69, 0
2, 42900, Note_on_c, 0, 71, 78
2, 42929, Note_on_c, 0, 71, 0
2, 42930, Note_on_c, 0, 68, 88
2, 42959, Note_on_c, 0, 68, 0
2, 42960, Note_on_c, 0, 64, 88
2, 42989, Note_on_c, 0, 64, 0
2, 42990, Note_on_c, 0, 76, 78
2, 43019, Note_on_c, 0, 76, 0
2, 43020, Note_on_c, 0, 64, 88
2, 43049, Note_on_c, 0, 64, 0
2, 43050, Note_on_c, 0, 76, 70
2, 43079, Note_on_c, 0, 76, 0
2, 43080, Note_on_c, 0, 66, 110
2, 43109, Note_on_c, 0, 66, 0
2, 43110, Note_on_c, 0, 76, 70
2, 43139, Note_on_c, 0, 76, 0
2, 43140, Note_on_c, 0, 68, 110
2, 43169, Note_on_c, 0, 68, 0
2, 43170, Note_on_c, 0, 76, 62
2, 43199, Note_on_c, 0, 76, 0
2, 43200, Note_on_c, 0, 69, 88
2, 43229, Note_on_c, 0, 69, 0
2, 43230, Note_on_c, 0, 76, 70
2, 43259, Note_on_c, 0, 76, 0
2, 43260, Note_on_c, 0, 72, 78
2, 43289, Note_on_c, 0, 72, 0
2, 43290, Note_on_c, 0, 76, 62
2, 43319, Note_on_c, 0, 76, 0
2, 43320, Note_on_c, 0, 71, 78
2, 43349, Note_on_c, 0, 71, 0
2, 43350, Note_on_c, 0, 76, 70
2, 43379, Note_on_c, 0, 76, 0
2, 43380, Note_on_c, 0, 69, 78
2, 43409, Note_on_c, 0, 69, 0
2, 43410, Note_on_c, 0, 76, 55
2, 43439, Note_on_c, 0, 76, 0
2, 43440, Note_on_c, 0, 68, 88
2, 43469, Note_on_c, 0, 68, 0
2, 43470, Note_on_c, 0, 76, 62
2, 43499, Note_on_c, 0, 76, 0
2, 43500, Note_on_c, 0, 64, 88
2, 43529, Note_on_c, 0, 64, 0
2, 43530, Note_on_c, 0, 76, 70
2, 43559, Note_on_c, 0, 76, 0
2, 43560, Note_on_c, 0, 66, 98
2, 43589, Note_on_c, 0, 66, 0
2, 43590, Note_on_c, 0, 76, 70
2, 43619, Note_on_c, 0, 76, 0
2, 43620, Note_on_c, 0, 68, 98
2, 43649, Note_on_c, 0, 68, 0
2, 43650, Note_on_c, 0, 76, 70
2, 43679, Note_on_c, 0, 76, 0
2, 43680, Note_on_c, 0, 69, 88
2, 43709, Note_on_c, 0, 69, 0
2, 43710, Note_on_c, 0, 76, 78
2, 43739, Note_on_c, 0, 76, 0
2, 43740, Note_on_c, 0, 64, 62
2, 43769, Note_on_c, 0, 64, 0
2, 43770, Note_on_c, 0, 76, 78
2, 43799, Note_on_c, 0, 76, 0
2, 43800, Note_on_c, 0, 71, 78
2, 43829, Note_on_c, 0, 71, 0
2, 43830, Note_on_c, 0, 76, 70
2, 43859, Note_on_c, 0, 76, 0
2, 43860, Note_on_c, 0, 68, 88
2, 43889, Note_on_c, 0, 68, 0
2, 43890, Note_on_c, 0, 76, 55
2, 43919, Note_on_c, 0, 76, 0
2, 43920, Note_on_c, 0, 79, 70
2, 43949, Note_on_c, 0, 79, 0
2, 43950, Note_on_c, 0, 77, 70
2, 43979, Note_on_c, 0, 77, 0
2, 43980, Note_on_c, 0, 86, 88
2, 44009, Note_on_c, 0, 86, 0
2, 44010, Note_on_c, 0, 84, 70
2, 44039, Note_on_c, 0, 84, 0
2, 44040, Note_on_c, 0, 83, 78
2, 44069, Note_on_c, 0, 83, 0
2, 44070, Note_on_c, 0, 81, 62
2, 44099, Note_on_c, 0, 81, 0
2, 44100, Note_on_c, 0, 79, 62
2, 44129, Note_on_c, 0, 79, 0
2, 44130, Note_on_c, 0, 77, 70
2, 44144, Note_on_c, 0, 77, 0
2, 44160, Note_on_c, 0, 77, 78
2, 44189, Note_on_c, 0, 77, 0
2, 44190, Note_on_c, 0, 76, 70
2, 44219, Note_on_c, 0, 76, 0
2, 44220, Note_on_c, 0, 84, 98
2, 44234, Note_on_c, 0, 84, 0
2, 44250, Note_on_c, 0, 83, 88
2, 44279, Note_on_c, 0, 83, 0
2, 44280, Note_on_c, 0, 81, 70
2, 44309, Note_on_c, 0, 81, 0
2, 44310, Note_on_c, 0, 79, 70
2, 44339, Note_on_c, 0, 79, 0
2, 44340, Note_on_c, 0, 77, 62
2, 44369, Note_on_c, 0, 77, 0
2, 44370, Note_on_c, 0, 76, 70
2, 44384, Note_on_c, 0, 76, 0
2, 44400, Note_on_c, 0, 76, 78
2, 44429, Note_on_c, 0, 76, 0
2, 44430, Note_on_c, 0, 74, 70
2, 44444, Note_on_c, 0, 74, 0
2, 44460, Note_on_c, 0, 83, 88
2, 44489, Note_on_c, 0, 83, 0
2, 44490, Note_on_c, 0, 81, 70
2, 44519, Note_on_c, 0, 81, 0
2, 44520, Note_on_c, 0, 80, 88
2, 44549, Note_on_c, 0, 80, 0
2, 44550, Note_on_c, 0, 78, 88
2, 44564, Note_on_c, 0, 78, 0
2, 44580, Note_on_c, 0, 76, 88
2, 44609, Note_on_c, 0, 76, 0
2, 44610, Note_on_c, 0, 74, 78
2, 44624, Note_on_c, 0, 74, 0
2, 44640, Note_on_c, 0, 72, 78
2, 44669, Note_on_c, 0, 72, 0
2, 44670, Note_on_c, 0, 76, 70
2, 44699, Note_on_c, 0, 76, 0
2, 44700, Note_on_c, 0, 81, 78
2, 44729, Note_on_c, 0, 81, 0
2, 44730, Note_on_c, 0, 76, 70
2, 44759, Note_on_c, 0, 76, 0
2, 44760, Note_on_c, 0, 77, 70
2, 44789, Note_on_c, 0, 77, 0
2, 44790, Note_on_c, 0, 74, 70
2, 44819, Note_on_c, 0, 74, 0
2, 44820, Note_on_c, 0, 72, 62
2, 44849, Note_on_c, 0, 72, 0
2, 44850, Note_on_c, 0, 71, 78
2, 44879, Note_on_c, 0, 71, 0
2, 44880, Note_on_c, 0, 76, 78
2, 44909, Note_on_c, 0, 76, 0
2, 44910, Note_on_c, 0, 72, 62
2, 44939, Note_on_c, 0, 72, 0
2, 44940, Note_on_c, 0, 71, 70
2, 44969, Note_on_c, 0, 71, 0
2, 44970, Note_on_c, 0, 69, 70
2, 44999, Note_on_c, 0, 69, 0
2, 45000, Note_on_c, 0, 74, 78
2, 45029, Note_on_c, 0, 74, 0
2, 45030, Note_on_c, 0, 71, 70
2, 45059, Note_on_c, 0, 71, 0
2, 45060, Note_on_c, 0, 69, 55
2, 45089, Note_on_c, 0, 69, 0
2, 45090, Note_on_c, 0, 68, 70
2, 45104, Note_on_c, 0, 68, 0
2, 45120, Note_on_c, 0, 60, 88
2, 45120, Note_on_c, 0, 69, 88
2, 45164, Note_on_c, 0, 69, 0
2, 45164, Note_on_c, 0, 60, 0
2, 45180, Note_on_c, 0, 64, 88
2, 45180, Note_on_c, 0, 72, 88
2, 45180, Note_on_c, 0, 60, 78
2, 45194, Note_on_c, 0, 60, 0
2, 45194, Note_on_c, 0, 72, 0
2, 45194, Note_on_c, 0, 64, 0
2, 45210, Note_on_c, 0, 64, 78
2, 45210, Note_on_c, 0, 72, 70
2, 45210, Note_on_c, 0, 60, 78
2, 45224, Note_on_c, 0, 60, 0
2, 45224, Note_on_c, 0, 72, 0
2, 45224, Note_on_c, 0, 64, 0
2, 45240, Note_on_c, 0, 64, 88
2, 45240, Note_on_c, 0, 72, 88
2, 45240, Note_on_c, 0, 60, 78
2, 45284, Note_on_c, 0, 60, 0
2, 45284, Note_on_c, 0, 72, 0
2, 45284, Note_on_c, 0, 64, 0
2, 45300, Note_on_c, 0, 64, 88
2, 45300, Note_on_c, 0, 72, 78
2, 45300, Note_on_c, 0, 60, 78
2, 45329, Note_on_c, 0, 60, 0
2, 45329, Note_on_c, 0, 72, 0
2, 45329, Note_on_c, 0, 64, 0
2, 45360, Note_on_c, 0, 72, 98
2, 45360, Note_on_c, 0, 67, 98
2, 45360, Note_on_c, 0, 64, 78
2, 45389, Note_on_c, 0, 64, 0
2, 45389, Note_on_c, 0, 67, 0
2, 45389, Note_on_c, 0, 72, 0
2, 45420, Note_on_c, 0, 82, 98
2, 45420, Note_on_c, 0, 72, 78
2, 45420, Note_on_c, 0, 76, 88
2, 45434, Note_on_c, 0, 76, 0
2, 45434, Note_on_c, 0, 72, 0
2, 45434, Note_on_c, 0, 82, 0
2, 45450, Note_on_c, 0, 82, 98
2, 45450, Note_on_c, 0, 72, 70
2, 45450, Note_on_c, 0, 76, 70
2, 45464, Note_on_c, 0, 76, 0
2, 45464, Note_on_c, 0, 72, 0
2, 45464, Note_on_c, 0, 82, 0
2, 45480, Note_on_c, 0, 82, 98
2, 45480, Note_on_c, 0, 72, 78
2, 45480, Note_on_c, 0, 76, 78
2, 45509, Note_on_c, 0, 76, 0
2, 45509, Note_on_c, 0, 72, 0
2, 45509, Note_on_c, 0, 82, 0
2, 45540, Note_on_c, 0, 82, 98
2, 45540, Note_on_c, 0, 76, 78
2, 45540, Note_on_c, 0, 72, 70
2, 45569, Note_on_c, 0, 72, 0
2, 45569, Note_on_c, 0, 76, 0
2, 45569, Note_on_c, 0, 82, 0
2, 45600, Note_on_c, 0, 81, 78
2, 45600, Note_on_c, 0, 72, 78
2, 45600, Note_on_c, 0, 77, 88
2, 45719, Note_on_c, 0, 77, 0
2, 45719, Note_on_c, 0, 72, 0
2, 45719, Note_on_c, 0, 81, 0
2, 46080, Note_on_c, 0, 79, 62
2, 46109, Note_on_c, 0, 79, 0
2, 46110, Note_on_c, 0, 77, 49
2, 46139, Note_on_c, 0, 77, 0
2, 46140, Note_on_c, 0, 76, 78
2, 46154, Note_on_c, 0, 76, 0
2, 46170, Note_on_c, 0, 77, 70
2, 46199, Note_on_c, 0, 77, 0
2, 46200, Note_on_c, 0, 74, 62
2, 46229, Note_on_c, 0, 74, 0
2, 46230, Note_on_c, 0, 72, 49
2, 46244, Note_on_c, 0, 72, 0
2, 46260, Note_on_c, 0, 71, 78
2, 46274, Note_on_c, 0, 71, 0
2, 46290, Note_on_c, 0, 72, 55
2, 46304, Note_on_c, 0, 72, 0
2, 46320, Note_on_c, 0, 70, 88
2, 46349, Note_on_c, 0, 70, 0
2, 46350, Note_on_c, 0, 69, 70
2, 46379, Note_on_c, 0, 69, 0
2, 46380, Note_on_c, 0, 68, 88
2, 46394, Note_on_c, 0, 68, 0
2, 46410, Note_on_c, 0, 69, 78
2, 46439, Note_on_c, 0, 69, 0
2, 46440, Note_on_c, 0, 67, 70
2, 46469, Note_on_c, 0, 67, 0
2, 46470, Note_on_c, 0, 65, 62
2, 46499, Note_on_c, 0, 65, 0
2, 46500, Note_on_c, 0, 64, 70
2, 46514, Note_on_c, 0, 64, 0
2, 46530, Note_on_c, 0, 65, 78
2, 46544, Note_on_c, 0, 65, 0
2, 46560, Note_on_c, 0, 84, 70
2, 46589, Note_on_c, 0, 84, 0
2, 46590, Note_on_c, 0, 82, 70
2, 46619, Note_on_c, 0, 82, 0
2, 46620, Note_on_c, 0, 81, 62
2, 46649, Note_on_c, 0, 81, 0
2, 46650, Note_on_c, 0, 82, 78
2, 46664, Note_on_c, 0, 82, 0
2, 46680, Note_on_c, 0, 81, 70
2, 46709, Note_on_c, 0, 81, 0
2, 46710, Note_on_c, 0, 79, 62
2, 46739, Note_on_c, 0, 79, 0
2, 46740, Note_on_c, 0, 78, 78
2, 46754, Note_on_c, 0, 78, 0
2, 46770, Note_on_c, 0, 79, 70
2, 46784, Note_on_c, 0, 79, 0
2, 46800, Note_on_c, 0, 77, 62
2, 46829, Note_on_c, 0, 77, 0
2, 46830, Note_on_c, 0, 76, 44
2, 46859, Note_on_c, 0, 76, 0
2, 46860, Note_on_c, 0, 75, 78
2, 46874, Note_on_c, 0, 75, 0
2, 46890, Note_on_c, 0, 76, 55
2, 46904, Note_on_c, 0, 76, 0
2, 46920, Note_on_c, 0, 74, 62
2, 46949, Note_on_c, 0, 74, 0
2, 46950, Note_on_c, 0, 72, 62
2, 46979, Note_on_c, 0, 72, 0
2, 46980, Note_on_c, 0, 71, 70
2, 46994, Note_on_c, 0, 71, 0
2, 47010, Note_on_c, 0, 72, 70
2, 47024, Note_on_c, 0, 72, 0
2, 47040, Note_on_c, 0, 86, 62
2, 47069, Note_on_c, 0, 86, 0
2, 47070, Note_on_c, 0, 84, 62
2, 47099, Note_on_c, 0, 84, 0
2, 47100, Note_on_c, 0, 83, 62
2, 47129, Note_on_c, 0, 83, 0
2, 47130, Note_on_c, 0, 84, 70
2, 47144, Note_on_c, 0, 84, 0
2, 47160, Note_on_c, 0, 82, 70
2, 47189, Note_on_c, 0, 82, 0
2, 47190, Note_on_c, 0, 81, 62
2, 47204, Note_on_c, 0, 81, 0
2, 47220, Note_on_c, 0, 80, 88
2, 47234, Note_on_c, 0, 80, 0
2, 47250, Note_on_c, 0, 81, 62
2, 47264, Note_on_c, 0, 81, 0
2, 47280, Note_on_c, 0, 79, 70
2, 47309, Note_on_c, 0, 79, 0
2, 47310, Note_on_c, 0, 77, 62
2, 47339, Note_on_c, 0, 77, 0
2, 47340, Note_on_c, 0, 76, 70
2, 47354, Note_on_c, 0, 76, 0
2, 47370, Note_on_c, 0, 77, 70
2, 47384, Note_on_c, 0, 77, 0
2, 47400, Note_on_c, 0, 74, 70
2, 47429, Note_on_c, 0, 74, 0
2, 47430, Note_on_c, 0, 72, 55
2, 47459, Note_on_c, 0, 72, 0
2, 47460, Note_on_c, 0, 71, 78
2, 47474, Note_on_c, 0, 71, 0
2, 47490, Note_on_c, 0, 72, 62
2, 47504, Note_on_c, 0, 72, 0
2, 47520, Note_on_c, 0, 76, 78
2, 47549, Note_on_c, 0, 76, 0
2, 47550, Note_on_c, 0, 74, 70
2, 47579, Note_on_c, 0, 74, 0
2, 47580, Note_on_c, 0, 73, 88
2, 47594, Note_on_c, 0, 73, 0
2, 47610, Note_on_c, 0, 74, 70
2, 47624, Note_on_c, 0, 74, 0
2, 47640, Note_on_c, 0, 74, 70
2, 47669, Note_on_c, 0, 74, 0
2, 47670, Note_on_c, 0, 72, 70
2, 47699, Note_on_c, 0, 72, 0
2, 47700, Note_on_c, 0, 71, 70
2, 47714, Note_on_c, 0, 71, 0
2, 47730, Note_on_c, 0, 72, 70
2, 47744, Note_on_c, 0, 72, 0
2, 47760, Note_on_c, 0, 84, 78
2, 47789, Note_on_c, 0, 84, 0
2, 47790, Note_on_c, 0, 82, 62
2, 47819, Note_on_c, 0, 82, 0
2, 47820, Note_on_c, 0, 81, 70
2, 47849, Note_on_c, 0, 81, 0
2, 47850, Note_on_c, 0, 82, 98
2, 47864, Note_on_c, 0, 82, 0
2, 47880, Note_on_c, 0, 82, 62
2, 47909, Note_on_c, 0, 82, 0
2, 47910, Note_on_c, 0, 81, 62
2, 47939, Note_on_c, 0, 81, 0
2, 47940, Note_on_c, 0, 80, 88
2, 47954, Note_on_c, 0, 80, 0
2, 47970, Note_on_c, 0, 81, 62
2, 47984, Note_on_c, 0, 81, 0
2, 48000, Note_on_c, 0, 77, 70
2, 48000, Note_on_c, 0, 81, 70
2, 48000, Note_on_c, 0, 77, 55
2, 48000, Note_on_c, 0, 81, 62
2, 48089, Note_on_c, 0, 81, 0
2, 48089, Note_on_c, 0, 77, 0
2, 48120, Note_on_c, 0, 76, 55
2, 48120, Note_on_c, 0, 79, 62
2, 48224, Note_on_c, 0, 79, 0
2, 48224, Note_on_c, 0, 76, 0
2, 48239, Note_on_c, 0, 81, 0
2, 48239, Note_on_c, 0, 77, 0
2, 48480, Note_on_c, 0, 81, 70
2, 48509, Note_on_c, 0, 81, 0
2, 48510, Note_on_c, 0, 79, 49
2, 48539, Note_on_c, 0, 79, 0
2, 48540, Note_on_c, 0, 78, 78
2, 48554, Note_on_c, 0, 78, 0
2, 48570, Note_on_c, 0, 79, 62
2, 48599, Note_on_c, 0, 79, 0
2, 48600, Note_on_c, 0, 77, 55
2, 48629, Note_on_c, 0, 77, 0
2, 48630, Note_on_c, 0, 76, 62
2, 48659, Note_on_c, 0, 76, 0
2, 48660, Note_on_c, 0, 75, 70
2, 48674, Note_on_c, 0, 75, 0
2, 48690, Note_on_c, 0, 76, 55
2, 48719, Note_on_c, 0, 76, 0
2, 48720, Note_on_c, 0, 74, 70
2, 48749, Note_on_c, 0, 74, 0
2, 48750, Note_on_c, 0, 72, 39
2, 48779, Note_on_c, 0, 72, 0
2, 48780, Note_on_c, 0, 71, 62
2, 48794, Note_on_c, 0, 71, 0
2, 48810, Note_on_c, 0, 72, 55
2, 48839, Note_on_c, 0, 72, 0
2, 48840, Note_on_c, 0, 69, 44
2, 48869, Note_on_c, 0, 69, 0
2, 48870, Note_on_c, 0, 67, 55
2, 48899, Note_on_c, 0, 67, 0
2, 48900, Note_on_c, 0, 66, 70
2, 48914, Note_on_c, 0, 66, 0
2, 48930, Note_on_c, 0, 67, 62
2, 48944, Note_on_c, 0, 67, 0
2, 48960, Note_on_c, 0, 79, 62
2, 48989, Note_on_c, 0, 79, 0
2, 48990, Note_on_c, 0, 77, 55
2, 49019, Note_on_c, 0, 77, 0
2, 49020, Note_on_c, 0, 76, 70
2, 49034, Note_on_c, 0, 76, 0
2, 49050, Note_on_c, 0, 77, 62
2, 49079, Note_on_c, 0, 77, 0
2, 49080, Note_on_c, 0, 76, 55
2, 49109, Note_on_c, 0, 76, 0
2, 49110, Note_on_c, 0, 74, 62
2, 49139, Note_on_c, 0, 74, 0
2, 49140, Note_on_c, 0, 73, 78
2, 49154, Note_on_c, 0, 73, 0
2, 49170, Note_on_c, 0, 74, 55
2, 49184, Note_on_c, 0, 74, 0
2, 49200, Note_on_c, 0, 72, 62
2, 49229, Note_on_c, 0, 72, 0
2, 49230, Note_on_c, 0, 71, 70
2, 49259, Note_on_c, 0, 71, 0
2, 49260, Note_on_c, 0, 70, 70
2, 49274, Note_on_c, 0, 70, 0
2, 49290, Note_on_c, 0, 71, 55
2, 49304, Note_on_c, 0, 71, 0
2, 49320, Note_on_c, 0, 69, 70
2, 49349, Note_on_c, 0, 69, 0
2, 49350, Note_on_c, 0, 67, 55
2, 49379, Note_on_c, 0, 67, 0
2, 49380, Note_on_c, 0, 66, 78
2, 49394, Note_on_c, 0, 66, 0
2, 49410, Note_on_c, 0, 67, 70
2, 49424, Note_on_c, 0, 67, 0
2, 49440, Note_on_c, 0, 86, 70
2, 49469, Note_on_c, 0, 86, 0
2, 49470, Note_on_c, 0, 84, 62
2, 49499, Note_on_c, 0, 84, 0
2, 49500, Note_on_c, 0, 83, 78
2, 49514, Note_on_c, 0, 83, 0
2, 49530, Note_on_c, 0, 84, 62
2, 49559, Note_on_c, 0, 84, 0
2, 49560, Note_on_c, 0, 81, 62
2, 49589, Note_on_c, 0, 81, 0
2, 49590, Note_on_c, 0, 79, 62
2, 49619, Note_on_c, 0, 79, 0
2, 49620, Note_on_c, 0, 78, 70
2, 49634, Note_on_c, 0, 78, 0
2, 49650, Note_on_c, 0, 79, 35
2, 49679, Note_on_c, 0, 79, 0
2, 49680, Note_on_c, 0, 77, 62
2, 49709, Note_on_c, 0, 77, 0
2, 49710, Note_on_c, 0, 76, 44
2, 49739, Note_on_c, 0, 76, 0
2, 49740, Note_on_c, 0, 75, 70
2, 49754, Note_on_c, 0, 75, 0
2, 49770, Note_on_c, 0, 76, 55
2, 49784, Note_on_c, 0, 76, 0
2, 49800, Note_on_c, 0, 74, 62
2, 49829, Note_on_c, 0, 74, 0
2, 49830, Note_on_c, 0, 72, 49
2, 49859, Note_on_c, 0, 72, 0
2, 49860, Note_on_c, 0, 71, 62
2, 49874, Note_on_c, 0, 71, 0
2, 49890, Note_on_c, 0, 72, 49
2, 49904, Note_on_c, 0, 72, 0
2, 49920, Note_on_c, 0, 73, 78
2, 49920, Note_on_c, 0, 76, 62
2, 49979, Note_on_c, 0, 76, 0
2, 49979, Note_on_c, 0, 73, 0
2, 49980, Note_on_c, 0, 76, 62
2, 49980, Note_on_c, 0, 79, 70
2, 50069, Note_on_c, 0, 79, 0
2, 50069, Note_on_c, 0, 76, 0
2, 50100, Note_on_c, 0, 82, 98
2, 50100, Note_on_c, 0, 79, 78
2, 50219, Note_on_c, 0, 79, 0
2, 50219, Note_on_c, 0, 82, 0
2, 50220, Note_on_c, 0, 77, 55
2, 50220, Note_on_c, 0, 81, 62
2, 50339, Note_on_c, 0, 81, 0
2, 50339, Note_on_c, 0, 77, 0
2, 50340, Note_on_c, 0, 79, 55
2, 50340, Note_on_c, 0, 76, 55
2, 50384, Note_on_c, 0, 76, 0
2, 50384, Note_on_c, 0, 79, 0
2, 50460, Note_on_c, 0, 76, 49
2, 50460, Note_on_c, 0, 79, 39
2, 50519, Note_on_c, 0, 79, 0
2, 50519, Note_on_c, 0, 76, 0
2, 50520, Note_on_c, 0, 77, 55
2, 50520, Note_on_c, 0, 74, 49
2, 50564, Note_on_c, 0, 74, 0
2, 50564, Note_on_c, 0, 77, 0
2, 50580, Note_on_c, 0, 77, 70
2, 50580, Note_on_c, 0, 74, 62
2, 50594, Note_on_c, 0, 74, 0
2, 50594, Note_on_c, 0, 77, 0
2, 50700, Note_on_c, 0, 77, 55
2, 50700, Note_on_c, 0, 72, 49
2, 50729, Note_on_c, 0, 72, 0
2, 50729, Note_on_c, 0, 77, 0
2, 50760, Note_on_c, 0, 77, 39
2, 50760, Note_on_c, 0, 72, 44
2, 50804, Note_on_c, 0, 72, 0
2, 50804, Note_on_c, 0, 77, 0
2, 50820, Note_on_c, 0, 72, 49
2, 50820, Note_on_c, 0, 77, 55
2, 50849, Note_on_c, 0, 77, 0
2, 50849, Note_on_c, 0, 72, 0
2, 50880, Note_on_c, 0, 74, 70
2, 50880, Note_on_c, 0, 71, 62
2, 50909, Note_on_c, 0, 71, 0
2, 50909, Note_on_c, 0, 74, 0
2, 50940, Note_on_c, 0, 74, 62
2, 50940, Note_on_c, 0, 77, 62
2, 51044, Note_on_c, 0, 77, 0
2, 51044, Note_on_c, 0, 74, 0
2, 51060, Note_on_c, 0, 81, 39
2, 51060, Note_on_c, 0, 77, 44
2, 51164, Note_on_c, 0, 77, 0
2, 51164, Note_on_c, 0, 81, 0
2, 51180, Note_on_c, 0, 76, 24
2, 51180, Note_on_c, 0, 79, 39
2, 51284, Note_on_c, 0, 79, 0
2, 51284, Note_on_c, 0, 76, 0
2, 51300, Note_on_c, 0, 77, 49
2, 51300, Note_on_c, 0, 74, 39
2, 51359, Note_on_c, 0, 74, 0
2, 51359, Note_on_c, 0, 77, 0
2, 51420, Note_on_c, 0, 74, 49
2, 51420, Note_on_c, 0, 77, 39
2, 51479, Note_on_c, 0, 77, 0
2, 51479, Note_on_c, 0, 74, 0
2, 51480, Note_on_c, 0, 76, 35
2, 51480, Note_on_c, 0, 72, 30
2, 51509, Note_on_c, 0, 76, 0
2, 51524, Note_on_c, 0, 72, 0
2, 51540, Note_on_c, 0, 76, 49
2, 51540, Note_on_c, 0, 72, 49
2, 51554, Note_on_c, 0, 72, 0
2, 51554, Note_on_c, 0, 76, 0
2, 51660, Note_on_c, 0, 72, 44
2, 51719, Note_on_c, 0, 72, 0
2, 51720, Note_on_c, 0, 76, 49
2, 51720, Note_on_c, 0, 64, 44
2, 51749, Note_on_c, 0, 64, 0
2, 51764, Note_on_c, 0, 76, 0
2, 51780, Note_on_c, 0, 67, 62
2, 51780, Note_on_c, 0, 79, 70
2, 51809, Note_on_c, 0, 67, 0
2, 51824, Note_on_c, 0, 79, 0
2, 51840, Note_on_c, 0, 79, 49
2, 51840, Note_on_c, 0, 72, 49
2, 51869, Note_on_c, 0, 79, 0
2, 51870, Note_on_c, 0, 77, 49
2, 51899, Note_on_c, 0, 77, 0
2, 51900, Note_on_c, 0, 76, 30
2, 51929, Note_on_c, 0, 76, 0
2, 51930, Note_on_c, 0, 77, 39
2, 51944, Note_on_c, 0, 77, 0
2, 51960, Note_on_c, 0, 81, 70
2, 51989, Note_on_c, 0, 81, 0
2, 51990, Note_on_c, 0, 79, 44
2, 52019, Note_on_c, 0, 79, 0
2, 52020, Note_on_c, 0, 78, 70
2, 52034, Note_on_c, 0, 78, 0
2, 52050, Note_on_c, 0, 79, 55
2, 52064, Note_on_c, 0, 79, 0
2, 52064, Note_on_c, 0, 72, 0
2, 52080, Note_on_c, 0, 81, 62
2, 52080, Note_on_c, 0, 76, 70
2, 52109, Note_on_c, 0, 76, 0
2, 52110, Note_on_c, 0, 74, 55
2, 52124, Note_on_c, 0, 74, 0
2, 52140, Note_on_c, 0, 73, 70
2, 52154, Note_on_c, 0, 73, 0
2, 52170, Note_on_c, 0, 74, 55
2, 52184, Note_on_c, 0, 74, 0
2, 52200, Note_on_c, 0, 74, 62
2, 52229, Note_on_c, 0, 74, 0
2, 52230, Note_on_c, 0, 72, 55
2, 52259, Note_on_c, 0, 72, 0
2, 52260, Note_on_c, 0, 71, 49
2, 52289, Note_on_c, 0, 71, 0
2, 52289, Note_on_c, 0, 81, 0
2, 52290, Note_on_c, 0, 72, 62
2, 52304, Note_on_c, 0, 72, 0
2, 52320, Note_on_c, 0, 76, 62
2, 52320, Note_on_c, 0, 72, 55
2, 52439, Note_on_c, 0, 72, 0
2, 52439, Note_on_c, 0, 76, 0
2, 52440, Note_on_c, 0, 74, 62
2, 52440, Note_on_c, 0, 71, 49
2, 52544, Note_on_c, 0, 71, 0
2, 52544, Note_on_c, 0, 74, 0
2, 52560, Note_on_c, 0, 79, 70
2, 52589, Note_on_c, 0, 79, 0
2, 52590, Note_on_c, 0, 77, 49
2, 52619, Note_on_c, 0, 77, 0
2, 52620, Note_on_c, 0, 76, 55
2, 52634, Note_on_c, 0, 76, 0
2, 52650, Note_on_c, 0, 77, 44
2, 52664, Note_on_c, 0, 77, 0
2, 52680, Note_on_c, 0, 76, 55
2, 52709, Note_on_c, 0, 76, 0
2, 52710, Note_on_c, 0, 74, 62
2, 52739, Note_on_c, 0, 74, 0
2, 52740, Note_on_c, 0, 73, 70
2, 52754, Note_on_c, 0, 73, 0
2, 52770, Note_on_c, 0, 74, 49
2, 52784, Note_on_c, 0, 74, 0
2, 52800, Note_on_c, 0, 77, 62
2, 52829, Note_on_c, 0, 77, 0
2, 52830, Note_on_c, 0, 76, 55
2, 52859, Note_on_c, 0, 76, 0
2, 52860, Note_on_c, 0, 75, 78
2, 52874, Note_on_c, 0, 75, 0
2, 52890, Note_on_c, 0, 76, 55
2, 52904, Note_on_c, 0, 76, 0
2, 52920, Note_on_c, 0, 74, 49
2, 52949, Note_on_c, 0, 74, 0
2, 52950, Note_on_c, 0, 72, 44
2, 52979, Note_on_c, 0, 72, 0
2, 52980, Note_on_c, 0, 71, 55
2, 52994, Note_on_c, 0, 71, 0
2, 53010, Note_on_c, 0, 72, 55
2, 53024, Note_on_c, 0, 72, 0
2, 53040, Note_on_c, 0, 79, 55
2, 53069, Note_on_c, 0, 79, 0
2, 53070, Note_on_c, 0, 77, 49
2, 53099, Note_on_c, 0, 77, 0
2, 53100, Note_on_c, 0, 76, 49
2, 53114, Note_on_c, 0, 76, 0
2, 53130, Note_on_c, 0, 77, 49
2, 53144, Note_on_c, 0, 77, 0
2, 53160, Note_on_c, 0, 76, 39
2, 53189, Note_on_c, 0, 76, 0
2, 53190, Note_on_c, 0, 74, 55
2, 53219, Note_on_c, 0, 74, 0
2, 53220, Note_on_c, 0, 73, 62
2, 53234, Note_on_c, 0, 73, 0
2, 53250, Note_on_c, 0, 74, 49
2, 53264, Note_on_c, 0, 74, 0
2, 53280, Note_on_c, 0, 77, 62
2, 53309, Note_on_c, 0, 77, 0
2, 53310, Note_on_c, 0, 76, 49
2, 53339, Note_on_c, 0, 76, 0
2, 53340, Note_on_c, 0, 75, 70
2, 53354, Note_on_c, 0, 75, 0
2, 53370, Note_on_c, 0, 76, 49
2, 53384, Note_on_c, 0, 76, 0
2, 53400, Note_on_c, 0, 74, 62
2, 53429, Note_on_c, 0, 74, 0
2, 53430, Note_on_c, 0, 72, 44
2, 53459, Note_on_c, 0, 72, 0
2, 53460, Note_on_c, 0, 71, 49
2, 53474, Note_on_c, 0, 71, 0
2, 53490, Note_on_c, 0, 72, 35
2, 53504, Note_on_c, 0, 72, 0
2, 53520, Note_on_c, 0, 79, 62
2, 53549, Note_on_c, 0, 79, 0
2, 53550, Note_on_c, 0, 77, 49
2, 53579, Note_on_c, 0, 77, 0
2, 53580, Note_on_c, 0, 76, 55
2, 53594, Note_on_c, 0, 76, 0
2, 53610, Note_on_c, 0, 77, 55
2, 53624, Note_on_c, 0, 77, 0
2, 53640, Note_on_c, 0, 76, 49
2, 53669, Note_on_c, 0, 76, 0
2, 53670, Note_on_c, 0, 74, 62
2, 53699, Note_on_c, 0, 74, 0
2, 53700, Note_on_c, 0, 73, 70
2, 53714, Note_on_c, 0, 73, 0
2, 53730, Note_on_c, 0, 74, 70
2, 53744, Note_on_c, 0, 74, 0
2, 53760, Note_on_c, 0, 77, 70
2, 53760, Note_on_c, 0, 81, 55
2, 53789, Note_on_c, 0, 81, 0
2, 53789, Note_on_c, 0, 77, 0
2, 53790, Note_on_c, 0, 79, 39
2, 53790, Note_on_c, 0, 76, 44
2, 53804, Note_on_c, 0, 76, 0
2, 53804, Note_on_c, 0, 79, 0
2, 53820, Note_on_c, 0, 78, 55
2, 53820, Note_on_c, 0, 75, 55
2, 53834, Note_on_c, 0, 75, 0
2, 53834, Note_on_c, 0, 78, 0
2, 53850, Note_on_c, 0, 76, 55
2, 53850, Note_on_c, 0, 79, 55
2, 53864, Note_on_c, 0, 79, 0
2, 53864, Note_on_c, 0, 76, 0
2, 53880, Note_on_c, 0, 76, 62
2, 53880, Note_on_c, 0, 79, 55
2, 53909, Note_on_c, 0, 79, 0
2, 53909, Note_on_c, 0, 76, 0
2, 53910, Note_on_c, 0, 77, 55
2, 53910, Note_on_c, 0, 74, 49
2, 53924, Note_on_c, 0, 74, 0
2, 53924, Note_on_c, 0, 77, 0
2, 53940, Note_on_c, 0, 73, 62
2, 53940, Note_on_c, 0, 76, 49
2, 53954, Note_on_c, 0, 76, 0
2, 53954, Note_on_c, 0, 73, 0
2, 53970, Note_on_c, 0, 77, 44
2, 53970, Note_on_c, 0, 74, 55
2, 53984, Note_on_c, 0, 74, 0
2, 53984, Note_on_c, 0, 77, 0
2, 54000, Note_on_c, 0, 74, 62
2, 54000, Note_on_c, 0, 77, 62
2, 54029, Note_on_c, 0, 77, 0
2, 54029, Note_on_c, 0, 74, 0
2, 54030, Note_on_c, 0, 76, 39
2, 54030, Note_on_c, 0, 72, 49
2, 54044, Note_on_c, 0, 72, 0
2, 54044, Note_on_c, 0, 76, 0
2, 54060, Note_on_c, 0, 75, 70
2, 54060, Note_on_c, 0, 71, 55
2, 54089, Note_on_c, 0, 71, 0
2, 54089, Note_on_c, 0, 75, 0
2, 54090, Note_on_c, 0, 72, 49
2, 54090, Note_on_c, 0, 76, 44
2, 54104, Note_on_c, 0, 76, 0
2, 54104, Note_on_c, 0, 72, 0
2, 54120, Note_on_c, 0, 72, 70
2, 54120, Note_on_c, 0, 76, 70
2, 54149, Note_on_c, 0, 76, 0
2, 54149, Note_on_c, 0, 72, 0
2, 54150, Note_on_c, 0, 74, 62
2, 54150, Note_on_c, 0, 71, 62
2, 54164, Note_on_c, 0, 71, 0
2, 54164, Note_on_c, 0, 74, 0
2, 54180, Note_on_c, 0, 73, 70
2, 54180, Note_on_c, 0, 69, 62
2, 54209, Note_on_c, 0, 69, 0
2, 54209, Note_on_c, 0, 73, 0
2, 54210, Note_on_c, 0, 71, 62
2, 54210, Note_on_c, 0, 74, 70
2, 54224, Note_on_c, 0, 74, 0
2, 54224, Note_on_c, 0, 71, 0
2, 54240, Note_on_c, 0, 72, 70
2, 54254, Note_on_c, 0, 72, 0
2, 54270, Note_on_c, 0, 72, 88
2, 54299, Note_on_c, 0, 72, 0
2, 54300, Note_on_c, 0, 71, 88
2, 54329, Note_on_c, 0, 71, 0
2, 54330, Note_on_c, 0, 72, 78
2, 54359, Note_on_c, 0, 72, 0
2, 54360, Note_on_c, 0, 74, 98
2, 54389, Note_on_c, 0, 74, 0
2, 54390, Note_on_c, 0, 72, 88
2, 54419, Note_on_c, 0, 72, 0
2, 54420, Note_on_c, 0, 71, 88
2, 54449, Note_on_c, 0, 71, 0
2, 54450, Note_on_c, 0, 72, 88
2, 54479, Note_on_c, 0, 72, 0
2, 54480, Note_on_c, 0, 60, 88
2, 54509, Note_on_c, 0, 60, 0
2, 54510, Note_on_c, 0, 72, 88
2, 54539, Note_on_c, 0, 72, 0
2, 54540, Note_on_c, 0, 62, 88
2, 54569, Note_on_c, 0, 62, 0
2, 54570, Note_on_c, 0, 72, 88
2, 54599, Note_on_c, 0, 72, 0
2, 54600, Note_on_c, 0, 64, 98
2, 54629, Note_on_c, 0, 64, 0
2, 54630, Note_on_c, 0, 72, 88
2, 54659, Note_on_c, 0, 72, 0
2, 54660, Note_on_c, 0, 65, 98
2, 54689, Note_on_c, 0, 65, 0
2, 54690, Note_on_c, 0, 72, 78
2, 54719, Note_on_c, 0, 72, 0
2, 54720, Note_on_c, 0, 67, 98
2, 54734, Note_on_c, 0, 67, 0
2, 54750, Note_on_c, 0, 72, 98
2, 54779, Note_on_c, 0, 72, 0
2, 54780, Note_on_c, 0, 71, 88
2, 54809, Note_on_c, 0, 71, 0
2, 54810, Note_on_c, 0, 72, 78
2, 54839, Note_on_c, 0, 72, 0
2, 54840, Note_on_c, 0, 74, 98
2, 54869, Note_on_c, 0, 74, 0
2, 54870, Note_on_c, 0, 72, 70
2, 54899, Note_on_c, 0, 72, 0
2, 54900, Note_on_c, 0, 71, 88
2, 54929, Note_on_c, 0, 71, 0
2, 54930, Note_on_c, 0, 72, 78
2, 54944, Note_on_c, 0, 72, 0
2, 54960, Note_on_c, 0, 64, 98
2, 54989, Note_on_c, 0, 64, 0
2, 54990, Note_on_c, 0, 72, 78
2, 55004, Note_on_c, 0, 72, 0
2, 55020, Note_on_c, 0, 65, 98
2, 55049, Note_on_c, 0, 65, 0
2, 55050, Note_on_c, 0, 72, 78
2, 55079, Note_on_c, 0, 72, 0
2, 55080, Note_on_c, 0, 67, 98
2, 55109, Note_on_c, 0, 67, 0
2, 55110, Note_on_c, 0, 72, 78
2, 55139, Note_on_c, 0, 72, 0
2, 55140, Note_on_c, 0, 69, 88
2, 55169, Note_on_c, 0, 69, 0
2, 55170, Note_on_c, 0, 72, 78
2, 55199, Note_on_c, 0, 72, 0
2, 55200, Note_on_c, 0, 70, 110
2, 55229, Note_on_c, 0, 70, 0
2, 55230, Note_on_c, 0, 72, 78
2, 55259, Note_on_c, 0, 72, 0
2, 55260, Note_on_c, 0, 71, 88
2, 55289, Note_on_c, 0, 71, 0
2, 55290, Note_on_c, 0, 72, 78
2, 55319, Note_on_c, 0, 72, 0
2, 55320, Note_on_c, 0, 74, 98
2, 55349, Note_on_c, 0, 74, 0
2, 55350, Note_on_c, 0, 72, 70
2, 55379, Note_on_c, 0, 72, 0
2, 55380, Note_on_c, 0, 71, 88
2, 55409, Note_on_c, 0, 71, 0
2, 55410, Note_on_c, 0, 72, 78
2, 55439, Note_on_c, 0, 72, 0
2, 55440, Note_on_c, 0, 76, 88
2, 55469, Note_on_c, 0, 76, 0
2, 55470, Note_on_c, 0, 72, 78
2, 55499, Note_on_c, 0, 72, 0
2, 55500, Note_on_c, 0, 77, 98
2, 55529, Note_on_c, 0, 77, 0
2, 55530, Note_on_c, 0, 72, 70
2, 55559, Note_on_c, 0, 72, 0
2, 55560, Note_on_c, 0, 76, 88
2, 55560, Note_on_c, 0, 79, 88
2, 55589, Note_on_c, 0, 79, 0
2, 55589, Note_on_c, 0, 76, 0
2, 55590, Note_on_c, 0, 72, 78
2, 55619, Note_on_c, 0, 72, 0
2, 55620, Note_on_c, 0, 77, 98
2, 55620, Note_on_c, 0, 81, 88
2, 55649, Note_on_c, 0, 81, 0
2, 55649, Note_on_c, 0, 77, 0
2, 55650, Note_on_c, 0, 72, 70
2, 55679, Note_on_c, 0, 72, 0
2, 55680, Note_on_c, 0, 82, 124
2, 55709, Note_on_c, 0, 82, 0
2, 55710, Note_on_c, 0, 79, 78
2, 55739, Note_on_c, 0, 79, 0
2, 55740, Note_on_c, 0, 72, 78
2, 55769, Note_on_c, 0, 72, 0
2, 55770, Note_on_c, 0, 82, 98
2, 55784, Note_on_c, 0, 82, 0
2, 55800, Note_on_c, 0, 81, 78
2, 55829, Note_on_c, 0, 81, 0
2, 55830, Note_on_c, 0, 77, 88
2, 55860, Note_on_c, 0, 72, 78
2, 55874, Note_on_c, 0, 77, 0
2, 55889, Note_on_c, 0, 72, 0
2, 55890, Note_on_c, 0, 81, 88
2, 55919, Note_on_c, 0, 81, 0
2, 55920, Note_on_c, 0, 79, 88
2, 55949, Note_on_c, 0, 79, 0
2, 55950, Note_on_c, 0, 76, 70
2, 55979, Note_on_c, 0, 76, 0
2, 55980, Note_on_c, 0, 79, 78
2, 56009, Note_on_c, 0, 79, 0
2, 56010, Note_on_c, 0, 76, 78
2, 56039, Note_on_c, 0, 76, 0
2, 56040, Note_on_c, 0, 77, 98
2, 56099, Note_on_c, 0, 77, 0
2, 56100, Note_on_c, 0, 71, 78
2, 56100, Note_on_c, 0, 76, 78
2, 56129, Note_on_c, 0, 76, 0
2, 56129, Note_on_c, 0, 71, 0
2, 56130, Note_on_c, 0, 74, 78
2, 56159, Note_on_c, 0, 74, 0
2, 56160, Note_on_c, 0, 72, 88
2, 56174, Note_on_c, 0, 72, 0
2, 56190, Note_on_c, 0, 71, 88
2, 56204, Note_on_c, 0, 71, 0
2, 56220, Note_on_c, 0, 84, 88
2, 56249, Note_on_c, 0, 84, 0
2, 56250, Note_on_c, 0, 83, 70
2, 56279, Note_on_c, 0, 83, 0
2, 56280, Note_on_c, 0, 81, 70
2, 56309, Note_on_c, 0, 81, 0
2, 56310, Note_on_c, 0, 79, 70
2, 56339, Note_on_c, 0, 79, 0
2, 56340, Note_on_c, 0, 77, 62
2, 56369, Note_on_c, 0, 77, 0
2, 56370, Note_on_c, 0, 76, 70
2, 56384, Note_on_c, 0, 76, 0
2, 56400, Note_on_c, 0, 76, 78
2, 56429, Note_on_c, 0, 76, 0
2, 56430, Note_on_c, 0, 74, 62
2, 56444, Note_on_c, 0, 74, 0
2, 56460, Note_on_c, 0, 83, 98
2, 56489, Note_on_c, 0, 83, 0
2, 56490, Note_on_c, 0, 81, 62
2, 56519, Note_on_c, 0, 81, 0
2, 56520, Note_on_c, 0, 80, 88
2, 56549, Note_on_c, 0, 80, 0
2, 56550, Note_on_c, 0, 77, 88
2, 56579, Note_on_c, 0, 77, 0
2, 56580, Note_on_c, 0, 76, 62
2, 56609, Note_on_c, 0, 76, 0
2, 56610, Note_on_c, 0, 74, 70
2, 56624, Note_on_c, 0, 74, 0
2, 56640, Note_on_c, 0, 74, 98
2, 56669, Note_on_c, 0, 74, 0
2, 56670, Note_on_c, 0, 72, 70
2, 56699, Note_on_c, 0, 72, 0
2, 56700, Note_on_c, 0, 81, 88
2, 56729, Note_on_c, 0, 81, 0
2, 56730, Note_on_c, 0, 79, 70
2, 56759, Note_on_c, 0, 79, 0
2, 56760, Note_on_c, 0, 77, 78
2, 56789, Note_on_c, 0, 77, 0
2, 56790, Note_on_c, 0, 76, 78
2, 56819, Note_on_c, 0, 76, 0
2, 56820, Note_on_c, 0, 74, 70
2, 56849, Note_on_c, 0, 74, 0
2, 56850, Note_on_c, 0, 72, 70
2, 56864, Note_on_c, 0, 72, 0
2, 56880, Note_on_c, 0, 72, 78
2, 56909, Note_on_c, 0, 72, 0
2, 56910, Note_on_c, 0, 70, 78
2, 56924, Note_on_c, 0, 70, 0
2, 56940, Note_on_c, 0, 79, 98
2, 56969, Note_on_c, 0, 79, 0
2, 56970, Note_on_c, 0, 77, 70
2, 56999, Note_on_c, 0, 77, 0
2, 57000, Note_on_c, 0, 76, 70
2, 57029, Note_on_c, 0, 76, 0
2, 57030, Note_on_c, 0, 74, 70
2, 57059, Note_on_c, 0, 74, 0
2, 57060, Note_on_c, 0, 72, 62
2, 57089, Note_on_c, 0, 72, 0
2, 57090, Note_on_c, 0, 70, 88
2, 57104, Note_on_c, 0, 70, 0
2, 57120, Note_on_c, 0, 70, 88
2, 57149, Note_on_c, 0, 70, 0
2, 57150, Note_on_c, 0, 69, 78
2, 57179, Note_on_c, 0, 69, 0
2, 57180, Note_on_c, 0, 77, 98
2, 57209, Note_on_c, 0, 77, 0
2, 57210, Note_on_c, 0, 76, 62
2, 57239, Note_on_c, 0, 76, 0
2, 57240, Note_on_c, 0, 74, 78
2, 57269, Note_on_c, 0, 74, 0
2, 57270, Note_on_c, 0, 72, 70
2, 57299, Note_on_c, 0, 72, 0
2, 57300, Note_on_c, 0, 70, 70
2, 57329, Note_on_c, 0, 70, 0
2, 57330, Note_on_c, 0, 69, 70
2, 57359, Note_on_c, 0, 69, 0
2, 57360, Note_on_c, 0, 67, 70
2, 57389, Note_on_c, 0, 67, 0
2, 57390, Note_on_c, 0, 67, 88
2, 57419, Note_on_c, 0, 67, 0
2, 57420, Note_on_c, 0, 76, 88
2, 57449, Note_on_c, 0, 76, 0
2, 57450, Note_on_c, 0, 74, 70
2, 57479, Note_on_c, 0, 74, 0
2, 57480, Note_on_c, 0, 73, 88
2, 57509, Note_on_c, 0, 73, 0
2, 57510, Note_on_c, 0, 70, 98
2, 57539, Note_on_c, 0, 70, 0
2, 57540, Note_on_c, 0, 69, 70
2, 57569, Note_on_c, 0, 69, 0
2, 57570, Note_on_c, 0, 67, 70
2, 57599, Note_on_c, 0, 67, 0
2, 57600, Note_on_c, 0, 65, 88
2, 57629, Note_on_c, 0, 65, 0
2, 57630, Note_on_c, 0, 69, 78
2, 57659, Note_on_c, 0, 69, 0
2, 57660, Note_on_c, 0, 67, 88
2, 57689, Note_on_c, 0, 67, 0
2, 57690, Note_on_c, 0, 70, 88
2, 57719, Note_on_c, 0, 70, 0
2, 57720, Note_on_c, 0, 69, 88
2, 57749, Note_on_c, 0, 69, 0
2, 57750, Note_on_c, 0, 72, 78
2, 57779, Note_on_c, 0, 72, 0
2, 57780, Note_on_c, 0, 71, 88
2, 57809, Note_on_c, 0, 71, 0
2, 57810, Note_on_c, 0, 74, 78
2, 57839, Note_on_c, 0, 74, 0
2, 57840, Note_on_c, 0, 72, 78
2, 57869, Note_on_c, 0, 72, 0
2, 57870, Note_on_c, 0, 76, 78
2, 57899, Note_on_c, 0, 76, 0
2, 57900, Note_on_c, 0, 74, 70
2, 57929, Note_on_c, 0, 74, 0
2, 57930, Note_on_c, 0, 77, 70
2, 57959, Note_on_c, 0, 77, 0
2, 57960, Note_on_c, 0, 76, 70
2, 57989, Note_on_c, 0, 76, 0
2, 57990, Note_on_c, 0, 79, 62
2, 58019, Note_on_c, 0, 79, 0
2, 58020, Note_on_c, 0, 78, 78
2, 58049, Note_on_c, 0, 78, 0
2, 58050, Note_on_c, 0, 84, 78
2, 58064, Note_on_c, 0, 84, 0
2, 58080, Note_on_c, 0, 83, 88
2, 58109, Note_on_c, 0, 83, 0
2, 58110, Note_on_c, 0, 79, 70
2, 58139, Note_on_c, 0, 79, 0
2, 58140, Note_on_c, 0, 74, 70
2, 58169, Note_on_c, 0, 74, 0
2, 58170, Note_on_c, 0, 71, 55
2, 58199, Note_on_c, 0, 71, 0
2, 58200, Note_on_c, 0, 79, 70
2, 58229, Note_on_c, 0, 79, 0
2, 58230, Note_on_c, 0, 67, 70
2, 58259, Note_on_c, 0, 67, 0
2, 58260, Note_on_c, 0, 79, 70
2, 58289, Note_on_c, 0, 79, 0
2, 58290, Note_on_c, 0, 67, 70
2, 58319, Note_on_c, 0, 67, 0
2, 58320, Note_on_c, 0, 79, 78
2, 58350, Note_on_c, 0, 74, 70
2, 58364, Note_on_c, 0, 79, 0
2, 58379, Note_on_c, 0, 74, 0
2, 58380, Note_on_c, 0, 71, 78
2, 58409, Note_on_c, 0, 71, 0
2, 58410, Note_on_c, 0, 67, 78
2, 58439, Note_on_c, 0, 67, 0
2, 58440, Note_on_c, 0, 79, 88
2, 58469, Note_on_c, 0, 79, 0
2, 58470, Note_on_c, 0, 67, 78
2, 58499, Note_on_c, 0, 67, 0
2, 58500, Note_on_c, 0, 79, 78
2, 58529, Note_on_c, 0, 79, 0
2, 58530, Note_on_c, 0, 67, 70
2, 58544, Note_on_c, 0, 67, 0
2, 58560, Note_on_c, 0, 79, 70
2, 58619, Note_on_c, 0, 79, 0
2, 58620, Note_on_c, 0, 84, 88
2, 58649, Note_on_c, 0, 84, 0
2, 58650, Note_on_c, 0, 80, 70
2, 58679, Note_on_c, 0, 80, 0
2, 58680, Note_on_c, 0, 77, 78
2, 58694, Note_on_c, 0, 77, 0
2, 58740, Note_on_c, 0, 77, 70
2, 58754, Note_on_c, 0, 77, 0
2, 58800, Note_on_c, 0, 77, 49
2, 58829, Note_on_c, 0, 77, 0
2, 58860, Note_on_c, 0, 77, 39
2, 58904, Note_on_c, 0, 77, 0
2, 58920, Note_on_c, 0, 77, 55
2, 58949, Note_on_c, 0, 77, 0
2, 58980, Note_on_c, 0, 77, 49
2, 59024, Note_on_c, 0, 77, 0
2, 59040, Note_on_c, 0, 77, 110
2, 59099, Note_on_c, 0, 77, 0
2, 59100, Note_on_c, 0, 82, 98
2, 59129, Note_on_c, 0, 82, 0
2, 59130, Note_on_c, 0, 79, 62
2, 59159, Note_on_c, 0, 79, 0
2, 59160, Note_on_c, 0, 75, 55
2, 59189, Note_on_c, 0, 75, 0
2, 59220, Note_on_c, 0, 75, 55
2, 59249, Note_on_c, 0, 75, 0
2, 59280, Note_on_c, 0, 75, 49
2, 59309, Note_on_c, 0, 75, 0
2, 59340, Note_on_c, 0, 75, 39
2, 59369, Note_on_c, 0, 75, 0
2, 59400, Note_on_c, 0, 75, 62
2, 59429, Note_on_c, 0, 75, 0
2, 59460, Note_on_c, 0, 75, 49
2, 59504, Note_on_c, 0, 75, 0
2, 59520, Note_on_c, 0, 75, 110
2, 59579, Note_on_c, 0, 75, 0
2, 59580, Note_on_c, 0, 80, 62
2, 59609, Note_on_c, 0, 80, 0
2, 59610, Note_on_c, 0, 77, 39
2, 59639, Note_on_c, 0, 77, 0
2, 59640, Note_on_c, 0, 74, 39
2, 59669, Note_on_c, 0, 74, 0
2, 59700, Note_on_c, 0, 74, 44
2, 59744, Note_on_c, 0, 74, 0
2, 59760, Note_on_c, 0, 74, 110
2, 59819, Note_on_c, 0, 74, 0
2, 59820, Note_on_c, 0, 79, 78
2, 59849, Note_on_c, 0, 79, 0
2, 59850, Note_on_c, 0, 75, 62
2, 59879, Note_on_c, 0, 75, 0
2, 59880, Note_on_c, 0, 72, 35
2, 59909, Note_on_c, 0, 72, 0
2, 59940, Note_on_c, 0, 72, 17
2, 59984, Note_on_c, 0, 72, 0
2, 60000, Note_on_c, 0, 72, 98
2, 60059, Note_on_c, 0, 72, 0
2, 60060, Note_on_c, 0, 77, 88
2, 60089, Note_on_c, 0, 77, 0
2, 60090, Note_on_c, 0, 74, 62
2, 60119, Note_on_c, 0, 74, 0
2, 60120, Note_on_c, 0, 70, 62
2, 60149, Note_on_c, 0, 70, 0
2, 60180, Note_on_c, 0, 70, 49
2, 60224, Note_on_c, 0, 70, 0
2, 60240, Note_on_c, 0, 70, 88
2, 60299, Note_on_c, 0, 70, 0
2, 60300, Note_on_c, 0, 75, 55
2, 60314, Note_on_c, 0, 75, 0
2, 60330, Note_on_c, 0, 72, 28
2, 60359, Note_on_c, 0, 72, 0
2, 60360, Note_on_c, 0, 68, 62
2, 60389, Note_on_c, 0, 68, 0
2, 60420, Note_on_c, 0, 68, 49
2, 60449, Note_on_c, 0, 68, 0
2, 60480, Note_on_c, 0, 68, 55
2, 60539, Note_on_c, 0, 68, 0
2, 60540, Note_on_c, 0, 74, 70
2, 60569, Note_on_c, 0, 74, 0
2, 60570, Note_on_c, 0, 70, 62
2, 60599, Note_on_c, 0, 70, 0
2, 60600, Note_on_c, 0, 67, 55
2, 60629, Note_on_c, 0, 67, 0
2, 60660, Note_on_c, 0, 67, 55
2, 60689, Note_on_c, 0, 67, 0
2, 60720, Note_on_c, 0, 67, 88
2, 60779, Note_on_c, 0, 67, 0
2, 60780, Note_on_c, 0, 72, 55
2, 60810, Note_on_c, 0, 68, 70
2, 60824, Note_on_c, 0, 72, 0
2, 60839, Note_on_c, 0, 68, 0
2, 60840, Note_on_c, 0, 66, 62
2, 60869, Note_on_c, 0, 66, 0
2, 60900, Note_on_c, 0, 66, 88
2, 60929, Note_on_c, 0, 66, 0
2, 60960, Note_on_c, 0, 67, 70
2, 61019, Note_on_c, 0, 67, 0
2, 61020, Note_on_c, 0, 55, 55
2, 61049, Note_on_c, 0, 55, 0
2, 61050, Note_on_c, 0, 57, 55
2, 61079, Note_on_c, 0, 57, 0
2, 61080, Note_on_c, 0, 59, 62
2, 61109, Note_on_c, 0, 59, 0
2, 61110, Note_on_c, 0, 60, 55
2, 61139, Note_on_c, 0, 60, 0
2, 61140, Note_on_c, 0, 62, 62
2, 61169, Note_on_c, 0, 62, 0
2, 61170, Note_on_c, 0, 59, 55
2, 61199, Note_on_c, 0, 59, 0
2, 61200, Note_on_c, 0, 55, 70
2, 61229, Note_on_c, 0, 55, 0
2, 61230, Note_on_c, 0, 67, 78
2, 61259, Note_on_c, 0, 67, 0
2, 61260, Note_on_c, 0, 55, 39
2, 61289, Note_on_c, 0, 55, 0
2, 61290, Note_on_c, 0, 67, 78
2, 61319, Note_on_c, 0, 67, 0
2, 61320, Note_on_c, 0, 57, 62
2, 61349, Note_on_c, 0, 57, 0
2, 61350, Note_on_c, 0, 67, 70
2, 61379, Note_on_c, 0, 67, 0
2, 61380, Note_on_c, 0, 59, 78
2, 61409, Note_on_c, 0, 59, 0
2, 61410, Note_on_c, 0, 67, 70
2, 61439, Note_on_c, 0, 67, 0
2, 61440, Note_on_c, 0, 60, 78
2, 61469, Note_on_c, 0, 60, 0
2, 61470, Note_on_c, 0, 67, 70
2, 61499, Note_on_c, 0, 67, 0
2, 61500, Note_on_c, 0, 64, 70
2, 61529, Note_on_c, 0, 64, 0
2, 61530, Note_on_c, 0, 67, 62
2, 61559, Note_on_c, 0, 67, 0
2, 61560, Note_on_c, 0, 62, 62
2, 61589, Note_on_c, 0, 62, 0
2, 61590, Note_on_c, 0, 67, 55
2, 61619, Note_on_c, 0, 67, 0
2, 61620, Note_on_c, 0, 60, 55
2, 61649, Note_on_c, 0, 60, 0
2, 61650, Note_on_c, 0, 67, 70
2, 61679, Note_on_c, 0, 67, 0
2, 61680, Note_on_c, 0, 59, 62
2, 61709, Note_on_c, 0, 59, 0
2, 61710, Note_on_c, 0, 67, 70
2, 61739, Note_on_c, 0, 67, 0
2, 61740, Note_on_c, 0, 55, 70
2, 61769, Note_on_c, 0, 55, 0
2, 61770, Note_on_c, 0, 67, 78
2, 61799, Note_on_c, 0, 67, 0
2, 61800, Note_on_c, 0, 57, 70
2, 61829, Note_on_c, 0, 57, 0
2, 61830, Note_on_c, 0, 67, 70
2, 61859, Note_on_c, 0, 67, 0
2, 61860, Note_on_c, 0, 59, 70
2, 61889, Note_on_c, 0, 59, 0
2, 61890, Note_on_c, 0, 67, 70
2, 61919, Note_on_c, 0, 67, 0
2, 61920, Note_on_c, 0, 60, 70
2, 61949, Note_on_c, 0, 60, 0
2, 61950, Note_on_c, 0, 67, 70
2, 61964, Note_on_c, 0, 67, 0
2, 61980, Note_on_c, 0, 55, 70
2, 61994, Note_on_c, 0, 55, 0
2, 62010, Note_on_c, 0, 67, 70
2, 62024, Note_on_c, 0, 67, 0
2, 62040, Note_on_c, 0, 67, 62
2, 62069, Note_on_c, 0, 67, 0
2, 62070, Note_on_c, 0, 79, 70
2, 62099, Note_on_c, 0, 79, 0
2, 62100, Note_on_c, 0, 67, 44
2, 62129, Note_on_c, 0, 67, 0
2, 62130, Note_on_c, 0, 79, 62
2, 62144, Note_on_c, 0, 79, 0
2, 62160, Note_on_c, 0, 83, 70
2, 62189, Note_on_c, 0, 83, 0
2, 62190, Note_on_c, 0, 81, 62
2, 62219, Note_on_c, 0, 81, 0
2, 62220, Note_on_c, 0, 80, 55
2, 62249, Note_on_c, 0, 80, 0
2, 62250, Note_on_c, 0, 81, 62
2, 62264, Note_on_c, 0, 81, 0
2, 62280, Note_on_c, 0, 81, 62
2, 62309, Note_on_c, 0, 81, 0
2, 62310, Note_on_c, 0, 86, 62
2, 62324, Note_on_c, 0, 86, 0
2, 62340, Note_on_c, 0, 74, 62
2, 62369, Note_on_c, 0, 74, 0
2, 62370, Note_on_c, 0, 86, 62
2, 62384, Note_on_c, 0, 86, 0
2, 62400, Note_on_c, 0, 81, 70
2, 62414, Note_on_c, 0, 81, 0
2, 62430, Note_on_c, 0, 79, 70
2, 62444, Note_on_c, 0, 79, 0
2, 62460, Note_on_c, 0, 78, 78
2, 62489, Note_on_c, 0, 78, 0
2, 62490, Note_on_c, 0, 79, 55
2, 62504, Note_on_c, 0, 79, 0
2, 62520, Note_on_c, 0, 79, 55
2, 62549, Note_on_c, 0, 79, 0
2, 62550, Note_on_c, 0, 84, 70
2, 62564, Note_on_c, 0, 84, 0
2, 62580, Note_on_c, 0, 72, 70
2, 62609, Note_on_c, 0, 72, 0
2, 62610, Note_on_c, 0, 84, 70
2, 62624, Note_on_c, 0, 84, 0
2, 62640, Note_on_c, 0, 79, 70
2, 62669, Note_on_c, 0, 79, 0
2, 62670, Note_on_c, 0, 77, 55
2, 62699, Note_on_c, 0, 77, 0
2, 62700, Note_on_c, 0, 76, 49
2, 62729, Note_on_c, 0, 76, 0
2, 62730, Note_on_c, 0, 77, 55
2, 62744, Note_on_c, 0, 77, 0
2, 62760, Note_on_c, 0, 77, 55
2, 62789, Note_on_c, 0, 77, 0
2, 62790, Note_on_c, 0, 86, 70
2, 62804, Note_on_c, 0, 86, 0
2, 62820, Note_on_c, 0, 74, 70
2, 62849, Note_on_c, 0, 74, 0
2, 62850, Note_on_c, 0, 86, 70
2, 62864, Note_on_c, 0, 86, 0
2, 62880, Note_on_c, 0, 77, 62
2, 62909, Note_on_c, 0, 77, 0
2, 62910, Note_on_c, 0, 76, 49
2, 62939, Note_on_c, 0, 76, 0
2, 62940, Note_on_c, 0, 75, 78
2, 62954, Note_on_c, 0, 75, 0
2, 62970, Note_on_c, 0, 76, 49
2, 62984, Note_on_c, 0, 76, 0
2, 63000, Note_on_c, 0, 76, 55
2, 63029, Note_on_c, 0, 76, 0
2, 63030, Note_on_c, 0, 84, 88
2, 63044, Note_on_c, 0, 84, 0
2, 63060, Note_on_c, 0, 72, 62
2, 63074, Note_on_c, 0, 72, 0
2, 63090, Note_on_c, 0, 84, 78
2, 63119, Note_on_c, 0, 84, 0
2, 63120, Note_on_c, 0, 76, 62
2, 63149, Note_on_c, 0, 76, 0
2, 63150, Note_on_c, 0, 74, 62
2, 63164, Note_on_c, 0, 74, 0
2, 63180, Note_on_c, 0, 73, 88
2, 63194, Note_on_c, 0, 73, 0
2, 63210, Note_on_c, 0, 74, 62
2, 63224, Note_on_c, 0, 74, 0
2, 63240, Note_on_c, 0, 74, 55
2, 63254, Note_on_c, 0, 74, 0
2, 63270, Note_on_c, 0, 83, 78
2, 63284, Note_on_c, 0, 83, 0
2, 63300, Note_on_c, 0, 71, 62
2, 63314, Note_on_c, 0, 71, 0
2, 63330, Note_on_c, 0, 83, 62
2, 63344, Note_on_c, 0, 83, 0
2, 63360, Note_on_c, 0, 84, 78
2, 63389, Note_on_c, 0, 84, 0
2, 63390, Note_on_c, 0, 79, 62
2, 63419, Note_on_c, 0, 79, 0
2, 63420, Note_on_c, 0, 77, 44
2, 63449, Note_on_c, 0, 77, 0
2, 63450, Note_on_c, 0, 76, 44
2, 63479, Note_on_c, 0, 76, 0
2, 63480, Note_on_c, 0, 81, 70
2, 63509, Note_on_c, 0, 81, 0
2, 63510, Note_on_c, 0, 77, 55
2, 63539, Note_on_c, 0, 77, 0
2, 63540, Note_on_c, 0, 76, 55
2, 63569, Note_on_c, 0, 76, 0
2, 63570, Note_on_c, 0, 74, 62
2, 63599, Note_on_c, 0, 74, 0
2, 63600, Note_on_c, 0, 79, 70
2, 63629, Note_on_c, 0, 79, 0
2, 63630, Note_on_c, 0, 76, 39
2, 63659, Note_on_c, 0, 76, 0
2, 63660, Note_on_c, 0, 74, 70
2, 63689, Note_on_c, 0, 74, 0
2, 63690, Note_on_c, 0, 72, 62
2, 63719, Note_on_c, 0, 72, 0
2, 63720, Note_on_c, 0, 77, 88
2, 63749, Note_on_c, 0, 77, 0
2, 63750, Note_on_c, 0, 74, 62
2, 63779, Note_on_c, 0, 74, 0
2, 63780, Note_on_c, 0, 72, 55
2, 63809, Note_on_c, 0, 72, 0
2, 63810, Note_on_c, 0, 71, 62
2, 63839, Note_on_c, 0, 71, 0
2, 63840, Note_on_c, 0, 72, 78
2, 63869, Note_on_c, 0, 72, 0
2, 63870, Note_on_c, 0, 67, 70
2, 63899, Note_on_c, 0, 67, 0
2, 63900, Note_on_c, 0, 69, 70
2, 63929, Note_on_c, 0, 69, 0
2, 63930, Note_on_c, 0, 71, 62
2, 63959, Note_on_c, 0, 71, 0
2, 63960, Note_on_c, 0, 72, 70
2, 63989, Note_on_c, 0, 72, 0
2, 63990, Note_on_c, 0, 74, 70
2, 64019, Note_on_c, 0, 74, 0
2, 64020, Note_on_c, 0, 76, 70
2, 64049, Note_on_c, 0, 76, 0
2, 64050, Note_on_c, 0, 77, 70
2, 64079, Note_on_c, 0, 77, 0
2, 64080, Note_on_c, 0, 79, 70
2, 64109, Note_on_c, 0, 79, 0
2, 64110, Note_on_c, 0, 81, 62
2, 64139, Note_on_c, 0, 81, 0
2, 64140, Note_on_c, 0, 77, 70
2, 64169, Note_on_c, 0, 77, 0
2, 64170, Note_on_c, 0, 79, 49
2, 64199, Note_on_c, 0, 79, 0
2, 64200, Note_on_c, 0, 76, 55
2, 64229, Note_on_c, 0, 76, 0
2, 64230, Note_on_c, 0, 77, 70
2, 64259, Note_on_c, 0, 77, 0
2, 64260, Note_on_c, 0, 74, 78
2, 64289, Note_on_c, 0, 74, 0
2, 64290, Note_on_c, 0, 76, 55
2, 64319, Note_on_c, 0, 76, 0
2, 64320, Note_on_c, 0, 72, 88
2, 64349, Note_on_c, 0, 72, 0
2, 64380, Note_on_c, 0, 72, 78
2, 64499, Note_on_c, 0, 72, 0
2, 64500, Note_on_c, 0, 76, 62
2, 64529, Note_on_c, 0, 76, 0
2, 64530, Note_on_c, 0, 72, 62
2, 64559, Note_on_c, 0, 72, 0
2, 64560, Note_on_c, 0, 77, 78
2, 64589, Note_on_c, 0, 77, 0
2, 64590, Note_on_c, 0, 79, 55
2, 64619, Note_on_c, 0, 79, 0
2, 64620, Note_on_c, 0, 76, 70
2, 64649, Note_on_c, 0, 76, 0
2, 64650, Note_on_c, 0, 77, 55
2, 64679, Note_on_c, 0, 77, 0
2, 64680, Note_on_c, 0, 74, 70
2, 64709, Note_on_c, 0, 74, 0
2, 64710, Note_on_c, 0, 76, 62
2, 64739, Note_on_c, 0, 76, 0
2, 64740, Note_on_c, 0, 72, 70
2, 64769, Note_on_c, 0, 72, 0
2, 64770, Note_on_c, 0, 74, 62
2, 64799, Note_on_c, 0, 74, 0
2, 64800, Note_on_c, 0, 71, 88
2, 64829, Note_on_c, 0, 71, 0
2, 64860, Note_on_c, 0, 71, 88
2, 64979, Note_on_c, 0, 71, 0
2, 64980, Note_on_c, 0, 74, 78
2, 65009, Note_on_c, 0, 74, 0
2, 65010, Note_on_c, 0, 71, 70
2, 65039, Note_on_c, 0, 71, 0
2, 65040, Note_on_c, 0, 76, 78
2, 65069, Note_on_c, 0, 76, 0
2, 65070, Note_on_c, 0, 77, 62
2, 65099, Note_on_c, 0, 77, 0
2, 65100, Note_on_c, 0, 74, 78
2, 65129, Note_on_c, 0, 74, 0
2, 65130, Note_on_c, 0, 76, 55
2, 65159, Note_on_c, 0, 76, 0
2, 65160, Note_on_c, 0, 72, 70
2, 65189, Note_on_c, 0, 72, 0
2, 65190, Note_on_c, 0, 84, 78
2, 65219, Note_on_c, 0, 84, 0
2, 65220, Note_on_c, 0, 83, 62
2, 65249, Note_on_c, 0, 83, 0
2, 65250, Note_on_c, 0, 84, 62
2, 65279, Note_on_c, 0, 84, 0
2, 65280, Note_on_c, 0, 81, 78
2, 65309, Note_on_c, 0, 81, 0
2, 65310, Note_on_c, 0, 83, 62
2, 65339, Note_on_c, 0, 83, 0
2, 65340, Note_on_c, 0, 79, 62
2, 65369, Note_on_c, 0, 79, 0
2, 65370, Note_on_c, 0, 81, 62
2, 65399, Note_on_c, 0, 81, 0
2, 65400, Note_on_c, 0, 77, 78
2, 65429, Note_on_c, 0, 77, 0
2, 65430, Note_on_c, 0, 79, 62
2, 65459, Note_on_c, 0, 79, 0
2, 65460, Note_on_c, 0, 76, 49
2, 65489, Note_on_c, 0, 76, 0
2, 65490, Note_on_c, 0, 77, 62
2, 65519, Note_on_c, 0, 77, 0
2, 65520, Note_on_c, 0, 74, 78
2, 65549, Note_on_c, 0, 74, 0
2, 65550, Note_on_c, 0, 86, 70
2, 65579, Note_on_c, 0, 86, 0
2, 65580, Note_on_c, 0, 84, 78
2, 65609, Note_on_c, 0, 84, 0
2, 65610, Note_on_c, 0, 86, 70
2, 65639, Note_on_c, 0, 86, 0
2, 65640, Note_on_c, 0, 83, 78
2, 65669, Note_on_c, 0, 83, 0
2, 65670, Note_on_c, 0, 84, 62
2, 65699, Note_on_c, 0, 84, 0
2, 65700, Note_on_c, 0, 81, 70
2, 65729, Note_on_c, 0, 81, 0
2, 65730, Note_on_c, 0, 83, 55
2, 65759, Note_on_c, 0, 83, 0
2, 65760, Note_on_c, 0, 79, 70
2, 65789, Note_on_c, 0, 79, 0
2, 65790, Note_on_c, 0, 81, 55
2, 65819, Note_on_c, 0, 81, 0
2, 65820, Note_on_c, 0, 77, 78
2, 65849, Note_on_c, 0, 77, 0
2, 65850, Note_on_c, 0, 79, 70
2, 65879, Note_on_c, 0, 79, 0
2, 65880, Note_on_c, 0, 76, 70
2, 65909, Note_on_c, 0, 76, 0
2, 65910, Note_on_c, 0, 77, 70
2, 65939, Note_on_c, 0, 77, 0
2, 65940, Note_on_c, 0, 74, 78
2, 65969, Note_on_c, 0, 74, 0
2, 65970, Note_on_c, 0, 76, 55
2, 65999, Note_on_c, 0, 76, 0
2, 66000, Note_on_c, 0, 72, 78
2, 66029, Note_on_c, 0, 72, 0
2, 66030, Note_on_c, 0, 84, 62
2, 66059, Note_on_c, 0, 84, 0
2, 66060, Note_on_c, 0, 83, 78
2, 66089, Note_on_c, 0, 83, 0
2, 66090, Note_on_c, 0, 84, 70
2, 66119, Note_on_c, 0, 84, 0
2, 66120, Note_on_c, 0, 81, 70
2, 66149, Note_on_c, 0, 81, 0
2, 66150, Note_on_c, 0, 83, 62
2, 66179, Note_on_c, 0, 83, 0
2, 66180, Note_on_c, 0, 79, 62
2, 66209, Note_on_c, 0, 79, 0
2, 66210, Note_on_c, 0, 81, 62
2, 66239, Note_on_c, 0, 81, 0
2, 66240, Note_on_c, 0, 77, 70
2, 66269, Note_on_c, 0, 77, 0
2, 66270, Note_on_c, 0, 79, 62
2, 66299, Note_on_c, 0, 79, 0
2, 66300, Note_on_c, 0, 76, 55
2, 66329, Note_on_c, 0, 76, 0
2, 66330, Note_on_c, 0, 77, 70
2, 66359, Note_on_c, 0, 77, 0
2, 66360, Note_on_c, 0, 74, 78
2, 66389, Note_on_c, 0, 74, 0
2, 66390, Note_on_c, 0, 76, 55
2, 66419, Note_on_c, 0, 76, 0
2, 66420, Note_on_c, 0, 72, 55
2, 66449, Note_on_c, 0, 72, 0
2, 66450, Note_on_c, 0, 74, 70
2, 66479, Note_on_c, 0, 74, 0
2, 66480, Note_on_c, 0, 71, 78
2, 66509, Note_on_c, 0, 71, 0
2, 66510, Note_on_c, 0, 72, 55
2, 66539, Note_on_c, 0, 72, 0
2, 66540, Note_on_c, 0, 74, 62
2, 66569, Note_on_c, 0, 74, 0
2, 66570, Note_on_c, 0, 76, 62
2, 66599, Note_on_c, 0, 76, 0
2, 66600, Note_on_c, 0, 77, 70
2, 66629, Note_on_c, 0, 77, 0
2, 66630, Note_on_c, 0, 79, 62
2, 66659, Note_on_c, 0, 79, 0
2, 66660, Note_on_c, 0, 81, 62
2, 66689, Note_on_c, 0, 81, 0
2, 66690, Note_on_c, 0, 83, 70
2, 66704, Note_on_c, 0, 83, 0
2, 66720, Note_on_c, 0, 84, 62
2, 66749, Note_on_c, 0, 84, 0
2, 66750, Note_on_c, 0, 79, 55
2, 66780, Note_on_c, 0, 77, 70
2, 66794, Note_on_c, 0, 79, 0
2, 66809, Note_on_c, 0, 77, 0
2, 66810, Note_on_c, 0, 76, 55
2, 66839, Note_on_c, 0, 76, 0
2, 66840, Note_on_c, 0, 81, 78
2, 66869, Note_on_c, 0, 81, 0
2, 66870, Note_on_c, 0, 77, 70
2, 66899, Note_on_c, 0, 77, 0
2, 66900, Note_on_c, 0, 76, 55
2, 66929, Note_on_c, 0, 76, 0
2, 66930, Note_on_c, 0, 74, 70
2, 66959, Note_on_c, 0, 74, 0
2, 66960, Note_on_c, 0, 79, 70
2, 66989, Note_on_c, 0, 79, 0
2, 66990, Note_on_c, 0, 76, 55
2, 67019, Note_on_c, 0, 76, 0
2, 67020, Note_on_c, 0, 74, 70
2, 67049, Note_on_c, 0, 74, 0
2, 67050, Note_on_c, 0, 72, 70
2, 67079, Note_on_c, 0, 72, 0
2, 67080, Note_on_c, 0, 77, 78
2, 67109, Note_on_c, 0, 77, 0
2, 67110, Note_on_c, 0, 74, 70
2, 67139, Note_on_c, 0, 74, 0
2, 67140, Note_on_c, 0, 72, 62
2, 67169, Note_on_c, 0, 72, 0
2, 67170, Note_on_c, 0, 71, 70
2, 67199, Note_on_c, 0, 71, 0
2, 67200, Note_on_c, 0, 72, 78
2, 67229, Note_on_c, 0, 72, 0
2, 67260, Note_on_c, 0, 72, 78
2, 67289, Note_on_c, 0, 72, 0
2, 67290, Note_on_c, 0, 71, 70
2, 67319, Note_on_c, 0, 71, 0
2, 67320, Note_on_c, 0, 69, 62
2, 67349, Note_on_c, 0, 69, 0
2, 67350, Note_on_c, 0, 71, 49
2, 67379, Note_on_c, 0, 71, 0
2, 67380, Note_on_c, 0, 67, 62
2, 67409, Note_on_c, 0, 67, 0
2, 67410, Note_on_c, 0, 69, 44
2, 67439, Note_on_c, 0, 69, 0
2, 67440, Note_on_c, 0, 65, 78
2, 67469, Note_on_c, 0, 65, 0
2, 67470, Note_on_c, 0, 67, 62
2, 67499, Note_on_c, 0, 67, 0
2, 67500, Note_on_c, 0, 64, 70
2, 67529, Note_on_c, 0, 64, 0
2, 67530, Note_on_c, 0, 65, 62
2, 67559, Note_on_c, 0, 65, 0
2, 67560, Note_on_c, 0, 62, 78
2, 67589, Note_on_c, 0, 62, 0
2, 67590, Note_on_c, 0, 64, 49
2, 67619, Note_on_c, 0, 64, 0
2, 67620, Note_on_c, 0, 60, 62
2, 67649, Note_on_c, 0, 60, 0
2, 67650, Note_on_c, 0, 62, 70
2, 67679, Note_on_c, 0, 62, 0
2, 67680, Note_on_c, 0, 59, 88
2, 67694, Note_on_c, 0, 59, 0
2, 67740, Note_on_c, 0, 86, 98
2, 67740, Note_on_c, 0, 74, 98
2, 67740, Note_on_c, 0, 77, 88
2, 67784, Note_on_c, 0, 77, 0
2, 67784, Note_on_c, 0, 74, 0
2, 67784, Note_on_c, 0, 86, 0
2, 67860, Note_on_c, 0, 72, 98
2, 67860, Note_on_c, 0, 76, 98
2, 67860, Note_on_c, 0, 84, 98
2, 67904, Note_on_c, 0, 84, 0
2, 67904, Note_on_c, 0, 76, 0
2, 67904, Note_on_c, 0, 72, 0
2, 67980, Note_on_c, 0, 74, 98
2, 67980, Note_on_c, 0, 84, 88
2, 67980, Note_on_c, 0, 81, 88
2, 68024, Note_on_c, 0, 81, 0
2, 68024, Note_on_c, 0, 84, 0
2, 68024, Note_on_c, 0, 74, 0
2, 68100, Note_on_c, 0, 74, 88
2, 68100, Note_on_c, 0, 83, 88
2, 68100, Note_on_c, 0, 79, 78
2, 68114, Note_on_c, 0, 83, 0
2, 68114, Note_on_c, 0, 74, 0
2, 68129, Note_on_c, 0, 79, 0
2, 68160, Note_on_c, 0, 76, 88
2, 68160, Note_on_c, 0, 84, 88
2, 68160, Note_on_c, 0, 79, 88
2, 68204, Note_on_c, 0, 79, 0
2, 68204, Note_on_c, 0, 84, 0
2, 68204, Note_on_c, 0, 76, 0
2, 68220, Note_on_c, 0, 72, 55
2, 68249, Note_on_c, 0, 72, 0
2, 68250, Note_on_c, 0, 71, 49
2, 68279, Note_on_c, 0, 71, 0
2, 68280, Note_on_c, 0, 69, 55
2, 68309, Note_on_c, 0, 69, 0
2, 68310, Note_on_c, 0, 71, 49
2, 68339, Note_on_c, 0, 71, 0
2, 68340, Note_on_c, 0, 67, 62
2, 68369, Note_on_c, 0, 67, 0
2, 68370, Note_on_c, 0, 69, 49
2, 68399, Note_on_c, 0, 69, 0
2, 68400, Note_on_c, 0, 65, 88
2, 68429, Note_on_c, 0, 65, 0
2, 68430, Note_on_c, 0, 67, 62
2, 68459, Note_on_c, 0, 67, 0
2, 68460, Note_on_c, 0, 64, 78
2, 68489, Note_on_c, 0, 64, 0
2, 68490, Note_on_c, 0, 65, 88
2, 68519, Note_on_c, 0, 65, 0
2, 68520, Note_on_c, 0, 62, 88
2, 68549, Note_on_c, 0, 62, 0
2, 68550, Note_on_c, 0, 64, 78
2, 68579, Note_on_c, 0, 64, 0
2, 68580, Note_on_c, 0, 60, 70
2, 68609, Note_on_c, 0, 60, 0
2, 68610, Note_on_c, 0, 62, 78
2, 68639, Note_on_c, 0, 62, 0
2, 68640, Note_on_c, 0, 59, 88
2, 68654, Note_on_c, 0, 59, 0
2, 68700, Note_on_c, 0, 74, 98
2, 68700, Note_on_c, 0, 86, 110
2, 68700, Note_on_c, 0, 77, 98
2, 68774, Note_on_c, 0, 77, 0
2, 68774, Note_on_c, 0, 86, 0
2, 68774, Note_on_c, 0, 74, 0
2, 68820, Note_on_c, 0, 84, 98
2, 68820, Note_on_c, 0, 72, 98
2, 68820, Note_on_c, 0, 76, 98
2, 68879, Note_on_c, 0, 76, 0
2, 68879, Note_on_c, 0, 72, 0
2, 68879, Note_on_c, 0, 84, 0
2, 68940, Note_on_c, 0, 74, 98
2, 68940, Note_on_c, 0, 84, 88
2, 68940, Note_on_c, 0, 81, 88
2, 68999, Note_on_c, 0, 81, 0
2, 68999, Note_on_c, 0, 84, 0
2, 68999, Note_on_c, 0, 74, 0
2, 69060, Note_on_c, 0, 74, 88
2, 69060, Note_on_c, 0, 83, 88
2, 69060, Note_on_c, 0, 79, 78
2, 69089, Note_on_c, 0, 79, 0
2, 69089, Note_on_c, 0, 83, 0
2, 69089, Note_on_c, 0, 74, 0
2, 69120, Note_on_c, 0, 84, 88
2, 69120, Note_on_c, 0, 76, 98
2, 69134, Note_on_c, 0, 76, 0
2, 69134, Note_on_c, 0, 84, 0
2, 69150, Note_on_c, 0, 72, 55
2, 69179, Note_on_c, 0, 72, 0
2, 69180, Note_on_c, 0, 71, 62
2, 69209, Note_on_c, 0, 71, 0
2, 69210, Note_on_c, 0, 72, 62
2, 69239, Note_on_c, 0, 72, 0
2, 69240, Note_on_c, 0, 74, 62
2, 69269, Note_on_c, 0, 74, 0
2, 69270, Note_on_c, 0, 72, 62
2, 69299, Note_on_c, 0, 72, 0
2, 69300, Note_on_c, 0, 71, 62
2, 69329, Note_on_c, 0, 71, 0
2, 69330, Note_on_c, 0, 72, 70
2, 69344, Note_on_c, 0, 72, 0
2, 69360, Note_on_c, 0, 60, 98
2, 69389, Note_on_c, 0, 60, 0
2, 69390, Note_on_c, 0, 72, 88
2, 69419, Note_on_c, 0, 72, 0
2, 69420, Note_on_c, 0, 62, 98
2, 69449, Note_on_c, 0, 62, 0
2, 69450, Note_on_c, 0, 72, 78
2, 69479, Note_on_c, 0, 72, 0
2, 69480, Note_on_c, 0, 64, 88
2, 69509, Note_on_c, 0, 64, 0
2, 69510, Note_on_c, 0, 72, 78
2, 69539, Note_on_c, 0, 72, 0
2, 69540, Note_on_c, 0, 65, 98
2, 69569, Note_on_c, 0, 65, 0
2, 69570, Note_on_c, 0, 72, 70
2, 69599, Note_on_c, 0, 72, 0
2, 69600, Note_on_c, 0, 67, 110
2, 69614, Note_on_c, 0, 67, 0
2, 69630, Note_on_c, 0, 72, 88
2, 69659, Note_on_c, 0, 72, 0
2, 69660, Note_on_c, 0, 71, 70
2, 69689, Note_on_c, 0, 71, 0
2, 69690, Note_on_c, 0, 72, 70
2, 69719, Note_on_c, 0, 72, 0
2, 69720, Note_on_c, 0, 74, 78
2, 69749, Note_on_c, 0, 74, 0
2, 69750, Note_on_c, 0, 72, 62
2, 69779, Note_on_c, 0, 72, 0
2, 69780, Note_on_c, 0, 71, 62
2, 69809, Note_on_c, 0, 71, 0
2, 69810, Note_on_c, 0, 72, 70
2, 69839, Note_on_c, 0, 72, 0
2, 69840, Note_on_c, 0, 64, 88
2, 69869, Note_on_c, 0, 64, 0
2, 69870, Note_on_c, 0, 72, 88
2, 69899, Note_on_c, 0, 72, 0
2, 69900, Note_on_c, 0, 65, 98
2, 69929, Note_on_c, 0, 65, 0
2, 69930, Note_on_c, 0, 72, 78
2, 69959, Note_on_c, 0, 72, 0
2, 69960, Note_on_c, 0, 67, 98
2, 69989, Note_on_c, 0, 67, 0
2, 69990, Note_on_c, 0, 72, 78
2, 70019, Note_on_c, 0, 72, 0
2, 70020, Note_on_c, 0, 69, 88
2, 70049, Note_on_c, 0, 69, 0
2, 70050, Note_on_c, 0, 72, 78
2, 70064, Note_on_c, 0, 72, 0
2, 70080, Note_on_c, 0, 70, 110
2, 70094, Note_on_c, 0, 70, 0
2, 70110, Note_on_c, 0, 72, 70
2, 70139, Note_on_c, 0, 72, 0
2, 70140, Note_on_c, 0, 71, 70
2, 70169, Note_on_c, 0, 71, 0
2, 70170, Note_on_c, 0, 72, 70
2, 70199, Note_on_c, 0, 72, 0
2, 70200, Note_on_c, 0, 74, 88
2, 70229, Note_on_c, 0, 74, 0
2, 70230, Note_on_c, 0, 72, 62
2, 70259, Note_on_c, 0, 72, 0
2, 70260, Note_on_c, 0, 71, 70
2, 70289, Note_on_c, 0, 71, 0
2, 70290, Note_on_c, 0, 72, 70
2, 70319, Note_on_c, 0, 72, 0
2, 70320, Note_on_c, 0, 76, 78
2, 70349, Note_on_c, 0, 76, 0
2, 70350, Note_on_c, 0, 72, 49
2, 70379, Note_on_c, 0, 72, 0
2, 70380, Note_on_c, 0, 77, 70
2, 70409, Note_on_c, 0, 77, 0
2, 70410, Note_on_c, 0, 72, 62
2, 70439, Note_on_c, 0, 72, 0
2, 70440, Note_on_c, 0, 79, 88
2, 70440, Note_on_c, 0, 76, 88
2, 70469, Note_on_c, 0, 76, 0
2, 70469, Note_on_c, 0, 79, 0
2, 70470, Note_on_c, 0, 72, 62
2, 70499, Note_on_c, 0, 72, 0
2, 70500, Note_on_c, 0, 77, 88
2, 70500, Note_on_c, 0, 81, 78
2, 70529, Note_on_c, 0, 81, 0
2, 70529, Note_on_c, 0, 77, 0
2, 70530, Note_on_c, 0, 72, 62
2, 70544, Note_on_c, 0, 72, 0
2, 70560, Note_on_c, 0, 82, 110
2, 70560, Note_on_c, 0, 79, 88
2, 70560, Note_on_c, 0, 72, 98
2, 70574, Note_on_c, 0, 79, 0
2, 70574, Note_on_c, 0, 82, 0
2, 70589, Note_on_c, 0, 72, 0
2, 70680, Note_on_c, 0, 77, 98
2, 70680, Note_on_c, 0, 72, 98
2, 70680, Note_on_c, 0, 81, 88
2, 70694, Note_on_c, 0, 72, 0
2, 70694, Note_on_c, 0, 77, 0
2, 70709, Note_on_c, 0, 81, 0
2, 70800, Note_on_c, 0, 79, 88
2, 70800, Note_on_c, 0, 67, 98
2, 70800, Note_on_c, 0, 76, 78
2, 70829, Note_on_c, 0, 76, 0
2, 70829, Note_on_c, 0, 79, 0
2, 70860, Note_on_c, 0, 72, 78
2, 70860, Note_on_c, 0, 76, 70
2, 70889, Note_on_c, 0, 76, 0
2, 70889, Note_on_c, 0, 72, 0
2, 70889, Note_on_c, 0, 67, 0
2, 70920, Note_on_c, 0, 77, 88
2, 70920, Note_on_c, 0, 67, 88
2, 70920, Note_on_c, 0, 74, 98
2, 70949, Note_on_c, 0, 74, 0
2, 70964, Note_on_c, 0, 77, 0
2, 70980, Note_on_c, 0, 74, 70
2, 70980, Note_on_c, 0, 71, 62
2, 70994, Note_on_c, 0, 71, 0
2, 71009, Note_on_c, 0, 74, 0
2, 71009, Note_on_c, 0, 67, 0
2, 71040, Note_on_c, 0, 64, 98
2, 71040, Note_on_c, 0, 72, 98
2, 71040, Note_on_c, 0, 67, 98
2, 71144, Note_on_c, 0, 67, 0
2, 71144, Note_on_c, 0, 72, 0
2, 71144, Note_on_c, 0, 64, 0
2, 71160, Note_on_c, 0, 60, 88
2, 71160, Note_on_c, 0, 72, 88
2, 71234, Note_on_c, 0, 72, 0
2, 71234, Note_on_c, 0, 60, 0
2, 71250, Note_on_c, 0, 60, 70
2, 71250, Note_on_c, 0, 72, 70
2, 71264, Note_on_c, 0, 72, 0
2, 71264, Note_on_c, 0, 60, 0
2, 71280, Note_on_c, 0, 73, 30
2, 71280, Note_on_c, 0, 69, 98
2, 71280, Note_on_c, 0, 72, 98
2, 71280, Note_on_c, 0, 74, 98
2, 71294, Note_on_c, 0, 73, 0
2, 71384, Note_on_c, 0, 69, 0
2, 71384, Note_on_c, 0, 72, 0
2, 71384, Note_on_c, 0, 74, 0
2, 71400, Note_on_c, 0, 71, 98
2, 71400, Note_on_c, 0, 67, 98
2, 71400, Note_on_c, 0, 74, 88
2, 71459, Note_on_c, 0, 74, 0
2, 71459, Note_on_c, 0, 67, 0
2, 71459, Note_on_c, 0, 71, 0
2, 71490, Note_on_c, 0, 67, 78
2, 71490, Note_on_c, 0, 74, 88
2, 71490, Note_on_c, 0, 71, 78
2, 71504, Note_on_c, 0, 71, 0
2, 71504, Note_on_c, 0, 74, 0
2, 71504, Note_on_c, 0, 67, 0
2, 71520, Note_on_c, 0, 67, 98
2, 71520, Note_on_c, 0, 79, 98
2, 71520, Note_on_c, 0, 72, 98
2, 71609, Note_on_c, 0, 72, 0
2, 71609, Note_on_c, 0, 79, 0
2, 71609, Note_on_c, 0, 67, 0
2, 71640, Note_on_c, 0, 84, 88
2, 71640, Note_on_c, 0, 72, 78
2, 71714, Note_on_c, 0, 72, 0
2, 71714, Note_on_c, 0, 84, 0
2, 71730, Note_on_c, 0, 72, 78
2, 71730, Note_on_c, 0, 84, 70
2, 71744, Note_on_c, 0, 84, 0
2, 71744, Note_on_c, 0, 72, 0
2, 71760, Note_on_c, 0, 74, 98
2, 71760, Note_on_c, 0, 81, 88
2, 71760, Note_on_c, 0, 84, 98
2, 71864, Note_on_c, 0, 84, 0
2, 71864, Note_on_c, 0, 81, 0
2, 71864, Note_on_c, 0, 74, 0
2, 71880, Note_on_c, 0, 83, 98
2, 71880, Note_on_c, 0, 74, 98
2, 71880, Note_on_c, 0, 79, 98
2, 71954, Note_on_c, 0, 79, 0
2, 71954, Note_on_c, 0, 74, 0
2, 71954, Note_on_c, 0, 83, 0
2, 71970, Note_on_c, 0, 74, 88
2, 71970, Note_on_c, 0, 83, 88
2, 71970, Note_on_c, 0, 77, 78
2, 71984, Note_on_c, 0, 77, 0
2, 71984, Note_on_c, 0, 83, 0
2, 71984, Note_on_c, 0, 74, 0
2, 72000, Note_on_c, 0, 72, 98
2, 72000, Note_on_c, 0, 84, 98
2, 72000, Note_on_c, 0, 76, 88
2, 72089, Note_on_c, 0, 76, 0
2, 72089, Note_on_c, 0, 84, 0
2, 72089, Note_on_c, 0, 72, 0
2, 72120, Note_on_c, 0, 60, 98
2, 72194, Note_on_c, 0, 60, 0
2, 72210, Note_on_c, 0, 60, 88
2, 72224, Note_on_c, 0, 60, 0
2, 72240, Note_on_c, 0, 60, 78
2, 72299, Note_on_c, 0, 60, 0
2, 72299, End_track
3, 0, Start_track
3, 0, MIDI_port, 0
3, 0, Title_t, "accomp"
3, 0, Note_on_c, 0, 48, 98
3, 0, Note_on_c, 0, 36, 98
3, 74, Note_on_c, 0, 36, 0
3, 89, Note_on_c, 0, 48, 0
3, 120, Note_on_c, 0, 60, 98
3, 120, Note_on_c, 0, 48, 110
3, 194, Note_on_c, 0, 48, 0
3, 194, Note_on_c, 0, 60, 0
3, 210, Note_on_c, 0, 48, 78
3, 210, Note_on_c, 0, 60, 78
3, 224, Note_on_c, 0, 60, 0
3, 224, Note_on_c, 0, 48, 0
3, 240, Note_on_c, 0, 48, 88
3, 240, Note_on_c, 0, 36, 98
3, 269, Note_on_c, 0, 36, 0
3, 269, Note_on_c, 0, 48, 0
3, 300, Note_on_c, 0, 50, 98
3, 300, Note_on_c, 0, 38, 98
3, 329, Note_on_c, 0, 38, 0
3, 344, Note_on_c, 0, 50, 0
3, 360, Note_on_c, 0, 52, 88
3, 360, Note_on_c, 0, 40, 98
3, 389, Note_on_c, 0, 40, 0
3, 404, Note_on_c, 0, 52, 0
3, 420, Note_on_c, 0, 53, 98
3, 420, Note_on_c, 0, 41, 98
3, 449, Note_on_c, 0, 53, 0
3, 464, Note_on_c, 0, 41, 0
3, 480, Note_on_c, 0, 43, 88
3, 480, Note_on_c, 0, 55, 88
3, 584, Note_on_c, 0, 55, 0
3, 584, Note_on_c, 0, 43, 0
3, 600, Note_on_c, 0, 48, 98
3, 600, Note_on_c, 0, 60, 88
3, 659, Note_on_c, 0, 60, 0
3, 674, Note_on_c, 0, 48, 0
3, 690, Note_on_c, 0, 48, 78
3, 690, Note_on_c, 0, 60, 88
3, 704, Note_on_c, 0, 60, 0
3, 704, Note_on_c, 0, 48, 0
3, 720, Note_on_c, 0, 52, 98
3, 720, Note_on_c, 0, 40, 88
3, 749, Note_on_c, 0, 40, 0
3, 764, Note_on_c, 0, 52, 0
3, 780, Note_on_c, 0, 41, 88
3, 780, Note_on_c, 0, 53, 98
3, 809, Note_on_c, 0, 53, 0
3, 809, Note_on_c, 0, 41, 0
3, 840, Note_on_c, 0, 43, 88
3, 840, Note_on_c, 0, 55, 88
3, 869, Note_on_c, 0, 55, 0
3, 884, Note_on_c, 0, 43, 0
3, 900, Note_on_c, 0, 57, 98
3, 900, Note_on_c, 0, 45, 88
3, 929, Note_on_c, 0, 45, 0
3, 929, Note_on_c, 0, 57, 0
3, 960, Note_on_c, 0, 46, 98
3, 960, Note_on_c, 0, 58, 110
3, 1064, Note_on_c, 0, 58, 0
3, 1064, Note_on_c, 0, 46, 0
3, 1080, Note_on_c, 0, 48, 110
3, 1080, Note_on_c, 0, 60, 98
3, 1139, Note_on_c, 0, 60, 0
3, 1154, Note_on_c, 0, 48, 0
3, 1170, Note_on_c, 0, 48, 78
3, 1170, Note_on_c, 0, 60, 70
3, 1184, Note_on_c, 0, 48, 0
3, 1199, Note_on_c, 0, 60, 0
3, 1200, Note_on_c, 0, 58, 98
3, 1200, Note_on_c, 0, 46, 98
3, 1244, Note_on_c, 0, 46, 0
3, 1244, Note_on_c, 0, 58, 0
3, 1260, Note_on_c, 0, 45, 78
3, 1260, Note_on_c, 0, 57, 98
3, 1289, Note_on_c, 0, 45, 0
3, 1304, Note_on_c, 0, 57, 0
3, 1320, Note_on_c, 0, 43, 70
3, 1320, Note_on_c, 0, 55, 88
3, 1364, Note_on_c, 0, 55, 0
3, 1364, Note_on_c, 0, 43, 0
3, 1380, Note_on_c, 0, 41, 78
3, 1380, Note_on_c, 0, 53, 88
3, 1409, Note_on_c, 0, 41, 0
3, 1424, Note_on_c, 0, 53, 0
3, 1440, Note_on_c, 0, 52, 78
3, 1440, Note_on_c, 0, 40, 78
3, 1544, Note_on_c, 0, 40, 0
3, 1559, Note_on_c, 0, 52, 0
3, 1560, Note_on_c, 0, 53, 88
3, 1560, Note_on_c, 0, 41, 78
3, 1649, Note_on_c, 0, 41, 0
3, 1649, Note_on_c, 0, 53, 0
3, 1680, Note_on_c, 0, 52, 88
3, 1680, Note_on_c, 0, 40, 78
3, 1724, Note_on_c, 0, 40, 0
3, 1724, Note_on_c, 0, 52, 0
3, 1740, Note_on_c, 0, 48, 70
3, 1740, Note_on_c, 0, 60, 88
3, 1784, Note_on_c, 0, 60, 0
3, 1799, Note_on_c, 0, 48, 0
3, 1800, Note_on_c, 0, 50, 70
3, 1800, Note_on_c, 0, 62, 98
3, 1844, Note_on_c, 0, 62, 0
3, 1844, Note_on_c, 0, 50, 0
3, 1860, Note_on_c, 0, 55, 88
3, 1860, Note_on_c, 0, 43, 78
3, 1889, Note_on_c, 0, 43, 0
3, 1889, Note_on_c, 0, 55, 0
3, 1920, Note_on_c, 0, 48, 98
3, 1920, Note_on_c, 0, 36, 98
3, 2039, Note_on_c, 0, 36, 0
3, 2039, Note_on_c, 0, 48, 0
3, 2160, Note_on_c, 0, 36, 98
3, 2160, Note_on_c, 0, 48, 88
3, 2189, Note_on_c, 0, 48, 0
3, 2189, Note_on_c, 0, 36, 0
3, 2220, Note_on_c, 0, 38, 88
3, 2220, Note_on_c, 0, 50, 98
3, 2264, Note_on_c, 0, 50, 0
3, 2264, Note_on_c, 0, 38, 0
3, 2280, Note_on_c, 0, 40, 88
3, 2280, Note_on_c, 0, 52, 98
3, 2309, Note_on_c, 0, 52, 0
3, 2309, Note_on_c, 0, 40, 0
3, 2340, Note_on_c, 0, 41, 78
3, 2340, Note_on_c, 0, 53, 98
3, 2369, Note_on_c, 0, 53, 0
3, 2369, Note_on_c, 0, 41, 0
3, 2400, Note_on_c, 0, 43, 88
3, 2400, Note_on_c, 0, 55, 98
3, 2519, Note_on_c, 0, 55, 0
3, 2519, Note_on_c, 0, 43, 0
3, 2640, Note_on_c, 0, 40, 88
3, 2640, Note_on_c, 0, 52, 98
3, 2669, Note_on_c, 0, 52, 0
3, 2669, Note_on_c, 0, 40, 0
3, 2700, Note_on_c, 0, 41, 78
3, 2700, Note_on_c, 0, 53, 98
3, 2729, Note_on_c, 0, 53, 0
3, 2729, Note_on_c, 0, 41, 0
3, 2760, Note_on_c, 0, 43, 78
3, 2760, Note_on_c, 0, 55, 98
3, 2789, Note_on_c, 0, 55, 0
3, 2789, Note_on_c, 0, 43, 0
3, 2820, Note_on_c, 0, 45, 78
3, 2820, Note_on_c, 0, 57, 98
3, 2849, Note_on_c, 0, 57, 0
3, 2849, Note_on_c, 0, 45, 0
3, 2880, Note_on_c, 0, 58, 110
3, 2880, Note_on_c, 0, 46, 98
3, 2954, Note_on_c, 0, 58, 0
3, 2969, Note_on_c, 0, 46, 0
3, 3000, Note_on_c, 0, 48, 88
3, 3000, Note_on_c, 0, 36, 98
3, 3059, Note_on_c, 0, 36, 0
3, 3074, Note_on_c, 0, 48, 0
3, 3090, Note_on_c, 0, 48, 70
3, 3090, Note_on_c, 0, 36, 49
3, 3104, Note_on_c, 0, 36, 0
3, 3104, Note_on_c, 0, 48, 0
3, 3120, Note_on_c, 0, 46, 98
3, 3120, Note_on_c, 0, 55, 98
3, 3164, Note_on_c, 0, 55, 0
3, 3164, Note_on_c, 0, 46, 0
3, 3180, Note_on_c, 0, 45, 88
3, 3180, Note_on_c, 0, 57, 98
3, 3209, Note_on_c, 0, 57, 0
3, 3224, Note_on_c, 0, 45, 0
3, 3240, Note_on_c, 0, 58, 98
3, 3240, Note_on_c, 0, 55, 78
3, 3284, Note_on_c, 0, 55, 0
3, 3284, Note_on_c, 0, 58, 0
3, 3300, Note_on_c, 0, 57, 88
3, 3300, Note_on_c, 0, 53, 88
3, 3329, Note_on_c, 0, 53, 0
3, 3344, Note_on_c, 0, 57, 0
3, 3360, Note_on_c, 0, 52, 88
3, 3360, Note_on_c, 0, 55, 88
3, 3360, Note_on_c, 0, 60, 88
3, 3449, Note_on_c, 0, 52, 0
3, 3464, Note_on_c, 0, 60, 0
3, 3464, Note_on_c, 0, 55, 0
3, 3480, Note_on_c, 0, 60, 98
3, 3480, Note_on_c, 0, 57, 98
3, 3480, Note_on_c, 0, 53, 88
3, 3584, Note_on_c, 0, 53, 0
3, 3584, Note_on_c, 0, 57, 0
3, 3600, Note_on_c, 0, 55, 88
3, 3600, Note_on_c, 0, 52, 78
3, 3629, Note_on_c, 0, 60, 0
3, 3644, Note_on_c, 0, 52, 0
3, 3644, Note_on_c, 0, 55, 0
3, 3660, Note_on_c, 0, 48, 70
3, 3660, Note_on_c, 0, 60, 98
3, 3704, Note_on_c, 0, 60, 0
3, 3719, Note_on_c, 0, 48, 0
3, 3720, Note_on_c, 0, 50, 70
3, 3720, Note_on_c, 0, 60, 88
3, 3764, Note_on_c, 0, 60, 0
3, 3764, Note_on_c, 0, 50, 0
3, 3780, Note_on_c, 0, 43, 88
3, 3780, Note_on_c, 0, 55, 88
3, 3809, Note_on_c, 0, 55, 0
3, 3809, Note_on_c, 0, 43, 0
3, 3840, Note_on_c, 0, 36, 98
3, 3840, Note_on_c, 0, 48, 78
3, 3899, Note_on_c, 0, 48, 0
3, 3899, Note_on_c, 0, 36, 0
3, 3900, Note_on_c, 0, 60, 78
3, 3900, Note_on_c, 0, 64, 78
3, 3929, Note_on_c, 0, 64, 0
3, 3929, Note_on_c, 0, 60, 0
3, 3960, Note_on_c, 0, 60, 78
3, 3960, Note_on_c, 0, 64, 78
3, 4064, Note_on_c, 0, 64, 0
3, 4064, Note_on_c, 0, 60, 0
3, 4080, Note_on_c, 0, 48, 70
3, 4080, Note_on_c, 0, 36, 88
3, 4139, Note_on_c, 0, 36, 0
3, 4139, Note_on_c, 0, 48, 0
3, 4140, Note_on_c, 0, 38, 70
3, 4140, Note_on_c, 0, 50, 78
3, 4199, Note_on_c, 0, 50, 0
3, 4199, Note_on_c, 0, 38, 0
3, 4200, Note_on_c, 0, 40, 70
3, 4200, Note_on_c, 0, 52, 78
3, 4244, Note_on_c, 0, 52, 0
3, 4244, Note_on_c, 0, 40, 0
3, 4260, Note_on_c, 0, 52, 70
3, 4260, Note_on_c, 0, 50, 78
3, 4289, Note_on_c, 0, 50, 0
3, 4304, Note_on_c, 0, 52, 0
3, 4320, Note_on_c, 0, 48, 78
3, 4320, Note_on_c, 0, 52, 78
3, 4424, Note_on_c, 0, 52, 0
3, 4424, Note_on_c, 0, 48, 0
3, 4440, Note_on_c, 0, 60, 88
3, 4440, Note_on_c, 0, 52, 88
3, 4559, Note_on_c, 0, 52, 0
3, 4559, Note_on_c, 0, 60, 0
3, 4560, Note_on_c, 0, 50, 78
3, 4560, Note_on_c, 0, 47, 70
3, 4619, Note_on_c, 0, 47, 0
3, 4619, Note_on_c, 0, 50, 0
3, 4620, Note_on_c, 0, 52, 78
3, 4620, Note_on_c, 0, 48, 55
3, 4679, Note_on_c, 0, 48, 0
3, 4679, Note_on_c, 0, 52, 0
3, 4680, Note_on_c, 0, 50, 62
3, 4680, Note_on_c, 0, 55, 78
3, 4739, Note_on_c, 0, 55, 0
3, 4739, Note_on_c, 0, 50, 0
3, 4740, Note_on_c, 0, 48, 70
3, 4740, Note_on_c, 0, 57, 78
3, 4799, Note_on_c, 0, 57, 0
3, 4799, Note_on_c, 0, 48, 0
3, 4800, Note_on_c, 0, 47, 78
3, 4800, Note_on_c, 0, 55, 78
3, 4919, Note_on_c, 0, 55, 0
3, 4919, Note_on_c, 0, 47, 0
3, 5040, Note_on_c, 0, 36, 88
3, 5040, Note_on_c, 0, 48, 70
3, 5159, Note_on_c, 0, 48, 0
3, 5159, Note_on_c, 0, 36, 0
3, 5160, Note_on_c, 0, 64, 88
3, 5160, Note_on_c, 0, 60, 78
3, 5219, Note_on_c, 0, 60, 0
3, 5220, Note_on_c, 0, 59, 70
3, 5279, Note_on_c, 0, 59, 0
3, 5280, Note_on_c, 0, 57, 70
3, 5339, Note_on_c, 0, 57, 0
3, 5340, Note_on_c, 0, 60, 62
3, 5369, Note_on_c, 0, 60, 0
3, 5399, Note_on_c, 0, 64, 0
3, 5400, Note_on_c, 0, 57, 78
3, 5400, Note_on_c, 0, 60, 70
3, 5414, Note_on_c, 0, 60, 0
3, 5414, Note_on_c, 0, 57, 0
3, 5460, Note_on_c, 0, 59, 70
3, 5460, Note_on_c, 0, 55, 62
3, 5474, Note_on_c, 0, 55, 0
3, 5474, Note_on_c, 0, 59, 0
3, 5520, Note_on_c, 0, 54, 88
3, 5520, Note_on_c, 0, 57, 78
3, 5564, Note_on_c, 0, 57, 0
3, 5564, Note_on_c, 0, 54, 0
3, 5580, Note_on_c, 0, 57, 70
3, 5580, Note_on_c, 0, 60, 70
3, 5609, Note_on_c, 0, 57, 0
3, 5624, Note_on_c, 0, 60, 0
3, 5640, Note_on_c, 0, 57, 78
3, 5640, Note_on_c, 0, 54, 88
3, 5654, Note_on_c, 0, 54, 0
3, 5654, Note_on_c, 0, 57, 0
3, 5700, Note_on_c, 0, 55, 62
3, 5700, Note_on_c, 0, 52, 62
3, 5714, Note_on_c, 0, 55, 0
3, 5729, Note_on_c, 0, 52, 0
3, 5760, Note_on_c, 0, 54, 88
3, 5760, Note_on_c, 0, 50, 62
3, 5834, Note_on_c, 0, 50, 0
3, 5834, Note_on_c, 0, 54, 0
3, 5880, Note_on_c, 0, 62, 78
3, 5880, Note_on_c, 0, 60, 78
3, 5954, Note_on_c, 0, 60, 0
3, 5954, Note_on_c, 0, 62, 0
3, 5970, Note_on_c, 0, 60, 39
3, 5970, Note_on_c, 0, 62, 55
3, 5984, Note_on_c, 0, 62, 0
3, 5984, Note_on_c, 0, 60, 0
3, 6000, Note_on_c, 0, 60, 78
3, 6000, Note_on_c, 0, 62, 78
3, 6089, Note_on_c, 0, 62, 0
3, 6089, Note_on_c, 0, 60, 0
3, 6120, Note_on_c, 0, 50, 78
3, 6120, Note_on_c, 0, 54, 98
3, 6120, Note_on_c, 0, 60, 88
3, 6164, Note_on_c, 0, 50, 0
3, 6179, Note_on_c, 0, 54, 0
3, 6180, Note_on_c, 0, 50, 78
3, 6194, Note_on_c, 0, 60, 0
3, 6224, Note_on_c, 0, 50, 0
3, 6240, Note_on_c, 0, 59, 78
3, 6240, Note_on_c, 0, 55, 88
3, 6329, Note_on_c, 0, 55, 0
3, 6329, Note_on_c, 0, 59, 0
3, 6360, Note_on_c, 0, 57, 88
3, 6360, Note_on_c, 0, 52, 88
3, 6360, Note_on_c, 0, 48, 70
3, 6449, Note_on_c, 0, 48, 0
3, 6464, Note_on_c, 0, 52, 0
3, 6464, Note_on_c, 0, 57, 0
3, 6480, Note_on_c, 0, 59, 88
3, 6480, Note_on_c, 0, 50, 78
3, 6480, Note_on_c, 0, 55, 78
3, 6569, Note_on_c, 0, 55, 0
3, 6569, Note_on_c, 0, 50, 0
3, 6569, Note_on_c, 0, 59, 0
3, 6600, Note_on_c, 0, 54, 110
3, 6600, Note_on_c, 0, 57, 88
3, 6600, Note_on_c, 0, 50, 78
3, 6704, Note_on_c, 0, 50, 0
3, 6704, Note_on_c, 0, 57, 0
3, 6704, Note_on_c, 0, 54, 0
3, 6720, Note_on_c, 0, 43, 70
3, 6720, Note_on_c, 0, 55, 78
3, 6720, Note_on_c, 0, 50, 88
3, 6824, Note_on_c, 0, 50, 0
3, 6824, Note_on_c, 0, 55, 0
3, 6824, Note_on_c, 0, 43, 0
3, 6840, Note_on_c, 0, 55, 98
3, 6914, Note_on_c, 0, 55, 0
3, 6930, Note_on_c, 0, 55, 88
3, 6944, Note_on_c, 0, 55, 0
3, 6960, Note_on_c, 0, 43, 98
3, 6989, Note_on_c, 0, 43, 0
3, 7020, Note_on_c, 0, 45, 88
3, 7049, Note_on_c, 0, 45, 0
3, 7080, Note_on_c, 0, 47, 88
3, 7124, Note_on_c, 0, 47, 0
3, 7140, Note_on_c, 0, 48, 78
3, 7169, Note_on_c, 0, 48, 0
3, 7200, Note_on_c, 0, 50, 88
3, 7200, Note_on_c, 0, 43, 88
3, 7319, Note_on_c, 0, 43, 0
3, 7319, Note_on_c, 0, 50, 0
3, 7440, Note_on_c, 0, 47, 78
3, 7440, Note_on_c, 0, 59, 98
3, 7469, Note_on_c, 0, 59, 0
3, 7469, Note_on_c, 0, 47, 0
3, 7500, Note_on_c, 0, 48, 78
3, 7500, Note_on_c, 0, 60, 88
3, 7529, Note_on_c, 0, 60, 0
3, 7529, Note_on_c, 0, 48, 0
3, 7560, Note_on_c, 0, 62, 88
3, 7560, Note_on_c, 0, 50, 70
3, 7589, Note_on_c, 0, 50, 0
3, 7589, Note_on_c, 0, 62, 0
3, 7620, Note_on_c, 0, 52, 62
3, 7620, Note_on_c, 0, 64, 88
3, 7649, Note_on_c, 0, 64, 0
3, 7649, Note_on_c, 0, 52, 0
3, 7680, Note_on_c, 0, 53, 78
3, 7680, Note_on_c, 0, 65, 98
3, 7709, Note_on_c, 0, 65, 0
3, 7709, Note_on_c, 0, 53, 0
3, 7740, Note_on_c, 0, 52, 78
3, 7740, Note_on_c, 0, 64, 78
3, 7754, Note_on_c, 0, 64, 0
3, 7769, Note_on_c, 0, 52, 0
3, 7800, Note_on_c, 0, 50, 78
3, 7800, Note_on_c, 0, 62, 88
3, 7814, Note_on_c, 0, 50, 0
3, 7829, Note_on_c, 0, 62, 0
3, 7860, Note_on_c, 0, 48, 70
3, 7860, Note_on_c, 0, 60, 88
3, 7889, Note_on_c, 0, 60, 0
3, 7889, Note_on_c, 0, 48, 0
3, 7920, Note_on_c, 0, 47, 70
3, 7920, Note_on_c, 0, 59, 78
3, 7949, Note_on_c, 0, 59, 0
3, 7949, Note_on_c, 0, 47, 0
3, 7980, Note_on_c, 0, 45, 70
3, 7980, Note_on_c, 0, 57, 88
3, 8009, Note_on_c, 0, 57, 0
3, 8009, Note_on_c, 0, 45, 0
3, 8040, Note_on_c, 0, 43, 62
3, 8040, Note_on_c, 0, 55, 78
3, 8069, Note_on_c, 0, 55, 0
3, 8069, Note_on_c, 0, 43, 0
3, 8100, Note_on_c, 0, 41, 70
3, 8100, Note_on_c, 0, 53, 88
3, 8114, Note_on_c, 0, 53, 0
3, 8129, Note_on_c, 0, 41, 0
3, 8160, Note_on_c, 0, 40, 78
3, 8160, Note_on_c, 0, 52, 70
3, 8189, Note_on_c, 0, 52, 0
3, 8189, Note_on_c, 0, 40, 0
3, 8220, Note_on_c, 0, 40, 70
3, 8220, Note_on_c, 0, 52, 62
3, 8249, Note_on_c, 0, 52, 0
3, 8249, Note_on_c, 0, 40, 0
3, 8280, Note_on_c, 0, 59, 88
3, 8280, Note_on_c, 0, 56, 110
3, 8280, Note_on_c, 0, 52, 78
3, 8294, Note_on_c, 0, 52, 0
3, 8340, Note_on_c, 0, 52, 62
3, 8369, Note_on_c, 0, 52, 0
3, 8400, Note_on_c, 0, 52, 62
3, 8414, Note_on_c, 0, 52, 0
3, 8460, Note_on_c, 0, 52, 62
3, 8474, Note_on_c, 0, 56, 0
3, 8489, Note_on_c, 0, 52, 0
3, 8489, Note_on_c, 0, 59, 0
3, 8520, Note_on_c, 0, 59, 78
3, 8520, Note_on_c, 0, 56, 88
3, 8520, Note_on_c, 0, 52, 70
3, 8549, Note_on_c, 0, 52, 0
3, 8580, Note_on_c, 0, 52, 70
3, 8594, Note_on_c, 0, 52, 0
3, 8594, Note_on_c, 0, 56, 0
3, 8594, Note_on_c, 0, 59, 0
3, 8640, Note_on_c, 0, 52, 78
3, 8640, Note_on_c, 0, 65, 98
3, 8640, Note_on_c, 0, 57, 88
3, 8669, Note_on_c, 0, 52, 0
3, 8700, Note_on_c, 0, 52, 70
3, 8729, Note_on_c, 0, 52, 0
3, 8760, Note_on_c, 0, 52, 62
3, 8789, Note_on_c, 0, 52, 0
3, 8820, Note_on_c, 0, 52, 62
3, 8849, Note_on_c, 0, 52, 0
3, 8880, Note_on_c, 0, 52, 70
3, 8894, Note_on_c, 0, 52, 0
3, 8940, Note_on_c, 0, 52, 62
3, 8954, Note_on_c, 0, 52, 0
3, 9000, Note_on_c, 0, 52, 62
3, 9029, Note_on_c, 0, 52, 0
3, 9059, Note_on_c, 0, 57, 0
3, 9060, Note_on_c, 0, 52, 62
3, 9074, Note_on_c, 0, 52, 0
3, 9074, Note_on_c, 0, 65, 0
3, 9120, Note_on_c, 0, 52, 98
3, 9120, Note_on_c, 0, 64, 110
3, 9120, Note_on_c, 0, 55, 110
3, 9149, Note_on_c, 0, 52, 0
3, 9180, Note_on_c, 0, 52, 44
3, 9194, Note_on_c, 0, 52, 0
3, 9240, Note_on_c, 0, 52, 44
3, 9254, Note_on_c, 0, 52, 0
3, 9300, Note_on_c, 0, 52, 49
3, 9314, Note_on_c, 0, 52, 0
3, 9360, Note_on_c, 0, 52, 39
3, 9374, Note_on_c, 0, 52, 0
3, 9420, Note_on_c, 0, 52, 39
3, 9434, Note_on_c, 0, 52, 0
3, 9480, Note_on_c, 0, 52, 44
3, 9494, Note_on_c, 0, 52, 0
3, 9540, Note_on_c, 0, 52, 44
3, 9554, Note_on_c, 0, 52, 0
3, 9554, Note_on_c, 0, 55, 0
3, 9554, Note_on_c, 0, 64, 0
3, 9600, Note_on_c, 0, 62, 98
3, 9600, Note_on_c, 0, 52, 110
3, 9600, Note_on_c, 0, 53, 98
3, 9614, Note_on_c, 0, 52, 0
3, 9660, Note_on_c, 0, 52, 55
3, 9674, Note_on_c, 0, 52, 0
3, 9720, Note_on_c, 0, 52, 35
3, 9734, Note_on_c, 0, 52, 0
3, 9780, Note_on_c, 0, 52, 49
3, 9794, Note_on_c, 0, 52, 0
3, 9809, Note_on_c, 0, 53, 0
3, 9809, Note_on_c, 0, 62, 0
3, 9840, Note_on_c, 0, 52, 98
3, 9840, Note_on_c, 0, 60, 98
3, 9869, Note_on_c, 0, 52, 0
3, 9900, Note_on_c, 0, 52, 62
3, 9929, Note_on_c, 0, 52, 0
3, 9960, Note_on_c, 0, 52, 55
3, 9989, Note_on_c, 0, 52, 0
3, 10020, Note_on_c, 0, 52, 49
3, 10034, Note_on_c, 0, 60, 0
3, 10049, Note_on_c, 0, 52, 0
3, 10080, Note_on_c, 0, 40, 98
3, 10080, Note_on_c, 0, 52, 98
3, 10109, Note_on_c, 0, 52, 0
3, 10109, Note_on_c, 0, 40, 0
3, 10140, Note_on_c, 0, 52, 44
3, 10140, Note_on_c, 0, 40, 24
3, 10169, Note_on_c, 0, 40, 0
3, 10169, Note_on_c, 0, 52, 0
3, 10200, Note_on_c, 0, 40, 22
3, 10200, Note_on_c, 0, 52, 39
3, 10229, Note_on_c, 0, 52, 0
3, 10229, Note_on_c, 0, 40, 0
3, 10260, Note_on_c, 0, 40, 30
3, 10260, Note_on_c, 0, 52, 35
3, 10289, Note_on_c, 0, 52, 0
3, 10289, Note_on_c, 0, 40, 0
3, 10320, Note_on_c, 0, 40, 12
3, 10320, Note_on_c, 0, 52, 39
3, 10349, Note_on_c, 0, 52, 0
3, 10349, Note_on_c, 0, 40, 0
3, 10380, Note_on_c, 0, 40, 35
3, 10380, Note_on_c, 0, 52, 49
3, 10424, Note_on_c, 0, 52, 0
3, 10424, Note_on_c, 0, 40, 0
3, 10440, Note_on_c, 0, 51, 62
3, 10440, Note_on_c, 0, 39, 62
3, 10469, Note_on_c, 0, 39, 0
3, 10469, Note_on_c, 0, 51, 0
3, 10500, Note_on_c, 0, 39, 49
3, 10500, Note_on_c, 0, 51, 55
3, 10529, Note_on_c, 0, 51, 0
3, 10529, Note_on_c, 0, 39, 0
3, 10560, Note_on_c, 0, 40, 62
3, 10560, Note_on_c, 0, 52, 78
3, 10604, Note_on_c, 0, 52, 0
3, 10604, Note_on_c, 0, 40, 0
3, 10620, Note_on_c, 0, 52, 49
3, 10649, Note_on_c, 0, 52, 0
3, 10650, Note_on_c, 0, 54, 78
3, 10679, Note_on_c, 0, 54, 0
3, 10680, Note_on_c, 0, 56, 70
3, 10709, Note_on_c, 0, 56, 0
3, 10710, Note_on_c, 0, 57, 55
3, 10739, Note_on_c, 0, 57, 0
3, 10740, Note_on_c, 0, 59, 62
3, 10769, Note_on_c, 0, 59, 0
3, 10770, Note_on_c, 0, 56, 70
3, 10784, Note_on_c, 0, 56, 0
3, 10800, Note_on_c, 0, 62, 70
3, 10800, Note_on_c, 0, 52, 55
3, 10800, Note_on_c, 0, 59, 78
3, 10829, Note_on_c, 0, 52, 0
3, 10860, Note_on_c, 0, 52, 62
3, 10889, Note_on_c, 0, 52, 0
3, 10920, Note_on_c, 0, 54, 13
3, 10949, Note_on_c, 0, 54, 0
3, 10980, Note_on_c, 0, 56, 70
3, 11009, Note_on_c, 0, 56, 0
3, 11009, Note_on_c, 0, 59, 0
3, 11024, Note_on_c, 0, 62, 0
3, 11040, Note_on_c, 0, 57, 62
3, 11040, Note_on_c, 0, 60, 62
3, 11084, Note_on_c, 0, 60, 0
3, 11084, Note_on_c, 0, 57, 0
3, 11100, Note_on_c, 0, 60, 78
3, 11100, Note_on_c, 0, 64, 70
3, 11129, Note_on_c, 0, 64, 0
3, 11129, Note_on_c, 0, 60, 0
3, 11160, Note_on_c, 0, 68, 88
3, 11160, Note_on_c, 0, 59, 62
3, 11160, Note_on_c, 0, 62, 70
3, 11174, Note_on_c, 0, 62, 0
3, 11189, Note_on_c, 0, 59, 0
3, 11189, Note_on_c, 0, 68, 0
3, 11220, Note_on_c, 0, 60, 70
3, 11220, Note_on_c, 0, 57, 62
3, 11220, Note_on_c, 0, 64, 62
3, 11249, Note_on_c, 0, 64, 0
3, 11249, Note_on_c, 0, 57, 0
3, 11249, Note_on_c, 0, 60, 0
3, 11280, Note_on_c, 0, 56, 78
3, 11280, Note_on_c, 0, 59, 62
3, 11280, Note_on_c, 0, 62, 70
3, 11309, Note_on_c, 0, 56, 0
3, 11339, Note_on_c, 0, 59, 0
3, 11340, Note_on_c, 0, 52, 70
3, 11384, Note_on_c, 0, 52, 0
3, 11400, Note_on_c, 0, 54, 88
3, 11414, Note_on_c, 0, 54, 0
3, 11460, Note_on_c, 0, 56, 70
3, 11474, Note_on_c, 0, 62, 0
3, 11489, Note_on_c, 0, 56, 0
3, 11520, Note_on_c, 0, 57, 70
3, 11520, Note_on_c, 0, 60, 70
3, 11549, Note_on_c, 0, 57, 0
3, 11579, Note_on_c, 0, 60, 0
3, 11580, Note_on_c, 0, 48, 70
3, 11580, Note_on_c, 0, 57, 70
3, 11609, Note_on_c, 0, 48, 0
3, 11624, Note_on_c, 0, 57, 0
3, 11640, Note_on_c, 0, 56, 88
3, 11640, Note_on_c, 0, 59, 70
3, 11684, Note_on_c, 0, 59, 0
3, 11684, Note_on_c, 0, 56, 0
3, 11700, Note_on_c, 0, 52, 70
3, 11700, Note_on_c, 0, 64, 88
3, 11729, Note_on_c, 0, 52, 0
3, 11744, Note_on_c, 0, 64, 0
3, 11760, Note_on_c, 0, 57, 55
3, 11760, Note_on_c, 0, 64, 88
3, 11760, Note_on_c, 0, 65, 88
3, 11849, Note_on_c, 0, 64, 0
3, 11849, Note_on_c, 0, 57, 0
3, 11880, Note_on_c, 0, 62, 62
3, 11880, Note_on_c, 0, 59, 78
3, 11954, Note_on_c, 0, 59, 0
3, 11954, Note_on_c, 0, 62, 0
3, 11954, Note_on_c, 0, 65, 0
3, 12000, Note_on_c, 0, 48, 78
3, 12000, Note_on_c, 0, 62, 55
3, 12000, Note_on_c, 0, 55, 88
3, 12000, Note_on_c, 0, 60, 70
3, 12014, Note_on_c, 0, 60, 0
3, 12104, Note_on_c, 0, 48, 0
3, 12104, Note_on_c, 0, 62, 0
3, 12119, Note_on_c, 0, 55, 0
3, 12120, Note_on_c, 0, 60, 78
3, 12180, Note_on_c, 0, 52, 70
3, 12209, Note_on_c, 0, 52, 0
3, 12224, Note_on_c, 0, 60, 0
3, 12240, Note_on_c, 0, 54, 98
3, 12240, Note_on_c, 0, 62, 88
3, 12240, Note_on_c, 0, 60, 88
3, 12329, Note_on_c, 0, 60, 0
3, 12329, Note_on_c, 0, 62, 0
3, 12329, Note_on_c, 0, 54, 0
3, 12360, Note_on_c, 0, 56, 88
3, 12360, Note_on_c, 0, 64, 70
3, 12360, Note_on_c, 0, 59, 78
3, 12449, Note_on_c, 0, 59, 0
3, 12449, Note_on_c, 0, 64, 0
3, 12449, Note_on_c, 0, 56, 0
3, 12480, Note_on_c, 0, 57, 78
3, 12480, Note_on_c, 0, 64, 88
3, 12480, Note_on_c, 0, 60, 78
3, 12569, Note_on_c, 0, 60, 0
3, 12569, Note_on_c, 0, 64, 0
3, 12569, Note_on_c, 0, 57, 0
3, 12600, Note_on_c, 0, 59, 88
3, 12600, Note_on_c, 0, 50, 88
3, 12600, Note_on_c, 0, 53, 88
3, 12689, Note_on_c, 0, 53, 0
3, 12689, Note_on_c, 0, 50, 0
3, 12689, Note_on_c, 0, 59, 0
3, 12720, Note_on_c, 0, 52, 78
3, 12720, Note_on_c, 0, 60, 78
3, 12720, Note_on_c, 0, 57, 88
3, 12809, Note_on_c, 0, 57, 0
3, 12809, Note_on_c, 0, 60, 0
3, 12809, Note_on_c, 0, 52, 0
3, 12840, Note_on_c, 0, 56, 98
3, 12840, Note_on_c, 0, 52, 70
3, 12840, Note_on_c, 0, 59, 70
3, 12884, Note_on_c, 0, 52, 0
3, 12899, Note_on_c, 0, 59, 0
3, 12899, Note_on_c, 0, 56, 0
3, 12900, Note_on_c, 0, 52, 70
3, 12929, Note_on_c, 0, 52, 0
3, 12960, Note_on_c, 0, 45, 78
3, 12960, Note_on_c, 0, 52, 88
3, 12960, Note_on_c, 0, 60, 98
3, 13079, Note_on_c, 0, 60, 0
3, 13079, Note_on_c, 0, 52, 0
3, 13079, Note_on_c, 0, 45, 0
3, 13200, Note_on_c, 0, 72, 62
3, 13200, Note_on_c, 0, 69, 70
3, 13229, Note_on_c, 0, 69, 0
3, 13229, Note_on_c, 0, 72, 0
3, 13260, Note_on_c, 0, 67, 62
3, 13260, Note_on_c, 0, 71, 55
3, 13289, Note_on_c, 0, 71, 0
3, 13289, Note_on_c, 0, 67, 0
3, 13320, Note_on_c, 0, 66, 70
3, 13320, Note_on_c, 0, 69, 49
3, 13349, Note_on_c, 0, 66, 0
3, 13364, Note_on_c, 0, 69, 0
3, 13380, Note_on_c, 0, 64, 55
3, 13380, Note_on_c, 0, 67, 55
3, 13394, Note_on_c, 0, 67, 0
3, 13394, Note_on_c, 0, 64, 0
3, 13440, Note_on_c, 0, 66, 70
3, 13440, Note_on_c, 0, 69, 55
3, 13440, Note_on_c, 0, 59, 55
3, 13499, Note_on_c, 0, 59, 0
3, 13499, Note_on_c, 0, 69, 0
3, 13499, Note_on_c, 0, 66, 0
3, 13500, Note_on_c, 0, 60, 62
3, 13529, Note_on_c, 0, 60, 0
3, 13560, Note_on_c, 0, 66, 78
3, 13560, Note_on_c, 0, 63, 78
3, 13560, Note_on_c, 0, 59, 49
3, 13604, Note_on_c, 0, 59, 0
3, 13619, Note_on_c, 0, 63, 0
3, 13620, Note_on_c, 0, 59, 55
3, 13634, Note_on_c, 0, 59, 0
3, 13634, Note_on_c, 0, 66, 0
3, 13680, Note_on_c, 0, 55, 62
3, 13680, Note_on_c, 0, 59, 70
3, 13859, Note_on_c, 0, 59, 0
3, 13859, Note_on_c, 0, 55, 0
3, 13860, Note_on_c, 0, 56, 78
3, 13874, Note_on_c, 0, 56, 0
3, 13920, Note_on_c, 0, 64, 70
3, 13920, Note_on_c, 0, 67, 70
3, 13920, Note_on_c, 0, 55, 62
3, 13979, Note_on_c, 0, 64, 0
3, 13980, Note_on_c, 0, 58, 78
3, 13994, Note_on_c, 0, 55, 0
3, 13994, Note_on_c, 0, 67, 0
3, 14024, Note_on_c, 0, 58, 0
3, 14040, Note_on_c, 0, 61, 88
3, 14040, Note_on_c, 0, 57, 70
3, 14040, Note_on_c, 0, 64, 55
3, 14069, Note_on_c, 0, 57, 0
3, 14099, Note_on_c, 0, 64, 0
3, 14099, Note_on_c, 0, 61, 0
3, 14100, Note_on_c, 0, 55, 70
3, 14129, Note_on_c, 0, 55, 0
3, 14160, Note_on_c, 0, 57, 78
3, 14160, Note_on_c, 0, 53, 70
3, 14309, Note_on_c, 0, 53, 0
3, 14324, Note_on_c, 0, 57, 0
3, 14340, Note_on_c, 0, 54, 70
3, 14354, Note_on_c, 0, 54, 0
3, 14400, Note_on_c, 0, 55, 70
3, 14400, Note_on_c, 0, 62, 78
3, 14400, Note_on_c, 0, 65, 88
3, 14444, Note_on_c, 0, 55, 0
3, 14460, Note_on_c, 0, 56, 70
3, 14489, Note_on_c, 0, 65, 0
3, 14489, Note_on_c, 0, 62, 0
3, 14504, Note_on_c, 0, 56, 0
3, 14520, Note_on_c, 0, 55, 78
3, 14520, Note_on_c, 0, 65, 88
3, 14520, Note_on_c, 0, 59, 62
3, 14564, Note_on_c, 0, 55, 0
3, 14579, Note_on_c, 0, 59, 0
3, 14579, Note_on_c, 0, 65, 0
3, 14580, Note_on_c, 0, 53, 70
3, 14609, Note_on_c, 0, 53, 0
3, 14640, Note_on_c, 0, 51, 78
3, 14640, Note_on_c, 0, 60, 70
3, 14640, Note_on_c, 0, 55, 78
3, 14684, Note_on_c, 0, 51, 0
3, 14699, Note_on_c, 0, 55, 0
3, 14700, Note_on_c, 0, 56, 70
3, 14700, Note_on_c, 0, 53, 70
3, 14744, Note_on_c, 0, 53, 0
3, 14744, Note_on_c, 0, 56, 0
3, 14760, Note_on_c, 0, 51, 62
3, 14760, Note_on_c, 0, 55, 62
3, 14789, Note_on_c, 0, 55, 0
3, 14789, Note_on_c, 0, 51, 0
3, 14820, Note_on_c, 0, 53, 78
3, 14820, Note_on_c, 0, 50, 62
3, 14834, Note_on_c, 0, 60, 0
3, 14849, Note_on_c, 0, 50, 0
3, 14849, Note_on_c, 0, 53, 0
3, 14880, Note_on_c, 0, 55, 70
3, 14880, Note_on_c, 0, 48, 62
3, 14939, Note_on_c, 0, 48, 0
3, 14940, Note_on_c, 0, 50, 55
3, 14999, Note_on_c, 0, 50, 0
3, 15000, Note_on_c, 0, 48, 55
3, 15059, Note_on_c, 0, 48, 0
3, 15060, Note_on_c, 0, 46, 62
3, 15119, Note_on_c, 0, 46, 0
3, 15120, Note_on_c, 0, 44, 78
3, 15164, Note_on_c, 0, 44, 0
3, 15180, Note_on_c, 0, 44, 70
3, 15224, Note_on_c, 0, 44, 0
3, 15239, Note_on_c, 0, 55, 0
3, 15240, Note_on_c, 0, 44, 78
3, 15240, Note_on_c, 0, 54, 98
3, 15269, Note_on_c, 0, 44, 0
3, 15300, Note_on_c, 0, 44, 78
3, 15329, Note_on_c, 0, 44, 0
3, 15344, Note_on_c, 0, 54, 0
3, 15360, Note_on_c, 0, 43, 62
3, 15360, Note_on_c, 0, 55, 78
3, 15464, Note_on_c, 0, 55, 0
3, 15464, Note_on_c, 0, 43, 0
3, 15480, Note_on_c, 0, 55, 88
3, 15554, Note_on_c, 0, 55, 0
3, 15570, Note_on_c, 0, 55, 98
3, 15599, Note_on_c, 0, 55, 0
3, 15600, Note_on_c, 0, 43, 88
3, 15644, Note_on_c, 0, 43, 0
3, 15660, Note_on_c, 0, 45, 88
3, 15689, Note_on_c, 0, 45, 0
3, 15720, Note_on_c, 0, 47, 88
3, 15764, Note_on_c, 0, 47, 0
3, 15780, Note_on_c, 0, 48, 88
3, 15824, Note_on_c, 0, 48, 0
3, 15840, Note_on_c, 0, 50, 78
3, 15840, Note_on_c, 0, 55, 88
3, 15959, Note_on_c, 0, 55, 0
3, 15959, Note_on_c, 0, 50, 0
3, 16080, Note_on_c, 0, 47, 88
3, 16094, Note_on_c, 0, 47, 0
3, 16140, Note_on_c, 0, 48, 78
3, 16169, Note_on_c, 0, 48, 0
3, 16200, Note_on_c, 0, 50, 78
3, 16229, Note_on_c, 0, 50, 0
3, 16260, Note_on_c, 0, 52, 78
3, 16289, Note_on_c, 0, 52, 0
3, 16320, Note_on_c, 0, 53, 88
3, 16364, Note_on_c, 0, 53, 0
3, 16380, Note_on_c, 0, 52, 88
3, 16409, Note_on_c, 0, 52, 0
3, 16440, Note_on_c, 0, 50, 70
3, 16469, Note_on_c, 0, 50, 0
3, 16500, Note_on_c, 0, 52, 78
3, 16529, Note_on_c, 0, 52, 0
3, 16560, Note_on_c, 0, 53, 78
3, 16589, Note_on_c, 0, 53, 0
3, 16620, Note_on_c, 0, 55, 88
3, 16649, Note_on_c, 0, 55, 0
3, 16680, Note_on_c, 0, 57, 88
3, 16724, Note_on_c, 0, 57, 0
3, 16740, Note_on_c, 0, 59, 88
3, 16769, Note_on_c, 0, 59, 0
3, 16800, Note_on_c, 0, 60, 98
3, 16800, Note_on_c, 0, 48, 88
3, 16800, Note_on_c, 0, 52, 98
3, 16934, Note_on_c, 0, 52, 0
3, 16934, Note_on_c, 0, 48, 0
3, 16934, Note_on_c, 0, 60, 0
3, 17040, Note_on_c, 0, 36, 110
3, 17040, Note_on_c, 0, 48, 110
3, 17069, Note_on_c, 0, 48, 0
3, 17069, Note_on_c, 0, 36, 0
3, 17100, Note_on_c, 0, 38, 88
3, 17100, Note_on_c, 0, 50, 98
3, 17129, Note_on_c, 0, 50, 0
3, 17129, Note_on_c, 0, 38, 0
3, 17160, Note_on_c, 0, 40, 98
3, 17160, Note_on_c, 0, 52, 98
3, 17189, Note_on_c, 0, 52, 0
3, 17189, Note_on_c, 0, 40, 0
3, 17220, Note_on_c, 0, 53, 88
3, 17220, Note_on_c, 0, 41, 78
3, 17249, Note_on_c, 0, 41, 0
3, 17249, Note_on_c, 0, 53, 0
3, 17280, Note_on_c, 0, 48, 98
3, 17280, Note_on_c, 0, 55, 98
3, 17280, Note_on_c, 0, 43, 88
3, 17414, Note_on_c, 0, 43, 0
3, 17414, Note_on_c, 0, 55, 0
3, 17414, Note_on_c, 0, 48, 0
3, 17520, Note_on_c, 0, 40, 78
3, 17520, Note_on_c, 0, 52, 98
3, 17549, Note_on_c, 0, 52, 0
3, 17549, Note_on_c, 0, 40, 0
3, 17580, Note_on_c, 0, 41, 39
3, 17580, Note_on_c, 0, 53, 88
3, 17609, Note_on_c, 0, 53, 0
3, 17609, Note_on_c, 0, 41, 0
3, 17640, Note_on_c, 0, 43, 78
3, 17640, Note_on_c, 0, 55, 88
3, 17669, Note_on_c, 0, 55, 0
3, 17669, Note_on_c, 0, 43, 0
3, 17700, Note_on_c, 0, 45, 70
3, 17700, Note_on_c, 0, 57, 88
3, 17729, Note_on_c, 0, 57, 0
3, 17729, Note_on_c, 0, 45, 0
3, 17760, Note_on_c, 0, 46, 110
3, 17760, Note_on_c, 0, 58, 110
3, 17864, Note_on_c, 0, 58, 0
3, 17864, Note_on_c, 0, 46, 0
3, 17880, Note_on_c, 0, 60, 88
3, 17954, Note_on_c, 0, 60, 0
3, 17970, Note_on_c, 0, 60, 62
3, 17984, Note_on_c, 0, 60, 0
3, 18000, Note_on_c, 0, 46, 98
3, 18000, Note_on_c, 0, 58, 110
3, 18044, Note_on_c, 0, 58, 0
3, 18044, Note_on_c, 0, 46, 0
3, 18060, Note_on_c, 0, 45, 88
3, 18060, Note_on_c, 0, 57, 98
3, 18089, Note_on_c, 0, 45, 0
3, 18104, Note_on_c, 0, 57, 0
3, 18120, Note_on_c, 0, 55, 78
3, 18120, Note_on_c, 0, 43, 78
3, 18164, Note_on_c, 0, 43, 0
3, 18164, Note_on_c, 0, 55, 0
3, 18180, Note_on_c, 0, 41, 78
3, 18180, Note_on_c, 0, 53, 88
3, 18209, Note_on_c, 0, 41, 0
3, 18224, Note_on_c, 0, 53, 0
3, 18240, Note_on_c, 0, 52, 88
3, 18240, Note_on_c, 0, 40, 88
3, 18359, Note_on_c, 0, 40, 0
3, 18359, Note_on_c, 0, 52, 0
3, 18360, Note_on_c, 0, 41, 78
3, 18360, Note_on_c, 0, 53, 88
3, 18479, Note_on_c, 0, 53, 0
3, 18479, Note_on_c, 0, 41, 0
3, 18480, Note_on_c, 0, 52, 88
3, 18480, Note_on_c, 0, 55, 88
3, 18509, Note_on_c, 0, 55, 0
3, 18509, Note_on_c, 0, 52, 0
3, 18540, Note_on_c, 0, 48, 88
3, 18540, Note_on_c, 0, 60, 78
3, 18569, Note_on_c, 0, 60, 0
3, 18569, Note_on_c, 0, 48, 0
3, 18600, Note_on_c, 0, 50, 98
3, 18600, Note_on_c, 0, 60, 88
3, 18629, Note_on_c, 0, 50, 0
3, 18644, Note_on_c, 0, 60, 0
3, 18660, Note_on_c, 0, 55, 98
3, 18660, Note_on_c, 0, 43, 78
3, 18704, Note_on_c, 0, 43, 0
3, 18704, Note_on_c, 0, 55, 0
3, 18720, Note_on_c, 0, 48, 88
3, 18720, Note_on_c, 0, 36, 98
3, 18824, Note_on_c, 0, 36, 0
3, 18839, Note_on_c, 0, 48, 0
3, 18840, Note_on_c, 0, 60, 88
3, 18840, Note_on_c, 0, 64, 98
3, 18899, Note_on_c, 0, 64, 0
3, 18900, Note_on_c, 0, 48, 98
3, 18914, Note_on_c, 0, 60, 0
3, 18959, Note_on_c, 0, 48, 0
3, 18960, Note_on_c, 0, 54, 98
3, 18960, Note_on_c, 0, 57, 88
3, 18960, Note_on_c, 0, 60, 78
3, 18960, Note_on_c, 0, 62, 78
3, 19049, Note_on_c, 0, 62, 0
3, 19049, Note_on_c, 0, 54, 0
3, 19049, Note_on_c, 0, 57, 0
3, 19049, Note_on_c, 0, 60, 0
3, 19080, Note_on_c, 0, 56, 98
3, 19080, Note_on_c, 0, 59, 88
3, 19080, Note_on_c, 0, 62, 88
3, 19184, Note_on_c, 0, 62, 0
3, 19184, Note_on_c, 0, 59, 0
3, 19184, Note_on_c, 0, 56, 0
3, 19200, Note_on_c, 0, 52, 88
3, 19200, Note_on_c, 0, 45, 88
3, 19200, Note_on_c, 0, 59, 98
3, 19289, Note_on_c, 0, 59, 0
3, 19304, Note_on_c, 0, 45, 0
3, 19319, Note_on_c, 0, 52, 0
3, 19320, Note_on_c, 0, 57, 98
3, 19320, Note_on_c, 0, 60, 98
3, 19320, Note_on_c, 0, 64, 88
3, 19380, Note_on_c, 0, 48, 88
3, 19394, Note_on_c, 0, 64, 0
3, 19394, Note_on_c, 0, 57, 0
3, 19394, Note_on_c, 0, 60, 0
3, 19424, Note_on_c, 0, 48, 0
3, 19440, Note_on_c, 0, 58, 98
3, 19440, Note_on_c, 0, 57, 98
3, 19440, Note_on_c, 0, 50, 88
3, 19440, Note_on_c, 0, 53, 88
3, 19544, Note_on_c, 0, 53, 0
3, 19544, Note_on_c, 0, 58, 0
3, 19544, Note_on_c, 0, 57, 0
3, 19544, Note_on_c, 0, 50, 0
3, 19560, Note_on_c, 0, 60, 98
3, 19560, Note_on_c, 0, 55, 98
3, 19560, Note_on_c, 0, 52, 88
3, 19560, Note_on_c, 0, 58, 88
3, 19649, Note_on_c, 0, 58, 0
3, 19649, Note_on_c, 0, 52, 0
3, 19649, Note_on_c, 0, 55, 0
3, 19664, Note_on_c, 0, 60, 0
3, 19680, Note_on_c, 0, 41, 70
3, 19680, Note_on_c, 0, 55, 110
3, 19680, Note_on_c, 0, 48, 88
3, 19784, Note_on_c, 0, 55, 0
3, 19799, Note_on_c, 0, 48, 0
3, 19799, Note_on_c, 0, 41, 0
3, 19800, Note_on_c, 0, 57, 98
3, 19800, Note_on_c, 0, 53, 98
3, 19800, Note_on_c, 0, 60, 88
3, 19859, Note_on_c, 0, 60, 0
3, 19859, Note_on_c, 0, 53, 0
3, 19859, Note_on_c, 0, 57, 0
3, 19860, Note_on_c, 0, 45, 98
3, 19904, Note_on_c, 0, 45, 0
3, 19920, Note_on_c, 0, 47, 88
3, 19920, Note_on_c, 0, 50, 88
3, 19920, Note_on_c, 0, 55, 88
3, 19920, Note_on_c, 0, 53, 78
3, 20009, Note_on_c, 0, 53, 0
3, 20009, Note_on_c, 0, 55, 0
3, 20024, Note_on_c, 0, 50, 0
3, 20024, Note_on_c, 0, 47, 0
3, 20040, Note_on_c, 0, 49, 110
3, 20040, Note_on_c, 0, 52, 98
3, 20040, Note_on_c, 0, 55, 88
3, 20129, Note_on_c, 0, 52, 0
3, 20129, Note_on_c, 0, 49, 0
3, 20144, Note_on_c, 0, 55, 0
3, 20160, Note_on_c, 0, 53, 88
3, 20160, Note_on_c, 0, 50, 78
3, 20204, Note_on_c, 0, 50, 0
3, 20204, Note_on_c, 0, 53, 0
3, 20220, Note_on_c, 0, 52, 78
3, 20220, Note_on_c, 0, 55, 62
3, 20264, Note_on_c, 0, 52, 0
3, 20279, Note_on_c, 0, 55, 0
3, 20280, Note_on_c, 0, 53, 88
3, 20280, Note_on_c, 0, 57, 78
3, 20309, Note_on_c, 0, 53, 0
3, 20324, Note_on_c, 0, 57, 0
3, 20340, Note_on_c, 0, 55, 78
3, 20340, Note_on_c, 0, 59, 78
3, 20384, Note_on_c, 0, 55, 0
3, 20399, Note_on_c, 0, 59, 0
3, 20400, Note_on_c, 0, 57, 88
3, 20400, Note_on_c, 0, 60, 78
3, 20429, Note_on_c, 0, 60, 0
3, 20444, Note_on_c, 0, 57, 0
3, 20460, Note_on_c, 0, 59, 78
3, 20460, Note_on_c, 0, 62, 88
3, 20489, Note_on_c, 0, 62, 0
3, 20504, Note_on_c, 0, 59, 0
3, 20520, Note_on_c, 0, 64, 78
3, 20520, Note_on_c, 0, 60, 88
3, 20549, Note_on_c, 0, 60, 0
3, 20579, Note_on_c, 0, 64, 0
3, 20580, Note_on_c, 0, 60, 78
3, 20580, Note_on_c, 0, 57, 78
3, 20609, Note_on_c, 0, 57, 0
3, 20609, Note_on_c, 0, 60, 0
3, 20640, Note_on_c, 0, 62, 88
3, 20640, Note_on_c, 0, 55, 78
3, 20699, Note_on_c, 0, 55, 0
3, 20729, Note_on_c, 0, 62, 0
3, 20760, Note_on_c, 0, 52, 88
3, 20760, Note_on_c, 0, 60, 88
3, 20789, Note_on_c, 0, 60, 0
3, 20789, Note_on_c, 0, 52, 0
3, 20820, Note_on_c, 0, 60, 88
3, 20820, Note_on_c, 0, 64, 78
3, 20849, Note_on_c, 0, 64, 0
3, 20849, Note_on_c, 0, 60, 0
3, 20880, Note_on_c, 0, 65, 98
3, 20880, Note_on_c, 0, 53, 78
3, 20909, Note_on_c, 0, 53, 0
3, 20924, Note_on_c, 0, 65, 0
3, 20940, Note_on_c, 0, 64, 88
3, 20940, Note_on_c, 0, 55, 78
3, 20984, Note_on_c, 0, 55, 0
3, 20984, Note_on_c, 0, 64, 0
3, 21000, Note_on_c, 0, 57, 78
3, 21000, Note_on_c, 0, 62, 78
3, 21029, Note_on_c, 0, 57, 0
3, 21044, Note_on_c, 0, 62, 0
3, 21060, Note_on_c, 0, 55, 88
3, 21060, Note_on_c, 0, 61, 98
3, 21060, Note_on_c, 0, 64, 88
3, 21089, Note_on_c, 0, 64, 0
3, 21089, Note_on_c, 0, 61, 0
3, 21104, Note_on_c, 0, 55, 0
3, 21120, Note_on_c, 0, 62, 78
3, 21120, Note_on_c, 0, 53, 70
3, 21194, Note_on_c, 0, 53, 0
3, 21194, Note_on_c, 0, 62, 0
3, 21240, Note_on_c, 0, 69, 88
3, 21240, Note_on_c, 0, 62, 88
3, 21240, Note_on_c, 0, 65, 98
3, 21284, Note_on_c, 0, 65, 0
3, 21284, Note_on_c, 0, 62, 0
3, 21284, Note_on_c, 0, 69, 0
3, 21300, Note_on_c, 0, 50, 70
3, 21359, Note_on_c, 0, 50, 0
3, 21360, Note_on_c, 0, 60, 70
3, 21360, Note_on_c, 0, 52, 70
3, 21404, Note_on_c, 0, 52, 0
3, 21404, Note_on_c, 0, 60, 0
3, 21420, Note_on_c, 0, 62, 78
3, 21420, Note_on_c, 0, 53, 70
3, 21449, Note_on_c, 0, 53, 0
3, 21464, Note_on_c, 0, 62, 0
3, 21480, Note_on_c, 0, 64, 78
3, 21480, Note_on_c, 0, 55, 62
3, 21480, Note_on_c, 0, 60, 70
3, 21509, Note_on_c, 0, 60, 0
3, 21509, Note_on_c, 0, 55, 0
3, 21509, Note_on_c, 0, 64, 0
3, 21540, Note_on_c, 0, 55, 78
3, 21540, Note_on_c, 0, 62, 88
3, 21540, Note_on_c, 0, 53, 70
3, 21569, Note_on_c, 0, 53, 0
3, 21569, Note_on_c, 0, 62, 0
3, 21569, Note_on_c, 0, 55, 0
3, 21600, Note_on_c, 0, 55, 78
3, 21600, Note_on_c, 0, 52, 78
3, 21659, Note_on_c, 0, 52, 0
3, 21659, Note_on_c, 0, 55, 0
3, 21690, Note_on_c, 0, 59, 78
3, 21690, Note_on_c, 0, 65, 88
3, 21704, Note_on_c, 0, 65, 0
3, 21704, Note_on_c, 0, 59, 0
3, 21720, Note_on_c, 0, 60, 88
3, 21720, Note_on_c, 0, 64, 88
3, 21809, Note_on_c, 0, 64, 0
3, 21824, Note_on_c, 0, 60, 0
3, 21840, Note_on_c, 0, 69, 78
3, 21869, Note_on_c, 0, 69, 0
3, 21900, Note_on_c, 0, 57, 49
3, 21914, Note_on_c, 0, 57, 0
3, 21960, Note_on_c, 0, 57, 78
3, 21960, Note_on_c, 0, 53, 70
3, 21989, Note_on_c, 0, 53, 0
3, 22019, Note_on_c, 0, 57, 0
3, 22020, Note_on_c, 0, 52, 70
3, 22064, Note_on_c, 0, 52, 0
3, 22080, Note_on_c, 0, 50, 78
3, 22124, Note_on_c, 0, 50, 0
3, 22140, Note_on_c, 0, 65, 98
3, 22184, Note_on_c, 0, 65, 0
3, 22200, Note_on_c, 0, 65, 88
3, 22200, Note_on_c, 0, 62, 78
3, 22244, Note_on_c, 0, 65, 0
3, 22259, Note_on_c, 0, 62, 0
3, 22260, Note_on_c, 0, 60, 70
3, 22260, Note_on_c, 0, 64, 62
3, 22319, Note_on_c, 0, 64, 0
3, 22319, Note_on_c, 0, 60, 0
3, 22320, Note_on_c, 0, 59, 70
3, 22320, Note_on_c, 0, 62, 70
3, 22349, Note_on_c, 0, 62, 0
3, 22364, Note_on_c, 0, 59, 0
3, 22380, Note_on_c, 0, 65, 88
3, 22380, Note_on_c, 0, 62, 78
3, 22409, Note_on_c, 0, 62, 0
3, 22424, Note_on_c, 0, 65, 0
3, 22440, Note_on_c, 0, 62, 88
3, 22440, Note_on_c, 0, 59, 78
3, 22454, Note_on_c, 0, 62, 0
3, 22469, Note_on_c, 0, 59, 0
3, 22500, Note_on_c, 0, 60, 70
3, 22500, Note_on_c, 0, 57, 70
3, 22514, Note_on_c, 0, 57, 0
3, 22514, Note_on_c, 0, 60, 0
3, 22560, Note_on_c, 0, 65, 110
3, 22560, Note_on_c, 0, 55, 88
3, 22560, Note_on_c, 0, 59, 88
3, 22649, Note_on_c, 0, 55, 0
3, 22664, Note_on_c, 0, 59, 0
3, 22664, Note_on_c, 0, 65, 0
3, 22680, Note_on_c, 0, 55, 78
3, 22754, Note_on_c, 0, 55, 0
3, 22770, Note_on_c, 0, 55, 62
3, 22784, Note_on_c, 0, 55, 0
3, 22800, Note_on_c, 0, 55, 98
3, 22800, Note_on_c, 0, 65, 98
3, 22800, Note_on_c, 0, 59, 98
3, 22904, Note_on_c, 0, 59, 0
3, 22904, Note_on_c, 0, 55, 0
3, 22919, Note_on_c, 0, 65, 0
3, 22920, Note_on_c, 0, 55, 78
3, 22964, Note_on_c, 0, 55, 0
3, 22980, Note_on_c, 0, 55, 70
3, 23024, Note_on_c, 0, 55, 0
3, 23040, Note_on_c, 0, 64, 88
3, 23040, Note_on_c, 0, 60, 88
3, 23144, Note_on_c, 0, 60, 0
3, 23144, Note_on_c, 0, 64, 0
3, 23160, Note_on_c, 0, 57, 88
3, 23160, Note_on_c, 0, 62, 78
3, 23160, Note_on_c, 0, 53, 70
3, 23249, Note_on_c, 0, 53, 0
3, 23264, Note_on_c, 0, 62, 0
3, 23264, Note_on_c, 0, 57, 0
3, 23280, Note_on_c, 0, 64, 88
3, 23280, Note_on_c, 0, 55, 78
3, 23280, Note_on_c, 0, 60, 88
3, 23369, Note_on_c, 0, 60, 0
3, 23369, Note_on_c, 0, 55, 0
3, 23369, Note_on_c, 0, 64, 0
3, 23400, Note_on_c, 0, 62, 78
3, 23400, Note_on_c, 0, 55, 78
3, 23400, Note_on_c, 0, 59, 78
3, 23519, Note_on_c, 0, 59, 0
3, 23519, Note_on_c, 0, 55, 0
3, 23519, Note_on_c, 0, 62, 0
3, 23520, Note_on_c, 0, 52, 70
3, 23520, Note_on_c, 0, 48, 78
3, 23520, Note_on_c, 0, 60, 88
3, 23639, Note_on_c, 0, 60, 0
3, 23639, Note_on_c, 0, 48, 0
3, 23639, Note_on_c, 0, 52, 0
3, 23940, Note_on_c, 0, 67, 70
3, 23969, Note_on_c, 0, 67, 0
3, 24000, Note_on_c, 0, 69, 70
3, 24029, Note_on_c, 0, 69, 0
3, 24030, Note_on_c, 0, 71, 55
3, 24059, Note_on_c, 0, 71, 0
3, 24060, Note_on_c, 0, 67, 62
3, 24089, Note_on_c, 0, 67, 0
3, 24090, Note_on_c, 0, 69, 49
3, 24119, Note_on_c, 0, 69, 0
3, 24120, Note_on_c, 0, 65, 70
3, 24149, Note_on_c, 0, 65, 0
3, 24150, Note_on_c, 0, 67, 13
3, 24179, Note_on_c, 0, 67, 0
3, 24180, Note_on_c, 0, 64, 55
3, 24209, Note_on_c, 0, 64, 0
3, 24210, Note_on_c, 0, 65, 62
3, 24239, Note_on_c, 0, 65, 0
3, 24240, Note_on_c, 0, 62, 70
3, 24419, Note_on_c, 0, 62, 0
3, 24420, Note_on_c, 0, 65, 78
3, 24449, Note_on_c, 0, 65, 0
3, 24450, Note_on_c, 0, 62, 70
3, 24479, Note_on_c, 0, 62, 0
3, 24480, Note_on_c, 0, 67, 62
3, 24509, Note_on_c, 0, 67, 0
3, 24510, Note_on_c, 0, 69, 70
3, 24539, Note_on_c, 0, 69, 0
3, 24540, Note_on_c, 0, 65, 78
3, 24569, Note_on_c, 0, 65, 0
3, 24570, Note_on_c, 0, 67, 55
3, 24599, Note_on_c, 0, 67, 0
3, 24600, Note_on_c, 0, 64, 62
3, 24629, Note_on_c, 0, 64, 0
3, 24630, Note_on_c, 0, 65, 88
3, 24659, Note_on_c, 0, 65, 0
3, 24660, Note_on_c, 0, 62, 70
3, 24660, Note_on_c, 0, 55, 62
3, 24689, Note_on_c, 0, 62, 0
3, 24690, Note_on_c, 0, 64, 70
3, 24704, Note_on_c, 0, 55, 0
3, 24719, Note_on_c, 0, 64, 0
3, 24720, Note_on_c, 0, 60, 70
3, 24779, Note_on_c, 0, 60, 0
3, 24780, Note_on_c, 0, 67, 78
3, 24780, Note_on_c, 0, 59, 78
3, 24809, Note_on_c, 0, 59, 0
3, 24824, Note_on_c, 0, 67, 0
3, 24840, Note_on_c, 0, 60, 70
3, 24840, Note_on_c, 0, 57, 78
3, 24884, Note_on_c, 0, 57, 0
3, 24900, Note_on_c, 0, 55, 62
3, 24959, Note_on_c, 0, 55, 0
3, 24960, Note_on_c, 0, 53, 70
3, 25080, Note_on_c, 0, 62, 78
3, 25094, Note_on_c, 0, 60, 0
3, 25124, Note_on_c, 0, 62, 0
3, 25139, Note_on_c, 0, 53, 0
3, 25140, Note_on_c, 0, 60, 62
3, 25140, Note_on_c, 0, 57, 70
3, 25169, Note_on_c, 0, 57, 0
3, 25169, Note_on_c, 0, 60, 0
3, 25170, Note_on_c, 0, 53, 62
3, 25199, Note_on_c, 0, 53, 0
3, 25200, Note_on_c, 0, 59, 78
3, 25244, Note_on_c, 0, 59, 0
3, 25260, Note_on_c, 0, 57, 88
3, 25260, Note_on_c, 0, 67, 88
3, 25289, Note_on_c, 0, 67, 0
3, 25289, Note_on_c, 0, 57, 0
3, 25320, Note_on_c, 0, 62, 78
3, 25320, Note_on_c, 0, 55, 78
3, 25364, Note_on_c, 0, 55, 0
3, 25380, Note_on_c, 0, 53, 70
3, 25409, Note_on_c, 0, 53, 0
3, 25439, Note_on_c, 0, 62, 0
3, 25440, Note_on_c, 0, 52, 70
3, 25440, Note_on_c, 0, 52, 78
3, 25440, Note_on_c, 0, 64, 88
3, 25484, Note_on_c, 0, 64, 0
3, 25500, Note_on_c, 0, 62, 70
3, 25544, Note_on_c, 0, 62, 0
3, 25560, Note_on_c, 0, 60, 62
3, 25604, Note_on_c, 0, 60, 0
3, 25604, Note_on_c, 0, 52, 0
3, 25620, Note_on_c, 0, 55, 62
3, 25620, Note_on_c, 0, 59, 62
3, 25649, Note_on_c, 0, 59, 0
3, 25649, Note_on_c, 0, 55, 0
3, 25650, Note_on_c, 0, 52, 55
3, 25664, Note_on_c, 0, 52, 0
3, 25679, Note_on_c, 0, 52, 0
3, 25680, Note_on_c, 0, 57, 70
3, 25724, Note_on_c, 0, 57, 0
3, 25740, Note_on_c, 0, 64, 78
3, 25740, Note_on_c, 0, 55, 62
3, 25784, Note_on_c, 0, 55, 0
3, 25799, Note_on_c, 0, 64, 0
3, 25800, Note_on_c, 0, 60, 78
3, 25800, Note_on_c, 0, 53, 78
3, 25844, Note_on_c, 0, 53, 0
3, 25860, Note_on_c, 0, 52, 62
3, 25904, Note_on_c, 0, 52, 0
3, 25920, Note_on_c, 0, 50, 78
3, 25964, Note_on_c, 0, 50, 0
3, 25980, Note_on_c, 0, 48, 70
3, 26009, Note_on_c, 0, 48, 0
3, 26009, Note_on_c, 0, 60, 0
3, 26040, Note_on_c, 0, 55, 70
3, 26040, Note_on_c, 0, 47, 78
3, 26069, Note_on_c, 0, 47, 0
3, 26099, Note_on_c, 0, 55, 0
3, 26100, Note_on_c, 0, 48, 70
3, 26100, Note_on_c, 0, 45, 62
3, 26129, Note_on_c, 0, 45, 0
3, 26159, Note_on_c, 0, 48, 0
3, 26160, Note_on_c, 0, 43, 78
3, 26160, Note_on_c, 0, 53, 78
3, 26160, Note_on_c, 0, 50, 70
3, 26264, Note_on_c, 0, 50, 0
3, 26264, Note_on_c, 0, 53, 0
3, 26264, Note_on_c, 0, 43, 0
3, 26280, Note_on_c, 0, 43, 70
3, 26280, Note_on_c, 0, 50, 88
3, 26280, Note_on_c, 0, 55, 70
3, 26354, Note_on_c, 0, 55, 0
3, 26354, Note_on_c, 0, 50, 0
3, 26354, Note_on_c, 0, 43, 0
3, 26370, Note_on_c, 0, 43, 62
3, 26370, Note_on_c, 0, 50, 78
3, 26370, Note_on_c, 0, 55, 78
3, 26384, Note_on_c, 0, 55, 0
3, 26384, Note_on_c, 0, 50, 0
3, 26384, Note_on_c, 0, 43, 0
3, 26400, Note_on_c, 0, 52, 78
3, 26400, Note_on_c, 0, 48, 88
3, 26400, Note_on_c, 0, 55, 88
3, 26489, Note_on_c, 0, 55, 0
3, 26489, Note_on_c, 0, 48, 0
3, 26489, Note_on_c, 0, 52, 0
3, 26520, Note_on_c, 0, 45, 98
3, 26520, Note_on_c, 0, 57, 98
3, 26609, Note_on_c, 0, 45, 0
3, 26624, Note_on_c, 0, 57, 0
3, 26640, Note_on_c, 0, 41, 78
3, 26640, Note_on_c, 0, 53, 98
3, 26744, Note_on_c, 0, 53, 0
3, 26744, Note_on_c, 0, 41, 0
3, 26760, Note_on_c, 0, 43, 78
3, 26760, Note_on_c, 0, 55, 88
3, 26864, Note_on_c, 0, 55, 0
3, 26864, Note_on_c, 0, 43, 0
3, 26880, Note_on_c, 0, 36, 98
3, 26880, Note_on_c, 0, 48, 88
3, 26984, Note_on_c, 0, 48, 0
3, 26984, Note_on_c, 0, 36, 0
3, 27000, Note_on_c, 0, 60, 98
3, 27000, Note_on_c, 0, 48, 70
3, 27074, Note_on_c, 0, 48, 0
3, 27074, Note_on_c, 0, 60, 0
3, 27090, Note_on_c, 0, 48, 70
3, 27090, Note_on_c, 0, 60, 78
3, 27104, Note_on_c, 0, 60, 0
3, 27104, Note_on_c, 0, 48, 0
3, 27120, Note_on_c, 0, 48, 98
3, 27120, Note_on_c, 0, 36, 98
3, 27164, Note_on_c, 0, 36, 0
3, 27164, Note_on_c, 0, 48, 0
3, 27180, Note_on_c, 0, 38, 98
3, 27180, Note_on_c, 0, 50, 98
3, 27209, Note_on_c, 0, 50, 0
3, 27209, Note_on_c, 0, 38, 0
3, 27240, Note_on_c, 0, 40, 88
3, 27240, Note_on_c, 0, 52, 98
3, 27269, Note_on_c, 0, 52, 0
3, 27269, Note_on_c, 0, 40, 0
3, 27300, Note_on_c, 0, 41, 78
3, 27300, Note_on_c, 0, 53, 98
3, 27329, Note_on_c, 0, 53, 0
3, 27329, Note_on_c, 0, 41, 0
3, 27360, Note_on_c, 0, 43, 78
3, 27360, Note_on_c, 0, 55, 88
3, 27479, Note_on_c, 0, 55, 0
3, 27479, Note_on_c, 0, 43, 0
3, 27480, Note_on_c, 0, 48, 98
3, 27480, Note_on_c, 0, 60, 98
3, 27539, Note_on_c, 0, 60, 0
3, 27554, Note_on_c, 0, 48, 0
3, 27570, Note_on_c, 0, 60, 78
3, 27570, Note_on_c, 0, 48, 78
3, 27584, Note_on_c, 0, 48, 0
3, 27599, Note_on_c, 0, 60, 0
3, 27600, Note_on_c, 0, 40, 88
3, 27600, Note_on_c, 0, 52, 98
3, 27644, Note_on_c, 0, 52, 0
3, 27644, Note_on_c, 0, 40, 0
3, 27660, Note_on_c, 0, 41, 88
3, 27660, Note_on_c, 0, 53, 98
3, 27689, Note_on_c, 0, 53, 0
3, 27689, Note_on_c, 0, 41, 0
3, 27720, Note_on_c, 0, 43, 78
3, 27720, Note_on_c, 0, 55, 88
3, 27749, Note_on_c, 0, 43, 0
3, 27764, Note_on_c, 0, 55, 0
3, 27780, Note_on_c, 0, 45, 88
3, 27780, Note_on_c, 0, 57, 98
3, 27824, Note_on_c, 0, 57, 0
3, 27824, Note_on_c, 0, 45, 0
3, 27840, Note_on_c, 0, 58, 110
3, 27840, Note_on_c, 0, 46, 110
3, 27944, Note_on_c, 0, 46, 0
3, 27944, Note_on_c, 0, 58, 0
3, 27960, Note_on_c, 0, 48, 98
3, 27960, Note_on_c, 0, 60, 78
3, 28034, Note_on_c, 0, 60, 0
3, 28034, Note_on_c, 0, 48, 0
3, 28050, Note_on_c, 0, 48, 70
3, 28050, Note_on_c, 0, 60, 88
3, 28064, Note_on_c, 0, 60, 0
3, 28064, Note_on_c, 0, 48, 0
3, 28080, Note_on_c, 0, 58, 98
3, 28080, Note_on_c, 0, 46, 98
3, 28124, Note_on_c, 0, 46, 0
3, 28124, Note_on_c, 0, 58, 0
3, 28140, Note_on_c, 0, 57, 98
3, 28140, Note_on_c, 0, 45, 98
3, 28169, Note_on_c, 0, 45, 0
3, 28184, Note_on_c, 0, 57, 0
3, 28200, Note_on_c, 0, 55, 88
3, 28200, Note_on_c, 0, 43, 78
3, 28229, Note_on_c, 0, 43, 0
3, 28229, Note_on_c, 0, 55, 0
3, 28260, Note_on_c, 0, 41, 78
3, 28260, Note_on_c, 0, 53, 98
3, 28289, Note_on_c, 0, 41, 0
3, 28304, Note_on_c, 0, 53, 0
3, 28320, Note_on_c, 0, 40, 88
3, 28320, Note_on_c, 0, 52, 98
3, 28439, Note_on_c, 0, 52, 0
3, 28439, Note_on_c, 0, 40, 0
3, 28560, Note_on_c, 0, 60, 98
3, 28620, Note_on_c, 0, 53, 49
3, 28649, Note_on_c, 0, 53, 0
3, 28680, Note_on_c, 0, 53, 62
3, 28709, Note_on_c, 0, 53, 0
3, 28740, Note_on_c, 0, 53, 55
3, 28769, Note_on_c, 0, 53, 0
3, 28769, Note_on_c, 0, 60, 0
3, 28800, Note_on_c, 0, 56, 98
3, 28800, Note_on_c, 0, 53, 78
3, 28919, Note_on_c, 0, 53, 0
3, 28919, Note_on_c, 0, 56, 0
3, 29040, Note_on_c, 0, 55, 62
3, 29100, Note_on_c, 0, 51, 70
3, 29129, Note_on_c, 0, 51, 0
3, 29160, Note_on_c, 0, 51, 70
3, 29204, Note_on_c, 0, 51, 0
3, 29220, Note_on_c, 0, 51, 78
3, 29264, Note_on_c, 0, 51, 0
3, 29264, Note_on_c, 0, 55, 0
3, 29280, Note_on_c, 0, 51, 88
3, 29280, Note_on_c, 0, 55, 78
3, 29399, Note_on_c, 0, 55, 0
3, 29399, Note_on_c, 0, 51, 0
3, 29520, Note_on_c, 0, 56, 78
3, 29580, Note_on_c, 0, 51, 62
3, 29609, Note_on_c, 0, 51, 0
3, 29640, Note_on_c, 0, 51, 55
3, 29669, Note_on_c, 0, 51, 0
3, 29700, Note_on_c, 0, 51, 62
3, 29729, Note_on_c, 0, 51, 0
3, 29729, Note_on_c, 0, 56, 0
3, 29760, Note_on_c, 0, 58, 78
3, 29760, Note_on_c, 0, 50, 62
3, 29760, Note_on_c, 0, 58, 88
3, 29834, Note_on_c, 0, 50, 0
3, 29849, Note_on_c, 0, 58, 0
3, 29880, Note_on_c, 0, 51, 70
3, 29969, Note_on_c, 0, 58, 0
3, 29984, Note_on_c, 0, 51, 0
3, 30000, Note_on_c, 0, 44, 78
3, 30000, Note_on_c, 0, 51, 78
3, 30000, Note_on_c, 0, 60, 78
3, 30104, Note_on_c, 0, 44, 0
3, 30119, Note_on_c, 0, 51, 0
3, 30120, Note_on_c, 0, 45, 78
3, 30120, Note_on_c, 0, 54, 98
3, 30209, Note_on_c, 0, 54, 0
3, 30224, Note_on_c, 0, 45, 0
3, 30224, Note_on_c, 0, 60, 0
3, 30240, Note_on_c, 0, 46, 78
3, 30240, Note_on_c, 0, 55, 78
3, 30240, Note_on_c, 0, 58, 78
3, 30269, Note_on_c, 0, 55, 0
3, 30284, Note_on_c, 0, 58, 0
3, 30284, Note_on_c, 0, 46, 0
3, 30300, Note_on_c, 0, 46, 70
3, 30300, Note_on_c, 0, 51, 78
3, 30300, Note_on_c, 0, 55, 78
3, 30329, Note_on_c, 0, 55, 0
3, 30329, Note_on_c, 0, 51, 0
3, 30344, Note_on_c, 0, 46, 0
3, 30360, Note_on_c, 0, 46, 70
3, 30360, Note_on_c, 0, 56, 98
3, 30360, Note_on_c, 0, 53, 78
3, 30389, Note_on_c, 0, 53, 0
3, 30404, Note_on_c, 0, 56, 0
3, 30404, Note_on_c, 0, 46, 0
3, 30420, Note_on_c, 0, 46, 78
3, 30420, Note_on_c, 0, 50, 70
3, 30420, Note_on_c, 0, 53, 78
3, 30449, Note_on_c, 0, 53, 0
3, 30449, Note_on_c, 0, 50, 0
3, 30449, Note_on_c, 0, 46, 0
3, 30480, Note_on_c, 0, 39, 98
3, 30480, Note_on_c, 0, 51, 78
3, 30584, Note_on_c, 0, 51, 0
3, 30584, Note_on_c, 0, 39, 0
3, 30585, Note_on_c, 0, 46, 70
3, 30599, Note_on_c, 0, 46, 0
3, 30600, Note_on_c, 0, 39, 88
3, 30600, Note_on_c, 0, 51, 88
3, 30644, Note_on_c, 0, 51, 0
3, 30644, Note_on_c, 0, 39, 0
3, 30645, Note_on_c, 0, 46, 62
3, 30659, Note_on_c, 0, 46, 0
3, 30660, Note_on_c, 0, 51, 88
3, 30660, Note_on_c, 0, 39, 98
3, 30704, Note_on_c, 0, 39, 0
3, 30704, Note_on_c, 0, 51, 0
3, 30705, Note_on_c, 0, 46, 70
3, 30719, Note_on_c, 0, 46, 0
3, 30720, Note_on_c, 0, 39, 88
3, 30720, Note_on_c, 0, 51, 88
3, 30720, Note_on_c, 0, 39, 98
3, 30720, Note_on_c, 0, 51, 78
3, 30749, Note_on_c, 0, 51, 0
3, 30749, Note_on_c, 0, 39, 0
3, 30780, Note_on_c, 0, 39, 88
3, 30780, Note_on_c, 0, 51, 78
3, 30809, Note_on_c, 0, 51, 0
3, 30809, Note_on_c, 0, 39, 0
3, 30824, Note_on_c, 0, 51, 0
3, 30824, Note_on_c, 0, 39, 0
3, 30840, Note_on_c, 0, 39, 88
3, 30840, Note_on_c, 0, 51, 78
3, 30869, Note_on_c, 0, 51, 0
3, 30869, Note_on_c, 0, 39, 0
3, 30900, Note_on_c, 0, 39, 78
3, 30900, Note_on_c, 0, 51, 70
3, 30929, Note_on_c, 0, 51, 0
3, 30929, Note_on_c, 0, 39, 0
3, 30960, Note_on_c, 0, 39, 88
3, 30960, Note_on_c, 0, 51, 70
3, 30989, Note_on_c, 0, 51, 0
3, 30989, Note_on_c, 0, 39, 0
3, 31020, Note_on_c, 0, 51, 78
3, 31020, Note_on_c, 0, 63, 98
3, 31020, Note_on_c, 0, 59, 78
3, 31049, Note_on_c, 0, 59, 0
3, 31049, Note_on_c, 0, 63, 0
3, 31049, Note_on_c, 0, 51, 0
3, 31080, Note_on_c, 0, 59, 88
3, 31080, Note_on_c, 0, 51, 70
3, 31080, Note_on_c, 0, 56, 98
3, 31109, Note_on_c, 0, 56, 0
3, 31109, Note_on_c, 0, 51, 0
3, 31109, Note_on_c, 0, 59, 0
3, 31140, Note_on_c, 0, 59, 78
3, 31140, Note_on_c, 0, 51, 78
3, 31140, Note_on_c, 0, 56, 88
3, 31169, Note_on_c, 0, 56, 0
3, 31169, Note_on_c, 0, 51, 0
3, 31169, Note_on_c, 0, 59, 0
3, 31200, Note_on_c, 0, 52, 78
3, 31200, Note_on_c, 0, 40, 78
3, 31229, Note_on_c, 0, 40, 0
3, 31244, Note_on_c, 0, 52, 0
3, 31260, Note_on_c, 0, 40, 70
3, 31260, Note_on_c, 0, 52, 78
3, 31289, Note_on_c, 0, 52, 0
3, 31289, Note_on_c, 0, 40, 0
3, 31320, Note_on_c, 0, 40, 70
3, 31320, Note_on_c, 0, 52, 78
3, 31349, Note_on_c, 0, 52, 0
3, 31349, Note_on_c, 0, 40, 0
3, 31380, Note_on_c, 0, 40, 78
3, 31380, Note_on_c, 0, 52, 78
3, 31409, Note_on_c, 0, 52, 0
3, 31424, Note_on_c, 0, 40, 0
3, 31440, Note_on_c, 0, 41, 70
3, 31440, Note_on_c, 0, 53, 88
3, 31469, Note_on_c, 0, 53, 0
3, 31484, Note_on_c, 0, 41, 0
3, 31500, Note_on_c, 0, 61, 88
3, 31500, Note_on_c, 0, 58, 98
3, 31500, Note_on_c, 0, 53, 78
3, 31529, Note_on_c, 0, 53, 0
3, 31529, Note_on_c, 0, 58, 0
3, 31529, Note_on_c, 0, 61, 0
3, 31560, Note_on_c, 0, 61, 88
3, 31560, Note_on_c, 0, 53, 78
3, 31560, Note_on_c, 0, 65, 88
3, 31589, Note_on_c, 0, 65, 0
3, 31589, Note_on_c, 0, 53, 0
3, 31589, Note_on_c, 0, 61, 0
3, 31620, Note_on_c, 0, 61, 98
3, 31620, Note_on_c, 0, 58, 98
3, 31620, Note_on_c, 0, 53, 78
3, 31649, Note_on_c, 0, 58, 0
3, 31649, Note_on_c, 0, 61, 0
3, 31664, Note_on_c, 0, 53, 0
3, 31680, Note_on_c, 0, 42, 88
3, 31680, Note_on_c, 0, 54, 110
3, 31709, Note_on_c, 0, 42, 0
3, 31724, Note_on_c, 0, 54, 0
3, 31740, Note_on_c, 0, 42, 88
3, 31740, Note_on_c, 0, 54, 98
3, 31784, Note_on_c, 0, 54, 0
3, 31784, Note_on_c, 0, 42, 0
3, 31800, Note_on_c, 0, 42, 88
3, 31800, Note_on_c, 0, 54, 98
3, 31829, Note_on_c, 0, 54, 0
3, 31829, Note_on_c, 0, 42, 0
3, 31860, Note_on_c, 0, 42, 78
3, 31860, Note_on_c, 0, 54, 88
3, 31904, Note_on_c, 0, 54, 0
3, 31904, Note_on_c, 0, 42, 0
3, 31920, Note_on_c, 0, 43, 70
3, 31920, Note_on_c, 0, 55, 78
3, 31964, Note_on_c, 0, 55, 0
3, 31964, Note_on_c, 0, 43, 0
3, 31980, Note_on_c, 0, 60, 88
3, 31980, Note_on_c, 0, 55, 78
3, 32009, Note_on_c, 0, 60, 0
3, 32024, Note_on_c, 0, 55, 0
3, 32040, Note_on_c, 0, 63, 98
3, 32040, Note_on_c, 0, 60, 78
3, 32040, Note_on_c, 0, 55, 62
3, 32084, Note_on_c, 0, 55, 0
3, 32084, Note_on_c, 0, 60, 0
3, 32084, Note_on_c, 0, 63, 0
3, 32100, Note_on_c, 0, 63, 98
3, 32100, Note_on_c, 0, 55, 70
3, 32144, Note_on_c, 0, 55, 0
3, 32144, Note_on_c, 0, 63, 0
3, 32160, Note_on_c, 0, 44, 88
3, 32160, Note_on_c, 0, 56, 98
3, 32294, Note_on_c, 0, 56, 0
3, 32294, Note_on_c, 0, 44, 0
3, 32310, Note_on_c, 0, 56, 88
3, 32339, Note_on_c, 0, 56, 0
3, 32340, Note_on_c, 0, 55, 78
3, 32369, Note_on_c, 0, 55, 0
3, 32370, Note_on_c, 0, 53, 78
3, 32399, Note_on_c, 0, 53, 0
3, 32400, Note_on_c, 0, 55, 98
3, 32400, Note_on_c, 0, 51, 98
3, 32519, Note_on_c, 0, 51, 0
3, 32550, Note_on_c, 0, 51, 88
3, 32579, Note_on_c, 0, 51, 0
3, 32580, Note_on_c, 0, 50, 62
3, 32609, Note_on_c, 0, 50, 0
3, 32610, Note_on_c, 0, 48, 55
3, 32624, Note_on_c, 0, 55, 0
3, 32639, Note_on_c, 0, 48, 0
3, 32640, Note_on_c, 0, 55, 78
3, 32640, Note_on_c, 0, 47, 70
3, 32759, Note_on_c, 0, 47, 0
3, 32774, Note_on_c, 0, 55, 0
3, 32790, Note_on_c, 0, 47, 70
3, 32819, Note_on_c, 0, 47, 0
3, 32820, Note_on_c, 0, 45, 55
3, 32849, Note_on_c, 0, 45, 0
3, 32850, Note_on_c, 0, 43, 55
3, 32879, Note_on_c, 0, 43, 0
3, 32880, Note_on_c, 0, 48, 62
3, 32894, Note_on_c, 0, 48, 0
3, 32895, Note_on_c, 0, 63, 88
3, 32909, Note_on_c, 0, 63, 0
3, 32910, Note_on_c, 0, 62, 62
3, 32924, Note_on_c, 0, 62, 0
3, 32925, Note_on_c, 0, 63, 78
3, 32939, Note_on_c, 0, 63, 0
3, 32940, Note_on_c, 0, 65, 70
3, 32954, Note_on_c, 0, 65, 0
3, 32955, Note_on_c, 0, 63, 88
3, 32969, Note_on_c, 0, 63, 0
3, 32970, Note_on_c, 0, 67, 55
3, 32984, Note_on_c, 0, 67, 0
3, 32985, Note_on_c, 0, 63, 70
3, 32999, Note_on_c, 0, 63, 0
3, 33000, Note_on_c, 0, 46, 78
3, 33014, Note_on_c, 0, 46, 0
3, 33015, Note_on_c, 0, 61, 78
3, 33029, Note_on_c, 0, 61, 0
3, 33030, Note_on_c, 0, 60, 55
3, 33044, Note_on_c, 0, 60, 0
3, 33045, Note_on_c, 0, 61, 78
3, 33059, Note_on_c, 0, 61, 0
3, 33060, Note_on_c, 0, 63, 98
3, 33074, Note_on_c, 0, 63, 0
3, 33075, Note_on_c, 0, 61, 62
3, 33089, Note_on_c, 0, 61, 0
3, 33090, Note_on_c, 0, 65, 70
3, 33104, Note_on_c, 0, 65, 0
3, 33105, Note_on_c, 0, 61, 70
3, 33119, Note_on_c, 0, 61, 0
3, 33120, Note_on_c, 0, 44, 88
3, 33134, Note_on_c, 0, 44, 0
3, 33135, Note_on_c, 0, 60, 70
3, 33149, Note_on_c, 0, 60, 0
3, 33150, Note_on_c, 0, 59, 49
3, 33164, Note_on_c, 0, 59, 0
3, 33165, Note_on_c, 0, 60, 55
3, 33179, Note_on_c, 0, 60, 0
3, 33180, Note_on_c, 0, 62, 62
3, 33194, Note_on_c, 0, 62, 0
3, 33195, Note_on_c, 0, 60, 55
3, 33209, Note_on_c, 0, 60, 0
3, 33210, Note_on_c, 0, 63, 78
3, 33224, Note_on_c, 0, 63, 0
3, 33225, Note_on_c, 0, 60, 55
3, 33239, Note_on_c, 0, 60, 0
3, 33240, Note_on_c, 0, 56, 88
3, 33254, Note_on_c, 0, 56, 0
3, 33255, Note_on_c, 0, 72, 88
3, 33269, Note_on_c, 0, 72, 0
3, 33270, Note_on_c, 0, 71, 62
3, 33284, Note_on_c, 0, 71, 0
3, 33285, Note_on_c, 0, 72, 62
3, 33299, Note_on_c, 0, 72, 0
3, 33300, Note_on_c, 0, 74, 70
3, 33314, Note_on_c, 0, 74, 0
3, 33315, Note_on_c, 0, 72, 62
3, 33329, Note_on_c, 0, 72, 0
3, 33330, Note_on_c, 0, 75, 78
3, 33344, Note_on_c, 0, 75, 0
3, 33345, Note_on_c, 0, 72, 44
3, 33359, Note_on_c, 0, 72, 0
3, 33360, Note_on_c, 0, 67, 62
3, 33374, Note_on_c, 0, 67, 0
3, 33375, Note_on_c, 0, 66, 88
3, 33389, Note_on_c, 0, 66, 0
3, 33390, Note_on_c, 0, 67, 62
3, 33404, Note_on_c, 0, 67, 0
3, 33405, Note_on_c, 0, 62, 62
3, 33419, Note_on_c, 0, 62, 0
3, 33420, Note_on_c, 0, 63, 88
3, 33434, Note_on_c, 0, 63, 0
3, 33435, Note_on_c, 0, 59, 62
3, 33449, Note_on_c, 0, 59, 0
3, 33450, Note_on_c, 0, 60, 49
3, 33464, Note_on_c, 0, 60, 0
3, 33465, Note_on_c, 0, 55, 30
3, 33479, Note_on_c, 0, 55, 0
3, 33495, Note_on_c, 0, 64, 88
3, 33509, Note_on_c, 0, 64, 0
3, 33510, Note_on_c, 0, 65, 78
3, 33524, Note_on_c, 0, 65, 0
3, 33525, Note_on_c, 0, 61, 70
3, 33539, Note_on_c, 0, 61, 0
3, 33540, Note_on_c, 0, 62, 62
3, 33554, Note_on_c, 0, 62, 0
3, 33555, Note_on_c, 0, 57, 70
3, 33569, Note_on_c, 0, 57, 0
3, 33570, Note_on_c, 0, 59, 70
3, 33584, Note_on_c, 0, 59, 0
3, 33585, Note_on_c, 0, 55, 62
3, 33599, Note_on_c, 0, 55, 0
3, 33600, Note_on_c, 0, 48, 62
3, 33600, Note_on_c, 0, 60, 78
3, 33659, Note_on_c, 0, 60, 0
3, 33659, Note_on_c, 0, 48, 0
3, 33720, Note_on_c, 0, 41, 70
3, 33779, Note_on_c, 0, 41, 0
3, 33840, Note_on_c, 0, 43, 49
3, 33899, Note_on_c, 0, 43, 0
3, 33960, Note_on_c, 0, 43, 35
3, 34064, Note_on_c, 0, 43, 0
3, 34080, Note_on_c, 0, 36, 98
3, 34080, Note_on_c, 0, 48, 98
3, 34169, Note_on_c, 0, 48, 0
3, 34169, Note_on_c, 0, 36, 0
3, 34200, Note_on_c, 0, 60, 98
3, 34200, Note_on_c, 0, 48, 70
3, 34274, Note_on_c, 0, 48, 0
3, 34274, Note_on_c, 0, 60, 0
3, 34290, Note_on_c, 0, 48, 78
3, 34290, Note_on_c, 0, 60, 78
3, 34304, Note_on_c, 0, 60, 0
3, 34304, Note_on_c, 0, 48, 0
3, 34320, Note_on_c, 0, 48, 88
3, 34320, Note_on_c, 0, 36, 98
3, 34349, Note_on_c, 0, 36, 0
3, 34364, Note_on_c, 0, 48, 0
3, 34380, Note_on_c, 0, 38, 88
3, 34380, Note_on_c, 0, 50, 88
3, 34409, Note_on_c, 0, 50, 0
3, 34409, Note_on_c, 0, 38, 0
3, 34440, Note_on_c, 0, 40, 88
3, 34440, Note_on_c, 0, 52, 88
3, 34469, Note_on_c, 0, 52, 0
3, 34469, Note_on_c, 0, 40, 0
3, 34500, Note_on_c, 0, 41, 88
3, 34500, Note_on_c, 0, 53, 88
3, 34529, Note_on_c, 0, 53, 0
3, 34529, Note_on_c, 0, 41, 0
3, 34560, Note_on_c, 0, 43, 78
3, 34560, Note_on_c, 0, 55, 98
3, 34664, Note_on_c, 0, 55, 0
3, 34664, Note_on_c, 0, 43, 0
3, 34680, Note_on_c, 0, 48, 98
3, 34680, Note_on_c, 0, 60, 98
3, 34739, Note_on_c, 0, 60, 0
3, 34754, Note_on_c, 0, 48, 0
3, 34770, Note_on_c, 0, 48, 78
3, 34770, Note_on_c, 0, 60, 70
3, 34784, Note_on_c, 0, 60, 0
3, 34784, Note_on_c, 0, 48, 0
3, 34800, Note_on_c, 0, 40, 88
3, 34800, Note_on_c, 0, 52, 78
3, 34844, Note_on_c, 0, 52, 0
3, 34844, Note_on_c, 0, 40, 0
3, 34860, Note_on_c, 0, 41, 88
3, 34860, Note_on_c, 0, 53, 88
3, 34904, Note_on_c, 0, 53, 0
3, 34904, Note_on_c, 0, 41, 0
3, 34920, Note_on_c, 0, 43, 78
3, 34920, Note_on_c, 0, 55, 88
3, 34949, Note_on_c, 0, 43, 0
3, 34964, Note_on_c, 0, 55, 0
3, 34980, Note_on_c, 0, 45, 78
3, 34980, Note_on_c, 0, 57, 88
3, 35009, Note_on_c, 0, 45, 0
3, 35024, Note_on_c, 0, 57, 0
3, 35040, Note_on_c, 0, 58, 98
3, 35040, Note_on_c, 0, 46, 98
3, 35129, Note_on_c, 0, 46, 0
3, 35144, Note_on_c, 0, 58, 0
3, 35160, Note_on_c, 0, 48, 78
3, 35160, Note_on_c, 0, 60, 78
3, 35234, Note_on_c, 0, 60, 0
3, 35234, Note_on_c, 0, 48, 0
3, 35250, Note_on_c, 0, 48, 70
3, 35250, Note_on_c, 0, 60, 88
3, 35264, Note_on_c, 0, 60, 0
3, 35264, Note_on_c, 0, 48, 0
3, 35280, Note_on_c, 0, 46, 88
3, 35280, Note_on_c, 0, 58, 98
3, 35324, Note_on_c, 0, 58, 0
3, 35324, Note_on_c, 0, 46, 0
3, 35340, Note_on_c, 0, 45, 88
3, 35340, Note_on_c, 0, 57, 88
3, 35369, Note_on_c, 0, 45, 0
3, 35384, Note_on_c, 0, 57, 0
3, 35400, Note_on_c, 0, 55, 88
3, 35400, Note_on_c, 0, 43, 78
3, 35444, Note_on_c, 0, 43, 0
3, 35444, Note_on_c, 0, 55, 0
3, 35460, Note_on_c, 0, 41, 78
3, 35460, Note_on_c, 0, 53, 88
3, 35504, Note_on_c, 0, 53, 0
3, 35504, Note_on_c, 0, 41, 0
3, 35520, Note_on_c, 0, 52, 88
3, 35520, Note_on_c, 0, 40, 78
3, 35594, Note_on_c, 0, 40, 0
3, 35594, Note_on_c, 0, 52, 0
3, 35640, Note_on_c, 0, 41, 78
3, 35640, Note_on_c, 0, 53, 88
3, 35744, Note_on_c, 0, 41, 0
3, 35759, Note_on_c, 0, 53, 0
3, 35760, Note_on_c, 0, 40, 78
3, 35760, Note_on_c, 0, 52, 78
3, 35819, Note_on_c, 0, 52, 0
3, 35819, Note_on_c, 0, 40, 0
3, 35820, Note_on_c, 0, 48, 78
3, 35820, Note_on_c, 0, 60, 88
3, 35849, Note_on_c, 0, 48, 0
3, 35879, Note_on_c, 0, 60, 0
3, 35880, Note_on_c, 0, 50, 70
3, 35880, Note_on_c, 0, 62, 88
3, 35939, Note_on_c, 0, 62, 0
3, 35939, Note_on_c, 0, 50, 0
3, 35940, Note_on_c, 0, 43, 70
3, 35940, Note_on_c, 0, 55, 78
3, 35984, Note_on_c, 0, 55, 0
3, 35984, Note_on_c, 0, 43, 0
3, 36000, Note_on_c, 0, 48, 88
3, 36059, Note_on_c, 0, 48, 0
3, 36060, Note_on_c, 0, 64, 88
3, 36060, Note_on_c, 0, 60, 98
3, 36089, Note_on_c, 0, 60, 0
3, 36089, Note_on_c, 0, 64, 0
3, 36120, Note_on_c, 0, 60, 88
3, 36120, Note_on_c, 0, 64, 88
3, 36209, Note_on_c, 0, 64, 0
3, 36209, Note_on_c, 0, 60, 0
3, 36240, Note_on_c, 0, 36, 88
3, 36240, Note_on_c, 0, 48, 78
3, 36284, Note_on_c, 0, 48, 0
3, 36299, Note_on_c, 0, 36, 0
3, 36300, Note_on_c, 0, 50, 78
3, 36300, Note_on_c, 0, 38, 70
3, 36359, Note_on_c, 0, 38, 0
3, 36359, Note_on_c, 0, 50, 0
3, 36360, Note_on_c, 0, 40, 78
3, 36360, Note_on_c, 0, 52, 78
3, 36404, Note_on_c, 0, 52, 0
3, 36404, Note_on_c, 0, 40, 0
3, 36420, Note_on_c, 0, 52, 78
3, 36420, Note_on_c, 0, 50, 78
3, 36464, Note_on_c, 0, 50, 0
3, 36464, Note_on_c, 0, 52, 0
3, 36480, Note_on_c, 0, 52, 78
3, 36480, Note_on_c, 0, 48, 78
3, 36569, Note_on_c, 0, 48, 0
3, 36569, Note_on_c, 0, 52, 0
3, 36600, Note_on_c, 0, 60, 88
3, 36600, Note_on_c, 0, 64, 88
3, 36674, Note_on_c, 0, 64, 0
3, 36674, Note_on_c, 0, 60, 0
3, 36720, Note_on_c, 0, 55, 88
3, 36720, Note_on_c, 0, 47, 88
3, 36720, Note_on_c, 0, 50, 88
3, 36749, Note_on_c, 0, 50, 0
3, 36749, Note_on_c, 0, 47, 0
3, 36749, Note_on_c, 0, 55, 0
3, 36780, Note_on_c, 0, 57, 88
3, 36780, Note_on_c, 0, 48, 78
3, 36780, Note_on_c, 0, 52, 78
3, 36809, Note_on_c, 0, 52, 0
3, 36809, Note_on_c, 0, 48, 0
3, 36809, Note_on_c, 0, 57, 0
3, 36840, Note_on_c, 0, 59, 88
3, 36840, Note_on_c, 0, 50, 78
3, 36840, Note_on_c, 0, 55, 88
3, 36884, Note_on_c, 0, 55, 0
3, 36884, Note_on_c, 0, 50, 0
3, 36884, Note_on_c, 0, 59, 0
3, 36900, Note_on_c, 0, 54, 98
3, 36900, Note_on_c, 0, 48, 78
3, 36900, Note_on_c, 0, 57, 88
3, 36929, Note_on_c, 0, 57, 0
3, 36929, Note_on_c, 0, 48, 0
3, 36929, Note_on_c, 0, 54, 0
3, 36960, Note_on_c, 0, 50, 88
3, 36960, Note_on_c, 0, 55, 88
3, 36960, Note_on_c, 0, 47, 78
3, 37079, Note_on_c, 0, 47, 0
3, 37079, Note_on_c, 0, 55, 0
3, 37079, Note_on_c, 0, 50, 0
3, 37200, Note_on_c, 0, 36, 88
3, 37200, Note_on_c, 0, 48, 78
3, 37289, Note_on_c, 0, 48, 0
3, 37289, Note_on_c, 0, 36, 0
3, 37320, Note_on_c, 0, 60, 88
3, 37320, Note_on_c, 0, 64, 88
3, 37380, Note_on_c, 0, 59, 78
3, 37394, Note_on_c, 0, 60, 0
3, 37439, Note_on_c, 0, 59, 0
3, 37440, Note_on_c, 0, 57, 78
3, 37499, Note_on_c, 0, 57, 0
3, 37500, Note_on_c, 0, 60, 78
3, 37514, Note_on_c, 0, 64, 0
3, 37544, Note_on_c, 0, 60, 0
3, 37560, Note_on_c, 0, 57, 70
3, 37560, Note_on_c, 0, 60, 70
3, 37589, Note_on_c, 0, 57, 0
3, 37604, Note_on_c, 0, 60, 0
3, 37620, Note_on_c, 0, 59, 62
3, 37620, Note_on_c, 0, 55, 55
3, 37649, Note_on_c, 0, 55, 0
3, 37649, Note_on_c, 0, 59, 0
3, 37680, Note_on_c, 0, 54, 70
3, 37680, Note_on_c, 0, 57, 70
3, 37724, Note_on_c, 0, 57, 0
3, 37739, Note_on_c, 0, 54, 0
3, 37740, Note_on_c, 0, 57, 78
3, 37740, Note_on_c, 0, 60, 62
3, 37784, Note_on_c, 0, 60, 0
3, 37784, Note_on_c, 0, 57, 0
3, 37800, Note_on_c, 0, 57, 70
3, 37800, Note_on_c, 0, 54, 70
3, 37814, Note_on_c, 0, 57, 0
3, 37829, Note_on_c, 0, 54, 0
3, 37860, Note_on_c, 0, 55, 62
3, 37860, Note_on_c, 0, 52, 55
3, 37889, Note_on_c, 0, 52, 0
3, 37889, Note_on_c, 0, 55, 0
3, 37920, Note_on_c, 0, 54, 98
3, 37920, Note_on_c, 0, 57, 70
3, 37920, Note_on_c, 0, 50, 70
3, 38009, Note_on_c, 0, 50, 0
3, 38009, Note_on_c, 0, 57, 0
3, 38009, Note_on_c, 0, 54, 0
3, 38040, Note_on_c, 0, 62, 88
3, 38040, Note_on_c, 0, 60, 88
3, 38114, Note_on_c, 0, 60, 0
3, 38114, Note_on_c, 0, 62, 0
3, 38130, Note_on_c, 0, 60, 78
3, 38130, Note_on_c, 0, 62, 88
3, 38144, Note_on_c, 0, 62, 0
3, 38144, Note_on_c, 0, 60, 0
3, 38160, Note_on_c, 0, 60, 78
3, 38160, Note_on_c, 0, 62, 78
3, 38234, Note_on_c, 0, 62, 0
3, 38234, Note_on_c, 0, 60, 0
3, 38280, Note_on_c, 0, 60, 70
3, 38280, Note_on_c, 0, 50, 70
3, 38280, Note_on_c, 0, 54, 98
3, 38324, Note_on_c, 0, 50, 0
3, 38340, Note_on_c, 0, 50, 78
3, 38354, Note_on_c, 0, 54, 0
3, 38369, Note_on_c, 0, 50, 0
3, 38369, Note_on_c, 0, 60, 0
3, 38400, Note_on_c, 0, 55, 88
3, 38400, Note_on_c, 0, 59, 78
3, 38489, Note_on_c, 0, 59, 0
3, 38489, Note_on_c, 0, 55, 0
3, 38520, Note_on_c, 0, 48, 70
3, 38520, Note_on_c, 0, 57, 78
3, 38520, Note_on_c, 0, 52, 88
3, 38624, Note_on_c, 0, 52, 0
3, 38624, Note_on_c, 0, 57, 0
3, 38624, Note_on_c, 0, 48, 0
3, 38640, Note_on_c, 0, 55, 88
3, 38640, Note_on_c, 0, 59, 78
3, 38640, Note_on_c, 0, 50, 70
3, 38729, Note_on_c, 0, 59, 0
3, 38729, Note_on_c, 0, 55, 0
3, 38744, Note_on_c, 0, 50, 0
3, 38760, Note_on_c, 0, 54, 98
3, 38760, Note_on_c, 0, 57, 88
3, 38760, Note_on_c, 0, 50, 70
3, 38849, Note_on_c, 0, 57, 0
3, 38864, Note_on_c, 0, 50, 0
3, 38864, Note_on_c, 0, 54, 0
3, 38880, Note_on_c, 0, 55, 78
3, 38880, Note_on_c, 0, 43, 78
3, 38880, Note_on_c, 0, 50, 78
3, 38984, Note_on_c, 0, 50, 0
3, 38984, Note_on_c, 0, 43, 0
3, 38984, Note_on_c, 0, 55, 0
3, 39000, Note_on_c, 0, 55, 88
3, 39074, Note_on_c, 0, 55, 0
3, 39090, Note_on_c, 0, 55, 78
3, 39119, Note_on_c, 0, 55, 0
3, 39120, Note_on_c, 0, 43, 98
3, 39149, Note_on_c, 0, 43, 0
3, 39180, Note_on_c, 0, 45, 88
3, 39224, Note_on_c, 0, 45, 0
3, 39240, Note_on_c, 0, 47, 98
3, 39269, Note_on_c, 0, 47, 0
3, 39300, Note_on_c, 0, 48, 98
3, 39329, Note_on_c, 0, 48, 0
3, 39360, Note_on_c, 0, 50, 88
3, 39479, Note_on_c, 0, 50, 0
3, 39600, Note_on_c, 0, 47, 88
3, 39600, Note_on_c, 0, 59, 98
3, 39629, Note_on_c, 0, 59, 0
3, 39629, Note_on_c, 0, 47, 0
3, 39660, Note_on_c, 0, 60, 98
3, 39660, Note_on_c, 0, 48, 78
3, 39689, Note_on_c, 0, 48, 0
3, 39689, Note_on_c, 0, 60, 0
3, 39720, Note_on_c, 0, 62, 98
3, 39720, Note_on_c, 0, 50, 78
3, 39749, Note_on_c, 0, 50, 0
3, 39749, Note_on_c, 0, 62, 0
3, 39780, Note_on_c, 0, 52, 62
3, 39780, Note_on_c, 0, 64, 98
3, 39809, Note_on_c, 0, 64, 0
3, 39824, Note_on_c, 0, 52, 0
3, 39840, Note_on_c, 0, 53, 88
3, 39840, Note_on_c, 0, 65, 98
3, 39869, Note_on_c, 0, 53, 0
3, 39884, Note_on_c, 0, 65, 0
3, 39900, Note_on_c, 0, 52, 88
3, 39900, Note_on_c, 0, 64, 98
3, 39929, Note_on_c, 0, 64, 0
3, 39929, Note_on_c, 0, 52, 0
3, 39960, Note_on_c, 0, 62, 88
3, 39960, Note_on_c, 0, 50, 88
3, 39989, Note_on_c, 0, 50, 0
3, 40004, Note_on_c, 0, 62, 0
3, 40020, Note_on_c, 0, 60, 88
3, 40020, Note_on_c, 0, 48, 88
3, 40049, Note_on_c, 0, 48, 0
3, 40049, Note_on_c, 0, 60, 0
3, 40080, Note_on_c, 0, 59, 88
3, 40080, Note_on_c, 0, 47, 88
3, 40109, Note_on_c, 0, 47, 0
3, 40124, Note_on_c, 0, 59, 0
3, 40140, Note_on_c, 0, 45, 78
3, 40140, Note_on_c, 0, 57, 88
3, 40169, Note_on_c, 0, 57, 0
3, 40169, Note_on_c, 0, 45, 0
3, 40200, Note_on_c, 0, 43, 78
3, 40200, Note_on_c, 0, 55, 88
3, 40229, Note_on_c, 0, 55, 0
3, 40229, Note_on_c, 0, 43, 0
3, 40260, Note_on_c, 0, 53, 88
3, 40260, Note_on_c, 0, 41, 78
3, 40289, Note_on_c, 0, 41, 0
3, 40304, Note_on_c, 0, 53, 0
3, 40320, Note_on_c, 0, 40, 88
3, 40320, Note_on_c, 0, 52, 88
3, 40364, Note_on_c, 0, 52, 0
3, 40364, Note_on_c, 0, 40, 0
3, 40380, Note_on_c, 0, 52, 70
3, 40380, Note_on_c, 0, 40, 78
3, 40424, Note_on_c, 0, 40, 0
3, 40424, Note_on_c, 0, 52, 0
3, 40440, Note_on_c, 0, 40, 78
3, 40440, Note_on_c, 0, 52, 78
3, 40484, Note_on_c, 0, 52, 0
3, 40484, Note_on_c, 0, 40, 0
3, 40500, Note_on_c, 0, 40, 78
3, 40500, Note_on_c, 0, 52, 78
3, 40544, Note_on_c, 0, 52, 0
3, 40544, Note_on_c, 0, 40, 0
3, 40560, Note_on_c, 0, 52, 70
3, 40560, Note_on_c, 0, 40, 78
3, 40589, Note_on_c, 0, 52, 0
3, 40604, Note_on_c, 0, 40, 0
3, 40620, Note_on_c, 0, 40, 62
3, 40620, Note_on_c, 0, 52, 70
3, 40649, Note_on_c, 0, 40, 0
3, 40664, Note_on_c, 0, 52, 0
3, 40680, Note_on_c, 0, 56, 98
3, 40680, Note_on_c, 0, 59, 88
3, 40680, Note_on_c, 0, 52, 78
3, 40724, Note_on_c, 0, 52, 0
3, 40740, Note_on_c, 0, 52, 70
3, 40754, Note_on_c, 0, 59, 0
3, 40754, Note_on_c, 0, 56, 0
3, 40769, Note_on_c, 0, 52, 0
3, 40800, Note_on_c, 0, 52, 88
3, 40800, Note_on_c, 0, 57, 88
3, 40800, Note_on_c, 0, 65, 78
3, 40844, Note_on_c, 0, 52, 0
3, 40859, Note_on_c, 0, 57, 0
3, 40860, Note_on_c, 0, 57, 55
3, 40860, Note_on_c, 0, 52, 78
3, 40874, Note_on_c, 0, 57, 0
3, 40904, Note_on_c, 0, 52, 0
3, 40920, Note_on_c, 0, 52, 62
3, 40949, Note_on_c, 0, 52, 0
3, 40980, Note_on_c, 0, 52, 35
3, 41009, Note_on_c, 0, 52, 0
3, 41040, Note_on_c, 0, 52, 44
3, 41069, Note_on_c, 0, 52, 0
3, 41100, Note_on_c, 0, 52, 49
3, 41129, Note_on_c, 0, 52, 0
3, 41160, Note_on_c, 0, 52, 55
3, 41189, Note_on_c, 0, 52, 0
3, 41219, Note_on_c, 0, 65, 0
3, 41220, Note_on_c, 0, 52, 62
3, 41249, Note_on_c, 0, 52, 0
3, 41280, Note_on_c, 0, 52, 88
3, 41280, Note_on_c, 0, 64, 88
3, 41280, Note_on_c, 0, 55, 98
3, 41309, Note_on_c, 0, 52, 0
3, 41340, Note_on_c, 0, 52, 55
3, 41369, Note_on_c, 0, 52, 0
3, 41400, Note_on_c, 0, 52, 35
3, 41429, Note_on_c, 0, 52, 0
3, 41460, Note_on_c, 0, 52, 30
3, 41489, Note_on_c, 0, 52, 0
3, 41520, Note_on_c, 0, 52, 35
3, 41549, Note_on_c, 0, 52, 0
3, 41580, Note_on_c, 0, 52, 49
3, 41609, Note_on_c, 0, 52, 0
3, 41640, Note_on_c, 0, 52, 39
3, 41669, Note_on_c, 0, 52, 0
3, 41700, Note_on_c, 0, 52, 55
3, 41714, Note_on_c, 0, 55, 0
3, 41714, Note_on_c, 0, 64, 0
3, 41729, Note_on_c, 0, 52, 0
3, 41760, Note_on_c, 0, 52, 88
3, 41760, Note_on_c, 0, 53, 88
3, 41760, Note_on_c, 0, 62, 88
3, 41789, Note_on_c, 0, 52, 0
3, 41820, Note_on_c, 0, 52, 39
3, 41849, Note_on_c, 0, 52, 0
3, 41880, Note_on_c, 0, 52, 39
3, 41909, Note_on_c, 0, 52, 0
3, 41940, Note_on_c, 0, 52, 49
3, 41954, Note_on_c, 0, 62, 0
3, 41969, Note_on_c, 0, 52, 0
3, 41969, Note_on_c, 0, 53, 0
3, 42000, Note_on_c, 0, 52, 88
3, 42000, Note_on_c, 0, 60, 88
3, 42029, Note_on_c, 0, 52, 0
3, 42060, Note_on_c, 0, 52, 44
3, 42089, Note_on_c, 0, 52, 0
3, 42120, Note_on_c, 0, 52, 44
3, 42149, Note_on_c, 0, 52, 0
3, 42180, Note_on_c, 0, 52, 35
3, 42209, Note_on_c, 0, 52, 0
3, 42209, Note_on_c, 0, 60, 0
3, 42240, Note_on_c, 0, 40, 78
3, 42240, Note_on_c, 0, 52, 70
3, 42269, Note_on_c, 0, 52, 0
3, 42299, Note_on_c, 0, 40, 0
3, 42300, Note_on_c, 0, 52, 70
3, 42329, Note_on_c, 0, 52, 0
3, 42360, Note_on_c, 0, 52, 78
3, 42360, Note_on_c, 0, 64, 78
3, 42360, Note_on_c, 0, 60, 88
3, 42389, Note_on_c, 0, 60, 0
3, 42389, Note_on_c, 0, 64, 0
3, 42389, Note_on_c, 0, 52, 0
3, 42420, Note_on_c, 0, 52, 88
3, 42420, Note_on_c, 0, 59, 88
3, 42420, Note_on_c, 0, 62, 88
3, 42449, Note_on_c, 0, 62, 0
3, 42449, Note_on_c, 0, 59, 0
3, 42449, Note_on_c, 0, 52, 0
3, 42480, Note_on_c, 0, 57, 110
3, 42480, Note_on_c, 0, 52, 98
3, 42480, Note_on_c, 0, 60, 88
3, 42509, Note_on_c, 0, 52, 0
3, 42540, Note_on_c, 0, 52, 78
3, 42569, Note_on_c, 0, 52, 0
3, 42600, Note_on_c, 0, 51, 78
3, 42629, Note_on_c, 0, 51, 0
3, 42660, Note_on_c, 0, 51, 78
3, 42674, Note_on_c, 0, 60, 0
3, 42674, Note_on_c, 0, 57, 0
3, 42689, Note_on_c, 0, 51, 0
3, 42720, Note_on_c, 0, 52, 88
3, 42720, Note_on_c, 0, 56, 98
3, 42720, Note_on_c, 0, 59, 88
3, 42764, Note_on_c, 0, 56, 0
3, 42764, Note_on_c, 0, 52, 0
3, 42779, Note_on_c, 0, 59, 0
3, 42780, Note_on_c, 0, 52, 78
3, 42809, Note_on_c, 0, 52, 0
3, 42810, Note_on_c, 0, 54, 98
3, 42839, Note_on_c, 0, 54, 0
3, 42840, Note_on_c, 0, 56, 98
3, 42869, Note_on_c, 0, 56, 0
3, 42870, Note_on_c, 0, 57, 78
3, 42899, Note_on_c, 0, 57, 0
3, 42900, Note_on_c, 0, 59, 78
3, 42929, Note_on_c, 0, 59, 0
3, 42930, Note_on_c, 0, 56, 70
3, 42944, Note_on_c, 0, 56, 0
3, 42960, Note_on_c, 0, 52, 88
3, 42960, Note_on_c, 0, 62, 88
3, 42960, Note_on_c, 0, 59, 70
3, 42989, Note_on_c, 0, 52, 0
3, 43020, Note_on_c, 0, 52, 70
3, 43064, Note_on_c, 0, 52, 0
3, 43080, Note_on_c, 0, 54, 78
3, 43109, Note_on_c, 0, 54, 0
3, 43140, Note_on_c, 0, 56, 88
3, 43154, Note_on_c, 0, 59, 0
3, 43169, Note_on_c, 0, 56, 0
3, 43169, Note_on_c, 0, 62, 0
3, 43200, Note_on_c, 0, 57, 88
3, 43200, Note_on_c, 0, 60, 88
3, 43244, Note_on_c, 0, 60, 0
3, 43244, Note_on_c, 0, 57, 0
3, 43260, Note_on_c, 0, 64, 88
3, 43260, Note_on_c, 0, 60, 88
3, 43289, Note_on_c, 0, 60, 0
3, 43289, Note_on_c, 0, 64, 0
3, 43320, Note_on_c, 0, 68, 98
3, 43320, Note_on_c, 0, 62, 98
3, 43320, Note_on_c, 0, 59, 88
3, 43349, Note_on_c, 0, 59, 0
3, 43349, Note_on_c, 0, 62, 0
3, 43349, Note_on_c, 0, 68, 0
3, 43380, Note_on_c, 0, 60, 98
3, 43380, Note_on_c, 0, 57, 98
3, 43380, Note_on_c, 0, 64, 88
3, 43409, Note_on_c, 0, 64, 0
3, 43409, Note_on_c, 0, 57, 0
3, 43409, Note_on_c, 0, 60, 0
3, 43440, Note_on_c, 0, 56, 98
3, 43440, Note_on_c, 0, 59, 88
3, 43440, Note_on_c, 0, 62, 88
3, 43469, Note_on_c, 0, 56, 0
3, 43500, Note_on_c, 0, 52, 78
3, 43529, Note_on_c, 0, 52, 0
3, 43560, Note_on_c, 0, 54, 98
3, 43589, Note_on_c, 0, 54, 0
3, 43619, Note_on_c, 0, 62, 0
3, 43619, Note_on_c, 0, 59, 0
3, 43620, Note_on_c, 0, 56, 98
3, 43649, Note_on_c, 0, 56, 0
3, 43680, Note_on_c, 0, 57, 98
3, 43680, Note_on_c, 0, 60, 78
3, 43709, Note_on_c, 0, 57, 0
3, 43724, Note_on_c, 0, 60, 0
3, 43740, Note_on_c, 0, 48, 88
3, 43740, Note_on_c, 0, 57, 98
3, 43784, Note_on_c, 0, 57, 0
3, 43784, Note_on_c, 0, 48, 0
3, 43800, Note_on_c, 0, 56, 98
3, 43800, Note_on_c, 0, 59, 88
3, 43829, Note_on_c, 0, 59, 0
3, 43829, Note_on_c, 0, 56, 0
3, 43860, Note_on_c, 0, 52, 88
3, 43860, Note_on_c, 0, 64, 78
3, 43889, Note_on_c, 0, 64, 0
3, 43889, Note_on_c, 0, 52, 0
3, 43920, Note_on_c, 0, 57, 88
3, 43920, Note_on_c, 0, 64, 88
3, 43920, Note_on_c, 0, 65, 90
3, 44009, Note_on_c, 0, 57, 0
3, 44024, Note_on_c, 0, 64, 0
3, 44040, Note_on_c, 0, 59, 88
3, 44040, Note_on_c, 0, 62, 88
3, 44114, Note_on_c, 0, 62, 0
3, 44114, Note_on_c, 0, 59, 0
3, 44159, Note_on_c, 0, 65, 0
3, 44160, Note_on_c, 0, 48, 88
3, 44160, Note_on_c, 0, 62, 98
3, 44160, Note_on_c, 0, 55, 88
3, 44279, Note_on_c, 0, 55, 0
3, 44279, Note_on_c, 0, 62, 0
3, 44279, Note_on_c, 0, 48, 0
3, 44280, Note_on_c, 0, 60, 88
3, 44340, Note_on_c, 0, 52, 88
3, 44354, Note_on_c, 0, 60, 0
3, 44369, Note_on_c, 0, 52, 0
3, 44400, Note_on_c, 0, 54, 110
3, 44400, Note_on_c, 0, 60, 88
3, 44400, Note_on_c, 0, 62, 88
3, 44489, Note_on_c, 0, 62, 0
3, 44504, Note_on_c, 0, 60, 0
3, 44504, Note_on_c, 0, 54, 0
3, 44520, Note_on_c, 0, 56, 98
3, 44520, Note_on_c, 0, 64, 88
3, 44520, Note_on_c, 0, 59, 88
3, 44609, Note_on_c, 0, 59, 0
3, 44609, Note_on_c, 0, 64, 0
3, 44609, Note_on_c, 0, 56, 0
3, 44640, Note_on_c, 0, 57, 88
3, 44640, Note_on_c, 0, 64, 88
3, 44640, Note_on_c, 0, 60, 88
3, 44714, Note_on_c, 0, 60, 0
3, 44729, Note_on_c, 0, 64, 0
3, 44729, Note_on_c, 0, 57, 0
3, 44760, Note_on_c, 0, 59, 98
3, 44760, Note_on_c, 0, 53, 98
3, 44760, Note_on_c, 0, 50, 88
3, 44849, Note_on_c, 0, 50, 0
3, 44849, Note_on_c, 0, 53, 0
3, 44849, Note_on_c, 0, 59, 0
3, 44880, Note_on_c, 0, 52, 88
3, 44880, Note_on_c, 0, 57, 98
3, 44880, Note_on_c, 0, 60, 78
3, 44969, Note_on_c, 0, 60, 0
3, 44969, Note_on_c, 0, 57, 0
3, 44969, Note_on_c, 0, 52, 0
3, 45000, Note_on_c, 0, 56, 98
3, 45000, Note_on_c, 0, 52, 88
3, 45000, Note_on_c, 0, 59, 88
3, 45044, Note_on_c, 0, 52, 0
3, 45059, Note_on_c, 0, 56, 0
3, 45060, Note_on_c, 0, 52, 78
3, 45074, Note_on_c, 0, 59, 0
3, 45104, Note_on_c, 0, 52, 0
3, 45120, Note_on_c, 0, 45, 98
3, 45120, Note_on_c, 0, 57, 98
3, 45120, Note_on_c, 0, 52, 88
3, 45149, Note_on_c, 0, 57, 0
3, 45164, Note_on_c, 0, 52, 0
3, 45164, Note_on_c, 0, 45, 0
3, 45180, Note_on_c, 0, 57, 78
3, 45224, Note_on_c, 0, 57, 0
3, 45240, Note_on_c, 0, 57, 88
3, 45284, Note_on_c, 0, 57, 0
3, 45300, Note_on_c, 0, 57, 88
3, 45359, Note_on_c, 0, 57, 0
3, 45360, Note_on_c, 0, 55, 78
3, 45404, Note_on_c, 0, 55, 0
3, 45420, Note_on_c, 0, 43, 88
3, 45420, Note_on_c, 0, 55, 88
3, 45464, Note_on_c, 0, 55, 0
3, 45464, Note_on_c, 0, 43, 0
3, 45480, Note_on_c, 0, 43, 78
3, 45480, Note_on_c, 0, 55, 78
3, 45524, Note_on_c, 0, 55, 0
3, 45524, Note_on_c, 0, 43, 0
3, 45540, Note_on_c, 0, 43, 78
3, 45540, Note_on_c, 0, 55, 78
3, 45584, Note_on_c, 0, 55, 0
3, 45584, Note_on_c, 0, 43, 0
3, 45600, Note_on_c, 0, 41, 78
3, 45600, Note_on_c, 0, 53, 88
3, 45704, Note_on_c, 0, 53, 0
3, 45704, Note_on_c, 0, 41, 0
3, 46080, Note_on_c, 0, 41, 39
3, 46139, Note_on_c, 0, 41, 0
3, 46140, Note_on_c, 0, 53, 55
3, 46184, Note_on_c, 0, 53, 0
3, 46200, Note_on_c, 0, 53, 39
3, 46229, Note_on_c, 0, 53, 0
3, 46260, Note_on_c, 0, 53, 39
3, 46319, Note_on_c, 0, 53, 0
3, 46320, Note_on_c, 0, 41, 35
3, 46379, Note_on_c, 0, 41, 0
3, 46380, Note_on_c, 0, 53, 39
3, 46424, Note_on_c, 0, 53, 0
3, 46440, Note_on_c, 0, 53, 44
3, 46469, Note_on_c, 0, 53, 0
3, 46500, Note_on_c, 0, 53, 55
3, 46559, Note_on_c, 0, 53, 0
3, 46560, Note_on_c, 0, 43, 39
3, 46560, Note_on_c, 0, 36, 39
3, 46604, Note_on_c, 0, 36, 0
3, 46620, Note_on_c, 0, 48, 55
3, 46649, Note_on_c, 0, 48, 0
3, 46680, Note_on_c, 0, 48, 49
3, 46709, Note_on_c, 0, 48, 0
3, 46740, Note_on_c, 0, 48, 44
3, 46784, Note_on_c, 0, 48, 0
3, 46784, Note_on_c, 0, 43, 0
3, 46800, Note_on_c, 0, 36, 70
3, 46859, Note_on_c, 0, 36, 0
3, 46860, Note_on_c, 0, 48, 49
3, 46904, Note_on_c, 0, 48, 0
3, 46920, Note_on_c, 0, 48, 49
3, 46920, Note_on_c, 0, 52, 49
3, 46949, Note_on_c, 0, 48, 0
3, 46964, Note_on_c, 0, 52, 0
3, 46980, Note_on_c, 0, 48, 39
3, 47024, Note_on_c, 0, 48, 0
3, 47040, Note_on_c, 0, 41, 49
3, 47040, Note_on_c, 0, 48, 55
3, 47099, Note_on_c, 0, 41, 0
3, 47100, Note_on_c, 0, 53, 55
3, 47129, Note_on_c, 0, 53, 0
3, 47160, Note_on_c, 0, 53, 22
3, 47189, Note_on_c, 0, 53, 0
3, 47220, Note_on_c, 0, 53, 44
3, 47249, Note_on_c, 0, 53, 0
3, 47264, Note_on_c, 0, 48, 0
3, 47280, Note_on_c, 0, 41, 44
3, 47280, Note_on_c, 0, 48, 49
3, 47339, Note_on_c, 0, 41, 0
3, 47340, Note_on_c, 0, 53, 49
3, 47369, Note_on_c, 0, 53, 0
3, 47400, Note_on_c, 0, 53, 49
3, 47429, Note_on_c, 0, 53, 0
3, 47460, Note_on_c, 0, 53, 49
3, 47489, Note_on_c, 0, 53, 0
3, 47489, Note_on_c, 0, 48, 0
3, 47520, Note_on_c, 0, 46, 62
3, 47520, Note_on_c, 0, 53, 62
3, 47639, Note_on_c, 0, 46, 0
3, 47640, Note_on_c, 0, 45, 62
3, 47744, Note_on_c, 0, 45, 0
3, 47759, Note_on_c, 0, 53, 0
3, 47760, Note_on_c, 0, 52, 49
3, 47760, Note_on_c, 0, 43, 35
3, 47760, Note_on_c, 0, 48, 39
3, 47834, Note_on_c, 0, 48, 0
3, 47834, Note_on_c, 0, 52, 0
3, 47849, Note_on_c, 0, 43, 0
3, 47880, Note_on_c, 0, 41, 49
3, 47880, Note_on_c, 0, 48, 62
3, 47880, Note_on_c, 0, 53, 55
3, 47969, Note_on_c, 0, 53, 0
3, 47969, Note_on_c, 0, 48, 0
3, 47969, Note_on_c, 0, 41, 0
3, 48000, Note_on_c, 0, 48, 55
3, 48000, Note_on_c, 0, 60, 78
3, 48119, Note_on_c, 0, 48, 0
3, 48134, Note_on_c, 0, 60, 0
3, 48480, Note_on_c, 0, 36, 49
3, 48539, Note_on_c, 0, 36, 0
3, 48540, Note_on_c, 0, 48, 49
3, 48584, Note_on_c, 0, 48, 0
3, 48600, Note_on_c, 0, 48, 39
3, 48629, Note_on_c, 0, 48, 0
3, 48660, Note_on_c, 0, 48, 39
3, 48719, Note_on_c, 0, 48, 0
3, 48720, Note_on_c, 0, 36, 49
3, 48780, Note_on_c, 0, 48, 30
3, 48794, Note_on_c, 0, 36, 0
3, 48824, Note_on_c, 0, 48, 0
3, 48840, Note_on_c, 0, 48, 35
3, 48869, Note_on_c, 0, 48, 0
3, 48900, Note_on_c, 0, 48, 35
3, 48929, Note_on_c, 0, 48, 0
3, 48960, Note_on_c, 0, 43, 49
3, 48960, Note_on_c, 0, 50, 62
3, 49019, Note_on_c, 0, 43, 0
3, 49020, Note_on_c, 0, 55, 44
3, 49049, Note_on_c, 0, 55, 0
3, 49080, Note_on_c, 0, 55, 49
3, 49109, Note_on_c, 0, 55, 0
3, 49140, Note_on_c, 0, 55, 35
3, 49184, Note_on_c, 0, 55, 0
3, 49200, Note_on_c, 0, 43, 44
3, 49214, Note_on_c, 0, 50, 0
3, 49259, Note_on_c, 0, 43, 0
3, 49260, Note_on_c, 0, 55, 55
3, 49289, Note_on_c, 0, 55, 0
3, 49320, Note_on_c, 0, 59, 62
3, 49320, Note_on_c, 0, 55, 55
3, 49349, Note_on_c, 0, 55, 0
3, 49379, Note_on_c, 0, 59, 0
3, 49380, Note_on_c, 0, 55, 49
3, 49409, Note_on_c, 0, 55, 0
3, 49440, Note_on_c, 0, 55, 70
3, 49440, Note_on_c, 0, 48, 49
3, 49484, Note_on_c, 0, 48, 0
3, 49500, Note_on_c, 0, 60, 44
3, 49529, Note_on_c, 0, 60, 0
3, 49560, Note_on_c, 0, 60, 44
3, 49589, Note_on_c, 0, 60, 0
3, 49620, Note_on_c, 0, 60, 39
3, 49649, Note_on_c, 0, 60, 0
3, 49664, Note_on_c, 0, 55, 0
3, 49680, Note_on_c, 0, 46, 62
3, 49739, Note_on_c, 0, 46, 0
3, 49740, Note_on_c, 0, 58, 70
3, 49784, Note_on_c, 0, 58, 0
3, 49800, Note_on_c, 0, 58, 62
3, 49829, Note_on_c, 0, 58, 0
3, 49860, Note_on_c, 0, 58, 62
3, 49904, Note_on_c, 0, 58, 0
3, 49920, Note_on_c, 0, 52, 78
3, 49920, Note_on_c, 0, 45, 110
3, 49979, Note_on_c, 0, 45, 0
3, 49979, Note_on_c, 0, 52, 0
3, 49980, Note_on_c, 0, 57, 88
3, 50024, Note_on_c, 0, 57, 0
3, 50040, Note_on_c, 0, 57, 55
3, 50069, Note_on_c, 0, 57, 0
3, 50100, Note_on_c, 0, 57, 44
3, 50144, Note_on_c, 0, 57, 0
3, 50160, Note_on_c, 0, 45, 55
3, 50219, Note_on_c, 0, 45, 0
3, 50220, Note_on_c, 0, 61, 62
3, 50220, Note_on_c, 0, 57, 39
3, 50249, Note_on_c, 0, 57, 0
3, 50264, Note_on_c, 0, 61, 0
3, 50280, Note_on_c, 0, 62, 62
3, 50280, Note_on_c, 0, 57, 55
3, 50309, Note_on_c, 0, 57, 0
3, 50324, Note_on_c, 0, 62, 0
3, 50340, Note_on_c, 0, 61, 70
3, 50340, Note_on_c, 0, 57, 44
3, 50340, Note_on_c, 0, 64, 39
3, 50384, Note_on_c, 0, 64, 0
3, 50384, Note_on_c, 0, 57, 0
3, 50384, Note_on_c, 0, 61, 0
3, 50400, Note_on_c, 0, 50, 49
3, 50460, Note_on_c, 0, 61, 62
3, 50460, Note_on_c, 0, 57, 30
3, 50474, Note_on_c, 0, 50, 0
3, 50504, Note_on_c, 0, 57, 0
3, 50504, Note_on_c, 0, 61, 0
3, 50520, Note_on_c, 0, 57, 49
3, 50520, Note_on_c, 0, 62, 44
3, 50549, Note_on_c, 0, 62, 0
3, 50549, Note_on_c, 0, 57, 0
3, 50580, Note_on_c, 0, 57, 55
3, 50580, Note_on_c, 0, 62, 55
3, 50594, Note_on_c, 0, 62, 0
3, 50594, Note_on_c, 0, 57, 0
3, 50640, Note_on_c, 0, 45, 39
3, 50699, Note_on_c, 0, 45, 0
3, 50700, Note_on_c, 0, 57, 1
3, 50729, Note_on_c, 0, 57, 0
3, 50760, Note_on_c, 0, 57, 39
3, 50789, Note_on_c, 0, 57, 0
3, 50820, Note_on_c, 0, 57, 55
3, 50849, Note_on_c, 0, 57, 0
3, 50880, Note_on_c, 0, 43, 110
3, 50940, Note_on_c, 0, 55, 98
3, 50954, Note_on_c, 0, 43, 0
3, 50984, Note_on_c, 0, 55, 0
3, 51000, Note_on_c, 0, 55, 98
3, 51029, Note_on_c, 0, 55, 0
3, 51060, Note_on_c, 0, 55, 39
3, 51089, Note_on_c, 0, 55, 0
3, 51120, Note_on_c, 0, 43, 35
3, 51180, Note_on_c, 0, 59, 35
3, 51180, Note_on_c, 0, 55, 39
3, 51194, Note_on_c, 0, 43, 0
3, 51209, Note_on_c, 0, 55, 0
3, 51224, Note_on_c, 0, 59, 0
3, 51240, Note_on_c, 0, 60, 44
3, 51240, Note_on_c, 0, 55, 35
3, 51269, Note_on_c, 0, 55, 0
3, 51269, Note_on_c, 0, 60, 0
3, 51300, Note_on_c, 0, 55, 30
3, 51300, Note_on_c, 0, 62, 30
3, 51300, Note_on_c, 0, 59, 44
3, 51344, Note_on_c, 0, 59, 0
3, 51344, Note_on_c, 0, 62, 0
3, 51344, Note_on_c, 0, 55, 0
3, 51360, Note_on_c, 0, 48, 55
3, 51419, Note_on_c, 0, 48, 0
3, 51420, Note_on_c, 0, 59, 55
3, 51420, Note_on_c, 0, 55, 55
3, 51449, Note_on_c, 0, 55, 0
3, 51449, Note_on_c, 0, 59, 0
3, 51480, Note_on_c, 0, 60, 55
3, 51480, Note_on_c, 0, 55, 39
3, 51509, Note_on_c, 0, 55, 0
3, 51509, Note_on_c, 0, 60, 0
3, 51540, Note_on_c, 0, 60, 55
3, 51540, Note_on_c, 0, 55, 49
3, 51554, Note_on_c, 0, 55, 0
3, 51554, Note_on_c, 0, 60, 0
3, 51600, Note_on_c, 0, 48, 39
3, 51600, Note_on_c, 0, 60, 55
3, 51659, Note_on_c, 0, 60, 0
3, 51659, Note_on_c, 0, 48, 0
3, 51720, Note_on_c, 0, 47, 49
3, 51720, Note_on_c, 0, 59, 49
3, 51779, Note_on_c, 0, 59, 0
3, 51779, Note_on_c, 0, 47, 0
3, 51840, Note_on_c, 0, 45, 44
3, 51840, Note_on_c, 0, 57, 55
3, 51899, Note_on_c, 0, 57, 0
3, 51899, Note_on_c, 0, 45, 0
3, 51960, Note_on_c, 0, 43, 39
3, 51960, Note_on_c, 0, 55, 55
3, 52019, Note_on_c, 0, 55, 0
3, 52019, Note_on_c, 0, 43, 0
3, 52080, Note_on_c, 0, 41, 49
3, 52080, Note_on_c, 0, 53, 49
3, 52139, Note_on_c, 0, 53, 0
3, 52139, Note_on_c, 0, 41, 0
3, 52200, Note_on_c, 0, 42, 70
3, 52200, Note_on_c, 0, 54, 70
3, 52259, Note_on_c, 0, 54, 0
3, 52259, Note_on_c, 0, 42, 0
3, 52320, Note_on_c, 0, 43, 55
3, 52320, Note_on_c, 0, 55, 62
3, 52439, Note_on_c, 0, 55, 0
3, 52439, Note_on_c, 0, 43, 0
3, 52560, Note_on_c, 0, 43, 44
3, 52619, Note_on_c, 0, 43, 0
3, 52620, Note_on_c, 0, 55, 44
3, 52649, Note_on_c, 0, 55, 0
3, 52680, Note_on_c, 0, 55, 35
3, 52709, Note_on_c, 0, 55, 0
3, 52740, Note_on_c, 0, 55, 49
3, 52784, Note_on_c, 0, 55, 0
3, 52800, Note_on_c, 0, 43, 35
3, 52844, Note_on_c, 0, 43, 0
3, 52860, Note_on_c, 0, 55, 55
3, 52889, Note_on_c, 0, 55, 0
3, 52920, Note_on_c, 0, 55, 39
3, 52949, Note_on_c, 0, 55, 0
3, 52980, Note_on_c, 0, 55, 44
3, 53024, Note_on_c, 0, 55, 0
3, 53040, Note_on_c, 0, 43, 44
3, 53099, Note_on_c, 0, 43, 0
3, 53100, Note_on_c, 0, 55, 44
3, 53129, Note_on_c, 0, 55, 0
3, 53160, Note_on_c, 0, 55, 49
3, 53189, Note_on_c, 0, 55, 0
3, 53220, Note_on_c, 0, 55, 55
3, 53264, Note_on_c, 0, 55, 0
3, 53280, Note_on_c, 0, 43, 49
3, 53339, Note_on_c, 0, 43, 0
3, 53340, Note_on_c, 0, 55, 49
3, 53384, Note_on_c, 0, 55, 0
3, 53400, Note_on_c, 0, 55, 49
3, 53429, Note_on_c, 0, 55, 0
3, 53460, Note_on_c, 0, 55, 49
3, 53504, Note_on_c, 0, 55, 0
3, 53520, Note_on_c, 0, 43, 30
3, 53579, Note_on_c, 0, 43, 0
3, 53580, Note_on_c, 0, 55, 39
3, 53609, Note_on_c, 0, 55, 0
3, 53640, Note_on_c, 0, 55, 55
3, 53669, Note_on_c, 0, 55, 0
3, 53700, Note_on_c, 0, 55, 49
3, 53729, Note_on_c, 0, 55, 0
3, 53760, Note_on_c, 0, 36, 62
3, 53760, Note_on_c, 0, 48, 70
3, 53819, Note_on_c, 0, 48, 0
3, 53819, Note_on_c, 0, 36, 0
3, 53880, Note_on_c, 0, 41, 62
3, 53880, Note_on_c, 0, 53, 78
3, 53939, Note_on_c, 0, 53, 0
3, 53939, Note_on_c, 0, 41, 0
3, 54000, Note_on_c, 0, 43, 70
3, 54000, Note_on_c, 0, 55, 62
3, 54059, Note_on_c, 0, 55, 0
3, 54059, Note_on_c, 0, 43, 0
3, 54120, Note_on_c, 0, 43, 78
3, 54120, Note_on_c, 0, 31, 78
3, 54164, Note_on_c, 0, 43, 0
3, 54179, Note_on_c, 0, 31, 0
3, 54240, Note_on_c, 0, 36, 98
3, 54240, Note_on_c, 0, 48, 98
3, 54314, Note_on_c, 0, 36, 0
3, 54329, Note_on_c, 0, 48, 0
3, 54360, Note_on_c, 0, 48, 110
3, 54360, Note_on_c, 0, 60, 98
3, 54434, Note_on_c, 0, 60, 0
3, 54434, Note_on_c, 0, 48, 0
3, 54450, Note_on_c, 0, 60, 78
3, 54450, Note_on_c, 0, 48, 70
3, 54464, Note_on_c, 0, 48, 0
3, 54464, Note_on_c, 0, 60, 0
3, 54480, Note_on_c, 0, 48, 110
3, 54480, Note_on_c, 0, 36, 110
3, 54509, Note_on_c, 0, 36, 0
3, 54509, Note_on_c, 0, 48, 0
3, 54540, Note_on_c, 0, 38, 98
3, 54540, Note_on_c, 0, 50, 98
3, 54569, Note_on_c, 0, 50, 0
3, 54569, Note_on_c, 0, 38, 0
3, 54600, Note_on_c, 0, 40, 98
3, 54600, Note_on_c, 0, 52, 98
3, 54629, Note_on_c, 0, 52, 0
3, 54629, Note_on_c, 0, 40, 0
3, 54660, Note_on_c, 0, 41, 98
3, 54660, Note_on_c, 0, 53, 110
3, 54689, Note_on_c, 0, 53, 0
3, 54689, Note_on_c, 0, 41, 0
3, 54720, Note_on_c, 0, 43, 88
3, 54720, Note_on_c, 0, 55, 98
3, 54809, Note_on_c, 0, 55, 0
3, 54809, Note_on_c, 0, 43, 0
3, 54840, Note_on_c, 0, 48, 110
3, 54840, Note_on_c, 0, 60, 110
3, 54899, Note_on_c, 0, 60, 0
3, 54914, Note_on_c, 0, 48, 0
3, 54930, Note_on_c, 0, 60, 88
3, 54930, Note_on_c, 0, 48, 88
3, 54944, Note_on_c, 0, 48, 0
3, 54944, Note_on_c, 0, 60, 0
3, 54960, Note_on_c, 0, 40, 98
3, 54960, Note_on_c, 0, 52, 98
3, 54989, Note_on_c, 0, 40, 0
3, 55004, Note_on_c, 0, 52, 0
3, 55020, Note_on_c, 0, 41, 98
3, 55020, Note_on_c, 0, 53, 98
3, 55049, Note_on_c, 0, 53, 0
3, 55049, Note_on_c, 0, 41, 0
3, 55080, Note_on_c, 0, 43, 88
3, 55080, Note_on_c, 0, 55, 98
3, 55109, Note_on_c, 0, 55, 0
3, 55109, Note_on_c, 0, 43, 0
3, 55140, Note_on_c, 0, 45, 88
3, 55140, Note_on_c, 0, 57, 98
3, 55169, Note_on_c, 0, 57, 0
3, 55169, Note_on_c, 0, 45, 0
3, 55200, Note_on_c, 0, 46, 110
3, 55200, Note_on_c, 0, 58, 110
3, 55304, Note_on_c, 0, 58, 0
3, 55304, Note_on_c, 0, 46, 0
3, 55320, Note_on_c, 0, 48, 88
3, 55320, Note_on_c, 0, 60, 98
3, 55394, Note_on_c, 0, 60, 0
3, 55394, Note_on_c, 0, 48, 0
3, 55410, Note_on_c, 0, 48, 88
3, 55410, Note_on_c, 0, 60, 98
3, 55424, Note_on_c, 0, 60, 0
3, 55424, Note_on_c, 0, 48, 0
3, 55440, Note_on_c, 0, 58, 110
3, 55440, Note_on_c, 0, 46, 98
3, 55484, Note_on_c, 0, 46, 0
3, 55484, Note_on_c, 0, 58, 0
3, 55500, Note_on_c, 0, 45, 88
3, 55500, Note_on_c, 0, 57, 98
3, 55529, Note_on_c, 0, 45, 0
3, 55544, Note_on_c, 0, 57, 0
3, 55560, Note_on_c, 0, 43, 98
3, 55560, Note_on_c, 0, 55, 98
3, 55604, Note_on_c, 0, 55, 0
3, 55604, Note_on_c, 0, 43, 0
3, 55620, Note_on_c, 0, 41, 88
3, 55620, Note_on_c, 0, 53, 98
3, 55649, Note_on_c, 0, 41, 0
3, 55664, Note_on_c, 0, 53, 0
3, 55680, Note_on_c, 0, 40, 88
3, 55680, Note_on_c, 0, 52, 98
3, 55769, Note_on_c, 0, 40, 0
3, 55784, Note_on_c, 0, 52, 0
3, 55800, Note_on_c, 0, 41, 88
3, 55800, Note_on_c, 0, 53, 98
3, 55904, Note_on_c, 0, 53, 0
3, 55904, Note_on_c, 0, 41, 0
3, 55920, Note_on_c, 0, 52, 98
3, 55920, Note_on_c, 0, 60, 98
3, 55949, Note_on_c, 0, 60, 0
3, 55949, Note_on_c, 0, 52, 0
3, 55980, Note_on_c, 0, 48, 98
3, 55980, Note_on_c, 0, 60, 98
3, 56009, Note_on_c, 0, 60, 0
3, 56009, Note_on_c, 0, 48, 0
3, 56040, Note_on_c, 0, 50, 98
3, 56040, Note_on_c, 0, 60, 98
3, 56069, Note_on_c, 0, 50, 0
3, 56084, Note_on_c, 0, 60, 0
3, 56100, Note_on_c, 0, 43, 78
3, 56100, Note_on_c, 0, 55, 98
3, 56129, Note_on_c, 0, 43, 0
3, 56144, Note_on_c, 0, 55, 0
3, 56160, Note_on_c, 0, 48, 88
3, 56160, Note_on_c, 0, 36, 88
3, 56249, Note_on_c, 0, 36, 0
3, 56264, Note_on_c, 0, 48, 0
3, 56280, Note_on_c, 0, 60, 98
3, 56280, Note_on_c, 0, 64, 88
3, 56339, Note_on_c, 0, 64, 0
3, 56339, Note_on_c, 0, 60, 0
3, 56340, Note_on_c, 0, 48, 98
3, 56399, Note_on_c, 0, 48, 0
3, 56400, Note_on_c, 0, 54, 110
3, 56400, Note_on_c, 0, 60, 88
3, 56400, Note_on_c, 0, 57, 88
3, 56400, Note_on_c, 0, 62, 88
3, 56474, Note_on_c, 0, 62, 0
3, 56474, Note_on_c, 0, 57, 0
3, 56474, Note_on_c, 0, 60, 0
3, 56489, Note_on_c, 0, 54, 0
3, 56520, Note_on_c, 0, 56, 110
3, 56520, Note_on_c, 0, 64, 98
3, 56520, Note_on_c, 0, 59, 88
3, 56520, Note_on_c, 0, 62, 88
3, 56594, Note_on_c, 0, 62, 0
3, 56594, Note_on_c, 0, 56, 0
3, 56594, Note_on_c, 0, 64, 0
3, 56594, Note_on_c, 0, 59, 0
3, 56640, Note_on_c, 0, 45, 88
3, 56640, Note_on_c, 0, 52, 98
3, 56640, Note_on_c, 0, 59, 98
3, 56729, Note_on_c, 0, 59, 0
3, 56744, Note_on_c, 0, 52, 0
3, 56744, Note_on_c, 0, 45, 0
3, 56760, Note_on_c, 0, 60, 98
3, 56760, Note_on_c, 0, 57, 98
3, 56760, Note_on_c, 0, 64, 98
3, 56819, Note_on_c, 0, 64, 0
3, 56819, Note_on_c, 0, 57, 0
3, 56819, Note_on_c, 0, 60, 0
3, 56820, Note_on_c, 0, 48, 88
3, 56879, Note_on_c, 0, 48, 0
3, 56880, Note_on_c, 0, 58, 110
3, 56880, Note_on_c, 0, 60, 88
3, 56880, Note_on_c, 0, 55, 88
3, 56880, Note_on_c, 0, 52, 88
3, 56969, Note_on_c, 0, 52, 0
3, 56969, Note_on_c, 0, 58, 0
3, 56969, Note_on_c, 0, 60, 0
3, 56969, Note_on_c, 0, 55, 0
3, 57000, Note_on_c, 0, 58, 98
3, 57000, Note_on_c, 0, 60, 88
3, 57000, Note_on_c, 0, 52, 88
3, 57000, Note_on_c, 0, 55, 78
3, 57089, Note_on_c, 0, 55, 0
3, 57089, Note_on_c, 0, 58, 0
3, 57089, Note_on_c, 0, 60, 0
3, 57089, Note_on_c, 0, 52, 0
3, 57120, Note_on_c, 0, 41, 98
3, 57120, Note_on_c, 0, 48, 98
3, 57120, Note_on_c, 0, 55, 98
3, 57209, Note_on_c, 0, 48, 0
3, 57224, Note_on_c, 0, 55, 0
3, 57224, Note_on_c, 0, 41, 0
3, 57240, Note_on_c, 0, 53, 98
3, 57240, Note_on_c, 0, 57, 88
3, 57240, Note_on_c, 0, 60, 88
3, 57299, Note_on_c, 0, 60, 0
3, 57299, Note_on_c, 0, 57, 0
3, 57300, Note_on_c, 0, 45, 98
3, 57314, Note_on_c, 0, 53, 0
3, 57344, Note_on_c, 0, 45, 0
3, 57360, Note_on_c, 0, 53, 88
3, 57360, Note_on_c, 0, 47, 88
3, 57360, Note_on_c, 0, 50, 88
3, 57360, Note_on_c, 0, 55, 88
3, 57449, Note_on_c, 0, 55, 0
3, 57449, Note_on_c, 0, 53, 0
3, 57449, Note_on_c, 0, 47, 0
3, 57464, Note_on_c, 0, 50, 0
3, 57480, Note_on_c, 0, 49, 98
3, 57480, Note_on_c, 0, 52, 88
3, 57480, Note_on_c, 0, 55, 88
3, 57569, Note_on_c, 0, 52, 0
3, 57569, Note_on_c, 0, 49, 0
3, 57584, Note_on_c, 0, 55, 0
3, 57600, Note_on_c, 0, 53, 98
3, 57600, Note_on_c, 0, 50, 88
3, 57629, Note_on_c, 0, 50, 0
3, 57629, Note_on_c, 0, 53, 0
3, 57660, Note_on_c, 0, 52, 98
3, 57660, Note_on_c, 0, 55, 98
3, 57660, Note_on_c, 0, 60, 98
3, 57689, Note_on_c, 0, 52, 0
3, 57704, Note_on_c, 0, 55, 0
3, 57720, Note_on_c, 0, 57, 88
3, 57720, Note_on_c, 0, 53, 78
3, 57749, Note_on_c, 0, 53, 0
3, 57749, Note_on_c, 0, 57, 0
3, 57749, Note_on_c, 0, 60, 0
3, 57780, Note_on_c, 0, 55, 78
3, 57780, Note_on_c, 0, 59, 88
3, 57780, Note_on_c, 0, 65, 98
3, 57809, Note_on_c, 0, 65, 0
3, 57809, Note_on_c, 0, 55, 0
3, 57824, Note_on_c, 0, 59, 0
3, 57840, Note_on_c, 0, 57, 98
3, 57840, Note_on_c, 0, 64, 98
3, 57840, Note_on_c, 0, 60, 88
3, 57869, Note_on_c, 0, 60, 0
3, 57869, Note_on_c, 0, 64, 0
3, 57900, Note_on_c, 0, 62, 98
3, 57900, Note_on_c, 0, 59, 88
3, 57914, Note_on_c, 0, 59, 0
3, 57914, Note_on_c, 0, 62, 0
3, 57929, Note_on_c, 0, 57, 0
3, 57960, Note_on_c, 0, 60, 88
3, 57989, Note_on_c, 0, 60, 0
3, 58020, Note_on_c, 0, 57, 98
3, 58020, Note_on_c, 0, 60, 78
3, 58049, Note_on_c, 0, 60, 0
3, 58064, Note_on_c, 0, 57, 0
3, 58080, Note_on_c, 0, 62, 98
3, 58080, Note_on_c, 0, 55, 98
3, 58080, Note_on_c, 0, 59, 98
3, 58124, Note_on_c, 0, 59, 0
3, 58124, Note_on_c, 0, 55, 0
3, 58124, Note_on_c, 0, 62, 0
3, 58140, Note_on_c, 0, 43, 78
3, 58140, Note_on_c, 0, 55, 70
3, 58184, Note_on_c, 0, 55, 0
3, 58184, Note_on_c, 0, 43, 0
3, 58200, Note_on_c, 0, 55, 70
3, 58200, Note_on_c, 0, 43, 70
3, 58229, Note_on_c, 0, 43, 0
3, 58244, Note_on_c, 0, 55, 0
3, 58260, Note_on_c, 0, 43, 62
3, 58260, Note_on_c, 0, 55, 62
3, 58304, Note_on_c, 0, 55, 0
3, 58304, Note_on_c, 0, 43, 0
3, 58320, Note_on_c, 0, 43, 62
3, 58320, Note_on_c, 0, 55, 62
3, 58349, Note_on_c, 0, 55, 0
3, 58349, Note_on_c, 0, 43, 0
3, 58380, Note_on_c, 0, 43, 70
3, 58380, Note_on_c, 0, 55, 70
3, 58409, Note_on_c, 0, 55, 0
3, 58424, Note_on_c, 0, 43, 0
3, 58440, Note_on_c, 0, 55, 78
3, 58440, Note_on_c, 0, 62, 88
3, 58440, Note_on_c, 0, 59, 78
3, 58469, Note_on_c, 0, 55, 0
3, 58499, Note_on_c, 0, 59, 0
3, 58500, Note_on_c, 0, 55, 62
3, 58514, Note_on_c, 0, 62, 0
3, 58529, Note_on_c, 0, 55, 0
3, 58560, Note_on_c, 0, 68, 124
3, 58560, Note_on_c, 0, 55, 110
3, 58560, Note_on_c, 0, 60, 98
3, 58589, Note_on_c, 0, 55, 0
3, 58620, Note_on_c, 0, 55, 30
3, 58634, Note_on_c, 0, 55, 0
3, 58680, Note_on_c, 0, 55, 30
3, 58709, Note_on_c, 0, 55, 0
3, 58740, Note_on_c, 0, 55, 30
3, 58769, Note_on_c, 0, 55, 0
3, 58800, Note_on_c, 0, 55, 35
3, 58829, Note_on_c, 0, 55, 0
3, 58860, Note_on_c, 0, 55, 28
3, 58889, Note_on_c, 0, 55, 0
3, 58920, Note_on_c, 0, 55, 28
3, 58949, Note_on_c, 0, 55, 0
3, 58980, Note_on_c, 0, 55, 35
3, 58994, Note_on_c, 0, 60, 0
3, 58994, Note_on_c, 0, 68, 0
3, 59009, Note_on_c, 0, 55, 0
3, 59040, Note_on_c, 0, 55, 70
3, 59040, Note_on_c, 0, 58, 110
3, 59040, Note_on_c, 0, 67, 98
3, 59069, Note_on_c, 0, 55, 0
3, 59100, Note_on_c, 0, 55, 28
3, 59129, Note_on_c, 0, 55, 0
3, 59160, Note_on_c, 0, 55, 30
3, 59189, Note_on_c, 0, 55, 0
3, 59220, Note_on_c, 0, 55, 39
3, 59234, Note_on_c, 0, 55, 0
3, 59280, Note_on_c, 0, 55, 30
3, 59294, Note_on_c, 0, 55, 0
3, 59340, Note_on_c, 0, 55, 28
3, 59369, Note_on_c, 0, 55, 0
3, 59400, Note_on_c, 0, 55, 30
3, 59414, Note_on_c, 0, 55, 0
3, 59460, Note_on_c, 0, 55, 35
3, 59474, Note_on_c, 0, 67, 0
3, 59474, Note_on_c, 0, 58, 0
3, 59489, Note_on_c, 0, 55, 0
3, 59520, Note_on_c, 0, 56, 110
3, 59520, Note_on_c, 0, 55, 78
3, 59520, Note_on_c, 0, 65, 98
3, 59549, Note_on_c, 0, 55, 0
3, 59580, Note_on_c, 0, 55, 35
3, 59594, Note_on_c, 0, 55, 0
3, 59640, Note_on_c, 0, 55, 28
3, 59654, Note_on_c, 0, 55, 0
3, 59700, Note_on_c, 0, 55, 28
3, 59714, Note_on_c, 0, 55, 0
3, 59744, Note_on_c, 0, 56, 0
3, 59759, Note_on_c, 0, 65, 0
3, 59760, Note_on_c, 0, 55, 70
3, 59760, Note_on_c, 0, 63, 98
3, 59789, Note_on_c, 0, 55, 0
3, 59820, Note_on_c, 0, 55, 28
3, 59849, Note_on_c, 0, 55, 0
3, 59879, Note_on_c, 0, 63, 0
3, 59880, Note_on_c, 0, 55, 78
3, 59880, Note_on_c, 0, 60, 88
3, 59909, Note_on_c, 0, 55, 0
3, 59940, Note_on_c, 0, 55, 44
3, 59954, Note_on_c, 0, 55, 0
3, 59999, Note_on_c, 0, 60, 0
3, 60000, Note_on_c, 0, 55, 70
3, 60000, Note_on_c, 0, 43, 78
3, 60029, Note_on_c, 0, 43, 0
3, 60029, Note_on_c, 0, 55, 0
3, 60060, Note_on_c, 0, 55, 35
3, 60060, Note_on_c, 0, 43, 30
3, 60089, Note_on_c, 0, 43, 0
3, 60089, Note_on_c, 0, 55, 0
3, 60120, Note_on_c, 0, 55, 39
3, 60120, Note_on_c, 0, 43, 30
3, 60149, Note_on_c, 0, 43, 0
3, 60149, Note_on_c, 0, 55, 0
3, 60180, Note_on_c, 0, 55, 39
3, 60180, Note_on_c, 0, 43, 39
3, 60209, Note_on_c, 0, 43, 0
3, 60209, Note_on_c, 0, 55, 0
3, 60240, Note_on_c, 0, 55, 98
3, 60240, Note_on_c, 0, 43, 98
3, 60269, Note_on_c, 0, 43, 0
3, 60269, Note_on_c, 0, 55, 0
3, 60300, Note_on_c, 0, 43, 44
3, 60300, Note_on_c, 0, 55, 35
3, 60329, Note_on_c, 0, 55, 0
3, 60329, Note_on_c, 0, 43, 0
3, 60360, Note_on_c, 0, 43, 39
3, 60360, Note_on_c, 0, 55, 35
3, 60389, Note_on_c, 0, 55, 0
3, 60389, Note_on_c, 0, 43, 0
3, 60420, Note_on_c, 0, 55, 39
3, 60420, Note_on_c, 0, 43, 35
3, 60449, Note_on_c, 0, 43, 0
3, 60449, Note_on_c, 0, 55, 0
3, 60480, Note_on_c, 0, 55, 98
3, 60480, Note_on_c, 0, 43, 98
3, 60524, Note_on_c, 0, 43, 0
3, 60524, Note_on_c, 0, 55, 0
3, 60540, Note_on_c, 0, 43, 49
3, 60540, Note_on_c, 0, 55, 35
3, 60569, Note_on_c, 0, 55, 0
3, 60569, Note_on_c, 0, 43, 0
3, 60600, Note_on_c, 0, 55, 30
3, 60600, Note_on_c, 0, 43, 39
3, 60629, Note_on_c, 0, 43, 0
3, 60629, Note_on_c, 0, 55, 0
3, 60660, Note_on_c, 0, 55, 30
3, 60660, Note_on_c, 0, 43, 39
3, 60689, Note_on_c, 0, 43, 0
3, 60689, Note_on_c, 0, 55, 0
3, 60720, Note_on_c, 0, 55, 98
3, 60720, Note_on_c, 0, 43, 98
3, 60764, Note_on_c, 0, 43, 0
3, 60764, Note_on_c, 0, 55, 0
3, 60780, Note_on_c, 0, 55, 30
3, 60780, Note_on_c, 0, 43, 35
3, 60809, Note_on_c, 0, 43, 0
3, 60809, Note_on_c, 0, 55, 0
3, 60840, Note_on_c, 0, 43, 49
3, 60840, Note_on_c, 0, 55, 35
3, 60869, Note_on_c, 0, 55, 0
3, 60869, Note_on_c, 0, 43, 0
3, 60900, Note_on_c, 0, 55, 39
3, 60900, Note_on_c, 0, 43, 44
3, 60914, Note_on_c, 0, 43, 0
3, 60914, Note_on_c, 0, 55, 0
3, 60960, Note_on_c, 0, 43, 98
3, 60960, Note_on_c, 0, 55, 98
3, 61004, Note_on_c, 0, 55, 0
3, 61004, Note_on_c, 0, 43, 0
3, 61020, Note_on_c, 0, 43, 88
3, 61049, Note_on_c, 0, 43, 0
3, 61050, Note_on_c, 0, 45, 78
3, 61079, Note_on_c, 0, 45, 0
3, 61080, Note_on_c, 0, 47, 98
3, 61109, Note_on_c, 0, 47, 0
3, 61110, Note_on_c, 0, 48, 88
3, 61139, Note_on_c, 0, 48, 0
3, 61140, Note_on_c, 0, 50, 88
3, 61169, Note_on_c, 0, 50, 0
3, 61170, Note_on_c, 0, 47, 70
3, 61184, Note_on_c, 0, 47, 0
3, 61200, Note_on_c, 0, 43, 88
3, 61200, Note_on_c, 0, 53, 98
3, 61200, Note_on_c, 0, 50, 98
3, 61244, Note_on_c, 0, 43, 0
3, 61260, Note_on_c, 0, 43, 88
3, 61304, Note_on_c, 0, 43, 0
3, 61320, Note_on_c, 0, 45, 98
3, 61364, Note_on_c, 0, 45, 0
3, 61380, Note_on_c, 0, 47, 88
3, 61409, Note_on_c, 0, 47, 0
3, 61409, Note_on_c, 0, 50, 0
3, 61424, Note_on_c, 0, 53, 0
3, 61440, Note_on_c, 0, 52, 98
3, 61440, Note_on_c, 0, 48, 98
3, 61484, Note_on_c, 0, 48, 0
3, 61484, Note_on_c, 0, 52, 0
3, 61500, Note_on_c, 0, 52, 98
3, 61500, Note_on_c, 0, 55, 98
3, 61529, Note_on_c, 0, 55, 0
3, 61529, Note_on_c, 0, 52, 0
3, 61560, Note_on_c, 0, 53, 98
3, 61560, Note_on_c, 0, 59, 88
3, 61560, Note_on_c, 0, 50, 98
3, 61589, Note_on_c, 0, 50, 0
3, 61589, Note_on_c, 0, 53, 0
3, 61604, Note_on_c, 0, 59, 0
3, 61620, Note_on_c, 0, 52, 98
3, 61620, Note_on_c, 0, 48, 98
3, 61620, Note_on_c, 0, 55, 98
3, 61634, Note_on_c, 0, 55, 0
3, 61649, Note_on_c, 0, 48, 0
3, 61649, Note_on_c, 0, 52, 0
3, 61680, Note_on_c, 0, 47, 98
3, 61680, Note_on_c, 0, 50, 98
3, 61680, Note_on_c, 0, 53, 88
3, 61709, Note_on_c, 0, 47, 0
3, 61740, Note_on_c, 0, 43, 62
3, 61769, Note_on_c, 0, 43, 0
3, 61800, Note_on_c, 0, 45, 98
3, 61829, Note_on_c, 0, 45, 0
3, 61860, Note_on_c, 0, 47, 98
3, 61889, Note_on_c, 0, 47, 0
3, 61889, Note_on_c, 0, 53, 0
3, 61889, Note_on_c, 0, 50, 0
3, 61920, Note_on_c, 0, 48, 98
3, 61920, Note_on_c, 0, 52, 98
3, 61949, Note_on_c, 0, 52, 0
3, 61980, Note_on_c, 0, 52, 88
3, 62024, Note_on_c, 0, 52, 0
3, 62024, Note_on_c, 0, 48, 0
3, 62040, Note_on_c, 0, 50, 98
3, 62040, Note_on_c, 0, 47, 88
3, 62099, Note_on_c, 0, 50, 0
3, 62100, Note_on_c, 0, 55, 98
3, 62114, Note_on_c, 0, 47, 0
3, 62129, Note_on_c, 0, 55, 0
3, 62160, Note_on_c, 0, 57, 88
3, 62160, Note_on_c, 0, 49, 110
3, 62160, Note_on_c, 0, 52, 88
3, 62160, Note_on_c, 0, 55, 88
3, 62249, Note_on_c, 0, 55, 0
3, 62264, Note_on_c, 0, 52, 0
3, 62264, Note_on_c, 0, 49, 0
3, 62280, Note_on_c, 0, 53, 88
3, 62280, Note_on_c, 0, 50, 88
3, 62384, Note_on_c, 0, 57, 0
3, 62400, Note_on_c, 0, 47, 78
3, 62400, Note_on_c, 0, 55, 88
3, 62504, Note_on_c, 0, 47, 0
3, 62504, Note_on_c, 0, 53, 0
3, 62504, Note_on_c, 0, 50, 0
3, 62519, Note_on_c, 0, 55, 0
3, 62520, Note_on_c, 0, 52, 98
3, 62520, Note_on_c, 0, 48, 98
3, 62640, Note_on_c, 0, 45, 70
3, 62640, Note_on_c, 0, 53, 88
3, 62729, Note_on_c, 0, 52, 0
3, 62744, Note_on_c, 0, 53, 0
3, 62744, Note_on_c, 0, 45, 0
3, 62759, Note_on_c, 0, 48, 0
3, 62760, Note_on_c, 0, 50, 98
3, 62760, Note_on_c, 0, 47, 98
3, 62880, Note_on_c, 0, 44, 98
3, 62880, Note_on_c, 0, 52, 78
3, 62969, Note_on_c, 0, 44, 0
3, 62969, Note_on_c, 0, 50, 0
3, 62984, Note_on_c, 0, 47, 0
3, 62984, Note_on_c, 0, 52, 0
3, 63000, Note_on_c, 0, 45, 110
3, 63000, Note_on_c, 0, 48, 98
3, 63104, Note_on_c, 0, 48, 0
3, 63104, Note_on_c, 0, 45, 0
3, 63120, Note_on_c, 0, 50, 88
3, 63120, Note_on_c, 0, 42, 110
3, 63120, Note_on_c, 0, 48, 78
3, 63120, Note_on_c, 0, 41, 70
3, 63134, Note_on_c, 0, 41, 0
3, 63224, Note_on_c, 0, 50, 0
3, 63224, Note_on_c, 0, 42, 0
3, 63224, Note_on_c, 0, 48, 0
3, 63240, Note_on_c, 0, 41, 98
3, 63240, Note_on_c, 0, 47, 78
3, 63240, Note_on_c, 0, 44, 98
3, 63314, Note_on_c, 0, 44, 0
3, 63314, Note_on_c, 0, 47, 0
3, 63314, Note_on_c, 0, 41, 0
3, 63360, Note_on_c, 0, 40, 98
3, 63360, Note_on_c, 0, 48, 88
3, 63360, Note_on_c, 0, 43, 98
3, 63449, Note_on_c, 0, 43, 0
3, 63449, Note_on_c, 0, 48, 0
3, 63449, Note_on_c, 0, 40, 0
3, 63480, Note_on_c, 0, 50, 98
3, 63480, Note_on_c, 0, 45, 98
3, 63480, Note_on_c, 0, 41, 88
3, 63554, Note_on_c, 0, 41, 0
3, 63569, Note_on_c, 0, 45, 0
3, 63569, Note_on_c, 0, 50, 0
3, 63600, Note_on_c, 0, 52, 98
3, 63600, Note_on_c, 0, 43, 98
3, 63600, Note_on_c, 0, 48, 98
3, 63689, Note_on_c, 0, 48, 0
3, 63689, Note_on_c, 0, 52, 0
3, 63704, Note_on_c, 0, 43, 0
3, 63720, Note_on_c, 0, 47, 98
3, 63720, Note_on_c, 0, 43, 88
3, 63720, Note_on_c, 0, 50, 98
3, 63824, Note_on_c, 0, 50, 0
3, 63824, Note_on_c, 0, 43, 0
3, 63824, Note_on_c, 0, 47, 0
3, 63840, Note_on_c, 0, 36, 98
3, 63840, Note_on_c, 0, 48, 88
3, 63959, Note_on_c, 0, 48, 0
3, 63959, Note_on_c, 0, 36, 0
3, 64260, Note_on_c, 0, 67, 70
3, 64319, Note_on_c, 0, 67, 0
3, 64320, Note_on_c, 0, 69, 70
3, 64349, Note_on_c, 0, 69, 0
3, 64350, Note_on_c, 0, 71, 55
3, 64379, Note_on_c, 0, 71, 0
3, 64380, Note_on_c, 0, 67, 62
3, 64409, Note_on_c, 0, 67, 0
3, 64410, Note_on_c, 0, 69, 55
3, 64439, Note_on_c, 0, 69, 0
3, 64440, Note_on_c, 0, 65, 62
3, 64469, Note_on_c, 0, 65, 0
3, 64470, Note_on_c, 0, 67, 62
3, 64499, Note_on_c, 0, 67, 0
3, 64500, Note_on_c, 0, 64, 49
3, 64529, Note_on_c, 0, 64, 0
3, 64530, Note_on_c, 0, 65, 70
3, 64559, Note_on_c, 0, 65, 0
3, 64560, Note_on_c, 0, 62, 70
3, 64604, Note_on_c, 0, 62, 0
3, 64620, Note_on_c, 0, 62, 78
3, 64739, Note_on_c, 0, 62, 0
3, 64740, Note_on_c, 0, 65, 70
3, 64769, Note_on_c, 0, 65, 0
3, 64770, Note_on_c, 0, 62, 70
3, 64799, Note_on_c, 0, 62, 0
3, 64800, Note_on_c, 0, 67, 70
3, 64829, Note_on_c, 0, 67, 0
3, 64830, Note_on_c, 0, 69, 55
3, 64859, Note_on_c, 0, 69, 0
3, 64860, Note_on_c, 0, 65, 62
3, 64889, Note_on_c, 0, 65, 0
3, 64890, Note_on_c, 0, 67, 55
3, 64919, Note_on_c, 0, 67, 0
3, 64920, Note_on_c, 0, 64, 62
3, 64949, Note_on_c, 0, 64, 0
3, 64950, Note_on_c, 0, 65, 70
3, 64979, Note_on_c, 0, 65, 0
3, 64980, Note_on_c, 0, 55, 62
3, 64980, Note_on_c, 0, 62, 62
3, 65009, Note_on_c, 0, 62, 0
3, 65009, Note_on_c, 0, 55, 0
3, 65010, Note_on_c, 0, 64, 44
3, 65039, Note_on_c, 0, 64, 0
3, 65040, Note_on_c, 0, 48, 70
3, 65040, Note_on_c, 0, 60, 70
3, 65084, Note_on_c, 0, 48, 0
3, 65099, Note_on_c, 0, 60, 0
3, 65100, Note_on_c, 0, 47, 78
3, 65100, Note_on_c, 0, 59, 70
3, 65159, Note_on_c, 0, 59, 0
3, 65159, Note_on_c, 0, 47, 0
3, 65160, Note_on_c, 0, 57, 70
3, 65160, Note_on_c, 0, 45, 70
3, 65189, Note_on_c, 0, 57, 0
3, 65219, Note_on_c, 0, 45, 0
3, 65220, Note_on_c, 0, 60, 78
3, 65220, Note_on_c, 0, 55, 70
3, 65249, Note_on_c, 0, 55, 0
3, 65249, Note_on_c, 0, 60, 0
3, 65280, Note_on_c, 0, 53, 70
3, 65280, Note_on_c, 0, 65, 88
3, 65294, Note_on_c, 0, 65, 0
3, 65339, Note_on_c, 0, 53, 0
3, 65340, Note_on_c, 0, 64, 78
3, 65340, Note_on_c, 0, 60, 70
3, 65384, Note_on_c, 0, 64, 0
3, 65399, Note_on_c, 0, 60, 0
3, 65400, Note_on_c, 0, 62, 78
3, 65459, Note_on_c, 0, 62, 0
3, 65460, Note_on_c, 0, 57, 78
3, 65460, Note_on_c, 0, 60, 70
3, 65489, Note_on_c, 0, 60, 0
3, 65489, Note_on_c, 0, 57, 0
3, 65490, Note_on_c, 0, 53, 70
3, 65519, Note_on_c, 0, 53, 0
3, 65520, Note_on_c, 0, 59, 88
3, 65579, Note_on_c, 0, 59, 0
3, 65580, Note_on_c, 0, 57, 88
3, 65580, Note_on_c, 0, 65, 98
3, 65609, Note_on_c, 0, 57, 0
3, 65624, Note_on_c, 0, 65, 0
3, 65640, Note_on_c, 0, 62, 88
3, 65640, Note_on_c, 0, 55, 78
3, 65684, Note_on_c, 0, 55, 0
3, 65700, Note_on_c, 0, 53, 78
3, 65729, Note_on_c, 0, 53, 0
3, 65759, Note_on_c, 0, 62, 0
3, 65760, Note_on_c, 0, 52, 88
3, 65760, Note_on_c, 0, 64, 88
3, 65804, Note_on_c, 0, 64, 0
3, 65820, Note_on_c, 0, 62, 78
3, 65820, Note_on_c, 0, 59, 78
3, 65864, Note_on_c, 0, 59, 0
3, 65864, Note_on_c, 0, 62, 0
3, 65880, Note_on_c, 0, 60, 70
3, 65909, Note_on_c, 0, 60, 0
3, 65939, Note_on_c, 0, 52, 0
3, 65940, Note_on_c, 0, 55, 78
3, 65940, Note_on_c, 0, 59, 78
3, 65969, Note_on_c, 0, 59, 0
3, 65969, Note_on_c, 0, 55, 0
3, 65970, Note_on_c, 0, 52, 70
3, 65999, Note_on_c, 0, 52, 0
3, 66000, Note_on_c, 0, 57, 78
3, 66059, Note_on_c, 0, 57, 0
3, 66060, Note_on_c, 0, 55, 78
3, 66060, Note_on_c, 0, 64, 88
3, 66089, Note_on_c, 0, 55, 0
3, 66104, Note_on_c, 0, 64, 0
3, 66120, Note_on_c, 0, 53, 78
3, 66120, Note_on_c, 0, 60, 78
3, 66164, Note_on_c, 0, 53, 0
3, 66180, Note_on_c, 0, 52, 70
3, 66209, Note_on_c, 0, 52, 0
3, 66240, Note_on_c, 0, 50, 78
3, 66240, Note_on_c, 0, 53, 88
3, 66284, Note_on_c, 0, 50, 0
3, 66299, Note_on_c, 0, 53, 0
3, 66299, Note_on_c, 0, 60, 0
3, 66300, Note_on_c, 0, 52, 78
3, 66329, Note_on_c, 0, 52, 0
3, 66360, Note_on_c, 0, 47, 88
3, 66360, Note_on_c, 0, 55, 78
3, 66389, Note_on_c, 0, 47, 0
3, 66419, Note_on_c, 0, 55, 0
3, 66420, Note_on_c, 0, 45, 78
3, 66420, Note_on_c, 0, 48, 78
3, 66449, Note_on_c, 0, 45, 0
3, 66464, Note_on_c, 0, 48, 0
3, 66480, Note_on_c, 0, 43, 78
3, 66480, Note_on_c, 0, 53, 78
3, 66480, Note_on_c, 0, 50, 88
3, 66584, Note_on_c, 0, 50, 0
3, 66584, Note_on_c, 0, 43, 0
3, 66600, Note_on_c, 0, 50, 88
3, 66600, Note_on_c, 0, 43, 88
3, 66674, Note_on_c, 0, 43, 0
3, 66674, Note_on_c, 0, 50, 0
3, 66689, Note_on_c, 0, 53, 0
3, 66690, Note_on_c, 0, 43, 70
3, 66690, Note_on_c, 0, 50, 70
3, 66704, Note_on_c, 0, 50, 0
3, 66704, Note_on_c, 0, 43, 0
3, 66720, Note_on_c, 0, 52, 88
3, 66720, Note_on_c, 0, 48, 78
3, 66794, Note_on_c, 0, 48, 0
3, 66794, Note_on_c, 0, 52, 0
3, 66840, Note_on_c, 0, 62, 88
3, 66840, Note_on_c, 0, 53, 78
3, 66840, Note_on_c, 0, 60, 88
3, 66840, Note_on_c, 0, 57, 88
3, 66944, Note_on_c, 0, 57, 0
3, 66944, Note_on_c, 0, 62, 0
3, 66944, Note_on_c, 0, 53, 0
3, 66960, Note_on_c, 0, 55, 70
3, 66960, Note_on_c, 0, 64, 98
3, 67049, Note_on_c, 0, 64, 0
3, 67049, Note_on_c, 0, 55, 0
3, 67079, Note_on_c, 0, 60, 0
3, 67080, Note_on_c, 0, 59, 98
3, 67080, Note_on_c, 0, 55, 88
3, 67080, Note_on_c, 0, 62, 88
3, 67139, Note_on_c, 0, 62, 0
3, 67139, Note_on_c, 0, 55, 0
3, 67139, Note_on_c, 0, 59, 0
3, 67200, Note_on_c, 0, 60, 78
3, 67200, Note_on_c, 0, 48, 78
3, 67200, Note_on_c, 0, 52, 88
3, 67229, Note_on_c, 0, 52, 0
3, 67229, Note_on_c, 0, 48, 0
3, 67229, Note_on_c, 0, 60, 0
3, 67260, Note_on_c, 0, 60, 88
3, 67289, Note_on_c, 0, 60, 0
3, 67290, Note_on_c, 0, 59, 78
3, 67304, Note_on_c, 0, 59, 0
3, 67320, Note_on_c, 0, 57, 78
3, 67349, Note_on_c, 0, 57, 0
3, 67380, Note_on_c, 0, 55, 78
3, 67409, Note_on_c, 0, 55, 0
3, 67440, Note_on_c, 0, 53, 88
3, 67469, Note_on_c, 0, 53, 0
3, 67500, Note_on_c, 0, 52, 88
3, 67529, Note_on_c, 0, 52, 0
3, 67560, Note_on_c, 0, 50, 98
3, 67560, Note_on_c, 0, 59, 88
3, 67560, Note_on_c, 0, 55, 98
3, 67589, Note_on_c, 0, 55, 0
3, 67589, Note_on_c, 0, 59, 0
3, 67589, Note_on_c, 0, 50, 0
3, 67620, Note_on_c, 0, 48, 88
3, 67620, Note_on_c, 0, 52, 88
3, 67649, Note_on_c, 0, 52, 0
3, 67649, Note_on_c, 0, 48, 0
3, 67680, Note_on_c, 0, 47, 88
3, 67680, Note_on_c, 0, 50, 88
3, 67680, Note_on_c, 0, 53, 98
3, 67709, Note_on_c, 0, 50, 0
3, 67709, Note_on_c, 0, 47, 0
3, 67724, Note_on_c, 0, 53, 0
3, 67800, Note_on_c, 0, 48, 98
3, 67800, Note_on_c, 0, 60, 98
3, 67800, Note_on_c, 0, 52, 98
3, 67859, Note_on_c, 0, 52, 0
3, 67859, Note_on_c, 0, 48, 0
3, 67874, Note_on_c, 0, 60, 0
3, 67920, Note_on_c, 0, 60, 98
3, 67920, Note_on_c, 0, 55, 98
3, 67920, Note_on_c, 0, 62, 110
3, 68024, Note_on_c, 0, 62, 0
3, 68024, Note_on_c, 0, 55, 0
3, 68024, Note_on_c, 0, 60, 0
3, 68040, Note_on_c, 0, 55, 98
3, 68040, Note_on_c, 0, 59, 98
3, 68040, Note_on_c, 0, 62, 98
3, 68144, Note_on_c, 0, 62, 0
3, 68144, Note_on_c, 0, 59, 0
3, 68144, Note_on_c, 0, 55, 0
3, 68160, Note_on_c, 0, 48, 88
3, 68160, Note_on_c, 0, 60, 98
3, 68204, Note_on_c, 0, 60, 0
3, 68204, Note_on_c, 0, 48, 0
3, 68220, Note_on_c, 0, 60, 78
3, 68234, Note_on_c, 0, 60, 0
3, 68250, Note_on_c, 0, 59, 62
3, 68264, Note_on_c, 0, 59, 0
3, 68280, Note_on_c, 0, 57, 78
3, 68309, Note_on_c, 0, 57, 0
3, 68340, Note_on_c, 0, 55, 62
3, 68369, Note_on_c, 0, 55, 0
3, 68400, Note_on_c, 0, 53, 78
3, 68444, Note_on_c, 0, 53, 0
3, 68460, Note_on_c, 0, 52, 78
3, 68489, Note_on_c, 0, 52, 0
3, 68520, Note_on_c, 0, 50, 98
3, 68520, Note_on_c, 0, 59, 88
3, 68520, Note_on_c, 0, 55, 88
3, 68549, Note_on_c, 0, 55, 0
3, 68549, Note_on_c, 0, 59, 0
3, 68549, Note_on_c, 0, 50, 0
3, 68580, Note_on_c, 0, 52, 98
3, 68580, Note_on_c, 0, 48, 98
3, 68609, Note_on_c, 0, 48, 0
3, 68609, Note_on_c, 0, 52, 0
3, 68640, Note_on_c, 0, 47, 88
3, 68640, Note_on_c, 0, 50, 98
3, 68640, Note_on_c, 0, 53, 98
3, 68714, Note_on_c, 0, 53, 0
3, 68714, Note_on_c, 0, 50, 0
3, 68714, Note_on_c, 0, 47, 0
3, 68760, Note_on_c, 0, 48, 98
3, 68760, Note_on_c, 0, 60, 110
3, 68760, Note_on_c, 0, 52, 110
3, 68834, Note_on_c, 0, 52, 0
3, 68834, Note_on_c, 0, 60, 0
3, 68834, Note_on_c, 0, 48, 0
3, 68880, Note_on_c, 0, 53, 110
3, 68880, Note_on_c, 0, 60, 98
3, 68880, Note_on_c, 0, 62, 110
3, 68969, Note_on_c, 0, 62, 0
3, 68969, Note_on_c, 0, 60, 0
3, 68969, Note_on_c, 0, 53, 0
3, 69000, Note_on_c, 0, 62, 110
3, 69000, Note_on_c, 0, 59, 110
3, 69000, Note_on_c, 0, 55, 110
3, 69089, Note_on_c, 0, 55, 0
3, 69089, Note_on_c, 0, 59, 0
3, 69089, Note_on_c, 0, 62, 0
3, 69120, Note_on_c, 0, 48, 110
3, 69120, Note_on_c, 0, 60, 98
3, 69224, Note_on_c, 0, 60, 0
3, 69224, Note_on_c, 0, 48, 0
3, 69240, Note_on_c, 0, 48, 98
3, 69240, Note_on_c, 0, 60, 98
3, 69314, Note_on_c, 0, 60, 0
3, 69314, Note_on_c, 0, 48, 0
3, 69330, Note_on_c, 0, 60, 88
3, 69330, Note_on_c, 0, 48, 88
3, 69344, Note_on_c, 0, 48, 0
3, 69359, Note_on_c, 0, 60, 0
3, 69360, Note_on_c, 0, 48, 98
3, 69360, Note_on_c, 0, 36, 110
3, 69404, Note_on_c, 0, 36, 0
3, 69404, Note_on_c, 0, 48, 0
3, 69420, Note_on_c, 0, 38, 98
3, 69420, Note_on_c, 0, 50, 110
3, 69464, Note_on_c, 0, 50, 0
3, 69464, Note_on_c, 0, 38, 0
3, 69480, Note_on_c, 0, 40, 98
3, 69480, Note_on_c, 0, 52, 98
3, 69509, Note_on_c, 0, 52, 0
3, 69524, Note_on_c, 0, 40, 0
3, 69540, Note_on_c, 0, 41, 88
3, 69540, Note_on_c, 0, 53, 98
3, 69569, Note_on_c, 0, 53, 0
3, 69569, Note_on_c, 0, 41, 0
3, 69600, Note_on_c, 0, 43, 78
3, 69600, Note_on_c, 0, 55, 98
3, 69704, Note_on_c, 0, 43, 0
3, 69719, Note_on_c, 0, 55, 0
3, 69720, Note_on_c, 0, 48, 98
3, 69720, Note_on_c, 0, 60, 98
3, 69794, Note_on_c, 0, 60, 0
3, 69794, Note_on_c, 0, 48, 0
3, 69810, Note_on_c, 0, 60, 88
3, 69810, Note_on_c, 0, 48, 88
3, 69824, Note_on_c, 0, 48, 0
3, 69824, Note_on_c, 0, 60, 0
3, 69840, Note_on_c, 0, 40, 88
3, 69840, Note_on_c, 0, 52, 98
3, 69884, Note_on_c, 0, 52, 0
3, 69884, Note_on_c, 0, 40, 0
3, 69900, Note_on_c, 0, 53, 98
3, 69900, Note_on_c, 0, 41, 78
3, 69929, Note_on_c, 0, 41, 0
3, 69944, Note_on_c, 0, 53, 0
3, 69960, Note_on_c, 0, 43, 88
3, 69960, Note_on_c, 0, 55, 98
3, 69989, Note_on_c, 0, 55, 0
3, 70004, Note_on_c, 0, 43, 0
3, 70020, Note_on_c, 0, 45, 62
3, 70020, Note_on_c, 0, 57, 98
3, 70049, Note_on_c, 0, 57, 0
3, 70049, Note_on_c, 0, 45, 0
3, 70080, Note_on_c, 0, 46, 98
3, 70080, Note_on_c, 0, 58, 110
3, 70184, Note_on_c, 0, 58, 0
3, 70184, Note_on_c, 0, 46, 0
3, 70200, Note_on_c, 0, 48, 98
3, 70200, Note_on_c, 0, 60, 98
3, 70274, Note_on_c, 0, 60, 0
3, 70274, Note_on_c, 0, 48, 0
3, 70290, Note_on_c, 0, 48, 78
3, 70290, Note_on_c, 0, 60, 88
3, 70304, Note_on_c, 0, 60, 0
3, 70304, Note_on_c, 0, 48, 0
3, 70320, Note_on_c, 0, 46, 98
3, 70320, Note_on_c, 0, 58, 110
3, 70349, Note_on_c, 0, 58, 0
3, 70364, Note_on_c, 0, 46, 0
3, 70380, Note_on_c, 0, 45, 88
3, 70380, Note_on_c, 0, 57, 110
3, 70409, Note_on_c, 0, 57, 0
3, 70409, Note_on_c, 0, 45, 0
3, 70440, Note_on_c, 0, 43, 78
3, 70440, Note_on_c, 0, 55, 88
3, 70469, Note_on_c, 0, 55, 0
3, 70484, Note_on_c, 0, 43, 0
3, 70500, Note_on_c, 0, 41, 88
3, 70500, Note_on_c, 0, 53, 98
3, 70529, Note_on_c, 0, 53, 0
3, 70529, Note_on_c, 0, 41, 0
3, 70560, Note_on_c, 0, 40, 88
3, 70560, Note_on_c, 0, 52, 98
3, 70679, Note_on_c, 0, 52, 0
3, 70679, Note_on_c, 0, 40, 0
3, 70680, Note_on_c, 0, 41, 88
3, 70680, Note_on_c, 0, 53, 110
3, 70799, Note_on_c, 0, 53, 0
3, 70799, Note_on_c, 0, 41, 0
3, 70800, Note_on_c, 0, 43, 98
3, 70800, Note_on_c, 0, 55, 110
3, 70904, Note_on_c, 0, 43, 0
3, 70919, Note_on_c, 0, 55, 0
3, 70920, Note_on_c, 0, 31, 98
3, 70920, Note_on_c, 0, 43, 98
3, 71024, Note_on_c, 0, 43, 0
3, 71024, Note_on_c, 0, 31, 0
3, 71040, Note_on_c, 0, 36, 88
3, 71040, Note_on_c, 0, 48, 98
3, 71084, Note_on_c, 0, 48, 0
3, 71084, Note_on_c, 0, 36, 0
3, 71100, Note_on_c, 0, 48, 88
3, 71129, Note_on_c, 0, 48, 0
3, 71130, Note_on_c, 0, 50, 88
3, 71159, Note_on_c, 0, 50, 0
3, 71160, Note_on_c, 0, 52, 110
3, 71219, Note_on_c, 0, 52, 0
3, 71220, Note_on_c, 0, 50, 98
3, 71234, Note_on_c, 0, 50, 0
3, 71250, Note_on_c, 0, 52, 78
3, 71264, Note_on_c, 0, 52, 0
3, 71280, Note_on_c, 0, 53, 110
3, 71339, Note_on_c, 0, 53, 0
3, 71340, Note_on_c, 0, 52, 98
3, 71369, Note_on_c, 0, 52, 0
3, 71370, Note_on_c, 0, 53, 98
3, 71399, Note_on_c, 0, 53, 0
3, 71400, Note_on_c, 0, 55, 110
3, 71429, Note_on_c, 0, 55, 0
3, 71430, Note_on_c, 0, 57, 88
3, 71459, Note_on_c, 0, 57, 0
3, 71460, Note_on_c, 0, 53, 98
3, 71489, Note_on_c, 0, 53, 0
3, 71490, Note_on_c, 0, 55, 78
3, 71519, Note_on_c, 0, 55, 0
3, 71520, Note_on_c, 0, 52, 98
3, 71579, Note_on_c, 0, 52, 0
3, 71580, Note_on_c, 0, 48, 88
3, 71609, Note_on_c, 0, 48, 0
3, 71610, Note_on_c, 0, 50, 78
3, 71639, Note_on_c, 0, 50, 0
3, 71640, Note_on_c, 0, 52, 98
3, 71699, Note_on_c, 0, 52, 0
3, 71700, Note_on_c, 0, 50, 88
3, 71714, Note_on_c, 0, 50, 0
3, 71730, Note_on_c, 0, 52, 88
3, 71759, Note_on_c, 0, 52, 0
3, 71760, Note_on_c, 0, 53, 98
3, 71819, Note_on_c, 0, 53, 0
3, 71820, Note_on_c, 0, 52, 88
3, 71849, Note_on_c, 0, 52, 0
3, 71850, Note_on_c, 0, 53, 88
3, 71864, Note_on_c, 0, 53, 0
3, 71880, Note_on_c, 0, 55, 98
3, 71939, Note_on_c, 0, 55, 0
3, 71940, Note_on_c, 0, 43, 88
3, 71984, Note_on_c, 0, 43, 0
3, 72000, Note_on_c, 0, 48, 98
3, 72104, Note_on_c, 0, 48, 0
3, 72120, Note_on_c, 0, 36, 110
3, 72120, Note_on_c, 0, 48, 110
3, 72194, Note_on_c, 0, 48, 0
3, 72194, Note_on_c, 0, 36, 0
3, 72210, Note_on_c, 0, 36, 98
3, 72210, Note_on_c, 0, 48, 98
3, 72224, Note_on_c, 0, 48, 0
3, 72224, Note_on_c, 0, 36, 0
3, 72240, Note_on_c, 0, 36, 110
3, 72240, Note_on_c, 0, 48, 110
3, 72329, Note_on_c, 0, 48, 0
3, 72329, Note_on_c, 0, 36, 0
3, 72329, End_track
4, 0, Start_track
4, 0, MIDI_port, 0
4, 0, Title_t, "soprano"
4, 0, Program_c, 1, 52
4, 1920, Note_on_c, 1, 72, 78
4, 2009, Note_on_c, 1, 72, 0
4, 2040, Note_on_c, 1, 72, 90
4, 2099, Note_on_c, 1, 72, 0
4, 2130, Note_on_c, 1, 72, 90
4, 2159, Note_on_c, 1, 72, 0
4, 2160, Note_on_c, 1, 72, 78
4, 2249, Note_on_c, 1, 72, 0
4, 2280, Note_on_c, 1, 72, 90
4, 2369, Note_on_c, 1, 72, 0
4, 2400, Note_on_c, 1, 72, 90
4, 2489, Note_on_c, 1, 72, 0
4, 2520, Note_on_c, 1, 72, 90
4, 2579, Note_on_c, 1, 72, 0
4, 2610, Note_on_c, 1, 72, 90
4, 2639, Note_on_c, 1, 72, 0
4, 2640, Note_on_c, 1, 72, 78
4, 2729, Note_on_c, 1, 72, 0
4, 2760, Note_on_c, 1, 72, 78
4, 2849, Note_on_c, 1, 72, 0
4, 2880, Note_on_c, 1, 72, 90
4, 2969, Note_on_c, 1, 72, 0
4, 3000, Note_on_c, 1, 72, 90
4, 3089, Note_on_c, 1, 72, 0
4, 3120, Note_on_c, 1, 72, 90
4, 3209, Note_on_c, 1, 72, 0
4, 3240, Note_on_c, 1, 72, 78
4, 3269, Note_on_c, 1, 72, 0
4, 3300, Note_on_c, 1, 72, 90
4, 3329, Note_on_c, 1, 72, 0
4, 3360, Note_on_c, 1, 72, 90
4, 3449, Note_on_c, 1, 72, 0
4, 3480, Note_on_c, 1, 72, 90
4, 3569, Note_on_c, 1, 72, 0
4, 3600, Note_on_c, 1, 72, 78
4, 3689, Note_on_c, 1, 72, 0
4, 3720, Note_on_c, 1, 77, 78
4, 3839, Note_on_c, 1, 77, 0
4, 3840, Note_on_c, 1, 76, 78
4, 3899, Note_on_c, 1, 76, 0
4, 3900, Note_on_c, 1, 72, 68
4, 3929, Note_on_c, 1, 72, 0
4, 3960, Note_on_c, 1, 76, 78
4, 4139, Note_on_c, 1, 76, 0
4, 4140, Note_on_c, 1, 74, 78
4, 4199, Note_on_c, 1, 74, 0
4, 4200, Note_on_c, 1, 72, 68
4, 4259, Note_on_c, 1, 72, 0
4, 4260, Note_on_c, 1, 71, 68
4, 4319, Note_on_c, 1, 71, 0
4, 4320, Note_on_c, 1, 69, 78
4, 4439, Note_on_c, 1, 69, 0
4, 4440, Note_on_c, 1, 76, 78
4, 4559, Note_on_c, 1, 76, 0
4, 4560, Note_on_c, 1, 74, 78
4, 4589, Note_on_c, 1, 74, 0
4, 4620, Note_on_c, 1, 72, 50
4, 4679, Note_on_c, 1, 72, 0
4, 4680, Note_on_c, 1, 71, 90
4, 4739, Note_on_c, 1, 71, 0
4, 4740, Note_on_c, 1, 69, 58
4, 4799, Note_on_c, 1, 69, 0
4, 4800, Note_on_c, 1, 67, 78
4, 4919, Note_on_c, 1, 67, 0
4, 4920, Note_on_c, 1, 74, 90
4, 5039, Note_on_c, 1, 74, 0
4, 5160, Note_on_c, 1, 72, 78
4, 5189, Note_on_c, 1, 72, 0
4, 5220, Note_on_c, 1, 72, 78
4, 5249, Note_on_c, 1, 72, 0
4, 5280, Note_on_c, 1, 72, 78
4, 5369, Note_on_c, 1, 72, 0
4, 5400, Note_on_c, 1, 72, 78
4, 5429, Note_on_c, 1, 72, 0
4, 5460, Note_on_c, 1, 72, 78
4, 5489, Note_on_c, 1, 72, 0
4, 5520, Note_on_c, 1, 72, 78
4, 5609, Note_on_c, 1, 72, 0
4, 5640, Note_on_c, 1, 72, 78
4, 5669, Note_on_c, 1, 72, 0
4, 5700, Note_on_c, 1, 72, 78
4, 5729, Note_on_c, 1, 72, 0
4, 5760, Note_on_c, 1, 72, 78
4, 5939, Note_on_c, 1, 72, 0
4, 5940, Note_on_c, 1, 72, 90
4, 5969, Note_on_c, 1, 72, 0
4, 6000, Note_on_c, 1, 72, 90
4, 6089, Note_on_c, 1, 72, 0
4, 6120, Note_on_c, 1, 72, 78
4, 6149, Note_on_c, 1, 72, 0
4, 6180, Note_on_c, 1, 72, 90
4, 6239, Note_on_c, 1, 72, 0
4, 6240, Note_on_c, 1, 71, 78
4, 6359, Note_on_c, 1, 71, 0
4, 6360, Note_on_c, 1, 72, 78
4, 6479, Note_on_c, 1, 72, 0
4, 6480, Note_on_c, 1, 71, 78
4, 6599, Note_on_c, 1, 71, 0
4, 6600, Note_on_c, 1, 69, 90
4, 6659, Note_on_c, 1, 69, 0
4, 6690, Note_on_c, 1, 69, 78
4, 6719, Note_on_c, 1, 69, 0
4, 6720, Note_on_c, 1, 67, 90
4, 6839, Note_on_c, 1, 67, 0
4, 8160, Note_on_c, 1, 76, 90
4, 8249, Note_on_c, 1, 76, 0
4, 8280, Note_on_c, 1, 76, 90
4, 8369, Note_on_c, 1, 76, 0
4, 8400, Note_on_c, 1, 76, 90
4, 8489, Note_on_c, 1, 76, 0
4, 8520, Note_on_c, 1, 76, 90
4, 8609, Note_on_c, 1, 76, 0
4, 8640, Note_on_c, 1, 76, 104
4, 8729, Note_on_c, 1, 76, 0
4, 8730, Note_on_c, 1, 76, 58
4, 8759, Note_on_c, 1, 76, 0
4, 8760, Note_on_c, 1, 74, 50
4, 8849, Note_on_c, 1, 74, 0
4, 8880, Note_on_c, 1, 74, 42
4, 8969, Note_on_c, 1, 74, 0
4, 9000, Note_on_c, 1, 74, 42
4, 9059, Note_on_c, 1, 74, 0
4, 9120, Note_on_c, 1, 74, 90
4, 9239, Note_on_c, 1, 74, 0
4, 9240, Note_on_c, 1, 72, 35
4, 9329, Note_on_c, 1, 72, 0
4, 9360, Note_on_c, 1, 72, 42
4, 9449, Note_on_c, 1, 72, 0
4, 9480, Note_on_c, 1, 72, 29
4, 9569, Note_on_c, 1, 72, 0
4, 9600, Note_on_c, 1, 72, 90
4, 9719, Note_on_c, 1, 72, 0
4, 9720, Note_on_c, 1, 71, 50
4, 9959, Note_on_c, 1, 71, 0
4, 9960, Note_on_c, 1, 69, 42
4, 10079, Note_on_c, 1, 69, 0
4, 10080, Note_on_c, 1, 68, 104
4, 10199, Note_on_c, 1, 68, 0
4, 10200, Note_on_c, 1, 69, 78
4, 10259, Note_on_c, 1, 69, 0
4, 10260, Note_on_c, 1, 71, 78
4, 10319, Note_on_c, 1, 71, 0
4, 10320, Note_on_c, 1, 72, 78
4, 10469, Note_on_c, 1, 72, 0
4, 10500, Note_on_c, 1, 72, 90
4, 10559, Note_on_c, 1, 72, 0
4, 10560, Note_on_c, 1, 71, 90
4, 10679, Note_on_c, 1, 71, 0
4, 10860, Note_on_c, 1, 76, 90
4, 10979, Note_on_c, 1, 76, 0
4, 10980, Note_on_c, 1, 76, 90
4, 11039, Note_on_c, 1, 76, 0
4, 11040, Note_on_c, 1, 72, 68
4, 11099, Note_on_c, 1, 72, 0
4, 11100, Note_on_c, 1, 69, 68
4, 11159, Note_on_c, 1, 69, 0
4, 11160, Note_on_c, 1, 76, 78
4, 11309, Note_on_c, 1, 76, 0
4, 11340, Note_on_c, 1, 76, 90
4, 11369, Note_on_c, 1, 76, 0
4, 11400, Note_on_c, 1, 76, 90
4, 11429, Note_on_c, 1, 76, 0
4, 11460, Note_on_c, 1, 76, 78
4, 11519, Note_on_c, 1, 76, 0
4, 11520, Note_on_c, 1, 72, 68
4, 11579, Note_on_c, 1, 72, 0
4, 11580, Note_on_c, 1, 69, 78
4, 11639, Note_on_c, 1, 69, 0
4, 11640, Note_on_c, 1, 76, 78
4, 11879, Note_on_c, 1, 76, 0
4, 11880, Note_on_c, 1, 74, 90
4, 12059, Note_on_c, 1, 74, 0
4, 12060, Note_on_c, 1, 67, 78
4, 12119, Note_on_c, 1, 67, 0
4, 12120, Note_on_c, 1, 72, 78
4, 12269, Note_on_c, 1, 72, 0
4, 12300, Note_on_c, 1, 72, 78
4, 12359, Note_on_c, 1, 72, 0
4, 12360, Note_on_c, 1, 71, 78
4, 12479, Note_on_c, 1, 71, 0
4, 12480, Note_on_c, 1, 69, 90
4, 12569, Note_on_c, 1, 69, 0
4, 12570, Note_on_c, 1, 69, 78
4, 12599, Note_on_c, 1, 69, 0
4, 12600, Note_on_c, 1, 71, 78
4, 12719, Note_on_c, 1, 71, 0
4, 12720, Note_on_c, 1, 69, 90
4, 12839, Note_on_c, 1, 69, 0
4, 12840, Note_on_c, 1, 68, 90
4, 12929, Note_on_c, 1, 68, 0
4, 12930, Note_on_c, 1, 68, 90
4, 12959, Note_on_c, 1, 68, 0
4, 12960, Note_on_c, 1, 69, 78
4, 13079, Note_on_c, 1, 69, 0
4, 13200, Note_on_c, 1, 72, 78
4, 13259, Note_on_c, 1, 72, 0
4, 13260, Note_on_c, 1, 71, 68
4, 13319, Note_on_c, 1, 71, 0
4, 13320, Note_on_c, 1, 69, 78
4, 13379, Note_on_c, 1, 69, 0
4, 13380, Note_on_c, 1, 67, 68
4, 13439, Note_on_c, 1, 67, 0
4, 13440, Note_on_c, 1, 66, 90
4, 13619, Note_on_c, 1, 66, 0
4, 13620, Note_on_c, 1, 67, 78
4, 13649, Note_on_c, 1, 67, 0
4, 13650, Note_on_c, 1, 69, 78
4, 13679, Note_on_c, 1, 69, 0
4, 13680, Note_on_c, 1, 71, 78
4, 13769, Note_on_c, 1, 71, 0
4, 13980, Note_on_c, 1, 73, 90
4, 14039, Note_on_c, 1, 73, 0
4, 14040, Note_on_c, 1, 76, 78
4, 14099, Note_on_c, 1, 76, 0
4, 14100, Note_on_c, 1, 73, 78
4, 14159, Note_on_c, 1, 73, 0
4, 14160, Note_on_c, 1, 69, 90
4, 14249, Note_on_c, 1, 69, 0
4, 14250, Note_on_c, 1, 69, 78
4, 14279, Note_on_c, 1, 69, 0
4, 14280, Note_on_c, 1, 69, 90
4, 14399, Note_on_c, 1, 69, 0
4, 14400, Note_on_c, 1, 67, 90
4, 14489, Note_on_c, 1, 67, 0
4, 14520, Note_on_c, 1, 67, 90
4, 14639, Note_on_c, 1, 67, 0
4, 14640, Note_on_c, 1, 72, 90
4, 14729, Note_on_c, 1, 72, 0
4, 14760, Note_on_c, 1, 72, 78
4, 14819, Note_on_c, 1, 72, 0
4, 14820, Note_on_c, 1, 74, 68
4, 14879, Note_on_c, 1, 74, 0
4, 14880, Note_on_c, 1, 75, 90
4, 14939, Note_on_c, 1, 75, 0
4, 14940, Note_on_c, 1, 77, 68
4, 14999, Note_on_c, 1, 77, 0
4, 15000, Note_on_c, 1, 75, 90
4, 15059, Note_on_c, 1, 75, 0
4, 15060, Note_on_c, 1, 74, 78
4, 15119, Note_on_c, 1, 74, 0
4, 15120, Note_on_c, 1, 72, 78
4, 15359, Note_on_c, 1, 72, 0
4, 15360, Note_on_c, 1, 71, 78
4, 15479, Note_on_c, 1, 71, 0
4, 16800, Note_on_c, 1, 72, 90
4, 17009, Note_on_c, 1, 72, 0
4, 17010, Note_on_c, 1, 72, 90
4, 17039, Note_on_c, 1, 72, 0
4, 17040, Note_on_c, 1, 72, 78
4, 17129, Note_on_c, 1, 72, 0
4, 17160, Note_on_c, 1, 72, 90
4, 17249, Note_on_c, 1, 72, 0
4, 17280, Note_on_c, 1, 72, 90
4, 17489, Note_on_c, 1, 72, 0
4, 17520, Note_on_c, 1, 72, 90
4, 17609, Note_on_c, 1, 72, 0
4, 17640, Note_on_c, 1, 72, 90
4, 17729, Note_on_c, 1, 72, 0
4, 17760, Note_on_c, 1, 72, 90
4, 17849, Note_on_c, 1, 72, 0
4, 17880, Note_on_c, 1, 72, 90
4, 17969, Note_on_c, 1, 72, 0
4, 18000, Note_on_c, 1, 72, 90
4, 18149, Note_on_c, 1, 72, 0
4, 18180, Note_on_c, 1, 72, 90
4, 18209, Note_on_c, 1, 72, 0
4, 18240, Note_on_c, 1, 72, 90
4, 18389, Note_on_c, 1, 72, 0
4, 18420, Note_on_c, 1, 72, 90
4, 18449, Note_on_c, 1, 72, 0
4, 18480, Note_on_c, 1, 72, 90
4, 18509, Note_on_c, 1, 72, 0
4, 18540, Note_on_c, 1, 72, 90
4, 18599, Note_on_c, 1, 72, 0
4, 18600, Note_on_c, 1, 77, 90
4, 18719, Note_on_c, 1, 77, 0
4, 18720, Note_on_c, 1, 76, 90
4, 18839, Note_on_c, 1, 76, 0
4, 18840, Note_on_c, 1, 76, 90
4, 18869, Note_on_c, 1, 76, 0
4, 18900, Note_on_c, 1, 76, 90
4, 18959, Note_on_c, 1, 76, 0
4, 18960, Note_on_c, 1, 74, 90
4, 19049, Note_on_c, 1, 74, 0
4, 19050, Note_on_c, 1, 74, 90
4, 19079, Note_on_c, 1, 74, 0
4, 19080, Note_on_c, 1, 74, 90
4, 19199, Note_on_c, 1, 74, 0
4, 19200, Note_on_c, 1, 72, 90
4, 19349, Note_on_c, 1, 72, 0
4, 19380, Note_on_c, 1, 72, 78
4, 19439, Note_on_c, 1, 72, 0
4, 19440, Note_on_c, 1, 70, 90
4, 19529, Note_on_c, 1, 70, 0
4, 19560, Note_on_c, 1, 70, 78
4, 19589, Note_on_c, 1, 70, 0
4, 19620, Note_on_c, 1, 70, 90
4, 19679, Note_on_c, 1, 70, 0
4, 19680, Note_on_c, 1, 69, 78
4, 19769, Note_on_c, 1, 69, 0
4, 19770, Note_on_c, 1, 69, 90
4, 19799, Note_on_c, 1, 69, 0
4, 19800, Note_on_c, 1, 69, 78
4, 19919, Note_on_c, 1, 69, 0
4, 19920, Note_on_c, 1, 67, 90
4, 20009, Note_on_c, 1, 67, 0
4, 20010, Note_on_c, 1, 67, 90
4, 20039, Note_on_c, 1, 67, 0
4, 20040, Note_on_c, 1, 67, 78
4, 20129, Note_on_c, 1, 67, 0
4, 20160, Note_on_c, 1, 65, 90
4, 20219, Note_on_c, 1, 65, 0
4, 20220, Note_on_c, 1, 67, 68
4, 20279, Note_on_c, 1, 67, 0
4, 20280, Note_on_c, 1, 69, 68
4, 20339, Note_on_c, 1, 69, 0
4, 20340, Note_on_c, 1, 71, 68
4, 20399, Note_on_c, 1, 71, 0
4, 20400, Note_on_c, 1, 72, 68
4, 20459, Note_on_c, 1, 72, 0
4, 20460, Note_on_c, 1, 74, 68
4, 20519, Note_on_c, 1, 74, 0
4, 20520, Note_on_c, 1, 76, 58
4, 20579, Note_on_c, 1, 76, 0
4, 20580, Note_on_c, 1, 78, 78
4, 20639, Note_on_c, 1, 78, 0
4, 20640, Note_on_c, 1, 79, 78
4, 20759, Note_on_c, 1, 79, 0
4, 20820, Note_on_c, 1, 72, 78
4, 20879, Note_on_c, 1, 72, 0
4, 20880, Note_on_c, 1, 69, 68
4, 20939, Note_on_c, 1, 69, 0
4, 20940, Note_on_c, 1, 67, 78
4, 20969, Note_on_c, 1, 67, 0
4, 21000, Note_on_c, 1, 65, 78
4, 21059, Note_on_c, 1, 65, 0
4, 21060, Note_on_c, 1, 64, 68
4, 21119, Note_on_c, 1, 64, 0
4, 21120, Note_on_c, 1, 65, 90
4, 21209, Note_on_c, 1, 65, 0
4, 21210, Note_on_c, 1, 67, 68
4, 21239, Note_on_c, 1, 67, 0
4, 21240, Note_on_c, 1, 69, 90
4, 21329, Note_on_c, 1, 69, 0
4, 21420, Note_on_c, 1, 69, 78
4, 21479, Note_on_c, 1, 69, 0
4, 21480, Note_on_c, 1, 72, 90
4, 21539, Note_on_c, 1, 72, 0
4, 21540, Note_on_c, 1, 71, 78
4, 21599, Note_on_c, 1, 71, 0
4, 21600, Note_on_c, 1, 72, 78
4, 21689, Note_on_c, 1, 72, 0
4, 21690, Note_on_c, 1, 74, 78
4, 21719, Note_on_c, 1, 74, 0
4, 21720, Note_on_c, 1, 76, 78
4, 21749, Note_on_c, 1, 76, 0
4, 21780, Note_on_c, 1, 72, 78
4, 21809, Note_on_c, 1, 72, 0
4, 21840, Note_on_c, 1, 77, 90
4, 21929, Note_on_c, 1, 77, 0
4, 21960, Note_on_c, 1, 77, 90
4, 22049, Note_on_c, 1, 77, 0
4, 22080, Note_on_c, 1, 77, 90
4, 22169, Note_on_c, 1, 77, 0
4, 22200, Note_on_c, 1, 77, 90
4, 22289, Note_on_c, 1, 77, 0
4, 22320, Note_on_c, 1, 77, 90
4, 22409, Note_on_c, 1, 77, 0
4, 22440, Note_on_c, 1, 77, 78
4, 22469, Note_on_c, 1, 77, 0
4, 22500, Note_on_c, 1, 77, 90
4, 22529, Note_on_c, 1, 77, 0
4, 22560, Note_on_c, 1, 77, 90
4, 22769, Note_on_c, 1, 77, 0
4, 22800, Note_on_c, 1, 77, 90
4, 22949, Note_on_c, 1, 77, 0
4, 22980, Note_on_c, 1, 77, 78
4, 23039, Note_on_c, 1, 77, 0
4, 23040, Note_on_c, 1, 76, 78
4, 23159, Note_on_c, 1, 76, 0
4, 23160, Note_on_c, 1, 74, 90
4, 23189, Note_on_c, 1, 74, 0
4, 23220, Note_on_c, 1, 74, 78
4, 23279, Note_on_c, 1, 74, 0
4, 23280, Note_on_c, 1, 72, 78
4, 23399, Note_on_c, 1, 72, 0
4, 23400, Note_on_c, 1, 71, 90
4, 23519, Note_on_c, 1, 71, 0
4, 23520, Note_on_c, 1, 72, 90
4, 23639, Note_on_c, 1, 72, 0
4, 23700, Note_on_c, 1, 76, 78
4, 23759, Note_on_c, 1, 76, 0
4, 23760, Note_on_c, 1, 79, 78
4, 23819, Note_on_c, 1, 79, 0
4, 23820, Note_on_c, 1, 77, 68
4, 23879, Note_on_c, 1, 77, 0
4, 23880, Note_on_c, 1, 76, 68
4, 23939, Note_on_c, 1, 76, 0
4, 23940, Note_on_c, 1, 74, 68
4, 23969, Note_on_c, 1, 74, 0
4, 24000, Note_on_c, 1, 72, 78
4, 24179, Note_on_c, 1, 72, 0
4, 24180, Note_on_c, 1, 76, 68
4, 24209, Note_on_c, 1, 76, 0
4, 24210, Note_on_c, 1, 72, 78
4, 24239, Note_on_c, 1, 72, 0
4, 24240, Note_on_c, 1, 77, 90
4, 24299, Note_on_c, 1, 77, 0
4, 24300, Note_on_c, 1, 76, 78
4, 24359, Note_on_c, 1, 76, 0
4, 24360, Note_on_c, 1, 74, 78
4, 24419, Note_on_c, 1, 74, 0
4, 24420, Note_on_c, 1, 72, 68
4, 24479, Note_on_c, 1, 72, 0
4, 24480, Note_on_c, 1, 71, 78
4, 24659, Note_on_c, 1, 71, 0
4, 24660, Note_on_c, 1, 74, 58
4, 24689, Note_on_c, 1, 74, 0
4, 24690, Note_on_c, 1, 71, 78
4, 24719, Note_on_c, 1, 71, 0
4, 24720, Note_on_c, 1, 76, 78
4, 25079, Note_on_c, 1, 76, 0
4, 25080, Note_on_c, 1, 77, 78
4, 25139, Note_on_c, 1, 77, 0
4, 25140, Note_on_c, 1, 76, 68
4, 25199, Note_on_c, 1, 76, 0
4, 25200, Note_on_c, 1, 74, 78
4, 25559, Note_on_c, 1, 74, 0
4, 25560, Note_on_c, 1, 76, 78
4, 25619, Note_on_c, 1, 76, 0
4, 25620, Note_on_c, 1, 74, 78
4, 25679, Note_on_c, 1, 74, 0
4, 25680, Note_on_c, 1, 72, 90
4, 26039, Note_on_c, 1, 72, 0
4, 26040, Note_on_c, 1, 74, 78
4, 26099, Note_on_c, 1, 74, 0
4, 26100, Note_on_c, 1, 76, 68
4, 26159, Note_on_c, 1, 76, 0
4, 26160, Note_on_c, 1, 77, 78
4, 26249, Note_on_c, 1, 77, 0
4, 26280, Note_on_c, 1, 77, 90
4, 26309, Note_on_c, 1, 77, 0
4, 26340, Note_on_c, 1, 77, 90
4, 26399, Note_on_c, 1, 77, 0
4, 26400, Note_on_c, 1, 76, 68
4, 26489, Note_on_c, 1, 76, 0
4, 26520, Note_on_c, 1, 76, 90
4, 26549, Note_on_c, 1, 76, 0
4, 26580, Note_on_c, 1, 76, 90
4, 26639, Note_on_c, 1, 76, 0
4, 26640, Note_on_c, 1, 74, 78
4, 26879, Note_on_c, 1, 74, 0
4, 26880, Note_on_c, 1, 72, 90
4, 26999, Note_on_c, 1, 72, 0
4, 30780, Note_on_c, 1, 70, 90
4, 30869, Note_on_c, 1, 70, 0
4, 30900, Note_on_c, 1, 70, 90
4, 30959, Note_on_c, 1, 70, 0
4, 30960, Note_on_c, 1, 71, 78
4, 31199, Note_on_c, 1, 71, 0
4, 31200, Note_on_c, 1, 70, 78
4, 31229, Note_on_c, 1, 70, 0
4, 31260, Note_on_c, 1, 70, 90
4, 31289, Note_on_c, 1, 70, 0
4, 31290, Note_on_c, 1, 70, 90
4, 31319, Note_on_c, 1, 70, 0
4, 31320, Note_on_c, 1, 70, 90
4, 31379, Note_on_c, 1, 70, 0
4, 31380, Note_on_c, 1, 70, 90
4, 31409, Note_on_c, 1, 70, 0
4, 31440, Note_on_c, 1, 70, 90
4, 31679, Note_on_c, 1, 70, 0
4, 31680, Note_on_c, 1, 69, 78
4, 31739, Note_on_c, 1, 69, 0
4, 31740, Note_on_c, 1, 72, 78
4, 31799, Note_on_c, 1, 72, 0
4, 31800, Note_on_c, 1, 72, 90
4, 31829, Note_on_c, 1, 72, 0
4, 31845, Note_on_c, 1, 72, 90
4, 31859, Note_on_c, 1, 72, 0
4, 31860, Note_on_c, 1, 72, 78
4, 31889, Note_on_c, 1, 72, 0
4, 31890, Note_on_c, 1, 75, 78
4, 31904, Note_on_c, 1, 75, 0
4, 31920, Note_on_c, 1, 75, 90
4, 32159, Note_on_c, 1, 75, 0
4, 32160, Note_on_c, 1, 71, 78
4, 32274, Note_on_c, 1, 71, 0
4, 32400, Note_on_c, 1, 72, 35
4, 32460, Note_on_c, 1, 67, 35
4, 32463, Note_on_c, 1, 72, 0
4, 32511, Note_on_c, 1, 67, 0
4, 32640, Note_on_c, 1, 74, 29
4, 32700, Note_on_c, 1, 67, 35
4, 32705, Note_on_c, 1, 74, 0
4, 32756, Note_on_c, 1, 67, 0
4, 32880, Note_on_c, 1, 75, 50
4, 32989, Note_on_c, 1, 75, 0
4, 33000, Note_on_c, 1, 75, 50
4, 33103, Note_on_c, 1, 75, 0
4, 33120, Note_on_c, 1, 75, 68
4, 33224, Note_on_c, 1, 75, 0
4, 33240, Note_on_c, 1, 75, 90
4, 33346, Note_on_c, 1, 75, 0
4, 33360, Note_on_c, 1, 75, 104
4, 33472, Note_on_c, 1, 75, 0
4, 33480, Note_on_c, 1, 74, 78
4, 33560, Note_on_c, 1, 74, 0
4, 33570, Note_on_c, 1, 74, 78
4, 33595, Note_on_c, 1, 74, 0
4, 33600, Note_on_c, 1, 72, 90
4, 33637, Note_on_c, 1, 72, 0
4, 33720, Note_on_c, 1, 68, 29
4, 33769, Note_on_c, 1, 68, 0
4, 33840, Note_on_c, 1, 67, 24
4, 33883, Note_on_c, 1, 67, 0
4, 33960, Note_on_c, 1, 67, 29
4, 34007, Note_on_c, 1, 67, 0
4, 34080, Note_on_c, 1, 60, 35
4, 34221, Note_on_c, 1, 60, 0
4, 34380, Note_on_c, 1, 72, 90
4, 34422, Note_on_c, 1, 72, 0
4, 34440, Note_on_c, 1, 72, 78
4, 34481, Note_on_c, 1, 72, 0
4, 34500, Note_on_c, 1, 72, 90
4, 34542, Note_on_c, 1, 72, 0
4, 34560, Note_on_c, 1, 72, 90
4, 34661, Note_on_c, 1, 72, 0
4, 34680, Note_on_c, 1, 72, 90
4, 34770, Note_on_c, 1, 72, 0
4, 34800, Note_on_c, 1, 72, 90
4, 34877, Note_on_c, 1, 72, 0
4, 34890, Note_on_c, 1, 72, 90
4, 34903, Note_on_c, 1, 72, 0
4, 34920, Note_on_c, 1, 72, 90
4, 35011, Note_on_c, 1, 72, 0
4, 35040, Note_on_c, 1, 72, 90
4, 35139, Note_on_c, 1, 72, 0
4, 35160, Note_on_c, 1, 72, 90
4, 35195, Note_on_c, 1, 72, 0
4, 35220, Note_on_c, 1, 72, 78
4, 35253, Note_on_c, 1, 72, 0
4, 35280, Note_on_c, 1, 72, 78
4, 35374, Note_on_c, 1, 72, 0
4, 35400, Note_on_c, 1, 72, 90
4, 35430, Note_on_c, 1, 72, 0
4, 35460, Note_on_c, 1, 72, 78
4, 35488, Note_on_c, 1, 72, 0
4, 35520, Note_on_c, 1, 72, 90
4, 35622, Note_on_c, 1, 72, 0
4, 35640, Note_on_c, 1, 72, 90
4, 35674, Note_on_c, 1, 72, 0
4, 35700, Note_on_c, 1, 72, 68
4, 35735, Note_on_c, 1, 72, 0
4, 35760, Note_on_c, 1, 72, 90
4, 35876, Note_on_c, 1, 72, 0
4, 35880, Note_on_c, 1, 77, 90
4, 35990, Note_on_c, 1, 77, 0
4, 36000, Note_on_c, 1, 76, 78
4, 36120, Note_on_c, 1, 72, 78
4, 36127, Note_on_c, 1, 76, 0
4, 36154, Note_on_c, 1, 72, 0
4, 36180, Note_on_c, 1, 72, 78
4, 36232, Note_on_c, 1, 72, 0
4, 36240, Note_on_c, 1, 76, 78
4, 36299, Note_on_c, 1, 76, 0
4, 36300, Note_on_c, 1, 74, 78
4, 36355, Note_on_c, 1, 74, 0
4, 36360, Note_on_c, 1, 72, 78
4, 36420, Note_on_c, 1, 71, 78
4, 36422, Note_on_c, 1, 72, 0
4, 36461, Note_on_c, 1, 71, 0
4, 36480, Note_on_c, 1, 69, 78
4, 36600, Note_on_c, 1, 72, 90
4, 36603, Note_on_c, 1, 69, 0
4, 36657, Note_on_c, 1, 72, 0
4, 36660, Note_on_c, 1, 76, 68
4, 36720, Note_on_c, 1, 76, 0
4, 36720, Note_on_c, 1, 74, 90
4, 36780, Note_on_c, 1, 74, 0
4, 36780, Note_on_c, 1, 72, 78
4, 36840, Note_on_c, 1, 71, 78
4, 36841, Note_on_c, 1, 72, 0
4, 36894, Note_on_c, 1, 71, 0
4, 36900, Note_on_c, 1, 69, 78
4, 36956, Note_on_c, 1, 69, 0
4, 36960, Note_on_c, 1, 67, 90
4, 37080, Note_on_c, 1, 71, 90
4, 37086, Note_on_c, 1, 67, 0
4, 37140, Note_on_c, 1, 71, 0
4, 37140, Note_on_c, 1, 74, 78
4, 37193, Note_on_c, 1, 74, 0
4, 37200, Note_on_c, 1, 72, 78
4, 37303, Note_on_c, 1, 72, 0
4, 37320, Note_on_c, 1, 72, 90
4, 37414, Note_on_c, 1, 72, 0
4, 37440, Note_on_c, 1, 72, 90
4, 37541, Note_on_c, 1, 72, 0
4, 37560, Note_on_c, 1, 72, 90
4, 37597, Note_on_c, 1, 72, 0
4, 37620, Note_on_c, 1, 72, 78
4, 37650, Note_on_c, 1, 72, 0
4, 37680, Note_on_c, 1, 72, 90
4, 37785, Note_on_c, 1, 72, 0
4, 37800, Note_on_c, 1, 72, 90
4, 37833, Note_on_c, 1, 72, 0
4, 37860, Note_on_c, 1, 72, 78
4, 37893, Note_on_c, 1, 72, 0
4, 37920, Note_on_c, 1, 72, 90
4, 38139, Note_on_c, 1, 72, 0
4, 38160, Note_on_c, 1, 72, 90
4, 38320, Note_on_c, 1, 72, 0
4, 38340, Note_on_c, 1, 72, 90
4, 38392, Note_on_c, 1, 72, 0
4, 38400, Note_on_c, 1, 71, 90
4, 38520, Note_on_c, 1, 71, 0
4, 38520, Note_on_c, 1, 72, 78
4, 38559, Note_on_c, 1, 72, 0
4, 38580, Note_on_c, 1, 72, 90
4, 38635, Note_on_c, 1, 72, 0
4, 38640, Note_on_c, 1, 71, 90
4, 38758, Note_on_c, 1, 71, 0
4, 38760, Note_on_c, 1, 69, 78
4, 38875, Note_on_c, 1, 69, 0
4, 38880, Note_on_c, 1, 67, 90
4, 38996, Note_on_c, 1, 67, 0
4, 39300, Note_on_c, 1, 79, 90
4, 39336, Note_on_c, 1, 79, 0
4, 39360, Note_on_c, 1, 79, 90
4, 39520, Note_on_c, 1, 79, 0
4, 39540, Note_on_c, 1, 79, 78
4, 39574, Note_on_c, 1, 79, 0
4, 39600, Note_on_c, 1, 79, 90
4, 39696, Note_on_c, 1, 79, 0
4, 39720, Note_on_c, 1, 79, 90
4, 39821, Note_on_c, 1, 79, 0
4, 39840, Note_on_c, 1, 77, 78
4, 39890, Note_on_c, 1, 77, 0
4, 39900, Note_on_c, 1, 76, 68
4, 39958, Note_on_c, 1, 76, 0
4, 39960, Note_on_c, 1, 74, 78
4, 40020, Note_on_c, 1, 72, 68
4, 40022, Note_on_c, 1, 74, 0
4, 40077, Note_on_c, 1, 72, 0
4, 40080, Note_on_c, 1, 71, 68
4, 40140, Note_on_c, 1, 69, 68
4, 40146, Note_on_c, 1, 71, 0
4, 40200, Note_on_c, 1, 67, 90
4, 40204, Note_on_c, 1, 69, 0
4, 40253, Note_on_c, 1, 67, 0
4, 40260, Note_on_c, 1, 65, 78
4, 40317, Note_on_c, 1, 65, 0
4, 40320, Note_on_c, 1, 64, 78
4, 40481, Note_on_c, 1, 64, 0
4, 40500, Note_on_c, 1, 64, 78
4, 40531, Note_on_c, 1, 64, 0
4, 40560, Note_on_c, 1, 64, 78
4, 40677, Note_on_c, 1, 64, 0
4, 40680, Note_on_c, 1, 76, 90
4, 40777, Note_on_c, 1, 76, 0
4, 40800, Note_on_c, 1, 76, 90
4, 40886, Note_on_c, 1, 76, 0
4, 40890, Note_on_c, 1, 76, 68
4, 40906, Note_on_c, 1, 76, 0
4, 40920, Note_on_c, 1, 74, 42
4, 40958, Note_on_c, 1, 74, 0
4, 41040, Note_on_c, 1, 74, 50
4, 41126, Note_on_c, 1, 74, 0
4, 41160, Note_on_c, 1, 74, 42
4, 41262, Note_on_c, 1, 74, 0
4, 41280, Note_on_c, 1, 74, 104
4, 41388, Note_on_c, 1, 74, 0
4, 41400, Note_on_c, 1, 72, 50
4, 41498, Note_on_c, 1, 72, 0
4, 41520, Note_on_c, 1, 72, 42
4, 41616, Note_on_c, 1, 72, 0
4, 41640, Note_on_c, 1, 72, 42
4, 41738, Note_on_c, 1, 72, 0
4, 41760, Note_on_c, 1, 72, 90
4, 41880, Note_on_c, 1, 72, 0
4, 41880, Note_on_c, 1, 71, 58
4, 42120, Note_on_c, 1, 69, 42
4, 42127, Note_on_c, 1, 71, 0
4, 42237, Note_on_c, 1, 69, 0
4, 42240, Note_on_c, 1, 68, 78
4, 42344, Note_on_c, 1, 68, 0
4, 42360, Note_on_c, 1, 69, 90
4, 42420, Note_on_c, 1, 71, 78
4, 42426, Note_on_c, 1, 69, 0
4, 42460, Note_on_c, 1, 71, 0
4, 42480, Note_on_c, 1, 72, 90
4, 42634, Note_on_c, 1, 72, 0
4, 42660, Note_on_c, 1, 72, 78
4, 42720, Note_on_c, 1, 72, 0
4, 42720, Note_on_c, 1, 71, 90
4, 42837, Note_on_c, 1, 71, 0
4, 42960, Note_on_c, 1, 76, 90
4, 43119, Note_on_c, 1, 76, 0
4, 43140, Note_on_c, 1, 76, 78
4, 43195, Note_on_c, 1, 76, 0
4, 43200, Note_on_c, 1, 72, 78
4, 43256, Note_on_c, 1, 72, 0
4, 43260, Note_on_c, 1, 69, 58
4, 43307, Note_on_c, 1, 69, 0
4, 43320, Note_on_c, 1, 76, 78
4, 43448, Note_on_c, 1, 76, 0
4, 43500, Note_on_c, 1, 76, 78
4, 43539, Note_on_c, 1, 76, 0
4, 43560, Note_on_c, 1, 76, 78
4, 43596, Note_on_c, 1, 76, 0
4, 43620, Note_on_c, 1, 76, 90
4, 43674, Note_on_c, 1, 76, 0
4, 43680, Note_on_c, 1, 72, 78
4, 43737, Note_on_c, 1, 72, 0
4, 43740, Note_on_c, 1, 69, 78
4, 43789, Note_on_c, 1, 69, 0
4, 43800, Note_on_c, 1, 76, 78
4, 43940, Note_on_c, 1, 76, 0
4, 44040, Note_on_c, 1, 76, 78
4, 44147, Note_on_c, 1, 76, 0
4, 44160, Note_on_c, 1, 67, 78
4, 44280, Note_on_c, 1, 67, 0
4, 44340, Note_on_c, 1, 72, 78
4, 44380, Note_on_c, 1, 72, 0
4, 44400, Note_on_c, 1, 72, 78
4, 44440, Note_on_c, 1, 72, 0
4, 44460, Note_on_c, 1, 72, 78
4, 44509, Note_on_c, 1, 72, 0
4, 44520, Note_on_c, 1, 71, 90
4, 44632, Note_on_c, 1, 71, 0
4, 44640, Note_on_c, 1, 69, 90
4, 44675, Note_on_c, 1, 69, 0
4, 44700, Note_on_c, 1, 69, 78
4, 44751, Note_on_c, 1, 69, 0
4, 44760, Note_on_c, 1, 71, 78
4, 44798, Note_on_c, 1, 71, 0
4, 44820, Note_on_c, 1, 71, 90
4, 44878, Note_on_c, 1, 71, 0
4, 44880, Note_on_c, 1, 69, 90
4, 44996, Note_on_c, 1, 69, 0
4, 45000, Note_on_c, 1, 68, 90
4, 45114, Note_on_c, 1, 68, 0
4, 45120, Note_on_c, 1, 69, 90
4, 45227, Note_on_c, 1, 69, 0
4, 54300, Note_on_c, 1, 72, 90
4, 54340, Note_on_c, 1, 72, 0
4, 54360, Note_on_c, 1, 72, 90
4, 54400, Note_on_c, 1, 72, 0
4, 54420, Note_on_c, 1, 72, 90
4, 54458, Note_on_c, 1, 72, 0
4, 54480, Note_on_c, 1, 72, 90
4, 54816, Note_on_c, 1, 72, 0
4, 54840, Note_on_c, 1, 72, 90
4, 54879, Note_on_c, 1, 72, 0
4, 54900, Note_on_c, 1, 72, 78
4, 54939, Note_on_c, 1, 72, 0
4, 54960, Note_on_c, 1, 72, 90
4, 55274, Note_on_c, 1, 72, 0
4, 55290, Note_on_c, 1, 72, 90
4, 55305, Note_on_c, 1, 72, 0
4, 55320, Note_on_c, 1, 72, 90
4, 55363, Note_on_c, 1, 72, 0
4, 55380, Note_on_c, 1, 72, 90
4, 55410, Note_on_c, 1, 72, 0
4, 55440, Note_on_c, 1, 72, 90
4, 55539, Note_on_c, 1, 72, 0
4, 55560, Note_on_c, 1, 72, 90
4, 55657, Note_on_c, 1, 72, 0
4, 55680, Note_on_c, 1, 72, 90
4, 55835, Note_on_c, 1, 72, 0
4, 55860, Note_on_c, 1, 72, 78
4, 55896, Note_on_c, 1, 72, 0
4, 55920, Note_on_c, 1, 72, 78
4, 55956, Note_on_c, 1, 72, 0
4, 55980, Note_on_c, 1, 72, 68
4, 56036, Note_on_c, 1, 72, 0
4, 56040, Note_on_c, 1, 77, 78
4, 56115, Note_on_c, 1, 77, 0
4, 56130, Note_on_c, 1, 77, 78
4, 56156, Note_on_c, 1, 77, 0
4, 56160, Note_on_c, 1, 76, 78
4, 56200, Note_on_c, 1, 76, 0
4, 56220, Note_on_c, 1, 76, 68
4, 56257, Note_on_c, 1, 76, 0
4, 56280, Note_on_c, 1, 76, 78
4, 56363, Note_on_c, 1, 76, 0
4, 56370, Note_on_c, 1, 76, 68
4, 56395, Note_on_c, 1, 76, 0
4, 56400, Note_on_c, 1, 74, 78
4, 56519, Note_on_c, 1, 74, 0
4, 56580, Note_on_c, 1, 74, 90
4, 56633, Note_on_c, 1, 74, 0
4, 56640, Note_on_c, 1, 72, 78
4, 56683, Note_on_c, 1, 72, 0
4, 56700, Note_on_c, 1, 72, 78
4, 56734, Note_on_c, 1, 72, 0
4, 56760, Note_on_c, 1, 72, 78
4, 56880, Note_on_c, 1, 70, 90
4, 56893, Note_on_c, 1, 72, 0
4, 56978, Note_on_c, 1, 70, 0
4, 57000, Note_on_c, 1, 70, 90
4, 57036, Note_on_c, 1, 70, 0
4, 57060, Note_on_c, 1, 70, 90
4, 57109, Note_on_c, 1, 70, 0
4, 57120, Note_on_c, 1, 69, 78
4, 57275, Note_on_c, 1, 69, 0
4, 57300, Note_on_c, 1, 69, 90
4, 57358, Note_on_c, 1, 69, 0
4, 57360, Note_on_c, 1, 67, 90
4, 57513, Note_on_c, 1, 67, 0
4, 57540, Note_on_c, 1, 67, 78
4, 57600, Note_on_c, 1, 65, 78
4, 57601, Note_on_c, 1, 67, 0
4, 57660, Note_on_c, 1, 67, 68
4, 57668, Note_on_c, 1, 65, 0
4, 57715, Note_on_c, 1, 67, 0
4, 57720, Note_on_c, 1, 69, 68
4, 57774, Note_on_c, 1, 69, 0
4, 57780, Note_on_c, 1, 71, 78
4, 57840, Note_on_c, 1, 72, 78
4, 57850, Note_on_c, 1, 71, 0
4, 57899, Note_on_c, 1, 72, 0
4, 57900, Note_on_c, 1, 74, 68
4, 57959, Note_on_c, 1, 74, 0
4, 57960, Note_on_c, 1, 76, 68
4, 58020, Note_on_c, 1, 78, 78
4, 58028, Note_on_c, 1, 76, 0
4, 58079, Note_on_c, 1, 78, 0
4, 58080, Note_on_c, 1, 79, 68
4, 58200, Note_on_c, 1, 79, 0
4, 58200, Note_on_c, 1, 67, 78
4, 58316, Note_on_c, 1, 67, 0
4, 58320, Note_on_c, 1, 79, 90
4, 58423, Note_on_c, 1, 79, 0
4, 58440, Note_on_c, 1, 79, 90
4, 58543, Note_on_c, 1, 79, 0
4, 58560, Note_on_c, 1, 79, 90
4, 58680, Note_on_c, 1, 77, 58
4, 58686, Note_on_c, 1, 79, 0
4, 58770, Note_on_c, 1, 77, 0
4, 58800, Note_on_c, 1, 77, 50
4, 58874, Note_on_c, 1, 77, 0
4, 58890, Note_on_c, 1, 77, 50
4, 58906, Note_on_c, 1, 77, 0
4, 58920, Note_on_c, 1, 77, 42
4, 58944, Note_on_c, 1, 77, 0
4, 58980, Note_on_c, 1, 77, 58
4, 59012, Note_on_c, 1, 77, 0
4, 59040, Note_on_c, 1, 77, 104
4, 59160, Note_on_c, 1, 75, 58
4, 59178, Note_on_c, 1, 77, 0
4, 59252, Note_on_c, 1, 75, 0
4, 59280, Note_on_c, 1, 75, 68
4, 59357, Note_on_c, 1, 75, 0
4, 59370, Note_on_c, 1, 75, 58
4, 59386, Note_on_c, 1, 75, 0
4, 59400, Note_on_c, 1, 75, 68
4, 59436, Note_on_c, 1, 75, 0
4, 59460, Note_on_c, 1, 75, 68
4, 59495, Note_on_c, 1, 75, 0
4, 59520, Note_on_c, 1, 75, 90
4, 59636, Note_on_c, 1, 75, 0
4, 59640, Note_on_c, 1, 74, 78
4, 59880, Note_on_c, 1, 72, 50
4, 59884, Note_on_c, 1, 74, 0
4, 60120, Note_on_c, 1, 70, 58
4, 60131, Note_on_c, 1, 72, 0
4, 60360, Note_on_c, 1, 68, 68
4, 60361, Note_on_c, 1, 70, 0
4, 60600, Note_on_c, 1, 67, 68
4, 60602, Note_on_c, 1, 68, 0
4, 60838, Note_on_c, 1, 67, 0
4, 60840, Note_on_c, 1, 66, 50
4, 60960, Note_on_c, 1, 66, 0
4, 60960, Note_on_c, 1, 67, 35
4, 61057, Note_on_c, 1, 67, 0
4, 61380, Note_on_c, 1, 79, 90
4, 61417, Note_on_c, 1, 79, 0
4, 61440, Note_on_c, 1, 79, 90
4, 61558, Note_on_c, 1, 79, 0
4, 61560, Note_on_c, 1, 67, 78
4, 61653, Note_on_c, 1, 67, 0
4, 61740, Note_on_c, 1, 77, 68
4, 61782, Note_on_c, 1, 77, 0
4, 61800, Note_on_c, 1, 77, 78
4, 61840, Note_on_c, 1, 77, 0
4, 61860, Note_on_c, 1, 77, 78
4, 61914, Note_on_c, 1, 77, 0
4, 61920, Note_on_c, 1, 76, 90
4, 62005, Note_on_c, 1, 76, 0
4, 62010, Note_on_c, 1, 72, 58
4, 62034, Note_on_c, 1, 72, 0
4, 62040, Note_on_c, 1, 79, 78
4, 62276, Note_on_c, 1, 79, 0
4, 62280, Note_on_c, 1, 77, 90
4, 62518, Note_on_c, 1, 77, 0
4, 62520, Note_on_c, 1, 76, 90
4, 62754, Note_on_c, 1, 76, 0
4, 62760, Note_on_c, 1, 74, 90
4, 63000, Note_on_c, 1, 72, 78
4, 63010, Note_on_c, 1, 74, 0
4, 63234, Note_on_c, 1, 72, 0
4, 63240, Note_on_c, 1, 71, 90
4, 63357, Note_on_c, 1, 71, 0
4, 63360, Note_on_c, 1, 79, 68
4, 63480, Note_on_c, 1, 77, 78
4, 63482, Note_on_c, 1, 79, 0
4, 63600, Note_on_c, 1, 76, 90
4, 63605, Note_on_c, 1, 77, 0
4, 63720, Note_on_c, 1, 74, 78
4, 63724, Note_on_c, 1, 76, 0
4, 63838, Note_on_c, 1, 74, 0
4, 63840, Note_on_c, 1, 72, 78
4, 63953, Note_on_c, 1, 72, 0
4, 64020, Note_on_c, 1, 76, 78
4, 64080, Note_on_c, 1, 79, 78
4, 64082, Note_on_c, 1, 76, 0
4, 64140, Note_on_c, 1, 77, 68
4, 64150, Note_on_c, 1, 79, 0
4, 64200, Note_on_c, 1, 76, 58
4, 64206, Note_on_c, 1, 77, 0
4, 64260, Note_on_c, 1, 74, 68
4, 64262, Note_on_c, 1, 76, 0
4, 64310, Note_on_c, 1, 74, 0
4, 64320, Note_on_c, 1, 72, 68
4, 64500, Note_on_c, 1, 76, 58
4, 64502, Note_on_c, 1, 72, 0
4, 64530, Note_on_c, 1, 72, 68
4, 64534, Note_on_c, 1, 76, 0
4, 64554, Note_on_c, 1, 72, 0
4, 64560, Note_on_c, 1, 77, 78
4, 64620, Note_on_c, 1, 76, 68
4, 64630, Note_on_c, 1, 77, 0
4, 64680, Note_on_c, 1, 74, 68
4, 64686, Note_on_c, 1, 76, 0
4, 64738, Note_on_c, 1, 74, 0
4, 64740, Note_on_c, 1, 72, 68
4, 64793, Note_on_c, 1, 72, 0
4, 64800, Note_on_c, 1, 71, 78
4, 64980, Note_on_c, 1, 74, 78
4, 64989, Note_on_c, 1, 71, 0
4, 65010, Note_on_c, 1, 71, 58
4, 65013, Note_on_c, 1, 74, 0
4, 65034, Note_on_c, 1, 71, 0
4, 65040, Note_on_c, 1, 76, 78
4, 65398, Note_on_c, 1, 76, 0
4, 65400, Note_on_c, 1, 77, 90
4, 65460, Note_on_c, 1, 76, 78
4, 65468, Note_on_c, 1, 77, 0
4, 65515, Note_on_c, 1, 76, 0
4, 65520, Note_on_c, 1, 74, 78
4, 65880, Note_on_c, 1, 76, 78
4, 65888, Note_on_c, 1, 74, 0
4, 65940, Note_on_c, 1, 76, 0
4, 65940, Note_on_c, 1, 74, 68
4, 65996, Note_on_c, 1, 74, 0
4, 66000, Note_on_c, 1, 72, 68
4, 66360, Note_on_c, 1, 74, 90
4, 66370, Note_on_c, 1, 72, 0
4, 66420, Note_on_c, 1, 76, 78
4, 66421, Note_on_c, 1, 74, 0
4, 66480, Note_on_c, 1, 77, 90
4, 66495, Note_on_c, 1, 76, 0
4, 66644, Note_on_c, 1, 77, 0
4, 66660, Note_on_c, 1, 77, 68
4, 66717, Note_on_c, 1, 77, 0
4, 66720, Note_on_c, 1, 76, 78
4, 66833, Note_on_c, 1, 76, 0
4, 66840, Note_on_c, 1, 74, 90
4, 66950, Note_on_c, 1, 74, 0
4, 66960, Note_on_c, 1, 72, 78
4, 67080, Note_on_c, 1, 71, 78
4, 67084, Note_on_c, 1, 72, 0
4, 67194, Note_on_c, 1, 71, 0
4, 67200, Note_on_c, 1, 72, 90
4, 67303, Note_on_c, 1, 72, 0
4, 67680, Note_on_c, 1, 77, 90
4, 67797, Note_on_c, 1, 77, 0
4, 67800, Note_on_c, 1, 76, 78
4, 67912, Note_on_c, 1, 76, 0
4, 67920, Note_on_c, 1, 74, 90
4, 68157, Note_on_c, 1, 74, 0
4, 68160, Note_on_c, 1, 76, 90
4, 68259, Note_on_c, 1, 76, 0
4, 68640, Note_on_c, 1, 77, 90
4, 68756, Note_on_c, 1, 77, 0
4, 68760, Note_on_c, 1, 76, 78
4, 68880, Note_on_c, 1, 74, 90
4, 68883, Note_on_c, 1, 76, 0
4, 69120, Note_on_c, 1, 72, 90
4, 69122, Note_on_c, 1, 74, 0
4, 69201, Note_on_c, 1, 72, 0
4, 70080, Note_on_c, 1, 76, 78
4, 70380, Note_on_c, 1, 76, 0
4, 70380, Note_on_c, 1, 77, 78
4, 70440, Note_on_c, 1, 76, 68
4, 70450, Note_on_c, 1, 77, 0
4, 70500, Note_on_c, 1, 77, 68
4, 70507, Note_on_c, 1, 76, 0
4, 70554, Note_on_c, 1, 77, 0
4, 70560, Note_on_c, 1, 79, 78
4, 70676, Note_on_c, 1, 79, 0
4, 70680, Note_on_c, 1, 77, 90
4, 70800, Note_on_c, 1, 76, 78
4, 70804, Note_on_c, 1, 77, 0
4, 70917, Note_on_c, 1, 76, 0
4, 70920, Note_on_c, 1, 74, 90
4, 71040, Note_on_c, 1, 72, 90
4, 71042, Note_on_c, 1, 74, 0
4, 71165, Note_on_c, 1, 72, 0
4, 71400, Note_on_c, 1, 74, 90
4, 71520, Note_on_c, 1, 76, 90
4, 71521, Note_on_c, 1, 74, 0
4, 71633, Note_on_c, 1, 76, 0
4, 71880, Note_on_c, 1, 74, 90
4, 71993, Note_on_c, 1, 74, 0
4, 72000, Note_on_c, 1, 72, 78
4, 72120, Note_on_c, 1, 72, 0
4, 72120, End_track
5, 0, Start_track
5, 0, MIDI_port, 0
5, 0, Title_t, "alto"
5, 1921, Note_on_c, 1, 60, 78
5, 2009, Note_on_c, 1, 60, 0
5, 2035, Note_on_c, 1, 60, 90
5, 2113, Note_on_c, 1, 60, 0
5, 2130, Note_on_c, 1, 60, 68
5, 2147, Note_on_c, 1, 60, 0
5, 2155, Note_on_c, 1, 60, 78
5, 2251, Note_on_c, 1, 60, 0
5, 2273, Note_on_c, 1, 60, 78
5, 2367, Note_on_c, 1, 60, 0
5, 2396, Note_on_c, 1, 60, 90
5, 2486, Note_on_c, 1, 60, 0
5, 2514, Note_on_c, 1, 60, 78
5, 2590, Note_on_c, 1, 60, 0
5, 2607, Note_on_c, 1, 60, 68
5, 2627, Note_on_c, 1, 60, 0
5, 2634, Note_on_c, 1, 60, 78
5, 2720, Note_on_c, 1, 60, 0
5, 2749, Note_on_c, 1, 60, 78
5, 2846, Note_on_c, 1, 60, 0
5, 2873, Note_on_c, 1, 60, 90
5, 2973, Note_on_c, 1, 60, 0
5, 2997, Note_on_c, 1, 60, 78
5, 3091, Note_on_c, 1, 60, 0
5, 3118, Note_on_c, 1, 64, 78
5, 3172, Note_on_c, 1, 65, 78
5, 3180, Note_on_c, 1, 64, 0
5, 3237, Note_on_c, 1, 67, 78
5, 3238, Note_on_c, 1, 65, 0
5, 3292, Note_on_c, 1, 69, 78
5, 3298, Note_on_c, 1, 67, 0
5, 3357, Note_on_c, 1, 69, 0
5, 3357, Note_on_c, 1, 70, 90
5, 3464, Note_on_c, 1, 70, 0
5, 3472, Note_on_c, 1, 69, 78
5, 3594, Note_on_c, 1, 69, 0
5, 3596, Note_on_c, 1, 67, 78
5, 3651, Note_on_c, 1, 64, 68
5, 3655, Note_on_c, 1, 67, 0
5, 3712, Note_on_c, 1, 64, 0
5, 3715, Note_on_c, 1, 69, 78
5, 3774, Note_on_c, 1, 67, 78
5, 3779, Note_on_c, 1, 69, 0
5, 3813, Note_on_c, 1, 67, 0
5, 3833, Note_on_c, 1, 67, 90
5, 3970, Note_on_c, 1, 67, 0
5, 4013, Note_on_c, 1, 67, 78
5, 4071, Note_on_c, 1, 67, 0
5, 4072, Note_on_c, 1, 72, 78
5, 4134, Note_on_c, 1, 72, 0
5, 4134, Note_on_c, 1, 71, 78
5, 4191, Note_on_c, 1, 71, 0
5, 4191, Note_on_c, 1, 69, 78
5, 4247, Note_on_c, 1, 69, 0
5, 4250, Note_on_c, 1, 68, 90
5, 4299, Note_on_c, 1, 68, 0
5, 4311, Note_on_c, 1, 69, 90
5, 4559, Note_on_c, 1, 71, 78
5, 4560, Note_on_c, 1, 69, 0
5, 4614, Note_on_c, 1, 69, 68
5, 4617, Note_on_c, 1, 71, 0
5, 4674, Note_on_c, 1, 67, 78
5, 4675, Note_on_c, 1, 69, 0
5, 4733, Note_on_c, 1, 67, 0
5, 4733, Note_on_c, 1, 66, 90
5, 4784, Note_on_c, 1, 66, 0
5, 4795, Note_on_c, 1, 67, 90
5, 4905, Note_on_c, 1, 67, 0
5, 4909, Note_on_c, 1, 62, 78
5, 5032, Note_on_c, 1, 62, 0
5, 5396, Note_on_c, 1, 72, 78
5, 5459, Note_on_c, 1, 71, 78
5, 5467, Note_on_c, 1, 72, 0
5, 5518, Note_on_c, 1, 71, 0
5, 5520, Note_on_c, 1, 69, 78
5, 5580, Note_on_c, 1, 72, 68
5, 5582, Note_on_c, 1, 69, 0
5, 5635, Note_on_c, 1, 72, 0
5, 5638, Note_on_c, 1, 69, 78
5, 5698, Note_on_c, 1, 69, 0
5, 5698, Note_on_c, 1, 67, 68
5, 5757, Note_on_c, 1, 67, 0
5, 5762, Note_on_c, 1, 66, 90
5, 5915, Note_on_c, 1, 66, 0
5, 5932, Note_on_c, 1, 66, 90
5, 5972, Note_on_c, 1, 66, 0
5, 5997, Note_on_c, 1, 66, 90
5, 6120, Note_on_c, 1, 66, 0
5, 6126, Note_on_c, 1, 66, 90
5, 6163, Note_on_c, 1, 66, 0
5, 6181, Note_on_c, 1, 66, 90
5, 6217, Note_on_c, 1, 66, 0
5, 6238, Note_on_c, 1, 67, 90
5, 6349, Note_on_c, 1, 67, 0
5, 6356, Note_on_c, 1, 69, 90
5, 6474, Note_on_c, 1, 69, 0
5, 6476, Note_on_c, 1, 67, 78
5, 6589, Note_on_c, 1, 67, 0
5, 6591, Note_on_c, 1, 66, 90
5, 6670, Note_on_c, 1, 66, 0
5, 6694, Note_on_c, 1, 66, 90
5, 6715, Note_on_c, 1, 66, 0
5, 6719, Note_on_c, 1, 67, 78
5, 6844, Note_on_c, 1, 67, 0
5, 8163, Note_on_c, 1, 68, 90
5, 8259, Note_on_c, 1, 68, 0
5, 8280, Note_on_c, 1, 68, 78
5, 8378, Note_on_c, 1, 68, 0
5, 8402, Note_on_c, 1, 68, 90
5, 8501, Note_on_c, 1, 68, 0
5, 8523, Note_on_c, 1, 68, 78
5, 8616, Note_on_c, 1, 68, 0
5, 8640, Note_on_c, 1, 69, 90
5, 8717, Note_on_c, 1, 69, 0
5, 8738, Note_on_c, 1, 69, 50
5, 8754, Note_on_c, 1, 69, 0
5, 8763, Note_on_c, 1, 69, 68
5, 8851, Note_on_c, 1, 69, 0
5, 8875, Note_on_c, 1, 69, 58
5, 8970, Note_on_c, 1, 69, 0
5, 8993, Note_on_c, 1, 69, 58
5, 9105, Note_on_c, 1, 69, 0
5, 9118, Note_on_c, 1, 67, 78
5, 9215, Note_on_c, 1, 67, 0
5, 9240, Note_on_c, 1, 67, 35
5, 9332, Note_on_c, 1, 67, 0
5, 9357, Note_on_c, 1, 67, 50
5, 9438, Note_on_c, 1, 67, 0
5, 9450, Note_on_c, 1, 67, 35
5, 9469, Note_on_c, 1, 67, 0
5, 9477, Note_on_c, 1, 67, 42
5, 9584, Note_on_c, 1, 67, 0
5, 9595, Note_on_c, 1, 65, 90
5, 9692, Note_on_c, 1, 65, 0
5, 9718, Note_on_c, 1, 65, 50
5, 9811, Note_on_c, 1, 65, 0
5, 9831, Note_on_c, 1, 64, 90
5, 9934, Note_on_c, 1, 64, 0
5, 9958, Note_on_c, 1, 64, 50
5, 10065, Note_on_c, 1, 64, 0
5, 10080, Note_on_c, 1, 62, 90
5, 10193, Note_on_c, 1, 62, 0
5, 10200, Note_on_c, 1, 64, 90
5, 10437, Note_on_c, 1, 64, 0
5, 10440, Note_on_c, 1, 66, 90
5, 10554, Note_on_c, 1, 66, 0
5, 10560, Note_on_c, 1, 59, 78
5, 10681, Note_on_c, 1, 59, 0
5, 11100, Note_on_c, 1, 69, 78
5, 11164, Note_on_c, 1, 68, 90
5, 11170, Note_on_c, 1, 69, 0
5, 11214, Note_on_c, 1, 68, 0
5, 11221, Note_on_c, 1, 69, 78
5, 11279, Note_on_c, 1, 69, 0
5, 11282, Note_on_c, 1, 64, 90
5, 11664, Note_on_c, 1, 64, 0
5, 11698, Note_on_c, 1, 64, 90
5, 11735, Note_on_c, 1, 64, 0
5, 11758, Note_on_c, 1, 65, 90
5, 11989, Note_on_c, 1, 65, 0
5, 11994, Note_on_c, 1, 64, 78
5, 12235, Note_on_c, 1, 64, 0
5, 12240, Note_on_c, 1, 62, 78
5, 12395, Note_on_c, 1, 62, 0
5, 12418, Note_on_c, 1, 62, 68
5, 12479, Note_on_c, 1, 62, 0
5, 12480, Note_on_c, 1, 60, 90
5, 12555, Note_on_c, 1, 60, 0
5, 12574, Note_on_c, 1, 60, 78
5, 12601, Note_on_c, 1, 65, 90
5, 12604, Note_on_c, 1, 60, 0
5, 12709, Note_on_c, 1, 65, 0
5, 12713, Note_on_c, 1, 64, 90
5, 12921, Note_on_c, 1, 64, 0
5, 12938, Note_on_c, 1, 64, 78
5, 12954, Note_on_c, 1, 64, 0
5, 12961, Note_on_c, 1, 64, 90
5, 13068, Note_on_c, 1, 64, 0
5, 13197, Note_on_c, 1, 69, 68
5, 13256, Note_on_c, 1, 69, 0
5, 13256, Note_on_c, 1, 67, 78
5, 13318, Note_on_c, 1, 67, 0
5, 13318, Note_on_c, 1, 66, 78
5, 13375, Note_on_c, 1, 66, 0
5, 13375, Note_on_c, 1, 64, 68
5, 13434, Note_on_c, 1, 64, 0
5, 13439, Note_on_c, 1, 63, 90
5, 13598, Note_on_c, 1, 63, 0
5, 13616, Note_on_c, 1, 64, 68
5, 13649, Note_on_c, 1, 66, 90
5, 13659, Note_on_c, 1, 64, 0
5, 13677, Note_on_c, 1, 66, 0
5, 13680, Note_on_c, 1, 67, 90
5, 13736, Note_on_c, 1, 67, 0
5, 13737, Note_on_c, 1, 69, 78
5, 13797, Note_on_c, 1, 67, 78
5, 13802, Note_on_c, 1, 69, 0
5, 13859, Note_on_c, 1, 65, 90
5, 13864, Note_on_c, 1, 67, 0
5, 13915, Note_on_c, 1, 65, 0
5, 13919, Note_on_c, 1, 64, 78
5, 14104, Note_on_c, 1, 65, 78
5, 14109, Note_on_c, 1, 64, 0
5, 14133, Note_on_c, 1, 67, 68
5, 14142, Note_on_c, 1, 65, 0
5, 14160, Note_on_c, 1, 67, 0
5, 14160, Note_on_c, 1, 69, 78
5, 14223, Note_on_c, 1, 67, 78
5, 14229, Note_on_c, 1, 69, 0
5, 14280, Note_on_c, 1, 67, 0
5, 14280, Note_on_c, 1, 65, 78
5, 14336, Note_on_c, 1, 63, 78
5, 14340, Note_on_c, 1, 65, 0
5, 14377, Note_on_c, 1, 63, 0
5, 14395, Note_on_c, 1, 62, 90
5, 14496, Note_on_c, 1, 62, 0
5, 14520, Note_on_c, 1, 62, 90
5, 14556, Note_on_c, 1, 62, 0
5, 14577, Note_on_c, 1, 62, 78
5, 14636, Note_on_c, 1, 62, 0
5, 14640, Note_on_c, 1, 67, 78
5, 14697, Note_on_c, 1, 68, 90
5, 14705, Note_on_c, 1, 67, 0
5, 14750, Note_on_c, 1, 68, 0
5, 14757, Note_on_c, 1, 67, 78
5, 14816, Note_on_c, 1, 65, 78
5, 14818, Note_on_c, 1, 67, 0
5, 14874, Note_on_c, 1, 65, 0
5, 14877, Note_on_c, 1, 63, 90
5, 14940, Note_on_c, 1, 62, 78
5, 14942, Note_on_c, 1, 63, 0
5, 14997, Note_on_c, 1, 63, 78
5, 15001, Note_on_c, 1, 62, 0
5, 15051, Note_on_c, 1, 63, 0
5, 15053, Note_on_c, 1, 67, 68
5, 15089, Note_on_c, 1, 67, 0
5, 15113, Note_on_c, 1, 67, 78
5, 15239, Note_on_c, 1, 66, 90
5, 15243, Note_on_c, 1, 67, 0
5, 15349, Note_on_c, 1, 66, 0
5, 15356, Note_on_c, 1, 67, 78
5, 15465, Note_on_c, 1, 67, 0
5, 16798, Note_on_c, 1, 60, 90
5, 16993, Note_on_c, 1, 60, 0
5, 17011, Note_on_c, 1, 60, 78
5, 17133, Note_on_c, 1, 60, 0
5, 17156, Note_on_c, 1, 60, 90
5, 17254, Note_on_c, 1, 60, 0
5, 17280, Note_on_c, 1, 60, 90
5, 17492, Note_on_c, 1, 60, 0
5, 17516, Note_on_c, 1, 60, 90
5, 17608, Note_on_c, 1, 60, 0
5, 17638, Note_on_c, 1, 60, 90
5, 17736, Note_on_c, 1, 60, 0
5, 17763, Note_on_c, 1, 60, 90
5, 17857, Note_on_c, 1, 60, 0
5, 17884, Note_on_c, 1, 60, 90
5, 17981, Note_on_c, 1, 60, 0
5, 18000, Note_on_c, 1, 64, 78
5, 18059, Note_on_c, 1, 64, 0
5, 18059, Note_on_c, 1, 65, 78
5, 18119, Note_on_c, 1, 65, 0
5, 18123, Note_on_c, 1, 67, 78
5, 18179, Note_on_c, 1, 69, 78
5, 18188, Note_on_c, 1, 67, 0
5, 18231, Note_on_c, 1, 69, 0
5, 18238, Note_on_c, 1, 70, 90
5, 18354, Note_on_c, 1, 69, 90
5, 18356, Note_on_c, 1, 70, 0
5, 18471, Note_on_c, 1, 69, 0
5, 18472, Note_on_c, 1, 67, 78
5, 18533, Note_on_c, 1, 67, 0
5, 18533, Note_on_c, 1, 64, 78
5, 18591, Note_on_c, 1, 64, 0
5, 18594, Note_on_c, 1, 69, 78
5, 18651, Note_on_c, 1, 67, 90
5, 18655, Note_on_c, 1, 69, 0
5, 18697, Note_on_c, 1, 67, 0
5, 18716, Note_on_c, 1, 67, 90
5, 18820, Note_on_c, 1, 67, 0
5, 18836, Note_on_c, 1, 67, 78
5, 18875, Note_on_c, 1, 67, 0
5, 18893, Note_on_c, 1, 67, 78
5, 18948, Note_on_c, 1, 67, 0
5, 18957, Note_on_c, 1, 69, 90
5, 19029, Note_on_c, 1, 69, 0
5, 19055, Note_on_c, 1, 69, 68
5, 19083, Note_on_c, 1, 64, 90
5, 19086, Note_on_c, 1, 69, 0
5, 19180, Note_on_c, 1, 64, 0
5, 19203, Note_on_c, 1, 64, 90
5, 19353, Note_on_c, 1, 64, 0
5, 19380, Note_on_c, 1, 64, 78
5, 19430, Note_on_c, 1, 64, 0
5, 19436, Note_on_c, 1, 65, 90
5, 19562, Note_on_c, 1, 60, 78
5, 19570, Note_on_c, 1, 65, 0
5, 19599, Note_on_c, 1, 60, 0
5, 19619, Note_on_c, 1, 60, 78
5, 19652, Note_on_c, 1, 60, 0
5, 19679, Note_on_c, 1, 60, 90
5, 19753, Note_on_c, 1, 60, 0
5, 19774, Note_on_c, 1, 60, 78
5, 19790, Note_on_c, 1, 60, 0
5, 19800, Note_on_c, 1, 60, 90
5, 19911, Note_on_c, 1, 60, 0
5, 19919, Note_on_c, 1, 62, 90
5, 19994, Note_on_c, 1, 62, 0
5, 20015, Note_on_c, 1, 62, 78
5, 20045, Note_on_c, 1, 62, 0
5, 20045, Note_on_c, 1, 57, 90
5, 20141, Note_on_c, 1, 57, 0
5, 20162, Note_on_c, 1, 57, 90
5, 20212, Note_on_c, 1, 60, 29
5, 20220, Note_on_c, 1, 60, 0
5, 20227, Note_on_c, 1, 60, 78
5, 20236, Note_on_c, 1, 57, 0
5, 20327, Note_on_c, 1, 60, 0
5, 20340, Note_on_c, 1, 65, 90
5, 20394, Note_on_c, 1, 65, 0
5, 20398, Note_on_c, 1, 64, 78
5, 20454, Note_on_c, 1, 64, 0
5, 20454, Note_on_c, 1, 67, 78
5, 20570, Note_on_c, 1, 67, 0
5, 20579, Note_on_c, 1, 72, 78
5, 20632, Note_on_c, 1, 72, 0
5, 20639, Note_on_c, 1, 71, 78
5, 20757, Note_on_c, 1, 71, 0
5, 20939, Note_on_c, 1, 64, 78
5, 20998, Note_on_c, 1, 64, 0
5, 21000, Note_on_c, 1, 62, 78
5, 21058, Note_on_c, 1, 61, 78
5, 21061, Note_on_c, 1, 62, 0
5, 21117, Note_on_c, 1, 61, 0
5, 21134, Note_on_c, 1, 60, 78
5, 21157, Note_on_c, 1, 62, 50
5, 21166, Note_on_c, 1, 60, 0
5, 21285, Note_on_c, 1, 62, 0
5, 21304, Note_on_c, 1, 69, 78
5, 21356, Note_on_c, 1, 69, 0
5, 21358, Note_on_c, 1, 67, 78
5, 21413, Note_on_c, 1, 67, 0
5, 21415, Note_on_c, 1, 65, 68
5, 21465, Note_on_c, 1, 65, 0
5, 21473, Note_on_c, 1, 64, 78
5, 21533, Note_on_c, 1, 64, 0
5, 21536, Note_on_c, 1, 62, 78
5, 21586, Note_on_c, 1, 62, 0
5, 21596, Note_on_c, 1, 67, 78
5, 21691, Note_on_c, 1, 67, 0
5, 21692, Note_on_c, 1, 65, 78
5, 21713, Note_on_c, 1, 65, 0
5, 21716, Note_on_c, 1, 64, 78
5, 21786, Note_on_c, 1, 64, 0
5, 22135, Note_on_c, 1, 69, 78
5, 22199, Note_on_c, 1, 69, 0
5, 22199, Note_on_c, 1, 65, 90
5, 22251, Note_on_c, 1, 65, 0
5, 22252, Note_on_c, 1, 64, 68
5, 22304, Note_on_c, 1, 64, 0
5, 22315, Note_on_c, 1, 62, 78
5, 22420, Note_on_c, 1, 62, 0
5, 22440, Note_on_c, 1, 74, 90
5, 22505, Note_on_c, 1, 72, 68
5, 22509, Note_on_c, 1, 74, 0
5, 22564, Note_on_c, 1, 72, 0
5, 22565, Note_on_c, 1, 71, 90
5, 22776, Note_on_c, 1, 71, 0
5, 22796, Note_on_c, 1, 71, 90
5, 22973, Note_on_c, 1, 71, 0
5, 22975, Note_on_c, 1, 67, 90
5, 23011, Note_on_c, 1, 67, 0
5, 23035, Note_on_c, 1, 67, 90
5, 23147, Note_on_c, 1, 67, 0
5, 23155, Note_on_c, 1, 69, 78
5, 23195, Note_on_c, 1, 69, 0
5, 23213, Note_on_c, 1, 69, 90
5, 23267, Note_on_c, 1, 69, 0
5, 23275, Note_on_c, 1, 67, 90
5, 23503, Note_on_c, 1, 67, 0
5, 23521, Note_on_c, 1, 67, 90
5, 23625, Note_on_c, 1, 67, 0
5, 23940, Note_on_c, 1, 67, 78
5, 23991, Note_on_c, 1, 67, 0
5, 24000, Note_on_c, 1, 69, 90
5, 24054, Note_on_c, 1, 67, 58
5, 24058, Note_on_c, 1, 69, 0
5, 24113, Note_on_c, 1, 67, 0
5, 24115, Note_on_c, 1, 65, 68
5, 24167, Note_on_c, 1, 65, 0
5, 24169, Note_on_c, 1, 64, 58
5, 24230, Note_on_c, 1, 64, 0
5, 24236, Note_on_c, 1, 62, 68
5, 24407, Note_on_c, 1, 62, 0
5, 24411, Note_on_c, 1, 65, 68
5, 24442, Note_on_c, 1, 65, 0
5, 24442, Note_on_c, 1, 62, 68
5, 24472, Note_on_c, 1, 62, 0
5, 24472, Note_on_c, 1, 67, 58
5, 24535, Note_on_c, 1, 65, 90
5, 24542, Note_on_c, 1, 67, 0
5, 24596, Note_on_c, 1, 65, 0
5, 24597, Note_on_c, 1, 64, 68
5, 24653, Note_on_c, 1, 64, 0
5, 24654, Note_on_c, 1, 62, 78
5, 24704, Note_on_c, 1, 62, 0
5, 24714, Note_on_c, 1, 60, 78
5, 24836, Note_on_c, 1, 60, 0
5, 25020, Note_on_c, 1, 60, 68
5, 25075, Note_on_c, 1, 60, 0
5, 25080, Note_on_c, 1, 69, 90
5, 25316, Note_on_c, 1, 69, 0
5, 25319, Note_on_c, 1, 71, 78
5, 25374, Note_on_c, 1, 71, 0
5, 25374, Note_on_c, 1, 69, 68
5, 25435, Note_on_c, 1, 69, 0
5, 25437, Note_on_c, 1, 67, 90
5, 25799, Note_on_c, 1, 69, 78
5, 25803, Note_on_c, 1, 67, 0
5, 25854, Note_on_c, 1, 67, 78
5, 25859, Note_on_c, 1, 69, 0
5, 25911, Note_on_c, 1, 67, 0
5, 25914, Note_on_c, 1, 65, 78
5, 26093, Note_on_c, 1, 65, 0
5, 26094, Note_on_c, 1, 72, 78
5, 26134, Note_on_c, 1, 72, 0
5, 26160, Note_on_c, 1, 71, 90
5, 26323, Note_on_c, 1, 71, 0
5, 26335, Note_on_c, 1, 67, 78
5, 26377, Note_on_c, 1, 67, 0
5, 26400, Note_on_c, 1, 67, 90
5, 26506, Note_on_c, 1, 67, 0
5, 26520, Note_on_c, 1, 69, 90
5, 26557, Note_on_c, 1, 69, 0
5, 26574, Note_on_c, 1, 69, 90
5, 26624, Note_on_c, 1, 69, 0
5, 26635, Note_on_c, 1, 69, 90
5, 26753, Note_on_c, 1, 69, 0
5, 26755, Note_on_c, 1, 67, 90
5, 26854, Note_on_c, 1, 67, 0
5, 26875, Note_on_c, 1, 67, 90
5, 26992, Note_on_c, 1, 67, 0
5, 30782, Note_on_c, 1, 67, 78
5, 30882, Note_on_c, 1, 67, 0
5, 30898, Note_on_c, 1, 67, 78
5, 30956, Note_on_c, 1, 67, 0
5, 30957, Note_on_c, 1, 68, 90
5, 31196, Note_on_c, 1, 68, 0
5, 31197, Note_on_c, 1, 67, 78
5, 31248, Note_on_c, 1, 67, 0
5, 31258, Note_on_c, 1, 67, 78
5, 31272, Note_on_c, 1, 67, 0
5, 31285, Note_on_c, 1, 67, 78
5, 31306, Note_on_c, 1, 67, 0
5, 31317, Note_on_c, 1, 67, 78
5, 31365, Note_on_c, 1, 67, 0
5, 31378, Note_on_c, 1, 67, 90
5, 31435, Note_on_c, 1, 67, 0
5, 31439, Note_on_c, 1, 65, 90
5, 31680, Note_on_c, 1, 65, 0
5, 31680, Note_on_c, 1, 63, 90
5, 31734, Note_on_c, 1, 63, 0
5, 31737, Note_on_c, 1, 69, 68
5, 31782, Note_on_c, 1, 69, 0
5, 31800, Note_on_c, 1, 69, 90
5, 31836, Note_on_c, 1, 69, 0
5, 31845, Note_on_c, 1, 69, 68
5, 31855, Note_on_c, 1, 69, 0
5, 31860, Note_on_c, 1, 69, 78
5, 31875, Note_on_c, 1, 69, 0
5, 31890, Note_on_c, 1, 69, 90
5, 31920, Note_on_c, 1, 69, 0
5, 31920, Note_on_c, 1, 67, 90
5, 32158, Note_on_c, 1, 67, 0
5, 32160, Note_on_c, 1, 65, 90
5, 32266, Note_on_c, 1, 65, 0
5, 32400, Note_on_c, 1, 67, 42
5, 32460, Note_on_c, 1, 63, 50
5, 32463, Note_on_c, 1, 67, 0
5, 32518, Note_on_c, 1, 63, 0
5, 32640, Note_on_c, 1, 67, 50
5, 32700, Note_on_c, 1, 65, 50
5, 32703, Note_on_c, 1, 67, 0
5, 32757, Note_on_c, 1, 65, 0
5, 32880, Note_on_c, 1, 63, 42
5, 33000, Note_on_c, 1, 67, 50
5, 33005, Note_on_c, 1, 63, 0
5, 33120, Note_on_c, 1, 68, 78
5, 33122, Note_on_c, 1, 67, 0
5, 33180, Note_on_c, 1, 67, 68
5, 33185, Note_on_c, 1, 68, 0
5, 33300, Note_on_c, 1, 66, 90
5, 33304, Note_on_c, 1, 67, 0
5, 33347, Note_on_c, 1, 66, 0
5, 33360, Note_on_c, 1, 67, 78
5, 33480, Note_on_c, 1, 65, 90
5, 33487, Note_on_c, 1, 67, 0
5, 33552, Note_on_c, 1, 65, 0
5, 33570, Note_on_c, 1, 65, 78
5, 33598, Note_on_c, 1, 65, 0
5, 33600, Note_on_c, 1, 63, 90
5, 33656, Note_on_c, 1, 63, 0
5, 33720, Note_on_c, 1, 62, 29
5, 33783, Note_on_c, 1, 62, 0
5, 33840, Note_on_c, 1, 63, 58
5, 33903, Note_on_c, 1, 63, 0
5, 33960, Note_on_c, 1, 62, 29
5, 34021, Note_on_c, 1, 62, 0
5, 34080, Note_on_c, 1, 60, 35
5, 34163, Note_on_c, 1, 60, 0
5, 34380, Note_on_c, 1, 60, 90
5, 34410, Note_on_c, 1, 60, 0
5, 34440, Note_on_c, 1, 60, 90
5, 34475, Note_on_c, 1, 60, 0
5, 34500, Note_on_c, 1, 60, 90
5, 34530, Note_on_c, 1, 60, 0
5, 34560, Note_on_c, 1, 60, 90
5, 34645, Note_on_c, 1, 60, 0
5, 34680, Note_on_c, 1, 60, 90
5, 34775, Note_on_c, 1, 60, 0
5, 34800, Note_on_c, 1, 60, 90
5, 34876, Note_on_c, 1, 60, 0
5, 34890, Note_on_c, 1, 60, 90
5, 34905, Note_on_c, 1, 60, 0
5, 34920, Note_on_c, 1, 60, 90
5, 35008, Note_on_c, 1, 60, 0
5, 35040, Note_on_c, 1, 60, 90
5, 35137, Note_on_c, 1, 60, 0
5, 35160, Note_on_c, 1, 60, 90
5, 35188, Note_on_c, 1, 60, 0
5, 35220, Note_on_c, 1, 60, 78
5, 35266, Note_on_c, 1, 60, 0
5, 35280, Note_on_c, 1, 64, 78
5, 35322, Note_on_c, 1, 64, 0
5, 35340, Note_on_c, 1, 65, 78
5, 35380, Note_on_c, 1, 65, 0
5, 35400, Note_on_c, 1, 67, 78
5, 35452, Note_on_c, 1, 67, 0
5, 35460, Note_on_c, 1, 69, 68
5, 35505, Note_on_c, 1, 69, 0
5, 35520, Note_on_c, 1, 70, 90
5, 35619, Note_on_c, 1, 70, 0
5, 35640, Note_on_c, 1, 69, 78
5, 35689, Note_on_c, 1, 69, 0
5, 35700, Note_on_c, 1, 69, 68
5, 35747, Note_on_c, 1, 69, 0
5, 35760, Note_on_c, 1, 67, 78
5, 35814, Note_on_c, 1, 67, 0
5, 35820, Note_on_c, 1, 64, 68
5, 35864, Note_on_c, 1, 64, 0
5, 35880, Note_on_c, 1, 69, 78
5, 35940, Note_on_c, 1, 67, 78
5, 35944, Note_on_c, 1, 69, 0
5, 35977, Note_on_c, 1, 67, 0
5, 36000, Note_on_c, 1, 67, 78
5, 36115, Note_on_c, 1, 67, 0
5, 36120, Note_on_c, 1, 64, 78
5, 36178, Note_on_c, 1, 64, 0
5, 36180, Note_on_c, 1, 60, 68
5, 36228, Note_on_c, 1, 60, 0
5, 36240, Note_on_c, 1, 72, 78
5, 36297, Note_on_c, 1, 72, 0
5, 36300, Note_on_c, 1, 71, 68
5, 36352, Note_on_c, 1, 71, 0
5, 36360, Note_on_c, 1, 69, 78
5, 36418, Note_on_c, 1, 69, 0
5, 36420, Note_on_c, 1, 68, 90
5, 36456, Note_on_c, 1, 68, 0
5, 36480, Note_on_c, 1, 69, 90
5, 36633, Note_on_c, 1, 69, 0
5, 36660, Note_on_c, 1, 69, 90
5, 36719, Note_on_c, 1, 69, 0
5, 36720, Note_on_c, 1, 71, 78
5, 36779, Note_on_c, 1, 71, 0
5, 36780, Note_on_c, 1, 69, 78
5, 36838, Note_on_c, 1, 69, 0
5, 36840, Note_on_c, 1, 67, 78
5, 36874, Note_on_c, 1, 67, 0
5, 36900, Note_on_c, 1, 66, 78
5, 36937, Note_on_c, 1, 66, 0
5, 36960, Note_on_c, 1, 67, 90
5, 37090, Note_on_c, 1, 67, 0
5, 37500, Note_on_c, 1, 72, 78
5, 37556, Note_on_c, 1, 72, 0
5, 37560, Note_on_c, 1, 71, 78
5, 37620, Note_on_c, 1, 69, 78
5, 37625, Note_on_c, 1, 71, 0
5, 37665, Note_on_c, 1, 69, 0
5, 37680, Note_on_c, 1, 72, 58
5, 37730, Note_on_c, 1, 72, 0
5, 37740, Note_on_c, 1, 69, 78
5, 37776, Note_on_c, 1, 69, 0
5, 37800, Note_on_c, 1, 69, 68
5, 37844, Note_on_c, 1, 69, 0
5, 37860, Note_on_c, 1, 67, 68
5, 37889, Note_on_c, 1, 67, 0
5, 37920, Note_on_c, 1, 66, 90
5, 38072, Note_on_c, 1, 66, 0
5, 38100, Note_on_c, 1, 66, 90
5, 38129, Note_on_c, 1, 66, 0
5, 38160, Note_on_c, 1, 66, 90
5, 38260, Note_on_c, 1, 66, 0
5, 38280, Note_on_c, 1, 66, 90
5, 38379, Note_on_c, 1, 66, 0
5, 38400, Note_on_c, 1, 67, 90
5, 38503, Note_on_c, 1, 67, 0
5, 38520, Note_on_c, 1, 69, 78
5, 38556, Note_on_c, 1, 69, 0
5, 38580, Note_on_c, 1, 69, 78
5, 38633, Note_on_c, 1, 69, 0
5, 38640, Note_on_c, 1, 67, 78
5, 38760, Note_on_c, 1, 66, 90
5, 38765, Note_on_c, 1, 67, 0
5, 38866, Note_on_c, 1, 66, 0
5, 38880, Note_on_c, 1, 67, 90
5, 38991, Note_on_c, 1, 67, 0
5, 39300, Note_on_c, 1, 67, 78
5, 39327, Note_on_c, 1, 67, 0
5, 39360, Note_on_c, 1, 67, 90
5, 39516, Note_on_c, 1, 67, 0
5, 39540, Note_on_c, 1, 67, 90
5, 39573, Note_on_c, 1, 67, 0
5, 39600, Note_on_c, 1, 67, 90
5, 39693, Note_on_c, 1, 67, 0
5, 39720, Note_on_c, 1, 67, 90
5, 39814, Note_on_c, 1, 67, 0
5, 39840, Note_on_c, 1, 65, 90
5, 39897, Note_on_c, 1, 65, 0
5, 39900, Note_on_c, 1, 64, 78
5, 39954, Note_on_c, 1, 64, 0
5, 39960, Note_on_c, 1, 62, 78
5, 40003, Note_on_c, 1, 62, 0
5, 40020, Note_on_c, 1, 60, 68
5, 40053, Note_on_c, 1, 60, 0
5, 40080, Note_on_c, 1, 59, 58
5, 40133, Note_on_c, 1, 59, 0
5, 40140, Note_on_c, 1, 69, 78
5, 40200, Note_on_c, 1, 67, 78
5, 40206, Note_on_c, 1, 69, 0
5, 40257, Note_on_c, 1, 67, 0
5, 40260, Note_on_c, 1, 65, 78
5, 40306, Note_on_c, 1, 65, 0
5, 40320, Note_on_c, 1, 64, 78
5, 40468, Note_on_c, 1, 64, 0
5, 40500, Note_on_c, 1, 64, 78
5, 40537, Note_on_c, 1, 64, 0
5, 40560, Note_on_c, 1, 64, 78
5, 40667, Note_on_c, 1, 64, 0
5, 40680, Note_on_c, 1, 68, 104
5, 40783, Note_on_c, 1, 68, 0
5, 40800, Note_on_c, 1, 69, 90
5, 40879, Note_on_c, 1, 69, 0
5, 40890, Note_on_c, 1, 69, 42
5, 40907, Note_on_c, 1, 69, 0
5, 40920, Note_on_c, 1, 69, 50
5, 41007, Note_on_c, 1, 69, 0
5, 41040, Note_on_c, 1, 69, 50
5, 41138, Note_on_c, 1, 69, 0
5, 41160, Note_on_c, 1, 69, 58
5, 41250, Note_on_c, 1, 69, 0
5, 41280, Note_on_c, 1, 67, 90
5, 41381, Note_on_c, 1, 67, 0
5, 41400, Note_on_c, 1, 67, 42
5, 41489, Note_on_c, 1, 67, 0
5, 41520, Note_on_c, 1, 67, 24
5, 41601, Note_on_c, 1, 67, 0
5, 41640, Note_on_c, 1, 67, 35
5, 41732, Note_on_c, 1, 67, 0
5, 41760, Note_on_c, 1, 65, 90
5, 41988, Note_on_c, 1, 65, 0
5, 42000, Note_on_c, 1, 64, 90
5, 42221, Note_on_c, 1, 64, 0
5, 42240, Note_on_c, 1, 62, 90
5, 42358, Note_on_c, 1, 62, 0
5, 42360, Note_on_c, 1, 64, 78
5, 42395, Note_on_c, 1, 64, 0
5, 42420, Note_on_c, 1, 64, 90
5, 42455, Note_on_c, 1, 64, 0
5, 42480, Note_on_c, 1, 64, 90
5, 42599, Note_on_c, 1, 64, 0
5, 42600, Note_on_c, 1, 66, 90
5, 42679, Note_on_c, 1, 66, 0
5, 42690, Note_on_c, 1, 66, 78
5, 42720, Note_on_c, 1, 66, 0
5, 42720, Note_on_c, 1, 59, 90
5, 42828, Note_on_c, 1, 59, 0
5, 43260, Note_on_c, 1, 69, 78
5, 43320, Note_on_c, 1, 68, 90
5, 43328, Note_on_c, 1, 69, 0
5, 43379, Note_on_c, 1, 68, 0
5, 43380, Note_on_c, 1, 69, 78
5, 43440, Note_on_c, 1, 69, 0
5, 43440, Note_on_c, 1, 64, 78
5, 43540, Note_on_c, 1, 64, 0
5, 43560, Note_on_c, 1, 64, 78
5, 43596, Note_on_c, 1, 64, 0
5, 43620, Note_on_c, 1, 64, 68
5, 43661, Note_on_c, 1, 64, 0
5, 43680, Note_on_c, 1, 64, 78
5, 43827, Note_on_c, 1, 64, 0
5, 43860, Note_on_c, 1, 64, 78
5, 43920, Note_on_c, 1, 64, 0
5, 43920, Note_on_c, 1, 65, 78
5, 43953, Note_on_c, 1, 65, 0
5, 43980, Note_on_c, 1, 65, 78
5, 44014, Note_on_c, 1, 65, 0
5, 44040, Note_on_c, 1, 65, 90
5, 44145, Note_on_c, 1, 65, 0
5, 44220, Note_on_c, 1, 64, 78
5, 44253, Note_on_c, 1, 64, 0
5, 44280, Note_on_c, 1, 64, 78
5, 44310, Note_on_c, 1, 64, 0
5, 44340, Note_on_c, 1, 64, 78
5, 44387, Note_on_c, 1, 64, 0
5, 44400, Note_on_c, 1, 62, 78
5, 44635, Note_on_c, 1, 62, 0
5, 44640, Note_on_c, 1, 60, 68
5, 44672, Note_on_c, 1, 60, 0
5, 44700, Note_on_c, 1, 60, 78
5, 44760, Note_on_c, 1, 60, 0
5, 44760, Note_on_c, 1, 65, 90
5, 44794, Note_on_c, 1, 65, 0
5, 44820, Note_on_c, 1, 65, 90
5, 44873, Note_on_c, 1, 65, 0
5, 44880, Note_on_c, 1, 64, 78
5, 45094, Note_on_c, 1, 64, 0
5, 45120, Note_on_c, 1, 64, 90
5, 45238, Note_on_c, 1, 64, 0
5, 54480, Note_on_c, 1, 60, 78
5, 54540, Note_on_c, 1, 62, 78
5, 54544, Note_on_c, 1, 60, 0
5, 54585, Note_on_c, 1, 62, 0
5, 54600, Note_on_c, 1, 64, 68
5, 54656, Note_on_c, 1, 64, 0
5, 54660, Note_on_c, 1, 65, 90
5, 54700, Note_on_c, 1, 65, 0
5, 54720, Note_on_c, 1, 67, 78
5, 54954, Note_on_c, 1, 67, 0
5, 54960, Note_on_c, 1, 64, 90
5, 55020, Note_on_c, 1, 65, 78
5, 55024, Note_on_c, 1, 64, 0
5, 55069, Note_on_c, 1, 65, 0
5, 55080, Note_on_c, 1, 67, 78
5, 55134, Note_on_c, 1, 67, 0
5, 55140, Note_on_c, 1, 69, 68
5, 55195, Note_on_c, 1, 69, 0
5, 55200, Note_on_c, 1, 70, 90
5, 55372, Note_on_c, 1, 70, 0
5, 55380, Note_on_c, 1, 67, 78
5, 55435, Note_on_c, 1, 67, 0
5, 55440, Note_on_c, 1, 64, 78
5, 55500, Note_on_c, 1, 65, 78
5, 55525, Note_on_c, 1, 64, 0
5, 55560, Note_on_c, 1, 67, 68
5, 55563, Note_on_c, 1, 65, 0
5, 55616, Note_on_c, 1, 67, 0
5, 55620, Note_on_c, 1, 69, 78
5, 55676, Note_on_c, 1, 69, 0
5, 55680, Note_on_c, 1, 70, 90
5, 55755, Note_on_c, 1, 70, 0
5, 55770, Note_on_c, 1, 70, 90
5, 55796, Note_on_c, 1, 70, 0
5, 55800, Note_on_c, 1, 69, 78
5, 55835, Note_on_c, 1, 69, 0
5, 55860, Note_on_c, 1, 69, 78
5, 55914, Note_on_c, 1, 69, 0
5, 55920, Note_on_c, 1, 67, 78
5, 55972, Note_on_c, 1, 67, 0
5, 55980, Note_on_c, 1, 64, 68
5, 56033, Note_on_c, 1, 64, 0
5, 56040, Note_on_c, 1, 69, 78
5, 56090, Note_on_c, 1, 69, 0
5, 56100, Note_on_c, 1, 67, 78
5, 56142, Note_on_c, 1, 67, 0
5, 56160, Note_on_c, 1, 67, 90
5, 56305, Note_on_c, 1, 67, 0
5, 56340, Note_on_c, 1, 67, 78
5, 56398, Note_on_c, 1, 67, 0
5, 56400, Note_on_c, 1, 69, 90
5, 56467, Note_on_c, 1, 69, 0
5, 56490, Note_on_c, 1, 69, 78
5, 56518, Note_on_c, 1, 69, 0
5, 56520, Note_on_c, 1, 64, 78
5, 56679, Note_on_c, 1, 64, 0
5, 56700, Note_on_c, 1, 64, 90
5, 56737, Note_on_c, 1, 64, 0
5, 56760, Note_on_c, 1, 64, 78
5, 56797, Note_on_c, 1, 64, 0
5, 56820, Note_on_c, 1, 64, 78
5, 56868, Note_on_c, 1, 64, 0
5, 56880, Note_on_c, 1, 65, 90
5, 57000, Note_on_c, 1, 60, 78
5, 57007, Note_on_c, 1, 65, 0
5, 57092, Note_on_c, 1, 60, 0
5, 57120, Note_on_c, 1, 60, 90
5, 57191, Note_on_c, 1, 60, 0
5, 57210, Note_on_c, 1, 60, 90
5, 57225, Note_on_c, 1, 60, 0
5, 57240, Note_on_c, 1, 60, 90
5, 57275, Note_on_c, 1, 60, 0
5, 57300, Note_on_c, 1, 60, 90
5, 57344, Note_on_c, 1, 60, 0
5, 57360, Note_on_c, 1, 62, 78
5, 57479, Note_on_c, 1, 62, 0
5, 57480, Note_on_c, 1, 57, 90
5, 57581, Note_on_c, 1, 57, 0
5, 57600, Note_on_c, 1, 57, 90
5, 57660, Note_on_c, 1, 60, 58
5, 57682, Note_on_c, 1, 57, 0
5, 57760, Note_on_c, 1, 60, 0
5, 57780, Note_on_c, 1, 65, 78
5, 57840, Note_on_c, 1, 64, 78
5, 57841, Note_on_c, 1, 65, 0
5, 57897, Note_on_c, 1, 64, 0
5, 57900, Note_on_c, 1, 67, 78
5, 58018, Note_on_c, 1, 67, 0
5, 58020, Note_on_c, 1, 72, 78
5, 58070, Note_on_c, 1, 72, 0
5, 58080, Note_on_c, 1, 71, 78
5, 58194, Note_on_c, 1, 71, 0
5, 58200, Note_on_c, 1, 67, 78
5, 58296, Note_on_c, 1, 67, 0
5, 58320, Note_on_c, 1, 67, 90
5, 58409, Note_on_c, 1, 67, 0
5, 58440, Note_on_c, 1, 67, 90
5, 58540, Note_on_c, 1, 67, 0
5, 58560, Note_on_c, 1, 68, 104
5, 58651, Note_on_c, 1, 68, 0
5, 58680, Note_on_c, 1, 68, 58
5, 58766, Note_on_c, 1, 68, 0
5, 58800, Note_on_c, 1, 68, 50
5, 58873, Note_on_c, 1, 68, 0
5, 58890, Note_on_c, 1, 68, 50
5, 58903, Note_on_c, 1, 68, 0
5, 58920, Note_on_c, 1, 68, 50
5, 58954, Note_on_c, 1, 68, 0
5, 58980, Note_on_c, 1, 68, 42
5, 59008, Note_on_c, 1, 68, 0
5, 59040, Note_on_c, 1, 67, 90
5, 59141, Note_on_c, 1, 67, 0
5, 59160, Note_on_c, 1, 67, 50
5, 59240, Note_on_c, 1, 67, 0
5, 59280, Note_on_c, 1, 67, 50
5, 59352, Note_on_c, 1, 67, 0
5, 59370, Note_on_c, 1, 67, 42
5, 59383, Note_on_c, 1, 67, 0
5, 59400, Note_on_c, 1, 67, 42
5, 59441, Note_on_c, 1, 67, 0
5, 59460, Note_on_c, 1, 67, 50
5, 59495, Note_on_c, 1, 67, 0
5, 59520, Note_on_c, 1, 65, 90
5, 59760, Note_on_c, 1, 63, 90
5, 59764, Note_on_c, 1, 65, 0
5, 59997, Note_on_c, 1, 63, 0
5, 60000, Note_on_c, 1, 62, 90
5, 60240, Note_on_c, 1, 60, 58
5, 60246, Note_on_c, 1, 62, 0
5, 60480, Note_on_c, 1, 58, 58
5, 60488, Note_on_c, 1, 60, 0
5, 60715, Note_on_c, 1, 58, 0
5, 60720, Note_on_c, 1, 56, 78
5, 60950, Note_on_c, 1, 56, 0
5, 60960, Note_on_c, 1, 55, 35
5, 61009, Note_on_c, 1, 55, 0
5, 61020, Note_on_c, 1, 67, 90
5, 61062, Note_on_c, 1, 67, 0
5, 61080, Note_on_c, 1, 67, 90
5, 61174, Note_on_c, 1, 67, 0
5, 61200, Note_on_c, 1, 67, 90
5, 61260, Note_on_c, 1, 65, 78
5, 61264, Note_on_c, 1, 67, 0
5, 61299, Note_on_c, 1, 65, 0
5, 61320, Note_on_c, 1, 65, 90
5, 61358, Note_on_c, 1, 65, 0
5, 61380, Note_on_c, 1, 65, 78
5, 61436, Note_on_c, 1, 65, 0
5, 61440, Note_on_c, 1, 64, 90
5, 61493, Note_on_c, 1, 64, 0
5, 61500, Note_on_c, 1, 72, 78
5, 61557, Note_on_c, 1, 72, 0
5, 61560, Note_on_c, 1, 71, 78
5, 61616, Note_on_c, 1, 71, 0
5, 61620, Note_on_c, 1, 72, 68
5, 61680, Note_on_c, 1, 67, 90
5, 61683, Note_on_c, 1, 72, 0
5, 61832, Note_on_c, 1, 67, 0
5, 61860, Note_on_c, 1, 67, 90
5, 61878, Note_on_c, 1, 67, 0
5, 61890, Note_on_c, 1, 67, 90
5, 61906, Note_on_c, 1, 67, 0
5, 61920, Note_on_c, 1, 67, 90
5, 62010, Note_on_c, 1, 67, 0
5, 62040, Note_on_c, 1, 67, 90
5, 62146, Note_on_c, 1, 67, 0
5, 62160, Note_on_c, 1, 69, 90
5, 62400, Note_on_c, 1, 67, 90
5, 62401, Note_on_c, 1, 69, 0
5, 62631, Note_on_c, 1, 67, 0
5, 62640, Note_on_c, 1, 65, 90
5, 62880, Note_on_c, 1, 65, 0
5, 62880, Note_on_c, 1, 64, 90
5, 63112, Note_on_c, 1, 64, 0
5, 63120, Note_on_c, 1, 69, 78
5, 63239, Note_on_c, 1, 69, 0
5, 63240, Note_on_c, 1, 67, 90
5, 63340, Note_on_c, 1, 67, 0
5, 63360, Note_on_c, 1, 67, 78
5, 63480, Note_on_c, 1, 69, 78
5, 63482, Note_on_c, 1, 67, 0
5, 63600, Note_on_c, 1, 67, 78
5, 63603, Note_on_c, 1, 69, 0
5, 63815, Note_on_c, 1, 67, 0
5, 63840, Note_on_c, 1, 67, 90
5, 63949, Note_on_c, 1, 67, 0
5, 64260, Note_on_c, 1, 67, 78
5, 64320, Note_on_c, 1, 69, 78
5, 64322, Note_on_c, 1, 67, 0
5, 64380, Note_on_c, 1, 67, 78
5, 64384, Note_on_c, 1, 69, 0
5, 64436, Note_on_c, 1, 67, 0
5, 64440, Note_on_c, 1, 65, 78
5, 64500, Note_on_c, 1, 65, 0
5, 64500, Note_on_c, 1, 64, 68
5, 64550, Note_on_c, 1, 64, 0
5, 64560, Note_on_c, 1, 62, 90
5, 64738, Note_on_c, 1, 62, 0
5, 64740, Note_on_c, 1, 65, 78
5, 64770, Note_on_c, 1, 62, 68
5, 64771, Note_on_c, 1, 65, 0
5, 64795, Note_on_c, 1, 62, 0
5, 64800, Note_on_c, 1, 67, 78
5, 64860, Note_on_c, 1, 65, 78
5, 64867, Note_on_c, 1, 67, 0
5, 64918, Note_on_c, 1, 65, 0
5, 64920, Note_on_c, 1, 64, 68
5, 64979, Note_on_c, 1, 64, 0
5, 64980, Note_on_c, 1, 62, 68
5, 65028, Note_on_c, 1, 62, 0
5, 65040, Note_on_c, 1, 60, 78
5, 65158, Note_on_c, 1, 60, 0
5, 65340, Note_on_c, 1, 60, 78
5, 65391, Note_on_c, 1, 60, 0
5, 65400, Note_on_c, 1, 69, 90
5, 65634, Note_on_c, 1, 69, 0
5, 65640, Note_on_c, 1, 71, 78
5, 65699, Note_on_c, 1, 71, 0
5, 65700, Note_on_c, 1, 69, 68
5, 65758, Note_on_c, 1, 69, 0
5, 65760, Note_on_c, 1, 67, 78
5, 66120, Note_on_c, 1, 69, 78
5, 66121, Note_on_c, 1, 67, 0
5, 66180, Note_on_c, 1, 67, 78
5, 66181, Note_on_c, 1, 69, 0
5, 66239, Note_on_c, 1, 67, 0
5, 66240, Note_on_c, 1, 65, 78
5, 66413, Note_on_c, 1, 65, 0
5, 66420, Note_on_c, 1, 72, 78
5, 66477, Note_on_c, 1, 72, 0
5, 66480, Note_on_c, 1, 71, 90
5, 66600, Note_on_c, 1, 67, 90
5, 66611, Note_on_c, 1, 71, 0
5, 66687, Note_on_c, 1, 67, 0
5, 66720, Note_on_c, 1, 67, 78
5, 66834, Note_on_c, 1, 67, 0
5, 66840, Note_on_c, 1, 69, 90
5, 66949, Note_on_c, 1, 69, 0
5, 66960, Note_on_c, 1, 67, 90
5, 67181, Note_on_c, 1, 67, 0
5, 67200, Note_on_c, 1, 67, 90
5, 67320, Note_on_c, 1, 67, 0
5, 67680, Note_on_c, 1, 67, 90
5, 67776, Note_on_c, 1, 67, 0
5, 67800, Note_on_c, 1, 67, 90
5, 67905, Note_on_c, 1, 67, 0
5, 67920, Note_on_c, 1, 69, 90
5, 68028, Note_on_c, 1, 69, 0
5, 68040, Note_on_c, 1, 67, 90
5, 68147, Note_on_c, 1, 67, 0
5, 68160, Note_on_c, 1, 67, 90
5, 68258, Note_on_c, 1, 67, 0
5, 68640, Note_on_c, 1, 67, 90
5, 68741, Note_on_c, 1, 67, 0
5, 68760, Note_on_c, 1, 67, 90
5, 68865, Note_on_c, 1, 67, 0
5, 68880, Note_on_c, 1, 69, 90
5, 68994, Note_on_c, 1, 69, 0
5, 69000, Note_on_c, 1, 67, 78
5, 69103, Note_on_c, 1, 67, 0
5, 69120, Note_on_c, 1, 67, 90
5, 69233, Note_on_c, 1, 67, 0
5, 70080, Note_on_c, 1, 67, 90
5, 70380, Note_on_c, 1, 67, 0
5, 70380, Note_on_c, 1, 69, 78
5, 70440, Note_on_c, 1, 70, 78
5, 70448, Note_on_c, 1, 69, 0
5, 70500, Note_on_c, 1, 69, 78
5, 70503, Note_on_c, 1, 70, 0
5, 70554, Note_on_c, 1, 69, 0
5, 70560, Note_on_c, 1, 67, 90
5, 70673, Note_on_c, 1, 67, 0
5, 70680, Note_on_c, 1, 69, 90
5, 70798, Note_on_c, 1, 69, 0
5, 70800, Note_on_c, 1, 67, 78
5, 71025, Note_on_c, 1, 67, 0
5, 71040, Note_on_c, 1, 67, 90
5, 71159, Note_on_c, 1, 67, 0
5, 71400, Note_on_c, 1, 67, 90
5, 71493, Note_on_c, 1, 67, 0
5, 71520, Note_on_c, 1, 67, 104
5, 71639, Note_on_c, 1, 67, 0
5, 71880, Note_on_c, 1, 67, 90
5, 71972, Note_on_c, 1, 67, 0
5, 72000, Note_on_c, 1, 67, 104
5, 72117, Note_on_c, 1, 67, 0
5, 72117, End_track
6, 0, Start_track
6, 0, MIDI_port, 0
6, 0, Title_t, "tenor"
6, 1920, Note_on_c, 1, 60, 78
6, 2009, Note_on_c, 1, 60, 0
6, 2040, Note_on_c, 1, 60, 90
6, 2099, Note_on_c, 1, 60, 0
6, 2130, Note_on_c, 1, 60, 78
6, 2159, Note_on_c, 1, 60, 0
6, 2160, Note_on_c, 1, 60, 78
6, 2249, Note_on_c, 1, 60, 0
6, 2280, Note_on_c, 1, 60, 90
6, 2369, Note_on_c, 1, 60, 0
6, 2400, Note_on_c, 1, 60, 90
6, 2489, Note_on_c, 1, 60, 0
6, 2520, Note_on_c, 1, 60, 90
6, 2609, Note_on_c, 1, 60, 0
6, 2610, Note_on_c, 1, 60, 68
6, 2639, Note_on_c, 1, 60, 0
6, 2640, Note_on_c, 1, 60, 90
6, 2729, Note_on_c, 1, 60, 0
6, 2760, Note_on_c, 1, 60, 90
6, 2849, Note_on_c, 1, 60, 0
6, 2880, Note_on_c, 1, 60, 90
6, 2969, Note_on_c, 1, 60, 0
6, 3000, Note_on_c, 1, 60, 90
6, 3089, Note_on_c, 1, 60, 0
6, 3120, Note_on_c, 1, 60, 78
6, 3239, Note_on_c, 1, 60, 0
6, 3240, Note_on_c, 1, 58, 90
6, 3299, Note_on_c, 1, 58, 0
6, 3300, Note_on_c, 1, 57, 78
6, 3359, Note_on_c, 1, 57, 0
6, 3360, Note_on_c, 1, 55, 90
6, 3479, Note_on_c, 1, 55, 0
6, 3480, Note_on_c, 1, 53, 90
6, 3599, Note_on_c, 1, 53, 0
6, 3600, Note_on_c, 1, 55, 78
6, 3629, Note_on_c, 1, 55, 0
6, 3660, Note_on_c, 1, 60, 68
6, 3779, Note_on_c, 1, 60, 0
6, 3780, Note_on_c, 1, 59, 78
6, 3839, Note_on_c, 1, 59, 0
6, 3840, Note_on_c, 1, 60, 78
6, 3959, Note_on_c, 1, 60, 0
6, 4140, Note_on_c, 1, 65, 78
6, 4199, Note_on_c, 1, 65, 0
6, 4200, Note_on_c, 1, 64, 78
6, 4439, Note_on_c, 1, 64, 0
6, 4440, Note_on_c, 1, 57, 68
6, 4559, Note_on_c, 1, 57, 0
6, 4620, Note_on_c, 1, 64, 78
6, 4679, Note_on_c, 1, 64, 0
6, 4680, Note_on_c, 1, 62, 78
6, 4709, Note_on_c, 1, 62, 0
6, 4740, Note_on_c, 1, 62, 78
6, 4769, Note_on_c, 1, 62, 0
6, 4800, Note_on_c, 1, 62, 78
6, 4919, Note_on_c, 1, 62, 0
6, 4920, Note_on_c, 1, 55, 78
6, 5039, Note_on_c, 1, 55, 0
6, 5160, Note_on_c, 1, 64, 58
6, 5219, Note_on_c, 1, 64, 0
6, 5220, Note_on_c, 1, 62, 78
6, 5279, Note_on_c, 1, 62, 0
6, 5280, Note_on_c, 1, 60, 78
6, 5339, Note_on_c, 1, 60, 0
6, 5340, Note_on_c, 1, 64, 78
6, 5399, Note_on_c, 1, 64, 0
6, 5400, Note_on_c, 1, 57, 68
6, 5459, Note_on_c, 1, 57, 0
6, 5460, Note_on_c, 1, 59, 68
6, 5519, Note_on_c, 1, 59, 0
6, 5520, Note_on_c, 1, 60, 68
6, 5639, Note_on_c, 1, 60, 0
6, 5640, Note_on_c, 1, 54, 90
6, 5699, Note_on_c, 1, 54, 0
6, 5700, Note_on_c, 1, 55, 68
6, 5759, Note_on_c, 1, 55, 0
6, 5760, Note_on_c, 1, 57, 78
6, 5909, Note_on_c, 1, 57, 0
6, 5940, Note_on_c, 1, 57, 78
6, 5969, Note_on_c, 1, 57, 0
6, 6000, Note_on_c, 1, 57, 78
6, 6119, Note_on_c, 1, 57, 0
6, 6120, Note_on_c, 1, 62, 90
6, 6179, Note_on_c, 1, 62, 0
6, 6180, Note_on_c, 1, 62, 68
6, 6209, Note_on_c, 1, 62, 0
6, 6240, Note_on_c, 1, 62, 78
6, 6359, Note_on_c, 1, 62, 0
6, 6360, Note_on_c, 1, 64, 78
6, 6479, Note_on_c, 1, 64, 0
6, 6480, Note_on_c, 1, 62, 78
6, 6629, Note_on_c, 1, 62, 0
6, 6660, Note_on_c, 1, 62, 78
6, 6719, Note_on_c, 1, 62, 0
6, 6720, Note_on_c, 1, 62, 90
6, 6839, Note_on_c, 1, 62, 0
6, 8160, Note_on_c, 1, 64, 68
6, 8249, Note_on_c, 1, 64, 0
6, 8280, Note_on_c, 1, 64, 58
6, 8369, Note_on_c, 1, 64, 0
6, 8400, Note_on_c, 1, 64, 50
6, 8489, Note_on_c, 1, 64, 0
6, 8520, Note_on_c, 1, 64, 58
6, 8609, Note_on_c, 1, 64, 0
6, 8640, Note_on_c, 1, 65, 90
6, 8729, Note_on_c, 1, 65, 0
6, 8760, Note_on_c, 1, 65, 42
6, 8819, Note_on_c, 1, 65, 0
6, 8850, Note_on_c, 1, 65, 42
6, 8879, Note_on_c, 1, 65, 0
6, 8880, Note_on_c, 1, 65, 50
6, 8969, Note_on_c, 1, 65, 0
6, 9000, Note_on_c, 1, 65, 50
6, 9089, Note_on_c, 1, 65, 0
6, 9120, Note_on_c, 1, 64, 90
6, 9209, Note_on_c, 1, 64, 0
6, 9240, Note_on_c, 1, 64, 42
6, 9329, Note_on_c, 1, 64, 0
6, 9360, Note_on_c, 1, 64, 50
6, 9449, Note_on_c, 1, 64, 0
6, 9450, Note_on_c, 1, 64, 10
6, 9479, Note_on_c, 1, 64, 0
6, 9480, Note_on_c, 1, 64, 42
6, 9569, Note_on_c, 1, 64, 0
6, 9600, Note_on_c, 1, 62, 90
6, 9719, Note_on_c, 1, 62, 0
6, 9720, Note_on_c, 1, 62, 42
6, 9809, Note_on_c, 1, 62, 0
6, 9840, Note_on_c, 1, 60, 90
6, 9929, Note_on_c, 1, 60, 0
6, 9960, Note_on_c, 1, 60, 35
6, 10049, Note_on_c, 1, 60, 0
6, 10080, Note_on_c, 1, 59, 90
6, 10199, Note_on_c, 1, 59, 0
6, 10200, Note_on_c, 1, 60, 78
6, 10259, Note_on_c, 1, 60, 0
6, 10260, Note_on_c, 1, 56, 90
6, 10319, Note_on_c, 1, 56, 0
6, 10320, Note_on_c, 1, 57, 78
6, 10499, Note_on_c, 1, 57, 0
6, 10500, Note_on_c, 1, 57, 78
6, 10559, Note_on_c, 1, 57, 0
6, 10560, Note_on_c, 1, 56, 90
6, 10679, Note_on_c, 1, 56, 0
6, 10860, Note_on_c, 1, 56, 90
6, 10919, Note_on_c, 1, 56, 0
6, 10920, Note_on_c, 1, 57, 78
6, 10979, Note_on_c, 1, 57, 0
6, 10980, Note_on_c, 1, 59, 68
6, 11009, Note_on_c, 1, 59, 0
6, 11040, Note_on_c, 1, 60, 68
6, 11099, Note_on_c, 1, 60, 0
6, 11100, Note_on_c, 1, 64, 78
6, 11159, Note_on_c, 1, 64, 0
6, 11160, Note_on_c, 1, 62, 78
6, 11219, Note_on_c, 1, 62, 0
6, 11220, Note_on_c, 1, 60, 68
6, 11279, Note_on_c, 1, 60, 0
6, 11280, Note_on_c, 1, 59, 68
6, 11339, Note_on_c, 1, 59, 0
6, 11340, Note_on_c, 1, 56, 90
6, 11369, Note_on_c, 1, 56, 0
6, 11400, Note_on_c, 1, 57, 78
6, 11459, Note_on_c, 1, 57, 0
6, 11460, Note_on_c, 1, 59, 78
6, 11519, Note_on_c, 1, 59, 0
6, 11520, Note_on_c, 1, 60, 78
6, 11639, Note_on_c, 1, 60, 0
6, 11640, Note_on_c, 1, 59, 78
6, 11759, Note_on_c, 1, 59, 0
6, 11760, Note_on_c, 1, 60, 78
6, 11879, Note_on_c, 1, 60, 0
6, 11880, Note_on_c, 1, 55, 90
6, 11969, Note_on_c, 1, 55, 0
6, 12000, Note_on_c, 1, 55, 78
6, 12089, Note_on_c, 1, 55, 0
6, 12090, Note_on_c, 1, 55, 90
6, 12119, Note_on_c, 1, 55, 0
6, 12120, Note_on_c, 1, 55, 90
6, 12209, Note_on_c, 1, 55, 0
6, 12240, Note_on_c, 1, 57, 78
6, 12359, Note_on_c, 1, 57, 0
6, 12360, Note_on_c, 1, 64, 78
6, 12449, Note_on_c, 1, 64, 0
6, 12480, Note_on_c, 1, 64, 78
6, 12539, Note_on_c, 1, 64, 0
6, 12570, Note_on_c, 1, 64, 78
6, 12599, Note_on_c, 1, 64, 0
6, 12600, Note_on_c, 1, 62, 78
6, 12719, Note_on_c, 1, 62, 0
6, 12720, Note_on_c, 1, 60, 68
6, 12839, Note_on_c, 1, 60, 0
6, 12840, Note_on_c, 1, 59, 78
6, 12899, Note_on_c, 1, 59, 0
6, 12930, Note_on_c, 1, 59, 78
6, 12959, Note_on_c, 1, 59, 0
6, 12960, Note_on_c, 1, 57, 78
6, 13049, Note_on_c, 1, 57, 0
6, 13440, Note_on_c, 1, 59, 78
6, 13499, Note_on_c, 1, 59, 0
6, 13500, Note_on_c, 1, 57, 68
6, 13559, Note_on_c, 1, 57, 0
6, 13560, Note_on_c, 1, 59, 78
6, 13589, Note_on_c, 1, 59, 0
6, 13620, Note_on_c, 1, 59, 68
6, 13649, Note_on_c, 1, 59, 0
6, 13680, Note_on_c, 1, 59, 78
6, 13739, Note_on_c, 1, 59, 0
6, 13740, Note_on_c, 1, 66, 78
6, 13799, Note_on_c, 1, 66, 0
6, 13800, Note_on_c, 1, 64, 58
6, 13859, Note_on_c, 1, 64, 0
6, 13860, Note_on_c, 1, 62, 68
6, 13889, Note_on_c, 1, 62, 0
6, 13920, Note_on_c, 1, 61, 78
6, 14069, Note_on_c, 1, 61, 0
6, 14100, Note_on_c, 1, 62, 68
6, 14129, Note_on_c, 1, 62, 0
6, 14130, Note_on_c, 1, 64, 68
6, 14159, Note_on_c, 1, 64, 0
6, 14160, Note_on_c, 1, 65, 78
6, 14219, Note_on_c, 1, 65, 0
6, 14220, Note_on_c, 1, 64, 68
6, 14279, Note_on_c, 1, 64, 0
6, 14280, Note_on_c, 1, 62, 78
6, 14339, Note_on_c, 1, 62, 0
6, 14340, Note_on_c, 1, 60, 58
6, 14399, Note_on_c, 1, 60, 0
6, 14400, Note_on_c, 1, 59, 78
6, 14549, Note_on_c, 1, 59, 0
6, 14580, Note_on_c, 1, 59, 78
6, 14639, Note_on_c, 1, 59, 0
6, 14640, Note_on_c, 1, 60, 78
6, 14759, Note_on_c, 1, 60, 0
6, 14760, Note_on_c, 1, 55, 78
6, 14789, Note_on_c, 1, 55, 0
6, 14820, Note_on_c, 1, 55, 78
6, 14849, Note_on_c, 1, 55, 0
6, 14880, Note_on_c, 1, 55, 90
6, 14969, Note_on_c, 1, 55, 0
6, 15000, Note_on_c, 1, 55, 78
6, 15089, Note_on_c, 1, 55, 0
6, 15120, Note_on_c, 1, 60, 78
6, 15359, Note_on_c, 1, 60, 0
6, 15360, Note_on_c, 1, 62, 90
6, 15449, Note_on_c, 1, 62, 0
6, 16800, Note_on_c, 1, 60, 90
6, 16949, Note_on_c, 1, 60, 0
6, 16980, Note_on_c, 1, 60, 78
6, 17009, Note_on_c, 1, 60, 0
6, 17040, Note_on_c, 1, 60, 90
6, 17129, Note_on_c, 1, 60, 0
6, 17160, Note_on_c, 1, 60, 90
6, 17249, Note_on_c, 1, 60, 0
6, 17280, Note_on_c, 1, 60, 90
6, 17489, Note_on_c, 1, 60, 0
6, 17520, Note_on_c, 1, 60, 90
6, 17609, Note_on_c, 1, 60, 0
6, 17640, Note_on_c, 1, 60, 90
6, 17729, Note_on_c, 1, 60, 0
6, 17760, Note_on_c, 1, 60, 78
6, 17849, Note_on_c, 1, 60, 0
6, 17880, Note_on_c, 1, 60, 78
6, 17999, Note_on_c, 1, 60, 0
6, 18000, Note_on_c, 1, 55, 78
6, 18059, Note_on_c, 1, 55, 0
6, 18060, Note_on_c, 1, 57, 78
6, 18119, Note_on_c, 1, 57, 0
6, 18120, Note_on_c, 1, 58, 90
6, 18179, Note_on_c, 1, 58, 0
6, 18180, Note_on_c, 1, 57, 68
6, 18239, Note_on_c, 1, 57, 0
6, 18240, Note_on_c, 1, 55, 90
6, 18359, Note_on_c, 1, 55, 0
6, 18360, Note_on_c, 1, 53, 90
6, 18479, Note_on_c, 1, 53, 0
6, 18480, Note_on_c, 1, 55, 78
6, 18539, Note_on_c, 1, 55, 0
6, 18540, Note_on_c, 1, 60, 78
6, 18659, Note_on_c, 1, 60, 0
6, 18660, Note_on_c, 1, 59, 78
6, 18719, Note_on_c, 1, 59, 0
6, 18720, Note_on_c, 1, 60, 78
6, 18809, Note_on_c, 1, 60, 0
6, 18960, Note_on_c, 1, 60, 78
6, 19079, Note_on_c, 1, 60, 0
6, 19080, Note_on_c, 1, 59, 78
6, 19319, Note_on_c, 1, 59, 0
6, 19320, Note_on_c, 1, 57, 78
6, 19469, Note_on_c, 1, 57, 0
6, 19500, Note_on_c, 1, 57, 78
6, 19559, Note_on_c, 1, 57, 0
6, 19560, Note_on_c, 1, 55, 78
6, 19799, Note_on_c, 1, 55, 0
6, 19800, Note_on_c, 1, 53, 90
6, 20039, Note_on_c, 1, 53, 0
6, 20040, Note_on_c, 1, 52, 90
6, 20129, Note_on_c, 1, 52, 0
6, 20160, Note_on_c, 1, 53, 78
6, 20219, Note_on_c, 1, 53, 0
6, 20220, Note_on_c, 1, 55, 68
6, 20279, Note_on_c, 1, 55, 0
6, 20280, Note_on_c, 1, 57, 78
6, 20339, Note_on_c, 1, 57, 0
6, 20340, Note_on_c, 1, 59, 68
6, 20399, Note_on_c, 1, 59, 0
6, 20400, Note_on_c, 1, 60, 68
6, 20459, Note_on_c, 1, 60, 0
6, 20460, Note_on_c, 1, 62, 68
6, 20519, Note_on_c, 1, 62, 0
6, 20520, Note_on_c, 1, 64, 58
6, 20579, Note_on_c, 1, 64, 0
6, 20580, Note_on_c, 1, 60, 68
6, 20639, Note_on_c, 1, 60, 0
6, 20640, Note_on_c, 1, 62, 58
6, 20699, Note_on_c, 1, 62, 0
6, 20700, Note_on_c, 1, 55, 78
6, 20759, Note_on_c, 1, 55, 0
6, 20760, Note_on_c, 1, 60, 68
6, 20939, Note_on_c, 1, 60, 0
6, 20940, Note_on_c, 1, 58, 78
6, 20999, Note_on_c, 1, 58, 0
6, 21000, Note_on_c, 1, 57, 78
6, 21029, Note_on_c, 1, 57, 0
6, 21060, Note_on_c, 1, 57, 58
6, 21119, Note_on_c, 1, 57, 0
6, 21120, Note_on_c, 1, 57, 50
6, 21209, Note_on_c, 1, 57, 0
6, 21210, Note_on_c, 1, 55, 58
6, 21239, Note_on_c, 1, 55, 0
6, 21240, Note_on_c, 1, 53, 78
6, 21299, Note_on_c, 1, 53, 0
6, 21300, Note_on_c, 1, 65, 68
6, 21359, Note_on_c, 1, 65, 0
6, 21360, Note_on_c, 1, 64, 68
6, 21419, Note_on_c, 1, 64, 0
6, 21420, Note_on_c, 1, 62, 78
6, 21479, Note_on_c, 1, 62, 0
6, 21480, Note_on_c, 1, 60, 68
6, 21539, Note_on_c, 1, 60, 0
6, 21540, Note_on_c, 1, 55, 68
6, 21569, Note_on_c, 1, 55, 0
6, 21600, Note_on_c, 1, 55, 90
6, 21689, Note_on_c, 1, 55, 0
6, 21690, Note_on_c, 1, 59, 68
6, 21719, Note_on_c, 1, 59, 0
6, 21720, Note_on_c, 1, 60, 78
6, 21839, Note_on_c, 1, 60, 0
6, 21900, Note_on_c, 1, 60, 78
6, 21959, Note_on_c, 1, 60, 0
6, 21960, Note_on_c, 1, 57, 78
6, 22019, Note_on_c, 1, 57, 0
6, 22020, Note_on_c, 1, 55, 58
6, 22049, Note_on_c, 1, 55, 0
6, 22080, Note_on_c, 1, 53, 78
6, 22139, Note_on_c, 1, 53, 0
6, 22140, Note_on_c, 1, 57, 58
6, 22199, Note_on_c, 1, 57, 0
6, 22200, Note_on_c, 1, 62, 78
6, 22260, Note_on_c, 1, 64, 58
6, 22289, Note_on_c, 1, 62, 0
6, 22319, Note_on_c, 1, 64, 0
6, 22320, Note_on_c, 1, 65, 78
6, 22439, Note_on_c, 1, 65, 0
6, 22440, Note_on_c, 1, 59, 78
6, 22499, Note_on_c, 1, 59, 0
6, 22500, Note_on_c, 1, 60, 68
6, 22559, Note_on_c, 1, 60, 0
6, 22560, Note_on_c, 1, 62, 90
6, 22769, Note_on_c, 1, 62, 0
6, 22800, Note_on_c, 1, 62, 90
6, 22949, Note_on_c, 1, 62, 0
6, 22980, Note_on_c, 1, 62, 78
6, 23039, Note_on_c, 1, 62, 0
6, 23040, Note_on_c, 1, 64, 78
6, 23159, Note_on_c, 1, 64, 0
6, 23160, Note_on_c, 1, 65, 78
6, 23189, Note_on_c, 1, 65, 0
6, 23220, Note_on_c, 1, 65, 78
6, 23279, Note_on_c, 1, 65, 0
6, 23280, Note_on_c, 1, 64, 78
6, 23399, Note_on_c, 1, 64, 0
6, 23400, Note_on_c, 1, 62, 78
6, 23519, Note_on_c, 1, 62, 0
6, 23520, Note_on_c, 1, 60, 90
6, 23609, Note_on_c, 1, 60, 0
6, 24900, Note_on_c, 1, 60, 68
6, 24959, Note_on_c, 1, 60, 0
6, 24960, Note_on_c, 1, 65, 68
6, 25019, Note_on_c, 1, 65, 0
6, 25020, Note_on_c, 1, 64, 68
6, 25079, Note_on_c, 1, 64, 0
6, 25080, Note_on_c, 1, 62, 78
6, 25139, Note_on_c, 1, 62, 0
6, 25140, Note_on_c, 1, 60, 68
6, 25199, Note_on_c, 1, 60, 0
6, 25200, Note_on_c, 1, 59, 78
6, 25379, Note_on_c, 1, 59, 0
6, 25380, Note_on_c, 1, 62, 68
6, 25409, Note_on_c, 1, 62, 0
6, 25410, Note_on_c, 1, 59, 78
6, 25439, Note_on_c, 1, 59, 0
6, 25440, Note_on_c, 1, 64, 68
6, 25499, Note_on_c, 1, 64, 0
6, 25500, Note_on_c, 1, 62, 78
6, 25559, Note_on_c, 1, 62, 0
6, 25560, Note_on_c, 1, 60, 68
6, 25619, Note_on_c, 1, 60, 0
6, 25620, Note_on_c, 1, 59, 78
6, 25679, Note_on_c, 1, 59, 0
6, 25680, Note_on_c, 1, 57, 78
6, 26039, Note_on_c, 1, 57, 0
6, 26040, Note_on_c, 1, 59, 78
6, 26099, Note_on_c, 1, 59, 0
6, 26100, Note_on_c, 1, 60, 68
6, 26159, Note_on_c, 1, 60, 0
6, 26160, Note_on_c, 1, 62, 78
6, 26279, Note_on_c, 1, 62, 0
6, 26280, Note_on_c, 1, 62, 78
6, 26309, Note_on_c, 1, 62, 0
6, 26340, Note_on_c, 1, 62, 78
6, 26399, Note_on_c, 1, 62, 0
6, 26400, Note_on_c, 1, 60, 78
6, 26489, Note_on_c, 1, 60, 0
6, 26520, Note_on_c, 1, 60, 90
6, 26549, Note_on_c, 1, 60, 0
6, 26580, Note_on_c, 1, 60, 78
6, 26609, Note_on_c, 1, 60, 0
6, 26640, Note_on_c, 1, 60, 90
6, 26759, Note_on_c, 1, 60, 0
6, 26760, Note_on_c, 1, 59, 90
6, 26879, Note_on_c, 1, 59, 0
6, 26880, Note_on_c, 1, 60, 90
6, 26999, Note_on_c, 1, 60, 0
6, 30780, Note_on_c, 1, 63, 90
6, 30899, Note_on_c, 1, 63, 0
6, 30900, Note_on_c, 1, 63, 90
6, 30959, Note_on_c, 1, 63, 0
6, 30960, Note_on_c, 1, 63, 90
6, 31199, Note_on_c, 1, 63, 0
6, 31200, Note_on_c, 1, 61, 78
6, 31259, Note_on_c, 1, 61, 0
6, 31260, Note_on_c, 1, 61, 90
6, 31289, Note_on_c, 1, 61, 0
6, 31290, Note_on_c, 1, 61, 78
6, 31319, Note_on_c, 1, 61, 0
6, 31320, Note_on_c, 1, 61, 90
6, 31379, Note_on_c, 1, 61, 0
6, 31380, Note_on_c, 1, 61, 90
6, 31439, Note_on_c, 1, 61, 0
6, 31440, Note_on_c, 1, 61, 90
6, 31679, Note_on_c, 1, 61, 0
6, 31680, Note_on_c, 1, 60, 68
6, 31739, Note_on_c, 1, 60, 0
6, 31740, Note_on_c, 1, 63, 90
6, 31799, Note_on_c, 1, 63, 0
6, 31800, Note_on_c, 1, 63, 90
6, 31829, Note_on_c, 1, 63, 0
6, 31845, Note_on_c, 1, 63, 90
6, 31859, Note_on_c, 1, 63, 0
6, 31860, Note_on_c, 1, 63, 90
6, 31889, Note_on_c, 1, 63, 0
6, 31890, Note_on_c, 1, 60, 78
6, 31904, Note_on_c, 1, 60, 0
6, 31920, Note_on_c, 1, 60, 90
6, 32159, Note_on_c, 1, 60, 0
6, 32160, Note_on_c, 1, 62, 78
6, 32279, Note_on_c, 1, 62, 0
6, 32400, Note_on_c, 1, 55, 42
6, 32459, Note_on_c, 1, 55, 0
6, 32460, Note_on_c, 1, 60, 42
6, 32519, Note_on_c, 1, 60, 0
6, 32640, Note_on_c, 1, 55, 35
6, 32699, Note_on_c, 1, 55, 0
6, 32700, Note_on_c, 1, 62, 42
6, 32759, Note_on_c, 1, 62, 0
6, 32880, Note_on_c, 1, 55, 42
6, 32999, Note_on_c, 1, 55, 0
6, 33000, Note_on_c, 1, 61, 50
6, 33119, Note_on_c, 1, 61, 0
6, 33120, Note_on_c, 1, 60, 68
6, 33239, Note_on_c, 1, 60, 0
6, 33240, Note_on_c, 1, 60, 78
6, 33359, Note_on_c, 1, 60, 0
6, 33360, Note_on_c, 1, 60, 90
6, 33539, Note_on_c, 1, 60, 0
6, 33540, Note_on_c, 1, 59, 78
6, 33599, Note_on_c, 1, 59, 0
6, 33600, Note_on_c, 1, 60, 78
6, 33629, Note_on_c, 1, 60, 0
6, 33720, Note_on_c, 1, 60, 24
6, 33749, Note_on_c, 1, 60, 0
6, 33840, Note_on_c, 1, 60, 29
6, 33899, Note_on_c, 1, 60, 0
6, 33960, Note_on_c, 1, 59, 24
6, 33989, Note_on_c, 1, 59, 0
6, 34080, Note_on_c, 1, 60, 42
6, 34199, Note_on_c, 1, 60, 0
6, 34380, Note_on_c, 1, 60, 78
6, 34409, Note_on_c, 1, 60, 0
6, 34440, Note_on_c, 1, 60, 68
6, 34469, Note_on_c, 1, 60, 0
6, 34500, Note_on_c, 1, 60, 78
6, 34529, Note_on_c, 1, 60, 0
6, 34560, Note_on_c, 1, 60, 78
6, 34679, Note_on_c, 1, 60, 0
6, 34680, Note_on_c, 1, 60, 90
6, 34769, Note_on_c, 1, 60, 0
6, 34800, Note_on_c, 1, 60, 90
6, 34889, Note_on_c, 1, 60, 0
6, 34890, Note_on_c, 1, 60, 78
6, 34919, Note_on_c, 1, 60, 0
6, 34920, Note_on_c, 1, 60, 90
6, 35009, Note_on_c, 1, 60, 0
6, 35040, Note_on_c, 1, 60, 90
6, 35129, Note_on_c, 1, 60, 0
6, 35160, Note_on_c, 1, 60, 90
6, 35189, Note_on_c, 1, 60, 0
6, 35220, Note_on_c, 1, 60, 90
6, 35249, Note_on_c, 1, 60, 0
6, 35280, Note_on_c, 1, 60, 90
6, 35399, Note_on_c, 1, 60, 0
6, 35400, Note_on_c, 1, 58, 90
6, 35459, Note_on_c, 1, 58, 0
6, 35460, Note_on_c, 1, 57, 78
6, 35519, Note_on_c, 1, 57, 0
6, 35520, Note_on_c, 1, 55, 90
6, 35639, Note_on_c, 1, 55, 0
6, 35640, Note_on_c, 1, 53, 90
6, 35669, Note_on_c, 1, 53, 0
6, 35700, Note_on_c, 1, 53, 90
6, 35759, Note_on_c, 1, 53, 0
6, 35760, Note_on_c, 1, 55, 78
6, 35819, Note_on_c, 1, 55, 0
6, 35820, Note_on_c, 1, 60, 78
6, 35939, Note_on_c, 1, 60, 0
6, 35940, Note_on_c, 1, 59, 78
6, 35999, Note_on_c, 1, 59, 0
6, 36000, Note_on_c, 1, 60, 78
6, 36119, Note_on_c, 1, 60, 0
6, 36300, Note_on_c, 1, 65, 78
6, 36359, Note_on_c, 1, 65, 0
6, 36360, Note_on_c, 1, 64, 68
6, 36599, Note_on_c, 1, 64, 0
6, 36600, Note_on_c, 1, 57, 78
6, 36689, Note_on_c, 1, 57, 0
6, 36780, Note_on_c, 1, 64, 68
6, 36839, Note_on_c, 1, 64, 0
6, 36840, Note_on_c, 1, 62, 78
6, 37079, Note_on_c, 1, 62, 0
6, 37080, Note_on_c, 1, 55, 78
6, 37199, Note_on_c, 1, 55, 0
6, 37320, Note_on_c, 1, 64, 78
6, 37379, Note_on_c, 1, 64, 0
6, 37380, Note_on_c, 1, 62, 78
6, 37439, Note_on_c, 1, 62, 0
6, 37440, Note_on_c, 1, 60, 78
6, 37499, Note_on_c, 1, 60, 0
6, 37500, Note_on_c, 1, 64, 68
6, 37559, Note_on_c, 1, 64, 0
6, 37560, Note_on_c, 1, 57, 78
6, 37619, Note_on_c, 1, 57, 0
6, 37620, Note_on_c, 1, 59, 78
6, 37679, Note_on_c, 1, 59, 0
6, 37680, Note_on_c, 1, 60, 68
6, 37799, Note_on_c, 1, 60, 0
6, 37800, Note_on_c, 1, 54, 90
6, 37859, Note_on_c, 1, 54, 0
6, 37860, Note_on_c, 1, 55, 78
6, 37919, Note_on_c, 1, 55, 0
6, 37920, Note_on_c, 1, 57, 78
6, 38159, Note_on_c, 1, 57, 0
6, 38160, Note_on_c, 1, 57, 68
6, 38279, Note_on_c, 1, 57, 0
6, 38280, Note_on_c, 1, 62, 78
6, 38369, Note_on_c, 1, 62, 0
6, 38400, Note_on_c, 1, 62, 90
6, 38519, Note_on_c, 1, 62, 0
6, 38520, Note_on_c, 1, 64, 68
6, 38579, Note_on_c, 1, 64, 0
6, 38580, Note_on_c, 1, 64, 68
6, 38639, Note_on_c, 1, 64, 0
6, 38640, Note_on_c, 1, 62, 78
6, 38849, Note_on_c, 1, 62, 0
6, 38880, Note_on_c, 1, 62, 90
6, 38999, Note_on_c, 1, 62, 0
6, 39300, Note_on_c, 1, 55, 68
6, 39329, Note_on_c, 1, 55, 0
6, 39360, Note_on_c, 1, 55, 90
6, 39509, Note_on_c, 1, 55, 0
6, 39540, Note_on_c, 1, 55, 78
6, 39569, Note_on_c, 1, 55, 0
6, 39600, Note_on_c, 1, 55, 78
6, 39689, Note_on_c, 1, 55, 0
6, 39720, Note_on_c, 1, 55, 78
6, 39809, Note_on_c, 1, 55, 0
6, 39840, Note_on_c, 1, 65, 58
6, 39899, Note_on_c, 1, 65, 0
6, 39900, Note_on_c, 1, 64, 78
6, 39959, Note_on_c, 1, 64, 0
6, 39960, Note_on_c, 1, 62, 78
6, 40019, Note_on_c, 1, 62, 0
6, 40020, Note_on_c, 1, 60, 78
6, 40079, Note_on_c, 1, 60, 0
6, 40080, Note_on_c, 1, 59, 78
6, 40139, Note_on_c, 1, 59, 0
6, 40140, Note_on_c, 1, 57, 78
6, 40199, Note_on_c, 1, 57, 0
6, 40200, Note_on_c, 1, 55, 78
6, 40259, Note_on_c, 1, 55, 0
6, 40260, Note_on_c, 1, 53, 78
6, 40319, Note_on_c, 1, 53, 0
6, 40320, Note_on_c, 1, 52, 78
6, 40469, Note_on_c, 1, 52, 0
6, 40500, Note_on_c, 1, 52, 78
6, 40529, Note_on_c, 1, 52, 0
6, 40560, Note_on_c, 1, 52, 68
6, 40679, Note_on_c, 1, 52, 0
6, 40680, Note_on_c, 1, 64, 68
6, 40769, Note_on_c, 1, 64, 0
6, 40800, Note_on_c, 1, 65, 104
6, 40859, Note_on_c, 1, 65, 0
6, 40890, Note_on_c, 1, 65, 50
6, 40919, Note_on_c, 1, 65, 0
6, 40920, Note_on_c, 1, 65, 68
6, 41009, Note_on_c, 1, 65, 0
6, 41040, Note_on_c, 1, 65, 42
6, 41129, Note_on_c, 1, 65, 0
6, 41160, Note_on_c, 1, 65, 58
6, 41249, Note_on_c, 1, 65, 0
6, 41280, Note_on_c, 1, 64, 104
6, 41369, Note_on_c, 1, 64, 0
6, 41400, Note_on_c, 1, 64, 42
6, 41489, Note_on_c, 1, 64, 0
6, 41520, Note_on_c, 1, 64, 35
6, 41609, Note_on_c, 1, 64, 0
6, 41640, Note_on_c, 1, 64, 35
6, 41759, Note_on_c, 1, 64, 0
6, 41760, Note_on_c, 1, 62, 104
6, 41999, Note_on_c, 1, 62, 0
6, 42000, Note_on_c, 1, 60, 78
6, 42209, Note_on_c, 1, 60, 0
6, 42240, Note_on_c, 1, 59, 90
6, 42359, Note_on_c, 1, 59, 0
6, 42360, Note_on_c, 1, 60, 78
6, 42419, Note_on_c, 1, 60, 0
6, 42420, Note_on_c, 1, 56, 90
6, 42479, Note_on_c, 1, 56, 0
6, 42480, Note_on_c, 1, 57, 68
6, 42659, Note_on_c, 1, 57, 0
6, 42660, Note_on_c, 1, 57, 90
6, 42719, Note_on_c, 1, 57, 0
6, 42720, Note_on_c, 1, 56, 90
6, 42839, Note_on_c, 1, 56, 0
6, 43020, Note_on_c, 1, 56, 90
6, 43079, Note_on_c, 1, 56, 0
6, 43080, Note_on_c, 1, 57, 68
6, 43139, Note_on_c, 1, 57, 0
6, 43140, Note_on_c, 1, 59, 78
6, 43200, Note_on_c, 1, 60, 68
6, 43229, Note_on_c, 1, 59, 0
6, 43259, Note_on_c, 1, 60, 0
6, 43260, Note_on_c, 1, 64, 78
6, 43319, Note_on_c, 1, 64, 0
6, 43320, Note_on_c, 1, 62, 68
6, 43379, Note_on_c, 1, 62, 0
6, 43380, Note_on_c, 1, 60, 68
6, 43439, Note_on_c, 1, 60, 0
6, 43440, Note_on_c, 1, 59, 68
6, 43499, Note_on_c, 1, 59, 0
6, 43500, Note_on_c, 1, 56, 78
6, 43559, Note_on_c, 1, 56, 0
6, 43560, Note_on_c, 1, 57, 78
6, 43619, Note_on_c, 1, 57, 0
6, 43620, Note_on_c, 1, 59, 68
6, 43679, Note_on_c, 1, 59, 0
6, 43680, Note_on_c, 1, 60, 78
6, 43799, Note_on_c, 1, 60, 0
6, 43800, Note_on_c, 1, 59, 78
6, 43919, Note_on_c, 1, 59, 0
6, 43920, Note_on_c, 1, 60, 78
6, 44039, Note_on_c, 1, 60, 0
6, 44280, Note_on_c, 1, 52, 90
6, 44399, Note_on_c, 1, 52, 0
6, 44400, Note_on_c, 1, 57, 78
6, 44429, Note_on_c, 1, 57, 0
6, 44460, Note_on_c, 1, 57, 68
6, 44519, Note_on_c, 1, 57, 0
6, 44520, Note_on_c, 1, 64, 78
6, 44759, Note_on_c, 1, 64, 0
6, 44760, Note_on_c, 1, 62, 78
6, 44879, Note_on_c, 1, 62, 0
6, 44880, Note_on_c, 1, 60, 78
6, 44999, Note_on_c, 1, 60, 0
6, 45000, Note_on_c, 1, 59, 90
6, 45119, Note_on_c, 1, 59, 0
6, 45120, Note_on_c, 1, 57, 78
6, 45239, Note_on_c, 1, 57, 0
6, 54300, Note_on_c, 1, 60, 90
6, 54329, Note_on_c, 1, 60, 0
6, 54360, Note_on_c, 1, 60, 90
6, 54389, Note_on_c, 1, 60, 0
6, 54420, Note_on_c, 1, 60, 90
6, 54449, Note_on_c, 1, 60, 0
6, 54480, Note_on_c, 1, 60, 78
6, 54809, Note_on_c, 1, 60, 0
6, 54840, Note_on_c, 1, 60, 78
6, 54869, Note_on_c, 1, 60, 0
6, 54900, Note_on_c, 1, 60, 78
6, 54929, Note_on_c, 1, 60, 0
6, 54960, Note_on_c, 1, 60, 90
6, 55289, Note_on_c, 1, 60, 0
6, 55290, Note_on_c, 1, 60, 78
6, 55319, Note_on_c, 1, 60, 0
6, 55320, Note_on_c, 1, 60, 90
6, 55349, Note_on_c, 1, 60, 0
6, 55380, Note_on_c, 1, 60, 78
6, 55439, Note_on_c, 1, 60, 0
6, 55440, Note_on_c, 1, 55, 78
6, 55499, Note_on_c, 1, 55, 0
6, 55500, Note_on_c, 1, 57, 78
6, 55559, Note_on_c, 1, 57, 0
6, 55560, Note_on_c, 1, 58, 78
6, 55619, Note_on_c, 1, 58, 0
6, 55620, Note_on_c, 1, 57, 78
6, 55679, Note_on_c, 1, 57, 0
6, 55680, Note_on_c, 1, 55, 90
6, 55739, Note_on_c, 1, 55, 0
6, 55770, Note_on_c, 1, 55, 78
6, 55799, Note_on_c, 1, 55, 0
6, 55800, Note_on_c, 1, 53, 90
6, 55829, Note_on_c, 1, 53, 0
6, 55860, Note_on_c, 1, 53, 90
6, 55919, Note_on_c, 1, 53, 0
6, 55920, Note_on_c, 1, 55, 78
6, 55949, Note_on_c, 1, 55, 0
6, 55980, Note_on_c, 1, 60, 78
6, 56099, Note_on_c, 1, 60, 0
6, 56100, Note_on_c, 1, 59, 78
6, 56159, Note_on_c, 1, 59, 0
6, 56160, Note_on_c, 1, 60, 78
6, 56249, Note_on_c, 1, 60, 0
6, 56280, Note_on_c, 1, 60, 78
6, 56519, Note_on_c, 1, 60, 0
6, 56520, Note_on_c, 1, 59, 78
6, 56699, Note_on_c, 1, 59, 0
6, 56730, Note_on_c, 1, 59, 78
6, 56759, Note_on_c, 1, 59, 0
6, 56760, Note_on_c, 1, 57, 78
6, 56789, Note_on_c, 1, 57, 0
6, 56820, Note_on_c, 1, 57, 78
6, 56849, Note_on_c, 1, 57, 0
6, 56880, Note_on_c, 1, 57, 78
6, 56909, Note_on_c, 1, 57, 0
6, 56940, Note_on_c, 1, 57, 78
6, 56999, Note_on_c, 1, 57, 0
6, 57000, Note_on_c, 1, 55, 78
6, 57239, Note_on_c, 1, 55, 0
6, 57240, Note_on_c, 1, 53, 90
6, 57329, Note_on_c, 1, 53, 0
6, 57360, Note_on_c, 1, 53, 90
6, 57419, Note_on_c, 1, 53, 0
6, 57450, Note_on_c, 1, 53, 78
6, 57479, Note_on_c, 1, 53, 0
6, 57480, Note_on_c, 1, 52, 90
6, 57509, Note_on_c, 1, 52, 0
6, 57540, Note_on_c, 1, 52, 68
6, 57569, Note_on_c, 1, 52, 0
6, 57600, Note_on_c, 1, 53, 90
6, 57659, Note_on_c, 1, 53, 0
6, 57660, Note_on_c, 1, 55, 78
6, 57719, Note_on_c, 1, 55, 0
6, 57720, Note_on_c, 1, 57, 78
6, 57779, Note_on_c, 1, 57, 0
6, 57780, Note_on_c, 1, 59, 78
6, 57839, Note_on_c, 1, 59, 0
6, 57840, Note_on_c, 1, 60, 68
6, 57899, Note_on_c, 1, 60, 0
6, 57900, Note_on_c, 1, 62, 78
6, 57959, Note_on_c, 1, 62, 0
6, 57960, Note_on_c, 1, 64, 78
6, 58019, Note_on_c, 1, 64, 0
6, 58020, Note_on_c, 1, 60, 68
6, 58079, Note_on_c, 1, 60, 0
6, 58080, Note_on_c, 1, 62, 90
6, 58199, Note_on_c, 1, 62, 0
6, 58200, Note_on_c, 1, 59, 90
6, 58319, Note_on_c, 1, 59, 0
6, 58320, Note_on_c, 1, 59, 50
6, 58409, Note_on_c, 1, 59, 0
6, 58440, Note_on_c, 1, 59, 90
6, 58529, Note_on_c, 1, 59, 0
6, 58560, Note_on_c, 1, 60, 90
6, 58679, Note_on_c, 1, 60, 0
6, 58680, Note_on_c, 1, 60, 42
6, 58769, Note_on_c, 1, 60, 0
6, 58800, Note_on_c, 1, 60, 42
6, 58889, Note_on_c, 1, 60, 0
6, 58890, Note_on_c, 1, 60, 19
6, 58919, Note_on_c, 1, 60, 0
6, 58920, Note_on_c, 1, 60, 42
6, 58949, Note_on_c, 1, 60, 0
6, 58980, Note_on_c, 1, 60, 35
6, 59009, Note_on_c, 1, 60, 0
6, 59040, Note_on_c, 1, 58, 90
6, 59129, Note_on_c, 1, 58, 0
6, 59160, Note_on_c, 1, 58, 58
6, 59249, Note_on_c, 1, 58, 0
6, 59280, Note_on_c, 1, 58, 50
6, 59339, Note_on_c, 1, 58, 0
6, 59370, Note_on_c, 1, 58, 58
6, 59399, Note_on_c, 1, 58, 0
6, 59400, Note_on_c, 1, 58, 58
6, 59429, Note_on_c, 1, 58, 0
6, 59460, Note_on_c, 1, 58, 35
6, 59489, Note_on_c, 1, 58, 0
6, 59520, Note_on_c, 1, 56, 90
6, 59729, Note_on_c, 1, 56, 0
6, 59760, Note_on_c, 1, 55, 90
6, 59969, Note_on_c, 1, 55, 0
6, 60000, Note_on_c, 1, 53, 90
6, 60239, Note_on_c, 1, 53, 0
6, 60240, Note_on_c, 1, 51, 78
6, 60449, Note_on_c, 1, 51, 0
6, 60480, Note_on_c, 1, 50, 78
6, 60719, Note_on_c, 1, 50, 0
6, 60720, Note_on_c, 1, 48, 68
6, 60959, Note_on_c, 1, 48, 0
6, 60960, Note_on_c, 1, 47, 19
6, 61049, Note_on_c, 1, 47, 0
6, 61260, Note_on_c, 1, 59, 50
6, 61319, Note_on_c, 1, 59, 0
6, 61320, Note_on_c, 1, 60, 78
6, 61379, Note_on_c, 1, 60, 0
6, 61380, Note_on_c, 1, 62, 78
6, 61439, Note_on_c, 1, 62, 0
6, 61440, Note_on_c, 1, 64, 68
6, 61499, Note_on_c, 1, 64, 0
6, 61500, Note_on_c, 1, 67, 78
6, 61559, Note_on_c, 1, 67, 0
6, 61560, Note_on_c, 1, 65, 58
6, 61619, Note_on_c, 1, 65, 0
6, 61620, Note_on_c, 1, 64, 78
6, 61679, Note_on_c, 1, 64, 0
6, 61680, Note_on_c, 1, 62, 78
6, 61739, Note_on_c, 1, 62, 0
6, 61740, Note_on_c, 1, 59, 78
6, 61799, Note_on_c, 1, 59, 0
6, 61800, Note_on_c, 1, 60, 68
6, 61859, Note_on_c, 1, 60, 0
6, 61860, Note_on_c, 1, 62, 58
6, 61919, Note_on_c, 1, 62, 0
6, 61920, Note_on_c, 1, 64, 78
6, 61950, Note_on_c, 1, 64, 78
6, 61979, Note_on_c, 1, 64, 0
6, 62009, Note_on_c, 1, 64, 0
6, 62040, Note_on_c, 1, 62, 58
6, 62159, Note_on_c, 1, 62, 0
6, 62160, Note_on_c, 1, 64, 90
6, 62279, Note_on_c, 1, 64, 0
6, 62280, Note_on_c, 1, 65, 90
6, 62399, Note_on_c, 1, 65, 0
6, 62400, Note_on_c, 1, 62, 90
6, 62519, Note_on_c, 1, 62, 0
6, 62520, Note_on_c, 1, 64, 78
6, 62639, Note_on_c, 1, 64, 0
6, 62640, Note_on_c, 1, 60, 90
6, 62759, Note_on_c, 1, 60, 0
6, 62760, Note_on_c, 1, 62, 90
6, 62879, Note_on_c, 1, 62, 0
6, 62880, Note_on_c, 1, 59, 78
6, 62969, Note_on_c, 1, 59, 0
6, 63000, Note_on_c, 1, 60, 78
6, 63119, Note_on_c, 1, 60, 0
6, 63120, Note_on_c, 1, 62, 90
6, 63359, Note_on_c, 1, 62, 0
6, 63360, Note_on_c, 1, 60, 90
6, 63479, Note_on_c, 1, 60, 0
6, 63480, Note_on_c, 1, 60, 90
6, 63569, Note_on_c, 1, 60, 0
6, 63600, Note_on_c, 1, 60, 78
6, 63719, Note_on_c, 1, 60, 0
6, 63720, Note_on_c, 1, 59, 90
6, 63839, Note_on_c, 1, 59, 0
6, 63840, Note_on_c, 1, 60, 90
6, 63929, Note_on_c, 1, 60, 0
6, 65220, Note_on_c, 1, 60, 78
6, 65279, Note_on_c, 1, 60, 0
6, 65280, Note_on_c, 1, 65, 78
6, 65339, Note_on_c, 1, 65, 0
6, 65340, Note_on_c, 1, 64, 78
6, 65399, Note_on_c, 1, 64, 0
6, 65400, Note_on_c, 1, 62, 68
6, 65459, Note_on_c, 1, 62, 0
6, 65460, Note_on_c, 1, 60, 68
6, 65519, Note_on_c, 1, 60, 0
6, 65520, Note_on_c, 1, 59, 90
6, 65699, Note_on_c, 1, 59, 0
6, 65700, Note_on_c, 1, 62, 78
6, 65729, Note_on_c, 1, 62, 0
6, 65730, Note_on_c, 1, 59, 90
6, 65759, Note_on_c, 1, 59, 0
6, 65760, Note_on_c, 1, 64, 78
6, 65819, Note_on_c, 1, 64, 0
6, 65820, Note_on_c, 1, 62, 78
6, 65879, Note_on_c, 1, 62, 0
6, 65880, Note_on_c, 1, 60, 78
6, 65939, Note_on_c, 1, 60, 0
6, 65940, Note_on_c, 1, 59, 68
6, 65999, Note_on_c, 1, 59, 0
6, 66000, Note_on_c, 1, 57, 90
6, 66359, Note_on_c, 1, 57, 0
6, 66360, Note_on_c, 1, 59, 78
6, 66419, Note_on_c, 1, 59, 0
6, 66420, Note_on_c, 1, 60, 78
6, 66479, Note_on_c, 1, 60, 0
6, 66480, Note_on_c, 1, 62, 68
6, 66659, Note_on_c, 1, 62, 0
6, 66660, Note_on_c, 1, 62, 78
6, 66689, Note_on_c, 1, 62, 0
6, 66720, Note_on_c, 1, 60, 90
6, 66869, Note_on_c, 1, 60, 0
6, 66900, Note_on_c, 1, 62, 78
6, 66959, Note_on_c, 1, 62, 0
6, 66960, Note_on_c, 1, 64, 90
6, 67079, Note_on_c, 1, 64, 0
6, 67080, Note_on_c, 1, 62, 90
6, 67199, Note_on_c, 1, 62, 0
6, 67200, Note_on_c, 1, 60, 90
6, 67289, Note_on_c, 1, 60, 0
6, 67680, Note_on_c, 1, 62, 90
6, 67769, Note_on_c, 1, 62, 0
6, 67800, Note_on_c, 1, 60, 90
6, 67889, Note_on_c, 1, 60, 0
6, 67920, Note_on_c, 1, 60, 90
6, 68039, Note_on_c, 1, 60, 0
6, 68040, Note_on_c, 1, 59, 90
6, 68159, Note_on_c, 1, 59, 0
6, 68160, Note_on_c, 1, 60, 90
6, 68219, Note_on_c, 1, 60, 0
6, 68640, Note_on_c, 1, 62, 90
6, 68729, Note_on_c, 1, 62, 0
6, 68760, Note_on_c, 1, 60, 90
6, 68849, Note_on_c, 1, 60, 0
6, 68880, Note_on_c, 1, 60, 78
6, 68999, Note_on_c, 1, 60, 0
6, 69000, Note_on_c, 1, 59, 90
6, 69119, Note_on_c, 1, 59, 0
6, 69120, Note_on_c, 1, 60, 90
6, 69209, Note_on_c, 1, 60, 0
6, 70080, Note_on_c, 1, 60, 90
6, 70409, Note_on_c, 1, 60, 0
6, 70440, Note_on_c, 1, 60, 90
6, 70469, Note_on_c, 1, 60, 0
6, 70500, Note_on_c, 1, 60, 78
6, 70529, Note_on_c, 1, 60, 0
6, 70560, Note_on_c, 1, 60, 90
6, 70649, Note_on_c, 1, 60, 0
6, 70680, Note_on_c, 1, 60, 90
6, 70769, Note_on_c, 1, 60, 0
6, 70800, Note_on_c, 1, 60, 90
6, 70919, Note_on_c, 1, 60, 0
6, 70920, Note_on_c, 1, 59, 78
6, 71039, Note_on_c, 1, 59, 0
6, 71040, Note_on_c, 1, 60, 90
6, 71129, Note_on_c, 1, 60, 0
6, 71400, Note_on_c, 1, 59, 90
6, 71519, Note_on_c, 1, 59, 0
6, 71520, Note_on_c, 1, 60, 78
6, 71639, Note_on_c, 1, 60, 0
6, 71880, Note_on_c, 1, 59, 90
6, 71999, Note_on_c, 1, 59, 0
6, 72000, Note_on_c, 1, 60, 90
6, 72119, Note_on_c, 1, 60, 0
6, 72119, End_track
7, 0, Start_track
7, 0, MIDI_port, 0
7, 0, Title_t, "bass"
7, 1920, Note_on_c, 1, 48, 90
7, 2009, Note_on_c, 1, 48, 0
7, 2040, Note_on_c, 1, 48, 90
7, 2099, Note_on_c, 1, 48, 0
7, 2130, Note_on_c, 1, 48, 90
7, 2159, Note_on_c, 1, 48, 0
7, 2160, Note_on_c, 1, 48, 90
7, 2249, Note_on_c, 1, 48, 0
7, 2280, Note_on_c, 1, 48, 90
7, 2369, Note_on_c, 1, 48, 0
7, 2400, Note_on_c, 1, 48, 90
7, 2489, Note_on_c, 1, 48, 0
7, 2520, Note_on_c, 1, 48, 90
7, 2609, Note_on_c, 1, 48, 0
7, 2610, Note_on_c, 1, 48, 78
7, 2639, Note_on_c, 1, 48, 0
7, 2640, Note_on_c, 1, 48, 90
7, 2729, Note_on_c, 1, 48, 0
7, 2760, Note_on_c, 1, 48, 90
7, 2849, Note_on_c, 1, 48, 0
7, 2880, Note_on_c, 1, 48, 90
7, 2969, Note_on_c, 1, 48, 0
7, 3000, Note_on_c, 1, 48, 78
7, 3089, Note_on_c, 1, 48, 0
7, 3120, Note_on_c, 1, 58, 90
7, 3179, Note_on_c, 1, 58, 0
7, 3180, Note_on_c, 1, 57, 90
7, 3239, Note_on_c, 1, 57, 0
7, 3240, Note_on_c, 1, 55, 78
7, 3299, Note_on_c, 1, 55, 0
7, 3300, Note_on_c, 1, 53, 78
7, 3329, Note_on_c, 1, 53, 0
7, 3360, Note_on_c, 1, 52, 68
7, 3479, Note_on_c, 1, 52, 0
7, 3480, Note_on_c, 1, 53, 78
7, 3599, Note_on_c, 1, 53, 0
7, 3600, Note_on_c, 1, 52, 78
7, 3659, Note_on_c, 1, 52, 0
7, 3660, Note_on_c, 1, 48, 58
7, 3719, Note_on_c, 1, 48, 0
7, 3720, Note_on_c, 1, 50, 78
7, 3779, Note_on_c, 1, 50, 0
7, 3780, Note_on_c, 1, 55, 78
7, 3839, Note_on_c, 1, 55, 0
7, 3840, Note_on_c, 1, 48, 90
7, 3959, Note_on_c, 1, 48, 0
7, 4080, Note_on_c, 1, 48, 90
7, 4139, Note_on_c, 1, 48, 0
7, 4140, Note_on_c, 1, 50, 78
7, 4199, Note_on_c, 1, 50, 0
7, 4200, Note_on_c, 1, 52, 68
7, 4259, Note_on_c, 1, 52, 0
7, 4260, Note_on_c, 1, 50, 68
7, 4319, Note_on_c, 1, 50, 0
7, 4320, Note_on_c, 1, 48, 78
7, 4469, Note_on_c, 1, 48, 0
7, 4500, Note_on_c, 1, 48, 78
7, 4559, Note_on_c, 1, 48, 0
7, 4560, Note_on_c, 1, 47, 78
7, 4619, Note_on_c, 1, 47, 0
7, 4620, Note_on_c, 1, 48, 68
7, 4679, Note_on_c, 1, 48, 0
7, 4680, Note_on_c, 1, 50, 78
7, 4739, Note_on_c, 1, 50, 0
7, 4740, Note_on_c, 1, 48, 58
7, 4799, Note_on_c, 1, 48, 0
7, 4800, Note_on_c, 1, 47, 90
7, 4889, Note_on_c, 1, 47, 0
7, 4920, Note_on_c, 1, 47, 90
7, 5039, Note_on_c, 1, 47, 0
7, 5160, Note_on_c, 1, 60, 78
7, 5219, Note_on_c, 1, 60, 0
7, 5220, Note_on_c, 1, 59, 78
7, 5279, Note_on_c, 1, 59, 0
7, 5280, Note_on_c, 1, 57, 78
7, 5339, Note_on_c, 1, 57, 0
7, 5340, Note_on_c, 1, 60, 78
7, 5399, Note_on_c, 1, 60, 0
7, 5400, Note_on_c, 1, 57, 78
7, 5459, Note_on_c, 1, 57, 0
7, 5460, Note_on_c, 1, 55, 58
7, 5519, Note_on_c, 1, 55, 0
7, 5520, Note_on_c, 1, 54, 90
7, 5579, Note_on_c, 1, 54, 0
7, 5580, Note_on_c, 1, 57, 78
7, 5639, Note_on_c, 1, 57, 0
7, 5640, Note_on_c, 1, 54, 90
7, 5699, Note_on_c, 1, 54, 0
7, 5700, Note_on_c, 1, 52, 68
7, 5759, Note_on_c, 1, 52, 0
7, 5760, Note_on_c, 1, 50, 68
7, 5909, Note_on_c, 1, 50, 0
7, 5940, Note_on_c, 1, 50, 78
7, 5969, Note_on_c, 1, 50, 0
7, 6000, Note_on_c, 1, 50, 78
7, 6119, Note_on_c, 1, 50, 0
7, 6120, Note_on_c, 1, 50, 78
7, 6149, Note_on_c, 1, 50, 0
7, 6180, Note_on_c, 1, 50, 78
7, 6239, Note_on_c, 1, 50, 0
7, 6240, Note_on_c, 1, 55, 58
7, 6359, Note_on_c, 1, 55, 0
7, 6360, Note_on_c, 1, 48, 78
7, 6479, Note_on_c, 1, 48, 0
7, 6480, Note_on_c, 1, 50, 78
7, 6629, Note_on_c, 1, 50, 0
7, 6660, Note_on_c, 1, 50, 78
7, 6719, Note_on_c, 1, 50, 0
7, 6720, Note_on_c, 1, 43, 78
7, 6839, Note_on_c, 1, 43, 0
7, 8160, Note_on_c, 1, 52, 90
7, 8249, Note_on_c, 1, 52, 0
7, 8280, Note_on_c, 1, 52, 78
7, 8369, Note_on_c, 1, 52, 0
7, 8400, Note_on_c, 1, 52, 90
7, 8489, Note_on_c, 1, 52, 0
7, 8520, Note_on_c, 1, 52, 90
7, 8609, Note_on_c, 1, 52, 0
7, 8640, Note_on_c, 1, 52, 90
7, 8729, Note_on_c, 1, 52, 0
7, 8730, Note_on_c, 1, 52, 35
7, 8759, Note_on_c, 1, 52, 0
7, 8760, Note_on_c, 1, 52, 58
7, 8849, Note_on_c, 1, 52, 0
7, 8880, Note_on_c, 1, 52, 42
7, 8969, Note_on_c, 1, 52, 0
7, 9000, Note_on_c, 1, 52, 29
7, 9089, Note_on_c, 1, 52, 0
7, 9120, Note_on_c, 1, 52, 90
7, 9209, Note_on_c, 1, 52, 0
7, 9240, Note_on_c, 1, 52, 35
7, 9329, Note_on_c, 1, 52, 0
7, 9360, Note_on_c, 1, 52, 42
7, 9449, Note_on_c, 1, 52, 0
7, 9450, Note_on_c, 1, 52, 42
7, 9479, Note_on_c, 1, 52, 0
7, 9480, Note_on_c, 1, 52, 50
7, 9569, Note_on_c, 1, 52, 0
7, 9600, Note_on_c, 1, 52, 90
7, 9809, Note_on_c, 1, 52, 0
7, 9840, Note_on_c, 1, 52, 90
7, 10049, Note_on_c, 1, 52, 0
7, 10080, Note_on_c, 1, 52, 78
7, 10229, Note_on_c, 1, 52, 0
7, 10260, Note_on_c, 1, 52, 78
7, 10289, Note_on_c, 1, 52, 0
7, 10320, Note_on_c, 1, 52, 90
7, 10439, Note_on_c, 1, 52, 0
7, 10440, Note_on_c, 1, 51, 90
7, 10499, Note_on_c, 1, 51, 0
7, 10530, Note_on_c, 1, 51, 78
7, 10559, Note_on_c, 1, 51, 0
7, 10560, Note_on_c, 1, 52, 42
7, 10679, Note_on_c, 1, 52, 0
7, 10860, Note_on_c, 1, 52, 68
7, 10919, Note_on_c, 1, 52, 0
7, 10920, Note_on_c, 1, 54, 90
7, 10979, Note_on_c, 1, 54, 0
7, 10980, Note_on_c, 1, 56, 78
7, 11009, Note_on_c, 1, 56, 0
7, 11040, Note_on_c, 1, 57, 78
7, 11099, Note_on_c, 1, 57, 0
7, 11100, Note_on_c, 1, 60, 78
7, 11159, Note_on_c, 1, 60, 0
7, 11160, Note_on_c, 1, 59, 68
7, 11219, Note_on_c, 1, 59, 0
7, 11220, Note_on_c, 1, 57, 78
7, 11279, Note_on_c, 1, 57, 0
7, 11280, Note_on_c, 1, 56, 90
7, 11339, Note_on_c, 1, 56, 0
7, 11340, Note_on_c, 1, 52, 68
7, 11399, Note_on_c, 1, 52, 0
7, 11400, Note_on_c, 1, 54, 90
7, 11459, Note_on_c, 1, 54, 0
7, 11460, Note_on_c, 1, 56, 90
7, 11519, Note_on_c, 1, 56, 0
7, 11520, Note_on_c, 1, 57, 78
7, 11639, Note_on_c, 1, 57, 0
7, 11640, Note_on_c, 1, 56, 90
7, 11759, Note_on_c, 1, 56, 0
7, 11760, Note_on_c, 1, 57, 78
7, 11879, Note_on_c, 1, 57, 0
7, 11880, Note_on_c, 1, 59, 78
7, 11999, Note_on_c, 1, 59, 0
7, 12000, Note_on_c, 1, 60, 78
7, 12059, Note_on_c, 1, 60, 0
7, 12090, Note_on_c, 1, 60, 78
7, 12119, Note_on_c, 1, 60, 0
7, 12120, Note_on_c, 1, 52, 78
7, 12239, Note_on_c, 1, 52, 0
7, 12240, Note_on_c, 1, 54, 90
7, 12359, Note_on_c, 1, 54, 0
7, 12360, Note_on_c, 1, 56, 90
7, 12479, Note_on_c, 1, 56, 0
7, 12480, Note_on_c, 1, 57, 90
7, 12539, Note_on_c, 1, 57, 0
7, 12570, Note_on_c, 1, 57, 68
7, 12599, Note_on_c, 1, 57, 0
7, 12600, Note_on_c, 1, 50, 78
7, 12719, Note_on_c, 1, 50, 0
7, 12720, Note_on_c, 1, 52, 78
7, 12899, Note_on_c, 1, 52, 0
7, 12930, Note_on_c, 1, 52, 78
7, 12959, Note_on_c, 1, 52, 0
7, 12960, Note_on_c, 1, 45, 78
7, 13079, Note_on_c, 1, 45, 0
7, 13440, Note_on_c, 1, 59, 68
7, 13499, Note_on_c, 1, 59, 0
7, 13500, Note_on_c, 1, 60, 68
7, 13559, Note_on_c, 1, 60, 0
7, 13560, Note_on_c, 1, 59, 68
7, 13619, Note_on_c, 1, 59, 0
7, 13620, Note_on_c, 1, 57, 68
7, 13679, Note_on_c, 1, 57, 0
7, 13680, Note_on_c, 1, 55, 78
7, 13859, Note_on_c, 1, 55, 0
7, 13860, Note_on_c, 1, 56, 78
7, 13919, Note_on_c, 1, 56, 0
7, 13920, Note_on_c, 1, 57, 78
7, 13979, Note_on_c, 1, 57, 0
7, 13980, Note_on_c, 1, 58, 78
7, 14039, Note_on_c, 1, 58, 0
7, 14040, Note_on_c, 1, 57, 68
7, 14099, Note_on_c, 1, 57, 0
7, 14100, Note_on_c, 1, 55, 68
7, 14159, Note_on_c, 1, 55, 0
7, 14160, Note_on_c, 1, 53, 78
7, 14339, Note_on_c, 1, 53, 0
7, 14340, Note_on_c, 1, 54, 90
7, 14399, Note_on_c, 1, 54, 0
7, 14400, Note_on_c, 1, 55, 68
7, 14459, Note_on_c, 1, 55, 0
7, 14460, Note_on_c, 1, 56, 78
7, 14520, Note_on_c, 1, 55, 58
7, 14549, Note_on_c, 1, 56, 0
7, 14579, Note_on_c, 1, 55, 0
7, 14580, Note_on_c, 1, 53, 68
7, 14639, Note_on_c, 1, 53, 0
7, 14640, Note_on_c, 1, 51, 90
7, 14699, Note_on_c, 1, 51, 0
7, 14700, Note_on_c, 1, 53, 68
7, 14759, Note_on_c, 1, 53, 0
7, 14760, Note_on_c, 1, 51, 78
7, 14819, Note_on_c, 1, 51, 0
7, 14820, Note_on_c, 1, 50, 68
7, 14879, Note_on_c, 1, 50, 0
7, 14880, Note_on_c, 1, 48, 78
7, 14939, Note_on_c, 1, 48, 0
7, 14940, Note_on_c, 1, 50, 78
7, 14999, Note_on_c, 1, 50, 0
7, 15000, Note_on_c, 1, 48, 58
7, 15059, Note_on_c, 1, 48, 0
7, 15060, Note_on_c, 1, 46, 78
7, 15119, Note_on_c, 1, 46, 0
7, 15120, Note_on_c, 1, 44, 90
7, 15359, Note_on_c, 1, 44, 0
7, 15360, Note_on_c, 1, 43, 90
7, 15479, Note_on_c, 1, 43, 0
7, 16800, Note_on_c, 1, 48, 90
7, 17009, Note_on_c, 1, 48, 0
7, 17010, Note_on_c, 1, 48, 78
7, 17039, Note_on_c, 1, 48, 0
7, 17040, Note_on_c, 1, 48, 78
7, 17129, Note_on_c, 1, 48, 0
7, 17160, Note_on_c, 1, 48, 90
7, 17249, Note_on_c, 1, 48, 0
7, 17280, Note_on_c, 1, 48, 90
7, 17489, Note_on_c, 1, 48, 0
7, 17520, Note_on_c, 1, 48, 90
7, 17609, Note_on_c, 1, 48, 0
7, 17640, Note_on_c, 1, 48, 90
7, 17729, Note_on_c, 1, 48, 0
7, 17760, Note_on_c, 1, 48, 90
7, 17849, Note_on_c, 1, 48, 0
7, 17880, Note_on_c, 1, 48, 78
7, 17969, Note_on_c, 1, 48, 0
7, 18000, Note_on_c, 1, 58, 90
7, 18059, Note_on_c, 1, 58, 0
7, 18060, Note_on_c, 1, 57, 90
7, 18119, Note_on_c, 1, 57, 0
7, 18120, Note_on_c, 1, 55, 78
7, 18179, Note_on_c, 1, 55, 0
7, 18180, Note_on_c, 1, 53, 78
7, 18239, Note_on_c, 1, 53, 0
7, 18240, Note_on_c, 1, 52, 78
7, 18359, Note_on_c, 1, 52, 0
7, 18360, Note_on_c, 1, 53, 78
7, 18479, Note_on_c, 1, 53, 0
7, 18480, Note_on_c, 1, 52, 78
7, 18539, Note_on_c, 1, 52, 0
7, 18540, Note_on_c, 1, 48, 68
7, 18599, Note_on_c, 1, 48, 0
7, 18600, Note_on_c, 1, 50, 68
7, 18659, Note_on_c, 1, 50, 0
7, 18660, Note_on_c, 1, 55, 68
7, 18719, Note_on_c, 1, 55, 0
7, 18720, Note_on_c, 1, 48, 90
7, 18839, Note_on_c, 1, 48, 0
7, 18840, Note_on_c, 1, 60, 78
7, 18869, Note_on_c, 1, 60, 0
7, 18900, Note_on_c, 1, 60, 78
7, 18959, Note_on_c, 1, 60, 0
7, 18960, Note_on_c, 1, 54, 90
7, 19019, Note_on_c, 1, 54, 0
7, 19050, Note_on_c, 1, 54, 90
7, 19079, Note_on_c, 1, 54, 0
7, 19080, Note_on_c, 1, 56, 90
7, 19199, Note_on_c, 1, 56, 0
7, 19320, Note_on_c, 1, 48, 90
7, 19349, Note_on_c, 1, 48, 0
7, 19380, Note_on_c, 1, 48, 90
7, 19439, Note_on_c, 1, 48, 0
7, 19440, Note_on_c, 1, 50, 90
7, 19529, Note_on_c, 1, 50, 0
7, 19530, Note_on_c, 1, 50, 78
7, 19559, Note_on_c, 1, 50, 0
7, 19560, Note_on_c, 1, 52, 78
7, 19679, Note_on_c, 1, 52, 0
7, 19800, Note_on_c, 1, 45, 78
7, 19829, Note_on_c, 1, 45, 0
7, 19860, Note_on_c, 1, 45, 78
7, 19919, Note_on_c, 1, 45, 0
7, 19920, Note_on_c, 1, 47, 78
7, 20009, Note_on_c, 1, 47, 0
7, 20010, Note_on_c, 1, 47, 68
7, 20039, Note_on_c, 1, 47, 0
7, 20040, Note_on_c, 1, 49, 90
7, 20129, Note_on_c, 1, 49, 0
7, 20160, Note_on_c, 1, 50, 78
7, 20219, Note_on_c, 1, 50, 0
7, 20220, Note_on_c, 1, 52, 78
7, 20279, Note_on_c, 1, 52, 0
7, 20280, Note_on_c, 1, 53, 78
7, 20339, Note_on_c, 1, 53, 0
7, 20340, Note_on_c, 1, 55, 68
7, 20399, Note_on_c, 1, 55, 0
7, 20400, Note_on_c, 1, 57, 78
7, 20459, Note_on_c, 1, 57, 0
7, 20460, Note_on_c, 1, 59, 78
7, 20519, Note_on_c, 1, 59, 0
7, 20520, Note_on_c, 1, 60, 68
7, 20579, Note_on_c, 1, 60, 0
7, 20580, Note_on_c, 1, 57, 78
7, 20639, Note_on_c, 1, 57, 0
7, 20640, Note_on_c, 1, 55, 90
7, 20789, Note_on_c, 1, 55, 0
7, 20880, Note_on_c, 1, 53, 78
7, 20939, Note_on_c, 1, 53, 0
7, 20940, Note_on_c, 1, 55, 78
7, 20999, Note_on_c, 1, 55, 0
7, 21000, Note_on_c, 1, 57, 68
7, 21059, Note_on_c, 1, 57, 0
7, 21060, Note_on_c, 1, 55, 68
7, 21119, Note_on_c, 1, 55, 0
7, 21120, Note_on_c, 1, 53, 90
7, 21239, Note_on_c, 1, 53, 0
7, 21300, Note_on_c, 1, 50, 90
7, 21359, Note_on_c, 1, 50, 0
7, 21360, Note_on_c, 1, 52, 78
7, 21419, Note_on_c, 1, 52, 0
7, 21420, Note_on_c, 1, 53, 78
7, 21479, Note_on_c, 1, 53, 0
7, 21480, Note_on_c, 1, 55, 78
7, 21539, Note_on_c, 1, 55, 0
7, 21540, Note_on_c, 1, 53, 68
7, 21599, Note_on_c, 1, 53, 0
7, 21600, Note_on_c, 1, 52, 78
7, 21719, Note_on_c, 1, 52, 0
7, 21900, Note_on_c, 1, 57, 78
7, 21959, Note_on_c, 1, 57, 0
7, 21960, Note_on_c, 1, 53, 78
7, 22019, Note_on_c, 1, 53, 0
7, 22020, Note_on_c, 1, 52, 78
7, 22049, Note_on_c, 1, 52, 0
7, 22080, Note_on_c, 1, 50, 68
7, 22199, Note_on_c, 1, 50, 0
7, 22200, Note_on_c, 1, 62, 90
7, 22259, Note_on_c, 1, 62, 0
7, 22260, Note_on_c, 1, 60, 68
7, 22319, Note_on_c, 1, 60, 0
7, 22320, Note_on_c, 1, 59, 78
7, 22379, Note_on_c, 1, 59, 0
7, 22380, Note_on_c, 1, 62, 78
7, 22439, Note_on_c, 1, 62, 0
7, 22440, Note_on_c, 1, 59, 78
7, 22499, Note_on_c, 1, 59, 0
7, 22500, Note_on_c, 1, 57, 78
7, 22559, Note_on_c, 1, 57, 0
7, 22560, Note_on_c, 1, 55, 78
7, 22769, Note_on_c, 1, 55, 0
7, 22800, Note_on_c, 1, 55, 90
7, 22949, Note_on_c, 1, 55, 0
7, 22980, Note_on_c, 1, 55, 78
7, 23039, Note_on_c, 1, 55, 0
7, 23040, Note_on_c, 1, 60, 90
7, 23159, Note_on_c, 1, 60, 0
7, 23160, Note_on_c, 1, 53, 78
7, 23189, Note_on_c, 1, 53, 0
7, 23220, Note_on_c, 1, 53, 78
7, 23279, Note_on_c, 1, 53, 0
7, 23280, Note_on_c, 1, 55, 90
7, 23519, Note_on_c, 1, 55, 0
7, 23520, Note_on_c, 1, 48, 78
7, 23639, Note_on_c, 1, 48, 0
7, 24660, Note_on_c, 1, 55, 90
7, 24719, Note_on_c, 1, 55, 0
7, 24720, Note_on_c, 1, 60, 78
7, 24779, Note_on_c, 1, 60, 0
7, 24780, Note_on_c, 1, 59, 78
7, 24839, Note_on_c, 1, 59, 0
7, 24840, Note_on_c, 1, 57, 78
7, 24899, Note_on_c, 1, 57, 0
7, 24900, Note_on_c, 1, 55, 68
7, 24959, Note_on_c, 1, 55, 0
7, 24960, Note_on_c, 1, 53, 90
7, 25139, Note_on_c, 1, 53, 0
7, 25140, Note_on_c, 1, 57, 78
7, 25169, Note_on_c, 1, 57, 0
7, 25170, Note_on_c, 1, 53, 78
7, 25199, Note_on_c, 1, 53, 0
7, 25200, Note_on_c, 1, 59, 78
7, 25259, Note_on_c, 1, 59, 0
7, 25260, Note_on_c, 1, 57, 90
7, 25319, Note_on_c, 1, 57, 0
7, 25320, Note_on_c, 1, 55, 78
7, 25379, Note_on_c, 1, 55, 0
7, 25380, Note_on_c, 1, 53, 78
7, 25439, Note_on_c, 1, 53, 0
7, 25440, Note_on_c, 1, 52, 78
7, 25619, Note_on_c, 1, 52, 0
7, 25620, Note_on_c, 1, 55, 68
7, 25649, Note_on_c, 1, 55, 0
7, 25650, Note_on_c, 1, 52, 78
7, 25679, Note_on_c, 1, 52, 0
7, 25680, Note_on_c, 1, 57, 78
7, 25739, Note_on_c, 1, 57, 0
7, 25740, Note_on_c, 1, 55, 78
7, 25799, Note_on_c, 1, 55, 0
7, 25800, Note_on_c, 1, 53, 68
7, 25859, Note_on_c, 1, 53, 0
7, 25860, Note_on_c, 1, 52, 78
7, 25919, Note_on_c, 1, 52, 0
7, 25920, Note_on_c, 1, 50, 78
7, 25979, Note_on_c, 1, 50, 0
7, 25980, Note_on_c, 1, 48, 68
7, 26039, Note_on_c, 1, 48, 0
7, 26040, Note_on_c, 1, 47, 78
7, 26099, Note_on_c, 1, 47, 0
7, 26100, Note_on_c, 1, 45, 68
7, 26159, Note_on_c, 1, 45, 0
7, 26160, Note_on_c, 1, 43, 50
7, 26279, Note_on_c, 1, 43, 0
7, 26280, Note_on_c, 1, 55, 90
7, 26399, Note_on_c, 1, 55, 0
7, 26400, Note_on_c, 1, 60, 90
7, 26489, Note_on_c, 1, 60, 0
7, 26520, Note_on_c, 1, 57, 90
7, 26549, Note_on_c, 1, 57, 0
7, 26580, Note_on_c, 1, 57, 78
7, 26639, Note_on_c, 1, 57, 0
7, 26640, Note_on_c, 1, 53, 90
7, 26759, Note_on_c, 1, 53, 0
7, 26760, Note_on_c, 1, 55, 90
7, 26879, Note_on_c, 1, 55, 0
7, 26880, Note_on_c, 1, 48, 90
7, 26969, Note_on_c, 1, 48, 0
7, 30780, Note_on_c, 1, 51, 90
7, 30869, Note_on_c, 1, 51, 0
7, 30900, Note_on_c, 1, 51, 90
7, 30944, Note_on_c, 1, 51, 0
7, 30960, Note_on_c, 1, 51, 90
7, 31199, Note_on_c, 1, 51, 0
7, 31200, Note_on_c, 1, 52, 90
7, 31244, Note_on_c, 1, 52, 0
7, 31260, Note_on_c, 1, 52, 78
7, 31274, Note_on_c, 1, 52, 0
7, 31290, Note_on_c, 1, 52, 78
7, 31304, Note_on_c, 1, 52, 0
7, 31320, Note_on_c, 1, 52, 90
7, 31364, Note_on_c, 1, 52, 0
7, 31380, Note_on_c, 1, 52, 90
7, 31439, Note_on_c, 1, 52, 0
7, 31440, Note_on_c, 1, 53, 90
7, 31679, Note_on_c, 1, 53, 0
7, 31680, Note_on_c, 1, 54, 104
7, 31724, Note_on_c, 1, 54, 0
7, 31740, Note_on_c, 1, 54, 90
7, 31784, Note_on_c, 1, 54, 0
7, 31800, Note_on_c, 1, 54, 104
7, 31829, Note_on_c, 1, 54, 0
7, 31845, Note_on_c, 1, 54, 90
7, 31859, Note_on_c, 1, 54, 0
7, 31860, Note_on_c, 1, 54, 90
7, 31874, Note_on_c, 1, 54, 0
7, 31890, Note_on_c, 1, 54, 90
7, 31904, Note_on_c, 1, 54, 0
7, 31920, Note_on_c, 1, 55, 90
7, 32159, Note_on_c, 1, 55, 0
7, 32160, Note_on_c, 1, 56, 90
7, 32279, Note_on_c, 1, 56, 0
7, 32400, Note_on_c, 1, 51, 42
7, 32429, Note_on_c, 1, 51, 0
7, 32460, Note_on_c, 1, 51, 58
7, 32519, Note_on_c, 1, 51, 0
7, 32640, Note_on_c, 1, 47, 50
7, 32669, Note_on_c, 1, 47, 0
7, 32700, Note_on_c, 1, 47, 50
7, 32759, Note_on_c, 1, 47, 0
7, 32880, Note_on_c, 1, 48, 42
7, 32999, Note_on_c, 1, 48, 0
7, 33000, Note_on_c, 1, 46, 58
7, 33119, Note_on_c, 1, 46, 0
7, 33120, Note_on_c, 1, 44, 78
7, 33239, Note_on_c, 1, 44, 0
7, 33240, Note_on_c, 1, 56, 90
7, 33359, Note_on_c, 1, 56, 0
7, 33360, Note_on_c, 1, 55, 78
7, 33569, Note_on_c, 1, 55, 0
7, 33600, Note_on_c, 1, 48, 68
7, 33659, Note_on_c, 1, 48, 0
7, 33720, Note_on_c, 1, 53, 42
7, 33749, Note_on_c, 1, 53, 0
7, 33840, Note_on_c, 1, 55, 24
7, 33899, Note_on_c, 1, 55, 0
7, 33960, Note_on_c, 1, 43, 29
7, 34019, Note_on_c, 1, 43, 0
7, 34080, Note_on_c, 1, 48, 35
7, 34199, Note_on_c, 1, 48, 0
7, 34380, Note_on_c, 1, 48, 90
7, 34409, Note_on_c, 1, 48, 0
7, 34440, Note_on_c, 1, 48, 90
7, 34469, Note_on_c, 1, 48, 0
7, 34500, Note_on_c, 1, 48, 90
7, 34529, Note_on_c, 1, 48, 0
7, 34560, Note_on_c, 1, 48, 90
7, 34649, Note_on_c, 1, 48, 0
7, 34680, Note_on_c, 1, 48, 90
7, 34769, Note_on_c, 1, 48, 0
7, 34800, Note_on_c, 1, 48, 90
7, 34859, Note_on_c, 1, 48, 0
7, 34890, Note_on_c, 1, 48, 90
7, 34919, Note_on_c, 1, 48, 0
7, 34920, Note_on_c, 1, 48, 90
7, 35009, Note_on_c, 1, 48, 0
7, 35040, Note_on_c, 1, 48, 90
7, 35129, Note_on_c, 1, 48, 0
7, 35160, Note_on_c, 1, 48, 90
7, 35189, Note_on_c, 1, 48, 0
7, 35220, Note_on_c, 1, 48, 78
7, 35279, Note_on_c, 1, 48, 0
7, 35280, Note_on_c, 1, 58, 90
7, 35339, Note_on_c, 1, 58, 0
7, 35340, Note_on_c, 1, 57, 78
7, 35399, Note_on_c, 1, 57, 0
7, 35400, Note_on_c, 1, 55, 78
7, 35459, Note_on_c, 1, 55, 0
7, 35460, Note_on_c, 1, 53, 68
7, 35519, Note_on_c, 1, 53, 0
7, 35520, Note_on_c, 1, 52, 78
7, 35639, Note_on_c, 1, 52, 0
7, 35640, Note_on_c, 1, 53, 78
7, 35669, Note_on_c, 1, 53, 0
7, 35700, Note_on_c, 1, 53, 78
7, 35759, Note_on_c, 1, 53, 0
7, 35760, Note_on_c, 1, 52, 78
7, 35819, Note_on_c, 1, 52, 0
7, 35820, Note_on_c, 1, 48, 68
7, 35879, Note_on_c, 1, 48, 0
7, 35880, Note_on_c, 1, 50, 68
7, 35939, Note_on_c, 1, 50, 0
7, 35940, Note_on_c, 1, 55, 78
7, 35999, Note_on_c, 1, 55, 0
7, 36000, Note_on_c, 1, 48, 68
7, 36089, Note_on_c, 1, 48, 0
7, 36240, Note_on_c, 1, 48, 78
7, 36299, Note_on_c, 1, 48, 0
7, 36300, Note_on_c, 1, 50, 68
7, 36359, Note_on_c, 1, 50, 0
7, 36360, Note_on_c, 1, 52, 78
7, 36419, Note_on_c, 1, 52, 0
7, 36420, Note_on_c, 1, 50, 68
7, 36479, Note_on_c, 1, 50, 0
7, 36480, Note_on_c, 1, 48, 78
7, 36629, Note_on_c, 1, 48, 0
7, 36660, Note_on_c, 1, 48, 78
7, 36719, Note_on_c, 1, 48, 0
7, 36720, Note_on_c, 1, 47, 78
7, 36779, Note_on_c, 1, 47, 0
7, 36780, Note_on_c, 1, 48, 78
7, 36839, Note_on_c, 1, 48, 0
7, 36840, Note_on_c, 1, 50, 78
7, 36899, Note_on_c, 1, 50, 0
7, 36900, Note_on_c, 1, 48, 68
7, 36959, Note_on_c, 1, 48, 0
7, 36960, Note_on_c, 1, 47, 90
7, 37079, Note_on_c, 1, 47, 0
7, 37320, Note_on_c, 1, 60, 78
7, 37379, Note_on_c, 1, 60, 0
7, 37380, Note_on_c, 1, 59, 78
7, 37439, Note_on_c, 1, 59, 0
7, 37440, Note_on_c, 1, 57, 90
7, 37499, Note_on_c, 1, 57, 0
7, 37500, Note_on_c, 1, 60, 68
7, 37559, Note_on_c, 1, 60, 0
7, 37560, Note_on_c, 1, 57, 78
7, 37619, Note_on_c, 1, 57, 0
7, 37620, Note_on_c, 1, 55, 68
7, 37679, Note_on_c, 1, 55, 0
7, 37680, Note_on_c, 1, 54, 90
7, 37739, Note_on_c, 1, 54, 0
7, 37740, Note_on_c, 1, 57, 78
7, 37799, Note_on_c, 1, 57, 0
7, 37800, Note_on_c, 1, 54, 90
7, 37859, Note_on_c, 1, 54, 0
7, 37860, Note_on_c, 1, 52, 68
7, 37919, Note_on_c, 1, 52, 0
7, 37920, Note_on_c, 1, 50, 78
7, 38129, Note_on_c, 1, 50, 0
7, 38160, Note_on_c, 1, 50, 90
7, 38309, Note_on_c, 1, 50, 0
7, 38340, Note_on_c, 1, 50, 78
7, 38399, Note_on_c, 1, 50, 0
7, 38400, Note_on_c, 1, 55, 90
7, 38519, Note_on_c, 1, 55, 0
7, 38520, Note_on_c, 1, 48, 68
7, 38549, Note_on_c, 1, 48, 0
7, 38580, Note_on_c, 1, 48, 68
7, 38639, Note_on_c, 1, 48, 0
7, 38640, Note_on_c, 1, 50, 90
7, 38879, Note_on_c, 1, 50, 0
7, 38880, Note_on_c, 1, 43, 78
7, 38999, Note_on_c, 1, 43, 0
7, 39300, Note_on_c, 1, 55, 90
7, 39329, Note_on_c, 1, 55, 0
7, 39360, Note_on_c, 1, 55, 90
7, 39509, Note_on_c, 1, 55, 0
7, 39540, Note_on_c, 1, 55, 90
7, 39569, Note_on_c, 1, 55, 0
7, 39600, Note_on_c, 1, 55, 90
7, 39689, Note_on_c, 1, 55, 0
7, 39720, Note_on_c, 1, 55, 90
7, 39809, Note_on_c, 1, 55, 0
7, 39840, Note_on_c, 1, 53, 90
7, 39899, Note_on_c, 1, 53, 0
7, 39900, Note_on_c, 1, 52, 78
7, 39959, Note_on_c, 1, 52, 0
7, 39960, Note_on_c, 1, 50, 68
7, 40019, Note_on_c, 1, 50, 0
7, 40020, Note_on_c, 1, 48, 78
7, 40079, Note_on_c, 1, 48, 0
7, 40080, Note_on_c, 1, 47, 58
7, 40139, Note_on_c, 1, 47, 0
7, 40140, Note_on_c, 1, 57, 78
7, 40199, Note_on_c, 1, 57, 0
7, 40200, Note_on_c, 1, 55, 78
7, 40259, Note_on_c, 1, 55, 0
7, 40260, Note_on_c, 1, 53, 78
7, 40319, Note_on_c, 1, 53, 0
7, 40320, Note_on_c, 1, 52, 78
7, 40469, Note_on_c, 1, 52, 0
7, 40500, Note_on_c, 1, 52, 78
7, 40529, Note_on_c, 1, 52, 0
7, 40560, Note_on_c, 1, 52, 58
7, 40649, Note_on_c, 1, 52, 0
7, 40680, Note_on_c, 1, 52, 90
7, 40769, Note_on_c, 1, 52, 0
7, 40800, Note_on_c, 1, 52, 90
7, 40889, Note_on_c, 1, 52, 0
7, 40890, Note_on_c, 1, 52, 42
7, 40919, Note_on_c, 1, 52, 0
7, 40920, Note_on_c, 1, 52, 58
7, 41009, Note_on_c, 1, 52, 0
7, 41040, Note_on_c, 1, 52, 42
7, 41129, Note_on_c, 1, 52, 0
7, 41160, Note_on_c, 1, 52, 50
7, 41249, Note_on_c, 1, 52, 0
7, 41280, Note_on_c, 1, 52, 90
7, 41369, Note_on_c, 1, 52, 0
7, 41400, Note_on_c, 1, 52, 50
7, 41489, Note_on_c, 1, 52, 0
7, 41520, Note_on_c, 1, 52, 42
7, 41609, Note_on_c, 1, 52, 0
7, 41640, Note_on_c, 1, 52, 29
7, 41729, Note_on_c, 1, 52, 0
7, 41760, Note_on_c, 1, 52, 104
7, 41969, Note_on_c, 1, 52, 0
7, 42000, Note_on_c, 1, 52, 90
7, 42209, Note_on_c, 1, 52, 0
7, 42240, Note_on_c, 1, 52, 90
7, 42329, Note_on_c, 1, 52, 0
7, 42360, Note_on_c, 1, 52, 78
7, 42389, Note_on_c, 1, 52, 0
7, 42420, Note_on_c, 1, 52, 78
7, 42449, Note_on_c, 1, 52, 0
7, 42480, Note_on_c, 1, 52, 90
7, 42599, Note_on_c, 1, 52, 0
7, 42600, Note_on_c, 1, 51, 90
7, 42659, Note_on_c, 1, 51, 0
7, 42690, Note_on_c, 1, 51, 90
7, 42719, Note_on_c, 1, 51, 0
7, 42720, Note_on_c, 1, 52, 78
7, 42839, Note_on_c, 1, 52, 0
7, 43020, Note_on_c, 1, 52, 78
7, 43079, Note_on_c, 1, 52, 0
7, 43080, Note_on_c, 1, 54, 90
7, 43140, Note_on_c, 1, 56, 78
7, 43169, Note_on_c, 1, 54, 0
7, 43199, Note_on_c, 1, 56, 0
7, 43200, Note_on_c, 1, 57, 78
7, 43259, Note_on_c, 1, 57, 0
7, 43260, Note_on_c, 1, 60, 78
7, 43319, Note_on_c, 1, 60, 0
7, 43320, Note_on_c, 1, 59, 68
7, 43379, Note_on_c, 1, 59, 0
7, 43380, Note_on_c, 1, 57, 78
7, 43439, Note_on_c, 1, 57, 0
7, 43440, Note_on_c, 1, 56, 90
7, 43499, Note_on_c, 1, 56, 0
7, 43500, Note_on_c, 1, 52, 68
7, 43559, Note_on_c, 1, 52, 0
7, 43560, Note_on_c, 1, 54, 90
7, 43619, Note_on_c, 1, 54, 0
7, 43620, Note_on_c, 1, 56, 78
7, 43679, Note_on_c, 1, 56, 0
7, 43680, Note_on_c, 1, 57, 78
7, 43799, Note_on_c, 1, 57, 0
7, 43800, Note_on_c, 1, 56, 90
7, 43919, Note_on_c, 1, 56, 0
7, 43920, Note_on_c, 1, 57, 90
7, 44039, Note_on_c, 1, 57, 0
7, 44160, Note_on_c, 1, 60, 90
7, 44279, Note_on_c, 1, 60, 0
7, 44520, Note_on_c, 1, 56, 90
7, 44639, Note_on_c, 1, 56, 0
7, 44640, Note_on_c, 1, 57, 78
7, 44669, Note_on_c, 1, 57, 0
7, 44700, Note_on_c, 1, 57, 90
7, 44759, Note_on_c, 1, 57, 0
7, 44760, Note_on_c, 1, 50, 78
7, 44789, Note_on_c, 1, 50, 0
7, 44820, Note_on_c, 1, 50, 78
7, 44849, Note_on_c, 1, 50, 0
7, 44880, Note_on_c, 1, 52, 78
7, 45119, Note_on_c, 1, 52, 0
7, 45120, Note_on_c, 1, 45, 90
7, 45239, Note_on_c, 1, 45, 0
7, 54480, Note_on_c, 1, 48, 90
7, 54539, Note_on_c, 1, 48, 0
7, 54540, Note_on_c, 1, 50, 90
7, 54569, Note_on_c, 1, 50, 0
7, 54600, Note_on_c, 1, 52, 78
7, 54659, Note_on_c, 1, 52, 0
7, 54660, Note_on_c, 1, 53, 78
7, 54719, Note_on_c, 1, 53, 0
7, 54720, Note_on_c, 1, 55, 90
7, 54959, Note_on_c, 1, 55, 0
7, 54960, Note_on_c, 1, 52, 90
7, 55019, Note_on_c, 1, 52, 0
7, 55020, Note_on_c, 1, 53, 78
7, 55079, Note_on_c, 1, 53, 0
7, 55080, Note_on_c, 1, 55, 78
7, 55139, Note_on_c, 1, 55, 0
7, 55140, Note_on_c, 1, 57, 78
7, 55169, Note_on_c, 1, 57, 0
7, 55200, Note_on_c, 1, 58, 90
7, 55349, Note_on_c, 1, 58, 0
7, 55380, Note_on_c, 1, 58, 90
7, 55409, Note_on_c, 1, 58, 0
7, 55440, Note_on_c, 1, 58, 90
7, 55499, Note_on_c, 1, 58, 0
7, 55500, Note_on_c, 1, 57, 78
7, 55559, Note_on_c, 1, 57, 0
7, 55560, Note_on_c, 1, 55, 78
7, 55619, Note_on_c, 1, 55, 0
7, 55620, Note_on_c, 1, 53, 78
7, 55679, Note_on_c, 1, 53, 0
7, 55680, Note_on_c, 1, 52, 90
7, 55739, Note_on_c, 1, 52, 0
7, 55770, Note_on_c, 1, 52, 78
7, 55799, Note_on_c, 1, 52, 0
7, 55800, Note_on_c, 1, 53, 78
7, 55859, Note_on_c, 1, 53, 0
7, 55860, Note_on_c, 1, 53, 78
7, 55919, Note_on_c, 1, 53, 0
7, 55920, Note_on_c, 1, 52, 78
7, 55979, Note_on_c, 1, 52, 0
7, 55980, Note_on_c, 1, 48, 68
7, 56039, Note_on_c, 1, 48, 0
7, 56040, Note_on_c, 1, 50, 78
7, 56099, Note_on_c, 1, 50, 0
7, 56100, Note_on_c, 1, 55, 78
7, 56159, Note_on_c, 1, 55, 0
7, 56160, Note_on_c, 1, 48, 78
7, 56279, Note_on_c, 1, 48, 0
7, 56460, Note_on_c, 1, 54, 90
7, 56519, Note_on_c, 1, 54, 0
7, 56520, Note_on_c, 1, 56, 90
7, 56579, Note_on_c, 1, 56, 0
7, 56610, Note_on_c, 1, 56, 78
7, 56639, Note_on_c, 1, 56, 0
7, 56640, Note_on_c, 1, 57, 68
7, 56789, Note_on_c, 1, 57, 0
7, 56820, Note_on_c, 1, 48, 58
7, 56820, Note_on_c, 1, 50, 78
7, 56849, Note_on_c, 1, 50, 0
7, 56879, Note_on_c, 1, 48, 0
7, 56880, Note_on_c, 1, 50, 78
7, 56909, Note_on_c, 1, 50, 0
7, 56940, Note_on_c, 1, 50, 78
7, 56969, Note_on_c, 1, 50, 0
7, 57000, Note_on_c, 1, 52, 78
7, 57119, Note_on_c, 1, 52, 0
7, 57120, Note_on_c, 1, 53, 90
7, 57239, Note_on_c, 1, 53, 0
7, 57240, Note_on_c, 1, 45, 90
7, 57269, Note_on_c, 1, 45, 0
7, 57300, Note_on_c, 1, 45, 78
7, 57359, Note_on_c, 1, 45, 0
7, 57360, Note_on_c, 1, 47, 78
7, 57479, Note_on_c, 1, 47, 0
7, 57480, Note_on_c, 1, 49, 90
7, 57599, Note_on_c, 1, 49, 0
7, 57600, Note_on_c, 1, 50, 90
7, 57659, Note_on_c, 1, 50, 0
7, 57660, Note_on_c, 1, 52, 68
7, 57719, Note_on_c, 1, 52, 0
7, 57720, Note_on_c, 1, 53, 78
7, 57779, Note_on_c, 1, 53, 0
7, 57780, Note_on_c, 1, 53, 78
7, 57780, Note_on_c, 1, 55, 68
7, 57809, Note_on_c, 1, 53, 0
7, 57839, Note_on_c, 1, 55, 0
7, 57840, Note_on_c, 1, 57, 78
7, 57899, Note_on_c, 1, 57, 0
7, 57900, Note_on_c, 1, 59, 78
7, 57959, Note_on_c, 1, 59, 0
7, 57960, Note_on_c, 1, 60, 78
7, 58019, Note_on_c, 1, 60, 0
7, 58020, Note_on_c, 1, 57, 90
7, 58079, Note_on_c, 1, 57, 0
7, 58080, Note_on_c, 1, 55, 90
7, 58169, Note_on_c, 1, 55, 0
7, 58200, Note_on_c, 1, 55, 90
7, 58289, Note_on_c, 1, 55, 0
7, 58320, Note_on_c, 1, 55, 104
7, 58409, Note_on_c, 1, 55, 0
7, 58440, Note_on_c, 1, 55, 90
7, 58529, Note_on_c, 1, 55, 0
7, 58560, Note_on_c, 1, 55, 104
7, 58649, Note_on_c, 1, 55, 0
7, 58680, Note_on_c, 1, 55, 42
7, 58769, Note_on_c, 1, 55, 0
7, 58800, Note_on_c, 1, 55, 42
7, 58859, Note_on_c, 1, 55, 0
7, 58890, Note_on_c, 1, 55, 42
7, 58919, Note_on_c, 1, 55, 0
7, 58920, Note_on_c, 1, 55, 50
7, 58949, Note_on_c, 1, 55, 0
7, 58980, Note_on_c, 1, 55, 42
7, 59009, Note_on_c, 1, 55, 0
7, 59040, Note_on_c, 1, 55, 104
7, 59129, Note_on_c, 1, 55, 0
7, 59160, Note_on_c, 1, 55, 50
7, 59249, Note_on_c, 1, 55, 0
7, 59280, Note_on_c, 1, 55, 42
7, 59339, Note_on_c, 1, 55, 0
7, 59370, Note_on_c, 1, 55, 35
7, 59399, Note_on_c, 1, 55, 0
7, 59400, Note_on_c, 1, 55, 35
7, 59429, Note_on_c, 1, 55, 0
7, 59460, Note_on_c, 1, 55, 29
7, 59489, Note_on_c, 1, 55, 0
7, 59520, Note_on_c, 1, 55, 104
7, 59729, Note_on_c, 1, 55, 0
7, 59760, Note_on_c, 1, 55, 90
7, 59999, Note_on_c, 1, 55, 0
7, 60000, Note_on_c, 1, 43, 68
7, 60209, Note_on_c, 1, 43, 0
7, 60240, Note_on_c, 1, 43, 58
7, 60449, Note_on_c, 1, 43, 0
7, 60480, Note_on_c, 1, 43, 50
7, 60929, Note_on_c, 1, 43, 0
7, 60960, Note_on_c, 1, 43, 58
7, 61079, Note_on_c, 1, 43, 0
7, 61260, Note_on_c, 1, 55, 78
7, 61319, Note_on_c, 1, 55, 0
7, 61320, Note_on_c, 1, 57, 78
7, 61379, Note_on_c, 1, 57, 0
7, 61380, Note_on_c, 1, 59, 78
7, 61409, Note_on_c, 1, 59, 0
7, 61440, Note_on_c, 1, 60, 78
7, 61499, Note_on_c, 1, 60, 0
7, 61500, Note_on_c, 1, 64, 90
7, 61559, Note_on_c, 1, 64, 0
7, 61560, Note_on_c, 1, 62, 78
7, 61619, Note_on_c, 1, 62, 0
7, 61620, Note_on_c, 1, 60, 78
7, 61679, Note_on_c, 1, 60, 0
7, 61680, Note_on_c, 1, 59, 78
7, 61739, Note_on_c, 1, 59, 0
7, 61740, Note_on_c, 1, 55, 78
7, 61799, Note_on_c, 1, 55, 0
7, 61800, Note_on_c, 1, 57, 90
7, 61859, Note_on_c, 1, 57, 0
7, 61860, Note_on_c, 1, 59, 68
7, 61919, Note_on_c, 1, 59, 0
7, 61920, Note_on_c, 1, 60, 78
7, 62009, Note_on_c, 1, 60, 0
7, 62010, Note_on_c, 1, 60, 78
7, 62039, Note_on_c, 1, 60, 0
7, 62040, Note_on_c, 1, 59, 78
7, 62129, Note_on_c, 1, 59, 0
7, 62160, Note_on_c, 1, 61, 90
7, 62279, Note_on_c, 1, 61, 0
7, 62280, Note_on_c, 1, 62, 90
7, 62399, Note_on_c, 1, 62, 0
7, 62400, Note_on_c, 1, 59, 90
7, 62519, Note_on_c, 1, 59, 0
7, 62520, Note_on_c, 1, 60, 78
7, 62639, Note_on_c, 1, 60, 0
7, 62640, Note_on_c, 1, 57, 90
7, 62759, Note_on_c, 1, 57, 0
7, 62760, Note_on_c, 1, 59, 78
7, 62879, Note_on_c, 1, 59, 0
7, 62880, Note_on_c, 1, 56, 90
7, 62999, Note_on_c, 1, 56, 0
7, 63000, Note_on_c, 1, 57, 90
7, 63119, Note_on_c, 1, 57, 0
7, 63120, Note_on_c, 1, 54, 90
7, 63239, Note_on_c, 1, 54, 0
7, 63240, Note_on_c, 1, 53, 90
7, 63359, Note_on_c, 1, 53, 0
7, 63360, Note_on_c, 1, 52, 90
7, 63479, Note_on_c, 1, 52, 0
7, 63480, Note_on_c, 1, 53, 78
7, 63569, Note_on_c, 1, 53, 0
7, 63600, Note_on_c, 1, 55, 90
7, 63839, Note_on_c, 1, 55, 0
7, 63840, Note_on_c, 1, 48, 90
7, 63959, Note_on_c, 1, 48, 0
7, 64980, Note_on_c, 1, 55, 90
7, 65039, Note_on_c, 1, 55, 0
7, 65040, Note_on_c, 1, 60, 78
7, 65099, Note_on_c, 1, 60, 0
7, 65100, Note_on_c, 1, 59, 78
7, 65159, Note_on_c, 1, 59, 0
7, 65160, Note_on_c, 1, 57, 78
7, 65219, Note_on_c, 1, 57, 0
7, 65220, Note_on_c, 1, 55, 78
7, 65279, Note_on_c, 1, 55, 0
7, 65280, Note_on_c, 1, 53, 90
7, 65459, Note_on_c, 1, 53, 0
7, 65460, Note_on_c, 1, 57, 78
7, 65489, Note_on_c, 1, 57, 0
7, 65490, Note_on_c, 1, 53, 68
7, 65519, Note_on_c, 1, 53, 0
7, 65520, Note_on_c, 1, 59, 78
7, 65579, Note_on_c, 1, 59, 0
7, 65580, Note_on_c, 1, 57, 90
7, 65639, Note_on_c, 1, 57, 0
7, 65640, Note_on_c, 1, 55, 68
7, 65699, Note_on_c, 1, 55, 0
7, 65700, Note_on_c, 1, 53, 78
7, 65759, Note_on_c, 1, 53, 0
7, 65760, Note_on_c, 1, 52, 90
7, 65939, Note_on_c, 1, 52, 0
7, 65940, Note_on_c, 1, 55, 78
7, 65969, Note_on_c, 1, 55, 0
7, 65970, Note_on_c, 1, 52, 58
7, 65999, Note_on_c, 1, 52, 0
7, 66000, Note_on_c, 1, 57, 78
7, 66059, Note_on_c, 1, 57, 0
7, 66060, Note_on_c, 1, 55, 90
7, 66119, Note_on_c, 1, 55, 0
7, 66120, Note_on_c, 1, 53, 68
7, 66179, Note_on_c, 1, 53, 0
7, 66180, Note_on_c, 1, 52, 78
7, 66239, Note_on_c, 1, 52, 0
7, 66240, Note_on_c, 1, 50, 78
7, 66299, Note_on_c, 1, 50, 0
7, 66300, Note_on_c, 1, 48, 68
7, 66359, Note_on_c, 1, 48, 0
7, 66360, Note_on_c, 1, 47, 78
7, 66419, Note_on_c, 1, 47, 0
7, 66420, Note_on_c, 1, 45, 68
7, 66479, Note_on_c, 1, 45, 0
7, 66480, Note_on_c, 1, 43, 78
7, 66600, Note_on_c, 1, 55, 90
7, 66629, Note_on_c, 1, 43, 0
7, 66719, Note_on_c, 1, 55, 0
7, 66720, Note_on_c, 1, 60, 78
7, 66839, Note_on_c, 1, 60, 0
7, 66840, Note_on_c, 1, 53, 78
7, 66959, Note_on_c, 1, 53, 0
7, 66960, Note_on_c, 1, 55, 90
7, 67199, Note_on_c, 1, 55, 0
7, 67200, Note_on_c, 1, 48, 90
7, 67319, Note_on_c, 1, 48, 0
7, 67680, Note_on_c, 1, 59, 90
7, 67799, Note_on_c, 1, 59, 0
7, 67800, Note_on_c, 1, 60, 90
7, 67919, Note_on_c, 1, 60, 0
7, 67920, Note_on_c, 1, 53, 68
7, 68039, Note_on_c, 1, 53, 0
7, 68040, Note_on_c, 1, 55, 90
7, 68159, Note_on_c, 1, 55, 0
7, 68160, Note_on_c, 1, 48, 90
7, 68279, Note_on_c, 1, 48, 0
7, 68640, Note_on_c, 1, 59, 90
7, 68759, Note_on_c, 1, 59, 0
7, 68760, Note_on_c, 1, 60, 90
7, 68879, Note_on_c, 1, 60, 0
7, 68880, Note_on_c, 1, 53, 78
7, 68999, Note_on_c, 1, 53, 0
7, 69000, Note_on_c, 1, 55, 90
7, 69119, Note_on_c, 1, 55, 0
7, 69120, Note_on_c, 1, 48, 90
7, 69239, Note_on_c, 1, 48, 0
7, 70080, Note_on_c, 1, 58, 90
7, 70349, Note_on_c, 1, 58, 0
7, 70380, Note_on_c, 1, 57, 78
7, 70439, Note_on_c, 1, 57, 0
7, 70440, Note_on_c, 1, 55, 68
7, 70499, Note_on_c, 1, 55, 0
7, 70500, Note_on_c, 1, 53, 78
7, 70559, Note_on_c, 1, 53, 0
7, 70560, Note_on_c, 1, 52, 78
7, 70679, Note_on_c, 1, 52, 0
7, 70680, Note_on_c, 1, 53, 90
7, 70799, Note_on_c, 1, 53, 0
7, 70800, Note_on_c, 1, 55, 90
7, 71039, Note_on_c, 1, 55, 0
7, 71040, Note_on_c, 1, 48, 90
7, 71159, Note_on_c, 1, 48, 0
7, 71400, Note_on_c, 1, 55, 90
7, 71519, Note_on_c, 1, 55, 0
7, 71520, Note_on_c, 1, 60, 90
7, 71639, Note_on_c, 1, 60, 0
7, 71880, Note_on_c, 1, 55, 104
7, 71999, Note_on_c, 1, 55, 0
7, 72000, Note_on_c, 1, 48, 90
7, 72119, Note_on_c, 1, 48, 0
7, 72119, End_track
8, 0, Start_track
8, 0, MIDI_port, 0
8, 0, Title_t, "sop solo"
8, 0, Program_c, 2, 53
8, 28383, Note_on_c, 2, 70, 110
8, 28422, Note_on_c, 2, 70, 0
8, 28440, Note_on_c, 2, 70, 98
8, 28478, Note_on_c, 2, 70, 0
8, 28497, Note_on_c, 2, 70, 98
8, 28535, Note_on_c, 2, 70, 0
8, 28556, Note_on_c, 2, 70, 98
8, 28629, Note_on_c, 2, 70, 0
8, 28646, Note_on_c, 2, 70, 98
8, 28677, Note_on_c, 2, 70, 0
8, 28679, Note_on_c, 2, 68, 110
8, 28806, Note_on_c, 2, 68, 0
8, 28861, Note_on_c, 2, 74, 98
8, 28902, Note_on_c, 2, 74, 0
8, 28923, Note_on_c, 2, 74, 98
8, 28968, Note_on_c, 2, 74, 0
8, 28980, Note_on_c, 2, 74, 98
8, 28996, Note_on_c, 2, 74, 0
8, 29009, Note_on_c, 2, 74, 98
8, 29027, Note_on_c, 2, 74, 0
8, 29041, Note_on_c, 2, 74, 110
8, 29157, Note_on_c, 2, 74, 0
8, 29160, Note_on_c, 2, 72, 98
8, 29255, Note_on_c, 2, 72, 0
8, 29281, Note_on_c, 2, 72, 88
8, 29336, Note_on_c, 2, 72, 0
8, 29338, Note_on_c, 2, 70, 110
8, 29381, Note_on_c, 2, 70, 0
8, 29399, Note_on_c, 2, 70, 110
8, 29437, Note_on_c, 2, 70, 0
8, 29455, Note_on_c, 2, 70, 98
8, 29505, Note_on_c, 2, 70, 0
8, 29518, Note_on_c, 2, 75, 110
8, 29608, Note_on_c, 2, 75, 0
8, 29608, Note_on_c, 2, 72, 88
8, 29637, Note_on_c, 2, 72, 0
8, 29639, Note_on_c, 2, 68, 110
8, 29680, Note_on_c, 2, 68, 0
8, 29699, Note_on_c, 2, 68, 110
8, 29742, Note_on_c, 2, 68, 0
8, 29757, Note_on_c, 2, 68, 110
8, 29878, Note_on_c, 2, 68, 0
8, 29878, Note_on_c, 2, 67, 110
8, 29997, Note_on_c, 2, 72, 98
8, 29998, Note_on_c, 2, 67, 0
8, 30174, Note_on_c, 2, 72, 0
8, 30177, Note_on_c, 2, 75, 110
8, 30234, Note_on_c, 2, 75, 0
8, 30238, Note_on_c, 2, 63, 98
8, 30410, Note_on_c, 2, 67, 70
8, 30413, Note_on_c, 2, 63, 0
8, 30417, Note_on_c, 2, 65, 98
8, 30419, Note_on_c, 2, 67, 0
8, 30485, Note_on_c, 2, 63, 98
8, 30486, Note_on_c, 2, 65, 0
8, 30542, Note_on_c, 2, 63, 0
8, 45602, Note_on_c, 2, 77, 110
8, 45844, Note_on_c, 2, 72, 88
8, 45847, Note_on_c, 2, 77, 0
8, 46080, Note_on_c, 2, 69, 78
8, 46083, Note_on_c, 2, 72, 0
8, 46170, Note_on_c, 2, 70, 78
8, 46177, Note_on_c, 2, 69, 0
8, 46198, Note_on_c, 2, 70, 0
8, 46198, Note_on_c, 2, 72, 78
8, 46333, Note_on_c, 2, 72, 0
8, 46439, Note_on_c, 2, 72, 70
8, 46495, Note_on_c, 2, 77, 88
8, 46500, Note_on_c, 2, 72, 0
8, 46544, Note_on_c, 2, 77, 0
8, 46566, Note_on_c, 2, 77, 98
8, 46683, Note_on_c, 2, 76, 88
8, 46688, Note_on_c, 2, 77, 0
8, 46739, Note_on_c, 2, 74, 88
8, 46742, Note_on_c, 2, 76, 0
8, 46768, Note_on_c, 2, 74, 0
8, 46798, Note_on_c, 2, 74, 98
8, 46923, Note_on_c, 2, 72, 88
8, 46929, Note_on_c, 2, 74, 0
8, 46980, Note_on_c, 2, 70, 88
8, 46982, Note_on_c, 2, 72, 0
8, 47040, Note_on_c, 2, 70, 0
8, 47042, Note_on_c, 2, 69, 88
8, 47130, Note_on_c, 2, 70, 88
8, 47136, Note_on_c, 2, 69, 0
8, 47151, Note_on_c, 2, 70, 0
8, 47156, Note_on_c, 2, 72, 88
8, 47270, Note_on_c, 2, 72, 0
8, 47524, Note_on_c, 2, 74, 98
8, 47643, Note_on_c, 2, 72, 98
8, 47649, Note_on_c, 2, 74, 0
8, 47763, Note_on_c, 2, 70, 110
8, 47769, Note_on_c, 2, 72, 0
8, 47876, Note_on_c, 2, 70, 0
8, 47877, Note_on_c, 2, 69, 98
8, 47974, Note_on_c, 2, 69, 0
8, 47995, Note_on_c, 2, 69, 98
8, 48120, Note_on_c, 2, 69, 0
8, 48120, Note_on_c, 2, 67, 98
8, 48233, Note_on_c, 2, 67, 0
8, 49681, Note_on_c, 2, 79, 98
8, 49776, Note_on_c, 2, 79, 0
8, 49801, Note_on_c, 2, 79, 88
8, 49876, Note_on_c, 2, 79, 0
8, 49922, Note_on_c, 2, 79, 88
8, 49982, Note_on_c, 2, 73, 110
8, 49983, Note_on_c, 2, 79, 0
8, 50027, Note_on_c, 2, 73, 0
8, 50045, Note_on_c, 2, 73, 110
8, 50261, Note_on_c, 2, 73, 0
8, 50279, Note_on_c, 2, 74, 98
8, 50338, Note_on_c, 2, 76, 88
8, 50346, Note_on_c, 2, 74, 0
8, 50394, Note_on_c, 2, 76, 0
8, 50400, Note_on_c, 2, 79, 88
8, 50484, Note_on_c, 2, 79, 0
8, 50488, Note_on_c, 2, 77, 98
8, 50503, Note_on_c, 2, 77, 0
8, 50513, Note_on_c, 2, 77, 110
8, 50614, Note_on_c, 2, 77, 0
8, 50634, Note_on_c, 2, 77, 98
8, 50739, Note_on_c, 2, 77, 0
8, 50756, Note_on_c, 2, 77, 88
8, 50842, Note_on_c, 2, 77, 0
8, 50886, Note_on_c, 2, 77, 110
8, 51006, Note_on_c, 2, 71, 70
8, 51009, Note_on_c, 2, 77, 0
8, 51236, Note_on_c, 2, 72, 70
8, 51243, Note_on_c, 2, 71, 0
8, 51297, Note_on_c, 2, 74, 62
8, 51306, Note_on_c, 2, 72, 0
8, 51357, Note_on_c, 2, 77, 70
8, 51360, Note_on_c, 2, 74, 0
8, 51475, Note_on_c, 2, 77, 0
8, 51479, Note_on_c, 2, 76, 55
8, 51597, Note_on_c, 2, 79, 70
8, 51598, Note_on_c, 2, 76, 0
8, 51844, Note_on_c, 2, 77, 78
8, 51848, Note_on_c, 2, 79, 0
8, 51959, Note_on_c, 2, 76, 88
8, 51961, Note_on_c, 2, 77, 0
8, 52076, Note_on_c, 2, 74, 88
8, 52083, Note_on_c, 2, 76, 0
8, 52196, Note_on_c, 2, 74, 0
8, 52196, Note_on_c, 2, 72, 88
8, 52301, Note_on_c, 2, 72, 0
8, 52323, Note_on_c, 2, 72, 88
8, 52438, Note_on_c, 2, 72, 0
8, 52438, Note_on_c, 2, 71, 88
8, 52552, Note_on_c, 2, 71, 0
8, 52808, Note_on_c, 2, 72, 88
8, 52980, Note_on_c, 2, 74, 78
8, 52988, Note_on_c, 2, 72, 0
8, 53008, Note_on_c, 2, 76, 70
8, 53010, Note_on_c, 2, 74, 0
8, 53038, Note_on_c, 2, 76, 0
8, 53038, Note_on_c, 2, 77, 88
8, 53131, Note_on_c, 2, 77, 0
8, 53160, Note_on_c, 2, 77, 88
8, 53279, Note_on_c, 2, 77, 0
8, 53286, Note_on_c, 2, 76, 78
8, 53464, Note_on_c, 2, 74, 78
8, 53466, Note_on_c, 2, 76, 0
8, 53493, Note_on_c, 2, 72, 70
8, 53496, Note_on_c, 2, 74, 0
8, 53525, Note_on_c, 2, 71, 88
8, 53528, Note_on_c, 2, 72, 0
8, 53693, Note_on_c, 2, 71, 0
8, 53694, Note_on_c, 2, 69, 70
8, 53718, Note_on_c, 2, 69, 0
8, 53720, Note_on_c, 2, 67, 70
8, 53762, Note_on_c, 2, 67, 0
8, 53762, Note_on_c, 2, 79, 78
8, 53859, Note_on_c, 2, 79, 0
8, 53885, Note_on_c, 2, 77, 98
8, 53920, Note_on_c, 2, 77, 0
8, 53936, Note_on_c, 2, 77, 78
8, 53989, Note_on_c, 2, 77, 0
8, 53997, Note_on_c, 2, 76, 70
8, 54120, Note_on_c, 2, 76, 0
8, 54120, Note_on_c, 2, 74, 98
8, 54239, Note_on_c, 2, 74, 0
8, 54245, Note_on_c, 2, 72, 98
8, 54282, Note_on_c, 2, 72, 0
8, 54282, End_track
9, 0, Start_track
9, 0, MIDI_port, 0
9, 0, Title_t, "alt solo"
9, 28380, Note_on_c, 2, 67, 98
9, 28423, Note_on_c, 2, 67, 0
9, 28439, Note_on_c, 2, 67, 88
9, 28482, Note_on_c, 2, 67, 0
9, 28497, Note_on_c, 2, 67, 88
9, 28535, Note_on_c, 2, 67, 0
9, 28556, Note_on_c, 2, 67, 98
9, 28631, Note_on_c, 2, 67, 0
9, 28647, Note_on_c, 2, 67, 98
9, 28671, Note_on_c, 2, 67, 0
9, 28675, Note_on_c, 2, 65, 110
9, 28801, Note_on_c, 2, 65, 0
9, 28857, Note_on_c, 2, 68, 110
9, 28879, Note_on_c, 2, 68, 0
9, 28917, Note_on_c, 2, 68, 110
9, 28968, Note_on_c, 2, 68, 0
9, 28981, Note_on_c, 2, 68, 98
9, 28998, Note_on_c, 2, 68, 0
9, 29008, Note_on_c, 2, 68, 98
9, 29030, Note_on_c, 2, 68, 0
9, 29040, Note_on_c, 2, 67, 98
9, 29143, Note_on_c, 2, 67, 0
9, 29161, Note_on_c, 2, 67, 98
9, 29265, Note_on_c, 2, 67, 0
9, 29280, Note_on_c, 2, 67, 98
9, 29324, Note_on_c, 2, 67, 0
9, 29339, Note_on_c, 2, 67, 98
9, 29378, Note_on_c, 2, 67, 0
9, 29397, Note_on_c, 2, 67, 88
9, 29433, Note_on_c, 2, 67, 0
9, 29456, Note_on_c, 2, 67, 98
9, 29513, Note_on_c, 2, 67, 0
9, 29516, Note_on_c, 2, 68, 110
9, 29611, Note_on_c, 2, 63, 110
9, 29615, Note_on_c, 2, 68, 0
9, 29623, Note_on_c, 2, 63, 0
9, 29636, Note_on_c, 2, 63, 110
9, 29680, Note_on_c, 2, 63, 0
9, 29696, Note_on_c, 2, 63, 110
9, 29752, Note_on_c, 2, 63, 0
9, 29758, Note_on_c, 2, 65, 110
9, 29878, Note_on_c, 2, 63, 98
9, 29881, Note_on_c, 2, 65, 0
9, 29977, Note_on_c, 2, 63, 0
9, 29999, Note_on_c, 2, 63, 110
9, 30173, Note_on_c, 2, 63, 0
9, 30173, Note_on_c, 2, 60, 88
9, 30235, Note_on_c, 2, 60, 0
9, 30237, Note_on_c, 2, 58, 110
9, 30401, Note_on_c, 2, 58, 0
9, 30418, Note_on_c, 2, 58, 110
9, 30462, Note_on_c, 2, 58, 0
9, 30479, Note_on_c, 2, 58, 110
9, 30583, Note_on_c, 2, 58, 0
9, 47277, Note_on_c, 2, 60, 78
9, 47458, Note_on_c, 2, 65, 110
9, 47459, Note_on_c, 2, 60, 0
9, 47496, Note_on_c, 2, 65, 0
9, 47522, Note_on_c, 2, 65, 110
9, 47760, Note_on_c, 2, 65, 0
9, 47761, Note_on_c, 2, 64, 98
9, 47880, Note_on_c, 2, 65, 110
9, 47882, Note_on_c, 2, 64, 0
9, 47974, Note_on_c, 2, 65, 0
9, 47996, Note_on_c, 2, 65, 98
9, 48118, Note_on_c, 2, 64, 98
9, 48120, Note_on_c, 2, 65, 0
9, 48222, Note_on_c, 2, 64, 0
9, 49680, Note_on_c, 2, 64, 88
9, 49770, Note_on_c, 2, 64, 0
9, 49802, Note_on_c, 2, 64, 110
9, 49887, Note_on_c, 2, 64, 0
9, 49927, Note_on_c, 2, 64, 98
9, 49988, Note_on_c, 2, 67, 70
9, 49991, Note_on_c, 2, 64, 0
9, 50016, Note_on_c, 2, 67, 0
9, 50045, Note_on_c, 2, 67, 62
9, 50102, Note_on_c, 2, 70, 62
9, 50111, Note_on_c, 2, 67, 0
9, 50130, Note_on_c, 2, 70, 0
9, 50158, Note_on_c, 2, 70, 78
9, 50211, Note_on_c, 2, 70, 0
9, 50219, Note_on_c, 2, 69, 70
9, 50252, Note_on_c, 2, 69, 0
9, 50278, Note_on_c, 2, 69, 62
9, 50338, Note_on_c, 2, 69, 0
9, 50340, Note_on_c, 2, 67, 70
9, 50396, Note_on_c, 2, 67, 0
9, 50399, Note_on_c, 2, 64, 70
9, 50492, Note_on_c, 2, 64, 0
9, 50493, Note_on_c, 2, 65, 44
9, 50505, Note_on_c, 2, 65, 0
9, 50516, Note_on_c, 2, 65, 88
9, 50612, Note_on_c, 2, 65, 0
9, 50637, Note_on_c, 2, 65, 88
9, 50760, Note_on_c, 2, 60, 78
9, 50762, Note_on_c, 2, 65, 0
9, 50840, Note_on_c, 2, 60, 0
9, 50888, Note_on_c, 2, 62, 124
9, 50947, Note_on_c, 2, 65, 98
9, 50951, Note_on_c, 2, 62, 0
9, 51065, Note_on_c, 2, 65, 0
9, 51070, Note_on_c, 2, 69, 62
9, 51182, Note_on_c, 2, 69, 0
9, 51182, Note_on_c, 2, 67, 78
9, 51291, Note_on_c, 2, 67, 0
9, 51296, Note_on_c, 2, 65, 70
9, 51356, Note_on_c, 2, 62, 88
9, 51357, Note_on_c, 2, 65, 0
9, 51479, Note_on_c, 2, 64, 70
9, 51480, Note_on_c, 2, 62, 0
9, 51593, Note_on_c, 2, 64, 0
9, 51723, Note_on_c, 2, 64, 78
9, 51840, Note_on_c, 2, 64, 0
9, 51843, Note_on_c, 2, 65, 88
9, 51959, Note_on_c, 2, 65, 0
9, 51962, Note_on_c, 2, 67, 88
9, 52079, Note_on_c, 2, 69, 88
9, 52080, Note_on_c, 2, 67, 0
9, 52181, Note_on_c, 2, 69, 0
9, 52200, Note_on_c, 2, 69, 70
9, 52328, Note_on_c, 2, 69, 0
9, 52328, Note_on_c, 2, 67, 78
9, 52425, Note_on_c, 2, 67, 0
9, 52444, Note_on_c, 2, 67, 88
9, 52549, Note_on_c, 2, 67, 0
9, 53044, Note_on_c, 2, 67, 98
9, 53129, Note_on_c, 2, 67, 0
9, 53158, Note_on_c, 2, 67, 78
9, 53247, Note_on_c, 2, 67, 0
9, 53276, Note_on_c, 2, 67, 88
9, 53494, Note_on_c, 2, 67, 0
9, 53520, Note_on_c, 2, 67, 98
9, 53728, Note_on_c, 2, 67, 0
9, 53760, Note_on_c, 2, 67, 88
9, 53876, Note_on_c, 2, 67, 0
9, 53883, Note_on_c, 2, 69, 88
9, 53918, Note_on_c, 2, 69, 0
9, 53939, Note_on_c, 2, 69, 78
9, 53997, Note_on_c, 2, 69, 0
9, 54004, Note_on_c, 2, 67, 88
9, 54215, Note_on_c, 2, 67, 0
9, 54243, Note_on_c, 2, 67, 98
9, 54337, Note_on_c, 2, 67, 0
9, 54337, End_track
10, 0, Start_track
10, 0, MIDI_port, 0
10, 0, Title_t, "tenor solo"
10, 28378, Note_on_c, 2, 60, 78
10, 28417, Note_on_c, 2, 60, 0
10, 28440, Note_on_c, 2, 60, 78
10, 28478, Note_on_c, 2, 60, 0
10, 28499, Note_on_c, 2, 60, 70
10, 28535, Note_on_c, 2, 60, 0
10, 28560, Note_on_c, 2, 60, 88
10, 28639, Note_on_c, 2, 60, 0
10, 28651, Note_on_c, 2, 60, 70
10, 28668, Note_on_c, 2, 60, 0
10, 28682, Note_on_c, 2, 60, 98
10, 28805, Note_on_c, 2, 60, 0
10, 28858, Note_on_c, 2, 59, 88
10, 28898, Note_on_c, 2, 59, 0
10, 28919, Note_on_c, 2, 59, 78
10, 28963, Note_on_c, 2, 59, 0
10, 28979, Note_on_c, 2, 59, 78
10, 28996, Note_on_c, 2, 59, 0
10, 29008, Note_on_c, 2, 59, 78
10, 29023, Note_on_c, 2, 59, 0
10, 29036, Note_on_c, 2, 59, 88
10, 29155, Note_on_c, 2, 59, 0
10, 29158, Note_on_c, 2, 60, 88
10, 29275, Note_on_c, 2, 60, 0
10, 29284, Note_on_c, 2, 61, 98
10, 29324, Note_on_c, 2, 61, 0
10, 29340, Note_on_c, 2, 61, 88
10, 29378, Note_on_c, 2, 61, 0
10, 29398, Note_on_c, 2, 61, 88
10, 29428, Note_on_c, 2, 61, 0
10, 29457, Note_on_c, 2, 61, 98
10, 29516, Note_on_c, 2, 61, 0
10, 29519, Note_on_c, 2, 60, 78
10, 29588, Note_on_c, 2, 60, 0
10, 29608, Note_on_c, 2, 60, 78
10, 29628, Note_on_c, 2, 60, 0
10, 29640, Note_on_c, 2, 60, 62
10, 29674, Note_on_c, 2, 60, 0
10, 29699, Note_on_c, 2, 60, 88
10, 29754, Note_on_c, 2, 60, 0
10, 29760, Note_on_c, 2, 58, 98
10, 29920, Note_on_c, 2, 58, 0
10, 29941, Note_on_c, 2, 58, 88
10, 29999, Note_on_c, 2, 58, 0
10, 30000, Note_on_c, 2, 56, 88
10, 30101, Note_on_c, 2, 56, 0
10, 30120, Note_on_c, 2, 54, 98
10, 30226, Note_on_c, 2, 54, 0
10, 30239, Note_on_c, 2, 55, 88
10, 30365, Note_on_c, 2, 55, 0
10, 30366, Note_on_c, 2, 53, 88
10, 30422, Note_on_c, 2, 56, 98
10, 30427, Note_on_c, 2, 53, 0
10, 30475, Note_on_c, 2, 56, 0
10, 30481, Note_on_c, 2, 55, 98
10, 30553, Note_on_c, 2, 55, 0
10, 47399, Note_on_c, 2, 57, 98
10, 47459, Note_on_c, 2, 57, 0
10, 47459, Note_on_c, 2, 53, 98
10, 47525, Note_on_c, 2, 58, 110
10, 47527, Note_on_c, 2, 53, 0
10, 47635, Note_on_c, 2, 58, 0
10, 47639, Note_on_c, 2, 57, 98
10, 47762, Note_on_c, 2, 55, 98
10, 47764, Note_on_c, 2, 57, 0
10, 47874, Note_on_c, 2, 55, 0
10, 47879, Note_on_c, 2, 53, 98
10, 48000, Note_on_c, 2, 53, 0
10, 48004, Note_on_c, 2, 60, 98
10, 48122, Note_on_c, 2, 60, 0
10, 48122, Note_on_c, 2, 48, 98
10, 48219, Note_on_c, 2, 48, 0
10, 49679, Note_on_c, 2, 60, 98
10, 49765, Note_on_c, 2, 60, 0
10, 49799, Note_on_c, 2, 60, 98
10, 49914, Note_on_c, 2, 60, 0
10, 49924, Note_on_c, 2, 61, 98
10, 49986, Note_on_c, 2, 64, 98
10, 49987, Note_on_c, 2, 61, 0
10, 50020, Note_on_c, 2, 64, 0
10, 50045, Note_on_c, 2, 64, 78
10, 50102, Note_on_c, 2, 64, 0
10, 50102, Note_on_c, 2, 67, 98
10, 50139, Note_on_c, 2, 67, 0
10, 50162, Note_on_c, 2, 67, 98
10, 50222, Note_on_c, 2, 65, 88
10, 50227, Note_on_c, 2, 67, 0
10, 50260, Note_on_c, 2, 65, 0
10, 50281, Note_on_c, 2, 65, 98
10, 50343, Note_on_c, 2, 64, 88
10, 50351, Note_on_c, 2, 65, 0
10, 50399, Note_on_c, 2, 64, 0
10, 50404, Note_on_c, 2, 61, 110
10, 50485, Note_on_c, 2, 61, 0
10, 50496, Note_on_c, 2, 62, 98
10, 50511, Note_on_c, 2, 62, 0
10, 50520, Note_on_c, 2, 62, 110
10, 50638, Note_on_c, 2, 62, 0
10, 50641, Note_on_c, 2, 60, 98
10, 50761, Note_on_c, 2, 60, 0
10, 50761, Note_on_c, 2, 57, 98
10, 50877, Note_on_c, 2, 57, 0
10, 50888, Note_on_c, 2, 59, 110
10, 50945, Note_on_c, 2, 62, 98
10, 50949, Note_on_c, 2, 59, 0
10, 51057, Note_on_c, 2, 62, 0
10, 51062, Note_on_c, 2, 65, 55
10, 51184, Note_on_c, 2, 65, 0
10, 51185, Note_on_c, 2, 64, 49
10, 51296, Note_on_c, 2, 64, 0
10, 51302, Note_on_c, 2, 62, 49
10, 51360, Note_on_c, 2, 62, 0
10, 51360, Note_on_c, 2, 59, 70
10, 51484, Note_on_c, 2, 60, 70
10, 51485, Note_on_c, 2, 59, 0
10, 51591, Note_on_c, 2, 60, 0
10, 51725, Note_on_c, 2, 60, 62
10, 51812, Note_on_c, 2, 60, 0
10, 51845, Note_on_c, 2, 60, 78
10, 51972, Note_on_c, 2, 59, 70
10, 51976, Note_on_c, 2, 60, 0
10, 52080, Note_on_c, 2, 59, 0
10, 52083, Note_on_c, 2, 57, 78
10, 52200, Note_on_c, 2, 57, 0
10, 52200, Note_on_c, 2, 64, 70
10, 52302, Note_on_c, 2, 64, 0
10, 52326, Note_on_c, 2, 64, 70
10, 52441, Note_on_c, 2, 64, 0
10, 52446, Note_on_c, 2, 62, 78
10, 52542, Note_on_c, 2, 62, 0
10, 52803, Note_on_c, 2, 64, 70
10, 52984, Note_on_c, 2, 64, 0
10, 52985, Note_on_c, 2, 62, 62
10, 53014, Note_on_c, 2, 62, 0
10, 53014, Note_on_c, 2, 60, 62
10, 53047, Note_on_c, 2, 60, 0
10, 53047, Note_on_c, 2, 59, 70
10, 53123, Note_on_c, 2, 59, 0
10, 53229, Note_on_c, 2, 57, 55
10, 53257, Note_on_c, 2, 55, 62
10, 53260, Note_on_c, 2, 57, 0
10, 53281, Note_on_c, 2, 55, 0
10, 53287, Note_on_c, 2, 60, 78
10, 53462, Note_on_c, 2, 62, 70
10, 53464, Note_on_c, 2, 60, 0
10, 53491, Note_on_c, 2, 64, 70
10, 53494, Note_on_c, 2, 62, 0
10, 53519, Note_on_c, 2, 64, 0
10, 53526, Note_on_c, 2, 65, 70
10, 53601, Note_on_c, 2, 65, 0
10, 53639, Note_on_c, 2, 65, 78
10, 53710, Note_on_c, 2, 65, 0
10, 53763, Note_on_c, 2, 64, 78
10, 53887, Note_on_c, 2, 57, 88
10, 53888, Note_on_c, 2, 64, 0
10, 53925, Note_on_c, 2, 57, 0
10, 53942, Note_on_c, 2, 57, 78
10, 53994, Note_on_c, 2, 57, 0
10, 54004, Note_on_c, 2, 60, 88
10, 54118, Note_on_c, 2, 60, 0
10, 54123, Note_on_c, 2, 59, 88
10, 54227, Note_on_c, 2, 59, 0
10, 54247, Note_on_c, 2, 60, 110
10, 54289, Note_on_c, 2, 60, 0
10, 54289, End_track
11, 0, Start_track
11, 0, MIDI_port, 0
11, 0, Title_t, "bass solo"
11, 28381, Note_on_c, 2, 52, 88
11, 28423, Note_on_c, 2, 52, 0
11, 28441, Note_on_c, 2, 52, 88
11, 28477, Note_on_c, 2, 52, 0
11, 28500, Note_on_c, 2, 52, 88
11, 28548, Note_on_c, 2, 52, 0
11, 28558, Note_on_c, 2, 53, 98
11, 28633, Note_on_c, 2, 53, 0
11, 28646, Note_on_c, 2, 53, 98
11, 28662, Note_on_c, 2, 53, 0
11, 28677, Note_on_c, 2, 53, 110
11, 28804, Note_on_c, 2, 53, 0
11, 28856, Note_on_c, 2, 53, 98
11, 28900, Note_on_c, 2, 53, 0
11, 28920, Note_on_c, 2, 53, 98
11, 28967, Note_on_c, 2, 53, 0
11, 28983, Note_on_c, 2, 53, 98
11, 28995, Note_on_c, 2, 53, 0
11, 29009, Note_on_c, 2, 53, 98
11, 29037, Note_on_c, 2, 53, 0
11, 29042, Note_on_c, 2, 51, 110
11, 29140, Note_on_c, 2, 51, 0
11, 29161, Note_on_c, 2, 51, 110
11, 29265, Note_on_c, 2, 51, 0
11, 29278, Note_on_c, 2, 51, 110
11, 29323, Note_on_c, 2, 51, 0
11, 29339, Note_on_c, 2, 51, 98
11, 29383, Note_on_c, 2, 51, 0
11, 29396, Note_on_c, 2, 51, 98
11, 29444, Note_on_c, 2, 51, 0
11, 29456, Note_on_c, 2, 51, 110
11, 29499, Note_on_c, 2, 51, 0
11, 29519, Note_on_c, 2, 51, 110
11, 29598, Note_on_c, 2, 51, 0
11, 29610, Note_on_c, 2, 51, 88
11, 29624, Note_on_c, 2, 51, 0
11, 29638, Note_on_c, 2, 51, 98
11, 29683, Note_on_c, 2, 51, 0
11, 29698, Note_on_c, 2, 51, 110
11, 29749, Note_on_c, 2, 51, 0
11, 29757, Note_on_c, 2, 50, 98
11, 29875, Note_on_c, 2, 50, 0
11, 29875, Note_on_c, 2, 51, 110
11, 29994, Note_on_c, 2, 51, 0
11, 29995, Note_on_c, 2, 44, 110
11, 30116, Note_on_c, 2, 44, 0
11, 30118, Note_on_c, 2, 45, 98
11, 30230, Note_on_c, 2, 45, 0
11, 30230, Note_on_c, 2, 46, 98
11, 30397, Note_on_c, 2, 46, 0
11, 30418, Note_on_c, 2, 46, 110
11, 30474, Note_on_c, 2, 46, 0
11, 30478, Note_on_c, 2, 51, 110
11, 30594, Note_on_c, 2, 51, 0
11, 48000, Note_on_c, 2, 60, 98
11, 48238, Note_on_c, 2, 60, 0
11, 48238, Note_on_c, 2, 55, 98
11, 48479, Note_on_c, 2, 52, 88
11, 48480, Note_on_c, 2, 55, 0
11, 48577, Note_on_c, 2, 53, 78
11, 48580, Note_on_c, 2, 52, 0
11, 48600, Note_on_c, 2, 53, 0
11, 48603, Note_on_c, 2, 55, 98
11, 48721, Note_on_c, 2, 55, 0
11, 48833, Note_on_c, 2, 55, 88
11, 48916, Note_on_c, 2, 55, 0
11, 48926, Note_on_c, 2, 60, 98
11, 48941, Note_on_c, 2, 60, 0
11, 48951, Note_on_c, 2, 60, 110
11, 49152, Note_on_c, 2, 62, 98
11, 49156, Note_on_c, 2, 60, 0
11, 49176, Note_on_c, 2, 60, 88
11, 49187, Note_on_c, 2, 62, 0
11, 49203, Note_on_c, 2, 60, 0
11, 49205, Note_on_c, 2, 59, 98
11, 49259, Note_on_c, 2, 57, 98
11, 49262, Note_on_c, 2, 59, 0
11, 49311, Note_on_c, 2, 57, 0
11, 49318, Note_on_c, 2, 55, 98
11, 49377, Note_on_c, 2, 55, 0
11, 49378, Note_on_c, 2, 53, 98
11, 49436, Note_on_c, 2, 53, 0
11, 49437, Note_on_c, 2, 52, 98
11, 49528, Note_on_c, 2, 52, 0
11, 49530, Note_on_c, 2, 53, 98
11, 49556, Note_on_c, 2, 55, 110
11, 49560, Note_on_c, 2, 53, 0
11, 49684, Note_on_c, 2, 55, 0
11, 51837, Note_on_c, 2, 57, 98
11, 51961, Note_on_c, 2, 57, 0
11, 51963, Note_on_c, 2, 55, 98
11, 52000, Note_on_c, 2, 55, 0
11, 52019, Note_on_c, 2, 55, 88
11, 52078, Note_on_c, 2, 55, 0
11, 52083, Note_on_c, 2, 53, 98
11, 52198, Note_on_c, 2, 53, 0
11, 52202, Note_on_c, 2, 54, 110
11, 52316, Note_on_c, 2, 54, 0
11, 52322, Note_on_c, 2, 55, 98
11, 52415, Note_on_c, 2, 55, 0
11, 52435, Note_on_c, 2, 55, 98
11, 52531, Note_on_c, 2, 55, 0
11, 52557, Note_on_c, 2, 55, 98
11, 52736, Note_on_c, 2, 55, 0
11, 52736, Note_on_c, 2, 57, 98
11, 52761, Note_on_c, 2, 59, 70
11, 52762, Note_on_c, 2, 57, 0
11, 52779, Note_on_c, 2, 59, 0
11, 52791, Note_on_c, 2, 60, 110
11, 52926, Note_on_c, 2, 60, 0
11, 52926, Note_on_c, 2, 55, 110
11, 53008, Note_on_c, 2, 55, 0
11, 53040, Note_on_c, 2, 55, 98
11, 53210, Note_on_c, 2, 55, 0
11, 53218, Note_on_c, 2, 57, 98
11, 53247, Note_on_c, 2, 57, 0
11, 53247, Note_on_c, 2, 59, 88
11, 53267, Note_on_c, 2, 59, 0
11, 53278, Note_on_c, 2, 60, 98
11, 53397, Note_on_c, 2, 60, 0
11, 53399, Note_on_c, 2, 55, 110
11, 53485, Note_on_c, 2, 55, 0
11, 53514, Note_on_c, 2, 55, 110
11, 53694, Note_on_c, 2, 55, 0
11, 53694, Note_on_c, 2, 57, 98
11, 53724, Note_on_c, 2, 57, 0
11, 53732, Note_on_c, 2, 59, 98
11, 53758, Note_on_c, 2, 59, 0
11, 53762, Note_on_c, 2, 60, 98
11, 53875, Note_on_c, 2, 60, 0
11, 53877, Note_on_c, 2, 53, 110
11, 53984, Note_on_c, 2, 53, 0
11, 53996, Note_on_c, 2, 55, 110
11, 54242, Note_on_c, 2, 55, 0
11, 54244, Note_on_c, 2, 48, 110
11, 54357, Note_on_c, 2, 48, 0
11, 54357, End_track
12, 0, Start_track
12, 0, MIDI_port, 0
12, 0, Title_t, "sequenced by Michael Petri"
12, 0, End_track
0, 0, End_of_file