0, 0, Header, 1, 13, 240
1, 0, Start_track
1, 0, Time_signature, 3, 2, 24, 8
1, 0, Tempo, 444444
1, 1440, Tempo, 441176
1, 5760, Tempo, 454545
1, 6480, Tempo, 441176
1, 10800, Tempo, 461538
1, 12240, Tempo, 444444
1, 12960, Tempo, 441176
1, 17280, Tempo, 454545
1, 18000, Tempo, 441176
1, 22320, Tempo, 461538
1, 23760, Tempo, 441176
1, 26640, Tempo, 437956
1, 28800, Tempo, 447761
1, 29040, Tempo, 451128
1, 29280, Tempo, 454545
1, 29520, Tempo, 444444
1, 30240, Tempo, 441176
1, 34560, Tempo, 454545
1, 35280, Tempo, 441176
1, 42480, Tempo, 461538
1, 43920, Tempo, 441176
1, 46800, Tempo, 437956
1, 48960, Tempo, 447761
1, 49200, Tempo, 451128
1, 49440, Tempo, 454545
1, 49680, Tempo, 444444
1, 50400, Tempo, 441176
1, 54720, Tempo, 454545
1, 55440, Tempo, 441176
1, 62640, Tempo, 461538
1, 64080, Tempo, 458015
1, 68640, Tempo, 461538
1, 68880, Tempo, 465116
1, 69120, Tempo, 468750
1, 69360, Tempo, 472441
1, 69600, Tempo, 476190
1, 69840, Tempo, 458015
1, 74400, Tempo, 461538
1, 74640, Tempo, 465116
1, 74880, Tempo, 468750
1, 75120, Tempo, 472441
1, 75360, Tempo, 476190
1, 75600, Tempo, 458015
1, 79920, Tempo, 465116
1, 81360, Tempo, 458015
1, 85920, Tempo, 461538
1, 86160, Tempo, 465116
1, 86400, Tempo, 468750
1, 86640, Tempo, 472441
1, 86880, Tempo, 476190
1, 87120, Tempo, 458015
1, 91440, Tempo, 465116
1, 92880, Tempo, 458015
1, 97440, Tempo, 461538
1, 97680, Tempo, 465116
1, 97920, Tempo, 468750
1, 98160, Tempo, 472441
1, 98400, Tempo, 476190
1, 98640, Tempo, 444444
1, 99360, Tempo, 441176
1, 103680, Tempo, 454545
1, 103920, Tempo, 454545
1, 104160, Tempo, 454545
1, 104400, Tempo, 441176
1, 108720, Tempo, 454545
1, 110160, Tempo, 441176
1, 113040, Tempo, 437956
1, 115200, Tempo, 451128
1, 115440, Tempo, 454545
1, 115680, Tempo, 458015
1, 115920, Tempo, 441176
1, 120960, Tempo, 454545
1, 121680, Tempo, 441176
1, 128400, Tempo, 447761
1, 128640, Tempo, 454545
1, 128880, Tempo, 483871
1, 129120, Tempo, 504202
1, 129360, Tempo, 521739
1, 129600, Tempo, 508475
1, 130320, Tempo, 666667
1, 130320, End_track
2, 0, Start_track
2, 0, Program_c, 0, 73
2, 0, Control_c, 0, 7, 90
2, 0, Control_c, 0, 91, 80
2, 0, Control_c, 0, 10, 56
2, 720, Note_on_c, 0, 75, 92
2, 876, Note_off_c, 0, 75, 64
2, 960, Note_on_c, 0, 87, 92
2, 1116, Note_off_c, 0, 87, 64
2, 1200, Note_on_c, 0, 87, 92
2, 1356, Note_off_c, 0, 87, 64
2, 1440, Note_on_c, 0, 87, 92
2, 1596, Note_off_c, 0, 87, 64
2, 1680, Note_on_c, 0, 87, 92
2, 1836, Note_off_c, 0, 87, 64
2, 1920, Note_on_c, 0, 87, 92
2, 2076, Note_off_c, 0, 87, 64
2, 2160, Note_on_c, 0, 87, 92
2, 2316, Note_off_c, 0, 87, 64
2, 2400, Note_on_c, 0, 84, 92
2, 2556, Note_off_c, 0, 84, 64
2, 2640, Note_on_c, 0, 84, 92
2, 2796, Note_off_c, 0, 84, 64
2, 2880, Note_on_c, 0, 84, 92
2, 3036, Note_off_c, 0, 84, 64
2, 3120, Note_on_c, 0, 84, 92
2, 3276, Note_off_c, 0, 84, 64
2, 3360, Note_on_c, 0, 84, 92
2, 3516, Note_off_c, 0, 84, 64
2, 3600, Note_on_c, 0, 82, 92
2, 3756, Note_off_c, 0, 82, 64
2, 3840, Note_on_c, 0, 82, 92
2, 3996, Note_off_c, 0, 82, 64
2, 4080, Note_on_c, 0, 82, 92
2, 4236, Note_off_c, 0, 82, 64
2, 4320, Note_on_c, 0, 82, 92
2, 4476, Note_off_c, 0, 82, 64
2, 4560, Note_on_c, 0, 82, 92
2, 4716, Note_off_c, 0, 82, 64
2, 4800, Note_on_c, 0, 82, 92
2, 4956, Note_off_c, 0, 82, 64
2, 5040, Note_on_c, 0, 82, 92
2, 5196, Note_off_c, 0, 82, 64
2, 5280, Note_on_c, 0, 79, 92
2, 5436, Note_off_c, 0, 79, 64
2, 5520, Note_on_c, 0, 79, 92
2, 5676, Note_off_c, 0, 79, 64
2, 5760, Note_on_c, 0, 79, 92
2, 5916, Note_off_c, 0, 79, 64
2, 6000, Note_on_c, 0, 79, 92
2, 6156, Note_off_c, 0, 79, 64
2, 6240, Note_on_c, 0, 79, 92
2, 6396, Note_off_c, 0, 79, 64
2, 10080, Note_on_c, 0, 86, 70
2, 10560, Note_off_c, 0, 86, 64
2, 10560, Note_on_c, 0, 87, 70
2, 10680, Note_off_c, 0, 87, 64
2, 10680, Note_on_c, 0, 84, 70
2, 10776, Note_off_c, 0, 84, 64
2, 10800, Note_on_c, 0, 82, 70
2, 10932, Note_off_c, 0, 82, 64
2, 11040, Note_on_c, 0, 82, 70
2, 11280, Note_off_c, 0, 82, 64
2, 11280, Note_on_c, 0, 86, 70
2, 11472, Note_off_c, 0, 86, 64
2, 11520, Note_on_c, 0, 82, 70
2, 11652, Note_off_c, 0, 82, 64
2, 12240, Note_on_c, 0, 75, 92
2, 12396, Note_off_c, 0, 75, 64
2, 12480, Note_on_c, 0, 87, 92
2, 12636, Note_off_c, 0, 87, 64
2, 12720, Note_on_c, 0, 87, 92
2, 12876, Note_off_c, 0, 87, 64
2, 12960, Note_on_c, 0, 87, 92
2, 13116, Note_off_c, 0, 87, 64
2, 13200, Note_on_c, 0, 87, 92
2, 13356, Note_off_c, 0, 87, 64
2, 13440, Note_on_c, 0, 87, 92
2, 13596, Note_off_c, 0, 87, 64
2, 13680, Note_on_c, 0, 87, 92
2, 13836, Note_off_c, 0, 87, 64
2, 13920, Note_on_c, 0, 84, 92
2, 14076, Note_off_c, 0, 84, 64
2, 14160, Note_on_c, 0, 84, 92
2, 14316, Note_off_c, 0, 84, 64
2, 14400, Note_on_c, 0, 84, 92
2, 14556, Note_off_c, 0, 84, 64
2, 14640, Note_on_c, 0, 84, 92
2, 14796, Note_off_c, 0, 84, 64
2, 14880, Note_on_c, 0, 84, 92
2, 15036, Note_off_c, 0, 84, 64
2, 15120, Note_on_c, 0, 82, 92
2, 15276, Note_off_c, 0, 82, 64
2, 15360, Note_on_c, 0, 82, 92
2, 15516, Note_off_c, 0, 82, 64
2, 15600, Note_on_c, 0, 82, 92
2, 15756, Note_off_c, 0, 82, 64
2, 15840, Note_on_c, 0, 82, 92
2, 15996, Note_off_c, 0, 82, 64
2, 16080, Note_on_c, 0, 82, 92
2, 16236, Note_off_c, 0, 82, 64
2, 16320, Note_on_c, 0, 82, 92
2, 16476, Note_off_c, 0, 82, 64
2, 16560, Note_on_c, 0, 82, 92
2, 16716, Note_off_c, 0, 82, 64
2, 16800, Note_on_c, 0, 79, 92
2, 16956, Note_off_c, 0, 79, 64
2, 17040, Note_on_c, 0, 79, 92
2, 17196, Note_off_c, 0, 79, 64
2, 17280, Note_on_c, 0, 79, 92
2, 17436, Note_off_c, 0, 79, 64
2, 17520, Note_on_c, 0, 79, 92
2, 17676, Note_off_c, 0, 79, 64
2, 17760, Note_on_c, 0, 79, 92
2, 17916, Note_off_c, 0, 79, 64
2, 21600, Note_on_c, 0, 86, 70
2, 22080, Note_off_c, 0, 86, 64
2, 22080, Note_on_c, 0, 87, 70
2, 22200, Note_off_c, 0, 87, 64
2, 22200, Note_on_c, 0, 84, 70
2, 22296, Note_off_c, 0, 84, 64
2, 22320, Note_on_c, 0, 82, 70
2, 22452, Note_off_c, 0, 82, 64
2, 22560, Note_on_c, 0, 82, 70
2, 22800, Note_off_c, 0, 82, 64
2, 22800, Note_on_c, 0, 86, 70
2, 22992, Note_off_c, 0, 86, 64
2, 23040, Note_on_c, 0, 82, 70
2, 23172, Note_off_c, 0, 82, 64
2, 23760, Note_on_c, 0, 82, 92
2, 23952, Note_off_c, 0, 82, 64
2, 24000, Note_on_c, 0, 82, 92
2, 24192, Note_off_c, 0, 82, 64
2, 24240, Note_on_c, 0, 82, 92
2, 24432, Note_off_c, 0, 82, 64
2, 24480, Note_on_c, 0, 82, 92
2, 24672, Note_off_c, 0, 82, 64
2, 24720, Note_on_c, 0, 82, 92
2, 24912, Note_off_c, 0, 82, 64
2, 24960, Note_on_c, 0, 82, 92
2, 25152, Note_off_c, 0, 82, 64
2, 25200, Note_on_c, 0, 82, 92
2, 25392, Note_off_c, 0, 82, 64
2, 25440, Note_on_c, 0, 82, 92
2, 25632, Note_off_c, 0, 82, 64
2, 25680, Note_on_c, 0, 82, 92
2, 25872, Note_off_c, 0, 82, 64
2, 25920, Note_on_c, 0, 82, 92
2, 26112, Note_off_c, 0, 82, 64
2, 26160, Note_on_c, 0, 82, 92
2, 26352, Note_off_c, 0, 82, 64
2, 26400, Note_on_c, 0, 82, 92
2, 26592, Note_off_c, 0, 82, 64
2, 26640, Note_on_c, 0, 84, 92
2, 26832, Note_off_c, 0, 84, 64
2, 27360, Note_on_c, 0, 80, 92
2, 27552, Note_off_c, 0, 80, 64
2, 28080, Note_on_c, 0, 77, 92
2, 28272, Note_off_c, 0, 77, 64
2, 29520, Note_on_c, 0, 75, 92
2, 29676, Note_off_c, 0, 75, 64
2, 29760, Note_on_c, 0, 87, 92
2, 29916, Note_off_c, 0, 87, 64
2, 30000, Note_on_c, 0, 87, 92
2, 30156, Note_off_c, 0, 87, 64
2, 30240, Note_on_c, 0, 87, 92
2, 30396, Note_off_c, 0, 87, 64
2, 30480, Note_on_c, 0, 87, 92
2, 30636, Note_off_c, 0, 87, 64
2, 30720, Note_on_c, 0, 87, 92
2, 30876, Note_off_c, 0, 87, 64
2, 30960, Note_on_c, 0, 87, 92
2, 31116, Note_off_c, 0, 87, 64
2, 31200, Note_on_c, 0, 84, 92
2, 31356, Note_off_c, 0, 84, 64
2, 31440, Note_on_c, 0, 84, 92
2, 31596, Note_off_c, 0, 84, 64
2, 31680, Note_on_c, 0, 84, 92
2, 31836, Note_off_c, 0, 84, 64
2, 31920, Note_on_c, 0, 84, 92
2, 32076, Note_off_c, 0, 84, 64
2, 32160, Note_on_c, 0, 84, 92
2, 32316, Note_off_c, 0, 84, 64
2, 32400, Note_on_c, 0, 82, 92
2, 32556, Note_off_c, 0, 82, 64
2, 32640, Note_on_c, 0, 82, 92
2, 32796, Note_off_c, 0, 82, 64
2, 32880, Note_on_c, 0, 82, 92
2, 33036, Note_off_c, 0, 82, 64
2, 33120, Note_on_c, 0, 82, 92
2, 33276, Note_off_c, 0, 82, 64
2, 33360, Note_on_c, 0, 82, 92
2, 33516, Note_off_c, 0, 82, 64
2, 33600, Note_on_c, 0, 82, 92
2, 33756, Note_off_c, 0, 82, 64
2, 33840, Note_on_c, 0, 82, 92
2, 33996, Note_off_c, 0, 82, 64
2, 34080, Note_on_c, 0, 79, 92
2, 34236, Note_off_c, 0, 79, 64
2, 34320, Note_on_c, 0, 79, 92
2, 34476, Note_off_c, 0, 79, 64
2, 34560, Note_on_c, 0, 79, 92
2, 34716, Note_off_c, 0, 79, 64
2, 34800, Note_on_c, 0, 79, 92
2, 34956, Note_off_c, 0, 79, 64
2, 35040, Note_on_c, 0, 79, 92
2, 35196, Note_off_c, 0, 79, 64
2, 38160, Note_on_c, 0, 77, 58
2, 38880, Note_off_c, 0, 77, 64
2, 38880, Note_on_c, 0, 74, 58
2, 39456, Note_off_c, 0, 74, 64
2, 39600, Note_on_c, 0, 82, 105
2, 40176, Note_off_c, 0, 82, 64
2, 40320, Note_on_c, 0, 82, 105
2, 40440, Note_off_c, 0, 82, 64
2, 40440, Note_on_c, 0, 80, 105
2, 40536, Note_off_c, 0, 80, 64
2, 40560, Note_on_c, 0, 80, 105
2, 40680, Note_off_c, 0, 80, 64
2, 40680, Note_on_c, 0, 79, 105
2, 40776, Note_off_c, 0, 79, 64
2, 40800, Note_on_c, 0, 79, 105
2, 40920, Note_off_c, 0, 79, 64
2, 40920, Note_on_c, 0, 77, 105
2, 41016, Note_off_c, 0, 77, 64
2, 41040, Note_on_c, 0, 82, 105
2, 41280, Note_off_c, 0, 82, 64
2, 41280, Note_on_c, 0, 86, 105
2, 41520, Note_off_c, 0, 86, 64
2, 41520, Note_on_c, 0, 87, 105
2, 41712, Note_off_c, 0, 87, 64
2, 41760, Note_on_c, 0, 91, 105
2, 41880, Note_off_c, 0, 91, 64
2, 41880, Note_on_c, 0, 89, 105
2, 41976, Note_off_c, 0, 89, 64
2, 42000, Note_on_c, 0, 89, 105
2, 42120, Note_off_c, 0, 89, 64
2, 42120, Note_on_c, 0, 87, 105
2, 42216, Note_off_c, 0, 87, 64
2, 42240, Note_on_c, 0, 87, 105
2, 42360, Note_off_c, 0, 87, 64
2, 42360, Note_on_c, 0, 86, 105
2, 42456, Note_off_c, 0, 86, 64
2, 42480, Note_on_c, 0, 87, 125
2, 42600, Note_off_c, 0, 87, 64
2, 42720, Note_on_c, 0, 87, 105
2, 42960, Note_off_c, 0, 87, 64
2, 42960, Note_on_c, 0, 91, 105
2, 43152, Note_off_c, 0, 91, 64
2, 43200, Note_on_c, 0, 87, 105
2, 43392, Note_off_c, 0, 87, 64
2, 43920, Note_on_c, 0, 82, 92
2, 44112, Note_off_c, 0, 82, 64
2, 44160, Note_on_c, 0, 82, 92
2, 44352, Note_off_c, 0, 82, 64
2, 44400, Note_on_c, 0, 82, 92
2, 44592, Note_off_c, 0, 82, 64
2, 44640, Note_on_c, 0, 82, 92
2, 44832, Note_off_c, 0, 82, 64
2, 44880, Note_on_c, 0, 82, 92
2, 45072, Note_off_c, 0, 82, 64
2, 45120, Note_on_c, 0, 82, 92
2, 45312, Note_off_c, 0, 82, 64
2, 45360, Note_on_c, 0, 82, 92
2, 45552, Note_off_c, 0, 82, 64
2, 45600, Note_on_c, 0, 82, 92
2, 45792, Note_off_c, 0, 82, 64
2, 45840, Note_on_c, 0, 82, 92
2, 46032, Note_off_c, 0, 82, 64
2, 46080, Note_on_c, 0, 82, 92
2, 46272, Note_off_c, 0, 82, 64
2, 46320, Note_on_c, 0, 82, 92
2, 46512, Note_off_c, 0, 82, 64
2, 46560, Note_on_c, 0, 82, 92
2, 46752, Note_off_c, 0, 82, 64
2, 46800, Note_on_c, 0, 84, 92
2, 46992, Note_off_c, 0, 84, 64
2, 47520, Note_on_c, 0, 80, 92
2, 47712, Note_off_c, 0, 80, 64
2, 48240, Note_on_c, 0, 77, 92
2, 48432, Note_off_c, 0, 77, 64
2, 49680, Note_on_c, 0, 75, 92
2, 49836, Note_off_c, 0, 75, 64
2, 49920, Note_on_c, 0, 87, 92
2, 50076, Note_off_c, 0, 87, 64
2, 50160, Note_on_c, 0, 87, 92
2, 50316, Note_off_c, 0, 87, 64
2, 50400, Note_on_c, 0, 87, 92
2, 50556, Note_off_c, 0, 87, 64
2, 50640, Note_on_c, 0, 87, 92
2, 50796, Note_off_c, 0, 87, 64
2, 50880, Note_on_c, 0, 87, 92
2, 51036, Note_off_c, 0, 87, 64
2, 51120, Note_on_c, 0, 87, 92
2, 51276, Note_off_c, 0, 87, 64
2, 51360, Note_on_c, 0, 84, 92
2, 51516, Note_off_c, 0, 84, 64
2, 51600, Note_on_c, 0, 84, 92
2, 51756, Note_off_c, 0, 84, 64
2, 51840, Note_on_c, 0, 84, 92
2, 51996, Note_off_c, 0, 84, 64
2, 52080, Note_on_c, 0, 84, 92
2, 52236, Note_off_c, 0, 84, 64
2, 52320, Note_on_c, 0, 84, 92
2, 52476, Note_off_c, 0, 84, 64
2, 52560, Note_on_c, 0, 82, 92
2, 52716, Note_off_c, 0, 82, 64
2, 52800, Note_on_c, 0, 82, 92
2, 52956, Note_off_c, 0, 82, 64
2, 53040, Note_on_c, 0, 82, 92
2, 53196, Note_off_c, 0, 82, 64
2, 53280, Note_on_c, 0, 82, 92
2, 53436, Note_off_c, 0, 82, 64
2, 53520, Note_on_c, 0, 82, 92
2, 53676, Note_off_c, 0, 82, 64
2, 53760, Note_on_c, 0, 82, 92
2, 53916, Note_off_c, 0, 82, 64
2, 54000, Note_on_c, 0, 82, 92
2, 54156, Note_off_c, 0, 82, 64
2, 54240, Note_on_c, 0, 79, 92
2, 54396, Note_off_c, 0, 79, 64
2, 54480, Note_on_c, 0, 79, 92
2, 54636, Note_off_c, 0, 79, 64
2, 54720, Note_on_c, 0, 79, 92
2, 54876, Note_off_c, 0, 79, 64
2, 54960, Note_on_c, 0, 79, 92
2, 55116, Note_off_c, 0, 79, 64
2, 55200, Note_on_c, 0, 79, 92
2, 55356, Note_off_c, 0, 79, 64
2, 58320, Note_on_c, 0, 77, 58
2, 59040, Note_off_c, 0, 77, 64
2, 59040, Note_on_c, 0, 74, 58
2, 59616, Note_off_c, 0, 74, 64
2, 59760, Note_on_c, 0, 82, 105
2, 60336, Note_off_c, 0, 82, 64
2, 60480, Note_on_c, 0, 82, 105
2, 60600, Note_off_c, 0, 82, 64
2, 60600, Note_on_c, 0, 80, 105
2, 60696, Note_off_c, 0, 80, 64
2, 60720, Note_on_c, 0, 80, 105
2, 60840, Note_off_c, 0, 80, 64
2, 60840, Note_on_c, 0, 79, 105
2, 60936, Note_off_c, 0, 79, 64
2, 60960, Note_on_c, 0, 79, 105
2, 61080, Note_off_c, 0, 79, 64
2, 61080, Note_on_c, 0, 77, 105
2, 61176, Note_off_c, 0, 77, 64
2, 61200, Note_on_c, 0, 82, 105
2, 61440, Note_off_c, 0, 82, 64
2, 61440, Note_on_c, 0, 86, 105
2, 61680, Note_off_c, 0, 86, 64
2, 61680, Note_on_c, 0, 87, 105
2, 61872, Note_off_c, 0, 87, 64
2, 61920, Note_on_c, 0, 91, 105
2, 62040, Note_off_c, 0, 91, 64
2, 62040, Note_on_c, 0, 89, 105
2, 62136, Note_off_c, 0, 89, 64
2, 62160, Note_on_c, 0, 89, 105
2, 62280, Note_off_c, 0, 89, 64
2, 62280, Note_on_c, 0, 87, 105
2, 62376, Note_off_c, 0, 87, 64
2, 62400, Note_on_c, 0, 87, 105
2, 62520, Note_off_c, 0, 87, 64
2, 62520, Note_on_c, 0, 86, 105
2, 62616, Note_off_c, 0, 86, 64
2, 62640, Note_on_c, 0, 87, 125
2, 62760, Note_off_c, 0, 87, 64
2, 62880, Note_on_c, 0, 87, 105
2, 63120, Note_off_c, 0, 87, 64
2, 63120, Note_on_c, 0, 91, 105
2, 63312, Note_off_c, 0, 91, 64
2, 63360, Note_on_c, 0, 87, 105
2, 63552, Note_off_c, 0, 87, 64
2, 64080, Note_on_c, 0, 75, 70
2, 64272, Note_off_c, 0, 75, 64
2, 66240, Note_on_c, 0, 74, 70
2, 66360, Note_off_c, 0, 74, 64
2, 66360, Note_on_c, 0, 77, 70
2, 66480, Note_off_c, 0, 77, 64
2, 66480, Note_on_c, 0, 80, 70
2, 66600, Note_off_c, 0, 80, 64
2, 66600, Note_on_c, 0, 79, 70
2, 66720, Note_off_c, 0, 79, 64
2, 66720, Note_on_c, 0, 77, 70
2, 66840, Note_off_c, 0, 77, 64
2, 66840, Note_on_c, 0, 75, 70
2, 66960, Note_off_c, 0, 75, 64
2, 66960, Note_on_c, 0, 74, 70
2, 67152, Note_off_c, 0, 74, 64
2, 69120, Note_on_c, 0, 75, 70
2, 69240, Note_off_c, 0, 75, 64
2, 69240, Note_on_c, 0, 79, 70
2, 69360, Note_off_c, 0, 79, 64
2, 69360, Note_on_c, 0, 82, 70
2, 69480, Note_off_c, 0, 82, 64
2, 69480, Note_on_c, 0, 79, 70
2, 69600, Note_off_c, 0, 79, 64
2, 69600, Note_on_c, 0, 80, 70
2, 69720, Note_off_c, 0, 80, 64
2, 69720, Note_on_c, 0, 77, 70
2, 69840, Note_off_c, 0, 77, 64
2, 69840, Note_on_c, 0, 75, 70
2, 70032, Note_off_c, 0, 75, 64
2, 72000, Note_on_c, 0, 74, 70
2, 72120, Note_off_c, 0, 74, 64
2, 72120, Note_on_c, 0, 77, 70
2, 72240, Note_off_c, 0, 77, 64
2, 72240, Note_on_c, 0, 80, 70
2, 72360, Note_off_c, 0, 80, 64
2, 72360, Note_on_c, 0, 79, 70
2, 72480, Note_off_c, 0, 79, 64
2, 72480, Note_on_c, 0, 77, 70
2, 72600, Note_off_c, 0, 77, 64
2, 72600, Note_on_c, 0, 75, 70
2, 72720, Note_off_c, 0, 75, 64
2, 72720, Note_on_c, 0, 74, 70
2, 72912, Note_off_c, 0, 74, 64
2, 74880, Note_on_c, 0, 75, 70
2, 75000, Note_off_c, 0, 75, 64
2, 75000, Note_on_c, 0, 79, 70
2, 75120, Note_off_c, 0, 79, 64
2, 75120, Note_on_c, 0, 82, 70
2, 75240, Note_off_c, 0, 82, 64
2, 75240, Note_on_c, 0, 79, 70
2, 75360, Note_off_c, 0, 79, 64
2, 75360, Note_on_c, 0, 80, 70
2, 75480, Note_off_c, 0, 80, 64
2, 75480, Note_on_c, 0, 77, 70
2, 75600, Note_off_c, 0, 77, 64
2, 75600, Note_on_c, 0, 75, 70
2, 75792, Note_off_c, 0, 75, 64
2, 81360, Note_on_c, 0, 75, 70
2, 81552, Note_off_c, 0, 75, 64
2, 83520, Note_on_c, 0, 74, 70
2, 83640, Note_off_c, 0, 74, 64
2, 83640, Note_on_c, 0, 77, 70
2, 83760, Note_off_c, 0, 77, 64
2, 83760, Note_on_c, 0, 80, 70
2, 83880, Note_off_c, 0, 80, 64
2, 83880, Note_on_c, 0, 79, 70
2, 84000, Note_off_c, 0, 79, 64
2, 84000, Note_on_c, 0, 77, 70
2, 84120, Note_off_c, 0, 77, 64
2, 84120, Note_on_c, 0, 75, 70
2, 84240, Note_off_c, 0, 75, 64
2, 84240, Note_on_c, 0, 74, 70
2, 84432, Note_off_c, 0, 74, 64
2, 86400, Note_on_c, 0, 75, 70
2, 86520, Note_off_c, 0, 75, 64
2, 86520, Note_on_c, 0, 79, 70
2, 86640, Note_off_c, 0, 79, 64
2, 86640, Note_on_c, 0, 82, 70
2, 86760, Note_off_c, 0, 82, 64
2, 86760, Note_on_c, 0, 79, 70
2, 86880, Note_off_c, 0, 79, 64
2, 86880, Note_on_c, 0, 80, 70
2, 87000, Note_off_c, 0, 80, 64
2, 87000, Note_on_c, 0, 77, 70
2, 87120, Note_off_c, 0, 77, 64
2, 87120, Note_on_c, 0, 75, 70
2, 87312, Note_off_c, 0, 75, 64
2, 92880, Note_on_c, 0, 75, 70
2, 93072, Note_off_c, 0, 75, 64
2, 95040, Note_on_c, 0, 74, 70
2, 95160, Note_off_c, 0, 74, 64
2, 95160, Note_on_c, 0, 77, 70
2, 95280, Note_off_c, 0, 77, 64
2, 95280, Note_on_c, 0, 80, 70
2, 95400, Note_off_c, 0, 80, 64
2, 95400, Note_on_c, 0, 79, 70
2, 95520, Note_off_c, 0, 79, 64
2, 95520, Note_on_c, 0, 77, 70
2, 95640, Note_off_c, 0, 77, 64
2, 95640, Note_on_c, 0, 75, 70
2, 95760, Note_off_c, 0, 75, 64
2, 95760, Note_on_c, 0, 74, 70
2, 95952, Note_off_c, 0, 74, 64
2, 97920, Note_on_c, 0, 75, 70
2, 98040, Note_off_c, 0, 75, 64
2, 98040, Note_on_c, 0, 79, 70
2, 98160, Note_off_c, 0, 79, 64
2, 98160, Note_on_c, 0, 82, 70
2, 98280, Note_off_c, 0, 82, 64
2, 98280, Note_on_c, 0, 79, 70
2, 98400, Note_off_c, 0, 79, 64
2, 98400, Note_on_c, 0, 80, 70
2, 98520, Note_off_c, 0, 80, 64
2, 98520, Note_on_c, 0, 77, 70
2, 98640, Note_off_c, 0, 77, 64
2, 98640, Note_on_c, 0, 75, 92
2, 98796, Note_off_c, 0, 75, 64
2, 98880, Note_on_c, 0, 87, 92
2, 99036, Note_off_c, 0, 87, 64
2, 99120, Note_on_c, 0, 87, 92
2, 99276, Note_off_c, 0, 87, 64
2, 99360, Note_on_c, 0, 87, 92
2, 99516, Note_off_c, 0, 87, 64
2, 99600, Note_on_c, 0, 87, 92
2, 99756, Note_off_c, 0, 87, 64
2, 99840, Note_on_c, 0, 87, 92
2, 99996, Note_off_c, 0, 87, 64
2, 100080, Note_on_c, 0, 87, 92
2, 100236, Note_off_c, 0, 87, 64
2, 100320, Note_on_c, 0, 84, 92
2, 100476, Note_off_c, 0, 84, 64
2, 100560, Note_on_c, 0, 84, 92
2, 100716, Note_off_c, 0, 84, 64
2, 100800, Note_on_c, 0, 84, 92
2, 100956, Note_off_c, 0, 84, 64
2, 101040, Note_on_c, 0, 84, 92
2, 101196, Note_off_c, 0, 84, 64
2, 101280, Note_on_c, 0, 84, 92
2, 101436, Note_off_c, 0, 84, 64
2, 101520, Note_on_c, 0, 82, 92
2, 101676, Note_off_c, 0, 82, 64
2, 101760, Note_on_c, 0, 82, 92
2, 101916, Note_off_c, 0, 82, 64
2, 102000, Note_on_c, 0, 82, 92
2, 102156, Note_off_c, 0, 82, 64
2, 102240, Note_on_c, 0, 82, 92
2, 102396, Note_off_c, 0, 82, 64
2, 102480, Note_on_c, 0, 82, 92
2, 102636, Note_off_c, 0, 82, 64
2, 102720, Note_on_c, 0, 82, 92
2, 102876, Note_off_c, 0, 82, 64
2, 102960, Note_on_c, 0, 82, 92
2, 103116, Note_off_c, 0, 82, 64
2, 103200, Note_on_c, 0, 79, 92
2, 103356, Note_off_c, 0, 79, 64
2, 103440, Note_on_c, 0, 79, 92
2, 103596, Note_off_c, 0, 79, 64
2, 103680, Note_on_c, 0, 79, 92
2, 103836, Note_off_c, 0, 79, 64
2, 103920, Note_on_c, 0, 79, 92
2, 104076, Note_off_c, 0, 79, 64
2, 104160, Note_on_c, 0, 79, 92
2, 104316, Note_off_c, 0, 79, 64
2, 108000, Note_on_c, 0, 86, 70
2, 108480, Note_off_c, 0, 86, 64
2, 108480, Note_on_c, 0, 87, 70
2, 108600, Note_off_c, 0, 87, 64
2, 108600, Note_on_c, 0, 84, 70
2, 108696, Note_off_c, 0, 84, 64
2, 108720, Note_on_c, 0, 82, 70
2, 108852, Note_off_c, 0, 82, 64
2, 108960, Note_on_c, 0, 82, 70
2, 109200, Note_off_c, 0, 82, 64
2, 109200, Note_on_c, 0, 86, 70
2, 109392, Note_off_c, 0, 86, 64
2, 109440, Note_on_c, 0, 82, 70
2, 109572, Note_off_c, 0, 82, 64
2, 110160, Note_on_c, 0, 82, 92
2, 110352, Note_off_c, 0, 82, 64
2, 110400, Note_on_c, 0, 82, 92
2, 110592, Note_off_c, 0, 82, 64
2, 110640, Note_on_c, 0, 82, 92
2, 110832, Note_off_c, 0, 82, 64
2, 110880, Note_on_c, 0, 82, 92
2, 111072, Note_off_c, 0, 82, 64
2, 111120, Note_on_c, 0, 82, 92
2, 111312, Note_off_c, 0, 82, 64
2, 111360, Note_on_c, 0, 82, 92
2, 111552, Note_off_c, 0, 82, 64
2, 111600, Note_on_c, 0, 82, 92
2, 111792, Note_off_c, 0, 82, 64
2, 111840, Note_on_c, 0, 82, 92
2, 112032, Note_off_c, 0, 82, 64
2, 112080, Note_on_c, 0, 82, 92
2, 112272, Note_off_c, 0, 82, 64
2, 112320, Note_on_c, 0, 82, 92
2, 112512, Note_off_c, 0, 82, 64
2, 112560, Note_on_c, 0, 82, 92
2, 112752, Note_off_c, 0, 82, 64
2, 112800, Note_on_c, 0, 82, 92
2, 112992, Note_off_c, 0, 82, 64
2, 113040, Note_on_c, 0, 84, 92
2, 113232, Note_off_c, 0, 84, 64
2, 113760, Note_on_c, 0, 80, 92
2, 113952, Note_off_c, 0, 80, 64
2, 114480, Note_on_c, 0, 77, 92
2, 114672, Note_off_c, 0, 77, 64
2, 115920, Note_on_c, 0, 75, 92
2, 116076, Note_off_c, 0, 75, 64
2, 116160, Note_on_c, 0, 87, 92
2, 116316, Note_off_c, 0, 87, 64
2, 116400, Note_on_c, 0, 87, 92
2, 116556, Note_off_c, 0, 87, 64
2, 116640, Note_on_c, 0, 87, 92
2, 116796, Note_off_c, 0, 87, 64
2, 116880, Note_on_c, 0, 87, 92
2, 117036, Note_off_c, 0, 87, 64
2, 117120, Note_on_c, 0, 87, 92
2, 117276, Note_off_c, 0, 87, 64
2, 117360, Note_on_c, 0, 87, 92
2, 117516, Note_off_c, 0, 87, 64
2, 117600, Note_on_c, 0, 84, 92
2, 117756, Note_off_c, 0, 84, 64
2, 117840, Note_on_c, 0, 84, 92
2, 117996, Note_off_c, 0, 84, 64
2, 118080, Note_on_c, 0, 84, 92
2, 118236, Note_off_c, 0, 84, 64
2, 118320, Note_on_c, 0, 84, 92
2, 118476, Note_off_c, 0, 84, 64
2, 118560, Note_on_c, 0, 84, 92
2, 118716, Note_off_c, 0, 84, 64
2, 118800, Note_on_c, 0, 82, 92
2, 118956, Note_off_c, 0, 82, 64
2, 119040, Note_on_c, 0, 82, 92
2, 119196, Note_off_c, 0, 82, 64
2, 119280, Note_on_c, 0, 82, 92
2, 119436, Note_off_c, 0, 82, 64
2, 119520, Note_on_c, 0, 82, 92
2, 119676, Note_off_c, 0, 82, 64
2, 119760, Note_on_c, 0, 82, 92
2, 119916, Note_off_c, 0, 82, 64
2, 120000, Note_on_c, 0, 82, 92
2, 120156, Note_off_c, 0, 82, 64
2, 120240, Note_on_c, 0, 82, 92
2, 120396, Note_off_c, 0, 82, 64
2, 120480, Note_on_c, 0, 79, 92
2, 120636, Note_off_c, 0, 79, 64
2, 120720, Note_on_c, 0, 79, 92
2, 120876, Note_off_c, 0, 79, 64
2, 120960, Note_on_c, 0, 79, 92
2, 121116, Note_off_c, 0, 79, 64
2, 121200, Note_on_c, 0, 79, 92
2, 121356, Note_off_c, 0, 79, 64
2, 121440, Note_on_c, 0, 79, 92
2, 121596, Note_off_c, 0, 79, 64
2, 124560, Note_on_c, 0, 77, 58
2, 125280, Note_off_c, 0, 77, 64
2, 125280, Note_on_c, 0, 74, 58
2, 125856, Note_off_c, 0, 74, 64
2, 126000, Note_on_c, 0, 82, 105
2, 126576, Note_off_c, 0, 82, 64
2, 126720, Note_on_c, 0, 82, 105
2, 126840, Note_off_c, 0, 82, 64
2, 126840, Note_on_c, 0, 80, 105
2, 126936, Note_off_c, 0, 80, 64
2, 126960, Note_on_c, 0, 80, 105
2, 127080, Note_off_c, 0, 80, 64
2, 127080, Note_on_c, 0, 79, 105
2, 127176, Note_off_c, 0, 79, 64
2, 127200, Note_on_c, 0, 79, 105
2, 127320, Note_off_c, 0, 79, 64
2, 127320, Note_on_c, 0, 77, 105
2, 127416, Note_off_c, 0, 77, 64
2, 127440, Note_on_c, 0, 82, 105
2, 127680, Note_off_c, 0, 82, 64
2, 127680, Note_on_c, 0, 86, 105
2, 127920, Note_off_c, 0, 86, 64
2, 127920, Note_on_c, 0, 87, 105
2, 128112, Note_off_c, 0, 87, 64
2, 128160, Note_on_c, 0, 91, 105
2, 128280, Note_off_c, 0, 91, 64
2, 128280, Note_on_c, 0, 89, 105
2, 128376, Note_off_c, 0, 89, 64
2, 128400, Note_on_c, 0, 89, 105
2, 128520, Note_off_c, 0, 89, 64
2, 128520, Note_on_c, 0, 87, 105
2, 128616, Note_off_c, 0, 87, 64
2, 128640, Note_on_c, 0, 87, 105
2, 128760, Note_off_c, 0, 87, 64
2, 128760, Note_on_c, 0, 86, 105
2, 128856, Note_off_c, 0, 86, 64
2, 128880, Note_on_c, 0, 87, 125
2, 129000, Note_off_c, 0, 87, 64
2, 129120, Note_on_c, 0, 87, 105
2, 129360, Note_off_c, 0, 87, 64
2, 129360, Note_on_c, 0, 91, 105
2, 129552, Note_off_c, 0, 91, 64
2, 129600, Note_on_c, 0, 87, 105
2, 129792, Note_off_c, 0, 87, 64
2, 129792, End_track
3, 0, Start_track
3, 0, Program_c, 1, 71
3, 0, Control_c, 1, 7, 90
3, 0, Control_c, 1, 10, 64
3, 720, Note_on_c, 1, 67, 92
3, 720, Note_on_c, 1, 70, 92
3, 876, Note_off_c, 1, 70, 64
3, 876, Note_off_c, 1, 67, 64
3, 960, Note_on_c, 1, 79, 92
3, 960, Note_on_c, 1, 70, 92
3, 1116, Note_off_c, 1, 70, 64
3, 1116, Note_off_c, 1, 79, 64
3, 1200, Note_on_c, 1, 79, 92
3, 1200, Note_on_c, 1, 70, 92
3, 1356, Note_off_c, 1, 70, 64
3, 1356, Note_off_c, 1, 79, 64
3, 1440, Note_on_c, 1, 82, 92
3, 1440, Note_on_c, 1, 70, 92
3, 1596, Note_off_c, 1, 70, 64
3, 1596, Note_off_c, 1, 82, 64
3, 1680, Note_on_c, 1, 72, 92
3, 1680, Note_on_c, 1, 84, 92
3, 1836, Note_off_c, 1, 84, 64
3, 1836, Note_off_c, 1, 72, 64
3, 1920, Note_on_c, 1, 70, 92
3, 1920, Note_on_c, 1, 82, 92
3, 2076, Note_off_c, 1, 82, 64
3, 2076, Note_off_c, 1, 70, 64
3, 2160, Note_on_c, 1, 84, 92
3, 2160, Note_on_c, 1, 72, 92
3, 2316, Note_off_c, 1, 72, 64
3, 2316, Note_off_c, 1, 84, 64
3, 2400, Note_on_c, 1, 72, 92
3, 2400, Note_on_c, 1, 80, 92
3, 2556, Note_off_c, 1, 80, 64
3, 2556, Note_off_c, 1, 72, 64
3, 2640, Note_on_c, 1, 80, 92
3, 2640, Note_on_c, 1, 72, 92
3, 2796, Note_off_c, 1, 72, 64
3, 2796, Note_off_c, 1, 80, 64
3, 2880, Note_on_c, 1, 72, 92
3, 2880, Note_on_c, 1, 80, 92
3, 3036, Note_off_c, 1, 80, 64
3, 3036, Note_off_c, 1, 72, 64
3, 3120, Note_on_c, 1, 72, 92
3, 3120, Note_on_c, 1, 80, 92
3, 3276, Note_off_c, 1, 80, 64
3, 3276, Note_off_c, 1, 72, 64
3, 3360, Note_on_c, 1, 72, 92
3, 3360, Note_on_c, 1, 80, 92
3, 3516, Note_off_c, 1, 80, 64
3, 3516, Note_off_c, 1, 72, 64
3, 3600, Note_on_c, 1, 74, 92
3, 3600, Note_on_c, 1, 77, 92
3, 3756, Note_off_c, 1, 77, 64
3, 3756, Note_off_c, 1, 74, 64
3, 3840, Note_on_c, 1, 77, 92
3, 3840, Note_on_c, 1, 74, 92
3, 3996, Note_off_c, 1, 74, 64
3, 3996, Note_off_c, 1, 77, 64
3, 4080, Note_on_c, 1, 77, 92
3, 4080, Note_on_c, 1, 74, 92
3, 4236, Note_off_c, 1, 74, 64
3, 4236, Note_off_c, 1, 77, 64
3, 4320, Note_on_c, 1, 77, 92
3, 4320, Note_on_c, 1, 80, 92
3, 4476, Note_off_c, 1, 80, 64
3, 4476, Note_off_c, 1, 77, 64
3, 4560, Note_on_c, 1, 79, 92
3, 4560, Note_on_c, 1, 75, 92
3, 4716, Note_off_c, 1, 75, 64
3, 4716, Note_off_c, 1, 79, 64
3, 4800, Note_on_c, 1, 80, 92
3, 4800, Note_on_c, 1, 77, 92
3, 4956, Note_off_c, 1, 77, 64
3, 4956, Note_off_c, 1, 80, 64
3, 5040, Note_on_c, 1, 75, 92
3, 5040, Note_on_c, 1, 79, 92
3, 5196, Note_off_c, 1, 79, 64
3, 5196, Note_off_c, 1, 75, 64
3, 5280, Note_on_c, 1, 70, 92
3, 5280, Note_on_c, 1, 75, 92
3, 5436, Note_off_c, 1, 75, 64
3, 5436, Note_off_c, 1, 70, 64
3, 5520, Note_on_c, 1, 70, 92
3, 5520, Note_on_c, 1, 75, 92
3, 5676, Note_off_c, 1, 75, 64
3, 5676, Note_off_c, 1, 70, 64
3, 5760, Note_on_c, 1, 70, 92
3, 5760, Note_on_c, 1, 75, 92
3, 5916, Note_off_c, 1, 75, 64
3, 5916, Note_off_c, 1, 70, 64
3, 6000, Note_on_c, 1, 70, 92
3, 6000, Note_on_c, 1, 75, 92
3, 6156, Note_off_c, 1, 75, 64
3, 6156, Note_off_c, 1, 70, 64
3, 6240, Note_on_c, 1, 70, 92
3, 6240, Note_on_c, 1, 75, 92
3, 6396, Note_off_c, 1, 75, 64
3, 6396, Note_off_c, 1, 70, 64
3, 9360, Note_on_c, 1, 74, 58
3, 9360, Note_on_c, 1, 77, 58
3, 9840, Note_off_c, 1, 77, 64
3, 9840, Note_off_c, 1, 74, 64
3, 9840, Note_on_c, 1, 72, 58
3, 9840, Note_on_c, 1, 75, 58
3, 10080, Note_off_c, 1, 75, 64
3, 10080, Note_off_c, 1, 72, 64
3, 10080, Note_on_c, 1, 70, 58
3, 10080, Note_on_c, 1, 74, 58
3, 10560, Note_off_c, 1, 74, 64
3, 10560, Note_off_c, 1, 70, 64
3, 10560, Note_on_c, 1, 69, 58
3, 10560, Note_on_c, 1, 72, 58
3, 10752, Note_off_c, 1, 72, 64
3, 10752, Note_off_c, 1, 69, 64
3, 10800, Note_on_c, 1, 70, 58
3, 10932, Note_off_c, 1, 70, 64
3, 11040, Note_on_c, 1, 74, 58
3, 11040, Note_on_c, 1, 70, 58
3, 11280, Note_off_c, 1, 70, 64
3, 11280, Note_off_c, 1, 74, 64
3, 11280, Note_on_c, 1, 74, 58
3, 11280, Note_on_c, 1, 77, 58
3, 11472, Note_off_c, 1, 77, 64
3, 11472, Note_off_c, 1, 74, 64
3, 11520, Note_on_c, 1, 70, 58
3, 11520, Note_on_c, 1, 74, 58
3, 11652, Note_off_c, 1, 74, 64
3, 11652, Note_off_c, 1, 70, 64
3, 12240, Note_on_c, 1, 67, 92
3, 12240, Note_on_c, 1, 70, 92
3, 12396, Note_off_c, 1, 70, 64
3, 12396, Note_off_c, 1, 67, 64
3, 12480, Note_on_c, 1, 79, 92
3, 12480, Note_on_c, 1, 70, 92
3, 12636, Note_off_c, 1, 70, 64
3, 12636, Note_off_c, 1, 79, 64
3, 12720, Note_on_c, 1, 79, 92
3, 12720, Note_on_c, 1, 70, 92
3, 12876, Note_off_c, 1, 70, 64
3, 12876, Note_off_c, 1, 79, 64
3, 12960, Note_on_c, 1, 82, 92
3, 12960, Note_on_c, 1, 70, 92
3, 13116, Note_off_c, 1, 70, 64
3, 13116, Note_off_c, 1, 82, 64
3, 13200, Note_on_c, 1, 72, 92
3, 13200, Note_on_c, 1, 84, 92
3, 13356, Note_off_c, 1, 84, 64
3, 13356, Note_off_c, 1, 72, 64
3, 13440, Note_on_c, 1, 70, 92
3, 13440, Note_on_c, 1, 82, 92
3, 13596, Note_off_c, 1, 82, 64
3, 13596, Note_off_c, 1, 70, 64
3, 13680, Note_on_c, 1, 84, 92
3, 13680, Note_on_c, 1, 72, 92
3, 13836, Note_off_c, 1, 72, 64
3, 13836, Note_off_c, 1, 84, 64
3, 13920, Note_on_c, 1, 72, 92
3, 13920, Note_on_c, 1, 80, 92
3, 14076, Note_off_c, 1, 80, 64
3, 14076, Note_off_c, 1, 72, 64
3, 14160, Note_on_c, 1, 80, 92
3, 14160, Note_on_c, 1, 72, 92
3, 14316, Note_off_c, 1, 72, 64
3, 14316, Note_off_c, 1, 80, 64
3, 14400, Note_on_c, 1, 72, 92
3, 14400, Note_on_c, 1, 80, 92
3, 14556, Note_off_c, 1, 80, 64
3, 14556, Note_off_c, 1, 72, 64
3, 14640, Note_on_c, 1, 72, 92
3, 14640, Note_on_c, 1, 80, 92
3, 14796, Note_off_c, 1, 80, 64
3, 14796, Note_off_c, 1, 72, 64
3, 14880, Note_on_c, 1, 72, 92
3, 14880, Note_on_c, 1, 80, 92
3, 15036, Note_off_c, 1, 80, 64
3, 15036, Note_off_c, 1, 72, 64
3, 15120, Note_on_c, 1, 74, 92
3, 15120, Note_on_c, 1, 77, 92
3, 15276, Note_off_c, 1, 77, 64
3, 15276, Note_off_c, 1, 74, 64
3, 15360, Note_on_c, 1, 77, 92
3, 15360, Note_on_c, 1, 74, 92
3, 15516, Note_off_c, 1, 74, 64
3, 15516, Note_off_c, 1, 77, 64
3, 15600, Note_on_c, 1, 77, 92
3, 15600, Note_on_c, 1, 74, 92
3, 15756, Note_off_c, 1, 74, 64
3, 15756, Note_off_c, 1, 77, 64
3, 15840, Note_on_c, 1, 77, 92
3, 15840, Note_on_c, 1, 80, 92
3, 15996, Note_off_c, 1, 80, 64
3, 15996, Note_off_c, 1, 77, 64
3, 16080, Note_on_c, 1, 79, 92
3, 16080, Note_on_c, 1, 75, 92
3, 16236, Note_off_c, 1, 75, 64
3, 16236, Note_off_c, 1, 79, 64
3, 16320, Note_on_c, 1, 80, 92
3, 16320, Note_on_c, 1, 77, 92
3, 16476, Note_off_c, 1, 77, 64
3, 16476, Note_off_c, 1, 80, 64
3, 16560, Note_on_c, 1, 75, 92
3, 16560, Note_on_c, 1, 79, 92
3, 16716, Note_off_c, 1, 79, 64
3, 16716, Note_off_c, 1, 75, 64
3, 16800, Note_on_c, 1, 70, 92
3, 16800, Note_on_c, 1, 75, 92
3, 16956, Note_off_c, 1, 75, 64
3, 16956, Note_off_c, 1, 70, 64
3, 17040, Note_on_c, 1, 70, 92
3, 17040, Note_on_c, 1, 75, 92
3, 17196, Note_off_c, 1, 75, 64
3, 17196, Note_off_c, 1, 70, 64
3, 17280, Note_on_c, 1, 70, 92
3, 17280, Note_on_c, 1, 75, 92
3, 17436, Note_off_c, 1, 75, 64
3, 17436, Note_off_c, 1, 70, 64
3, 17520, Note_on_c, 1, 70, 92
3, 17520, Note_on_c, 1, 75, 92
3, 17676, Note_off_c, 1, 75, 64
3, 17676, Note_off_c, 1, 70, 64
3, 17760, Note_on_c, 1, 70, 92
3, 17760, Note_on_c, 1, 75, 92
3, 17916, Note_off_c, 1, 75, 64
3, 17916, Note_off_c, 1, 70, 64
3, 20880, Note_on_c, 1, 74, 58
3, 20880, Note_on_c, 1, 77, 58
3, 21360, Note_off_c, 1, 77, 64
3, 21360, Note_off_c, 1, 74, 64
3, 21360, Note_on_c, 1, 72, 58
3, 21360, Note_on_c, 1, 75, 58
3, 21600, Note_off_c, 1, 75, 64
3, 21600, Note_off_c, 1, 72, 64
3, 21600, Note_on_c, 1, 70, 58
3, 21600, Note_on_c, 1, 74, 58
3, 22080, Note_off_c, 1, 74, 64
3, 22080, Note_off_c, 1, 70, 64
3, 22080, Note_on_c, 1, 69, 58
3, 22080, Note_on_c, 1, 72, 58
3, 22272, Note_off_c, 1, 72, 64
3, 22272, Note_off_c, 1, 69, 64
3, 22320, Note_on_c, 1, 70, 58
3, 22452, Note_off_c, 1, 70, 64
3, 22560, Note_on_c, 1, 74, 58
3, 22560, Note_on_c, 1, 70, 58
3, 22800, Note_off_c, 1, 70, 64
3, 22800, Note_off_c, 1, 74, 64
3, 22800, Note_on_c, 1, 74, 58
3, 22800, Note_on_c, 1, 77, 58
3, 22992, Note_off_c, 1, 77, 64
3, 22992, Note_off_c, 1, 74, 64
3, 23040, Note_on_c, 1, 70, 58
3, 23040, Note_on_c, 1, 74, 58
3, 23172, Note_off_c, 1, 74, 64
3, 23172, Note_off_c, 1, 70, 64
3, 23760, Note_on_c, 1, 70, 92
3, 23760, Note_on_c, 1, 82, 92
3, 23952, Note_off_c, 1, 82, 64
3, 23952, Note_off_c, 1, 70, 64
3, 24000, Note_on_c, 1, 82, 92
3, 24000, Note_on_c, 1, 70, 92
3, 24192, Note_off_c, 1, 70, 64
3, 24192, Note_off_c, 1, 82, 64
3, 24240, Note_on_c, 1, 82, 92
3, 24240, Note_on_c, 1, 70, 92
3, 24432, Note_off_c, 1, 70, 64
3, 24432, Note_off_c, 1, 82, 64
3, 24480, Note_on_c, 1, 70, 92
3, 24480, Note_on_c, 1, 82, 92
3, 24672, Note_off_c, 1, 82, 64
3, 24672, Note_off_c, 1, 70, 64
3, 24720, Note_on_c, 1, 70, 92
3, 24720, Note_on_c, 1, 82, 92
3, 24912, Note_off_c, 1, 82, 64
3, 24912, Note_off_c, 1, 70, 64
3, 24960, Note_on_c, 1, 82, 92
3, 24960, Note_on_c, 1, 70, 92
3, 25152, Note_off_c, 1, 70, 64
3, 25152, Note_off_c, 1, 82, 64
3, 25200, Note_on_c, 1, 82, 92
3, 25200, Note_on_c, 1, 70, 92
3, 25392, Note_off_c, 1, 70, 64
3, 25392, Note_off_c, 1, 82, 64
3, 25440, Note_on_c, 1, 70, 92
3, 25440, Note_on_c, 1, 82, 92
3, 25632, Note_off_c, 1, 82, 64
3, 25632, Note_off_c, 1, 70, 64
3, 25680, Note_on_c, 1, 70, 92
3, 25680, Note_on_c, 1, 82, 92
3, 25872, Note_off_c, 1, 82, 64
3, 25872, Note_off_c, 1, 70, 64
3, 25920, Note_on_c, 1, 70, 92
3, 25920, Note_on_c, 1, 82, 92
3, 26112, Note_off_c, 1, 82, 64
3, 26112, Note_off_c, 1, 70, 64
3, 26160, Note_on_c, 1, 70, 92
3, 26160, Note_on_c, 1, 82, 92
3, 26352, Note_off_c, 1, 82, 64
3, 26352, Note_off_c, 1, 70, 64
3, 26400, Note_on_c, 1, 82, 92
3, 26400, Note_on_c, 1, 70, 92
3, 26592, Note_off_c, 1, 70, 64
3, 26592, Note_off_c, 1, 82, 64
3, 26640, Note_on_c, 1, 72, 92
3, 26640, Note_on_c, 1, 80, 92
3, 26832, Note_off_c, 1, 80, 64
3, 26832, Note_off_c, 1, 72, 64
3, 27360, Note_on_c, 1, 72, 92
3, 27360, Note_on_c, 1, 77, 92
3, 27552, Note_off_c, 1, 77, 64
3, 27552, Note_off_c, 1, 72, 64
3, 28080, Note_on_c, 1, 68, 92
3, 28080, Note_on_c, 1, 74, 92
3, 28272, Note_off_c, 1, 74, 64
3, 28272, Note_off_c, 1, 68, 64
3, 29520, Note_on_c, 1, 67, 92
3, 29520, Note_on_c, 1, 70, 92
3, 29676, Note_off_c, 1, 70, 64
3, 29676, Note_off_c, 1, 67, 64
3, 29760, Note_on_c, 1, 79, 92
3, 29760, Note_on_c, 1, 82, 92
3, 29916, Note_off_c, 1, 82, 64
3, 29916, Note_off_c, 1, 79, 64
3, 30000, Note_on_c, 1, 82, 92
3, 30000, Note_on_c, 1, 79, 92
3, 30156, Note_off_c, 1, 79, 64
3, 30156, Note_off_c, 1, 82, 64
3, 30240, Note_on_c, 1, 82, 92
3, 30240, Note_on_c, 1, 70, 92
3, 30396, Note_off_c, 1, 70, 64
3, 30396, Note_off_c, 1, 82, 64
3, 30480, Note_on_c, 1, 72, 92
3, 30480, Note_on_c, 1, 84, 92
3, 30636, Note_off_c, 1, 84, 64
3, 30636, Note_off_c, 1, 72, 64
3, 30720, Note_on_c, 1, 70, 92
3, 30720, Note_on_c, 1, 82, 92
3, 30876, Note_off_c, 1, 82, 64
3, 30876, Note_off_c, 1, 70, 64
3, 30960, Note_on_c, 1, 84, 92
3, 30960, Note_on_c, 1, 72, 92
3, 31116, Note_off_c, 1, 72, 64
3, 31116, Note_off_c, 1, 84, 64
3, 31200, Note_on_c, 1, 72, 92
3, 31200, Note_on_c, 1, 80, 92
3, 31356, Note_off_c, 1, 80, 64
3, 31356, Note_off_c, 1, 72, 64
3, 31440, Note_on_c, 1, 72, 92
3, 31440, Note_on_c, 1, 80, 92
3, 31596, Note_off_c, 1, 80, 64
3, 31596, Note_off_c, 1, 72, 64
3, 31680, Note_on_c, 1, 80, 92
3, 31680, Note_on_c, 1, 72, 92
3, 31836, Note_off_c, 1, 72, 64
3, 31836, Note_off_c, 1, 80, 64
3, 31920, Note_on_c, 1, 72, 92
3, 31920, Note_on_c, 1, 80, 92
3, 32076, Note_off_c, 1, 80, 64
3, 32076, Note_off_c, 1, 72, 64
3, 32160, Note_on_c, 1, 80, 92
3, 32160, Note_on_c, 1, 72, 92
3, 32316, Note_off_c, 1, 72, 64
3, 32316, Note_off_c, 1, 80, 64
3, 32400, Note_on_c, 1, 74, 92
3, 32400, Note_on_c, 1, 77, 92
3, 32556, Note_off_c, 1, 77, 64
3, 32556, Note_off_c, 1, 74, 64
3, 32640, Note_on_c, 1, 74, 92
3, 32640, Note_on_c, 1, 77, 92
3, 32796, Note_off_c, 1, 77, 64
3, 32796, Note_off_c, 1, 74, 64
3, 32880, Note_on_c, 1, 77, 92
3, 32880, Note_on_c, 1, 74, 92
3, 33036, Note_off_c, 1, 74, 64
3, 33036, Note_off_c, 1, 77, 64
3, 33120, Note_on_c, 1, 80, 92
3, 33120, Note_on_c, 1, 77, 92
3, 33276, Note_off_c, 1, 77, 64
3, 33276, Note_off_c, 1, 80, 64
3, 33360, Note_on_c, 1, 75, 92
3, 33360, Note_on_c, 1, 79, 92
3, 33516, Note_off_c, 1, 79, 64
3, 33516, Note_off_c, 1, 75, 64
3, 33600, Note_on_c, 1, 77, 92
3, 33600, Note_on_c, 1, 80, 92
3, 33756, Note_off_c, 1, 80, 64
3, 33756, Note_off_c, 1, 77, 64
3, 33840, Note_on_c, 1, 75, 92
3, 33840, Note_on_c, 1, 79, 92
3, 33996, Note_off_c, 1, 79, 64
3, 33996, Note_off_c, 1, 75, 64
3, 34080, Note_on_c, 1, 75, 92
3, 34080, Note_on_c, 1, 70, 92
3, 34236, Note_off_c, 1, 70, 64
3, 34236, Note_off_c, 1, 75, 64
3, 34320, Note_on_c, 1, 70, 92
3, 34320, Note_on_c, 1, 75, 92
3, 34476, Note_off_c, 1, 75, 64
3, 34476, Note_off_c, 1, 70, 64
3, 34560, Note_on_c, 1, 70, 92
3, 34560, Note_on_c, 1, 75, 92
3, 34716, Note_off_c, 1, 75, 64
3, 34716, Note_off_c, 1, 70, 64
3, 34800, Note_on_c, 1, 75, 92
3, 34800, Note_on_c, 1, 70, 92
3, 34956, Note_off_c, 1, 70, 64
3, 34956, Note_off_c, 1, 75, 64
3, 35040, Note_on_c, 1, 75, 92
3, 35040, Note_on_c, 1, 70, 92
3, 35196, Note_off_c, 1, 70, 64
3, 35196, Note_off_c, 1, 75, 64
3, 38160, Note_on_c, 1, 68, 58
3, 38880, Note_off_c, 1, 68, 64
3, 38880, Note_on_c, 1, 65, 58
3, 39456, Note_off_c, 1, 65, 64
3, 39600, Note_on_c, 1, 70, 105
3, 39600, Note_on_c, 1, 75, 105
3, 39792, Note_off_c, 1, 75, 64
3, 39792, Note_off_c, 1, 70, 64
3, 39840, Note_on_c, 1, 74, 105
3, 39840, Note_on_c, 1, 68, 105
3, 40032, Note_off_c, 1, 68, 64
3, 40032, Note_off_c, 1, 74, 64
3, 40080, Note_on_c, 1, 75, 105
3, 40080, Note_on_c, 1, 68, 105
3, 40272, Note_off_c, 1, 68, 64
3, 40272, Note_off_c, 1, 75, 64
3, 40320, Note_on_c, 1, 70, 105
3, 40320, Note_on_c, 1, 79, 105
3, 40416, Note_off_c, 1, 70, 64
3, 40440, Note_off_c, 1, 79, 64
3, 40440, Note_on_c, 1, 68, 105
3, 40440, Note_on_c, 1, 77, 105
3, 40536, Note_off_c, 1, 77, 64
3, 40536, Note_off_c, 1, 68, 64
3, 40560, Note_on_c, 1, 68, 105
3, 40560, Note_on_c, 1, 77, 105
3, 40656, Note_off_c, 1, 68, 64
3, 40680, Note_off_c, 1, 77, 64
3, 40680, Note_on_c, 1, 75, 105
3, 40680, Note_on_c, 1, 67, 105
3, 40776, Note_off_c, 1, 67, 64
3, 40776, Note_off_c, 1, 75, 64
3, 40800, Note_on_c, 1, 67, 105
3, 40800, Note_on_c, 1, 75, 105
3, 40896, Note_off_c, 1, 67, 64
3, 40920, Note_off_c, 1, 75, 64
3, 40920, Note_on_c, 1, 65, 105
3, 40920, Note_on_c, 1, 74, 105
3, 41016, Note_off_c, 1, 74, 64
3, 41016, Note_off_c, 1, 65, 64
3, 41040, Note_on_c, 1, 82, 105
3, 41040, Note_on_c, 1, 70, 105
3, 41280, Note_off_c, 1, 70, 64
3, 41280, Note_on_c, 1, 80, 105
3, 41520, Note_off_c, 1, 80, 64
3, 41520, Note_on_c, 1, 79, 105
3, 41712, Note_off_c, 1, 82, 64
3, 41712, Note_off_c, 1, 79, 64
3, 41760, Note_on_c, 1, 82, 105
3, 41760, Note_on_c, 1, 79, 105
3, 41856, Note_off_c, 1, 82, 64
3, 41880, Note_off_c, 1, 79, 64
3, 41880, Note_on_c, 1, 80, 105
3, 41880, Note_on_c, 1, 77, 105
3, 41976, Note_off_c, 1, 77, 64
3, 41976, Note_off_c, 1, 80, 64
3, 42000, Note_on_c, 1, 80, 105
3, 42000, Note_on_c, 1, 77, 105
3, 42096, Note_off_c, 1, 80, 64
3, 42120, Note_off_c, 1, 77, 64
3, 42120, Note_on_c, 1, 75, 105
3, 42120, Note_on_c, 1, 79, 105
3, 42216, Note_off_c, 1, 79, 64
3, 42216, Note_off_c, 1, 75, 64
3, 42240, Note_on_c, 1, 79, 105
3, 42240, Note_on_c, 1, 75, 105
3, 42336, Note_off_c, 1, 79, 64
3, 42360, Note_off_c, 1, 75, 64
3, 42360, Note_on_c, 1, 74, 105
3, 42360, Note_on_c, 1, 77, 105
3, 42456, Note_off_c, 1, 77, 64
3, 42456, Note_off_c, 1, 74, 64
3, 42480, Note_on_c, 1, 75, 125
3, 42600, Note_off_c, 1, 75, 64
3, 42720, Note_on_c, 1, 67, 105
3, 42720, Note_on_c, 1, 75, 105
3, 42912, Note_off_c, 1, 67, 64
3, 42960, Note_off_c, 1, 75, 64
3, 42960, Note_on_c, 1, 70, 105
3, 42960, Note_on_c, 1, 79, 105
3, 43152, Note_off_c, 1, 79, 64
3, 43152, Note_off_c, 1, 70, 64
3, 43200, Note_on_c, 1, 75, 105
3, 43200, Note_on_c, 1, 67, 105
3, 43392, Note_off_c, 1, 67, 64
3, 43392, Note_off_c, 1, 75, 64
3, 43920, Note_on_c, 1, 70, 92
3, 43920, Note_on_c, 1, 82, 92
3, 44112, Note_off_c, 1, 82, 64
3, 44112, Note_off_c, 1, 70, 64
3, 44160, Note_on_c, 1, 82, 92
3, 44160, Note_on_c, 1, 70, 92
3, 44352, Note_off_c, 1, 70, 64
3, 44352, Note_off_c, 1, 82, 64
3, 44400, Note_on_c, 1, 82, 92
3, 44400, Note_on_c, 1, 70, 92
3, 44592, Note_off_c, 1, 70, 64
3, 44592, Note_off_c, 1, 82, 64
3, 44640, Note_on_c, 1, 70, 92
3, 44640, Note_on_c, 1, 82, 92
3, 44832, Note_off_c, 1, 82, 64
3, 44832, Note_off_c, 1, 70, 64
3, 44880, Note_on_c, 1, 70, 92
3, 44880, Note_on_c, 1, 82, 92
3, 45072, Note_off_c, 1, 82, 64
3, 45072, Note_off_c, 1, 70, 64
3, 45120, Note_on_c, 1, 82, 92
3, 45120, Note_on_c, 1, 70, 92
3, 45312, Note_off_c, 1, 70, 64
3, 45312, Note_off_c, 1, 82, 64
3, 45360, Note_on_c, 1, 82, 92
3, 45360, Note_on_c, 1, 70, 92
3, 45552, Note_off_c, 1, 70, 64
3, 45552, Note_off_c, 1, 82, 64
3, 45600, Note_on_c, 1, 70, 92
3, 45600, Note_on_c, 1, 82, 92
3, 45792, Note_off_c, 1, 82, 64
3, 45792, Note_off_c, 1, 70, 64
3, 45840, Note_on_c, 1, 70, 92
3, 45840, Note_on_c, 1, 82, 92
3, 46032, Note_off_c, 1, 82, 64
3, 46032, Note_off_c, 1, 70, 64
3, 46080, Note_on_c, 1, 70, 92
3, 46080, Note_on_c, 1, 82, 92
3, 46272, Note_off_c, 1, 82, 64
3, 46272, Note_off_c, 1, 70, 64
3, 46320, Note_on_c, 1, 70, 92
3, 46320, Note_on_c, 1, 82, 92
3, 46512, Note_off_c, 1, 82, 64
3, 46512, Note_off_c, 1, 70, 64
3, 46560, Note_on_c, 1, 82, 92
3, 46560, Note_on_c, 1, 70, 92
3, 46752, Note_off_c, 1, 70, 64
3, 46752, Note_off_c, 1, 82, 64
3, 46800, Note_on_c, 1, 72, 92
3, 46800, Note_on_c, 1, 80, 92
3, 46992, Note_off_c, 1, 80, 64
3, 46992, Note_off_c, 1, 72, 64
3, 47520, Note_on_c, 1, 72, 92
3, 47520, Note_on_c, 1, 77, 92
3, 47712, Note_off_c, 1, 77, 64
3, 47712, Note_off_c, 1, 72, 64
3, 48240, Note_on_c, 1, 68, 92
3, 48240, Note_on_c, 1, 74, 92
3, 48432, Note_off_c, 1, 74, 64
3, 48432, Note_off_c, 1, 68, 64
3, 49680, Note_on_c, 1, 67, 92
3, 49680, Note_on_c, 1, 70, 92
3, 49836, Note_off_c, 1, 70, 64
3, 49836, Note_off_c, 1, 67, 64
3, 49920, Note_on_c, 1, 79, 92
3, 49920, Note_on_c, 1, 82, 92
3, 50076, Note_off_c, 1, 82, 64
3, 50076, Note_off_c, 1, 79, 64
3, 50160, Note_on_c, 1, 82, 92
3, 50160, Note_on_c, 1, 79, 92
3, 50316, Note_off_c, 1, 79, 64
3, 50316, Note_off_c, 1, 82, 64
3, 50400, Note_on_c, 1, 82, 92
3, 50400, Note_on_c, 1, 70, 92
3, 50556, Note_off_c, 1, 70, 64
3, 50556, Note_off_c, 1, 82, 64
3, 50640, Note_on_c, 1, 72, 92
3, 50640, Note_on_c, 1, 84, 92
3, 50796, Note_off_c, 1, 84, 64
3, 50796, Note_off_c, 1, 72, 64
3, 50880, Note_on_c, 1, 70, 92
3, 50880, Note_on_c, 1, 82, 92
3, 51036, Note_off_c, 1, 82, 64
3, 51036, Note_off_c, 1, 70, 64
3, 51120, Note_on_c, 1, 84, 92
3, 51120, Note_on_c, 1, 72, 92
3, 51276, Note_off_c, 1, 72, 64
3, 51276, Note_off_c, 1, 84, 64
3, 51360, Note_on_c, 1, 72, 92
3, 51360, Note_on_c, 1, 80, 92
3, 51516, Note_off_c, 1, 80, 64
3, 51516, Note_off_c, 1, 72, 64
3, 51600, Note_on_c, 1, 72, 92
3, 51600, Note_on_c, 1, 80, 92
3, 51756, Note_off_c, 1, 80, 64
3, 51756, Note_off_c, 1, 72, 64
3, 51840, Note_on_c, 1, 80, 92
3, 51840, Note_on_c, 1, 72, 92
3, 51996, Note_off_c, 1, 72, 64
3, 51996, Note_off_c, 1, 80, 64
3, 52080, Note_on_c, 1, 72, 92
3, 52080, Note_on_c, 1, 80, 92
3, 52236, Note_off_c, 1, 80, 64
3, 52236, Note_off_c, 1, 72, 64
3, 52320, Note_on_c, 1, 80, 92
3, 52320, Note_on_c, 1, 72, 92
3, 52476, Note_off_c, 1, 72, 64
3, 52476, Note_off_c, 1, 80, 64
3, 52560, Note_on_c, 1, 74, 92
3, 52560, Note_on_c, 1, 77, 92
3, 52716, Note_off_c, 1, 77, 64
3, 52716, Note_off_c, 1, 74, 64
3, 52800, Note_on_c, 1, 74, 92
3, 52800, Note_on_c, 1, 77, 92
3, 52956, Note_off_c, 1, 77, 64
3, 52956, Note_off_c, 1, 74, 64
3, 53040, Note_on_c, 1, 77, 92
3, 53040, Note_on_c, 1, 74, 92
3, 53196, Note_off_c, 1, 74, 64
3, 53196, Note_off_c, 1, 77, 64
3, 53280, Note_on_c, 1, 80, 92
3, 53280, Note_on_c, 1, 77, 92
3, 53436, Note_off_c, 1, 77, 64
3, 53436, Note_off_c, 1, 80, 64
3, 53520, Note_on_c, 1, 75, 92
3, 53520, Note_on_c, 1, 79, 92
3, 53676, Note_off_c, 1, 79, 64
3, 53676, Note_off_c, 1, 75, 64
3, 53760, Note_on_c, 1, 77, 92
3, 53760, Note_on_c, 1, 80, 92
3, 53916, Note_off_c, 1, 80, 64
3, 53916, Note_off_c, 1, 77, 64
3, 54000, Note_on_c, 1, 75, 92
3, 54000, Note_on_c, 1, 79, 92
3, 54156, Note_off_c, 1, 79, 64
3, 54156, Note_off_c, 1, 75, 64
3, 54240, Note_on_c, 1, 75, 92
3, 54240, Note_on_c, 1, 70, 92
3, 54396, Note_off_c, 1, 70, 64
3, 54396, Note_off_c, 1, 75, 64
3, 54480, Note_on_c, 1, 70, 92
3, 54480, Note_on_c, 1, 75, 92
3, 54636, Note_off_c, 1, 75, 64
3, 54636, Note_off_c, 1, 70, 64
3, 54720, Note_on_c, 1, 70, 92
3, 54720, Note_on_c, 1, 75, 92
3, 54876, Note_off_c, 1, 75, 64
3, 54876, Note_off_c, 1, 70, 64
3, 54960, Note_on_c, 1, 75, 92
3, 54960, Note_on_c, 1, 70, 92
3, 55116, Note_off_c, 1, 70, 64
3, 55116, Note_off_c, 1, 75, 64
3, 55200, Note_on_c, 1, 75, 92
3, 55200, Note_on_c, 1, 70, 92
3, 55356, Note_off_c, 1, 70, 64
3, 55356, Note_off_c, 1, 75, 64
3, 58320, Note_on_c, 1, 68, 58
3, 59040, Note_off_c, 1, 68, 64
3, 59040, Note_on_c, 1, 65, 58
3, 59616, Note_off_c, 1, 65, 64
3, 59760, Note_on_c, 1, 70, 105
3, 59760, Note_on_c, 1, 75, 105
3, 59952, Note_off_c, 1, 75, 64
3, 59952, Note_off_c, 1, 70, 64
3, 60000, Note_on_c, 1, 74, 105
3, 60000, Note_on_c, 1, 68, 105
3, 60192, Note_off_c, 1, 68, 64
3, 60192, Note_off_c, 1, 74, 64
3, 60240, Note_on_c, 1, 75, 105
3, 60240, Note_on_c, 1, 68, 105
3, 60432, Note_off_c, 1, 68, 64
3, 60432, Note_off_c, 1, 75, 64
3, 60480, Note_on_c, 1, 70, 105
3, 60480, Note_on_c, 1, 79, 105
3, 60576, Note_off_c, 1, 70, 64
3, 60600, Note_off_c, 1, 79, 64
3, 60600, Note_on_c, 1, 68, 105
3, 60600, Note_on_c, 1, 77, 105
3, 60696, Note_off_c, 1, 77, 64
3, 60696, Note_off_c, 1, 68, 64
3, 60720, Note_on_c, 1, 68, 105
3, 60720, Note_on_c, 1, 77, 105
3, 60816, Note_off_c, 1, 68, 64
3, 60840, Note_off_c, 1, 77, 64
3, 60840, Note_on_c, 1, 75, 105
3, 60840, Note_on_c, 1, 67, 105
3, 60936, Note_off_c, 1, 67, 64
3, 60936, Note_off_c, 1, 75, 64
3, 60960, Note_on_c, 1, 67, 105
3, 60960, Note_on_c, 1, 75, 105
3, 61056, Note_off_c, 1, 67, 64
3, 61080, Note_off_c, 1, 75, 64
3, 61080, Note_on_c, 1, 65, 105
3, 61080, Note_on_c, 1, 74, 105
3, 61176, Note_off_c, 1, 74, 64
3, 61176, Note_off_c, 1, 65, 64
3, 61200, Note_on_c, 1, 82, 105
3, 61200, Note_on_c, 1, 70, 105
3, 61440, Note_off_c, 1, 70, 64
3, 61440, Note_on_c, 1, 80, 105
3, 61680, Note_off_c, 1, 80, 64
3, 61680, Note_on_c, 1, 79, 105
3, 61872, Note_off_c, 1, 82, 64
3, 61872, Note_off_c, 1, 79, 64
3, 61920, Note_on_c, 1, 82, 105
3, 61920, Note_on_c, 1, 79, 105
3, 62016, Note_off_c, 1, 82, 64
3, 62040, Note_off_c, 1, 79, 64
3, 62040, Note_on_c, 1, 80, 105
3, 62040, Note_on_c, 1, 77, 105
3, 62136, Note_off_c, 1, 77, 64
3, 62136, Note_off_c, 1, 80, 64
3, 62160, Note_on_c, 1, 80, 105
3, 62160, Note_on_c, 1, 77, 105
3, 62256, Note_off_c, 1, 80, 64
3, 62280, Note_off_c, 1, 77, 64
3, 62280, Note_on_c, 1, 75, 105
3, 62280, Note_on_c, 1, 79, 105
3, 62376, Note_off_c, 1, 79, 64
3, 62376, Note_off_c, 1, 75, 64
3, 62400, Note_on_c, 1, 79, 105
3, 62400, Note_on_c, 1, 75, 105
3, 62496, Note_off_c, 1, 79, 64
3, 62520, Note_off_c, 1, 75, 64
3, 62520, Note_on_c, 1, 74, 105
3, 62520, Note_on_c, 1, 77, 105
3, 62616, Note_off_c, 1, 77, 64
3, 62616, Note_off_c, 1, 74, 64
3, 62640, Note_on_c, 1, 75, 125
3, 62760, Note_off_c, 1, 75, 64
3, 62880, Note_on_c, 1, 67, 105
3, 62880, Note_on_c, 1, 75, 105
3, 63072, Note_off_c, 1, 67, 64
3, 63120, Note_off_c, 1, 75, 64
3, 63120, Note_on_c, 1, 70, 105
3, 63120, Note_on_c, 1, 79, 105
3, 63312, Note_off_c, 1, 79, 64
3, 63312, Note_off_c, 1, 70, 64
3, 63360, Note_on_c, 1, 75, 105
3, 63360, Note_on_c, 1, 67, 105
3, 63552, Note_off_c, 1, 67, 64
3, 63552, Note_off_c, 1, 75, 64
3, 64080, Note_on_c, 1, 75, 80
3, 64560, Note_off_c, 1, 75, 64
3, 64560, Note_on_c, 1, 70, 80
3, 64800, Note_off_c, 1, 70, 64
3, 64800, Note_on_c, 1, 79, 80
3, 65040, Note_off_c, 1, 79, 64
3, 65040, Note_on_c, 1, 77, 80
3, 65280, Note_off_c, 1, 77, 64
3, 65280, Note_on_c, 1, 75, 80
3, 65472, Note_off_c, 1, 75, 64
3, 65520, Note_on_c, 1, 74, 80
3, 65640, Note_off_c, 1, 74, 64
3, 65640, Note_on_c, 1, 77, 80
3, 65760, Note_off_c, 1, 77, 64
3, 65760, Note_on_c, 1, 80, 80
3, 65880, Note_off_c, 1, 80, 64
3, 65880, Note_on_c, 1, 79, 80
3, 66000, Note_off_c, 1, 79, 64
3, 66000, Note_on_c, 1, 77, 80
3, 66120, Note_off_c, 1, 77, 64
3, 66120, Note_on_c, 1, 75, 80
3, 66240, Note_off_c, 1, 75, 64
3, 66240, Note_on_c, 1, 74, 70
3, 66432, Note_off_c, 1, 74, 64
3, 66960, Note_on_c, 1, 77, 80
3, 67440, Note_off_c, 1, 77, 64
3, 67440, Note_on_c, 1, 70, 80
3, 67680, Note_off_c, 1, 70, 64
3, 67680, Note_on_c, 1, 80, 80
3, 67920, Note_off_c, 1, 80, 64
3, 67920, Note_on_c, 1, 79, 80
3, 68160, Note_off_c, 1, 79, 64
3, 68160, Note_on_c, 1, 77, 80
3, 68352, Note_off_c, 1, 77, 64
3, 68400, Note_on_c, 1, 75, 80
3, 68520, Note_off_c, 1, 75, 64
3, 68520, Note_on_c, 1, 79, 80
3, 68640, Note_off_c, 1, 79, 64
3, 68640, Note_on_c, 1, 82, 80
3, 68760, Note_off_c, 1, 82, 64
3, 68760, Note_on_c, 1, 79, 80
3, 68880, Note_off_c, 1, 79, 64
3, 68880, Note_on_c, 1, 80, 80
3, 69000, Note_off_c, 1, 80, 64
3, 69000, Note_on_c, 1, 77, 80
3, 69120, Note_off_c, 1, 77, 64
3, 69120, Note_on_c, 1, 75, 58
3, 69312, Note_off_c, 1, 75, 64
3, 69840, Note_on_c, 1, 75, 80
3, 70320, Note_off_c, 1, 75, 64
3, 70320, Note_on_c, 1, 70, 80
3, 70560, Note_off_c, 1, 70, 64
3, 70560, Note_on_c, 1, 79, 80
3, 70800, Note_off_c, 1, 79, 64
3, 70800, Note_on_c, 1, 77, 80
3, 71040, Note_off_c, 1, 77, 64
3, 71040, Note_on_c, 1, 75, 80
3, 71232, Note_off_c, 1, 75, 64
3, 71280, Note_on_c, 1, 74, 80
3, 71400, Note_off_c, 1, 74, 64
3, 71400, Note_on_c, 1, 77, 80
3, 71520, Note_off_c, 1, 77, 64
3, 71520, Note_on_c, 1, 80, 80
3, 71640, Note_off_c, 1, 80, 64
3, 71640, Note_on_c, 1, 79, 80
3, 71760, Note_off_c, 1, 79, 64
3, 71760, Note_on_c, 1, 77, 80
3, 71880, Note_off_c, 1, 77, 64
3, 71880, Note_on_c, 1, 75, 80
3, 72000, Note_off_c, 1, 75, 64
3, 72000, Note_on_c, 1, 74, 70
3, 72192, Note_off_c, 1, 74, 64
3, 72720, Note_on_c, 1, 77, 80
3, 73200, Note_off_c, 1, 77, 64
3, 73200, Note_on_c, 1, 70, 80
3, 73440, Note_off_c, 1, 70, 64
3, 73440, Note_on_c, 1, 80, 80
3, 73680, Note_off_c, 1, 80, 64
3, 73680, Note_on_c, 1, 79, 80
3, 73920, Note_off_c, 1, 79, 64
3, 73920, Note_on_c, 1, 77, 80
3, 74112, Note_off_c, 1, 77, 64
3, 74160, Note_on_c, 1, 75, 80
3, 74280, Note_off_c, 1, 75, 64
3, 74280, Note_on_c, 1, 79, 80
3, 74400, Note_off_c, 1, 79, 64
3, 74400, Note_on_c, 1, 82, 80
3, 74520, Note_off_c, 1, 82, 64
3, 74520, Note_on_c, 1, 79, 80
3, 74640, Note_off_c, 1, 79, 64
3, 74640, Note_on_c, 1, 80, 80
3, 74760, Note_off_c, 1, 80, 64
3, 74760, Note_on_c, 1, 77, 80
3, 74880, Note_off_c, 1, 77, 64
3, 74880, Note_on_c, 1, 75, 58
3, 75072, Note_off_c, 1, 75, 64
3, 81360, Note_on_c, 1, 75, 80
3, 81840, Note_off_c, 1, 75, 64
3, 81840, Note_on_c, 1, 70, 80
3, 82080, Note_off_c, 1, 70, 64
3, 82080, Note_on_c, 1, 79, 80
3, 82320, Note_off_c, 1, 79, 64
3, 82320, Note_on_c, 1, 77, 80
3, 82560, Note_off_c, 1, 77, 64
3, 82560, Note_on_c, 1, 75, 80
3, 82752, Note_off_c, 1, 75, 64
3, 82800, Note_on_c, 1, 74, 80
3, 82920, Note_off_c, 1, 74, 64
3, 82920, Note_on_c, 1, 77, 80
3, 83040, Note_off_c, 1, 77, 64
3, 83040, Note_on_c, 1, 80, 80
3, 83160, Note_off_c, 1, 80, 64
3, 83160, Note_on_c, 1, 79, 80
3, 83280, Note_off_c, 1, 79, 64
3, 83280, Note_on_c, 1, 77, 80
3, 83400, Note_off_c, 1, 77, 64
3, 83400, Note_on_c, 1, 75, 80
3, 83520, Note_off_c, 1, 75, 64
3, 83520, Note_on_c, 1, 74, 70
3, 83712, Note_off_c, 1, 74, 64
3, 84240, Note_on_c, 1, 77, 80
3, 84720, Note_off_c, 1, 77, 64
3, 84720, Note_on_c, 1, 70, 80
3, 84960, Note_off_c, 1, 70, 64
3, 84960, Note_on_c, 1, 80, 80
3, 85200, Note_off_c, 1, 80, 64
3, 85200, Note_on_c, 1, 79, 80
3, 85440, Note_off_c, 1, 79, 64
3, 85440, Note_on_c, 1, 77, 80
3, 85632, Note_off_c, 1, 77, 64
3, 85680, Note_on_c, 1, 75, 80
3, 85800, Note_off_c, 1, 75, 64
3, 85800, Note_on_c, 1, 79, 80
3, 85920, Note_off_c, 1, 79, 64
3, 85920, Note_on_c, 1, 82, 80
3, 86040, Note_off_c, 1, 82, 64
3, 86040, Note_on_c, 1, 79, 80
3, 86160, Note_off_c, 1, 79, 64
3, 86160, Note_on_c, 1, 80, 80
3, 86280, Note_off_c, 1, 80, 64
3, 86280, Note_on_c, 1, 77, 80
3, 86400, Note_off_c, 1, 77, 64
3, 86400, Note_on_c, 1, 75, 58
3, 86592, Note_off_c, 1, 75, 64
3, 92880, Note_on_c, 1, 75, 80
3, 93360, Note_off_c, 1, 75, 64
3, 93360, Note_on_c, 1, 70, 80
3, 93600, Note_off_c, 1, 70, 64
3, 93600, Note_on_c, 1, 79, 80
3, 93840, Note_off_c, 1, 79, 64
3, 93840, Note_on_c, 1, 77, 80
3, 94080, Note_off_c, 1, 77, 64
3, 94080, Note_on_c, 1, 75, 80
3, 94272, Note_off_c, 1, 75, 64
3, 94320, Note_on_c, 1, 74, 80
3, 94440, Note_off_c, 1, 74, 64
3, 94440, Note_on_c, 1, 77, 80
3, 94560, Note_off_c, 1, 77, 64
3, 94560, Note_on_c, 1, 80, 80
3, 94680, Note_off_c, 1, 80, 64
3, 94680, Note_on_c, 1, 79, 80
3, 94800, Note_off_c, 1, 79, 64
3, 94800, Note_on_c, 1, 77, 80
3, 94920, Note_off_c, 1, 77, 64
3, 94920, Note_on_c, 1, 75, 80
3, 95040, Note_off_c, 1, 75, 64
3, 95040, Note_on_c, 1, 74, 70
3, 95232, Note_off_c, 1, 74, 64
3, 95760, Note_on_c, 1, 77, 80
3, 96240, Note_off_c, 1, 77, 64
3, 96240, Note_on_c, 1, 70, 80
3, 96480, Note_off_c, 1, 70, 64
3, 96480, Note_on_c, 1, 80, 80
3, 96720, Note_off_c, 1, 80, 64
3, 96720, Note_on_c, 1, 79, 80
3, 96960, Note_off_c, 1, 79, 64
3, 96960, Note_on_c, 1, 77, 80
3, 97152, Note_off_c, 1, 77, 64
3, 97200, Note_on_c, 1, 75, 80
3, 97320, Note_off_c, 1, 75, 64
3, 97320, Note_on_c, 1, 79, 80
3, 97440, Note_off_c, 1, 79, 64
3, 97440, Note_on_c, 1, 82, 80
3, 97560, Note_off_c, 1, 82, 64
3, 97560, Note_on_c, 1, 79, 80
3, 97680, Note_off_c, 1, 79, 64
3, 97680, Note_on_c, 1, 80, 80
3, 97800, Note_off_c, 1, 80, 64
3, 97800, Note_on_c, 1, 77, 80
3, 97920, Note_off_c, 1, 77, 64
3, 97920, Note_on_c, 1, 75, 58
3, 98112, Note_off_c, 1, 75, 64
3, 98640, Note_on_c, 1, 67, 92
3, 98640, Note_on_c, 1, 70, 92
3, 98796, Note_off_c, 1, 70, 64
3, 98796, Note_off_c, 1, 67, 64
3, 98880, Note_on_c, 1, 79, 92
3, 98880, Note_on_c, 1, 70, 92
3, 99036, Note_off_c, 1, 70, 64
3, 99036, Note_off_c, 1, 79, 64
3, 99120, Note_on_c, 1, 79, 92
3, 99120, Note_on_c, 1, 70, 92
3, 99276, Note_off_c, 1, 70, 64
3, 99276, Note_off_c, 1, 79, 64
3, 99360, Note_on_c, 1, 82, 92
3, 99360, Note_on_c, 1, 70, 92
3, 99516, Note_off_c, 1, 70, 64
3, 99516, Note_off_c, 1, 82, 64
3, 99600, Note_on_c, 1, 72, 92
3, 99600, Note_on_c, 1, 84, 92
3, 99756, Note_off_c, 1, 84, 64
3, 99756, Note_off_c, 1, 72, 64
3, 99840, Note_on_c, 1, 70, 92
3, 99840, Note_on_c, 1, 82, 92
3, 99996, Note_off_c, 1, 82, 64
3, 99996, Note_off_c, 1, 70, 64
3, 100080, Note_on_c, 1, 84, 92
3, 100080, Note_on_c, 1, 72, 92
3, 100236, Note_off_c, 1, 72, 64
3, 100236, Note_off_c, 1, 84, 64
3, 100320, Note_on_c, 1, 72, 92
3, 100320, Note_on_c, 1, 80, 92
3, 100476, Note_off_c, 1, 80, 64
3, 100476, Note_off_c, 1, 72, 64
3, 100560, Note_on_c, 1, 80, 92
3, 100560, Note_on_c, 1, 72, 92
3, 100716, Note_off_c, 1, 72, 64
3, 100716, Note_off_c, 1, 80, 64
3, 100800, Note_on_c, 1, 72, 92
3, 100800, Note_on_c, 1, 80, 92
3, 100956, Note_off_c, 1, 80, 64
3, 100956, Note_off_c, 1, 72, 64
3, 101040, Note_on_c, 1, 72, 92
3, 101040, Note_on_c, 1, 80, 92
3, 101196, Note_off_c, 1, 80, 64
3, 101196, Note_off_c, 1, 72, 64
3, 101280, Note_on_c, 1, 72, 92
3, 101280, Note_on_c, 1, 80, 92
3, 101436, Note_off_c, 1, 80, 64
3, 101436, Note_off_c, 1, 72, 64
3, 101520, Note_on_c, 1, 74, 92
3, 101520, Note_on_c, 1, 77, 92
3, 101676, Note_off_c, 1, 77, 64
3, 101676, Note_off_c, 1, 74, 64
3, 101760, Note_on_c, 1, 77, 92
3, 101760, Note_on_c, 1, 74, 92
3, 101916, Note_off_c, 1, 74, 64
3, 101916, Note_off_c, 1, 77, 64
3, 102000, Note_on_c, 1, 77, 92
3, 102000, Note_on_c, 1, 74, 92
3, 102156, Note_off_c, 1, 74, 64
3, 102156, Note_off_c, 1, 77, 64
3, 102240, Note_on_c, 1, 77, 92
3, 102240, Note_on_c, 1, 80, 92
3, 102396, Note_off_c, 1, 80, 64
3, 102396, Note_off_c, 1, 77, 64
3, 102480, Note_on_c, 1, 79, 92
3, 102480, Note_on_c, 1, 75, 92
3, 102636, Note_off_c, 1, 75, 64
3, 102636, Note_off_c, 1, 79, 64
3, 102720, Note_on_c, 1, 80, 92
3, 102720, Note_on_c, 1, 77, 92
3, 102876, Note_off_c, 1, 77, 64
3, 102876, Note_off_c, 1, 80, 64
3, 102960, Note_on_c, 1, 75, 92
3, 102960, Note_on_c, 1, 79, 92
3, 103116, Note_off_c, 1, 79, 64
3, 103116, Note_off_c, 1, 75, 64
3, 103200, Note_on_c, 1, 70, 92
3, 103200, Note_on_c, 1, 75, 92
3, 103356, Note_off_c, 1, 75, 64
3, 103356, Note_off_c, 1, 70, 64
3, 103440, Note_on_c, 1, 70, 92
3, 103440, Note_on_c, 1, 75, 92
3, 103596, Note_off_c, 1, 75, 64
3, 103596, Note_off_c, 1, 70, 64
3, 103680, Note_on_c, 1, 70, 92
3, 103680, Note_on_c, 1, 75, 92
3, 103836, Note_off_c, 1, 75, 64
3, 103836, Note_off_c, 1, 70, 64
3, 103920, Note_on_c, 1, 70, 92
3, 103920, Note_on_c, 1, 75, 92
3, 104076, Note_off_c, 1, 75, 64
3, 104076, Note_off_c, 1, 70, 64
3, 104160, Note_on_c, 1, 70, 92
3, 104160, Note_on_c, 1, 75, 92
3, 104316, Note_off_c, 1, 75, 64
3, 104316, Note_off_c, 1, 70, 64
3, 107280, Note_on_c, 1, 74, 58
3, 107280, Note_on_c, 1, 77, 58
3, 107760, Note_off_c, 1, 77, 64
3, 107760, Note_off_c, 1, 74, 64
3, 107760, Note_on_c, 1, 75, 58
3, 107760, Note_on_c, 1, 72, 58
3, 108000, Note_off_c, 1, 72, 64
3, 108000, Note_off_c, 1, 75, 64
3, 108000, Note_on_c, 1, 70, 58
3, 108000, Note_on_c, 1, 74, 58
3, 108480, Note_off_c, 1, 74, 64
3, 108480, Note_off_c, 1, 70, 64
3, 108480, Note_on_c, 1, 72, 58
3, 108480, Note_on_c, 1, 69, 58
3, 108672, Note_off_c, 1, 69, 64
3, 108672, Note_off_c, 1, 72, 64
3, 108720, Note_on_c, 1, 70, 58
3, 108852, Note_off_c, 1, 70, 64
3, 108960, Note_on_c, 1, 74, 58
3, 108960, Note_on_c, 1, 70, 58
3, 109200, Note_off_c, 1, 70, 64
3, 109200, Note_off_c, 1, 74, 64
3, 109200, Note_on_c, 1, 74, 58
3, 109200, Note_on_c, 1, 77, 58
3, 109392, Note_off_c, 1, 77, 64
3, 109392, Note_off_c, 1, 74, 64
3, 109440, Note_on_c, 1, 70, 58
3, 109440, Note_on_c, 1, 74, 58
3, 109572, Note_off_c, 1, 74, 64
3, 109572, Note_off_c, 1, 70, 64
3, 110160, Note_on_c, 1, 70, 92
3, 110160, Note_on_c, 1, 82, 92
3, 110352, Note_off_c, 1, 82, 64
3, 110352, Note_off_c, 1, 70, 64
3, 110400, Note_on_c, 1, 82, 92
3, 110400, Note_on_c, 1, 70, 92
3, 110592, Note_off_c, 1, 70, 64
3, 110592, Note_off_c, 1, 82, 64
3, 110640, Note_on_c, 1, 82, 92
3, 110640, Note_on_c, 1, 70, 92
3, 110832, Note_off_c, 1, 70, 64
3, 110832, Note_off_c, 1, 82, 64
3, 110880, Note_on_c, 1, 70, 92
3, 110880, Note_on_c, 1, 82, 92
3, 111072, Note_off_c, 1, 82, 64
3, 111072, Note_off_c, 1, 70, 64
3, 111120, Note_on_c, 1, 70, 92
3, 111120, Note_on_c, 1, 82, 92
3, 111312, Note_off_c, 1, 82, 64
3, 111312, Note_off_c, 1, 70, 64
3, 111360, Note_on_c, 1, 70, 92
3, 111360, Note_on_c, 1, 82, 92
3, 111552, Note_off_c, 1, 82, 64
3, 111552, Note_off_c, 1, 70, 64
3, 111600, Note_on_c, 1, 82, 92
3, 111600, Note_on_c, 1, 70, 92
3, 111792, Note_off_c, 1, 70, 64
3, 111792, Note_off_c, 1, 82, 64
3, 111840, Note_on_c, 1, 82, 92
3, 111840, Note_on_c, 1, 70, 92
3, 112032, Note_off_c, 1, 70, 64
3, 112032, Note_off_c, 1, 82, 64
3, 112080, Note_on_c, 1, 70, 92
3, 112080, Note_on_c, 1, 82, 92
3, 112272, Note_off_c, 1, 82, 64
3, 112272, Note_off_c, 1, 70, 64
3, 112320, Note_on_c, 1, 70, 92
3, 112320, Note_on_c, 1, 82, 92
3, 112512, Note_off_c, 1, 82, 64
3, 112512, Note_off_c, 1, 70, 64
3, 112560, Note_on_c, 1, 70, 92
3, 112560, Note_on_c, 1, 82, 92
3, 112752, Note_off_c, 1, 82, 64
3, 112752, Note_off_c, 1, 70, 64
3, 112800, Note_on_c, 1, 70, 92
3, 112800, Note_on_c, 1, 82, 92
3, 112992, Note_off_c, 1, 82, 64
3, 112992, Note_off_c, 1, 70, 64
3, 113040, Note_on_c, 1, 80, 92
3, 113040, Note_on_c, 1, 72, 92
3, 113232, Note_off_c, 1, 72, 64
3, 113232, Note_off_c, 1, 80, 64
3, 113760, Note_on_c, 1, 77, 92
3, 113760, Note_on_c, 1, 72, 92
3, 113952, Note_off_c, 1, 72, 64
3, 113952, Note_off_c, 1, 77, 64
3, 114480, Note_on_c, 1, 68, 92
3, 114480, Note_on_c, 1, 74, 92
3, 114672, Note_off_c, 1, 74, 64
3, 114672, Note_off_c, 1, 68, 64
3, 115920, Note_on_c, 1, 67, 92
3, 115920, Note_on_c, 1, 70, 92
3, 116076, Note_off_c, 1, 70, 64
3, 116076, Note_off_c, 1, 67, 64
3, 116160, Note_on_c, 1, 79, 92
3, 116160, Note_on_c, 1, 82, 92
3, 116316, Note_off_c, 1, 82, 64
3, 116316, Note_off_c, 1, 79, 64
3, 116400, Note_on_c, 1, 82, 92
3, 116400, Note_on_c, 1, 79, 92
3, 116556, Note_off_c, 1, 79, 64
3, 116556, Note_off_c, 1, 82, 64
3, 116640, Note_on_c, 1, 82, 92
3, 116640, Note_on_c, 1, 70, 92
3, 116796, Note_off_c, 1, 70, 64
3, 116796, Note_off_c, 1, 82, 64
3, 116880, Note_on_c, 1, 72, 92
3, 116880, Note_on_c, 1, 84, 92
3, 117036, Note_off_c, 1, 84, 64
3, 117036, Note_off_c, 1, 72, 64
3, 117120, Note_on_c, 1, 70, 92
3, 117120, Note_on_c, 1, 82, 92
3, 117276, Note_off_c, 1, 82, 64
3, 117276, Note_off_c, 1, 70, 64
3, 117360, Note_on_c, 1, 84, 92
3, 117360, Note_on_c, 1, 72, 92
3, 117516, Note_off_c, 1, 72, 64
3, 117516, Note_off_c, 1, 84, 64
3, 117600, Note_on_c, 1, 72, 92
3, 117600, Note_on_c, 1, 80, 92
3, 117756, Note_off_c, 1, 80, 64
3, 117756, Note_off_c, 1, 72, 64
3, 117840, Note_on_c, 1, 72, 92
3, 117840, Note_on_c, 1, 80, 92
3, 117996, Note_off_c, 1, 80, 64
3, 117996, Note_off_c, 1, 72, 64
3, 118080, Note_on_c, 1, 80, 92
3, 118080, Note_on_c, 1, 72, 92
3, 118236, Note_off_c, 1, 72, 64
3, 118236, Note_off_c, 1, 80, 64
3, 118320, Note_on_c, 1, 72, 92
3, 118320, Note_on_c, 1, 80, 92
3, 118476, Note_off_c, 1, 80, 64
3, 118476, Note_off_c, 1, 72, 64
3, 118560, Note_on_c, 1, 80, 92
3, 118560, Note_on_c, 1, 72, 92
3, 118716, Note_off_c, 1, 72, 64
3, 118716, Note_off_c, 1, 80, 64
3, 118800, Note_on_c, 1, 74, 92
3, 118800, Note_on_c, 1, 77, 92
3, 118956, Note_off_c, 1, 77, 64
3, 118956, Note_off_c, 1, 74, 64
3, 119040, Note_on_c, 1, 74, 92
3, 119040, Note_on_c, 1, 77, 92
3, 119196, Note_off_c, 1, 77, 64
3, 119196, Note_off_c, 1, 74, 64
3, 119280, Note_on_c, 1, 77, 92
3, 119280, Note_on_c, 1, 74, 92
3, 119436, Note_off_c, 1, 74, 64
3, 119436, Note_off_c, 1, 77, 64
3, 119520, Note_on_c, 1, 80, 92
3, 119520, Note_on_c, 1, 77, 92
3, 119676, Note_off_c, 1, 77, 64
3, 119676, Note_off_c, 1, 80, 64
3, 119760, Note_on_c, 1, 75, 92
3, 119760, Note_on_c, 1, 79, 92
3, 119916, Note_off_c, 1, 79, 64
3, 119916, Note_off_c, 1, 75, 64
3, 120000, Note_on_c, 1, 77, 92
3, 120000, Note_on_c, 1, 80, 92
3, 120156, Note_off_c, 1, 80, 64
3, 120156, Note_off_c, 1, 77, 64
3, 120240, Note_on_c, 1, 75, 92
3, 120240, Note_on_c, 1, 79, 92
3, 120396, Note_off_c, 1, 79, 64
3, 120396, Note_off_c, 1, 75, 64
3, 120480, Note_on_c, 1, 75, 92
3, 120480, Note_on_c, 1, 70, 92
3, 120636, Note_off_c, 1, 70, 64
3, 120636, Note_off_c, 1, 75, 64
3, 120720, Note_on_c, 1, 70, 92
3, 120720, Note_on_c, 1, 75, 92
3, 120876, Note_off_c, 1, 75, 64
3, 120876, Note_off_c, 1, 70, 64
3, 120960, Note_on_c, 1, 70, 92
3, 120960, Note_on_c, 1, 75, 92
3, 121116, Note_off_c, 1, 75, 64
3, 121116, Note_off_c, 1, 70, 64
3, 121200, Note_on_c, 1, 75, 92
3, 121200, Note_on_c, 1, 70, 92
3, 121356, Note_off_c, 1, 70, 64
3, 121356, Note_off_c, 1, 75, 64
3, 121440, Note_on_c, 1, 75, 92
3, 121440, Note_on_c, 1, 70, 92
3, 121596, Note_off_c, 1, 70, 64
3, 121596, Note_off_c, 1, 75, 64
3, 124560, Note_on_c, 1, 68, 58
3, 125280, Note_off_c, 1, 68, 64
3, 125280, Note_on_c, 1, 65, 58
3, 125856, Note_off_c, 1, 65, 64
3, 126000, Note_on_c, 1, 70, 105
3, 126000, Note_on_c, 1, 75, 105
3, 126192, Note_off_c, 1, 75, 64
3, 126192, Note_off_c, 1, 70, 64
3, 126240, Note_on_c, 1, 74, 105
3, 126240, Note_on_c, 1, 68, 105
3, 126432, Note_off_c, 1, 68, 64
3, 126432, Note_off_c, 1, 74, 64
3, 126480, Note_on_c, 1, 75, 105
3, 126480, Note_on_c, 1, 68, 105
3, 126672, Note_off_c, 1, 68, 64
3, 126672, Note_off_c, 1, 75, 64
3, 126720, Note_on_c, 1, 70, 105
3, 126720, Note_on_c, 1, 79, 105
3, 126816, Note_off_c, 1, 70, 64
3, 126840, Note_off_c, 1, 79, 64
3, 126840, Note_on_c, 1, 68, 105
3, 126840, Note_on_c, 1, 77, 105
3, 126936, Note_off_c, 1, 77, 64
3, 126936, Note_off_c, 1, 68, 64
3, 126960, Note_on_c, 1, 77, 105
3, 126960, Note_on_c, 1, 68, 105
3, 127056, Note_off_c, 1, 68, 64
3, 127080, Note_off_c, 1, 77, 64
3, 127080, Note_on_c, 1, 75, 105
3, 127080, Note_on_c, 1, 67, 105
3, 127176, Note_off_c, 1, 67, 64
3, 127176, Note_off_c, 1, 75, 64
3, 127200, Note_on_c, 1, 67, 105
3, 127200, Note_on_c, 1, 75, 105
3, 127296, Note_off_c, 1, 67, 64
3, 127320, Note_off_c, 1, 75, 64
3, 127320, Note_on_c, 1, 65, 105
3, 127320, Note_on_c, 1, 74, 105
3, 127416, Note_off_c, 1, 74, 64
3, 127416, Note_off_c, 1, 65, 64
3, 127440, Note_on_c, 1, 70, 105
3, 127440, Note_on_c, 1, 82, 105
3, 127680, Note_off_c, 1, 70, 64
3, 127680, Note_on_c, 1, 80, 105
3, 127920, Note_off_c, 1, 80, 64
3, 127920, Note_on_c, 1, 79, 105
3, 128112, Note_off_c, 1, 79, 64
3, 128112, Note_off_c, 1, 82, 64
3, 128160, Note_on_c, 1, 82, 105
3, 128160, Note_on_c, 1, 79, 105
3, 128256, Note_off_c, 1, 82, 64
3, 128280, Note_off_c, 1, 79, 64
3, 128280, Note_on_c, 1, 80, 105
3, 128280, Note_on_c, 1, 77, 105
3, 128376, Note_off_c, 1, 77, 64
3, 128376, Note_off_c, 1, 80, 64
3, 128400, Note_on_c, 1, 77, 105
3, 128400, Note_on_c, 1, 80, 105
3, 128496, Note_off_c, 1, 80, 64
3, 128520, Note_off_c, 1, 77, 64
3, 128520, Note_on_c, 1, 75, 105
3, 128520, Note_on_c, 1, 79, 105
3, 128616, Note_off_c, 1, 79, 64
3, 128616, Note_off_c, 1, 75, 64
3, 128640, Note_on_c, 1, 79, 105
3, 128640, Note_on_c, 1, 75, 105
3, 128736, Note_off_c, 1, 79, 64
3, 128760, Note_off_c, 1, 75, 64
3, 128760, Note_on_c, 1, 74, 105
3, 128760, Note_on_c, 1, 77, 105
3, 128856, Note_off_c, 1, 77, 64
3, 128856, Note_off_c, 1, 74, 64
3, 128880, Note_on_c, 1, 75, 125
3, 129000, Note_off_c, 1, 75, 64
3, 129120, Note_on_c, 1, 67, 105
3, 129120, Note_on_c, 1, 75, 105
3, 129312, Note_off_c, 1, 67, 64
3, 129360, Note_off_c, 1, 75, 64
3, 129360, Note_on_c, 1, 70, 105
3, 129360, Note_on_c, 1, 79, 105
3, 129552, Note_off_c, 1, 79, 64
3, 129552, Note_off_c, 1, 70, 64
3, 129600, Note_on_c, 1, 75, 105
3, 129600, Note_on_c, 1, 67, 105
3, 129792, Note_off_c, 1, 67, 64
3, 129792, Note_off_c, 1, 75, 64
3, 129792, End_track
4, 0, Start_track
4, 0, Program_c, 1, 71
4, 0, Control_c, 1, 7, 89
4, 0, Control_c, 1, 91, 80
4, 0, Control_c, 1, 10, 64
4, 64080, Note_on_c, 1, 51, 70
4, 64176, Note_off_c, 1, 51, 64
4, 64200, Note_on_c, 1, 55, 70
4, 64296, Note_off_c, 1, 55, 64
4, 64320, Note_on_c, 1, 58, 70
4, 64416, Note_off_c, 1, 58, 64
4, 64440, Note_on_c, 1, 55, 70
4, 64536, Note_off_c, 1, 55, 64
4, 64560, Note_on_c, 1, 58, 70
4, 64656, Note_off_c, 1, 58, 64
4, 64680, Note_on_c, 1, 55, 70
4, 64776, Note_off_c, 1, 55, 64
4, 64800, Note_on_c, 1, 51, 70
4, 64896, Note_off_c, 1, 51, 64
4, 64920, Note_on_c, 1, 55, 70
4, 65016, Note_off_c, 1, 55, 64
4, 65040, Note_on_c, 1, 58, 70
4, 65136, Note_off_c, 1, 58, 64
4, 65160, Note_on_c, 1, 55, 70
4, 65256, Note_off_c, 1, 55, 64
4, 65280, Note_on_c, 1, 58, 70
4, 65376, Note_off_c, 1, 58, 64
4, 65400, Note_on_c, 1, 55, 70
4, 65496, Note_off_c, 1, 55, 64
4, 65520, Note_on_c, 1, 53, 70
4, 65616, Note_off_c, 1, 53, 64
4, 65640, Note_on_c, 1, 56, 70
4, 65736, Note_off_c, 1, 56, 64
4, 65760, Note_on_c, 1, 58, 70
4, 65856, Note_off_c, 1, 58, 64
4, 65880, Note_on_c, 1, 56, 70
4, 65976, Note_off_c, 1, 56, 64
4, 66000, Note_on_c, 1, 58, 70
4, 66096, Note_off_c, 1, 58, 64
4, 66120, Note_on_c, 1, 56, 70
4, 66216, Note_off_c, 1, 56, 64
4, 66240, Note_on_c, 1, 53, 70
4, 66336, Note_off_c, 1, 53, 64
4, 66360, Note_on_c, 1, 56, 70
4, 66456, Note_off_c, 1, 56, 64
4, 66480, Note_on_c, 1, 58, 70
4, 66576, Note_off_c, 1, 58, 64
4, 66600, Note_on_c, 1, 56, 70
4, 66696, Note_off_c, 1, 56, 64
4, 66720, Note_on_c, 1, 58, 70
4, 66816, Note_off_c, 1, 58, 64
4, 66840, Note_on_c, 1, 56, 70
4, 66936, Note_off_c, 1, 56, 64
4, 66960, Note_on_c, 1, 50, 70
4, 67056, Note_off_c, 1, 50, 64
4, 67080, Note_on_c, 1, 56, 70
4, 67176, Note_off_c, 1, 56, 64
4, 67200, Note_on_c, 1, 58, 70
4, 67296, Note_off_c, 1, 58, 64
4, 67320, Note_on_c, 1, 56, 70
4, 67416, Note_off_c, 1, 56, 64
4, 67440, Note_on_c, 1, 58, 70
4, 67536, Note_off_c, 1, 58, 64
4, 67560, Note_on_c, 1, 56, 70
4, 67656, Note_off_c, 1, 56, 64
4, 67680, Note_on_c, 1, 50, 70
4, 67776, Note_off_c, 1, 50, 64
4, 67800, Note_on_c, 1, 56, 70
4, 67896, Note_off_c, 1, 56, 64
4, 67920, Note_on_c, 1, 58, 70
4, 68016, Note_off_c, 1, 58, 64
4, 68040, Note_on_c, 1, 56, 70
4, 68136, Note_off_c, 1, 56, 64
4, 68160, Note_on_c, 1, 58, 70
4, 68256, Note_off_c, 1, 58, 64
4, 68280, Note_on_c, 1, 56, 70
4, 68376, Note_off_c, 1, 56, 64
4, 68400, Note_on_c, 1, 55, 70
4, 68496, Note_off_c, 1, 55, 64
4, 68520, Note_on_c, 1, 58, 70
4, 68616, Note_off_c, 1, 58, 64
4, 68640, Note_on_c, 1, 51, 70
4, 68736, Note_off_c, 1, 51, 64
4, 68760, Note_on_c, 1, 58, 70
4, 68856, Note_off_c, 1, 58, 64
4, 68880, Note_on_c, 1, 50, 70
4, 68976, Note_off_c, 1, 50, 64
4, 69000, Note_on_c, 1, 58, 70
4, 69096, Note_off_c, 1, 58, 64
4, 69120, Note_on_c, 1, 51, 70
4, 69312, Note_off_c, 1, 51, 64
4, 69840, Note_on_c, 1, 51, 70
4, 69936, Note_off_c, 1, 51, 64
4, 69960, Note_on_c, 1, 55, 70
4, 70056, Note_off_c, 1, 55, 64
4, 70080, Note_on_c, 1, 58, 70
4, 70176, Note_off_c, 1, 58, 64
4, 70200, Note_on_c, 1, 55, 70
4, 70296, Note_off_c, 1, 55, 64
4, 70320, Note_on_c, 1, 58, 70
4, 70416, Note_off_c, 1, 58, 64
4, 70440, Note_on_c, 1, 55, 70
4, 70536, Note_off_c, 1, 55, 64
4, 70560, Note_on_c, 1, 51, 70
4, 70656, Note_off_c, 1, 51, 64
4, 70680, Note_on_c, 1, 55, 70
4, 70776, Note_off_c, 1, 55, 64
4, 70800, Note_on_c, 1, 58, 70
4, 70896, Note_off_c, 1, 58, 64
4, 70920, Note_on_c, 1, 55, 70
4, 71016, Note_off_c, 1, 55, 64
4, 71040, Note_on_c, 1, 58, 70
4, 71136, Note_off_c, 1, 58, 64
4, 71160, Note_on_c, 1, 55, 70
4, 71256, Note_off_c, 1, 55, 64
4, 71280, Note_on_c, 1, 53, 70
4, 71376, Note_off_c, 1, 53, 64
4, 71400, Note_on_c, 1, 56, 70
4, 71496, Note_off_c, 1, 56, 64
4, 71520, Note_on_c, 1, 58, 70
4, 71616, Note_off_c, 1, 58, 64
4, 71640, Note_on_c, 1, 56, 70
4, 71736, Note_off_c, 1, 56, 64
4, 71760, Note_on_c, 1, 58, 70
4, 71856, Note_off_c, 1, 58, 64
4, 71880, Note_on_c, 1, 56, 70
4, 71976, Note_off_c, 1, 56, 64
4, 72000, Note_on_c, 1, 53, 70
4, 72096, Note_off_c, 1, 53, 64
4, 72120, Note_on_c, 1, 56, 70
4, 72216, Note_off_c, 1, 56, 64
4, 72240, Note_on_c, 1, 58, 70
4, 72336, Note_off_c, 1, 58, 64
4, 72360, Note_on_c, 1, 56, 70
4, 72456, Note_off_c, 1, 56, 64
4, 72480, Note_on_c, 1, 58, 70
4, 72576, Note_off_c, 1, 58, 64
4, 72600, Note_on_c, 1, 56, 70
4, 72696, Note_off_c, 1, 56, 64
4, 72720, Note_on_c, 1, 50, 70
4, 72816, Note_off_c, 1, 50, 64
4, 72840, Note_on_c, 1, 56, 70
4, 72936, Note_off_c, 1, 56, 64
4, 72960, Note_on_c, 1, 58, 70
4, 73056, Note_off_c, 1, 58, 64
4, 73080, Note_on_c, 1, 56, 70
4, 73176, Note_off_c, 1, 56, 64
4, 73200, Note_on_c, 1, 58, 70
4, 73296, Note_off_c, 1, 58, 64
4, 73320, Note_on_c, 1, 56, 70
4, 73416, Note_off_c, 1, 56, 64
4, 73440, Note_on_c, 1, 50, 70
4, 73536, Note_off_c, 1, 50, 64
4, 73560, Note_on_c, 1, 56, 70
4, 73656, Note_off_c, 1, 56, 64
4, 73680, Note_on_c, 1, 58, 70
4, 73776, Note_off_c, 1, 58, 64
4, 73800, Note_on_c, 1, 56, 70
4, 73896, Note_off_c, 1, 56, 64
4, 73920, Note_on_c, 1, 58, 70
4, 74016, Note_off_c, 1, 58, 64
4, 74040, Note_on_c, 1, 56, 70
4, 74136, Note_off_c, 1, 56, 64
4, 74160, Note_on_c, 1, 55, 70
4, 74256, Note_off_c, 1, 55, 64
4, 74280, Note_on_c, 1, 58, 70
4, 74376, Note_off_c, 1, 58, 64
4, 74400, Note_on_c, 1, 51, 70
4, 74496, Note_off_c, 1, 51, 64
4, 74520, Note_on_c, 1, 58, 70
4, 74616, Note_off_c, 1, 58, 64
4, 74640, Note_on_c, 1, 50, 70
4, 74736, Note_off_c, 1, 50, 64
4, 74760, Note_on_c, 1, 58, 70
4, 74856, Note_off_c, 1, 58, 64
4, 74880, Note_on_c, 1, 51, 70
4, 75072, Note_off_c, 1, 51, 64
4, 81360, Note_on_c, 1, 51, 70
4, 81456, Note_off_c, 1, 51, 64
4, 81480, Note_on_c, 1, 55, 70
4, 81576, Note_off_c, 1, 55, 64
4, 81600, Note_on_c, 1, 58, 70
4, 81696, Note_off_c, 1, 58, 64
4, 81720, Note_on_c, 1, 55, 70
4, 81816, Note_off_c, 1, 55, 64
4, 81840, Note_on_c, 1, 58, 70
4, 81936, Note_off_c, 1, 58, 64
4, 81960, Note_on_c, 1, 55, 70
4, 82056, Note_off_c, 1, 55, 64
4, 82080, Note_on_c, 1, 51, 70
4, 82176, Note_off_c, 1, 51, 64
4, 82200, Note_on_c, 1, 55, 70
4, 82296, Note_off_c, 1, 55, 64
4, 82320, Note_on_c, 1, 58, 70
4, 82416, Note_off_c, 1, 58, 64
4, 82440, Note_on_c, 1, 55, 70
4, 82536, Note_off_c, 1, 55, 64
4, 82560, Note_on_c, 1, 58, 70
4, 82656, Note_off_c, 1, 58, 64
4, 82680, Note_on_c, 1, 55, 70
4, 82776, Note_off_c, 1, 55, 64
4, 82800, Note_on_c, 1, 53, 70
4, 82896, Note_off_c, 1, 53, 64
4, 82920, Note_on_c, 1, 56, 70
4, 83016, Note_off_c, 1, 56, 64
4, 83040, Note_on_c, 1, 58, 70
4, 83136, Note_off_c, 1, 58, 64
4, 83160, Note_on_c, 1, 56, 70
4, 83256, Note_off_c, 1, 56, 64
4, 83280, Note_on_c, 1, 58, 70
4, 83376, Note_off_c, 1, 58, 64
4, 83400, Note_on_c, 1, 56, 70
4, 83496, Note_off_c, 1, 56, 64
4, 83520, Note_on_c, 1, 53, 70
4, 83616, Note_off_c, 1, 53, 64
4, 83640, Note_on_c, 1, 56, 70
4, 83736, Note_off_c, 1, 56, 64
4, 83760, Note_on_c, 1, 58, 70
4, 83856, Note_off_c, 1, 58, 64
4, 83880, Note_on_c, 1, 56, 70
4, 83976, Note_off_c, 1, 56, 64
4, 84000, Note_on_c, 1, 58, 70
4, 84096, Note_off_c, 1, 58, 64
4, 84120, Note_on_c, 1, 56, 70
4, 84216, Note_off_c, 1, 56, 64
4, 84240, Note_on_c, 1, 50, 70
4, 84336, Note_off_c, 1, 50, 64
4, 84360, Note_on_c, 1, 56, 70
4, 84456, Note_off_c, 1, 56, 64
4, 84480, Note_on_c, 1, 58, 70
4, 84576, Note_off_c, 1, 58, 64
4, 84600, Note_on_c, 1, 56, 70
4, 84696, Note_off_c, 1, 56, 64
4, 84720, Note_on_c, 1, 58, 70
4, 84816, Note_off_c, 1, 58, 64
4, 84840, Note_on_c, 1, 56, 70
4, 84936, Note_off_c, 1, 56, 64
4, 84960, Note_on_c, 1, 50, 70
4, 85056, Note_off_c, 1, 50, 64
4, 85080, Note_on_c, 1, 56, 70
4, 85176, Note_off_c, 1, 56, 64
4, 85200, Note_on_c, 1, 58, 70
4, 85296, Note_off_c, 1, 58, 64
4, 85320, Note_on_c, 1, 56, 70
4, 85416, Note_off_c, 1, 56, 64
4, 85440, Note_on_c, 1, 58, 70
4, 85536, Note_off_c, 1, 58, 64
4, 85560, Note_on_c, 1, 56, 70
4, 85656, Note_off_c, 1, 56, 64
4, 85680, Note_on_c, 1, 55, 70
4, 85776, Note_off_c, 1, 55, 64
4, 85800, Note_on_c, 1, 58, 70
4, 85896, Note_off_c, 1, 58, 64
4, 85920, Note_on_c, 1, 51, 70
4, 86016, Note_off_c, 1, 51, 64
4, 86040, Note_on_c, 1, 58, 70
4, 86136, Note_off_c, 1, 58, 64
4, 86160, Note_on_c, 1, 50, 70
4, 86256, Note_off_c, 1, 50, 64
4, 86280, Note_on_c, 1, 58, 70
4, 86376, Note_off_c, 1, 58, 64
4, 86400, Note_on_c, 1, 51, 70
4, 86592, Note_off_c, 1, 51, 64
4, 92880, Note_on_c, 1, 51, 70
4, 92976, Note_off_c, 1, 51, 64
4, 93000, Note_on_c, 1, 55, 70
4, 93096, Note_off_c, 1, 55, 64
4, 93120, Note_on_c, 1, 58, 70
4, 93216, Note_off_c, 1, 58, 64
4, 93240, Note_on_c, 1, 55, 70
4, 93336, Note_off_c, 1, 55, 64
4, 93360, Note_on_c, 1, 58, 70
4, 93456, Note_off_c, 1, 58, 64
4, 93480, Note_on_c, 1, 55, 70
4, 93576, Note_off_c, 1, 55, 64
4, 93600, Note_on_c, 1, 51, 70
4, 93696, Note_off_c, 1, 51, 64
4, 93720, Note_on_c, 1, 55, 70
4, 93816, Note_off_c, 1, 55, 64
4, 93840, Note_on_c, 1, 58, 70
4, 93936, Note_off_c, 1, 58, 64
4, 93960, Note_on_c, 1, 55, 70
4, 94056, Note_off_c, 1, 55, 64
4, 94080, Note_on_c, 1, 58, 70
4, 94176, Note_off_c, 1, 58, 64
4, 94200, Note_on_c, 1, 55, 70
4, 94296, Note_off_c, 1, 55, 64
4, 94320, Note_on_c, 1, 53, 70
4, 94416, Note_off_c, 1, 53, 64
4, 94440, Note_on_c, 1, 56, 70
4, 94536, Note_off_c, 1, 56, 64
4, 94560, Note_on_c, 1, 58, 70
4, 94656, Note_off_c, 1, 58, 64
4, 94680, Note_on_c, 1, 56, 70
4, 94776, Note_off_c, 1, 56, 64
4, 94800, Note_on_c, 1, 58, 70
4, 94896, Note_off_c, 1, 58, 64
4, 94920, Note_on_c, 1, 56, 70
4, 95016, Note_off_c, 1, 56, 64
4, 95040, Note_on_c, 1, 53, 70
4, 95136, Note_off_c, 1, 53, 64
4, 95160, Note_on_c, 1, 56, 70
4, 95256, Note_off_c, 1, 56, 64
4, 95280, Note_on_c, 1, 58, 70
4, 95376, Note_off_c, 1, 58, 64
4, 95400, Note_on_c, 1, 56, 70
4, 95496, Note_off_c, 1, 56, 64
4, 95520, Note_on_c, 1, 58, 70
4, 95616, Note_off_c, 1, 58, 64
4, 95640, Note_on_c, 1, 56, 70
4, 95736, Note_off_c, 1, 56, 64
4, 95760, Note_on_c, 1, 50, 70
4, 95856, Note_off_c, 1, 50, 64
4, 95880, Note_on_c, 1, 56, 70
4, 95976, Note_off_c, 1, 56, 64
4, 96000, Note_on_c, 1, 58, 70
4, 96096, Note_off_c, 1, 58, 64
4, 96120, Note_on_c, 1, 56, 70
4, 96216, Note_off_c, 1, 56, 64
4, 96240, Note_on_c, 1, 58, 70
4, 96336, Note_off_c, 1, 58, 64
4, 96360, Note_on_c, 1, 56, 70
4, 96456, Note_off_c, 1, 56, 64
4, 96480, Note_on_c, 1, 50, 70
4, 96576, Note_off_c, 1, 50, 64
4, 96600, Note_on_c, 1, 56, 70
4, 96696, Note_off_c, 1, 56, 64
4, 96720, Note_on_c, 1, 58, 70
4, 96816, Note_off_c, 1, 58, 64
4, 96840, Note_on_c, 1, 56, 70
4, 96936, Note_off_c, 1, 56, 64
4, 96960, Note_on_c, 1, 58, 70
4, 97056, Note_off_c, 1, 58, 64
4, 97080, Note_on_c, 1, 56, 70
4, 97176, Note_off_c, 1, 56, 64
4, 97200, Note_on_c, 1, 55, 70
4, 97296, Note_off_c, 1, 55, 64
4, 97320, Note_on_c, 1, 58, 70
4, 97416, Note_off_c, 1, 58, 64
4, 97440, Note_on_c, 1, 51, 70
4, 97536, Note_off_c, 1, 51, 64
4, 97560, Note_on_c, 1, 58, 70
4, 97656, Note_off_c, 1, 58, 64
4, 97680, Note_on_c, 1, 50, 70
4, 97776, Note_off_c, 1, 50, 64
4, 97800, Note_on_c, 1, 58, 70
4, 97896, Note_off_c, 1, 58, 64
4, 97920, Note_on_c, 1, 51, 70
4, 98112, Note_off_c, 1, 51, 64
4, 98112, End_track
5, 0, Start_track
5, 0, Program_c, 2, 70
5, 0, Control_c, 2, 7, 91
5, 0, Control_c, 2, 91, 80
5, 0, Control_c, 2, 10, 72
5, 720, Note_on_c, 2, 63, 92
5, 720, Note_on_c, 2, 55, 92
5, 876, Note_off_c, 2, 55, 64
5, 876, Note_off_c, 2, 63, 64
5, 960, Note_on_c, 2, 58, 92
5, 960, Note_on_c, 2, 55, 92
5, 1116, Note_off_c, 2, 55, 64
5, 1116, Note_off_c, 2, 58, 64
5, 1200, Note_on_c, 2, 55, 92
5, 1200, Note_on_c, 2, 58, 92
5, 1356, Note_off_c, 2, 58, 64
5, 1356, Note_off_c, 2, 55, 64
5, 1440, Note_on_c, 2, 58, 92
5, 1440, Note_on_c, 2, 55, 92
5, 1596, Note_off_c, 2, 55, 64
5, 1596, Note_off_c, 2, 58, 64
5, 1680, Note_on_c, 2, 56, 92
5, 1680, Note_on_c, 2, 60, 92
5, 1836, Note_off_c, 2, 60, 64
5, 1836, Note_off_c, 2, 56, 64
5, 1920, Note_on_c, 2, 55, 92
5, 1920, Note_on_c, 2, 58, 92
5, 2076, Note_off_c, 2, 58, 64
5, 2076, Note_off_c, 2, 55, 64
5, 2160, Note_on_c, 2, 60, 92
5, 2160, Note_on_c, 2, 56, 92
5, 2316, Note_off_c, 2, 56, 64
5, 2316, Note_off_c, 2, 60, 64
5, 2400, Note_on_c, 2, 56, 92
5, 2400, Note_on_c, 2, 60, 92
5, 2556, Note_off_c, 2, 60, 64
5, 2556, Note_off_c, 2, 56, 64
5, 2640, Note_on_c, 2, 56, 92
5, 2640, Note_on_c, 2, 60, 92
5, 2796, Note_off_c, 2, 60, 64
5, 2796, Note_off_c, 2, 56, 64
5, 2880, Note_on_c, 2, 60, 92
5, 2880, Note_on_c, 2, 56, 92
5, 3036, Note_off_c, 2, 56, 64
5, 3036, Note_off_c, 2, 60, 64
5, 3120, Note_on_c, 2, 60, 92
5, 3120, Note_on_c, 2, 56, 92
5, 3276, Note_off_c, 2, 56, 64
5, 3276, Note_off_c, 2, 60, 64
5, 3360, Note_on_c, 2, 56, 92
5, 3360, Note_on_c, 2, 60, 92
5, 3516, Note_off_c, 2, 60, 64
5, 3516, Note_off_c, 2, 56, 64
5, 3600, Note_on_c, 2, 62, 92
5, 3600, Note_on_c, 2, 58, 92
5, 3756, Note_off_c, 2, 58, 64
5, 3756, Note_off_c, 2, 62, 64
5, 3840, Note_on_c, 2, 65, 92
5, 3840, Note_on_c, 2, 62, 92
5, 3996, Note_off_c, 2, 62, 64
5, 3996, Note_off_c, 2, 65, 64
5, 4080, Note_on_c, 2, 62, 92
5, 4080, Note_on_c, 2, 65, 92
5, 4236, Note_off_c, 2, 65, 64
5, 4236, Note_off_c, 2, 62, 64
5, 4320, Note_on_c, 2, 65, 92
5, 4320, Note_on_c, 2, 62, 92
5, 4476, Note_off_c, 2, 62, 64
5, 4476, Note_off_c, 2, 65, 64
5, 4560, Note_on_c, 2, 67, 92
5, 4560, Note_on_c, 2, 63, 92
5, 4716, Note_off_c, 2, 63, 64
5, 4716, Note_off_c, 2, 67, 64
5, 4800, Note_on_c, 2, 62, 92
5, 4800, Note_on_c, 2, 65, 92
5, 4956, Note_off_c, 2, 65, 64
5, 4956, Note_off_c, 2, 62, 64
5, 5040, Note_on_c, 2, 63, 92
5, 5040, Note_on_c, 2, 67, 92
5, 5196, Note_off_c, 2, 67, 64
5, 5196, Note_off_c, 2, 63, 64
5, 5280, Note_on_c, 2, 55, 92
5, 5280, Note_on_c, 2, 58, 92
5, 5436, Note_off_c, 2, 58, 64
5, 5436, Note_off_c, 2, 55, 64
5, 5520, Note_on_c, 2, 58, 92
5, 5520, Note_on_c, 2, 55, 92
5, 5676, Note_off_c, 2, 55, 64
5, 5676, Note_off_c, 2, 58, 64
5, 5760, Note_on_c, 2, 55, 92
5, 5760, Note_on_c, 2, 58, 92
5, 5916, Note_off_c, 2, 58, 64
5, 5916, Note_off_c, 2, 55, 64
5, 6000, Note_on_c, 2, 55, 92
5, 6000, Note_on_c, 2, 58, 92
5, 6156, Note_off_c, 2, 58, 64
5, 6156, Note_off_c, 2, 55, 64
5, 6240, Note_on_c, 2, 58, 92
5, 6240, Note_on_c, 2, 55, 92
5, 6396, Note_off_c, 2, 55, 64
5, 6396, Note_off_c, 2, 58, 64
5, 10080, Note_on_c, 2, 62, 58
5, 10080, Note_on_c, 2, 65, 58
5, 10560, Note_off_c, 2, 65, 64
5, 10560, Note_off_c, 2, 62, 64
5, 10560, Note_on_c, 2, 60, 58
5, 10560, Note_on_c, 2, 63, 58
5, 10752, Note_off_c, 2, 63, 64
5, 10752, Note_off_c, 2, 60, 64
5, 10800, Note_on_c, 2, 58, 58
5, 10800, Note_on_c, 2, 62, 58
5, 10932, Note_off_c, 2, 62, 64
5, 10932, Note_off_c, 2, 58, 64
5, 11040, Note_on_c, 2, 58, 58
5, 11040, Note_on_c, 2, 62, 58
5, 11280, Note_off_c, 2, 62, 64
5, 11280, Note_off_c, 2, 58, 64
5, 11280, Note_on_c, 2, 62, 58
5, 11280, Note_on_c, 2, 65, 58
5, 11472, Note_off_c, 2, 65, 64
5, 11472, Note_off_c, 2, 62, 64
5, 11520, Note_on_c, 2, 58, 58
5, 11520, Note_on_c, 2, 62, 58
5, 11652, Note_off_c, 2, 62, 64
5, 11652, Note_off_c, 2, 58, 64
5, 12240, Note_on_c, 2, 63, 92
5, 12240, Note_on_c, 2, 55, 92
5, 12396, Note_off_c, 2, 55, 64
5, 12396, Note_off_c, 2, 63, 64
5, 12480, Note_on_c, 2, 58, 92
5, 12480, Note_on_c, 2, 55, 92
5, 12636, Note_off_c, 2, 55, 64
5, 12636, Note_off_c, 2, 58, 64
5, 12720, Note_on_c, 2, 55, 92
5, 12720, Note_on_c, 2, 58, 92
5, 12876, Note_off_c, 2, 58, 64
5, 12876, Note_off_c, 2, 55, 64
5, 12960, Note_on_c, 2, 58, 92
5, 12960, Note_on_c, 2, 55, 92
5, 13116, Note_off_c, 2, 55, 64
5, 13116, Note_off_c, 2, 58, 64
5, 13200, Note_on_c, 2, 56, 92
5, 13200, Note_on_c, 2, 60, 92
5, 13356, Note_off_c, 2, 60, 64
5, 13356, Note_off_c, 2, 56, 64
5, 13440, Note_on_c, 2, 55, 92
5, 13440, Note_on_c, 2, 58, 92
5, 13596, Note_off_c, 2, 58, 64
5, 13596, Note_off_c, 2, 55, 64
5, 13680, Note_on_c, 2, 60, 92
5, 13680, Note_on_c, 2, 56, 92
5, 13836, Note_off_c, 2, 56, 64
5, 13836, Note_off_c, 2, 60, 64
5, 13920, Note_on_c, 2, 56, 92
5, 13920, Note_on_c, 2, 60, 92
5, 14076, Note_off_c, 2, 60, 64
5, 14076, Note_off_c, 2, 56, 64
5, 14160, Note_on_c, 2, 56, 92
5, 14160, Note_on_c, 2, 60, 92
5, 14316, Note_off_c, 2, 60, 64
5, 14316, Note_off_c, 2, 56, 64
5, 14400, Note_on_c, 2, 60, 92
5, 14400, Note_on_c, 2, 56, 92
5, 14556, Note_off_c, 2, 56, 64
5, 14556, Note_off_c, 2, 60, 64
5, 14640, Note_on_c, 2, 60, 92
5, 14640, Note_on_c, 2, 56, 92
5, 14796, Note_off_c, 2, 56, 64
5, 14796, Note_off_c, 2, 60, 64
5, 14880, Note_on_c, 2, 56, 92
5, 14880, Note_on_c, 2, 60, 92
5, 15036, Note_off_c, 2, 60, 64
5, 15036, Note_off_c, 2, 56, 64
5, 15120, Note_on_c, 2, 62, 92
5, 15120, Note_on_c, 2, 58, 92
5, 15276, Note_off_c, 2, 58, 64
5, 15276, Note_off_c, 2, 62, 64
5, 15360, Note_on_c, 2, 65, 92
5, 15360, Note_on_c, 2, 62, 92
5, 15516, Note_off_c, 2, 62, 64
5, 15516, Note_off_c, 2, 65, 64
5, 15600, Note_on_c, 2, 62, 92
5, 15600, Note_on_c, 2, 65, 92
5, 15756, Note_off_c, 2, 65, 64
5, 15756, Note_off_c, 2, 62, 64
5, 15840, Note_on_c, 2, 65, 92
5, 15840, Note_on_c, 2, 62, 92
5, 15996, Note_off_c, 2, 62, 64
5, 15996, Note_off_c, 2, 65, 64
5, 16080, Note_on_c, 2, 67, 92
5, 16080, Note_on_c, 2, 63, 92
5, 16236, Note_off_c, 2, 63, 64
5, 16236, Note_off_c, 2, 67, 64
5, 16320, Note_on_c, 2, 62, 92
5, 16320, Note_on_c, 2, 65, 92
5, 16476, Note_off_c, 2, 65, 64
5, 16476, Note_off_c, 2, 62, 64
5, 16560, Note_on_c, 2, 63, 92
5, 16560, Note_on_c, 2, 67, 92
5, 16716, Note_off_c, 2, 67, 64
5, 16716, Note_off_c, 2, 63, 64
5, 16800, Note_on_c, 2, 55, 92
5, 16800, Note_on_c, 2, 58, 92
5, 16956, Note_off_c, 2, 58, 64
5, 16956, Note_off_c, 2, 55, 64
5, 17040, Note_on_c, 2, 58, 92
5, 17040, Note_on_c, 2, 55, 92
5, 17196, Note_off_c, 2, 55, 64
5, 17196, Note_off_c, 2, 58, 64
5, 17280, Note_on_c, 2, 55, 92
5, 17280, Note_on_c, 2, 58, 92
5, 17436, Note_off_c, 2, 58, 64
5, 17436, Note_off_c, 2, 55, 64
5, 17520, Note_on_c, 2, 55, 92
5, 17520, Note_on_c, 2, 58, 92
5, 17676, Note_off_c, 2, 58, 64
5, 17676, Note_off_c, 2, 55, 64
5, 17760, Note_on_c, 2, 58, 92
5, 17760, Note_on_c, 2, 55, 92
5, 17916, Note_off_c, 2, 55, 64
5, 17916, Note_off_c, 2, 58, 64
5, 21600, Note_on_c, 2, 62, 58
5, 21600, Note_on_c, 2, 65, 58
5, 22080, Note_off_c, 2, 65, 64
5, 22080, Note_off_c, 2, 62, 64
5, 22080, Note_on_c, 2, 60, 58
5, 22080, Note_on_c, 2, 63, 58
5, 22272, Note_off_c, 2, 63, 64
5, 22272, Note_off_c, 2, 60, 64
5, 22320, Note_on_c, 2, 58, 58
5, 22320, Note_on_c, 2, 62, 58
5, 22452, Note_off_c, 2, 62, 64
5, 22452, Note_off_c, 2, 58, 64
5, 22560, Note_on_c, 2, 58, 58
5, 22560, Note_on_c, 2, 62, 58
5, 22800, Note_off_c, 2, 62, 64
5, 22800, Note_off_c, 2, 58, 64
5, 22800, Note_on_c, 2, 62, 58
5, 22800, Note_on_c, 2, 65, 58
5, 22992, Note_off_c, 2, 65, 64
5, 22992, Note_off_c, 2, 62, 64
5, 23040, Note_on_c, 2, 58, 58
5, 23040, Note_on_c, 2, 62, 58
5, 23172, Note_off_c, 2, 62, 64
5, 23172, Note_off_c, 2, 58, 64
5, 23760, Note_on_c, 2, 58, 92
5, 24672, Note_off_c, 2, 58, 64
5, 24720, Note_on_c, 2, 50, 92
5, 24960, Note_off_c, 2, 50, 64
5, 24960, Note_on_c, 2, 51, 92
5, 25152, Note_off_c, 2, 51, 64
5, 25200, Note_on_c, 2, 53, 92
5, 25440, Note_off_c, 2, 53, 64
5, 25440, Note_on_c, 2, 58, 92
5, 26112, Note_off_c, 2, 58, 64
5, 26160, Note_on_c, 2, 62, 92
5, 26400, Note_off_c, 2, 62, 64
5, 26400, Note_on_c, 2, 63, 92
5, 26640, Note_off_c, 2, 63, 64
5, 26640, Note_on_c, 2, 60, 92
5, 26640, Note_on_c, 2, 65, 92
5, 26832, Note_off_c, 2, 65, 64
5, 26832, Note_off_c, 2, 60, 64
5, 27360, Note_on_c, 2, 60, 92
5, 27360, Note_on_c, 2, 65, 92
5, 27552, Note_off_c, 2, 65, 64
5, 27552, Note_off_c, 2, 60, 64
5, 28080, Note_on_c, 2, 56, 92
5, 28080, Note_on_c, 2, 62, 92
5, 28272, Note_off_c, 2, 62, 64
5, 28272, Note_off_c, 2, 56, 64
5, 29520, Note_on_c, 2, 51, 92
5, 29520, Note_on_c, 2, 55, 92
5, 29676, Note_off_c, 2, 55, 64
5, 29676, Note_off_c, 2, 51, 64
5, 29760, Note_on_c, 2, 58, 92
5, 29760, Note_on_c, 2, 55, 92
5, 29916, Note_off_c, 2, 55, 64
5, 29916, Note_off_c, 2, 58, 64
5, 30000, Note_on_c, 2, 58, 92
5, 30000, Note_on_c, 2, 55, 92
5, 30156, Note_off_c, 2, 55, 64
5, 30156, Note_off_c, 2, 58, 64
5, 30240, Note_on_c, 2, 58, 92
5, 30240, Note_on_c, 2, 55, 92
5, 30396, Note_off_c, 2, 55, 64
5, 30396, Note_off_c, 2, 58, 64
5, 30480, Note_on_c, 2, 56, 92
5, 30480, Note_on_c, 2, 60, 92
5, 30636, Note_off_c, 2, 60, 64
5, 30636, Note_off_c, 2, 56, 64
5, 30720, Note_on_c, 2, 58, 92
5, 30720, Note_on_c, 2, 55, 92
5, 30876, Note_off_c, 2, 55, 64
5, 30876, Note_off_c, 2, 58, 64
5, 30960, Note_on_c, 2, 60, 92
5, 30960, Note_on_c, 2, 56, 92
5, 31116, Note_off_c, 2, 56, 64
5, 31116, Note_off_c, 2, 60, 64
5, 31200, Note_on_c, 2, 56, 92
5, 31200, Note_on_c, 2, 60, 92
5, 31356, Note_off_c, 2, 60, 64
5, 31356, Note_off_c, 2, 56, 64
5, 31440, Note_on_c, 2, 60, 92
5, 31440, Note_on_c, 2, 56, 92
5, 31596, Note_off_c, 2, 56, 64
5, 31596, Note_off_c, 2, 60, 64
5, 31680, Note_on_c, 2, 60, 92
5, 31680, Note_on_c, 2, 56, 92
5, 31836, Note_off_c, 2, 56, 64
5, 31836, Note_off_c, 2, 60, 64
5, 31920, Note_on_c, 2, 56, 92
5, 31920, Note_on_c, 2, 60, 92
5, 32076, Note_off_c, 2, 60, 64
5, 32076, Note_off_c, 2, 56, 64
5, 32160, Note_on_c, 2, 56, 92
5, 32160, Note_on_c, 2, 60, 92
5, 32316, Note_off_c, 2, 60, 64
5, 32316, Note_off_c, 2, 56, 64
5, 32400, Note_on_c, 2, 58, 92
5, 32400, Note_on_c, 2, 62, 92
5, 32556, Note_off_c, 2, 62, 64
5, 32556, Note_off_c, 2, 58, 64
5, 32640, Note_on_c, 2, 65, 92
5, 32640, Note_on_c, 2, 62, 92
5, 32796, Note_off_c, 2, 62, 64
5, 32796, Note_off_c, 2, 65, 64
5, 32880, Note_on_c, 2, 65, 92
5, 32880, Note_on_c, 2, 62, 92
5, 33036, Note_off_c, 2, 62, 64
5, 33036, Note_off_c, 2, 65, 64
5, 33120, Note_on_c, 2, 65, 92
5, 33120, Note_on_c, 2, 62, 92
5, 33276, Note_off_c, 2, 62, 64
5, 33276, Note_off_c, 2, 65, 64
5, 33360, Note_on_c, 2, 63, 92
5, 33360, Note_on_c, 2, 67, 92
5, 33516, Note_off_c, 2, 67, 64
5, 33516, Note_off_c, 2, 63, 64
5, 33600, Note_on_c, 2, 65, 92
5, 33600, Note_on_c, 2, 62, 92
5, 33756, Note_off_c, 2, 62, 64
5, 33756, Note_off_c, 2, 65, 64
5, 33840, Note_on_c, 2, 63, 92
5, 33840, Note_on_c, 2, 67, 92
5, 33996, Note_off_c, 2, 67, 64
5, 33996, Note_off_c, 2, 63, 64
5, 34080, Note_on_c, 2, 58, 92
5, 34080, Note_on_c, 2, 55, 92
5, 34236, Note_off_c, 2, 55, 64
5, 34236, Note_off_c, 2, 58, 64
5, 34320, Note_on_c, 2, 58, 92
5, 34320, Note_on_c, 2, 55, 92
5, 34476, Note_off_c, 2, 55, 64
5, 34476, Note_off_c, 2, 58, 64
5, 34560, Note_on_c, 2, 55, 92
5, 34560, Note_on_c, 2, 58, 92
5, 34716, Note_off_c, 2, 58, 64
5, 34716, Note_off_c, 2, 55, 64
5, 34800, Note_on_c, 2, 55, 92
5, 34800, Note_on_c, 2, 58, 92
5, 34956, Note_off_c, 2, 58, 64
5, 34956, Note_off_c, 2, 55, 64
5, 35040, Note_on_c, 2, 55, 92
5, 35040, Note_on_c, 2, 58, 92
5, 35196, Note_off_c, 2, 58, 64
5, 35196, Note_off_c, 2, 55, 64
5, 38160, Note_on_c, 2, 60, 58
5, 38880, Note_off_c, 2, 60, 64
5, 38880, Note_on_c, 2, 56, 58
5, 39456, Note_off_c, 2, 56, 64
5, 39600, Note_on_c, 2, 63, 105
5, 39840, Note_off_c, 2, 63, 64
5, 39840, Note_on_c, 2, 62, 105
5, 40080, Note_off_c, 2, 62, 64
5, 40080, Note_on_c, 2, 63, 105
5, 40272, Note_off_c, 2, 63, 64
5, 40320, Note_on_c, 2, 56, 105
5, 40464, Note_off_c, 2, 56, 64
5, 40560, Note_on_c, 2, 58, 105
5, 40704, Note_off_c, 2, 58, 64
5, 40800, Note_on_c, 2, 56, 105
5, 40944, Note_off_c, 2, 56, 64
5, 41040, Note_on_c, 2, 63, 105
5, 41280, Note_off_c, 2, 63, 64
5, 41280, Note_on_c, 2, 62, 105
5, 41520, Note_off_c, 2, 62, 64
5, 41520, Note_on_c, 2, 63, 105
5, 41712, Note_off_c, 2, 63, 64
5, 41760, Note_on_c, 2, 56, 105
5, 41904, Note_off_c, 2, 56, 64
5, 42000, Note_on_c, 2, 58, 105
5, 42144, Note_off_c, 2, 58, 64
5, 42240, Note_on_c, 2, 46, 105
5, 42384, Note_off_c, 2, 46, 64
5, 42480, Note_on_c, 2, 51, 105
5, 42624, Note_off_c, 2, 51, 64
5, 42720, Note_on_c, 2, 39, 105
5, 42864, Note_off_c, 2, 39, 64
5, 42960, Note_on_c, 2, 39, 105
5, 43104, Note_off_c, 2, 39, 64
5, 43200, Note_on_c, 2, 39, 105
5, 43392, Note_off_c, 2, 39, 64
5, 43920, Note_on_c, 2, 58, 92
5, 44832, Note_off_c, 2, 58, 64
5, 44880, Note_on_c, 2, 50, 92
5, 45120, Note_off_c, 2, 50, 64
5, 45120, Note_on_c, 2, 51, 92
5, 45312, Note_off_c, 2, 51, 64
5, 45360, Note_on_c, 2, 53, 92
5, 45600, Note_off_c, 2, 53, 64
5, 45600, Note_on_c, 2, 58, 92
5, 46272, Note_off_c, 2, 58, 64
5, 46320, Note_on_c, 2, 62, 92
5, 46560, Note_off_c, 2, 62, 64
5, 46560, Note_on_c, 2, 63, 92
5, 46800, Note_off_c, 2, 63, 64
5, 46800, Note_on_c, 2, 60, 92
5, 46800, Note_on_c, 2, 65, 92
5, 46992, Note_off_c, 2, 65, 64
5, 46992, Note_off_c, 2, 60, 64
5, 47520, Note_on_c, 2, 60, 92
5, 47520, Note_on_c, 2, 65, 92
5, 47712, Note_off_c, 2, 65, 64
5, 47712, Note_off_c, 2, 60, 64
5, 48240, Note_on_c, 2, 56, 92
5, 48240, Note_on_c, 2, 62, 92
5, 48432, Note_off_c, 2, 62, 64
5, 48432, Note_off_c, 2, 56, 64
5, 49680, Note_on_c, 2, 51, 92
5, 49680, Note_on_c, 2, 55, 92
5, 49836, Note_off_c, 2, 55, 64
5, 49836, Note_off_c, 2, 51, 64
5, 49920, Note_on_c, 2, 58, 92
5, 49920, Note_on_c, 2, 55, 92
5, 50076, Note_off_c, 2, 55, 64
5, 50076, Note_off_c, 2, 58, 64
5, 50160, Note_on_c, 2, 58, 92
5, 50160, Note_on_c, 2, 55, 92
5, 50316, Note_off_c, 2, 55, 64
5, 50316, Note_off_c, 2, 58, 64
5, 50400, Note_on_c, 2, 58, 92
5, 50400, Note_on_c, 2, 55, 92
5, 50556, Note_off_c, 2, 55, 64
5, 50556, Note_off_c, 2, 58, 64
5, 50640, Note_on_c, 2, 56, 92
5, 50640, Note_on_c, 2, 60, 92
5, 50796, Note_off_c, 2, 60, 64
5, 50796, Note_off_c, 2, 56, 64
5, 50880, Note_on_c, 2, 58, 92
5, 50880, Note_on_c, 2, 55, 92
5, 51036, Note_off_c, 2, 55, 64
5, 51036, Note_off_c, 2, 58, 64
5, 51120, Note_on_c, 2, 60, 92
5, 51120, Note_on_c, 2, 56, 92
5, 51276, Note_off_c, 2, 56, 64
5, 51276, Note_off_c, 2, 60, 64
5, 51360, Note_on_c, 2, 56, 92
5, 51360, Note_on_c, 2, 60, 92
5, 51516, Note_off_c, 2, 60, 64
5, 51516, Note_off_c, 2, 56, 64
5, 51600, Note_on_c, 2, 60, 92
5, 51600, Note_on_c, 2, 56, 92
5, 51756, Note_off_c, 2, 56, 64
5, 51756, Note_off_c, 2, 60, 64
5, 51840, Note_on_c, 2, 60, 92
5, 51840, Note_on_c, 2, 56, 92
5, 51996, Note_off_c, 2, 56, 64
5, 51996, Note_off_c, 2, 60, 64
5, 52080, Note_on_c, 2, 56, 92
5, 52080, Note_on_c, 2, 60, 92
5, 52236, Note_off_c, 2, 60, 64
5, 52236, Note_off_c, 2, 56, 64
5, 52320, Note_on_c, 2, 56, 92
5, 52320, Note_on_c, 2, 60, 92
5, 52476, Note_off_c, 2, 60, 64
5, 52476, Note_off_c, 2, 56, 64
5, 52560, Note_on_c, 2, 58, 92
5, 52560, Note_on_c, 2, 62, 92
5, 52716, Note_off_c, 2, 62, 64
5, 52716, Note_off_c, 2, 58, 64
5, 52800, Note_on_c, 2, 65, 92
5, 52800, Note_on_c, 2, 62, 92
5, 52956, Note_off_c, 2, 62, 64
5, 52956, Note_off_c, 2, 65, 64
5, 53040, Note_on_c, 2, 65, 92
5, 53040, Note_on_c, 2, 62, 92
5, 53196, Note_off_c, 2, 62, 64
5, 53196, Note_off_c, 2, 65, 64
5, 53280, Note_on_c, 2, 65, 92
5, 53280, Note_on_c, 2, 62, 92
5, 53436, Note_off_c, 2, 62, 64
5, 53436, Note_off_c, 2, 65, 64
5, 53520, Note_on_c, 2, 63, 92
5, 53520, Note_on_c, 2, 67, 92
5, 53676, Note_off_c, 2, 67, 64
5, 53676, Note_off_c, 2, 63, 64
5, 53760, Note_on_c, 2, 65, 92
5, 53760, Note_on_c, 2, 62, 92
5, 53916, Note_off_c, 2, 62, 64
5, 53916, Note_off_c, 2, 65, 64
5, 54000, Note_on_c, 2, 63, 92
5, 54000, Note_on_c, 2, 67, 92
5, 54156, Note_off_c, 2, 67, 64
5, 54156, Note_off_c, 2, 63, 64
5, 54240, Note_on_c, 2, 58, 92
5, 54240, Note_on_c, 2, 55, 92
5, 54396, Note_off_c, 2, 55, 64
5, 54396, Note_off_c, 2, 58, 64
5, 54480, Note_on_c, 2, 58, 92
5, 54480, Note_on_c, 2, 55, 92
5, 54636, Note_off_c, 2, 55, 64
5, 54636, Note_off_c, 2, 58, 64
5, 54720, Note_on_c, 2, 55, 92
5, 54720, Note_on_c, 2, 58, 92
5, 54876, Note_off_c, 2, 58, 64
5, 54876, Note_off_c, 2, 55, 64
5, 54960, Note_on_c, 2, 55, 92
5, 54960, Note_on_c, 2, 58, 92
5, 55116, Note_off_c, 2, 58, 64
5, 55116, Note_off_c, 2, 55, 64
5, 55200, Note_on_c, 2, 55, 92
5, 55200, Note_on_c, 2, 58, 92
5, 55356, Note_off_c, 2, 58, 64
5, 55356, Note_off_c, 2, 55, 64
5, 58320, Note_on_c, 2, 60, 58
5, 59040, Note_off_c, 2, 60, 64
5, 59040, Note_on_c, 2, 56, 58
5, 59616, Note_off_c, 2, 56, 64
5, 59760, Note_on_c, 2, 63, 105
5, 60000, Note_off_c, 2, 63, 64
5, 60000, Note_on_c, 2, 62, 105
5, 60240, Note_off_c, 2, 62, 64
5, 60240, Note_on_c, 2, 63, 105
5, 60432, Note_off_c, 2, 63, 64
5, 60480, Note_on_c, 2, 56, 105
5, 60624, Note_off_c, 2, 56, 64
5, 60720, Note_on_c, 2, 58, 105
5, 60864, Note_off_c, 2, 58, 64
5, 60960, Note_on_c, 2, 56, 105
5, 61104, Note_off_c, 2, 56, 64
5, 61200, Note_on_c, 2, 63, 105
5, 61440, Note_off_c, 2, 63, 64
5, 61440, Note_on_c, 2, 62, 105
5, 61680, Note_off_c, 2, 62, 64
5, 61680, Note_on_c, 2, 63, 105
5, 61872, Note_off_c, 2, 63, 64
5, 61920, Note_on_c, 2, 56, 105
5, 62064, Note_off_c, 2, 56, 64
5, 62160, Note_on_c, 2, 58, 105
5, 62304, Note_off_c, 2, 58, 64
5, 62400, Note_on_c, 2, 46, 105
5, 62544, Note_off_c, 2, 46, 64
5, 62640, Note_on_c, 2, 51, 105
5, 62784, Note_off_c, 2, 51, 64
5, 62880, Note_on_c, 2, 39, 105
5, 63024, Note_off_c, 2, 39, 64
5, 63120, Note_on_c, 2, 39, 105
5, 63264, Note_off_c, 2, 39, 64
5, 63360, Note_on_c, 2, 39, 105
5, 63552, Note_off_c, 2, 39, 64
5, 64080, Note_on_c, 2, 58, 58
5, 64080, Note_on_c, 2, 63, 58
5, 64272, Note_off_c, 2, 63, 64
5, 64272, Note_off_c, 2, 58, 64
5, 66480, Note_on_c, 2, 62, 58
5, 66480, Note_on_c, 2, 58, 58
5, 66672, Note_off_c, 2, 58, 64
5, 66672, Note_off_c, 2, 62, 64
5, 66720, Note_on_c, 2, 62, 58
5, 66720, Note_on_c, 2, 58, 58
5, 66912, Note_off_c, 2, 58, 64
5, 66912, Note_off_c, 2, 62, 64
5, 66960, Note_on_c, 2, 62, 58
5, 66960, Note_on_c, 2, 58, 58
5, 67152, Note_off_c, 2, 58, 64
5, 67152, Note_off_c, 2, 62, 64
5, 69120, Note_on_c, 2, 58, 58
5, 69120, Note_on_c, 2, 55, 58
5, 69600, Note_off_c, 2, 55, 64
5, 69600, Note_off_c, 2, 58, 64
5, 69600, Note_on_c, 2, 56, 58
5, 69600, Note_on_c, 2, 62, 58
5, 69792, Note_off_c, 2, 62, 64
5, 69792, Note_off_c, 2, 56, 64
5, 69840, Note_on_c, 2, 58, 58
5, 69840, Note_on_c, 2, 63, 58
5, 70032, Note_off_c, 2, 63, 64
5, 70032, Note_off_c, 2, 58, 64
5, 72240, Note_on_c, 2, 62, 58
5, 72240, Note_on_c, 2, 58, 58
5, 72432, Note_off_c, 2, 58, 64
5, 72432, Note_off_c, 2, 62, 64
5, 72480, Note_on_c, 2, 62, 58
5, 72480, Note_on_c, 2, 58, 58
5, 72672, Note_off_c, 2, 58, 64
5, 72672, Note_off_c, 2, 62, 64
5, 72720, Note_on_c, 2, 62, 58
5, 72720, Note_on_c, 2, 58, 58
5, 72912, Note_off_c, 2, 58, 64
5, 72912, Note_off_c, 2, 62, 64
5, 74880, Note_on_c, 2, 58, 58
5, 74880, Note_on_c, 2, 55, 58
5, 75360, Note_off_c, 2, 55, 64
5, 75360, Note_off_c, 2, 58, 64
5, 75360, Note_on_c, 2, 56, 58
5, 75360, Note_on_c, 2, 62, 58
5, 75552, Note_off_c, 2, 62, 64
5, 75552, Note_off_c, 2, 56, 64
5, 75600, Note_on_c, 2, 58, 58
5, 75600, Note_on_c, 2, 63, 58
5, 75792, Note_off_c, 2, 63, 64
5, 75792, Note_off_c, 2, 58, 64
5, 81360, Note_on_c, 2, 58, 58
5, 81360, Note_on_c, 2, 63, 58
5, 81552, Note_off_c, 2, 63, 64
5, 81552, Note_off_c, 2, 58, 64
5, 83760, Note_on_c, 2, 58, 58
5, 83760, Note_on_c, 2, 62, 58
5, 83952, Note_off_c, 2, 62, 64
5, 83952, Note_off_c, 2, 58, 64
5, 84000, Note_on_c, 2, 62, 58
5, 84000, Note_on_c, 2, 58, 58
5, 84192, Note_off_c, 2, 58, 64
5, 84192, Note_off_c, 2, 62, 64
5, 84240, Note_on_c, 2, 62, 58
5, 84240, Note_on_c, 2, 58, 58
5, 84432, Note_off_c, 2, 58, 64
5, 84432, Note_off_c, 2, 62, 64
5, 86400, Note_on_c, 2, 58, 58
5, 86400, Note_on_c, 2, 55, 58
5, 86880, Note_off_c, 2, 55, 64
5, 86880, Note_off_c, 2, 58, 64
5, 86880, Note_on_c, 2, 62, 58
5, 86880, Note_on_c, 2, 56, 58
5, 87072, Note_off_c, 2, 56, 64
5, 87072, Note_off_c, 2, 62, 64
5, 87120, Note_on_c, 2, 58, 58
5, 87120, Note_on_c, 2, 63, 58
5, 87312, Note_off_c, 2, 63, 64
5, 87312, Note_off_c, 2, 58, 64
5, 92880, Note_on_c, 2, 58, 58
5, 92880, Note_on_c, 2, 63, 58
5, 93072, Note_off_c, 2, 63, 64
5, 93072, Note_off_c, 2, 58, 64
5, 95280, Note_on_c, 2, 58, 58
5, 95280, Note_on_c, 2, 62, 58
5, 95472, Note_off_c, 2, 62, 64
5, 95472, Note_off_c, 2, 58, 64
5, 95520, Note_on_c, 2, 62, 58
5, 95520, Note_on_c, 2, 58, 58
5, 95712, Note_off_c, 2, 58, 64
5, 95712, Note_off_c, 2, 62, 64
5, 95760, Note_on_c, 2, 62, 58
5, 95760, Note_on_c, 2, 58, 58
5, 95952, Note_off_c, 2, 58, 64
5, 95952, Note_off_c, 2, 62, 64
5, 97920, Note_on_c, 2, 58, 58
5, 97920, Note_on_c, 2, 55, 58
5, 98400, Note_off_c, 2, 55, 64
5, 98400, Note_off_c, 2, 58, 64
5, 98400, Note_on_c, 2, 62, 58
5, 98400, Note_on_c, 2, 56, 58
5, 98592, Note_off_c, 2, 56, 64
5, 98592, Note_off_c, 2, 62, 64
5, 98640, Note_on_c, 2, 63, 92
5, 98640, Note_on_c, 2, 55, 92
5, 98796, Note_off_c, 2, 55, 64
5, 98796, Note_off_c, 2, 63, 64
5, 98880, Note_on_c, 2, 58, 92
5, 98880, Note_on_c, 2, 55, 92
5, 99036, Note_off_c, 2, 55, 64
5, 99036, Note_off_c, 2, 58, 64
5, 99120, Note_on_c, 2, 55, 92
5, 99120, Note_on_c, 2, 58, 92
5, 99276, Note_off_c, 2, 58, 64
5, 99276, Note_off_c, 2, 55, 64
5, 99360, Note_on_c, 2, 55, 92
5, 99360, Note_on_c, 2, 58, 92
5, 99516, Note_off_c, 2, 58, 64
5, 99516, Note_off_c, 2, 55, 64
5, 99600, Note_on_c, 2, 56, 92
5, 99600, Note_on_c, 2, 60, 92
5, 99756, Note_off_c, 2, 60, 64
5, 99756, Note_off_c, 2, 56, 64
5, 99840, Note_on_c, 2, 55, 92
5, 99840, Note_on_c, 2, 58, 92
5, 99996, Note_off_c, 2, 58, 64
5, 99996, Note_off_c, 2, 55, 64
5, 100080, Note_on_c, 2, 56, 92
5, 100080, Note_on_c, 2, 60, 92
5, 100236, Note_off_c, 2, 60, 64
5, 100236, Note_off_c, 2, 56, 64
5, 100320, Note_on_c, 2, 56, 92
5, 100320, Note_on_c, 2, 60, 92
5, 100476, Note_off_c, 2, 60, 64
5, 100476, Note_off_c, 2, 56, 64
5, 100560, Note_on_c, 2, 56, 92
5, 100560, Note_on_c, 2, 60, 92
5, 100716, Note_off_c, 2, 60, 64
5, 100716, Note_off_c, 2, 56, 64
5, 100800, Note_on_c, 2, 60, 92
5, 100800, Note_on_c, 2, 56, 92
5, 100956, Note_off_c, 2, 56, 64
5, 100956, Note_off_c, 2, 60, 64
5, 101040, Note_on_c, 2, 60, 92
5, 101040, Note_on_c, 2, 56, 92
5, 101196, Note_off_c, 2, 56, 64
5, 101196, Note_off_c, 2, 60, 64
5, 101280, Note_on_c, 2, 56, 92
5, 101280, Note_on_c, 2, 60, 92
5, 101436, Note_off_c, 2, 60, 64
5, 101436, Note_off_c, 2, 56, 64
5, 101520, Note_on_c, 2, 62, 92
5, 101520, Note_on_c, 2, 58, 92
5, 101676, Note_off_c, 2, 58, 64
5, 101676, Note_off_c, 2, 62, 64
5, 101760, Note_on_c, 2, 65, 92
5, 101760, Note_on_c, 2, 62, 92
5, 101916, Note_off_c, 2, 62, 64
5, 101916, Note_off_c, 2, 65, 64
5, 102000, Note_on_c, 2, 62, 92
5, 102000, Note_on_c, 2, 65, 92
5, 102156, Note_off_c, 2, 65, 64
5, 102156, Note_off_c, 2, 62, 64
5, 102240, Note_on_c, 2, 62, 92
5, 102240, Note_on_c, 2, 65, 92
5, 102396, Note_off_c, 2, 65, 64
5, 102396, Note_off_c, 2, 62, 64
5, 102480, Note_on_c, 2, 67, 92
5, 102480, Note_on_c, 2, 63, 92
5, 102636, Note_off_c, 2, 63, 64
5, 102636, Note_off_c, 2, 67, 64
5, 102720, Note_on_c, 2, 62, 92
5, 102720, Note_on_c, 2, 65, 92
5, 102876, Note_off_c, 2, 65, 64
5, 102876, Note_off_c, 2, 62, 64
5, 102960, Note_on_c, 2, 67, 92
5, 102960, Note_on_c, 2, 63, 92
5, 103116, Note_off_c, 2, 63, 64
5, 103116, Note_off_c, 2, 67, 64
5, 103200, Note_on_c, 2, 55, 92
5, 103200, Note_on_c, 2, 58, 92
5, 103356, Note_off_c, 2, 58, 64
5, 103356, Note_off_c, 2, 55, 64
5, 103440, Note_on_c, 2, 58, 92
5, 103440, Note_on_c, 2, 55, 92
5, 103596, Note_off_c, 2, 55, 64
5, 103596, Note_off_c, 2, 58, 64
5, 103680, Note_on_c, 2, 55, 92
5, 103680, Note_on_c, 2, 58, 92
5, 103836, Note_off_c, 2, 58, 64
5, 103836, Note_off_c, 2, 55, 64
5, 103920, Note_on_c, 2, 55, 92
5, 103920, Note_on_c, 2, 58, 92
5, 104076, Note_off_c, 2, 58, 64
5, 104076, Note_off_c, 2, 55, 64
5, 104160, Note_on_c, 2, 58, 92
5, 104160, Note_on_c, 2, 55, 92
5, 104316, Note_off_c, 2, 55, 64
5, 104316, Note_off_c, 2, 58, 64
5, 108000, Note_on_c, 2, 62, 58
5, 108000, Note_on_c, 2, 65, 58
5, 108480, Note_off_c, 2, 65, 64
5, 108480, Note_off_c, 2, 62, 64
5, 108480, Note_on_c, 2, 60, 58
5, 108480, Note_on_c, 2, 63, 58
5, 108672, Note_off_c, 2, 63, 64
5, 108672, Note_off_c, 2, 60, 64
5, 108720, Note_on_c, 2, 58, 58
5, 108720, Note_on_c, 2, 62, 58
5, 108852, Note_off_c, 2, 62, 64
5, 108852, Note_off_c, 2, 58, 64
5, 108960, Note_on_c, 2, 58, 58
5, 108960, Note_on_c, 2, 62, 58
5, 109200, Note_off_c, 2, 62, 64
5, 109200, Note_off_c, 2, 58, 64
5, 109200, Note_on_c, 2, 62, 58
5, 109200, Note_on_c, 2, 65, 58
5, 109392, Note_off_c, 2, 65, 64
5, 109392, Note_off_c, 2, 62, 64
5, 109440, Note_on_c, 2, 58, 58
5, 109440, Note_on_c, 2, 62, 58
5, 109572, Note_off_c, 2, 62, 64
5, 109572, Note_off_c, 2, 58, 64
5, 110160, Note_on_c, 2, 58, 92
5, 111072, Note_off_c, 2, 58, 64
5, 111120, Note_on_c, 2, 50, 92
5, 111360, Note_off_c, 2, 50, 64
5, 111360, Note_on_c, 2, 51, 92
5, 111552, Note_off_c, 2, 51, 64
5, 111600, Note_on_c, 2, 53, 92
5, 111840, Note_off_c, 2, 53, 64
5, 111840, Note_on_c, 2, 58, 92
5, 112512, Note_off_c, 2, 58, 64
5, 112560, Note_on_c, 2, 62, 92
5, 112800, Note_off_c, 2, 62, 64
5, 112800, Note_on_c, 2, 63, 92
5, 113040, Note_off_c, 2, 63, 64
5, 113040, Note_on_c, 2, 60, 92
5, 113040, Note_on_c, 2, 65, 92
5, 113232, Note_off_c, 2, 65, 64
5, 113232, Note_off_c, 2, 60, 64
5, 113760, Note_on_c, 2, 60, 92
5, 113760, Note_on_c, 2, 65, 92
5, 113952, Note_off_c, 2, 65, 64
5, 113952, Note_off_c, 2, 60, 64
5, 114480, Note_on_c, 2, 62, 92
5, 114480, Note_on_c, 2, 56, 92
5, 114672, Note_off_c, 2, 56, 64
5, 114672, Note_off_c, 2, 62, 64
5, 115920, Note_on_c, 2, 51, 92
5, 115920, Note_on_c, 2, 55, 92
5, 116076, Note_off_c, 2, 55, 64
5, 116076, Note_off_c, 2, 51, 64
5, 116160, Note_on_c, 2, 58, 92
5, 116160, Note_on_c, 2, 55, 92
5, 116316, Note_off_c, 2, 55, 64
5, 116316, Note_off_c, 2, 58, 64
5, 116400, Note_on_c, 2, 58, 92
5, 116400, Note_on_c, 2, 55, 92
5, 116556, Note_off_c, 2, 55, 64
5, 116556, Note_off_c, 2, 58, 64
5, 116640, Note_on_c, 2, 58, 92
5, 116640, Note_on_c, 2, 55, 92
5, 116796, Note_off_c, 2, 55, 64
5, 116796, Note_off_c, 2, 58, 64
5, 116880, Note_on_c, 2, 56, 92
5, 116880, Note_on_c, 2, 60, 92
5, 117036, Note_off_c, 2, 60, 64
5, 117036, Note_off_c, 2, 56, 64
5, 117120, Note_on_c, 2, 55, 92
5, 117120, Note_on_c, 2, 58, 92
5, 117276, Note_off_c, 2, 58, 64
5, 117276, Note_off_c, 2, 55, 64
5, 117360, Note_on_c, 2, 60, 92
5, 117360, Note_on_c, 2, 56, 92
5, 117516, Note_off_c, 2, 56, 64
5, 117516, Note_off_c, 2, 60, 64
5, 117600, Note_on_c, 2, 56, 92
5, 117600, Note_on_c, 2, 60, 92
5, 117756, Note_off_c, 2, 60, 64
5, 117756, Note_off_c, 2, 56, 64
5, 117840, Note_on_c, 2, 56, 92
5, 117840, Note_on_c, 2, 60, 92
5, 117996, Note_off_c, 2, 60, 64
5, 117996, Note_off_c, 2, 56, 64
5, 118080, Note_on_c, 2, 60, 92
5, 118080, Note_on_c, 2, 56, 92
5, 118236, Note_off_c, 2, 56, 64
5, 118236, Note_off_c, 2, 60, 64
5, 118320, Note_on_c, 2, 56, 92
5, 118320, Note_on_c, 2, 60, 92
5, 118476, Note_off_c, 2, 60, 64
5, 118476, Note_off_c, 2, 56, 64
5, 118560, Note_on_c, 2, 56, 92
5, 118560, Note_on_c, 2, 60, 92
5, 118716, Note_off_c, 2, 60, 64
5, 118716, Note_off_c, 2, 56, 64
5, 118800, Note_on_c, 2, 58, 92
5, 118800, Note_on_c, 2, 62, 92
5, 118956, Note_off_c, 2, 62, 64
5, 118956, Note_off_c, 2, 58, 64
5, 119040, Note_on_c, 2, 65, 92
5, 119040, Note_on_c, 2, 62, 92
5, 119196, Note_off_c, 2, 62, 64
5, 119196, Note_off_c, 2, 65, 64
5, 119280, Note_on_c, 2, 65, 92
5, 119280, Note_on_c, 2, 62, 92
5, 119436, Note_off_c, 2, 62, 64
5, 119436, Note_off_c, 2, 65, 64
5, 119520, Note_on_c, 2, 65, 92
5, 119520, Note_on_c, 2, 62, 92
5, 119676, Note_off_c, 2, 62, 64
5, 119676, Note_off_c, 2, 65, 64
5, 119760, Note_on_c, 2, 63, 92
5, 119760, Note_on_c, 2, 67, 92
5, 119916, Note_off_c, 2, 67, 64
5, 119916, Note_off_c, 2, 63, 64
5, 120000, Note_on_c, 2, 62, 92
5, 120000, Note_on_c, 2, 65, 92
5, 120156, Note_off_c, 2, 65, 64
5, 120156, Note_off_c, 2, 62, 64
5, 120240, Note_on_c, 2, 67, 92
5, 120240, Note_on_c, 2, 63, 92
5, 120396, Note_off_c, 2, 63, 64
5, 120396, Note_off_c, 2, 67, 64
5, 120480, Note_on_c, 2, 58, 92
5, 120480, Note_on_c, 2, 55, 92
5, 120636, Note_off_c, 2, 55, 64
5, 120636, Note_off_c, 2, 58, 64
5, 120720, Note_on_c, 2, 58, 92
5, 120720, Note_on_c, 2, 55, 92
5, 120876, Note_off_c, 2, 55, 64
5, 120876, Note_off_c, 2, 58, 64
5, 120960, Note_on_c, 2, 55, 92
5, 120960, Note_on_c, 2, 58, 92
5, 121116, Note_off_c, 2, 58, 64
5, 121116, Note_off_c, 2, 55, 64
5, 121200, Note_on_c, 2, 55, 92
5, 121200, Note_on_c, 2, 58, 92
5, 121356, Note_off_c, 2, 58, 64
5, 121356, Note_off_c, 2, 55, 64
5, 121440, Note_on_c, 2, 55, 92
5, 121440, Note_on_c, 2, 58, 92
5, 121596, Note_off_c, 2, 58, 64
5, 121596, Note_off_c, 2, 55, 64
5, 124560, Note_on_c, 2, 60, 58
5, 125280, Note_off_c, 2, 60, 64
5, 125280, Note_on_c, 2, 56, 58
5, 125856, Note_off_c, 2, 56, 64
5, 126000, Note_on_c, 2, 63, 58
5, 126240, Note_off_c, 2, 63, 64
5, 126240, Note_on_c, 2, 62, 105
5, 126480, Note_off_c, 2, 62, 64
5, 126480, Note_on_c, 2, 63, 105
5, 126672, Note_off_c, 2, 63, 64
5, 126720, Note_on_c, 2, 56, 105
5, 126864, Note_off_c, 2, 56, 64
5, 126960, Note_on_c, 2, 58, 105
5, 127104, Note_off_c, 2, 58, 64
5, 127200, Note_on_c, 2, 56, 105
5, 127344, Note_off_c, 2, 56, 64
5, 127440, Note_on_c, 2, 63, 105
5, 127680, Note_off_c, 2, 63, 64
5, 127680, Note_on_c, 2, 62, 105
5, 127920, Note_off_c, 2, 62, 64
5, 127920, Note_on_c, 2, 63, 105
5, 128112, Note_off_c, 2, 63, 64
5, 128160, Note_on_c, 2, 56, 105
5, 128304, Note_off_c, 2, 56, 64
5, 128400, Note_on_c, 2, 58, 105
5, 128544, Note_off_c, 2, 58, 64
5, 128640, Note_on_c, 2, 46, 105
5, 128784, Note_off_c, 2, 46, 64
5, 128880, Note_on_c, 2, 51, 105
5, 129024, Note_off_c, 2, 51, 64
5, 129120, Note_on_c, 2, 39, 105
5, 129264, Note_off_c, 2, 39, 64
5, 129360, Note_on_c, 2, 39, 105
5, 129504, Note_off_c, 2, 39, 64
5, 129600, Note_on_c, 2, 39, 105
5, 129792, Note_off_c, 2, 39, 64
5, 129792, End_track
6, 0, Start_track
6, 0, Program_c, 3, 60
6, 0, Control_c, 3, 7, 117
6, 0, Control_c, 3, 91, 80
6, 0, Control_c, 3, 10, 36
6, 720, Note_on_c, 3, 63, 92
6, 720, Note_on_c, 3, 51, 92
6, 876, Note_off_c, 3, 51, 64
6, 876, Note_off_c, 3, 63, 64
6, 960, Note_on_c, 3, 51, 92
6, 960, Note_on_c, 3, 63, 92
6, 1116, Note_off_c, 3, 63, 64
6, 1116, Note_off_c, 3, 51, 64
6, 1200, Note_on_c, 3, 51, 92
6, 1200, Note_on_c, 3, 63, 92
6, 1356, Note_off_c, 3, 63, 64
6, 1356, Note_off_c, 3, 51, 64
6, 1440, Note_on_c, 3, 63, 92
6, 1440, Note_on_c, 3, 51, 92
6, 1596, Note_off_c, 3, 51, 64
6, 1596, Note_off_c, 3, 63, 64
6, 1680, Note_on_c, 3, 51, 92
6, 1680, Note_on_c, 3, 63, 92
6, 1836, Note_off_c, 3, 63, 64
6, 1836, Note_off_c, 3, 51, 64
6, 1920, Note_on_c, 3, 51, 92
6, 1920, Note_on_c, 3, 63, 92
6, 2076, Note_off_c, 3, 63, 64
6, 2076, Note_off_c, 3, 51, 64
6, 2160, Note_on_c, 3, 63, 92
6, 2160, Note_on_c, 3, 51, 92
6, 2316, Note_off_c, 3, 51, 64
6, 2316, Note_off_c, 3, 63, 64
6, 2400, Note_on_c, 3, 63, 92
6, 2400, Note_on_c, 3, 51, 92
6, 2556, Note_off_c, 3, 51, 64
6, 2556, Note_off_c, 3, 63, 64
6, 2640, Note_on_c, 3, 51, 92
6, 2640, Note_on_c, 3, 63, 92
6, 2796, Note_off_c, 3, 63, 64
6, 2796, Note_off_c, 3, 51, 64
6, 2880, Note_on_c, 3, 63, 92
6, 2880, Note_on_c, 3, 51, 92
6, 3036, Note_off_c, 3, 51, 64
6, 3036, Note_off_c, 3, 63, 64
6, 3120, Note_on_c, 3, 51, 92
6, 3120, Note_on_c, 3, 63, 92
6, 3276, Note_off_c, 3, 63, 64
6, 3276, Note_off_c, 3, 51, 64
6, 3360, Note_on_c, 3, 51, 92
6, 3360, Note_on_c, 3, 63, 92
6, 3516, Note_off_c, 3, 63, 64
6, 3516, Note_off_c, 3, 51, 64
6, 3600, Note_on_c, 3, 58, 92
6, 3600, Note_on_c, 3, 46, 92
6, 3756, Note_off_c, 3, 46, 64
6, 3756, Note_off_c, 3, 58, 64
6, 3840, Note_on_c, 3, 46, 92
6, 3840, Note_on_c, 3, 58, 92
6, 3996, Note_off_c, 3, 58, 64
6, 3996, Note_off_c, 3, 46, 64
6, 4080, Note_on_c, 3, 46, 92
6, 4080, Note_on_c, 3, 58, 92
6, 4236, Note_off_c, 3, 58, 64
6, 4236, Note_off_c, 3, 46, 64
6, 4320, Note_on_c, 3, 58, 92
6, 4320, Note_on_c, 3, 46, 92
6, 4476, Note_off_c, 3, 46, 64
6, 4476, Note_off_c, 3, 58, 64
6, 4560, Note_on_c, 3, 58, 92
6, 4560, Note_on_c, 3, 46, 92
6, 4716, Note_off_c, 3, 46, 64
6, 4716, Note_off_c, 3, 58, 64
6, 4800, Note_on_c, 3, 46, 92
6, 4800, Note_on_c, 3, 58, 92
6, 4956, Note_off_c, 3, 58, 64
6, 4956, Note_off_c, 3, 46, 64
6, 5040, Note_on_c, 3, 58, 92
6, 5040, Note_on_c, 3, 46, 92
6, 5196, Note_off_c, 3, 46, 64
6, 5196, Note_off_c, 3, 58, 64
6, 5280, Note_on_c, 3, 51, 92
6, 5280, Note_on_c, 3, 55, 92
6, 5436, Note_off_c, 3, 55, 64
6, 5436, Note_off_c, 3, 51, 64
6, 5520, Note_on_c, 3, 51, 92
6, 5520, Note_on_c, 3, 55, 92
6, 5676, Note_off_c, 3, 55, 64
6, 5676, Note_off_c, 3, 51, 64
6, 5760, Note_on_c, 3, 51, 92
6, 5760, Note_on_c, 3, 55, 92
6, 5916, Note_off_c, 3, 55, 64
6, 5916, Note_off_c, 3, 51, 64
6, 6000, Note_on_c, 3, 51, 92
6, 6000, Note_on_c, 3, 55, 92
6, 6156, Note_off_c, 3, 55, 64
6, 6156, Note_off_c, 3, 51, 64
6, 6240, Note_on_c, 3, 51, 92
6, 6240, Note_on_c, 3, 55, 92
6, 6396, Note_off_c, 3, 55, 64
6, 6396, Note_off_c, 3, 51, 64
6, 12240, Note_on_c, 3, 63, 92
6, 12240, Note_on_c, 3, 51, 92
6, 12396, Note_off_c, 3, 51, 64
6, 12396, Note_off_c, 3, 63, 64
6, 12480, Note_on_c, 3, 51, 92
6, 12480, Note_on_c, 3, 63, 92
6, 12636, Note_off_c, 3, 63, 64
6, 12636, Note_off_c, 3, 51, 64
6, 12720, Note_on_c, 3, 51, 92
6, 12720, Note_on_c, 3, 63, 92
6, 12876, Note_off_c, 3, 63, 64
6, 12876, Note_off_c, 3, 51, 64
6, 12960, Note_on_c, 3, 63, 92
6, 12960, Note_on_c, 3, 51, 92
6, 13116, Note_off_c, 3, 51, 64
6, 13116, Note_off_c, 3, 63, 64
6, 13200, Note_on_c, 3, 51, 92
6, 13200, Note_on_c, 3, 63, 92
6, 13356, Note_off_c, 3, 63, 64
6, 13356, Note_off_c, 3, 51, 64
6, 13440, Note_on_c, 3, 51, 92
6, 13440, Note_on_c, 3, 63, 92
6, 13596, Note_off_c, 3, 63, 64
6, 13596, Note_off_c, 3, 51, 64
6, 13680, Note_on_c, 3, 63, 92
6, 13680, Note_on_c, 3, 51, 92
6, 13836, Note_off_c, 3, 51, 64
6, 13836, Note_off_c, 3, 63, 64
6, 13920, Note_on_c, 3, 63, 92
6, 13920, Note_on_c, 3, 51, 92
6, 14076, Note_off_c, 3, 51, 64
6, 14076, Note_off_c, 3, 63, 64
6, 14160, Note_on_c, 3, 51, 92
6, 14160, Note_on_c, 3, 63, 92
6, 14316, Note_off_c, 3, 63, 64
6, 14316, Note_off_c, 3, 51, 64
6, 14400, Note_on_c, 3, 63, 92
6, 14400, Note_on_c, 3, 51, 92
6, 14556, Note_off_c, 3, 51, 64
6, 14556, Note_off_c, 3, 63, 64
6, 14640, Note_on_c, 3, 51, 92
6, 14640, Note_on_c, 3, 63, 92
6, 14796, Note_off_c, 3, 63, 64
6, 14796, Note_off_c, 3, 51, 64
6, 14880, Note_on_c, 3, 51, 92
6, 14880, Note_on_c, 3, 63, 92
6, 15036, Note_off_c, 3, 63, 64
6, 15036, Note_off_c, 3, 51, 64
6, 15120, Note_on_c, 3, 58, 92
6, 15120, Note_on_c, 3, 46, 92
6, 15276, Note_off_c, 3, 46, 64
6, 15276, Note_off_c, 3, 58, 64
6, 15360, Note_on_c, 3, 46, 92
6, 15360, Note_on_c, 3, 58, 92
6, 15516, Note_off_c, 3, 58, 64
6, 15516, Note_off_c, 3, 46, 64
6, 15600, Note_on_c, 3, 46, 92
6, 15600, Note_on_c, 3, 58, 92
6, 15756, Note_off_c, 3, 58, 64
6, 15756, Note_off_c, 3, 46, 64
6, 15840, Note_on_c, 3, 58, 92
6, 15840, Note_on_c, 3, 46, 92
6, 15996, Note_off_c, 3, 46, 64
6, 15996, Note_off_c, 3, 58, 64
6, 16080, Note_on_c, 3, 58, 92
6, 16080, Note_on_c, 3, 46, 92
6, 16236, Note_off_c, 3, 46, 64
6, 16236, Note_off_c, 3, 58, 64
6, 16320, Note_on_c, 3, 46, 92
6, 16320, Note_on_c, 3, 58, 92
6, 16476, Note_off_c, 3, 58, 64
6, 16476, Note_off_c, 3, 46, 64
6, 16560, Note_on_c, 3, 58, 92
6, 16560, Note_on_c, 3, 46, 92
6, 16716, Note_off_c, 3, 46, 64
6, 16716, Note_off_c, 3, 58, 64
6, 16800, Note_on_c, 3, 51, 92
6, 16800, Note_on_c, 3, 55, 92
6, 16956, Note_off_c, 3, 55, 64
6, 16956, Note_off_c, 3, 51, 64
6, 17040, Note_on_c, 3, 51, 92
6, 17040, Note_on_c, 3, 55, 92
6, 17196, Note_off_c, 3, 55, 64
6, 17196, Note_off_c, 3, 51, 64
6, 17280, Note_on_c, 3, 51, 92
6, 17280, Note_on_c, 3, 55, 92
6, 17436, Note_off_c, 3, 55, 64
6, 17436, Note_off_c, 3, 51, 64
6, 17520, Note_on_c, 3, 51, 92
6, 17520, Note_on_c, 3, 55, 92
6, 17676, Note_off_c, 3, 55, 64
6, 17676, Note_off_c, 3, 51, 64
6, 17760, Note_on_c, 3, 51, 92
6, 17760, Note_on_c, 3, 55, 92
6, 17916, Note_off_c, 3, 55, 64
6, 17916, Note_off_c, 3, 51, 64
6, 23760, Note_on_c, 3, 46, 92
6, 23760, Note_on_c, 3, 58, 92
6, 23952, Note_off_c, 3, 58, 64
6, 23952, Note_off_c, 3, 46, 64
6, 24000, Note_on_c, 3, 46, 92
6, 24000, Note_on_c, 3, 58, 92
6, 24192, Note_off_c, 3, 58, 64
6, 24192, Note_off_c, 3, 46, 64
6, 24240, Note_on_c, 3, 46, 92
6, 24240, Note_on_c, 3, 58, 92
6, 24432, Note_off_c, 3, 58, 64
6, 24432, Note_off_c, 3, 46, 64
6, 24480, Note_on_c, 3, 46, 92
6, 24480, Note_on_c, 3, 58, 92
6, 24672, Note_off_c, 3, 58, 64
6, 24672, Note_off_c, 3, 46, 64
6, 24720, Note_on_c, 3, 58, 92
6, 24720, Note_on_c, 3, 46, 92
6, 24912, Note_off_c, 3, 46, 64
6, 24912, Note_off_c, 3, 58, 64
6, 24960, Note_on_c, 3, 46, 92
6, 24960, Note_on_c, 3, 58, 92
6, 25152, Note_off_c, 3, 58, 64
6, 25152, Note_off_c, 3, 46, 64
6, 25200, Note_on_c, 3, 46, 92
6, 25200, Note_on_c, 3, 58, 92
6, 25392, Note_off_c, 3, 58, 64
6, 25392, Note_off_c, 3, 46, 64
6, 25440, Note_on_c, 3, 46, 92
6, 25440, Note_on_c, 3, 58, 92
6, 25632, Note_off_c, 3, 58, 64
6, 25632, Note_off_c, 3, 46, 64
6, 25680, Note_on_c, 3, 46, 92
6, 25680, Note_on_c, 3, 58, 92
6, 25872, Note_off_c, 3, 58, 64
6, 25872, Note_off_c, 3, 46, 64
6, 25920, Note_on_c, 3, 46, 92
6, 25920, Note_on_c, 3, 58, 92
6, 26112, Note_off_c, 3, 58, 64
6, 26112, Note_off_c, 3, 46, 64
6, 26160, Note_on_c, 3, 58, 92
6, 26160, Note_on_c, 3, 46, 92
6, 26352, Note_off_c, 3, 46, 64
6, 26352, Note_off_c, 3, 58, 64
6, 26400, Note_on_c, 3, 46, 92
6, 26400, Note_on_c, 3, 58, 92
6, 26592, Note_off_c, 3, 58, 64
6, 26592, Note_off_c, 3, 46, 64
6, 28080, Note_on_c, 3, 46, 92
6, 28080, Note_on_c, 3, 65, 92
6, 28272, Note_off_c, 3, 65, 64
6, 28272, Note_off_c, 3, 46, 64
6, 29520, Note_on_c, 3, 51, 92
6, 29520, Note_on_c, 3, 63, 92
6, 29676, Note_off_c, 3, 63, 64
6, 29676, Note_off_c, 3, 51, 64
6, 29760, Note_on_c, 3, 51, 92
6, 29760, Note_on_c, 3, 63, 92
6, 29916, Note_off_c, 3, 63, 64
6, 29916, Note_off_c, 3, 51, 64
6, 30000, Note_on_c, 3, 63, 92
6, 30000, Note_on_c, 3, 51, 92
6, 30156, Note_off_c, 3, 51, 64
6, 30156, Note_off_c, 3, 63, 64
6, 30240, Note_on_c, 3, 51, 92
6, 30240, Note_on_c, 3, 63, 92
6, 30396, Note_off_c, 3, 63, 64
6, 30396, Note_off_c, 3, 51, 64
6, 30480, Note_on_c, 3, 51, 92
6, 30480, Note_on_c, 3, 63, 92
6, 30636, Note_off_c, 3, 63, 64
6, 30636, Note_off_c, 3, 51, 64
6, 30720, Note_on_c, 3, 51, 92
6, 30720, Note_on_c, 3, 63, 92
6, 30876, Note_off_c, 3, 63, 64
6, 30876, Note_off_c, 3, 51, 64
6, 30960, Note_on_c, 3, 51, 92
6, 30960, Note_on_c, 3, 63, 92
6, 31116, Note_off_c, 3, 63, 64
6, 31116, Note_off_c, 3, 51, 64
6, 31200, Note_on_c, 3, 51, 92
6, 31200, Note_on_c, 3, 63, 92
6, 31356, Note_off_c, 3, 63, 64
6, 31356, Note_off_c, 3, 51, 64
6, 31440, Note_on_c, 3, 51, 92
6, 31440, Note_on_c, 3, 63, 92
6, 31596, Note_off_c, 3, 63, 64
6, 31596, Note_off_c, 3, 51, 64
6, 31680, Note_on_c, 3, 51, 92
6, 31680, Note_on_c, 3, 63, 92
6, 31836, Note_off_c, 3, 63, 64
6, 31836, Note_off_c, 3, 51, 64
6, 31920, Note_on_c, 3, 51, 92
6, 31920, Note_on_c, 3, 63, 92
6, 32076, Note_off_c, 3, 63, 64
6, 32076, Note_off_c, 3, 51, 64
6, 32160, Note_on_c, 3, 63, 92
6, 32160, Note_on_c, 3, 51, 92
6, 32316, Note_off_c, 3, 51, 64
6, 32316, Note_off_c, 3, 63, 64
6, 32400, Note_on_c, 3, 46, 92
6, 32400, Note_on_c, 3, 58, 92
6, 32556, Note_off_c, 3, 58, 64
6, 32556, Note_off_c, 3, 46, 64
6, 32640, Note_on_c, 3, 46, 92
6, 32640, Note_on_c, 3, 58, 92
6, 32796, Note_off_c, 3, 58, 64
6, 32796, Note_off_c, 3, 46, 64
6, 32880, Note_on_c, 3, 58, 92
6, 32880, Note_on_c, 3, 46, 92
6, 33036, Note_off_c, 3, 46, 64
6, 33036, Note_off_c, 3, 58, 64
6, 33120, Note_on_c, 3, 46, 92
6, 33120, Note_on_c, 3, 58, 92
6, 33276, Note_off_c, 3, 58, 64
6, 33276, Note_off_c, 3, 46, 64
6, 33360, Note_on_c, 3, 46, 92
6, 33360, Note_on_c, 3, 58, 92
6, 33516, Note_off_c, 3, 58, 64
6, 33516, Note_off_c, 3, 46, 64
6, 33600, Note_on_c, 3, 46, 92
6, 33600, Note_on_c, 3, 58, 92
6, 33756, Note_off_c, 3, 58, 64
6, 33756, Note_off_c, 3, 46, 64
6, 33840, Note_on_c, 3, 46, 92
6, 33840, Note_on_c, 3, 58, 92
6, 33996, Note_off_c, 3, 58, 64
6, 33996, Note_off_c, 3, 46, 64
6, 34080, Note_on_c, 3, 55, 92
6, 34080, Note_on_c, 3, 51, 92
6, 34236, Note_off_c, 3, 51, 64
6, 34236, Note_off_c, 3, 55, 64
6, 34320, Note_on_c, 3, 55, 92
6, 34320, Note_on_c, 3, 51, 92
6, 34476, Note_off_c, 3, 51, 64
6, 34476, Note_off_c, 3, 55, 64
6, 34560, Note_on_c, 3, 51, 92
6, 34560, Note_on_c, 3, 55, 92
6, 34716, Note_off_c, 3, 55, 64
6, 34716, Note_off_c, 3, 51, 64
6, 34800, Note_on_c, 3, 51, 92
6, 34800, Note_on_c, 3, 55, 92
6, 34956, Note_off_c, 3, 55, 64
6, 34956, Note_off_c, 3, 51, 64
6, 35040, Note_on_c, 3, 51, 92
6, 35040, Note_on_c, 3, 55, 92
6, 35196, Note_off_c, 3, 55, 64
6, 35196, Note_off_c, 3, 51, 64
6, 39600, Note_on_c, 3, 46, 105
6, 39600, Note_on_c, 3, 58, 105
6, 40176, Note_off_c, 3, 58, 64
6, 40176, Note_off_c, 3, 46, 64
6, 40560, Note_on_c, 3, 46, 105
6, 40560, Note_on_c, 3, 58, 105
6, 40704, Note_off_c, 3, 58, 64
6, 40704, Note_off_c, 3, 46, 64
6, 40800, Note_on_c, 3, 58, 105
6, 40800, Note_on_c, 3, 46, 105
6, 40944, Note_off_c, 3, 46, 64
6, 40944, Note_off_c, 3, 58, 64
6, 41040, Note_on_c, 3, 46, 105
6, 41040, Note_on_c, 3, 58, 105
6, 41616, Note_off_c, 3, 58, 64
6, 41616, Note_off_c, 3, 46, 64
6, 42000, Note_on_c, 3, 58, 105
6, 42000, Note_on_c, 3, 46, 105
6, 42144, Note_off_c, 3, 46, 64
6, 42144, Note_off_c, 3, 58, 64
6, 42240, Note_on_c, 3, 46, 105
6, 42240, Note_on_c, 3, 58, 105
6, 42384, Note_off_c, 3, 58, 64
6, 42384, Note_off_c, 3, 46, 64
6, 42480, Note_on_c, 3, 55, 125
6, 42480, Note_on_c, 3, 51, 105
6, 42600, Note_off_c, 3, 55, 64
6, 42672, Note_off_c, 3, 51, 64
6, 42720, Note_on_c, 3, 55, 105
6, 42720, Note_on_c, 3, 51, 105
6, 42912, Note_off_c, 3, 51, 64
6, 42960, Note_off_c, 3, 55, 64
6, 42960, Note_on_c, 3, 58, 105
6, 42960, Note_on_c, 3, 55, 105
6, 43152, Note_off_c, 3, 55, 64
6, 43152, Note_off_c, 3, 58, 64
6, 43200, Note_on_c, 3, 55, 105
6, 43200, Note_on_c, 3, 51, 105
6, 43392, Note_off_c, 3, 51, 64
6, 43392, Note_off_c, 3, 55, 64
6, 43920, Note_on_c, 3, 46, 92
6, 43920, Note_on_c, 3, 58, 92
6, 44112, Note_off_c, 3, 58, 64
6, 44112, Note_off_c, 3, 46, 64
6, 44160, Note_on_c, 3, 46, 92
6, 44160, Note_on_c, 3, 58, 92
6, 44352, Note_off_c, 3, 58, 64
6, 44352, Note_off_c, 3, 46, 64
6, 44400, Note_on_c, 3, 46, 92
6, 44400, Note_on_c, 3, 58, 92
6, 44592, Note_off_c, 3, 58, 64
6, 44592, Note_off_c, 3, 46, 64
6, 44640, Note_on_c, 3, 46, 92
6, 44640, Note_on_c, 3, 58, 92
6, 44832, Note_off_c, 3, 58, 64
6, 44832, Note_off_c, 3, 46, 64
6, 44880, Note_on_c, 3, 58, 92
6, 44880, Note_on_c, 3, 46, 92
6, 45072, Note_off_c, 3, 46, 64
6, 45072, Note_off_c, 3, 58, 64
6, 45120, Note_on_c, 3, 46, 92
6, 45120, Note_on_c, 3, 58, 92
6, 45312, Note_off_c, 3, 58, 64
6, 45312, Note_off_c, 3, 46, 64
6, 45360, Note_on_c, 3, 46, 92
6, 45360, Note_on_c, 3, 58, 92
6, 45552, Note_off_c, 3, 58, 64
6, 45552, Note_off_c, 3, 46, 64
6, 45600, Note_on_c, 3, 46, 92
6, 45600, Note_on_c, 3, 58, 92
6, 45792, Note_off_c, 3, 58, 64
6, 45792, Note_off_c, 3, 46, 64
6, 45840, Note_on_c, 3, 46, 92
6, 45840, Note_on_c, 3, 58, 92
6, 46032, Note_off_c, 3, 58, 64
6, 46032, Note_off_c, 3, 46, 64
6, 46080, Note_on_c, 3, 46, 92
6, 46080, Note_on_c, 3, 58, 92
6, 46272, Note_off_c, 3, 58, 64
6, 46272, Note_off_c, 3, 46, 64
6, 46320, Note_on_c, 3, 58, 92
6, 46320, Note_on_c, 3, 46, 92
6, 46512, Note_off_c, 3, 46, 64
6, 46512, Note_off_c, 3, 58, 64
6, 46560, Note_on_c, 3, 46, 92
6, 46560, Note_on_c, 3, 58, 92
6, 46752, Note_off_c, 3, 58, 64
6, 46752, Note_off_c, 3, 46, 64
6, 48240, Note_on_c, 3, 46, 92
6, 48240, Note_on_c, 3, 65, 92
6, 48432, Note_off_c, 3, 65, 64
6, 48432, Note_off_c, 3, 46, 64
6, 49680, Note_on_c, 3, 51, 92
6, 49680, Note_on_c, 3, 63, 92
6, 49836, Note_off_c, 3, 63, 64
6, 49836, Note_off_c, 3, 51, 64
6, 49920, Note_on_c, 3, 51, 92
6, 49920, Note_on_c, 3, 63, 92
6, 50076, Note_off_c, 3, 63, 64
6, 50076, Note_off_c, 3, 51, 64
6, 50160, Note_on_c, 3, 63, 92
6, 50160, Note_on_c, 3, 51, 92
6, 50316, Note_off_c, 3, 51, 64
6, 50316, Note_off_c, 3, 63, 64
6, 50400, Note_on_c, 3, 51, 92
6, 50400, Note_on_c, 3, 63, 92
6, 50556, Note_off_c, 3, 63, 64
6, 50556, Note_off_c, 3, 51, 64
6, 50640, Note_on_c, 3, 51, 92
6, 50640, Note_on_c, 3, 63, 92
6, 50796, Note_off_c, 3, 63, 64
6, 50796, Note_off_c, 3, 51, 64
6, 50880, Note_on_c, 3, 51, 92
6, 50880, Note_on_c, 3, 63, 92
6, 51036, Note_off_c, 3, 63, 64
6, 51036, Note_off_c, 3, 51, 64
6, 51120, Note_on_c, 3, 51, 92
6, 51120, Note_on_c, 3, 63, 92
6, 51276, Note_off_c, 3, 63, 64
6, 51276, Note_off_c, 3, 51, 64
6, 51360, Note_on_c, 3, 51, 92
6, 51360, Note_on_c, 3, 63, 92
6, 51516, Note_off_c, 3, 63, 64
6, 51516, Note_off_c, 3, 51, 64
6, 51600, Note_on_c, 3, 51, 92
6, 51600, Note_on_c, 3, 63, 92
6, 51756, Note_off_c, 3, 63, 64
6, 51756, Note_off_c, 3, 51, 64
6, 51840, Note_on_c, 3, 51, 92
6, 51840, Note_on_c, 3, 63, 92
6, 51996, Note_off_c, 3, 63, 64
6, 51996, Note_off_c, 3, 51, 64
6, 52080, Note_on_c, 3, 51, 92
6, 52080, Note_on_c, 3, 63, 92
6, 52236, Note_off_c, 3, 63, 64
6, 52236, Note_off_c, 3, 51, 64
6, 52320, Note_on_c, 3, 63, 92
6, 52320, Note_on_c, 3, 51, 92
6, 52476, Note_off_c, 3, 51, 64
6, 52476, Note_off_c, 3, 63, 64
6, 52560, Note_on_c, 3, 46, 92
6, 52560, Note_on_c, 3, 58, 92
6, 52716, Note_off_c, 3, 58, 64
6, 52716, Note_off_c, 3, 46, 64
6, 52800, Note_on_c, 3, 46, 92
6, 52800, Note_on_c, 3, 58, 92
6, 52956, Note_off_c, 3, 58, 64
6, 52956, Note_off_c, 3, 46, 64
6, 53040, Note_on_c, 3, 58, 92
6, 53040, Note_on_c, 3, 46, 92
6, 53196, Note_off_c, 3, 46, 64
6, 53196, Note_off_c, 3, 58, 64
6, 53280, Note_on_c, 3, 46, 92
6, 53280, Note_on_c, 3, 58, 92
6, 53436, Note_off_c, 3, 58, 64
6, 53436, Note_off_c, 3, 46, 64
6, 53520, Note_on_c, 3, 46, 92
6, 53520, Note_on_c, 3, 58, 92
6, 53676, Note_off_c, 3, 58, 64
6, 53676, Note_off_c, 3, 46, 64
6, 53760, Note_on_c, 3, 46, 92
6, 53760, Note_on_c, 3, 58, 92
6, 53916, Note_off_c, 3, 58, 64
6, 53916, Note_off_c, 3, 46, 64
6, 54000, Note_on_c, 3, 46, 92
6, 54000, Note_on_c, 3, 58, 92
6, 54156, Note_off_c, 3, 58, 64
6, 54156, Note_off_c, 3, 46, 64
6, 54240, Note_on_c, 3, 55, 92
6, 54240, Note_on_c, 3, 51, 92
6, 54396, Note_off_c, 3, 51, 64
6, 54396, Note_off_c, 3, 55, 64
6, 54480, Note_on_c, 3, 55, 92
6, 54480, Note_on_c, 3, 51, 92
6, 54636, Note_off_c, 3, 51, 64
6, 54636, Note_off_c, 3, 55, 64
6, 54720, Note_on_c, 3, 51, 92
6, 54720, Note_on_c, 3, 55, 92
6, 54876, Note_off_c, 3, 55, 64
6, 54876, Note_off_c, 3, 51, 64
6, 54960, Note_on_c, 3, 51, 92
6, 54960, Note_on_c, 3, 55, 92
6, 55116, Note_off_c, 3, 55, 64
6, 55116, Note_off_c, 3, 51, 64
6, 55200, Note_on_c, 3, 51, 92
6, 55200, Note_on_c, 3, 55, 92
6, 55356, Note_off_c, 3, 55, 64
6, 55356, Note_off_c, 3, 51, 64
6, 59760, Note_on_c, 3, 46, 105
6, 59760, Note_on_c, 3, 58, 105
6, 60336, Note_off_c, 3, 58, 64
6, 60336, Note_off_c, 3, 46, 64
6, 60720, Note_on_c, 3, 46, 105
6, 60720, Note_on_c, 3, 58, 105
6, 60864, Note_off_c, 3, 58, 64
6, 60864, Note_off_c, 3, 46, 64
6, 60960, Note_on_c, 3, 58, 105
6, 60960, Note_on_c, 3, 46, 105
6, 61104, Note_off_c, 3, 46, 64
6, 61104, Note_off_c, 3, 58, 64
6, 61200, Note_on_c, 3, 46, 105
6, 61200, Note_on_c, 3, 58, 105
6, 61776, Note_off_c, 3, 58, 64
6, 61776, Note_off_c, 3, 46, 64
6, 62160, Note_on_c, 3, 58, 105
6, 62160, Note_on_c, 3, 46, 105
6, 62304, Note_off_c, 3, 46, 64
6, 62304, Note_off_c, 3, 58, 64
6, 62400, Note_on_c, 3, 46, 105
6, 62400, Note_on_c, 3, 58, 105
6, 62544, Note_off_c, 3, 58, 64
6, 62544, Note_off_c, 3, 46, 64
6, 62640, Note_on_c, 3, 55, 125
6, 62640, Note_on_c, 3, 51, 105
6, 62760, Note_off_c, 3, 55, 64
6, 62832, Note_off_c, 3, 51, 64
6, 62880, Note_on_c, 3, 55, 105
6, 62880, Note_on_c, 3, 51, 105
6, 63072, Note_off_c, 3, 51, 64
6, 63120, Note_off_c, 3, 55, 64
6, 63120, Note_on_c, 3, 58, 105
6, 63120, Note_on_c, 3, 55, 105
6, 63312, Note_off_c, 3, 55, 64
6, 63312, Note_off_c, 3, 58, 64
6, 63360, Note_on_c, 3, 55, 105
6, 63360, Note_on_c, 3, 51, 105
6, 63552, Note_off_c, 3, 51, 64
6, 63552, Note_off_c, 3, 55, 64
6, 64080, Note_on_c, 3, 63, 58
6, 64080, Note_on_c, 3, 55, 58
6, 64272, Note_off_c, 3, 55, 64
6, 64272, Note_off_c, 3, 63, 64
6, 66480, Note_on_c, 3, 65, 58
6, 66480, Note_on_c, 3, 68, 58
6, 66672, Note_off_c, 3, 68, 64
6, 66672, Note_off_c, 3, 65, 64
6, 66720, Note_on_c, 3, 65, 58
6, 66720, Note_on_c, 3, 68, 58
6, 66912, Note_off_c, 3, 68, 64
6, 66912, Note_off_c, 3, 65, 64
6, 66960, Note_on_c, 3, 65, 58
6, 66960, Note_on_c, 3, 68, 58
6, 67152, Note_off_c, 3, 68, 64
6, 67152, Note_off_c, 3, 65, 64
6, 69120, Note_on_c, 3, 67, 58
6, 69120, Note_on_c, 3, 63, 58
6, 69600, Note_off_c, 3, 63, 64
6, 69600, Note_off_c, 3, 67, 64
6, 69600, Note_on_c, 3, 65, 58
6, 69600, Note_on_c, 3, 58, 58
6, 69792, Note_off_c, 3, 58, 64
6, 69792, Note_off_c, 3, 65, 64
6, 69840, Note_on_c, 3, 63, 58
6, 69840, Note_on_c, 3, 55, 58
6, 70032, Note_off_c, 3, 55, 64
6, 70032, Note_off_c, 3, 63, 64
6, 72240, Note_on_c, 3, 65, 58
6, 72240, Note_on_c, 3, 68, 58
6, 72432, Note_off_c, 3, 68, 64
6, 72432, Note_off_c, 3, 65, 64
6, 72480, Note_on_c, 3, 65, 58
6, 72480, Note_on_c, 3, 68, 58
6, 72672, Note_off_c, 3, 68, 64
6, 72672, Note_off_c, 3, 65, 64
6, 72720, Note_on_c, 3, 65, 58
6, 72720, Note_on_c, 3, 68, 58
6, 72912, Note_off_c, 3, 68, 64
6, 72912, Note_off_c, 3, 65, 64
6, 74880, Note_on_c, 3, 67, 58
6, 74880, Note_on_c, 3, 63, 58
6, 75360, Note_off_c, 3, 63, 64
6, 75360, Note_off_c, 3, 67, 64
6, 75360, Note_on_c, 3, 65, 58
6, 75360, Note_on_c, 3, 58, 58
6, 75552, Note_off_c, 3, 58, 64
6, 75552, Note_off_c, 3, 65, 64
6, 75600, Note_on_c, 3, 55, 58
6, 75600, Note_on_c, 3, 63, 58
6, 75792, Note_off_c, 3, 63, 64
6, 75792, Note_off_c, 3, 55, 64
6, 80160, Note_on_c, 3, 58, 70
6, 80160, Note_on_c, 3, 65, 70
6, 80400, Note_off_c, 3, 65, 64
6, 80400, Note_off_c, 3, 58, 64
6, 80400, Note_on_c, 3, 67, 70
6, 80400, Note_on_c, 3, 63, 70
6, 80640, Note_off_c, 3, 63, 64
6, 80640, Note_off_c, 3, 67, 64
6, 80640, Note_on_c, 3, 65, 70
6, 80640, Note_on_c, 3, 68, 70
6, 80880, Note_off_c, 3, 68, 64
6, 80880, Note_off_c, 3, 65, 64
6, 80880, Note_on_c, 3, 63, 70
6, 80880, Note_on_c, 3, 67, 70
6, 81120, Note_off_c, 3, 67, 64
6, 81120, Note_off_c, 3, 63, 64
6, 81120, Note_on_c, 3, 58, 70
6, 81120, Note_on_c, 3, 65, 70
6, 81360, Note_off_c, 3, 65, 64
6, 81360, Note_off_c, 3, 58, 64
6, 81360, Note_on_c, 3, 63, 58
6, 81360, Note_on_c, 3, 55, 58
6, 81552, Note_off_c, 3, 55, 64
6, 81552, Note_off_c, 3, 63, 64
6, 83760, Note_on_c, 3, 65, 58
6, 83760, Note_on_c, 3, 68, 58
6, 83952, Note_off_c, 3, 68, 64
6, 83952, Note_off_c, 3, 65, 64
6, 84000, Note_on_c, 3, 65, 58
6, 84000, Note_on_c, 3, 68, 58
6, 84192, Note_off_c, 3, 68, 64
6, 84192, Note_off_c, 3, 65, 64
6, 84240, Note_on_c, 3, 68, 58
6, 84240, Note_on_c, 3, 65, 58
6, 84432, Note_off_c, 3, 65, 64
6, 84432, Note_off_c, 3, 68, 64
6, 86400, Note_on_c, 3, 67, 58
6, 86400, Note_on_c, 3, 63, 58
6, 86880, Note_off_c, 3, 63, 64
6, 86880, Note_off_c, 3, 67, 64
6, 86880, Note_on_c, 3, 65, 58
6, 86880, Note_on_c, 3, 58, 58
6, 87072, Note_off_c, 3, 58, 64
6, 87072, Note_off_c, 3, 65, 64
6, 87120, Note_on_c, 3, 55, 58
6, 87120, Note_on_c, 3, 63, 58
6, 87312, Note_off_c, 3, 63, 64
6, 87312, Note_off_c, 3, 55, 64
6, 91680, Note_on_c, 3, 58, 70
6, 91680, Note_on_c, 3, 65, 70
6, 91920, Note_off_c, 3, 65, 64
6, 91920, Note_off_c, 3, 58, 64
6, 91920, Note_on_c, 3, 67, 70
6, 91920, Note_on_c, 3, 63, 70
6, 92160, Note_off_c, 3, 63, 64
6, 92160, Note_off_c, 3, 67, 64
6, 92160, Note_on_c, 3, 65, 70
6, 92160, Note_on_c, 3, 68, 70
6, 92400, Note_off_c, 3, 68, 64
6, 92400, Note_off_c, 3, 65, 64
6, 92400, Note_on_c, 3, 63, 70
6, 92400, Note_on_c, 3, 67, 70
6, 92640, Note_off_c, 3, 67, 64
6, 92640, Note_off_c, 3, 63, 64
6, 92640, Note_on_c, 3, 58, 70
6, 92640, Note_on_c, 3, 65, 70
6, 92880, Note_off_c, 3, 65, 64
6, 92880, Note_off_c, 3, 58, 64
6, 92880, Note_on_c, 3, 63, 58
6, 92880, Note_on_c, 3, 55, 58
6, 93072, Note_off_c, 3, 55, 64
6, 93072, Note_off_c, 3, 63, 64
6, 95280, Note_on_c, 3, 65, 58
6, 95280, Note_on_c, 3, 68, 58
6, 95472, Note_off_c, 3, 68, 64
6, 95472, Note_off_c, 3, 65, 64
6, 95520, Note_on_c, 3, 65, 58
6, 95520, Note_on_c, 3, 68, 58
6, 95712, Note_off_c, 3, 68, 64
6, 95712, Note_off_c, 3, 65, 64
6, 95760, Note_on_c, 3, 68, 58
6, 95760, Note_on_c, 3, 65, 58
6, 95952, Note_off_c, 3, 65, 64
6, 95952, Note_off_c, 3, 68, 64
6, 97920, Note_on_c, 3, 67, 58
6, 97920, Note_on_c, 3, 63, 58
6, 98400, Note_off_c, 3, 63, 64
6, 98400, Note_off_c, 3, 67, 64
6, 98400, Note_on_c, 3, 65, 58
6, 98400, Note_on_c, 3, 58, 58
6, 98592, Note_off_c, 3, 58, 64
6, 98592, Note_off_c, 3, 65, 64
6, 98640, Note_on_c, 3, 63, 92
6, 98640, Note_on_c, 3, 51, 92
6, 98796, Note_off_c, 3, 51, 64
6, 98796, Note_off_c, 3, 63, 64
6, 98880, Note_on_c, 3, 51, 92
6, 98880, Note_on_c, 3, 63, 92
6, 99036, Note_off_c, 3, 63, 64
6, 99036, Note_off_c, 3, 51, 64
6, 99120, Note_on_c, 3, 51, 92
6, 99120, Note_on_c, 3, 63, 92
6, 99276, Note_off_c, 3, 63, 64
6, 99276, Note_off_c, 3, 51, 64
6, 99360, Note_on_c, 3, 51, 92
6, 99360, Note_on_c, 3, 63, 92
6, 99516, Note_off_c, 3, 63, 64
6, 99516, Note_off_c, 3, 51, 64
6, 99600, Note_on_c, 3, 51, 92
6, 99600, Note_on_c, 3, 63, 92
6, 99756, Note_off_c, 3, 63, 64
6, 99756, Note_off_c, 3, 51, 64
6, 99840, Note_on_c, 3, 51, 92
6, 99840, Note_on_c, 3, 63, 92
6, 99996, Note_off_c, 3, 63, 64
6, 99996, Note_off_c, 3, 51, 64
6, 100080, Note_on_c, 3, 51, 92
6, 100080, Note_on_c, 3, 63, 92
6, 100236, Note_off_c, 3, 63, 64
6, 100236, Note_off_c, 3, 51, 64
6, 100320, Note_on_c, 3, 63, 92
6, 100320, Note_on_c, 3, 51, 92
6, 100476, Note_off_c, 3, 51, 64
6, 100476, Note_off_c, 3, 63, 64
6, 100560, Note_on_c, 3, 51, 92
6, 100560, Note_on_c, 3, 63, 92
6, 100716, Note_off_c, 3, 63, 64
6, 100716, Note_off_c, 3, 51, 64
6, 100800, Note_on_c, 3, 63, 92
6, 100800, Note_on_c, 3, 51, 92
6, 100956, Note_off_c, 3, 51, 64
6, 100956, Note_off_c, 3, 63, 64
6, 101040, Note_on_c, 3, 51, 92
6, 101040, Note_on_c, 3, 63, 92
6, 101196, Note_off_c, 3, 63, 64
6, 101196, Note_off_c, 3, 51, 64
6, 101280, Note_on_c, 3, 51, 92
6, 101280, Note_on_c, 3, 63, 92
6, 101436, Note_off_c, 3, 63, 64
6, 101436, Note_off_c, 3, 51, 64
6, 101520, Note_on_c, 3, 58, 92
6, 101520, Note_on_c, 3, 46, 92
6, 101676, Note_off_c, 3, 46, 64
6, 101676, Note_off_c, 3, 58, 64
6, 101760, Note_on_c, 3, 46, 92
6, 101760, Note_on_c, 3, 58, 92
6, 101916, Note_off_c, 3, 58, 64
6, 101916, Note_off_c, 3, 46, 64
6, 102000, Note_on_c, 3, 46, 92
6, 102000, Note_on_c, 3, 58, 92
6, 102156, Note_off_c, 3, 58, 64
6, 102156, Note_off_c, 3, 46, 64
6, 102240, Note_on_c, 3, 58, 92
6, 102240, Note_on_c, 3, 46, 92
6, 102396, Note_off_c, 3, 46, 64
6, 102396, Note_off_c, 3, 58, 64
6, 102480, Note_on_c, 3, 58, 92
6, 102480, Note_on_c, 3, 46, 92
6, 102636, Note_off_c, 3, 46, 64
6, 102636, Note_off_c, 3, 58, 64
6, 102720, Note_on_c, 3, 46, 92
6, 102720, Note_on_c, 3, 58, 92
6, 102876, Note_off_c, 3, 58, 64
6, 102876, Note_off_c, 3, 46, 64
6, 102960, Note_on_c, 3, 58, 92
6, 102960, Note_on_c, 3, 46, 92
6, 103116, Note_off_c, 3, 46, 64
6, 103116, Note_off_c, 3, 58, 64
6, 103200, Note_on_c, 3, 51, 92
6, 103200, Note_on_c, 3, 55, 92
6, 103356, Note_off_c, 3, 55, 64
6, 103356, Note_off_c, 3, 51, 64
6, 103440, Note_on_c, 3, 51, 92
6, 103440, Note_on_c, 3, 55, 92
6, 103596, Note_off_c, 3, 55, 64
6, 103596, Note_off_c, 3, 51, 64
6, 103680, Note_on_c, 3, 51, 92
6, 103680, Note_on_c, 3, 55, 92
6, 103836, Note_off_c, 3, 55, 64
6, 103836, Note_off_c, 3, 51, 64
6, 103920, Note_on_c, 3, 51, 92
6, 103920, Note_on_c, 3, 55, 92
6, 104076, Note_off_c, 3, 55, 64
6, 104076, Note_off_c, 3, 51, 64
6, 104160, Note_on_c, 3, 55, 92
6, 104160, Note_on_c, 3, 51, 92
6, 104316, Note_off_c, 3, 51, 64
6, 104316, Note_off_c, 3, 55, 64
6, 110160, Note_on_c, 3, 58, 92
6, 110160, Note_on_c, 3, 46, 92
6, 110352, Note_off_c, 3, 46, 64
6, 110352, Note_off_c, 3, 58, 64
6, 110400, Note_on_c, 3, 46, 92
6, 110400, Note_on_c, 3, 58, 92
6, 110592, Note_off_c, 3, 58, 64
6, 110592, Note_off_c, 3, 46, 64
6, 110640, Note_on_c, 3, 58, 92
6, 110640, Note_on_c, 3, 46, 92
6, 110832, Note_off_c, 3, 46, 64
6, 110832, Note_off_c, 3, 58, 64
6, 110880, Note_on_c, 3, 46, 92
6, 110880, Note_on_c, 3, 58, 92
6, 111072, Note_off_c, 3, 58, 64
6, 111072, Note_off_c, 3, 46, 64
6, 111120, Note_on_c, 3, 58, 92
6, 111120, Note_on_c, 3, 46, 92
6, 111312, Note_off_c, 3, 46, 64
6, 111312, Note_off_c, 3, 58, 64
6, 111360, Note_on_c, 3, 46, 92
6, 111360, Note_on_c, 3, 58, 92
6, 111552, Note_off_c, 3, 58, 64
6, 111552, Note_off_c, 3, 46, 64
6, 111600, Note_on_c, 3, 46, 92
6, 111600, Note_on_c, 3, 58, 92
6, 111792, Note_off_c, 3, 58, 64
6, 111792, Note_off_c, 3, 46, 64
6, 111840, Note_on_c, 3, 46, 92
6, 111840, Note_on_c, 3, 58, 92
6, 112032, Note_off_c, 3, 58, 64
6, 112032, Note_off_c, 3, 46, 64
6, 112080, Note_on_c, 3, 46, 92
6, 112080, Note_on_c, 3, 58, 92
6, 112272, Note_off_c, 3, 58, 64
6, 112272, Note_off_c, 3, 46, 64
6, 112320, Note_on_c, 3, 46, 92
6, 112320, Note_on_c, 3, 58, 92
6, 112512, Note_off_c, 3, 58, 64
6, 112512, Note_off_c, 3, 46, 64
6, 112560, Note_on_c, 3, 58, 92
6, 112560, Note_on_c, 3, 46, 92
6, 112752, Note_off_c, 3, 46, 64
6, 112752, Note_off_c, 3, 58, 64
6, 112800, Note_on_c, 3, 46, 92
6, 112800, Note_on_c, 3, 58, 92
6, 112992, Note_off_c, 3, 58, 64
6, 112992, Note_off_c, 3, 46, 64
6, 114480, Note_on_c, 3, 65, 92
6, 114480, Note_on_c, 3, 46, 92
6, 114672, Note_off_c, 3, 46, 64
6, 114672, Note_off_c, 3, 65, 64
6, 115920, Note_on_c, 3, 51, 92
6, 115920, Note_on_c, 3, 63, 92
6, 116076, Note_off_c, 3, 63, 64
6, 116076, Note_off_c, 3, 51, 64
6, 116160, Note_on_c, 3, 51, 92
6, 116160, Note_on_c, 3, 63, 92
6, 116316, Note_off_c, 3, 63, 64
6, 116316, Note_off_c, 3, 51, 64
6, 116400, Note_on_c, 3, 63, 92
6, 116400, Note_on_c, 3, 51, 92
6, 116556, Note_off_c, 3, 51, 64
6, 116556, Note_off_c, 3, 63, 64
6, 116640, Note_on_c, 3, 51, 92
6, 116640, Note_on_c, 3, 63, 92
6, 116796, Note_off_c, 3, 63, 64
6, 116796, Note_off_c, 3, 51, 64
6, 116880, Note_on_c, 3, 51, 92
6, 116880, Note_on_c, 3, 63, 92
6, 117036, Note_off_c, 3, 63, 64
6, 117036, Note_off_c, 3, 51, 64
6, 117120, Note_on_c, 3, 63, 92
6, 117120, Note_on_c, 3, 51, 92
6, 117276, Note_off_c, 3, 51, 64
6, 117276, Note_off_c, 3, 63, 64
6, 117360, Note_on_c, 3, 51, 92
6, 117360, Note_on_c, 3, 63, 92
6, 117516, Note_off_c, 3, 63, 64
6, 117516, Note_off_c, 3, 51, 64
6, 117600, Note_on_c, 3, 51, 92
6, 117600, Note_on_c, 3, 63, 92
6, 117756, Note_off_c, 3, 63, 64
6, 117756, Note_off_c, 3, 51, 64
6, 117840, Note_on_c, 3, 63, 92
6, 117840, Note_on_c, 3, 51, 92
6, 117996, Note_off_c, 3, 51, 64
6, 117996, Note_off_c, 3, 63, 64
6, 118080, Note_on_c, 3, 51, 92
6, 118080, Note_on_c, 3, 63, 92
6, 118236, Note_off_c, 3, 63, 64
6, 118236, Note_off_c, 3, 51, 64
6, 118320, Note_on_c, 3, 51, 92
6, 118320, Note_on_c, 3, 63, 92
6, 118476, Note_off_c, 3, 63, 64
6, 118476, Note_off_c, 3, 51, 64
6, 118560, Note_on_c, 3, 63, 92
6, 118560, Note_on_c, 3, 51, 92
6, 118716, Note_off_c, 3, 51, 64
6, 118716, Note_off_c, 3, 63, 64
6, 118800, Note_on_c, 3, 46, 92
6, 118800, Note_on_c, 3, 58, 92
6, 118956, Note_off_c, 3, 58, 64
6, 118956, Note_off_c, 3, 46, 64
6, 119040, Note_on_c, 3, 46, 92
6, 119040, Note_on_c, 3, 58, 92
6, 119196, Note_off_c, 3, 58, 64
6, 119196, Note_off_c, 3, 46, 64
6, 119280, Note_on_c, 3, 58, 92
6, 119280, Note_on_c, 3, 46, 92
6, 119436, Note_off_c, 3, 46, 64
6, 119436, Note_off_c, 3, 58, 64
6, 119520, Note_on_c, 3, 46, 92
6, 119520, Note_on_c, 3, 58, 92
6, 119676, Note_off_c, 3, 58, 64
6, 119676, Note_off_c, 3, 46, 64
6, 119760, Note_on_c, 3, 46, 92
6, 119760, Note_on_c, 3, 58, 92
6, 119916, Note_off_c, 3, 58, 64
6, 119916, Note_off_c, 3, 46, 64
6, 120000, Note_on_c, 3, 58, 92
6, 120000, Note_on_c, 3, 46, 92
6, 120156, Note_off_c, 3, 46, 64
6, 120156, Note_off_c, 3, 58, 64
6, 120240, Note_on_c, 3, 46, 92
6, 120240, Note_on_c, 3, 58, 92
6, 120396, Note_off_c, 3, 58, 64
6, 120396, Note_off_c, 3, 46, 64
6, 120480, Note_on_c, 3, 55, 92
6, 120480, Note_on_c, 3, 51, 92
6, 120636, Note_off_c, 3, 51, 64
6, 120636, Note_off_c, 3, 55, 64
6, 120720, Note_on_c, 3, 55, 92
6, 120720, Note_on_c, 3, 51, 92
6, 120876, Note_off_c, 3, 51, 64
6, 120876, Note_off_c, 3, 55, 64
6, 120960, Note_on_c, 3, 51, 92
6, 120960, Note_on_c, 3, 55, 92
6, 121116, Note_off_c, 3, 55, 64
6, 121116, Note_off_c, 3, 51, 64
6, 121200, Note_on_c, 3, 51, 92
6, 121200, Note_on_c, 3, 55, 92
6, 121356, Note_off_c, 3, 55, 64
6, 121356, Note_off_c, 3, 51, 64
6, 121440, Note_on_c, 3, 51, 92
6, 121440, Note_on_c, 3, 55, 92
6, 121596, Note_off_c, 3, 55, 64
6, 121596, Note_off_c, 3, 51, 64
6, 126000, Note_on_c, 3, 46, 92
6, 126000, Note_on_c, 3, 58, 105
6, 126576, Note_off_c, 3, 58, 64
6, 126576, Note_off_c, 3, 46, 64
6, 126960, Note_on_c, 3, 46, 105
6, 126960, Note_on_c, 3, 58, 105
6, 127104, Note_off_c, 3, 58, 64
6, 127104, Note_off_c, 3, 46, 64
6, 127200, Note_on_c, 3, 58, 105
6, 127200, Note_on_c, 3, 46, 105
6, 127344, Note_off_c, 3, 46, 64
6, 127344, Note_off_c, 3, 58, 64
6, 127440, Note_on_c, 3, 58, 105
6, 127440, Note_on_c, 3, 46, 105
6, 128016, Note_off_c, 3, 46, 64
6, 128016, Note_off_c, 3, 58, 64
6, 128400, Note_on_c, 3, 58, 105
6, 128400, Note_on_c, 3, 46, 105
6, 128544, Note_off_c, 3, 46, 64
6, 128544, Note_off_c, 3, 58, 64
6, 128640, Note_on_c, 3, 46, 105
6, 128640, Note_on_c, 3, 58, 105
6, 128784, Note_off_c, 3, 58, 64
6, 128784, Note_off_c, 3, 46, 64
6, 128880, Note_on_c, 3, 55, 125
6, 128880, Note_on_c, 3, 51, 105
6, 129000, Note_off_c, 3, 55, 64
6, 129072, Note_off_c, 3, 51, 64
6, 129120, Note_on_c, 3, 55, 105
6, 129120, Note_on_c, 3, 51, 105
6, 129312, Note_off_c, 3, 51, 64
6, 129360, Note_off_c, 3, 55, 64
6, 129360, Note_on_c, 3, 55, 105
6, 129360, Note_on_c, 3, 58, 105
6, 129552, Note_off_c, 3, 58, 64
6, 129552, Note_off_c, 3, 55, 64
6, 129600, Note_on_c, 3, 55, 105
6, 129600, Note_on_c, 3, 51, 105
6, 129792, Note_off_c, 3, 51, 64
6, 129792, Note_off_c, 3, 55, 64
6, 129792, End_track
7, 0, Start_track
7, 0, Program_c, 4, 56
7, 0, Control_c, 4, 7, 117
7, 0, Control_c, 4, 91, 80
7, 0, Control_c, 4, 10, 92
7, 720, Note_on_c, 4, 63, 92
7, 720, Note_on_c, 4, 75, 92
7, 876, Note_off_c, 4, 75, 64
7, 876, Note_off_c, 4, 63, 64
7, 960, Note_on_c, 4, 75, 92
7, 960, Note_on_c, 4, 63, 92
7, 1116, Note_off_c, 4, 63, 64
7, 1116, Note_off_c, 4, 75, 64
7, 1200, Note_on_c, 4, 75, 92
7, 1200, Note_on_c, 4, 63, 92
7, 1356, Note_off_c, 4, 63, 64
7, 1356, Note_off_c, 4, 75, 64
7, 1440, Note_on_c, 4, 75, 92
7, 1440, Note_on_c, 4, 63, 92
7, 1596, Note_off_c, 4, 63, 64
7, 1596, Note_off_c, 4, 75, 64
7, 1680, Note_on_c, 4, 75, 92
7, 1680, Note_on_c, 4, 63, 92
7, 1836, Note_off_c, 4, 63, 64
7, 1836, Note_off_c, 4, 75, 64
7, 1920, Note_on_c, 4, 63, 92
7, 1920, Note_on_c, 4, 75, 92
7, 2076, Note_off_c, 4, 75, 64
7, 2076, Note_off_c, 4, 63, 64
7, 2160, Note_on_c, 4, 75, 92
7, 2160, Note_on_c, 4, 63, 92
7, 2316, Note_off_c, 4, 63, 64
7, 2316, Note_off_c, 4, 75, 64
7, 2400, Note_on_c, 4, 63, 92
7, 2400, Note_on_c, 4, 75, 92
7, 2556, Note_off_c, 4, 75, 64
7, 2556, Note_off_c, 4, 63, 64
7, 2640, Note_on_c, 4, 63, 92
7, 2640, Note_on_c, 4, 75, 92
7, 2796, Note_off_c, 4, 75, 64
7, 2796, Note_off_c, 4, 63, 64
7, 2880, Note_on_c, 4, 63, 92
7, 2880, Note_on_c, 4, 75, 92
7, 3036, Note_off_c, 4, 75, 64
7, 3036, Note_off_c, 4, 63, 64
7, 3120, Note_on_c, 4, 63, 92
7, 3120, Note_on_c, 4, 75, 92
7, 3276, Note_off_c, 4, 75, 64
7, 3276, Note_off_c, 4, 63, 64
7, 3360, Note_on_c, 4, 63, 92
7, 3360, Note_on_c, 4, 75, 92
7, 3516, Note_off_c, 4, 75, 64
7, 3516, Note_off_c, 4, 63, 64
7, 3600, Note_on_c, 4, 58, 92
7, 3600, Note_on_c, 4, 70, 92
7, 3756, Note_off_c, 4, 70, 64
7, 3756, Note_off_c, 4, 58, 64
7, 3840, Note_on_c, 4, 70, 92
7, 3840, Note_on_c, 4, 58, 92
7, 3996, Note_off_c, 4, 58, 64
7, 3996, Note_off_c, 4, 70, 64
7, 4080, Note_on_c, 4, 70, 92
7, 4080, Note_on_c, 4, 58, 92
7, 4236, Note_off_c, 4, 58, 64
7, 4236, Note_off_c, 4, 70, 64
7, 4320, Note_on_c, 4, 70, 92
7, 4320, Note_on_c, 4, 58, 92
7, 4476, Note_off_c, 4, 58, 64
7, 4476, Note_off_c, 4, 70, 64
7, 4560, Note_on_c, 4, 70, 92
7, 4560, Note_on_c, 4, 58, 92
7, 4716, Note_off_c, 4, 58, 64
7, 4716, Note_off_c, 4, 70, 64
7, 4800, Note_on_c, 4, 58, 92
7, 4800, Note_on_c, 4, 70, 92
7, 4956, Note_off_c, 4, 70, 64
7, 4956, Note_off_c, 4, 58, 64
7, 5040, Note_on_c, 4, 70, 92
7, 5040, Note_on_c, 4, 58, 92
7, 5196, Note_off_c, 4, 58, 64
7, 5196, Note_off_c, 4, 70, 64
7, 5280, Note_on_c, 4, 63, 92
7, 5280, Note_on_c, 4, 67, 92
7, 5436, Note_off_c, 4, 67, 64
7, 5436, Note_off_c, 4, 63, 64
7, 5520, Note_on_c, 4, 63, 92
7, 5520, Note_on_c, 4, 67, 92
7, 5676, Note_off_c, 4, 67, 64
7, 5676, Note_off_c, 4, 63, 64
7, 5760, Note_on_c, 4, 63, 92
7, 5760, Note_on_c, 4, 67, 92
7, 5916, Note_off_c, 4, 67, 64
7, 5916, Note_off_c, 4, 63, 64
7, 6000, Note_on_c, 4, 63, 92
7, 6000, Note_on_c, 4, 67, 92
7, 6156, Note_off_c, 4, 67, 64
7, 6156, Note_off_c, 4, 63, 64
7, 6240, Note_on_c, 4, 63, 92
7, 6240, Note_on_c, 4, 67, 92
7, 6396, Note_off_c, 4, 67, 64
7, 6396, Note_off_c, 4, 63, 64
7, 12240, Note_on_c, 4, 63, 92
7, 12240, Note_on_c, 4, 75, 92
7, 12396, Note_off_c, 4, 75, 64
7, 12396, Note_off_c, 4, 63, 64
7, 12480, Note_on_c, 4, 75, 92
7, 12480, Note_on_c, 4, 63, 92
7, 12636, Note_off_c, 4, 63, 64
7, 12636, Note_off_c, 4, 75, 64
7, 12720, Note_on_c, 4, 75, 92
7, 12720, Note_on_c, 4, 63, 92
7, 12876, Note_off_c, 4, 63, 64
7, 12876, Note_off_c, 4, 75, 64
7, 12960, Note_on_c, 4, 75, 92
7, 12960, Note_on_c, 4, 63, 92
7, 13116, Note_off_c, 4, 63, 64
7, 13116, Note_off_c, 4, 75, 64
7, 13200, Note_on_c, 4, 75, 92
7, 13200, Note_on_c, 4, 63, 92
7, 13356, Note_off_c, 4, 63, 64
7, 13356, Note_off_c, 4, 75, 64
7, 13440, Note_on_c, 4, 63, 92
7, 13440, Note_on_c, 4, 75, 92
7, 13596, Note_off_c, 4, 75, 64
7, 13596, Note_off_c, 4, 63, 64
7, 13680, Note_on_c, 4, 75, 92
7, 13680, Note_on_c, 4, 63, 92
7, 13836, Note_off_c, 4, 63, 64
7, 13836, Note_off_c, 4, 75, 64
7, 13920, Note_on_c, 4, 63, 92
7, 13920, Note_on_c, 4, 75, 92
7, 14076, Note_off_c, 4, 75, 64
7, 14076, Note_off_c, 4, 63, 64
7, 14160, Note_on_c, 4, 63, 92
7, 14160, Note_on_c, 4, 75, 92
7, 14316, Note_off_c, 4, 75, 64
7, 14316, Note_off_c, 4, 63, 64
7, 14400, Note_on_c, 4, 63, 92
7, 14400, Note_on_c, 4, 75, 92
7, 14556, Note_off_c, 4, 75, 64
7, 14556, Note_off_c, 4, 63, 64
7, 14640, Note_on_c, 4, 63, 92
7, 14640, Note_on_c, 4, 75, 92
7, 14796, Note_off_c, 4, 75, 64
7, 14796, Note_off_c, 4, 63, 64
7, 14880, Note_on_c, 4, 63, 92
7, 14880, Note_on_c, 4, 75, 92
7, 15036, Note_off_c, 4, 75, 64
7, 15036, Note_off_c, 4, 63, 64
7, 15120, Note_on_c, 4, 58, 92
7, 15120, Note_on_c, 4, 70, 92
7, 15276, Note_off_c, 4, 70, 64
7, 15276, Note_off_c, 4, 58, 64
7, 15360, Note_on_c, 4, 70, 92
7, 15360, Note_on_c, 4, 58, 92
7, 15516, Note_off_c, 4, 58, 64
7, 15516, Note_off_c, 4, 70, 64
7, 15600, Note_on_c, 4, 70, 92
7, 15600, Note_on_c, 4, 58, 92
7, 15756, Note_off_c, 4, 58, 64
7, 15756, Note_off_c, 4, 70, 64
7, 15840, Note_on_c, 4, 70, 92
7, 15840, Note_on_c, 4, 58, 92
7, 15996, Note_off_c, 4, 58, 64
7, 15996, Note_off_c, 4, 70, 64
7, 16080, Note_on_c, 4, 70, 92
7, 16080, Note_on_c, 4, 58, 92
7, 16236, Note_off_c, 4, 58, 64
7, 16236, Note_off_c, 4, 70, 64
7, 16320, Note_on_c, 4, 58, 92
7, 16320, Note_on_c, 4, 70, 92
7, 16476, Note_off_c, 4, 70, 64
7, 16476, Note_off_c, 4, 58, 64
7, 16560, Note_on_c, 4, 70, 92
7, 16560, Note_on_c, 4, 58, 92
7, 16716, Note_off_c, 4, 58, 64
7, 16716, Note_off_c, 4, 70, 64
7, 16800, Note_on_c, 4, 63, 92
7, 16800, Note_on_c, 4, 67, 92
7, 16956, Note_off_c, 4, 67, 64
7, 16956, Note_off_c, 4, 63, 64
7, 17040, Note_on_c, 4, 63, 92
7, 17040, Note_on_c, 4, 67, 92
7, 17196, Note_off_c, 4, 67, 64
7, 17196, Note_off_c, 4, 63, 64
7, 17280, Note_on_c, 4, 63, 92
7, 17280, Note_on_c, 4, 67, 92
7, 17436, Note_off_c, 4, 67, 64
7, 17436, Note_off_c, 4, 63, 64
7, 17520, Note_on_c, 4, 63, 92
7, 17520, Note_on_c, 4, 67, 92
7, 17676, Note_off_c, 4, 67, 64
7, 17676, Note_off_c, 4, 63, 64
7, 17760, Note_on_c, 4, 63, 92
7, 17760, Note_on_c, 4, 67, 92
7, 17916, Note_off_c, 4, 67, 64
7, 17916, Note_off_c, 4, 63, 64
7, 23760, Note_on_c, 4, 58, 92
7, 23760, Note_on_c, 4, 70, 92
7, 23952, Note_off_c, 4, 70, 64
7, 23952, Note_off_c, 4, 58, 64
7, 24000, Note_on_c, 4, 70, 92
7, 24000, Note_on_c, 4, 58, 92
7, 24192, Note_off_c, 4, 58, 64
7, 24192, Note_off_c, 4, 70, 64
7, 24240, Note_on_c, 4, 58, 92
7, 24240, Note_on_c, 4, 70, 92
7, 24432, Note_off_c, 4, 70, 64
7, 24432, Note_off_c, 4, 58, 64
7, 24480, Note_on_c, 4, 70, 92
7, 24480, Note_on_c, 4, 58, 92
7, 24672, Note_off_c, 4, 58, 64
7, 24672, Note_off_c, 4, 70, 64
7, 24720, Note_on_c, 4, 70, 92
7, 24720, Note_on_c, 4, 58, 92
7, 24912, Note_off_c, 4, 58, 64
7, 24912, Note_off_c, 4, 70, 64
7, 24960, Note_on_c, 4, 70, 92
7, 24960, Note_on_c, 4, 58, 92
7, 25152, Note_off_c, 4, 58, 64
7, 25152, Note_off_c, 4, 70, 64
7, 25200, Note_on_c, 4, 58, 92
7, 25200, Note_on_c, 4, 70, 92
7, 25392, Note_off_c, 4, 70, 64
7, 25392, Note_off_c, 4, 58, 64
7, 25440, Note_on_c, 4, 70, 92
7, 25440, Note_on_c, 4, 58, 92
7, 25632, Note_off_c, 4, 58, 64
7, 25632, Note_off_c, 4, 70, 64
7, 25680, Note_on_c, 4, 70, 92
7, 25680, Note_on_c, 4, 58, 92
7, 25872, Note_off_c, 4, 58, 64
7, 25872, Note_off_c, 4, 70, 64
7, 25920, Note_on_c, 4, 70, 92
7, 25920, Note_on_c, 4, 58, 92
7, 26112, Note_off_c, 4, 58, 64
7, 26112, Note_off_c, 4, 70, 64
7, 26160, Note_on_c, 4, 70, 92
7, 26160, Note_on_c, 4, 58, 92
7, 26352, Note_off_c, 4, 58, 64
7, 26352, Note_off_c, 4, 70, 64
7, 26400, Note_on_c, 4, 70, 92
7, 26400, Note_on_c, 4, 58, 92
7, 26592, Note_off_c, 4, 58, 64
7, 26592, Note_off_c, 4, 70, 64
7, 28080, Note_on_c, 4, 70, 92
7, 28080, Note_on_c, 4, 58, 92
7, 28272, Note_off_c, 4, 58, 64
7, 28272, Note_off_c, 4, 70, 64
7, 29520, Note_on_c, 4, 75, 92
7, 29520, Note_on_c, 4, 63, 92
7, 29676, Note_off_c, 4, 63, 64
7, 29676, Note_off_c, 4, 75, 64
7, 29760, Note_on_c, 4, 63, 92
7, 29760, Note_on_c, 4, 75, 92
7, 29916, Note_off_c, 4, 75, 64
7, 29916, Note_off_c, 4, 63, 64
7, 30000, Note_on_c, 4, 63, 92
7, 30000, Note_on_c, 4, 75, 92
7, 30156, Note_off_c, 4, 75, 64
7, 30156, Note_off_c, 4, 63, 64
7, 30240, Note_on_c, 4, 63, 92
7, 30240, Note_on_c, 4, 75, 92
7, 30396, Note_off_c, 4, 75, 64
7, 30396, Note_off_c, 4, 63, 64
7, 30480, Note_on_c, 4, 63, 92
7, 30480, Note_on_c, 4, 75, 92
7, 30636, Note_off_c, 4, 75, 64
7, 30636, Note_off_c, 4, 63, 64
7, 30720, Note_on_c, 4, 63, 92
7, 30720, Note_on_c, 4, 75, 92
7, 30876, Note_off_c, 4, 75, 64
7, 30876, Note_off_c, 4, 63, 64
7, 30960, Note_on_c, 4, 63, 92
7, 30960, Note_on_c, 4, 75, 92
7, 31116, Note_off_c, 4, 75, 64
7, 31116, Note_off_c, 4, 63, 64
7, 31200, Note_on_c, 4, 63, 92
7, 31200, Note_on_c, 4, 75, 92
7, 31356, Note_off_c, 4, 75, 64
7, 31356, Note_off_c, 4, 63, 64
7, 31440, Note_on_c, 4, 63, 92
7, 31440, Note_on_c, 4, 75, 92
7, 31596, Note_off_c, 4, 75, 64
7, 31596, Note_off_c, 4, 63, 64
7, 31680, Note_on_c, 4, 75, 92
7, 31680, Note_on_c, 4, 63, 92
7, 31836, Note_off_c, 4, 63, 64
7, 31836, Note_off_c, 4, 75, 64
7, 31920, Note_on_c, 4, 63, 92
7, 31920, Note_on_c, 4, 75, 92
7, 32076, Note_off_c, 4, 75, 64
7, 32076, Note_off_c, 4, 63, 64
7, 32160, Note_on_c, 4, 63, 92
7, 32160, Note_on_c, 4, 75, 92
7, 32316, Note_off_c, 4, 75, 64
7, 32316, Note_off_c, 4, 63, 64
7, 32400, Note_on_c, 4, 70, 92
7, 32400, Note_on_c, 4, 58, 92
7, 32556, Note_off_c, 4, 58, 64
7, 32556, Note_off_c, 4, 70, 64
7, 32640, Note_on_c, 4, 58, 92
7, 32640, Note_on_c, 4, 70, 92
7, 32796, Note_off_c, 4, 70, 64
7, 32796, Note_off_c, 4, 58, 64
7, 32880, Note_on_c, 4, 58, 92
7, 32880, Note_on_c, 4, 70, 92
7, 33036, Note_off_c, 4, 70, 64
7, 33036, Note_off_c, 4, 58, 64
7, 33120, Note_on_c, 4, 58, 92
7, 33120, Note_on_c, 4, 70, 92
7, 33276, Note_off_c, 4, 70, 64
7, 33276, Note_off_c, 4, 58, 64
7, 33360, Note_on_c, 4, 58, 92
7, 33360, Note_on_c, 4, 70, 92
7, 33516, Note_off_c, 4, 70, 64
7, 33516, Note_off_c, 4, 58, 64
7, 33600, Note_on_c, 4, 58, 92
7, 33600, Note_on_c, 4, 70, 92
7, 33756, Note_off_c, 4, 70, 64
7, 33756, Note_off_c, 4, 58, 64
7, 33840, Note_on_c, 4, 70, 92
7, 33840, Note_on_c, 4, 58, 92
7, 33996, Note_off_c, 4, 58, 64
7, 33996, Note_off_c, 4, 70, 64
7, 34080, Note_on_c, 4, 63, 92
7, 34080, Note_on_c, 4, 67, 92
7, 34236, Note_off_c, 4, 67, 64
7, 34236, Note_off_c, 4, 63, 64
7, 34320, Note_on_c, 4, 67, 92
7, 34320, Note_on_c, 4, 63, 92
7, 34476, Note_off_c, 4, 63, 64
7, 34476, Note_off_c, 4, 67, 64
7, 34560, Note_on_c, 4, 63, 92
7, 34560, Note_on_c, 4, 67, 92
7, 34716, Note_off_c, 4, 67, 64
7, 34716, Note_off_c, 4, 63, 64
7, 34800, Note_on_c, 4, 63, 92
7, 34800, Note_on_c, 4, 67, 92
7, 34956, Note_off_c, 4, 67, 64
7, 34956, Note_off_c, 4, 63, 64
7, 35040, Note_on_c, 4, 63, 92
7, 35040, Note_on_c, 4, 67, 92
7, 35196, Note_off_c, 4, 67, 64
7, 35196, Note_off_c, 4, 63, 64
7, 39600, Note_on_c, 4, 70, 92
7, 39600, Note_on_c, 4, 58, 105
7, 40176, Note_off_c, 4, 58, 64
7, 40176, Note_off_c, 4, 70, 64
7, 40560, Note_on_c, 4, 70, 105
7, 40560, Note_on_c, 4, 58, 105
7, 40704, Note_off_c, 4, 58, 64
7, 40704, Note_off_c, 4, 70, 64
7, 40800, Note_on_c, 4, 58, 105
7, 40800, Note_on_c, 4, 70, 105
7, 40944, Note_off_c, 4, 70, 64
7, 40944, Note_off_c, 4, 58, 64
7, 41040, Note_on_c, 4, 70, 105
7, 41040, Note_on_c, 4, 58, 105
7, 41616, Note_off_c, 4, 58, 64
7, 41616, Note_off_c, 4, 70, 64
7, 42000, Note_on_c, 4, 70, 105
7, 42000, Note_on_c, 4, 58, 105
7, 42144, Note_off_c, 4, 58, 64
7, 42144, Note_off_c, 4, 70, 64
7, 42240, Note_on_c, 4, 58, 105
7, 42240, Note_on_c, 4, 70, 105
7, 42384, Note_off_c, 4, 70, 64
7, 42384, Note_off_c, 4, 58, 64
7, 42480, Note_on_c, 4, 63, 105
7, 42480, Note_on_c, 4, 67, 125
7, 42600, Note_off_c, 4, 67, 64
7, 42672, Note_off_c, 4, 63, 64
7, 42720, Note_on_c, 4, 63, 105
7, 42720, Note_on_c, 4, 67, 105
7, 42912, Note_off_c, 4, 63, 64
7, 42960, Note_off_c, 4, 67, 64
7, 42960, Note_on_c, 4, 70, 105
7, 42960, Note_on_c, 4, 67, 105
7, 43152, Note_off_c, 4, 67, 64
7, 43152, Note_off_c, 4, 70, 64
7, 43200, Note_on_c, 4, 67, 105
7, 43200, Note_on_c, 4, 63, 105
7, 43392, Note_off_c, 4, 63, 64
7, 43392, Note_off_c, 4, 67, 64
7, 43920, Note_on_c, 4, 58, 105
7, 43920, Note_on_c, 4, 70, 92
7, 44112, Note_off_c, 4, 70, 64
7, 44112, Note_off_c, 4, 58, 64
7, 44160, Note_on_c, 4, 70, 92
7, 44160, Note_on_c, 4, 58, 92
7, 44352, Note_off_c, 4, 58, 64
7, 44352, Note_off_c, 4, 70, 64
7, 44400, Note_on_c, 4, 58, 92
7, 44400, Note_on_c, 4, 70, 92
7, 44592, Note_off_c, 4, 70, 64
7, 44592, Note_off_c, 4, 58, 64
7, 44640, Note_on_c, 4, 70, 92
7, 44640, Note_on_c, 4, 58, 92
7, 44832, Note_off_c, 4, 58, 64
7, 44832, Note_off_c, 4, 70, 64
7, 44880, Note_on_c, 4, 70, 92
7, 44880, Note_on_c, 4, 58, 92
7, 45072, Note_off_c, 4, 58, 64
7, 45072, Note_off_c, 4, 70, 64
7, 45120, Note_on_c, 4, 70, 92
7, 45120, Note_on_c, 4, 58, 92
7, 45312, Note_off_c, 4, 58, 64
7, 45312, Note_off_c, 4, 70, 64
7, 45360, Note_on_c, 4, 58, 92
7, 45360, Note_on_c, 4, 70, 92
7, 45552, Note_off_c, 4, 70, 64
7, 45552, Note_off_c, 4, 58, 64
7, 45600, Note_on_c, 4, 70, 92
7, 45600, Note_on_c, 4, 58, 92
7, 45792, Note_off_c, 4, 58, 64
7, 45792, Note_off_c, 4, 70, 64
7, 45840, Note_on_c, 4, 70, 92
7, 45840, Note_on_c, 4, 58, 92
7, 46032, Note_off_c, 4, 58, 64
7, 46032, Note_off_c, 4, 70, 64
7, 46080, Note_on_c, 4, 70, 92
7, 46080, Note_on_c, 4, 58, 92
7, 46272, Note_off_c, 4, 58, 64
7, 46272, Note_off_c, 4, 70, 64
7, 46320, Note_on_c, 4, 70, 92
7, 46320, Note_on_c, 4, 58, 92
7, 46512, Note_off_c, 4, 58, 64
7, 46512, Note_off_c, 4, 70, 64
7, 46560, Note_on_c, 4, 70, 92
7, 46560, Note_on_c, 4, 58, 92
7, 46752, Note_off_c, 4, 58, 64
7, 46752, Note_off_c, 4, 70, 64
7, 48240, Note_on_c, 4, 70, 92
7, 48240, Note_on_c, 4, 58, 92
7, 48432, Note_off_c, 4, 58, 64
7, 48432, Note_off_c, 4, 70, 64
7, 49680, Note_on_c, 4, 75, 92
7, 49680, Note_on_c, 4, 63, 92
7, 49836, Note_off_c, 4, 63, 64
7, 49836, Note_off_c, 4, 75, 64
7, 49920, Note_on_c, 4, 63, 92
7, 49920, Note_on_c, 4, 75, 92
7, 50076, Note_off_c, 4, 75, 64
7, 50076, Note_off_c, 4, 63, 64
7, 50160, Note_on_c, 4, 63, 92
7, 50160, Note_on_c, 4, 75, 92
7, 50316, Note_off_c, 4, 75, 64
7, 50316, Note_off_c, 4, 63, 64
7, 50400, Note_on_c, 4, 63, 92
7, 50400, Note_on_c, 4, 75, 92
7, 50556, Note_off_c, 4, 75, 64
7, 50556, Note_off_c, 4, 63, 64
7, 50640, Note_on_c, 4, 63, 92
7, 50640, Note_on_c, 4, 75, 92
7, 50796, Note_off_c, 4, 75, 64
7, 50796, Note_off_c, 4, 63, 64
7, 50880, Note_on_c, 4, 63, 92
7, 50880, Note_on_c, 4, 75, 92
7, 51036, Note_off_c, 4, 75, 64
7, 51036, Note_off_c, 4, 63, 64
7, 51120, Note_on_c, 4, 63, 92
7, 51120, Note_on_c, 4, 75, 92
7, 51276, Note_off_c, 4, 75, 64
7, 51276, Note_off_c, 4, 63, 64
7, 51360, Note_on_c, 4, 63, 92
7, 51360, Note_on_c, 4, 75, 92
7, 51516, Note_off_c, 4, 75, 64
7, 51516, Note_off_c, 4, 63, 64
7, 51600, Note_on_c, 4, 63, 92
7, 51600, Note_on_c, 4, 75, 92
7, 51756, Note_off_c, 4, 75, 64
7, 51756, Note_off_c, 4, 63, 64
7, 51840, Note_on_c, 4, 75, 92
7, 51840, Note_on_c, 4, 63, 92
7, 51996, Note_off_c, 4, 63, 64
7, 51996, Note_off_c, 4, 75, 64
7, 52080, Note_on_c, 4, 63, 92
7, 52080, Note_on_c, 4, 75, 92
7, 52236, Note_off_c, 4, 75, 64
7, 52236, Note_off_c, 4, 63, 64
7, 52320, Note_on_c, 4, 63, 92
7, 52320, Note_on_c, 4, 75, 92
7, 52476, Note_off_c, 4, 75, 64
7, 52476, Note_off_c, 4, 63, 64
7, 52560, Note_on_c, 4, 70, 92
7, 52560, Note_on_c, 4, 58, 92
7, 52716, Note_off_c, 4, 58, 64
7, 52716, Note_off_c, 4, 70, 64
7, 52800, Note_on_c, 4, 58, 92
7, 52800, Note_on_c, 4, 70, 92
7, 52956, Note_off_c, 4, 70, 64
7, 52956, Note_off_c, 4, 58, 64
7, 53040, Note_on_c, 4, 58, 92
7, 53040, Note_on_c, 4, 70, 92
7, 53196, Note_off_c, 4, 70, 64
7, 53196, Note_off_c, 4, 58, 64
7, 53280, Note_on_c, 4, 58, 92
7, 53280, Note_on_c, 4, 70, 92
7, 53436, Note_off_c, 4, 70, 64
7, 53436, Note_off_c, 4, 58, 64
7, 53520, Note_on_c, 4, 58, 92
7, 53520, Note_on_c, 4, 70, 92
7, 53676, Note_off_c, 4, 70, 64
7, 53676, Note_off_c, 4, 58, 64
7, 53760, Note_on_c, 4, 58, 92
7, 53760, Note_on_c, 4, 70, 92
7, 53916, Note_off_c, 4, 70, 64
7, 53916, Note_off_c, 4, 58, 64
7, 54000, Note_on_c, 4, 70, 92
7, 54000, Note_on_c, 4, 58, 92
7, 54156, Note_off_c, 4, 58, 64
7, 54156, Note_off_c, 4, 70, 64
7, 54240, Note_on_c, 4, 63, 92
7, 54240, Note_on_c, 4, 67, 92
7, 54396, Note_off_c, 4, 67, 64
7, 54396, Note_off_c, 4, 63, 64
7, 54480, Note_on_c, 4, 67, 92
7, 54480, Note_on_c, 4, 63, 92
7, 54636, Note_off_c, 4, 63, 64
7, 54636, Note_off_c, 4, 67, 64
7, 54720, Note_on_c, 4, 63, 92
7, 54720, Note_on_c, 4, 67, 92
7, 54876, Note_off_c, 4, 67, 64
7, 54876, Note_off_c, 4, 63, 64
7, 54960, Note_on_c, 4, 63, 92
7, 54960, Note_on_c, 4, 67, 92
7, 55116, Note_off_c, 4, 67, 64
7, 55116, Note_off_c, 4, 63, 64
7, 55200, Note_on_c, 4, 63, 92
7, 55200, Note_on_c, 4, 67, 92
7, 55356, Note_off_c, 4, 67, 64
7, 55356, Note_off_c, 4, 63, 64
7, 59760, Note_on_c, 4, 70, 92
7, 59760, Note_on_c, 4, 58, 105
7, 60336, Note_off_c, 4, 58, 64
7, 60336, Note_off_c, 4, 70, 64
7, 60720, Note_on_c, 4, 70, 105
7, 60720, Note_on_c, 4, 58, 105
7, 60864, Note_off_c, 4, 58, 64
7, 60864, Note_off_c, 4, 70, 64
7, 60960, Note_on_c, 4, 58, 105
7, 60960, Note_on_c, 4, 70, 105
7, 61104, Note_off_c, 4, 70, 64
7, 61104, Note_off_c, 4, 58, 64
7, 61200, Note_on_c, 4, 70, 105
7, 61200, Note_on_c, 4, 58, 105
7, 61776, Note_off_c, 4, 58, 64
7, 61776, Note_off_c, 4, 70, 64
7, 62160, Note_on_c, 4, 70, 105
7, 62160, Note_on_c, 4, 58, 105
7, 62304, Note_off_c, 4, 58, 64
7, 62304, Note_off_c, 4, 70, 64
7, 62400, Note_on_c, 4, 58, 105
7, 62400, Note_on_c, 4, 70, 105
7, 62544, Note_off_c, 4, 70, 64
7, 62544, Note_off_c, 4, 58, 64
7, 62640, Note_on_c, 4, 63, 105
7, 62640, Note_on_c, 4, 67, 125
7, 62760, Note_off_c, 4, 67, 64
7, 62832, Note_off_c, 4, 63, 64
7, 62880, Note_on_c, 4, 63, 105
7, 62880, Note_on_c, 4, 67, 105
7, 63072, Note_off_c, 4, 63, 64
7, 63120, Note_off_c, 4, 67, 64
7, 63120, Note_on_c, 4, 70, 105
7, 63120, Note_on_c, 4, 67, 105
7, 63312, Note_off_c, 4, 67, 64
7, 63312, Note_off_c, 4, 70, 64
7, 63360, Note_on_c, 4, 67, 105
7, 63360, Note_on_c, 4, 63, 105
7, 63552, Note_off_c, 4, 63, 64
7, 63552, Note_off_c, 4, 67, 64
7, 98640, Note_on_c, 4, 63, 92
7, 98640, Note_on_c, 4, 75, 92
7, 98796, Note_off_c, 4, 75, 64
7, 98796, Note_off_c, 4, 63, 64
7, 98880, Note_on_c, 4, 75, 92
7, 98880, Note_on_c, 4, 63, 92
7, 99036, Note_off_c, 4, 63, 64
7, 99036, Note_off_c, 4, 75, 64
7, 99120, Note_on_c, 4, 75, 92
7, 99120, Note_on_c, 4, 63, 92
7, 99276, Note_off_c, 4, 63, 64
7, 99276, Note_off_c, 4, 75, 64
7, 99360, Note_on_c, 4, 75, 92
7, 99360, Note_on_c, 4, 63, 92
7, 99516, Note_off_c, 4, 63, 64
7, 99516, Note_off_c, 4, 75, 64
7, 99600, Note_on_c, 4, 75, 92
7, 99600, Note_on_c, 4, 63, 92
7, 99756, Note_off_c, 4, 63, 64
7, 99756, Note_off_c, 4, 75, 64
7, 99840, Note_on_c, 4, 63, 92
7, 99840, Note_on_c, 4, 75, 92
7, 99996, Note_off_c, 4, 75, 64
7, 99996, Note_off_c, 4, 63, 64
7, 100080, Note_on_c, 4, 75, 92
7, 100080, Note_on_c, 4, 63, 92
7, 100236, Note_off_c, 4, 63, 64
7, 100236, Note_off_c, 4, 75, 64
7, 100320, Note_on_c, 4, 63, 92
7, 100320, Note_on_c, 4, 75, 92
7, 100476, Note_off_c, 4, 75, 64
7, 100476, Note_off_c, 4, 63, 64
7, 100560, Note_on_c, 4, 63, 92
7, 100560, Note_on_c, 4, 75, 92
7, 100716, Note_off_c, 4, 75, 64
7, 100716, Note_off_c, 4, 63, 64
7, 100800, Note_on_c, 4, 63, 92
7, 100800, Note_on_c, 4, 75, 92
7, 100956, Note_off_c, 4, 75, 64
7, 100956, Note_off_c, 4, 63, 64
7, 101040, Note_on_c, 4, 63, 92
7, 101040, Note_on_c, 4, 75, 92
7, 101196, Note_off_c, 4, 75, 64
7, 101196, Note_off_c, 4, 63, 64
7, 101280, Note_on_c, 4, 63, 92
7, 101280, Note_on_c, 4, 75, 92
7, 101436, Note_off_c, 4, 75, 64
7, 101436, Note_off_c, 4, 63, 64
7, 101520, Note_on_c, 4, 58, 92
7, 101520, Note_on_c, 4, 70, 92
7, 101676, Note_off_c, 4, 70, 64
7, 101676, Note_off_c, 4, 58, 64
7, 101760, Note_on_c, 4, 70, 92
7, 101760, Note_on_c, 4, 58, 92
7, 101916, Note_off_c, 4, 58, 64
7, 101916, Note_off_c, 4, 70, 64
7, 102000, Note_on_c, 4, 70, 92
7, 102000, Note_on_c, 4, 58, 92
7, 102156, Note_off_c, 4, 58, 64
7, 102156, Note_off_c, 4, 70, 64
7, 102240, Note_on_c, 4, 70, 92
7, 102240, Note_on_c, 4, 58, 92
7, 102396, Note_off_c, 4, 58, 64
7, 102396, Note_off_c, 4, 70, 64
7, 102480, Note_on_c, 4, 70, 92
7, 102480, Note_on_c, 4, 58, 92
7, 102636, Note_off_c, 4, 58, 64
7, 102636, Note_off_c, 4, 70, 64
7, 102720, Note_on_c, 4, 58, 92
7, 102720, Note_on_c, 4, 70, 92
7, 102876, Note_off_c, 4, 70, 64
7, 102876, Note_off_c, 4, 58, 64
7, 102960, Note_on_c, 4, 70, 92
7, 102960, Note_on_c, 4, 58, 92
7, 103116, Note_off_c, 4, 58, 64
7, 103116, Note_off_c, 4, 70, 64
7, 103200, Note_on_c, 4, 63, 92
7, 103200, Note_on_c, 4, 67, 92
7, 103356, Note_off_c, 4, 67, 64
7, 103356, Note_off_c, 4, 63, 64
7, 103440, Note_on_c, 4, 63, 92
7, 103440, Note_on_c, 4, 67, 92
7, 103596, Note_off_c, 4, 67, 64
7, 103596, Note_off_c, 4, 63, 64
7, 103680, Note_on_c, 4, 63, 92
7, 103680, Note_on_c, 4, 67, 92
7, 103836, Note_off_c, 4, 67, 64
7, 103836, Note_off_c, 4, 63, 64
7, 103920, Note_on_c, 4, 63, 92
7, 103920, Note_on_c, 4, 67, 92
7, 104076, Note_off_c, 4, 67, 64
7, 104076, Note_off_c, 4, 63, 64
7, 104160, Note_on_c, 4, 63, 92
7, 104160, Note_on_c, 4, 67, 92
7, 104316, Note_off_c, 4, 67, 64
7, 104316, Note_off_c, 4, 63, 64
7, 110160, Note_on_c, 4, 70, 92
7, 110160, Note_on_c, 4, 58, 92
7, 110352, Note_off_c, 4, 58, 64
7, 110352, Note_off_c, 4, 70, 64
7, 110400, Note_on_c, 4, 70, 92
7, 110400, Note_on_c, 4, 58, 92
7, 110592, Note_off_c, 4, 58, 64
7, 110592, Note_off_c, 4, 70, 64
7, 110640, Note_on_c, 4, 58, 92
7, 110640, Note_on_c, 4, 70, 92
7, 110832, Note_off_c, 4, 70, 64
7, 110832, Note_off_c, 4, 58, 64
7, 110880, Note_on_c, 4, 70, 92
7, 110880, Note_on_c, 4, 58, 92
7, 111072, Note_off_c, 4, 58, 64
7, 111072, Note_off_c, 4, 70, 64
7, 111120, Note_on_c, 4, 70, 92
7, 111120, Note_on_c, 4, 58, 92
7, 111312, Note_off_c, 4, 58, 64
7, 111312, Note_off_c, 4, 70, 64
7, 111360, Note_on_c, 4, 70, 92
7, 111360, Note_on_c, 4, 58, 92
7, 111552, Note_off_c, 4, 58, 64
7, 111552, Note_off_c, 4, 70, 64
7, 111600, Note_on_c, 4, 70, 92
7, 111600, Note_on_c, 4, 58, 92
7, 111792, Note_off_c, 4, 58, 64
7, 111792, Note_off_c, 4, 70, 64
7, 111840, Note_on_c, 4, 70, 92
7, 111840, Note_on_c, 4, 58, 92
7, 112032, Note_off_c, 4, 58, 64
7, 112032, Note_off_c, 4, 70, 64
7, 112080, Note_on_c, 4, 70, 92
7, 112080, Note_on_c, 4, 58, 92
7, 112272, Note_off_c, 4, 58, 64
7, 112272, Note_off_c, 4, 70, 64
7, 112320, Note_on_c, 4, 70, 92
7, 112320, Note_on_c, 4, 58, 92
7, 112512, Note_off_c, 4, 58, 64
7, 112512, Note_off_c, 4, 70, 64
7, 112560, Note_on_c, 4, 70, 92
7, 112560, Note_on_c, 4, 58, 92
7, 112752, Note_off_c, 4, 58, 64
7, 112752, Note_off_c, 4, 70, 64
7, 112800, Note_on_c, 4, 70, 92
7, 112800, Note_on_c, 4, 58, 92
7, 112992, Note_off_c, 4, 58, 64
7, 112992, Note_off_c, 4, 70, 64
7, 114480, Note_on_c, 4, 70, 92
7, 114480, Note_on_c, 4, 58, 92
7, 114672, Note_off_c, 4, 58, 64
7, 114672, Note_off_c, 4, 70, 64
7, 115920, Note_on_c, 4, 75, 92
7, 115920, Note_on_c, 4, 63, 92
7, 116076, Note_off_c, 4, 63, 64
7, 116076, Note_off_c, 4, 75, 64
7, 116160, Note_on_c, 4, 63, 92
7, 116160, Note_on_c, 4, 75, 92
7, 116316, Note_off_c, 4, 75, 64
7, 116316, Note_off_c, 4, 63, 64
7, 116400, Note_on_c, 4, 63, 92
7, 116400, Note_on_c, 4, 75, 92
7, 116556, Note_off_c, 4, 75, 64
7, 116556, Note_off_c, 4, 63, 64
7, 116640, Note_on_c, 4, 63, 92
7, 116640, Note_on_c, 4, 75, 92
7, 116796, Note_off_c, 4, 75, 64
7, 116796, Note_off_c, 4, 63, 64
7, 116880, Note_on_c, 4, 63, 92
7, 116880, Note_on_c, 4, 75, 92
7, 117036, Note_off_c, 4, 75, 64
7, 117036, Note_off_c, 4, 63, 64
7, 117120, Note_on_c, 4, 63, 92
7, 117120, Note_on_c, 4, 75, 92
7, 117276, Note_off_c, 4, 75, 64
7, 117276, Note_off_c, 4, 63, 64
7, 117360, Note_on_c, 4, 63, 92
7, 117360, Note_on_c, 4, 75, 92
7, 117516, Note_off_c, 4, 75, 64
7, 117516, Note_off_c, 4, 63, 64
7, 117600, Note_on_c, 4, 63, 92
7, 117600, Note_on_c, 4, 75, 92
7, 117756, Note_off_c, 4, 75, 64
7, 117756, Note_off_c, 4, 63, 64
7, 117840, Note_on_c, 4, 63, 92
7, 117840, Note_on_c, 4, 75, 92
7, 117996, Note_off_c, 4, 75, 64
7, 117996, Note_off_c, 4, 63, 64
7, 118080, Note_on_c, 4, 75, 92
7, 118080, Note_on_c, 4, 63, 92
7, 118236, Note_off_c, 4, 63, 64
7, 118236, Note_off_c, 4, 75, 64
7, 118320, Note_on_c, 4, 63, 92
7, 118320, Note_on_c, 4, 75, 92
7, 118476, Note_off_c, 4, 75, 64
7, 118476, Note_off_c, 4, 63, 64
7, 118560, Note_on_c, 4, 63, 92
7, 118560, Note_on_c, 4, 75, 92
7, 118716, Note_off_c, 4, 75, 64
7, 118716, Note_off_c, 4, 63, 64
7, 118800, Note_on_c, 4, 70, 92
7, 118800, Note_on_c, 4, 58, 92
7, 118956, Note_off_c, 4, 58, 64
7, 118956, Note_off_c, 4, 70, 64
7, 119040, Note_on_c, 4, 58, 92
7, 119040, Note_on_c, 4, 70, 92
7, 119196, Note_off_c, 4, 70, 64
7, 119196, Note_off_c, 4, 58, 64
7, 119280, Note_on_c, 4, 58, 92
7, 119280, Note_on_c, 4, 70, 92
7, 119436, Note_off_c, 4, 70, 64
7, 119436, Note_off_c, 4, 58, 64
7, 119520, Note_on_c, 4, 58, 92
7, 119520, Note_on_c, 4, 70, 92
7, 119676, Note_off_c, 4, 70, 64
7, 119676, Note_off_c, 4, 58, 64
7, 119760, Note_on_c, 4, 58, 92
7, 119760, Note_on_c, 4, 70, 92
7, 119916, Note_off_c, 4, 70, 64
7, 119916, Note_off_c, 4, 58, 64
7, 120000, Note_on_c, 4, 58, 92
7, 120000, Note_on_c, 4, 70, 92
7, 120156, Note_off_c, 4, 70, 64
7, 120156, Note_off_c, 4, 58, 64
7, 120240, Note_on_c, 4, 70, 92
7, 120240, Note_on_c, 4, 58, 92
7, 120396, Note_off_c, 4, 58, 64
7, 120396, Note_off_c, 4, 70, 64
7, 120480, Note_on_c, 4, 63, 92
7, 120480, Note_on_c, 4, 67, 92
7, 120636, Note_off_c, 4, 67, 64
7, 120636, Note_off_c, 4, 63, 64
7, 120720, Note_on_c, 4, 67, 92
7, 120720, Note_on_c, 4, 63, 92
7, 120876, Note_off_c, 4, 63, 64
7, 120876, Note_off_c, 4, 67, 64
7, 120960, Note_on_c, 4, 67, 92
7, 120960, Note_on_c, 4, 63, 92
7, 121116, Note_off_c, 4, 63, 64
7, 121116, Note_off_c, 4, 67, 64
7, 121200, Note_on_c, 4, 63, 92
7, 121200, Note_on_c, 4, 67, 92
7, 121356, Note_off_c, 4, 67, 64
7, 121356, Note_off_c, 4, 63, 64
7, 121440, Note_on_c, 4, 63, 92
7, 121440, Note_on_c, 4, 67, 92
7, 121596, Note_off_c, 4, 67, 64
7, 121596, Note_off_c, 4, 63, 64
7, 126000, Note_on_c, 4, 70, 105
7, 126000, Note_on_c, 4, 58, 105
7, 126576, Note_off_c, 4, 58, 64
7, 126576, Note_off_c, 4, 70, 64
7, 126960, Note_on_c, 4, 70, 105
7, 126960, Note_on_c, 4, 58, 105
7, 127104, Note_off_c, 4, 58, 64
7, 127104, Note_off_c, 4, 70, 64
7, 127200, Note_on_c, 4, 58, 105
7, 127200, Note_on_c, 4, 70, 105
7, 127344, Note_off_c, 4, 70, 64
7, 127344, Note_off_c, 4, 58, 64
7, 127440, Note_on_c, 4, 70, 105
7, 127440, Note_on_c, 4, 58, 105
7, 128016, Note_off_c, 4, 58, 64
7, 128016, Note_off_c, 4, 70, 64
7, 128400, Note_on_c, 4, 70, 105
7, 128400, Note_on_c, 4, 58, 105
7, 128544, Note_off_c, 4, 58, 64
7, 128544, Note_off_c, 4, 70, 64
7, 128640, Note_on_c, 4, 58, 105
7, 128640, Note_on_c, 4, 70, 105
7, 128784, Note_off_c, 4, 70, 64
7, 128784, Note_off_c, 4, 58, 64
7, 128880, Note_on_c, 4, 63, 105
7, 128880, Note_on_c, 4, 67, 125
7, 129000, Note_off_c, 4, 67, 64
7, 129072, Note_off_c, 4, 63, 64
7, 129120, Note_on_c, 4, 63, 105
7, 129120, Note_on_c, 4, 67, 105
7, 129312, Note_off_c, 4, 63, 64
7, 129360, Note_off_c, 4, 67, 64
7, 129360, Note_on_c, 4, 70, 105
7, 129360, Note_on_c, 4, 67, 105
7, 129552, Note_off_c, 4, 67, 64
7, 129552, Note_off_c, 4, 70, 64
7, 129600, Note_on_c, 4, 67, 105
7, 129600, Note_on_c, 4, 63, 105
7, 129792, Note_off_c, 4, 63, 64
7, 129792, Note_off_c, 4, 67, 64
7, 129792, End_track
8, 0, Start_track
8, 0, Program_c, 5, 47
8, 0, Control_c, 5, 7, 99
8, 0, Control_c, 5, 91, 100
8, 0, Control_c, 5, 10, 76
8, 720, Note_on_c, 5, 51, 105
8, 912, Note_off_c, 5, 51, 64
8, 1440, Note_on_c, 5, 51, 105
8, 1632, Note_off_c, 5, 51, 64
8, 2160, Note_on_c, 5, 51, 105
8, 2352, Note_off_c, 5, 51, 64
8, 2400, Note_on_c, 5, 51, 105
8, 2592, Note_off_c, 5, 51, 64
8, 2640, Note_on_c, 5, 51, 105
8, 2832, Note_off_c, 5, 51, 64
8, 2880, Note_on_c, 5, 51, 105
8, 3072, Note_off_c, 5, 51, 64
8, 3600, Note_on_c, 5, 46, 105
8, 3792, Note_off_c, 5, 46, 64
8, 4320, Note_on_c, 5, 46, 105
8, 4512, Note_off_c, 5, 46, 64
8, 5040, Note_on_c, 5, 51, 105
8, 5232, Note_off_c, 5, 51, 64
8, 5280, Note_on_c, 5, 51, 105
8, 5472, Note_off_c, 5, 51, 64
8, 5520, Note_on_c, 5, 51, 105
8, 5712, Note_off_c, 5, 51, 64
8, 5760, Note_on_c, 5, 51, 105
8, 5952, Note_off_c, 5, 51, 64
8, 12240, Note_on_c, 5, 51, 105
8, 12432, Note_off_c, 5, 51, 64
8, 12960, Note_on_c, 5, 51, 105
8, 13152, Note_off_c, 5, 51, 64
8, 13680, Note_on_c, 5, 51, 105
8, 13872, Note_off_c, 5, 51, 64
8, 13920, Note_on_c, 5, 51, 105
8, 14112, Note_off_c, 5, 51, 64
8, 14160, Note_on_c, 5, 51, 105
8, 14352, Note_off_c, 5, 51, 64
8, 14400, Note_on_c, 5, 51, 105
8, 14592, Note_off_c, 5, 51, 64
8, 15120, Note_on_c, 5, 46, 105
8, 15312, Note_off_c, 5, 46, 64
8, 15840, Note_on_c, 5, 46, 105
8, 16032, Note_off_c, 5, 46, 64
8, 16560, Note_on_c, 5, 51, 105
8, 16752, Note_off_c, 5, 51, 64
8, 16800, Note_on_c, 5, 51, 105
8, 16992, Note_off_c, 5, 51, 64
8, 17040, Note_on_c, 5, 51, 105
8, 17232, Note_off_c, 5, 51, 64
8, 17280, Note_on_c, 5, 51, 105
8, 17472, Note_off_c, 5, 51, 64
8, 23760, Note_on_c, 5, 46, 105
8, 23952, Note_off_c, 5, 46, 64
8, 25200, Note_on_c, 5, 46, 105
8, 25392, Note_off_c, 5, 46, 64
8, 28080, Note_on_c, 5, 46, 105
8, 28272, Note_off_c, 5, 46, 64
8, 29520, Note_on_c, 5, 51, 105
8, 29712, Note_off_c, 5, 51, 64
8, 30240, Note_on_c, 5, 51, 105
8, 30432, Note_off_c, 5, 51, 64
8, 30480, Note_on_c, 5, 51, 105
8, 30672, Note_off_c, 5, 51, 64
8, 30720, Note_on_c, 5, 51, 105
8, 30912, Note_off_c, 5, 51, 64
8, 30960, Note_on_c, 5, 51, 105
8, 31152, Note_off_c, 5, 51, 64
8, 31200, Note_on_c, 5, 51, 105
8, 31392, Note_off_c, 5, 51, 64
8, 31440, Note_on_c, 5, 51, 105
8, 31632, Note_off_c, 5, 51, 64
8, 31680, Note_on_c, 5, 51, 105
8, 31872, Note_off_c, 5, 51, 64
8, 32400, Note_on_c, 5, 46, 105
8, 32592, Note_off_c, 5, 46, 64
8, 33120, Note_on_c, 5, 46, 105
8, 33312, Note_off_c, 5, 46, 64
8, 33360, Note_on_c, 5, 46, 105
8, 33552, Note_off_c, 5, 46, 64
8, 33600, Note_on_c, 5, 46, 105
8, 33792, Note_off_c, 5, 46, 64
8, 33840, Note_on_c, 5, 51, 105
8, 34032, Note_off_c, 5, 51, 64
8, 34080, Note_on_c, 5, 51, 105
8, 34272, Note_off_c, 5, 51, 64
8, 34320, Note_on_c, 5, 51, 105
8, 34512, Note_off_c, 5, 51, 64
8, 34560, Note_on_c, 5, 51, 105
8, 34752, Note_off_c, 5, 51, 64
8, 39600, Note_on_c, 5, 46, 105
8, 39792, Note_off_c, 5, 46, 64
8, 40560, Note_on_c, 5, 46, 105
8, 40752, Note_off_c, 5, 46, 64
8, 40800, Note_on_c, 5, 46, 105
8, 40992, Note_off_c, 5, 46, 64
8, 41040, Note_on_c, 5, 46, 105
8, 41232, Note_off_c, 5, 46, 64
8, 41280, Note_on_c, 5, 46, 105
8, 41472, Note_off_c, 5, 46, 64
8, 41520, Note_on_c, 5, 46, 105
8, 41712, Note_off_c, 5, 46, 64
8, 42000, Note_on_c, 5, 46, 105
8, 42192, Note_off_c, 5, 46, 64
8, 42240, Note_on_c, 5, 46, 105
8, 42432, Note_off_c, 5, 46, 64
8, 42480, Note_on_c, 5, 51, 105
8, 42672, Note_off_c, 5, 51, 64
8, 42720, Note_on_c, 5, 51, 105
8, 42912, Note_off_c, 5, 51, 64
8, 42960, Note_on_c, 5, 51, 105
8, 43152, Note_off_c, 5, 51, 64
8, 43200, Note_on_c, 5, 51, 105
8, 43392, Note_off_c, 5, 51, 64
8, 43920, Note_on_c, 5, 46, 105
8, 44112, Note_off_c, 5, 46, 64
8, 45360, Note_on_c, 5, 46, 105
8, 45552, Note_off_c, 5, 46, 64
8, 48240, Note_on_c, 5, 46, 105
8, 48432, Note_off_c, 5, 46, 64
8, 49680, Note_on_c, 5, 51, 105
8, 49872, Note_off_c, 5, 51, 64
8, 50400, Note_on_c, 5, 51, 105
8, 50592, Note_off_c, 5, 51, 64
8, 50640, Note_on_c, 5, 51, 105
8, 50832, Note_off_c, 5, 51, 64
8, 50880, Note_on_c, 5, 51, 105
8, 51072, Note_off_c, 5, 51, 64
8, 51120, Note_on_c, 5, 51, 105
8, 51312, Note_off_c, 5, 51, 64
8, 51360, Note_on_c, 5, 51, 105
8, 51552, Note_off_c, 5, 51, 64
8, 51600, Note_on_c, 5, 51, 105
8, 51792, Note_off_c, 5, 51, 64
8, 51840, Note_on_c, 5, 51, 105
8, 52032, Note_off_c, 5, 51, 64
8, 52560, Note_on_c, 5, 46, 105
8, 52752, Note_off_c, 5, 46, 64
8, 53280, Note_on_c, 5, 46, 105
8, 53472, Note_off_c, 5, 46, 64
8, 53520, Note_on_c, 5, 46, 105
8, 53712, Note_off_c, 5, 46, 64
8, 53760, Note_on_c, 5, 46, 105
8, 53952, Note_off_c, 5, 46, 64
8, 54000, Note_on_c, 5, 51, 105
8, 54192, Note_off_c, 5, 51, 64
8, 54240, Note_on_c, 5, 51, 105
8, 54432, Note_off_c, 5, 51, 64
8, 54480, Note_on_c, 5, 51, 105
8, 54672, Note_off_c, 5, 51, 64
8, 54720, Note_on_c, 5, 51, 105
8, 54912, Note_off_c, 5, 51, 64
8, 59760, Note_on_c, 5, 46, 105
8, 59952, Note_off_c, 5, 46, 64
8, 60720, Note_on_c, 5, 46, 105
8, 60912, Note_off_c, 5, 46, 64
8, 60960, Note_on_c, 5, 46, 105
8, 61152, Note_off_c, 5, 46, 64
8, 61200, Note_on_c, 5, 46, 105
8, 61392, Note_off_c, 5, 46, 64
8, 61440, Note_on_c, 5, 46, 105
8, 61632, Note_off_c, 5, 46, 64
8, 61680, Note_on_c, 5, 46, 105
8, 61872, Note_off_c, 5, 46, 64
8, 62160, Note_on_c, 5, 46, 105
8, 62352, Note_off_c, 5, 46, 64
8, 62400, Note_on_c, 5, 46, 105
8, 62592, Note_off_c, 5, 46, 64
8, 62640, Note_on_c, 5, 51, 105
8, 62832, Note_off_c, 5, 51, 64
8, 62880, Note_on_c, 5, 51, 105
8, 63072, Note_off_c, 5, 51, 64
8, 63120, Note_on_c, 5, 51, 105
8, 63312, Note_off_c, 5, 51, 64
8, 63360, Note_on_c, 5, 51, 105
8, 63552, Note_off_c, 5, 51, 64
8, 98640, Note_on_c, 5, 51, 105
8, 98832, Note_off_c, 5, 51, 64
8, 99360, Note_on_c, 5, 51, 105
8, 99552, Note_off_c, 5, 51, 64
8, 100080, Note_on_c, 5, 51, 105
8, 100272, Note_off_c, 5, 51, 64
8, 100320, Note_on_c, 5, 51, 105
8, 100512, Note_off_c, 5, 51, 64
8, 100560, Note_on_c, 5, 51, 105
8, 100752, Note_off_c, 5, 51, 64
8, 100800, Note_on_c, 5, 51, 105
8, 100992, Note_off_c, 5, 51, 64
8, 101520, Note_on_c, 5, 46, 105
8, 101712, Note_off_c, 5, 46, 64
8, 102240, Note_on_c, 5, 46, 105
8, 102432, Note_off_c, 5, 46, 64
8, 102960, Note_on_c, 5, 51, 105
8, 103152, Note_off_c, 5, 51, 64
8, 103200, Note_on_c, 5, 51, 105
8, 103392, Note_off_c, 5, 51, 64
8, 103440, Note_on_c, 5, 51, 105
8, 103632, Note_off_c, 5, 51, 64
8, 103680, Note_on_c, 5, 51, 105
8, 103872, Note_off_c, 5, 51, 64
8, 110160, Note_on_c, 5, 46, 105
8, 110352, Note_off_c, 5, 46, 64
8, 111600, Note_on_c, 5, 46, 105
8, 111792, Note_off_c, 5, 46, 64
8, 114480, Note_on_c, 5, 46, 105
8, 114672, Note_off_c, 5, 46, 64
8, 115920, Note_on_c, 5, 51, 105
8, 116112, Note_off_c, 5, 51, 64
8, 116640, Note_on_c, 5, 51, 105
8, 116832, Note_off_c, 5, 51, 64
8, 116880, Note_on_c, 5, 51, 105
8, 117072, Note_off_c, 5, 51, 64
8, 117120, Note_on_c, 5, 51, 105
8, 117312, Note_off_c, 5, 51, 64
8, 117360, Note_on_c, 5, 51, 105
8, 117552, Note_off_c, 5, 51, 64
8, 117600, Note_on_c, 5, 51, 105
8, 117792, Note_off_c, 5, 51, 64
8, 117840, Note_on_c, 5, 51, 105
8, 118032, Note_off_c, 5, 51, 64
8, 118080, Note_on_c, 5, 51, 105
8, 118272, Note_off_c, 5, 51, 64
8, 118800, Note_on_c, 5, 46, 105
8, 118992, Note_off_c, 5, 46, 64
8, 119520, Note_on_c, 5, 46, 105
8, 119712, Note_off_c, 5, 46, 64
8, 119760, Note_on_c, 5, 46, 105
8, 119952, Note_off_c, 5, 46, 64
8, 120000, Note_on_c, 5, 46, 105
8, 120192, Note_off_c, 5, 46, 64
8, 120240, Note_on_c, 5, 51, 105
8, 120432, Note_off_c, 5, 51, 64
8, 120480, Note_on_c, 5, 51, 105
8, 120672, Note_off_c, 5, 51, 64
8, 120720, Note_on_c, 5, 51, 105
8, 120912, Note_off_c, 5, 51, 64
8, 120960, Note_on_c, 5, 51, 105
8, 121152, Note_off_c, 5, 51, 64
8, 126000, Note_on_c, 5, 46, 105
8, 126192, Note_off_c, 5, 46, 64
8, 126960, Note_on_c, 5, 46, 105
8, 127152, Note_off_c, 5, 46, 64
8, 127200, Note_on_c, 5, 46, 105
8, 127392, Note_off_c, 5, 46, 64
8, 127440, Note_on_c, 5, 46, 105
8, 127632, Note_off_c, 5, 46, 64
8, 127680, Note_on_c, 5, 46, 105
8, 127872, Note_off_c, 5, 46, 64
8, 127920, Note_on_c, 5, 46, 105
8, 128112, Note_off_c, 5, 46, 64
8, 128400, Note_on_c, 5, 46, 105
8, 128592, Note_off_c, 5, 46, 64
8, 128640, Note_on_c, 5, 46, 105
8, 128832, Note_off_c, 5, 46, 64
8, 128880, Note_on_c, 5, 51, 105
8, 129072, Note_off_c, 5, 51, 64
8, 129120, Note_on_c, 5, 51, 105
8, 129312, Note_off_c, 5, 51, 64
8, 129360, Note_on_c, 5, 51, 105
8, 129552, Note_off_c, 5, 51, 64
8, 129600, Note_on_c, 5, 51, 105
8, 129792, Note_off_c, 5, 51, 64
8, 129792, End_track
9, 0, Start_track
9, 0, Program_c, 10, 48
9, 0, Control_c, 10, 7, 126
9, 0, Control_c, 10, 91, 80
9, 0, Control_c, 10, 10, 28
9, 720, Note_on_c, 10, 75, 105
9, 720, Note_on_c, 10, 55, 105
9, 720, Note_on_c, 10, 63, 105
9, 912, Note_off_c, 10, 63, 64
9, 912, Note_off_c, 10, 55, 64
9, 1344, Note_off_c, 10, 75, 64
9, 1440, Note_on_c, 10, 58, 105
9, 1518, Note_off_c, 10, 58, 64
9, 1560, Note_on_c, 10, 63, 105
9, 1638, Note_off_c, 10, 63, 64
9, 1680, Note_on_c, 10, 60, 105
9, 1758, Note_off_c, 10, 60, 64
9, 1800, Note_on_c, 10, 63, 105
9, 1878, Note_off_c, 10, 63, 64
9, 1920, Note_on_c, 10, 58, 105
9, 1998, Note_off_c, 10, 58, 64
9, 2040, Note_on_c, 10, 63, 105
9, 2118, Note_off_c, 10, 63, 64
9, 2160, Note_on_c, 10, 60, 105
9, 2238, Note_off_c, 10, 60, 64
9, 2280, Note_on_c, 10, 63, 105
9, 2358, Note_off_c, 10, 63, 64
9, 2400, Note_on_c, 10, 68, 105
9, 2478, Note_off_c, 10, 68, 64
9, 2520, Note_on_c, 10, 72, 105
9, 2598, Note_off_c, 10, 72, 64
9, 2640, Note_on_c, 10, 75, 105
9, 2718, Note_off_c, 10, 75, 64
9, 2760, Note_on_c, 10, 80, 105
9, 2838, Note_off_c, 10, 80, 64
9, 2880, Note_on_c, 10, 84, 105
9, 3072, Note_off_c, 10, 84, 64
9, 3600, Note_on_c, 10, 62, 105
9, 3600, Note_on_c, 10, 70, 105
9, 3600, Note_on_c, 10, 82, 105
9, 3792, Note_off_c, 10, 70, 64
9, 3792, Note_off_c, 10, 62, 64
9, 4224, Note_off_c, 10, 82, 64
9, 4320, Note_on_c, 10, 56, 105
9, 4398, Note_off_c, 10, 56, 64
9, 4440, Note_on_c, 10, 58, 105
9, 4518, Note_off_c, 10, 58, 64
9, 4560, Note_on_c, 10, 55, 105
9, 4638, Note_off_c, 10, 55, 64
9, 4680, Note_on_c, 10, 58, 105
9, 4758, Note_off_c, 10, 58, 64
9, 4800, Note_on_c, 10, 56, 105
9, 4878, Note_off_c, 10, 56, 64
9, 4920, Note_on_c, 10, 58, 105
9, 4998, Note_off_c, 10, 58, 64
9, 5040, Note_on_c, 10, 55, 105
9, 5136, Note_off_c, 10, 55, 64
9, 5160, Note_on_c, 10, 58, 105
9, 5256, Note_off_c, 10, 58, 64
9, 5280, Note_on_c, 10, 63, 105
9, 5376, Note_off_c, 10, 63, 64
9, 5400, Note_on_c, 10, 67, 105
9, 5496, Note_off_c, 10, 67, 64
9, 5520, Note_on_c, 10, 70, 105
9, 5616, Note_off_c, 10, 70, 64
9, 5640, Note_on_c, 10, 75, 105
9, 5736, Note_off_c, 10, 75, 64
9, 5760, Note_on_c, 10, 79, 105
9, 5952, Note_off_c, 10, 79, 64
9, 6240, Note_on_c, 10, 79, 70
9, 6432, Note_off_c, 10, 79, 64
9, 6480, Note_on_c, 10, 77, 90
9, 6720, Note_off_c, 10, 77, 64
9, 6720, Note_on_c, 10, 74, 70
9, 6960, Note_off_c, 10, 74, 64
9, 6960, Note_on_c, 10, 75, 70
9, 7152, Note_off_c, 10, 75, 64
9, 7200, Note_on_c, 10, 77, 90
9, 7440, Note_off_c, 10, 77, 64
9, 7440, Note_on_c, 10, 74, 70
9, 7680, Note_off_c, 10, 74, 64
9, 7680, Note_on_c, 10, 75, 70
9, 7872, Note_off_c, 10, 75, 64
9, 7920, Note_on_c, 10, 82, 70
9, 7980, Note_off_c, 10, 82, 64
9, 7980, Note_on_c, 10, 80, 70
9, 8088, Note_off_c, 10, 80, 64
9, 8160, Note_on_c, 10, 80, 70
9, 8304, Note_off_c, 10, 80, 64
9, 8400, Note_on_c, 10, 80, 70
9, 8544, Note_off_c, 10, 80, 64
9, 8640, Note_on_c, 10, 80, 70
9, 9120, Note_off_c, 10, 80, 64
9, 9120, Note_on_c, 10, 79, 70
9, 9312, Note_off_c, 10, 79, 64
9, 9360, Note_on_c, 10, 77, 70
9, 9516, Note_off_c, 10, 77, 64
9, 9600, Note_on_c, 10, 77, 70
9, 9756, Note_off_c, 10, 77, 64
9, 9840, Note_on_c, 10, 79, 70
9, 9960, Note_off_c, 10, 79, 64
9, 9960, Note_on_c, 10, 75, 70
9, 10056, Note_off_c, 10, 75, 64
9, 10080, Note_on_c, 10, 74, 70
9, 10236, Note_off_c, 10, 74, 64
9, 10320, Note_on_c, 10, 74, 70
9, 10476, Note_off_c, 10, 74, 64
9, 10560, Note_on_c, 10, 75, 70
9, 10680, Note_off_c, 10, 75, 64
9, 10680, Note_on_c, 10, 72, 70
9, 10776, Note_off_c, 10, 72, 64
9, 10800, Note_on_c, 10, 70, 70
9, 10920, Note_off_c, 10, 70, 64
9, 11040, Note_on_c, 10, 70, 70
9, 11280, Note_off_c, 10, 70, 64
9, 11280, Note_on_c, 10, 74, 70
9, 11472, Note_off_c, 10, 74, 64
9, 11520, Note_on_c, 10, 70, 70
9, 11712, Note_off_c, 10, 70, 64
9, 12240, Note_on_c, 10, 75, 105
9, 12240, Note_on_c, 10, 55, 105
9, 12240, Note_on_c, 10, 63, 105
9, 12432, Note_off_c, 10, 63, 64
9, 12432, Note_off_c, 10, 55, 64
9, 12864, Note_off_c, 10, 75, 64
9, 12960, Note_on_c, 10, 58, 105
9, 13038, Note_off_c, 10, 58, 64
9, 13080, Note_on_c, 10, 63, 105
9, 13158, Note_off_c, 10, 63, 64
9, 13200, Note_on_c, 10, 60, 105
9, 13278, Note_off_c, 10, 60, 64
9, 13320, Note_on_c, 10, 63, 105
9, 13398, Note_off_c, 10, 63, 64
9, 13440, Note_on_c, 10, 58, 105
9, 13518, Note_off_c, 10, 58, 64
9, 13560, Note_on_c, 10, 63, 105
9, 13638, Note_off_c, 10, 63, 64
9, 13680, Note_on_c, 10, 60, 105
9, 13758, Note_off_c, 10, 60, 64
9, 13800, Note_on_c, 10, 63, 105
9, 13878, Note_off_c, 10, 63, 64
9, 13920, Note_on_c, 10, 68, 105
9, 13998, Note_off_c, 10, 68, 64
9, 14040, Note_on_c, 10, 72, 105
9, 14118, Note_off_c, 10, 72, 64
9, 14160, Note_on_c, 10, 75, 105
9, 14238, Note_off_c, 10, 75, 64
9, 14280, Note_on_c, 10, 80, 105
9, 14358, Note_off_c, 10, 80, 64
9, 14400, Note_on_c, 10, 84, 105
9, 14592, Note_off_c, 10, 84, 64
9, 15120, Note_on_c, 10, 62, 105
9, 15120, Note_on_c, 10, 70, 105
9, 15120, Note_on_c, 10, 82, 105
9, 15312, Note_off_c, 10, 70, 64
9, 15312, Note_off_c, 10, 62, 64
9, 15744, Note_off_c, 10, 82, 64
9, 15840, Note_on_c, 10, 56, 105
9, 15918, Note_off_c, 10, 56, 64
9, 15960, Note_on_c, 10, 58, 105
9, 16038, Note_off_c, 10, 58, 64
9, 16080, Note_on_c, 10, 55, 105
9, 16158, Note_off_c, 10, 55, 64
9, 16200, Note_on_c, 10, 58, 105
9, 16278, Note_off_c, 10, 58, 64
9, 16320, Note_on_c, 10, 56, 105
9, 16398, Note_off_c, 10, 56, 64
9, 16440, Note_on_c, 10, 58, 105
9, 16518, Note_off_c, 10, 58, 64
9, 16560, Note_on_c, 10, 55, 105
9, 16656, Note_off_c, 10, 55, 64
9, 16680, Note_on_c, 10, 58, 105
9, 16776, Note_off_c, 10, 58, 64
9, 16800, Note_on_c, 10, 63, 105
9, 16896, Note_off_c, 10, 63, 64
9, 16920, Note_on_c, 10, 67, 105
9, 17016, Note_off_c, 10, 67, 64
9, 17040, Note_on_c, 10, 70, 105
9, 17136, Note_off_c, 10, 70, 64
9, 17160, Note_on_c, 10, 75, 105
9, 17256, Note_off_c, 10, 75, 64
9, 17280, Note_on_c, 10, 79, 105
9, 17472, Note_off_c, 10, 79, 64
9, 17760, Note_on_c, 10, 79, 70
9, 17952, Note_off_c, 10, 79, 64
9, 18000, Note_on_c, 10, 77, 90
9, 18240, Note_off_c, 10, 77, 64
9, 18240, Note_on_c, 10, 74, 70
9, 18480, Note_off_c, 10, 74, 64
9, 18480, Note_on_c, 10, 75, 70
9, 18672, Note_off_c, 10, 75, 64
9, 18720, Note_on_c, 10, 77, 90
9, 18960, Note_off_c, 10, 77, 64
9, 18960, Note_on_c, 10, 74, 70
9, 19200, Note_off_c, 10, 74, 64
9, 19200, Note_on_c, 10, 75, 70
9, 19392, Note_off_c, 10, 75, 64
9, 19440, Note_on_c, 10, 82, 70
9, 19500, Note_off_c, 10, 82, 64
9, 19500, Note_on_c, 10, 80, 70
9, 19608, Note_off_c, 10, 80, 64
9, 19680, Note_on_c, 10, 80, 70
9, 19824, Note_off_c, 10, 80, 64
9, 19920, Note_on_c, 10, 80, 70
9, 20064, Note_off_c, 10, 80, 64
9, 20160, Note_on_c, 10, 80, 70
9, 20640, Note_off_c, 10, 80, 64
9, 20640, Note_on_c, 10, 79, 70
9, 20832, Note_off_c, 10, 79, 64
9, 20880, Note_on_c, 10, 77, 70
9, 21036, Note_off_c, 10, 77, 64
9, 21120, Note_on_c, 10, 77, 70
9, 21276, Note_off_c, 10, 77, 64
9, 21360, Note_on_c, 10, 79, 70
9, 21480, Note_off_c, 10, 79, 64
9, 21480, Note_on_c, 10, 75, 70
9, 21576, Note_off_c, 10, 75, 64
9, 21600, Note_on_c, 10, 74, 70
9, 21756, Note_off_c, 10, 74, 64
9, 21840, Note_on_c, 10, 74, 70
9, 21996, Note_off_c, 10, 74, 64
9, 22080, Note_on_c, 10, 75, 70
9, 22200, Note_off_c, 10, 75, 64
9, 22200, Note_on_c, 10, 72, 70
9, 22296, Note_off_c, 10, 72, 64
9, 22320, Note_on_c, 10, 70, 70
9, 22440, Note_off_c, 10, 70, 64
9, 22560, Note_on_c, 10, 70, 70
9, 22800, Note_off_c, 10, 70, 64
9, 22800, Note_on_c, 10, 74, 70
9, 22992, Note_off_c, 10, 74, 64
9, 23040, Note_on_c, 10, 70, 70
9, 23232, Note_off_c, 10, 70, 64
9, 23760, Note_on_c, 10, 70, 105
9, 23760, Note_on_c, 10, 62, 105
9, 23760, Note_on_c, 10, 82, 105
9, 23952, Note_off_c, 10, 62, 64
9, 23952, Note_off_c, 10, 70, 64
9, 24192, Note_off_c, 10, 82, 64
9, 24240, Note_on_c, 10, 74, 105
9, 24318, Note_off_c, 10, 74, 64
9, 24360, Note_on_c, 10, 70, 105
9, 24438, Note_off_c, 10, 70, 64
9, 24480, Note_on_c, 10, 75, 105
9, 24558, Note_off_c, 10, 75, 64
9, 24600, Note_on_c, 10, 70, 105
9, 24678, Note_off_c, 10, 70, 64
9, 24720, Note_on_c, 10, 77, 105
9, 24798, Note_off_c, 10, 77, 64
9, 24840, Note_on_c, 10, 70, 105
9, 24918, Note_off_c, 10, 70, 64
9, 24960, Note_on_c, 10, 79, 105
9, 25038, Note_off_c, 10, 79, 64
9, 25080, Note_on_c, 10, 70, 105
9, 25158, Note_off_c, 10, 70, 64
9, 25200, Note_on_c, 10, 80, 105
9, 25584, Note_off_c, 10, 80, 64
9, 25680, Note_on_c, 10, 62, 105
9, 25758, Note_off_c, 10, 62, 64
9, 25800, Note_on_c, 10, 70, 105
9, 25878, Note_off_c, 10, 70, 64
9, 25920, Note_on_c, 10, 63, 105
9, 25998, Note_off_c, 10, 63, 64
9, 26040, Note_on_c, 10, 70, 105
9, 26118, Note_off_c, 10, 70, 64
9, 26160, Note_on_c, 10, 65, 105
9, 26238, Note_off_c, 10, 65, 64
9, 26280, Note_on_c, 10, 70, 105
9, 26358, Note_off_c, 10, 70, 64
9, 26400, Note_on_c, 10, 67, 105
9, 26478, Note_off_c, 10, 67, 64
9, 26520, Note_on_c, 10, 70, 105
9, 26598, Note_off_c, 10, 70, 64
9, 26640, Note_on_c, 10, 60, 105
9, 26760, Note_off_c, 10, 60, 64
9, 26760, Note_on_c, 10, 64, 105
9, 26838, Note_off_c, 10, 64, 64
9, 26880, Note_on_c, 10, 65, 105
9, 26958, Note_off_c, 10, 65, 64
9, 27000, Note_on_c, 10, 67, 105
9, 27078, Note_off_c, 10, 67, 64
9, 27120, Note_on_c, 10, 68, 105
9, 27198, Note_off_c, 10, 68, 64
9, 27240, Note_on_c, 10, 71, 105
9, 27318, Note_off_c, 10, 71, 64
9, 27360, Note_on_c, 10, 72, 105
9, 27480, Note_off_c, 10, 72, 64
9, 27480, Note_on_c, 10, 76, 105
9, 27558, Note_off_c, 10, 76, 64
9, 27600, Note_on_c, 10, 77, 105
9, 27678, Note_off_c, 10, 77, 64
9, 27720, Note_on_c, 10, 79, 105
9, 27798, Note_off_c, 10, 79, 64
9, 27840, Note_on_c, 10, 80, 105
9, 27918, Note_off_c, 10, 80, 64
9, 27960, Note_on_c, 10, 77, 105
9, 28038, Note_off_c, 10, 77, 64
9, 28080, Note_on_c, 10, 75, 105
9, 28200, Note_off_c, 10, 75, 64
9, 28200, Note_on_c, 10, 74, 105
9, 28296, Note_off_c, 10, 74, 64
9, 28320, Note_on_c, 10, 79, 105
9, 28440, Note_off_c, 10, 79, 64
9, 28440, Note_on_c, 10, 77, 105
9, 28536, Note_off_c, 10, 77, 64
9, 28560, Note_on_c, 10, 75, 105
9, 28680, Note_off_c, 10, 75, 64
9, 28680, Note_on_c, 10, 74, 105
9, 28776, Note_off_c, 10, 74, 64
9, 28800, Note_on_c, 10, 72, 105
9, 28920, Note_off_c, 10, 72, 64
9, 28920, Note_on_c, 10, 70, 105
9, 29040, Note_off_c, 10, 70, 64
9, 29040, Note_on_c, 10, 69, 105
9, 29160, Note_off_c, 10, 69, 64
9, 29160, Note_on_c, 10, 70, 105
9, 29280, Note_off_c, 10, 70, 64
9, 29280, Note_on_c, 10, 68, 105
9, 29400, Note_off_c, 10, 68, 64
9, 29400, Note_on_c, 10, 65, 105
9, 29496, Note_off_c, 10, 65, 64
9, 29520, Note_on_c, 10, 75, 105
9, 29520, Note_on_c, 10, 55, 105
9, 29520, Note_on_c, 10, 63, 105
9, 29712, Note_off_c, 10, 63, 64
9, 29712, Note_off_c, 10, 55, 64
9, 30144, Note_off_c, 10, 75, 64
9, 30240, Note_on_c, 10, 58, 105
9, 30318, Note_off_c, 10, 58, 64
9, 30360, Note_on_c, 10, 63, 105
9, 30438, Note_off_c, 10, 63, 64
9, 30480, Note_on_c, 10, 60, 105
9, 30558, Note_off_c, 10, 60, 64
9, 30600, Note_on_c, 10, 63, 105
9, 30678, Note_off_c, 10, 63, 64
9, 30720, Note_on_c, 10, 58, 105
9, 30798, Note_off_c, 10, 58, 64
9, 30840, Note_on_c, 10, 63, 105
9, 30918, Note_off_c, 10, 63, 64
9, 30960, Note_on_c, 10, 60, 105
9, 31038, Note_off_c, 10, 60, 64
9, 31080, Note_on_c, 10, 63, 105
9, 31158, Note_off_c, 10, 63, 64
9, 31200, Note_on_c, 10, 68, 105
9, 31278, Note_off_c, 10, 68, 64
9, 31320, Note_on_c, 10, 72, 105
9, 31398, Note_off_c, 10, 72, 64
9, 31440, Note_on_c, 10, 75, 105
9, 31518, Note_off_c, 10, 75, 64
9, 31560, Note_on_c, 10, 80, 105
9, 31638, Note_off_c, 10, 80, 64
9, 31680, Note_on_c, 10, 84, 105
9, 31872, Note_off_c, 10, 84, 64
9, 32400, Note_on_c, 10, 82, 105
9, 32400, Note_on_c, 10, 62, 105
9, 32400, Note_on_c, 10, 70, 105
9, 32592, Note_off_c, 10, 70, 64
9, 32592, Note_off_c, 10, 62, 64
9, 33024, Note_off_c, 10, 82, 64
9, 33120, Note_on_c, 10, 56, 105
9, 33198, Note_off_c, 10, 56, 64
9, 33240, Note_on_c, 10, 58, 105
9, 33318, Note_off_c, 10, 58, 64
9, 33360, Note_on_c, 10, 55, 105
9, 33438, Note_off_c, 10, 55, 64
9, 33480, Note_on_c, 10, 58, 105
9, 33558, Note_off_c, 10, 58, 64
9, 33600, Note_on_c, 10, 56, 105
9, 33678, Note_off_c, 10, 56, 64
9, 33720, Note_on_c, 10, 58, 105
9, 33798, Note_off_c, 10, 58, 64
9, 33840, Note_on_c, 10, 55, 105
9, 33918, Note_off_c, 10, 55, 64
9, 33960, Note_on_c, 10, 63, 105
9, 34038, Note_off_c, 10, 63, 64
9, 34080, Note_on_c, 10, 67, 105
9, 34158, Note_off_c, 10, 67, 64
9, 34200, Note_on_c, 10, 70, 105
9, 34278, Note_off_c, 10, 70, 64
9, 34320, Note_on_c, 10, 75, 105
9, 34398, Note_off_c, 10, 75, 64
9, 34440, Note_on_c, 10, 79, 105
9, 34518, Note_off_c, 10, 79, 64
9, 34560, Note_on_c, 10, 82, 105
9, 34752, Note_off_c, 10, 82, 64
9, 35040, Note_on_c, 10, 79, 70
9, 35232, Note_off_c, 10, 79, 64
9, 35280, Note_on_c, 10, 77, 90
9, 35520, Note_off_c, 10, 77, 64
9, 35520, Note_on_c, 10, 74, 70
9, 35760, Note_off_c, 10, 74, 64
9, 35760, Note_on_c, 10, 75, 70
9, 35952, Note_off_c, 10, 75, 64
9, 36000, Note_on_c, 10, 77, 90
9, 36240, Note_off_c, 10, 77, 64
9, 36240, Note_on_c, 10, 74, 70
9, 36480, Note_off_c, 10, 74, 64
9, 36480, Note_on_c, 10, 75, 70
9, 36672, Note_off_c, 10, 75, 64
9, 36720, Note_on_c, 10, 82, 70
9, 36780, Note_off_c, 10, 82, 64
9, 36780, Note_on_c, 10, 80, 70
9, 36888, Note_off_c, 10, 80, 64
9, 36960, Note_on_c, 10, 80, 70
9, 37104, Note_off_c, 10, 80, 64
9, 37200, Note_on_c, 10, 80, 70
9, 37344, Note_off_c, 10, 80, 64
9, 37440, Note_on_c, 10, 80, 70
9, 37920, Note_off_c, 10, 80, 64
9, 37920, Note_on_c, 10, 79, 70
9, 38112, Note_off_c, 10, 79, 64
9, 38160, Note_on_c, 10, 79, 70
9, 38220, Note_off_c, 10, 79, 64
9, 38220, Note_on_c, 10, 77, 70
9, 38328, Note_off_c, 10, 77, 64
9, 38400, Note_on_c, 10, 77, 70
9, 38544, Note_off_c, 10, 77, 64
9, 38640, Note_on_c, 10, 77, 70
9, 38784, Note_off_c, 10, 77, 64
9, 38880, Note_on_c, 10, 75, 70
9, 38940, Note_off_c, 10, 75, 64
9, 38940, Note_on_c, 10, 74, 70
9, 39048, Note_off_c, 10, 74, 64
9, 39120, Note_on_c, 10, 74, 70
9, 39264, Note_off_c, 10, 74, 64
9, 39360, Note_on_c, 10, 74, 70
9, 39504, Note_off_c, 10, 74, 64
9, 39600, Note_on_c, 10, 75, 116
9, 39720, Note_off_c, 10, 75, 64
9, 39720, Note_on_c, 10, 82, 116
9, 39816, Note_off_c, 10, 82, 64
9, 39840, Note_on_c, 10, 82, 116
9, 39960, Note_off_c, 10, 82, 64
9, 39960, Note_on_c, 10, 80, 116
9, 40056, Note_off_c, 10, 80, 64
9, 40080, Note_on_c, 10, 80, 116
9, 40200, Note_off_c, 10, 80, 64
9, 40200, Note_on_c, 10, 79, 116
9, 40296, Note_off_c, 10, 79, 64
9, 40320, Note_on_c, 10, 79, 116
9, 40440, Note_off_c, 10, 79, 64
9, 40440, Note_on_c, 10, 77, 116
9, 40536, Note_off_c, 10, 77, 64
9, 40560, Note_on_c, 10, 77, 116
9, 40680, Note_off_c, 10, 77, 64
9, 40680, Note_on_c, 10, 75, 116
9, 40776, Note_off_c, 10, 75, 64
9, 40800, Note_on_c, 10, 75, 116
9, 40920, Note_off_c, 10, 75, 64
9, 40920, Note_on_c, 10, 74, 116
9, 41016, Note_off_c, 10, 74, 64
9, 41040, Note_on_c, 10, 75, 116
9, 41160, Note_off_c, 10, 75, 64
9, 41160, Note_on_c, 10, 82, 116
9, 41256, Note_off_c, 10, 82, 64
9, 41280, Note_on_c, 10, 82, 116
9, 41400, Note_off_c, 10, 82, 64
9, 41400, Note_on_c, 10, 80, 116
9, 41496, Note_off_c, 10, 80, 64
9, 41520, Note_on_c, 10, 80, 116
9, 41640, Note_off_c, 10, 80, 64
9, 41640, Note_on_c, 10, 79, 116
9, 41736, Note_off_c, 10, 79, 64
9, 41760, Note_on_c, 10, 79, 116
9, 41880, Note_off_c, 10, 79, 64
9, 41880, Note_on_c, 10, 77, 116
9, 41976, Note_off_c, 10, 77, 64
9, 42000, Note_on_c, 10, 77, 116
9, 42120, Note_off_c, 10, 77, 64
9, 42120, Note_on_c, 10, 75, 116
9, 42216, Note_off_c, 10, 75, 64
9, 42240, Note_on_c, 10, 75, 116
9, 42360, Note_off_c, 10, 75, 64
9, 42360, Note_on_c, 10, 74, 116
9, 42456, Note_off_c, 10, 74, 64
9, 42480, Note_on_c, 10, 75, 127
9, 42600, Note_off_c, 10, 75, 64
9, 42720, Note_on_c, 10, 75, 116
9, 42960, Note_off_c, 10, 75, 64
9, 42960, Note_on_c, 10, 79, 116
9, 43152, Note_off_c, 10, 79, 64
9, 43200, Note_on_c, 10, 75, 116
9, 43392, Note_off_c, 10, 75, 64
9, 43920, Note_on_c, 10, 70, 105
9, 43920, Note_on_c, 10, 62, 105
9, 43920, Note_on_c, 10, 82, 105
9, 44112, Note_off_c, 10, 62, 64
9, 44112, Note_off_c, 10, 70, 64
9, 44352, Note_off_c, 10, 82, 64
9, 44400, Note_on_c, 10, 74, 105
9, 44478, Note_off_c, 10, 74, 64
9, 44520, Note_on_c, 10, 70, 105
9, 44598, Note_off_c, 10, 70, 64
9, 44640, Note_on_c, 10, 75, 105
9, 44718, Note_off_c, 10, 75, 64
9, 44760, Note_on_c, 10, 70, 105
9, 44838, Note_off_c, 10, 70, 64
9, 44880, Note_on_c, 10, 77, 105
9, 44958, Note_off_c, 10, 77, 64
9, 45000, Note_on_c, 10, 70, 105
9, 45078, Note_off_c, 10, 70, 64
9, 45120, Note_on_c, 10, 79, 105
9, 45198, Note_off_c, 10, 79, 64
9, 45240, Note_on_c, 10, 70, 105
9, 45318, Note_off_c, 10, 70, 64
9, 45360, Note_on_c, 10, 80, 105
9, 45744, Note_off_c, 10, 80, 64
9, 45840, Note_on_c, 10, 62, 105
9, 45918, Note_off_c, 10, 62, 64
9, 45960, Note_on_c, 10, 70, 105
9, 46038, Note_off_c, 10, 70, 64
9, 46080, Note_on_c, 10, 63, 105
9, 46158, Note_off_c, 10, 63, 64
9, 46200, Note_on_c, 10, 70, 105
9, 46278, Note_off_c, 10, 70, 64
9, 46320, Note_on_c, 10, 65, 105
9, 46398, Note_off_c, 10, 65, 64
9, 46440, Note_on_c, 10, 70, 105
9, 46518, Note_off_c, 10, 70, 64
9, 46560, Note_on_c, 10, 67, 105
9, 46638, Note_off_c, 10, 67, 64
9, 46680, Note_on_c, 10, 70, 105
9, 46758, Note_off_c, 10, 70, 64
9, 46800, Note_on_c, 10, 60, 105
9, 46920, Note_off_c, 10, 60, 64
9, 46920, Note_on_c, 10, 64, 105
9, 46998, Note_off_c, 10, 64, 64
9, 47040, Note_on_c, 10, 65, 105
9, 47118, Note_off_c, 10, 65, 64
9, 47160, Note_on_c, 10, 67, 105
9, 47238, Note_off_c, 10, 67, 64
9, 47280, Note_on_c, 10, 68, 105
9, 47358, Note_off_c, 10, 68, 64
9, 47400, Note_on_c, 10, 71, 105
9, 47478, Note_off_c, 10, 71, 64
9, 47520, Note_on_c, 10, 72, 105
9, 47640, Note_off_c, 10, 72, 64
9, 47640, Note_on_c, 10, 76, 105
9, 47718, Note_off_c, 10, 76, 64
9, 47760, Note_on_c, 10, 77, 105
9, 47838, Note_off_c, 10, 77, 64
9, 47880, Note_on_c, 10, 79, 105
9, 47958, Note_off_c, 10, 79, 64
9, 48000, Note_on_c, 10, 80, 105
9, 48078, Note_off_c, 10, 80, 64
9, 48120, Note_on_c, 10, 77, 105
9, 48198, Note_off_c, 10, 77, 64
9, 48240, Note_on_c, 10, 75, 105
9, 48360, Note_off_c, 10, 75, 64
9, 48360, Note_on_c, 10, 74, 105
9, 48456, Note_off_c, 10, 74, 64
9, 48480, Note_on_c, 10, 79, 105
9, 48600, Note_off_c, 10, 79, 64
9, 48600, Note_on_c, 10, 77, 105
9, 48696, Note_off_c, 10, 77, 64
9, 48720, Note_on_c, 10, 75, 105
9, 48840, Note_off_c, 10, 75, 64
9, 48840, Note_on_c, 10, 74, 105
9, 48936, Note_off_c, 10, 74, 64
9, 48960, Note_on_c, 10, 72, 105
9, 49080, Note_off_c, 10, 72, 64
9, 49080, Note_on_c, 10, 70, 105
9, 49200, Note_off_c, 10, 70, 64
9, 49200, Note_on_c, 10, 69, 105
9, 49320, Note_off_c, 10, 69, 64
9, 49320, Note_on_c, 10, 70, 105
9, 49440, Note_off_c, 10, 70, 64
9, 49440, Note_on_c, 10, 68, 105
9, 49560, Note_off_c, 10, 68, 64
9, 49560, Note_on_c, 10, 65, 105
9, 49656, Note_off_c, 10, 65, 64
9, 49680, Note_on_c, 10, 75, 105
9, 49680, Note_on_c, 10, 55, 105
9, 49680, Note_on_c, 10, 63, 105
9, 49872, Note_off_c, 10, 63, 64
9, 49872, Note_off_c, 10, 55, 64
9, 50304, Note_off_c, 10, 75, 64
9, 50400, Note_on_c, 10, 58, 105
9, 50478, Note_off_c, 10, 58, 64
9, 50520, Note_on_c, 10, 63, 105
9, 50598, Note_off_c, 10, 63, 64
9, 50640, Note_on_c, 10, 60, 105
9, 50718, Note_off_c, 10, 60, 64
9, 50760, Note_on_c, 10, 63, 105
9, 50838, Note_off_c, 10, 63, 64
9, 50880, Note_on_c, 10, 58, 105
9, 50958, Note_off_c, 10, 58, 64
9, 51000, Note_on_c, 10, 63, 105
9, 51078, Note_off_c, 10, 63, 64
9, 51120, Note_on_c, 10, 60, 105
9, 51198, Note_off_c, 10, 60, 64
9, 51240, Note_on_c, 10, 63, 105
9, 51318, Note_off_c, 10, 63, 64
9, 51360, Note_on_c, 10, 68, 105
9, 51438, Note_off_c, 10, 68, 64
9, 51480, Note_on_c, 10, 72, 105
9, 51558, Note_off_c, 10, 72, 64
9, 51600, Note_on_c, 10, 75, 105
9, 51678, Note_off_c, 10, 75, 64
9, 51720, Note_on_c, 10, 80, 105
9, 51798, Note_off_c, 10, 80, 64
9, 51840, Note_on_c, 10, 84, 105
9, 52032, Note_off_c, 10, 84, 64
9, 52560, Note_on_c, 10, 82, 105
9, 52560, Note_on_c, 10, 62, 105
9, 52560, Note_on_c, 10, 70, 105
9, 52752, Note_off_c, 10, 70, 64
9, 52752, Note_off_c, 10, 62, 64
9, 53184, Note_off_c, 10, 82, 64
9, 53280, Note_on_c, 10, 56, 105
9, 53358, Note_off_c, 10, 56, 64
9, 53400, Note_on_c, 10, 58, 105
9, 53478, Note_off_c, 10, 58, 64
9, 53520, Note_on_c, 10, 55, 105
9, 53598, Note_off_c, 10, 55, 64
9, 53640, Note_on_c, 10, 58, 105
9, 53718, Note_off_c, 10, 58, 64
9, 53760, Note_on_c, 10, 56, 105
9, 53838, Note_off_c, 10, 56, 64
9, 53880, Note_on_c, 10, 58, 105
9, 53958, Note_off_c, 10, 58, 64
9, 54000, Note_on_c, 10, 55, 105
9, 54078, Note_off_c, 10, 55, 64
9, 54120, Note_on_c, 10, 63, 105
9, 54198, Note_off_c, 10, 63, 64
9, 54240, Note_on_c, 10, 67, 105
9, 54318, Note_off_c, 10, 67, 64
9, 54360, Note_on_c, 10, 70, 105
9, 54438, Note_off_c, 10, 70, 64
9, 54480, Note_on_c, 10, 75, 105
9, 54558, Note_off_c, 10, 75, 64
9, 54600, Note_on_c, 10, 79, 105
9, 54678, Note_off_c, 10, 79, 64
9, 54720, Note_on_c, 10, 82, 105
9, 54912, Note_off_c, 10, 82, 64
9, 55200, Note_on_c, 10, 79, 70
9, 55392, Note_off_c, 10, 79, 64
9, 55440, Note_on_c, 10, 77, 90
9, 55680, Note_off_c, 10, 77, 64
9, 55680, Note_on_c, 10, 74, 70
9, 55920, Note_off_c, 10, 74, 64
9, 55920, Note_on_c, 10, 75, 70
9, 56112, Note_off_c, 10, 75, 64
9, 56160, Note_on_c, 10, 77, 90
9, 56400, Note_off_c, 10, 77, 64
9, 56400, Note_on_c, 10, 74, 70
9, 56640, Note_off_c, 10, 74, 64
9, 56640, Note_on_c, 10, 75, 70
9, 56832, Note_off_c, 10, 75, 64
9, 56880, Note_on_c, 10, 82, 70
9, 56940, Note_off_c, 10, 82, 64
9, 56940, Note_on_c, 10, 80, 70
9, 57048, Note_off_c, 10, 80, 64
9, 57120, Note_on_c, 10, 80, 70
9, 57264, Note_off_c, 10, 80, 64
9, 57360, Note_on_c, 10, 80, 70
9, 57504, Note_off_c, 10, 80, 64
9, 57600, Note_on_c, 10, 80, 70
9, 58080, Note_off_c, 10, 80, 64
9, 58080, Note_on_c, 10, 79, 70
9, 58272, Note_off_c, 10, 79, 64
9, 58320, Note_on_c, 10, 79, 70
9, 58380, Note_off_c, 10, 79, 64
9, 58380, Note_on_c, 10, 77, 70
9, 58488, Note_off_c, 10, 77, 64
9, 58560, Note_on_c, 10, 77, 70
9, 58704, Note_off_c, 10, 77, 64
9, 58800, Note_on_c, 10, 77, 70
9, 58944, Note_off_c, 10, 77, 64
9, 59040, Note_on_c, 10, 75, 70
9, 59100, Note_off_c, 10, 75, 64
9, 59100, Note_on_c, 10, 74, 70
9, 59208, Note_off_c, 10, 74, 64
9, 59280, Note_on_c, 10, 74, 70
9, 59424, Note_off_c, 10, 74, 64
9, 59520, Note_on_c, 10, 74, 70
9, 59664, Note_off_c, 10, 74, 64
9, 59760, Note_on_c, 10, 75, 116
9, 59880, Note_off_c, 10, 75, 64
9, 59880, Note_on_c, 10, 82, 116
9, 59976, Note_off_c, 10, 82, 64
9, 60000, Note_on_c, 10, 82, 116
9, 60120, Note_off_c, 10, 82, 64
9, 60120, Note_on_c, 10, 80, 116
9, 60216, Note_off_c, 10, 80, 64
9, 60240, Note_on_c, 10, 80, 116
9, 60360, Note_off_c, 10, 80, 64
9, 60360, Note_on_c, 10, 79, 116
9, 60456, Note_off_c, 10, 79, 64
9, 60480, Note_on_c, 10, 79, 116
9, 60600, Note_off_c, 10, 79, 64
9, 60600, Note_on_c, 10, 77, 116
9, 60696, Note_off_c, 10, 77, 64
9, 60720, Note_on_c, 10, 77, 116
9, 60840, Note_off_c, 10, 77, 64
9, 60840, Note_on_c, 10, 75, 116
9, 60936, Note_off_c, 10, 75, 64
9, 60960, Note_on_c, 10, 75, 116
9, 61080, Note_off_c, 10, 75, 64
9, 61080, Note_on_c, 10, 74, 116
9, 61176, Note_off_c, 10, 74, 64
9, 61200, Note_on_c, 10, 75, 116
9, 61320, Note_off_c, 10, 75, 64
9, 61320, Note_on_c, 10, 82, 116
9, 61416, Note_off_c, 10, 82, 64
9, 61440, Note_on_c, 10, 82, 116
9, 61560, Note_off_c, 10, 82, 64
9, 61560, Note_on_c, 10, 80, 116
9, 61656, Note_off_c, 10, 80, 64
9, 61680, Note_on_c, 10, 80, 116
9, 61800, Note_off_c, 10, 80, 64
9, 61800, Note_on_c, 10, 79, 116
9, 61896, Note_off_c, 10, 79, 64
9, 61920, Note_on_c, 10, 79, 116
9, 62040, Note_off_c, 10, 79, 64
9, 62040, Note_on_c, 10, 77, 116
9, 62136, Note_off_c, 10, 77, 64
9, 62160, Note_on_c, 10, 77, 116
9, 62280, Note_off_c, 10, 77, 64
9, 62280, Note_on_c, 10, 75, 116
9, 62376, Note_off_c, 10, 75, 64
9, 62400, Note_on_c, 10, 75, 116
9, 62520, Note_off_c, 10, 75, 64
9, 62520, Note_on_c, 10, 74, 116
9, 62616, Note_off_c, 10, 74, 64
9, 62640, Note_on_c, 10, 75, 127
9, 62760, Note_off_c, 10, 75, 64
9, 62880, Note_on_c, 10, 75, 116
9, 63120, Note_off_c, 10, 75, 64
9, 63120, Note_on_c, 10, 79, 116
9, 63312, Note_off_c, 10, 79, 64
9, 63360, Note_on_c, 10, 75, 116
9, 63552, Note_off_c, 10, 75, 64
9, 64320, Note_on_c, 10, 63, 58
9, 64512, Note_off_c, 10, 63, 64
9, 64560, Note_on_c, 10, 63, 58
9, 64752, Note_off_c, 10, 63, 64
9, 65040, Note_on_c, 10, 63, 58
9, 65232, Note_off_c, 10, 63, 64
9, 65280, Note_on_c, 10, 63, 58
9, 65472, Note_off_c, 10, 63, 64
9, 65760, Note_on_c, 10, 62, 58
9, 65952, Note_off_c, 10, 62, 64
9, 66000, Note_on_c, 10, 62, 58
9, 66192, Note_off_c, 10, 62, 64
9, 66240, Note_on_c, 10, 62, 58
9, 66432, Note_off_c, 10, 62, 64
9, 67200, Note_on_c, 10, 68, 58
9, 67392, Note_off_c, 10, 68, 64
9, 67440, Note_on_c, 10, 68, 58
9, 67632, Note_off_c, 10, 68, 64
9, 67920, Note_on_c, 10, 68, 58
9, 68112, Note_off_c, 10, 68, 64
9, 68160, Note_on_c, 10, 68, 58
9, 68352, Note_off_c, 10, 68, 64
9, 68400, Note_on_c, 10, 67, 58
9, 68880, Note_off_c, 10, 67, 64
9, 68880, Note_on_c, 10, 65, 58
9, 69072, Note_off_c, 10, 65, 64
9, 69120, Note_on_c, 10, 63, 58
9, 69312, Note_off_c, 10, 63, 64
9, 70080, Note_on_c, 10, 63, 58
9, 70272, Note_off_c, 10, 63, 64
9, 70320, Note_on_c, 10, 63, 58
9, 70512, Note_off_c, 10, 63, 64
9, 70800, Note_on_c, 10, 63, 58
9, 70992, Note_off_c, 10, 63, 64
9, 71040, Note_on_c, 10, 63, 58
9, 71232, Note_off_c, 10, 63, 64
9, 71520, Note_on_c, 10, 62, 58
9, 71712, Note_off_c, 10, 62, 64
9, 71760, Note_on_c, 10, 62, 58
9, 71952, Note_off_c, 10, 62, 64
9, 72000, Note_on_c, 10, 62, 58
9, 72192, Note_off_c, 10, 62, 64
9, 72960, Note_on_c, 10, 68, 58
9, 73152, Note_off_c, 10, 68, 64
9, 73200, Note_on_c, 10, 68, 58
9, 73392, Note_off_c, 10, 68, 64
9, 73680, Note_on_c, 10, 68, 58
9, 73872, Note_off_c, 10, 68, 64
9, 73920, Note_on_c, 10, 68, 58
9, 74112, Note_off_c, 10, 68, 64
9, 74160, Note_on_c, 10, 67, 58
9, 74640, Note_off_c, 10, 67, 64
9, 74640, Note_on_c, 10, 65, 58
9, 74832, Note_off_c, 10, 65, 64
9, 74880, Note_on_c, 10, 63, 58
9, 75072, Note_off_c, 10, 63, 64
9, 75600, Note_on_c, 10, 79, 80
9, 76056, Note_off_c, 10, 79, 64
9, 76080, Note_on_c, 10, 79, 80
9, 76308, Note_off_c, 10, 79, 64
9, 76320, Note_on_c, 10, 79, 80
9, 76560, Note_off_c, 10, 79, 64
9, 76560, Note_on_c, 10, 80, 80
9, 76800, Note_off_c, 10, 80, 64
9, 76800, Note_on_c, 10, 79, 80
9, 77268, Note_off_c, 10, 79, 64
9, 77280, Note_on_c, 10, 84, 80
9, 77496, Note_off_c, 10, 84, 64
9, 77520, Note_on_c, 10, 78, 80
9, 78000, Note_off_c, 10, 78, 64
9, 78000, Note_on_c, 10, 77, 80
9, 78216, Note_off_c, 10, 77, 64
9, 78240, Note_on_c, 10, 77, 80
9, 78600, Note_off_c, 10, 77, 64
9, 78600, Note_on_c, 10, 79, 80
9, 78720, Note_off_c, 10, 79, 64
9, 78720, Note_on_c, 10, 81, 80
9, 78840, Note_off_c, 10, 81, 64
9, 78840, Note_on_c, 10, 82, 80
9, 78960, Note_off_c, 10, 82, 64
9, 78960, Note_on_c, 10, 81, 80
9, 79080, Note_off_c, 10, 81, 64
9, 79080, Note_on_c, 10, 82, 80
9, 79176, Note_off_c, 10, 82, 64
9, 79200, Note_on_c, 10, 70, 80
9, 79680, Note_off_c, 10, 70, 64
9, 79680, Note_on_c, 10, 74, 80
9, 79800, Note_off_c, 10, 74, 64
9, 79800, Note_on_c, 10, 72, 80
9, 79920, Note_off_c, 10, 72, 64
9, 79920, Note_on_c, 10, 70, 70
9, 81552, Note_off_c, 10, 70, 64
9, 81600, Note_on_c, 10, 58, 58
9, 81600, Note_on_c, 10, 67, 58
9, 81792, Note_off_c, 10, 67, 64
9, 81792, Note_off_c, 10, 58, 64
9, 81840, Note_on_c, 10, 67, 58
9, 81840, Note_on_c, 10, 58, 58
9, 82032, Note_off_c, 10, 58, 64
9, 82032, Note_off_c, 10, 67, 64
9, 82320, Note_on_c, 10, 58, 58
9, 82320, Note_on_c, 10, 67, 58
9, 82512, Note_off_c, 10, 67, 64
9, 82512, Note_off_c, 10, 58, 64
9, 82560, Note_on_c, 10, 58, 58
9, 82560, Note_on_c, 10, 67, 58
9, 82752, Note_off_c, 10, 67, 64
9, 82752, Note_off_c, 10, 58, 64
9, 83040, Note_on_c, 10, 58, 58
9, 83040, Note_on_c, 10, 68, 58
9, 83232, Note_off_c, 10, 68, 64
9, 83232, Note_off_c, 10, 58, 64
9, 83280, Note_on_c, 10, 58, 58
9, 83280, Note_on_c, 10, 68, 58
9, 83472, Note_off_c, 10, 68, 64
9, 83472, Note_off_c, 10, 58, 64
9, 83520, Note_on_c, 10, 58, 58
9, 83520, Note_on_c, 10, 68, 58
9, 83712, Note_off_c, 10, 68, 64
9, 83712, Note_off_c, 10, 58, 64
9, 84480, Note_on_c, 10, 68, 58
9, 84480, Note_on_c, 10, 58, 58
9, 84672, Note_off_c, 10, 58, 64
9, 84672, Note_off_c, 10, 68, 64
9, 84720, Note_on_c, 10, 58, 58
9, 84720, Note_on_c, 10, 68, 58
9, 84912, Note_off_c, 10, 68, 64
9, 84912, Note_off_c, 10, 58, 64
9, 85200, Note_on_c, 10, 58, 58
9, 85200, Note_on_c, 10, 68, 58
9, 85392, Note_off_c, 10, 68, 64
9, 85392, Note_off_c, 10, 58, 64
9, 85440, Note_on_c, 10, 58, 58
9, 85440, Note_on_c, 10, 68, 58
9, 85632, Note_off_c, 10, 68, 64
9, 85632, Note_off_c, 10, 58, 64
9, 85680, Note_on_c, 10, 67, 58
9, 86160, Note_off_c, 10, 67, 64
9, 86160, Note_on_c, 10, 65, 58
9, 86352, Note_off_c, 10, 65, 64
9, 86400, Note_on_c, 10, 63, 58
9, 86592, Note_off_c, 10, 63, 64
9, 87120, Note_on_c, 10, 79, 80
9, 87576, Note_off_c, 10, 79, 64
9, 87600, Note_on_c, 10, 79, 80
9, 87828, Note_off_c, 10, 79, 64
9, 87840, Note_on_c, 10, 79, 80
9, 88080, Note_off_c, 10, 79, 64
9, 88080, Note_on_c, 10, 80, 80
9, 88320, Note_off_c, 10, 80, 64
9, 88320, Note_on_c, 10, 79, 80
9, 88788, Note_off_c, 10, 79, 64
9, 88800, Note_on_c, 10, 84, 80
9, 89016, Note_off_c, 10, 84, 64
9, 89040, Note_on_c, 10, 78, 80
9, 89520, Note_off_c, 10, 78, 64
9, 89520, Note_on_c, 10, 77, 80
9, 89736, Note_off_c, 10, 77, 64
9, 89760, Note_on_c, 10, 77, 80
9, 90120, Note_off_c, 10, 77, 64
9, 90120, Note_on_c, 10, 79, 80
9, 90240, Note_off_c, 10, 79, 64
9, 90240, Note_on_c, 10, 81, 80
9, 90360, Note_off_c, 10, 81, 64
9, 90360, Note_on_c, 10, 82, 80
9, 90480, Note_off_c, 10, 82, 64
9, 90480, Note_on_c, 10, 81, 80
9, 90600, Note_off_c, 10, 81, 64
9, 90600, Note_on_c, 10, 82, 80
9, 90696, Note_off_c, 10, 82, 64
9, 90720, Note_on_c, 10, 70, 80
9, 91200, Note_off_c, 10, 70, 64
9, 91200, Note_on_c, 10, 74, 80
9, 91320, Note_off_c, 10, 74, 64
9, 91320, Note_on_c, 10, 72, 80
9, 91440, Note_off_c, 10, 72, 64
9, 91440, Note_on_c, 10, 70, 70
9, 93072, Note_off_c, 10, 70, 64
9, 93120, Note_on_c, 10, 58, 58
9, 93120, Note_on_c, 10, 67, 58
9, 93312, Note_off_c, 10, 67, 64
9, 93312, Note_off_c, 10, 58, 64
9, 93360, Note_on_c, 10, 67, 58
9, 93360, Note_on_c, 10, 58, 58
9, 93552, Note_off_c, 10, 58, 64
9, 93552, Note_off_c, 10, 67, 64
9, 93840, Note_on_c, 10, 58, 58
9, 93840, Note_on_c, 10, 67, 58
9, 94032, Note_off_c, 10, 67, 64
9, 94032, Note_off_c, 10, 58, 64
9, 94080, Note_on_c, 10, 58, 58
9, 94080, Note_on_c, 10, 67, 58
9, 94272, Note_off_c, 10, 67, 64
9, 94272, Note_off_c, 10, 58, 64
9, 94560, Note_on_c, 10, 58, 58
9, 94560, Note_on_c, 10, 68, 58
9, 94752, Note_off_c, 10, 68, 64
9, 94752, Note_off_c, 10, 58, 64
9, 94800, Note_on_c, 10, 58, 58
9, 94800, Note_on_c, 10, 68, 58
9, 94992, Note_off_c, 10, 68, 64
9, 94992, Note_off_c, 10, 58, 64
9, 95040, Note_on_c, 10, 58, 58
9, 95040, Note_on_c, 10, 68, 58
9, 95232, Note_off_c, 10, 68, 64
9, 95232, Note_off_c, 10, 58, 64
9, 96000, Note_on_c, 10, 68, 58
9, 96000, Note_on_c, 10, 58, 58
9, 96192, Note_off_c, 10, 58, 64
9, 96192, Note_off_c, 10, 68, 64
9, 96240, Note_on_c, 10, 58, 58
9, 96240, Note_on_c, 10, 68, 58
9, 96432, Note_off_c, 10, 68, 64
9, 96432, Note_off_c, 10, 58, 64
9, 96720, Note_on_c, 10, 58, 58
9, 96720, Note_on_c, 10, 68, 58
9, 96912, Note_off_c, 10, 68, 64
9, 96912, Note_off_c, 10, 58, 64
9, 96960, Note_on_c, 10, 58, 58
9, 96960, Note_on_c, 10, 68, 58
9, 97152, Note_off_c, 10, 68, 64
9, 97152, Note_off_c, 10, 58, 64
9, 97200, Note_on_c, 10, 67, 58
9, 97680, Note_off_c, 10, 67, 64
9, 97680, Note_on_c, 10, 65, 58
9, 97872, Note_off_c, 10, 65, 64
9, 97920, Note_on_c, 10, 63, 58
9, 98112, Note_off_c, 10, 63, 64
9, 98640, Note_on_c, 10, 75, 105
9, 98640, Note_on_c, 10, 55, 105
9, 98640, Note_on_c, 10, 63, 105
9, 98832, Note_off_c, 10, 63, 64
9, 98832, Note_off_c, 10, 55, 64
9, 99264, Note_off_c, 10, 75, 64
9, 99360, Note_on_c, 10, 58, 105
9, 99438, Note_off_c, 10, 58, 64
9, 99480, Note_on_c, 10, 63, 105
9, 99558, Note_off_c, 10, 63, 64
9, 99600, Note_on_c, 10, 60, 105
9, 99678, Note_off_c, 10, 60, 64
9, 99720, Note_on_c, 10, 63, 105
9, 99798, Note_off_c, 10, 63, 64
9, 99840, Note_on_c, 10, 58, 105
9, 99918, Note_off_c, 10, 58, 64
9, 99960, Note_on_c, 10, 63, 105
9, 100038, Note_off_c, 10, 63, 64
9, 100080, Note_on_c, 10, 60, 105
9, 100158, Note_off_c, 10, 60, 64
9, 100200, Note_on_c, 10, 63, 105
9, 100278, Note_off_c, 10, 63, 64
9, 100320, Note_on_c, 10, 68, 105
9, 100398, Note_off_c, 10, 68, 64
9, 100440, Note_on_c, 10, 72, 105
9, 100518, Note_off_c, 10, 72, 64
9, 100560, Note_on_c, 10, 75, 105
9, 100638, Note_off_c, 10, 75, 64
9, 100680, Note_on_c, 10, 80, 105
9, 100758, Note_off_c, 10, 80, 64
9, 100800, Note_on_c, 10, 84, 105
9, 100992, Note_off_c, 10, 84, 64
9, 101520, Note_on_c, 10, 62, 105
9, 101520, Note_on_c, 10, 70, 105
9, 101520, Note_on_c, 10, 82, 105
9, 101712, Note_off_c, 10, 70, 64
9, 101712, Note_off_c, 10, 62, 64
9, 102144, Note_off_c, 10, 82, 64
9, 102240, Note_on_c, 10, 56, 105
9, 102318, Note_off_c, 10, 56, 64
9, 102360, Note_on_c, 10, 58, 105
9, 102438, Note_off_c, 10, 58, 64
9, 102480, Note_on_c, 10, 55, 105
9, 102558, Note_off_c, 10, 55, 64
9, 102600, Note_on_c, 10, 58, 105
9, 102678, Note_off_c, 10, 58, 64
9, 102720, Note_on_c, 10, 56, 105
9, 102798, Note_off_c, 10, 56, 64
9, 102840, Note_on_c, 10, 58, 105
9, 102918, Note_off_c, 10, 58, 64
9, 102960, Note_on_c, 10, 55, 105
9, 103056, Note_off_c, 10, 55, 64
9, 103080, Note_on_c, 10, 58, 105
9, 103176, Note_off_c, 10, 58, 64
9, 103200, Note_on_c, 10, 63, 105
9, 103296, Note_off_c, 10, 63, 64
9, 103320, Note_on_c, 10, 67, 105
9, 103416, Note_off_c, 10, 67, 64
9, 103440, Note_on_c, 10, 70, 105
9, 103536, Note_off_c, 10, 70, 64
9, 103560, Note_on_c, 10, 75, 105
9, 103656, Note_off_c, 10, 75, 64
9, 103680, Note_on_c, 10, 79, 105
9, 103872, Note_off_c, 10, 79, 64
9, 104160, Note_on_c, 10, 79, 70
9, 104352, Note_off_c, 10, 79, 64
9, 104400, Note_on_c, 10, 77, 90
9, 104640, Note_off_c, 10, 77, 64
9, 104640, Note_on_c, 10, 74, 70
9, 104880, Note_off_c, 10, 74, 64
9, 104880, Note_on_c, 10, 75, 70
9, 105072, Note_off_c, 10, 75, 64
9, 105120, Note_on_c, 10, 77, 90
9, 105360, Note_off_c, 10, 77, 64
9, 105360, Note_on_c, 10, 74, 70
9, 105600, Note_off_c, 10, 74, 64
9, 105600, Note_on_c, 10, 75, 70
9, 105792, Note_off_c, 10, 75, 64
9, 105840, Note_on_c, 10, 82, 70
9, 105900, Note_off_c, 10, 82, 64
9, 105900, Note_on_c, 10, 80, 70
9, 106008, Note_off_c, 10, 80, 64
9, 106080, Note_on_c, 10, 80, 70
9, 106224, Note_off_c, 10, 80, 64
9, 106320, Note_on_c, 10, 80, 70
9, 106464, Note_off_c, 10, 80, 64
9, 106560, Note_on_c, 10, 80, 70
9, 107040, Note_off_c, 10, 80, 64
9, 107040, Note_on_c, 10, 79, 70
9, 107232, Note_off_c, 10, 79, 64
9, 107280, Note_on_c, 10, 77, 70
9, 107436, Note_off_c, 10, 77, 64
9, 107520, Note_on_c, 10, 77, 70
9, 107676, Note_off_c, 10, 77, 64
9, 107760, Note_on_c, 10, 79, 70
9, 107880, Note_off_c, 10, 79, 64
9, 107880, Note_on_c, 10, 75, 70
9, 107976, Note_off_c, 10, 75, 64
9, 108000, Note_on_c, 10, 74, 70
9, 108156, Note_off_c, 10, 74, 64
9, 108240, Note_on_c, 10, 74, 70
9, 108396, Note_off_c, 10, 74, 64
9, 108480, Note_on_c, 10, 75, 70
9, 108600, Note_off_c, 10, 75, 64
9, 108600, Note_on_c, 10, 72, 70
9, 108696, Note_off_c, 10, 72, 64
9, 108720, Note_on_c, 10, 70, 70
9, 108840, Note_off_c, 10, 70, 64
9, 108960, Note_on_c, 10, 70, 70
9, 109200, Note_off_c, 10, 70, 64
9, 109200, Note_on_c, 10, 74, 70
9, 109392, Note_off_c, 10, 74, 64
9, 109440, Note_on_c, 10, 70, 70
9, 109632, Note_off_c, 10, 70, 64
9, 110160, Note_on_c, 10, 70, 105
9, 110160, Note_on_c, 10, 62, 105
9, 110160, Note_on_c, 10, 82, 105
9, 110352, Note_off_c, 10, 62, 64
9, 110352, Note_off_c, 10, 70, 64
9, 110592, Note_off_c, 10, 82, 64
9, 110640, Note_on_c, 10, 74, 105
9, 110718, Note_off_c, 10, 74, 64
9, 110760, Note_on_c, 10, 70, 105
9, 110838, Note_off_c, 10, 70, 64
9, 110880, Note_on_c, 10, 75, 105
9, 110958, Note_off_c, 10, 75, 64
9, 111000, Note_on_c, 10, 70, 105
9, 111078, Note_off_c, 10, 70, 64
9, 111120, Note_on_c, 10, 77, 105
9, 111198, Note_off_c, 10, 77, 64
9, 111240, Note_on_c, 10, 70, 105
9, 111318, Note_off_c, 10, 70, 64
9, 111360, Note_on_c, 10, 79, 105
9, 111438, Note_off_c, 10, 79, 64
9, 111480, Note_on_c, 10, 70, 105
9, 111558, Note_off_c, 10, 70, 64
9, 111600, Note_on_c, 10, 80, 105
9, 111984, Note_off_c, 10, 80, 64
9, 112080, Note_on_c, 10, 62, 105
9, 112158, Note_off_c, 10, 62, 64
9, 112200, Note_on_c, 10, 70, 105
9, 112278, Note_off_c, 10, 70, 64
9, 112320, Note_on_c, 10, 63, 105
9, 112398, Note_off_c, 10, 63, 64
9, 112440, Note_on_c, 10, 70, 105
9, 112518, Note_off_c, 10, 70, 64
9, 112560, Note_on_c, 10, 65, 105
9, 112638, Note_off_c, 10, 65, 64
9, 112680, Note_on_c, 10, 70, 105
9, 112758, Note_off_c, 10, 70, 64
9, 112800, Note_on_c, 10, 67, 105
9, 112878, Note_off_c, 10, 67, 64
9, 112920, Note_on_c, 10, 70, 105
9, 112998, Note_off_c, 10, 70, 64
9, 113040, Note_on_c, 10, 60, 105
9, 113160, Note_off_c, 10, 60, 64
9, 113160, Note_on_c, 10, 64, 105
9, 113238, Note_off_c, 10, 64, 64
9, 113280, Note_on_c, 10, 65, 105
9, 113358, Note_off_c, 10, 65, 64
9, 113400, Note_on_c, 10, 67, 105
9, 113478, Note_off_c, 10, 67, 64
9, 113520, Note_on_c, 10, 68, 105
9, 113598, Note_off_c, 10, 68, 64
9, 113640, Note_on_c, 10, 71, 105
9, 113718, Note_off_c, 10, 71, 64
9, 113760, Note_on_c, 10, 72, 105
9, 113880, Note_off_c, 10, 72, 64
9, 113880, Note_on_c, 10, 76, 105
9, 113958, Note_off_c, 10, 76, 64
9, 114000, Note_on_c, 10, 77, 105
9, 114078, Note_off_c, 10, 77, 64
9, 114120, Note_on_c, 10, 79, 105
9, 114198, Note_off_c, 10, 79, 64
9, 114240, Note_on_c, 10, 80, 105
9, 114318, Note_off_c, 10, 80, 64
9, 114360, Note_on_c, 10, 77, 105
9, 114438, Note_off_c, 10, 77, 64
9, 114480, Note_on_c, 10, 75, 105
9, 114600, Note_off_c, 10, 75, 64
9, 114600, Note_on_c, 10, 74, 105
9, 114696, Note_off_c, 10, 74, 64
9, 114720, Note_on_c, 10, 79, 105
9, 114840, Note_off_c, 10, 79, 64
9, 114840, Note_on_c, 10, 77, 105
9, 114936, Note_off_c, 10, 77, 64
9, 114960, Note_on_c, 10, 75, 105
9, 115080, Note_off_c, 10, 75, 64
9, 115080, Note_on_c, 10, 74, 105
9, 115176, Note_off_c, 10, 74, 64
9, 115200, Note_on_c, 10, 72, 105
9, 115320, Note_off_c, 10, 72, 64
9, 115320, Note_on_c, 10, 70, 105
9, 115440, Note_off_c, 10, 70, 64
9, 115440, Note_on_c, 10, 69, 105
9, 115560, Note_off_c, 10, 69, 64
9, 115560, Note_on_c, 10, 70, 105
9, 115680, Note_off_c, 10, 70, 64
9, 115680, Note_on_c, 10, 68, 105
9, 115800, Note_off_c, 10, 68, 64
9, 115800, Note_on_c, 10, 65, 105
9, 115896, Note_off_c, 10, 65, 64
9, 115920, Note_on_c, 10, 75, 105
9, 115920, Note_on_c, 10, 55, 105
9, 115920, Note_on_c, 10, 63, 105
9, 116112, Note_off_c, 10, 63, 64
9, 116112, Note_off_c, 10, 55, 64
9, 116544, Note_off_c, 10, 75, 64
9, 116640, Note_on_c, 10, 58, 105
9, 116718, Note_off_c, 10, 58, 64
9, 116760, Note_on_c, 10, 63, 105
9, 116838, Note_off_c, 10, 63, 64
9, 116880, Note_on_c, 10, 60, 105
9, 116958, Note_off_c, 10, 60, 64
9, 117000, Note_on_c, 10, 63, 105
9, 117078, Note_off_c, 10, 63, 64
9, 117120, Note_on_c, 10, 58, 105
9, 117198, Note_off_c, 10, 58, 64
9, 117240, Note_on_c, 10, 63, 105
9, 117318, Note_off_c, 10, 63, 64
9, 117360, Note_on_c, 10, 60, 105
9, 117438, Note_off_c, 10, 60, 64
9, 117480, Note_on_c, 10, 63, 105
9, 117558, Note_off_c, 10, 63, 64
9, 117600, Note_on_c, 10, 68, 105
9, 117678, Note_off_c, 10, 68, 64
9, 117720, Note_on_c, 10, 72, 105
9, 117798, Note_off_c, 10, 72, 64
9, 117840, Note_on_c, 10, 75, 105
9, 117918, Note_off_c, 10, 75, 64
9, 117960, Note_on_c, 10, 80, 105
9, 118038, Note_off_c, 10, 80, 64
9, 118080, Note_on_c, 10, 84, 105
9, 118272, Note_off_c, 10, 84, 64
9, 118800, Note_on_c, 10, 82, 105
9, 118800, Note_on_c, 10, 62, 105
9, 118800, Note_on_c, 10, 70, 105
9, 118992, Note_off_c, 10, 70, 64
9, 118992, Note_off_c, 10, 62, 64
9, 119424, Note_off_c, 10, 82, 64
9, 119520, Note_on_c, 10, 56, 105
9, 119598, Note_off_c, 10, 56, 64
9, 119640, Note_on_c, 10, 58, 105
9, 119718, Note_off_c, 10, 58, 64
9, 119760, Note_on_c, 10, 55, 105
9, 119838, Note_off_c, 10, 55, 64
9, 119880, Note_on_c, 10, 58, 105
9, 119958, Note_off_c, 10, 58, 64
9, 120000, Note_on_c, 10, 56, 105
9, 120078, Note_off_c, 10, 56, 64
9, 120120, Note_on_c, 10, 58, 105
9, 120198, Note_off_c, 10, 58, 64
9, 120240, Note_on_c, 10, 55, 105
9, 120318, Note_off_c, 10, 55, 64
9, 120360, Note_on_c, 10, 63, 105
9, 120438, Note_off_c, 10, 63, 64
9, 120480, Note_on_c, 10, 67, 105
9, 120558, Note_off_c, 10, 67, 64
9, 120600, Note_on_c, 10, 70, 105
9, 120678, Note_off_c, 10, 70, 64
9, 120720, Note_on_c, 10, 75, 105
9, 120798, Note_off_c, 10, 75, 64
9, 120840, Note_on_c, 10, 79, 105
9, 120918, Note_off_c, 10, 79, 64
9, 120960, Note_on_c, 10, 82, 105
9, 121152, Note_off_c, 10, 82, 64
9, 121440, Note_on_c, 10, 79, 70
9, 121632, Note_off_c, 10, 79, 64
9, 121680, Note_on_c, 10, 77, 90
9, 121920, Note_off_c, 10, 77, 64
9, 121920, Note_on_c, 10, 74, 70
9, 122160, Note_off_c, 10, 74, 64
9, 122160, Note_on_c, 10, 75, 70
9, 122352, Note_off_c, 10, 75, 64
9, 122400, Note_on_c, 10, 77, 90
9, 122640, Note_off_c, 10, 77, 64
9, 122640, Note_on_c, 10, 74, 70
9, 122880, Note_off_c, 10, 74, 64
9, 122880, Note_on_c, 10, 75, 70
9, 123072, Note_off_c, 10, 75, 64
9, 123120, Note_on_c, 10, 82, 70
9, 123180, Note_off_c, 10, 82, 64
9, 123180, Note_on_c, 10, 80, 70
9, 123288, Note_off_c, 10, 80, 64
9, 123360, Note_on_c, 10, 80, 70
9, 123504, Note_off_c, 10, 80, 64
9, 123600, Note_on_c, 10, 80, 70
9, 123744, Note_off_c, 10, 80, 64
9, 123840, Note_on_c, 10, 80, 70
9, 124320, Note_off_c, 10, 80, 64
9, 124320, Note_on_c, 10, 79, 70
9, 124512, Note_off_c, 10, 79, 64
9, 124560, Note_on_c, 10, 79, 70
9, 124620, Note_off_c, 10, 79, 64
9, 124620, Note_on_c, 10, 77, 70
9, 124728, Note_off_c, 10, 77, 64
9, 124800, Note_on_c, 10, 77, 70
9, 124944, Note_off_c, 10, 77, 64
9, 125040, Note_on_c, 10, 77, 70
9, 125184, Note_off_c, 10, 77, 64
9, 125280, Note_on_c, 10, 75, 70
9, 125340, Note_off_c, 10, 75, 64
9, 125340, Note_on_c, 10, 74, 70
9, 125448, Note_off_c, 10, 74, 64
9, 125520, Note_on_c, 10, 74, 70
9, 125664, Note_off_c, 10, 74, 64
9, 125760, Note_on_c, 10, 74, 70
9, 125904, Note_off_c, 10, 74, 64
9, 126000, Note_on_c, 10, 75, 116
9, 126120, Note_off_c, 10, 75, 64
9, 126120, Note_on_c, 10, 82, 116
9, 126216, Note_off_c, 10, 82, 64
9, 126240, Note_on_c, 10, 82, 116
9, 126360, Note_off_c, 10, 82, 64
9, 126360, Note_on_c, 10, 80, 116
9, 126456, Note_off_c, 10, 80, 64
9, 126480, Note_on_c, 10, 80, 116
9, 126600, Note_off_c, 10, 80, 64
9, 126600, Note_on_c, 10, 79, 116
9, 126696, Note_off_c, 10, 79, 64
9, 126720, Note_on_c, 10, 79, 116
9, 126840, Note_off_c, 10, 79, 64
9, 126840, Note_on_c, 10, 77, 116
9, 126936, Note_off_c, 10, 77, 64
9, 126960, Note_on_c, 10, 77, 116
9, 127080, Note_off_c, 10, 77, 64
9, 127080, Note_on_c, 10, 75, 116
9, 127176, Note_off_c, 10, 75, 64
9, 127200, Note_on_c, 10, 75, 116
9, 127320, Note_off_c, 10, 75, 64
9, 127320, Note_on_c, 10, 74, 116
9, 127416, Note_off_c, 10, 74, 64
9, 127440, Note_on_c, 10, 75, 116
9, 127560, Note_off_c, 10, 75, 64
9, 127560, Note_on_c, 10, 82, 116
9, 127656, Note_off_c, 10, 82, 64
9, 127680, Note_on_c, 10, 82, 116
9, 127800, Note_off_c, 10, 82, 64
9, 127800, Note_on_c, 10, 80, 116
9, 127896, Note_off_c, 10, 80, 64
9, 127920, Note_on_c, 10, 80, 116
9, 128040, Note_off_c, 10, 80, 64
9, 128040, Note_on_c, 10, 79, 116
9, 128136, Note_off_c, 10, 79, 64
9, 128160, Note_on_c, 10, 79, 116
9, 128280, Note_off_c, 10, 79, 64
9, 128280, Note_on_c, 10, 77, 116
9, 128376, Note_off_c, 10, 77, 64
9, 128400, Note_on_c, 10, 77, 116
9, 128520, Note_off_c, 10, 77, 64
9, 128520, Note_on_c, 10, 75, 116
9, 128616, Note_off_c, 10, 75, 64
9, 128640, Note_on_c, 10, 75, 116
9, 128760, Note_off_c, 10, 75, 64
9, 128760, Note_on_c, 10, 74, 116
9, 128856, Note_off_c, 10, 74, 64
9, 128880, Note_on_c, 10, 75, 127
9, 129000, Note_off_c, 10, 75, 64
9, 129120, Note_on_c, 10, 75, 116
9, 129360, Note_off_c, 10, 75, 64
9, 129360, Note_on_c, 10, 79, 116
9, 129552, Note_off_c, 10, 79, 64
9, 129600, Note_on_c, 10, 75, 116
9, 129792, Note_off_c, 10, 75, 64
9, 129792, End_track
10, 0, Start_track
10, 0, Program_c, 11, 48
10, 0, Control_c, 11, 7, 123
10, 0, Control_c, 11, 91, 85
10, 0, Control_c, 11, 10, 40
10, 720, Note_on_c, 11, 63, 80
10, 720, Note_on_c, 11, 75, 105
10, 720, Note_on_c, 11, 55, 105
10, 912, Note_off_c, 11, 55, 64
10, 912, Note_off_c, 11, 63, 64
10, 1344, Note_off_c, 11, 75, 64
10, 1440, Note_on_c, 11, 58, 105
10, 1518, Note_off_c, 11, 58, 64
10, 1560, Note_on_c, 11, 63, 105
10, 1638, Note_off_c, 11, 63, 64
10, 1680, Note_on_c, 11, 60, 105
10, 1758, Note_off_c, 11, 60, 64
10, 1800, Note_on_c, 11, 63, 105
10, 1878, Note_off_c, 11, 63, 64
10, 1920, Note_on_c, 11, 58, 105
10, 1998, Note_off_c, 11, 58, 64
10, 2040, Note_on_c, 11, 63, 105
10, 2118, Note_off_c, 11, 63, 64
10, 2160, Note_on_c, 11, 60, 105
10, 2238, Note_off_c, 11, 60, 64
10, 2280, Note_on_c, 11, 63, 105
10, 2358, Note_off_c, 11, 63, 64
10, 2400, Note_on_c, 11, 68, 105
10, 2478, Note_off_c, 11, 68, 64
10, 2520, Note_on_c, 11, 72, 105
10, 2598, Note_off_c, 11, 72, 64
10, 2640, Note_on_c, 11, 75, 105
10, 2718, Note_off_c, 11, 75, 64
10, 2760, Note_on_c, 11, 80, 105
10, 2838, Note_off_c, 11, 80, 64
10, 2880, Note_on_c, 11, 84, 105
10, 3072, Note_off_c, 11, 84, 64
10, 3600, Note_on_c, 11, 82, 105
10, 3600, Note_on_c, 11, 62, 105
10, 3600, Note_on_c, 11, 70, 105
10, 3792, Note_off_c, 11, 70, 64
10, 3792, Note_off_c, 11, 62, 64
10, 4224, Note_off_c, 11, 82, 64
10, 4320, Note_on_c, 11, 56, 105
10, 4398, Note_off_c, 11, 56, 64
10, 4440, Note_on_c, 11, 58, 105
10, 4518, Note_off_c, 11, 58, 64
10, 4560, Note_on_c, 11, 55, 105
10, 4638, Note_off_c, 11, 55, 64
10, 4680, Note_on_c, 11, 58, 105
10, 4758, Note_off_c, 11, 58, 64
10, 4800, Note_on_c, 11, 56, 105
10, 4878, Note_off_c, 11, 56, 64
10, 4920, Note_on_c, 11, 58, 105
10, 4998, Note_off_c, 11, 58, 64
10, 5040, Note_on_c, 11, 55, 105
10, 5136, Note_off_c, 11, 55, 64
10, 5160, Note_on_c, 11, 58, 105
10, 5256, Note_off_c, 11, 58, 64
10, 5280, Note_on_c, 11, 63, 105
10, 5376, Note_off_c, 11, 63, 64
10, 5400, Note_on_c, 11, 67, 105
10, 5496, Note_off_c, 11, 67, 64
10, 5520, Note_on_c, 11, 70, 105
10, 5616, Note_off_c, 11, 70, 64
10, 5640, Note_on_c, 11, 75, 105
10, 5736, Note_off_c, 11, 75, 64
10, 5760, Note_on_c, 11, 79, 105
10, 5952, Note_off_c, 11, 79, 64
10, 6480, Note_on_c, 11, 62, 78
10, 6600, Note_off_c, 11, 62, 64
10, 6600, Note_on_c, 11, 65, 58
10, 6720, Note_off_c, 11, 65, 64
10, 6720, Note_on_c, 11, 70, 58
10, 6840, Note_off_c, 11, 70, 64
10, 6840, Note_on_c, 11, 65, 58
10, 6960, Note_off_c, 11, 65, 64
10, 6960, Note_on_c, 11, 70, 58
10, 7080, Note_off_c, 11, 70, 64
10, 7080, Note_on_c, 11, 67, 58
10, 7176, Note_off_c, 11, 67, 64
10, 7200, Note_on_c, 11, 62, 78
10, 7320, Note_off_c, 11, 62, 64
10, 7320, Note_on_c, 11, 65, 58
10, 7440, Note_off_c, 11, 65, 64
10, 7440, Note_on_c, 11, 70, 58
10, 7560, Note_off_c, 11, 70, 64
10, 7560, Note_on_c, 11, 65, 58
10, 7680, Note_off_c, 11, 65, 64
10, 7680, Note_on_c, 11, 70, 58
10, 7800, Note_off_c, 11, 70, 64
10, 7800, Note_on_c, 11, 67, 58
10, 7896, Note_off_c, 11, 67, 64
10, 7920, Note_on_c, 11, 60, 58
10, 8040, Note_off_c, 11, 60, 64
10, 8040, Note_on_c, 11, 65, 58
10, 8160, Note_off_c, 11, 65, 64
10, 8160, Note_on_c, 11, 68, 58
10, 8280, Note_off_c, 11, 68, 64
10, 8280, Note_on_c, 11, 65, 58
10, 8400, Note_off_c, 11, 65, 64
10, 8400, Note_on_c, 11, 68, 58
10, 8520, Note_off_c, 11, 68, 64
10, 8520, Note_on_c, 11, 65, 58
10, 8616, Note_off_c, 11, 65, 64
10, 8640, Note_on_c, 11, 58, 58
10, 8760, Note_off_c, 11, 58, 64
10, 8760, Note_on_c, 11, 65, 58
10, 8880, Note_off_c, 11, 65, 64
10, 8880, Note_on_c, 11, 68, 58
10, 9000, Note_off_c, 11, 68, 64
10, 9000, Note_on_c, 11, 65, 58
10, 9120, Note_off_c, 11, 65, 64
10, 9120, Note_on_c, 11, 67, 58
10, 9240, Note_off_c, 11, 67, 64
10, 9240, Note_on_c, 11, 63, 58
10, 9336, Note_off_c, 11, 63, 64
10, 9360, Note_on_c, 11, 70, 58
10, 9552, Note_off_c, 11, 70, 64
10, 9840, Note_on_c, 11, 75, 58
10, 9960, Note_off_c, 11, 75, 64
10, 9960, Note_on_c, 11, 72, 58
10, 10056, Note_off_c, 11, 72, 64
10, 10080, Note_on_c, 11, 70, 58
10, 10272, Note_off_c, 11, 70, 64
10, 10320, Note_on_c, 11, 70, 58
10, 10512, Note_off_c, 11, 70, 64
10, 10560, Note_on_c, 11, 72, 58
10, 10680, Note_off_c, 11, 72, 64
10, 10680, Note_on_c, 11, 63, 58
10, 10776, Note_off_c, 11, 63, 64
10, 10800, Note_on_c, 11, 62, 58
10, 10920, Note_off_c, 11, 62, 64
10, 11040, Note_on_c, 11, 62, 58
10, 11280, Note_off_c, 11, 62, 64
10, 11280, Note_on_c, 11, 65, 58
10, 11472, Note_off_c, 11, 65, 64
10, 11520, Note_on_c, 11, 62, 58
10, 11712, Note_off_c, 11, 62, 64
10, 12240, Note_on_c, 11, 63, 58
10, 12240, Note_on_c, 11, 75, 105
10, 12240, Note_on_c, 11, 55, 105
10, 12432, Note_off_c, 11, 55, 64
10, 12432, Note_off_c, 11, 63, 64
10, 12864, Note_off_c, 11, 75, 64
10, 12960, Note_on_c, 11, 58, 105
10, 13038, Note_off_c, 11, 58, 64
10, 13080, Note_on_c, 11, 63, 105
10, 13158, Note_off_c, 11, 63, 64
10, 13200, Note_on_c, 11, 60, 105
10, 13278, Note_off_c, 11, 60, 64
10, 13320, Note_on_c, 11, 63, 105
10, 13398, Note_off_c, 11, 63, 64
10, 13440, Note_on_c, 11, 58, 105
10, 13518, Note_off_c, 11, 58, 64
10, 13560, Note_on_c, 11, 63, 105
10, 13638, Note_off_c, 11, 63, 64
10, 13680, Note_on_c, 11, 60, 105
10, 13758, Note_off_c, 11, 60, 64
10, 13800, Note_on_c, 11, 63, 105
10, 13878, Note_off_c, 11, 63, 64
10, 13920, Note_on_c, 11, 68, 105
10, 13998, Note_off_c, 11, 68, 64
10, 14040, Note_on_c, 11, 72, 105
10, 14118, Note_off_c, 11, 72, 64
10, 14160, Note_on_c, 11, 75, 105
10, 14238, Note_off_c, 11, 75, 64
10, 14280, Note_on_c, 11, 80, 105
10, 14358, Note_off_c, 11, 80, 64
10, 14400, Note_on_c, 11, 84, 105
10, 14592, Note_off_c, 11, 84, 64
10, 15120, Note_on_c, 11, 82, 105
10, 15120, Note_on_c, 11, 62, 105
10, 15120, Note_on_c, 11, 70, 105
10, 15312, Note_off_c, 11, 70, 64
10, 15312, Note_off_c, 11, 62, 64
10, 15744, Note_off_c, 11, 82, 64
10, 15840, Note_on_c, 11, 56, 105
10, 15918, Note_off_c, 11, 56, 64
10, 15960, Note_on_c, 11, 58, 105
10, 16038, Note_off_c, 11, 58, 64
10, 16080, Note_on_c, 11, 55, 105
10, 16158, Note_off_c, 11, 55, 64
10, 16200, Note_on_c, 11, 58, 105
10, 16278, Note_off_c, 11, 58, 64
10, 16320, Note_on_c, 11, 56, 105
10, 16398, Note_off_c, 11, 56, 64
10, 16440, Note_on_c, 11, 58, 105
10, 16518, Note_off_c, 11, 58, 64
10, 16560, Note_on_c, 11, 55, 105
10, 16656, Note_off_c, 11, 55, 64
10, 16680, Note_on_c, 11, 58, 105
10, 16776, Note_off_c, 11, 58, 64
10, 16800, Note_on_c, 11, 63, 105
10, 16896, Note_off_c, 11, 63, 64
10, 16920, Note_on_c, 11, 67, 105
10, 17016, Note_off_c, 11, 67, 64
10, 17040, Note_on_c, 11, 70, 105
10, 17136, Note_off_c, 11, 70, 64
10, 17160, Note_on_c, 11, 75, 105
10, 17256, Note_off_c, 11, 75, 64
10, 17280, Note_on_c, 11, 79, 105
10, 17472, Note_off_c, 11, 79, 64
10, 18000, Note_on_c, 11, 62, 78
10, 18120, Note_off_c, 11, 62, 64
10, 18120, Note_on_c, 11, 65, 58
10, 18240, Note_off_c, 11, 65, 64
10, 18240, Note_on_c, 11, 70, 58
10, 18360, Note_off_c, 11, 70, 64
10, 18360, Note_on_c, 11, 65, 58
10, 18480, Note_off_c, 11, 65, 64
10, 18480, Note_on_c, 11, 70, 58
10, 18600, Note_off_c, 11, 70, 64
10, 18600, Note_on_c, 11, 67, 58
10, 18696, Note_off_c, 11, 67, 64
10, 18720, Note_on_c, 11, 62, 78
10, 18840, Note_off_c, 11, 62, 64
10, 18840, Note_on_c, 11, 65, 58
10, 18960, Note_off_c, 11, 65, 64
10, 18960, Note_on_c, 11, 70, 58
10, 19080, Note_off_c, 11, 70, 64
10, 19080, Note_on_c, 11, 65, 58
10, 19200, Note_off_c, 11, 65, 64
10, 19200, Note_on_c, 11, 70, 58
10, 19320, Note_off_c, 11, 70, 64
10, 19320, Note_on_c, 11, 67, 58
10, 19416, Note_off_c, 11, 67, 64
10, 19440, Note_on_c, 11, 60, 58
10, 19560, Note_off_c, 11, 60, 64
10, 19560, Note_on_c, 11, 65, 58
10, 19680, Note_off_c, 11, 65, 64
10, 19680, Note_on_c, 11, 68, 58
10, 19800, Note_off_c, 11, 68, 64
10, 19800, Note_on_c, 11, 65, 58
10, 19920, Note_off_c, 11, 65, 64
10, 19920, Note_on_c, 11, 68, 58
10, 20040, Note_off_c, 11, 68, 64
10, 20040, Note_on_c, 11, 65, 58
10, 20136, Note_off_c, 11, 65, 64
10, 20160, Note_on_c, 11, 58, 58
10, 20280, Note_off_c, 11, 58, 64
10, 20280, Note_on_c, 11, 65, 58
10, 20400, Note_off_c, 11, 65, 64
10, 20400, Note_on_c, 11, 68, 58
10, 20520, Note_off_c, 11, 68, 64
10, 20520, Note_on_c, 11, 65, 58
10, 20640, Note_off_c, 11, 65, 64
10, 20640, Note_on_c, 11, 67, 58
10, 20760, Note_off_c, 11, 67, 64
10, 20760, Note_on_c, 11, 63, 58
10, 20856, Note_off_c, 11, 63, 64
10, 20880, Note_on_c, 11, 70, 58
10, 21072, Note_off_c, 11, 70, 64
10, 21360, Note_on_c, 11, 75, 58
10, 21480, Note_off_c, 11, 75, 64
10, 21480, Note_on_c, 11, 72, 58
10, 21576, Note_off_c, 11, 72, 64
10, 21600, Note_on_c, 11, 70, 58
10, 21792, Note_off_c, 11, 70, 64
10, 21840, Note_on_c, 11, 70, 58
10, 22032, Note_off_c, 11, 70, 64
10, 22080, Note_on_c, 11, 72, 58
10, 22200, Note_off_c, 11, 72, 64
10, 22200, Note_on_c, 11, 63, 58
10, 22296, Note_off_c, 11, 63, 64
10, 22320, Note_on_c, 11, 62, 58
10, 22440, Note_off_c, 11, 62, 64
10, 22560, Note_on_c, 11, 62, 58
10, 22800, Note_off_c, 11, 62, 64
10, 22800, Note_on_c, 11, 65, 58
10, 22992, Note_off_c, 11, 65, 64
10, 23040, Note_on_c, 11, 62, 58
10, 23232, Note_off_c, 11, 62, 64
10, 23760, Note_on_c, 11, 82, 105
10, 23760, Note_on_c, 11, 70, 105
10, 23760, Note_on_c, 11, 62, 105
10, 23952, Note_off_c, 11, 62, 64
10, 23952, Note_off_c, 11, 70, 64
10, 24192, Note_off_c, 11, 82, 64
10, 24240, Note_on_c, 11, 74, 105
10, 24318, Note_off_c, 11, 74, 64
10, 24360, Note_on_c, 11, 70, 105
10, 24438, Note_off_c, 11, 70, 64
10, 24480, Note_on_c, 11, 75, 105
10, 24558, Note_off_c, 11, 75, 64
10, 24600, Note_on_c, 11, 70, 105
10, 24678, Note_off_c, 11, 70, 64
10, 24720, Note_on_c, 11, 77, 105
10, 24798, Note_off_c, 11, 77, 64
10, 24840, Note_on_c, 11, 70, 105
10, 24918, Note_off_c, 11, 70, 64
10, 24960, Note_on_c, 11, 79, 105
10, 25038, Note_off_c, 11, 79, 64
10, 25080, Note_on_c, 11, 70, 105
10, 25158, Note_off_c, 11, 70, 64
10, 25200, Note_on_c, 11, 80, 105
10, 25584, Note_off_c, 11, 80, 64
10, 25680, Note_on_c, 11, 62, 105
10, 25758, Note_off_c, 11, 62, 64
10, 25800, Note_on_c, 11, 70, 105
10, 25878, Note_off_c, 11, 70, 64
10, 25920, Note_on_c, 11, 63, 105
10, 25998, Note_off_c, 11, 63, 64
10, 26040, Note_on_c, 11, 70, 105
10, 26118, Note_off_c, 11, 70, 64
10, 26160, Note_on_c, 11, 65, 105
10, 26238, Note_off_c, 11, 65, 64
10, 26280, Note_on_c, 11, 70, 105
10, 26358, Note_off_c, 11, 70, 64
10, 26400, Note_on_c, 11, 67, 105
10, 26478, Note_off_c, 11, 67, 64
10, 26520, Note_on_c, 11, 70, 105
10, 26598, Note_off_c, 11, 70, 64
10, 26640, Note_on_c, 11, 60, 105
10, 26760, Note_off_c, 11, 60, 64
10, 26760, Note_on_c, 11, 64, 105
10, 26838, Note_off_c, 11, 64, 64
10, 26880, Note_on_c, 11, 65, 105
10, 26958, Note_off_c, 11, 65, 64
10, 27000, Note_on_c, 11, 67, 105
10, 27078, Note_off_c, 11, 67, 64
10, 27120, Note_on_c, 11, 68, 105
10, 27198, Note_off_c, 11, 68, 64
10, 27240, Note_on_c, 11, 71, 105
10, 27318, Note_off_c, 11, 71, 64
10, 27360, Note_on_c, 11, 72, 105
10, 27480, Note_off_c, 11, 72, 64
10, 27480, Note_on_c, 11, 76, 105
10, 27558, Note_off_c, 11, 76, 64
10, 27600, Note_on_c, 11, 77, 105
10, 27678, Note_off_c, 11, 77, 64
10, 27720, Note_on_c, 11, 79, 105
10, 27798, Note_off_c, 11, 79, 64
10, 27840, Note_on_c, 11, 80, 105
10, 27918, Note_off_c, 11, 80, 64
10, 27960, Note_on_c, 11, 77, 105
10, 28038, Note_off_c, 11, 77, 64
10, 28080, Note_on_c, 11, 75, 105
10, 28200, Note_off_c, 11, 75, 64
10, 28200, Note_on_c, 11, 74, 105
10, 28296, Note_off_c, 11, 74, 64
10, 28320, Note_on_c, 11, 79, 105
10, 28440, Note_off_c, 11, 79, 64
10, 28440, Note_on_c, 11, 77, 105
10, 28536, Note_off_c, 11, 77, 64
10, 28560, Note_on_c, 11, 75, 105
10, 28680, Note_off_c, 11, 75, 64
10, 28680, Note_on_c, 11, 74, 105
10, 28776, Note_off_c, 11, 74, 64
10, 28800, Note_on_c, 11, 72, 105
10, 28920, Note_off_c, 11, 72, 64
10, 28920, Note_on_c, 11, 70, 105
10, 29040, Note_off_c, 11, 70, 64
10, 29040, Note_on_c, 11, 69, 105
10, 29160, Note_off_c, 11, 69, 64
10, 29160, Note_on_c, 11, 70, 105
10, 29280, Note_off_c, 11, 70, 64
10, 29280, Note_on_c, 11, 68, 105
10, 29400, Note_off_c, 11, 68, 64
10, 29400, Note_on_c, 11, 65, 105
10, 29496, Note_off_c, 11, 65, 64
10, 29520, Note_on_c, 11, 75, 105
10, 29520, Note_on_c, 11, 55, 105
10, 29520, Note_on_c, 11, 63, 105
10, 29712, Note_off_c, 11, 63, 64
10, 29712, Note_off_c, 11, 55, 64
10, 30144, Note_off_c, 11, 75, 64
10, 30240, Note_on_c, 11, 58, 105
10, 30318, Note_off_c, 11, 58, 64
10, 30360, Note_on_c, 11, 63, 105
10, 30438, Note_off_c, 11, 63, 64
10, 30480, Note_on_c, 11, 60, 105
10, 30558, Note_off_c, 11, 60, 64
10, 30600, Note_on_c, 11, 63, 105
10, 30678, Note_off_c, 11, 63, 64
10, 30720, Note_on_c, 11, 58, 105
10, 30798, Note_off_c, 11, 58, 64
10, 30840, Note_on_c, 11, 63, 105
10, 30918, Note_off_c, 11, 63, 64
10, 30960, Note_on_c, 11, 60, 105
10, 31038, Note_off_c, 11, 60, 64
10, 31080, Note_on_c, 11, 63, 105
10, 31158, Note_off_c, 11, 63, 64
10, 31200, Note_on_c, 11, 68, 105
10, 31278, Note_off_c, 11, 68, 64
10, 31320, Note_on_c, 11, 72, 105
10, 31398, Note_off_c, 11, 72, 64
10, 31440, Note_on_c, 11, 75, 105
10, 31518, Note_off_c, 11, 75, 64
10, 31560, Note_on_c, 11, 80, 105
10, 31638, Note_off_c, 11, 80, 64
10, 31680, Note_on_c, 11, 84, 105
10, 31872, Note_off_c, 11, 84, 64
10, 32400, Note_on_c, 11, 82, 105
10, 32400, Note_on_c, 11, 62, 105
10, 32400, Note_on_c, 11, 70, 105
10, 32592, Note_off_c, 11, 70, 64
10, 32592, Note_off_c, 11, 62, 64
10, 33024, Note_off_c, 11, 82, 64
10, 33120, Note_on_c, 11, 56, 105
10, 33198, Note_off_c, 11, 56, 64
10, 33240, Note_on_c, 11, 58, 105
10, 33318, Note_off_c, 11, 58, 64
10, 33360, Note_on_c, 11, 55, 105
10, 33438, Note_off_c, 11, 55, 64
10, 33480, Note_on_c, 11, 58, 105
10, 33558, Note_off_c, 11, 58, 64
10, 33600, Note_on_c, 11, 56, 105
10, 33678, Note_off_c, 11, 56, 64
10, 33720, Note_on_c, 11, 58, 105
10, 33798, Note_off_c, 11, 58, 64
10, 33840, Note_on_c, 11, 55, 105
10, 33918, Note_off_c, 11, 55, 64
10, 33960, Note_on_c, 11, 63, 105
10, 34038, Note_off_c, 11, 63, 64
10, 34080, Note_on_c, 11, 67, 105
10, 34158, Note_off_c, 11, 67, 64
10, 34200, Note_on_c, 11, 70, 105
10, 34278, Note_off_c, 11, 70, 64
10, 34320, Note_on_c, 11, 75, 105
10, 34398, Note_off_c, 11, 75, 64
10, 34440, Note_on_c, 11, 79, 105
10, 34518, Note_off_c, 11, 79, 64
10, 34560, Note_on_c, 11, 82, 105
10, 34752, Note_off_c, 11, 82, 64
10, 35280, Note_on_c, 11, 62, 78
10, 35400, Note_off_c, 11, 62, 64
10, 35400, Note_on_c, 11, 65, 58
10, 35520, Note_off_c, 11, 65, 64
10, 35520, Note_on_c, 11, 70, 58
10, 35640, Note_off_c, 11, 70, 64
10, 35640, Note_on_c, 11, 65, 58
10, 35760, Note_off_c, 11, 65, 64
10, 35760, Note_on_c, 11, 70, 58
10, 35880, Note_off_c, 11, 70, 64
10, 35880, Note_on_c, 11, 67, 58
10, 35988, Note_off_c, 11, 67, 64
10, 36000, Note_on_c, 11, 62, 78
10, 36120, Note_off_c, 11, 62, 64
10, 36120, Note_on_c, 11, 65, 58
10, 36240, Note_off_c, 11, 65, 64
10, 36240, Note_on_c, 11, 70, 58
10, 36360, Note_off_c, 11, 70, 64
10, 36360, Note_on_c, 11, 65, 58
10, 36480, Note_off_c, 11, 65, 64
10, 36480, Note_on_c, 11, 70, 58
10, 36600, Note_off_c, 11, 70, 64
10, 36600, Note_on_c, 11, 67, 58
10, 36708, Note_off_c, 11, 67, 64
10, 36720, Note_on_c, 11, 60, 58
10, 36840, Note_off_c, 11, 60, 64
10, 36840, Note_on_c, 11, 65, 58
10, 36960, Note_off_c, 11, 65, 64
10, 36960, Note_on_c, 11, 68, 58
10, 37080, Note_off_c, 11, 68, 64
10, 37080, Note_on_c, 11, 65, 58
10, 37200, Note_off_c, 11, 65, 64
10, 37200, Note_on_c, 11, 68, 58
10, 37320, Note_off_c, 11, 68, 64
10, 37320, Note_on_c, 11, 65, 58
10, 37428, Note_off_c, 11, 65, 64
10, 37440, Note_on_c, 11, 58, 58
10, 37560, Note_off_c, 11, 58, 64
10, 37560, Note_on_c, 11, 65, 58
10, 37680, Note_off_c, 11, 65, 64
10, 37680, Note_on_c, 11, 68, 58
10, 37800, Note_off_c, 11, 68, 64
10, 37800, Note_on_c, 11, 65, 58
10, 37920, Note_off_c, 11, 65, 64
10, 37920, Note_on_c, 11, 67, 58
10, 38040, Note_off_c, 11, 67, 64
10, 38040, Note_on_c, 11, 63, 58
10, 38148, Note_off_c, 11, 63, 64
10, 38160, Note_on_c, 11, 60, 58
10, 38280, Note_off_c, 11, 60, 64
10, 38280, Note_on_c, 11, 65, 58
10, 38400, Note_off_c, 11, 65, 64
10, 38400, Note_on_c, 11, 68, 58
10, 38520, Note_off_c, 11, 68, 64
10, 38520, Note_on_c, 11, 65, 58
10, 38640, Note_off_c, 11, 65, 64
10, 38640, Note_on_c, 11, 68, 58
10, 38760, Note_off_c, 11, 68, 64
10, 38760, Note_on_c, 11, 65, 58
10, 38868, Note_off_c, 11, 65, 64
10, 38880, Note_on_c, 11, 58, 58
10, 39000, Note_off_c, 11, 58, 64
10, 39000, Note_on_c, 11, 65, 58
10, 39120, Note_off_c, 11, 65, 64
10, 39120, Note_on_c, 11, 68, 58
10, 39240, Note_off_c, 11, 68, 64
10, 39240, Note_on_c, 11, 65, 58
10, 39360, Note_off_c, 11, 65, 64
10, 39360, Note_on_c, 11, 68, 58
10, 39480, Note_off_c, 11, 68, 64
10, 39480, Note_on_c, 11, 65, 58
10, 39588, Note_off_c, 11, 65, 64
10, 39600, Note_on_c, 11, 63, 105
10, 39720, Note_off_c, 11, 63, 64
10, 39720, Note_on_c, 11, 70, 105
10, 39816, Note_off_c, 11, 70, 64
10, 39840, Note_on_c, 11, 70, 105
10, 39960, Note_off_c, 11, 70, 64
10, 39960, Note_on_c, 11, 68, 105
10, 40056, Note_off_c, 11, 68, 64
10, 40080, Note_on_c, 11, 68, 105
10, 40200, Note_off_c, 11, 68, 64
10, 40200, Note_on_c, 11, 67, 105
10, 40296, Note_off_c, 11, 67, 64
10, 40320, Note_on_c, 11, 67, 105
10, 40440, Note_off_c, 11, 67, 64
10, 40440, Note_on_c, 11, 65, 105
10, 40536, Note_off_c, 11, 65, 64
10, 40560, Note_on_c, 11, 65, 105
10, 40680, Note_off_c, 11, 65, 64
10, 40680, Note_on_c, 11, 63, 105
10, 40776, Note_off_c, 11, 63, 64
10, 40800, Note_on_c, 11, 63, 105
10, 40920, Note_off_c, 11, 63, 64
10, 40920, Note_on_c, 11, 62, 105
10, 41016, Note_off_c, 11, 62, 64
10, 41040, Note_on_c, 11, 63, 105
10, 41160, Note_off_c, 11, 63, 64
10, 41160, Note_on_c, 11, 70, 105
10, 41256, Note_off_c, 11, 70, 64
10, 41280, Note_on_c, 11, 70, 105
10, 41400, Note_off_c, 11, 70, 64
10, 41400, Note_on_c, 11, 68, 105
10, 41496, Note_off_c, 11, 68, 64
10, 41520, Note_on_c, 11, 68, 105
10, 41640, Note_off_c, 11, 68, 64
10, 41640, Note_on_c, 11, 67, 105
10, 41736, Note_off_c, 11, 67, 64
10, 41760, Note_on_c, 11, 67, 105
10, 41880, Note_off_c, 11, 67, 64
10, 41880, Note_on_c, 11, 65, 105
10, 41976, Note_off_c, 11, 65, 64
10, 42000, Note_on_c, 11, 65, 105
10, 42120, Note_off_c, 11, 65, 64
10, 42120, Note_on_c, 11, 63, 105
10, 42216, Note_off_c, 11, 63, 64
10, 42240, Note_on_c, 11, 63, 105
10, 42360, Note_off_c, 11, 63, 64
10, 42360, Note_on_c, 11, 62, 105
10, 42456, Note_off_c, 11, 62, 64
10, 42480, Note_on_c, 11, 67, 105
10, 42600, Note_off_c, 11, 67, 64
10, 42720, Note_on_c, 11, 67, 105
10, 42960, Note_off_c, 11, 67, 64
10, 42960, Note_on_c, 11, 70, 105
10, 43152, Note_off_c, 11, 70, 64
10, 43200, Note_on_c, 11, 67, 105
10, 43392, Note_off_c, 11, 67, 64
10, 43920, Note_on_c, 11, 82, 105
10, 43920, Note_on_c, 11, 70, 105
10, 43920, Note_on_c, 11, 62, 105
10, 44112, Note_off_c, 11, 62, 64
10, 44112, Note_off_c, 11, 70, 64
10, 44352, Note_off_c, 11, 82, 64
10, 44400, Note_on_c, 11, 74, 105
10, 44478, Note_off_c, 11, 74, 64
10, 44520, Note_on_c, 11, 70, 105
10, 44598, Note_off_c, 11, 70, 64
10, 44640, Note_on_c, 11, 75, 105
10, 44718, Note_off_c, 11, 75, 64
10, 44760, Note_on_c, 11, 70, 105
10, 44838, Note_off_c, 11, 70, 64
10, 44880, Note_on_c, 11, 77, 105
10, 44958, Note_off_c, 11, 77, 64
10, 45000, Note_on_c, 11, 70, 105
10, 45078, Note_off_c, 11, 70, 64
10, 45120, Note_on_c, 11, 79, 105
10, 45198, Note_off_c, 11, 79, 64
10, 45240, Note_on_c, 11, 70, 105
10, 45318, Note_off_c, 11, 70, 64
10, 45360, Note_on_c, 11, 80, 105
10, 45744, Note_off_c, 11, 80, 64
10, 45840, Note_on_c, 11, 62, 105
10, 45918, Note_off_c, 11, 62, 64
10, 45960, Note_on_c, 11, 70, 105
10, 46038, Note_off_c, 11, 70, 64
10, 46080, Note_on_c, 11, 63, 105
10, 46158, Note_off_c, 11, 63, 64
10, 46200, Note_on_c, 11, 70, 105
10, 46278, Note_off_c, 11, 70, 64
10, 46320, Note_on_c, 11, 65, 105
10, 46398, Note_off_c, 11, 65, 64
10, 46440, Note_on_c, 11, 70, 105
10, 46518, Note_off_c, 11, 70, 64
10, 46560, Note_on_c, 11, 67, 105
10, 46638, Note_off_c, 11, 67, 64
10, 46680, Note_on_c, 11, 70, 105
10, 46758, Note_off_c, 11, 70, 64
10, 46800, Note_on_c, 11, 60, 105
10, 46920, Note_off_c, 11, 60, 64
10, 46920, Note_on_c, 11, 64, 105
10, 46998, Note_off_c, 11, 64, 64
10, 47040, Note_on_c, 11, 65, 105
10, 47118, Note_off_c, 11, 65, 64
10, 47160, Note_on_c, 11, 67, 105
10, 47238, Note_off_c, 11, 67, 64
10, 47280, Note_on_c, 11, 68, 105
10, 47358, Note_off_c, 11, 68, 64
10, 47400, Note_on_c, 11, 71, 105
10, 47478, Note_off_c, 11, 71, 64
10, 47520, Note_on_c, 11, 72, 105
10, 47640, Note_off_c, 11, 72, 64
10, 47640, Note_on_c, 11, 76, 105
10, 47718, Note_off_c, 11, 76, 64
10, 47760, Note_on_c, 11, 77, 105
10, 47838, Note_off_c, 11, 77, 64
10, 47880, Note_on_c, 11, 79, 105
10, 47958, Note_off_c, 11, 79, 64
10, 48000, Note_on_c, 11, 80, 105
10, 48078, Note_off_c, 11, 80, 64
10, 48120, Note_on_c, 11, 77, 105
10, 48198, Note_off_c, 11, 77, 64
10, 48240, Note_on_c, 11, 75, 105
10, 48360, Note_off_c, 11, 75, 64
10, 48360, Note_on_c, 11, 74, 105
10, 48456, Note_off_c, 11, 74, 64
10, 48480, Note_on_c, 11, 79, 105
10, 48600, Note_off_c, 11, 79, 64
10, 48600, Note_on_c, 11, 77, 105
10, 48696, Note_off_c, 11, 77, 64
10, 48720, Note_on_c, 11, 75, 105
10, 48840, Note_off_c, 11, 75, 64
10, 48840, Note_on_c, 11, 74, 105
10, 48936, Note_off_c, 11, 74, 64
10, 48960, Note_on_c, 11, 72, 105
10, 49080, Note_off_c, 11, 72, 64
10, 49080, Note_on_c, 11, 70, 105
10, 49200, Note_off_c, 11, 70, 64
10, 49200, Note_on_c, 11, 69, 105
10, 49320, Note_off_c, 11, 69, 64
10, 49320, Note_on_c, 11, 70, 105
10, 49440, Note_off_c, 11, 70, 64
10, 49440, Note_on_c, 11, 68, 105
10, 49560, Note_off_c, 11, 68, 64
10, 49560, Note_on_c, 11, 65, 105
10, 49656, Note_off_c, 11, 65, 64
10, 49680, Note_on_c, 11, 75, 105
10, 49680, Note_on_c, 11, 55, 105
10, 49680, Note_on_c, 11, 63, 105
10, 49872, Note_off_c, 11, 63, 64
10, 49872, Note_off_c, 11, 55, 64
10, 50304, Note_off_c, 11, 75, 64
10, 50400, Note_on_c, 11, 58, 105
10, 50478, Note_off_c, 11, 58, 64
10, 50520, Note_on_c, 11, 63, 105
10, 50598, Note_off_c, 11, 63, 64
10, 50640, Note_on_c, 11, 60, 105
10, 50718, Note_off_c, 11, 60, 64
10, 50760, Note_on_c, 11, 63, 105
10, 50838, Note_off_c, 11, 63, 64
10, 50880, Note_on_c, 11, 58, 105
10, 50958, Note_off_c, 11, 58, 64
10, 51000, Note_on_c, 11, 63, 105
10, 51078, Note_off_c, 11, 63, 64
10, 51120, Note_on_c, 11, 60, 105
10, 51198, Note_off_c, 11, 60, 64
10, 51240, Note_on_c, 11, 63, 105
10, 51318, Note_off_c, 11, 63, 64
10, 51360, Note_on_c, 11, 68, 105
10, 51438, Note_off_c, 11, 68, 64
10, 51480, Note_on_c, 11, 72, 105
10, 51558, Note_off_c, 11, 72, 64
10, 51600, Note_on_c, 11, 75, 105
10, 51678, Note_off_c, 11, 75, 64
10, 51720, Note_on_c, 11, 80, 105
10, 51798, Note_off_c, 11, 80, 64
10, 51840, Note_on_c, 11, 84, 105
10, 52032, Note_off_c, 11, 84, 64
10, 52560, Note_on_c, 11, 82, 105
10, 52560, Note_on_c, 11, 62, 105
10, 52560, Note_on_c, 11, 70, 105
10, 52752, Note_off_c, 11, 70, 64
10, 52752, Note_off_c, 11, 62, 64
10, 53184, Note_off_c, 11, 82, 64
10, 53280, Note_on_c, 11, 56, 105
10, 53358, Note_off_c, 11, 56, 64
10, 53400, Note_on_c, 11, 58, 105
10, 53478, Note_off_c, 11, 58, 64
10, 53520, Note_on_c, 11, 55, 105
10, 53598, Note_off_c, 11, 55, 64
10, 53640, Note_on_c, 11, 58, 105
10, 53718, Note_off_c, 11, 58, 64
10, 53760, Note_on_c, 11, 56, 105
10, 53838, Note_off_c, 11, 56, 64
10, 53880, Note_on_c, 11, 58, 105
10, 53958, Note_off_c, 11, 58, 64
10, 54000, Note_on_c, 11, 55, 105
10, 54078, Note_off_c, 11, 55, 64
10, 54120, Note_on_c, 11, 63, 105
10, 54198, Note_off_c, 11, 63, 64
10, 54240, Note_on_c, 11, 67, 105
10, 54318, Note_off_c, 11, 67, 64
10, 54360, Note_on_c, 11, 70, 105
10, 54438, Note_off_c, 11, 70, 64
10, 54480, Note_on_c, 11, 75, 105
10, 54558, Note_off_c, 11, 75, 64
10, 54600, Note_on_c, 11, 79, 105
10, 54678, Note_off_c, 11, 79, 64
10, 54720, Note_on_c, 11, 82, 105
10, 54912, Note_off_c, 11, 82, 64
10, 55440, Note_on_c, 11, 62, 78
10, 55560, Note_off_c, 11, 62, 64
10, 55560, Note_on_c, 11, 65, 58
10, 55680, Note_off_c, 11, 65, 64
10, 55680, Note_on_c, 11, 70, 58
10, 55800, Note_off_c, 11, 70, 64
10, 55800, Note_on_c, 11, 65, 58
10, 55920, Note_off_c, 11, 65, 64
10, 55920, Note_on_c, 11, 70, 58
10, 56040, Note_off_c, 11, 70, 64
10, 56040, Note_on_c, 11, 67, 58
10, 56148, Note_off_c, 11, 67, 64
10, 56160, Note_on_c, 11, 62, 78
10, 56280, Note_off_c, 11, 62, 64
10, 56280, Note_on_c, 11, 65, 58
10, 56400, Note_off_c, 11, 65, 64
10, 56400, Note_on_c, 11, 70, 58
10, 56520, Note_off_c, 11, 70, 64
10, 56520, Note_on_c, 11, 65, 58
10, 56640, Note_off_c, 11, 65, 64
10, 56640, Note_on_c, 11, 70, 58
10, 56760, Note_off_c, 11, 70, 64
10, 56760, Note_on_c, 11, 67, 58
10, 56868, Note_off_c, 11, 67, 64
10, 56880, Note_on_c, 11, 60, 58
10, 57000, Note_off_c, 11, 60, 64
10, 57000, Note_on_c, 11, 65, 58
10, 57120, Note_off_c, 11, 65, 64
10, 57120, Note_on_c, 11, 68, 58
10, 57240, Note_off_c, 11, 68, 64
10, 57240, Note_on_c, 11, 65, 58
10, 57360, Note_off_c, 11, 65, 64
10, 57360, Note_on_c, 11, 68, 58
10, 57480, Note_off_c, 11, 68, 64
10, 57480, Note_on_c, 11, 65, 58
10, 57588, Note_off_c, 11, 65, 64
10, 57600, Note_on_c, 11, 58, 58
10, 57720, Note_off_c, 11, 58, 64
10, 57720, Note_on_c, 11, 65, 58
10, 57840, Note_off_c, 11, 65, 64
10, 57840, Note_on_c, 11, 68, 58
10, 57960, Note_off_c, 11, 68, 64
10, 57960, Note_on_c, 11, 65, 58
10, 58080, Note_off_c, 11, 65, 64
10, 58080, Note_on_c, 11, 67, 58
10, 58200, Note_off_c, 11, 67, 64
10, 58200, Note_on_c, 11, 63, 58
10, 58308, Note_off_c, 11, 63, 64
10, 58320, Note_on_c, 11, 60, 58
10, 58440, Note_off_c, 11, 60, 64
10, 58440, Note_on_c, 11, 65, 58
10, 58560, Note_off_c, 11, 65, 64
10, 58560, Note_on_c, 11, 68, 58
10, 58680, Note_off_c, 11, 68, 64
10, 58680, Note_on_c, 11, 65, 58
10, 58800, Note_off_c, 11, 65, 64
10, 58800, Note_on_c, 11, 68, 58
10, 58920, Note_off_c, 11, 68, 64
10, 58920, Note_on_c, 11, 65, 58
10, 59028, Note_off_c, 11, 65, 64
10, 59040, Note_on_c, 11, 58, 58
10, 59160, Note_off_c, 11, 58, 64
10, 59160, Note_on_c, 11, 65, 58
10, 59280, Note_off_c, 11, 65, 64
10, 59280, Note_on_c, 11, 68, 58
10, 59400, Note_off_c, 11, 68, 64
10, 59400, Note_on_c, 11, 65, 58
10, 59520, Note_off_c, 11, 65, 64
10, 59520, Note_on_c, 11, 68, 58
10, 59640, Note_off_c, 11, 68, 64
10, 59640, Note_on_c, 11, 65, 58
10, 59748, Note_off_c, 11, 65, 64
10, 59760, Note_on_c, 11, 63, 105
10, 59880, Note_off_c, 11, 63, 64
10, 59880, Note_on_c, 11, 70, 105
10, 59976, Note_off_c, 11, 70, 64
10, 60000, Note_on_c, 11, 70, 105
10, 60120, Note_off_c, 11, 70, 64
10, 60120, Note_on_c, 11, 68, 105
10, 60216, Note_off_c, 11, 68, 64
10, 60240, Note_on_c, 11, 68, 105
10, 60360, Note_off_c, 11, 68, 64
10, 60360, Note_on_c, 11, 67, 105
10, 60456, Note_off_c, 11, 67, 64
10, 60480, Note_on_c, 11, 67, 105
10, 60600, Note_off_c, 11, 67, 64
10, 60600, Note_on_c, 11, 65, 105
10, 60696, Note_off_c, 11, 65, 64
10, 60720, Note_on_c, 11, 65, 105
10, 60840, Note_off_c, 11, 65, 64
10, 60840, Note_on_c, 11, 63, 105
10, 60936, Note_off_c, 11, 63, 64
10, 60960, Note_on_c, 11, 63, 105
10, 61080, Note_off_c, 11, 63, 64
10, 61080, Note_on_c, 11, 62, 105
10, 61176, Note_off_c, 11, 62, 64
10, 61200, Note_on_c, 11, 63, 105
10, 61320, Note_off_c, 11, 63, 64
10, 61320, Note_on_c, 11, 70, 105
10, 61416, Note_off_c, 11, 70, 64
10, 61440, Note_on_c, 11, 70, 105
10, 61560, Note_off_c, 11, 70, 64
10, 61560, Note_on_c, 11, 68, 105
10, 61656, Note_off_c, 11, 68, 64
10, 61680, Note_on_c, 11, 68, 105
10, 61800, Note_off_c, 11, 68, 64
10, 61800, Note_on_c, 11, 67, 105
10, 61896, Note_off_c, 11, 67, 64
10, 61920, Note_on_c, 11, 67, 105
10, 62040, Note_off_c, 11, 67, 64
10, 62040, Note_on_c, 11, 65, 105
10, 62136, Note_off_c, 11, 65, 64
10, 62160, Note_on_c, 11, 65, 105
10, 62280, Note_off_c, 11, 65, 64
10, 62280, Note_on_c, 11, 63, 105
10, 62376, Note_off_c, 11, 63, 64
10, 62400, Note_on_c, 11, 63, 105
10, 62520, Note_off_c, 11, 63, 64
10, 62520, Note_on_c, 11, 62, 105
10, 62616, Note_off_c, 11, 62, 64
10, 62640, Note_on_c, 11, 67, 105
10, 62760, Note_off_c, 11, 67, 64
10, 62880, Note_on_c, 11, 67, 105
10, 63120, Note_off_c, 11, 67, 64
10, 63120, Note_on_c, 11, 70, 105
10, 63312, Note_off_c, 11, 70, 64
10, 63360, Note_on_c, 11, 67, 105
10, 63552, Note_off_c, 11, 67, 64
10, 64320, Note_on_c, 11, 55, 58
10, 64512, Note_off_c, 11, 55, 64
10, 64560, Note_on_c, 11, 55, 58
10, 64752, Note_off_c, 11, 55, 64
10, 65040, Note_on_c, 11, 55, 58
10, 65232, Note_off_c, 11, 55, 64
10, 65280, Note_on_c, 11, 55, 58
10, 65472, Note_off_c, 11, 55, 64
10, 65760, Note_on_c, 11, 56, 58
10, 65952, Note_off_c, 11, 56, 64
10, 66000, Note_on_c, 11, 56, 58
10, 66192, Note_off_c, 11, 56, 64
10, 66240, Note_on_c, 11, 56, 58
10, 66432, Note_off_c, 11, 56, 64
10, 67200, Note_on_c, 11, 62, 58
10, 67392, Note_off_c, 11, 62, 64
10, 67440, Note_on_c, 11, 62, 58
10, 67632, Note_off_c, 11, 62, 64
10, 67920, Note_on_c, 11, 62, 58
10, 68112, Note_off_c, 11, 62, 64
10, 68160, Note_on_c, 11, 62, 58
10, 68352, Note_off_c, 11, 62, 64
10, 68400, Note_on_c, 11, 63, 58
10, 68880, Note_off_c, 11, 63, 64
10, 68880, Note_on_c, 11, 62, 58
10, 69072, Note_off_c, 11, 62, 64
10, 69120, Note_on_c, 11, 63, 58
10, 69312, Note_off_c, 11, 63, 64
10, 70080, Note_on_c, 11, 55, 58
10, 70272, Note_off_c, 11, 55, 64
10, 70320, Note_on_c, 11, 55, 58
10, 70512, Note_off_c, 11, 55, 64
10, 70800, Note_on_c, 11, 55, 58
10, 70992, Note_off_c, 11, 55, 64
10, 71040, Note_on_c, 11, 55, 58
10, 71232, Note_off_c, 11, 55, 64
10, 71520, Note_on_c, 11, 56, 58
10, 71712, Note_off_c, 11, 56, 64
10, 71760, Note_on_c, 11, 56, 58
10, 71952, Note_off_c, 11, 56, 64
10, 72000, Note_on_c, 11, 56, 58
10, 72192, Note_off_c, 11, 56, 64
10, 72960, Note_on_c, 11, 62, 58
10, 73152, Note_off_c, 11, 62, 64
10, 73200, Note_on_c, 11, 62, 58
10, 73392, Note_off_c, 11, 62, 64
10, 73680, Note_on_c, 11, 62, 58
10, 73872, Note_off_c, 11, 62, 64
10, 73920, Note_on_c, 11, 62, 58
10, 74112, Note_off_c, 11, 62, 64
10, 74160, Note_on_c, 11, 63, 58
10, 74640, Note_off_c, 11, 63, 64
10, 74640, Note_on_c, 11, 62, 58
10, 74832, Note_off_c, 11, 62, 64
10, 74880, Note_on_c, 11, 63, 58
10, 75072, Note_off_c, 11, 63, 64
10, 75600, Note_on_c, 11, 58, 58
10, 75672, Note_off_c, 11, 58, 64
10, 75720, Note_on_c, 11, 63, 58
10, 75792, Note_off_c, 11, 63, 64
10, 75840, Note_on_c, 11, 67, 58
10, 75912, Note_off_c, 11, 67, 64
10, 75960, Note_on_c, 11, 63, 58
10, 76032, Note_off_c, 11, 63, 64
10, 76080, Note_on_c, 11, 58, 58
10, 76152, Note_off_c, 11, 58, 64
10, 76200, Note_on_c, 11, 63, 58
10, 76272, Note_off_c, 11, 63, 64
10, 76320, Note_on_c, 11, 59, 58
10, 76392, Note_off_c, 11, 59, 64
10, 76440, Note_on_c, 11, 62, 58
10, 76512, Note_off_c, 11, 62, 64
10, 76560, Note_on_c, 11, 65, 58
10, 76632, Note_off_c, 11, 65, 64
10, 76680, Note_on_c, 11, 62, 58
10, 76752, Note_off_c, 11, 62, 64
10, 76800, Note_on_c, 11, 59, 58
10, 76872, Note_off_c, 11, 59, 64
10, 76920, Note_on_c, 11, 62, 58
10, 76992, Note_off_c, 11, 62, 64
10, 77040, Note_on_c, 11, 63, 58
10, 77112, Note_off_c, 11, 63, 64
10, 77160, Note_on_c, 11, 67, 58
10, 77232, Note_off_c, 11, 67, 64
10, 77280, Note_on_c, 11, 72, 58
10, 77352, Note_off_c, 11, 72, 64
10, 77400, Note_on_c, 11, 67, 58
10, 77472, Note_off_c, 11, 67, 64
10, 77520, Note_on_c, 11, 63, 58
10, 77592, Note_off_c, 11, 63, 64
10, 77640, Note_on_c, 11, 60, 58
10, 77712, Note_off_c, 11, 60, 64
10, 77760, Note_on_c, 11, 63, 58
10, 77832, Note_off_c, 11, 63, 64
10, 77880, Note_on_c, 11, 72, 58
10, 77952, Note_off_c, 11, 72, 64
10, 78000, Note_on_c, 11, 75, 58
10, 78072, Note_off_c, 11, 75, 64
10, 78120, Note_on_c, 11, 72, 58
10, 78192, Note_off_c, 11, 72, 64
10, 78240, Note_on_c, 11, 69, 58
10, 78312, Note_off_c, 11, 69, 64
10, 78360, Note_on_c, 11, 63, 58
10, 78432, Note_off_c, 11, 63, 64
10, 78480, Note_on_c, 11, 62, 58
10, 78552, Note_off_c, 11, 62, 64
10, 78600, Note_on_c, 11, 65, 58
10, 78672, Note_off_c, 11, 65, 64
10, 78720, Note_on_c, 11, 70, 58
10, 78792, Note_off_c, 11, 70, 64
10, 78840, Note_on_c, 11, 65, 58
10, 78912, Note_off_c, 11, 65, 64
10, 78960, Note_on_c, 11, 62, 58
10, 79032, Note_off_c, 11, 62, 64
10, 79080, Note_on_c, 11, 65, 58
10, 79152, Note_off_c, 11, 65, 64
10, 79200, Note_on_c, 11, 62, 58
10, 79272, Note_off_c, 11, 62, 64
10, 79320, Note_on_c, 11, 65, 58
10, 79392, Note_off_c, 11, 65, 64
10, 79440, Note_on_c, 11, 70, 58
10, 79512, Note_off_c, 11, 70, 64
10, 79560, Note_on_c, 11, 65, 58
10, 79632, Note_off_c, 11, 65, 64
10, 79680, Note_on_c, 11, 69, 58
10, 79752, Note_off_c, 11, 69, 64
10, 79800, Note_on_c, 11, 63, 58
10, 79872, Note_off_c, 11, 63, 64
10, 79920, Note_on_c, 11, 62, 58
10, 79992, Note_off_c, 11, 62, 64
10, 80040, Note_on_c, 11, 58, 58
10, 80112, Note_off_c, 11, 58, 64
10, 80160, Note_on_c, 11, 65, 58
10, 80280, Note_off_c, 11, 65, 64
10, 80280, Note_on_c, 11, 62, 58
10, 80400, Note_off_c, 11, 62, 64
10, 80400, Note_on_c, 11, 67, 58
10, 80520, Note_off_c, 11, 67, 64
10, 80520, Note_on_c, 11, 63, 58
10, 80640, Note_off_c, 11, 63, 64
10, 80640, Note_on_c, 11, 68, 58
10, 80760, Note_off_c, 11, 68, 64
10, 80760, Note_on_c, 11, 65, 58
10, 80880, Note_off_c, 11, 65, 64
10, 80880, Note_on_c, 11, 67, 58
10, 81000, Note_off_c, 11, 67, 64
10, 81000, Note_on_c, 11, 63, 58
10, 81120, Note_off_c, 11, 63, 64
10, 81120, Note_on_c, 11, 65, 58
10, 81240, Note_off_c, 11, 65, 64
10, 81240, Note_on_c, 11, 62, 58
10, 81360, Note_off_c, 11, 62, 64
10, 81360, Note_on_c, 11, 63, 58
10, 81552, Note_off_c, 11, 63, 64
10, 81600, Note_on_c, 11, 63, 58
10, 81792, Note_off_c, 11, 63, 64
10, 81840, Note_on_c, 11, 63, 58
10, 82032, Note_off_c, 11, 63, 64
10, 82320, Note_on_c, 11, 63, 58
10, 82512, Note_off_c, 11, 63, 64
10, 82560, Note_on_c, 11, 63, 58
10, 82752, Note_off_c, 11, 63, 64
10, 83040, Note_on_c, 11, 65, 58
10, 83232, Note_off_c, 11, 65, 64
10, 83280, Note_on_c, 11, 65, 58
10, 83472, Note_off_c, 11, 65, 64
10, 83520, Note_on_c, 11, 65, 58
10, 83712, Note_off_c, 11, 65, 64
10, 84480, Note_on_c, 11, 65, 58
10, 84672, Note_off_c, 11, 65, 64
10, 84720, Note_on_c, 11, 65, 58
10, 84912, Note_off_c, 11, 65, 64
10, 85200, Note_on_c, 11, 65, 58
10, 85392, Note_off_c, 11, 65, 64
10, 85440, Note_on_c, 11, 65, 58
10, 85632, Note_off_c, 11, 65, 64
10, 85680, Note_on_c, 11, 63, 58
10, 86160, Note_off_c, 11, 63, 64
10, 86160, Note_on_c, 11, 62, 58
10, 86352, Note_off_c, 11, 62, 64
10, 86400, Note_on_c, 11, 63, 58
10, 86592, Note_off_c, 11, 63, 64
10, 87120, Note_on_c, 11, 58, 58
10, 87192, Note_off_c, 11, 58, 64
10, 87240, Note_on_c, 11, 63, 58
10, 87312, Note_off_c, 11, 63, 64
10, 87360, Note_on_c, 11, 67, 58
10, 87432, Note_off_c, 11, 67, 64
10, 87480, Note_on_c, 11, 63, 58
10, 87552, Note_off_c, 11, 63, 64
10, 87600, Note_on_c, 11, 58, 58
10, 87672, Note_off_c, 11, 58, 64
10, 87720, Note_on_c, 11, 63, 58
10, 87792, Note_off_c, 11, 63, 64
10, 87840, Note_on_c, 11, 59, 58
10, 87912, Note_off_c, 11, 59, 64
10, 87960, Note_on_c, 11, 62, 58
10, 88032, Note_off_c, 11, 62, 64
10, 88080, Note_on_c, 11, 65, 58
10, 88152, Note_off_c, 11, 65, 64
10, 88200, Note_on_c, 11, 62, 58
10, 88272, Note_off_c, 11, 62, 64
10, 88320, Note_on_c, 11, 59, 58
10, 88392, Note_off_c, 11, 59, 64
10, 88440, Note_on_c, 11, 62, 58
10, 88512, Note_off_c, 11, 62, 64
10, 88560, Note_on_c, 11, 63, 58
10, 88632, Note_off_c, 11, 63, 64
10, 88680, Note_on_c, 11, 67, 58
10, 88752, Note_off_c, 11, 67, 64
10, 88800, Note_on_c, 11, 72, 58
10, 88872, Note_off_c, 11, 72, 64
10, 88920, Note_on_c, 11, 67, 58
10, 88992, Note_off_c, 11, 67, 64
10, 89040, Note_on_c, 11, 63, 58
10, 89112, Note_off_c, 11, 63, 64
10, 89160, Note_on_c, 11, 60, 58
10, 89232, Note_off_c, 11, 60, 64
10, 89280, Note_on_c, 11, 63, 58
10, 89352, Note_off_c, 11, 63, 64
10, 89400, Note_on_c, 11, 72, 58
10, 89472, Note_off_c, 11, 72, 64
10, 89520, Note_on_c, 11, 75, 58
10, 89592, Note_off_c, 11, 75, 64
10, 89640, Note_on_c, 11, 72, 58
10, 89712, Note_off_c, 11, 72, 64
10, 89760, Note_on_c, 11, 69, 58
10, 89832, Note_off_c, 11, 69, 64
10, 89880, Note_on_c, 11, 63, 58
10, 89952, Note_off_c, 11, 63, 64
10, 90000, Note_on_c, 11, 62, 58
10, 90072, Note_off_c, 11, 62, 64
10, 90120, Note_on_c, 11, 65, 58
10, 90192, Note_off_c, 11, 65, 64
10, 90240, Note_on_c, 11, 70, 58
10, 90312, Note_off_c, 11, 70, 64
10, 90360, Note_on_c, 11, 65, 58
10, 90432, Note_off_c, 11, 65, 64
10, 90480, Note_on_c, 11, 62, 58
10, 90552, Note_off_c, 11, 62, 64
10, 90600, Note_on_c, 11, 65, 58
10, 90672, Note_off_c, 11, 65, 64
10, 90720, Note_on_c, 11, 62, 58
10, 90792, Note_off_c, 11, 62, 64
10, 90840, Note_on_c, 11, 65, 58
10, 90912, Note_off_c, 11, 65, 64
10, 90960, Note_on_c, 11, 70, 58
10, 91032, Note_off_c, 11, 70, 64
10, 91080, Note_on_c, 11, 65, 58
10, 91152, Note_off_c, 11, 65, 64
10, 91200, Note_on_c, 11, 69, 58
10, 91272, Note_off_c, 11, 69, 64
10, 91320, Note_on_c, 11, 63, 58
10, 91392, Note_off_c, 11, 63, 64
10, 91440, Note_on_c, 11, 62, 58
10, 91512, Note_off_c, 11, 62, 64
10, 91560, Note_on_c, 11, 58, 58
10, 91632, Note_off_c, 11, 58, 64
10, 91680, Note_on_c, 11, 65, 58
10, 91800, Note_off_c, 11, 65, 64
10, 91800, Note_on_c, 11, 62, 58
10, 91920, Note_off_c, 11, 62, 64
10, 91920, Note_on_c, 11, 67, 58
10, 92040, Note_off_c, 11, 67, 64
10, 92040, Note_on_c, 11, 63, 58
10, 92160, Note_off_c, 11, 63, 64
10, 92160, Note_on_c, 11, 68, 58
10, 92280, Note_off_c, 11, 68, 64
10, 92280, Note_on_c, 11, 65, 58
10, 92400, Note_off_c, 11, 65, 64
10, 92400, Note_on_c, 11, 67, 58
10, 92520, Note_off_c, 11, 67, 64
10, 92520, Note_on_c, 11, 63, 58
10, 92640, Note_off_c, 11, 63, 64
10, 92640, Note_on_c, 11, 65, 58
10, 92760, Note_off_c, 11, 65, 64
10, 92760, Note_on_c, 11, 62, 58
10, 92880, Note_off_c, 11, 62, 64
10, 92880, Note_on_c, 11, 63, 58
10, 93072, Note_off_c, 11, 63, 64
10, 93120, Note_on_c, 11, 63, 58
10, 93312, Note_off_c, 11, 63, 64
10, 93360, Note_on_c, 11, 63, 58
10, 93552, Note_off_c, 11, 63, 64
10, 93840, Note_on_c, 11, 63, 58
10, 94032, Note_off_c, 11, 63, 64
10, 94080, Note_on_c, 11, 63, 58
10, 94272, Note_off_c, 11, 63, 64
10, 94560, Note_on_c, 11, 65, 58
10, 94752, Note_off_c, 11, 65, 64
10, 94800, Note_on_c, 11, 65, 58
10, 94992, Note_off_c, 11, 65, 64
10, 95040, Note_on_c, 11, 65, 58
10, 95232, Note_off_c, 11, 65, 64
10, 96000, Note_on_c, 11, 65, 58
10, 96192, Note_off_c, 11, 65, 64
10, 96240, Note_on_c, 11, 65, 58
10, 96432, Note_off_c, 11, 65, 64
10, 96720, Note_on_c, 11, 65, 58
10, 96912, Note_off_c, 11, 65, 64
10, 96960, Note_on_c, 11, 65, 58
10, 97152, Note_off_c, 11, 65, 64
10, 97200, Note_on_c, 11, 63, 58
10, 97680, Note_off_c, 11, 63, 64
10, 97680, Note_on_c, 11, 62, 58
10, 97872, Note_off_c, 11, 62, 64
10, 97920, Note_on_c, 11, 63, 58
10, 98112, Note_off_c, 11, 63, 64
10, 98640, Note_on_c, 11, 63, 58
10, 98640, Note_on_c, 11, 75, 105
10, 98640, Note_on_c, 11, 55, 105
10, 98832, Note_off_c, 11, 55, 64
10, 98832, Note_off_c, 11, 63, 64
10, 99264, Note_off_c, 11, 75, 64
10, 99360, Note_on_c, 11, 58, 105
10, 99438, Note_off_c, 11, 58, 64
10, 99480, Note_on_c, 11, 63, 105
10, 99558, Note_off_c, 11, 63, 64
10, 99600, Note_on_c, 11, 60, 105
10, 99678, Note_off_c, 11, 60, 64
10, 99720, Note_on_c, 11, 63, 105
10, 99798, Note_off_c, 11, 63, 64
10, 99840, Note_on_c, 11, 58, 105
10, 99918, Note_off_c, 11, 58, 64
10, 99960, Note_on_c, 11, 63, 105
10, 100038, Note_off_c, 11, 63, 64
10, 100080, Note_on_c, 11, 60, 105
10, 100158, Note_off_c, 11, 60, 64
10, 100200, Note_on_c, 11, 63, 105
10, 100278, Note_off_c, 11, 63, 64
10, 100320, Note_on_c, 11, 68, 105
10, 100398, Note_off_c, 11, 68, 64
10, 100440, Note_on_c, 11, 72, 105
10, 100518, Note_off_c, 11, 72, 64
10, 100560, Note_on_c, 11, 75, 105
10, 100638, Note_off_c, 11, 75, 64
10, 100680, Note_on_c, 11, 80, 105
10, 100758, Note_off_c, 11, 80, 64
10, 100800, Note_on_c, 11, 84, 105
10, 100992, Note_off_c, 11, 84, 64
10, 101520, Note_on_c, 11, 82, 105
10, 101520, Note_on_c, 11, 62, 105
10, 101520, Note_on_c, 11, 70, 105
10, 101712, Note_off_c, 11, 70, 64
10, 101712, Note_off_c, 11, 62, 64
10, 102144, Note_off_c, 11, 82, 64
10, 102240, Note_on_c, 11, 56, 105
10, 102318, Note_off_c, 11, 56, 64
10, 102360, Note_on_c, 11, 58, 105
10, 102438, Note_off_c, 11, 58, 64
10, 102480, Note_on_c, 11, 55, 105
10, 102558, Note_off_c, 11, 55, 64
10, 102600, Note_on_c, 11, 58, 105
10, 102678, Note_off_c, 11, 58, 64
10, 102720, Note_on_c, 11, 56, 105
10, 102798, Note_off_c, 11, 56, 64
10, 102840, Note_on_c, 11, 58, 105
10, 102918, Note_off_c, 11, 58, 64
10, 102960, Note_on_c, 11, 55, 105
10, 103056, Note_off_c, 11, 55, 64
10, 103080, Note_on_c, 11, 58, 105
10, 103176, Note_off_c, 11, 58, 64
10, 103200, Note_on_c, 11, 63, 105
10, 103296, Note_off_c, 11, 63, 64
10, 103320, Note_on_c, 11, 67, 105
10, 103416, Note_off_c, 11, 67, 64
10, 103440, Note_on_c, 11, 70, 105
10, 103536, Note_off_c, 11, 70, 64
10, 103560, Note_on_c, 11, 75, 105
10, 103656, Note_off_c, 11, 75, 64
10, 103680, Note_on_c, 11, 79, 105
10, 103872, Note_off_c, 11, 79, 64
10, 104400, Note_on_c, 11, 62, 78
10, 104520, Note_off_c, 11, 62, 64
10, 104520, Note_on_c, 11, 65, 58
10, 104640, Note_off_c, 11, 65, 64
10, 104640, Note_on_c, 11, 70, 58
10, 104760, Note_off_c, 11, 70, 64
10, 104760, Note_on_c, 11, 65, 58
10, 104880, Note_off_c, 11, 65, 64
10, 104880, Note_on_c, 11, 70, 58
10, 105000, Note_off_c, 11, 70, 64
10, 105000, Note_on_c, 11, 67, 58
10, 105096, Note_off_c, 11, 67, 64
10, 105120, Note_on_c, 11, 62, 78
10, 105240, Note_off_c, 11, 62, 64
10, 105240, Note_on_c, 11, 65, 58
10, 105360, Note_off_c, 11, 65, 64
10, 105360, Note_on_c, 11, 70, 58
10, 105480, Note_off_c, 11, 70, 64
10, 105480, Note_on_c, 11, 65, 58
10, 105600, Note_off_c, 11, 65, 64
10, 105600, Note_on_c, 11, 70, 58
10, 105720, Note_off_c, 11, 70, 64
10, 105720, Note_on_c, 11, 67, 58
10, 105816, Note_off_c, 11, 67, 64
10, 105840, Note_on_c, 11, 60, 58
10, 105960, Note_off_c, 11, 60, 64
10, 105960, Note_on_c, 11, 65, 58
10, 106080, Note_off_c, 11, 65, 64
10, 106080, Note_on_c, 11, 68, 58
10, 106200, Note_off_c, 11, 68, 64
10, 106200, Note_on_c, 11, 65, 58
10, 106320, Note_off_c, 11, 65, 64
10, 106320, Note_on_c, 11, 68, 58
10, 106440, Note_off_c, 11, 68, 64
10, 106440, Note_on_c, 11, 65, 58
10, 106536, Note_off_c, 11, 65, 64
10, 106560, Note_on_c, 11, 58, 58
10, 106680, Note_off_c, 11, 58, 64
10, 106680, Note_on_c, 11, 65, 58
10, 106800, Note_off_c, 11, 65, 64
10, 106800, Note_on_c, 11, 68, 58
10, 106920, Note_off_c, 11, 68, 64
10, 106920, Note_on_c, 11, 65, 58
10, 107040, Note_off_c, 11, 65, 64
10, 107040, Note_on_c, 11, 67, 58
10, 107160, Note_off_c, 11, 67, 64
10, 107160, Note_on_c, 11, 63, 58
10, 107256, Note_off_c, 11, 63, 64
10, 107280, Note_on_c, 11, 70, 58
10, 107472, Note_off_c, 11, 70, 64
10, 107760, Note_on_c, 11, 75, 58
10, 107880, Note_off_c, 11, 75, 64
10, 107880, Note_on_c, 11, 72, 58
10, 107976, Note_off_c, 11, 72, 64
10, 108000, Note_on_c, 11, 70, 58
10, 108192, Note_off_c, 11, 70, 64
10, 108240, Note_on_c, 11, 70, 58
10, 108432, Note_off_c, 11, 70, 64
10, 108480, Note_on_c, 11, 72, 58
10, 108600, Note_off_c, 11, 72, 64
10, 108600, Note_on_c, 11, 63, 58
10, 108696, Note_off_c, 11, 63, 64
10, 108720, Note_on_c, 11, 62, 58
10, 108840, Note_off_c, 11, 62, 64
10, 108960, Note_on_c, 11, 62, 58
10, 109200, Note_off_c, 11, 62, 64
10, 109200, Note_on_c, 11, 65, 58
10, 109392, Note_off_c, 11, 65, 64
10, 109440, Note_on_c, 11, 62, 58
10, 109632, Note_off_c, 11, 62, 64
10, 110160, Note_on_c, 11, 82, 105
10, 110160, Note_on_c, 11, 70, 105
10, 110160, Note_on_c, 11, 62, 105
10, 110352, Note_off_c, 11, 62, 64
10, 110352, Note_off_c, 11, 70, 64
10, 110592, Note_off_c, 11, 82, 64
10, 110640, Note_on_c, 11, 74, 105
10, 110718, Note_off_c, 11, 74, 64
10, 110760, Note_on_c, 11, 70, 105
10, 110838, Note_off_c, 11, 70, 64
10, 110880, Note_on_c, 11, 75, 105
10, 110958, Note_off_c, 11, 75, 64
10, 111000, Note_on_c, 11, 70, 105
10, 111078, Note_off_c, 11, 70, 64
10, 111120, Note_on_c, 11, 77, 105
10, 111198, Note_off_c, 11, 77, 64
10, 111240, Note_on_c, 11, 70, 105
10, 111318, Note_off_c, 11, 70, 64
10, 111360, Note_on_c, 11, 79, 105
10, 111438, Note_off_c, 11, 79, 64
10, 111480, Note_on_c, 11, 70, 105
10, 111558, Note_off_c, 11, 70, 64
10, 111600, Note_on_c, 11, 80, 105
10, 111984, Note_off_c, 11, 80, 64
10, 112080, Note_on_c, 11, 62, 105
10, 112158, Note_off_c, 11, 62, 64
10, 112200, Note_on_c, 11, 70, 105
10, 112278, Note_off_c, 11, 70, 64
10, 112320, Note_on_c, 11, 63, 105
10, 112398, Note_off_c, 11, 63, 64
10, 112440, Note_on_c, 11, 70, 105
10, 112518, Note_off_c, 11, 70, 64
10, 112560, Note_on_c, 11, 65, 105
10, 112638, Note_off_c, 11, 65, 64
10, 112680, Note_on_c, 11, 70, 105
10, 112758, Note_off_c, 11, 70, 64
10, 112800, Note_on_c, 11, 67, 105
10, 112878, Note_off_c, 11, 67, 64
10, 112920, Note_on_c, 11, 70, 105
10, 112998, Note_off_c, 11, 70, 64
10, 113040, Note_on_c, 11, 60, 105
10, 113160, Note_off_c, 11, 60, 64
10, 113160, Note_on_c, 11, 64, 105
10, 113238, Note_off_c, 11, 64, 64
10, 113280, Note_on_c, 11, 65, 105
10, 113358, Note_off_c, 11, 65, 64
10, 113400, Note_on_c, 11, 67, 105
10, 113478, Note_off_c, 11, 67, 64
10, 113520, Note_on_c, 11, 68, 105
10, 113598, Note_off_c, 11, 68, 64
10, 113640, Note_on_c, 11, 71, 105
10, 113718, Note_off_c, 11, 71, 64
10, 113760, Note_on_c, 11, 72, 105
10, 113880, Note_off_c, 11, 72, 64
10, 113880, Note_on_c, 11, 76, 105
10, 113958, Note_off_c, 11, 76, 64
10, 114000, Note_on_c, 11, 77, 105
10, 114078, Note_off_c, 11, 77, 64
10, 114120, Note_on_c, 11, 79, 105
10, 114198, Note_off_c, 11, 79, 64
10, 114240, Note_on_c, 11, 80, 105
10, 114318, Note_off_c, 11, 80, 64
10, 114360, Note_on_c, 11, 77, 105
10, 114438, Note_off_c, 11, 77, 64
10, 114480, Note_on_c, 11, 75, 105
10, 114600, Note_off_c, 11, 75, 64
10, 114600, Note_on_c, 11, 74, 105
10, 114696, Note_off_c, 11, 74, 64
10, 114720, Note_on_c, 11, 79, 105
10, 114840, Note_off_c, 11, 79, 64
10, 114840, Note_on_c, 11, 77, 105
10, 114936, Note_off_c, 11, 77, 64
10, 114960, Note_on_c, 11, 75, 105
10, 115080, Note_off_c, 11, 75, 64
10, 115080, Note_on_c, 11, 74, 105
10, 115176, Note_off_c, 11, 74, 64
10, 115200, Note_on_c, 11, 72, 105
10, 115320, Note_off_c, 11, 72, 64
10, 115320, Note_on_c, 11, 70, 105
10, 115440, Note_off_c, 11, 70, 64
10, 115440, Note_on_c, 11, 69, 105
10, 115560, Note_off_c, 11, 69, 64
10, 115560, Note_on_c, 11, 70, 105
10, 115680, Note_off_c, 11, 70, 64
10, 115680, Note_on_c, 11, 68, 105
10, 115800, Note_off_c, 11, 68, 64
10, 115800, Note_on_c, 11, 65, 105
10, 115896, Note_off_c, 11, 65, 64
10, 115920, Note_on_c, 11, 75, 105
10, 115920, Note_on_c, 11, 55, 105
10, 115920, Note_on_c, 11, 63, 105
10, 116112, Note_off_c, 11, 63, 64
10, 116112, Note_off_c, 11, 55, 64
10, 116544, Note_off_c, 11, 75, 64
10, 116640, Note_on_c, 11, 58, 105
10, 116718, Note_off_c, 11, 58, 64
10, 116760, Note_on_c, 11, 63, 105
10, 116838, Note_off_c, 11, 63, 64
10, 116880, Note_on_c, 11, 60, 105
10, 116958, Note_off_c, 11, 60, 64
10, 117000, Note_on_c, 11, 63, 105
10, 117078, Note_off_c, 11, 63, 64
10, 117120, Note_on_c, 11, 58, 105
10, 117198, Note_off_c, 11, 58, 64
10, 117240, Note_on_c, 11, 63, 105
10, 117318, Note_off_c, 11, 63, 64
10, 117360, Note_on_c, 11, 60, 105
10, 117438, Note_off_c, 11, 60, 64
10, 117480, Note_on_c, 11, 63, 105
10, 117558, Note_off_c, 11, 63, 64
10, 117600, Note_on_c, 11, 68, 105
10, 117678, Note_off_c, 11, 68, 64
10, 117720, Note_on_c, 11, 72, 105
10, 117798, Note_off_c, 11, 72, 64
10, 117840, Note_on_c, 11, 75, 105
10, 117918, Note_off_c, 11, 75, 64
10, 117960, Note_on_c, 11, 80, 105
10, 118038, Note_off_c, 11, 80, 64
10, 118080, Note_on_c, 11, 84, 105
10, 118272, Note_off_c, 11, 84, 64
10, 118800, Note_on_c, 11, 82, 105
10, 118800, Note_on_c, 11, 62, 105
10, 118800, Note_on_c, 11, 70, 105
10, 118992, Note_off_c, 11, 70, 64
10, 118992, Note_off_c, 11, 62, 64
10, 119424, Note_off_c, 11, 82, 64
10, 119520, Note_on_c, 11, 56, 105
10, 119598, Note_off_c, 11, 56, 64
10, 119640, Note_on_c, 11, 58, 105
10, 119718, Note_off_c, 11, 58, 64
10, 119760, Note_on_c, 11, 55, 105
10, 119838, Note_off_c, 11, 55, 64
10, 119880, Note_on_c, 11, 58, 105
10, 119958, Note_off_c, 11, 58, 64
10, 120000, Note_on_c, 11, 56, 105
10, 120078, Note_off_c, 11, 56, 64
10, 120120, Note_on_c, 11, 58, 105
10, 120198, Note_off_c, 11, 58, 64
10, 120240, Note_on_c, 11, 55, 105
10, 120318, Note_off_c, 11, 55, 64
10, 120360, Note_on_c, 11, 63, 105
10, 120438, Note_off_c, 11, 63, 64
10, 120480, Note_on_c, 11, 67, 105
10, 120558, Note_off_c, 11, 67, 64
10, 120600, Note_on_c, 11, 70, 105
10, 120678, Note_off_c, 11, 70, 64
10, 120720, Note_on_c, 11, 75, 105
10, 120798, Note_off_c, 11, 75, 64
10, 120840, Note_on_c, 11, 79, 105
10, 120918, Note_off_c, 11, 79, 64
10, 120960, Note_on_c, 11, 82, 105
10, 121152, Note_off_c, 11, 82, 64
10, 121680, Note_on_c, 11, 62, 78
10, 121800, Note_off_c, 11, 62, 64
10, 121800, Note_on_c, 11, 65, 58
10, 121920, Note_off_c, 11, 65, 64
10, 121920, Note_on_c, 11, 70, 58
10, 122040, Note_off_c, 11, 70, 64
10, 122040, Note_on_c, 11, 65, 58
10, 122160, Note_off_c, 11, 65, 64
10, 122160, Note_on_c, 11, 70, 58
10, 122280, Note_off_c, 11, 70, 64
10, 122280, Note_on_c, 11, 67, 58
10, 122388, Note_off_c, 11, 67, 64
10, 122400, Note_on_c, 11, 62, 78
10, 122520, Note_off_c, 11, 62, 64
10, 122520, Note_on_c, 11, 65, 58
10, 122640, Note_off_c, 11, 65, 64
10, 122640, Note_on_c, 11, 70, 58
10, 122760, Note_off_c, 11, 70, 64
10, 122760, Note_on_c, 11, 65, 58
10, 122880, Note_off_c, 11, 65, 64
10, 122880, Note_on_c, 11, 70, 58
10, 123000, Note_off_c, 11, 70, 64
10, 123000, Note_on_c, 11, 67, 58
10, 123108, Note_off_c, 11, 67, 64
10, 123120, Note_on_c, 11, 60, 58
10, 123240, Note_off_c, 11, 60, 64
10, 123240, Note_on_c, 11, 65, 58
10, 123360, Note_off_c, 11, 65, 64
10, 123360, Note_on_c, 11, 68, 58
10, 123480, Note_off_c, 11, 68, 64
10, 123480, Note_on_c, 11, 65, 58
10, 123600, Note_off_c, 11, 65, 64
10, 123600, Note_on_c, 11, 68, 58
10, 123720, Note_off_c, 11, 68, 64
10, 123720, Note_on_c, 11, 65, 58
10, 123828, Note_off_c, 11, 65, 64
10, 123840, Note_on_c, 11, 58, 58
10, 123960, Note_off_c, 11, 58, 64
10, 123960, Note_on_c, 11, 65, 58
10, 124080, Note_off_c, 11, 65, 64
10, 124080, Note_on_c, 11, 68, 58
10, 124200, Note_off_c, 11, 68, 64
10, 124200, Note_on_c, 11, 65, 58
10, 124320, Note_off_c, 11, 65, 64
10, 124320, Note_on_c, 11, 67, 58
10, 124440, Note_off_c, 11, 67, 64
10, 124440, Note_on_c, 11, 63, 58
10, 124548, Note_off_c, 11, 63, 64
10, 124560, Note_on_c, 11, 60, 58
10, 124680, Note_off_c, 11, 60, 64
10, 124680, Note_on_c, 11, 65, 58
10, 124800, Note_off_c, 11, 65, 64
10, 124800, Note_on_c, 11, 68, 58
10, 124920, Note_off_c, 11, 68, 64
10, 124920, Note_on_c, 11, 65, 58
10, 125040, Note_off_c, 11, 65, 64
10, 125040, Note_on_c, 11, 68, 58
10, 125160, Note_off_c, 11, 68, 64
10, 125160, Note_on_c, 11, 65, 58
10, 125268, Note_off_c, 11, 65, 64
10, 125280, Note_on_c, 11, 58, 58
10, 125400, Note_off_c, 11, 58, 64
10, 125400, Note_on_c, 11, 65, 58
10, 125520, Note_off_c, 11, 65, 64
10, 125520, Note_on_c, 11, 68, 58
10, 125640, Note_off_c, 11, 68, 64
10, 125640, Note_on_c, 11, 65, 58
10, 125760, Note_off_c, 11, 65, 64
10, 125760, Note_on_c, 11, 68, 58
10, 125880, Note_off_c, 11, 68, 64
10, 125880, Note_on_c, 11, 65, 58
10, 125988, Note_off_c, 11, 65, 64
10, 126000, Note_on_c, 11, 63, 105
10, 126120, Note_off_c, 11, 63, 64
10, 126120, Note_on_c, 11, 70, 105
10, 126216, Note_off_c, 11, 70, 64
10, 126240, Note_on_c, 11, 70, 105
10, 126360, Note_off_c, 11, 70, 64
10, 126360, Note_on_c, 11, 68, 105
10, 126456, Note_off_c, 11, 68, 64
10, 126480, Note_on_c, 11, 68, 105
10, 126600, Note_off_c, 11, 68, 64
10, 126600, Note_on_c, 11, 67, 105
10, 126696, Note_off_c, 11, 67, 64
10, 126720, Note_on_c, 11, 67, 105
10, 126840, Note_off_c, 11, 67, 64
10, 126840, Note_on_c, 11, 65, 105
10, 126936, Note_off_c, 11, 65, 64
10, 126960, Note_on_c, 11, 65, 105
10, 127080, Note_off_c, 11, 65, 64
10, 127080, Note_on_c, 11, 63, 105
10, 127176, Note_off_c, 11, 63, 64
10, 127200, Note_on_c, 11, 63, 105
10, 127320, Note_off_c, 11, 63, 64
10, 127320, Note_on_c, 11, 62, 105
10, 127416, Note_off_c, 11, 62, 64
10, 127440, Note_on_c, 11, 63, 105
10, 127560, Note_off_c, 11, 63, 64
10, 127560, Note_on_c, 11, 70, 105
10, 127656, Note_off_c, 11, 70, 64
10, 127680, Note_on_c, 11, 70, 105
10, 127800, Note_off_c, 11, 70, 64
10, 127800, Note_on_c, 11, 68, 105
10, 127896, Note_off_c, 11, 68, 64
10, 127920, Note_on_c, 11, 68, 105
10, 128040, Note_off_c, 11, 68, 64
10, 128040, Note_on_c, 11, 67, 105
10, 128136, Note_off_c, 11, 67, 64
10, 128160, Note_on_c, 11, 67, 105
10, 128280, Note_off_c, 11, 67, 64
10, 128280, Note_on_c, 11, 65, 105
10, 128376, Note_off_c, 11, 65, 64
10, 128400, Note_on_c, 11, 65, 105
10, 128520, Note_off_c, 11, 65, 64
10, 128520, Note_on_c, 11, 63, 105
10, 128616, Note_off_c, 11, 63, 64
10, 128640, Note_on_c, 11, 63, 105
10, 128760, Note_off_c, 11, 63, 64
10, 128760, Note_on_c, 11, 62, 105
10, 128856, Note_off_c, 11, 62, 64
10, 128880, Note_on_c, 11, 67, 105
10, 129000, Note_off_c, 11, 67, 64
10, 129120, Note_on_c, 11, 67, 105
10, 129360, Note_off_c, 11, 67, 64
10, 129360, Note_on_c, 11, 70, 105
10, 129552, Note_off_c, 11, 70, 64
10, 129600, Note_on_c, 11, 67, 105
10, 129792, Note_off_c, 11, 67, 64
10, 129792, End_track
11, 0, Start_track
11, 0, Program_c, 12, 48
11, 0, Control_c, 12, 7, 123
11, 0, Control_c, 12, 91, 85
11, 0, Control_c, 12, 10, 98
11, 720, Note_on_c, 12, 51, 105
11, 864, Note_off_c, 12, 51, 64
11, 960, Note_on_c, 12, 58, 105
11, 1104, Note_off_c, 12, 58, 64
11, 1200, Note_on_c, 12, 63, 105
11, 1344, Note_off_c, 12, 63, 64
11, 1440, Note_on_c, 12, 55, 105
11, 1584, Note_off_c, 12, 55, 64
11, 1680, Note_on_c, 12, 56, 105
11, 1824, Note_off_c, 12, 56, 64
11, 1920, Note_on_c, 12, 55, 105
11, 2064, Note_off_c, 12, 55, 64
11, 2160, Note_on_c, 12, 56, 105
11, 2304, Note_off_c, 12, 56, 64
11, 2400, Note_on_c, 12, 63, 105
11, 2544, Note_off_c, 12, 63, 64
11, 2640, Note_on_c, 12, 60, 105
11, 2784, Note_off_c, 12, 60, 64
11, 2880, Note_on_c, 12, 56, 105
11, 3024, Note_off_c, 12, 56, 64
11, 3600, Note_on_c, 12, 58, 105
11, 3744, Note_off_c, 12, 58, 64
11, 3840, Note_on_c, 12, 65, 105
11, 3984, Note_off_c, 12, 65, 64
11, 4080, Note_on_c, 12, 70, 105
11, 4224, Note_off_c, 12, 70, 64
11, 4320, Note_on_c, 12, 50, 105
11, 4464, Note_off_c, 12, 50, 64
11, 4560, Note_on_c, 12, 51, 105
11, 4704, Note_off_c, 12, 51, 64
11, 4800, Note_on_c, 12, 50, 105
11, 4944, Note_off_c, 12, 50, 64
11, 5040, Note_on_c, 12, 51, 105
11, 5184, Note_off_c, 12, 51, 64
11, 5280, Note_on_c, 12, 58, 105
11, 5424, Note_off_c, 12, 58, 64
11, 5520, Note_on_c, 12, 55, 105
11, 5664, Note_off_c, 12, 55, 64
11, 5760, Note_on_c, 12, 51, 105
11, 5904, Note_off_c, 12, 51, 64
11, 6480, Note_on_c, 12, 62, 78
11, 6720, Note_off_c, 12, 62, 64
11, 6720, Note_on_c, 12, 65, 58
11, 6960, Note_off_c, 12, 65, 64
11, 6960, Note_on_c, 12, 63, 58
11, 7152, Note_off_c, 12, 63, 64
11, 7200, Note_on_c, 12, 62, 78
11, 7440, Note_off_c, 12, 62, 64
11, 7440, Note_on_c, 12, 65, 58
11, 7680, Note_off_c, 12, 65, 64
11, 7680, Note_on_c, 12, 63, 58
11, 7872, Note_off_c, 12, 63, 64
11, 7920, Note_on_c, 12, 60, 58
11, 8400, Note_off_c, 12, 60, 64
11, 8400, Note_on_c, 12, 59, 58
11, 8592, Note_off_c, 12, 59, 64
11, 8640, Note_on_c, 12, 58, 58
11, 9552, Note_off_c, 12, 58, 64
11, 9840, Note_on_c, 12, 67, 58
11, 9984, Note_off_c, 12, 67, 64
11, 10080, Note_on_c, 12, 65, 58
11, 10224, Note_off_c, 12, 65, 64
11, 10560, Note_on_c, 12, 69, 58
11, 10704, Note_off_c, 12, 69, 64
11, 10800, Note_on_c, 12, 70, 58
11, 10920, Note_off_c, 12, 70, 64
11, 11040, Note_on_c, 12, 58, 58
11, 11184, Note_off_c, 12, 58, 64
11, 11280, Note_on_c, 12, 58, 58
11, 11424, Note_off_c, 12, 58, 64
11, 11520, Note_on_c, 12, 58, 58
11, 11712, Note_off_c, 12, 58, 64
11, 12240, Note_on_c, 12, 51, 105
11, 12384, Note_off_c, 12, 51, 64
11, 12480, Note_on_c, 12, 58, 105
11, 12624, Note_off_c, 12, 58, 64
11, 12720, Note_on_c, 12, 63, 105
11, 12864, Note_off_c, 12, 63, 64
11, 12960, Note_on_c, 12, 55, 105
11, 13104, Note_off_c, 12, 55, 64
11, 13200, Note_on_c, 12, 56, 105
11, 13344, Note_off_c, 12, 56, 64
11, 13440, Note_on_c, 12, 55, 105
11, 13584, Note_off_c, 12, 55, 64
11, 13680, Note_on_c, 12, 56, 105
11, 13824, Note_off_c, 12, 56, 64
11, 13920, Note_on_c, 12, 63, 105
11, 14064, Note_off_c, 12, 63, 64
11, 14160, Note_on_c, 12, 60, 105
11, 14304, Note_off_c, 12, 60, 64
11, 14400, Note_on_c, 12, 56, 105
11, 14544, Note_off_c, 12, 56, 64
11, 15120, Note_on_c, 12, 58, 105
11, 15264, Note_off_c, 12, 58, 64
11, 15360, Note_on_c, 12, 65, 105
11, 15504, Note_off_c, 12, 65, 64
11, 15600, Note_on_c, 12, 70, 105
11, 15744, Note_off_c, 12, 70, 64
11, 15840, Note_on_c, 12, 50, 105
11, 15984, Note_off_c, 12, 50, 64
11, 16080, Note_on_c, 12, 51, 105
11, 16224, Note_off_c, 12, 51, 64
11, 16320, Note_on_c, 12, 50, 105
11, 16464, Note_off_c, 12, 50, 64
11, 16560, Note_on_c, 12, 51, 105
11, 16704, Note_off_c, 12, 51, 64
11, 16800, Note_on_c, 12, 58, 105
11, 16944, Note_off_c, 12, 58, 64
11, 17040, Note_on_c, 12, 55, 105
11, 17184, Note_off_c, 12, 55, 64
11, 17280, Note_on_c, 12, 51, 105
11, 17424, Note_off_c, 12, 51, 64
11, 18000, Note_on_c, 12, 62, 78
11, 18240, Note_off_c, 12, 62, 64
11, 18240, Note_on_c, 12, 65, 58
11, 18480, Note_off_c, 12, 65, 64
11, 18480, Note_on_c, 12, 63, 58
11, 18672, Note_off_c, 12, 63, 64
11, 18720, Note_on_c, 12, 62, 78
11, 18960, Note_off_c, 12, 62, 64
11, 18960, Note_on_c, 12, 65, 58
11, 19200, Note_off_c, 12, 65, 64
11, 19200, Note_on_c, 12, 63, 58
11, 19392, Note_off_c, 12, 63, 64
11, 19440, Note_on_c, 12, 60, 58
11, 19920, Note_off_c, 12, 60, 64
11, 19920, Note_on_c, 12, 59, 58
11, 20112, Note_off_c, 12, 59, 64
11, 20160, Note_on_c, 12, 58, 58
11, 21072, Note_off_c, 12, 58, 64
11, 21360, Note_on_c, 12, 67, 58
11, 21504, Note_off_c, 12, 67, 64
11, 21600, Note_on_c, 12, 65, 58
11, 21744, Note_off_c, 12, 65, 64
11, 22080, Note_on_c, 12, 69, 58
11, 22224, Note_off_c, 12, 69, 64
11, 22320, Note_on_c, 12, 70, 58
11, 22440, Note_off_c, 12, 70, 64
11, 22560, Note_on_c, 12, 58, 58
11, 22704, Note_off_c, 12, 58, 64
11, 22800, Note_on_c, 12, 58, 58
11, 22944, Note_off_c, 12, 58, 64
11, 23040, Note_on_c, 12, 58, 58
11, 23232, Note_off_c, 12, 58, 64
11, 23760, Note_on_c, 12, 58, 105
11, 23904, Note_off_c, 12, 58, 64
11, 24000, Note_on_c, 12, 62, 105
11, 24144, Note_off_c, 12, 62, 64
11, 24240, Note_on_c, 12, 65, 105
11, 24384, Note_off_c, 12, 65, 64
11, 24480, Note_on_c, 12, 67, 105
11, 24624, Note_off_c, 12, 67, 64
11, 24720, Note_on_c, 12, 68, 105
11, 24864, Note_off_c, 12, 68, 64
11, 24960, Note_on_c, 12, 67, 105
11, 25104, Note_off_c, 12, 67, 64
11, 25200, Note_on_c, 12, 65, 105
11, 25344, Note_off_c, 12, 65, 64
11, 25440, Note_on_c, 12, 62, 105
11, 25584, Note_off_c, 12, 62, 64
11, 25680, Note_on_c, 12, 53, 105
11, 25824, Note_off_c, 12, 53, 64
11, 25920, Note_on_c, 12, 55, 105
11, 26064, Note_off_c, 12, 55, 64
11, 26160, Note_on_c, 12, 56, 105
11, 26304, Note_off_c, 12, 56, 64
11, 26400, Note_on_c, 12, 58, 105
11, 26544, Note_off_c, 12, 58, 64
11, 26640, Note_on_c, 12, 53, 105
11, 26832, Note_off_c, 12, 53, 64
11, 27360, Note_on_c, 12, 65, 105
11, 27552, Note_off_c, 12, 65, 64
11, 28080, Note_on_c, 12, 58, 105
11, 28080, Note_on_c, 12, 68, 105
11, 28272, Note_off_c, 12, 68, 64
11, 28272, Note_off_c, 12, 58, 64
11, 29520, Note_on_c, 12, 51, 105
11, 29676, Note_off_c, 12, 51, 64
11, 29760, Note_on_c, 12, 58, 105
11, 29916, Note_off_c, 12, 58, 64
11, 30000, Note_on_c, 12, 63, 105
11, 30156, Note_off_c, 12, 63, 64
11, 30240, Note_on_c, 12, 55, 105
11, 30396, Note_off_c, 12, 55, 64
11, 30480, Note_on_c, 12, 56, 105
11, 30636, Note_off_c, 12, 56, 64
11, 30720, Note_on_c, 12, 55, 105
11, 30876, Note_off_c, 12, 55, 64
11, 30960, Note_on_c, 12, 56, 105
11, 31116, Note_off_c, 12, 56, 64
11, 31200, Note_on_c, 12, 63, 105
11, 31356, Note_off_c, 12, 63, 64
11, 31440, Note_on_c, 12, 60, 105
11, 31596, Note_off_c, 12, 60, 64
11, 31680, Note_on_c, 12, 56, 105
11, 31836, Note_off_c, 12, 56, 64
11, 32400, Note_on_c, 12, 58, 105
11, 32556, Note_off_c, 12, 58, 64
11, 32640, Note_on_c, 12, 65, 105
11, 32796, Note_off_c, 12, 65, 64
11, 32880, Note_on_c, 12, 70, 105
11, 33036, Note_off_c, 12, 70, 64
11, 33120, Note_on_c, 12, 50, 105
11, 33276, Note_off_c, 12, 50, 64
11, 33360, Note_on_c, 12, 51, 105
11, 33516, Note_off_c, 12, 51, 64
11, 33600, Note_on_c, 12, 50, 105
11, 33756, Note_off_c, 12, 50, 64
11, 33840, Note_on_c, 12, 51, 105
11, 33996, Note_off_c, 12, 51, 64
11, 34080, Note_on_c, 12, 58, 105
11, 34236, Note_off_c, 12, 58, 64
11, 34320, Note_on_c, 12, 55, 105
11, 34476, Note_off_c, 12, 55, 64
11, 34560, Note_on_c, 12, 51, 105
11, 34716, Note_off_c, 12, 51, 64
11, 35280, Note_on_c, 12, 62, 78
11, 35520, Note_off_c, 12, 62, 64
11, 35520, Note_on_c, 12, 65, 58
11, 35760, Note_off_c, 12, 65, 64
11, 35760, Note_on_c, 12, 63, 58
11, 35952, Note_off_c, 12, 63, 64
11, 36000, Note_on_c, 12, 62, 78
11, 36240, Note_off_c, 12, 62, 64
11, 36240, Note_on_c, 12, 65, 58
11, 36480, Note_off_c, 12, 65, 64
11, 36480, Note_on_c, 12, 63, 58
11, 36672, Note_off_c, 12, 63, 64
11, 36720, Note_on_c, 12, 60, 58
11, 37200, Note_off_c, 12, 60, 64
11, 37200, Note_on_c, 12, 59, 58
11, 37440, Note_off_c, 12, 59, 64
11, 37440, Note_on_c, 12, 58, 58
11, 38352, Note_off_c, 12, 58, 64
11, 38880, Note_on_c, 12, 58, 30
11, 39072, Note_off_c, 12, 58, 64
11, 39600, Note_on_c, 12, 58, 105
11, 39840, Note_off_c, 12, 58, 64
11, 39840, Note_on_c, 12, 62, 105
11, 40080, Note_off_c, 12, 62, 64
11, 40080, Note_on_c, 12, 63, 105
11, 40272, Note_off_c, 12, 63, 64
11, 40320, Note_on_c, 12, 70, 105
11, 40440, Note_off_c, 12, 70, 64
11, 40440, Note_on_c, 12, 68, 105
11, 40536, Note_off_c, 12, 68, 64
11, 40560, Note_on_c, 12, 68, 105
11, 40680, Note_off_c, 12, 68, 64
11, 40680, Note_on_c, 12, 67, 105
11, 40776, Note_off_c, 12, 67, 64
11, 40800, Note_on_c, 12, 67, 105
11, 40920, Note_off_c, 12, 67, 64
11, 40920, Note_on_c, 12, 65, 105
11, 41016, Note_off_c, 12, 65, 64
11, 41040, Note_on_c, 12, 63, 105
11, 41280, Note_off_c, 12, 63, 64
11, 41280, Note_on_c, 12, 62, 105
11, 41520, Note_off_c, 12, 62, 64
11, 41520, Note_on_c, 12, 63, 105
11, 41712, Note_off_c, 12, 63, 64
11, 41760, Note_on_c, 12, 70, 105
11, 41880, Note_off_c, 12, 70, 64
11, 41880, Note_on_c, 12, 68, 105
11, 41976, Note_off_c, 12, 68, 64
11, 42000, Note_on_c, 12, 68, 105
11, 42120, Note_off_c, 12, 68, 64
11, 42120, Note_on_c, 12, 67, 105
11, 42216, Note_off_c, 12, 67, 64
11, 42240, Note_on_c, 12, 67, 105
11, 42360, Note_off_c, 12, 67, 64
11, 42360, Note_on_c, 12, 65, 105
11, 42456, Note_off_c, 12, 65, 64
11, 42480, Note_on_c, 12, 63, 105
11, 42636, Note_off_c, 12, 63, 64
11, 42720, Note_on_c, 12, 51, 105
11, 42876, Note_off_c, 12, 51, 64
11, 42960, Note_on_c, 12, 51, 105
11, 43116, Note_off_c, 12, 51, 64
11, 43200, Note_on_c, 12, 51, 105
11, 43392, Note_off_c, 12, 51, 64
11, 43920, Note_on_c, 12, 58, 105
11, 44064, Note_off_c, 12, 58, 64
11, 44160, Note_on_c, 12, 62, 105
11, 44304, Note_off_c, 12, 62, 64
11, 44400, Note_on_c, 12, 65, 105
11, 44544, Note_off_c, 12, 65, 64
11, 44640, Note_on_c, 12, 67, 105
11, 44784, Note_off_c, 12, 67, 64
11, 44880, Note_on_c, 12, 68, 105
11, 45024, Note_off_c, 12, 68, 64
11, 45120, Note_on_c, 12, 67, 105
11, 45264, Note_off_c, 12, 67, 64
11, 45360, Note_on_c, 12, 65, 105
11, 45504, Note_off_c, 12, 65, 64
11, 45600, Note_on_c, 12, 62, 105
11, 45744, Note_off_c, 12, 62, 64
11, 45840, Note_on_c, 12, 53, 105
11, 45984, Note_off_c, 12, 53, 64
11, 46080, Note_on_c, 12, 55, 105
11, 46224, Note_off_c, 12, 55, 64
11, 46320, Note_on_c, 12, 56, 105
11, 46464, Note_off_c, 12, 56, 64
11, 46560, Note_on_c, 12, 58, 105
11, 46704, Note_off_c, 12, 58, 64
11, 46800, Note_on_c, 12, 53, 105
11, 46992, Note_off_c, 12, 53, 64
11, 47520, Note_on_c, 12, 65, 105
11, 47712, Note_off_c, 12, 65, 64
11, 48240, Note_on_c, 12, 58, 105
11, 48240, Note_on_c, 12, 68, 105
11, 48432, Note_off_c, 12, 68, 64
11, 48432, Note_off_c, 12, 58, 64
11, 49680, Note_on_c, 12, 51, 105
11, 49836, Note_off_c, 12, 51, 64
11, 49920, Note_on_c, 12, 58, 105
11, 50076, Note_off_c, 12, 58, 64
11, 50160, Note_on_c, 12, 63, 105
11, 50316, Note_off_c, 12, 63, 64
11, 50400, Note_on_c, 12, 55, 105
11, 50556, Note_off_c, 12, 55, 64
11, 50640, Note_on_c, 12, 56, 105
11, 50796, Note_off_c, 12, 56, 64
11, 50880, Note_on_c, 12, 55, 105
11, 51036, Note_off_c, 12, 55, 64
11, 51120, Note_on_c, 12, 56, 105
11, 51276, Note_off_c, 12, 56, 64
11, 51360, Note_on_c, 12, 63, 105
11, 51516, Note_off_c, 12, 63, 64
11, 51600, Note_on_c, 12, 60, 105
11, 51756, Note_off_c, 12, 60, 64
11, 51840, Note_on_c, 12, 56, 105
11, 51996, Note_off_c, 12, 56, 64
11, 52560, Note_on_c, 12, 58, 105
11, 52716, Note_off_c, 12, 58, 64
11, 52800, Note_on_c, 12, 65, 105
11, 52956, Note_off_c, 12, 65, 64
11, 53040, Note_on_c, 12, 70, 105
11, 53196, Note_off_c, 12, 70, 64
11, 53280, Note_on_c, 12, 50, 105
11, 53436, Note_off_c, 12, 50, 64
11, 53520, Note_on_c, 12, 51, 105
11, 53676, Note_off_c, 12, 51, 64
11, 53760, Note_on_c, 12, 50, 105
11, 53916, Note_off_c, 12, 50, 64
11, 54000, Note_on_c, 12, 51, 105
11, 54156, Note_off_c, 12, 51, 64
11, 54240, Note_on_c, 12, 58, 105
11, 54396, Note_off_c, 12, 58, 64
11, 54480, Note_on_c, 12, 55, 105
11, 54636, Note_off_c, 12, 55, 64
11, 54720, Note_on_c, 12, 51, 105
11, 54876, Note_off_c, 12, 51, 64
11, 55440, Note_on_c, 12, 62, 78
11, 55680, Note_off_c, 12, 62, 64
11, 55680, Note_on_c, 12, 65, 58
11, 55920, Note_off_c, 12, 65, 64
11, 55920, Note_on_c, 12, 63, 58
11, 56112, Note_off_c, 12, 63, 64
11, 56160, Note_on_c, 12, 62, 78
11, 56400, Note_off_c, 12, 62, 64
11, 56400, Note_on_c, 12, 65, 58
11, 56640, Note_off_c, 12, 65, 64
11, 56640, Note_on_c, 12, 63, 58
11, 56832, Note_off_c, 12, 63, 64
11, 56880, Note_on_c, 12, 60, 58
11, 57360, Note_off_c, 12, 60, 64
11, 57360, Note_on_c, 12, 59, 58
11, 57600, Note_off_c, 12, 59, 64
11, 57600, Note_on_c, 12, 58, 58
11, 58512, Note_off_c, 12, 58, 64
11, 59040, Note_on_c, 12, 58, 30
11, 59232, Note_off_c, 12, 58, 64
11, 59760, Note_on_c, 12, 58, 105
11, 60000, Note_off_c, 12, 58, 64
11, 60000, Note_on_c, 12, 62, 105
11, 60240, Note_off_c, 12, 62, 64
11, 60240, Note_on_c, 12, 63, 105
11, 60432, Note_off_c, 12, 63, 64
11, 60480, Note_on_c, 12, 70, 105
11, 60600, Note_off_c, 12, 70, 64
11, 60600, Note_on_c, 12, 68, 105
11, 60696, Note_off_c, 12, 68, 64
11, 60720, Note_on_c, 12, 68, 105
11, 60840, Note_off_c, 12, 68, 64
11, 60840, Note_on_c, 12, 67, 105
11, 60936, Note_off_c, 12, 67, 64
11, 60960, Note_on_c, 12, 67, 105
11, 61080, Note_off_c, 12, 67, 64
11, 61080, Note_on_c, 12, 65, 105
11, 61176, Note_off_c, 12, 65, 64
11, 61200, Note_on_c, 12, 63, 105
11, 61440, Note_off_c, 12, 63, 64
11, 61440, Note_on_c, 12, 62, 105
11, 61680, Note_off_c, 12, 62, 64
11, 61680, Note_on_c, 12, 63, 105
11, 61872, Note_off_c, 12, 63, 64
11, 61920, Note_on_c, 12, 70, 105
11, 62040, Note_off_c, 12, 70, 64
11, 62040, Note_on_c, 12, 68, 105
11, 62136, Note_off_c, 12, 68, 64
11, 62160, Note_on_c, 12, 68, 105
11, 62280, Note_off_c, 12, 68, 64
11, 62280, Note_on_c, 12, 67, 105
11, 62376, Note_off_c, 12, 67, 64
11, 62400, Note_on_c, 12, 67, 105
11, 62520, Note_off_c, 12, 67, 64
11, 62520, Note_on_c, 12, 65, 105
11, 62616, Note_off_c, 12, 65, 64
11, 62640, Note_on_c, 12, 63, 105
11, 62796, Note_off_c, 12, 63, 64
11, 62880, Note_on_c, 12, 51, 105
11, 63036, Note_off_c, 12, 51, 64
11, 63120, Note_on_c, 12, 51, 105
11, 63276, Note_off_c, 12, 51, 64
11, 63360, Note_on_c, 12, 51, 105
11, 63552, Note_off_c, 12, 51, 64
11, 64320, Note_on_c, 12, 58, 58
11, 64512, Note_off_c, 12, 58, 64
11, 64560, Note_on_c, 12, 58, 58
11, 64752, Note_off_c, 12, 58, 64
11, 65040, Note_on_c, 12, 58, 58
11, 65232, Note_off_c, 12, 58, 64
11, 65280, Note_on_c, 12, 58, 58
11, 65472, Note_off_c, 12, 58, 64
11, 65760, Note_on_c, 12, 58, 58
11, 65952, Note_off_c, 12, 58, 64
11, 66000, Note_on_c, 12, 58, 58
11, 66192, Note_off_c, 12, 58, 64
11, 66240, Note_on_c, 12, 58, 58
11, 66432, Note_off_c, 12, 58, 64
11, 67200, Note_on_c, 12, 58, 58
11, 67392, Note_off_c, 12, 58, 64
11, 67440, Note_on_c, 12, 58, 58
11, 67632, Note_off_c, 12, 58, 64
11, 67920, Note_on_c, 12, 58, 58
11, 68112, Note_off_c, 12, 58, 64
11, 68160, Note_on_c, 12, 58, 58
11, 68352, Note_off_c, 12, 58, 64
11, 68400, Note_on_c, 12, 58, 58
11, 68880, Note_off_c, 12, 58, 64
11, 68880, Note_on_c, 12, 56, 58
11, 69072, Note_off_c, 12, 56, 64
11, 69120, Note_on_c, 12, 55, 58
11, 69312, Note_off_c, 12, 55, 64
11, 70080, Note_on_c, 12, 58, 58
11, 70272, Note_off_c, 12, 58, 64
11, 70320, Note_on_c, 12, 58, 58
11, 70512, Note_off_c, 12, 58, 64
11, 70800, Note_on_c, 12, 58, 58
11, 70992, Note_off_c, 12, 58, 64
11, 71040, Note_on_c, 12, 58, 58
11, 71232, Note_off_c, 12, 58, 64
11, 71520, Note_on_c, 12, 58, 58
11, 71712, Note_off_c, 12, 58, 64
11, 71760, Note_on_c, 12, 58, 58
11, 71952, Note_off_c, 12, 58, 64
11, 72000, Note_on_c, 12, 58, 58
11, 72192, Note_off_c, 12, 58, 64
11, 72960, Note_on_c, 12, 58, 58
11, 73152, Note_off_c, 12, 58, 64
11, 73200, Note_on_c, 12, 58, 58
11, 73392, Note_off_c, 12, 58, 64
11, 73680, Note_on_c, 12, 58, 58
11, 73872, Note_off_c, 12, 58, 64
11, 73920, Note_on_c, 12, 58, 58
11, 74112, Note_off_c, 12, 58, 64
11, 74160, Note_on_c, 12, 58, 58
11, 74640, Note_off_c, 12, 58, 64
11, 74640, Note_on_c, 12, 56, 58
11, 74832, Note_off_c, 12, 56, 64
11, 74880, Note_on_c, 12, 55, 58
11, 75072, Note_off_c, 12, 55, 64
11, 75600, Note_on_c, 12, 63, 58
11, 76320, Note_off_c, 12, 63, 64
11, 76320, Note_on_c, 12, 62, 58
11, 76968, Note_off_c, 12, 62, 64
11, 77040, Note_on_c, 12, 60, 58
11, 77520, Note_off_c, 12, 60, 64
11, 77520, Note_on_c, 12, 58, 58
11, 77760, Note_off_c, 12, 58, 64
11, 77760, Note_on_c, 12, 57, 58
11, 78480, Note_off_c, 12, 57, 64
11, 78480, Note_on_c, 12, 58, 58
11, 78672, Note_off_c, 12, 58, 64
11, 79200, Note_on_c, 12, 53, 58
11, 79920, Note_off_c, 12, 53, 64
11, 79920, Note_on_c, 12, 58, 58
11, 80112, Note_off_c, 12, 58, 64
11, 81600, Note_on_c, 12, 51, 58
11, 81792, Note_off_c, 12, 51, 64
11, 81840, Note_on_c, 12, 51, 58
11, 82032, Note_off_c, 12, 51, 64
11, 82320, Note_on_c, 12, 51, 58
11, 82512, Note_off_c, 12, 51, 64
11, 82560, Note_on_c, 12, 51, 58
11, 82752, Note_off_c, 12, 51, 64
11, 83040, Note_on_c, 12, 50, 58
11, 83232, Note_off_c, 12, 50, 64
11, 83280, Note_on_c, 12, 50, 58
11, 83472, Note_off_c, 12, 50, 64
11, 83520, Note_on_c, 12, 50, 58
11, 83712, Note_off_c, 12, 50, 64
11, 84480, Note_on_c, 12, 50, 58
11, 84672, Note_off_c, 12, 50, 64
11, 84720, Note_on_c, 12, 50, 58
11, 84912, Note_off_c, 12, 50, 64
11, 85200, Note_on_c, 12, 50, 58
11, 85392, Note_off_c, 12, 50, 64
11, 85440, Note_on_c, 12, 50, 58
11, 85632, Note_off_c, 12, 50, 64
11, 85680, Note_on_c, 12, 51, 58
11, 86160, Note_off_c, 12, 51, 64
11, 86160, Note_on_c, 12, 56, 58
11, 86352, Note_off_c, 12, 56, 64
11, 86400, Note_on_c, 12, 55, 58
11, 86592, Note_off_c, 12, 55, 64
11, 87120, Note_on_c, 12, 63, 58
11, 87840, Note_off_c, 12, 63, 64
11, 87840, Note_on_c, 12, 62, 58
11, 88488, Note_off_c, 12, 62, 64
11, 88560, Note_on_c, 12, 60, 58
11, 89040, Note_off_c, 12, 60, 64
11, 89040, Note_on_c, 12, 58, 58
11, 89280, Note_off_c, 12, 58, 64
11, 89280, Note_on_c, 12, 57, 58
11, 90000, Note_off_c, 12, 57, 64
11, 90000, Note_on_c, 12, 58, 58
11, 90192, Note_off_c, 12, 58, 64
11, 90720, Note_on_c, 12, 53, 58
11, 91440, Note_off_c, 12, 53, 64
11, 91440, Note_on_c, 12, 58, 58
11, 91632, Note_off_c, 12, 58, 64
11, 93120, Note_on_c, 12, 51, 58
11, 93312, Note_off_c, 12, 51, 64
11, 93360, Note_on_c, 12, 51, 58
11, 93552, Note_off_c, 12, 51, 64
11, 93840, Note_on_c, 12, 51, 58
11, 94032, Note_off_c, 12, 51, 64
11, 94080, Note_on_c, 12, 51, 58
11, 94272, Note_off_c, 12, 51, 64
11, 94560, Note_on_c, 12, 50, 58
11, 94752, Note_off_c, 12, 50, 64
11, 94800, Note_on_c, 12, 50, 58
11, 94992, Note_off_c, 12, 50, 64
11, 95040, Note_on_c, 12, 50, 58
11, 95232, Note_off_c, 12, 50, 64
11, 96000, Note_on_c, 12, 50, 58
11, 96192, Note_off_c, 12, 50, 64
11, 96240, Note_on_c, 12, 50, 58
11, 96432, Note_off_c, 12, 50, 64
11, 96720, Note_on_c, 12, 50, 58
11, 96912, Note_off_c, 12, 50, 64
11, 96960, Note_on_c, 12, 50, 58
11, 97152, Note_off_c, 12, 50, 64
11, 97200, Note_on_c, 12, 51, 58
11, 97680, Note_off_c, 12, 51, 64
11, 97680, Note_on_c, 12, 56, 58
11, 97872, Note_off_c, 12, 56, 64
11, 97920, Note_on_c, 12, 55, 58
11, 98112, Note_off_c, 12, 55, 64
11, 98640, Note_on_c, 12, 51, 105
11, 98784, Note_off_c, 12, 51, 64
11, 98880, Note_on_c, 12, 58, 105
11, 99024, Note_off_c, 12, 58, 64
11, 99120, Note_on_c, 12, 63, 105
11, 99264, Note_off_c, 12, 63, 64
11, 99360, Note_on_c, 12, 55, 105
11, 99504, Note_off_c, 12, 55, 64
11, 99600, Note_on_c, 12, 56, 105
11, 99744, Note_off_c, 12, 56, 64
11, 99840, Note_on_c, 12, 55, 105
11, 99984, Note_off_c, 12, 55, 64
11, 100080, Note_on_c, 12, 56, 105
11, 100224, Note_off_c, 12, 56, 64
11, 100320, Note_on_c, 12, 63, 105
11, 100464, Note_off_c, 12, 63, 64
11, 100560, Note_on_c, 12, 60, 105
11, 100704, Note_off_c, 12, 60, 64
11, 100800, Note_on_c, 12, 56, 105
11, 100944, Note_off_c, 12, 56, 64
11, 101520, Note_on_c, 12, 58, 105
11, 101664, Note_off_c, 12, 58, 64
11, 101760, Note_on_c, 12, 65, 105
11, 101904, Note_off_c, 12, 65, 64
11, 102000, Note_on_c, 12, 70, 105
11, 102144, Note_off_c, 12, 70, 64
11, 102240, Note_on_c, 12, 50, 105
11, 102384, Note_off_c, 12, 50, 64
11, 102480, Note_on_c, 12, 51, 105
11, 102624, Note_off_c, 12, 51, 64
11, 102720, Note_on_c, 12, 50, 105
11, 102864, Note_off_c, 12, 50, 64
11, 102960, Note_on_c, 12, 51, 105
11, 103104, Note_off_c, 12, 51, 64
11, 103200, Note_on_c, 12, 58, 105
11, 103344, Note_off_c, 12, 58, 64
11, 103440, Note_on_c, 12, 55, 105
11, 103584, Note_off_c, 12, 55, 64
11, 103680, Note_on_c, 12, 51, 105
11, 103824, Note_off_c, 12, 51, 64
11, 104400, Note_on_c, 12, 62, 78
11, 104640, Note_off_c, 12, 62, 64
11, 104640, Note_on_c, 12, 65, 58
11, 104880, Note_off_c, 12, 65, 64
11, 104880, Note_on_c, 12, 63, 58
11, 105072, Note_off_c, 12, 63, 64
11, 105120, Note_on_c, 12, 62, 78
11, 105360, Note_off_c, 12, 62, 64
11, 105360, Note_on_c, 12, 65, 58
11, 105600, Note_off_c, 12, 65, 64
11, 105600, Note_on_c, 12, 63, 58
11, 105792, Note_off_c, 12, 63, 64
11, 105840, Note_on_c, 12, 60, 58
11, 106320, Note_off_c, 12, 60, 64
11, 106320, Note_on_c, 12, 59, 58
11, 106512, Note_off_c, 12, 59, 64
11, 106560, Note_on_c, 12, 58, 58
11, 107472, Note_off_c, 12, 58, 64
11, 107760, Note_on_c, 12, 67, 58
11, 107904, Note_off_c, 12, 67, 64
11, 108000, Note_on_c, 12, 65, 58
11, 108144, Note_off_c, 12, 65, 64
11, 108480, Note_on_c, 12, 69, 58
11, 108624, Note_off_c, 12, 69, 64
11, 108720, Note_on_c, 12, 70, 58
11, 108840, Note_off_c, 12, 70, 64
11, 108960, Note_on_c, 12, 58, 58
11, 109104, Note_off_c, 12, 58, 64
11, 109200, Note_on_c, 12, 58, 58
11, 109344, Note_off_c, 12, 58, 64
11, 109440, Note_on_c, 12, 58, 58
11, 109632, Note_off_c, 12, 58, 64
11, 110160, Note_on_c, 12, 58, 105
11, 110304, Note_off_c, 12, 58, 64
11, 110400, Note_on_c, 12, 62, 105
11, 110544, Note_off_c, 12, 62, 64
11, 110640, Note_on_c, 12, 65, 105
11, 110784, Note_off_c, 12, 65, 64
11, 110880, Note_on_c, 12, 67, 105
11, 111024, Note_off_c, 12, 67, 64
11, 111120, Note_on_c, 12, 68, 105
11, 111264, Note_off_c, 12, 68, 64
11, 111360, Note_on_c, 12, 67, 105
11, 111504, Note_off_c, 12, 67, 64
11, 111600, Note_on_c, 12, 65, 105
11, 111744, Note_off_c, 12, 65, 64
11, 111840, Note_on_c, 12, 62, 105
11, 111984, Note_off_c, 12, 62, 64
11, 112080, Note_on_c, 12, 53, 105
11, 112224, Note_off_c, 12, 53, 64
11, 112320, Note_on_c, 12, 55, 105
11, 112464, Note_off_c, 12, 55, 64
11, 112560, Note_on_c, 12, 56, 105
11, 112704, Note_off_c, 12, 56, 64
11, 112800, Note_on_c, 12, 58, 105
11, 112944, Note_off_c, 12, 58, 64
11, 113040, Note_on_c, 12, 53, 105
11, 113232, Note_off_c, 12, 53, 64
11, 113760, Note_on_c, 12, 65, 105
11, 113952, Note_off_c, 12, 65, 64
11, 114480, Note_on_c, 12, 58, 105
11, 114480, Note_on_c, 12, 68, 105
11, 114672, Note_off_c, 12, 68, 64
11, 114672, Note_off_c, 12, 58, 64
11, 115920, Note_on_c, 12, 51, 105
11, 116076, Note_off_c, 12, 51, 64
11, 116160, Note_on_c, 12, 58, 105
11, 116316, Note_off_c, 12, 58, 64
11, 116400, Note_on_c, 12, 63, 105
11, 116556, Note_off_c, 12, 63, 64
11, 116640, Note_on_c, 12, 55, 105
11, 116796, Note_off_c, 12, 55, 64
11, 116880, Note_on_c, 12, 56, 105
11, 117036, Note_off_c, 12, 56, 64
11, 117120, Note_on_c, 12, 55, 105
11, 117276, Note_off_c, 12, 55, 64
11, 117360, Note_on_c, 12, 56, 105
11, 117516, Note_off_c, 12, 56, 64
11, 117600, Note_on_c, 12, 63, 105
11, 117756, Note_off_c, 12, 63, 64
11, 117840, Note_on_c, 12, 60, 105
11, 117996, Note_off_c, 12, 60, 64
11, 118080, Note_on_c, 12, 56, 105
11, 118236, Note_off_c, 12, 56, 64
11, 118800, Note_on_c, 12, 58, 105
11, 118956, Note_off_c, 12, 58, 64
11, 119040, Note_on_c, 12, 65, 105
11, 119196, Note_off_c, 12, 65, 64
11, 119280, Note_on_c, 12, 70, 105
11, 119436, Note_off_c, 12, 70, 64
11, 119520, Note_on_c, 12, 50, 105
11, 119676, Note_off_c, 12, 50, 64
11, 119760, Note_on_c, 12, 51, 105
11, 119916, Note_off_c, 12, 51, 64
11, 120000, Note_on_c, 12, 50, 105
11, 120156, Note_off_c, 12, 50, 64
11, 120240, Note_on_c, 12, 51, 105
11, 120396, Note_off_c, 12, 51, 64
11, 120480, Note_on_c, 12, 58, 105
11, 120636, Note_off_c, 12, 58, 64
11, 120720, Note_on_c, 12, 55, 105
11, 120876, Note_off_c, 12, 55, 64
11, 120960, Note_on_c, 12, 51, 105
11, 121116, Note_off_c, 12, 51, 64
11, 121680, Note_on_c, 12, 62, 78
11, 121920, Note_off_c, 12, 62, 64
11, 121920, Note_on_c, 12, 65, 58
11, 122160, Note_off_c, 12, 65, 64
11, 122160, Note_on_c, 12, 63, 58
11, 122352, Note_off_c, 12, 63, 64
11, 122400, Note_on_c, 12, 62, 78
11, 122640, Note_off_c, 12, 62, 64
11, 122640, Note_on_c, 12, 65, 58
11, 122880, Note_off_c, 12, 65, 64
11, 122880, Note_on_c, 12, 63, 58
11, 123072, Note_off_c, 12, 63, 64
11, 123120, Note_on_c, 12, 60, 58
11, 123600, Note_off_c, 12, 60, 64
11, 123600, Note_on_c, 12, 59, 58
11, 123840, Note_off_c, 12, 59, 64
11, 123840, Note_on_c, 12, 58, 58
11, 124752, Note_off_c, 12, 58, 64
11, 125280, Note_on_c, 12, 58, 30
11, 125472, Note_off_c, 12, 58, 64
11, 126000, Note_on_c, 12, 58, 105
11, 126240, Note_off_c, 12, 58, 64
11, 126240, Note_on_c, 12, 62, 105
11, 126480, Note_off_c, 12, 62, 64
11, 126480, Note_on_c, 12, 63, 105
11, 126672, Note_off_c, 12, 63, 64
11, 126720, Note_on_c, 12, 70, 105
11, 126840, Note_off_c, 12, 70, 64
11, 126840, Note_on_c, 12, 68, 105
11, 126936, Note_off_c, 12, 68, 64
11, 126960, Note_on_c, 12, 68, 105
11, 127080, Note_off_c, 12, 68, 64
11, 127080, Note_on_c, 12, 67, 105
11, 127176, Note_off_c, 12, 67, 64
11, 127200, Note_on_c, 12, 67, 105
11, 127320, Note_off_c, 12, 67, 64
11, 127320, Note_on_c, 12, 65, 105
11, 127416, Note_off_c, 12, 65, 64
11, 127440, Note_on_c, 12, 63, 105
11, 127680, Note_off_c, 12, 63, 64
11, 127680, Note_on_c, 12, 62, 105
11, 127920, Note_off_c, 12, 62, 64
11, 127920, Note_on_c, 12, 63, 105
11, 128112, Note_off_c, 12, 63, 64
11, 128160, Note_on_c, 12, 70, 105
11, 128280, Note_off_c, 12, 70, 64
11, 128280, Note_on_c, 12, 68, 105
11, 128376, Note_off_c, 12, 68, 64
11, 128400, Note_on_c, 12, 68, 105
11, 128520, Note_off_c, 12, 68, 64
11, 128520, Note_on_c, 12, 67, 105
11, 128616, Note_off_c, 12, 67, 64
11, 128640, Note_on_c, 12, 67, 105
11, 128760, Note_off_c, 12, 67, 64
11, 128760, Note_on_c, 12, 65, 105
11, 128856, Note_off_c, 12, 65, 64
11, 128880, Note_on_c, 12, 63, 105
11, 129036, Note_off_c, 12, 63, 64
11, 129120, Note_on_c, 12, 51, 105
11, 129276, Note_off_c, 12, 51, 64
11, 129360, Note_on_c, 12, 51, 105
11, 129516, Note_off_c, 12, 51, 64
11, 129600, Note_on_c, 12, 51, 105
11, 129792, Note_off_c, 12, 51, 64
11, 129792, End_track
12, 0, Start_track
12, 0, Program_c, 13, 48
12, 0, Control_c, 13, 7, 124
12, 0, Control_c, 13, 91, 85
12, 0, Control_c, 13, 10, 84
12, 720, Note_on_c, 13, 39, 105
12, 864, Note_off_c, 13, 39, 64
12, 960, Note_on_c, 13, 46, 105
12, 1104, Note_off_c, 13, 46, 64
12, 1200, Note_on_c, 13, 51, 105
12, 1344, Note_off_c, 13, 51, 64
12, 1440, Note_on_c, 13, 55, 105
12, 1584, Note_off_c, 13, 55, 64
12, 1680, Note_on_c, 13, 56, 105
12, 1824, Note_off_c, 13, 56, 64
12, 1920, Note_on_c, 13, 55, 105
12, 2064, Note_off_c, 13, 55, 64
12, 2160, Note_on_c, 13, 56, 105
12, 2304, Note_off_c, 13, 56, 64
12, 2400, Note_on_c, 13, 51, 105
12, 2544, Note_off_c, 13, 51, 64
12, 2640, Note_on_c, 13, 48, 105
12, 2784, Note_off_c, 13, 48, 64
12, 2880, Note_on_c, 13, 44, 105
12, 3024, Note_off_c, 13, 44, 64
12, 3600, Note_on_c, 13, 46, 105
12, 3744, Note_off_c, 13, 46, 64
12, 3840, Note_on_c, 13, 50, 105
12, 3984, Note_off_c, 13, 50, 64
12, 4080, Note_on_c, 13, 58, 105
12, 4224, Note_off_c, 13, 58, 64
12, 4320, Note_on_c, 13, 62, 105
12, 4464, Note_off_c, 13, 62, 64
12, 4560, Note_on_c, 13, 63, 105
12, 4704, Note_off_c, 13, 63, 64
12, 4800, Note_on_c, 13, 62, 105
12, 4944, Note_off_c, 13, 62, 64
12, 5040, Note_on_c, 13, 63, 105
12, 5184, Note_off_c, 13, 63, 64
12, 5280, Note_on_c, 13, 58, 105
12, 5424, Note_off_c, 13, 58, 64
12, 5520, Note_on_c, 13, 55, 105
12, 5664, Note_off_c, 13, 55, 64
12, 5760, Note_on_c, 13, 51, 105
12, 5904, Note_off_c, 13, 51, 64
12, 6480, Note_on_c, 13, 56, 78
12, 6960, Note_off_c, 13, 56, 64
12, 6960, Note_on_c, 13, 55, 58
12, 7152, Note_off_c, 13, 55, 64
12, 7200, Note_on_c, 13, 56, 78
12, 7680, Note_off_c, 13, 56, 64
12, 7680, Note_on_c, 13, 55, 58
12, 7872, Note_off_c, 13, 55, 64
12, 7920, Note_on_c, 13, 53, 58
12, 8064, Note_off_c, 13, 53, 64
12, 8160, Note_on_c, 13, 53, 58
12, 8304, Note_off_c, 13, 53, 64
12, 8400, Note_on_c, 13, 51, 58
12, 8544, Note_off_c, 13, 51, 64
12, 8640, Note_on_c, 13, 50, 58
12, 9120, Note_off_c, 13, 50, 64
12, 9120, Note_on_c, 13, 51, 58
12, 9264, Note_off_c, 13, 51, 64
12, 9360, Note_on_c, 13, 50, 58
12, 9504, Note_off_c, 13, 50, 64
12, 9840, Note_on_c, 13, 51, 58
12, 9984, Note_off_c, 13, 51, 64
12, 10080, Note_on_c, 13, 53, 58
12, 10224, Note_off_c, 13, 53, 64
12, 10560, Note_on_c, 13, 41, 58
12, 10704, Note_off_c, 13, 41, 64
12, 10800, Note_on_c, 13, 46, 58
12, 10944, Note_off_c, 13, 46, 64
12, 11040, Note_on_c, 13, 46, 58
12, 11184, Note_off_c, 13, 46, 64
12, 11280, Note_on_c, 13, 46, 58
12, 11424, Note_off_c, 13, 46, 64
12, 11520, Note_on_c, 13, 46, 58
12, 11712, Note_off_c, 13, 46, 64
12, 12240, Note_on_c, 13, 39, 105
12, 12384, Note_off_c, 13, 39, 64
12, 12480, Note_on_c, 13, 46, 105
12, 12624, Note_off_c, 13, 46, 64
12, 12720, Note_on_c, 13, 51, 105
12, 12864, Note_off_c, 13, 51, 64
12, 12960, Note_on_c, 13, 55, 105
12, 13104, Note_off_c, 13, 55, 64
12, 13200, Note_on_c, 13, 56, 105
12, 13344, Note_off_c, 13, 56, 64
12, 13440, Note_on_c, 13, 55, 105
12, 13584, Note_off_c, 13, 55, 64
12, 13680, Note_on_c, 13, 56, 105
12, 13824, Note_off_c, 13, 56, 64
12, 13920, Note_on_c, 13, 51, 105
12, 14064, Note_off_c, 13, 51, 64
12, 14160, Note_on_c, 13, 48, 105
12, 14304, Note_off_c, 13, 48, 64
12, 14400, Note_on_c, 13, 44, 105
12, 14544, Note_off_c, 13, 44, 64
12, 15120, Note_on_c, 13, 46, 105
12, 15264, Note_off_c, 13, 46, 64
12, 15360, Note_on_c, 13, 50, 105
12, 15504, Note_off_c, 13, 50, 64
12, 15600, Note_on_c, 13, 58, 105
12, 15744, Note_off_c, 13, 58, 64
12, 15840, Note_on_c, 13, 62, 105
12, 15984, Note_off_c, 13, 62, 64
12, 16080, Note_on_c, 13, 63, 105
12, 16224, Note_off_c, 13, 63, 64
12, 16320, Note_on_c, 13, 62, 105
12, 16464, Note_off_c, 13, 62, 64
12, 16560, Note_on_c, 13, 63, 105
12, 16704, Note_off_c, 13, 63, 64
12, 16800, Note_on_c, 13, 58, 105
12, 16944, Note_off_c, 13, 58, 64
12, 17040, Note_on_c, 13, 55, 105
12, 17184, Note_off_c, 13, 55, 64
12, 17280, Note_on_c, 13, 51, 105
12, 17424, Note_off_c, 13, 51, 64
12, 18000, Note_on_c, 13, 56, 78
12, 18480, Note_off_c, 13, 56, 64
12, 18480, Note_on_c, 13, 55, 58
12, 18672, Note_off_c, 13, 55, 64
12, 18720, Note_on_c, 13, 56, 78
12, 19200, Note_off_c, 13, 56, 64
12, 19200, Note_on_c, 13, 55, 58
12, 19392, Note_off_c, 13, 55, 64
12, 19440, Note_on_c, 13, 53, 58
12, 19584, Note_off_c, 13, 53, 64
12, 19680, Note_on_c, 13, 53, 58
12, 19824, Note_off_c, 13, 53, 64
12, 19920, Note_on_c, 13, 51, 58
12, 20064, Note_off_c, 13, 51, 64
12, 20160, Note_on_c, 13, 50, 58
12, 20640, Note_off_c, 13, 50, 64
12, 20640, Note_on_c, 13, 51, 58
12, 20784, Note_off_c, 13, 51, 64
12, 20880, Note_on_c, 13, 50, 58
12, 21024, Note_off_c, 13, 50, 64
12, 21360, Note_on_c, 13, 51, 58
12, 21504, Note_off_c, 13, 51, 64
12, 21600, Note_on_c, 13, 53, 58
12, 21744, Note_off_c, 13, 53, 64
12, 22080, Note_on_c, 13, 41, 58
12, 22224, Note_off_c, 13, 41, 64
12, 22320, Note_on_c, 13, 46, 58
12, 22464, Note_off_c, 13, 46, 64
12, 22560, Note_on_c, 13, 46, 58
12, 22704, Note_off_c, 13, 46, 64
12, 22800, Note_on_c, 13, 46, 58
12, 22944, Note_off_c, 13, 46, 64
12, 23040, Note_on_c, 13, 46, 58
12, 23232, Note_off_c, 13, 46, 64
12, 23760, Note_on_c, 13, 46, 105
12, 23904, Note_off_c, 13, 46, 64
12, 24000, Note_on_c, 13, 58, 105
12, 24144, Note_off_c, 13, 58, 64
12, 24240, Note_on_c, 13, 56, 105
12, 24384, Note_off_c, 13, 56, 64
12, 24480, Note_on_c, 13, 55, 105
12, 24624, Note_off_c, 13, 55, 64
12, 24720, Note_on_c, 13, 53, 105
12, 24864, Note_off_c, 13, 53, 64
12, 24960, Note_on_c, 13, 51, 105
12, 25104, Note_off_c, 13, 51, 64
12, 25200, Note_on_c, 13, 50, 105
12, 25344, Note_off_c, 13, 50, 64
12, 25440, Note_on_c, 13, 46, 105
12, 25584, Note_off_c, 13, 46, 64
12, 25680, Note_on_c, 13, 44, 105
12, 25824, Note_off_c, 13, 44, 64
12, 25920, Note_on_c, 13, 43, 105
12, 26064, Note_off_c, 13, 43, 64
12, 26160, Note_on_c, 13, 41, 105
12, 26304, Note_off_c, 13, 41, 64
12, 26400, Note_on_c, 13, 39, 105
12, 26544, Note_off_c, 13, 39, 64
12, 26640, Note_on_c, 13, 44, 105
12, 26832, Note_off_c, 13, 44, 64
12, 27360, Note_on_c, 13, 56, 105
12, 27552, Note_off_c, 13, 56, 64
12, 28080, Note_on_c, 13, 58, 105
12, 28272, Note_off_c, 13, 58, 64
12, 29520, Note_on_c, 13, 39, 105
12, 29676, Note_off_c, 13, 39, 64
12, 29760, Note_on_c, 13, 46, 105
12, 29916, Note_off_c, 13, 46, 64
12, 30000, Note_on_c, 13, 51, 105
12, 30156, Note_off_c, 13, 51, 64
12, 30240, Note_on_c, 13, 55, 105
12, 30396, Note_off_c, 13, 55, 64
12, 30480, Note_on_c, 13, 56, 105
12, 30636, Note_off_c, 13, 56, 64
12, 30720, Note_on_c, 13, 55, 105
12, 30876, Note_off_c, 13, 55, 64
12, 30960, Note_on_c, 13, 56, 105
12, 31116, Note_off_c, 13, 56, 64
12, 31200, Note_on_c, 13, 51, 105
12, 31356, Note_off_c, 13, 51, 64
12, 31440, Note_on_c, 13, 48, 105
12, 31596, Note_off_c, 13, 48, 64
12, 31680, Note_on_c, 13, 44, 105
12, 31836, Note_off_c, 13, 44, 64
12, 32400, Note_on_c, 13, 46, 105
12, 32556, Note_off_c, 13, 46, 64
12, 32640, Note_on_c, 13, 53, 105
12, 32796, Note_off_c, 13, 53, 64
12, 32880, Note_on_c, 13, 58, 105
12, 33036, Note_off_c, 13, 58, 64
12, 33120, Note_on_c, 13, 62, 105
12, 33276, Note_off_c, 13, 62, 64
12, 33360, Note_on_c, 13, 63, 105
12, 33516, Note_off_c, 13, 63, 64
12, 33600, Note_on_c, 13, 62, 105
12, 33756, Note_off_c, 13, 62, 64
12, 33840, Note_on_c, 13, 63, 105
12, 33996, Note_off_c, 13, 63, 64
12, 34080, Note_on_c, 13, 58, 105
12, 34236, Note_off_c, 13, 58, 64
12, 34320, Note_on_c, 13, 55, 105
12, 34476, Note_off_c, 13, 55, 64
12, 34560, Note_on_c, 13, 51, 105
12, 34716, Note_off_c, 13, 51, 64
12, 35280, Note_on_c, 13, 56, 78
12, 35760, Note_off_c, 13, 56, 64
12, 35760, Note_on_c, 13, 55, 58
12, 35952, Note_off_c, 13, 55, 64
12, 36000, Note_on_c, 13, 56, 78
12, 36480, Note_off_c, 13, 56, 64
12, 36480, Note_on_c, 13, 55, 58
12, 36672, Note_off_c, 13, 55, 64
12, 36720, Note_on_c, 13, 53, 58
12, 36864, Note_off_c, 13, 53, 64
12, 36960, Note_on_c, 13, 53, 58
12, 37104, Note_off_c, 13, 53, 64
12, 37200, Note_on_c, 13, 51, 58
12, 37344, Note_off_c, 13, 51, 64
12, 37440, Note_on_c, 13, 50, 58
12, 37824, Note_off_c, 13, 50, 64
12, 37920, Note_on_c, 13, 51, 58
12, 38112, Note_off_c, 13, 51, 64
12, 38160, Note_on_c, 13, 56, 58
12, 38352, Note_off_c, 13, 56, 64
12, 38880, Note_on_c, 13, 58, 58
12, 39072, Note_off_c, 13, 58, 64
12, 39600, Note_on_c, 13, 55, 105
12, 39756, Note_off_c, 13, 55, 64
12, 39840, Note_on_c, 13, 53, 105
12, 39996, Note_off_c, 13, 53, 64
12, 40080, Note_on_c, 13, 51, 105
12, 40236, Note_off_c, 13, 51, 64
12, 40320, Note_on_c, 13, 56, 105
12, 40476, Note_off_c, 13, 56, 64
12, 40560, Note_on_c, 13, 58, 105
12, 40716, Note_off_c, 13, 58, 64
12, 40800, Note_on_c, 13, 56, 105
12, 40956, Note_off_c, 13, 56, 64
12, 41040, Note_on_c, 13, 55, 105
12, 41196, Note_off_c, 13, 55, 64
12, 41280, Note_on_c, 13, 53, 105
12, 41436, Note_off_c, 13, 53, 64
12, 41520, Note_on_c, 13, 51, 105
12, 41676, Note_off_c, 13, 51, 64
12, 41760, Note_on_c, 13, 56, 105
12, 41916, Note_off_c, 13, 56, 64
12, 42000, Note_on_c, 13, 58, 105
12, 42156, Note_off_c, 13, 58, 64
12, 42240, Note_on_c, 13, 46, 105
12, 42396, Note_off_c, 13, 46, 64
12, 42480, Note_on_c, 13, 51, 105
12, 42636, Note_off_c, 13, 51, 64
12, 42720, Note_on_c, 13, 39, 105
12, 42876, Note_off_c, 13, 39, 64
12, 42960, Note_on_c, 13, 39, 105
12, 43116, Note_off_c, 13, 39, 64
12, 43200, Note_on_c, 13, 39, 105
12, 43392, Note_off_c, 13, 39, 64
12, 43920, Note_on_c, 13, 46, 105
12, 44064, Note_off_c, 13, 46, 64
12, 44160, Note_on_c, 13, 58, 105
12, 44304, Note_off_c, 13, 58, 64
12, 44400, Note_on_c, 13, 56, 105
12, 44544, Note_off_c, 13, 56, 64
12, 44640, Note_on_c, 13, 55, 105
12, 44784, Note_off_c, 13, 55, 64
12, 44880, Note_on_c, 13, 53, 105
12, 45024, Note_off_c, 13, 53, 64
12, 45120, Note_on_c, 13, 51, 105
12, 45264, Note_off_c, 13, 51, 64
12, 45360, Note_on_c, 13, 50, 105
12, 45504, Note_off_c, 13, 50, 64
12, 45600, Note_on_c, 13, 46, 105
12, 45744, Note_off_c, 13, 46, 64
12, 45840, Note_on_c, 13, 44, 105
12, 45984, Note_off_c, 13, 44, 64
12, 46080, Note_on_c, 13, 43, 105
12, 46224, Note_off_c, 13, 43, 64
12, 46320, Note_on_c, 13, 41, 105
12, 46464, Note_off_c, 13, 41, 64
12, 46560, Note_on_c, 13, 39, 105
12, 46704, Note_off_c, 13, 39, 64
12, 46800, Note_on_c, 13, 44, 105
12, 46992, Note_off_c, 13, 44, 64
12, 47520, Note_on_c, 13, 56, 105
12, 47712, Note_off_c, 13, 56, 64
12, 48240, Note_on_c, 13, 58, 105
12, 48432, Note_off_c, 13, 58, 64
12, 49680, Note_on_c, 13, 39, 105
12, 49836, Note_off_c, 13, 39, 64
12, 49920, Note_on_c, 13, 46, 105
12, 50076, Note_off_c, 13, 46, 64
12, 50160, Note_on_c, 13, 51, 105
12, 50316, Note_off_c, 13, 51, 64
12, 50400, Note_on_c, 13, 55, 105
12, 50556, Note_off_c, 13, 55, 64
12, 50640, Note_on_c, 13, 56, 105
12, 50796, Note_off_c, 13, 56, 64
12, 50880, Note_on_c, 13, 55, 105
12, 51036, Note_off_c, 13, 55, 64
12, 51120, Note_on_c, 13, 56, 105
12, 51276, Note_off_c, 13, 56, 64
12, 51360, Note_on_c, 13, 51, 105
12, 51516, Note_off_c, 13, 51, 64
12, 51600, Note_on_c, 13, 48, 105
12, 51756, Note_off_c, 13, 48, 64
12, 51840, Note_on_c, 13, 44, 105
12, 51996, Note_off_c, 13, 44, 64
12, 52560, Note_on_c, 13, 46, 105
12, 52716, Note_off_c, 13, 46, 64
12, 52800, Note_on_c, 13, 53, 105
12, 52956, Note_off_c, 13, 53, 64
12, 53040, Note_on_c, 13, 58, 105
12, 53196, Note_off_c, 13, 58, 64
12, 53280, Note_on_c, 13, 62, 105
12, 53436, Note_off_c, 13, 62, 64
12, 53520, Note_on_c, 13, 63, 105
12, 53676, Note_off_c, 13, 63, 64
12, 53760, Note_on_c, 13, 62, 105
12, 53916, Note_off_c, 13, 62, 64
12, 54000, Note_on_c, 13, 63, 105
12, 54156, Note_off_c, 13, 63, 64
12, 54240, Note_on_c, 13, 58, 105
12, 54396, Note_off_c, 13, 58, 64
12, 54480, Note_on_c, 13, 55, 105
12, 54636, Note_off_c, 13, 55, 64
12, 54720, Note_on_c, 13, 51, 105
12, 54876, Note_off_c, 13, 51, 64
12, 55440, Note_on_c, 13, 56, 78
12, 55920, Note_off_c, 13, 56, 64
12, 55920, Note_on_c, 13, 55, 58
12, 56112, Note_off_c, 13, 55, 64
12, 56160, Note_on_c, 13, 56, 78
12, 56640, Note_off_c, 13, 56, 64
12, 56640, Note_on_c, 13, 55, 58
12, 56832, Note_off_c, 13, 55, 64
12, 56880, Note_on_c, 13, 53, 58
12, 57024, Note_off_c, 13, 53, 64
12, 57120, Note_on_c, 13, 53, 58
12, 57264, Note_off_c, 13, 53, 64
12, 57360, Note_on_c, 13, 51, 58
12, 57504, Note_off_c, 13, 51, 64
12, 57600, Note_on_c, 13, 50, 58
12, 57984, Note_off_c, 13, 50, 64
12, 58080, Note_on_c, 13, 51, 58
12, 58272, Note_off_c, 13, 51, 64
12, 58320, Note_on_c, 13, 56, 58
12, 58512, Note_off_c, 13, 56, 64
12, 59040, Note_on_c, 13, 58, 58
12, 59232, Note_off_c, 13, 58, 64
12, 59760, Note_on_c, 13, 55, 105
12, 59916, Note_off_c, 13, 55, 64
12, 60000, Note_on_c, 13, 53, 105
12, 60156, Note_off_c, 13, 53, 64
12, 60240, Note_on_c, 13, 51, 105
12, 60396, Note_off_c, 13, 51, 64
12, 60480, Note_on_c, 13, 56, 105
12, 60636, Note_off_c, 13, 56, 64
12, 60720, Note_on_c, 13, 58, 105
12, 60876, Note_off_c, 13, 58, 64
12, 60960, Note_on_c, 13, 56, 105
12, 61116, Note_off_c, 13, 56, 64
12, 61200, Note_on_c, 13, 55, 105
12, 61356, Note_off_c, 13, 55, 64
12, 61440, Note_on_c, 13, 53, 105
12, 61596, Note_off_c, 13, 53, 64
12, 61680, Note_on_c, 13, 51, 105
12, 61836, Note_off_c, 13, 51, 64
12, 61920, Note_on_c, 13, 56, 105
12, 62076, Note_off_c, 13, 56, 64
12, 62160, Note_on_c, 13, 58, 105
12, 62316, Note_off_c, 13, 58, 64
12, 62400, Note_on_c, 13, 46, 105
12, 62556, Note_off_c, 13, 46, 64
12, 62640, Note_on_c, 13, 51, 105
12, 62796, Note_off_c, 13, 51, 64
12, 62880, Note_on_c, 13, 39, 105
12, 63036, Note_off_c, 13, 39, 64
12, 63120, Note_on_c, 13, 39, 105
12, 63276, Note_off_c, 13, 39, 64
12, 63360, Note_on_c, 13, 39, 105
12, 63552, Note_off_c, 13, 39, 64
12, 64080, Note_on_c, 13, 51, 70
12, 64272, Note_off_c, 13, 51, 64
12, 64800, Note_on_c, 13, 51, 70
12, 64992, Note_off_c, 13, 51, 64
12, 65520, Note_on_c, 13, 46, 70
12, 65712, Note_off_c, 13, 46, 64
12, 66240, Note_on_c, 13, 46, 70
12, 66432, Note_off_c, 13, 46, 64
12, 66960, Note_on_c, 13, 46, 70
12, 67152, Note_off_c, 13, 46, 64
12, 67680, Note_on_c, 13, 46, 70
12, 67872, Note_off_c, 13, 46, 64
12, 68400, Note_on_c, 13, 51, 70
12, 68544, Note_off_c, 13, 51, 64
12, 68640, Note_on_c, 13, 43, 70
12, 68784, Note_off_c, 13, 43, 64
12, 68880, Note_on_c, 13, 46, 70
12, 69024, Note_off_c, 13, 46, 64
12, 69120, Note_on_c, 13, 39, 70
12, 69264, Note_off_c, 13, 39, 64
12, 69360, Note_on_c, 13, 43, 70
12, 69504, Note_off_c, 13, 43, 64
12, 69600, Note_on_c, 13, 46, 70
12, 69744, Note_off_c, 13, 46, 64
12, 69840, Note_on_c, 13, 51, 70
12, 70032, Note_off_c, 13, 51, 64
12, 70560, Note_on_c, 13, 51, 70
12, 70752, Note_off_c, 13, 51, 64
12, 71280, Note_on_c, 13, 46, 70
12, 71472, Note_off_c, 13, 46, 64
12, 72000, Note_on_c, 13, 46, 70
12, 72192, Note_off_c, 13, 46, 64
12, 72720, Note_on_c, 13, 46, 70
12, 72912, Note_off_c, 13, 46, 64
12, 73440, Note_on_c, 13, 46, 70
12, 73632, Note_off_c, 13, 46, 64
12, 74160, Note_on_c, 13, 51, 70
12, 74304, Note_off_c, 13, 51, 64
12, 74400, Note_on_c, 13, 43, 70
12, 74544, Note_off_c, 13, 43, 64
12, 74640, Note_on_c, 13, 46, 70
12, 74784, Note_off_c, 13, 46, 64
12, 74880, Note_on_c, 13, 39, 70
12, 75024, Note_off_c, 13, 39, 64
12, 75120, Note_on_c, 13, 43, 70
12, 75264, Note_off_c, 13, 43, 64
12, 75360, Note_on_c, 13, 46, 70
12, 75504, Note_off_c, 13, 46, 64
12, 75600, Note_on_c, 13, 51, 58
12, 76320, Note_off_c, 13, 51, 64
12, 76320, Note_on_c, 13, 50, 58
12, 76968, Note_off_c, 13, 50, 64
12, 77040, Note_on_c, 13, 48, 58
12, 77520, Note_off_c, 13, 48, 64
12, 77520, Note_on_c, 13, 46, 58
12, 77760, Note_off_c, 13, 46, 64
12, 77760, Note_on_c, 13, 45, 58
12, 78480, Note_off_c, 13, 45, 64
12, 78480, Note_on_c, 13, 46, 58
12, 78672, Note_off_c, 13, 46, 64
12, 79200, Note_on_c, 13, 41, 58
12, 79920, Note_off_c, 13, 41, 64
12, 79920, Note_on_c, 13, 46, 58
12, 80112, Note_off_c, 13, 46, 64
12, 81360, Note_on_c, 13, 51, 70
12, 81552, Note_off_c, 13, 51, 64
12, 82080, Note_on_c, 13, 63, 70
12, 82272, Note_off_c, 13, 63, 64
12, 82800, Note_on_c, 13, 46, 70
12, 82992, Note_off_c, 13, 46, 64
12, 83520, Note_on_c, 13, 58, 70
12, 83712, Note_off_c, 13, 58, 64
12, 84240, Note_on_c, 13, 46, 70
12, 84432, Note_off_c, 13, 46, 64
12, 84960, Note_on_c, 13, 58, 70
12, 85152, Note_off_c, 13, 58, 64
12, 85680, Note_on_c, 13, 63, 70
12, 85824, Note_off_c, 13, 63, 64
12, 85920, Note_on_c, 13, 55, 70
12, 86064, Note_off_c, 13, 55, 64
12, 86160, Note_on_c, 13, 58, 70
12, 86304, Note_off_c, 13, 58, 64
12, 86400, Note_on_c, 13, 51, 70
12, 86544, Note_off_c, 13, 51, 64
12, 86640, Note_on_c, 13, 43, 70
12, 86784, Note_off_c, 13, 43, 64
12, 86880, Note_on_c, 13, 46, 70
12, 87024, Note_off_c, 13, 46, 64
12, 87120, Note_on_c, 13, 51, 58
12, 87840, Note_off_c, 13, 51, 64
12, 87840, Note_on_c, 13, 50, 58
12, 88488, Note_off_c, 13, 50, 64
12, 88560, Note_on_c, 13, 48, 58
12, 89040, Note_off_c, 13, 48, 64
12, 89040, Note_on_c, 13, 46, 58
12, 89280, Note_off_c, 13, 46, 64
12, 89280, Note_on_c, 13, 45, 58
12, 90000, Note_off_c, 13, 45, 64
12, 90000, Note_on_c, 13, 46, 58
12, 90192, Note_off_c, 13, 46, 64
12, 90720, Note_on_c, 13, 41, 58
12, 91440, Note_off_c, 13, 41, 64
12, 91440, Note_on_c, 13, 46, 58
12, 91632, Note_off_c, 13, 46, 64
12, 92880, Note_on_c, 13, 51, 70
12, 93072, Note_off_c, 13, 51, 64
12, 93600, Note_on_c, 13, 63, 70
12, 93792, Note_off_c, 13, 63, 64
12, 94320, Note_on_c, 13, 46, 70
12, 94512, Note_off_c, 13, 46, 64
12, 95040, Note_on_c, 13, 58, 70
12, 95232, Note_off_c, 13, 58, 64
12, 95760, Note_on_c, 13, 46, 70
12, 95952, Note_off_c, 13, 46, 64
12, 96480, Note_on_c, 13, 58, 70
12, 96672, Note_off_c, 13, 58, 64
12, 97200, Note_on_c, 13, 63, 70
12, 97344, Note_off_c, 13, 63, 64
12, 97440, Note_on_c, 13, 55, 70
12, 97584, Note_off_c, 13, 55, 64
12, 97680, Note_on_c, 13, 58, 70
12, 97824, Note_off_c, 13, 58, 64
12, 97920, Note_on_c, 13, 51, 70
12, 98064, Note_off_c, 13, 51, 64
12, 98160, Note_on_c, 13, 43, 70
12, 98304, Note_off_c, 13, 43, 64
12, 98400, Note_on_c, 13, 46, 70
12, 98544, Note_off_c, 13, 46, 64
12, 98640, Note_on_c, 13, 39, 105
12, 98784, Note_off_c, 13, 39, 64
12, 98880, Note_on_c, 13, 46, 105
12, 99024, Note_off_c, 13, 46, 64
12, 99120, Note_on_c, 13, 51, 105
12, 99264, Note_off_c, 13, 51, 64
12, 99360, Note_on_c, 13, 55, 105
12, 99504, Note_off_c, 13, 55, 64
12, 99600, Note_on_c, 13, 56, 105
12, 99744, Note_off_c, 13, 56, 64
12, 99840, Note_on_c, 13, 55, 105
12, 99984, Note_off_c, 13, 55, 64
12, 100080, Note_on_c, 13, 56, 105
12, 100224, Note_off_c, 13, 56, 64
12, 100320, Note_on_c, 13, 51, 105
12, 100464, Note_off_c, 13, 51, 64
12, 100560, Note_on_c, 13, 48, 105
12, 100704, Note_off_c, 13, 48, 64
12, 100800, Note_on_c, 13, 44, 105
12, 100944, Note_off_c, 13, 44, 64
12, 101520, Note_on_c, 13, 46, 105
12, 101664, Note_off_c, 13, 46, 64
12, 101760, Note_on_c, 13, 50, 105
12, 101904, Note_off_c, 13, 50, 64
12, 102000, Note_on_c, 13, 58, 105
12, 102144, Note_off_c, 13, 58, 64
12, 102240, Note_on_c, 13, 62, 105
12, 102384, Note_off_c, 13, 62, 64
12, 102480, Note_on_c, 13, 63, 105
12, 102624, Note_off_c, 13, 63, 64
12, 102720, Note_on_c, 13, 62, 105
12, 102864, Note_off_c, 13, 62, 64
12, 102960, Note_on_c, 13, 63, 105
12, 103104, Note_off_c, 13, 63, 64
12, 103200, Note_on_c, 13, 58, 105
12, 103344, Note_off_c, 13, 58, 64
12, 103440, Note_on_c, 13, 55, 105
12, 103584, Note_off_c, 13, 55, 64
12, 103680, Note_on_c, 13, 51, 105
12, 103824, Note_off_c, 13, 51, 64
12, 104400, Note_on_c, 13, 56, 78
12, 104880, Note_off_c, 13, 56, 64
12, 104880, Note_on_c, 13, 55, 58
12, 105072, Note_off_c, 13, 55, 64
12, 105120, Note_on_c, 13, 56, 78
12, 105600, Note_off_c, 13, 56, 64
12, 105600, Note_on_c, 13, 55, 58
12, 105792, Note_off_c, 13, 55, 64
12, 105840, Note_on_c, 13, 53, 58
12, 105984, Note_off_c, 13, 53, 64
12, 106080, Note_on_c, 13, 53, 58
12, 106224, Note_off_c, 13, 53, 64
12, 106320, Note_on_c, 13, 51, 58
12, 106464, Note_off_c, 13, 51, 64
12, 106560, Note_on_c, 13, 50, 58
12, 107040, Note_off_c, 13, 50, 64
12, 107040, Note_on_c, 13, 51, 58
12, 107184, Note_off_c, 13, 51, 64
12, 107280, Note_on_c, 13, 50, 58
12, 107424, Note_off_c, 13, 50, 64
12, 107760, Note_on_c, 13, 51, 58
12, 107904, Note_off_c, 13, 51, 64
12, 108000, Note_on_c, 13, 53, 58
12, 108144, Note_off_c, 13, 53, 64
12, 108480, Note_on_c, 13, 41, 58
12, 108624, Note_off_c, 13, 41, 64
12, 108720, Note_on_c, 13, 46, 58
12, 108864, Note_off_c, 13, 46, 64
12, 108960, Note_on_c, 13, 46, 58
12, 109104, Note_off_c, 13, 46, 64
12, 109200, Note_on_c, 13, 46, 58
12, 109344, Note_off_c, 13, 46, 64
12, 109440, Note_on_c, 13, 46, 58
12, 109632, Note_off_c, 13, 46, 64
12, 110160, Note_on_c, 13, 46, 105
12, 110304, Note_off_c, 13, 46, 64
12, 110400, Note_on_c, 13, 58, 105
12, 110544, Note_off_c, 13, 58, 64
12, 110640, Note_on_c, 13, 56, 105
12, 110784, Note_off_c, 13, 56, 64
12, 110880, Note_on_c, 13, 55, 105
12, 111024, Note_off_c, 13, 55, 64
12, 111120, Note_on_c, 13, 53, 105
12, 111264, Note_off_c, 13, 53, 64
12, 111360, Note_on_c, 13, 51, 105
12, 111504, Note_off_c, 13, 51, 64
12, 111600, Note_on_c, 13, 50, 105
12, 111744, Note_off_c, 13, 50, 64
12, 111840, Note_on_c, 13, 46, 105
12, 111984, Note_off_c, 13, 46, 64
12, 112080, Note_on_c, 13, 44, 105
12, 112224, Note_off_c, 13, 44, 64
12, 112320, Note_on_c, 13, 43, 105
12, 112464, Note_off_c, 13, 43, 64
12, 112560, Note_on_c, 13, 41, 105
12, 112704, Note_off_c, 13, 41, 64
12, 112800, Note_on_c, 13, 39, 105
12, 112944, Note_off_c, 13, 39, 64
12, 113040, Note_on_c, 13, 44, 105
12, 113232, Note_off_c, 13, 44, 64
12, 113760, Note_on_c, 13, 56, 105
12, 113952, Note_off_c, 13, 56, 64
12, 114480, Note_on_c, 13, 58, 105
12, 114672, Note_off_c, 13, 58, 64
12, 115920, Note_on_c, 13, 39, 105
12, 116076, Note_off_c, 13, 39, 64
12, 116160, Note_on_c, 13, 46, 105
12, 116316, Note_off_c, 13, 46, 64
12, 116400, Note_on_c, 13, 51, 105
12, 116556, Note_off_c, 13, 51, 64
12, 116640, Note_on_c, 13, 55, 105
12, 116796, Note_off_c, 13, 55, 64
12, 116880, Note_on_c, 13, 56, 105
12, 117036, Note_off_c, 13, 56, 64
12, 117120, Note_on_c, 13, 55, 105
12, 117276, Note_off_c, 13, 55, 64
12, 117360, Note_on_c, 13, 56, 105
12, 117516, Note_off_c, 13, 56, 64
12, 117600, Note_on_c, 13, 51, 105
12, 117756, Note_off_c, 13, 51, 64
12, 117840, Note_on_c, 13, 48, 105
12, 117996, Note_off_c, 13, 48, 64
12, 118080, Note_on_c, 13, 44, 105
12, 118236, Note_off_c, 13, 44, 64
12, 118800, Note_on_c, 13, 46, 105
12, 118956, Note_off_c, 13, 46, 64
12, 119040, Note_on_c, 13, 53, 105
12, 119196, Note_off_c, 13, 53, 64
12, 119280, Note_on_c, 13, 58, 105
12, 119436, Note_off_c, 13, 58, 64
12, 119520, Note_on_c, 13, 62, 105
12, 119676, Note_off_c, 13, 62, 64
12, 119760, Note_on_c, 13, 63, 105
12, 119916, Note_off_c, 13, 63, 64
12, 120000, Note_on_c, 13, 62, 105
12, 120156, Note_off_c, 13, 62, 64
12, 120240, Note_on_c, 13, 63, 105
12, 120396, Note_off_c, 13, 63, 64
12, 120480, Note_on_c, 13, 58, 105
12, 120636, Note_off_c, 13, 58, 64
12, 120720, Note_on_c, 13, 55, 105
12, 120876, Note_off_c, 13, 55, 64
12, 120960, Note_on_c, 13, 51, 105
12, 121116, Note_off_c, 13, 51, 64
12, 121680, Note_on_c, 13, 56, 78
12, 122160, Note_off_c, 13, 56, 64
12, 122160, Note_on_c, 13, 55, 58
12, 122352, Note_off_c, 13, 55, 64
12, 122400, Note_on_c, 13, 56, 78
12, 122880, Note_off_c, 13, 56, 64
12, 122880, Note_on_c, 13, 55, 58
12, 123072, Note_off_c, 13, 55, 64
12, 123120, Note_on_c, 13, 53, 58
12, 123264, Note_off_c, 13, 53, 64
12, 123360, Note_on_c, 13, 53, 58
12, 123504, Note_off_c, 13, 53, 64
12, 123600, Note_on_c, 13, 51, 58
12, 123744, Note_off_c, 13, 51, 64
12, 123840, Note_on_c, 13, 50, 58
12, 124224, Note_off_c, 13, 50, 64
12, 124320, Note_on_c, 13, 51, 58
12, 124512, Note_off_c, 13, 51, 64
12, 124560, Note_on_c, 13, 56, 58
12, 124752, Note_off_c, 13, 56, 64
12, 125280, Note_on_c, 13, 58, 58
12, 125472, Note_off_c, 13, 58, 64
12, 126000, Note_on_c, 13, 55, 105
12, 126156, Note_off_c, 13, 55, 64
12, 126240, Note_on_c, 13, 53, 105
12, 126396, Note_off_c, 13, 53, 64
12, 126480, Note_on_c, 13, 51, 105
12, 126636, Note_off_c, 13, 51, 64
12, 126720, Note_on_c, 13, 56, 105
12, 126876, Note_off_c, 13, 56, 64
12, 126960, Note_on_c, 13, 58, 105
12, 127116, Note_off_c, 13, 58, 64
12, 127200, Note_on_c, 13, 56, 105
12, 127356, Note_off_c, 13, 56, 64
12, 127440, Note_on_c, 13, 55, 105
12, 127596, Note_off_c, 13, 55, 64
12, 127680, Note_on_c, 13, 53, 105
12, 127836, Note_off_c, 13, 53, 64
12, 127920, Note_on_c, 13, 51, 105
12, 128076, Note_off_c, 13, 51, 64
12, 128160, Note_on_c, 13, 56, 105
12, 128316, Note_off_c, 13, 56, 64
12, 128400, Note_on_c, 13, 58, 105
12, 128556, Note_off_c, 13, 58, 64
12, 128640, Note_on_c, 13, 46, 105
12, 128796, Note_off_c, 13, 46, 64
12, 128880, Note_on_c, 13, 51, 105
12, 129036, Note_off_c, 13, 51, 64
12, 129120, Note_on_c, 13, 39, 105
12, 129276, Note_off_c, 13, 39, 64
12, 129360, Note_on_c, 13, 39, 105
12, 129516, Note_off_c, 13, 39, 64
12, 129600, Note_on_c, 13, 39, 105
12, 129792, Note_off_c, 13, 39, 64
12, 129792, End_track
13, 0, Start_track
13, 0, Program_c, 14, 43
13, 0, Control_c, 14, 7, 97
13, 0, Control_c, 14, 91, 100
13, 0, Control_c, 14, 10, 94
13, 720, Note_on_c, 14, 39, 105
13, 864, Note_off_c, 14, 39, 64
13, 960, Note_on_c, 14, 34, 105
13, 1104, Note_off_c, 14, 34, 64
13, 1200, Note_on_c, 14, 39, 105
13, 1344, Note_off_c, 14, 39, 64
13, 1440, Note_on_c, 14, 43, 105
13, 1584, Note_off_c, 14, 43, 64
13, 1680, Note_on_c, 14, 44, 105
13, 1824, Note_off_c, 14, 44, 64
13, 1920, Note_on_c, 14, 43, 105
13, 2064, Note_off_c, 14, 43, 64
13, 2160, Note_on_c, 14, 44, 105
13, 2304, Note_off_c, 14, 44, 64
13, 2400, Note_on_c, 14, 39, 105
13, 2544, Note_off_c, 14, 39, 64
13, 2640, Note_on_c, 14, 36, 105
13, 2784, Note_off_c, 14, 36, 64
13, 2880, Note_on_c, 14, 32, 105
13, 3024, Note_off_c, 14, 32, 64
13, 3600, Note_on_c, 14, 34, 105
13, 3744, Note_off_c, 14, 34, 64
13, 3840, Note_on_c, 14, 38, 105
13, 3984, Note_off_c, 14, 38, 64
13, 4080, Note_on_c, 14, 46, 105
13, 4224, Note_off_c, 14, 46, 64
13, 4320, Note_on_c, 14, 50, 105
13, 4464, Note_off_c, 14, 50, 64
13, 4560, Note_on_c, 14, 51, 105
13, 4704, Note_off_c, 14, 51, 64
13, 4800, Note_on_c, 14, 50, 105
13, 4944, Note_off_c, 14, 50, 64
13, 5040, Note_on_c, 14, 51, 105
13, 5184, Note_off_c, 14, 51, 64
13, 5280, Note_on_c, 14, 46, 105
13, 5424, Note_off_c, 14, 46, 64
13, 5520, Note_on_c, 14, 43, 105
13, 5664, Note_off_c, 14, 43, 64
13, 5760, Note_on_c, 14, 39, 105
13, 5904, Note_off_c, 14, 39, 64
13, 6480, Note_on_c, 14, 44, 78
13, 6960, Note_off_c, 14, 44, 64
13, 6960, Note_on_c, 14, 43, 58
13, 7152, Note_off_c, 14, 43, 64
13, 7200, Note_on_c, 14, 44, 78
13, 7680, Note_off_c, 14, 44, 64
13, 7680, Note_on_c, 14, 43, 58
13, 7872, Note_off_c, 14, 43, 64
13, 7920, Note_on_c, 14, 41, 58
13, 8064, Note_off_c, 14, 41, 64
13, 8160, Note_on_c, 14, 41, 58
13, 8304, Note_off_c, 14, 41, 64
13, 8400, Note_on_c, 14, 39, 58
13, 8544, Note_off_c, 14, 39, 64
13, 8640, Note_on_c, 14, 38, 58
13, 9120, Note_off_c, 14, 38, 64
13, 9120, Note_on_c, 14, 39, 58
13, 9264, Note_off_c, 14, 39, 64
13, 9360, Note_on_c, 14, 38, 58
13, 9504, Note_off_c, 14, 38, 64
13, 9840, Note_on_c, 14, 39, 58
13, 9984, Note_off_c, 14, 39, 64
13, 10080, Note_on_c, 14, 41, 58
13, 10224, Note_off_c, 14, 41, 64
13, 10560, Note_on_c, 14, 39, 58
13, 10704, Note_off_c, 14, 39, 64
13, 10800, Note_on_c, 14, 34, 58
13, 10944, Note_off_c, 14, 34, 64
13, 11040, Note_on_c, 14, 34, 58
13, 11184, Note_off_c, 14, 34, 64
13, 11280, Note_on_c, 14, 34, 58
13, 11424, Note_off_c, 14, 34, 64
13, 11520, Note_on_c, 14, 34, 58
13, 11712, Note_off_c, 14, 34, 64
13, 12240, Note_on_c, 14, 39, 105
13, 12384, Note_off_c, 14, 39, 64
13, 12480, Note_on_c, 14, 34, 105
13, 12624, Note_off_c, 14, 34, 64
13, 12720, Note_on_c, 14, 39, 105
13, 12864, Note_off_c, 14, 39, 64
13, 12960, Note_on_c, 14, 43, 105
13, 13104, Note_off_c, 14, 43, 64
13, 13200, Note_on_c, 14, 44, 105
13, 13344, Note_off_c, 14, 44, 64
13, 13440, Note_on_c, 14, 43, 105
13, 13584, Note_off_c, 14, 43, 64
13, 13680, Note_on_c, 14, 44, 105
13, 13824, Note_off_c, 14, 44, 64
13, 13920, Note_on_c, 14, 39, 105
13, 14064, Note_off_c, 14, 39, 64
13, 14160, Note_on_c, 14, 36, 105
13, 14304, Note_off_c, 14, 36, 64
13, 14400, Note_on_c, 14, 32, 105
13, 14544, Note_off_c, 14, 32, 64
13, 15120, Note_on_c, 14, 34, 105
13, 15264, Note_off_c, 14, 34, 64
13, 15360, Note_on_c, 14, 38, 105
13, 15504, Note_off_c, 14, 38, 64
13, 15600, Note_on_c, 14, 46, 105
13, 15744, Note_off_c, 14, 46, 64
13, 15840, Note_on_c, 14, 50, 105
13, 15984, Note_off_c, 14, 50, 64
13, 16080, Note_on_c, 14, 51, 105
13, 16224, Note_off_c, 14, 51, 64
13, 16320, Note_on_c, 14, 50, 105
13, 16464, Note_off_c, 14, 50, 64
13, 16560, Note_on_c, 14, 51, 105
13, 16704, Note_off_c, 14, 51, 64
13, 16800, Note_on_c, 14, 46, 105
13, 16944, Note_off_c, 14, 46, 64
13, 17040, Note_on_c, 14, 43, 105
13, 17184, Note_off_c, 14, 43, 64
13, 17280, Note_on_c, 14, 39, 105
13, 17424, Note_off_c, 14, 39, 64
13, 18000, Note_on_c, 14, 44, 78
13, 18480, Note_off_c, 14, 44, 64
13, 18480, Note_on_c, 14, 43, 58
13, 18672, Note_off_c, 14, 43, 64
13, 18720, Note_on_c, 14, 44, 78
13, 19200, Note_off_c, 14, 44, 64
13, 19200, Note_on_c, 14, 43, 58
13, 19392, Note_off_c, 14, 43, 64
13, 19440, Note_on_c, 14, 41, 58
13, 19584, Note_off_c, 14, 41, 64
13, 19680, Note_on_c, 14, 41, 58
13, 19824, Note_off_c, 14, 41, 64
13, 19920, Note_on_c, 14, 39, 58
13, 20064, Note_off_c, 14, 39, 64
13, 20160, Note_on_c, 14, 38, 58
13, 20640, Note_off_c, 14, 38, 64
13, 20640, Note_on_c, 14, 39, 58
13, 20784, Note_off_c, 14, 39, 64
13, 20880, Note_on_c, 14, 38, 58
13, 21024, Note_off_c, 14, 38, 64
13, 21360, Note_on_c, 14, 39, 58
13, 21504, Note_off_c, 14, 39, 64
13, 21600, Note_on_c, 14, 41, 58
13, 21744, Note_off_c, 14, 41, 64
13, 22080, Note_on_c, 14, 39, 58
13, 22224, Note_off_c, 14, 39, 64
13, 22320, Note_on_c, 14, 34, 58
13, 22464, Note_off_c, 14, 34, 64
13, 22560, Note_on_c, 14, 34, 58
13, 22704, Note_off_c, 14, 34, 64
13, 22800, Note_on_c, 14, 34, 58
13, 22944, Note_off_c, 14, 34, 64
13, 23040, Note_on_c, 14, 34, 58
13, 23232, Note_off_c, 14, 34, 64
13, 23760, Note_on_c, 14, 34, 105
13, 23904, Note_off_c, 14, 34, 64
13, 24000, Note_on_c, 14, 46, 105
13, 24144, Note_off_c, 14, 46, 64
13, 24240, Note_on_c, 14, 44, 105
13, 24384, Note_off_c, 14, 44, 64
13, 24480, Note_on_c, 14, 43, 105
13, 24624, Note_off_c, 14, 43, 64
13, 24720, Note_on_c, 14, 41, 105
13, 24864, Note_off_c, 14, 41, 64
13, 24960, Note_on_c, 14, 39, 105
13, 25104, Note_off_c, 14, 39, 64
13, 25200, Note_on_c, 14, 38, 105
13, 25344, Note_off_c, 14, 38, 64
13, 25440, Note_on_c, 14, 34, 105
13, 25584, Note_off_c, 14, 34, 64
13, 25680, Note_on_c, 14, 32, 105
13, 25824, Note_off_c, 14, 32, 64
13, 25920, Note_on_c, 14, 31, 105
13, 26064, Note_off_c, 14, 31, 64
13, 26160, Note_on_c, 14, 29, 105
13, 26304, Note_off_c, 14, 29, 64
13, 26400, Note_on_c, 14, 39, 105
13, 26544, Note_off_c, 14, 39, 64
13, 26640, Note_on_c, 14, 32, 105
13, 26832, Note_off_c, 14, 32, 64
13, 27360, Note_on_c, 14, 44, 105
13, 27552, Note_off_c, 14, 44, 64
13, 28080, Note_on_c, 14, 46, 105
13, 28272, Note_off_c, 14, 46, 64
13, 29520, Note_on_c, 14, 39, 105
13, 29676, Note_off_c, 14, 39, 64
13, 29760, Note_on_c, 14, 34, 105
13, 29916, Note_off_c, 14, 34, 64
13, 30000, Note_on_c, 14, 39, 105
13, 30156, Note_off_c, 14, 39, 64
13, 30240, Note_on_c, 14, 43, 105
13, 30396, Note_off_c, 14, 43, 64
13, 30480, Note_on_c, 14, 44, 105
13, 30636, Note_off_c, 14, 44, 64
13, 30720, Note_on_c, 14, 43, 105
13, 30876, Note_off_c, 14, 43, 64
13, 30960, Note_on_c, 14, 44, 105
13, 31116, Note_off_c, 14, 44, 64
13, 31200, Note_on_c, 14, 39, 105
13, 31356, Note_off_c, 14, 39, 64
13, 31440, Note_on_c, 14, 36, 105
13, 31596, Note_off_c, 14, 36, 64
13, 31680, Note_on_c, 14, 32, 105
13, 31836, Note_off_c, 14, 32, 64
13, 32400, Note_on_c, 14, 34, 105
13, 32556, Note_off_c, 14, 34, 64
13, 32640, Note_on_c, 14, 41, 105
13, 32796, Note_off_c, 14, 41, 64
13, 32880, Note_on_c, 14, 46, 105
13, 33036, Note_off_c, 14, 46, 64
13, 33120, Note_on_c, 14, 50, 105
13, 33276, Note_off_c, 14, 50, 64
13, 33360, Note_on_c, 14, 51, 105
13, 33516, Note_off_c, 14, 51, 64
13, 33600, Note_on_c, 14, 50, 105
13, 33756, Note_off_c, 14, 50, 64
13, 33840, Note_on_c, 14, 51, 105
13, 33996, Note_off_c, 14, 51, 64
13, 34080, Note_on_c, 14, 46, 105
13, 34236, Note_off_c, 14, 46, 64
13, 34320, Note_on_c, 14, 43, 105
13, 34476, Note_off_c, 14, 43, 64
13, 34560, Note_on_c, 14, 39, 105
13, 34716, Note_off_c, 14, 39, 64
13, 35280, Note_on_c, 14, 44, 78
13, 35760, Note_off_c, 14, 44, 64
13, 35760, Note_on_c, 14, 43, 58
13, 35952, Note_off_c, 14, 43, 64
13, 36000, Note_on_c, 14, 44, 78
13, 36480, Note_off_c, 14, 44, 64
13, 36480, Note_on_c, 14, 43, 58
13, 36672, Note_off_c, 14, 43, 64
13, 36720, Note_on_c, 14, 41, 58
13, 36864, Note_off_c, 14, 41, 64
13, 36960, Note_on_c, 14, 41, 58
13, 37104, Note_off_c, 14, 41, 64
13, 37200, Note_on_c, 14, 39, 58
13, 37344, Note_off_c, 14, 39, 64
13, 37440, Note_on_c, 14, 38, 58
13, 37824, Note_off_c, 14, 38, 64
13, 37920, Note_on_c, 14, 39, 58
13, 38112, Note_off_c, 14, 39, 64
13, 38160, Note_on_c, 14, 44, 58
13, 38352, Note_off_c, 14, 44, 64
13, 38880, Note_on_c, 14, 46, 58
13, 39072, Note_off_c, 14, 46, 64
13, 39600, Note_on_c, 14, 43, 105
13, 39756, Note_off_c, 14, 43, 64
13, 39840, Note_on_c, 14, 41, 105
13, 39996, Note_off_c, 14, 41, 64
13, 40080, Note_on_c, 14, 39, 105
13, 40236, Note_off_c, 14, 39, 64
13, 40320, Note_on_c, 14, 44, 105
13, 40476, Note_off_c, 14, 44, 64
13, 40560, Note_on_c, 14, 46, 105
13, 40716, Note_off_c, 14, 46, 64
13, 40800, Note_on_c, 14, 44, 105
13, 40956, Note_off_c, 14, 44, 64
13, 41040, Note_on_c, 14, 43, 105
13, 41196, Note_off_c, 14, 43, 64
13, 41280, Note_on_c, 14, 41, 105
13, 41436, Note_off_c, 14, 41, 64
13, 41520, Note_on_c, 14, 39, 105
13, 41676, Note_off_c, 14, 39, 64
13, 41760, Note_on_c, 14, 44, 105
13, 41916, Note_off_c, 14, 44, 64
13, 42000, Note_on_c, 14, 46, 105
13, 42156, Note_off_c, 14, 46, 64
13, 42240, Note_on_c, 14, 34, 105
13, 42396, Note_off_c, 14, 34, 64
13, 42480, Note_on_c, 14, 39, 105
13, 42636, Note_off_c, 14, 39, 64
13, 42720, Note_on_c, 14, 39, 105
13, 42876, Note_off_c, 14, 39, 64
13, 42960, Note_on_c, 14, 39, 105
13, 43116, Note_off_c, 14, 39, 64
13, 43200, Note_on_c, 14, 39, 105
13, 43392, Note_off_c, 14, 39, 64
13, 43920, Note_on_c, 14, 34, 105
13, 44064, Note_off_c, 14, 34, 64
13, 44160, Note_on_c, 14, 46, 105
13, 44304, Note_off_c, 14, 46, 64
13, 44400, Note_on_c, 14, 44, 105
13, 44544, Note_off_c, 14, 44, 64
13, 44640, Note_on_c, 14, 43, 105
13, 44784, Note_off_c, 14, 43, 64
13, 44880, Note_on_c, 14, 41, 105
13, 45024, Note_off_c, 14, 41, 64
13, 45120, Note_on_c, 14, 39, 105
13, 45264, Note_off_c, 14, 39, 64
13, 45360, Note_on_c, 14, 38, 105
13, 45504, Note_off_c, 14, 38, 64
13, 45600, Note_on_c, 14, 34, 105
13, 45744, Note_off_c, 14, 34, 64
13, 45840, Note_on_c, 14, 32, 105
13, 45984, Note_off_c, 14, 32, 64
13, 46080, Note_on_c, 14, 31, 105
13, 46224, Note_off_c, 14, 31, 64
13, 46320, Note_on_c, 14, 29, 105
13, 46464, Note_off_c, 14, 29, 64
13, 46560, Note_on_c, 14, 39, 105
13, 46704, Note_off_c, 14, 39, 64
13, 46800, Note_on_c, 14, 32, 105
13, 46992, Note_off_c, 14, 32, 64
13, 47520, Note_on_c, 14, 44, 105
13, 47712, Note_off_c, 14, 44, 64
13, 48240, Note_on_c, 14, 46, 105
13, 48432, Note_off_c, 14, 46, 64
13, 49680, Note_on_c, 14, 39, 105
13, 49836, Note_off_c, 14, 39, 64
13, 49920, Note_on_c, 14, 34, 105
13, 50076, Note_off_c, 14, 34, 64
13, 50160, Note_on_c, 14, 39, 105
13, 50316, Note_off_c, 14, 39, 64
13, 50400, Note_on_c, 14, 43, 105
13, 50556, Note_off_c, 14, 43, 64
13, 50640, Note_on_c, 14, 44, 105
13, 50796, Note_off_c, 14, 44, 64
13, 50880, Note_on_c, 14, 43, 105
13, 51036, Note_off_c, 14, 43, 64
13, 51120, Note_on_c, 14, 44, 105
13, 51276, Note_off_c, 14, 44, 64
13, 51360, Note_on_c, 14, 39, 105
13, 51516, Note_off_c, 14, 39, 64
13, 51600, Note_on_c, 14, 36, 105
13, 51756, Note_off_c, 14, 36, 64
13, 51840, Note_on_c, 14, 32, 105
13, 51996, Note_off_c, 14, 32, 64
13, 52560, Note_on_c, 14, 34, 105
13, 52716, Note_off_c, 14, 34, 64
13, 52800, Note_on_c, 14, 41, 105
13, 52956, Note_off_c, 14, 41, 64
13, 53040, Note_on_c, 14, 46, 105
13, 53196, Note_off_c, 14, 46, 64
13, 53280, Note_on_c, 14, 50, 105
13, 53436, Note_off_c, 14, 50, 64
13, 53520, Note_on_c, 14, 51, 105
13, 53676, Note_off_c, 14, 51, 64
13, 53760, Note_on_c, 14, 50, 105
13, 53916, Note_off_c, 14, 50, 64
13, 54000, Note_on_c, 14, 51, 105
13, 54156, Note_off_c, 14, 51, 64
13, 54240, Note_on_c, 14, 46, 105
13, 54396, Note_off_c, 14, 46, 64
13, 54480, Note_on_c, 14, 43, 105
13, 54636, Note_off_c, 14, 43, 64
13, 54720, Note_on_c, 14, 39, 105
13, 54876, Note_off_c, 14, 39, 64
13, 55440, Note_on_c, 14, 44, 78
13, 55920, Note_off_c, 14, 44, 64
13, 55920, Note_on_c, 14, 43, 58
13, 56112, Note_off_c, 14, 43, 64
13, 56160, Note_on_c, 14, 44, 78
13, 56640, Note_off_c, 14, 44, 64
13, 56640, Note_on_c, 14, 43, 58
13, 56832, Note_off_c, 14, 43, 64
13, 56880, Note_on_c, 14, 41, 58
13, 57024, Note_off_c, 14, 41, 64
13, 57120, Note_on_c, 14, 41, 58
13, 57264, Note_off_c, 14, 41, 64
13, 57360, Note_on_c, 14, 39, 58
13, 57504, Note_off_c, 14, 39, 64
13, 57600, Note_on_c, 14, 38, 58
13, 57984, Note_off_c, 14, 38, 64
13, 58080, Note_on_c, 14, 39, 58
13, 58272, Note_off_c, 14, 39, 64
13, 58320, Note_on_c, 14, 44, 58
13, 58512, Note_off_c, 14, 44, 64
13, 59040, Note_on_c, 14, 46, 58
13, 59232, Note_off_c, 14, 46, 64
13, 59760, Note_on_c, 14, 43, 105
13, 59916, Note_off_c, 14, 43, 64
13, 60000, Note_on_c, 14, 41, 105
13, 60156, Note_off_c, 14, 41, 64
13, 60240, Note_on_c, 14, 39, 105
13, 60396, Note_off_c, 14, 39, 64
13, 60480, Note_on_c, 14, 44, 105
13, 60636, Note_off_c, 14, 44, 64
13, 60720, Note_on_c, 14, 46, 105
13, 60876, Note_off_c, 14, 46, 64
13, 60960, Note_on_c, 14, 44, 105
13, 61116, Note_off_c, 14, 44, 64
13, 61200, Note_on_c, 14, 43, 105
13, 61356, Note_off_c, 14, 43, 64
13, 61440, Note_on_c, 14, 41, 105
13, 61596, Note_off_c, 14, 41, 64
13, 61680, Note_on_c, 14, 39, 105
13, 61836, Note_off_c, 14, 39, 64
13, 61920, Note_on_c, 14, 44, 105
13, 62076, Note_off_c, 14, 44, 64
13, 62160, Note_on_c, 14, 46, 105
13, 62316, Note_off_c, 14, 46, 64
13, 62400, Note_on_c, 14, 34, 105
13, 62556, Note_off_c, 14, 34, 64
13, 62640, Note_on_c, 14, 39, 105
13, 62796, Note_off_c, 14, 39, 64
13, 62880, Note_on_c, 14, 39, 105
13, 63036, Note_off_c, 14, 39, 64
13, 63120, Note_on_c, 14, 39, 105
13, 63276, Note_off_c, 14, 39, 64
13, 63360, Note_on_c, 14, 39, 105
13, 63552, Note_off_c, 14, 39, 64
13, 64080, Note_on_c, 14, 39, 70
13, 64272, Note_off_c, 14, 39, 64
13, 64800, Note_on_c, 14, 39, 70
13, 64992, Note_off_c, 14, 39, 64
13, 65520, Note_on_c, 14, 34, 70
13, 65712, Note_off_c, 14, 34, 64
13, 66240, Note_on_c, 14, 34, 70
13, 66432, Note_off_c, 14, 34, 64
13, 66960, Note_on_c, 14, 34, 70
13, 67152, Note_off_c, 14, 34, 64
13, 67680, Note_on_c, 14, 34, 70
13, 67872, Note_off_c, 14, 34, 64
13, 68400, Note_on_c, 14, 39, 70
13, 68544, Note_off_c, 14, 39, 64
13, 68640, Note_on_c, 14, 31, 70
13, 68784, Note_off_c, 14, 31, 64
13, 68880, Note_on_c, 14, 34, 70
13, 69024, Note_off_c, 14, 34, 64
13, 69120, Note_on_c, 14, 39, 70
13, 69264, Note_off_c, 14, 39, 64
13, 69360, Note_on_c, 14, 31, 70
13, 69504, Note_off_c, 14, 31, 64
13, 69600, Note_on_c, 14, 34, 70
13, 69744, Note_off_c, 14, 34, 64
13, 69840, Note_on_c, 14, 39, 70
13, 70032, Note_off_c, 14, 39, 64
13, 70560, Note_on_c, 14, 39, 70
13, 70752, Note_off_c, 14, 39, 64
13, 71280, Note_on_c, 14, 34, 70
13, 71472, Note_off_c, 14, 34, 64
13, 72000, Note_on_c, 14, 34, 70
13, 72192, Note_off_c, 14, 34, 64
13, 72720, Note_on_c, 14, 34, 70
13, 72912, Note_off_c, 14, 34, 64
13, 73440, Note_on_c, 14, 34, 70
13, 73632, Note_off_c, 14, 34, 64
13, 74160, Note_on_c, 14, 39, 70
13, 74304, Note_off_c, 14, 39, 64
13, 74400, Note_on_c, 14, 31, 70
13, 74544, Note_off_c, 14, 31, 64
13, 74640, Note_on_c, 14, 34, 70
13, 74784, Note_off_c, 14, 34, 64
13, 74880, Note_on_c, 14, 39, 70
13, 75024, Note_off_c, 14, 39, 64
13, 75120, Note_on_c, 14, 31, 70
13, 75264, Note_off_c, 14, 31, 64
13, 75360, Note_on_c, 14, 34, 70
13, 75504, Note_off_c, 14, 34, 64
13, 75600, Note_on_c, 14, 39, 58
13, 76320, Note_off_c, 14, 39, 64
13, 76320, Note_on_c, 14, 38, 58
13, 76968, Note_off_c, 14, 38, 64
13, 77040, Note_on_c, 14, 36, 58
13, 77520, Note_off_c, 14, 36, 64
13, 77520, Note_on_c, 14, 34, 58
13, 77760, Note_off_c, 14, 34, 64
13, 77760, Note_on_c, 14, 33, 58
13, 78480, Note_off_c, 14, 33, 64
13, 78480, Note_on_c, 14, 34, 58
13, 78672, Note_off_c, 14, 34, 64
13, 79200, Note_on_c, 14, 29, 58
13, 79920, Note_off_c, 14, 29, 64
13, 79920, Note_on_c, 14, 34, 58
13, 80112, Note_off_c, 14, 34, 64
13, 81360, Note_on_c, 14, 39, 58
13, 81552, Note_off_c, 14, 39, 64
13, 82080, Note_on_c, 14, 51, 70
13, 82272, Note_off_c, 14, 51, 64
13, 82800, Note_on_c, 14, 34, 70
13, 82992, Note_off_c, 14, 34, 64
13, 83520, Note_on_c, 14, 46, 70
13, 83712, Note_off_c, 14, 46, 64
13, 84240, Note_on_c, 14, 34, 70
13, 84432, Note_off_c, 14, 34, 64
13, 84960, Note_on_c, 14, 46, 70
13, 85152, Note_off_c, 14, 46, 64
13, 85680, Note_on_c, 14, 51, 70
13, 85824, Note_off_c, 14, 51, 64
13, 85920, Note_on_c, 14, 43, 70
13, 86064, Note_off_c, 14, 43, 64
13, 86160, Note_on_c, 14, 46, 70
13, 86304, Note_off_c, 14, 46, 64
13, 86400, Note_on_c, 14, 39, 70
13, 86544, Note_off_c, 14, 39, 64
13, 86640, Note_on_c, 14, 31, 70
13, 86784, Note_off_c, 14, 31, 64
13, 86880, Note_on_c, 14, 34, 70
13, 87024, Note_off_c, 14, 34, 64
13, 87120, Note_on_c, 14, 39, 58
13, 87840, Note_off_c, 14, 39, 64
13, 87840, Note_on_c, 14, 38, 58
13, 88488, Note_off_c, 14, 38, 64
13, 88560, Note_on_c, 14, 36, 58
13, 89040, Note_off_c, 14, 36, 64
13, 89040, Note_on_c, 14, 34, 58
13, 89280, Note_off_c, 14, 34, 64
13, 89280, Note_on_c, 14, 33, 58
13, 90000, Note_off_c, 14, 33, 64
13, 90000, Note_on_c, 14, 34, 58
13, 90192, Note_off_c, 14, 34, 64
13, 90720, Note_on_c, 14, 29, 58
13, 91440, Note_off_c, 14, 29, 64
13, 91440, Note_on_c, 14, 34, 58
13, 91632, Note_off_c, 14, 34, 64
13, 92880, Note_on_c, 14, 39, 58
13, 93072, Note_off_c, 14, 39, 64
13, 93600, Note_on_c, 14, 51, 70
13, 93792, Note_off_c, 14, 51, 64
13, 94320, Note_on_c, 14, 34, 70
13, 94512, Note_off_c, 14, 34, 64
13, 95040, Note_on_c, 14, 46, 70
13, 95232, Note_off_c, 14, 46, 64
13, 95760, Note_on_c, 14, 34, 70
13, 95952, Note_off_c, 14, 34, 64
13, 96480, Note_on_c, 14, 46, 70
13, 96672, Note_off_c, 14, 46, 64
13, 97200, Note_on_c, 14, 51, 70
13, 97344, Note_off_c, 14, 51, 64
13, 97440, Note_on_c, 14, 43, 70
13, 97584, Note_off_c, 14, 43, 64
13, 97680, Note_on_c, 14, 46, 70
13, 97824, Note_off_c, 14, 46, 64
13, 97920, Note_on_c, 14, 39, 70
13, 98064, Note_off_c, 14, 39, 64
13, 98160, Note_on_c, 14, 31, 70
13, 98304, Note_off_c, 14, 31, 64
13, 98400, Note_on_c, 14, 34, 70
13, 98544, Note_off_c, 14, 34, 64
13, 98640, Note_on_c, 14, 39, 70
13, 98784, Note_off_c, 14, 39, 64
13, 98880, Note_on_c, 14, 34, 105
13, 99024, Note_off_c, 14, 34, 64
13, 99120, Note_on_c, 14, 39, 105
13, 99264, Note_off_c, 14, 39, 64
13, 99360, Note_on_c, 14, 43, 105
13, 99504, Note_off_c, 14, 43, 64
13, 99600, Note_on_c, 14, 44, 105
13, 99744, Note_off_c, 14, 44, 64
13, 99840, Note_on_c, 14, 43, 105
13, 99984, Note_off_c, 14, 43, 64
13, 100080, Note_on_c, 14, 44, 105
13, 100224, Note_off_c, 14, 44, 64
13, 100320, Note_on_c, 14, 39, 105
13, 100464, Note_off_c, 14, 39, 64
13, 100560, Note_on_c, 14, 36, 105
13, 100704, Note_off_c, 14, 36, 64
13, 100800, Note_on_c, 14, 32, 105
13, 100944, Note_off_c, 14, 32, 64
13, 101520, Note_on_c, 14, 34, 105
13, 101664, Note_off_c, 14, 34, 64
13, 101760, Note_on_c, 14, 38, 105
13, 101904, Note_off_c, 14, 38, 64
13, 102000, Note_on_c, 14, 46, 105
13, 102144, Note_off_c, 14, 46, 64
13, 102240, Note_on_c, 14, 50, 105
13, 102384, Note_off_c, 14, 50, 64
13, 102480, Note_on_c, 14, 51, 105
13, 102624, Note_off_c, 14, 51, 64
13, 102720, Note_on_c, 14, 50, 105
13, 102864, Note_off_c, 14, 50, 64
13, 102960, Note_on_c, 14, 51, 105
13, 103104, Note_off_c, 14, 51, 64
13, 103200, Note_on_c, 14, 46, 105
13, 103344, Note_off_c, 14, 46, 64
13, 103440, Note_on_c, 14, 43, 105
13, 103584, Note_off_c, 14, 43, 64
13, 103680, Note_on_c, 14, 39, 105
13, 103824, Note_off_c, 14, 39, 64
13, 104400, Note_on_c, 14, 44, 78
13, 104880, Note_off_c, 14, 44, 64
13, 104880, Note_on_c, 14, 43, 58
13, 105072, Note_off_c, 14, 43, 64
13, 105120, Note_on_c, 14, 44, 78
13, 105600, Note_off_c, 14, 44, 64
13, 105600, Note_on_c, 14, 43, 58
13, 105792, Note_off_c, 14, 43, 64
13, 105840, Note_on_c, 14, 41, 58
13, 105984, Note_off_c, 14, 41, 64
13, 106080, Note_on_c, 14, 41, 58
13, 106224, Note_off_c, 14, 41, 64
13, 106320, Note_on_c, 14, 39, 58
13, 106464, Note_off_c, 14, 39, 64
13, 106560, Note_on_c, 14, 38, 58
13, 107040, Note_off_c, 14, 38, 64
13, 107040, Note_on_c, 14, 39, 58
13, 107184, Note_off_c, 14, 39, 64
13, 107280, Note_on_c, 14, 38, 58
13, 107424, Note_off_c, 14, 38, 64
13, 107760, Note_on_c, 14, 39, 58
13, 107904, Note_off_c, 14, 39, 64
13, 108000, Note_on_c, 14, 41, 58
13, 108144, Note_off_c, 14, 41, 64
13, 108480, Note_on_c, 14, 39, 58
13, 108624, Note_off_c, 14, 39, 64
13, 108720, Note_on_c, 14, 34, 58
13, 108864, Note_off_c, 14, 34, 64
13, 108960, Note_on_c, 14, 34, 58
13, 109104, Note_off_c, 14, 34, 64
13, 109200, Note_on_c, 14, 34, 58
13, 109344, Note_off_c, 14, 34, 64
13, 109440, Note_on_c, 14, 34, 58
13, 109632, Note_off_c, 14, 34, 64
13, 110160, Note_on_c, 14, 34, 105
13, 110304, Note_off_c, 14, 34, 64
13, 110400, Note_on_c, 14, 46, 105
13, 110544, Note_off_c, 14, 46, 64
13, 110640, Note_on_c, 14, 44, 105
13, 110784, Note_off_c, 14, 44, 64
13, 110880, Note_on_c, 14, 43, 105
13, 111024, Note_off_c, 14, 43, 64
13, 111120, Note_on_c, 14, 41, 105
13, 111264, Note_off_c, 14, 41, 64
13, 111360, Note_on_c, 14, 39, 105
13, 111504, Note_off_c, 14, 39, 64
13, 111600, Note_on_c, 14, 38, 105
13, 111744, Note_off_c, 14, 38, 64
13, 111840, Note_on_c, 14, 34, 105
13, 111984, Note_off_c, 14, 34, 64
13, 112080, Note_on_c, 14, 32, 105
13, 112224, Note_off_c, 14, 32, 64
13, 112320, Note_on_c, 14, 31, 105
13, 112464, Note_off_c, 14, 31, 64
13, 112560, Note_on_c, 14, 29, 105
13, 112704, Note_off_c, 14, 29, 64
13, 112800, Note_on_c, 14, 39, 105
13, 112944, Note_off_c, 14, 39, 64
13, 113040, Note_on_c, 14, 32, 105
13, 113232, Note_off_c, 14, 32, 64
13, 113760, Note_on_c, 14, 44, 105
13, 113952, Note_off_c, 14, 44, 64
13, 114480, Note_on_c, 14, 46, 105
13, 114672, Note_off_c, 14, 46, 64
13, 115920, Note_on_c, 14, 39, 105
13, 116076, Note_off_c, 14, 39, 64
13, 116160, Note_on_c, 14, 34, 105
13, 116316, Note_off_c, 14, 34, 64
13, 116400, Note_on_c, 14, 39, 105
13, 116556, Note_off_c, 14, 39, 64
13, 116640, Note_on_c, 14, 43, 105
13, 116796, Note_off_c, 14, 43, 64
13, 116880, Note_on_c, 14, 44, 105
13, 117036, Note_off_c, 14, 44, 64
13, 117120, Note_on_c, 14, 43, 105
13, 117276, Note_off_c, 14, 43, 64
13, 117360, Note_on_c, 14, 44, 105
13, 117516, Note_off_c, 14, 44, 64
13, 117600, Note_on_c, 14, 39, 105
13, 117756, Note_off_c, 14, 39, 64
13, 117840, Note_on_c, 14, 36, 105
13, 117996, Note_off_c, 14, 36, 64
13, 118080, Note_on_c, 14, 32, 105
13, 118236, Note_off_c, 14, 32, 64
13, 118800, Note_on_c, 14, 34, 105
13, 118956, Note_off_c, 14, 34, 64
13, 119040, Note_on_c, 14, 41, 105
13, 119196, Note_off_c, 14, 41, 64
13, 119280, Note_on_c, 14, 46, 105
13, 119436, Note_off_c, 14, 46, 64
13, 119520, Note_on_c, 14, 50, 105
13, 119676, Note_off_c, 14, 50, 64
13, 119760, Note_on_c, 14, 51, 105
13, 119916, Note_off_c, 14, 51, 64
13, 120000, Note_on_c, 14, 50, 105
13, 120156, Note_off_c, 14, 50, 64
13, 120240, Note_on_c, 14, 51, 105
13, 120396, Note_off_c, 14, 51, 64
13, 120480, Note_on_c, 14, 46, 105
13, 120636, Note_off_c, 14, 46, 64
13, 120720, Note_on_c, 14, 43, 105
13, 120876, Note_off_c, 14, 43, 64
13, 120960, Note_on_c, 14, 39, 105
13, 121116, Note_off_c, 14, 39, 64
13, 121680, Note_on_c, 14, 44, 78
13, 122160, Note_off_c, 14, 44, 64
13, 122160, Note_on_c, 14, 43, 58
13, 122352, Note_off_c, 14, 43, 64
13, 122400, Note_on_c, 14, 44, 78
13, 122880, Note_off_c, 14, 44, 64
13, 122880, Note_on_c, 14, 43, 58
13, 123072, Note_off_c, 14, 43, 64
13, 123120, Note_on_c, 14, 41, 58
13, 123264, Note_off_c, 14, 41, 64
13, 123360, Note_on_c, 14, 41, 58
13, 123504, Note_off_c, 14, 41, 64
13, 123600, Note_on_c, 14, 39, 58
13, 123744, Note_off_c, 14, 39, 64
13, 123840, Note_on_c, 14, 38, 58
13, 124224, Note_off_c, 14, 38, 64
13, 124320, Note_on_c, 14, 39, 58
13, 124512, Note_off_c, 14, 39, 64
13, 124560, Note_on_c, 14, 44, 58
13, 124752, Note_off_c, 14, 44, 64
13, 125280, Note_on_c, 14, 46, 58
13, 125472, Note_off_c, 14, 46, 64
13, 126000, Note_on_c, 14, 43, 105
13, 126156, Note_off_c, 14, 43, 64
13, 126240, Note_on_c, 14, 41, 105
13, 126396, Note_off_c, 14, 41, 64
13, 126480, Note_on_c, 14, 39, 105
13, 126636, Note_off_c, 14, 39, 64
13, 126720, Note_on_c, 14, 44, 105
13, 126876, Note_off_c, 14, 44, 64
13, 126960, Note_on_c, 14, 46, 105
13, 127116, Note_off_c, 14, 46, 64
13, 127200, Note_on_c, 14, 44, 105
13, 127356, Note_off_c, 14, 44, 64
13, 127440, Note_on_c, 14, 43, 105
13, 127596, Note_off_c, 14, 43, 64
13, 127680, Note_on_c, 14, 41, 105
13, 127836, Note_off_c, 14, 41, 64
13, 127920, Note_on_c, 14, 39, 105
13, 128076, Note_off_c, 14, 39, 64
13, 128160, Note_on_c, 14, 44, 105
13, 128316, Note_off_c, 14, 44, 64
13, 128400, Note_on_c, 14, 46, 105
13, 128556, Note_off_c, 14, 46, 64
13, 128640, Note_on_c, 14, 34, 105
13, 128796, Note_off_c, 14, 34, 64
13, 128880, Note_on_c, 14, 39, 105
13, 129036, Note_off_c, 14, 39, 64
13, 129120, Note_on_c, 14, 39, 105
13, 129276, Note_off_c, 14, 39, 64
13, 129360, Note_on_c, 14, 39, 105
13, 129516, Note_off_c, 14, 39, 64
13, 129600, Note_on_c, 14, 39, 105
13, 129792, Note_off_c, 14, 39, 64
13, 130320, Note_on_c, 14, 20, 1
13, 130896, Note_off_c, 14, 20, 64
13, 130896, End_track
0, 0, End_of_file