0, 0, Header, 1, 11, 480
1, 0, Start_track
1, 0, Title_t, "Sample Custom Template"
1, 0, Copyright_t, "All Rights Reserved"
1, 0, Tempo, 476190
1, 0, Time_signature, 4, 2, 24, 8
1, 0, Key_signature, 2, "major"
1, 67200, Tempo, 508474
1, 67680, Tempo, 526315
1, 68160, Tempo, 555555
1, 68640, Tempo, 666666
1, 69120, Tempo, 476190
1, 136320, Tempo, 508474
1, 136800, Tempo, 526315
1, 137280, Tempo, 555555
1, 137760, Tempo, 666666
1, 138240, Tempo, 476190
1, 167340, Tempo, 508474
1, 188460, Tempo, 508474
1, 189420, Tempo, 500000
1, 190380, Tempo, 491803
1, 191340, Tempo, 476190
1, 192300, Tempo, 476190
1, 217260, Tempo, 476190
1, 259500, Tempo, 500000
1, 260460, Tempo, 526315
1, 261420, Tempo, 491803
1, 262380, Tempo, 500000
1, 262860, Tempo, 508474
1, 263340, Tempo, 517241
1, 263580, Tempo, 526315
1, 263820, Tempo, 535714
1, 264060, Tempo, 545454
1, 264300, Tempo, 600000
1, 264300, End_track
2, 0, Start_track
2, 0, Title_t, "1. Allegro from"
2, 0, MIDI_port, 0
2, 0, Channel_prefix, 0
2, 0, Control_c, 0, 7, 127
2, 0, Control_c, 0, 10, 15
2, 0, Control_c, 0, 91, 63
2, 0, Program_c, 0, 50
2, 0, Note_on_c, 0, 81, 92
2, 1800, Note_off_c, 0, 81, 64
2, 1920, Note_on_c, 0, 79, 92
2, 2160, Note_off_c, 0, 79, 64
2, 2160, Note_on_c, 0, 78, 92
2, 2800, Note_off_c, 0, 78, 64
2, 2880, Note_on_c, 0, 76, 92
2, 3120, Note_off_c, 0, 76, 64
2, 3120, Note_on_c, 0, 74, 92
2, 3760, Note_off_c, 0, 74, 64
2, 3840, Note_on_c, 0, 73, 92
2, 3960, Note_off_c, 0, 73, 64
2, 3960, Note_on_c, 0, 74, 92
2, 4080, Note_off_c, 0, 74, 64
2, 4080, Note_on_c, 0, 76, 92
2, 4200, Note_off_c, 0, 76, 64
2, 4200, Note_on_c, 0, 74, 92
2, 4320, Note_off_c, 0, 74, 64
2, 4320, Note_on_c, 0, 73, 92
2, 4440, Note_off_c, 0, 73, 64
2, 4440, Note_on_c, 0, 74, 92
2, 4560, Note_off_c, 0, 74, 64
2, 4560, Note_on_c, 0, 76, 92
2, 4680, Note_off_c, 0, 76, 64
2, 4680, Note_on_c, 0, 74, 92
2, 4800, Note_off_c, 0, 74, 64
2, 4800, Note_on_c, 0, 73, 92
2, 4920, Note_off_c, 0, 73, 64
2, 4920, Note_on_c, 0, 74, 92
2, 5040, Note_off_c, 0, 74, 64
2, 5040, Note_on_c, 0, 76, 92
2, 5160, Note_off_c, 0, 76, 64
2, 5160, Note_on_c, 0, 74, 92
2, 5280, Note_off_c, 0, 74, 64
2, 5280, Note_on_c, 0, 73, 92
2, 5400, Note_off_c, 0, 73, 64
2, 5400, Note_on_c, 0, 74, 92
2, 5520, Note_off_c, 0, 74, 64
2, 5520, Note_on_c, 0, 76, 92
2, 5640, Note_off_c, 0, 76, 64
2, 5640, Note_on_c, 0, 73, 92
2, 5760, Note_off_c, 0, 73, 64
2, 5760, Note_on_c, 0, 74, 92
2, 6355, Note_off_c, 0, 74, 64
2, 6960, Note_on_c, 0, 81, 92
2, 7200, Note_off_c, 0, 81, 64
2, 7200, Note_on_c, 0, 78, 92
2, 7440, Note_off_c, 0, 78, 64
2, 7440, Note_on_c, 0, 74, 92
2, 7675, Note_off_c, 0, 74, 64
2, 7680, Note_on_c, 0, 76, 92
2, 7800, Note_off_c, 0, 76, 64
2, 7800, Note_on_c, 0, 78, 92
2, 7920, Note_off_c, 0, 78, 64
2, 7920, Note_on_c, 0, 79, 92
2, 8040, Note_off_c, 0, 79, 64
2, 8040, Note_on_c, 0, 78, 92
2, 8160, Note_off_c, 0, 78, 64
2, 8160, Note_on_c, 0, 76, 92
2, 8280, Note_off_c, 0, 76, 64
2, 8280, Note_on_c, 0, 78, 92
2, 8400, Note_off_c, 0, 78, 64
2, 8400, Note_on_c, 0, 79, 92
2, 8520, Note_off_c, 0, 79, 64
2, 8520, Note_on_c, 0, 78, 92
2, 8640, Note_off_c, 0, 78, 64
2, 8640, Note_on_c, 0, 76, 92
2, 8760, Note_off_c, 0, 76, 64
2, 8760, Note_on_c, 0, 78, 92
2, 8880, Note_off_c, 0, 78, 64
2, 8880, Note_on_c, 0, 79, 92
2, 9000, Note_off_c, 0, 79, 64
2, 9000, Note_on_c, 0, 78, 92
2, 9120, Note_off_c, 0, 78, 64
2, 9120, Note_on_c, 0, 76, 92
2, 9240, Note_off_c, 0, 76, 64
2, 9240, Note_on_c, 0, 78, 92
2, 9360, Note_off_c, 0, 78, 64
2, 9360, Note_on_c, 0, 79, 92
2, 9480, Note_off_c, 0, 79, 64
2, 9480, Note_on_c, 0, 76, 92
2, 9600, Note_off_c, 0, 76, 64
2, 9600, Note_on_c, 0, 78, 92
2, 9835, Note_off_c, 0, 78, 64
2, 10080, Note_on_c, 0, 74, 92
2, 10795, Note_off_c, 0, 74, 64
2, 10800, Note_on_c, 0, 76, 92
2, 10880, Note_off_c, 0, 76, 64
2, 10920, Note_on_c, 0, 78, 92
2, 11000, Note_off_c, 0, 78, 64
2, 11040, Note_on_c, 0, 79, 92
2, 11120, Note_off_c, 0, 79, 64
2, 11160, Note_on_c, 0, 81, 92
2, 11240, Note_off_c, 0, 81, 64
2, 11280, Note_on_c, 0, 83, 92
2, 11360, Note_off_c, 0, 83, 64
2, 11400, Note_on_c, 0, 85, 92
2, 11480, Note_off_c, 0, 85, 64
2, 11520, Note_on_c, 0, 86, 92
2, 12360, Note_off_c, 0, 86, 64
2, 12480, Note_on_c, 0, 81, 92
2, 12880, Note_off_c, 0, 81, 64
2, 12960, Note_on_c, 0, 78, 92
2, 13360, Note_off_c, 0, 78, 64
2, 13440, Note_on_c, 0, 78, 92
2, 13560, Note_off_c, 0, 78, 64
2, 13560, Note_on_c, 0, 79, 92
2, 13680, Note_off_c, 0, 79, 64
2, 13680, Note_on_c, 0, 75, 92
2, 13800, Note_off_c, 0, 75, 64
2, 13800, Note_on_c, 0, 76, 92
2, 13915, Note_off_c, 0, 76, 64
2, 13920, Note_on_c, 0, 76, 92
2, 14320, Note_off_c, 0, 76, 64
2, 14640, Note_on_c, 0, 76, 92
2, 14880, Note_off_c, 0, 76, 64
2, 14880, Note_on_c, 0, 79, 92
2, 15120, Note_off_c, 0, 79, 64
2, 15120, Note_on_c, 0, 83, 92
2, 15355, Note_off_c, 0, 83, 64
2, 15360, Note_on_c, 0, 80, 92
2, 15480, Note_off_c, 0, 80, 64
2, 15480, Note_on_c, 0, 81, 92
2, 16240, Note_off_c, 0, 81, 64
2, 16320, Note_on_c, 0, 80, 92
2, 16440, Note_off_c, 0, 80, 64
2, 16440, Note_on_c, 0, 81, 92
2, 16795, Note_off_c, 0, 81, 64
2, 16800, Note_on_c, 0, 80, 92
2, 16920, Note_off_c, 0, 80, 64
2, 16920, Note_on_c, 0, 81, 92
2, 17275, Note_off_c, 0, 81, 64
2, 17280, Note_on_c, 0, 81, 92
2, 17400, Note_off_c, 0, 81, 64
2, 17400, Note_on_c, 0, 79, 92
2, 17515, Note_off_c, 0, 79, 64
2, 17700, Note_on_c, 0, 78, 92
2, 17820, Note_off_c, 0, 78, 64
2, 17820, Note_on_c, 0, 79, 92
2, 18355, Note_off_c, 0, 79, 64
2, 18480, Note_on_c, 0, 78, 92
2, 18600, Note_off_c, 0, 78, 64
2, 18600, Note_on_c, 0, 79, 92
2, 18715, Note_off_c, 0, 79, 64
2, 18720, Note_on_c, 0, 81, 92
2, 18800, Note_off_c, 0, 81, 64
2, 18840, Note_on_c, 0, 79, 92
2, 18920, Note_off_c, 0, 79, 64
2, 18960, Note_on_c, 0, 78, 92
2, 19040, Note_off_c, 0, 78, 64
2, 19080, Note_on_c, 0, 76, 92
2, 19160, Note_off_c, 0, 76, 64
2, 19200, Note_on_c, 0, 74, 92
2, 19320, Note_off_c, 0, 74, 64
2, 19320, Note_on_c, 0, 69, 92
2, 19440, Note_off_c, 0, 69, 64
2, 19440, Note_on_c, 0, 66, 92
2, 19520, Note_off_c, 0, 66, 64
2, 19560, Note_on_c, 0, 69, 92
2, 19640, Note_off_c, 0, 69, 64
2, 19680, Note_on_c, 0, 74, 92
2, 19760, Note_off_c, 0, 74, 64
2, 19800, Note_on_c, 0, 69, 92
2, 19880, Note_off_c, 0, 69, 64
2, 19920, Note_on_c, 0, 76, 92
2, 20000, Note_off_c, 0, 76, 64
2, 20040, Note_on_c, 0, 69, 92
2, 20120, Note_off_c, 0, 69, 64
2, 20160, Note_on_c, 0, 78, 92
2, 20240, Note_off_c, 0, 78, 64
2, 20280, Note_on_c, 0, 74, 92
2, 20360, Note_off_c, 0, 74, 64
2, 20400, Note_on_c, 0, 81, 92
2, 20480, Note_off_c, 0, 81, 64
2, 20520, Note_on_c, 0, 78, 92
2, 20600, Note_off_c, 0, 78, 64
2, 20640, Note_on_c, 0, 79, 92
2, 20720, Note_off_c, 0, 79, 64
2, 20760, Note_on_c, 0, 76, 92
2, 20840, Note_off_c, 0, 76, 64
2, 20880, Note_on_c, 0, 74, 92
2, 20960, Note_off_c, 0, 74, 64
2, 21000, Note_on_c, 0, 73, 92
2, 21080, Note_off_c, 0, 73, 64
2, 21120, Note_on_c, 0, 74, 92
2, 21240, Note_off_c, 0, 74, 64
2, 21240, Note_on_c, 0, 69, 92
2, 21360, Note_off_c, 0, 69, 64
2, 21360, Note_on_c, 0, 66, 92
2, 21440, Note_off_c, 0, 66, 64
2, 21480, Note_on_c, 0, 69, 92
2, 21560, Note_off_c, 0, 69, 64
2, 21600, Note_on_c, 0, 74, 92
2, 21680, Note_off_c, 0, 74, 64
2, 21720, Note_on_c, 0, 69, 92
2, 21800, Note_off_c, 0, 69, 64
2, 21840, Note_on_c, 0, 76, 92
2, 21920, Note_off_c, 0, 76, 64
2, 21960, Note_on_c, 0, 69, 92
2, 22040, Note_off_c, 0, 69, 64
2, 22080, Note_on_c, 0, 78, 92
2, 22160, Note_off_c, 0, 78, 64
2, 22200, Note_on_c, 0, 69, 92
2, 22280, Note_off_c, 0, 69, 64
2, 22320, Note_on_c, 0, 78, 92
2, 22400, Note_off_c, 0, 78, 64
2, 22440, Note_on_c, 0, 81, 92
2, 22520, Note_off_c, 0, 81, 64
2, 22560, Note_on_c, 0, 79, 92
2, 22640, Note_off_c, 0, 79, 64
2, 22680, Note_on_c, 0, 76, 92
2, 22760, Note_off_c, 0, 76, 64
2, 22800, Note_on_c, 0, 74, 92
2, 22880, Note_off_c, 0, 74, 64
2, 22920, Note_on_c, 0, 73, 92
2, 23000, Note_off_c, 0, 73, 64
2, 23040, Note_on_c, 0, 74, 92
2, 23440, Note_off_c, 0, 74, 64
2, 26880, Note_on_c, 0, 86, 92
2, 28200, Note_off_c, 0, 86, 64
2, 28320, Note_on_c, 0, 83, 92
2, 28675, Note_off_c, 0, 83, 64
2, 28680, Note_on_c, 0, 80, 92
2, 28795, Note_off_c, 0, 80, 64
2, 28800, Note_on_c, 0, 74, 92
2, 29200, Note_off_c, 0, 74, 64
2, 29280, Note_on_c, 0, 71, 88
2, 29635, Note_off_c, 0, 71, 64
2, 29640, Note_on_c, 0, 68, 85
2, 29755, Note_off_c, 0, 68, 64
2, 29760, Note_on_c, 0, 64, 84
2, 29995, Note_off_c, 0, 64, 64
2, 30000, Note_on_c, 0, 71, 82
2, 30120, Note_off_c, 0, 71, 64
2, 30120, Note_on_c, 0, 73, 81
2, 30240, Note_off_c, 0, 73, 64
2, 30240, Note_on_c, 0, 74, 80
2, 30320, Note_off_c, 0, 74, 64
2, 30480, Note_on_c, 0, 74, 78
2, 30560, Note_off_c, 0, 74, 64
2, 30720, Note_on_c, 0, 73, 75
2, 30840, Note_off_c, 0, 73, 64
2, 30840, Note_on_c, 0, 69, 75
2, 30920, Note_off_c, 0, 69, 64
2, 30960, Note_on_c, 0, 71, 75
2, 31040, Note_off_c, 0, 71, 64
2, 31080, Note_on_c, 0, 73, 75
2, 31160, Note_off_c, 0, 73, 64
2, 31200, Note_on_c, 0, 74, 75
2, 31280, Note_off_c, 0, 74, 64
2, 31320, Note_on_c, 0, 76, 75
2, 31400, Note_off_c, 0, 76, 64
2, 31440, Note_on_c, 0, 78, 75
2, 31520, Note_off_c, 0, 78, 64
2, 31560, Note_on_c, 0, 80, 75
2, 31640, Note_off_c, 0, 80, 64
2, 31680, Note_on_c, 0, 81, 75
2, 31760, Note_off_c, 0, 81, 64
2, 31800, Note_on_c, 0, 83, 75
2, 31880, Note_off_c, 0, 83, 64
2, 31920, Note_on_c, 0, 85, 75
2, 32000, Note_off_c, 0, 85, 64
2, 32040, Note_on_c, 0, 83, 75
2, 32120, Note_off_c, 0, 83, 64
2, 32160, Note_on_c, 0, 81, 75
2, 32240, Note_off_c, 0, 81, 64
2, 32280, Note_on_c, 0, 80, 75
2, 32360, Note_off_c, 0, 80, 64
2, 32400, Note_on_c, 0, 78, 75
2, 32480, Note_off_c, 0, 78, 64
2, 32520, Note_on_c, 0, 76, 75
2, 32600, Note_off_c, 0, 76, 64
2, 32640, Note_on_c, 0, 74, 75
2, 32760, Note_off_c, 0, 74, 64
2, 32760, Note_on_c, 0, 71, 75
2, 32840, Note_off_c, 0, 71, 64
2, 32880, Note_on_c, 0, 73, 75
2, 32960, Note_off_c, 0, 73, 64
2, 33000, Note_on_c, 0, 74, 75
2, 33080, Note_off_c, 0, 74, 64
2, 33120, Note_on_c, 0, 76, 75
2, 33200, Note_off_c, 0, 76, 64
2, 33240, Note_on_c, 0, 78, 75
2, 33320, Note_off_c, 0, 78, 64
2, 33360, Note_on_c, 0, 80, 75
2, 33440, Note_off_c, 0, 80, 64
2, 33480, Note_on_c, 0, 81, 75
2, 33560, Note_off_c, 0, 81, 64
2, 33600, Note_on_c, 0, 83, 75
2, 33680, Note_off_c, 0, 83, 64
2, 33720, Note_on_c, 0, 81, 75
2, 33800, Note_off_c, 0, 81, 64
2, 33840, Note_on_c, 0, 80, 75
2, 33920, Note_off_c, 0, 80, 64
2, 33960, Note_on_c, 0, 81, 75
2, 34040, Note_off_c, 0, 81, 64
2, 34080, Note_on_c, 0, 80, 75
2, 34160, Note_off_c, 0, 80, 64
2, 34200, Note_on_c, 0, 78, 75
2, 34280, Note_off_c, 0, 78, 64
2, 34320, Note_on_c, 0, 76, 75
2, 34400, Note_off_c, 0, 76, 64
2, 34440, Note_on_c, 0, 74, 75
2, 34520, Note_off_c, 0, 74, 64
2, 34560, Note_on_c, 0, 73, 75
2, 34675, Note_off_c, 0, 73, 64
2, 35040, Note_on_c, 0, 76, 60
2, 38480, Note_off_c, 0, 76, 64
2, 39600, Note_on_c, 0, 81, 75
2, 39680, Note_off_c, 0, 81, 64
2, 39840, Note_on_c, 0, 69, 75
2, 39920, Note_off_c, 0, 69, 64
2, 40080, Note_on_c, 0, 71, 75
2, 40140, Note_off_c, 0, 71, 64
2, 40140, Note_on_c, 0, 73, 75
2, 40200, Note_off_c, 0, 73, 64
2, 40200, Note_on_c, 0, 71, 75
2, 40260, Note_off_c, 0, 71, 64
2, 40260, Note_on_c, 0, 73, 75
2, 40315, Note_off_c, 0, 73, 64
2, 40320, Note_on_c, 0, 73, 75
2, 40400, Note_off_c, 0, 73, 64
2, 40560, Note_on_c, 0, 73, 77
2, 40640, Note_off_c, 0, 73, 64
2, 40800, Note_on_c, 0, 76, 79
2, 40880, Note_off_c, 0, 76, 64
2, 41040, Note_on_c, 0, 74, 81
2, 41120, Note_off_c, 0, 74, 64
2, 41280, Note_on_c, 0, 76, 83
2, 41360, Note_off_c, 0, 76, 64
2, 41520, Note_on_c, 0, 85, 85
2, 41600, Note_off_c, 0, 85, 64
2, 41640, Note_on_c, 0, 81, 86
2, 41720, Note_off_c, 0, 81, 64
2, 41760, Note_on_c, 0, 76, 87
2, 41840, Note_off_c, 0, 76, 64
2, 42000, Note_on_c, 0, 74, 89
2, 42080, Note_off_c, 0, 74, 64
2, 42240, Note_on_c, 0, 73, 92
2, 42320, Note_off_c, 0, 73, 64
2, 42480, Note_on_c, 0, 76, 92
2, 42560, Note_off_c, 0, 76, 64
2, 42720, Note_on_c, 0, 81, 92
2, 43360, Note_off_c, 0, 81, 64
2, 43440, Note_on_c, 0, 79, 92
2, 43680, Note_off_c, 0, 79, 64
2, 43680, Note_on_c, 0, 78, 92
2, 43920, Note_off_c, 0, 78, 64
2, 43920, Note_on_c, 0, 77, 92
2, 44160, Note_off_c, 0, 77, 64
2, 44160, Note_on_c, 0, 77, 92
2, 44280, Note_off_c, 0, 77, 64
2, 44280, Note_on_c, 0, 78, 92
2, 45040, Note_off_c, 0, 78, 64
2, 45120, Note_on_c, 0, 77, 92
2, 45240, Note_off_c, 0, 77, 64
2, 45240, Note_on_c, 0, 78, 92
2, 45595, Note_off_c, 0, 78, 64
2, 45600, Note_on_c, 0, 77, 92
2, 45720, Note_off_c, 0, 77, 64
2, 45720, Note_on_c, 0, 78, 92
2, 46075, Note_off_c, 0, 78, 64
2, 46080, Note_on_c, 0, 58, 92
2, 48000, Note_off_c, 0, 58, 64
2, 48000, Note_on_c, 0, 59, 92
2, 48840, Note_off_c, 0, 59, 64
2, 48960, Note_on_c, 0, 78, 69
2, 49380, Note_off_c, 0, 78, 64
2, 49440, Note_on_c, 0, 80, 58
2, 49860, Note_off_c, 0, 80, 64
2, 49920, Note_on_c, 0, 81, 45
2, 50995, Note_off_c, 0, 81, 64
2, 51000, Note_on_c, 0, 80, 53
2, 51080, Note_off_c, 0, 80, 64
2, 51120, Note_on_c, 0, 78, 54
2, 51200, Note_off_c, 0, 78, 64
2, 51240, Note_on_c, 0, 76, 55
2, 51320, Note_off_c, 0, 76, 64
2, 51360, Note_on_c, 0, 74, 56
2, 51440, Note_off_c, 0, 74, 64
2, 51480, Note_on_c, 0, 73, 57
2, 51560, Note_off_c, 0, 73, 64
2, 51600, Note_on_c, 0, 71, 58
2, 51680, Note_off_c, 0, 71, 64
2, 51720, Note_on_c, 0, 69, 59
2, 51800, Note_off_c, 0, 69, 64
2, 51840, Note_on_c, 0, 81, 60
2, 52915, Note_off_c, 0, 81, 64
2, 52920, Note_on_c, 0, 80, 61
2, 53000, Note_off_c, 0, 80, 64
2, 53040, Note_on_c, 0, 78, 63
2, 53120, Note_off_c, 0, 78, 64
2, 53160, Note_on_c, 0, 76, 65
2, 53240, Note_off_c, 0, 76, 64
2, 53280, Note_on_c, 0, 74, 67
2, 53360, Note_off_c, 0, 74, 64
2, 53400, Note_on_c, 0, 73, 69
2, 53480, Note_off_c, 0, 73, 64
2, 53520, Note_on_c, 0, 71, 71
2, 53600, Note_off_c, 0, 71, 64
2, 53640, Note_on_c, 0, 69, 73
2, 53720, Note_off_c, 0, 69, 64
2, 53760, Note_on_c, 0, 81, 75
2, 54835, Note_off_c, 0, 81, 64
2, 54840, Note_on_c, 0, 80, 77
2, 54920, Note_off_c, 0, 80, 64
2, 54960, Note_on_c, 0, 78, 79
2, 55040, Note_off_c, 0, 78, 64
2, 55080, Note_on_c, 0, 76, 81
2, 55160, Note_off_c, 0, 76, 64
2, 55200, Note_on_c, 0, 74, 83
2, 55280, Note_off_c, 0, 74, 64
2, 55320, Note_on_c, 0, 73, 85
2, 55400, Note_off_c, 0, 73, 64
2, 55440, Note_on_c, 0, 71, 87
2, 55520, Note_off_c, 0, 71, 64
2, 55560, Note_on_c, 0, 69, 89
2, 55640, Note_off_c, 0, 69, 64
2, 55680, Note_on_c, 0, 81, 92
2, 55760, Note_off_c, 0, 81, 64
2, 55920, Note_on_c, 0, 80, 92
2, 56000, Note_off_c, 0, 80, 64
2, 56040, Note_on_c, 0, 78, 92
2, 56120, Note_off_c, 0, 78, 64
2, 56160, Note_on_c, 0, 76, 92
2, 56240, Note_off_c, 0, 76, 64
2, 56280, Note_on_c, 0, 74, 92
2, 56360, Note_off_c, 0, 74, 64
2, 56400, Note_on_c, 0, 73, 92
2, 56480, Note_off_c, 0, 73, 64
2, 56520, Note_on_c, 0, 71, 92
2, 56600, Note_off_c, 0, 71, 64
2, 56640, Note_on_c, 0, 69, 92
2, 56720, Note_off_c, 0, 69, 64
2, 56760, Note_on_c, 0, 68, 92
2, 56840, Note_off_c, 0, 68, 64
2, 56880, Note_on_c, 0, 66, 92
2, 56960, Note_off_c, 0, 66, 64
2, 57000, Note_on_c, 0, 64, 92
2, 57080, Note_off_c, 0, 64, 64
2, 57120, Note_on_c, 0, 62, 92
2, 57200, Note_off_c, 0, 62, 64
2, 57240, Note_on_c, 0, 61, 92
2, 57320, Note_off_c, 0, 61, 64
2, 57360, Note_on_c, 0, 59, 92
2, 57440, Note_off_c, 0, 59, 64
2, 57480, Note_on_c, 0, 57, 92
2, 57560, Note_off_c, 0, 57, 64
2, 57600, Note_on_c, 0, 55, 92
2, 58080, Note_off_c, 0, 55, 64
2, 58080, Note_on_c, 0, 67, 92
2, 58560, Note_off_c, 0, 67, 64
2, 58560, Note_on_c, 0, 66, 92
2, 59040, Note_off_c, 0, 66, 64
2, 59040, Note_on_c, 0, 65, 92
2, 59440, Note_off_c, 0, 65, 64
2, 59520, Note_on_c, 0, 66, 92
2, 59920, Note_off_c, 0, 66, 64
2, 60000, Note_on_c, 0, 81, 92
2, 60840, Note_off_c, 0, 81, 64
2, 60960, Note_on_c, 0, 80, 92
2, 61080, Note_off_c, 0, 80, 64
2, 61080, Note_on_c, 0, 78, 92
2, 61195, Note_off_c, 0, 78, 64
2, 61200, Note_on_c, 0, 76, 92
2, 61280, Note_off_c, 0, 76, 64
2, 61320, Note_on_c, 0, 74, 92
2, 61400, Note_off_c, 0, 74, 64
2, 61440, Note_on_c, 0, 73, 92
2, 61520, Note_off_c, 0, 73, 64
2, 61680, Note_on_c, 0, 76, 92
2, 61760, Note_off_c, 0, 76, 64
2, 61920, Note_on_c, 0, 74, 92
2, 62040, Note_off_c, 0, 74, 64
2, 62040, Note_on_c, 0, 73, 92
2, 62155, Note_off_c, 0, 73, 64
2, 62160, Note_on_c, 0, 71, 92
2, 62240, Note_off_c, 0, 71, 64
2, 62280, Note_on_c, 0, 69, 92
2, 62360, Note_off_c, 0, 69, 64
2, 62400, Note_on_c, 0, 71, 92
2, 62460, Note_off_c, 0, 71, 64
2, 62460, Note_on_c, 0, 73, 92
2, 62520, Note_off_c, 0, 73, 64
2, 62520, Note_on_c, 0, 71, 92
2, 62580, Note_off_c, 0, 71, 64
2, 62580, Note_on_c, 0, 73, 92
2, 62640, Note_off_c, 0, 73, 64
2, 62640, Note_on_c, 0, 71, 92
2, 62700, Note_off_c, 0, 71, 64
2, 62700, Note_on_c, 0, 73, 92
2, 62760, Note_off_c, 0, 73, 64
2, 62760, Note_on_c, 0, 71, 92
2, 62820, Note_off_c, 0, 71, 64
2, 62820, Note_on_c, 0, 73, 92
2, 62880, Note_off_c, 0, 73, 64
2, 62880, Note_on_c, 0, 71, 92
2, 62940, Note_off_c, 0, 71, 64
2, 62940, Note_on_c, 0, 73, 92
2, 63000, Note_off_c, 0, 73, 64
2, 63000, Note_on_c, 0, 71, 92
2, 63060, Note_off_c, 0, 71, 64
2, 63060, Note_on_c, 0, 73, 92
2, 63120, Note_off_c, 0, 73, 64
2, 63120, Note_on_c, 0, 71, 92
2, 63180, Note_off_c, 0, 71, 64
2, 63180, Note_on_c, 0, 73, 92
2, 63240, Note_off_c, 0, 73, 64
2, 63240, Note_on_c, 0, 71, 92
2, 63300, Note_off_c, 0, 71, 64
2, 63300, Note_on_c, 0, 73, 92
2, 63360, Note_off_c, 0, 73, 64
2, 63360, Note_on_c, 0, 69, 92
2, 63440, Note_off_c, 0, 69, 64
2, 63600, Note_on_c, 0, 76, 90
2, 63720, Note_off_c, 0, 76, 64
2, 63720, Note_on_c, 0, 79, 89
2, 63840, Note_off_c, 0, 79, 64
2, 63840, Note_on_c, 0, 78, 88
2, 63960, Note_off_c, 0, 78, 64
2, 63960, Note_on_c, 0, 81, 87
2, 64080, Note_off_c, 0, 81, 64
2, 64080, Note_on_c, 0, 80, 86
2, 64200, Note_off_c, 0, 80, 64
2, 64200, Note_on_c, 0, 83, 85
2, 64320, Note_off_c, 0, 83, 64
2, 64320, Note_on_c, 0, 81, 83
2, 64720, Note_off_c, 0, 81, 64
2, 65280, Note_on_c, 0, 69, 75
2, 65360, Note_off_c, 0, 69, 64
2, 65520, Note_on_c, 0, 76, 74
2, 65640, Note_off_c, 0, 76, 64
2, 65640, Note_on_c, 0, 79, 73
2, 65760, Note_off_c, 0, 79, 64
2, 65760, Note_on_c, 0, 78, 72
2, 65880, Note_off_c, 0, 78, 64
2, 65880, Note_on_c, 0, 81, 71
2, 66000, Note_off_c, 0, 81, 64
2, 66000, Note_on_c, 0, 80, 70
2, 66120, Note_off_c, 0, 80, 64
2, 66120, Note_on_c, 0, 83, 69
2, 66240, Note_off_c, 0, 83, 64
2, 66240, Note_on_c, 0, 81, 68
2, 66640, Note_off_c, 0, 81, 64
2, 67200, Note_on_c, 0, 69, 60
2, 67280, Note_off_c, 0, 69, 64
2, 67440, Note_on_c, 0, 81, 60
2, 67560, Note_off_c, 0, 81, 64
2, 67560, Note_on_c, 0, 83, 58
2, 67680, Note_off_c, 0, 83, 64
2, 67680, Note_on_c, 0, 81, 56
2, 67800, Note_off_c, 0, 81, 64
2, 67800, Note_on_c, 0, 83, 54
2, 67920, Note_off_c, 0, 83, 64
2, 67920, Note_on_c, 0, 81, 51
2, 68040, Note_off_c, 0, 81, 64
2, 68040, Note_on_c, 0, 83, 48
2, 68160, Note_off_c, 0, 83, 64
2, 68160, Note_on_c, 0, 81, 45
2, 68560, Note_off_c, 0, 81, 64
2, 69120, Note_on_c, 0, 81, 92
2, 70920, Note_off_c, 0, 81, 64
2, 71040, Note_on_c, 0, 79, 92
2, 71280, Note_off_c, 0, 79, 64
2, 71280, Note_on_c, 0, 78, 92
2, 71920, Note_off_c, 0, 78, 64
2, 72000, Note_on_c, 0, 76, 92
2, 72240, Note_off_c, 0, 76, 64
2, 72240, Note_on_c, 0, 74, 92
2, 72880, Note_off_c, 0, 74, 64
2, 72960, Note_on_c, 0, 73, 92
2, 73080, Note_off_c, 0, 73, 64
2, 73080, Note_on_c, 0, 74, 92
2, 73200, Note_off_c, 0, 74, 64
2, 73200, Note_on_c, 0, 76, 92
2, 73320, Note_off_c, 0, 76, 64
2, 73320, Note_on_c, 0, 74, 92
2, 73440, Note_off_c, 0, 74, 64
2, 73440, Note_on_c, 0, 73, 92
2, 73560, Note_off_c, 0, 73, 64
2, 73560, Note_on_c, 0, 74, 92
2, 73680, Note_off_c, 0, 74, 64
2, 73680, Note_on_c, 0, 76, 92
2, 73800, Note_off_c, 0, 76, 64
2, 73800, Note_on_c, 0, 74, 92
2, 73920, Note_off_c, 0, 74, 64
2, 73920, Note_on_c, 0, 73, 92
2, 74040, Note_off_c, 0, 73, 64
2, 74040, Note_on_c, 0, 74, 92
2, 74160, Note_off_c, 0, 74, 64
2, 74160, Note_on_c, 0, 76, 92
2, 74280, Note_off_c, 0, 76, 64
2, 74280, Note_on_c, 0, 74, 92
2, 74400, Note_off_c, 0, 74, 64
2, 74400, Note_on_c, 0, 73, 92
2, 74520, Note_off_c, 0, 73, 64
2, 74520, Note_on_c, 0, 74, 92
2, 74640, Note_off_c, 0, 74, 64
2, 74640, Note_on_c, 0, 76, 92
2, 74760, Note_off_c, 0, 76, 64
2, 74760, Note_on_c, 0, 73, 92
2, 74880, Note_off_c, 0, 73, 64
2, 74880, Note_on_c, 0, 74, 92
2, 75475, Note_off_c, 0, 74, 64
2, 76080, Note_on_c, 0, 81, 92
2, 76320, Note_off_c, 0, 81, 64
2, 76320, Note_on_c, 0, 78, 92
2, 76560, Note_off_c, 0, 78, 64
2, 76560, Note_on_c, 0, 74, 92
2, 76795, Note_off_c, 0, 74, 64
2, 76800, Note_on_c, 0, 76, 92
2, 76920, Note_off_c, 0, 76, 64
2, 76920, Note_on_c, 0, 78, 92
2, 77040, Note_off_c, 0, 78, 64
2, 77040, Note_on_c, 0, 79, 92
2, 77160, Note_off_c, 0, 79, 64
2, 77160, Note_on_c, 0, 78, 92
2, 77280, Note_off_c, 0, 78, 64
2, 77280, Note_on_c, 0, 76, 92
2, 77400, Note_off_c, 0, 76, 64
2, 77400, Note_on_c, 0, 78, 92
2, 77520, Note_off_c, 0, 78, 64
2, 77520, Note_on_c, 0, 79, 92
2, 77640, Note_off_c, 0, 79, 64
2, 77640, Note_on_c, 0, 78, 92
2, 77760, Note_off_c, 0, 78, 64
2, 77760, Note_on_c, 0, 76, 92
2, 77880, Note_off_c, 0, 76, 64
2, 77880, Note_on_c, 0, 78, 92
2, 78000, Note_off_c, 0, 78, 64
2, 78000, Note_on_c, 0, 79, 92
2, 78120, Note_off_c, 0, 79, 64
2, 78120, Note_on_c, 0, 78, 92
2, 78240, Note_off_c, 0, 78, 64
2, 78240, Note_on_c, 0, 76, 92
2, 78360, Note_off_c, 0, 76, 64
2, 78360, Note_on_c, 0, 78, 92
2, 78480, Note_off_c, 0, 78, 64
2, 78480, Note_on_c, 0, 79, 92
2, 78600, Note_off_c, 0, 79, 64
2, 78600, Note_on_c, 0, 76, 92
2, 78720, Note_off_c, 0, 76, 64
2, 78720, Note_on_c, 0, 78, 92
2, 78955, Note_off_c, 0, 78, 64
2, 79200, Note_on_c, 0, 74, 92
2, 79915, Note_off_c, 0, 74, 64
2, 79920, Note_on_c, 0, 76, 92
2, 80000, Note_off_c, 0, 76, 64
2, 80040, Note_on_c, 0, 78, 92
2, 80120, Note_off_c, 0, 78, 64
2, 80160, Note_on_c, 0, 79, 92
2, 80240, Note_off_c, 0, 79, 64
2, 80280, Note_on_c, 0, 81, 92
2, 80360, Note_off_c, 0, 81, 64
2, 80400, Note_on_c, 0, 83, 92
2, 80480, Note_off_c, 0, 83, 64
2, 80520, Note_on_c, 0, 85, 92
2, 80600, Note_off_c, 0, 85, 64
2, 80640, Note_on_c, 0, 86, 92
2, 81480, Note_off_c, 0, 86, 64
2, 81600, Note_on_c, 0, 81, 92
2, 82000, Note_off_c, 0, 81, 64
2, 82080, Note_on_c, 0, 78, 92
2, 82480, Note_off_c, 0, 78, 64
2, 82560, Note_on_c, 0, 78, 92
2, 82680, Note_off_c, 0, 78, 64
2, 82680, Note_on_c, 0, 79, 92
2, 82800, Note_off_c, 0, 79, 64
2, 82800, Note_on_c, 0, 75, 92
2, 82920, Note_off_c, 0, 75, 64
2, 82920, Note_on_c, 0, 76, 92
2, 83035, Note_off_c, 0, 76, 64
2, 83040, Note_on_c, 0, 76, 92
2, 83440, Note_off_c, 0, 76, 64
2, 83760, Note_on_c, 0, 76, 92
2, 84000, Note_off_c, 0, 76, 64
2, 84000, Note_on_c, 0, 79, 92
2, 84240, Note_off_c, 0, 79, 64
2, 84240, Note_on_c, 0, 83, 92
2, 84475, Note_off_c, 0, 83, 64
2, 84480, Note_on_c, 0, 80, 92
2, 84600, Note_off_c, 0, 80, 64
2, 84600, Note_on_c, 0, 81, 92
2, 85360, Note_off_c, 0, 81, 64
2, 85440, Note_on_c, 0, 80, 92
2, 85560, Note_off_c, 0, 80, 64
2, 85560, Note_on_c, 0, 81, 92
2, 85915, Note_off_c, 0, 81, 64
2, 85920, Note_on_c, 0, 80, 92
2, 86040, Note_off_c, 0, 80, 64
2, 86040, Note_on_c, 0, 81, 92
2, 86395, Note_off_c, 0, 81, 64
2, 86400, Note_on_c, 0, 81, 92
2, 86520, Note_off_c, 0, 81, 64
2, 86520, Note_on_c, 0, 79, 92
2, 86635, Note_off_c, 0, 79, 64
2, 86820, Note_on_c, 0, 78, 92
2, 86940, Note_off_c, 0, 78, 64
2, 86940, Note_on_c, 0, 79, 92
2, 87475, Note_off_c, 0, 79, 64
2, 87600, Note_on_c, 0, 78, 92
2, 87720, Note_off_c, 0, 78, 64
2, 87720, Note_on_c, 0, 79, 92
2, 87835, Note_off_c, 0, 79, 64
2, 87840, Note_on_c, 0, 81, 92
2, 87920, Note_off_c, 0, 81, 64
2, 87960, Note_on_c, 0, 79, 92
2, 88040, Note_off_c, 0, 79, 64
2, 88080, Note_on_c, 0, 78, 92
2, 88160, Note_off_c, 0, 78, 64
2, 88200, Note_on_c, 0, 76, 92
2, 88280, Note_off_c, 0, 76, 64
2, 88320, Note_on_c, 0, 74, 92
2, 88440, Note_off_c, 0, 74, 64
2, 88440, Note_on_c, 0, 69, 92
2, 88560, Note_off_c, 0, 69, 64
2, 88560, Note_on_c, 0, 66, 92
2, 88640, Note_off_c, 0, 66, 64
2, 88680, Note_on_c, 0, 69, 92
2, 88760, Note_off_c, 0, 69, 64
2, 88800, Note_on_c, 0, 74, 92
2, 88880, Note_off_c, 0, 74, 64
2, 88920, Note_on_c, 0, 69, 92
2, 89000, Note_off_c, 0, 69, 64
2, 89040, Note_on_c, 0, 76, 92
2, 89120, Note_off_c, 0, 76, 64
2, 89160, Note_on_c, 0, 69, 92
2, 89240, Note_off_c, 0, 69, 64
2, 89280, Note_on_c, 0, 78, 92
2, 89360, Note_off_c, 0, 78, 64
2, 89400, Note_on_c, 0, 74, 92
2, 89480, Note_off_c, 0, 74, 64
2, 89520, Note_on_c, 0, 81, 92
2, 89600, Note_off_c, 0, 81, 64
2, 89640, Note_on_c, 0, 78, 92
2, 89720, Note_off_c, 0, 78, 64
2, 89760, Note_on_c, 0, 79, 92
2, 89840, Note_off_c, 0, 79, 64
2, 89880, Note_on_c, 0, 76, 92
2, 89960, Note_off_c, 0, 76, 64
2, 90000, Note_on_c, 0, 74, 92
2, 90080, Note_off_c, 0, 74, 64
2, 90120, Note_on_c, 0, 73, 92
2, 90200, Note_off_c, 0, 73, 64
2, 90240, Note_on_c, 0, 74, 92
2, 90360, Note_off_c, 0, 74, 64
2, 90360, Note_on_c, 0, 69, 92
2, 90480, Note_off_c, 0, 69, 64
2, 90480, Note_on_c, 0, 66, 92
2, 90560, Note_off_c, 0, 66, 64
2, 90600, Note_on_c, 0, 69, 92
2, 90680, Note_off_c, 0, 69, 64
2, 90720, Note_on_c, 0, 74, 92
2, 90800, Note_off_c, 0, 74, 64
2, 90840, Note_on_c, 0, 69, 92
2, 90920, Note_off_c, 0, 69, 64
2, 90960, Note_on_c, 0, 76, 92
2, 91040, Note_off_c, 0, 76, 64
2, 91080, Note_on_c, 0, 69, 92
2, 91160, Note_off_c, 0, 69, 64
2, 91200, Note_on_c, 0, 78, 92
2, 91280, Note_off_c, 0, 78, 64
2, 91320, Note_on_c, 0, 69, 92
2, 91400, Note_off_c, 0, 69, 64
2, 91440, Note_on_c, 0, 78, 92
2, 91520, Note_off_c, 0, 78, 64
2, 91560, Note_on_c, 0, 81, 92
2, 91640, Note_off_c, 0, 81, 64
2, 91680, Note_on_c, 0, 79, 92
2, 91760, Note_off_c, 0, 79, 64
2, 91800, Note_on_c, 0, 76, 92
2, 91880, Note_off_c, 0, 76, 64
2, 91920, Note_on_c, 0, 74, 92
2, 92000, Note_off_c, 0, 74, 64
2, 92040, Note_on_c, 0, 73, 92
2, 92120, Note_off_c, 0, 73, 64
2, 92160, Note_on_c, 0, 74, 92
2, 92560, Note_off_c, 0, 74, 64
2, 96000, Note_on_c, 0, 86, 92
2, 97320, Note_off_c, 0, 86, 64
2, 97440, Note_on_c, 0, 83, 92
2, 97795, Note_off_c, 0, 83, 64
2, 97800, Note_on_c, 0, 80, 92
2, 97915, Note_off_c, 0, 80, 64
2, 97920, Note_on_c, 0, 74, 92
2, 98320, Note_off_c, 0, 74, 64
2, 98400, Note_on_c, 0, 71, 88
2, 98755, Note_off_c, 0, 71, 64
2, 98760, Note_on_c, 0, 68, 85
2, 98875, Note_off_c, 0, 68, 64
2, 98880, Note_on_c, 0, 64, 84
2, 99115, Note_off_c, 0, 64, 64
2, 99120, Note_on_c, 0, 71, 82
2, 99240, Note_off_c, 0, 71, 64
2, 99240, Note_on_c, 0, 73, 81
2, 99360, Note_off_c, 0, 73, 64
2, 99360, Note_on_c, 0, 74, 80
2, 99440, Note_off_c, 0, 74, 64
2, 99600, Note_on_c, 0, 74, 78
2, 99680, Note_off_c, 0, 74, 64
2, 99840, Note_on_c, 0, 73, 75
2, 99960, Note_off_c, 0, 73, 64
2, 99960, Note_on_c, 0, 69, 75
2, 100040, Note_off_c, 0, 69, 64
2, 100080, Note_on_c, 0, 71, 75
2, 100160, Note_off_c, 0, 71, 64
2, 100200, Note_on_c, 0, 73, 75
2, 100280, Note_off_c, 0, 73, 64
2, 100320, Note_on_c, 0, 74, 75
2, 100400, Note_off_c, 0, 74, 64
2, 100440, Note_on_c, 0, 76, 75
2, 100520, Note_off_c, 0, 76, 64
2, 100560, Note_on_c, 0, 78, 75
2, 100640, Note_off_c, 0, 78, 64
2, 100680, Note_on_c, 0, 80, 75
2, 100760, Note_off_c, 0, 80, 64
2, 100800, Note_on_c, 0, 81, 75
2, 100880, Note_off_c, 0, 81, 64
2, 100920, Note_on_c, 0, 83, 75
2, 101000, Note_off_c, 0, 83, 64
2, 101040, Note_on_c, 0, 85, 75
2, 101120, Note_off_c, 0, 85, 64
2, 101160, Note_on_c, 0, 83, 75
2, 101240, Note_off_c, 0, 83, 64
2, 101280, Note_on_c, 0, 81, 75
2, 101360, Note_off_c, 0, 81, 64
2, 101400, Note_on_c, 0, 80, 75
2, 101480, Note_off_c, 0, 80, 64
2, 101520, Note_on_c, 0, 78, 75
2, 101600, Note_off_c, 0, 78, 64
2, 101640, Note_on_c, 0, 76, 75
2, 101720, Note_off_c, 0, 76, 64
2, 101760, Note_on_c, 0, 74, 75
2, 101880, Note_off_c, 0, 74, 64
2, 101880, Note_on_c, 0, 71, 75
2, 101960, Note_off_c, 0, 71, 64
2, 102000, Note_on_c, 0, 73, 75
2, 102080, Note_off_c, 0, 73, 64
2, 102120, Note_on_c, 0, 74, 75
2, 102200, Note_off_c, 0, 74, 64
2, 102240, Note_on_c, 0, 76, 75
2, 102320, Note_off_c, 0, 76, 64
2, 102360, Note_on_c, 0, 78, 75
2, 102440, Note_off_c, 0, 78, 64
2, 102480, Note_on_c, 0, 80, 75
2, 102560, Note_off_c, 0, 80, 64
2, 102600, Note_on_c, 0, 81, 75
2, 102680, Note_off_c, 0, 81, 64
2, 102720, Note_on_c, 0, 83, 75
2, 102800, Note_off_c, 0, 83, 64
2, 102840, Note_on_c, 0, 81, 75
2, 102920, Note_off_c, 0, 81, 64
2, 102960, Note_on_c, 0, 80, 75
2, 103040, Note_off_c, 0, 80, 64
2, 103080, Note_on_c, 0, 81, 75
2, 103160, Note_off_c, 0, 81, 64
2, 103200, Note_on_c, 0, 80, 75
2, 103280, Note_off_c, 0, 80, 64
2, 103320, Note_on_c, 0, 78, 75
2, 103400, Note_off_c, 0, 78, 64
2, 103440, Note_on_c, 0, 76, 75
2, 103520, Note_off_c, 0, 76, 64
2, 103560, Note_on_c, 0, 74, 75
2, 103640, Note_off_c, 0, 74, 64
2, 103680, Note_on_c, 0, 73, 75
2, 103795, Note_off_c, 0, 73, 64
2, 104160, Note_on_c, 0, 76, 60
2, 107600, Note_off_c, 0, 76, 64
2, 108720, Note_on_c, 0, 81, 75
2, 108800, Note_off_c, 0, 81, 64
2, 108960, Note_on_c, 0, 69, 75
2, 109040, Note_off_c, 0, 69, 64
2, 109200, Note_on_c, 0, 71, 75
2, 109260, Note_off_c, 0, 71, 64
2, 109260, Note_on_c, 0, 73, 75
2, 109320, Note_off_c, 0, 73, 64
2, 109320, Note_on_c, 0, 71, 75
2, 109380, Note_off_c, 0, 71, 64
2, 109380, Note_on_c, 0, 73, 75
2, 109435, Note_off_c, 0, 73, 64
2, 109440, Note_on_c, 0, 73, 75
2, 109520, Note_off_c, 0, 73, 64
2, 109680, Note_on_c, 0, 73, 77
2, 109760, Note_off_c, 0, 73, 64
2, 109920, Note_on_c, 0, 76, 79
2, 110000, Note_off_c, 0, 76, 64
2, 110160, Note_on_c, 0, 74, 81
2, 110240, Note_off_c, 0, 74, 64
2, 110400, Note_on_c, 0, 76, 83
2, 110480, Note_off_c, 0, 76, 64
2, 110640, Note_on_c, 0, 85, 85
2, 110720, Note_off_c, 0, 85, 64
2, 110760, Note_on_c, 0, 81, 86
2, 110840, Note_off_c, 0, 81, 64
2, 110880, Note_on_c, 0, 76, 87
2, 110960, Note_off_c, 0, 76, 64
2, 111120, Note_on_c, 0, 74, 89
2, 111200, Note_off_c, 0, 74, 64
2, 111360, Note_on_c, 0, 73, 92
2, 111440, Note_off_c, 0, 73, 64
2, 111600, Note_on_c, 0, 76, 92
2, 111680, Note_off_c, 0, 76, 64
2, 111840, Note_on_c, 0, 81, 92
2, 112480, Note_off_c, 0, 81, 64
2, 112560, Note_on_c, 0, 79, 92
2, 112800, Note_off_c, 0, 79, 64
2, 112800, Note_on_c, 0, 78, 92
2, 113040, Note_off_c, 0, 78, 64
2, 113040, Note_on_c, 0, 77, 92
2, 113280, Note_off_c, 0, 77, 64
2, 113280, Note_on_c, 0, 77, 92
2, 113400, Note_off_c, 0, 77, 64
2, 113400, Note_on_c, 0, 78, 92
2, 114160, Note_off_c, 0, 78, 64
2, 114240, Note_on_c, 0, 77, 92
2, 114360, Note_off_c, 0, 77, 64
2, 114360, Note_on_c, 0, 78, 92
2, 114715, Note_off_c, 0, 78, 64
2, 114720, Note_on_c, 0, 77, 92
2, 114840, Note_off_c, 0, 77, 64
2, 114840, Note_on_c, 0, 78, 92
2, 115195, Note_off_c, 0, 78, 64
2, 115200, Note_on_c, 0, 58, 92
2, 117120, Note_off_c, 0, 58, 64
2, 117120, Note_on_c, 0, 59, 92
2, 117960, Note_off_c, 0, 59, 64
2, 118080, Note_on_c, 0, 78, 69
2, 118500, Note_off_c, 0, 78, 64
2, 118560, Note_on_c, 0, 80, 58
2, 118980, Note_off_c, 0, 80, 64
2, 119040, Note_on_c, 0, 81, 45
2, 120115, Note_off_c, 0, 81, 64
2, 120120, Note_on_c, 0, 80, 53
2, 120200, Note_off_c, 0, 80, 64
2, 120240, Note_on_c, 0, 78, 54
2, 120320, Note_off_c, 0, 78, 64
2, 120360, Note_on_c, 0, 76, 55
2, 120440, Note_off_c, 0, 76, 64
2, 120480, Note_on_c, 0, 74, 56
2, 120560, Note_off_c, 0, 74, 64
2, 120600, Note_on_c, 0, 73, 57
2, 120680, Note_off_c, 0, 73, 64
2, 120720, Note_on_c, 0, 71, 58
2, 120800, Note_off_c, 0, 71, 64
2, 120840, Note_on_c, 0, 69, 59
2, 120920, Note_off_c, 0, 69, 64
2, 120960, Note_on_c, 0, 81, 60
2, 122035, Note_off_c, 0, 81, 64
2, 122040, Note_on_c, 0, 80, 61
2, 122120, Note_off_c, 0, 80, 64
2, 122160, Note_on_c, 0, 78, 63
2, 122240, Note_off_c, 0, 78, 64
2, 122280, Note_on_c, 0, 76, 65
2, 122360, Note_off_c, 0, 76, 64
2, 122400, Note_on_c, 0, 74, 67
2, 122480, Note_off_c, 0, 74, 64
2, 122520, Note_on_c, 0, 73, 69
2, 122600, Note_off_c, 0, 73, 64
2, 122640, Note_on_c, 0, 71, 71
2, 122720, Note_off_c, 0, 71, 64
2, 122760, Note_on_c, 0, 69, 73
2, 122840, Note_off_c, 0, 69, 64
2, 122880, Note_on_c, 0, 81, 75
2, 123955, Note_off_c, 0, 81, 64
2, 123960, Note_on_c, 0, 80, 77
2, 124040, Note_off_c, 0, 80, 64
2, 124080, Note_on_c, 0, 78, 79
2, 124160, Note_off_c, 0, 78, 64
2, 124200, Note_on_c, 0, 76, 81
2, 124280, Note_off_c, 0, 76, 64
2, 124320, Note_on_c, 0, 74, 83
2, 124400, Note_off_c, 0, 74, 64
2, 124440, Note_on_c, 0, 73, 85
2, 124520, Note_off_c, 0, 73, 64
2, 124560, Note_on_c, 0, 71, 87
2, 124640, Note_off_c, 0, 71, 64
2, 124680, Note_on_c, 0, 69, 89
2, 124760, Note_off_c, 0, 69, 64
2, 124800, Note_on_c, 0, 81, 92
2, 124880, Note_off_c, 0, 81, 64
2, 125040, Note_on_c, 0, 80, 92
2, 125120, Note_off_c, 0, 80, 64
2, 125160, Note_on_c, 0, 78, 92
2, 125240, Note_off_c, 0, 78, 64
2, 125280, Note_on_c, 0, 76, 92
2, 125360, Note_off_c, 0, 76, 64
2, 125400, Note_on_c, 0, 74, 92
2, 125480, Note_off_c, 0, 74, 64
2, 125520, Note_on_c, 0, 73, 92
2, 125600, Note_off_c, 0, 73, 64
2, 125640, Note_on_c, 0, 71, 92
2, 125720, Note_off_c, 0, 71, 64
2, 125760, Note_on_c, 0, 69, 92
2, 125840, Note_off_c, 0, 69, 64
2, 125880, Note_on_c, 0, 68, 92
2, 125960, Note_off_c, 0, 68, 64
2, 126000, Note_on_c, 0, 66, 92
2, 126080, Note_off_c, 0, 66, 64
2, 126120, Note_on_c, 0, 64, 92
2, 126200, Note_off_c, 0, 64, 64
2, 126240, Note_on_c, 0, 62, 92
2, 126320, Note_off_c, 0, 62, 64
2, 126360, Note_on_c, 0, 61, 92
2, 126440, Note_off_c, 0, 61, 64
2, 126480, Note_on_c, 0, 59, 92
2, 126560, Note_off_c, 0, 59, 64
2, 126600, Note_on_c, 0, 57, 92
2, 126680, Note_off_c, 0, 57, 64
2, 126720, Note_on_c, 0, 55, 92
2, 127200, Note_off_c, 0, 55, 64
2, 127200, Note_on_c, 0, 67, 92
2, 127680, Note_off_c, 0, 67, 64
2, 127680, Note_on_c, 0, 66, 92
2, 128160, Note_off_c, 0, 66, 64
2, 128160, Note_on_c, 0, 65, 92
2, 128560, Note_off_c, 0, 65, 64
2, 128640, Note_on_c, 0, 66, 92
2, 129040, Note_off_c, 0, 66, 64
2, 129120, Note_on_c, 0, 81, 92
2, 129960, Note_off_c, 0, 81, 64
2, 130080, Note_on_c, 0, 80, 92
2, 130200, Note_off_c, 0, 80, 64
2, 130200, Note_on_c, 0, 78, 92
2, 130315, Note_off_c, 0, 78, 64
2, 130320, Note_on_c, 0, 76, 92
2, 130400, Note_off_c, 0, 76, 64
2, 130440, Note_on_c, 0, 74, 92
2, 130520, Note_off_c, 0, 74, 64
2, 130560, Note_on_c, 0, 73, 92
2, 130640, Note_off_c, 0, 73, 64
2, 130800, Note_on_c, 0, 76, 92
2, 130880, Note_off_c, 0, 76, 64
2, 131040, Note_on_c, 0, 74, 92
2, 131160, Note_off_c, 0, 74, 64
2, 131160, Note_on_c, 0, 73, 92
2, 131275, Note_off_c, 0, 73, 64
2, 131280, Note_on_c, 0, 71, 92
2, 131360, Note_off_c, 0, 71, 64
2, 131400, Note_on_c, 0, 69, 92
2, 131480, Note_off_c, 0, 69, 64
2, 131520, Note_on_c, 0, 71, 92
2, 131580, Note_off_c, 0, 71, 64
2, 131580, Note_on_c, 0, 73, 92
2, 131640, Note_off_c, 0, 73, 64
2, 131640, Note_on_c, 0, 71, 92
2, 131700, Note_off_c, 0, 71, 64
2, 131700, Note_on_c, 0, 73, 92
2, 131760, Note_off_c, 0, 73, 64
2, 131760, Note_on_c, 0, 71, 92
2, 131820, Note_off_c, 0, 71, 64
2, 131820, Note_on_c, 0, 73, 92
2, 131880, Note_off_c, 0, 73, 64
2, 131880, Note_on_c, 0, 71, 92
2, 131940, Note_off_c, 0, 71, 64
2, 131940, Note_on_c, 0, 73, 92
2, 132000, Note_off_c, 0, 73, 64
2, 132000, Note_on_c, 0, 71, 92
2, 132060, Note_off_c, 0, 71, 64
2, 132060, Note_on_c, 0, 73, 92
2, 132120, Note_off_c, 0, 73, 64
2, 132120, Note_on_c, 0, 71, 92
2, 132180, Note_off_c, 0, 71, 64
2, 132180, Note_on_c, 0, 73, 92
2, 132240, Note_off_c, 0, 73, 64
2, 132240, Note_on_c, 0, 71, 92
2, 132300, Note_off_c, 0, 71, 64
2, 132300, Note_on_c, 0, 73, 92
2, 132360, Note_off_c, 0, 73, 64
2, 132360, Note_on_c, 0, 71, 92
2, 132420, Note_off_c, 0, 71, 64
2, 132420, Note_on_c, 0, 73, 92
2, 132480, Note_off_c, 0, 73, 64
2, 132480, Note_on_c, 0, 69, 92
2, 132560, Note_off_c, 0, 69, 64
2, 132720, Note_on_c, 0, 76, 90
2, 132840, Note_off_c, 0, 76, 64
2, 132840, Note_on_c, 0, 79, 89
2, 132960, Note_off_c, 0, 79, 64
2, 132960, Note_on_c, 0, 78, 88
2, 133080, Note_off_c, 0, 78, 64
2, 133080, Note_on_c, 0, 81, 87
2, 133200, Note_off_c, 0, 81, 64
2, 133200, Note_on_c, 0, 80, 86
2, 133320, Note_off_c, 0, 80, 64
2, 133320, Note_on_c, 0, 83, 85
2, 133440, Note_off_c, 0, 83, 64
2, 133440, Note_on_c, 0, 81, 83
2, 133840, Note_off_c, 0, 81, 64
2, 134400, Note_on_c, 0, 69, 75
2, 134480, Note_off_c, 0, 69, 64
2, 134640, Note_on_c, 0, 76, 74
2, 134760, Note_off_c, 0, 76, 64
2, 134760, Note_on_c, 0, 79, 73
2, 134880, Note_off_c, 0, 79, 64
2, 134880, Note_on_c, 0, 78, 72
2, 135000, Note_off_c, 0, 78, 64
2, 135000, Note_on_c, 0, 81, 71
2, 135120, Note_off_c, 0, 81, 64
2, 135120, Note_on_c, 0, 80, 70
2, 135240, Note_off_c, 0, 80, 64
2, 135240, Note_on_c, 0, 83, 69
2, 135360, Note_off_c, 0, 83, 64
2, 135360, Note_on_c, 0, 81, 68
2, 135760, Note_off_c, 0, 81, 64
2, 136320, Note_on_c, 0, 69, 60
2, 136400, Note_off_c, 0, 69, 64
2, 136560, Note_on_c, 0, 81, 60
2, 136680, Note_off_c, 0, 81, 64
2, 136680, Note_on_c, 0, 83, 58
2, 136800, Note_off_c, 0, 83, 64
2, 136800, Note_on_c, 0, 81, 56
2, 136920, Note_off_c, 0, 81, 64
2, 136920, Note_on_c, 0, 83, 54
2, 137040, Note_off_c, 0, 83, 64
2, 137040, Note_on_c, 0, 81, 51
2, 137160, Note_off_c, 0, 81, 64
2, 137160, Note_on_c, 0, 83, 48
2, 137280, Note_off_c, 0, 83, 64
2, 137280, Note_on_c, 0, 81, 45
2, 137680, Note_off_c, 0, 81, 64
2, 138240, Note_on_c, 0, 81, 92
2, 140040, Note_off_c, 0, 81, 64
2, 140160, Note_on_c, 0, 83, 92
2, 140400, Note_off_c, 0, 83, 64
2, 140400, Note_on_c, 0, 81, 92
2, 141040, Note_off_c, 0, 81, 64
2, 141120, Note_on_c, 0, 79, 92
2, 141360, Note_off_c, 0, 79, 64
2, 141360, Note_on_c, 0, 78, 92
2, 141760, Note_off_c, 0, 78, 64
2, 141840, Note_on_c, 0, 76, 92
2, 141920, Note_off_c, 0, 76, 64
2, 142080, Note_on_c, 0, 75, 92
2, 142200, Note_off_c, 0, 75, 64
2, 142200, Note_on_c, 0, 76, 92
2, 142320, Note_off_c, 0, 76, 64
2, 142320, Note_on_c, 0, 78, 92
2, 142440, Note_off_c, 0, 78, 64
2, 142440, Note_on_c, 0, 76, 92
2, 142560, Note_off_c, 0, 76, 64
2, 142560, Note_on_c, 0, 75, 92
2, 142680, Note_off_c, 0, 75, 64
2, 142680, Note_on_c, 0, 76, 92
2, 142800, Note_off_c, 0, 76, 64
2, 142800, Note_on_c, 0, 78, 92
2, 142920, Note_off_c, 0, 78, 64
2, 142920, Note_on_c, 0, 76, 92
2, 143040, Note_off_c, 0, 76, 64
2, 143040, Note_on_c, 0, 75, 92
2, 143160, Note_off_c, 0, 75, 64
2, 143160, Note_on_c, 0, 76, 92
2, 143280, Note_off_c, 0, 76, 64
2, 143280, Note_on_c, 0, 78, 92
2, 143400, Note_off_c, 0, 78, 64
2, 143400, Note_on_c, 0, 76, 92
2, 143520, Note_off_c, 0, 76, 64
2, 143520, Note_on_c, 0, 75, 92
2, 143640, Note_off_c, 0, 75, 64
2, 143640, Note_on_c, 0, 76, 92
2, 143760, Note_off_c, 0, 76, 64
2, 143760, Note_on_c, 0, 78, 92
2, 143880, Note_off_c, 0, 78, 64
2, 143880, Note_on_c, 0, 75, 92
2, 144000, Note_off_c, 0, 75, 64
2, 144000, Note_on_c, 0, 76, 92
2, 144595, Note_off_c, 0, 76, 64
2, 145200, Note_on_c, 0, 83, 92
2, 145440, Note_off_c, 0, 83, 64
2, 145440, Note_on_c, 0, 79, 92
2, 145680, Note_off_c, 0, 79, 64
2, 145680, Note_on_c, 0, 76, 92
2, 145915, Note_off_c, 0, 76, 64
2, 145920, Note_on_c, 0, 78, 92
2, 146040, Note_off_c, 0, 78, 64
2, 146040, Note_on_c, 0, 79, 92
2, 146160, Note_off_c, 0, 79, 64
2, 146160, Note_on_c, 0, 81, 92
2, 146280, Note_off_c, 0, 81, 64
2, 146280, Note_on_c, 0, 79, 92
2, 146400, Note_off_c, 0, 79, 64
2, 146400, Note_on_c, 0, 78, 92
2, 146520, Note_off_c, 0, 78, 64
2, 146520, Note_on_c, 0, 79, 92
2, 146640, Note_off_c, 0, 79, 64
2, 146640, Note_on_c, 0, 81, 92
2, 146760, Note_off_c, 0, 81, 64
2, 146760, Note_on_c, 0, 79, 92
2, 146880, Note_off_c, 0, 79, 64
2, 146880, Note_on_c, 0, 78, 92
2, 147000, Note_off_c, 0, 78, 64
2, 147000, Note_on_c, 0, 79, 92
2, 147120, Note_off_c, 0, 79, 64
2, 147120, Note_on_c, 0, 81, 92
2, 147240, Note_off_c, 0, 81, 64
2, 147240, Note_on_c, 0, 79, 92
2, 147360, Note_off_c, 0, 79, 64
2, 147360, Note_on_c, 0, 78, 92
2, 147480, Note_off_c, 0, 78, 64
2, 147480, Note_on_c, 0, 79, 92
2, 147600, Note_off_c, 0, 79, 64
2, 147600, Note_on_c, 0, 81, 92
2, 147720, Note_off_c, 0, 81, 64
2, 147720, Note_on_c, 0, 78, 92
2, 147840, Note_off_c, 0, 78, 64
2, 147840, Note_on_c, 0, 79, 92
2, 148240, Note_off_c, 0, 79, 64
2, 149760, Note_on_c, 0, 79, 92
2, 151560, Note_off_c, 0, 79, 64
2, 151680, Note_on_c, 0, 78, 92
2, 151920, Note_off_c, 0, 78, 64
2, 151920, Note_on_c, 0, 76, 92
2, 152560, Note_off_c, 0, 76, 64
2, 152640, Note_on_c, 0, 74, 92
2, 152880, Note_off_c, 0, 74, 64
2, 152880, Note_on_c, 0, 73, 92
2, 153280, Note_off_c, 0, 73, 64
2, 153360, Note_on_c, 0, 71, 92
2, 153440, Note_off_c, 0, 71, 64
2, 153600, Note_on_c, 0, 70, 92
2, 153720, Note_off_c, 0, 70, 64
2, 153720, Note_on_c, 0, 71, 92
2, 153840, Note_off_c, 0, 71, 64
2, 153840, Note_on_c, 0, 73, 92
2, 153960, Note_off_c, 0, 73, 64
2, 153960, Note_on_c, 0, 71, 92
2, 154080, Note_off_c, 0, 71, 64
2, 154080, Note_on_c, 0, 70, 92
2, 154200, Note_off_c, 0, 70, 64
2, 154200, Note_on_c, 0, 71, 92
2, 154320, Note_off_c, 0, 71, 64
2, 154320, Note_on_c, 0, 73, 92
2, 154440, Note_off_c, 0, 73, 64
2, 154440, Note_on_c, 0, 71, 92
2, 154560, Note_off_c, 0, 71, 64
2, 154560, Note_on_c, 0, 70, 92
2, 154680, Note_off_c, 0, 70, 64
2, 154680, Note_on_c, 0, 71, 92
2, 154800, Note_off_c, 0, 71, 64
2, 154800, Note_on_c, 0, 73, 92
2, 154920, Note_off_c, 0, 73, 64
2, 154920, Note_on_c, 0, 71, 92
2, 155040, Note_off_c, 0, 71, 64
2, 155040, Note_on_c, 0, 70, 92
2, 155160, Note_off_c, 0, 70, 64
2, 155160, Note_on_c, 0, 71, 92
2, 155280, Note_off_c, 0, 71, 64
2, 155280, Note_on_c, 0, 73, 92
2, 155400, Note_off_c, 0, 73, 64
2, 155400, Note_on_c, 0, 70, 92
2, 155520, Note_off_c, 0, 70, 64
2, 155520, Note_on_c, 0, 71, 92
2, 156115, Note_off_c, 0, 71, 64
2, 156720, Note_on_c, 0, 78, 92
2, 156960, Note_off_c, 0, 78, 64
2, 156960, Note_on_c, 0, 74, 92
2, 157200, Note_off_c, 0, 74, 64
2, 157200, Note_on_c, 0, 71, 92
2, 157435, Note_off_c, 0, 71, 64
2, 157440, Note_on_c, 0, 73, 92
2, 157560, Note_off_c, 0, 73, 64
2, 157560, Note_on_c, 0, 74, 92
2, 157680, Note_off_c, 0, 74, 64
2, 157680, Note_on_c, 0, 76, 92
2, 157800, Note_off_c, 0, 76, 64
2, 157800, Note_on_c, 0, 74, 92
2, 157920, Note_off_c, 0, 74, 64
2, 157920, Note_on_c, 0, 73, 92
2, 158040, Note_off_c, 0, 73, 64
2, 158040, Note_on_c, 0, 74, 92
2, 158160, Note_off_c, 0, 74, 64
2, 158160, Note_on_c, 0, 76, 92
2, 158280, Note_off_c, 0, 76, 64
2, 158280, Note_on_c, 0, 74, 92
2, 158400, Note_off_c, 0, 74, 64
2, 158400, Note_on_c, 0, 73, 92
2, 158520, Note_off_c, 0, 73, 64
2, 158520, Note_on_c, 0, 74, 92
2, 158640, Note_off_c, 0, 74, 64
2, 158640, Note_on_c, 0, 76, 92
2, 158760, Note_off_c, 0, 76, 64
2, 158760, Note_on_c, 0, 74, 92
2, 158880, Note_off_c, 0, 74, 64
2, 158880, Note_on_c, 0, 73, 92
2, 159000, Note_off_c, 0, 73, 64
2, 159000, Note_on_c, 0, 74, 92
2, 159120, Note_off_c, 0, 74, 64
2, 159120, Note_on_c, 0, 76, 92
2, 159240, Note_off_c, 0, 76, 64
2, 159240, Note_on_c, 0, 73, 92
2, 159360, Note_off_c, 0, 73, 64
2, 159360, Note_on_c, 0, 74, 92
2, 159760, Note_off_c, 0, 74, 64
2, 160320, Note_on_c, 0, 64, 92
2, 160400, Note_off_c, 0, 64, 64
2, 160440, Note_on_c, 0, 66, 92
2, 160520, Note_off_c, 0, 66, 64
2, 160560, Note_on_c, 0, 68, 92
2, 160640, Note_off_c, 0, 68, 64
2, 160680, Note_on_c, 0, 69, 92
2, 160760, Note_off_c, 0, 69, 64
2, 160800, Note_on_c, 0, 71, 92
2, 160880, Note_off_c, 0, 71, 64
2, 160920, Note_on_c, 0, 72, 92
2, 161000, Note_off_c, 0, 72, 64
2, 161040, Note_on_c, 0, 74, 92
2, 161120, Note_off_c, 0, 74, 64
2, 161160, Note_on_c, 0, 71, 92
2, 161240, Note_off_c, 0, 71, 64
2, 161280, Note_on_c, 0, 72, 92
2, 161680, Note_off_c, 0, 72, 64
2, 162240, Note_on_c, 0, 62, 92
2, 162320, Note_off_c, 0, 62, 64
2, 162360, Note_on_c, 0, 64, 92
2, 162440, Note_off_c, 0, 64, 64
2, 162480, Note_on_c, 0, 66, 92
2, 162560, Note_off_c, 0, 66, 64
2, 162600, Note_on_c, 0, 67, 92
2, 162680, Note_off_c, 0, 67, 64
2, 162720, Note_on_c, 0, 69, 92
2, 162800, Note_off_c, 0, 69, 64
2, 162840, Note_on_c, 0, 71, 92
2, 162920, Note_off_c, 0, 71, 64
2, 162960, Note_on_c, 0, 72, 92
2, 163040, Note_off_c, 0, 72, 64
2, 163080, Note_on_c, 0, 69, 92
2, 163160, Note_off_c, 0, 69, 64
2, 163200, Note_on_c, 0, 71, 92
2, 163600, Note_off_c, 0, 71, 64
2, 163680, Note_on_c, 0, 83, 92
2, 164320, Note_off_c, 0, 83, 64
2, 164400, Note_on_c, 0, 81, 92
2, 164520, Note_off_c, 0, 81, 64
2, 164520, Note_on_c, 0, 79, 92
2, 164635, Note_off_c, 0, 79, 64
2, 164640, Note_on_c, 0, 78, 92
2, 164760, Note_off_c, 0, 78, 64
2, 164760, Note_on_c, 0, 76, 92
2, 164875, Note_off_c, 0, 76, 64
2, 164880, Note_on_c, 0, 76, 92
2, 165000, Note_off_c, 0, 76, 64
2, 165000, Note_on_c, 0, 74, 92
2, 165115, Note_off_c, 0, 74, 64
2, 165120, Note_on_c, 0, 73, 92
2, 165520, Note_off_c, 0, 73, 64
2, 165660, Note_on_c, 0, 81, 92
2, 165895, Note_off_c, 0, 81, 64
2, 166020, Note_on_c, 0, 81, 92
2, 166135, Note_off_c, 0, 81, 64
2, 166140, Note_on_c, 0, 81, 92
2, 166540, Note_off_c, 0, 81, 64
2, 167340, Note_on_c, 0, 81, 45
2, 169260, Note_off_c, 0, 81, 64
2, 169260, Note_on_c, 0, 82, 45
2, 171180, Note_off_c, 0, 82, 64
2, 171180, Note_on_c, 0, 73, 45
2, 173100, Note_off_c, 0, 73, 64
2, 173100, Note_on_c, 0, 74, 45
2, 173500, Note_off_c, 0, 74, 64
2, 175020, Note_on_c, 0, 74, 45
2, 176340, Note_off_c, 0, 74, 64
2, 176460, Note_on_c, 0, 81, 45
2, 176700, Note_off_c, 0, 81, 64
2, 176700, Note_on_c, 0, 77, 45
2, 176940, Note_off_c, 0, 77, 64
2, 176940, Note_on_c, 0, 76, 45
2, 177340, Note_off_c, 0, 76, 64
2, 177420, Note_on_c, 0, 76, 45
2, 177820, Note_off_c, 0, 76, 64
2, 178620, Note_on_c, 0, 82, 45
2, 178855, Note_off_c, 0, 82, 64
2, 178860, Note_on_c, 0, 82, 45
2, 180300, Note_off_c, 0, 82, 64
2, 180300, Note_on_c, 0, 74, 45
2, 180780, Note_off_c, 0, 74, 64
2, 180780, Note_on_c, 0, 73, 45
2, 181180, Note_off_c, 0, 73, 64
2, 181500, Note_on_c, 0, 81, 45
2, 181580, Note_off_c, 0, 81, 64
2, 181740, Note_on_c, 0, 79, 45
2, 181860, Note_off_c, 0, 79, 64
2, 181860, Note_on_c, 0, 77, 45
2, 181920, Note_off_c, 0, 77, 64
2, 181920, Note_on_c, 0, 79, 45
2, 181980, Note_off_c, 0, 79, 64
2, 181980, Note_on_c, 0, 77, 45
2, 182040, Note_off_c, 0, 77, 64
2, 182040, Note_on_c, 0, 79, 45
2, 182100, Note_off_c, 0, 79, 64
2, 182100, Note_on_c, 0, 77, 45
2, 182160, Note_off_c, 0, 77, 64
2, 182160, Note_on_c, 0, 79, 45
2, 182220, Note_off_c, 0, 79, 64
2, 182220, Note_on_c, 0, 77, 45
2, 182280, Note_off_c, 0, 77, 64
2, 182280, Note_on_c, 0, 79, 45
2, 182340, Note_off_c, 0, 79, 64
2, 182340, Note_on_c, 0, 77, 45
2, 182400, Note_off_c, 0, 77, 64
2, 182400, Note_on_c, 0, 79, 45
2, 182460, Note_off_c, 0, 79, 64
2, 182460, Note_on_c, 0, 77, 45
2, 182520, Note_off_c, 0, 77, 64
2, 182520, Note_on_c, 0, 79, 45
2, 182580, Note_off_c, 0, 79, 64
2, 182580, Note_on_c, 0, 76, 45
2, 182640, Note_off_c, 0, 76, 64
2, 182640, Note_on_c, 0, 77, 45
2, 182700, Note_off_c, 0, 77, 64
2, 182700, Note_on_c, 0, 76, 45
2, 183100, Note_off_c, 0, 76, 64
2, 183420, Note_on_c, 0, 81, 45
2, 183500, Note_off_c, 0, 81, 64
2, 183660, Note_on_c, 0, 79, 45
2, 183780, Note_off_c, 0, 79, 64
2, 183780, Note_on_c, 0, 77, 45
2, 183840, Note_off_c, 0, 77, 64
2, 183840, Note_on_c, 0, 79, 45
2, 183900, Note_off_c, 0, 79, 64
2, 183900, Note_on_c, 0, 77, 45
2, 183960, Note_off_c, 0, 77, 64
2, 183960, Note_on_c, 0, 79, 45
2, 184020, Note_off_c, 0, 79, 64
2, 184020, Note_on_c, 0, 77, 45
2, 184080, Note_off_c, 0, 77, 64
2, 184080, Note_on_c, 0, 79, 45
2, 184140, Note_off_c, 0, 79, 64
2, 184140, Note_on_c, 0, 77, 45
2, 184200, Note_off_c, 0, 77, 64
2, 184200, Note_on_c, 0, 79, 45
2, 184260, Note_off_c, 0, 79, 64
2, 184260, Note_on_c, 0, 77, 45
2, 184320, Note_off_c, 0, 77, 64
2, 184320, Note_on_c, 0, 79, 45
2, 184380, Note_off_c, 0, 79, 64
2, 184380, Note_on_c, 0, 77, 45
2, 184440, Note_off_c, 0, 77, 64
2, 184440, Note_on_c, 0, 79, 45
2, 184500, Note_off_c, 0, 79, 64
2, 184500, Note_on_c, 0, 76, 45
2, 184560, Note_off_c, 0, 76, 64
2, 184560, Note_on_c, 0, 77, 45
2, 184620, Note_off_c, 0, 77, 64
2, 184620, Note_on_c, 0, 76, 45
2, 185020, Note_off_c, 0, 76, 64
2, 185340, Note_on_c, 0, 81, 45
2, 185420, Note_off_c, 0, 81, 64
2, 185580, Note_on_c, 0, 81, 45
2, 185660, Note_off_c, 0, 81, 64
2, 185820, Note_on_c, 0, 81, 45
2, 185900, Note_off_c, 0, 81, 64
2, 186060, Note_on_c, 0, 81, 45
2, 186140, Note_off_c, 0, 81, 64
2, 186300, Note_on_c, 0, 81, 45
2, 186380, Note_off_c, 0, 81, 64
2, 186540, Note_on_c, 0, 80, 45
2, 187020, Note_off_c, 0, 80, 64
2, 187020, Note_on_c, 0, 77, 45
2, 187500, Note_off_c, 0, 77, 64
2, 187500, Note_on_c, 0, 76, 45
2, 187980, Note_off_c, 0, 76, 64
2, 187980, Note_on_c, 0, 74, 45
2, 188460, Note_off_c, 0, 74, 64
2, 188460, Note_on_c, 0, 73, 45
2, 188860, Note_off_c, 0, 73, 64
2, 192300, Note_on_c, 0, 81, 92
2, 194100, Note_off_c, 0, 81, 64
2, 194220, Note_on_c, 0, 79, 92
2, 194460, Note_off_c, 0, 79, 64
2, 194460, Note_on_c, 0, 78, 92
2, 195100, Note_off_c, 0, 78, 64
2, 195180, Note_on_c, 0, 76, 92
2, 195420, Note_off_c, 0, 76, 64
2, 195420, Note_on_c, 0, 74, 92
2, 196060, Note_off_c, 0, 74, 64
2, 196140, Note_on_c, 0, 73, 92
2, 196260, Note_off_c, 0, 73, 64
2, 196260, Note_on_c, 0, 74, 92
2, 196380, Note_off_c, 0, 74, 64
2, 196380, Note_on_c, 0, 76, 92
2, 196500, Note_off_c, 0, 76, 64
2, 196500, Note_on_c, 0, 74, 92
2, 196620, Note_off_c, 0, 74, 64
2, 196620, Note_on_c, 0, 73, 92
2, 196740, Note_off_c, 0, 73, 64
2, 196740, Note_on_c, 0, 74, 92
2, 196860, Note_off_c, 0, 74, 64
2, 196860, Note_on_c, 0, 76, 92
2, 196980, Note_off_c, 0, 76, 64
2, 196980, Note_on_c, 0, 74, 92
2, 197100, Note_off_c, 0, 74, 64
2, 197100, Note_on_c, 0, 73, 92
2, 197220, Note_off_c, 0, 73, 64
2, 197220, Note_on_c, 0, 74, 92
2, 197340, Note_off_c, 0, 74, 64
2, 197340, Note_on_c, 0, 76, 92
2, 197460, Note_off_c, 0, 76, 64
2, 197460, Note_on_c, 0, 74, 92
2, 197580, Note_off_c, 0, 74, 64
2, 197580, Note_on_c, 0, 73, 92
2, 197700, Note_off_c, 0, 73, 64
2, 197700, Note_on_c, 0, 74, 92
2, 197820, Note_off_c, 0, 74, 64
2, 197820, Note_on_c, 0, 76, 92
2, 197940, Note_off_c, 0, 76, 64
2, 197940, Note_on_c, 0, 73, 92
2, 198060, Note_off_c, 0, 73, 64
2, 198060, Note_on_c, 0, 74, 92
2, 198655, Note_off_c, 0, 74, 64
2, 199260, Note_on_c, 0, 81, 92
2, 199500, Note_off_c, 0, 81, 64
2, 199500, Note_on_c, 0, 78, 92
2, 199740, Note_off_c, 0, 78, 64
2, 199740, Note_on_c, 0, 74, 92
2, 199975, Note_off_c, 0, 74, 64
2, 199980, Note_on_c, 0, 76, 92
2, 200100, Note_off_c, 0, 76, 64
2, 200100, Note_on_c, 0, 78, 92
2, 200220, Note_off_c, 0, 78, 64
2, 200220, Note_on_c, 0, 79, 92
2, 200340, Note_off_c, 0, 79, 64
2, 200340, Note_on_c, 0, 78, 92
2, 200460, Note_off_c, 0, 78, 64
2, 200460, Note_on_c, 0, 76, 92
2, 200580, Note_off_c, 0, 76, 64
2, 200580, Note_on_c, 0, 78, 92
2, 200700, Note_off_c, 0, 78, 64
2, 200700, Note_on_c, 0, 79, 92
2, 200820, Note_off_c, 0, 79, 64
2, 200820, Note_on_c, 0, 78, 92
2, 200940, Note_off_c, 0, 78, 64
2, 200940, Note_on_c, 0, 76, 92
2, 201060, Note_off_c, 0, 76, 64
2, 201060, Note_on_c, 0, 78, 92
2, 201180, Note_off_c, 0, 78, 64
2, 201180, Note_on_c, 0, 79, 92
2, 201300, Note_off_c, 0, 79, 64
2, 201300, Note_on_c, 0, 78, 92
2, 201420, Note_off_c, 0, 78, 64
2, 201420, Note_on_c, 0, 76, 92
2, 201540, Note_off_c, 0, 76, 64
2, 201540, Note_on_c, 0, 78, 92
2, 201660, Note_off_c, 0, 78, 64
2, 201660, Note_on_c, 0, 79, 92
2, 201780, Note_off_c, 0, 79, 64
2, 201780, Note_on_c, 0, 76, 92
2, 201900, Note_off_c, 0, 76, 64
2, 201900, Note_on_c, 0, 78, 92
2, 202135, Note_off_c, 0, 78, 64
2, 202380, Note_on_c, 0, 74, 92
2, 203095, Note_off_c, 0, 74, 64
2, 203100, Note_on_c, 0, 76, 92
2, 203180, Note_off_c, 0, 76, 64
2, 203220, Note_on_c, 0, 78, 92
2, 203300, Note_off_c, 0, 78, 64
2, 203340, Note_on_c, 0, 79, 92
2, 203420, Note_off_c, 0, 79, 64
2, 203460, Note_on_c, 0, 81, 92
2, 203540, Note_off_c, 0, 81, 64
2, 203580, Note_on_c, 0, 83, 92
2, 203660, Note_off_c, 0, 83, 64
2, 203700, Note_on_c, 0, 85, 92
2, 203780, Note_off_c, 0, 85, 64
2, 203820, Note_on_c, 0, 86, 92
2, 204660, Note_off_c, 0, 86, 64
2, 204780, Note_on_c, 0, 81, 92
2, 205180, Note_off_c, 0, 81, 64
2, 205260, Note_on_c, 0, 78, 92
2, 205660, Note_off_c, 0, 78, 64
2, 205740, Note_on_c, 0, 78, 92
2, 205860, Note_off_c, 0, 78, 64
2, 205860, Note_on_c, 0, 79, 92
2, 205980, Note_off_c, 0, 79, 64
2, 205980, Note_on_c, 0, 75, 92
2, 206100, Note_off_c, 0, 75, 64
2, 206100, Note_on_c, 0, 76, 92
2, 206215, Note_off_c, 0, 76, 64
2, 206220, Note_on_c, 0, 76, 92
2, 206620, Note_off_c, 0, 76, 64
2, 206940, Note_on_c, 0, 76, 92
2, 207180, Note_off_c, 0, 76, 64
2, 207180, Note_on_c, 0, 79, 92
2, 207420, Note_off_c, 0, 79, 64
2, 207420, Note_on_c, 0, 83, 92
2, 207655, Note_off_c, 0, 83, 64
2, 207660, Note_on_c, 0, 80, 92
2, 207780, Note_off_c, 0, 80, 64
2, 207780, Note_on_c, 0, 81, 92
2, 208540, Note_off_c, 0, 81, 64
2, 208620, Note_on_c, 0, 80, 92
2, 208740, Note_off_c, 0, 80, 64
2, 208740, Note_on_c, 0, 81, 92
2, 209095, Note_off_c, 0, 81, 64
2, 209100, Note_on_c, 0, 80, 92
2, 209220, Note_off_c, 0, 80, 64
2, 209220, Note_on_c, 0, 81, 92
2, 209575, Note_off_c, 0, 81, 64
2, 209580, Note_on_c, 0, 81, 92
2, 209700, Note_off_c, 0, 81, 64
2, 209700, Note_on_c, 0, 79, 92
2, 209815, Note_off_c, 0, 79, 64
2, 210000, Note_on_c, 0, 78, 92
2, 210120, Note_off_c, 0, 78, 64
2, 210120, Note_on_c, 0, 79, 92
2, 210655, Note_off_c, 0, 79, 64
2, 210780, Note_on_c, 0, 78, 92
2, 210900, Note_off_c, 0, 78, 64
2, 210900, Note_on_c, 0, 79, 92
2, 211015, Note_off_c, 0, 79, 64
2, 211020, Note_on_c, 0, 81, 92
2, 211100, Note_off_c, 0, 81, 64
2, 211140, Note_on_c, 0, 79, 92
2, 211220, Note_off_c, 0, 79, 64
2, 211260, Note_on_c, 0, 78, 92
2, 211340, Note_off_c, 0, 78, 64
2, 211380, Note_on_c, 0, 76, 92
2, 211460, Note_off_c, 0, 76, 64
2, 211500, Note_on_c, 0, 74, 92
2, 211620, Note_off_c, 0, 74, 64
2, 211620, Note_on_c, 0, 69, 92
2, 211740, Note_off_c, 0, 69, 64
2, 211740, Note_on_c, 0, 66, 92
2, 211820, Note_off_c, 0, 66, 64
2, 211860, Note_on_c, 0, 69, 92
2, 211940, Note_off_c, 0, 69, 64
2, 211980, Note_on_c, 0, 74, 92
2, 212060, Note_off_c, 0, 74, 64
2, 212100, Note_on_c, 0, 69, 92
2, 212180, Note_off_c, 0, 69, 64
2, 212220, Note_on_c, 0, 76, 92
2, 212300, Note_off_c, 0, 76, 64
2, 212340, Note_on_c, 0, 69, 92
2, 212420, Note_off_c, 0, 69, 64
2, 212460, Note_on_c, 0, 78, 92
2, 212540, Note_off_c, 0, 78, 64
2, 212580, Note_on_c, 0, 74, 92
2, 212660, Note_off_c, 0, 74, 64
2, 212700, Note_on_c, 0, 81, 92
2, 212780, Note_off_c, 0, 81, 64
2, 212820, Note_on_c, 0, 78, 92
2, 212900, Note_off_c, 0, 78, 64
2, 212940, Note_on_c, 0, 79, 92
2, 213020, Note_off_c, 0, 79, 64
2, 213060, Note_on_c, 0, 76, 92
2, 213140, Note_off_c, 0, 76, 64
2, 213180, Note_on_c, 0, 74, 92
2, 213260, Note_off_c, 0, 74, 64
2, 213300, Note_on_c, 0, 73, 92
2, 213380, Note_off_c, 0, 73, 64
2, 213420, Note_on_c, 0, 74, 92
2, 213540, Note_off_c, 0, 74, 64
2, 213540, Note_on_c, 0, 69, 92
2, 213660, Note_off_c, 0, 69, 64
2, 213660, Note_on_c, 0, 66, 92
2, 213740, Note_off_c, 0, 66, 64
2, 213780, Note_on_c, 0, 69, 92
2, 213860, Note_off_c, 0, 69, 64
2, 213900, Note_on_c, 0, 74, 92
2, 213980, Note_off_c, 0, 74, 64
2, 214020, Note_on_c, 0, 69, 92
2, 214100, Note_off_c, 0, 69, 64
2, 214140, Note_on_c, 0, 76, 92
2, 214220, Note_off_c, 0, 76, 64
2, 214260, Note_on_c, 0, 69, 92
2, 214340, Note_off_c, 0, 69, 64
2, 214380, Note_on_c, 0, 78, 92
2, 214460, Note_off_c, 0, 78, 64
2, 214500, Note_on_c, 0, 69, 92
2, 214580, Note_off_c, 0, 69, 64
2, 214620, Note_on_c, 0, 78, 92
2, 214700, Note_off_c, 0, 78, 64
2, 214740, Note_on_c, 0, 81, 92
2, 214820, Note_off_c, 0, 81, 64
2, 214860, Note_on_c, 0, 79, 92
2, 214940, Note_off_c, 0, 79, 64
2, 214980, Note_on_c, 0, 76, 92
2, 215060, Note_off_c, 0, 76, 64
2, 215100, Note_on_c, 0, 74, 92
2, 215180, Note_off_c, 0, 74, 64
2, 215220, Note_on_c, 0, 73, 92
2, 215300, Note_off_c, 0, 73, 64
2, 215340, Note_on_c, 0, 74, 92
2, 215740, Note_off_c, 0, 74, 64
2, 219180, Note_on_c, 0, 62, 60
2, 219180, Note_on_c, 0, 78, 60
2, 219180, Note_on_c, 0, 81, 60
2, 220500, Note_off_c, 0, 81, 64
2, 220500, Note_off_c, 0, 78, 64
2, 220500, Note_off_c, 0, 62, 64
2, 220620, Note_on_c, 0, 81, 92
2, 220975, Note_off_c, 0, 81, 64
2, 220980, Note_on_c, 0, 78, 92
2, 221095, Note_off_c, 0, 78, 64
2, 221100, Note_on_c, 0, 72, 92
2, 221500, Note_off_c, 0, 72, 64
2, 221580, Note_on_c, 0, 69, 92
2, 221935, Note_off_c, 0, 69, 64
2, 221940, Note_on_c, 0, 66, 92
2, 222055, Note_off_c, 0, 66, 64
2, 222060, Note_on_c, 0, 62, 92
2, 222295, Note_off_c, 0, 62, 64
2, 222300, Note_on_c, 0, 81, 92
2, 222420, Note_off_c, 0, 81, 64
2, 222420, Note_on_c, 0, 83, 92
2, 222540, Note_off_c, 0, 83, 64
2, 222540, Note_on_c, 0, 84, 92
2, 222620, Note_off_c, 0, 84, 64
2, 222780, Note_on_c, 0, 84, 92
2, 222860, Note_off_c, 0, 84, 64
2, 223020, Note_on_c, 0, 83, 92
2, 223100, Note_off_c, 0, 83, 64
2, 223140, Note_on_c, 0, 81, 92
2, 223220, Note_off_c, 0, 81, 64
2, 223260, Note_on_c, 0, 79, 92
2, 223340, Note_off_c, 0, 79, 64
2, 223380, Note_on_c, 0, 78, 92
2, 223460, Note_off_c, 0, 78, 64
2, 223500, Note_on_c, 0, 79, 92
2, 223580, Note_off_c, 0, 79, 64
2, 223620, Note_on_c, 0, 78, 92
2, 223700, Note_off_c, 0, 78, 64
2, 223740, Note_on_c, 0, 76, 92
2, 223820, Note_off_c, 0, 76, 64
2, 223860, Note_on_c, 0, 74, 92
2, 223940, Note_off_c, 0, 74, 64
2, 223980, Note_on_c, 0, 72, 92
2, 224060, Note_off_c, 0, 72, 64
2, 224100, Note_on_c, 0, 78, 92
2, 224180, Note_off_c, 0, 78, 64
2, 224220, Note_on_c, 0, 81, 92
2, 224300, Note_off_c, 0, 81, 64
2, 224340, Note_on_c, 0, 79, 92
2, 224420, Note_off_c, 0, 79, 64
2, 224460, Note_on_c, 0, 78, 92
2, 224540, Note_off_c, 0, 78, 64
2, 224580, Note_on_c, 0, 76, 92
2, 224660, Note_off_c, 0, 76, 64
2, 224700, Note_on_c, 0, 74, 92
2, 224780, Note_off_c, 0, 74, 64
2, 224820, Note_on_c, 0, 72, 92
2, 224900, Note_off_c, 0, 72, 64
2, 224940, Note_on_c, 0, 71, 92
2, 225020, Note_off_c, 0, 71, 64
2, 225060, Note_on_c, 0, 74, 92
2, 225140, Note_off_c, 0, 74, 64
2, 225180, Note_on_c, 0, 79, 92
2, 225260, Note_off_c, 0, 79, 64
2, 225300, Note_on_c, 0, 78, 92
2, 225380, Note_off_c, 0, 78, 64
2, 225420, Note_on_c, 0, 79, 92
2, 225500, Note_off_c, 0, 79, 64
2, 225540, Note_on_c, 0, 78, 92
2, 225620, Note_off_c, 0, 78, 64
2, 225660, Note_on_c, 0, 76, 92
2, 225740, Note_off_c, 0, 76, 64
2, 225780, Note_on_c, 0, 75, 92
2, 225860, Note_off_c, 0, 75, 64
2, 225900, Note_on_c, 0, 76, 92
2, 225980, Note_off_c, 0, 76, 64
2, 226020, Note_on_c, 0, 79, 92
2, 226100, Note_off_c, 0, 79, 64
2, 226140, Note_on_c, 0, 83, 92
2, 226220, Note_off_c, 0, 83, 64
2, 226260, Note_on_c, 0, 81, 92
2, 226340, Note_off_c, 0, 81, 64
2, 226380, Note_on_c, 0, 79, 92
2, 226460, Note_off_c, 0, 79, 64
2, 226500, Note_on_c, 0, 78, 92
2, 226580, Note_off_c, 0, 78, 64
2, 226620, Note_on_c, 0, 76, 92
2, 226700, Note_off_c, 0, 76, 64
2, 226740, Note_on_c, 0, 74, 92
2, 226820, Note_off_c, 0, 74, 64
2, 226860, Note_on_c, 0, 73, 92
2, 227215, Note_off_c, 0, 73, 64
2, 227340, Note_on_c, 0, 76, 60
2, 229180, Note_off_c, 0, 76, 64
2, 229260, Note_on_c, 0, 81, 60
2, 230815, Note_off_c, 0, 81, 64
2, 230820, Note_on_c, 0, 74, 92
2, 230900, Note_off_c, 0, 74, 64
2, 230940, Note_on_c, 0, 78, 92
2, 231020, Note_off_c, 0, 78, 64
2, 231060, Note_on_c, 0, 81, 92
2, 231140, Note_off_c, 0, 81, 64
2, 231180, Note_on_c, 0, 86, 92
2, 231260, Note_off_c, 0, 86, 64
2, 231300, Note_on_c, 0, 85, 92
2, 231380, Note_off_c, 0, 85, 64
2, 231420, Note_on_c, 0, 83, 92
2, 231500, Note_off_c, 0, 83, 64
2, 231540, Note_on_c, 0, 81, 92
2, 231620, Note_off_c, 0, 81, 64
2, 231660, Note_on_c, 0, 79, 92
2, 231740, Note_off_c, 0, 79, 64
2, 231780, Note_on_c, 0, 78, 92
2, 231860, Note_off_c, 0, 78, 64
2, 231900, Note_on_c, 0, 76, 92
2, 231980, Note_off_c, 0, 76, 64
2, 232020, Note_on_c, 0, 74, 92
2, 232100, Note_off_c, 0, 74, 64
2, 232140, Note_on_c, 0, 73, 92
2, 232220, Note_off_c, 0, 73, 64
2, 232260, Note_on_c, 0, 76, 92
2, 232340, Note_off_c, 0, 76, 64
2, 232380, Note_on_c, 0, 81, 92
2, 232460, Note_off_c, 0, 81, 64
2, 232500, Note_on_c, 0, 79, 92
2, 232580, Note_off_c, 0, 79, 64
2, 232620, Note_on_c, 0, 78, 92
2, 232700, Note_off_c, 0, 78, 64
2, 232740, Note_on_c, 0, 76, 92
2, 232820, Note_off_c, 0, 76, 64
2, 232860, Note_on_c, 0, 74, 92
2, 232940, Note_off_c, 0, 74, 64
2, 232980, Note_on_c, 0, 73, 92
2, 233060, Note_off_c, 0, 73, 64
2, 233100, Note_on_c, 0, 74, 92
2, 233180, Note_off_c, 0, 74, 64
2, 233220, Note_on_c, 0, 69, 92
2, 233300, Note_off_c, 0, 69, 64
2, 233340, Note_on_c, 0, 71, 92
2, 233420, Note_off_c, 0, 71, 64
2, 233460, Note_on_c, 0, 66, 92
2, 233540, Note_off_c, 0, 66, 64
2, 233580, Note_on_c, 0, 67, 92
2, 233660, Note_off_c, 0, 67, 64
2, 233700, Note_on_c, 0, 66, 92
2, 233780, Note_off_c, 0, 66, 64
2, 233820, Note_on_c, 0, 64, 92
2, 233900, Note_off_c, 0, 64, 64
2, 233940, Note_on_c, 0, 62, 92
2, 234020, Note_off_c, 0, 62, 64
2, 234060, Note_on_c, 0, 61, 92
2, 234140, Note_off_c, 0, 61, 64
2, 234180, Note_on_c, 0, 64, 92
2, 234260, Note_off_c, 0, 64, 64
2, 234300, Note_on_c, 0, 69, 92
2, 234380, Note_off_c, 0, 69, 64
2, 234420, Note_on_c, 0, 67, 92
2, 234500, Note_off_c, 0, 67, 64
2, 234540, Note_on_c, 0, 66, 92
2, 234940, Note_off_c, 0, 66, 64
2, 235740, Note_on_c, 0, 74, 92
2, 235820, Note_off_c, 0, 74, 64
2, 235980, Note_on_c, 0, 62, 92
2, 236060, Note_off_c, 0, 62, 64
2, 236220, Note_on_c, 0, 64, 92
2, 236250, Note_off_c, 0, 64, 64
2, 236250, Note_on_c, 0, 66, 92
2, 236280, Note_off_c, 0, 66, 64
2, 236280, Note_on_c, 0, 64, 92
2, 236310, Note_off_c, 0, 64, 64
2, 236310, Note_on_c, 0, 66, 92
2, 236340, Note_off_c, 0, 66, 64
2, 236340, Note_on_c, 0, 64, 92
2, 236370, Note_off_c, 0, 64, 64
2, 236370, Note_on_c, 0, 66, 92
2, 236400, Note_off_c, 0, 66, 64
2, 236400, Note_on_c, 0, 64, 92
2, 236430, Note_off_c, 0, 64, 64
2, 236430, Note_on_c, 0, 66, 92
2, 236460, Note_off_c, 0, 66, 64
2, 236460, Note_on_c, 0, 66, 92
2, 236540, Note_off_c, 0, 66, 64
2, 236700, Note_on_c, 0, 74, 92
2, 237180, Note_off_c, 0, 74, 64
2, 237180, Note_on_c, 0, 73, 92
2, 237415, Note_off_c, 0, 73, 64
2, 237420, Note_on_c, 0, 74, 92
2, 237500, Note_off_c, 0, 74, 64
2, 237660, Note_on_c, 0, 78, 92
2, 237780, Note_off_c, 0, 78, 64
2, 237780, Note_on_c, 0, 74, 92
2, 237900, Note_off_c, 0, 74, 64
2, 237900, Note_on_c, 0, 69, 92
2, 238140, Note_off_c, 0, 69, 64
2, 238140, Note_on_c, 0, 67, 92
2, 238380, Note_off_c, 0, 67, 64
2, 238380, Note_on_c, 0, 66, 92
2, 238780, Note_off_c, 0, 66, 64
2, 238860, Note_on_c, 0, 86, 92
2, 239500, Note_off_c, 0, 86, 64
2, 239580, Note_on_c, 0, 84, 92
2, 239820, Note_off_c, 0, 84, 64
2, 239820, Note_on_c, 0, 83, 92
2, 240060, Note_off_c, 0, 83, 64
2, 240060, Note_on_c, 0, 82, 92
2, 240295, Note_off_c, 0, 82, 64
2, 240300, Note_on_c, 0, 82, 92
2, 240420, Note_off_c, 0, 82, 64
2, 240420, Note_on_c, 0, 83, 92
2, 241180, Note_off_c, 0, 83, 64
2, 241260, Note_on_c, 0, 82, 92
2, 241380, Note_off_c, 0, 82, 64
2, 241380, Note_on_c, 0, 83, 92
2, 241735, Note_off_c, 0, 83, 64
2, 241740, Note_on_c, 0, 82, 92
2, 241860, Note_off_c, 0, 82, 64
2, 241860, Note_on_c, 0, 83, 92
2, 242215, Note_off_c, 0, 83, 64
2, 242220, Note_on_c, 0, 63, 60
2, 244140, Note_off_c, 0, 63, 64
2, 244140, Note_on_c, 0, 64, 60
2, 244980, Note_off_c, 0, 64, 64
2, 245100, Note_on_c, 0, 83, 60
2, 245455, Note_off_c, 0, 83, 64
2, 245580, Note_on_c, 0, 85, 60
2, 245935, Note_off_c, 0, 85, 64
2, 246060, Note_on_c, 0, 86, 30
2, 247135, Note_off_c, 0, 86, 64
2, 247140, Note_on_c, 0, 85, 31
2, 247220, Note_off_c, 0, 85, 64
2, 247260, Note_on_c, 0, 83, 33
2, 247340, Note_off_c, 0, 83, 64
2, 247380, Note_on_c, 0, 81, 35
2, 247460, Note_off_c, 0, 81, 64
2, 247500, Note_on_c, 0, 79, 37
2, 247580, Note_off_c, 0, 79, 64
2, 247620, Note_on_c, 0, 78, 39
2, 247700, Note_off_c, 0, 78, 64
2, 247740, Note_on_c, 0, 76, 41
2, 247820, Note_off_c, 0, 76, 64
2, 247860, Note_on_c, 0, 74, 43
2, 247940, Note_off_c, 0, 74, 64
2, 247980, Note_on_c, 0, 86, 45
2, 249055, Note_off_c, 0, 86, 64
2, 249060, Note_on_c, 0, 85, 46
2, 249140, Note_off_c, 0, 85, 64
2, 249180, Note_on_c, 0, 83, 48
2, 249260, Note_off_c, 0, 83, 64
2, 249300, Note_on_c, 0, 81, 50
2, 249380, Note_off_c, 0, 81, 64
2, 249420, Note_on_c, 0, 79, 52
2, 249500, Note_off_c, 0, 79, 64
2, 249540, Note_on_c, 0, 78, 54
2, 249620, Note_off_c, 0, 78, 64
2, 249660, Note_on_c, 0, 76, 56
2, 249740, Note_off_c, 0, 76, 64
2, 249780, Note_on_c, 0, 74, 58
2, 249860, Note_off_c, 0, 74, 64
2, 249900, Note_on_c, 0, 86, 60
2, 250975, Note_off_c, 0, 86, 64
2, 250980, Note_on_c, 0, 85, 61
2, 251060, Note_off_c, 0, 85, 64
2, 251100, Note_on_c, 0, 83, 63
2, 251180, Note_off_c, 0, 83, 64
2, 251220, Note_on_c, 0, 81, 65
2, 251300, Note_off_c, 0, 81, 64
2, 251340, Note_on_c, 0, 79, 67
2, 251420, Note_off_c, 0, 79, 64
2, 251460, Note_on_c, 0, 78, 69
2, 251540, Note_off_c, 0, 78, 64
2, 251580, Note_on_c, 0, 76, 71
2, 251660, Note_off_c, 0, 76, 64
2, 251700, Note_on_c, 0, 74, 73
2, 251780, Note_off_c, 0, 74, 64
2, 251820, Note_on_c, 0, 86, 75
2, 251935, Note_off_c, 0, 86, 64
2, 252060, Note_on_c, 0, 85, 75
2, 252140, Note_off_c, 0, 85, 64
2, 252180, Note_on_c, 0, 83, 76
2, 252260, Note_off_c, 0, 83, 64
2, 252300, Note_on_c, 0, 81, 77
2, 252380, Note_off_c, 0, 81, 64
2, 252420, Note_on_c, 0, 79, 78
2, 252500, Note_off_c, 0, 79, 64
2, 252540, Note_on_c, 0, 78, 79
2, 252620, Note_off_c, 0, 78, 64
2, 252660, Note_on_c, 0, 76, 80
2, 252740, Note_off_c, 0, 76, 64
2, 252780, Note_on_c, 0, 74, 81
2, 252860, Note_off_c, 0, 74, 64
2, 252900, Note_on_c, 0, 73, 82
2, 252980, Note_off_c, 0, 73, 64
2, 253020, Note_on_c, 0, 71, 83
2, 253100, Note_off_c, 0, 71, 64
2, 253140, Note_on_c, 0, 69, 84
2, 253220, Note_off_c, 0, 69, 64
2, 253260, Note_on_c, 0, 67, 85
2, 253340, Note_off_c, 0, 67, 64
2, 253380, Note_on_c, 0, 66, 86
2, 253460, Note_off_c, 0, 66, 64
2, 253500, Note_on_c, 0, 64, 88
2, 253580, Note_off_c, 0, 64, 64
2, 253620, Note_on_c, 0, 62, 90
2, 253700, Note_off_c, 0, 62, 64
2, 253740, Note_on_c, 0, 60, 92
2, 254700, Note_off_c, 0, 60, 64
2, 254700, Note_on_c, 0, 59, 92
2, 255180, Note_off_c, 0, 59, 64
2, 255180, Note_on_c, 0, 58, 92
2, 255660, Note_off_c, 0, 58, 64
2, 255660, Note_on_c, 0, 59, 92
2, 256015, Note_off_c, 0, 59, 64
2, 256140, Note_on_c, 0, 86, 92
2, 256980, Note_off_c, 0, 86, 64
2, 257100, Note_on_c, 0, 85, 92
2, 257220, Note_off_c, 0, 85, 64
2, 257220, Note_on_c, 0, 83, 92
2, 257335, Note_off_c, 0, 83, 64
2, 257340, Note_on_c, 0, 81, 92
2, 257420, Note_off_c, 0, 81, 64
2, 257460, Note_on_c, 0, 79, 92
2, 257540, Note_off_c, 0, 79, 64
2, 257580, Note_on_c, 0, 78, 92
2, 257660, Note_off_c, 0, 78, 64
2, 257820, Note_on_c, 0, 81, 92
2, 257900, Note_off_c, 0, 81, 64
2, 258060, Note_on_c, 0, 79, 92
2, 258180, Note_off_c, 0, 79, 64
2, 258180, Note_on_c, 0, 78, 92
2, 258300, Note_off_c, 0, 78, 64
2, 258300, Note_on_c, 0, 76, 92
2, 258380, Note_off_c, 0, 76, 64
2, 258420, Note_on_c, 0, 74, 92
2, 258500, Note_off_c, 0, 74, 64
2, 258540, Note_on_c, 0, 76, 92
2, 258570, Note_off_c, 0, 76, 64
2, 258570, Note_on_c, 0, 78, 92
2, 258600, Note_off_c, 0, 78, 64
2, 258600, Note_on_c, 0, 76, 92
2, 258630, Note_off_c, 0, 76, 64
2, 258630, Note_on_c, 0, 78, 92
2, 258660, Note_off_c, 0, 78, 64
2, 258660, Note_on_c, 0, 76, 92
2, 258690, Note_off_c, 0, 76, 64
2, 258690, Note_on_c, 0, 78, 92
2, 258720, Note_off_c, 0, 78, 64
2, 258720, Note_on_c, 0, 76, 92
2, 258750, Note_off_c, 0, 76, 64
2, 258750, Note_on_c, 0, 78, 92
2, 258780, Note_off_c, 0, 78, 64
2, 258780, Note_on_c, 0, 76, 92
2, 258810, Note_off_c, 0, 76, 64
2, 258810, Note_on_c, 0, 78, 92
2, 258840, Note_off_c, 0, 78, 64
2, 258840, Note_on_c, 0, 76, 92
2, 258870, Note_off_c, 0, 76, 64
2, 258870, Note_on_c, 0, 78, 92
2, 258900, Note_off_c, 0, 78, 64
2, 258900, Note_on_c, 0, 76, 92
2, 258930, Note_off_c, 0, 76, 64
2, 258930, Note_on_c, 0, 78, 92
2, 258960, Note_off_c, 0, 78, 64
2, 258960, Note_on_c, 0, 76, 92
2, 258990, Note_off_c, 0, 76, 64
2, 258990, Note_on_c, 0, 78, 92
2, 259020, Note_off_c, 0, 78, 64
2, 259020, Note_on_c, 0, 76, 92
2, 259050, Note_off_c, 0, 76, 64
2, 259050, Note_on_c, 0, 78, 92
2, 259080, Note_off_c, 0, 78, 64
2, 259080, Note_on_c, 0, 76, 92
2, 259110, Note_off_c, 0, 76, 64
2, 259110, Note_on_c, 0, 78, 92
2, 259140, Note_off_c, 0, 78, 64
2, 259140, Note_on_c, 0, 76, 92
2, 259170, Note_off_c, 0, 76, 64
2, 259170, Note_on_c, 0, 78, 92
2, 259200, Note_off_c, 0, 78, 64
2, 259200, Note_on_c, 0, 76, 92
2, 259230, Note_off_c, 0, 76, 64
2, 259230, Note_on_c, 0, 78, 92
2, 259260, Note_off_c, 0, 78, 64
2, 259260, Note_on_c, 0, 76, 92
2, 259290, Note_off_c, 0, 76, 64
2, 259290, Note_on_c, 0, 78, 92
2, 259320, Note_off_c, 0, 78, 64
2, 259320, Note_on_c, 0, 76, 92
2, 259350, Note_off_c, 0, 76, 64
2, 259350, Note_on_c, 0, 78, 92
2, 259380, Note_off_c, 0, 78, 64
2, 259380, Note_on_c, 0, 76, 92
2, 259410, Note_off_c, 0, 76, 64
2, 259410, Note_on_c, 0, 78, 92
2, 259440, Note_off_c, 0, 78, 64
2, 259440, Note_on_c, 0, 76, 92
2, 259470, Note_off_c, 0, 76, 64
2, 259470, Note_on_c, 0, 78, 92
2, 259500, Note_off_c, 0, 78, 64
2, 259500, Note_on_c, 0, 74, 92
2, 259900, Note_off_c, 0, 74, 64
2, 260700, Note_on_c, 0, 78, 92
2, 260820, Note_off_c, 0, 78, 64
2, 260820, Note_on_c, 0, 81, 92
2, 260940, Note_off_c, 0, 81, 64
2, 260940, Note_on_c, 0, 79, 92
2, 261060, Note_off_c, 0, 79, 64
2, 261060, Note_on_c, 0, 76, 92
2, 261180, Note_off_c, 0, 76, 64
2, 261180, Note_on_c, 0, 74, 92
2, 261300, Note_off_c, 0, 74, 64
2, 261300, Note_on_c, 0, 73, 92
2, 261420, Note_off_c, 0, 73, 64
2, 261420, Note_on_c, 0, 74, 92
2, 261820, Note_off_c, 0, 74, 64
2, 262620, Note_on_c, 0, 78, 63
2, 262740, Note_off_c, 0, 78, 64
2, 262740, Note_on_c, 0, 81, 60
2, 262860, Note_off_c, 0, 81, 64
2, 262860, Note_on_c, 0, 79, 57
2, 262980, Note_off_c, 0, 79, 64
2, 262980, Note_on_c, 0, 76, 54
2, 263100, Note_off_c, 0, 76, 64
2, 263100, Note_on_c, 0, 74, 51
2, 263220, Note_off_c, 0, 74, 64
2, 263220, Note_on_c, 0, 73, 48
2, 263340, Note_off_c, 0, 73, 64
2, 263340, Note_on_c, 0, 74, 45
2, 263420, Note_off_c, 0, 74, 64
2, 263580, Note_on_c, 0, 78, 45
2, 263700, Note_off_c, 0, 78, 64
2, 263700, Note_on_c, 0, 79, 43
2, 263820, Note_off_c, 0, 79, 64
2, 263820, Note_on_c, 0, 78, 41
2, 263940, Note_off_c, 0, 78, 64
2, 263940, Note_on_c, 0, 79, 39
2, 264060, Note_off_c, 0, 79, 64
2, 264060, Note_on_c, 0, 78, 36
2, 264180, Note_off_c, 0, 78, 64
2, 264180, Note_on_c, 0, 79, 33
2, 264300, Note_off_c, 0, 79, 64
2, 264300, Note_on_c, 0, 78, 30
2, 264700, Note_off_c, 0, 78, 64
2, 264700, End_track
3, 0, Start_track
3, 0, Title_t, "Divertimento in D (k136)"
3, 0, MIDI_port, 0
3, 0, Channel_prefix, 1
3, 0, Control_c, 1, 7, 127
3, 0, Control_c, 1, 10, 40
3, 0, Control_c, 1, 91, 60
3, 0, Program_c, 1, 50
3, 0, Note_on_c, 1, 66, 75
3, 235, Note_off_c, 1, 66, 64
3, 240, Note_on_c, 1, 66, 75
3, 475, Note_off_c, 1, 66, 64
3, 480, Note_on_c, 1, 66, 75
3, 715, Note_off_c, 1, 66, 64
3, 720, Note_on_c, 1, 66, 75
3, 955, Note_off_c, 1, 66, 64
3, 960, Note_on_c, 1, 66, 75
3, 1195, Note_off_c, 1, 66, 64
3, 1200, Note_on_c, 1, 66, 75
3, 1435, Note_off_c, 1, 66, 64
3, 1440, Note_on_c, 1, 66, 75
3, 1675, Note_off_c, 1, 66, 64
3, 1680, Note_on_c, 1, 66, 75
3, 1915, Note_off_c, 1, 66, 64
3, 1920, Note_on_c, 1, 69, 75
3, 2155, Note_off_c, 1, 69, 64
3, 2160, Note_on_c, 1, 69, 75
3, 2395, Note_off_c, 1, 69, 64
3, 2400, Note_on_c, 1, 69, 75
3, 2635, Note_off_c, 1, 69, 64
3, 2640, Note_on_c, 1, 69, 75
3, 2875, Note_off_c, 1, 69, 64
3, 2880, Note_on_c, 1, 66, 75
3, 3115, Note_off_c, 1, 66, 64
3, 3120, Note_on_c, 1, 66, 75
3, 3355, Note_off_c, 1, 66, 64
3, 3360, Note_on_c, 1, 66, 75
3, 3595, Note_off_c, 1, 66, 64
3, 3600, Note_on_c, 1, 66, 75
3, 3835, Note_off_c, 1, 66, 64
3, 3840, Note_on_c, 1, 64, 92
3, 3960, Note_off_c, 1, 64, 64
3, 3960, Note_on_c, 1, 66, 92
3, 4080, Note_off_c, 1, 66, 64
3, 4080, Note_on_c, 1, 67, 92
3, 4200, Note_off_c, 1, 67, 64
3, 4200, Note_on_c, 1, 66, 92
3, 4320, Note_off_c, 1, 66, 64
3, 4320, Note_on_c, 1, 64, 92
3, 4440, Note_off_c, 1, 64, 64
3, 4440, Note_on_c, 1, 66, 92
3, 4560, Note_off_c, 1, 66, 64
3, 4560, Note_on_c, 1, 67, 92
3, 4680, Note_off_c, 1, 67, 64
3, 4680, Note_on_c, 1, 66, 92
3, 4800, Note_off_c, 1, 66, 64
3, 4800, Note_on_c, 1, 64, 92
3, 4920, Note_off_c, 1, 64, 64
3, 4920, Note_on_c, 1, 66, 92
3, 5040, Note_off_c, 1, 66, 64
3, 5040, Note_on_c, 1, 67, 92
3, 5160, Note_off_c, 1, 67, 64
3, 5160, Note_on_c, 1, 66, 92
3, 5280, Note_off_c, 1, 66, 64
3, 5280, Note_on_c, 1, 64, 92
3, 5400, Note_off_c, 1, 64, 64
3, 5400, Note_on_c, 1, 66, 92
3, 5520, Note_off_c, 1, 66, 64
3, 5520, Note_on_c, 1, 67, 92
3, 5640, Note_off_c, 1, 67, 64
3, 5640, Note_on_c, 1, 64, 92
3, 5760, Note_off_c, 1, 64, 64
3, 5760, Note_on_c, 1, 66, 92
3, 6355, Note_off_c, 1, 66, 64
3, 6960, Note_on_c, 1, 62, 92
3, 7200, Note_off_c, 1, 62, 64
3, 7200, Note_on_c, 1, 66, 92
3, 7440, Note_off_c, 1, 66, 64
3, 7440, Note_on_c, 1, 69, 92
3, 7675, Note_off_c, 1, 69, 64
3, 7680, Note_on_c, 1, 61, 92
3, 7800, Note_off_c, 1, 61, 64
3, 7800, Note_on_c, 1, 62, 92
3, 7920, Note_off_c, 1, 62, 64
3, 7920, Note_on_c, 1, 64, 92
3, 8040, Note_off_c, 1, 64, 64
3, 8040, Note_on_c, 1, 62, 92
3, 8160, Note_off_c, 1, 62, 64
3, 8160, Note_on_c, 1, 61, 92
3, 8280, Note_off_c, 1, 61, 64
3, 8280, Note_on_c, 1, 62, 92
3, 8400, Note_off_c, 1, 62, 64
3, 8400, Note_on_c, 1, 64, 92
3, 8520, Note_off_c, 1, 64, 64
3, 8520, Note_on_c, 1, 62, 92
3, 8640, Note_off_c, 1, 62, 64
3, 8640, Note_on_c, 1, 61, 92
3, 8760, Note_off_c, 1, 61, 64
3, 8760, Note_on_c, 1, 62, 92
3, 8880, Note_off_c, 1, 62, 64
3, 8880, Note_on_c, 1, 64, 92
3, 9000, Note_off_c, 1, 64, 64
3, 9000, Note_on_c, 1, 62, 92
3, 9120, Note_off_c, 1, 62, 64
3, 9120, Note_on_c, 1, 61, 92
3, 9240, Note_off_c, 1, 61, 64
3, 9240, Note_on_c, 1, 62, 92
3, 9360, Note_off_c, 1, 62, 64
3, 9360, Note_on_c, 1, 64, 92
3, 9480, Note_off_c, 1, 64, 64
3, 9480, Note_on_c, 1, 61, 92
3, 9600, Note_off_c, 1, 61, 64
3, 9600, Note_on_c, 1, 62, 75
3, 9835, Note_off_c, 1, 62, 64
3, 9840, Note_on_c, 1, 69, 75
3, 10240, Note_off_c, 1, 69, 64
3, 10320, Note_on_c, 1, 69, 75
3, 10720, Note_off_c, 1, 69, 64
3, 10800, Note_on_c, 1, 69, 75
3, 11200, Note_off_c, 1, 69, 64
3, 11280, Note_on_c, 1, 69, 75
3, 11515, Note_off_c, 1, 69, 64
3, 11520, Note_on_c, 1, 69, 75
3, 11755, Note_off_c, 1, 69, 64
3, 11760, Note_on_c, 1, 69, 75
3, 11995, Note_off_c, 1, 69, 64
3, 12000, Note_on_c, 1, 69, 75
3, 12235, Note_off_c, 1, 69, 64
3, 12240, Note_on_c, 1, 69, 75
3, 12475, Note_off_c, 1, 69, 64
3, 12480, Note_on_c, 1, 74, 75
3, 12715, Note_off_c, 1, 74, 64
3, 12720, Note_on_c, 1, 74, 75
3, 12955, Note_off_c, 1, 74, 64
3, 12960, Note_on_c, 1, 74, 75
3, 13195, Note_off_c, 1, 74, 64
3, 13200, Note_on_c, 1, 74, 75
3, 13435, Note_off_c, 1, 74, 64
3, 13440, Note_on_c, 1, 74, 75
3, 13675, Note_off_c, 1, 74, 64
3, 13680, Note_on_c, 1, 71, 75
3, 14080, Note_off_c, 1, 71, 64
3, 14160, Note_on_c, 1, 71, 75
3, 14560, Note_off_c, 1, 71, 64
3, 14640, Note_on_c, 1, 71, 92
3, 14880, Note_off_c, 1, 71, 64
3, 14880, Note_on_c, 1, 76, 92
3, 15120, Note_off_c, 1, 76, 64
3, 15120, Note_on_c, 1, 79, 92
3, 15355, Note_off_c, 1, 79, 64
3, 15360, Note_on_c, 1, 77, 92
3, 15480, Note_off_c, 1, 77, 64
3, 15480, Note_on_c, 1, 78, 92
3, 16240, Note_off_c, 1, 78, 64
3, 16320, Note_on_c, 1, 77, 92
3, 16440, Note_off_c, 1, 77, 64
3, 16440, Note_on_c, 1, 78, 92
3, 16795, Note_off_c, 1, 78, 64
3, 16800, Note_on_c, 1, 77, 92
3, 16920, Note_off_c, 1, 77, 64
3, 16920, Note_on_c, 1, 78, 92
3, 17275, Note_off_c, 1, 78, 64
3, 17280, Note_on_c, 1, 75, 92
3, 17400, Note_off_c, 1, 75, 64
3, 17400, Note_on_c, 1, 76, 92
3, 17515, Note_off_c, 1, 76, 64
3, 17700, Note_on_c, 1, 75, 92
3, 17820, Note_off_c, 1, 75, 64
3, 17820, Note_on_c, 1, 76, 92
3, 18355, Note_off_c, 1, 76, 64
3, 18480, Note_on_c, 1, 75, 92
3, 18600, Note_off_c, 1, 75, 64
3, 18600, Note_on_c, 1, 76, 92
3, 18715, Note_off_c, 1, 76, 64
3, 18720, Note_on_c, 1, 78, 92
3, 18800, Note_off_c, 1, 78, 64
3, 18840, Note_on_c, 1, 76, 92
3, 18920, Note_off_c, 1, 76, 64
3, 18960, Note_on_c, 1, 75, 92
3, 19040, Note_off_c, 1, 75, 64
3, 19080, Note_on_c, 1, 73, 92
3, 19160, Note_off_c, 1, 73, 64
3, 19200, Note_on_c, 1, 74, 75
3, 19600, Note_off_c, 1, 74, 64
3, 19920, Note_on_c, 1, 73, 75
3, 20155, Note_off_c, 1, 73, 64
3, 20160, Note_on_c, 1, 74, 75
3, 20560, Note_off_c, 1, 74, 64
3, 20880, Note_on_c, 1, 67, 75
3, 21115, Note_off_c, 1, 67, 64
3, 21120, Note_on_c, 1, 66, 75
3, 21520, Note_off_c, 1, 66, 64
3, 21840, Note_on_c, 1, 73, 75
3, 22075, Note_off_c, 1, 73, 64
3, 22080, Note_on_c, 1, 74, 75
3, 22480, Note_off_c, 1, 74, 64
3, 23040, Note_on_c, 1, 86, 92
3, 24360, Note_off_c, 1, 86, 64
3, 24480, Note_on_c, 1, 81, 92
3, 24835, Note_off_c, 1, 81, 64
3, 24840, Note_on_c, 1, 78, 92
3, 24955, Note_off_c, 1, 78, 64
3, 24960, Note_on_c, 1, 74, 92
3, 25360, Note_off_c, 1, 74, 64
3, 25440, Note_on_c, 1, 69, 92
3, 25795, Note_off_c, 1, 69, 64
3, 25800, Note_on_c, 1, 66, 92
3, 25915, Note_off_c, 1, 66, 64
3, 25920, Note_on_c, 1, 62, 92
3, 26000, Note_off_c, 1, 62, 64
3, 26160, Note_on_c, 1, 78, 92
3, 26280, Note_off_c, 1, 78, 64
3, 26280, Note_on_c, 1, 80, 92
3, 26400, Note_off_c, 1, 80, 64
3, 26400, Note_on_c, 1, 81, 92
3, 26480, Note_off_c, 1, 81, 64
3, 26640, Note_on_c, 1, 81, 92
3, 26720, Note_off_c, 1, 81, 64
3, 26880, Note_on_c, 1, 81, 92
3, 26910, Note_off_c, 1, 81, 64
3, 26910, Note_on_c, 1, 83, 92
3, 26940, Note_off_c, 1, 83, 64
3, 26940, Note_on_c, 1, 81, 92
3, 26970, Note_off_c, 1, 81, 64
3, 26970, Note_on_c, 1, 83, 92
3, 27000, Note_off_c, 1, 83, 64
3, 27000, Note_on_c, 1, 81, 92
3, 27120, Note_off_c, 1, 81, 64
3, 27120, Note_on_c, 1, 80, 92
3, 27355, Note_off_c, 1, 80, 64
3, 27360, Note_on_c, 1, 80, 92
3, 27760, Note_off_c, 1, 80, 64
3, 30000, Note_on_c, 1, 68, 82
3, 30120, Note_off_c, 1, 68, 64
3, 30120, Note_on_c, 1, 69, 81
3, 30240, Note_off_c, 1, 69, 64
3, 30240, Note_on_c, 1, 71, 80
3, 30320, Note_off_c, 1, 71, 64
3, 30480, Note_on_c, 1, 71, 78
3, 30560, Note_off_c, 1, 71, 64
3, 30720, Note_on_c, 1, 69, 75
3, 31120, Note_off_c, 1, 69, 64
3, 34680, Note_on_c, 1, 69, 75
3, 34760, Note_off_c, 1, 69, 64
3, 34800, Note_on_c, 1, 71, 75
3, 34880, Note_off_c, 1, 71, 64
3, 34920, Note_on_c, 1, 73, 75
3, 35000, Note_off_c, 1, 73, 64
3, 35040, Note_on_c, 1, 74, 75
3, 35120, Note_off_c, 1, 74, 64
3, 35160, Note_on_c, 1, 76, 75
3, 35240, Note_off_c, 1, 76, 64
3, 35280, Note_on_c, 1, 78, 75
3, 35360, Note_off_c, 1, 78, 64
3, 35400, Note_on_c, 1, 80, 75
3, 35480, Note_off_c, 1, 80, 64
3, 35520, Note_on_c, 1, 81, 75
3, 35600, Note_off_c, 1, 81, 64
3, 35640, Note_on_c, 1, 83, 75
3, 35720, Note_off_c, 1, 83, 64
3, 35760, Note_on_c, 1, 85, 75
3, 35840, Note_off_c, 1, 85, 64
3, 35880, Note_on_c, 1, 83, 75
3, 35960, Note_off_c, 1, 83, 64
3, 36000, Note_on_c, 1, 81, 75
3, 36080, Note_off_c, 1, 81, 64
3, 36120, Note_on_c, 1, 80, 75
3, 36200, Note_off_c, 1, 80, 64
3, 36240, Note_on_c, 1, 78, 75
3, 36320, Note_off_c, 1, 78, 64
3, 36360, Note_on_c, 1, 76, 75
3, 36440, Note_off_c, 1, 76, 64
3, 36480, Note_on_c, 1, 74, 75
3, 36560, Note_off_c, 1, 74, 64
3, 36600, Note_on_c, 1, 71, 75
3, 36680, Note_off_c, 1, 71, 64
3, 36720, Note_on_c, 1, 73, 75
3, 36800, Note_off_c, 1, 73, 64
3, 36840, Note_on_c, 1, 74, 75
3, 36920, Note_off_c, 1, 74, 64
3, 36960, Note_on_c, 1, 76, 75
3, 37040, Note_off_c, 1, 76, 64
3, 37080, Note_on_c, 1, 78, 75
3, 37160, Note_off_c, 1, 78, 64
3, 37200, Note_on_c, 1, 80, 75
3, 37280, Note_off_c, 1, 80, 64
3, 37320, Note_on_c, 1, 81, 75
3, 37400, Note_off_c, 1, 81, 64
3, 37440, Note_on_c, 1, 83, 75
3, 37520, Note_off_c, 1, 83, 64
3, 37560, Note_on_c, 1, 81, 75
3, 37640, Note_off_c, 1, 81, 64
3, 37680, Note_on_c, 1, 80, 75
3, 37760, Note_off_c, 1, 80, 64
3, 37800, Note_on_c, 1, 81, 75
3, 37880, Note_off_c, 1, 81, 64
3, 37920, Note_on_c, 1, 80, 75
3, 38000, Note_off_c, 1, 80, 64
3, 38040, Note_on_c, 1, 78, 75
3, 38120, Note_off_c, 1, 78, 64
3, 38160, Note_on_c, 1, 76, 75
3, 38240, Note_off_c, 1, 76, 64
3, 38280, Note_on_c, 1, 74, 75
3, 38360, Note_off_c, 1, 74, 64
3, 38400, Note_on_c, 1, 73, 75
3, 38480, Note_off_c, 1, 73, 64
3, 38640, Note_on_c, 1, 81, 75
3, 38720, Note_off_c, 1, 81, 64
3, 38880, Note_on_c, 1, 69, 75
3, 38960, Note_off_c, 1, 69, 64
3, 39120, Note_on_c, 1, 71, 75
3, 39180, Note_off_c, 1, 71, 64
3, 39180, Note_on_c, 1, 73, 75
3, 39240, Note_off_c, 1, 73, 64
3, 39240, Note_on_c, 1, 71, 75
3, 39300, Note_off_c, 1, 71, 64
3, 39300, Note_on_c, 1, 73, 75
3, 39360, Note_off_c, 1, 73, 64
3, 39360, Note_on_c, 1, 73, 75
3, 39440, Note_off_c, 1, 73, 64
3, 39600, Note_on_c, 1, 81, 75
3, 39680, Note_off_c, 1, 81, 64
3, 39840, Note_on_c, 1, 73, 75
3, 39920, Note_off_c, 1, 73, 64
3, 40080, Note_on_c, 1, 74, 75
3, 40140, Note_off_c, 1, 74, 64
3, 40140, Note_on_c, 1, 76, 75
3, 40200, Note_off_c, 1, 76, 64
3, 40200, Note_on_c, 1, 74, 75
3, 40260, Note_off_c, 1, 74, 64
3, 40260, Note_on_c, 1, 76, 75
3, 40320, Note_off_c, 1, 76, 64
3, 40320, Note_on_c, 1, 73, 75
3, 40400, Note_off_c, 1, 73, 64
3, 40560, Note_on_c, 1, 81, 77
3, 41040, Note_off_c, 1, 81, 64
3, 41040, Note_on_c, 1, 80, 81
3, 41275, Note_off_c, 1, 80, 64
3, 41280, Note_on_c, 1, 81, 83
3, 41360, Note_off_c, 1, 81, 64
3, 41520, Note_on_c, 1, 76, 85
3, 41760, Note_off_c, 1, 76, 64
3, 41760, Note_on_c, 1, 73, 87
3, 42000, Note_off_c, 1, 73, 64
3, 42000, Note_on_c, 1, 71, 89
3, 42240, Note_off_c, 1, 71, 64
3, 42240, Note_on_c, 1, 69, 92
3, 42320, Note_off_c, 1, 69, 64
3, 42480, Note_on_c, 1, 73, 92
3, 42880, Note_off_c, 1, 73, 64
3, 42960, Note_on_c, 1, 76, 92
3, 43360, Note_off_c, 1, 76, 64
3, 43440, Note_on_c, 1, 69, 92
3, 43840, Note_off_c, 1, 69, 64
3, 43920, Note_on_c, 1, 69, 92
3, 44155, Note_off_c, 1, 69, 64
3, 44160, Note_on_c, 1, 69, 75
3, 44395, Note_off_c, 1, 69, 64
3, 44400, Note_on_c, 1, 69, 75
3, 44635, Note_off_c, 1, 69, 64
3, 44640, Note_on_c, 1, 69, 75
3, 44875, Note_off_c, 1, 69, 64
3, 44880, Note_on_c, 1, 69, 75
3, 45115, Note_off_c, 1, 69, 64
3, 45120, Note_on_c, 1, 69, 75
3, 45355, Note_off_c, 1, 69, 64
3, 45360, Note_on_c, 1, 69, 75
3, 45595, Note_off_c, 1, 69, 64
3, 45600, Note_on_c, 1, 69, 75
3, 45835, Note_off_c, 1, 69, 64
3, 45840, Note_on_c, 1, 69, 75
3, 46075, Note_off_c, 1, 69, 64
3, 46080, Note_on_c, 1, 67, 75
3, 46315, Note_off_c, 1, 67, 64
3, 46320, Note_on_c, 1, 67, 75
3, 46555, Note_off_c, 1, 67, 64
3, 46560, Note_on_c, 1, 67, 75
3, 46795, Note_off_c, 1, 67, 64
3, 46800, Note_on_c, 1, 67, 75
3, 47035, Note_off_c, 1, 67, 64
3, 47040, Note_on_c, 1, 67, 75
3, 47275, Note_off_c, 1, 67, 64
3, 47280, Note_on_c, 1, 67, 75
3, 47515, Note_off_c, 1, 67, 64
3, 47520, Note_on_c, 1, 67, 75
3, 47755, Note_off_c, 1, 67, 64
3, 47760, Note_on_c, 1, 67, 75
3, 47995, Note_off_c, 1, 67, 64
3, 48000, Note_on_c, 1, 66, 75
3, 48235, Note_off_c, 1, 66, 64
3, 48240, Note_on_c, 1, 66, 72
3, 48475, Note_off_c, 1, 66, 64
3, 48480, Note_on_c, 1, 66, 69
3, 48715, Note_off_c, 1, 66, 64
3, 48720, Note_on_c, 1, 66, 65
3, 48955, Note_off_c, 1, 66, 64
3, 48960, Note_on_c, 1, 59, 61
3, 49195, Note_off_c, 1, 59, 64
3, 49200, Note_on_c, 1, 59, 57
3, 49435, Note_off_c, 1, 59, 64
3, 49440, Note_on_c, 1, 64, 53
3, 49675, Note_off_c, 1, 64, 64
3, 49680, Note_on_c, 1, 64, 49
3, 49915, Note_off_c, 1, 64, 64
3, 49920, Note_on_c, 1, 64, 45
3, 50160, Note_off_c, 1, 64, 64
3, 50160, Note_on_c, 1, 69, 46
3, 50240, Note_off_c, 1, 69, 64
3, 50400, Note_on_c, 1, 69, 48
3, 50480, Note_off_c, 1, 69, 64
3, 50640, Note_on_c, 1, 69, 50
3, 50720, Note_off_c, 1, 69, 64
3, 50880, Note_on_c, 1, 69, 52
3, 51280, Note_off_c, 1, 69, 64
3, 51840, Note_on_c, 1, 66, 60
3, 52080, Note_off_c, 1, 66, 64
3, 52080, Note_on_c, 1, 69, 60
3, 52160, Note_off_c, 1, 69, 64
3, 52320, Note_on_c, 1, 69, 62
3, 52400, Note_off_c, 1, 69, 64
3, 52560, Note_on_c, 1, 69, 64
3, 52640, Note_off_c, 1, 69, 64
3, 52800, Note_on_c, 1, 69, 66
3, 53200, Note_off_c, 1, 69, 64
3, 53760, Note_on_c, 1, 61, 75
3, 54000, Note_off_c, 1, 61, 64
3, 54000, Note_on_c, 1, 69, 75
3, 54080, Note_off_c, 1, 69, 64
3, 54240, Note_on_c, 1, 69, 77
3, 54320, Note_off_c, 1, 69, 64
3, 54480, Note_on_c, 1, 69, 79
3, 54560, Note_off_c, 1, 69, 64
3, 54720, Note_on_c, 1, 69, 81
3, 55120, Note_off_c, 1, 69, 64
3, 55680, Note_on_c, 1, 69, 92
3, 56080, Note_off_c, 1, 69, 64
3, 57840, Note_on_c, 1, 57, 92
3, 58240, Note_off_c, 1, 57, 64
3, 58320, Note_on_c, 1, 57, 92
3, 58720, Note_off_c, 1, 57, 64
3, 58800, Note_on_c, 1, 57, 92
3, 59200, Note_off_c, 1, 57, 64
3, 59280, Note_on_c, 1, 57, 92
3, 59755, Note_off_c, 1, 57, 64
3, 59760, Note_on_c, 1, 66, 92
3, 59840, Note_off_c, 1, 66, 64
3, 60000, Note_on_c, 1, 66, 92
3, 60080, Note_off_c, 1, 66, 64
3, 60240, Note_on_c, 1, 66, 92
3, 60320, Note_off_c, 1, 66, 64
3, 60480, Note_on_c, 1, 66, 92
3, 60560, Note_off_c, 1, 66, 64
3, 60720, Note_on_c, 1, 78, 92
3, 60955, Note_off_c, 1, 78, 64
3, 60960, Note_on_c, 1, 76, 92
3, 61080, Note_off_c, 1, 76, 64
3, 61080, Note_on_c, 1, 74, 92
3, 61195, Note_off_c, 1, 74, 64
3, 61200, Note_on_c, 1, 73, 92
3, 61280, Note_off_c, 1, 73, 64
3, 61320, Note_on_c, 1, 71, 92
3, 61400, Note_off_c, 1, 71, 64
3, 61440, Note_on_c, 1, 69, 92
3, 61840, Note_off_c, 1, 69, 64
3, 61920, Note_on_c, 1, 69, 92
3, 62760, Note_off_c, 1, 69, 64
3, 62880, Note_on_c, 1, 68, 92
3, 62940, Note_off_c, 1, 68, 64
3, 62940, Note_on_c, 1, 69, 92
3, 63000, Note_off_c, 1, 69, 64
3, 63000, Note_on_c, 1, 68, 92
3, 63060, Note_off_c, 1, 68, 64
3, 63060, Note_on_c, 1, 69, 92
3, 63120, Note_off_c, 1, 69, 64
3, 63120, Note_on_c, 1, 68, 92
3, 63180, Note_off_c, 1, 68, 64
3, 63180, Note_on_c, 1, 69, 92
3, 63240, Note_off_c, 1, 69, 64
3, 63240, Note_on_c, 1, 68, 92
3, 63300, Note_off_c, 1, 68, 64
3, 63300, Note_on_c, 1, 69, 92
3, 63360, Note_off_c, 1, 69, 64
3, 63360, Note_on_c, 1, 69, 92
3, 63760, Note_off_c, 1, 69, 64
3, 64560, Note_on_c, 1, 73, 82
3, 64680, Note_off_c, 1, 73, 64
3, 64680, Note_on_c, 1, 76, 81
3, 64800, Note_off_c, 1, 76, 64
3, 64800, Note_on_c, 1, 74, 80
3, 64920, Note_off_c, 1, 74, 64
3, 64920, Note_on_c, 1, 71, 79
3, 65040, Note_off_c, 1, 71, 64
3, 65040, Note_on_c, 1, 69, 77
3, 65160, Note_off_c, 1, 69, 64
3, 65160, Note_on_c, 1, 68, 75
3, 65280, Note_off_c, 1, 68, 64
3, 65280, Note_on_c, 1, 69, 75
3, 65680, Note_off_c, 1, 69, 64
3, 66480, Note_on_c, 1, 73, 66
3, 66600, Note_off_c, 1, 73, 64
3, 66600, Note_on_c, 1, 76, 65
3, 66720, Note_off_c, 1, 76, 64
3, 66720, Note_on_c, 1, 74, 64
3, 66840, Note_off_c, 1, 74, 64
3, 66840, Note_on_c, 1, 71, 63
3, 66960, Note_off_c, 1, 71, 64
3, 66960, Note_on_c, 1, 69, 62
3, 67080, Note_off_c, 1, 69, 64
3, 67080, Note_on_c, 1, 68, 61
3, 67200, Note_off_c, 1, 68, 64
3, 67200, Note_on_c, 1, 69, 60
3, 67280, Note_off_c, 1, 69, 64
3, 67440, Note_on_c, 1, 73, 60
3, 67560, Note_off_c, 1, 73, 64
3, 67560, Note_on_c, 1, 74, 58
3, 67680, Note_off_c, 1, 74, 64
3, 67680, Note_on_c, 1, 73, 56
3, 67800, Note_off_c, 1, 73, 64
3, 67800, Note_on_c, 1, 74, 54
3, 67920, Note_off_c, 1, 74, 64
3, 67920, Note_on_c, 1, 73, 51
3, 68040, Note_off_c, 1, 73, 64
3, 68040, Note_on_c, 1, 74, 48
3, 68160, Note_off_c, 1, 74, 64
3, 68160, Note_on_c, 1, 73, 45
3, 68560, Note_off_c, 1, 73, 64
3, 69120, Note_on_c, 1, 66, 75
3, 69355, Note_off_c, 1, 66, 64
3, 69360, Note_on_c, 1, 66, 75
3, 69595, Note_off_c, 1, 66, 64
3, 69600, Note_on_c, 1, 66, 75
3, 69835, Note_off_c, 1, 66, 64
3, 69840, Note_on_c, 1, 66, 75
3, 70075, Note_off_c, 1, 66, 64
3, 70080, Note_on_c, 1, 66, 75
3, 70315, Note_off_c, 1, 66, 64
3, 70320, Note_on_c, 1, 66, 75
3, 70555, Note_off_c, 1, 66, 64
3, 70560, Note_on_c, 1, 66, 75
3, 70795, Note_off_c, 1, 66, 64
3, 70800, Note_on_c, 1, 66, 75
3, 71035, Note_off_c, 1, 66, 64
3, 71040, Note_on_c, 1, 69, 75
3, 71275, Note_off_c, 1, 69, 64
3, 71280, Note_on_c, 1, 69, 75
3, 71515, Note_off_c, 1, 69, 64
3, 71520, Note_on_c, 1, 69, 75
3, 71755, Note_off_c, 1, 69, 64
3, 71760, Note_on_c, 1, 69, 75
3, 71995, Note_off_c, 1, 69, 64
3, 72000, Note_on_c, 1, 66, 75
3, 72235, Note_off_c, 1, 66, 64
3, 72240, Note_on_c, 1, 66, 75
3, 72475, Note_off_c, 1, 66, 64
3, 72480, Note_on_c, 1, 66, 75
3, 72715, Note_off_c, 1, 66, 64
3, 72720, Note_on_c, 1, 66, 75
3, 72955, Note_off_c, 1, 66, 64
3, 72960, Note_on_c, 1, 64, 92
3, 73080, Note_off_c, 1, 64, 64
3, 73080, Note_on_c, 1, 66, 92
3, 73200, Note_off_c, 1, 66, 64
3, 73200, Note_on_c, 1, 67, 92
3, 73320, Note_off_c, 1, 67, 64
3, 73320, Note_on_c, 1, 66, 92
3, 73440, Note_off_c, 1, 66, 64
3, 73440, Note_on_c, 1, 64, 92
3, 73560, Note_off_c, 1, 64, 64
3, 73560, Note_on_c, 1, 66, 92
3, 73680, Note_off_c, 1, 66, 64
3, 73680, Note_on_c, 1, 67, 92
3, 73800, Note_off_c, 1, 67, 64
3, 73800, Note_on_c, 1, 66, 92
3, 73920, Note_off_c, 1, 66, 64
3, 73920, Note_on_c, 1, 64, 92
3, 74040, Note_off_c, 1, 64, 64
3, 74040, Note_on_c, 1, 66, 92
3, 74160, Note_off_c, 1, 66, 64
3, 74160, Note_on_c, 1, 67, 92
3, 74280, Note_off_c, 1, 67, 64
3, 74280, Note_on_c, 1, 66, 92
3, 74400, Note_off_c, 1, 66, 64
3, 74400, Note_on_c, 1, 64, 92
3, 74520, Note_off_c, 1, 64, 64
3, 74520, Note_on_c, 1, 66, 92
3, 74640, Note_off_c, 1, 66, 64
3, 74640, Note_on_c, 1, 67, 92
3, 74760, Note_off_c, 1, 67, 64
3, 74760, Note_on_c, 1, 64, 92
3, 74880, Note_off_c, 1, 64, 64
3, 74880, Note_on_c, 1, 66, 92
3, 75475, Note_off_c, 1, 66, 64
3, 76080, Note_on_c, 1, 62, 92
3, 76320, Note_off_c, 1, 62, 64
3, 76320, Note_on_c, 1, 66, 92
3, 76560, Note_off_c, 1, 66, 64
3, 76560, Note_on_c, 1, 69, 92
3, 76795, Note_off_c, 1, 69, 64
3, 76800, Note_on_c, 1, 61, 92
3, 76920, Note_off_c, 1, 61, 64
3, 76920, Note_on_c, 1, 62, 92
3, 77040, Note_off_c, 1, 62, 64
3, 77040, Note_on_c, 1, 64, 92
3, 77160, Note_off_c, 1, 64, 64
3, 77160, Note_on_c, 1, 62, 92
3, 77280, Note_off_c, 1, 62, 64
3, 77280, Note_on_c, 1, 61, 92
3, 77400, Note_off_c, 1, 61, 64
3, 77400, Note_on_c, 1, 62, 92
3, 77520, Note_off_c, 1, 62, 64
3, 77520, Note_on_c, 1, 64, 92
3, 77640, Note_off_c, 1, 64, 64
3, 77640, Note_on_c, 1, 62, 92
3, 77760, Note_off_c, 1, 62, 64
3, 77760, Note_on_c, 1, 61, 92
3, 77880, Note_off_c, 1, 61, 64
3, 77880, Note_on_c, 1, 62, 92
3, 78000, Note_off_c, 1, 62, 64
3, 78000, Note_on_c, 1, 64, 92
3, 78120, Note_off_c, 1, 64, 64
3, 78120, Note_on_c, 1, 62, 92
3, 78240, Note_off_c, 1, 62, 64
3, 78240, Note_on_c, 1, 61, 92
3, 78360, Note_off_c, 1, 61, 64
3, 78360, Note_on_c, 1, 62, 92
3, 78480, Note_off_c, 1, 62, 64
3, 78480, Note_on_c, 1, 64, 92
3, 78600, Note_off_c, 1, 64, 64
3, 78600, Note_on_c, 1, 61, 92
3, 78720, Note_off_c, 1, 61, 64
3, 78720, Note_on_c, 1, 62, 75
3, 78955, Note_off_c, 1, 62, 64
3, 78960, Note_on_c, 1, 69, 75
3, 79360, Note_off_c, 1, 69, 64
3, 79440, Note_on_c, 1, 69, 75
3, 79840, Note_off_c, 1, 69, 64
3, 79920, Note_on_c, 1, 69, 75
3, 80320, Note_off_c, 1, 69, 64
3, 80400, Note_on_c, 1, 69, 75
3, 80635, Note_off_c, 1, 69, 64
3, 80640, Note_on_c, 1, 69, 75
3, 80875, Note_off_c, 1, 69, 64
3, 80880, Note_on_c, 1, 69, 75
3, 81115, Note_off_c, 1, 69, 64
3, 81120, Note_on_c, 1, 69, 75
3, 81355, Note_off_c, 1, 69, 64
3, 81360, Note_on_c, 1, 69, 75
3, 81595, Note_off_c, 1, 69, 64
3, 81600, Note_on_c, 1, 74, 75
3, 81835, Note_off_c, 1, 74, 64
3, 81840, Note_on_c, 1, 74, 75
3, 82075, Note_off_c, 1, 74, 64
3, 82080, Note_on_c, 1, 74, 75
3, 82315, Note_off_c, 1, 74, 64
3, 82320, Note_on_c, 1, 74, 75
3, 82555, Note_off_c, 1, 74, 64
3, 82560, Note_on_c, 1, 74, 75
3, 82795, Note_off_c, 1, 74, 64
3, 82800, Note_on_c, 1, 71, 75
3, 83200, Note_off_c, 1, 71, 64
3, 83280, Note_on_c, 1, 71, 75
3, 83680, Note_off_c, 1, 71, 64
3, 83760, Note_on_c, 1, 71, 92
3, 84000, Note_off_c, 1, 71, 64
3, 84000, Note_on_c, 1, 76, 92
3, 84240, Note_off_c, 1, 76, 64
3, 84240, Note_on_c, 1, 79, 92
3, 84475, Note_off_c, 1, 79, 64
3, 84480, Note_on_c, 1, 77, 92
3, 84600, Note_off_c, 1, 77, 64
3, 84600, Note_on_c, 1, 78, 92
3, 85360, Note_off_c, 1, 78, 64
3, 85440, Note_on_c, 1, 77, 92
3, 85560, Note_off_c, 1, 77, 64
3, 85560, Note_on_c, 1, 78, 92
3, 85915, Note_off_c, 1, 78, 64
3, 85920, Note_on_c, 1, 77, 92
3, 86040, Note_off_c, 1, 77, 64
3, 86040, Note_on_c, 1, 78, 92
3, 86395, Note_off_c, 1, 78, 64
3, 86400, Note_on_c, 1, 75, 92
3, 86520, Note_off_c, 1, 75, 64
3, 86520, Note_on_c, 1, 76, 92
3, 86635, Note_off_c, 1, 76, 64
3, 86820, Note_on_c, 1, 75, 92
3, 86940, Note_off_c, 1, 75, 64
3, 86940, Note_on_c, 1, 76, 92
3, 87475, Note_off_c, 1, 76, 64
3, 87600, Note_on_c, 1, 75, 92
3, 87720, Note_off_c, 1, 75, 64
3, 87720, Note_on_c, 1, 76, 92
3, 87835, Note_off_c, 1, 76, 64
3, 87840, Note_on_c, 1, 78, 92
3, 87920, Note_off_c, 1, 78, 64
3, 87960, Note_on_c, 1, 76, 92
3, 88040, Note_off_c, 1, 76, 64
3, 88080, Note_on_c, 1, 75, 92
3, 88160, Note_off_c, 1, 75, 64
3, 88200, Note_on_c, 1, 73, 92
3, 88280, Note_off_c, 1, 73, 64
3, 88320, Note_on_c, 1, 74, 75
3, 88720, Note_off_c, 1, 74, 64
3, 89040, Note_on_c, 1, 73, 75
3, 89275, Note_off_c, 1, 73, 64
3, 89280, Note_on_c, 1, 74, 75
3, 89680, Note_off_c, 1, 74, 64
3, 90000, Note_on_c, 1, 67, 75
3, 90235, Note_off_c, 1, 67, 64
3, 90240, Note_on_c, 1, 66, 75
3, 90640, Note_off_c, 1, 66, 64
3, 90960, Note_on_c, 1, 73, 75
3, 91195, Note_off_c, 1, 73, 64
3, 91200, Note_on_c, 1, 74, 75
3, 91600, Note_off_c, 1, 74, 64
3, 92160, Note_on_c, 1, 86, 92
3, 93480, Note_off_c, 1, 86, 64
3, 93600, Note_on_c, 1, 81, 92
3, 93955, Note_off_c, 1, 81, 64
3, 93960, Note_on_c, 1, 78, 92
3, 94075, Note_off_c, 1, 78, 64
3, 94080, Note_on_c, 1, 74, 92
3, 94480, Note_off_c, 1, 74, 64
3, 94560, Note_on_c, 1, 69, 92
3, 94915, Note_off_c, 1, 69, 64
3, 94920, Note_on_c, 1, 66, 92
3, 95035, Note_off_c, 1, 66, 64
3, 95040, Note_on_c, 1, 62, 92
3, 95120, Note_off_c, 1, 62, 64
3, 95280, Note_on_c, 1, 78, 92
3, 95400, Note_off_c, 1, 78, 64
3, 95400, Note_on_c, 1, 80, 92
3, 95520, Note_off_c, 1, 80, 64
3, 95520, Note_on_c, 1, 81, 92
3, 95600, Note_off_c, 1, 81, 64
3, 95760, Note_on_c, 1, 81, 92
3, 95840, Note_off_c, 1, 81, 64
3, 96000, Note_on_c, 1, 81, 92
3, 96030, Note_off_c, 1, 81, 64
3, 96030, Note_on_c, 1, 83, 92
3, 96060, Note_off_c, 1, 83, 64
3, 96060, Note_on_c, 1, 81, 92
3, 96090, Note_off_c, 1, 81, 64
3, 96090, Note_on_c, 1, 83, 92
3, 96120, Note_off_c, 1, 83, 64
3, 96120, Note_on_c, 1, 81, 92
3, 96240, Note_off_c, 1, 81, 64
3, 96240, Note_on_c, 1, 80, 92
3, 96475, Note_off_c, 1, 80, 64
3, 96480, Note_on_c, 1, 80, 92
3, 96880, Note_off_c, 1, 80, 64
3, 99120, Note_on_c, 1, 68, 82
3, 99240, Note_off_c, 1, 68, 64
3, 99240, Note_on_c, 1, 69, 81
3, 99360, Note_off_c, 1, 69, 64
3, 99360, Note_on_c, 1, 71, 80
3, 99440, Note_off_c, 1, 71, 64
3, 99600, Note_on_c, 1, 71, 78
3, 99680, Note_off_c, 1, 71, 64
3, 99840, Note_on_c, 1, 69, 75
3, 100240, Note_off_c, 1, 69, 64
3, 103800, Note_on_c, 1, 69, 75
3, 103880, Note_off_c, 1, 69, 64
3, 103920, Note_on_c, 1, 71, 75
3, 104000, Note_off_c, 1, 71, 64
3, 104040, Note_on_c, 1, 73, 75
3, 104120, Note_off_c, 1, 73, 64
3, 104160, Note_on_c, 1, 74, 75
3, 104240, Note_off_c, 1, 74, 64
3, 104280, Note_on_c, 1, 76, 75
3, 104360, Note_off_c, 1, 76, 64
3, 104400, Note_on_c, 1, 78, 75
3, 104480, Note_off_c, 1, 78, 64
3, 104520, Note_on_c, 1, 80, 75
3, 104600, Note_off_c, 1, 80, 64
3, 104640, Note_on_c, 1, 81, 75
3, 104720, Note_off_c, 1, 81, 64
3, 104760, Note_on_c, 1, 83, 75
3, 104840, Note_off_c, 1, 83, 64
3, 104880, Note_on_c, 1, 85, 75
3, 104960, Note_off_c, 1, 85, 64
3, 105000, Note_on_c, 1, 83, 75
3, 105080, Note_off_c, 1, 83, 64
3, 105120, Note_on_c, 1, 81, 75
3, 105200, Note_off_c, 1, 81, 64
3, 105240, Note_on_c, 1, 80, 75
3, 105320, Note_off_c, 1, 80, 64
3, 105360, Note_on_c, 1, 78, 75
3, 105440, Note_off_c, 1, 78, 64
3, 105480, Note_on_c, 1, 76, 75
3, 105560, Note_off_c, 1, 76, 64
3, 105600, Note_on_c, 1, 74, 75
3, 105680, Note_off_c, 1, 74, 64
3, 105720, Note_on_c, 1, 71, 75
3, 105800, Note_off_c, 1, 71, 64
3, 105840, Note_on_c, 1, 73, 75
3, 105920, Note_off_c, 1, 73, 64
3, 105960, Note_on_c, 1, 74, 75
3, 106040, Note_off_c, 1, 74, 64
3, 106080, Note_on_c, 1, 76, 75
3, 106160, Note_off_c, 1, 76, 64
3, 106200, Note_on_c, 1, 78, 75
3, 106280, Note_off_c, 1, 78, 64
3, 106320, Note_on_c, 1, 80, 75
3, 106400, Note_off_c, 1, 80, 64
3, 106440, Note_on_c, 1, 81, 75
3, 106520, Note_off_c, 1, 81, 64
3, 106560, Note_on_c, 1, 83, 75
3, 106640, Note_off_c, 1, 83, 64
3, 106680, Note_on_c, 1, 81, 75
3, 106760, Note_off_c, 1, 81, 64
3, 106800, Note_on_c, 1, 80, 75
3, 106880, Note_off_c, 1, 80, 64
3, 106920, Note_on_c, 1, 81, 75
3, 107000, Note_off_c, 1, 81, 64
3, 107040, Note_on_c, 1, 80, 75
3, 107120, Note_off_c, 1, 80, 64
3, 107160, Note_on_c, 1, 78, 75
3, 107240, Note_off_c, 1, 78, 64
3, 107280, Note_on_c, 1, 76, 75
3, 107360, Note_off_c, 1, 76, 64
3, 107400, Note_on_c, 1, 74, 75
3, 107480, Note_off_c, 1, 74, 64
3, 107520, Note_on_c, 1, 73, 75
3, 107600, Note_off_c, 1, 73, 64
3, 107760, Note_on_c, 1, 81, 75
3, 107840, Note_off_c, 1, 81, 64
3, 108000, Note_on_c, 1, 69, 75
3, 108080, Note_off_c, 1, 69, 64
3, 108240, Note_on_c, 1, 71, 75
3, 108300, Note_off_c, 1, 71, 64
3, 108300, Note_on_c, 1, 73, 75
3, 108360, Note_off_c, 1, 73, 64
3, 108360, Note_on_c, 1, 71, 75
3, 108420, Note_off_c, 1, 71, 64
3, 108420, Note_on_c, 1, 73, 75
3, 108480, Note_off_c, 1, 73, 64
3, 108480, Note_on_c, 1, 73, 75
3, 108560, Note_off_c, 1, 73, 64
3, 108720, Note_on_c, 1, 81, 75
3, 108800, Note_off_c, 1, 81, 64
3, 108960, Note_on_c, 1, 73, 75
3, 109040, Note_off_c, 1, 73, 64
3, 109200, Note_on_c, 1, 74, 75
3, 109260, Note_off_c, 1, 74, 64
3, 109260, Note_on_c, 1, 76, 75
3, 109320, Note_off_c, 1, 76, 64
3, 109320, Note_on_c, 1, 74, 75
3, 109380, Note_off_c, 1, 74, 64
3, 109380, Note_on_c, 1, 76, 75
3, 109440, Note_off_c, 1, 76, 64
3, 109440, Note_on_c, 1, 73, 75
3, 109520, Note_off_c, 1, 73, 64
3, 109680, Note_on_c, 1, 81, 77
3, 110160, Note_off_c, 1, 81, 64
3, 110160, Note_on_c, 1, 80, 81
3, 110395, Note_off_c, 1, 80, 64
3, 110400, Note_on_c, 1, 81, 83
3, 110480, Note_off_c, 1, 81, 64
3, 110640, Note_on_c, 1, 76, 85
3, 110880, Note_off_c, 1, 76, 64
3, 110880, Note_on_c, 1, 73, 87
3, 111120, Note_off_c, 1, 73, 64
3, 111120, Note_on_c, 1, 71, 89
3, 111360, Note_off_c, 1, 71, 64
3, 111360, Note_on_c, 1, 69, 92
3, 111440, Note_off_c, 1, 69, 64
3, 111600, Note_on_c, 1, 73, 92
3, 112000, Note_off_c, 1, 73, 64
3, 112080, Note_on_c, 1, 76, 92
3, 112480, Note_off_c, 1, 76, 64
3, 112560, Note_on_c, 1, 69, 92
3, 112960, Note_off_c, 1, 69, 64
3, 113040, Note_on_c, 1, 69, 92
3, 113275, Note_off_c, 1, 69, 64
3, 113280, Note_on_c, 1, 69, 75
3, 113515, Note_off_c, 1, 69, 64
3, 113520, Note_on_c, 1, 69, 75
3, 113755, Note_off_c, 1, 69, 64
3, 113760, Note_on_c, 1, 69, 75
3, 113995, Note_off_c, 1, 69, 64
3, 114000, Note_on_c, 1, 69, 75
3, 114235, Note_off_c, 1, 69, 64
3, 114240, Note_on_c, 1, 69, 75
3, 114475, Note_off_c, 1, 69, 64
3, 114480, Note_on_c, 1, 69, 75
3, 114715, Note_off_c, 1, 69, 64
3, 114720, Note_on_c, 1, 69, 75
3, 114955, Note_off_c, 1, 69, 64
3, 114960, Note_on_c, 1, 69, 75
3, 115195, Note_off_c, 1, 69, 64
3, 115200, Note_on_c, 1, 67, 75
3, 115435, Note_off_c, 1, 67, 64
3, 115440, Note_on_c, 1, 67, 75
3, 115675, Note_off_c, 1, 67, 64
3, 115680, Note_on_c, 1, 67, 75
3, 115915, Note_off_c, 1, 67, 64
3, 115920, Note_on_c, 1, 67, 75
3, 116155, Note_off_c, 1, 67, 64
3, 116160, Note_on_c, 1, 67, 75
3, 116395, Note_off_c, 1, 67, 64
3, 116400, Note_on_c, 1, 67, 75
3, 116635, Note_off_c, 1, 67, 64
3, 116640, Note_on_c, 1, 67, 75
3, 116875, Note_off_c, 1, 67, 64
3, 116880, Note_on_c, 1, 67, 75
3, 117115, Note_off_c, 1, 67, 64
3, 117120, Note_on_c, 1, 66, 75
3, 117355, Note_off_c, 1, 66, 64
3, 117360, Note_on_c, 1, 66, 72
3, 117595, Note_off_c, 1, 66, 64
3, 117600, Note_on_c, 1, 66, 69
3, 117835, Note_off_c, 1, 66, 64
3, 117840, Note_on_c, 1, 66, 65
3, 118075, Note_off_c, 1, 66, 64
3, 118080, Note_on_c, 1, 59, 61
3, 118315, Note_off_c, 1, 59, 64
3, 118320, Note_on_c, 1, 59, 57
3, 118555, Note_off_c, 1, 59, 64
3, 118560, Note_on_c, 1, 64, 53
3, 118795, Note_off_c, 1, 64, 64
3, 118800, Note_on_c, 1, 64, 49
3, 119035, Note_off_c, 1, 64, 64
3, 119040, Note_on_c, 1, 64, 45
3, 119280, Note_off_c, 1, 64, 64
3, 119280, Note_on_c, 1, 69, 46
3, 119360, Note_off_c, 1, 69, 64
3, 119520, Note_on_c, 1, 69, 48
3, 119600, Note_off_c, 1, 69, 64
3, 119760, Note_on_c, 1, 69, 50
3, 119840, Note_off_c, 1, 69, 64
3, 120000, Note_on_c, 1, 69, 52
3, 120400, Note_off_c, 1, 69, 64
3, 120960, Note_on_c, 1, 66, 60
3, 121200, Note_off_c, 1, 66, 64
3, 121200, Note_on_c, 1, 69, 60
3, 121280, Note_off_c, 1, 69, 64
3, 121440, Note_on_c, 1, 69, 62
3, 121520, Note_off_c, 1, 69, 64
3, 121680, Note_on_c, 1, 69, 64
3, 121760, Note_off_c, 1, 69, 64
3, 121920, Note_on_c, 1, 69, 66
3, 122320, Note_off_c, 1, 69, 64
3, 122880, Note_on_c, 1, 61, 75
3, 123120, Note_off_c, 1, 61, 64
3, 123120, Note_on_c, 1, 69, 75
3, 123200, Note_off_c, 1, 69, 64
3, 123360, Note_on_c, 1, 69, 77
3, 123440, Note_off_c, 1, 69, 64
3, 123600, Note_on_c, 1, 69, 79
3, 123680, Note_off_c, 1, 69, 64
3, 123840, Note_on_c, 1, 69, 81
3, 124240, Note_off_c, 1, 69, 64
3, 124800, Note_on_c, 1, 69, 92
3, 125200, Note_off_c, 1, 69, 64
3, 126960, Note_on_c, 1, 57, 92
3, 127360, Note_off_c, 1, 57, 64
3, 127440, Note_on_c, 1, 57, 92
3, 127840, Note_off_c, 1, 57, 64
3, 127920, Note_on_c, 1, 57, 92
3, 128320, Note_off_c, 1, 57, 64
3, 128400, Note_on_c, 1, 57, 92
3, 128875, Note_off_c, 1, 57, 64
3, 128880, Note_on_c, 1, 66, 92
3, 128960, Note_off_c, 1, 66, 64
3, 129120, Note_on_c, 1, 66, 92
3, 129200, Note_off_c, 1, 66, 64
3, 129360, Note_on_c, 1, 66, 92
3, 129440, Note_off_c, 1, 66, 64
3, 129600, Note_on_c, 1, 66, 92
3, 129680, Note_off_c, 1, 66, 64
3, 129840, Note_on_c, 1, 78, 92
3, 130075, Note_off_c, 1, 78, 64
3, 130080, Note_on_c, 1, 76, 92
3, 130200, Note_off_c, 1, 76, 64
3, 130200, Note_on_c, 1, 74, 92
3, 130315, Note_off_c, 1, 74, 64
3, 130320, Note_on_c, 1, 73, 92
3, 130400, Note_off_c, 1, 73, 64
3, 130440, Note_on_c, 1, 71, 92
3, 130520, Note_off_c, 1, 71, 64
3, 130560, Note_on_c, 1, 69, 92
3, 130960, Note_off_c, 1, 69, 64
3, 131040, Note_on_c, 1, 69, 92
3, 131880, Note_off_c, 1, 69, 64
3, 132000, Note_on_c, 1, 68, 92
3, 132060, Note_off_c, 1, 68, 64
3, 132060, Note_on_c, 1, 69, 92
3, 132120, Note_off_c, 1, 69, 64
3, 132120, Note_on_c, 1, 68, 92
3, 132180, Note_off_c, 1, 68, 64
3, 132180, Note_on_c, 1, 69, 92
3, 132240, Note_off_c, 1, 69, 64
3, 132240, Note_on_c, 1, 68, 92
3, 132300, Note_off_c, 1, 68, 64
3, 132300, Note_on_c, 1, 69, 92
3, 132360, Note_off_c, 1, 69, 64
3, 132360, Note_on_c, 1, 68, 92
3, 132420, Note_off_c, 1, 68, 64
3, 132420, Note_on_c, 1, 69, 92
3, 132480, Note_off_c, 1, 69, 64
3, 132480, Note_on_c, 1, 69, 92
3, 132880, Note_off_c, 1, 69, 64
3, 133680, Note_on_c, 1, 73, 82
3, 133800, Note_off_c, 1, 73, 64
3, 133800, Note_on_c, 1, 76, 81
3, 133920, Note_off_c, 1, 76, 64
3, 133920, Note_on_c, 1, 74, 80
3, 134040, Note_off_c, 1, 74, 64
3, 134040, Note_on_c, 1, 71, 79
3, 134160, Note_off_c, 1, 71, 64
3, 134160, Note_on_c, 1, 69, 77
3, 134280, Note_off_c, 1, 69, 64
3, 134280, Note_on_c, 1, 68, 75
3, 134400, Note_off_c, 1, 68, 64
3, 134400, Note_on_c, 1, 69, 75
3, 134800, Note_off_c, 1, 69, 64
3, 135600, Note_on_c, 1, 73, 66
3, 135720, Note_off_c, 1, 73, 64
3, 135720, Note_on_c, 1, 76, 65
3, 135840, Note_off_c, 1, 76, 64
3, 135840, Note_on_c, 1, 74, 64
3, 135960, Note_off_c, 1, 74, 64
3, 135960, Note_on_c, 1, 71, 63
3, 136080, Note_off_c, 1, 71, 64
3, 136080, Note_on_c, 1, 69, 62
3, 136200, Note_off_c, 1, 69, 64
3, 136200, Note_on_c, 1, 68, 61
3, 136320, Note_off_c, 1, 68, 64
3, 136320, Note_on_c, 1, 69, 60
3, 136400, Note_off_c, 1, 69, 64
3, 136560, Note_on_c, 1, 73, 60
3, 136680, Note_off_c, 1, 73, 64
3, 136680, Note_on_c, 1, 74, 58
3, 136800, Note_off_c, 1, 74, 64
3, 136800, Note_on_c, 1, 73, 56
3, 136920, Note_off_c, 1, 73, 64
3, 136920, Note_on_c, 1, 74, 54
3, 137040, Note_off_c, 1, 74, 64
3, 137040, Note_on_c, 1, 73, 51
3, 137160, Note_off_c, 1, 73, 64
3, 137160, Note_on_c, 1, 74, 48
3, 137280, Note_off_c, 1, 74, 64
3, 137280, Note_on_c, 1, 73, 45
3, 137680, Note_off_c, 1, 73, 64
3, 138240, Note_on_c, 1, 64, 75
3, 138475, Note_off_c, 1, 64, 64
3, 138480, Note_on_c, 1, 64, 75
3, 138715, Note_off_c, 1, 64, 64
3, 138720, Note_on_c, 1, 64, 75
3, 138955, Note_off_c, 1, 64, 64
3, 138960, Note_on_c, 1, 64, 75
3, 139195, Note_off_c, 1, 64, 64
3, 139200, Note_on_c, 1, 64, 75
3, 139435, Note_off_c, 1, 64, 64
3, 139440, Note_on_c, 1, 64, 75
3, 139675, Note_off_c, 1, 64, 64
3, 139680, Note_on_c, 1, 64, 75
3, 139915, Note_off_c, 1, 64, 64
3, 139920, Note_on_c, 1, 64, 75
3, 140155, Note_off_c, 1, 64, 64
3, 140160, Note_on_c, 1, 63, 75
3, 140395, Note_off_c, 1, 63, 64
3, 140400, Note_on_c, 1, 63, 75
3, 140635, Note_off_c, 1, 63, 64
3, 140640, Note_on_c, 1, 63, 75
3, 140875, Note_off_c, 1, 63, 64
3, 140880, Note_on_c, 1, 63, 75
3, 141115, Note_off_c, 1, 63, 64
3, 141120, Note_on_c, 1, 63, 75
3, 141355, Note_off_c, 1, 63, 64
3, 141360, Note_on_c, 1, 63, 75
3, 141595, Note_off_c, 1, 63, 64
3, 141600, Note_on_c, 1, 63, 75
3, 141835, Note_off_c, 1, 63, 64
3, 141840, Note_on_c, 1, 64, 92
3, 142075, Note_off_c, 1, 64, 64
3, 142080, Note_on_c, 1, 66, 92
3, 142200, Note_off_c, 1, 66, 64
3, 142200, Note_on_c, 1, 67, 92
3, 142320, Note_off_c, 1, 67, 64
3, 142320, Note_on_c, 1, 69, 92
3, 142440, Note_off_c, 1, 69, 64
3, 142440, Note_on_c, 1, 67, 92
3, 142560, Note_off_c, 1, 67, 64
3, 142560, Note_on_c, 1, 66, 92
3, 142680, Note_off_c, 1, 66, 64
3, 142680, Note_on_c, 1, 67, 92
3, 142800, Note_off_c, 1, 67, 64
3, 142800, Note_on_c, 1, 69, 92
3, 142920, Note_off_c, 1, 69, 64
3, 142920, Note_on_c, 1, 67, 92
3, 143040, Note_off_c, 1, 67, 64
3, 143040, Note_on_c, 1, 66, 92
3, 143160, Note_off_c, 1, 66, 64
3, 143160, Note_on_c, 1, 67, 92
3, 143280, Note_off_c, 1, 67, 64
3, 143280, Note_on_c, 1, 69, 92
3, 143400, Note_off_c, 1, 69, 64
3, 143400, Note_on_c, 1, 67, 92
3, 143520, Note_off_c, 1, 67, 64
3, 143520, Note_on_c, 1, 66, 92
3, 143640, Note_off_c, 1, 66, 64
3, 143640, Note_on_c, 1, 67, 92
3, 143760, Note_off_c, 1, 67, 64
3, 143760, Note_on_c, 1, 69, 92
3, 143880, Note_off_c, 1, 69, 64
3, 143880, Note_on_c, 1, 66, 92
3, 144000, Note_off_c, 1, 66, 64
3, 144000, Note_on_c, 1, 67, 92
3, 144595, Note_off_c, 1, 67, 64
3, 145200, Note_on_c, 1, 79, 92
3, 145440, Note_off_c, 1, 79, 64
3, 145440, Note_on_c, 1, 76, 92
3, 145680, Note_off_c, 1, 76, 64
3, 145680, Note_on_c, 1, 71, 92
3, 145915, Note_off_c, 1, 71, 64
3, 145920, Note_on_c, 1, 75, 92
3, 146040, Note_off_c, 1, 75, 64
3, 146040, Note_on_c, 1, 76, 92
3, 146160, Note_off_c, 1, 76, 64
3, 146160, Note_on_c, 1, 78, 92
3, 146280, Note_off_c, 1, 78, 64
3, 146280, Note_on_c, 1, 76, 92
3, 146400, Note_off_c, 1, 76, 64
3, 146400, Note_on_c, 1, 75, 92
3, 146520, Note_off_c, 1, 75, 64
3, 146520, Note_on_c, 1, 76, 92
3, 146640, Note_off_c, 1, 76, 64
3, 146640, Note_on_c, 1, 78, 92
3, 146760, Note_off_c, 1, 78, 64
3, 146760, Note_on_c, 1, 76, 92
3, 146880, Note_off_c, 1, 76, 64
3, 146880, Note_on_c, 1, 75, 92
3, 147000, Note_off_c, 1, 75, 64
3, 147000, Note_on_c, 1, 76, 92
3, 147120, Note_off_c, 1, 76, 64
3, 147120, Note_on_c, 1, 78, 92
3, 147240, Note_off_c, 1, 78, 64
3, 147240, Note_on_c, 1, 76, 92
3, 147360, Note_off_c, 1, 76, 64
3, 147360, Note_on_c, 1, 75, 92
3, 147480, Note_off_c, 1, 75, 64
3, 147480, Note_on_c, 1, 76, 92
3, 147600, Note_off_c, 1, 76, 64
3, 147600, Note_on_c, 1, 78, 92
3, 147720, Note_off_c, 1, 78, 64
3, 147720, Note_on_c, 1, 75, 92
3, 147840, Note_off_c, 1, 75, 64
3, 147840, Note_on_c, 1, 76, 92
3, 148075, Note_off_c, 1, 76, 64
3, 148080, Note_on_c, 1, 67, 92
3, 148480, Note_off_c, 1, 67, 64
3, 148560, Note_on_c, 1, 66, 92
3, 148960, Note_off_c, 1, 66, 64
3, 149040, Note_on_c, 1, 64, 92
3, 149440, Note_off_c, 1, 64, 64
3, 149520, Note_on_c, 1, 62, 92
3, 149755, Note_off_c, 1, 62, 64
3, 149760, Note_on_c, 1, 61, 75
3, 149995, Note_off_c, 1, 61, 64
3, 150000, Note_on_c, 1, 61, 75
3, 150235, Note_off_c, 1, 61, 64
3, 150240, Note_on_c, 1, 61, 75
3, 150475, Note_off_c, 1, 61, 64
3, 150480, Note_on_c, 1, 61, 75
3, 150715, Note_off_c, 1, 61, 64
3, 150720, Note_on_c, 1, 61, 75
3, 150955, Note_off_c, 1, 61, 64
3, 150960, Note_on_c, 1, 61, 75
3, 151195, Note_off_c, 1, 61, 64
3, 151200, Note_on_c, 1, 61, 75
3, 151435, Note_off_c, 1, 61, 64
3, 151440, Note_on_c, 1, 61, 75
3, 151675, Note_off_c, 1, 61, 64
3, 151680, Note_on_c, 1, 61, 75
3, 151915, Note_off_c, 1, 61, 64
3, 151920, Note_on_c, 1, 61, 75
3, 152155, Note_off_c, 1, 61, 64
3, 152160, Note_on_c, 1, 61, 75
3, 152395, Note_off_c, 1, 61, 64
3, 152400, Note_on_c, 1, 61, 75
3, 152635, Note_off_c, 1, 61, 64
3, 152640, Note_on_c, 1, 58, 75
3, 152875, Note_off_c, 1, 58, 64
3, 152880, Note_on_c, 1, 58, 75
3, 153115, Note_off_c, 1, 58, 64
3, 153120, Note_on_c, 1, 58, 75
3, 153355, Note_off_c, 1, 58, 64
3, 153360, Note_on_c, 1, 58, 75
3, 153595, Note_off_c, 1, 58, 64
3, 153600, Note_on_c, 1, 61, 92
3, 153720, Note_off_c, 1, 61, 64
3, 153720, Note_on_c, 1, 62, 92
3, 153840, Note_off_c, 1, 62, 64
3, 153840, Note_on_c, 1, 64, 92
3, 153960, Note_off_c, 1, 64, 64
3, 153960, Note_on_c, 1, 62, 92
3, 154080, Note_off_c, 1, 62, 64
3, 154080, Note_on_c, 1, 61, 92
3, 154200, Note_off_c, 1, 61, 64
3, 154200, Note_on_c, 1, 62, 92
3, 154320, Note_off_c, 1, 62, 64
3, 154320, Note_on_c, 1, 64, 92
3, 154440, Note_off_c, 1, 64, 64
3, 154440, Note_on_c, 1, 62, 92
3, 154560, Note_off_c, 1, 62, 64
3, 154560, Note_on_c, 1, 61, 92
3, 154680, Note_off_c, 1, 61, 64
3, 154680, Note_on_c, 1, 62, 92
3, 154800, Note_off_c, 1, 62, 64
3, 154800, Note_on_c, 1, 64, 92
3, 154920, Note_off_c, 1, 64, 64
3, 154920, Note_on_c, 1, 62, 92
3, 155040, Note_off_c, 1, 62, 64
3, 155040, Note_on_c, 1, 61, 92
3, 155160, Note_off_c, 1, 61, 64
3, 155160, Note_on_c, 1, 62, 92
3, 155280, Note_off_c, 1, 62, 64
3, 155280, Note_on_c, 1, 64, 92
3, 155400, Note_off_c, 1, 64, 64
3, 155400, Note_on_c, 1, 61, 92
3, 155520, Note_off_c, 1, 61, 64
3, 155520, Note_on_c, 1, 62, 92
3, 156115, Note_off_c, 1, 62, 64
3, 156720, Note_on_c, 1, 74, 92
3, 156960, Note_off_c, 1, 74, 64
3, 156960, Note_on_c, 1, 71, 92
3, 157200, Note_off_c, 1, 71, 64
3, 157200, Note_on_c, 1, 66, 92
3, 157435, Note_off_c, 1, 66, 64
3, 157440, Note_on_c, 1, 61, 92
3, 157560, Note_off_c, 1, 61, 64
3, 157560, Note_on_c, 1, 62, 92
3, 157680, Note_off_c, 1, 62, 64
3, 157680, Note_on_c, 1, 64, 92
3, 157800, Note_off_c, 1, 64, 64
3, 157800, Note_on_c, 1, 62, 92
3, 157920, Note_off_c, 1, 62, 64
3, 157920, Note_on_c, 1, 61, 92
3, 158040, Note_off_c, 1, 61, 64
3, 158040, Note_on_c, 1, 62, 92
3, 158160, Note_off_c, 1, 62, 64
3, 158160, Note_on_c, 1, 64, 92
3, 158280, Note_off_c, 1, 64, 64
3, 158280, Note_on_c, 1, 62, 92
3, 158400, Note_off_c, 1, 62, 64
3, 158400, Note_on_c, 1, 61, 92
3, 158520, Note_off_c, 1, 61, 64
3, 158520, Note_on_c, 1, 62, 92
3, 158640, Note_off_c, 1, 62, 64
3, 158640, Note_on_c, 1, 64, 92
3, 158760, Note_off_c, 1, 64, 64
3, 158760, Note_on_c, 1, 62, 92
3, 158880, Note_off_c, 1, 62, 64
3, 158880, Note_on_c, 1, 61, 92
3, 159000, Note_off_c, 1, 61, 64
3, 159000, Note_on_c, 1, 62, 92
3, 159120, Note_off_c, 1, 62, 64
3, 159120, Note_on_c, 1, 64, 92
3, 159240, Note_off_c, 1, 64, 64
3, 159240, Note_on_c, 1, 61, 92
3, 159360, Note_off_c, 1, 61, 64
3, 159360, Note_on_c, 1, 59, 92
3, 159760, Note_off_c, 1, 59, 64
3, 159840, Note_on_c, 1, 74, 92
3, 159900, Note_off_c, 1, 74, 64
3, 159900, Note_on_c, 1, 76, 92
3, 159960, Note_off_c, 1, 76, 64
3, 159960, Note_on_c, 1, 74, 92
3, 160020, Note_off_c, 1, 74, 64
3, 160020, Note_on_c, 1, 76, 92
3, 160080, Note_off_c, 1, 76, 64
3, 160080, Note_on_c, 1, 74, 92
3, 160140, Note_off_c, 1, 74, 64
3, 160140, Note_on_c, 1, 76, 92
3, 160200, Note_off_c, 1, 76, 64
3, 160200, Note_on_c, 1, 73, 92
3, 160260, Note_off_c, 1, 73, 64
3, 160260, Note_on_c, 1, 74, 92
3, 160320, Note_off_c, 1, 74, 64
3, 160320, Note_on_c, 1, 83, 92
3, 160720, Note_off_c, 1, 83, 64
3, 161760, Note_on_c, 1, 72, 92
3, 161820, Note_off_c, 1, 72, 64
3, 161820, Note_on_c, 1, 74, 92
3, 161880, Note_off_c, 1, 74, 64
3, 161880, Note_on_c, 1, 72, 92
3, 161940, Note_off_c, 1, 72, 64
3, 161940, Note_on_c, 1, 74, 92
3, 162000, Note_off_c, 1, 74, 64
3, 162000, Note_on_c, 1, 72, 92
3, 162060, Note_off_c, 1, 72, 64
3, 162060, Note_on_c, 1, 74, 92
3, 162120, Note_off_c, 1, 74, 64
3, 162120, Note_on_c, 1, 71, 92
3, 162180, Note_off_c, 1, 71, 64
3, 162180, Note_on_c, 1, 72, 92
3, 162240, Note_off_c, 1, 72, 64
3, 162240, Note_on_c, 1, 81, 92
3, 162640, Note_off_c, 1, 81, 64
3, 163440, Note_on_c, 1, 74, 92
3, 163920, Note_off_c, 1, 74, 64
3, 163920, Note_on_c, 1, 75, 92
3, 164155, Note_off_c, 1, 75, 64
3, 164160, Note_on_c, 1, 76, 92
3, 164395, Note_off_c, 1, 76, 64
3, 164400, Note_on_c, 1, 71, 92
3, 164800, Note_off_c, 1, 71, 64
3, 164880, Note_on_c, 1, 71, 92
3, 165115, Note_off_c, 1, 71, 64
3, 165120, Note_on_c, 1, 64, 92
3, 165120, Note_on_c, 1, 69, 92
3, 165520, Note_off_c, 1, 69, 64
3, 165520, Note_off_c, 1, 64, 64
3, 165660, Note_on_c, 1, 73, 92
3, 165660, Note_on_c, 1, 76, 92
3, 165895, Note_off_c, 1, 76, 64
3, 165895, Note_off_c, 1, 73, 64
3, 166020, Note_on_c, 1, 73, 92
3, 166020, Note_on_c, 1, 76, 92
3, 166135, Note_off_c, 1, 76, 64
3, 166135, Note_off_c, 1, 73, 64
3, 166140, Note_on_c, 1, 73, 92
3, 166140, Note_on_c, 1, 76, 92
3, 166540, Note_off_c, 1, 76, 64
3, 166540, Note_off_c, 1, 73, 64
3, 167340, Note_on_c, 1, 62, 45
3, 167460, Note_off_c, 1, 62, 64
3, 167460, Note_on_c, 1, 61, 45
3, 167580, Note_off_c, 1, 61, 64
3, 167580, Note_on_c, 1, 62, 45
3, 167700, Note_off_c, 1, 62, 64
3, 167700, Note_on_c, 1, 64, 45
3, 167820, Note_off_c, 1, 64, 64
3, 167820, Note_on_c, 1, 65, 45
3, 167940, Note_off_c, 1, 65, 64
3, 167940, Note_on_c, 1, 67, 45
3, 168060, Note_off_c, 1, 67, 64
3, 168060, Note_on_c, 1, 65, 45
3, 168180, Note_off_c, 1, 65, 64
3, 168180, Note_on_c, 1, 64, 45
3, 168300, Note_off_c, 1, 64, 64
3, 168300, Note_on_c, 1, 62, 45
3, 168420, Note_off_c, 1, 62, 64
3, 168420, Note_on_c, 1, 61, 45
3, 168540, Note_off_c, 1, 61, 64
3, 168540, Note_on_c, 1, 62, 45
3, 168660, Note_off_c, 1, 62, 64
3, 168660, Note_on_c, 1, 64, 45
3, 168780, Note_off_c, 1, 64, 64
3, 168780, Note_on_c, 1, 65, 45
3, 168900, Note_off_c, 1, 65, 64
3, 168900, Note_on_c, 1, 64, 45
3, 169020, Note_off_c, 1, 64, 64
3, 169020, Note_on_c, 1, 65, 45
3, 169140, Note_off_c, 1, 65, 64
3, 169140, Note_on_c, 1, 62, 45
3, 169260, Note_off_c, 1, 62, 64
3, 169260, Note_on_c, 1, 62, 45
3, 169375, Note_off_c, 1, 62, 64
3, 169380, Note_on_c, 1, 70, 45
3, 169500, Note_off_c, 1, 70, 64
3, 169500, Note_on_c, 1, 74, 45
3, 169620, Note_off_c, 1, 74, 64
3, 169620, Note_on_c, 1, 72, 45
3, 169740, Note_off_c, 1, 72, 64
3, 169740, Note_on_c, 1, 70, 45
3, 169860, Note_off_c, 1, 70, 64
3, 169860, Note_on_c, 1, 72, 45
3, 169980, Note_off_c, 1, 72, 64
3, 169980, Note_on_c, 1, 70, 45
3, 170100, Note_off_c, 1, 70, 64
3, 170100, Note_on_c, 1, 69, 45
3, 170220, Note_off_c, 1, 69, 64
3, 170220, Note_on_c, 1, 70, 45
3, 170340, Note_off_c, 1, 70, 64
3, 170340, Note_on_c, 1, 69, 45
3, 170460, Note_off_c, 1, 69, 64
3, 170460, Note_on_c, 1, 67, 45
3, 170580, Note_off_c, 1, 67, 64
3, 170580, Note_on_c, 1, 69, 45
3, 170700, Note_off_c, 1, 69, 64
3, 170700, Note_on_c, 1, 67, 45
3, 170820, Note_off_c, 1, 67, 64
3, 170820, Note_on_c, 1, 65, 45
3, 170940, Note_off_c, 1, 65, 64
3, 170940, Note_on_c, 1, 64, 45
3, 171060, Note_off_c, 1, 64, 64
3, 171060, Note_on_c, 1, 65, 45
3, 171175, Note_off_c, 1, 65, 64
3, 171180, Note_on_c, 1, 64, 45
3, 171300, Note_off_c, 1, 64, 64
3, 171300, Note_on_c, 1, 62, 45
3, 171420, Note_off_c, 1, 62, 64
3, 171420, Note_on_c, 1, 61, 45
3, 171540, Note_off_c, 1, 61, 64
3, 171540, Note_on_c, 1, 62, 45
3, 171660, Note_off_c, 1, 62, 64
3, 171660, Note_on_c, 1, 64, 45
3, 171780, Note_off_c, 1, 64, 64
3, 171780, Note_on_c, 1, 65, 45
3, 171900, Note_off_c, 1, 65, 64
3, 171900, Note_on_c, 1, 67, 45
3, 172020, Note_off_c, 1, 67, 64
3, 172020, Note_on_c, 1, 65, 45
3, 172140, Note_off_c, 1, 65, 64
3, 172140, Note_on_c, 1, 67, 45
3, 172260, Note_off_c, 1, 67, 64
3, 172260, Note_on_c, 1, 69, 45
3, 172380, Note_off_c, 1, 69, 64
3, 172380, Note_on_c, 1, 70, 45
3, 172500, Note_off_c, 1, 70, 64
3, 172500, Note_on_c, 1, 69, 45
3, 172620, Note_off_c, 1, 69, 64
3, 172620, Note_on_c, 1, 72, 45
3, 172740, Note_off_c, 1, 72, 64
3, 172740, Note_on_c, 1, 70, 45
3, 172860, Note_off_c, 1, 70, 64
3, 172860, Note_on_c, 1, 69, 45
3, 172980, Note_off_c, 1, 69, 64
3, 172980, Note_on_c, 1, 67, 45
3, 173095, Note_off_c, 1, 67, 64
3, 173100, Note_on_c, 1, 65, 45
3, 173220, Note_off_c, 1, 65, 64
3, 173220, Note_on_c, 1, 64, 45
3, 173340, Note_off_c, 1, 64, 64
3, 173340, Note_on_c, 1, 62, 45
3, 173460, Note_off_c, 1, 62, 64
3, 173460, Note_on_c, 1, 61, 45
3, 173580, Note_off_c, 1, 61, 64
3, 173580, Note_on_c, 1, 62, 45
3, 173700, Note_off_c, 1, 62, 64
3, 173700, Note_on_c, 1, 64, 45
3, 173820, Note_off_c, 1, 64, 64
3, 173820, Note_on_c, 1, 62, 45
3, 173940, Note_off_c, 1, 62, 64
3, 173940, Note_on_c, 1, 64, 45
3, 174060, Note_off_c, 1, 64, 64
3, 174060, Note_on_c, 1, 65, 45
3, 174180, Note_off_c, 1, 65, 64
3, 174180, Note_on_c, 1, 64, 45
3, 174300, Note_off_c, 1, 64, 64
3, 174300, Note_on_c, 1, 62, 45
3, 174420, Note_off_c, 1, 62, 64
3, 174420, Note_on_c, 1, 61, 45
3, 174540, Note_off_c, 1, 61, 64
3, 174540, Note_on_c, 1, 62, 45
3, 174660, Note_off_c, 1, 62, 64
3, 174660, Note_on_c, 1, 64, 45
3, 174780, Note_off_c, 1, 64, 64
3, 174780, Note_on_c, 1, 65, 45
3, 174900, Note_off_c, 1, 65, 64
3, 174900, Note_on_c, 1, 67, 45
3, 175015, Note_off_c, 1, 67, 64
3, 175020, Note_on_c, 1, 69, 45
3, 175140, Note_off_c, 1, 69, 64
3, 175140, Note_on_c, 1, 67, 45
3, 175260, Note_off_c, 1, 67, 64
3, 175260, Note_on_c, 1, 65, 45
3, 175380, Note_off_c, 1, 65, 64
3, 175380, Note_on_c, 1, 64, 45
3, 175500, Note_off_c, 1, 64, 64
3, 175500, Note_on_c, 1, 62, 45
3, 175620, Note_off_c, 1, 62, 64
3, 175620, Note_on_c, 1, 64, 45
3, 175740, Note_off_c, 1, 64, 64
3, 175740, Note_on_c, 1, 65, 45
3, 175860, Note_off_c, 1, 65, 64
3, 175860, Note_on_c, 1, 67, 45
3, 175980, Note_off_c, 1, 67, 64
3, 175980, Note_on_c, 1, 69, 45
3, 176100, Note_off_c, 1, 69, 64
3, 176100, Note_on_c, 1, 67, 45
3, 176220, Note_off_c, 1, 67, 64
3, 176220, Note_on_c, 1, 65, 45
3, 176340, Note_off_c, 1, 65, 64
3, 176340, Note_on_c, 1, 64, 45
3, 176460, Note_off_c, 1, 64, 64
3, 176460, Note_on_c, 1, 62, 45
3, 176580, Note_off_c, 1, 62, 64
3, 176580, Note_on_c, 1, 65, 45
3, 176700, Note_off_c, 1, 65, 64
3, 176700, Note_on_c, 1, 67, 45
3, 176820, Note_off_c, 1, 67, 64
3, 176820, Note_on_c, 1, 69, 45
3, 176935, Note_off_c, 1, 69, 64
3, 176940, Note_on_c, 1, 70, 45
3, 177060, Note_off_c, 1, 70, 64
3, 177060, Note_on_c, 1, 69, 45
3, 177180, Note_off_c, 1, 69, 64
3, 177180, Note_on_c, 1, 67, 45
3, 177300, Note_off_c, 1, 67, 64
3, 177300, Note_on_c, 1, 65, 45
3, 177420, Note_off_c, 1, 65, 64
3, 177420, Note_on_c, 1, 64, 45
3, 177540, Note_off_c, 1, 64, 64
3, 177540, Note_on_c, 1, 65, 45
3, 177660, Note_off_c, 1, 65, 64
3, 177660, Note_on_c, 1, 67, 45
3, 177780, Note_off_c, 1, 67, 64
3, 177780, Note_on_c, 1, 69, 45
3, 177900, Note_off_c, 1, 69, 64
3, 177900, Note_on_c, 1, 70, 45
3, 178020, Note_off_c, 1, 70, 64
3, 178020, Note_on_c, 1, 72, 45
3, 178140, Note_off_c, 1, 72, 64
3, 178140, Note_on_c, 1, 70, 45
3, 178260, Note_off_c, 1, 70, 64
3, 178260, Note_on_c, 1, 69, 45
3, 178380, Note_off_c, 1, 69, 64
3, 178380, Note_on_c, 1, 67, 45
3, 178500, Note_off_c, 1, 67, 64
3, 178500, Note_on_c, 1, 69, 45
3, 178620, Note_off_c, 1, 69, 64
3, 178620, Note_on_c, 1, 70, 45
3, 178740, Note_off_c, 1, 70, 64
3, 178740, Note_on_c, 1, 67, 45
3, 178855, Note_off_c, 1, 67, 64
3, 178860, Note_on_c, 1, 64, 45
3, 178980, Note_off_c, 1, 64, 64
3, 178980, Note_on_c, 1, 65, 45
3, 179100, Note_off_c, 1, 65, 64
3, 179100, Note_on_c, 1, 67, 45
3, 179220, Note_off_c, 1, 67, 64
3, 179220, Note_on_c, 1, 65, 45
3, 179340, Note_off_c, 1, 65, 64
3, 179340, Note_on_c, 1, 67, 45
3, 179460, Note_off_c, 1, 67, 64
3, 179460, Note_on_c, 1, 69, 45
3, 179580, Note_off_c, 1, 69, 64
3, 179580, Note_on_c, 1, 70, 45
3, 179700, Note_off_c, 1, 70, 64
3, 179700, Note_on_c, 1, 69, 45
3, 179820, Note_off_c, 1, 69, 64
3, 179820, Note_on_c, 1, 67, 45
3, 179940, Note_off_c, 1, 67, 64
3, 179940, Note_on_c, 1, 65, 45
3, 180060, Note_off_c, 1, 65, 64
3, 180060, Note_on_c, 1, 64, 45
3, 180180, Note_off_c, 1, 64, 64
3, 180180, Note_on_c, 1, 67, 45
3, 180300, Note_off_c, 1, 67, 64
3, 180300, Note_on_c, 1, 65, 45
3, 180420, Note_off_c, 1, 65, 64
3, 180420, Note_on_c, 1, 71, 45
3, 180540, Note_off_c, 1, 71, 64
3, 180540, Note_on_c, 1, 74, 45
3, 180660, Note_off_c, 1, 74, 64
3, 180660, Note_on_c, 1, 65, 45
3, 180775, Note_off_c, 1, 65, 64
3, 180780, Note_on_c, 1, 64, 45
3, 180900, Note_off_c, 1, 64, 64
3, 180900, Note_on_c, 1, 62, 45
3, 181020, Note_off_c, 1, 62, 64
3, 181020, Note_on_c, 1, 61, 45
3, 181140, Note_off_c, 1, 61, 64
3, 181140, Note_on_c, 1, 62, 45
3, 181260, Note_off_c, 1, 62, 64
3, 181260, Note_on_c, 1, 64, 45
3, 181380, Note_off_c, 1, 64, 64
3, 181380, Note_on_c, 1, 62, 45
3, 181500, Note_off_c, 1, 62, 64
3, 181500, Note_on_c, 1, 64, 45
3, 181620, Note_off_c, 1, 64, 64
3, 181620, Note_on_c, 1, 61, 45
3, 181740, Note_off_c, 1, 61, 64
3, 181740, Note_on_c, 1, 62, 45
3, 181860, Note_off_c, 1, 62, 64
3, 181860, Note_on_c, 1, 64, 45
3, 181980, Note_off_c, 1, 64, 64
3, 181980, Note_on_c, 1, 65, 45
3, 182100, Note_off_c, 1, 65, 64
3, 182100, Note_on_c, 1, 67, 45
3, 182220, Note_off_c, 1, 67, 64
3, 182220, Note_on_c, 1, 69, 45
3, 182340, Note_off_c, 1, 69, 64
3, 182340, Note_on_c, 1, 65, 45
3, 182460, Note_off_c, 1, 65, 64
3, 182460, Note_on_c, 1, 64, 45
3, 182580, Note_off_c, 1, 64, 64
3, 182580, Note_on_c, 1, 62, 45
3, 182695, Note_off_c, 1, 62, 64
3, 182700, Note_on_c, 1, 61, 45
3, 182820, Note_off_c, 1, 61, 64
3, 182820, Note_on_c, 1, 62, 45
3, 182940, Note_off_c, 1, 62, 64
3, 182940, Note_on_c, 1, 64, 45
3, 183060, Note_off_c, 1, 64, 64
3, 183060, Note_on_c, 1, 62, 45
3, 183180, Note_off_c, 1, 62, 64
3, 183180, Note_on_c, 1, 61, 45
3, 183300, Note_off_c, 1, 61, 64
3, 183300, Note_on_c, 1, 59, 45
3, 183420, Note_off_c, 1, 59, 64
3, 183420, Note_on_c, 1, 61, 45
3, 183540, Note_off_c, 1, 61, 64
3, 183540, Note_on_c, 1, 57, 45
3, 183660, Note_off_c, 1, 57, 64
3, 183660, Note_on_c, 1, 62, 45
3, 183780, Note_off_c, 1, 62, 64
3, 183780, Note_on_c, 1, 64, 45
3, 183900, Note_off_c, 1, 64, 64
3, 183900, Note_on_c, 1, 65, 45
3, 184020, Note_off_c, 1, 65, 64
3, 184020, Note_on_c, 1, 67, 45
3, 184140, Note_off_c, 1, 67, 64
3, 184140, Note_on_c, 1, 69, 45
3, 184260, Note_off_c, 1, 69, 64
3, 184260, Note_on_c, 1, 65, 45
3, 184380, Note_off_c, 1, 65, 64
3, 184380, Note_on_c, 1, 64, 45
3, 184500, Note_off_c, 1, 64, 64
3, 184500, Note_on_c, 1, 62, 45
3, 184615, Note_off_c, 1, 62, 64
3, 184620, Note_on_c, 1, 61, 45
3, 184740, Note_off_c, 1, 61, 64
3, 184740, Note_on_c, 1, 62, 45
3, 184860, Note_off_c, 1, 62, 64
3, 184860, Note_on_c, 1, 64, 45
3, 184980, Note_off_c, 1, 64, 64
3, 184980, Note_on_c, 1, 62, 45
3, 185100, Note_off_c, 1, 62, 64
3, 185100, Note_on_c, 1, 61, 45
3, 185220, Note_off_c, 1, 61, 64
3, 185220, Note_on_c, 1, 62, 45
3, 185340, Note_off_c, 1, 62, 64
3, 185340, Note_on_c, 1, 64, 45
3, 185460, Note_off_c, 1, 64, 64
3, 185460, Note_on_c, 1, 62, 45
3, 185580, Note_off_c, 1, 62, 64
3, 185580, Note_on_c, 1, 61, 45
3, 185700, Note_off_c, 1, 61, 64
3, 185700, Note_on_c, 1, 62, 45
3, 185820, Note_off_c, 1, 62, 64
3, 185820, Note_on_c, 1, 64, 45
3, 185940, Note_off_c, 1, 64, 64
3, 185940, Note_on_c, 1, 62, 45
3, 186060, Note_off_c, 1, 62, 64
3, 186060, Note_on_c, 1, 61, 45
3, 186180, Note_off_c, 1, 61, 64
3, 186180, Note_on_c, 1, 62, 45
3, 186300, Note_off_c, 1, 62, 64
3, 186300, Note_on_c, 1, 64, 45
3, 186420, Note_off_c, 1, 64, 64
3, 186420, Note_on_c, 1, 61, 45
3, 186540, Note_off_c, 1, 61, 64
3, 186540, Note_on_c, 1, 62, 45
3, 187500, Note_off_c, 1, 62, 64
3, 187500, Note_on_c, 1, 68, 60
3, 188460, Note_off_c, 1, 68, 64
3, 188460, Note_on_c, 1, 69, 75
3, 188540, Note_off_c, 1, 69, 64
3, 188700, Note_on_c, 1, 69, 75
3, 188940, Note_off_c, 1, 69, 64
3, 188940, Note_on_c, 1, 71, 75
3, 189180, Note_off_c, 1, 71, 64
3, 189180, Note_on_c, 1, 69, 75
3, 189420, Note_off_c, 1, 69, 64
3, 189420, Note_on_c, 1, 67, 75
3, 189660, Note_off_c, 1, 67, 64
3, 189660, Note_on_c, 1, 66, 75
3, 189900, Note_off_c, 1, 66, 64
3, 189900, Note_on_c, 1, 67, 75
3, 190140, Note_off_c, 1, 67, 64
3, 190140, Note_on_c, 1, 64, 75
3, 190380, Note_off_c, 1, 64, 64
3, 190380, Note_on_c, 1, 66, 75
3, 190460, Note_off_c, 1, 66, 64
3, 190620, Note_on_c, 1, 66, 75
3, 190860, Note_off_c, 1, 66, 64
3, 190860, Note_on_c, 1, 67, 75
3, 191100, Note_off_c, 1, 67, 64
3, 191100, Note_on_c, 1, 66, 75
3, 191340, Note_off_c, 1, 66, 64
3, 191340, Note_on_c, 1, 64, 75
3, 191580, Note_off_c, 1, 64, 64
3, 191580, Note_on_c, 1, 62, 75
3, 191820, Note_off_c, 1, 62, 64
3, 191820, Note_on_c, 1, 64, 75
3, 192060, Note_off_c, 1, 64, 64
3, 192060, Note_on_c, 1, 61, 75
3, 192295, Note_off_c, 1, 61, 64
3, 192300, Note_on_c, 1, 66, 75
3, 192535, Note_off_c, 1, 66, 64
3, 192540, Note_on_c, 1, 66, 75
3, 192775, Note_off_c, 1, 66, 64
3, 192780, Note_on_c, 1, 66, 75
3, 193015, Note_off_c, 1, 66, 64
3, 193020, Note_on_c, 1, 66, 75
3, 193255, Note_off_c, 1, 66, 64
3, 193260, Note_on_c, 1, 66, 75
3, 193495, Note_off_c, 1, 66, 64
3, 193500, Note_on_c, 1, 66, 75
3, 193735, Note_off_c, 1, 66, 64
3, 193740, Note_on_c, 1, 66, 75
3, 193975, Note_off_c, 1, 66, 64
3, 193980, Note_on_c, 1, 66, 75
3, 194215, Note_off_c, 1, 66, 64
3, 194220, Note_on_c, 1, 69, 75
3, 194455, Note_off_c, 1, 69, 64
3, 194460, Note_on_c, 1, 69, 75
3, 194695, Note_off_c, 1, 69, 64
3, 194700, Note_on_c, 1, 69, 75
3, 194935, Note_off_c, 1, 69, 64
3, 194940, Note_on_c, 1, 69, 75
3, 195175, Note_off_c, 1, 69, 64
3, 195180, Note_on_c, 1, 66, 75
3, 195415, Note_off_c, 1, 66, 64
3, 195420, Note_on_c, 1, 66, 75
3, 195655, Note_off_c, 1, 66, 64
3, 195660, Note_on_c, 1, 66, 75
3, 195895, Note_off_c, 1, 66, 64
3, 195900, Note_on_c, 1, 66, 75
3, 196135, Note_off_c, 1, 66, 64
3, 196140, Note_on_c, 1, 64, 92
3, 196260, Note_off_c, 1, 64, 64
3, 196260, Note_on_c, 1, 66, 92
3, 196380, Note_off_c, 1, 66, 64
3, 196380, Note_on_c, 1, 67, 92
3, 196500, Note_off_c, 1, 67, 64
3, 196500, Note_on_c, 1, 66, 92
3, 196620, Note_off_c, 1, 66, 64
3, 196620, Note_on_c, 1, 64, 92
3, 196740, Note_off_c, 1, 64, 64
3, 196740, Note_on_c, 1, 66, 92
3, 196860, Note_off_c, 1, 66, 64
3, 196860, Note_on_c, 1, 67, 92
3, 196980, Note_off_c, 1, 67, 64
3, 196980, Note_on_c, 1, 66, 92
3, 197100, Note_off_c, 1, 66, 64
3, 197100, Note_on_c, 1, 64, 92
3, 197220, Note_off_c, 1, 64, 64
3, 197220, Note_on_c, 1, 66, 92
3, 197340, Note_off_c, 1, 66, 64
3, 197340, Note_on_c, 1, 67, 92
3, 197460, Note_off_c, 1, 67, 64
3, 197460, Note_on_c, 1, 66, 92
3, 197580, Note_off_c, 1, 66, 64
3, 197580, Note_on_c, 1, 64, 92
3, 197700, Note_off_c, 1, 64, 64
3, 197700, Note_on_c, 1, 66, 92
3, 197820, Note_off_c, 1, 66, 64
3, 197820, Note_on_c, 1, 67, 92
3, 197940, Note_off_c, 1, 67, 64
3, 197940, Note_on_c, 1, 64, 92
3, 198060, Note_off_c, 1, 64, 64
3, 198060, Note_on_c, 1, 66, 92
3, 198655, Note_off_c, 1, 66, 64
3, 199260, Note_on_c, 1, 62, 92
3, 199500, Note_off_c, 1, 62, 64
3, 199500, Note_on_c, 1, 66, 92
3, 199740, Note_off_c, 1, 66, 64
3, 199740, Note_on_c, 1, 69, 92
3, 199975, Note_off_c, 1, 69, 64
3, 199980, Note_on_c, 1, 61, 92
3, 200100, Note_off_c, 1, 61, 64
3, 200100, Note_on_c, 1, 62, 92
3, 200220, Note_off_c, 1, 62, 64
3, 200220, Note_on_c, 1, 64, 92
3, 200340, Note_off_c, 1, 64, 64
3, 200340, Note_on_c, 1, 62, 92
3, 200460, Note_off_c, 1, 62, 64
3, 200460, Note_on_c, 1, 61, 92
3, 200580, Note_off_c, 1, 61, 64
3, 200580, Note_on_c, 1, 62, 92
3, 200700, Note_off_c, 1, 62, 64
3, 200700, Note_on_c, 1, 64, 92
3, 200820, Note_off_c, 1, 64, 64
3, 200820, Note_on_c, 1, 62, 92
3, 200940, Note_off_c, 1, 62, 64
3, 200940, Note_on_c, 1, 61, 92
3, 201060, Note_off_c, 1, 61, 64
3, 201060, Note_on_c, 1, 62, 92
3, 201180, Note_off_c, 1, 62, 64
3, 201180, Note_on_c, 1, 64, 92
3, 201300, Note_off_c, 1, 64, 64
3, 201300, Note_on_c, 1, 62, 92
3, 201420, Note_off_c, 1, 62, 64
3, 201420, Note_on_c, 1, 61, 92
3, 201540, Note_off_c, 1, 61, 64
3, 201540, Note_on_c, 1, 62, 92
3, 201660, Note_off_c, 1, 62, 64
3, 201660, Note_on_c, 1, 64, 92
3, 201780, Note_off_c, 1, 64, 64
3, 201780, Note_on_c, 1, 61, 92
3, 201900, Note_off_c, 1, 61, 64
3, 201900, Note_on_c, 1, 62, 75
3, 202135, Note_off_c, 1, 62, 64
3, 202140, Note_on_c, 1, 69, 75
3, 202540, Note_off_c, 1, 69, 64
3, 202620, Note_on_c, 1, 69, 75
3, 203020, Note_off_c, 1, 69, 64
3, 203100, Note_on_c, 1, 69, 75
3, 203500, Note_off_c, 1, 69, 64
3, 203580, Note_on_c, 1, 69, 75
3, 203815, Note_off_c, 1, 69, 64
3, 203820, Note_on_c, 1, 69, 75
3, 204055, Note_off_c, 1, 69, 64
3, 204060, Note_on_c, 1, 69, 75
3, 204295, Note_off_c, 1, 69, 64
3, 204300, Note_on_c, 1, 69, 75
3, 204535, Note_off_c, 1, 69, 64
3, 204540, Note_on_c, 1, 69, 75
3, 204775, Note_off_c, 1, 69, 64
3, 204780, Note_on_c, 1, 74, 75
3, 205015, Note_off_c, 1, 74, 64
3, 205020, Note_on_c, 1, 74, 75
3, 205255, Note_off_c, 1, 74, 64
3, 205260, Note_on_c, 1, 74, 75
3, 205495, Note_off_c, 1, 74, 64
3, 205500, Note_on_c, 1, 74, 75
3, 205735, Note_off_c, 1, 74, 64
3, 205740, Note_on_c, 1, 74, 75
3, 205975, Note_off_c, 1, 74, 64
3, 205980, Note_on_c, 1, 71, 75
3, 206380, Note_off_c, 1, 71, 64
3, 206460, Note_on_c, 1, 71, 75
3, 206860, Note_off_c, 1, 71, 64
3, 206940, Note_on_c, 1, 71, 92
3, 207180, Note_off_c, 1, 71, 64
3, 207180, Note_on_c, 1, 76, 92
3, 207420, Note_off_c, 1, 76, 64
3, 207420, Note_on_c, 1, 79, 92
3, 207655, Note_off_c, 1, 79, 64
3, 207660, Note_on_c, 1, 77, 92
3, 207780, Note_off_c, 1, 77, 64
3, 207780, Note_on_c, 1, 78, 92
3, 208540, Note_off_c, 1, 78, 64
3, 208620, Note_on_c, 1, 77, 92
3, 208740, Note_off_c, 1, 77, 64
3, 208740, Note_on_c, 1, 78, 92
3, 209095, Note_off_c, 1, 78, 64
3, 209100, Note_on_c, 1, 77, 92
3, 209220, Note_off_c, 1, 77, 64
3, 209220, Note_on_c, 1, 78, 92
3, 209575, Note_off_c, 1, 78, 64
3, 209580, Note_on_c, 1, 75, 92
3, 209700, Note_off_c, 1, 75, 64
3, 209700, Note_on_c, 1, 76, 92
3, 209815, Note_off_c, 1, 76, 64
3, 210000, Note_on_c, 1, 75, 92
3, 210120, Note_off_c, 1, 75, 64
3, 210120, Note_on_c, 1, 76, 92
3, 210655, Note_off_c, 1, 76, 64
3, 210780, Note_on_c, 1, 75, 92
3, 210900, Note_off_c, 1, 75, 64
3, 210900, Note_on_c, 1, 76, 92
3, 211015, Note_off_c, 1, 76, 64
3, 211020, Note_on_c, 1, 78, 92
3, 211100, Note_off_c, 1, 78, 64
3, 211140, Note_on_c, 1, 76, 92
3, 211220, Note_off_c, 1, 76, 64
3, 211260, Note_on_c, 1, 75, 92
3, 211340, Note_off_c, 1, 75, 64
3, 211380, Note_on_c, 1, 73, 92
3, 211460, Note_off_c, 1, 73, 64
3, 211500, Note_on_c, 1, 74, 75
3, 211900, Note_off_c, 1, 74, 64
3, 212220, Note_on_c, 1, 73, 75
3, 212455, Note_off_c, 1, 73, 64
3, 212460, Note_on_c, 1, 74, 75
3, 212860, Note_off_c, 1, 74, 64
3, 213180, Note_on_c, 1, 67, 75
3, 213415, Note_off_c, 1, 67, 64
3, 213420, Note_on_c, 1, 66, 75
3, 213820, Note_off_c, 1, 66, 64
3, 214140, Note_on_c, 1, 73, 75
3, 214375, Note_off_c, 1, 73, 64
3, 214380, Note_on_c, 1, 74, 75
3, 214780, Note_off_c, 1, 74, 64
3, 215340, Note_on_c, 1, 86, 92
3, 216660, Note_off_c, 1, 86, 64
3, 216780, Note_on_c, 1, 81, 92
3, 217135, Note_off_c, 1, 81, 64
3, 217140, Note_on_c, 1, 78, 92
3, 217255, Note_off_c, 1, 78, 64
3, 217260, Note_on_c, 1, 74, 92
3, 217660, Note_off_c, 1, 74, 64
3, 217740, Note_on_c, 1, 69, 92
3, 218095, Note_off_c, 1, 69, 64
3, 218100, Note_on_c, 1, 66, 92
3, 218215, Note_off_c, 1, 66, 64
3, 218220, Note_on_c, 1, 62, 92
3, 218455, Note_off_c, 1, 62, 64
3, 218460, Note_on_c, 1, 86, 92
3, 218540, Note_off_c, 1, 86, 64
3, 218700, Note_on_c, 1, 86, 92
3, 218780, Note_off_c, 1, 86, 64
3, 218940, Note_on_c, 1, 86, 92
3, 219020, Note_off_c, 1, 86, 64
3, 219180, Note_on_c, 1, 88, 92
3, 219210, Note_off_c, 1, 88, 64
3, 219210, Note_on_c, 1, 86, 92
3, 219240, Note_off_c, 1, 86, 64
3, 219240, Note_on_c, 1, 88, 92
3, 219270, Note_off_c, 1, 88, 64
3, 219270, Note_on_c, 1, 86, 92
3, 219300, Note_off_c, 1, 86, 64
3, 219300, Note_on_c, 1, 88, 92
3, 219330, Note_off_c, 1, 88, 64
3, 219330, Note_on_c, 1, 86, 92
3, 219360, Note_off_c, 1, 86, 64
3, 219360, Note_on_c, 1, 88, 92
3, 219390, Note_off_c, 1, 88, 64
3, 219390, Note_on_c, 1, 86, 92
3, 219420, Note_off_c, 1, 86, 64
3, 219420, Note_on_c, 1, 84, 92
3, 219655, Note_off_c, 1, 84, 64
3, 219660, Note_on_c, 1, 84, 92
3, 220060, Note_off_c, 1, 84, 64
3, 222300, Note_on_c, 1, 78, 92
3, 222420, Note_off_c, 1, 78, 64
3, 222420, Note_on_c, 1, 79, 92
3, 222540, Note_off_c, 1, 79, 64
3, 222540, Note_on_c, 1, 81, 92
3, 222620, Note_off_c, 1, 81, 64
3, 222780, Note_on_c, 1, 81, 92
3, 222860, Note_off_c, 1, 81, 64
3, 223020, Note_on_c, 1, 79, 75
3, 223420, Note_off_c, 1, 79, 64
3, 223500, Note_on_c, 1, 67, 75
3, 223980, Note_off_c, 1, 67, 64
3, 223980, Note_on_c, 1, 66, 75
3, 224380, Note_off_c, 1, 66, 64
3, 224460, Note_on_c, 1, 78, 75
3, 224940, Note_off_c, 1, 78, 64
3, 224940, Note_on_c, 1, 79, 75
3, 225340, Note_off_c, 1, 79, 64
3, 225420, Note_on_c, 1, 72, 75
3, 225900, Note_off_c, 1, 72, 64
3, 225900, Note_on_c, 1, 71, 75
3, 226300, Note_off_c, 1, 71, 64
3, 226380, Note_on_c, 1, 59, 75
3, 226860, Note_off_c, 1, 59, 64
3, 226860, Note_on_c, 1, 57, 92
3, 226975, Note_off_c, 1, 57, 64
3, 226980, Note_on_c, 1, 69, 92
3, 227060, Note_off_c, 1, 69, 64
3, 227100, Note_on_c, 1, 73, 92
3, 227180, Note_off_c, 1, 73, 64
3, 227220, Note_on_c, 1, 76, 92
3, 227300, Note_off_c, 1, 76, 64
3, 227340, Note_on_c, 1, 81, 92
3, 227420, Note_off_c, 1, 81, 64
3, 227460, Note_on_c, 1, 80, 92
3, 227540, Note_off_c, 1, 80, 64
3, 227580, Note_on_c, 1, 78, 92
3, 227660, Note_off_c, 1, 78, 64
3, 227700, Note_on_c, 1, 76, 92
3, 227780, Note_off_c, 1, 76, 64
3, 227820, Note_on_c, 1, 74, 92
3, 227900, Note_off_c, 1, 74, 64
3, 227940, Note_on_c, 1, 73, 92
3, 228020, Note_off_c, 1, 73, 64
3, 228060, Note_on_c, 1, 71, 92
3, 228140, Note_off_c, 1, 71, 64
3, 228180, Note_on_c, 1, 69, 92
3, 228260, Note_off_c, 1, 69, 64
3, 228300, Note_on_c, 1, 68, 92
3, 228380, Note_off_c, 1, 68, 64
3, 228420, Note_on_c, 1, 71, 92
3, 228500, Note_off_c, 1, 71, 64
3, 228540, Note_on_c, 1, 76, 92
3, 228620, Note_off_c, 1, 76, 64
3, 228660, Note_on_c, 1, 74, 92
3, 228740, Note_off_c, 1, 74, 64
3, 228780, Note_on_c, 1, 73, 92
3, 228860, Note_off_c, 1, 73, 64
3, 228900, Note_on_c, 1, 71, 92
3, 228980, Note_off_c, 1, 71, 64
3, 229020, Note_on_c, 1, 69, 92
3, 229100, Note_off_c, 1, 69, 64
3, 229140, Note_on_c, 1, 71, 92
3, 229220, Note_off_c, 1, 71, 64
3, 229260, Note_on_c, 1, 73, 92
3, 229340, Note_off_c, 1, 73, 64
3, 229380, Note_on_c, 1, 74, 92
3, 229460, Note_off_c, 1, 74, 64
3, 229500, Note_on_c, 1, 76, 92
3, 229580, Note_off_c, 1, 76, 64
3, 229620, Note_on_c, 1, 78, 92
3, 229700, Note_off_c, 1, 78, 64
3, 229740, Note_on_c, 1, 79, 92
3, 229820, Note_off_c, 1, 79, 64
3, 229860, Note_on_c, 1, 78, 92
3, 229940, Note_off_c, 1, 78, 64
3, 229980, Note_on_c, 1, 76, 92
3, 230060, Note_off_c, 1, 76, 64
3, 230100, Note_on_c, 1, 74, 92
3, 230180, Note_off_c, 1, 74, 64
3, 230220, Note_on_c, 1, 73, 92
3, 230300, Note_off_c, 1, 73, 64
3, 230340, Note_on_c, 1, 71, 92
3, 230420, Note_off_c, 1, 71, 64
3, 230460, Note_on_c, 1, 69, 92
3, 230540, Note_off_c, 1, 69, 64
3, 230580, Note_on_c, 1, 67, 92
3, 230660, Note_off_c, 1, 67, 64
3, 230700, Note_on_c, 1, 66, 92
3, 231100, Note_off_c, 1, 66, 64
3, 231180, Note_on_c, 1, 81, 60
3, 234775, Note_off_c, 1, 81, 64
3, 234780, Note_on_c, 1, 74, 92
3, 234860, Note_off_c, 1, 74, 64
3, 235020, Note_on_c, 1, 62, 92
3, 235100, Note_off_c, 1, 62, 64
3, 235260, Note_on_c, 1, 64, 92
3, 235285, Note_off_c, 1, 64, 64
3, 235290, Note_on_c, 1, 66, 92
3, 235315, Note_off_c, 1, 66, 64
3, 235320, Note_on_c, 1, 64, 92
3, 235350, Note_off_c, 1, 64, 64
3, 235350, Note_on_c, 1, 66, 92
3, 235380, Note_off_c, 1, 66, 64
3, 235380, Note_on_c, 1, 64, 92
3, 235410, Note_off_c, 1, 64, 64
3, 235410, Note_on_c, 1, 66, 92
3, 235440, Note_off_c, 1, 66, 64
3, 235440, Note_on_c, 1, 64, 92
3, 235465, Note_off_c, 1, 64, 64
3, 235470, Note_on_c, 1, 66, 92
3, 235495, Note_off_c, 1, 66, 64
3, 235500, Note_on_c, 1, 66, 92
3, 235580, Note_off_c, 1, 66, 64
3, 235740, Note_on_c, 1, 74, 92
3, 235820, Note_off_c, 1, 74, 64
3, 235980, Note_on_c, 1, 66, 92
3, 236060, Note_off_c, 1, 66, 64
3, 236220, Note_on_c, 1, 67, 92
3, 236250, Note_off_c, 1, 67, 64
3, 236250, Note_on_c, 1, 69, 92
3, 236280, Note_off_c, 1, 69, 64
3, 236280, Note_on_c, 1, 67, 92
3, 236310, Note_off_c, 1, 67, 64
3, 236310, Note_on_c, 1, 69, 92
3, 236340, Note_off_c, 1, 69, 64
3, 236340, Note_on_c, 1, 67, 92
3, 236370, Note_off_c, 1, 67, 64
3, 236370, Note_on_c, 1, 69, 92
3, 236400, Note_off_c, 1, 69, 64
3, 236400, Note_on_c, 1, 67, 92
3, 236430, Note_off_c, 1, 67, 64
3, 236430, Note_on_c, 1, 69, 92
3, 236460, Note_off_c, 1, 69, 64
3, 236460, Note_on_c, 1, 69, 92
3, 236540, Note_off_c, 1, 69, 64
3, 236700, Note_on_c, 1, 66, 92
3, 237180, Note_off_c, 1, 66, 64
3, 237180, Note_on_c, 1, 67, 92
3, 237415, Note_off_c, 1, 67, 64
3, 237420, Note_on_c, 1, 69, 92
3, 237500, Note_off_c, 1, 69, 64
3, 237660, Note_on_c, 1, 69, 92
3, 237900, Note_off_c, 1, 69, 64
3, 237900, Note_on_c, 1, 66, 92
3, 238140, Note_off_c, 1, 66, 64
3, 238140, Note_on_c, 1, 64, 92
3, 238380, Note_off_c, 1, 64, 64
3, 238380, Note_on_c, 1, 62, 92
3, 238615, Note_off_c, 1, 62, 64
3, 238620, Note_on_c, 1, 69, 92
3, 239020, Note_off_c, 1, 69, 64
3, 239100, Note_on_c, 1, 69, 92
3, 239500, Note_off_c, 1, 69, 64
3, 239580, Note_on_c, 1, 74, 92
3, 239980, Note_off_c, 1, 74, 64
3, 240060, Note_on_c, 1, 74, 92
3, 240380, Note_off_c, 1, 74, 64
3, 240540, Note_on_c, 1, 74, 92
3, 240620, Note_off_c, 1, 74, 64
3, 240780, Note_on_c, 1, 74, 92
3, 240860, Note_off_c, 1, 74, 64
3, 241020, Note_on_c, 1, 74, 92
3, 241100, Note_off_c, 1, 74, 64
3, 241260, Note_on_c, 1, 62, 92
3, 241340, Note_off_c, 1, 62, 64
3, 241500, Note_on_c, 1, 62, 92
3, 241580, Note_off_c, 1, 62, 64
3, 241740, Note_on_c, 1, 62, 92
3, 241820, Note_off_c, 1, 62, 64
3, 241980, Note_on_c, 1, 62, 92
3, 242060, Note_off_c, 1, 62, 64
3, 242220, Note_on_c, 1, 60, 92
3, 242300, Note_off_c, 1, 60, 64
3, 242460, Note_on_c, 1, 60, 89
3, 242540, Note_off_c, 1, 60, 64
3, 242700, Note_on_c, 1, 60, 86
3, 242780, Note_off_c, 1, 60, 64
3, 242940, Note_on_c, 1, 60, 82
3, 243020, Note_off_c, 1, 60, 64
3, 243180, Note_on_c, 1, 60, 78
3, 243260, Note_off_c, 1, 60, 64
3, 243420, Note_on_c, 1, 60, 74
3, 243500, Note_off_c, 1, 60, 64
3, 243660, Note_on_c, 1, 60, 70
3, 243740, Note_off_c, 1, 60, 64
3, 243900, Note_on_c, 1, 60, 66
3, 243980, Note_off_c, 1, 60, 64
3, 244140, Note_on_c, 1, 59, 62
3, 244220, Note_off_c, 1, 59, 64
3, 244380, Note_on_c, 1, 59, 58
3, 244460, Note_off_c, 1, 59, 64
3, 244620, Note_on_c, 1, 59, 54
3, 244700, Note_off_c, 1, 59, 64
3, 244860, Note_on_c, 1, 59, 50
3, 244940, Note_off_c, 1, 59, 64
3, 245100, Note_on_c, 1, 64, 46
3, 245180, Note_off_c, 1, 64, 64
3, 245340, Note_on_c, 1, 64, 42
3, 245420, Note_off_c, 1, 64, 64
3, 245580, Note_on_c, 1, 64, 38
3, 245660, Note_off_c, 1, 64, 64
3, 245820, Note_on_c, 1, 64, 34
3, 245900, Note_off_c, 1, 64, 64
3, 246060, Note_on_c, 1, 62, 30
3, 246300, Note_off_c, 1, 62, 64
3, 246300, Note_on_c, 1, 69, 30
3, 246380, Note_off_c, 1, 69, 64
3, 246540, Note_on_c, 1, 69, 30
3, 246620, Note_off_c, 1, 69, 64
3, 246780, Note_on_c, 1, 69, 30
3, 246860, Note_off_c, 1, 69, 64
3, 247020, Note_on_c, 1, 69, 30
3, 247420, Note_off_c, 1, 69, 64
3, 247980, Note_on_c, 1, 62, 30
3, 248220, Note_off_c, 1, 62, 64
3, 248220, Note_on_c, 1, 71, 30
3, 248300, Note_off_c, 1, 71, 64
3, 248460, Note_on_c, 1, 71, 34
3, 248540, Note_off_c, 1, 71, 64
3, 248700, Note_on_c, 1, 71, 38
3, 248780, Note_off_c, 1, 71, 64
3, 248940, Note_on_c, 1, 71, 42
3, 249340, Note_off_c, 1, 71, 64
3, 249900, Note_on_c, 1, 66, 60
3, 250140, Note_off_c, 1, 66, 64
3, 250140, Note_on_c, 1, 74, 60
3, 250220, Note_off_c, 1, 74, 64
3, 250380, Note_on_c, 1, 74, 62
3, 250460, Note_off_c, 1, 74, 64
3, 250620, Note_on_c, 1, 74, 64
3, 250700, Note_off_c, 1, 74, 64
3, 250860, Note_on_c, 1, 74, 66
3, 251260, Note_off_c, 1, 74, 64
3, 251820, Note_on_c, 1, 71, 75
3, 252220, Note_off_c, 1, 71, 64
3, 253980, Note_on_c, 1, 62, 92
3, 254380, Note_off_c, 1, 62, 64
3, 254460, Note_on_c, 1, 62, 92
3, 254860, Note_off_c, 1, 62, 64
3, 254940, Note_on_c, 1, 62, 92
3, 255340, Note_off_c, 1, 62, 64
3, 255420, Note_on_c, 1, 62, 92
3, 255895, Note_off_c, 1, 62, 64
3, 255900, Note_on_c, 1, 71, 92
3, 256135, Note_off_c, 1, 71, 64
3, 256140, Note_on_c, 1, 71, 92
3, 256375, Note_off_c, 1, 71, 64
3, 256380, Note_on_c, 1, 71, 92
3, 256615, Note_off_c, 1, 71, 64
3, 256620, Note_on_c, 1, 71, 92
3, 256860, Note_off_c, 1, 71, 64
3, 256860, Note_on_c, 1, 74, 92
3, 257095, Note_off_c, 1, 74, 64
3, 257100, Note_on_c, 1, 81, 92
3, 257220, Note_off_c, 1, 81, 64
3, 257220, Note_on_c, 1, 79, 92
3, 257335, Note_off_c, 1, 79, 64
3, 257340, Note_on_c, 1, 78, 92
3, 257420, Note_off_c, 1, 78, 64
3, 257460, Note_on_c, 1, 76, 92
3, 257540, Note_off_c, 1, 76, 64
3, 257580, Note_on_c, 1, 74, 92
3, 257980, Note_off_c, 1, 74, 64
3, 258060, Note_on_c, 1, 74, 92
3, 258900, Note_off_c, 1, 74, 64
3, 259020, Note_on_c, 1, 73, 92
3, 259050, Note_off_c, 1, 73, 64
3, 259050, Note_on_c, 1, 74, 92
3, 259080, Note_off_c, 1, 74, 64
3, 259080, Note_on_c, 1, 73, 92
3, 259110, Note_off_c, 1, 73, 64
3, 259110, Note_on_c, 1, 74, 92
3, 259140, Note_off_c, 1, 74, 64
3, 259140, Note_on_c, 1, 73, 92
3, 259170, Note_off_c, 1, 73, 64
3, 259170, Note_on_c, 1, 74, 92
3, 259200, Note_off_c, 1, 74, 64
3, 259200, Note_on_c, 1, 73, 92
3, 259230, Note_off_c, 1, 73, 64
3, 259230, Note_on_c, 1, 74, 92
3, 259260, Note_off_c, 1, 74, 64
3, 259260, Note_on_c, 1, 73, 92
3, 259290, Note_off_c, 1, 73, 64
3, 259290, Note_on_c, 1, 74, 92
3, 259320, Note_off_c, 1, 74, 64
3, 259320, Note_on_c, 1, 73, 92
3, 259350, Note_off_c, 1, 73, 64
3, 259350, Note_on_c, 1, 74, 92
3, 259380, Note_off_c, 1, 74, 64
3, 259380, Note_on_c, 1, 73, 92
3, 259410, Note_off_c, 1, 73, 64
3, 259410, Note_on_c, 1, 74, 92
3, 259440, Note_off_c, 1, 74, 64
3, 259440, Note_on_c, 1, 73, 92
3, 259470, Note_off_c, 1, 73, 64
3, 259470, Note_on_c, 1, 74, 92
3, 259500, Note_off_c, 1, 74, 64
3, 259500, Note_on_c, 1, 74, 92
3, 259580, Note_off_c, 1, 74, 64
3, 259740, Note_on_c, 1, 69, 92
3, 259860, Note_off_c, 1, 69, 64
3, 259860, Note_on_c, 1, 72, 92
3, 259980, Note_off_c, 1, 72, 64
3, 259980, Note_on_c, 1, 71, 92
3, 260100, Note_off_c, 1, 71, 64
3, 260100, Note_on_c, 1, 74, 92
3, 260220, Note_off_c, 1, 74, 64
3, 260220, Note_on_c, 1, 73, 92
3, 260340, Note_off_c, 1, 73, 64
3, 260340, Note_on_c, 1, 76, 92
3, 260460, Note_off_c, 1, 76, 64
3, 260460, Note_on_c, 1, 74, 92
3, 260860, Note_off_c, 1, 74, 64
3, 261420, Note_on_c, 1, 74, 92
3, 261500, Note_off_c, 1, 74, 64
3, 261660, Note_on_c, 1, 69, 87
3, 261780, Note_off_c, 1, 69, 64
3, 261780, Note_on_c, 1, 72, 84
3, 261900, Note_off_c, 1, 72, 64
3, 261900, Note_on_c, 1, 71, 81
3, 262020, Note_off_c, 1, 71, 64
3, 262020, Note_on_c, 1, 74, 78
3, 262140, Note_off_c, 1, 74, 64
3, 262140, Note_on_c, 1, 73, 75
3, 262260, Note_off_c, 1, 73, 64
3, 262260, Note_on_c, 1, 76, 72
3, 262380, Note_off_c, 1, 76, 64
3, 262380, Note_on_c, 1, 74, 69
3, 262780, Note_off_c, 1, 74, 64
3, 263340, Note_on_c, 1, 74, 45
3, 263420, Note_off_c, 1, 74, 64
3, 263580, Note_on_c, 1, 74, 45
3, 263700, Note_off_c, 1, 74, 64
3, 263700, Note_on_c, 1, 76, 43
3, 263820, Note_off_c, 1, 76, 64
3, 263820, Note_on_c, 1, 74, 41
3, 263940, Note_off_c, 1, 74, 64
3, 263940, Note_on_c, 1, 76, 39
3, 264060, Note_off_c, 1, 76, 64
3, 264060, Note_on_c, 1, 74, 36
3, 264180, Note_off_c, 1, 74, 64
3, 264180, Note_on_c, 1, 76, 33
3, 264300, Note_off_c, 1, 76, 64
3, 264300, Note_on_c, 1, 74, 30
3, 264700, Note_off_c, 1, 74, 64
3, 264700, End_track
4, 0, Start_track
4, 0, Title_t, "Mozart arr : Pollen (2000)"
4, 0, MIDI_port, 0
4, 0, Channel_prefix, 2
4, 0, Control_c, 2, 7, 127
4, 0, Control_c, 2, 10, 69
4, 0, Control_c, 2, 91, 63
4, 0, Program_c, 2, 50
4, 0, Note_on_c, 2, 62, 75
4, 235, Note_off_c, 2, 62, 64
4, 240, Note_on_c, 2, 62, 75
4, 475, Note_off_c, 2, 62, 64
4, 480, Note_on_c, 2, 62, 75
4, 715, Note_off_c, 2, 62, 64
4, 720, Note_on_c, 2, 62, 75
4, 955, Note_off_c, 2, 62, 64
4, 960, Note_on_c, 2, 62, 75
4, 1195, Note_off_c, 2, 62, 64
4, 1200, Note_on_c, 2, 62, 75
4, 1435, Note_off_c, 2, 62, 64
4, 1440, Note_on_c, 2, 62, 75
4, 1675, Note_off_c, 2, 62, 64
4, 1680, Note_on_c, 2, 62, 75
4, 1915, Note_off_c, 2, 62, 64
4, 1920, Note_on_c, 2, 62, 75
4, 2155, Note_off_c, 2, 62, 64
4, 2160, Note_on_c, 2, 62, 75
4, 2395, Note_off_c, 2, 62, 64
4, 2400, Note_on_c, 2, 62, 75
4, 2635, Note_off_c, 2, 62, 64
4, 2640, Note_on_c, 2, 62, 75
4, 2875, Note_off_c, 2, 62, 64
4, 2880, Note_on_c, 2, 57, 75
4, 3115, Note_off_c, 2, 57, 64
4, 3120, Note_on_c, 2, 57, 75
4, 3355, Note_off_c, 2, 57, 64
4, 3360, Note_on_c, 2, 57, 75
4, 3595, Note_off_c, 2, 57, 64
4, 3600, Note_on_c, 2, 57, 75
4, 3835, Note_off_c, 2, 57, 64
4, 3840, Note_on_c, 2, 57, 75
4, 5995, Note_off_c, 2, 57, 64
4, 6000, Note_on_c, 2, 66, 92
4, 6240, Note_off_c, 2, 66, 64
4, 6240, Note_on_c, 2, 69, 92
4, 6480, Note_off_c, 2, 69, 64
4, 6480, Note_on_c, 2, 66, 92
4, 6720, Note_off_c, 2, 66, 64
4, 6720, Note_on_c, 2, 62, 92
4, 6800, Note_off_c, 2, 62, 64
4, 6960, Note_on_c, 2, 57, 92
4, 7200, Note_off_c, 2, 57, 64
4, 7200, Note_on_c, 2, 62, 92
4, 7440, Note_off_c, 2, 62, 64
4, 7440, Note_on_c, 2, 66, 92
4, 7675, Note_off_c, 2, 66, 64
4, 7680, Note_on_c, 2, 57, 75
4, 9680, Note_off_c, 2, 57, 64
4, 9840, Note_on_c, 2, 62, 75
4, 10240, Note_off_c, 2, 62, 64
4, 10320, Note_on_c, 2, 66, 75
4, 10720, Note_off_c, 2, 66, 64
4, 10800, Note_on_c, 2, 66, 75
4, 11040, Note_off_c, 2, 66, 64
4, 11040, Note_on_c, 2, 64, 75
4, 11280, Note_off_c, 2, 64, 64
4, 11280, Note_on_c, 2, 67, 75
4, 11515, Note_off_c, 2, 67, 64
4, 11520, Note_on_c, 2, 66, 75
4, 11755, Note_off_c, 2, 66, 64
4, 11760, Note_on_c, 2, 66, 75
4, 11995, Note_off_c, 2, 66, 64
4, 12000, Note_on_c, 2, 66, 75
4, 12235, Note_off_c, 2, 66, 64
4, 12240, Note_on_c, 2, 66, 75
4, 12475, Note_off_c, 2, 66, 64
4, 12480, Note_on_c, 2, 69, 75
4, 12715, Note_off_c, 2, 69, 64
4, 12720, Note_on_c, 2, 69, 75
4, 12955, Note_off_c, 2, 69, 64
4, 12960, Note_on_c, 2, 69, 75
4, 13195, Note_off_c, 2, 69, 64
4, 13200, Note_on_c, 2, 69, 75
4, 13435, Note_off_c, 2, 69, 64
4, 13440, Note_on_c, 2, 67, 75
4, 13675, Note_off_c, 2, 67, 64
4, 13680, Note_on_c, 2, 67, 75
4, 13915, Note_off_c, 2, 67, 64
4, 13920, Note_on_c, 2, 67, 75
4, 14155, Note_off_c, 2, 67, 64
4, 14160, Note_on_c, 2, 67, 75
4, 14395, Note_off_c, 2, 67, 64
4, 14400, Note_on_c, 2, 67, 75
4, 14635, Note_off_c, 2, 67, 64
4, 14640, Note_on_c, 2, 67, 75
4, 14880, Note_off_c, 2, 67, 64
4, 14880, Note_on_c, 2, 71, 75
4, 15120, Note_off_c, 2, 71, 64
4, 15120, Note_on_c, 2, 64, 75
4, 15355, Note_off_c, 2, 64, 64
4, 15360, Note_on_c, 2, 69, 75
4, 15595, Note_off_c, 2, 69, 64
4, 15600, Note_on_c, 2, 57, 75
4, 15835, Note_off_c, 2, 57, 64
4, 15840, Note_on_c, 2, 57, 75
4, 16075, Note_off_c, 2, 57, 64
4, 16080, Note_on_c, 2, 57, 75
4, 16315, Note_off_c, 2, 57, 64
4, 16320, Note_on_c, 2, 57, 75
4, 16555, Note_off_c, 2, 57, 64
4, 16560, Note_on_c, 2, 57, 75
4, 16795, Note_off_c, 2, 57, 64
4, 16800, Note_on_c, 2, 57, 75
4, 17035, Note_off_c, 2, 57, 64
4, 17040, Note_on_c, 2, 57, 75
4, 17275, Note_off_c, 2, 57, 64
4, 17280, Note_on_c, 2, 57, 75
4, 17515, Note_off_c, 2, 57, 64
4, 17520, Note_on_c, 2, 57, 75
4, 17755, Note_off_c, 2, 57, 64
4, 17760, Note_on_c, 2, 57, 75
4, 17995, Note_off_c, 2, 57, 64
4, 18000, Note_on_c, 2, 57, 75
4, 18235, Note_off_c, 2, 57, 64
4, 18240, Note_on_c, 2, 57, 75
4, 18475, Note_off_c, 2, 57, 64
4, 18480, Note_on_c, 2, 57, 75
4, 18715, Note_off_c, 2, 57, 64
4, 18720, Note_on_c, 2, 57, 75
4, 18955, Note_off_c, 2, 57, 64
4, 18960, Note_on_c, 2, 57, 75
4, 19195, Note_off_c, 2, 57, 64
4, 19200, Note_on_c, 2, 57, 75
4, 19600, Note_off_c, 2, 57, 64
4, 19920, Note_on_c, 2, 69, 75
4, 20155, Note_off_c, 2, 69, 64
4, 20160, Note_on_c, 2, 69, 75
4, 20560, Note_off_c, 2, 69, 64
4, 20880, Note_on_c, 2, 64, 75
4, 21115, Note_off_c, 2, 64, 64
4, 21120, Note_on_c, 2, 62, 75
4, 21520, Note_off_c, 2, 62, 64
4, 21840, Note_on_c, 2, 69, 75
4, 22075, Note_off_c, 2, 69, 64
4, 22080, Note_on_c, 2, 69, 75
4, 22480, Note_off_c, 2, 69, 64
4, 22800, Note_on_c, 2, 67, 75
4, 23035, Note_off_c, 2, 67, 64
4, 23040, Note_on_c, 2, 66, 75
4, 23120, Note_off_c, 2, 66, 64
4, 23280, Note_on_c, 2, 66, 75
4, 23360, Note_off_c, 2, 66, 64
4, 23520, Note_on_c, 2, 66, 75
4, 23600, Note_off_c, 2, 66, 64
4, 23760, Note_on_c, 2, 66, 75
4, 23840, Note_off_c, 2, 66, 64
4, 24000, Note_on_c, 2, 66, 75
4, 24080, Note_off_c, 2, 66, 64
4, 24240, Note_on_c, 2, 66, 75
4, 24320, Note_off_c, 2, 66, 64
4, 24480, Note_on_c, 2, 66, 75
4, 24560, Note_off_c, 2, 66, 64
4, 24720, Note_on_c, 2, 66, 75
4, 24800, Note_off_c, 2, 66, 64
4, 24960, Note_on_c, 2, 57, 75
4, 24960, Note_on_c, 2, 66, 75
4, 25040, Note_off_c, 2, 66, 64
4, 25040, Note_off_c, 2, 57, 64
4, 25200, Note_on_c, 2, 57, 75
4, 25200, Note_on_c, 2, 66, 75
4, 25280, Note_off_c, 2, 66, 64
4, 25280, Note_off_c, 2, 57, 64
4, 25440, Note_on_c, 2, 57, 75
4, 25440, Note_on_c, 2, 66, 75
4, 25520, Note_off_c, 2, 66, 64
4, 25520, Note_off_c, 2, 57, 64
4, 25680, Note_on_c, 2, 57, 75
4, 25680, Note_on_c, 2, 66, 75
4, 25760, Note_off_c, 2, 66, 64
4, 25760, Note_off_c, 2, 57, 64
4, 25920, Note_on_c, 2, 57, 75
4, 25920, Note_on_c, 2, 66, 75
4, 26000, Note_off_c, 2, 66, 64
4, 26000, Note_off_c, 2, 57, 64
4, 26160, Note_on_c, 2, 62, 92
4, 26280, Note_off_c, 2, 62, 64
4, 26280, Note_on_c, 2, 64, 92
4, 26400, Note_off_c, 2, 64, 64
4, 26400, Note_on_c, 2, 66, 92
4, 26480, Note_off_c, 2, 66, 64
4, 26640, Note_on_c, 2, 66, 92
4, 26720, Note_off_c, 2, 66, 64
4, 26880, Note_on_c, 2, 59, 92
4, 26960, Note_off_c, 2, 59, 64
4, 27120, Note_on_c, 2, 59, 92
4, 27200, Note_off_c, 2, 59, 64
4, 27360, Note_on_c, 2, 59, 92
4, 27440, Note_off_c, 2, 59, 64
4, 27600, Note_on_c, 2, 59, 92
4, 27680, Note_off_c, 2, 59, 64
4, 27840, Note_on_c, 2, 59, 92
4, 27920, Note_off_c, 2, 59, 64
4, 28080, Note_on_c, 2, 59, 92
4, 28160, Note_off_c, 2, 59, 64
4, 28320, Note_on_c, 2, 59, 92
4, 28400, Note_off_c, 2, 59, 64
4, 28560, Note_on_c, 2, 59, 92
4, 28640, Note_off_c, 2, 59, 64
4, 28800, Note_on_c, 2, 59, 92
4, 28800, Note_on_c, 2, 68, 92
4, 28880, Note_off_c, 2, 68, 64
4, 28880, Note_off_c, 2, 59, 64
4, 29040, Note_on_c, 2, 59, 89
4, 29040, Note_on_c, 2, 68, 89
4, 29120, Note_off_c, 2, 68, 64
4, 29120, Note_off_c, 2, 59, 64
4, 29280, Note_on_c, 2, 59, 86
4, 29280, Note_on_c, 2, 68, 86
4, 29360, Note_off_c, 2, 68, 64
4, 29360, Note_off_c, 2, 59, 64
4, 29520, Note_on_c, 2, 59, 83
4, 29520, Note_on_c, 2, 68, 83
4, 29600, Note_off_c, 2, 68, 64
4, 29600, Note_off_c, 2, 59, 64
4, 29760, Note_on_c, 2, 59, 80
4, 29760, Note_on_c, 2, 68, 80
4, 29840, Note_off_c, 2, 68, 64
4, 29840, Note_off_c, 2, 59, 64
4, 30000, Note_on_c, 2, 64, 76
4, 30400, Note_off_c, 2, 64, 64
4, 30480, Note_on_c, 2, 64, 68
4, 30955, Note_off_c, 2, 64, 64
4, 30960, Note_on_c, 2, 64, 60
4, 31360, Note_off_c, 2, 64, 64
4, 31440, Note_on_c, 2, 64, 60
4, 31840, Note_off_c, 2, 64, 64
4, 31920, Note_on_c, 2, 64, 60
4, 32320, Note_off_c, 2, 64, 64
4, 32400, Note_on_c, 2, 64, 60
4, 32875, Note_off_c, 2, 64, 64
4, 32880, Note_on_c, 2, 64, 60
4, 33280, Note_off_c, 2, 64, 64
4, 33360, Note_on_c, 2, 64, 60
4, 33760, Note_off_c, 2, 64, 64
4, 33840, Note_on_c, 2, 64, 60
4, 34240, Note_off_c, 2, 64, 64
4, 34320, Note_on_c, 2, 64, 60
4, 34400, Note_off_c, 2, 64, 64
4, 34560, Note_on_c, 2, 64, 60
4, 34960, Note_off_c, 2, 64, 64
4, 36480, Note_on_c, 2, 68, 60
4, 38400, Note_off_c, 2, 68, 64
4, 38400, Note_on_c, 2, 69, 60
4, 38800, Note_off_c, 2, 69, 64
4, 40560, Note_on_c, 2, 69, 64
4, 40640, Note_off_c, 2, 69, 64
4, 40800, Note_on_c, 2, 57, 68
4, 40880, Note_off_c, 2, 57, 64
4, 41040, Note_on_c, 2, 59, 72
4, 41095, Note_off_c, 2, 59, 64
4, 41100, Note_on_c, 2, 61, 73
4, 41160, Note_off_c, 2, 61, 64
4, 41160, Note_on_c, 2, 59, 74
4, 41220, Note_off_c, 2, 59, 64
4, 41220, Note_on_c, 2, 61, 75
4, 41280, Note_off_c, 2, 61, 64
4, 41280, Note_on_c, 2, 61, 76
4, 41360, Note_off_c, 2, 61, 64
4, 41520, Note_on_c, 2, 64, 80
4, 42000, Note_off_c, 2, 64, 64
4, 42000, Note_on_c, 2, 68, 88
4, 42235, Note_off_c, 2, 68, 64
4, 42240, Note_on_c, 2, 69, 92
4, 42640, Note_off_c, 2, 69, 64
4, 42960, Note_on_c, 2, 69, 92
4, 43360, Note_off_c, 2, 69, 64
4, 43440, Note_on_c, 2, 64, 92
4, 43680, Note_off_c, 2, 64, 64
4, 43680, Note_on_c, 2, 62, 92
4, 43920, Note_off_c, 2, 62, 64
4, 43920, Note_on_c, 2, 61, 92
4, 44155, Note_off_c, 2, 61, 64
4, 44160, Note_on_c, 2, 62, 75
4, 44395, Note_off_c, 2, 62, 64
4, 44400, Note_on_c, 2, 62, 75
4, 44635, Note_off_c, 2, 62, 64
4, 44640, Note_on_c, 2, 62, 75
4, 44875, Note_off_c, 2, 62, 64
4, 44880, Note_on_c, 2, 62, 75
4, 45115, Note_off_c, 2, 62, 64
4, 45120, Note_on_c, 2, 62, 75
4, 45355, Note_off_c, 2, 62, 64
4, 45360, Note_on_c, 2, 62, 75
4, 45595, Note_off_c, 2, 62, 64
4, 45600, Note_on_c, 2, 62, 75
4, 45835, Note_off_c, 2, 62, 64
4, 45840, Note_on_c, 2, 62, 75
4, 46075, Note_off_c, 2, 62, 64
4, 46080, Note_on_c, 2, 64, 75
4, 46315, Note_off_c, 2, 64, 64
4, 46320, Note_on_c, 2, 61, 75
4, 46555, Note_off_c, 2, 61, 64
4, 46560, Note_on_c, 2, 61, 75
4, 46795, Note_off_c, 2, 61, 64
4, 46800, Note_on_c, 2, 61, 75
4, 47035, Note_off_c, 2, 61, 64
4, 47040, Note_on_c, 2, 61, 75
4, 47275, Note_off_c, 2, 61, 64
4, 47280, Note_on_c, 2, 61, 75
4, 47515, Note_off_c, 2, 61, 64
4, 47520, Note_on_c, 2, 61, 75
4, 47755, Note_off_c, 2, 61, 64
4, 47760, Note_on_c, 2, 61, 75
4, 47995, Note_off_c, 2, 61, 64
4, 48000, Note_on_c, 2, 62, 75
4, 48235, Note_off_c, 2, 62, 64
4, 48240, Note_on_c, 2, 62, 72
4, 48475, Note_off_c, 2, 62, 64
4, 48480, Note_on_c, 2, 62, 69
4, 48715, Note_off_c, 2, 62, 64
4, 48720, Note_on_c, 2, 62, 65
4, 48955, Note_off_c, 2, 62, 64
4, 48960, Note_on_c, 2, 62, 61
4, 49195, Note_off_c, 2, 62, 64
4, 49200, Note_on_c, 2, 62, 57
4, 49435, Note_off_c, 2, 62, 64
4, 49440, Note_on_c, 2, 59, 53
4, 49675, Note_off_c, 2, 59, 64
4, 49680, Note_on_c, 2, 59, 49
4, 49915, Note_off_c, 2, 59, 64
4, 49920, Note_on_c, 2, 61, 45
4, 50160, Note_off_c, 2, 61, 64
4, 50160, Note_on_c, 2, 64, 46
4, 50240, Note_off_c, 2, 64, 64
4, 50400, Note_on_c, 2, 64, 48
4, 50480, Note_off_c, 2, 64, 64
4, 50640, Note_on_c, 2, 64, 50
4, 50720, Note_off_c, 2, 64, 64
4, 50880, Note_on_c, 2, 64, 52
4, 51280, Note_off_c, 2, 64, 64
4, 51840, Note_on_c, 2, 57, 60
4, 52080, Note_off_c, 2, 57, 64
4, 52080, Note_on_c, 2, 66, 60
4, 52160, Note_off_c, 2, 66, 64
4, 52320, Note_on_c, 2, 66, 62
4, 52400, Note_off_c, 2, 66, 64
4, 52560, Note_on_c, 2, 66, 64
4, 52640, Note_off_c, 2, 66, 64
4, 52800, Note_on_c, 2, 66, 66
4, 53200, Note_off_c, 2, 66, 64
4, 53760, Note_on_c, 2, 57, 75
4, 54000, Note_off_c, 2, 57, 64
4, 54000, Note_on_c, 2, 61, 75
4, 54080, Note_off_c, 2, 61, 64
4, 54240, Note_on_c, 2, 61, 77
4, 54320, Note_off_c, 2, 61, 64
4, 54480, Note_on_c, 2, 61, 79
4, 54560, Note_off_c, 2, 61, 64
4, 54720, Note_on_c, 2, 61, 81
4, 55120, Note_off_c, 2, 61, 64
4, 55680, Note_on_c, 2, 62, 92
4, 56080, Note_off_c, 2, 62, 64
4, 58080, Note_on_c, 2, 61, 92
4, 58560, Note_off_c, 2, 61, 64
4, 58560, Note_on_c, 2, 62, 92
4, 59040, Note_off_c, 2, 62, 64
4, 59040, Note_on_c, 2, 61, 92
4, 59520, Note_off_c, 2, 61, 64
4, 59520, Note_on_c, 2, 62, 92
4, 59755, Note_off_c, 2, 62, 64
4, 59760, Note_on_c, 2, 62, 92
4, 60160, Note_off_c, 2, 62, 64
4, 60240, Note_on_c, 2, 62, 92
4, 60640, Note_off_c, 2, 62, 64
4, 60720, Note_on_c, 2, 62, 92
4, 61120, Note_off_c, 2, 62, 64
4, 61200, Note_on_c, 2, 66, 92
4, 61280, Note_off_c, 2, 66, 64
4, 61440, Note_on_c, 2, 64, 92
4, 61520, Note_off_c, 2, 64, 64
4, 61680, Note_on_c, 2, 64, 92
4, 61760, Note_off_c, 2, 64, 64
4, 61920, Note_on_c, 2, 64, 92
4, 62000, Note_off_c, 2, 64, 64
4, 62160, Note_on_c, 2, 64, 92
4, 62240, Note_off_c, 2, 64, 64
4, 62400, Note_on_c, 2, 64, 92
4, 62480, Note_off_c, 2, 64, 64
4, 62640, Note_on_c, 2, 64, 92
4, 62720, Note_off_c, 2, 64, 64
4, 62880, Note_on_c, 2, 62, 92
4, 62960, Note_off_c, 2, 62, 64
4, 63120, Note_on_c, 2, 62, 92
4, 63200, Note_off_c, 2, 62, 64
4, 63360, Note_on_c, 2, 61, 92
4, 63440, Note_off_c, 2, 61, 64
4, 63600, Note_on_c, 2, 61, 90
4, 63840, Note_off_c, 2, 61, 64
4, 63840, Note_on_c, 2, 62, 88
4, 64080, Note_off_c, 2, 62, 64
4, 64080, Note_on_c, 2, 59, 86
4, 64320, Note_off_c, 2, 59, 64
4, 64320, Note_on_c, 2, 61, 84
4, 64400, Note_off_c, 2, 61, 64
4, 64560, Note_on_c, 2, 64, 81
4, 64800, Note_off_c, 2, 64, 64
4, 64800, Note_on_c, 2, 66, 78
4, 65040, Note_off_c, 2, 66, 64
4, 65040, Note_on_c, 2, 62, 75
4, 65280, Note_off_c, 2, 62, 64
4, 65280, Note_on_c, 2, 61, 75
4, 65360, Note_off_c, 2, 61, 64
4, 65520, Note_on_c, 2, 61, 74
4, 65760, Note_off_c, 2, 61, 64
4, 65760, Note_on_c, 2, 62, 72
4, 66000, Note_off_c, 2, 62, 64
4, 66000, Note_on_c, 2, 59, 70
4, 66240, Note_off_c, 2, 59, 64
4, 66240, Note_on_c, 2, 61, 68
4, 66320, Note_off_c, 2, 61, 64
4, 66480, Note_on_c, 2, 64, 66
4, 66720, Note_off_c, 2, 64, 64
4, 66720, Note_on_c, 2, 66, 64
4, 66960, Note_off_c, 2, 66, 64
4, 66960, Note_on_c, 2, 62, 62
4, 67200, Note_off_c, 2, 62, 64
4, 67200, Note_on_c, 2, 61, 60
4, 67280, Note_off_c, 2, 61, 64
4, 67440, Note_on_c, 2, 57, 60
4, 67560, Note_off_c, 2, 57, 64
4, 67560, Note_on_c, 2, 56, 58
4, 67680, Note_off_c, 2, 56, 64
4, 67680, Note_on_c, 2, 57, 56
4, 67800, Note_off_c, 2, 57, 64
4, 67800, Note_on_c, 2, 56, 54
4, 67920, Note_off_c, 2, 56, 64
4, 67920, Note_on_c, 2, 57, 51
4, 68040, Note_off_c, 2, 57, 64
4, 68040, Note_on_c, 2, 56, 48
4, 68160, Note_off_c, 2, 56, 64
4, 68160, Note_on_c, 2, 57, 45
4, 68560, Note_off_c, 2, 57, 64
4, 69120, Note_on_c, 2, 62, 75
4, 69355, Note_off_c, 2, 62, 64
4, 69360, Note_on_c, 2, 62, 75
4, 69595, Note_off_c, 2, 62, 64
4, 69600, Note_on_c, 2, 62, 75
4, 69835, Note_off_c, 2, 62, 64
4, 69840, Note_on_c, 2, 62, 75
4, 70075, Note_off_c, 2, 62, 64
4, 70080, Note_on_c, 2, 62, 75
4, 70315, Note_off_c, 2, 62, 64
4, 70320, Note_on_c, 2, 62, 75
4, 70555, Note_off_c, 2, 62, 64
4, 70560, Note_on_c, 2, 62, 75
4, 70795, Note_off_c, 2, 62, 64
4, 70800, Note_on_c, 2, 62, 75
4, 71035, Note_off_c, 2, 62, 64
4, 71040, Note_on_c, 2, 62, 75
4, 71275, Note_off_c, 2, 62, 64
4, 71280, Note_on_c, 2, 62, 75
4, 71515, Note_off_c, 2, 62, 64
4, 71520, Note_on_c, 2, 62, 75
4, 71755, Note_off_c, 2, 62, 64
4, 71760, Note_on_c, 2, 62, 75
4, 71995, Note_off_c, 2, 62, 64
4, 72000, Note_on_c, 2, 57, 75
4, 72235, Note_off_c, 2, 57, 64
4, 72240, Note_on_c, 2, 57, 75
4, 72475, Note_off_c, 2, 57, 64
4, 72480, Note_on_c, 2, 57, 75
4, 72715, Note_off_c, 2, 57, 64
4, 72720, Note_on_c, 2, 57, 75
4, 72955, Note_off_c, 2, 57, 64
4, 72960, Note_on_c, 2, 57, 75
4, 75115, Note_off_c, 2, 57, 64
4, 75120, Note_on_c, 2, 66, 92
4, 75360, Note_off_c, 2, 66, 64
4, 75360, Note_on_c, 2, 69, 92
4, 75600, Note_off_c, 2, 69, 64
4, 75600, Note_on_c, 2, 66, 92
4, 75840, Note_off_c, 2, 66, 64
4, 75840, Note_on_c, 2, 62, 92
4, 75920, Note_off_c, 2, 62, 64
4, 76080, Note_on_c, 2, 57, 92
4, 76320, Note_off_c, 2, 57, 64
4, 76320, Note_on_c, 2, 62, 92
4, 76560, Note_off_c, 2, 62, 64
4, 76560, Note_on_c, 2, 66, 92
4, 76795, Note_off_c, 2, 66, 64
4, 76800, Note_on_c, 2, 57, 75
4, 78800, Note_off_c, 2, 57, 64
4, 78960, Note_on_c, 2, 62, 75
4, 79360, Note_off_c, 2, 62, 64
4, 79440, Note_on_c, 2, 66, 75
4, 79840, Note_off_c, 2, 66, 64
4, 79920, Note_on_c, 2, 66, 75
4, 80160, Note_off_c, 2, 66, 64
4, 80160, Note_on_c, 2, 64, 75
4, 80400, Note_off_c, 2, 64, 64
4, 80400, Note_on_c, 2, 67, 75
4, 80635, Note_off_c, 2, 67, 64
4, 80640, Note_on_c, 2, 66, 75
4, 80875, Note_off_c, 2, 66, 64
4, 80880, Note_on_c, 2, 66, 75
4, 81115, Note_off_c, 2, 66, 64
4, 81120, Note_on_c, 2, 66, 75
4, 81355, Note_off_c, 2, 66, 64
4, 81360, Note_on_c, 2, 66, 75
4, 81595, Note_off_c, 2, 66, 64
4, 81600, Note_on_c, 2, 69, 75
4, 81835, Note_off_c, 2, 69, 64
4, 81840, Note_on_c, 2, 69, 75
4, 82075, Note_off_c, 2, 69, 64
4, 82080, Note_on_c, 2, 69, 75
4, 82315, Note_off_c, 2, 69, 64
4, 82320, Note_on_c, 2, 69, 75
4, 82555, Note_off_c, 2, 69, 64
4, 82560, Note_on_c, 2, 67, 75
4, 82795, Note_off_c, 2, 67, 64
4, 82800, Note_on_c, 2, 67, 75
4, 83035, Note_off_c, 2, 67, 64
4, 83040, Note_on_c, 2, 67, 75
4, 83275, Note_off_c, 2, 67, 64
4, 83280, Note_on_c, 2, 67, 75
4, 83515, Note_off_c, 2, 67, 64
4, 83520, Note_on_c, 2, 67, 75
4, 83755, Note_off_c, 2, 67, 64
4, 83760, Note_on_c, 2, 67, 75
4, 84000, Note_off_c, 2, 67, 64
4, 84000, Note_on_c, 2, 71, 75
4, 84240, Note_off_c, 2, 71, 64
4, 84240, Note_on_c, 2, 64, 75
4, 84475, Note_off_c, 2, 64, 64
4, 84480, Note_on_c, 2, 69, 75
4, 84715, Note_off_c, 2, 69, 64
4, 84720, Note_on_c, 2, 57, 75
4, 84955, Note_off_c, 2, 57, 64
4, 84960, Note_on_c, 2, 57, 75
4, 85195, Note_off_c, 2, 57, 64
4, 85200, Note_on_c, 2, 57, 75
4, 85435, Note_off_c, 2, 57, 64
4, 85440, Note_on_c, 2, 57, 75
4, 85675, Note_off_c, 2, 57, 64
4, 85680, Note_on_c, 2, 57, 75
4, 85915, Note_off_c, 2, 57, 64
4, 85920, Note_on_c, 2, 57, 75
4, 86155, Note_off_c, 2, 57, 64
4, 86160, Note_on_c, 2, 57, 75
4, 86395, Note_off_c, 2, 57, 64
4, 86400, Note_on_c, 2, 57, 75
4, 86635, Note_off_c, 2, 57, 64
4, 86640, Note_on_c, 2, 57, 75
4, 86875, Note_off_c, 2, 57, 64
4, 86880, Note_on_c, 2, 57, 75
4, 87115, Note_off_c, 2, 57, 64
4, 87120, Note_on_c, 2, 57, 75
4, 87355, Note_off_c, 2, 57, 64
4, 87360, Note_on_c, 2, 57, 75
4, 87595, Note_off_c, 2, 57, 64
4, 87600, Note_on_c, 2, 57, 75
4, 87835, Note_off_c, 2, 57, 64
4, 87840, Note_on_c, 2, 57, 75
4, 88075, Note_off_c, 2, 57, 64
4, 88080, Note_on_c, 2, 57, 75
4, 88315, Note_off_c, 2, 57, 64
4, 88320, Note_on_c, 2, 57, 75
4, 88720, Note_off_c, 2, 57, 64
4, 89040, Note_on_c, 2, 69, 75
4, 89275, Note_off_c, 2, 69, 64
4, 89280, Note_on_c, 2, 69, 75
4, 89680, Note_off_c, 2, 69, 64
4, 90000, Note_on_c, 2, 64, 75
4, 90235, Note_off_c, 2, 64, 64
4, 90240, Note_on_c, 2, 62, 75
4, 90640, Note_off_c, 2, 62, 64
4, 90960, Note_on_c, 2, 69, 75
4, 91195, Note_off_c, 2, 69, 64
4, 91200, Note_on_c, 2, 69, 75
4, 91600, Note_off_c, 2, 69, 64
4, 91920, Note_on_c, 2, 67, 75
4, 92155, Note_off_c, 2, 67, 64
4, 92160, Note_on_c, 2, 66, 75
4, 92240, Note_off_c, 2, 66, 64
4, 92400, Note_on_c, 2, 66, 75
4, 92480, Note_off_c, 2, 66, 64
4, 92640, Note_on_c, 2, 66, 75
4, 92720, Note_off_c, 2, 66, 64
4, 92880, Note_on_c, 2, 66, 75
4, 92960, Note_off_c, 2, 66, 64
4, 93120, Note_on_c, 2, 66, 75
4, 93200, Note_off_c, 2, 66, 64
4, 93360, Note_on_c, 2, 66, 75
4, 93440, Note_off_c, 2, 66, 64
4, 93600, Note_on_c, 2, 66, 75
4, 93680, Note_off_c, 2, 66, 64
4, 93840, Note_on_c, 2, 66, 75
4, 93920, Note_off_c, 2, 66, 64
4, 94080, Note_on_c, 2, 57, 75
4, 94080, Note_on_c, 2, 66, 75
4, 94160, Note_off_c, 2, 66, 64
4, 94160, Note_off_c, 2, 57, 64
4, 94320, Note_on_c, 2, 57, 75
4, 94320, Note_on_c, 2, 66, 75
4, 94400, Note_off_c, 2, 66, 64
4, 94400, Note_off_c, 2, 57, 64
4, 94560, Note_on_c, 2, 57, 75
4, 94560, Note_on_c, 2, 66, 75
4, 94640, Note_off_c, 2, 66, 64
4, 94640, Note_off_c, 2, 57, 64
4, 94800, Note_on_c, 2, 57, 75
4, 94800, Note_on_c, 2, 66, 75
4, 94880, Note_off_c, 2, 66, 64
4, 94880, Note_off_c, 2, 57, 64
4, 95040, Note_on_c, 2, 57, 75
4, 95040, Note_on_c, 2, 66, 75
4, 95120, Note_off_c, 2, 66, 64
4, 95120, Note_off_c, 2, 57, 64
4, 95280, Note_on_c, 2, 62, 92
4, 95400, Note_off_c, 2, 62, 64
4, 95400, Note_on_c, 2, 64, 92
4, 95520, Note_off_c, 2, 64, 64
4, 95520, Note_on_c, 2, 66, 92
4, 95600, Note_off_c, 2, 66, 64
4, 95760, Note_on_c, 2, 66, 92
4, 95840, Note_off_c, 2, 66, 64
4, 96000, Note_on_c, 2, 59, 92
4, 96080, Note_off_c, 2, 59, 64
4, 96240, Note_on_c, 2, 59, 92
4, 96320, Note_off_c, 2, 59, 64
4, 96480, Note_on_c, 2, 59, 92
4, 96560, Note_off_c, 2, 59, 64
4, 96720, Note_on_c, 2, 59, 92
4, 96800, Note_off_c, 2, 59, 64
4, 96960, Note_on_c, 2, 59, 92
4, 97040, Note_off_c, 2, 59, 64
4, 97200, Note_on_c, 2, 59, 92
4, 97280, Note_off_c, 2, 59, 64
4, 97440, Note_on_c, 2, 59, 92
4, 97520, Note_off_c, 2, 59, 64
4, 97680, Note_on_c, 2, 59, 92
4, 97760, Note_off_c, 2, 59, 64
4, 97920, Note_on_c, 2, 59, 92
4, 97920, Note_on_c, 2, 68, 92
4, 98000, Note_off_c, 2, 68, 64
4, 98000, Note_off_c, 2, 59, 64
4, 98160, Note_on_c, 2, 59, 89
4, 98160, Note_on_c, 2, 68, 89
4, 98240, Note_off_c, 2, 68, 64
4, 98240, Note_off_c, 2, 59, 64
4, 98400, Note_on_c, 2, 59, 86
4, 98400, Note_on_c, 2, 68, 86
4, 98480, Note_off_c, 2, 68, 64
4, 98480, Note_off_c, 2, 59, 64
4, 98640, Note_on_c, 2, 59, 83
4, 98640, Note_on_c, 2, 68, 83
4, 98720, Note_off_c, 2, 68, 64
4, 98720, Note_off_c, 2, 59, 64
4, 98880, Note_on_c, 2, 59, 80
4, 98880, Note_on_c, 2, 68, 80
4, 98960, Note_off_c, 2, 68, 64
4, 98960, Note_off_c, 2, 59, 64
4, 99120, Note_on_c, 2, 64, 76
4, 99520, Note_off_c, 2, 64, 64
4, 99600, Note_on_c, 2, 64, 68
4, 100075, Note_off_c, 2, 64, 64
4, 100080, Note_on_c, 2, 64, 60
4, 100480, Note_off_c, 2, 64, 64
4, 100560, Note_on_c, 2, 64, 60
4, 100960, Note_off_c, 2, 64, 64
4, 101040, Note_on_c, 2, 64, 60
4, 101440, Note_off_c, 2, 64, 64
4, 101520, Note_on_c, 2, 64, 60
4, 101995, Note_off_c, 2, 64, 64
4, 102000, Note_on_c, 2, 64, 60
4, 102400, Note_off_c, 2, 64, 64
4, 102480, Note_on_c, 2, 64, 60
4, 102880, Note_off_c, 2, 64, 64
4, 102960, Note_on_c, 2, 64, 60
4, 103360, Note_off_c, 2, 64, 64
4, 103440, Note_on_c, 2, 64, 60
4, 103520, Note_off_c, 2, 64, 64
4, 103680, Note_on_c, 2, 64, 60
4, 104080, Note_off_c, 2, 64, 64
4, 105600, Note_on_c, 2, 68, 60
4, 107520, Note_off_c, 2, 68, 64
4, 107520, Note_on_c, 2, 69, 60
4, 107920, Note_off_c, 2, 69, 64
4, 109680, Note_on_c, 2, 69, 64
4, 109760, Note_off_c, 2, 69, 64
4, 109920, Note_on_c, 2, 57, 68
4, 110000, Note_off_c, 2, 57, 64
4, 110160, Note_on_c, 2, 59, 72
4, 110215, Note_off_c, 2, 59, 64
4, 110220, Note_on_c, 2, 61, 73
4, 110280, Note_off_c, 2, 61, 64
4, 110280, Note_on_c, 2, 59, 74
4, 110340, Note_off_c, 2, 59, 64
4, 110340, Note_on_c, 2, 61, 75
4, 110400, Note_off_c, 2, 61, 64
4, 110400, Note_on_c, 2, 61, 76
4, 110480, Note_off_c, 2, 61, 64
4, 110640, Note_on_c, 2, 64, 80
4, 111120, Note_off_c, 2, 64, 64
4, 111120, Note_on_c, 2, 68, 88
4, 111355, Note_off_c, 2, 68, 64
4, 111360, Note_on_c, 2, 69, 92
4, 111760, Note_off_c, 2, 69, 64
4, 112080, Note_on_c, 2, 69, 92
4, 112480, Note_off_c, 2, 69, 64
4, 112560, Note_on_c, 2, 64, 92
4, 112800, Note_off_c, 2, 64, 64
4, 112800, Note_on_c, 2, 62, 92
4, 113040, Note_off_c, 2, 62, 64
4, 113040, Note_on_c, 2, 61, 92
4, 113275, Note_off_c, 2, 61, 64
4, 113280, Note_on_c, 2, 62, 75
4, 113515, Note_off_c, 2, 62, 64
4, 113520, Note_on_c, 2, 62, 75
4, 113755, Note_off_c, 2, 62, 64
4, 113760, Note_on_c, 2, 62, 75
4, 113995, Note_off_c, 2, 62, 64
4, 114000, Note_on_c, 2, 62, 75
4, 114235, Note_off_c, 2, 62, 64
4, 114240, Note_on_c, 2, 62, 75
4, 114475, Note_off_c, 2, 62, 64
4, 114480, Note_on_c, 2, 62, 75
4, 114715, Note_off_c, 2, 62, 64
4, 114720, Note_on_c, 2, 62, 75
4, 114955, Note_off_c, 2, 62, 64
4, 114960, Note_on_c, 2, 62, 75
4, 115195, Note_off_c, 2, 62, 64
4, 115200, Note_on_c, 2, 64, 75
4, 115435, Note_off_c, 2, 64, 64
4, 115440, Note_on_c, 2, 61, 75
4, 115675, Note_off_c, 2, 61, 64
4, 115680, Note_on_c, 2, 61, 75
4, 115915, Note_off_c, 2, 61, 64
4, 115920, Note_on_c, 2, 61, 75
4, 116155, Note_off_c, 2, 61, 64
4, 116160, Note_on_c, 2, 61, 75
4, 116395, Note_off_c, 2, 61, 64
4, 116400, Note_on_c, 2, 61, 75
4, 116635, Note_off_c, 2, 61, 64
4, 116640, Note_on_c, 2, 61, 75
4, 116875, Note_off_c, 2, 61, 64
4, 116880, Note_on_c, 2, 61, 75
4, 117115, Note_off_c, 2, 61, 64
4, 117120, Note_on_c, 2, 62, 75
4, 117355, Note_off_c, 2, 62, 64
4, 117360, Note_on_c, 2, 62, 72
4, 117595, Note_off_c, 2, 62, 64
4, 117600, Note_on_c, 2, 62, 69
4, 117835, Note_off_c, 2, 62, 64
4, 117840, Note_on_c, 2, 62, 65
4, 118075, Note_off_c, 2, 62, 64
4, 118080, Note_on_c, 2, 62, 61
4, 118315, Note_off_c, 2, 62, 64
4, 118320, Note_on_c, 2, 62, 57
4, 118555, Note_off_c, 2, 62, 64
4, 118560, Note_on_c, 2, 59, 53
4, 118795, Note_off_c, 2, 59, 64
4, 118800, Note_on_c, 2, 59, 49
4, 119035, Note_off_c, 2, 59, 64
4, 119040, Note_on_c, 2, 61, 45
4, 119280, Note_off_c, 2, 61, 64
4, 119280, Note_on_c, 2, 64, 46
4, 119360, Note_off_c, 2, 64, 64
4, 119520, Note_on_c, 2, 64, 48
4, 119600, Note_off_c, 2, 64, 64
4, 119760, Note_on_c, 2, 64, 50
4, 119840, Note_off_c, 2, 64, 64
4, 120000, Note_on_c, 2, 64, 52
4, 120400, Note_off_c, 2, 64, 64
4, 120960, Note_on_c, 2, 57, 60
4, 121200, Note_off_c, 2, 57, 64
4, 121200, Note_on_c, 2, 66, 60
4, 121280, Note_off_c, 2, 66, 64
4, 121440, Note_on_c, 2, 66, 62
4, 121520, Note_off_c, 2, 66, 64
4, 121680, Note_on_c, 2, 66, 64
4, 121760, Note_off_c, 2, 66, 64
4, 121920, Note_on_c, 2, 66, 66
4, 122320, Note_off_c, 2, 66, 64
4, 122880, Note_on_c, 2, 57, 75
4, 123120, Note_off_c, 2, 57, 64
4, 123120, Note_on_c, 2, 61, 75
4, 123200, Note_off_c, 2, 61, 64
4, 123360, Note_on_c, 2, 61, 77
4, 123440, Note_off_c, 2, 61, 64
4, 123600, Note_on_c, 2, 61, 79
4, 123680, Note_off_c, 2, 61, 64
4, 123840, Note_on_c, 2, 61, 81
4, 124240, Note_off_c, 2, 61, 64
4, 124800, Note_on_c, 2, 62, 92
4, 125200, Note_off_c, 2, 62, 64
4, 127200, Note_on_c, 2, 61, 92
4, 127680, Note_off_c, 2, 61, 64
4, 127680, Note_on_c, 2, 62, 92
4, 128160, Note_off_c, 2, 62, 64
4, 128160, Note_on_c, 2, 61, 92
4, 128640, Note_off_c, 2, 61, 64
4, 128640, Note_on_c, 2, 62, 92
4, 128875, Note_off_c, 2, 62, 64
4, 128880, Note_on_c, 2, 62, 92
4, 129280, Note_off_c, 2, 62, 64
4, 129360, Note_on_c, 2, 62, 92
4, 129760, Note_off_c, 2, 62, 64
4, 129840, Note_on_c, 2, 62, 92
4, 130240, Note_off_c, 2, 62, 64
4, 130320, Note_on_c, 2, 66, 92
4, 130400, Note_off_c, 2, 66, 64
4, 130560, Note_on_c, 2, 64, 92
4, 130640, Note_off_c, 2, 64, 64
4, 130800, Note_on_c, 2, 64, 92
4, 130880, Note_off_c, 2, 64, 64
4, 131040, Note_on_c, 2, 64, 92
4, 131120, Note_off_c, 2, 64, 64
4, 131280, Note_on_c, 2, 64, 92
4, 131360, Note_off_c, 2, 64, 64
4, 131520, Note_on_c, 2, 64, 92
4, 131600, Note_off_c, 2, 64, 64
4, 131760, Note_on_c, 2, 64, 92
4, 131840, Note_off_c, 2, 64, 64
4, 132000, Note_on_c, 2, 62, 92
4, 132080, Note_off_c, 2, 62, 64
4, 132240, Note_on_c, 2, 62, 92
4, 132320, Note_off_c, 2, 62, 64
4, 132480, Note_on_c, 2, 61, 92
4, 132560, Note_off_c, 2, 61, 64
4, 132720, Note_on_c, 2, 61, 90
4, 132960, Note_off_c, 2, 61, 64
4, 132960, Note_on_c, 2, 62, 88
4, 133200, Note_off_c, 2, 62, 64
4, 133200, Note_on_c, 2, 59, 86
4, 133440, Note_off_c, 2, 59, 64
4, 133440, Note_on_c, 2, 61, 84
4, 133520, Note_off_c, 2, 61, 64
4, 133680, Note_on_c, 2, 64, 81
4, 133920, Note_off_c, 2, 64, 64
4, 133920, Note_on_c, 2, 66, 78
4, 134160, Note_off_c, 2, 66, 64
4, 134160, Note_on_c, 2, 62, 75
4, 134400, Note_off_c, 2, 62, 64
4, 134400, Note_on_c, 2, 61, 75
4, 134480, Note_off_c, 2, 61, 64
4, 134640, Note_on_c, 2, 61, 74
4, 134880, Note_off_c, 2, 61, 64
4, 134880, Note_on_c, 2, 62, 72
4, 135120, Note_off_c, 2, 62, 64
4, 135120, Note_on_c, 2, 59, 70
4, 135360, Note_off_c, 2, 59, 64
4, 135360, Note_on_c, 2, 61, 68
4, 135440, Note_off_c, 2, 61, 64
4, 135600, Note_on_c, 2, 64, 66
4, 135840, Note_off_c, 2, 64, 64
4, 135840, Note_on_c, 2, 66, 64
4, 136080, Note_off_c, 2, 66, 64
4, 136080, Note_on_c, 2, 62, 62
4, 136320, Note_off_c, 2, 62, 64
4, 136320, Note_on_c, 2, 61, 60
4, 136400, Note_off_c, 2, 61, 64
4, 136560, Note_on_c, 2, 57, 60
4, 136680, Note_off_c, 2, 57, 64
4, 136680, Note_on_c, 2, 56, 58
4, 136800, Note_off_c, 2, 56, 64
4, 136800, Note_on_c, 2, 57, 56
4, 136920, Note_off_c, 2, 57, 64
4, 136920, Note_on_c, 2, 56, 54
4, 137040, Note_off_c, 2, 56, 64
4, 137040, Note_on_c, 2, 57, 51
4, 137160, Note_off_c, 2, 57, 64
4, 137160, Note_on_c, 2, 56, 48
4, 137280, Note_off_c, 2, 56, 64
4, 137280, Note_on_c, 2, 57, 45
4, 137680, Note_off_c, 2, 57, 64
4, 138240, Note_on_c, 2, 60, 75
4, 138475, Note_off_c, 2, 60, 64
4, 138480, Note_on_c, 2, 60, 75
4, 138715, Note_off_c, 2, 60, 64
4, 138720, Note_on_c, 2, 60, 75
4, 138955, Note_off_c, 2, 60, 64
4, 138960, Note_on_c, 2, 60, 75
4, 139195, Note_off_c, 2, 60, 64
4, 139200, Note_on_c, 2, 60, 75
4, 139435, Note_off_c, 2, 60, 64
4, 139440, Note_on_c, 2, 60, 75
4, 139675, Note_off_c, 2, 60, 64
4, 139680, Note_on_c, 2, 60, 75
4, 139915, Note_off_c, 2, 60, 64
4, 139920, Note_on_c, 2, 60, 75
4, 140155, Note_off_c, 2, 60, 64
4, 140160, Note_on_c, 2, 54, 75
4, 140395, Note_off_c, 2, 54, 64
4, 140400, Note_on_c, 2, 54, 75
4, 140635, Note_off_c, 2, 54, 64
4, 140640, Note_on_c, 2, 54, 75
4, 140875, Note_off_c, 2, 54, 64
4, 140880, Note_on_c, 2, 54, 75
4, 141115, Note_off_c, 2, 54, 64
4, 141120, Note_on_c, 2, 57, 75
4, 141355, Note_off_c, 2, 57, 64
4, 141360, Note_on_c, 2, 57, 75
4, 141595, Note_off_c, 2, 57, 64
4, 141600, Note_on_c, 2, 57, 75
4, 141835, Note_off_c, 2, 57, 64
4, 141840, Note_on_c, 2, 55, 75
4, 142075, Note_off_c, 2, 55, 64
4, 142080, Note_on_c, 2, 59, 75
4, 144235, Note_off_c, 2, 59, 64
4, 144240, Note_on_c, 2, 67, 92
4, 144480, Note_off_c, 2, 67, 64
4, 144480, Note_on_c, 2, 71, 92
4, 144720, Note_off_c, 2, 71, 64
4, 144720, Note_on_c, 2, 67, 92
4, 144960, Note_off_c, 2, 67, 64
4, 144960, Note_on_c, 2, 64, 92
4, 145360, Note_off_c, 2, 64, 64
4, 145920, Note_on_c, 2, 59, 75
4, 148075, Note_off_c, 2, 59, 64
4, 148080, Note_on_c, 2, 59, 92
4, 148480, Note_off_c, 2, 59, 64
4, 148560, Note_on_c, 2, 57, 92
4, 148960, Note_off_c, 2, 57, 64
4, 149040, Note_on_c, 2, 55, 92
4, 149440, Note_off_c, 2, 55, 64
4, 149520, Note_on_c, 2, 54, 92
4, 149755, Note_off_c, 2, 54, 64
4, 149760, Note_on_c, 2, 52, 75
4, 149995, Note_off_c, 2, 52, 64
4, 150000, Note_on_c, 2, 52, 75
4, 150235, Note_off_c, 2, 52, 64
4, 150240, Note_on_c, 2, 52, 75
4, 150475, Note_off_c, 2, 52, 64
4, 150480, Note_on_c, 2, 52, 75
4, 150715, Note_off_c, 2, 52, 64
4, 150720, Note_on_c, 2, 52, 75
4, 150955, Note_off_c, 2, 52, 64
4, 150960, Note_on_c, 2, 52, 75
4, 151195, Note_off_c, 2, 52, 64
4, 151200, Note_on_c, 2, 52, 75
4, 151435, Note_off_c, 2, 52, 64
4, 151440, Note_on_c, 2, 52, 75
4, 151675, Note_off_c, 2, 52, 64
4, 151680, Note_on_c, 2, 64, 75
4, 151915, Note_off_c, 2, 64, 64
4, 151920, Note_on_c, 2, 64, 75
4, 152155, Note_off_c, 2, 64, 64
4, 152160, Note_on_c, 2, 64, 75
4, 152395, Note_off_c, 2, 64, 64
4, 152400, Note_on_c, 2, 64, 75
4, 152635, Note_off_c, 2, 64, 64
4, 152640, Note_on_c, 2, 64, 75
4, 152875, Note_off_c, 2, 64, 64
4, 152880, Note_on_c, 2, 64, 75
4, 153115, Note_off_c, 2, 64, 64
4, 153120, Note_on_c, 2, 64, 75
4, 153355, Note_off_c, 2, 64, 64
4, 153360, Note_on_c, 2, 64, 75
4, 153595, Note_off_c, 2, 64, 64
4, 153600, Note_on_c, 2, 54, 75
4, 155755, Note_off_c, 2, 54, 64
4, 155760, Note_on_c, 2, 62, 92
4, 156000, Note_off_c, 2, 62, 64
4, 156000, Note_on_c, 2, 66, 92
4, 156240, Note_off_c, 2, 66, 64
4, 156240, Note_on_c, 2, 62, 92
4, 156480, Note_off_c, 2, 62, 64
4, 156480, Note_on_c, 2, 59, 92
4, 156880, Note_off_c, 2, 59, 64
4, 157440, Note_on_c, 2, 54, 75
4, 159595, Note_off_c, 2, 54, 64
4, 159600, Note_on_c, 2, 66, 75
4, 160000, Note_off_c, 2, 66, 64
4, 160080, Note_on_c, 2, 66, 75
4, 160315, Note_off_c, 2, 66, 64
4, 160320, Note_on_c, 2, 64, 75
4, 160555, Note_off_c, 2, 64, 64
4, 160560, Note_on_c, 2, 64, 75
4, 160795, Note_off_c, 2, 64, 64
4, 160800, Note_on_c, 2, 64, 75
4, 161035, Note_off_c, 2, 64, 64
4, 161040, Note_on_c, 2, 64, 75
4, 161275, Note_off_c, 2, 64, 64
4, 161280, Note_on_c, 2, 64, 75
4, 161515, Note_off_c, 2, 64, 64
4, 161520, Note_on_c, 2, 64, 75
4, 161920, Note_off_c, 2, 64, 64
4, 162000, Note_on_c, 2, 64, 75
4, 162235, Note_off_c, 2, 64, 64
4, 162240, Note_on_c, 2, 62, 75
4, 162475, Note_off_c, 2, 62, 64
4, 162480, Note_on_c, 2, 62, 75
4, 162715, Note_off_c, 2, 62, 64
4, 162720, Note_on_c, 2, 62, 75
4, 162955, Note_off_c, 2, 62, 64
4, 162960, Note_on_c, 2, 62, 75
4, 163195, Note_off_c, 2, 62, 64
4, 163200, Note_on_c, 2, 62, 75
4, 163600, Note_off_c, 2, 62, 64
4, 163680, Note_on_c, 2, 55, 79
4, 164520, Note_off_c, 2, 55, 64
4, 164640, Note_on_c, 2, 59, 87
4, 164880, Note_off_c, 2, 59, 64
4, 164880, Note_on_c, 2, 64, 89
4, 165115, Note_off_c, 2, 64, 64
4, 165120, Note_on_c, 2, 64, 92
4, 165520, Note_off_c, 2, 64, 64
4, 165660, Note_on_c, 2, 69, 92
4, 165895, Note_off_c, 2, 69, 64
4, 166020, Note_on_c, 2, 69, 92
4, 166135, Note_off_c, 2, 69, 64
4, 166140, Note_on_c, 2, 57, 92
4, 166540, Note_off_c, 2, 57, 64
4, 167820, Program_c, 2, 45
4, 167820, Note_on_c, 2, 50, 30
4, 168220, Note_off_c, 2, 50, 64
4, 168780, Note_on_c, 2, 50, 30
4, 169180, Note_off_c, 2, 50, 64
4, 169740, Note_on_c, 2, 55, 30
4, 170140, Note_off_c, 2, 55, 64
4, 170700, Note_on_c, 2, 55, 30
4, 171100, Note_off_c, 2, 55, 64
4, 171660, Note_on_c, 2, 57, 30
4, 172060, Note_off_c, 2, 57, 64
4, 172620, Note_on_c, 2, 57, 30
4, 173020, Note_off_c, 2, 57, 64
4, 173580, Note_on_c, 2, 58, 30
4, 173980, Note_off_c, 2, 58, 64
4, 174540, Note_on_c, 2, 58, 30
4, 174940, Note_off_c, 2, 58, 64
4, 175500, Note_on_c, 2, 53, 30
4, 175900, Note_off_c, 2, 53, 64
4, 176460, Note_on_c, 2, 53, 30
4, 176860, Note_off_c, 2, 53, 64
4, 177420, Note_on_c, 2, 55, 30
4, 177820, Note_off_c, 2, 55, 64
4, 178380, Note_on_c, 2, 55, 30
4, 178780, Note_off_c, 2, 55, 64
4, 179340, Note_on_c, 2, 55, 30
4, 179740, Note_off_c, 2, 55, 64
4, 179820, Note_on_c, 2, 55, 30
4, 180220, Note_off_c, 2, 55, 64
4, 180300, Note_on_c, 2, 56, 30
4, 180700, Note_off_c, 2, 56, 64
4, 180780, Note_on_c, 2, 57, 30
4, 181180, Note_off_c, 2, 57, 64
4, 181260, Note_on_c, 2, 57, 30
4, 181660, Note_off_c, 2, 57, 64
4, 182220, Note_on_c, 2, 57, 30
4, 182620, Note_off_c, 2, 57, 64
4, 183180, Note_on_c, 2, 57, 30
4, 183580, Note_off_c, 2, 57, 64
4, 184140, Note_on_c, 2, 57, 30
4, 184540, Note_off_c, 2, 57, 64
4, 185100, Note_on_c, 2, 57, 30
4, 185500, Note_off_c, 2, 57, 64
4, 186060, Note_on_c, 2, 57, 30
4, 186460, Note_off_c, 2, 57, 64
4, 186540, Note_on_c, 2, 58, 30
4, 186940, Note_off_c, 2, 58, 64
4, 187500, Note_on_c, 2, 62, 30
4, 187900, Note_off_c, 2, 62, 64
4, 188460, Note_on_c, 2, 64, 30
4, 188860, Note_off_c, 2, 64, 64
4, 190380, Program_c, 2, 50
4, 192300, Note_on_c, 2, 62, 75
4, 192535, Note_off_c, 2, 62, 64
4, 192540, Note_on_c, 2, 62, 75
4, 192775, Note_off_c, 2, 62, 64
4, 192780, Note_on_c, 2, 62, 75
4, 193015, Note_off_c, 2, 62, 64
4, 193020, Note_on_c, 2, 62, 75
4, 193255, Note_off_c, 2, 62, 64
4, 193260, Note_on_c, 2, 62, 75
4, 193495, Note_off_c, 2, 62, 64
4, 193500, Note_on_c, 2, 62, 75
4, 193735, Note_off_c, 2, 62, 64
4, 193740, Note_on_c, 2, 62, 75
4, 193975, Note_off_c, 2, 62, 64
4, 193980, Note_on_c, 2, 62, 75
4, 194215, Note_off_c, 2, 62, 64
4, 194220, Note_on_c, 2, 62, 75
4, 194455, Note_off_c, 2, 62, 64
4, 194460, Note_on_c, 2, 62, 75
4, 194695, Note_off_c, 2, 62, 64
4, 194700, Note_on_c, 2, 62, 75
4, 194935, Note_off_c, 2, 62, 64
4, 194940, Note_on_c, 2, 62, 75
4, 195175, Note_off_c, 2, 62, 64
4, 195180, Note_on_c, 2, 57, 75
4, 195415, Note_off_c, 2, 57, 64
4, 195420, Note_on_c, 2, 57, 75
4, 195655, Note_off_c, 2, 57, 64
4, 195660, Note_on_c, 2, 57, 75
4, 195895, Note_off_c, 2, 57, 64
4, 195900, Note_on_c, 2, 57, 75
4, 196135, Note_off_c, 2, 57, 64
4, 196140, Note_on_c, 2, 57, 75
4, 198295, Note_off_c, 2, 57, 64
4, 198300, Note_on_c, 2, 66, 92
4, 198540, Note_off_c, 2, 66, 64
4, 198540, Note_on_c, 2, 69, 92
4, 198780, Note_off_c, 2, 69, 64
4, 198780, Note_on_c, 2, 66, 92
4, 199020, Note_off_c, 2, 66, 64
4, 199020, Note_on_c, 2, 62, 92
4, 199100, Note_off_c, 2, 62, 64
4, 199260, Note_on_c, 2, 57, 92
4, 199500, Note_off_c, 2, 57, 64
4, 199500, Note_on_c, 2, 62, 92
4, 199740, Note_off_c, 2, 62, 64
4, 199740, Note_on_c, 2, 66, 92
4, 199975, Note_off_c, 2, 66, 64
4, 199980, Note_on_c, 2, 57, 75
4, 201980, Note_off_c, 2, 57, 64
4, 202140, Note_on_c, 2, 62, 75
4, 202540, Note_off_c, 2, 62, 64
4, 202620, Note_on_c, 2, 66, 75
4, 203020, Note_off_c, 2, 66, 64
4, 203100, Note_on_c, 2, 66, 75
4, 203340, Note_off_c, 2, 66, 64
4, 203340, Note_on_c, 2, 64, 75
4, 203580, Note_off_c, 2, 64, 64
4, 203580, Note_on_c, 2, 67, 75
4, 203815, Note_off_c, 2, 67, 64
4, 203820, Note_on_c, 2, 66, 75
4, 204055, Note_off_c, 2, 66, 64
4, 204060, Note_on_c, 2, 66, 75
4, 204295, Note_off_c, 2, 66, 64
4, 204300, Note_on_c, 2, 66, 75
4, 204535, Note_off_c, 2, 66, 64
4, 204540, Note_on_c, 2, 66, 75
4, 204775, Note_off_c, 2, 66, 64
4, 204780, Note_on_c, 2, 69, 75
4, 205015, Note_off_c, 2, 69, 64
4, 205020, Note_on_c, 2, 69, 75
4, 205255, Note_off_c, 2, 69, 64
4, 205260, Note_on_c, 2, 69, 75
4, 205495, Note_off_c, 2, 69, 64
4, 205500, Note_on_c, 2, 69, 75
4, 205735, Note_off_c, 2, 69, 64
4, 205740, Note_on_c, 2, 67, 75
4, 205975, Note_off_c, 2, 67, 64
4, 205980, Note_on_c, 2, 67, 75
4, 206215, Note_off_c, 2, 67, 64
4, 206220, Note_on_c, 2, 67, 75
4, 206455, Note_off_c, 2, 67, 64
4, 206460, Note_on_c, 2, 67, 75
4, 206695, Note_off_c, 2, 67, 64
4, 206700, Note_on_c, 2, 67, 75
4, 206935, Note_off_c, 2, 67, 64
4, 206940, Note_on_c, 2, 67, 75
4, 207180, Note_off_c, 2, 67, 64
4, 207180, Note_on_c, 2, 71, 75
4, 207420, Note_off_c, 2, 71, 64
4, 207420, Note_on_c, 2, 64, 75
4, 207655, Note_off_c, 2, 64, 64
4, 207660, Note_on_c, 2, 69, 75
4, 207895, Note_off_c, 2, 69, 64
4, 207900, Note_on_c, 2, 57, 75
4, 208135, Note_off_c, 2, 57, 64
4, 208140, Note_on_c, 2, 57, 75
4, 208375, Note_off_c, 2, 57, 64
4, 208380, Note_on_c, 2, 57, 75
4, 208615, Note_off_c, 2, 57, 64
4, 208620, Note_on_c, 2, 57, 75
4, 208855, Note_off_c, 2, 57, 64
4, 208860, Note_on_c, 2, 57, 75
4, 209095, Note_off_c, 2, 57, 64
4, 209100, Note_on_c, 2, 57, 75
4, 209335, Note_off_c, 2, 57, 64
4, 209340, Note_on_c, 2, 57, 75
4, 209575, Note_off_c, 2, 57, 64
4, 209580, Note_on_c, 2, 57, 75
4, 209815, Note_off_c, 2, 57, 64
4, 209820, Note_on_c, 2, 57, 75
4, 210055, Note_off_c, 2, 57, 64
4, 210060, Note_on_c, 2, 57, 75
4, 210295, Note_off_c, 2, 57, 64
4, 210300, Note_on_c, 2, 57, 75
4, 210535, Note_off_c, 2, 57, 64
4, 210540, Note_on_c, 2, 57, 75
4, 210775, Note_off_c, 2, 57, 64
4, 210780, Note_on_c, 2, 57, 75
4, 211015, Note_off_c, 2, 57, 64
4, 211020, Note_on_c, 2, 57, 75
4, 211255, Note_off_c, 2, 57, 64
4, 211260, Note_on_c, 2, 57, 75
4, 211495, Note_off_c, 2, 57, 64
4, 211500, Note_on_c, 2, 57, 75
4, 211900, Note_off_c, 2, 57, 64
4, 212220, Note_on_c, 2, 69, 75
4, 212455, Note_off_c, 2, 69, 64
4, 212460, Note_on_c, 2, 69, 75
4, 212860, Note_off_c, 2, 69, 64
4, 213180, Note_on_c, 2, 64, 75
4, 213415, Note_off_c, 2, 64, 64
4, 213420, Note_on_c, 2, 62, 75
4, 213820, Note_off_c, 2, 62, 64
4, 214140, Note_on_c, 2, 69, 75
4, 214375, Note_off_c, 2, 69, 64
4, 214380, Note_on_c, 2, 69, 75
4, 214780, Note_off_c, 2, 69, 64
4, 215100, Note_on_c, 2, 67, 75
4, 215335, Note_off_c, 2, 67, 64
4, 215340, Note_on_c, 2, 66, 75
4, 215420, Note_off_c, 2, 66, 64
4, 215580, Note_on_c, 2, 66, 75
4, 215660, Note_off_c, 2, 66, 64
4, 215820, Note_on_c, 2, 66, 75
4, 215900, Note_off_c, 2, 66, 64
4, 216060, Note_on_c, 2, 66, 75
4, 216140, Note_off_c, 2, 66, 64
4, 216300, Note_on_c, 2, 66, 75
4, 216380, Note_off_c, 2, 66, 64
4, 216540, Note_on_c, 2, 66, 75
4, 216620, Note_off_c, 2, 66, 64
4, 216780, Note_on_c, 2, 66, 75
4, 216860, Note_off_c, 2, 66, 64
4, 217020, Note_on_c, 2, 66, 75
4, 217100, Note_off_c, 2, 66, 64
4, 217260, Note_on_c, 2, 66, 75
4, 217340, Note_off_c, 2, 66, 64
4, 217500, Note_on_c, 2, 66, 75
4, 217580, Note_off_c, 2, 66, 64
4, 217740, Note_on_c, 2, 66, 75
4, 217820, Note_off_c, 2, 66, 64
4, 217980, Note_on_c, 2, 66, 75
4, 218060, Note_off_c, 2, 66, 64
4, 218220, Note_on_c, 2, 57, 75
4, 218220, Note_on_c, 2, 66, 75
4, 218300, Note_off_c, 2, 66, 64
4, 218300, Note_off_c, 2, 57, 64
4, 218460, Note_on_c, 2, 57, 75
4, 218460, Note_on_c, 2, 66, 75
4, 218540, Note_off_c, 2, 66, 64
4, 218540, Note_off_c, 2, 57, 64
4, 218700, Note_on_c, 2, 57, 75
4, 218700, Note_on_c, 2, 66, 75
4, 218780, Note_off_c, 2, 66, 64
4, 218780, Note_off_c, 2, 57, 64
4, 218940, Note_on_c, 2, 57, 75
4, 218940, Note_on_c, 2, 66, 75
4, 219020, Note_off_c, 2, 66, 64
4, 219020, Note_off_c, 2, 57, 64
4, 219180, Note_on_c, 2, 62, 75
4, 219260, Note_off_c, 2, 62, 64
4, 219420, Note_on_c, 2, 62, 75
4, 219500, Note_off_c, 2, 62, 64
4, 219660, Note_on_c, 2, 62, 75
4, 219740, Note_off_c, 2, 62, 64
4, 219900, Note_on_c, 2, 62, 75
4, 219980, Note_off_c, 2, 62, 64
4, 220140, Note_on_c, 2, 62, 75
4, 220220, Note_off_c, 2, 62, 64
4, 220380, Note_on_c, 2, 62, 75
4, 220460, Note_off_c, 2, 62, 64
4, 220620, Note_on_c, 2, 62, 75
4, 220700, Note_off_c, 2, 62, 64
4, 220860, Note_on_c, 2, 62, 75
4, 220940, Note_off_c, 2, 62, 64
4, 221100, Note_on_c, 2, 66, 75
4, 221100, Note_on_c, 2, 69, 75
4, 221180, Note_off_c, 2, 69, 64
4, 221180, Note_off_c, 2, 66, 64
4, 221340, Note_on_c, 2, 66, 75
4, 221340, Note_on_c, 2, 69, 75
4, 221420, Note_off_c, 2, 69, 64
4, 221420, Note_off_c, 2, 66, 64
4, 221580, Note_on_c, 2, 66, 75
4, 221580, Note_on_c, 2, 69, 75
4, 221660, Note_off_c, 2, 69, 64
4, 221660, Note_off_c, 2, 66, 64
4, 221820, Note_on_c, 2, 66, 75
4, 221820, Note_on_c, 2, 69, 75
4, 221900, Note_off_c, 2, 69, 64
4, 221900, Note_off_c, 2, 66, 64
4, 222060, Note_on_c, 2, 66, 75
4, 222060, Note_on_c, 2, 69, 75
4, 222140, Note_off_c, 2, 69, 64
4, 222140, Note_off_c, 2, 66, 64
4, 222300, Note_on_c, 2, 62, 75
4, 222700, Note_off_c, 2, 62, 64
4, 222780, Note_on_c, 2, 62, 75
4, 223255, Note_off_c, 2, 62, 64
4, 223260, Note_on_c, 2, 62, 75
4, 223660, Note_off_c, 2, 62, 64
4, 223740, Note_on_c, 2, 62, 75
4, 224140, Note_off_c, 2, 62, 64
4, 224220, Note_on_c, 2, 62, 75
4, 224620, Note_off_c, 2, 62, 64
4, 224700, Note_on_c, 2, 62, 75
4, 225340, Note_off_c, 2, 62, 64
4, 225420, Note_on_c, 2, 69, 75
4, 225900, Note_off_c, 2, 69, 64
4, 225900, Note_on_c, 2, 67, 75
4, 226300, Note_off_c, 2, 67, 64
4, 226380, Note_on_c, 2, 64, 75
4, 226780, Note_off_c, 2, 64, 64
4, 226860, Note_on_c, 2, 64, 75
4, 227260, Note_off_c, 2, 64, 64
4, 227340, Note_on_c, 2, 69, 75
4, 227820, Note_off_c, 2, 69, 64
4, 227820, Note_on_c, 2, 68, 75
4, 228220, Note_off_c, 2, 68, 64
4, 228300, Note_on_c, 2, 59, 75
4, 228540, Note_off_c, 2, 59, 64
4, 228540, Note_on_c, 2, 56, 75
4, 228775, Note_off_c, 2, 56, 64
4, 228780, Note_on_c, 2, 57, 75
4, 229180, Note_off_c, 2, 57, 64
4, 229260, Note_on_c, 2, 67, 75
4, 229740, Note_off_c, 2, 67, 64
4, 229740, Note_on_c, 2, 64, 75
4, 230140, Note_off_c, 2, 64, 64
4, 230220, Note_on_c, 2, 61, 75
4, 230220, Note_on_c, 2, 64, 75
4, 230620, Note_off_c, 2, 64, 64
4, 230620, Note_off_c, 2, 61, 64
4, 230700, Note_on_c, 2, 62, 75
4, 231540, Note_off_c, 2, 62, 64
4, 231660, Note_on_c, 2, 61, 75
4, 232060, Note_off_c, 2, 61, 64
4, 232140, Note_on_c, 2, 64, 75
4, 232380, Note_off_c, 2, 64, 64
4, 232380, Note_on_c, 2, 61, 75
4, 232615, Note_off_c, 2, 61, 64
4, 232620, Note_on_c, 2, 62, 75
4, 232860, Note_off_c, 2, 62, 64
4, 232860, Note_on_c, 2, 66, 75
4, 233100, Note_off_c, 2, 66, 64
4, 233100, Note_on_c, 2, 69, 75
4, 233340, Note_off_c, 2, 69, 64
4, 233340, Note_on_c, 2, 62, 75
4, 233580, Note_off_c, 2, 62, 64
4, 233580, Note_on_c, 2, 61, 75
4, 233980, Note_off_c, 2, 61, 64
4, 234060, Note_on_c, 2, 64, 75
4, 234300, Note_off_c, 2, 64, 64
4, 234300, Note_on_c, 2, 61, 75
4, 234540, Note_off_c, 2, 61, 64
4, 234540, Note_on_c, 2, 62, 75
4, 234940, Note_off_c, 2, 62, 64
4, 236700, Note_on_c, 2, 62, 92
4, 236780, Note_off_c, 2, 62, 64
4, 236940, Note_on_c, 2, 50, 92
4, 237020, Note_off_c, 2, 50, 64
4, 237180, Note_on_c, 2, 52, 92
4, 237210, Note_off_c, 2, 52, 64
4, 237210, Note_on_c, 2, 54, 92
4, 237240, Note_off_c, 2, 54, 64
4, 237240, Note_on_c, 2, 52, 92
4, 237270, Note_off_c, 2, 52, 64
4, 237270, Note_on_c, 2, 54, 92
4, 237300, Note_off_c, 2, 54, 64
4, 237300, Note_on_c, 2, 52, 92
4, 237330, Note_off_c, 2, 52, 64
4, 237330, Note_on_c, 2, 54, 92
4, 237360, Note_off_c, 2, 54, 64
4, 237360, Note_on_c, 2, 52, 92
4, 237390, Note_off_c, 2, 52, 64
4, 237390, Note_on_c, 2, 54, 92
4, 237420, Note_off_c, 2, 54, 64
4, 237420, Note_on_c, 2, 54, 92
4, 237500, Note_off_c, 2, 54, 64
4, 237660, Note_on_c, 2, 57, 92
4, 238140, Note_off_c, 2, 57, 64
4, 238140, Note_on_c, 2, 61, 92
4, 238375, Note_off_c, 2, 61, 64
4, 238380, Note_on_c, 2, 62, 92
4, 238615, Note_off_c, 2, 62, 64
4, 238620, Note_on_c, 2, 62, 92
4, 239020, Note_off_c, 2, 62, 64
4, 239100, Note_on_c, 2, 62, 92
4, 239500, Note_off_c, 2, 62, 64
4, 239580, Note_on_c, 2, 69, 92
4, 239820, Note_off_c, 2, 69, 64
4, 239820, Note_on_c, 2, 67, 92
4, 240060, Note_off_c, 2, 67, 64
4, 240060, Note_on_c, 2, 66, 92
4, 240300, Note_off_c, 2, 66, 64
4, 240300, Note_on_c, 2, 67, 92
4, 240380, Note_off_c, 2, 67, 64
4, 240540, Note_on_c, 2, 67, 92
4, 240620, Note_off_c, 2, 67, 64
4, 240780, Note_on_c, 2, 67, 92
4, 240860, Note_off_c, 2, 67, 64
4, 241020, Note_on_c, 2, 67, 92
4, 241100, Note_off_c, 2, 67, 64
4, 241260, Note_on_c, 2, 55, 92
4, 241340, Note_off_c, 2, 55, 64
4, 241500, Note_on_c, 2, 55, 92
4, 241580, Note_off_c, 2, 55, 64
4, 241740, Note_on_c, 2, 55, 92
4, 241820, Note_off_c, 2, 55, 64
4, 241980, Note_on_c, 2, 55, 92
4, 242060, Note_off_c, 2, 55, 64
4, 242220, Note_on_c, 2, 57, 92
4, 242300, Note_off_c, 2, 57, 64
4, 242460, Note_on_c, 2, 54, 89
4, 242540, Note_off_c, 2, 54, 64
4, 242700, Note_on_c, 2, 54, 86
4, 242780, Note_off_c, 2, 54, 64
4, 242940, Note_on_c, 2, 54, 82
4, 243020, Note_off_c, 2, 54, 64
4, 243180, Note_on_c, 2, 54, 78
4, 243260, Note_off_c, 2, 54, 64
4, 243420, Note_on_c, 2, 54, 74
4, 243500, Note_off_c, 2, 54, 64
4, 243660, Note_on_c, 2, 54, 70
4, 243740, Note_off_c, 2, 54, 64
4, 243900, Note_on_c, 2, 54, 66
4, 243980, Note_off_c, 2, 54, 64
4, 244140, Note_on_c, 2, 55, 62
4, 244220, Note_off_c, 2, 55, 64
4, 244380, Note_on_c, 2, 55, 58
4, 244460, Note_off_c, 2, 55, 64
4, 244620, Note_on_c, 2, 55, 54
4, 244700, Note_off_c, 2, 55, 64
4, 244860, Note_on_c, 2, 55, 50
4, 244940, Note_off_c, 2, 55, 64
4, 245100, Note_on_c, 2, 59, 46
4, 245180, Note_off_c, 2, 59, 64
4, 245340, Note_on_c, 2, 59, 42
4, 245420, Note_off_c, 2, 59, 64
4, 245580, Note_on_c, 2, 57, 38
4, 245660, Note_off_c, 2, 57, 64
4, 245820, Note_on_c, 2, 57, 34
4, 245900, Note_off_c, 2, 57, 64
4, 246060, Note_on_c, 2, 57, 30
4, 246300, Note_off_c, 2, 57, 64
4, 246300, Note_on_c, 2, 66, 30
4, 246380, Note_off_c, 2, 66, 64
4, 246540, Note_on_c, 2, 66, 30
4, 246620, Note_off_c, 2, 66, 64
4, 246780, Note_on_c, 2, 66, 30
4, 246860, Note_off_c, 2, 66, 64
4, 247020, Note_on_c, 2, 66, 30
4, 247420, Note_off_c, 2, 66, 64
4, 247980, Note_on_c, 2, 59, 30
4, 248220, Note_off_c, 2, 59, 64
4, 248220, Note_on_c, 2, 62, 30
4, 248300, Note_off_c, 2, 62, 64
4, 248460, Note_on_c, 2, 62, 34
4, 248540, Note_off_c, 2, 62, 64
4, 248700, Note_on_c, 2, 62, 38
4, 248780, Note_off_c, 2, 62, 64
4, 248940, Note_on_c, 2, 62, 42
4, 249340, Note_off_c, 2, 62, 64
4, 249900, Note_on_c, 2, 62, 60
4, 250140, Note_off_c, 2, 62, 64
4, 250140, Note_on_c, 2, 66, 60
4, 250220, Note_off_c, 2, 66, 64
4, 250380, Note_on_c, 2, 66, 62
4, 250460, Note_off_c, 2, 66, 64
4, 250620, Note_on_c, 2, 66, 64
4, 250700, Note_off_c, 2, 66, 64
4, 250860, Note_on_c, 2, 66, 66
4, 251260, Note_off_c, 2, 66, 64
4, 251820, Note_on_c, 2, 67, 75
4, 252220, Note_off_c, 2, 67, 64
4, 254220, Note_on_c, 2, 54, 92
4, 254700, Note_off_c, 2, 54, 64
4, 254700, Note_on_c, 2, 55, 92
4, 255180, Note_off_c, 2, 55, 64
4, 255180, Note_on_c, 2, 54, 92
4, 255660, Note_off_c, 2, 54, 64
4, 255660, Note_on_c, 2, 55, 92
4, 255895, Note_off_c, 2, 55, 64
4, 255900, Note_on_c, 2, 67, 92
4, 256300, Note_off_c, 2, 67, 64
4, 256380, Note_on_c, 2, 67, 92
4, 256780, Note_off_c, 2, 67, 64
4, 256860, Note_on_c, 2, 67, 92
4, 257260, Note_off_c, 2, 67, 64
4, 257340, Note_on_c, 2, 67, 92
4, 257575, Note_off_c, 2, 67, 64
4, 257580, Note_on_c, 2, 69, 92
4, 257815, Note_off_c, 2, 69, 64
4, 257820, Note_on_c, 2, 69, 92
4, 258055, Note_off_c, 2, 69, 64
4, 258060, Note_on_c, 2, 69, 92
4, 258295, Note_off_c, 2, 69, 64
4, 258300, Note_on_c, 2, 69, 92
4, 258535, Note_off_c, 2, 69, 64
4, 258540, Note_on_c, 2, 57, 92
4, 258775, Note_off_c, 2, 57, 64
4, 258780, Note_on_c, 2, 57, 92
4, 259015, Note_off_c, 2, 57, 64
4, 259020, Note_on_c, 2, 55, 92
4, 259255, Note_off_c, 2, 55, 64
4, 259260, Note_on_c, 2, 55, 92
4, 259495, Note_off_c, 2, 55, 64
4, 259500, Note_on_c, 2, 54, 92
4, 259580, Note_off_c, 2, 54, 64
4, 259740, Note_on_c, 2, 66, 92
4, 259980, Note_off_c, 2, 66, 64
4, 259980, Note_on_c, 2, 67, 92
4, 260220, Note_off_c, 2, 67, 64
4, 260220, Note_on_c, 2, 64, 92
4, 260460, Note_off_c, 2, 64, 64
4, 260460, Note_on_c, 2, 66, 92
4, 260540, Note_off_c, 2, 66, 64
4, 260700, Note_on_c, 2, 62, 92
4, 260940, Note_off_c, 2, 62, 64
4, 260940, Note_on_c, 2, 59, 92
4, 261180, Note_off_c, 2, 59, 64
4, 261180, Note_on_c, 2, 55, 92
4, 261420, Note_off_c, 2, 55, 64
4, 261420, Note_on_c, 2, 54, 92
4, 261500, Note_off_c, 2, 54, 64
4, 261660, Note_on_c, 2, 66, 87
4, 261900, Note_off_c, 2, 66, 64
4, 261900, Note_on_c, 2, 67, 81
4, 262140, Note_off_c, 2, 67, 64
4, 262140, Note_on_c, 2, 64, 75
4, 262380, Note_off_c, 2, 64, 64
4, 262380, Note_on_c, 2, 66, 69
4, 262460, Note_off_c, 2, 66, 64
4, 262620, Note_on_c, 2, 62, 63
4, 262860, Note_off_c, 2, 62, 64
4, 262860, Note_on_c, 2, 59, 57
4, 263100, Note_off_c, 2, 59, 64
4, 263100, Note_on_c, 2, 55, 51
4, 263340, Note_off_c, 2, 55, 64
4, 263340, Note_on_c, 2, 54, 45
4, 263420, Note_off_c, 2, 54, 64
4, 263580, Note_on_c, 2, 62, 45
4, 263700, Note_off_c, 2, 62, 64
4, 263700, Note_on_c, 2, 61, 43
4, 263820, Note_off_c, 2, 61, 64
4, 263820, Note_on_c, 2, 62, 41
4, 263940, Note_off_c, 2, 62, 64
4, 263940, Note_on_c, 2, 61, 39
4, 264060, Note_off_c, 2, 61, 64
4, 264060, Note_on_c, 2, 62, 36
4, 264180, Note_off_c, 2, 62, 64
4, 264180, Note_on_c, 2, 61, 33
4, 264300, Note_off_c, 2, 61, 64
4, 264300, Note_on_c, 2, 62, 30
4, 264700, Note_off_c, 2, 62, 64
4, 264700, End_track
5, 0, Start_track
5, 0, MIDI_port, 0
5, 0, Channel_prefix, 3
5, 0, Control_c, 3, 7, 127
5, 0, Control_c, 3, 10, 102
5, 0, Control_c, 3, 91, 55
5, 0, Program_c, 3, 50
5, 0, Note_on_c, 3, 50, 75
5, 80, Note_off_c, 3, 50, 64
5, 240, Note_on_c, 3, 50, 75
5, 320, Note_off_c, 3, 50, 64
5, 480, Note_on_c, 3, 50, 75
5, 560, Note_off_c, 3, 50, 64
5, 720, Note_on_c, 3, 50, 75
5, 800, Note_off_c, 3, 50, 64
5, 960, Note_on_c, 3, 50, 75
5, 1040, Note_off_c, 3, 50, 64
5, 1200, Note_on_c, 3, 50, 75
5, 1280, Note_off_c, 3, 50, 64
5, 1440, Note_on_c, 3, 50, 75
5, 1520, Note_off_c, 3, 50, 64
5, 1680, Note_on_c, 3, 50, 75
5, 1760, Note_off_c, 3, 50, 64
5, 1920, Note_on_c, 3, 50, 75
5, 2000, Note_off_c, 3, 50, 64
5, 2160, Note_on_c, 3, 50, 75
5, 2240, Note_off_c, 3, 50, 64
5, 2400, Note_on_c, 3, 50, 75
5, 2480, Note_off_c, 3, 50, 64
5, 2640, Note_on_c, 3, 50, 75
5, 2720, Note_off_c, 3, 50, 64
5, 2880, Note_on_c, 3, 50, 75
5, 2960, Note_off_c, 3, 50, 64
5, 3120, Note_on_c, 3, 50, 75
5, 3200, Note_off_c, 3, 50, 64
5, 3360, Note_on_c, 3, 50, 75
5, 3440, Note_off_c, 3, 50, 64
5, 3600, Note_on_c, 3, 50, 75
5, 3680, Note_off_c, 3, 50, 64
5, 3840, Note_on_c, 3, 50, 75
5, 3920, Note_off_c, 3, 50, 64
5, 4080, Note_on_c, 3, 50, 75
5, 4160, Note_off_c, 3, 50, 64
5, 4320, Note_on_c, 3, 50, 75
5, 4400, Note_off_c, 3, 50, 64
5, 4560, Note_on_c, 3, 50, 75
5, 4640, Note_off_c, 3, 50, 64
5, 4800, Note_on_c, 3, 50, 75
5, 4880, Note_off_c, 3, 50, 64
5, 5040, Note_on_c, 3, 50, 75
5, 5120, Note_off_c, 3, 50, 64
5, 5280, Note_on_c, 3, 50, 75
5, 5360, Note_off_c, 3, 50, 64
5, 5520, Note_on_c, 3, 50, 75
5, 5600, Note_off_c, 3, 50, 64
5, 5760, Note_on_c, 3, 50, 75
5, 5840, Note_off_c, 3, 50, 64
5, 6000, Note_on_c, 3, 50, 75
5, 6080, Note_off_c, 3, 50, 64
5, 6240, Note_on_c, 3, 50, 75
5, 6320, Note_off_c, 3, 50, 64
5, 6480, Note_on_c, 3, 50, 75
5, 6560, Note_off_c, 3, 50, 64
5, 6720, Note_on_c, 3, 50, 75
5, 6800, Note_off_c, 3, 50, 64
5, 6960, Note_on_c, 3, 50, 75
5, 7040, Note_off_c, 3, 50, 64
5, 7200, Note_on_c, 3, 50, 75
5, 7280, Note_off_c, 3, 50, 64
5, 7440, Note_on_c, 3, 50, 75
5, 7520, Note_off_c, 3, 50, 64
5, 7680, Note_on_c, 3, 45, 75
5, 7760, Note_off_c, 3, 45, 64
5, 7920, Note_on_c, 3, 45, 75
5, 8000, Note_off_c, 3, 45, 64
5, 8160, Note_on_c, 3, 45, 75
5, 8240, Note_off_c, 3, 45, 64
5, 8400, Note_on_c, 3, 45, 75
5, 8480, Note_off_c, 3, 45, 64
5, 8640, Note_on_c, 3, 45, 75
5, 8720, Note_off_c, 3, 45, 64
5, 8880, Note_on_c, 3, 45, 75
5, 8960, Note_off_c, 3, 45, 64
5, 9120, Note_on_c, 3, 45, 75
5, 9200, Note_off_c, 3, 45, 64
5, 9360, Note_on_c, 3, 45, 75
5, 9440, Note_off_c, 3, 45, 64
5, 9600, Note_on_c, 3, 50, 75
5, 9680, Note_off_c, 3, 50, 64
5, 9840, Note_on_c, 3, 50, 75
5, 9920, Note_off_c, 3, 50, 64
5, 10080, Note_on_c, 3, 50, 75
5, 10160, Note_off_c, 3, 50, 64
5, 10320, Note_on_c, 3, 50, 75
5, 10400, Note_off_c, 3, 50, 64
5, 10560, Note_on_c, 3, 50, 75
5, 10640, Note_off_c, 3, 50, 64
5, 10800, Note_on_c, 3, 50, 75
5, 10880, Note_off_c, 3, 50, 64
5, 11040, Note_on_c, 3, 52, 75
5, 11120, Note_off_c, 3, 52, 64
5, 11280, Note_on_c, 3, 52, 75
5, 11360, Note_off_c, 3, 52, 64
5, 11520, Note_on_c, 3, 54, 75
5, 11600, Note_off_c, 3, 54, 64
5, 11760, Note_on_c, 3, 54, 75
5, 11840, Note_off_c, 3, 54, 64
5, 12000, Note_on_c, 3, 54, 75
5, 12080, Note_off_c, 3, 54, 64
5, 12240, Note_on_c, 3, 54, 75
5, 12320, Note_off_c, 3, 54, 64
5, 12480, Note_on_c, 3, 54, 75
5, 12560, Note_off_c, 3, 54, 64
5, 12720, Note_on_c, 3, 54, 75
5, 12800, Note_off_c, 3, 54, 64
5, 12960, Note_on_c, 3, 54, 75
5, 13040, Note_off_c, 3, 54, 64
5, 13200, Note_on_c, 3, 54, 75
5, 13280, Note_off_c, 3, 54, 64
5, 13440, Note_on_c, 3, 55, 75
5, 13520, Note_off_c, 3, 55, 64
5, 13680, Note_on_c, 3, 55, 75
5, 13760, Note_off_c, 3, 55, 64
5, 13920, Note_on_c, 3, 55, 75
5, 14000, Note_off_c, 3, 55, 64
5, 14160, Note_on_c, 3, 55, 75
5, 14240, Note_off_c, 3, 55, 64
5, 14400, Note_on_c, 3, 55, 75
5, 14480, Note_off_c, 3, 55, 64
5, 14640, Note_on_c, 3, 55, 75
5, 14720, Note_off_c, 3, 55, 64
5, 14880, Note_on_c, 3, 55, 75
5, 14960, Note_off_c, 3, 55, 64
5, 15120, Note_on_c, 3, 55, 75
5, 15200, Note_off_c, 3, 55, 64
5, 15360, Note_on_c, 3, 57, 75
5, 15440, Note_off_c, 3, 57, 64
5, 15600, Note_on_c, 3, 57, 75
5, 15680, Note_off_c, 3, 57, 64
5, 15840, Note_on_c, 3, 57, 75
5, 15920, Note_off_c, 3, 57, 64
5, 16080, Note_on_c, 3, 57, 75
5, 16160, Note_off_c, 3, 57, 64
5, 16320, Note_on_c, 3, 57, 75
5, 16400, Note_off_c, 3, 57, 64
5, 16560, Note_on_c, 3, 57, 75
5, 16640, Note_off_c, 3, 57, 64
5, 16800, Note_on_c, 3, 57, 75
5, 16880, Note_off_c, 3, 57, 64
5, 17040, Note_on_c, 3, 57, 75
5, 17120, Note_off_c, 3, 57, 64
5, 17280, Note_on_c, 3, 45, 75
5, 17360, Note_off_c, 3, 45, 64
5, 17520, Note_on_c, 3, 45, 75
5, 17600, Note_off_c, 3, 45, 64
5, 17760, Note_on_c, 3, 45, 75
5, 17840, Note_off_c, 3, 45, 64
5, 18000, Note_on_c, 3, 45, 75
5, 18080, Note_off_c, 3, 45, 64
5, 18240, Note_on_c, 3, 45, 75
5, 18320, Note_off_c, 3, 45, 64
5, 18480, Note_on_c, 3, 45, 75
5, 18560, Note_off_c, 3, 45, 64
5, 18720, Note_on_c, 3, 45, 75
5, 18800, Note_off_c, 3, 45, 64
5, 18960, Note_on_c, 3, 45, 75
5, 19040, Note_off_c, 3, 45, 64
5, 19200, Note_on_c, 3, 50, 75
5, 19600, Note_off_c, 3, 50, 64
5, 19920, Note_on_c, 3, 45, 75
5, 20155, Note_off_c, 3, 45, 64
5, 20160, Note_on_c, 3, 50, 75
5, 20560, Note_off_c, 3, 50, 64
5, 20880, Note_on_c, 3, 57, 75
5, 21115, Note_off_c, 3, 57, 64
5, 21120, Note_on_c, 3, 50, 75
5, 21520, Note_off_c, 3, 50, 64
5, 21840, Note_on_c, 3, 45, 75
5, 22075, Note_off_c, 3, 45, 64
5, 22080, Note_on_c, 3, 50, 75
5, 22480, Note_off_c, 3, 50, 64
5, 22800, Note_on_c, 3, 57, 75
5, 23035, Note_off_c, 3, 57, 64
5, 23040, Note_on_c, 3, 50, 75
5, 23120, Note_off_c, 3, 50, 64
5, 23280, Note_on_c, 3, 50, 75
5, 23360, Note_off_c, 3, 50, 64
5, 23520, Note_on_c, 3, 50, 75
5, 23600, Note_off_c, 3, 50, 64
5, 23760, Note_on_c, 3, 50, 75
5, 23840, Note_off_c, 3, 50, 64
5, 24000, Note_on_c, 3, 50, 75
5, 24080, Note_off_c, 3, 50, 64
5, 24240, Note_on_c, 3, 50, 75
5, 24320, Note_off_c, 3, 50, 64
5, 24480, Note_on_c, 3, 50, 75
5, 24560, Note_off_c, 3, 50, 64
5, 24720, Note_on_c, 3, 50, 75
5, 24800, Note_off_c, 3, 50, 64
5, 24960, Note_on_c, 3, 50, 75
5, 25040, Note_off_c, 3, 50, 64
5, 25200, Note_on_c, 3, 50, 75
5, 25280, Note_off_c, 3, 50, 64
5, 25440, Note_on_c, 3, 50, 75
5, 25520, Note_off_c, 3, 50, 64
5, 25680, Note_on_c, 3, 50, 75
5, 25760, Note_off_c, 3, 50, 64
5, 25920, Note_on_c, 3, 50, 75
5, 26000, Note_off_c, 3, 50, 64
5, 26160, Note_on_c, 3, 50, 75
5, 26400, Note_off_c, 3, 50, 64
5, 26400, Note_on_c, 3, 50, 75
5, 26480, Note_off_c, 3, 50, 64
5, 26640, Note_on_c, 3, 50, 75
5, 26720, Note_off_c, 3, 50, 64
5, 26880, Note_on_c, 3, 52, 75
5, 26960, Note_off_c, 3, 52, 64
5, 27120, Note_on_c, 3, 52, 75
5, 27200, Note_off_c, 3, 52, 64
5, 27360, Note_on_c, 3, 52, 75
5, 27440, Note_off_c, 3, 52, 64
5, 27600, Note_on_c, 3, 52, 75
5, 27680, Note_off_c, 3, 52, 64
5, 27840, Note_on_c, 3, 52, 75
5, 27920, Note_off_c, 3, 52, 64
5, 28080, Note_on_c, 3, 52, 75
5, 28160, Note_off_c, 3, 52, 64
5, 28320, Note_on_c, 3, 52, 75
5, 28400, Note_off_c, 3, 52, 64
5, 28560, Note_on_c, 3, 52, 75
5, 28640, Note_off_c, 3, 52, 64
5, 28800, Note_on_c, 3, 52, 75
5, 28880, Note_off_c, 3, 52, 64
5, 29040, Note_on_c, 3, 52, 74
5, 29120, Note_off_c, 3, 52, 64
5, 29280, Note_on_c, 3, 52, 72
5, 29360, Note_off_c, 3, 52, 64
5, 29520, Note_on_c, 3, 52, 70
5, 29600, Note_off_c, 3, 52, 64
5, 29760, Note_on_c, 3, 52, 68
5, 29840, Note_off_c, 3, 52, 64
5, 30000, Note_on_c, 3, 52, 66
5, 30240, Note_off_c, 3, 52, 64
5, 30240, Note_on_c, 3, 52, 64
5, 30320, Note_off_c, 3, 52, 64
5, 30480, Note_on_c, 3, 56, 62
5, 30560, Note_off_c, 3, 56, 64
5, 30720, Note_on_c, 3, 57, 60
5, 30800, Note_off_c, 3, 57, 64
5, 30960, Note_on_c, 3, 57, 60
5, 31040, Note_off_c, 3, 57, 64
5, 31200, Note_on_c, 3, 57, 60
5, 31280, Note_off_c, 3, 57, 64
5, 31440, Note_on_c, 3, 57, 60
5, 31520, Note_off_c, 3, 57, 64
5, 31680, Note_on_c, 3, 61, 60
5, 31760, Note_off_c, 3, 61, 64
5, 31920, Note_on_c, 3, 61, 60
5, 32000, Note_off_c, 3, 61, 64
5, 32160, Note_on_c, 3, 61, 60
5, 32240, Note_off_c, 3, 61, 64
5, 32400, Note_on_c, 3, 61, 60
5, 32480, Note_off_c, 3, 61, 64
5, 32640, Note_on_c, 3, 59, 60
5, 32720, Note_off_c, 3, 59, 64
5, 32880, Note_on_c, 3, 59, 60
5, 32960, Note_off_c, 3, 59, 64
5, 33120, Note_on_c, 3, 59, 60
5, 33200, Note_off_c, 3, 59, 64
5, 33360, Note_on_c, 3, 59, 60
5, 33440, Note_off_c, 3, 59, 64
5, 33600, Note_on_c, 3, 56, 60
5, 33680, Note_off_c, 3, 56, 64
5, 33840, Note_on_c, 3, 56, 60
5, 33920, Note_off_c, 3, 56, 64
5, 34080, Note_on_c, 3, 56, 60
5, 34160, Note_off_c, 3, 56, 64
5, 34320, Note_on_c, 3, 56, 60
5, 34400, Note_off_c, 3, 56, 64
5, 34560, Note_on_c, 3, 57, 60
5, 34640, Note_off_c, 3, 57, 64
5, 34800, Note_on_c, 3, 57, 60
5, 34880, Note_off_c, 3, 57, 64
5, 35040, Note_on_c, 3, 57, 60
5, 35120, Note_off_c, 3, 57, 64
5, 35280, Note_on_c, 3, 57, 60
5, 35360, Note_off_c, 3, 57, 64
5, 35520, Note_on_c, 3, 61, 60
5, 35600, Note_off_c, 3, 61, 64
5, 35760, Note_on_c, 3, 61, 60
5, 35840, Note_off_c, 3, 61, 64
5, 36000, Note_on_c, 3, 61, 60
5, 36080, Note_off_c, 3, 61, 64
5, 36240, Note_on_c, 3, 61, 60
5, 36320, Note_off_c, 3, 61, 64
5, 36480, Note_on_c, 3, 59, 60
5, 36560, Note_off_c, 3, 59, 64
5, 36720, Note_on_c, 3, 59, 60
5, 36800, Note_off_c, 3, 59, 64
5, 36960, Note_on_c, 3, 59, 60
5, 37040, Note_off_c, 3, 59, 64
5, 37200, Note_on_c, 3, 59, 60
5, 37280, Note_off_c, 3, 59, 64
5, 37440, Note_on_c, 3, 52, 60
5, 37520, Note_off_c, 3, 52, 64
5, 37680, Note_on_c, 3, 52, 60
5, 37760, Note_off_c, 3, 52, 64
5, 37920, Note_on_c, 3, 52, 60
5, 38000, Note_off_c, 3, 52, 64
5, 38160, Note_on_c, 3, 52, 60
5, 38240, Note_off_c, 3, 52, 64
5, 38400, Note_on_c, 3, 45, 60
5, 38800, Note_off_c, 3, 45, 64
5, 41520, Note_on_c, 3, 57, 75
5, 41600, Note_off_c, 3, 57, 64
5, 41760, Note_on_c, 3, 45, 75
5, 41840, Note_off_c, 3, 45, 64
5, 42000, Note_on_c, 3, 47, 75
5, 42060, Note_off_c, 3, 47, 64
5, 42060, Note_on_c, 3, 49, 75
5, 42120, Note_off_c, 3, 49, 64
5, 42120, Note_on_c, 3, 47, 75
5, 42180, Note_off_c, 3, 47, 64
5, 42180, Note_on_c, 3, 49, 75
5, 42240, Note_off_c, 3, 49, 64
5, 42240, Note_on_c, 3, 49, 75
5, 42320, Note_off_c, 3, 49, 64
5, 42480, Note_on_c, 3, 49, 75
5, 42560, Note_off_c, 3, 49, 64
5, 42720, Note_on_c, 3, 49, 75
5, 42800, Note_off_c, 3, 49, 64
5, 42960, Note_on_c, 3, 49, 75
5, 43040, Note_off_c, 3, 49, 64
5, 43200, Note_on_c, 3, 49, 75
5, 43280, Note_off_c, 3, 49, 64
5, 43440, Note_on_c, 3, 49, 75
5, 43520, Note_off_c, 3, 49, 64
5, 43680, Note_on_c, 3, 49, 75
5, 43760, Note_off_c, 3, 49, 64
5, 43920, Note_on_c, 3, 49, 75
5, 44000, Note_off_c, 3, 49, 64
5, 44160, Note_on_c, 3, 50, 75
5, 44240, Note_off_c, 3, 50, 64
5, 44400, Note_on_c, 3, 50, 75
5, 44480, Note_off_c, 3, 50, 64
5, 44640, Note_on_c, 3, 50, 75
5, 44720, Note_off_c, 3, 50, 64
5, 44880, Note_on_c, 3, 50, 75
5, 44960, Note_off_c, 3, 50, 64
5, 45120, Note_on_c, 3, 50, 75
5, 45200, Note_off_c, 3, 50, 64
5, 45360, Note_on_c, 3, 50, 75
5, 45440, Note_off_c, 3, 50, 64
5, 45600, Note_on_c, 3, 50, 75
5, 45680, Note_off_c, 3, 50, 64
5, 45840, Note_on_c, 3, 50, 75
5, 45920, Note_off_c, 3, 50, 64
5, 46080, Note_on_c, 3, 52, 75
5, 46160, Note_off_c, 3, 52, 64
5, 46320, Note_on_c, 3, 52, 75
5, 46400, Note_off_c, 3, 52, 64
5, 46560, Note_on_c, 3, 52, 75
5, 46640, Note_off_c, 3, 52, 64
5, 46800, Note_on_c, 3, 52, 75
5, 46880, Note_off_c, 3, 52, 64
5, 47040, Note_on_c, 3, 52, 75
5, 47120, Note_off_c, 3, 52, 64
5, 47280, Note_on_c, 3, 52, 75
5, 47360, Note_off_c, 3, 52, 64
5, 47520, Note_on_c, 3, 52, 75
5, 47600, Note_off_c, 3, 52, 64
5, 47760, Note_on_c, 3, 52, 75
5, 47840, Note_off_c, 3, 52, 64
5, 48000, Note_on_c, 3, 50, 75
5, 48080, Note_off_c, 3, 50, 64
5, 48240, Note_on_c, 3, 50, 72
5, 48320, Note_off_c, 3, 50, 64
5, 48480, Note_on_c, 3, 50, 69
5, 48560, Note_off_c, 3, 50, 64
5, 48720, Note_on_c, 3, 50, 65
5, 48800, Note_off_c, 3, 50, 64
5, 48960, Note_on_c, 3, 50, 61
5, 49040, Note_off_c, 3, 50, 64
5, 49200, Note_on_c, 3, 50, 57
5, 49280, Note_off_c, 3, 50, 64
5, 49440, Note_on_c, 3, 50, 53
5, 49520, Note_off_c, 3, 50, 64
5, 49680, Note_on_c, 3, 50, 49
5, 49760, Note_off_c, 3, 50, 64
5, 49920, Note_on_c, 3, 49, 45
5, 50160, Note_off_c, 3, 49, 64
5, 50160, Note_on_c, 3, 49, 46
5, 50240, Note_off_c, 3, 49, 64
5, 50400, Note_on_c, 3, 49, 48
5, 50480, Note_off_c, 3, 49, 64
5, 50640, Note_on_c, 3, 49, 50
5, 50720, Note_off_c, 3, 49, 64
5, 50880, Note_on_c, 3, 49, 52
5, 51280, Note_off_c, 3, 49, 64
5, 51840, Note_on_c, 3, 50, 60
5, 52080, Note_off_c, 3, 50, 64
5, 52080, Note_on_c, 3, 50, 60
5, 52160, Note_off_c, 3, 50, 64
5, 52320, Note_on_c, 3, 50, 62
5, 52400, Note_off_c, 3, 50, 64
5, 52560, Note_on_c, 3, 50, 64
5, 52640, Note_off_c, 3, 50, 64
5, 52800, Note_on_c, 3, 50, 66
5, 53200, Note_off_c, 3, 50, 64
5, 53760, Note_on_c, 3, 52, 75
5, 54000, Note_off_c, 3, 52, 64
5, 54000, Note_on_c, 3, 52, 75
5, 54080, Note_off_c, 3, 52, 64
5, 54240, Note_on_c, 3, 52, 77
5, 54320, Note_off_c, 3, 52, 64
5, 54480, Note_on_c, 3, 52, 79
5, 54560, Note_off_c, 3, 52, 64
5, 54720, Note_on_c, 3, 52, 81
5, 55120, Note_off_c, 3, 52, 64
5, 55680, Note_on_c, 3, 54, 92
5, 56080, Note_off_c, 3, 54, 64
5, 58080, Note_on_c, 3, 52, 92
5, 58560, Note_off_c, 3, 52, 64
5, 58560, Note_on_c, 3, 50, 92
5, 59040, Note_off_c, 3, 50, 64
5, 59040, Note_on_c, 3, 49, 92
5, 59520, Note_off_c, 3, 49, 64
5, 59520, Note_on_c, 3, 50, 92
5, 59600, Note_off_c, 3, 50, 64
5, 59760, Note_on_c, 3, 50, 92
5, 59840, Note_off_c, 3, 50, 64
5, 60000, Note_on_c, 3, 50, 92
5, 60080, Note_off_c, 3, 50, 64
5, 60240, Note_on_c, 3, 50, 92
5, 60320, Note_off_c, 3, 50, 64
5, 60480, Note_on_c, 3, 50, 92
5, 60560, Note_off_c, 3, 50, 64
5, 60720, Note_on_c, 3, 50, 92
5, 60800, Note_off_c, 3, 50, 64
5, 60960, Note_on_c, 3, 50, 92
5, 61040, Note_off_c, 3, 50, 64
5, 61200, Note_on_c, 3, 50, 92
5, 61280, Note_off_c, 3, 50, 64
5, 61440, Note_on_c, 3, 52, 92
5, 61520, Note_off_c, 3, 52, 64
5, 61680, Note_on_c, 3, 52, 92
5, 61760, Note_off_c, 3, 52, 64
5, 61920, Note_on_c, 3, 52, 92
5, 62000, Note_off_c, 3, 52, 64
5, 62160, Note_on_c, 3, 52, 92
5, 62240, Note_off_c, 3, 52, 64
5, 62400, Note_on_c, 3, 52, 92
5, 62480, Note_off_c, 3, 52, 64
5, 62640, Note_on_c, 3, 52, 92
5, 62720, Note_off_c, 3, 52, 64
5, 62880, Note_on_c, 3, 52, 92
5, 62960, Note_off_c, 3, 52, 64
5, 63120, Note_on_c, 3, 52, 92
5, 63200, Note_off_c, 3, 52, 64
5, 63360, Note_on_c, 3, 45, 92
5, 63440, Note_off_c, 3, 45, 64
5, 63600, Note_on_c, 3, 45, 90
5, 63680, Note_off_c, 3, 45, 64
5, 63840, Note_on_c, 3, 45, 88
5, 63920, Note_off_c, 3, 45, 64
5, 64080, Note_on_c, 3, 45, 86
5, 64160, Note_off_c, 3, 45, 64
5, 64320, Note_on_c, 3, 45, 84
5, 64400, Note_off_c, 3, 45, 64
5, 64560, Note_on_c, 3, 45, 81
5, 64640, Note_off_c, 3, 45, 64
5, 64800, Note_on_c, 3, 45, 78
5, 64880, Note_off_c, 3, 45, 64
5, 65040, Note_on_c, 3, 45, 75
5, 65120, Note_off_c, 3, 45, 64
5, 65280, Note_on_c, 3, 45, 75
5, 65360, Note_off_c, 3, 45, 64
5, 65520, Note_on_c, 3, 45, 74
5, 65600, Note_off_c, 3, 45, 64
5, 65760, Note_on_c, 3, 45, 72
5, 65840, Note_off_c, 3, 45, 64
5, 66000, Note_on_c, 3, 45, 70
5, 66080, Note_off_c, 3, 45, 64
5, 66240, Note_on_c, 3, 45, 68
5, 66320, Note_off_c, 3, 45, 64
5, 66480, Note_on_c, 3, 45, 66
5, 66560, Note_off_c, 3, 45, 64
5, 66720, Note_on_c, 3, 45, 64
5, 66800, Note_off_c, 3, 45, 64
5, 66960, Note_on_c, 3, 45, 62
5, 67040, Note_off_c, 3, 45, 64
5, 67200, Note_on_c, 3, 45, 60
5, 67280, Note_off_c, 3, 45, 64
5, 67440, Note_on_c, 3, 45, 60
5, 67520, Note_off_c, 3, 45, 64
5, 67680, Note_on_c, 3, 45, 55
5, 67760, Note_off_c, 3, 45, 64
5, 67920, Note_on_c, 3, 45, 50
5, 68000, Note_off_c, 3, 45, 64
5, 68160, Note_on_c, 3, 45, 45
5, 68560, Note_off_c, 3, 45, 64
5, 69120, Note_on_c, 3, 50, 75
5, 69200, Note_off_c, 3, 50, 64
5, 69360, Note_on_c, 3, 50, 75
5, 69440, Note_off_c, 3, 50, 64
5, 69600, Note_on_c, 3, 50, 75
5, 69680, Note_off_c, 3, 50, 64
5, 69840, Note_on_c, 3, 50, 75
5, 69920, Note_off_c, 3, 50, 64
5, 70080, Note_on_c, 3, 50, 75
5, 70160, Note_off_c, 3, 50, 64
5, 70320, Note_on_c, 3, 50, 75
5, 70400, Note_off_c, 3, 50, 64
5, 70560, Note_on_c, 3, 50, 75
5, 70640, Note_off_c, 3, 50, 64
5, 70800, Note_on_c, 3, 50, 75
5, 70880, Note_off_c, 3, 50, 64
5, 71040, Note_on_c, 3, 50, 75
5, 71120, Note_off_c, 3, 50, 64
5, 71280, Note_on_c, 3, 50, 75
5, 71360, Note_off_c, 3, 50, 64
5, 71520, Note_on_c, 3, 50, 75
5, 71600, Note_off_c, 3, 50, 64
5, 71760, Note_on_c, 3, 50, 75
5, 71840, Note_off_c, 3, 50, 64
5, 72000, Note_on_c, 3, 50, 75
5, 72080, Note_off_c, 3, 50, 64
5, 72240, Note_on_c, 3, 50, 75
5, 72320, Note_off_c, 3, 50, 64
5, 72480, Note_on_c, 3, 50, 75
5, 72560, Note_off_c, 3, 50, 64
5, 72720, Note_on_c, 3, 50, 75
5, 72800, Note_off_c, 3, 50, 64
5, 72960, Note_on_c, 3, 50, 75
5, 73040, Note_off_c, 3, 50, 64
5, 73200, Note_on_c, 3, 50, 75
5, 73280, Note_off_c, 3, 50, 64
5, 73440, Note_on_c, 3, 50, 75
5, 73520, Note_off_c, 3, 50, 64
5, 73680, Note_on_c, 3, 50, 75
5, 73760, Note_off_c, 3, 50, 64
5, 73920, Note_on_c, 3, 50, 75
5, 74000, Note_off_c, 3, 50, 64
5, 74160, Note_on_c, 3, 50, 75
5, 74240, Note_off_c, 3, 50, 64
5, 74400, Note_on_c, 3, 50, 75
5, 74480, Note_off_c, 3, 50, 64
5, 74640, Note_on_c, 3, 50, 75
5, 74720, Note_off_c, 3, 50, 64
5, 74880, Note_on_c, 3, 50, 75
5, 74960, Note_off_c, 3, 50, 64
5, 75120, Note_on_c, 3, 50, 75
5, 75200, Note_off_c, 3, 50, 64
5, 75360, Note_on_c, 3, 50, 75
5, 75440, Note_off_c, 3, 50, 64
5, 75600, Note_on_c, 3, 50, 75
5, 75680, Note_off_c, 3, 50, 64
5, 75840, Note_on_c, 3, 50, 75
5, 75920, Note_off_c, 3, 50, 64
5, 76080, Note_on_c, 3, 50, 75
5, 76160, Note_off_c, 3, 50, 64
5, 76320, Note_on_c, 3, 50, 75
5, 76400, Note_off_c, 3, 50, 64
5, 76560, Note_on_c, 3, 50, 75
5, 76640, Note_off_c, 3, 50, 64
5, 76800, Note_on_c, 3, 45, 75
5, 76880, Note_off_c, 3, 45, 64
5, 77040, Note_on_c, 3, 45, 75
5, 77120, Note_off_c, 3, 45, 64
5, 77280, Note_on_c, 3, 45, 75
5, 77360, Note_off_c, 3, 45, 64
5, 77520, Note_on_c, 3, 45, 75
5, 77600, Note_off_c, 3, 45, 64
5, 77760, Note_on_c, 3, 45, 75
5, 77840, Note_off_c, 3, 45, 64
5, 78000, Note_on_c, 3, 45, 75
5, 78080, Note_off_c, 3, 45, 64
5, 78240, Note_on_c, 3, 45, 75
5, 78320, Note_off_c, 3, 45, 64
5, 78480, Note_on_c, 3, 45, 75
5, 78560, Note_off_c, 3, 45, 64
5, 78720, Note_on_c, 3, 50, 75
5, 78800, Note_off_c, 3, 50, 64
5, 78960, Note_on_c, 3, 50, 75
5, 79040, Note_off_c, 3, 50, 64
5, 79200, Note_on_c, 3, 50, 75
5, 79280, Note_off_c, 3, 50, 64
5, 79440, Note_on_c, 3, 50, 75
5, 79520, Note_off_c, 3, 50, 64
5, 79680, Note_on_c, 3, 50, 75
5, 79760, Note_off_c, 3, 50, 64
5, 79920, Note_on_c, 3, 50, 75
5, 80000, Note_off_c, 3, 50, 64
5, 80160, Note_on_c, 3, 52, 75
5, 80240, Note_off_c, 3, 52, 64
5, 80400, Note_on_c, 3, 52, 75
5, 80480, Note_off_c, 3, 52, 64
5, 80640, Note_on_c, 3, 54, 75
5, 80720, Note_off_c, 3, 54, 64
5, 80880, Note_on_c, 3, 54, 75
5, 80960, Note_off_c, 3, 54, 64
5, 81120, Note_on_c, 3, 54, 75
5, 81200, Note_off_c, 3, 54, 64
5, 81360, Note_on_c, 3, 54, 75
5, 81440, Note_off_c, 3, 54, 64
5, 81600, Note_on_c, 3, 54, 75
5, 81680, Note_off_c, 3, 54, 64
5, 81840, Note_on_c, 3, 54, 75
5, 81920, Note_off_c, 3, 54, 64
5, 82080, Note_on_c, 3, 54, 75
5, 82160, Note_off_c, 3, 54, 64
5, 82320, Note_on_c, 3, 54, 75
5, 82400, Note_off_c, 3, 54, 64
5, 82560, Note_on_c, 3, 55, 75
5, 82640, Note_off_c, 3, 55, 64
5, 82800, Note_on_c, 3, 55, 75
5, 82880, Note_off_c, 3, 55, 64
5, 83040, Note_on_c, 3, 55, 75
5, 83120, Note_off_c, 3, 55, 64
5, 83280, Note_on_c, 3, 55, 75
5, 83360, Note_off_c, 3, 55, 64
5, 83520, Note_on_c, 3, 55, 75
5, 83600, Note_off_c, 3, 55, 64
5, 83760, Note_on_c, 3, 55, 75
5, 83840, Note_off_c, 3, 55, 64
5, 84000, Note_on_c, 3, 55, 75
5, 84080, Note_off_c, 3, 55, 64
5, 84240, Note_on_c, 3, 55, 75
5, 84320, Note_off_c, 3, 55, 64
5, 84480, Note_on_c, 3, 57, 75
5, 84560, Note_off_c, 3, 57, 64
5, 84720, Note_on_c, 3, 57, 75
5, 84800, Note_off_c, 3, 57, 64
5, 84960, Note_on_c, 3, 57, 75
5, 85040, Note_off_c, 3, 57, 64
5, 85200, Note_on_c, 3, 57, 75
5, 85280, Note_off_c, 3, 57, 64
5, 85440, Note_on_c, 3, 57, 75
5, 85520, Note_off_c, 3, 57, 64
5, 85680, Note_on_c, 3, 57, 75
5, 85760, Note_off_c, 3, 57, 64
5, 85920, Note_on_c, 3, 57, 75
5, 86000, Note_off_c, 3, 57, 64
5, 86160, Note_on_c, 3, 57, 75
5, 86240, Note_off_c, 3, 57, 64
5, 86400, Note_on_c, 3, 45, 75
5, 86480, Note_off_c, 3, 45, 64
5, 86640, Note_on_c, 3, 45, 75
5, 86720, Note_off_c, 3, 45, 64
5, 86880, Note_on_c, 3, 45, 75
5, 86960, Note_off_c, 3, 45, 64
5, 87120, Note_on_c, 3, 45, 75
5, 87200, Note_off_c, 3, 45, 64
5, 87360, Note_on_c, 3, 45, 75
5, 87440, Note_off_c, 3, 45, 64
5, 87600, Note_on_c, 3, 45, 75
5, 87680, Note_off_c, 3, 45, 64
5, 87840, Note_on_c, 3, 45, 75
5, 87920, Note_off_c, 3, 45, 64
5, 88080, Note_on_c, 3, 45, 75
5, 88160, Note_off_c, 3, 45, 64
5, 88320, Note_on_c, 3, 50, 75
5, 88720, Note_off_c, 3, 50, 64
5, 89040, Note_on_c, 3, 45, 75
5, 89275, Note_off_c, 3, 45, 64
5, 89280, Note_on_c, 3, 50, 75
5, 89680, Note_off_c, 3, 50, 64
5, 90000, Note_on_c, 3, 57, 75
5, 90235, Note_off_c, 3, 57, 64
5, 90240, Note_on_c, 3, 50, 75
5, 90640, Note_off_c, 3, 50, 64
5, 90960, Note_on_c, 3, 45, 75
5, 91195, Note_off_c, 3, 45, 64
5, 91200, Note_on_c, 3, 50, 75
5, 91600, Note_off_c, 3, 50, 64
5, 91920, Note_on_c, 3, 57, 75
5, 92155, Note_off_c, 3, 57, 64
5, 92160, Note_on_c, 3, 50, 75
5, 92240, Note_off_c, 3, 50, 64
5, 92400, Note_on_c, 3, 50, 75
5, 92480, Note_off_c, 3, 50, 64
5, 92640, Note_on_c, 3, 50, 75
5, 92720, Note_off_c, 3, 50, 64
5, 92880, Note_on_c, 3, 50, 75
5, 92960, Note_off_c, 3, 50, 64
5, 93120, Note_on_c, 3, 50, 75
5, 93200, Note_off_c, 3, 50, 64
5, 93360, Note_on_c, 3, 50, 75
5, 93440, Note_off_c, 3, 50, 64
5, 93600, Note_on_c, 3, 50, 75
5, 93680, Note_off_c, 3, 50, 64
5, 93840, Note_on_c, 3, 50, 75
5, 93920, Note_off_c, 3, 50, 64
5, 94080, Note_on_c, 3, 50, 75
5, 94160, Note_off_c, 3, 50, 64
5, 94320, Note_on_c, 3, 50, 75
5, 94400, Note_off_c, 3, 50, 64
5, 94560, Note_on_c, 3, 50, 75
5, 94640, Note_off_c, 3, 50, 64
5, 94800, Note_on_c, 3, 50, 75
5, 94880, Note_off_c, 3, 50, 64
5, 95040, Note_on_c, 3, 50, 75
5, 95120, Note_off_c, 3, 50, 64
5, 95280, Note_on_c, 3, 50, 75
5, 95520, Note_off_c, 3, 50, 64
5, 95520, Note_on_c, 3, 50, 75
5, 95600, Note_off_c, 3, 50, 64
5, 95760, Note_on_c, 3, 50, 75
5, 95840, Note_off_c, 3, 50, 64
5, 96000, Note_on_c, 3, 52, 75
5, 96080, Note_off_c, 3, 52, 64
5, 96240, Note_on_c, 3, 52, 75
5, 96320, Note_off_c, 3, 52, 64
5, 96480, Note_on_c, 3, 52, 75
5, 96560, Note_off_c, 3, 52, 64
5, 96720, Note_on_c, 3, 52, 75
5, 96800, Note_off_c, 3, 52, 64
5, 96960, Note_on_c, 3, 52, 75
5, 97040, Note_off_c, 3, 52, 64
5, 97200, Note_on_c, 3, 52, 75
5, 97280, Note_off_c, 3, 52, 64
5, 97440, Note_on_c, 3, 52, 75
5, 97520, Note_off_c, 3, 52, 64
5, 97680, Note_on_c, 3, 52, 75
5, 97760, Note_off_c, 3, 52, 64
5, 97920, Note_on_c, 3, 52, 75
5, 98000, Note_off_c, 3, 52, 64
5, 98160, Note_on_c, 3, 52, 74
5, 98240, Note_off_c, 3, 52, 64
5, 98400, Note_on_c, 3, 52, 72
5, 98480, Note_off_c, 3, 52, 64
5, 98640, Note_on_c, 3, 52, 70
5, 98720, Note_off_c, 3, 52, 64
5, 98880, Note_on_c, 3, 52, 68
5, 98960, Note_off_c, 3, 52, 64
5, 99120, Note_on_c, 3, 52, 66
5, 99360, Note_off_c, 3, 52, 64
5, 99360, Note_on_c, 3, 52, 64
5, 99440, Note_off_c, 3, 52, 64
5, 99600, Note_on_c, 3, 56, 62
5, 99680, Note_off_c, 3, 56, 64
5, 99840, Note_on_c, 3, 57, 60
5, 99920, Note_off_c, 3, 57, 64
5, 100080, Note_on_c, 3, 57, 60
5, 100160, Note_off_c, 3, 57, 64
5, 100320, Note_on_c, 3, 57, 60
5, 100400, Note_off_c, 3, 57, 64
5, 100560, Note_on_c, 3, 57, 60
5, 100640, Note_off_c, 3, 57, 64
5, 100800, Note_on_c, 3, 61, 60
5, 100880, Note_off_c, 3, 61, 64
5, 101040, Note_on_c, 3, 61, 60
5, 101120, Note_off_c, 3, 61, 64
5, 101280, Note_on_c, 3, 61, 60
5, 101360, Note_off_c, 3, 61, 64
5, 101520, Note_on_c, 3, 61, 60
5, 101600, Note_off_c, 3, 61, 64
5, 101760, Note_on_c, 3, 59, 60
5, 101840, Note_off_c, 3, 59, 64
5, 102000, Note_on_c, 3, 59, 60
5, 102080, Note_off_c, 3, 59, 64
5, 102240, Note_on_c, 3, 59, 60
5, 102320, Note_off_c, 3, 59, 64
5, 102480, Note_on_c, 3, 59, 60
5, 102560, Note_off_c, 3, 59, 64
5, 102720, Note_on_c, 3, 56, 60
5, 102800, Note_off_c, 3, 56, 64
5, 102960, Note_on_c, 3, 56, 60
5, 103040, Note_off_c, 3, 56, 64
5, 103200, Note_on_c, 3, 56, 60
5, 103280, Note_off_c, 3, 56, 64
5, 103440, Note_on_c, 3, 56, 60
5, 103520, Note_off_c, 3, 56, 64
5, 103680, Note_on_c, 3, 57, 60
5, 103760, Note_off_c, 3, 57, 64
5, 103920, Note_on_c, 3, 57, 60
5, 104000, Note_off_c, 3, 57, 64
5, 104160, Note_on_c, 3, 57, 60
5, 104240, Note_off_c, 3, 57, 64
5, 104400, Note_on_c, 3, 57, 60
5, 104480, Note_off_c, 3, 57, 64
5, 104640, Note_on_c, 3, 61, 60
5, 104720, Note_off_c, 3, 61, 64
5, 104880, Note_on_c, 3, 61, 60
5, 104960, Note_off_c, 3, 61, 64
5, 105120, Note_on_c, 3, 61, 60
5, 105200, Note_off_c, 3, 61, 64
5, 105360, Note_on_c, 3, 61, 60
5, 105440, Note_off_c, 3, 61, 64
5, 105600, Note_on_c, 3, 59, 60
5, 105680, Note_off_c, 3, 59, 64
5, 105840, Note_on_c, 3, 59, 60
5, 105920, Note_off_c, 3, 59, 64
5, 106080, Note_on_c, 3, 59, 60
5, 106160, Note_off_c, 3, 59, 64
5, 106320, Note_on_c, 3, 59, 60
5, 106400, Note_off_c, 3, 59, 64
5, 106560, Note_on_c, 3, 52, 60
5, 106640, Note_off_c, 3, 52, 64
5, 106800, Note_on_c, 3, 52, 60
5, 106880, Note_off_c, 3, 52, 64
5, 107040, Note_on_c, 3, 52, 60
5, 107120, Note_off_c, 3, 52, 64
5, 107280, Note_on_c, 3, 52, 60
5, 107360, Note_off_c, 3, 52, 64
5, 107520, Note_on_c, 3, 45, 60
5, 107920, Note_off_c, 3, 45, 64
5, 110640, Note_on_c, 3, 57, 75
5, 110720, Note_off_c, 3, 57, 64
5, 110880, Note_on_c, 3, 45, 75
5, 110960, Note_off_c, 3, 45, 64
5, 111120, Note_on_c, 3, 47, 75
5, 111180, Note_off_c, 3, 47, 64
5, 111180, Note_on_c, 3, 49, 75
5, 111240, Note_off_c, 3, 49, 64
5, 111240, Note_on_c, 3, 47, 75
5, 111300, Note_off_c, 3, 47, 64
5, 111300, Note_on_c, 3, 49, 75
5, 111360, Note_off_c, 3, 49, 64
5, 111360, Note_on_c, 3, 49, 75
5, 111440, Note_off_c, 3, 49, 64
5, 111600, Note_on_c, 3, 49, 75
5, 111680, Note_off_c, 3, 49, 64
5, 111840, Note_on_c, 3, 49, 75
5, 111920, Note_off_c, 3, 49, 64
5, 112080, Note_on_c, 3, 49, 75
5, 112160, Note_off_c, 3, 49, 64
5, 112320, Note_on_c, 3, 49, 75
5, 112400, Note_off_c, 3, 49, 64
5, 112560, Note_on_c, 3, 49, 75
5, 112640, Note_off_c, 3, 49, 64
5, 112800, Note_on_c, 3, 49, 75
5, 112880, Note_off_c, 3, 49, 64
5, 113040, Note_on_c, 3, 49, 75
5, 113120, Note_off_c, 3, 49, 64
5, 113280, Note_on_c, 3, 50, 75
5, 113360, Note_off_c, 3, 50, 64
5, 113520, Note_on_c, 3, 50, 75
5, 113600, Note_off_c, 3, 50, 64
5, 113760, Note_on_c, 3, 50, 75
5, 113840, Note_off_c, 3, 50, 64
5, 114000, Note_on_c, 3, 50, 75
5, 114080, Note_off_c, 3, 50, 64
5, 114240, Note_on_c, 3, 50, 75
5, 114320, Note_off_c, 3, 50, 64
5, 114480, Note_on_c, 3, 50, 75
5, 114560, Note_off_c, 3, 50, 64
5, 114720, Note_on_c, 3, 50, 75
5, 114800, Note_off_c, 3, 50, 64
5, 114960, Note_on_c, 3, 50, 75
5, 115040, Note_off_c, 3, 50, 64
5, 115200, Note_on_c, 3, 52, 75
5, 115280, Note_off_c, 3, 52, 64
5, 115440, Note_on_c, 3, 52, 75
5, 115520, Note_off_c, 3, 52, 64
5, 115680, Note_on_c, 3, 52, 75
5, 115760, Note_off_c, 3, 52, 64
5, 115920, Note_on_c, 3, 52, 75
5, 116000, Note_off_c, 3, 52, 64
5, 116160, Note_on_c, 3, 52, 75
5, 116240, Note_off_c, 3, 52, 64
5, 116400, Note_on_c, 3, 52, 75
5, 116480, Note_off_c, 3, 52, 64
5, 116640, Note_on_c, 3, 52, 75
5, 116720, Note_off_c, 3, 52, 64
5, 116880, Note_on_c, 3, 52, 75
5, 116960, Note_off_c, 3, 52, 64
5, 117120, Note_on_c, 3, 50, 75
5, 117200, Note_off_c, 3, 50, 64
5, 117360, Note_on_c, 3, 50, 72
5, 117440, Note_off_c, 3, 50, 64
5, 117600, Note_on_c, 3, 50, 69
5, 117680, Note_off_c, 3, 50, 64
5, 117840, Note_on_c, 3, 50, 65
5, 117920, Note_off_c, 3, 50, 64
5, 118080, Note_on_c, 3, 50, 61
5, 118160, Note_off_c, 3, 50, 64
5, 118320, Note_on_c, 3, 50, 57
5, 118400, Note_off_c, 3, 50, 64
5, 118560, Note_on_c, 3, 50, 53
5, 118640, Note_off_c, 3, 50, 64
5, 118800, Note_on_c, 3, 50, 49
5, 118880, Note_off_c, 3, 50, 64
5, 119040, Note_on_c, 3, 49, 45
5, 119280, Note_off_c, 3, 49, 64
5, 119280, Note_on_c, 3, 49, 46
5, 119360, Note_off_c, 3, 49, 64
5, 119520, Note_on_c, 3, 49, 48
5, 119600, Note_off_c, 3, 49, 64
5, 119760, Note_on_c, 3, 49, 50
5, 119840, Note_off_c, 3, 49, 64
5, 120000, Note_on_c, 3, 49, 52
5, 120400, Note_off_c, 3, 49, 64
5, 120960, Note_on_c, 3, 50, 60
5, 121200, Note_off_c, 3, 50, 64
5, 121200, Note_on_c, 3, 50, 60
5, 121280, Note_off_c, 3, 50, 64
5, 121440, Note_on_c, 3, 50, 62
5, 121520, Note_off_c, 3, 50, 64
5, 121680, Note_on_c, 3, 50, 64
5, 121760, Note_off_c, 3, 50, 64
5, 121920, Note_on_c, 3, 50, 66
5, 122320, Note_off_c, 3, 50, 64
5, 122880, Note_on_c, 3, 52, 75
5, 123120, Note_off_c, 3, 52, 64
5, 123120, Note_on_c, 3, 52, 75
5, 123200, Note_off_c, 3, 52, 64
5, 123360, Note_on_c, 3, 52, 77
5, 123440, Note_off_c, 3, 52, 64
5, 123600, Note_on_c, 3, 52, 79
5, 123680, Note_off_c, 3, 52, 64
5, 123840, Note_on_c, 3, 52, 81
5, 124240, Note_off_c, 3, 52, 64
5, 124800, Note_on_c, 3, 54, 92
5, 125200, Note_off_c, 3, 54, 64
5, 127200, Note_on_c, 3, 52, 92
5, 127680, Note_off_c, 3, 52, 64
5, 127680, Note_on_c, 3, 50, 92
5, 128160, Note_off_c, 3, 50, 64
5, 128160, Note_on_c, 3, 49, 92
5, 128640, Note_off_c, 3, 49, 64
5, 128640, Note_on_c, 3, 50, 92
5, 128720, Note_off_c, 3, 50, 64
5, 128880, Note_on_c, 3, 50, 92
5, 128960, Note_off_c, 3, 50, 64
5, 129120, Note_on_c, 3, 50, 92
5, 129200, Note_off_c, 3, 50, 64
5, 129360, Note_on_c, 3, 50, 92
5, 129440, Note_off_c, 3, 50, 64
5, 129600, Note_on_c, 3, 50, 92
5, 129680, Note_off_c, 3, 50, 64
5, 129840, Note_on_c, 3, 50, 92
5, 129920, Note_off_c, 3, 50, 64
5, 130080, Note_on_c, 3, 50, 92
5, 130160, Note_off_c, 3, 50, 64
5, 130320, Note_on_c, 3, 50, 92
5, 130400, Note_off_c, 3, 50, 64
5, 130560, Note_on_c, 3, 52, 92
5, 130640, Note_off_c, 3, 52, 64
5, 130800, Note_on_c, 3, 52, 92
5, 130880, Note_off_c, 3, 52, 64
5, 131040, Note_on_c, 3, 52, 92
5, 131120, Note_off_c, 3, 52, 64
5, 131280, Note_on_c, 3, 52, 92
5, 131360, Note_off_c, 3, 52, 64
5, 131520, Note_on_c, 3, 52, 92
5, 131600, Note_off_c, 3, 52, 64
5, 131760, Note_on_c, 3, 52, 92
5, 131840, Note_off_c, 3, 52, 64
5, 132000, Note_on_c, 3, 52, 92
5, 132080, Note_off_c, 3, 52, 64
5, 132240, Note_on_c, 3, 52, 92
5, 132320, Note_off_c, 3, 52, 64
5, 132480, Note_on_c, 3, 45, 92
5, 132560, Note_off_c, 3, 45, 64
5, 132720, Note_on_c, 3, 45, 90
5, 132800, Note_off_c, 3, 45, 64
5, 132960, Note_on_c, 3, 45, 88
5, 133040, Note_off_c, 3, 45, 64
5, 133200, Note_on_c, 3, 45, 86
5, 133280, Note_off_c, 3, 45, 64
5, 133440, Note_on_c, 3, 45, 84
5, 133520, Note_off_c, 3, 45, 64
5, 133680, Note_on_c, 3, 45, 81
5, 133760, Note_off_c, 3, 45, 64
5, 133920, Note_on_c, 3, 45, 78
5, 134000, Note_off_c, 3, 45, 64
5, 134160, Note_on_c, 3, 45, 75
5, 134240, Note_off_c, 3, 45, 64
5, 134400, Note_on_c, 3, 45, 75
5, 134480, Note_off_c, 3, 45, 64
5, 134640, Note_on_c, 3, 45, 74
5, 134720, Note_off_c, 3, 45, 64
5, 134880, Note_on_c, 3, 45, 72
5, 134960, Note_off_c, 3, 45, 64
5, 135120, Note_on_c, 3, 45, 70
5, 135200, Note_off_c, 3, 45, 64
5, 135360, Note_on_c, 3, 45, 68
5, 135440, Note_off_c, 3, 45, 64
5, 135600, Note_on_c, 3, 45, 66
5, 135680, Note_off_c, 3, 45, 64
5, 135840, Note_on_c, 3, 45, 64
5, 135920, Note_off_c, 3, 45, 64
5, 136080, Note_on_c, 3, 45, 62
5, 136160, Note_off_c, 3, 45, 64
5, 136320, Note_on_c, 3, 45, 60
5, 136400, Note_off_c, 3, 45, 64
5, 136560, Note_on_c, 3, 45, 60
5, 136640, Note_off_c, 3, 45, 64
5, 136800, Note_on_c, 3, 45, 55
5, 136880, Note_off_c, 3, 45, 64
5, 137040, Note_on_c, 3, 45, 50
5, 137120, Note_off_c, 3, 45, 64
5, 137280, Note_on_c, 3, 45, 45
5, 137680, Note_off_c, 3, 45, 64
5, 138240, Note_on_c, 3, 48, 75
5, 138320, Note_off_c, 3, 48, 64
5, 138480, Note_on_c, 3, 48, 75
5, 138560, Note_off_c, 3, 48, 64
5, 138720, Note_on_c, 3, 48, 75
5, 138800, Note_off_c, 3, 48, 64
5, 138960, Note_on_c, 3, 48, 75
5, 139040, Note_off_c, 3, 48, 64
5, 139200, Note_on_c, 3, 48, 75
5, 139280, Note_off_c, 3, 48, 64
5, 139440, Note_on_c, 3, 48, 75
5, 139520, Note_off_c, 3, 48, 64
5, 139680, Note_on_c, 3, 48, 75
5, 139760, Note_off_c, 3, 48, 64
5, 139920, Note_on_c, 3, 48, 75
5, 140000, Note_off_c, 3, 48, 64
5, 140160, Note_on_c, 3, 47, 75
5, 140240, Note_off_c, 3, 47, 64
5, 140400, Note_on_c, 3, 47, 75
5, 140480, Note_off_c, 3, 47, 64
5, 140640, Note_on_c, 3, 47, 75
5, 140720, Note_off_c, 3, 47, 64
5, 140880, Note_on_c, 3, 47, 75
5, 140960, Note_off_c, 3, 47, 64
5, 141120, Note_on_c, 3, 47, 75
5, 141200, Note_off_c, 3, 47, 64
5, 141360, Note_on_c, 3, 47, 75
5, 141440, Note_off_c, 3, 47, 64
5, 141600, Note_on_c, 3, 47, 75
5, 141680, Note_off_c, 3, 47, 64
5, 141840, Note_on_c, 3, 47, 75
5, 141920, Note_off_c, 3, 47, 64
5, 142080, Note_on_c, 3, 47, 75
5, 142160, Note_off_c, 3, 47, 64
5, 142320, Note_on_c, 3, 47, 75
5, 142400, Note_off_c, 3, 47, 64
5, 142560, Note_on_c, 3, 47, 75
5, 142640, Note_off_c, 3, 47, 64
5, 142800, Note_on_c, 3, 47, 75
5, 142880, Note_off_c, 3, 47, 64
5, 143040, Note_on_c, 3, 47, 75
5, 143120, Note_off_c, 3, 47, 64
5, 143280, Note_on_c, 3, 47, 75
5, 143360, Note_off_c, 3, 47, 64
5, 143520, Note_on_c, 3, 47, 75
5, 143600, Note_off_c, 3, 47, 64
5, 143760, Note_on_c, 3, 47, 75
5, 143840, Note_off_c, 3, 47, 64
5, 144000, Note_on_c, 3, 47, 75
5, 144080, Note_off_c, 3, 47, 64
5, 144240, Note_on_c, 3, 47, 75
5, 144320, Note_off_c, 3, 47, 64
5, 144480, Note_on_c, 3, 47, 75
5, 144560, Note_off_c, 3, 47, 64
5, 144720, Note_on_c, 3, 47, 75
5, 144800, Note_off_c, 3, 47, 64
5, 144960, Note_on_c, 3, 47, 75
5, 145040, Note_off_c, 3, 47, 64
5, 145200, Note_on_c, 3, 47, 75
5, 145280, Note_off_c, 3, 47, 64
5, 145440, Note_on_c, 3, 47, 75
5, 145520, Note_off_c, 3, 47, 64
5, 145680, Note_on_c, 3, 47, 75
5, 145760, Note_off_c, 3, 47, 64
5, 145920, Note_on_c, 3, 47, 75
5, 146000, Note_off_c, 3, 47, 64
5, 146160, Note_on_c, 3, 47, 75
5, 146240, Note_off_c, 3, 47, 64
5, 146400, Note_on_c, 3, 47, 75
5, 146480, Note_off_c, 3, 47, 64
5, 146640, Note_on_c, 3, 47, 75
5, 146720, Note_off_c, 3, 47, 64
5, 146880, Note_on_c, 3, 47, 75
5, 146960, Note_off_c, 3, 47, 64
5, 147120, Note_on_c, 3, 47, 75
5, 147200, Note_off_c, 3, 47, 64
5, 147360, Note_on_c, 3, 47, 75
5, 147440, Note_off_c, 3, 47, 64
5, 147600, Note_on_c, 3, 47, 75
5, 147680, Note_off_c, 3, 47, 64
5, 147840, Note_on_c, 3, 52, 75
5, 147920, Note_off_c, 3, 52, 64
5, 148080, Note_on_c, 3, 52, 75
5, 148160, Note_off_c, 3, 52, 64
5, 148320, Note_on_c, 3, 54, 75
5, 148400, Note_off_c, 3, 54, 64
5, 148560, Note_on_c, 3, 54, 75
5, 148640, Note_off_c, 3, 54, 64
5, 148800, Note_on_c, 3, 55, 75
5, 148880, Note_off_c, 3, 55, 64
5, 149040, Note_on_c, 3, 43, 75
5, 149120, Note_off_c, 3, 43, 64
5, 149280, Note_on_c, 3, 43, 75
5, 149360, Note_off_c, 3, 43, 64
5, 149520, Note_on_c, 3, 44, 75
5, 149600, Note_off_c, 3, 44, 64
5, 149760, Note_on_c, 3, 45, 75
5, 149840, Note_off_c, 3, 45, 64
5, 150000, Note_on_c, 3, 45, 75
5, 150080, Note_off_c, 3, 45, 64
5, 150240, Note_on_c, 3, 45, 75
5, 150320, Note_off_c, 3, 45, 64
5, 150480, Note_on_c, 3, 45, 75
5, 150560, Note_off_c, 3, 45, 64
5, 150720, Note_on_c, 3, 45, 75
5, 150800, Note_off_c, 3, 45, 64
5, 150960, Note_on_c, 3, 45, 75
5, 151040, Note_off_c, 3, 45, 64
5, 151200, Note_on_c, 3, 45, 75
5, 151280, Note_off_c, 3, 45, 64
5, 151440, Note_on_c, 3, 45, 75
5, 151520, Note_off_c, 3, 45, 64
5, 151680, Note_on_c, 3, 45, 75
5, 151760, Note_off_c, 3, 45, 64
5, 151920, Note_on_c, 3, 45, 75
5, 152000, Note_off_c, 3, 45, 64
5, 152160, Note_on_c, 3, 45, 75
5, 152240, Note_off_c, 3, 45, 64
5, 152400, Note_on_c, 3, 45, 75
5, 152480, Note_off_c, 3, 45, 64
5, 152640, Note_on_c, 3, 55, 75
5, 152720, Note_off_c, 3, 55, 64
5, 152880, Note_on_c, 3, 55, 75
5, 152960, Note_off_c, 3, 55, 64
5, 153120, Note_on_c, 3, 55, 75
5, 153200, Note_off_c, 3, 55, 64
5, 153360, Note_on_c, 3, 55, 75
5, 153440, Note_off_c, 3, 55, 64
5, 153600, Note_on_c, 3, 54, 75
5, 153680, Note_off_c, 3, 54, 64
5, 153840, Note_on_c, 3, 54, 75
5, 153920, Note_off_c, 3, 54, 64
5, 154080, Note_on_c, 3, 54, 75
5, 154160, Note_off_c, 3, 54, 64
5, 154320, Note_on_c, 3, 54, 75
5, 154400, Note_off_c, 3, 54, 64
5, 154560, Note_on_c, 3, 54, 75
5, 154640, Note_off_c, 3, 54, 64
5, 154800, Note_on_c, 3, 54, 75
5, 154880, Note_off_c, 3, 54, 64
5, 155040, Note_on_c, 3, 54, 75
5, 155120, Note_off_c, 3, 54, 64
5, 155280, Note_on_c, 3, 54, 75
5, 155360, Note_off_c, 3, 54, 64
5, 155520, Note_on_c, 3, 47, 75
5, 155600, Note_off_c, 3, 47, 64
5, 155760, Note_on_c, 3, 47, 75
5, 155840, Note_off_c, 3, 47, 64
5, 156000, Note_on_c, 3, 47, 75
5, 156080, Note_off_c, 3, 47, 64
5, 156240, Note_on_c, 3, 47, 75
5, 156320, Note_off_c, 3, 47, 64
5, 156480, Note_on_c, 3, 47, 75
5, 156560, Note_off_c, 3, 47, 64
5, 156720, Note_on_c, 3, 47, 75
5, 156800, Note_off_c, 3, 47, 64
5, 156960, Note_on_c, 3, 47, 75
5, 157040, Note_off_c, 3, 47, 64
5, 157200, Note_on_c, 3, 47, 75
5, 157280, Note_off_c, 3, 47, 64
5, 157440, Note_on_c, 3, 54, 75
5, 157520, Note_off_c, 3, 54, 64
5, 157680, Note_on_c, 3, 54, 75
5, 157760, Note_off_c, 3, 54, 64
5, 157920, Note_on_c, 3, 54, 75
5, 158000, Note_off_c, 3, 54, 64
5, 158160, Note_on_c, 3, 54, 75
5, 158240, Note_off_c, 3, 54, 64
5, 158400, Note_on_c, 3, 54, 75
5, 158480, Note_off_c, 3, 54, 64
5, 158640, Note_on_c, 3, 54, 75
5, 158720, Note_off_c, 3, 54, 64
5, 158880, Note_on_c, 3, 54, 75
5, 158960, Note_off_c, 3, 54, 64
5, 159120, Note_on_c, 3, 54, 75
5, 159200, Note_off_c, 3, 54, 64
5, 159360, Note_on_c, 3, 59, 75
5, 159440, Note_off_c, 3, 59, 64
5, 159600, Note_on_c, 3, 59, 75
5, 159680, Note_off_c, 3, 59, 64
5, 159840, Note_on_c, 3, 59, 75
5, 159920, Note_off_c, 3, 59, 64
5, 160080, Note_on_c, 3, 59, 75
5, 160160, Note_off_c, 3, 59, 64
5, 160320, Note_on_c, 3, 56, 75
5, 160400, Note_off_c, 3, 56, 64
5, 160560, Note_on_c, 3, 56, 75
5, 160640, Note_off_c, 3, 56, 64
5, 160800, Note_on_c, 3, 56, 75
5, 160880, Note_off_c, 3, 56, 64
5, 161040, Note_on_c, 3, 56, 75
5, 161120, Note_off_c, 3, 56, 64
5, 161280, Note_on_c, 3, 57, 75
5, 161360, Note_off_c, 3, 57, 64
5, 161520, Note_on_c, 3, 57, 75
5, 161600, Note_off_c, 3, 57, 64
5, 161760, Note_on_c, 3, 57, 75
5, 161840, Note_off_c, 3, 57, 64
5, 162000, Note_on_c, 3, 57, 75
5, 162080, Note_off_c, 3, 57, 64
5, 162240, Note_on_c, 3, 54, 75
5, 162320, Note_off_c, 3, 54, 64
5, 162480, Note_on_c, 3, 54, 75
5, 162560, Note_off_c, 3, 54, 64
5, 162720, Note_on_c, 3, 54, 75
5, 162800, Note_off_c, 3, 54, 64
5, 162960, Note_on_c, 3, 54, 75
5, 163040, Note_off_c, 3, 54, 64
5, 163200, Note_on_c, 3, 55, 75
5, 163280, Note_off_c, 3, 55, 64
5, 163440, Note_on_c, 3, 55, 77
5, 163520, Note_off_c, 3, 55, 64
5, 163680, Note_on_c, 3, 55, 79
5, 163760, Note_off_c, 3, 55, 64
5, 163920, Note_on_c, 3, 55, 81
5, 164000, Note_off_c, 3, 55, 64
5, 164160, Note_on_c, 3, 55, 83
5, 164240, Note_off_c, 3, 55, 64
5, 164400, Note_on_c, 3, 55, 85
5, 164480, Note_off_c, 3, 55, 64
5, 164640, Note_on_c, 3, 56, 87
5, 164720, Note_off_c, 3, 56, 64
5, 164880, Note_on_c, 3, 56, 89
5, 164960, Note_off_c, 3, 56, 64
5, 165120, Note_on_c, 3, 57, 92
5, 165520, Note_off_c, 3, 57, 64
5, 165660, Note_on_c, 3, 45, 92
5, 165895, Note_off_c, 3, 45, 64
5, 166020, Note_on_c, 3, 45, 92
5, 166135, Note_off_c, 3, 45, 64
5, 166140, Note_on_c, 3, 45, 92
5, 166540, Note_off_c, 3, 45, 64
5, 167340, Program_c, 3, 45
5, 167340, Note_on_c, 3, 50, 30
5, 167740, Note_off_c, 3, 50, 64
5, 168300, Note_on_c, 3, 50, 30
5, 168700, Note_off_c, 3, 50, 64
5, 169260, Note_on_c, 3, 55, 30
5, 169660, Note_off_c, 3, 55, 64
5, 170220, Note_on_c, 3, 55, 30
5, 170620, Note_off_c, 3, 55, 64
5, 171180, Note_on_c, 3, 57, 30
5, 171580, Note_off_c, 3, 57, 64
5, 172140, Note_on_c, 3, 57, 30
5, 172540, Note_off_c, 3, 57, 64
5, 173100, Note_on_c, 3, 58, 30
5, 173500, Note_off_c, 3, 58, 64
5, 174060, Note_on_c, 3, 58, 30
5, 174460, Note_off_c, 3, 58, 64
5, 175020, Note_on_c, 3, 53, 30
5, 175420, Note_off_c, 3, 53, 64
5, 175980, Note_on_c, 3, 53, 30
5, 176380, Note_off_c, 3, 53, 64
5, 176940, Note_on_c, 3, 55, 30
5, 177340, Note_off_c, 3, 55, 64
5, 177900, Note_on_c, 3, 55, 30
5, 178300, Note_off_c, 3, 55, 64
5, 178860, Note_on_c, 3, 55, 30
5, 179260, Note_off_c, 3, 55, 64
5, 179820, Note_on_c, 3, 55, 30
5, 180220, Note_off_c, 3, 55, 64
5, 180300, Note_on_c, 3, 56, 30
5, 180700, Note_off_c, 3, 56, 64
5, 180780, Note_on_c, 3, 57, 30
5, 181180, Note_off_c, 3, 57, 64
5, 181740, Note_on_c, 3, 57, 30
5, 182140, Note_off_c, 3, 57, 64
5, 182700, Note_on_c, 3, 45, 30
5, 183100, Note_off_c, 3, 45, 64
5, 183660, Note_on_c, 3, 45, 30
5, 184060, Note_off_c, 3, 45, 64
5, 184620, Note_on_c, 3, 57, 30
5, 185020, Note_off_c, 3, 57, 64
5, 185580, Note_on_c, 3, 57, 30
5, 185980, Note_off_c, 3, 57, 64
5, 186540, Note_on_c, 3, 58, 30
5, 186940, Note_off_c, 3, 58, 64
5, 187500, Note_on_c, 3, 46, 30
5, 187900, Note_off_c, 3, 46, 64
5, 188460, Note_on_c, 3, 45, 30
5, 188860, Note_off_c, 3, 45, 64
5, 190380, Program_c, 3, 50
5, 190620, Note_on_c, 3, 57, 75
5, 190860, Note_off_c, 3, 57, 64
5, 190860, Note_on_c, 3, 59, 75
5, 191100, Note_off_c, 3, 59, 64
5, 191100, Note_on_c, 3, 57, 75
5, 191340, Note_off_c, 3, 57, 64
5, 191340, Note_on_c, 3, 55, 75
5, 191580, Note_off_c, 3, 55, 64
5, 191580, Note_on_c, 3, 54, 75
5, 191820, Note_off_c, 3, 54, 64
5, 191820, Note_on_c, 3, 55, 75
5, 192060, Note_off_c, 3, 55, 64
5, 192060, Note_on_c, 3, 52, 75
5, 192295, Note_off_c, 3, 52, 64
5, 192300, Note_on_c, 3, 50, 75
5, 192380, Note_off_c, 3, 50, 64
5, 192540, Note_on_c, 3, 50, 75
5, 192620, Note_off_c, 3, 50, 64
5, 192780, Note_on_c, 3, 50, 75
5, 192860, Note_off_c, 3, 50, 64
5, 193020, Note_on_c, 3, 50, 75
5, 193100, Note_off_c, 3, 50, 64
5, 193260, Note_on_c, 3, 50, 75
5, 193340, Note_off_c, 3, 50, 64
5, 193500, Note_on_c, 3, 50, 75
5, 193580, Note_off_c, 3, 50, 64
5, 193740, Note_on_c, 3, 50, 75
5, 193820, Note_off_c, 3, 50, 64
5, 193980, Note_on_c, 3, 50, 75
5, 194060, Note_off_c, 3, 50, 64
5, 194220, Note_on_c, 3, 50, 75
5, 194300, Note_off_c, 3, 50, 64
5, 194460, Note_on_c, 3, 50, 75
5, 194540, Note_off_c, 3, 50, 64
5, 194700, Note_on_c, 3, 50, 75
5, 194780, Note_off_c, 3, 50, 64
5, 194940, Note_on_c, 3, 50, 75
5, 195020, Note_off_c, 3, 50, 64
5, 195180, Note_on_c, 3, 50, 75
5, 195260, Note_off_c, 3, 50, 64
5, 195420, Note_on_c, 3, 50, 75
5, 195500, Note_off_c, 3, 50, 64
5, 195660, Note_on_c, 3, 50, 75
5, 195740, Note_off_c, 3, 50, 64
5, 195900, Note_on_c, 3, 50, 75
5, 195980, Note_off_c, 3, 50, 64
5, 196140, Note_on_c, 3, 50, 75
5, 196220, Note_off_c, 3, 50, 64
5, 196380, Note_on_c, 3, 50, 75
5, 196460, Note_off_c, 3, 50, 64
5, 196620, Note_on_c, 3, 50, 75
5, 196700, Note_off_c, 3, 50, 64
5, 196860, Note_on_c, 3, 50, 75
5, 196940, Note_off_c, 3, 50, 64
5, 197100, Note_on_c, 3, 50, 75
5, 197180, Note_off_c, 3, 50, 64
5, 197340, Note_on_c, 3, 50, 75
5, 197420, Note_off_c, 3, 50, 64
5, 197580, Note_on_c, 3, 50, 75
5, 197660, Note_off_c, 3, 50, 64
5, 197820, Note_on_c, 3, 50, 75
5, 197900, Note_off_c, 3, 50, 64
5, 198060, Note_on_c, 3, 50, 75
5, 198140, Note_off_c, 3, 50, 64
5, 198300, Note_on_c, 3, 50, 75
5, 198380, Note_off_c, 3, 50, 64
5, 198540, Note_on_c, 3, 50, 75
5, 198620, Note_off_c, 3, 50, 64
5, 198780, Note_on_c, 3, 50, 75
5, 198860, Note_off_c, 3, 50, 64
5, 199020, Note_on_c, 3, 50, 75
5, 199100, Note_off_c, 3, 50, 64
5, 199260, Note_on_c, 3, 50, 75
5, 199340, Note_off_c, 3, 50, 64
5, 199500, Note_on_c, 3, 50, 75
5, 199580, Note_off_c, 3, 50, 64
5, 199740, Note_on_c, 3, 50, 75
5, 199820, Note_off_c, 3, 50, 64
5, 199980, Note_on_c, 3, 45, 75
5, 200060, Note_off_c, 3, 45, 64
5, 200220, Note_on_c, 3, 45, 75
5, 200300, Note_off_c, 3, 45, 64
5, 200460, Note_on_c, 3, 45, 75
5, 200540, Note_off_c, 3, 45, 64
5, 200700, Note_on_c, 3, 45, 75
5, 200780, Note_off_c, 3, 45, 64
5, 200940, Note_on_c, 3, 45, 75
5, 201020, Note_off_c, 3, 45, 64
5, 201180, Note_on_c, 3, 45, 75
5, 201260, Note_off_c, 3, 45, 64
5, 201420, Note_on_c, 3, 45, 75
5, 201500, Note_off_c, 3, 45, 64
5, 201660, Note_on_c, 3, 45, 75
5, 201740, Note_off_c, 3, 45, 64
5, 201900, Note_on_c, 3, 50, 75
5, 201980, Note_off_c, 3, 50, 64
5, 202140, Note_on_c, 3, 50, 75
5, 202220, Note_off_c, 3, 50, 64
5, 202380, Note_on_c, 3, 50, 75
5, 202460, Note_off_c, 3, 50, 64
5, 202620, Note_on_c, 3, 50, 75
5, 202700, Note_off_c, 3, 50, 64
5, 202860, Note_on_c, 3, 50, 75
5, 202940, Note_off_c, 3, 50, 64
5, 203100, Note_on_c, 3, 50, 75
5, 203180, Note_off_c, 3, 50, 64
5, 203340, Note_on_c, 3, 52, 75
5, 203420, Note_off_c, 3, 52, 64
5, 203580, Note_on_c, 3, 52, 75
5, 203660, Note_off_c, 3, 52, 64
5, 203820, Note_on_c, 3, 54, 75
5, 203900, Note_off_c, 3, 54, 64
5, 204060, Note_on_c, 3, 54, 75
5, 204140, Note_off_c, 3, 54, 64
5, 204300, Note_on_c, 3, 54, 75
5, 204380, Note_off_c, 3, 54, 64
5, 204540, Note_on_c, 3, 54, 75
5, 204620, Note_off_c, 3, 54, 64
5, 204780, Note_on_c, 3, 54, 75
5, 204860, Note_off_c, 3, 54, 64
5, 205020, Note_on_c, 3, 54, 75
5, 205100, Note_off_c, 3, 54, 64
5, 205260, Note_on_c, 3, 54, 75
5, 205340, Note_off_c, 3, 54, 64
5, 205500, Note_on_c, 3, 54, 75
5, 205580, Note_off_c, 3, 54, 64
5, 205740, Note_on_c, 3, 55, 75
5, 205820, Note_off_c, 3, 55, 64
5, 205980, Note_on_c, 3, 55, 75
5, 206060, Note_off_c, 3, 55, 64
5, 206220, Note_on_c, 3, 55, 75
5, 206300, Note_off_c, 3, 55, 64
5, 206460, Note_on_c, 3, 55, 75
5, 206540, Note_off_c, 3, 55, 64
5, 206700, Note_on_c, 3, 55, 75
5, 206780, Note_off_c, 3, 55, 64
5, 206940, Note_on_c, 3, 55, 75
5, 207020, Note_off_c, 3, 55, 64
5, 207180, Note_on_c, 3, 55, 75
5, 207260, Note_off_c, 3, 55, 64
5, 207420, Note_on_c, 3, 55, 75
5, 207500, Note_off_c, 3, 55, 64
5, 207660, Note_on_c, 3, 57, 75
5, 207740, Note_off_c, 3, 57, 64
5, 207900, Note_on_c, 3, 57, 75
5, 207980, Note_off_c, 3, 57, 64
5, 208140, Note_on_c, 3, 57, 75
5, 208220, Note_off_c, 3, 57, 64
5, 208380, Note_on_c, 3, 57, 75
5, 208460, Note_off_c, 3, 57, 64
5, 208620, Note_on_c, 3, 57, 75
5, 208700, Note_off_c, 3, 57, 64
5, 208860, Note_on_c, 3, 57, 75
5, 208940, Note_off_c, 3, 57, 64
5, 209100, Note_on_c, 3, 57, 75
5, 209180, Note_off_c, 3, 57, 64
5, 209340, Note_on_c, 3, 57, 75
5, 209420, Note_off_c, 3, 57, 64
5, 209580, Note_on_c, 3, 45, 75
5, 209660, Note_off_c, 3, 45, 64
5, 209820, Note_on_c, 3, 45, 75
5, 209900, Note_off_c, 3, 45, 64
5, 210060, Note_on_c, 3, 45, 75
5, 210140, Note_off_c, 3, 45, 64
5, 210300, Note_on_c, 3, 45, 75
5, 210380, Note_off_c, 3, 45, 64
5, 210540, Note_on_c, 3, 45, 75
5, 210620, Note_off_c, 3, 45, 64
5, 210780, Note_on_c, 3, 45, 75
5, 210860, Note_off_c, 3, 45, 64
5, 211020, Note_on_c, 3, 45, 75
5, 211100, Note_off_c, 3, 45, 64
5, 211260, Note_on_c, 3, 45, 75
5, 211340, Note_off_c, 3, 45, 64
5, 211500, Note_on_c, 3, 50, 75
5, 211900, Note_off_c, 3, 50, 64
5, 212220, Note_on_c, 3, 45, 75
5, 212455, Note_off_c, 3, 45, 64
5, 212460, Note_on_c, 3, 50, 75
5, 212860, Note_off_c, 3, 50, 64
5, 213180, Note_on_c, 3, 57, 75
5, 213415, Note_off_c, 3, 57, 64
5, 213420, Note_on_c, 3, 50, 75
5, 213820, Note_off_c, 3, 50, 64
5, 214140, Note_on_c, 3, 45, 75
5, 214375, Note_off_c, 3, 45, 64
5, 214380, Note_on_c, 3, 50, 75
5, 214780, Note_off_c, 3, 50, 64
5, 215100, Note_on_c, 3, 57, 75
5, 215335, Note_off_c, 3, 57, 64
5, 215340, Note_on_c, 3, 50, 75
5, 215420, Note_off_c, 3, 50, 64
5, 215580, Note_on_c, 3, 50, 75
5, 215660, Note_off_c, 3, 50, 64
5, 215820, Note_on_c, 3, 50, 75
5, 215900, Note_off_c, 3, 50, 64
5, 216060, Note_on_c, 3, 50, 75
5, 216140, Note_off_c, 3, 50, 64
5, 216300, Note_on_c, 3, 50, 75
5, 216380, Note_off_c, 3, 50, 64
5, 216540, Note_on_c, 3, 50, 75
5, 216620, Note_off_c, 3, 50, 64
5, 216780, Note_on_c, 3, 50, 75
5, 216860, Note_off_c, 3, 50, 64
5, 217020, Note_on_c, 3, 50, 75
5, 217100, Note_off_c, 3, 50, 64
5, 217260, Note_on_c, 3, 50, 75
5, 217340, Note_off_c, 3, 50, 64
5, 217500, Note_on_c, 3, 50, 75
5, 217580, Note_off_c, 3, 50, 64
5, 217740, Note_on_c, 3, 50, 75
5, 217820, Note_off_c, 3, 50, 64
5, 217980, Note_on_c, 3, 50, 75
5, 218060, Note_off_c, 3, 50, 64
5, 218220, Note_on_c, 3, 50, 75
5, 218300, Note_off_c, 3, 50, 64
5, 218460, Note_on_c, 3, 50, 75
5, 218540, Note_off_c, 3, 50, 64
5, 218700, Note_on_c, 3, 50, 75
5, 218780, Note_off_c, 3, 50, 64
5, 218940, Note_on_c, 3, 50, 75
5, 219020, Note_off_c, 3, 50, 64
5, 219180, Note_on_c, 3, 50, 75
5, 219260, Note_off_c, 3, 50, 64
5, 219420, Note_on_c, 3, 50, 75
5, 219500, Note_off_c, 3, 50, 64
5, 219660, Note_on_c, 3, 50, 75
5, 219740, Note_off_c, 3, 50, 64
5, 219900, Note_on_c, 3, 50, 75
5, 219980, Note_off_c, 3, 50, 64
5, 220140, Note_on_c, 3, 50, 75
5, 220220, Note_off_c, 3, 50, 64
5, 220380, Note_on_c, 3, 50, 75
5, 220460, Note_off_c, 3, 50, 64
5, 220620, Note_on_c, 3, 50, 75
5, 220700, Note_off_c, 3, 50, 64
5, 220860, Note_on_c, 3, 50, 75
5, 220940, Note_off_c, 3, 50, 64
5, 221100, Note_on_c, 3, 50, 75
5, 221180, Note_off_c, 3, 50, 64
5, 221340, Note_on_c, 3, 50, 75
5, 221420, Note_off_c, 3, 50, 64
5, 221580, Note_on_c, 3, 50, 75
5, 221660, Note_off_c, 3, 50, 64
5, 221820, Note_on_c, 3, 50, 75
5, 221900, Note_off_c, 3, 50, 64
5, 222060, Note_on_c, 3, 50, 75
5, 222140, Note_off_c, 3, 50, 64
5, 222300, Note_on_c, 3, 50, 75
5, 222540, Note_off_c, 3, 50, 64
5, 222540, Note_on_c, 3, 50, 75
5, 222620, Note_off_c, 3, 50, 64
5, 222780, Note_on_c, 3, 50, 75
5, 222860, Note_off_c, 3, 50, 64
5, 223020, Note_on_c, 3, 55, 75
5, 223255, Note_off_c, 3, 55, 64
5, 223260, Note_on_c, 3, 55, 75
5, 223495, Note_off_c, 3, 55, 64
5, 223500, Note_on_c, 3, 59, 75
5, 223735, Note_off_c, 3, 59, 64
5, 223740, Note_on_c, 3, 59, 75
5, 223975, Note_off_c, 3, 59, 64
5, 223980, Note_on_c, 3, 57, 75
5, 224215, Note_off_c, 3, 57, 64
5, 224220, Note_on_c, 3, 57, 75
5, 224455, Note_off_c, 3, 57, 64
5, 224460, Note_on_c, 3, 50, 75
5, 224695, Note_off_c, 3, 50, 64
5, 224700, Note_on_c, 3, 50, 75
5, 224935, Note_off_c, 3, 50, 64
5, 224940, Note_on_c, 3, 55, 75
5, 225175, Note_off_c, 3, 55, 64
5, 225180, Note_on_c, 3, 55, 75
5, 225415, Note_off_c, 3, 55, 64
5, 225420, Note_on_c, 3, 57, 75
5, 225655, Note_off_c, 3, 57, 64
5, 225660, Note_on_c, 3, 57, 75
5, 225895, Note_off_c, 3, 57, 64
5, 225900, Note_on_c, 3, 55, 75
5, 226135, Note_off_c, 3, 55, 64
5, 226140, Note_on_c, 3, 55, 75
5, 226375, Note_off_c, 3, 55, 64
5, 226380, Note_on_c, 3, 55, 75
5, 226615, Note_off_c, 3, 55, 64
5, 226620, Note_on_c, 3, 56, 75
5, 226855, Note_off_c, 3, 56, 64
5, 226860, Note_on_c, 3, 57, 75
5, 227095, Note_off_c, 3, 57, 64
5, 227100, Note_on_c, 3, 57, 75
5, 227335, Note_off_c, 3, 57, 64
5, 227340, Note_on_c, 3, 61, 75
5, 227575, Note_off_c, 3, 61, 64
5, 227580, Note_on_c, 3, 61, 75
5, 227815, Note_off_c, 3, 61, 64
5, 227820, Note_on_c, 3, 59, 75
5, 228055, Note_off_c, 3, 59, 64
5, 228060, Note_on_c, 3, 59, 75
5, 228295, Note_off_c, 3, 59, 64
5, 228300, Note_on_c, 3, 52, 75
5, 228535, Note_off_c, 3, 52, 64
5, 228540, Note_on_c, 3, 52, 75
5, 228775, Note_off_c, 3, 52, 64
5, 228780, Note_on_c, 3, 45, 75
5, 229015, Note_off_c, 3, 45, 64
5, 229020, Note_on_c, 3, 45, 75
5, 229255, Note_off_c, 3, 45, 64
5, 229260, Note_on_c, 3, 52, 75
5, 229495, Note_off_c, 3, 52, 64
5, 229500, Note_on_c, 3, 52, 75
5, 229735, Note_off_c, 3, 52, 64
5, 229740, Note_on_c, 3, 49, 75
5, 229975, Note_off_c, 3, 49, 64
5, 229980, Note_on_c, 3, 49, 75
5, 230215, Note_off_c, 3, 49, 64
5, 230220, Note_on_c, 3, 45, 75
5, 230455, Note_off_c, 3, 45, 64
5, 230460, Note_on_c, 3, 45, 75
5, 230695, Note_off_c, 3, 45, 64
5, 230700, Note_on_c, 3, 50, 75
5, 230935, Note_off_c, 3, 50, 64
5, 230940, Note_on_c, 3, 50, 75
5, 231175, Note_off_c, 3, 50, 64
5, 231180, Note_on_c, 3, 54, 75
5, 231415, Note_off_c, 3, 54, 64
5, 231420, Note_on_c, 3, 54, 75
5, 231655, Note_off_c, 3, 54, 64
5, 231660, Note_on_c, 3, 52, 75
5, 231895, Note_off_c, 3, 52, 64
5, 231900, Note_on_c, 3, 52, 75
5, 232135, Note_off_c, 3, 52, 64
5, 232140, Note_on_c, 3, 45, 75
5, 232375, Note_off_c, 3, 45, 64
5, 232380, Note_on_c, 3, 45, 75
5, 232615, Note_off_c, 3, 45, 64
5, 232620, Note_on_c, 3, 50, 75
5, 232855, Note_off_c, 3, 50, 64
5, 232860, Note_on_c, 3, 50, 75
5, 233095, Note_off_c, 3, 50, 64
5, 233100, Note_on_c, 3, 54, 75
5, 233335, Note_off_c, 3, 54, 64
5, 233340, Note_on_c, 3, 54, 75
5, 233575, Note_off_c, 3, 54, 64
5, 233580, Note_on_c, 3, 52, 75
5, 233815, Note_off_c, 3, 52, 64
5, 233820, Note_on_c, 3, 52, 75
5, 234055, Note_off_c, 3, 52, 64
5, 234060, Note_on_c, 3, 45, 75
5, 234295, Note_off_c, 3, 45, 64
5, 234300, Note_on_c, 3, 45, 75
5, 234535, Note_off_c, 3, 45, 64
5, 234540, Note_on_c, 3, 50, 75
5, 234940, Note_off_c, 3, 50, 64
5, 237660, Note_on_c, 3, 50, 92
5, 237740, Note_off_c, 3, 50, 64
5, 237900, Note_on_c, 3, 38, 92
5, 237980, Note_off_c, 3, 38, 64
5, 238140, Note_on_c, 3, 40, 92
5, 238170, Note_off_c, 3, 40, 64
5, 238170, Note_on_c, 3, 42, 92
5, 238200, Note_off_c, 3, 42, 64
5, 238200, Note_on_c, 3, 40, 92
5, 238230, Note_off_c, 3, 40, 64
5, 238230, Note_on_c, 3, 42, 92
5, 238260, Note_off_c, 3, 42, 64
5, 238260, Note_on_c, 3, 40, 92
5, 238290, Note_off_c, 3, 40, 64
5, 238290, Note_on_c, 3, 42, 92
5, 238320, Note_off_c, 3, 42, 64
5, 238320, Note_on_c, 3, 40, 92
5, 238350, Note_off_c, 3, 40, 64
5, 238350, Note_on_c, 3, 42, 92
5, 238380, Note_off_c, 3, 42, 64
5, 238380, Note_on_c, 3, 42, 92
5, 238460, Note_off_c, 3, 42, 64
5, 238620, Note_on_c, 3, 54, 92
5, 238700, Note_off_c, 3, 54, 64
5, 238860, Note_on_c, 3, 54, 92
5, 238940, Note_off_c, 3, 54, 64
5, 239100, Note_on_c, 3, 54, 92
5, 239180, Note_off_c, 3, 54, 64
5, 239340, Note_on_c, 3, 54, 92
5, 239420, Note_off_c, 3, 54, 64
5, 239580, Note_on_c, 3, 54, 92
5, 239660, Note_off_c, 3, 54, 64
5, 239820, Note_on_c, 3, 54, 92
5, 239900, Note_off_c, 3, 54, 64
5, 240060, Note_on_c, 3, 54, 92
5, 240140, Note_off_c, 3, 54, 64
5, 240300, Note_on_c, 3, 55, 92
5, 240380, Note_off_c, 3, 55, 64
5, 240540, Note_on_c, 3, 55, 92
5, 240620, Note_off_c, 3, 55, 64
5, 240780, Note_on_c, 3, 55, 92
5, 240860, Note_off_c, 3, 55, 64
5, 241020, Note_on_c, 3, 55, 92
5, 241100, Note_off_c, 3, 55, 64
5, 241260, Note_on_c, 3, 43, 92
5, 241340, Note_off_c, 3, 43, 64
5, 241500, Note_on_c, 3, 43, 92
5, 241580, Note_off_c, 3, 43, 64
5, 241740, Note_on_c, 3, 43, 92
5, 241820, Note_off_c, 3, 43, 64
5, 241980, Note_on_c, 3, 43, 92
5, 242060, Note_off_c, 3, 43, 64
5, 242220, Note_on_c, 3, 45, 92
5, 242300, Note_off_c, 3, 45, 64
5, 242460, Note_on_c, 3, 45, 89
5, 242540, Note_off_c, 3, 45, 64
5, 242700, Note_on_c, 3, 45, 86
5, 242780, Note_off_c, 3, 45, 64
5, 242940, Note_on_c, 3, 45, 82
5, 243020, Note_off_c, 3, 45, 64
5, 243180, Note_on_c, 3, 45, 78
5, 243260, Note_off_c, 3, 45, 64
5, 243420, Note_on_c, 3, 45, 74
5, 243500, Note_off_c, 3, 45, 64
5, 243660, Note_on_c, 3, 45, 70
5, 243740, Note_off_c, 3, 45, 64
5, 243900, Note_on_c, 3, 45, 66
5, 243980, Note_off_c, 3, 45, 64
5, 244140, Note_on_c, 3, 43, 62
5, 244220, Note_off_c, 3, 43, 64
5, 244380, Note_on_c, 3, 43, 58
5, 244460, Note_off_c, 3, 43, 64
5, 244620, Note_on_c, 3, 43, 54
5, 244700, Note_off_c, 3, 43, 64
5, 244860, Note_on_c, 3, 43, 50
5, 244940, Note_off_c, 3, 43, 64
5, 245100, Note_on_c, 3, 55, 46
5, 245180, Note_off_c, 3, 55, 64
5, 245340, Note_on_c, 3, 55, 42
5, 245420, Note_off_c, 3, 55, 64
5, 245580, Note_on_c, 3, 55, 38
5, 245660, Note_off_c, 3, 55, 64
5, 245820, Note_on_c, 3, 55, 34
5, 245900, Note_off_c, 3, 55, 64
5, 246060, Note_on_c, 3, 54, 30
5, 246300, Note_off_c, 3, 54, 64
5, 246300, Note_on_c, 3, 54, 30
5, 246380, Note_off_c, 3, 54, 64
5, 246540, Note_on_c, 3, 54, 32
5, 246620, Note_off_c, 3, 54, 64
5, 246780, Note_on_c, 3, 54, 34
5, 246860, Note_off_c, 3, 54, 64
5, 247020, Note_on_c, 3, 54, 36
5, 247420, Note_off_c, 3, 54, 64
5, 247980, Note_on_c, 3, 55, 45
5, 248220, Note_off_c, 3, 55, 64
5, 248220, Note_on_c, 3, 55, 45
5, 248300, Note_off_c, 3, 55, 64
5, 248460, Note_on_c, 3, 55, 47
5, 248540, Note_off_c, 3, 55, 64
5, 248700, Note_on_c, 3, 55, 49
5, 248780, Note_off_c, 3, 55, 64
5, 248940, Note_on_c, 3, 55, 51
5, 249340, Note_off_c, 3, 55, 64
5, 249900, Note_on_c, 3, 57, 60
5, 250140, Note_off_c, 3, 57, 64
5, 250140, Note_on_c, 3, 57, 60
5, 250220, Note_off_c, 3, 57, 64
5, 250380, Note_on_c, 3, 57, 62
5, 250460, Note_off_c, 3, 57, 64
5, 250620, Note_on_c, 3, 57, 64
5, 250700, Note_off_c, 3, 57, 64
5, 250860, Note_on_c, 3, 57, 66
5, 251260, Note_off_c, 3, 57, 64
5, 251820, Note_on_c, 3, 59, 75
5, 252220, Note_off_c, 3, 59, 64
5, 254220, Note_on_c, 3, 45, 92
5, 254700, Note_off_c, 3, 45, 64
5, 254700, Note_on_c, 3, 43, 92
5, 255180, Note_off_c, 3, 43, 64
5, 255180, Note_on_c, 3, 42, 92
5, 255660, Note_off_c, 3, 42, 64
5, 255660, Note_on_c, 3, 43, 92
5, 255895, Note_off_c, 3, 43, 64
5, 255900, Note_on_c, 3, 43, 92
5, 256135, Note_off_c, 3, 43, 64
5, 256140, Note_on_c, 3, 43, 92
5, 256375, Note_off_c, 3, 43, 64
5, 256380, Note_on_c, 3, 43, 92
5, 256615, Note_off_c, 3, 43, 64
5, 256620, Note_on_c, 3, 55, 92
5, 256855, Note_off_c, 3, 55, 64
5, 256860, Note_on_c, 3, 55, 92
5, 257095, Note_off_c, 3, 55, 64
5, 257100, Note_on_c, 3, 55, 92
5, 257335, Note_off_c, 3, 55, 64
5, 257340, Note_on_c, 3, 55, 92
5, 257575, Note_off_c, 3, 55, 64
5, 257580, Note_on_c, 3, 57, 92
5, 257815, Note_off_c, 3, 57, 64
5, 257820, Note_on_c, 3, 57, 92
5, 258055, Note_off_c, 3, 57, 64
5, 258060, Note_on_c, 3, 57, 92
5, 258295, Note_off_c, 3, 57, 64
5, 258300, Note_on_c, 3, 57, 92
5, 258535, Note_off_c, 3, 57, 64
5, 258540, Note_on_c, 3, 45, 92
5, 258775, Note_off_c, 3, 45, 64
5, 258780, Note_on_c, 3, 45, 92
5, 259015, Note_off_c, 3, 45, 64
5, 259020, Note_on_c, 3, 45, 92
5, 259255, Note_off_c, 3, 45, 64
5, 259260, Note_on_c, 3, 45, 92
5, 259495, Note_off_c, 3, 45, 64
5, 259500, Note_on_c, 3, 50, 92
5, 259735, Note_off_c, 3, 50, 64
5, 259740, Note_on_c, 3, 50, 92
5, 259975, Note_off_c, 3, 50, 64
5, 259980, Note_on_c, 3, 50, 92
5, 260215, Note_off_c, 3, 50, 64
5, 260220, Note_on_c, 3, 50, 92
5, 260455, Note_off_c, 3, 50, 64
5, 260460, Note_on_c, 3, 50, 92
5, 260695, Note_off_c, 3, 50, 64
5, 260700, Note_on_c, 3, 50, 92
5, 260935, Note_off_c, 3, 50, 64
5, 260940, Note_on_c, 3, 50, 92
5, 261175, Note_off_c, 3, 50, 64
5, 261180, Note_on_c, 3, 50, 92
5, 261415, Note_off_c, 3, 50, 64
5, 261420, Note_on_c, 3, 50, 92
5, 261655, Note_off_c, 3, 50, 64
5, 261660, Note_on_c, 3, 50, 87
5, 261895, Note_off_c, 3, 50, 64
5, 261900, Note_on_c, 3, 50, 81
5, 262135, Note_off_c, 3, 50, 64
5, 262140, Note_on_c, 3, 50, 75
5, 262375, Note_off_c, 3, 50, 64
5, 262380, Note_on_c, 3, 50, 69
5, 262615, Note_off_c, 3, 50, 64
5, 262620, Note_on_c, 3, 50, 63
5, 262855, Note_off_c, 3, 50, 64
5, 262860, Note_on_c, 3, 50, 57
5, 263095, Note_off_c, 3, 50, 64
5, 263100, Note_on_c, 3, 50, 51
5, 263335, Note_off_c, 3, 50, 64
5, 263340, Note_on_c, 3, 50, 45
5, 263575, Note_off_c, 3, 50, 64
5, 263580, Note_on_c, 3, 50, 45
5, 263815, Note_off_c, 3, 50, 64
5, 263820, Note_on_c, 3, 50, 40
5, 264055, Note_off_c, 3, 50, 64
5, 264060, Note_on_c, 3, 50, 35
5, 264295, Note_off_c, 3, 50, 64
5, 264300, Note_on_c, 3, 38, 30
5, 264700, Note_off_c, 3, 38, 64
5, 264700, End_track
6, 0, Start_track
6, 0, MIDI_port, 0
6, 0, Channel_prefix, 4
6, 0, Control_c, 4, 7, 127
6, 0, Control_c, 4, 10, 127
6, 0, Control_c, 4, 91, 55
6, 0, Program_c, 4, 50
6, 0, Note_on_c, 4, 38, 75
6, 80, Note_off_c, 4, 38, 64
6, 240, Note_on_c, 4, 38, 75
6, 320, Note_off_c, 4, 38, 64
6, 480, Note_on_c, 4, 38, 75
6, 560, Note_off_c, 4, 38, 64
6, 720, Note_on_c, 4, 38, 75
6, 800, Note_off_c, 4, 38, 64
6, 960, Note_on_c, 4, 38, 75
6, 1040, Note_off_c, 4, 38, 64
6, 1200, Note_on_c, 4, 38, 75
6, 1280, Note_off_c, 4, 38, 64
6, 1440, Note_on_c, 4, 38, 75
6, 1520, Note_off_c, 4, 38, 64
6, 1680, Note_on_c, 4, 38, 75
6, 1760, Note_off_c, 4, 38, 64
6, 1920, Note_on_c, 4, 38, 75
6, 2000, Note_off_c, 4, 38, 64
6, 2160, Note_on_c, 4, 38, 75
6, 2240, Note_off_c, 4, 38, 64
6, 2400, Note_on_c, 4, 38, 75
6, 2480, Note_off_c, 4, 38, 64
6, 2640, Note_on_c, 4, 38, 75
6, 2720, Note_off_c, 4, 38, 64
6, 2880, Note_on_c, 4, 38, 75
6, 2960, Note_off_c, 4, 38, 64
6, 3120, Note_on_c, 4, 38, 75
6, 3200, Note_off_c, 4, 38, 64
6, 3360, Note_on_c, 4, 38, 75
6, 3440, Note_off_c, 4, 38, 64
6, 3600, Note_on_c, 4, 38, 75
6, 3680, Note_off_c, 4, 38, 64
6, 3840, Note_on_c, 4, 38, 75
6, 3920, Note_off_c, 4, 38, 64
6, 4080, Note_on_c, 4, 38, 75
6, 4160, Note_off_c, 4, 38, 64
6, 4320, Note_on_c, 4, 38, 75
6, 4400, Note_off_c, 4, 38, 64
6, 4560, Note_on_c, 4, 38, 75
6, 4640, Note_off_c, 4, 38, 64
6, 4800, Note_on_c, 4, 38, 75
6, 4880, Note_off_c, 4, 38, 64
6, 5040, Note_on_c, 4, 38, 75
6, 5120, Note_off_c, 4, 38, 64
6, 5280, Note_on_c, 4, 38, 75
6, 5360, Note_off_c, 4, 38, 64
6, 5520, Note_on_c, 4, 38, 75
6, 5600, Note_off_c, 4, 38, 64
6, 5760, Note_on_c, 4, 38, 75
6, 5840, Note_off_c, 4, 38, 64
6, 6000, Note_on_c, 4, 38, 75
6, 6080, Note_off_c, 4, 38, 64
6, 6240, Note_on_c, 4, 38, 75
6, 6320, Note_off_c, 4, 38, 64
6, 6480, Note_on_c, 4, 38, 75
6, 6560, Note_off_c, 4, 38, 64
6, 6720, Note_on_c, 4, 38, 75
6, 6800, Note_off_c, 4, 38, 64
6, 6960, Note_on_c, 4, 38, 75
6, 7040, Note_off_c, 4, 38, 64
6, 7200, Note_on_c, 4, 38, 75
6, 7280, Note_off_c, 4, 38, 64
6, 7440, Note_on_c, 4, 38, 75
6, 7520, Note_off_c, 4, 38, 64
6, 7680, Note_on_c, 4, 33, 75
6, 7760, Note_off_c, 4, 33, 64
6, 7920, Note_on_c, 4, 33, 75
6, 8000, Note_off_c, 4, 33, 64
6, 8160, Note_on_c, 4, 33, 75
6, 8240, Note_off_c, 4, 33, 64
6, 8400, Note_on_c, 4, 33, 75
6, 8480, Note_off_c, 4, 33, 64
6, 8640, Note_on_c, 4, 33, 75
6, 8720, Note_off_c, 4, 33, 64
6, 8880, Note_on_c, 4, 33, 75
6, 8960, Note_off_c, 4, 33, 64
6, 9120, Note_on_c, 4, 33, 75
6, 9200, Note_off_c, 4, 33, 64
6, 9360, Note_on_c, 4, 33, 75
6, 9440, Note_off_c, 4, 33, 64
6, 9600, Note_on_c, 4, 38, 75
6, 9680, Note_off_c, 4, 38, 64
6, 9840, Note_on_c, 4, 38, 75
6, 9920, Note_off_c, 4, 38, 64
6, 10080, Note_on_c, 4, 38, 75
6, 10160, Note_off_c, 4, 38, 64
6, 10320, Note_on_c, 4, 38, 75
6, 10400, Note_off_c, 4, 38, 64
6, 10560, Note_on_c, 4, 38, 75
6, 10640, Note_off_c, 4, 38, 64
6, 10800, Note_on_c, 4, 38, 75
6, 10880, Note_off_c, 4, 38, 64
6, 11040, Note_on_c, 4, 40, 75
6, 11120, Note_off_c, 4, 40, 64
6, 11280, Note_on_c, 4, 40, 75
6, 11360, Note_off_c, 4, 40, 64
6, 11520, Note_on_c, 4, 42, 75
6, 11600, Note_off_c, 4, 42, 64
6, 11760, Note_on_c, 4, 42, 75
6, 11840, Note_off_c, 4, 42, 64
6, 12000, Note_on_c, 4, 42, 75
6, 12080, Note_off_c, 4, 42, 64
6, 12240, Note_on_c, 4, 42, 75
6, 12320, Note_off_c, 4, 42, 64
6, 12480, Note_on_c, 4, 42, 75
6, 12560, Note_off_c, 4, 42, 64
6, 12720, Note_on_c, 4, 42, 75
6, 12800, Note_off_c, 4, 42, 64
6, 12960, Note_on_c, 4, 42, 75
6, 13040, Note_off_c, 4, 42, 64
6, 13200, Note_on_c, 4, 42, 75
6, 13280, Note_off_c, 4, 42, 64
6, 13440, Note_on_c, 4, 43, 75
6, 13520, Note_off_c, 4, 43, 64
6, 13680, Note_on_c, 4, 43, 75
6, 13760, Note_off_c, 4, 43, 64
6, 13920, Note_on_c, 4, 43, 75
6, 14000, Note_off_c, 4, 43, 64
6, 14160, Note_on_c, 4, 43, 75
6, 14240, Note_off_c, 4, 43, 64
6, 14400, Note_on_c, 4, 43, 75
6, 14480, Note_off_c, 4, 43, 64
6, 14640, Note_on_c, 4, 43, 75
6, 14720, Note_off_c, 4, 43, 64
6, 14880, Note_on_c, 4, 43, 75
6, 14960, Note_off_c, 4, 43, 64
6, 15120, Note_on_c, 4, 43, 75
6, 15200, Note_off_c, 4, 43, 64
6, 15360, Note_on_c, 4, 45, 75
6, 15440, Note_off_c, 4, 45, 64
6, 15600, Note_on_c, 4, 45, 75
6, 15680, Note_off_c, 4, 45, 64
6, 15840, Note_on_c, 4, 45, 75
6, 15920, Note_off_c, 4, 45, 64
6, 16080, Note_on_c, 4, 45, 75
6, 16160, Note_off_c, 4, 45, 64
6, 16320, Note_on_c, 4, 45, 75
6, 16400, Note_off_c, 4, 45, 64
6, 16560, Note_on_c, 4, 45, 75
6, 16640, Note_off_c, 4, 45, 64
6, 16800, Note_on_c, 4, 45, 75
6, 16880, Note_off_c, 4, 45, 64
6, 17040, Note_on_c, 4, 45, 75
6, 17120, Note_off_c, 4, 45, 64
6, 17280, Note_on_c, 4, 33, 75
6, 17360, Note_off_c, 4, 33, 64
6, 17520, Note_on_c, 4, 33, 75
6, 17600, Note_off_c, 4, 33, 64
6, 17760, Note_on_c, 4, 33, 75
6, 17840, Note_off_c, 4, 33, 64
6, 18000, Note_on_c, 4, 33, 75
6, 18080, Note_off_c, 4, 33, 64
6, 18240, Note_on_c, 4, 33, 75
6, 18320, Note_off_c, 4, 33, 64
6, 18480, Note_on_c, 4, 33, 75
6, 18560, Note_off_c, 4, 33, 64
6, 18720, Note_on_c, 4, 33, 75
6, 18800, Note_off_c, 4, 33, 64
6, 18960, Note_on_c, 4, 33, 75
6, 19040, Note_off_c, 4, 33, 64
6, 19200, Note_on_c, 4, 38, 75
6, 19600, Note_off_c, 4, 38, 64
6, 19920, Note_on_c, 4, 33, 75
6, 20155, Note_off_c, 4, 33, 64
6, 20160, Note_on_c, 4, 38, 75
6, 20560, Note_off_c, 4, 38, 64
6, 20880, Note_on_c, 4, 45, 75
6, 21115, Note_off_c, 4, 45, 64
6, 21120, Note_on_c, 4, 38, 75
6, 21520, Note_off_c, 4, 38, 64
6, 21840, Note_on_c, 4, 33, 75
6, 22075, Note_off_c, 4, 33, 64
6, 22080, Note_on_c, 4, 38, 75
6, 22480, Note_off_c, 4, 38, 64
6, 22800, Note_on_c, 4, 45, 75
6, 23035, Note_off_c, 4, 45, 64
6, 23040, Note_on_c, 4, 38, 75
6, 23120, Note_off_c, 4, 38, 64
6, 23280, Note_on_c, 4, 38, 75
6, 23360, Note_off_c, 4, 38, 64
6, 23520, Note_on_c, 4, 38, 75
6, 23600, Note_off_c, 4, 38, 64
6, 23760, Note_on_c, 4, 38, 75
6, 23840, Note_off_c, 4, 38, 64
6, 24000, Note_on_c, 4, 38, 75
6, 24080, Note_off_c, 4, 38, 64
6, 24240, Note_on_c, 4, 38, 75
6, 24320, Note_off_c, 4, 38, 64
6, 24480, Note_on_c, 4, 38, 75
6, 24560, Note_off_c, 4, 38, 64
6, 24720, Note_on_c, 4, 38, 75
6, 24800, Note_off_c, 4, 38, 64
6, 24960, Note_on_c, 4, 38, 75
6, 25040, Note_off_c, 4, 38, 64
6, 25200, Note_on_c, 4, 38, 75
6, 25280, Note_off_c, 4, 38, 64
6, 25440, Note_on_c, 4, 38, 75
6, 25520, Note_off_c, 4, 38, 64
6, 25680, Note_on_c, 4, 38, 75
6, 25760, Note_off_c, 4, 38, 64
6, 25920, Note_on_c, 4, 38, 75
6, 26000, Note_off_c, 4, 38, 64
6, 26160, Note_on_c, 4, 38, 75
6, 26400, Note_off_c, 4, 38, 64
6, 26400, Note_on_c, 4, 38, 75
6, 26480, Note_off_c, 4, 38, 64
6, 26640, Note_on_c, 4, 38, 75
6, 26720, Note_off_c, 4, 38, 64
6, 26880, Note_on_c, 4, 40, 75
6, 26960, Note_off_c, 4, 40, 64
6, 27120, Note_on_c, 4, 40, 75
6, 27200, Note_off_c, 4, 40, 64
6, 27360, Note_on_c, 4, 40, 75
6, 27440, Note_off_c, 4, 40, 64
6, 27600, Note_on_c, 4, 40, 75
6, 27680, Note_off_c, 4, 40, 64
6, 27840, Note_on_c, 4, 40, 75
6, 27920, Note_off_c, 4, 40, 64
6, 28080, Note_on_c, 4, 40, 75
6, 28160, Note_off_c, 4, 40, 64
6, 28320, Note_on_c, 4, 40, 75
6, 28400, Note_off_c, 4, 40, 64
6, 28560, Note_on_c, 4, 40, 75
6, 28640, Note_off_c, 4, 40, 64
6, 28800, Note_on_c, 4, 40, 75
6, 28880, Note_off_c, 4, 40, 64
6, 29040, Note_on_c, 4, 40, 74
6, 29120, Note_off_c, 4, 40, 64
6, 29280, Note_on_c, 4, 40, 72
6, 29360, Note_off_c, 4, 40, 64
6, 29520, Note_on_c, 4, 40, 70
6, 29600, Note_off_c, 4, 40, 64
6, 29760, Note_on_c, 4, 40, 68
6, 29840, Note_off_c, 4, 40, 64
6, 30000, Note_on_c, 4, 40, 66
6, 30240, Note_off_c, 4, 40, 64
6, 30240, Note_on_c, 4, 40, 64
6, 30320, Note_off_c, 4, 40, 64
6, 30480, Note_on_c, 4, 44, 62
6, 30560, Note_off_c, 4, 44, 64
6, 30720, Note_on_c, 4, 45, 60
6, 30800, Note_off_c, 4, 45, 64
6, 30960, Note_on_c, 4, 45, 60
6, 31040, Note_off_c, 4, 45, 64
6, 31200, Note_on_c, 4, 45, 60
6, 31280, Note_off_c, 4, 45, 64
6, 31440, Note_on_c, 4, 45, 60
6, 31520, Note_off_c, 4, 45, 64
6, 31680, Note_on_c, 4, 49, 60
6, 31760, Note_off_c, 4, 49, 64
6, 31920, Note_on_c, 4, 49, 60
6, 32000, Note_off_c, 4, 49, 64
6, 32160, Note_on_c, 4, 49, 60
6, 32240, Note_off_c, 4, 49, 64
6, 32400, Note_on_c, 4, 49, 60
6, 32480, Note_off_c, 4, 49, 64
6, 32640, Note_on_c, 4, 47, 60
6, 32720, Note_off_c, 4, 47, 64
6, 32880, Note_on_c, 4, 47, 60
6, 32960, Note_off_c, 4, 47, 64
6, 33120, Note_on_c, 4, 47, 60
6, 33200, Note_off_c, 4, 47, 64
6, 33360, Note_on_c, 4, 47, 60
6, 33440, Note_off_c, 4, 47, 64
6, 33600, Note_on_c, 4, 44, 60
6, 33680, Note_off_c, 4, 44, 64
6, 33840, Note_on_c, 4, 44, 60
6, 33920, Note_off_c, 4, 44, 64
6, 34080, Note_on_c, 4, 44, 60
6, 34160, Note_off_c, 4, 44, 64
6, 34320, Note_on_c, 4, 44, 60
6, 34400, Note_off_c, 4, 44, 64
6, 34560, Note_on_c, 4, 45, 60
6, 34640, Note_off_c, 4, 45, 64
6, 34800, Note_on_c, 4, 45, 60
6, 34880, Note_off_c, 4, 45, 64
6, 35040, Note_on_c, 4, 45, 60
6, 35120, Note_off_c, 4, 45, 64
6, 35280, Note_on_c, 4, 45, 60
6, 35360, Note_off_c, 4, 45, 64
6, 35520, Note_on_c, 4, 49, 60
6, 35600, Note_off_c, 4, 49, 64
6, 35760, Note_on_c, 4, 49, 60
6, 35840, Note_off_c, 4, 49, 64
6, 36000, Note_on_c, 4, 49, 60
6, 36080, Note_off_c, 4, 49, 64
6, 36240, Note_on_c, 4, 49, 60
6, 36320, Note_off_c, 4, 49, 64
6, 36480, Note_on_c, 4, 47, 60
6, 36560, Note_off_c, 4, 47, 64
6, 36720, Note_on_c, 4, 47, 60
6, 36800, Note_off_c, 4, 47, 64
6, 36960, Note_on_c, 4, 47, 60
6, 37040, Note_off_c, 4, 47, 64
6, 37200, Note_on_c, 4, 47, 60
6, 37280, Note_off_c, 4, 47, 64
6, 37440, Note_on_c, 4, 40, 60
6, 37520, Note_off_c, 4, 40, 64
6, 37680, Note_on_c, 4, 40, 60
6, 37760, Note_off_c, 4, 40, 64
6, 37920, Note_on_c, 4, 40, 60
6, 38000, Note_off_c, 4, 40, 64
6, 38160, Note_on_c, 4, 40, 60
6, 38240, Note_off_c, 4, 40, 64
6, 38400, Note_on_c, 4, 33, 60
6, 38800, Note_off_c, 4, 33, 64
6, 41520, Note_on_c, 4, 45, 75
6, 41600, Note_off_c, 4, 45, 64
6, 41760, Note_on_c, 4, 33, 75
6, 41840, Note_off_c, 4, 33, 64
6, 42000, Note_on_c, 4, 35, 75
6, 42060, Note_off_c, 4, 35, 64
6, 42060, Note_on_c, 4, 37, 75
6, 42120, Note_off_c, 4, 37, 64
6, 42120, Note_on_c, 4, 35, 75
6, 42180, Note_off_c, 4, 35, 64
6, 42180, Note_on_c, 4, 37, 75
6, 42240, Note_off_c, 4, 37, 64
6, 42240, Note_on_c, 4, 37, 75
6, 42320, Note_off_c, 4, 37, 64
6, 42480, Note_on_c, 4, 37, 75
6, 42560, Note_off_c, 4, 37, 64
6, 42720, Note_on_c, 4, 37, 75
6, 42800, Note_off_c, 4, 37, 64
6, 42960, Note_on_c, 4, 37, 75
6, 43040, Note_off_c, 4, 37, 64
6, 43200, Note_on_c, 4, 37, 75
6, 43280, Note_off_c, 4, 37, 64
6, 43440, Note_on_c, 4, 37, 75
6, 43520, Note_off_c, 4, 37, 64
6, 43680, Note_on_c, 4, 37, 75
6, 43760, Note_off_c, 4, 37, 64
6, 43920, Note_on_c, 4, 37, 75
6, 44000, Note_off_c, 4, 37, 64
6, 44160, Note_on_c, 4, 38, 75
6, 44240, Note_off_c, 4, 38, 64
6, 44400, Note_on_c, 4, 38, 75
6, 44480, Note_off_c, 4, 38, 64
6, 44640, Note_on_c, 4, 38, 75
6, 44720, Note_off_c, 4, 38, 64
6, 44880, Note_on_c, 4, 38, 75
6, 44960, Note_off_c, 4, 38, 64
6, 45120, Note_on_c, 4, 38, 75
6, 45200, Note_off_c, 4, 38, 64
6, 45360, Note_on_c, 4, 38, 75
6, 45440, Note_off_c, 4, 38, 64
6, 45600, Note_on_c, 4, 38, 75
6, 45680, Note_off_c, 4, 38, 64
6, 45840, Note_on_c, 4, 38, 75
6, 45920, Note_off_c, 4, 38, 64
6, 46080, Note_on_c, 4, 40, 75
6, 46160, Note_off_c, 4, 40, 64
6, 46320, Note_on_c, 4, 40, 75
6, 46400, Note_off_c, 4, 40, 64
6, 46560, Note_on_c, 4, 40, 75
6, 46640, Note_off_c, 4, 40, 64
6, 46800, Note_on_c, 4, 40, 75
6, 46880, Note_off_c, 4, 40, 64
6, 47040, Note_on_c, 4, 40, 75
6, 47120, Note_off_c, 4, 40, 64
6, 47280, Note_on_c, 4, 40, 75
6, 47360, Note_off_c, 4, 40, 64
6, 47520, Note_on_c, 4, 40, 75
6, 47600, Note_off_c, 4, 40, 64
6, 47760, Note_on_c, 4, 40, 75
6, 47840, Note_off_c, 4, 40, 64
6, 48000, Note_on_c, 4, 38, 75
6, 48080, Note_off_c, 4, 38, 64
6, 48240, Note_on_c, 4, 38, 72
6, 48320, Note_off_c, 4, 38, 64
6, 48480, Note_on_c, 4, 38, 69
6, 48560, Note_off_c, 4, 38, 64
6, 48720, Note_on_c, 4, 38, 65
6, 48800, Note_off_c, 4, 38, 64
6, 48960, Note_on_c, 4, 38, 61
6, 49040, Note_off_c, 4, 38, 64
6, 49200, Note_on_c, 4, 38, 57
6, 49280, Note_off_c, 4, 38, 64
6, 49440, Note_on_c, 4, 38, 53
6, 49520, Note_off_c, 4, 38, 64
6, 49680, Note_on_c, 4, 38, 49
6, 49760, Note_off_c, 4, 38, 64
6, 49920, Note_on_c, 4, 37, 45
6, 50160, Note_off_c, 4, 37, 64
6, 50160, Note_on_c, 4, 37, 46
6, 50240, Note_off_c, 4, 37, 64
6, 50400, Note_on_c, 4, 37, 48
6, 50480, Note_off_c, 4, 37, 64
6, 50640, Note_on_c, 4, 37, 50
6, 50720, Note_off_c, 4, 37, 64
6, 50880, Note_on_c, 4, 37, 52
6, 51280, Note_off_c, 4, 37, 64
6, 51840, Note_on_c, 4, 38, 60
6, 52080, Note_off_c, 4, 38, 64
6, 52080, Note_on_c, 4, 38, 60
6, 52160, Note_off_c, 4, 38, 64
6, 52320, Note_on_c, 4, 38, 62
6, 52400, Note_off_c, 4, 38, 64
6, 52560, Note_on_c, 4, 38, 64
6, 52640, Note_off_c, 4, 38, 64
6, 52800, Note_on_c, 4, 38, 66
6, 53200, Note_off_c, 4, 38, 64
6, 53760, Note_on_c, 4, 40, 75
6, 54000, Note_off_c, 4, 40, 64
6, 54000, Note_on_c, 4, 40, 75
6, 54080, Note_off_c, 4, 40, 64
6, 54240, Note_on_c, 4, 40, 77
6, 54320, Note_off_c, 4, 40, 64
6, 54480, Note_on_c, 4, 40, 79
6, 54560, Note_off_c, 4, 40, 64
6, 54720, Note_on_c, 4, 40, 81
6, 55120, Note_off_c, 4, 40, 64
6, 55680, Note_on_c, 4, 42, 92
6, 56080, Note_off_c, 4, 42, 64
6, 58080, Note_on_c, 4, 40, 92
6, 58560, Note_off_c, 4, 40, 64
6, 58560, Note_on_c, 4, 38, 92
6, 59040, Note_off_c, 4, 38, 64
6, 59040, Note_on_c, 4, 37, 92
6, 59520, Note_off_c, 4, 37, 64
6, 59520, Note_on_c, 4, 38, 92
6, 59600, Note_off_c, 4, 38, 64
6, 59760, Note_on_c, 4, 38, 92
6, 59840, Note_off_c, 4, 38, 64
6, 60000, Note_on_c, 4, 38, 92
6, 60080, Note_off_c, 4, 38, 64
6, 60240, Note_on_c, 4, 38, 92
6, 60320, Note_off_c, 4, 38, 64
6, 60480, Note_on_c, 4, 38, 92
6, 60560, Note_off_c, 4, 38, 64
6, 60720, Note_on_c, 4, 38, 92
6, 60800, Note_off_c, 4, 38, 64
6, 60960, Note_on_c, 4, 38, 92
6, 61040, Note_off_c, 4, 38, 64
6, 61200, Note_on_c, 4, 38, 92
6, 61280, Note_off_c, 4, 38, 64
6, 61440, Note_on_c, 4, 40, 92
6, 61520, Note_off_c, 4, 40, 64
6, 61680, Note_on_c, 4, 40, 92
6, 61760, Note_off_c, 4, 40, 64
6, 61920, Note_on_c, 4, 40, 92
6, 62000, Note_off_c, 4, 40, 64
6, 62160, Note_on_c, 4, 40, 92
6, 62240, Note_off_c, 4, 40, 64
6, 62400, Note_on_c, 4, 40, 92
6, 62480, Note_off_c, 4, 40, 64
6, 62640, Note_on_c, 4, 40, 92
6, 62720, Note_off_c, 4, 40, 64
6, 62880, Note_on_c, 4, 40, 92
6, 62960, Note_off_c, 4, 40, 64
6, 63120, Note_on_c, 4, 40, 92
6, 63200, Note_off_c, 4, 40, 64
6, 63360, Note_on_c, 4, 33, 92
6, 63440, Note_off_c, 4, 33, 64
6, 63600, Note_on_c, 4, 33, 90
6, 63680, Note_off_c, 4, 33, 64
6, 63840, Note_on_c, 4, 33, 88
6, 63920, Note_off_c, 4, 33, 64
6, 64080, Note_on_c, 4, 33, 86
6, 64160, Note_off_c, 4, 33, 64
6, 64320, Note_on_c, 4, 33, 84
6, 64400, Note_off_c, 4, 33, 64
6, 64560, Note_on_c, 4, 33, 81
6, 64640, Note_off_c, 4, 33, 64
6, 64800, Note_on_c, 4, 33, 78
6, 64880, Note_off_c, 4, 33, 64
6, 65040, Note_on_c, 4, 33, 75
6, 65120, Note_off_c, 4, 33, 64
6, 65280, Note_on_c, 4, 33, 75
6, 65360, Note_off_c, 4, 33, 64
6, 65520, Note_on_c, 4, 33, 74
6, 65600, Note_off_c, 4, 33, 64
6, 65760, Note_on_c, 4, 33, 72
6, 65840, Note_off_c, 4, 33, 64
6, 66000, Note_on_c, 4, 33, 70
6, 66080, Note_off_c, 4, 33, 64
6, 66240, Note_on_c, 4, 33, 68
6, 66320, Note_off_c, 4, 33, 64
6, 66480, Note_on_c, 4, 33, 66
6, 66560, Note_off_c, 4, 33, 64
6, 66720, Note_on_c, 4, 33, 64
6, 66800, Note_off_c, 4, 33, 64
6, 66960, Note_on_c, 4, 33, 62
6, 67040, Note_off_c, 4, 33, 64
6, 67200, Note_on_c, 4, 33, 60
6, 67280, Note_off_c, 4, 33, 64
6, 67440, Note_on_c, 4, 33, 60
6, 67520, Note_off_c, 4, 33, 64
6, 67680, Note_on_c, 4, 33, 55
6, 67760, Note_off_c, 4, 33, 64
6, 67920, Note_on_c, 4, 33, 50
6, 68000, Note_off_c, 4, 33, 64
6, 68160, Note_on_c, 4, 33, 45
6, 68560, Note_off_c, 4, 33, 64
6, 69120, Note_on_c, 4, 38, 75
6, 69200, Note_off_c, 4, 38, 64
6, 69360, Note_on_c, 4, 38, 75
6, 69440, Note_off_c, 4, 38, 64
6, 69600, Note_on_c, 4, 38, 75
6, 69680, Note_off_c, 4, 38, 64
6, 69840, Note_on_c, 4, 38, 75
6, 69920, Note_off_c, 4, 38, 64
6, 70080, Note_on_c, 4, 38, 75
6, 70160, Note_off_c, 4, 38, 64
6, 70320, Note_on_c, 4, 38, 75
6, 70400, Note_off_c, 4, 38, 64
6, 70560, Note_on_c, 4, 38, 75
6, 70640, Note_off_c, 4, 38, 64
6, 70800, Note_on_c, 4, 38, 75
6, 70880, Note_off_c, 4, 38, 64
6, 71040, Note_on_c, 4, 38, 75
6, 71120, Note_off_c, 4, 38, 64
6, 71280, Note_on_c, 4, 38, 75
6, 71360, Note_off_c, 4, 38, 64
6, 71520, Note_on_c, 4, 38, 75
6, 71600, Note_off_c, 4, 38, 64
6, 71760, Note_on_c, 4, 38, 75
6, 71840, Note_off_c, 4, 38, 64
6, 72000, Note_on_c, 4, 38, 75
6, 72080, Note_off_c, 4, 38, 64
6, 72240, Note_on_c, 4, 38, 75
6, 72320, Note_off_c, 4, 38, 64
6, 72480, Note_on_c, 4, 38, 75
6, 72560, Note_off_c, 4, 38, 64
6, 72720, Note_on_c, 4, 38, 75
6, 72800, Note_off_c, 4, 38, 64
6, 72960, Note_on_c, 4, 38, 75
6, 73040, Note_off_c, 4, 38, 64
6, 73200, Note_on_c, 4, 38, 75
6, 73280, Note_off_c, 4, 38, 64
6, 73440, Note_on_c, 4, 38, 75
6, 73520, Note_off_c, 4, 38, 64
6, 73680, Note_on_c, 4, 38, 75
6, 73760, Note_off_c, 4, 38, 64
6, 73920, Note_on_c, 4, 38, 75
6, 74000, Note_off_c, 4, 38, 64
6, 74160, Note_on_c, 4, 38, 75
6, 74240, Note_off_c, 4, 38, 64
6, 74400, Note_on_c, 4, 38, 75
6, 74480, Note_off_c, 4, 38, 64
6, 74640, Note_on_c, 4, 38, 75
6, 74720, Note_off_c, 4, 38, 64
6, 74880, Note_on_c, 4, 38, 75
6, 74960, Note_off_c, 4, 38, 64
6, 75120, Note_on_c, 4, 38, 75
6, 75200, Note_off_c, 4, 38, 64
6, 75360, Note_on_c, 4, 38, 75
6, 75440, Note_off_c, 4, 38, 64
6, 75600, Note_on_c, 4, 38, 75
6, 75680, Note_off_c, 4, 38, 64
6, 75840, Note_on_c, 4, 38, 75
6, 75920, Note_off_c, 4, 38, 64
6, 76080, Note_on_c, 4, 38, 75
6, 76160, Note_off_c, 4, 38, 64
6, 76320, Note_on_c, 4, 38, 75
6, 76400, Note_off_c, 4, 38, 64
6, 76560, Note_on_c, 4, 38, 75
6, 76640, Note_off_c, 4, 38, 64
6, 76800, Note_on_c, 4, 33, 75
6, 76880, Note_off_c, 4, 33, 64
6, 77040, Note_on_c, 4, 33, 75
6, 77120, Note_off_c, 4, 33, 64
6, 77280, Note_on_c, 4, 33, 75
6, 77360, Note_off_c, 4, 33, 64
6, 77520, Note_on_c, 4, 33, 75
6, 77600, Note_off_c, 4, 33, 64
6, 77760, Note_on_c, 4, 33, 75
6, 77840, Note_off_c, 4, 33, 64
6, 78000, Note_on_c, 4, 33, 75
6, 78080, Note_off_c, 4, 33, 64
6, 78240, Note_on_c, 4, 33, 75
6, 78320, Note_off_c, 4, 33, 64
6, 78480, Note_on_c, 4, 33, 75
6, 78560, Note_off_c, 4, 33, 64
6, 78720, Note_on_c, 4, 38, 75
6, 78800, Note_off_c, 4, 38, 64
6, 78960, Note_on_c, 4, 38, 75
6, 79040, Note_off_c, 4, 38, 64
6, 79200, Note_on_c, 4, 38, 75
6, 79280, Note_off_c, 4, 38, 64
6, 79440, Note_on_c, 4, 38, 75
6, 79520, Note_off_c, 4, 38, 64
6, 79680, Note_on_c, 4, 38, 75
6, 79760, Note_off_c, 4, 38, 64
6, 79920, Note_on_c, 4, 38, 75
6, 80000, Note_off_c, 4, 38, 64
6, 80160, Note_on_c, 4, 40, 75
6, 80240, Note_off_c, 4, 40, 64
6, 80400, Note_on_c, 4, 40, 75
6, 80480, Note_off_c, 4, 40, 64
6, 80640, Note_on_c, 4, 42, 75
6, 80720, Note_off_c, 4, 42, 64
6, 80880, Note_on_c, 4, 42, 75
6, 80960, Note_off_c, 4, 42, 64
6, 81120, Note_on_c, 4, 42, 75
6, 81200, Note_off_c, 4, 42, 64
6, 81360, Note_on_c, 4, 42, 75
6, 81440, Note_off_c, 4, 42, 64
6, 81600, Note_on_c, 4, 42, 75
6, 81680, Note_off_c, 4, 42, 64
6, 81840, Note_on_c, 4, 42, 75
6, 81920, Note_off_c, 4, 42, 64
6, 82080, Note_on_c, 4, 42, 75
6, 82160, Note_off_c, 4, 42, 64
6, 82320, Note_on_c, 4, 42, 75
6, 82400, Note_off_c, 4, 42, 64
6, 82560, Note_on_c, 4, 43, 75
6, 82640, Note_off_c, 4, 43, 64
6, 82800, Note_on_c, 4, 43, 75
6, 82880, Note_off_c, 4, 43, 64
6, 83040, Note_on_c, 4, 43, 75
6, 83120, Note_off_c, 4, 43, 64
6, 83280, Note_on_c, 4, 43, 75
6, 83360, Note_off_c, 4, 43, 64
6, 83520, Note_on_c, 4, 43, 75
6, 83600, Note_off_c, 4, 43, 64
6, 83760, Note_on_c, 4, 43, 75
6, 83840, Note_off_c, 4, 43, 64
6, 84000, Note_on_c, 4, 43, 75
6, 84080, Note_off_c, 4, 43, 64
6, 84240, Note_on_c, 4, 43, 75
6, 84320, Note_off_c, 4, 43, 64
6, 84480, Note_on_c, 4, 45, 75
6, 84560, Note_off_c, 4, 45, 64
6, 84720, Note_on_c, 4, 45, 75
6, 84800, Note_off_c, 4, 45, 64
6, 84960, Note_on_c, 4, 45, 75
6, 85040, Note_off_c, 4, 45, 64
6, 85200, Note_on_c, 4, 45, 75
6, 85280, Note_off_c, 4, 45, 64
6, 85440, Note_on_c, 4, 45, 75
6, 85520, Note_off_c, 4, 45, 64
6, 85680, Note_on_c, 4, 45, 75
6, 85760, Note_off_c, 4, 45, 64
6, 85920, Note_on_c, 4, 45, 75
6, 86000, Note_off_c, 4, 45, 64
6, 86160, Note_on_c, 4, 45, 75
6, 86240, Note_off_c, 4, 45, 64
6, 86400, Note_on_c, 4, 33, 75
6, 86480, Note_off_c, 4, 33, 64
6, 86640, Note_on_c, 4, 33, 75
6, 86720, Note_off_c, 4, 33, 64
6, 86880, Note_on_c, 4, 33, 75
6, 86960, Note_off_c, 4, 33, 64
6, 87120, Note_on_c, 4, 33, 75
6, 87200, Note_off_c, 4, 33, 64
6, 87360, Note_on_c, 4, 33, 75
6, 87440, Note_off_c, 4, 33, 64
6, 87600, Note_on_c, 4, 33, 75
6, 87680, Note_off_c, 4, 33, 64
6, 87840, Note_on_c, 4, 33, 75
6, 87920, Note_off_c, 4, 33, 64
6, 88080, Note_on_c, 4, 33, 75
6, 88160, Note_off_c, 4, 33, 64
6, 88320, Note_on_c, 4, 38, 75
6, 88720, Note_off_c, 4, 38, 64
6, 89040, Note_on_c, 4, 33, 75
6, 89275, Note_off_c, 4, 33, 64
6, 89280, Note_on_c, 4, 38, 75
6, 89680, Note_off_c, 4, 38, 64
6, 90000, Note_on_c, 4, 45, 75
6, 90235, Note_off_c, 4, 45, 64
6, 90240, Note_on_c, 4, 38, 75
6, 90640, Note_off_c, 4, 38, 64
6, 90960, Note_on_c, 4, 33, 75
6, 91195, Note_off_c, 4, 33, 64
6, 91200, Note_on_c, 4, 38, 75
6, 91600, Note_off_c, 4, 38, 64
6, 91920, Note_on_c, 4, 45, 75
6, 92155, Note_off_c, 4, 45, 64
6, 92160, Note_on_c, 4, 38, 75
6, 92240, Note_off_c, 4, 38, 64
6, 92400, Note_on_c, 4, 38, 75
6, 92480, Note_off_c, 4, 38, 64
6, 92640, Note_on_c, 4, 38, 75
6, 92720, Note_off_c, 4, 38, 64
6, 92880, Note_on_c, 4, 38, 75
6, 92960, Note_off_c, 4, 38, 64
6, 93120, Note_on_c, 4, 38, 75
6, 93200, Note_off_c, 4, 38, 64
6, 93360, Note_on_c, 4, 38, 75
6, 93440, Note_off_c, 4, 38, 64
6, 93600, Note_on_c, 4, 38, 75
6, 93680, Note_off_c, 4, 38, 64
6, 93840, Note_on_c, 4, 38, 75
6, 93920, Note_off_c, 4, 38, 64
6, 94080, Note_on_c, 4, 38, 75
6, 94160, Note_off_c, 4, 38, 64
6, 94320, Note_on_c, 4, 38, 75
6, 94400, Note_off_c, 4, 38, 64
6, 94560, Note_on_c, 4, 38, 75
6, 94640, Note_off_c, 4, 38, 64
6, 94800, Note_on_c, 4, 38, 75
6, 94880, Note_off_c, 4, 38, 64
6, 95040, Note_on_c, 4, 38, 75
6, 95120, Note_off_c, 4, 38, 64
6, 95280, Note_on_c, 4, 38, 75
6, 95520, Note_off_c, 4, 38, 64
6, 95520, Note_on_c, 4, 38, 75
6, 95600, Note_off_c, 4, 38, 64
6, 95760, Note_on_c, 4, 38, 75
6, 95840, Note_off_c, 4, 38, 64
6, 96000, Note_on_c, 4, 40, 75
6, 96080, Note_off_c, 4, 40, 64
6, 96240, Note_on_c, 4, 40, 75
6, 96320, Note_off_c, 4, 40, 64
6, 96480, Note_on_c, 4, 40, 75
6, 96560, Note_off_c, 4, 40, 64
6, 96720, Note_on_c, 4, 40, 75
6, 96800, Note_off_c, 4, 40, 64
6, 96960, Note_on_c, 4, 40, 75
6, 97040, Note_off_c, 4, 40, 64
6, 97200, Note_on_c, 4, 40, 75
6, 97280, Note_off_c, 4, 40, 64
6, 97440, Note_on_c, 4, 40, 75
6, 97520, Note_off_c, 4, 40, 64
6, 97680, Note_on_c, 4, 40, 75
6, 97760, Note_off_c, 4, 40, 64
6, 97920, Note_on_c, 4, 40, 75
6, 98000, Note_off_c, 4, 40, 64
6, 98160, Note_on_c, 4, 40, 74
6, 98240, Note_off_c, 4, 40, 64
6, 98400, Note_on_c, 4, 40, 72
6, 98480, Note_off_c, 4, 40, 64
6, 98640, Note_on_c, 4, 40, 70
6, 98720, Note_off_c, 4, 40, 64
6, 98880, Note_on_c, 4, 40, 68
6, 98960, Note_off_c, 4, 40, 64
6, 99120, Note_on_c, 4, 40, 66
6, 99360, Note_off_c, 4, 40, 64
6, 99360, Note_on_c, 4, 40, 64
6, 99440, Note_off_c, 4, 40, 64
6, 99600, Note_on_c, 4, 44, 62
6, 99680, Note_off_c, 4, 44, 64
6, 99840, Note_on_c, 4, 45, 60
6, 99920, Note_off_c, 4, 45, 64
6, 100080, Note_on_c, 4, 45, 60
6, 100160, Note_off_c, 4, 45, 64
6, 100320, Note_on_c, 4, 45, 60
6, 100400, Note_off_c, 4, 45, 64
6, 100560, Note_on_c, 4, 45, 60
6, 100640, Note_off_c, 4, 45, 64
6, 100800, Note_on_c, 4, 49, 60
6, 100880, Note_off_c, 4, 49, 64
6, 101040, Note_on_c, 4, 49, 60
6, 101120, Note_off_c, 4, 49, 64
6, 101280, Note_on_c, 4, 49, 60
6, 101360, Note_off_c, 4, 49, 64
6, 101520, Note_on_c, 4, 49, 60
6, 101600, Note_off_c, 4, 49, 64
6, 101760, Note_on_c, 4, 47, 60
6, 101840, Note_off_c, 4, 47, 64
6, 102000, Note_on_c, 4, 47, 60
6, 102080, Note_off_c, 4, 47, 64
6, 102240, Note_on_c, 4, 47, 60
6, 102320, Note_off_c, 4, 47, 64
6, 102480, Note_on_c, 4, 47, 60
6, 102560, Note_off_c, 4, 47, 64
6, 102720, Note_on_c, 4, 44, 60
6, 102800, Note_off_c, 4, 44, 64
6, 102960, Note_on_c, 4, 44, 60
6, 103040, Note_off_c, 4, 44, 64
6, 103200, Note_on_c, 4, 44, 60
6, 103280, Note_off_c, 4, 44, 64
6, 103440, Note_on_c, 4, 44, 60
6, 103520, Note_off_c, 4, 44, 64
6, 103680, Note_on_c, 4, 45, 60
6, 103760, Note_off_c, 4, 45, 64
6, 103920, Note_on_c, 4, 45, 60
6, 104000, Note_off_c, 4, 45, 64
6, 104160, Note_on_c, 4, 45, 60
6, 104240, Note_off_c, 4, 45, 64
6, 104400, Note_on_c, 4, 45, 60
6, 104480, Note_off_c, 4, 45, 64
6, 104640, Note_on_c, 4, 49, 60
6, 104720, Note_off_c, 4, 49, 64
6, 104880, Note_on_c, 4, 49, 60
6, 104960, Note_off_c, 4, 49, 64
6, 105120, Note_on_c, 4, 49, 60
6, 105200, Note_off_c, 4, 49, 64
6, 105360, Note_on_c, 4, 49, 60
6, 105440, Note_off_c, 4, 49, 64
6, 105600, Note_on_c, 4, 47, 60
6, 105680, Note_off_c, 4, 47, 64
6, 105840, Note_on_c, 4, 47, 60
6, 105920, Note_off_c, 4, 47, 64
6, 106080, Note_on_c, 4, 47, 60
6, 106160, Note_off_c, 4, 47, 64
6, 106320, Note_on_c, 4, 47, 60
6, 106400, Note_off_c, 4, 47, 64
6, 106560, Note_on_c, 4, 40, 60
6, 106640, Note_off_c, 4, 40, 64
6, 106800, Note_on_c, 4, 40, 60
6, 106880, Note_off_c, 4, 40, 64
6, 107040, Note_on_c, 4, 40, 60
6, 107120, Note_off_c, 4, 40, 64
6, 107280, Note_on_c, 4, 40, 60
6, 107360, Note_off_c, 4, 40, 64
6, 107520, Note_on_c, 4, 33, 60
6, 107920, Note_off_c, 4, 33, 64
6, 110640, Note_on_c, 4, 45, 75
6, 110720, Note_off_c, 4, 45, 64
6, 110880, Note_on_c, 4, 33, 75
6, 110960, Note_off_c, 4, 33, 64
6, 111120, Note_on_c, 4, 35, 75
6, 111180, Note_off_c, 4, 35, 64
6, 111180, Note_on_c, 4, 37, 75
6, 111240, Note_off_c, 4, 37, 64
6, 111240, Note_on_c, 4, 35, 75
6, 111300, Note_off_c, 4, 35, 64
6, 111300, Note_on_c, 4, 37, 75
6, 111360, Note_off_c, 4, 37, 64
6, 111360, Note_on_c, 4, 37, 75
6, 111440, Note_off_c, 4, 37, 64
6, 111600, Note_on_c, 4, 37, 75
6, 111680, Note_off_c, 4, 37, 64
6, 111840, Note_on_c, 4, 37, 75
6, 111920, Note_off_c, 4, 37, 64
6, 112080, Note_on_c, 4, 37, 75
6, 112160, Note_off_c, 4, 37, 64
6, 112320, Note_on_c, 4, 37, 75
6, 112400, Note_off_c, 4, 37, 64
6, 112560, Note_on_c, 4, 37, 75
6, 112640, Note_off_c, 4, 37, 64
6, 112800, Note_on_c, 4, 37, 75
6, 112880, Note_off_c, 4, 37, 64
6, 113040, Note_on_c, 4, 37, 75
6, 113120, Note_off_c, 4, 37, 64
6, 113280, Note_on_c, 4, 38, 75
6, 113360, Note_off_c, 4, 38, 64
6, 113520, Note_on_c, 4, 38, 75
6, 113600, Note_off_c, 4, 38, 64
6, 113760, Note_on_c, 4, 38, 75
6, 113840, Note_off_c, 4, 38, 64
6, 114000, Note_on_c, 4, 38, 75
6, 114080, Note_off_c, 4, 38, 64
6, 114240, Note_on_c, 4, 38, 75
6, 114320, Note_off_c, 4, 38, 64
6, 114480, Note_on_c, 4, 38, 75
6, 114560, Note_off_c, 4, 38, 64
6, 114720, Note_on_c, 4, 38, 75
6, 114800, Note_off_c, 4, 38, 64
6, 114960, Note_on_c, 4, 38, 75
6, 115040, Note_off_c, 4, 38, 64
6, 115200, Note_on_c, 4, 40, 75
6, 115280, Note_off_c, 4, 40, 64
6, 115440, Note_on_c, 4, 40, 75
6, 115520, Note_off_c, 4, 40, 64
6, 115680, Note_on_c, 4, 40, 75
6, 115760, Note_off_c, 4, 40, 64
6, 115920, Note_on_c, 4, 40, 75
6, 116000, Note_off_c, 4, 40, 64
6, 116160, Note_on_c, 4, 40, 75
6, 116240, Note_off_c, 4, 40, 64
6, 116400, Note_on_c, 4, 40, 75
6, 116480, Note_off_c, 4, 40, 64
6, 116640, Note_on_c, 4, 40, 75
6, 116720, Note_off_c, 4, 40, 64
6, 116880, Note_on_c, 4, 40, 75
6, 116960, Note_off_c, 4, 40, 64
6, 117120, Note_on_c, 4, 38, 75
6, 117200, Note_off_c, 4, 38, 64
6, 117360, Note_on_c, 4, 38, 72
6, 117440, Note_off_c, 4, 38, 64
6, 117600, Note_on_c, 4, 38, 69
6, 117680, Note_off_c, 4, 38, 64
6, 117840, Note_on_c, 4, 38, 65
6, 117920, Note_off_c, 4, 38, 64
6, 118080, Note_on_c, 4, 38, 61
6, 118160, Note_off_c, 4, 38, 64
6, 118320, Note_on_c, 4, 38, 57
6, 118400, Note_off_c, 4, 38, 64
6, 118560, Note_on_c, 4, 38, 53
6, 118640, Note_off_c, 4, 38, 64
6, 118800, Note_on_c, 4, 38, 49
6, 118880, Note_off_c, 4, 38, 64
6, 119040, Note_on_c, 4, 37, 45
6, 119280, Note_off_c, 4, 37, 64
6, 119280, Note_on_c, 4, 37, 46
6, 119360, Note_off_c, 4, 37, 64
6, 119520, Note_on_c, 4, 37, 48
6, 119600, Note_off_c, 4, 37, 64
6, 119760, Note_on_c, 4, 37, 50
6, 119840, Note_off_c, 4, 37, 64
6, 120000, Note_on_c, 4, 37, 52
6, 120400, Note_off_c, 4, 37, 64
6, 120960, Note_on_c, 4, 38, 60
6, 121200, Note_off_c, 4, 38, 64
6, 121200, Note_on_c, 4, 38, 60
6, 121280, Note_off_c, 4, 38, 64
6, 121440, Note_on_c, 4, 38, 62
6, 121520, Note_off_c, 4, 38, 64
6, 121680, Note_on_c, 4, 38, 64
6, 121760, Note_off_c, 4, 38, 64
6, 121920, Note_on_c, 4, 38, 66
6, 122320, Note_off_c, 4, 38, 64
6, 122880, Note_on_c, 4, 40, 75
6, 123120, Note_off_c, 4, 40, 64
6, 123120, Note_on_c, 4, 40, 75
6, 123200, Note_off_c, 4, 40, 64
6, 123360, Note_on_c, 4, 40, 77
6, 123440, Note_off_c, 4, 40, 64
6, 123600, Note_on_c, 4, 40, 79
6, 123680, Note_off_c, 4, 40, 64
6, 123840, Note_on_c, 4, 40, 81
6, 124240, Note_off_c, 4, 40, 64
6, 124800, Note_on_c, 4, 42, 92
6, 125200, Note_off_c, 4, 42, 64
6, 127200, Note_on_c, 4, 40, 92
6, 127680, Note_off_c, 4, 40, 64
6, 127680, Note_on_c, 4, 38, 92
6, 128160, Note_off_c, 4, 38, 64
6, 128160, Note_on_c, 4, 37, 92
6, 128640, Note_off_c, 4, 37, 64
6, 128640, Note_on_c, 4, 38, 92
6, 128720, Note_off_c, 4, 38, 64
6, 128880, Note_on_c, 4, 38, 92
6, 128960, Note_off_c, 4, 38, 64
6, 129120, Note_on_c, 4, 38, 92
6, 129200, Note_off_c, 4, 38, 64
6, 129360, Note_on_c, 4, 38, 92
6, 129440, Note_off_c, 4, 38, 64
6, 129600, Note_on_c, 4, 38, 92
6, 129680, Note_off_c, 4, 38, 64
6, 129840, Note_on_c, 4, 38, 92
6, 129920, Note_off_c, 4, 38, 64
6, 130080, Note_on_c, 4, 38, 92
6, 130160, Note_off_c, 4, 38, 64
6, 130320, Note_on_c, 4, 38, 92
6, 130400, Note_off_c, 4, 38, 64
6, 130560, Note_on_c, 4, 40, 92
6, 130640, Note_off_c, 4, 40, 64
6, 130800, Note_on_c, 4, 40, 92
6, 130880, Note_off_c, 4, 40, 64
6, 131040, Note_on_c, 4, 40, 92
6, 131120, Note_off_c, 4, 40, 64
6, 131280, Note_on_c, 4, 40, 92
6, 131360, Note_off_c, 4, 40, 64
6, 131520, Note_on_c, 4, 40, 92
6, 131600, Note_off_c, 4, 40, 64
6, 131760, Note_on_c, 4, 40, 92
6, 131840, Note_off_c, 4, 40, 64
6, 132000, Note_on_c, 4, 40, 92
6, 132080, Note_off_c, 4, 40, 64
6, 132240, Note_on_c, 4, 40, 92
6, 132320, Note_off_c, 4, 40, 64
6, 132480, Note_on_c, 4, 33, 92
6, 132560, Note_off_c, 4, 33, 64
6, 132720, Note_on_c, 4, 33, 90
6, 132800, Note_off_c, 4, 33, 64
6, 132960, Note_on_c, 4, 33, 88
6, 133040, Note_off_c, 4, 33, 64
6, 133200, Note_on_c, 4, 33, 86
6, 133280, Note_off_c, 4, 33, 64
6, 133440, Note_on_c, 4, 33, 84
6, 133520, Note_off_c, 4, 33, 64
6, 133680, Note_on_c, 4, 33, 81
6, 133760, Note_off_c, 4, 33, 64
6, 133920, Note_on_c, 4, 33, 78
6, 134000, Note_off_c, 4, 33, 64
6, 134160, Note_on_c, 4, 33, 75
6, 134240, Note_off_c, 4, 33, 64
6, 134400, Note_on_c, 4, 33, 75
6, 134480, Note_off_c, 4, 33, 64
6, 134640, Note_on_c, 4, 33, 74
6, 134720, Note_off_c, 4, 33, 64
6, 134880, Note_on_c, 4, 33, 72
6, 134960, Note_off_c, 4, 33, 64
6, 135120, Note_on_c, 4, 33, 70
6, 135200, Note_off_c, 4, 33, 64
6, 135360, Note_on_c, 4, 33, 68
6, 135440, Note_off_c, 4, 33, 64
6, 135600, Note_on_c, 4, 33, 66
6, 135680, Note_off_c, 4, 33, 64
6, 135840, Note_on_c, 4, 33, 64
6, 135920, Note_off_c, 4, 33, 64
6, 136080, Note_on_c, 4, 33, 62
6, 136160, Note_off_c, 4, 33, 64
6, 136320, Note_on_c, 4, 33, 60
6, 136400, Note_off_c, 4, 33, 64
6, 136560, Note_on_c, 4, 33, 60
6, 136640, Note_off_c, 4, 33, 64
6, 136800, Note_on_c, 4, 33, 55
6, 136880, Note_off_c, 4, 33, 64
6, 137040, Note_on_c, 4, 33, 50
6, 137120, Note_off_c, 4, 33, 64
6, 137280, Note_on_c, 4, 33, 45
6, 137680, Note_off_c, 4, 33, 64
6, 138240, Note_on_c, 4, 36, 75
6, 138320, Note_off_c, 4, 36, 64
6, 138480, Note_on_c, 4, 36, 75
6, 138560, Note_off_c, 4, 36, 64
6, 138720, Note_on_c, 4, 36, 75
6, 138800, Note_off_c, 4, 36, 64
6, 138960, Note_on_c, 4, 36, 75
6, 139040, Note_off_c, 4, 36, 64
6, 139200, Note_on_c, 4, 36, 75
6, 139280, Note_off_c, 4, 36, 64
6, 139440, Note_on_c, 4, 36, 75
6, 139520, Note_off_c, 4, 36, 64
6, 139680, Note_on_c, 4, 36, 75
6, 139760, Note_off_c, 4, 36, 64
6, 139920, Note_on_c, 4, 36, 75
6, 140000, Note_off_c, 4, 36, 64
6, 140160, Note_on_c, 4, 35, 75
6, 140240, Note_off_c, 4, 35, 64
6, 140400, Note_on_c, 4, 35, 75
6, 140480, Note_off_c, 4, 35, 64
6, 140640, Note_on_c, 4, 35, 75
6, 140720, Note_off_c, 4, 35, 64
6, 140880, Note_on_c, 4, 35, 75
6, 140960, Note_off_c, 4, 35, 64
6, 141120, Note_on_c, 4, 35, 75
6, 141200, Note_off_c, 4, 35, 64
6, 141360, Note_on_c, 4, 35, 75
6, 141440, Note_off_c, 4, 35, 64
6, 141600, Note_on_c, 4, 35, 75
6, 141680, Note_off_c, 4, 35, 64
6, 141840, Note_on_c, 4, 35, 75
6, 141920, Note_off_c, 4, 35, 64
6, 142080, Note_on_c, 4, 35, 75
6, 142160, Note_off_c, 4, 35, 64
6, 142320, Note_on_c, 4, 35, 75
6, 142400, Note_off_c, 4, 35, 64
6, 142560, Note_on_c, 4, 35, 75
6, 142640, Note_off_c, 4, 35, 64
6, 142800, Note_on_c, 4, 35, 75
6, 142880, Note_off_c, 4, 35, 64
6, 143040, Note_on_c, 4, 35, 75
6, 143120, Note_off_c, 4, 35, 64
6, 143280, Note_on_c, 4, 35, 75
6, 143360, Note_off_c, 4, 35, 64
6, 143520, Note_on_c, 4, 35, 75
6, 143600, Note_off_c, 4, 35, 64
6, 143760, Note_on_c, 4, 35, 75
6, 143840, Note_off_c, 4, 35, 64
6, 144000, Note_on_c, 4, 35, 75
6, 144080, Note_off_c, 4, 35, 64
6, 144240, Note_on_c, 4, 35, 75
6, 144320, Note_off_c, 4, 35, 64
6, 144480, Note_on_c, 4, 35, 75
6, 144560, Note_off_c, 4, 35, 64
6, 144720, Note_on_c, 4, 35, 75
6, 144800, Note_off_c, 4, 35, 64
6, 144960, Note_on_c, 4, 35, 75
6, 145040, Note_off_c, 4, 35, 64
6, 145200, Note_on_c, 4, 35, 75
6, 145280, Note_off_c, 4, 35, 64
6, 145440, Note_on_c, 4, 35, 75
6, 145520, Note_off_c, 4, 35, 64
6, 145680, Note_on_c, 4, 35, 75
6, 145760, Note_off_c, 4, 35, 64
6, 145920, Note_on_c, 4, 35, 75
6, 146000, Note_off_c, 4, 35, 64
6, 146160, Note_on_c, 4, 35, 75
6, 146240, Note_off_c, 4, 35, 64
6, 146400, Note_on_c, 4, 35, 75
6, 146480, Note_off_c, 4, 35, 64
6, 146640, Note_on_c, 4, 35, 75
6, 146720, Note_off_c, 4, 35, 64
6, 146880, Note_on_c, 4, 35, 75
6, 146960, Note_off_c, 4, 35, 64
6, 147120, Note_on_c, 4, 35, 75
6, 147200, Note_off_c, 4, 35, 64
6, 147360, Note_on_c, 4, 35, 75
6, 147440, Note_off_c, 4, 35, 64
6, 147600, Note_on_c, 4, 35, 75
6, 147680, Note_off_c, 4, 35, 64
6, 147840, Note_on_c, 4, 40, 75
6, 147920, Note_off_c, 4, 40, 64
6, 148080, Note_on_c, 4, 40, 75
6, 148160, Note_off_c, 4, 40, 64
6, 148320, Note_on_c, 4, 42, 75
6, 148400, Note_off_c, 4, 42, 64
6, 148560, Note_on_c, 4, 42, 75
6, 148640, Note_off_c, 4, 42, 64
6, 148800, Note_on_c, 4, 43, 75
6, 148880, Note_off_c, 4, 43, 64
6, 149040, Note_on_c, 4, 31, 75
6, 149120, Note_off_c, 4, 31, 64
6, 149280, Note_on_c, 4, 31, 75
6, 149360, Note_off_c, 4, 31, 64
6, 149520, Note_on_c, 4, 32, 75
6, 149600, Note_off_c, 4, 32, 64
6, 149760, Note_on_c, 4, 33, 75
6, 149840, Note_off_c, 4, 33, 64
6, 150000, Note_on_c, 4, 33, 75
6, 150080, Note_off_c, 4, 33, 64
6, 150240, Note_on_c, 4, 33, 75
6, 150320, Note_off_c, 4, 33, 64
6, 150480, Note_on_c, 4, 33, 75
6, 150560, Note_off_c, 4, 33, 64
6, 150720, Note_on_c, 4, 33, 75
6, 150800, Note_off_c, 4, 33, 64
6, 150960, Note_on_c, 4, 33, 75
6, 151040, Note_off_c, 4, 33, 64
6, 151200, Note_on_c, 4, 33, 75
6, 151280, Note_off_c, 4, 33, 64
6, 151440, Note_on_c, 4, 33, 75
6, 151520, Note_off_c, 4, 33, 64
6, 151680, Note_on_c, 4, 33, 75
6, 151760, Note_off_c, 4, 33, 64
6, 151920, Note_on_c, 4, 33, 75
6, 152000, Note_off_c, 4, 33, 64
6, 152160, Note_on_c, 4, 33, 75
6, 152240, Note_off_c, 4, 33, 64
6, 152400, Note_on_c, 4, 33, 75
6, 152480, Note_off_c, 4, 33, 64
6, 152640, Note_on_c, 4, 43, 75
6, 152720, Note_off_c, 4, 43, 64
6, 152880, Note_on_c, 4, 43, 75
6, 152960, Note_off_c, 4, 43, 64
6, 153120, Note_on_c, 4, 43, 75
6, 153200, Note_off_c, 4, 43, 64
6, 153360, Note_on_c, 4, 43, 75
6, 153440, Note_off_c, 4, 43, 64
6, 153600, Note_on_c, 4, 42, 75
6, 153680, Note_off_c, 4, 42, 64
6, 153840, Note_on_c, 4, 42, 75
6, 153920, Note_off_c, 4, 42, 64
6, 154080, Note_on_c, 4, 42, 75
6, 154160, Note_off_c, 4, 42, 64
6, 154320, Note_on_c, 4, 42, 75
6, 154400, Note_off_c, 4, 42, 64
6, 154560, Note_on_c, 4, 42, 75
6, 154640, Note_off_c, 4, 42, 64
6, 154800, Note_on_c, 4, 42, 75
6, 154880, Note_off_c, 4, 42, 64
6, 155040, Note_on_c, 4, 42, 75
6, 155120, Note_off_c, 4, 42, 64
6, 155280, Note_on_c, 4, 42, 75
6, 155360, Note_off_c, 4, 42, 64
6, 155520, Note_on_c, 4, 35, 75
6, 155600, Note_off_c, 4, 35, 64
6, 155760, Note_on_c, 4, 35, 75
6, 155840, Note_off_c, 4, 35, 64
6, 156000, Note_on_c, 4, 35, 75
6, 156080, Note_off_c, 4, 35, 64
6, 156240, Note_on_c, 4, 35, 75
6, 156320, Note_off_c, 4, 35, 64
6, 156480, Note_on_c, 4, 35, 75
6, 156560, Note_off_c, 4, 35, 64
6, 156720, Note_on_c, 4, 35, 75
6, 156800, Note_off_c, 4, 35, 64
6, 156960, Note_on_c, 4, 35, 75
6, 157040, Note_off_c, 4, 35, 64
6, 157200, Note_on_c, 4, 35, 75
6, 157280, Note_off_c, 4, 35, 64
6, 157440, Note_on_c, 4, 42, 75
6, 157520, Note_off_c, 4, 42, 64
6, 157680, Note_on_c, 4, 42, 75
6, 157760, Note_off_c, 4, 42, 64
6, 157920, Note_on_c, 4, 42, 75
6, 158000, Note_off_c, 4, 42, 64
6, 158160, Note_on_c, 4, 42, 75
6, 158240, Note_off_c, 4, 42, 64
6, 158400, Note_on_c, 4, 42, 75
6, 158480, Note_off_c, 4, 42, 64
6, 158640, Note_on_c, 4, 42, 75
6, 158720, Note_off_c, 4, 42, 64
6, 158880, Note_on_c, 4, 42, 75
6, 158960, Note_off_c, 4, 42, 64
6, 159120, Note_on_c, 4, 42, 75
6, 159200, Note_off_c, 4, 42, 64
6, 159360, Note_on_c, 4, 47, 75
6, 159440, Note_off_c, 4, 47, 64
6, 159600, Note_on_c, 4, 47, 75
6, 159680, Note_off_c, 4, 47, 64
6, 159840, Note_on_c, 4, 47, 75
6, 159920, Note_off_c, 4, 47, 64
6, 160080, Note_on_c, 4, 47, 75
6, 160160, Note_off_c, 4, 47, 64
6, 160320, Note_on_c, 4, 44, 75
6, 160400, Note_off_c, 4, 44, 64
6, 160560, Note_on_c, 4, 44, 75
6, 160640, Note_off_c, 4, 44, 64
6, 160800, Note_on_c, 4, 44, 75
6, 160880, Note_off_c, 4, 44, 64
6, 161040, Note_on_c, 4, 44, 75
6, 161120, Note_off_c, 4, 44, 64
6, 161280, Note_on_c, 4, 45, 75
6, 161360, Note_off_c, 4, 45, 64
6, 161520, Note_on_c, 4, 45, 75
6, 161600, Note_off_c, 4, 45, 64
6, 161760, Note_on_c, 4, 45, 75
6, 161840, Note_off_c, 4, 45, 64
6, 162000, Note_on_c, 4, 45, 75
6, 162080, Note_off_c, 4, 45, 64
6, 162240, Note_on_c, 4, 42, 75
6, 162320, Note_off_c, 4, 42, 64
6, 162480, Note_on_c, 4, 42, 75
6, 162560, Note_off_c, 4, 42, 64
6, 162720, Note_on_c, 4, 42, 75
6, 162800, Note_off_c, 4, 42, 64
6, 162960, Note_on_c, 4, 42, 75
6, 163040, Note_off_c, 4, 42, 64
6, 163200, Note_on_c, 4, 43, 75
6, 163280, Note_off_c, 4, 43, 64
6, 163440, Note_on_c, 4, 43, 77
6, 163520, Note_off_c, 4, 43, 64
6, 163680, Note_on_c, 4, 43, 79
6, 163760, Note_off_c, 4, 43, 64
6, 163920, Note_on_c, 4, 43, 81
6, 164000, Note_off_c, 4, 43, 64
6, 164160, Note_on_c, 4, 43, 83
6, 164240, Note_off_c, 4, 43, 64
6, 164400, Note_on_c, 4, 43, 85
6, 164480, Note_off_c, 4, 43, 64
6, 164640, Note_on_c, 4, 44, 87
6, 164720, Note_off_c, 4, 44, 64
6, 164880, Note_on_c, 4, 44, 89
6, 164960, Note_off_c, 4, 44, 64
6, 165120, Note_on_c, 4, 45, 92
6, 165520, Note_off_c, 4, 45, 64
6, 165660, Note_on_c, 4, 33, 92
6, 165895, Note_off_c, 4, 33, 64
6, 166020, Note_on_c, 4, 33, 92
6, 166135, Note_off_c, 4, 33, 64
6, 166140, Note_on_c, 4, 33, 92
6, 166540, Note_off_c, 4, 33, 64
6, 167340, Program_c, 4, 45
6, 167340, Note_on_c, 4, 38, 30
6, 167740, Note_off_c, 4, 38, 64
6, 168300, Note_on_c, 4, 38, 30
6, 168700, Note_off_c, 4, 38, 64
6, 169260, Note_on_c, 4, 43, 30
6, 169660, Note_off_c, 4, 43, 64
6, 170220, Note_on_c, 4, 43, 30
6, 170620, Note_off_c, 4, 43, 64
6, 171180, Note_on_c, 4, 45, 30
6, 171580, Note_off_c, 4, 45, 64
6, 172140, Note_on_c, 4, 45, 30
6, 172540, Note_off_c, 4, 45, 64
6, 173100, Note_on_c, 4, 46, 30
6, 173500, Note_off_c, 4, 46, 64
6, 174060, Note_on_c, 4, 46, 30
6, 174460, Note_off_c, 4, 46, 64
6, 175020, Note_on_c, 4, 41, 30
6, 175420, Note_off_c, 4, 41, 64
6, 175980, Note_on_c, 4, 41, 30
6, 176380, Note_off_c, 4, 41, 64
6, 176940, Note_on_c, 4, 43, 30
6, 177340, Note_off_c, 4, 43, 64
6, 177900, Note_on_c, 4, 43, 30
6, 178300, Note_off_c, 4, 43, 64
6, 178860, Note_on_c, 4, 43, 30
6, 179260, Note_off_c, 4, 43, 64
6, 179820, Note_on_c, 4, 43, 30
6, 180220, Note_off_c, 4, 43, 64
6, 180300, Note_on_c, 4, 44, 30
6, 180700, Note_off_c, 4, 44, 64
6, 180780, Note_on_c, 4, 45, 30
6, 181180, Note_off_c, 4, 45, 64
6, 181740, Note_on_c, 4, 45, 30
6, 182140, Note_off_c, 4, 45, 64
6, 182700, Note_on_c, 4, 33, 30
6, 183100, Note_off_c, 4, 33, 64
6, 183660, Note_on_c, 4, 33, 30
6, 184060, Note_off_c, 4, 33, 64
6, 184620, Note_on_c, 4, 45, 30
6, 185020, Note_off_c, 4, 45, 64
6, 185580, Note_on_c, 4, 45, 30
6, 185980, Note_off_c, 4, 45, 64
6, 186540, Note_on_c, 4, 46, 30
6, 186940, Note_off_c, 4, 46, 64
6, 187500, Note_on_c, 4, 34, 30
6, 187900, Note_off_c, 4, 34, 64
6, 188460, Note_on_c, 4, 33, 30
6, 188860, Note_off_c, 4, 33, 64
6, 190380, Program_c, 4, 50
6, 190620, Note_on_c, 4, 45, 75
6, 190860, Note_off_c, 4, 45, 64
6, 190860, Note_on_c, 4, 47, 75
6, 191100, Note_off_c, 4, 47, 64
6, 191100, Note_on_c, 4, 45, 75
6, 191340, Note_off_c, 4, 45, 64
6, 191340, Note_on_c, 4, 43, 75
6, 191580, Note_off_c, 4, 43, 64
6, 191580, Note_on_c, 4, 42, 75
6, 191820, Note_off_c, 4, 42, 64
6, 191820, Note_on_c, 4, 43, 75
6, 192060, Note_off_c, 4, 43, 64
6, 192060, Note_on_c, 4, 40, 75
6, 192295, Note_off_c, 4, 40, 64
6, 192300, Note_on_c, 4, 38, 75
6, 192380, Note_off_c, 4, 38, 64
6, 192540, Note_on_c, 4, 38, 75
6, 192620, Note_off_c, 4, 38, 64
6, 192780, Note_on_c, 4, 38, 75
6, 192860, Note_off_c, 4, 38, 64
6, 193020, Note_on_c, 4, 38, 75
6, 193100, Note_off_c, 4, 38, 64
6, 193260, Note_on_c, 4, 38, 75
6, 193340, Note_off_c, 4, 38, 64
6, 193500, Note_on_c, 4, 38, 75
6, 193580, Note_off_c, 4, 38, 64
6, 193740, Note_on_c, 4, 38, 75
6, 193820, Note_off_c, 4, 38, 64
6, 193980, Note_on_c, 4, 38, 75
6, 194060, Note_off_c, 4, 38, 64
6, 194220, Note_on_c, 4, 38, 75
6, 194300, Note_off_c, 4, 38, 64
6, 194460, Note_on_c, 4, 38, 75
6, 194540, Note_off_c, 4, 38, 64
6, 194700, Note_on_c, 4, 38, 75
6, 194780, Note_off_c, 4, 38, 64
6, 194940, Note_on_c, 4, 38, 75
6, 195020, Note_off_c, 4, 38, 64
6, 195180, Note_on_c, 4, 38, 75
6, 195260, Note_off_c, 4, 38, 64
6, 195420, Note_on_c, 4, 38, 75
6, 195500, Note_off_c, 4, 38, 64
6, 195660, Note_on_c, 4, 38, 75
6, 195740, Note_off_c, 4, 38, 64
6, 195900, Note_on_c, 4, 38, 75
6, 195980, Note_off_c, 4, 38, 64
6, 196140, Note_on_c, 4, 38, 75
6, 196220, Note_off_c, 4, 38, 64
6, 196380, Note_on_c, 4, 38, 75
6, 196460, Note_off_c, 4, 38, 64
6, 196620, Note_on_c, 4, 38, 75
6, 196700, Note_off_c, 4, 38, 64
6, 196860, Note_on_c, 4, 38, 75
6, 196940, Note_off_c, 4, 38, 64
6, 197100, Note_on_c, 4, 38, 75
6, 197180, Note_off_c, 4, 38, 64
6, 197340, Note_on_c, 4, 38, 75
6, 197420, Note_off_c, 4, 38, 64
6, 197580, Note_on_c, 4, 38, 75
6, 197660, Note_off_c, 4, 38, 64
6, 197820, Note_on_c, 4, 38, 75
6, 197900, Note_off_c, 4, 38, 64
6, 198060, Note_on_c, 4, 38, 75
6, 198140, Note_off_c, 4, 38, 64
6, 198300, Note_on_c, 4, 38, 75
6, 198380, Note_off_c, 4, 38, 64
6, 198540, Note_on_c, 4, 38, 75
6, 198620, Note_off_c, 4, 38, 64
6, 198780, Note_on_c, 4, 38, 75
6, 198860, Note_off_c, 4, 38, 64
6, 199020, Note_on_c, 4, 38, 75
6, 199100, Note_off_c, 4, 38, 64
6, 199260, Note_on_c, 4, 38, 75
6, 199340, Note_off_c, 4, 38, 64
6, 199500, Note_on_c, 4, 38, 75
6, 199580, Note_off_c, 4, 38, 64
6, 199740, Note_on_c, 4, 38, 75
6, 199820, Note_off_c, 4, 38, 64
6, 199980, Note_on_c, 4, 33, 75
6, 200060, Note_off_c, 4, 33, 64
6, 200220, Note_on_c, 4, 33, 75
6, 200300, Note_off_c, 4, 33, 64
6, 200460, Note_on_c, 4, 33, 75
6, 200540, Note_off_c, 4, 33, 64
6, 200700, Note_on_c, 4, 33, 75
6, 200780, Note_off_c, 4, 33, 64
6, 200940, Note_on_c, 4, 33, 75
6, 201020, Note_off_c, 4, 33, 64
6, 201180, Note_on_c, 4, 33, 75
6, 201260, Note_off_c, 4, 33, 64
6, 201420, Note_on_c, 4, 33, 75
6, 201500, Note_off_c, 4, 33, 64
6, 201660, Note_on_c, 4, 33, 75
6, 201740, Note_off_c, 4, 33, 64
6, 201900, Note_on_c, 4, 38, 75
6, 201980, Note_off_c, 4, 38, 64
6, 202140, Note_on_c, 4, 38, 75
6, 202220, Note_off_c, 4, 38, 64
6, 202380, Note_on_c, 4, 38, 75
6, 202460, Note_off_c, 4, 38, 64
6, 202620, Note_on_c, 4, 38, 75
6, 202700, Note_off_c, 4, 38, 64
6, 202860, Note_on_c, 4, 38, 75
6, 202940, Note_off_c, 4, 38, 64
6, 203100, Note_on_c, 4, 38, 75
6, 203180, Note_off_c, 4, 38, 64
6, 203340, Note_on_c, 4, 40, 75
6, 203420, Note_off_c, 4, 40, 64
6, 203580, Note_on_c, 4, 40, 75
6, 203660, Note_off_c, 4, 40, 64
6, 203820, Note_on_c, 4, 42, 75
6, 203900, Note_off_c, 4, 42, 64
6, 204060, Note_on_c, 4, 42, 75
6, 204140, Note_off_c, 4, 42, 64
6, 204300, Note_on_c, 4, 42, 75
6, 204380, Note_off_c, 4, 42, 64
6, 204540, Note_on_c, 4, 42, 75
6, 204620, Note_off_c, 4, 42, 64
6, 204780, Note_on_c, 4, 42, 75
6, 204860, Note_off_c, 4, 42, 64
6, 205020, Note_on_c, 4, 42, 75
6, 205100, Note_off_c, 4, 42, 64
6, 205260, Note_on_c, 4, 42, 75
6, 205340, Note_off_c, 4, 42, 64
6, 205500, Note_on_c, 4, 42, 75
6, 205580, Note_off_c, 4, 42, 64
6, 205740, Note_on_c, 4, 43, 75
6, 205820, Note_off_c, 4, 43, 64
6, 205980, Note_on_c, 4, 43, 75
6, 206060, Note_off_c, 4, 43, 64
6, 206220, Note_on_c, 4, 43, 75
6, 206300, Note_off_c, 4, 43, 64
6, 206460, Note_on_c, 4, 43, 75
6, 206540, Note_off_c, 4, 43, 64
6, 206700, Note_on_c, 4, 43, 75
6, 206780, Note_off_c, 4, 43, 64
6, 206940, Note_on_c, 4, 43, 75
6, 207020, Note_off_c, 4, 43, 64
6, 207180, Note_on_c, 4, 43, 75
6, 207260, Note_off_c, 4, 43, 64
6, 207420, Note_on_c, 4, 43, 75
6, 207500, Note_off_c, 4, 43, 64
6, 207660, Note_on_c, 4, 45, 75
6, 207740, Note_off_c, 4, 45, 64
6, 207900, Note_on_c, 4, 45, 75
6, 207980, Note_off_c, 4, 45, 64
6, 208140, Note_on_c, 4, 45, 75
6, 208220, Note_off_c, 4, 45, 64
6, 208380, Note_on_c, 4, 45, 75
6, 208460, Note_off_c, 4, 45, 64
6, 208620, Note_on_c, 4, 45, 75
6, 208700, Note_off_c, 4, 45, 64
6, 208860, Note_on_c, 4, 45, 75
6, 208940, Note_off_c, 4, 45, 64
6, 209100, Note_on_c, 4, 45, 75
6, 209180, Note_off_c, 4, 45, 64
6, 209340, Note_on_c, 4, 45, 75
6, 209420, Note_off_c, 4, 45, 64
6, 209580, Note_on_c, 4, 33, 75
6, 209660, Note_off_c, 4, 33, 64
6, 209820, Note_on_c, 4, 33, 75
6, 209900, Note_off_c, 4, 33, 64
6, 210060, Note_on_c, 4, 33, 75
6, 210140, Note_off_c, 4, 33, 64
6, 210300, Note_on_c, 4, 33, 75
6, 210380, Note_off_c, 4, 33, 64
6, 210540, Note_on_c, 4, 33, 75
6, 210620, Note_off_c, 4, 33, 64
6, 210780, Note_on_c, 4, 33, 75
6, 210860, Note_off_c, 4, 33, 64
6, 211020, Note_on_c, 4, 33, 75
6, 211100, Note_off_c, 4, 33, 64
6, 211260, Note_on_c, 4, 33, 75
6, 211340, Note_off_c, 4, 33, 64
6, 211500, Note_on_c, 4, 38, 75
6, 211900, Note_off_c, 4, 38, 64
6, 212220, Note_on_c, 4, 33, 75
6, 212455, Note_off_c, 4, 33, 64
6, 212460, Note_on_c, 4, 38, 75
6, 212860, Note_off_c, 4, 38, 64
6, 213180, Note_on_c, 4, 45, 75
6, 213415, Note_off_c, 4, 45, 64
6, 213420, Note_on_c, 4, 38, 75
6, 213820, Note_off_c, 4, 38, 64
6, 214140, Note_on_c, 4, 33, 75
6, 214375, Note_off_c, 4, 33, 64
6, 214380, Note_on_c, 4, 38, 75
6, 214780, Note_off_c, 4, 38, 64
6, 215100, Note_on_c, 4, 45, 75
6, 215335, Note_off_c, 4, 45, 64
6, 215340, Note_on_c, 4, 38, 75
6, 215420, Note_off_c, 4, 38, 64
6, 215580, Note_on_c, 4, 38, 75
6, 215660, Note_off_c, 4, 38, 64
6, 215820, Note_on_c, 4, 38, 75
6, 215900, Note_off_c, 4, 38, 64
6, 216060, Note_on_c, 4, 38, 75
6, 216140, Note_off_c, 4, 38, 64
6, 216300, Note_on_c, 4, 38, 75
6, 216380, Note_off_c, 4, 38, 64
6, 216540, Note_on_c, 4, 38, 75
6, 216620, Note_off_c, 4, 38, 64
6, 216780, Note_on_c, 4, 38, 75
6, 216860, Note_off_c, 4, 38, 64
6, 217020, Note_on_c, 4, 38, 75
6, 217100, Note_off_c, 4, 38, 64
6, 217260, Note_on_c, 4, 38, 75
6, 217340, Note_off_c, 4, 38, 64
6, 217500, Note_on_c, 4, 38, 75
6, 217580, Note_off_c, 4, 38, 64
6, 217740, Note_on_c, 4, 38, 75
6, 217820, Note_off_c, 4, 38, 64
6, 217980, Note_on_c, 4, 38, 75
6, 218060, Note_off_c, 4, 38, 64
6, 218220, Note_on_c, 4, 38, 75
6, 218300, Note_off_c, 4, 38, 64
6, 218460, Note_on_c, 4, 38, 75
6, 218540, Note_off_c, 4, 38, 64
6, 218700, Note_on_c, 4, 38, 75
6, 218780, Note_off_c, 4, 38, 64
6, 218940, Note_on_c, 4, 38, 75
6, 219020, Note_off_c, 4, 38, 64
6, 219180, Note_on_c, 4, 38, 75
6, 219260, Note_off_c, 4, 38, 64
6, 219420, Note_on_c, 4, 38, 75
6, 219500, Note_off_c, 4, 38, 64
6, 219660, Note_on_c, 4, 38, 75
6, 219740, Note_off_c, 4, 38, 64
6, 219900, Note_on_c, 4, 38, 75
6, 219980, Note_off_c, 4, 38, 64
6, 220140, Note_on_c, 4, 38, 75
6, 220220, Note_off_c, 4, 38, 64
6, 220380, Note_on_c, 4, 38, 75
6, 220460, Note_off_c, 4, 38, 64
6, 220620, Note_on_c, 4, 38, 75
6, 220700, Note_off_c, 4, 38, 64
6, 220860, Note_on_c, 4, 38, 75
6, 220940, Note_off_c, 4, 38, 64
6, 221100, Note_on_c, 4, 38, 75
6, 221180, Note_off_c, 4, 38, 64
6, 221340, Note_on_c, 4, 38, 75
6, 221420, Note_off_c, 4, 38, 64
6, 221580, Note_on_c, 4, 38, 75
6, 221660, Note_off_c, 4, 38, 64
6, 221820, Note_on_c, 4, 38, 75
6, 221900, Note_off_c, 4, 38, 64
6, 222060, Note_on_c, 4, 38, 75
6, 222140, Note_off_c, 4, 38, 64
6, 222300, Note_on_c, 4, 38, 75
6, 222540, Note_off_c, 4, 38, 64
6, 222540, Note_on_c, 4, 38, 75
6, 222620, Note_off_c, 4, 38, 64
6, 222780, Note_on_c, 4, 38, 75
6, 222860, Note_off_c, 4, 38, 64
6, 223020, Note_on_c, 4, 43, 75
6, 223255, Note_off_c, 4, 43, 64
6, 223260, Note_on_c, 4, 43, 75
6, 223495, Note_off_c, 4, 43, 64
6, 223500, Note_on_c, 4, 47, 75
6, 223735, Note_off_c, 4, 47, 64
6, 223740, Note_on_c, 4, 47, 75
6, 223975, Note_off_c, 4, 47, 64
6, 223980, Note_on_c, 4, 45, 75
6, 224215, Note_off_c, 4, 45, 64
6, 224220, Note_on_c, 4, 45, 75
6, 224455, Note_off_c, 4, 45, 64
6, 224460, Note_on_c, 4, 38, 75
6, 224695, Note_off_c, 4, 38, 64
6, 224700, Note_on_c, 4, 38, 75
6, 224935, Note_off_c, 4, 38, 64
6, 224940, Note_on_c, 4, 43, 75
6, 225175, Note_off_c, 4, 43, 64
6, 225180, Note_on_c, 4, 43, 75
6, 225415, Note_off_c, 4, 43, 64
6, 225420, Note_on_c, 4, 45, 75
6, 225655, Note_off_c, 4, 45, 64
6, 225660, Note_on_c, 4, 45, 75
6, 225895, Note_off_c, 4, 45, 64
6, 225900, Note_on_c, 4, 43, 75
6, 226135, Note_off_c, 4, 43, 64
6, 226140, Note_on_c, 4, 43, 75
6, 226375, Note_off_c, 4, 43, 64
6, 226380, Note_on_c, 4, 43, 75
6, 226615, Note_off_c, 4, 43, 64
6, 226620, Note_on_c, 4, 44, 75
6, 226855, Note_off_c, 4, 44, 64
6, 226860, Note_on_c, 4, 45, 75
6, 227095, Note_off_c, 4, 45, 64
6, 227100, Note_on_c, 4, 45, 75
6, 227335, Note_off_c, 4, 45, 64
6, 227340, Note_on_c, 4, 49, 75
6, 227575, Note_off_c, 4, 49, 64
6, 227580, Note_on_c, 4, 49, 75
6, 227815, Note_off_c, 4, 49, 64
6, 227820, Note_on_c, 4, 47, 75
6, 228055, Note_off_c, 4, 47, 64
6, 228060, Note_on_c, 4, 47, 75
6, 228295, Note_off_c, 4, 47, 64
6, 228300, Note_on_c, 4, 40, 75
6, 228535, Note_off_c, 4, 40, 64
6, 228540, Note_on_c, 4, 40, 75
6, 228775, Note_off_c, 4, 40, 64
6, 228780, Note_on_c, 4, 33, 75
6, 229015, Note_off_c, 4, 33, 64
6, 229020, Note_on_c, 4, 33, 75
6, 229255, Note_off_c, 4, 33, 64
6, 229260, Note_on_c, 4, 40, 75
6, 229495, Note_off_c, 4, 40, 64
6, 229500, Note_on_c, 4, 40, 75
6, 229735, Note_off_c, 4, 40, 64
6, 229740, Note_on_c, 4, 37, 75
6, 229975, Note_off_c, 4, 37, 64
6, 229980, Note_on_c, 4, 37, 75
6, 230215, Note_off_c, 4, 37, 64
6, 230220, Note_on_c, 4, 33, 75
6, 230455, Note_off_c, 4, 33, 64
6, 230460, Note_on_c, 4, 33, 75
6, 230695, Note_off_c, 4, 33, 64
6, 230700, Note_on_c, 4, 38, 75
6, 230935, Note_off_c, 4, 38, 64
6, 230940, Note_on_c, 4, 38, 75
6, 231175, Note_off_c, 4, 38, 64
6, 231180, Note_on_c, 4, 42, 75
6, 231415, Note_off_c, 4, 42, 64
6, 231420, Note_on_c, 4, 42, 75
6, 231655, Note_off_c, 4, 42, 64
6, 231660, Note_on_c, 4, 40, 75
6, 231895, Note_off_c, 4, 40, 64
6, 231900, Note_on_c, 4, 40, 75
6, 232135, Note_off_c, 4, 40, 64
6, 232140, Note_on_c, 4, 33, 75
6, 232375, Note_off_c, 4, 33, 64
6, 232380, Note_on_c, 4, 33, 75
6, 232615, Note_off_c, 4, 33, 64
6, 232620, Note_on_c, 4, 38, 75
6, 232855, Note_off_c, 4, 38, 64
6, 232860, Note_on_c, 4, 38, 75
6, 233095, Note_off_c, 4, 38, 64
6, 233100, Note_on_c, 4, 42, 75
6, 233335, Note_off_c, 4, 42, 64
6, 233340, Note_on_c, 4, 42, 75
6, 233575, Note_off_c, 4, 42, 64
6, 233580, Note_on_c, 4, 40, 75
6, 233815, Note_off_c, 4, 40, 64
6, 233820, Note_on_c, 4, 40, 75
6, 234055, Note_off_c, 4, 40, 64
6, 234060, Note_on_c, 4, 33, 75
6, 234295, Note_off_c, 4, 33, 64
6, 234300, Note_on_c, 4, 33, 75
6, 234535, Note_off_c, 4, 33, 64
6, 234540, Note_on_c, 4, 38, 75
6, 234940, Note_off_c, 4, 38, 64
6, 237660, Note_on_c, 4, 38, 92
6, 237740, Note_off_c, 4, 38, 64
6, 237900, Note_on_c, 4, 26, 92
6, 237980, Note_off_c, 4, 26, 64
6, 238140, Note_on_c, 4, 28, 92
6, 238170, Note_off_c, 4, 28, 64
6, 238170, Note_on_c, 4, 30, 92
6, 238200, Note_off_c, 4, 30, 64
6, 238200, Note_on_c, 4, 28, 92
6, 238230, Note_off_c, 4, 28, 64
6, 238230, Note_on_c, 4, 30, 92
6, 238260, Note_off_c, 4, 30, 64
6, 238260, Note_on_c, 4, 28, 92
6, 238290, Note_off_c, 4, 28, 64
6, 238290, Note_on_c, 4, 30, 92
6, 238320, Note_off_c, 4, 30, 64
6, 238320, Note_on_c, 4, 28, 92
6, 238350, Note_off_c, 4, 28, 64
6, 238350, Note_on_c, 4, 30, 92
6, 238380, Note_off_c, 4, 30, 64
6, 238380, Note_on_c, 4, 30, 92
6, 238460, Note_off_c, 4, 30, 64
6, 238620, Note_on_c, 4, 42, 92
6, 238700, Note_off_c, 4, 42, 64
6, 238860, Note_on_c, 4, 42, 92
6, 238940, Note_off_c, 4, 42, 64
6, 239100, Note_on_c, 4, 42, 92
6, 239180, Note_off_c, 4, 42, 64
6, 239340, Note_on_c, 4, 42, 92
6, 239420, Note_off_c, 4, 42, 64
6, 239580, Note_on_c, 4, 42, 92
6, 239660, Note_off_c, 4, 42, 64
6, 239820, Note_on_c, 4, 42, 92
6, 239900, Note_off_c, 4, 42, 64
6, 240060, Note_on_c, 4, 42, 92
6, 240140, Note_off_c, 4, 42, 64
6, 240300, Note_on_c, 4, 43, 92
6, 240380, Note_off_c, 4, 43, 64
6, 240540, Note_on_c, 4, 43, 92
6, 240620, Note_off_c, 4, 43, 64
6, 240780, Note_on_c, 4, 43, 92
6, 240860, Note_off_c, 4, 43, 64
6, 241020, Note_on_c, 4, 43, 92
6, 241100, Note_off_c, 4, 43, 64
6, 241260, Note_on_c, 4, 31, 92
6, 241340, Note_off_c, 4, 31, 64
6, 241500, Note_on_c, 4, 31, 92
6, 241580, Note_off_c, 4, 31, 64
6, 241740, Note_on_c, 4, 31, 92
6, 241820, Note_off_c, 4, 31, 64
6, 241980, Note_on_c, 4, 31, 92
6, 242060, Note_off_c, 4, 31, 64
6, 242220, Note_on_c, 4, 33, 92
6, 242300, Note_off_c, 4, 33, 64
6, 242460, Note_on_c, 4, 33, 89
6, 242540, Note_off_c, 4, 33, 64
6, 242700, Note_on_c, 4, 33, 86
6, 242780, Note_off_c, 4, 33, 64
6, 242940, Note_on_c, 4, 33, 82
6, 243020, Note_off_c, 4, 33, 64
6, 243180, Note_on_c, 4, 33, 78
6, 243260, Note_off_c, 4, 33, 64
6, 243420, Note_on_c, 4, 33, 74
6, 243500, Note_off_c, 4, 33, 64
6, 243660, Note_on_c, 4, 33, 70
6, 243740, Note_off_c, 4, 33, 64
6, 243900, Note_on_c, 4, 33, 66
6, 243980, Note_off_c, 4, 33, 64
6, 244140, Note_on_c, 4, 31, 62
6, 244220, Note_off_c, 4, 31, 64
6, 244380, Note_on_c, 4, 31, 58
6, 244460, Note_off_c, 4, 31, 64
6, 244620, Note_on_c, 4, 31, 54
6, 244700, Note_off_c, 4, 31, 64
6, 244860, Note_on_c, 4, 31, 50
6, 244940, Note_off_c, 4, 31, 64
6, 245100, Note_on_c, 4, 43, 46
6, 245180, Note_off_c, 4, 43, 64
6, 245340, Note_on_c, 4, 43, 42
6, 245420, Note_off_c, 4, 43, 64
6, 245580, Note_on_c, 4, 43, 38
6, 245660, Note_off_c, 4, 43, 64
6, 245820, Note_on_c, 4, 43, 34
6, 245900, Note_off_c, 4, 43, 64
6, 246060, Note_on_c, 4, 42, 30
6, 246300, Note_off_c, 4, 42, 64
6, 246300, Note_on_c, 4, 42, 30
6, 246380, Note_off_c, 4, 42, 64
6, 246540, Note_on_c, 4, 42, 32
6, 246620, Note_off_c, 4, 42, 64
6, 246780, Note_on_c, 4, 42, 34
6, 246860, Note_off_c, 4, 42, 64
6, 247020, Note_on_c, 4, 42, 36
6, 247420, Note_off_c, 4, 42, 64
6, 247980, Note_on_c, 4, 43, 45
6, 248220, Note_off_c, 4, 43, 64
6, 248220, Note_on_c, 4, 43, 45
6, 248300, Note_off_c, 4, 43, 64
6, 248460, Note_on_c, 4, 43, 47
6, 248540, Note_off_c, 4, 43, 64
6, 248700, Note_on_c, 4, 43, 49
6, 248780, Note_off_c, 4, 43, 64
6, 248940, Note_on_c, 4, 43, 51
6, 249340, Note_off_c, 4, 43, 64
6, 249900, Note_on_c, 4, 45, 60
6, 250140, Note_off_c, 4, 45, 64
6, 250140, Note_on_c, 4, 45, 60
6, 250220, Note_off_c, 4, 45, 64
6, 250380, Note_on_c, 4, 45, 62
6, 250460, Note_off_c, 4, 45, 64
6, 250620, Note_on_c, 4, 45, 64
6, 250700, Note_off_c, 4, 45, 64
6, 250860, Note_on_c, 4, 45, 66
6, 251260, Note_off_c, 4, 45, 64
6, 251820, Note_on_c, 4, 47, 75
6, 252220, Note_off_c, 4, 47, 64
6, 254220, Note_on_c, 4, 33, 92
6, 254700, Note_off_c, 4, 33, 64
6, 254700, Note_on_c, 4, 31, 92
6, 255180, Note_off_c, 4, 31, 64
6, 255180, Note_on_c, 4, 30, 92
6, 255660, Note_off_c, 4, 30, 64
6, 255660, Note_on_c, 4, 31, 92
6, 255895, Note_off_c, 4, 31, 64
6, 255900, Note_on_c, 4, 31, 92
6, 256135, Note_off_c, 4, 31, 64
6, 256140, Note_on_c, 4, 31, 92
6, 256375, Note_off_c, 4, 31, 64
6, 256380, Note_on_c, 4, 31, 92
6, 256615, Note_off_c, 4, 31, 64
6, 256620, Note_on_c, 4, 43, 92
6, 256855, Note_off_c, 4, 43, 64
6, 256860, Note_on_c, 4, 43, 92
6, 257095, Note_off_c, 4, 43, 64
6, 257100, Note_on_c, 4, 43, 92
6, 257335, Note_off_c, 4, 43, 64
6, 257340, Note_on_c, 4, 43, 92
6, 257575, Note_off_c, 4, 43, 64
6, 257580, Note_on_c, 4, 45, 92
6, 257815, Note_off_c, 4, 45, 64
6, 257820, Note_on_c, 4, 45, 92
6, 258055, Note_off_c, 4, 45, 64
6, 258060, Note_on_c, 4, 45, 92
6, 258295, Note_off_c, 4, 45, 64
6, 258300, Note_on_c, 4, 45, 92
6, 258535, Note_off_c, 4, 45, 64
6, 258540, Note_on_c, 4, 33, 92
6, 258775, Note_off_c, 4, 33, 64
6, 258780, Note_on_c, 4, 33, 92
6, 259015, Note_off_c, 4, 33, 64
6, 259020, Note_on_c, 4, 33, 92
6, 259255, Note_off_c, 4, 33, 64
6, 259260, Note_on_c, 4, 33, 92
6, 259495, Note_off_c, 4, 33, 64
6, 259500, Note_on_c, 4, 38, 92
6, 259735, Note_off_c, 4, 38, 64
6, 259740, Note_on_c, 4, 38, 92
6, 259975, Note_off_c, 4, 38, 64
6, 259980, Note_on_c, 4, 38, 92
6, 260215, Note_off_c, 4, 38, 64
6, 260220, Note_on_c, 4, 38, 92
6, 260455, Note_off_c, 4, 38, 64
6, 260460, Note_on_c, 4, 38, 92
6, 260695, Note_off_c, 4, 38, 64
6, 260700, Note_on_c, 4, 38, 92
6, 260935, Note_off_c, 4, 38, 64
6, 260940, Note_on_c, 4, 38, 92
6, 261175, Note_off_c, 4, 38, 64
6, 261180, Note_on_c, 4, 38, 92
6, 261415, Note_off_c, 4, 38, 64
6, 261420, Note_on_c, 4, 38, 92
6, 261655, Note_off_c, 4, 38, 64
6, 261660, Note_on_c, 4, 38, 87
6, 261895, Note_off_c, 4, 38, 64
6, 261900, Note_on_c, 4, 38, 81
6, 262135, Note_off_c, 4, 38, 64
6, 262140, Note_on_c, 4, 38, 75
6, 262375, Note_off_c, 4, 38, 64
6, 262380, Note_on_c, 4, 38, 69
6, 262615, Note_off_c, 4, 38, 64
6, 262620, Note_on_c, 4, 38, 63
6, 262855, Note_off_c, 4, 38, 64
6, 262860, Note_on_c, 4, 38, 57
6, 263095, Note_off_c, 4, 38, 64
6, 263100, Note_on_c, 4, 38, 51
6, 263335, Note_off_c, 4, 38, 64
6, 263340, Note_on_c, 4, 38, 45
6, 263575, Note_off_c, 4, 38, 64
6, 263580, Note_on_c, 4, 38, 45
6, 263815, Note_off_c, 4, 38, 64
6, 263820, Note_on_c, 4, 38, 40
6, 264055, Note_off_c, 4, 38, 64
6, 264060, Note_on_c, 4, 38, 35
6, 264295, Note_off_c, 4, 38, 64
6, 264300, Note_on_c, 4, 26, 30
6, 264700, Note_off_c, 4, 26, 64
6, 264700, End_track
7, 0, Start_track
7, 0, MIDI_port, 0
7, 0, Channel_prefix, 5
7, 0, Control_c, 5, 7, 127
7, 0, Control_c, 5, 10, 1
7, 0, Control_c, 5, 91, 127
7, 0, Program_c, 5, 48
7, 0, Note_on_c, 5, 81, 92
7, 1800, Note_off_c, 5, 81, 64
7, 1920, Note_on_c, 5, 79, 92
7, 2160, Note_off_c, 5, 79, 64
7, 2160, Note_on_c, 5, 78, 92
7, 2800, Note_off_c, 5, 78, 64
7, 2880, Note_on_c, 5, 76, 92
7, 3120, Note_off_c, 5, 76, 64
7, 3120, Note_on_c, 5, 74, 92
7, 3760, Note_off_c, 5, 74, 64
7, 3840, Note_on_c, 5, 73, 92
7, 3960, Note_off_c, 5, 73, 64
7, 3960, Note_on_c, 5, 74, 92
7, 4080, Note_off_c, 5, 74, 64
7, 4080, Note_on_c, 5, 76, 92
7, 4200, Note_off_c, 5, 76, 64
7, 4200, Note_on_c, 5, 74, 92
7, 4320, Note_off_c, 5, 74, 64
7, 4320, Note_on_c, 5, 73, 92
7, 4440, Note_off_c, 5, 73, 64
7, 4440, Note_on_c, 5, 74, 92
7, 4560, Note_off_c, 5, 74, 64
7, 4560, Note_on_c, 5, 76, 92
7, 4680, Note_off_c, 5, 76, 64
7, 4680, Note_on_c, 5, 74, 92
7, 4800, Note_off_c, 5, 74, 64
7, 4800, Note_on_c, 5, 73, 92
7, 4920, Note_off_c, 5, 73, 64
7, 4920, Note_on_c, 5, 74, 92
7, 5040, Note_off_c, 5, 74, 64
7, 5040, Note_on_c, 5, 76, 92
7, 5160, Note_off_c, 5, 76, 64
7, 5160, Note_on_c, 5, 74, 92
7, 5280, Note_off_c, 5, 74, 64
7, 5280, Note_on_c, 5, 73, 92
7, 5400, Note_off_c, 5, 73, 64
7, 5400, Note_on_c, 5, 74, 92
7, 5520, Note_off_c, 5, 74, 64
7, 5520, Note_on_c, 5, 76, 92
7, 5640, Note_off_c, 5, 76, 64
7, 5640, Note_on_c, 5, 73, 92
7, 5760, Note_off_c, 5, 73, 64
7, 5760, Note_on_c, 5, 74, 92
7, 6355, Note_off_c, 5, 74, 64
7, 6960, Note_on_c, 5, 81, 92
7, 7200, Note_off_c, 5, 81, 64
7, 7200, Note_on_c, 5, 78, 92
7, 7440, Note_off_c, 5, 78, 64
7, 7440, Note_on_c, 5, 74, 92
7, 7675, Note_off_c, 5, 74, 64
7, 7680, Note_on_c, 5, 76, 92
7, 7800, Note_off_c, 5, 76, 64
7, 7800, Note_on_c, 5, 78, 92
7, 7920, Note_off_c, 5, 78, 64
7, 7920, Note_on_c, 5, 79, 92
7, 8040, Note_off_c, 5, 79, 64
7, 8040, Note_on_c, 5, 78, 92
7, 8160, Note_off_c, 5, 78, 64
7, 8160, Note_on_c, 5, 76, 92
7, 8280, Note_off_c, 5, 76, 64
7, 8280, Note_on_c, 5, 78, 92
7, 8400, Note_off_c, 5, 78, 64
7, 8400, Note_on_c, 5, 79, 92
7, 8520, Note_off_c, 5, 79, 64
7, 8520, Note_on_c, 5, 78, 92
7, 8640, Note_off_c, 5, 78, 64
7, 8640, Note_on_c, 5, 76, 92
7, 8760, Note_off_c, 5, 76, 64
7, 8760, Note_on_c, 5, 78, 92
7, 8880, Note_off_c, 5, 78, 64
7, 8880, Note_on_c, 5, 79, 92
7, 9000, Note_off_c, 5, 79, 64
7, 9000, Note_on_c, 5, 78, 92
7, 9120, Note_off_c, 5, 78, 64
7, 9120, Note_on_c, 5, 76, 92
7, 9240, Note_off_c, 5, 76, 64
7, 9240, Note_on_c, 5, 78, 92
7, 9360, Note_off_c, 5, 78, 64
7, 9360, Note_on_c, 5, 79, 92
7, 9480, Note_off_c, 5, 79, 64
7, 9480, Note_on_c, 5, 76, 92
7, 9600, Note_off_c, 5, 76, 64
7, 9600, Note_on_c, 5, 78, 92
7, 9835, Note_off_c, 5, 78, 64
7, 10080, Note_on_c, 5, 74, 92
7, 10795, Note_off_c, 5, 74, 64
7, 10800, Note_on_c, 5, 76, 92
7, 10880, Note_off_c, 5, 76, 64
7, 10920, Note_on_c, 5, 78, 92
7, 11000, Note_off_c, 5, 78, 64
7, 11040, Note_on_c, 5, 79, 92
7, 11120, Note_off_c, 5, 79, 64
7, 11160, Note_on_c, 5, 81, 92
7, 11240, Note_off_c, 5, 81, 64
7, 11280, Note_on_c, 5, 83, 92
7, 11360, Note_off_c, 5, 83, 64
7, 11400, Note_on_c, 5, 85, 92
7, 11480, Note_off_c, 5, 85, 64
7, 11520, Note_on_c, 5, 86, 92
7, 12360, Note_off_c, 5, 86, 64
7, 12480, Note_on_c, 5, 81, 92
7, 12880, Note_off_c, 5, 81, 64
7, 12960, Note_on_c, 5, 78, 92
7, 13360, Note_off_c, 5, 78, 64
7, 13440, Note_on_c, 5, 78, 92
7, 13560, Note_off_c, 5, 78, 64
7, 13560, Note_on_c, 5, 79, 92
7, 13680, Note_off_c, 5, 79, 64
7, 13680, Note_on_c, 5, 75, 92
7, 13800, Note_off_c, 5, 75, 64
7, 13800, Note_on_c, 5, 76, 92
7, 13915, Note_off_c, 5, 76, 64
7, 13920, Note_on_c, 5, 76, 92
7, 14320, Note_off_c, 5, 76, 64
7, 14640, Note_on_c, 5, 76, 92
7, 14880, Note_off_c, 5, 76, 64
7, 14880, Note_on_c, 5, 79, 92
7, 15120, Note_off_c, 5, 79, 64
7, 15120, Note_on_c, 5, 83, 92
7, 15355, Note_off_c, 5, 83, 64
7, 15360, Note_on_c, 5, 80, 92
7, 15480, Note_off_c, 5, 80, 64
7, 15480, Note_on_c, 5, 81, 92
7, 16240, Note_off_c, 5, 81, 64
7, 16320, Note_on_c, 5, 80, 92
7, 16440, Note_off_c, 5, 80, 64
7, 16440, Note_on_c, 5, 81, 92
7, 16795, Note_off_c, 5, 81, 64
7, 16800, Note_on_c, 5, 80, 92
7, 16920, Note_off_c, 5, 80, 64
7, 16920, Note_on_c, 5, 81, 92
7, 17275, Note_off_c, 5, 81, 64
7, 17280, Note_on_c, 5, 81, 92
7, 17400, Note_off_c, 5, 81, 64
7, 17400, Note_on_c, 5, 79, 92
7, 17515, Note_off_c, 5, 79, 64
7, 17700, Note_on_c, 5, 78, 92
7, 17820, Note_off_c, 5, 78, 64
7, 17820, Note_on_c, 5, 79, 92
7, 18355, Note_off_c, 5, 79, 64
7, 18480, Note_on_c, 5, 78, 92
7, 18600, Note_off_c, 5, 78, 64
7, 18600, Note_on_c, 5, 79, 92
7, 18715, Note_off_c, 5, 79, 64
7, 18720, Note_on_c, 5, 81, 92
7, 18800, Note_off_c, 5, 81, 64
7, 18840, Note_on_c, 5, 79, 92
7, 18920, Note_off_c, 5, 79, 64
7, 18960, Note_on_c, 5, 78, 92
7, 19040, Note_off_c, 5, 78, 64
7, 19080, Note_on_c, 5, 76, 92
7, 19160, Note_off_c, 5, 76, 64
7, 19200, Note_on_c, 5, 74, 92
7, 19320, Note_off_c, 5, 74, 64
7, 19320, Note_on_c, 5, 69, 92
7, 19440, Note_off_c, 5, 69, 64
7, 19440, Note_on_c, 5, 66, 92
7, 19520, Note_off_c, 5, 66, 64
7, 19560, Note_on_c, 5, 69, 92
7, 19640, Note_off_c, 5, 69, 64
7, 19680, Note_on_c, 5, 74, 92
7, 19760, Note_off_c, 5, 74, 64
7, 19800, Note_on_c, 5, 69, 92
7, 19880, Note_off_c, 5, 69, 64
7, 19920, Note_on_c, 5, 76, 92
7, 20000, Note_off_c, 5, 76, 64
7, 20040, Note_on_c, 5, 69, 92
7, 20120, Note_off_c, 5, 69, 64
7, 20160, Note_on_c, 5, 78, 92
7, 20240, Note_off_c, 5, 78, 64
7, 20280, Note_on_c, 5, 74, 92
7, 20360, Note_off_c, 5, 74, 64
7, 20400, Note_on_c, 5, 81, 92
7, 20480, Note_off_c, 5, 81, 64
7, 20520, Note_on_c, 5, 78, 92
7, 20600, Note_off_c, 5, 78, 64
7, 20640, Note_on_c, 5, 79, 92
7, 20720, Note_off_c, 5, 79, 64
7, 20760, Note_on_c, 5, 76, 92
7, 20840, Note_off_c, 5, 76, 64
7, 20880, Note_on_c, 5, 74, 92
7, 20960, Note_off_c, 5, 74, 64
7, 21000, Note_on_c, 5, 73, 92
7, 21080, Note_off_c, 5, 73, 64
7, 21120, Note_on_c, 5, 74, 92
7, 21240, Note_off_c, 5, 74, 64
7, 21240, Note_on_c, 5, 69, 92
7, 21360, Note_off_c, 5, 69, 64
7, 21360, Note_on_c, 5, 66, 92
7, 21440, Note_off_c, 5, 66, 64
7, 21480, Note_on_c, 5, 69, 92
7, 21560, Note_off_c, 5, 69, 64
7, 21600, Note_on_c, 5, 74, 92
7, 21680, Note_off_c, 5, 74, 64
7, 21720, Note_on_c, 5, 69, 92
7, 21800, Note_off_c, 5, 69, 64
7, 21840, Note_on_c, 5, 76, 92
7, 21920, Note_off_c, 5, 76, 64
7, 21960, Note_on_c, 5, 69, 92
7, 22040, Note_off_c, 5, 69, 64
7, 22080, Note_on_c, 5, 78, 92
7, 22160, Note_off_c, 5, 78, 64
7, 22200, Note_on_c, 5, 69, 92
7, 22280, Note_off_c, 5, 69, 64
7, 22320, Note_on_c, 5, 78, 92
7, 22400, Note_off_c, 5, 78, 64
7, 22440, Note_on_c, 5, 81, 92
7, 22520, Note_off_c, 5, 81, 64
7, 22560, Note_on_c, 5, 79, 92
7, 22640, Note_off_c, 5, 79, 64
7, 22680, Note_on_c, 5, 76, 92
7, 22760, Note_off_c, 5, 76, 64
7, 22800, Note_on_c, 5, 74, 92
7, 22880, Note_off_c, 5, 74, 64
7, 22920, Note_on_c, 5, 73, 92
7, 23000, Note_off_c, 5, 73, 64
7, 23040, Note_on_c, 5, 74, 92
7, 23440, Note_off_c, 5, 74, 64
7, 26880, Note_on_c, 5, 86, 92
7, 28200, Note_off_c, 5, 86, 64
7, 28320, Note_on_c, 5, 83, 92
7, 28675, Note_off_c, 5, 83, 64
7, 28680, Note_on_c, 5, 80, 92
7, 28795, Note_off_c, 5, 80, 64
7, 28800, Note_on_c, 5, 74, 92
7, 29200, Note_off_c, 5, 74, 64
7, 29280, Note_on_c, 5, 71, 88
7, 29635, Note_off_c, 5, 71, 64
7, 29640, Note_on_c, 5, 68, 85
7, 29755, Note_off_c, 5, 68, 64
7, 29760, Note_on_c, 5, 64, 84
7, 29995, Note_off_c, 5, 64, 64
7, 30000, Note_on_c, 5, 71, 82
7, 30120, Note_off_c, 5, 71, 64
7, 30120, Note_on_c, 5, 73, 81
7, 30240, Note_off_c, 5, 73, 64
7, 30240, Note_on_c, 5, 74, 80
7, 30320, Note_off_c, 5, 74, 64
7, 30480, Note_on_c, 5, 74, 78
7, 30560, Note_off_c, 5, 74, 64
7, 30720, Note_on_c, 5, 73, 75
7, 30840, Note_off_c, 5, 73, 64
7, 30840, Note_on_c, 5, 69, 75
7, 30920, Note_off_c, 5, 69, 64
7, 30960, Note_on_c, 5, 71, 75
7, 31040, Note_off_c, 5, 71, 64
7, 31080, Note_on_c, 5, 73, 75
7, 31160, Note_off_c, 5, 73, 64
7, 31200, Note_on_c, 5, 74, 75
7, 31280, Note_off_c, 5, 74, 64
7, 31320, Note_on_c, 5, 76, 75
7, 31400, Note_off_c, 5, 76, 64
7, 31440, Note_on_c, 5, 78, 75
7, 31520, Note_off_c, 5, 78, 64
7, 31560, Note_on_c, 5, 80, 75
7, 31640, Note_off_c, 5, 80, 64
7, 31680, Note_on_c, 5, 81, 75
7, 31760, Note_off_c, 5, 81, 64
7, 31800, Note_on_c, 5, 83, 75
7, 31880, Note_off_c, 5, 83, 64
7, 31920, Note_on_c, 5, 85, 75
7, 32000, Note_off_c, 5, 85, 64
7, 32040, Note_on_c, 5, 83, 75
7, 32120, Note_off_c, 5, 83, 64
7, 32160, Note_on_c, 5, 81, 75
7, 32240, Note_off_c, 5, 81, 64
7, 32280, Note_on_c, 5, 80, 75
7, 32360, Note_off_c, 5, 80, 64
7, 32400, Note_on_c, 5, 78, 75
7, 32480, Note_off_c, 5, 78, 64
7, 32520, Note_on_c, 5, 76, 75
7, 32600, Note_off_c, 5, 76, 64
7, 32640, Note_on_c, 5, 74, 75
7, 32760, Note_off_c, 5, 74, 64
7, 32760, Note_on_c, 5, 71, 75
7, 32840, Note_off_c, 5, 71, 64
7, 32880, Note_on_c, 5, 73, 75
7, 32960, Note_off_c, 5, 73, 64
7, 33000, Note_on_c, 5, 74, 75
7, 33080, Note_off_c, 5, 74, 64
7, 33120, Note_on_c, 5, 76, 75
7, 33200, Note_off_c, 5, 76, 64
7, 33240, Note_on_c, 5, 78, 75
7, 33320, Note_off_c, 5, 78, 64
7, 33360, Note_on_c, 5, 80, 75
7, 33440, Note_off_c, 5, 80, 64
7, 33480, Note_on_c, 5, 81, 75
7, 33560, Note_off_c, 5, 81, 64
7, 33600, Note_on_c, 5, 83, 75
7, 33680, Note_off_c, 5, 83, 64
7, 33720, Note_on_c, 5, 81, 75
7, 33800, Note_off_c, 5, 81, 64
7, 33840, Note_on_c, 5, 80, 75
7, 33920, Note_off_c, 5, 80, 64
7, 33960, Note_on_c, 5, 81, 75
7, 34040, Note_off_c, 5, 81, 64
7, 34080, Note_on_c, 5, 80, 75
7, 34160, Note_off_c, 5, 80, 64
7, 34200, Note_on_c, 5, 78, 75
7, 34280, Note_off_c, 5, 78, 64
7, 34320, Note_on_c, 5, 76, 75
7, 34400, Note_off_c, 5, 76, 64
7, 34440, Note_on_c, 5, 74, 75
7, 34520, Note_off_c, 5, 74, 64
7, 34560, Note_on_c, 5, 73, 75
7, 34675, Note_off_c, 5, 73, 64
7, 35040, Note_on_c, 5, 76, 60
7, 38480, Note_off_c, 5, 76, 64
7, 39600, Note_on_c, 5, 81, 75
7, 39680, Note_off_c, 5, 81, 64
7, 39840, Note_on_c, 5, 69, 75
7, 39920, Note_off_c, 5, 69, 64
7, 40080, Note_on_c, 5, 71, 75
7, 40140, Note_off_c, 5, 71, 64
7, 40140, Note_on_c, 5, 73, 75
7, 40200, Note_off_c, 5, 73, 64
7, 40200, Note_on_c, 5, 71, 75
7, 40260, Note_off_c, 5, 71, 64
7, 40260, Note_on_c, 5, 73, 75
7, 40315, Note_off_c, 5, 73, 64
7, 40320, Note_on_c, 5, 73, 75
7, 40400, Note_off_c, 5, 73, 64
7, 40560, Note_on_c, 5, 73, 77
7, 40640, Note_off_c, 5, 73, 64
7, 40800, Note_on_c, 5, 76, 79
7, 40880, Note_off_c, 5, 76, 64
7, 41040, Note_on_c, 5, 74, 81
7, 41120, Note_off_c, 5, 74, 64
7, 41280, Note_on_c, 5, 76, 83
7, 41360, Note_off_c, 5, 76, 64
7, 41520, Note_on_c, 5, 85, 85
7, 41600, Note_off_c, 5, 85, 64
7, 41640, Note_on_c, 5, 81, 86
7, 41720, Note_off_c, 5, 81, 64
7, 41760, Note_on_c, 5, 76, 87
7, 41840, Note_off_c, 5, 76, 64
7, 42000, Note_on_c, 5, 74, 89
7, 42080, Note_off_c, 5, 74, 64
7, 42240, Note_on_c, 5, 73, 92
7, 42320, Note_off_c, 5, 73, 64
7, 42480, Note_on_c, 5, 76, 92
7, 42560, Note_off_c, 5, 76, 64
7, 42720, Note_on_c, 5, 81, 92
7, 43360, Note_off_c, 5, 81, 64
7, 43440, Note_on_c, 5, 79, 92
7, 43680, Note_off_c, 5, 79, 64
7, 43680, Note_on_c, 5, 78, 92
7, 43920, Note_off_c, 5, 78, 64
7, 43920, Note_on_c, 5, 77, 92
7, 44160, Note_off_c, 5, 77, 64
7, 44160, Note_on_c, 5, 77, 92
7, 44280, Note_off_c, 5, 77, 64
7, 44280, Note_on_c, 5, 78, 92
7, 45040, Note_off_c, 5, 78, 64
7, 45120, Note_on_c, 5, 77, 92
7, 45240, Note_off_c, 5, 77, 64
7, 45240, Note_on_c, 5, 78, 92
7, 45595, Note_off_c, 5, 78, 64
7, 45600, Note_on_c, 5, 77, 92
7, 45720, Note_off_c, 5, 77, 64
7, 45720, Note_on_c, 5, 78, 92
7, 46075, Note_off_c, 5, 78, 64
7, 46080, Note_on_c, 5, 58, 92
7, 48000, Note_off_c, 5, 58, 64
7, 48000, Note_on_c, 5, 59, 92
7, 48840, Note_off_c, 5, 59, 64
7, 48960, Note_on_c, 5, 78, 69
7, 49380, Note_off_c, 5, 78, 64
7, 49440, Note_on_c, 5, 80, 58
7, 49860, Note_off_c, 5, 80, 64
7, 49920, Note_on_c, 5, 81, 45
7, 50995, Note_off_c, 5, 81, 64
7, 51000, Note_on_c, 5, 80, 53
7, 51080, Note_off_c, 5, 80, 64
7, 51120, Note_on_c, 5, 78, 54
7, 51200, Note_off_c, 5, 78, 64
7, 51240, Note_on_c, 5, 76, 55
7, 51320, Note_off_c, 5, 76, 64
7, 51360, Note_on_c, 5, 74, 56
7, 51440, Note_off_c, 5, 74, 64
7, 51480, Note_on_c, 5, 73, 57
7, 51560, Note_off_c, 5, 73, 64
7, 51600, Note_on_c, 5, 71, 58
7, 51680, Note_off_c, 5, 71, 64
7, 51720, Note_on_c, 5, 69, 59
7, 51800, Note_off_c, 5, 69, 64
7, 51840, Note_on_c, 5, 81, 60
7, 52915, Note_off_c, 5, 81, 64
7, 52920, Note_on_c, 5, 80, 61
7, 53000, Note_off_c, 5, 80, 64
7, 53040, Note_on_c, 5, 78, 63
7, 53120, Note_off_c, 5, 78, 64
7, 53160, Note_on_c, 5, 76, 65
7, 53240, Note_off_c, 5, 76, 64
7, 53280, Note_on_c, 5, 74, 67
7, 53360, Note_off_c, 5, 74, 64
7, 53400, Note_on_c, 5, 73, 69
7, 53480, Note_off_c, 5, 73, 64
7, 53520, Note_on_c, 5, 71, 71
7, 53600, Note_off_c, 5, 71, 64
7, 53640, Note_on_c, 5, 69, 73
7, 53720, Note_off_c, 5, 69, 64
7, 53760, Note_on_c, 5, 81, 75
7, 54835, Note_off_c, 5, 81, 64
7, 54840, Note_on_c, 5, 80, 77
7, 54920, Note_off_c, 5, 80, 64
7, 54960, Note_on_c, 5, 78, 79
7, 55040, Note_off_c, 5, 78, 64
7, 55080, Note_on_c, 5, 76, 81
7, 55160, Note_off_c, 5, 76, 64
7, 55200, Note_on_c, 5, 74, 83
7, 55280, Note_off_c, 5, 74, 64
7, 55320, Note_on_c, 5, 73, 85
7, 55400, Note_off_c, 5, 73, 64
7, 55440, Note_on_c, 5, 71, 87
7, 55520, Note_off_c, 5, 71, 64
7, 55560, Note_on_c, 5, 69, 89
7, 55640, Note_off_c, 5, 69, 64
7, 55680, Note_on_c, 5, 81, 92
7, 55760, Note_off_c, 5, 81, 64
7, 55920, Note_on_c, 5, 80, 92
7, 56000, Note_off_c, 5, 80, 64
7, 56040, Note_on_c, 5, 78, 92
7, 56120, Note_off_c, 5, 78, 64
7, 56160, Note_on_c, 5, 76, 92
7, 56240, Note_off_c, 5, 76, 64
7, 56280, Note_on_c, 5, 74, 92
7, 56360, Note_off_c, 5, 74, 64
7, 56400, Note_on_c, 5, 73, 92
7, 56480, Note_off_c, 5, 73, 64
7, 56520, Note_on_c, 5, 71, 92
7, 56600, Note_off_c, 5, 71, 64
7, 56640, Note_on_c, 5, 69, 92
7, 56720, Note_off_c, 5, 69, 64
7, 56760, Note_on_c, 5, 68, 92
7, 56840, Note_off_c, 5, 68, 64
7, 56880, Note_on_c, 5, 66, 92
7, 56960, Note_off_c, 5, 66, 64
7, 57000, Note_on_c, 5, 64, 92
7, 57080, Note_off_c, 5, 64, 64
7, 57120, Note_on_c, 5, 62, 92
7, 57200, Note_off_c, 5, 62, 64
7, 57240, Note_on_c, 5, 61, 92
7, 57320, Note_off_c, 5, 61, 64
7, 57360, Note_on_c, 5, 59, 92
7, 57440, Note_off_c, 5, 59, 64
7, 57480, Note_on_c, 5, 57, 92
7, 57560, Note_off_c, 5, 57, 64
7, 57600, Note_on_c, 5, 55, 92
7, 58080, Note_off_c, 5, 55, 64
7, 58080, Note_on_c, 5, 67, 92
7, 58560, Note_off_c, 5, 67, 64
7, 58560, Note_on_c, 5, 66, 92
7, 59040, Note_off_c, 5, 66, 64
7, 59040, Note_on_c, 5, 65, 92
7, 59440, Note_off_c, 5, 65, 64
7, 59520, Note_on_c, 5, 66, 92
7, 59920, Note_off_c, 5, 66, 64
7, 60000, Note_on_c, 5, 81, 92
7, 60840, Note_off_c, 5, 81, 64
7, 60960, Note_on_c, 5, 80, 92
7, 61080, Note_off_c, 5, 80, 64
7, 61080, Note_on_c, 5, 78, 92
7, 61195, Note_off_c, 5, 78, 64
7, 61200, Note_on_c, 5, 76, 92
7, 61280, Note_off_c, 5, 76, 64
7, 61320, Note_on_c, 5, 74, 92
7, 61400, Note_off_c, 5, 74, 64
7, 61440, Note_on_c, 5, 73, 92
7, 61520, Note_off_c, 5, 73, 64
7, 61680, Note_on_c, 5, 76, 92
7, 61760, Note_off_c, 5, 76, 64
7, 61920, Note_on_c, 5, 74, 92
7, 62040, Note_off_c, 5, 74, 64
7, 62040, Note_on_c, 5, 73, 92
7, 62155, Note_off_c, 5, 73, 64
7, 62160, Note_on_c, 5, 71, 92
7, 62240, Note_off_c, 5, 71, 64
7, 62280, Note_on_c, 5, 69, 92
7, 62360, Note_off_c, 5, 69, 64
7, 62400, Note_on_c, 5, 71, 92
7, 62460, Note_off_c, 5, 71, 64
7, 62460, Note_on_c, 5, 73, 92
7, 62520, Note_off_c, 5, 73, 64
7, 62520, Note_on_c, 5, 71, 92
7, 62580, Note_off_c, 5, 71, 64
7, 62580, Note_on_c, 5, 73, 92
7, 62640, Note_off_c, 5, 73, 64
7, 62640, Note_on_c, 5, 71, 92
7, 62700, Note_off_c, 5, 71, 64
7, 62700, Note_on_c, 5, 73, 92
7, 62760, Note_off_c, 5, 73, 64
7, 62760, Note_on_c, 5, 71, 92
7, 62820, Note_off_c, 5, 71, 64
7, 62820, Note_on_c, 5, 73, 92
7, 62880, Note_off_c, 5, 73, 64
7, 62880, Note_on_c, 5, 71, 92
7, 62940, Note_off_c, 5, 71, 64
7, 62940, Note_on_c, 5, 73, 92
7, 63000, Note_off_c, 5, 73, 64
7, 63000, Note_on_c, 5, 71, 92
7, 63060, Note_off_c, 5, 71, 64
7, 63060, Note_on_c, 5, 73, 92
7, 63120, Note_off_c, 5, 73, 64
7, 63120, Note_on_c, 5, 71, 92
7, 63180, Note_off_c, 5, 71, 64
7, 63180, Note_on_c, 5, 73, 92
7, 63240, Note_off_c, 5, 73, 64
7, 63240, Note_on_c, 5, 71, 92
7, 63300, Note_off_c, 5, 71, 64
7, 63300, Note_on_c, 5, 73, 92
7, 63360, Note_off_c, 5, 73, 64
7, 63360, Note_on_c, 5, 69, 92
7, 63440, Note_off_c, 5, 69, 64
7, 63600, Note_on_c, 5, 76, 90
7, 63720, Note_off_c, 5, 76, 64
7, 63720, Note_on_c, 5, 79, 89
7, 63840, Note_off_c, 5, 79, 64
7, 63840, Note_on_c, 5, 78, 88
7, 63960, Note_off_c, 5, 78, 64
7, 63960, Note_on_c, 5, 81, 87
7, 64080, Note_off_c, 5, 81, 64
7, 64080, Note_on_c, 5, 80, 86
7, 64200, Note_off_c, 5, 80, 64
7, 64200, Note_on_c, 5, 83, 85
7, 64320, Note_off_c, 5, 83, 64
7, 64320, Note_on_c, 5, 81, 83
7, 64720, Note_off_c, 5, 81, 64
7, 65280, Note_on_c, 5, 69, 75
7, 65360, Note_off_c, 5, 69, 64
7, 65520, Note_on_c, 5, 76, 74
7, 65640, Note_off_c, 5, 76, 64
7, 65640, Note_on_c, 5, 79, 73
7, 65760, Note_off_c, 5, 79, 64
7, 65760, Note_on_c, 5, 78, 72
7, 65880, Note_off_c, 5, 78, 64
7, 65880, Note_on_c, 5, 81, 71
7, 66000, Note_off_c, 5, 81, 64
7, 66000, Note_on_c, 5, 80, 70
7, 66120, Note_off_c, 5, 80, 64
7, 66120, Note_on_c, 5, 83, 69
7, 66240, Note_off_c, 5, 83, 64
7, 66240, Note_on_c, 5, 81, 68
7, 66640, Note_off_c, 5, 81, 64
7, 67200, Note_on_c, 5, 69, 60
7, 67280, Note_off_c, 5, 69, 64
7, 67440, Note_on_c, 5, 81, 60
7, 67560, Note_off_c, 5, 81, 64
7, 67560, Note_on_c, 5, 83, 58
7, 67680, Note_off_c, 5, 83, 64
7, 67680, Note_on_c, 5, 81, 56
7, 67800, Note_off_c, 5, 81, 64
7, 67800, Note_on_c, 5, 83, 54
7, 67920, Note_off_c, 5, 83, 64
7, 67920, Note_on_c, 5, 81, 51
7, 68040, Note_off_c, 5, 81, 64
7, 68040, Note_on_c, 5, 83, 48
7, 68160, Note_off_c, 5, 83, 64
7, 68160, Note_on_c, 5, 81, 45
7, 68560, Note_off_c, 5, 81, 64
7, 69120, Note_on_c, 5, 81, 92
7, 70920, Note_off_c, 5, 81, 64
7, 71040, Note_on_c, 5, 79, 92
7, 71280, Note_off_c, 5, 79, 64
7, 71280, Note_on_c, 5, 78, 92
7, 71920, Note_off_c, 5, 78, 64
7, 72000, Note_on_c, 5, 76, 92
7, 72240, Note_off_c, 5, 76, 64
7, 72240, Note_on_c, 5, 74, 92
7, 72880, Note_off_c, 5, 74, 64
7, 72960, Note_on_c, 5, 73, 92
7, 73080, Note_off_c, 5, 73, 64
7, 73080, Note_on_c, 5, 74, 92
7, 73200, Note_off_c, 5, 74, 64
7, 73200, Note_on_c, 5, 76, 92
7, 73320, Note_off_c, 5, 76, 64
7, 73320, Note_on_c, 5, 74, 92
7, 73440, Note_off_c, 5, 74, 64
7, 73440, Note_on_c, 5, 73, 92
7, 73560, Note_off_c, 5, 73, 64
7, 73560, Note_on_c, 5, 74, 92
7, 73680, Note_off_c, 5, 74, 64
7, 73680, Note_on_c, 5, 76, 92
7, 73800, Note_off_c, 5, 76, 64
7, 73800, Note_on_c, 5, 74, 92
7, 73920, Note_off_c, 5, 74, 64
7, 73920, Note_on_c, 5, 73, 92
7, 74040, Note_off_c, 5, 73, 64
7, 74040, Note_on_c, 5, 74, 92
7, 74160, Note_off_c, 5, 74, 64
7, 74160, Note_on_c, 5, 76, 92
7, 74280, Note_off_c, 5, 76, 64
7, 74280, Note_on_c, 5, 74, 92
7, 74400, Note_off_c, 5, 74, 64
7, 74400, Note_on_c, 5, 73, 92
7, 74520, Note_off_c, 5, 73, 64
7, 74520, Note_on_c, 5, 74, 92
7, 74640, Note_off_c, 5, 74, 64
7, 74640, Note_on_c, 5, 76, 92
7, 74760, Note_off_c, 5, 76, 64
7, 74760, Note_on_c, 5, 73, 92
7, 74880, Note_off_c, 5, 73, 64
7, 74880, Note_on_c, 5, 74, 92
7, 75475, Note_off_c, 5, 74, 64
7, 76080, Note_on_c, 5, 81, 92
7, 76320, Note_off_c, 5, 81, 64
7, 76320, Note_on_c, 5, 78, 92
7, 76560, Note_off_c, 5, 78, 64
7, 76560, Note_on_c, 5, 74, 92
7, 76795, Note_off_c, 5, 74, 64
7, 76800, Note_on_c, 5, 76, 92
7, 76920, Note_off_c, 5, 76, 64
7, 76920, Note_on_c, 5, 78, 92
7, 77040, Note_off_c, 5, 78, 64
7, 77040, Note_on_c, 5, 79, 92
7, 77160, Note_off_c, 5, 79, 64
7, 77160, Note_on_c, 5, 78, 92
7, 77280, Note_off_c, 5, 78, 64
7, 77280, Note_on_c, 5, 76, 92
7, 77400, Note_off_c, 5, 76, 64
7, 77400, Note_on_c, 5, 78, 92
7, 77520, Note_off_c, 5, 78, 64
7, 77520, Note_on_c, 5, 79, 92
7, 77640, Note_off_c, 5, 79, 64
7, 77640, Note_on_c, 5, 78, 92
7, 77760, Note_off_c, 5, 78, 64
7, 77760, Note_on_c, 5, 76, 92
7, 77880, Note_off_c, 5, 76, 64
7, 77880, Note_on_c, 5, 78, 92
7, 78000, Note_off_c, 5, 78, 64
7, 78000, Note_on_c, 5, 79, 92
7, 78120, Note_off_c, 5, 79, 64
7, 78120, Note_on_c, 5, 78, 92
7, 78240, Note_off_c, 5, 78, 64
7, 78240, Note_on_c, 5, 76, 92
7, 78360, Note_off_c, 5, 76, 64
7, 78360, Note_on_c, 5, 78, 92
7, 78480, Note_off_c, 5, 78, 64
7, 78480, Note_on_c, 5, 79, 92
7, 78600, Note_off_c, 5, 79, 64
7, 78600, Note_on_c, 5, 76, 92
7, 78720, Note_off_c, 5, 76, 64
7, 78720, Note_on_c, 5, 78, 92
7, 78955, Note_off_c, 5, 78, 64
7, 79200, Note_on_c, 5, 74, 92
7, 79915, Note_off_c, 5, 74, 64
7, 79920, Note_on_c, 5, 76, 92
7, 80000, Note_off_c, 5, 76, 64
7, 80040, Note_on_c, 5, 78, 92
7, 80120, Note_off_c, 5, 78, 64
7, 80160, Note_on_c, 5, 79, 92
7, 80240, Note_off_c, 5, 79, 64
7, 80280, Note_on_c, 5, 81, 92
7, 80360, Note_off_c, 5, 81, 64
7, 80400, Note_on_c, 5, 83, 92
7, 80480, Note_off_c, 5, 83, 64
7, 80520, Note_on_c, 5, 85, 92
7, 80600, Note_off_c, 5, 85, 64
7, 80640, Note_on_c, 5, 86, 92
7, 81480, Note_off_c, 5, 86, 64
7, 81600, Note_on_c, 5, 81, 92
7, 82000, Note_off_c, 5, 81, 64
7, 82080, Note_on_c, 5, 78, 92
7, 82480, Note_off_c, 5, 78, 64
7, 82560, Note_on_c, 5, 78, 92
7, 82680, Note_off_c, 5, 78, 64
7, 82680, Note_on_c, 5, 79, 92
7, 82800, Note_off_c, 5, 79, 64
7, 82800, Note_on_c, 5, 75, 92
7, 82920, Note_off_c, 5, 75, 64
7, 82920, Note_on_c, 5, 76, 92
7, 83035, Note_off_c, 5, 76, 64
7, 83040, Note_on_c, 5, 76, 92
7, 83440, Note_off_c, 5, 76, 64
7, 83760, Note_on_c, 5, 76, 92
7, 84000, Note_off_c, 5, 76, 64
7, 84000, Note_on_c, 5, 79, 92
7, 84240, Note_off_c, 5, 79, 64
7, 84240, Note_on_c, 5, 83, 92
7, 84475, Note_off_c, 5, 83, 64
7, 84480, Note_on_c, 5, 80, 92
7, 84600, Note_off_c, 5, 80, 64
7, 84600, Note_on_c, 5, 81, 92
7, 85360, Note_off_c, 5, 81, 64
7, 85440, Note_on_c, 5, 80, 92
7, 85560, Note_off_c, 5, 80, 64
7, 85560, Note_on_c, 5, 81, 92
7, 85915, Note_off_c, 5, 81, 64
7, 85920, Note_on_c, 5, 80, 92
7, 86040, Note_off_c, 5, 80, 64
7, 86040, Note_on_c, 5, 81, 92
7, 86395, Note_off_c, 5, 81, 64
7, 86400, Note_on_c, 5, 81, 92
7, 86520, Note_off_c, 5, 81, 64
7, 86520, Note_on_c, 5, 79, 92
7, 86635, Note_off_c, 5, 79, 64
7, 86820, Note_on_c, 5, 78, 92
7, 86940, Note_off_c, 5, 78, 64
7, 86940, Note_on_c, 5, 79, 92
7, 87475, Note_off_c, 5, 79, 64
7, 87600, Note_on_c, 5, 78, 92
7, 87720, Note_off_c, 5, 78, 64
7, 87720, Note_on_c, 5, 79, 92
7, 87835, Note_off_c, 5, 79, 64
7, 87840, Note_on_c, 5, 81, 92
7, 87920, Note_off_c, 5, 81, 64
7, 87960, Note_on_c, 5, 79, 92
7, 88040, Note_off_c, 5, 79, 64
7, 88080, Note_on_c, 5, 78, 92
7, 88160, Note_off_c, 5, 78, 64
7, 88200, Note_on_c, 5, 76, 92
7, 88280, Note_off_c, 5, 76, 64
7, 88320, Note_on_c, 5, 74, 92
7, 88440, Note_off_c, 5, 74, 64
7, 88440, Note_on_c, 5, 69, 92
7, 88560, Note_off_c, 5, 69, 64
7, 88560, Note_on_c, 5, 66, 92
7, 88640, Note_off_c, 5, 66, 64
7, 88680, Note_on_c, 5, 69, 92
7, 88760, Note_off_c, 5, 69, 64
7, 88800, Note_on_c, 5, 74, 92
7, 88880, Note_off_c, 5, 74, 64
7, 88920, Note_on_c, 5, 69, 92
7, 89000, Note_off_c, 5, 69, 64
7, 89040, Note_on_c, 5, 76, 92
7, 89120, Note_off_c, 5, 76, 64
7, 89160, Note_on_c, 5, 69, 92
7, 89240, Note_off_c, 5, 69, 64
7, 89280, Note_on_c, 5, 78, 92
7, 89360, Note_off_c, 5, 78, 64
7, 89400, Note_on_c, 5, 74, 92
7, 89480, Note_off_c, 5, 74, 64
7, 89520, Note_on_c, 5, 81, 92
7, 89600, Note_off_c, 5, 81, 64
7, 89640, Note_on_c, 5, 78, 92
7, 89720, Note_off_c, 5, 78, 64
7, 89760, Note_on_c, 5, 79, 92
7, 89840, Note_off_c, 5, 79, 64
7, 89880, Note_on_c, 5, 76, 92
7, 89960, Note_off_c, 5, 76, 64
7, 90000, Note_on_c, 5, 74, 92
7, 90080, Note_off_c, 5, 74, 64
7, 90120, Note_on_c, 5, 73, 92
7, 90200, Note_off_c, 5, 73, 64
7, 90240, Note_on_c, 5, 74, 92
7, 90360, Note_off_c, 5, 74, 64
7, 90360, Note_on_c, 5, 69, 92
7, 90480, Note_off_c, 5, 69, 64
7, 90480, Note_on_c, 5, 66, 92
7, 90560, Note_off_c, 5, 66, 64
7, 90600, Note_on_c, 5, 69, 92
7, 90680, Note_off_c, 5, 69, 64
7, 90720, Note_on_c, 5, 74, 92
7, 90800, Note_off_c, 5, 74, 64
7, 90840, Note_on_c, 5, 69, 92
7, 90920, Note_off_c, 5, 69, 64
7, 90960, Note_on_c, 5, 76, 92
7, 91040, Note_off_c, 5, 76, 64
7, 91080, Note_on_c, 5, 69, 92
7, 91160, Note_off_c, 5, 69, 64
7, 91200, Note_on_c, 5, 78, 92
7, 91280, Note_off_c, 5, 78, 64
7, 91320, Note_on_c, 5, 69, 92
7, 91400, Note_off_c, 5, 69, 64
7, 91440, Note_on_c, 5, 78, 92
7, 91520, Note_off_c, 5, 78, 64
7, 91560, Note_on_c, 5, 81, 92
7, 91640, Note_off_c, 5, 81, 64
7, 91680, Note_on_c, 5, 79, 92
7, 91760, Note_off_c, 5, 79, 64
7, 91800, Note_on_c, 5, 76, 92
7, 91880, Note_off_c, 5, 76, 64
7, 91920, Note_on_c, 5, 74, 92
7, 92000, Note_off_c, 5, 74, 64
7, 92040, Note_on_c, 5, 73, 92
7, 92120, Note_off_c, 5, 73, 64
7, 92160, Note_on_c, 5, 74, 92
7, 92560, Note_off_c, 5, 74, 64
7, 96000, Note_on_c, 5, 86, 92
7, 97320, Note_off_c, 5, 86, 64
7, 97440, Note_on_c, 5, 83, 92
7, 97795, Note_off_c, 5, 83, 64
7, 97800, Note_on_c, 5, 80, 92
7, 97915, Note_off_c, 5, 80, 64
7, 97920, Note_on_c, 5, 74, 92
7, 98320, Note_off_c, 5, 74, 64
7, 98400, Note_on_c, 5, 71, 88
7, 98755, Note_off_c, 5, 71, 64
7, 98760, Note_on_c, 5, 68, 85
7, 98875, Note_off_c, 5, 68, 64
7, 98880, Note_on_c, 5, 64, 84
7, 99115, Note_off_c, 5, 64, 64
7, 99120, Note_on_c, 5, 71, 82
7, 99240, Note_off_c, 5, 71, 64
7, 99240, Note_on_c, 5, 73, 81
7, 99360, Note_off_c, 5, 73, 64
7, 99360, Note_on_c, 5, 74, 80
7, 99440, Note_off_c, 5, 74, 64
7, 99600, Note_on_c, 5, 74, 78
7, 99680, Note_off_c, 5, 74, 64
7, 99840, Note_on_c, 5, 73, 75
7, 99960, Note_off_c, 5, 73, 64
7, 99960, Note_on_c, 5, 69, 75
7, 100040, Note_off_c, 5, 69, 64
7, 100080, Note_on_c, 5, 71, 75
7, 100160, Note_off_c, 5, 71, 64
7, 100200, Note_on_c, 5, 73, 75
7, 100280, Note_off_c, 5, 73, 64
7, 100320, Note_on_c, 5, 74, 75
7, 100400, Note_off_c, 5, 74, 64
7, 100440, Note_on_c, 5, 76, 75
7, 100520, Note_off_c, 5, 76, 64
7, 100560, Note_on_c, 5, 78, 75
7, 100640, Note_off_c, 5, 78, 64
7, 100680, Note_on_c, 5, 80, 75
7, 100760, Note_off_c, 5, 80, 64
7, 100800, Note_on_c, 5, 81, 75
7, 100880, Note_off_c, 5, 81, 64
7, 100920, Note_on_c, 5, 83, 75
7, 101000, Note_off_c, 5, 83, 64
7, 101040, Note_on_c, 5, 85, 75
7, 101120, Note_off_c, 5, 85, 64
7, 101160, Note_on_c, 5, 83, 75
7, 101240, Note_off_c, 5, 83, 64
7, 101280, Note_on_c, 5, 81, 75
7, 101360, Note_off_c, 5, 81, 64
7, 101400, Note_on_c, 5, 80, 75
7, 101480, Note_off_c, 5, 80, 64
7, 101520, Note_on_c, 5, 78, 75
7, 101600, Note_off_c, 5, 78, 64
7, 101640, Note_on_c, 5, 76, 75
7, 101720, Note_off_c, 5, 76, 64
7, 101760, Note_on_c, 5, 74, 75
7, 101880, Note_off_c, 5, 74, 64
7, 101880, Note_on_c, 5, 71, 75
7, 101960, Note_off_c, 5, 71, 64
7, 102000, Note_on_c, 5, 73, 75
7, 102080, Note_off_c, 5, 73, 64
7, 102120, Note_on_c, 5, 74, 75
7, 102200, Note_off_c, 5, 74, 64
7, 102240, Note_on_c, 5, 76, 75
7, 102320, Note_off_c, 5, 76, 64
7, 102360, Note_on_c, 5, 78, 75
7, 102440, Note_off_c, 5, 78, 64
7, 102480, Note_on_c, 5, 80, 75
7, 102560, Note_off_c, 5, 80, 64
7, 102600, Note_on_c, 5, 81, 75
7, 102680, Note_off_c, 5, 81, 64
7, 102720, Note_on_c, 5, 83, 75
7, 102800, Note_off_c, 5, 83, 64
7, 102840, Note_on_c, 5, 81, 75
7, 102920, Note_off_c, 5, 81, 64
7, 102960, Note_on_c, 5, 80, 75
7, 103040, Note_off_c, 5, 80, 64
7, 103080, Note_on_c, 5, 81, 75
7, 103160, Note_off_c, 5, 81, 64
7, 103200, Note_on_c, 5, 80, 75
7, 103280, Note_off_c, 5, 80, 64
7, 103320, Note_on_c, 5, 78, 75
7, 103400, Note_off_c, 5, 78, 64
7, 103440, Note_on_c, 5, 76, 75
7, 103520, Note_off_c, 5, 76, 64
7, 103560, Note_on_c, 5, 74, 75
7, 103640, Note_off_c, 5, 74, 64
7, 103680, Note_on_c, 5, 73, 75
7, 103795, Note_off_c, 5, 73, 64
7, 104160, Note_on_c, 5, 76, 60
7, 107600, Note_off_c, 5, 76, 64
7, 108720, Note_on_c, 5, 81, 75
7, 108800, Note_off_c, 5, 81, 64
7, 108960, Note_on_c, 5, 69, 75
7, 109040, Note_off_c, 5, 69, 64
7, 109200, Note_on_c, 5, 71, 75
7, 109260, Note_off_c, 5, 71, 64
7, 109260, Note_on_c, 5, 73, 75
7, 109320, Note_off_c, 5, 73, 64
7, 109320, Note_on_c, 5, 71, 75
7, 109380, Note_off_c, 5, 71, 64
7, 109380, Note_on_c, 5, 73, 75
7, 109435, Note_off_c, 5, 73, 64
7, 109440, Note_on_c, 5, 73, 75
7, 109520, Note_off_c, 5, 73, 64
7, 109680, Note_on_c, 5, 73, 77
7, 109760, Note_off_c, 5, 73, 64
7, 109920, Note_on_c, 5, 76, 79
7, 110000, Note_off_c, 5, 76, 64
7, 110160, Note_on_c, 5, 74, 81
7, 110240, Note_off_c, 5, 74, 64
7, 110400, Note_on_c, 5, 76, 83
7, 110480, Note_off_c, 5, 76, 64
7, 110640, Note_on_c, 5, 85, 85
7, 110720, Note_off_c, 5, 85, 64
7, 110760, Note_on_c, 5, 81, 86
7, 110840, Note_off_c, 5, 81, 64
7, 110880, Note_on_c, 5, 76, 87
7, 110960, Note_off_c, 5, 76, 64
7, 111120, Note_on_c, 5, 74, 89
7, 111200, Note_off_c, 5, 74, 64
7, 111360, Note_on_c, 5, 73, 92
7, 111440, Note_off_c, 5, 73, 64
7, 111600, Note_on_c, 5, 76, 92
7, 111680, Note_off_c, 5, 76, 64
7, 111840, Note_on_c, 5, 81, 92
7, 112480, Note_off_c, 5, 81, 64
7, 112560, Note_on_c, 5, 79, 92
7, 112800, Note_off_c, 5, 79, 64
7, 112800, Note_on_c, 5, 78, 92
7, 113040, Note_off_c, 5, 78, 64
7, 113040, Note_on_c, 5, 77, 92
7, 113280, Note_off_c, 5, 77, 64
7, 113280, Note_on_c, 5, 77, 92
7, 113400, Note_off_c, 5, 77, 64
7, 113400, Note_on_c, 5, 78, 92
7, 114160, Note_off_c, 5, 78, 64
7, 114240, Note_on_c, 5, 77, 92
7, 114360, Note_off_c, 5, 77, 64
7, 114360, Note_on_c, 5, 78, 92
7, 114715, Note_off_c, 5, 78, 64
7, 114720, Note_on_c, 5, 77, 92
7, 114840, Note_off_c, 5, 77, 64
7, 114840, Note_on_c, 5, 78, 92
7, 115195, Note_off_c, 5, 78, 64
7, 115200, Note_on_c, 5, 58, 92
7, 117120, Note_off_c, 5, 58, 64
7, 117120, Note_on_c, 5, 59, 92
7, 117960, Note_off_c, 5, 59, 64
7, 118080, Note_on_c, 5, 78, 69
7, 118500, Note_off_c, 5, 78, 64
7, 118560, Note_on_c, 5, 80, 58
7, 118980, Note_off_c, 5, 80, 64
7, 119040, Note_on_c, 5, 81, 45
7, 120115, Note_off_c, 5, 81, 64
7, 120120, Note_on_c, 5, 80, 53
7, 120200, Note_off_c, 5, 80, 64
7, 120240, Note_on_c, 5, 78, 54
7, 120320, Note_off_c, 5, 78, 64
7, 120360, Note_on_c, 5, 76, 55
7, 120440, Note_off_c, 5, 76, 64
7, 120480, Note_on_c, 5, 74, 56
7, 120560, Note_off_c, 5, 74, 64
7, 120600, Note_on_c, 5, 73, 57
7, 120680, Note_off_c, 5, 73, 64
7, 120720, Note_on_c, 5, 71, 58
7, 120800, Note_off_c, 5, 71, 64
7, 120840, Note_on_c, 5, 69, 59
7, 120920, Note_off_c, 5, 69, 64
7, 120960, Note_on_c, 5, 81, 60
7, 122035, Note_off_c, 5, 81, 64
7, 122040, Note_on_c, 5, 80, 61
7, 122120, Note_off_c, 5, 80, 64
7, 122160, Note_on_c, 5, 78, 63
7, 122240, Note_off_c, 5, 78, 64
7, 122280, Note_on_c, 5, 76, 65
7, 122360, Note_off_c, 5, 76, 64
7, 122400, Note_on_c, 5, 74, 67
7, 122480, Note_off_c, 5, 74, 64
7, 122520, Note_on_c, 5, 73, 69
7, 122600, Note_off_c, 5, 73, 64
7, 122640, Note_on_c, 5, 71, 71
7, 122720, Note_off_c, 5, 71, 64
7, 122760, Note_on_c, 5, 69, 73
7, 122840, Note_off_c, 5, 69, 64
7, 122880, Note_on_c, 5, 81, 75
7, 123955, Note_off_c, 5, 81, 64
7, 123960, Note_on_c, 5, 80, 77
7, 124040, Note_off_c, 5, 80, 64
7, 124080, Note_on_c, 5, 78, 79
7, 124160, Note_off_c, 5, 78, 64
7, 124200, Note_on_c, 5, 76, 81
7, 124280, Note_off_c, 5, 76, 64
7, 124320, Note_on_c, 5, 74, 83
7, 124400, Note_off_c, 5, 74, 64
7, 124440, Note_on_c, 5, 73, 85
7, 124520, Note_off_c, 5, 73, 64
7, 124560, Note_on_c, 5, 71, 87
7, 124640, Note_off_c, 5, 71, 64
7, 124680, Note_on_c, 5, 69, 89
7, 124760, Note_off_c, 5, 69, 64
7, 124800, Note_on_c, 5, 81, 92
7, 124880, Note_off_c, 5, 81, 64
7, 125040, Note_on_c, 5, 80, 92
7, 125120, Note_off_c, 5, 80, 64
7, 125160, Note_on_c, 5, 78, 92
7, 125240, Note_off_c, 5, 78, 64
7, 125280, Note_on_c, 5, 76, 92
7, 125360, Note_off_c, 5, 76, 64
7, 125400, Note_on_c, 5, 74, 92
7, 125480, Note_off_c, 5, 74, 64
7, 125520, Note_on_c, 5, 73, 92
7, 125600, Note_off_c, 5, 73, 64
7, 125640, Note_on_c, 5, 71, 92
7, 125720, Note_off_c, 5, 71, 64
7, 125760, Note_on_c, 5, 69, 92
7, 125840, Note_off_c, 5, 69, 64
7, 125880, Note_on_c, 5, 68, 92
7, 125960, Note_off_c, 5, 68, 64
7, 126000, Note_on_c, 5, 66, 92
7, 126080, Note_off_c, 5, 66, 64
7, 126120, Note_on_c, 5, 64, 92
7, 126200, Note_off_c, 5, 64, 64
7, 126240, Note_on_c, 5, 62, 92
7, 126320, Note_off_c, 5, 62, 64
7, 126360, Note_on_c, 5, 61, 92
7, 126440, Note_off_c, 5, 61, 64
7, 126480, Note_on_c, 5, 59, 92
7, 126560, Note_off_c, 5, 59, 64
7, 126600, Note_on_c, 5, 57, 92
7, 126680, Note_off_c, 5, 57, 64
7, 126720, Note_on_c, 5, 55, 92
7, 127200, Note_off_c, 5, 55, 64
7, 127200, Note_on_c, 5, 67, 92
7, 127680, Note_off_c, 5, 67, 64
7, 127680, Note_on_c, 5, 66, 92
7, 128160, Note_off_c, 5, 66, 64
7, 128160, Note_on_c, 5, 65, 92
7, 128560, Note_off_c, 5, 65, 64
7, 128640, Note_on_c, 5, 66, 92
7, 129040, Note_off_c, 5, 66, 64
7, 129120, Note_on_c, 5, 81, 92
7, 129960, Note_off_c, 5, 81, 64
7, 130080, Note_on_c, 5, 80, 92
7, 130200, Note_off_c, 5, 80, 64
7, 130200, Note_on_c, 5, 78, 92
7, 130315, Note_off_c, 5, 78, 64
7, 130320, Note_on_c, 5, 76, 92
7, 130400, Note_off_c, 5, 76, 64
7, 130440, Note_on_c, 5, 74, 92
7, 130520, Note_off_c, 5, 74, 64
7, 130560, Note_on_c, 5, 73, 92
7, 130640, Note_off_c, 5, 73, 64
7, 130800, Note_on_c, 5, 76, 92
7, 130880, Note_off_c, 5, 76, 64
7, 131040, Note_on_c, 5, 74, 92
7, 131160, Note_off_c, 5, 74, 64
7, 131160, Note_on_c, 5, 73, 92
7, 131275, Note_off_c, 5, 73, 64
7, 131280, Note_on_c, 5, 71, 92
7, 131360, Note_off_c, 5, 71, 64
7, 131400, Note_on_c, 5, 69, 92
7, 131480, Note_off_c, 5, 69, 64
7, 131520, Note_on_c, 5, 71, 92
7, 131580, Note_off_c, 5, 71, 64
7, 131580, Note_on_c, 5, 73, 92
7, 131640, Note_off_c, 5, 73, 64
7, 131640, Note_on_c, 5, 71, 92
7, 131700, Note_off_c, 5, 71, 64
7, 131700, Note_on_c, 5, 73, 92
7, 131760, Note_off_c, 5, 73, 64
7, 131760, Note_on_c, 5, 71, 92
7, 131820, Note_off_c, 5, 71, 64
7, 131820, Note_on_c, 5, 73, 92
7, 131880, Note_off_c, 5, 73, 64
7, 131880, Note_on_c, 5, 71, 92
7, 131940, Note_off_c, 5, 71, 64
7, 131940, Note_on_c, 5, 73, 92
7, 132000, Note_off_c, 5, 73, 64
7, 132000, Note_on_c, 5, 71, 92
7, 132060, Note_off_c, 5, 71, 64
7, 132060, Note_on_c, 5, 73, 92
7, 132120, Note_off_c, 5, 73, 64
7, 132120, Note_on_c, 5, 71, 92
7, 132180, Note_off_c, 5, 71, 64
7, 132180, Note_on_c, 5, 73, 92
7, 132240, Note_off_c, 5, 73, 64
7, 132240, Note_on_c, 5, 71, 92
7, 132300, Note_off_c, 5, 71, 64
7, 132300, Note_on_c, 5, 73, 92
7, 132360, Note_off_c, 5, 73, 64
7, 132360, Note_on_c, 5, 71, 92
7, 132420, Note_off_c, 5, 71, 64
7, 132420, Note_on_c, 5, 73, 92
7, 132480, Note_off_c, 5, 73, 64
7, 132480, Note_on_c, 5, 69, 92
7, 132560, Note_off_c, 5, 69, 64
7, 132720, Note_on_c, 5, 76, 90
7, 132840, Note_off_c, 5, 76, 64
7, 132840, Note_on_c, 5, 79, 89
7, 132960, Note_off_c, 5, 79, 64
7, 132960, Note_on_c, 5, 78, 88
7, 133080, Note_off_c, 5, 78, 64
7, 133080, Note_on_c, 5, 81, 87
7, 133200, Note_off_c, 5, 81, 64
7, 133200, Note_on_c, 5, 80, 86
7, 133320, Note_off_c, 5, 80, 64
7, 133320, Note_on_c, 5, 83, 85
7, 133440, Note_off_c, 5, 83, 64
7, 133440, Note_on_c, 5, 81, 83
7, 133840, Note_off_c, 5, 81, 64
7, 134400, Note_on_c, 5, 69, 75
7, 134480, Note_off_c, 5, 69, 64
7, 134640, Note_on_c, 5, 76, 74
7, 134760, Note_off_c, 5, 76, 64
7, 134760, Note_on_c, 5, 79, 73
7, 134880, Note_off_c, 5, 79, 64
7, 134880, Note_on_c, 5, 78, 72
7, 135000, Note_off_c, 5, 78, 64
7, 135000, Note_on_c, 5, 81, 71
7, 135120, Note_off_c, 5, 81, 64
7, 135120, Note_on_c, 5, 80, 70
7, 135240, Note_off_c, 5, 80, 64
7, 135240, Note_on_c, 5, 83, 69
7, 135360, Note_off_c, 5, 83, 64
7, 135360, Note_on_c, 5, 81, 68
7, 135760, Note_off_c, 5, 81, 64
7, 136320, Note_on_c, 5, 69, 60
7, 136400, Note_off_c, 5, 69, 64
7, 136560, Note_on_c, 5, 81, 60
7, 136680, Note_off_c, 5, 81, 64
7, 136680, Note_on_c, 5, 83, 58
7, 136800, Note_off_c, 5, 83, 64
7, 136800, Note_on_c, 5, 81, 56
7, 136920, Note_off_c, 5, 81, 64
7, 136920, Note_on_c, 5, 83, 54
7, 137040, Note_off_c, 5, 83, 64
7, 137040, Note_on_c, 5, 81, 51
7, 137160, Note_off_c, 5, 81, 64
7, 137160, Note_on_c, 5, 83, 48
7, 137280, Note_off_c, 5, 83, 64
7, 137280, Note_on_c, 5, 81, 45
7, 137680, Note_off_c, 5, 81, 64
7, 138240, Note_on_c, 5, 81, 92
7, 140040, Note_off_c, 5, 81, 64
7, 140160, Note_on_c, 5, 83, 92
7, 140400, Note_off_c, 5, 83, 64
7, 140400, Note_on_c, 5, 81, 92
7, 141040, Note_off_c, 5, 81, 64
7, 141120, Note_on_c, 5, 79, 92
7, 141360, Note_off_c, 5, 79, 64
7, 141360, Note_on_c, 5, 78, 92
7, 141760, Note_off_c, 5, 78, 64
7, 141840, Note_on_c, 5, 76, 92
7, 141920, Note_off_c, 5, 76, 64
7, 142080, Note_on_c, 5, 75, 92
7, 142200, Note_off_c, 5, 75, 64
7, 142200, Note_on_c, 5, 76, 92
7, 142320, Note_off_c, 5, 76, 64
7, 142320, Note_on_c, 5, 78, 92
7, 142440, Note_off_c, 5, 78, 64
7, 142440, Note_on_c, 5, 76, 92
7, 142560, Note_off_c, 5, 76, 64
7, 142560, Note_on_c, 5, 75, 92
7, 142680, Note_off_c, 5, 75, 64
7, 142680, Note_on_c, 5, 76, 92
7, 142800, Note_off_c, 5, 76, 64
7, 142800, Note_on_c, 5, 78, 92
7, 142920, Note_off_c, 5, 78, 64
7, 142920, Note_on_c, 5, 76, 92
7, 143040, Note_off_c, 5, 76, 64
7, 143040, Note_on_c, 5, 75, 92
7, 143160, Note_off_c, 5, 75, 64
7, 143160, Note_on_c, 5, 76, 92
7, 143280, Note_off_c, 5, 76, 64
7, 143280, Note_on_c, 5, 78, 92
7, 143400, Note_off_c, 5, 78, 64
7, 143400, Note_on_c, 5, 76, 92
7, 143520, Note_off_c, 5, 76, 64
7, 143520, Note_on_c, 5, 75, 92
7, 143640, Note_off_c, 5, 75, 64
7, 143640, Note_on_c, 5, 76, 92
7, 143760, Note_off_c, 5, 76, 64
7, 143760, Note_on_c, 5, 78, 92
7, 143880, Note_off_c, 5, 78, 64
7, 143880, Note_on_c, 5, 75, 92
7, 144000, Note_off_c, 5, 75, 64
7, 144000, Note_on_c, 5, 76, 92
7, 144595, Note_off_c, 5, 76, 64
7, 145200, Note_on_c, 5, 83, 92
7, 145440, Note_off_c, 5, 83, 64
7, 145440, Note_on_c, 5, 79, 92
7, 145680, Note_off_c, 5, 79, 64
7, 145680, Note_on_c, 5, 76, 92
7, 145915, Note_off_c, 5, 76, 64
7, 145920, Note_on_c, 5, 78, 92
7, 146040, Note_off_c, 5, 78, 64
7, 146040, Note_on_c, 5, 79, 92
7, 146160, Note_off_c, 5, 79, 64
7, 146160, Note_on_c, 5, 81, 92
7, 146280, Note_off_c, 5, 81, 64
7, 146280, Note_on_c, 5, 79, 92
7, 146400, Note_off_c, 5, 79, 64
7, 146400, Note_on_c, 5, 78, 92
7, 146520, Note_off_c, 5, 78, 64
7, 146520, Note_on_c, 5, 79, 92
7, 146640, Note_off_c, 5, 79, 64
7, 146640, Note_on_c, 5, 81, 92
7, 146760, Note_off_c, 5, 81, 64
7, 146760, Note_on_c, 5, 79, 92
7, 146880, Note_off_c, 5, 79, 64
7, 146880, Note_on_c, 5, 78, 92
7, 147000, Note_off_c, 5, 78, 64
7, 147000, Note_on_c, 5, 79, 92
7, 147120, Note_off_c, 5, 79, 64
7, 147120, Note_on_c, 5, 81, 92
7, 147240, Note_off_c, 5, 81, 64
7, 147240, Note_on_c, 5, 79, 92
7, 147360, Note_off_c, 5, 79, 64
7, 147360, Note_on_c, 5, 78, 92
7, 147480, Note_off_c, 5, 78, 64
7, 147480, Note_on_c, 5, 79, 92
7, 147600, Note_off_c, 5, 79, 64
7, 147600, Note_on_c, 5, 81, 92
7, 147720, Note_off_c, 5, 81, 64
7, 147720, Note_on_c, 5, 78, 92
7, 147840, Note_off_c, 5, 78, 64
7, 147840, Note_on_c, 5, 79, 92
7, 148240, Note_off_c, 5, 79, 64
7, 149760, Note_on_c, 5, 79, 92
7, 151560, Note_off_c, 5, 79, 64
7, 151680, Note_on_c, 5, 78, 92
7, 151920, Note_off_c, 5, 78, 64
7, 151920, Note_on_c, 5, 76, 92
7, 152560, Note_off_c, 5, 76, 64
7, 152640, Note_on_c, 5, 74, 92
7, 152880, Note_off_c, 5, 74, 64
7, 152880, Note_on_c, 5, 73, 92
7, 153280, Note_off_c, 5, 73, 64
7, 153360, Note_on_c, 5, 71, 92
7, 153440, Note_off_c, 5, 71, 64
7, 153600, Note_on_c, 5, 70, 92
7, 153720, Note_off_c, 5, 70, 64
7, 153720, Note_on_c, 5, 71, 92
7, 153840, Note_off_c, 5, 71, 64
7, 153840, Note_on_c, 5, 73, 92
7, 153960, Note_off_c, 5, 73, 64
7, 153960, Note_on_c, 5, 71, 92
7, 154080, Note_off_c, 5, 71, 64
7, 154080, Note_on_c, 5, 70, 92
7, 154200, Note_off_c, 5, 70, 64
7, 154200, Note_on_c, 5, 71, 92
7, 154320, Note_off_c, 5, 71, 64
7, 154320, Note_on_c, 5, 73, 92
7, 154440, Note_off_c, 5, 73, 64
7, 154440, Note_on_c, 5, 71, 92
7, 154560, Note_off_c, 5, 71, 64
7, 154560, Note_on_c, 5, 70, 92
7, 154680, Note_off_c, 5, 70, 64
7, 154680, Note_on_c, 5, 71, 92
7, 154800, Note_off_c, 5, 71, 64
7, 154800, Note_on_c, 5, 73, 92
7, 154920, Note_off_c, 5, 73, 64
7, 154920, Note_on_c, 5, 71, 92
7, 155040, Note_off_c, 5, 71, 64
7, 155040, Note_on_c, 5, 70, 92
7, 155160, Note_off_c, 5, 70, 64
7, 155160, Note_on_c, 5, 71, 92
7, 155280, Note_off_c, 5, 71, 64
7, 155280, Note_on_c, 5, 73, 92
7, 155400, Note_off_c, 5, 73, 64
7, 155400, Note_on_c, 5, 70, 92
7, 155520, Note_off_c, 5, 70, 64
7, 155520, Note_on_c, 5, 71, 92
7, 156115, Note_off_c, 5, 71, 64
7, 156720, Note_on_c, 5, 78, 92
7, 156960, Note_off_c, 5, 78, 64
7, 156960, Note_on_c, 5, 74, 92
7, 157200, Note_off_c, 5, 74, 64
7, 157200, Note_on_c, 5, 71, 92
7, 157435, Note_off_c, 5, 71, 64
7, 157440, Note_on_c, 5, 73, 92
7, 157560, Note_off_c, 5, 73, 64
7, 157560, Note_on_c, 5, 74, 92
7, 157680, Note_off_c, 5, 74, 64
7, 157680, Note_on_c, 5, 76, 92
7, 157800, Note_off_c, 5, 76, 64
7, 157800, Note_on_c, 5, 74, 92
7, 157920, Note_off_c, 5, 74, 64
7, 157920, Note_on_c, 5, 73, 92
7, 158040, Note_off_c, 5, 73, 64
7, 158040, Note_on_c, 5, 74, 92
7, 158160, Note_off_c, 5, 74, 64
7, 158160, Note_on_c, 5, 76, 92
7, 158280, Note_off_c, 5, 76, 64
7, 158280, Note_on_c, 5, 74, 92
7, 158400, Note_off_c, 5, 74, 64
7, 158400, Note_on_c, 5, 73, 92
7, 158520, Note_off_c, 5, 73, 64
7, 158520, Note_on_c, 5, 74, 92
7, 158640, Note_off_c, 5, 74, 64
7, 158640, Note_on_c, 5, 76, 92
7, 158760, Note_off_c, 5, 76, 64
7, 158760, Note_on_c, 5, 74, 92
7, 158880, Note_off_c, 5, 74, 64
7, 158880, Note_on_c, 5, 73, 92
7, 159000, Note_off_c, 5, 73, 64
7, 159000, Note_on_c, 5, 74, 92
7, 159120, Note_off_c, 5, 74, 64
7, 159120, Note_on_c, 5, 76, 92
7, 159240, Note_off_c, 5, 76, 64
7, 159240, Note_on_c, 5, 73, 92
7, 159360, Note_off_c, 5, 73, 64
7, 159360, Note_on_c, 5, 74, 92
7, 159760, Note_off_c, 5, 74, 64
7, 160320, Note_on_c, 5, 64, 92
7, 160400, Note_off_c, 5, 64, 64
7, 160440, Note_on_c, 5, 66, 92
7, 160520, Note_off_c, 5, 66, 64
7, 160560, Note_on_c, 5, 68, 92
7, 160640, Note_off_c, 5, 68, 64
7, 160680, Note_on_c, 5, 69, 92
7, 160760, Note_off_c, 5, 69, 64
7, 160800, Note_on_c, 5, 71, 92
7, 160880, Note_off_c, 5, 71, 64
7, 160920, Note_on_c, 5, 72, 92
7, 161000, Note_off_c, 5, 72, 64
7, 161040, Note_on_c, 5, 74, 92
7, 161120, Note_off_c, 5, 74, 64
7, 161160, Note_on_c, 5, 71, 92
7, 161240, Note_off_c, 5, 71, 64
7, 161280, Note_on_c, 5, 72, 92
7, 161680, Note_off_c, 5, 72, 64
7, 162240, Note_on_c, 5, 62, 92
7, 162320, Note_off_c, 5, 62, 64
7, 162360, Note_on_c, 5, 64, 92
7, 162440, Note_off_c, 5, 64, 64
7, 162480, Note_on_c, 5, 66, 92
7, 162560, Note_off_c, 5, 66, 64
7, 162600, Note_on_c, 5, 67, 92
7, 162680, Note_off_c, 5, 67, 64
7, 162720, Note_on_c, 5, 69, 92
7, 162800, Note_off_c, 5, 69, 64
7, 162840, Note_on_c, 5, 71, 92
7, 162920, Note_off_c, 5, 71, 64
7, 162960, Note_on_c, 5, 72, 92
7, 163040, Note_off_c, 5, 72, 64
7, 163080, Note_on_c, 5, 69, 92
7, 163160, Note_off_c, 5, 69, 64
7, 163200, Note_on_c, 5, 71, 92
7, 163600, Note_off_c, 5, 71, 64
7, 163680, Note_on_c, 5, 83, 92
7, 164320, Note_off_c, 5, 83, 64
7, 164400, Note_on_c, 5, 81, 92
7, 164520, Note_off_c, 5, 81, 64
7, 164520, Note_on_c, 5, 79, 92
7, 164635, Note_off_c, 5, 79, 64
7, 164640, Note_on_c, 5, 78, 92
7, 164760, Note_off_c, 5, 78, 64
7, 164760, Note_on_c, 5, 76, 92
7, 164875, Note_off_c, 5, 76, 64
7, 164880, Note_on_c, 5, 76, 92
7, 165000, Note_off_c, 5, 76, 64
7, 165000, Note_on_c, 5, 74, 92
7, 165115, Note_off_c, 5, 74, 64
7, 165120, Note_on_c, 5, 73, 92
7, 165520, Note_off_c, 5, 73, 64
7, 165660, Note_on_c, 5, 81, 92
7, 165895, Note_off_c, 5, 81, 64
7, 166020, Note_on_c, 5, 81, 92
7, 166135, Note_off_c, 5, 81, 64
7, 166140, Note_on_c, 5, 81, 92
7, 166540, Note_off_c, 5, 81, 64
7, 167340, Note_on_c, 5, 81, 45
7, 169260, Note_off_c, 5, 81, 64
7, 169260, Note_on_c, 5, 82, 45
7, 171180, Note_off_c, 5, 82, 64
7, 171180, Note_on_c, 5, 73, 45
7, 173100, Note_off_c, 5, 73, 64
7, 173100, Note_on_c, 5, 74, 45
7, 173500, Note_off_c, 5, 74, 64
7, 175020, Note_on_c, 5, 74, 45
7, 176340, Note_off_c, 5, 74, 64
7, 176460, Note_on_c, 5, 81, 45
7, 176700, Note_off_c, 5, 81, 64
7, 176700, Note_on_c, 5, 77, 45
7, 176940, Note_off_c, 5, 77, 64
7, 176940, Note_on_c, 5, 76, 45
7, 177340, Note_off_c, 5, 76, 64
7, 177420, Note_on_c, 5, 76, 45
7, 177820, Note_off_c, 5, 76, 64
7, 178620, Note_on_c, 5, 82, 45
7, 178855, Note_off_c, 5, 82, 64
7, 178860, Note_on_c, 5, 82, 45
7, 180300, Note_off_c, 5, 82, 64
7, 180300, Note_on_c, 5, 74, 45
7, 180780, Note_off_c, 5, 74, 64
7, 180780, Note_on_c, 5, 73, 45
7, 181180, Note_off_c, 5, 73, 64
7, 181500, Note_on_c, 5, 81, 45
7, 181580, Note_off_c, 5, 81, 64
7, 181740, Note_on_c, 5, 79, 45
7, 181860, Note_off_c, 5, 79, 64
7, 181860, Note_on_c, 5, 77, 45
7, 181920, Note_off_c, 5, 77, 64
7, 181920, Note_on_c, 5, 79, 45
7, 181980, Note_off_c, 5, 79, 64
7, 181980, Note_on_c, 5, 77, 45
7, 182040, Note_off_c, 5, 77, 64
7, 182040, Note_on_c, 5, 79, 45
7, 182100, Note_off_c, 5, 79, 64
7, 182100, Note_on_c, 5, 77, 45
7, 182160, Note_off_c, 5, 77, 64
7, 182160, Note_on_c, 5, 79, 45
7, 182220, Note_off_c, 5, 79, 64
7, 182220, Note_on_c, 5, 77, 45
7, 182280, Note_off_c, 5, 77, 64
7, 182280, Note_on_c, 5, 79, 45
7, 182340, Note_off_c, 5, 79, 64
7, 182340, Note_on_c, 5, 77, 45
7, 182400, Note_off_c, 5, 77, 64
7, 182400, Note_on_c, 5, 79, 45
7, 182460, Note_off_c, 5, 79, 64
7, 182460, Note_on_c, 5, 77, 45
7, 182520, Note_off_c, 5, 77, 64
7, 182520, Note_on_c, 5, 79, 45
7, 182580, Note_off_c, 5, 79, 64
7, 182580, Note_on_c, 5, 76, 45
7, 182640, Note_off_c, 5, 76, 64
7, 182640, Note_on_c, 5, 77, 45
7, 182700, Note_off_c, 5, 77, 64
7, 182700, Note_on_c, 5, 76, 45
7, 183100, Note_off_c, 5, 76, 64
7, 183420, Note_on_c, 5, 81, 45
7, 183500, Note_off_c, 5, 81, 64
7, 183660, Note_on_c, 5, 79, 45
7, 183780, Note_off_c, 5, 79, 64
7, 183780, Note_on_c, 5, 77, 45
7, 183840, Note_off_c, 5, 77, 64
7, 183840, Note_on_c, 5, 79, 45
7, 183900, Note_off_c, 5, 79, 64
7, 183900, Note_on_c, 5, 77, 45
7, 183960, Note_off_c, 5, 77, 64
7, 183960, Note_on_c, 5, 79, 45
7, 184020, Note_off_c, 5, 79, 64
7, 184020, Note_on_c, 5, 77, 45
7, 184080, Note_off_c, 5, 77, 64
7, 184080, Note_on_c, 5, 79, 45
7, 184140, Note_off_c, 5, 79, 64
7, 184140, Note_on_c, 5, 77, 45
7, 184200, Note_off_c, 5, 77, 64
7, 184200, Note_on_c, 5, 79, 45
7, 184260, Note_off_c, 5, 79, 64
7, 184260, Note_on_c, 5, 77, 45
7, 184320, Note_off_c, 5, 77, 64
7, 184320, Note_on_c, 5, 79, 45
7, 184380, Note_off_c, 5, 79, 64
7, 184380, Note_on_c, 5, 77, 45
7, 184440, Note_off_c, 5, 77, 64
7, 184440, Note_on_c, 5, 79, 45
7, 184500, Note_off_c, 5, 79, 64
7, 184500, Note_on_c, 5, 76, 45
7, 184560, Note_off_c, 5, 76, 64
7, 184560, Note_on_c, 5, 77, 45
7, 184620, Note_off_c, 5, 77, 64
7, 184620, Note_on_c, 5, 76, 45
7, 185020, Note_off_c, 5, 76, 64
7, 185340, Note_on_c, 5, 81, 45
7, 185420, Note_off_c, 5, 81, 64
7, 185580, Note_on_c, 5, 81, 45
7, 185660, Note_off_c, 5, 81, 64
7, 185820, Note_on_c, 5, 81, 45
7, 185900, Note_off_c, 5, 81, 64
7, 186060, Note_on_c, 5, 81, 45
7, 186140, Note_off_c, 5, 81, 64
7, 186300, Note_on_c, 5, 81, 45
7, 186380, Note_off_c, 5, 81, 64
7, 186540, Note_on_c, 5, 80, 45
7, 187020, Note_off_c, 5, 80, 64
7, 187020, Note_on_c, 5, 77, 45
7, 187500, Note_off_c, 5, 77, 64
7, 187500, Note_on_c, 5, 76, 45
7, 187980, Note_off_c, 5, 76, 64
7, 187980, Note_on_c, 5, 74, 45
7, 188460, Note_off_c, 5, 74, 64
7, 188460, Note_on_c, 5, 73, 45
7, 188860, Note_off_c, 5, 73, 64
7, 192300, Note_on_c, 5, 81, 92
7, 194100, Note_off_c, 5, 81, 64
7, 194220, Note_on_c, 5, 79, 92
7, 194460, Note_off_c, 5, 79, 64
7, 194460, Note_on_c, 5, 78, 92
7, 195100, Note_off_c, 5, 78, 64
7, 195180, Note_on_c, 5, 76, 92
7, 195420, Note_off_c, 5, 76, 64
7, 195420, Note_on_c, 5, 74, 92
7, 196060, Note_off_c, 5, 74, 64
7, 196140, Note_on_c, 5, 73, 92
7, 196260, Note_off_c, 5, 73, 64
7, 196260, Note_on_c, 5, 74, 92
7, 196380, Note_off_c, 5, 74, 64
7, 196380, Note_on_c, 5, 76, 92
7, 196500, Note_off_c, 5, 76, 64
7, 196500, Note_on_c, 5, 74, 92
7, 196620, Note_off_c, 5, 74, 64
7, 196620, Note_on_c, 5, 73, 92
7, 196740, Note_off_c, 5, 73, 64
7, 196740, Note_on_c, 5, 74, 92
7, 196860, Note_off_c, 5, 74, 64
7, 196860, Note_on_c, 5, 76, 92
7, 196980, Note_off_c, 5, 76, 64
7, 196980, Note_on_c, 5, 74, 92
7, 197100, Note_off_c, 5, 74, 64
7, 197100, Note_on_c, 5, 73, 92
7, 197220, Note_off_c, 5, 73, 64
7, 197220, Note_on_c, 5, 74, 92
7, 197340, Note_off_c, 5, 74, 64
7, 197340, Note_on_c, 5, 76, 92
7, 197460, Note_off_c, 5, 76, 64
7, 197460, Note_on_c, 5, 74, 92
7, 197580, Note_off_c, 5, 74, 64
7, 197580, Note_on_c, 5, 73, 92
7, 197700, Note_off_c, 5, 73, 64
7, 197700, Note_on_c, 5, 74, 92
7, 197820, Note_off_c, 5, 74, 64
7, 197820, Note_on_c, 5, 76, 92
7, 197940, Note_off_c, 5, 76, 64
7, 197940, Note_on_c, 5, 73, 92
7, 198060, Note_off_c, 5, 73, 64
7, 198060, Note_on_c, 5, 74, 92
7, 198655, Note_off_c, 5, 74, 64
7, 199260, Note_on_c, 5, 81, 92
7, 199500, Note_off_c, 5, 81, 64
7, 199500, Note_on_c, 5, 78, 92
7, 199740, Note_off_c, 5, 78, 64
7, 199740, Note_on_c, 5, 74, 92
7, 199975, Note_off_c, 5, 74, 64
7, 199980, Note_on_c, 5, 76, 92
7, 200100, Note_off_c, 5, 76, 64
7, 200100, Note_on_c, 5, 78, 92
7, 200220, Note_off_c, 5, 78, 64
7, 200220, Note_on_c, 5, 79, 92
7, 200340, Note_off_c, 5, 79, 64
7, 200340, Note_on_c, 5, 78, 92
7, 200460, Note_off_c, 5, 78, 64
7, 200460, Note_on_c, 5, 76, 92
7, 200580, Note_off_c, 5, 76, 64
7, 200580, Note_on_c, 5, 78, 92
7, 200700, Note_off_c, 5, 78, 64
7, 200700, Note_on_c, 5, 79, 92
7, 200820, Note_off_c, 5, 79, 64
7, 200820, Note_on_c, 5, 78, 92
7, 200940, Note_off_c, 5, 78, 64
7, 200940, Note_on_c, 5, 76, 92
7, 201060, Note_off_c, 5, 76, 64
7, 201060, Note_on_c, 5, 78, 92
7, 201180, Note_off_c, 5, 78, 64
7, 201180, Note_on_c, 5, 79, 92
7, 201300, Note_off_c, 5, 79, 64
7, 201300, Note_on_c, 5, 78, 92
7, 201420, Note_off_c, 5, 78, 64
7, 201420, Note_on_c, 5, 76, 92
7, 201540, Note_off_c, 5, 76, 64
7, 201540, Note_on_c, 5, 78, 92
7, 201660, Note_off_c, 5, 78, 64
7, 201660, Note_on_c, 5, 79, 92
7, 201780, Note_off_c, 5, 79, 64
7, 201780, Note_on_c, 5, 76, 92
7, 201900, Note_off_c, 5, 76, 64
7, 201900, Note_on_c, 5, 78, 92
7, 202135, Note_off_c, 5, 78, 64
7, 202380, Note_on_c, 5, 74, 92
7, 203095, Note_off_c, 5, 74, 64
7, 203100, Note_on_c, 5, 76, 92
7, 203180, Note_off_c, 5, 76, 64
7, 203220, Note_on_c, 5, 78, 92
7, 203300, Note_off_c, 5, 78, 64
7, 203340, Note_on_c, 5, 79, 92
7, 203420, Note_off_c, 5, 79, 64
7, 203460, Note_on_c, 5, 81, 92
7, 203540, Note_off_c, 5, 81, 64
7, 203580, Note_on_c, 5, 83, 92
7, 203660, Note_off_c, 5, 83, 64
7, 203700, Note_on_c, 5, 85, 92
7, 203780, Note_off_c, 5, 85, 64
7, 203820, Note_on_c, 5, 86, 92
7, 204660, Note_off_c, 5, 86, 64
7, 204780, Note_on_c, 5, 81, 92
7, 205180, Note_off_c, 5, 81, 64
7, 205260, Note_on_c, 5, 78, 92
7, 205660, Note_off_c, 5, 78, 64
7, 205740, Note_on_c, 5, 78, 92
7, 205860, Note_off_c, 5, 78, 64
7, 205860, Note_on_c, 5, 79, 92
7, 205980, Note_off_c, 5, 79, 64
7, 205980, Note_on_c, 5, 75, 92
7, 206100, Note_off_c, 5, 75, 64
7, 206100, Note_on_c, 5, 76, 92
7, 206215, Note_off_c, 5, 76, 64
7, 206220, Note_on_c, 5, 76, 92
7, 206620, Note_off_c, 5, 76, 64
7, 206940, Note_on_c, 5, 76, 92
7, 207180, Note_off_c, 5, 76, 64
7, 207180, Note_on_c, 5, 79, 92
7, 207420, Note_off_c, 5, 79, 64
7, 207420, Note_on_c, 5, 83, 92
7, 207655, Note_off_c, 5, 83, 64
7, 207660, Note_on_c, 5, 80, 92
7, 207780, Note_off_c, 5, 80, 64
7, 207780, Note_on_c, 5, 81, 92
7, 208540, Note_off_c, 5, 81, 64
7, 208620, Note_on_c, 5, 80, 92
7, 208740, Note_off_c, 5, 80, 64
7, 208740, Note_on_c, 5, 81, 92
7, 209095, Note_off_c, 5, 81, 64
7, 209100, Note_on_c, 5, 80, 92
7, 209220, Note_off_c, 5, 80, 64
7, 209220, Note_on_c, 5, 81, 92
7, 209575, Note_off_c, 5, 81, 64
7, 209580, Note_on_c, 5, 81, 92
7, 209700, Note_off_c, 5, 81, 64
7, 209700, Note_on_c, 5, 79, 92
7, 209815, Note_off_c, 5, 79, 64
7, 210000, Note_on_c, 5, 78, 92
7, 210120, Note_off_c, 5, 78, 64
7, 210120, Note_on_c, 5, 79, 92
7, 210655, Note_off_c, 5, 79, 64
7, 210780, Note_on_c, 5, 78, 92
7, 210900, Note_off_c, 5, 78, 64
7, 210900, Note_on_c, 5, 79, 92
7, 211015, Note_off_c, 5, 79, 64
7, 211020, Note_on_c, 5, 81, 92
7, 211100, Note_off_c, 5, 81, 64
7, 211140, Note_on_c, 5, 79, 92
7, 211220, Note_off_c, 5, 79, 64
7, 211260, Note_on_c, 5, 78, 92
7, 211340, Note_off_c, 5, 78, 64
7, 211380, Note_on_c, 5, 76, 92
7, 211460, Note_off_c, 5, 76, 64
7, 211500, Note_on_c, 5, 74, 92
7, 211620, Note_off_c, 5, 74, 64
7, 211620, Note_on_c, 5, 69, 92
7, 211740, Note_off_c, 5, 69, 64
7, 211740, Note_on_c, 5, 66, 92
7, 211820, Note_off_c, 5, 66, 64
7, 211860, Note_on_c, 5, 69, 92
7, 211940, Note_off_c, 5, 69, 64
7, 211980, Note_on_c, 5, 74, 92
7, 212060, Note_off_c, 5, 74, 64
7, 212100, Note_on_c, 5, 69, 92
7, 212180, Note_off_c, 5, 69, 64
7, 212220, Note_on_c, 5, 76, 92
7, 212300, Note_off_c, 5, 76, 64
7, 212340, Note_on_c, 5, 69, 92
7, 212420, Note_off_c, 5, 69, 64
7, 212460, Note_on_c, 5, 78, 92
7, 212540, Note_off_c, 5, 78, 64
7, 212580, Note_on_c, 5, 74, 92
7, 212660, Note_off_c, 5, 74, 64
7, 212700, Note_on_c, 5, 81, 92
7, 212780, Note_off_c, 5, 81, 64
7, 212820, Note_on_c, 5, 78, 92
7, 212900, Note_off_c, 5, 78, 64
7, 212940, Note_on_c, 5, 79, 92
7, 213020, Note_off_c, 5, 79, 64
7, 213060, Note_on_c, 5, 76, 92
7, 213140, Note_off_c, 5, 76, 64
7, 213180, Note_on_c, 5, 74, 92
7, 213260, Note_off_c, 5, 74, 64
7, 213300, Note_on_c, 5, 73, 92
7, 213380, Note_off_c, 5, 73, 64
7, 213420, Note_on_c, 5, 74, 92
7, 213540, Note_off_c, 5, 74, 64
7, 213540, Note_on_c, 5, 69, 92
7, 213660, Note_off_c, 5, 69, 64
7, 213660, Note_on_c, 5, 66, 92
7, 213740, Note_off_c, 5, 66, 64
7, 213780, Note_on_c, 5, 69, 92
7, 213860, Note_off_c, 5, 69, 64
7, 213900, Note_on_c, 5, 74, 92
7, 213980, Note_off_c, 5, 74, 64
7, 214020, Note_on_c, 5, 69, 92
7, 214100, Note_off_c, 5, 69, 64
7, 214140, Note_on_c, 5, 76, 92
7, 214220, Note_off_c, 5, 76, 64
7, 214260, Note_on_c, 5, 69, 92
7, 214340, Note_off_c, 5, 69, 64
7, 214380, Note_on_c, 5, 78, 92
7, 214460, Note_off_c, 5, 78, 64
7, 214500, Note_on_c, 5, 69, 92
7, 214580, Note_off_c, 5, 69, 64
7, 214620, Note_on_c, 5, 78, 92
7, 214700, Note_off_c, 5, 78, 64
7, 214740, Note_on_c, 5, 81, 92
7, 214820, Note_off_c, 5, 81, 64
7, 214860, Note_on_c, 5, 79, 92
7, 214940, Note_off_c, 5, 79, 64
7, 214980, Note_on_c, 5, 76, 92
7, 215060, Note_off_c, 5, 76, 64
7, 215100, Note_on_c, 5, 74, 92
7, 215180, Note_off_c, 5, 74, 64
7, 215220, Note_on_c, 5, 73, 92
7, 215300, Note_off_c, 5, 73, 64
7, 215340, Note_on_c, 5, 74, 92
7, 215740, Note_off_c, 5, 74, 64
7, 219180, Note_on_c, 5, 62, 60
7, 219180, Note_on_c, 5, 78, 60
7, 219180, Note_on_c, 5, 81, 60
7, 220500, Note_off_c, 5, 81, 64
7, 220500, Note_off_c, 5, 78, 64
7, 220500, Note_off_c, 5, 62, 64
7, 220620, Note_on_c, 5, 81, 92
7, 220975, Note_off_c, 5, 81, 64
7, 220980, Note_on_c, 5, 78, 92
7, 221095, Note_off_c, 5, 78, 64
7, 221100, Note_on_c, 5, 72, 92
7, 221500, Note_off_c, 5, 72, 64
7, 221580, Note_on_c, 5, 69, 92
7, 221935, Note_off_c, 5, 69, 64
7, 221940, Note_on_c, 5, 66, 92
7, 222055, Note_off_c, 5, 66, 64
7, 222060, Note_on_c, 5, 62, 92
7, 222295, Note_off_c, 5, 62, 64
7, 222300, Note_on_c, 5, 81, 92
7, 222420, Note_off_c, 5, 81, 64
7, 222420, Note_on_c, 5, 83, 92
7, 222540, Note_off_c, 5, 83, 64
7, 222540, Note_on_c, 5, 84, 92
7, 222620, Note_off_c, 5, 84, 64
7, 222780, Note_on_c, 5, 84, 92
7, 222860, Note_off_c, 5, 84, 64
7, 223020, Note_on_c, 5, 83, 92
7, 223100, Note_off_c, 5, 83, 64
7, 223140, Note_on_c, 5, 81, 92
7, 223220, Note_off_c, 5, 81, 64
7, 223260, Note_on_c, 5, 79, 92
7, 223340, Note_off_c, 5, 79, 64
7, 223380, Note_on_c, 5, 78, 92
7, 223460, Note_off_c, 5, 78, 64
7, 223500, Note_on_c, 5, 79, 92
7, 223580, Note_off_c, 5, 79, 64
7, 223620, Note_on_c, 5, 78, 92
7, 223700, Note_off_c, 5, 78, 64
7, 223740, Note_on_c, 5, 76, 92
7, 223820, Note_off_c, 5, 76, 64
7, 223860, Note_on_c, 5, 74, 92
7, 223940, Note_off_c, 5, 74, 64
7, 223980, Note_on_c, 5, 72, 92
7, 224060, Note_off_c, 5, 72, 64
7, 224100, Note_on_c, 5, 78, 92
7, 224180, Note_off_c, 5, 78, 64
7, 224220, Note_on_c, 5, 81, 92
7, 224300, Note_off_c, 5, 81, 64
7, 224340, Note_on_c, 5, 79, 92
7, 224420, Note_off_c, 5, 79, 64
7, 224460, Note_on_c, 5, 78, 92
7, 224540, Note_off_c, 5, 78, 64
7, 224580, Note_on_c, 5, 76, 92
7, 224660, Note_off_c, 5, 76, 64
7, 224700, Note_on_c, 5, 74, 92
7, 224780, Note_off_c, 5, 74, 64
7, 224820, Note_on_c, 5, 72, 92
7, 224900, Note_off_c, 5, 72, 64
7, 224940, Note_on_c, 5, 71, 92
7, 225020, Note_off_c, 5, 71, 64
7, 225060, Note_on_c, 5, 74, 92
7, 225140, Note_off_c, 5, 74, 64
7, 225180, Note_on_c, 5, 79, 92
7, 225260, Note_off_c, 5, 79, 64
7, 225300, Note_on_c, 5, 78, 92
7, 225380, Note_off_c, 5, 78, 64
7, 225420, Note_on_c, 5, 79, 92
7, 225500, Note_off_c, 5, 79, 64
7, 225540, Note_on_c, 5, 78, 92
7, 225620, Note_off_c, 5, 78, 64
7, 225660, Note_on_c, 5, 76, 92
7, 225740, Note_off_c, 5, 76, 64
7, 225780, Note_on_c, 5, 75, 92
7, 225860, Note_off_c, 5, 75, 64
7, 225900, Note_on_c, 5, 76, 92
7, 225980, Note_off_c, 5, 76, 64
7, 226020, Note_on_c, 5, 79, 92
7, 226100, Note_off_c, 5, 79, 64
7, 226140, Note_on_c, 5, 83, 92
7, 226220, Note_off_c, 5, 83, 64
7, 226260, Note_on_c, 5, 81, 92
7, 226340, Note_off_c, 5, 81, 64
7, 226380, Note_on_c, 5, 79, 92
7, 226460, Note_off_c, 5, 79, 64
7, 226500, Note_on_c, 5, 78, 92
7, 226580, Note_off_c, 5, 78, 64
7, 226620, Note_on_c, 5, 76, 92
7, 226700, Note_off_c, 5, 76, 64
7, 226740, Note_on_c, 5, 74, 92
7, 226820, Note_off_c, 5, 74, 64
7, 226860, Note_on_c, 5, 73, 92
7, 227215, Note_off_c, 5, 73, 64
7, 227340, Note_on_c, 5, 76, 60
7, 229180, Note_off_c, 5, 76, 64
7, 229260, Note_on_c, 5, 81, 60
7, 230815, Note_off_c, 5, 81, 64
7, 230820, Note_on_c, 5, 74, 92
7, 230900, Note_off_c, 5, 74, 64
7, 230940, Note_on_c, 5, 78, 92
7, 231020, Note_off_c, 5, 78, 64
7, 231060, Note_on_c, 5, 81, 92
7, 231140, Note_off_c, 5, 81, 64
7, 231180, Note_on_c, 5, 86, 92
7, 231260, Note_off_c, 5, 86, 64
7, 231300, Note_on_c, 5, 85, 92
7, 231380, Note_off_c, 5, 85, 64
7, 231420, Note_on_c, 5, 83, 92
7, 231500, Note_off_c, 5, 83, 64
7, 231540, Note_on_c, 5, 81, 92
7, 231620, Note_off_c, 5, 81, 64
7, 231660, Note_on_c, 5, 79, 92
7, 231740, Note_off_c, 5, 79, 64
7, 231780, Note_on_c, 5, 78, 92
7, 231860, Note_off_c, 5, 78, 64
7, 231900, Note_on_c, 5, 76, 92
7, 231980, Note_off_c, 5, 76, 64
7, 232020, Note_on_c, 5, 74, 92
7, 232100, Note_off_c, 5, 74, 64
7, 232140, Note_on_c, 5, 73, 92
7, 232220, Note_off_c, 5, 73, 64
7, 232260, Note_on_c, 5, 76, 92
7, 232340, Note_off_c, 5, 76, 64
7, 232380, Note_on_c, 5, 81, 92
7, 232460, Note_off_c, 5, 81, 64
7, 232500, Note_on_c, 5, 79, 92
7, 232580, Note_off_c, 5, 79, 64
7, 232620, Note_on_c, 5, 78, 92
7, 232700, Note_off_c, 5, 78, 64
7, 232740, Note_on_c, 5, 76, 92
7, 232820, Note_off_c, 5, 76, 64
7, 232860, Note_on_c, 5, 74, 92
7, 232940, Note_off_c, 5, 74, 64
7, 232980, Note_on_c, 5, 73, 92
7, 233060, Note_off_c, 5, 73, 64
7, 233100, Note_on_c, 5, 74, 92
7, 233180, Note_off_c, 5, 74, 64
7, 233220, Note_on_c, 5, 69, 92
7, 233300, Note_off_c, 5, 69, 64
7, 233340, Note_on_c, 5, 71, 92
7, 233420, Note_off_c, 5, 71, 64
7, 233460, Note_on_c, 5, 66, 92
7, 233540, Note_off_c, 5, 66, 64
7, 233580, Note_on_c, 5, 67, 92
7, 233660, Note_off_c, 5, 67, 64
7, 233700, Note_on_c, 5, 66, 92
7, 233780, Note_off_c, 5, 66, 64
7, 233820, Note_on_c, 5, 64, 92
7, 233900, Note_off_c, 5, 64, 64
7, 233940, Note_on_c, 5, 62, 92
7, 234020, Note_off_c, 5, 62, 64
7, 234060, Note_on_c, 5, 61, 92
7, 234140, Note_off_c, 5, 61, 64
7, 234180, Note_on_c, 5, 64, 92
7, 234260, Note_off_c, 5, 64, 64
7, 234300, Note_on_c, 5, 69, 92
7, 234380, Note_off_c, 5, 69, 64
7, 234420, Note_on_c, 5, 67, 92
7, 234500, Note_off_c, 5, 67, 64
7, 234540, Note_on_c, 5, 66, 92
7, 234940, Note_off_c, 5, 66, 64
7, 235740, Note_on_c, 5, 74, 92
7, 235820, Note_off_c, 5, 74, 64
7, 235980, Note_on_c, 5, 62, 92
7, 236060, Note_off_c, 5, 62, 64
7, 236220, Note_on_c, 5, 64, 92
7, 236250, Note_off_c, 5, 64, 64
7, 236250, Note_on_c, 5, 66, 92
7, 236280, Note_off_c, 5, 66, 64
7, 236280, Note_on_c, 5, 64, 92
7, 236310, Note_off_c, 5, 64, 64
7, 236310, Note_on_c, 5, 66, 92
7, 236340, Note_off_c, 5, 66, 64
7, 236340, Note_on_c, 5, 64, 92
7, 236370, Note_off_c, 5, 64, 64
7, 236370, Note_on_c, 5, 66, 92
7, 236400, Note_off_c, 5, 66, 64
7, 236400, Note_on_c, 5, 64, 92
7, 236430, Note_off_c, 5, 64, 64
7, 236430, Note_on_c, 5, 66, 92
7, 236460, Note_off_c, 5, 66, 64
7, 236460, Note_on_c, 5, 66, 92
7, 236540, Note_off_c, 5, 66, 64
7, 236700, Note_on_c, 5, 74, 92
7, 237180, Note_off_c, 5, 74, 64
7, 237180, Note_on_c, 5, 73, 92
7, 237415, Note_off_c, 5, 73, 64
7, 237420, Note_on_c, 5, 74, 92
7, 237500, Note_off_c, 5, 74, 64
7, 237660, Note_on_c, 5, 78, 92
7, 237780, Note_off_c, 5, 78, 64
7, 237780, Note_on_c, 5, 74, 92
7, 237900, Note_off_c, 5, 74, 64
7, 237900, Note_on_c, 5, 69, 92
7, 238140, Note_off_c, 5, 69, 64
7, 238140, Note_on_c, 5, 67, 92
7, 238380, Note_off_c, 5, 67, 64
7, 238380, Note_on_c, 5, 66, 92
7, 238780, Note_off_c, 5, 66, 64
7, 238860, Note_on_c, 5, 86, 92
7, 239500, Note_off_c, 5, 86, 64
7, 239580, Note_on_c, 5, 84, 92
7, 239820, Note_off_c, 5, 84, 64
7, 239820, Note_on_c, 5, 83, 92
7, 240060, Note_off_c, 5, 83, 64
7, 240060, Note_on_c, 5, 82, 92
7, 240295, Note_off_c, 5, 82, 64
7, 240300, Note_on_c, 5, 82, 92
7, 240420, Note_off_c, 5, 82, 64
7, 240420, Note_on_c, 5, 83, 92
7, 241180, Note_off_c, 5, 83, 64
7, 241260, Note_on_c, 5, 82, 92
7, 241380, Note_off_c, 5, 82, 64
7, 241380, Note_on_c, 5, 83, 92
7, 241735, Note_off_c, 5, 83, 64
7, 241740, Note_on_c, 5, 82, 92
7, 241860, Note_off_c, 5, 82, 64
7, 241860, Note_on_c, 5, 83, 92
7, 242215, Note_off_c, 5, 83, 64
7, 242220, Note_on_c, 5, 63, 60
7, 244140, Note_off_c, 5, 63, 64
7, 244140, Note_on_c, 5, 64, 45
7, 244980, Note_off_c, 5, 64, 64
7, 245100, Note_on_c, 5, 83, 38
7, 245455, Note_off_c, 5, 83, 64
7, 245580, Note_on_c, 5, 85, 34
7, 245935, Note_off_c, 5, 85, 64
7, 246060, Note_on_c, 5, 86, 30
7, 247135, Note_off_c, 5, 86, 64
7, 247140, Note_on_c, 5, 85, 31
7, 247220, Note_off_c, 5, 85, 64
7, 247260, Note_on_c, 5, 83, 33
7, 247340, Note_off_c, 5, 83, 64
7, 247380, Note_on_c, 5, 81, 35
7, 247460, Note_off_c, 5, 81, 64
7, 247500, Note_on_c, 5, 79, 37
7, 247580, Note_off_c, 5, 79, 64
7, 247620, Note_on_c, 5, 78, 39
7, 247700, Note_off_c, 5, 78, 64
7, 247740, Note_on_c, 5, 76, 41
7, 247820, Note_off_c, 5, 76, 64
7, 247860, Note_on_c, 5, 74, 43
7, 247940, Note_off_c, 5, 74, 64
7, 247980, Note_on_c, 5, 86, 45
7, 249055, Note_off_c, 5, 86, 64
7, 249060, Note_on_c, 5, 85, 46
7, 249140, Note_off_c, 5, 85, 64
7, 249180, Note_on_c, 5, 83, 48
7, 249260, Note_off_c, 5, 83, 64
7, 249300, Note_on_c, 5, 81, 50
7, 249380, Note_off_c, 5, 81, 64
7, 249420, Note_on_c, 5, 79, 52
7, 249500, Note_off_c, 5, 79, 64
7, 249540, Note_on_c, 5, 78, 54
7, 249620, Note_off_c, 5, 78, 64
7, 249660, Note_on_c, 5, 76, 56
7, 249740, Note_off_c, 5, 76, 64
7, 249780, Note_on_c, 5, 74, 58
7, 249860, Note_off_c, 5, 74, 64
7, 249900, Note_on_c, 5, 86, 60
7, 250975, Note_off_c, 5, 86, 64
7, 250980, Note_on_c, 5, 85, 61
7, 251060, Note_off_c, 5, 85, 64
7, 251100, Note_on_c, 5, 83, 63
7, 251180, Note_off_c, 5, 83, 64
7, 251220, Note_on_c, 5, 81, 65
7, 251300, Note_off_c, 5, 81, 64
7, 251340, Note_on_c, 5, 79, 67
7, 251420, Note_off_c, 5, 79, 64
7, 251460, Note_on_c, 5, 78, 69
7, 251540, Note_off_c, 5, 78, 64
7, 251580, Note_on_c, 5, 76, 71
7, 251660, Note_off_c, 5, 76, 64
7, 251700, Note_on_c, 5, 74, 73
7, 251780, Note_off_c, 5, 74, 64
7, 251820, Note_on_c, 5, 86, 75
7, 251935, Note_off_c, 5, 86, 64
7, 252060, Note_on_c, 5, 85, 75
7, 252140, Note_off_c, 5, 85, 64
7, 252180, Note_on_c, 5, 83, 76
7, 252260, Note_off_c, 5, 83, 64
7, 252300, Note_on_c, 5, 81, 77
7, 252380, Note_off_c, 5, 81, 64
7, 252420, Note_on_c, 5, 79, 78
7, 252500, Note_off_c, 5, 79, 64
7, 252540, Note_on_c, 5, 78, 79
7, 252620, Note_off_c, 5, 78, 64
7, 252660, Note_on_c, 5, 76, 80
7, 252740, Note_off_c, 5, 76, 64
7, 252780, Note_on_c, 5, 74, 81
7, 252860, Note_off_c, 5, 74, 64
7, 252900, Note_on_c, 5, 73, 82
7, 252980, Note_off_c, 5, 73, 64
7, 253020, Note_on_c, 5, 71, 83
7, 253100, Note_off_c, 5, 71, 64
7, 253140, Note_on_c, 5, 69, 84
7, 253220, Note_off_c, 5, 69, 64
7, 253260, Note_on_c, 5, 67, 85
7, 253340, Note_off_c, 5, 67, 64
7, 253380, Note_on_c, 5, 66, 86
7, 253460, Note_off_c, 5, 66, 64
7, 253500, Note_on_c, 5, 64, 88
7, 253580, Note_off_c, 5, 64, 64
7, 253620, Note_on_c, 5, 62, 90
7, 253700, Note_off_c, 5, 62, 64
7, 253740, Note_on_c, 5, 60, 92
7, 254700, Note_off_c, 5, 60, 64
7, 254700, Note_on_c, 5, 59, 92
7, 255180, Note_off_c, 5, 59, 64
7, 255180, Note_on_c, 5, 58, 92
7, 255660, Note_off_c, 5, 58, 64
7, 255660, Note_on_c, 5, 59, 92
7, 256015, Note_off_c, 5, 59, 64
7, 256140, Note_on_c, 5, 86, 92
7, 256980, Note_off_c, 5, 86, 64
7, 257100, Note_on_c, 5, 85, 92
7, 257220, Note_off_c, 5, 85, 64
7, 257220, Note_on_c, 5, 83, 92
7, 257335, Note_off_c, 5, 83, 64
7, 257340, Note_on_c, 5, 81, 92
7, 257420, Note_off_c, 5, 81, 64
7, 257460, Note_on_c, 5, 79, 92
7, 257540, Note_off_c, 5, 79, 64
7, 257580, Note_on_c, 5, 78, 92
7, 257660, Note_off_c, 5, 78, 64
7, 257820, Note_on_c, 5, 81, 92
7, 257900, Note_off_c, 5, 81, 64
7, 258060, Note_on_c, 5, 79, 92
7, 258180, Note_off_c, 5, 79, 64
7, 258180, Note_on_c, 5, 78, 92
7, 258300, Note_off_c, 5, 78, 64
7, 258300, Note_on_c, 5, 76, 92
7, 258380, Note_off_c, 5, 76, 64
7, 258420, Note_on_c, 5, 74, 92
7, 258500, Note_off_c, 5, 74, 64
7, 258540, Note_on_c, 5, 76, 92
7, 258570, Note_off_c, 5, 76, 64
7, 258570, Note_on_c, 5, 78, 92
7, 258600, Note_off_c, 5, 78, 64
7, 258600, Note_on_c, 5, 76, 92
7, 258630, Note_off_c, 5, 76, 64
7, 258630, Note_on_c, 5, 78, 92
7, 258660, Note_off_c, 5, 78, 64
7, 258660, Note_on_c, 5, 76, 92
7, 258690, Note_off_c, 5, 76, 64
7, 258690, Note_on_c, 5, 78, 92
7, 258720, Note_off_c, 5, 78, 64
7, 258720, Note_on_c, 5, 76, 92
7, 258750, Note_off_c, 5, 76, 64
7, 258750, Note_on_c, 5, 78, 92
7, 258780, Note_off_c, 5, 78, 64
7, 258780, Note_on_c, 5, 76, 92
7, 258810, Note_off_c, 5, 76, 64
7, 258810, Note_on_c, 5, 78, 92
7, 258840, Note_off_c, 5, 78, 64
7, 258840, Note_on_c, 5, 76, 92
7, 258870, Note_off_c, 5, 76, 64
7, 258870, Note_on_c, 5, 78, 92
7, 258900, Note_off_c, 5, 78, 64
7, 258900, Note_on_c, 5, 76, 92
7, 258930, Note_off_c, 5, 76, 64
7, 258930, Note_on_c, 5, 78, 92
7, 258960, Note_off_c, 5, 78, 64
7, 258960, Note_on_c, 5, 76, 92
7, 258990, Note_off_c, 5, 76, 64
7, 258990, Note_on_c, 5, 78, 92
7, 259020, Note_off_c, 5, 78, 64
7, 259020, Note_on_c, 5, 76, 92
7, 259050, Note_off_c, 5, 76, 64
7, 259050, Note_on_c, 5, 78, 92
7, 259080, Note_off_c, 5, 78, 64
7, 259080, Note_on_c, 5, 76, 92
7, 259110, Note_off_c, 5, 76, 64
7, 259110, Note_on_c, 5, 78, 92
7, 259140, Note_off_c, 5, 78, 64
7, 259140, Note_on_c, 5, 76, 92
7, 259170, Note_off_c, 5, 76, 64
7, 259170, Note_on_c, 5, 78, 92
7, 259200, Note_off_c, 5, 78, 64
7, 259200, Note_on_c, 5, 76, 92
7, 259230, Note_off_c, 5, 76, 64
7, 259230, Note_on_c, 5, 78, 92
7, 259260, Note_off_c, 5, 78, 64
7, 259260, Note_on_c, 5, 76, 92
7, 259290, Note_off_c, 5, 76, 64
7, 259290, Note_on_c, 5, 78, 92
7, 259320, Note_off_c, 5, 78, 64
7, 259320, Note_on_c, 5, 76, 92
7, 259350, Note_off_c, 5, 76, 64
7, 259350, Note_on_c, 5, 78, 92
7, 259380, Note_off_c, 5, 78, 64
7, 259380, Note_on_c, 5, 76, 92
7, 259410, Note_off_c, 5, 76, 64
7, 259410, Note_on_c, 5, 78, 92
7, 259440, Note_off_c, 5, 78, 64
7, 259440, Note_on_c, 5, 76, 92
7, 259470, Note_off_c, 5, 76, 64
7, 259470, Note_on_c, 5, 78, 92
7, 259500, Note_off_c, 5, 78, 64
7, 259500, Note_on_c, 5, 74, 92
7, 259900, Note_off_c, 5, 74, 64
7, 260700, Note_on_c, 5, 78, 92
7, 260820, Note_off_c, 5, 78, 64
7, 260820, Note_on_c, 5, 81, 92
7, 260940, Note_off_c, 5, 81, 64
7, 260940, Note_on_c, 5, 79, 92
7, 261060, Note_off_c, 5, 79, 64
7, 261060, Note_on_c, 5, 76, 92
7, 261180, Note_off_c, 5, 76, 64
7, 261180, Note_on_c, 5, 74, 92
7, 261300, Note_off_c, 5, 74, 64
7, 261300, Note_on_c, 5, 73, 92
7, 261420, Note_off_c, 5, 73, 64
7, 261420, Note_on_c, 5, 74, 92
7, 261820, Note_off_c, 5, 74, 64
7, 262620, Note_on_c, 5, 78, 63
7, 262740, Note_off_c, 5, 78, 64
7, 262740, Note_on_c, 5, 81, 60
7, 262860, Note_off_c, 5, 81, 64
7, 262860, Note_on_c, 5, 79, 57
7, 262980, Note_off_c, 5, 79, 64
7, 262980, Note_on_c, 5, 76, 54
7, 263100, Note_off_c, 5, 76, 64
7, 263100, Note_on_c, 5, 74, 51
7, 263220, Note_off_c, 5, 74, 64
7, 263220, Note_on_c, 5, 73, 48
7, 263340, Note_off_c, 5, 73, 64
7, 263340, Note_on_c, 5, 74, 45
7, 263420, Note_off_c, 5, 74, 64
7, 263580, Note_on_c, 5, 78, 45
7, 263700, Note_off_c, 5, 78, 64
7, 263700, Note_on_c, 5, 79, 45
7, 263820, Note_off_c, 5, 79, 64
7, 263820, Note_on_c, 5, 78, 45
7, 263940, Note_off_c, 5, 78, 64
7, 263940, Note_on_c, 5, 79, 45
7, 264060, Note_off_c, 5, 79, 64
7, 264060, Note_on_c, 5, 78, 45
7, 264180, Note_off_c, 5, 78, 64
7, 264180, Note_on_c, 5, 79, 45
7, 264300, Note_off_c, 5, 79, 64
7, 264300, Note_on_c, 5, 78, 45
7, 264700, Note_off_c, 5, 78, 64
7, 264700, End_track
8, 0, Start_track
8, 0, MIDI_port, 0
8, 0, Channel_prefix, 6
8, 0, Control_c, 6, 7, 127
8, 0, Control_c, 6, 10, 32
8, 0, Control_c, 6, 91, 127
8, 0, Program_c, 6, 48
8, 0, Note_on_c, 6, 66, 75
8, 235, Note_off_c, 6, 66, 64
8, 240, Note_on_c, 6, 66, 75
8, 475, Note_off_c, 6, 66, 64
8, 480, Note_on_c, 6, 66, 75
8, 715, Note_off_c, 6, 66, 64
8, 720, Note_on_c, 6, 66, 75
8, 955, Note_off_c, 6, 66, 64
8, 960, Note_on_c, 6, 66, 75
8, 1195, Note_off_c, 6, 66, 64
8, 1200, Note_on_c, 6, 66, 75
8, 1435, Note_off_c, 6, 66, 64
8, 1440, Note_on_c, 6, 66, 75
8, 1675, Note_off_c, 6, 66, 64
8, 1680, Note_on_c, 6, 66, 75
8, 1915, Note_off_c, 6, 66, 64
8, 1920, Note_on_c, 6, 69, 75
8, 2155, Note_off_c, 6, 69, 64
8, 2160, Note_on_c, 6, 69, 75
8, 2395, Note_off_c, 6, 69, 64
8, 2400, Note_on_c, 6, 69, 75
8, 2635, Note_off_c, 6, 69, 64
8, 2640, Note_on_c, 6, 69, 75
8, 2875, Note_off_c, 6, 69, 64
8, 2880, Note_on_c, 6, 66, 75
8, 3115, Note_off_c, 6, 66, 64
8, 3120, Note_on_c, 6, 66, 75
8, 3355, Note_off_c, 6, 66, 64
8, 3360, Note_on_c, 6, 66, 75
8, 3595, Note_off_c, 6, 66, 64
8, 3600, Note_on_c, 6, 66, 75
8, 3835, Note_off_c, 6, 66, 64
8, 3840, Note_on_c, 6, 64, 92
8, 3960, Note_off_c, 6, 64, 64
8, 3960, Note_on_c, 6, 66, 92
8, 4080, Note_off_c, 6, 66, 64
8, 4080, Note_on_c, 6, 67, 92
8, 4200, Note_off_c, 6, 67, 64
8, 4200, Note_on_c, 6, 66, 92
8, 4320, Note_off_c, 6, 66, 64
8, 4320, Note_on_c, 6, 64, 92
8, 4440, Note_off_c, 6, 64, 64
8, 4440, Note_on_c, 6, 66, 92
8, 4560, Note_off_c, 6, 66, 64
8, 4560, Note_on_c, 6, 67, 92
8, 4680, Note_off_c, 6, 67, 64
8, 4680, Note_on_c, 6, 66, 92
8, 4800, Note_off_c, 6, 66, 64
8, 4800, Note_on_c, 6, 64, 92
8, 4920, Note_off_c, 6, 64, 64
8, 4920, Note_on_c, 6, 66, 92
8, 5040, Note_off_c, 6, 66, 64
8, 5040, Note_on_c, 6, 67, 92
8, 5160, Note_off_c, 6, 67, 64
8, 5160, Note_on_c, 6, 66, 92
8, 5280, Note_off_c, 6, 66, 64
8, 5280, Note_on_c, 6, 64, 92
8, 5400, Note_off_c, 6, 64, 64
8, 5400, Note_on_c, 6, 66, 92
8, 5520, Note_off_c, 6, 66, 64
8, 5520, Note_on_c, 6, 67, 92
8, 5640, Note_off_c, 6, 67, 64
8, 5640, Note_on_c, 6, 64, 92
8, 5760, Note_off_c, 6, 64, 64
8, 5760, Note_on_c, 6, 66, 92
8, 6355, Note_off_c, 6, 66, 64
8, 6960, Note_on_c, 6, 62, 92
8, 7200, Note_off_c, 6, 62, 64
8, 7200, Note_on_c, 6, 66, 92
8, 7440, Note_off_c, 6, 66, 64
8, 7440, Note_on_c, 6, 69, 92
8, 7675, Note_off_c, 6, 69, 64
8, 7680, Note_on_c, 6, 61, 92
8, 7800, Note_off_c, 6, 61, 64
8, 7800, Note_on_c, 6, 62, 92
8, 7920, Note_off_c, 6, 62, 64
8, 7920, Note_on_c, 6, 64, 92
8, 8040, Note_off_c, 6, 64, 64
8, 8040, Note_on_c, 6, 62, 92
8, 8160, Note_off_c, 6, 62, 64
8, 8160, Note_on_c, 6, 61, 92
8, 8280, Note_off_c, 6, 61, 64
8, 8280, Note_on_c, 6, 62, 92
8, 8400, Note_off_c, 6, 62, 64
8, 8400, Note_on_c, 6, 64, 92
8, 8520, Note_off_c, 6, 64, 64
8, 8520, Note_on_c, 6, 62, 92
8, 8640, Note_off_c, 6, 62, 64
8, 8640, Note_on_c, 6, 61, 92
8, 8760, Note_off_c, 6, 61, 64
8, 8760, Note_on_c, 6, 62, 92
8, 8880, Note_off_c, 6, 62, 64
8, 8880, Note_on_c, 6, 64, 92
8, 9000, Note_off_c, 6, 64, 64
8, 9000, Note_on_c, 6, 62, 92
8, 9120, Note_off_c, 6, 62, 64
8, 9120, Note_on_c, 6, 61, 92
8, 9240, Note_off_c, 6, 61, 64
8, 9240, Note_on_c, 6, 62, 92
8, 9360, Note_off_c, 6, 62, 64
8, 9360, Note_on_c, 6, 64, 92
8, 9480, Note_off_c, 6, 64, 64
8, 9480, Note_on_c, 6, 61, 92
8, 9600, Note_off_c, 6, 61, 64
8, 9600, Note_on_c, 6, 62, 75
8, 9835, Note_off_c, 6, 62, 64
8, 9840, Note_on_c, 6, 69, 75
8, 10240, Note_off_c, 6, 69, 64
8, 10320, Note_on_c, 6, 69, 75
8, 10720, Note_off_c, 6, 69, 64
8, 10800, Note_on_c, 6, 69, 75
8, 11200, Note_off_c, 6, 69, 64
8, 11280, Note_on_c, 6, 69, 75
8, 11515, Note_off_c, 6, 69, 64
8, 11520, Note_on_c, 6, 69, 75
8, 11755, Note_off_c, 6, 69, 64
8, 11760, Note_on_c, 6, 69, 75
8, 11995, Note_off_c, 6, 69, 64
8, 12000, Note_on_c, 6, 69, 75
8, 12235, Note_off_c, 6, 69, 64
8, 12240, Note_on_c, 6, 69, 75
8, 12475, Note_off_c, 6, 69, 64
8, 12480, Note_on_c, 6, 74, 75
8, 12715, Note_off_c, 6, 74, 64
8, 12720, Note_on_c, 6, 74, 75
8, 12955, Note_off_c, 6, 74, 64
8, 12960, Note_on_c, 6, 74, 75
8, 13195, Note_off_c, 6, 74, 64
8, 13200, Note_on_c, 6, 74, 75
8, 13435, Note_off_c, 6, 74, 64
8, 13440, Note_on_c, 6, 74, 75
8, 13675, Note_off_c, 6, 74, 64
8, 13680, Note_on_c, 6, 71, 75
8, 14080, Note_off_c, 6, 71, 64
8, 14160, Note_on_c, 6, 71, 75
8, 14560, Note_off_c, 6, 71, 64
8, 14640, Note_on_c, 6, 71, 92
8, 14880, Note_off_c, 6, 71, 64
8, 14880, Note_on_c, 6, 76, 92
8, 15120, Note_off_c, 6, 76, 64
8, 15120, Note_on_c, 6, 79, 92
8, 15355, Note_off_c, 6, 79, 64
8, 15360, Note_on_c, 6, 77, 92
8, 15480, Note_off_c, 6, 77, 64
8, 15480, Note_on_c, 6, 78, 92
8, 16240, Note_off_c, 6, 78, 64
8, 16320, Note_on_c, 6, 77, 92
8, 16440, Note_off_c, 6, 77, 64
8, 16440, Note_on_c, 6, 78, 92
8, 16795, Note_off_c, 6, 78, 64
8, 16800, Note_on_c, 6, 77, 92
8, 16920, Note_off_c, 6, 77, 64
8, 16920, Note_on_c, 6, 78, 92
8, 17275, Note_off_c, 6, 78, 64
8, 17280, Note_on_c, 6, 75, 92
8, 17400, Note_off_c, 6, 75, 64
8, 17400, Note_on_c, 6, 76, 92
8, 17515, Note_off_c, 6, 76, 64
8, 17700, Note_on_c, 6, 75, 92
8, 17820, Note_off_c, 6, 75, 64
8, 17820, Note_on_c, 6, 76, 92
8, 18355, Note_off_c, 6, 76, 64
8, 18480, Note_on_c, 6, 75, 92
8, 18600, Note_off_c, 6, 75, 64
8, 18600, Note_on_c, 6, 76, 92
8, 18715, Note_off_c, 6, 76, 64
8, 18720, Note_on_c, 6, 78, 92
8, 18800, Note_off_c, 6, 78, 64
8, 18840, Note_on_c, 6, 76, 92
8, 18920, Note_off_c, 6, 76, 64
8, 18960, Note_on_c, 6, 75, 92
8, 19040, Note_off_c, 6, 75, 64
8, 19080, Note_on_c, 6, 73, 92
8, 19160, Note_off_c, 6, 73, 64
8, 19200, Note_on_c, 6, 74, 75
8, 19600, Note_off_c, 6, 74, 64
8, 19920, Note_on_c, 6, 73, 75
8, 20155, Note_off_c, 6, 73, 64
8, 20160, Note_on_c, 6, 74, 75
8, 20560, Note_off_c, 6, 74, 64
8, 20880, Note_on_c, 6, 67, 75
8, 21115, Note_off_c, 6, 67, 64
8, 21120, Note_on_c, 6, 66, 75
8, 21520, Note_off_c, 6, 66, 64
8, 21840, Note_on_c, 6, 73, 75
8, 22075, Note_off_c, 6, 73, 64
8, 22080, Note_on_c, 6, 74, 75
8, 22480, Note_off_c, 6, 74, 64
8, 23040, Note_on_c, 6, 86, 92
8, 24360, Note_off_c, 6, 86, 64
8, 24480, Note_on_c, 6, 81, 92
8, 24835, Note_off_c, 6, 81, 64
8, 24840, Note_on_c, 6, 78, 92
8, 24955, Note_off_c, 6, 78, 64
8, 24960, Note_on_c, 6, 74, 92
8, 25360, Note_off_c, 6, 74, 64
8, 25440, Note_on_c, 6, 69, 92
8, 25795, Note_off_c, 6, 69, 64
8, 25800, Note_on_c, 6, 66, 92
8, 25915, Note_off_c, 6, 66, 64
8, 25920, Note_on_c, 6, 62, 92
8, 26000, Note_off_c, 6, 62, 64
8, 26160, Note_on_c, 6, 78, 92
8, 26280, Note_off_c, 6, 78, 64
8, 26280, Note_on_c, 6, 80, 92
8, 26400, Note_off_c, 6, 80, 64
8, 26400, Note_on_c, 6, 81, 92
8, 26480, Note_off_c, 6, 81, 64
8, 26640, Note_on_c, 6, 81, 92
8, 26720, Note_off_c, 6, 81, 64
8, 26880, Note_on_c, 6, 81, 92
8, 26910, Note_off_c, 6, 81, 64
8, 26910, Note_on_c, 6, 83, 92
8, 26940, Note_off_c, 6, 83, 64
8, 26940, Note_on_c, 6, 81, 92
8, 26970, Note_off_c, 6, 81, 64
8, 26970, Note_on_c, 6, 83, 92
8, 27000, Note_off_c, 6, 83, 64
8, 27000, Note_on_c, 6, 81, 92
8, 27120, Note_off_c, 6, 81, 64
8, 27120, Note_on_c, 6, 80, 92
8, 27355, Note_off_c, 6, 80, 64
8, 27360, Note_on_c, 6, 80, 92
8, 27760, Note_off_c, 6, 80, 64
8, 30000, Note_on_c, 6, 68, 82
8, 30120, Note_off_c, 6, 68, 64
8, 30120, Note_on_c, 6, 69, 81
8, 30240, Note_off_c, 6, 69, 64
8, 30240, Note_on_c, 6, 71, 80
8, 30320, Note_off_c, 6, 71, 64
8, 30480, Note_on_c, 6, 71, 78
8, 30560, Note_off_c, 6, 71, 64
8, 30720, Note_on_c, 6, 69, 75
8, 31120, Note_off_c, 6, 69, 64
8, 34680, Note_on_c, 6, 69, 75
8, 34760, Note_off_c, 6, 69, 64
8, 34800, Note_on_c, 6, 71, 75
8, 34880, Note_off_c, 6, 71, 64
8, 34920, Note_on_c, 6, 73, 75
8, 35000, Note_off_c, 6, 73, 64
8, 35040, Note_on_c, 6, 74, 75
8, 35120, Note_off_c, 6, 74, 64
8, 35160, Note_on_c, 6, 76, 75
8, 35240, Note_off_c, 6, 76, 64
8, 35280, Note_on_c, 6, 78, 75
8, 35360, Note_off_c, 6, 78, 64
8, 35400, Note_on_c, 6, 80, 75
8, 35480, Note_off_c, 6, 80, 64
8, 35520, Note_on_c, 6, 81, 75
8, 35600, Note_off_c, 6, 81, 64
8, 35640, Note_on_c, 6, 83, 75
8, 35720, Note_off_c, 6, 83, 64
8, 35760, Note_on_c, 6, 85, 75
8, 35840, Note_off_c, 6, 85, 64
8, 35880, Note_on_c, 6, 83, 75
8, 35960, Note_off_c, 6, 83, 64
8, 36000, Note_on_c, 6, 81, 75
8, 36080, Note_off_c, 6, 81, 64
8, 36120, Note_on_c, 6, 80, 75
8, 36200, Note_off_c, 6, 80, 64
8, 36240, Note_on_c, 6, 78, 75
8, 36320, Note_off_c, 6, 78, 64
8, 36360, Note_on_c, 6, 76, 75
8, 36440, Note_off_c, 6, 76, 64
8, 36480, Note_on_c, 6, 74, 75
8, 36560, Note_off_c, 6, 74, 64
8, 36600, Note_on_c, 6, 71, 75
8, 36680, Note_off_c, 6, 71, 64
8, 36720, Note_on_c, 6, 73, 75
8, 36800, Note_off_c, 6, 73, 64
8, 36840, Note_on_c, 6, 74, 75
8, 36920, Note_off_c, 6, 74, 64
8, 36960, Note_on_c, 6, 76, 75
8, 37040, Note_off_c, 6, 76, 64
8, 37080, Note_on_c, 6, 78, 75
8, 37160, Note_off_c, 6, 78, 64
8, 37200, Note_on_c, 6, 80, 75
8, 37280, Note_off_c, 6, 80, 64
8, 37320, Note_on_c, 6, 81, 75
8, 37400, Note_off_c, 6, 81, 64
8, 37440, Note_on_c, 6, 83, 75
8, 37520, Note_off_c, 6, 83, 64
8, 37560, Note_on_c, 6, 81, 75
8, 37640, Note_off_c, 6, 81, 64
8, 37680, Note_on_c, 6, 80, 75
8, 37760, Note_off_c, 6, 80, 64
8, 37800, Note_on_c, 6, 81, 75
8, 37880, Note_off_c, 6, 81, 64
8, 37920, Note_on_c, 6, 80, 75
8, 38000, Note_off_c, 6, 80, 64
8, 38040, Note_on_c, 6, 78, 75
8, 38120, Note_off_c, 6, 78, 64
8, 38160, Note_on_c, 6, 76, 75
8, 38240, Note_off_c, 6, 76, 64
8, 38280, Note_on_c, 6, 74, 75
8, 38360, Note_off_c, 6, 74, 64
8, 38400, Note_on_c, 6, 73, 75
8, 38480, Note_off_c, 6, 73, 64
8, 38640, Note_on_c, 6, 81, 75
8, 38720, Note_off_c, 6, 81, 64
8, 38880, Note_on_c, 6, 69, 75
8, 38960, Note_off_c, 6, 69, 64
8, 39120, Note_on_c, 6, 71, 75
8, 39180, Note_off_c, 6, 71, 64
8, 39180, Note_on_c, 6, 73, 75
8, 39240, Note_off_c, 6, 73, 64
8, 39240, Note_on_c, 6, 71, 75
8, 39300, Note_off_c, 6, 71, 64
8, 39300, Note_on_c, 6, 73, 75
8, 39360, Note_off_c, 6, 73, 64
8, 39360, Note_on_c, 6, 73, 75
8, 39440, Note_off_c, 6, 73, 64
8, 39600, Note_on_c, 6, 81, 75
8, 39680, Note_off_c, 6, 81, 64
8, 39840, Note_on_c, 6, 73, 75
8, 39920, Note_off_c, 6, 73, 64
8, 40080, Note_on_c, 6, 74, 75
8, 40140, Note_off_c, 6, 74, 64
8, 40140, Note_on_c, 6, 76, 75
8, 40200, Note_off_c, 6, 76, 64
8, 40200, Note_on_c, 6, 74, 75
8, 40260, Note_off_c, 6, 74, 64
8, 40260, Note_on_c, 6, 76, 75
8, 40320, Note_off_c, 6, 76, 64
8, 40320, Note_on_c, 6, 73, 75
8, 40400, Note_off_c, 6, 73, 64
8, 40560, Note_on_c, 6, 81, 77
8, 41040, Note_off_c, 6, 81, 64
8, 41040, Note_on_c, 6, 80, 81
8, 41275, Note_off_c, 6, 80, 64
8, 41280, Note_on_c, 6, 81, 83
8, 41360, Note_off_c, 6, 81, 64
8, 41520, Note_on_c, 6, 76, 85
8, 41760, Note_off_c, 6, 76, 64
8, 41760, Note_on_c, 6, 73, 87
8, 42000, Note_off_c, 6, 73, 64
8, 42000, Note_on_c, 6, 71, 89
8, 42240, Note_off_c, 6, 71, 64
8, 42240, Note_on_c, 6, 69, 92
8, 42320, Note_off_c, 6, 69, 64
8, 42480, Note_on_c, 6, 73, 92
8, 42880, Note_off_c, 6, 73, 64
8, 42960, Note_on_c, 6, 76, 92
8, 43360, Note_off_c, 6, 76, 64
8, 43440, Note_on_c, 6, 69, 92
8, 43840, Note_off_c, 6, 69, 64
8, 43920, Note_on_c, 6, 69, 92
8, 44155, Note_off_c, 6, 69, 64
8, 44160, Note_on_c, 6, 69, 75
8, 44395, Note_off_c, 6, 69, 64
8, 44400, Note_on_c, 6, 69, 75
8, 44635, Note_off_c, 6, 69, 64
8, 44640, Note_on_c, 6, 69, 75
8, 44875, Note_off_c, 6, 69, 64
8, 44880, Note_on_c, 6, 69, 75
8, 45115, Note_off_c, 6, 69, 64
8, 45120, Note_on_c, 6, 69, 75
8, 45355, Note_off_c, 6, 69, 64
8, 45360, Note_on_c, 6, 69, 75
8, 45595, Note_off_c, 6, 69, 64
8, 45600, Note_on_c, 6, 69, 75
8, 45835, Note_off_c, 6, 69, 64
8, 45840, Note_on_c, 6, 69, 75
8, 46075, Note_off_c, 6, 69, 64
8, 46080, Note_on_c, 6, 67, 75
8, 46315, Note_off_c, 6, 67, 64
8, 46320, Note_on_c, 6, 67, 75
8, 46555, Note_off_c, 6, 67, 64
8, 46560, Note_on_c, 6, 67, 75
8, 46795, Note_off_c, 6, 67, 64
8, 46800, Note_on_c, 6, 67, 75
8, 47035, Note_off_c, 6, 67, 64
8, 47040, Note_on_c, 6, 67, 75
8, 47275, Note_off_c, 6, 67, 64
8, 47280, Note_on_c, 6, 67, 75
8, 47515, Note_off_c, 6, 67, 64
8, 47520, Note_on_c, 6, 67, 75
8, 47755, Note_off_c, 6, 67, 64
8, 47760, Note_on_c, 6, 67, 75
8, 47995, Note_off_c, 6, 67, 64
8, 48000, Note_on_c, 6, 66, 75
8, 48235, Note_off_c, 6, 66, 64
8, 48240, Note_on_c, 6, 66, 72
8, 48475, Note_off_c, 6, 66, 64
8, 48480, Note_on_c, 6, 66, 69
8, 48715, Note_off_c, 6, 66, 64
8, 48720, Note_on_c, 6, 66, 65
8, 48955, Note_off_c, 6, 66, 64
8, 48960, Note_on_c, 6, 59, 61
8, 49195, Note_off_c, 6, 59, 64
8, 49200, Note_on_c, 6, 59, 57
8, 49435, Note_off_c, 6, 59, 64
8, 49440, Note_on_c, 6, 64, 53
8, 49675, Note_off_c, 6, 64, 64
8, 49680, Note_on_c, 6, 64, 49
8, 49915, Note_off_c, 6, 64, 64
8, 49920, Note_on_c, 6, 64, 45
8, 50160, Note_off_c, 6, 64, 64
8, 50160, Note_on_c, 6, 69, 46
8, 50240, Note_off_c, 6, 69, 64
8, 50400, Note_on_c, 6, 69, 48
8, 50480, Note_off_c, 6, 69, 64
8, 50640, Note_on_c, 6, 69, 50
8, 50720, Note_off_c, 6, 69, 64
8, 50880, Note_on_c, 6, 69, 52
8, 51280, Note_off_c, 6, 69, 64
8, 51840, Note_on_c, 6, 66, 60
8, 52080, Note_off_c, 6, 66, 64
8, 52080, Note_on_c, 6, 69, 60
8, 52160, Note_off_c, 6, 69, 64
8, 52320, Note_on_c, 6, 69, 62
8, 52400, Note_off_c, 6, 69, 64
8, 52560, Note_on_c, 6, 69, 64
8, 52640, Note_off_c, 6, 69, 64
8, 52800, Note_on_c, 6, 69, 66
8, 53200, Note_off_c, 6, 69, 64
8, 53760, Note_on_c, 6, 61, 75
8, 54000, Note_off_c, 6, 61, 64
8, 54000, Note_on_c, 6, 69, 75
8, 54080, Note_off_c, 6, 69, 64
8, 54240, Note_on_c, 6, 69, 77
8, 54320, Note_off_c, 6, 69, 64
8, 54480, Note_on_c, 6, 69, 79
8, 54560, Note_off_c, 6, 69, 64
8, 54720, Note_on_c, 6, 69, 81
8, 55120, Note_off_c, 6, 69, 64
8, 55680, Note_on_c, 6, 69, 92
8, 56080, Note_off_c, 6, 69, 64
8, 57840, Note_on_c, 6, 57, 92
8, 58240, Note_off_c, 6, 57, 64
8, 58320, Note_on_c, 6, 57, 92
8, 58720, Note_off_c, 6, 57, 64
8, 58800, Note_on_c, 6, 57, 92
8, 59200, Note_off_c, 6, 57, 64
8, 59280, Note_on_c, 6, 57, 92
8, 59755, Note_off_c, 6, 57, 64
8, 59760, Note_on_c, 6, 66, 92
8, 59840, Note_off_c, 6, 66, 64
8, 60000, Note_on_c, 6, 66, 92
8, 60080, Note_off_c, 6, 66, 64
8, 60240, Note_on_c, 6, 66, 92
8, 60320, Note_off_c, 6, 66, 64
8, 60480, Note_on_c, 6, 66, 92
8, 60560, Note_off_c, 6, 66, 64
8, 60720, Note_on_c, 6, 78, 92
8, 60955, Note_off_c, 6, 78, 64
8, 60960, Note_on_c, 6, 76, 92
8, 61080, Note_off_c, 6, 76, 64
8, 61080, Note_on_c, 6, 74, 92
8, 61195, Note_off_c, 6, 74, 64
8, 61200, Note_on_c, 6, 73, 92
8, 61280, Note_off_c, 6, 73, 64
8, 61320, Note_on_c, 6, 71, 92
8, 61400, Note_off_c, 6, 71, 64
8, 61440, Note_on_c, 6, 69, 92
8, 61840, Note_off_c, 6, 69, 64
8, 61920, Note_on_c, 6, 69, 92
8, 62760, Note_off_c, 6, 69, 64
8, 62880, Note_on_c, 6, 68, 92
8, 62940, Note_off_c, 6, 68, 64
8, 62940, Note_on_c, 6, 69, 92
8, 63000, Note_off_c, 6, 69, 64
8, 63000, Note_on_c, 6, 68, 92
8, 63060, Note_off_c, 6, 68, 64
8, 63060, Note_on_c, 6, 69, 92
8, 63120, Note_off_c, 6, 69, 64
8, 63120, Note_on_c, 6, 68, 92
8, 63180, Note_off_c, 6, 68, 64
8, 63180, Note_on_c, 6, 69, 92
8, 63240, Note_off_c, 6, 69, 64
8, 63240, Note_on_c, 6, 68, 92
8, 63300, Note_off_c, 6, 68, 64
8, 63300, Note_on_c, 6, 69, 92
8, 63360, Note_off_c, 6, 69, 64
8, 63360, Note_on_c, 6, 69, 92
8, 63760, Note_off_c, 6, 69, 64
8, 64560, Note_on_c, 6, 73, 82
8, 64680, Note_off_c, 6, 73, 64
8, 64680, Note_on_c, 6, 76, 81
8, 64800, Note_off_c, 6, 76, 64
8, 64800, Note_on_c, 6, 74, 80
8, 64920, Note_off_c, 6, 74, 64
8, 64920, Note_on_c, 6, 71, 79
8, 65040, Note_off_c, 6, 71, 64
8, 65040, Note_on_c, 6, 69, 77
8, 65160, Note_off_c, 6, 69, 64
8, 65160, Note_on_c, 6, 68, 75
8, 65280, Note_off_c, 6, 68, 64
8, 65280, Note_on_c, 6, 69, 75
8, 65680, Note_off_c, 6, 69, 64
8, 66480, Note_on_c, 6, 73, 66
8, 66600, Note_off_c, 6, 73, 64
8, 66600, Note_on_c, 6, 76, 65
8, 66720, Note_off_c, 6, 76, 64
8, 66720, Note_on_c, 6, 74, 64
8, 66840, Note_off_c, 6, 74, 64
8, 66840, Note_on_c, 6, 71, 63
8, 66960, Note_off_c, 6, 71, 64
8, 66960, Note_on_c, 6, 69, 62
8, 67080, Note_off_c, 6, 69, 64
8, 67080, Note_on_c, 6, 68, 61
8, 67200, Note_off_c, 6, 68, 64
8, 67200, Note_on_c, 6, 69, 60
8, 67280, Note_off_c, 6, 69, 64
8, 67440, Note_on_c, 6, 73, 60
8, 67560, Note_off_c, 6, 73, 64
8, 67560, Note_on_c, 6, 74, 58
8, 67680, Note_off_c, 6, 74, 64
8, 67680, Note_on_c, 6, 73, 56
8, 67800, Note_off_c, 6, 73, 64
8, 67800, Note_on_c, 6, 74, 54
8, 67920, Note_off_c, 6, 74, 64
8, 67920, Note_on_c, 6, 73, 51
8, 68040, Note_off_c, 6, 73, 64
8, 68040, Note_on_c, 6, 74, 48
8, 68160, Note_off_c, 6, 74, 64
8, 68160, Note_on_c, 6, 73, 45
8, 68560, Note_off_c, 6, 73, 64
8, 69120, Note_on_c, 6, 66, 75
8, 69355, Note_off_c, 6, 66, 64
8, 69360, Note_on_c, 6, 66, 75
8, 69595, Note_off_c, 6, 66, 64
8, 69600, Note_on_c, 6, 66, 75
8, 69835, Note_off_c, 6, 66, 64
8, 69840, Note_on_c, 6, 66, 75
8, 70075, Note_off_c, 6, 66, 64
8, 70080, Note_on_c, 6, 66, 75
8, 70315, Note_off_c, 6, 66, 64
8, 70320, Note_on_c, 6, 66, 75
8, 70555, Note_off_c, 6, 66, 64
8, 70560, Note_on_c, 6, 66, 75
8, 70795, Note_off_c, 6, 66, 64
8, 70800, Note_on_c, 6, 66, 75
8, 71035, Note_off_c, 6, 66, 64
8, 71040, Note_on_c, 6, 69, 75
8, 71275, Note_off_c, 6, 69, 64
8, 71280, Note_on_c, 6, 69, 75
8, 71515, Note_off_c, 6, 69, 64
8, 71520, Note_on_c, 6, 69, 75
8, 71755, Note_off_c, 6, 69, 64
8, 71760, Note_on_c, 6, 69, 75
8, 71995, Note_off_c, 6, 69, 64
8, 72000, Note_on_c, 6, 66, 75
8, 72235, Note_off_c, 6, 66, 64
8, 72240, Note_on_c, 6, 66, 75
8, 72475, Note_off_c, 6, 66, 64
8, 72480, Note_on_c, 6, 66, 75
8, 72715, Note_off_c, 6, 66, 64
8, 72720, Note_on_c, 6, 66, 75
8, 72955, Note_off_c, 6, 66, 64
8, 72960, Note_on_c, 6, 64, 92
8, 73080, Note_off_c, 6, 64, 64
8, 73080, Note_on_c, 6, 66, 92
8, 73200, Note_off_c, 6, 66, 64
8, 73200, Note_on_c, 6, 67, 92
8, 73320, Note_off_c, 6, 67, 64
8, 73320, Note_on_c, 6, 66, 92
8, 73440, Note_off_c, 6, 66, 64
8, 73440, Note_on_c, 6, 64, 92
8, 73560, Note_off_c, 6, 64, 64
8, 73560, Note_on_c, 6, 66, 92
8, 73680, Note_off_c, 6, 66, 64
8, 73680, Note_on_c, 6, 67, 92
8, 73800, Note_off_c, 6, 67, 64
8, 73800, Note_on_c, 6, 66, 92
8, 73920, Note_off_c, 6, 66, 64
8, 73920, Note_on_c, 6, 64, 92
8, 74040, Note_off_c, 6, 64, 64
8, 74040, Note_on_c, 6, 66, 92
8, 74160, Note_off_c, 6, 66, 64
8, 74160, Note_on_c, 6, 67, 92
8, 74280, Note_off_c, 6, 67, 64
8, 74280, Note_on_c, 6, 66, 92
8, 74400, Note_off_c, 6, 66, 64
8, 74400, Note_on_c, 6, 64, 92
8, 74520, Note_off_c, 6, 64, 64
8, 74520, Note_on_c, 6, 66, 92
8, 74640, Note_off_c, 6, 66, 64
8, 74640, Note_on_c, 6, 67, 92
8, 74760, Note_off_c, 6, 67, 64
8, 74760, Note_on_c, 6, 64, 92
8, 74880, Note_off_c, 6, 64, 64
8, 74880, Note_on_c, 6, 66, 92
8, 75475, Note_off_c, 6, 66, 64
8, 76080, Note_on_c, 6, 62, 92
8, 76320, Note_off_c, 6, 62, 64
8, 76320, Note_on_c, 6, 66, 92
8, 76560, Note_off_c, 6, 66, 64
8, 76560, Note_on_c, 6, 69, 92
8, 76795, Note_off_c, 6, 69, 64
8, 76800, Note_on_c, 6, 61, 92
8, 76920, Note_off_c, 6, 61, 64
8, 76920, Note_on_c, 6, 62, 92
8, 77040, Note_off_c, 6, 62, 64
8, 77040, Note_on_c, 6, 64, 92
8, 77160, Note_off_c, 6, 64, 64
8, 77160, Note_on_c, 6, 62, 92
8, 77280, Note_off_c, 6, 62, 64
8, 77280, Note_on_c, 6, 61, 92
8, 77400, Note_off_c, 6, 61, 64
8, 77400, Note_on_c, 6, 62, 92
8, 77520, Note_off_c, 6, 62, 64
8, 77520, Note_on_c, 6, 64, 92
8, 77640, Note_off_c, 6, 64, 64
8, 77640, Note_on_c, 6, 62, 92
8, 77760, Note_off_c, 6, 62, 64
8, 77760, Note_on_c, 6, 61, 92
8, 77880, Note_off_c, 6, 61, 64
8, 77880, Note_on_c, 6, 62, 92
8, 78000, Note_off_c, 6, 62, 64
8, 78000, Note_on_c, 6, 64, 92
8, 78120, Note_off_c, 6, 64, 64
8, 78120, Note_on_c, 6, 62, 92
8, 78240, Note_off_c, 6, 62, 64
8, 78240, Note_on_c, 6, 61, 92
8, 78360, Note_off_c, 6, 61, 64
8, 78360, Note_on_c, 6, 62, 92
8, 78480, Note_off_c, 6, 62, 64
8, 78480, Note_on_c, 6, 64, 92
8, 78600, Note_off_c, 6, 64, 64
8, 78600, Note_on_c, 6, 61, 92
8, 78720, Note_off_c, 6, 61, 64
8, 78720, Note_on_c, 6, 62, 75
8, 78955, Note_off_c, 6, 62, 64
8, 78960, Note_on_c, 6, 69, 75
8, 79360, Note_off_c, 6, 69, 64
8, 79440, Note_on_c, 6, 69, 75
8, 79840, Note_off_c, 6, 69, 64
8, 79920, Note_on_c, 6, 69, 75
8, 80320, Note_off_c, 6, 69, 64
8, 80400, Note_on_c, 6, 69, 75
8, 80635, Note_off_c, 6, 69, 64
8, 80640, Note_on_c, 6, 69, 75
8, 80875, Note_off_c, 6, 69, 64
8, 80880, Note_on_c, 6, 69, 75
8, 81115, Note_off_c, 6, 69, 64
8, 81120, Note_on_c, 6, 69, 75
8, 81355, Note_off_c, 6, 69, 64
8, 81360, Note_on_c, 6, 69, 75
8, 81595, Note_off_c, 6, 69, 64
8, 81600, Note_on_c, 6, 74, 75
8, 81835, Note_off_c, 6, 74, 64
8, 81840, Note_on_c, 6, 74, 75
8, 82075, Note_off_c, 6, 74, 64
8, 82080, Note_on_c, 6, 74, 75
8, 82315, Note_off_c, 6, 74, 64
8, 82320, Note_on_c, 6, 74, 75
8, 82555, Note_off_c, 6, 74, 64
8, 82560, Note_on_c, 6, 74, 75
8, 82795, Note_off_c, 6, 74, 64
8, 82800, Note_on_c, 6, 71, 75
8, 83200, Note_off_c, 6, 71, 64
8, 83280, Note_on_c, 6, 71, 75
8, 83680, Note_off_c, 6, 71, 64
8, 83760, Note_on_c, 6, 71, 92
8, 84000, Note_off_c, 6, 71, 64
8, 84000, Note_on_c, 6, 76, 92
8, 84240, Note_off_c, 6, 76, 64
8, 84240, Note_on_c, 6, 79, 92
8, 84475, Note_off_c, 6, 79, 64
8, 84480, Note_on_c, 6, 77, 92
8, 84600, Note_off_c, 6, 77, 64
8, 84600, Note_on_c, 6, 78, 92
8, 85360, Note_off_c, 6, 78, 64
8, 85440, Note_on_c, 6, 77, 92
8, 85560, Note_off_c, 6, 77, 64
8, 85560, Note_on_c, 6, 78, 92
8, 85915, Note_off_c, 6, 78, 64
8, 85920, Note_on_c, 6, 77, 92
8, 86040, Note_off_c, 6, 77, 64
8, 86040, Note_on_c, 6, 78, 92
8, 86395, Note_off_c, 6, 78, 64
8, 86400, Note_on_c, 6, 75, 92
8, 86520, Note_off_c, 6, 75, 64
8, 86520, Note_on_c, 6, 76, 92
8, 86635, Note_off_c, 6, 76, 64
8, 86820, Note_on_c, 6, 75, 92
8, 86940, Note_off_c, 6, 75, 64
8, 86940, Note_on_c, 6, 76, 92
8, 87475, Note_off_c, 6, 76, 64
8, 87600, Note_on_c, 6, 75, 92
8, 87720, Note_off_c, 6, 75, 64
8, 87720, Note_on_c, 6, 76, 92
8, 87835, Note_off_c, 6, 76, 64
8, 87840, Note_on_c, 6, 78, 92
8, 87920, Note_off_c, 6, 78, 64
8, 87960, Note_on_c, 6, 76, 92
8, 88040, Note_off_c, 6, 76, 64
8, 88080, Note_on_c, 6, 75, 92
8, 88160, Note_off_c, 6, 75, 64
8, 88200, Note_on_c, 6, 73, 92
8, 88280, Note_off_c, 6, 73, 64
8, 88320, Note_on_c, 6, 74, 75
8, 88720, Note_off_c, 6, 74, 64
8, 89040, Note_on_c, 6, 73, 75
8, 89275, Note_off_c, 6, 73, 64
8, 89280, Note_on_c, 6, 74, 75
8, 89680, Note_off_c, 6, 74, 64
8, 90000, Note_on_c, 6, 67, 75
8, 90235, Note_off_c, 6, 67, 64
8, 90240, Note_on_c, 6, 66, 75
8, 90640, Note_off_c, 6, 66, 64
8, 90960, Note_on_c, 6, 73, 75
8, 91195, Note_off_c, 6, 73, 64
8, 91200, Note_on_c, 6, 74, 75
8, 91600, Note_off_c, 6, 74, 64
8, 92160, Note_on_c, 6, 86, 92
8, 93480, Note_off_c, 6, 86, 64
8, 93600, Note_on_c, 6, 81, 92
8, 93955, Note_off_c, 6, 81, 64
8, 93960, Note_on_c, 6, 78, 92
8, 94075, Note_off_c, 6, 78, 64
8, 94080, Note_on_c, 6, 74, 92
8, 94480, Note_off_c, 6, 74, 64
8, 94560, Note_on_c, 6, 69, 92
8, 94915, Note_off_c, 6, 69, 64
8, 94920, Note_on_c, 6, 66, 92
8, 95035, Note_off_c, 6, 66, 64
8, 95040, Note_on_c, 6, 62, 92
8, 95120, Note_off_c, 6, 62, 64
8, 95280, Note_on_c, 6, 78, 92
8, 95400, Note_off_c, 6, 78, 64
8, 95400, Note_on_c, 6, 80, 92
8, 95520, Note_off_c, 6, 80, 64
8, 95520, Note_on_c, 6, 81, 92
8, 95600, Note_off_c, 6, 81, 64
8, 95760, Note_on_c, 6, 81, 92
8, 95840, Note_off_c, 6, 81, 64
8, 96000, Note_on_c, 6, 81, 92
8, 96030, Note_off_c, 6, 81, 64
8, 96030, Note_on_c, 6, 83, 92
8, 96060, Note_off_c, 6, 83, 64
8, 96060, Note_on_c, 6, 81, 92
8, 96090, Note_off_c, 6, 81, 64
8, 96090, Note_on_c, 6, 83, 92
8, 96120, Note_off_c, 6, 83, 64
8, 96120, Note_on_c, 6, 81, 92
8, 96240, Note_off_c, 6, 81, 64
8, 96240, Note_on_c, 6, 80, 92
8, 96475, Note_off_c, 6, 80, 64
8, 96480, Note_on_c, 6, 80, 92
8, 96880, Note_off_c, 6, 80, 64
8, 99120, Note_on_c, 6, 68, 82
8, 99240, Note_off_c, 6, 68, 64
8, 99240, Note_on_c, 6, 69, 81
8, 99360, Note_off_c, 6, 69, 64
8, 99360, Note_on_c, 6, 71, 80
8, 99440, Note_off_c, 6, 71, 64
8, 99600, Note_on_c, 6, 71, 78
8, 99680, Note_off_c, 6, 71, 64
8, 99840, Note_on_c, 6, 69, 75
8, 100240, Note_off_c, 6, 69, 64
8, 103800, Note_on_c, 6, 69, 75
8, 103880, Note_off_c, 6, 69, 64
8, 103920, Note_on_c, 6, 71, 75
8, 104000, Note_off_c, 6, 71, 64
8, 104040, Note_on_c, 6, 73, 75
8, 104120, Note_off_c, 6, 73, 64
8, 104160, Note_on_c, 6, 74, 75
8, 104240, Note_off_c, 6, 74, 64
8, 104280, Note_on_c, 6, 76, 75
8, 104360, Note_off_c, 6, 76, 64
8, 104400, Note_on_c, 6, 78, 75
8, 104480, Note_off_c, 6, 78, 64
8, 104520, Note_on_c, 6, 80, 75
8, 104600, Note_off_c, 6, 80, 64
8, 104640, Note_on_c, 6, 81, 75
8, 104720, Note_off_c, 6, 81, 64
8, 104760, Note_on_c, 6, 83, 75
8, 104840, Note_off_c, 6, 83, 64
8, 104880, Note_on_c, 6, 85, 75
8, 104960, Note_off_c, 6, 85, 64
8, 105000, Note_on_c, 6, 83, 75
8, 105080, Note_off_c, 6, 83, 64
8, 105120, Note_on_c, 6, 81, 75
8, 105200, Note_off_c, 6, 81, 64
8, 105240, Note_on_c, 6, 80, 75
8, 105320, Note_off_c, 6, 80, 64
8, 105360, Note_on_c, 6, 78, 75
8, 105440, Note_off_c, 6, 78, 64
8, 105480, Note_on_c, 6, 76, 75
8, 105560, Note_off_c, 6, 76, 64
8, 105600, Note_on_c, 6, 74, 75
8, 105680, Note_off_c, 6, 74, 64
8, 105720, Note_on_c, 6, 71, 75
8, 105800, Note_off_c, 6, 71, 64
8, 105840, Note_on_c, 6, 73, 75
8, 105920, Note_off_c, 6, 73, 64
8, 105960, Note_on_c, 6, 74, 75
8, 106040, Note_off_c, 6, 74, 64
8, 106080, Note_on_c, 6, 76, 75
8, 106160, Note_off_c, 6, 76, 64
8, 106200, Note_on_c, 6, 78, 75
8, 106280, Note_off_c, 6, 78, 64
8, 106320, Note_on_c, 6, 80, 75
8, 106400, Note_off_c, 6, 80, 64
8, 106440, Note_on_c, 6, 81, 75
8, 106520, Note_off_c, 6, 81, 64
8, 106560, Note_on_c, 6, 83, 75
8, 106640, Note_off_c, 6, 83, 64
8, 106680, Note_on_c, 6, 81, 75
8, 106760, Note_off_c, 6, 81, 64
8, 106800, Note_on_c, 6, 80, 75
8, 106880, Note_off_c, 6, 80, 64
8, 106920, Note_on_c, 6, 81, 75
8, 107000, Note_off_c, 6, 81, 64
8, 107040, Note_on_c, 6, 80, 75
8, 107120, Note_off_c, 6, 80, 64
8, 107160, Note_on_c, 6, 78, 75
8, 107240, Note_off_c, 6, 78, 64
8, 107280, Note_on_c, 6, 76, 75
8, 107360, Note_off_c, 6, 76, 64
8, 107400, Note_on_c, 6, 74, 75
8, 107480, Note_off_c, 6, 74, 64
8, 107520, Note_on_c, 6, 73, 75
8, 107600, Note_off_c, 6, 73, 64
8, 107760, Note_on_c, 6, 81, 75
8, 107840, Note_off_c, 6, 81, 64
8, 108000, Note_on_c, 6, 69, 75
8, 108080, Note_off_c, 6, 69, 64
8, 108240, Note_on_c, 6, 71, 75
8, 108300, Note_off_c, 6, 71, 64
8, 108300, Note_on_c, 6, 73, 75
8, 108360, Note_off_c, 6, 73, 64
8, 108360, Note_on_c, 6, 71, 75
8, 108420, Note_off_c, 6, 71, 64
8, 108420, Note_on_c, 6, 73, 75
8, 108480, Note_off_c, 6, 73, 64
8, 108480, Note_on_c, 6, 73, 75
8, 108560, Note_off_c, 6, 73, 64
8, 108720, Note_on_c, 6, 81, 75
8, 108800, Note_off_c, 6, 81, 64
8, 108960, Note_on_c, 6, 73, 75
8, 109040, Note_off_c, 6, 73, 64
8, 109200, Note_on_c, 6, 74, 75
8, 109260, Note_off_c, 6, 74, 64
8, 109260, Note_on_c, 6, 76, 75
8, 109320, Note_off_c, 6, 76, 64
8, 109320, Note_on_c, 6, 74, 75
8, 109380, Note_off_c, 6, 74, 64
8, 109380, Note_on_c, 6, 76, 75
8, 109440, Note_off_c, 6, 76, 64
8, 109440, Note_on_c, 6, 73, 75
8, 109520, Note_off_c, 6, 73, 64
8, 109680, Note_on_c, 6, 81, 77
8, 110160, Note_off_c, 6, 81, 64
8, 110160, Note_on_c, 6, 80, 81
8, 110395, Note_off_c, 6, 80, 64
8, 110400, Note_on_c, 6, 81, 83
8, 110480, Note_off_c, 6, 81, 64
8, 110640, Note_on_c, 6, 76, 85
8, 110880, Note_off_c, 6, 76, 64
8, 110880, Note_on_c, 6, 73, 87
8, 111120, Note_off_c, 6, 73, 64
8, 111120, Note_on_c, 6, 71, 89
8, 111360, Note_off_c, 6, 71, 64
8, 111360, Note_on_c, 6, 69, 92
8, 111440, Note_off_c, 6, 69, 64
8, 111600, Note_on_c, 6, 73, 92
8, 112000, Note_off_c, 6, 73, 64
8, 112080, Note_on_c, 6, 76, 92
8, 112480, Note_off_c, 6, 76, 64
8, 112560, Note_on_c, 6, 69, 92
8, 112960, Note_off_c, 6, 69, 64
8, 113040, Note_on_c, 6, 69, 92
8, 113275, Note_off_c, 6, 69, 64
8, 113280, Note_on_c, 6, 69, 75
8, 113515, Note_off_c, 6, 69, 64
8, 113520, Note_on_c, 6, 69, 75
8, 113755, Note_off_c, 6, 69, 64
8, 113760, Note_on_c, 6, 69, 75
8, 113995, Note_off_c, 6, 69, 64
8, 114000, Note_on_c, 6, 69, 75
8, 114235, Note_off_c, 6, 69, 64
8, 114240, Note_on_c, 6, 69, 75
8, 114475, Note_off_c, 6, 69, 64
8, 114480, Note_on_c, 6, 69, 75
8, 114715, Note_off_c, 6, 69, 64
8, 114720, Note_on_c, 6, 69, 75
8, 114955, Note_off_c, 6, 69, 64
8, 114960, Note_on_c, 6, 69, 75
8, 115195, Note_off_c, 6, 69, 64
8, 115200, Note_on_c, 6, 67, 75
8, 115435, Note_off_c, 6, 67, 64
8, 115440, Note_on_c, 6, 67, 75
8, 115675, Note_off_c, 6, 67, 64
8, 115680, Note_on_c, 6, 67, 75
8, 115915, Note_off_c, 6, 67, 64
8, 115920, Note_on_c, 6, 67, 75
8, 116155, Note_off_c, 6, 67, 64
8, 116160, Note_on_c, 6, 67, 75
8, 116395, Note_off_c, 6, 67, 64
8, 116400, Note_on_c, 6, 67, 75
8, 116635, Note_off_c, 6, 67, 64
8, 116640, Note_on_c, 6, 67, 75
8, 116875, Note_off_c, 6, 67, 64
8, 116880, Note_on_c, 6, 67, 75
8, 117115, Note_off_c, 6, 67, 64
8, 117120, Note_on_c, 6, 66, 75
8, 117355, Note_off_c, 6, 66, 64
8, 117360, Note_on_c, 6, 66, 72
8, 117595, Note_off_c, 6, 66, 64
8, 117600, Note_on_c, 6, 66, 69
8, 117835, Note_off_c, 6, 66, 64
8, 117840, Note_on_c, 6, 66, 65
8, 118075, Note_off_c, 6, 66, 64
8, 118080, Note_on_c, 6, 59, 61
8, 118315, Note_off_c, 6, 59, 64
8, 118320, Note_on_c, 6, 59, 57
8, 118555, Note_off_c, 6, 59, 64
8, 118560, Note_on_c, 6, 64, 53
8, 118795, Note_off_c, 6, 64, 64
8, 118800, Note_on_c, 6, 64, 49
8, 119035, Note_off_c, 6, 64, 64
8, 119040, Note_on_c, 6, 64, 45
8, 119280, Note_off_c, 6, 64, 64
8, 119280, Note_on_c, 6, 69, 46
8, 119360, Note_off_c, 6, 69, 64
8, 119520, Note_on_c, 6, 69, 48
8, 119600, Note_off_c, 6, 69, 64
8, 119760, Note_on_c, 6, 69, 50
8, 119840, Note_off_c, 6, 69, 64
8, 120000, Note_on_c, 6, 69, 52
8, 120400, Note_off_c, 6, 69, 64
8, 120960, Note_on_c, 6, 66, 60
8, 121200, Note_off_c, 6, 66, 64
8, 121200, Note_on_c, 6, 69, 60
8, 121280, Note_off_c, 6, 69, 64
8, 121440, Note_on_c, 6, 69, 62
8, 121520, Note_off_c, 6, 69, 64
8, 121680, Note_on_c, 6, 69, 64
8, 121760, Note_off_c, 6, 69, 64
8, 121920, Note_on_c, 6, 69, 66
8, 122320, Note_off_c, 6, 69, 64
8, 122880, Note_on_c, 6, 61, 75
8, 123120, Note_off_c, 6, 61, 64
8, 123120, Note_on_c, 6, 69, 75
8, 123200, Note_off_c, 6, 69, 64
8, 123360, Note_on_c, 6, 69, 77
8, 123440, Note_off_c, 6, 69, 64
8, 123600, Note_on_c, 6, 69, 79
8, 123680, Note_off_c, 6, 69, 64
8, 123840, Note_on_c, 6, 69, 81
8, 124240, Note_off_c, 6, 69, 64
8, 124800, Note_on_c, 6, 69, 92
8, 125200, Note_off_c, 6, 69, 64
8, 126960, Note_on_c, 6, 57, 92
8, 127360, Note_off_c, 6, 57, 64
8, 127440, Note_on_c, 6, 57, 92
8, 127840, Note_off_c, 6, 57, 64
8, 127920, Note_on_c, 6, 57, 92
8, 128320, Note_off_c, 6, 57, 64
8, 128400, Note_on_c, 6, 57, 92
8, 128875, Note_off_c, 6, 57, 64
8, 128880, Note_on_c, 6, 66, 92
8, 128960, Note_off_c, 6, 66, 64
8, 129120, Note_on_c, 6, 66, 92
8, 129200, Note_off_c, 6, 66, 64
8, 129360, Note_on_c, 6, 66, 92
8, 129440, Note_off_c, 6, 66, 64
8, 129600, Note_on_c, 6, 66, 92
8, 129680, Note_off_c, 6, 66, 64
8, 129840, Note_on_c, 6, 78, 92
8, 130075, Note_off_c, 6, 78, 64
8, 130080, Note_on_c, 6, 76, 92
8, 130200, Note_off_c, 6, 76, 64
8, 130200, Note_on_c, 6, 74, 92
8, 130315, Note_off_c, 6, 74, 64
8, 130320, Note_on_c, 6, 73, 92
8, 130400, Note_off_c, 6, 73, 64
8, 130440, Note_on_c, 6, 71, 92
8, 130520, Note_off_c, 6, 71, 64
8, 130560, Note_on_c, 6, 69, 92
8, 130960, Note_off_c, 6, 69, 64
8, 131040, Note_on_c, 6, 69, 92
8, 131880, Note_off_c, 6, 69, 64
8, 132000, Note_on_c, 6, 68, 92
8, 132060, Note_off_c, 6, 68, 64
8, 132060, Note_on_c, 6, 69, 92
8, 132120, Note_off_c, 6, 69, 64
8, 132120, Note_on_c, 6, 68, 92
8, 132180, Note_off_c, 6, 68, 64
8, 132180, Note_on_c, 6, 69, 92
8, 132240, Note_off_c, 6, 69, 64
8, 132240, Note_on_c, 6, 68, 92
8, 132300, Note_off_c, 6, 68, 64
8, 132300, Note_on_c, 6, 69, 92
8, 132360, Note_off_c, 6, 69, 64
8, 132360, Note_on_c, 6, 68, 92
8, 132420, Note_off_c, 6, 68, 64
8, 132420, Note_on_c, 6, 69, 92
8, 132480, Note_off_c, 6, 69, 64
8, 132480, Note_on_c, 6, 69, 92
8, 132880, Note_off_c, 6, 69, 64
8, 133680, Note_on_c, 6, 73, 82
8, 133800, Note_off_c, 6, 73, 64
8, 133800, Note_on_c, 6, 76, 81
8, 133920, Note_off_c, 6, 76, 64
8, 133920, Note_on_c, 6, 74, 80
8, 134040, Note_off_c, 6, 74, 64
8, 134040, Note_on_c, 6, 71, 79
8, 134160, Note_off_c, 6, 71, 64
8, 134160, Note_on_c, 6, 69, 77
8, 134280, Note_off_c, 6, 69, 64
8, 134280, Note_on_c, 6, 68, 75
8, 134400, Note_off_c, 6, 68, 64
8, 134400, Note_on_c, 6, 69, 75
8, 134800, Note_off_c, 6, 69, 64
8, 135600, Note_on_c, 6, 73, 66
8, 135720, Note_off_c, 6, 73, 64
8, 135720, Note_on_c, 6, 76, 65
8, 135840, Note_off_c, 6, 76, 64
8, 135840, Note_on_c, 6, 74, 64
8, 135960, Note_off_c, 6, 74, 64
8, 135960, Note_on_c, 6, 71, 63
8, 136080, Note_off_c, 6, 71, 64
8, 136080, Note_on_c, 6, 69, 62
8, 136200, Note_off_c, 6, 69, 64
8, 136200, Note_on_c, 6, 68, 61
8, 136320, Note_off_c, 6, 68, 64
8, 136320, Note_on_c, 6, 69, 60
8, 136400, Note_off_c, 6, 69, 64
8, 136560, Note_on_c, 6, 73, 60
8, 136680, Note_off_c, 6, 73, 64
8, 136680, Note_on_c, 6, 74, 58
8, 136800, Note_off_c, 6, 74, 64
8, 136800, Note_on_c, 6, 73, 56
8, 136920, Note_off_c, 6, 73, 64
8, 136920, Note_on_c, 6, 74, 54
8, 137040, Note_off_c, 6, 74, 64
8, 137040, Note_on_c, 6, 73, 51
8, 137160, Note_off_c, 6, 73, 64
8, 137160, Note_on_c, 6, 74, 48
8, 137280, Note_off_c, 6, 74, 64
8, 137280, Note_on_c, 6, 73, 45
8, 137680, Note_off_c, 6, 73, 64
8, 138240, Note_on_c, 6, 64, 75
8, 138475, Note_off_c, 6, 64, 64
8, 138480, Note_on_c, 6, 64, 75
8, 138715, Note_off_c, 6, 64, 64
8, 138720, Note_on_c, 6, 64, 75
8, 138955, Note_off_c, 6, 64, 64
8, 138960, Note_on_c, 6, 64, 75
8, 139195, Note_off_c, 6, 64, 64
8, 139200, Note_on_c, 6, 64, 75
8, 139435, Note_off_c, 6, 64, 64
8, 139440, Note_on_c, 6, 64, 75
8, 139675, Note_off_c, 6, 64, 64
8, 139680, Note_on_c, 6, 64, 75
8, 139915, Note_off_c, 6, 64, 64
8, 139920, Note_on_c, 6, 64, 75
8, 140155, Note_off_c, 6, 64, 64
8, 140160, Note_on_c, 6, 63, 75
8, 140395, Note_off_c, 6, 63, 64
8, 140400, Note_on_c, 6, 63, 75
8, 140635, Note_off_c, 6, 63, 64
8, 140640, Note_on_c, 6, 63, 75
8, 140875, Note_off_c, 6, 63, 64
8, 140880, Note_on_c, 6, 63, 75
8, 141115, Note_off_c, 6, 63, 64
8, 141120, Note_on_c, 6, 63, 75
8, 141355, Note_off_c, 6, 63, 64
8, 141360, Note_on_c, 6, 63, 75
8, 141595, Note_off_c, 6, 63, 64
8, 141600, Note_on_c, 6, 63, 75
8, 141835, Note_off_c, 6, 63, 64
8, 141840, Note_on_c, 6, 64, 92
8, 142075, Note_off_c, 6, 64, 64
8, 142080, Note_on_c, 6, 66, 92
8, 142200, Note_off_c, 6, 66, 64
8, 142200, Note_on_c, 6, 67, 92
8, 142320, Note_off_c, 6, 67, 64
8, 142320, Note_on_c, 6, 69, 92
8, 142440, Note_off_c, 6, 69, 64
8, 142440, Note_on_c, 6, 67, 92
8, 142560, Note_off_c, 6, 67, 64
8, 142560, Note_on_c, 6, 66, 92
8, 142680, Note_off_c, 6, 66, 64
8, 142680, Note_on_c, 6, 67, 92
8, 142800, Note_off_c, 6, 67, 64
8, 142800, Note_on_c, 6, 69, 92
8, 142920, Note_off_c, 6, 69, 64
8, 142920, Note_on_c, 6, 67, 92
8, 143040, Note_off_c, 6, 67, 64
8, 143040, Note_on_c, 6, 66, 92
8, 143160, Note_off_c, 6, 66, 64
8, 143160, Note_on_c, 6, 67, 92
8, 143280, Note_off_c, 6, 67, 64
8, 143280, Note_on_c, 6, 69, 92
8, 143400, Note_off_c, 6, 69, 64
8, 143400, Note_on_c, 6, 67, 92
8, 143520, Note_off_c, 6, 67, 64
8, 143520, Note_on_c, 6, 66, 92
8, 143640, Note_off_c, 6, 66, 64
8, 143640, Note_on_c, 6, 67, 92
8, 143760, Note_off_c, 6, 67, 64
8, 143760, Note_on_c, 6, 69, 92
8, 143880, Note_off_c, 6, 69, 64
8, 143880, Note_on_c, 6, 66, 92
8, 144000, Note_off_c, 6, 66, 64
8, 144000, Note_on_c, 6, 67, 92
8, 144595, Note_off_c, 6, 67, 64
8, 145200, Note_on_c, 6, 79, 92
8, 145440, Note_off_c, 6, 79, 64
8, 145440, Note_on_c, 6, 76, 92
8, 145680, Note_off_c, 6, 76, 64
8, 145680, Note_on_c, 6, 71, 92
8, 145915, Note_off_c, 6, 71, 64
8, 145920, Note_on_c, 6, 75, 92
8, 146040, Note_off_c, 6, 75, 64
8, 146040, Note_on_c, 6, 76, 92
8, 146160, Note_off_c, 6, 76, 64
8, 146160, Note_on_c, 6, 78, 92
8, 146280, Note_off_c, 6, 78, 64
8, 146280, Note_on_c, 6, 76, 92
8, 146400, Note_off_c, 6, 76, 64
8, 146400, Note_on_c, 6, 75, 92
8, 146520, Note_off_c, 6, 75, 64
8, 146520, Note_on_c, 6, 76, 92
8, 146640, Note_off_c, 6, 76, 64
8, 146640, Note_on_c, 6, 78, 92
8, 146760, Note_off_c, 6, 78, 64
8, 146760, Note_on_c, 6, 76, 92
8, 146880, Note_off_c, 6, 76, 64
8, 146880, Note_on_c, 6, 75, 92
8, 147000, Note_off_c, 6, 75, 64
8, 147000, Note_on_c, 6, 76, 92
8, 147120, Note_off_c, 6, 76, 64
8, 147120, Note_on_c, 6, 78, 92
8, 147240, Note_off_c, 6, 78, 64
8, 147240, Note_on_c, 6, 76, 92
8, 147360, Note_off_c, 6, 76, 64
8, 147360, Note_on_c, 6, 75, 92
8, 147480, Note_off_c, 6, 75, 64
8, 147480, Note_on_c, 6, 76, 92
8, 147600, Note_off_c, 6, 76, 64
8, 147600, Note_on_c, 6, 78, 92
8, 147720, Note_off_c, 6, 78, 64
8, 147720, Note_on_c, 6, 75, 92
8, 147840, Note_off_c, 6, 75, 64
8, 147840, Note_on_c, 6, 76, 92
8, 148075, Note_off_c, 6, 76, 64
8, 148080, Note_on_c, 6, 67, 92
8, 148480, Note_off_c, 6, 67, 64
8, 148560, Note_on_c, 6, 66, 92
8, 148960, Note_off_c, 6, 66, 64
8, 149040, Note_on_c, 6, 64, 92
8, 149440, Note_off_c, 6, 64, 64
8, 149520, Note_on_c, 6, 62, 92
8, 149755, Note_off_c, 6, 62, 64
8, 149760, Note_on_c, 6, 61, 75
8, 149995, Note_off_c, 6, 61, 64
8, 150000, Note_on_c, 6, 61, 75
8, 150235, Note_off_c, 6, 61, 64
8, 150240, Note_on_c, 6, 61, 75
8, 150475, Note_off_c, 6, 61, 64
8, 150480, Note_on_c, 6, 61, 75
8, 150715, Note_off_c, 6, 61, 64
8, 150720, Note_on_c, 6, 61, 75
8, 150955, Note_off_c, 6, 61, 64
8, 150960, Note_on_c, 6, 61, 75
8, 151195, Note_off_c, 6, 61, 64
8, 151200, Note_on_c, 6, 61, 75
8, 151435, Note_off_c, 6, 61, 64
8, 151440, Note_on_c, 6, 61, 75
8, 151675, Note_off_c, 6, 61, 64
8, 151680, Note_on_c, 6, 61, 75
8, 151915, Note_off_c, 6, 61, 64
8, 151920, Note_on_c, 6, 61, 75
8, 152155, Note_off_c, 6, 61, 64
8, 152160, Note_on_c, 6, 61, 75
8, 152395, Note_off_c, 6, 61, 64
8, 152400, Note_on_c, 6, 61, 75
8, 152635, Note_off_c, 6, 61, 64
8, 152640, Note_on_c, 6, 58, 75
8, 152875, Note_off_c, 6, 58, 64
8, 152880, Note_on_c, 6, 58, 75
8, 153115, Note_off_c, 6, 58, 64
8, 153120, Note_on_c, 6, 58, 75
8, 153355, Note_off_c, 6, 58, 64
8, 153360, Note_on_c, 6, 58, 75
8, 153595, Note_off_c, 6, 58, 64
8, 153600, Note_on_c, 6, 61, 92
8, 153720, Note_off_c, 6, 61, 64
8, 153720, Note_on_c, 6, 62, 92
8, 153840, Note_off_c, 6, 62, 64
8, 153840, Note_on_c, 6, 64, 92
8, 153960, Note_off_c, 6, 64, 64
8, 153960, Note_on_c, 6, 62, 92
8, 154080, Note_off_c, 6, 62, 64
8, 154080, Note_on_c, 6, 61, 92
8, 154200, Note_off_c, 6, 61, 64
8, 154200, Note_on_c, 6, 62, 92
8, 154320, Note_off_c, 6, 62, 64
8, 154320, Note_on_c, 6, 64, 92
8, 154440, Note_off_c, 6, 64, 64
8, 154440, Note_on_c, 6, 62, 92
8, 154560, Note_off_c, 6, 62, 64
8, 154560, Note_on_c, 6, 61, 92
8, 154680, Note_off_c, 6, 61, 64
8, 154680, Note_on_c, 6, 62, 92
8, 154800, Note_off_c, 6, 62, 64
8, 154800, Note_on_c, 6, 64, 92
8, 154920, Note_off_c, 6, 64, 64
8, 154920, Note_on_c, 6, 62, 92
8, 155040, Note_off_c, 6, 62, 64
8, 155040, Note_on_c, 6, 61, 92
8, 155160, Note_off_c, 6, 61, 64
8, 155160, Note_on_c, 6, 62, 92
8, 155280, Note_off_c, 6, 62, 64
8, 155280, Note_on_c, 6, 64, 92
8, 155400, Note_off_c, 6, 64, 64
8, 155400, Note_on_c, 6, 61, 92
8, 155520, Note_off_c, 6, 61, 64
8, 155520, Note_on_c, 6, 62, 92
8, 156115, Note_off_c, 6, 62, 64
8, 156720, Note_on_c, 6, 74, 92
8, 156960, Note_off_c, 6, 74, 64
8, 156960, Note_on_c, 6, 71, 92
8, 157200, Note_off_c, 6, 71, 64
8, 157200, Note_on_c, 6, 66, 92
8, 157435, Note_off_c, 6, 66, 64
8, 157440, Note_on_c, 6, 61, 92
8, 157560, Note_off_c, 6, 61, 64
8, 157560, Note_on_c, 6, 62, 92
8, 157680, Note_off_c, 6, 62, 64
8, 157680, Note_on_c, 6, 64, 92
8, 157800, Note_off_c, 6, 64, 64
8, 157800, Note_on_c, 6, 62, 92
8, 157920, Note_off_c, 6, 62, 64
8, 157920, Note_on_c, 6, 61, 92
8, 158040, Note_off_c, 6, 61, 64
8, 158040, Note_on_c, 6, 62, 92
8, 158160, Note_off_c, 6, 62, 64
8, 158160, Note_on_c, 6, 64, 92
8, 158280, Note_off_c, 6, 64, 64
8, 158280, Note_on_c, 6, 62, 92
8, 158400, Note_off_c, 6, 62, 64
8, 158400, Note_on_c, 6, 61, 92
8, 158520, Note_off_c, 6, 61, 64
8, 158520, Note_on_c, 6, 62, 92
8, 158640, Note_off_c, 6, 62, 64
8, 158640, Note_on_c, 6, 64, 92
8, 158760, Note_off_c, 6, 64, 64
8, 158760, Note_on_c, 6, 62, 92
8, 158880, Note_off_c, 6, 62, 64
8, 158880, Note_on_c, 6, 61, 92
8, 159000, Note_off_c, 6, 61, 64
8, 159000, Note_on_c, 6, 62, 92
8, 159120, Note_off_c, 6, 62, 64
8, 159120, Note_on_c, 6, 64, 92
8, 159240, Note_off_c, 6, 64, 64
8, 159240, Note_on_c, 6, 61, 92
8, 159360, Note_off_c, 6, 61, 64
8, 159360, Note_on_c, 6, 59, 92
8, 159760, Note_off_c, 6, 59, 64
8, 159840, Note_on_c, 6, 74, 92
8, 159900, Note_off_c, 6, 74, 64
8, 159900, Note_on_c, 6, 76, 92
8, 159960, Note_off_c, 6, 76, 64
8, 159960, Note_on_c, 6, 74, 92
8, 160020, Note_off_c, 6, 74, 64
8, 160020, Note_on_c, 6, 76, 92
8, 160080, Note_off_c, 6, 76, 64
8, 160080, Note_on_c, 6, 74, 92
8, 160140, Note_off_c, 6, 74, 64
8, 160140, Note_on_c, 6, 76, 92
8, 160200, Note_off_c, 6, 76, 64
8, 160200, Note_on_c, 6, 73, 92
8, 160260, Note_off_c, 6, 73, 64
8, 160260, Note_on_c, 6, 74, 92
8, 160320, Note_off_c, 6, 74, 64
8, 160320, Note_on_c, 6, 83, 92
8, 160720, Note_off_c, 6, 83, 64
8, 161760, Note_on_c, 6, 72, 92
8, 161820, Note_off_c, 6, 72, 64
8, 161820, Note_on_c, 6, 74, 92
8, 161880, Note_off_c, 6, 74, 64
8, 161880, Note_on_c, 6, 72, 92
8, 161940, Note_off_c, 6, 72, 64
8, 161940, Note_on_c, 6, 74, 92
8, 162000, Note_off_c, 6, 74, 64
8, 162000, Note_on_c, 6, 72, 92
8, 162060, Note_off_c, 6, 72, 64
8, 162060, Note_on_c, 6, 74, 92
8, 162120, Note_off_c, 6, 74, 64
8, 162120, Note_on_c, 6, 71, 92
8, 162180, Note_off_c, 6, 71, 64
8, 162180, Note_on_c, 6, 72, 92
8, 162240, Note_off_c, 6, 72, 64
8, 162240, Note_on_c, 6, 81, 92
8, 162640, Note_off_c, 6, 81, 64
8, 163440, Note_on_c, 6, 74, 92
8, 163920, Note_off_c, 6, 74, 64
8, 163920, Note_on_c, 6, 75, 92
8, 164155, Note_off_c, 6, 75, 64
8, 164160, Note_on_c, 6, 76, 92
8, 164395, Note_off_c, 6, 76, 64
8, 164400, Note_on_c, 6, 71, 92
8, 164800, Note_off_c, 6, 71, 64
8, 164880, Note_on_c, 6, 71, 92
8, 165115, Note_off_c, 6, 71, 64
8, 165120, Note_on_c, 6, 64, 92
8, 165120, Note_on_c, 6, 69, 92
8, 165520, Note_off_c, 6, 69, 64
8, 165520, Note_off_c, 6, 64, 64
8, 165660, Note_on_c, 6, 73, 92
8, 165660, Note_on_c, 6, 76, 92
8, 165895, Note_off_c, 6, 76, 64
8, 165895, Note_off_c, 6, 73, 64
8, 166020, Note_on_c, 6, 73, 92
8, 166020, Note_on_c, 6, 76, 92
8, 166135, Note_off_c, 6, 76, 64
8, 166135, Note_off_c, 6, 73, 64
8, 166140, Note_on_c, 6, 73, 92
8, 166140, Note_on_c, 6, 76, 92
8, 166540, Note_off_c, 6, 76, 64
8, 166540, Note_off_c, 6, 73, 64
8, 167340, Note_on_c, 6, 62, 45
8, 167460, Note_off_c, 6, 62, 64
8, 167460, Note_on_c, 6, 61, 45
8, 167580, Note_off_c, 6, 61, 64
8, 167580, Note_on_c, 6, 62, 45
8, 167700, Note_off_c, 6, 62, 64
8, 167700, Note_on_c, 6, 64, 45
8, 167820, Note_off_c, 6, 64, 64
8, 167820, Note_on_c, 6, 65, 45
8, 167940, Note_off_c, 6, 65, 64
8, 167940, Note_on_c, 6, 67, 45
8, 168060, Note_off_c, 6, 67, 64
8, 168060, Note_on_c, 6, 65, 45
8, 168180, Note_off_c, 6, 65, 64
8, 168180, Note_on_c, 6, 64, 45
8, 168300, Note_off_c, 6, 64, 64
8, 168300, Note_on_c, 6, 62, 45
8, 168420, Note_off_c, 6, 62, 64
8, 168420, Note_on_c, 6, 61, 45
8, 168540, Note_off_c, 6, 61, 64
8, 168540, Note_on_c, 6, 62, 45
8, 168660, Note_off_c, 6, 62, 64
8, 168660, Note_on_c, 6, 64, 45
8, 168780, Note_off_c, 6, 64, 64
8, 168780, Note_on_c, 6, 65, 45
8, 168900, Note_off_c, 6, 65, 64
8, 168900, Note_on_c, 6, 64, 45
8, 169020, Note_off_c, 6, 64, 64
8, 169020, Note_on_c, 6, 65, 45
8, 169140, Note_off_c, 6, 65, 64
8, 169140, Note_on_c, 6, 62, 45
8, 169260, Note_off_c, 6, 62, 64
8, 169260, Note_on_c, 6, 62, 45
8, 169375, Note_off_c, 6, 62, 64
8, 169380, Note_on_c, 6, 70, 45
8, 169500, Note_off_c, 6, 70, 64
8, 169500, Note_on_c, 6, 74, 45
8, 169620, Note_off_c, 6, 74, 64
8, 169620, Note_on_c, 6, 72, 45
8, 169740, Note_off_c, 6, 72, 64
8, 169740, Note_on_c, 6, 70, 45
8, 169860, Note_off_c, 6, 70, 64
8, 169860, Note_on_c, 6, 72, 45
8, 169980, Note_off_c, 6, 72, 64
8, 169980, Note_on_c, 6, 70, 45
8, 170100, Note_off_c, 6, 70, 64
8, 170100, Note_on_c, 6, 69, 45
8, 170220, Note_off_c, 6, 69, 64
8, 170220, Note_on_c, 6, 70, 45
8, 170340, Note_off_c, 6, 70, 64
8, 170340, Note_on_c, 6, 69, 45
8, 170460, Note_off_c, 6, 69, 64
8, 170460, Note_on_c, 6, 67, 45
8, 170580, Note_off_c, 6, 67, 64
8, 170580, Note_on_c, 6, 69, 45
8, 170700, Note_off_c, 6, 69, 64
8, 170700, Note_on_c, 6, 67, 45
8, 170820, Note_off_c, 6, 67, 64
8, 170820, Note_on_c, 6, 65, 45
8, 170940, Note_off_c, 6, 65, 64
8, 170940, Note_on_c, 6, 64, 45
8, 171060, Note_off_c, 6, 64, 64
8, 171060, Note_on_c, 6, 65, 45
8, 171175, Note_off_c, 6, 65, 64
8, 171180, Note_on_c, 6, 64, 45
8, 171300, Note_off_c, 6, 64, 64
8, 171300, Note_on_c, 6, 62, 45
8, 171420, Note_off_c, 6, 62, 64
8, 171420, Note_on_c, 6, 61, 45
8, 171540, Note_off_c, 6, 61, 64
8, 171540, Note_on_c, 6, 62, 45
8, 171660, Note_off_c, 6, 62, 64
8, 171660, Note_on_c, 6, 64, 45
8, 171780, Note_off_c, 6, 64, 64
8, 171780, Note_on_c, 6, 65, 45
8, 171900, Note_off_c, 6, 65, 64
8, 171900, Note_on_c, 6, 67, 45
8, 172020, Note_off_c, 6, 67, 64
8, 172020, Note_on_c, 6, 65, 45
8, 172140, Note_off_c, 6, 65, 64
8, 172140, Note_on_c, 6, 67, 45
8, 172260, Note_off_c, 6, 67, 64
8, 172260, Note_on_c, 6, 69, 45
8, 172380, Note_off_c, 6, 69, 64
8, 172380, Note_on_c, 6, 70, 45
8, 172500, Note_off_c, 6, 70, 64
8, 172500, Note_on_c, 6, 69, 45
8, 172620, Note_off_c, 6, 69, 64
8, 172620, Note_on_c, 6, 72, 45
8, 172740, Note_off_c, 6, 72, 64
8, 172740, Note_on_c, 6, 70, 45
8, 172860, Note_off_c, 6, 70, 64
8, 172860, Note_on_c, 6, 69, 45
8, 172980, Note_off_c, 6, 69, 64
8, 172980, Note_on_c, 6, 67, 45
8, 173095, Note_off_c, 6, 67, 64
8, 173100, Note_on_c, 6, 65, 45
8, 173220, Note_off_c, 6, 65, 64
8, 173220, Note_on_c, 6, 64, 45
8, 173340, Note_off_c, 6, 64, 64
8, 173340, Note_on_c, 6, 62, 45
8, 173460, Note_off_c, 6, 62, 64
8, 173460, Note_on_c, 6, 61, 45
8, 173580, Note_off_c, 6, 61, 64
8, 173580, Note_on_c, 6, 62, 45
8, 173700, Note_off_c, 6, 62, 64
8, 173700, Note_on_c, 6, 64, 45
8, 173820, Note_off_c, 6, 64, 64
8, 173820, Note_on_c, 6, 62, 45
8, 173940, Note_off_c, 6, 62, 64
8, 173940, Note_on_c, 6, 64, 45
8, 174060, Note_off_c, 6, 64, 64
8, 174060, Note_on_c, 6, 65, 45
8, 174180, Note_off_c, 6, 65, 64
8, 174180, Note_on_c, 6, 64, 45
8, 174300, Note_off_c, 6, 64, 64
8, 174300, Note_on_c, 6, 62, 45
8, 174420, Note_off_c, 6, 62, 64
8, 174420, Note_on_c, 6, 61, 45
8, 174540, Note_off_c, 6, 61, 64
8, 174540, Note_on_c, 6, 62, 45
8, 174660, Note_off_c, 6, 62, 64
8, 174660, Note_on_c, 6, 64, 45
8, 174780, Note_off_c, 6, 64, 64
8, 174780, Note_on_c, 6, 65, 45
8, 174900, Note_off_c, 6, 65, 64
8, 174900, Note_on_c, 6, 67, 45
8, 175015, Note_off_c, 6, 67, 64
8, 175020, Note_on_c, 6, 69, 45
8, 175140, Note_off_c, 6, 69, 64
8, 175140, Note_on_c, 6, 67, 45
8, 175260, Note_off_c, 6, 67, 64
8, 175260, Note_on_c, 6, 65, 45
8, 175380, Note_off_c, 6, 65, 64
8, 175380, Note_on_c, 6, 64, 45
8, 175500, Note_off_c, 6, 64, 64
8, 175500, Note_on_c, 6, 62, 45
8, 175620, Note_off_c, 6, 62, 64
8, 175620, Note_on_c, 6, 64, 45
8, 175740, Note_off_c, 6, 64, 64
8, 175740, Note_on_c, 6, 65, 45
8, 175860, Note_off_c, 6, 65, 64
8, 175860, Note_on_c, 6, 67, 45
8, 175980, Note_off_c, 6, 67, 64
8, 175980, Note_on_c, 6, 69, 45
8, 176100, Note_off_c, 6, 69, 64
8, 176100, Note_on_c, 6, 67, 45
8, 176220, Note_off_c, 6, 67, 64
8, 176220, Note_on_c, 6, 65, 45
8, 176340, Note_off_c, 6, 65, 64
8, 176340, Note_on_c, 6, 64, 45
8, 176460, Note_off_c, 6, 64, 64
8, 176460, Note_on_c, 6, 62, 45
8, 176580, Note_off_c, 6, 62, 64
8, 176580, Note_on_c, 6, 65, 45
8, 176700, Note_off_c, 6, 65, 64
8, 176700, Note_on_c, 6, 67, 45
8, 176820, Note_off_c, 6, 67, 64
8, 176820, Note_on_c, 6, 69, 45
8, 176935, Note_off_c, 6, 69, 64
8, 176940, Note_on_c, 6, 70, 45
8, 177060, Note_off_c, 6, 70, 64
8, 177060, Note_on_c, 6, 69, 45
8, 177180, Note_off_c, 6, 69, 64
8, 177180, Note_on_c, 6, 67, 45
8, 177300, Note_off_c, 6, 67, 64
8, 177300, Note_on_c, 6, 65, 45
8, 177420, Note_off_c, 6, 65, 64
8, 177420, Note_on_c, 6, 64, 45
8, 177540, Note_off_c, 6, 64, 64
8, 177540, Note_on_c, 6, 65, 45
8, 177660, Note_off_c, 6, 65, 64
8, 177660, Note_on_c, 6, 67, 45
8, 177780, Note_off_c, 6, 67, 64
8, 177780, Note_on_c, 6, 69, 45
8, 177900, Note_off_c, 6, 69, 64
8, 177900, Note_on_c, 6, 70, 45
8, 178020, Note_off_c, 6, 70, 64
8, 178020, Note_on_c, 6, 72, 45
8, 178140, Note_off_c, 6, 72, 64
8, 178140, Note_on_c, 6, 70, 45
8, 178260, Note_off_c, 6, 70, 64
8, 178260, Note_on_c, 6, 69, 45
8, 178380, Note_off_c, 6, 69, 64
8, 178380, Note_on_c, 6, 67, 45
8, 178500, Note_off_c, 6, 67, 64
8, 178500, Note_on_c, 6, 69, 45
8, 178620, Note_off_c, 6, 69, 64
8, 178620, Note_on_c, 6, 70, 45
8, 178740, Note_off_c, 6, 70, 64
8, 178740, Note_on_c, 6, 67, 45
8, 178855, Note_off_c, 6, 67, 64
8, 178860, Note_on_c, 6, 64, 45
8, 178980, Note_off_c, 6, 64, 64
8, 178980, Note_on_c, 6, 65, 45
8, 179100, Note_off_c, 6, 65, 64
8, 179100, Note_on_c, 6, 67, 45
8, 179220, Note_off_c, 6, 67, 64
8, 179220, Note_on_c, 6, 65, 45
8, 179340, Note_off_c, 6, 65, 64
8, 179340, Note_on_c, 6, 67, 45
8, 179460, Note_off_c, 6, 67, 64
8, 179460, Note_on_c, 6, 69, 45
8, 179580, Note_off_c, 6, 69, 64
8, 179580, Note_on_c, 6, 70, 45
8, 179700, Note_off_c, 6, 70, 64
8, 179700, Note_on_c, 6, 69, 45
8, 179820, Note_off_c, 6, 69, 64
8, 179820, Note_on_c, 6, 67, 45
8, 179940, Note_off_c, 6, 67, 64
8, 179940, Note_on_c, 6, 65, 45
8, 180060, Note_off_c, 6, 65, 64
8, 180060, Note_on_c, 6, 64, 45
8, 180180, Note_off_c, 6, 64, 64
8, 180180, Note_on_c, 6, 67, 45
8, 180300, Note_off_c, 6, 67, 64
8, 180300, Note_on_c, 6, 65, 45
8, 180420, Note_off_c, 6, 65, 64
8, 180420, Note_on_c, 6, 71, 45
8, 180540, Note_off_c, 6, 71, 64
8, 180540, Note_on_c, 6, 74, 45
8, 180660, Note_off_c, 6, 74, 64
8, 180660, Note_on_c, 6, 65, 45
8, 180775, Note_off_c, 6, 65, 64
8, 180780, Note_on_c, 6, 64, 45
8, 180900, Note_off_c, 6, 64, 64
8, 180900, Note_on_c, 6, 62, 45
8, 181020, Note_off_c, 6, 62, 64
8, 181020, Note_on_c, 6, 61, 45
8, 181140, Note_off_c, 6, 61, 64
8, 181140, Note_on_c, 6, 62, 45
8, 181260, Note_off_c, 6, 62, 64
8, 181260, Note_on_c, 6, 64, 45
8, 181380, Note_off_c, 6, 64, 64
8, 181380, Note_on_c, 6, 62, 45
8, 181500, Note_off_c, 6, 62, 64
8, 181500, Note_on_c, 6, 64, 45
8, 181620, Note_off_c, 6, 64, 64
8, 181620, Note_on_c, 6, 61, 45
8, 181740, Note_off_c, 6, 61, 64
8, 181740, Note_on_c, 6, 62, 45
8, 181860, Note_off_c, 6, 62, 64
8, 181860, Note_on_c, 6, 64, 45
8, 181980, Note_off_c, 6, 64, 64
8, 181980, Note_on_c, 6, 65, 45
8, 182100, Note_off_c, 6, 65, 64
8, 182100, Note_on_c, 6, 67, 45
8, 182220, Note_off_c, 6, 67, 64
8, 182220, Note_on_c, 6, 69, 45
8, 182340, Note_off_c, 6, 69, 64
8, 182340, Note_on_c, 6, 65, 45
8, 182460, Note_off_c, 6, 65, 64
8, 182460, Note_on_c, 6, 64, 45
8, 182580, Note_off_c, 6, 64, 64
8, 182580, Note_on_c, 6, 62, 45
8, 182695, Note_off_c, 6, 62, 64
8, 182700, Note_on_c, 6, 61, 45
8, 182820, Note_off_c, 6, 61, 64
8, 182820, Note_on_c, 6, 62, 45
8, 182940, Note_off_c, 6, 62, 64
8, 182940, Note_on_c, 6, 64, 45
8, 183060, Note_off_c, 6, 64, 64
8, 183060, Note_on_c, 6, 62, 45
8, 183180, Note_off_c, 6, 62, 64
8, 183180, Note_on_c, 6, 61, 45
8, 183300, Note_off_c, 6, 61, 64
8, 183300, Note_on_c, 6, 59, 45
8, 183420, Note_off_c, 6, 59, 64
8, 183420, Note_on_c, 6, 61, 45
8, 183540, Note_off_c, 6, 61, 64
8, 183540, Note_on_c, 6, 57, 45
8, 183660, Note_off_c, 6, 57, 64
8, 183660, Note_on_c, 6, 62, 45
8, 183780, Note_off_c, 6, 62, 64
8, 183780, Note_on_c, 6, 64, 45
8, 183900, Note_off_c, 6, 64, 64
8, 183900, Note_on_c, 6, 65, 45
8, 184020, Note_off_c, 6, 65, 64
8, 184020, Note_on_c, 6, 67, 45
8, 184140, Note_off_c, 6, 67, 64
8, 184140, Note_on_c, 6, 69, 45
8, 184260, Note_off_c, 6, 69, 64
8, 184260, Note_on_c, 6, 65, 45
8, 184380, Note_off_c, 6, 65, 64
8, 184380, Note_on_c, 6, 64, 45
8, 184500, Note_off_c, 6, 64, 64
8, 184500, Note_on_c, 6, 62, 45
8, 184615, Note_off_c, 6, 62, 64
8, 184620, Note_on_c, 6, 61, 45
8, 184740, Note_off_c, 6, 61, 64
8, 184740, Note_on_c, 6, 62, 45
8, 184860, Note_off_c, 6, 62, 64
8, 184860, Note_on_c, 6, 64, 45
8, 184980, Note_off_c, 6, 64, 64
8, 184980, Note_on_c, 6, 62, 45
8, 185100, Note_off_c, 6, 62, 64
8, 185100, Note_on_c, 6, 61, 45
8, 185220, Note_off_c, 6, 61, 64
8, 185220, Note_on_c, 6, 62, 45
8, 185340, Note_off_c, 6, 62, 64
8, 185340, Note_on_c, 6, 64, 45
8, 185460, Note_off_c, 6, 64, 64
8, 185460, Note_on_c, 6, 62, 45
8, 185580, Note_off_c, 6, 62, 64
8, 185580, Note_on_c, 6, 61, 45
8, 185700, Note_off_c, 6, 61, 64
8, 185700, Note_on_c, 6, 62, 45
8, 185820, Note_off_c, 6, 62, 64
8, 185820, Note_on_c, 6, 64, 45
8, 185940, Note_off_c, 6, 64, 64
8, 185940, Note_on_c, 6, 62, 45
8, 186060, Note_off_c, 6, 62, 64
8, 186060, Note_on_c, 6, 61, 45
8, 186180, Note_off_c, 6, 61, 64
8, 186180, Note_on_c, 6, 62, 45
8, 186300, Note_off_c, 6, 62, 64
8, 186300, Note_on_c, 6, 64, 45
8, 186420, Note_off_c, 6, 64, 64
8, 186420, Note_on_c, 6, 61, 45
8, 186540, Note_off_c, 6, 61, 64
8, 186540, Note_on_c, 6, 62, 45
8, 187500, Note_off_c, 6, 62, 64
8, 187500, Note_on_c, 6, 68, 60
8, 188460, Note_off_c, 6, 68, 64
8, 188460, Note_on_c, 6, 69, 75
8, 188540, Note_off_c, 6, 69, 64
8, 188700, Note_on_c, 6, 69, 75
8, 188940, Note_off_c, 6, 69, 64
8, 188940, Note_on_c, 6, 71, 75
8, 189180, Note_off_c, 6, 71, 64
8, 189180, Note_on_c, 6, 69, 75
8, 189420, Note_off_c, 6, 69, 64
8, 189420, Note_on_c, 6, 67, 75
8, 189660, Note_off_c, 6, 67, 64
8, 189660, Note_on_c, 6, 66, 75
8, 189900, Note_off_c, 6, 66, 64
8, 189900, Note_on_c, 6, 67, 75
8, 190140, Note_off_c, 6, 67, 64
8, 190140, Note_on_c, 6, 64, 75
8, 190380, Note_off_c, 6, 64, 64
8, 190380, Note_on_c, 6, 66, 75
8, 190460, Note_off_c, 6, 66, 64
8, 190620, Note_on_c, 6, 66, 75
8, 190860, Note_off_c, 6, 66, 64
8, 190860, Note_on_c, 6, 67, 75
8, 191100, Note_off_c, 6, 67, 64
8, 191100, Note_on_c, 6, 66, 75
8, 191340, Note_off_c, 6, 66, 64
8, 191340, Note_on_c, 6, 64, 75
8, 191580, Note_off_c, 6, 64, 64
8, 191580, Note_on_c, 6, 62, 75
8, 191820, Note_off_c, 6, 62, 64
8, 191820, Note_on_c, 6, 64, 75
8, 192060, Note_off_c, 6, 64, 64
8, 192060, Note_on_c, 6, 61, 75
8, 192295, Note_off_c, 6, 61, 64
8, 192300, Note_on_c, 6, 66, 75
8, 192535, Note_off_c, 6, 66, 64
8, 192540, Note_on_c, 6, 66, 75
8, 192775, Note_off_c, 6, 66, 64
8, 192780, Note_on_c, 6, 66, 75
8, 193015, Note_off_c, 6, 66, 64
8, 193020, Note_on_c, 6, 66, 75
8, 193255, Note_off_c, 6, 66, 64
8, 193260, Note_on_c, 6, 66, 75
8, 193495, Note_off_c, 6, 66, 64
8, 193500, Note_on_c, 6, 66, 75
8, 193735, Note_off_c, 6, 66, 64
8, 193740, Note_on_c, 6, 66, 75
8, 193975, Note_off_c, 6, 66, 64
8, 193980, Note_on_c, 6, 66, 75
8, 194215, Note_off_c, 6, 66, 64
8, 194220, Note_on_c, 6, 69, 75
8, 194455, Note_off_c, 6, 69, 64
8, 194460, Note_on_c, 6, 69, 75
8, 194695, Note_off_c, 6, 69, 64
8, 194700, Note_on_c, 6, 69, 75
8, 194935, Note_off_c, 6, 69, 64
8, 194940, Note_on_c, 6, 69, 75
8, 195175, Note_off_c, 6, 69, 64
8, 195180, Note_on_c, 6, 66, 75
8, 195415, Note_off_c, 6, 66, 64
8, 195420, Note_on_c, 6, 66, 75
8, 195655, Note_off_c, 6, 66, 64
8, 195660, Note_on_c, 6, 66, 75
8, 195895, Note_off_c, 6, 66, 64
8, 195900, Note_on_c, 6, 66, 75
8, 196135, Note_off_c, 6, 66, 64
8, 196140, Note_on_c, 6, 64, 92
8, 196260, Note_off_c, 6, 64, 64
8, 196260, Note_on_c, 6, 66, 92
8, 196380, Note_off_c, 6, 66, 64
8, 196380, Note_on_c, 6, 67, 92
8, 196500, Note_off_c, 6, 67, 64
8, 196500, Note_on_c, 6, 66, 92
8, 196620, Note_off_c, 6, 66, 64
8, 196620, Note_on_c, 6, 64, 92
8, 196740, Note_off_c, 6, 64, 64
8, 196740, Note_on_c, 6, 66, 92
8, 196860, Note_off_c, 6, 66, 64
8, 196860, Note_on_c, 6, 67, 92
8, 196980, Note_off_c, 6, 67, 64
8, 196980, Note_on_c, 6, 66, 92
8, 197100, Note_off_c, 6, 66, 64
8, 197100, Note_on_c, 6, 64, 92
8, 197220, Note_off_c, 6, 64, 64
8, 197220, Note_on_c, 6, 66, 92
8, 197340, Note_off_c, 6, 66, 64
8, 197340, Note_on_c, 6, 67, 92
8, 197460, Note_off_c, 6, 67, 64
8, 197460, Note_on_c, 6, 66, 92
8, 197580, Note_off_c, 6, 66, 64
8, 197580, Note_on_c, 6, 64, 92
8, 197700, Note_off_c, 6, 64, 64
8, 197700, Note_on_c, 6, 66, 92
8, 197820, Note_off_c, 6, 66, 64
8, 197820, Note_on_c, 6, 67, 92
8, 197940, Note_off_c, 6, 67, 64
8, 197940, Note_on_c, 6, 64, 92
8, 198060, Note_off_c, 6, 64, 64
8, 198060, Note_on_c, 6, 66, 92
8, 198655, Note_off_c, 6, 66, 64
8, 199260, Note_on_c, 6, 62, 92
8, 199500, Note_off_c, 6, 62, 64
8, 199500, Note_on_c, 6, 66, 92
8, 199740, Note_off_c, 6, 66, 64
8, 199740, Note_on_c, 6, 69, 92
8, 199975, Note_off_c, 6, 69, 64
8, 199980, Note_on_c, 6, 61, 92
8, 200100, Note_off_c, 6, 61, 64
8, 200100, Note_on_c, 6, 62, 92
8, 200220, Note_off_c, 6, 62, 64
8, 200220, Note_on_c, 6, 64, 92
8, 200340, Note_off_c, 6, 64, 64
8, 200340, Note_on_c, 6, 62, 92
8, 200460, Note_off_c, 6, 62, 64
8, 200460, Note_on_c, 6, 61, 92
8, 200580, Note_off_c, 6, 61, 64
8, 200580, Note_on_c, 6, 62, 92
8, 200700, Note_off_c, 6, 62, 64
8, 200700, Note_on_c, 6, 64, 92
8, 200820, Note_off_c, 6, 64, 64
8, 200820, Note_on_c, 6, 62, 92
8, 200940, Note_off_c, 6, 62, 64
8, 200940, Note_on_c, 6, 61, 92
8, 201060, Note_off_c, 6, 61, 64
8, 201060, Note_on_c, 6, 62, 92
8, 201180, Note_off_c, 6, 62, 64
8, 201180, Note_on_c, 6, 64, 92
8, 201300, Note_off_c, 6, 64, 64
8, 201300, Note_on_c, 6, 62, 92
8, 201420, Note_off_c, 6, 62, 64
8, 201420, Note_on_c, 6, 61, 92
8, 201540, Note_off_c, 6, 61, 64
8, 201540, Note_on_c, 6, 62, 92
8, 201660, Note_off_c, 6, 62, 64
8, 201660, Note_on_c, 6, 64, 92
8, 201780, Note_off_c, 6, 64, 64
8, 201780, Note_on_c, 6, 61, 92
8, 201900, Note_off_c, 6, 61, 64
8, 201900, Note_on_c, 6, 62, 75
8, 202135, Note_off_c, 6, 62, 64
8, 202140, Note_on_c, 6, 69, 75
8, 202540, Note_off_c, 6, 69, 64
8, 202620, Note_on_c, 6, 69, 75
8, 203020, Note_off_c, 6, 69, 64
8, 203100, Note_on_c, 6, 69, 75
8, 203500, Note_off_c, 6, 69, 64
8, 203580, Note_on_c, 6, 69, 75
8, 203815, Note_off_c, 6, 69, 64
8, 203820, Note_on_c, 6, 69, 75
8, 204055, Note_off_c, 6, 69, 64
8, 204060, Note_on_c, 6, 69, 75
8, 204295, Note_off_c, 6, 69, 64
8, 204300, Note_on_c, 6, 69, 75
8, 204535, Note_off_c, 6, 69, 64
8, 204540, Note_on_c, 6, 69, 75
8, 204775, Note_off_c, 6, 69, 64
8, 204780, Note_on_c, 6, 74, 75
8, 205015, Note_off_c, 6, 74, 64
8, 205020, Note_on_c, 6, 74, 75
8, 205255, Note_off_c, 6, 74, 64
8, 205260, Note_on_c, 6, 74, 75
8, 205495, Note_off_c, 6, 74, 64
8, 205500, Note_on_c, 6, 74, 75
8, 205735, Note_off_c, 6, 74, 64
8, 205740, Note_on_c, 6, 74, 75
8, 205975, Note_off_c, 6, 74, 64
8, 205980, Note_on_c, 6, 71, 75
8, 206380, Note_off_c, 6, 71, 64
8, 206460, Note_on_c, 6, 71, 75
8, 206860, Note_off_c, 6, 71, 64
8, 206940, Note_on_c, 6, 71, 92
8, 207180, Note_off_c, 6, 71, 64
8, 207180, Note_on_c, 6, 76, 92
8, 207420, Note_off_c, 6, 76, 64
8, 207420, Note_on_c, 6, 79, 92
8, 207655, Note_off_c, 6, 79, 64
8, 207660, Note_on_c, 6, 77, 92
8, 207780, Note_off_c, 6, 77, 64
8, 207780, Note_on_c, 6, 78, 92
8, 208540, Note_off_c, 6, 78, 64
8, 208620, Note_on_c, 6, 77, 92
8, 208740, Note_off_c, 6, 77, 64
8, 208740, Note_on_c, 6, 78, 92
8, 209095, Note_off_c, 6, 78, 64
8, 209100, Note_on_c, 6, 77, 92
8, 209220, Note_off_c, 6, 77, 64
8, 209220, Note_on_c, 6, 78, 92
8, 209575, Note_off_c, 6, 78, 64
8, 209580, Note_on_c, 6, 75, 92
8, 209700, Note_off_c, 6, 75, 64
8, 209700, Note_on_c, 6, 76, 92
8, 209815, Note_off_c, 6, 76, 64
8, 210000, Note_on_c, 6, 75, 92
8, 210120, Note_off_c, 6, 75, 64
8, 210120, Note_on_c, 6, 76, 92
8, 210655, Note_off_c, 6, 76, 64
8, 210780, Note_on_c, 6, 75, 92
8, 210900, Note_off_c, 6, 75, 64
8, 210900, Note_on_c, 6, 76, 92
8, 211015, Note_off_c, 6, 76, 64
8, 211020, Note_on_c, 6, 78, 92
8, 211100, Note_off_c, 6, 78, 64
8, 211140, Note_on_c, 6, 76, 92
8, 211220, Note_off_c, 6, 76, 64
8, 211260, Note_on_c, 6, 75, 92
8, 211340, Note_off_c, 6, 75, 64
8, 211380, Note_on_c, 6, 73, 92
8, 211460, Note_off_c, 6, 73, 64
8, 211500, Note_on_c, 6, 74, 75
8, 211900, Note_off_c, 6, 74, 64
8, 212220, Note_on_c, 6, 73, 75
8, 212455, Note_off_c, 6, 73, 64
8, 212460, Note_on_c, 6, 74, 75
8, 212860, Note_off_c, 6, 74, 64
8, 213180, Note_on_c, 6, 67, 75
8, 213415, Note_off_c, 6, 67, 64
8, 213420, Note_on_c, 6, 66, 75
8, 213820, Note_off_c, 6, 66, 64
8, 214140, Note_on_c, 6, 73, 75
8, 214375, Note_off_c, 6, 73, 64
8, 214380, Note_on_c, 6, 74, 75
8, 214780, Note_off_c, 6, 74, 64
8, 215340, Note_on_c, 6, 86, 92
8, 216660, Note_off_c, 6, 86, 64
8, 216780, Note_on_c, 6, 81, 92
8, 217135, Note_off_c, 6, 81, 64
8, 217140, Note_on_c, 6, 78, 92
8, 217255, Note_off_c, 6, 78, 64
8, 217260, Note_on_c, 6, 74, 92
8, 217660, Note_off_c, 6, 74, 64
8, 217740, Note_on_c, 6, 69, 92
8, 218095, Note_off_c, 6, 69, 64
8, 218100, Note_on_c, 6, 66, 92
8, 218215, Note_off_c, 6, 66, 64
8, 218220, Note_on_c, 6, 62, 92
8, 218455, Note_off_c, 6, 62, 64
8, 218460, Note_on_c, 6, 86, 92
8, 218540, Note_off_c, 6, 86, 64
8, 218700, Note_on_c, 6, 86, 92
8, 218780, Note_off_c, 6, 86, 64
8, 218940, Note_on_c, 6, 86, 92
8, 219020, Note_off_c, 6, 86, 64
8, 219180, Note_on_c, 6, 88, 92
8, 219210, Note_off_c, 6, 88, 64
8, 219210, Note_on_c, 6, 86, 92
8, 219240, Note_off_c, 6, 86, 64
8, 219240, Note_on_c, 6, 88, 92
8, 219270, Note_off_c, 6, 88, 64
8, 219270, Note_on_c, 6, 86, 92
8, 219300, Note_off_c, 6, 86, 64
8, 219300, Note_on_c, 6, 88, 92
8, 219330, Note_off_c, 6, 88, 64
8, 219330, Note_on_c, 6, 86, 92
8, 219360, Note_off_c, 6, 86, 64
8, 219360, Note_on_c, 6, 88, 92
8, 219390, Note_off_c, 6, 88, 64
8, 219390, Note_on_c, 6, 86, 92
8, 219420, Note_off_c, 6, 86, 64
8, 219420, Note_on_c, 6, 84, 92
8, 219655, Note_off_c, 6, 84, 64
8, 219660, Note_on_c, 6, 84, 92
8, 220060, Note_off_c, 6, 84, 64
8, 222300, Note_on_c, 6, 78, 92
8, 222420, Note_off_c, 6, 78, 64
8, 222420, Note_on_c, 6, 79, 92
8, 222540, Note_off_c, 6, 79, 64
8, 222540, Note_on_c, 6, 81, 92
8, 222620, Note_off_c, 6, 81, 64
8, 222780, Note_on_c, 6, 81, 92
8, 222860, Note_off_c, 6, 81, 64
8, 223020, Note_on_c, 6, 79, 75
8, 223420, Note_off_c, 6, 79, 64
8, 223500, Note_on_c, 6, 67, 75
8, 223980, Note_off_c, 6, 67, 64
8, 223980, Note_on_c, 6, 66, 75
8, 224380, Note_off_c, 6, 66, 64
8, 224460, Note_on_c, 6, 78, 75
8, 224940, Note_off_c, 6, 78, 64
8, 224940, Note_on_c, 6, 79, 75
8, 225340, Note_off_c, 6, 79, 64
8, 225420, Note_on_c, 6, 72, 75
8, 225900, Note_off_c, 6, 72, 64
8, 225900, Note_on_c, 6, 71, 75
8, 226300, Note_off_c, 6, 71, 64
8, 226380, Note_on_c, 6, 59, 75
8, 226860, Note_off_c, 6, 59, 64
8, 226860, Note_on_c, 6, 57, 92
8, 226975, Note_off_c, 6, 57, 64
8, 226980, Note_on_c, 6, 69, 92
8, 227095, Note_off_c, 6, 69, 64
8, 227100, Note_on_c, 6, 73, 92
8, 227215, Note_off_c, 6, 73, 64
8, 227220, Note_on_c, 6, 76, 92
8, 227335, Note_off_c, 6, 76, 64
8, 227340, Note_on_c, 6, 81, 92
8, 227455, Note_off_c, 6, 81, 64
8, 227460, Note_on_c, 6, 80, 92
8, 227575, Note_off_c, 6, 80, 64
8, 227580, Note_on_c, 6, 78, 92
8, 227695, Note_off_c, 6, 78, 64
8, 227700, Note_on_c, 6, 76, 92
8, 227815, Note_off_c, 6, 76, 64
8, 227820, Note_on_c, 6, 74, 92
8, 227935, Note_off_c, 6, 74, 64
8, 227940, Note_on_c, 6, 73, 92
8, 228055, Note_off_c, 6, 73, 64
8, 228060, Note_on_c, 6, 71, 92
8, 228175, Note_off_c, 6, 71, 64
8, 228180, Note_on_c, 6, 69, 92
8, 228295, Note_off_c, 6, 69, 64
8, 228300, Note_on_c, 6, 68, 92
8, 228415, Note_off_c, 6, 68, 64
8, 228420, Note_on_c, 6, 71, 92
8, 228535, Note_off_c, 6, 71, 64
8, 228540, Note_on_c, 6, 76, 92
8, 228655, Note_off_c, 6, 76, 64
8, 228660, Note_on_c, 6, 74, 92
8, 228775, Note_off_c, 6, 74, 64
8, 228780, Note_on_c, 6, 73, 92
8, 228895, Note_off_c, 6, 73, 64
8, 228900, Note_on_c, 6, 71, 92
8, 229015, Note_off_c, 6, 71, 64
8, 229020, Note_on_c, 6, 69, 92
8, 229135, Note_off_c, 6, 69, 64
8, 229140, Note_on_c, 6, 71, 92
8, 229255, Note_off_c, 6, 71, 64
8, 229260, Note_on_c, 6, 73, 92
8, 229375, Note_off_c, 6, 73, 64
8, 229380, Note_on_c, 6, 74, 92
8, 229495, Note_off_c, 6, 74, 64
8, 229500, Note_on_c, 6, 76, 92
8, 229615, Note_off_c, 6, 76, 64
8, 229620, Note_on_c, 6, 78, 92
8, 229735, Note_off_c, 6, 78, 64
8, 229740, Note_on_c, 6, 79, 92
8, 229855, Note_off_c, 6, 79, 64
8, 229860, Note_on_c, 6, 78, 92
8, 229975, Note_off_c, 6, 78, 64
8, 229980, Note_on_c, 6, 76, 92
8, 230095, Note_off_c, 6, 76, 64
8, 230100, Note_on_c, 6, 74, 92
8, 230215, Note_off_c, 6, 74, 64
8, 230220, Note_on_c, 6, 73, 92
8, 230335, Note_off_c, 6, 73, 64
8, 230340, Note_on_c, 6, 71, 92
8, 230455, Note_off_c, 6, 71, 64
8, 230460, Note_on_c, 6, 69, 92
8, 230575, Note_off_c, 6, 69, 64
8, 230580, Note_on_c, 6, 67, 92
8, 230695, Note_off_c, 6, 67, 64
8, 230700, Note_on_c, 6, 66, 92
8, 231100, Note_off_c, 6, 66, 64
8, 231180, Note_on_c, 6, 81, 60
8, 234775, Note_off_c, 6, 81, 64
8, 234780, Note_on_c, 6, 74, 92
8, 234860, Note_off_c, 6, 74, 64
8, 235020, Note_on_c, 6, 62, 92
8, 235100, Note_off_c, 6, 62, 64
8, 235260, Note_on_c, 6, 64, 92
8, 235285, Note_off_c, 6, 64, 64
8, 235290, Note_on_c, 6, 66, 92
8, 235315, Note_off_c, 6, 66, 64
8, 235320, Note_on_c, 6, 64, 92
8, 235350, Note_off_c, 6, 64, 64
8, 235350, Note_on_c, 6, 66, 92
8, 235380, Note_off_c, 6, 66, 64
8, 235380, Note_on_c, 6, 64, 92
8, 235410, Note_off_c, 6, 64, 64
8, 235410, Note_on_c, 6, 66, 92
8, 235440, Note_off_c, 6, 66, 64
8, 235440, Note_on_c, 6, 64, 92
8, 235465, Note_off_c, 6, 64, 64
8, 235470, Note_on_c, 6, 66, 92
8, 235495, Note_off_c, 6, 66, 64
8, 235500, Note_on_c, 6, 66, 92
8, 235580, Note_off_c, 6, 66, 64
8, 235740, Note_on_c, 6, 74, 92
8, 235820, Note_off_c, 6, 74, 64
8, 235980, Note_on_c, 6, 66, 92
8, 236060, Note_off_c, 6, 66, 64
8, 236220, Note_on_c, 6, 67, 92
8, 236250, Note_off_c, 6, 67, 64
8, 236250, Note_on_c, 6, 69, 92
8, 236280, Note_off_c, 6, 69, 64
8, 236280, Note_on_c, 6, 67, 92
8, 236310, Note_off_c, 6, 67, 64
8, 236310, Note_on_c, 6, 69, 92
8, 236340, Note_off_c, 6, 69, 64
8, 236340, Note_on_c, 6, 67, 92
8, 236370, Note_off_c, 6, 67, 64
8, 236370, Note_on_c, 6, 69, 92
8, 236400, Note_off_c, 6, 69, 64
8, 236400, Note_on_c, 6, 67, 92
8, 236430, Note_off_c, 6, 67, 64
8, 236430, Note_on_c, 6, 69, 92
8, 236460, Note_off_c, 6, 69, 64
8, 236460, Note_on_c, 6, 69, 92
8, 236540, Note_off_c, 6, 69, 64
8, 236700, Note_on_c, 6, 66, 92
8, 237180, Note_off_c, 6, 66, 64
8, 237180, Note_on_c, 6, 67, 92
8, 237415, Note_off_c, 6, 67, 64
8, 237420, Note_on_c, 6, 69, 92
8, 237500, Note_off_c, 6, 69, 64
8, 237660, Note_on_c, 6, 69, 92
8, 237900, Note_off_c, 6, 69, 64
8, 237900, Note_on_c, 6, 66, 92
8, 238140, Note_off_c, 6, 66, 64
8, 238140, Note_on_c, 6, 64, 92
8, 238380, Note_off_c, 6, 64, 64
8, 238380, Note_on_c, 6, 62, 92
8, 238615, Note_off_c, 6, 62, 64
8, 238620, Note_on_c, 6, 69, 92
8, 239020, Note_off_c, 6, 69, 64
8, 239100, Note_on_c, 6, 69, 92
8, 239500, Note_off_c, 6, 69, 64
8, 239580, Note_on_c, 6, 74, 92
8, 239980, Note_off_c, 6, 74, 64
8, 240060, Note_on_c, 6, 74, 92
8, 240380, Note_off_c, 6, 74, 64
8, 240540, Note_on_c, 6, 74, 92
8, 240620, Note_off_c, 6, 74, 64
8, 240780, Note_on_c, 6, 74, 92
8, 240860, Note_off_c, 6, 74, 64
8, 241020, Note_on_c, 6, 74, 92
8, 241100, Note_off_c, 6, 74, 64
8, 241260, Note_on_c, 6, 62, 92
8, 241340, Note_off_c, 6, 62, 64
8, 241500, Note_on_c, 6, 62, 92
8, 241580, Note_off_c, 6, 62, 64
8, 241740, Note_on_c, 6, 62, 92
8, 241820, Note_off_c, 6, 62, 64
8, 241980, Note_on_c, 6, 62, 92
8, 242060, Note_off_c, 6, 62, 64
8, 242220, Note_on_c, 6, 60, 92
8, 242300, Note_off_c, 6, 60, 64
8, 242460, Note_on_c, 6, 60, 89
8, 242540, Note_off_c, 6, 60, 64
8, 242700, Note_on_c, 6, 60, 86
8, 242780, Note_off_c, 6, 60, 64
8, 242940, Note_on_c, 6, 60, 82
8, 243020, Note_off_c, 6, 60, 64
8, 243180, Note_on_c, 6, 60, 78
8, 243260, Note_off_c, 6, 60, 64
8, 243420, Note_on_c, 6, 60, 74
8, 243500, Note_off_c, 6, 60, 64
8, 243660, Note_on_c, 6, 60, 70
8, 243740, Note_off_c, 6, 60, 64
8, 243900, Note_on_c, 6, 60, 66
8, 243980, Note_off_c, 6, 60, 64
8, 244140, Note_on_c, 6, 59, 62
8, 244220, Note_off_c, 6, 59, 64
8, 244380, Note_on_c, 6, 59, 58
8, 244460, Note_off_c, 6, 59, 64
8, 244620, Note_on_c, 6, 59, 54
8, 244700, Note_off_c, 6, 59, 64
8, 244860, Note_on_c, 6, 59, 50
8, 244940, Note_off_c, 6, 59, 64
8, 245100, Note_on_c, 6, 64, 46
8, 245180, Note_off_c, 6, 64, 64
8, 245340, Note_on_c, 6, 64, 42
8, 245420, Note_off_c, 6, 64, 64
8, 245580, Note_on_c, 6, 64, 38
8, 245660, Note_off_c, 6, 64, 64
8, 245820, Note_on_c, 6, 64, 34
8, 245900, Note_off_c, 6, 64, 64
8, 246060, Note_on_c, 6, 62, 30
8, 246300, Note_off_c, 6, 62, 64
8, 246300, Note_on_c, 6, 69, 30
8, 246380, Note_off_c, 6, 69, 64
8, 246540, Note_on_c, 6, 69, 30
8, 246620, Note_off_c, 6, 69, 64
8, 246780, Note_on_c, 6, 69, 30
8, 246860, Note_off_c, 6, 69, 64
8, 247020, Note_on_c, 6, 69, 30
8, 247420, Note_off_c, 6, 69, 64
8, 247980, Note_on_c, 6, 62, 30
8, 248220, Note_off_c, 6, 62, 64
8, 248220, Note_on_c, 6, 71, 30
8, 248300, Note_off_c, 6, 71, 64
8, 248460, Note_on_c, 6, 71, 34
8, 248540, Note_off_c, 6, 71, 64
8, 248700, Note_on_c, 6, 71, 38
8, 248780, Note_off_c, 6, 71, 64
8, 248940, Note_on_c, 6, 71, 42
8, 249340, Note_off_c, 6, 71, 64
8, 249900, Note_on_c, 6, 66, 60
8, 250140, Note_off_c, 6, 66, 64
8, 250140, Note_on_c, 6, 74, 60
8, 250220, Note_off_c, 6, 74, 64
8, 250380, Note_on_c, 6, 74, 62
8, 250460, Note_off_c, 6, 74, 64
8, 250620, Note_on_c, 6, 74, 64
8, 250700, Note_off_c, 6, 74, 64
8, 250860, Note_on_c, 6, 74, 66
8, 251260, Note_off_c, 6, 74, 64
8, 251820, Note_on_c, 6, 71, 75
8, 252220, Note_off_c, 6, 71, 64
8, 253980, Note_on_c, 6, 62, 92
8, 254380, Note_off_c, 6, 62, 64
8, 254460, Note_on_c, 6, 62, 92
8, 254860, Note_off_c, 6, 62, 64
8, 254940, Note_on_c, 6, 62, 92
8, 255340, Note_off_c, 6, 62, 64
8, 255420, Note_on_c, 6, 62, 92
8, 255895, Note_off_c, 6, 62, 64
8, 255900, Note_on_c, 6, 71, 92
8, 256135, Note_off_c, 6, 71, 64
8, 256140, Note_on_c, 6, 71, 92
8, 256375, Note_off_c, 6, 71, 64
8, 256380, Note_on_c, 6, 71, 92
8, 256615, Note_off_c, 6, 71, 64
8, 256620, Note_on_c, 6, 71, 92
8, 256860, Note_off_c, 6, 71, 64
8, 256860, Note_on_c, 6, 74, 92
8, 257095, Note_off_c, 6, 74, 64
8, 257100, Note_on_c, 6, 81, 92
8, 257220, Note_off_c, 6, 81, 64
8, 257220, Note_on_c, 6, 79, 92
8, 257335, Note_off_c, 6, 79, 64
8, 257340, Note_on_c, 6, 78, 92
8, 257420, Note_off_c, 6, 78, 64
8, 257460, Note_on_c, 6, 76, 92
8, 257540, Note_off_c, 6, 76, 64
8, 257580, Note_on_c, 6, 74, 92
8, 257980, Note_off_c, 6, 74, 64
8, 258060, Note_on_c, 6, 74, 92
8, 258900, Note_off_c, 6, 74, 64
8, 259020, Note_on_c, 6, 73, 92
8, 259050, Note_off_c, 6, 73, 64
8, 259050, Note_on_c, 6, 74, 92
8, 259080, Note_off_c, 6, 74, 64
8, 259080, Note_on_c, 6, 73, 92
8, 259110, Note_off_c, 6, 73, 64
8, 259110, Note_on_c, 6, 74, 92
8, 259140, Note_off_c, 6, 74, 64
8, 259140, Note_on_c, 6, 73, 92
8, 259170, Note_off_c, 6, 73, 64
8, 259170, Note_on_c, 6, 74, 92
8, 259200, Note_off_c, 6, 74, 64
8, 259200, Note_on_c, 6, 73, 92
8, 259230, Note_off_c, 6, 73, 64
8, 259230, Note_on_c, 6, 74, 92
8, 259260, Note_off_c, 6, 74, 64
8, 259260, Note_on_c, 6, 73, 92
8, 259290, Note_off_c, 6, 73, 64
8, 259290, Note_on_c, 6, 74, 92
8, 259320, Note_off_c, 6, 74, 64
8, 259320, Note_on_c, 6, 73, 92
8, 259350, Note_off_c, 6, 73, 64
8, 259350, Note_on_c, 6, 74, 92
8, 259380, Note_off_c, 6, 74, 64
8, 259380, Note_on_c, 6, 73, 92
8, 259410, Note_off_c, 6, 73, 64
8, 259410, Note_on_c, 6, 74, 92
8, 259440, Note_off_c, 6, 74, 64
8, 259440, Note_on_c, 6, 73, 92
8, 259470, Note_off_c, 6, 73, 64
8, 259470, Note_on_c, 6, 74, 92
8, 259500, Note_off_c, 6, 74, 64
8, 259500, Note_on_c, 6, 74, 92
8, 259580, Note_off_c, 6, 74, 64
8, 259740, Note_on_c, 6, 69, 92
8, 259860, Note_off_c, 6, 69, 64
8, 259860, Note_on_c, 6, 72, 92
8, 259980, Note_off_c, 6, 72, 64
8, 259980, Note_on_c, 6, 71, 92
8, 260100, Note_off_c, 6, 71, 64
8, 260100, Note_on_c, 6, 74, 92
8, 260220, Note_off_c, 6, 74, 64
8, 260220, Note_on_c, 6, 73, 92
8, 260340, Note_off_c, 6, 73, 64
8, 260340, Note_on_c, 6, 76, 92
8, 260460, Note_off_c, 6, 76, 64
8, 260460, Note_on_c, 6, 74, 92
8, 260860, Note_off_c, 6, 74, 64
8, 261420, Note_on_c, 6, 74, 92
8, 261500, Note_off_c, 6, 74, 64
8, 261660, Note_on_c, 6, 69, 87
8, 261780, Note_off_c, 6, 69, 64
8, 261780, Note_on_c, 6, 72, 84
8, 261900, Note_off_c, 6, 72, 64
8, 261900, Note_on_c, 6, 71, 81
8, 262020, Note_off_c, 6, 71, 64
8, 262020, Note_on_c, 6, 74, 78
8, 262140, Note_off_c, 6, 74, 64
8, 262140, Note_on_c, 6, 73, 75
8, 262260, Note_off_c, 6, 73, 64
8, 262260, Note_on_c, 6, 76, 72
8, 262380, Note_off_c, 6, 76, 64
8, 262380, Note_on_c, 6, 74, 69
8, 262780, Note_off_c, 6, 74, 64
8, 263340, Note_on_c, 6, 74, 45
8, 263420, Note_off_c, 6, 74, 64
8, 263580, Note_on_c, 6, 74, 45
8, 263700, Note_off_c, 6, 74, 64
8, 263700, Note_on_c, 6, 76, 45
8, 263820, Note_off_c, 6, 76, 64
8, 263820, Note_on_c, 6, 74, 45
8, 263940, Note_off_c, 6, 74, 64
8, 263940, Note_on_c, 6, 76, 45
8, 264060, Note_off_c, 6, 76, 64
8, 264060, Note_on_c, 6, 74, 45
8, 264180, Note_off_c, 6, 74, 64
8, 264180, Note_on_c, 6, 76, 45
8, 264300, Note_off_c, 6, 76, 64
8, 264300, Note_on_c, 6, 74, 45
8, 264700, Note_off_c, 6, 74, 64
8, 264700, End_track
9, 0, Start_track
9, 0, MIDI_port, 0
9, 0, Channel_prefix, 7
9, 0, Control_c, 7, 7, 127
9, 0, Control_c, 7, 10, 63
9, 0, Control_c, 7, 91, 127
9, 0, Program_c, 7, 48
9, 0, Note_on_c, 7, 62, 75
9, 235, Note_off_c, 7, 62, 64
9, 240, Note_on_c, 7, 62, 75
9, 475, Note_off_c, 7, 62, 64
9, 480, Note_on_c, 7, 62, 75
9, 715, Note_off_c, 7, 62, 64
9, 720, Note_on_c, 7, 62, 75
9, 955, Note_off_c, 7, 62, 64
9, 960, Note_on_c, 7, 62, 75
9, 1195, Note_off_c, 7, 62, 64
9, 1200, Note_on_c, 7, 62, 75
9, 1435, Note_off_c, 7, 62, 64
9, 1440, Note_on_c, 7, 62, 75
9, 1675, Note_off_c, 7, 62, 64
9, 1680, Note_on_c, 7, 62, 75
9, 1915, Note_off_c, 7, 62, 64
9, 1920, Note_on_c, 7, 62, 75
9, 2155, Note_off_c, 7, 62, 64
9, 2160, Note_on_c, 7, 62, 75
9, 2395, Note_off_c, 7, 62, 64
9, 2400, Note_on_c, 7, 62, 75
9, 2635, Note_off_c, 7, 62, 64
9, 2640, Note_on_c, 7, 62, 75
9, 2875, Note_off_c, 7, 62, 64
9, 2880, Note_on_c, 7, 57, 75
9, 3115, Note_off_c, 7, 57, 64
9, 3120, Note_on_c, 7, 57, 75
9, 3355, Note_off_c, 7, 57, 64
9, 3360, Note_on_c, 7, 57, 75
9, 3595, Note_off_c, 7, 57, 64
9, 3600, Note_on_c, 7, 57, 75
9, 3835, Note_off_c, 7, 57, 64
9, 3840, Note_on_c, 7, 57, 75
9, 5995, Note_off_c, 7, 57, 64
9, 6000, Note_on_c, 7, 66, 92
9, 6240, Note_off_c, 7, 66, 64
9, 6240, Note_on_c, 7, 69, 92
9, 6480, Note_off_c, 7, 69, 64
9, 6480, Note_on_c, 7, 66, 92
9, 6720, Note_off_c, 7, 66, 64
9, 6720, Note_on_c, 7, 62, 92
9, 6800, Note_off_c, 7, 62, 64
9, 6960, Note_on_c, 7, 57, 92
9, 7200, Note_off_c, 7, 57, 64
9, 7200, Note_on_c, 7, 62, 92
9, 7440, Note_off_c, 7, 62, 64
9, 7440, Note_on_c, 7, 66, 92
9, 7675, Note_off_c, 7, 66, 64
9, 7680, Note_on_c, 7, 57, 75
9, 9680, Note_off_c, 7, 57, 64
9, 9840, Note_on_c, 7, 62, 75
9, 10240, Note_off_c, 7, 62, 64
9, 10320, Note_on_c, 7, 66, 75
9, 10720, Note_off_c, 7, 66, 64
9, 10800, Note_on_c, 7, 66, 75
9, 11040, Note_off_c, 7, 66, 64
9, 11040, Note_on_c, 7, 64, 75
9, 11280, Note_off_c, 7, 64, 64
9, 11280, Note_on_c, 7, 67, 75
9, 11515, Note_off_c, 7, 67, 64
9, 11520, Note_on_c, 7, 66, 75
9, 11755, Note_off_c, 7, 66, 64
9, 11760, Note_on_c, 7, 66, 75
9, 11995, Note_off_c, 7, 66, 64
9, 12000, Note_on_c, 7, 66, 75
9, 12235, Note_off_c, 7, 66, 64
9, 12240, Note_on_c, 7, 66, 75
9, 12475, Note_off_c, 7, 66, 64
9, 12480, Note_on_c, 7, 69, 75
9, 12715, Note_off_c, 7, 69, 64
9, 12720, Note_on_c, 7, 69, 75
9, 12955, Note_off_c, 7, 69, 64
9, 12960, Note_on_c, 7, 69, 75
9, 13195, Note_off_c, 7, 69, 64
9, 13200, Note_on_c, 7, 69, 75
9, 13435, Note_off_c, 7, 69, 64
9, 13440, Note_on_c, 7, 67, 75
9, 13675, Note_off_c, 7, 67, 64
9, 13680, Note_on_c, 7, 67, 75
9, 13915, Note_off_c, 7, 67, 64
9, 13920, Note_on_c, 7, 67, 75
9, 14155, Note_off_c, 7, 67, 64
9, 14160, Note_on_c, 7, 67, 75
9, 14395, Note_off_c, 7, 67, 64
9, 14400, Note_on_c, 7, 67, 75
9, 14635, Note_off_c, 7, 67, 64
9, 14640, Note_on_c, 7, 67, 75
9, 14880, Note_off_c, 7, 67, 64
9, 14880, Note_on_c, 7, 71, 75
9, 15120, Note_off_c, 7, 71, 64
9, 15120, Note_on_c, 7, 64, 75
9, 15355, Note_off_c, 7, 64, 64
9, 15360, Note_on_c, 7, 69, 75
9, 15595, Note_off_c, 7, 69, 64
9, 15600, Note_on_c, 7, 57, 75
9, 15835, Note_off_c, 7, 57, 64
9, 15840, Note_on_c, 7, 57, 75
9, 16075, Note_off_c, 7, 57, 64
9, 16080, Note_on_c, 7, 57, 75
9, 16315, Note_off_c, 7, 57, 64
9, 16320, Note_on_c, 7, 57, 75
9, 16555, Note_off_c, 7, 57, 64
9, 16560, Note_on_c, 7, 57, 75
9, 16795, Note_off_c, 7, 57, 64
9, 16800, Note_on_c, 7, 57, 75
9, 17035, Note_off_c, 7, 57, 64
9, 17040, Note_on_c, 7, 57, 75
9, 17275, Note_off_c, 7, 57, 64
9, 17280, Note_on_c, 7, 57, 75
9, 17515, Note_off_c, 7, 57, 64
9, 17520, Note_on_c, 7, 57, 75
9, 17755, Note_off_c, 7, 57, 64
9, 17760, Note_on_c, 7, 57, 75
9, 17995, Note_off_c, 7, 57, 64
9, 18000, Note_on_c, 7, 57, 75
9, 18235, Note_off_c, 7, 57, 64
9, 18240, Note_on_c, 7, 57, 75
9, 18475, Note_off_c, 7, 57, 64
9, 18480, Note_on_c, 7, 57, 75
9, 18715, Note_off_c, 7, 57, 64
9, 18720, Note_on_c, 7, 57, 75
9, 18955, Note_off_c, 7, 57, 64
9, 18960, Note_on_c, 7, 57, 75
9, 19195, Note_off_c, 7, 57, 64
9, 19200, Note_on_c, 7, 57, 75
9, 19600, Note_off_c, 7, 57, 64
9, 19920, Note_on_c, 7, 69, 75
9, 20155, Note_off_c, 7, 69, 64
9, 20160, Note_on_c, 7, 69, 75
9, 20560, Note_off_c, 7, 69, 64
9, 20880, Note_on_c, 7, 64, 75
9, 21115, Note_off_c, 7, 64, 64
9, 21120, Note_on_c, 7, 62, 75
9, 21520, Note_off_c, 7, 62, 64
9, 21840, Note_on_c, 7, 69, 75
9, 22075, Note_off_c, 7, 69, 64
9, 22080, Note_on_c, 7, 69, 75
9, 22480, Note_off_c, 7, 69, 64
9, 22800, Note_on_c, 7, 67, 75
9, 23035, Note_off_c, 7, 67, 64
9, 23040, Note_on_c, 7, 66, 75
9, 23120, Note_off_c, 7, 66, 64
9, 23280, Note_on_c, 7, 66, 75
9, 23360, Note_off_c, 7, 66, 64
9, 23520, Note_on_c, 7, 66, 75
9, 23600, Note_off_c, 7, 66, 64
9, 23760, Note_on_c, 7, 66, 75
9, 23840, Note_off_c, 7, 66, 64
9, 24000, Note_on_c, 7, 66, 75
9, 24080, Note_off_c, 7, 66, 64
9, 24240, Note_on_c, 7, 66, 75
9, 24320, Note_off_c, 7, 66, 64
9, 24480, Note_on_c, 7, 66, 75
9, 24560, Note_off_c, 7, 66, 64
9, 24720, Note_on_c, 7, 66, 75
9, 24800, Note_off_c, 7, 66, 64
9, 24960, Note_on_c, 7, 57, 75
9, 24960, Note_on_c, 7, 66, 75
9, 25040, Note_off_c, 7, 66, 64
9, 25040, Note_off_c, 7, 57, 64
9, 25200, Note_on_c, 7, 57, 75
9, 25200, Note_on_c, 7, 66, 75
9, 25280, Note_off_c, 7, 66, 64
9, 25280, Note_off_c, 7, 57, 64
9, 25440, Note_on_c, 7, 57, 75
9, 25440, Note_on_c, 7, 66, 75
9, 25520, Note_off_c, 7, 66, 64
9, 25520, Note_off_c, 7, 57, 64
9, 25680, Note_on_c, 7, 57, 75
9, 25680, Note_on_c, 7, 66, 75
9, 25760, Note_off_c, 7, 66, 64
9, 25760, Note_off_c, 7, 57, 64
9, 25920, Note_on_c, 7, 57, 75
9, 25920, Note_on_c, 7, 66, 75
9, 26000, Note_off_c, 7, 66, 64
9, 26000, Note_off_c, 7, 57, 64
9, 26160, Note_on_c, 7, 62, 75
9, 26280, Note_off_c, 7, 62, 64
9, 26280, Note_on_c, 7, 64, 75
9, 26400, Note_off_c, 7, 64, 64
9, 26400, Note_on_c, 7, 66, 75
9, 26480, Note_off_c, 7, 66, 64
9, 26640, Note_on_c, 7, 66, 75
9, 26720, Note_off_c, 7, 66, 64
9, 26880, Note_on_c, 7, 59, 75
9, 26960, Note_off_c, 7, 59, 64
9, 27120, Note_on_c, 7, 59, 75
9, 27200, Note_off_c, 7, 59, 64
9, 27360, Note_on_c, 7, 59, 75
9, 27440, Note_off_c, 7, 59, 64
9, 27600, Note_on_c, 7, 59, 75
9, 27680, Note_off_c, 7, 59, 64
9, 27840, Note_on_c, 7, 59, 75
9, 27920, Note_off_c, 7, 59, 64
9, 28080, Note_on_c, 7, 59, 75
9, 28160, Note_off_c, 7, 59, 64
9, 28320, Note_on_c, 7, 59, 75
9, 28400, Note_off_c, 7, 59, 64
9, 28560, Note_on_c, 7, 59, 75
9, 28640, Note_off_c, 7, 59, 64
9, 28800, Note_on_c, 7, 59, 75
9, 28800, Note_on_c, 7, 68, 75
9, 28880, Note_off_c, 7, 68, 64
9, 28880, Note_off_c, 7, 59, 64
9, 29040, Note_on_c, 7, 59, 74
9, 29040, Note_on_c, 7, 68, 74
9, 29120, Note_off_c, 7, 68, 64
9, 29120, Note_off_c, 7, 59, 64
9, 29280, Note_on_c, 7, 59, 73
9, 29280, Note_on_c, 7, 68, 73
9, 29360, Note_off_c, 7, 68, 64
9, 29360, Note_off_c, 7, 59, 64
9, 29520, Note_on_c, 7, 59, 72
9, 29520, Note_on_c, 7, 68, 72
9, 29600, Note_off_c, 7, 68, 64
9, 29600, Note_off_c, 7, 59, 64
9, 29760, Note_on_c, 7, 59, 70
9, 29760, Note_on_c, 7, 68, 70
9, 29840, Note_off_c, 7, 68, 64
9, 29840, Note_off_c, 7, 59, 64
9, 30000, Note_on_c, 7, 64, 68
9, 30400, Note_off_c, 7, 64, 64
9, 30480, Note_on_c, 7, 64, 64
9, 30955, Note_off_c, 7, 64, 64
9, 30960, Note_on_c, 7, 64, 60
9, 31360, Note_off_c, 7, 64, 64
9, 31440, Note_on_c, 7, 64, 60
9, 31840, Note_off_c, 7, 64, 64
9, 31920, Note_on_c, 7, 64, 60
9, 32320, Note_off_c, 7, 64, 64
9, 32400, Note_on_c, 7, 64, 60
9, 32875, Note_off_c, 7, 64, 64
9, 32880, Note_on_c, 7, 64, 60
9, 33280, Note_off_c, 7, 64, 64
9, 33360, Note_on_c, 7, 64, 60
9, 33760, Note_off_c, 7, 64, 64
9, 33840, Note_on_c, 7, 64, 60
9, 34240, Note_off_c, 7, 64, 64
9, 34320, Note_on_c, 7, 64, 60
9, 34400, Note_off_c, 7, 64, 64
9, 34560, Note_on_c, 7, 64, 60
9, 34960, Note_off_c, 7, 64, 64
9, 36480, Note_on_c, 7, 68, 60
9, 38400, Note_off_c, 7, 68, 64
9, 38400, Note_on_c, 7, 69, 60
9, 38800, Note_off_c, 7, 69, 64
9, 40560, Note_on_c, 7, 69, 64
9, 40640, Note_off_c, 7, 69, 64
9, 40800, Note_on_c, 7, 57, 68
9, 40880, Note_off_c, 7, 57, 64
9, 41040, Note_on_c, 7, 59, 72
9, 41095, Note_off_c, 7, 59, 64
9, 41100, Note_on_c, 7, 61, 73
9, 41160, Note_off_c, 7, 61, 64
9, 41160, Note_on_c, 7, 59, 74
9, 41220, Note_off_c, 7, 59, 64
9, 41220, Note_on_c, 7, 61, 75
9, 41280, Note_off_c, 7, 61, 64
9, 41280, Note_on_c, 7, 61, 76
9, 41360, Note_off_c, 7, 61, 64
9, 41520, Note_on_c, 7, 64, 80
9, 42000, Note_off_c, 7, 64, 64
9, 42000, Note_on_c, 7, 68, 88
9, 42235, Note_off_c, 7, 68, 64
9, 42240, Note_on_c, 7, 69, 92
9, 42640, Note_off_c, 7, 69, 64
9, 42960, Note_on_c, 7, 69, 92
9, 43360, Note_off_c, 7, 69, 64
9, 43440, Note_on_c, 7, 64, 92
9, 43680, Note_off_c, 7, 64, 64
9, 43680, Note_on_c, 7, 62, 92
9, 43920, Note_off_c, 7, 62, 64
9, 43920, Note_on_c, 7, 61, 92
9, 44155, Note_off_c, 7, 61, 64
9, 44160, Note_on_c, 7, 62, 75
9, 44395, Note_off_c, 7, 62, 64
9, 44400, Note_on_c, 7, 62, 75
9, 44635, Note_off_c, 7, 62, 64
9, 44640, Note_on_c, 7, 62, 75
9, 44875, Note_off_c, 7, 62, 64
9, 44880, Note_on_c, 7, 62, 75
9, 45115, Note_off_c, 7, 62, 64
9, 45120, Note_on_c, 7, 62, 75
9, 45355, Note_off_c, 7, 62, 64
9, 45360, Note_on_c, 7, 62, 75
9, 45595, Note_off_c, 7, 62, 64
9, 45600, Note_on_c, 7, 62, 75
9, 45835, Note_off_c, 7, 62, 64
9, 45840, Note_on_c, 7, 62, 75
9, 46075, Note_off_c, 7, 62, 64
9, 46080, Note_on_c, 7, 64, 75
9, 46315, Note_off_c, 7, 64, 64
9, 46320, Note_on_c, 7, 61, 75
9, 46555, Note_off_c, 7, 61, 64
9, 46560, Note_on_c, 7, 61, 75
9, 46795, Note_off_c, 7, 61, 64
9, 46800, Note_on_c, 7, 61, 75
9, 47035, Note_off_c, 7, 61, 64
9, 47040, Note_on_c, 7, 61, 75
9, 47275, Note_off_c, 7, 61, 64
9, 47280, Note_on_c, 7, 61, 75
9, 47515, Note_off_c, 7, 61, 64
9, 47520, Note_on_c, 7, 61, 75
9, 47755, Note_off_c, 7, 61, 64
9, 47760, Note_on_c, 7, 61, 75
9, 47995, Note_off_c, 7, 61, 64
9, 48000, Note_on_c, 7, 62, 75
9, 48235, Note_off_c, 7, 62, 64
9, 48240, Note_on_c, 7, 62, 72
9, 48475, Note_off_c, 7, 62, 64
9, 48480, Note_on_c, 7, 62, 69
9, 48715, Note_off_c, 7, 62, 64
9, 48720, Note_on_c, 7, 62, 65
9, 48955, Note_off_c, 7, 62, 64
9, 48960, Note_on_c, 7, 62, 61
9, 49195, Note_off_c, 7, 62, 64
9, 49200, Note_on_c, 7, 62, 57
9, 49435, Note_off_c, 7, 62, 64
9, 49440, Note_on_c, 7, 59, 53
9, 49675, Note_off_c, 7, 59, 64
9, 49680, Note_on_c, 7, 59, 49
9, 49915, Note_off_c, 7, 59, 64
9, 49920, Note_on_c, 7, 61, 45
9, 50160, Note_off_c, 7, 61, 64
9, 50160, Note_on_c, 7, 64, 46
9, 50240, Note_off_c, 7, 64, 64
9, 50400, Note_on_c, 7, 64, 48
9, 50480, Note_off_c, 7, 64, 64
9, 50640, Note_on_c, 7, 64, 50
9, 50720, Note_off_c, 7, 64, 64
9, 50880, Note_on_c, 7, 64, 52
9, 51280, Note_off_c, 7, 64, 64
9, 51840, Note_on_c, 7, 57, 60
9, 52080, Note_off_c, 7, 57, 64
9, 52080, Note_on_c, 7, 66, 60
9, 52160, Note_off_c, 7, 66, 64
9, 52320, Note_on_c, 7, 66, 62
9, 52400, Note_off_c, 7, 66, 64
9, 52560, Note_on_c, 7, 66, 64
9, 52640, Note_off_c, 7, 66, 64
9, 52800, Note_on_c, 7, 66, 66
9, 53200, Note_off_c, 7, 66, 64
9, 53760, Note_on_c, 7, 57, 75
9, 54000, Note_off_c, 7, 57, 64
9, 54000, Note_on_c, 7, 61, 75
9, 54080, Note_off_c, 7, 61, 64
9, 54240, Note_on_c, 7, 61, 77
9, 54320, Note_off_c, 7, 61, 64
9, 54480, Note_on_c, 7, 61, 79
9, 54560, Note_off_c, 7, 61, 64
9, 54720, Note_on_c, 7, 61, 81
9, 55120, Note_off_c, 7, 61, 64
9, 55680, Note_on_c, 7, 62, 92
9, 56080, Note_off_c, 7, 62, 64
9, 58080, Note_on_c, 7, 61, 92
9, 58560, Note_off_c, 7, 61, 64
9, 58560, Note_on_c, 7, 62, 92
9, 59040, Note_off_c, 7, 62, 64
9, 59040, Note_on_c, 7, 61, 92
9, 59520, Note_off_c, 7, 61, 64
9, 59520, Note_on_c, 7, 62, 92
9, 59755, Note_off_c, 7, 62, 64
9, 59760, Note_on_c, 7, 62, 92
9, 60160, Note_off_c, 7, 62, 64
9, 60240, Note_on_c, 7, 62, 92
9, 60640, Note_off_c, 7, 62, 64
9, 60720, Note_on_c, 7, 62, 92
9, 61120, Note_off_c, 7, 62, 64
9, 61200, Note_on_c, 7, 66, 92
9, 61280, Note_off_c, 7, 66, 64
9, 61440, Note_on_c, 7, 64, 92
9, 61520, Note_off_c, 7, 64, 64
9, 61680, Note_on_c, 7, 64, 92
9, 61760, Note_off_c, 7, 64, 64
9, 61920, Note_on_c, 7, 64, 92
9, 62000, Note_off_c, 7, 64, 64
9, 62160, Note_on_c, 7, 64, 92
9, 62240, Note_off_c, 7, 64, 64
9, 62400, Note_on_c, 7, 64, 92
9, 62480, Note_off_c, 7, 64, 64
9, 62640, Note_on_c, 7, 64, 92
9, 62720, Note_off_c, 7, 64, 64
9, 62880, Note_on_c, 7, 62, 92
9, 62960, Note_off_c, 7, 62, 64
9, 63120, Note_on_c, 7, 62, 92
9, 63200, Note_off_c, 7, 62, 64
9, 63360, Note_on_c, 7, 61, 92
9, 63440, Note_off_c, 7, 61, 64
9, 63600, Note_on_c, 7, 61, 90
9, 63840, Note_off_c, 7, 61, 64
9, 63840, Note_on_c, 7, 62, 88
9, 64080, Note_off_c, 7, 62, 64
9, 64080, Note_on_c, 7, 59, 86
9, 64320, Note_off_c, 7, 59, 64
9, 64320, Note_on_c, 7, 61, 84
9, 64400, Note_off_c, 7, 61, 64
9, 64560, Note_on_c, 7, 64, 81
9, 64800, Note_off_c, 7, 64, 64
9, 64800, Note_on_c, 7, 66, 78
9, 65040, Note_off_c, 7, 66, 64
9, 65040, Note_on_c, 7, 62, 75
9, 65280, Note_off_c, 7, 62, 64
9, 65280, Note_on_c, 7, 61, 75
9, 65360, Note_off_c, 7, 61, 64
9, 65520, Note_on_c, 7, 61, 74
9, 65760, Note_off_c, 7, 61, 64
9, 65760, Note_on_c, 7, 62, 72
9, 66000, Note_off_c, 7, 62, 64
9, 66000, Note_on_c, 7, 59, 70
9, 66240, Note_off_c, 7, 59, 64
9, 66240, Note_on_c, 7, 61, 68
9, 66320, Note_off_c, 7, 61, 64
9, 66480, Note_on_c, 7, 64, 66
9, 66720, Note_off_c, 7, 64, 64
9, 66720, Note_on_c, 7, 66, 64
9, 66960, Note_off_c, 7, 66, 64
9, 66960, Note_on_c, 7, 62, 62
9, 67200, Note_off_c, 7, 62, 64
9, 67200, Note_on_c, 7, 61, 60
9, 67280, Note_off_c, 7, 61, 64
9, 67440, Note_on_c, 7, 57, 60
9, 67560, Note_off_c, 7, 57, 64
9, 67560, Note_on_c, 7, 56, 58
9, 67680, Note_off_c, 7, 56, 64
9, 67680, Note_on_c, 7, 57, 56
9, 67800, Note_off_c, 7, 57, 64
9, 67800, Note_on_c, 7, 56, 54
9, 67920, Note_off_c, 7, 56, 64
9, 67920, Note_on_c, 7, 57, 51
9, 68040, Note_off_c, 7, 57, 64
9, 68040, Note_on_c, 7, 56, 48
9, 68160, Note_off_c, 7, 56, 64
9, 68160, Note_on_c, 7, 57, 45
9, 68560, Note_off_c, 7, 57, 64
9, 69120, Note_on_c, 7, 62, 75
9, 69355, Note_off_c, 7, 62, 64
9, 69360, Note_on_c, 7, 62, 75
9, 69595, Note_off_c, 7, 62, 64
9, 69600, Note_on_c, 7, 62, 75
9, 69835, Note_off_c, 7, 62, 64
9, 69840, Note_on_c, 7, 62, 75
9, 70075, Note_off_c, 7, 62, 64
9, 70080, Note_on_c, 7, 62, 75
9, 70315, Note_off_c, 7, 62, 64
9, 70320, Note_on_c, 7, 62, 75
9, 70555, Note_off_c, 7, 62, 64
9, 70560, Note_on_c, 7, 62, 75
9, 70795, Note_off_c, 7, 62, 64
9, 70800, Note_on_c, 7, 62, 75
9, 71035, Note_off_c, 7, 62, 64
9, 71040, Note_on_c, 7, 62, 75
9, 71275, Note_off_c, 7, 62, 64
9, 71280, Note_on_c, 7, 62, 75
9, 71515, Note_off_c, 7, 62, 64
9, 71520, Note_on_c, 7, 62, 75
9, 71755, Note_off_c, 7, 62, 64
9, 71760, Note_on_c, 7, 62, 75
9, 71995, Note_off_c, 7, 62, 64
9, 72000, Note_on_c, 7, 57, 75
9, 72235, Note_off_c, 7, 57, 64
9, 72240, Note_on_c, 7, 57, 75
9, 72475, Note_off_c, 7, 57, 64
9, 72480, Note_on_c, 7, 57, 75
9, 72715, Note_off_c, 7, 57, 64
9, 72720, Note_on_c, 7, 57, 75
9, 72955, Note_off_c, 7, 57, 64
9, 72960, Note_on_c, 7, 57, 75
9, 75115, Note_off_c, 7, 57, 64
9, 75120, Note_on_c, 7, 66, 92
9, 75360, Note_off_c, 7, 66, 64
9, 75360, Note_on_c, 7, 69, 92
9, 75600, Note_off_c, 7, 69, 64
9, 75600, Note_on_c, 7, 66, 92
9, 75840, Note_off_c, 7, 66, 64
9, 75840, Note_on_c, 7, 62, 92
9, 75920, Note_off_c, 7, 62, 64
9, 76080, Note_on_c, 7, 57, 92
9, 76320, Note_off_c, 7, 57, 64
9, 76320, Note_on_c, 7, 62, 92
9, 76560, Note_off_c, 7, 62, 64
9, 76560, Note_on_c, 7, 66, 92
9, 76795, Note_off_c, 7, 66, 64
9, 76800, Note_on_c, 7, 57, 75
9, 78800, Note_off_c, 7, 57, 64
9, 78960, Note_on_c, 7, 62, 75
9, 79360, Note_off_c, 7, 62, 64
9, 79440, Note_on_c, 7, 66, 75
9, 79840, Note_off_c, 7, 66, 64
9, 79920, Note_on_c, 7, 66, 75
9, 80160, Note_off_c, 7, 66, 64
9, 80160, Note_on_c, 7, 64, 75
9, 80400, Note_off_c, 7, 64, 64
9, 80400, Note_on_c, 7, 67, 75
9, 80635, Note_off_c, 7, 67, 64
9, 80640, Note_on_c, 7, 66, 75
9, 80875, Note_off_c, 7, 66, 64
9, 80880, Note_on_c, 7, 66, 75
9, 81115, Note_off_c, 7, 66, 64
9, 81120, Note_on_c, 7, 66, 75
9, 81355, Note_off_c, 7, 66, 64
9, 81360, Note_on_c, 7, 66, 75
9, 81595, Note_off_c, 7, 66, 64
9, 81600, Note_on_c, 7, 69, 75
9, 81835, Note_off_c, 7, 69, 64
9, 81840, Note_on_c, 7, 69, 75
9, 82075, Note_off_c, 7, 69, 64
9, 82080, Note_on_c, 7, 69, 75
9, 82315, Note_off_c, 7, 69, 64
9, 82320, Note_on_c, 7, 69, 75
9, 82555, Note_off_c, 7, 69, 64
9, 82560, Note_on_c, 7, 67, 75
9, 82795, Note_off_c, 7, 67, 64
9, 82800, Note_on_c, 7, 67, 75
9, 83035, Note_off_c, 7, 67, 64
9, 83040, Note_on_c, 7, 67, 75
9, 83275, Note_off_c, 7, 67, 64
9, 83280, Note_on_c, 7, 67, 75
9, 83515, Note_off_c, 7, 67, 64
9, 83520, Note_on_c, 7, 67, 75
9, 83755, Note_off_c, 7, 67, 64
9, 83760, Note_on_c, 7, 67, 75
9, 84000, Note_off_c, 7, 67, 64
9, 84000, Note_on_c, 7, 71, 75
9, 84240, Note_off_c, 7, 71, 64
9, 84240, Note_on_c, 7, 64, 75
9, 84475, Note_off_c, 7, 64, 64
9, 84480, Note_on_c, 7, 69, 75
9, 84715, Note_off_c, 7, 69, 64
9, 84720, Note_on_c, 7, 57, 75
9, 84955, Note_off_c, 7, 57, 64
9, 84960, Note_on_c, 7, 57, 75
9, 85195, Note_off_c, 7, 57, 64
9, 85200, Note_on_c, 7, 57, 75
9, 85435, Note_off_c, 7, 57, 64
9, 85440, Note_on_c, 7, 57, 75
9, 85675, Note_off_c, 7, 57, 64
9, 85680, Note_on_c, 7, 57, 75
9, 85915, Note_off_c, 7, 57, 64
9, 85920, Note_on_c, 7, 57, 75
9, 86155, Note_off_c, 7, 57, 64
9, 86160, Note_on_c, 7, 57, 75
9, 86395, Note_off_c, 7, 57, 64
9, 86400, Note_on_c, 7, 57, 75
9, 86635, Note_off_c, 7, 57, 64
9, 86640, Note_on_c, 7, 57, 75
9, 86875, Note_off_c, 7, 57, 64
9, 86880, Note_on_c, 7, 57, 75
9, 87115, Note_off_c, 7, 57, 64
9, 87120, Note_on_c, 7, 57, 75
9, 87355, Note_off_c, 7, 57, 64
9, 87360, Note_on_c, 7, 57, 75
9, 87595, Note_off_c, 7, 57, 64
9, 87600, Note_on_c, 7, 57, 75
9, 87835, Note_off_c, 7, 57, 64
9, 87840, Note_on_c, 7, 57, 75
9, 88075, Note_off_c, 7, 57, 64
9, 88080, Note_on_c, 7, 57, 75
9, 88315, Note_off_c, 7, 57, 64
9, 88320, Note_on_c, 7, 57, 75
9, 88720, Note_off_c, 7, 57, 64
9, 89040, Note_on_c, 7, 69, 75
9, 89275, Note_off_c, 7, 69, 64
9, 89280, Note_on_c, 7, 69, 75
9, 89680, Note_off_c, 7, 69, 64
9, 90000, Note_on_c, 7, 64, 75
9, 90235, Note_off_c, 7, 64, 64
9, 90240, Note_on_c, 7, 62, 75
9, 90640, Note_off_c, 7, 62, 64
9, 90960, Note_on_c, 7, 69, 75
9, 91195, Note_off_c, 7, 69, 64
9, 91200, Note_on_c, 7, 69, 75
9, 91600, Note_off_c, 7, 69, 64
9, 91920, Note_on_c, 7, 67, 75
9, 92155, Note_off_c, 7, 67, 64
9, 92160, Note_on_c, 7, 66, 75
9, 92240, Note_off_c, 7, 66, 64
9, 92400, Note_on_c, 7, 66, 75
9, 92480, Note_off_c, 7, 66, 64
9, 92640, Note_on_c, 7, 66, 75
9, 92720, Note_off_c, 7, 66, 64
9, 92880, Note_on_c, 7, 66, 75
9, 92960, Note_off_c, 7, 66, 64
9, 93120, Note_on_c, 7, 66, 75
9, 93200, Note_off_c, 7, 66, 64
9, 93360, Note_on_c, 7, 66, 75
9, 93440, Note_off_c, 7, 66, 64
9, 93600, Note_on_c, 7, 66, 75
9, 93680, Note_off_c, 7, 66, 64
9, 93840, Note_on_c, 7, 66, 75
9, 93920, Note_off_c, 7, 66, 64
9, 94080, Note_on_c, 7, 57, 75
9, 94080, Note_on_c, 7, 66, 75
9, 94160, Note_off_c, 7, 66, 64
9, 94160, Note_off_c, 7, 57, 64
9, 94320, Note_on_c, 7, 57, 75
9, 94320, Note_on_c, 7, 66, 75
9, 94400, Note_off_c, 7, 66, 64
9, 94400, Note_off_c, 7, 57, 64
9, 94560, Note_on_c, 7, 57, 75
9, 94560, Note_on_c, 7, 66, 75
9, 94640, Note_off_c, 7, 66, 64
9, 94640, Note_off_c, 7, 57, 64
9, 94800, Note_on_c, 7, 57, 75
9, 94800, Note_on_c, 7, 66, 75
9, 94880, Note_off_c, 7, 66, 64
9, 94880, Note_off_c, 7, 57, 64
9, 95040, Note_on_c, 7, 57, 75
9, 95040, Note_on_c, 7, 66, 75
9, 95120, Note_off_c, 7, 66, 64
9, 95120, Note_off_c, 7, 57, 64
9, 95280, Note_on_c, 7, 62, 75
9, 95400, Note_off_c, 7, 62, 64
9, 95400, Note_on_c, 7, 64, 75
9, 95520, Note_off_c, 7, 64, 64
9, 95520, Note_on_c, 7, 66, 75
9, 95600, Note_off_c, 7, 66, 64
9, 95760, Note_on_c, 7, 66, 75
9, 95840, Note_off_c, 7, 66, 64
9, 96000, Note_on_c, 7, 59, 75
9, 96080, Note_off_c, 7, 59, 64
9, 96240, Note_on_c, 7, 59, 75
9, 96320, Note_off_c, 7, 59, 64
9, 96480, Note_on_c, 7, 59, 75
9, 96560, Note_off_c, 7, 59, 64
9, 96720, Note_on_c, 7, 59, 75
9, 96800, Note_off_c, 7, 59, 64
9, 96960, Note_on_c, 7, 59, 75
9, 97040, Note_off_c, 7, 59, 64
9, 97200, Note_on_c, 7, 59, 75
9, 97280, Note_off_c, 7, 59, 64
9, 97440, Note_on_c, 7, 59, 75
9, 97520, Note_off_c, 7, 59, 64
9, 97680, Note_on_c, 7, 59, 75
9, 97760, Note_off_c, 7, 59, 64
9, 97920, Note_on_c, 7, 59, 75
9, 97920, Note_on_c, 7, 68, 75
9, 98000, Note_off_c, 7, 68, 64
9, 98000, Note_off_c, 7, 59, 64
9, 98160, Note_on_c, 7, 59, 74
9, 98160, Note_on_c, 7, 68, 74
9, 98240, Note_off_c, 7, 68, 64
9, 98240, Note_off_c, 7, 59, 64
9, 98400, Note_on_c, 7, 59, 73
9, 98400, Note_on_c, 7, 68, 73
9, 98480, Note_off_c, 7, 68, 64
9, 98480, Note_off_c, 7, 59, 64
9, 98640, Note_on_c, 7, 59, 72
9, 98640, Note_on_c, 7, 68, 72
9, 98720, Note_off_c, 7, 68, 64
9, 98720, Note_off_c, 7, 59, 64
9, 98880, Note_on_c, 7, 59, 70
9, 98880, Note_on_c, 7, 68, 70
9, 98960, Note_off_c, 7, 68, 64
9, 98960, Note_off_c, 7, 59, 64
9, 99120, Note_on_c, 7, 64, 68
9, 99520, Note_off_c, 7, 64, 64
9, 99600, Note_on_c, 7, 64, 64
9, 100075, Note_off_c, 7, 64, 64
9, 100080, Note_on_c, 7, 64, 60
9, 100480, Note_off_c, 7, 64, 64
9, 100560, Note_on_c, 7, 64, 60
9, 100960, Note_off_c, 7, 64, 64
9, 101040, Note_on_c, 7, 64, 60
9, 101440, Note_off_c, 7, 64, 64
9, 101520, Note_on_c, 7, 64, 60
9, 101995, Note_off_c, 7, 64, 64
9, 102000, Note_on_c, 7, 64, 60
9, 102400, Note_off_c, 7, 64, 64
9, 102480, Note_on_c, 7, 64, 60
9, 102880, Note_off_c, 7, 64, 64
9, 102960, Note_on_c, 7, 64, 60
9, 103360, Note_off_c, 7, 64, 64
9, 103440, Note_on_c, 7, 64, 60
9, 103520, Note_off_c, 7, 64, 64
9, 103680, Note_on_c, 7, 64, 60
9, 104080, Note_off_c, 7, 64, 64
9, 105600, Note_on_c, 7, 68, 60
9, 107520, Note_off_c, 7, 68, 64
9, 107520, Note_on_c, 7, 69, 60
9, 107920, Note_off_c, 7, 69, 64
9, 109680, Note_on_c, 7, 69, 64
9, 109760, Note_off_c, 7, 69, 64
9, 109920, Note_on_c, 7, 57, 68
9, 110000, Note_off_c, 7, 57, 64
9, 110160, Note_on_c, 7, 59, 72
9, 110215, Note_off_c, 7, 59, 64
9, 110220, Note_on_c, 7, 61, 73
9, 110280, Note_off_c, 7, 61, 64
9, 110280, Note_on_c, 7, 59, 74
9, 110340, Note_off_c, 7, 59, 64
9, 110340, Note_on_c, 7, 61, 75
9, 110400, Note_off_c, 7, 61, 64
9, 110400, Note_on_c, 7, 61, 76
9, 110480, Note_off_c, 7, 61, 64
9, 110640, Note_on_c, 7, 64, 80
9, 111120, Note_off_c, 7, 64, 64
9, 111120, Note_on_c, 7, 68, 88
9, 111355, Note_off_c, 7, 68, 64
9, 111360, Note_on_c, 7, 69, 92
9, 111760, Note_off_c, 7, 69, 64
9, 112080, Note_on_c, 7, 69, 92
9, 112480, Note_off_c, 7, 69, 64
9, 112560, Note_on_c, 7, 64, 92
9, 112800, Note_off_c, 7, 64, 64
9, 112800, Note_on_c, 7, 62, 92
9, 113040, Note_off_c, 7, 62, 64
9, 113040, Note_on_c, 7, 61, 92
9, 113275, Note_off_c, 7, 61, 64
9, 113280, Note_on_c, 7, 62, 75
9, 113515, Note_off_c, 7, 62, 64
9, 113520, Note_on_c, 7, 62, 75
9, 113755, Note_off_c, 7, 62, 64
9, 113760, Note_on_c, 7, 62, 75
9, 113995, Note_off_c, 7, 62, 64
9, 114000, Note_on_c, 7, 62, 75
9, 114235, Note_off_c, 7, 62, 64
9, 114240, Note_on_c, 7, 62, 75
9, 114475, Note_off_c, 7, 62, 64
9, 114480, Note_on_c, 7, 62, 75
9, 114715, Note_off_c, 7, 62, 64
9, 114720, Note_on_c, 7, 62, 75
9, 114955, Note_off_c, 7, 62, 64
9, 114960, Note_on_c, 7, 62, 75
9, 115195, Note_off_c, 7, 62, 64
9, 115200, Note_on_c, 7, 64, 75
9, 115435, Note_off_c, 7, 64, 64
9, 115440, Note_on_c, 7, 61, 75
9, 115675, Note_off_c, 7, 61, 64
9, 115680, Note_on_c, 7, 61, 75
9, 115915, Note_off_c, 7, 61, 64
9, 115920, Note_on_c, 7, 61, 75
9, 116155, Note_off_c, 7, 61, 64
9, 116160, Note_on_c, 7, 61, 75
9, 116395, Note_off_c, 7, 61, 64
9, 116400, Note_on_c, 7, 61, 75
9, 116635, Note_off_c, 7, 61, 64
9, 116640, Note_on_c, 7, 61, 75
9, 116875, Note_off_c, 7, 61, 64
9, 116880, Note_on_c, 7, 61, 75
9, 117115, Note_off_c, 7, 61, 64
9, 117120, Note_on_c, 7, 62, 75
9, 117355, Note_off_c, 7, 62, 64
9, 117360, Note_on_c, 7, 62, 72
9, 117595, Note_off_c, 7, 62, 64
9, 117600, Note_on_c, 7, 62, 69
9, 117835, Note_off_c, 7, 62, 64
9, 117840, Note_on_c, 7, 62, 65
9, 118075, Note_off_c, 7, 62, 64
9, 118080, Note_on_c, 7, 62, 61
9, 118315, Note_off_c, 7, 62, 64
9, 118320, Note_on_c, 7, 62, 57
9, 118555, Note_off_c, 7, 62, 64
9, 118560, Note_on_c, 7, 59, 53
9, 118795, Note_off_c, 7, 59, 64
9, 118800, Note_on_c, 7, 59, 49
9, 119035, Note_off_c, 7, 59, 64
9, 119040, Note_on_c, 7, 61, 45
9, 119280, Note_off_c, 7, 61, 64
9, 119280, Note_on_c, 7, 64, 46
9, 119360, Note_off_c, 7, 64, 64
9, 119520, Note_on_c, 7, 64, 48
9, 119600, Note_off_c, 7, 64, 64
9, 119760, Note_on_c, 7, 64, 50
9, 119840, Note_off_c, 7, 64, 64
9, 120000, Note_on_c, 7, 64, 52
9, 120400, Note_off_c, 7, 64, 64
9, 120960, Note_on_c, 7, 57, 60
9, 121200, Note_off_c, 7, 57, 64
9, 121200, Note_on_c, 7, 66, 60
9, 121280, Note_off_c, 7, 66, 64
9, 121440, Note_on_c, 7, 66, 62
9, 121520, Note_off_c, 7, 66, 64
9, 121680, Note_on_c, 7, 66, 64
9, 121760, Note_off_c, 7, 66, 64
9, 121920, Note_on_c, 7, 66, 66
9, 122320, Note_off_c, 7, 66, 64
9, 122880, Note_on_c, 7, 57, 75
9, 123120, Note_off_c, 7, 57, 64
9, 123120, Note_on_c, 7, 61, 75
9, 123200, Note_off_c, 7, 61, 64
9, 123360, Note_on_c, 7, 61, 77
9, 123440, Note_off_c, 7, 61, 64
9, 123600, Note_on_c, 7, 61, 79
9, 123680, Note_off_c, 7, 61, 64
9, 123840, Note_on_c, 7, 61, 81
9, 124240, Note_off_c, 7, 61, 64
9, 124800, Note_on_c, 7, 62, 92
9, 125200, Note_off_c, 7, 62, 64
9, 127200, Note_on_c, 7, 61, 92
9, 127680, Note_off_c, 7, 61, 64
9, 127680, Note_on_c, 7, 62, 92
9, 128160, Note_off_c, 7, 62, 64
9, 128160, Note_on_c, 7, 61, 92
9, 128640, Note_off_c, 7, 61, 64
9, 128640, Note_on_c, 7, 62, 92
9, 128875, Note_off_c, 7, 62, 64
9, 128880, Note_on_c, 7, 62, 92
9, 129280, Note_off_c, 7, 62, 64
9, 129360, Note_on_c, 7, 62, 92
9, 129760, Note_off_c, 7, 62, 64
9, 129840, Note_on_c, 7, 62, 92
9, 130240, Note_off_c, 7, 62, 64
9, 130320, Note_on_c, 7, 66, 92
9, 130400, Note_off_c, 7, 66, 64
9, 130560, Note_on_c, 7, 64, 92
9, 130640, Note_off_c, 7, 64, 64
9, 130800, Note_on_c, 7, 64, 92
9, 130880, Note_off_c, 7, 64, 64
9, 131040, Note_on_c, 7, 64, 92
9, 131120, Note_off_c, 7, 64, 64
9, 131280, Note_on_c, 7, 64, 92
9, 131360, Note_off_c, 7, 64, 64
9, 131520, Note_on_c, 7, 64, 92
9, 131600, Note_off_c, 7, 64, 64
9, 131760, Note_on_c, 7, 64, 92
9, 131840, Note_off_c, 7, 64, 64
9, 132000, Note_on_c, 7, 62, 92
9, 132080, Note_off_c, 7, 62, 64
9, 132240, Note_on_c, 7, 62, 92
9, 132320, Note_off_c, 7, 62, 64
9, 132480, Note_on_c, 7, 61, 92
9, 132560, Note_off_c, 7, 61, 64
9, 132720, Note_on_c, 7, 61, 90
9, 132960, Note_off_c, 7, 61, 64
9, 132960, Note_on_c, 7, 62, 88
9, 133200, Note_off_c, 7, 62, 64
9, 133200, Note_on_c, 7, 59, 86
9, 133440, Note_off_c, 7, 59, 64
9, 133440, Note_on_c, 7, 61, 84
9, 133520, Note_off_c, 7, 61, 64
9, 133680, Note_on_c, 7, 64, 81
9, 133920, Note_off_c, 7, 64, 64
9, 133920, Note_on_c, 7, 66, 78
9, 134160, Note_off_c, 7, 66, 64
9, 134160, Note_on_c, 7, 62, 75
9, 134400, Note_off_c, 7, 62, 64
9, 134400, Note_on_c, 7, 61, 75
9, 134480, Note_off_c, 7, 61, 64
9, 134640, Note_on_c, 7, 61, 74
9, 134880, Note_off_c, 7, 61, 64
9, 134880, Note_on_c, 7, 62, 72
9, 135120, Note_off_c, 7, 62, 64
9, 135120, Note_on_c, 7, 59, 70
9, 135360, Note_off_c, 7, 59, 64
9, 135360, Note_on_c, 7, 61, 68
9, 135440, Note_off_c, 7, 61, 64
9, 135600, Note_on_c, 7, 64, 66
9, 135840, Note_off_c, 7, 64, 64
9, 135840, Note_on_c, 7, 66, 64
9, 136080, Note_off_c, 7, 66, 64
9, 136080, Note_on_c, 7, 62, 62
9, 136320, Note_off_c, 7, 62, 64
9, 136320, Note_on_c, 7, 61, 60
9, 136400, Note_off_c, 7, 61, 64
9, 136560, Note_on_c, 7, 57, 60
9, 136680, Note_off_c, 7, 57, 64
9, 136680, Note_on_c, 7, 56, 58
9, 136800, Note_off_c, 7, 56, 64
9, 136800, Note_on_c, 7, 57, 56
9, 136920, Note_off_c, 7, 57, 64
9, 136920, Note_on_c, 7, 56, 54
9, 137040, Note_off_c, 7, 56, 64
9, 137040, Note_on_c, 7, 57, 51
9, 137160, Note_off_c, 7, 57, 64
9, 137160, Note_on_c, 7, 56, 48
9, 137280, Note_off_c, 7, 56, 64
9, 137280, Note_on_c, 7, 57, 45
9, 137680, Note_off_c, 7, 57, 64
9, 138240, Note_on_c, 7, 60, 75
9, 138475, Note_off_c, 7, 60, 64
9, 138480, Note_on_c, 7, 60, 75
9, 138715, Note_off_c, 7, 60, 64
9, 138720, Note_on_c, 7, 60, 75
9, 138955, Note_off_c, 7, 60, 64
9, 138960, Note_on_c, 7, 60, 75
9, 139195, Note_off_c, 7, 60, 64
9, 139200, Note_on_c, 7, 60, 75
9, 139435, Note_off_c, 7, 60, 64
9, 139440, Note_on_c, 7, 60, 75
9, 139675, Note_off_c, 7, 60, 64
9, 139680, Note_on_c, 7, 60, 75
9, 139915, Note_off_c, 7, 60, 64
9, 139920, Note_on_c, 7, 60, 75
9, 140155, Note_off_c, 7, 60, 64
9, 140160, Note_on_c, 7, 54, 75
9, 140395, Note_off_c, 7, 54, 64
9, 140400, Note_on_c, 7, 54, 75
9, 140635, Note_off_c, 7, 54, 64
9, 140640, Note_on_c, 7, 54, 75
9, 140875, Note_off_c, 7, 54, 64
9, 140880, Note_on_c, 7, 54, 75
9, 141115, Note_off_c, 7, 54, 64
9, 141120, Note_on_c, 7, 57, 75
9, 141355, Note_off_c, 7, 57, 64
9, 141360, Note_on_c, 7, 57, 75
9, 141595, Note_off_c, 7, 57, 64
9, 141600, Note_on_c, 7, 57, 75
9, 141835, Note_off_c, 7, 57, 64
9, 141840, Note_on_c, 7, 55, 75
9, 142075, Note_off_c, 7, 55, 64
9, 142080, Note_on_c, 7, 59, 75
9, 144235, Note_off_c, 7, 59, 64
9, 144240, Note_on_c, 7, 67, 92
9, 144480, Note_off_c, 7, 67, 64
9, 144480, Note_on_c, 7, 71, 92
9, 144720, Note_off_c, 7, 71, 64
9, 144720, Note_on_c, 7, 67, 92
9, 144960, Note_off_c, 7, 67, 64
9, 144960, Note_on_c, 7, 64, 92
9, 145360, Note_off_c, 7, 64, 64
9, 145920, Note_on_c, 7, 59, 75
9, 148075, Note_off_c, 7, 59, 64
9, 148080, Note_on_c, 7, 59, 92
9, 148480, Note_off_c, 7, 59, 64
9, 148560, Note_on_c, 7, 57, 92
9, 148960, Note_off_c, 7, 57, 64
9, 149040, Note_on_c, 7, 55, 92
9, 149440, Note_off_c, 7, 55, 64
9, 149520, Note_on_c, 7, 54, 92
9, 149755, Note_off_c, 7, 54, 64
9, 149760, Note_on_c, 7, 52, 75
9, 149995, Note_off_c, 7, 52, 64
9, 150000, Note_on_c, 7, 52, 75
9, 150235, Note_off_c, 7, 52, 64
9, 150240, Note_on_c, 7, 52, 75
9, 150475, Note_off_c, 7, 52, 64
9, 150480, Note_on_c, 7, 52, 75
9, 150715, Note_off_c, 7, 52, 64
9, 150720, Note_on_c, 7, 52, 75
9, 150955, Note_off_c, 7, 52, 64
9, 150960, Note_on_c, 7, 52, 75
9, 151195, Note_off_c, 7, 52, 64
9, 151200, Note_on_c, 7, 52, 75
9, 151435, Note_off_c, 7, 52, 64
9, 151440, Note_on_c, 7, 52, 75
9, 151675, Note_off_c, 7, 52, 64
9, 151680, Note_on_c, 7, 64, 75
9, 151915, Note_off_c, 7, 64, 64
9, 151920, Note_on_c, 7, 64, 75
9, 152155, Note_off_c, 7, 64, 64
9, 152160, Note_on_c, 7, 64, 75
9, 152395, Note_off_c, 7, 64, 64
9, 152400, Note_on_c, 7, 64, 75
9, 152635, Note_off_c, 7, 64, 64
9, 152640, Note_on_c, 7, 64, 75
9, 152875, Note_off_c, 7, 64, 64
9, 152880, Note_on_c, 7, 64, 75
9, 153115, Note_off_c, 7, 64, 64
9, 153120, Note_on_c, 7, 64, 75
9, 153355, Note_off_c, 7, 64, 64
9, 153360, Note_on_c, 7, 64, 75
9, 153595, Note_off_c, 7, 64, 64
9, 153600, Note_on_c, 7, 54, 75
9, 155755, Note_off_c, 7, 54, 64
9, 155760, Note_on_c, 7, 62, 92
9, 156000, Note_off_c, 7, 62, 64
9, 156000, Note_on_c, 7, 66, 92
9, 156240, Note_off_c, 7, 66, 64
9, 156240, Note_on_c, 7, 62, 92
9, 156480, Note_off_c, 7, 62, 64
9, 156480, Note_on_c, 7, 59, 92
9, 156880, Note_off_c, 7, 59, 64
9, 157440, Note_on_c, 7, 54, 75
9, 159595, Note_off_c, 7, 54, 64
9, 159600, Note_on_c, 7, 66, 75
9, 160000, Note_off_c, 7, 66, 64
9, 160080, Note_on_c, 7, 66, 75
9, 160315, Note_off_c, 7, 66, 64
9, 160320, Note_on_c, 7, 64, 75
9, 160555, Note_off_c, 7, 64, 64
9, 160560, Note_on_c, 7, 64, 75
9, 160795, Note_off_c, 7, 64, 64
9, 160800, Note_on_c, 7, 64, 75
9, 161035, Note_off_c, 7, 64, 64
9, 161040, Note_on_c, 7, 64, 75
9, 161275, Note_off_c, 7, 64, 64
9, 161280, Note_on_c, 7, 64, 75
9, 161515, Note_off_c, 7, 64, 64
9, 161520, Note_on_c, 7, 64, 75
9, 161920, Note_off_c, 7, 64, 64
9, 162000, Note_on_c, 7, 64, 75
9, 162235, Note_off_c, 7, 64, 64
9, 162240, Note_on_c, 7, 62, 75
9, 162475, Note_off_c, 7, 62, 64
9, 162480, Note_on_c, 7, 62, 75
9, 162715, Note_off_c, 7, 62, 64
9, 162720, Note_on_c, 7, 62, 75
9, 162955, Note_off_c, 7, 62, 64
9, 162960, Note_on_c, 7, 62, 75
9, 163195, Note_off_c, 7, 62, 64
9, 163200, Note_on_c, 7, 62, 75
9, 163600, Note_off_c, 7, 62, 64
9, 163680, Note_on_c, 7, 55, 79
9, 164520, Note_off_c, 7, 55, 64
9, 164640, Note_on_c, 7, 59, 87
9, 164880, Note_off_c, 7, 59, 64
9, 164880, Note_on_c, 7, 64, 89
9, 165115, Note_off_c, 7, 64, 64
9, 165120, Note_on_c, 7, 64, 92
9, 165520, Note_off_c, 7, 64, 64
9, 165660, Note_on_c, 7, 69, 92
9, 165895, Note_off_c, 7, 69, 64
9, 166020, Note_on_c, 7, 69, 92
9, 166135, Note_off_c, 7, 69, 64
9, 166140, Note_on_c, 7, 57, 92
9, 166540, Note_off_c, 7, 57, 64
9, 167820, Program_c, 7, 45
9, 167820, Note_on_c, 7, 50, 45
9, 168220, Note_off_c, 7, 50, 64
9, 168780, Note_on_c, 7, 50, 45
9, 169180, Note_off_c, 7, 50, 64
9, 169740, Note_on_c, 7, 55, 45
9, 170140, Note_off_c, 7, 55, 64
9, 170700, Note_on_c, 7, 55, 45
9, 171100, Note_off_c, 7, 55, 64
9, 171660, Note_on_c, 7, 57, 45
9, 172060, Note_off_c, 7, 57, 64
9, 172620, Note_on_c, 7, 57, 45
9, 173020, Note_off_c, 7, 57, 64
9, 173580, Note_on_c, 7, 58, 45
9, 173980, Note_off_c, 7, 58, 64
9, 174540, Note_on_c, 7, 58, 45
9, 174940, Note_off_c, 7, 58, 64
9, 175500, Note_on_c, 7, 53, 45
9, 175900, Note_off_c, 7, 53, 64
9, 176460, Note_on_c, 7, 53, 45
9, 176860, Note_off_c, 7, 53, 64
9, 177420, Note_on_c, 7, 55, 45
9, 177820, Note_off_c, 7, 55, 64
9, 178380, Note_on_c, 7, 55, 45
9, 178780, Note_off_c, 7, 55, 64
9, 179340, Note_on_c, 7, 55, 45
9, 179740, Note_off_c, 7, 55, 64
9, 179820, Note_on_c, 7, 55, 45
9, 180220, Note_off_c, 7, 55, 64
9, 180300, Note_on_c, 7, 56, 45
9, 180700, Note_off_c, 7, 56, 64
9, 180780, Note_on_c, 7, 57, 45
9, 181180, Note_off_c, 7, 57, 64
9, 181260, Note_on_c, 7, 57, 45
9, 181660, Note_off_c, 7, 57, 64
9, 182220, Note_on_c, 7, 57, 45
9, 182620, Note_off_c, 7, 57, 64
9, 183180, Note_on_c, 7, 57, 45
9, 183580, Note_off_c, 7, 57, 64
9, 184140, Note_on_c, 7, 57, 45
9, 184540, Note_off_c, 7, 57, 64
9, 185100, Note_on_c, 7, 57, 45
9, 185500, Note_off_c, 7, 57, 64
9, 186060, Note_on_c, 7, 57, 45
9, 186460, Note_off_c, 7, 57, 64
9, 186540, Note_on_c, 7, 58, 45
9, 186940, Note_off_c, 7, 58, 64
9, 187500, Note_on_c, 7, 62, 45
9, 187900, Note_off_c, 7, 62, 64
9, 188460, Note_on_c, 7, 64, 45
9, 188860, Note_off_c, 7, 64, 64
9, 190380, Program_c, 7, 48
9, 192300, Note_on_c, 7, 62, 75
9, 192535, Note_off_c, 7, 62, 64
9, 192540, Note_on_c, 7, 62, 75
9, 192775, Note_off_c, 7, 62, 64
9, 192780, Note_on_c, 7, 62, 75
9, 193015, Note_off_c, 7, 62, 64
9, 193020, Note_on_c, 7, 62, 75
9, 193255, Note_off_c, 7, 62, 64
9, 193260, Note_on_c, 7, 62, 75
9, 193495, Note_off_c, 7, 62, 64
9, 193500, Note_on_c, 7, 62, 75
9, 193735, Note_off_c, 7, 62, 64
9, 193740, Note_on_c, 7, 62, 75
9, 193975, Note_off_c, 7, 62, 64
9, 193980, Note_on_c, 7, 62, 75
9, 194215, Note_off_c, 7, 62, 64
9, 194220, Note_on_c, 7, 62, 75
9, 194455, Note_off_c, 7, 62, 64
9, 194460, Note_on_c, 7, 62, 75
9, 194695, Note_off_c, 7, 62, 64
9, 194700, Note_on_c, 7, 62, 75
9, 194935, Note_off_c, 7, 62, 64
9, 194940, Note_on_c, 7, 62, 75
9, 195175, Note_off_c, 7, 62, 64
9, 195180, Note_on_c, 7, 57, 75
9, 195415, Note_off_c, 7, 57, 64
9, 195420, Note_on_c, 7, 57, 75
9, 195655, Note_off_c, 7, 57, 64
9, 195660, Note_on_c, 7, 57, 75
9, 195895, Note_off_c, 7, 57, 64
9, 195900, Note_on_c, 7, 57, 75
9, 196135, Note_off_c, 7, 57, 64
9, 196140, Note_on_c, 7, 57, 75
9, 198295, Note_off_c, 7, 57, 64
9, 198300, Note_on_c, 7, 66, 92
9, 198540, Note_off_c, 7, 66, 64
9, 198540, Note_on_c, 7, 69, 92
9, 198780, Note_off_c, 7, 69, 64
9, 198780, Note_on_c, 7, 66, 92
9, 199020, Note_off_c, 7, 66, 64
9, 199020, Note_on_c, 7, 62, 92
9, 199100, Note_off_c, 7, 62, 64
9, 199260, Note_on_c, 7, 57, 92
9, 199500, Note_off_c, 7, 57, 64
9, 199500, Note_on_c, 7, 62, 92
9, 199740, Note_off_c, 7, 62, 64
9, 199740, Note_on_c, 7, 66, 92
9, 199975, Note_off_c, 7, 66, 64
9, 199980, Note_on_c, 7, 57, 75
9, 201980, Note_off_c, 7, 57, 64
9, 202140, Note_on_c, 7, 62, 75
9, 202540, Note_off_c, 7, 62, 64
9, 202620, Note_on_c, 7, 66, 75
9, 203020, Note_off_c, 7, 66, 64
9, 203100, Note_on_c, 7, 66, 75
9, 203340, Note_off_c, 7, 66, 64
9, 203340, Note_on_c, 7, 64, 75
9, 203580, Note_off_c, 7, 64, 64
9, 203580, Note_on_c, 7, 67, 75
9, 203815, Note_off_c, 7, 67, 64
9, 203820, Note_on_c, 7, 66, 75
9, 204055, Note_off_c, 7, 66, 64
9, 204060, Note_on_c, 7, 66, 75
9, 204295, Note_off_c, 7, 66, 64
9, 204300, Note_on_c, 7, 66, 75
9, 204535, Note_off_c, 7, 66, 64
9, 204540, Note_on_c, 7, 66, 75
9, 204775, Note_off_c, 7, 66, 64
9, 204780, Note_on_c, 7, 69, 75
9, 205015, Note_off_c, 7, 69, 64
9, 205020, Note_on_c, 7, 69, 75
9, 205255, Note_off_c, 7, 69, 64
9, 205260, Note_on_c, 7, 69, 75
9, 205495, Note_off_c, 7, 69, 64
9, 205500, Note_on_c, 7, 69, 75
9, 205735, Note_off_c, 7, 69, 64
9, 205740, Note_on_c, 7, 67, 75
9, 205975, Note_off_c, 7, 67, 64
9, 205980, Note_on_c, 7, 67, 75
9, 206215, Note_off_c, 7, 67, 64
9, 206220, Note_on_c, 7, 67, 75
9, 206455, Note_off_c, 7, 67, 64
9, 206460, Note_on_c, 7, 67, 75
9, 206695, Note_off_c, 7, 67, 64
9, 206700, Note_on_c, 7, 67, 75
9, 206935, Note_off_c, 7, 67, 64
9, 206940, Note_on_c, 7, 67, 75
9, 207180, Note_off_c, 7, 67, 64
9, 207180, Note_on_c, 7, 71, 75
9, 207420, Note_off_c, 7, 71, 64
9, 207420, Note_on_c, 7, 64, 75
9, 207655, Note_off_c, 7, 64, 64
9, 207660, Note_on_c, 7, 69, 75
9, 207895, Note_off_c, 7, 69, 64
9, 207900, Note_on_c, 7, 57, 75
9, 208135, Note_off_c, 7, 57, 64
9, 208140, Note_on_c, 7, 57, 75
9, 208375, Note_off_c, 7, 57, 64
9, 208380, Note_on_c, 7, 57, 75
9, 208615, Note_off_c, 7, 57, 64
9, 208620, Note_on_c, 7, 57, 75
9, 208855, Note_off_c, 7, 57, 64
9, 208860, Note_on_c, 7, 57, 75
9, 209095, Note_off_c, 7, 57, 64
9, 209100, Note_on_c, 7, 57, 75
9, 209335, Note_off_c, 7, 57, 64
9, 209340, Note_on_c, 7, 57, 75
9, 209575, Note_off_c, 7, 57, 64
9, 209580, Note_on_c, 7, 57, 75
9, 209815, Note_off_c, 7, 57, 64
9, 209820, Note_on_c, 7, 57, 75
9, 210055, Note_off_c, 7, 57, 64
9, 210060, Note_on_c, 7, 57, 75
9, 210295, Note_off_c, 7, 57, 64
9, 210300, Note_on_c, 7, 57, 75
9, 210535, Note_off_c, 7, 57, 64
9, 210540, Note_on_c, 7, 57, 75
9, 210775, Note_off_c, 7, 57, 64
9, 210780, Note_on_c, 7, 57, 75
9, 211015, Note_off_c, 7, 57, 64
9, 211020, Note_on_c, 7, 57, 75
9, 211255, Note_off_c, 7, 57, 64
9, 211260, Note_on_c, 7, 57, 75
9, 211495, Note_off_c, 7, 57, 64
9, 211500, Note_on_c, 7, 57, 75
9, 211900, Note_off_c, 7, 57, 64
9, 212220, Note_on_c, 7, 69, 75
9, 212455, Note_off_c, 7, 69, 64
9, 212460, Note_on_c, 7, 69, 75
9, 212860, Note_off_c, 7, 69, 64
9, 213180, Note_on_c, 7, 64, 75
9, 213415, Note_off_c, 7, 64, 64
9, 213420, Note_on_c, 7, 62, 75
9, 213820, Note_off_c, 7, 62, 64
9, 214140, Note_on_c, 7, 69, 75
9, 214375, Note_off_c, 7, 69, 64
9, 214380, Note_on_c, 7, 69, 75
9, 214780, Note_off_c, 7, 69, 64
9, 215100, Note_on_c, 7, 67, 75
9, 215335, Note_off_c, 7, 67, 64
9, 215340, Note_on_c, 7, 66, 75
9, 215420, Note_off_c, 7, 66, 64
9, 215580, Note_on_c, 7, 66, 75
9, 215660, Note_off_c, 7, 66, 64
9, 215820, Note_on_c, 7, 66, 75
9, 215900, Note_off_c, 7, 66, 64
9, 216060, Note_on_c, 7, 66, 75
9, 216140, Note_off_c, 7, 66, 64
9, 216300, Note_on_c, 7, 66, 75
9, 216380, Note_off_c, 7, 66, 64
9, 216540, Note_on_c, 7, 66, 75
9, 216620, Note_off_c, 7, 66, 64
9, 216780, Note_on_c, 7, 66, 75
9, 216860, Note_off_c, 7, 66, 64
9, 217020, Note_on_c, 7, 66, 75
9, 217100, Note_off_c, 7, 66, 64
9, 217260, Note_on_c, 7, 66, 75
9, 217340, Note_off_c, 7, 66, 64
9, 217500, Note_on_c, 7, 66, 75
9, 217580, Note_off_c, 7, 66, 64
9, 217740, Note_on_c, 7, 66, 75
9, 217820, Note_off_c, 7, 66, 64
9, 217980, Note_on_c, 7, 66, 75
9, 218060, Note_off_c, 7, 66, 64
9, 218220, Note_on_c, 7, 57, 75
9, 218220, Note_on_c, 7, 66, 75
9, 218300, Note_off_c, 7, 66, 64
9, 218300, Note_off_c, 7, 57, 64
9, 218460, Note_on_c, 7, 57, 75
9, 218460, Note_on_c, 7, 66, 75
9, 218540, Note_off_c, 7, 66, 64
9, 218540, Note_off_c, 7, 57, 64
9, 218700, Note_on_c, 7, 57, 75
9, 218700, Note_on_c, 7, 66, 75
9, 218780, Note_off_c, 7, 66, 64
9, 218780, Note_off_c, 7, 57, 64
9, 218940, Note_on_c, 7, 57, 75
9, 218940, Note_on_c, 7, 66, 75
9, 219020, Note_off_c, 7, 66, 64
9, 219020, Note_off_c, 7, 57, 64
9, 219180, Note_on_c, 7, 62, 75
9, 219260, Note_off_c, 7, 62, 64
9, 219420, Note_on_c, 7, 62, 75
9, 219500, Note_off_c, 7, 62, 64
9, 219660, Note_on_c, 7, 62, 75
9, 219740, Note_off_c, 7, 62, 64
9, 219900, Note_on_c, 7, 62, 75
9, 219980, Note_off_c, 7, 62, 64
9, 220140, Note_on_c, 7, 62, 75
9, 220220, Note_off_c, 7, 62, 64
9, 220380, Note_on_c, 7, 62, 75
9, 220460, Note_off_c, 7, 62, 64
9, 220620, Note_on_c, 7, 62, 75
9, 220700, Note_off_c, 7, 62, 64
9, 220860, Note_on_c, 7, 62, 75
9, 220940, Note_off_c, 7, 62, 64
9, 221100, Note_on_c, 7, 66, 75
9, 221100, Note_on_c, 7, 69, 75
9, 221180, Note_off_c, 7, 69, 64
9, 221180, Note_off_c, 7, 66, 64
9, 221340, Note_on_c, 7, 66, 75
9, 221340, Note_on_c, 7, 69, 75
9, 221420, Note_off_c, 7, 69, 64
9, 221420, Note_off_c, 7, 66, 64
9, 221580, Note_on_c, 7, 66, 75
9, 221580, Note_on_c, 7, 69, 75
9, 221660, Note_off_c, 7, 69, 64
9, 221660, Note_off_c, 7, 66, 64
9, 221820, Note_on_c, 7, 66, 75
9, 221820, Note_on_c, 7, 69, 75
9, 221900, Note_off_c, 7, 69, 64
9, 221900, Note_off_c, 7, 66, 64
9, 222060, Note_on_c, 7, 66, 75
9, 222060, Note_on_c, 7, 69, 75
9, 222140, Note_off_c, 7, 69, 64
9, 222140, Note_off_c, 7, 66, 64
9, 222300, Note_on_c, 7, 62, 75
9, 222700, Note_off_c, 7, 62, 64
9, 222780, Note_on_c, 7, 62, 75
9, 223255, Note_off_c, 7, 62, 64
9, 223260, Note_on_c, 7, 62, 75
9, 223660, Note_off_c, 7, 62, 64
9, 223740, Note_on_c, 7, 62, 75
9, 224140, Note_off_c, 7, 62, 64
9, 224220, Note_on_c, 7, 62, 75
9, 224620, Note_off_c, 7, 62, 64
9, 224700, Note_on_c, 7, 62, 75
9, 225340, Note_off_c, 7, 62, 64
9, 225420, Note_on_c, 7, 69, 75
9, 225900, Note_off_c, 7, 69, 64
9, 225900, Note_on_c, 7, 67, 75
9, 226300, Note_off_c, 7, 67, 64
9, 226380, Note_on_c, 7, 64, 75
9, 226780, Note_off_c, 7, 64, 64
9, 226860, Note_on_c, 7, 64, 75
9, 227260, Note_off_c, 7, 64, 64
9, 227340, Note_on_c, 7, 69, 75
9, 227820, Note_off_c, 7, 69, 64
9, 227820, Note_on_c, 7, 68, 75
9, 228220, Note_off_c, 7, 68, 64
9, 228300, Note_on_c, 7, 59, 75
9, 228540, Note_off_c, 7, 59, 64
9, 228540, Note_on_c, 7, 56, 75
9, 228775, Note_off_c, 7, 56, 64
9, 228780, Note_on_c, 7, 57, 75
9, 229180, Note_off_c, 7, 57, 64
9, 229260, Note_on_c, 7, 67, 75
9, 229740, Note_off_c, 7, 67, 64
9, 229740, Note_on_c, 7, 64, 75
9, 230140, Note_off_c, 7, 64, 64
9, 230220, Note_on_c, 7, 61, 75
9, 230220, Note_on_c, 7, 64, 75
9, 230620, Note_off_c, 7, 64, 64
9, 230620, Note_off_c, 7, 61, 64
9, 230700, Note_on_c, 7, 62, 75
9, 231540, Note_off_c, 7, 62, 64
9, 231660, Note_on_c, 7, 61, 75
9, 232060, Note_off_c, 7, 61, 64
9, 232140, Note_on_c, 7, 64, 75
9, 232380, Note_off_c, 7, 64, 64
9, 232380, Note_on_c, 7, 61, 75
9, 232615, Note_off_c, 7, 61, 64
9, 232620, Note_on_c, 7, 62, 75
9, 232860, Note_off_c, 7, 62, 64
9, 232860, Note_on_c, 7, 66, 75
9, 233100, Note_off_c, 7, 66, 64
9, 233100, Note_on_c, 7, 69, 75
9, 233340, Note_off_c, 7, 69, 64
9, 233340, Note_on_c, 7, 62, 75
9, 233580, Note_off_c, 7, 62, 64
9, 233580, Note_on_c, 7, 61, 75
9, 233980, Note_off_c, 7, 61, 64
9, 234060, Note_on_c, 7, 64, 75
9, 234300, Note_off_c, 7, 64, 64
9, 234300, Note_on_c, 7, 61, 75
9, 234540, Note_off_c, 7, 61, 64
9, 234540, Note_on_c, 7, 62, 75
9, 234940, Note_off_c, 7, 62, 64
9, 236700, Note_on_c, 7, 62, 92
9, 236780, Note_off_c, 7, 62, 64
9, 236940, Note_on_c, 7, 50, 92
9, 237020, Note_off_c, 7, 50, 64
9, 237180, Note_on_c, 7, 52, 92
9, 237210, Note_off_c, 7, 52, 64
9, 237210, Note_on_c, 7, 54, 92
9, 237240, Note_off_c, 7, 54, 64
9, 237240, Note_on_c, 7, 52, 92
9, 237270, Note_off_c, 7, 52, 64
9, 237270, Note_on_c, 7, 54, 92
9, 237300, Note_off_c, 7, 54, 64
9, 237300, Note_on_c, 7, 52, 92
9, 237330, Note_off_c, 7, 52, 64
9, 237330, Note_on_c, 7, 54, 92
9, 237360, Note_off_c, 7, 54, 64
9, 237360, Note_on_c, 7, 52, 92
9, 237390, Note_off_c, 7, 52, 64
9, 237390, Note_on_c, 7, 54, 92
9, 237420, Note_off_c, 7, 54, 64
9, 237420, Note_on_c, 7, 54, 92
9, 237500, Note_off_c, 7, 54, 64
9, 237660, Note_on_c, 7, 57, 92
9, 238140, Note_off_c, 7, 57, 64
9, 238140, Note_on_c, 7, 61, 92
9, 238375, Note_off_c, 7, 61, 64
9, 238380, Note_on_c, 7, 62, 92
9, 238615, Note_off_c, 7, 62, 64
9, 238620, Note_on_c, 7, 62, 92
9, 239020, Note_off_c, 7, 62, 64
9, 239100, Note_on_c, 7, 62, 92
9, 239500, Note_off_c, 7, 62, 64
9, 239580, Note_on_c, 7, 69, 92
9, 239820, Note_off_c, 7, 69, 64
9, 239820, Note_on_c, 7, 67, 92
9, 240060, Note_off_c, 7, 67, 64
9, 240060, Note_on_c, 7, 66, 92
9, 240300, Note_off_c, 7, 66, 64
9, 240300, Note_on_c, 7, 67, 92
9, 240380, Note_off_c, 7, 67, 64
9, 240540, Note_on_c, 7, 67, 92
9, 240620, Note_off_c, 7, 67, 64
9, 240780, Note_on_c, 7, 67, 92
9, 240860, Note_off_c, 7, 67, 64
9, 241020, Note_on_c, 7, 67, 92
9, 241100, Note_off_c, 7, 67, 64
9, 241260, Note_on_c, 7, 55, 92
9, 241340, Note_off_c, 7, 55, 64
9, 241500, Note_on_c, 7, 55, 92
9, 241580, Note_off_c, 7, 55, 64
9, 241740, Note_on_c, 7, 55, 92
9, 241820, Note_off_c, 7, 55, 64
9, 241980, Note_on_c, 7, 55, 92
9, 242060, Note_off_c, 7, 55, 64
9, 242220, Note_on_c, 7, 57, 92
9, 242300, Note_off_c, 7, 57, 64
9, 242460, Note_on_c, 7, 54, 89
9, 242540, Note_off_c, 7, 54, 64
9, 242700, Note_on_c, 7, 54, 86
9, 242780, Note_off_c, 7, 54, 64
9, 242940, Note_on_c, 7, 54, 82
9, 243020, Note_off_c, 7, 54, 64
9, 243180, Note_on_c, 7, 54, 78
9, 243260, Note_off_c, 7, 54, 64
9, 243420, Note_on_c, 7, 54, 74
9, 243500, Note_off_c, 7, 54, 64
9, 243660, Note_on_c, 7, 54, 70
9, 243740, Note_off_c, 7, 54, 64
9, 243900, Note_on_c, 7, 54, 66
9, 243980, Note_off_c, 7, 54, 64
9, 244140, Note_on_c, 7, 55, 62
9, 244220, Note_off_c, 7, 55, 64
9, 244380, Note_on_c, 7, 55, 58
9, 244460, Note_off_c, 7, 55, 64
9, 244620, Note_on_c, 7, 55, 54
9, 244700, Note_off_c, 7, 55, 64
9, 244860, Note_on_c, 7, 55, 50
9, 244940, Note_off_c, 7, 55, 64
9, 245100, Note_on_c, 7, 59, 46
9, 245180, Note_off_c, 7, 59, 64
9, 245340, Note_on_c, 7, 59, 42
9, 245420, Note_off_c, 7, 59, 64
9, 245580, Note_on_c, 7, 57, 38
9, 245660, Note_off_c, 7, 57, 64
9, 245820, Note_on_c, 7, 57, 34
9, 245900, Note_off_c, 7, 57, 64
9, 246060, Note_on_c, 7, 57, 30
9, 246300, Note_off_c, 7, 57, 64
9, 246300, Note_on_c, 7, 66, 30
9, 246380, Note_off_c, 7, 66, 64
9, 246540, Note_on_c, 7, 66, 30
9, 246620, Note_off_c, 7, 66, 64
9, 246780, Note_on_c, 7, 66, 30
9, 246860, Note_off_c, 7, 66, 64
9, 247020, Note_on_c, 7, 66, 30
9, 247420, Note_off_c, 7, 66, 64
9, 247980, Note_on_c, 7, 59, 30
9, 248220, Note_off_c, 7, 59, 64
9, 248220, Note_on_c, 7, 62, 30
9, 248300, Note_off_c, 7, 62, 64
9, 248460, Note_on_c, 7, 62, 34
9, 248540, Note_off_c, 7, 62, 64
9, 248700, Note_on_c, 7, 62, 38
9, 248780, Note_off_c, 7, 62, 64
9, 248940, Note_on_c, 7, 62, 42
9, 249340, Note_off_c, 7, 62, 64
9, 249900, Note_on_c, 7, 62, 60
9, 250140, Note_off_c, 7, 62, 64
9, 250140, Note_on_c, 7, 66, 60
9, 250220, Note_off_c, 7, 66, 64
9, 250380, Note_on_c, 7, 66, 62
9, 250460, Note_off_c, 7, 66, 64
9, 250620, Note_on_c, 7, 66, 64
9, 250700, Note_off_c, 7, 66, 64
9, 250860, Note_on_c, 7, 66, 66
9, 251260, Note_off_c, 7, 66, 64
9, 251820, Note_on_c, 7, 67, 75
9, 252220, Note_off_c, 7, 67, 64
9, 254220, Note_on_c, 7, 54, 92
9, 254700, Note_off_c, 7, 54, 64
9, 254700, Note_on_c, 7, 55, 92
9, 255180, Note_off_c, 7, 55, 64
9, 255180, Note_on_c, 7, 54, 92
9, 255660, Note_off_c, 7, 54, 64
9, 255660, Note_on_c, 7, 55, 92
9, 255895, Note_off_c, 7, 55, 64
9, 255900, Note_on_c, 7, 67, 92
9, 256300, Note_off_c, 7, 67, 64
9, 256380, Note_on_c, 7, 67, 92
9, 256780, Note_off_c, 7, 67, 64
9, 256860, Note_on_c, 7, 67, 92
9, 257260, Note_off_c, 7, 67, 64
9, 257340, Note_on_c, 7, 67, 92
9, 257575, Note_off_c, 7, 67, 64
9, 257580, Note_on_c, 7, 69, 92
9, 257815, Note_off_c, 7, 69, 64
9, 257820, Note_on_c, 7, 69, 92
9, 258055, Note_off_c, 7, 69, 64
9, 258060, Note_on_c, 7, 69, 92
9, 258295, Note_off_c, 7, 69, 64
9, 258300, Note_on_c, 7, 69, 92
9, 258535, Note_off_c, 7, 69, 64
9, 258540, Note_on_c, 7, 57, 92
9, 258775, Note_off_c, 7, 57, 64
9, 258780, Note_on_c, 7, 57, 92
9, 259015, Note_off_c, 7, 57, 64
9, 259020, Note_on_c, 7, 55, 92
9, 259255, Note_off_c, 7, 55, 64
9, 259260, Note_on_c, 7, 55, 92
9, 259495, Note_off_c, 7, 55, 64
9, 259500, Note_on_c, 7, 54, 92
9, 259580, Note_off_c, 7, 54, 64
9, 259740, Note_on_c, 7, 66, 92
9, 259980, Note_off_c, 7, 66, 64
9, 259980, Note_on_c, 7, 67, 92
9, 260220, Note_off_c, 7, 67, 64
9, 260220, Note_on_c, 7, 64, 92
9, 260460, Note_off_c, 7, 64, 64
9, 260460, Note_on_c, 7, 66, 92
9, 260540, Note_off_c, 7, 66, 64
9, 260700, Note_on_c, 7, 62, 92
9, 260940, Note_off_c, 7, 62, 64
9, 260940, Note_on_c, 7, 59, 92
9, 261180, Note_off_c, 7, 59, 64
9, 261180, Note_on_c, 7, 55, 92
9, 261420, Note_off_c, 7, 55, 64
9, 261420, Note_on_c, 7, 54, 92
9, 261500, Note_off_c, 7, 54, 64
9, 261660, Note_on_c, 7, 66, 87
9, 261900, Note_off_c, 7, 66, 64
9, 261900, Note_on_c, 7, 67, 81
9, 262140, Note_off_c, 7, 67, 64
9, 262140, Note_on_c, 7, 64, 75
9, 262380, Note_off_c, 7, 64, 64
9, 262380, Note_on_c, 7, 66, 69
9, 262460, Note_off_c, 7, 66, 64
9, 262620, Note_on_c, 7, 62, 63
9, 262860, Note_off_c, 7, 62, 64
9, 262860, Note_on_c, 7, 59, 57
9, 263100, Note_off_c, 7, 59, 64
9, 263100, Note_on_c, 7, 55, 51
9, 263340, Note_off_c, 7, 55, 64
9, 263340, Note_on_c, 7, 54, 45
9, 263420, Note_off_c, 7, 54, 64
9, 263580, Note_on_c, 7, 62, 45
9, 263700, Note_off_c, 7, 62, 64
9, 263700, Note_on_c, 7, 61, 45
9, 263820, Note_off_c, 7, 61, 64
9, 263820, Note_on_c, 7, 62, 45
9, 263940, Note_off_c, 7, 62, 64
9, 263940, Note_on_c, 7, 61, 45
9, 264060, Note_off_c, 7, 61, 64
9, 264060, Note_on_c, 7, 62, 45
9, 264180, Note_off_c, 7, 62, 64
9, 264180, Note_on_c, 7, 61, 45
9, 264300, Note_off_c, 7, 61, 64
9, 264300, Note_on_c, 7, 62, 45
9, 264700, Note_off_c, 7, 62, 64
9, 264700, End_track
10, 0, Start_track
10, 0, MIDI_port, 0
10, 0, Channel_prefix, 8
10, 0, Control_c, 8, 7, 127
10, 0, Control_c, 8, 10, 95
10, 0, Control_c, 8, 91, 127
10, 0, Program_c, 8, 48
10, 0, Note_on_c, 8, 50, 75
10, 80, Note_off_c, 8, 50, 64
10, 240, Note_on_c, 8, 50, 75
10, 320, Note_off_c, 8, 50, 64
10, 480, Note_on_c, 8, 50, 75
10, 560, Note_off_c, 8, 50, 64
10, 720, Note_on_c, 8, 50, 75
10, 800, Note_off_c, 8, 50, 64
10, 960, Note_on_c, 8, 50, 75
10, 1040, Note_off_c, 8, 50, 64
10, 1200, Note_on_c, 8, 50, 75
10, 1280, Note_off_c, 8, 50, 64
10, 1440, Note_on_c, 8, 50, 75
10, 1520, Note_off_c, 8, 50, 64
10, 1680, Note_on_c, 8, 50, 75
10, 1760, Note_off_c, 8, 50, 64
10, 1920, Note_on_c, 8, 50, 75
10, 2000, Note_off_c, 8, 50, 64
10, 2160, Note_on_c, 8, 50, 75
10, 2240, Note_off_c, 8, 50, 64
10, 2400, Note_on_c, 8, 50, 75
10, 2480, Note_off_c, 8, 50, 64
10, 2640, Note_on_c, 8, 50, 75
10, 2720, Note_off_c, 8, 50, 64
10, 2880, Note_on_c, 8, 50, 75
10, 2960, Note_off_c, 8, 50, 64
10, 3120, Note_on_c, 8, 50, 75
10, 3200, Note_off_c, 8, 50, 64
10, 3360, Note_on_c, 8, 50, 75
10, 3440, Note_off_c, 8, 50, 64
10, 3600, Note_on_c, 8, 50, 75
10, 3680, Note_off_c, 8, 50, 64
10, 3840, Note_on_c, 8, 50, 75
10, 3920, Note_off_c, 8, 50, 64
10, 4080, Note_on_c, 8, 50, 75
10, 4160, Note_off_c, 8, 50, 64
10, 4320, Note_on_c, 8, 50, 75
10, 4400, Note_off_c, 8, 50, 64
10, 4560, Note_on_c, 8, 50, 75
10, 4640, Note_off_c, 8, 50, 64
10, 4800, Note_on_c, 8, 50, 75
10, 4880, Note_off_c, 8, 50, 64
10, 5040, Note_on_c, 8, 50, 75
10, 5120, Note_off_c, 8, 50, 64
10, 5280, Note_on_c, 8, 50, 75
10, 5360, Note_off_c, 8, 50, 64
10, 5520, Note_on_c, 8, 50, 75
10, 5600, Note_off_c, 8, 50, 64
10, 5760, Note_on_c, 8, 50, 75
10, 5840, Note_off_c, 8, 50, 64
10, 6000, Note_on_c, 8, 50, 75
10, 6080, Note_off_c, 8, 50, 64
10, 6240, Note_on_c, 8, 50, 75
10, 6320, Note_off_c, 8, 50, 64
10, 6480, Note_on_c, 8, 50, 75
10, 6560, Note_off_c, 8, 50, 64
10, 6720, Note_on_c, 8, 50, 75
10, 6800, Note_off_c, 8, 50, 64
10, 6960, Note_on_c, 8, 50, 75
10, 7040, Note_off_c, 8, 50, 64
10, 7200, Note_on_c, 8, 50, 75
10, 7280, Note_off_c, 8, 50, 64
10, 7440, Note_on_c, 8, 50, 75
10, 7520, Note_off_c, 8, 50, 64
10, 7680, Note_on_c, 8, 45, 75
10, 7760, Note_off_c, 8, 45, 64
10, 7920, Note_on_c, 8, 45, 75
10, 8000, Note_off_c, 8, 45, 64
10, 8160, Note_on_c, 8, 45, 75
10, 8240, Note_off_c, 8, 45, 64
10, 8400, Note_on_c, 8, 45, 75
10, 8480, Note_off_c, 8, 45, 64
10, 8640, Note_on_c, 8, 45, 75
10, 8720, Note_off_c, 8, 45, 64
10, 8880, Note_on_c, 8, 45, 75
10, 8960, Note_off_c, 8, 45, 64
10, 9120, Note_on_c, 8, 45, 75
10, 9200, Note_off_c, 8, 45, 64
10, 9360, Note_on_c, 8, 45, 75
10, 9440, Note_off_c, 8, 45, 64
10, 9600, Note_on_c, 8, 50, 75
10, 9680, Note_off_c, 8, 50, 64
10, 9840, Note_on_c, 8, 50, 75
10, 9920, Note_off_c, 8, 50, 64
10, 10080, Note_on_c, 8, 50, 75
10, 10160, Note_off_c, 8, 50, 64
10, 10320, Note_on_c, 8, 50, 75
10, 10400, Note_off_c, 8, 50, 64
10, 10560, Note_on_c, 8, 50, 75
10, 10640, Note_off_c, 8, 50, 64
10, 10800, Note_on_c, 8, 50, 75
10, 10880, Note_off_c, 8, 50, 64
10, 11040, Note_on_c, 8, 52, 75
10, 11120, Note_off_c, 8, 52, 64
10, 11280, Note_on_c, 8, 52, 75
10, 11360, Note_off_c, 8, 52, 64
10, 11520, Note_on_c, 8, 54, 75
10, 11600, Note_off_c, 8, 54, 64
10, 11760, Note_on_c, 8, 54, 75
10, 11840, Note_off_c, 8, 54, 64
10, 12000, Note_on_c, 8, 54, 75
10, 12080, Note_off_c, 8, 54, 64
10, 12240, Note_on_c, 8, 54, 75
10, 12320, Note_off_c, 8, 54, 64
10, 12480, Note_on_c, 8, 54, 75
10, 12560, Note_off_c, 8, 54, 64
10, 12720, Note_on_c, 8, 54, 75
10, 12800, Note_off_c, 8, 54, 64
10, 12960, Note_on_c, 8, 54, 75
10, 13040, Note_off_c, 8, 54, 64
10, 13200, Note_on_c, 8, 54, 75
10, 13280, Note_off_c, 8, 54, 64
10, 13440, Note_on_c, 8, 55, 75
10, 13520, Note_off_c, 8, 55, 64
10, 13680, Note_on_c, 8, 55, 75
10, 13760, Note_off_c, 8, 55, 64
10, 13920, Note_on_c, 8, 55, 75
10, 14000, Note_off_c, 8, 55, 64
10, 14160, Note_on_c, 8, 55, 75
10, 14240, Note_off_c, 8, 55, 64
10, 14400, Note_on_c, 8, 55, 75
10, 14480, Note_off_c, 8, 55, 64
10, 14640, Note_on_c, 8, 55, 75
10, 14720, Note_off_c, 8, 55, 64
10, 14880, Note_on_c, 8, 55, 75
10, 14960, Note_off_c, 8, 55, 64
10, 15120, Note_on_c, 8, 55, 75
10, 15200, Note_off_c, 8, 55, 64
10, 15360, Note_on_c, 8, 57, 75
10, 15440, Note_off_c, 8, 57, 64
10, 15600, Note_on_c, 8, 57, 75
10, 15680, Note_off_c, 8, 57, 64
10, 15840, Note_on_c, 8, 57, 75
10, 15920, Note_off_c, 8, 57, 64
10, 16080, Note_on_c, 8, 57, 75
10, 16160, Note_off_c, 8, 57, 64
10, 16320, Note_on_c, 8, 57, 75
10, 16400, Note_off_c, 8, 57, 64
10, 16560, Note_on_c, 8, 57, 75
10, 16640, Note_off_c, 8, 57, 64
10, 16800, Note_on_c, 8, 57, 75
10, 16880, Note_off_c, 8, 57, 64
10, 17040, Note_on_c, 8, 57, 75
10, 17120, Note_off_c, 8, 57, 64
10, 17280, Note_on_c, 8, 45, 75
10, 17360, Note_off_c, 8, 45, 64
10, 17520, Note_on_c, 8, 45, 75
10, 17600, Note_off_c, 8, 45, 64
10, 17760, Note_on_c, 8, 45, 75
10, 17840, Note_off_c, 8, 45, 64
10, 18000, Note_on_c, 8, 45, 75
10, 18080, Note_off_c, 8, 45, 64
10, 18240, Note_on_c, 8, 45, 75
10, 18320, Note_off_c, 8, 45, 64
10, 18480, Note_on_c, 8, 45, 75
10, 18560, Note_off_c, 8, 45, 64
10, 18720, Note_on_c, 8, 45, 75
10, 18800, Note_off_c, 8, 45, 64
10, 18960, Note_on_c, 8, 45, 75
10, 19040, Note_off_c, 8, 45, 64
10, 19200, Note_on_c, 8, 50, 75
10, 19600, Note_off_c, 8, 50, 64
10, 19920, Note_on_c, 8, 45, 75
10, 20155, Note_off_c, 8, 45, 64
10, 20160, Note_on_c, 8, 50, 75
10, 20560, Note_off_c, 8, 50, 64
10, 20880, Note_on_c, 8, 57, 75
10, 21115, Note_off_c, 8, 57, 64
10, 21120, Note_on_c, 8, 50, 75
10, 21520, Note_off_c, 8, 50, 64
10, 21840, Note_on_c, 8, 45, 75
10, 22075, Note_off_c, 8, 45, 64
10, 22080, Note_on_c, 8, 50, 75
10, 22480, Note_off_c, 8, 50, 64
10, 22800, Note_on_c, 8, 57, 75
10, 23035, Note_off_c, 8, 57, 64
10, 23040, Note_on_c, 8, 50, 75
10, 23120, Note_off_c, 8, 50, 64
10, 23280, Note_on_c, 8, 50, 75
10, 23360, Note_off_c, 8, 50, 64
10, 23520, Note_on_c, 8, 50, 75
10, 23600, Note_off_c, 8, 50, 64
10, 23760, Note_on_c, 8, 50, 75
10, 23840, Note_off_c, 8, 50, 64
10, 24000, Note_on_c, 8, 50, 75
10, 24080, Note_off_c, 8, 50, 64
10, 24240, Note_on_c, 8, 50, 75
10, 24320, Note_off_c, 8, 50, 64
10, 24480, Note_on_c, 8, 50, 75
10, 24560, Note_off_c, 8, 50, 64
10, 24720, Note_on_c, 8, 50, 75
10, 24800, Note_off_c, 8, 50, 64
10, 24960, Note_on_c, 8, 50, 75
10, 25040, Note_off_c, 8, 50, 64
10, 25200, Note_on_c, 8, 50, 75
10, 25280, Note_off_c, 8, 50, 64
10, 25440, Note_on_c, 8, 50, 75
10, 25520, Note_off_c, 8, 50, 64
10, 25680, Note_on_c, 8, 50, 75
10, 25760, Note_off_c, 8, 50, 64
10, 25920, Note_on_c, 8, 50, 75
10, 26000, Note_off_c, 8, 50, 64
10, 26160, Note_on_c, 8, 50, 75
10, 26400, Note_off_c, 8, 50, 64
10, 26400, Note_on_c, 8, 50, 75
10, 26480, Note_off_c, 8, 50, 64
10, 26640, Note_on_c, 8, 50, 75
10, 26720, Note_off_c, 8, 50, 64
10, 26880, Note_on_c, 8, 52, 75
10, 26960, Note_off_c, 8, 52, 64
10, 27120, Note_on_c, 8, 52, 75
10, 27200, Note_off_c, 8, 52, 64
10, 27360, Note_on_c, 8, 52, 75
10, 27440, Note_off_c, 8, 52, 64
10, 27600, Note_on_c, 8, 52, 75
10, 27680, Note_off_c, 8, 52, 64
10, 27840, Note_on_c, 8, 52, 75
10, 27920, Note_off_c, 8, 52, 64
10, 28080, Note_on_c, 8, 52, 75
10, 28160, Note_off_c, 8, 52, 64
10, 28320, Note_on_c, 8, 52, 75
10, 28400, Note_off_c, 8, 52, 64
10, 28560, Note_on_c, 8, 52, 75
10, 28640, Note_off_c, 8, 52, 64
10, 28800, Note_on_c, 8, 52, 75
10, 28880, Note_off_c, 8, 52, 64
10, 29040, Note_on_c, 8, 52, 74
10, 29120, Note_off_c, 8, 52, 64
10, 29280, Note_on_c, 8, 52, 72
10, 29360, Note_off_c, 8, 52, 64
10, 29520, Note_on_c, 8, 52, 70
10, 29600, Note_off_c, 8, 52, 64
10, 29760, Note_on_c, 8, 52, 68
10, 29840, Note_off_c, 8, 52, 64
10, 30000, Note_on_c, 8, 52, 66
10, 30240, Note_off_c, 8, 52, 64
10, 30240, Note_on_c, 8, 52, 64
10, 30320, Note_off_c, 8, 52, 64
10, 30480, Note_on_c, 8, 56, 62
10, 30560, Note_off_c, 8, 56, 64
10, 30720, Note_on_c, 8, 57, 60
10, 30800, Note_off_c, 8, 57, 64
10, 30960, Note_on_c, 8, 57, 60
10, 31040, Note_off_c, 8, 57, 64
10, 31200, Note_on_c, 8, 57, 60
10, 31280, Note_off_c, 8, 57, 64
10, 31440, Note_on_c, 8, 57, 60
10, 31520, Note_off_c, 8, 57, 64
10, 31680, Note_on_c, 8, 61, 60
10, 31760, Note_off_c, 8, 61, 64
10, 31920, Note_on_c, 8, 61, 60
10, 32000, Note_off_c, 8, 61, 64
10, 32160, Note_on_c, 8, 61, 60
10, 32240, Note_off_c, 8, 61, 64
10, 32400, Note_on_c, 8, 61, 60
10, 32480, Note_off_c, 8, 61, 64
10, 32640, Note_on_c, 8, 59, 60
10, 32720, Note_off_c, 8, 59, 64
10, 32880, Note_on_c, 8, 59, 60
10, 32960, Note_off_c, 8, 59, 64
10, 33120, Note_on_c, 8, 59, 60
10, 33200, Note_off_c, 8, 59, 64
10, 33360, Note_on_c, 8, 59, 60
10, 33440, Note_off_c, 8, 59, 64
10, 33600, Note_on_c, 8, 56, 60
10, 33680, Note_off_c, 8, 56, 64
10, 33840, Note_on_c, 8, 56, 60
10, 33920, Note_off_c, 8, 56, 64
10, 34080, Note_on_c, 8, 56, 60
10, 34160, Note_off_c, 8, 56, 64
10, 34320, Note_on_c, 8, 56, 60
10, 34400, Note_off_c, 8, 56, 64
10, 34560, Note_on_c, 8, 57, 60
10, 34640, Note_off_c, 8, 57, 64
10, 34800, Note_on_c, 8, 57, 60
10, 34880, Note_off_c, 8, 57, 64
10, 35040, Note_on_c, 8, 57, 60
10, 35120, Note_off_c, 8, 57, 64
10, 35280, Note_on_c, 8, 57, 60
10, 35360, Note_off_c, 8, 57, 64
10, 35520, Note_on_c, 8, 61, 60
10, 35600, Note_off_c, 8, 61, 64
10, 35760, Note_on_c, 8, 61, 60
10, 35840, Note_off_c, 8, 61, 64
10, 36000, Note_on_c, 8, 61, 60
10, 36080, Note_off_c, 8, 61, 64
10, 36240, Note_on_c, 8, 61, 60
10, 36320, Note_off_c, 8, 61, 64
10, 36480, Note_on_c, 8, 59, 60
10, 36560, Note_off_c, 8, 59, 64
10, 36720, Note_on_c, 8, 59, 60
10, 36800, Note_off_c, 8, 59, 64
10, 36960, Note_on_c, 8, 59, 60
10, 37040, Note_off_c, 8, 59, 64
10, 37200, Note_on_c, 8, 59, 60
10, 37280, Note_off_c, 8, 59, 64
10, 37440, Note_on_c, 8, 52, 60
10, 37520, Note_off_c, 8, 52, 64
10, 37680, Note_on_c, 8, 52, 60
10, 37760, Note_off_c, 8, 52, 64
10, 37920, Note_on_c, 8, 52, 60
10, 38000, Note_off_c, 8, 52, 64
10, 38160, Note_on_c, 8, 52, 60
10, 38240, Note_off_c, 8, 52, 64
10, 38400, Note_on_c, 8, 45, 60
10, 38800, Note_off_c, 8, 45, 64
10, 41520, Note_on_c, 8, 57, 75
10, 41600, Note_off_c, 8, 57, 64
10, 41760, Note_on_c, 8, 45, 75
10, 41840, Note_off_c, 8, 45, 64
10, 42000, Note_on_c, 8, 47, 75
10, 42060, Note_off_c, 8, 47, 64
10, 42060, Note_on_c, 8, 49, 75
10, 42120, Note_off_c, 8, 49, 64
10, 42120, Note_on_c, 8, 47, 75
10, 42180, Note_off_c, 8, 47, 64
10, 42180, Note_on_c, 8, 49, 75
10, 42240, Note_off_c, 8, 49, 64
10, 42240, Note_on_c, 8, 49, 75
10, 42320, Note_off_c, 8, 49, 64
10, 42480, Note_on_c, 8, 49, 75
10, 42560, Note_off_c, 8, 49, 64
10, 42720, Note_on_c, 8, 49, 75
10, 42800, Note_off_c, 8, 49, 64
10, 42960, Note_on_c, 8, 49, 75
10, 43040, Note_off_c, 8, 49, 64
10, 43200, Note_on_c, 8, 49, 75
10, 43280, Note_off_c, 8, 49, 64
10, 43440, Note_on_c, 8, 49, 75
10, 43520, Note_off_c, 8, 49, 64
10, 43680, Note_on_c, 8, 49, 75
10, 43760, Note_off_c, 8, 49, 64
10, 43920, Note_on_c, 8, 49, 75
10, 44000, Note_off_c, 8, 49, 64
10, 44160, Note_on_c, 8, 50, 75
10, 44240, Note_off_c, 8, 50, 64
10, 44400, Note_on_c, 8, 50, 75
10, 44480, Note_off_c, 8, 50, 64
10, 44640, Note_on_c, 8, 50, 75
10, 44720, Note_off_c, 8, 50, 64
10, 44880, Note_on_c, 8, 50, 75
10, 44960, Note_off_c, 8, 50, 64
10, 45120, Note_on_c, 8, 50, 75
10, 45200, Note_off_c, 8, 50, 64
10, 45360, Note_on_c, 8, 50, 75
10, 45440, Note_off_c, 8, 50, 64
10, 45600, Note_on_c, 8, 50, 75
10, 45680, Note_off_c, 8, 50, 64
10, 45840, Note_on_c, 8, 50, 75
10, 45920, Note_off_c, 8, 50, 64
10, 46080, Note_on_c, 8, 52, 75
10, 46160, Note_off_c, 8, 52, 64
10, 46320, Note_on_c, 8, 52, 75
10, 46400, Note_off_c, 8, 52, 64
10, 46560, Note_on_c, 8, 52, 75
10, 46640, Note_off_c, 8, 52, 64
10, 46800, Note_on_c, 8, 52, 75
10, 46880, Note_off_c, 8, 52, 64
10, 47040, Note_on_c, 8, 52, 75
10, 47120, Note_off_c, 8, 52, 64
10, 47280, Note_on_c, 8, 52, 75
10, 47360, Note_off_c, 8, 52, 64
10, 47520, Note_on_c, 8, 52, 75
10, 47600, Note_off_c, 8, 52, 64
10, 47760, Note_on_c, 8, 52, 75
10, 47840, Note_off_c, 8, 52, 64
10, 48000, Note_on_c, 8, 50, 75
10, 48080, Note_off_c, 8, 50, 64
10, 48240, Note_on_c, 8, 50, 72
10, 48320, Note_off_c, 8, 50, 64
10, 48480, Note_on_c, 8, 50, 69
10, 48560, Note_off_c, 8, 50, 64
10, 48720, Note_on_c, 8, 50, 65
10, 48800, Note_off_c, 8, 50, 64
10, 48960, Note_on_c, 8, 50, 61
10, 49040, Note_off_c, 8, 50, 64
10, 49200, Note_on_c, 8, 50, 57
10, 49280, Note_off_c, 8, 50, 64
10, 49440, Note_on_c, 8, 50, 53
10, 49520, Note_off_c, 8, 50, 64
10, 49680, Note_on_c, 8, 50, 49
10, 49760, Note_off_c, 8, 50, 64
10, 49920, Note_on_c, 8, 49, 45
10, 50160, Note_off_c, 8, 49, 64
10, 50160, Note_on_c, 8, 49, 46
10, 50240, Note_off_c, 8, 49, 64
10, 50400, Note_on_c, 8, 49, 48
10, 50480, Note_off_c, 8, 49, 64
10, 50640, Note_on_c, 8, 49, 50
10, 50720, Note_off_c, 8, 49, 64
10, 50880, Note_on_c, 8, 49, 52
10, 51280, Note_off_c, 8, 49, 64
10, 51840, Note_on_c, 8, 50, 60
10, 52080, Note_off_c, 8, 50, 64
10, 52080, Note_on_c, 8, 50, 60
10, 52160, Note_off_c, 8, 50, 64
10, 52320, Note_on_c, 8, 50, 62
10, 52400, Note_off_c, 8, 50, 64
10, 52560, Note_on_c, 8, 50, 64
10, 52640, Note_off_c, 8, 50, 64
10, 52800, Note_on_c, 8, 50, 66
10, 53200, Note_off_c, 8, 50, 64
10, 53760, Note_on_c, 8, 52, 75
10, 54000, Note_off_c, 8, 52, 64
10, 54000, Note_on_c, 8, 52, 75
10, 54080, Note_off_c, 8, 52, 64
10, 54240, Note_on_c, 8, 52, 77
10, 54320, Note_off_c, 8, 52, 64
10, 54480, Note_on_c, 8, 52, 79
10, 54560, Note_off_c, 8, 52, 64
10, 54720, Note_on_c, 8, 52, 81
10, 55120, Note_off_c, 8, 52, 64
10, 55680, Note_on_c, 8, 54, 92
10, 56080, Note_off_c, 8, 54, 64
10, 58080, Note_on_c, 8, 52, 92
10, 58560, Note_off_c, 8, 52, 64
10, 58560, Note_on_c, 8, 50, 92
10, 59040, Note_off_c, 8, 50, 64
10, 59040, Note_on_c, 8, 49, 92
10, 59520, Note_off_c, 8, 49, 64
10, 59520, Note_on_c, 8, 50, 92
10, 59600, Note_off_c, 8, 50, 64
10, 59760, Note_on_c, 8, 50, 92
10, 59840, Note_off_c, 8, 50, 64
10, 60000, Note_on_c, 8, 50, 92
10, 60080, Note_off_c, 8, 50, 64
10, 60240, Note_on_c, 8, 50, 92
10, 60320, Note_off_c, 8, 50, 64
10, 60480, Note_on_c, 8, 50, 92
10, 60560, Note_off_c, 8, 50, 64
10, 60720, Note_on_c, 8, 50, 92
10, 60800, Note_off_c, 8, 50, 64
10, 60960, Note_on_c, 8, 50, 92
10, 61040, Note_off_c, 8, 50, 64
10, 61200, Note_on_c, 8, 50, 92
10, 61280, Note_off_c, 8, 50, 64
10, 61440, Note_on_c, 8, 52, 92
10, 61520, Note_off_c, 8, 52, 64
10, 61680, Note_on_c, 8, 52, 92
10, 61760, Note_off_c, 8, 52, 64
10, 61920, Note_on_c, 8, 52, 92
10, 62000, Note_off_c, 8, 52, 64
10, 62160, Note_on_c, 8, 52, 92
10, 62240, Note_off_c, 8, 52, 64
10, 62400, Note_on_c, 8, 52, 92
10, 62480, Note_off_c, 8, 52, 64
10, 62640, Note_on_c, 8, 52, 92
10, 62720, Note_off_c, 8, 52, 64
10, 62880, Note_on_c, 8, 52, 92
10, 62960, Note_off_c, 8, 52, 64
10, 63120, Note_on_c, 8, 52, 92
10, 63200, Note_off_c, 8, 52, 64
10, 63360, Note_on_c, 8, 45, 92
10, 63440, Note_off_c, 8, 45, 64
10, 63600, Note_on_c, 8, 45, 90
10, 63680, Note_off_c, 8, 45, 64
10, 63840, Note_on_c, 8, 45, 88
10, 63920, Note_off_c, 8, 45, 64
10, 64080, Note_on_c, 8, 45, 86
10, 64160, Note_off_c, 8, 45, 64
10, 64320, Note_on_c, 8, 45, 84
10, 64400, Note_off_c, 8, 45, 64
10, 64560, Note_on_c, 8, 45, 81
10, 64640, Note_off_c, 8, 45, 64
10, 64800, Note_on_c, 8, 45, 78
10, 64880, Note_off_c, 8, 45, 64
10, 65040, Note_on_c, 8, 45, 75
10, 65120, Note_off_c, 8, 45, 64
10, 65280, Note_on_c, 8, 45, 75
10, 65360, Note_off_c, 8, 45, 64
10, 65520, Note_on_c, 8, 45, 74
10, 65600, Note_off_c, 8, 45, 64
10, 65760, Note_on_c, 8, 45, 72
10, 65840, Note_off_c, 8, 45, 64
10, 66000, Note_on_c, 8, 45, 70
10, 66080, Note_off_c, 8, 45, 64
10, 66240, Note_on_c, 8, 45, 68
10, 66320, Note_off_c, 8, 45, 64
10, 66480, Note_on_c, 8, 45, 66
10, 66560, Note_off_c, 8, 45, 64
10, 66720, Note_on_c, 8, 45, 64
10, 66800, Note_off_c, 8, 45, 64
10, 66960, Note_on_c, 8, 45, 62
10, 67040, Note_off_c, 8, 45, 64
10, 67200, Note_on_c, 8, 45, 60
10, 67280, Note_off_c, 8, 45, 64
10, 67440, Note_on_c, 8, 45, 60
10, 67520, Note_off_c, 8, 45, 64
10, 67680, Note_on_c, 8, 45, 55
10, 67760, Note_off_c, 8, 45, 64
10, 67920, Note_on_c, 8, 45, 50
10, 68000, Note_off_c, 8, 45, 64
10, 68160, Note_on_c, 8, 45, 45
10, 68560, Note_off_c, 8, 45, 64
10, 69120, Note_on_c, 8, 50, 75
10, 69200, Note_off_c, 8, 50, 64
10, 69360, Note_on_c, 8, 50, 75
10, 69440, Note_off_c, 8, 50, 64
10, 69600, Note_on_c, 8, 50, 75
10, 69680, Note_off_c, 8, 50, 64
10, 69840, Note_on_c, 8, 50, 75
10, 69920, Note_off_c, 8, 50, 64
10, 70080, Note_on_c, 8, 50, 75
10, 70160, Note_off_c, 8, 50, 64
10, 70320, Note_on_c, 8, 50, 75
10, 70400, Note_off_c, 8, 50, 64
10, 70560, Note_on_c, 8, 50, 75
10, 70640, Note_off_c, 8, 50, 64
10, 70800, Note_on_c, 8, 50, 75
10, 70880, Note_off_c, 8, 50, 64
10, 71040, Note_on_c, 8, 50, 75
10, 71120, Note_off_c, 8, 50, 64
10, 71280, Note_on_c, 8, 50, 75
10, 71360, Note_off_c, 8, 50, 64
10, 71520, Note_on_c, 8, 50, 75
10, 71600, Note_off_c, 8, 50, 64
10, 71760, Note_on_c, 8, 50, 75
10, 71840, Note_off_c, 8, 50, 64
10, 72000, Note_on_c, 8, 50, 75
10, 72080, Note_off_c, 8, 50, 64
10, 72240, Note_on_c, 8, 50, 75
10, 72320, Note_off_c, 8, 50, 64
10, 72480, Note_on_c, 8, 50, 75
10, 72560, Note_off_c, 8, 50, 64
10, 72720, Note_on_c, 8, 50, 75
10, 72800, Note_off_c, 8, 50, 64
10, 72960, Note_on_c, 8, 50, 75
10, 73040, Note_off_c, 8, 50, 64
10, 73200, Note_on_c, 8, 50, 75
10, 73280, Note_off_c, 8, 50, 64
10, 73440, Note_on_c, 8, 50, 75
10, 73520, Note_off_c, 8, 50, 64
10, 73680, Note_on_c, 8, 50, 75
10, 73760, Note_off_c, 8, 50, 64
10, 73920, Note_on_c, 8, 50, 75
10, 74000, Note_off_c, 8, 50, 64
10, 74160, Note_on_c, 8, 50, 75
10, 74240, Note_off_c, 8, 50, 64
10, 74400, Note_on_c, 8, 50, 75
10, 74480, Note_off_c, 8, 50, 64
10, 74640, Note_on_c, 8, 50, 75
10, 74720, Note_off_c, 8, 50, 64
10, 74880, Note_on_c, 8, 50, 75
10, 74960, Note_off_c, 8, 50, 64
10, 75120, Note_on_c, 8, 50, 75
10, 75200, Note_off_c, 8, 50, 64
10, 75360, Note_on_c, 8, 50, 75
10, 75440, Note_off_c, 8, 50, 64
10, 75600, Note_on_c, 8, 50, 75
10, 75680, Note_off_c, 8, 50, 64
10, 75840, Note_on_c, 8, 50, 75
10, 75920, Note_off_c, 8, 50, 64
10, 76080, Note_on_c, 8, 50, 75
10, 76160, Note_off_c, 8, 50, 64
10, 76320, Note_on_c, 8, 50, 75
10, 76400, Note_off_c, 8, 50, 64
10, 76560, Note_on_c, 8, 50, 75
10, 76640, Note_off_c, 8, 50, 64
10, 76800, Note_on_c, 8, 45, 75
10, 76880, Note_off_c, 8, 45, 64
10, 77040, Note_on_c, 8, 45, 75
10, 77120, Note_off_c, 8, 45, 64
10, 77280, Note_on_c, 8, 45, 75
10, 77360, Note_off_c, 8, 45, 64
10, 77520, Note_on_c, 8, 45, 75
10, 77600, Note_off_c, 8, 45, 64
10, 77760, Note_on_c, 8, 45, 75
10, 77840, Note_off_c, 8, 45, 64
10, 78000, Note_on_c, 8, 45, 75
10, 78080, Note_off_c, 8, 45, 64
10, 78240, Note_on_c, 8, 45, 75
10, 78320, Note_off_c, 8, 45, 64
10, 78480, Note_on_c, 8, 45, 75
10, 78560, Note_off_c, 8, 45, 64
10, 78720, Note_on_c, 8, 50, 75
10, 78800, Note_off_c, 8, 50, 64
10, 78960, Note_on_c, 8, 50, 75
10, 79040, Note_off_c, 8, 50, 64
10, 79200, Note_on_c, 8, 50, 75
10, 79280, Note_off_c, 8, 50, 64
10, 79440, Note_on_c, 8, 50, 75
10, 79520, Note_off_c, 8, 50, 64
10, 79680, Note_on_c, 8, 50, 75
10, 79760, Note_off_c, 8, 50, 64
10, 79920, Note_on_c, 8, 50, 75
10, 80000, Note_off_c, 8, 50, 64
10, 80160, Note_on_c, 8, 52, 75
10, 80240, Note_off_c, 8, 52, 64
10, 80400, Note_on_c, 8, 52, 75
10, 80480, Note_off_c, 8, 52, 64
10, 80640, Note_on_c, 8, 54, 75
10, 80720, Note_off_c, 8, 54, 64
10, 80880, Note_on_c, 8, 54, 75
10, 80960, Note_off_c, 8, 54, 64
10, 81120, Note_on_c, 8, 54, 75
10, 81200, Note_off_c, 8, 54, 64
10, 81360, Note_on_c, 8, 54, 75
10, 81440, Note_off_c, 8, 54, 64
10, 81600, Note_on_c, 8, 54, 75
10, 81680, Note_off_c, 8, 54, 64
10, 81840, Note_on_c, 8, 54, 75
10, 81920, Note_off_c, 8, 54, 64
10, 82080, Note_on_c, 8, 54, 75
10, 82160, Note_off_c, 8, 54, 64
10, 82320, Note_on_c, 8, 54, 75
10, 82400, Note_off_c, 8, 54, 64
10, 82560, Note_on_c, 8, 55, 75
10, 82640, Note_off_c, 8, 55, 64
10, 82800, Note_on_c, 8, 55, 75
10, 82880, Note_off_c, 8, 55, 64
10, 83040, Note_on_c, 8, 55, 75
10, 83120, Note_off_c, 8, 55, 64
10, 83280, Note_on_c, 8, 55, 75
10, 83360, Note_off_c, 8, 55, 64
10, 83520, Note_on_c, 8, 55, 75
10, 83600, Note_off_c, 8, 55, 64
10, 83760, Note_on_c, 8, 55, 75
10, 83840, Note_off_c, 8, 55, 64
10, 84000, Note_on_c, 8, 55, 75
10, 84080, Note_off_c, 8, 55, 64
10, 84240, Note_on_c, 8, 55, 75
10, 84320, Note_off_c, 8, 55, 64
10, 84480, Note_on_c, 8, 57, 75
10, 84560, Note_off_c, 8, 57, 64
10, 84720, Note_on_c, 8, 57, 75
10, 84800, Note_off_c, 8, 57, 64
10, 84960, Note_on_c, 8, 57, 75
10, 85040, Note_off_c, 8, 57, 64
10, 85200, Note_on_c, 8, 57, 75
10, 85280, Note_off_c, 8, 57, 64
10, 85440, Note_on_c, 8, 57, 75
10, 85520, Note_off_c, 8, 57, 64
10, 85680, Note_on_c, 8, 57, 75
10, 85760, Note_off_c, 8, 57, 64
10, 85920, Note_on_c, 8, 57, 75
10, 86000, Note_off_c, 8, 57, 64
10, 86160, Note_on_c, 8, 57, 75
10, 86240, Note_off_c, 8, 57, 64
10, 86400, Note_on_c, 8, 45, 75
10, 86480, Note_off_c, 8, 45, 64
10, 86640, Note_on_c, 8, 45, 75
10, 86720, Note_off_c, 8, 45, 64
10, 86880, Note_on_c, 8, 45, 75
10, 86960, Note_off_c, 8, 45, 64
10, 87120, Note_on_c, 8, 45, 75
10, 87200, Note_off_c, 8, 45, 64
10, 87360, Note_on_c, 8, 45, 75
10, 87440, Note_off_c, 8, 45, 64
10, 87600, Note_on_c, 8, 45, 75
10, 87680, Note_off_c, 8, 45, 64
10, 87840, Note_on_c, 8, 45, 75
10, 87920, Note_off_c, 8, 45, 64
10, 88080, Note_on_c, 8, 45, 75
10, 88160, Note_off_c, 8, 45, 64
10, 88320, Note_on_c, 8, 50, 75
10, 88720, Note_off_c, 8, 50, 64
10, 89040, Note_on_c, 8, 45, 75
10, 89275, Note_off_c, 8, 45, 64
10, 89280, Note_on_c, 8, 50, 75
10, 89680, Note_off_c, 8, 50, 64
10, 90000, Note_on_c, 8, 57, 75
10, 90235, Note_off_c, 8, 57, 64
10, 90240, Note_on_c, 8, 50, 75
10, 90640, Note_off_c, 8, 50, 64
10, 90960, Note_on_c, 8, 45, 75
10, 91195, Note_off_c, 8, 45, 64
10, 91200, Note_on_c, 8, 50, 75
10, 91600, Note_off_c, 8, 50, 64
10, 91920, Note_on_c, 8, 57, 75
10, 92155, Note_off_c, 8, 57, 64
10, 92160, Note_on_c, 8, 50, 75
10, 92240, Note_off_c, 8, 50, 64
10, 92400, Note_on_c, 8, 50, 75
10, 92480, Note_off_c, 8, 50, 64
10, 92640, Note_on_c, 8, 50, 75
10, 92720, Note_off_c, 8, 50, 64
10, 92880, Note_on_c, 8, 50, 75
10, 92960, Note_off_c, 8, 50, 64
10, 93120, Note_on_c, 8, 50, 75
10, 93200, Note_off_c, 8, 50, 64
10, 93360, Note_on_c, 8, 50, 75
10, 93440, Note_off_c, 8, 50, 64
10, 93600, Note_on_c, 8, 50, 75
10, 93680, Note_off_c, 8, 50, 64
10, 93840, Note_on_c, 8, 50, 75
10, 93920, Note_off_c, 8, 50, 64
10, 94080, Note_on_c, 8, 50, 75
10, 94160, Note_off_c, 8, 50, 64
10, 94320, Note_on_c, 8, 50, 75
10, 94400, Note_off_c, 8, 50, 64
10, 94560, Note_on_c, 8, 50, 75
10, 94640, Note_off_c, 8, 50, 64
10, 94800, Note_on_c, 8, 50, 75
10, 94880, Note_off_c, 8, 50, 64
10, 95040, Note_on_c, 8, 50, 75
10, 95120, Note_off_c, 8, 50, 64
10, 95280, Note_on_c, 8, 50, 75
10, 95520, Note_off_c, 8, 50, 64
10, 95520, Note_on_c, 8, 50, 75
10, 95600, Note_off_c, 8, 50, 64
10, 95760, Note_on_c, 8, 50, 75
10, 95840, Note_off_c, 8, 50, 64
10, 96000, Note_on_c, 8, 52, 75
10, 96080, Note_off_c, 8, 52, 64
10, 96240, Note_on_c, 8, 52, 75
10, 96320, Note_off_c, 8, 52, 64
10, 96480, Note_on_c, 8, 52, 75
10, 96560, Note_off_c, 8, 52, 64
10, 96720, Note_on_c, 8, 52, 75
10, 96800, Note_off_c, 8, 52, 64
10, 96960, Note_on_c, 8, 52, 75
10, 97040, Note_off_c, 8, 52, 64
10, 97200, Note_on_c, 8, 52, 75
10, 97280, Note_off_c, 8, 52, 64
10, 97440, Note_on_c, 8, 52, 75
10, 97520, Note_off_c, 8, 52, 64
10, 97680, Note_on_c, 8, 52, 75
10, 97760, Note_off_c, 8, 52, 64
10, 97920, Note_on_c, 8, 52, 75
10, 98000, Note_off_c, 8, 52, 64
10, 98160, Note_on_c, 8, 52, 74
10, 98240, Note_off_c, 8, 52, 64
10, 98400, Note_on_c, 8, 52, 72
10, 98480, Note_off_c, 8, 52, 64
10, 98640, Note_on_c, 8, 52, 70
10, 98720, Note_off_c, 8, 52, 64
10, 98880, Note_on_c, 8, 52, 68
10, 98960, Note_off_c, 8, 52, 64
10, 99120, Note_on_c, 8, 52, 66
10, 99360, Note_off_c, 8, 52, 64
10, 99360, Note_on_c, 8, 52, 64
10, 99440, Note_off_c, 8, 52, 64
10, 99600, Note_on_c, 8, 56, 62
10, 99680, Note_off_c, 8, 56, 64
10, 99840, Note_on_c, 8, 57, 60
10, 99920, Note_off_c, 8, 57, 64
10, 100080, Note_on_c, 8, 57, 60
10, 100160, Note_off_c, 8, 57, 64
10, 100320, Note_on_c, 8, 57, 60
10, 100400, Note_off_c, 8, 57, 64
10, 100560, Note_on_c, 8, 57, 60
10, 100640, Note_off_c, 8, 57, 64
10, 100800, Note_on_c, 8, 61, 60
10, 100880, Note_off_c, 8, 61, 64
10, 101040, Note_on_c, 8, 61, 60
10, 101120, Note_off_c, 8, 61, 64
10, 101280, Note_on_c, 8, 61, 60
10, 101360, Note_off_c, 8, 61, 64
10, 101520, Note_on_c, 8, 61, 60
10, 101600, Note_off_c, 8, 61, 64
10, 101760, Note_on_c, 8, 59, 60
10, 101840, Note_off_c, 8, 59, 64
10, 102000, Note_on_c, 8, 59, 60
10, 102080, Note_off_c, 8, 59, 64
10, 102240, Note_on_c, 8, 59, 60
10, 102320, Note_off_c, 8, 59, 64
10, 102480, Note_on_c, 8, 59, 60
10, 102560, Note_off_c, 8, 59, 64
10, 102720, Note_on_c, 8, 56, 60
10, 102800, Note_off_c, 8, 56, 64
10, 102960, Note_on_c, 8, 56, 60
10, 103040, Note_off_c, 8, 56, 64
10, 103200, Note_on_c, 8, 56, 60
10, 103280, Note_off_c, 8, 56, 64
10, 103440, Note_on_c, 8, 56, 60
10, 103520, Note_off_c, 8, 56, 64
10, 103680, Note_on_c, 8, 57, 60
10, 103760, Note_off_c, 8, 57, 64
10, 103920, Note_on_c, 8, 57, 60
10, 104000, Note_off_c, 8, 57, 64
10, 104160, Note_on_c, 8, 57, 60
10, 104240, Note_off_c, 8, 57, 64
10, 104400, Note_on_c, 8, 57, 60
10, 104480, Note_off_c, 8, 57, 64
10, 104640, Note_on_c, 8, 61, 60
10, 104720, Note_off_c, 8, 61, 64
10, 104880, Note_on_c, 8, 61, 60
10, 104960, Note_off_c, 8, 61, 64
10, 105120, Note_on_c, 8, 61, 60
10, 105200, Note_off_c, 8, 61, 64
10, 105360, Note_on_c, 8, 61, 60
10, 105440, Note_off_c, 8, 61, 64
10, 105600, Note_on_c, 8, 59, 60
10, 105680, Note_off_c, 8, 59, 64
10, 105840, Note_on_c, 8, 59, 60
10, 105920, Note_off_c, 8, 59, 64
10, 106080, Note_on_c, 8, 59, 60
10, 106160, Note_off_c, 8, 59, 64
10, 106320, Note_on_c, 8, 59, 60
10, 106400, Note_off_c, 8, 59, 64
10, 106560, Note_on_c, 8, 52, 60
10, 106640, Note_off_c, 8, 52, 64
10, 106800, Note_on_c, 8, 52, 60
10, 106880, Note_off_c, 8, 52, 64
10, 107040, Note_on_c, 8, 52, 60
10, 107120, Note_off_c, 8, 52, 64
10, 107280, Note_on_c, 8, 52, 60
10, 107360, Note_off_c, 8, 52, 64
10, 107520, Note_on_c, 8, 45, 60
10, 107920, Note_off_c, 8, 45, 64
10, 110640, Note_on_c, 8, 57, 75
10, 110720, Note_off_c, 8, 57, 64
10, 110880, Note_on_c, 8, 45, 75
10, 110960, Note_off_c, 8, 45, 64
10, 111120, Note_on_c, 8, 47, 75
10, 111180, Note_off_c, 8, 47, 64
10, 111180, Note_on_c, 8, 49, 75
10, 111240, Note_off_c, 8, 49, 64
10, 111240, Note_on_c, 8, 47, 75
10, 111300, Note_off_c, 8, 47, 64
10, 111300, Note_on_c, 8, 49, 75
10, 111360, Note_off_c, 8, 49, 64
10, 111360, Note_on_c, 8, 49, 75
10, 111440, Note_off_c, 8, 49, 64
10, 111600, Note_on_c, 8, 49, 75
10, 111680, Note_off_c, 8, 49, 64
10, 111840, Note_on_c, 8, 49, 75
10, 111920, Note_off_c, 8, 49, 64
10, 112080, Note_on_c, 8, 49, 75
10, 112160, Note_off_c, 8, 49, 64
10, 112320, Note_on_c, 8, 49, 75
10, 112400, Note_off_c, 8, 49, 64
10, 112560, Note_on_c, 8, 49, 75
10, 112640, Note_off_c, 8, 49, 64
10, 112800, Note_on_c, 8, 49, 75
10, 112880, Note_off_c, 8, 49, 64
10, 113040, Note_on_c, 8, 49, 75
10, 113120, Note_off_c, 8, 49, 64
10, 113280, Note_on_c, 8, 50, 75
10, 113360, Note_off_c, 8, 50, 64
10, 113520, Note_on_c, 8, 50, 75
10, 113600, Note_off_c, 8, 50, 64
10, 113760, Note_on_c, 8, 50, 75
10, 113840, Note_off_c, 8, 50, 64
10, 114000, Note_on_c, 8, 50, 75
10, 114080, Note_off_c, 8, 50, 64
10, 114240, Note_on_c, 8, 50, 75
10, 114320, Note_off_c, 8, 50, 64
10, 114480, Note_on_c, 8, 50, 75
10, 114560, Note_off_c, 8, 50, 64
10, 114720, Note_on_c, 8, 50, 75
10, 114800, Note_off_c, 8, 50, 64
10, 114960, Note_on_c, 8, 50, 75
10, 115040, Note_off_c, 8, 50, 64
10, 115200, Note_on_c, 8, 52, 75
10, 115280, Note_off_c, 8, 52, 64
10, 115440, Note_on_c, 8, 52, 75
10, 115520, Note_off_c, 8, 52, 64
10, 115680, Note_on_c, 8, 52, 75
10, 115760, Note_off_c, 8, 52, 64
10, 115920, Note_on_c, 8, 52, 75
10, 116000, Note_off_c, 8, 52, 64
10, 116160, Note_on_c, 8, 52, 75
10, 116240, Note_off_c, 8, 52, 64
10, 116400, Note_on_c, 8, 52, 75
10, 116480, Note_off_c, 8, 52, 64
10, 116640, Note_on_c, 8, 52, 75
10, 116720, Note_off_c, 8, 52, 64
10, 116880, Note_on_c, 8, 52, 75
10, 116960, Note_off_c, 8, 52, 64
10, 117120, Note_on_c, 8, 50, 75
10, 117200, Note_off_c, 8, 50, 64
10, 117360, Note_on_c, 8, 50, 72
10, 117440, Note_off_c, 8, 50, 64
10, 117600, Note_on_c, 8, 50, 69
10, 117680, Note_off_c, 8, 50, 64
10, 117840, Note_on_c, 8, 50, 65
10, 117920, Note_off_c, 8, 50, 64
10, 118080, Note_on_c, 8, 50, 61
10, 118160, Note_off_c, 8, 50, 64
10, 118320, Note_on_c, 8, 50, 57
10, 118400, Note_off_c, 8, 50, 64
10, 118560, Note_on_c, 8, 50, 53
10, 118640, Note_off_c, 8, 50, 64
10, 118800, Note_on_c, 8, 50, 49
10, 118880, Note_off_c, 8, 50, 64
10, 119040, Note_on_c, 8, 49, 45
10, 119280, Note_off_c, 8, 49, 64
10, 119280, Note_on_c, 8, 49, 46
10, 119360, Note_off_c, 8, 49, 64
10, 119520, Note_on_c, 8, 49, 48
10, 119600, Note_off_c, 8, 49, 64
10, 119760, Note_on_c, 8, 49, 50
10, 119840, Note_off_c, 8, 49, 64
10, 120000, Note_on_c, 8, 49, 52
10, 120400, Note_off_c, 8, 49, 64
10, 120960, Note_on_c, 8, 50, 60
10, 121200, Note_off_c, 8, 50, 64
10, 121200, Note_on_c, 8, 50, 60
10, 121280, Note_off_c, 8, 50, 64
10, 121440, Note_on_c, 8, 50, 62
10, 121520, Note_off_c, 8, 50, 64
10, 121680, Note_on_c, 8, 50, 64
10, 121760, Note_off_c, 8, 50, 64
10, 121920, Note_on_c, 8, 50, 66
10, 122320, Note_off_c, 8, 50, 64
10, 122880, Note_on_c, 8, 52, 75
10, 123120, Note_off_c, 8, 52, 64
10, 123120, Note_on_c, 8, 52, 75
10, 123200, Note_off_c, 8, 52, 64
10, 123360, Note_on_c, 8, 52, 77
10, 123440, Note_off_c, 8, 52, 64
10, 123600, Note_on_c, 8, 52, 79
10, 123680, Note_off_c, 8, 52, 64
10, 123840, Note_on_c, 8, 52, 81
10, 124240, Note_off_c, 8, 52, 64
10, 124800, Note_on_c, 8, 54, 92
10, 125200, Note_off_c, 8, 54, 64
10, 127200, Note_on_c, 8, 52, 92
10, 127680, Note_off_c, 8, 52, 64
10, 127680, Note_on_c, 8, 50, 92
10, 128160, Note_off_c, 8, 50, 64
10, 128160, Note_on_c, 8, 49, 92
10, 128640, Note_off_c, 8, 49, 64
10, 128640, Note_on_c, 8, 50, 92
10, 128720, Note_off_c, 8, 50, 64
10, 128880, Note_on_c, 8, 50, 92
10, 128960, Note_off_c, 8, 50, 64
10, 129120, Note_on_c, 8, 50, 92
10, 129200, Note_off_c, 8, 50, 64
10, 129360, Note_on_c, 8, 50, 92
10, 129440, Note_off_c, 8, 50, 64
10, 129600, Note_on_c, 8, 50, 92
10, 129680, Note_off_c, 8, 50, 64
10, 129840, Note_on_c, 8, 50, 92
10, 129920, Note_off_c, 8, 50, 64
10, 130080, Note_on_c, 8, 50, 92
10, 130160, Note_off_c, 8, 50, 64
10, 130320, Note_on_c, 8, 50, 92
10, 130400, Note_off_c, 8, 50, 64
10, 130560, Note_on_c, 8, 52, 92
10, 130640, Note_off_c, 8, 52, 64
10, 130800, Note_on_c, 8, 52, 92
10, 130880, Note_off_c, 8, 52, 64
10, 131040, Note_on_c, 8, 52, 92
10, 131120, Note_off_c, 8, 52, 64
10, 131280, Note_on_c, 8, 52, 92
10, 131360, Note_off_c, 8, 52, 64
10, 131520, Note_on_c, 8, 52, 92
10, 131600, Note_off_c, 8, 52, 64
10, 131760, Note_on_c, 8, 52, 92
10, 131840, Note_off_c, 8, 52, 64
10, 132000, Note_on_c, 8, 52, 92
10, 132080, Note_off_c, 8, 52, 64
10, 132240, Note_on_c, 8, 52, 92
10, 132320, Note_off_c, 8, 52, 64
10, 132480, Note_on_c, 8, 45, 92
10, 132560, Note_off_c, 8, 45, 64
10, 132720, Note_on_c, 8, 45, 90
10, 132800, Note_off_c, 8, 45, 64
10, 132960, Note_on_c, 8, 45, 88
10, 133040, Note_off_c, 8, 45, 64
10, 133200, Note_on_c, 8, 45, 86
10, 133280, Note_off_c, 8, 45, 64
10, 133440, Note_on_c, 8, 45, 84
10, 133520, Note_off_c, 8, 45, 64
10, 133680, Note_on_c, 8, 45, 81
10, 133760, Note_off_c, 8, 45, 64
10, 133920, Note_on_c, 8, 45, 78
10, 134000, Note_off_c, 8, 45, 64
10, 134160, Note_on_c, 8, 45, 75
10, 134240, Note_off_c, 8, 45, 64
10, 134400, Note_on_c, 8, 45, 75
10, 134480, Note_off_c, 8, 45, 64
10, 134640, Note_on_c, 8, 45, 74
10, 134720, Note_off_c, 8, 45, 64
10, 134880, Note_on_c, 8, 45, 72
10, 134960, Note_off_c, 8, 45, 64
10, 135120, Note_on_c, 8, 45, 70
10, 135200, Note_off_c, 8, 45, 64
10, 135360, Note_on_c, 8, 45, 68
10, 135440, Note_off_c, 8, 45, 64
10, 135600, Note_on_c, 8, 45, 66
10, 135680, Note_off_c, 8, 45, 64
10, 135840, Note_on_c, 8, 45, 64
10, 135920, Note_off_c, 8, 45, 64
10, 136080, Note_on_c, 8, 45, 62
10, 136160, Note_off_c, 8, 45, 64
10, 136320, Note_on_c, 8, 45, 60
10, 136400, Note_off_c, 8, 45, 64
10, 136560, Note_on_c, 8, 45, 60
10, 136640, Note_off_c, 8, 45, 64
10, 136800, Note_on_c, 8, 45, 55
10, 136880, Note_off_c, 8, 45, 64
10, 137040, Note_on_c, 8, 45, 50
10, 137120, Note_off_c, 8, 45, 64
10, 137280, Note_on_c, 8, 45, 45
10, 137680, Note_off_c, 8, 45, 64
10, 138240, Note_on_c, 8, 48, 75
10, 138320, Note_off_c, 8, 48, 64
10, 138480, Note_on_c, 8, 48, 75
10, 138560, Note_off_c, 8, 48, 64
10, 138720, Note_on_c, 8, 48, 75
10, 138800, Note_off_c, 8, 48, 64
10, 138960, Note_on_c, 8, 48, 75
10, 139040, Note_off_c, 8, 48, 64
10, 139200, Note_on_c, 8, 48, 75
10, 139280, Note_off_c, 8, 48, 64
10, 139440, Note_on_c, 8, 48, 75
10, 139520, Note_off_c, 8, 48, 64
10, 139680, Note_on_c, 8, 48, 75
10, 139760, Note_off_c, 8, 48, 64
10, 139920, Note_on_c, 8, 48, 75
10, 140000, Note_off_c, 8, 48, 64
10, 140160, Note_on_c, 8, 47, 75
10, 140240, Note_off_c, 8, 47, 64
10, 140400, Note_on_c, 8, 47, 75
10, 140480, Note_off_c, 8, 47, 64
10, 140640, Note_on_c, 8, 47, 75
10, 140720, Note_off_c, 8, 47, 64
10, 140880, Note_on_c, 8, 47, 75
10, 140960, Note_off_c, 8, 47, 64
10, 141120, Note_on_c, 8, 47, 75
10, 141200, Note_off_c, 8, 47, 64
10, 141360, Note_on_c, 8, 47, 75
10, 141440, Note_off_c, 8, 47, 64
10, 141600, Note_on_c, 8, 47, 75
10, 141680, Note_off_c, 8, 47, 64
10, 141840, Note_on_c, 8, 47, 75
10, 141920, Note_off_c, 8, 47, 64
10, 142080, Note_on_c, 8, 47, 75
10, 142160, Note_off_c, 8, 47, 64
10, 142320, Note_on_c, 8, 47, 75
10, 142400, Note_off_c, 8, 47, 64
10, 142560, Note_on_c, 8, 47, 75
10, 142640, Note_off_c, 8, 47, 64
10, 142800, Note_on_c, 8, 47, 75
10, 142880, Note_off_c, 8, 47, 64
10, 143040, Note_on_c, 8, 47, 75
10, 143120, Note_off_c, 8, 47, 64
10, 143280, Note_on_c, 8, 47, 75
10, 143360, Note_off_c, 8, 47, 64
10, 143520, Note_on_c, 8, 47, 75
10, 143600, Note_off_c, 8, 47, 64
10, 143760, Note_on_c, 8, 47, 75
10, 143840, Note_off_c, 8, 47, 64
10, 144000, Note_on_c, 8, 47, 75
10, 144080, Note_off_c, 8, 47, 64
10, 144240, Note_on_c, 8, 47, 75
10, 144320, Note_off_c, 8, 47, 64
10, 144480, Note_on_c, 8, 47, 75
10, 144560, Note_off_c, 8, 47, 64
10, 144720, Note_on_c, 8, 47, 75
10, 144800, Note_off_c, 8, 47, 64
10, 144960, Note_on_c, 8, 47, 75
10, 145040, Note_off_c, 8, 47, 64
10, 145200, Note_on_c, 8, 47, 75
10, 145280, Note_off_c, 8, 47, 64
10, 145440, Note_on_c, 8, 47, 75
10, 145520, Note_off_c, 8, 47, 64
10, 145680, Note_on_c, 8, 47, 75
10, 145760, Note_off_c, 8, 47, 64
10, 145920, Note_on_c, 8, 47, 75
10, 146000, Note_off_c, 8, 47, 64
10, 146160, Note_on_c, 8, 47, 75
10, 146240, Note_off_c, 8, 47, 64
10, 146400, Note_on_c, 8, 47, 75
10, 146480, Note_off_c, 8, 47, 64
10, 146640, Note_on_c, 8, 47, 75
10, 146720, Note_off_c, 8, 47, 64
10, 146880, Note_on_c, 8, 47, 75
10, 146960, Note_off_c, 8, 47, 64
10, 147120, Note_on_c, 8, 47, 75
10, 147200, Note_off_c, 8, 47, 64
10, 147360, Note_on_c, 8, 47, 75
10, 147440, Note_off_c, 8, 47, 64
10, 147600, Note_on_c, 8, 47, 75
10, 147680, Note_off_c, 8, 47, 64
10, 147840, Note_on_c, 8, 52, 75
10, 147920, Note_off_c, 8, 52, 64
10, 148080, Note_on_c, 8, 52, 75
10, 148160, Note_off_c, 8, 52, 64
10, 148320, Note_on_c, 8, 54, 75
10, 148400, Note_off_c, 8, 54, 64
10, 148560, Note_on_c, 8, 54, 75
10, 148640, Note_off_c, 8, 54, 64
10, 148800, Note_on_c, 8, 55, 75
10, 148880, Note_off_c, 8, 55, 64
10, 149040, Note_on_c, 8, 43, 75
10, 149120, Note_off_c, 8, 43, 64
10, 149280, Note_on_c, 8, 43, 75
10, 149360, Note_off_c, 8, 43, 64
10, 149520, Note_on_c, 8, 44, 75
10, 149600, Note_off_c, 8, 44, 64
10, 149760, Note_on_c, 8, 45, 75
10, 149840, Note_off_c, 8, 45, 64
10, 150000, Note_on_c, 8, 45, 75
10, 150080, Note_off_c, 8, 45, 64
10, 150240, Note_on_c, 8, 45, 75
10, 150320, Note_off_c, 8, 45, 64
10, 150480, Note_on_c, 8, 45, 75
10, 150560, Note_off_c, 8, 45, 64
10, 150720, Note_on_c, 8, 45, 75
10, 150800, Note_off_c, 8, 45, 64
10, 150960, Note_on_c, 8, 45, 75
10, 151040, Note_off_c, 8, 45, 64
10, 151200, Note_on_c, 8, 45, 75
10, 151280, Note_off_c, 8, 45, 64
10, 151440, Note_on_c, 8, 45, 75
10, 151520, Note_off_c, 8, 45, 64
10, 151680, Note_on_c, 8, 45, 75
10, 151760, Note_off_c, 8, 45, 64
10, 151920, Note_on_c, 8, 45, 75
10, 152000, Note_off_c, 8, 45, 64
10, 152160, Note_on_c, 8, 45, 75
10, 152240, Note_off_c, 8, 45, 64
10, 152400, Note_on_c, 8, 45, 75
10, 152480, Note_off_c, 8, 45, 64
10, 152640, Note_on_c, 8, 55, 75
10, 152720, Note_off_c, 8, 55, 64
10, 152880, Note_on_c, 8, 55, 75
10, 152960, Note_off_c, 8, 55, 64
10, 153120, Note_on_c, 8, 55, 75
10, 153200, Note_off_c, 8, 55, 64
10, 153360, Note_on_c, 8, 55, 75
10, 153440, Note_off_c, 8, 55, 64
10, 153600, Note_on_c, 8, 54, 75
10, 153680, Note_off_c, 8, 54, 64
10, 153840, Note_on_c, 8, 54, 75
10, 153920, Note_off_c, 8, 54, 64
10, 154080, Note_on_c, 8, 54, 75
10, 154160, Note_off_c, 8, 54, 64
10, 154320, Note_on_c, 8, 54, 75
10, 154400, Note_off_c, 8, 54, 64
10, 154560, Note_on_c, 8, 54, 75
10, 154640, Note_off_c, 8, 54, 64
10, 154800, Note_on_c, 8, 54, 75
10, 154880, Note_off_c, 8, 54, 64
10, 155040, Note_on_c, 8, 54, 75
10, 155120, Note_off_c, 8, 54, 64
10, 155280, Note_on_c, 8, 54, 75
10, 155360, Note_off_c, 8, 54, 64
10, 155520, Note_on_c, 8, 47, 75
10, 155600, Note_off_c, 8, 47, 64
10, 155760, Note_on_c, 8, 47, 75
10, 155840, Note_off_c, 8, 47, 64
10, 156000, Note_on_c, 8, 47, 75
10, 156080, Note_off_c, 8, 47, 64
10, 156240, Note_on_c, 8, 47, 75
10, 156320, Note_off_c, 8, 47, 64
10, 156480, Note_on_c, 8, 47, 75
10, 156560, Note_off_c, 8, 47, 64
10, 156720, Note_on_c, 8, 47, 75
10, 156800, Note_off_c, 8, 47, 64
10, 156960, Note_on_c, 8, 47, 75
10, 157040, Note_off_c, 8, 47, 64
10, 157200, Note_on_c, 8, 47, 75
10, 157280, Note_off_c, 8, 47, 64
10, 157440, Note_on_c, 8, 54, 75
10, 157520, Note_off_c, 8, 54, 64
10, 157680, Note_on_c, 8, 54, 75
10, 157760, Note_off_c, 8, 54, 64
10, 157920, Note_on_c, 8, 54, 75
10, 158000, Note_off_c, 8, 54, 64
10, 158160, Note_on_c, 8, 54, 75
10, 158240, Note_off_c, 8, 54, 64
10, 158400, Note_on_c, 8, 54, 75
10, 158480, Note_off_c, 8, 54, 64
10, 158640, Note_on_c, 8, 54, 75
10, 158720, Note_off_c, 8, 54, 64
10, 158880, Note_on_c, 8, 54, 75
10, 158960, Note_off_c, 8, 54, 64
10, 159120, Note_on_c, 8, 54, 75
10, 159200, Note_off_c, 8, 54, 64
10, 159360, Note_on_c, 8, 59, 75
10, 159440, Note_off_c, 8, 59, 64
10, 159600, Note_on_c, 8, 59, 75
10, 159680, Note_off_c, 8, 59, 64
10, 159840, Note_on_c, 8, 59, 75
10, 159920, Note_off_c, 8, 59, 64
10, 160080, Note_on_c, 8, 59, 75
10, 160160, Note_off_c, 8, 59, 64
10, 160320, Note_on_c, 8, 56, 75
10, 160400, Note_off_c, 8, 56, 64
10, 160560, Note_on_c, 8, 56, 75
10, 160640, Note_off_c, 8, 56, 64
10, 160800, Note_on_c, 8, 56, 75
10, 160880, Note_off_c, 8, 56, 64
10, 161040, Note_on_c, 8, 56, 75
10, 161120, Note_off_c, 8, 56, 64
10, 161280, Note_on_c, 8, 57, 75
10, 161360, Note_off_c, 8, 57, 64
10, 161520, Note_on_c, 8, 57, 75
10, 161600, Note_off_c, 8, 57, 64
10, 161760, Note_on_c, 8, 57, 75
10, 161840, Note_off_c, 8, 57, 64
10, 162000, Note_on_c, 8, 57, 75
10, 162080, Note_off_c, 8, 57, 64
10, 162240, Note_on_c, 8, 54, 75
10, 162320, Note_off_c, 8, 54, 64
10, 162480, Note_on_c, 8, 54, 75
10, 162560, Note_off_c, 8, 54, 64
10, 162720, Note_on_c, 8, 54, 75
10, 162800, Note_off_c, 8, 54, 64
10, 162960, Note_on_c, 8, 54, 75
10, 163040, Note_off_c, 8, 54, 64
10, 163200, Note_on_c, 8, 55, 75
10, 163280, Note_off_c, 8, 55, 64
10, 163440, Note_on_c, 8, 55, 77
10, 163520, Note_off_c, 8, 55, 64
10, 163680, Note_on_c, 8, 55, 79
10, 163760, Note_off_c, 8, 55, 64
10, 163920, Note_on_c, 8, 55, 81
10, 164000, Note_off_c, 8, 55, 64
10, 164160, Note_on_c, 8, 55, 83
10, 164240, Note_off_c, 8, 55, 64
10, 164400, Note_on_c, 8, 55, 85
10, 164480, Note_off_c, 8, 55, 64
10, 164640, Note_on_c, 8, 56, 87
10, 164720, Note_off_c, 8, 56, 64
10, 164880, Note_on_c, 8, 56, 89
10, 164960, Note_off_c, 8, 56, 64
10, 165120, Note_on_c, 8, 57, 92
10, 165520, Note_off_c, 8, 57, 64
10, 165660, Note_on_c, 8, 45, 92
10, 165895, Note_off_c, 8, 45, 64
10, 166020, Note_on_c, 8, 45, 92
10, 166135, Note_off_c, 8, 45, 64
10, 166140, Note_on_c, 8, 45, 92
10, 166540, Note_off_c, 8, 45, 64
10, 167340, Program_c, 8, 45
10, 167340, Note_on_c, 8, 50, 45
10, 167740, Note_off_c, 8, 50, 64
10, 168300, Note_on_c, 8, 50, 45
10, 168700, Note_off_c, 8, 50, 64
10, 169260, Note_on_c, 8, 55, 45
10, 169660, Note_off_c, 8, 55, 64
10, 170220, Note_on_c, 8, 55, 45
10, 170620, Note_off_c, 8, 55, 64
10, 171180, Note_on_c, 8, 57, 45
10, 171580, Note_off_c, 8, 57, 64
10, 172140, Note_on_c, 8, 57, 45
10, 172540, Note_off_c, 8, 57, 64
10, 173100, Note_on_c, 8, 58, 45
10, 173500, Note_off_c, 8, 58, 64
10, 174060, Note_on_c, 8, 58, 45
10, 174460, Note_off_c, 8, 58, 64
10, 175020, Note_on_c, 8, 53, 45
10, 175420, Note_off_c, 8, 53, 64
10, 175980, Note_on_c, 8, 53, 45
10, 176380, Note_off_c, 8, 53, 64
10, 176940, Note_on_c, 8, 55, 45
10, 177340, Note_off_c, 8, 55, 64
10, 177900, Note_on_c, 8, 55, 45
10, 178300, Note_off_c, 8, 55, 64
10, 178860, Note_on_c, 8, 55, 45
10, 179260, Note_off_c, 8, 55, 64
10, 179820, Note_on_c, 8, 55, 45
10, 180220, Note_off_c, 8, 55, 64
10, 180300, Note_on_c, 8, 56, 45
10, 180700, Note_off_c, 8, 56, 64
10, 180780, Note_on_c, 8, 57, 45
10, 181180, Note_off_c, 8, 57, 64
10, 181740, Note_on_c, 8, 57, 45
10, 182140, Note_off_c, 8, 57, 64
10, 182700, Note_on_c, 8, 45, 45
10, 183100, Note_off_c, 8, 45, 64
10, 183660, Note_on_c, 8, 45, 45
10, 184060, Note_off_c, 8, 45, 64
10, 184620, Note_on_c, 8, 57, 45
10, 185020, Note_off_c, 8, 57, 64
10, 185580, Note_on_c, 8, 57, 45
10, 185980, Note_off_c, 8, 57, 64
10, 186540, Note_on_c, 8, 58, 45
10, 186940, Note_off_c, 8, 58, 64
10, 187500, Note_on_c, 8, 46, 45
10, 187900, Note_off_c, 8, 46, 64
10, 188460, Note_on_c, 8, 45, 45
10, 188860, Note_off_c, 8, 45, 64
10, 190380, Program_c, 8, 48
10, 190620, Note_on_c, 8, 57, 48
10, 190860, Note_off_c, 8, 57, 64
10, 190860, Note_on_c, 8, 59, 51
10, 191100, Note_off_c, 8, 59, 64
10, 191100, Note_on_c, 8, 57, 55
10, 191340, Note_off_c, 8, 57, 64
10, 191340, Note_on_c, 8, 55, 59
10, 191580, Note_off_c, 8, 55, 64
10, 191580, Note_on_c, 8, 54, 63
10, 191820, Note_off_c, 8, 54, 64
10, 191820, Note_on_c, 8, 55, 67
10, 192060, Note_off_c, 8, 55, 64
10, 192060, Note_on_c, 8, 52, 71
10, 192295, Note_off_c, 8, 52, 64
10, 192300, Note_on_c, 8, 50, 75
10, 192380, Note_off_c, 8, 50, 64
10, 192540, Note_on_c, 8, 50, 75
10, 192620, Note_off_c, 8, 50, 64
10, 192780, Note_on_c, 8, 50, 75
10, 192860, Note_off_c, 8, 50, 64
10, 193020, Note_on_c, 8, 50, 75
10, 193100, Note_off_c, 8, 50, 64
10, 193260, Note_on_c, 8, 50, 75
10, 193340, Note_off_c, 8, 50, 64
10, 193500, Note_on_c, 8, 50, 75
10, 193580, Note_off_c, 8, 50, 64
10, 193740, Note_on_c, 8, 50, 75
10, 193820, Note_off_c, 8, 50, 64
10, 193980, Note_on_c, 8, 50, 75
10, 194060, Note_off_c, 8, 50, 64
10, 194220, Note_on_c, 8, 50, 75
10, 194300, Note_off_c, 8, 50, 64
10, 194460, Note_on_c, 8, 50, 75
10, 194540, Note_off_c, 8, 50, 64
10, 194700, Note_on_c, 8, 50, 75
10, 194780, Note_off_c, 8, 50, 64
10, 194940, Note_on_c, 8, 50, 75
10, 195020, Note_off_c, 8, 50, 64
10, 195180, Note_on_c, 8, 50, 75
10, 195260, Note_off_c, 8, 50, 64
10, 195420, Note_on_c, 8, 50, 75
10, 195500, Note_off_c, 8, 50, 64
10, 195660, Note_on_c, 8, 50, 75
10, 195740, Note_off_c, 8, 50, 64
10, 195900, Note_on_c, 8, 50, 75
10, 195980, Note_off_c, 8, 50, 64
10, 196140, Note_on_c, 8, 50, 75
10, 196220, Note_off_c, 8, 50, 64
10, 196380, Note_on_c, 8, 50, 75
10, 196460, Note_off_c, 8, 50, 64
10, 196620, Note_on_c, 8, 50, 75
10, 196700, Note_off_c, 8, 50, 64
10, 196860, Note_on_c, 8, 50, 75
10, 196940, Note_off_c, 8, 50, 64
10, 197100, Note_on_c, 8, 50, 75
10, 197180, Note_off_c, 8, 50, 64
10, 197340, Note_on_c, 8, 50, 75
10, 197420, Note_off_c, 8, 50, 64
10, 197580, Note_on_c, 8, 50, 75
10, 197660, Note_off_c, 8, 50, 64
10, 197820, Note_on_c, 8, 50, 75
10, 197900, Note_off_c, 8, 50, 64
10, 198060, Note_on_c, 8, 50, 75
10, 198140, Note_off_c, 8, 50, 64
10, 198300, Note_on_c, 8, 50, 75
10, 198380, Note_off_c, 8, 50, 64
10, 198540, Note_on_c, 8, 50, 75
10, 198620, Note_off_c, 8, 50, 64
10, 198780, Note_on_c, 8, 50, 75
10, 198860, Note_off_c, 8, 50, 64
10, 199020, Note_on_c, 8, 50, 75
10, 199100, Note_off_c, 8, 50, 64
10, 199260, Note_on_c, 8, 50, 75
10, 199340, Note_off_c, 8, 50, 64
10, 199500, Note_on_c, 8, 50, 75
10, 199580, Note_off_c, 8, 50, 64
10, 199740, Note_on_c, 8, 50, 75
10, 199820, Note_off_c, 8, 50, 64
10, 199980, Note_on_c, 8, 45, 75
10, 200060, Note_off_c, 8, 45, 64
10, 200220, Note_on_c, 8, 45, 75
10, 200300, Note_off_c, 8, 45, 64
10, 200460, Note_on_c, 8, 45, 75
10, 200540, Note_off_c, 8, 45, 64
10, 200700, Note_on_c, 8, 45, 75
10, 200780, Note_off_c, 8, 45, 64
10, 200940, Note_on_c, 8, 45, 75
10, 201020, Note_off_c, 8, 45, 64
10, 201180, Note_on_c, 8, 45, 75
10, 201260, Note_off_c, 8, 45, 64
10, 201420, Note_on_c, 8, 45, 75
10, 201500, Note_off_c, 8, 45, 64
10, 201660, Note_on_c, 8, 45, 75
10, 201740, Note_off_c, 8, 45, 64
10, 201900, Note_on_c, 8, 50, 75
10, 201980, Note_off_c, 8, 50, 64
10, 202140, Note_on_c, 8, 50, 75
10, 202220, Note_off_c, 8, 50, 64
10, 202380, Note_on_c, 8, 50, 75
10, 202460, Note_off_c, 8, 50, 64
10, 202620, Note_on_c, 8, 50, 75
10, 202700, Note_off_c, 8, 50, 64
10, 202860, Note_on_c, 8, 50, 75
10, 202940, Note_off_c, 8, 50, 64
10, 203100, Note_on_c, 8, 50, 75
10, 203180, Note_off_c, 8, 50, 64
10, 203340, Note_on_c, 8, 52, 75
10, 203420, Note_off_c, 8, 52, 64
10, 203580, Note_on_c, 8, 52, 75
10, 203660, Note_off_c, 8, 52, 64
10, 203820, Note_on_c, 8, 54, 75
10, 203900, Note_off_c, 8, 54, 64
10, 204060, Note_on_c, 8, 54, 75
10, 204140, Note_off_c, 8, 54, 64
10, 204300, Note_on_c, 8, 54, 75
10, 204380, Note_off_c, 8, 54, 64
10, 204540, Note_on_c, 8, 54, 75
10, 204620, Note_off_c, 8, 54, 64
10, 204780, Note_on_c, 8, 54, 75
10, 204860, Note_off_c, 8, 54, 64
10, 205020, Note_on_c, 8, 54, 75
10, 205100, Note_off_c, 8, 54, 64
10, 205260, Note_on_c, 8, 54, 75
10, 205340, Note_off_c, 8, 54, 64
10, 205500, Note_on_c, 8, 54, 75
10, 205580, Note_off_c, 8, 54, 64
10, 205740, Note_on_c, 8, 55, 75
10, 205820, Note_off_c, 8, 55, 64
10, 205980, Note_on_c, 8, 55, 75
10, 206060, Note_off_c, 8, 55, 64
10, 206220, Note_on_c, 8, 55, 75
10, 206300, Note_off_c, 8, 55, 64
10, 206460, Note_on_c, 8, 55, 75
10, 206540, Note_off_c, 8, 55, 64
10, 206700, Note_on_c, 8, 55, 75
10, 206780, Note_off_c, 8, 55, 64
10, 206940, Note_on_c, 8, 55, 75
10, 207020, Note_off_c, 8, 55, 64
10, 207180, Note_on_c, 8, 55, 75
10, 207260, Note_off_c, 8, 55, 64
10, 207420, Note_on_c, 8, 55, 75
10, 207500, Note_off_c, 8, 55, 64
10, 207660, Note_on_c, 8, 57, 75
10, 207740, Note_off_c, 8, 57, 64
10, 207900, Note_on_c, 8, 57, 75
10, 207980, Note_off_c, 8, 57, 64
10, 208140, Note_on_c, 8, 57, 75
10, 208220, Note_off_c, 8, 57, 64
10, 208380, Note_on_c, 8, 57, 75
10, 208460, Note_off_c, 8, 57, 64
10, 208620, Note_on_c, 8, 57, 75
10, 208700, Note_off_c, 8, 57, 64
10, 208860, Note_on_c, 8, 57, 75
10, 208940, Note_off_c, 8, 57, 64
10, 209100, Note_on_c, 8, 57, 75
10, 209180, Note_off_c, 8, 57, 64
10, 209340, Note_on_c, 8, 57, 75
10, 209420, Note_off_c, 8, 57, 64
10, 209580, Note_on_c, 8, 45, 75
10, 209660, Note_off_c, 8, 45, 64
10, 209820, Note_on_c, 8, 45, 75
10, 209900, Note_off_c, 8, 45, 64
10, 210060, Note_on_c, 8, 45, 75
10, 210140, Note_off_c, 8, 45, 64
10, 210300, Note_on_c, 8, 45, 75
10, 210380, Note_off_c, 8, 45, 64
10, 210540, Note_on_c, 8, 45, 75
10, 210620, Note_off_c, 8, 45, 64
10, 210780, Note_on_c, 8, 45, 75
10, 210860, Note_off_c, 8, 45, 64
10, 211020, Note_on_c, 8, 45, 75
10, 211100, Note_off_c, 8, 45, 64
10, 211260, Note_on_c, 8, 45, 75
10, 211340, Note_off_c, 8, 45, 64
10, 211500, Note_on_c, 8, 50, 75
10, 211900, Note_off_c, 8, 50, 64
10, 212220, Note_on_c, 8, 45, 75
10, 212455, Note_off_c, 8, 45, 64
10, 212460, Note_on_c, 8, 50, 75
10, 212860, Note_off_c, 8, 50, 64
10, 213180, Note_on_c, 8, 57, 75
10, 213415, Note_off_c, 8, 57, 64
10, 213420, Note_on_c, 8, 50, 75
10, 213820, Note_off_c, 8, 50, 64
10, 214140, Note_on_c, 8, 45, 75
10, 214375, Note_off_c, 8, 45, 64
10, 214380, Note_on_c, 8, 50, 75
10, 214780, Note_off_c, 8, 50, 64
10, 215100, Note_on_c, 8, 57, 75
10, 215335, Note_off_c, 8, 57, 64
10, 215340, Note_on_c, 8, 50, 75
10, 215420, Note_off_c, 8, 50, 64
10, 215580, Note_on_c, 8, 50, 75
10, 215660, Note_off_c, 8, 50, 64
10, 215820, Note_on_c, 8, 50, 75
10, 215900, Note_off_c, 8, 50, 64
10, 216060, Note_on_c, 8, 50, 75
10, 216140, Note_off_c, 8, 50, 64
10, 216300, Note_on_c, 8, 50, 75
10, 216380, Note_off_c, 8, 50, 64
10, 216540, Note_on_c, 8, 50, 75
10, 216620, Note_off_c, 8, 50, 64
10, 216780, Note_on_c, 8, 50, 75
10, 216860, Note_off_c, 8, 50, 64
10, 217020, Note_on_c, 8, 50, 75
10, 217100, Note_off_c, 8, 50, 64
10, 217260, Note_on_c, 8, 50, 75
10, 217340, Note_off_c, 8, 50, 64
10, 217500, Note_on_c, 8, 50, 75
10, 217580, Note_off_c, 8, 50, 64
10, 217740, Note_on_c, 8, 50, 75
10, 217820, Note_off_c, 8, 50, 64
10, 217980, Note_on_c, 8, 50, 75
10, 218060, Note_off_c, 8, 50, 64
10, 218220, Note_on_c, 8, 50, 75
10, 218300, Note_off_c, 8, 50, 64
10, 218460, Note_on_c, 8, 50, 75
10, 218540, Note_off_c, 8, 50, 64
10, 218700, Note_on_c, 8, 50, 75
10, 218780, Note_off_c, 8, 50, 64
10, 218940, Note_on_c, 8, 50, 75
10, 219020, Note_off_c, 8, 50, 64
10, 219180, Note_on_c, 8, 50, 75
10, 219260, Note_off_c, 8, 50, 64
10, 219420, Note_on_c, 8, 50, 75
10, 219500, Note_off_c, 8, 50, 64
10, 219660, Note_on_c, 8, 50, 75
10, 219740, Note_off_c, 8, 50, 64
10, 219900, Note_on_c, 8, 50, 75
10, 219980, Note_off_c, 8, 50, 64
10, 220140, Note_on_c, 8, 50, 75
10, 220220, Note_off_c, 8, 50, 64
10, 220380, Note_on_c, 8, 50, 75
10, 220460, Note_off_c, 8, 50, 64
10, 220620, Note_on_c, 8, 50, 75
10, 220700, Note_off_c, 8, 50, 64
10, 220860, Note_on_c, 8, 50, 75
10, 220940, Note_off_c, 8, 50, 64
10, 221100, Note_on_c, 8, 50, 75
10, 221180, Note_off_c, 8, 50, 64
10, 221340, Note_on_c, 8, 50, 75
10, 221420, Note_off_c, 8, 50, 64
10, 221580, Note_on_c, 8, 50, 75
10, 221660, Note_off_c, 8, 50, 64
10, 221820, Note_on_c, 8, 50, 75
10, 221900, Note_off_c, 8, 50, 64
10, 222060, Note_on_c, 8, 50, 75
10, 222140, Note_off_c, 8, 50, 64
10, 222300, Note_on_c, 8, 50, 75
10, 222540, Note_off_c, 8, 50, 64
10, 222540, Note_on_c, 8, 50, 75
10, 222620, Note_off_c, 8, 50, 64
10, 222780, Note_on_c, 8, 50, 75
10, 222860, Note_off_c, 8, 50, 64
10, 223020, Note_on_c, 8, 55, 75
10, 223255, Note_off_c, 8, 55, 64
10, 223260, Note_on_c, 8, 55, 75
10, 223495, Note_off_c, 8, 55, 64
10, 223500, Note_on_c, 8, 59, 75
10, 223735, Note_off_c, 8, 59, 64
10, 223740, Note_on_c, 8, 59, 75
10, 223975, Note_off_c, 8, 59, 64
10, 223980, Note_on_c, 8, 57, 75
10, 224215, Note_off_c, 8, 57, 64
10, 224220, Note_on_c, 8, 57, 75
10, 224455, Note_off_c, 8, 57, 64
10, 224460, Note_on_c, 8, 50, 75
10, 224695, Note_off_c, 8, 50, 64
10, 224700, Note_on_c, 8, 50, 75
10, 224935, Note_off_c, 8, 50, 64
10, 224940, Note_on_c, 8, 55, 75
10, 225175, Note_off_c, 8, 55, 64
10, 225180, Note_on_c, 8, 55, 75
10, 225415, Note_off_c, 8, 55, 64
10, 225420, Note_on_c, 8, 57, 75
10, 225655, Note_off_c, 8, 57, 64
10, 225660, Note_on_c, 8, 57, 75
10, 225895, Note_off_c, 8, 57, 64
10, 225900, Note_on_c, 8, 55, 75
10, 226135, Note_off_c, 8, 55, 64
10, 226140, Note_on_c, 8, 55, 75
10, 226375, Note_off_c, 8, 55, 64
10, 226380, Note_on_c, 8, 55, 75
10, 226615, Note_off_c, 8, 55, 64
10, 226620, Note_on_c, 8, 56, 75
10, 226855, Note_off_c, 8, 56, 64
10, 226860, Note_on_c, 8, 57, 75
10, 227095, Note_off_c, 8, 57, 64
10, 227100, Note_on_c, 8, 57, 75
10, 227335, Note_off_c, 8, 57, 64
10, 227340, Note_on_c, 8, 61, 75
10, 227575, Note_off_c, 8, 61, 64
10, 227580, Note_on_c, 8, 61, 75
10, 227815, Note_off_c, 8, 61, 64
10, 227820, Note_on_c, 8, 59, 75
10, 228055, Note_off_c, 8, 59, 64
10, 228060, Note_on_c, 8, 59, 75
10, 228295, Note_off_c, 8, 59, 64
10, 228300, Note_on_c, 8, 52, 75
10, 228535, Note_off_c, 8, 52, 64
10, 228540, Note_on_c, 8, 52, 75
10, 228775, Note_off_c, 8, 52, 64
10, 228780, Note_on_c, 8, 45, 75
10, 229015, Note_off_c, 8, 45, 64
10, 229020, Note_on_c, 8, 45, 75
10, 229255, Note_off_c, 8, 45, 64
10, 229260, Note_on_c, 8, 52, 75
10, 229495, Note_off_c, 8, 52, 64
10, 229500, Note_on_c, 8, 52, 75
10, 229735, Note_off_c, 8, 52, 64
10, 229740, Note_on_c, 8, 49, 75
10, 229975, Note_off_c, 8, 49, 64
10, 229980, Note_on_c, 8, 49, 75
10, 230215, Note_off_c, 8, 49, 64
10, 230220, Note_on_c, 8, 45, 75
10, 230455, Note_off_c, 8, 45, 64
10, 230460, Note_on_c, 8, 45, 75
10, 230695, Note_off_c, 8, 45, 64
10, 230700, Note_on_c, 8, 50, 75
10, 230935, Note_off_c, 8, 50, 64
10, 230940, Note_on_c, 8, 50, 75
10, 231175, Note_off_c, 8, 50, 64
10, 231180, Note_on_c, 8, 54, 75
10, 231415, Note_off_c, 8, 54, 64
10, 231420, Note_on_c, 8, 54, 75
10, 231655, Note_off_c, 8, 54, 64
10, 231660, Note_on_c, 8, 52, 75
10, 231895, Note_off_c, 8, 52, 64
10, 231900, Note_on_c, 8, 52, 75
10, 232135, Note_off_c, 8, 52, 64
10, 232140, Note_on_c, 8, 45, 75
10, 232375, Note_off_c, 8, 45, 64
10, 232380, Note_on_c, 8, 45, 75
10, 232615, Note_off_c, 8, 45, 64
10, 232620, Note_on_c, 8, 50, 75
10, 232855, Note_off_c, 8, 50, 64
10, 232860, Note_on_c, 8, 50, 75
10, 233095, Note_off_c, 8, 50, 64
10, 233100, Note_on_c, 8, 54, 75
10, 233335, Note_off_c, 8, 54, 64
10, 233340, Note_on_c, 8, 54, 75
10, 233575, Note_off_c, 8, 54, 64
10, 233580, Note_on_c, 8, 52, 75
10, 233815, Note_off_c, 8, 52, 64
10, 233820, Note_on_c, 8, 52, 75
10, 234055, Note_off_c, 8, 52, 64
10, 234060, Note_on_c, 8, 45, 75
10, 234295, Note_off_c, 8, 45, 64
10, 234300, Note_on_c, 8, 45, 75
10, 234535, Note_off_c, 8, 45, 64
10, 234540, Note_on_c, 8, 50, 75
10, 234940, Note_off_c, 8, 50, 64
10, 237660, Note_on_c, 8, 50, 92
10, 237740, Note_off_c, 8, 50, 64
10, 237900, Note_on_c, 8, 38, 92
10, 237980, Note_off_c, 8, 38, 64
10, 238140, Note_on_c, 8, 40, 92
10, 238170, Note_off_c, 8, 40, 64
10, 238170, Note_on_c, 8, 42, 92
10, 238200, Note_off_c, 8, 42, 64
10, 238200, Note_on_c, 8, 40, 92
10, 238230, Note_off_c, 8, 40, 64
10, 238230, Note_on_c, 8, 42, 92
10, 238260, Note_off_c, 8, 42, 64
10, 238260, Note_on_c, 8, 40, 92
10, 238290, Note_off_c, 8, 40, 64
10, 238290, Note_on_c, 8, 42, 92
10, 238320, Note_off_c, 8, 42, 64
10, 238320, Note_on_c, 8, 40, 92
10, 238350, Note_off_c, 8, 40, 64
10, 238350, Note_on_c, 8, 42, 92
10, 238380, Note_off_c, 8, 42, 64
10, 238380, Note_on_c, 8, 42, 92
10, 238460, Note_off_c, 8, 42, 64
10, 238620, Note_on_c, 8, 54, 92
10, 238700, Note_off_c, 8, 54, 64
10, 238860, Note_on_c, 8, 54, 92
10, 238940, Note_off_c, 8, 54, 64
10, 239100, Note_on_c, 8, 54, 92
10, 239180, Note_off_c, 8, 54, 64
10, 239340, Note_on_c, 8, 54, 92
10, 239420, Note_off_c, 8, 54, 64
10, 239580, Note_on_c, 8, 54, 92
10, 239660, Note_off_c, 8, 54, 64
10, 239820, Note_on_c, 8, 54, 92
10, 239900, Note_off_c, 8, 54, 64
10, 240060, Note_on_c, 8, 54, 92
10, 240140, Note_off_c, 8, 54, 64
10, 240300, Note_on_c, 8, 55, 92
10, 240380, Note_off_c, 8, 55, 64
10, 240540, Note_on_c, 8, 55, 92
10, 240620, Note_off_c, 8, 55, 64
10, 240780, Note_on_c, 8, 55, 92
10, 240860, Note_off_c, 8, 55, 64
10, 241020, Note_on_c, 8, 55, 92
10, 241100, Note_off_c, 8, 55, 64
10, 241260, Note_on_c, 8, 43, 92
10, 241340, Note_off_c, 8, 43, 64
10, 241500, Note_on_c, 8, 43, 92
10, 241580, Note_off_c, 8, 43, 64
10, 241740, Note_on_c, 8, 43, 92
10, 241820, Note_off_c, 8, 43, 64
10, 241980, Note_on_c, 8, 43, 92
10, 242060, Note_off_c, 8, 43, 64
10, 242220, Note_on_c, 8, 45, 92
10, 242300, Note_off_c, 8, 45, 64
10, 242460, Note_on_c, 8, 45, 89
10, 242540, Note_off_c, 8, 45, 64
10, 242700, Note_on_c, 8, 45, 86
10, 242780, Note_off_c, 8, 45, 64
10, 242940, Note_on_c, 8, 45, 82
10, 243020, Note_off_c, 8, 45, 64
10, 243180, Note_on_c, 8, 45, 78
10, 243260, Note_off_c, 8, 45, 64
10, 243420, Note_on_c, 8, 45, 74
10, 243500, Note_off_c, 8, 45, 64
10, 243660, Note_on_c, 8, 45, 70
10, 243740, Note_off_c, 8, 45, 64
10, 243900, Note_on_c, 8, 45, 66
10, 243980, Note_off_c, 8, 45, 64
10, 244140, Note_on_c, 8, 43, 62
10, 244220, Note_off_c, 8, 43, 64
10, 244380, Note_on_c, 8, 43, 58
10, 244460, Note_off_c, 8, 43, 64
10, 244620, Note_on_c, 8, 43, 54
10, 244700, Note_off_c, 8, 43, 64
10, 244860, Note_on_c, 8, 43, 50
10, 244940, Note_off_c, 8, 43, 64
10, 245100, Note_on_c, 8, 55, 46
10, 245180, Note_off_c, 8, 55, 64
10, 245340, Note_on_c, 8, 55, 42
10, 245420, Note_off_c, 8, 55, 64
10, 245580, Note_on_c, 8, 55, 38
10, 245660, Note_off_c, 8, 55, 64
10, 245820, Note_on_c, 8, 55, 34
10, 245900, Note_off_c, 8, 55, 64
10, 246060, Note_on_c, 8, 54, 30
10, 246300, Note_off_c, 8, 54, 64
10, 246300, Note_on_c, 8, 54, 30
10, 246380, Note_off_c, 8, 54, 64
10, 246540, Note_on_c, 8, 54, 32
10, 246620, Note_off_c, 8, 54, 64
10, 246780, Note_on_c, 8, 54, 34
10, 246860, Note_off_c, 8, 54, 64
10, 247020, Note_on_c, 8, 54, 36
10, 247420, Note_off_c, 8, 54, 64
10, 247980, Note_on_c, 8, 55, 45
10, 248220, Note_off_c, 8, 55, 64
10, 248220, Note_on_c, 8, 55, 45
10, 248300, Note_off_c, 8, 55, 64
10, 248460, Note_on_c, 8, 55, 47
10, 248540, Note_off_c, 8, 55, 64
10, 248700, Note_on_c, 8, 55, 49
10, 248780, Note_off_c, 8, 55, 64
10, 248940, Note_on_c, 8, 55, 51
10, 249340, Note_off_c, 8, 55, 64
10, 249900, Note_on_c, 8, 57, 60
10, 250140, Note_off_c, 8, 57, 64
10, 250140, Note_on_c, 8, 57, 60
10, 250220, Note_off_c, 8, 57, 64
10, 250380, Note_on_c, 8, 57, 62
10, 250460, Note_off_c, 8, 57, 64
10, 250620, Note_on_c, 8, 57, 64
10, 250700, Note_off_c, 8, 57, 64
10, 250860, Note_on_c, 8, 57, 66
10, 251260, Note_off_c, 8, 57, 64
10, 251820, Note_on_c, 8, 59, 75
10, 252220, Note_off_c, 8, 59, 64
10, 254220, Note_on_c, 8, 45, 92
10, 254700, Note_off_c, 8, 45, 64
10, 254700, Note_on_c, 8, 43, 92
10, 255180, Note_off_c, 8, 43, 64
10, 255180, Note_on_c, 8, 42, 92
10, 255660, Note_off_c, 8, 42, 64
10, 255660, Note_on_c, 8, 43, 92
10, 255895, Note_off_c, 8, 43, 64
10, 255900, Note_on_c, 8, 43, 92
10, 256135, Note_off_c, 8, 43, 64
10, 256140, Note_on_c, 8, 43, 92
10, 256375, Note_off_c, 8, 43, 64
10, 256380, Note_on_c, 8, 43, 92
10, 256615, Note_off_c, 8, 43, 64
10, 256620, Note_on_c, 8, 55, 92
10, 256855, Note_off_c, 8, 55, 64
10, 256860, Note_on_c, 8, 55, 92
10, 257095, Note_off_c, 8, 55, 64
10, 257100, Note_on_c, 8, 55, 92
10, 257335, Note_off_c, 8, 55, 64
10, 257340, Note_on_c, 8, 55, 92
10, 257575, Note_off_c, 8, 55, 64
10, 257580, Note_on_c, 8, 57, 92
10, 257815, Note_off_c, 8, 57, 64
10, 257820, Note_on_c, 8, 57, 92
10, 258055, Note_off_c, 8, 57, 64
10, 258060, Note_on_c, 8, 57, 92
10, 258295, Note_off_c, 8, 57, 64
10, 258300, Note_on_c, 8, 57, 92
10, 258535, Note_off_c, 8, 57, 64
10, 258540, Note_on_c, 8, 45, 92
10, 258775, Note_off_c, 8, 45, 64
10, 258780, Note_on_c, 8, 45, 92
10, 259015, Note_off_c, 8, 45, 64
10, 259020, Note_on_c, 8, 45, 92
10, 259255, Note_off_c, 8, 45, 64
10, 259260, Note_on_c, 8, 45, 92
10, 259495, Note_off_c, 8, 45, 64
10, 259500, Note_on_c, 8, 50, 92
10, 259735, Note_off_c, 8, 50, 64
10, 259740, Note_on_c, 8, 50, 92
10, 259975, Note_off_c, 8, 50, 64
10, 259980, Note_on_c, 8, 50, 92
10, 260215, Note_off_c, 8, 50, 64
10, 260220, Note_on_c, 8, 50, 92
10, 260455, Note_off_c, 8, 50, 64
10, 260460, Note_on_c, 8, 50, 92
10, 260695, Note_off_c, 8, 50, 64
10, 260700, Note_on_c, 8, 50, 92
10, 260935, Note_off_c, 8, 50, 64
10, 260940, Note_on_c, 8, 50, 92
10, 261175, Note_off_c, 8, 50, 64
10, 261180, Note_on_c, 8, 50, 92
10, 261415, Note_off_c, 8, 50, 64
10, 261420, Note_on_c, 8, 50, 92
10, 261655, Note_off_c, 8, 50, 64
10, 261660, Note_on_c, 8, 50, 87
10, 261895, Note_off_c, 8, 50, 64
10, 261900, Note_on_c, 8, 50, 81
10, 262135, Note_off_c, 8, 50, 64
10, 262140, Note_on_c, 8, 50, 75
10, 262375, Note_off_c, 8, 50, 64
10, 262380, Note_on_c, 8, 50, 69
10, 262615, Note_off_c, 8, 50, 64
10, 262620, Note_on_c, 8, 50, 63
10, 262855, Note_off_c, 8, 50, 64
10, 262860, Note_on_c, 8, 50, 57
10, 263095, Note_off_c, 8, 50, 64
10, 263100, Note_on_c, 8, 50, 51
10, 263335, Note_off_c, 8, 50, 64
10, 263340, Note_on_c, 8, 50, 45
10, 263575, Note_off_c, 8, 50, 64
10, 263580, Note_on_c, 8, 50, 45
10, 263815, Note_off_c, 8, 50, 64
10, 263820, Note_on_c, 8, 50, 45
10, 264055, Note_off_c, 8, 50, 64
10, 264060, Note_on_c, 8, 50, 45
10, 264295, Note_off_c, 8, 50, 64
10, 264300, Note_on_c, 8, 38, 45
10, 264700, Note_off_c, 8, 38, 64
10, 264700, End_track
11, 0, Start_track
11, 0, MIDI_port, 0
11, 0, Channel_prefix, 10
11, 0, Control_c, 10, 7, 127
11, 0, Control_c, 10, 10, 127
11, 0, Control_c, 10, 91, 127
11, 0, Program_c, 10, 48
11, 0, Note_on_c, 10, 38, 75
11, 80, Note_off_c, 10, 38, 64
11, 240, Note_on_c, 10, 38, 75
11, 320, Note_off_c, 10, 38, 64
11, 480, Note_on_c, 10, 38, 75
11, 560, Note_off_c, 10, 38, 64
11, 720, Note_on_c, 10, 38, 75
11, 800, Note_off_c, 10, 38, 64
11, 960, Note_on_c, 10, 38, 75
11, 1040, Note_off_c, 10, 38, 64
11, 1200, Note_on_c, 10, 38, 75
11, 1280, Note_off_c, 10, 38, 64
11, 1440, Note_on_c, 10, 38, 75
11, 1520, Note_off_c, 10, 38, 64
11, 1680, Note_on_c, 10, 38, 75
11, 1760, Note_off_c, 10, 38, 64
11, 1920, Note_on_c, 10, 38, 75
11, 2000, Note_off_c, 10, 38, 64
11, 2160, Note_on_c, 10, 38, 75
11, 2240, Note_off_c, 10, 38, 64
11, 2400, Note_on_c, 10, 38, 75
11, 2480, Note_off_c, 10, 38, 64
11, 2640, Note_on_c, 10, 38, 75
11, 2720, Note_off_c, 10, 38, 64
11, 2880, Note_on_c, 10, 38, 75
11, 2960, Note_off_c, 10, 38, 64
11, 3120, Note_on_c, 10, 38, 75
11, 3200, Note_off_c, 10, 38, 64
11, 3360, Note_on_c, 10, 38, 75
11, 3440, Note_off_c, 10, 38, 64
11, 3600, Note_on_c, 10, 38, 75
11, 3680, Note_off_c, 10, 38, 64
11, 3840, Note_on_c, 10, 38, 75
11, 3920, Note_off_c, 10, 38, 64
11, 4080, Note_on_c, 10, 38, 75
11, 4160, Note_off_c, 10, 38, 64
11, 4320, Note_on_c, 10, 38, 75
11, 4400, Note_off_c, 10, 38, 64
11, 4560, Note_on_c, 10, 38, 75
11, 4640, Note_off_c, 10, 38, 64
11, 4800, Note_on_c, 10, 38, 75
11, 4880, Note_off_c, 10, 38, 64
11, 5040, Note_on_c, 10, 38, 75
11, 5120, Note_off_c, 10, 38, 64
11, 5280, Note_on_c, 10, 38, 75
11, 5360, Note_off_c, 10, 38, 64
11, 5520, Note_on_c, 10, 38, 75
11, 5600, Note_off_c, 10, 38, 64
11, 5760, Note_on_c, 10, 38, 75
11, 5840, Note_off_c, 10, 38, 64
11, 6000, Note_on_c, 10, 38, 75
11, 6080, Note_off_c, 10, 38, 64
11, 6240, Note_on_c, 10, 38, 75
11, 6320, Note_off_c, 10, 38, 64
11, 6480, Note_on_c, 10, 38, 75
11, 6560, Note_off_c, 10, 38, 64
11, 6720, Note_on_c, 10, 38, 75
11, 6800, Note_off_c, 10, 38, 64
11, 6960, Note_on_c, 10, 38, 75
11, 7040, Note_off_c, 10, 38, 64
11, 7200, Note_on_c, 10, 38, 75
11, 7280, Note_off_c, 10, 38, 64
11, 7440, Note_on_c, 10, 38, 75
11, 7520, Note_off_c, 10, 38, 64
11, 7680, Note_on_c, 10, 33, 75
11, 7760, Note_off_c, 10, 33, 64
11, 7920, Note_on_c, 10, 33, 75
11, 8000, Note_off_c, 10, 33, 64
11, 8160, Note_on_c, 10, 33, 75
11, 8240, Note_off_c, 10, 33, 64
11, 8400, Note_on_c, 10, 33, 75
11, 8480, Note_off_c, 10, 33, 64
11, 8640, Note_on_c, 10, 33, 75
11, 8720, Note_off_c, 10, 33, 64
11, 8880, Note_on_c, 10, 33, 75
11, 8960, Note_off_c, 10, 33, 64
11, 9120, Note_on_c, 10, 33, 75
11, 9200, Note_off_c, 10, 33, 64
11, 9360, Note_on_c, 10, 33, 75
11, 9440, Note_off_c, 10, 33, 64
11, 9600, Note_on_c, 10, 38, 75
11, 9680, Note_off_c, 10, 38, 64
11, 9840, Note_on_c, 10, 38, 75
11, 9920, Note_off_c, 10, 38, 64
11, 10080, Note_on_c, 10, 38, 75
11, 10160, Note_off_c, 10, 38, 64
11, 10320, Note_on_c, 10, 38, 75
11, 10400, Note_off_c, 10, 38, 64
11, 10560, Note_on_c, 10, 38, 75
11, 10640, Note_off_c, 10, 38, 64
11, 10800, Note_on_c, 10, 38, 75
11, 10880, Note_off_c, 10, 38, 64
11, 11040, Note_on_c, 10, 40, 75
11, 11120, Note_off_c, 10, 40, 64
11, 11280, Note_on_c, 10, 40, 75
11, 11360, Note_off_c, 10, 40, 64
11, 11520, Note_on_c, 10, 42, 75
11, 11600, Note_off_c, 10, 42, 64
11, 11760, Note_on_c, 10, 42, 75
11, 11840, Note_off_c, 10, 42, 64
11, 12000, Note_on_c, 10, 42, 75
11, 12080, Note_off_c, 10, 42, 64
11, 12240, Note_on_c, 10, 42, 75
11, 12320, Note_off_c, 10, 42, 64
11, 12480, Note_on_c, 10, 42, 75
11, 12560, Note_off_c, 10, 42, 64
11, 12720, Note_on_c, 10, 42, 75
11, 12800, Note_off_c, 10, 42, 64
11, 12960, Note_on_c, 10, 42, 75
11, 13040, Note_off_c, 10, 42, 64
11, 13200, Note_on_c, 10, 42, 75
11, 13280, Note_off_c, 10, 42, 64
11, 13440, Note_on_c, 10, 43, 75
11, 13520, Note_off_c, 10, 43, 64
11, 13680, Note_on_c, 10, 43, 75
11, 13760, Note_off_c, 10, 43, 64
11, 13920, Note_on_c, 10, 43, 75
11, 14000, Note_off_c, 10, 43, 64
11, 14160, Note_on_c, 10, 43, 75
11, 14240, Note_off_c, 10, 43, 64
11, 14400, Note_on_c, 10, 43, 75
11, 14480, Note_off_c, 10, 43, 64
11, 14640, Note_on_c, 10, 43, 75
11, 14720, Note_off_c, 10, 43, 64
11, 14880, Note_on_c, 10, 43, 75
11, 14960, Note_off_c, 10, 43, 64
11, 15120, Note_on_c, 10, 43, 75
11, 15200, Note_off_c, 10, 43, 64
11, 15360, Note_on_c, 10, 45, 75
11, 15440, Note_off_c, 10, 45, 64
11, 15600, Note_on_c, 10, 45, 75
11, 15680, Note_off_c, 10, 45, 64
11, 15840, Note_on_c, 10, 45, 75
11, 15920, Note_off_c, 10, 45, 64
11, 16080, Note_on_c, 10, 45, 75
11, 16160, Note_off_c, 10, 45, 64
11, 16320, Note_on_c, 10, 45, 75
11, 16400, Note_off_c, 10, 45, 64
11, 16560, Note_on_c, 10, 45, 75
11, 16640, Note_off_c, 10, 45, 64
11, 16800, Note_on_c, 10, 45, 75
11, 16880, Note_off_c, 10, 45, 64
11, 17040, Note_on_c, 10, 45, 75
11, 17120, Note_off_c, 10, 45, 64
11, 17280, Note_on_c, 10, 33, 75
11, 17360, Note_off_c, 10, 33, 64
11, 17520, Note_on_c, 10, 33, 75
11, 17600, Note_off_c, 10, 33, 64
11, 17760, Note_on_c, 10, 33, 75
11, 17840, Note_off_c, 10, 33, 64
11, 18000, Note_on_c, 10, 33, 75
11, 18080, Note_off_c, 10, 33, 64
11, 18240, Note_on_c, 10, 33, 75
11, 18320, Note_off_c, 10, 33, 64
11, 18480, Note_on_c, 10, 33, 75
11, 18560, Note_off_c, 10, 33, 64
11, 18720, Note_on_c, 10, 33, 75
11, 18800, Note_off_c, 10, 33, 64
11, 18960, Note_on_c, 10, 33, 75
11, 19040, Note_off_c, 10, 33, 64
11, 19200, Note_on_c, 10, 38, 75
11, 19600, Note_off_c, 10, 38, 64
11, 19920, Note_on_c, 10, 33, 75
11, 20155, Note_off_c, 10, 33, 64
11, 20160, Note_on_c, 10, 38, 75
11, 20560, Note_off_c, 10, 38, 64
11, 20880, Note_on_c, 10, 45, 75
11, 21115, Note_off_c, 10, 45, 64
11, 21120, Note_on_c, 10, 38, 75
11, 21520, Note_off_c, 10, 38, 64
11, 21840, Note_on_c, 10, 33, 75
11, 22075, Note_off_c, 10, 33, 64
11, 22080, Note_on_c, 10, 38, 75
11, 22480, Note_off_c, 10, 38, 64
11, 22800, Note_on_c, 10, 45, 75
11, 23035, Note_off_c, 10, 45, 64
11, 23040, Note_on_c, 10, 38, 75
11, 23120, Note_off_c, 10, 38, 64
11, 23280, Note_on_c, 10, 38, 75
11, 23360, Note_off_c, 10, 38, 64
11, 23520, Note_on_c, 10, 38, 75
11, 23600, Note_off_c, 10, 38, 64
11, 23760, Note_on_c, 10, 38, 75
11, 23840, Note_off_c, 10, 38, 64
11, 24000, Note_on_c, 10, 38, 75
11, 24080, Note_off_c, 10, 38, 64
11, 24240, Note_on_c, 10, 38, 75
11, 24320, Note_off_c, 10, 38, 64
11, 24480, Note_on_c, 10, 38, 75
11, 24560, Note_off_c, 10, 38, 64
11, 24720, Note_on_c, 10, 38, 75
11, 24800, Note_off_c, 10, 38, 64
11, 24960, Note_on_c, 10, 38, 75
11, 25040, Note_off_c, 10, 38, 64
11, 25200, Note_on_c, 10, 38, 75
11, 25280, Note_off_c, 10, 38, 64
11, 25440, Note_on_c, 10, 38, 75
11, 25520, Note_off_c, 10, 38, 64
11, 25680, Note_on_c, 10, 38, 75
11, 25760, Note_off_c, 10, 38, 64
11, 25920, Note_on_c, 10, 38, 75
11, 26000, Note_off_c, 10, 38, 64
11, 26160, Note_on_c, 10, 38, 75
11, 26400, Note_off_c, 10, 38, 64
11, 26400, Note_on_c, 10, 38, 75
11, 26480, Note_off_c, 10, 38, 64
11, 26640, Note_on_c, 10, 38, 75
11, 26720, Note_off_c, 10, 38, 64
11, 26880, Note_on_c, 10, 40, 75
11, 26960, Note_off_c, 10, 40, 64
11, 27120, Note_on_c, 10, 40, 75
11, 27200, Note_off_c, 10, 40, 64
11, 27360, Note_on_c, 10, 40, 75
11, 27440, Note_off_c, 10, 40, 64
11, 27600, Note_on_c, 10, 40, 75
11, 27680, Note_off_c, 10, 40, 64
11, 27840, Note_on_c, 10, 40, 75
11, 27920, Note_off_c, 10, 40, 64
11, 28080, Note_on_c, 10, 40, 75
11, 28160, Note_off_c, 10, 40, 64
11, 28320, Note_on_c, 10, 40, 75
11, 28400, Note_off_c, 10, 40, 64
11, 28560, Note_on_c, 10, 40, 75
11, 28640, Note_off_c, 10, 40, 64
11, 28800, Note_on_c, 10, 40, 75
11, 28880, Note_off_c, 10, 40, 64
11, 29040, Note_on_c, 10, 40, 74
11, 29120, Note_off_c, 10, 40, 64
11, 29280, Note_on_c, 10, 40, 72
11, 29360, Note_off_c, 10, 40, 64
11, 29520, Note_on_c, 10, 40, 70
11, 29600, Note_off_c, 10, 40, 64
11, 29760, Note_on_c, 10, 40, 68
11, 29840, Note_off_c, 10, 40, 64
11, 30000, Note_on_c, 10, 40, 66
11, 30240, Note_off_c, 10, 40, 64
11, 30240, Note_on_c, 10, 40, 64
11, 30320, Note_off_c, 10, 40, 64
11, 30480, Note_on_c, 10, 44, 62
11, 30560, Note_off_c, 10, 44, 64
11, 30720, Note_on_c, 10, 45, 60
11, 30800, Note_off_c, 10, 45, 64
11, 30960, Note_on_c, 10, 45, 60
11, 31040, Note_off_c, 10, 45, 64
11, 31200, Note_on_c, 10, 45, 60
11, 31280, Note_off_c, 10, 45, 64
11, 31440, Note_on_c, 10, 45, 60
11, 31520, Note_off_c, 10, 45, 64
11, 31680, Note_on_c, 10, 49, 60
11, 31760, Note_off_c, 10, 49, 64
11, 31920, Note_on_c, 10, 49, 60
11, 32000, Note_off_c, 10, 49, 64
11, 32160, Note_on_c, 10, 49, 60
11, 32240, Note_off_c, 10, 49, 64
11, 32400, Note_on_c, 10, 49, 60
11, 32480, Note_off_c, 10, 49, 64
11, 32640, Note_on_c, 10, 47, 60
11, 32720, Note_off_c, 10, 47, 64
11, 32880, Note_on_c, 10, 47, 60
11, 32960, Note_off_c, 10, 47, 64
11, 33120, Note_on_c, 10, 47, 60
11, 33200, Note_off_c, 10, 47, 64
11, 33360, Note_on_c, 10, 47, 60
11, 33440, Note_off_c, 10, 47, 64
11, 33600, Note_on_c, 10, 44, 60
11, 33680, Note_off_c, 10, 44, 64
11, 33840, Note_on_c, 10, 44, 60
11, 33920, Note_off_c, 10, 44, 64
11, 34080, Note_on_c, 10, 44, 60
11, 34160, Note_off_c, 10, 44, 64
11, 34320, Note_on_c, 10, 44, 60
11, 34400, Note_off_c, 10, 44, 64
11, 34560, Note_on_c, 10, 45, 60
11, 34640, Note_off_c, 10, 45, 64
11, 34800, Note_on_c, 10, 45, 60
11, 34880, Note_off_c, 10, 45, 64
11, 35040, Note_on_c, 10, 45, 60
11, 35120, Note_off_c, 10, 45, 64
11, 35280, Note_on_c, 10, 45, 60
11, 35360, Note_off_c, 10, 45, 64
11, 35520, Note_on_c, 10, 49, 60
11, 35600, Note_off_c, 10, 49, 64
11, 35760, Note_on_c, 10, 49, 60
11, 35840, Note_off_c, 10, 49, 64
11, 36000, Note_on_c, 10, 49, 60
11, 36080, Note_off_c, 10, 49, 64
11, 36240, Note_on_c, 10, 49, 60
11, 36320, Note_off_c, 10, 49, 64
11, 36480, Note_on_c, 10, 47, 60
11, 36560, Note_off_c, 10, 47, 64
11, 36720, Note_on_c, 10, 47, 60
11, 36800, Note_off_c, 10, 47, 64
11, 36960, Note_on_c, 10, 47, 60
11, 37040, Note_off_c, 10, 47, 64
11, 37200, Note_on_c, 10, 47, 60
11, 37280, Note_off_c, 10, 47, 64
11, 37440, Note_on_c, 10, 40, 60
11, 37520, Note_off_c, 10, 40, 64
11, 37680, Note_on_c, 10, 40, 60
11, 37760, Note_off_c, 10, 40, 64
11, 37920, Note_on_c, 10, 40, 60
11, 38000, Note_off_c, 10, 40, 64
11, 38160, Note_on_c, 10, 40, 60
11, 38240, Note_off_c, 10, 40, 64
11, 38400, Note_on_c, 10, 33, 60
11, 38800, Note_off_c, 10, 33, 64
11, 41520, Note_on_c, 10, 45, 75
11, 41600, Note_off_c, 10, 45, 64
11, 41760, Note_on_c, 10, 33, 75
11, 41840, Note_off_c, 10, 33, 64
11, 42000, Note_on_c, 10, 35, 75
11, 42060, Note_off_c, 10, 35, 64
11, 42060, Note_on_c, 10, 37, 75
11, 42120, Note_off_c, 10, 37, 64
11, 42120, Note_on_c, 10, 35, 75
11, 42180, Note_off_c, 10, 35, 64
11, 42180, Note_on_c, 10, 37, 75
11, 42240, Note_off_c, 10, 37, 64
11, 42240, Note_on_c, 10, 37, 75
11, 42320, Note_off_c, 10, 37, 64
11, 42480, Note_on_c, 10, 37, 75
11, 42560, Note_off_c, 10, 37, 64
11, 42720, Note_on_c, 10, 37, 75
11, 42800, Note_off_c, 10, 37, 64
11, 42960, Note_on_c, 10, 37, 75
11, 43040, Note_off_c, 10, 37, 64
11, 43200, Note_on_c, 10, 37, 75
11, 43280, Note_off_c, 10, 37, 64
11, 43440, Note_on_c, 10, 37, 75
11, 43520, Note_off_c, 10, 37, 64
11, 43680, Note_on_c, 10, 37, 75
11, 43760, Note_off_c, 10, 37, 64
11, 43920, Note_on_c, 10, 37, 75
11, 44000, Note_off_c, 10, 37, 64
11, 44160, Note_on_c, 10, 38, 75
11, 44240, Note_off_c, 10, 38, 64
11, 44400, Note_on_c, 10, 38, 75
11, 44480, Note_off_c, 10, 38, 64
11, 44640, Note_on_c, 10, 38, 75
11, 44720, Note_off_c, 10, 38, 64
11, 44880, Note_on_c, 10, 38, 75
11, 44960, Note_off_c, 10, 38, 64
11, 45120, Note_on_c, 10, 38, 75
11, 45200, Note_off_c, 10, 38, 64
11, 45360, Note_on_c, 10, 38, 75
11, 45440, Note_off_c, 10, 38, 64
11, 45600, Note_on_c, 10, 38, 75
11, 45680, Note_off_c, 10, 38, 64
11, 45840, Note_on_c, 10, 38, 75
11, 45920, Note_off_c, 10, 38, 64
11, 46080, Note_on_c, 10, 40, 75
11, 46160, Note_off_c, 10, 40, 64
11, 46320, Note_on_c, 10, 40, 75
11, 46400, Note_off_c, 10, 40, 64
11, 46560, Note_on_c, 10, 40, 75
11, 46640, Note_off_c, 10, 40, 64
11, 46800, Note_on_c, 10, 40, 75
11, 46880, Note_off_c, 10, 40, 64
11, 47040, Note_on_c, 10, 40, 75
11, 47120, Note_off_c, 10, 40, 64
11, 47280, Note_on_c, 10, 40, 75
11, 47360, Note_off_c, 10, 40, 64
11, 47520, Note_on_c, 10, 40, 75
11, 47600, Note_off_c, 10, 40, 64
11, 47760, Note_on_c, 10, 40, 75
11, 47840, Note_off_c, 10, 40, 64
11, 48000, Note_on_c, 10, 38, 75
11, 48080, Note_off_c, 10, 38, 64
11, 48240, Note_on_c, 10, 38, 72
11, 48320, Note_off_c, 10, 38, 64
11, 48480, Note_on_c, 10, 38, 69
11, 48560, Note_off_c, 10, 38, 64
11, 48720, Note_on_c, 10, 38, 65
11, 48800, Note_off_c, 10, 38, 64
11, 48960, Note_on_c, 10, 38, 61
11, 49040, Note_off_c, 10, 38, 64
11, 49200, Note_on_c, 10, 38, 57
11, 49280, Note_off_c, 10, 38, 64
11, 49440, Note_on_c, 10, 38, 53
11, 49520, Note_off_c, 10, 38, 64
11, 49680, Note_on_c, 10, 38, 49
11, 49760, Note_off_c, 10, 38, 64
11, 49920, Note_on_c, 10, 37, 45
11, 50160, Note_off_c, 10, 37, 64
11, 50160, Note_on_c, 10, 37, 46
11, 50240, Note_off_c, 10, 37, 64
11, 50400, Note_on_c, 10, 37, 48
11, 50480, Note_off_c, 10, 37, 64
11, 50640, Note_on_c, 10, 37, 50
11, 50720, Note_off_c, 10, 37, 64
11, 50880, Note_on_c, 10, 37, 52
11, 51280, Note_off_c, 10, 37, 64
11, 51840, Note_on_c, 10, 38, 60
11, 52080, Note_off_c, 10, 38, 64
11, 52080, Note_on_c, 10, 38, 60
11, 52160, Note_off_c, 10, 38, 64
11, 52320, Note_on_c, 10, 38, 62
11, 52400, Note_off_c, 10, 38, 64
11, 52560, Note_on_c, 10, 38, 64
11, 52640, Note_off_c, 10, 38, 64
11, 52800, Note_on_c, 10, 38, 66
11, 53200, Note_off_c, 10, 38, 64
11, 53760, Note_on_c, 10, 40, 75
11, 54000, Note_off_c, 10, 40, 64
11, 54000, Note_on_c, 10, 40, 75
11, 54080, Note_off_c, 10, 40, 64
11, 54240, Note_on_c, 10, 40, 77
11, 54320, Note_off_c, 10, 40, 64
11, 54480, Note_on_c, 10, 40, 79
11, 54560, Note_off_c, 10, 40, 64
11, 54720, Note_on_c, 10, 40, 81
11, 55120, Note_off_c, 10, 40, 64
11, 55680, Note_on_c, 10, 42, 92
11, 56080, Note_off_c, 10, 42, 64
11, 58080, Note_on_c, 10, 40, 92
11, 58560, Note_off_c, 10, 40, 64
11, 58560, Note_on_c, 10, 38, 92
11, 59040, Note_off_c, 10, 38, 64
11, 59040, Note_on_c, 10, 37, 92
11, 59520, Note_off_c, 10, 37, 64
11, 59520, Note_on_c, 10, 38, 92
11, 59600, Note_off_c, 10, 38, 64
11, 59760, Note_on_c, 10, 38, 92
11, 59840, Note_off_c, 10, 38, 64
11, 60000, Note_on_c, 10, 38, 92
11, 60080, Note_off_c, 10, 38, 64
11, 60240, Note_on_c, 10, 38, 92
11, 60320, Note_off_c, 10, 38, 64
11, 60480, Note_on_c, 10, 38, 92
11, 60560, Note_off_c, 10, 38, 64
11, 60720, Note_on_c, 10, 38, 92
11, 60800, Note_off_c, 10, 38, 64
11, 60960, Note_on_c, 10, 38, 92
11, 61040, Note_off_c, 10, 38, 64
11, 61200, Note_on_c, 10, 38, 92
11, 61280, Note_off_c, 10, 38, 64
11, 61440, Note_on_c, 10, 40, 92
11, 61520, Note_off_c, 10, 40, 64
11, 61680, Note_on_c, 10, 40, 92
11, 61760, Note_off_c, 10, 40, 64
11, 61920, Note_on_c, 10, 40, 92
11, 62000, Note_off_c, 10, 40, 64
11, 62160, Note_on_c, 10, 40, 92
11, 62240, Note_off_c, 10, 40, 64
11, 62400, Note_on_c, 10, 40, 92
11, 62480, Note_off_c, 10, 40, 64
11, 62640, Note_on_c, 10, 40, 92
11, 62720, Note_off_c, 10, 40, 64
11, 62880, Note_on_c, 10, 40, 92
11, 62960, Note_off_c, 10, 40, 64
11, 63120, Note_on_c, 10, 40, 92
11, 63200, Note_off_c, 10, 40, 64
11, 63360, Note_on_c, 10, 33, 92
11, 63440, Note_off_c, 10, 33, 64
11, 63600, Note_on_c, 10, 33, 90
11, 63680, Note_off_c, 10, 33, 64
11, 63840, Note_on_c, 10, 33, 88
11, 63920, Note_off_c, 10, 33, 64
11, 64080, Note_on_c, 10, 33, 86
11, 64160, Note_off_c, 10, 33, 64
11, 64320, Note_on_c, 10, 33, 84
11, 64400, Note_off_c, 10, 33, 64
11, 64560, Note_on_c, 10, 33, 81
11, 64640, Note_off_c, 10, 33, 64
11, 64800, Note_on_c, 10, 33, 78
11, 64880, Note_off_c, 10, 33, 64
11, 65040, Note_on_c, 10, 33, 75
11, 65120, Note_off_c, 10, 33, 64
11, 65280, Note_on_c, 10, 33, 75
11, 65360, Note_off_c, 10, 33, 64
11, 65520, Note_on_c, 10, 33, 74
11, 65600, Note_off_c, 10, 33, 64
11, 65760, Note_on_c, 10, 33, 72
11, 65840, Note_off_c, 10, 33, 64
11, 66000, Note_on_c, 10, 33, 70
11, 66080, Note_off_c, 10, 33, 64
11, 66240, Note_on_c, 10, 33, 68
11, 66320, Note_off_c, 10, 33, 64
11, 66480, Note_on_c, 10, 33, 66
11, 66560, Note_off_c, 10, 33, 64
11, 66720, Note_on_c, 10, 33, 64
11, 66800, Note_off_c, 10, 33, 64
11, 66960, Note_on_c, 10, 33, 62
11, 67040, Note_off_c, 10, 33, 64
11, 67200, Note_on_c, 10, 33, 60
11, 67280, Note_off_c, 10, 33, 64
11, 67440, Note_on_c, 10, 33, 60
11, 67520, Note_off_c, 10, 33, 64
11, 67680, Note_on_c, 10, 33, 55
11, 67760, Note_off_c, 10, 33, 64
11, 67920, Note_on_c, 10, 33, 50
11, 68000, Note_off_c, 10, 33, 64
11, 68160, Note_on_c, 10, 33, 45
11, 68560, Note_off_c, 10, 33, 64
11, 69120, Note_on_c, 10, 38, 75
11, 69200, Note_off_c, 10, 38, 64
11, 69360, Note_on_c, 10, 38, 75
11, 69440, Note_off_c, 10, 38, 64
11, 69600, Note_on_c, 10, 38, 75
11, 69680, Note_off_c, 10, 38, 64
11, 69840, Note_on_c, 10, 38, 75
11, 69920, Note_off_c, 10, 38, 64
11, 70080, Note_on_c, 10, 38, 75
11, 70160, Note_off_c, 10, 38, 64
11, 70320, Note_on_c, 10, 38, 75
11, 70400, Note_off_c, 10, 38, 64
11, 70560, Note_on_c, 10, 38, 75
11, 70640, Note_off_c, 10, 38, 64
11, 70800, Note_on_c, 10, 38, 75
11, 70880, Note_off_c, 10, 38, 64
11, 71040, Note_on_c, 10, 38, 75
11, 71120, Note_off_c, 10, 38, 64
11, 71280, Note_on_c, 10, 38, 75
11, 71360, Note_off_c, 10, 38, 64
11, 71520, Note_on_c, 10, 38, 75
11, 71600, Note_off_c, 10, 38, 64
11, 71760, Note_on_c, 10, 38, 75
11, 71840, Note_off_c, 10, 38, 64
11, 72000, Note_on_c, 10, 38, 75
11, 72080, Note_off_c, 10, 38, 64
11, 72240, Note_on_c, 10, 38, 75
11, 72320, Note_off_c, 10, 38, 64
11, 72480, Note_on_c, 10, 38, 75
11, 72560, Note_off_c, 10, 38, 64
11, 72720, Note_on_c, 10, 38, 75
11, 72800, Note_off_c, 10, 38, 64
11, 72960, Note_on_c, 10, 38, 75
11, 73040, Note_off_c, 10, 38, 64
11, 73200, Note_on_c, 10, 38, 75
11, 73280, Note_off_c, 10, 38, 64
11, 73440, Note_on_c, 10, 38, 75
11, 73520, Note_off_c, 10, 38, 64
11, 73680, Note_on_c, 10, 38, 75
11, 73760, Note_off_c, 10, 38, 64
11, 73920, Note_on_c, 10, 38, 75
11, 74000, Note_off_c, 10, 38, 64
11, 74160, Note_on_c, 10, 38, 75
11, 74240, Note_off_c, 10, 38, 64
11, 74400, Note_on_c, 10, 38, 75
11, 74480, Note_off_c, 10, 38, 64
11, 74640, Note_on_c, 10, 38, 75
11, 74720, Note_off_c, 10, 38, 64
11, 74880, Note_on_c, 10, 38, 75
11, 74960, Note_off_c, 10, 38, 64
11, 75120, Note_on_c, 10, 38, 75
11, 75200, Note_off_c, 10, 38, 64
11, 75360, Note_on_c, 10, 38, 75
11, 75440, Note_off_c, 10, 38, 64
11, 75600, Note_on_c, 10, 38, 75
11, 75680, Note_off_c, 10, 38, 64
11, 75840, Note_on_c, 10, 38, 75
11, 75920, Note_off_c, 10, 38, 64
11, 76080, Note_on_c, 10, 38, 75
11, 76160, Note_off_c, 10, 38, 64
11, 76320, Note_on_c, 10, 38, 75
11, 76400, Note_off_c, 10, 38, 64
11, 76560, Note_on_c, 10, 38, 75
11, 76640, Note_off_c, 10, 38, 64
11, 76800, Note_on_c, 10, 33, 75
11, 76880, Note_off_c, 10, 33, 64
11, 77040, Note_on_c, 10, 33, 75
11, 77120, Note_off_c, 10, 33, 64
11, 77280, Note_on_c, 10, 33, 75
11, 77360, Note_off_c, 10, 33, 64
11, 77520, Note_on_c, 10, 33, 75
11, 77600, Note_off_c, 10, 33, 64
11, 77760, Note_on_c, 10, 33, 75
11, 77840, Note_off_c, 10, 33, 64
11, 78000, Note_on_c, 10, 33, 75
11, 78080, Note_off_c, 10, 33, 64
11, 78240, Note_on_c, 10, 33, 75
11, 78320, Note_off_c, 10, 33, 64
11, 78480, Note_on_c, 10, 33, 75
11, 78560, Note_off_c, 10, 33, 64
11, 78720, Note_on_c, 10, 38, 75
11, 78800, Note_off_c, 10, 38, 64
11, 78960, Note_on_c, 10, 38, 75
11, 79040, Note_off_c, 10, 38, 64
11, 79200, Note_on_c, 10, 38, 75
11, 79280, Note_off_c, 10, 38, 64
11, 79440, Note_on_c, 10, 38, 75
11, 79520, Note_off_c, 10, 38, 64
11, 79680, Note_on_c, 10, 38, 75
11, 79760, Note_off_c, 10, 38, 64
11, 79920, Note_on_c, 10, 38, 75
11, 80000, Note_off_c, 10, 38, 64
11, 80160, Note_on_c, 10, 40, 75
11, 80240, Note_off_c, 10, 40, 64
11, 80400, Note_on_c, 10, 40, 75
11, 80480, Note_off_c, 10, 40, 64
11, 80640, Note_on_c, 10, 42, 75
11, 80720, Note_off_c, 10, 42, 64
11, 80880, Note_on_c, 10, 42, 75
11, 80960, Note_off_c, 10, 42, 64
11, 81120, Note_on_c, 10, 42, 75
11, 81200, Note_off_c, 10, 42, 64
11, 81360, Note_on_c, 10, 42, 75
11, 81440, Note_off_c, 10, 42, 64
11, 81600, Note_on_c, 10, 42, 75
11, 81680, Note_off_c, 10, 42, 64
11, 81840, Note_on_c, 10, 42, 75
11, 81920, Note_off_c, 10, 42, 64
11, 82080, Note_on_c, 10, 42, 75
11, 82160, Note_off_c, 10, 42, 64
11, 82320, Note_on_c, 10, 42, 75
11, 82400, Note_off_c, 10, 42, 64
11, 82560, Note_on_c, 10, 43, 75
11, 82640, Note_off_c, 10, 43, 64
11, 82800, Note_on_c, 10, 43, 75
11, 82880, Note_off_c, 10, 43, 64
11, 83040, Note_on_c, 10, 43, 75
11, 83120, Note_off_c, 10, 43, 64
11, 83280, Note_on_c, 10, 43, 75
11, 83360, Note_off_c, 10, 43, 64
11, 83520, Note_on_c, 10, 43, 75
11, 83600, Note_off_c, 10, 43, 64
11, 83760, Note_on_c, 10, 43, 75
11, 83840, Note_off_c, 10, 43, 64
11, 84000, Note_on_c, 10, 43, 75
11, 84080, Note_off_c, 10, 43, 64
11, 84240, Note_on_c, 10, 43, 75
11, 84320, Note_off_c, 10, 43, 64
11, 84480, Note_on_c, 10, 45, 75
11, 84560, Note_off_c, 10, 45, 64
11, 84720, Note_on_c, 10, 45, 75
11, 84800, Note_off_c, 10, 45, 64
11, 84960, Note_on_c, 10, 45, 75
11, 85040, Note_off_c, 10, 45, 64
11, 85200, Note_on_c, 10, 45, 75
11, 85280, Note_off_c, 10, 45, 64
11, 85440, Note_on_c, 10, 45, 75
11, 85520, Note_off_c, 10, 45, 64
11, 85680, Note_on_c, 10, 45, 75
11, 85760, Note_off_c, 10, 45, 64
11, 85920, Note_on_c, 10, 45, 75
11, 86000, Note_off_c, 10, 45, 64
11, 86160, Note_on_c, 10, 45, 75
11, 86240, Note_off_c, 10, 45, 64
11, 86400, Note_on_c, 10, 33, 75
11, 86480, Note_off_c, 10, 33, 64
11, 86640, Note_on_c, 10, 33, 75
11, 86720, Note_off_c, 10, 33, 64
11, 86880, Note_on_c, 10, 33, 75
11, 86960, Note_off_c, 10, 33, 64
11, 87120, Note_on_c, 10, 33, 75
11, 87200, Note_off_c, 10, 33, 64
11, 87360, Note_on_c, 10, 33, 75
11, 87440, Note_off_c, 10, 33, 64
11, 87600, Note_on_c, 10, 33, 75
11, 87680, Note_off_c, 10, 33, 64
11, 87840, Note_on_c, 10, 33, 75
11, 87920, Note_off_c, 10, 33, 64
11, 88080, Note_on_c, 10, 33, 75
11, 88160, Note_off_c, 10, 33, 64
11, 88320, Note_on_c, 10, 38, 75
11, 88720, Note_off_c, 10, 38, 64
11, 89040, Note_on_c, 10, 33, 75
11, 89275, Note_off_c, 10, 33, 64
11, 89280, Note_on_c, 10, 38, 75
11, 89680, Note_off_c, 10, 38, 64
11, 90000, Note_on_c, 10, 45, 75
11, 90235, Note_off_c, 10, 45, 64
11, 90240, Note_on_c, 10, 38, 75
11, 90640, Note_off_c, 10, 38, 64
11, 90960, Note_on_c, 10, 33, 75
11, 91195, Note_off_c, 10, 33, 64
11, 91200, Note_on_c, 10, 38, 75
11, 91600, Note_off_c, 10, 38, 64
11, 91920, Note_on_c, 10, 45, 75
11, 92155, Note_off_c, 10, 45, 64
11, 92160, Note_on_c, 10, 38, 75
11, 92240, Note_off_c, 10, 38, 64
11, 92400, Note_on_c, 10, 38, 75
11, 92480, Note_off_c, 10, 38, 64
11, 92640, Note_on_c, 10, 38, 75
11, 92720, Note_off_c, 10, 38, 64
11, 92880, Note_on_c, 10, 38, 75
11, 92960, Note_off_c, 10, 38, 64
11, 93120, Note_on_c, 10, 38, 75
11, 93200, Note_off_c, 10, 38, 64
11, 93360, Note_on_c, 10, 38, 75
11, 93440, Note_off_c, 10, 38, 64
11, 93600, Note_on_c, 10, 38, 75
11, 93680, Note_off_c, 10, 38, 64
11, 93840, Note_on_c, 10, 38, 75
11, 93920, Note_off_c, 10, 38, 64
11, 94080, Note_on_c, 10, 38, 75
11, 94160, Note_off_c, 10, 38, 64
11, 94320, Note_on_c, 10, 38, 75
11, 94400, Note_off_c, 10, 38, 64
11, 94560, Note_on_c, 10, 38, 75
11, 94640, Note_off_c, 10, 38, 64
11, 94800, Note_on_c, 10, 38, 75
11, 94880, Note_off_c, 10, 38, 64
11, 95040, Note_on_c, 10, 38, 75
11, 95120, Note_off_c, 10, 38, 64
11, 95280, Note_on_c, 10, 38, 75
11, 95520, Note_off_c, 10, 38, 64
11, 95520, Note_on_c, 10, 38, 75
11, 95600, Note_off_c, 10, 38, 64
11, 95760, Note_on_c, 10, 38, 75
11, 95840, Note_off_c, 10, 38, 64
11, 96000, Note_on_c, 10, 40, 75
11, 96080, Note_off_c, 10, 40, 64
11, 96240, Note_on_c, 10, 40, 75
11, 96320, Note_off_c, 10, 40, 64
11, 96480, Note_on_c, 10, 40, 75
11, 96560, Note_off_c, 10, 40, 64
11, 96720, Note_on_c, 10, 40, 75
11, 96800, Note_off_c, 10, 40, 64
11, 96960, Note_on_c, 10, 40, 75
11, 97040, Note_off_c, 10, 40, 64
11, 97200, Note_on_c, 10, 40, 75
11, 97280, Note_off_c, 10, 40, 64
11, 97440, Note_on_c, 10, 40, 75
11, 97520, Note_off_c, 10, 40, 64
11, 97680, Note_on_c, 10, 40, 75
11, 97760, Note_off_c, 10, 40, 64
11, 97920, Note_on_c, 10, 40, 75
11, 98000, Note_off_c, 10, 40, 64
11, 98160, Note_on_c, 10, 40, 74
11, 98240, Note_off_c, 10, 40, 64
11, 98400, Note_on_c, 10, 40, 72
11, 98480, Note_off_c, 10, 40, 64
11, 98640, Note_on_c, 10, 40, 70
11, 98720, Note_off_c, 10, 40, 64
11, 98880, Note_on_c, 10, 40, 68
11, 98960, Note_off_c, 10, 40, 64
11, 99120, Note_on_c, 10, 40, 66
11, 99360, Note_off_c, 10, 40, 64
11, 99360, Note_on_c, 10, 40, 64
11, 99440, Note_off_c, 10, 40, 64
11, 99600, Note_on_c, 10, 44, 62
11, 99680, Note_off_c, 10, 44, 64
11, 99840, Note_on_c, 10, 45, 60
11, 99920, Note_off_c, 10, 45, 64
11, 100080, Note_on_c, 10, 45, 60
11, 100160, Note_off_c, 10, 45, 64
11, 100320, Note_on_c, 10, 45, 60
11, 100400, Note_off_c, 10, 45, 64
11, 100560, Note_on_c, 10, 45, 60
11, 100640, Note_off_c, 10, 45, 64
11, 100800, Note_on_c, 10, 49, 60
11, 100880, Note_off_c, 10, 49, 64
11, 101040, Note_on_c, 10, 49, 60
11, 101120, Note_off_c, 10, 49, 64
11, 101280, Note_on_c, 10, 49, 60
11, 101360, Note_off_c, 10, 49, 64
11, 101520, Note_on_c, 10, 49, 60
11, 101600, Note_off_c, 10, 49, 64
11, 101760, Note_on_c, 10, 47, 60
11, 101840, Note_off_c, 10, 47, 64
11, 102000, Note_on_c, 10, 47, 60
11, 102080, Note_off_c, 10, 47, 64
11, 102240, Note_on_c, 10, 47, 60
11, 102320, Note_off_c, 10, 47, 64
11, 102480, Note_on_c, 10, 47, 60
11, 102560, Note_off_c, 10, 47, 64
11, 102720, Note_on_c, 10, 44, 60
11, 102800, Note_off_c, 10, 44, 64
11, 102960, Note_on_c, 10, 44, 60
11, 103040, Note_off_c, 10, 44, 64
11, 103200, Note_on_c, 10, 44, 60
11, 103280, Note_off_c, 10, 44, 64
11, 103440, Note_on_c, 10, 44, 60
11, 103520, Note_off_c, 10, 44, 64
11, 103680, Note_on_c, 10, 45, 60
11, 103760, Note_off_c, 10, 45, 64
11, 103920, Note_on_c, 10, 45, 60
11, 104000, Note_off_c, 10, 45, 64
11, 104160, Note_on_c, 10, 45, 60
11, 104240, Note_off_c, 10, 45, 64
11, 104400, Note_on_c, 10, 45, 60
11, 104480, Note_off_c, 10, 45, 64
11, 104640, Note_on_c, 10, 49, 60
11, 104720, Note_off_c, 10, 49, 64
11, 104880, Note_on_c, 10, 49, 60
11, 104960, Note_off_c, 10, 49, 64
11, 105120, Note_on_c, 10, 49, 60
11, 105200, Note_off_c, 10, 49, 64
11, 105360, Note_on_c, 10, 49, 60
11, 105440, Note_off_c, 10, 49, 64
11, 105600, Note_on_c, 10, 47, 60
11, 105680, Note_off_c, 10, 47, 64
11, 105840, Note_on_c, 10, 47, 60
11, 105920, Note_off_c, 10, 47, 64
11, 106080, Note_on_c, 10, 47, 60
11, 106160, Note_off_c, 10, 47, 64
11, 106320, Note_on_c, 10, 47, 60
11, 106400, Note_off_c, 10, 47, 64
11, 106560, Note_on_c, 10, 40, 60
11, 106640, Note_off_c, 10, 40, 64
11, 106800, Note_on_c, 10, 40, 60
11, 106880, Note_off_c, 10, 40, 64
11, 107040, Note_on_c, 10, 40, 60
11, 107120, Note_off_c, 10, 40, 64
11, 107280, Note_on_c, 10, 40, 60
11, 107360, Note_off_c, 10, 40, 64
11, 107520, Note_on_c, 10, 33, 60
11, 107920, Note_off_c, 10, 33, 64
11, 110640, Note_on_c, 10, 45, 75
11, 110720, Note_off_c, 10, 45, 64
11, 110880, Note_on_c, 10, 33, 75
11, 110960, Note_off_c, 10, 33, 64
11, 111120, Note_on_c, 10, 35, 75
11, 111180, Note_off_c, 10, 35, 64
11, 111180, Note_on_c, 10, 37, 75
11, 111240, Note_off_c, 10, 37, 64
11, 111240, Note_on_c, 10, 35, 75
11, 111300, Note_off_c, 10, 35, 64
11, 111300, Note_on_c, 10, 37, 75
11, 111360, Note_off_c, 10, 37, 64
11, 111360, Note_on_c, 10, 37, 75
11, 111440, Note_off_c, 10, 37, 64
11, 111600, Note_on_c, 10, 37, 75
11, 111680, Note_off_c, 10, 37, 64
11, 111840, Note_on_c, 10, 37, 75
11, 111920, Note_off_c, 10, 37, 64
11, 112080, Note_on_c, 10, 37, 75
11, 112160, Note_off_c, 10, 37, 64
11, 112320, Note_on_c, 10, 37, 75
11, 112400, Note_off_c, 10, 37, 64
11, 112560, Note_on_c, 10, 37, 75
11, 112640, Note_off_c, 10, 37, 64
11, 112800, Note_on_c, 10, 37, 75
11, 112880, Note_off_c, 10, 37, 64
11, 113040, Note_on_c, 10, 37, 75
11, 113120, Note_off_c, 10, 37, 64
11, 113280, Note_on_c, 10, 38, 75
11, 113360, Note_off_c, 10, 38, 64
11, 113520, Note_on_c, 10, 38, 75
11, 113600, Note_off_c, 10, 38, 64
11, 113760, Note_on_c, 10, 38, 75
11, 113840, Note_off_c, 10, 38, 64
11, 114000, Note_on_c, 10, 38, 75
11, 114080, Note_off_c, 10, 38, 64
11, 114240, Note_on_c, 10, 38, 75
11, 114320, Note_off_c, 10, 38, 64
11, 114480, Note_on_c, 10, 38, 75
11, 114560, Note_off_c, 10, 38, 64
11, 114720, Note_on_c, 10, 38, 75
11, 114800, Note_off_c, 10, 38, 64
11, 114960, Note_on_c, 10, 38, 75
11, 115040, Note_off_c, 10, 38, 64
11, 115200, Note_on_c, 10, 40, 75
11, 115280, Note_off_c, 10, 40, 64
11, 115440, Note_on_c, 10, 40, 75
11, 115520, Note_off_c, 10, 40, 64
11, 115680, Note_on_c, 10, 40, 75
11, 115760, Note_off_c, 10, 40, 64
11, 115920, Note_on_c, 10, 40, 75
11, 116000, Note_off_c, 10, 40, 64
11, 116160, Note_on_c, 10, 40, 75
11, 116240, Note_off_c, 10, 40, 64
11, 116400, Note_on_c, 10, 40, 75
11, 116480, Note_off_c, 10, 40, 64
11, 116640, Note_on_c, 10, 40, 75
11, 116720, Note_off_c, 10, 40, 64
11, 116880, Note_on_c, 10, 40, 75
11, 116960, Note_off_c, 10, 40, 64
11, 117120, Note_on_c, 10, 38, 75
11, 117200, Note_off_c, 10, 38, 64
11, 117360, Note_on_c, 10, 38, 72
11, 117440, Note_off_c, 10, 38, 64
11, 117600, Note_on_c, 10, 38, 69
11, 117680, Note_off_c, 10, 38, 64
11, 117840, Note_on_c, 10, 38, 65
11, 117920, Note_off_c, 10, 38, 64
11, 118080, Note_on_c, 10, 38, 61
11, 118160, Note_off_c, 10, 38, 64
11, 118320, Note_on_c, 10, 38, 57
11, 118400, Note_off_c, 10, 38, 64
11, 118560, Note_on_c, 10, 38, 53
11, 118640, Note_off_c, 10, 38, 64
11, 118800, Note_on_c, 10, 38, 49
11, 118880, Note_off_c, 10, 38, 64
11, 119040, Note_on_c, 10, 37, 45
11, 119280, Note_off_c, 10, 37, 64
11, 119280, Note_on_c, 10, 37, 46
11, 119360, Note_off_c, 10, 37, 64
11, 119520, Note_on_c, 10, 37, 48
11, 119600, Note_off_c, 10, 37, 64
11, 119760, Note_on_c, 10, 37, 50
11, 119840, Note_off_c, 10, 37, 64
11, 120000, Note_on_c, 10, 37, 52
11, 120400, Note_off_c, 10, 37, 64
11, 120960, Note_on_c, 10, 38, 60
11, 121200, Note_off_c, 10, 38, 64
11, 121200, Note_on_c, 10, 38, 60
11, 121280, Note_off_c, 10, 38, 64
11, 121440, Note_on_c, 10, 38, 62
11, 121520, Note_off_c, 10, 38, 64
11, 121680, Note_on_c, 10, 38, 64
11, 121760, Note_off_c, 10, 38, 64
11, 121920, Note_on_c, 10, 38, 66
11, 122320, Note_off_c, 10, 38, 64
11, 122880, Note_on_c, 10, 40, 75
11, 123120, Note_off_c, 10, 40, 64
11, 123120, Note_on_c, 10, 40, 75
11, 123200, Note_off_c, 10, 40, 64
11, 123360, Note_on_c, 10, 40, 77
11, 123440, Note_off_c, 10, 40, 64
11, 123600, Note_on_c, 10, 40, 79
11, 123680, Note_off_c, 10, 40, 64
11, 123840, Note_on_c, 10, 40, 81
11, 124240, Note_off_c, 10, 40, 64
11, 124800, Note_on_c, 10, 42, 92
11, 125200, Note_off_c, 10, 42, 64
11, 127200, Note_on_c, 10, 40, 92
11, 127680, Note_off_c, 10, 40, 64
11, 127680, Note_on_c, 10, 38, 92
11, 128160, Note_off_c, 10, 38, 64
11, 128160, Note_on_c, 10, 37, 92
11, 128640, Note_off_c, 10, 37, 64
11, 128640, Note_on_c, 10, 38, 92
11, 128720, Note_off_c, 10, 38, 64
11, 128880, Note_on_c, 10, 38, 92
11, 128960, Note_off_c, 10, 38, 64
11, 129120, Note_on_c, 10, 38, 92
11, 129200, Note_off_c, 10, 38, 64
11, 129360, Note_on_c, 10, 38, 92
11, 129440, Note_off_c, 10, 38, 64
11, 129600, Note_on_c, 10, 38, 92
11, 129680, Note_off_c, 10, 38, 64
11, 129840, Note_on_c, 10, 38, 92
11, 129920, Note_off_c, 10, 38, 64
11, 130080, Note_on_c, 10, 38, 92
11, 130160, Note_off_c, 10, 38, 64
11, 130320, Note_on_c, 10, 38, 92
11, 130400, Note_off_c, 10, 38, 64
11, 130560, Note_on_c, 10, 40, 92
11, 130640, Note_off_c, 10, 40, 64
11, 130800, Note_on_c, 10, 40, 92
11, 130880, Note_off_c, 10, 40, 64
11, 131040, Note_on_c, 10, 40, 92
11, 131120, Note_off_c, 10, 40, 64
11, 131280, Note_on_c, 10, 40, 92
11, 131360, Note_off_c, 10, 40, 64
11, 131520, Note_on_c, 10, 40, 92
11, 131600, Note_off_c, 10, 40, 64
11, 131760, Note_on_c, 10, 40, 92
11, 131840, Note_off_c, 10, 40, 64
11, 132000, Note_on_c, 10, 40, 92
11, 132080, Note_off_c, 10, 40, 64
11, 132240, Note_on_c, 10, 40, 92
11, 132320, Note_off_c, 10, 40, 64
11, 132480, Note_on_c, 10, 33, 92
11, 132560, Note_off_c, 10, 33, 64
11, 132720, Note_on_c, 10, 33, 90
11, 132800, Note_off_c, 10, 33, 64
11, 132960, Note_on_c, 10, 33, 88
11, 133040, Note_off_c, 10, 33, 64
11, 133200, Note_on_c, 10, 33, 86
11, 133280, Note_off_c, 10, 33, 64
11, 133440, Note_on_c, 10, 33, 84
11, 133520, Note_off_c, 10, 33, 64
11, 133680, Note_on_c, 10, 33, 81
11, 133760, Note_off_c, 10, 33, 64
11, 133920, Note_on_c, 10, 33, 78
11, 134000, Note_off_c, 10, 33, 64
11, 134160, Note_on_c, 10, 33, 75
11, 134240, Note_off_c, 10, 33, 64
11, 134400, Note_on_c, 10, 33, 75
11, 134480, Note_off_c, 10, 33, 64
11, 134640, Note_on_c, 10, 33, 74
11, 134720, Note_off_c, 10, 33, 64
11, 134880, Note_on_c, 10, 33, 72
11, 134960, Note_off_c, 10, 33, 64
11, 135120, Note_on_c, 10, 33, 70
11, 135200, Note_off_c, 10, 33, 64
11, 135360, Note_on_c, 10, 33, 68
11, 135440, Note_off_c, 10, 33, 64
11, 135600, Note_on_c, 10, 33, 66
11, 135680, Note_off_c, 10, 33, 64
11, 135840, Note_on_c, 10, 33, 64
11, 135920, Note_off_c, 10, 33, 64
11, 136080, Note_on_c, 10, 33, 62
11, 136160, Note_off_c, 10, 33, 64
11, 136320, Note_on_c, 10, 33, 60
11, 136400, Note_off_c, 10, 33, 64
11, 136560, Note_on_c, 10, 33, 60
11, 136640, Note_off_c, 10, 33, 64
11, 136800, Note_on_c, 10, 33, 55
11, 136880, Note_off_c, 10, 33, 64
11, 137040, Note_on_c, 10, 33, 50
11, 137120, Note_off_c, 10, 33, 64
11, 137280, Note_on_c, 10, 33, 45
11, 137680, Note_off_c, 10, 33, 64
11, 138240, Note_on_c, 10, 36, 75
11, 138320, Note_off_c, 10, 36, 64
11, 138480, Note_on_c, 10, 36, 75
11, 138560, Note_off_c, 10, 36, 64
11, 138720, Note_on_c, 10, 36, 75
11, 138800, Note_off_c, 10, 36, 64
11, 138960, Note_on_c, 10, 36, 75
11, 139040, Note_off_c, 10, 36, 64
11, 139200, Note_on_c, 10, 36, 75
11, 139280, Note_off_c, 10, 36, 64
11, 139440, Note_on_c, 10, 36, 75
11, 139520, Note_off_c, 10, 36, 64
11, 139680, Note_on_c, 10, 36, 75
11, 139760, Note_off_c, 10, 36, 64
11, 139920, Note_on_c, 10, 36, 75
11, 140000, Note_off_c, 10, 36, 64
11, 140160, Note_on_c, 10, 35, 75
11, 140240, Note_off_c, 10, 35, 64
11, 140400, Note_on_c, 10, 35, 75
11, 140480, Note_off_c, 10, 35, 64
11, 140640, Note_on_c, 10, 35, 75
11, 140720, Note_off_c, 10, 35, 64
11, 140880, Note_on_c, 10, 35, 75
11, 140960, Note_off_c, 10, 35, 64
11, 141120, Note_on_c, 10, 35, 75
11, 141200, Note_off_c, 10, 35, 64
11, 141360, Note_on_c, 10, 35, 75
11, 141440, Note_off_c, 10, 35, 64
11, 141600, Note_on_c, 10, 35, 75
11, 141680, Note_off_c, 10, 35, 64
11, 141840, Note_on_c, 10, 35, 75
11, 141920, Note_off_c, 10, 35, 64
11, 142080, Note_on_c, 10, 35, 75
11, 142160, Note_off_c, 10, 35, 64
11, 142320, Note_on_c, 10, 35, 75
11, 142400, Note_off_c, 10, 35, 64
11, 142560, Note_on_c, 10, 35, 75
11, 142640, Note_off_c, 10, 35, 64
11, 142800, Note_on_c, 10, 35, 75
11, 142880, Note_off_c, 10, 35, 64
11, 143040, Note_on_c, 10, 35, 75
11, 143120, Note_off_c, 10, 35, 64
11, 143280, Note_on_c, 10, 35, 75
11, 143360, Note_off_c, 10, 35, 64
11, 143520, Note_on_c, 10, 35, 75
11, 143600, Note_off_c, 10, 35, 64
11, 143760, Note_on_c, 10, 35, 75
11, 143840, Note_off_c, 10, 35, 64
11, 144000, Note_on_c, 10, 35, 75
11, 144080, Note_off_c, 10, 35, 64
11, 144240, Note_on_c, 10, 35, 75
11, 144320, Note_off_c, 10, 35, 64
11, 144480, Note_on_c, 10, 35, 75
11, 144560, Note_off_c, 10, 35, 64
11, 144720, Note_on_c, 10, 35, 75
11, 144800, Note_off_c, 10, 35, 64
11, 144960, Note_on_c, 10, 35, 75
11, 145040, Note_off_c, 10, 35, 64
11, 145200, Note_on_c, 10, 35, 75
11, 145280, Note_off_c, 10, 35, 64
11, 145440, Note_on_c, 10, 35, 75
11, 145520, Note_off_c, 10, 35, 64
11, 145680, Note_on_c, 10, 35, 75
11, 145760, Note_off_c, 10, 35, 64
11, 145920, Note_on_c, 10, 35, 75
11, 146000, Note_off_c, 10, 35, 64
11, 146160, Note_on_c, 10, 35, 75
11, 146240, Note_off_c, 10, 35, 64
11, 146400, Note_on_c, 10, 35, 75
11, 146480, Note_off_c, 10, 35, 64
11, 146640, Note_on_c, 10, 35, 75
11, 146720, Note_off_c, 10, 35, 64
11, 146880, Note_on_c, 10, 35, 75
11, 146960, Note_off_c, 10, 35, 64
11, 147120, Note_on_c, 10, 35, 75
11, 147200, Note_off_c, 10, 35, 64
11, 147360, Note_on_c, 10, 35, 75
11, 147440, Note_off_c, 10, 35, 64
11, 147600, Note_on_c, 10, 35, 75
11, 147680, Note_off_c, 10, 35, 64
11, 147840, Note_on_c, 10, 40, 75
11, 147920, Note_off_c, 10, 40, 64
11, 148080, Note_on_c, 10, 40, 75
11, 148160, Note_off_c, 10, 40, 64
11, 148320, Note_on_c, 10, 42, 75
11, 148400, Note_off_c, 10, 42, 64
11, 148560, Note_on_c, 10, 42, 75
11, 148640, Note_off_c, 10, 42, 64
11, 148800, Note_on_c, 10, 43, 75
11, 148880, Note_off_c, 10, 43, 64
11, 149040, Note_on_c, 10, 31, 75
11, 149120, Note_off_c, 10, 31, 64
11, 149280, Note_on_c, 10, 31, 75
11, 149360, Note_off_c, 10, 31, 64
11, 149520, Note_on_c, 10, 32, 75
11, 149600, Note_off_c, 10, 32, 64
11, 149760, Note_on_c, 10, 33, 75
11, 149840, Note_off_c, 10, 33, 64
11, 150000, Note_on_c, 10, 33, 75
11, 150080, Note_off_c, 10, 33, 64
11, 150240, Note_on_c, 10, 33, 75
11, 150320, Note_off_c, 10, 33, 64
11, 150480, Note_on_c, 10, 33, 75
11, 150560, Note_off_c, 10, 33, 64
11, 150720, Note_on_c, 10, 33, 75
11, 150800, Note_off_c, 10, 33, 64
11, 150960, Note_on_c, 10, 33, 75
11, 151040, Note_off_c, 10, 33, 64
11, 151200, Note_on_c, 10, 33, 75
11, 151280, Note_off_c, 10, 33, 64
11, 151440, Note_on_c, 10, 33, 75
11, 151520, Note_off_c, 10, 33, 64
11, 151680, Note_on_c, 10, 33, 75
11, 151760, Note_off_c, 10, 33, 64
11, 151920, Note_on_c, 10, 33, 75
11, 152000, Note_off_c, 10, 33, 64
11, 152160, Note_on_c, 10, 33, 75
11, 152240, Note_off_c, 10, 33, 64
11, 152400, Note_on_c, 10, 33, 75
11, 152480, Note_off_c, 10, 33, 64
11, 152640, Note_on_c, 10, 43, 75
11, 152720, Note_off_c, 10, 43, 64
11, 152880, Note_on_c, 10, 43, 75
11, 152960, Note_off_c, 10, 43, 64
11, 153120, Note_on_c, 10, 43, 75
11, 153200, Note_off_c, 10, 43, 64
11, 153360, Note_on_c, 10, 43, 75
11, 153440, Note_off_c, 10, 43, 64
11, 153600, Note_on_c, 10, 42, 75
11, 153680, Note_off_c, 10, 42, 64
11, 153840, Note_on_c, 10, 42, 75
11, 153920, Note_off_c, 10, 42, 64
11, 154080, Note_on_c, 10, 42, 75
11, 154160, Note_off_c, 10, 42, 64
11, 154320, Note_on_c, 10, 42, 75
11, 154400, Note_off_c, 10, 42, 64
11, 154560, Note_on_c, 10, 42, 75
11, 154640, Note_off_c, 10, 42, 64
11, 154800, Note_on_c, 10, 42, 75
11, 154880, Note_off_c, 10, 42, 64
11, 155040, Note_on_c, 10, 42, 75
11, 155120, Note_off_c, 10, 42, 64
11, 155280, Note_on_c, 10, 42, 75
11, 155360, Note_off_c, 10, 42, 64
11, 155520, Note_on_c, 10, 35, 75
11, 155600, Note_off_c, 10, 35, 64
11, 155760, Note_on_c, 10, 35, 75
11, 155840, Note_off_c, 10, 35, 64
11, 156000, Note_on_c, 10, 35, 75
11, 156080, Note_off_c, 10, 35, 64
11, 156240, Note_on_c, 10, 35, 75
11, 156320, Note_off_c, 10, 35, 64
11, 156480, Note_on_c, 10, 35, 75
11, 156560, Note_off_c, 10, 35, 64
11, 156720, Note_on_c, 10, 35, 75
11, 156800, Note_off_c, 10, 35, 64
11, 156960, Note_on_c, 10, 35, 75
11, 157040, Note_off_c, 10, 35, 64
11, 157200, Note_on_c, 10, 35, 75
11, 157280, Note_off_c, 10, 35, 64
11, 157440, Note_on_c, 10, 42, 75
11, 157520, Note_off_c, 10, 42, 64
11, 157680, Note_on_c, 10, 42, 75
11, 157760, Note_off_c, 10, 42, 64
11, 157920, Note_on_c, 10, 42, 75
11, 158000, Note_off_c, 10, 42, 64
11, 158160, Note_on_c, 10, 42, 75
11, 158240, Note_off_c, 10, 42, 64
11, 158400, Note_on_c, 10, 42, 75
11, 158480, Note_off_c, 10, 42, 64
11, 158640, Note_on_c, 10, 42, 75
11, 158720, Note_off_c, 10, 42, 64
11, 158880, Note_on_c, 10, 42, 75
11, 158960, Note_off_c, 10, 42, 64
11, 159120, Note_on_c, 10, 42, 75
11, 159200, Note_off_c, 10, 42, 64
11, 159360, Note_on_c, 10, 47, 75
11, 159440, Note_off_c, 10, 47, 64
11, 159600, Note_on_c, 10, 47, 75
11, 159680, Note_off_c, 10, 47, 64
11, 159840, Note_on_c, 10, 47, 75
11, 159920, Note_off_c, 10, 47, 64
11, 160080, Note_on_c, 10, 47, 75
11, 160160, Note_off_c, 10, 47, 64
11, 160320, Note_on_c, 10, 44, 75
11, 160400, Note_off_c, 10, 44, 64
11, 160560, Note_on_c, 10, 44, 75
11, 160640, Note_off_c, 10, 44, 64
11, 160800, Note_on_c, 10, 44, 75
11, 160880, Note_off_c, 10, 44, 64
11, 161040, Note_on_c, 10, 44, 75
11, 161120, Note_off_c, 10, 44, 64
11, 161280, Note_on_c, 10, 45, 75
11, 161360, Note_off_c, 10, 45, 64
11, 161520, Note_on_c, 10, 45, 75
11, 161600, Note_off_c, 10, 45, 64
11, 161760, Note_on_c, 10, 45, 75
11, 161840, Note_off_c, 10, 45, 64
11, 162000, Note_on_c, 10, 45, 75
11, 162080, Note_off_c, 10, 45, 64
11, 162240, Note_on_c, 10, 42, 75
11, 162320, Note_off_c, 10, 42, 64
11, 162480, Note_on_c, 10, 42, 75
11, 162560, Note_off_c, 10, 42, 64
11, 162720, Note_on_c, 10, 42, 75
11, 162800, Note_off_c, 10, 42, 64
11, 162960, Note_on_c, 10, 42, 75
11, 163040, Note_off_c, 10, 42, 64
11, 163200, Note_on_c, 10, 43, 75
11, 163280, Note_off_c, 10, 43, 64
11, 163440, Note_on_c, 10, 43, 77
11, 163520, Note_off_c, 10, 43, 64
11, 163680, Note_on_c, 10, 43, 79
11, 163760, Note_off_c, 10, 43, 64
11, 163920, Note_on_c, 10, 43, 81
11, 164000, Note_off_c, 10, 43, 64
11, 164160, Note_on_c, 10, 43, 83
11, 164240, Note_off_c, 10, 43, 64
11, 164400, Note_on_c, 10, 43, 85
11, 164480, Note_off_c, 10, 43, 64
11, 164640, Note_on_c, 10, 44, 87
11, 164720, Note_off_c, 10, 44, 64
11, 164880, Note_on_c, 10, 44, 89
11, 164960, Note_off_c, 10, 44, 64
11, 165120, Note_on_c, 10, 45, 92
11, 165520, Note_off_c, 10, 45, 64
11, 165660, Note_on_c, 10, 33, 92
11, 165895, Note_off_c, 10, 33, 64
11, 166020, Note_on_c, 10, 33, 92
11, 166135, Note_off_c, 10, 33, 64
11, 166140, Note_on_c, 10, 33, 92
11, 166540, Note_off_c, 10, 33, 64
11, 167340, Program_c, 10, 45
11, 167340, Note_on_c, 10, 38, 45
11, 167740, Note_off_c, 10, 38, 64
11, 168300, Note_on_c, 10, 38, 45
11, 168700, Note_off_c, 10, 38, 64
11, 169260, Note_on_c, 10, 43, 45
11, 169660, Note_off_c, 10, 43, 64
11, 170220, Note_on_c, 10, 43, 45
11, 170620, Note_off_c, 10, 43, 64
11, 171180, Note_on_c, 10, 45, 45
11, 171580, Note_off_c, 10, 45, 64
11, 172140, Note_on_c, 10, 45, 45
11, 172540, Note_off_c, 10, 45, 64
11, 173100, Note_on_c, 10, 46, 45
11, 173500, Note_off_c, 10, 46, 64
11, 174060, Note_on_c, 10, 46, 45
11, 174460, Note_off_c, 10, 46, 64
11, 175020, Note_on_c, 10, 41, 45
11, 175420, Note_off_c, 10, 41, 64
11, 175980, Note_on_c, 10, 41, 45
11, 176380, Note_off_c, 10, 41, 64
11, 176940, Note_on_c, 10, 43, 45
11, 177340, Note_off_c, 10, 43, 64
11, 177900, Note_on_c, 10, 43, 45
11, 178300, Note_off_c, 10, 43, 64
11, 178860, Note_on_c, 10, 43, 45
11, 179260, Note_off_c, 10, 43, 64
11, 179820, Note_on_c, 10, 43, 45
11, 180220, Note_off_c, 10, 43, 64
11, 180300, Note_on_c, 10, 44, 45
11, 180700, Note_off_c, 10, 44, 64
11, 180780, Note_on_c, 10, 45, 45
11, 181180, Note_off_c, 10, 45, 64
11, 181740, Note_on_c, 10, 45, 45
11, 182140, Note_off_c, 10, 45, 64
11, 182700, Note_on_c, 10, 33, 45
11, 183100, Note_off_c, 10, 33, 64
11, 183660, Note_on_c, 10, 33, 45
11, 184060, Note_off_c, 10, 33, 64
11, 184620, Note_on_c, 10, 45, 45
11, 185020, Note_off_c, 10, 45, 64
11, 185580, Note_on_c, 10, 45, 45
11, 185980, Note_off_c, 10, 45, 64
11, 186540, Note_on_c, 10, 46, 45
11, 186940, Note_off_c, 10, 46, 64
11, 187500, Note_on_c, 10, 34, 45
11, 187900, Note_off_c, 10, 34, 64
11, 188460, Note_on_c, 10, 33, 45
11, 188860, Note_off_c, 10, 33, 64
11, 190380, Program_c, 10, 48
11, 190620, Note_on_c, 10, 45, 48
11, 190860, Note_off_c, 10, 45, 64
11, 190860, Note_on_c, 10, 47, 51
11, 191100, Note_off_c, 10, 47, 64
11, 191100, Note_on_c, 10, 45, 55
11, 191340, Note_off_c, 10, 45, 64
11, 191340, Note_on_c, 10, 43, 59
11, 191580, Note_off_c, 10, 43, 64
11, 191580, Note_on_c, 10, 42, 63
11, 191820, Note_off_c, 10, 42, 64
11, 191820, Note_on_c, 10, 43, 67
11, 192060, Note_off_c, 10, 43, 64
11, 192060, Note_on_c, 10, 40, 71
11, 192295, Note_off_c, 10, 40, 64
11, 192300, Note_on_c, 10, 38, 75
11, 192380, Note_off_c, 10, 38, 64
11, 192540, Note_on_c, 10, 38, 75
11, 192620, Note_off_c, 10, 38, 64
11, 192780, Note_on_c, 10, 38, 75
11, 192860, Note_off_c, 10, 38, 64
11, 193020, Note_on_c, 10, 38, 75
11, 193100, Note_off_c, 10, 38, 64
11, 193260, Note_on_c, 10, 38, 75
11, 193340, Note_off_c, 10, 38, 64
11, 193500, Note_on_c, 10, 38, 75
11, 193580, Note_off_c, 10, 38, 64
11, 193740, Note_on_c, 10, 38, 75
11, 193820, Note_off_c, 10, 38, 64
11, 193980, Note_on_c, 10, 38, 75
11, 194060, Note_off_c, 10, 38, 64
11, 194220, Note_on_c, 10, 38, 75
11, 194300, Note_off_c, 10, 38, 64
11, 194460, Note_on_c, 10, 38, 75
11, 194540, Note_off_c, 10, 38, 64
11, 194700, Note_on_c, 10, 38, 75
11, 194780, Note_off_c, 10, 38, 64
11, 194940, Note_on_c, 10, 38, 75
11, 195020, Note_off_c, 10, 38, 64
11, 195180, Note_on_c, 10, 38, 75
11, 195260, Note_off_c, 10, 38, 64
11, 195420, Note_on_c, 10, 38, 75
11, 195500, Note_off_c, 10, 38, 64
11, 195660, Note_on_c, 10, 38, 75
11, 195740, Note_off_c, 10, 38, 64
11, 195900, Note_on_c, 10, 38, 75
11, 195980, Note_off_c, 10, 38, 64
11, 196140, Note_on_c, 10, 38, 75
11, 196220, Note_off_c, 10, 38, 64
11, 196380, Note_on_c, 10, 38, 75
11, 196460, Note_off_c, 10, 38, 64
11, 196620, Note_on_c, 10, 38, 75
11, 196700, Note_off_c, 10, 38, 64
11, 196860, Note_on_c, 10, 38, 75
11, 196940, Note_off_c, 10, 38, 64
11, 197100, Note_on_c, 10, 38, 75
11, 197180, Note_off_c, 10, 38, 64
11, 197340, Note_on_c, 10, 38, 75
11, 197420, Note_off_c, 10, 38, 64
11, 197580, Note_on_c, 10, 38, 75
11, 197660, Note_off_c, 10, 38, 64
11, 197820, Note_on_c, 10, 38, 75
11, 197900, Note_off_c, 10, 38, 64
11, 198060, Note_on_c, 10, 38, 75
11, 198140, Note_off_c, 10, 38, 64
11, 198300, Note_on_c, 10, 38, 75
11, 198380, Note_off_c, 10, 38, 64
11, 198540, Note_on_c, 10, 38, 75
11, 198620, Note_off_c, 10, 38, 64
11, 198780, Note_on_c, 10, 38, 75
11, 198860, Note_off_c, 10, 38, 64
11, 199020, Note_on_c, 10, 38, 75
11, 199100, Note_off_c, 10, 38, 64
11, 199260, Note_on_c, 10, 38, 75
11, 199340, Note_off_c, 10, 38, 64
11, 199500, Note_on_c, 10, 38, 75
11, 199580, Note_off_c, 10, 38, 64
11, 199740, Note_on_c, 10, 38, 75
11, 199820, Note_off_c, 10, 38, 64
11, 199980, Note_on_c, 10, 33, 75
11, 200060, Note_off_c, 10, 33, 64
11, 200220, Note_on_c, 10, 33, 75
11, 200300, Note_off_c, 10, 33, 64
11, 200460, Note_on_c, 10, 33, 75
11, 200540, Note_off_c, 10, 33, 64
11, 200700, Note_on_c, 10, 33, 75
11, 200780, Note_off_c, 10, 33, 64
11, 200940, Note_on_c, 10, 33, 75
11, 201020, Note_off_c, 10, 33, 64
11, 201180, Note_on_c, 10, 33, 75
11, 201260, Note_off_c, 10, 33, 64
11, 201420, Note_on_c, 10, 33, 75
11, 201500, Note_off_c, 10, 33, 64
11, 201660, Note_on_c, 10, 33, 75
11, 201740, Note_off_c, 10, 33, 64
11, 201900, Note_on_c, 10, 38, 75
11, 201980, Note_off_c, 10, 38, 64
11, 202140, Note_on_c, 10, 38, 75
11, 202220, Note_off_c, 10, 38, 64
11, 202380, Note_on_c, 10, 38, 75
11, 202460, Note_off_c, 10, 38, 64
11, 202620, Note_on_c, 10, 38, 75
11, 202700, Note_off_c, 10, 38, 64
11, 202860, Note_on_c, 10, 38, 75
11, 202940, Note_off_c, 10, 38, 64
11, 203100, Note_on_c, 10, 38, 75
11, 203180, Note_off_c, 10, 38, 64
11, 203340, Note_on_c, 10, 40, 75
11, 203420, Note_off_c, 10, 40, 64
11, 203580, Note_on_c, 10, 40, 75
11, 203660, Note_off_c, 10, 40, 64
11, 203820, Note_on_c, 10, 42, 75
11, 203900, Note_off_c, 10, 42, 64
11, 204060, Note_on_c, 10, 42, 75
11, 204140, Note_off_c, 10, 42, 64
11, 204300, Note_on_c, 10, 42, 75
11, 204380, Note_off_c, 10, 42, 64
11, 204540, Note_on_c, 10, 42, 75
11, 204620, Note_off_c, 10, 42, 64
11, 204780, Note_on_c, 10, 42, 75
11, 204860, Note_off_c, 10, 42, 64
11, 205020, Note_on_c, 10, 42, 75
11, 205100, Note_off_c, 10, 42, 64
11, 205260, Note_on_c, 10, 42, 75
11, 205340, Note_off_c, 10, 42, 64
11, 205500, Note_on_c, 10, 42, 75
11, 205580, Note_off_c, 10, 42, 64
11, 205740, Note_on_c, 10, 43, 75
11, 205820, Note_off_c, 10, 43, 64
11, 205980, Note_on_c, 10, 43, 75
11, 206060, Note_off_c, 10, 43, 64
11, 206220, Note_on_c, 10, 43, 75
11, 206300, Note_off_c, 10, 43, 64
11, 206460, Note_on_c, 10, 43, 75
11, 206540, Note_off_c, 10, 43, 64
11, 206700, Note_on_c, 10, 43, 75
11, 206780, Note_off_c, 10, 43, 64
11, 206940, Note_on_c, 10, 43, 75
11, 207020, Note_off_c, 10, 43, 64
11, 207180, Note_on_c, 10, 43, 75
11, 207260, Note_off_c, 10, 43, 64
11, 207420, Note_on_c, 10, 43, 75
11, 207500, Note_off_c, 10, 43, 64
11, 207660, Note_on_c, 10, 45, 75
11, 207740, Note_off_c, 10, 45, 64
11, 207900, Note_on_c, 10, 45, 75
11, 207980, Note_off_c, 10, 45, 64
11, 208140, Note_on_c, 10, 45, 75
11, 208220, Note_off_c, 10, 45, 64
11, 208380, Note_on_c, 10, 45, 75
11, 208460, Note_off_c, 10, 45, 64
11, 208620, Note_on_c, 10, 45, 75
11, 208700, Note_off_c, 10, 45, 64
11, 208860, Note_on_c, 10, 45, 75
11, 208940, Note_off_c, 10, 45, 64
11, 209100, Note_on_c, 10, 45, 75
11, 209180, Note_off_c, 10, 45, 64
11, 209340, Note_on_c, 10, 45, 75
11, 209420, Note_off_c, 10, 45, 64
11, 209580, Note_on_c, 10, 33, 75
11, 209660, Note_off_c, 10, 33, 64
11, 209820, Note_on_c, 10, 33, 75
11, 209900, Note_off_c, 10, 33, 64
11, 210060, Note_on_c, 10, 33, 75
11, 210140, Note_off_c, 10, 33, 64
11, 210300, Note_on_c, 10, 33, 75
11, 210380, Note_off_c, 10, 33, 64
11, 210540, Note_on_c, 10, 33, 75
11, 210620, Note_off_c, 10, 33, 64
11, 210780, Note_on_c, 10, 33, 75
11, 210860, Note_off_c, 10, 33, 64
11, 211020, Note_on_c, 10, 33, 75
11, 211100, Note_off_c, 10, 33, 64
11, 211260, Note_on_c, 10, 33, 75
11, 211340, Note_off_c, 10, 33, 64
11, 211500, Note_on_c, 10, 38, 75
11, 211900, Note_off_c, 10, 38, 64
11, 212220, Note_on_c, 10, 33, 75
11, 212455, Note_off_c, 10, 33, 64
11, 212460, Note_on_c, 10, 38, 75
11, 212860, Note_off_c, 10, 38, 64
11, 213180, Note_on_c, 10, 45, 75
11, 213415, Note_off_c, 10, 45, 64
11, 213420, Note_on_c, 10, 38, 75
11, 213820, Note_off_c, 10, 38, 64
11, 214140, Note_on_c, 10, 33, 75
11, 214375, Note_off_c, 10, 33, 64
11, 214380, Note_on_c, 10, 38, 75
11, 214780, Note_off_c, 10, 38, 64
11, 215100, Note_on_c, 10, 45, 75
11, 215335, Note_off_c, 10, 45, 64
11, 215340, Note_on_c, 10, 38, 75
11, 215420, Note_off_c, 10, 38, 64
11, 215580, Note_on_c, 10, 38, 75
11, 215660, Note_off_c, 10, 38, 64
11, 215820, Note_on_c, 10, 38, 75
11, 215900, Note_off_c, 10, 38, 64
11, 216060, Note_on_c, 10, 38, 75
11, 216140, Note_off_c, 10, 38, 64
11, 216300, Note_on_c, 10, 38, 75
11, 216380, Note_off_c, 10, 38, 64
11, 216540, Note_on_c, 10, 38, 75
11, 216620, Note_off_c, 10, 38, 64
11, 216780, Note_on_c, 10, 38, 75
11, 216860, Note_off_c, 10, 38, 64
11, 217020, Note_on_c, 10, 38, 75
11, 217100, Note_off_c, 10, 38, 64
11, 217260, Note_on_c, 10, 38, 75
11, 217340, Note_off_c, 10, 38, 64
11, 217500, Note_on_c, 10, 38, 75
11, 217580, Note_off_c, 10, 38, 64
11, 217740, Note_on_c, 10, 38, 75
11, 217820, Note_off_c, 10, 38, 64
11, 217980, Note_on_c, 10, 38, 75
11, 218060, Note_off_c, 10, 38, 64
11, 218220, Note_on_c, 10, 38, 75
11, 218300, Note_off_c, 10, 38, 64
11, 218460, Note_on_c, 10, 38, 75
11, 218540, Note_off_c, 10, 38, 64
11, 218700, Note_on_c, 10, 38, 75
11, 218780, Note_off_c, 10, 38, 64
11, 218940, Note_on_c, 10, 38, 75
11, 219020, Note_off_c, 10, 38, 64
11, 219180, Note_on_c, 10, 38, 75
11, 219260, Note_off_c, 10, 38, 64
11, 219420, Note_on_c, 10, 38, 75
11, 219500, Note_off_c, 10, 38, 64
11, 219660, Note_on_c, 10, 38, 75
11, 219740, Note_off_c, 10, 38, 64
11, 219900, Note_on_c, 10, 38, 75
11, 219980, Note_off_c, 10, 38, 64
11, 220140, Note_on_c, 10, 38, 75
11, 220220, Note_off_c, 10, 38, 64
11, 220380, Note_on_c, 10, 38, 75
11, 220460, Note_off_c, 10, 38, 64
11, 220620, Note_on_c, 10, 38, 75
11, 220700, Note_off_c, 10, 38, 64
11, 220860, Note_on_c, 10, 38, 75
11, 220940, Note_off_c, 10, 38, 64
11, 221100, Note_on_c, 10, 38, 75
11, 221180, Note_off_c, 10, 38, 64
11, 221340, Note_on_c, 10, 38, 75
11, 221420, Note_off_c, 10, 38, 64
11, 221580, Note_on_c, 10, 38, 75
11, 221660, Note_off_c, 10, 38, 64
11, 221820, Note_on_c, 10, 38, 75
11, 221900, Note_off_c, 10, 38, 64
11, 222060, Note_on_c, 10, 38, 75
11, 222140, Note_off_c, 10, 38, 64
11, 222300, Note_on_c, 10, 38, 75
11, 222540, Note_off_c, 10, 38, 64
11, 222540, Note_on_c, 10, 38, 75
11, 222620, Note_off_c, 10, 38, 64
11, 222780, Note_on_c, 10, 38, 75
11, 222860, Note_off_c, 10, 38, 64
11, 223020, Note_on_c, 10, 43, 75
11, 223255, Note_off_c, 10, 43, 64
11, 223260, Note_on_c, 10, 43, 75
11, 223495, Note_off_c, 10, 43, 64
11, 223500, Note_on_c, 10, 47, 75
11, 223735, Note_off_c, 10, 47, 64
11, 223740, Note_on_c, 10, 47, 75
11, 223975, Note_off_c, 10, 47, 64
11, 223980, Note_on_c, 10, 45, 75
11, 224215, Note_off_c, 10, 45, 64
11, 224220, Note_on_c, 10, 45, 75
11, 224455, Note_off_c, 10, 45, 64
11, 224460, Note_on_c, 10, 38, 75
11, 224695, Note_off_c, 10, 38, 64
11, 224700, Note_on_c, 10, 38, 75
11, 224935, Note_off_c, 10, 38, 64
11, 224940, Note_on_c, 10, 43, 75
11, 225175, Note_off_c, 10, 43, 64
11, 225180, Note_on_c, 10, 43, 75
11, 225415, Note_off_c, 10, 43, 64
11, 225420, Note_on_c, 10, 45, 75
11, 225655, Note_off_c, 10, 45, 64
11, 225660, Note_on_c, 10, 45, 75
11, 225895, Note_off_c, 10, 45, 64
11, 225900, Note_on_c, 10, 43, 75
11, 226135, Note_off_c, 10, 43, 64
11, 226140, Note_on_c, 10, 43, 75
11, 226375, Note_off_c, 10, 43, 64
11, 226380, Note_on_c, 10, 43, 75
11, 226615, Note_off_c, 10, 43, 64
11, 226620, Note_on_c, 10, 44, 75
11, 226855, Note_off_c, 10, 44, 64
11, 226860, Note_on_c, 10, 45, 75
11, 227095, Note_off_c, 10, 45, 64
11, 227100, Note_on_c, 10, 45, 75
11, 227335, Note_off_c, 10, 45, 64
11, 227340, Note_on_c, 10, 49, 75
11, 227575, Note_off_c, 10, 49, 64
11, 227580, Note_on_c, 10, 49, 75
11, 227815, Note_off_c, 10, 49, 64
11, 227820, Note_on_c, 10, 47, 75
11, 228055, Note_off_c, 10, 47, 64
11, 228060, Note_on_c, 10, 47, 75
11, 228295, Note_off_c, 10, 47, 64
11, 228300, Note_on_c, 10, 40, 75
11, 228535, Note_off_c, 10, 40, 64
11, 228540, Note_on_c, 10, 40, 75
11, 228775, Note_off_c, 10, 40, 64
11, 228780, Note_on_c, 10, 33, 75
11, 229015, Note_off_c, 10, 33, 64
11, 229020, Note_on_c, 10, 33, 75
11, 229255, Note_off_c, 10, 33, 64
11, 229260, Note_on_c, 10, 40, 75
11, 229495, Note_off_c, 10, 40, 64
11, 229500, Note_on_c, 10, 40, 75
11, 229735, Note_off_c, 10, 40, 64
11, 229740, Note_on_c, 10, 37, 75
11, 229975, Note_off_c, 10, 37, 64
11, 229980, Note_on_c, 10, 37, 75
11, 230215, Note_off_c, 10, 37, 64
11, 230220, Note_on_c, 10, 33, 75
11, 230455, Note_off_c, 10, 33, 64
11, 230460, Note_on_c, 10, 33, 75
11, 230695, Note_off_c, 10, 33, 64
11, 230700, Note_on_c, 10, 38, 75
11, 230935, Note_off_c, 10, 38, 64
11, 230940, Note_on_c, 10, 38, 75
11, 231175, Note_off_c, 10, 38, 64
11, 231180, Note_on_c, 10, 42, 75
11, 231415, Note_off_c, 10, 42, 64
11, 231420, Note_on_c, 10, 42, 75
11, 231655, Note_off_c, 10, 42, 64
11, 231660, Note_on_c, 10, 40, 75
11, 231895, Note_off_c, 10, 40, 64
11, 231900, Note_on_c, 10, 40, 75
11, 232135, Note_off_c, 10, 40, 64
11, 232140, Note_on_c, 10, 33, 75
11, 232375, Note_off_c, 10, 33, 64
11, 232380, Note_on_c, 10, 33, 75
11, 232615, Note_off_c, 10, 33, 64
11, 232620, Note_on_c, 10, 38, 75
11, 232855, Note_off_c, 10, 38, 64
11, 232860, Note_on_c, 10, 38, 75
11, 233095, Note_off_c, 10, 38, 64
11, 233100, Note_on_c, 10, 42, 75
11, 233335, Note_off_c, 10, 42, 64
11, 233340, Note_on_c, 10, 42, 75
11, 233575, Note_off_c, 10, 42, 64
11, 233580, Note_on_c, 10, 40, 75
11, 233815, Note_off_c, 10, 40, 64
11, 233820, Note_on_c, 10, 40, 75
11, 234055, Note_off_c, 10, 40, 64
11, 234060, Note_on_c, 10, 33, 75
11, 234295, Note_off_c, 10, 33, 64
11, 234300, Note_on_c, 10, 33, 75
11, 234535, Note_off_c, 10, 33, 64
11, 234540, Note_on_c, 10, 38, 75
11, 234940, Note_off_c, 10, 38, 64
11, 237660, Note_on_c, 10, 38, 92
11, 237740, Note_off_c, 10, 38, 64
11, 237900, Note_on_c, 10, 26, 92
11, 237980, Note_off_c, 10, 26, 64
11, 238140, Note_on_c, 10, 28, 92
11, 238170, Note_off_c, 10, 28, 64
11, 238170, Note_on_c, 10, 30, 92
11, 238200, Note_off_c, 10, 30, 64
11, 238200, Note_on_c, 10, 28, 92
11, 238230, Note_off_c, 10, 28, 64
11, 238230, Note_on_c, 10, 30, 92
11, 238260, Note_off_c, 10, 30, 64
11, 238260, Note_on_c, 10, 28, 92
11, 238290, Note_off_c, 10, 28, 64
11, 238290, Note_on_c, 10, 30, 92
11, 238320, Note_off_c, 10, 30, 64
11, 238320, Note_on_c, 10, 28, 92
11, 238350, Note_off_c, 10, 28, 64
11, 238350, Note_on_c, 10, 30, 92
11, 238380, Note_off_c, 10, 30, 64
11, 238380, Note_on_c, 10, 30, 92
11, 238460, Note_off_c, 10, 30, 64
11, 238620, Note_on_c, 10, 42, 92
11, 238700, Note_off_c, 10, 42, 64
11, 238860, Note_on_c, 10, 42, 92
11, 238940, Note_off_c, 10, 42, 64
11, 239100, Note_on_c, 10, 42, 92
11, 239180, Note_off_c, 10, 42, 64
11, 239340, Note_on_c, 10, 42, 92
11, 239420, Note_off_c, 10, 42, 64
11, 239580, Note_on_c, 10, 42, 92
11, 239660, Note_off_c, 10, 42, 64
11, 239820, Note_on_c, 10, 42, 92
11, 239900, Note_off_c, 10, 42, 64
11, 240060, Note_on_c, 10, 42, 92
11, 240140, Note_off_c, 10, 42, 64
11, 240300, Note_on_c, 10, 43, 92
11, 240380, Note_off_c, 10, 43, 64
11, 240540, Note_on_c, 10, 43, 92
11, 240620, Note_off_c, 10, 43, 64
11, 240780, Note_on_c, 10, 43, 92
11, 240860, Note_off_c, 10, 43, 64
11, 241020, Note_on_c, 10, 43, 92
11, 241100, Note_off_c, 10, 43, 64
11, 241260, Note_on_c, 10, 31, 92
11, 241340, Note_off_c, 10, 31, 64
11, 241500, Note_on_c, 10, 31, 92
11, 241580, Note_off_c, 10, 31, 64
11, 241740, Note_on_c, 10, 31, 92
11, 241820, Note_off_c, 10, 31, 64
11, 241980, Note_on_c, 10, 31, 92
11, 242060, Note_off_c, 10, 31, 64
11, 242220, Note_on_c, 10, 33, 92
11, 242300, Note_off_c, 10, 33, 64
11, 242460, Note_on_c, 10, 33, 89
11, 242540, Note_off_c, 10, 33, 64
11, 242700, Note_on_c, 10, 33, 86
11, 242780, Note_off_c, 10, 33, 64
11, 242940, Note_on_c, 10, 33, 82
11, 243020, Note_off_c, 10, 33, 64
11, 243180, Note_on_c, 10, 33, 78
11, 243260, Note_off_c, 10, 33, 64
11, 243420, Note_on_c, 10, 33, 74
11, 243500, Note_off_c, 10, 33, 64
11, 243660, Note_on_c, 10, 33, 70
11, 243740, Note_off_c, 10, 33, 64
11, 243900, Note_on_c, 10, 33, 66
11, 243980, Note_off_c, 10, 33, 64
11, 244140, Note_on_c, 10, 31, 62
11, 244220, Note_off_c, 10, 31, 64
11, 244380, Note_on_c, 10, 31, 58
11, 244460, Note_off_c, 10, 31, 64
11, 244620, Note_on_c, 10, 31, 54
11, 244700, Note_off_c, 10, 31, 64
11, 244860, Note_on_c, 10, 31, 50
11, 244940, Note_off_c, 10, 31, 64
11, 245100, Note_on_c, 10, 43, 46
11, 245180, Note_off_c, 10, 43, 64
11, 245340, Note_on_c, 10, 43, 42
11, 245420, Note_off_c, 10, 43, 64
11, 245580, Note_on_c, 10, 43, 38
11, 245660, Note_off_c, 10, 43, 64
11, 245820, Note_on_c, 10, 43, 34
11, 245900, Note_off_c, 10, 43, 64
11, 246060, Note_on_c, 10, 42, 30
11, 246300, Note_off_c, 10, 42, 64
11, 246300, Note_on_c, 10, 42, 30
11, 246380, Note_off_c, 10, 42, 64
11, 246540, Note_on_c, 10, 42, 32
11, 246620, Note_off_c, 10, 42, 64
11, 246780, Note_on_c, 10, 42, 34
11, 246860, Note_off_c, 10, 42, 64
11, 247020, Note_on_c, 10, 42, 36
11, 247420, Note_off_c, 10, 42, 64
11, 247980, Note_on_c, 10, 43, 45
11, 248220, Note_off_c, 10, 43, 64
11, 248220, Note_on_c, 10, 43, 45
11, 248300, Note_off_c, 10, 43, 64
11, 248460, Note_on_c, 10, 43, 47
11, 248540, Note_off_c, 10, 43, 64
11, 248700, Note_on_c, 10, 43, 49
11, 248780, Note_off_c, 10, 43, 64
11, 248940, Note_on_c, 10, 43, 51
11, 249340, Note_off_c, 10, 43, 64
11, 249900, Note_on_c, 10, 45, 60
11, 250140, Note_off_c, 10, 45, 64
11, 250140, Note_on_c, 10, 45, 60
11, 250220, Note_off_c, 10, 45, 64
11, 250380, Note_on_c, 10, 45, 62
11, 250460, Note_off_c, 10, 45, 64
11, 250620, Note_on_c, 10, 45, 64
11, 250700, Note_off_c, 10, 45, 64
11, 250860, Note_on_c, 10, 45, 66
11, 251260, Note_off_c, 10, 45, 64
11, 251820, Note_on_c, 10, 47, 75
11, 252220, Note_off_c, 10, 47, 64
11, 254220, Note_on_c, 10, 33, 92
11, 254700, Note_off_c, 10, 33, 64
11, 254700, Note_on_c, 10, 31, 92
11, 255180, Note_off_c, 10, 31, 64
11, 255180, Note_on_c, 10, 30, 92
11, 255660, Note_off_c, 10, 30, 64
11, 255660, Note_on_c, 10, 31, 92
11, 255895, Note_off_c, 10, 31, 64
11, 255900, Note_on_c, 10, 31, 92
11, 256135, Note_off_c, 10, 31, 64
11, 256140, Note_on_c, 10, 31, 92
11, 256375, Note_off_c, 10, 31, 64
11, 256380, Note_on_c, 10, 31, 92
11, 256615, Note_off_c, 10, 31, 64
11, 256620, Note_on_c, 10, 43, 92
11, 256855, Note_off_c, 10, 43, 64
11, 256860, Note_on_c, 10, 43, 92
11, 257095, Note_off_c, 10, 43, 64
11, 257100, Note_on_c, 10, 43, 92
11, 257335, Note_off_c, 10, 43, 64
11, 257340, Note_on_c, 10, 43, 92
11, 257575, Note_off_c, 10, 43, 64
11, 257580, Note_on_c, 10, 45, 92
11, 257815, Note_off_c, 10, 45, 64
11, 257820, Note_on_c, 10, 45, 92
11, 258055, Note_off_c, 10, 45, 64
11, 258060, Note_on_c, 10, 45, 92
11, 258295, Note_off_c, 10, 45, 64
11, 258300, Note_on_c, 10, 45, 92
11, 258535, Note_off_c, 10, 45, 64
11, 258540, Note_on_c, 10, 33, 92
11, 258775, Note_off_c, 10, 33, 64
11, 258780, Note_on_c, 10, 33, 92
11, 259015, Note_off_c, 10, 33, 64
11, 259020, Note_on_c, 10, 33, 92
11, 259255, Note_off_c, 10, 33, 64
11, 259260, Note_on_c, 10, 33, 92
11, 259495, Note_off_c, 10, 33, 64
11, 259500, Note_on_c, 10, 38, 92
11, 259735, Note_off_c, 10, 38, 64
11, 259740, Note_on_c, 10, 38, 92
11, 259975, Note_off_c, 10, 38, 64
11, 259980, Note_on_c, 10, 38, 92
11, 260215, Note_off_c, 10, 38, 64
11, 260220, Note_on_c, 10, 38, 92
11, 260455, Note_off_c, 10, 38, 64
11, 260460, Note_on_c, 10, 38, 92
11, 260695, Note_off_c, 10, 38, 64
11, 260700, Note_on_c, 10, 38, 92
11, 260935, Note_off_c, 10, 38, 64
11, 260940, Note_on_c, 10, 38, 92
11, 261175, Note_off_c, 10, 38, 64
11, 261180, Note_on_c, 10, 38, 92
11, 261415, Note_off_c, 10, 38, 64
11, 261420, Note_on_c, 10, 38, 92
11, 261655, Note_off_c, 10, 38, 64
11, 261660, Note_on_c, 10, 38, 87
11, 261895, Note_off_c, 10, 38, 64
11, 261900, Note_on_c, 10, 38, 81
11, 262135, Note_off_c, 10, 38, 64
11, 262140, Note_on_c, 10, 38, 75
11, 262375, Note_off_c, 10, 38, 64
11, 262380, Note_on_c, 10, 38, 69
11, 262615, Note_off_c, 10, 38, 64
11, 262620, Note_on_c, 10, 38, 63
11, 262855, Note_off_c, 10, 38, 64
11, 262860, Note_on_c, 10, 38, 57
11, 263095, Note_off_c, 10, 38, 64
11, 263100, Note_on_c, 10, 38, 51
11, 263335, Note_off_c, 10, 38, 64
11, 263340, Note_on_c, 10, 38, 45
11, 263575, Note_off_c, 10, 38, 64
11, 263580, Note_on_c, 10, 38, 45
11, 263815, Note_off_c, 10, 38, 64
11, 263820, Note_on_c, 10, 38, 45
11, 264055, Note_off_c, 10, 38, 64
11, 264060, Note_on_c, 10, 38, 45
11, 264295, Note_off_c, 10, 38, 64
11, 264300, Note_on_c, 10, 26, 45
11, 264700, Note_off_c, 10, 26, 64
11, 264700, End_track
0, 0, End_of_file