0, 0, Header, 1, 36, 480
1, 0, Start_track
1, 0, Title_t, "K.495 Romance                                                   "
1, 0, Tempo, 909090
1, 0, Key_signature, -2, "major"
1, 0, Time_signature, 3, 2, 24, 8
1, 0, End_track
2, 0, Start_track
2, 0, Title_t, "Oboe I, II                          "
2, 0, Control_c, 0, 7, 70
2, 80, Control_c, 0, 91, 100
2, 160, Control_c, 0, 93, 10
2, 240, Control_c, 0, 10, 20
2, 320, Control_c, 0, 121, 0
2, 480, Pitch_bend_c, 0, 8192
2, 640, Control_c, 0, 1, 0
2, 800, Control_c, 0, 11, 127
2, 960, Control_c, 0, 65, 0
2, 1120, Control_c, 0, 66, 0
2, 1280, Control_c, 0, 67, 0
2, 1440, Program_c, 0, 68
2, 15840, Note_on_c, 0, 77, 76
2, 15840, Note_on_c, 0, 74, 76
2, 17130, Note_on_c, 0, 77, 0
2, 17130, Note_on_c, 0, 74, 0
2, 17280, Note_on_c, 0, 79, 76
2, 17280, Note_on_c, 0, 75, 76
2, 17440, Note_on_c, 0, 79, 0
2, 17440, Note_on_c, 0, 75, 0
2, 17440, Note_on_c, 0, 81, 76
2, 17440, Note_on_c, 0, 77, 76
2, 17600, Note_on_c, 0, 81, 0
2, 17600, Note_on_c, 0, 77, 0
2, 17600, Note_on_c, 0, 82, 76
2, 17600, Note_on_c, 0, 79, 76
2, 17760, Note_on_c, 0, 82, 0
2, 17760, Note_on_c, 0, 79, 0
2, 17760, Note_on_c, 0, 82, 76
2, 17760, Note_on_c, 0, 79, 76
2, 18360, Note_on_c, 0, 82, 0
2, 18360, Note_on_c, 0, 79, 0
2, 18360, Note_on_c, 0, 81, 76
2, 18360, Note_on_c, 0, 77, 76
2, 18480, Note_on_c, 0, 81, 0
2, 18480, Note_on_c, 0, 77, 0
2, 18480, Note_on_c, 0, 79, 76
2, 18480, Note_on_c, 0, 75, 76
2, 18600, Note_on_c, 0, 79, 0
2, 18600, Note_on_c, 0, 75, 0
2, 18600, Note_on_c, 0, 77, 76
2, 18600, Note_on_c, 0, 74, 76
2, 18720, Note_on_c, 0, 77, 0
2, 18720, Note_on_c, 0, 74, 0
2, 18720, Note_on_c, 0, 75, 76
2, 18720, Note_on_c, 0, 72, 76
2, 18880, Note_on_c, 0, 75, 0
2, 18880, Note_on_c, 0, 72, 0
2, 18880, Note_on_c, 0, 77, 76
2, 18880, Note_on_c, 0, 74, 76
2, 19040, Note_on_c, 0, 77, 0
2, 19040, Note_on_c, 0, 74, 0
2, 19040, Note_on_c, 0, 79, 76
2, 19040, Note_on_c, 0, 75, 76
2, 19200, Note_on_c, 0, 79, 0
2, 19200, Note_on_c, 0, 75, 0
2, 19200, Note_on_c, 0, 79, 76
2, 19200, Note_on_c, 0, 75, 76
2, 19800, Note_on_c, 0, 79, 0
2, 19800, Note_on_c, 0, 75, 0
2, 19800, Note_on_c, 0, 77, 76
2, 19800, Note_on_c, 0, 74, 76
2, 19920, Note_on_c, 0, 77, 0
2, 19920, Note_on_c, 0, 74, 0
2, 19920, Note_on_c, 0, 75, 76
2, 19920, Note_on_c, 0, 72, 76
2, 20040, Note_on_c, 0, 75, 0
2, 20040, Note_on_c, 0, 72, 0
2, 20040, Note_on_c, 0, 74, 76
2, 20040, Note_on_c, 0, 70, 76
2, 20160, Note_on_c, 0, 74, 0
2, 20160, Note_on_c, 0, 70, 0
2, 20160, Note_on_c, 0, 77, 76
2, 20160, Note_on_c, 0, 74, 76
2, 20400, Note_on_c, 0, 77, 0
2, 20400, Note_on_c, 0, 74, 0
2, 20400, Note_on_c, 0, 75, 76
2, 20400, Note_on_c, 0, 72, 76
2, 20640, Note_on_c, 0, 75, 0
2, 20640, Note_on_c, 0, 72, 0
2, 20640, Note_on_c, 0, 74, 76
2, 20640, Note_on_c, 0, 70, 76
2, 21070, Note_on_c, 0, 74, 0
2, 21070, Note_on_c, 0, 70, 0
2, 24480, Control_c, 0, 11, 106
2, 24480, Note_on_c, 0, 77, 76
2, 24480, Note_on_c, 0, 65, 76
2, 24600, Control_c, 0, 11, 106
2, 24720, Control_c, 0, 11, 108
2, 24840, Control_c, 0, 11, 110
2, 24960, Control_c, 0, 11, 111
2, 25080, Control_c, 0, 11, 113
2, 25200, Control_c, 0, 11, 115
2, 25320, Control_c, 0, 11, 118
2, 25440, Control_c, 0, 11, 120
2, 25560, Control_c, 0, 11, 121
2, 25680, Control_c, 0, 11, 123
2, 25770, Note_on_c, 0, 77, 0
2, 25770, Note_on_c, 0, 65, 0
2, 25800, Control_c, 0, 11, 125
2, 25920, Control_c, 0, 11, 127
2, 25920, Note_on_c, 0, 75, 76
2, 25920, Note_on_c, 0, 69, 76
2, 26780, Note_on_c, 0, 75, 0
2, 26780, Note_on_c, 0, 69, 0
2, 26880, Note_on_c, 0, 74, 76
2, 26880, Note_on_c, 0, 70, 76
2, 27310, Note_on_c, 0, 74, 0
2, 27310, Note_on_c, 0, 70, 0
2, 27360, Note_on_c, 0, 84, 76
2, 27360, Note_on_c, 0, 75, 76
2, 27790, Note_on_c, 0, 84, 0
2, 27790, Note_on_c, 0, 75, 0
2, 27840, Note_on_c, 0, 82, 76
2, 27840, Note_on_c, 0, 74, 76
2, 28270, Note_on_c, 0, 82, 0
2, 28270, Note_on_c, 0, 74, 0
2, 28320, Note_on_c, 0, 81, 76
2, 28320, Note_on_c, 0, 75, 76
2, 28750, Note_on_c, 0, 81, 0
2, 28750, Note_on_c, 0, 75, 0
2, 28800, Note_on_c, 0, 82, 76
2, 28800, Note_on_c, 0, 74, 76
2, 29230, Note_on_c, 0, 82, 0
2, 29230, Note_on_c, 0, 74, 0
2, 29280, Note_on_c, 0, 70, 76
2, 29710, Note_on_c, 0, 70, 0
2, 66720, Control_c, 0, 11, 85
2, 66720, Note_on_c, 0, 77, 76
2, 66720, Note_on_c, 0, 65, 76
2, 66840, Control_c, 0, 11, 88
2, 66960, Control_c, 0, 11, 95
2, 67080, Control_c, 0, 11, 100
2, 67150, Note_on_c, 0, 77, 0
2, 67150, Note_on_c, 0, 65, 0
2, 67200, Control_c, 0, 11, 105
2, 67200, Note_on_c, 0, 65, 76
2, 67200, Note_on_c, 0, 77, 76
2, 67320, Control_c, 0, 11, 111
2, 67440, Control_c, 0, 11, 116
2, 67560, Control_c, 0, 11, 121
2, 67630, Note_on_c, 0, 65, 0
2, 67630, Note_on_c, 0, 77, 0
2, 67680, Control_c, 0, 11, 127
2, 67680, Note_on_c, 0, 72, 76
2, 67680, Note_on_c, 0, 69, 76
2, 68000, Note_on_c, 0, 72, 0
2, 68000, Note_on_c, 0, 69, 0
2, 68040, Note_on_c, 0, 74, 76
2, 68040, Note_on_c, 0, 70, 76
2, 68140, Note_on_c, 0, 74, 0
2, 68140, Note_on_c, 0, 70, 0
2, 68160, Note_on_c, 0, 75, 76
2, 68160, Note_on_c, 0, 72, 76
2, 68640, Note_on_c, 0, 75, 0
2, 68640, Note_on_c, 0, 72, 0
2, 68640, Note_on_c, 0, 74, 76
2, 68640, Note_on_c, 0, 70, 76
2, 69120, Note_on_c, 0, 74, 0
2, 69120, Note_on_c, 0, 70, 0
2, 69120, Note_on_c, 0, 72, 76
2, 69120, Note_on_c, 0, 69, 76
2, 69440, Note_on_c, 0, 72, 0
2, 69440, Note_on_c, 0, 69, 0
2, 69480, Note_on_c, 0, 74, 76
2, 69480, Note_on_c, 0, 70, 76
2, 69580, Note_on_c, 0, 74, 0
2, 69580, Note_on_c, 0, 70, 0
2, 69600, Note_on_c, 0, 75, 76
2, 69600, Note_on_c, 0, 72, 76
2, 70080, Note_on_c, 0, 75, 0
2, 70080, Note_on_c, 0, 72, 0
2, 70080, Note_on_c, 0, 74, 76
2, 70080, Note_on_c, 0, 70, 76
2, 70320, Note_on_c, 0, 74, 0
2, 70320, Note_on_c, 0, 70, 0
2, 70320, Note_on_c, 0, 74, 76
2, 70320, Note_on_c, 0, 82, 76
2, 70530, Note_on_c, 0, 74, 0
2, 70560, Note_on_c, 0, 75, 76
2, 70800, Note_on_c, 0, 82, 0
2, 70800, Note_on_c, 0, 79, 76
2, 71040, Note_on_c, 0, 75, 0
2, 71040, Note_on_c, 0, 79, 0
2, 71040, Note_on_c, 0, 77, 76
2, 71040, Note_on_c, 0, 74, 76
2, 71280, Note_on_c, 0, 77, 0
2, 71280, Note_on_c, 0, 74, 0
2, 71280, Note_on_c, 0, 74, 76
2, 71280, Note_on_c, 0, 70, 76
2, 71520, Note_on_c, 0, 74, 0
2, 71520, Note_on_c, 0, 70, 0
2, 71520, Note_on_c, 0, 75, 76
2, 71520, Note_on_c, 0, 72, 76
2, 71760, Note_on_c, 0, 75, 0
2, 71760, Note_on_c, 0, 72, 0
2, 71760, Note_on_c, 0, 72, 76
2, 71760, Note_on_c, 0, 69, 76
2, 72000, Note_on_c, 0, 72, 0
2, 72000, Note_on_c, 0, 69, 0
2, 72000, Note_on_c, 0, 70, 76
2, 72430, Note_on_c, 0, 70, 0
2, 79200, Note_on_c, 0, 74, 51
2, 79200, Note_on_c, 0, 82, 51
2, 80490, Note_on_c, 0, 74, 0
2, 80640, Note_on_c, 0, 75, 51
2, 81930, Note_on_c, 0, 82, 0
2, 82080, Note_on_c, 0, 81, 51
2, 84000, Note_on_c, 0, 75, 0
2, 84000, Note_on_c, 0, 81, 0
2, 84000, Note_on_c, 0, 82, 51
2, 84000, Note_on_c, 0, 74, 51
2, 84480, Note_on_c, 0, 82, 0
2, 84480, Note_on_c, 0, 74, 0
2, 122400, Note_on_c, 0, 81, 51
2, 122400, Note_on_c, 0, 75, 51
2, 123840, Note_on_c, 0, 81, 0
2, 123840, Note_on_c, 0, 75, 0
2, 123840, Note_on_c, 0, 82, 51
2, 123840, Note_on_c, 0, 74, 51
2, 124320, Note_on_c, 0, 82, 0
2, 124320, Note_on_c, 0, 74, 0
2, 124320, Note_on_c, 0, 77, 51
2, 124320, Note_on_c, 0, 74, 51
2, 124800, Note_on_c, 0, 77, 0
2, 124800, Note_on_c, 0, 74, 0
2, 124800, Note_on_c, 0, 75, 51
2, 124800, Note_on_c, 0, 72, 51
2, 125280, Note_on_c, 0, 75, 0
2, 125280, Note_on_c, 0, 72, 0
2, 125280, Note_on_c, 0, 74, 51
2, 125280, Note_on_c, 0, 70, 51
2, 125760, Note_on_c, 0, 74, 0
2, 125760, Note_on_c, 0, 70, 0
2, 125760, Note_on_c, 0, 77, 51
2, 125760, Note_on_c, 0, 74, 51
2, 126240, Note_on_c, 0, 77, 0
2, 126240, Note_on_c, 0, 74, 0
2, 126240, Note_on_c, 0, 75, 51
2, 126240, Note_on_c, 0, 72, 51
2, 126720, Note_on_c, 0, 75, 0
2, 126720, Note_on_c, 0, 72, 0
2, 126720, Note_on_c, 0, 74, 51
2, 126720, Note_on_c, 0, 70, 51
2, 127150, Note_on_c, 0, 74, 0
2, 127150, Note_on_c, 0, 70, 0
2, 127200, Note_on_c, 0, 82, 51
2, 127200, Note_on_c, 0, 74, 51
2, 127630, Note_on_c, 0, 82, 0
2, 127630, Note_on_c, 0, 74, 0
2, 127680, Note_on_c, 0, 82, 32
2, 127680, Note_on_c, 0, 74, 32
2, 128110, Note_on_c, 0, 82, 0
2, 128110, Note_on_c, 0, 74, 0
2, 128160, Note_on_c, 0, 82, 32
2, 128160, Note_on_c, 0, 74, 32
2, 128590, Note_on_c, 0, 82, 0
2, 128590, Note_on_c, 0, 74, 0
2, 129600, End_track
3, 0, Start_track
3, 0, Title_t, "Corno I, II                         "
3, 0, Control_c, 1, 7, 70
3, 80, Control_c, 1, 91, 100
3, 160, Control_c, 1, 93, 10
3, 240, Control_c, 1, 10, 60
3, 320, Control_c, 1, 121, 0
3, 480, Pitch_bend_c, 1, 8192
3, 640, Control_c, 1, 1, 0
3, 800, Control_c, 1, 11, 127
3, 960, Control_c, 1, 65, 0
3, 1120, Control_c, 1, 66, 0
3, 1280, Control_c, 1, 67, 0
3, 1440, Program_c, 1, 60
3, 15840, Note_on_c, 1, 46, 76
3, 15840, Note_on_c, 1, 58, 76
3, 20010, Note_on_c, 1, 46, 0
3, 20010, Note_on_c, 1, 58, 0
3, 20160, Note_on_c, 1, 65, 76
3, 20590, Note_on_c, 1, 65, 0
3, 20640, Note_on_c, 1, 65, 76
3, 20640, Note_on_c, 1, 58, 76
3, 21070, Note_on_c, 1, 65, 0
3, 21070, Note_on_c, 1, 58, 0
3, 25920, Note_on_c, 1, 65, 76
3, 26780, Note_on_c, 1, 65, 0
3, 26880, Note_on_c, 1, 65, 76
3, 26880, Note_on_c, 1, 58, 76
3, 27310, Note_on_c, 1, 65, 0
3, 27310, Note_on_c, 1, 58, 0
3, 27360, Note_on_c, 1, 67, 76
3, 27360, Note_on_c, 1, 58, 76
3, 27790, Note_on_c, 1, 67, 0
3, 27790, Note_on_c, 1, 58, 0
3, 27840, Note_on_c, 1, 65, 76
3, 28270, Note_on_c, 1, 65, 0
3, 28320, Note_on_c, 1, 65, 76
3, 28750, Note_on_c, 1, 65, 0
3, 28800, Note_on_c, 1, 65, 76
3, 28800, Note_on_c, 1, 58, 76
3, 29230, Note_on_c, 1, 65, 0
3, 29230, Note_on_c, 1, 58, 0
3, 67680, Note_on_c, 1, 65, 76
3, 68970, Note_on_c, 1, 65, 0
3, 69120, Note_on_c, 1, 65, 76
3, 69980, Note_on_c, 1, 65, 0
3, 70080, Note_on_c, 1, 58, 76
3, 70080, Note_on_c, 1, 65, 76
3, 70290, Note_on_c, 1, 65, 0
3, 70320, Note_on_c, 1, 70, 76
3, 70770, Note_on_c, 1, 70, 0
3, 70800, Note_on_c, 1, 67, 76
3, 70990, Note_on_c, 1, 58, 0
3, 71010, Note_on_c, 1, 67, 0
3, 71040, Note_on_c, 1, 65, 76
3, 71470, Note_on_c, 1, 65, 0
3, 71520, Note_on_c, 1, 65, 76
3, 71950, Note_on_c, 1, 65, 0
3, 72000, Note_on_c, 1, 65, 76
3, 72000, Note_on_c, 1, 58, 76
3, 72430, Note_on_c, 1, 65, 0
3, 72430, Note_on_c, 1, 58, 0
3, 112320, Note_on_c, 1, 58, 51
3, 112320, Note_on_c, 1, 46, 51
3, 112530, Note_on_c, 1, 58, 0
3, 112530, Note_on_c, 1, 46, 0
3, 112560, Note_on_c, 1, 58, 51
3, 112560, Note_on_c, 1, 46, 51
3, 112770, Note_on_c, 1, 58, 0
3, 112770, Note_on_c, 1, 46, 0
3, 112800, Note_on_c, 1, 58, 51
3, 112800, Note_on_c, 1, 46, 51
3, 113010, Note_on_c, 1, 58, 0
3, 113010, Note_on_c, 1, 46, 0
3, 113040, Note_on_c, 1, 58, 51
3, 113040, Note_on_c, 1, 46, 51
3, 113250, Note_on_c, 1, 58, 0
3, 113250, Note_on_c, 1, 46, 0
3, 113280, Note_on_c, 1, 58, 51
3, 113280, Note_on_c, 1, 46, 51
3, 113490, Note_on_c, 1, 58, 0
3, 113490, Note_on_c, 1, 46, 0
3, 113520, Note_on_c, 1, 58, 51
3, 113520, Note_on_c, 1, 46, 51
3, 113730, Note_on_c, 1, 58, 0
3, 113730, Note_on_c, 1, 46, 0
3, 113760, Note_on_c, 1, 58, 51
3, 113760, Note_on_c, 1, 46, 51
3, 113970, Note_on_c, 1, 58, 0
3, 113970, Note_on_c, 1, 46, 0
3, 114000, Note_on_c, 1, 58, 51
3, 114000, Note_on_c, 1, 46, 51
3, 114210, Note_on_c, 1, 58, 0
3, 114210, Note_on_c, 1, 46, 0
3, 114240, Note_on_c, 1, 58, 51
3, 114240, Note_on_c, 1, 46, 51
3, 114450, Note_on_c, 1, 58, 0
3, 114450, Note_on_c, 1, 46, 0
3, 114480, Note_on_c, 1, 58, 51
3, 114480, Note_on_c, 1, 46, 51
3, 114690, Note_on_c, 1, 58, 0
3, 114690, Note_on_c, 1, 46, 0
3, 114720, Note_on_c, 1, 58, 51
3, 114720, Note_on_c, 1, 46, 51
3, 114930, Note_on_c, 1, 58, 0
3, 114930, Note_on_c, 1, 46, 0
3, 114960, Note_on_c, 1, 58, 51
3, 114960, Note_on_c, 1, 46, 51
3, 115170, Note_on_c, 1, 58, 0
3, 115170, Note_on_c, 1, 46, 0
3, 115200, Note_on_c, 1, 58, 51
3, 115200, Note_on_c, 1, 46, 51
3, 115410, Note_on_c, 1, 58, 0
3, 115410, Note_on_c, 1, 46, 0
3, 115440, Note_on_c, 1, 58, 51
3, 115440, Note_on_c, 1, 46, 51
3, 115650, Note_on_c, 1, 58, 0
3, 115650, Note_on_c, 1, 46, 0
3, 115680, Note_on_c, 1, 58, 51
3, 115680, Note_on_c, 1, 46, 51
3, 115890, Note_on_c, 1, 58, 0
3, 115890, Note_on_c, 1, 46, 0
3, 115920, Note_on_c, 1, 58, 51
3, 115920, Note_on_c, 1, 46, 51
3, 116130, Note_on_c, 1, 58, 0
3, 116130, Note_on_c, 1, 46, 0
3, 116160, Note_on_c, 1, 58, 51
3, 116160, Note_on_c, 1, 46, 51
3, 116370, Note_on_c, 1, 58, 0
3, 116370, Note_on_c, 1, 46, 0
3, 116400, Note_on_c, 1, 58, 51
3, 116400, Note_on_c, 1, 46, 51
3, 116610, Note_on_c, 1, 58, 0
3, 116610, Note_on_c, 1, 46, 0
3, 116640, Note_on_c, 1, 58, 51
3, 116640, Note_on_c, 1, 46, 51
3, 116850, Note_on_c, 1, 58, 0
3, 116850, Note_on_c, 1, 46, 0
3, 116880, Note_on_c, 1, 58, 51
3, 116880, Note_on_c, 1, 46, 51
3, 117090, Note_on_c, 1, 58, 0
3, 117090, Note_on_c, 1, 46, 0
3, 117120, Note_on_c, 1, 58, 51
3, 117120, Note_on_c, 1, 46, 51
3, 117330, Note_on_c, 1, 58, 0
3, 117330, Note_on_c, 1, 46, 0
3, 117360, Note_on_c, 1, 58, 51
3, 117360, Note_on_c, 1, 46, 51
3, 117570, Note_on_c, 1, 58, 0
3, 117570, Note_on_c, 1, 46, 0
3, 117600, Note_on_c, 1, 58, 51
3, 117600, Note_on_c, 1, 46, 51
3, 117810, Note_on_c, 1, 58, 0
3, 117810, Note_on_c, 1, 46, 0
3, 117840, Note_on_c, 1, 58, 51
3, 117840, Note_on_c, 1, 46, 51
3, 118050, Note_on_c, 1, 58, 0
3, 118050, Note_on_c, 1, 46, 0
3, 118080, Note_on_c, 1, 58, 51
3, 118080, Note_on_c, 1, 46, 51
3, 118290, Note_on_c, 1, 58, 0
3, 118290, Note_on_c, 1, 46, 0
3, 118320, Note_on_c, 1, 58, 51
3, 118320, Note_on_c, 1, 46, 51
3, 118530, Note_on_c, 1, 58, 0
3, 118530, Note_on_c, 1, 46, 0
3, 118560, Note_on_c, 1, 58, 51
3, 118560, Note_on_c, 1, 46, 51
3, 118770, Note_on_c, 1, 58, 0
3, 118770, Note_on_c, 1, 46, 0
3, 118800, Note_on_c, 1, 58, 51
3, 118800, Note_on_c, 1, 46, 51
3, 119010, Note_on_c, 1, 58, 0
3, 119010, Note_on_c, 1, 46, 0
3, 119040, Note_on_c, 1, 58, 51
3, 119040, Note_on_c, 1, 46, 51
3, 119250, Note_on_c, 1, 58, 0
3, 119250, Note_on_c, 1, 46, 0
3, 119280, Note_on_c, 1, 58, 51
3, 119280, Note_on_c, 1, 46, 51
3, 119490, Note_on_c, 1, 58, 0
3, 119490, Note_on_c, 1, 46, 0
3, 119520, Note_on_c, 1, 58, 51
3, 119520, Note_on_c, 1, 46, 51
3, 119730, Note_on_c, 1, 58, 0
3, 119730, Note_on_c, 1, 46, 0
3, 119760, Note_on_c, 1, 58, 51
3, 119760, Note_on_c, 1, 46, 51
3, 119970, Note_on_c, 1, 58, 0
3, 119970, Note_on_c, 1, 46, 0
3, 120000, Note_on_c, 1, 58, 51
3, 120000, Note_on_c, 1, 46, 51
3, 120210, Note_on_c, 1, 58, 0
3, 120210, Note_on_c, 1, 46, 0
3, 120240, Note_on_c, 1, 58, 51
3, 120240, Note_on_c, 1, 46, 51
3, 120450, Note_on_c, 1, 58, 0
3, 120450, Note_on_c, 1, 46, 0
3, 120480, Note_on_c, 1, 58, 51
3, 120480, Note_on_c, 1, 46, 51
3, 120690, Note_on_c, 1, 58, 0
3, 120690, Note_on_c, 1, 46, 0
3, 120720, Note_on_c, 1, 58, 51
3, 120720, Note_on_c, 1, 46, 51
3, 120930, Note_on_c, 1, 58, 0
3, 120930, Note_on_c, 1, 46, 0
3, 120960, Note_on_c, 1, 58, 51
3, 120960, Note_on_c, 1, 46, 51
3, 121170, Note_on_c, 1, 58, 0
3, 121170, Note_on_c, 1, 46, 0
3, 121200, Note_on_c, 1, 58, 51
3, 121200, Note_on_c, 1, 46, 51
3, 121410, Note_on_c, 1, 58, 0
3, 121410, Note_on_c, 1, 46, 0
3, 121440, Note_on_c, 1, 58, 51
3, 121440, Note_on_c, 1, 46, 51
3, 121650, Note_on_c, 1, 58, 0
3, 121650, Note_on_c, 1, 46, 0
3, 121680, Note_on_c, 1, 58, 51
3, 121680, Note_on_c, 1, 46, 51
3, 121890, Note_on_c, 1, 58, 0
3, 121890, Note_on_c, 1, 46, 0
3, 121920, Note_on_c, 1, 58, 51
3, 121920, Note_on_c, 1, 46, 51
3, 122130, Note_on_c, 1, 58, 0
3, 122130, Note_on_c, 1, 46, 0
3, 122160, Note_on_c, 1, 58, 51
3, 122160, Note_on_c, 1, 46, 51
3, 122370, Note_on_c, 1, 58, 0
3, 122370, Note_on_c, 1, 46, 0
3, 122400, Note_on_c, 1, 58, 51
3, 122400, Note_on_c, 1, 46, 51
3, 122610, Note_on_c, 1, 58, 0
3, 122610, Note_on_c, 1, 46, 0
3, 122640, Note_on_c, 1, 58, 51
3, 122640, Note_on_c, 1, 46, 51
3, 122850, Note_on_c, 1, 58, 0
3, 122850, Note_on_c, 1, 46, 0
3, 122880, Note_on_c, 1, 58, 51
3, 122880, Note_on_c, 1, 46, 51
3, 123090, Note_on_c, 1, 58, 0
3, 123090, Note_on_c, 1, 46, 0
3, 123120, Note_on_c, 1, 58, 51
3, 123120, Note_on_c, 1, 46, 51
3, 123330, Note_on_c, 1, 58, 0
3, 123330, Note_on_c, 1, 46, 0
3, 123360, Note_on_c, 1, 58, 51
3, 123360, Note_on_c, 1, 46, 51
3, 123570, Note_on_c, 1, 58, 0
3, 123570, Note_on_c, 1, 46, 0
3, 123600, Note_on_c, 1, 58, 51
3, 123600, Note_on_c, 1, 46, 51
3, 123810, Note_on_c, 1, 58, 0
3, 123810, Note_on_c, 1, 46, 0
3, 123840, Note_on_c, 1, 58, 51
3, 123840, Note_on_c, 1, 46, 51
3, 124270, Note_on_c, 1, 58, 0
3, 124270, Note_on_c, 1, 46, 0
3, 127200, Note_on_c, 1, 58, 32
3, 127200, Note_on_c, 1, 46, 32
3, 127630, Note_on_c, 1, 58, 0
3, 127630, Note_on_c, 1, 46, 0
3, 127680, Note_on_c, 1, 58, 32
3, 127680, Note_on_c, 1, 46, 32
3, 128110, Note_on_c, 1, 58, 0
3, 128110, Note_on_c, 1, 46, 0
3, 128160, Note_on_c, 1, 58, 32
3, 128160, Note_on_c, 1, 46, 32
3, 128590, Note_on_c, 1, 58, 0
3, 128590, Note_on_c, 1, 46, 0
3, 129600, End_track
4, 0, Start_track
4, 0, Title_t, "Corno principale in E flat          "
4, 0, Control_c, 2, 7, 80
4, 80, Control_c, 2, 91, 100
4, 160, Control_c, 2, 93, 10
4, 240, Control_c, 2, 10, 60
4, 320, Control_c, 2, 121, 0
4, 480, Pitch_bend_c, 2, 8192
4, 640, Control_c, 2, 1, 0
4, 800, Control_c, 2, 11, 127
4, 960, Control_c, 2, 65, 0
4, 1120, Control_c, 2, 66, 0
4, 1280, Control_c, 2, 67, 0
4, 1440, Program_c, 2, 60
4, 1440, Note_on_c, 2, 65, 88
4, 2730, Note_on_c, 2, 65, 0
4, 2880, Note_on_c, 2, 67, 88
4, 3040, Note_on_c, 2, 67, 0
4, 3040, Note_on_c, 2, 69, 88
4, 3200, Note_on_c, 2, 69, 0
4, 3200, Note_on_c, 2, 70, 88
4, 3360, Note_on_c, 2, 70, 0
4, 3360, Note_on_c, 2, 70, 88
4, 3960, Note_on_c, 2, 70, 0
4, 3960, Note_on_c, 2, 69, 88
4, 4080, Note_on_c, 2, 69, 0
4, 4080, Note_on_c, 2, 67, 88
4, 4200, Note_on_c, 2, 67, 0
4, 4200, Note_on_c, 2, 65, 88
4, 4320, Note_on_c, 2, 65, 0
4, 4320, Note_on_c, 2, 63, 88
4, 4480, Note_on_c, 2, 63, 0
4, 4480, Note_on_c, 2, 65, 88
4, 4640, Note_on_c, 2, 65, 0
4, 4640, Note_on_c, 2, 67, 88
4, 4800, Note_on_c, 2, 67, 0
4, 4800, Note_on_c, 2, 67, 88
4, 5400, Note_on_c, 2, 67, 0
4, 5400, Note_on_c, 2, 65, 88
4, 5520, Note_on_c, 2, 65, 0
4, 5520, Note_on_c, 2, 63, 88
4, 5640, Note_on_c, 2, 63, 0
4, 5640, Note_on_c, 2, 62, 88
4, 5760, Note_on_c, 2, 62, 0
4, 5760, Note_on_c, 2, 65, 88
4, 6000, Note_on_c, 2, 65, 0
4, 6000, Note_on_c, 2, 63, 88
4, 6240, Note_on_c, 2, 63, 0
4, 6240, Note_on_c, 2, 62, 88
4, 6670, Note_on_c, 2, 62, 0
4, 7200, Note_on_c, 2, 58, 88
4, 8490, Note_on_c, 2, 58, 0
4, 8640, Note_on_c, 2, 63, 88
4, 9930, Note_on_c, 2, 63, 0
4, 10080, Note_on_c, 2, 62, 88
4, 10320, Note_on_c, 2, 62, 0
4, 10320, Note_on_c, 2, 65, 88
4, 10560, Note_on_c, 2, 65, 0
4, 10560, Note_on_c, 2, 65, 88
4, 11200, Note_on_c, 2, 65, 0
4, 11280, Note_on_c, 2, 69, 88
4, 11400, Note_on_c, 2, 69, 0
4, 11400, Note_on_c, 2, 65, 88
4, 11520, Note_on_c, 2, 65, 0
4, 11520, Note_on_c, 2, 70, 88
4, 11760, Note_on_c, 2, 70, 0
4, 11760, Note_on_c, 2, 65, 88
4, 12000, Note_on_c, 2, 65, 0
4, 12000, Note_on_c, 2, 65, 88
4, 12640, Note_on_c, 2, 65, 0
4, 12720, Note_on_c, 2, 69, 88
4, 12840, Note_on_c, 2, 69, 0
4, 12840, Note_on_c, 2, 65, 88
4, 12960, Note_on_c, 2, 65, 0
4, 12960, Note_on_c, 2, 70, 88
4, 13200, Note_on_c, 2, 70, 0
4, 13200, Note_on_c, 2, 65, 88
4, 13440, Note_on_c, 2, 65, 0
4, 13440, Note_on_c, 2, 62, 88
4, 13680, Note_on_c, 2, 62, 0
4, 13680, Note_on_c, 2, 58, 88
4, 13920, Note_on_c, 2, 58, 0
4, 13920, Note_on_c, 2, 67, 88
4, 14160, Note_on_c, 2, 67, 0
4, 14160, Note_on_c, 2, 63, 88
4, 14400, Note_on_c, 2, 63, 0
4, 14400, Note_on_c, 2, 62, 88
4, 14880, Note_on_c, 2, 62, 0
4, 14880, Note_on_c, 2, 60, 88
4, 15360, Note_on_c, 2, 60, 0
4, 30240, Note_on_c, 2, 65, 88
4, 30880, Note_on_c, 2, 65, 0
4, 30960, Note_on_c, 2, 67, 88
4, 31080, Note_on_c, 2, 67, 0
4, 31080, Note_on_c, 2, 65, 88
4, 31200, Note_on_c, 2, 65, 0
4, 31200, Note_on_c, 2, 65, 88
4, 31410, Note_on_c, 2, 65, 0
4, 31440, Note_on_c, 2, 65, 88
4, 31650, Note_on_c, 2, 65, 0
4, 31680, Note_on_c, 2, 65, 88
4, 31920, Note_on_c, 2, 65, 0
4, 31920, Note_on_c, 2, 64, 88
4, 32160, Note_on_c, 2, 64, 0
4, 32160, Note_on_c, 2, 64, 88
4, 33020, Note_on_c, 2, 64, 0
4, 33120, Note_on_c, 2, 65, 88
4, 33360, Note_on_c, 2, 65, 0
4, 33360, Note_on_c, 2, 63, 88
4, 33600, Note_on_c, 2, 63, 0
4, 33600, Note_on_c, 2, 63, 88
4, 34240, Note_on_c, 2, 63, 0
4, 34320, Note_on_c, 2, 62, 88
4, 34440, Note_on_c, 2, 62, 0
4, 34440, Note_on_c, 2, 60, 88
4, 34560, Note_on_c, 2, 60, 0
4, 34560, Note_on_c, 2, 58, 88
4, 34720, Note_on_c, 2, 58, 0
4, 34720, Note_on_c, 2, 60, 88
4, 34880, Note_on_c, 2, 60, 0
4, 34880, Note_on_c, 2, 62, 88
4, 35040, Note_on_c, 2, 62, 0
4, 35040, Note_on_c, 2, 60, 88
4, 35470, Note_on_c, 2, 60, 0
4, 36000, Note_on_c, 2, 65, 88
4, 36640, Note_on_c, 2, 65, 0
4, 36720, Note_on_c, 2, 67, 88
4, 36840, Note_on_c, 2, 67, 0
4, 36840, Note_on_c, 2, 65, 88
4, 36960, Note_on_c, 2, 65, 0
4, 36960, Note_on_c, 2, 65, 88
4, 37170, Note_on_c, 2, 65, 0
4, 37200, Note_on_c, 2, 65, 88
4, 37410, Note_on_c, 2, 65, 0
4, 37440, Note_on_c, 2, 70, 88
4, 37680, Note_on_c, 2, 70, 0
4, 37680, Note_on_c, 2, 67, 88
4, 37920, Note_on_c, 2, 67, 0
4, 37920, Note_on_c, 2, 64, 88
4, 38780, Note_on_c, 2, 64, 0
4, 38880, Note_on_c, 2, 65, 88
4, 39090, Note_on_c, 2, 65, 0
4, 39120, Note_on_c, 2, 63, 88
4, 39550, Note_on_c, 2, 63, 0
4, 39600, Note_on_c, 2, 65, 88
4, 39720, Note_on_c, 2, 65, 0
4, 39720, Note_on_c, 2, 63, 88
4, 39840, Note_on_c, 2, 63, 0
4, 39840, Note_on_c, 2, 62, 88
4, 40050, Note_on_c, 2, 62, 0
4, 40080, Note_on_c, 2, 60, 88
4, 40290, Note_on_c, 2, 60, 0
4, 40320, Note_on_c, 2, 58, 88
4, 40480, Note_on_c, 2, 58, 0
4, 40480, Note_on_c, 2, 60, 88
4, 40640, Note_on_c, 2, 60, 0
4, 40640, Note_on_c, 2, 62, 88
4, 40800, Note_on_c, 2, 62, 0
4, 40800, Note_on_c, 2, 60, 88
4, 41230, Note_on_c, 2, 60, 0
4, 41760, Note_on_c, 2, 62, 88
4, 42190, Note_on_c, 2, 62, 0
4, 42240, Note_on_c, 2, 64, 88
4, 42670, Note_on_c, 2, 64, 0
4, 42720, Note_on_c, 2, 65, 88
4, 43150, Note_on_c, 2, 65, 0
4, 43200, Note_on_c, 2, 66, 88
4, 43630, Note_on_c, 2, 66, 0
4, 43680, Note_on_c, 2, 67, 88
4, 44110, Note_on_c, 2, 67, 0
4, 44160, Note_on_c, 2, 68, 88
4, 44590, Note_on_c, 2, 68, 0
4, 44640, Note_on_c, 2, 69, 88
4, 45280, Note_on_c, 2, 69, 0
4, 45360, Note_on_c, 2, 70, 88
4, 45570, Note_on_c, 2, 70, 0
4, 45600, Note_on_c, 2, 67, 88
4, 45810, Note_on_c, 2, 67, 0
4, 45840, Note_on_c, 2, 64, 88
4, 46050, Note_on_c, 2, 64, 0
4, 46080, Note_on_c, 2, 65, 88
4, 46510, Note_on_c, 2, 65, 0
4, 47040, Note_on_c, 2, 67, 88
4, 47470, Note_on_c, 2, 67, 0
4, 47520, Note_on_c, 2, 69, 88
4, 48160, Note_on_c, 2, 69, 0
4, 48240, Note_on_c, 2, 70, 88
4, 48450, Note_on_c, 2, 70, 0
4, 48480, Note_on_c, 2, 67, 88
4, 48690, Note_on_c, 2, 67, 0
4, 48720, Note_on_c, 2, 64, 88
4, 48930, Note_on_c, 2, 64, 0
4, 48960, Note_on_c, 2, 65, 88
4, 49390, Note_on_c, 2, 65, 0
4, 49680, Note_on_c, 2, 66, 88
4, 49890, Note_on_c, 2, 66, 0
4, 49920, Note_on_c, 2, 67, 88
4, 50130, Note_on_c, 2, 67, 0
4, 50160, Note_on_c, 2, 68, 88
4, 50370, Note_on_c, 2, 68, 0
4, 50400, Note_on_c, 2, 69, 88
4, 51040, Note_on_c, 2, 69, 0
4, 51120, Note_on_c, 2, 70, 88
4, 51330, Note_on_c, 2, 70, 0
4, 51360, Note_on_c, 2, 67, 88
4, 51570, Note_on_c, 2, 67, 0
4, 51600, Note_on_c, 2, 64, 88
4, 51810, Note_on_c, 2, 64, 0
4, 51840, Note_on_c, 2, 65, 88
4, 54140, Note_on_c, 2, 65, 0
4, 54240, Note_on_c, 2, 66, 88
4, 54670, Note_on_c, 2, 66, 0
4, 54720, Note_on_c, 2, 67, 88
4, 54880, Note_on_c, 2, 67, 0
4, 54880, Note_on_c, 2, 69, 88
4, 55040, Note_on_c, 2, 69, 0
4, 55040, Note_on_c, 2, 70, 88
4, 55200, Note_on_c, 2, 70, 0
4, 55200, Note_on_c, 2, 70, 88
4, 55800, Note_on_c, 2, 70, 0
4, 55800, Note_on_c, 2, 69, 88
4, 55920, Note_on_c, 2, 69, 0
4, 55920, Note_on_c, 2, 67, 88
4, 56040, Note_on_c, 2, 67, 0
4, 56040, Note_on_c, 2, 65, 88
4, 56160, Note_on_c, 2, 65, 0
4, 56160, Note_on_c, 2, 63, 88
4, 56320, Note_on_c, 2, 63, 0
4, 56320, Note_on_c, 2, 65, 88
4, 56480, Note_on_c, 2, 65, 0
4, 56480, Note_on_c, 2, 67, 88
4, 56640, Note_on_c, 2, 67, 0
4, 56640, Note_on_c, 2, 67, 88
4, 57240, Note_on_c, 2, 67, 0
4, 57240, Note_on_c, 2, 65, 88
4, 57360, Note_on_c, 2, 65, 0
4, 57360, Note_on_c, 2, 63, 88
4, 57480, Note_on_c, 2, 63, 0
4, 57480, Note_on_c, 2, 62, 88
4, 57600, Note_on_c, 2, 62, 0
4, 57600, Note_on_c, 2, 65, 88
4, 57840, Note_on_c, 2, 65, 0
4, 57840, Note_on_c, 2, 63, 88
4, 58080, Note_on_c, 2, 63, 0
4, 58080, Note_on_c, 2, 62, 88
4, 58510, Note_on_c, 2, 62, 0
4, 59040, Note_on_c, 2, 58, 88
4, 60330, Note_on_c, 2, 58, 0
4, 60480, Note_on_c, 2, 63, 88
4, 61770, Note_on_c, 2, 63, 0
4, 61920, Note_on_c, 2, 62, 88
4, 62160, Note_on_c, 2, 62, 0
4, 62160, Note_on_c, 2, 65, 88
4, 62400, Note_on_c, 2, 65, 0
4, 62400, Note_on_c, 2, 65, 88
4, 63040, Note_on_c, 2, 65, 0
4, 63120, Note_on_c, 2, 69, 88
4, 63240, Note_on_c, 2, 69, 0
4, 63240, Note_on_c, 2, 65, 88
4, 63360, Note_on_c, 2, 65, 0
4, 63360, Note_on_c, 2, 70, 88
4, 63570, Note_on_c, 2, 70, 0
4, 63600, Note_on_c, 2, 69, 88
4, 63810, Note_on_c, 2, 69, 0
4, 63840, Note_on_c, 2, 67, 88
4, 64050, Note_on_c, 2, 67, 0
4, 64080, Note_on_c, 2, 65, 88
4, 64290, Note_on_c, 2, 65, 0
4, 64320, Note_on_c, 2, 64, 88
4, 64530, Note_on_c, 2, 64, 0
4, 64560, Note_on_c, 2, 65, 88
4, 64770, Note_on_c, 2, 65, 0
4, 64800, Note_on_c, 2, 65, 88
4, 64920, Note_on_c, 2, 65, 0
4, 64920, Note_on_c, 2, 62, 88
4, 65040, Note_on_c, 2, 62, 0
4, 65040, Note_on_c, 2, 67, 88
4, 65160, Note_on_c, 2, 67, 0
4, 65160, Note_on_c, 2, 63, 88
4, 65280, Note_on_c, 2, 63, 0
4, 65280, Note_on_c, 2, 62, 88
4, 65710, Note_on_c, 2, 62, 0
4, 65760, Note_on_c, 2, 60, 88
4, 66190, Note_on_c, 2, 60, 0
4, 66240, Note_on_c, 2, 58, 88
4, 66670, Note_on_c, 2, 58, 0
4, 72480, Note_on_c, 2, 62, 88
4, 72910, Note_on_c, 2, 62, 0
4, 72960, Note_on_c, 2, 66, 88
4, 73390, Note_on_c, 2, 66, 0
4, 73440, Note_on_c, 2, 67, 88
4, 74300, Note_on_c, 2, 67, 0
4, 74400, Note_on_c, 2, 62, 88
4, 74830, Note_on_c, 2, 62, 0
4, 74880, Note_on_c, 2, 63, 88
4, 75120, Note_on_c, 2, 63, 0
4, 75120, Note_on_c, 2, 62, 88
4, 75360, Note_on_c, 2, 62, 0
4, 75360, Note_on_c, 2, 62, 88
4, 75790, Note_on_c, 2, 62, 0
4, 76320, Note_on_c, 2, 69, 88
4, 77180, Note_on_c, 2, 69, 0
4, 77280, Note_on_c, 2, 62, 88
4, 77710, Note_on_c, 2, 62, 0
4, 77760, Note_on_c, 2, 63, 88
4, 78000, Note_on_c, 2, 63, 0
4, 78000, Note_on_c, 2, 62, 88
4, 78240, Note_on_c, 2, 62, 0
4, 78240, Note_on_c, 2, 62, 88
4, 78670, Note_on_c, 2, 62, 0
4, 79200, Note_on_c, 2, 70, 88
4, 80060, Note_on_c, 2, 70, 0
4, 80160, Note_on_c, 2, 62, 88
4, 80590, Note_on_c, 2, 62, 0
4, 80640, Note_on_c, 2, 65, 88
4, 80880, Note_on_c, 2, 65, 0
4, 80880, Note_on_c, 2, 63, 88
4, 81120, Note_on_c, 2, 63, 0
4, 81360, Note_on_c, 2, 63, 88
4, 81570, Note_on_c, 2, 63, 0
4, 81600, Note_on_c, 2, 63, 88
4, 81810, Note_on_c, 2, 63, 0
4, 81840, Note_on_c, 2, 63, 88
4, 82050, Note_on_c, 2, 63, 0
4, 82080, Note_on_c, 2, 63, 88
4, 82720, Note_on_c, 2, 63, 0
4, 82800, Note_on_c, 2, 65, 88
4, 82920, Note_on_c, 2, 65, 0
4, 82920, Note_on_c, 2, 67, 88
4, 83040, Note_on_c, 2, 67, 0
4, 83040, Note_on_c, 2, 65, 88
4, 83250, Note_on_c, 2, 65, 0
4, 83280, Note_on_c, 2, 63, 88
4, 83490, Note_on_c, 2, 63, 0
4, 83520, Note_on_c, 2, 65, 88
4, 83760, Note_on_c, 2, 65, 0
4, 83760, Note_on_c, 2, 63, 88
4, 84000, Note_on_c, 2, 63, 0
4, 84000, Note_on_c, 2, 62, 88
4, 84430, Note_on_c, 2, 62, 0
4, 84960, Note_on_c, 2, 58, 88
4, 85820, Note_on_c, 2, 58, 0
4, 85920, Note_on_c, 2, 68, 88
4, 86350, Note_on_c, 2, 68, 0
4, 86400, Note_on_c, 2, 68, 88
4, 86640, Note_on_c, 2, 68, 0
4, 86640, Note_on_c, 2, 67, 88
4, 86880, Note_on_c, 2, 67, 0
4, 87120, Note_on_c, 2, 67, 88
4, 87330, Note_on_c, 2, 67, 0
4, 87360, Note_on_c, 2, 67, 88
4, 87570, Note_on_c, 2, 67, 0
4, 87600, Note_on_c, 2, 65, 88
4, 87810, Note_on_c, 2, 65, 0
4, 87840, Note_on_c, 2, 65, 88
4, 88080, Note_on_c, 2, 65, 0
4, 88080, Note_on_c, 2, 64, 88
4, 88320, Note_on_c, 2, 64, 0
4, 88320, Note_on_c, 2, 64, 88
4, 88960, Note_on_c, 2, 64, 0
4, 89040, Note_on_c, 2, 70, 88
4, 89250, Note_on_c, 2, 70, 0
4, 89280, Note_on_c, 2, 70, 88
4, 89520, Note_on_c, 2, 70, 0
4, 89520, Note_on_c, 2, 69, 88
4, 89760, Note_on_c, 2, 69, 0
4, 90000, Note_on_c, 2, 69, 88
4, 90210, Note_on_c, 2, 69, 0
4, 90240, Note_on_c, 2, 69, 88
4, 90450, Note_on_c, 2, 69, 0
4, 90480, Note_on_c, 2, 67, 88
4, 90690, Note_on_c, 2, 67, 0
4, 90720, Note_on_c, 2, 67, 88
4, 90930, Note_on_c, 2, 67, 0
4, 90960, Note_on_c, 2, 66, 88
4, 91390, Note_on_c, 2, 66, 0
4, 91440, Note_on_c, 2, 63, 88
4, 91650, Note_on_c, 2, 63, 0
4, 91680, Note_on_c, 2, 62, 88
4, 91890, Note_on_c, 2, 62, 0
4, 91920, Note_on_c, 2, 60, 88
4, 92130, Note_on_c, 2, 60, 0
4, 92160, Note_on_c, 2, 58, 88
4, 92590, Note_on_c, 2, 58, 0
4, 92640, Note_on_c, 2, 70, 88
4, 93280, Note_on_c, 2, 70, 0
4, 93360, Note_on_c, 2, 69, 88
4, 93480, Note_on_c, 2, 69, 0
4, 93480, Note_on_c, 2, 67, 88
4, 93600, Note_on_c, 2, 67, 0
4, 93600, Note_on_c, 2, 65, 88
4, 93840, Note_on_c, 2, 65, 0
4, 93840, Note_on_c, 2, 64, 88
4, 94080, Note_on_c, 2, 64, 0
4, 94080, Note_on_c, 2, 64, 88
4, 94510, Note_on_c, 2, 64, 0
4, 94560, Note_on_c, 2, 64, 88
4, 94990, Note_on_c, 2, 64, 0
4, 95040, Note_on_c, 2, 65, 88
4, 95470, Note_on_c, 2, 65, 0
4, 95760, Note_on_c, 2, 70, 88
4, 95970, Note_on_c, 2, 70, 0
4, 96000, Note_on_c, 2, 67, 88
4, 96210, Note_on_c, 2, 67, 0
4, 96240, Note_on_c, 2, 64, 88
4, 96450, Note_on_c, 2, 64, 0
4, 96480, Note_on_c, 2, 65, 88
4, 96910, Note_on_c, 2, 65, 0
4, 97200, Note_on_c, 2, 70, 88
4, 97410, Note_on_c, 2, 70, 0
4, 97440, Note_on_c, 2, 66, 88
4, 97650, Note_on_c, 2, 66, 0
4, 97680, Note_on_c, 2, 64, 88
4, 97890, Note_on_c, 2, 64, 0
4, 97920, Note_on_c, 2, 65, 88
4, 100320, Note_on_c, 2, 65, 0
4, 100320, Note_on_c, 2, 66, 88
4, 100800, Note_on_c, 2, 66, 0
4, 100800, Note_on_c, 2, 67, 88
4, 100960, Note_on_c, 2, 67, 0
4, 100960, Note_on_c, 2, 69, 88
4, 101120, Note_on_c, 2, 69, 0
4, 101120, Note_on_c, 2, 70, 88
4, 101280, Note_on_c, 2, 70, 0
4, 101280, Note_on_c, 2, 70, 88
4, 101880, Note_on_c, 2, 70, 0
4, 101880, Note_on_c, 2, 69, 88
4, 102000, Note_on_c, 2, 69, 0
4, 102000, Note_on_c, 2, 67, 88
4, 102120, Note_on_c, 2, 67, 0
4, 102120, Note_on_c, 2, 65, 88
4, 102240, Note_on_c, 2, 65, 0
4, 102240, Note_on_c, 2, 63, 88
4, 102400, Note_on_c, 2, 63, 0
4, 102400, Note_on_c, 2, 65, 88
4, 102560, Note_on_c, 2, 65, 0
4, 102560, Note_on_c, 2, 67, 88
4, 102720, Note_on_c, 2, 67, 0
4, 102720, Note_on_c, 2, 67, 88
4, 103320, Note_on_c, 2, 67, 0
4, 103320, Note_on_c, 2, 65, 88
4, 103440, Note_on_c, 2, 65, 0
4, 103440, Note_on_c, 2, 63, 88
4, 103560, Note_on_c, 2, 63, 0
4, 103560, Note_on_c, 2, 62, 88
4, 103680, Note_on_c, 2, 62, 0
4, 103680, Note_on_c, 2, 65, 88
4, 103920, Note_on_c, 2, 65, 0
4, 103920, Note_on_c, 2, 63, 88
4, 104160, Note_on_c, 2, 63, 0
4, 104160, Note_on_c, 2, 62, 88
4, 104590, Note_on_c, 2, 62, 0
4, 105120, Note_on_c, 2, 58, 88
4, 106410, Note_on_c, 2, 58, 0
4, 106560, Note_on_c, 2, 63, 88
4, 107850, Note_on_c, 2, 63, 0
4, 108000, Note_on_c, 2, 62, 88
4, 108240, Note_on_c, 2, 62, 0
4, 108240, Note_on_c, 2, 65, 88
4, 108480, Note_on_c, 2, 65, 0
4, 108480, Note_on_c, 2, 65, 88
4, 109120, Note_on_c, 2, 65, 0
4, 109200, Note_on_c, 2, 69, 88
4, 109320, Note_on_c, 2, 69, 0
4, 109320, Note_on_c, 2, 65, 88
4, 109440, Note_on_c, 2, 65, 0
4, 109440, Note_on_c, 2, 70, 88
4, 109650, Note_on_c, 2, 70, 0
4, 109680, Note_on_c, 2, 69, 88
4, 109890, Note_on_c, 2, 69, 0
4, 109920, Note_on_c, 2, 67, 88
4, 110130, Note_on_c, 2, 67, 0
4, 110160, Note_on_c, 2, 65, 88
4, 110370, Note_on_c, 2, 65, 0
4, 110400, Note_on_c, 2, 64, 88
4, 110610, Note_on_c, 2, 64, 0
4, 110640, Note_on_c, 2, 65, 88
4, 110850, Note_on_c, 2, 65, 0
4, 110880, Note_on_c, 2, 65, 88
4, 111000, Note_on_c, 2, 65, 0
4, 111000, Note_on_c, 2, 62, 88
4, 111120, Note_on_c, 2, 62, 0
4, 111120, Note_on_c, 2, 67, 88
4, 111240, Note_on_c, 2, 67, 0
4, 111240, Note_on_c, 2, 63, 88
4, 111360, Note_on_c, 2, 63, 0
4, 111360, Note_on_c, 2, 62, 88
4, 111790, Note_on_c, 2, 62, 0
4, 111840, Note_on_c, 2, 60, 88
4, 112270, Note_on_c, 2, 60, 0
4, 112320, Note_on_c, 2, 58, 88
4, 112750, Note_on_c, 2, 58, 0
4, 115920, Note_on_c, 2, 63, 88
4, 116020, Note_on_c, 2, 63, 0
4, 116040, Note_on_c, 2, 67, 88
4, 116140, Note_on_c, 2, 67, 0
4, 116160, Note_on_c, 2, 70, 88
4, 116370, Note_on_c, 2, 70, 0
4, 116400, Note_on_c, 2, 70, 88
4, 116610, Note_on_c, 2, 70, 0
4, 116640, Note_on_c, 2, 70, 88
4, 116850, Note_on_c, 2, 70, 0
4, 116880, Note_on_c, 2, 69, 88
4, 117090, Note_on_c, 2, 69, 0
4, 117120, Note_on_c, 2, 67, 88
4, 117330, Note_on_c, 2, 67, 0
4, 117360, Note_on_c, 2, 65, 88
4, 117570, Note_on_c, 2, 65, 0
4, 117600, Note_on_c, 2, 67, 88
4, 117810, Note_on_c, 2, 67, 0
4, 117840, Note_on_c, 2, 69, 88
4, 118050, Note_on_c, 2, 69, 0
4, 118080, Note_on_c, 2, 69, 88
4, 118320, Note_on_c, 2, 69, 0
4, 118320, Note_on_c, 2, 70, 88
4, 118560, Note_on_c, 2, 70, 0
4, 118560, Note_on_c, 2, 65, 88
4, 118990, Note_on_c, 2, 65, 0
4, 121680, Note_on_c, 2, 63, 88
4, 121780, Note_on_c, 2, 63, 0
4, 121800, Note_on_c, 2, 67, 88
4, 121900, Note_on_c, 2, 67, 0
4, 121920, Note_on_c, 2, 70, 88
4, 122130, Note_on_c, 2, 70, 0
4, 122160, Note_on_c, 2, 70, 88
4, 122370, Note_on_c, 2, 70, 0
4, 122400, Note_on_c, 2, 70, 88
4, 122610, Note_on_c, 2, 70, 0
4, 122640, Note_on_c, 2, 69, 88
4, 122850, Note_on_c, 2, 69, 0
4, 122880, Note_on_c, 2, 67, 88
4, 123090, Note_on_c, 2, 67, 0
4, 123120, Note_on_c, 2, 65, 88
4, 123330, Note_on_c, 2, 65, 0
4, 123360, Note_on_c, 2, 67, 88
4, 123570, Note_on_c, 2, 67, 0
4, 123600, Note_on_c, 2, 69, 88
4, 123810, Note_on_c, 2, 69, 0
4, 123840, Note_on_c, 2, 70, 88
4, 124270, Note_on_c, 2, 70, 0
4, 124560, Note_on_c, 2, 65, 88
4, 124770, Note_on_c, 2, 65, 0
4, 124800, Note_on_c, 2, 67, 88
4, 125010, Note_on_c, 2, 67, 0
4, 125040, Note_on_c, 2, 69, 88
4, 125250, Note_on_c, 2, 69, 0
4, 125280, Note_on_c, 2, 70, 88
4, 125710, Note_on_c, 2, 70, 0
4, 126000, Note_on_c, 2, 65, 88
4, 126210, Note_on_c, 2, 65, 0
4, 126240, Note_on_c, 2, 66, 88
4, 126340, Note_on_c, 2, 66, 0
4, 126360, Note_on_c, 2, 67, 88
4, 126460, Note_on_c, 2, 67, 0
4, 126480, Note_on_c, 2, 68, 88
4, 126580, Note_on_c, 2, 68, 0
4, 126600, Note_on_c, 2, 69, 88
4, 126700, Note_on_c, 2, 69, 0
4, 126720, Note_on_c, 2, 70, 88
4, 127150, Note_on_c, 2, 70, 0
4, 127200, Note_on_c, 2, 58, 88
4, 127630, Note_on_c, 2, 58, 0
4, 127680, Note_on_c, 2, 58, 88
4, 128110, Note_on_c, 2, 58, 0
4, 128160, Note_on_c, 2, 58, 88
4, 128590, Note_on_c, 2, 58, 0
4, 129600, End_track
5, 0, Start_track
5, 0, Title_t, "Violino I                           "
5, 0, Control_c, 3, 7, 60
5, 80, Control_c, 3, 91, 100
5, 160, Control_c, 3, 93, 50
5, 240, Control_c, 3, 10, 15
5, 320, Control_c, 3, 121, 0
5, 480, Pitch_bend_c, 3, 8192
5, 640, Control_c, 3, 1, 0
5, 800, Control_c, 3, 11, 127
5, 960, Control_c, 3, 65, 0
5, 1120, Control_c, 3, 66, 0
5, 1280, Control_c, 3, 67, 0
5, 1440, Program_c, 3, 48
5, 1440, Note_on_c, 3, 62, 51
5, 2730, Note_on_c, 3, 62, 0
5, 2880, Note_on_c, 3, 63, 51
5, 3040, Note_on_c, 3, 63, 0
5, 3040, Note_on_c, 3, 65, 51
5, 3200, Note_on_c, 3, 65, 0
5, 3200, Note_on_c, 3, 67, 51
5, 3360, Note_on_c, 3, 67, 0
5, 3360, Note_on_c, 3, 67, 51
5, 3960, Note_on_c, 3, 67, 0
5, 3960, Note_on_c, 3, 65, 51
5, 4080, Note_on_c, 3, 65, 0
5, 4080, Note_on_c, 3, 63, 51
5, 4200, Note_on_c, 3, 63, 0
5, 4200, Note_on_c, 3, 62, 51
5, 4320, Note_on_c, 3, 62, 0
5, 4320, Note_on_c, 3, 60, 51
5, 4480, Note_on_c, 3, 60, 0
5, 4480, Note_on_c, 3, 62, 51
5, 4640, Note_on_c, 3, 62, 0
5, 4640, Note_on_c, 3, 63, 51
5, 4800, Note_on_c, 3, 63, 0
5, 4800, Note_on_c, 3, 63, 51
5, 5400, Note_on_c, 3, 63, 0
5, 5400, Note_on_c, 3, 62, 51
5, 5520, Note_on_c, 3, 62, 0
5, 5520, Note_on_c, 3, 60, 51
5, 5640, Note_on_c, 3, 60, 0
5, 5640, Note_on_c, 3, 58, 51
5, 5760, Note_on_c, 3, 58, 0
5, 5760, Note_on_c, 3, 62, 51
5, 6000, Note_on_c, 3, 62, 0
5, 6000, Note_on_c, 3, 60, 51
5, 6240, Note_on_c, 3, 60, 0
5, 6240, Note_on_c, 3, 58, 51
5, 6670, Note_on_c, 3, 58, 0
5, 7680, Note_on_c, 3, 58, 51
5, 8540, Note_on_c, 3, 58, 0
5, 9120, Note_on_c, 3, 63, 51
5, 9980, Note_on_c, 3, 63, 0
5, 10080, Note_on_c, 3, 62, 51
5, 11040, Note_on_c, 3, 62, 0
5, 11040, Note_on_c, 3, 60, 51
5, 11520, Note_on_c, 3, 60, 0
5, 11520, Note_on_c, 3, 62, 51
5, 12480, Note_on_c, 3, 62, 0
5, 12480, Note_on_c, 3, 60, 51
5, 12960, Note_on_c, 3, 60, 0
5, 12960, Note_on_c, 3, 62, 51
5, 13680, Note_on_c, 3, 62, 0
5, 13680, Note_on_c, 3, 65, 51
5, 13920, Note_on_c, 3, 65, 0
5, 13920, Note_on_c, 3, 67, 51
5, 14160, Note_on_c, 3, 67, 0
5, 14160, Note_on_c, 3, 75, 51
5, 14400, Note_on_c, 3, 75, 0
5, 14400, Control_c, 3, 11, 85
5, 14400, Note_on_c, 3, 74, 76
5, 14830, Note_on_c, 3, 74, 0
5, 14880, Control_c, 3, 11, 88
5, 14880, Note_on_c, 3, 72, 76
5, 15000, Control_c, 3, 11, 93
5, 15120, Note_on_c, 3, 72, 0
5, 15120, Control_c, 3, 11, 98
5, 15120, Note_on_c, 3, 74, 76
5, 15240, Control_c, 3, 11, 103
5, 15360, Note_on_c, 3, 74, 0
5, 15360, Control_c, 3, 11, 108
5, 15360, Note_on_c, 3, 75, 76
5, 15480, Control_c, 3, 11, 113
5, 15600, Note_on_c, 3, 75, 0
5, 15600, Control_c, 3, 11, 118
5, 15600, Note_on_c, 3, 76, 76
5, 15720, Control_c, 3, 11, 123
5, 15840, Note_on_c, 3, 76, 0
5, 15840, Control_c, 3, 11, 127
5, 15840, Note_on_c, 3, 77, 76
5, 17130, Note_on_c, 3, 77, 0
5, 17280, Note_on_c, 3, 79, 76
5, 17440, Note_on_c, 3, 79, 0
5, 17440, Note_on_c, 3, 81, 76
5, 17600, Note_on_c, 3, 81, 0
5, 17600, Note_on_c, 3, 82, 76
5, 17760, Note_on_c, 3, 82, 0
5, 17760, Note_on_c, 3, 82, 76
5, 18360, Note_on_c, 3, 82, 0
5, 18360, Note_on_c, 3, 81, 76
5, 18480, Note_on_c, 3, 81, 0
5, 18480, Note_on_c, 3, 79, 76
5, 18600, Note_on_c, 3, 79, 0
5, 18600, Note_on_c, 3, 77, 76
5, 18720, Note_on_c, 3, 77, 0
5, 18720, Note_on_c, 3, 75, 76
5, 18880, Note_on_c, 3, 75, 0
5, 18880, Note_on_c, 3, 77, 76
5, 19040, Note_on_c, 3, 77, 0
5, 19040, Note_on_c, 3, 79, 76
5, 19200, Note_on_c, 3, 79, 0
5, 19200, Note_on_c, 3, 79, 76
5, 19800, Note_on_c, 3, 79, 0
5, 19800, Note_on_c, 3, 77, 76
5, 19920, Note_on_c, 3, 77, 0
5, 19920, Note_on_c, 3, 75, 76
5, 20040, Note_on_c, 3, 75, 0
5, 20040, Note_on_c, 3, 74, 76
5, 20160, Note_on_c, 3, 74, 0
5, 20160, Note_on_c, 3, 77, 76
5, 20400, Note_on_c, 3, 77, 0
5, 20400, Note_on_c, 3, 75, 76
5, 20640, Note_on_c, 3, 75, 0
5, 20640, Note_on_c, 3, 74, 76
5, 21070, Note_on_c, 3, 74, 0
5, 21600, Note_on_c, 3, 70, 51
5, 22890, Note_on_c, 3, 70, 0
5, 23040, Note_on_c, 3, 75, 51
5, 24330, Note_on_c, 3, 75, 0
5, 24480, Note_on_c, 3, 74, 51
5, 24720, Note_on_c, 3, 74, 0
5, 24720, Note_on_c, 3, 77, 51
5, 24960, Note_on_c, 3, 77, 0
5, 24960, Control_c, 3, 11, 85
5, 24960, Note_on_c, 3, 82, 76
5, 25080, Control_c, 3, 11, 90
5, 25200, Note_on_c, 3, 82, 0
5, 25200, Control_c, 3, 11, 96
5, 25200, Note_on_c, 3, 86, 76
5, 25320, Control_c, 3, 11, 101
5, 25440, Note_on_c, 3, 86, 0
5, 25440, Control_c, 3, 11, 108
5, 25440, Note_on_c, 3, 84, 76
5, 25560, Control_c, 3, 11, 113
5, 25680, Note_on_c, 3, 84, 0
5, 25680, Control_c, 3, 11, 120
5, 25680, Note_on_c, 3, 82, 76
5, 25800, Control_c, 3, 11, 127
5, 25920, Note_on_c, 3, 82, 0
5, 25920, Note_on_c, 3, 81, 76
5, 26640, Note_on_c, 3, 81, 0
5, 26640, Note_on_c, 3, 82, 76
5, 26760, Note_on_c, 3, 82, 0
5, 26760, Note_on_c, 3, 84, 76
5, 26880, Note_on_c, 3, 84, 0
5, 26880, Note_on_c, 3, 82, 76
5, 27000, Note_on_c, 3, 82, 0
5, 27000, Note_on_c, 3, 77, 76
5, 27120, Note_on_c, 3, 77, 0
5, 27120, Note_on_c, 3, 75, 76
5, 27240, Note_on_c, 3, 75, 0
5, 27240, Note_on_c, 3, 74, 76
5, 27360, Note_on_c, 3, 74, 0
5, 27360, Note_on_c, 3, 74, 76
5, 27480, Note_on_c, 3, 74, 0
5, 27480, Note_on_c, 3, 72, 76
5, 27600, Note_on_c, 3, 72, 0
5, 27600, Note_on_c, 3, 75, 76
5, 27720, Note_on_c, 3, 75, 0
5, 27720, Note_on_c, 3, 79, 76
5, 27820, Note_on_c, 3, 79, 0
5, 27840, Note_on_c, 3, 70, 76
5, 28270, Note_on_c, 3, 70, 0
5, 28320, Note_on_c, 3, 74, 83
5, 28420, Note_on_c, 3, 74, 0
5, 28440, Note_on_c, 3, 72, 76
5, 28680, Note_on_c, 3, 72, 0
5, 28680, Note_on_c, 3, 70, 76
5, 28780, Note_on_c, 3, 70, 0
5, 28800, Note_on_c, 3, 70, 76
5, 29230, Note_on_c, 3, 70, 0
5, 29280, Note_on_c, 3, 58, 76
5, 29710, Note_on_c, 3, 58, 0
5, 30480, Note_on_c, 3, 65, 51
5, 30690, Note_on_c, 3, 65, 0
5, 30720, Note_on_c, 3, 65, 51
5, 30930, Note_on_c, 3, 65, 0
5, 30960, Note_on_c, 3, 65, 51
5, 31170, Note_on_c, 3, 65, 0
5, 31200, Note_on_c, 3, 65, 51
5, 31410, Note_on_c, 3, 65, 0
5, 31440, Note_on_c, 3, 65, 51
5, 31650, Note_on_c, 3, 65, 0
5, 31920, Note_on_c, 3, 64, 51
5, 32130, Note_on_c, 3, 64, 0
5, 32160, Note_on_c, 3, 64, 51
5, 32370, Note_on_c, 3, 64, 0
5, 32400, Note_on_c, 3, 64, 51
5, 32610, Note_on_c, 3, 64, 0
5, 32640, Note_on_c, 3, 64, 51
5, 32850, Note_on_c, 3, 64, 0
5, 32880, Note_on_c, 3, 64, 51
5, 33090, Note_on_c, 3, 64, 0
5, 33360, Note_on_c, 3, 63, 51
5, 33570, Note_on_c, 3, 63, 0
5, 33600, Note_on_c, 3, 63, 51
5, 33810, Note_on_c, 3, 63, 0
5, 33840, Note_on_c, 3, 63, 51
5, 34050, Note_on_c, 3, 63, 0
5, 34080, Note_on_c, 3, 75, 51
5, 34320, Note_on_c, 3, 75, 0
5, 34320, Note_on_c, 3, 69, 51
5, 34560, Note_on_c, 3, 69, 0
5, 34560, Note_on_c, 3, 70, 51
5, 34800, Note_on_c, 3, 70, 0
5, 34800, Note_on_c, 3, 74, 51
5, 35040, Note_on_c, 3, 74, 0
5, 35040, Note_on_c, 3, 72, 51
5, 35250, Note_on_c, 3, 72, 0
5, 35280, Note_on_c, 3, 77, 51
5, 35520, Note_on_c, 3, 77, 0
5, 35520, Note_on_c, 3, 76, 51
5, 35760, Note_on_c, 3, 76, 0
5, 35760, Note_on_c, 3, 77, 51
5, 36000, Note_on_c, 3, 77, 0
5, 36240, Note_on_c, 3, 65, 51
5, 36450, Note_on_c, 3, 65, 0
5, 36480, Note_on_c, 3, 65, 51
5, 36690, Note_on_c, 3, 65, 0
5, 36720, Note_on_c, 3, 65, 51
5, 36930, Note_on_c, 3, 65, 0
5, 36960, Note_on_c, 3, 65, 51
5, 37170, Note_on_c, 3, 65, 0
5, 37200, Note_on_c, 3, 65, 51
5, 37410, Note_on_c, 3, 65, 0
5, 37680, Note_on_c, 3, 64, 51
5, 37890, Note_on_c, 3, 64, 0
5, 37920, Note_on_c, 3, 64, 51
5, 38130, Note_on_c, 3, 64, 0
5, 38160, Note_on_c, 3, 64, 51
5, 38370, Note_on_c, 3, 64, 0
5, 38400, Note_on_c, 3, 64, 51
5, 38610, Note_on_c, 3, 64, 0
5, 38640, Note_on_c, 3, 64, 51
5, 38850, Note_on_c, 3, 64, 0
5, 39120, Note_on_c, 3, 63, 51
5, 39330, Note_on_c, 3, 63, 0
5, 39360, Note_on_c, 3, 63, 51
5, 39570, Note_on_c, 3, 63, 0
5, 39600, Note_on_c, 3, 75, 51
5, 39840, Note_on_c, 3, 75, 0
5, 39840, Note_on_c, 3, 74, 51
5, 40080, Note_on_c, 3, 74, 0
5, 40080, Note_on_c, 3, 72, 51
5, 40320, Note_on_c, 3, 72, 0
5, 40320, Note_on_c, 3, 70, 51
5, 40560, Note_on_c, 3, 70, 0
5, 40560, Note_on_c, 3, 74, 51
5, 40800, Note_on_c, 3, 74, 0
5, 40800, Note_on_c, 3, 72, 51
5, 41010, Note_on_c, 3, 72, 0
5, 41040, Note_on_c, 3, 77, 51
5, 41280, Note_on_c, 3, 77, 0
5, 41280, Note_on_c, 3, 76, 51
5, 41520, Note_on_c, 3, 76, 0
5, 41520, Note_on_c, 3, 77, 51
5, 41760, Note_on_c, 3, 77, 0
5, 42000, Note_on_c, 3, 62, 51
5, 42210, Note_on_c, 3, 62, 0
5, 42480, Note_on_c, 3, 64, 51
5, 42690, Note_on_c, 3, 64, 0
5, 42960, Note_on_c, 3, 65, 51
5, 43170, Note_on_c, 3, 65, 0
5, 43440, Note_on_c, 3, 66, 51
5, 43650, Note_on_c, 3, 66, 0
5, 43920, Note_on_c, 3, 67, 51
5, 44130, Note_on_c, 3, 67, 0
5, 44400, Note_on_c, 3, 68, 51
5, 44610, Note_on_c, 3, 68, 0
5, 44640, Note_on_c, 3, 69, 51
5, 45070, Note_on_c, 3, 69, 0
5, 45600, Note_on_c, 3, 67, 51
5, 46080, Note_on_c, 3, 67, 0
5, 46080, Note_on_c, 3, 65, 51
5, 46560, Note_on_c, 3, 65, 0
5, 47040, Note_on_c, 3, 65, 51
5, 47470, Note_on_c, 3, 65, 0
5, 47520, Note_on_c, 3, 65, 51
5, 47950, Note_on_c, 3, 65, 0
5, 48480, Note_on_c, 3, 64, 51
5, 48690, Note_on_c, 3, 64, 0
5, 48720, Note_on_c, 3, 67, 51
5, 48930, Note_on_c, 3, 67, 0
5, 48960, Note_on_c, 3, 65, 51
5, 49390, Note_on_c, 3, 65, 0
5, 49920, Note_on_c, 3, 65, 51
5, 50350, Note_on_c, 3, 65, 0
5, 50400, Note_on_c, 3, 65, 51
5, 50830, Note_on_c, 3, 65, 0
5, 51360, Note_on_c, 3, 64, 51
5, 51600, Note_on_c, 3, 64, 0
5, 51600, Note_on_c, 3, 67, 51
5, 51840, Note_on_c, 3, 67, 0
5, 51840, Note_on_c, 3, 65, 51
5, 52080, Note_on_c, 3, 65, 0
5, 52080, Note_on_c, 3, 55, 51
5, 52320, Note_on_c, 3, 55, 0
5, 52320, Note_on_c, 3, 58, 51
5, 52560, Note_on_c, 3, 58, 0
5, 52560, Note_on_c, 3, 60, 51
5, 52800, Note_on_c, 3, 60, 0
5, 52800, Note_on_c, 3, 62, 51
5, 53040, Note_on_c, 3, 62, 0
5, 53040, Note_on_c, 3, 63, 51
5, 53280, Note_on_c, 3, 63, 0
5, 53280, Note_on_c, 3, 65, 51
5, 53710, Note_on_c, 3, 65, 0
5, 53760, Note_on_c, 3, 62, 51
5, 54620, Note_on_c, 3, 62, 0
5, 54720, Note_on_c, 3, 63, 51
5, 54880, Note_on_c, 3, 63, 0
5, 54880, Note_on_c, 3, 65, 51
5, 55040, Note_on_c, 3, 65, 0
5, 55040, Note_on_c, 3, 67, 51
5, 55200, Note_on_c, 3, 67, 0
5, 55200, Note_on_c, 3, 67, 51
5, 55800, Note_on_c, 3, 67, 0
5, 55800, Note_on_c, 3, 65, 51
5, 55920, Note_on_c, 3, 65, 0
5, 55920, Note_on_c, 3, 63, 51
5, 56040, Note_on_c, 3, 63, 0
5, 56040, Note_on_c, 3, 62, 51
5, 56160, Note_on_c, 3, 62, 0
5, 56160, Note_on_c, 3, 60, 51
5, 56320, Note_on_c, 3, 60, 0
5, 56320, Note_on_c, 3, 62, 51
5, 56480, Note_on_c, 3, 62, 0
5, 56480, Note_on_c, 3, 63, 51
5, 56640, Note_on_c, 3, 63, 0
5, 56640, Note_on_c, 3, 63, 51
5, 57240, Note_on_c, 3, 63, 0
5, 57240, Note_on_c, 3, 62, 51
5, 57360, Note_on_c, 3, 62, 0
5, 57360, Note_on_c, 3, 60, 51
5, 57480, Note_on_c, 3, 60, 0
5, 57480, Note_on_c, 3, 58, 51
5, 57600, Note_on_c, 3, 58, 0
5, 57600, Note_on_c, 3, 62, 51
5, 57840, Note_on_c, 3, 62, 0
5, 57840, Note_on_c, 3, 60, 51
5, 58080, Note_on_c, 3, 60, 0
5, 58080, Note_on_c, 3, 58, 51
5, 58510, Note_on_c, 3, 58, 0
5, 59520, Note_on_c, 3, 58, 51
5, 60380, Note_on_c, 3, 58, 0
5, 60960, Note_on_c, 3, 63, 51
5, 61820, Note_on_c, 3, 63, 0
5, 61920, Note_on_c, 3, 62, 51
5, 62880, Note_on_c, 3, 62, 0
5, 62880, Note_on_c, 3, 60, 51
5, 63360, Note_on_c, 3, 60, 0
5, 63360, Note_on_c, 3, 62, 51
5, 63790, Note_on_c, 3, 62, 0
5, 64080, Note_on_c, 3, 77, 51
5, 64320, Note_on_c, 3, 77, 0
5, 64320, Note_on_c, 3, 76, 51
5, 64560, Note_on_c, 3, 76, 0
5, 64560, Note_on_c, 3, 77, 51
5, 64800, Note_on_c, 3, 77, 0
5, 64800, Note_on_c, 3, 77, 51
5, 65040, Note_on_c, 3, 77, 0
5, 65040, Note_on_c, 3, 75, 51
5, 65280, Note_on_c, 3, 75, 0
5, 65280, Note_on_c, 3, 74, 51
5, 65490, Note_on_c, 3, 74, 0
5, 65760, Note_on_c, 3, 72, 51
5, 65970, Note_on_c, 3, 72, 0
5, 66240, Note_on_c, 3, 70, 51
5, 66480, Note_on_c, 3, 70, 0
5, 66480, Control_c, 3, 11, 85
5, 66480, Note_on_c, 3, 74, 76
5, 66720, Note_on_c, 3, 74, 0
5, 66720, Control_c, 3, 11, 86
5, 66720, Note_on_c, 3, 77, 76
5, 66840, Control_c, 3, 11, 91
5, 66960, Note_on_c, 3, 77, 0
5, 66960, Control_c, 3, 11, 96
5, 66960, Note_on_c, 3, 82, 76
5, 67080, Control_c, 3, 11, 103
5, 67200, Note_on_c, 3, 82, 0
5, 67200, Control_c, 3, 11, 108
5, 67200, Note_on_c, 3, 86, 76
5, 67320, Control_c, 3, 11, 113
5, 67440, Note_on_c, 3, 86, 0
5, 67440, Control_c, 3, 11, 118
5, 67440, Note_on_c, 3, 82, 76
5, 67560, Control_c, 3, 11, 123
5, 67680, Note_on_c, 3, 82, 0
5, 67680, Control_c, 3, 11, 127
5, 67680, Note_on_c, 3, 87, 76
5, 68280, Note_on_c, 3, 87, 0
5, 68280, Note_on_c, 3, 84, 76
5, 68400, Note_on_c, 3, 84, 0
5, 68400, Note_on_c, 3, 81, 76
5, 68520, Note_on_c, 3, 81, 0
5, 68520, Note_on_c, 3, 84, 76
5, 68640, Note_on_c, 3, 84, 0
5, 68640, Note_on_c, 3, 82, 76
5, 68760, Note_on_c, 3, 82, 0
5, 68760, Note_on_c, 3, 77, 76
5, 68880, Note_on_c, 3, 77, 0
5, 68880, Note_on_c, 3, 86, 76
5, 69000, Note_on_c, 3, 86, 0
5, 69000, Note_on_c, 3, 82, 76
5, 69120, Note_on_c, 3, 82, 0
5, 69120, Note_on_c, 3, 87, 76
5, 69720, Note_on_c, 3, 87, 0
5, 69720, Note_on_c, 3, 84, 76
5, 69840, Note_on_c, 3, 84, 0
5, 69840, Note_on_c, 3, 81, 76
5, 69960, Note_on_c, 3, 81, 0
5, 69960, Note_on_c, 3, 84, 76
5, 70080, Note_on_c, 3, 84, 0
5, 70080, Note_on_c, 3, 82, 76
5, 70200, Note_on_c, 3, 82, 0
5, 70200, Note_on_c, 3, 86, 76
5, 70320, Note_on_c, 3, 86, 0
5, 70320, Note_on_c, 3, 77, 76
5, 70440, Note_on_c, 3, 77, 0
5, 70440, Note_on_c, 3, 78, 76
5, 70560, Note_on_c, 3, 78, 0
5, 70560, Note_on_c, 3, 79, 76
5, 70680, Note_on_c, 3, 79, 0
5, 70680, Note_on_c, 3, 82, 76
5, 70800, Note_on_c, 3, 82, 0
5, 70800, Note_on_c, 3, 72, 76
5, 70920, Note_on_c, 3, 72, 0
5, 70920, Note_on_c, 3, 75, 76
5, 71040, Note_on_c, 3, 75, 0
5, 71040, Note_on_c, 3, 74, 76
5, 71160, Note_on_c, 3, 74, 0
5, 71160, Note_on_c, 3, 77, 76
5, 71280, Note_on_c, 3, 77, 0
5, 71280, Note_on_c, 3, 70, 76
5, 71400, Note_on_c, 3, 70, 0
5, 71400, Note_on_c, 3, 74, 76
5, 71520, Note_on_c, 3, 74, 0
5, 71520, Note_on_c, 3, 72, 76
5, 71640, Note_on_c, 3, 72, 0
5, 71640, Note_on_c, 3, 75, 76
5, 71760, Note_on_c, 3, 75, 0
5, 71760, Note_on_c, 3, 69, 76
5, 71880, Note_on_c, 3, 69, 0
5, 71880, Note_on_c, 3, 72, 76
5, 72000, Note_on_c, 3, 72, 0
5, 72000, Note_on_c, 3, 70, 76
5, 72430, Note_on_c, 3, 70, 0
5, 73680, Note_on_c, 3, 62, 51
5, 73890, Note_on_c, 3, 62, 0
5, 73920, Note_on_c, 3, 62, 51
5, 74130, Note_on_c, 3, 62, 0
5, 74160, Note_on_c, 3, 62, 51
5, 74370, Note_on_c, 3, 62, 0
5, 74400, Note_on_c, 3, 62, 51
5, 74610, Note_on_c, 3, 62, 0
5, 74640, Note_on_c, 3, 62, 51
5, 74850, Note_on_c, 3, 62, 0
5, 75120, Note_on_c, 3, 62, 51
5, 75330, Note_on_c, 3, 62, 0
5, 75360, Note_on_c, 3, 62, 51
5, 75570, Note_on_c, 3, 62, 0
5, 75600, Note_on_c, 3, 62, 51
5, 75810, Note_on_c, 3, 62, 0
5, 75840, Note_on_c, 3, 62, 51
5, 76050, Note_on_c, 3, 62, 0
5, 76080, Note_on_c, 3, 62, 51
5, 76290, Note_on_c, 3, 62, 0
5, 76560, Note_on_c, 3, 62, 51
5, 76770, Note_on_c, 3, 62, 0
5, 76800, Note_on_c, 3, 62, 51
5, 77010, Note_on_c, 3, 62, 0
5, 77040, Note_on_c, 3, 62, 51
5, 77250, Note_on_c, 3, 62, 0
5, 77280, Note_on_c, 3, 62, 51
5, 77490, Note_on_c, 3, 62, 0
5, 77520, Note_on_c, 3, 62, 51
5, 77730, Note_on_c, 3, 62, 0
5, 78000, Note_on_c, 3, 62, 51
5, 78210, Note_on_c, 3, 62, 0
5, 78240, Note_on_c, 3, 62, 51
5, 78450, Note_on_c, 3, 62, 0
5, 78480, Note_on_c, 3, 62, 51
5, 78690, Note_on_c, 3, 62, 0
5, 78720, Note_on_c, 3, 62, 51
5, 78930, Note_on_c, 3, 62, 0
5, 78960, Note_on_c, 3, 62, 51
5, 79170, Note_on_c, 3, 62, 0
5, 79440, Note_on_c, 3, 62, 51
5, 79650, Note_on_c, 3, 62, 0
5, 79680, Note_on_c, 3, 62, 51
5, 79890, Note_on_c, 3, 62, 0
5, 79920, Note_on_c, 3, 62, 51
5, 80130, Note_on_c, 3, 62, 0
5, 80160, Note_on_c, 3, 62, 51
5, 80370, Note_on_c, 3, 62, 0
5, 80400, Note_on_c, 3, 62, 51
5, 80610, Note_on_c, 3, 62, 0
5, 80880, Note_on_c, 3, 63, 51
5, 81090, Note_on_c, 3, 63, 0
5, 81120, Note_on_c, 3, 63, 51
5, 81330, Note_on_c, 3, 63, 0
5, 81360, Note_on_c, 3, 63, 51
5, 81570, Note_on_c, 3, 63, 0
5, 81600, Note_on_c, 3, 63, 51
5, 81810, Note_on_c, 3, 63, 0
5, 81840, Note_on_c, 3, 63, 51
5, 82050, Note_on_c, 3, 63, 0
5, 82320, Note_on_c, 3, 63, 51
5, 82320, Note_on_c, 3, 60, 51
5, 82530, Note_on_c, 3, 63, 0
5, 82530, Note_on_c, 3, 60, 0
5, 82560, Note_on_c, 3, 63, 51
5, 82560, Note_on_c, 3, 60, 51
5, 82770, Note_on_c, 3, 63, 0
5, 82770, Note_on_c, 3, 60, 0
5, 82800, Note_on_c, 3, 63, 51
5, 82800, Note_on_c, 3, 60, 51
5, 83010, Note_on_c, 3, 63, 0
5, 83010, Note_on_c, 3, 60, 0
5, 83040, Note_on_c, 3, 63, 51
5, 83040, Note_on_c, 3, 60, 51
5, 83250, Note_on_c, 3, 63, 0
5, 83250, Note_on_c, 3, 60, 0
5, 83280, Note_on_c, 3, 63, 51
5, 83280, Note_on_c, 3, 60, 51
5, 83490, Note_on_c, 3, 63, 0
5, 83490, Note_on_c, 3, 60, 0
5, 83760, Note_on_c, 3, 60, 51
5, 84000, Note_on_c, 3, 60, 0
5, 84000, Note_on_c, 3, 62, 51
5, 84240, Note_on_c, 3, 62, 0
5, 84240, Note_on_c, 3, 62, 51
5, 84450, Note_on_c, 3, 62, 0
5, 84480, Note_on_c, 3, 62, 51
5, 84690, Note_on_c, 3, 62, 0
5, 84720, Note_on_c, 3, 62, 51
5, 84930, Note_on_c, 3, 62, 0
5, 85200, Note_on_c, 3, 68, 51
5, 85410, Note_on_c, 3, 68, 0
5, 85440, Note_on_c, 3, 68, 51
5, 85650, Note_on_c, 3, 68, 0
5, 85680, Note_on_c, 3, 68, 51
5, 85890, Note_on_c, 3, 68, 0
5, 85920, Note_on_c, 3, 68, 51
5, 86130, Note_on_c, 3, 68, 0
5, 86160, Note_on_c, 3, 68, 51
5, 86370, Note_on_c, 3, 68, 0
5, 86640, Note_on_c, 3, 67, 51
5, 86850, Note_on_c, 3, 67, 0
5, 86880, Note_on_c, 3, 67, 51
5, 87090, Note_on_c, 3, 67, 0
5, 87120, Note_on_c, 3, 67, 51
5, 87330, Note_on_c, 3, 67, 0
5, 87360, Note_on_c, 3, 71, 51
5, 87570, Note_on_c, 3, 71, 0
5, 87600, Note_on_c, 3, 71, 51
5, 87810, Note_on_c, 3, 71, 0
5, 88080, Note_on_c, 3, 72, 51
5, 88290, Note_on_c, 3, 72, 0
5, 88320, Note_on_c, 3, 72, 51
5, 88530, Note_on_c, 3, 72, 0
5, 88560, Note_on_c, 3, 72, 51
5, 88770, Note_on_c, 3, 72, 0
5, 88800, Note_on_c, 3, 70, 51
5, 89010, Note_on_c, 3, 70, 0
5, 89040, Note_on_c, 3, 70, 51
5, 89250, Note_on_c, 3, 70, 0
5, 89520, Note_on_c, 3, 69, 51
5, 89730, Note_on_c, 3, 69, 0
5, 89760, Note_on_c, 3, 69, 51
5, 89970, Note_on_c, 3, 69, 0
5, 90000, Note_on_c, 3, 69, 51
5, 90210, Note_on_c, 3, 69, 0
5, 90240, Note_on_c, 3, 73, 51
5, 90450, Note_on_c, 3, 73, 0
5, 90480, Note_on_c, 3, 73, 51
5, 90690, Note_on_c, 3, 73, 0
5, 90960, Note_on_c, 3, 74, 51
5, 91170, Note_on_c, 3, 74, 0
5, 91200, Note_on_c, 3, 74, 51
5, 91440, Note_on_c, 3, 74, 0
5, 91440, Note_on_c, 3, 75, 51
5, 91680, Note_on_c, 3, 75, 0
5, 91680, Note_on_c, 3, 74, 51
5, 91920, Note_on_c, 3, 74, 0
5, 91920, Note_on_c, 3, 72, 51
5, 92160, Note_on_c, 3, 72, 0
5, 92400, Note_on_c, 3, 70, 51
5, 92610, Note_on_c, 3, 70, 0
5, 92640, Note_on_c, 3, 70, 51
5, 92850, Note_on_c, 3, 70, 0
5, 92880, Note_on_c, 3, 70, 51
5, 93090, Note_on_c, 3, 70, 0
5, 93120, Note_on_c, 3, 70, 51
5, 93330, Note_on_c, 3, 70, 0
5, 93360, Note_on_c, 3, 70, 51
5, 93570, Note_on_c, 3, 70, 0
5, 93840, Note_on_c, 3, 60, 51
5, 94050, Note_on_c, 3, 60, 0
5, 94080, Note_on_c, 3, 60, 51
5, 94290, Note_on_c, 3, 60, 0
5, 94320, Note_on_c, 3, 60, 51
5, 94530, Note_on_c, 3, 60, 0
5, 94560, Note_on_c, 3, 60, 51
5, 94770, Note_on_c, 3, 60, 0
5, 94800, Note_on_c, 3, 60, 51
5, 95010, Note_on_c, 3, 60, 0
5, 95040, Note_on_c, 3, 60, 51
5, 95520, Note_on_c, 3, 60, 0
5, 95520, Note_on_c, 3, 62, 51
5, 96000, Note_on_c, 3, 62, 0
5, 96000, Note_on_c, 3, 58, 51
5, 96480, Note_on_c, 3, 58, 0
5, 96480, Note_on_c, 3, 57, 51
5, 96720, Note_on_c, 3, 57, 0
5, 96720, Note_on_c, 3, 60, 51
5, 96960, Note_on_c, 3, 60, 0
5, 96960, Note_on_c, 3, 61, 51
5, 97440, Note_on_c, 3, 61, 0
5, 97440, Note_on_c, 3, 58, 51
5, 97920, Note_on_c, 3, 58, 0
5, 97920, Note_on_c, 3, 57, 51
5, 98400, Note_on_c, 3, 57, 0
5, 98400, Note_on_c, 3, 58, 51
5, 98640, Note_on_c, 3, 58, 0
5, 98640, Note_on_c, 3, 60, 51
5, 98880, Note_on_c, 3, 60, 0
5, 98880, Note_on_c, 3, 62, 51
5, 99120, Note_on_c, 3, 62, 0
5, 99120, Note_on_c, 3, 63, 51
5, 99360, Note_on_c, 3, 63, 0
5, 99360, Note_on_c, 3, 62, 51
5, 100650, Note_on_c, 3, 62, 0
5, 100800, Note_on_c, 3, 63, 51
5, 100960, Note_on_c, 3, 63, 0
5, 100960, Note_on_c, 3, 65, 51
5, 101120, Note_on_c, 3, 65, 0
5, 101120, Note_on_c, 3, 67, 51
5, 101280, Note_on_c, 3, 67, 0
5, 101280, Note_on_c, 3, 67, 51
5, 101880, Note_on_c, 3, 67, 0
5, 101880, Note_on_c, 3, 65, 51
5, 102000, Note_on_c, 3, 65, 0
5, 102000, Note_on_c, 3, 63, 51
5, 102120, Note_on_c, 3, 63, 0
5, 102120, Note_on_c, 3, 62, 51
5, 102240, Note_on_c, 3, 62, 0
5, 102240, Note_on_c, 3, 60, 51
5, 102400, Note_on_c, 3, 60, 0
5, 102400, Note_on_c, 3, 62, 51
5, 102560, Note_on_c, 3, 62, 0
5, 102560, Note_on_c, 3, 63, 51
5, 102720, Note_on_c, 3, 63, 0
5, 102720, Note_on_c, 3, 63, 51
5, 103320, Note_on_c, 3, 63, 0
5, 103320, Note_on_c, 3, 62, 51
5, 103440, Note_on_c, 3, 62, 0
5, 103440, Note_on_c, 3, 60, 51
5, 103560, Note_on_c, 3, 60, 0
5, 103560, Note_on_c, 3, 58, 51
5, 103680, Note_on_c, 3, 58, 0
5, 103680, Note_on_c, 3, 62, 51
5, 103920, Note_on_c, 3, 62, 0
5, 103920, Note_on_c, 3, 60, 51
5, 104160, Note_on_c, 3, 60, 0
5, 104160, Note_on_c, 3, 58, 51
5, 104590, Note_on_c, 3, 58, 0
5, 105600, Note_on_c, 3, 58, 51
5, 106460, Note_on_c, 3, 58, 0
5, 107040, Note_on_c, 3, 63, 51
5, 107900, Note_on_c, 3, 63, 0
5, 108000, Note_on_c, 3, 62, 51
5, 108960, Note_on_c, 3, 62, 0
5, 108960, Note_on_c, 3, 60, 51
5, 109440, Note_on_c, 3, 60, 0
5, 109440, Note_on_c, 3, 62, 51
5, 109870, Note_on_c, 3, 62, 0
5, 110160, Note_on_c, 3, 77, 51
5, 110400, Note_on_c, 3, 77, 0
5, 110400, Note_on_c, 3, 76, 51
5, 110640, Note_on_c, 3, 76, 0
5, 110640, Note_on_c, 3, 77, 51
5, 110880, Note_on_c, 3, 77, 0
5, 110880, Note_on_c, 3, 77, 51
5, 111120, Note_on_c, 3, 77, 0
5, 111120, Note_on_c, 3, 75, 51
5, 111360, Note_on_c, 3, 75, 0
5, 111360, Note_on_c, 3, 74, 51
5, 111570, Note_on_c, 3, 74, 0
5, 111840, Note_on_c, 3, 72, 51
5, 112050, Note_on_c, 3, 72, 0
5, 112320, Note_on_c, 3, 70, 51
5, 112750, Note_on_c, 3, 70, 0
5, 114000, Note_on_c, 3, 77, 51
5, 114120, Note_on_c, 3, 77, 0
5, 114120, Note_on_c, 3, 79, 51
5, 114240, Note_on_c, 3, 79, 0
5, 114240, Note_on_c, 3, 80, 51
5, 114480, Note_on_c, 3, 80, 0
5, 114480, Note_on_c, 3, 77, 51
5, 114690, Note_on_c, 3, 77, 0
5, 114720, Note_on_c, 3, 72, 51
5, 114930, Note_on_c, 3, 72, 0
5, 114960, Note_on_c, 3, 74, 51
5, 115170, Note_on_c, 3, 74, 0
5, 115200, Note_on_c, 3, 75, 51
5, 115320, Note_on_c, 3, 75, 0
5, 115320, Note_on_c, 3, 77, 51
5, 115360, Note_on_c, 3, 77, 0
5, 115360, Note_on_c, 3, 75, 51
5, 115400, Note_on_c, 3, 75, 0
5, 115400, Note_on_c, 3, 74, 51
5, 115440, Note_on_c, 3, 74, 0
5, 115440, Note_on_c, 3, 75, 51
5, 115560, Note_on_c, 3, 75, 0
5, 115560, Note_on_c, 3, 77, 51
5, 115680, Note_on_c, 3, 77, 0
5, 115680, Note_on_c, 3, 79, 51
5, 116110, Note_on_c, 3, 79, 0
5, 116880, Note_on_c, 3, 65, 51
5, 117120, Note_on_c, 3, 65, 0
5, 117120, Note_on_c, 3, 77, 51
5, 117360, Note_on_c, 3, 77, 0
5, 117360, Note_on_c, 3, 77, 51
5, 117570, Note_on_c, 3, 77, 0
5, 117600, Note_on_c, 3, 77, 51
5, 117810, Note_on_c, 3, 77, 0
5, 117840, Note_on_c, 3, 77, 51
5, 118050, Note_on_c, 3, 77, 0
5, 118080, Note_on_c, 3, 77, 51
5, 118440, Note_on_c, 3, 77, 0
5, 118440, Note_on_c, 3, 74, 51
5, 118560, Note_on_c, 3, 74, 0
5, 118560, Note_on_c, 3, 70, 51
5, 118990, Note_on_c, 3, 70, 0
5, 119760, Note_on_c, 3, 77, 51
5, 119880, Note_on_c, 3, 77, 0
5, 119880, Note_on_c, 3, 79, 51
5, 120000, Note_on_c, 3, 79, 0
5, 120000, Note_on_c, 3, 80, 51
5, 120240, Note_on_c, 3, 80, 0
5, 120240, Note_on_c, 3, 77, 51
5, 120450, Note_on_c, 3, 77, 0
5, 120480, Note_on_c, 3, 72, 51
5, 120690, Note_on_c, 3, 72, 0
5, 120720, Note_on_c, 3, 74, 51
5, 120930, Note_on_c, 3, 74, 0
5, 120960, Note_on_c, 3, 75, 51
5, 121080, Note_on_c, 3, 75, 0
5, 121080, Note_on_c, 3, 77, 51
5, 121120, Note_on_c, 3, 77, 0
5, 121120, Note_on_c, 3, 75, 51
5, 121160, Note_on_c, 3, 75, 0
5, 121160, Note_on_c, 3, 74, 51
5, 121200, Note_on_c, 3, 74, 0
5, 121200, Note_on_c, 3, 75, 51
5, 121320, Note_on_c, 3, 75, 0
5, 121320, Note_on_c, 3, 77, 51
5, 121440, Note_on_c, 3, 77, 0
5, 121440, Note_on_c, 3, 79, 51
5, 121870, Note_on_c, 3, 79, 0
5, 122640, Note_on_c, 3, 65, 51
5, 122880, Note_on_c, 3, 65, 0
5, 122880, Note_on_c, 3, 77, 51
5, 123120, Note_on_c, 3, 77, 0
5, 123120, Note_on_c, 3, 77, 51
5, 123330, Note_on_c, 3, 77, 0
5, 123360, Note_on_c, 3, 77, 51
5, 123570, Note_on_c, 3, 77, 0
5, 123600, Note_on_c, 3, 77, 51
5, 123810, Note_on_c, 3, 77, 0
5, 123840, Note_on_c, 3, 77, 51
5, 124050, Note_on_c, 3, 77, 0
5, 124080, Note_on_c, 3, 65, 51
5, 124510, Note_on_c, 3, 65, 0
5, 124560, Note_on_c, 3, 65, 51
5, 124990, Note_on_c, 3, 65, 0
5, 125040, Note_on_c, 3, 65, 51
5, 125490, Note_on_c, 3, 65, 0
5, 125520, Note_on_c, 3, 65, 51
5, 125950, Note_on_c, 3, 65, 0
5, 126000, Note_on_c, 3, 65, 51
5, 126430, Note_on_c, 3, 65, 0
5, 126480, Note_on_c, 3, 65, 51
5, 127150, Note_on_c, 3, 65, 0
5, 127200, Note_on_c, 3, 62, 51
5, 127630, Note_on_c, 3, 62, 0
5, 127680, Note_on_c, 3, 62, 32
5, 128110, Note_on_c, 3, 62, 0
5, 128160, Note_on_c, 3, 62, 32
5, 128590, Note_on_c, 3, 62, 0
5, 129600, End_track
6, 0, Start_track
6, 0, Title_t, "Violino II                          "
6, 0, Control_c, 4, 7, 55
6, 80, Control_c, 4, 91, 100
6, 160, Control_c, 4, 93, 50
6, 240, Control_c, 4, 10, 95
6, 320, Control_c, 4, 121, 0
6, 480, Pitch_bend_c, 4, 8192
6, 640, Control_c, 4, 1, 0
6, 800, Control_c, 4, 11, 127
6, 960, Control_c, 4, 65, 0
6, 1120, Control_c, 4, 66, 0
6, 1280, Control_c, 4, 67, 0
6, 1440, Program_c, 4, 48
6, 1440, Note_on_c, 4, 58, 51
6, 5610, Note_on_c, 4, 58, 0
6, 5760, Note_on_c, 4, 57, 51
6, 6240, Note_on_c, 4, 57, 0
6, 6240, Note_on_c, 4, 58, 51
6, 6720, Note_on_c, 4, 58, 0
6, 7680, Note_on_c, 4, 56, 51
6, 8160, Note_on_c, 4, 56, 0
6, 8160, Note_on_c, 4, 55, 51
6, 8640, Note_on_c, 4, 55, 0
6, 9120, Note_on_c, 4, 58, 51
6, 9600, Note_on_c, 4, 58, 0
6, 9600, Note_on_c, 4, 60, 51
6, 10080, Note_on_c, 4, 60, 0
6, 10080, Note_on_c, 4, 58, 51
6, 11040, Note_on_c, 4, 58, 0
6, 11040, Note_on_c, 4, 57, 51
6, 11520, Note_on_c, 4, 57, 0
6, 11520, Note_on_c, 4, 58, 51
6, 12480, Note_on_c, 4, 58, 0
6, 12480, Note_on_c, 4, 57, 51
6, 12960, Note_on_c, 4, 57, 0
6, 12960, Note_on_c, 4, 58, 51
6, 13680, Note_on_c, 4, 58, 0
6, 13680, Note_on_c, 4, 62, 51
6, 13920, Note_on_c, 4, 62, 0
6, 13920, Note_on_c, 4, 63, 51
6, 14160, Note_on_c, 4, 63, 0
6, 14160, Note_on_c, 4, 72, 51
6, 14400, Note_on_c, 4, 72, 0
6, 14400, Control_c, 4, 11, 85
6, 14400, Note_on_c, 4, 70, 76
6, 14830, Note_on_c, 4, 70, 0
6, 14880, Control_c, 4, 11, 88
6, 14880, Note_on_c, 4, 69, 76
6, 15000, Control_c, 4, 11, 93
6, 15120, Note_on_c, 4, 69, 0
6, 15120, Control_c, 4, 11, 98
6, 15120, Note_on_c, 4, 70, 76
6, 15240, Control_c, 4, 11, 103
6, 15360, Note_on_c, 4, 70, 0
6, 15360, Control_c, 4, 11, 108
6, 15360, Note_on_c, 4, 72, 76
6, 15480, Control_c, 4, 11, 113
6, 15600, Note_on_c, 4, 72, 0
6, 15600, Control_c, 4, 11, 118
6, 15600, Note_on_c, 4, 73, 76
6, 15720, Control_c, 4, 11, 123
6, 15840, Note_on_c, 4, 73, 0
6, 15840, Control_c, 4, 11, 127
6, 15840, Note_on_c, 4, 74, 76
6, 17130, Note_on_c, 4, 74, 0
6, 17280, Note_on_c, 4, 75, 76
6, 17440, Note_on_c, 4, 75, 0
6, 17440, Note_on_c, 4, 77, 76
6, 17600, Note_on_c, 4, 77, 0
6, 17600, Note_on_c, 4, 79, 76
6, 17760, Note_on_c, 4, 79, 0
6, 17760, Note_on_c, 4, 79, 76
6, 18360, Note_on_c, 4, 79, 0
6, 18360, Note_on_c, 4, 77, 76
6, 18480, Note_on_c, 4, 77, 0
6, 18480, Note_on_c, 4, 75, 76
6, 18600, Note_on_c, 4, 75, 0
6, 18600, Note_on_c, 4, 74, 76
6, 18720, Note_on_c, 4, 74, 0
6, 18720, Note_on_c, 4, 72, 76
6, 18880, Note_on_c, 4, 72, 0
6, 18880, Note_on_c, 4, 74, 76
6, 19040, Note_on_c, 4, 74, 0
6, 19040, Note_on_c, 4, 75, 76
6, 19200, Note_on_c, 4, 75, 0
6, 19200, Note_on_c, 4, 75, 76
6, 19800, Note_on_c, 4, 75, 0
6, 19800, Note_on_c, 4, 74, 76
6, 19920, Note_on_c, 4, 74, 0
6, 19920, Note_on_c, 4, 72, 76
6, 20040, Note_on_c, 4, 72, 0
6, 20040, Note_on_c, 4, 70, 76
6, 20160, Note_on_c, 4, 70, 0
6, 20160, Note_on_c, 4, 74, 76
6, 20400, Note_on_c, 4, 74, 0
6, 20400, Note_on_c, 4, 72, 76
6, 20640, Note_on_c, 4, 72, 0
6, 20640, Note_on_c, 4, 70, 76
6, 21070, Note_on_c, 4, 70, 0
6, 22080, Note_on_c, 4, 68, 64
6, 22560, Note_on_c, 4, 68, 0
6, 22560, Note_on_c, 4, 67, 64
6, 23040, Note_on_c, 4, 67, 0
6, 23520, Note_on_c, 4, 67, 64
6, 24000, Note_on_c, 4, 67, 0
6, 24000, Note_on_c, 4, 69, 64
6, 24480, Note_on_c, 4, 69, 0
6, 24480, Note_on_c, 4, 70, 64
6, 24720, Note_on_c, 4, 70, 0
6, 24720, Control_c, 4, 11, 106
6, 24720, Note_on_c, 4, 74, 76
6, 25080, Control_c, 4, 11, 108
6, 25200, Note_on_c, 4, 74, 0
6, 25200, Control_c, 4, 11, 111
6, 25200, Note_on_c, 4, 77, 76
6, 25320, Control_c, 4, 11, 115
6, 25440, Note_on_c, 4, 77, 0
6, 25440, Control_c, 4, 11, 118
6, 25440, Note_on_c, 4, 75, 76
6, 25560, Control_c, 4, 11, 120
6, 25680, Note_on_c, 4, 75, 0
6, 25680, Control_c, 4, 11, 123
6, 25680, Note_on_c, 4, 74, 76
6, 25800, Control_c, 4, 11, 127
6, 25920, Note_on_c, 4, 74, 0
6, 25920, Note_on_c, 4, 75, 76
6, 26780, Note_on_c, 4, 75, 0
6, 26880, Note_on_c, 4, 74, 76
6, 27120, Note_on_c, 4, 74, 0
6, 27120, Note_on_c, 4, 72, 76
6, 27240, Note_on_c, 4, 72, 0
6, 27240, Note_on_c, 4, 70, 76
6, 27360, Note_on_c, 4, 70, 0
6, 27360, Note_on_c, 4, 67, 76
6, 27680, Note_on_c, 4, 67, 0
6, 27720, Note_on_c, 4, 63, 76
6, 27820, Note_on_c, 4, 63, 0
6, 27840, Note_on_c, 4, 62, 76
6, 28270, Note_on_c, 4, 62, 0
6, 28320, Note_on_c, 4, 65, 83
6, 28420, Note_on_c, 4, 65, 0
6, 28440, Note_on_c, 4, 63, 76
6, 28680, Note_on_c, 4, 63, 0
6, 28680, Note_on_c, 4, 62, 76
6, 28780, Note_on_c, 4, 62, 0
6, 28800, Note_on_c, 4, 62, 76
6, 29230, Note_on_c, 4, 62, 0
6, 29280, Note_on_c, 4, 58, 76
6, 29710, Note_on_c, 4, 58, 0
6, 30480, Note_on_c, 4, 57, 51
6, 30690, Note_on_c, 4, 57, 0
6, 30720, Note_on_c, 4, 57, 51
6, 30930, Note_on_c, 4, 57, 0
6, 30960, Note_on_c, 4, 57, 51
6, 31170, Note_on_c, 4, 57, 0
6, 31200, Note_on_c, 4, 57, 51
6, 31410, Note_on_c, 4, 57, 0
6, 31440, Note_on_c, 4, 57, 51
6, 31650, Note_on_c, 4, 57, 0
6, 31920, Note_on_c, 4, 58, 51
6, 32130, Note_on_c, 4, 58, 0
6, 32160, Note_on_c, 4, 58, 51
6, 32370, Note_on_c, 4, 58, 0
6, 32400, Note_on_c, 4, 58, 51
6, 32610, Note_on_c, 4, 58, 0
6, 32640, Note_on_c, 4, 58, 51
6, 32850, Note_on_c, 4, 58, 0
6, 32880, Note_on_c, 4, 58, 51
6, 33090, Note_on_c, 4, 58, 0
6, 33360, Note_on_c, 4, 60, 51
6, 33570, Note_on_c, 4, 60, 0
6, 33600, Note_on_c, 4, 60, 51
6, 33810, Note_on_c, 4, 60, 0
6, 33840, Note_on_c, 4, 60, 51
6, 34050, Note_on_c, 4, 60, 0
6, 34080, Note_on_c, 4, 72, 51
6, 34320, Note_on_c, 4, 72, 0
6, 34320, Note_on_c, 4, 63, 51
6, 34560, Note_on_c, 4, 63, 0
6, 34560, Note_on_c, 4, 65, 51
6, 34800, Note_on_c, 4, 65, 0
6, 34800, Note_on_c, 4, 70, 51
6, 35040, Note_on_c, 4, 70, 0
6, 35040, Note_on_c, 4, 69, 51
6, 35250, Note_on_c, 4, 69, 0
6, 35280, Note_on_c, 4, 65, 51
6, 35520, Note_on_c, 4, 65, 0
6, 35520, Note_on_c, 4, 64, 51
6, 35760, Note_on_c, 4, 64, 0
6, 35760, Note_on_c, 4, 65, 51
6, 36000, Note_on_c, 4, 65, 0
6, 36240, Note_on_c, 4, 57, 51
6, 36450, Note_on_c, 4, 57, 0
6, 36480, Note_on_c, 4, 57, 51
6, 36690, Note_on_c, 4, 57, 0
6, 36720, Note_on_c, 4, 57, 51
6, 36930, Note_on_c, 4, 57, 0
6, 36960, Note_on_c, 4, 57, 51
6, 37170, Note_on_c, 4, 57, 0
6, 37200, Note_on_c, 4, 57, 51
6, 37410, Note_on_c, 4, 57, 0
6, 37680, Note_on_c, 4, 58, 51
6, 37890, Note_on_c, 4, 58, 0
6, 37920, Note_on_c, 4, 58, 51
6, 38130, Note_on_c, 4, 58, 0
6, 38160, Note_on_c, 4, 58, 51
6, 38370, Note_on_c, 4, 58, 0
6, 38400, Note_on_c, 4, 58, 51
6, 38610, Note_on_c, 4, 58, 0
6, 38640, Note_on_c, 4, 58, 51
6, 38850, Note_on_c, 4, 58, 0
6, 39120, Note_on_c, 4, 60, 51
6, 39330, Note_on_c, 4, 60, 0
6, 39360, Note_on_c, 4, 60, 51
6, 39570, Note_on_c, 4, 60, 0
6, 39600, Note_on_c, 4, 72, 51
6, 39840, Note_on_c, 4, 72, 0
6, 39840, Note_on_c, 4, 70, 51
6, 40080, Note_on_c, 4, 70, 0
6, 40080, Note_on_c, 4, 69, 51
6, 40320, Note_on_c, 4, 69, 0
6, 40320, Note_on_c, 4, 70, 51
6, 40800, Note_on_c, 4, 70, 0
6, 40800, Note_on_c, 4, 69, 51
6, 41040, Note_on_c, 4, 69, 0
6, 41040, Note_on_c, 4, 65, 51
6, 41280, Note_on_c, 4, 65, 0
6, 41280, Note_on_c, 4, 64, 51
6, 41520, Note_on_c, 4, 64, 0
6, 41520, Note_on_c, 4, 65, 51
6, 41760, Note_on_c, 4, 65, 0
6, 42000, Note_on_c, 4, 58, 51
6, 42210, Note_on_c, 4, 58, 0
6, 42480, Note_on_c, 4, 58, 51
6, 42690, Note_on_c, 4, 58, 0
6, 42960, Note_on_c, 4, 60, 51
6, 43170, Note_on_c, 4, 60, 0
6, 43440, Note_on_c, 4, 63, 51
6, 43650, Note_on_c, 4, 63, 0
6, 43920, Note_on_c, 4, 62, 51
6, 44130, Note_on_c, 4, 62, 0
6, 44400, Note_on_c, 4, 65, 51
6, 44610, Note_on_c, 4, 65, 0
6, 44640, Note_on_c, 4, 65, 51
6, 45070, Note_on_c, 4, 65, 0
6, 45600, Note_on_c, 4, 58, 51
6, 46080, Note_on_c, 4, 58, 0
6, 46080, Note_on_c, 4, 55, 51
6, 46560, Note_on_c, 4, 55, 0
6, 47040, Note_on_c, 4, 62, 51
6, 47520, Note_on_c, 4, 62, 0
6, 47520, Note_on_c, 4, 60, 51
6, 48000, Note_on_c, 4, 60, 0
6, 48480, Note_on_c, 4, 58, 51
6, 48960, Note_on_c, 4, 58, 0
6, 48960, Note_on_c, 4, 55, 51
6, 49440, Note_on_c, 4, 55, 0
6, 49920, Note_on_c, 4, 62, 51
6, 50400, Note_on_c, 4, 62, 0
6, 50400, Note_on_c, 4, 60, 51
6, 50880, Note_on_c, 4, 60, 0
6, 51360, Note_on_c, 4, 58, 51
6, 51840, Note_on_c, 4, 58, 0
6, 51840, Note_on_c, 4, 57, 51
6, 52320, Note_on_c, 4, 57, 0
6, 52320, Note_on_c, 4, 53, 51
6, 52560, Note_on_c, 4, 53, 0
6, 52560, Note_on_c, 4, 57, 51
6, 52800, Note_on_c, 4, 57, 0
6, 52800, Note_on_c, 4, 58, 51
6, 53040, Note_on_c, 4, 58, 0
6, 53040, Note_on_c, 4, 60, 51
6, 53280, Note_on_c, 4, 60, 0
6, 53280, Note_on_c, 4, 62, 51
6, 53710, Note_on_c, 4, 62, 0
6, 53760, Note_on_c, 4, 58, 51
6, 57450, Note_on_c, 4, 58, 0
6, 57600, Note_on_c, 4, 57, 51
6, 58080, Note_on_c, 4, 57, 0
6, 58080, Note_on_c, 4, 58, 51
6, 58560, Note_on_c, 4, 58, 0
6, 59520, Note_on_c, 4, 56, 51
6, 60000, Note_on_c, 4, 56, 0
6, 60000, Note_on_c, 4, 55, 51
6, 60480, Note_on_c, 4, 55, 0
6, 60960, Note_on_c, 4, 58, 51
6, 61440, Note_on_c, 4, 58, 0
6, 61440, Note_on_c, 4, 57, 51
6, 61920, Note_on_c, 4, 57, 0
6, 61920, Note_on_c, 4, 58, 51
6, 62880, Note_on_c, 4, 58, 0
6, 62880, Note_on_c, 4, 57, 51
6, 63360, Note_on_c, 4, 57, 0
6, 63360, Note_on_c, 4, 58, 51
6, 63790, Note_on_c, 4, 58, 0
6, 64080, Note_on_c, 4, 74, 51
6, 64320, Note_on_c, 4, 74, 0
6, 64320, Note_on_c, 4, 73, 51
6, 64560, Note_on_c, 4, 73, 0
6, 64560, Note_on_c, 4, 74, 51
6, 64800, Note_on_c, 4, 74, 0
6, 64800, Note_on_c, 4, 74, 51
6, 65040, Note_on_c, 4, 74, 0
6, 65040, Note_on_c, 4, 72, 51
6, 65280, Note_on_c, 4, 72, 0
6, 65280, Note_on_c, 4, 70, 51
6, 65490, Note_on_c, 4, 70, 0
6, 65760, Note_on_c, 4, 69, 51
6, 65970, Note_on_c, 4, 69, 0
6, 66240, Note_on_c, 4, 70, 51
6, 66450, Note_on_c, 4, 70, 0
6, 66480, Control_c, 4, 11, 85
6, 66480, Note_on_c, 4, 70, 76
6, 66480, Note_on_c, 4, 62, 76
6, 66840, Control_c, 4, 11, 88
6, 66910, Note_on_c, 4, 70, 0
6, 66910, Note_on_c, 4, 62, 0
6, 66960, Control_c, 4, 11, 93
6, 66960, Note_on_c, 4, 62, 76
6, 66960, Note_on_c, 4, 70, 76
6, 67080, Control_c, 4, 11, 100
6, 67200, Control_c, 4, 11, 106
6, 67320, Control_c, 4, 11, 113
6, 67390, Note_on_c, 4, 62, 0
6, 67390, Note_on_c, 4, 70, 0
6, 67440, Control_c, 4, 11, 118
6, 67440, Note_on_c, 4, 62, 76
6, 67440, Note_on_c, 4, 70, 76
6, 67560, Control_c, 4, 11, 125
6, 67650, Note_on_c, 4, 62, 0
6, 67650, Note_on_c, 4, 70, 0
6, 67680, Control_c, 4, 11, 127
6, 67680, Note_on_c, 4, 69, 76
6, 68280, Note_on_c, 4, 69, 0
6, 68280, Note_on_c, 4, 72, 76
6, 68400, Note_on_c, 4, 72, 0
6, 68400, Note_on_c, 4, 75, 76
6, 68520, Note_on_c, 4, 75, 0
6, 68520, Note_on_c, 4, 72, 76
6, 68640, Note_on_c, 4, 72, 0
6, 68640, Note_on_c, 4, 74, 76
6, 68760, Note_on_c, 4, 74, 0
6, 68760, Note_on_c, 4, 77, 76
6, 68880, Note_on_c, 4, 77, 0
6, 68880, Note_on_c, 4, 70, 76
6, 69000, Note_on_c, 4, 70, 0
6, 69000, Note_on_c, 4, 74, 76
6, 69120, Note_on_c, 4, 74, 0
6, 69120, Note_on_c, 4, 69, 76
6, 69720, Note_on_c, 4, 69, 0
6, 69720, Note_on_c, 4, 72, 76
6, 69840, Note_on_c, 4, 72, 0
6, 69840, Note_on_c, 4, 75, 76
6, 69960, Note_on_c, 4, 75, 0
6, 69960, Note_on_c, 4, 72, 76
6, 70080, Note_on_c, 4, 72, 0
6, 70080, Note_on_c, 4, 74, 76
6, 70200, Note_on_c, 4, 74, 0
6, 70200, Note_on_c, 4, 77, 76
6, 70320, Note_on_c, 4, 77, 0
6, 70320, Note_on_c, 4, 70, 76
6, 70440, Note_on_c, 4, 70, 0
6, 70440, Note_on_c, 4, 74, 76
6, 70560, Note_on_c, 4, 74, 0
6, 70560, Note_on_c, 4, 75, 76
6, 70680, Note_on_c, 4, 75, 0
6, 70680, Note_on_c, 4, 79, 76
6, 70800, Note_on_c, 4, 79, 0
6, 70800, Note_on_c, 4, 63, 76
6, 70920, Note_on_c, 4, 63, 0
6, 70920, Note_on_c, 4, 67, 76
6, 71040, Note_on_c, 4, 67, 0
6, 71040, Note_on_c, 4, 58, 76
6, 71160, Note_on_c, 4, 58, 0
6, 71160, Note_on_c, 4, 62, 76
6, 71280, Note_on_c, 4, 62, 0
6, 71280, Note_on_c, 4, 62, 76
6, 71400, Note_on_c, 4, 62, 0
6, 71400, Note_on_c, 4, 65, 76
6, 71520, Note_on_c, 4, 65, 0
6, 71520, Note_on_c, 4, 57, 76
6, 71640, Note_on_c, 4, 57, 0
6, 71640, Note_on_c, 4, 60, 76
6, 71760, Note_on_c, 4, 60, 0
6, 71760, Note_on_c, 4, 60, 76
6, 71880, Note_on_c, 4, 60, 0
6, 71880, Note_on_c, 4, 63, 76
6, 72000, Note_on_c, 4, 63, 0
6, 72000, Note_on_c, 4, 62, 76
6, 72430, Note_on_c, 4, 62, 0
6, 73680, Note_on_c, 4, 58, 51
6, 73890, Note_on_c, 4, 58, 0
6, 73920, Note_on_c, 4, 58, 51
6, 74130, Note_on_c, 4, 58, 0
6, 74160, Note_on_c, 4, 58, 51
6, 74370, Note_on_c, 4, 58, 0
6, 74400, Note_on_c, 4, 58, 51
6, 74610, Note_on_c, 4, 58, 0
6, 74640, Note_on_c, 4, 58, 51
6, 74850, Note_on_c, 4, 58, 0
6, 75120, Note_on_c, 4, 60, 51
6, 75330, Note_on_c, 4, 60, 0
6, 75360, Note_on_c, 4, 60, 51
6, 75570, Note_on_c, 4, 60, 0
6, 75600, Note_on_c, 4, 60, 51
6, 75810, Note_on_c, 4, 60, 0
6, 75840, Note_on_c, 4, 60, 51
6, 76050, Note_on_c, 4, 60, 0
6, 76080, Note_on_c, 4, 60, 51
6, 76290, Note_on_c, 4, 60, 0
6, 76560, Note_on_c, 4, 60, 51
6, 76770, Note_on_c, 4, 60, 0
6, 76800, Note_on_c, 4, 60, 51
6, 77010, Note_on_c, 4, 60, 0
6, 77040, Note_on_c, 4, 60, 51
6, 77250, Note_on_c, 4, 60, 0
6, 77280, Note_on_c, 4, 60, 51
6, 77490, Note_on_c, 4, 60, 0
6, 77520, Note_on_c, 4, 60, 51
6, 77730, Note_on_c, 4, 60, 0
6, 78000, Note_on_c, 4, 58, 51
6, 78210, Note_on_c, 4, 58, 0
6, 78240, Note_on_c, 4, 58, 51
6, 78450, Note_on_c, 4, 58, 0
6, 78480, Note_on_c, 4, 58, 51
6, 78690, Note_on_c, 4, 58, 0
6, 78720, Note_on_c, 4, 58, 51
6, 78930, Note_on_c, 4, 58, 0
6, 78960, Note_on_c, 4, 58, 51
6, 79170, Note_on_c, 4, 58, 0
6, 79440, Note_on_c, 4, 58, 51
6, 79650, Note_on_c, 4, 58, 0
6, 79680, Note_on_c, 4, 58, 51
6, 79890, Note_on_c, 4, 58, 0
6, 79920, Note_on_c, 4, 58, 51
6, 80130, Note_on_c, 4, 58, 0
6, 80160, Note_on_c, 4, 58, 51
6, 80370, Note_on_c, 4, 58, 0
6, 80400, Note_on_c, 4, 58, 51
6, 80610, Note_on_c, 4, 58, 0
6, 80880, Note_on_c, 4, 58, 51
6, 81090, Note_on_c, 4, 58, 0
6, 81120, Note_on_c, 4, 58, 51
6, 81330, Note_on_c, 4, 58, 0
6, 81360, Note_on_c, 4, 58, 51
6, 81570, Note_on_c, 4, 58, 0
6, 81600, Note_on_c, 4, 58, 51
6, 81810, Note_on_c, 4, 58, 0
6, 81840, Note_on_c, 4, 58, 51
6, 82050, Note_on_c, 4, 58, 0
6, 82320, Note_on_c, 4, 57, 51
6, 82530, Note_on_c, 4, 57, 0
6, 82560, Note_on_c, 4, 57, 51
6, 82770, Note_on_c, 4, 57, 0
6, 82800, Note_on_c, 4, 57, 51
6, 83010, Note_on_c, 4, 57, 0
6, 83040, Note_on_c, 4, 57, 51
6, 83250, Note_on_c, 4, 57, 0
6, 83280, Note_on_c, 4, 57, 51
6, 83490, Note_on_c, 4, 57, 0
6, 83760, Note_on_c, 4, 57, 51
6, 84000, Note_on_c, 4, 57, 0
6, 84000, Note_on_c, 4, 58, 51
6, 84240, Note_on_c, 4, 58, 0
6, 84240, Note_on_c, 4, 58, 51
6, 84450, Note_on_c, 4, 58, 0
6, 84480, Note_on_c, 4, 58, 51
6, 84690, Note_on_c, 4, 58, 0
6, 84720, Note_on_c, 4, 58, 51
6, 84930, Note_on_c, 4, 58, 0
6, 85200, Note_on_c, 4, 65, 51
6, 85410, Note_on_c, 4, 65, 0
6, 85440, Note_on_c, 4, 65, 51
6, 85650, Note_on_c, 4, 65, 0
6, 85680, Note_on_c, 4, 65, 51
6, 85890, Note_on_c, 4, 65, 0
6, 85920, Note_on_c, 4, 65, 51
6, 86130, Note_on_c, 4, 65, 0
6, 86160, Note_on_c, 4, 65, 51
6, 86370, Note_on_c, 4, 65, 0
6, 86640, Note_on_c, 4, 63, 51
6, 86850, Note_on_c, 4, 63, 0
6, 86880, Note_on_c, 4, 63, 51
6, 87090, Note_on_c, 4, 63, 0
6, 87120, Note_on_c, 4, 63, 51
6, 87330, Note_on_c, 4, 63, 0
6, 87360, Note_on_c, 4, 65, 51
6, 87570, Note_on_c, 4, 65, 0
6, 87600, Note_on_c, 4, 65, 51
6, 87810, Note_on_c, 4, 65, 0
6, 88080, Note_on_c, 4, 64, 51
6, 88290, Note_on_c, 4, 64, 0
6, 88320, Note_on_c, 4, 64, 51
6, 88530, Note_on_c, 4, 64, 0
6, 88560, Note_on_c, 4, 64, 51
6, 88770, Note_on_c, 4, 64, 0
6, 88800, Note_on_c, 4, 67, 51
6, 89010, Note_on_c, 4, 67, 0
6, 89040, Note_on_c, 4, 67, 51
6, 89250, Note_on_c, 4, 67, 0
6, 89520, Note_on_c, 4, 65, 51
6, 89730, Note_on_c, 4, 65, 0
6, 89760, Note_on_c, 4, 65, 51
6, 89970, Note_on_c, 4, 65, 0
6, 90000, Note_on_c, 4, 65, 51
6, 90210, Note_on_c, 4, 65, 0
6, 90240, Note_on_c, 4, 67, 51
6, 90450, Note_on_c, 4, 67, 0
6, 90480, Note_on_c, 4, 67, 51
6, 90690, Note_on_c, 4, 67, 0
6, 90960, Note_on_c, 4, 66, 51
6, 91170, Note_on_c, 4, 66, 0
6, 91200, Note_on_c, 4, 66, 51
6, 91410, Note_on_c, 4, 66, 0
6, 91440, Note_on_c, 4, 66, 51
6, 91650, Note_on_c, 4, 66, 0
6, 91680, Note_on_c, 4, 69, 51
6, 91890, Note_on_c, 4, 69, 0
6, 91920, Note_on_c, 4, 69, 51
6, 92130, Note_on_c, 4, 69, 0
6, 92400, Note_on_c, 4, 67, 51
6, 92610, Note_on_c, 4, 67, 0
6, 92640, Note_on_c, 4, 67, 51
6, 92850, Note_on_c, 4, 67, 0
6, 92880, Note_on_c, 4, 67, 51
6, 93090, Note_on_c, 4, 67, 0
6, 93120, Note_on_c, 4, 67, 51
6, 93330, Note_on_c, 4, 67, 0
6, 93360, Note_on_c, 4, 67, 51
6, 93570, Note_on_c, 4, 67, 0
6, 93840, Note_on_c, 4, 58, 51
6, 94050, Note_on_c, 4, 58, 0
6, 94080, Note_on_c, 4, 58, 51
6, 94290, Note_on_c, 4, 58, 0
6, 94320, Note_on_c, 4, 58, 51
6, 94530, Note_on_c, 4, 58, 0
6, 94560, Note_on_c, 4, 58, 51
6, 94770, Note_on_c, 4, 58, 0
6, 94800, Note_on_c, 4, 58, 51
6, 95010, Note_on_c, 4, 58, 0
6, 95040, Note_on_c, 4, 57, 51
6, 95520, Note_on_c, 4, 57, 0
6, 95520, Note_on_c, 4, 58, 51
6, 96000, Note_on_c, 4, 58, 0
6, 96000, Note_on_c, 4, 55, 51
6, 96480, Note_on_c, 4, 55, 0
6, 96480, Note_on_c, 4, 57, 51
6, 96960, Note_on_c, 4, 57, 0
6, 96960, Note_on_c, 4, 58, 51
6, 97680, Note_on_c, 4, 58, 0
6, 97680, Note_on_c, 4, 55, 51
6, 97920, Note_on_c, 4, 55, 0
6, 97920, Note_on_c, 4, 57, 51
6, 98400, Note_on_c, 4, 57, 0
6, 98400, Note_on_c, 4, 55, 51
6, 98640, Note_on_c, 4, 55, 0
6, 98640, Note_on_c, 4, 57, 51
6, 98880, Note_on_c, 4, 57, 0
6, 98880, Note_on_c, 4, 58, 51
6, 99120, Note_on_c, 4, 58, 0
6, 99120, Note_on_c, 4, 60, 51
6, 99360, Note_on_c, 4, 60, 0
6, 99360, Note_on_c, 4, 62, 51
6, 99790, Note_on_c, 4, 62, 0
6, 99840, Note_on_c, 4, 58, 51
6, 103530, Note_on_c, 4, 58, 0
6, 103680, Note_on_c, 4, 57, 51
6, 104160, Note_on_c, 4, 57, 0
6, 104160, Note_on_c, 4, 58, 51
6, 104640, Note_on_c, 4, 58, 0
6, 105600, Note_on_c, 4, 56, 51
6, 106080, Note_on_c, 4, 56, 0
6, 106080, Note_on_c, 4, 55, 51
6, 106560, Note_on_c, 4, 55, 0
6, 107040, Note_on_c, 4, 58, 51
6, 107520, Note_on_c, 4, 58, 0
6, 107520, Note_on_c, 4, 57, 51
6, 108000, Note_on_c, 4, 57, 0
6, 108000, Note_on_c, 4, 58, 51
6, 108960, Note_on_c, 4, 58, 0
6, 108960, Note_on_c, 4, 57, 51
6, 109440, Note_on_c, 4, 57, 0
6, 109440, Note_on_c, 4, 58, 51
6, 109870, Note_on_c, 4, 58, 0
6, 110160, Note_on_c, 4, 74, 51
6, 110400, Note_on_c, 4, 74, 0
6, 110400, Note_on_c, 4, 73, 51
6, 110640, Note_on_c, 4, 73, 0
6, 110640, Note_on_c, 4, 74, 51
6, 110880, Note_on_c, 4, 74, 0
6, 110880, Note_on_c, 4, 74, 51
6, 111120, Note_on_c, 4, 74, 0
6, 111120, Note_on_c, 4, 72, 51
6, 111360, Note_on_c, 4, 72, 0
6, 111360, Note_on_c, 4, 70, 51
6, 111570, Note_on_c, 4, 70, 0
6, 111840, Note_on_c, 4, 69, 51
6, 112050, Note_on_c, 4, 69, 0
6, 112320, Note_on_c, 4, 70, 51
6, 112750, Note_on_c, 4, 70, 0
6, 113040, Note_on_c, 4, 65, 51
6, 113160, Note_on_c, 4, 65, 0
6, 113160, Note_on_c, 4, 67, 51
6, 113280, Note_on_c, 4, 67, 0
6, 113280, Note_on_c, 4, 68, 51
6, 113520, Note_on_c, 4, 68, 0
6, 113520, Note_on_c, 4, 68, 51
6, 113730, Note_on_c, 4, 68, 0
6, 113760, Note_on_c, 4, 69, 51
6, 115050, Note_on_c, 4, 69, 0
6, 115200, Note_on_c, 4, 67, 51
6, 116370, Note_on_c, 4, 67, 0
6, 116400, Note_on_c, 4, 65, 51
6, 116610, Note_on_c, 4, 65, 0
6, 116640, Note_on_c, 4, 63, 51
6, 118080, Note_on_c, 4, 63, 0
6, 118080, Note_on_c, 4, 62, 51
6, 118560, Note_on_c, 4, 62, 0
6, 118800, Note_on_c, 4, 65, 51
6, 118920, Note_on_c, 4, 65, 0
6, 118920, Note_on_c, 4, 67, 51
6, 119040, Note_on_c, 4, 67, 0
6, 119040, Note_on_c, 4, 68, 51
6, 119280, Note_on_c, 4, 68, 0
6, 119280, Note_on_c, 4, 68, 51
6, 119490, Note_on_c, 4, 68, 0
6, 119520, Note_on_c, 4, 69, 51
6, 120810, Note_on_c, 4, 69, 0
6, 120960, Note_on_c, 4, 67, 51
6, 122160, Note_on_c, 4, 67, 0
6, 122160, Note_on_c, 4, 65, 51
6, 122400, Note_on_c, 4, 65, 0
6, 122400, Note_on_c, 4, 63, 51
6, 123840, Note_on_c, 4, 63, 0
6, 123840, Note_on_c, 4, 62, 51
6, 124080, Note_on_c, 4, 62, 0
6, 124080, Note_on_c, 4, 62, 51
6, 124510, Note_on_c, 4, 62, 0
6, 124560, Note_on_c, 4, 62, 51
6, 124800, Note_on_c, 4, 62, 0
6, 124800, Note_on_c, 4, 63, 51
6, 125040, Note_on_c, 4, 63, 0
6, 125040, Note_on_c, 4, 63, 51
6, 125280, Note_on_c, 4, 63, 0
6, 125280, Note_on_c, 4, 62, 51
6, 125520, Note_on_c, 4, 62, 0
6, 125520, Note_on_c, 4, 62, 51
6, 125950, Note_on_c, 4, 62, 0
6, 126000, Note_on_c, 4, 62, 51
6, 126240, Note_on_c, 4, 62, 0
6, 126240, Note_on_c, 4, 63, 51
6, 126480, Note_on_c, 4, 63, 0
6, 126480, Note_on_c, 4, 63, 51
6, 126720, Note_on_c, 4, 63, 0
6, 126720, Note_on_c, 4, 62, 51
6, 127200, Note_on_c, 4, 62, 0
6, 127200, Note_on_c, 4, 58, 51
6, 127630, Note_on_c, 4, 58, 0
6, 127680, Note_on_c, 4, 58, 32
6, 128110, Note_on_c, 4, 58, 0
6, 128160, Note_on_c, 4, 58, 32
6, 128590, Note_on_c, 4, 58, 0
6, 129600, End_track
7, 0, Start_track
7, 0, Title_t, "Viola                               "
7, 0, Control_c, 5, 7, 50
7, 80, Control_c, 5, 91, 100
7, 160, Control_c, 5, 93, 30
7, 240, Control_c, 5, 10, 110
7, 320, Control_c, 5, 121, 0
7, 480, Pitch_bend_c, 5, 8192
7, 640, Control_c, 5, 1, 0
7, 800, Control_c, 5, 11, 127
7, 960, Control_c, 5, 65, 0
7, 1120, Control_c, 5, 66, 0
7, 1280, Control_c, 5, 67, 0
7, 1440, Program_c, 5, 48
7, 1440, Note_on_c, 5, 58, 51
7, 5610, Note_on_c, 5, 58, 0
7, 5760, Note_on_c, 5, 53, 51
7, 6190, Note_on_c, 5, 53, 0
7, 6240, Note_on_c, 5, 53, 51
7, 6670, Note_on_c, 5, 53, 0
7, 7680, Note_on_c, 5, 53, 51
7, 8160, Note_on_c, 5, 53, 0
7, 8160, Note_on_c, 5, 51, 51
7, 8640, Note_on_c, 5, 51, 0
7, 9120, Note_on_c, 5, 55, 51
7, 9600, Note_on_c, 5, 55, 0
7, 9600, Note_on_c, 5, 57, 51
7, 10080, Note_on_c, 5, 57, 0
7, 10080, Note_on_c, 5, 58, 51
7, 10510, Note_on_c, 5, 58, 0
7, 10560, Note_on_c, 5, 53, 51
7, 13390, Note_on_c, 5, 53, 0
7, 13440, Note_on_c, 5, 58, 51
7, 14160, Note_on_c, 5, 58, 0
7, 14160, Note_on_c, 5, 67, 51
7, 14400, Note_on_c, 5, 67, 0
7, 14400, Note_on_c, 5, 65, 51
7, 14830, Note_on_c, 5, 65, 0
7, 14880, Note_on_c, 5, 53, 51
7, 15310, Note_on_c, 5, 53, 0
7, 15840, Note_on_c, 5, 65, 76
7, 15840, Note_on_c, 5, 62, 76
7, 17130, Note_on_c, 5, 65, 0
7, 17130, Note_on_c, 5, 62, 0
7, 17280, Note_on_c, 5, 67, 76
7, 17280, Note_on_c, 5, 63, 76
7, 17440, Note_on_c, 5, 67, 0
7, 17440, Note_on_c, 5, 63, 0
7, 17440, Note_on_c, 5, 69, 76
7, 17440, Note_on_c, 5, 65, 76
7, 17600, Note_on_c, 5, 69, 0
7, 17600, Note_on_c, 5, 65, 0
7, 17600, Note_on_c, 5, 70, 76
7, 17600, Note_on_c, 5, 67, 76
7, 17760, Note_on_c, 5, 70, 0
7, 17760, Note_on_c, 5, 67, 0
7, 17760, Note_on_c, 5, 70, 76
7, 17760, Note_on_c, 5, 67, 76
7, 18360, Note_on_c, 5, 70, 0
7, 18360, Note_on_c, 5, 67, 0
7, 18360, Note_on_c, 5, 69, 76
7, 18360, Note_on_c, 5, 65, 76
7, 18480, Note_on_c, 5, 69, 0
7, 18480, Note_on_c, 5, 65, 0
7, 18480, Note_on_c, 5, 67, 76
7, 18480, Note_on_c, 5, 63, 76
7, 18600, Note_on_c, 5, 67, 0
7, 18600, Note_on_c, 5, 63, 0
7, 18600, Note_on_c, 5, 65, 76
7, 18600, Note_on_c, 5, 62, 76
7, 18720, Note_on_c, 5, 65, 0
7, 18720, Note_on_c, 5, 62, 0
7, 18720, Note_on_c, 5, 63, 76
7, 18720, Note_on_c, 5, 60, 76
7, 18880, Note_on_c, 5, 63, 0
7, 18880, Note_on_c, 5, 60, 0
7, 18880, Note_on_c, 5, 65, 76
7, 18880, Note_on_c, 5, 62, 76
7, 19040, Note_on_c, 5, 65, 0
7, 19040, Note_on_c, 5, 62, 0
7, 19040, Note_on_c, 5, 67, 76
7, 19040, Note_on_c, 5, 63, 76
7, 19200, Note_on_c, 5, 67, 0
7, 19200, Note_on_c, 5, 63, 0
7, 19200, Note_on_c, 5, 67, 76
7, 19200, Note_on_c, 5, 63, 76
7, 19800, Note_on_c, 5, 67, 0
7, 19800, Note_on_c, 5, 63, 0
7, 19800, Note_on_c, 5, 65, 76
7, 19800, Note_on_c, 5, 62, 76
7, 19920, Note_on_c, 5, 65, 0
7, 19920, Note_on_c, 5, 62, 0
7, 19920, Note_on_c, 5, 63, 76
7, 19920, Note_on_c, 5, 60, 76
7, 20040, Note_on_c, 5, 63, 0
7, 20040, Note_on_c, 5, 60, 0
7, 20040, Note_on_c, 5, 62, 76
7, 20040, Note_on_c, 5, 58, 76
7, 20160, Note_on_c, 5, 62, 0
7, 20160, Note_on_c, 5, 58, 0
7, 20160, Note_on_c, 5, 65, 76
7, 20160, Note_on_c, 5, 62, 76
7, 20400, Note_on_c, 5, 65, 0
7, 20400, Note_on_c, 5, 62, 0
7, 20400, Note_on_c, 5, 63, 76
7, 20400, Note_on_c, 5, 60, 76
7, 20640, Note_on_c, 5, 63, 0
7, 20640, Note_on_c, 5, 60, 0
7, 20640, Note_on_c, 5, 62, 76
7, 20640, Note_on_c, 5, 58, 76
7, 21070, Note_on_c, 5, 62, 0
7, 21070, Note_on_c, 5, 58, 0
7, 22080, Note_on_c, 5, 65, 51
7, 22560, Note_on_c, 5, 65, 0
7, 22560, Note_on_c, 5, 63, 51
7, 23040, Note_on_c, 5, 63, 0
7, 23520, Note_on_c, 5, 58, 51
7, 24000, Note_on_c, 5, 58, 0
7, 24000, Note_on_c, 5, 60, 51
7, 24480, Note_on_c, 5, 60, 0
7, 24480, Control_c, 5, 11, 85
7, 24480, Note_on_c, 5, 62, 76
7, 24910, Note_on_c, 5, 62, 0
7, 24960, Note_on_c, 5, 65, 76
7, 24960, Control_c, 5, 11, 88
7, 25080, Control_c, 5, 11, 93
7, 25200, Control_c, 5, 11, 98
7, 25320, Control_c, 5, 11, 103
7, 25440, Control_c, 5, 11, 108
7, 25560, Control_c, 5, 11, 115
7, 25680, Control_c, 5, 11, 120
7, 25800, Control_c, 5, 11, 125
7, 25920, Control_c, 5, 11, 127
7, 26350, Note_on_c, 5, 65, 0
7, 26400, Note_on_c, 5, 65, 76
7, 27260, Note_on_c, 5, 65, 0
7, 27360, Note_on_c, 5, 63, 76
7, 27790, Note_on_c, 5, 63, 0
7, 27840, Note_on_c, 5, 65, 76
7, 28270, Note_on_c, 5, 65, 0
7, 28320, Note_on_c, 5, 57, 76
7, 28750, Note_on_c, 5, 57, 0
7, 28800, Note_on_c, 5, 58, 76
7, 29230, Note_on_c, 5, 58, 0
7, 29280, Note_on_c, 5, 58, 76
7, 29710, Note_on_c, 5, 58, 0
7, 30480, Note_on_c, 5, 53, 51
7, 30690, Note_on_c, 5, 53, 0
7, 30720, Note_on_c, 5, 53, 51
7, 30930, Note_on_c, 5, 53, 0
7, 30960, Note_on_c, 5, 53, 51
7, 31170, Note_on_c, 5, 53, 0
7, 31200, Note_on_c, 5, 53, 51
7, 31410, Note_on_c, 5, 53, 0
7, 31440, Note_on_c, 5, 53, 51
7, 31650, Note_on_c, 5, 53, 0
7, 31920, Note_on_c, 5, 55, 51
7, 32130, Note_on_c, 5, 55, 0
7, 32160, Note_on_c, 5, 55, 51
7, 32370, Note_on_c, 5, 55, 0
7, 32400, Note_on_c, 5, 55, 51
7, 32610, Note_on_c, 5, 55, 0
7, 32640, Note_on_c, 5, 55, 51
7, 32850, Note_on_c, 5, 55, 0
7, 32880, Note_on_c, 5, 55, 51
7, 33090, Note_on_c, 5, 55, 0
7, 33360, Note_on_c, 5, 57, 51
7, 33570, Note_on_c, 5, 57, 0
7, 33600, Note_on_c, 5, 57, 51
7, 33810, Note_on_c, 5, 57, 0
7, 33840, Note_on_c, 5, 57, 51
7, 34050, Note_on_c, 5, 57, 0
7, 34080, Note_on_c, 5, 57, 51
7, 34320, Note_on_c, 5, 57, 0
7, 34320, Note_on_c, 5, 60, 51
7, 34560, Note_on_c, 5, 60, 0
7, 34560, Note_on_c, 5, 62, 51
7, 34800, Note_on_c, 5, 62, 0
7, 34800, Note_on_c, 5, 58, 51
7, 35040, Note_on_c, 5, 58, 0
7, 35040, Note_on_c, 5, 65, 51
7, 35470, Note_on_c, 5, 65, 0
7, 36240, Note_on_c, 5, 53, 51
7, 36450, Note_on_c, 5, 53, 0
7, 36480, Note_on_c, 5, 53, 51
7, 36690, Note_on_c, 5, 53, 0
7, 36720, Note_on_c, 5, 53, 51
7, 36930, Note_on_c, 5, 53, 0
7, 36960, Note_on_c, 5, 53, 51
7, 37170, Note_on_c, 5, 53, 0
7, 37200, Note_on_c, 5, 53, 51
7, 37410, Note_on_c, 5, 53, 0
7, 37680, Note_on_c, 5, 55, 51
7, 37890, Note_on_c, 5, 55, 0
7, 37920, Note_on_c, 5, 55, 51
7, 38130, Note_on_c, 5, 55, 0
7, 38160, Note_on_c, 5, 55, 51
7, 38370, Note_on_c, 5, 55, 0
7, 38400, Note_on_c, 5, 55, 51
7, 38610, Note_on_c, 5, 55, 0
7, 38640, Note_on_c, 5, 55, 51
7, 38850, Note_on_c, 5, 55, 0
7, 39120, Note_on_c, 5, 57, 51
7, 39330, Note_on_c, 5, 57, 0
7, 39360, Note_on_c, 5, 57, 51
7, 39570, Note_on_c, 5, 57, 0
7, 39600, Note_on_c, 5, 57, 51
7, 39840, Note_on_c, 5, 57, 0
7, 39840, Note_on_c, 5, 58, 51
7, 40080, Note_on_c, 5, 58, 0
7, 40080, Note_on_c, 5, 63, 51
7, 40320, Note_on_c, 5, 63, 0
7, 40320, Note_on_c, 5, 62, 51
7, 40560, Note_on_c, 5, 62, 0
7, 40560, Note_on_c, 5, 58, 51
7, 40800, Note_on_c, 5, 58, 0
7, 40800, Note_on_c, 5, 65, 51
7, 41230, Note_on_c, 5, 65, 0
7, 42000, Note_on_c, 5, 53, 51
7, 42210, Note_on_c, 5, 53, 0
7, 42480, Note_on_c, 5, 55, 51
7, 42690, Note_on_c, 5, 55, 0
7, 42960, Note_on_c, 5, 48, 51
7, 43170, Note_on_c, 5, 48, 0
7, 43440, Note_on_c, 5, 57, 51
7, 43650, Note_on_c, 5, 57, 0
7, 43920, Note_on_c, 5, 58, 51
7, 44130, Note_on_c, 5, 58, 0
7, 44400, Note_on_c, 5, 62, 51
7, 44610, Note_on_c, 5, 62, 0
7, 44640, Note_on_c, 5, 60, 51
7, 45070, Note_on_c, 5, 60, 0
7, 45600, Note_on_c, 5, 64, 51
7, 46080, Note_on_c, 5, 64, 0
7, 46080, Note_on_c, 5, 65, 51
7, 46560, Note_on_c, 5, 65, 0
7, 47040, Note_on_c, 5, 59, 51
7, 47520, Note_on_c, 5, 59, 0
7, 47520, Note_on_c, 5, 60, 51
7, 48000, Note_on_c, 5, 60, 0
7, 48480, Note_on_c, 5, 49, 51
7, 48910, Note_on_c, 5, 49, 0
7, 48960, Note_on_c, 5, 50, 51
7, 49440, Note_on_c, 5, 50, 0
7, 49920, Note_on_c, 5, 59, 51
7, 50400, Note_on_c, 5, 59, 0
7, 50400, Note_on_c, 5, 60, 51
7, 50880, Note_on_c, 5, 60, 0
7, 51360, Note_on_c, 5, 60, 51
7, 52050, Note_on_c, 5, 60, 0
7, 52080, Note_on_c, 5, 53, 51
7, 52510, Note_on_c, 5, 53, 0
7, 52560, Note_on_c, 5, 53, 51
7, 52990, Note_on_c, 5, 53, 0
7, 53040, Note_on_c, 5, 53, 51
7, 53250, Note_on_c, 5, 53, 0
7, 53280, Note_on_c, 5, 53, 51
7, 53710, Note_on_c, 5, 53, 0
7, 53760, Note_on_c, 5, 58, 51
7, 57450, Note_on_c, 5, 58, 0
7, 57600, Note_on_c, 5, 53, 51
7, 58030, Note_on_c, 5, 53, 0
7, 58080, Note_on_c, 5, 53, 51
7, 58510, Note_on_c, 5, 53, 0
7, 59520, Note_on_c, 5, 53, 51
7, 60000, Note_on_c, 5, 53, 0
7, 60000, Note_on_c, 5, 51, 51
7, 60480, Note_on_c, 5, 51, 0
7, 60960, Note_on_c, 5, 51, 51
7, 61440, Note_on_c, 5, 51, 0
7, 61440, Note_on_c, 5, 53, 51
7, 61920, Note_on_c, 5, 53, 0
7, 61920, Note_on_c, 5, 53, 51
7, 63790, Note_on_c, 5, 53, 0
7, 64800, Note_on_c, 5, 65, 51
7, 65040, Note_on_c, 5, 65, 0
7, 65040, Note_on_c, 5, 67, 51
7, 65280, Note_on_c, 5, 67, 0
7, 65280, Note_on_c, 5, 65, 51
7, 65490, Note_on_c, 5, 65, 0
7, 65760, Note_on_c, 5, 63, 51
7, 65970, Note_on_c, 5, 63, 0
7, 66240, Note_on_c, 5, 62, 51
7, 66450, Note_on_c, 5, 62, 0
7, 66480, Control_c, 5, 11, 85
7, 66480, Note_on_c, 5, 65, 76
7, 66480, Note_on_c, 5, 58, 76
7, 66840, Control_c, 5, 11, 90
7, 66910, Note_on_c, 5, 65, 0
7, 66910, Note_on_c, 5, 58, 0
7, 66960, Control_c, 5, 11, 95
7, 66960, Note_on_c, 5, 58, 76
7, 66960, Note_on_c, 5, 65, 76
7, 67080, Control_c, 5, 11, 101
7, 67200, Control_c, 5, 11, 106
7, 67320, Control_c, 5, 11, 113
7, 67390, Note_on_c, 5, 58, 0
7, 67390, Note_on_c, 5, 65, 0
7, 67440, Control_c, 5, 11, 118
7, 67440, Note_on_c, 5, 58, 76
7, 67440, Note_on_c, 5, 65, 76
7, 67560, Control_c, 5, 11, 123
7, 67650, Note_on_c, 5, 58, 0
7, 67650, Note_on_c, 5, 65, 0
7, 67680, Control_c, 5, 11, 127
7, 67680, Note_on_c, 5, 60, 76
7, 68110, Note_on_c, 5, 60, 0
7, 68160, Note_on_c, 5, 53, 76
7, 68590, Note_on_c, 5, 53, 0
7, 68640, Note_on_c, 5, 58, 76
7, 69070, Note_on_c, 5, 58, 0
7, 69120, Note_on_c, 5, 60, 76
7, 69550, Note_on_c, 5, 60, 0
7, 69600, Note_on_c, 5, 53, 76
7, 70030, Note_on_c, 5, 53, 0
7, 70080, Note_on_c, 5, 58, 76
7, 70510, Note_on_c, 5, 58, 0
7, 70560, Note_on_c, 5, 63, 76
7, 70990, Note_on_c, 5, 63, 0
7, 71040, Note_on_c, 5, 65, 76
7, 71470, Note_on_c, 5, 65, 0
7, 71520, Note_on_c, 5, 53, 76
7, 71950, Note_on_c, 5, 53, 0
7, 72000, Note_on_c, 5, 58, 76
7, 72430, Note_on_c, 5, 58, 0
7, 73680, Note_on_c, 5, 55, 51
7, 73890, Note_on_c, 5, 55, 0
7, 73920, Note_on_c, 5, 55, 51
7, 74130, Note_on_c, 5, 55, 0
7, 74160, Note_on_c, 5, 55, 51
7, 74370, Note_on_c, 5, 55, 0
7, 74400, Note_on_c, 5, 55, 51
7, 74610, Note_on_c, 5, 55, 0
7, 74640, Note_on_c, 5, 55, 51
7, 74850, Note_on_c, 5, 55, 0
7, 75120, Note_on_c, 5, 57, 51
7, 75330, Note_on_c, 5, 57, 0
7, 75360, Note_on_c, 5, 57, 51
7, 75570, Note_on_c, 5, 57, 0
7, 75600, Note_on_c, 5, 57, 51
7, 75810, Note_on_c, 5, 57, 0
7, 75840, Note_on_c, 5, 57, 51
7, 76050, Note_on_c, 5, 57, 0
7, 76080, Note_on_c, 5, 57, 51
7, 76290, Note_on_c, 5, 57, 0
7, 76560, Note_on_c, 5, 54, 51
7, 76770, Note_on_c, 5, 54, 0
7, 76800, Note_on_c, 5, 54, 51
7, 77010, Note_on_c, 5, 54, 0
7, 77040, Note_on_c, 5, 54, 51
7, 77250, Note_on_c, 5, 54, 0
7, 77280, Note_on_c, 5, 54, 51
7, 77490, Note_on_c, 5, 54, 0
7, 77520, Note_on_c, 5, 54, 51
7, 77730, Note_on_c, 5, 54, 0
7, 78000, Note_on_c, 5, 55, 51
7, 78210, Note_on_c, 5, 55, 0
7, 78240, Note_on_c, 5, 55, 51
7, 78450, Note_on_c, 5, 55, 0
7, 78480, Note_on_c, 5, 55, 51
7, 78690, Note_on_c, 5, 55, 0
7, 78720, Note_on_c, 5, 55, 51
7, 78930, Note_on_c, 5, 55, 0
7, 78960, Note_on_c, 5, 55, 51
7, 79170, Note_on_c, 5, 55, 0
7, 79440, Note_on_c, 5, 55, 51
7, 79650, Note_on_c, 5, 55, 0
7, 79680, Note_on_c, 5, 55, 51
7, 79890, Note_on_c, 5, 55, 0
7, 79920, Note_on_c, 5, 55, 51
7, 80130, Note_on_c, 5, 55, 0
7, 80160, Note_on_c, 5, 55, 51
7, 80370, Note_on_c, 5, 55, 0
7, 80400, Note_on_c, 5, 55, 51
7, 80610, Note_on_c, 5, 55, 0
7, 80880, Note_on_c, 5, 55, 51
7, 81090, Note_on_c, 5, 55, 0
7, 81120, Note_on_c, 5, 55, 51
7, 81330, Note_on_c, 5, 55, 0
7, 81360, Note_on_c, 5, 55, 51
7, 81570, Note_on_c, 5, 55, 0
7, 81600, Note_on_c, 5, 55, 51
7, 81810, Note_on_c, 5, 55, 0
7, 81840, Note_on_c, 5, 55, 51
7, 82050, Note_on_c, 5, 55, 0
7, 82320, Note_on_c, 5, 53, 51
7, 82530, Note_on_c, 5, 53, 0
7, 82560, Note_on_c, 5, 53, 51
7, 82770, Note_on_c, 5, 53, 0
7, 82800, Note_on_c, 5, 53, 51
7, 83010, Note_on_c, 5, 53, 0
7, 83040, Note_on_c, 5, 53, 51
7, 83250, Note_on_c, 5, 53, 0
7, 83280, Note_on_c, 5, 53, 51
7, 83490, Note_on_c, 5, 53, 0
7, 83760, Note_on_c, 5, 53, 51
7, 83970, Note_on_c, 5, 53, 0
7, 84000, Note_on_c, 5, 53, 51
7, 84210, Note_on_c, 5, 53, 0
7, 84240, Note_on_c, 5, 53, 51
7, 84450, Note_on_c, 5, 53, 0
7, 84480, Note_on_c, 5, 53, 51
7, 84690, Note_on_c, 5, 53, 0
7, 84720, Note_on_c, 5, 53, 51
7, 84930, Note_on_c, 5, 53, 0
7, 85200, Note_on_c, 5, 58, 51
7, 85410, Note_on_c, 5, 58, 0
7, 85440, Note_on_c, 5, 58, 51
7, 85650, Note_on_c, 5, 58, 0
7, 85680, Note_on_c, 5, 58, 51
7, 85890, Note_on_c, 5, 58, 0
7, 85920, Note_on_c, 5, 58, 51
7, 86130, Note_on_c, 5, 58, 0
7, 86160, Note_on_c, 5, 58, 51
7, 86370, Note_on_c, 5, 58, 0
7, 86640, Note_on_c, 5, 58, 51
7, 86850, Note_on_c, 5, 58, 0
7, 86880, Note_on_c, 5, 58, 51
7, 87090, Note_on_c, 5, 58, 0
7, 87120, Note_on_c, 5, 58, 51
7, 87330, Note_on_c, 5, 58, 0
7, 87360, Note_on_c, 5, 53, 51
7, 87570, Note_on_c, 5, 53, 0
7, 87600, Note_on_c, 5, 53, 51
7, 87810, Note_on_c, 5, 53, 0
7, 88080, Note_on_c, 5, 55, 51
7, 88290, Note_on_c, 5, 55, 0
7, 88320, Note_on_c, 5, 55, 51
7, 88530, Note_on_c, 5, 55, 0
7, 88560, Note_on_c, 5, 55, 51
7, 88770, Note_on_c, 5, 55, 0
7, 88800, Note_on_c, 5, 60, 51
7, 89010, Note_on_c, 5, 60, 0
7, 89040, Note_on_c, 5, 60, 51
7, 89250, Note_on_c, 5, 60, 0
7, 89520, Note_on_c, 5, 60, 51
7, 89730, Note_on_c, 5, 60, 0
7, 89760, Note_on_c, 5, 60, 51
7, 89970, Note_on_c, 5, 60, 0
7, 90000, Note_on_c, 5, 60, 51
7, 90210, Note_on_c, 5, 60, 0
7, 90240, Note_on_c, 5, 55, 51
7, 90450, Note_on_c, 5, 55, 0
7, 90480, Note_on_c, 5, 55, 51
7, 90690, Note_on_c, 5, 55, 0
7, 90960, Note_on_c, 5, 57, 51
7, 91170, Note_on_c, 5, 57, 0
7, 91200, Note_on_c, 5, 57, 51
7, 91410, Note_on_c, 5, 57, 0
7, 91440, Note_on_c, 5, 57, 51
7, 91650, Note_on_c, 5, 57, 0
7, 91680, Note_on_c, 5, 62, 51
7, 91890, Note_on_c, 5, 62, 0
7, 91920, Note_on_c, 5, 62, 51
7, 92130, Note_on_c, 5, 62, 0
7, 92400, Note_on_c, 5, 62, 51
7, 92610, Note_on_c, 5, 62, 0
7, 92640, Note_on_c, 5, 62, 51
7, 92850, Note_on_c, 5, 62, 0
7, 92880, Note_on_c, 5, 62, 51
7, 93090, Note_on_c, 5, 62, 0
7, 93120, Note_on_c, 5, 62, 51
7, 93330, Note_on_c, 5, 62, 0
7, 93360, Note_on_c, 5, 62, 51
7, 93570, Note_on_c, 5, 62, 0
7, 93840, Note_on_c, 5, 55, 51
7, 94050, Note_on_c, 5, 55, 0
7, 94080, Note_on_c, 5, 55, 51
7, 94290, Note_on_c, 5, 55, 0
7, 94320, Note_on_c, 5, 55, 51
7, 94530, Note_on_c, 5, 55, 0
7, 94560, Note_on_c, 5, 55, 51
7, 94770, Note_on_c, 5, 55, 0
7, 94800, Note_on_c, 5, 55, 51
7, 95010, Note_on_c, 5, 55, 0
7, 95040, Note_on_c, 5, 53, 51
7, 99090, Note_on_c, 5, 53, 0
7, 99120, Note_on_c, 5, 57, 51
7, 99330, Note_on_c, 5, 57, 0
7, 99360, Note_on_c, 5, 58, 51
7, 103530, Note_on_c, 5, 58, 0
7, 103680, Note_on_c, 5, 53, 51
7, 104110, Note_on_c, 5, 53, 0
7, 104160, Note_on_c, 5, 53, 51
7, 104590, Note_on_c, 5, 53, 0
7, 105600, Note_on_c, 5, 53, 51
7, 106080, Note_on_c, 5, 53, 0
7, 106080, Note_on_c, 5, 51, 51
7, 106560, Note_on_c, 5, 51, 0
7, 107040, Note_on_c, 5, 51, 51
7, 107520, Note_on_c, 5, 51, 0
7, 107520, Note_on_c, 5, 53, 51
7, 108000, Note_on_c, 5, 53, 0
7, 108000, Note_on_c, 5, 53, 51
7, 109870, Note_on_c, 5, 53, 0
7, 110880, Note_on_c, 5, 65, 51
7, 111120, Note_on_c, 5, 65, 0
7, 111120, Note_on_c, 5, 67, 51
7, 111360, Note_on_c, 5, 67, 0
7, 111360, Note_on_c, 5, 67, 51
7, 111570, Note_on_c, 5, 67, 0
7, 111840, Note_on_c, 5, 63, 51
7, 112050, Note_on_c, 5, 63, 0
7, 112320, Note_on_c, 5, 62, 51
7, 112750, Note_on_c, 5, 62, 0
7, 113040, Note_on_c, 5, 62, 51
7, 113160, Note_on_c, 5, 62, 0
7, 113160, Note_on_c, 5, 63, 51
7, 113280, Note_on_c, 5, 63, 0
7, 113280, Note_on_c, 5, 65, 51
7, 113520, Note_on_c, 5, 65, 0
7, 113520, Note_on_c, 5, 65, 51
7, 113730, Note_on_c, 5, 65, 0
7, 113760, Note_on_c, 5, 65, 51
7, 115050, Note_on_c, 5, 65, 0
7, 115200, Note_on_c, 5, 63, 51
7, 116370, Note_on_c, 5, 63, 0
7, 116400, Note_on_c, 5, 62, 51
7, 116610, Note_on_c, 5, 62, 0
7, 116640, Note_on_c, 5, 60, 51
7, 118080, Note_on_c, 5, 60, 0
7, 118080, Note_on_c, 5, 58, 51
7, 118560, Note_on_c, 5, 58, 0
7, 118800, Note_on_c, 5, 62, 51
7, 118920, Note_on_c, 5, 62, 0
7, 118920, Note_on_c, 5, 63, 51
7, 119040, Note_on_c, 5, 63, 0
7, 119040, Note_on_c, 5, 65, 51
7, 119280, Note_on_c, 5, 65, 0
7, 119280, Note_on_c, 5, 65, 51
7, 119490, Note_on_c, 5, 65, 0
7, 119520, Note_on_c, 5, 65, 51
7, 120810, Note_on_c, 5, 65, 0
7, 120960, Note_on_c, 5, 63, 51
7, 122160, Note_on_c, 5, 63, 0
7, 122160, Note_on_c, 5, 62, 51
7, 122400, Note_on_c, 5, 62, 0
7, 122400, Note_on_c, 5, 60, 51
7, 123840, Note_on_c, 5, 60, 0
7, 123840, Note_on_c, 5, 58, 51
7, 124320, Note_on_c, 5, 58, 0
7, 124320, Note_on_c, 5, 53, 51
7, 124800, Note_on_c, 5, 53, 0
7, 124800, Note_on_c, 5, 60, 51
7, 125280, Note_on_c, 5, 60, 0
7, 125280, Note_on_c, 5, 58, 51
7, 125760, Note_on_c, 5, 58, 0
7, 125760, Note_on_c, 5, 53, 51
7, 126240, Note_on_c, 5, 53, 0
7, 126240, Note_on_c, 5, 60, 51
7, 126720, Note_on_c, 5, 60, 0
7, 126720, Note_on_c, 5, 58, 51
7, 127150, Note_on_c, 5, 58, 0
7, 127200, Note_on_c, 5, 53, 51
7, 127630, Note_on_c, 5, 53, 0
7, 127680, Note_on_c, 5, 53, 32
7, 128110, Note_on_c, 5, 53, 0
7, 128160, Note_on_c, 5, 53, 32
7, 128590, Note_on_c, 5, 53, 0
7, 129600, End_track
8, 0, Start_track
8, 0, Title_t, "Violoncello                         "
8, 0, Control_c, 6, 7, 50
8, 80, Control_c, 6, 91, 100
8, 160, Control_c, 6, 93, 30
8, 240, Control_c, 6, 10, 70
8, 320, Control_c, 6, 121, 0
8, 480, Pitch_bend_c, 6, 8192
8, 640, Control_c, 6, 1, 0
8, 800, Control_c, 6, 11, 127
8, 960, Control_c, 6, 65, 0
8, 1120, Control_c, 6, 66, 0
8, 1280, Control_c, 6, 67, 0
8, 1440, Program_c, 6, 48
8, 1440, Note_on_c, 6, 46, 51
8, 1870, Note_on_c, 6, 46, 0
8, 1920, Note_on_c, 6, 46, 51
8, 2350, Note_on_c, 6, 46, 0
8, 2400, Note_on_c, 6, 46, 51
8, 2830, Note_on_c, 6, 46, 0
8, 3360, Note_on_c, 6, 58, 51
8, 3790, Note_on_c, 6, 58, 0
8, 3840, Note_on_c, 6, 46, 51
8, 4270, Note_on_c, 6, 46, 0
8, 4800, Note_on_c, 6, 58, 51
8, 5230, Note_on_c, 6, 58, 0
8, 5280, Note_on_c, 6, 46, 51
8, 5710, Note_on_c, 6, 46, 0
8, 5760, Note_on_c, 6, 53, 51
8, 6190, Note_on_c, 6, 53, 0
8, 6240, Note_on_c, 6, 46, 51
8, 6450, Note_on_c, 6, 46, 0
8, 6480, Note_on_c, 6, 58, 51
8, 6690, Note_on_c, 6, 58, 0
8, 6720, Note_on_c, 6, 53, 51
8, 6930, Note_on_c, 6, 53, 0
8, 6960, Note_on_c, 6, 50, 51
8, 7170, Note_on_c, 6, 50, 0
8, 7200, Note_on_c, 6, 46, 51
8, 7630, Note_on_c, 6, 46, 0
8, 7680, Note_on_c, 6, 50, 51
8, 8160, Note_on_c, 6, 50, 0
8, 8160, Note_on_c, 6, 51, 51
8, 8640, Note_on_c, 6, 51, 0
8, 9120, Note_on_c, 6, 48, 51
8, 9600, Note_on_c, 6, 48, 0
8, 9600, Note_on_c, 6, 53, 51
8, 10080, Note_on_c, 6, 53, 0
8, 10080, Note_on_c, 6, 46, 51
8, 10510, Note_on_c, 6, 46, 0
8, 10560, Note_on_c, 6, 50, 51
8, 11040, Note_on_c, 6, 50, 0
8, 11040, Note_on_c, 6, 51, 51
8, 11520, Note_on_c, 6, 51, 0
8, 11520, Note_on_c, 6, 50, 51
8, 12000, Note_on_c, 6, 50, 0
8, 12000, Note_on_c, 6, 46, 51
8, 12480, Note_on_c, 6, 46, 0
8, 12480, Note_on_c, 6, 51, 51
8, 12960, Note_on_c, 6, 51, 0
8, 12960, Note_on_c, 6, 50, 51
8, 13440, Note_on_c, 6, 50, 0
8, 13440, Note_on_c, 6, 46, 51
8, 13920, Note_on_c, 6, 46, 0
8, 13920, Note_on_c, 6, 51, 51
8, 14400, Note_on_c, 6, 51, 0
8, 14400, Note_on_c, 6, 53, 51
8, 14830, Note_on_c, 6, 53, 0
8, 14880, Note_on_c, 6, 41, 51
8, 15310, Note_on_c, 6, 41, 0
8, 15840, Note_on_c, 6, 46, 76
8, 16270, Note_on_c, 6, 46, 0
8, 16320, Note_on_c, 6, 46, 76
8, 16750, Note_on_c, 6, 46, 0
8, 16800, Note_on_c, 6, 46, 76
8, 17230, Note_on_c, 6, 46, 0
8, 17280, Note_on_c, 6, 46, 76
8, 17710, Note_on_c, 6, 46, 0
8, 17760, Note_on_c, 6, 46, 76
8, 18190, Note_on_c, 6, 46, 0
8, 18240, Note_on_c, 6, 46, 76
8, 18670, Note_on_c, 6, 46, 0
8, 18720, Note_on_c, 6, 46, 76
8, 19150, Note_on_c, 6, 46, 0
8, 19200, Note_on_c, 6, 46, 76
8, 19630, Note_on_c, 6, 46, 0
8, 19680, Note_on_c, 6, 46, 76
8, 20110, Note_on_c, 6, 46, 0
8, 20160, Note_on_c, 6, 53, 76
8, 20590, Note_on_c, 6, 53, 0
8, 20640, Note_on_c, 6, 46, 76
8, 20850, Note_on_c, 6, 46, 0
8, 20880, Note_on_c, 6, 58, 76
8, 21090, Note_on_c, 6, 58, 0
8, 21120, Note_on_c, 6, 53, 76
8, 21330, Note_on_c, 6, 53, 0
8, 21360, Note_on_c, 6, 50, 76
8, 21570, Note_on_c, 6, 50, 0
8, 21600, Note_on_c, 6, 46, 51
8, 22030, Note_on_c, 6, 46, 0
8, 22080, Note_on_c, 6, 50, 51
8, 22560, Note_on_c, 6, 50, 0
8, 22560, Note_on_c, 6, 51, 51
8, 23040, Note_on_c, 6, 51, 0
8, 23520, Note_on_c, 6, 48, 51
8, 24000, Note_on_c, 6, 48, 0
8, 24000, Note_on_c, 6, 53, 51
8, 24480, Note_on_c, 6, 53, 0
8, 24480, Note_on_c, 6, 46, 51
8, 24910, Note_on_c, 6, 46, 0
8, 25440, Note_on_c, 6, 58, 76
8, 25870, Note_on_c, 6, 58, 0
8, 25920, Note_on_c, 6, 60, 76
8, 26350, Note_on_c, 6, 60, 0
8, 26400, Note_on_c, 6, 53, 76
8, 26830, Note_on_c, 6, 53, 0
8, 26880, Note_on_c, 6, 58, 76
8, 27310, Note_on_c, 6, 58, 0
8, 27360, Note_on_c, 6, 51, 76
8, 27790, Note_on_c, 6, 51, 0
8, 27840, Note_on_c, 6, 53, 76
8, 28270, Note_on_c, 6, 53, 0
8, 28320, Note_on_c, 6, 41, 76
8, 28750, Note_on_c, 6, 41, 0
8, 28800, Note_on_c, 6, 46, 76
8, 29230, Note_on_c, 6, 46, 0
8, 30240, Note_on_c, 6, 53, 51
8, 30670, Note_on_c, 6, 53, 0
8, 31680, Note_on_c, 6, 53, 51
8, 32110, Note_on_c, 6, 53, 0
8, 33120, Note_on_c, 6, 53, 51
8, 33550, Note_on_c, 6, 53, 0
8, 34560, Note_on_c, 6, 53, 51
8, 34990, Note_on_c, 6, 53, 0
8, 35040, Note_on_c, 6, 41, 51
8, 35470, Note_on_c, 6, 41, 0
8, 36000, Note_on_c, 6, 53, 51
8, 36430, Note_on_c, 6, 53, 0
8, 37440, Note_on_c, 6, 53, 51
8, 37870, Note_on_c, 6, 53, 0
8, 38880, Note_on_c, 6, 53, 51
8, 39310, Note_on_c, 6, 53, 0
8, 40320, Note_on_c, 6, 53, 51
8, 40750, Note_on_c, 6, 53, 0
8, 40800, Note_on_c, 6, 41, 51
8, 41230, Note_on_c, 6, 41, 0
8, 41760, Note_on_c, 6, 46, 51
8, 42240, Note_on_c, 6, 46, 0
8, 42240, Note_on_c, 6, 43, 51
8, 42720, Note_on_c, 6, 43, 0
8, 42720, Note_on_c, 6, 45, 51
8, 43200, Note_on_c, 6, 45, 0
8, 43200, Note_on_c, 6, 48, 51
8, 43680, Note_on_c, 6, 48, 0
8, 43680, Note_on_c, 6, 46, 51
8, 44160, Note_on_c, 6, 46, 0
8, 44160, Note_on_c, 6, 47, 51
8, 44640, Note_on_c, 6, 47, 0
8, 44640, Note_on_c, 6, 48, 51
8, 45070, Note_on_c, 6, 48, 0
8, 45600, Note_on_c, 6, 49, 51
8, 46080, Note_on_c, 6, 49, 0
8, 46080, Note_on_c, 6, 50, 51
8, 46560, Note_on_c, 6, 50, 0
8, 47040, Note_on_c, 6, 47, 51
8, 47520, Note_on_c, 6, 47, 0
8, 47520, Note_on_c, 6, 48, 51
8, 48000, Note_on_c, 6, 48, 0
8, 48480, Note_on_c, 6, 49, 51
8, 48960, Note_on_c, 6, 49, 0
8, 48960, Note_on_c, 6, 50, 51
8, 49440, Note_on_c, 6, 50, 0
8, 49920, Note_on_c, 6, 47, 51
8, 50400, Note_on_c, 6, 47, 0
8, 50400, Note_on_c, 6, 48, 51
8, 50880, Note_on_c, 6, 48, 0
8, 51360, Note_on_c, 6, 48, 51
8, 51790, Note_on_c, 6, 48, 0
8, 51840, Note_on_c, 6, 53, 51
8, 52560, Note_on_c, 6, 53, 0
8, 52560, Note_on_c, 6, 51, 51
8, 52800, Note_on_c, 6, 51, 0
8, 52800, Note_on_c, 6, 50, 51
8, 53040, Note_on_c, 6, 50, 0
8, 53040, Note_on_c, 6, 48, 51
8, 53280, Note_on_c, 6, 48, 0
8, 53280, Note_on_c, 6, 46, 51
8, 53710, Note_on_c, 6, 46, 0
8, 53760, Note_on_c, 6, 46, 51
8, 54190, Note_on_c, 6, 46, 0
8, 54240, Note_on_c, 6, 46, 51
8, 54670, Note_on_c, 6, 46, 0
8, 55200, Note_on_c, 6, 58, 51
8, 55630, Note_on_c, 6, 58, 0
8, 55680, Note_on_c, 6, 46, 51
8, 56110, Note_on_c, 6, 46, 0
8, 56640, Note_on_c, 6, 58, 51
8, 57070, Note_on_c, 6, 58, 0
8, 57120, Note_on_c, 6, 46, 51
8, 57550, Note_on_c, 6, 46, 0
8, 57600, Note_on_c, 6, 53, 51
8, 58030, Note_on_c, 6, 53, 0
8, 58080, Note_on_c, 6, 46, 51
8, 58290, Note_on_c, 6, 46, 0
8, 58320, Note_on_c, 6, 58, 51
8, 58530, Note_on_c, 6, 58, 0
8, 58560, Note_on_c, 6, 53, 51
8, 58770, Note_on_c, 6, 53, 0
8, 58800, Note_on_c, 6, 50, 51
8, 59010, Note_on_c, 6, 50, 0
8, 59040, Note_on_c, 6, 46, 51
8, 59470, Note_on_c, 6, 46, 0
8, 59520, Note_on_c, 6, 50, 51
8, 60000, Note_on_c, 6, 50, 0
8, 60000, Note_on_c, 6, 51, 51
8, 60480, Note_on_c, 6, 51, 0
8, 60960, Note_on_c, 6, 54, 51
8, 61440, Note_on_c, 6, 54, 0
8, 61440, Note_on_c, 6, 53, 51
8, 61920, Note_on_c, 6, 53, 0
8, 61920, Note_on_c, 6, 46, 51
8, 62400, Note_on_c, 6, 46, 0
8, 62400, Note_on_c, 6, 50, 51
8, 62880, Note_on_c, 6, 50, 0
8, 62880, Note_on_c, 6, 51, 51
8, 63360, Note_on_c, 6, 51, 0
8, 63360, Note_on_c, 6, 50, 51
8, 63790, Note_on_c, 6, 50, 0
8, 64800, Note_on_c, 6, 58, 51
8, 65010, Note_on_c, 6, 58, 0
8, 65040, Note_on_c, 6, 51, 51
8, 65250, Note_on_c, 6, 51, 0
8, 65280, Note_on_c, 6, 53, 51
8, 65490, Note_on_c, 6, 53, 0
8, 65760, Note_on_c, 6, 41, 51
8, 65970, Note_on_c, 6, 41, 0
8, 66240, Note_on_c, 6, 46, 51
8, 66670, Note_on_c, 6, 46, 0
8, 67680, Note_on_c, 6, 60, 76
8, 68110, Note_on_c, 6, 60, 0
8, 68160, Note_on_c, 6, 53, 76
8, 68590, Note_on_c, 6, 53, 0
8, 68640, Note_on_c, 6, 58, 76
8, 69070, Note_on_c, 6, 58, 0
8, 69120, Note_on_c, 6, 60, 76
8, 69550, Note_on_c, 6, 60, 0
8, 69600, Note_on_c, 6, 53, 76
8, 70030, Note_on_c, 6, 53, 0
8, 70080, Note_on_c, 6, 58, 76
8, 70510, Note_on_c, 6, 58, 0
8, 70560, Note_on_c, 6, 51, 76
8, 70990, Note_on_c, 6, 51, 0
8, 71040, Note_on_c, 6, 53, 76
8, 71470, Note_on_c, 6, 53, 0
8, 71520, Note_on_c, 6, 41, 76
8, 71950, Note_on_c, 6, 41, 0
8, 72000, Note_on_c, 6, 46, 76
8, 72430, Note_on_c, 6, 46, 0
8, 73440, Note_on_c, 6, 55, 51
8, 73870, Note_on_c, 6, 55, 0
8, 74880, Note_on_c, 6, 54, 51
8, 75310, Note_on_c, 6, 54, 0
8, 76320, Note_on_c, 6, 50, 51
8, 76750, Note_on_c, 6, 50, 0
8, 77760, Note_on_c, 6, 55, 51
8, 78190, Note_on_c, 6, 55, 0
8, 79200, Note_on_c, 6, 55, 51
8, 79630, Note_on_c, 6, 55, 0
8, 80640, Note_on_c, 6, 48, 51
8, 81070, Note_on_c, 6, 48, 0
8, 82080, Note_on_c, 6, 53, 51
8, 82510, Note_on_c, 6, 53, 0
8, 83520, Note_on_c, 6, 46, 51
8, 83950, Note_on_c, 6, 46, 0
8, 84960, Note_on_c, 6, 50, 51
8, 86250, Note_on_c, 6, 50, 0
8, 86400, Note_on_c, 6, 51, 51
8, 87360, Note_on_c, 6, 51, 0
8, 87360, Note_on_c, 6, 49, 51
8, 87840, Note_on_c, 6, 49, 0
8, 87840, Note_on_c, 6, 48, 51
8, 88800, Note_on_c, 6, 48, 0
8, 88800, Note_on_c, 6, 52, 51
8, 89280, Note_on_c, 6, 52, 0
8, 89280, Note_on_c, 6, 53, 51
8, 90240, Note_on_c, 6, 53, 0
8, 90240, Note_on_c, 6, 51, 51
8, 90720, Note_on_c, 6, 51, 0
8, 90720, Note_on_c, 6, 50, 51
8, 91680, Note_on_c, 6, 50, 0
8, 91680, Note_on_c, 6, 54, 51
8, 92160, Note_on_c, 6, 54, 0
8, 92160, Note_on_c, 6, 55, 51
8, 93450, Note_on_c, 6, 55, 0
8, 93600, Note_on_c, 6, 48, 51
8, 94890, Note_on_c, 6, 48, 0
8, 95040, Note_on_c, 6, 53, 51
8, 98160, Note_on_c, 6, 53, 0
8, 98160, Note_on_c, 6, 51, 51
8, 98400, Note_on_c, 6, 51, 0
8, 98400, Note_on_c, 6, 50, 51
8, 98640, Note_on_c, 6, 50, 0
8, 98640, Note_on_c, 6, 48, 51
8, 98880, Note_on_c, 6, 48, 0
8, 98880, Note_on_c, 6, 46, 51
8, 99120, Note_on_c, 6, 46, 0
8, 99120, Note_on_c, 6, 45, 51
8, 99360, Note_on_c, 6, 45, 0
8, 99360, Note_on_c, 6, 46, 51
8, 99790, Note_on_c, 6, 46, 0
8, 99840, Note_on_c, 6, 46, 51
8, 100270, Note_on_c, 6, 46, 0
8, 100320, Note_on_c, 6, 46, 51
8, 100750, Note_on_c, 6, 46, 0
8, 101280, Note_on_c, 6, 58, 51
8, 101710, Note_on_c, 6, 58, 0
8, 101760, Note_on_c, 6, 46, 51
8, 102190, Note_on_c, 6, 46, 0
8, 102720, Note_on_c, 6, 58, 51
8, 103150, Note_on_c, 6, 58, 0
8, 103200, Note_on_c, 6, 46, 51
8, 103630, Note_on_c, 6, 46, 0
8, 103680, Note_on_c, 6, 53, 51
8, 104110, Note_on_c, 6, 53, 0
8, 104160, Note_on_c, 6, 46, 51
8, 104370, Note_on_c, 6, 46, 0
8, 104400, Note_on_c, 6, 58, 51
8, 104610, Note_on_c, 6, 58, 0
8, 104640, Note_on_c, 6, 53, 51
8, 104850, Note_on_c, 6, 53, 0
8, 104880, Note_on_c, 6, 50, 51
8, 105090, Note_on_c, 6, 50, 0
8, 105120, Note_on_c, 6, 46, 51
8, 105550, Note_on_c, 6, 46, 0
8, 105600, Note_on_c, 6, 50, 51
8, 106080, Note_on_c, 6, 50, 0
8, 106080, Note_on_c, 6, 51, 51
8, 106560, Note_on_c, 6, 51, 0
8, 107040, Note_on_c, 6, 54, 51
8, 107520, Note_on_c, 6, 54, 0
8, 107520, Note_on_c, 6, 53, 51
8, 108000, Note_on_c, 6, 53, 0
8, 108000, Note_on_c, 6, 46, 51
8, 108480, Note_on_c, 6, 46, 0
8, 108480, Note_on_c, 6, 50, 51
8, 108960, Note_on_c, 6, 50, 0
8, 108960, Note_on_c, 6, 51, 51
8, 109440, Note_on_c, 6, 51, 0
8, 109440, Note_on_c, 6, 50, 51
8, 109870, Note_on_c, 6, 50, 0
8, 110880, Note_on_c, 6, 58, 51
8, 111090, Note_on_c, 6, 58, 0
8, 111120, Note_on_c, 6, 51, 51
8, 111330, Note_on_c, 6, 51, 0
8, 111360, Note_on_c, 6, 53, 51
8, 111570, Note_on_c, 6, 53, 0
8, 111840, Note_on_c, 6, 41, 51
8, 112050, Note_on_c, 6, 41, 0
8, 112320, Note_on_c, 6, 46, 51
8, 124270, Note_on_c, 6, 46, 0
8, 124800, Note_on_c, 6, 53, 51
8, 125280, Note_on_c, 6, 53, 0
8, 125280, Note_on_c, 6, 58, 51
8, 125760, Note_on_c, 6, 58, 0
8, 126240, Note_on_c, 6, 53, 51
8, 126720, Note_on_c, 6, 53, 0
8, 126720, Note_on_c, 6, 46, 51
8, 127200, Note_on_c, 6, 46, 0
8, 127200, Note_on_c, 6, 46, 51
8, 127630, Note_on_c, 6, 46, 0
8, 127680, Note_on_c, 6, 46, 32
8, 128110, Note_on_c, 6, 46, 0
8, 128160, Note_on_c, 6, 46, 32
8, 128590, Note_on_c, 6, 46, 0
8, 129600, End_track
9, 0, Start_track
9, 0, Title_t, "Basso                               "
9, 0, Control_c, 7, 7, 50
9, 80, Control_c, 7, 91, 100
9, 160, Control_c, 7, 93, 20
9, 240, Control_c, 7, 10, 80
9, 320, Control_c, 7, 121, 0
9, 480, Pitch_bend_c, 7, 8192
9, 640, Control_c, 7, 1, 0
9, 800, Control_c, 7, 11, 127
9, 960, Control_c, 7, 65, 0
9, 1120, Control_c, 7, 66, 0
9, 1280, Control_c, 7, 67, 0
9, 1440, Program_c, 7, 48
9, 1440, Note_on_c, 7, 34, 51
9, 1870, Note_on_c, 7, 34, 0
9, 1920, Note_on_c, 7, 34, 51
9, 2350, Note_on_c, 7, 34, 0
9, 2400, Note_on_c, 7, 34, 51
9, 2830, Note_on_c, 7, 34, 0
9, 3360, Note_on_c, 7, 46, 51
9, 3790, Note_on_c, 7, 46, 0
9, 3840, Note_on_c, 7, 34, 51
9, 4270, Note_on_c, 7, 34, 0
9, 4800, Note_on_c, 7, 46, 51
9, 5230, Note_on_c, 7, 46, 0
9, 5280, Note_on_c, 7, 34, 51
9, 5710, Note_on_c, 7, 34, 0
9, 5760, Note_on_c, 7, 41, 51
9, 6190, Note_on_c, 7, 41, 0
9, 6240, Note_on_c, 7, 34, 51
9, 6450, Note_on_c, 7, 34, 0
9, 6480, Note_on_c, 7, 46, 51
9, 6690, Note_on_c, 7, 46, 0
9, 6720, Note_on_c, 7, 41, 51
9, 6930, Note_on_c, 7, 41, 0
9, 6960, Note_on_c, 7, 38, 51
9, 7170, Note_on_c, 7, 38, 0
9, 7200, Note_on_c, 7, 34, 51
9, 7630, Note_on_c, 7, 34, 0
9, 7680, Note_on_c, 7, 38, 51
9, 8160, Note_on_c, 7, 38, 0
9, 8160, Note_on_c, 7, 39, 51
9, 8640, Note_on_c, 7, 39, 0
9, 9120, Note_on_c, 7, 36, 51
9, 9600, Note_on_c, 7, 36, 0
9, 9600, Note_on_c, 7, 41, 51
9, 10080, Note_on_c, 7, 41, 0
9, 10080, Note_on_c, 7, 34, 51
9, 10510, Note_on_c, 7, 34, 0
9, 10560, Note_on_c, 7, 38, 51
9, 11040, Note_on_c, 7, 38, 0
9, 11040, Note_on_c, 7, 39, 51
9, 11520, Note_on_c, 7, 39, 0
9, 11520, Note_on_c, 7, 38, 51
9, 12000, Note_on_c, 7, 38, 0
9, 12000, Note_on_c, 7, 34, 51
9, 12480, Note_on_c, 7, 34, 0
9, 12480, Note_on_c, 7, 39, 51
9, 12960, Note_on_c, 7, 39, 0
9, 12960, Note_on_c, 7, 38, 51
9, 13440, Note_on_c, 7, 38, 0
9, 13440, Note_on_c, 7, 34, 51
9, 13920, Note_on_c, 7, 34, 0
9, 13920, Note_on_c, 7, 39, 51
9, 14400, Note_on_c, 7, 39, 0
9, 14400, Note_on_c, 7, 41, 51
9, 14830, Note_on_c, 7, 41, 0
9, 14880, Note_on_c, 7, 29, 51
9, 15310, Note_on_c, 7, 29, 0
9, 15840, Note_on_c, 7, 34, 76
9, 16270, Note_on_c, 7, 34, 0
9, 16320, Note_on_c, 7, 34, 76
9, 16750, Note_on_c, 7, 34, 0
9, 16800, Note_on_c, 7, 34, 76
9, 17230, Note_on_c, 7, 34, 0
9, 17280, Note_on_c, 7, 34, 76
9, 17710, Note_on_c, 7, 34, 0
9, 17760, Note_on_c, 7, 34, 76
9, 18190, Note_on_c, 7, 34, 0
9, 18240, Note_on_c, 7, 34, 76
9, 18670, Note_on_c, 7, 34, 0
9, 18720, Note_on_c, 7, 34, 76
9, 19150, Note_on_c, 7, 34, 0
9, 19200, Note_on_c, 7, 34, 76
9, 19630, Note_on_c, 7, 34, 0
9, 19680, Note_on_c, 7, 34, 76
9, 20110, Note_on_c, 7, 34, 0
9, 20160, Note_on_c, 7, 41, 76
9, 20590, Note_on_c, 7, 41, 0
9, 20640, Note_on_c, 7, 34, 76
9, 20850, Note_on_c, 7, 34, 0
9, 20880, Note_on_c, 7, 46, 76
9, 21090, Note_on_c, 7, 46, 0
9, 21120, Note_on_c, 7, 41, 76
9, 21330, Note_on_c, 7, 41, 0
9, 21360, Note_on_c, 7, 38, 76
9, 21570, Note_on_c, 7, 38, 0
9, 21600, Note_on_c, 7, 34, 51
9, 22030, Note_on_c, 7, 34, 0
9, 22080, Note_on_c, 7, 38, 51
9, 22560, Note_on_c, 7, 38, 0
9, 22560, Note_on_c, 7, 39, 51
9, 23040, Note_on_c, 7, 39, 0
9, 23520, Note_on_c, 7, 36, 51
9, 24000, Note_on_c, 7, 36, 0
9, 24000, Note_on_c, 7, 41, 51
9, 24480, Note_on_c, 7, 41, 0
9, 24480, Note_on_c, 7, 34, 51
9, 24910, Note_on_c, 7, 34, 0
9, 25440, Note_on_c, 7, 46, 76
9, 25870, Note_on_c, 7, 46, 0
9, 25920, Note_on_c, 7, 48, 76
9, 26350, Note_on_c, 7, 48, 0
9, 26400, Note_on_c, 7, 41, 76
9, 26830, Note_on_c, 7, 41, 0
9, 26880, Note_on_c, 7, 46, 76
9, 27310, Note_on_c, 7, 46, 0
9, 27360, Note_on_c, 7, 39, 76
9, 27790, Note_on_c, 7, 39, 0
9, 27840, Note_on_c, 7, 41, 76
9, 28270, Note_on_c, 7, 41, 0
9, 28320, Note_on_c, 7, 29, 76
9, 28750, Note_on_c, 7, 29, 0
9, 28800, Note_on_c, 7, 34, 76
9, 29230, Note_on_c, 7, 34, 0
9, 30240, Note_on_c, 7, 41, 51
9, 30670, Note_on_c, 7, 41, 0
9, 31680, Note_on_c, 7, 41, 51
9, 32110, Note_on_c, 7, 41, 0
9, 33120, Note_on_c, 7, 41, 51
9, 33550, Note_on_c, 7, 41, 0
9, 34560, Note_on_c, 7, 41, 51
9, 34990, Note_on_c, 7, 41, 0
9, 35040, Note_on_c, 7, 29, 51
9, 35470, Note_on_c, 7, 29, 0
9, 36000, Note_on_c, 7, 41, 51
9, 36430, Note_on_c, 7, 41, 0
9, 37440, Note_on_c, 7, 41, 51
9, 37870, Note_on_c, 7, 41, 0
9, 38880, Note_on_c, 7, 41, 51
9, 39310, Note_on_c, 7, 41, 0
9, 40320, Note_on_c, 7, 41, 51
9, 40750, Note_on_c, 7, 41, 0
9, 40800, Note_on_c, 7, 29, 51
9, 41230, Note_on_c, 7, 29, 0
9, 41760, Note_on_c, 7, 34, 51
9, 42240, Note_on_c, 7, 34, 0
9, 42240, Note_on_c, 7, 31, 51
9, 42720, Note_on_c, 7, 31, 0
9, 42720, Note_on_c, 7, 33, 51
9, 43200, Note_on_c, 7, 33, 0
9, 43200, Note_on_c, 7, 36, 51
9, 43680, Note_on_c, 7, 36, 0
9, 43680, Note_on_c, 7, 34, 51
9, 44160, Note_on_c, 7, 34, 0
9, 44160, Note_on_c, 7, 35, 51
9, 44640, Note_on_c, 7, 35, 0
9, 44640, Note_on_c, 7, 36, 51
9, 45070, Note_on_c, 7, 36, 0
9, 45600, Note_on_c, 7, 37, 51
9, 46080, Note_on_c, 7, 37, 0
9, 46080, Note_on_c, 7, 38, 51
9, 46560, Note_on_c, 7, 38, 0
9, 47040, Note_on_c, 7, 35, 51
9, 47520, Note_on_c, 7, 35, 0
9, 47520, Note_on_c, 7, 36, 51
9, 48000, Note_on_c, 7, 36, 0
9, 48480, Note_on_c, 7, 37, 51
9, 48960, Note_on_c, 7, 37, 0
9, 48960, Note_on_c, 7, 38, 51
9, 49440, Note_on_c, 7, 38, 0
9, 49920, Note_on_c, 7, 35, 51
9, 50400, Note_on_c, 7, 35, 0
9, 50400, Note_on_c, 7, 36, 51
9, 50880, Note_on_c, 7, 36, 0
9, 51360, Note_on_c, 7, 36, 51
9, 51790, Note_on_c, 7, 36, 0
9, 51840, Note_on_c, 7, 41, 51
9, 52560, Note_on_c, 7, 41, 0
9, 52560, Note_on_c, 7, 39, 51
9, 52800, Note_on_c, 7, 39, 0
9, 52800, Note_on_c, 7, 38, 51
9, 53040, Note_on_c, 7, 38, 0
9, 53040, Note_on_c, 7, 36, 51
9, 53280, Note_on_c, 7, 36, 0
9, 53280, Note_on_c, 7, 34, 51
9, 53710, Note_on_c, 7, 34, 0
9, 53760, Note_on_c, 7, 34, 51
9, 54190, Note_on_c, 7, 34, 0
9, 54240, Note_on_c, 7, 34, 51
9, 54670, Note_on_c, 7, 34, 0
9, 55200, Note_on_c, 7, 46, 51
9, 55630, Note_on_c, 7, 46, 0
9, 55680, Note_on_c, 7, 34, 51
9, 56110, Note_on_c, 7, 34, 0
9, 56640, Note_on_c, 7, 46, 51
9, 57070, Note_on_c, 7, 46, 0
9, 57120, Note_on_c, 7, 34, 51
9, 57550, Note_on_c, 7, 34, 0
9, 57600, Note_on_c, 7, 41, 51
9, 58030, Note_on_c, 7, 41, 0
9, 58080, Note_on_c, 7, 34, 51
9, 58290, Note_on_c, 7, 34, 0
9, 58320, Note_on_c, 7, 46, 51
9, 58530, Note_on_c, 7, 46, 0
9, 58560, Note_on_c, 7, 41, 51
9, 58770, Note_on_c, 7, 41, 0
9, 58800, Note_on_c, 7, 38, 51
9, 59010, Note_on_c, 7, 38, 0
9, 59040, Note_on_c, 7, 34, 51
9, 59470, Note_on_c, 7, 34, 0
9, 59520, Note_on_c, 7, 38, 51
9, 60000, Note_on_c, 7, 38, 0
9, 60000, Note_on_c, 7, 39, 51
9, 60480, Note_on_c, 7, 39, 0
9, 60960, Note_on_c, 7, 42, 51
9, 61440, Note_on_c, 7, 42, 0
9, 61440, Note_on_c, 7, 41, 51
9, 61920, Note_on_c, 7, 41, 0
9, 61920, Note_on_c, 7, 34, 51
9, 62400, Note_on_c, 7, 34, 0
9, 62400, Note_on_c, 7, 38, 51
9, 62880, Note_on_c, 7, 38, 0
9, 62880, Note_on_c, 7, 39, 51
9, 63360, Note_on_c, 7, 39, 0
9, 63360, Note_on_c, 7, 38, 51
9, 63790, Note_on_c, 7, 38, 0
9, 64800, Note_on_c, 7, 46, 51
9, 65010, Note_on_c, 7, 46, 0
9, 65040, Note_on_c, 7, 39, 51
9, 65250, Note_on_c, 7, 39, 0
9, 65280, Note_on_c, 7, 41, 51
9, 65490, Note_on_c, 7, 41, 0
9, 65760, Note_on_c, 7, 29, 51
9, 65970, Note_on_c, 7, 29, 0
9, 66240, Note_on_c, 7, 34, 51
9, 66670, Note_on_c, 7, 34, 0
9, 67680, Note_on_c, 7, 48, 76
9, 68110, Note_on_c, 7, 48, 0
9, 68160, Note_on_c, 7, 41, 76
9, 68590, Note_on_c, 7, 41, 0
9, 68640, Note_on_c, 7, 46, 76
9, 69070, Note_on_c, 7, 46, 0
9, 69120, Note_on_c, 7, 48, 76
9, 69550, Note_on_c, 7, 48, 0
9, 69600, Note_on_c, 7, 41, 76
9, 70030, Note_on_c, 7, 41, 0
9, 70080, Note_on_c, 7, 46, 76
9, 70510, Note_on_c, 7, 46, 0
9, 70560, Note_on_c, 7, 39, 76
9, 70990, Note_on_c, 7, 39, 0
9, 71040, Note_on_c, 7, 41, 76
9, 71470, Note_on_c, 7, 41, 0
9, 71520, Note_on_c, 7, 29, 76
9, 71950, Note_on_c, 7, 29, 0
9, 72000, Note_on_c, 7, 34, 76
9, 72430, Note_on_c, 7, 34, 0
9, 73440, Note_on_c, 7, 43, 51
9, 73870, Note_on_c, 7, 43, 0
9, 74880, Note_on_c, 7, 42, 51
9, 75310, Note_on_c, 7, 42, 0
9, 76320, Note_on_c, 7, 38, 51
9, 76750, Note_on_c, 7, 38, 0
9, 77760, Note_on_c, 7, 43, 51
9, 78190, Note_on_c, 7, 43, 0
9, 79200, Note_on_c, 7, 43, 51
9, 79630, Note_on_c, 7, 43, 0
9, 80640, Note_on_c, 7, 36, 51
9, 81070, Note_on_c, 7, 36, 0
9, 82080, Note_on_c, 7, 41, 51
9, 82510, Note_on_c, 7, 41, 0
9, 83520, Note_on_c, 7, 34, 51
9, 83950, Note_on_c, 7, 34, 0
9, 84960, Note_on_c, 7, 38, 51
9, 86250, Note_on_c, 7, 38, 0
9, 86400, Note_on_c, 7, 39, 51
9, 87360, Note_on_c, 7, 39, 0
9, 87360, Note_on_c, 7, 37, 51
9, 87840, Note_on_c, 7, 37, 0
9, 87840, Note_on_c, 7, 36, 51
9, 88800, Note_on_c, 7, 36, 0
9, 88800, Note_on_c, 7, 40, 51
9, 89280, Note_on_c, 7, 40, 0
9, 89280, Note_on_c, 7, 41, 51
9, 90240, Note_on_c, 7, 41, 0
9, 90240, Note_on_c, 7, 39, 51
9, 90720, Note_on_c, 7, 39, 0
9, 90720, Note_on_c, 7, 38, 51
9, 91680, Note_on_c, 7, 38, 0
9, 91680, Note_on_c, 7, 42, 51
9, 92160, Note_on_c, 7, 42, 0
9, 92160, Note_on_c, 7, 43, 51
9, 93450, Note_on_c, 7, 43, 0
9, 93600, Note_on_c, 7, 36, 51
9, 94890, Note_on_c, 7, 36, 0
9, 95040, Note_on_c, 7, 41, 51
9, 98160, Note_on_c, 7, 41, 0
9, 98160, Note_on_c, 7, 39, 51
9, 98400, Note_on_c, 7, 39, 0
9, 98400, Note_on_c, 7, 38, 51
9, 98640, Note_on_c, 7, 38, 0
9, 98640, Note_on_c, 7, 36, 51
9, 98880, Note_on_c, 7, 36, 0
9, 98880, Note_on_c, 7, 34, 51
9, 99120, Note_on_c, 7, 34, 0
9, 99120, Note_on_c, 7, 33, 51
9, 99360, Note_on_c, 7, 33, 0
9, 99360, Note_on_c, 7, 34, 51
9, 99790, Note_on_c, 7, 34, 0
9, 99840, Note_on_c, 7, 34, 51
9, 100270, Note_on_c, 7, 34, 0
9, 100320, Note_on_c, 7, 34, 51
9, 100750, Note_on_c, 7, 34, 0
9, 101280, Note_on_c, 7, 46, 51
9, 101710, Note_on_c, 7, 46, 0
9, 101760, Note_on_c, 7, 34, 51
9, 102190, Note_on_c, 7, 34, 0
9, 102720, Note_on_c, 7, 46, 51
9, 103150, Note_on_c, 7, 46, 0
9, 103200, Note_on_c, 7, 34, 51
9, 103630, Note_on_c, 7, 34, 0
9, 103680, Note_on_c, 7, 41, 51
9, 104110, Note_on_c, 7, 41, 0
9, 104160, Note_on_c, 7, 34, 51
9, 104370, Note_on_c, 7, 34, 0
9, 104400, Note_on_c, 7, 46, 51
9, 104610, Note_on_c, 7, 46, 0
9, 104640, Note_on_c, 7, 41, 51
9, 104850, Note_on_c, 7, 41, 0
9, 104880, Note_on_c, 7, 38, 51
9, 105090, Note_on_c, 7, 38, 0
9, 105120, Note_on_c, 7, 34, 51
9, 105550, Note_on_c, 7, 34, 0
9, 105600, Note_on_c, 7, 38, 51
9, 106080, Note_on_c, 7, 38, 0
9, 106080, Note_on_c, 7, 39, 51
9, 106560, Note_on_c, 7, 39, 0
9, 107040, Note_on_c, 7, 42, 51
9, 107520, Note_on_c, 7, 42, 0
9, 107520, Note_on_c, 7, 41, 51
9, 108000, Note_on_c, 7, 41, 0
9, 108000, Note_on_c, 7, 34, 51
9, 108480, Note_on_c, 7, 34, 0
9, 108480, Note_on_c, 7, 38, 51
9, 108960, Note_on_c, 7, 38, 0
9, 108960, Note_on_c, 7, 39, 51
9, 109440, Note_on_c, 7, 39, 0
9, 109440, Note_on_c, 7, 38, 51
9, 109870, Note_on_c, 7, 38, 0
9, 110880, Note_on_c, 7, 46, 51
9, 111090, Note_on_c, 7, 46, 0
9, 111120, Note_on_c, 7, 39, 51
9, 111330, Note_on_c, 7, 39, 0
9, 111360, Note_on_c, 7, 41, 51
9, 111570, Note_on_c, 7, 41, 0
9, 111840, Note_on_c, 7, 29, 51
9, 112050, Note_on_c, 7, 29, 0
9, 112320, Note_on_c, 7, 34, 51
9, 124270, Note_on_c, 7, 34, 0
9, 124800, Note_on_c, 7, 41, 51
9, 125280, Note_on_c, 7, 41, 0
9, 125280, Note_on_c, 7, 46, 51
9, 125760, Note_on_c, 7, 46, 0
9, 126240, Note_on_c, 7, 41, 51
9, 126720, Note_on_c, 7, 41, 0
9, 126720, Note_on_c, 7, 34, 51
9, 127200, Note_on_c, 7, 34, 0
9, 127200, Note_on_c, 7, 34, 51
9, 127630, Note_on_c, 7, 34, 0
9, 127680, Note_on_c, 7, 34, 32
9, 128110, Note_on_c, 7, 34, 0
9, 128160, Note_on_c, 7, 34, 32
9, 128590, Note_on_c, 7, 34, 0
9, 129600, End_track
10, 0, Start_track
10, 0, Title_t, "                                    "
10, 1440, End_track
11, 0, Start_track
11, 0, Title_t, "                                    "
11, 1440, End_track
12, 0, Start_track
12, 0, Title_t, "                                    "
12, 1440, End_track
13, 0, Start_track
13, 0, Title_t, "                                    "
13, 1440, End_track
14, 0, Start_track
14, 0, Title_t, "                                    "
14, 1440, End_track
15, 0, Start_track
15, 0, Title_t, "                                    "
15, 1440, End_track
16, 0, Start_track
16, 0, Title_t, "                                    "
16, 1440, End_track
17, 0, Start_track
17, 0, Title_t, "                                    "
17, 1440, End_track
18, 0, Start_track
18, 0, Title_t, "                                    "
18, 1440, End_track
19, 0, Start_track
19, 0, Title_t, "                                    "
19, 1440, End_track
20, 0, Start_track
20, 0, Title_t, "                                    "
20, 1440, End_track
21, 0, Start_track
21, 0, Title_t, "                                    "
21, 1440, End_track
22, 0, Start_track
22, 0, Title_t, "                                    "
22, 1440, End_track
23, 0, Start_track
23, 0, Title_t, "                                    "
23, 1440, End_track
24, 0, Start_track
24, 0, Title_t, "                                    "
24, 1440, End_track
25, 0, Start_track
25, 0, Title_t, "                                    "
25, 1440, End_track
26, 0, Start_track
26, 0, Title_t, "                                    "
26, 1440, End_track
27, 0, Start_track
27, 0, Title_t, "                                    "
27, 1440, End_track
28, 0, Start_track
28, 0, Title_t, "                                    "
28, 1440, End_track
29, 0, Start_track
29, 0, Title_t, "                                    "
29, 1440, End_track
30, 0, Start_track
30, 0, Title_t, "                                    "
30, 1440, End_track
31, 0, Start_track
31, 0, Title_t, "                                    "
31, 1440, End_track
32, 0, Start_track
32, 0, Title_t, "                                    "
32, 1440, End_track
33, 0, Start_track
33, 0, Title_t, "                                    "
33, 1440, End_track
34, 0, Start_track
34, 0, Title_t, "                                    "
34, 1440, End_track
35, 0, Start_track
35, 0, Title_t, "                                    "
35, 1440, End_track
36, 0, Start_track
36, 0, Title_t, "                                    "
36, 1440, End_track
0, 0, End_of_file