0, 0, Header, 1, 5, 240
1, 0, Start_track
1, 0, Time_signature, 2, 2, 24, 8
1, 0, Tempo, 612245
1, 480, Time_signature, 4, 2, 24, 8
1, 2160, Tempo, 606061
1, 6240, Tempo, 600000
1, 7200, Tempo, 606061
1, 13920, Tempo, 600000
1, 14880, Tempo, 606061
1, 21600, Tempo, 600000
1, 22560, Tempo, 606061
1, 28320, Tempo, 600000
1, 29280, Tempo, 606061
1, 36000, Tempo, 600000
1, 36960, Tempo, 606061
1, 40080, Tempo, 652174
1, 40320, Tempo, 705882
1, 40560, Tempo, 759494
1, 40800, Tempo, 810811
1, 41040, Tempo, 882353
1, 41280, Tempo, 606061
1, 45600, Tempo, 600000
1, 46560, Tempo, 606061
1, 53280, Tempo, 600000
1, 54240, Tempo, 606061
1, 60960, Tempo, 600000
1, 61920, Tempo, 606061
1, 67680, Tempo, 600000
1, 68640, Tempo, 606061
1, 75360, Tempo, 600000
1, 76320, Tempo, 606061
1, 83040, Tempo, 600000
1, 84000, Tempo, 606061
1, 86160, Tempo, 631579
1, 86400, Tempo, 659341
1, 86640, Tempo, 689655
1, 86880, Tempo, 731707
1, 87120, Tempo, 689655
1, 87360, Tempo, 659341
1, 87600, Tempo, 631579
1, 87840, Tempo, 606061
1, 92640, Tempo, 600000
1, 93600, Tempo, 606061
1, 99360, Tempo, 600000
1, 99600, Tempo, 618557
1, 99840, Tempo, 638298
1, 100080, Tempo, 659341
1, 100320, Tempo, 674157
1, 100676, Tempo, 1153846
1, 100800, Tempo, 681818
1, 101280, Tempo, 689655
1, 101640, Tempo, 1153846
1, 101760, Tempo, 606061
1, 104160, Tempo, 600000
1, 105120, Tempo, 606061
1, 105600, Tempo, 600000
1, 105840, Tempo, 594059
1, 106320, Tempo, 582524
1, 107040, Tempo, 576923
1, 107280, Tempo, 571429
1, 107760, Tempo, 560748
1, 108480, Tempo, 550459
1, 108960, Tempo, 545455
1, 109440, Tempo, 540541
1, 109920, Tempo, 530973
1, 110160, Tempo, 526316
1, 110880, Tempo, 606061
1, 111840, Tempo, 600000
1, 112800, Tempo, 606061
1, 119520, Tempo, 600000
1, 120480, Tempo, 606061
1, 126240, Tempo, 600000
1, 127200, Tempo, 606061
1, 127440, Tempo, 612245
1, 127680, Tempo, 625000
1, 127920, Tempo, 631579
1, 128160, Tempo, 645161
1, 128400, Tempo, 652174
1, 128640, Tempo, 674157
1, 129120, Tempo, 689655
1, 129120, End_track
2, 0, Start_track
2, 0, Title_t, "Piano RH"
2, 0, Program_c, 2, 0
2, 0, Control_c, 2, 7, 126
2, 0, Control_c, 2, 93, 0
2, 0, Control_c, 2, 91, 12
2, 0, Control_c, 2, 10, 72
2, 0, Note_on_c, 2, 72, 81
2, 194, Note_off_c, 2, 72, 66
2, 241, Note_on_c, 2, 72, 80
2, 431, Note_off_c, 2, 72, 65
2, 478, Note_on_c, 2, 72, 82
2, 598, Note_off_c, 2, 72, 65
2, 601, Note_on_c, 2, 71, 79
2, 719, Note_off_c, 2, 71, 67
2, 721, Note_on_c, 2, 69, 83
2, 838, Note_on_c, 2, 71, 82
2, 839, Note_off_c, 2, 69, 64
2, 960, Note_off_c, 2, 71, 62
2, 962, Note_on_c, 2, 72, 83
2, 1202, Note_on_c, 2, 72, 83
2, 1204, Note_off_c, 2, 72, 66
2, 1236, Note_on_c, 2, 74, 78
2, 1238, Note_off_c, 2, 72, 56
2, 1272, Note_on_c, 2, 72, 77
2, 1273, Note_off_c, 2, 74, 53
2, 1309, Note_off_c, 2, 72, 56
2, 1309, Note_on_c, 2, 71, 79
2, 1345, Note_off_c, 2, 71, 54
2, 1345, Note_on_c, 2, 72, 82
2, 1380, Note_on_c, 2, 76, 81
2, 1382, Note_off_c, 2, 72, 55
2, 1442, Note_off_c, 2, 76, 58
2, 1442, Note_on_c, 2, 79, 78
2, 1918, Note_on_c, 2, 77, 83
2, 1923, Note_off_c, 2, 79, 64
2, 2038, Note_off_c, 2, 77, 65
2, 2038, Note_on_c, 2, 81, 80
2, 2276, Note_off_c, 2, 81, 65
2, 2280, Note_on_c, 2, 79, 82
2, 2340, Note_off_c, 2, 79, 55
2, 2341, Note_on_c, 2, 77, 81
2, 2402, Note_off_c, 2, 77, 56
2, 2402, Note_on_c, 2, 76, 82
2, 2520, Note_on_c, 2, 79, 79
2, 2524, Note_off_c, 2, 76, 62
2, 2762, Note_off_c, 2, 79, 67
2, 2762, Note_on_c, 2, 77, 83
2, 2820, Note_on_c, 2, 76, 80
2, 2822, Note_off_c, 2, 77, 55
2, 2880, Note_on_c, 2, 74, 83
2, 2881, Note_off_c, 2, 76, 54
2, 2938, Note_on_c, 2, 76, 79
2, 2941, Note_off_c, 2, 74, 53
2, 2998, Note_off_c, 2, 76, 54
2, 2999, Note_on_c, 2, 77, 81
2, 3059, Note_off_c, 2, 77, 55
2, 3060, Note_on_c, 2, 76, 78
2, 3118, Note_on_c, 2, 79, 81
2, 3122, Note_off_c, 2, 76, 56
2, 3178, Note_off_c, 2, 79, 59
2, 3178, Note_on_c, 2, 77, 83
2, 3237, Note_off_c, 2, 77, 53
2, 3241, Note_on_c, 2, 76, 80
2, 3300, Note_on_c, 2, 74, 82
2, 3301, Note_off_c, 2, 76, 54
2, 3360, Note_off_c, 2, 74, 57
2, 3361, Note_on_c, 2, 72, 80
2, 3602, Note_off_c, 2, 72, 62
2, 3602, Note_on_c, 2, 71, 79
2, 3722, Note_on_c, 2, 67, 78
2, 3724, Note_off_c, 2, 71, 63
2, 3817, Note_off_c, 2, 67, 64
2, 3822, Note_on_c, 2, 67, 80
2, 3840, Note_on_c, 2, 72, 78
2, 3850, Note_off_c, 2, 67, 66
2, 4033, Note_off_c, 2, 72, 63
2, 4080, Note_on_c, 2, 72, 79
2, 4271, Note_off_c, 2, 72, 67
2, 4318, Note_on_c, 2, 72, 82
2, 4436, Note_off_c, 2, 72, 65
2, 4439, Note_on_c, 2, 71, 77
2, 4559, Note_on_c, 2, 69, 83
2, 4560, Note_off_c, 2, 71, 63
2, 4679, Note_off_c, 2, 69, 66
2, 4682, Note_on_c, 2, 71, 83
2, 4798, Note_on_c, 2, 72, 79
2, 4801, Note_off_c, 2, 71, 62
2, 5036, Note_off_c, 2, 72, 63
2, 5038, Note_on_c, 2, 72, 80
2, 5075, Note_off_c, 2, 72, 59
2, 5078, Note_on_c, 2, 74, 78
2, 5111, Note_on_c, 2, 72, 83
2, 5115, Note_off_c, 2, 74, 55
2, 5145, Note_off_c, 2, 72, 55
2, 5150, Note_on_c, 2, 71, 83
2, 5186, Note_off_c, 2, 71, 53
2, 5186, Note_on_c, 2, 72, 79
2, 5219, Note_on_c, 2, 76, 80
2, 5220, Note_off_c, 2, 72, 58
2, 5277, Note_off_c, 2, 76, 58
2, 5281, Note_on_c, 2, 79, 80
2, 5758, Note_on_c, 2, 77, 79
2, 5760, Note_off_c, 2, 79, 67
2, 6057, Note_off_c, 2, 77, 63
2, 6060, Note_on_c, 2, 81, 82
2, 6119, Note_off_c, 2, 81, 58
2, 6122, Note_on_c, 2, 79, 82
2, 6178, Note_on_c, 2, 77, 83
2, 6184, Note_off_c, 2, 79, 54
2, 6238, Note_off_c, 2, 77, 55
2, 6240, Note_on_c, 2, 76, 83
2, 6298, Note_off_c, 2, 76, 58
2, 6302, Note_on_c, 2, 79, 82
2, 6361, Note_off_c, 2, 79, 56
2, 6362, Note_on_c, 2, 77, 78
2, 6421, Note_off_c, 2, 77, 59
2, 6422, Note_on_c, 2, 76, 78
2, 6479, Note_on_c, 2, 74, 80
2, 6480, Note_off_c, 2, 76, 54
2, 6539, Note_off_c, 2, 74, 58
2, 6540, Note_on_c, 2, 77, 77
2, 6598, Note_on_c, 2, 76, 78
2, 6599, Note_off_c, 2, 77, 53
2, 6659, Note_off_c, 2, 76, 54
2, 6659, Note_on_c, 2, 74, 81
2, 6717, Note_off_c, 2, 74, 53
2, 6719, Note_on_c, 2, 72, 80
2, 6766, Note_off_c, 2, 72, 54
2, 6769, Note_on_c, 2, 74, 83
2, 6815, Note_off_c, 2, 74, 54
2, 6817, Note_on_c, 2, 72, 80
2, 6864, Note_on_c, 2, 71, 77
2, 6867, Note_off_c, 2, 72, 57
2, 6912, Note_off_c, 2, 71, 55
2, 6914, Note_on_c, 2, 72, 78
2, 6959, Note_on_c, 2, 76, 78
2, 6961, Note_off_c, 2, 72, 58
2, 7078, Note_off_c, 2, 76, 65
2, 7082, Note_on_c, 2, 74, 77
2, 7198, Note_on_c, 2, 72, 80
2, 7200, Note_on_c, 2, 64, 79
2, 7203, Note_off_c, 2, 74, 62
2, 7439, Note_off_c, 2, 72, 64
2, 7442, Note_off_c, 2, 64, 64
2, 7799, Note_on_c, 2, 67, 77
2, 7870, Note_off_c, 2, 67, 65
2, 7920, Note_on_c, 2, 72, 78
2, 7991, Note_off_c, 2, 72, 63
2, 8038, Note_on_c, 2, 76, 80
2, 8109, Note_off_c, 2, 76, 66
2, 8162, Note_on_c, 2, 77, 82
2, 8339, Note_on_c, 2, 74, 81
2, 8343, Note_off_c, 2, 77, 64
2, 8400, Note_off_c, 2, 74, 56
2, 8400, Note_on_c, 2, 71, 79
2, 8642, Note_off_c, 2, 71, 64
2, 8762, Note_on_c, 2, 67, 78
2, 8835, Note_off_c, 2, 67, 66
2, 8882, Note_on_c, 2, 71, 83
2, 8952, Note_off_c, 2, 71, 65
2, 8999, Note_on_c, 2, 74, 82
2, 9071, Note_off_c, 2, 74, 63
2, 9119, Note_on_c, 2, 76, 79
2, 9298, Note_on_c, 2, 72, 78
2, 9300, Note_off_c, 2, 76, 64
2, 9358, Note_off_c, 2, 72, 54
2, 9362, Note_on_c, 2, 67, 78
2, 9601, Note_off_c, 2, 67, 66
2, 9722, Note_on_c, 2, 67, 80
2, 9781, Note_on_c, 2, 69, 83
2, 9783, Note_off_c, 2, 67, 57
2, 9841, Note_on_c, 2, 71, 77
2, 9843, Note_off_c, 2, 69, 56
2, 9898, Note_on_c, 2, 72, 83
2, 9900, Note_off_c, 2, 71, 58
2, 9959, Note_on_c, 2, 74, 83
2, 9960, Note_off_c, 2, 72, 55
2, 10021, Note_off_c, 2, 74, 54
2, 10022, Note_on_c, 2, 76, 78
2, 10079, Note_on_c, 2, 79, 79
2, 10080, Note_off_c, 2, 76, 57
2, 10139, Note_off_c, 2, 79, 54
2, 10139, Note_on_c, 2, 77, 77
2, 10198, Note_off_c, 2, 77, 57
2, 10199, Note_on_c, 2, 76, 78
2, 10259, Note_on_c, 2, 74, 82
2, 10261, Note_off_c, 2, 76, 58
2, 10318, Note_on_c, 2, 72, 78
2, 10320, Note_off_c, 2, 74, 54
2, 10438, Note_off_c, 2, 72, 63
2, 10438, Note_on_c, 2, 71, 81
2, 10557, Note_off_c, 2, 71, 67
2, 10679, Note_on_c, 2, 79, 83
2, 10737, Note_off_c, 2, 79, 57
2, 10739, Note_on_c, 2, 81, 79
2, 10798, Note_off_c, 2, 81, 58
2, 10802, Note_on_c, 2, 83, 77
2, 10858, Note_on_c, 2, 84, 77
2, 10860, Note_off_c, 2, 83, 56
2, 10916, Note_off_c, 2, 84, 53
2, 10921, Note_on_c, 2, 86, 79
2, 10979, Note_on_c, 2, 87, 78
2, 10982, Note_off_c, 2, 86, 55
2, 11037, Note_off_c, 2, 87, 56
2, 11038, Note_on_c, 2, 88, 83
2, 11096, Note_off_c, 2, 88, 58
2, 11098, Note_on_c, 2, 87, 80
2, 11156, Note_off_c, 2, 87, 58
2, 11158, Note_on_c, 2, 89, 77
2, 11218, Note_on_c, 2, 88, 80
2, 11220, Note_off_c, 2, 89, 53
2, 11278, Note_off_c, 2, 88, 59
2, 11282, Note_on_c, 2, 86, 82
2, 11339, Note_on_c, 2, 84, 78
2, 11340, Note_off_c, 2, 86, 54
2, 11398, Note_off_c, 2, 84, 57
2, 11399, Note_on_c, 2, 83, 79
2, 11457, Note_off_c, 2, 83, 56
2, 11459, Note_on_c, 2, 81, 78
2, 11520, Note_off_c, 2, 81, 57
2, 11521, Note_on_c, 2, 79, 77
2, 11555, Note_off_c, 2, 79, 54
2, 11580, Note_on_c, 2, 88, 80
2, 11614, Note_off_c, 2, 88, 58
2, 11638, Note_on_c, 2, 86, 75
2, 11673, Note_off_c, 2, 86, 58
2, 11700, Note_on_c, 2, 84, 75
2, 11738, Note_off_c, 2, 84, 56
2, 11760, Note_on_c, 2, 83, 76
2, 11798, Note_off_c, 2, 83, 58
2, 11821, Note_on_c, 2, 81, 76
2, 11855, Note_off_c, 2, 81, 59
2, 11879, Note_on_c, 2, 79, 76
2, 11914, Note_off_c, 2, 79, 56
2, 11941, Note_on_c, 2, 77, 75
2, 11977, Note_off_c, 2, 77, 53
2, 12000, Note_on_c, 2, 76, 74
2, 12035, Note_off_c, 2, 76, 58
2, 12059, Note_on_c, 2, 84, 72
2, 12094, Note_off_c, 2, 84, 56
2, 12120, Note_on_c, 2, 83, 74
2, 12154, Note_off_c, 2, 83, 53
2, 12181, Note_on_c, 2, 81, 75
2, 12219, Note_off_c, 2, 81, 53
2, 12239, Note_on_c, 2, 79, 74
2, 12273, Note_off_c, 2, 79, 54
2, 12299, Note_on_c, 2, 77, 75
2, 12333, Note_off_c, 2, 77, 57
2, 12362, Note_on_c, 2, 76, 69
2, 12400, Note_off_c, 2, 76, 58
2, 12418, Note_on_c, 2, 74, 72
2, 12452, Note_off_c, 2, 74, 55
2, 12480, Note_on_c, 2, 72, 79
2, 12671, Note_off_c, 2, 72, 67
2, 12720, Note_on_c, 2, 72, 82
2, 12910, Note_off_c, 2, 72, 63
2, 12962, Note_on_c, 2, 72, 80
2, 13081, Note_on_c, 2, 71, 83
2, 13083, Note_off_c, 2, 72, 67
2, 13200, Note_off_c, 2, 71, 65
2, 13200, Note_on_c, 2, 69, 78
2, 13321, Note_on_c, 2, 71, 80
2, 13322, Note_off_c, 2, 69, 61
2, 13441, Note_off_c, 2, 71, 61
2, 13442, Note_on_c, 2, 72, 81
2, 13679, Note_on_c, 2, 72, 81
2, 13684, Note_off_c, 2, 72, 65
2, 13717, Note_off_c, 2, 72, 58
2, 13717, Note_on_c, 2, 74, 77
2, 13751, Note_off_c, 2, 74, 53
2, 13752, Note_on_c, 2, 72, 83
2, 13787, Note_on_c, 2, 71, 78
2, 13789, Note_off_c, 2, 72, 58
2, 13825, Note_off_c, 2, 71, 56
2, 13826, Note_on_c, 2, 72, 79
2, 13859, Note_on_c, 2, 76, 78
2, 13861, Note_off_c, 2, 72, 53
2, 13921, Note_off_c, 2, 76, 59
2, 13922, Note_on_c, 2, 79, 79
2, 14399, Note_on_c, 2, 77, 81
2, 14403, Note_off_c, 2, 79, 65
2, 14701, Note_off_c, 2, 77, 64
2, 14701, Note_on_c, 2, 81, 82
2, 14758, Note_on_c, 2, 79, 79
2, 14761, Note_off_c, 2, 81, 57
2, 14818, Note_off_c, 2, 79, 56
2, 14819, Note_on_c, 2, 77, 79
2, 14880, Note_off_c, 2, 77, 55
2, 14882, Note_on_c, 2, 76, 83
2, 14941, Note_off_c, 2, 76, 57
2, 14942, Note_on_c, 2, 79, 80
2, 15000, Note_off_c, 2, 79, 57
2, 15002, Note_on_c, 2, 77, 79
2, 15060, Note_on_c, 2, 76, 78
2, 15063, Note_off_c, 2, 77, 59
2, 15119, Note_off_c, 2, 76, 56
2, 15119, Note_on_c, 2, 74, 81
2, 15178, Note_off_c, 2, 74, 54
2, 15178, Note_on_c, 2, 77, 81
2, 15238, Note_on_c, 2, 76, 82
2, 15240, Note_off_c, 2, 77, 59
2, 15299, Note_off_c, 2, 76, 54
2, 15300, Note_on_c, 2, 74, 81
2, 15359, Note_on_c, 2, 72, 81
2, 15361, Note_off_c, 2, 74, 58
2, 15409, Note_off_c, 2, 72, 57
2, 15409, Note_on_c, 2, 74, 78
2, 15456, Note_on_c, 2, 72, 83
2, 15457, Note_off_c, 2, 74, 55
2, 15504, Note_on_c, 2, 71, 80
2, 15505, Note_off_c, 2, 72, 58
2, 15550, Note_off_c, 2, 71, 53
2, 15551, Note_on_c, 2, 72, 83
2, 15601, Note_off_c, 2, 72, 54
2, 15601, Note_on_c, 2, 76, 79
2, 15721, Note_off_c, 2, 76, 64
2, 15722, Note_on_c, 2, 74, 77
2, 15841, Note_on_c, 2, 72, 77
2, 15841, Note_on_c, 2, 64, 80
2, 15843, Note_off_c, 2, 74, 63
2, 16079, Note_off_c, 2, 64, 63
2, 16081, Note_off_c, 2, 72, 65
2, 16379, Note_on_c, 2, 72, 84
2, 16439, Note_off_c, 2, 72, 56
2, 16440, Note_on_c, 2, 74, 81
2, 16500, Note_on_c, 2, 76, 84
2, 16502, Note_off_c, 2, 74, 54
2, 16558, Note_off_c, 2, 76, 53
2, 16558, Note_on_c, 2, 77, 86
2, 16616, Note_off_c, 2, 77, 53
2, 16619, Note_on_c, 2, 79, 87
2, 16680, Note_off_c, 2, 79, 57
2, 16681, Note_on_c, 2, 81, 84
2, 16740, Note_on_c, 2, 83, 88
2, 16743, Note_off_c, 2, 81, 58
2, 16799, Note_on_c, 2, 84, 92
2, 16801, Note_off_c, 2, 83, 55
2, 17158, Note_off_c, 2, 84, 64
2, 17159, Note_on_c, 2, 81, 81
2, 17279, Note_on_c, 2, 78, 83
2, 17280, Note_off_c, 2, 81, 63
2, 17398, Note_off_c, 2, 78, 61
2, 17401, Note_on_c, 2, 72, 82
2, 17423, Note_off_c, 2, 72, 50
2, 17426, Note_on_c, 2, 74, 77
2, 17446, Note_on_c, 2, 72, 77
2, 17448, Note_off_c, 2, 74, 45
2, 17468, Note_off_c, 2, 72, 50
2, 17474, Note_on_c, 2, 71, 82
2, 17496, Note_on_c, 2, 72, 82
2, 17499, Note_off_c, 2, 71, 46
2, 17519, Note_off_c, 2, 72, 47
2, 17520, Note_on_c, 2, 74, 83
2, 17590, Note_off_c, 2, 74, 61
2, 17641, Note_on_c, 2, 69, 83
2, 17711, Note_off_c, 2, 69, 63
2, 17759, Note_on_c, 2, 72, 83
2, 17998, Note_off_c, 2, 72, 66
2, 18000, Note_on_c, 2, 71, 79
2, 18239, Note_off_c, 2, 71, 67
2, 18299, Note_on_c, 2, 67, 79
2, 18360, Note_off_c, 2, 67, 57
2, 18360, Note_on_c, 2, 69, 82
2, 18418, Note_off_c, 2, 69, 53
2, 18419, Note_on_c, 2, 71, 77
2, 18478, Note_off_c, 2, 71, 57
2, 18480, Note_on_c, 2, 72, 77
2, 18539, Note_off_c, 2, 72, 57
2, 18540, Note_on_c, 2, 74, 80
2, 18600, Note_on_c, 2, 76, 77
2, 18602, Note_off_c, 2, 74, 57
2, 18658, Note_off_c, 2, 76, 56
2, 18662, Note_on_c, 2, 78, 81
2, 18718, Note_on_c, 2, 79, 79
2, 18720, Note_off_c, 2, 78, 57
2, 19076, Note_off_c, 2, 79, 63
2, 19081, Note_on_c, 2, 76, 77
2, 19198, Note_on_c, 2, 73, 78
2, 19199, Note_off_c, 2, 76, 66
2, 19316, Note_off_c, 2, 73, 66
2, 19320, Note_on_c, 2, 67, 79
2, 19342, Note_on_c, 2, 69, 80
2, 19345, Note_off_c, 2, 67, 49
2, 19366, Note_off_c, 2, 69, 48
2, 19367, Note_on_c, 2, 67, 82
2, 19390, Note_off_c, 2, 67, 47
2, 19391, Note_on_c, 2, 66, 82
2, 19417, Note_off_c, 2, 66, 45
2, 19417, Note_on_c, 2, 67, 79
2, 19439, Note_off_c, 2, 67, 47
2, 19442, Note_on_c, 2, 69, 86
2, 19514, Note_off_c, 2, 69, 66
2, 19559, Note_on_c, 2, 64, 86
2, 19629, Note_off_c, 2, 64, 66
2, 19682, Note_on_c, 2, 67, 91
2, 19860, Note_on_c, 2, 66, 96
2, 19864, Note_off_c, 2, 67, 65
2, 19919, Note_off_c, 2, 66, 58
2, 19922, Note_on_c, 2, 74, 95
2, 20220, Note_on_c, 2, 73, 91
2, 20224, Note_off_c, 2, 74, 65
2, 20280, Note_on_c, 2, 76, 91
2, 20281, Note_off_c, 2, 73, 53
2, 20338, Note_on_c, 2, 74, 89
2, 20341, Note_off_c, 2, 76, 53
2, 20400, Note_off_c, 2, 74, 53
2, 20401, Note_on_c, 2, 72, 88
2, 20459, Note_on_c, 2, 71, 86
2, 20460, Note_off_c, 2, 72, 57
2, 20519, Note_off_c, 2, 71, 54
2, 20521, Note_on_c, 2, 69, 82
2, 20578, Note_on_c, 2, 67, 79
2, 20579, Note_off_c, 2, 69, 53
2, 20636, Note_off_c, 2, 67, 57
2, 20641, Note_on_c, 2, 66, 79
2, 20700, Note_off_c, 2, 66, 59
2, 20701, Note_on_c, 2, 67, 77
2, 20759, Note_on_c, 2, 69, 78
2, 20760, Note_off_c, 2, 67, 56
2, 20820, Note_off_c, 2, 69, 54
2, 20820, Note_on_c, 2, 71, 78
2, 20879, Note_on_c, 2, 69, 80
2, 20880, Note_off_c, 2, 71, 58
2, 20937, Note_off_c, 2, 69, 57
2, 20939, Note_on_c, 2, 71, 81
2, 20997, Note_off_c, 2, 71, 56
2, 20999, Note_on_c, 2, 73, 80
2, 21060, Note_off_c, 2, 73, 56
2, 21062, Note_on_c, 2, 74, 82
2, 21118, Note_on_c, 2, 73, 82
2, 21124, Note_off_c, 2, 74, 54
2, 21176, Note_off_c, 2, 73, 57
2, 21180, Note_on_c, 2, 74, 82
2, 21239, Note_off_c, 2, 74, 53
2, 21242, Note_on_c, 2, 76, 84
2, 21300, Note_on_c, 2, 74, 85
2, 21301, Note_off_c, 2, 76, 56
2, 21361, Note_off_c, 2, 74, 57
2, 21362, Note_on_c, 2, 73, 86
2, 21418, Note_on_c, 2, 71, 83
2, 21422, Note_off_c, 2, 73, 54
2, 21477, Note_off_c, 2, 71, 54
2, 21481, Note_on_c, 2, 69, 89
2, 21539, Note_off_c, 2, 69, 59
2, 21541, Note_on_c, 2, 67, 88
2, 21601, Note_on_c, 2, 66, 85
2, 21603, Note_off_c, 2, 67, 54
2, 21662, Note_on_c, 2, 67, 89
2, 21663, Note_off_c, 2, 66, 59
2, 21718, Note_on_c, 2, 69, 90
2, 21721, Note_off_c, 2, 67, 55
2, 21778, Note_off_c, 2, 69, 57
2, 21778, Note_on_c, 2, 71, 91
2, 21840, Note_off_c, 2, 71, 58
2, 21841, Note_on_c, 2, 73, 87
2, 21899, Note_off_c, 2, 73, 57
2, 21899, Note_on_c, 2, 74, 89
2, 21958, Note_on_c, 2, 76, 87
2, 21960, Note_off_c, 2, 74, 59
2, 22016, Note_off_c, 2, 76, 59
2, 22020, Note_on_c, 2, 78, 88
2, 22079, Note_on_c, 2, 79, 91
2, 22081, Note_off_c, 2, 78, 57
2, 22137, Note_off_c, 2, 79, 55
2, 22141, Note_on_c, 2, 78, 92
2, 22152, Note_on_c, 2, 79, 92
2, 22153, Note_off_c, 2, 78, 51
2, 22162, Note_off_c, 2, 79, 46
2, 22164, Note_on_c, 2, 78, 88
2, 22178, Note_off_c, 2, 78, 51
2, 22178, Note_on_c, 2, 76, 91
2, 22186, Note_on_c, 2, 78, 91
2, 22192, Note_off_c, 2, 76, 51
2, 22196, Note_off_c, 2, 78, 48
2, 22200, Note_on_c, 2, 79, 92
2, 22259, Note_off_c, 2, 79, 55
2, 22261, Note_on_c, 2, 81, 91
2, 22322, Note_off_c, 2, 81, 58
2, 22322, Note_on_c, 2, 83, 90
2, 22381, Note_off_c, 2, 83, 53
2, 22381, Note_on_c, 2, 81, 92
2, 22392, Note_off_c, 2, 81, 51
2, 22393, Note_on_c, 2, 83, 93
2, 22403, Note_off_c, 2, 83, 49
2, 22403, Note_on_c, 2, 81, 96
2, 22414, Note_on_c, 2, 80, 96
2, 22415, Note_off_c, 2, 81, 46
2, 22425, Note_off_c, 2, 80, 48
2, 22430, Note_on_c, 2, 81, 93
2, 22442, Note_on_c, 2, 83, 91
2, 22444, Note_off_c, 2, 81, 48
2, 22500, Note_off_c, 2, 83, 54
2, 22502, Note_on_c, 2, 85, 92
2, 22561, Note_off_c, 2, 85, 55
2, 22561, Note_on_c, 2, 86, 96
2, 22620, Note_on_c, 2, 85, 92
2, 22623, Note_off_c, 2, 86, 54
2, 22679, Note_off_c, 2, 85, 57
2, 22682, Note_on_c, 2, 88, 93
2, 22738, Note_on_c, 2, 86, 92
2, 22743, Note_off_c, 2, 88, 56
2, 22800, Note_off_c, 2, 86, 57
2, 22801, Note_on_c, 2, 81, 89
2, 22859, Note_on_c, 2, 80, 88
2, 22860, Note_off_c, 2, 81, 54
2, 22919, Note_off_c, 2, 80, 53
2, 22919, Note_on_c, 2, 83, 91
2, 22980, Note_off_c, 2, 83, 55
2, 22981, Note_on_c, 2, 81, 87
2, 23039, Note_off_c, 2, 81, 56
2, 23040, Note_on_c, 2, 78, 90
2, 23099, Note_off_c, 2, 78, 56
2, 23100, Note_on_c, 2, 77, 84
2, 23159, Note_on_c, 2, 79, 86
2, 23162, Note_off_c, 2, 77, 53
2, 23218, Note_off_c, 2, 79, 53
2, 23218, Note_on_c, 2, 78, 88
2, 23277, Note_off_c, 2, 78, 58
2, 23282, Note_on_c, 2, 74, 84
2, 23340, Note_off_c, 2, 74, 53
2, 23342, Note_on_c, 2, 73, 82
2, 23400, Note_on_c, 2, 76, 83
2, 23403, Note_off_c, 2, 73, 59
2, 23459, Note_off_c, 2, 76, 57
2, 23460, Note_on_c, 2, 74, 84
2, 23521, Note_off_c, 2, 74, 58
2, 23578, Note_on_c, 2, 72, 77
2, 23580, Note_on_c, 2, 74, 78
2, 23616, Note_off_c, 2, 72, 53
2, 23617, Note_off_c, 2, 74, 57
2, 23698, Note_on_c, 2, 72, 79
2, 23700, Note_on_c, 2, 74, 78
2, 23733, Note_off_c, 2, 72, 58
2, 23736, Note_off_c, 2, 74, 54
2, 23819, Note_on_c, 2, 72, 79
2, 23822, Note_on_c, 2, 74, 80
2, 23856, Note_off_c, 2, 72, 59
2, 23858, Note_off_c, 2, 74, 59
2, 23940, Note_on_c, 2, 72, 83
2, 23942, Note_on_c, 2, 74, 82
2, 23976, Note_off_c, 2, 72, 54
2, 23979, Note_off_c, 2, 74, 58
2, 24062, Note_on_c, 2, 74, 83
2, 24062, Note_on_c, 2, 72, 78
2, 24097, Note_off_c, 2, 72, 59
2, 24100, Note_off_c, 2, 74, 57
2, 24180, Note_on_c, 2, 74, 81
2, 24180, Note_on_c, 2, 72, 81
2, 24217, Note_off_c, 2, 72, 56
2, 24217, Note_off_c, 2, 74, 53
2, 24298, Note_on_c, 2, 74, 79
2, 24302, Note_on_c, 2, 72, 80
2, 24336, Note_off_c, 2, 74, 56
2, 24337, Note_off_c, 2, 72, 57
2, 24420, Note_on_c, 2, 72, 82
2, 24421, Note_on_c, 2, 74, 79
2, 24454, Note_off_c, 2, 72, 54
2, 24456, Note_off_c, 2, 74, 53
2, 24538, Note_on_c, 2, 74, 83
2, 24599, Note_on_c, 2, 73, 81
2, 24600, Note_off_c, 2, 74, 59
2, 24659, Note_on_c, 2, 74, 88
2, 24660, Note_off_c, 2, 73, 59
2, 24719, Note_on_c, 2, 79, 90
2, 24721, Note_off_c, 2, 74, 55
2, 24779, Note_on_c, 2, 74, 87
2, 24780, Note_off_c, 2, 79, 54
2, 24840, Note_off_c, 2, 74, 57
2, 24842, Note_on_c, 2, 83, 92
2, 24902, Note_off_c, 2, 83, 57
2, 24902, Note_on_c, 2, 74, 93
2, 24959, Note_on_c, 2, 86, 101
2, 24963, Note_off_c, 2, 74, 58
2, 25018, Note_on_c, 2, 74, 93
2, 25019, Note_off_c, 2, 86, 55
2, 25076, Note_off_c, 2, 74, 56
2, 25078, Note_on_c, 2, 83, 90
2, 25139, Note_on_c, 2, 74, 87
2, 25140, Note_off_c, 2, 83, 56
2, 25200, Note_on_c, 2, 81, 86
2, 25201, Note_off_c, 2, 74, 56
2, 25259, Note_on_c, 2, 74, 84
2, 25260, Note_off_c, 2, 81, 54
2, 25319, Note_off_c, 2, 74, 58
2, 25322, Note_on_c, 2, 79, 85
2, 25381, Note_on_c, 2, 74, 80
2, 25384, Note_off_c, 2, 79, 54
2, 25439, Note_off_c, 2, 74, 58
2, 25498, Note_on_c, 2, 74, 78
2, 25498, Note_on_c, 2, 72, 79
2, 25532, Note_off_c, 2, 74, 53
2, 25533, Note_off_c, 2, 72, 53
2, 25619, Note_on_c, 2, 74, 79
2, 25619, Note_on_c, 2, 72, 77
2, 25653, Note_off_c, 2, 74, 53
2, 25655, Note_off_c, 2, 72, 57
2, 25738, Note_on_c, 2, 74, 77
2, 25740, Note_on_c, 2, 72, 80
2, 25774, Note_off_c, 2, 72, 53
2, 25774, Note_off_c, 2, 74, 55
2, 25858, Note_on_c, 2, 72, 83
2, 25860, Note_on_c, 2, 74, 82
2, 25896, Note_off_c, 2, 72, 53
2, 25897, Note_off_c, 2, 74, 54
2, 25981, Note_on_c, 2, 74, 83
2, 25982, Note_on_c, 2, 72, 80
2, 26018, Note_off_c, 2, 74, 59
2, 26020, Note_off_c, 2, 72, 59
2, 26101, Note_on_c, 2, 72, 83
2, 26102, Note_on_c, 2, 74, 79
2, 26136, Note_off_c, 2, 72, 57
2, 26139, Note_off_c, 2, 74, 56
2, 26218, Note_on_c, 2, 72, 78
2, 26219, Note_on_c, 2, 74, 78
2, 26254, Note_off_c, 2, 74, 58
2, 26255, Note_off_c, 2, 72, 56
2, 26339, Note_on_c, 2, 74, 77
2, 26340, Note_on_c, 2, 72, 81
2, 26374, Note_off_c, 2, 72, 58
2, 26374, Note_off_c, 2, 74, 55
2, 26459, Note_on_c, 2, 74, 80
2, 26520, Note_off_c, 2, 74, 59
2, 26522, Note_on_c, 2, 73, 86
2, 26578, Note_on_c, 2, 74, 88
2, 26583, Note_off_c, 2, 73, 56
2, 26638, Note_off_c, 2, 74, 59
2, 26640, Note_on_c, 2, 79, 87
2, 26699, Note_on_c, 2, 74, 90
2, 26702, Note_off_c, 2, 79, 54
2, 26757, Note_off_c, 2, 74, 55
2, 26762, Note_on_c, 2, 83, 95
2, 26820, Note_off_c, 2, 83, 54
2, 26820, Note_on_c, 2, 74, 98
2, 26878, Note_on_c, 2, 86, 98
2, 26882, Note_off_c, 2, 74, 54
2, 26938, Note_off_c, 2, 86, 55
2, 26938, Note_on_c, 2, 74, 88
2, 27000, Note_off_c, 2, 74, 55
2, 27002, Note_on_c, 2, 83, 86
2, 27058, Note_on_c, 2, 74, 89
2, 27061, Note_off_c, 2, 83, 58
2, 27117, Note_off_c, 2, 74, 53
2, 27119, Note_on_c, 2, 81, 83
2, 27177, Note_off_c, 2, 81, 57
2, 27181, Note_on_c, 2, 74, 85
2, 27239, Note_on_c, 2, 79, 82
2, 27243, Note_off_c, 2, 74, 58
2, 27298, Note_on_c, 2, 74, 83
2, 27301, Note_off_c, 2, 79, 53
2, 27356, Note_off_c, 2, 74, 56
2, 27420, Note_on_c, 2, 74, 80
2, 27422, Note_on_c, 2, 76, 82
2, 27457, Note_off_c, 2, 74, 53
2, 27458, Note_off_c, 2, 76, 54
2, 27539, Note_on_c, 2, 74, 82
2, 27540, Note_on_c, 2, 76, 85
2, 27574, Note_off_c, 2, 76, 54
2, 27575, Note_off_c, 2, 74, 59
2, 27660, Note_on_c, 2, 74, 85
2, 27661, Note_on_c, 2, 76, 87
2, 27695, Note_off_c, 2, 76, 57
2, 27698, Note_off_c, 2, 74, 53
2, 27779, Note_on_c, 2, 76, 85
2, 27779, Note_on_c, 2, 74, 84
2, 27813, Note_off_c, 2, 76, 58
2, 27814, Note_off_c, 2, 74, 55
2, 27900, Note_on_c, 2, 76, 90
2, 27900, Note_on_c, 2, 74, 89
2, 27937, Note_off_c, 2, 74, 58
2, 27938, Note_off_c, 2, 76, 55
2, 28021, Note_on_c, 2, 76, 89
2, 28022, Note_on_c, 2, 74, 90
2, 28057, Note_off_c, 2, 74, 53
2, 28057, Note_off_c, 2, 76, 56
2, 28138, Note_on_c, 2, 76, 89
2, 28141, Note_on_c, 2, 74, 95
2, 28173, Note_off_c, 2, 76, 58
2, 28179, Note_off_c, 2, 74, 54
2, 28260, Note_on_c, 2, 76, 95
2, 28261, Note_on_c, 2, 74, 96
2, 28295, Note_off_c, 2, 76, 54
2, 28297, Note_off_c, 2, 74, 56
2, 28378, Note_on_c, 2, 76, 96
2, 28439, Note_off_c, 2, 76, 57
2, 28439, Note_on_c, 2, 78, 94
2, 28499, Note_on_c, 2, 80, 96
2, 28501, Note_off_c, 2, 78, 58
2, 28559, Note_off_c, 2, 80, 53
2, 28561, Note_on_c, 2, 81, 94
2, 28621, Note_on_c, 2, 83, 95
2, 28622, Note_off_c, 2, 81, 55
2, 28682, Note_off_c, 2, 83, 59
2, 28682, Note_on_c, 2, 84, 93
2, 28741, Note_off_c, 2, 84, 57
2, 28742, Note_on_c, 2, 86, 94
2, 28799, Note_on_c, 2, 88, 95
2, 28804, Note_off_c, 2, 86, 55
2, 28858, Note_on_c, 2, 87, 97
2, 28861, Note_off_c, 2, 88, 57
2, 28918, Note_off_c, 2, 87, 53
2, 28921, Note_on_c, 2, 89, 93
2, 28978, Note_on_c, 2, 88, 94
2, 28982, Note_off_c, 2, 89, 56
2, 29039, Note_off_c, 2, 88, 56
2, 29041, Note_on_c, 2, 86, 88
2, 29098, Note_on_c, 2, 84, 91
2, 29099, Note_off_c, 2, 86, 58
2, 29159, Note_off_c, 2, 84, 59
2, 29159, Note_on_c, 2, 83, 86
2, 29217, Note_off_c, 2, 83, 58
2, 29221, Note_on_c, 2, 82, 86
2, 29278, Note_on_c, 2, 84, 81
2, 29282, Note_off_c, 2, 82, 56
2, 29336, Note_off_c, 2, 84, 58
2, 29339, Note_on_c, 2, 83, 79
2, 29399, Note_off_c, 2, 83, 58
2, 29401, Note_on_c, 2, 88, 82
2, 29459, Note_on_c, 2, 86, 79
2, 29462, Note_off_c, 2, 88, 58
2, 29518, Note_on_c, 2, 84, 81
2, 29519, Note_off_c, 2, 86, 57
2, 29577, Note_off_c, 2, 84, 54
2, 29578, Note_on_c, 2, 83, 83
2, 29636, Note_off_c, 2, 83, 58
2, 29641, Note_on_c, 2, 81, 81
2, 29698, Note_on_c, 2, 79, 81
2, 29701, Note_off_c, 2, 81, 56
2, 29757, Note_off_c, 2, 79, 58
2, 29762, Note_on_c, 2, 83, 82
2, 29818, Note_on_c, 2, 81, 77
2, 29823, Note_off_c, 2, 83, 58
2, 29879, Note_off_c, 2, 81, 57
2, 29879, Note_on_c, 2, 86, 79
2, 29939, Note_off_c, 2, 86, 57
2, 29939, Note_on_c, 2, 84, 82
2, 30000, Note_on_c, 2, 83, 80
2, 30001, Note_off_c, 2, 84, 53
2, 30059, Note_on_c, 2, 81, 82
2, 30060, Note_off_c, 2, 83, 58
2, 30118, Note_on_c, 2, 79, 79
2, 30121, Note_off_c, 2, 81, 54
2, 30177, Note_off_c, 2, 79, 54
2, 30179, Note_on_c, 2, 78, 80
2, 30238, Note_on_c, 2, 79, 78
2, 30241, Note_off_c, 2, 78, 57
2, 30299, Note_on_c, 2, 80, 80
2, 30300, Note_off_c, 2, 79, 59
2, 30358, Note_off_c, 2, 80, 58
2, 30362, Note_on_c, 2, 81, 80
2, 30418, Note_on_c, 2, 82, 82
2, 30420, Note_off_c, 2, 81, 55
2, 30476, Note_off_c, 2, 82, 56
2, 30480, Note_on_c, 2, 83, 85
2, 30538, Note_on_c, 2, 77, 87
2, 30540, Note_off_c, 2, 83, 58
2, 30596, Note_off_c, 2, 77, 55
2, 30601, Note_on_c, 2, 76, 88
2, 30659, Note_off_c, 2, 76, 59
2, 30662, Note_on_c, 2, 74, 86
2, 30720, Note_off_c, 2, 74, 55
2, 30722, Note_on_c, 2, 73, 87
2, 30780, Note_on_c, 2, 76, 90
2, 30783, Note_off_c, 2, 73, 59
2, 30838, Note_on_c, 2, 78, 88
2, 30841, Note_off_c, 2, 76, 59
2, 30896, Note_off_c, 2, 78, 54
2, 30898, Note_on_c, 2, 80, 88
2, 30960, Note_off_c, 2, 80, 55
2, 30960, Note_on_c, 2, 81, 93
2, 31019, Note_off_c, 2, 81, 55
2, 31022, Note_on_c, 2, 76, 95
2, 31080, Note_on_c, 2, 74, 93
2, 31081, Note_off_c, 2, 76, 53
2, 31140, Note_on_c, 2, 72, 94
2, 31141, Note_off_c, 2, 74, 54
2, 31200, Note_off_c, 2, 72, 58
2, 31200, Note_on_c, 2, 70, 93
2, 31259, Note_off_c, 2, 70, 57
2, 31260, Note_on_c, 2, 71, 92
2, 31318, Note_on_c, 2, 76, 92
2, 31319, Note_off_c, 2, 71, 53
2, 31376, Note_off_c, 2, 76, 58
2, 31382, Note_on_c, 2, 74, 96
2, 31441, Note_on_c, 2, 72, 90
2, 31443, Note_off_c, 2, 74, 53
2, 31499, Note_on_c, 2, 71, 88
2, 31500, Note_off_c, 2, 72, 57
2, 31558, Note_off_c, 2, 71, 53
2, 31562, Note_on_c, 2, 69, 87
2, 31622, Note_off_c, 2, 69, 56
2, 31622, Note_on_c, 2, 67, 89
2, 31679, Note_on_c, 2, 71, 87
2, 31680, Note_off_c, 2, 67, 53
2, 31737, Note_off_c, 2, 71, 59
2, 31740, Note_on_c, 2, 69, 86
2, 31798, Note_off_c, 2, 69, 56
2, 31799, Note_on_c, 2, 74, 89
2, 31859, Note_on_c, 2, 72, 83
2, 31860, Note_off_c, 2, 74, 54
2, 31917, Note_off_c, 2, 72, 59
2, 31922, Note_on_c, 2, 71, 81
2, 31981, Note_on_c, 2, 69, 82
2, 31984, Note_off_c, 2, 71, 54
2, 32041, Note_off_c, 2, 69, 58
2, 32041, Note_on_c, 2, 67, 82
2, 32099, Note_on_c, 2, 66, 78
2, 32100, Note_off_c, 2, 67, 54
2, 32159, Note_off_c, 2, 66, 57
2, 32159, Note_on_c, 2, 67, 80
2, 32397, Note_off_c, 2, 67, 63
2, 32640, Note_on_c, 2, 59, 81
2, 32642, Note_on_c, 2, 67, 78
2, 32642, Note_on_c, 2, 62, 82
2, 32832, Note_off_c, 2, 62, 64
2, 32832, Note_off_c, 2, 59, 62
2, 32835, Note_off_c, 2, 67, 63
2, 32880, Note_on_c, 2, 62, 82
2, 32881, Note_on_c, 2, 67, 80
2, 32881, Note_on_c, 2, 59, 77
2, 33072, Note_off_c, 2, 59, 63
2, 33074, Note_off_c, 2, 62, 67
2, 33075, Note_off_c, 2, 67, 61
2, 33119, Note_on_c, 2, 63, 77
2, 33120, Note_on_c, 2, 66, 82
2, 33120, Note_on_c, 2, 57, 78
2, 33478, Note_off_c, 2, 66, 64
2, 33479, Note_on_c, 2, 67, 80
2, 33598, Note_off_c, 2, 67, 67
2, 33598, Note_on_c, 2, 63, 78
2, 33599, Note_off_c, 2, 63, 62
2, 33599, Note_on_c, 2, 66, 83
2, 33600, Note_off_c, 2, 57, 66
2, 33600, Note_on_c, 2, 69, 79
2, 33838, Note_off_c, 2, 69, 63
2, 33838, Note_off_c, 2, 66, 67
2, 33839, Note_off_c, 2, 63, 64
2, 33839, Note_on_c, 2, 63, 82
2, 33840, Note_on_c, 2, 66, 79
2, 33842, Note_on_c, 2, 69, 80
2, 34022, Note_on_c, 2, 71, 81
2, 34024, Note_off_c, 2, 69, 67
2, 34078, Note_on_c, 2, 62, 77
2, 34079, Note_off_c, 2, 63, 63
2, 34081, Note_off_c, 2, 66, 63
2, 34081, Note_off_c, 2, 71, 57
2, 34081, Note_on_c, 2, 67, 79
2, 34320, Note_off_c, 2, 62, 62
2, 34321, Note_off_c, 2, 67, 67
2, 34558, Note_on_c, 2, 67, 77
2, 34559, Note_on_c, 2, 62, 78
2, 34561, Note_on_c, 2, 59, 83
2, 34749, Note_off_c, 2, 62, 62
2, 34751, Note_off_c, 2, 67, 66
2, 34755, Note_off_c, 2, 59, 65
2, 34799, Note_on_c, 2, 62, 78
2, 34800, Note_on_c, 2, 59, 80
2, 34802, Note_on_c, 2, 67, 78
2, 34991, Note_off_c, 2, 59, 66
2, 34992, Note_off_c, 2, 67, 65
2, 34993, Note_off_c, 2, 62, 64
2, 35038, Note_on_c, 2, 63, 80
2, 35039, Note_on_c, 2, 57, 81
2, 35042, Note_on_c, 2, 66, 79
2, 35401, Note_on_c, 2, 67, 81
2, 35402, Note_off_c, 2, 66, 65
2, 35517, Note_off_c, 2, 57, 62
2, 35518, Note_off_c, 2, 63, 61
2, 35518, Note_on_c, 2, 66, 78
2, 35520, Note_on_c, 2, 63, 83
2, 35522, Note_off_c, 2, 67, 66
2, 35522, Note_on_c, 2, 69, 83
2, 35759, Note_off_c, 2, 66, 62
2, 35760, Note_on_c, 2, 69, 82
2, 35760, Note_on_c, 2, 66, 82
2, 35761, Note_off_c, 2, 63, 64
2, 35762, Note_on_c, 2, 63, 77
2, 35763, Note_off_c, 2, 69, 65
2, 35939, Note_on_c, 2, 71, 77
2, 35942, Note_off_c, 2, 69, 64
2, 36000, Note_off_c, 2, 71, 56
2, 36000, Note_off_c, 2, 66, 66
2, 36001, Note_on_c, 2, 62, 79
2, 36002, Note_off_c, 2, 63, 64
2, 36002, Note_on_c, 2, 67, 77
2, 36239, Note_off_c, 2, 62, 65
2, 36241, Note_off_c, 2, 67, 63
2, 36478, Note_on_c, 2, 66, 83
2, 36479, Note_on_c, 2, 63, 80
2, 36482, Note_on_c, 2, 69, 82
2, 36719, Note_off_c, 2, 63, 63
2, 36720, Note_off_c, 2, 66, 61
2, 36723, Note_off_c, 2, 69, 62
2, 36959, Note_on_c, 2, 68, 83
2, 36960, Note_on_c, 2, 65, 86
2, 36961, Note_on_c, 2, 71, 83
2, 37199, Note_off_c, 2, 71, 61
2, 37200, Note_off_c, 2, 65, 63
2, 37200, Note_off_c, 2, 68, 65
2, 37438, Note_on_c, 2, 72, 90
2, 37440, Note_on_c, 2, 67, 93
2, 37676, Note_off_c, 2, 72, 65
2, 37682, Note_off_c, 2, 67, 64
2, 37918, Note_on_c, 2, 71, 92
2, 37919, Note_on_c, 2, 74, 95
2, 38158, Note_off_c, 2, 71, 65
2, 38158, Note_off_c, 2, 74, 62
2, 38638, Note_on_c, 2, 74, 99
2, 38640, Note_on_c, 2, 71, 96
2, 38641, Note_on_c, 2, 83, 100
2, 38828, Note_off_c, 2, 74, 61
2, 38831, Note_off_c, 2, 83, 67
2, 38831, Note_off_c, 2, 71, 64
2, 38882, Note_on_c, 2, 83, 79
2, 38882, Note_on_c, 2, 74, 82
2, 38882, Note_on_c, 2, 71, 80
2, 39072, Note_off_c, 2, 71, 66
2, 39074, Note_off_c, 2, 83, 61
2, 39076, Note_off_c, 2, 74, 63
2, 39598, Note_on_c, 2, 86, 103
2, 39598, Note_on_c, 2, 83, 103
2, 39789, Note_off_c, 2, 86, 63
2, 39791, Note_off_c, 2, 83, 62
2, 39838, Note_on_c, 2, 83, 83
2, 39839, Note_on_c, 2, 86, 82
2, 40030, Note_off_c, 2, 83, 61
2, 40033, Note_off_c, 2, 86, 66
2, 41278, Note_on_c, 2, 72, 80
2, 41468, Note_off_c, 2, 72, 65
2, 41520, Note_on_c, 2, 72, 77
2, 41712, Note_off_c, 2, 72, 62
2, 41761, Note_on_c, 2, 72, 82
2, 41879, Note_off_c, 2, 72, 63
2, 41882, Note_on_c, 2, 71, 77
2, 41998, Note_on_c, 2, 69, 79
2, 42004, Note_off_c, 2, 71, 63
2, 42116, Note_off_c, 2, 69, 61
2, 42122, Note_on_c, 2, 71, 80
2, 42239, Note_on_c, 2, 72, 81
2, 42240, Note_off_c, 2, 71, 63
2, 42480, Note_on_c, 2, 72, 80
2, 42481, Note_off_c, 2, 72, 61
2, 42514, Note_off_c, 2, 72, 55
2, 42514, Note_on_c, 2, 74, 78
2, 42551, Note_off_c, 2, 74, 54
2, 42554, Note_on_c, 2, 72, 78
2, 42587, Note_on_c, 2, 71, 79
2, 42589, Note_off_c, 2, 72, 53
2, 42622, Note_on_c, 2, 72, 83
2, 42625, Note_off_c, 2, 71, 55
2, 42659, Note_on_c, 2, 76, 83
2, 42660, Note_off_c, 2, 72, 53
2, 42719, Note_on_c, 2, 79, 77
2, 42721, Note_off_c, 2, 76, 58
2, 43200, Note_off_c, 2, 79, 61
2, 43202, Note_on_c, 2, 77, 79
2, 43318, Note_on_c, 2, 81, 78
2, 43323, Note_off_c, 2, 77, 63
2, 43557, Note_off_c, 2, 81, 65
2, 43559, Note_on_c, 2, 79, 78
2, 43619, Note_off_c, 2, 79, 57
2, 43622, Note_on_c, 2, 77, 79
2, 43680, Note_off_c, 2, 77, 58
2, 43680, Note_on_c, 2, 76, 81
2, 43799, Note_on_c, 2, 79, 82
2, 43800, Note_off_c, 2, 76, 65
2, 44039, Note_off_c, 2, 79, 63
2, 44042, Note_on_c, 2, 77, 81
2, 44101, Note_on_c, 2, 76, 83
2, 44103, Note_off_c, 2, 77, 54
2, 44159, Note_off_c, 2, 76, 57
2, 44160, Note_on_c, 2, 74, 80
2, 44220, Note_off_c, 2, 74, 53
2, 44222, Note_on_c, 2, 76, 78
2, 44281, Note_on_c, 2, 77, 77
2, 44283, Note_off_c, 2, 76, 59
2, 44338, Note_on_c, 2, 76, 77
2, 44340, Note_off_c, 2, 77, 55
2, 44400, Note_off_c, 2, 76, 55
2, 44402, Note_on_c, 2, 79, 81
2, 44462, Note_on_c, 2, 77, 82
2, 44463, Note_off_c, 2, 79, 57
2, 44520, Note_off_c, 2, 77, 57
2, 44520, Note_on_c, 2, 76, 80
2, 44580, Note_off_c, 2, 76, 55
2, 44580, Note_on_c, 2, 74, 77
2, 44641, Note_off_c, 2, 74, 54
2, 44641, Note_on_c, 2, 72, 82
2, 44879, Note_on_c, 2, 71, 83
2, 44881, Note_off_c, 2, 72, 62
2, 44998, Note_on_c, 2, 67, 83
2, 45001, Note_off_c, 2, 71, 65
2, 45095, Note_off_c, 2, 67, 65
2, 45100, Note_on_c, 2, 67, 77
2, 45120, Note_on_c, 2, 72, 79
2, 45131, Note_off_c, 2, 67, 63
2, 45310, Note_off_c, 2, 72, 63
2, 45360, Note_on_c, 2, 72, 77
2, 45551, Note_off_c, 2, 72, 61
2, 45599, Note_on_c, 2, 72, 81
2, 45720, Note_off_c, 2, 72, 64
2, 45721, Note_on_c, 2, 71, 82
2, 45838, Note_on_c, 2, 69, 77
2, 45843, Note_off_c, 2, 71, 64
2, 45956, Note_off_c, 2, 69, 67
2, 45960, Note_on_c, 2, 71, 79
2, 46080, Note_off_c, 2, 71, 64
2, 46081, Note_on_c, 2, 72, 81
2, 46127, Note_on_c, 2, 74, 79
2, 46128, Note_off_c, 2, 72, 56
2, 46176, Note_off_c, 2, 74, 59
2, 46177, Note_on_c, 2, 72, 80
2, 46226, Note_off_c, 2, 72, 59
2, 46226, Note_on_c, 2, 71, 81
2, 46272, Note_on_c, 2, 72, 78
2, 46274, Note_off_c, 2, 71, 59
2, 46319, Note_off_c, 2, 72, 56
2, 46321, Note_on_c, 2, 72, 80
2, 46358, Note_off_c, 2, 72, 58
2, 46382, Note_on_c, 2, 74, 81
2, 46418, Note_off_c, 2, 74, 59
2, 46439, Note_on_c, 2, 76, 77
2, 46476, Note_off_c, 2, 76, 56
2, 46499, Note_on_c, 2, 77, 82
2, 46533, Note_off_c, 2, 77, 59
2, 46560, Note_on_c, 2, 78, 80
2, 46678, Note_on_c, 2, 79, 79
2, 46682, Note_off_c, 2, 78, 63
2, 46916, Note_off_c, 2, 79, 66
2, 46918, Note_on_c, 2, 79, 83
2, 47039, Note_off_c, 2, 79, 64
2, 47040, Note_on_c, 2, 77, 81
2, 47068, Note_on_c, 2, 79, 80
2, 47070, Note_off_c, 2, 77, 48
2, 47099, Note_on_c, 2, 76, 79
2, 47100, Note_off_c, 2, 79, 49
2, 47128, Note_off_c, 2, 76, 51
2, 47130, Note_on_c, 2, 77, 82
2, 47162, Note_off_c, 2, 77, 46
2, 47162, Note_on_c, 2, 81, 77
2, 47399, Note_on_c, 2, 79, 83
2, 47404, Note_off_c, 2, 81, 67
2, 47460, Note_on_c, 2, 77, 79
2, 47461, Note_off_c, 2, 79, 55
2, 47518, Note_on_c, 2, 76, 81
2, 47519, Note_off_c, 2, 77, 53
2, 47559, Note_off_c, 2, 76, 58
2, 47562, Note_on_c, 2, 75, 79
2, 47601, Note_off_c, 2, 75, 54
2, 47601, Note_on_c, 2, 76, 81
2, 47639, Note_off_c, 2, 76, 54
2, 47640, Note_on_c, 2, 79, 80
2, 47679, Note_off_c, 2, 79, 59
2, 47680, Note_on_c, 2, 77, 82
2, 47720, Note_on_c, 2, 76, 80
2, 47721, Note_off_c, 2, 77, 58
2, 47760, Note_on_c, 2, 74, 79
2, 47762, Note_off_c, 2, 76, 53
2, 47800, Note_on_c, 2, 73, 80
2, 47801, Note_off_c, 2, 74, 56
2, 47840, Note_on_c, 2, 74, 81
2, 47841, Note_off_c, 2, 73, 59
2, 47881, Note_on_c, 2, 77, 81
2, 47882, Note_off_c, 2, 74, 55
2, 47919, Note_on_c, 2, 76, 79
2, 47922, Note_off_c, 2, 77, 56
2, 47958, Note_off_c, 2, 76, 57
2, 47962, Note_on_c, 2, 74, 79
2, 48000, Note_on_c, 2, 72, 78
2, 48001, Note_off_c, 2, 74, 54
2, 48050, Note_off_c, 2, 72, 56
2, 48050, Note_on_c, 2, 74, 78
2, 48095, Note_on_c, 2, 72, 79
2, 48098, Note_off_c, 2, 74, 54
2, 48143, Note_off_c, 2, 72, 58
2, 48146, Note_on_c, 2, 71, 81
2, 48194, Note_on_c, 2, 72, 79
2, 48196, Note_off_c, 2, 71, 57
2, 48238, Note_on_c, 2, 76, 81
2, 48243, Note_off_c, 2, 72, 56
2, 48358, Note_off_c, 2, 76, 67
2, 48360, Note_on_c, 2, 74, 83
2, 48481, Note_off_c, 2, 74, 67
2, 48482, Note_on_c, 2, 72, 81
2, 48482, Note_on_c, 2, 64, 83
2, 48722, Note_off_c, 2, 72, 65
2, 48723, Note_off_c, 2, 64, 61
2, 48840, Note_on_c, 2, 67, 99
2, 48911, Note_off_c, 2, 67, 61
2, 48959, Note_on_c, 2, 63, 98
2, 48960, Note_on_c, 2, 75, 98
2, 49031, Note_off_c, 2, 63, 67
2, 49034, Note_off_c, 2, 75, 65
2, 49080, Note_on_c, 2, 75, 102
2, 49081, Note_on_c, 2, 63, 98
2, 49319, Note_off_c, 2, 75, 61
2, 49319, Note_on_c, 2, 74, 101
2, 49380, Note_off_c, 2, 74, 54
2, 49380, Note_on_c, 2, 72, 98
2, 49440, Note_off_c, 2, 72, 55
2, 49440, Note_off_c, 2, 63, 64
2, 49562, Note_on_c, 2, 62, 101
2, 49600, Note_on_c, 2, 65, 101
2, 49601, Note_off_c, 2, 62, 58
2, 49640, Note_on_c, 2, 71, 101
2, 49641, Note_off_c, 2, 65, 59
2, 49682, Note_off_c, 2, 71, 56
2, 49798, Note_on_c, 2, 71, 102
2, 49840, Note_off_c, 2, 71, 58
2, 49842, Note_on_c, 2, 74, 97
2, 49880, Note_off_c, 2, 74, 57
2, 49881, Note_on_c, 2, 77, 98
2, 49904, Note_off_c, 2, 77, 56
2, 49918, Note_on_c, 2, 77, 100
2, 49922, Note_on_c, 2, 65, 103
2, 49991, Note_off_c, 2, 77, 66
2, 49994, Note_off_c, 2, 65, 62
2, 50039, Note_on_c, 2, 77, 99
2, 50041, Note_on_c, 2, 65, 101
2, 50279, Note_off_c, 2, 65, 63
2, 50281, Note_off_c, 2, 77, 64
2, 50282, Note_on_c, 2, 75, 101
2, 50338, Note_on_c, 2, 74, 98
2, 50341, Note_off_c, 2, 75, 59
2, 50397, Note_off_c, 2, 74, 53
2, 50521, Note_on_c, 2, 63, 97
2, 50559, Note_on_c, 2, 67, 101
2, 50560, Note_off_c, 2, 63, 57
2, 50597, Note_off_c, 2, 67, 57
2, 50599, Note_on_c, 2, 72, 98
2, 50640, Note_off_c, 2, 72, 57
2, 50758, Note_on_c, 2, 75, 98
2, 50798, Note_off_c, 2, 75, 53
2, 50802, Note_on_c, 2, 79, 99
2, 50842, Note_on_c, 2, 84, 99
2, 50843, Note_off_c, 2, 79, 56
2, 50864, Note_off_c, 2, 84, 58
2, 50878, Note_on_c, 2, 85, 101
2, 50878, Note_on_c, 2, 73, 103
2, 50949, Note_off_c, 2, 73, 63
2, 50950, Note_off_c, 2, 85, 64
2, 50998, Note_on_c, 2, 73, 100
2, 51002, Note_on_c, 2, 85, 98
2, 51237, Note_off_c, 2, 73, 64
2, 51239, Note_on_c, 2, 84, 98
2, 51242, Note_off_c, 2, 85, 66
2, 51297, Note_off_c, 2, 84, 55
2, 51299, Note_on_c, 2, 82, 102
2, 51337, Note_off_c, 2, 82, 56
2, 51358, Note_on_c, 2, 82, 103
2, 51420, Note_off_c, 2, 82, 58
2, 51420, Note_on_c, 2, 80, 100
2, 51456, Note_off_c, 2, 80, 54
2, 51480, Note_on_c, 2, 80, 98
2, 51540, Note_on_c, 2, 79, 97
2, 51541, Note_off_c, 2, 80, 56
2, 51576, Note_off_c, 2, 79, 53
2, 51598, Note_on_c, 2, 79, 102
2, 51658, Note_on_c, 2, 77, 103
2, 51659, Note_off_c, 2, 79, 58
2, 51693, Note_off_c, 2, 77, 57
2, 51722, Note_on_c, 2, 77, 101
2, 51780, Note_off_c, 2, 77, 53
2, 51780, Note_on_c, 2, 75, 101
2, 51815, Note_off_c, 2, 75, 54
2, 51841, Note_on_c, 2, 75, 103
2, 51899, Note_off_c, 2, 75, 54
2, 51901, Note_on_c, 2, 74, 99
2, 51939, Note_off_c, 2, 74, 53
2, 51962, Note_on_c, 2, 74, 98
2, 52018, Note_on_c, 2, 75, 101
2, 52021, Note_off_c, 2, 74, 53
2, 52054, Note_off_c, 2, 75, 53
2, 52081, Note_on_c, 2, 75, 98
2, 52140, Note_off_c, 2, 75, 55
2, 52141, Note_on_c, 2, 74, 98
2, 52175, Note_off_c, 2, 74, 58
2, 52200, Note_on_c, 2, 74, 97
2, 52258, Note_off_c, 2, 74, 57
2, 52261, Note_on_c, 2, 72, 97
2, 52297, Note_off_c, 2, 72, 59
2, 52321, Note_on_c, 2, 72, 102
2, 52380, Note_off_c, 2, 72, 56
2, 52381, Note_on_c, 2, 71, 103
2, 52439, Note_off_c, 2, 71, 53
2, 52440, Note_on_c, 2, 69, 101
2, 52502, Note_off_c, 2, 69, 59
2, 52502, Note_on_c, 2, 67, 100
2, 52562, Note_on_c, 2, 66, 97
2, 52564, Note_off_c, 2, 67, 56
2, 52618, Note_on_c, 2, 67, 97
2, 52622, Note_off_c, 2, 66, 55
2, 52678, Note_off_c, 2, 67, 54
2, 52680, Note_on_c, 2, 68, 102
2, 52740, Note_on_c, 2, 67, 101
2, 52741, Note_off_c, 2, 68, 55
2, 52798, Note_on_c, 2, 75, 102
2, 52799, Note_off_c, 2, 67, 57
2, 52800, Note_on_c, 2, 63, 99
2, 52872, Note_off_c, 2, 75, 65
2, 52873, Note_off_c, 2, 63, 67
2, 52918, Note_on_c, 2, 75, 97
2, 52920, Note_on_c, 2, 63, 97
2, 53157, Note_off_c, 2, 75, 64
2, 53158, Note_on_c, 2, 74, 100
2, 53159, Note_off_c, 2, 63, 67
2, 53218, Note_off_c, 2, 74, 54
2, 53221, Note_on_c, 2, 72, 101
2, 53280, Note_off_c, 2, 72, 58
2, 53402, Note_on_c, 2, 62, 103
2, 53438, Note_on_c, 2, 65, 101
2, 53444, Note_off_c, 2, 62, 58
2, 53480, Note_off_c, 2, 65, 59
2, 53481, Note_on_c, 2, 70, 98
2, 53522, Note_off_c, 2, 70, 53
2, 53641, Note_on_c, 2, 74, 101
2, 53679, Note_on_c, 2, 77, 98
2, 53680, Note_off_c, 2, 74, 54
2, 53719, Note_off_c, 2, 77, 55
2, 53722, Note_on_c, 2, 80, 102
2, 53758, Note_on_c, 2, 84, 97
2, 53761, Note_on_c, 2, 80, 101
2, 53763, Note_off_c, 2, 80, 55
2, 53830, Note_off_c, 2, 84, 63
2, 53835, Note_off_c, 2, 80, 64
2, 53881, Note_on_c, 2, 84, 98
2, 53882, Note_on_c, 2, 80, 102
2, 54118, Note_on_c, 2, 79, 102
2, 54119, Note_off_c, 2, 84, 65
2, 54122, Note_on_c, 2, 82, 98
2, 54123, Note_off_c, 2, 80, 65
2, 54177, Note_off_c, 2, 79, 56
2, 54180, Note_on_c, 2, 77, 103
2, 54181, Note_off_c, 2, 82, 58
2, 54181, Note_on_c, 2, 80, 98
2, 54241, Note_off_c, 2, 77, 53
2, 54243, Note_off_c, 2, 80, 53
2, 54360, Note_on_c, 2, 67, 101
2, 54398, Note_off_c, 2, 67, 55
2, 54400, Note_on_c, 2, 70, 98
2, 54438, Note_off_c, 2, 70, 56
2, 54442, Note_on_c, 2, 75, 102
2, 54481, Note_off_c, 2, 75, 57
2, 54599, Note_on_c, 2, 79, 100
2, 54641, Note_off_c, 2, 79, 54
2, 54642, Note_on_c, 2, 82, 105
2, 54679, Note_on_c, 2, 87, 107
2, 54682, Note_off_c, 2, 82, 53
2, 54718, Note_off_c, 2, 87, 59
2, 54842, Note_on_c, 2, 87, 109
2, 54880, Note_off_c, 2, 87, 58
2, 54881, Note_on_c, 2, 86, 104
2, 54921, Note_off_c, 2, 86, 58
2, 54922, Note_on_c, 2, 84, 105
2, 54962, Note_on_c, 2, 82, 105
2, 54963, Note_off_c, 2, 84, 57
2, 55000, Note_on_c, 2, 80, 110
2, 55002, Note_off_c, 2, 82, 53
2, 55042, Note_off_c, 2, 80, 55
2, 55042, Note_on_c, 2, 79, 111
2, 55079, Note_on_c, 2, 77, 111
2, 55082, Note_off_c, 2, 79, 56
2, 55117, Note_off_c, 2, 77, 59
2, 55120, Note_on_c, 2, 75, 112
2, 55160, Note_off_c, 2, 75, 55
2, 55161, Note_on_c, 2, 74, 108
2, 55199, Note_off_c, 2, 74, 59
2, 55200, Note_on_c, 2, 72, 108
2, 55319, Note_on_c, 2, 84, 110
2, 55320, Note_off_c, 2, 72, 66
2, 55358, Note_on_c, 2, 82, 107
2, 55361, Note_off_c, 2, 84, 58
2, 55400, Note_off_c, 2, 82, 55
2, 55400, Note_on_c, 2, 80, 113
2, 55438, Note_on_c, 2, 79, 111
2, 55439, Note_off_c, 2, 80, 53
2, 55478, Note_off_c, 2, 79, 55
2, 55481, Note_on_c, 2, 77, 108
2, 55520, Note_on_c, 2, 75, 109
2, 55523, Note_off_c, 2, 77, 59
2, 55558, Note_off_c, 2, 75, 56
2, 55561, Note_on_c, 2, 74, 107
2, 55599, Note_off_c, 2, 74, 55
2, 55599, Note_on_c, 2, 75, 111
2, 55637, Note_off_c, 2, 75, 58
2, 55638, Note_on_c, 2, 72, 109
2, 55677, Note_off_c, 2, 72, 58
2, 55682, Note_on_c, 2, 70, 112
2, 55754, Note_off_c, 2, 70, 67
2, 55798, Note_on_c, 2, 75, 108
2, 55799, Note_on_c, 2, 82, 111
2, 55799, Note_on_c, 2, 70, 111
2, 55800, Note_on_c, 2, 79, 109
2, 55870, Note_off_c, 2, 82, 64
2, 55870, Note_off_c, 2, 75, 65
2, 55871, Note_off_c, 2, 79, 62
2, 55871, Note_off_c, 2, 70, 67
2, 56038, Note_on_c, 2, 68, 113
2, 56040, Note_on_c, 2, 74, 110
2, 56040, Note_on_c, 2, 65, 107
2, 56041, Note_on_c, 2, 70, 108
2, 56108, Note_off_c, 2, 68, 67
2, 56113, Note_off_c, 2, 65, 62
2, 56114, Note_off_c, 2, 70, 62
2, 56114, Note_off_c, 2, 74, 64
2, 56159, Note_on_c, 2, 75, 79
2, 56159, Note_on_c, 2, 67, 83
2, 56160, Note_on_c, 2, 70, 83
2, 56399, Note_off_c, 2, 70, 67
2, 56400, Note_off_c, 2, 67, 66
2, 56401, Note_off_c, 2, 75, 67
2, 56761, Note_on_c, 2, 79, 80
2, 56859, Note_off_c, 2, 79, 62
2, 56879, Note_on_c, 2, 79, 79
2, 56977, Note_off_c, 2, 79, 64
2, 57001, Note_on_c, 2, 79, 78
2, 57098, Note_off_c, 2, 79, 65
2, 57119, Note_on_c, 2, 82, 81
2, 57298, Note_off_c, 2, 82, 64
2, 57298, Note_on_c, 2, 80, 83
2, 57356, Note_off_c, 2, 80, 55
2, 57359, Note_on_c, 2, 77, 79
2, 57598, Note_off_c, 2, 77, 64
2, 57721, Note_on_c, 2, 70, 81
2, 57819, Note_off_c, 2, 70, 66
2, 57841, Note_on_c, 2, 70, 80
2, 57936, Note_off_c, 2, 70, 66
2, 57961, Note_on_c, 2, 70, 78
2, 58057, Note_off_c, 2, 70, 63
2, 58058, Note_on_c, 2, 70, 77
2, 58082, Note_on_c, 2, 77, 78
2, 58088, Note_off_c, 2, 70, 63
2, 58321, Note_on_c, 2, 75, 78
2, 58322, Note_off_c, 2, 77, 66
2, 58443, Note_off_c, 2, 75, 62
2, 58620, Note_on_c, 2, 79, 82
2, 58678, Note_off_c, 2, 79, 56
2, 58679, Note_on_c, 2, 78, 82
2, 58739, Note_off_c, 2, 78, 59
2, 58742, Note_on_c, 2, 79, 77
2, 58800, Note_on_c, 2, 78, 77
2, 58803, Note_off_c, 2, 79, 54
2, 58860, Note_off_c, 2, 78, 58
2, 58861, Note_on_c, 2, 79, 83
2, 58920, Note_off_c, 2, 79, 55
2, 58921, Note_on_c, 2, 80, 79
2, 58979, Note_off_c, 2, 80, 59
2, 58980, Note_on_c, 2, 79, 78
2, 59039, Note_off_c, 2, 79, 54
2, 59039, Note_on_c, 2, 82, 83
2, 59220, Note_off_c, 2, 82, 67
2, 59221, Note_on_c, 2, 80, 80
2, 59278, Note_on_c, 2, 77, 80
2, 59282, Note_off_c, 2, 80, 59
2, 59517, Note_off_c, 2, 77, 61
2, 59581, Note_on_c, 2, 70, 83
2, 59639, Note_on_c, 2, 69, 80
2, 59641, Note_off_c, 2, 70, 59
2, 59698, Note_off_c, 2, 69, 54
2, 59699, Note_on_c, 2, 70, 78
2, 59758, Note_on_c, 2, 69, 79
2, 59759, Note_off_c, 2, 70, 59
2, 59817, Note_off_c, 2, 69, 55
2, 59821, Note_on_c, 2, 70, 81
2, 59880, Note_on_c, 2, 69, 82
2, 59882, Note_off_c, 2, 70, 56
2, 59939, Note_off_c, 2, 69, 53
2, 59942, Note_on_c, 2, 70, 83
2, 60000, Note_off_c, 2, 70, 56
2, 60001, Note_on_c, 2, 70, 77
2, 60021, Note_on_c, 2, 77, 82
2, 60030, Note_off_c, 2, 70, 62
2, 60239, Note_on_c, 2, 76, 77
2, 60240, Note_off_c, 2, 77, 67
2, 60361, Note_off_c, 2, 76, 67
2, 60540, Note_on_c, 2, 72, 78
2, 60601, Note_on_c, 2, 71, 81
2, 60602, Note_off_c, 2, 72, 55
2, 60662, Note_on_c, 2, 72, 81
2, 60663, Note_off_c, 2, 71, 53
2, 60718, Note_on_c, 2, 71, 81
2, 60723, Note_off_c, 2, 72, 53
2, 60778, Note_off_c, 2, 71, 56
2, 60781, Note_on_c, 2, 72, 79
2, 60839, Note_on_c, 2, 71, 82
2, 60841, Note_off_c, 2, 72, 58
2, 60900, Note_on_c, 2, 72, 83
2, 60901, Note_off_c, 2, 71, 56
2, 60960, Note_off_c, 2, 72, 58
2, 60960, Note_on_c, 2, 72, 79
2, 60980, Note_on_c, 2, 79, 83
2, 60988, Note_off_c, 2, 72, 67
2, 61198, Note_on_c, 2, 78, 77
2, 61199, Note_off_c, 2, 79, 62
2, 61317, Note_off_c, 2, 78, 64
2, 61501, Note_on_c, 2, 74, 77
2, 61559, Note_on_c, 2, 73, 77
2, 61560, Note_off_c, 2, 74, 58
2, 61619, Note_on_c, 2, 74, 81
2, 61620, Note_off_c, 2, 73, 55
2, 61677, Note_off_c, 2, 74, 53
2, 61682, Note_on_c, 2, 73, 79
2, 61740, Note_on_c, 2, 74, 82
2, 61743, Note_off_c, 2, 73, 54
2, 61801, Note_on_c, 2, 73, 82
2, 61802, Note_off_c, 2, 74, 54
2, 61862, Note_on_c, 2, 74, 77
2, 61863, Note_off_c, 2, 73, 58
2, 61919, Note_on_c, 2, 81, 81
2, 61920, Note_off_c, 2, 74, 56
2, 62038, Note_off_c, 2, 81, 61
2, 62039, Note_on_c, 2, 79, 83
2, 62277, Note_off_c, 2, 79, 66
2, 62278, Note_on_c, 2, 80, 85
2, 62340, Note_off_c, 2, 80, 55
2, 62342, Note_on_c, 2, 83, 89
2, 62401, Note_on_c, 2, 84, 86
2, 62403, Note_off_c, 2, 83, 57
2, 62460, Note_off_c, 2, 84, 56
2, 62460, Note_on_c, 2, 86, 88
2, 62518, Note_off_c, 2, 86, 58
2, 62522, Note_on_c, 2, 87, 91
2, 62579, Note_on_c, 2, 86, 87
2, 62580, Note_off_c, 2, 87, 59
2, 62638, Note_off_c, 2, 86, 56
2, 62641, Note_on_c, 2, 89, 93
2, 62699, Note_on_c, 2, 87, 95
2, 62702, Note_off_c, 2, 89, 53
2, 62758, Note_off_c, 2, 87, 55
2, 62758, Note_on_c, 2, 86, 91
2, 62818, Note_off_c, 2, 86, 55
2, 62820, Note_on_c, 2, 84, 96
2, 62879, Note_on_c, 2, 83, 98
2, 62881, Note_off_c, 2, 84, 57
2, 62918, Note_off_c, 2, 83, 53
2, 62919, Note_on_c, 2, 86, 96
2, 62958, Note_off_c, 2, 86, 53
2, 62958, Note_on_c, 2, 84, 94
2, 62999, Note_off_c, 2, 84, 54
2, 62999, Note_on_c, 2, 83, 97
2, 63040, Note_off_c, 2, 83, 54
2, 63042, Note_on_c, 2, 81, 93
2, 63080, Note_off_c, 2, 81, 58
2, 63081, Note_on_c, 2, 79, 94
2, 63120, Note_off_c, 2, 79, 53
2, 63120, Note_on_c, 2, 77, 94
2, 63158, Note_off_c, 2, 77, 59
2, 63162, Note_on_c, 2, 80, 93
2, 63198, Note_on_c, 2, 79, 97
2, 63203, Note_off_c, 2, 80, 59
2, 63240, Note_off_c, 2, 79, 54
2, 63242, Note_on_c, 2, 77, 98
2, 63281, Note_on_c, 2, 75, 97
2, 63284, Note_off_c, 2, 77, 54
2, 63319, Note_on_c, 2, 74, 98
2, 63322, Note_off_c, 2, 75, 56
2, 63358, Note_on_c, 2, 63, 100
2, 63361, Note_off_c, 2, 74, 56
2, 63361, Note_on_c, 2, 75, 98
2, 63429, Note_off_c, 2, 63, 63
2, 63431, Note_off_c, 2, 75, 67
2, 63478, Note_on_c, 2, 63, 97
2, 63480, Note_on_c, 2, 75, 101
2, 63718, Note_off_c, 2, 63, 63
2, 63720, Note_on_c, 2, 74, 96
2, 63722, Note_off_c, 2, 75, 66
2, 63779, Note_on_c, 2, 72, 99
2, 63782, Note_off_c, 2, 74, 56
2, 63839, Note_off_c, 2, 72, 57
2, 63959, Note_on_c, 2, 62, 101
2, 63999, Note_on_c, 2, 65, 97
2, 64000, Note_off_c, 2, 62, 55
2, 64038, Note_off_c, 2, 65, 55
2, 64039, Note_on_c, 2, 71, 102
2, 64079, Note_off_c, 2, 71, 56
2, 64199, Note_on_c, 2, 71, 102
2, 64237, Note_off_c, 2, 71, 57
2, 64242, Note_on_c, 2, 74, 99
2, 64280, Note_off_c, 2, 74, 54
2, 64280, Note_on_c, 2, 77, 98
2, 64320, Note_on_c, 2, 65, 103
2, 64321, Note_on_c, 2, 77, 102
2, 64322, Note_off_c, 2, 77, 59
2, 64390, Note_off_c, 2, 65, 66
2, 64393, Note_off_c, 2, 77, 64
2, 64441, Note_on_c, 2, 77, 99
2, 64441, Note_on_c, 2, 65, 100
2, 64678, Note_on_c, 2, 75, 102
2, 64681, Note_off_c, 2, 77, 65
2, 64682, Note_off_c, 2, 65, 61
2, 64738, Note_on_c, 2, 74, 100
2, 64739, Note_off_c, 2, 75, 56
2, 64797, Note_off_c, 2, 74, 57
2, 64918, Note_on_c, 2, 63, 100
2, 64957, Note_off_c, 2, 63, 59
2, 64958, Note_on_c, 2, 67, 99
2, 64999, Note_off_c, 2, 67, 55
2, 65001, Note_on_c, 2, 72, 102
2, 65042, Note_off_c, 2, 72, 56
2, 65159, Note_on_c, 2, 75, 100
2, 65200, Note_on_c, 2, 79, 103
2, 65201, Note_off_c, 2, 75, 57
2, 65238, Note_on_c, 2, 84, 99
2, 65239, Note_off_c, 2, 79, 55
2, 65278, Note_on_c, 2, 85, 98
2, 65279, Note_on_c, 2, 73, 99
2, 65280, Note_off_c, 2, 84, 58
2, 65352, Note_off_c, 2, 85, 66
2, 65353, Note_off_c, 2, 73, 65
2, 65399, Note_on_c, 2, 73, 98
2, 65400, Note_on_c, 2, 85, 100
2, 65638, Note_off_c, 2, 73, 62
2, 65640, Note_on_c, 2, 84, 103
2, 65642, Note_off_c, 2, 85, 66
2, 65699, Note_off_c, 2, 84, 55
2, 65700, Note_on_c, 2, 82, 103
2, 65760, Note_off_c, 2, 82, 55
2, 65881, Note_on_c, 2, 80, 98
2, 65939, Note_off_c, 2, 80, 57
2, 65941, Note_on_c, 2, 84, 102
2, 65979, Note_off_c, 2, 84, 58
2, 66119, Note_on_c, 2, 77, 100
2, 66179, Note_off_c, 2, 77, 57
2, 66180, Note_on_c, 2, 80, 103
2, 66217, Note_off_c, 2, 80, 54
2, 66359, Note_on_c, 2, 75, 100
2, 66419, Note_off_c, 2, 75, 56
2, 66419, Note_on_c, 2, 79, 100
2, 66453, Note_off_c, 2, 79, 58
2, 66601, Note_on_c, 2, 71, 103
2, 66661, Note_on_c, 2, 74, 101
2, 66663, Note_off_c, 2, 71, 57
2, 66699, Note_off_c, 2, 74, 55
2, 66779, Note_on_c, 2, 72, 103
2, 66841, Note_off_c, 2, 72, 58
2, 66841, Note_on_c, 2, 71, 98
2, 66901, Note_on_c, 2, 72, 100
2, 66903, Note_off_c, 2, 71, 57
2, 66959, Note_on_c, 2, 71, 102
2, 66960, Note_off_c, 2, 72, 59
2, 67017, Note_off_c, 2, 71, 56
2, 67021, Note_on_c, 2, 72, 101
2, 67079, Note_on_c, 2, 71, 103
2, 67080, Note_off_c, 2, 72, 58
2, 67140, Note_on_c, 2, 72, 100
2, 67141, Note_off_c, 2, 71, 54
2, 67198, Note_on_c, 2, 61, 102
2, 67200, Note_on_c, 2, 73, 100
2, 67202, Note_off_c, 2, 72, 59
2, 67271, Note_off_c, 2, 73, 65
2, 67272, Note_off_c, 2, 61, 62
2, 67318, Note_on_c, 2, 73, 97
2, 67321, Note_on_c, 2, 61, 100
2, 67557, Note_off_c, 2, 73, 61
2, 67560, Note_off_c, 2, 61, 61
2, 67561, Note_on_c, 2, 72, 99
2, 67619, Note_off_c, 2, 72, 57
2, 67620, Note_on_c, 2, 70, 103
2, 67682, Note_off_c, 2, 70, 59
2, 67740, Note_on_c, 2, 68, 102
2, 67798, Note_off_c, 2, 68, 53
2, 67800, Note_on_c, 2, 70, 99
2, 67859, Note_off_c, 2, 70, 54
2, 67859, Note_on_c, 2, 71, 100
2, 67917, Note_off_c, 2, 71, 57
2, 67919, Note_on_c, 2, 72, 95
2, 67981, Note_off_c, 2, 72, 53
2, 67982, Note_on_c, 2, 62, 95
2, 68041, Note_on_c, 2, 65, 100
2, 68043, Note_off_c, 2, 62, 53
2, 68098, Note_on_c, 2, 68, 96
2, 68102, Note_off_c, 2, 65, 57
2, 68156, Note_off_c, 2, 68, 53
2, 68218, Note_on_c, 2, 63, 92
2, 68277, Note_off_c, 2, 63, 57
2, 68282, Note_on_c, 2, 67, 96
2, 68338, Note_on_c, 2, 60, 92
2, 68341, Note_off_c, 2, 67, 54
2, 68396, Note_off_c, 2, 60, 58
2, 68462, Note_on_c, 2, 62, 91
2, 68519, Note_on_c, 2, 65, 94
2, 68524, Note_off_c, 2, 62, 53
2, 68578, Note_on_c, 2, 59, 94
2, 68581, Note_off_c, 2, 65, 58
2, 68637, Note_off_c, 2, 59, 55
2, 68721, Note_on_c, 2, 60, 88
2, 68771, Note_off_c, 2, 60, 66
2, 68800, Note_on_c, 2, 61, 93
2, 68846, Note_off_c, 2, 61, 65
2, 68878, Note_on_c, 2, 62, 90
2, 68925, Note_off_c, 2, 62, 67
2, 68961, Note_on_c, 2, 63, 89
2, 69011, Note_off_c, 2, 63, 62
2, 69038, Note_on_c, 2, 64, 90
2, 69087, Note_off_c, 2, 64, 65
2, 69120, Note_on_c, 2, 65, 92
2, 69166, Note_off_c, 2, 65, 64
2, 69199, Note_on_c, 2, 66, 93
2, 69248, Note_off_c, 2, 66, 61
2, 69280, Note_on_c, 2, 67, 88
2, 69327, Note_off_c, 2, 67, 65
2, 69359, Note_on_c, 2, 68, 90
2, 69405, Note_off_c, 2, 68, 62
2, 69438, Note_on_c, 2, 69, 90
2, 69485, Note_off_c, 2, 69, 64
2, 69521, Note_on_c, 2, 70, 92
2, 69571, Note_off_c, 2, 70, 64
2, 69599, Note_on_c, 2, 71, 92
2, 69648, Note_off_c, 2, 71, 66
2, 69678, Note_on_c, 2, 72, 93
2, 69724, Note_off_c, 2, 72, 65
2, 69759, Note_on_c, 2, 72, 90
2, 69807, Note_off_c, 2, 72, 62
2, 69842, Note_on_c, 2, 72, 87
2, 69890, Note_off_c, 2, 72, 61
2, 69919, Note_on_c, 2, 72, 87
2, 69968, Note_off_c, 2, 72, 62
2, 69999, Note_on_c, 2, 72, 87
2, 70048, Note_off_c, 2, 72, 64
2, 70081, Note_on_c, 2, 72, 89
2, 70127, Note_off_c, 2, 72, 63
2, 70161, Note_on_c, 2, 72, 90
2, 70210, Note_off_c, 2, 72, 66
2, 70242, Note_on_c, 2, 72, 93
2, 70288, Note_off_c, 2, 72, 63
2, 70322, Note_on_c, 2, 71, 92
2, 70368, Note_off_c, 2, 71, 67
2, 70398, Note_on_c, 2, 72, 92
2, 70445, Note_off_c, 2, 72, 66
2, 70479, Note_on_c, 2, 72, 92
2, 70527, Note_off_c, 2, 72, 64
2, 70562, Note_on_c, 2, 72, 89
2, 70611, Note_off_c, 2, 72, 64
2, 70638, Note_on_c, 2, 73, 88
2, 70688, Note_off_c, 2, 73, 63
2, 70721, Note_on_c, 2, 73, 91
2, 70768, Note_off_c, 2, 73, 61
2, 70802, Note_on_c, 2, 73, 93
2, 70852, Note_off_c, 2, 73, 64
2, 70880, Note_on_c, 2, 73, 93
2, 70930, Note_off_c, 2, 73, 62
2, 70962, Note_on_c, 2, 73, 89
2, 71012, Note_off_c, 2, 73, 62
2, 71038, Note_on_c, 2, 73, 90
2, 71085, Note_off_c, 2, 73, 63
2, 71120, Note_on_c, 2, 74, 89
2, 71166, Note_off_c, 2, 74, 62
2, 71200, Note_on_c, 2, 74, 89
2, 71247, Note_off_c, 2, 74, 67
2, 71281, Note_on_c, 2, 74, 87
2, 71329, Note_off_c, 2, 74, 67
2, 71362, Note_on_c, 2, 74, 91
2, 71412, Note_off_c, 2, 74, 62
2, 71438, Note_on_c, 2, 74, 89
2, 71484, Note_off_c, 2, 74, 62
2, 71520, Note_on_c, 2, 74, 89
2, 71580, Note_on_c, 2, 75, 90
2, 71581, Note_off_c, 2, 74, 59
2, 71638, Note_off_c, 2, 75, 58
2, 71641, Note_on_c, 2, 77, 86
2, 71701, Note_off_c, 2, 77, 59
2, 71701, Note_on_c, 2, 75, 90
2, 71760, Note_off_c, 2, 75, 58
2, 71761, Note_on_c, 2, 73, 87
2, 71806, Note_on_c, 2, 72, 88
2, 71811, Note_off_c, 2, 73, 59
2, 71854, Note_on_c, 2, 75, 88
2, 71855, Note_off_c, 2, 72, 53
2, 71902, Note_on_c, 2, 73, 87
2, 71904, Note_off_c, 2, 75, 57
2, 71950, Note_off_c, 2, 73, 54
2, 71953, Note_on_c, 2, 70, 87
2, 71998, Note_on_c, 2, 68, 82
2, 72003, Note_off_c, 2, 70, 55
2, 72192, Note_off_c, 2, 68, 66
2, 72238, Note_on_c, 2, 68, 85
2, 72431, Note_off_c, 2, 68, 65
2, 72480, Note_on_c, 2, 68, 80
2, 72599, Note_off_c, 2, 68, 66
2, 72599, Note_on_c, 2, 67, 80
2, 72719, Note_off_c, 2, 67, 63
2, 72720, Note_on_c, 2, 65, 83
2, 72839, Note_off_c, 2, 65, 65
2, 72839, Note_on_c, 2, 67, 80
2, 72957, Note_off_c, 2, 67, 65
2, 72961, Note_on_c, 2, 68, 80
2, 73199, Note_off_c, 2, 68, 66
2, 73201, Note_on_c, 2, 68, 83
2, 73236, Note_on_c, 2, 70, 79
2, 73237, Note_off_c, 2, 68, 57
2, 73271, Note_on_c, 2, 68, 77
2, 73274, Note_off_c, 2, 70, 55
2, 73306, Note_off_c, 2, 68, 56
2, 73306, Note_on_c, 2, 67, 80
2, 73340, Note_off_c, 2, 67, 57
2, 73342, Note_on_c, 2, 68, 82
2, 73376, Note_off_c, 2, 68, 56
2, 73379, Note_on_c, 2, 72, 77
2, 73438, Note_on_c, 2, 75, 77
2, 73439, Note_off_c, 2, 72, 55
2, 73918, Note_off_c, 2, 75, 65
2, 73922, Note_on_c, 2, 73, 78
2, 73993, Note_off_c, 2, 73, 67
2, 74038, Note_on_c, 2, 89, 78
2, 74279, Note_off_c, 2, 89, 61
2, 74282, Note_on_c, 2, 87, 83
2, 74338, Note_on_c, 2, 85, 81
2, 74343, Note_off_c, 2, 87, 54
2, 74398, Note_on_c, 2, 84, 78
2, 74399, Note_off_c, 2, 85, 54
2, 74469, Note_off_c, 2, 84, 61
2, 74521, Note_on_c, 2, 87, 80
2, 74759, Note_off_c, 2, 87, 67
2, 74762, Note_on_c, 2, 85, 81
2, 74820, Note_on_c, 2, 84, 83
2, 74823, Note_off_c, 2, 85, 58
2, 74881, Note_off_c, 2, 84, 53
2, 74882, Note_on_c, 2, 82, 78
2, 74940, Note_on_c, 2, 84, 77
2, 74942, Note_off_c, 2, 82, 59
2, 74998, Note_off_c, 2, 84, 54
2, 75002, Note_on_c, 2, 85, 81
2, 75061, Note_off_c, 2, 85, 54
2, 75062, Note_on_c, 2, 84, 79
2, 75118, Note_on_c, 2, 87, 79
2, 75122, Note_off_c, 2, 84, 58
2, 75178, Note_off_c, 2, 87, 59
2, 75180, Note_on_c, 2, 85, 78
2, 75239, Note_off_c, 2, 85, 53
2, 75242, Note_on_c, 2, 84, 78
2, 75302, Note_on_c, 2, 82, 80
2, 75303, Note_off_c, 2, 84, 54
2, 75358, Note_on_c, 2, 80, 81
2, 75364, Note_off_c, 2, 82, 53
2, 75598, Note_off_c, 2, 80, 64
2, 75599, Note_on_c, 2, 79, 79
2, 75719, Note_on_c, 2, 63, 80
2, 75721, Note_off_c, 2, 79, 62
2, 75792, Note_off_c, 2, 63, 61
2, 75838, Note_on_c, 2, 63, 79
2, 75920, Note_off_c, 2, 63, 65
2, 75921, Note_on_c, 2, 68, 78
2, 75969, Note_off_c, 2, 68, 65
2, 76002, Note_on_c, 2, 68, 77
2, 76051, Note_off_c, 2, 68, 63
2, 76078, Note_on_c, 2, 68, 83
2, 76126, Note_off_c, 2, 68, 64
2, 76161, Note_on_c, 2, 68, 81
2, 76208, Note_off_c, 2, 68, 65
2, 76241, Note_on_c, 2, 68, 77
2, 76287, Note_off_c, 2, 68, 61
2, 76320, Note_on_c, 2, 68, 78
2, 76399, Note_off_c, 2, 68, 65
2, 76400, Note_on_c, 2, 67, 83
2, 76447, Note_off_c, 2, 67, 64
2, 76481, Note_on_c, 2, 65, 79
2, 76528, Note_off_c, 2, 65, 64
2, 76558, Note_on_c, 2, 63, 79
2, 76607, Note_off_c, 2, 63, 62
2, 76641, Note_on_c, 2, 65, 77
2, 76690, Note_off_c, 2, 65, 64
2, 76721, Note_on_c, 2, 67, 82
2, 76767, Note_off_c, 2, 67, 65
2, 76801, Note_on_c, 2, 68, 80
2, 76848, Note_off_c, 2, 68, 61
2, 76882, Note_on_c, 2, 70, 78
2, 76931, Note_off_c, 2, 70, 67
2, 76960, Note_on_c, 2, 71, 83
2, 77009, Note_off_c, 2, 71, 61
2, 77042, Note_on_c, 2, 72, 80
2, 77092, Note_off_c, 2, 72, 66
2, 77122, Note_on_c, 2, 73, 83
2, 77170, Note_off_c, 2, 73, 66
2, 77198, Note_on_c, 2, 74, 78
2, 77246, Note_off_c, 2, 74, 66
2, 77278, Note_on_c, 2, 77, 83
2, 77351, Note_off_c, 2, 77, 67
2, 77399, Note_on_c, 2, 75, 81
2, 77637, Note_off_c, 2, 75, 67
2, 77642, Note_on_c, 2, 75, 81
2, 77715, Note_off_c, 2, 75, 61
2, 77758, Note_on_c, 2, 73, 80
2, 77880, Note_off_c, 2, 73, 67
2, 77882, Note_on_c, 2, 89, 83
2, 78118, Note_on_c, 2, 87, 80
2, 78124, Note_off_c, 2, 89, 62
2, 78178, Note_on_c, 2, 85, 80
2, 78180, Note_off_c, 2, 87, 57
2, 78236, Note_off_c, 2, 85, 59
2, 78238, Note_on_c, 2, 84, 78
2, 78334, Note_on_c, 2, 86, 78
2, 78335, Note_off_c, 2, 84, 67
2, 78432, Note_off_c, 2, 86, 64
2, 78433, Note_on_c, 2, 84, 77
2, 78526, Note_on_c, 2, 83, 82
2, 78529, Note_off_c, 2, 84, 64
2, 78624, Note_off_c, 2, 83, 65
2, 78625, Note_on_c, 2, 84, 83
2, 78718, Note_on_c, 2, 89, 79
2, 78721, Note_off_c, 2, 84, 66
2, 78840, Note_off_c, 2, 89, 62
2, 78842, Note_on_c, 2, 87, 82
2, 78958, Note_on_c, 2, 86, 77
2, 78963, Note_off_c, 2, 87, 62
2, 79080, Note_off_c, 2, 86, 63
2, 79080, Note_on_c, 2, 84, 80
2, 79198, Note_off_c, 2, 84, 66
2, 79200, Note_on_c, 2, 83, 78
2, 79442, Note_off_c, 2, 83, 63
2, 79802, Note_on_c, 2, 79, 80
2, 79896, Note_off_c, 2, 79, 65
2, 79922, Note_on_c, 2, 79, 82
2, 80018, Note_off_c, 2, 79, 64
2, 80039, Note_on_c, 2, 79, 81
2, 80137, Note_off_c, 2, 79, 67
2, 80158, Note_on_c, 2, 79, 80
2, 80337, Note_off_c, 2, 79, 66
2, 80338, Note_on_c, 2, 75, 78
2, 80399, Note_off_c, 2, 75, 59
2, 80402, Note_on_c, 2, 72, 80
2, 80546, Note_off_c, 2, 72, 67
2, 80761, Note_on_c, 2, 87, 80
2, 80879, Note_on_c, 2, 86, 83
2, 80881, Note_off_c, 2, 87, 61
2, 80998, Note_on_c, 2, 84, 77
2, 80999, Note_off_c, 2, 86, 67
2, 81117, Note_off_c, 2, 84, 66
2, 81121, Note_on_c, 2, 83, 77
2, 81156, Note_off_c, 2, 83, 53
2, 81157, Note_on_c, 2, 84, 77
2, 81190, Note_on_c, 2, 83, 79
2, 81195, Note_off_c, 2, 84, 58
2, 81226, Note_off_c, 2, 83, 58
2, 81226, Note_on_c, 2, 81, 78
2, 81262, Note_off_c, 2, 81, 57
2, 81262, Note_on_c, 2, 83, 82
2, 81300, Note_off_c, 2, 83, 59
2, 81302, Note_on_c, 2, 84, 83
2, 81360, Note_on_c, 2, 86, 77
2, 81361, Note_off_c, 2, 84, 54
2, 81602, Note_off_c, 2, 86, 63
2, 81660, Note_on_c, 2, 79, 82
2, 81718, Note_on_c, 2, 78, 77
2, 81722, Note_off_c, 2, 79, 55
2, 81777, Note_off_c, 2, 78, 55
2, 81780, Note_on_c, 2, 79, 77
2, 81838, Note_on_c, 2, 81, 79
2, 81841, Note_off_c, 2, 79, 58
2, 81898, Note_off_c, 2, 81, 59
2, 81900, Note_on_c, 2, 79, 77
2, 81960, Note_off_c, 2, 79, 58
2, 81960, Note_on_c, 2, 77, 82
2, 82018, Note_off_c, 2, 77, 57
2, 82018, Note_on_c, 2, 74, 81
2, 82080, Note_off_c, 2, 74, 59
2, 82081, Note_on_c, 2, 75, 82
2, 82141, Note_on_c, 2, 77, 77
2, 82143, Note_off_c, 2, 75, 59
2, 82198, Note_on_c, 2, 78, 82
2, 82199, Note_off_c, 2, 77, 57
2, 82256, Note_off_c, 2, 78, 56
2, 82261, Note_on_c, 2, 79, 82
2, 82321, Note_off_c, 2, 79, 59
2, 82321, Note_on_c, 2, 72, 77
2, 82560, Note_off_c, 2, 72, 65
2, 82680, Note_on_c, 2, 75, 83
2, 82739, Note_on_c, 2, 74, 77
2, 82741, Note_off_c, 2, 75, 59
2, 82798, Note_off_c, 2, 74, 56
2, 82801, Note_on_c, 2, 77, 78
2, 82859, Note_on_c, 2, 75, 77
2, 82860, Note_off_c, 2, 77, 58
2, 82918, Note_on_c, 2, 74, 81
2, 82921, Note_off_c, 2, 75, 55
2, 82980, Note_off_c, 2, 74, 58
2, 82981, Note_on_c, 2, 72, 77
2, 83039, Note_off_c, 2, 72, 59
2, 83039, Note_on_c, 2, 71, 77
2, 83073, Note_off_c, 2, 71, 57
2, 83078, Note_on_c, 2, 72, 83
2, 83110, Note_on_c, 2, 71, 83
2, 83115, Note_off_c, 2, 72, 55
2, 83146, Note_on_c, 2, 69, 81
2, 83148, Note_off_c, 2, 71, 54
2, 83184, Note_off_c, 2, 69, 58
2, 83184, Note_on_c, 2, 71, 77
2, 83218, Note_off_c, 2, 71, 57
2, 83222, Note_on_c, 2, 72, 79
2, 83281, Note_on_c, 2, 74, 83
2, 83284, Note_off_c, 2, 72, 58
2, 83519, Note_off_c, 2, 74, 66
2, 83638, Note_on_c, 2, 63, 80
2, 83698, Note_off_c, 2, 63, 59
2, 83700, Note_on_c, 2, 62, 78
2, 83758, Note_off_c, 2, 62, 58
2, 83762, Note_on_c, 2, 65, 80
2, 83820, Note_off_c, 2, 65, 59
2, 83822, Note_on_c, 2, 63, 79
2, 83880, Note_on_c, 2, 62, 80
2, 83881, Note_off_c, 2, 63, 56
2, 83939, Note_on_c, 2, 60, 81
2, 83942, Note_off_c, 2, 62, 58
2, 84000, Note_off_c, 2, 60, 54
2, 84039, Note_on_c, 2, 54, 80
2, 84079, Note_off_c, 2, 54, 59
2, 84081, Note_on_c, 2, 55, 82
2, 84121, Note_on_c, 2, 56, 83
2, 84122, Note_off_c, 2, 55, 58
2, 84160, Note_off_c, 2, 56, 58
2, 84162, Note_on_c, 2, 57, 81
2, 84199, Note_on_c, 2, 58, 86
2, 84200, Note_off_c, 2, 57, 56
2, 84239, Note_on_c, 2, 59, 86
2, 84240, Note_off_c, 2, 58, 58
2, 84279, Note_off_c, 2, 59, 54
2, 84281, Note_on_c, 2, 60, 87
2, 84319, Note_off_c, 2, 60, 56
2, 84321, Note_on_c, 2, 61, 86
2, 84359, Note_off_c, 2, 61, 55
2, 84359, Note_on_c, 2, 62, 86
2, 84398, Note_on_c, 2, 63, 89
2, 84399, Note_off_c, 2, 62, 57
2, 84440, Note_off_c, 2, 63, 56
2, 84440, Note_on_c, 2, 64, 91
2, 84478, Note_on_c, 2, 65, 87
2, 84482, Note_off_c, 2, 64, 56
2, 84519, Note_on_c, 2, 66, 93
2, 84520, Note_off_c, 2, 65, 55
2, 84559, Note_on_c, 2, 67, 92
2, 84561, Note_off_c, 2, 66, 54
2, 84597, Note_off_c, 2, 67, 53
2, 84598, Note_on_c, 2, 68, 90
2, 84636, Note_off_c, 2, 68, 56
2, 84639, Note_on_c, 2, 69, 89
2, 84679, Note_on_c, 2, 70, 93
2, 84680, Note_off_c, 2, 69, 56
2, 84717, Note_off_c, 2, 70, 56
2, 84722, Note_on_c, 2, 71, 92
2, 84760, Note_on_c, 2, 72, 93
2, 84764, Note_off_c, 2, 71, 57
2, 84798, Note_off_c, 2, 72, 54
2, 84798, Note_on_c, 2, 73, 99
2, 84838, Note_on_c, 2, 74, 95
2, 84840, Note_off_c, 2, 73, 56
2, 84876, Note_off_c, 2, 74, 54
2, 84879, Note_on_c, 2, 75, 98
2, 84920, Note_on_c, 2, 76, 100
2, 84921, Note_off_c, 2, 75, 57
2, 84961, Note_on_c, 2, 77, 98
2, 84962, Note_off_c, 2, 76, 59
2, 84999, Note_on_c, 2, 78, 98
2, 85003, Note_off_c, 2, 77, 54
2, 85038, Note_off_c, 2, 78, 53
2, 85039, Note_on_c, 2, 79, 104
2, 85081, Note_off_c, 2, 79, 55
2, 85082, Note_on_c, 2, 80, 105
2, 85120, Note_on_c, 2, 81, 102
2, 85121, Note_off_c, 2, 80, 56
2, 85161, Note_off_c, 2, 81, 55
2, 85161, Note_on_c, 2, 82, 103
2, 85199, Note_off_c, 2, 82, 57
2, 85201, Note_on_c, 2, 83, 106
2, 85239, Note_on_c, 2, 84, 104
2, 85243, Note_off_c, 2, 83, 54
2, 85279, Note_on_c, 2, 85, 104
2, 85280, Note_off_c, 2, 84, 55
2, 85318, Note_on_c, 2, 86, 107
2, 85321, Note_off_c, 2, 85, 57
2, 85360, Note_off_c, 2, 86, 58
2, 85361, Note_on_c, 2, 87, 105
2, 85399, Note_off_c, 2, 87, 57
2, 85402, Note_on_c, 2, 88, 106
2, 85440, Note_on_c, 2, 89, 109
2, 85443, Note_off_c, 2, 88, 56
2, 85488, Note_off_c, 2, 89, 65
2, 85519, Note_on_c, 2, 88, 111
2, 85569, Note_off_c, 2, 88, 66
2, 85600, Note_on_c, 2, 87, 107
2, 85650, Note_off_c, 2, 87, 61
2, 85682, Note_on_c, 2, 86, 106
2, 85732, Note_off_c, 2, 86, 61
2, 85759, Note_on_c, 2, 85, 102
2, 85808, Note_off_c, 2, 85, 63
2, 85842, Note_on_c, 2, 84, 102
2, 85889, Note_off_c, 2, 84, 63
2, 85919, Note_on_c, 2, 83, 98
2, 85967, Note_off_c, 2, 83, 65
2, 86001, Note_on_c, 2, 82, 100
2, 86048, Note_off_c, 2, 82, 66
2, 86081, Note_on_c, 2, 81, 97
2, 86131, Note_off_c, 2, 81, 64
2, 86158, Note_on_c, 2, 80, 94
2, 86208, Note_off_c, 2, 80, 62
2, 86238, Note_on_c, 2, 79, 92
2, 86285, Note_off_c, 2, 79, 64
2, 86318, Note_on_c, 2, 78, 91
2, 86366, Note_off_c, 2, 78, 61
2, 86398, Note_on_c, 2, 77, 93
2, 86445, Note_off_c, 2, 77, 64
2, 86480, Note_on_c, 2, 76, 90
2, 86526, Note_off_c, 2, 76, 64
2, 86558, Note_on_c, 2, 75, 86
2, 86608, Note_off_c, 2, 75, 62
2, 86640, Note_on_c, 2, 74, 83
2, 86690, Note_off_c, 2, 74, 61
2, 86719, Note_on_c, 2, 73, 81
2, 86766, Note_off_c, 2, 73, 67
2, 86802, Note_on_c, 2, 72, 83
2, 86849, Note_off_c, 2, 72, 65
2, 86878, Note_on_c, 2, 71, 77
2, 86927, Note_off_c, 2, 71, 65
2, 86959, Note_on_c, 2, 70, 81
2, 87007, Note_off_c, 2, 70, 65
2, 87039, Note_on_c, 2, 69, 80
2, 87087, Note_off_c, 2, 69, 67
2, 87120, Note_on_c, 2, 67, 81
2, 87166, Note_off_c, 2, 67, 65
2, 87200, Note_on_c, 2, 69, 80
2, 87246, Note_off_c, 2, 69, 61
2, 87280, Note_on_c, 2, 71, 77
2, 87329, Note_off_c, 2, 71, 66
2, 87359, Note_on_c, 2, 72, 78
2, 87551, Note_off_c, 2, 72, 65
2, 87602, Note_on_c, 2, 72, 82
2, 87793, Note_off_c, 2, 72, 65
2, 87838, Note_on_c, 2, 72, 77
2, 87959, Note_off_c, 2, 72, 63
2, 87960, Note_on_c, 2, 71, 79
2, 88079, Note_off_c, 2, 71, 64
2, 88081, Note_on_c, 2, 69, 83
2, 88202, Note_off_c, 2, 69, 67
2, 88202, Note_on_c, 2, 71, 80
2, 88321, Note_on_c, 2, 72, 83
2, 88324, Note_off_c, 2, 71, 66
2, 88559, Note_off_c, 2, 72, 62
2, 88561, Note_on_c, 2, 72, 81
2, 88595, Note_on_c, 2, 74, 81
2, 88596, Note_off_c, 2, 72, 55
2, 88630, Note_off_c, 2, 74, 53
2, 88631, Note_on_c, 2, 72, 81
2, 88667, Note_off_c, 2, 72, 54
2, 88670, Note_on_c, 2, 71, 82
2, 88705, Note_on_c, 2, 72, 80
2, 88706, Note_off_c, 2, 71, 59
2, 88738, Note_on_c, 2, 76, 83
2, 88741, Note_off_c, 2, 72, 59
2, 88799, Note_off_c, 2, 76, 55
2, 88801, Note_on_c, 2, 79, 80
2, 89278, Note_on_c, 2, 77, 81
2, 89281, Note_off_c, 2, 79, 63
2, 89399, Note_off_c, 2, 77, 67
2, 89402, Note_on_c, 2, 81, 82
2, 89640, Note_off_c, 2, 81, 63
2, 89641, Note_on_c, 2, 79, 77
2, 89699, Note_on_c, 2, 77, 82
2, 89702, Note_off_c, 2, 79, 56
2, 89759, Note_off_c, 2, 77, 54
2, 89761, Note_on_c, 2, 76, 81
2, 89879, Note_on_c, 2, 79, 81
2, 89880, Note_off_c, 2, 76, 65
2, 90117, Note_off_c, 2, 79, 63
2, 90118, Note_on_c, 2, 77, 78
2, 90180, Note_off_c, 2, 77, 58
2, 90181, Note_on_c, 2, 76, 77
2, 90240, Note_off_c, 2, 76, 57
2, 90240, Note_on_c, 2, 74, 79
2, 90299, Note_on_c, 2, 76, 77
2, 90301, Note_off_c, 2, 74, 53
2, 90361, Note_off_c, 2, 76, 58
2, 90362, Note_on_c, 2, 77, 77
2, 90420, Note_off_c, 2, 77, 58
2, 90421, Note_on_c, 2, 76, 83
2, 90480, Note_off_c, 2, 76, 54
2, 90480, Note_on_c, 2, 79, 78
2, 90538, Note_on_c, 2, 77, 78
2, 90541, Note_off_c, 2, 79, 59
2, 90596, Note_off_c, 2, 77, 58
2, 90600, Note_on_c, 2, 76, 83
2, 90658, Note_on_c, 2, 74, 78
2, 90661, Note_off_c, 2, 76, 55
2, 90719, Note_off_c, 2, 74, 58
2, 90722, Note_on_c, 2, 72, 82
2, 90958, Note_on_c, 2, 71, 78
2, 90962, Note_off_c, 2, 72, 67
2, 91080, Note_off_c, 2, 71, 67
2, 91082, Note_on_c, 2, 67, 81
2, 91155, Note_off_c, 2, 67, 66
2, 91202, Note_on_c, 2, 67, 82
2, 91280, Note_on_c, 2, 72, 77
2, 91282, Note_off_c, 2, 67, 64
2, 91328, Note_off_c, 2, 72, 67
2, 91361, Note_on_c, 2, 72, 78
2, 91408, Note_off_c, 2, 72, 65
2, 91440, Note_on_c, 2, 72, 78
2, 91488, Note_off_c, 2, 72, 63
2, 91521, Note_on_c, 2, 72, 77
2, 91571, Note_off_c, 2, 72, 63
2, 91599, Note_on_c, 2, 72, 81
2, 91648, Note_off_c, 2, 72, 67
2, 91680, Note_on_c, 2, 72, 80
2, 91758, Note_off_c, 2, 72, 65
2, 91758, Note_on_c, 2, 71, 83
2, 91806, Note_off_c, 2, 71, 65
2, 91841, Note_on_c, 2, 69, 83
2, 91889, Note_off_c, 2, 69, 63
2, 91919, Note_on_c, 2, 67, 80
2, 91969, Note_off_c, 2, 67, 64
2, 91998, Note_on_c, 2, 69, 82
2, 92045, Note_off_c, 2, 69, 64
2, 92078, Note_on_c, 2, 71, 83
2, 92124, Note_off_c, 2, 71, 64
2, 92222, Note_on_c, 2, 72, 82
2, 92257, Note_off_c, 2, 72, 54
2, 92279, Note_on_c, 2, 73, 86
2, 92316, Note_off_c, 2, 73, 54
2, 92340, Note_on_c, 2, 74, 82
2, 92377, Note_off_c, 2, 74, 54
2, 92402, Note_on_c, 2, 75, 90
2, 92436, Note_off_c, 2, 75, 57
2, 92462, Note_on_c, 2, 76, 92
2, 92499, Note_off_c, 2, 76, 57
2, 92519, Note_on_c, 2, 77, 94
2, 92553, Note_off_c, 2, 77, 58
2, 92581, Note_on_c, 2, 78, 97
2, 92617, Note_off_c, 2, 78, 56
2, 92641, Note_on_c, 2, 81, 99
2, 92715, Note_off_c, 2, 81, 67
2, 92761, Note_on_c, 2, 79, 99
2, 92999, Note_on_c, 2, 79, 80
2, 93000, Note_off_c, 2, 79, 65
2, 93069, Note_off_c, 2, 79, 62
2, 93120, Note_on_c, 2, 77, 81
2, 93148, Note_off_c, 2, 77, 47
2, 93150, Note_on_c, 2, 79, 82
2, 93179, Note_off_c, 2, 79, 50
2, 93181, Note_on_c, 2, 76, 77
2, 93211, Note_on_c, 2, 77, 79
2, 93213, Note_off_c, 2, 76, 48
2, 93239, Note_on_c, 2, 81, 80
2, 93242, Note_off_c, 2, 77, 48
2, 93477, Note_off_c, 2, 81, 64
2, 93482, Note_on_c, 2, 79, 80
2, 93540, Note_off_c, 2, 79, 56
2, 93541, Note_on_c, 2, 77, 80
2, 93601, Note_on_c, 2, 76, 79
2, 93602, Note_off_c, 2, 77, 53
2, 93638, Note_on_c, 2, 79, 78
2, 93640, Note_off_c, 2, 76, 56
2, 93676, Note_off_c, 2, 79, 57
2, 93682, Note_on_c, 2, 83, 77
2, 93721, Note_off_c, 2, 83, 54
2, 93721, Note_on_c, 2, 84, 77
2, 93760, Note_on_c, 2, 79, 80
2, 93761, Note_off_c, 2, 84, 57
2, 93799, Note_on_c, 2, 76, 78
2, 93801, Note_off_c, 2, 79, 56
2, 93841, Note_off_c, 2, 76, 55
2, 93842, Note_on_c, 2, 74, 77
2, 93880, Note_on_c, 2, 77, 81
2, 93882, Note_off_c, 2, 74, 53
2, 93918, Note_on_c, 2, 80, 83
2, 93921, Note_off_c, 2, 77, 53
2, 93958, Note_off_c, 2, 80, 58
2, 93959, Note_on_c, 2, 81, 81
2, 93998, Note_on_c, 2, 77, 83
2, 94000, Note_off_c, 2, 81, 54
2, 94038, Note_off_c, 2, 77, 59
2, 94038, Note_on_c, 2, 74, 77
2, 94077, Note_off_c, 2, 74, 54
2, 94079, Note_on_c, 2, 72, 77
2, 94126, Note_off_c, 2, 72, 56
2, 94126, Note_on_c, 2, 74, 77
2, 94174, Note_off_c, 2, 74, 54
2, 94174, Note_on_c, 2, 72, 80
2, 94222, Note_on_c, 2, 71, 77
2, 94224, Note_off_c, 2, 72, 59
2, 94268, Note_off_c, 2, 71, 57
2, 94274, Note_on_c, 2, 72, 81
2, 94318, Note_on_c, 2, 76, 81
2, 94321, Note_off_c, 2, 72, 54
2, 94436, Note_off_c, 2, 76, 63
2, 94438, Note_on_c, 2, 74, 78
2, 94558, Note_off_c, 2, 74, 67
2, 94558, Note_on_c, 2, 64, 82
2, 94559, Note_on_c, 2, 72, 83
2, 94798, Note_off_c, 2, 64, 62
2, 94799, Note_off_c, 2, 72, 63
2, 95158, Note_on_c, 2, 67, 83
2, 95231, Note_off_c, 2, 67, 63
2, 95281, Note_on_c, 2, 72, 80
2, 95353, Note_off_c, 2, 72, 61
2, 95401, Note_on_c, 2, 76, 82
2, 95474, Note_off_c, 2, 76, 67
2, 95521, Note_on_c, 2, 77, 82
2, 95699, Note_off_c, 2, 77, 61
2, 95701, Note_on_c, 2, 74, 77
2, 95759, Note_off_c, 2, 74, 57
2, 95760, Note_on_c, 2, 71, 81
2, 95998, Note_off_c, 2, 71, 66
2, 96119, Note_on_c, 2, 67, 77
2, 96192, Note_off_c, 2, 67, 61
2, 96238, Note_on_c, 2, 71, 80
2, 96309, Note_off_c, 2, 71, 66
2, 96362, Note_on_c, 2, 74, 80
2, 96434, Note_off_c, 2, 74, 65
2, 96480, Note_on_c, 2, 76, 81
2, 96662, Note_off_c, 2, 76, 65
2, 96662, Note_on_c, 2, 72, 83
2, 96720, Note_on_c, 2, 67, 82
2, 96722, Note_off_c, 2, 72, 54
2, 96962, Note_off_c, 2, 67, 66
2, 97078, Note_on_c, 2, 67, 81
2, 97139, Note_off_c, 2, 67, 56
2, 97139, Note_on_c, 2, 69, 81
2, 97198, Note_on_c, 2, 71, 77
2, 97199, Note_off_c, 2, 69, 55
2, 97259, Note_off_c, 2, 71, 57
2, 97262, Note_on_c, 2, 72, 83
2, 97320, Note_on_c, 2, 74, 77
2, 97321, Note_off_c, 2, 72, 53
2, 97380, Note_on_c, 2, 76, 82
2, 97382, Note_off_c, 2, 74, 57
2, 97416, Note_off_c, 2, 76, 55
2, 97439, Note_on_c, 2, 79, 80
2, 97500, Note_off_c, 2, 79, 55
2, 97500, Note_on_c, 2, 77, 81
2, 97558, Note_on_c, 2, 76, 77
2, 97561, Note_off_c, 2, 77, 54
2, 97620, Note_off_c, 2, 76, 53
2, 97620, Note_on_c, 2, 74, 79
2, 97680, Note_on_c, 2, 72, 80
2, 97681, Note_off_c, 2, 74, 58
2, 97800, Note_on_c, 2, 71, 81
2, 97801, Note_off_c, 2, 72, 67
2, 97922, Note_off_c, 2, 71, 67
2, 98040, Note_on_c, 2, 79, 82
2, 98099, Note_off_c, 2, 79, 56
2, 98102, Note_on_c, 2, 81, 79
2, 98158, Note_on_c, 2, 83, 80
2, 98162, Note_off_c, 2, 81, 53
2, 98218, Note_off_c, 2, 83, 53
2, 98218, Note_on_c, 2, 84, 82
2, 98276, Note_off_c, 2, 84, 57
2, 98282, Note_on_c, 2, 86, 80
2, 98338, Note_on_c, 2, 87, 77
2, 98343, Note_off_c, 2, 86, 59
2, 98372, Note_off_c, 2, 87, 53
2, 98400, Note_on_c, 2, 88, 77
2, 98458, Note_on_c, 2, 87, 77
2, 98462, Note_off_c, 2, 88, 55
2, 98517, Note_off_c, 2, 87, 59
2, 98520, Note_on_c, 2, 89, 83
2, 98579, Note_off_c, 2, 89, 59
2, 98580, Note_on_c, 2, 88, 83
2, 98640, Note_off_c, 2, 88, 55
2, 98642, Note_on_c, 2, 86, 83
2, 98698, Note_on_c, 2, 84, 81
2, 98700, Note_off_c, 2, 86, 54
2, 98756, Note_off_c, 2, 84, 57
2, 98758, Note_on_c, 2, 83, 78
2, 98819, Note_on_c, 2, 81, 81
2, 98820, Note_off_c, 2, 83, 58
2, 98880, Note_off_c, 2, 81, 55
2, 98880, Note_on_c, 2, 79, 82
2, 98916, Note_off_c, 2, 79, 55
2, 98940, Note_on_c, 2, 84, 77
2, 98974, Note_off_c, 2, 84, 59
2, 98998, Note_on_c, 2, 83, 77
2, 99032, Note_off_c, 2, 83, 54
2, 99059, Note_on_c, 2, 81, 81
2, 99094, Note_off_c, 2, 81, 53
2, 99119, Note_on_c, 2, 80, 81
2, 99155, Note_off_c, 2, 80, 56
2, 99180, Note_on_c, 2, 79, 82
2, 99216, Note_off_c, 2, 79, 55
2, 99238, Note_on_c, 2, 78, 83
2, 99276, Note_off_c, 2, 78, 59
2, 99299, Note_on_c, 2, 77, 79
2, 99335, Note_off_c, 2, 77, 53
2, 99361, Note_on_c, 2, 76, 78
2, 99398, Note_off_c, 2, 76, 59
2, 99422, Note_on_c, 2, 81, 78
2, 99458, Note_off_c, 2, 81, 54
2, 99481, Note_on_c, 2, 79, 82
2, 99517, Note_off_c, 2, 79, 59
2, 99539, Note_on_c, 2, 78, 79
2, 99577, Note_off_c, 2, 78, 56
2, 99599, Note_on_c, 2, 77, 79
2, 99636, Note_off_c, 2, 77, 57
2, 99660, Note_on_c, 2, 76, 80
2, 99695, Note_off_c, 2, 76, 54
2, 99720, Note_on_c, 2, 75, 80
2, 99754, Note_off_c, 2, 75, 55
2, 99778, Note_on_c, 2, 74, 83
2, 99816, Note_off_c, 2, 74, 54
2, 99840, Note_on_c, 2, 72, 81
2, 100034, Note_off_c, 2, 72, 67
2, 100081, Note_on_c, 2, 72, 80
2, 100272, Note_off_c, 2, 72, 63
2, 100319, Note_on_c, 2, 72, 78
2, 100439, Note_off_c, 2, 72, 64
2, 100439, Note_on_c, 2, 71, 78
2, 100559, Note_on_c, 2, 70, 83
2, 100561, Note_off_c, 2, 71, 61
2, 100678, Note_on_c, 2, 71, 83
2, 100681, Note_off_c, 2, 70, 66
2, 100797, Note_off_c, 2, 71, 62
2, 100801, Note_on_c, 2, 71, 80
2, 100992, Note_off_c, 2, 71, 65
2, 101042, Note_on_c, 2, 71, 77
2, 101233, Note_off_c, 2, 71, 62
2, 101258, Note_on_c, 2, 71, 79
2, 101280, Note_on_c, 2, 74, 83
2, 101290, Note_off_c, 2, 71, 66
2, 101399, Note_off_c, 2, 74, 66
2, 101401, Note_on_c, 2, 72, 82
2, 101518, Note_on_c, 2, 71, 79
2, 101522, Note_off_c, 2, 72, 62
2, 101637, Note_off_c, 2, 71, 62
2, 101638, Note_on_c, 2, 72, 77
2, 101759, Note_off_c, 2, 72, 65
2, 101759, Note_on_c, 2, 72, 82
2, 101950, Note_off_c, 2, 72, 64
2, 101999, Note_on_c, 2, 72, 83
2, 102189, Note_off_c, 2, 72, 66
2, 102242, Note_on_c, 2, 75, 78
2, 102362, Note_on_c, 2, 73, 78
2, 102363, Note_off_c, 2, 75, 65
2, 102478, Note_on_c, 2, 72, 78
2, 102484, Note_off_c, 2, 73, 66
2, 102597, Note_off_c, 2, 72, 64
2, 102601, Note_on_c, 2, 73, 78
2, 102718, Note_on_c, 2, 78, 80
2, 102723, Note_off_c, 2, 73, 63
2, 102911, Note_off_c, 2, 78, 62
2, 102958, Note_on_c, 2, 78, 80
2, 103148, Note_off_c, 2, 78, 64
2, 103202, Note_on_c, 2, 78, 78
2, 103318, Note_on_c, 2, 77, 83
2, 103320, Note_off_c, 2, 78, 67
2, 103437, Note_off_c, 2, 77, 62
2, 103442, Note_on_c, 2, 75, 81
2, 103561, Note_off_c, 2, 75, 67
2, 103562, Note_on_c, 2, 73, 83
2, 103681, Note_off_c, 2, 73, 61
2, 103681, Note_on_c, 2, 72, 78
2, 103681, Note_on_c, 2, 68, 77
2, 103872, Note_off_c, 2, 68, 65
2, 103874, Note_off_c, 2, 72, 67
2, 103920, Note_on_c, 2, 72, 81
2, 103922, Note_on_c, 2, 68, 78
2, 104112, Note_off_c, 2, 72, 64
2, 104116, Note_off_c, 2, 68, 66
2, 104159, Note_on_c, 2, 68, 78
2, 104161, Note_on_c, 2, 75, 83
2, 104278, Note_on_c, 2, 73, 78
2, 104279, Note_off_c, 2, 75, 65
2, 104400, Note_off_c, 2, 73, 64
2, 104400, Note_on_c, 2, 72, 77
2, 104519, Note_on_c, 2, 73, 80
2, 104520, Note_off_c, 2, 72, 61
2, 104637, Note_off_c, 2, 73, 65
2, 104637, Note_off_c, 2, 68, 67
2, 104638, Note_on_c, 2, 75, 78
2, 104639, Note_on_c, 2, 66, 78
2, 104641, Note_on_c, 2, 78, 79
2, 104642, Note_on_c, 2, 68, 83
2, 104829, Note_off_c, 2, 75, 64
2, 104832, Note_off_c, 2, 66, 67
2, 104833, Note_off_c, 2, 68, 67
2, 104834, Note_off_c, 2, 78, 64
2, 104878, Note_on_c, 2, 68, 80
2, 104879, Note_on_c, 2, 78, 78
2, 104879, Note_on_c, 2, 66, 77
2, 104882, Note_on_c, 2, 75, 83
2, 105070, Note_off_c, 2, 66, 62
2, 105070, Note_off_c, 2, 68, 66
2, 105072, Note_off_c, 2, 78, 63
2, 105074, Note_off_c, 2, 75, 65
2, 105120, Control_c, 2, 64, 127
2, 105359, Note_on_c, 2, 65, 80
2, 105419, Note_on_c, 2, 68, 79
2, 105420, Note_off_c, 2, 65, 55
2, 105477, Note_off_c, 2, 68, 59
2, 105481, Note_on_c, 2, 73, 83
2, 105542, Note_off_c, 2, 73, 53
2, 105542, Note_on_c, 2, 77, 80
2, 105552, Control_c, 2, 64, 0
2, 105600, Control_c, 2, 64, 127
2, 105602, Note_off_c, 2, 77, 57
2, 105838, Note_on_c, 2, 63, 80
2, 105896, Note_off_c, 2, 63, 57
2, 105900, Note_on_c, 2, 68, 81
2, 105958, Note_off_c, 2, 68, 59
2, 105961, Note_on_c, 2, 72, 82
2, 106018, Note_on_c, 2, 75, 81
2, 106019, Note_off_c, 2, 72, 59
2, 106032, Control_c, 2, 64, 0
2, 106078, Note_off_c, 2, 75, 54
2, 106080, Control_c, 2, 64, 127
2, 106322, Note_on_c, 2, 68, 87
2, 106381, Note_on_c, 2, 73, 84
2, 106384, Note_off_c, 2, 68, 53
2, 106439, Note_off_c, 2, 73, 53
2, 106441, Note_on_c, 2, 77, 86
2, 106501, Note_on_c, 2, 80, 85
2, 106502, Note_off_c, 2, 77, 57
2, 106512, Control_c, 2, 64, 0
2, 106560, Control_c, 2, 64, 127
2, 106561, Note_off_c, 2, 80, 56
2, 106800, Note_on_c, 2, 66, 85
2, 106858, Note_on_c, 2, 68, 89
2, 106859, Note_off_c, 2, 66, 56
2, 106920, Note_off_c, 2, 68, 59
2, 106920, Note_on_c, 2, 72, 86
2, 106978, Note_on_c, 2, 78, 88
2, 106979, Note_off_c, 2, 72, 57
2, 106992, Control_c, 2, 64, 0
2, 107039, Note_off_c, 2, 78, 55
2, 107040, Control_c, 2, 64, 127
2, 107279, Note_on_c, 2, 65, 88
2, 107340, Note_off_c, 2, 65, 57
2, 107340, Note_on_c, 2, 68, 89
2, 107398, Note_off_c, 2, 68, 56
2, 107401, Note_on_c, 2, 73, 87
2, 107461, Note_off_c, 2, 73, 56
2, 107461, Note_on_c, 2, 77, 91
2, 107472, Control_c, 2, 64, 0
2, 107520, Control_c, 2, 64, 127
2, 107523, Note_off_c, 2, 77, 59
2, 107758, Note_on_c, 2, 65, 92
2, 107818, Note_off_c, 2, 65, 57
2, 107821, Note_on_c, 2, 68, 86
2, 107878, Note_on_c, 2, 72, 86
2, 107882, Note_off_c, 2, 68, 58
2, 107936, Note_off_c, 2, 72, 58
2, 107941, Note_on_c, 2, 77, 89
2, 107952, Control_c, 2, 64, 0
2, 108000, Control_c, 2, 64, 127
2, 108001, Note_off_c, 2, 77, 57
2, 108240, Note_on_c, 2, 65, 92
2, 108300, Note_on_c, 2, 68, 89
2, 108301, Note_off_c, 2, 65, 59
2, 108359, Note_on_c, 2, 74, 90
2, 108362, Note_off_c, 2, 68, 54
2, 108421, Note_off_c, 2, 74, 59
2, 108422, Note_on_c, 2, 77, 88
2, 108432, Control_c, 2, 64, 0
2, 108480, Note_off_c, 2, 77, 55
2, 108480, Control_c, 2, 64, 127
2, 108720, Note_on_c, 2, 63, 94
2, 108778, Note_on_c, 2, 67, 93
2, 108779, Note_off_c, 2, 63, 55
2, 108836, Note_off_c, 2, 67, 59
2, 108840, Note_on_c, 2, 72, 89
2, 108901, Note_off_c, 2, 72, 57
2, 108901, Note_on_c, 2, 75, 90
2, 108912, Control_c, 2, 64, 0
2, 108960, Control_c, 2, 64, 127
2, 108961, Note_off_c, 2, 75, 54
2, 109201, Note_on_c, 2, 62, 91
2, 109258, Note_on_c, 2, 68, 95
2, 109259, Note_off_c, 2, 62, 55
2, 109317, Note_off_c, 2, 68, 56
2, 109321, Note_on_c, 2, 72, 95
2, 109379, Note_on_c, 2, 74, 94
2, 109383, Note_off_c, 2, 72, 58
2, 109392, Control_c, 2, 64, 0
2, 109440, Note_off_c, 2, 74, 59
2, 109440, Control_c, 2, 64, 127
2, 109679, Note_on_c, 2, 64, 93
2, 109738, Note_on_c, 2, 70, 96
2, 109739, Note_off_c, 2, 64, 54
2, 109797, Note_off_c, 2, 70, 56
2, 109802, Note_on_c, 2, 72, 94
2, 109861, Note_off_c, 2, 72, 55
2, 109861, Note_on_c, 2, 76, 99
2, 109872, Control_c, 2, 64, 0
2, 109920, Control_c, 2, 64, 127
2, 109921, Note_off_c, 2, 76, 53
2, 110161, Note_on_c, 2, 65, 95
2, 110221, Note_off_c, 2, 65, 54
2, 110222, Note_on_c, 2, 68, 99
2, 110278, Note_on_c, 2, 72, 99
2, 110283, Note_off_c, 2, 68, 53
2, 110337, Note_off_c, 2, 72, 57
2, 110341, Note_on_c, 2, 77, 100
2, 110352, Control_c, 2, 64, 0
2, 110400, Note_off_c, 2, 77, 57
2, 110400, Control_c, 2, 64, 127
2, 110641, Note_on_c, 2, 66, 99
2, 110698, Note_on_c, 2, 72, 101
2, 110700, Note_off_c, 2, 66, 56
2, 110760, Note_off_c, 2, 72, 58
2, 110762, Note_on_c, 2, 75, 101
2, 110822, Note_on_c, 2, 78, 100
2, 110824, Note_off_c, 2, 75, 53
2, 110832, Control_c, 2, 64, 0
2, 110878, Note_on_c, 2, 79, 101
2, 110879, Note_on_c, 2, 72, 97
2, 110880, Note_on_c, 2, 67, 101
2, 110881, Note_on_c, 2, 76, 101
2, 110884, Note_off_c, 2, 78, 59
2, 111236, Note_off_c, 2, 79, 61
2, 111237, Note_off_c, 2, 72, 62
2, 111239, Note_off_c, 2, 67, 62
2, 111240, Note_off_c, 2, 76, 67
2, 111240, Note_on_c, 2, 77, 81
2, 111241, Note_on_c, 2, 74, 78
2, 111359, Note_off_c, 2, 74, 65
2, 111359, Note_on_c, 2, 76, 78
2, 111360, Note_off_c, 2, 77, 67
2, 111362, Note_on_c, 2, 72, 83
2, 111478, Note_on_c, 2, 76, 83
2, 111481, Note_off_c, 2, 76, 62
2, 111482, Note_on_c, 2, 67, 82
2, 111483, Note_off_c, 2, 72, 67
2, 111550, Note_off_c, 2, 76, 65
2, 111554, Note_off_c, 2, 67, 63
2, 111600, Note_on_c, 2, 74, 81
2, 111600, Note_on_c, 2, 69, 79
2, 111600, Note_on_c, 2, 65, 77
2, 111671, Note_off_c, 2, 65, 62
2, 111673, Note_off_c, 2, 69, 61
2, 111674, Note_off_c, 2, 74, 62
2, 111719, Note_on_c, 2, 69, 79
2, 111720, Note_on_c, 2, 63, 81
2, 111721, Note_on_c, 2, 66, 78
2, 111722, Note_on_c, 2, 72, 78
2, 111790, Note_off_c, 2, 63, 63
2, 111791, Note_off_c, 2, 69, 63
2, 111792, Note_off_c, 2, 72, 67
2, 111795, Note_off_c, 2, 66, 64
2, 111838, Note_on_c, 2, 64, 82
2, 111839, Note_on_c, 2, 72, 78
2, 111839, Note_on_c, 2, 67, 82
2, 112196, Note_off_c, 2, 64, 64
2, 112198, Note_off_c, 2, 72, 65
2, 112200, Note_off_c, 2, 67, 64
2, 112200, Note_on_c, 2, 72, 81
2, 112200, Note_on_c, 2, 67, 81
2, 112201, Note_on_c, 2, 64, 81
2, 112318, Note_off_c, 2, 67, 67
2, 112318, Note_off_c, 2, 72, 64
2, 112319, Note_on_c, 2, 72, 77
2, 112320, Note_on_c, 2, 65, 81
2, 112320, Note_on_c, 2, 62, 83
2, 112322, Note_off_c, 2, 64, 64
2, 112439, Note_off_c, 2, 72, 64
2, 112440, Note_off_c, 2, 62, 61
2, 112440, Note_on_c, 2, 71, 78
2, 112441, Note_off_c, 2, 65, 63
2, 112561, Note_off_c, 2, 71, 61
2, 112562, Note_on_c, 2, 69, 77
2, 112562, Note_on_c, 2, 65, 83
2, 112562, Note_on_c, 2, 62, 79
2, 112678, Note_on_c, 2, 67, 77
2, 112680, Note_off_c, 2, 65, 63
2, 112681, Note_off_c, 2, 69, 64
2, 112683, Note_off_c, 2, 62, 63
2, 112799, Note_off_c, 2, 67, 67
2, 112799, Note_on_c, 2, 76, 79
2, 112800, Note_on_c, 2, 79, 78
2, 113158, Note_on_c, 2, 74, 80
2, 113160, Note_off_c, 2, 76, 65
2, 113161, Note_off_c, 2, 79, 63
2, 113161, Note_on_c, 2, 77, 81
2, 113276, Note_off_c, 2, 74, 62
2, 113279, Note_off_c, 2, 77, 67
2, 113280, Note_on_c, 2, 76, 80
2, 113282, Note_on_c, 2, 72, 77
2, 113398, Note_off_c, 2, 76, 64
2, 113398, Note_on_c, 2, 76, 78
2, 113398, Note_on_c, 2, 67, 83
2, 113404, Note_off_c, 2, 72, 61
2, 113469, Note_off_c, 2, 67, 64
2, 113469, Note_off_c, 2, 76, 67
2, 113518, Note_on_c, 2, 74, 77
2, 113518, Note_on_c, 2, 65, 82
2, 113519, Note_on_c, 2, 69, 83
2, 113589, Note_off_c, 2, 69, 63
2, 113589, Note_off_c, 2, 65, 62
2, 113590, Note_off_c, 2, 74, 65
2, 113638, Note_on_c, 2, 63, 77
2, 113641, Note_on_c, 2, 69, 79
2, 113641, Note_on_c, 2, 66, 79
2, 113642, Note_on_c, 2, 72, 77
2, 113709, Note_off_c, 2, 63, 63
2, 113714, Note_off_c, 2, 69, 61
2, 113715, Note_off_c, 2, 72, 65
2, 113715, Note_off_c, 2, 66, 62
2, 113758, Note_on_c, 2, 72, 98
2, 113759, Note_on_c, 2, 67, 95
2, 113761, Note_on_c, 2, 64, 98
2, 114117, Note_off_c, 2, 72, 65
2, 114120, Note_off_c, 2, 67, 61
2, 114121, Note_on_c, 2, 64, 92
2, 114122, Note_off_c, 2, 64, 62
2, 114122, Note_on_c, 2, 72, 93
2, 114122, Note_on_c, 2, 67, 98
2, 114240, Note_off_c, 2, 72, 67
2, 114240, Note_off_c, 2, 64, 65
2, 114241, Note_on_c, 2, 72, 92
2, 114241, Note_on_c, 2, 65, 95
2, 114241, Note_on_c, 2, 62, 95
2, 114242, Note_off_c, 2, 67, 61
2, 114359, Note_on_c, 2, 71, 95
2, 114360, Note_off_c, 2, 65, 63
2, 114361, Note_off_c, 2, 62, 61
2, 114361, Note_off_c, 2, 72, 63
2, 114479, Note_off_c, 2, 71, 63
2, 114479, Note_on_c, 2, 69, 98
2, 114480, Note_on_c, 2, 65, 95
2, 114481, Note_on_c, 2, 62, 93
2, 114598, Note_off_c, 2, 65, 61
2, 114599, Note_off_c, 2, 69, 64
2, 114600, Note_on_c, 2, 67, 93
2, 114603, Note_off_c, 2, 62, 63
2, 114719, Note_off_c, 2, 67, 67
2, 114721, Note_on_c, 2, 72, 77
2, 114722, Note_on_c, 2, 64, 79
2, 114959, Note_off_c, 2, 72, 63
2, 114961, Note_off_c, 2, 64, 67
2, 115082, Note_on_c, 2, 48, 81
2, 115198, Note_on_c, 2, 48, 83
2, 115200, Note_off_c, 2, 48, 65
2, 115319, Note_on_c, 2, 47, 82
2, 115320, Note_off_c, 2, 48, 61
2, 115439, Note_off_c, 2, 47, 67
2, 115440, Note_on_c, 2, 45, 79
2, 115559, Note_off_c, 2, 45, 66
2, 115560, Note_on_c, 2, 47, 81
2, 115679, Note_off_c, 2, 47, 63
2, 115679, Note_on_c, 2, 48, 81
2, 115918, Note_off_c, 2, 48, 62
2, 115922, Note_on_c, 2, 43, 78
2, 116038, Note_on_c, 2, 72, 83
2, 116041, Note_off_c, 2, 43, 65
2, 116160, Note_off_c, 2, 72, 63
2, 116160, Note_on_c, 2, 72, 81
2, 116281, Note_off_c, 2, 72, 65
2, 116282, Note_on_c, 2, 71, 80
2, 116400, Note_off_c, 2, 71, 65
2, 116402, Note_on_c, 2, 69, 83
2, 116521, Note_on_c, 2, 71, 77
2, 116523, Note_off_c, 2, 69, 62
2, 116638, Note_on_c, 2, 72, 77
2, 116642, Note_off_c, 2, 71, 61
2, 116879, Note_off_c, 2, 72, 67
2, 116880, Note_on_c, 2, 67, 83
2, 117001, Note_off_c, 2, 67, 64
2, 117062, Note_on_c, 2, 48, 78
2, 117121, Note_on_c, 2, 48, 81
2, 117123, Note_off_c, 2, 48, 53
2, 117181, Note_off_c, 2, 48, 55
2, 117181, Note_on_c, 2, 47, 78
2, 117239, Note_off_c, 2, 47, 58
2, 117241, Note_on_c, 2, 52, 83
2, 117298, Note_on_c, 2, 50, 78
2, 117302, Note_off_c, 2, 52, 54
2, 117359, Note_off_c, 2, 50, 53
2, 117361, Note_on_c, 2, 48, 77
2, 117419, Note_on_c, 2, 47, 81
2, 117420, Note_off_c, 2, 48, 55
2, 117479, Note_off_c, 2, 47, 56
2, 117480, Note_on_c, 2, 45, 77
2, 117538, Note_on_c, 2, 43, 81
2, 117539, Note_off_c, 2, 45, 56
2, 117596, Note_off_c, 2, 43, 57
2, 117601, Note_on_c, 2, 43, 77
2, 117619, Note_on_c, 2, 48, 83
2, 117631, Note_off_c, 2, 43, 63
2, 117838, Note_on_c, 2, 43, 81
2, 117840, Note_off_c, 2, 48, 63
2, 117957, Note_off_c, 2, 43, 66
2, 118020, Note_on_c, 2, 72, 79
2, 118079, Note_on_c, 2, 72, 82
2, 118082, Note_off_c, 2, 72, 56
2, 118137, Note_off_c, 2, 72, 55
2, 118139, Note_on_c, 2, 71, 82
2, 118197, Note_off_c, 2, 71, 56
2, 118199, Note_on_c, 2, 76, 81
2, 118257, Note_off_c, 2, 76, 58
2, 118261, Note_on_c, 2, 74, 80
2, 118320, Note_on_c, 2, 72, 79
2, 118321, Note_off_c, 2, 74, 53
2, 118378, Note_off_c, 2, 72, 59
2, 118379, Note_on_c, 2, 71, 77
2, 118437, Note_off_c, 2, 71, 59
2, 118438, Note_on_c, 2, 69, 81
2, 118498, Note_off_c, 2, 69, 53
2, 118498, Note_on_c, 2, 67, 81
2, 118557, Note_off_c, 2, 67, 53
2, 118562, Note_on_c, 2, 67, 80
2, 118580, Note_on_c, 2, 72, 79
2, 118590, Note_off_c, 2, 67, 67
2, 118801, Note_off_c, 2, 72, 61
2, 118802, Note_on_c, 2, 67, 81
2, 118921, Note_off_c, 2, 67, 64
2, 118978, Note_on_c, 2, 48, 85
2, 119037, Note_off_c, 2, 48, 53
2, 119038, Note_on_c, 2, 48, 85
2, 119100, Note_off_c, 2, 48, 59
2, 119101, Note_on_c, 2, 47, 86
2, 119158, Note_on_c, 2, 52, 87
2, 119159, Note_off_c, 2, 47, 55
2, 119216, Note_off_c, 2, 52, 56
2, 119218, Note_on_c, 2, 50, 87
2, 119278, Note_off_c, 2, 50, 57
2, 119282, Note_on_c, 2, 48, 83
2, 119339, Note_on_c, 2, 47, 84
2, 119343, Note_off_c, 2, 48, 56
2, 119397, Note_off_c, 2, 47, 56
2, 119399, Note_on_c, 2, 45, 87
2, 119457, Note_off_c, 2, 45, 57
2, 119461, Note_on_c, 2, 43, 84
2, 119520, Note_off_c, 2, 43, 54
2, 119521, Note_on_c, 2, 48, 85
2, 119758, Note_on_c, 2, 49, 85
2, 119763, Note_off_c, 2, 48, 62
2, 119997, Note_off_c, 2, 49, 64
2, 120001, Note_on_c, 2, 50, 88
2, 120238, Note_on_c, 2, 51, 89
2, 120242, Note_off_c, 2, 50, 61
2, 120478, Note_on_c, 2, 52, 94
2, 120479, Note_off_c, 2, 51, 63
2, 120718, Note_on_c, 2, 52, 98
2, 120719, Note_off_c, 2, 52, 67
2, 120959, Note_on_c, 2, 53, 97
2, 120960, Note_off_c, 2, 52, 61
2, 121201, Note_off_c, 2, 53, 67
2, 121202, Note_on_c, 2, 54, 97
2, 121439, Note_on_c, 2, 55, 96
2, 121444, Note_off_c, 2, 54, 61
2, 121477, Note_off_c, 2, 55, 57
2, 121478, Note_on_c, 2, 56, 96
2, 121518, Note_off_c, 2, 56, 59
2, 121522, Note_on_c, 2, 57, 93
2, 121558, Note_on_c, 2, 58, 93
2, 121560, Note_off_c, 2, 57, 53
2, 121598, Note_off_c, 2, 58, 53
2, 121600, Note_on_c, 2, 59, 95
2, 121639, Note_off_c, 2, 59, 55
2, 121639, Note_on_c, 2, 60, 92
2, 121681, Note_off_c, 2, 60, 57
2, 121681, Note_on_c, 2, 61, 98
2, 121720, Note_off_c, 2, 61, 53
2, 121722, Note_on_c, 2, 62, 94
2, 121760, Note_on_c, 2, 63, 92
2, 121764, Note_off_c, 2, 62, 59
2, 121798, Note_on_c, 2, 64, 97
2, 121800, Note_off_c, 2, 63, 58
2, 121836, Note_off_c, 2, 64, 59
2, 121840, Note_on_c, 2, 65, 98
2, 121879, Note_on_c, 2, 66, 92
2, 121880, Note_off_c, 2, 65, 53
2, 121918, Note_on_c, 2, 67, 92
2, 121921, Note_off_c, 2, 66, 53
2, 121958, Note_off_c, 2, 67, 57
2, 121962, Note_on_c, 2, 68, 92
2, 121999, Note_on_c, 2, 69, 94
2, 122004, Note_off_c, 2, 68, 55
2, 122037, Note_off_c, 2, 69, 58
2, 122038, Note_on_c, 2, 70, 93
2, 122077, Note_off_c, 2, 70, 53
2, 122081, Note_on_c, 2, 71, 98
2, 122121, Note_off_c, 2, 71, 59
2, 122122, Note_on_c, 2, 72, 92
2, 122162, Note_off_c, 2, 72, 55
2, 122162, Note_on_c, 2, 73, 96
2, 122201, Note_on_c, 2, 74, 93
2, 122203, Note_off_c, 2, 73, 59
2, 122239, Note_on_c, 2, 75, 95
2, 122242, Note_off_c, 2, 74, 56
2, 122280, Note_off_c, 2, 75, 56
2, 122281, Note_on_c, 2, 76, 96
2, 122320, Note_off_c, 2, 76, 53
2, 122320, Note_on_c, 2, 77, 95
2, 122358, Note_off_c, 2, 77, 54
2, 122359, Note_on_c, 2, 78, 92
2, 122397, Note_off_c, 2, 78, 58
2, 122401, Note_on_c, 2, 79, 94
2, 122426, Note_on_c, 2, 80, 92
2, 122427, Note_off_c, 2, 79, 46
2, 122453, Note_on_c, 2, 81, 93
2, 122454, Note_off_c, 2, 80, 51
2, 122477, Note_off_c, 2, 81, 47
2, 122478, Note_on_c, 2, 82, 96
2, 122502, Note_off_c, 2, 82, 48
2, 122502, Note_on_c, 2, 83, 96
2, 122528, Note_off_c, 2, 83, 49
2, 122531, Note_on_c, 2, 84, 94
2, 122556, Note_off_c, 2, 84, 47
2, 122557, Note_on_c, 2, 85, 92
2, 122582, Note_off_c, 2, 85, 46
2, 122582, Note_on_c, 2, 86, 92
2, 122608, Note_off_c, 2, 86, 46
2, 122610, Note_on_c, 2, 87, 89
2, 122636, Note_off_c, 2, 87, 47
2, 122642, Note_on_c, 2, 88, 89
2, 122739, Note_off_c, 2, 88, 63
2, 122754, Note_on_c, 2, 86, 87
2, 122848, Note_off_c, 2, 86, 62
2, 122876, Note_on_c, 2, 84, 86
2, 122974, Note_off_c, 2, 84, 63
2, 122993, Note_on_c, 2, 83, 86
2, 123091, Note_off_c, 2, 83, 67
2, 123115, Note_on_c, 2, 81, 83
2, 123212, Note_off_c, 2, 81, 62
2, 123232, Note_on_c, 2, 79, 81
2, 123326, Note_off_c, 2, 79, 61
2, 123361, Note_on_c, 2, 77, 79
2, 123457, Note_off_c, 2, 77, 64
2, 123480, Note_on_c, 2, 76, 81
2, 123577, Note_off_c, 2, 76, 63
2, 123601, Note_on_c, 2, 74, 79
2, 123695, Note_off_c, 2, 74, 64
2, 123720, Note_on_c, 2, 72, 82
2, 123818, Note_off_c, 2, 72, 65
2, 123840, Note_on_c, 2, 71, 78
2, 123934, Note_off_c, 2, 71, 66
2, 123958, Note_on_c, 2, 69, 79
2, 124052, Note_off_c, 2, 69, 63
2, 124082, Note_on_c, 2, 67, 78
2, 124180, Note_off_c, 2, 67, 67
2, 124200, Note_on_c, 2, 66, 83
2, 124294, Note_off_c, 2, 66, 65
2, 124321, Note_on_c, 2, 67, 81
2, 124440, Note_off_c, 2, 67, 64
2, 124441, Note_on_c, 2, 72, 81
2, 124559, Note_off_c, 2, 72, 65
2, 124560, Note_on_c, 2, 76, 80
2, 124678, Note_off_c, 2, 76, 65
2, 124680, Note_on_c, 2, 79, 80
2, 124920, Note_off_c, 2, 79, 64
2, 124921, Note_on_c, 2, 77, 83
2, 125042, Note_on_c, 2, 74, 79
2, 125043, Note_off_c, 2, 77, 62
2, 125158, Note_on_c, 2, 71, 77
2, 125164, Note_off_c, 2, 74, 66
2, 125276, Note_off_c, 2, 71, 61
2, 125278, Note_on_c, 2, 72, 82
2, 125518, Note_off_c, 2, 72, 62
2, 126180, Note_on_c, 2, 67, 81
2, 126238, Note_on_c, 2, 79, 83
2, 126239, Note_off_c, 2, 67, 59
2, 126716, Note_off_c, 2, 79, 61
2, 127141, Note_on_c, 2, 67, 80
2, 127202, Note_on_c, 2, 79, 79
2, 127203, Note_off_c, 2, 67, 56
2, 127680, Note_on_c, 2, 79, 82
2, 127680, Note_on_c, 2, 70, 81
2, 127682, Note_off_c, 2, 79, 65
2, 127871, Note_off_c, 2, 79, 64
2, 127872, Note_off_c, 2, 70, 61
2, 127918, Note_on_c, 2, 70, 83
2, 127919, Note_on_c, 2, 79, 79
2, 128108, Note_off_c, 2, 70, 63
2, 128112, Note_off_c, 2, 79, 62
2, 128160, Note_on_c, 2, 69, 80
2, 128162, Note_on_c, 2, 79, 81
2, 128282, Note_off_c, 2, 79, 61
2, 128282, Note_on_c, 2, 77, 80
2, 128402, Note_off_c, 2, 77, 62
2, 128402, Note_on_c, 2, 76, 82
2, 128518, Note_on_c, 2, 74, 79
2, 128521, Note_off_c, 2, 76, 67
2, 128640, Note_off_c, 2, 74, 63
2, 128641, Note_off_c, 2, 69, 64
2, 128641, Note_on_c, 2, 72, 93
2, 128641, Note_on_c, 2, 67, 93
2, 128711, Note_off_c, 2, 72, 64
2, 128712, Note_off_c, 2, 67, 62
2, 128878, Note_on_c, 2, 65, 107
2, 128881, Note_on_c, 2, 67, 112
2, 128882, Note_on_c, 2, 71, 110
2, 128882, Note_on_c, 2, 62, 111
2, 128952, Note_off_c, 2, 62, 61
2, 128952, Note_off_c, 2, 71, 61
2, 128952, Note_off_c, 2, 65, 61
2, 128954, Note_off_c, 2, 67, 61
2, 129118, Note_on_c, 2, 72, 109
2, 129118, Note_on_c, 2, 67, 110
2, 129120, Note_on_c, 2, 60, 112
2, 129121, Note_on_c, 2, 64, 109
2, 129356, Note_off_c, 2, 72, 62
2, 129357, Note_off_c, 2, 67, 65
2, 129360, Note_off_c, 2, 64, 63
2, 129362, Note_off_c, 2, 60, 67
2, 129362, End_track
3, 0, Start_track
3, 0, Title_t, "Piano LH"
3, 0, Program_c, 1, 0
3, 0, Control_c, 1, 7, 116
3, 0, Control_c, 1, 93, 0
3, 0, Control_c, 1, 91, 14
3, 0, Control_c, 1, 10, 56
3, 0, Note_on_c, 1, 64, 80
3, 0, Note_on_c, 1, 60, 81
3, 120, Note_off_c, 1, 64, 62
3, 120, Note_on_c, 1, 67, 83
3, 122, Note_off_c, 1, 60, 67
3, 239, Note_off_c, 1, 67, 63
3, 242, Note_on_c, 1, 64, 78
3, 242, Note_on_c, 1, 60, 82
3, 360, Note_off_c, 1, 64, 61
3, 360, Note_on_c, 1, 67, 81
3, 362, Note_off_c, 1, 60, 62
3, 480, Note_off_c, 1, 67, 63
3, 481, Note_on_c, 1, 62, 80
3, 482, Note_on_c, 1, 65, 81
3, 599, Note_off_c, 1, 62, 64
3, 601, Note_off_c, 1, 65, 62
3, 602, Note_on_c, 1, 67, 79
3, 719, Note_on_c, 1, 65, 79
3, 720, Note_off_c, 1, 67, 63
3, 720, Note_on_c, 1, 62, 77
3, 838, Note_off_c, 1, 62, 63
3, 839, Note_on_c, 1, 67, 83
3, 841, Note_off_c, 1, 65, 63
3, 958, Note_off_c, 1, 67, 66
3, 962, Note_on_c, 1, 64, 78
3, 962, Note_on_c, 1, 60, 79
3, 1080, Note_off_c, 1, 64, 65
3, 1081, Note_on_c, 1, 67, 80
3, 1083, Note_off_c, 1, 60, 61
3, 1199, Note_on_c, 1, 64, 82
3, 1200, Note_on_c, 1, 60, 81
3, 1201, Note_off_c, 1, 67, 65
3, 1318, Note_on_c, 1, 67, 77
3, 1320, Note_off_c, 1, 60, 61
3, 1320, Note_off_c, 1, 64, 63
3, 1436, Note_off_c, 1, 67, 66
3, 1441, Note_on_c, 1, 62, 81
3, 1442, Note_on_c, 1, 59, 81
3, 1559, Note_off_c, 1, 62, 67
3, 1560, Note_on_c, 1, 67, 79
3, 1562, Note_off_c, 1, 59, 66
3, 1678, Note_off_c, 1, 67, 67
3, 1678, Note_on_c, 1, 59, 80
3, 1678, Note_on_c, 1, 62, 81
3, 1799, Note_on_c, 1, 67, 78
3, 1800, Note_off_c, 1, 62, 67
3, 1800, Note_off_c, 1, 59, 62
3, 1917, Note_off_c, 1, 67, 63
3, 1920, Note_on_c, 1, 60, 79
3, 1922, Note_on_c, 1, 57, 81
3, 2038, Note_on_c, 1, 65, 82
3, 2040, Note_off_c, 1, 57, 61
3, 2042, Note_off_c, 1, 60, 66
3, 2158, Note_on_c, 1, 62, 80
3, 2160, Note_off_c, 1, 65, 62
3, 2162, Note_on_c, 1, 59, 80
3, 2277, Note_off_c, 1, 62, 61
3, 2282, Note_off_c, 1, 59, 63
3, 2282, Note_on_c, 1, 67, 79
3, 2399, Note_on_c, 1, 60, 81
3, 2403, Note_off_c, 1, 67, 63
3, 2518, Note_off_c, 1, 60, 67
3, 2521, Note_on_c, 1, 64, 77
3, 2639, Note_on_c, 1, 55, 79
3, 2640, Note_off_c, 1, 64, 66
3, 2641, Note_on_c, 1, 52, 81
3, 2758, Note_on_c, 1, 60, 78
3, 2759, Note_off_c, 1, 55, 64
3, 2760, Note_off_c, 1, 52, 64
3, 2876, Note_off_c, 1, 60, 63
3, 2879, Note_on_c, 1, 53, 80
3, 3001, Note_on_c, 1, 57, 79
3, 3121, Note_on_c, 1, 62, 81
3, 3122, Note_off_c, 1, 57, 62
3, 3240, Note_off_c, 1, 62, 63
3, 3241, Note_on_c, 1, 65, 77
3, 3357, Note_off_c, 1, 53, 64
3, 3359, Note_on_c, 1, 55, 77
3, 3363, Note_off_c, 1, 65, 63
3, 3479, Note_on_c, 1, 64, 83
3, 3600, Note_on_c, 1, 62, 77
3, 3601, Note_off_c, 1, 64, 63
3, 3717, Note_off_c, 1, 55, 63
3, 3722, Note_off_c, 1, 62, 62
3, 3840, Note_on_c, 1, 60, 81
3, 3842, Note_on_c, 1, 64, 81
3, 3958, Note_on_c, 1, 67, 79
3, 3960, Note_off_c, 1, 64, 64
3, 3962, Note_off_c, 1, 60, 67
3, 4078, Note_off_c, 1, 67, 67
3, 4078, Note_on_c, 1, 60, 83
3, 4081, Note_on_c, 1, 64, 80
3, 4196, Note_off_c, 1, 60, 64
3, 4200, Note_off_c, 1, 64, 61
3, 4201, Note_on_c, 1, 67, 82
3, 4318, Note_on_c, 1, 65, 83
3, 4320, Note_off_c, 1, 67, 64
3, 4321, Note_on_c, 1, 62, 82
3, 4437, Note_off_c, 1, 65, 65
3, 4438, Note_on_c, 1, 67, 83
3, 4440, Note_off_c, 1, 62, 66
3, 4560, Note_off_c, 1, 67, 61
3, 4561, Note_on_c, 1, 62, 77
3, 4561, Note_on_c, 1, 65, 81
3, 4679, Note_on_c, 1, 67, 78
3, 4680, Note_off_c, 1, 62, 61
3, 4683, Note_off_c, 1, 65, 67
3, 4799, Note_off_c, 1, 67, 62
3, 4799, Note_on_c, 1, 60, 82
3, 4801, Note_on_c, 1, 64, 80
3, 4919, Note_off_c, 1, 60, 65
3, 4921, Note_on_c, 1, 67, 77
3, 4923, Note_off_c, 1, 64, 67
3, 5038, Note_on_c, 1, 64, 79
3, 5039, Note_off_c, 1, 67, 67
3, 5040, Note_on_c, 1, 60, 77
3, 5158, Note_off_c, 1, 60, 62
3, 5158, Note_off_c, 1, 64, 62
3, 5161, Note_on_c, 1, 67, 83
3, 5279, Note_off_c, 1, 67, 62
3, 5279, Note_on_c, 1, 59, 82
3, 5280, Note_on_c, 1, 62, 81
3, 5399, Note_on_c, 1, 67, 83
3, 5400, Note_off_c, 1, 59, 67
3, 5401, Note_off_c, 1, 62, 67
3, 5517, Note_off_c, 1, 67, 62
3, 5519, Note_on_c, 1, 59, 80
3, 5521, Note_on_c, 1, 62, 80
3, 5640, Note_off_c, 1, 59, 61
3, 5641, Note_on_c, 1, 67, 81
3, 5643, Note_off_c, 1, 62, 67
3, 5759, Note_on_c, 1, 60, 82
3, 5760, Note_on_c, 1, 57, 80
3, 5761, Note_off_c, 1, 67, 63
3, 5878, Note_off_c, 1, 57, 67
3, 5880, Note_off_c, 1, 60, 65
3, 5882, Note_on_c, 1, 65, 82
3, 5999, Note_on_c, 1, 59, 80
3, 6000, Note_off_c, 1, 65, 61
3, 6001, Note_on_c, 1, 62, 80
3, 6117, Note_off_c, 1, 59, 63
3, 6121, Note_on_c, 1, 67, 79
3, 6123, Note_off_c, 1, 62, 67
3, 6241, Note_on_c, 1, 64, 81
3, 6241, Note_on_c, 1, 60, 78
3, 6242, Note_off_c, 1, 67, 63
3, 6358, Note_on_c, 1, 67, 83
3, 6360, Note_off_c, 1, 64, 66
3, 6363, Note_off_c, 1, 60, 61
3, 6478, Note_on_c, 1, 53, 79
3, 6479, Note_off_c, 1, 67, 65
3, 6597, Note_off_c, 1, 53, 67
3, 6602, Note_on_c, 1, 65, 79
3, 6718, Note_on_c, 1, 55, 83
3, 6722, Note_off_c, 1, 65, 63
3, 6837, Note_off_c, 1, 55, 62
3, 6841, Note_on_c, 1, 64, 82
3, 6958, Note_on_c, 1, 55, 83
3, 6959, Note_off_c, 1, 64, 61
3, 7079, Note_off_c, 1, 55, 66
3, 7079, Note_on_c, 1, 65, 77
3, 7200, Note_off_c, 1, 65, 65
3, 7201, Note_on_c, 1, 48, 81
3, 7321, Note_on_c, 1, 55, 77
3, 7322, Note_off_c, 1, 48, 67
3, 7439, Note_off_c, 1, 55, 67
3, 7440, Note_on_c, 1, 55, 78
3, 7559, Note_off_c, 1, 55, 67
3, 7560, Note_on_c, 1, 55, 83
3, 7678, Note_on_c, 1, 60, 81
3, 7680, Note_on_c, 1, 52, 79
3, 7682, Note_off_c, 1, 55, 61
3, 7798, Note_off_c, 1, 52, 64
3, 7799, Note_on_c, 1, 55, 83
3, 7919, Note_off_c, 1, 55, 67
3, 7921, Note_on_c, 1, 55, 80
3, 8039, Note_on_c, 1, 55, 77
3, 8042, Note_off_c, 1, 55, 63
3, 8158, Note_off_c, 1, 60, 61
3, 8158, Note_on_c, 1, 50, 77
3, 8160, Note_off_c, 1, 55, 67
3, 8161, Note_on_c, 1, 59, 82
3, 8278, Note_on_c, 1, 55, 78
3, 8280, Note_off_c, 1, 50, 66
3, 8396, Note_off_c, 1, 55, 62
3, 8402, Note_on_c, 1, 55, 77
3, 8519, Note_off_c, 1, 55, 64
3, 8521, Note_on_c, 1, 55, 82
3, 8638, Note_on_c, 1, 62, 77
3, 8639, Note_off_c, 1, 59, 67
3, 8640, Note_on_c, 1, 53, 82
3, 8643, Note_off_c, 1, 55, 65
3, 8759, Note_on_c, 1, 55, 82
3, 8760, Note_off_c, 1, 53, 67
3, 8877, Note_off_c, 1, 55, 65
3, 8880, Note_on_c, 1, 55, 78
3, 8999, Note_off_c, 1, 55, 61
3, 9001, Note_on_c, 1, 55, 79
3, 9120, Note_off_c, 1, 62, 65
3, 9121, Note_on_c, 1, 52, 81
3, 9122, Note_off_c, 1, 55, 66
3, 9122, Note_on_c, 1, 60, 77
3, 9239, Note_off_c, 1, 52, 63
3, 9239, Note_on_c, 1, 55, 77
3, 9359, Note_off_c, 1, 55, 65
3, 9361, Note_on_c, 1, 55, 83
3, 9480, Note_off_c, 1, 55, 67
3, 9481, Note_on_c, 1, 55, 77
3, 9598, Note_on_c, 1, 52, 82
3, 9599, Note_off_c, 1, 55, 61
3, 9601, Note_on_c, 1, 48, 77
3, 9604, Note_off_c, 1, 60, 61
3, 9717, Note_off_c, 1, 52, 63
3, 9721, Note_on_c, 1, 55, 79
3, 9795, Note_off_c, 1, 55, 65
3, 9841, Note_on_c, 1, 55, 81
3, 9914, Note_off_c, 1, 55, 66
3, 9961, Note_on_c, 1, 55, 79
3, 10033, Note_off_c, 1, 55, 61
3, 10081, Note_on_c, 1, 53, 83
3, 10082, Note_off_c, 1, 48, 65
3, 10082, Note_on_c, 1, 50, 82
3, 10199, Note_on_c, 1, 55, 78
3, 10201, Note_off_c, 1, 53, 66
3, 10271, Note_off_c, 1, 55, 63
3, 10322, Note_on_c, 1, 55, 80
3, 10392, Note_off_c, 1, 55, 63
3, 10441, Note_on_c, 1, 55, 77
3, 10515, Note_off_c, 1, 55, 65
3, 10558, Note_on_c, 1, 47, 80
3, 10561, Note_on_c, 1, 53, 81
3, 10564, Note_off_c, 1, 50, 66
3, 10680, Note_on_c, 1, 55, 78
3, 10682, Note_off_c, 1, 53, 66
3, 10754, Note_off_c, 1, 55, 66
3, 10798, Note_on_c, 1, 55, 78
3, 10868, Note_off_c, 1, 55, 62
3, 10920, Note_on_c, 1, 55, 82
3, 10994, Note_off_c, 1, 55, 67
3, 11038, Note_on_c, 1, 52, 82
3, 11039, Note_off_c, 1, 47, 62
3, 11040, Note_on_c, 1, 48, 83
3, 11280, Note_off_c, 1, 52, 61
3, 11281, Note_off_c, 1, 48, 64
3, 12479, Note_on_c, 1, 60, 78
3, 12482, Note_on_c, 1, 64, 78
3, 12597, Note_off_c, 1, 60, 61
3, 12599, Note_on_c, 1, 67, 81
3, 12602, Note_off_c, 1, 64, 63
3, 12719, Note_on_c, 1, 60, 79
3, 12720, Note_off_c, 1, 67, 62
3, 12722, Note_on_c, 1, 64, 82
3, 12839, Note_off_c, 1, 60, 64
3, 12840, Note_on_c, 1, 67, 81
3, 12842, Note_off_c, 1, 64, 61
3, 12960, Note_off_c, 1, 67, 61
3, 12960, Note_on_c, 1, 65, 78
3, 12961, Note_on_c, 1, 62, 78
3, 13080, Note_off_c, 1, 62, 64
3, 13081, Note_off_c, 1, 65, 65
3, 13082, Note_on_c, 1, 67, 78
3, 13198, Note_on_c, 1, 65, 82
3, 13202, Note_on_c, 1, 62, 80
3, 13204, Note_off_c, 1, 67, 64
3, 13319, Note_off_c, 1, 65, 67
3, 13319, Note_on_c, 1, 67, 82
3, 13321, Note_off_c, 1, 62, 67
3, 13441, Note_off_c, 1, 67, 62
3, 13441, Note_on_c, 1, 64, 77
3, 13441, Note_on_c, 1, 60, 78
3, 13561, Note_on_c, 1, 67, 83
3, 13563, Note_off_c, 1, 60, 61
3, 13563, Note_off_c, 1, 64, 67
3, 13678, Note_on_c, 1, 60, 77
3, 13680, Note_on_c, 1, 64, 83
3, 13683, Note_off_c, 1, 67, 63
3, 13799, Note_off_c, 1, 64, 62
3, 13799, Note_off_c, 1, 60, 63
3, 13801, Note_on_c, 1, 67, 83
3, 13919, Note_on_c, 1, 62, 83
3, 13921, Note_off_c, 1, 67, 61
3, 13922, Note_on_c, 1, 59, 81
3, 14041, Note_off_c, 1, 62, 67
3, 14042, Note_on_c, 1, 67, 80
3, 14043, Note_off_c, 1, 59, 63
3, 14159, Note_on_c, 1, 59, 82
3, 14159, Note_on_c, 1, 62, 81
3, 14161, Note_off_c, 1, 67, 63
3, 14278, Note_on_c, 1, 67, 80
3, 14280, Note_off_c, 1, 62, 66
3, 14280, Note_off_c, 1, 59, 64
3, 14396, Note_off_c, 1, 67, 64
3, 14399, Note_on_c, 1, 60, 79
3, 14399, Note_on_c, 1, 57, 78
3, 14518, Note_off_c, 1, 57, 65
3, 14518, Note_on_c, 1, 65, 80
3, 14521, Note_off_c, 1, 60, 64
3, 14637, Note_off_c, 1, 65, 67
3, 14640, Note_on_c, 1, 62, 82
3, 14641, Note_on_c, 1, 59, 80
3, 14758, Note_off_c, 1, 62, 62
3, 14758, Note_on_c, 1, 67, 79
3, 14761, Note_off_c, 1, 59, 67
3, 14879, Note_on_c, 1, 60, 80
3, 14880, Note_off_c, 1, 67, 63
3, 14882, Note_on_c, 1, 64, 83
3, 14998, Note_off_c, 1, 60, 66
3, 15000, Note_on_c, 1, 67, 82
3, 15002, Note_off_c, 1, 64, 62
3, 15120, Note_off_c, 1, 67, 65
3, 15122, Note_on_c, 1, 53, 83
3, 15242, Note_on_c, 1, 65, 81
3, 15244, Note_off_c, 1, 53, 65
3, 15359, Note_on_c, 1, 55, 82
3, 15363, Note_off_c, 1, 65, 64
3, 15479, Note_off_c, 1, 55, 64
3, 15480, Note_on_c, 1, 64, 82
3, 15598, Note_on_c, 1, 55, 80
3, 15601, Note_off_c, 1, 64, 66
3, 15718, Note_off_c, 1, 55, 66
3, 15722, Note_on_c, 1, 65, 81
3, 15844, Note_off_c, 1, 65, 65
3, 15900, Note_on_c, 1, 48, 79
3, 15961, Note_on_c, 1, 52, 78
3, 15962, Note_off_c, 1, 48, 59
3, 16020, Note_on_c, 1, 55, 82
3, 16021, Note_off_c, 1, 52, 53
3, 16078, Note_off_c, 1, 55, 57
3, 16082, Note_on_c, 1, 60, 83
3, 16139, Note_on_c, 1, 55, 81
3, 16142, Note_off_c, 1, 60, 58
3, 16200, Note_off_c, 1, 55, 53
3, 16200, Note_on_c, 1, 52, 77
3, 16258, Note_on_c, 1, 55, 80
3, 16262, Note_off_c, 1, 52, 54
3, 16316, Note_off_c, 1, 55, 55
3, 16320, Note_on_c, 1, 48, 81
3, 16559, Note_off_c, 1, 48, 64
3, 16861, Note_on_c, 1, 45, 79
3, 16919, Note_on_c, 1, 48, 78
3, 16923, Note_off_c, 1, 45, 54
3, 16978, Note_off_c, 1, 48, 59
3, 16979, Note_on_c, 1, 54, 82
3, 17037, Note_off_c, 1, 54, 59
3, 17038, Note_on_c, 1, 57, 77
3, 17098, Note_off_c, 1, 57, 57
3, 17098, Note_on_c, 1, 54, 82
3, 17157, Note_off_c, 1, 54, 57
3, 17159, Note_on_c, 1, 48, 78
3, 17218, Note_off_c, 1, 48, 55
3, 17222, Note_on_c, 1, 54, 77
3, 17282, Note_on_c, 1, 45, 80
3, 17283, Note_off_c, 1, 54, 55
3, 17523, Note_off_c, 1, 45, 65
3, 17819, Note_on_c, 1, 43, 79
3, 17879, Note_off_c, 1, 43, 58
3, 17880, Note_on_c, 1, 47, 80
3, 17938, Note_off_c, 1, 47, 53
3, 17942, Note_on_c, 1, 50, 83
3, 18002, Note_on_c, 1, 55, 82
3, 18003, Note_off_c, 1, 50, 54
3, 18059, Note_on_c, 1, 50, 78
3, 18060, Note_off_c, 1, 55, 59
3, 18119, Note_off_c, 1, 50, 55
3, 18121, Note_on_c, 1, 47, 82
3, 18180, Note_on_c, 1, 50, 79
3, 18182, Note_off_c, 1, 47, 59
3, 18238, Note_off_c, 1, 50, 58
3, 18239, Note_on_c, 1, 43, 78
3, 18478, Note_off_c, 1, 43, 63
3, 18781, Note_on_c, 1, 52, 82
3, 18840, Note_on_c, 1, 55, 82
3, 18843, Note_off_c, 1, 52, 59
3, 18899, Note_on_c, 1, 61, 79
3, 18901, Note_off_c, 1, 55, 53
3, 18958, Note_off_c, 1, 61, 59
3, 18962, Note_on_c, 1, 64, 77
3, 19020, Note_on_c, 1, 61, 82
3, 19022, Note_off_c, 1, 64, 58
3, 19079, Note_off_c, 1, 61, 53
3, 19081, Note_on_c, 1, 55, 78
3, 19139, Note_on_c, 1, 61, 83
3, 19140, Note_off_c, 1, 55, 53
3, 19198, Note_on_c, 1, 52, 81
3, 19200, Note_off_c, 1, 61, 55
3, 19437, Note_off_c, 1, 52, 64
3, 19679, Note_on_c, 1, 50, 83
3, 19798, Note_on_c, 1, 57, 83
3, 19799, Note_off_c, 1, 50, 66
3, 19920, Note_off_c, 1, 57, 63
3, 19922, Note_on_c, 1, 54, 81
3, 20039, Note_on_c, 1, 57, 77
3, 20042, Note_off_c, 1, 54, 66
3, 20160, Note_off_c, 1, 57, 62
3, 20162, Note_on_c, 1, 52, 81
3, 20281, Note_on_c, 1, 57, 81
3, 20284, Note_off_c, 1, 52, 64
3, 20400, Note_off_c, 1, 57, 63
3, 20402, Note_on_c, 1, 45, 78
3, 20521, Note_off_c, 1, 45, 61
3, 20521, Note_on_c, 1, 57, 82
3, 20640, Note_off_c, 1, 57, 63
3, 20641, Note_on_c, 1, 50, 77
3, 20759, Note_off_c, 1, 50, 67
3, 20759, Note_on_c, 1, 57, 78
3, 20877, Note_off_c, 1, 57, 65
3, 20881, Note_on_c, 1, 54, 80
3, 21000, Note_off_c, 1, 54, 64
3, 21001, Note_on_c, 1, 57, 82
3, 21118, Note_on_c, 1, 52, 81
3, 21122, Note_off_c, 1, 57, 62
3, 21236, Note_off_c, 1, 52, 63
3, 21239, Note_on_c, 1, 57, 77
3, 21357, Note_off_c, 1, 57, 65
3, 21358, Note_on_c, 1, 45, 78
3, 21476, Note_off_c, 1, 45, 67
3, 21478, Note_on_c, 1, 57, 79
3, 21599, Note_off_c, 1, 57, 65
3, 21599, Note_on_c, 1, 50, 79
3, 21718, Note_off_c, 1, 50, 62
3, 21722, Note_on_c, 1, 57, 80
3, 21841, Note_off_c, 1, 57, 61
3, 21841, Note_on_c, 1, 54, 83
3, 21958, Note_on_c, 1, 57, 81
3, 21963, Note_off_c, 1, 54, 67
3, 22078, Note_off_c, 1, 57, 62
3, 22081, Note_on_c, 1, 52, 80
3, 22199, Note_off_c, 1, 52, 62
3, 22199, Note_on_c, 1, 57, 83
3, 22317, Note_off_c, 1, 57, 64
3, 22320, Note_on_c, 1, 55, 77
3, 22322, Note_on_c, 1, 45, 78
3, 22439, Note_off_c, 1, 55, 64
3, 22439, Note_on_c, 1, 57, 82
3, 22443, Note_off_c, 1, 45, 63
3, 22558, Note_on_c, 1, 50, 78
3, 22561, Note_off_c, 1, 57, 65
3, 22561, Note_on_c, 1, 54, 79
3, 22796, Note_off_c, 1, 50, 63
3, 22803, Note_off_c, 1, 54, 66
3, 23521, Note_on_c, 1, 62, 78
3, 23521, Note_on_c, 1, 66, 79
3, 23593, Note_off_c, 1, 62, 65
3, 23594, Note_off_c, 1, 66, 61
3, 23642, Note_on_c, 1, 64, 80
3, 23642, Note_on_c, 1, 67, 77
3, 23712, Note_off_c, 1, 67, 63
3, 23716, Note_off_c, 1, 64, 62
3, 23759, Note_on_c, 1, 69, 82
3, 23762, Note_on_c, 1, 66, 83
3, 23832, Note_off_c, 1, 69, 63
3, 23833, Note_off_c, 1, 66, 62
3, 23879, Note_on_c, 1, 67, 79
3, 23880, Note_on_c, 1, 64, 82
3, 23950, Note_off_c, 1, 64, 63
3, 23951, Note_off_c, 1, 67, 64
3, 24000, Note_on_c, 1, 66, 79
3, 24002, Note_on_c, 1, 69, 83
3, 24072, Note_off_c, 1, 66, 66
3, 24076, Note_off_c, 1, 69, 66
3, 24119, Note_on_c, 1, 64, 77
3, 24122, Note_on_c, 1, 67, 79
3, 24193, Note_off_c, 1, 64, 65
3, 24194, Note_off_c, 1, 67, 65
3, 24240, Note_on_c, 1, 66, 78
3, 24241, Note_on_c, 1, 69, 79
3, 24311, Note_off_c, 1, 66, 66
3, 24315, Note_off_c, 1, 69, 61
3, 24360, Note_on_c, 1, 66, 77
3, 24362, Note_on_c, 1, 62, 80
3, 24430, Note_off_c, 1, 66, 64
3, 24433, Note_off_c, 1, 62, 63
3, 24481, Note_on_c, 1, 67, 82
3, 24481, Note_on_c, 1, 71, 79
3, 24671, Note_off_c, 1, 67, 62
3, 24672, Note_off_c, 1, 71, 63
3, 24718, Note_on_c, 1, 67, 78
3, 24722, Note_on_c, 1, 71, 82
3, 24908, Note_off_c, 1, 67, 65
3, 24914, Note_off_c, 1, 71, 62
3, 25442, Note_on_c, 1, 66, 77
3, 25442, Note_on_c, 1, 69, 82
3, 25512, Note_off_c, 1, 69, 63
3, 25515, Note_off_c, 1, 66, 65
3, 25559, Note_on_c, 1, 67, 80
3, 25559, Note_on_c, 1, 64, 77
3, 25629, Note_off_c, 1, 64, 62
3, 25631, Note_off_c, 1, 67, 61
3, 25679, Note_on_c, 1, 62, 81
3, 25680, Note_on_c, 1, 66, 79
3, 25751, Note_off_c, 1, 66, 61
3, 25752, Note_off_c, 1, 62, 67
3, 25798, Note_on_c, 1, 67, 77
3, 25802, Note_on_c, 1, 64, 79
3, 25870, Note_off_c, 1, 67, 62
3, 25872, Note_off_c, 1, 64, 67
3, 25919, Note_on_c, 1, 66, 80
3, 25922, Note_on_c, 1, 69, 81
3, 25992, Note_off_c, 1, 66, 61
3, 25996, Note_off_c, 1, 69, 65
3, 26039, Note_on_c, 1, 64, 77
3, 26040, Note_on_c, 1, 67, 79
3, 26112, Note_off_c, 1, 67, 61
3, 26113, Note_off_c, 1, 64, 66
3, 26159, Note_on_c, 1, 69, 80
3, 26162, Note_on_c, 1, 66, 80
3, 26232, Note_off_c, 1, 69, 62
3, 26236, Note_off_c, 1, 66, 67
3, 26278, Note_on_c, 1, 66, 81
3, 26282, Note_on_c, 1, 62, 78
3, 26348, Note_off_c, 1, 66, 67
3, 26356, Note_off_c, 1, 62, 61
3, 26398, Note_on_c, 1, 67, 78
3, 26401, Note_on_c, 1, 71, 78
3, 26591, Note_off_c, 1, 71, 64
3, 26591, Note_off_c, 1, 67, 64
3, 26640, Note_on_c, 1, 67, 81
3, 26642, Note_on_c, 1, 71, 83
3, 26831, Note_off_c, 1, 67, 63
3, 26832, Note_off_c, 1, 71, 64
3, 27360, Note_on_c, 1, 68, 83
3, 27362, Note_on_c, 1, 71, 78
3, 27433, Note_off_c, 1, 71, 64
3, 27434, Note_off_c, 1, 68, 67
3, 27478, Note_on_c, 1, 69, 79
3, 27481, Note_on_c, 1, 66, 78
3, 27548, Note_off_c, 1, 69, 63
3, 27554, Note_off_c, 1, 66, 63
3, 27600, Note_on_c, 1, 68, 83
3, 27600, Note_on_c, 1, 64, 82
3, 27671, Note_off_c, 1, 64, 63
3, 27671, Note_off_c, 1, 68, 67
3, 27718, Note_on_c, 1, 66, 79
3, 27722, Note_on_c, 1, 69, 77
3, 27788, Note_off_c, 1, 66, 63
3, 27793, Note_off_c, 1, 69, 65
3, 27839, Note_on_c, 1, 71, 80
3, 27840, Note_on_c, 1, 68, 82
3, 27912, Note_off_c, 1, 68, 61
3, 27913, Note_off_c, 1, 71, 62
3, 27959, Note_on_c, 1, 66, 77
3, 27961, Note_on_c, 1, 69, 78
3, 28033, Note_off_c, 1, 66, 67
3, 28034, Note_off_c, 1, 69, 64
3, 28079, Note_on_c, 1, 68, 81
3, 28081, Note_on_c, 1, 71, 82
3, 28150, Note_off_c, 1, 68, 64
3, 28151, Note_off_c, 1, 71, 61
3, 28201, Note_on_c, 1, 68, 79
3, 28201, Note_on_c, 1, 64, 81
3, 28271, Note_off_c, 1, 64, 64
3, 28272, Note_off_c, 1, 68, 63
3, 28320, Note_on_c, 1, 69, 77
3, 28321, Note_on_c, 1, 72, 82
3, 28510, Note_off_c, 1, 69, 63
3, 28515, Note_off_c, 1, 72, 63
3, 28558, Note_on_c, 1, 69, 82
3, 28560, Note_on_c, 1, 72, 77
3, 28750, Note_off_c, 1, 72, 63
3, 28750, Note_off_c, 1, 69, 64
3, 29040, Note_on_c, 1, 66, 83
3, 29280, Note_off_c, 1, 66, 65
3, 29282, Note_on_c, 1, 67, 78
3, 29519, Note_on_c, 1, 64, 82
3, 29524, Note_off_c, 1, 67, 64
3, 29761, Note_off_c, 1, 64, 63
3, 29761, Note_on_c, 1, 60, 78
3, 30002, Note_off_c, 1, 60, 63
3, 30002, Note_on_c, 1, 62, 83
3, 30238, Note_on_c, 1, 59, 82
3, 30240, Note_off_c, 1, 62, 63
3, 30476, Note_off_c, 1, 59, 66
3, 30478, Note_on_c, 1, 56, 78
3, 30716, Note_off_c, 1, 56, 63
3, 30722, Note_on_c, 1, 57, 83
3, 30960, Note_on_c, 1, 54, 78
3, 30962, Note_off_c, 1, 57, 67
3, 31198, Note_on_c, 1, 55, 83
3, 31199, Note_off_c, 1, 54, 67
3, 31437, Note_off_c, 1, 55, 62
3, 31441, Note_on_c, 1, 52, 82
3, 31679, Note_on_c, 1, 48, 82
3, 31683, Note_off_c, 1, 52, 61
3, 31917, Note_off_c, 1, 48, 62
3, 31918, Note_on_c, 1, 50, 80
3, 32158, Note_off_c, 1, 50, 62
3, 32161, Note_on_c, 1, 43, 78
3, 32279, Note_off_c, 1, 43, 65
3, 32279, Note_on_c, 1, 47, 83
3, 32398, Note_off_c, 1, 47, 67
3, 32399, Note_on_c, 1, 50, 79
3, 32520, Note_on_c, 1, 48, 82
3, 32521, Note_off_c, 1, 50, 66
3, 32639, Note_on_c, 1, 47, 82
3, 32642, Note_off_c, 1, 48, 61
3, 32757, Note_off_c, 1, 47, 64
3, 32761, Note_on_c, 1, 45, 79
3, 32879, Note_off_c, 1, 45, 63
3, 32880, Note_on_c, 1, 47, 81
3, 32999, Note_off_c, 1, 47, 65
3, 32999, Note_on_c, 1, 43, 82
3, 33117, Note_off_c, 1, 43, 61
3, 33118, Note_on_c, 1, 48, 82
3, 33237, Note_off_c, 1, 48, 66
3, 33242, Note_on_c, 1, 43, 81
3, 33360, Note_on_c, 1, 48, 82
3, 33363, Note_off_c, 1, 43, 62
3, 33479, Note_on_c, 1, 43, 80
3, 33482, Note_off_c, 1, 48, 64
3, 33600, Note_off_c, 1, 43, 61
3, 33602, Note_on_c, 1, 48, 78
3, 33720, Note_off_c, 1, 48, 67
3, 33720, Note_on_c, 1, 43, 79
3, 33840, Note_off_c, 1, 43, 63
3, 33840, Note_on_c, 1, 48, 81
3, 33960, Note_off_c, 1, 48, 61
3, 33960, Note_on_c, 1, 43, 83
3, 34079, Note_off_c, 1, 43, 67
3, 34079, Note_on_c, 1, 47, 80
3, 34199, Note_off_c, 1, 47, 65
3, 34200, Note_on_c, 1, 43, 79
3, 34320, Note_on_c, 1, 50, 81
3, 34321, Note_off_c, 1, 43, 62
3, 34440, Note_off_c, 1, 50, 66
3, 34441, Note_on_c, 1, 48, 81
3, 34559, Note_on_c, 1, 47, 81
3, 34560, Note_off_c, 1, 48, 61
3, 34678, Note_off_c, 1, 47, 65
3, 34680, Note_on_c, 1, 45, 77
3, 34800, Note_on_c, 1, 47, 77
3, 34802, Note_off_c, 1, 45, 64
3, 34918, Note_off_c, 1, 47, 61
3, 34921, Note_on_c, 1, 43, 82
3, 35040, Note_off_c, 1, 43, 66
3, 35042, Note_on_c, 1, 48, 78
3, 35162, Note_on_c, 1, 43, 83
3, 35163, Note_off_c, 1, 48, 64
3, 35278, Note_on_c, 1, 48, 81
3, 35284, Note_off_c, 1, 43, 65
3, 35398, Note_off_c, 1, 48, 67
3, 35400, Note_on_c, 1, 43, 81
3, 35519, Note_off_c, 1, 43, 65
3, 35520, Note_on_c, 1, 48, 83
3, 35639, Note_off_c, 1, 48, 65
3, 35640, Note_on_c, 1, 43, 78
3, 35758, Note_off_c, 1, 43, 63
3, 35760, Note_on_c, 1, 48, 79
3, 35881, Note_off_c, 1, 48, 62
3, 35882, Note_on_c, 1, 43, 81
3, 35998, Note_on_c, 1, 47, 79
3, 36003, Note_off_c, 1, 43, 63
3, 36120, Note_off_c, 1, 47, 64
3, 36120, Note_on_c, 1, 43, 78
3, 36238, Note_on_c, 1, 47, 83
3, 36242, Note_off_c, 1, 43, 64
3, 36357, Note_off_c, 1, 47, 64
3, 36360, Note_on_c, 1, 43, 78
3, 36479, Note_off_c, 1, 43, 62
3, 36482, Note_on_c, 1, 48, 77
3, 36600, Note_on_c, 1, 43, 77
3, 36604, Note_off_c, 1, 48, 64
3, 36718, Note_off_c, 1, 43, 62
3, 36722, Note_on_c, 1, 48, 79
3, 36842, Note_on_c, 1, 43, 78
3, 36843, Note_off_c, 1, 48, 65
3, 36959, Note_on_c, 1, 50, 83
3, 36964, Note_off_c, 1, 43, 63
3, 37079, Note_off_c, 1, 50, 66
3, 37082, Note_on_c, 1, 43, 78
3, 37198, Note_on_c, 1, 50, 78
3, 37200, Note_off_c, 1, 43, 63
3, 37319, Note_on_c, 1, 43, 78
3, 37320, Note_off_c, 1, 50, 65
3, 37437, Note_off_c, 1, 43, 63
3, 37438, Note_on_c, 1, 52, 80
3, 37557, Note_off_c, 1, 52, 65
3, 37558, Note_on_c, 1, 43, 79
3, 37677, Note_off_c, 1, 43, 61
3, 37680, Note_on_c, 1, 52, 78
3, 37798, Note_off_c, 1, 52, 66
3, 37799, Note_on_c, 1, 43, 79
3, 37918, Note_off_c, 1, 43, 64
3, 37921, Note_on_c, 1, 53, 82
3, 38038, Note_on_c, 1, 43, 80
3, 38041, Note_off_c, 1, 53, 66
3, 38160, Note_off_c, 1, 43, 64
3, 38162, Note_on_c, 1, 54, 83
3, 38280, Note_on_c, 1, 43, 77
3, 38283, Note_off_c, 1, 54, 64
3, 38400, Note_off_c, 1, 43, 63
3, 38401, Note_on_c, 1, 55, 82
3, 38519, Note_off_c, 1, 55, 67
3, 38522, Note_on_c, 1, 43, 83
3, 38638, Note_on_c, 1, 56, 83
3, 38642, Note_off_c, 1, 43, 65
3, 38759, Note_on_c, 1, 43, 78
3, 38760, Note_off_c, 1, 56, 64
3, 38878, Note_on_c, 1, 55, 79
3, 38880, Note_off_c, 1, 43, 63
3, 38996, Note_off_c, 1, 55, 62
3, 39001, Note_on_c, 1, 43, 82
3, 39121, Note_on_c, 1, 54, 78
3, 39122, Note_off_c, 1, 43, 62
3, 39241, Note_on_c, 1, 43, 78
3, 39243, Note_off_c, 1, 54, 63
3, 39359, Note_on_c, 1, 55, 77
3, 39363, Note_off_c, 1, 43, 62
3, 39481, Note_off_c, 1, 55, 65
3, 39481, Note_on_c, 1, 43, 81
3, 39601, Note_off_c, 1, 43, 63
3, 39601, Note_on_c, 1, 56, 82
3, 39721, Note_off_c, 1, 56, 67
3, 39722, Note_on_c, 1, 43, 79
3, 39840, Note_off_c, 1, 43, 67
3, 39840, Note_on_c, 1, 55, 77
3, 39959, Note_off_c, 1, 55, 67
3, 39960, Note_on_c, 1, 43, 78
3, 40081, Note_off_c, 1, 43, 62
3, 40082, Note_on_c, 1, 54, 79
3, 40200, Note_off_c, 1, 54, 61
3, 40202, Note_on_c, 1, 43, 80
3, 40321, Note_on_c, 1, 55, 80
3, 40322, Note_off_c, 1, 43, 62
3, 40439, Note_off_c, 1, 55, 62
3, 40442, Note_on_c, 1, 43, 77
3, 40559, Note_on_c, 1, 57, 83
3, 40561, Note_off_c, 1, 43, 63
3, 40678, Note_off_c, 1, 57, 61
3, 40678, Note_on_c, 1, 43, 79
3, 40797, Note_off_c, 1, 43, 61
3, 40802, Note_on_c, 1, 55, 83
3, 40918, Note_on_c, 1, 43, 77
3, 40923, Note_off_c, 1, 55, 67
3, 41037, Note_off_c, 1, 43, 61
3, 41041, Note_on_c, 1, 53, 81
3, 41158, Note_on_c, 1, 43, 78
3, 41163, Note_off_c, 1, 53, 63
3, 41278, Note_off_c, 1, 43, 64
3, 41279, Note_on_c, 1, 52, 83
3, 41280, Note_on_c, 1, 48, 80
3, 41398, Note_off_c, 1, 52, 65
3, 41398, Note_on_c, 1, 55, 78
3, 41400, Note_off_c, 1, 48, 64
3, 41518, Note_off_c, 1, 55, 67
3, 41521, Note_on_c, 1, 64, 79
3, 41640, Note_on_c, 1, 67, 83
3, 41643, Note_off_c, 1, 64, 66
3, 41758, Note_on_c, 1, 65, 81
3, 41760, Note_on_c, 1, 62, 79
3, 41761, Note_off_c, 1, 67, 65
3, 41878, Note_off_c, 1, 62, 63
3, 41878, Note_off_c, 1, 65, 67
3, 41881, Note_on_c, 1, 67, 82
3, 41998, Note_on_c, 1, 65, 82
3, 42000, Note_on_c, 1, 62, 78
3, 42003, Note_off_c, 1, 67, 66
3, 42117, Note_off_c, 1, 65, 63
3, 42119, Note_off_c, 1, 62, 61
3, 42119, Note_on_c, 1, 67, 81
3, 42238, Note_off_c, 1, 67, 61
3, 42241, Note_on_c, 1, 64, 79
3, 42242, Note_on_c, 1, 60, 80
3, 42360, Note_off_c, 1, 64, 64
3, 42360, Note_on_c, 1, 67, 77
3, 42364, Note_off_c, 1, 60, 67
3, 42478, Note_on_c, 1, 60, 79
3, 42479, Note_on_c, 1, 64, 80
3, 42481, Note_off_c, 1, 67, 61
3, 42598, Note_off_c, 1, 64, 62
3, 42598, Note_off_c, 1, 60, 65
3, 42598, Note_on_c, 1, 67, 80
3, 42718, Note_off_c, 1, 67, 63
3, 42722, Note_on_c, 1, 62, 79
3, 42722, Note_on_c, 1, 59, 77
3, 42838, Note_on_c, 1, 67, 79
3, 42840, Note_off_c, 1, 59, 65
3, 42842, Note_off_c, 1, 62, 61
3, 42958, Note_off_c, 1, 67, 66
3, 42960, Note_on_c, 1, 62, 79
3, 42961, Note_on_c, 1, 59, 79
3, 43078, Note_off_c, 1, 62, 63
3, 43081, Note_on_c, 1, 67, 83
3, 43082, Note_off_c, 1, 59, 63
3, 43198, Note_on_c, 1, 57, 78
3, 43200, Note_on_c, 1, 60, 81
3, 43202, Note_off_c, 1, 67, 66
3, 43318, Note_off_c, 1, 60, 63
3, 43318, Note_off_c, 1, 57, 64
3, 43320, Note_on_c, 1, 65, 78
3, 43438, Note_on_c, 1, 59, 83
3, 43440, Note_off_c, 1, 65, 67
3, 43440, Note_on_c, 1, 62, 82
3, 43556, Note_off_c, 1, 59, 65
3, 43561, Note_on_c, 1, 67, 81
3, 43562, Note_off_c, 1, 62, 67
3, 43680, Note_off_c, 1, 67, 67
3, 43682, Note_on_c, 1, 60, 78
3, 43801, Note_on_c, 1, 64, 82
3, 43803, Note_off_c, 1, 60, 67
3, 43920, Note_off_c, 1, 64, 64
3, 43920, Note_on_c, 1, 55, 77
3, 43921, Note_on_c, 1, 52, 80
3, 44038, Note_off_c, 1, 55, 66
3, 44038, Note_on_c, 1, 60, 78
3, 44039, Note_off_c, 1, 52, 67
3, 44156, Note_off_c, 1, 60, 65
3, 44160, Note_on_c, 1, 53, 78
3, 44162, Note_on_c, 1, 53, 79
3, 44279, Note_off_c, 1, 53, 65
3, 44280, Note_on_c, 1, 57, 80
3, 44399, Note_off_c, 1, 57, 64
3, 44401, Note_on_c, 1, 62, 83
3, 44519, Note_on_c, 1, 65, 78
3, 44522, Note_off_c, 1, 62, 64
3, 44637, Note_off_c, 1, 65, 66
3, 44639, Note_on_c, 1, 55, 80
3, 44641, Note_off_c, 1, 53, 62
3, 44762, Note_on_c, 1, 64, 79
3, 44882, Note_off_c, 1, 64, 67
3, 44882, Note_on_c, 1, 62, 79
3, 45000, Note_off_c, 1, 55, 65
3, 45001, Note_off_c, 1, 62, 62
3, 45119, Note_on_c, 1, 64, 82
3, 45120, Note_on_c, 1, 60, 80
3, 45238, Note_off_c, 1, 60, 62
3, 45240, Note_off_c, 1, 64, 61
3, 45241, Note_on_c, 1, 67, 80
3, 45360, Note_on_c, 1, 64, 82
3, 45361, Note_off_c, 1, 67, 67
3, 45362, Note_on_c, 1, 60, 77
3, 45479, Note_on_c, 1, 67, 79
3, 45481, Note_off_c, 1, 64, 66
3, 45482, Note_off_c, 1, 60, 63
3, 45598, Note_on_c, 1, 62, 83
3, 45599, Note_on_c, 1, 65, 77
3, 45600, Note_off_c, 1, 67, 65
3, 45717, Note_off_c, 1, 62, 63
3, 45719, Note_off_c, 1, 65, 64
3, 45721, Note_on_c, 1, 67, 81
3, 45839, Note_on_c, 1, 62, 79
3, 45840, Note_on_c, 1, 65, 78
3, 45843, Note_off_c, 1, 67, 67
3, 45959, Note_off_c, 1, 65, 63
3, 45959, Note_off_c, 1, 62, 64
3, 45960, Note_on_c, 1, 67, 83
3, 46078, Note_off_c, 1, 67, 64
3, 46081, Note_on_c, 1, 64, 79
3, 46082, Note_on_c, 1, 60, 78
3, 46198, Note_on_c, 1, 67, 82
3, 46203, Note_off_c, 1, 64, 65
3, 46204, Note_off_c, 1, 60, 63
3, 46319, Note_on_c, 1, 60, 83
3, 46320, Note_off_c, 1, 67, 64
3, 46320, Note_on_c, 1, 64, 81
3, 46437, Note_off_c, 1, 60, 64
3, 46441, Note_on_c, 1, 67, 79
3, 46442, Note_off_c, 1, 64, 62
3, 46559, Note_on_c, 1, 59, 79
3, 46560, Note_off_c, 1, 67, 64
3, 46561, Note_on_c, 1, 62, 83
3, 46678, Note_on_c, 1, 67, 77
3, 46679, Note_off_c, 1, 59, 62
3, 46683, Note_off_c, 1, 62, 62
3, 46798, Note_on_c, 1, 62, 81
3, 46800, Note_off_c, 1, 67, 61
3, 46802, Note_on_c, 1, 59, 79
3, 46916, Note_off_c, 1, 62, 66
3, 46918, Note_on_c, 1, 67, 79
3, 46920, Note_off_c, 1, 59, 67
3, 47037, Note_off_c, 1, 67, 62
3, 47039, Note_on_c, 1, 57, 82
3, 47041, Note_on_c, 1, 60, 83
3, 47157, Note_off_c, 1, 57, 61
3, 47160, Note_off_c, 1, 60, 66
3, 47162, Note_on_c, 1, 65, 81
3, 47280, Note_on_c, 1, 59, 83
3, 47281, Note_on_c, 1, 62, 80
3, 47284, Note_off_c, 1, 65, 61
3, 47399, Note_off_c, 1, 59, 63
3, 47400, Note_on_c, 1, 67, 77
3, 47401, Note_off_c, 1, 62, 62
3, 47520, Note_off_c, 1, 67, 63
3, 47521, Note_on_c, 1, 64, 80
3, 47522, Note_on_c, 1, 60, 80
3, 47639, Note_off_c, 1, 64, 63
3, 47641, Note_off_c, 1, 60, 65
3, 47641, Note_on_c, 1, 67, 82
3, 47758, Note_on_c, 1, 53, 83
3, 47761, Note_off_c, 1, 67, 65
3, 47877, Note_off_c, 1, 53, 66
3, 47881, Note_on_c, 1, 65, 78
3, 47999, Note_off_c, 1, 65, 67
3, 47999, Note_on_c, 1, 55, 77
3, 48117, Note_off_c, 1, 55, 64
3, 48120, Note_on_c, 1, 64, 78
3, 48239, Note_off_c, 1, 64, 61
3, 48242, Note_on_c, 1, 55, 79
3, 48358, Note_on_c, 1, 65, 82
3, 48363, Note_off_c, 1, 55, 63
3, 48480, Note_off_c, 1, 65, 65
3, 48481, Note_on_c, 1, 48, 78
3, 48599, Note_off_c, 1, 48, 66
3, 48600, Note_on_c, 1, 60, 78
3, 48721, Note_off_c, 1, 60, 61
3, 48721, Note_on_c, 1, 48, 81
3, 48842, Note_off_c, 1, 48, 65
3, 48958, Note_on_c, 1, 48, 82
3, 48959, Note_on_c, 1, 55, 82
3, 49076, Note_off_c, 1, 48, 64
3, 49078, Note_off_c, 1, 55, 65
3, 49078, Note_on_c, 1, 55, 81
3, 49080, Note_on_c, 1, 48, 78
3, 49318, Note_off_c, 1, 48, 66
3, 49318, Note_on_c, 1, 50, 81
3, 49377, Note_off_c, 1, 50, 54
3, 49382, Note_on_c, 1, 52, 82
3, 49438, Note_on_c, 1, 50, 97
3, 49440, Note_off_c, 1, 55, 64
3, 49444, Note_off_c, 1, 52, 56
3, 49477, Note_off_c, 1, 50, 55
3, 49482, Note_on_c, 1, 53, 103
3, 49520, Note_off_c, 1, 53, 58
3, 49520, Note_on_c, 1, 56, 101
3, 49558, Note_off_c, 1, 56, 57
3, 49682, Note_on_c, 1, 62, 100
3, 49719, Note_on_c, 1, 65, 102
3, 49722, Note_off_c, 1, 62, 53
3, 49758, Note_off_c, 1, 65, 59
3, 49760, Note_on_c, 1, 68, 99
3, 49802, Note_off_c, 1, 68, 58
3, 49921, Note_on_c, 1, 59, 102
3, 49921, Note_on_c, 1, 50, 97
3, 49991, Note_off_c, 1, 59, 64
3, 49995, Note_off_c, 1, 50, 65
3, 50040, Note_on_c, 1, 50, 98
3, 50041, Note_on_c, 1, 59, 98
3, 50279, Note_on_c, 1, 51, 99
3, 50280, Note_off_c, 1, 59, 67
3, 50280, Note_off_c, 1, 50, 61
3, 50340, Note_off_c, 1, 51, 57
3, 50340, Note_on_c, 1, 53, 102
3, 50398, Note_on_c, 1, 51, 98
3, 50401, Note_off_c, 1, 53, 59
3, 50438, Note_off_c, 1, 51, 55
3, 50442, Note_on_c, 1, 55, 99
3, 50482, Note_on_c, 1, 60, 98
3, 50484, Note_off_c, 1, 55, 59
3, 50523, Note_off_c, 1, 60, 57
3, 50642, Note_on_c, 1, 63, 102
3, 50681, Note_on_c, 1, 67, 97
3, 50683, Note_off_c, 1, 63, 56
3, 50718, Note_on_c, 1, 72, 103
3, 50723, Note_off_c, 1, 67, 58
3, 50757, Note_off_c, 1, 72, 57
3, 50881, Note_on_c, 1, 67, 100
3, 50881, Note_on_c, 1, 64, 101
3, 50954, Note_off_c, 1, 64, 62
3, 50954, Note_off_c, 1, 67, 63
3, 50998, Note_on_c, 1, 67, 98
3, 51000, Note_on_c, 1, 64, 100
3, 51237, Note_off_c, 1, 67, 62
3, 51239, Note_off_c, 1, 64, 66
3, 51241, Note_on_c, 1, 68, 99
3, 51242, Note_on_c, 1, 65, 100
3, 51299, Note_on_c, 1, 70, 99
3, 51300, Note_off_c, 1, 65, 54
3, 51300, Note_on_c, 1, 67, 100
3, 51303, Note_off_c, 1, 68, 55
3, 51358, Note_off_c, 1, 67, 54
3, 51358, Note_on_c, 1, 68, 102
3, 51358, Note_on_c, 1, 65, 100
3, 51359, Note_off_c, 1, 70, 56
3, 51597, Note_off_c, 1, 68, 64
3, 51600, Note_off_c, 1, 65, 67
3, 51838, Note_on_c, 1, 53, 101
3, 51841, Note_on_c, 1, 56, 102
3, 51912, Note_off_c, 1, 56, 64
3, 51912, Note_off_c, 1, 53, 62
3, 52081, Note_on_c, 1, 54, 101
3, 52081, Note_on_c, 1, 57, 100
3, 52152, Note_off_c, 1, 54, 62
3, 52154, Note_off_c, 1, 57, 65
3, 52318, Note_on_c, 1, 62, 103
3, 52322, Note_on_c, 1, 55, 102
3, 52392, Note_off_c, 1, 62, 65
3, 52395, Note_off_c, 1, 55, 63
3, 52799, Note_on_c, 1, 48, 102
3, 52802, Note_on_c, 1, 55, 97
3, 52872, Note_off_c, 1, 55, 66
3, 52873, Note_off_c, 1, 48, 62
3, 52920, Note_on_c, 1, 48, 100
3, 52921, Note_on_c, 1, 55, 101
3, 53158, Note_off_c, 1, 48, 63
3, 53159, Note_on_c, 1, 50, 100
3, 53161, Note_off_c, 1, 55, 64
3, 53218, Note_off_c, 1, 50, 54
3, 53218, Note_on_c, 1, 51, 100
3, 53278, Note_off_c, 1, 51, 53
3, 53282, Note_on_c, 1, 50, 103
3, 53318, Note_on_c, 1, 53, 99
3, 53322, Note_off_c, 1, 50, 57
3, 53359, Note_off_c, 1, 53, 53
3, 53360, Note_on_c, 1, 58, 100
3, 53400, Note_off_c, 1, 58, 53
3, 53521, Note_on_c, 1, 62, 103
3, 53559, Note_on_c, 1, 65, 99
3, 53562, Note_off_c, 1, 62, 56
3, 53599, Note_off_c, 1, 65, 56
3, 53601, Note_on_c, 1, 70, 100
3, 53642, Note_off_c, 1, 70, 58
3, 53758, Note_on_c, 1, 58, 100
3, 53761, Note_on_c, 1, 46, 99
3, 53829, Note_off_c, 1, 58, 61
3, 53833, Note_off_c, 1, 46, 65
3, 53882, Note_on_c, 1, 58, 98
3, 53882, Note_on_c, 1, 46, 103
3, 54120, Note_off_c, 1, 58, 62
3, 54120, Note_on_c, 1, 48, 103
3, 54123, Note_off_c, 1, 46, 62
3, 54180, Note_off_c, 1, 48, 56
3, 54180, Note_on_c, 1, 50, 102
3, 54240, Note_on_c, 1, 51, 99
3, 54241, Note_off_c, 1, 50, 58
3, 54279, Note_off_c, 1, 51, 55
3, 54279, Note_on_c, 1, 55, 97
3, 54320, Note_off_c, 1, 55, 53
3, 54321, Note_on_c, 1, 58, 98
3, 54361, Note_off_c, 1, 58, 58
3, 54482, Note_on_c, 1, 63, 102
3, 54521, Note_off_c, 1, 63, 59
3, 54522, Note_on_c, 1, 67, 103
3, 54560, Note_on_c, 1, 70, 101
3, 54561, Note_off_c, 1, 67, 57
3, 54601, Note_off_c, 1, 70, 55
3, 54718, Note_on_c, 1, 63, 102
3, 54719, Note_on_c, 1, 55, 107
3, 54720, Note_on_c, 1, 58, 103
3, 54862, Note_off_c, 1, 58, 64
3, 54863, Note_off_c, 1, 63, 67
3, 54865, Note_off_c, 1, 55, 63
3, 55202, Note_on_c, 1, 65, 113
3, 55202, Note_on_c, 1, 56, 110
3, 55202, Note_on_c, 1, 60, 109
3, 55202, Note_on_c, 1, 63, 113
3, 55344, Note_off_c, 1, 56, 63
3, 55345, Note_off_c, 1, 60, 66
3, 55345, Note_off_c, 1, 65, 61
3, 55348, Note_off_c, 1, 63, 65
3, 55680, Note_on_c, 1, 63, 110
3, 55682, Note_on_c, 1, 67, 112
3, 55682, Note_on_c, 1, 58, 112
3, 55751, Note_off_c, 1, 63, 66
3, 55752, Note_off_c, 1, 67, 66
3, 55755, Note_off_c, 1, 58, 61
3, 55918, Note_on_c, 1, 58, 109
3, 55920, Note_on_c, 1, 46, 112
3, 55990, Note_off_c, 1, 46, 63
3, 55990, Note_off_c, 1, 58, 64
3, 56160, Note_on_c, 1, 51, 78
3, 56218, Note_off_c, 1, 51, 53
3, 56221, Note_on_c, 1, 58, 81
3, 56278, Note_on_c, 1, 55, 80
3, 56280, Note_off_c, 1, 58, 59
3, 56336, Note_off_c, 1, 55, 55
3, 56342, Note_on_c, 1, 58, 82
3, 56398, Note_on_c, 1, 46, 77
3, 56401, Note_off_c, 1, 58, 56
3, 56457, Note_off_c, 1, 46, 55
3, 56458, Note_on_c, 1, 58, 78
3, 56516, Note_off_c, 1, 58, 54
3, 56518, Note_on_c, 1, 55, 81
3, 56577, Note_off_c, 1, 55, 54
3, 56578, Note_on_c, 1, 58, 82
3, 56637, Note_off_c, 1, 58, 59
3, 56642, Note_on_c, 1, 51, 78
3, 56699, Note_on_c, 1, 58, 82
3, 56701, Note_off_c, 1, 51, 53
3, 56759, Note_off_c, 1, 58, 55
3, 56759, Note_on_c, 1, 55, 81
3, 56819, Note_off_c, 1, 55, 55
3, 56819, Note_on_c, 1, 58, 81
3, 56878, Note_on_c, 1, 46, 82
3, 56879, Note_off_c, 1, 58, 55
3, 56937, Note_off_c, 1, 46, 59
3, 56939, Note_on_c, 1, 58, 81
3, 57000, Note_on_c, 1, 55, 78
3, 57001, Note_off_c, 1, 58, 59
3, 57058, Note_off_c, 1, 55, 59
3, 57061, Note_on_c, 1, 58, 78
3, 57119, Note_on_c, 1, 53, 82
3, 57122, Note_off_c, 1, 58, 57
3, 57178, Note_off_c, 1, 53, 59
3, 57182, Note_on_c, 1, 58, 82
3, 57241, Note_on_c, 1, 56, 80
3, 57242, Note_off_c, 1, 58, 59
3, 57300, Note_on_c, 1, 58, 82
3, 57303, Note_off_c, 1, 56, 59
3, 57358, Note_off_c, 1, 58, 54
3, 57359, Note_on_c, 1, 46, 82
3, 57419, Note_off_c, 1, 46, 54
3, 57421, Note_on_c, 1, 58, 82
3, 57478, Note_on_c, 1, 56, 80
3, 57483, Note_off_c, 1, 58, 57
3, 57538, Note_off_c, 1, 56, 55
3, 57539, Note_on_c, 1, 58, 79
3, 57597, Note_off_c, 1, 58, 59
3, 57601, Note_on_c, 1, 50, 78
3, 57662, Note_on_c, 1, 58, 80
3, 57663, Note_off_c, 1, 50, 57
3, 57719, Note_on_c, 1, 56, 82
3, 57721, Note_off_c, 1, 58, 55
3, 57780, Note_off_c, 1, 56, 58
3, 57782, Note_on_c, 1, 58, 83
3, 57838, Note_on_c, 1, 46, 77
3, 57843, Note_off_c, 1, 58, 58
3, 57898, Note_off_c, 1, 46, 57
3, 57900, Note_on_c, 1, 58, 77
3, 57958, Note_on_c, 1, 56, 82
3, 57959, Note_off_c, 1, 58, 59
3, 58016, Note_off_c, 1, 56, 59
3, 58021, Note_on_c, 1, 58, 78
3, 58079, Note_on_c, 1, 51, 80
3, 58081, Note_off_c, 1, 58, 53
3, 58139, Note_off_c, 1, 51, 55
3, 58139, Note_on_c, 1, 58, 81
3, 58197, Note_off_c, 1, 58, 55
3, 58202, Note_on_c, 1, 55, 78
3, 58262, Note_off_c, 1, 55, 56
3, 58262, Note_on_c, 1, 58, 80
3, 58319, Note_on_c, 1, 46, 77
3, 58323, Note_off_c, 1, 58, 56
3, 58378, Note_on_c, 1, 58, 80
3, 58381, Note_off_c, 1, 46, 57
3, 58438, Note_off_c, 1, 58, 56
3, 58439, Note_on_c, 1, 55, 82
3, 58499, Note_off_c, 1, 55, 54
3, 58501, Note_on_c, 1, 58, 81
3, 58560, Note_off_c, 1, 58, 54
3, 58561, Note_on_c, 1, 51, 79
3, 58621, Note_on_c, 1, 58, 77
3, 58623, Note_off_c, 1, 51, 58
3, 58681, Note_off_c, 1, 58, 58
3, 58681, Note_on_c, 1, 55, 82
3, 58742, Note_on_c, 1, 58, 82
3, 58743, Note_off_c, 1, 55, 57
3, 58801, Note_off_c, 1, 58, 58
3, 58801, Note_on_c, 1, 46, 78
3, 58860, Note_off_c, 1, 46, 57
3, 58862, Note_on_c, 1, 58, 82
3, 58918, Note_on_c, 1, 55, 78
3, 58922, Note_off_c, 1, 58, 53
3, 58976, Note_off_c, 1, 55, 57
3, 58978, Note_on_c, 1, 58, 78
3, 59036, Note_off_c, 1, 58, 57
3, 59040, Note_on_c, 1, 53, 80
3, 59098, Note_off_c, 1, 53, 59
3, 59100, Note_on_c, 1, 58, 78
3, 59160, Note_on_c, 1, 56, 78
3, 59161, Note_off_c, 1, 58, 59
3, 59218, Note_off_c, 1, 56, 57
3, 59222, Note_on_c, 1, 58, 82
3, 59281, Note_off_c, 1, 58, 53
3, 59282, Note_on_c, 1, 46, 77
3, 59340, Note_off_c, 1, 46, 53
3, 59340, Note_on_c, 1, 58, 83
3, 59399, Note_on_c, 1, 56, 78
3, 59402, Note_off_c, 1, 58, 58
3, 59458, Note_on_c, 1, 58, 82
3, 59460, Note_off_c, 1, 56, 58
3, 59518, Note_off_c, 1, 58, 59
3, 59518, Note_on_c, 1, 50, 83
3, 59579, Note_off_c, 1, 50, 54
3, 59582, Note_on_c, 1, 58, 83
3, 59641, Note_off_c, 1, 58, 55
3, 59642, Note_on_c, 1, 56, 81
3, 59700, Note_off_c, 1, 56, 57
3, 59702, Note_on_c, 1, 58, 80
3, 59758, Note_on_c, 1, 46, 77
3, 59761, Note_off_c, 1, 58, 54
3, 59817, Note_off_c, 1, 46, 57
3, 59818, Note_on_c, 1, 58, 83
3, 59880, Note_off_c, 1, 58, 53
3, 59882, Note_on_c, 1, 56, 78
3, 59942, Note_off_c, 1, 56, 58
3, 59942, Note_on_c, 1, 58, 78
3, 60000, Note_on_c, 1, 49, 78
3, 60002, Note_off_c, 1, 58, 57
3, 60062, Note_off_c, 1, 49, 58
3, 60062, Note_on_c, 1, 58, 81
3, 60121, Note_on_c, 1, 55, 83
3, 60124, Note_off_c, 1, 58, 58
3, 60180, Note_on_c, 1, 58, 81
3, 60183, Note_off_c, 1, 55, 59
3, 60238, Note_off_c, 1, 58, 57
3, 60239, Note_on_c, 1, 48, 78
3, 60298, Note_off_c, 1, 48, 59
3, 60302, Note_on_c, 1, 58, 78
3, 60359, Note_on_c, 1, 55, 77
3, 60363, Note_off_c, 1, 58, 55
3, 60418, Note_on_c, 1, 58, 82
3, 60420, Note_off_c, 1, 55, 58
3, 60477, Note_off_c, 1, 58, 53
3, 60481, Note_on_c, 1, 52, 82
3, 60541, Note_off_c, 1, 52, 57
3, 60541, Note_on_c, 1, 58, 77
3, 60600, Note_on_c, 1, 55, 82
3, 60601, Note_off_c, 1, 58, 54
3, 60658, Note_on_c, 1, 58, 78
3, 60660, Note_off_c, 1, 55, 59
3, 60718, Note_on_c, 1, 48, 79
3, 60719, Note_off_c, 1, 58, 54
3, 60778, Note_off_c, 1, 48, 57
3, 60781, Note_on_c, 1, 58, 82
3, 60840, Note_on_c, 1, 55, 81
3, 60842, Note_off_c, 1, 58, 57
3, 60898, Note_on_c, 1, 58, 77
3, 60901, Note_off_c, 1, 55, 58
3, 60960, Note_off_c, 1, 58, 55
3, 60962, Note_on_c, 1, 51, 82
3, 61020, Note_on_c, 1, 60, 79
3, 61024, Note_off_c, 1, 51, 56
3, 61078, Note_on_c, 1, 57, 79
3, 61080, Note_off_c, 1, 60, 58
3, 61139, Note_off_c, 1, 57, 54
3, 61142, Note_on_c, 1, 60, 77
3, 61198, Note_on_c, 1, 50, 79
3, 61202, Note_off_c, 1, 60, 54
3, 61256, Note_off_c, 1, 50, 57
3, 61259, Note_on_c, 1, 60, 79
3, 61318, Note_off_c, 1, 60, 53
3, 61320, Note_on_c, 1, 57, 79
3, 61379, Note_on_c, 1, 60, 77
3, 61380, Note_off_c, 1, 57, 53
3, 61441, Note_off_c, 1, 60, 58
3, 61441, Note_on_c, 1, 54, 80
3, 61501, Note_on_c, 1, 60, 77
3, 61502, Note_off_c, 1, 54, 57
3, 61561, Note_on_c, 1, 57, 83
3, 61563, Note_off_c, 1, 60, 59
3, 61621, Note_on_c, 1, 60, 80
3, 61623, Note_off_c, 1, 57, 53
3, 61678, Note_on_c, 1, 50, 81
3, 61683, Note_off_c, 1, 60, 59
3, 61736, Note_off_c, 1, 50, 59
3, 61740, Note_on_c, 1, 60, 80
3, 61799, Note_off_c, 1, 60, 59
3, 61802, Note_on_c, 1, 57, 79
3, 61862, Note_on_c, 1, 60, 79
3, 61863, Note_off_c, 1, 57, 55
3, 61920, Note_on_c, 1, 55, 77
3, 61923, Note_off_c, 1, 60, 53
3, 61979, Note_off_c, 1, 55, 55
3, 61982, Note_on_c, 1, 62, 81
3, 62038, Note_on_c, 1, 59, 82
3, 62042, Note_off_c, 1, 62, 55
3, 62098, Note_on_c, 1, 62, 84
3, 62100, Note_off_c, 1, 59, 53
3, 62156, Note_off_c, 1, 62, 57
3, 62159, Note_on_c, 1, 53, 85
3, 62219, Note_off_c, 1, 53, 53
3, 62221, Note_on_c, 1, 62, 84
3, 62279, Note_on_c, 1, 59, 82
3, 62280, Note_off_c, 1, 62, 55
3, 62340, Note_off_c, 1, 59, 56
3, 62342, Note_on_c, 1, 62, 83
3, 62399, Note_on_c, 1, 51, 88
3, 62403, Note_off_c, 1, 62, 57
3, 62457, Note_off_c, 1, 51, 58
3, 62460, Note_on_c, 1, 60, 87
3, 62521, Note_off_c, 1, 60, 53
3, 62521, Note_on_c, 1, 55, 92
3, 62582, Note_on_c, 1, 60, 87
3, 62583, Note_off_c, 1, 55, 55
3, 62641, Note_off_c, 1, 60, 56
3, 62641, Note_on_c, 1, 48, 93
3, 62698, Note_on_c, 1, 60, 93
3, 62701, Note_off_c, 1, 48, 58
3, 62756, Note_off_c, 1, 60, 59
3, 62759, Note_on_c, 1, 55, 91
3, 62818, Note_on_c, 1, 60, 92
3, 62820, Note_off_c, 1, 55, 54
3, 62878, Note_on_c, 1, 43, 98
3, 62879, Note_off_c, 1, 60, 59
3, 62880, Note_on_c, 1, 50, 92
3, 62880, Note_on_c, 1, 55, 93
3, 62881, Note_on_c, 1, 47, 94
3, 62950, Note_off_c, 1, 43, 67
3, 62952, Note_off_c, 1, 55, 61
3, 62952, Note_off_c, 1, 50, 64
3, 62954, Note_off_c, 1, 47, 62
3, 63359, Note_on_c, 1, 55, 98
3, 63359, Note_on_c, 1, 48, 94
3, 63431, Note_off_c, 1, 55, 61
3, 63432, Note_off_c, 1, 48, 63
3, 63478, Note_on_c, 1, 55, 98
3, 63479, Note_on_c, 1, 48, 96
3, 63717, Note_off_c, 1, 48, 66
3, 63718, Note_off_c, 1, 55, 67
3, 63718, Note_on_c, 1, 50, 101
3, 63780, Note_off_c, 1, 50, 59
3, 63782, Note_on_c, 1, 51, 102
3, 63838, Note_on_c, 1, 50, 100
3, 63844, Note_off_c, 1, 51, 59
3, 63879, Note_off_c, 1, 50, 55
3, 63880, Note_on_c, 1, 53, 99
3, 63919, Note_off_c, 1, 53, 59
3, 63920, Note_on_c, 1, 56, 100
3, 63958, Note_off_c, 1, 56, 55
3, 64082, Note_on_c, 1, 62, 98
3, 64120, Note_on_c, 1, 65, 103
3, 64122, Note_off_c, 1, 62, 53
3, 64158, Note_on_c, 1, 68, 99
3, 64159, Note_off_c, 1, 65, 55
3, 64196, Note_off_c, 1, 68, 54
3, 64318, Note_on_c, 1, 59, 98
3, 64320, Note_on_c, 1, 50, 99
3, 64390, Note_off_c, 1, 50, 63
3, 64390, Note_off_c, 1, 59, 63
3, 64438, Note_on_c, 1, 50, 101
3, 64438, Note_on_c, 1, 59, 103
3, 64676, Note_off_c, 1, 50, 62
3, 64679, Note_off_c, 1, 59, 63
3, 64680, Note_on_c, 1, 51, 101
3, 64739, Note_on_c, 1, 53, 102
3, 64742, Note_off_c, 1, 51, 54
3, 64797, Note_off_c, 1, 53, 58
3, 64801, Note_on_c, 1, 51, 98
3, 64840, Note_on_c, 1, 55, 103
3, 64842, Note_off_c, 1, 51, 58
3, 64879, Note_off_c, 1, 55, 56
3, 64881, Note_on_c, 1, 60, 101
3, 64920, Note_off_c, 1, 60, 54
3, 65038, Note_on_c, 1, 63, 97
3, 65079, Note_on_c, 1, 67, 102
3, 65080, Note_off_c, 1, 63, 58
3, 65117, Note_off_c, 1, 67, 56
3, 65122, Note_on_c, 1, 72, 101
3, 65162, Note_off_c, 1, 72, 56
3, 65280, Note_on_c, 1, 67, 101
3, 65280, Note_on_c, 1, 64, 102
3, 65352, Note_off_c, 1, 67, 67
3, 65354, Note_off_c, 1, 64, 61
3, 65399, Note_on_c, 1, 64, 101
3, 65399, Note_on_c, 1, 67, 98
3, 65638, Note_off_c, 1, 64, 61
3, 65641, Note_off_c, 1, 67, 67
3, 65641, Note_on_c, 1, 68, 97
3, 65642, Note_on_c, 1, 65, 97
3, 65699, Note_on_c, 1, 67, 102
3, 65700, Note_on_c, 1, 70, 101
3, 65702, Note_off_c, 1, 68, 58
3, 65704, Note_off_c, 1, 65, 54
3, 65759, Note_off_c, 1, 70, 53
3, 65761, Note_off_c, 1, 67, 54
3, 65762, Note_on_c, 1, 68, 101
3, 65762, Note_on_c, 1, 65, 102
3, 65904, Note_off_c, 1, 65, 67
3, 65908, Note_off_c, 1, 68, 67
3, 66001, Note_on_c, 1, 65, 100
3, 66144, Note_off_c, 1, 65, 65
3, 66240, Note_on_c, 1, 67, 103
3, 66382, Note_off_c, 1, 67, 63
3, 66480, Note_on_c, 1, 65, 103
3, 66481, Note_on_c, 1, 55, 102
3, 66624, Note_off_c, 1, 65, 67
3, 66627, Note_off_c, 1, 55, 66
3, 66718, Note_on_c, 1, 63, 98
3, 66721, Note_on_c, 1, 56, 98
3, 66957, Note_off_c, 1, 63, 67
3, 66959, Note_off_c, 1, 56, 63
3, 67199, Note_on_c, 1, 55, 97
3, 67200, Note_on_c, 1, 52, 103
3, 67269, Note_off_c, 1, 55, 66
3, 67273, Note_off_c, 1, 52, 61
3, 67321, Note_on_c, 1, 52, 102
3, 67321, Note_on_c, 1, 55, 97
3, 67558, Note_on_c, 1, 53, 103
3, 67560, Note_off_c, 1, 55, 61
3, 67562, Note_on_c, 1, 56, 98
3, 67563, Note_off_c, 1, 52, 65
3, 67619, Note_off_c, 1, 53, 57
3, 67619, Note_on_c, 1, 55, 99
3, 67622, Note_off_c, 1, 56, 53
3, 67622, Note_on_c, 1, 58, 103
3, 67677, Note_off_c, 1, 55, 56
3, 67678, Note_on_c, 1, 56, 103
3, 67680, Note_on_c, 1, 53, 101
3, 67684, Note_off_c, 1, 58, 55
3, 67823, Note_off_c, 1, 53, 63
3, 67824, Note_off_c, 1, 56, 64
3, 67921, Note_on_c, 1, 53, 100
3, 68064, Note_off_c, 1, 53, 64
3, 68159, Note_on_c, 1, 55, 93
3, 68303, Note_off_c, 1, 55, 63
3, 68401, Note_on_c, 1, 43, 90
3, 68543, Note_off_c, 1, 43, 61
3, 68639, Note_on_c, 1, 48, 90
3, 68879, Note_off_c, 1, 48, 65
3, 71998, Note_on_c, 1, 60, 62
3, 72002, Note_on_c, 1, 56, 68
3, 72118, Note_on_c, 1, 63, 63
3, 72119, Note_off_c, 1, 60, 62
3, 72124, Note_off_c, 1, 56, 65
3, 72236, Note_off_c, 1, 63, 65
3, 72239, Note_on_c, 1, 60, 63
3, 72239, Note_on_c, 1, 56, 67
3, 72360, Note_off_c, 1, 56, 67
3, 72360, Note_off_c, 1, 60, 66
3, 72360, Note_on_c, 1, 63, 68
3, 72480, Note_on_c, 1, 58, 62
3, 72482, Note_off_c, 1, 63, 62
3, 72482, Note_on_c, 1, 61, 67
3, 72599, Note_off_c, 1, 58, 64
3, 72600, Note_off_c, 1, 61, 63
3, 72602, Note_on_c, 1, 63, 62
3, 72719, Note_on_c, 1, 61, 67
3, 72720, Note_on_c, 1, 58, 65
3, 72723, Note_off_c, 1, 63, 65
3, 72838, Note_off_c, 1, 61, 65
3, 72841, Note_off_c, 1, 58, 63
3, 72841, Note_on_c, 1, 63, 62
3, 72959, Note_on_c, 1, 60, 66
3, 72961, Note_off_c, 1, 63, 67
3, 72962, Note_on_c, 1, 56, 63
3, 73079, Note_on_c, 1, 63, 67
3, 73080, Note_off_c, 1, 60, 66
3, 73081, Note_off_c, 1, 56, 66
3, 73197, Note_off_c, 1, 63, 65
3, 73198, Note_on_c, 1, 56, 68
3, 73201, Note_on_c, 1, 60, 68
3, 73317, Note_off_c, 1, 56, 67
3, 73322, Note_on_c, 1, 63, 64
3, 73323, Note_off_c, 1, 60, 63
3, 73440, Note_off_c, 1, 63, 65
3, 73440, Note_on_c, 1, 55, 67
3, 73442, Note_on_c, 1, 58, 63
3, 73559, Note_on_c, 1, 63, 64
3, 73561, Note_off_c, 1, 55, 61
3, 73564, Note_off_c, 1, 58, 61
3, 73678, Note_on_c, 1, 58, 65
3, 73680, Note_off_c, 1, 63, 62
3, 73682, Note_on_c, 1, 55, 66
3, 73796, Note_off_c, 1, 58, 63
3, 73798, Note_on_c, 1, 63, 68
3, 73800, Note_off_c, 1, 55, 62
3, 73916, Note_off_c, 1, 63, 65
3, 73920, Note_on_c, 1, 53, 62
3, 73921, Note_on_c, 1, 56, 63
3, 74038, Note_off_c, 1, 53, 65
3, 74039, Note_off_c, 1, 56, 64
3, 74041, Note_on_c, 1, 61, 66
3, 74159, Note_on_c, 1, 58, 64
3, 74160, Note_off_c, 1, 61, 64
3, 74162, Note_on_c, 1, 55, 65
3, 74278, Note_off_c, 1, 58, 62
3, 74280, Note_on_c, 1, 63, 67
3, 74283, Note_off_c, 1, 55, 66
3, 74398, Note_on_c, 1, 56, 66
3, 74402, Note_off_c, 1, 63, 61
3, 74520, Note_off_c, 1, 56, 62
3, 74520, Note_on_c, 1, 60, 66
3, 74638, Note_on_c, 1, 63, 67
3, 74639, Note_off_c, 1, 60, 64
3, 74760, Note_off_c, 1, 63, 64
3, 74760, Note_on_c, 1, 68, 65
3, 74881, Note_off_c, 1, 68, 61
3, 74881, Note_on_c, 1, 61, 68
3, 75002, Note_on_c, 1, 65, 67
3, 75122, Note_off_c, 1, 65, 64
3, 75122, Note_on_c, 1, 70, 64
3, 75240, Note_on_c, 1, 73, 67
3, 75244, Note_off_c, 1, 70, 62
3, 75358, Note_off_c, 1, 73, 65
3, 75358, Note_on_c, 1, 63, 78
3, 75360, Note_off_c, 1, 61, 63
3, 75477, Note_off_c, 1, 63, 62
3, 75478, Note_on_c, 1, 72, 80
3, 75597, Note_off_c, 1, 72, 62
3, 75600, Note_on_c, 1, 70, 80
3, 75720, Note_off_c, 1, 70, 67
3, 75841, Note_on_c, 1, 60, 77
3, 75841, Note_on_c, 1, 56, 78
3, 75960, Note_off_c, 1, 56, 62
3, 75960, Note_off_c, 1, 60, 63
3, 75961, Note_on_c, 1, 63, 81
3, 76080, Note_on_c, 1, 56, 83
3, 76081, Note_on_c, 1, 60, 77
3, 76082, Note_off_c, 1, 63, 64
3, 76199, Note_on_c, 1, 63, 77
3, 76200, Note_off_c, 1, 56, 66
3, 76203, Note_off_c, 1, 60, 66
3, 76317, Note_off_c, 1, 63, 63
3, 76319, Note_on_c, 1, 58, 80
3, 76319, Note_on_c, 1, 61, 77
3, 76437, Note_off_c, 1, 58, 63
3, 76438, Note_off_c, 1, 61, 61
3, 76440, Note_on_c, 1, 63, 80
3, 76558, Note_off_c, 1, 63, 67
3, 76560, Note_on_c, 1, 58, 78
3, 76560, Note_on_c, 1, 61, 77
3, 76679, Note_off_c, 1, 61, 62
3, 76679, Note_off_c, 1, 58, 63
3, 76682, Note_on_c, 1, 63, 79
3, 76799, Note_on_c, 1, 60, 77
3, 76800, Note_on_c, 1, 56, 79
3, 76802, Note_off_c, 1, 63, 61
3, 76917, Note_off_c, 1, 60, 66
3, 76918, Note_off_c, 1, 56, 62
3, 76922, Note_on_c, 1, 63, 81
3, 77040, Note_off_c, 1, 63, 65
3, 77040, Note_on_c, 1, 60, 77
3, 77042, Note_on_c, 1, 56, 79
3, 77158, Note_on_c, 1, 63, 82
3, 77160, Note_off_c, 1, 56, 65
3, 77160, Note_off_c, 1, 60, 64
3, 77277, Note_off_c, 1, 63, 66
3, 77278, Note_on_c, 1, 58, 78
3, 77281, Note_on_c, 1, 55, 81
3, 77400, Note_off_c, 1, 58, 67
3, 77400, Note_on_c, 1, 63, 77
3, 77401, Note_off_c, 1, 55, 63
3, 77518, Note_off_c, 1, 63, 64
3, 77518, Note_on_c, 1, 58, 78
3, 77522, Note_on_c, 1, 55, 82
3, 77638, Note_off_c, 1, 58, 64
3, 77638, Note_on_c, 1, 63, 80
3, 77644, Note_off_c, 1, 55, 61
3, 77756, Note_off_c, 1, 63, 63
3, 77758, Note_on_c, 1, 53, 77
3, 77758, Note_on_c, 1, 56, 82
3, 77878, Note_off_c, 1, 53, 65
3, 77879, Note_off_c, 1, 56, 63
3, 77881, Note_on_c, 1, 61, 78
3, 77998, Note_on_c, 1, 58, 82
3, 77998, Note_on_c, 1, 55, 80
3, 78002, Note_off_c, 1, 61, 65
3, 78117, Note_off_c, 1, 55, 66
3, 78118, Note_off_c, 1, 58, 66
3, 78121, Note_on_c, 1, 63, 78
3, 78238, Note_on_c, 1, 56, 79
3, 78239, Note_off_c, 1, 63, 67
3, 78359, Note_off_c, 1, 56, 63
3, 78361, Note_on_c, 1, 63, 81
3, 78481, Note_off_c, 1, 63, 66
3, 78482, Note_on_c, 1, 55, 81
3, 78598, Note_on_c, 1, 63, 77
3, 78601, Note_off_c, 1, 55, 63
3, 78718, Note_off_c, 1, 63, 67
3, 78720, Note_on_c, 1, 54, 82
3, 78838, Note_on_c, 1, 57, 77
3, 78840, Note_off_c, 1, 54, 65
3, 78958, Note_off_c, 1, 57, 63
3, 78961, Note_on_c, 1, 42, 83
3, 79078, Note_on_c, 1, 54, 78
3, 79079, Note_off_c, 1, 42, 63
3, 79197, Note_off_c, 1, 54, 66
3, 79198, Note_on_c, 1, 43, 81
3, 79260, Note_off_c, 1, 43, 57
3, 79260, Note_on_c, 1, 55, 77
3, 79320, Note_on_c, 1, 47, 82
3, 79321, Note_off_c, 1, 55, 59
3, 79378, Note_off_c, 1, 47, 55
3, 79378, Note_on_c, 1, 55, 80
3, 79440, Note_off_c, 1, 55, 58
3, 79440, Note_on_c, 1, 50, 83
3, 79498, Note_on_c, 1, 55, 78
3, 79502, Note_off_c, 1, 50, 54
3, 79558, Note_off_c, 1, 55, 56
3, 79562, Note_on_c, 1, 47, 79
3, 79620, Note_on_c, 1, 55, 79
3, 79622, Note_off_c, 1, 47, 59
3, 79678, Note_off_c, 1, 55, 56
3, 79678, Note_on_c, 1, 43, 81
3, 79738, Note_off_c, 1, 43, 59
3, 79740, Note_on_c, 1, 55, 79
3, 79799, Note_on_c, 1, 47, 83
3, 79802, Note_off_c, 1, 55, 57
3, 79858, Note_off_c, 1, 47, 56
3, 79862, Note_on_c, 1, 55, 83
3, 79919, Note_on_c, 1, 50, 82
3, 79920, Note_off_c, 1, 55, 59
3, 79980, Note_on_c, 1, 55, 81
3, 79981, Note_off_c, 1, 50, 59
3, 80038, Note_on_c, 1, 47, 82
3, 80040, Note_off_c, 1, 55, 57
3, 80098, Note_off_c, 1, 47, 54
3, 80100, Note_on_c, 1, 55, 77
3, 80158, Note_off_c, 1, 55, 55
3, 80158, Note_on_c, 1, 43, 77
3, 80214, Note_off_c, 1, 43, 55
3, 80220, Note_on_c, 1, 55, 83
3, 80274, Note_off_c, 1, 55, 53
3, 80279, Note_on_c, 1, 48, 77
3, 80334, Note_off_c, 1, 48, 54
3, 80339, Note_on_c, 1, 55, 80
3, 80392, Note_off_c, 1, 55, 53
3, 80398, Note_on_c, 1, 51, 82
3, 80452, Note_off_c, 1, 51, 56
3, 80460, Note_on_c, 1, 55, 83
3, 80514, Note_off_c, 1, 55, 53
3, 80521, Note_on_c, 1, 48, 82
3, 80575, Note_off_c, 1, 48, 56
3, 80581, Note_on_c, 1, 55, 83
3, 80635, Note_off_c, 1, 55, 56
3, 80642, Note_on_c, 1, 43, 77
3, 80695, Note_off_c, 1, 43, 53
3, 80702, Note_on_c, 1, 55, 83
3, 80758, Note_off_c, 1, 55, 57
3, 80759, Note_on_c, 1, 48, 80
3, 80815, Note_off_c, 1, 48, 58
3, 80821, Note_on_c, 1, 55, 79
3, 80876, Note_off_c, 1, 55, 58
3, 80880, Note_on_c, 1, 51, 81
3, 80935, Note_off_c, 1, 51, 58
3, 80941, Note_on_c, 1, 55, 79
3, 80997, Note_off_c, 1, 55, 53
3, 81002, Note_on_c, 1, 48, 83
3, 81054, Note_off_c, 1, 48, 54
3, 81060, Note_on_c, 1, 55, 83
3, 81113, Note_off_c, 1, 55, 53
3, 81118, Note_on_c, 1, 43, 80
3, 81173, Note_off_c, 1, 43, 57
3, 81178, Note_on_c, 1, 55, 79
3, 81233, Note_off_c, 1, 55, 55
3, 81241, Note_on_c, 1, 47, 79
3, 81296, Note_off_c, 1, 47, 59
3, 81301, Note_on_c, 1, 55, 79
3, 81354, Note_off_c, 1, 55, 57
3, 81361, Note_on_c, 1, 50, 82
3, 81413, Note_off_c, 1, 50, 55
3, 81421, Note_on_c, 1, 55, 82
3, 81476, Note_off_c, 1, 55, 57
3, 81481, Note_on_c, 1, 47, 82
3, 81537, Note_off_c, 1, 47, 58
3, 81541, Note_on_c, 1, 55, 79
3, 81594, Note_off_c, 1, 55, 53
3, 81598, Note_on_c, 1, 43, 83
3, 81654, Note_off_c, 1, 43, 53
3, 81662, Note_on_c, 1, 55, 81
3, 81716, Note_off_c, 1, 55, 56
3, 81720, Note_on_c, 1, 47, 83
3, 81772, Note_off_c, 1, 47, 59
3, 81782, Note_on_c, 1, 55, 77
3, 81837, Note_off_c, 1, 55, 54
3, 81839, Note_on_c, 1, 50, 77
3, 81891, Note_off_c, 1, 50, 57
3, 81901, Note_on_c, 1, 55, 77
3, 81957, Note_off_c, 1, 55, 54
3, 81960, Note_on_c, 1, 47, 83
3, 82013, Note_off_c, 1, 47, 59
3, 82021, Note_on_c, 1, 55, 83
3, 82077, Note_off_c, 1, 55, 55
3, 82078, Note_on_c, 1, 43, 77
3, 82134, Note_off_c, 1, 43, 59
3, 82139, Note_on_c, 1, 55, 79
3, 82191, Note_off_c, 1, 55, 59
3, 82202, Note_on_c, 1, 48, 81
3, 82254, Note_off_c, 1, 48, 58
3, 82260, Note_on_c, 1, 55, 77
3, 82315, Note_off_c, 1, 55, 58
3, 82320, Note_on_c, 1, 51, 80
3, 82376, Note_off_c, 1, 51, 57
3, 82382, Note_on_c, 1, 55, 77
3, 82436, Note_off_c, 1, 55, 55
3, 82440, Note_on_c, 1, 48, 80
3, 82495, Note_off_c, 1, 48, 56
3, 82502, Note_on_c, 1, 55, 77
3, 82558, Note_off_c, 1, 55, 59
3, 82562, Note_on_c, 1, 43, 81
3, 82617, Note_off_c, 1, 43, 58
3, 82619, Note_on_c, 1, 55, 83
3, 82672, Note_off_c, 1, 55, 59
3, 82681, Note_on_c, 1, 48, 79
3, 82734, Note_off_c, 1, 48, 58
3, 82742, Note_on_c, 1, 55, 79
3, 82796, Note_off_c, 1, 55, 56
3, 82799, Note_on_c, 1, 51, 81
3, 82855, Note_off_c, 1, 51, 55
3, 82860, Note_on_c, 1, 55, 77
3, 82915, Note_off_c, 1, 55, 54
3, 82922, Note_on_c, 1, 48, 79
3, 82977, Note_off_c, 1, 48, 53
3, 82981, Note_on_c, 1, 55, 78
3, 83035, Note_off_c, 1, 55, 55
3, 83039, Note_on_c, 1, 43, 80
3, 83091, Note_off_c, 1, 43, 59
3, 83098, Note_on_c, 1, 55, 78
3, 83153, Note_off_c, 1, 55, 59
3, 83159, Note_on_c, 1, 50, 78
3, 83212, Note_off_c, 1, 50, 54
3, 83221, Note_on_c, 1, 55, 77
3, 83276, Note_off_c, 1, 55, 58
3, 83281, Note_on_c, 1, 43, 82
3, 83336, Note_off_c, 1, 43, 55
3, 83341, Note_on_c, 1, 55, 78
3, 83395, Note_off_c, 1, 55, 54
3, 83402, Note_on_c, 1, 47, 79
3, 83456, Note_off_c, 1, 47, 57
3, 83461, Note_on_c, 1, 55, 79
3, 83515, Note_off_c, 1, 55, 54
3, 83521, Note_on_c, 1, 43, 82
3, 83573, Note_off_c, 1, 43, 54
3, 83582, Note_on_c, 1, 55, 77
3, 83634, Note_off_c, 1, 55, 58
3, 83640, Note_on_c, 1, 48, 80
3, 83696, Note_off_c, 1, 48, 57
3, 83701, Note_on_c, 1, 55, 78
3, 83753, Note_off_c, 1, 55, 57
3, 83761, Note_on_c, 1, 43, 80
3, 83813, Note_off_c, 1, 43, 53
3, 83822, Note_on_c, 1, 55, 80
3, 83877, Note_off_c, 1, 55, 56
3, 83880, Note_on_c, 1, 51, 77
3, 83933, Note_off_c, 1, 51, 58
3, 83939, Note_on_c, 1, 55, 82
3, 83991, Note_off_c, 1, 55, 53
3, 84000, Note_on_c, 1, 43, 80
3, 84239, Note_off_c, 1, 43, 65
3, 87358, Note_on_c, 1, 60, 79
3, 87362, Note_on_c, 1, 64, 78
3, 87476, Note_off_c, 1, 60, 63
3, 87482, Note_off_c, 1, 64, 61
3, 87482, Note_on_c, 1, 67, 82
3, 87598, Note_on_c, 1, 60, 80
3, 87601, Note_on_c, 1, 64, 79
3, 87603, Note_off_c, 1, 67, 66
3, 87719, Note_off_c, 1, 64, 63
3, 87720, Note_off_c, 1, 60, 63
3, 87722, Note_on_c, 1, 67, 81
3, 87841, Note_off_c, 1, 67, 66
3, 87842, Note_on_c, 1, 65, 81
3, 87842, Note_on_c, 1, 62, 82
3, 87959, Note_on_c, 1, 67, 83
3, 87961, Note_off_c, 1, 62, 63
3, 87964, Note_off_c, 1, 65, 64
3, 88079, Note_off_c, 1, 67, 63
3, 88081, Note_on_c, 1, 65, 80
3, 88082, Note_on_c, 1, 62, 83
3, 88202, Note_off_c, 1, 62, 64
3, 88202, Note_off_c, 1, 65, 64
3, 88202, Note_on_c, 1, 67, 80
3, 88318, Note_on_c, 1, 64, 83
3, 88320, Note_on_c, 1, 60, 78
3, 88322, Note_off_c, 1, 67, 63
3, 88436, Note_off_c, 1, 64, 63
3, 88438, Note_off_c, 1, 60, 65
3, 88441, Note_on_c, 1, 67, 82
3, 88558, Note_on_c, 1, 60, 82
3, 88559, Note_off_c, 1, 67, 63
3, 88559, Note_on_c, 1, 64, 78
3, 88676, Note_off_c, 1, 60, 66
3, 88678, Note_off_c, 1, 64, 61
3, 88678, Note_on_c, 1, 67, 78
3, 88798, Note_off_c, 1, 67, 62
3, 88798, Note_on_c, 1, 59, 78
3, 88801, Note_on_c, 1, 62, 79
3, 88918, Note_off_c, 1, 59, 62
3, 88918, Note_on_c, 1, 67, 77
3, 88919, Note_off_c, 1, 62, 63
3, 89036, Note_off_c, 1, 67, 66
3, 89038, Note_on_c, 1, 62, 80
3, 89039, Note_on_c, 1, 59, 81
3, 89156, Note_off_c, 1, 62, 65
3, 89160, Note_off_c, 1, 59, 64
3, 89162, Note_on_c, 1, 67, 79
3, 89278, Note_on_c, 1, 60, 77
3, 89279, Note_on_c, 1, 57, 80
3, 89280, Note_off_c, 1, 67, 66
3, 89398, Note_off_c, 1, 60, 61
3, 89400, Note_off_c, 1, 57, 66
3, 89400, Note_on_c, 1, 67, 78
3, 89521, Note_off_c, 1, 67, 67
3, 89522, Note_on_c, 1, 59, 83
3, 89522, Note_on_c, 1, 62, 77
3, 89638, Note_on_c, 1, 67, 81
3, 89641, Note_off_c, 1, 59, 62
3, 89642, Note_off_c, 1, 62, 66
3, 89758, Note_off_c, 1, 67, 62
3, 89761, Note_on_c, 1, 60, 80
3, 89879, Note_on_c, 1, 64, 81
3, 89880, Note_off_c, 1, 60, 67
3, 89998, Note_on_c, 1, 55, 83
3, 89999, Note_on_c, 1, 52, 82
3, 90001, Note_off_c, 1, 64, 61
3, 90119, Note_off_c, 1, 52, 66
3, 90120, Note_off_c, 1, 55, 63
3, 90120, Note_on_c, 1, 60, 82
3, 90239, Note_on_c, 1, 53, 83
3, 90240, Note_off_c, 1, 60, 62
3, 90359, Note_on_c, 1, 57, 80
3, 90479, Note_off_c, 1, 57, 64
3, 90481, Note_on_c, 1, 62, 82
3, 90601, Note_on_c, 1, 65, 82
3, 90602, Note_off_c, 1, 62, 65
3, 90721, Note_off_c, 1, 53, 65
3, 90721, Note_on_c, 1, 55, 82
3, 90722, Note_off_c, 1, 65, 64
3, 90842, Note_on_c, 1, 64, 79
3, 90960, Note_off_c, 1, 64, 63
3, 90960, Note_on_c, 1, 62, 77
3, 91081, Note_off_c, 1, 62, 66
3, 91081, Note_off_c, 1, 55, 66
3, 91198, Note_on_c, 1, 64, 82
3, 91200, Note_on_c, 1, 60, 80
3, 91318, Note_off_c, 1, 64, 61
3, 91320, Note_on_c, 1, 67, 79
3, 91322, Note_off_c, 1, 60, 63
3, 91438, Note_on_c, 1, 64, 83
3, 91439, Note_on_c, 1, 60, 83
3, 91441, Note_off_c, 1, 67, 61
3, 91557, Note_off_c, 1, 60, 66
3, 91560, Note_off_c, 1, 64, 63
3, 91562, Note_on_c, 1, 67, 79
3, 91681, Note_on_c, 1, 65, 77
3, 91682, Note_on_c, 1, 62, 81
3, 91683, Note_off_c, 1, 67, 63
3, 91801, Note_off_c, 1, 65, 64
3, 91801, Note_on_c, 1, 67, 80
3, 91803, Note_off_c, 1, 62, 65
3, 91919, Note_on_c, 1, 65, 83
3, 91919, Note_on_c, 1, 62, 80
3, 91921, Note_off_c, 1, 67, 61
3, 92041, Note_off_c, 1, 62, 66
3, 92041, Note_off_c, 1, 65, 65
3, 92041, Note_on_c, 1, 67, 78
3, 92158, Note_on_c, 1, 60, 79
3, 92160, Note_on_c, 1, 64, 77
3, 92161, Note_off_c, 1, 67, 61
3, 92276, Note_off_c, 1, 60, 63
3, 92278, Note_off_c, 1, 64, 66
3, 92282, Note_on_c, 1, 67, 83
3, 92398, Note_on_c, 1, 60, 77
3, 92400, Note_off_c, 1, 67, 61
3, 92400, Note_on_c, 1, 64, 81
3, 92520, Note_off_c, 1, 64, 64
3, 92520, Note_off_c, 1, 60, 64
3, 92522, Note_on_c, 1, 67, 77
3, 92638, Note_on_c, 1, 62, 81
3, 92640, Note_off_c, 1, 67, 67
3, 92641, Note_on_c, 1, 59, 78
3, 92759, Note_off_c, 1, 62, 62
3, 92760, Note_on_c, 1, 67, 77
3, 92761, Note_off_c, 1, 59, 65
3, 92878, Note_on_c, 1, 62, 83
3, 92879, Note_on_c, 1, 59, 77
3, 92880, Note_off_c, 1, 67, 62
3, 92999, Note_off_c, 1, 62, 62
3, 92999, Note_on_c, 1, 67, 81
3, 93000, Note_off_c, 1, 59, 65
3, 93117, Note_off_c, 1, 67, 67
3, 93118, Note_on_c, 1, 57, 82
3, 93120, Note_on_c, 1, 60, 78
3, 93238, Note_off_c, 1, 57, 67
3, 93241, Note_off_c, 1, 60, 61
3, 93242, Note_on_c, 1, 65, 81
3, 93358, Note_on_c, 1, 62, 80
3, 93360, Note_on_c, 1, 59, 79
3, 93362, Note_off_c, 1, 65, 62
3, 93478, Note_off_c, 1, 62, 63
3, 93480, Note_off_c, 1, 59, 66
3, 93480, Note_on_c, 1, 67, 81
3, 93601, Note_off_c, 1, 67, 64
3, 93601, Note_on_c, 1, 64, 79
3, 93602, Note_on_c, 1, 60, 83
3, 93721, Note_off_c, 1, 60, 63
3, 93721, Note_off_c, 1, 64, 61
3, 93722, Note_on_c, 1, 67, 78
3, 93838, Note_on_c, 1, 53, 81
3, 93841, Note_off_c, 1, 67, 64
3, 93960, Note_off_c, 1, 53, 66
3, 93960, Note_on_c, 1, 65, 81
3, 94078, Note_on_c, 1, 55, 79
3, 94082, Note_off_c, 1, 65, 66
3, 94200, Note_off_c, 1, 55, 63
3, 94202, Note_on_c, 1, 64, 80
3, 94320, Note_on_c, 1, 55, 81
3, 94323, Note_off_c, 1, 64, 63
3, 94438, Note_on_c, 1, 65, 83
3, 94442, Note_off_c, 1, 55, 66
3, 94560, Note_off_c, 1, 65, 64
3, 94562, Note_on_c, 1, 48, 79
3, 94680, Note_off_c, 1, 48, 67
3, 94680, Note_on_c, 1, 55, 82
3, 94800, Note_off_c, 1, 55, 63
3, 94801, Note_on_c, 1, 55, 79
3, 94919, Note_off_c, 1, 55, 67
3, 94922, Note_on_c, 1, 55, 83
3, 95039, Note_on_c, 1, 60, 77
3, 95040, Note_off_c, 1, 55, 64
3, 95040, Note_on_c, 1, 52, 78
3, 95159, Note_off_c, 1, 52, 66
3, 95162, Note_on_c, 1, 55, 82
3, 95279, Note_on_c, 1, 55, 78
3, 95283, Note_off_c, 1, 55, 65
3, 95402, Note_on_c, 1, 55, 80
3, 95403, Note_off_c, 1, 55, 62
3, 95517, Note_off_c, 1, 60, 61
3, 95518, Note_off_c, 1, 55, 64
3, 95518, Note_on_c, 1, 50, 82
3, 95520, Note_on_c, 1, 59, 81
3, 95637, Note_off_c, 1, 50, 64
3, 95639, Note_on_c, 1, 55, 82
3, 95759, Note_off_c, 1, 55, 62
3, 95760, Note_on_c, 1, 55, 82
3, 95879, Note_off_c, 1, 55, 62
3, 95881, Note_on_c, 1, 55, 81
3, 95998, Note_off_c, 1, 59, 61
3, 96002, Note_off_c, 1, 55, 61
3, 96002, Note_on_c, 1, 62, 81
3, 96002, Note_on_c, 1, 53, 83
3, 96122, Note_on_c, 1, 55, 82
3, 96123, Note_off_c, 1, 53, 63
3, 96238, Note_on_c, 1, 55, 82
3, 96243, Note_off_c, 1, 55, 65
3, 96360, Note_off_c, 1, 55, 61
3, 96362, Note_on_c, 1, 55, 79
3, 96480, Note_off_c, 1, 55, 64
3, 96480, Note_on_c, 1, 52, 83
3, 96481, Note_on_c, 1, 60, 79
3, 96482, Note_off_c, 1, 62, 66
3, 96600, Note_on_c, 1, 55, 78
3, 96602, Note_off_c, 1, 52, 63
3, 96720, Note_off_c, 1, 55, 67
3, 96721, Note_on_c, 1, 55, 78
3, 96840, Note_off_c, 1, 55, 64
3, 96841, Note_on_c, 1, 55, 82
3, 96959, Note_on_c, 1, 52, 82
3, 96960, Note_off_c, 1, 55, 67
3, 96960, Note_on_c, 1, 48, 80
3, 96963, Note_off_c, 1, 60, 63
3, 97077, Note_off_c, 1, 52, 65
3, 97079, Note_on_c, 1, 55, 78
3, 97198, Note_on_c, 1, 55, 79
3, 97201, Note_off_c, 1, 55, 66
3, 97319, Note_off_c, 1, 55, 62
3, 97319, Note_on_c, 1, 55, 79
3, 97439, Note_off_c, 1, 48, 63
3, 97441, Note_off_c, 1, 55, 67
3, 97441, Note_on_c, 1, 53, 82
3, 97441, Note_on_c, 1, 50, 78
3, 97558, Note_on_c, 1, 55, 78
3, 97559, Note_off_c, 1, 53, 65
3, 97679, Note_off_c, 1, 55, 66
3, 97679, Note_on_c, 1, 55, 79
3, 97797, Note_off_c, 1, 55, 62
3, 97800, Note_on_c, 1, 55, 77
3, 97919, Note_on_c, 1, 53, 83
3, 97921, Note_off_c, 1, 50, 63
3, 97922, Note_off_c, 1, 55, 66
3, 97922, Note_on_c, 1, 47, 79
3, 98039, Note_off_c, 1, 53, 66
3, 98041, Note_on_c, 1, 55, 82
3, 98159, Note_on_c, 1, 55, 82
3, 98160, Note_off_c, 1, 55, 65
3, 98278, Note_on_c, 1, 55, 77
3, 98280, Note_off_c, 1, 55, 63
3, 98396, Note_off_c, 1, 55, 64
3, 98400, Note_on_c, 1, 52, 81
3, 98402, Note_on_c, 1, 48, 77
3, 98404, Note_off_c, 1, 47, 65
3, 98642, Note_off_c, 1, 52, 65
3, 98644, Note_off_c, 1, 48, 66
3, 99840, Note_on_c, 1, 64, 77
3, 99841, Note_on_c, 1, 60, 79
3, 99959, Note_off_c, 1, 64, 67
3, 99961, Note_off_c, 1, 60, 62
3, 99962, Note_on_c, 1, 67, 82
3, 100078, Note_on_c, 1, 64, 80
3, 100079, Note_on_c, 1, 60, 77
3, 100083, Note_off_c, 1, 67, 67
3, 100197, Note_off_c, 1, 64, 63
3, 100201, Note_off_c, 1, 60, 62
3, 100202, Note_on_c, 1, 67, 81
3, 100318, Note_on_c, 1, 65, 83
3, 100322, Note_on_c, 1, 62, 83
3, 100322, Note_on_c, 1, 67, 78
3, 100324, Note_off_c, 1, 67, 64
3, 100799, Note_off_c, 1, 65, 64
3, 100801, Note_on_c, 1, 65, 82
3, 100802, Note_on_c, 1, 62, 77
3, 100803, Note_off_c, 1, 67, 67
3, 100803, Note_off_c, 1, 62, 65
3, 100918, Note_on_c, 1, 68, 80
3, 100919, Note_off_c, 1, 65, 65
3, 100922, Note_off_c, 1, 62, 61
3, 101039, Note_off_c, 1, 68, 65
3, 101040, Note_on_c, 1, 65, 79
3, 101041, Note_on_c, 1, 62, 83
3, 101160, Note_off_c, 1, 62, 64
3, 101160, Note_on_c, 1, 68, 80
3, 101161, Note_off_c, 1, 65, 67
3, 101278, Note_off_c, 1, 68, 65
3, 101278, Note_on_c, 1, 63, 78
3, 101281, Note_on_c, 1, 67, 77
3, 101756, Note_off_c, 1, 63, 63
3, 101759, Note_on_c, 1, 66, 83
3, 101761, Note_off_c, 1, 67, 61
3, 101880, Note_off_c, 1, 66, 63
3, 101880, Note_on_c, 1, 68, 77
3, 101999, Note_on_c, 1, 66, 78
3, 102000, Note_off_c, 1, 68, 64
3, 102120, Note_off_c, 1, 66, 63
3, 102122, Note_on_c, 1, 68, 79
3, 102240, Note_off_c, 1, 68, 62
3, 102241, Note_on_c, 1, 65, 83
3, 102359, Note_on_c, 1, 68, 81
3, 102363, Note_off_c, 1, 65, 61
3, 102480, Note_off_c, 1, 68, 66
3, 102481, Note_on_c, 1, 65, 83
3, 102601, Note_off_c, 1, 65, 67
3, 102601, Note_on_c, 1, 68, 79
3, 102719, Note_on_c, 1, 60, 81
3, 102722, Note_off_c, 1, 68, 66
3, 102840, Note_off_c, 1, 60, 65
3, 102840, Note_on_c, 1, 68, 83
3, 102959, Note_off_c, 1, 68, 62
3, 102962, Note_on_c, 1, 60, 83
3, 103079, Note_on_c, 1, 68, 78
3, 103080, Note_off_c, 1, 60, 61
3, 103198, Note_on_c, 1, 61, 82
3, 103200, Note_off_c, 1, 68, 64
3, 103317, Note_off_c, 1, 61, 66
3, 103321, Note_on_c, 1, 68, 81
3, 103438, Note_on_c, 1, 61, 83
3, 103439, Note_off_c, 1, 68, 67
3, 103559, Note_off_c, 1, 61, 62
3, 103559, Note_on_c, 1, 68, 79
3, 103678, Note_on_c, 1, 54, 77
3, 103678, Note_on_c, 1, 63, 83
3, 103681, Note_off_c, 1, 68, 66
3, 103799, Note_off_c, 1, 63, 62
3, 103800, Note_off_c, 1, 54, 67
3, 103802, Note_on_c, 1, 56, 82
3, 103918, Note_on_c, 1, 63, 78
3, 103921, Note_off_c, 1, 56, 61
3, 103922, Note_on_c, 1, 54, 78
3, 104039, Note_off_c, 1, 63, 67
3, 104041, Note_on_c, 1, 56, 77
3, 104044, Note_off_c, 1, 54, 61
3, 104160, Note_on_c, 1, 61, 82
3, 104161, Note_on_c, 1, 53, 80
3, 104163, Note_off_c, 1, 56, 62
3, 104281, Note_off_c, 1, 53, 65
3, 104282, Note_on_c, 1, 56, 80
3, 104399, Note_on_c, 1, 53, 78
3, 104402, Note_off_c, 1, 56, 64
3, 104517, Note_off_c, 1, 53, 61
3, 104521, Note_on_c, 1, 56, 83
3, 104638, Note_on_c, 1, 48, 81
3, 104640, Note_on_c, 1, 60, 81
3, 104641, Note_off_c, 1, 56, 65
3, 104642, Note_off_c, 1, 61, 63
3, 104759, Note_off_c, 1, 60, 61
3, 104759, Note_on_c, 1, 56, 81
3, 104760, Note_off_c, 1, 48, 67
3, 104879, Note_on_c, 1, 60, 77
3, 104881, Note_off_c, 1, 56, 67
3, 104881, Note_on_c, 1, 48, 78
3, 104999, Note_off_c, 1, 48, 66
3, 104999, Note_off_c, 1, 60, 64
3, 105000, Note_on_c, 1, 56, 80
3, 105119, Note_on_c, 1, 49, 77
3, 105120, Note_off_c, 1, 56, 66
3, 105120, Control_c, 1, 64, 127
3, 105178, Note_on_c, 1, 53, 83
3, 105181, Note_off_c, 1, 49, 58
3, 105238, Note_off_c, 1, 53, 55
3, 105240, Note_on_c, 1, 56, 82
3, 105299, Note_off_c, 1, 56, 59
3, 105299, Note_on_c, 1, 61, 79
3, 105361, Note_off_c, 1, 61, 55
3, 105552, Control_c, 1, 64, 0
3, 105599, Note_on_c, 1, 54, 81
3, 105600, Control_c, 1, 64, 127
3, 105657, Note_off_c, 1, 54, 59
3, 105662, Note_on_c, 1, 56, 78
3, 105718, Note_on_c, 1, 60, 83
3, 105720, Note_off_c, 1, 56, 54
3, 105776, Note_off_c, 1, 60, 54
3, 105779, Note_on_c, 1, 63, 81
3, 105840, Note_off_c, 1, 63, 54
3, 106032, Control_c, 1, 64, 0
3, 106080, Note_on_c, 1, 53, 84
3, 106080, Control_c, 1, 64, 127
3, 106142, Note_off_c, 1, 53, 59
3, 106142, Note_on_c, 1, 56, 82
3, 106202, Note_on_c, 1, 61, 82
3, 106203, Note_off_c, 1, 56, 54
3, 106260, Note_on_c, 1, 65, 83
3, 106261, Note_off_c, 1, 61, 54
3, 106321, Note_off_c, 1, 65, 58
3, 106512, Control_c, 1, 64, 0
3, 106558, Note_on_c, 1, 51, 86
3, 106560, Control_c, 1, 64, 127
3, 106620, Note_off_c, 1, 51, 56
3, 106622, Note_on_c, 1, 56, 88
3, 106678, Note_on_c, 1, 60, 83
3, 106680, Note_off_c, 1, 56, 54
3, 106737, Note_off_c, 1, 60, 59
3, 106742, Note_on_c, 1, 63, 87
3, 106803, Note_off_c, 1, 63, 55
3, 106992, Control_c, 1, 64, 0
3, 107038, Note_on_c, 1, 49, 89
3, 107040, Control_c, 1, 64, 127
3, 107096, Note_off_c, 1, 49, 57
3, 107098, Note_on_c, 1, 53, 85
3, 107160, Note_off_c, 1, 53, 54
3, 107160, Note_on_c, 1, 56, 90
3, 107218, Note_on_c, 1, 61, 88
3, 107221, Note_off_c, 1, 56, 54
3, 107279, Note_off_c, 1, 61, 55
3, 107472, Control_c, 1, 64, 0
3, 107520, Note_on_c, 1, 48, 85
3, 107520, Control_c, 1, 64, 127
3, 107580, Note_off_c, 1, 48, 55
3, 107580, Note_on_c, 1, 53, 88
3, 107638, Note_off_c, 1, 53, 55
3, 107640, Note_on_c, 1, 56, 89
3, 107698, Note_off_c, 1, 56, 59
3, 107699, Note_on_c, 1, 60, 90
3, 107759, Note_off_c, 1, 60, 54
3, 107952, Control_c, 1, 64, 0
3, 107998, Note_on_c, 1, 50, 87
3, 108000, Control_c, 1, 64, 127
3, 108056, Note_off_c, 1, 50, 58
3, 108058, Note_on_c, 1, 53, 93
3, 108118, Note_off_c, 1, 53, 56
3, 108121, Note_on_c, 1, 56, 88
3, 108180, Note_on_c, 1, 59, 92
3, 108181, Note_off_c, 1, 56, 59
3, 108241, Note_off_c, 1, 59, 55
3, 108432, Control_c, 1, 64, 0
3, 108480, Control_c, 1, 64, 127
3, 108481, Note_on_c, 1, 48, 91
3, 108539, Note_off_c, 1, 48, 55
3, 108540, Note_on_c, 1, 51, 89
3, 108598, Note_on_c, 1, 55, 94
3, 108600, Note_off_c, 1, 51, 55
3, 108658, Note_off_c, 1, 55, 55
3, 108658, Note_on_c, 1, 60, 93
3, 108720, Note_off_c, 1, 60, 55
3, 108912, Control_c, 1, 64, 0
3, 108959, Note_on_c, 1, 41, 95
3, 108960, Control_c, 1, 64, 127
3, 109020, Note_on_c, 1, 44, 91
3, 109021, Note_off_c, 1, 41, 59
3, 109078, Note_off_c, 1, 44, 59
3, 109081, Note_on_c, 1, 48, 92
3, 109142, Note_on_c, 1, 53, 90
3, 109143, Note_off_c, 1, 48, 58
3, 109204, Note_off_c, 1, 53, 55
3, 109392, Control_c, 1, 64, 0
3, 109439, Note_on_c, 1, 43, 92
3, 109440, Control_c, 1, 64, 127
3, 109499, Note_on_c, 1, 46, 93
3, 109500, Note_off_c, 1, 43, 59
3, 109557, Note_off_c, 1, 46, 57
3, 109562, Note_on_c, 1, 48, 96
3, 109620, Note_off_c, 1, 48, 53
3, 109621, Note_on_c, 1, 55, 97
3, 109683, Note_off_c, 1, 55, 54
3, 109872, Control_c, 1, 64, 0
3, 109918, Note_on_c, 1, 44, 97
3, 109920, Control_c, 1, 64, 127
3, 109978, Note_off_c, 1, 44, 58
3, 109981, Note_on_c, 1, 48, 98
3, 110040, Note_off_c, 1, 48, 53
3, 110042, Note_on_c, 1, 53, 94
3, 110099, Note_on_c, 1, 56, 94
3, 110103, Note_off_c, 1, 53, 55
3, 110160, Note_off_c, 1, 56, 56
3, 110352, Control_c, 1, 64, 0
3, 110400, Note_on_c, 1, 45, 97
3, 110400, Control_c, 1, 64, 127
3, 110458, Note_off_c, 1, 45, 54
3, 110459, Note_on_c, 1, 48, 100
3, 110520, Note_on_c, 1, 51, 98
3, 110521, Note_off_c, 1, 48, 53
3, 110580, Note_off_c, 1, 51, 54
3, 110580, Note_on_c, 1, 57, 96
3, 110640, Note_off_c, 1, 57, 56
3, 110832, Control_c, 1, 64, 0
3, 110882, Note_on_c, 1, 43, 81
3, 111000, Note_off_c, 1, 43, 66
3, 111002, Note_on_c, 1, 55, 81
3, 111074, Note_off_c, 1, 55, 67
3, 111118, Note_on_c, 1, 55, 80
3, 111192, Note_off_c, 1, 55, 66
3, 111242, Note_on_c, 1, 55, 78
3, 111315, Note_off_c, 1, 55, 61
3, 111362, Note_on_c, 1, 55, 82
3, 111436, Note_off_c, 1, 55, 62
3, 111478, Note_on_c, 1, 55, 81
3, 111548, Note_off_c, 1, 55, 65
3, 111600, Note_on_c, 1, 55, 80
3, 111674, Note_off_c, 1, 55, 65
3, 111720, Note_on_c, 1, 55, 83
3, 111794, Note_off_c, 1, 55, 63
3, 111841, Note_on_c, 1, 43, 81
3, 111960, Note_on_c, 1, 55, 79
3, 111963, Note_off_c, 1, 43, 66
3, 112078, Note_off_c, 1, 55, 66
3, 112079, Note_on_c, 1, 43, 77
3, 112201, Note_off_c, 1, 43, 67
3, 112202, Note_on_c, 1, 55, 81
3, 112320, Note_off_c, 1, 55, 66
3, 112320, Note_on_c, 1, 43, 81
3, 112440, Note_on_c, 1, 55, 83
3, 112441, Note_off_c, 1, 43, 64
3, 112558, Note_off_c, 1, 55, 61
3, 112558, Note_on_c, 1, 43, 82
3, 112676, Note_off_c, 1, 43, 61
3, 112680, Note_on_c, 1, 55, 79
3, 112799, Note_on_c, 1, 43, 81
3, 112802, Note_off_c, 1, 55, 63
3, 112849, Note_off_c, 1, 43, 65
3, 112882, Note_on_c, 1, 48, 82
3, 112931, Note_off_c, 1, 48, 64
3, 112959, Note_on_c, 1, 52, 83
3, 113007, Note_off_c, 1, 52, 64
3, 113039, Note_on_c, 1, 55, 81
3, 113085, Note_off_c, 1, 55, 61
3, 113119, Note_on_c, 1, 60, 77
3, 113166, Note_off_c, 1, 60, 62
3, 113200, Note_on_c, 1, 64, 80
3, 113250, Note_off_c, 1, 64, 61
3, 113282, Note_on_c, 1, 67, 80
3, 113355, Note_off_c, 1, 67, 62
3, 113398, Note_on_c, 1, 55, 77
3, 113468, Note_off_c, 1, 55, 63
3, 113520, Note_on_c, 1, 55, 78
3, 113592, Note_off_c, 1, 55, 67
3, 113642, Note_on_c, 1, 55, 81
3, 113713, Note_off_c, 1, 55, 61
3, 113761, Note_on_c, 1, 43, 96
3, 113882, Note_off_c, 1, 43, 67
3, 113882, Note_on_c, 1, 55, 97
3, 113999, Note_on_c, 1, 43, 97
3, 114002, Note_off_c, 1, 55, 64
3, 114118, Note_off_c, 1, 43, 61
3, 114119, Note_on_c, 1, 55, 94
3, 114237, Note_off_c, 1, 55, 62
3, 114239, Note_on_c, 1, 43, 95
3, 114361, Note_off_c, 1, 43, 65
3, 114361, Note_on_c, 1, 55, 93
3, 114482, Note_on_c, 1, 43, 98
3, 114483, Note_off_c, 1, 55, 64
3, 114600, Note_off_c, 1, 43, 67
3, 114602, Note_on_c, 1, 55, 95
3, 114721, Note_on_c, 1, 48, 80
3, 114724, Note_off_c, 1, 55, 63
3, 114779, Note_off_c, 1, 48, 53
3, 114780, Note_on_c, 1, 60, 83
3, 114840, Note_off_c, 1, 60, 53
3, 114841, Note_on_c, 1, 55, 81
3, 114900, Note_off_c, 1, 55, 58
3, 114900, Note_on_c, 1, 60, 78
3, 114959, Note_on_c, 1, 52, 83
3, 114960, Note_off_c, 1, 60, 54
3, 115020, Note_off_c, 1, 52, 58
3, 115021, Note_on_c, 1, 60, 82
3, 115079, Note_off_c, 1, 60, 53
3, 115081, Note_on_c, 1, 55, 82
3, 115140, Note_off_c, 1, 55, 56
3, 115140, Note_on_c, 1, 60, 81
3, 115198, Note_on_c, 1, 53, 83
3, 115200, Note_off_c, 1, 60, 54
3, 115257, Note_off_c, 1, 53, 53
3, 115258, Note_on_c, 1, 62, 78
3, 115316, Note_off_c, 1, 62, 55
3, 115320, Note_on_c, 1, 55, 80
3, 115378, Note_off_c, 1, 55, 56
3, 115380, Note_on_c, 1, 62, 83
3, 115439, Note_off_c, 1, 62, 55
3, 115439, Note_on_c, 1, 53, 81
3, 115499, Note_off_c, 1, 53, 55
3, 115502, Note_on_c, 1, 62, 81
3, 115561, Note_on_c, 1, 55, 78
3, 115564, Note_off_c, 1, 62, 59
3, 115620, Note_off_c, 1, 55, 58
3, 115621, Note_on_c, 1, 62, 77
3, 115680, Note_on_c, 1, 52, 82
3, 115683, Note_off_c, 1, 62, 59
3, 115740, Note_off_c, 1, 52, 55
3, 115740, Note_on_c, 1, 60, 77
3, 115798, Note_on_c, 1, 55, 77
3, 115801, Note_off_c, 1, 60, 54
3, 115856, Note_off_c, 1, 55, 55
3, 115862, Note_on_c, 1, 60, 78
3, 115919, Note_on_c, 1, 52, 78
3, 115921, Note_off_c, 1, 60, 54
3, 115978, Note_on_c, 1, 60, 79
3, 115979, Note_off_c, 1, 52, 59
3, 116038, Note_on_c, 1, 55, 82
3, 116040, Note_off_c, 1, 60, 56
3, 116096, Note_off_c, 1, 55, 55
3, 116101, Note_on_c, 1, 60, 83
3, 116161, Note_on_c, 1, 53, 81
3, 116162, Note_off_c, 1, 60, 55
3, 116219, Note_on_c, 1, 62, 77
3, 116221, Note_off_c, 1, 53, 54
3, 116278, Note_on_c, 1, 55, 82
3, 116280, Note_off_c, 1, 62, 58
3, 116336, Note_off_c, 1, 55, 59
3, 116340, Note_on_c, 1, 62, 83
3, 116398, Note_off_c, 1, 62, 56
3, 116398, Note_on_c, 1, 53, 83
3, 116460, Note_off_c, 1, 53, 55
3, 116461, Note_on_c, 1, 62, 77
3, 116519, Note_on_c, 1, 55, 77
3, 116523, Note_off_c, 1, 62, 59
3, 116579, Note_on_c, 1, 62, 81
3, 116580, Note_off_c, 1, 55, 56
3, 116640, Note_off_c, 1, 62, 58
3, 116642, Note_on_c, 1, 52, 79
3, 116701, Note_off_c, 1, 52, 57
3, 116702, Note_on_c, 1, 60, 78
3, 116758, Note_on_c, 1, 55, 83
3, 116764, Note_off_c, 1, 60, 59
3, 116819, Note_off_c, 1, 55, 53
3, 116819, Note_on_c, 1, 60, 79
3, 116881, Note_off_c, 1, 60, 59
3, 116881, Note_on_c, 1, 52, 78
3, 116940, Note_off_c, 1, 52, 56
3, 116942, Note_on_c, 1, 60, 77
3, 117000, Note_on_c, 1, 55, 79
3, 117001, Note_off_c, 1, 60, 57
3, 117058, Note_on_c, 1, 60, 81
3, 117060, Note_off_c, 1, 55, 56
3, 117116, Note_off_c, 1, 60, 57
3, 117119, Note_on_c, 1, 53, 83
3, 117180, Note_off_c, 1, 53, 53
3, 117180, Note_on_c, 1, 62, 82
3, 117238, Note_off_c, 1, 62, 56
3, 117242, Note_on_c, 1, 55, 80
3, 117300, Note_on_c, 1, 62, 78
3, 117301, Note_off_c, 1, 55, 56
3, 117358, Note_off_c, 1, 62, 54
3, 117361, Note_on_c, 1, 53, 82
3, 117418, Note_on_c, 1, 62, 77
3, 117420, Note_off_c, 1, 53, 56
3, 117478, Note_off_c, 1, 62, 55
3, 117478, Note_on_c, 1, 55, 77
3, 117538, Note_off_c, 1, 55, 55
3, 117539, Note_on_c, 1, 62, 79
3, 117597, Note_off_c, 1, 62, 54
3, 117598, Note_on_c, 1, 52, 81
3, 117656, Note_off_c, 1, 52, 54
3, 117662, Note_on_c, 1, 60, 80
3, 117718, Note_on_c, 1, 55, 77
3, 117720, Note_off_c, 1, 60, 55
3, 117777, Note_off_c, 1, 55, 57
3, 117780, Note_on_c, 1, 60, 77
3, 117840, Note_on_c, 1, 52, 81
3, 117841, Note_off_c, 1, 60, 57
3, 117900, Note_off_c, 1, 52, 53
3, 117902, Note_on_c, 1, 60, 83
3, 117958, Note_on_c, 1, 55, 79
3, 117960, Note_off_c, 1, 60, 53
3, 117962, Note_on_c, 1, 60, 82
3, 118018, Note_off_c, 1, 55, 57
3, 118022, Note_on_c, 1, 53, 78
3, 118024, Note_off_c, 1, 60, 54
3, 118079, Note_on_c, 1, 62, 82
3, 118080, Note_off_c, 1, 53, 59
3, 118137, Note_off_c, 1, 62, 58
3, 118141, Note_on_c, 1, 55, 80
3, 118201, Note_off_c, 1, 55, 54
3, 118202, Note_on_c, 1, 62, 81
3, 118261, Note_off_c, 1, 62, 57
3, 118261, Note_on_c, 1, 53, 83
3, 118318, Note_on_c, 1, 55, 80
3, 118321, Note_on_c, 1, 62, 77
3, 118323, Note_off_c, 1, 53, 55
3, 118379, Note_off_c, 1, 55, 59
3, 118380, Note_off_c, 1, 62, 58
3, 118381, Note_on_c, 1, 62, 82
3, 118438, Note_on_c, 1, 52, 80
3, 118443, Note_off_c, 1, 62, 57
3, 118496, Note_off_c, 1, 52, 53
3, 118499, Note_on_c, 1, 60, 77
3, 118558, Note_off_c, 1, 60, 57
3, 118561, Note_on_c, 1, 52, 77
3, 118622, Note_off_c, 1, 52, 55
3, 118622, Note_on_c, 1, 60, 81
3, 118681, Note_on_c, 1, 55, 79
3, 118684, Note_off_c, 1, 60, 55
3, 118740, Note_on_c, 1, 60, 82
3, 118742, Note_off_c, 1, 55, 56
3, 118801, Note_on_c, 1, 52, 82
3, 118802, Note_off_c, 1, 60, 54
3, 118859, Note_off_c, 1, 52, 55
3, 118861, Note_on_c, 1, 60, 79
3, 118918, Note_on_c, 1, 55, 84
3, 118919, Note_off_c, 1, 60, 59
3, 118980, Note_off_c, 1, 55, 54
3, 118982, Note_on_c, 1, 60, 83
3, 119038, Note_on_c, 1, 53, 86
3, 119040, Note_off_c, 1, 60, 56
3, 119098, Note_off_c, 1, 53, 56
3, 119100, Note_on_c, 1, 62, 82
3, 119158, Note_on_c, 1, 55, 84
3, 119162, Note_off_c, 1, 62, 56
3, 119217, Note_off_c, 1, 55, 53
3, 119218, Note_on_c, 1, 62, 85
3, 119277, Note_off_c, 1, 62, 59
3, 119282, Note_on_c, 1, 53, 84
3, 119339, Note_on_c, 1, 62, 86
3, 119340, Note_off_c, 1, 53, 54
3, 119401, Note_off_c, 1, 62, 58
3, 119401, Note_on_c, 1, 55, 84
3, 119458, Note_on_c, 1, 62, 83
3, 119459, Note_off_c, 1, 55, 53
3, 119516, Note_off_c, 1, 62, 55
3, 119521, Note_on_c, 1, 52, 88
3, 119582, Note_on_c, 1, 60, 85
3, 119583, Note_off_c, 1, 52, 59
3, 119638, Note_on_c, 1, 55, 89
3, 119643, Note_off_c, 1, 60, 55
3, 119696, Note_off_c, 1, 55, 57
3, 119699, Note_on_c, 1, 60, 90
3, 119757, Note_off_c, 1, 60, 56
3, 119759, Note_on_c, 1, 52, 90
3, 119820, Note_off_c, 1, 52, 54
3, 119820, Note_on_c, 1, 58, 88
3, 119878, Note_on_c, 1, 55, 88
3, 119880, Note_off_c, 1, 58, 55
3, 119939, Note_on_c, 1, 58, 88
3, 119940, Note_off_c, 1, 55, 53
3, 119997, Note_off_c, 1, 58, 58
3, 120000, Note_on_c, 1, 53, 92
3, 120059, Note_off_c, 1, 53, 55
3, 120059, Note_on_c, 1, 57, 92
3, 120117, Note_off_c, 1, 57, 57
3, 120118, Note_on_c, 1, 56, 89
3, 120180, Note_off_c, 1, 56, 56
3, 120181, Note_on_c, 1, 57, 89
3, 120238, Note_on_c, 1, 54, 94
3, 120239, Note_off_c, 1, 57, 55
3, 120296, Note_off_c, 1, 54, 58
3, 120301, Note_on_c, 1, 57, 92
3, 120359, Note_on_c, 1, 59, 90
3, 120362, Note_off_c, 1, 57, 53
3, 120418, Note_off_c, 1, 59, 59
3, 120418, Note_on_c, 1, 57, 95
3, 120477, Note_off_c, 1, 57, 59
3, 120481, Note_on_c, 1, 55, 95
3, 120539, Note_on_c, 1, 58, 95
3, 120541, Note_off_c, 1, 55, 54
3, 120599, Note_off_c, 1, 58, 56
3, 120602, Note_on_c, 1, 57, 97
3, 120662, Note_off_c, 1, 57, 55
3, 120662, Note_on_c, 1, 58, 95
3, 120719, Note_on_c, 1, 55, 92
3, 120720, Note_off_c, 1, 58, 54
3, 120778, Note_off_c, 1, 55, 57
3, 120779, Note_on_c, 1, 58, 96
3, 120839, Note_off_c, 1, 58, 57
3, 120842, Note_on_c, 1, 60, 97
3, 120898, Note_on_c, 1, 58, 98
3, 120903, Note_off_c, 1, 60, 56
3, 120957, Note_off_c, 1, 58, 57
3, 120959, Note_on_c, 1, 57, 97
3, 121019, Note_off_c, 1, 57, 55
3, 121021, Note_on_c, 1, 60, 99
3, 121079, Note_off_c, 1, 60, 57
3, 121080, Note_on_c, 1, 59, 97
3, 121140, Note_off_c, 1, 59, 58
3, 121141, Note_on_c, 1, 60, 97
3, 121198, Note_on_c, 1, 57, 101
3, 121203, Note_off_c, 1, 60, 59
3, 121258, Note_off_c, 1, 57, 57
3, 121258, Note_on_c, 1, 60, 95
3, 121316, Note_off_c, 1, 60, 57
3, 121322, Note_on_c, 1, 62, 98
3, 121380, Note_on_c, 1, 60, 97
3, 121381, Note_off_c, 1, 62, 53
3, 121438, Note_on_c, 1, 60, 97
3, 121439, Note_on_c, 1, 64, 98
3, 121441, Note_off_c, 1, 60, 59
3, 121677, Note_off_c, 1, 60, 61
3, 121681, Note_off_c, 1, 64, 63
3, 124318, Note_on_c, 1, 48, 81
3, 124318, Note_on_c, 1, 52, 81
3, 124321, Note_on_c, 1, 43, 78
3, 124796, Note_off_c, 1, 48, 66
3, 124799, Note_off_c, 1, 52, 67
3, 124801, Note_on_c, 1, 43, 82
3, 124801, Note_on_c, 1, 53, 77
3, 124802, Note_on_c, 1, 50, 77
3, 124803, Note_off_c, 1, 43, 66
3, 125278, Note_on_c, 1, 52, 81
3, 125279, Note_off_c, 1, 53, 61
3, 125280, Note_off_c, 1, 50, 64
3, 125280, Note_off_c, 1, 43, 61
3, 125280, Note_on_c, 1, 48, 80
3, 125519, Note_off_c, 1, 52, 61
3, 125522, Note_off_c, 1, 48, 66
3, 125701, Note_on_c, 1, 55, 77
3, 125760, Note_off_c, 1, 55, 59
3, 125761, Note_on_c, 1, 60, 80
3, 125761, Note_on_c, 1, 64, 83
3, 125954, Note_off_c, 1, 64, 61
3, 125954, Note_off_c, 1, 60, 64
3, 125998, Note_on_c, 1, 64, 82
3, 125999, Note_on_c, 1, 60, 79
3, 126190, Note_off_c, 1, 60, 62
3, 126190, Note_off_c, 1, 64, 63
3, 126239, Note_on_c, 1, 64, 79
3, 126241, Note_on_c, 1, 60, 81
3, 126359, Note_off_c, 1, 64, 63
3, 126361, Note_on_c, 1, 62, 78
3, 126362, Note_on_c, 1, 59, 79
3, 126363, Note_off_c, 1, 60, 64
3, 126478, Note_on_c, 1, 58, 77
3, 126480, Note_off_c, 1, 62, 64
3, 126481, Note_off_c, 1, 59, 61
3, 126482, Note_on_c, 1, 61, 81
3, 126600, Note_off_c, 1, 58, 65
3, 126600, Note_on_c, 1, 59, 83
3, 126602, Note_on_c, 1, 62, 80
3, 126604, Note_off_c, 1, 61, 67
3, 126701, Note_on_c, 1, 55, 81
3, 126719, Note_off_c, 1, 59, 65
3, 126719, Note_on_c, 1, 62, 80
3, 126720, Note_off_c, 1, 62, 64
3, 126721, Note_on_c, 1, 65, 81
3, 126732, Note_off_c, 1, 55, 67
3, 126910, Note_off_c, 1, 62, 65
3, 126915, Note_off_c, 1, 65, 63
3, 126961, Note_on_c, 1, 62, 77
3, 126961, Note_on_c, 1, 65, 77
3, 127152, Note_off_c, 1, 65, 67
3, 127152, Note_off_c, 1, 62, 65
3, 127201, Note_on_c, 1, 62, 77
3, 127202, Note_on_c, 1, 65, 82
3, 127321, Note_on_c, 1, 64, 77
3, 127321, Note_on_c, 1, 60, 77
3, 127323, Note_off_c, 1, 65, 64
3, 127323, Note_off_c, 1, 62, 63
3, 127439, Note_on_c, 1, 59, 82
3, 127440, Note_off_c, 1, 60, 61
3, 127441, Note_off_c, 1, 64, 62
3, 127442, Note_on_c, 1, 63, 80
3, 127557, Note_off_c, 1, 59, 65
3, 127559, Note_on_c, 1, 60, 79
3, 127561, Note_on_c, 1, 60, 80
3, 127561, Note_on_c, 1, 64, 82
3, 127562, Note_off_c, 1, 63, 66
3, 127679, Note_off_c, 1, 60, 64
3, 127680, Note_off_c, 1, 60, 65
3, 127680, Note_on_c, 1, 61, 82
3, 127680, Note_on_c, 1, 52, 82
3, 127682, Note_off_c, 1, 64, 65
3, 127871, Note_off_c, 1, 61, 63
3, 127874, Note_off_c, 1, 52, 66
3, 127920, Note_on_c, 1, 61, 82
3, 127920, Note_on_c, 1, 52, 83
3, 128111, Note_off_c, 1, 61, 66
3, 128112, Note_off_c, 1, 52, 66
3, 128158, Note_on_c, 1, 53, 78
3, 128162, Note_on_c, 1, 61, 78
3, 128281, Note_on_c, 1, 62, 78
3, 128282, Note_off_c, 1, 61, 62
3, 128401, Note_on_c, 1, 64, 82
3, 128403, Note_off_c, 1, 62, 62
3, 128522, Note_off_c, 1, 64, 67
3, 128522, Note_on_c, 1, 65, 77
3, 128638, Note_off_c, 1, 53, 65
3, 128638, Note_on_c, 1, 55, 97
3, 128641, Note_off_c, 1, 65, 64
3, 128642, Note_on_c, 1, 64, 92
3, 128708, Note_off_c, 1, 55, 66
3, 128715, Note_off_c, 1, 64, 62
3, 128882, Note_on_c, 1, 43, 107
3, 128882, Note_on_c, 1, 55, 109
3, 128953, Note_off_c, 1, 43, 66
3, 128954, Note_off_c, 1, 55, 66
3, 129120, Note_on_c, 1, 48, 110
3, 129121, Note_on_c, 1, 36, 108
3, 129359, Note_off_c, 1, 36, 62
3, 129362, Note_off_c, 1, 48, 63
3, 129362, End_track
4, 0, Start_track
4, 0, Title_t, "========================"
4, 0, End_track
5, 0, Start_track
5, 0, Title_t, "jaenfield@worldnet.att.net"
5, 0, End_track
0, 0, End_of_file