0, 0, Header, 1, 12, 480
1, 0, Start_track
1, 0, Title_t, "untitled"
1, 0, Time_signature, 4, 2, 24, 8
1, 0, Key_signature, -2, "major"
1, 0, Tempo, 461538
1, 366720, Tempo, 461538
1, 367518, Tempo, 468750
1, 372480, Tempo, 476190
1, 373440, Tempo, 461538
1, 410880, Tempo, 476190
1, 412260, Tempo, 465116
1, 412800, Tempo, 461538
1, 664320, Tempo, 500000
1, 664560, Tempo, 600000
1, 665520, Tempo, 857265
1, 666240, Tempo, 375000
1, 683520, Tempo, 375000
1, 683617, Tempo, 380566
1, 683714, Tempo, 386250
1, 683812, Tempo, 392054
1, 683909, Tempo, 398142
1, 684006, Tempo, 404367
1, 684104, Tempo, 410790
1, 684201, Tempo, 417391
1, 684300, Tempo, 424238
1, 684397, Tempo, 431313
1, 684494, Tempo, 438693
1, 684592, Tempo, 446229
1, 684689, Tempo, 454098
1, 684786, Tempo, 462178
1, 684884, Tempo, 470588
1, 684981, Tempo, 479348
1, 685080, Tempo, 488400
1, 685177, Tempo, 497760
1, 685274, Tempo, 500000
1, 685440, Tempo, 461538
1, 693120, Tempo, 428571
1, 695040, Tempo, 413793
1, 702720, Tempo, 428571
1, 703358, Tempo, 444444
1, 704160, Tempo, 461538
1, 710400, Tempo, 480000
1, 712317, Tempo, 545504
1, 714240, Tempo, 387147
1, 720000, Tempo, 375000
1, 721920, Tempo, 363636
1, 723840, Tempo, 352941
1, 737280, Tempo, 363636
1, 738000, Tempo, 400000
1, 738840, Tempo, 428571
1, 739200, Tempo, 600000
1, 739920, Tempo, 857265
1, 740400, Tempo, 400000
1, 742440, Tempo, 461538
1, 742440, End_track
2, 0, Start_track
2, 0, Title_t, "Flutes"
2, 0, Program_c, 0, 73
2, 0, Control_c, 0, 7, 65
2, 0, Control_c, 0, 10, 70
2, 0, Control_c, 0, 121, 0
2, 0, Control_c, 0, 91, 66
2, 15361, Note_on_c, 0, 82, 55
2, 15600, Note_on_c, 0, 82, 0
2, 15841, Note_on_c, 0, 82, 51
2, 16020, Note_on_c, 0, 82, 0
2, 16200, Note_on_c, 0, 82, 66
2, 16257, Note_on_c, 0, 82, 0
2, 16320, Note_on_c, 0, 82, 59
2, 16557, Note_on_c, 0, 82, 0
2, 16800, Note_on_c, 0, 82, 56
2, 17037, Note_on_c, 0, 82, 0
2, 17280, Note_on_c, 0, 84, 68
2, 17520, Note_on_c, 0, 84, 0
2, 17520, Note_on_c, 0, 81, 50
2, 17760, Note_on_c, 0, 81, 0
2, 17760, Note_on_c, 0, 82, 63
2, 18240, Note_on_c, 0, 82, 0
2, 19200, Note_on_c, 0, 84, 44
2, 19437, Note_on_c, 0, 84, 0
2, 19680, Note_on_c, 0, 84, 66
2, 19857, Note_on_c, 0, 84, 0
2, 20040, Note_on_c, 0, 84, 71
2, 20097, Note_on_c, 0, 84, 0
2, 20160, Note_on_c, 0, 84, 60
2, 20397, Note_on_c, 0, 84, 0
2, 20640, Note_on_c, 0, 84, 57
2, 20877, Note_on_c, 0, 84, 0
2, 21120, Note_on_c, 0, 82, 54
2, 21360, Note_on_c, 0, 82, 0
2, 21360, Note_on_c, 0, 84, 62
2, 21480, Note_on_c, 0, 84, 0
2, 21480, Note_on_c, 0, 86, 66
2, 21600, Note_on_c, 0, 86, 0
2, 21600, Note_on_c, 0, 84, 57
2, 22080, Note_on_c, 0, 84, 0
2, 32640, Note_on_c, 0, 82, 73
2, 33120, Note_on_c, 0, 82, 0
2, 33120, Note_on_c, 0, 77, 62
2, 33600, Note_on_c, 0, 77, 0
2, 33600, Note_on_c, 0, 82, 94
2, 34080, Note_on_c, 0, 82, 0
2, 34080, Note_on_c, 0, 86, 102
2, 34560, Note_on_c, 0, 86, 0
2, 34560, Note_on_c, 0, 89, 101
2, 39360, Note_on_c, 0, 89, 0
2, 39360, Note_on_c, 0, 86, 74
2, 39840, Note_on_c, 0, 86, 0
2, 39840, Note_on_c, 0, 82, 57
2, 40320, Note_on_c, 0, 82, 0
2, 40320, Note_on_c, 0, 77, 57
2, 41760, Note_on_c, 0, 77, 0
2, 41760, Note_on_c, 0, 77, 72
2, 42240, Note_on_c, 0, 77, 0
2, 42240, Note_on_c, 0, 87, 122
2, 43200, Note_on_c, 0, 87, 0
2, 43200, Note_on_c, 0, 84, 78
2, 43680, Note_on_c, 0, 84, 0
2, 43680, Note_on_c, 0, 81, 68
2, 44160, Note_on_c, 0, 81, 0
2, 44160, Note_on_c, 0, 86, 104
2, 44640, Note_on_c, 0, 86, 0
2, 46080, Note_on_c, 0, 89, 79
2, 46197, Note_on_c, 0, 89, 0
2, 46320, Note_on_c, 0, 82, 63
2, 46437, Note_on_c, 0, 82, 0
2, 46560, Note_on_c, 0, 84, 87
2, 46620, Note_on_c, 0, 84, 0
2, 46620, Note_on_c, 0, 82, 73
2, 46682, Note_on_c, 0, 82, 0
2, 46682, Note_on_c, 0, 81, 72
2, 46742, Note_on_c, 0, 81, 0
2, 46742, Note_on_c, 0, 82, 85
2, 47040, Note_on_c, 0, 82, 0
2, 47040, Note_on_c, 0, 86, 104
2, 47157, Note_on_c, 0, 86, 0
2, 47268, Note_on_c, 0, 77, 59
2, 47386, Note_on_c, 0, 77, 0
2, 47494, Note_on_c, 0, 79, 92
2, 47554, Note_on_c, 0, 79, 0
2, 47554, Note_on_c, 0, 77, 75
2, 47609, Note_on_c, 0, 77, 0
2, 47609, Note_on_c, 0, 76, 72
2, 47669, Note_on_c, 0, 76, 0
2, 47669, Note_on_c, 0, 77, 88
2, 48000, Note_on_c, 0, 77, 0
2, 48000, Note_on_c, 0, 82, 100
2, 48106, Note_on_c, 0, 82, 0
2, 48228, Note_on_c, 0, 74, 62
2, 48346, Note_on_c, 0, 74, 0
2, 48472, Note_on_c, 0, 74, 77
2, 49200, Note_on_c, 0, 74, 0
2, 49200, Note_on_c, 0, 76, 89
2, 49320, Note_on_c, 0, 76, 0
2, 49320, Note_on_c, 0, 77, 97
2, 49440, Note_on_c, 0, 77, 0
2, 49440, Note_on_c, 0, 79, 98
2, 49680, Note_on_c, 0, 79, 0
2, 49680, Note_on_c, 0, 76, 69
2, 49920, Note_on_c, 0, 76, 0
2, 49920, Note_on_c, 0, 77, 87
2, 50157, Note_on_c, 0, 77, 0
2, 50400, Note_on_c, 0, 89, 115
2, 50637, Note_on_c, 0, 89, 0
2, 53760, Note_on_c, 0, 87, 53
2, 54480, Note_on_c, 0, 87, 0
2, 54480, Note_on_c, 0, 84, 46
2, 54720, Note_on_c, 0, 84, 0
2, 54720, Note_on_c, 0, 81, 51
2, 55200, Note_on_c, 0, 81, 0
2, 55200, Note_on_c, 0, 81, 53
2, 55680, Note_on_c, 0, 81, 0
2, 57618, Note_on_c, 0, 87, 57
2, 57858, Note_on_c, 0, 87, 0
2, 57858, Note_on_c, 0, 86, 53
2, 58089, Note_on_c, 0, 86, 0
2, 58089, Note_on_c, 0, 87, 67
2, 58320, Note_on_c, 0, 87, 0
2, 58320, Note_on_c, 0, 84, 48
2, 58553, Note_on_c, 0, 84, 0
2, 58553, Note_on_c, 0, 81, 47
2, 59024, Note_on_c, 0, 81, 0
2, 59024, Note_on_c, 0, 81, 57
2, 59520, Note_on_c, 0, 81, 0
2, 60480, Note_on_c, 0, 87, 56
2, 61920, Note_on_c, 0, 87, 0
2, 61920, Note_on_c, 0, 88, 61
2, 62880, Note_on_c, 0, 88, 0
2, 62880, Note_on_c, 0, 86, 51
2, 63840, Note_on_c, 0, 86, 0
2, 63840, Note_on_c, 0, 87, 67
2, 64800, Note_on_c, 0, 87, 0
2, 64800, Note_on_c, 0, 84, 48
2, 65760, Note_on_c, 0, 84, 0
2, 65760, Note_on_c, 0, 85, 64
2, 66720, Note_on_c, 0, 85, 0
2, 66720, Note_on_c, 0, 82, 48
2, 67680, Note_on_c, 0, 82, 0
2, 67680, Note_on_c, 0, 83, 63
2, 68640, Note_on_c, 0, 83, 0
2, 68640, Note_on_c, 0, 81, 53
2, 69120, Note_on_c, 0, 81, 0
2, 69122, Note_on_c, 0, 82, 69
2, 69600, Note_on_c, 0, 82, 0
2, 78240, Note_on_c, 0, 84, 55
2, 78480, Note_on_c, 0, 84, 0
2, 78480, Note_on_c, 0, 82, 55
2, 78720, Note_on_c, 0, 82, 0
2, 78720, Note_on_c, 0, 82, 51
2, 78944, Note_on_c, 0, 82, 0
2, 78944, Note_on_c, 0, 81, 53
2, 79184, Note_on_c, 0, 81, 0
2, 79184, Note_on_c, 0, 79, 53
2, 79424, Note_on_c, 0, 79, 0
2, 79424, Note_on_c, 0, 77, 60
2, 79673, Note_on_c, 0, 77, 0
2, 79673, Note_on_c, 0, 76, 50
2, 79920, Note_on_c, 0, 76, 0
2, 79920, Note_on_c, 0, 77, 67
2, 80176, Note_on_c, 0, 77, 0
2, 80176, Note_on_c, 0, 79, 68
2, 80425, Note_on_c, 0, 79, 0
2, 80425, Note_on_c, 0, 81, 72
2, 80640, Note_on_c, 0, 81, 0
2, 80656, Note_on_c, 0, 82, 68
2, 80894, Note_on_c, 0, 82, 0
2, 80894, Note_on_c, 0, 84, 70
2, 80954, Note_on_c, 0, 84, 0
2, 80954, Note_on_c, 0, 82, 61
2, 81010, Note_on_c, 0, 82, 0
2, 81010, Note_on_c, 0, 81, 53
2, 81130, Note_on_c, 0, 81, 0
2, 81130, Note_on_c, 0, 82, 65
2, 81369, Note_on_c, 0, 82, 0
2, 81369, Note_on_c, 0, 84, 69
2, 81486, Note_on_c, 0, 84, 0
2, 81606, Note_on_c, 0, 86, 73
2, 82081, Note_on_c, 0, 86, 0
2, 85920, Note_on_c, 0, 87, 57
2, 86160, Note_on_c, 0, 87, 0
2, 86160, Note_on_c, 0, 84, 49
2, 86400, Note_on_c, 0, 84, 0
2, 86400, Note_on_c, 0, 82, 47
2, 86629, Note_on_c, 0, 82, 0
2, 86629, Note_on_c, 0, 81, 49
2, 86869, Note_on_c, 0, 81, 0
2, 86869, Note_on_c, 0, 79, 44
2, 87109, Note_on_c, 0, 79, 0
2, 87109, Note_on_c, 0, 77, 43
2, 87356, Note_on_c, 0, 77, 0
2, 87356, Note_on_c, 0, 76, 59
2, 87600, Note_on_c, 0, 76, 0
2, 87600, Note_on_c, 0, 77, 65
2, 87849, Note_on_c, 0, 77, 0
2, 87849, Note_on_c, 0, 79, 71
2, 88094, Note_on_c, 0, 79, 0
2, 88094, Note_on_c, 0, 81, 68
2, 88320, Note_on_c, 0, 81, 0
2, 88336, Note_on_c, 0, 82, 74
2, 88574, Note_on_c, 0, 82, 0
2, 88574, Note_on_c, 0, 84, 72
2, 88634, Note_on_c, 0, 84, 0
2, 88634, Note_on_c, 0, 82, 50
2, 88690, Note_on_c, 0, 82, 0
2, 88690, Note_on_c, 0, 81, 50
2, 88810, Note_on_c, 0, 81, 0
2, 88810, Note_on_c, 0, 82, 64
2, 89049, Note_on_c, 0, 82, 0
2, 89049, Note_on_c, 0, 86, 72
2, 89166, Note_on_c, 0, 86, 0
2, 89286, Note_on_c, 0, 77, 42
2, 90000, Note_on_c, 0, 77, 0
2, 90000, Note_on_c, 0, 79, 60
2, 90120, Note_on_c, 0, 79, 0
2, 90120, Note_on_c, 0, 81, 71
2, 90240, Note_on_c, 0, 81, 0
2, 90240, Note_on_c, 0, 82, 73
2, 90480, Note_on_c, 0, 82, 0
2, 90480, Note_on_c, 0, 84, 69
2, 90540, Note_on_c, 0, 84, 0
2, 90540, Note_on_c, 0, 82, 53
2, 90600, Note_on_c, 0, 82, 0
2, 90600, Note_on_c, 0, 81, 55
2, 90720, Note_on_c, 0, 81, 0
2, 90720, Note_on_c, 0, 82, 62
2, 90960, Note_on_c, 0, 82, 0
2, 90960, Note_on_c, 0, 86, 70
2, 91200, Note_on_c, 0, 86, 0
2, 91200, Note_on_c, 0, 77, 47
2, 91920, Note_on_c, 0, 77, 0
2, 91920, Note_on_c, 0, 79, 72
2, 92040, Note_on_c, 0, 79, 0
2, 92040, Note_on_c, 0, 81, 67
2, 92160, Note_on_c, 0, 81, 0
2, 92160, Note_on_c, 0, 82, 68
2, 92400, Note_on_c, 0, 82, 0
2, 92400, Note_on_c, 0, 84, 71
2, 92460, Note_on_c, 0, 84, 0
2, 92460, Note_on_c, 0, 82, 57
2, 92520, Note_on_c, 0, 82, 0
2, 92520, Note_on_c, 0, 81, 47
2, 92640, Note_on_c, 0, 81, 0
2, 92640, Note_on_c, 0, 82, 66
2, 92880, Note_on_c, 0, 82, 0
2, 92880, Note_on_c, 0, 86, 76
2, 93113, Note_on_c, 0, 86, 0
2, 93113, Note_on_c, 0, 77, 41
2, 93352, Note_on_c, 0, 77, 0
2, 93352, Note_on_c, 0, 77, 50
2, 93596, Note_on_c, 0, 77, 0
2, 93596, Note_on_c, 0, 77, 60
2, 93840, Note_on_c, 0, 77, 0
2, 93840, Note_on_c, 0, 79, 61
2, 93961, Note_on_c, 0, 79, 0
2, 93961, Note_on_c, 0, 81, 70
2, 94080, Note_on_c, 0, 81, 0
2, 94081, Note_on_c, 0, 82, 73
2, 94321, Note_on_c, 0, 82, 0
2, 94321, Note_on_c, 0, 84, 68
2, 94381, Note_on_c, 0, 84, 0
2, 94381, Note_on_c, 0, 82, 58
2, 94441, Note_on_c, 0, 82, 0
2, 94441, Note_on_c, 0, 81, 50
2, 94561, Note_on_c, 0, 81, 0
2, 94561, Note_on_c, 0, 82, 66
2, 94800, Note_on_c, 0, 82, 0
2, 94800, Note_on_c, 0, 86, 83
2, 95036, Note_on_c, 0, 86, 0
2, 95036, Note_on_c, 0, 77, 47
2, 95273, Note_on_c, 0, 77, 0
2, 95273, Note_on_c, 0, 77, 65
2, 95516, Note_on_c, 0, 77, 0
2, 95516, Note_on_c, 0, 77, 57
2, 95760, Note_on_c, 0, 77, 0
2, 95760, Note_on_c, 0, 79, 72
2, 95881, Note_on_c, 0, 79, 0
2, 95881, Note_on_c, 0, 81, 75
2, 96000, Note_on_c, 0, 81, 0
2, 96002, Note_on_c, 0, 82, 94
2, 96482, Note_on_c, 0, 82, 0
2, 97920, Note_on_c, 0, 70, 72
2, 98157, Note_on_c, 0, 70, 0
2, 98157, Note_on_c, 0, 70, 77
2, 98397, Note_on_c, 0, 70, 0
2, 98397, Note_on_c, 0, 70, 88
2, 98517, Note_on_c, 0, 70, 0
2, 98517, Note_on_c, 0, 72, 89
2, 98640, Note_on_c, 0, 72, 0
2, 98640, Note_on_c, 0, 74, 98
2, 98760, Note_on_c, 0, 74, 0
2, 98760, Note_on_c, 0, 75, 93
2, 98880, Note_on_c, 0, 75, 0
2, 98880, Note_on_c, 0, 77, 95
2, 99122, Note_on_c, 0, 77, 0
2, 99122, Note_on_c, 0, 77, 89
2, 99369, Note_on_c, 0, 77, 0
2, 99369, Note_on_c, 0, 77, 80
2, 99614, Note_on_c, 0, 77, 0
2, 99614, Note_on_c, 0, 79, 94
2, 99738, Note_on_c, 0, 79, 0
2, 99738, Note_on_c, 0, 81, 91
2, 99840, Note_on_c, 0, 81, 0
2, 99850, Note_on_c, 0, 82, 95
2, 100089, Note_on_c, 0, 82, 0
2, 100089, Note_on_c, 0, 82, 89
2, 100326, Note_on_c, 0, 82, 0
2, 100326, Note_on_c, 0, 82, 86
2, 100446, Note_on_c, 0, 82, 0
2, 100446, Note_on_c, 0, 84, 93
2, 100569, Note_on_c, 0, 84, 0
2, 100569, Note_on_c, 0, 86, 100
2, 100689, Note_on_c, 0, 86, 0
2, 100689, Note_on_c, 0, 87, 86
2, 100809, Note_on_c, 0, 87, 0
2, 100809, Note_on_c, 0, 89, 98
2, 101281, Note_on_c, 0, 89, 0
2, 109429, Note_on_c, 0, 81, 53
2, 110396, Note_on_c, 0, 81, 0
2, 110396, Note_on_c, 0, 83, 60
2, 111256, Note_on_c, 0, 83, 0
2, 111349, Note_on_c, 0, 84, 66
2, 111592, Note_on_c, 0, 84, 0
2, 111592, Note_on_c, 0, 86, 75
2, 111670, Note_on_c, 0, 86, 0
2, 111670, Note_on_c, 0, 84, 52
2, 111750, Note_on_c, 0, 84, 0
2, 111750, Note_on_c, 0, 83, 50
2, 111833, Note_on_c, 0, 83, 0
2, 111833, Note_on_c, 0, 84, 66
2, 112080, Note_on_c, 0, 84, 0
2, 112080, Note_on_c, 0, 86, 70
2, 112321, Note_on_c, 0, 86, 0
2, 112321, Note_on_c, 0, 87, 69
2, 112802, Note_on_c, 0, 87, 0
2, 112802, Note_on_c, 0, 87, 63
2, 113280, Note_on_c, 0, 87, 0
2, 113281, Note_on_c, 0, 86, 56
2, 113761, Note_on_c, 0, 86, 0
2, 113761, Note_on_c, 0, 87, 65
2, 114240, Note_on_c, 0, 87, 0
2, 114240, Note_on_c, 0, 86, 48
2, 114720, Note_on_c, 0, 86, 0
2, 114720, Note_on_c, 0, 84, 53
2, 115200, Note_on_c, 0, 84, 0
2, 120960, Note_on_c, 0, 82, 64
2, 121077, Note_on_c, 0, 82, 0
2, 121200, Note_on_c, 0, 82, 66
2, 121257, Note_on_c, 0, 82, 0
2, 121320, Note_on_c, 0, 82, 67
2, 121377, Note_on_c, 0, 82, 0
2, 121440, Note_on_c, 0, 82, 67
2, 121557, Note_on_c, 0, 82, 0
2, 121680, Note_on_c, 0, 82, 69
2, 121797, Note_on_c, 0, 82, 0
2, 121920, Note_on_c, 0, 82, 69
2, 122160, Note_on_c, 0, 82, 0
2, 122160, Note_on_c, 0, 86, 89
2, 122400, Note_on_c, 0, 86, 0
2, 122400, Note_on_c, 0, 77, 48
2, 122640, Note_on_c, 0, 77, 0
2, 122640, Note_on_c, 0, 82, 82
2, 122880, Note_on_c, 0, 82, 0
2, 122880, Note_on_c, 0, 74, 50
2, 123360, Note_on_c, 0, 74, 0
2, 126689, Note_on_c, 0, 70, 77
2, 126805, Note_on_c, 0, 70, 0
2, 126938, Note_on_c, 0, 72, 94
2, 126997, Note_on_c, 0, 72, 0
2, 127062, Note_on_c, 0, 74, 95
2, 127120, Note_on_c, 0, 74, 0
2, 127186, Note_on_c, 0, 75, 91
2, 127244, Note_on_c, 0, 75, 0
2, 127312, Note_on_c, 0, 77, 100
2, 127369, Note_on_c, 0, 77, 0
2, 127440, Note_on_c, 0, 79, 97
2, 127497, Note_on_c, 0, 79, 0
2, 127565, Note_on_c, 0, 81, 98
2, 127622, Note_on_c, 0, 81, 0
2, 127689, Note_on_c, 0, 82, 100
2, 127810, Note_on_c, 0, 82, 0
2, 127810, Note_on_c, 0, 81, 84
2, 127930, Note_on_c, 0, 81, 0
2, 127930, Note_on_c, 0, 82, 86
2, 128050, Note_on_c, 0, 82, 0
2, 128050, Note_on_c, 0, 81, 77
2, 128170, Note_on_c, 0, 81, 0
2, 128170, Note_on_c, 0, 82, 91
2, 128290, Note_on_c, 0, 82, 0
2, 128290, Note_on_c, 0, 81, 77
2, 128410, Note_on_c, 0, 81, 0
2, 128410, Note_on_c, 0, 82, 87
2, 128530, Note_on_c, 0, 82, 0
2, 128530, Note_on_c, 0, 81, 79
2, 128626, Note_on_c, 0, 81, 0
2, 128649, Note_on_c, 0, 82, 92
2, 129122, Note_on_c, 0, 82, 0
2, 129605, Note_on_c, 0, 82, 77
2, 129725, Note_on_c, 0, 82, 0
2, 129725, Note_on_c, 0, 81, 71
2, 129842, Note_on_c, 0, 81, 0
2, 129842, Note_on_c, 0, 82, 92
2, 129962, Note_on_c, 0, 82, 0
2, 129962, Note_on_c, 0, 81, 84
2, 130082, Note_on_c, 0, 81, 0
2, 130082, Note_on_c, 0, 82, 88
2, 130202, Note_on_c, 0, 82, 0
2, 130202, Note_on_c, 0, 81, 80
2, 130321, Note_on_c, 0, 81, 0
2, 130321, Note_on_c, 0, 82, 94
2, 130441, Note_on_c, 0, 82, 0
2, 130441, Note_on_c, 0, 81, 79
2, 130537, Note_on_c, 0, 81, 0
2, 130561, Note_on_c, 0, 82, 92
2, 130800, Note_on_c, 0, 82, 0
2, 131040, Note_on_c, 0, 86, 99
2, 131277, Note_on_c, 0, 86, 0
2, 131520, Note_on_c, 0, 82, 81
2, 131941, Note_on_c, 0, 82, 0
2, 150240, Note_on_c, 0, 82, 56
2, 151200, Note_on_c, 0, 82, 0
2, 151200, Note_on_c, 0, 83, 70
2, 151680, Note_on_c, 0, 83, 0
2, 151680, Note_on_c, 0, 84, 68
2, 152056, Note_on_c, 0, 84, 0
2, 154080, Note_on_c, 0, 84, 56
2, 155040, Note_on_c, 0, 84, 0
2, 155040, Note_on_c, 0, 85, 66
2, 155416, Note_on_c, 0, 85, 0
2, 155516, Note_on_c, 0, 86, 74
2, 155996, Note_on_c, 0, 86, 0
2, 165120, Note_on_c, 0, 82, 73
2, 165600, Note_on_c, 0, 82, 0
2, 165600, Note_on_c, 0, 77, 62
2, 166080, Note_on_c, 0, 77, 0
2, 166080, Note_on_c, 0, 82, 97
2, 166560, Note_on_c, 0, 82, 0
2, 166560, Note_on_c, 0, 86, 108
2, 167040, Note_on_c, 0, 86, 0
2, 167040, Note_on_c, 0, 89, 101
2, 170880, Note_on_c, 0, 89, 0
2, 170880, Note_on_c, 0, 70, 43
2, 171840, Note_on_c, 0, 70, 0
2, 172080, Note_on_c, 0, 82, 58
2, 172197, Note_on_c, 0, 82, 0
2, 172326, Note_on_c, 0, 82, 61
2, 172445, Note_on_c, 0, 82, 0
2, 172572, Note_on_c, 0, 82, 62
2, 172690, Note_on_c, 0, 82, 0
2, 172814, Note_on_c, 0, 82, 65
2, 172874, Note_on_c, 0, 82, 0
2, 172874, Note_on_c, 0, 84, 72
2, 172934, Note_on_c, 0, 84, 0
2, 172934, Note_on_c, 0, 82, 55
2, 173050, Note_on_c, 0, 82, 0
2, 173050, Note_on_c, 0, 81, 58
2, 173289, Note_on_c, 0, 81, 0
2, 173289, Note_on_c, 0, 81, 59
2, 174241, Note_on_c, 0, 81, 0
2, 174241, Note_on_c, 0, 82, 71
2, 174720, Note_on_c, 0, 82, 0
2, 174729, Note_on_c, 0, 83, 63
2, 174966, Note_on_c, 0, 83, 0
2, 174966, Note_on_c, 0, 84, 68
2, 175202, Note_on_c, 0, 84, 0
2, 175202, Note_on_c, 0, 84, 64
2, 175921, Note_on_c, 0, 84, 0
2, 175921, Note_on_c, 0, 84, 60
2, 176040, Note_on_c, 0, 84, 0
2, 176161, Note_on_c, 0, 84, 58
2, 176280, Note_on_c, 0, 84, 0
2, 176402, Note_on_c, 0, 85, 66
2, 176521, Note_on_c, 0, 85, 0
2, 176645, Note_on_c, 0, 86, 65
2, 177125, Note_on_c, 0, 86, 0
2, 184572, Note_on_c, 0, 77, 53
2, 184690, Note_on_c, 0, 77, 0
2, 184810, Note_on_c, 0, 79, 66
2, 184929, Note_on_c, 0, 79, 0
2, 185049, Note_on_c, 0, 81, 75
2, 185166, Note_on_c, 0, 81, 0
2, 185285, Note_on_c, 0, 82, 69
2, 185402, Note_on_c, 0, 82, 0
2, 185525, Note_on_c, 0, 81, 52
2, 185642, Note_on_c, 0, 81, 0
2, 185765, Note_on_c, 0, 82, 65
2, 185882, Note_on_c, 0, 82, 0
2, 186005, Note_on_c, 0, 84, 65
2, 186122, Note_on_c, 0, 84, 0
2, 186246, Note_on_c, 0, 86, 70
2, 186365, Note_on_c, 0, 86, 0
2, 186482, Note_on_c, 0, 82, 48
2, 186601, Note_on_c, 0, 82, 0
2, 186722, Note_on_c, 0, 84, 64
2, 186841, Note_on_c, 0, 84, 0
2, 186961, Note_on_c, 0, 86, 69
2, 187080, Note_on_c, 0, 86, 0
2, 187201, Note_on_c, 0, 87, 68
2, 187320, Note_on_c, 0, 87, 0
2, 187441, Note_on_c, 0, 86, 57
2, 187560, Note_on_c, 0, 86, 0
2, 187682, Note_on_c, 0, 87, 62
2, 187801, Note_on_c, 0, 87, 0
2, 187922, Note_on_c, 0, 88, 65
2, 188041, Note_on_c, 0, 88, 0
2, 188162, Note_on_c, 0, 89, 58
2, 188641, Note_on_c, 0, 89, 0
2, 189122, Note_on_c, 0, 77, 77
2, 189242, Note_on_c, 0, 77, 0
2, 189242, Note_on_c, 0, 76, 73
2, 189362, Note_on_c, 0, 76, 0
2, 189362, Note_on_c, 0, 77, 85
2, 189482, Note_on_c, 0, 77, 0
2, 189482, Note_on_c, 0, 76, 77
2, 189602, Note_on_c, 0, 76, 0
2, 189602, Note_on_c, 0, 77, 94
2, 189722, Note_on_c, 0, 77, 0
2, 189722, Note_on_c, 0, 76, 72
2, 189842, Note_on_c, 0, 76, 0
2, 189842, Note_on_c, 0, 77, 92
2, 189962, Note_on_c, 0, 77, 0
2, 189962, Note_on_c, 0, 76, 82
2, 190080, Note_on_c, 0, 76, 0
2, 190086, Note_on_c, 0, 77, 93
2, 190562, Note_on_c, 0, 77, 0
2, 191042, Note_on_c, 0, 89, 77
2, 191280, Note_on_c, 0, 89, 0
2, 191280, Note_on_c, 0, 89, 80
2, 191520, Note_on_c, 0, 89, 0
2, 191520, Note_on_c, 0, 89, 81
2, 191760, Note_on_c, 0, 89, 0
2, 191760, Note_on_c, 0, 89, 84
2, 192000, Note_on_c, 0, 89, 0
2, 192000, Note_on_c, 0, 89, 82
2, 192480, Note_on_c, 0, 89, 0
2, 224633, Note_on_c, 0, 82, 64
2, 225356, Note_on_c, 0, 82, 0
2, 225356, Note_on_c, 0, 79, 61
2, 225546, Note_on_c, 0, 79, 0
2, 225596, Note_on_c, 0, 76, 56
2, 226077, Note_on_c, 0, 76, 0
2, 226077, Note_on_c, 0, 76, 62
2, 226560, Note_on_c, 0, 76, 0
2, 228473, Note_on_c, 0, 82, 58
2, 228713, Note_on_c, 0, 82, 0
2, 228713, Note_on_c, 0, 81, 65
2, 228953, Note_on_c, 0, 81, 0
2, 228953, Note_on_c, 0, 82, 76
2, 229196, Note_on_c, 0, 82, 0
2, 229196, Note_on_c, 0, 79, 59
2, 229386, Note_on_c, 0, 79, 0
2, 229436, Note_on_c, 0, 76, 50
2, 229917, Note_on_c, 0, 76, 0
2, 229917, Note_on_c, 0, 76, 61
2, 230400, Note_on_c, 0, 76, 0
2, 231360, Note_on_c, 0, 82, 64
2, 232796, Note_on_c, 0, 82, 0
2, 232796, Note_on_c, 0, 83, 72
2, 233757, Note_on_c, 0, 83, 0
2, 233757, Note_on_c, 0, 81, 65
2, 234720, Note_on_c, 0, 81, 0
2, 234720, Note_on_c, 0, 82, 73
2, 235680, Note_on_c, 0, 82, 0
2, 235680, Note_on_c, 0, 79, 59
2, 236640, Note_on_c, 0, 79, 0
2, 236640, Note_on_c, 0, 80, 80
2, 237600, Note_on_c, 0, 80, 0
2, 237600, Note_on_c, 0, 89, 102
2, 238560, Note_on_c, 0, 89, 0
2, 238560, Note_on_c, 0, 90, 80
2, 239520, Note_on_c, 0, 90, 0
2, 239520, Note_on_c, 0, 88, 68
2, 239901, Note_on_c, 0, 88, 0
2, 240000, Note_on_c, 0, 89, 68
2, 240480, Note_on_c, 0, 89, 0
2, 249120, Note_on_c, 0, 79, 62
2, 249360, Note_on_c, 0, 79, 0
2, 249360, Note_on_c, 0, 77, 57
2, 249600, Note_on_c, 0, 77, 0
2, 249600, Note_on_c, 0, 77, 70
2, 249840, Note_on_c, 0, 77, 0
2, 249840, Note_on_c, 0, 76, 64
2, 250080, Note_on_c, 0, 76, 0
2, 250080, Note_on_c, 0, 74, 59
2, 250320, Note_on_c, 0, 74, 0
2, 250320, Note_on_c, 0, 72, 69
2, 250560, Note_on_c, 0, 72, 0
2, 250560, Note_on_c, 0, 71, 60
2, 250800, Note_on_c, 0, 71, 0
2, 250800, Note_on_c, 0, 72, 72
2, 251046, Note_on_c, 0, 72, 0
2, 251046, Note_on_c, 0, 74, 81
2, 251290, Note_on_c, 0, 74, 0
2, 251290, Note_on_c, 0, 76, 79
2, 251520, Note_on_c, 0, 76, 0
2, 251536, Note_on_c, 0, 77, 73
2, 251772, Note_on_c, 0, 77, 0
2, 251772, Note_on_c, 0, 79, 85
2, 251832, Note_on_c, 0, 79, 0
2, 251832, Note_on_c, 0, 77, 69
2, 251892, Note_on_c, 0, 77, 0
2, 251892, Note_on_c, 0, 76, 62
2, 252010, Note_on_c, 0, 76, 0
2, 252010, Note_on_c, 0, 77, 76
2, 252246, Note_on_c, 0, 77, 0
2, 252246, Note_on_c, 0, 81, 84
2, 252365, Note_on_c, 0, 81, 0
2, 252486, Note_on_c, 0, 84, 87
2, 252961, Note_on_c, 0, 84, 0
2, 278393, Note_on_c, 0, 84, 65
2, 279356, Note_on_c, 0, 84, 0
2, 279356, Note_on_c, 0, 81, 63
2, 280320, Note_on_c, 0, 81, 0
2, 280325, Note_on_c, 0, 86, 79
2, 281282, Note_on_c, 0, 86, 0
2, 281282, Note_on_c, 0, 79, 45
2, 282240, Note_on_c, 0, 79, 0
2, 282240, Note_on_c, 0, 81, 74
2, 282473, Note_on_c, 0, 81, 0
2, 282716, Note_on_c, 0, 82, 63
2, 282956, Note_on_c, 0, 82, 0
2, 283196, Note_on_c, 0, 81, 68
2, 283436, Note_on_c, 0, 81, 0
2, 283676, Note_on_c, 0, 79, 62
2, 283916, Note_on_c, 0, 79, 0
2, 284157, Note_on_c, 0, 77, 59
2, 284636, Note_on_c, 0, 77, 0
2, 297832, Note_on_c, 0, 77, 63
2, 298073, Note_on_c, 0, 77, 0
2, 298073, Note_on_c, 0, 81, 75
2, 298316, Note_on_c, 0, 81, 0
2, 298316, Note_on_c, 0, 77, 49
2, 298556, Note_on_c, 0, 77, 0
2, 298556, Note_on_c, 0, 84, 82
2, 299033, Note_on_c, 0, 84, 0
2, 299756, Note_on_c, 0, 77, 54
2, 299880, Note_on_c, 0, 77, 0
2, 299880, Note_on_c, 0, 79, 64
2, 300000, Note_on_c, 0, 79, 0
2, 300000, Note_on_c, 0, 81, 70
2, 300240, Note_on_c, 0, 81, 0
2, 300240, Note_on_c, 0, 77, 50
2, 300480, Note_on_c, 0, 77, 0
2, 300480, Note_on_c, 0, 84, 74
2, 300953, Note_on_c, 0, 84, 0
2, 301676, Note_on_c, 0, 77, 55
2, 301800, Note_on_c, 0, 77, 0
2, 301800, Note_on_c, 0, 79, 69
2, 301920, Note_on_c, 0, 79, 0
2, 301920, Note_on_c, 0, 81, 66
2, 302160, Note_on_c, 0, 81, 0
2, 302160, Note_on_c, 0, 77, 45
2, 302400, Note_on_c, 0, 77, 0
2, 302400, Note_on_c, 0, 84, 78
2, 302873, Note_on_c, 0, 84, 0
2, 308160, Note_on_c, 0, 86, 59
2, 308277, Note_on_c, 0, 86, 0
2, 308400, Note_on_c, 0, 86, 56
2, 308517, Note_on_c, 0, 86, 0
2, 308640, Note_on_c, 0, 82, 47
2, 308757, Note_on_c, 0, 82, 0
2, 308876, Note_on_c, 0, 82, 59
2, 308993, Note_on_c, 0, 82, 0
2, 309117, Note_on_c, 0, 79, 47
2, 309596, Note_on_c, 0, 79, 0
2, 314873, Note_on_c, 0, 89, 51
2, 323040, Note_on_c, 0, 89, 0
2, 323040, Note_on_c, 0, 65, 42
2, 323277, Note_on_c, 0, 65, 0
2, 323516, Note_on_c, 0, 70, 72
2, 323753, Note_on_c, 0, 70, 0
2, 323986, Note_on_c, 0, 74, 75
2, 324224, Note_on_c, 0, 74, 0
2, 324473, Note_on_c, 0, 77, 73
2, 324709, Note_on_c, 0, 77, 0
2, 324956, Note_on_c, 0, 82, 84
2, 325193, Note_on_c, 0, 82, 0
2, 325436, Note_on_c, 0, 86, 90
2, 325673, Note_on_c, 0, 86, 0
2, 325916, Note_on_c, 0, 89, 73
2, 326153, Note_on_c, 0, 89, 0
2, 326397, Note_on_c, 0, 81, 46
2, 328320, Note_on_c, 0, 81, 0
2, 328326, Note_on_c, 0, 79, 47
2, 330240, Note_on_c, 0, 79, 0
2, 330240, Note_on_c, 0, 77, 70
2, 330720, Note_on_c, 0, 77, 0
2, 330720, Note_on_c, 0, 72, 53
2, 331200, Note_on_c, 0, 72, 0
2, 331200, Note_on_c, 0, 77, 102
2, 331680, Note_on_c, 0, 77, 0
2, 331680, Note_on_c, 0, 81, 101
2, 332160, Note_on_c, 0, 81, 0
2, 332160, Note_on_c, 0, 84, 103
2, 344160, Note_on_c, 0, 84, 0
2, 345596, Note_on_c, 0, 86, 79
2, 345712, Note_on_c, 0, 86, 0
2, 345840, Note_on_c, 0, 82, 63
2, 345957, Note_on_c, 0, 82, 0
2, 346080, Note_on_c, 0, 84, 92
2, 346140, Note_on_c, 0, 84, 0
2, 346140, Note_on_c, 0, 82, 72
2, 346200, Note_on_c, 0, 82, 0
2, 346200, Note_on_c, 0, 81, 83
2, 346260, Note_on_c, 0, 81, 0
2, 346260, Note_on_c, 0, 82, 89
2, 346560, Note_on_c, 0, 82, 0
2, 346560, Note_on_c, 0, 86, 103
2, 346677, Note_on_c, 0, 86, 0
2, 346789, Note_on_c, 0, 77, 64
2, 346908, Note_on_c, 0, 77, 0
2, 347014, Note_on_c, 0, 79, 81
2, 347074, Note_on_c, 0, 79, 0
2, 347074, Note_on_c, 0, 77, 72
2, 347130, Note_on_c, 0, 77, 0
2, 347130, Note_on_c, 0, 76, 78
2, 347190, Note_on_c, 0, 76, 0
2, 347190, Note_on_c, 0, 77, 91
2, 347520, Note_on_c, 0, 77, 0
2, 347520, Note_on_c, 0, 82, 108
2, 347626, Note_on_c, 0, 82, 0
2, 347748, Note_on_c, 0, 74, 57
2, 347866, Note_on_c, 0, 74, 0
2, 347992, Note_on_c, 0, 74, 73
2, 348109, Note_on_c, 0, 74, 0
2, 348232, Note_on_c, 0, 74, 79
2, 348349, Note_on_c, 0, 74, 0
2, 348476, Note_on_c, 0, 74, 87
2, 348593, Note_on_c, 0, 74, 0
2, 348716, Note_on_c, 0, 74, 84
2, 348833, Note_on_c, 0, 74, 0
2, 348960, Note_on_c, 0, 74, 81
2, 349077, Note_on_c, 0, 74, 0
2, 349200, Note_on_c, 0, 74, 77
2, 349317, Note_on_c, 0, 74, 0
2, 349440, Note_on_c, 0, 74, 81
2, 349920, Note_on_c, 0, 74, 0
2, 349920, Note_on_c, 0, 89, 117
2, 350400, Note_on_c, 0, 89, 0
2, 350400, Note_on_c, 0, 89, 87
2, 350880, Note_on_c, 0, 89, 0
2, 350880, Note_on_c, 0, 89, 79
2, 351360, Note_on_c, 0, 89, 0
2, 351360, Note_on_c, 0, 89, 84
2, 351840, Note_on_c, 0, 89, 0
2, 357120, Note_on_c, 0, 81, 67
2, 357237, Note_on_c, 0, 81, 0
2, 357360, Note_on_c, 0, 81, 66
2, 357417, Note_on_c, 0, 81, 0
2, 357480, Note_on_c, 0, 81, 71
2, 357537, Note_on_c, 0, 81, 0
2, 357600, Note_on_c, 0, 81, 78
2, 357717, Note_on_c, 0, 81, 0
2, 357840, Note_on_c, 0, 81, 72
2, 357957, Note_on_c, 0, 81, 0
2, 358080, Note_on_c, 0, 81, 70
2, 358320, Note_on_c, 0, 81, 0
2, 358320, Note_on_c, 0, 84, 79
2, 358560, Note_on_c, 0, 84, 0
2, 358560, Note_on_c, 0, 77, 49
2, 358800, Note_on_c, 0, 77, 0
2, 358800, Note_on_c, 0, 81, 78
2, 359040, Note_on_c, 0, 81, 0
2, 359040, Note_on_c, 0, 72, 48
2, 359520, Note_on_c, 0, 72, 0
2, 360933, Note_on_c, 0, 77, 67
2, 361922, Note_on_c, 0, 77, 0
2, 361922, Note_on_c, 0, 77, 81
2, 362049, Note_on_c, 0, 77, 0
2, 362049, Note_on_c, 0, 76, 79
2, 362169, Note_on_c, 0, 76, 0
2, 362169, Note_on_c, 0, 77, 85
2, 362289, Note_on_c, 0, 77, 0
2, 362289, Note_on_c, 0, 76, 80
2, 362409, Note_on_c, 0, 76, 0
2, 362409, Note_on_c, 0, 77, 84
2, 362529, Note_on_c, 0, 77, 0
2, 362529, Note_on_c, 0, 76, 77
2, 362649, Note_on_c, 0, 76, 0
2, 362649, Note_on_c, 0, 77, 100
2, 362769, Note_on_c, 0, 77, 0
2, 362769, Note_on_c, 0, 76, 79
2, 362880, Note_on_c, 0, 76, 0
2, 362886, Note_on_c, 0, 77, 84
2, 363362, Note_on_c, 0, 77, 0
2, 363842, Note_on_c, 0, 89, 70
2, 364080, Note_on_c, 0, 89, 0
2, 364080, Note_on_c, 0, 89, 80
2, 364320, Note_on_c, 0, 89, 0
2, 364320, Note_on_c, 0, 89, 83
2, 364560, Note_on_c, 0, 89, 0
2, 364560, Note_on_c, 0, 89, 78
2, 364800, Note_on_c, 0, 89, 0
2, 364800, Note_on_c, 0, 89, 82
2, 365280, Note_on_c, 0, 89, 0
2, 365280, Note_on_c, 0, 84, 66
2, 365760, Note_on_c, 0, 84, 0
2, 365760, Note_on_c, 0, 81, 60
2, 366240, Note_on_c, 0, 81, 0
2, 374418, Note_on_c, 0, 89, 59
2, 375842, Note_on_c, 0, 89, 0
2, 375842, Note_on_c, 0, 84, 43
2, 376221, Note_on_c, 0, 84, 0
2, 376320, Note_on_c, 0, 81, 50
2, 376800, Note_on_c, 0, 81, 0
2, 399366, Note_on_c, 0, 82, 49
2, 399485, Note_on_c, 0, 82, 0
2, 399602, Note_on_c, 0, 82, 55
2, 399661, Note_on_c, 0, 82, 0
2, 399722, Note_on_c, 0, 82, 60
2, 399781, Note_on_c, 0, 82, 0
2, 399842, Note_on_c, 0, 82, 61
2, 399961, Note_on_c, 0, 82, 0
2, 400082, Note_on_c, 0, 82, 68
2, 400201, Note_on_c, 0, 82, 0
2, 400322, Note_on_c, 0, 82, 59
2, 400560, Note_on_c, 0, 82, 0
2, 400560, Note_on_c, 0, 86, 66
2, 400800, Note_on_c, 0, 86, 0
2, 400800, Note_on_c, 0, 77, 46
2, 401040, Note_on_c, 0, 77, 0
2, 401040, Note_on_c, 0, 82, 71
2, 401280, Note_on_c, 0, 82, 0
2, 401280, Note_on_c, 0, 86, 76
2, 401397, Note_on_c, 0, 86, 0
2, 401520, Note_on_c, 0, 86, 57
2, 401577, Note_on_c, 0, 86, 0
2, 401640, Note_on_c, 0, 86, 60
2, 401697, Note_on_c, 0, 86, 0
2, 401760, Note_on_c, 0, 86, 60
2, 401877, Note_on_c, 0, 86, 0
2, 402000, Note_on_c, 0, 86, 62
2, 402117, Note_on_c, 0, 86, 0
2, 402242, Note_on_c, 0, 86, 60
2, 402490, Note_on_c, 0, 86, 0
2, 402490, Note_on_c, 0, 89, 66
2, 402730, Note_on_c, 0, 89, 0
2, 402730, Note_on_c, 0, 82, 47
2, 402966, Note_on_c, 0, 82, 0
2, 402966, Note_on_c, 0, 86, 66
2, 403200, Note_on_c, 0, 86, 0
2, 403206, Note_on_c, 0, 87, 70
2, 403682, Note_on_c, 0, 87, 0
2, 437753, Note_on_c, 0, 87, 64
2, 437760, Control_c, 0, 7, 30
2, 437904, Control_c, 0, 7, 31
2, 438048, Control_c, 0, 7, 32
2, 438192, Control_c, 0, 7, 33
2, 438336, Control_c, 0, 7, 34
2, 438480, Control_c, 0, 7, 35
2, 438624, Control_c, 0, 7, 36
2, 438768, Control_c, 0, 7, 37
2, 438912, Control_c, 0, 7, 38
2, 439056, Control_c, 0, 7, 39
2, 439200, Control_c, 0, 7, 40
2, 439344, Control_c, 0, 7, 41
2, 439488, Control_c, 0, 7, 42
2, 439632, Control_c, 0, 7, 43
2, 439776, Control_c, 0, 7, 44
2, 439920, Control_c, 0, 7, 45
2, 440064, Control_c, 0, 7, 46
2, 440208, Control_c, 0, 7, 47
2, 440352, Control_c, 0, 7, 48
2, 440496, Control_c, 0, 7, 49
2, 440640, Control_c, 0, 7, 50
2, 440784, Control_c, 0, 7, 51
2, 440928, Control_c, 0, 7, 52
2, 441072, Control_c, 0, 7, 53
2, 441216, Control_c, 0, 7, 54
2, 441360, Control_c, 0, 7, 55
2, 441504, Control_c, 0, 7, 56
2, 441648, Control_c, 0, 7, 57
2, 441792, Control_c, 0, 7, 58
2, 441936, Control_c, 0, 7, 59
2, 442080, Control_c, 0, 7, 60
2, 442224, Control_c, 0, 7, 61
2, 442368, Control_c, 0, 7, 62
2, 442512, Control_c, 0, 7, 63
2, 442560, Note_on_c, 0, 87, 0
2, 442560, Note_on_c, 0, 87, 77
2, 442656, Control_c, 0, 7, 64
2, 442800, Note_on_c, 0, 87, 0
2, 442800, Control_c, 0, 7, 65
2, 442800, Note_on_c, 0, 86, 71
2, 442944, Control_c, 0, 7, 66
2, 443037, Note_on_c, 0, 86, 0
2, 443037, Note_on_c, 0, 87, 87
2, 443088, Control_c, 0, 7, 67
2, 443232, Control_c, 0, 7, 68
2, 443276, Note_on_c, 0, 87, 0
2, 443276, Note_on_c, 0, 84, 70
2, 443376, Control_c, 0, 7, 69
2, 443520, Note_on_c, 0, 84, 0
2, 443520, Control_c, 0, 7, 70
2, 443520, Note_on_c, 0, 82, 70
2, 443993, Note_on_c, 0, 82, 0
2, 445920, Note_on_c, 0, 82, 56
2, 446880, Note_on_c, 0, 82, 0
2, 446880, Note_on_c, 0, 83, 67
2, 447261, Note_on_c, 0, 83, 0
2, 447360, Note_on_c, 0, 84, 64
2, 447840, Note_on_c, 0, 84, 0
2, 449760, Note_on_c, 0, 84, 50
2, 450720, Note_on_c, 0, 84, 0
2, 450720, Note_on_c, 0, 85, 66
2, 451101, Note_on_c, 0, 85, 0
2, 451200, Note_on_c, 0, 86, 64
2, 451680, Note_on_c, 0, 86, 0
2, 461280, Note_on_c, 0, 82, 63
2, 461400, Note_on_c, 0, 82, 0
2, 461400, Note_on_c, 0, 81, 60
2, 461520, Note_on_c, 0, 81, 0
2, 461520, Note_on_c, 0, 82, 74
2, 461640, Note_on_c, 0, 82, 0
2, 461640, Note_on_c, 0, 81, 58
2, 461760, Note_on_c, 0, 81, 0
2, 461760, Note_on_c, 0, 84, 80
2, 461880, Note_on_c, 0, 84, 0
2, 461880, Note_on_c, 0, 82, 65
2, 462000, Note_on_c, 0, 82, 0
2, 462000, Note_on_c, 0, 81, 56
2, 462120, Note_on_c, 0, 81, 0
2, 462120, Note_on_c, 0, 79, 56
2, 462240, Note_on_c, 0, 79, 0
2, 462240, Note_on_c, 0, 79, 71
2, 462360, Note_on_c, 0, 79, 0
2, 462360, Note_on_c, 0, 77, 65
2, 462480, Note_on_c, 0, 77, 0
2, 462480, Note_on_c, 0, 75, 59
2, 462600, Note_on_c, 0, 75, 0
2, 462600, Note_on_c, 0, 74, 67
2, 462720, Note_on_c, 0, 74, 0
2, 462720, Note_on_c, 0, 72, 54
2, 463200, Note_on_c, 0, 72, 0
2, 465120, Note_on_c, 0, 84, 61
2, 465240, Note_on_c, 0, 84, 0
2, 465240, Note_on_c, 0, 83, 67
2, 465360, Note_on_c, 0, 83, 0
2, 465360, Note_on_c, 0, 84, 70
2, 465480, Note_on_c, 0, 84, 0
2, 465480, Note_on_c, 0, 83, 62
2, 465600, Note_on_c, 0, 83, 0
2, 465600, Note_on_c, 0, 86, 77
2, 465720, Note_on_c, 0, 86, 0
2, 465720, Note_on_c, 0, 84, 72
2, 465840, Note_on_c, 0, 84, 0
2, 465840, Note_on_c, 0, 82, 66
2, 465960, Note_on_c, 0, 82, 0
2, 465960, Note_on_c, 0, 81, 57
2, 466080, Note_on_c, 0, 81, 0
2, 466080, Note_on_c, 0, 81, 73
2, 466192, Note_on_c, 0, 81, 0
2, 466192, Note_on_c, 0, 79, 63
2, 466312, Note_on_c, 0, 79, 0
2, 466312, Note_on_c, 0, 77, 59
2, 466426, Note_on_c, 0, 77, 0
2, 466426, Note_on_c, 0, 75, 63
2, 466560, Note_on_c, 0, 75, 0
2, 466560, Note_on_c, 0, 74, 61
2, 467032, Note_on_c, 0, 74, 0
2, 476157, Note_on_c, 0, 82, 71
2, 476640, Note_on_c, 0, 82, 0
2, 476640, Note_on_c, 0, 77, 54
2, 477120, Note_on_c, 0, 77, 0
2, 477120, Note_on_c, 0, 82, 95
2, 477600, Note_on_c, 0, 82, 0
2, 477600, Note_on_c, 0, 86, 113
2, 478080, Note_on_c, 0, 86, 0
2, 478080, Note_on_c, 0, 89, 100
2, 482880, Note_on_c, 0, 89, 0
2, 482880, Note_on_c, 0, 86, 63
2, 483360, Note_on_c, 0, 86, 0
2, 483360, Note_on_c, 0, 82, 62
2, 483840, Note_on_c, 0, 82, 0
2, 483840, Note_on_c, 0, 77, 61
2, 485280, Note_on_c, 0, 77, 0
2, 485280, Note_on_c, 0, 77, 71
2, 485760, Note_on_c, 0, 77, 0
2, 485760, Note_on_c, 0, 87, 117
2, 486720, Note_on_c, 0, 87, 0
2, 486720, Note_on_c, 0, 84, 77
2, 487200, Note_on_c, 0, 84, 0
2, 487200, Note_on_c, 0, 81, 74
2, 487680, Note_on_c, 0, 81, 0
2, 487680, Note_on_c, 0, 89, 113
2, 488160, Note_on_c, 0, 89, 0
2, 489600, Note_on_c, 0, 89, 76
2, 489717, Note_on_c, 0, 89, 0
2, 489840, Note_on_c, 0, 82, 61
2, 489957, Note_on_c, 0, 82, 0
2, 490080, Note_on_c, 0, 84, 89
2, 490140, Note_on_c, 0, 84, 0
2, 490140, Note_on_c, 0, 82, 80
2, 490202, Note_on_c, 0, 82, 0
2, 490202, Note_on_c, 0, 81, 72
2, 490262, Note_on_c, 0, 81, 0
2, 490262, Note_on_c, 0, 82, 88
2, 490560, Note_on_c, 0, 82, 0
2, 490560, Note_on_c, 0, 86, 101
2, 490677, Note_on_c, 0, 86, 0
2, 490788, Note_on_c, 0, 77, 56
2, 490906, Note_on_c, 0, 77, 0
2, 491014, Note_on_c, 0, 79, 96
2, 491074, Note_on_c, 0, 79, 0
2, 491074, Note_on_c, 0, 77, 71
2, 491129, Note_on_c, 0, 77, 0
2, 491129, Note_on_c, 0, 76, 89
2, 491189, Note_on_c, 0, 76, 0
2, 491189, Note_on_c, 0, 77, 94
2, 491520, Note_on_c, 0, 77, 0
2, 491520, Note_on_c, 0, 82, 102
2, 491626, Note_on_c, 0, 82, 0
2, 491748, Note_on_c, 0, 74, 62
2, 491866, Note_on_c, 0, 74, 0
2, 491992, Note_on_c, 0, 74, 87
2, 492720, Note_on_c, 0, 74, 0
2, 492720, Note_on_c, 0, 76, 93
2, 492840, Note_on_c, 0, 76, 0
2, 492840, Note_on_c, 0, 77, 97
2, 492960, Note_on_c, 0, 77, 0
2, 492960, Note_on_c, 0, 79, 101
2, 493200, Note_on_c, 0, 79, 0
2, 493200, Note_on_c, 0, 76, 68
2, 493440, Note_on_c, 0, 76, 0
2, 493440, Note_on_c, 0, 77, 88
2, 493916, Note_on_c, 0, 77, 0
2, 526069, Note_on_c, 0, 87, 62
2, 526792, Note_on_c, 0, 87, 0
2, 526792, Note_on_c, 0, 84, 42
2, 527033, Note_on_c, 0, 84, 0
2, 527033, Note_on_c, 0, 81, 47
2, 527517, Note_on_c, 0, 81, 0
2, 527517, Note_on_c, 0, 81, 58
2, 528000, Note_on_c, 0, 81, 0
2, 529913, Note_on_c, 0, 87, 54
2, 530153, Note_on_c, 0, 87, 0
2, 530153, Note_on_c, 0, 86, 63
2, 530393, Note_on_c, 0, 86, 0
2, 530393, Note_on_c, 0, 87, 67
2, 530636, Note_on_c, 0, 87, 0
2, 530636, Note_on_c, 0, 84, 46
2, 530876, Note_on_c, 0, 84, 0
2, 530876, Note_on_c, 0, 81, 52
2, 531357, Note_on_c, 0, 81, 0
2, 531357, Note_on_c, 0, 81, 54
2, 531840, Note_on_c, 0, 81, 0
2, 532800, Note_on_c, 0, 87, 48
2, 534237, Note_on_c, 0, 87, 0
2, 534237, Note_on_c, 0, 88, 61
2, 535197, Note_on_c, 0, 88, 0
2, 535197, Note_on_c, 0, 86, 48
2, 536160, Note_on_c, 0, 86, 0
2, 536160, Note_on_c, 0, 87, 64
2, 537120, Note_on_c, 0, 87, 0
2, 537120, Note_on_c, 0, 84, 49
2, 538080, Note_on_c, 0, 84, 0
2, 538080, Note_on_c, 0, 85, 72
2, 539040, Note_on_c, 0, 85, 0
2, 539040, Note_on_c, 0, 82, 52
2, 540000, Note_on_c, 0, 82, 0
2, 540000, Note_on_c, 0, 83, 70
2, 540960, Note_on_c, 0, 83, 0
2, 540960, Note_on_c, 0, 81, 49
2, 541341, Note_on_c, 0, 81, 0
2, 541440, Note_on_c, 0, 82, 66
2, 541920, Note_on_c, 0, 82, 0
2, 550560, Note_on_c, 0, 84, 54
2, 550800, Note_on_c, 0, 84, 0
2, 550800, Note_on_c, 0, 82, 54
2, 551040, Note_on_c, 0, 82, 0
2, 551040, Note_on_c, 0, 82, 48
2, 551280, Note_on_c, 0, 82, 0
2, 551280, Note_on_c, 0, 81, 54
2, 551520, Note_on_c, 0, 81, 0
2, 551520, Note_on_c, 0, 79, 58
2, 551760, Note_on_c, 0, 79, 0
2, 551760, Note_on_c, 0, 77, 55
2, 552000, Note_on_c, 0, 77, 0
2, 552000, Note_on_c, 0, 76, 51
2, 552240, Note_on_c, 0, 76, 0
2, 552240, Note_on_c, 0, 77, 60
2, 552485, Note_on_c, 0, 77, 0
2, 552485, Note_on_c, 0, 79, 71
2, 552730, Note_on_c, 0, 79, 0
2, 552730, Note_on_c, 0, 81, 68
2, 552960, Note_on_c, 0, 81, 0
2, 552972, Note_on_c, 0, 82, 74
2, 553212, Note_on_c, 0, 82, 0
2, 553212, Note_on_c, 0, 84, 69
2, 553272, Note_on_c, 0, 84, 0
2, 553272, Note_on_c, 0, 82, 54
2, 553332, Note_on_c, 0, 82, 0
2, 553332, Note_on_c, 0, 81, 54
2, 553452, Note_on_c, 0, 81, 0
2, 553452, Note_on_c, 0, 82, 74
2, 553685, Note_on_c, 0, 82, 0
2, 553685, Note_on_c, 0, 86, 70
2, 553802, Note_on_c, 0, 86, 0
2, 553925, Note_on_c, 0, 89, 69
2, 554400, Note_on_c, 0, 89, 0
2, 580800, Note_on_c, 0, 89, 65
2, 581760, Note_on_c, 0, 89, 0
2, 581761, Note_on_c, 0, 88, 62
2, 582721, Note_on_c, 0, 88, 0
2, 582721, Note_on_c, 0, 87, 62
2, 583562, Note_on_c, 0, 87, 0
2, 583673, Note_on_c, 0, 86, 70
2, 583912, Note_on_c, 0, 86, 0
2, 584152, Note_on_c, 0, 87, 69
2, 584396, Note_on_c, 0, 87, 0
2, 584636, Note_on_c, 0, 86, 64
2, 584876, Note_on_c, 0, 86, 0
2, 585116, Note_on_c, 0, 84, 56
2, 585356, Note_on_c, 0, 84, 0
2, 585597, Note_on_c, 0, 82, 64
2, 586080, Note_on_c, 0, 82, 0
2, 603113, Note_on_c, 0, 82, 61
2, 603236, Note_on_c, 0, 84, 84
2, 603357, Note_on_c, 0, 84, 0
2, 603357, Note_on_c, 0, 82, 0
2, 603357, Note_on_c, 0, 86, 83
2, 603600, Note_on_c, 0, 86, 0
2, 603600, Note_on_c, 0, 82, 57
2, 603840, Note_on_c, 0, 82, 0
2, 603840, Note_on_c, 0, 89, 97
2, 604073, Note_on_c, 0, 89, 0
2, 608642, Note_on_c, 0, 83, 58
2, 608761, Note_on_c, 0, 83, 0
2, 608882, Note_on_c, 0, 83, 66
2, 609001, Note_on_c, 0, 83, 0
2, 609122, Note_on_c, 0, 83, 77
2, 609241, Note_on_c, 0, 83, 0
2, 609361, Note_on_c, 0, 83, 63
2, 609480, Note_on_c, 0, 83, 0
2, 609601, Note_on_c, 0, 82, 69
2, 609720, Note_on_c, 0, 82, 0
2, 609840, Note_on_c, 0, 82, 65
2, 609957, Note_on_c, 0, 82, 0
2, 610080, Note_on_c, 0, 82, 70
2, 610197, Note_on_c, 0, 82, 0
2, 610320, Note_on_c, 0, 82, 61
2, 610437, Note_on_c, 0, 82, 0
2, 610560, Note_on_c, 0, 81, 63
2, 610677, Note_on_c, 0, 81, 0
2, 610800, Note_on_c, 0, 81, 69
2, 610917, Note_on_c, 0, 81, 0
2, 611040, Note_on_c, 0, 81, 76
2, 611157, Note_on_c, 0, 81, 0
2, 611280, Note_on_c, 0, 81, 72
2, 611397, Note_on_c, 0, 81, 0
2, 611520, Note_on_c, 0, 82, 77
2, 611637, Note_on_c, 0, 82, 0
2, 611760, Note_on_c, 0, 82, 76
2, 611877, Note_on_c, 0, 82, 0
2, 612000, Note_on_c, 0, 82, 64
2, 612117, Note_on_c, 0, 82, 0
2, 612240, Note_on_c, 0, 82, 70
2, 612357, Note_on_c, 0, 82, 0
2, 618236, Note_on_c, 0, 82, 56
2, 626393, Note_on_c, 0, 82, 0
2, 633596, Note_on_c, 0, 82, 56
2, 633712, Note_on_c, 0, 82, 0
2, 633833, Note_on_c, 0, 82, 65
2, 633892, Note_on_c, 0, 82, 0
2, 633953, Note_on_c, 0, 82, 76
2, 634012, Note_on_c, 0, 82, 0
2, 634073, Note_on_c, 0, 82, 65
2, 634192, Note_on_c, 0, 82, 0
2, 634316, Note_on_c, 0, 82, 66
2, 634433, Note_on_c, 0, 82, 0
2, 634556, Note_on_c, 0, 82, 63
2, 634800, Note_on_c, 0, 82, 0
2, 634800, Note_on_c, 0, 86, 87
2, 635040, Note_on_c, 0, 86, 0
2, 635040, Note_on_c, 0, 77, 51
2, 635280, Note_on_c, 0, 77, 0
2, 635280, Note_on_c, 0, 82, 82
2, 635520, Note_on_c, 0, 82, 0
2, 635520, Note_on_c, 0, 86, 95
2, 635637, Note_on_c, 0, 86, 0
2, 635760, Note_on_c, 0, 86, 75
2, 635817, Note_on_c, 0, 86, 0
2, 635880, Note_on_c, 0, 86, 72
2, 635937, Note_on_c, 0, 86, 0
2, 636000, Note_on_c, 0, 86, 70
2, 636117, Note_on_c, 0, 86, 0
2, 636240, Note_on_c, 0, 86, 67
2, 636357, Note_on_c, 0, 86, 0
2, 636480, Note_on_c, 0, 86, 72
2, 636720, Note_on_c, 0, 86, 0
2, 636720, Note_on_c, 0, 89, 79
2, 636960, Note_on_c, 0, 89, 0
2, 636960, Note_on_c, 0, 82, 50
2, 637200, Note_on_c, 0, 82, 0
2, 637200, Note_on_c, 0, 86, 75
2, 637440, Note_on_c, 0, 86, 0
2, 637440, Note_on_c, 0, 89, 84
2, 637557, Note_on_c, 0, 89, 0
2, 637680, Note_on_c, 0, 89, 71
2, 637737, Note_on_c, 0, 89, 0
2, 637800, Note_on_c, 0, 89, 70
2, 637857, Note_on_c, 0, 89, 0
2, 637920, Note_on_c, 0, 89, 71
2, 638037, Note_on_c, 0, 89, 0
2, 638160, Note_on_c, 0, 89, 69
2, 638277, Note_on_c, 0, 89, 0
2, 638401, Note_on_c, 0, 89, 68
2, 638642, Note_on_c, 0, 89, 0
2, 638882, Note_on_c, 0, 86, 67
2, 639122, Note_on_c, 0, 86, 0
2, 639122, Note_on_c, 0, 89, 85
2, 639360, Note_on_c, 0, 89, 0
2, 639365, Note_on_c, 0, 82, 57
2, 639482, Note_on_c, 0, 82, 0
2, 639605, Note_on_c, 0, 86, 82
2, 639722, Note_on_c, 0, 86, 0
2, 639845, Note_on_c, 0, 89, 85
2, 639962, Note_on_c, 0, 89, 0
2, 640321, Note_on_c, 0, 86, 68
2, 640440, Note_on_c, 0, 86, 0
2, 640560, Note_on_c, 0, 89, 75
2, 640677, Note_on_c, 0, 89, 0
2, 640792, Note_on_c, 0, 82, 51
2, 640909, Note_on_c, 0, 82, 0
2, 641026, Note_on_c, 0, 86, 78
2, 641144, Note_on_c, 0, 86, 0
2, 641273, Note_on_c, 0, 77, 53
2, 641756, Note_on_c, 0, 77, 0
2, 643197, Note_on_c, 0, 84, 61
2, 645120, Note_on_c, 0, 84, 0
2, 645120, Note_on_c, 0, 82, 71
2, 645600, Note_on_c, 0, 82, 0
2, 645600, Note_on_c, 0, 77, 63
2, 646080, Note_on_c, 0, 77, 0
2, 646080, Note_on_c, 0, 89, 112
2, 654720, Note_on_c, 0, 87, 76
2, 659040, Note_on_c, 0, 87, 0
2, 659040, Note_on_c, 0, 89, 0
2, 660480, Note_on_c, 0, 89, 76
2, 660597, Note_on_c, 0, 89, 0
2, 660720, Note_on_c, 0, 82, 59
2, 660837, Note_on_c, 0, 82, 0
2, 660960, Note_on_c, 0, 84, 86
2, 661020, Note_on_c, 0, 84, 0
2, 661020, Note_on_c, 0, 82, 69
2, 661082, Note_on_c, 0, 82, 0
2, 661082, Note_on_c, 0, 81, 70
2, 661142, Note_on_c, 0, 81, 0
2, 661142, Note_on_c, 0, 82, 92
2, 661440, Note_on_c, 0, 82, 0
2, 661440, Note_on_c, 0, 86, 97
2, 661557, Note_on_c, 0, 86, 0
2, 661668, Note_on_c, 0, 77, 58
2, 661786, Note_on_c, 0, 77, 0
2, 661894, Note_on_c, 0, 79, 81
2, 661954, Note_on_c, 0, 79, 0
2, 661954, Note_on_c, 0, 77, 75
2, 662009, Note_on_c, 0, 77, 0
2, 662009, Note_on_c, 0, 76, 69
2, 662069, Note_on_c, 0, 76, 0
2, 662069, Note_on_c, 0, 77, 93
2, 662400, Note_on_c, 0, 77, 0
2, 662400, Note_on_c, 0, 82, 109
2, 662506, Note_on_c, 0, 82, 0
2, 662628, Note_on_c, 0, 74, 59
2, 662746, Note_on_c, 0, 74, 0
2, 662872, Note_on_c, 0, 74, 79
2, 663600, Note_on_c, 0, 74, 0
2, 663600, Note_on_c, 0, 76, 97
2, 663720, Note_on_c, 0, 76, 0
2, 663720, Note_on_c, 0, 77, 87
2, 663840, Note_on_c, 0, 77, 0
2, 663840, Note_on_c, 0, 79, 91
2, 664080, Note_on_c, 0, 79, 0
2, 664080, Note_on_c, 0, 76, 73
2, 664320, Note_on_c, 0, 76, 0
2, 664320, Note_on_c, 0, 77, 88
2, 664800, Note_on_c, 0, 77, 0
2, 664800, Note_on_c, 0, 86, 114
2, 665761, Note_on_c, 0, 86, 0
2, 665761, Note_on_c, 0, 86, 88
2, 666240, Note_on_c, 0, 86, 0
2, 744957, Note_on_c, 0, 70, 74
2, 745196, Note_on_c, 0, 70, 0
2, 745196, Note_on_c, 0, 72, 92
2, 745256, Note_on_c, 0, 72, 0
2, 745256, Note_on_c, 0, 70, 72
2, 745316, Note_on_c, 0, 70, 0
2, 745316, Note_on_c, 0, 69, 73
2, 745436, Note_on_c, 0, 69, 0
2, 745436, Note_on_c, 0, 70, 89
2, 745677, Note_on_c, 0, 70, 0
2, 745677, Note_on_c, 0, 74, 101
2, 745796, Note_on_c, 0, 74, 0
2, 745917, Note_on_c, 0, 65, 65
2, 746157, Note_on_c, 0, 65, 0
2, 746157, Note_on_c, 0, 65, 76
2, 746400, Note_on_c, 0, 65, 0
2, 746400, Note_on_c, 0, 65, 85
2, 746640, Note_on_c, 0, 65, 0
2, 746640, Note_on_c, 0, 67, 88
2, 746760, Note_on_c, 0, 67, 0
2, 746760, Note_on_c, 0, 69, 93
2, 746880, Note_on_c, 0, 69, 0
2, 746880, Note_on_c, 0, 70, 97
2, 747117, Note_on_c, 0, 70, 0
2, 747117, Note_on_c, 0, 70, 90
2, 747357, Note_on_c, 0, 70, 0
2, 747357, Note_on_c, 0, 70, 79
2, 747477, Note_on_c, 0, 70, 0
2, 747477, Note_on_c, 0, 72, 99
2, 747600, Note_on_c, 0, 72, 0
2, 747600, Note_on_c, 0, 74, 97
2, 747720, Note_on_c, 0, 74, 0
2, 747720, Note_on_c, 0, 75, 85
2, 747840, Note_on_c, 0, 75, 0
2, 747840, Note_on_c, 0, 77, 101
2, 748082, Note_on_c, 0, 77, 0
2, 748082, Note_on_c, 0, 77, 83
2, 748329, Note_on_c, 0, 77, 0
2, 748329, Note_on_c, 0, 77, 81
2, 748572, Note_on_c, 0, 77, 0
2, 748572, Note_on_c, 0, 79, 91
2, 748696, Note_on_c, 0, 79, 0
2, 748696, Note_on_c, 0, 81, 99
2, 748800, Note_on_c, 0, 81, 0
2, 748810, Note_on_c, 0, 82, 95
2, 749049, Note_on_c, 0, 82, 0
2, 749049, Note_on_c, 0, 82, 83
2, 749285, Note_on_c, 0, 82, 0
2, 749285, Note_on_c, 0, 82, 85
2, 749405, Note_on_c, 0, 82, 0
2, 749405, Note_on_c, 0, 84, 89
2, 749526, Note_on_c, 0, 84, 0
2, 749526, Note_on_c, 0, 86, 96
2, 749646, Note_on_c, 0, 86, 0
2, 749646, Note_on_c, 0, 87, 91
2, 749769, Note_on_c, 0, 87, 0
2, 749769, Note_on_c, 0, 89, 98
2, 750241, Note_on_c, 0, 89, 0
2, 750709, Note_on_c, 0, 81, 51
2, 751676, Note_on_c, 0, 81, 0
2, 751676, Note_on_c, 0, 83, 62
2, 752536, Note_on_c, 0, 83, 0
2, 752629, Note_on_c, 0, 84, 65
2, 752872, Note_on_c, 0, 84, 0
2, 752872, Note_on_c, 0, 86, 65
2, 752950, Note_on_c, 0, 86, 0
2, 752950, Note_on_c, 0, 84, 58
2, 753030, Note_on_c, 0, 84, 0
2, 753030, Note_on_c, 0, 83, 55
2, 753113, Note_on_c, 0, 83, 0
2, 753113, Note_on_c, 0, 84, 68
2, 753360, Note_on_c, 0, 84, 0
2, 753360, Note_on_c, 0, 86, 62
2, 753601, Note_on_c, 0, 86, 0
2, 753601, Note_on_c, 0, 87, 64
2, 754082, Note_on_c, 0, 87, 0
2, 754082, Note_on_c, 0, 87, 63
2, 754560, Note_on_c, 0, 87, 0
2, 754561, Note_on_c, 0, 86, 56
2, 755041, Note_on_c, 0, 86, 0
2, 755041, Note_on_c, 0, 87, 69
2, 755520, Note_on_c, 0, 87, 0
2, 755520, Note_on_c, 0, 86, 63
2, 756000, Note_on_c, 0, 86, 0
2, 756000, Note_on_c, 0, 84, 55
2, 756480, Note_on_c, 0, 84, 0
2, 762240, Note_on_c, 0, 82, 67
2, 762357, Note_on_c, 0, 82, 0
2, 762480, Note_on_c, 0, 82, 73
2, 762537, Note_on_c, 0, 82, 0
2, 762600, Note_on_c, 0, 82, 66
2, 762657, Note_on_c, 0, 82, 0
2, 762720, Note_on_c, 0, 82, 75
2, 762837, Note_on_c, 0, 82, 0
2, 762960, Note_on_c, 0, 82, 63
2, 763077, Note_on_c, 0, 82, 0
2, 763200, Note_on_c, 0, 82, 70
2, 763440, Note_on_c, 0, 82, 0
2, 763440, Note_on_c, 0, 86, 85
2, 763680, Note_on_c, 0, 86, 0
2, 763680, Note_on_c, 0, 77, 54
2, 763920, Note_on_c, 0, 77, 0
2, 763920, Note_on_c, 0, 82, 87
2, 764160, Note_on_c, 0, 82, 0
2, 764160, Note_on_c, 0, 74, 50
2, 764640, Note_on_c, 0, 74, 0
2, 767969, Note_on_c, 0, 70, 76
2, 768085, Note_on_c, 0, 70, 0
2, 768218, Note_on_c, 0, 72, 90
2, 768277, Note_on_c, 0, 72, 0
2, 768342, Note_on_c, 0, 74, 96
2, 768400, Note_on_c, 0, 74, 0
2, 768466, Note_on_c, 0, 75, 97
2, 768524, Note_on_c, 0, 75, 0
2, 768592, Note_on_c, 0, 77, 98
2, 768649, Note_on_c, 0, 77, 0
2, 768720, Note_on_c, 0, 79, 97
2, 768777, Note_on_c, 0, 79, 0
2, 768845, Note_on_c, 0, 81, 93
2, 768902, Note_on_c, 0, 81, 0
2, 768969, Note_on_c, 0, 82, 95
2, 769090, Note_on_c, 0, 82, 0
2, 769090, Note_on_c, 0, 81, 79
2, 769210, Note_on_c, 0, 81, 0
2, 769210, Note_on_c, 0, 82, 93
2, 769330, Note_on_c, 0, 82, 0
2, 769330, Note_on_c, 0, 81, 73
2, 769450, Note_on_c, 0, 81, 0
2, 769450, Note_on_c, 0, 82, 89
2, 769570, Note_on_c, 0, 82, 0
2, 769570, Note_on_c, 0, 81, 77
2, 769690, Note_on_c, 0, 81, 0
2, 769690, Note_on_c, 0, 82, 95
2, 769810, Note_on_c, 0, 82, 0
2, 769810, Note_on_c, 0, 81, 80
2, 769906, Note_on_c, 0, 81, 0
2, 769929, Note_on_c, 0, 82, 91
2, 770402, Note_on_c, 0, 82, 0
2, 770885, Note_on_c, 0, 82, 70
2, 771005, Note_on_c, 0, 82, 0
2, 771005, Note_on_c, 0, 81, 73
2, 771122, Note_on_c, 0, 81, 0
2, 771122, Note_on_c, 0, 82, 83
2, 771242, Note_on_c, 0, 82, 0
2, 771242, Note_on_c, 0, 81, 77
2, 771362, Note_on_c, 0, 81, 0
2, 771362, Note_on_c, 0, 82, 90
2, 771482, Note_on_c, 0, 82, 0
2, 771482, Note_on_c, 0, 81, 79
2, 771601, Note_on_c, 0, 81, 0
2, 771601, Note_on_c, 0, 82, 94
2, 771721, Note_on_c, 0, 82, 0
2, 771721, Note_on_c, 0, 81, 71
2, 771817, Note_on_c, 0, 81, 0
2, 771841, Note_on_c, 0, 82, 86
2, 772080, Note_on_c, 0, 82, 0
2, 772800, Note_on_c, 0, 82, 76
2, 773037, Note_on_c, 0, 82, 0
2, 773280, Note_on_c, 0, 82, 82
2, 773517, Note_on_c, 0, 82, 0
2, 773760, Note_on_c, 0, 82, 90
2, 774602, Note_on_c, 0, 82, 0
2, 774602, End_track
3, 0, Start_track
3, 0, Title_t, "Oboes"
3, 0, Program_c, 1, 68
3, 0, Control_c, 1, 7, 65
3, 0, Control_c, 1, 10, 54
3, 0, Control_c, 1, 121, 0
3, 0, Control_c, 1, 91, 69
3, 15365, Note_on_c, 1, 62, 53
3, 15365, Note_on_c, 1, 70, 53
3, 15602, Note_on_c, 1, 70, 0
3, 15602, Note_on_c, 1, 62, 0
3, 15842, Note_on_c, 1, 62, 60
3, 15842, Note_on_c, 1, 70, 60
3, 16021, Note_on_c, 1, 70, 0
3, 16021, Note_on_c, 1, 62, 0
3, 16202, Note_on_c, 1, 62, 62
3, 16202, Note_on_c, 1, 70, 62
3, 16261, Note_on_c, 1, 70, 0
3, 16261, Note_on_c, 1, 62, 0
3, 16321, Note_on_c, 1, 62, 58
3, 16321, Note_on_c, 1, 70, 58
3, 16560, Note_on_c, 1, 70, 0
3, 16560, Note_on_c, 1, 62, 0
3, 16800, Note_on_c, 1, 62, 53
3, 16800, Note_on_c, 1, 70, 53
3, 17037, Note_on_c, 1, 70, 0
3, 17037, Note_on_c, 1, 62, 0
3, 17280, Note_on_c, 1, 72, 61
3, 17280, Note_on_c, 1, 63, 52
3, 17520, Note_on_c, 1, 72, 0
3, 17520, Note_on_c, 1, 69, 61
3, 17760, Note_on_c, 1, 69, 0
3, 17760, Note_on_c, 1, 63, 0
3, 17760, Note_on_c, 1, 70, 58
3, 17760, Note_on_c, 1, 62, 58
3, 18240, Note_on_c, 1, 62, 0
3, 18240, Note_on_c, 1, 70, 0
3, 19200, Note_on_c, 1, 69, 59
3, 19200, Note_on_c, 1, 72, 59
3, 19437, Note_on_c, 1, 72, 0
3, 19437, Note_on_c, 1, 69, 0
3, 19680, Note_on_c, 1, 69, 60
3, 19680, Note_on_c, 1, 72, 60
3, 19857, Note_on_c, 1, 72, 0
3, 19857, Note_on_c, 1, 69, 0
3, 20040, Note_on_c, 1, 69, 62
3, 20040, Note_on_c, 1, 72, 62
3, 20097, Note_on_c, 1, 72, 0
3, 20097, Note_on_c, 1, 69, 0
3, 20160, Note_on_c, 1, 69, 60
3, 20160, Note_on_c, 1, 72, 60
3, 20397, Note_on_c, 1, 72, 0
3, 20397, Note_on_c, 1, 69, 0
3, 20640, Note_on_c, 1, 69, 58
3, 20640, Note_on_c, 1, 72, 58
3, 20877, Note_on_c, 1, 72, 0
3, 20877, Note_on_c, 1, 69, 0
3, 21120, Note_on_c, 1, 67, 53
3, 21120, Note_on_c, 1, 70, 53
3, 21360, Note_on_c, 1, 70, 0
3, 21360, Note_on_c, 1, 67, 0
3, 21360, Note_on_c, 1, 69, 69
3, 21360, Note_on_c, 1, 72, 69
3, 21480, Note_on_c, 1, 72, 0
3, 21480, Note_on_c, 1, 69, 0
3, 21480, Note_on_c, 1, 70, 71
3, 21480, Note_on_c, 1, 74, 71
3, 21600, Note_on_c, 1, 74, 0
3, 21600, Note_on_c, 1, 70, 0
3, 21600, Note_on_c, 1, 69, 51
3, 21600, Note_on_c, 1, 72, 51
3, 22080, Note_on_c, 1, 72, 0
3, 22080, Note_on_c, 1, 69, 0
3, 36000, Note_on_c, 1, 70, 74
3, 36480, Note_on_c, 1, 70, 0
3, 36480, Note_on_c, 1, 75, 104
3, 37440, Note_on_c, 1, 75, 0
3, 37440, Note_on_c, 1, 72, 75
3, 37920, Note_on_c, 1, 72, 0
3, 37920, Note_on_c, 1, 69, 60
3, 38400, Note_on_c, 1, 69, 0
3, 38400, Note_on_c, 1, 77, 114
3, 39360, Note_on_c, 1, 77, 0
3, 39360, Note_on_c, 1, 74, 77
3, 39840, Note_on_c, 1, 74, 0
3, 39840, Note_on_c, 1, 70, 60
3, 40320, Note_on_c, 1, 70, 0
3, 40320, Note_on_c, 1, 75, 98
3, 41760, Note_on_c, 1, 75, 0
3, 41760, Note_on_c, 1, 74, 80
3, 42120, Note_on_c, 1, 74, 0
3, 42120, Note_on_c, 1, 70, 65
3, 42240, Note_on_c, 1, 70, 0
3, 42240, Note_on_c, 1, 69, 79
3, 42720, Note_on_c, 1, 69, 0
3, 42720, Note_on_c, 1, 72, 100
3, 43200, Note_on_c, 1, 72, 0
3, 43200, Note_on_c, 1, 69, 72
3, 43680, Note_on_c, 1, 69, 0
3, 43680, Note_on_c, 1, 65, 57
3, 44160, Note_on_c, 1, 65, 0
3, 44160, Note_on_c, 1, 70, 98
3, 44640, Note_on_c, 1, 70, 0
3, 45120, Note_on_c, 1, 82, 73
3, 45237, Note_on_c, 1, 82, 0
3, 45360, Note_on_c, 1, 74, 59
3, 45477, Note_on_c, 1, 74, 0
3, 45600, Note_on_c, 1, 75, 82
3, 45660, Note_on_c, 1, 75, 0
3, 45660, Note_on_c, 1, 74, 74
3, 45720, Note_on_c, 1, 74, 0
3, 45720, Note_on_c, 1, 72, 77
3, 45780, Note_on_c, 1, 72, 0
3, 45780, Note_on_c, 1, 74, 91
3, 46080, Note_on_c, 1, 74, 0
3, 46080, Note_on_c, 1, 77, 97
3, 46197, Note_on_c, 1, 77, 0
3, 46320, Note_on_c, 1, 70, 63
3, 46437, Note_on_c, 1, 70, 0
3, 46560, Note_on_c, 1, 72, 85
3, 46620, Note_on_c, 1, 72, 0
3, 46620, Note_on_c, 1, 70, 82
3, 46682, Note_on_c, 1, 70, 0
3, 46682, Note_on_c, 1, 69, 72
3, 46742, Note_on_c, 1, 69, 0
3, 46742, Note_on_c, 1, 70, 82
3, 47040, Note_on_c, 1, 70, 0
3, 47040, Note_on_c, 1, 74, 113
3, 47040, Note_on_c, 1, 86, 113
3, 47157, Note_on_c, 1, 86, 0
3, 47157, Note_on_c, 1, 74, 0
3, 47268, Note_on_c, 1, 65, 57
3, 47268, Note_on_c, 1, 77, 57
3, 47386, Note_on_c, 1, 77, 0
3, 47386, Note_on_c, 1, 65, 0
3, 47494, Note_on_c, 1, 67, 93
3, 47494, Note_on_c, 1, 79, 93
3, 47554, Note_on_c, 1, 79, 0
3, 47554, Note_on_c, 1, 67, 0
3, 47554, Note_on_c, 1, 65, 77
3, 47554, Note_on_c, 1, 77, 77
3, 47609, Note_on_c, 1, 77, 0
3, 47609, Note_on_c, 1, 65, 0
3, 47609, Note_on_c, 1, 64, 75
3, 47609, Note_on_c, 1, 76, 75
3, 47669, Note_on_c, 1, 76, 0
3, 47669, Note_on_c, 1, 64, 0
3, 47669, Note_on_c, 1, 65, 88
3, 47669, Note_on_c, 1, 77, 88
3, 48000, Note_on_c, 1, 77, 0
3, 48000, Note_on_c, 1, 65, 0
3, 48000, Note_on_c, 1, 70, 108
3, 48000, Note_on_c, 1, 82, 108
3, 48106, Note_on_c, 1, 82, 0
3, 48106, Note_on_c, 1, 70, 0
3, 48228, Note_on_c, 1, 62, 63
3, 48228, Note_on_c, 1, 74, 63
3, 48346, Note_on_c, 1, 74, 0
3, 48346, Note_on_c, 1, 62, 0
3, 48472, Note_on_c, 1, 62, 79
3, 48472, Note_on_c, 1, 74, 79
3, 49200, Note_on_c, 1, 74, 0
3, 49200, Note_on_c, 1, 62, 0
3, 49200, Note_on_c, 1, 64, 95
3, 49200, Note_on_c, 1, 76, 95
3, 49320, Note_on_c, 1, 76, 0
3, 49320, Note_on_c, 1, 64, 0
3, 49320, Note_on_c, 1, 65, 96
3, 49320, Note_on_c, 1, 77, 96
3, 49440, Note_on_c, 1, 77, 0
3, 49440, Note_on_c, 1, 65, 0
3, 49440, Note_on_c, 1, 67, 95
3, 49440, Note_on_c, 1, 79, 95
3, 49680, Note_on_c, 1, 79, 0
3, 49680, Note_on_c, 1, 67, 0
3, 49680, Note_on_c, 1, 64, 63
3, 49680, Note_on_c, 1, 76, 63
3, 49920, Note_on_c, 1, 76, 0
3, 49920, Note_on_c, 1, 64, 0
3, 49920, Note_on_c, 1, 65, 91
3, 49920, Note_on_c, 1, 77, 91
3, 50157, Note_on_c, 1, 77, 0
3, 50157, Note_on_c, 1, 65, 0
3, 50400, Note_on_c, 1, 72, 97
3, 50400, Note_on_c, 1, 81, 97
3, 50637, Note_on_c, 1, 81, 0
3, 50637, Note_on_c, 1, 72, 0
3, 53760, Note_on_c, 1, 75, 55
3, 54480, Note_on_c, 1, 75, 0
3, 54480, Note_on_c, 1, 72, 47
3, 54720, Note_on_c, 1, 72, 0
3, 54720, Note_on_c, 1, 69, 45
3, 55200, Note_on_c, 1, 69, 0
3, 55200, Note_on_c, 1, 69, 56
3, 55680, Note_on_c, 1, 69, 0
3, 57618, Note_on_c, 1, 75, 56
3, 57858, Note_on_c, 1, 75, 0
3, 57858, Note_on_c, 1, 74, 55
3, 58089, Note_on_c, 1, 74, 0
3, 58089, Note_on_c, 1, 75, 68
3, 58320, Note_on_c, 1, 75, 0
3, 58320, Note_on_c, 1, 72, 45
3, 58553, Note_on_c, 1, 72, 0
3, 58553, Note_on_c, 1, 69, 42
3, 59024, Note_on_c, 1, 69, 0
3, 59024, Note_on_c, 1, 69, 52
3, 59520, Note_on_c, 1, 69, 0
3, 60480, Note_on_c, 1, 75, 50
3, 61920, Note_on_c, 1, 75, 0
3, 61920, Note_on_c, 1, 76, 65
3, 62880, Note_on_c, 1, 76, 0
3, 62880, Note_on_c, 1, 74, 63
3, 63840, Note_on_c, 1, 74, 0
3, 63840, Note_on_c, 1, 75, 66
3, 64800, Note_on_c, 1, 75, 0
3, 64800, Note_on_c, 1, 72, 48
3, 65760, Note_on_c, 1, 72, 0
3, 65760, Note_on_c, 1, 73, 69
3, 66720, Note_on_c, 1, 73, 0
3, 66720, Note_on_c, 1, 70, 46
3, 67680, Note_on_c, 1, 70, 0
3, 67680, Note_on_c, 1, 71, 64
3, 68640, Note_on_c, 1, 71, 0
3, 68640, Note_on_c, 1, 69, 52
3, 69120, Note_on_c, 1, 69, 0
3, 69120, Note_on_c, 1, 70, 65
3, 69600, Note_on_c, 1, 70, 0
3, 74400, Note_on_c, 1, 74, 65
3, 74400, Note_on_c, 1, 77, 65
3, 74520, Note_on_c, 1, 77, 0
3, 74520, Note_on_c, 1, 74, 0
3, 74520, Note_on_c, 1, 75, 85
3, 74520, Note_on_c, 1, 79, 85
3, 74640, Note_on_c, 1, 79, 0
3, 74640, Note_on_c, 1, 75, 0
3, 74640, Note_on_c, 1, 74, 63
3, 74640, Note_on_c, 1, 77, 63
3, 74760, Note_on_c, 1, 77, 0
3, 74760, Note_on_c, 1, 74, 0
3, 74760, Note_on_c, 1, 72, 57
3, 74760, Note_on_c, 1, 75, 57
3, 74880, Note_on_c, 1, 75, 0
3, 74880, Note_on_c, 1, 72, 0
3, 74880, Note_on_c, 1, 70, 62
3, 74880, Note_on_c, 1, 74, 62
3, 75120, Note_on_c, 1, 74, 0
3, 75120, Note_on_c, 1, 70, 0
3, 75360, Note_on_c, 1, 74, 66
3, 75360, Note_on_c, 1, 77, 66
3, 75480, Note_on_c, 1, 77, 0
3, 75480, Note_on_c, 1, 74, 0
3, 75480, Note_on_c, 1, 75, 74
3, 75480, Note_on_c, 1, 79, 74
3, 75600, Note_on_c, 1, 79, 0
3, 75600, Note_on_c, 1, 75, 0
3, 75600, Note_on_c, 1, 74, 65
3, 75600, Note_on_c, 1, 77, 65
3, 75720, Note_on_c, 1, 77, 0
3, 75720, Note_on_c, 1, 74, 0
3, 75720, Note_on_c, 1, 72, 61
3, 75720, Note_on_c, 1, 75, 61
3, 75840, Note_on_c, 1, 75, 0
3, 75840, Note_on_c, 1, 72, 0
3, 75840, Note_on_c, 1, 70, 65
3, 75840, Note_on_c, 1, 74, 65
3, 76080, Note_on_c, 1, 74, 0
3, 76080, Note_on_c, 1, 70, 0
3, 76320, Note_on_c, 1, 74, 60
3, 76320, Note_on_c, 1, 77, 60
3, 76800, Note_on_c, 1, 77, 0
3, 76800, Note_on_c, 1, 74, 0
3, 76800, Note_on_c, 1, 69, 51
3, 76800, Note_on_c, 1, 72, 51
3, 77040, Note_on_c, 1, 72, 0
3, 77040, Note_on_c, 1, 69, 0
3, 77280, Note_on_c, 1, 69, 69
3, 77280, Note_on_c, 1, 72, 69
3, 77520, Note_on_c, 1, 72, 0
3, 77520, Note_on_c, 1, 69, 0
3, 77760, Note_on_c, 1, 69, 67
3, 77760, Note_on_c, 1, 72, 67
3, 78000, Note_on_c, 1, 72, 0
3, 78000, Note_on_c, 1, 69, 0
3, 82081, Note_on_c, 1, 74, 63
3, 82081, Note_on_c, 1, 77, 63
3, 82201, Note_on_c, 1, 77, 0
3, 82201, Note_on_c, 1, 74, 0
3, 82201, Note_on_c, 1, 75, 69
3, 82201, Note_on_c, 1, 79, 69
3, 82320, Note_on_c, 1, 79, 0
3, 82320, Note_on_c, 1, 75, 0
3, 82320, Note_on_c, 1, 74, 68
3, 82320, Note_on_c, 1, 77, 68
3, 82440, Note_on_c, 1, 77, 0
3, 82440, Note_on_c, 1, 74, 0
3, 82440, Note_on_c, 1, 72, 62
3, 82440, Note_on_c, 1, 75, 62
3, 82560, Note_on_c, 1, 75, 0
3, 82560, Note_on_c, 1, 72, 0
3, 82560, Note_on_c, 1, 70, 62
3, 82560, Note_on_c, 1, 74, 62
3, 82800, Note_on_c, 1, 74, 0
3, 82800, Note_on_c, 1, 70, 0
3, 83040, Note_on_c, 1, 74, 69
3, 83040, Note_on_c, 1, 77, 69
3, 83160, Note_on_c, 1, 77, 0
3, 83160, Note_on_c, 1, 74, 0
3, 83160, Note_on_c, 1, 75, 78
3, 83160, Note_on_c, 1, 79, 78
3, 83280, Note_on_c, 1, 79, 0
3, 83280, Note_on_c, 1, 75, 0
3, 83280, Note_on_c, 1, 74, 60
3, 83280, Note_on_c, 1, 77, 60
3, 83400, Note_on_c, 1, 77, 0
3, 83400, Note_on_c, 1, 74, 0
3, 83400, Note_on_c, 1, 72, 50
3, 83400, Note_on_c, 1, 75, 50
3, 83520, Note_on_c, 1, 75, 0
3, 83520, Note_on_c, 1, 72, 0
3, 83520, Note_on_c, 1, 70, 62
3, 83520, Note_on_c, 1, 74, 62
3, 83760, Note_on_c, 1, 74, 0
3, 83760, Note_on_c, 1, 70, 0
3, 84000, Note_on_c, 1, 74, 63
3, 84000, Note_on_c, 1, 77, 63
3, 84480, Note_on_c, 1, 77, 0
3, 84480, Note_on_c, 1, 74, 0
3, 84480, Note_on_c, 1, 69, 48
3, 84480, Note_on_c, 1, 72, 48
3, 84720, Note_on_c, 1, 72, 0
3, 84720, Note_on_c, 1, 69, 0
3, 84960, Note_on_c, 1, 69, 66
3, 84960, Note_on_c, 1, 72, 66
3, 85200, Note_on_c, 1, 72, 0
3, 85200, Note_on_c, 1, 69, 0
3, 85440, Note_on_c, 1, 69, 67
3, 85440, Note_on_c, 1, 72, 67
3, 85680, Note_on_c, 1, 72, 0
3, 85680, Note_on_c, 1, 69, 0
3, 89286, Note_on_c, 1, 72, 63
3, 89286, Note_on_c, 1, 75, 63
3, 89522, Note_on_c, 1, 75, 0
3, 89522, Note_on_c, 1, 72, 0
3, 89522, Note_on_c, 1, 74, 74
3, 89522, Note_on_c, 1, 77, 74
3, 89582, Note_on_c, 1, 77, 0
3, 89582, Note_on_c, 1, 74, 0
3, 89582, Note_on_c, 1, 72, 59
3, 89582, Note_on_c, 1, 75, 59
3, 89641, Note_on_c, 1, 75, 0
3, 89641, Note_on_c, 1, 72, 0
3, 89641, Note_on_c, 1, 71, 63
3, 89641, Note_on_c, 1, 74, 63
3, 89761, Note_on_c, 1, 74, 0
3, 89761, Note_on_c, 1, 71, 0
3, 89761, Note_on_c, 1, 72, 69
3, 89761, Note_on_c, 1, 75, 69
3, 90000, Note_on_c, 1, 75, 0
3, 90000, Note_on_c, 1, 72, 0
3, 90000, Note_on_c, 1, 72, 69
3, 90000, Note_on_c, 1, 75, 69
3, 90117, Note_on_c, 1, 75, 0
3, 90117, Note_on_c, 1, 72, 0
3, 90240, Note_on_c, 1, 70, 69
3, 90240, Note_on_c, 1, 74, 69
3, 90720, Note_on_c, 1, 74, 0
3, 90720, Note_on_c, 1, 70, 0
3, 91200, Note_on_c, 1, 72, 65
3, 91200, Note_on_c, 1, 75, 65
3, 91440, Note_on_c, 1, 75, 0
3, 91440, Note_on_c, 1, 72, 0
3, 91440, Note_on_c, 1, 74, 79
3, 91440, Note_on_c, 1, 77, 79
3, 91500, Note_on_c, 1, 77, 0
3, 91500, Note_on_c, 1, 74, 0
3, 91500, Note_on_c, 1, 72, 63
3, 91500, Note_on_c, 1, 75, 63
3, 91560, Note_on_c, 1, 75, 0
3, 91560, Note_on_c, 1, 72, 0
3, 91560, Note_on_c, 1, 71, 64
3, 91560, Note_on_c, 1, 74, 64
3, 91680, Note_on_c, 1, 74, 0
3, 91680, Note_on_c, 1, 71, 0
3, 91680, Note_on_c, 1, 72, 81
3, 91680, Note_on_c, 1, 75, 81
3, 91920, Note_on_c, 1, 75, 0
3, 91920, Note_on_c, 1, 72, 0
3, 91920, Note_on_c, 1, 72, 71
3, 91920, Note_on_c, 1, 75, 71
3, 92037, Note_on_c, 1, 75, 0
3, 92037, Note_on_c, 1, 72, 0
3, 92160, Note_on_c, 1, 70, 58
3, 92160, Note_on_c, 1, 74, 58
3, 92640, Note_on_c, 1, 74, 0
3, 92640, Note_on_c, 1, 70, 0
3, 93113, Note_on_c, 1, 72, 62
3, 93113, Note_on_c, 1, 75, 62
3, 93352, Note_on_c, 1, 75, 0
3, 93352, Note_on_c, 1, 72, 0
3, 93352, Note_on_c, 1, 74, 85
3, 93352, Note_on_c, 1, 77, 85
3, 93412, Note_on_c, 1, 77, 0
3, 93412, Note_on_c, 1, 74, 0
3, 93412, Note_on_c, 1, 72, 65
3, 93412, Note_on_c, 1, 75, 65
3, 93473, Note_on_c, 1, 75, 0
3, 93473, Note_on_c, 1, 72, 0
3, 93473, Note_on_c, 1, 71, 59
3, 93473, Note_on_c, 1, 74, 59
3, 93596, Note_on_c, 1, 74, 0
3, 93596, Note_on_c, 1, 71, 0
3, 93596, Note_on_c, 1, 72, 79
3, 93596, Note_on_c, 1, 75, 79
3, 93840, Note_on_c, 1, 75, 0
3, 93840, Note_on_c, 1, 72, 0
3, 93840, Note_on_c, 1, 72, 74
3, 93840, Note_on_c, 1, 75, 74
3, 93957, Note_on_c, 1, 75, 0
3, 93957, Note_on_c, 1, 72, 0
3, 94081, Note_on_c, 1, 70, 67
3, 94081, Note_on_c, 1, 74, 67
3, 94561, Note_on_c, 1, 74, 0
3, 94561, Note_on_c, 1, 70, 0
3, 95036, Note_on_c, 1, 72, 58
3, 95036, Note_on_c, 1, 75, 58
3, 95273, Note_on_c, 1, 75, 0
3, 95273, Note_on_c, 1, 72, 0
3, 95273, Note_on_c, 1, 74, 74
3, 95273, Note_on_c, 1, 77, 74
3, 95333, Note_on_c, 1, 77, 0
3, 95333, Note_on_c, 1, 74, 0
3, 95333, Note_on_c, 1, 72, 62
3, 95333, Note_on_c, 1, 75, 62
3, 95393, Note_on_c, 1, 75, 0
3, 95393, Note_on_c, 1, 72, 0
3, 95393, Note_on_c, 1, 71, 59
3, 95393, Note_on_c, 1, 74, 59
3, 95516, Note_on_c, 1, 74, 0
3, 95516, Note_on_c, 1, 71, 0
3, 95516, Note_on_c, 1, 72, 75
3, 95516, Note_on_c, 1, 75, 75
3, 95760, Note_on_c, 1, 75, 0
3, 95760, Note_on_c, 1, 72, 0
3, 95760, Note_on_c, 1, 72, 66
3, 95760, Note_on_c, 1, 75, 66
3, 95877, Note_on_c, 1, 75, 0
3, 95877, Note_on_c, 1, 72, 0
3, 96002, Note_on_c, 1, 70, 69
3, 96002, Note_on_c, 1, 74, 69
3, 96482, Note_on_c, 1, 74, 0
3, 96482, Note_on_c, 1, 70, 0
3, 97920, Note_on_c, 1, 70, 74
3, 98157, Note_on_c, 1, 70, 0
3, 98157, Note_on_c, 1, 70, 78
3, 98397, Note_on_c, 1, 70, 0
3, 98397, Note_on_c, 1, 70, 84
3, 98517, Note_on_c, 1, 70, 0
3, 98517, Note_on_c, 1, 72, 100
3, 98640, Note_on_c, 1, 72, 0
3, 98640, Note_on_c, 1, 74, 99
3, 98760, Note_on_c, 1, 74, 0
3, 98760, Note_on_c, 1, 75, 94
3, 98880, Note_on_c, 1, 75, 0
3, 98880, Note_on_c, 1, 77, 97
3, 99122, Note_on_c, 1, 77, 0
3, 99122, Note_on_c, 1, 77, 83
3, 99369, Note_on_c, 1, 77, 0
3, 99369, Note_on_c, 1, 77, 86
3, 99614, Note_on_c, 1, 77, 0
3, 99614, Note_on_c, 1, 79, 92
3, 99738, Note_on_c, 1, 79, 0
3, 99738, Note_on_c, 1, 81, 95
3, 99840, Note_on_c, 1, 81, 0
3, 99850, Note_on_c, 1, 82, 88
3, 100089, Note_on_c, 1, 82, 0
3, 100089, Note_on_c, 1, 82, 79
3, 100326, Note_on_c, 1, 82, 0
3, 100326, Note_on_c, 1, 82, 84
3, 100569, Note_on_c, 1, 82, 0
3, 100569, Note_on_c, 1, 81, 75
3, 100689, Note_on_c, 1, 81, 0
3, 100689, Note_on_c, 1, 79, 72
3, 100809, Note_on_c, 1, 79, 0
3, 100809, Note_on_c, 1, 77, 69
3, 101281, Note_on_c, 1, 77, 0
3, 109429, Note_on_c, 1, 74, 59
3, 109429, Note_on_c, 1, 77, 59
3, 110396, Note_on_c, 1, 77, 0
3, 110396, Note_on_c, 1, 74, 0
3, 110396, Note_on_c, 1, 71, 51
3, 110396, Note_on_c, 1, 74, 51
3, 111360, Note_on_c, 1, 74, 0
3, 111360, Note_on_c, 1, 71, 0
3, 111360, Note_on_c, 1, 70, 73
3, 111360, Note_on_c, 1, 79, 73
3, 112321, Note_on_c, 1, 79, 0
3, 112321, Note_on_c, 1, 70, 0
3, 112321, Note_on_c, 1, 69, 43
3, 112321, Note_on_c, 1, 72, 43
3, 113180, Note_on_c, 1, 72, 0
3, 113180, Note_on_c, 1, 69, 0
3, 113281, Note_on_c, 1, 70, 62
3, 113281, Note_on_c, 1, 74, 62
3, 113521, Note_on_c, 1, 74, 0
3, 113521, Note_on_c, 1, 70, 0
3, 113521, Note_on_c, 1, 74, 68
3, 113521, Note_on_c, 1, 77, 68
3, 113761, Note_on_c, 1, 77, 0
3, 113761, Note_on_c, 1, 74, 0
3, 113761, Note_on_c, 1, 75, 70
3, 113761, Note_on_c, 1, 79, 70
3, 114000, Note_on_c, 1, 79, 0
3, 114000, Note_on_c, 1, 75, 0
3, 114000, Note_on_c, 1, 72, 46
3, 114000, Note_on_c, 1, 75, 46
3, 114240, Note_on_c, 1, 75, 0
3, 114240, Note_on_c, 1, 72, 0
3, 114240, Note_on_c, 1, 70, 51
3, 114240, Note_on_c, 1, 74, 51
3, 114720, Note_on_c, 1, 74, 0
3, 114720, Note_on_c, 1, 70, 0
3, 114720, Note_on_c, 1, 69, 53
3, 114720, Note_on_c, 1, 72, 53
3, 115200, Note_on_c, 1, 72, 0
3, 115200, Note_on_c, 1, 69, 0
3, 120960, Note_on_c, 1, 70, 71
3, 120960, Note_on_c, 1, 82, 71
3, 121077, Note_on_c, 1, 82, 0
3, 121077, Note_on_c, 1, 70, 0
3, 121200, Note_on_c, 1, 70, 64
3, 121200, Note_on_c, 1, 82, 64
3, 121257, Note_on_c, 1, 82, 0
3, 121257, Note_on_c, 1, 70, 0
3, 121320, Note_on_c, 1, 70, 74
3, 121320, Note_on_c, 1, 82, 74
3, 121377, Note_on_c, 1, 82, 0
3, 121377, Note_on_c, 1, 70, 0
3, 121440, Note_on_c, 1, 70, 69
3, 121440, Note_on_c, 1, 82, 69
3, 121557, Note_on_c, 1, 82, 0
3, 121557, Note_on_c, 1, 70, 0
3, 121680, Note_on_c, 1, 70, 74
3, 121680, Note_on_c, 1, 82, 74
3, 121797, Note_on_c, 1, 82, 0
3, 121797, Note_on_c, 1, 70, 0
3, 121920, Note_on_c, 1, 70, 74
3, 121920, Note_on_c, 1, 82, 74
3, 122160, Note_on_c, 1, 82, 0
3, 122160, Note_on_c, 1, 70, 0
3, 122160, Note_on_c, 1, 74, 49
3, 122400, Note_on_c, 1, 74, 0
3, 122400, Note_on_c, 1, 65, 80
3, 122400, Note_on_c, 1, 77, 80
3, 122640, Note_on_c, 1, 77, 0
3, 122640, Note_on_c, 1, 65, 0
3, 122640, Note_on_c, 1, 70, 48
3, 122880, Note_on_c, 1, 70, 0
3, 122880, Note_on_c, 1, 74, 82
3, 122880, Note_on_c, 1, 62, 55
3, 122997, Note_on_c, 1, 74, 0
3, 123120, Note_on_c, 1, 74, 79
3, 123177, Note_on_c, 1, 74, 0
3, 123240, Note_on_c, 1, 74, 70
3, 123297, Note_on_c, 1, 74, 0
3, 123360, Note_on_c, 1, 62, 0
3, 123360, Note_on_c, 1, 74, 70
3, 123477, Note_on_c, 1, 74, 0
3, 123600, Note_on_c, 1, 74, 72
3, 123717, Note_on_c, 1, 74, 0
3, 123840, Note_on_c, 1, 74, 67
3, 124080, Note_on_c, 1, 74, 0
3, 124080, Note_on_c, 1, 77, 86
3, 124320, Note_on_c, 1, 77, 0
3, 124320, Note_on_c, 1, 70, 49
3, 124560, Note_on_c, 1, 70, 0
3, 124560, Note_on_c, 1, 74, 81
3, 124800, Note_on_c, 1, 74, 0
3, 124800, Note_on_c, 1, 65, 46
3, 125280, Note_on_c, 1, 65, 0
3, 126689, Note_on_c, 1, 70, 69
3, 128885, Note_on_c, 1, 70, 0
3, 128885, Note_on_c, 1, 72, 96
3, 128942, Note_on_c, 1, 72, 0
3, 129005, Note_on_c, 1, 74, 95
3, 129062, Note_on_c, 1, 74, 0
3, 129122, Note_on_c, 1, 75, 94
3, 129181, Note_on_c, 1, 75, 0
3, 129242, Note_on_c, 1, 77, 96
3, 129301, Note_on_c, 1, 77, 0
3, 129362, Note_on_c, 1, 79, 93
3, 129421, Note_on_c, 1, 79, 0
3, 129482, Note_on_c, 1, 81, 95
3, 129541, Note_on_c, 1, 81, 0
3, 129605, Note_on_c, 1, 82, 89
3, 129725, Note_on_c, 1, 82, 0
3, 129725, Note_on_c, 1, 81, 80
3, 129842, Note_on_c, 1, 81, 0
3, 129842, Note_on_c, 1, 82, 86
3, 129962, Note_on_c, 1, 82, 0
3, 129962, Note_on_c, 1, 81, 75
3, 130082, Note_on_c, 1, 81, 0
3, 130082, Note_on_c, 1, 82, 89
3, 130202, Note_on_c, 1, 82, 0
3, 130202, Note_on_c, 1, 81, 73
3, 130321, Note_on_c, 1, 81, 0
3, 130321, Note_on_c, 1, 82, 84
3, 130441, Note_on_c, 1, 82, 0
3, 130441, Note_on_c, 1, 81, 79
3, 130537, Note_on_c, 1, 81, 0
3, 130561, Note_on_c, 1, 82, 95
3, 130800, Note_on_c, 1, 82, 0
3, 131040, Note_on_c, 1, 74, 65
3, 131040, Note_on_c, 1, 77, 65
3, 131277, Note_on_c, 1, 77, 0
3, 131277, Note_on_c, 1, 74, 0
3, 131520, Note_on_c, 1, 70, 76
3, 131520, Note_on_c, 1, 74, 76
3, 131941, Note_on_c, 1, 74, 0
3, 131941, Note_on_c, 1, 70, 0
3, 150240, Note_on_c, 1, 70, 52
3, 151200, Note_on_c, 1, 70, 0
3, 151200, Note_on_c, 1, 71, 58
3, 151680, Note_on_c, 1, 71, 0
3, 151680, Note_on_c, 1, 72, 74
3, 152056, Note_on_c, 1, 72, 0
3, 154080, Note_on_c, 1, 72, 56
3, 155040, Note_on_c, 1, 72, 0
3, 155040, Note_on_c, 1, 73, 70
3, 155416, Note_on_c, 1, 73, 0
3, 155516, Note_on_c, 1, 74, 60
3, 155996, Note_on_c, 1, 74, 0
3, 168480, Note_on_c, 1, 70, 59
3, 168960, Note_on_c, 1, 70, 0
3, 168960, Note_on_c, 1, 75, 82
3, 169920, Note_on_c, 1, 75, 0
3, 169920, Note_on_c, 1, 72, 59
3, 170400, Note_on_c, 1, 72, 0
3, 170400, Note_on_c, 1, 63, 56
3, 170400, Note_on_c, 1, 69, 56
3, 170880, Note_on_c, 1, 69, 0
3, 170880, Note_on_c, 1, 63, 0
3, 170880, Note_on_c, 1, 62, 62
3, 170880, Note_on_c, 1, 70, 62
3, 171840, Note_on_c, 1, 70, 0
3, 171840, Note_on_c, 1, 62, 0
3, 172080, Note_on_c, 1, 70, 55
3, 172197, Note_on_c, 1, 70, 0
3, 172326, Note_on_c, 1, 70, 57
3, 172445, Note_on_c, 1, 70, 0
3, 172572, Note_on_c, 1, 70, 58
3, 172690, Note_on_c, 1, 70, 0
3, 172814, Note_on_c, 1, 77, 81
3, 172814, Note_on_c, 1, 70, 52
3, 173050, Note_on_c, 1, 70, 0
3, 173050, Note_on_c, 1, 69, 49
3, 173289, Note_on_c, 1, 69, 0
3, 173289, Note_on_c, 1, 69, 59
3, 174241, Note_on_c, 1, 69, 0
3, 174241, Note_on_c, 1, 70, 66
3, 174720, Note_on_c, 1, 70, 0
3, 174720, Note_on_c, 1, 77, 0
3, 174729, Note_on_c, 1, 75, 59
3, 174729, Note_on_c, 1, 71, 64
3, 174966, Note_on_c, 1, 71, 0
3, 174966, Note_on_c, 1, 72, 68
3, 175202, Note_on_c, 1, 72, 0
3, 175202, Note_on_c, 1, 72, 57
3, 175681, Note_on_c, 1, 72, 0
3, 175681, Note_on_c, 1, 75, 0
3, 175681, Note_on_c, 1, 72, 49
3, 175921, Note_on_c, 1, 72, 0
3, 175921, Note_on_c, 1, 72, 60
3, 176161, Note_on_c, 1, 72, 0
3, 176161, Note_on_c, 1, 69, 46
3, 176161, Note_on_c, 1, 72, 70
3, 176280, Note_on_c, 1, 72, 0
3, 176402, Note_on_c, 1, 73, 73
3, 176521, Note_on_c, 1, 73, 0
3, 176640, Note_on_c, 1, 69, 0
3, 176645, Note_on_c, 1, 70, 78
3, 176645, Note_on_c, 1, 74, 78
3, 177125, Note_on_c, 1, 74, 0
3, 177125, Note_on_c, 1, 70, 0
3, 184572, Note_on_c, 1, 65, 51
3, 184690, Note_on_c, 1, 65, 0
3, 184810, Note_on_c, 1, 67, 61
3, 184929, Note_on_c, 1, 67, 0
3, 185049, Note_on_c, 1, 69, 61
3, 185166, Note_on_c, 1, 69, 0
3, 185285, Note_on_c, 1, 70, 68
3, 185402, Note_on_c, 1, 70, 0
3, 185525, Note_on_c, 1, 69, 60
3, 185642, Note_on_c, 1, 69, 0
3, 185765, Note_on_c, 1, 70, 61
3, 185882, Note_on_c, 1, 70, 0
3, 186005, Note_on_c, 1, 72, 70
3, 186122, Note_on_c, 1, 72, 0
3, 186246, Note_on_c, 1, 74, 70
3, 186365, Note_on_c, 1, 74, 0
3, 186482, Note_on_c, 1, 70, 46
3, 186601, Note_on_c, 1, 70, 0
3, 186722, Note_on_c, 1, 72, 67
3, 186841, Note_on_c, 1, 72, 0
3, 186961, Note_on_c, 1, 74, 71
3, 187080, Note_on_c, 1, 74, 0
3, 187201, Note_on_c, 1, 75, 66
3, 187320, Note_on_c, 1, 75, 0
3, 187441, Note_on_c, 1, 74, 59
3, 187560, Note_on_c, 1, 74, 0
3, 187682, Note_on_c, 1, 75, 68
3, 187801, Note_on_c, 1, 75, 0
3, 187922, Note_on_c, 1, 76, 64
3, 188041, Note_on_c, 1, 76, 0
3, 188162, Note_on_c, 1, 77, 66
3, 188641, Note_on_c, 1, 77, 0
3, 189122, Note_on_c, 1, 77, 76
3, 189242, Note_on_c, 1, 77, 0
3, 189242, Note_on_c, 1, 76, 82
3, 189362, Note_on_c, 1, 76, 0
3, 189362, Note_on_c, 1, 77, 88
3, 189482, Note_on_c, 1, 77, 0
3, 189482, Note_on_c, 1, 76, 77
3, 189602, Note_on_c, 1, 76, 0
3, 189602, Note_on_c, 1, 77, 90
3, 189722, Note_on_c, 1, 77, 0
3, 189722, Note_on_c, 1, 76, 77
3, 189842, Note_on_c, 1, 76, 0
3, 189842, Note_on_c, 1, 77, 88
3, 189962, Note_on_c, 1, 77, 0
3, 189962, Note_on_c, 1, 76, 84
3, 190080, Note_on_c, 1, 76, 0
3, 190086, Note_on_c, 1, 77, 88
3, 190206, Note_on_c, 1, 77, 0
3, 190206, Note_on_c, 1, 72, 69
3, 190326, Note_on_c, 1, 72, 0
3, 190326, Note_on_c, 1, 74, 93
3, 190442, Note_on_c, 1, 74, 0
3, 190442, Note_on_c, 1, 76, 101
3, 190562, Note_on_c, 1, 76, 0
3, 190562, Note_on_c, 1, 77, 94
3, 190682, Note_on_c, 1, 77, 0
3, 190682, Note_on_c, 1, 79, 106
3, 190802, Note_on_c, 1, 79, 0
3, 190802, Note_on_c, 1, 81, 93
3, 190922, Note_on_c, 1, 81, 0
3, 190922, Note_on_c, 1, 79, 75
3, 191042, Note_on_c, 1, 79, 0
3, 191042, Note_on_c, 1, 77, 73
3, 191162, Note_on_c, 1, 77, 0
3, 191162, Note_on_c, 1, 76, 73
3, 191280, Note_on_c, 1, 76, 0
3, 191280, Note_on_c, 1, 77, 93
3, 191400, Note_on_c, 1, 77, 0
3, 191400, Note_on_c, 1, 76, 73
3, 191520, Note_on_c, 1, 76, 0
3, 191520, Note_on_c, 1, 77, 90
3, 191640, Note_on_c, 1, 77, 0
3, 191640, Note_on_c, 1, 76, 83
3, 191760, Note_on_c, 1, 76, 0
3, 191760, Note_on_c, 1, 77, 89
3, 191880, Note_on_c, 1, 77, 0
3, 191880, Note_on_c, 1, 76, 81
3, 192000, Note_on_c, 1, 76, 0
3, 192000, Note_on_c, 1, 77, 92
3, 192480, Note_on_c, 1, 77, 0
3, 224633, Note_on_c, 1, 70, 62
3, 225356, Note_on_c, 1, 70, 0
3, 225356, Note_on_c, 1, 67, 48
3, 225546, Note_on_c, 1, 67, 0
3, 225596, Note_on_c, 1, 64, 54
3, 226077, Note_on_c, 1, 64, 0
3, 226077, Note_on_c, 1, 64, 71
3, 226560, Note_on_c, 1, 64, 0
3, 228473, Note_on_c, 1, 70, 65
3, 228713, Note_on_c, 1, 70, 0
3, 228713, Note_on_c, 1, 69, 64
3, 228953, Note_on_c, 1, 69, 0
3, 228953, Note_on_c, 1, 70, 74
3, 229196, Note_on_c, 1, 70, 0
3, 229196, Note_on_c, 1, 67, 55
3, 229386, Note_on_c, 1, 67, 0
3, 229436, Note_on_c, 1, 64, 51
3, 229917, Note_on_c, 1, 64, 0
3, 229917, Note_on_c, 1, 64, 74
3, 230400, Note_on_c, 1, 64, 0
3, 231360, Note_on_c, 1, 70, 68
3, 232796, Note_on_c, 1, 70, 0
3, 232796, Note_on_c, 1, 71, 81
3, 233757, Note_on_c, 1, 71, 0
3, 233757, Note_on_c, 1, 69, 72
3, 234720, Note_on_c, 1, 69, 0
3, 234720, Note_on_c, 1, 70, 75
3, 235680, Note_on_c, 1, 70, 0
3, 235680, Note_on_c, 1, 67, 58
3, 236640, Note_on_c, 1, 67, 0
3, 236640, Note_on_c, 1, 68, 70
3, 237600, Note_on_c, 1, 68, 0
3, 237600, Note_on_c, 1, 65, 97
3, 237600, Note_on_c, 1, 77, 97
3, 238560, Note_on_c, 1, 77, 0
3, 238560, Note_on_c, 1, 66, 82
3, 238560, Note_on_c, 1, 78, 82
3, 239520, Note_on_c, 1, 78, 0
3, 239520, Note_on_c, 1, 66, 0
3, 239520, Note_on_c, 1, 64, 62
3, 239520, Note_on_c, 1, 76, 62
3, 239901, Note_on_c, 1, 76, 0
3, 239901, Note_on_c, 1, 64, 0
3, 240000, Note_on_c, 1, 77, 77
3, 240480, Note_on_c, 1, 77, 0
3, 240480, Note_on_c, 1, 65, 0
3, 245280, Note_on_c, 1, 69, 60
3, 245280, Note_on_c, 1, 72, 60
3, 245400, Note_on_c, 1, 72, 0
3, 245400, Note_on_c, 1, 69, 0
3, 245400, Note_on_c, 1, 70, 75
3, 245400, Note_on_c, 1, 74, 75
3, 245520, Note_on_c, 1, 74, 0
3, 245520, Note_on_c, 1, 70, 0
3, 245520, Note_on_c, 1, 69, 62
3, 245520, Note_on_c, 1, 72, 62
3, 245640, Note_on_c, 1, 72, 0
3, 245640, Note_on_c, 1, 69, 0
3, 245640, Note_on_c, 1, 67, 60
3, 245640, Note_on_c, 1, 70, 60
3, 245760, Note_on_c, 1, 70, 0
3, 245760, Note_on_c, 1, 67, 0
3, 245760, Note_on_c, 1, 65, 66
3, 245760, Note_on_c, 1, 69, 66
3, 246000, Note_on_c, 1, 69, 0
3, 246000, Note_on_c, 1, 65, 0
3, 246240, Note_on_c, 1, 69, 66
3, 246240, Note_on_c, 1, 72, 66
3, 246360, Note_on_c, 1, 72, 0
3, 246360, Note_on_c, 1, 69, 0
3, 246360, Note_on_c, 1, 70, 80
3, 246360, Note_on_c, 1, 74, 80
3, 246480, Note_on_c, 1, 74, 0
3, 246480, Note_on_c, 1, 70, 0
3, 246480, Note_on_c, 1, 69, 62
3, 246480, Note_on_c, 1, 72, 62
3, 246600, Note_on_c, 1, 72, 0
3, 246600, Note_on_c, 1, 69, 0
3, 246600, Note_on_c, 1, 67, 62
3, 246600, Note_on_c, 1, 70, 62
3, 246720, Note_on_c, 1, 70, 0
3, 246720, Note_on_c, 1, 67, 0
3, 246720, Note_on_c, 1, 65, 61
3, 246720, Note_on_c, 1, 69, 61
3, 246960, Note_on_c, 1, 69, 0
3, 246960, Note_on_c, 1, 65, 0
3, 247200, Note_on_c, 1, 69, 63
3, 247200, Note_on_c, 1, 72, 63
3, 247680, Note_on_c, 1, 72, 0
3, 247680, Note_on_c, 1, 69, 0
3, 247680, Note_on_c, 1, 64, 48
3, 247680, Note_on_c, 1, 67, 48
3, 247920, Note_on_c, 1, 67, 0
3, 247920, Note_on_c, 1, 64, 0
3, 248160, Note_on_c, 1, 64, 60
3, 248160, Note_on_c, 1, 67, 60
3, 248400, Note_on_c, 1, 67, 0
3, 248400, Note_on_c, 1, 64, 0
3, 248640, Note_on_c, 1, 64, 64
3, 248640, Note_on_c, 1, 67, 64
3, 248880, Note_on_c, 1, 67, 0
3, 248880, Note_on_c, 1, 64, 0
3, 278393, Note_on_c, 1, 81, 62
3, 279356, Note_on_c, 1, 81, 0
3, 279356, Note_on_c, 1, 72, 53
3, 279356, Note_on_c, 1, 78, 53
3, 280320, Note_on_c, 1, 78, 0
3, 280320, Note_on_c, 1, 72, 0
3, 280325, Note_on_c, 1, 71, 61
3, 280325, Note_on_c, 1, 77, 61
3, 281282, Note_on_c, 1, 77, 0
3, 281282, Note_on_c, 1, 71, 0
3, 281282, Note_on_c, 1, 70, 57
3, 281282, Note_on_c, 1, 76, 57
3, 282240, Note_on_c, 1, 76, 0
3, 282240, Note_on_c, 1, 70, 0
3, 282240, Note_on_c, 1, 69, 84
3, 282240, Note_on_c, 1, 77, 84
3, 282473, Note_on_c, 1, 77, 0
3, 282473, Note_on_c, 1, 69, 0
3, 282716, Note_on_c, 1, 67, 68
3, 282716, Note_on_c, 1, 79, 68
3, 282956, Note_on_c, 1, 79, 0
3, 282956, Note_on_c, 1, 67, 0
3, 283196, Note_on_c, 1, 69, 63
3, 283196, Note_on_c, 1, 77, 63
3, 283436, Note_on_c, 1, 77, 0
3, 283436, Note_on_c, 1, 69, 0
3, 283676, Note_on_c, 1, 70, 67
3, 283676, Note_on_c, 1, 76, 67
3, 283916, Note_on_c, 1, 76, 0
3, 283916, Note_on_c, 1, 70, 0
3, 284157, Note_on_c, 1, 69, 63
3, 284157, Note_on_c, 1, 77, 63
3, 284636, Note_on_c, 1, 77, 0
3, 284636, Note_on_c, 1, 69, 0
3, 297832, Note_on_c, 1, 65, 53
3, 298073, Note_on_c, 1, 65, 0
3, 298073, Note_on_c, 1, 69, 72
3, 298316, Note_on_c, 1, 69, 0
3, 298316, Note_on_c, 1, 65, 55
3, 298556, Note_on_c, 1, 65, 0
3, 298556, Note_on_c, 1, 72, 71
3, 299033, Note_on_c, 1, 72, 0
3, 299756, Note_on_c, 1, 65, 62
3, 299880, Note_on_c, 1, 65, 0
3, 299880, Note_on_c, 1, 67, 69
3, 300000, Note_on_c, 1, 67, 0
3, 300000, Note_on_c, 1, 69, 65
3, 300240, Note_on_c, 1, 69, 0
3, 300240, Note_on_c, 1, 65, 46
3, 300480, Note_on_c, 1, 65, 0
3, 300480, Note_on_c, 1, 72, 86
3, 300953, Note_on_c, 1, 72, 0
3, 301676, Note_on_c, 1, 65, 57
3, 301800, Note_on_c, 1, 65, 0
3, 301800, Note_on_c, 1, 67, 70
3, 301920, Note_on_c, 1, 67, 0
3, 301920, Note_on_c, 1, 69, 65
3, 302160, Note_on_c, 1, 69, 0
3, 302160, Note_on_c, 1, 65, 53
3, 302400, Note_on_c, 1, 65, 0
3, 302400, Note_on_c, 1, 72, 79
3, 302873, Note_on_c, 1, 72, 0
3, 308160, Note_on_c, 1, 86, 53
3, 308277, Note_on_c, 1, 86, 0
3, 308400, Note_on_c, 1, 86, 55
3, 308517, Note_on_c, 1, 86, 0
3, 308640, Note_on_c, 1, 82, 49
3, 308757, Note_on_c, 1, 82, 0
3, 308876, Note_on_c, 1, 82, 55
3, 308993, Note_on_c, 1, 82, 0
3, 309117, Note_on_c, 1, 76, 38
3, 309596, Note_on_c, 1, 76, 0
3, 314873, Note_on_c, 1, 77, 53
3, 323040, Note_on_c, 1, 77, 0
3, 323040, Note_on_c, 1, 62, 44
3, 323277, Note_on_c, 1, 62, 0
3, 323516, Note_on_c, 1, 65, 67
3, 323516, Note_on_c, 1, 62, 64
3, 323753, Note_on_c, 1, 62, 0
3, 323753, Note_on_c, 1, 65, 0
3, 323986, Note_on_c, 1, 70, 73
3, 323986, Note_on_c, 1, 65, 65
3, 324224, Note_on_c, 1, 65, 0
3, 324224, Note_on_c, 1, 70, 0
3, 324473, Note_on_c, 1, 70, 79
3, 324473, Note_on_c, 1, 74, 79
3, 324709, Note_on_c, 1, 74, 0
3, 324709, Note_on_c, 1, 70, 0
3, 324956, Note_on_c, 1, 74, 79
3, 324956, Note_on_c, 1, 77, 79
3, 325193, Note_on_c, 1, 77, 0
3, 325193, Note_on_c, 1, 74, 0
3, 325436, Note_on_c, 1, 77, 74
3, 325436, Note_on_c, 1, 82, 74
3, 325673, Note_on_c, 1, 82, 0
3, 325673, Note_on_c, 1, 77, 0
3, 325916, Note_on_c, 1, 80, 80
3, 325916, Note_on_c, 1, 86, 80
3, 326153, Note_on_c, 1, 86, 0
3, 326153, Note_on_c, 1, 80, 0
3, 326397, Note_on_c, 1, 77, 41
3, 328320, Note_on_c, 1, 77, 0
3, 328326, Note_on_c, 1, 76, 54
3, 330240, Note_on_c, 1, 76, 0
3, 330240, Note_on_c, 1, 69, 85
3, 330240, Note_on_c, 1, 77, 85
3, 330720, Note_on_c, 1, 77, 0
3, 330720, Note_on_c, 1, 69, 0
3, 330720, Note_on_c, 1, 60, 68
3, 330720, Note_on_c, 1, 72, 68
3, 331200, Note_on_c, 1, 72, 0
3, 331200, Note_on_c, 1, 60, 0
3, 331200, Note_on_c, 1, 65, 98
3, 331200, Note_on_c, 1, 77, 98
3, 331680, Note_on_c, 1, 77, 0
3, 331680, Note_on_c, 1, 65, 0
3, 331680, Note_on_c, 1, 69, 109
3, 331680, Note_on_c, 1, 81, 109
3, 332160, Note_on_c, 1, 81, 0
3, 332160, Note_on_c, 1, 69, 0
3, 332160, Note_on_c, 1, 70, 92
3, 332160, Note_on_c, 1, 82, 92
3, 333600, Note_on_c, 1, 82, 0
3, 333600, Note_on_c, 1, 70, 0
3, 333600, Note_on_c, 1, 69, 73
3, 333600, Note_on_c, 1, 81, 73
3, 333960, Note_on_c, 1, 81, 0
3, 333960, Note_on_c, 1, 69, 0
3, 333960, Note_on_c, 1, 65, 63
3, 333960, Note_on_c, 1, 77, 63
3, 334080, Note_on_c, 1, 77, 0
3, 334080, Note_on_c, 1, 65, 0
3, 334080, Note_on_c, 1, 67, 93
3, 334080, Note_on_c, 1, 79, 93
3, 334560, Note_on_c, 1, 79, 0
3, 334560, Note_on_c, 1, 67, 0
3, 334560, Note_on_c, 1, 60, 56
3, 334560, Note_on_c, 1, 72, 56
3, 335040, Note_on_c, 1, 72, 0
3, 335040, Note_on_c, 1, 60, 0
3, 335040, Note_on_c, 1, 64, 98
3, 335040, Note_on_c, 1, 76, 98
3, 335520, Note_on_c, 1, 76, 0
3, 335520, Note_on_c, 1, 64, 0
3, 335520, Note_on_c, 1, 67, 104
3, 335520, Note_on_c, 1, 79, 104
3, 336000, Note_on_c, 1, 79, 0
3, 336000, Note_on_c, 1, 67, 0
3, 336000, Note_on_c, 1, 72, 105
3, 336000, Note_on_c, 1, 84, 105
3, 337440, Note_on_c, 1, 84, 0
3, 337440, Note_on_c, 1, 72, 0
3, 337440, Note_on_c, 1, 70, 82
3, 337440, Note_on_c, 1, 82, 82
3, 337800, Note_on_c, 1, 82, 0
3, 337800, Note_on_c, 1, 70, 0
3, 337800, Note_on_c, 1, 67, 66
3, 337800, Note_on_c, 1, 79, 66
3, 337920, Note_on_c, 1, 79, 0
3, 337920, Note_on_c, 1, 67, 0
3, 337920, Note_on_c, 1, 65, 69
3, 337920, Note_on_c, 1, 77, 69
3, 338400, Note_on_c, 1, 77, 0
3, 338400, Note_on_c, 1, 65, 0
3, 338400, Note_on_c, 1, 60, 60
3, 338400, Note_on_c, 1, 72, 60
3, 338880, Note_on_c, 1, 72, 0
3, 338880, Note_on_c, 1, 60, 0
3, 338880, Note_on_c, 1, 65, 100
3, 338880, Note_on_c, 1, 77, 100
3, 339360, Note_on_c, 1, 77, 0
3, 339360, Note_on_c, 1, 65, 0
3, 339360, Note_on_c, 1, 69, 106
3, 339360, Note_on_c, 1, 81, 106
3, 339840, Note_on_c, 1, 81, 0
3, 339840, Note_on_c, 1, 69, 0
3, 339840, Note_on_c, 1, 70, 95
3, 339840, Note_on_c, 1, 82, 95
3, 341280, Note_on_c, 1, 82, 0
3, 341280, Note_on_c, 1, 70, 0
3, 341280, Note_on_c, 1, 69, 77
3, 341280, Note_on_c, 1, 81, 77
3, 341760, Note_on_c, 1, 81, 0
3, 341760, Note_on_c, 1, 69, 0
3, 341760, Note_on_c, 1, 64, 60
3, 341760, Note_on_c, 1, 76, 60
3, 343200, Note_on_c, 1, 76, 0
3, 343200, Note_on_c, 1, 64, 0
3, 343200, Note_on_c, 1, 67, 93
3, 343200, Note_on_c, 1, 79, 93
3, 343680, Note_on_c, 1, 79, 0
3, 343680, Note_on_c, 1, 67, 0
3, 343680, Note_on_c, 1, 77, 78
3, 343680, Note_on_c, 1, 65, 63
3, 343797, Note_on_c, 1, 77, 0
3, 343920, Note_on_c, 1, 77, 87
3, 344037, Note_on_c, 1, 77, 0
3, 344160, Note_on_c, 1, 65, 0
3, 344160, Note_on_c, 1, 79, 93
3, 344220, Note_on_c, 1, 79, 0
3, 344220, Note_on_c, 1, 77, 78
3, 344280, Note_on_c, 1, 77, 0
3, 344280, Note_on_c, 1, 76, 75
3, 344340, Note_on_c, 1, 76, 0
3, 344340, Note_on_c, 1, 77, 95
3, 344640, Note_on_c, 1, 77, 0
3, 344640, Note_on_c, 1, 81, 97
3, 344757, Note_on_c, 1, 81, 0
3, 344880, Note_on_c, 1, 72, 55
3, 344997, Note_on_c, 1, 72, 0
3, 345120, Note_on_c, 1, 74, 88
3, 345180, Note_on_c, 1, 74, 0
3, 345180, Note_on_c, 1, 72, 66
3, 345237, Note_on_c, 1, 72, 0
3, 345237, Note_on_c, 1, 70, 73
3, 345297, Note_on_c, 1, 70, 0
3, 345297, Note_on_c, 1, 72, 86
3, 345600, Note_on_c, 1, 72, 0
3, 345600, Note_on_c, 1, 74, 100
3, 345712, Note_on_c, 1, 74, 0
3, 345840, Note_on_c, 1, 70, 72
3, 345957, Note_on_c, 1, 70, 0
3, 346080, Note_on_c, 1, 72, 89
3, 346140, Note_on_c, 1, 72, 0
3, 346140, Note_on_c, 1, 70, 73
3, 346200, Note_on_c, 1, 70, 0
3, 346200, Note_on_c, 1, 69, 71
3, 346260, Note_on_c, 1, 69, 0
3, 346260, Note_on_c, 1, 70, 91
3, 346560, Note_on_c, 1, 70, 0
3, 346560, Note_on_c, 1, 74, 108
3, 346677, Note_on_c, 1, 74, 0
3, 346789, Note_on_c, 1, 65, 61
3, 346908, Note_on_c, 1, 65, 0
3, 347014, Note_on_c, 1, 67, 89
3, 347074, Note_on_c, 1, 67, 0
3, 347074, Note_on_c, 1, 65, 78
3, 347130, Note_on_c, 1, 65, 0
3, 347130, Note_on_c, 1, 64, 67
3, 347190, Note_on_c, 1, 64, 0
3, 347190, Note_on_c, 1, 65, 92
3, 347520, Note_on_c, 1, 65, 0
3, 347520, Note_on_c, 1, 70, 100
3, 347626, Note_on_c, 1, 70, 0
3, 347748, Note_on_c, 1, 62, 53
3, 347866, Note_on_c, 1, 62, 0
3, 347992, Note_on_c, 1, 62, 80
3, 348109, Note_on_c, 1, 62, 0
3, 348232, Note_on_c, 1, 62, 79
3, 348349, Note_on_c, 1, 62, 0
3, 348476, Note_on_c, 1, 62, 92
3, 348593, Note_on_c, 1, 62, 0
3, 348716, Note_on_c, 1, 62, 81
3, 348833, Note_on_c, 1, 62, 0
3, 348960, Note_on_c, 1, 62, 80
3, 349077, Note_on_c, 1, 62, 0
3, 349200, Note_on_c, 1, 62, 77
3, 349317, Note_on_c, 1, 62, 0
3, 349440, Note_on_c, 1, 62, 88
3, 349920, Note_on_c, 1, 62, 0
3, 349920, Note_on_c, 1, 77, 114
3, 349920, Note_on_c, 1, 82, 114
3, 350400, Note_on_c, 1, 82, 0
3, 350400, Note_on_c, 1, 77, 0
3, 350400, Note_on_c, 1, 77, 94
3, 350400, Note_on_c, 1, 82, 94
3, 350880, Note_on_c, 1, 82, 0
3, 350880, Note_on_c, 1, 77, 0
3, 350880, Note_on_c, 1, 77, 83
3, 350880, Note_on_c, 1, 82, 83
3, 351360, Note_on_c, 1, 82, 0
3, 351360, Note_on_c, 1, 77, 0
3, 351360, Note_on_c, 1, 77, 83
3, 351360, Note_on_c, 1, 82, 83
3, 351840, Note_on_c, 1, 82, 0
3, 351840, Note_on_c, 1, 77, 0
3, 357120, Note_on_c, 1, 81, 62
3, 357120, Note_on_c, 1, 69, 60
3, 357237, Note_on_c, 1, 69, 0
3, 357237, Note_on_c, 1, 81, 0
3, 357360, Note_on_c, 1, 81, 66
3, 357360, Note_on_c, 1, 69, 52
3, 357417, Note_on_c, 1, 69, 0
3, 357417, Note_on_c, 1, 81, 0
3, 357480, Note_on_c, 1, 81, 70
3, 357480, Note_on_c, 1, 69, 58
3, 357537, Note_on_c, 1, 69, 0
3, 357537, Note_on_c, 1, 81, 0
3, 357600, Note_on_c, 1, 81, 72
3, 357600, Note_on_c, 1, 69, 59
3, 357717, Note_on_c, 1, 69, 0
3, 357717, Note_on_c, 1, 81, 0
3, 357840, Note_on_c, 1, 81, 68
3, 357840, Note_on_c, 1, 69, 59
3, 357957, Note_on_c, 1, 69, 0
3, 357957, Note_on_c, 1, 81, 0
3, 358080, Note_on_c, 1, 81, 68
3, 358080, Note_on_c, 1, 69, 66
3, 358320, Note_on_c, 1, 69, 0
3, 358320, Note_on_c, 1, 81, 0
3, 358320, Note_on_c, 1, 72, 71
3, 358560, Note_on_c, 1, 72, 0
3, 358560, Note_on_c, 1, 77, 63
3, 358560, Note_on_c, 1, 65, 44
3, 358800, Note_on_c, 1, 65, 0
3, 358800, Note_on_c, 1, 77, 0
3, 358800, Note_on_c, 1, 69, 75
3, 359040, Note_on_c, 1, 69, 0
3, 359040, Note_on_c, 1, 72, 72
3, 359040, Note_on_c, 1, 60, 41
3, 359157, Note_on_c, 1, 72, 0
3, 359280, Note_on_c, 1, 72, 70
3, 359337, Note_on_c, 1, 72, 0
3, 359400, Note_on_c, 1, 72, 83
3, 359457, Note_on_c, 1, 72, 0
3, 359520, Note_on_c, 1, 60, 0
3, 359520, Note_on_c, 1, 72, 68
3, 359637, Note_on_c, 1, 72, 0
3, 359760, Note_on_c, 1, 72, 65
3, 359877, Note_on_c, 1, 72, 0
3, 360000, Note_on_c, 1, 72, 71
3, 360117, Note_on_c, 1, 72, 0
3, 360240, Note_on_c, 1, 72, 70
3, 360357, Note_on_c, 1, 72, 0
3, 360480, Note_on_c, 1, 72, 68
3, 360597, Note_on_c, 1, 72, 0
3, 360720, Note_on_c, 1, 72, 71
3, 360837, Note_on_c, 1, 72, 0
3, 360933, Note_on_c, 1, 65, 64
3, 361428, Note_on_c, 1, 65, 0
3, 361922, Note_on_c, 1, 77, 75
3, 362049, Note_on_c, 1, 77, 0
3, 362049, Note_on_c, 1, 76, 72
3, 362169, Note_on_c, 1, 76, 0
3, 362169, Note_on_c, 1, 77, 87
3, 362289, Note_on_c, 1, 77, 0
3, 362289, Note_on_c, 1, 76, 75
3, 362409, Note_on_c, 1, 76, 0
3, 362409, Note_on_c, 1, 77, 90
3, 362529, Note_on_c, 1, 77, 0
3, 362529, Note_on_c, 1, 76, 82
3, 362649, Note_on_c, 1, 76, 0
3, 362649, Note_on_c, 1, 77, 93
3, 362769, Note_on_c, 1, 77, 0
3, 362769, Note_on_c, 1, 76, 78
3, 362880, Note_on_c, 1, 76, 0
3, 362886, Note_on_c, 1, 77, 90
3, 363006, Note_on_c, 1, 77, 0
3, 363006, Note_on_c, 1, 72, 65
3, 363126, Note_on_c, 1, 72, 0
3, 363126, Note_on_c, 1, 74, 96
3, 363242, Note_on_c, 1, 74, 0
3, 363242, Note_on_c, 1, 76, 96
3, 363362, Note_on_c, 1, 76, 0
3, 363362, Note_on_c, 1, 77, 94
3, 363482, Note_on_c, 1, 77, 0
3, 363482, Note_on_c, 1, 79, 104
3, 363602, Note_on_c, 1, 79, 0
3, 363602, Note_on_c, 1, 81, 101
3, 363722, Note_on_c, 1, 81, 0
3, 363722, Note_on_c, 1, 79, 68
3, 363842, Note_on_c, 1, 79, 0
3, 363842, Note_on_c, 1, 77, 69
3, 363962, Note_on_c, 1, 77, 0
3, 363962, Note_on_c, 1, 76, 77
3, 364080, Note_on_c, 1, 76, 0
3, 364080, Note_on_c, 1, 77, 84
3, 364200, Note_on_c, 1, 77, 0
3, 364200, Note_on_c, 1, 76, 76
3, 364320, Note_on_c, 1, 76, 0
3, 364320, Note_on_c, 1, 77, 90
3, 364440, Note_on_c, 1, 77, 0
3, 364440, Note_on_c, 1, 76, 78
3, 364560, Note_on_c, 1, 76, 0
3, 364560, Note_on_c, 1, 77, 90
3, 364680, Note_on_c, 1, 77, 0
3, 364680, Note_on_c, 1, 76, 74
3, 364800, Note_on_c, 1, 76, 0
3, 364800, Note_on_c, 1, 77, 86
3, 365280, Note_on_c, 1, 77, 0
3, 365280, Note_on_c, 1, 72, 105
3, 365280, Note_on_c, 1, 81, 105
3, 365760, Note_on_c, 1, 81, 0
3, 365760, Note_on_c, 1, 72, 0
3, 365760, Note_on_c, 1, 69, 73
3, 365760, Note_on_c, 1, 77, 73
3, 366240, Note_on_c, 1, 77, 0
3, 366240, Note_on_c, 1, 69, 0
3, 374418, Note_on_c, 1, 77, 50
3, 375842, Note_on_c, 1, 77, 0
3, 375842, Note_on_c, 1, 72, 48
3, 376221, Note_on_c, 1, 72, 0
3, 376320, Note_on_c, 1, 69, 48
3, 376800, Note_on_c, 1, 69, 0
3, 383996, Note_on_c, 1, 74, 63
3, 384112, Note_on_c, 1, 74, 0
3, 384233, Note_on_c, 1, 74, 72
3, 384292, Note_on_c, 1, 74, 0
3, 384353, Note_on_c, 1, 74, 73
3, 384412, Note_on_c, 1, 74, 0
3, 384476, Note_on_c, 1, 74, 68
3, 384593, Note_on_c, 1, 74, 0
3, 384716, Note_on_c, 1, 74, 72
3, 384833, Note_on_c, 1, 74, 0
3, 384956, Note_on_c, 1, 74, 66
3, 385200, Note_on_c, 1, 74, 0
3, 385200, Note_on_c, 1, 77, 86
3, 385440, Note_on_c, 1, 77, 0
3, 385440, Note_on_c, 1, 69, 49
3, 385680, Note_on_c, 1, 69, 0
3, 385680, Note_on_c, 1, 74, 77
3, 385920, Note_on_c, 1, 74, 0
3, 385920, Note_on_c, 1, 65, 51
3, 386024, Note_on_c, 1, 65, 0
3, 386148, Note_on_c, 1, 65, 66
3, 386206, Note_on_c, 1, 65, 0
3, 386268, Note_on_c, 1, 65, 78
3, 386326, Note_on_c, 1, 65, 0
3, 386389, Note_on_c, 1, 65, 70
3, 386508, Note_on_c, 1, 65, 0
3, 386636, Note_on_c, 1, 65, 70
3, 386753, Note_on_c, 1, 65, 0
3, 386880, Note_on_c, 1, 65, 67
3, 387122, Note_on_c, 1, 65, 0
3, 387122, Note_on_c, 1, 69, 87
3, 387369, Note_on_c, 1, 69, 0
3, 387369, Note_on_c, 1, 62, 46
3, 387609, Note_on_c, 1, 62, 0
3, 387609, Note_on_c, 1, 66, 80
3, 387840, Note_on_c, 1, 66, 0
3, 387849, Note_on_c, 1, 67, 105
3, 387849, Note_on_c, 1, 79, 105
3, 387966, Note_on_c, 1, 79, 0
3, 387966, Note_on_c, 1, 67, 0
3, 388089, Note_on_c, 1, 67, 74
3, 388089, Note_on_c, 1, 79, 74
3, 388146, Note_on_c, 1, 79, 0
3, 388146, Note_on_c, 1, 67, 0
3, 388206, Note_on_c, 1, 67, 69
3, 388206, Note_on_c, 1, 79, 69
3, 388265, Note_on_c, 1, 79, 0
3, 388265, Note_on_c, 1, 67, 0
3, 388326, Note_on_c, 1, 67, 70
3, 388326, Note_on_c, 1, 79, 70
3, 388445, Note_on_c, 1, 79, 0
3, 388445, Note_on_c, 1, 67, 0
3, 388565, Note_on_c, 1, 67, 72
3, 388565, Note_on_c, 1, 79, 72
3, 388682, Note_on_c, 1, 79, 0
3, 388682, Note_on_c, 1, 67, 0
3, 388802, Note_on_c, 1, 67, 77
3, 388802, Note_on_c, 1, 79, 77
3, 389041, Note_on_c, 1, 79, 0
3, 389041, Note_on_c, 1, 67, 0
3, 389041, Note_on_c, 1, 70, 80
3, 389041, Note_on_c, 1, 82, 80
3, 389280, Note_on_c, 1, 82, 0
3, 389280, Note_on_c, 1, 70, 0
3, 389280, Note_on_c, 1, 62, 54
3, 389280, Note_on_c, 1, 74, 54
3, 389520, Note_on_c, 1, 74, 0
3, 389520, Note_on_c, 1, 62, 0
3, 389520, Note_on_c, 1, 67, 81
3, 389520, Note_on_c, 1, 79, 81
3, 389760, Note_on_c, 1, 79, 0
3, 389760, Note_on_c, 1, 67, 0
3, 389760, Note_on_c, 1, 70, 46
3, 389877, Note_on_c, 1, 70, 0
3, 389997, Note_on_c, 1, 70, 68
3, 390056, Note_on_c, 1, 70, 0
3, 390117, Note_on_c, 1, 70, 77
3, 390176, Note_on_c, 1, 70, 0
3, 390236, Note_on_c, 1, 70, 72
3, 390353, Note_on_c, 1, 70, 0
3, 390480, Note_on_c, 1, 70, 68
3, 390597, Note_on_c, 1, 70, 0
3, 390721, Note_on_c, 1, 70, 70
3, 390965, Note_on_c, 1, 70, 0
3, 390965, Note_on_c, 1, 74, 85
3, 391206, Note_on_c, 1, 74, 0
3, 391206, Note_on_c, 1, 67, 59
3, 391445, Note_on_c, 1, 67, 0
3, 391445, Note_on_c, 1, 71, 81
3, 391680, Note_on_c, 1, 71, 0
3, 391682, Note_on_c, 1, 72, 84
3, 391922, Note_on_c, 1, 72, 0
3, 391922, Note_on_c, 1, 72, 63
3, 392042, Note_on_c, 1, 72, 0
3, 392042, Note_on_c, 1, 72, 62
3, 392161, Note_on_c, 1, 72, 0
3, 392161, Note_on_c, 1, 72, 63
3, 392280, Note_on_c, 1, 72, 0
3, 392401, Note_on_c, 1, 72, 65
3, 392520, Note_on_c, 1, 72, 0
3, 392641, Note_on_c, 1, 72, 63
3, 392880, Note_on_c, 1, 72, 0
3, 392880, Note_on_c, 1, 75, 75
3, 393120, Note_on_c, 1, 75, 0
3, 393120, Note_on_c, 1, 67, 35
3, 393360, Note_on_c, 1, 67, 0
3, 393360, Note_on_c, 1, 72, 67
3, 393600, Note_on_c, 1, 72, 0
3, 393609, Note_on_c, 1, 63, 51
3, 394089, Note_on_c, 1, 63, 0
3, 395521, Note_on_c, 1, 77, 72
3, 395521, Note_on_c, 1, 65, 41
3, 395640, Note_on_c, 1, 65, 0
3, 395640, Note_on_c, 1, 77, 0
3, 395761, Note_on_c, 1, 77, 71
3, 395761, Note_on_c, 1, 65, 53
3, 395820, Note_on_c, 1, 65, 0
3, 395820, Note_on_c, 1, 77, 0
3, 395881, Note_on_c, 1, 77, 74
3, 395881, Note_on_c, 1, 65, 57
3, 395940, Note_on_c, 1, 65, 0
3, 395940, Note_on_c, 1, 77, 0
3, 396001, Note_on_c, 1, 77, 71
3, 396001, Note_on_c, 1, 65, 65
3, 396120, Note_on_c, 1, 65, 0
3, 396120, Note_on_c, 1, 77, 0
3, 396241, Note_on_c, 1, 77, 70
3, 396241, Note_on_c, 1, 65, 60
3, 396360, Note_on_c, 1, 65, 0
3, 396360, Note_on_c, 1, 77, 0
3, 396480, Note_on_c, 1, 77, 62
3, 396480, Note_on_c, 1, 65, 60
3, 396720, Note_on_c, 1, 65, 0
3, 396720, Note_on_c, 1, 77, 0
3, 396720, Note_on_c, 1, 81, 83
3, 396720, Note_on_c, 1, 69, 68
3, 396960, Note_on_c, 1, 69, 0
3, 396960, Note_on_c, 1, 81, 0
3, 396960, Note_on_c, 1, 72, 50
3, 396960, Note_on_c, 1, 60, 49
3, 397200, Note_on_c, 1, 60, 0
3, 397200, Note_on_c, 1, 72, 0
3, 397200, Note_on_c, 1, 77, 85
3, 397440, Note_on_c, 1, 77, 0
3, 397440, Note_on_c, 1, 69, 51
3, 397557, Note_on_c, 1, 69, 0
3, 397680, Note_on_c, 1, 69, 69
3, 397737, Note_on_c, 1, 69, 0
3, 397800, Note_on_c, 1, 69, 68
3, 397857, Note_on_c, 1, 69, 0
3, 397920, Note_on_c, 1, 69, 73
3, 398037, Note_on_c, 1, 69, 0
3, 398160, Note_on_c, 1, 69, 81
3, 398277, Note_on_c, 1, 69, 0
3, 398401, Note_on_c, 1, 69, 70
3, 398645, Note_on_c, 1, 69, 0
3, 398645, Note_on_c, 1, 72, 74
3, 398885, Note_on_c, 1, 72, 0
3, 398885, Note_on_c, 1, 65, 59
3, 399125, Note_on_c, 1, 65, 0
3, 399125, Note_on_c, 1, 69, 88
3, 399360, Note_on_c, 1, 69, 0
3, 399366, Note_on_c, 1, 82, 100
3, 399366, Note_on_c, 1, 70, 61
3, 399485, Note_on_c, 1, 82, 0
3, 399602, Note_on_c, 1, 70, 0
3, 399602, Note_on_c, 1, 82, 79
3, 399602, Note_on_c, 1, 70, 62
3, 399661, Note_on_c, 1, 82, 0
3, 399722, Note_on_c, 1, 70, 0
3, 399722, Note_on_c, 1, 82, 73
3, 399722, Note_on_c, 1, 70, 59
3, 399781, Note_on_c, 1, 82, 0
3, 399842, Note_on_c, 1, 70, 0
3, 399842, Note_on_c, 1, 82, 68
3, 399842, Note_on_c, 1, 70, 57
3, 399961, Note_on_c, 1, 82, 0
3, 400082, Note_on_c, 1, 70, 0
3, 400082, Note_on_c, 1, 82, 72
3, 400082, Note_on_c, 1, 70, 63
3, 400201, Note_on_c, 1, 82, 0
3, 400322, Note_on_c, 1, 70, 0
3, 400322, Note_on_c, 1, 82, 64
3, 400322, Note_on_c, 1, 70, 68
3, 400560, Note_on_c, 1, 70, 0
3, 400560, Note_on_c, 1, 82, 0
3, 400560, Note_on_c, 1, 74, 73
3, 400800, Note_on_c, 1, 74, 0
3, 400800, Note_on_c, 1, 77, 63
3, 400800, Note_on_c, 1, 65, 41
3, 401040, Note_on_c, 1, 65, 0
3, 401040, Note_on_c, 1, 77, 0
3, 401040, Note_on_c, 1, 70, 74
3, 401280, Note_on_c, 1, 70, 0
3, 401280, Note_on_c, 1, 74, 71
3, 401397, Note_on_c, 1, 74, 0
3, 401520, Note_on_c, 1, 74, 74
3, 401577, Note_on_c, 1, 74, 0
3, 401640, Note_on_c, 1, 74, 65
3, 401697, Note_on_c, 1, 74, 0
3, 401760, Note_on_c, 1, 74, 70
3, 401877, Note_on_c, 1, 74, 0
3, 402000, Note_on_c, 1, 74, 72
3, 402117, Note_on_c, 1, 74, 0
3, 402242, Note_on_c, 1, 74, 72
3, 402490, Note_on_c, 1, 74, 0
3, 402490, Note_on_c, 1, 77, 88
3, 402730, Note_on_c, 1, 77, 0
3, 402730, Note_on_c, 1, 70, 48
3, 402966, Note_on_c, 1, 70, 0
3, 402966, Note_on_c, 1, 74, 80
3, 403200, Note_on_c, 1, 74, 0
3, 403206, Note_on_c, 1, 75, 88
3, 403682, Note_on_c, 1, 75, 0
3, 437753, Note_on_c, 1, 75, 64
3, 438716, Note_on_c, 1, 69, 55
3, 439680, Note_on_c, 1, 69, 0
3, 439680, Note_on_c, 1, 70, 61
3, 440640, Note_on_c, 1, 70, 0
3, 440640, Note_on_c, 1, 71, 69
3, 441600, Note_on_c, 1, 71, 0
3, 441600, Note_on_c, 1, 72, 73
3, 442800, Note_on_c, 1, 72, 0
3, 442800, Note_on_c, 1, 75, 0
3, 442800, Note_on_c, 1, 71, 78
3, 442800, Note_on_c, 1, 74, 78
3, 443037, Note_on_c, 1, 74, 0
3, 443037, Note_on_c, 1, 71, 0
3, 443037, Note_on_c, 1, 72, 88
3, 443037, Note_on_c, 1, 75, 88
3, 443276, Note_on_c, 1, 75, 0
3, 443276, Note_on_c, 1, 72, 0
3, 443276, Note_on_c, 1, 63, 67
3, 443276, Note_on_c, 1, 72, 67
3, 443520, Note_on_c, 1, 72, 0
3, 443520, Note_on_c, 1, 63, 0
3, 443520, Note_on_c, 1, 62, 73
3, 443520, Note_on_c, 1, 70, 73
3, 443993, Note_on_c, 1, 70, 0
3, 443993, Note_on_c, 1, 62, 0
3, 445920, Note_on_c, 1, 70, 51
3, 446880, Note_on_c, 1, 70, 0
3, 446880, Note_on_c, 1, 71, 61
3, 447261, Note_on_c, 1, 71, 0
3, 447360, Note_on_c, 1, 72, 73
3, 447840, Note_on_c, 1, 72, 0
3, 449760, Note_on_c, 1, 72, 55
3, 450720, Note_on_c, 1, 72, 0
3, 450720, Note_on_c, 1, 73, 65
3, 451200, Note_on_c, 1, 73, 0
3, 451200, Note_on_c, 1, 74, 68
3, 451680, Note_on_c, 1, 74, 0
3, 458885, Note_on_c, 1, 65, 60
3, 458885, Note_on_c, 1, 70, 60
3, 459122, Note_on_c, 1, 70, 0
3, 459122, Note_on_c, 1, 65, 0
3, 459362, Note_on_c, 1, 65, 63
3, 459362, Note_on_c, 1, 70, 63
3, 459541, Note_on_c, 1, 70, 0
3, 459541, Note_on_c, 1, 65, 0
3, 459722, Note_on_c, 1, 65, 69
3, 459722, Note_on_c, 1, 70, 69
3, 459781, Note_on_c, 1, 70, 0
3, 459781, Note_on_c, 1, 65, 0
3, 459841, Note_on_c, 1, 65, 67
3, 459841, Note_on_c, 1, 70, 67
3, 460080, Note_on_c, 1, 70, 0
3, 460080, Note_on_c, 1, 65, 0
3, 460321, Note_on_c, 1, 65, 72
3, 460321, Note_on_c, 1, 70, 72
3, 460557, Note_on_c, 1, 70, 0
3, 460557, Note_on_c, 1, 65, 0
3, 460800, Note_on_c, 1, 72, 80
3, 460800, Note_on_c, 1, 65, 39
3, 461040, Note_on_c, 1, 72, 0
3, 461040, Note_on_c, 1, 69, 67
3, 461280, Note_on_c, 1, 69, 0
3, 461280, Note_on_c, 1, 65, 0
3, 461280, Note_on_c, 1, 70, 80
3, 461280, Note_on_c, 1, 65, 57
3, 461760, Note_on_c, 1, 65, 0
3, 461760, Note_on_c, 1, 70, 0
3, 462720, Note_on_c, 1, 69, 62
3, 462720, Note_on_c, 1, 72, 62
3, 462957, Note_on_c, 1, 72, 0
3, 462957, Note_on_c, 1, 69, 0
3, 463200, Note_on_c, 1, 69, 69
3, 463200, Note_on_c, 1, 72, 69
3, 463377, Note_on_c, 1, 72, 0
3, 463377, Note_on_c, 1, 69, 0
3, 463560, Note_on_c, 1, 69, 74
3, 463560, Note_on_c, 1, 72, 74
3, 463617, Note_on_c, 1, 72, 0
3, 463617, Note_on_c, 1, 69, 0
3, 463680, Note_on_c, 1, 69, 69
3, 463680, Note_on_c, 1, 72, 69
3, 463917, Note_on_c, 1, 72, 0
3, 463917, Note_on_c, 1, 69, 0
3, 464160, Note_on_c, 1, 69, 70
3, 464160, Note_on_c, 1, 72, 70
3, 464397, Note_on_c, 1, 72, 0
3, 464397, Note_on_c, 1, 69, 0
3, 464640, Note_on_c, 1, 67, 69
3, 464640, Note_on_c, 1, 70, 69
3, 464880, Note_on_c, 1, 70, 0
3, 464880, Note_on_c, 1, 67, 0
3, 464880, Note_on_c, 1, 69, 71
3, 464880, Note_on_c, 1, 72, 71
3, 465000, Note_on_c, 1, 72, 0
3, 465000, Note_on_c, 1, 69, 0
3, 465000, Note_on_c, 1, 70, 83
3, 465000, Note_on_c, 1, 74, 83
3, 465120, Note_on_c, 1, 74, 0
3, 465120, Note_on_c, 1, 70, 0
3, 465120, Note_on_c, 1, 69, 64
3, 465120, Note_on_c, 1, 72, 64
3, 465600, Note_on_c, 1, 72, 0
3, 465600, Note_on_c, 1, 69, 0
3, 479520, Note_on_c, 1, 70, 75
3, 480000, Note_on_c, 1, 70, 0
3, 480000, Note_on_c, 1, 75, 111
3, 480960, Note_on_c, 1, 75, 0
3, 480960, Note_on_c, 1, 72, 78
3, 481440, Note_on_c, 1, 72, 0
3, 481440, Note_on_c, 1, 69, 70
3, 481920, Note_on_c, 1, 69, 0
3, 481920, Note_on_c, 1, 77, 111
3, 482880, Note_on_c, 1, 77, 0
3, 482880, Note_on_c, 1, 74, 78
3, 483360, Note_on_c, 1, 74, 0
3, 483360, Note_on_c, 1, 70, 69
3, 483840, Note_on_c, 1, 70, 0
3, 483840, Note_on_c, 1, 75, 88
3, 485280, Note_on_c, 1, 75, 0
3, 485280, Note_on_c, 1, 74, 85
3, 485640, Note_on_c, 1, 74, 0
3, 485640, Note_on_c, 1, 70, 72
3, 485760, Note_on_c, 1, 70, 0
3, 485760, Note_on_c, 1, 69, 70
3, 486240, Note_on_c, 1, 69, 0
3, 486240, Note_on_c, 1, 72, 94
3, 486720, Note_on_c, 1, 72, 0
3, 486720, Note_on_c, 1, 69, 67
3, 487200, Note_on_c, 1, 69, 0
3, 487200, Note_on_c, 1, 65, 61
3, 487680, Note_on_c, 1, 65, 0
3, 487680, Note_on_c, 1, 70, 104
3, 488160, Note_on_c, 1, 70, 0
3, 488640, Note_on_c, 1, 82, 77
3, 488757, Note_on_c, 1, 82, 0
3, 488880, Note_on_c, 1, 74, 55
3, 488997, Note_on_c, 1, 74, 0
3, 489120, Note_on_c, 1, 75, 78
3, 489180, Note_on_c, 1, 75, 0
3, 489180, Note_on_c, 1, 74, 81
3, 489240, Note_on_c, 1, 74, 0
3, 489240, Note_on_c, 1, 72, 68
3, 489300, Note_on_c, 1, 72, 0
3, 489300, Note_on_c, 1, 74, 88
3, 489600, Note_on_c, 1, 74, 0
3, 489600, Note_on_c, 1, 77, 95
3, 489717, Note_on_c, 1, 77, 0
3, 489840, Note_on_c, 1, 70, 62
3, 489957, Note_on_c, 1, 70, 0
3, 490080, Note_on_c, 1, 72, 90
3, 490140, Note_on_c, 1, 72, 0
3, 490140, Note_on_c, 1, 70, 70
3, 490202, Note_on_c, 1, 70, 0
3, 490202, Note_on_c, 1, 69, 79
3, 490262, Note_on_c, 1, 69, 0
3, 490262, Note_on_c, 1, 70, 93
3, 490560, Note_on_c, 1, 70, 0
3, 490560, Note_on_c, 1, 74, 117
3, 490560, Note_on_c, 1, 86, 117
3, 490677, Note_on_c, 1, 86, 0
3, 490677, Note_on_c, 1, 74, 0
3, 490788, Note_on_c, 1, 65, 55
3, 490788, Note_on_c, 1, 77, 55
3, 490906, Note_on_c, 1, 77, 0
3, 490906, Note_on_c, 1, 65, 0
3, 491014, Note_on_c, 1, 67, 92
3, 491014, Note_on_c, 1, 79, 92
3, 491074, Note_on_c, 1, 79, 0
3, 491074, Note_on_c, 1, 67, 0
3, 491074, Note_on_c, 1, 65, 65
3, 491074, Note_on_c, 1, 77, 65
3, 491129, Note_on_c, 1, 77, 0
3, 491129, Note_on_c, 1, 65, 0
3, 491129, Note_on_c, 1, 64, 77
3, 491129, Note_on_c, 1, 76, 77
3, 491189, Note_on_c, 1, 76, 0
3, 491189, Note_on_c, 1, 64, 0
3, 491189, Note_on_c, 1, 65, 91
3, 491189, Note_on_c, 1, 77, 91
3, 491520, Note_on_c, 1, 77, 0
3, 491520, Note_on_c, 1, 65, 0
3, 491520, Note_on_c, 1, 70, 102
3, 491520, Note_on_c, 1, 82, 102
3, 491626, Note_on_c, 1, 82, 0
3, 491626, Note_on_c, 1, 70, 0
3, 491748, Note_on_c, 1, 62, 59
3, 491748, Note_on_c, 1, 74, 59
3, 491866, Note_on_c, 1, 74, 0
3, 491866, Note_on_c, 1, 62, 0
3, 491992, Note_on_c, 1, 62, 76
3, 491992, Note_on_c, 1, 74, 76
3, 492720, Note_on_c, 1, 74, 0
3, 492720, Note_on_c, 1, 62, 0
3, 492720, Note_on_c, 1, 64, 92
3, 492720, Note_on_c, 1, 76, 92
3, 492840, Note_on_c, 1, 76, 0
3, 492840, Note_on_c, 1, 64, 0
3, 492840, Note_on_c, 1, 65, 89
3, 492840, Note_on_c, 1, 77, 89
3, 492960, Note_on_c, 1, 77, 0
3, 492960, Note_on_c, 1, 65, 0
3, 492960, Note_on_c, 1, 67, 100
3, 492960, Note_on_c, 1, 79, 100
3, 493200, Note_on_c, 1, 79, 0
3, 493200, Note_on_c, 1, 67, 0
3, 493200, Note_on_c, 1, 64, 66
3, 493200, Note_on_c, 1, 76, 66
3, 493440, Note_on_c, 1, 76, 0
3, 493440, Note_on_c, 1, 64, 0
3, 493440, Note_on_c, 1, 65, 86
3, 493440, Note_on_c, 1, 77, 86
3, 493916, Note_on_c, 1, 77, 0
3, 493916, Note_on_c, 1, 65, 0
3, 526069, Note_on_c, 1, 75, 53
3, 526792, Note_on_c, 1, 75, 0
3, 526792, Note_on_c, 1, 72, 49
3, 527033, Note_on_c, 1, 72, 0
3, 527033, Note_on_c, 1, 69, 48
3, 527517, Note_on_c, 1, 69, 0
3, 527517, Note_on_c, 1, 69, 62
3, 528000, Note_on_c, 1, 69, 0
3, 529913, Note_on_c, 1, 75, 52
3, 530153, Note_on_c, 1, 75, 0
3, 530153, Note_on_c, 1, 74, 43
3, 530393, Note_on_c, 1, 74, 0
3, 530393, Note_on_c, 1, 75, 65
3, 530636, Note_on_c, 1, 75, 0
3, 530636, Note_on_c, 1, 72, 48
3, 530876, Note_on_c, 1, 72, 0
3, 530876, Note_on_c, 1, 69, 51
3, 531357, Note_on_c, 1, 69, 0
3, 531357, Note_on_c, 1, 69, 59
3, 531840, Note_on_c, 1, 69, 0
3, 532800, Note_on_c, 1, 75, 56
3, 534237, Note_on_c, 1, 75, 0
3, 534237, Note_on_c, 1, 76, 67
3, 535197, Note_on_c, 1, 76, 0
3, 535197, Note_on_c, 1, 74, 53
3, 536160, Note_on_c, 1, 74, 0
3, 536160, Note_on_c, 1, 75, 65
3, 537120, Note_on_c, 1, 75, 0
3, 537120, Note_on_c, 1, 72, 46
3, 538080, Note_on_c, 1, 72, 0
3, 538080, Note_on_c, 1, 73, 66
3, 539040, Note_on_c, 1, 73, 0
3, 539040, Note_on_c, 1, 70, 50
3, 540000, Note_on_c, 1, 70, 0
3, 540000, Note_on_c, 1, 71, 68
3, 540960, Note_on_c, 1, 71, 0
3, 540960, Note_on_c, 1, 69, 57
3, 541440, Note_on_c, 1, 69, 0
3, 541440, Note_on_c, 1, 70, 60
3, 541920, Note_on_c, 1, 70, 0
3, 546720, Note_on_c, 1, 74, 69
3, 546720, Note_on_c, 1, 77, 69
3, 546840, Note_on_c, 1, 77, 0
3, 546840, Note_on_c, 1, 74, 0
3, 546840, Note_on_c, 1, 75, 83
3, 546840, Note_on_c, 1, 79, 83
3, 546960, Note_on_c, 1, 79, 0
3, 546960, Note_on_c, 1, 75, 0
3, 546960, Note_on_c, 1, 74, 64
3, 546960, Note_on_c, 1, 77, 64
3, 547080, Note_on_c, 1, 77, 0
3, 547080, Note_on_c, 1, 74, 0
3, 547080, Note_on_c, 1, 72, 57
3, 547080, Note_on_c, 1, 75, 57
3, 547200, Note_on_c, 1, 75, 0
3, 547200, Note_on_c, 1, 72, 0
3, 547200, Note_on_c, 1, 70, 66
3, 547200, Note_on_c, 1, 74, 66
3, 547440, Note_on_c, 1, 74, 0
3, 547440, Note_on_c, 1, 70, 0
3, 547680, Note_on_c, 1, 74, 64
3, 547680, Note_on_c, 1, 77, 64
3, 547800, Note_on_c, 1, 77, 0
3, 547800, Note_on_c, 1, 74, 0
3, 547800, Note_on_c, 1, 75, 79
3, 547800, Note_on_c, 1, 79, 79
3, 547920, Note_on_c, 1, 79, 0
3, 547920, Note_on_c, 1, 75, 0
3, 547920, Note_on_c, 1, 74, 62
3, 547920, Note_on_c, 1, 77, 62
3, 548040, Note_on_c, 1, 77, 0
3, 548040, Note_on_c, 1, 74, 0
3, 548040, Note_on_c, 1, 72, 59
3, 548040, Note_on_c, 1, 75, 59
3, 548160, Note_on_c, 1, 75, 0
3, 548160, Note_on_c, 1, 72, 0
3, 548160, Note_on_c, 1, 70, 68
3, 548160, Note_on_c, 1, 74, 68
3, 548400, Note_on_c, 1, 74, 0
3, 548400, Note_on_c, 1, 70, 0
3, 548640, Note_on_c, 1, 74, 58
3, 548640, Note_on_c, 1, 77, 58
3, 549120, Note_on_c, 1, 77, 0
3, 549120, Note_on_c, 1, 74, 0
3, 549120, Note_on_c, 1, 69, 46
3, 549120, Note_on_c, 1, 72, 46
3, 549360, Note_on_c, 1, 72, 0
3, 549360, Note_on_c, 1, 69, 0
3, 549600, Note_on_c, 1, 69, 65
3, 549600, Note_on_c, 1, 72, 65
3, 549840, Note_on_c, 1, 72, 0
3, 549840, Note_on_c, 1, 69, 0
3, 550080, Note_on_c, 1, 69, 63
3, 550080, Note_on_c, 1, 72, 63
3, 550320, Note_on_c, 1, 72, 0
3, 550320, Note_on_c, 1, 69, 0
3, 551040, Note_on_c, 1, 65, 59
3, 551040, Note_on_c, 1, 77, 59
3, 561132, Note_on_c, 1, 77, 0
3, 561132, Note_on_c, 1, 65, 0
3, 579836, Note_on_c, 1, 74, 62
3, 579836, Note_on_c, 1, 77, 62
3, 580800, Note_on_c, 1, 77, 0
3, 580800, Note_on_c, 1, 74, 0
3, 580800, Note_on_c, 1, 71, 58
3, 580800, Note_on_c, 1, 74, 58
3, 581760, Note_on_c, 1, 74, 0
3, 581760, Note_on_c, 1, 71, 0
3, 581761, Note_on_c, 1, 70, 90
3, 581761, Note_on_c, 1, 79, 90
3, 582721, Note_on_c, 1, 79, 0
3, 582721, Note_on_c, 1, 70, 0
3, 582721, Note_on_c, 1, 69, 44
3, 582721, Note_on_c, 1, 72, 44
3, 583562, Note_on_c, 1, 72, 0
3, 583562, Note_on_c, 1, 69, 0
3, 583673, Note_on_c, 1, 70, 75
3, 583673, Note_on_c, 1, 74, 75
3, 583912, Note_on_c, 1, 74, 0
3, 583912, Note_on_c, 1, 70, 0
3, 584152, Note_on_c, 1, 72, 68
3, 584152, Note_on_c, 1, 75, 68
3, 584396, Note_on_c, 1, 75, 0
3, 584396, Note_on_c, 1, 72, 0
3, 584636, Note_on_c, 1, 70, 77
3, 584636, Note_on_c, 1, 74, 77
3, 584876, Note_on_c, 1, 74, 0
3, 584876, Note_on_c, 1, 70, 0
3, 585116, Note_on_c, 1, 69, 73
3, 585116, Note_on_c, 1, 72, 73
3, 585356, Note_on_c, 1, 72, 0
3, 585356, Note_on_c, 1, 69, 0
3, 585597, Note_on_c, 1, 70, 64
3, 586080, Note_on_c, 1, 70, 0
3, 599269, Note_on_c, 1, 70, 66
3, 599509, Note_on_c, 1, 70, 0
3, 599509, Note_on_c, 1, 74, 90
3, 599756, Note_on_c, 1, 74, 0
3, 599756, Note_on_c, 1, 70, 59
3, 600000, Note_on_c, 1, 70, 0
3, 600000, Note_on_c, 1, 77, 87
3, 600240, Note_on_c, 1, 65, 59
3, 600480, Note_on_c, 1, 65, 0
3, 600480, Note_on_c, 1, 77, 0
3, 600480, Note_on_c, 1, 69, 67
3, 600720, Note_on_c, 1, 69, 0
3, 600720, Note_on_c, 1, 65, 51
3, 600960, Note_on_c, 1, 65, 0
3, 600960, Note_on_c, 1, 70, 74
3, 601200, Note_on_c, 1, 70, 0
3, 601200, Note_on_c, 1, 70, 64
3, 601320, Note_on_c, 1, 72, 77
3, 601440, Note_on_c, 1, 72, 0
3, 601440, Note_on_c, 1, 70, 0
3, 601440, Note_on_c, 1, 74, 84
3, 601682, Note_on_c, 1, 74, 0
3, 601682, Note_on_c, 1, 70, 53
3, 601920, Note_on_c, 1, 70, 0
3, 601920, Note_on_c, 1, 77, 90
3, 602157, Note_on_c, 1, 65, 52
3, 602273, Note_on_c, 1, 65, 0
3, 602273, Note_on_c, 1, 67, 66
3, 602389, Note_on_c, 1, 67, 0
3, 602389, Note_on_c, 1, 77, 0
3, 602389, Note_on_c, 1, 69, 70
3, 602626, Note_on_c, 1, 69, 0
3, 602626, Note_on_c, 1, 65, 42
3, 602880, Note_on_c, 1, 65, 0
3, 602880, Note_on_c, 1, 70, 73
3, 603113, Note_on_c, 1, 70, 0
3, 603113, Note_on_c, 1, 70, 56
3, 603236, Note_on_c, 1, 72, 79
3, 603357, Note_on_c, 1, 72, 0
3, 603357, Note_on_c, 1, 70, 0
3, 603357, Note_on_c, 1, 74, 78
3, 603600, Note_on_c, 1, 74, 0
3, 603600, Note_on_c, 1, 70, 52
3, 603840, Note_on_c, 1, 70, 0
3, 603840, Note_on_c, 1, 77, 92
3, 604073, Note_on_c, 1, 77, 0
3, 604073, Note_on_c, 1, 77, 73
3, 604073, Note_on_c, 1, 65, 55
3, 604193, Note_on_c, 1, 65, 0
3, 604193, Note_on_c, 1, 77, 0
3, 604193, Note_on_c, 1, 79, 81
3, 604193, Note_on_c, 1, 67, 60
3, 604309, Note_on_c, 1, 67, 0
3, 604309, Note_on_c, 1, 79, 0
3, 604309, Note_on_c, 1, 81, 81
3, 604309, Note_on_c, 1, 69, 64
3, 604548, Note_on_c, 1, 69, 0
3, 604548, Note_on_c, 1, 81, 0
3, 604548, Note_on_c, 1, 77, 65
3, 604548, Note_on_c, 1, 65, 42
3, 604800, Note_on_c, 1, 65, 0
3, 604800, Note_on_c, 1, 77, 0
3, 604800, Note_on_c, 1, 70, 90
3, 604800, Note_on_c, 1, 82, 90
3, 605273, Note_on_c, 1, 82, 0
3, 605273, Note_on_c, 1, 70, 0
3, 608642, Note_on_c, 1, 74, 66
3, 608642, Note_on_c, 1, 77, 66
3, 608761, Note_on_c, 1, 77, 0
3, 608761, Note_on_c, 1, 74, 0
3, 608882, Note_on_c, 1, 74, 70
3, 608882, Note_on_c, 1, 77, 70
3, 609001, Note_on_c, 1, 77, 0
3, 609001, Note_on_c, 1, 74, 0
3, 609122, Note_on_c, 1, 74, 71
3, 609122, Note_on_c, 1, 77, 71
3, 609241, Note_on_c, 1, 77, 0
3, 609241, Note_on_c, 1, 74, 0
3, 609361, Note_on_c, 1, 74, 76
3, 609361, Note_on_c, 1, 77, 76
3, 609480, Note_on_c, 1, 77, 0
3, 609480, Note_on_c, 1, 74, 0
3, 609601, Note_on_c, 1, 72, 62
3, 609601, Note_on_c, 1, 76, 62
3, 609720, Note_on_c, 1, 76, 0
3, 609720, Note_on_c, 1, 72, 0
3, 609840, Note_on_c, 1, 72, 74
3, 609840, Note_on_c, 1, 76, 74
3, 609957, Note_on_c, 1, 76, 0
3, 609957, Note_on_c, 1, 72, 0
3, 610080, Note_on_c, 1, 72, 70
3, 610080, Note_on_c, 1, 76, 70
3, 610197, Note_on_c, 1, 76, 0
3, 610197, Note_on_c, 1, 72, 0
3, 610320, Note_on_c, 1, 72, 70
3, 610320, Note_on_c, 1, 76, 70
3, 610437, Note_on_c, 1, 76, 0
3, 610437, Note_on_c, 1, 72, 0
3, 610560, Note_on_c, 1, 72, 56
3, 610560, Note_on_c, 1, 75, 56
3, 610677, Note_on_c, 1, 75, 0
3, 610677, Note_on_c, 1, 72, 0
3, 610800, Note_on_c, 1, 72, 66
3, 610800, Note_on_c, 1, 75, 66
3, 610917, Note_on_c, 1, 75, 0
3, 610917, Note_on_c, 1, 72, 0
3, 611040, Note_on_c, 1, 72, 72
3, 611040, Note_on_c, 1, 75, 72
3, 611157, Note_on_c, 1, 75, 0
3, 611157, Note_on_c, 1, 72, 0
3, 611280, Note_on_c, 1, 72, 71
3, 611280, Note_on_c, 1, 75, 71
3, 611397, Note_on_c, 1, 75, 0
3, 611397, Note_on_c, 1, 72, 0
3, 611520, Note_on_c, 1, 70, 70
3, 611520, Note_on_c, 1, 74, 70
3, 611637, Note_on_c, 1, 74, 0
3, 611637, Note_on_c, 1, 70, 0
3, 611760, Note_on_c, 1, 70, 66
3, 611760, Note_on_c, 1, 74, 66
3, 611877, Note_on_c, 1, 74, 0
3, 611877, Note_on_c, 1, 70, 0
3, 612000, Note_on_c, 1, 70, 74
3, 612000, Note_on_c, 1, 74, 74
3, 612117, Note_on_c, 1, 74, 0
3, 612117, Note_on_c, 1, 70, 0
3, 612240, Note_on_c, 1, 70, 69
3, 612240, Note_on_c, 1, 74, 69
3, 612357, Note_on_c, 1, 74, 0
3, 612357, Note_on_c, 1, 70, 0
3, 618236, Note_on_c, 1, 70, 70
3, 626393, Note_on_c, 1, 70, 0
3, 633596, Note_on_c, 1, 82, 71
3, 633596, Note_on_c, 1, 70, 74
3, 633712, Note_on_c, 1, 82, 0
3, 633833, Note_on_c, 1, 70, 0
3, 633833, Note_on_c, 1, 82, 61
3, 633833, Note_on_c, 1, 70, 63
3, 633892, Note_on_c, 1, 82, 0
3, 633953, Note_on_c, 1, 70, 0
3, 633953, Note_on_c, 1, 82, 74
3, 633953, Note_on_c, 1, 70, 56
3, 634012, Note_on_c, 1, 82, 0
3, 634073, Note_on_c, 1, 70, 0
3, 634073, Note_on_c, 1, 82, 74
3, 634073, Note_on_c, 1, 70, 66
3, 634192, Note_on_c, 1, 82, 0
3, 634316, Note_on_c, 1, 70, 0
3, 634316, Note_on_c, 1, 82, 68
3, 634316, Note_on_c, 1, 70, 59
3, 634433, Note_on_c, 1, 82, 0
3, 634556, Note_on_c, 1, 70, 0
3, 634556, Note_on_c, 1, 82, 72
3, 634556, Note_on_c, 1, 70, 61
3, 634800, Note_on_c, 1, 70, 0
3, 634800, Note_on_c, 1, 82, 0
3, 634800, Note_on_c, 1, 74, 75
3, 635040, Note_on_c, 1, 74, 0
3, 635040, Note_on_c, 1, 77, 67
3, 635040, Note_on_c, 1, 65, 42
3, 635280, Note_on_c, 1, 65, 0
3, 635280, Note_on_c, 1, 77, 0
3, 635280, Note_on_c, 1, 70, 75
3, 635520, Note_on_c, 1, 70, 0
3, 635520, Note_on_c, 1, 74, 53
3, 635520, Note_on_c, 1, 62, 46
3, 635637, Note_on_c, 1, 74, 0
3, 635760, Note_on_c, 1, 74, 67
3, 635817, Note_on_c, 1, 74, 0
3, 635880, Note_on_c, 1, 74, 70
3, 635937, Note_on_c, 1, 74, 0
3, 636000, Note_on_c, 1, 62, 0
3, 636000, Note_on_c, 1, 74, 72
3, 636117, Note_on_c, 1, 74, 0
3, 636240, Note_on_c, 1, 74, 79
3, 636357, Note_on_c, 1, 74, 0
3, 636480, Note_on_c, 1, 74, 71
3, 636720, Note_on_c, 1, 74, 0
3, 636720, Note_on_c, 1, 77, 79
3, 636960, Note_on_c, 1, 77, 0
3, 636960, Note_on_c, 1, 70, 43
3, 637200, Note_on_c, 1, 70, 0
3, 637200, Note_on_c, 1, 74, 88
3, 637440, Note_on_c, 1, 74, 0
3, 637440, Note_on_c, 1, 65, 88
3, 637440, Note_on_c, 1, 77, 88
3, 637557, Note_on_c, 1, 77, 0
3, 637557, Note_on_c, 1, 65, 0
3, 637680, Note_on_c, 1, 65, 74
3, 637680, Note_on_c, 1, 77, 74
3, 637737, Note_on_c, 1, 77, 0
3, 637737, Note_on_c, 1, 65, 0
3, 637800, Note_on_c, 1, 65, 66
3, 637800, Note_on_c, 1, 77, 66
3, 637857, Note_on_c, 1, 77, 0
3, 637857, Note_on_c, 1, 65, 0
3, 637920, Note_on_c, 1, 65, 67
3, 637920, Note_on_c, 1, 77, 67
3, 638037, Note_on_c, 1, 77, 0
3, 638037, Note_on_c, 1, 65, 0
3, 638160, Note_on_c, 1, 65, 70
3, 638160, Note_on_c, 1, 77, 70
3, 638277, Note_on_c, 1, 77, 0
3, 638277, Note_on_c, 1, 65, 0
3, 638401, Note_on_c, 1, 65, 68
3, 638401, Note_on_c, 1, 77, 68
3, 638642, Note_on_c, 1, 77, 0
3, 638642, Note_on_c, 1, 65, 0
3, 638642, Note_on_c, 1, 70, 91
3, 638642, Note_on_c, 1, 82, 91
3, 638882, Note_on_c, 1, 82, 0
3, 638882, Note_on_c, 1, 70, 0
3, 638882, Note_on_c, 1, 62, 46
3, 638882, Note_on_c, 1, 74, 46
3, 639122, Note_on_c, 1, 74, 0
3, 639122, Note_on_c, 1, 62, 0
3, 639122, Note_on_c, 1, 65, 82
3, 639122, Note_on_c, 1, 77, 82
3, 639360, Note_on_c, 1, 77, 0
3, 639360, Note_on_c, 1, 65, 0
3, 639365, Note_on_c, 1, 70, 90
3, 639365, Note_on_c, 1, 82, 90
3, 639482, Note_on_c, 1, 82, 0
3, 639482, Note_on_c, 1, 70, 0
3, 639605, Note_on_c, 1, 74, 92
3, 639605, Note_on_c, 1, 86, 92
3, 639722, Note_on_c, 1, 86, 0
3, 639722, Note_on_c, 1, 74, 0
3, 639845, Note_on_c, 1, 65, 49
3, 639845, Note_on_c, 1, 77, 49
3, 639962, Note_on_c, 1, 77, 0
3, 639962, Note_on_c, 1, 65, 0
3, 640085, Note_on_c, 1, 70, 82
3, 640085, Note_on_c, 1, 82, 82
3, 640202, Note_on_c, 1, 82, 0
3, 640202, Note_on_c, 1, 70, 0
3, 640321, Note_on_c, 1, 62, 60
3, 640321, Note_on_c, 1, 74, 60
3, 640440, Note_on_c, 1, 74, 0
3, 640440, Note_on_c, 1, 62, 0
3, 640560, Note_on_c, 1, 65, 83
3, 640560, Note_on_c, 1, 77, 83
3, 640677, Note_on_c, 1, 77, 0
3, 640677, Note_on_c, 1, 65, 0
3, 640792, Note_on_c, 1, 70, 50
3, 640909, Note_on_c, 1, 70, 0
3, 641026, Note_on_c, 1, 62, 78
3, 641026, Note_on_c, 1, 74, 78
3, 641144, Note_on_c, 1, 74, 0
3, 641144, Note_on_c, 1, 62, 0
3, 641273, Note_on_c, 1, 65, 82
3, 641273, Note_on_c, 1, 77, 82
3, 641756, Note_on_c, 1, 77, 0
3, 641756, Note_on_c, 1, 65, 0
3, 643197, Note_on_c, 1, 81, 62
3, 645120, Note_on_c, 1, 81, 0
3, 645120, Note_on_c, 1, 82, 70
3, 645120, Note_on_c, 1, 70, 50
3, 645600, Note_on_c, 1, 70, 0
3, 645600, Note_on_c, 1, 82, 0
3, 645600, Note_on_c, 1, 65, 50
3, 646080, Note_on_c, 1, 65, 0
3, 646080, Note_on_c, 1, 77, 98
3, 646080, Note_on_c, 1, 70, 69
3, 646560, Note_on_c, 1, 70, 0
3, 646560, Note_on_c, 1, 74, 76
3, 647040, Note_on_c, 1, 74, 0
3, 647040, Note_on_c, 1, 75, 68
3, 648480, Note_on_c, 1, 75, 0
3, 648480, Note_on_c, 1, 74, 57
3, 648840, Note_on_c, 1, 74, 0
3, 648840, Note_on_c, 1, 70, 48
3, 648960, Note_on_c, 1, 70, 0
3, 648960, Note_on_c, 1, 72, 62
3, 649440, Note_on_c, 1, 72, 0
3, 649440, Note_on_c, 1, 65, 38
3, 649920, Note_on_c, 1, 65, 0
3, 649920, Note_on_c, 1, 69, 64
3, 650400, Note_on_c, 1, 69, 0
3, 650400, Note_on_c, 1, 72, 77
3, 650880, Note_on_c, 1, 72, 0
3, 650880, Note_on_c, 1, 77, 0
3, 650880, Note_on_c, 1, 77, 77
3, 652320, Note_on_c, 1, 75, 50
3, 652680, Note_on_c, 1, 75, 0
3, 652680, Note_on_c, 1, 72, 48
3, 652800, Note_on_c, 1, 72, 0
3, 652800, Note_on_c, 1, 70, 52
3, 653280, Note_on_c, 1, 70, 0
3, 653280, Note_on_c, 1, 65, 48
3, 653760, Note_on_c, 1, 65, 0
3, 653760, Note_on_c, 1, 70, 77
3, 654240, Note_on_c, 1, 70, 0
3, 654240, Note_on_c, 1, 74, 81
3, 654720, Note_on_c, 1, 74, 0
3, 654720, Note_on_c, 1, 75, 69
3, 656160, Note_on_c, 1, 75, 0
3, 656160, Note_on_c, 1, 74, 58
3, 656640, Note_on_c, 1, 74, 0
3, 656640, Note_on_c, 1, 69, 36
3, 658080, Note_on_c, 1, 69, 0
3, 658080, Note_on_c, 1, 72, 71
3, 658560, Note_on_c, 1, 72, 0
3, 658560, Note_on_c, 1, 70, 57
3, 659040, Note_on_c, 1, 70, 0
3, 659040, Note_on_c, 1, 77, 0
3, 659520, Note_on_c, 1, 82, 74
3, 659637, Note_on_c, 1, 82, 0
3, 659760, Note_on_c, 1, 74, 60
3, 659877, Note_on_c, 1, 74, 0
3, 660000, Note_on_c, 1, 75, 85
3, 660060, Note_on_c, 1, 75, 0
3, 660060, Note_on_c, 1, 74, 70
3, 660120, Note_on_c, 1, 74, 0
3, 660120, Note_on_c, 1, 72, 74
3, 660180, Note_on_c, 1, 72, 0
3, 660180, Note_on_c, 1, 74, 82
3, 660480, Note_on_c, 1, 74, 0
3, 660480, Note_on_c, 1, 77, 104
3, 660597, Note_on_c, 1, 77, 0
3, 660720, Note_on_c, 1, 70, 61
3, 660837, Note_on_c, 1, 70, 0
3, 660960, Note_on_c, 1, 72, 85
3, 661020, Note_on_c, 1, 72, 0
3, 661020, Note_on_c, 1, 70, 76
3, 661082, Note_on_c, 1, 70, 0
3, 661082, Note_on_c, 1, 69, 76
3, 661142, Note_on_c, 1, 69, 0
3, 661142, Note_on_c, 1, 70, 91
3, 661440, Note_on_c, 1, 70, 0
3, 661440, Note_on_c, 1, 74, 111
3, 661440, Note_on_c, 1, 86, 111
3, 661557, Note_on_c, 1, 86, 0
3, 661557, Note_on_c, 1, 74, 0
3, 661668, Note_on_c, 1, 65, 62
3, 661668, Note_on_c, 1, 77, 62
3, 661786, Note_on_c, 1, 77, 0
3, 661786, Note_on_c, 1, 65, 0
3, 661894, Note_on_c, 1, 67, 87
3, 661894, Note_on_c, 1, 79, 87
3, 661954, Note_on_c, 1, 79, 0
3, 661954, Note_on_c, 1, 67, 0
3, 661954, Note_on_c, 1, 65, 68
3, 661954, Note_on_c, 1, 77, 68
3, 662009, Note_on_c, 1, 77, 0
3, 662009, Note_on_c, 1, 65, 0
3, 662009, Note_on_c, 1, 64, 72
3, 662009, Note_on_c, 1, 76, 72
3, 662069, Note_on_c, 1, 76, 0
3, 662069, Note_on_c, 1, 64, 0
3, 662069, Note_on_c, 1, 65, 84
3, 662069, Note_on_c, 1, 77, 84
3, 662400, Note_on_c, 1, 77, 0
3, 662400, Note_on_c, 1, 65, 0
3, 662400, Note_on_c, 1, 70, 107
3, 662400, Note_on_c, 1, 82, 107
3, 662506, Note_on_c, 1, 82, 0
3, 662506, Note_on_c, 1, 70, 0
3, 662628, Note_on_c, 1, 62, 57
3, 662628, Note_on_c, 1, 74, 57
3, 662746, Note_on_c, 1, 74, 0
3, 662746, Note_on_c, 1, 62, 0
3, 662872, Note_on_c, 1, 62, 76
3, 662872, Note_on_c, 1, 74, 76
3, 663600, Note_on_c, 1, 74, 0
3, 663600, Note_on_c, 1, 62, 0
3, 663600, Note_on_c, 1, 64, 88
3, 663600, Note_on_c, 1, 76, 88
3, 663720, Note_on_c, 1, 76, 0
3, 663720, Note_on_c, 1, 64, 0
3, 663720, Note_on_c, 1, 65, 95
3, 663720, Note_on_c, 1, 77, 95
3, 663840, Note_on_c, 1, 77, 0
3, 663840, Note_on_c, 1, 65, 0
3, 663840, Note_on_c, 1, 67, 95
3, 663840, Note_on_c, 1, 79, 95
3, 664080, Note_on_c, 1, 79, 0
3, 664080, Note_on_c, 1, 67, 0
3, 664080, Note_on_c, 1, 64, 78
3, 664080, Note_on_c, 1, 76, 78
3, 664320, Note_on_c, 1, 76, 0
3, 664320, Note_on_c, 1, 64, 0
3, 664320, Note_on_c, 1, 65, 83
3, 664320, Note_on_c, 1, 77, 83
3, 664800, Note_on_c, 1, 77, 0
3, 664800, Note_on_c, 1, 65, 0
3, 664800, Note_on_c, 1, 74, 105
3, 664800, Note_on_c, 1, 82, 105
3, 665761, Note_on_c, 1, 82, 0
3, 665761, Note_on_c, 1, 74, 0
3, 665761, Note_on_c, 1, 74, 86
3, 665761, Note_on_c, 1, 82, 86
3, 666240, Note_on_c, 1, 82, 0
3, 666240, Note_on_c, 1, 74, 0
3, 744957, Note_on_c, 1, 70, 72
3, 745196, Note_on_c, 1, 70, 0
3, 745196, Note_on_c, 1, 72, 87
3, 745256, Note_on_c, 1, 72, 0
3, 745256, Note_on_c, 1, 70, 71
3, 745316, Note_on_c, 1, 70, 0
3, 745316, Note_on_c, 1, 69, 78
3, 745436, Note_on_c, 1, 69, 0
3, 745436, Note_on_c, 1, 70, 87
3, 745677, Note_on_c, 1, 70, 0
3, 745677, Note_on_c, 1, 74, 110
3, 745796, Note_on_c, 1, 74, 0
3, 745917, Note_on_c, 1, 65, 63
3, 746157, Note_on_c, 1, 65, 0
3, 746157, Note_on_c, 1, 65, 73
3, 746400, Note_on_c, 1, 65, 0
3, 746400, Note_on_c, 1, 65, 84
3, 746640, Note_on_c, 1, 65, 0
3, 746640, Note_on_c, 1, 67, 98
3, 746760, Note_on_c, 1, 67, 0
3, 746760, Note_on_c, 1, 69, 101
3, 746880, Note_on_c, 1, 69, 0
3, 746880, Note_on_c, 1, 70, 92
3, 747117, Note_on_c, 1, 70, 0
3, 747117, Note_on_c, 1, 70, 81
3, 747357, Note_on_c, 1, 70, 0
3, 747357, Note_on_c, 1, 70, 90
3, 747477, Note_on_c, 1, 70, 0
3, 747477, Note_on_c, 1, 72, 96
3, 747600, Note_on_c, 1, 72, 0
3, 747600, Note_on_c, 1, 74, 99
3, 747720, Note_on_c, 1, 74, 0
3, 747720, Note_on_c, 1, 75, 96
3, 747840, Note_on_c, 1, 75, 0
3, 747840, Note_on_c, 1, 77, 96
3, 748082, Note_on_c, 1, 77, 0
3, 748082, Note_on_c, 1, 77, 93
3, 748329, Note_on_c, 1, 77, 0
3, 748329, Note_on_c, 1, 77, 93
3, 748572, Note_on_c, 1, 77, 0
3, 748572, Note_on_c, 1, 79, 97
3, 748696, Note_on_c, 1, 79, 0
3, 748696, Note_on_c, 1, 81, 98
3, 748800, Note_on_c, 1, 81, 0
3, 748810, Note_on_c, 1, 82, 98
3, 749049, Note_on_c, 1, 82, 0
3, 749049, Note_on_c, 1, 82, 89
3, 749285, Note_on_c, 1, 82, 0
3, 749285, Note_on_c, 1, 82, 76
3, 749526, Note_on_c, 1, 82, 0
3, 749526, Note_on_c, 1, 81, 75
3, 749646, Note_on_c, 1, 81, 0
3, 749646, Note_on_c, 1, 79, 72
3, 749769, Note_on_c, 1, 79, 0
3, 749769, Note_on_c, 1, 77, 72
3, 750241, Note_on_c, 1, 77, 0
3, 750709, Note_on_c, 1, 74, 54
3, 750709, Note_on_c, 1, 77, 54
3, 751676, Note_on_c, 1, 77, 0
3, 751676, Note_on_c, 1, 74, 0
3, 751676, Note_on_c, 1, 71, 47
3, 751676, Note_on_c, 1, 74, 47
3, 752640, Note_on_c, 1, 74, 0
3, 752640, Note_on_c, 1, 71, 0
3, 752640, Note_on_c, 1, 70, 78
3, 752640, Note_on_c, 1, 79, 78
3, 753601, Note_on_c, 1, 79, 0
3, 753601, Note_on_c, 1, 70, 0
3, 753601, Note_on_c, 1, 69, 40
3, 753601, Note_on_c, 1, 72, 40
3, 754460, Note_on_c, 1, 72, 0
3, 754460, Note_on_c, 1, 69, 0
3, 754561, Note_on_c, 1, 70, 58
3, 754561, Note_on_c, 1, 74, 58
3, 754801, Note_on_c, 1, 74, 0
3, 754801, Note_on_c, 1, 70, 0
3, 754801, Note_on_c, 1, 74, 73
3, 754801, Note_on_c, 1, 77, 73
3, 755041, Note_on_c, 1, 77, 0
3, 755041, Note_on_c, 1, 74, 0
3, 755041, Note_on_c, 1, 75, 78
3, 755041, Note_on_c, 1, 79, 78
3, 755280, Note_on_c, 1, 79, 0
3, 755280, Note_on_c, 1, 75, 0
3, 755280, Note_on_c, 1, 72, 57
3, 755280, Note_on_c, 1, 75, 57
3, 755520, Note_on_c, 1, 75, 0
3, 755520, Note_on_c, 1, 72, 0
3, 755520, Note_on_c, 1, 70, 53
3, 755520, Note_on_c, 1, 74, 53
3, 756000, Note_on_c, 1, 74, 0
3, 756000, Note_on_c, 1, 70, 0
3, 756000, Note_on_c, 1, 69, 52
3, 756000, Note_on_c, 1, 72, 52
3, 756480, Note_on_c, 1, 72, 0
3, 756480, Note_on_c, 1, 69, 0
3, 762240, Note_on_c, 1, 70, 58
3, 762240, Note_on_c, 1, 82, 58
3, 762357, Note_on_c, 1, 82, 0
3, 762357, Note_on_c, 1, 70, 0
3, 762480, Note_on_c, 1, 70, 64
3, 762480, Note_on_c, 1, 82, 64
3, 762537, Note_on_c, 1, 82, 0
3, 762537, Note_on_c, 1, 70, 0
3, 762600, Note_on_c, 1, 70, 74
3, 762600, Note_on_c, 1, 82, 74
3, 762657, Note_on_c, 1, 82, 0
3, 762657, Note_on_c, 1, 70, 0
3, 762720, Note_on_c, 1, 70, 62
3, 762720, Note_on_c, 1, 82, 62
3, 762837, Note_on_c, 1, 82, 0
3, 762837, Note_on_c, 1, 70, 0
3, 762960, Note_on_c, 1, 70, 69
3, 762960, Note_on_c, 1, 82, 69
3, 763077, Note_on_c, 1, 82, 0
3, 763077, Note_on_c, 1, 70, 0
3, 763200, Note_on_c, 1, 70, 67
3, 763200, Note_on_c, 1, 82, 67
3, 763440, Note_on_c, 1, 82, 0
3, 763440, Note_on_c, 1, 70, 0
3, 763440, Note_on_c, 1, 74, 54
3, 763680, Note_on_c, 1, 74, 0
3, 763680, Note_on_c, 1, 65, 84
3, 763680, Note_on_c, 1, 77, 84
3, 763920, Note_on_c, 1, 77, 0
3, 763920, Note_on_c, 1, 65, 0
3, 763920, Note_on_c, 1, 70, 46
3, 764160, Note_on_c, 1, 70, 0
3, 764160, Note_on_c, 1, 74, 84
3, 764160, Note_on_c, 1, 62, 53
3, 764277, Note_on_c, 1, 74, 0
3, 764400, Note_on_c, 1, 74, 76
3, 764457, Note_on_c, 1, 74, 0
3, 764520, Note_on_c, 1, 74, 67
3, 764577, Note_on_c, 1, 74, 0
3, 764640, Note_on_c, 1, 62, 0
3, 764640, Note_on_c, 1, 74, 78
3, 764757, Note_on_c, 1, 74, 0
3, 764880, Note_on_c, 1, 74, 73
3, 764997, Note_on_c, 1, 74, 0
3, 765120, Note_on_c, 1, 74, 67
3, 765360, Note_on_c, 1, 74, 0
3, 765360, Note_on_c, 1, 77, 90
3, 765600, Note_on_c, 1, 77, 0
3, 765600, Note_on_c, 1, 70, 53
3, 765840, Note_on_c, 1, 70, 0
3, 765840, Note_on_c, 1, 74, 76
3, 766080, Note_on_c, 1, 74, 0
3, 766080, Note_on_c, 1, 65, 50
3, 766560, Note_on_c, 1, 65, 0
3, 767969, Note_on_c, 1, 70, 80
3, 770165, Note_on_c, 1, 70, 0
3, 770165, Note_on_c, 1, 72, 92
3, 770222, Note_on_c, 1, 72, 0
3, 770285, Note_on_c, 1, 74, 92
3, 770342, Note_on_c, 1, 74, 0
3, 770402, Note_on_c, 1, 75, 98
3, 770461, Note_on_c, 1, 75, 0
3, 770522, Note_on_c, 1, 77, 94
3, 770581, Note_on_c, 1, 77, 0
3, 770642, Note_on_c, 1, 79, 92
3, 770701, Note_on_c, 1, 79, 0
3, 770762, Note_on_c, 1, 81, 94
3, 770821, Note_on_c, 1, 81, 0
3, 770885, Note_on_c, 1, 82, 93
3, 771005, Note_on_c, 1, 82, 0
3, 771005, Note_on_c, 1, 81, 79
3, 771122, Note_on_c, 1, 81, 0
3, 771122, Note_on_c, 1, 82, 92
3, 771242, Note_on_c, 1, 82, 0
3, 771242, Note_on_c, 1, 81, 71
3, 771362, Note_on_c, 1, 81, 0
3, 771362, Note_on_c, 1, 82, 92
3, 771482, Note_on_c, 1, 82, 0
3, 771482, Note_on_c, 1, 81, 83
3, 771601, Note_on_c, 1, 81, 0
3, 771601, Note_on_c, 1, 82, 95
3, 771721, Note_on_c, 1, 82, 0
3, 771721, Note_on_c, 1, 81, 81
3, 771817, Note_on_c, 1, 81, 0
3, 771841, Note_on_c, 1, 82, 89
3, 772080, Note_on_c, 1, 82, 0
3, 772800, Note_on_c, 1, 70, 76
3, 773037, Note_on_c, 1, 70, 0
3, 773280, Note_on_c, 1, 70, 82
3, 773517, Note_on_c, 1, 70, 0
3, 773760, Note_on_c, 1, 70, 96
3, 774602, Note_on_c, 1, 70, 0
3, 774602, End_track
4, 0, Start_track
4, 0, Title_t, "Bassoons"
4, 0, Program_c, 2, 70
4, 0, Control_c, 2, 7, 65
4, 0, Control_c, 2, 10, 70
4, 0, Control_c, 2, 121, 0
4, 0, Control_c, 2, 91, 72
4, 15365, Note_on_c, 2, 50, 58
4, 15365, Note_on_c, 2, 58, 58
4, 16321, Note_on_c, 2, 58, 0
4, 16321, Note_on_c, 2, 50, 0
4, 16800, Note_on_c, 2, 46, 51
4, 16800, Note_on_c, 2, 58, 51
4, 17280, Note_on_c, 2, 58, 0
4, 17280, Note_on_c, 2, 46, 0
4, 17280, Note_on_c, 2, 41, 50
4, 17280, Note_on_c, 2, 53, 50
4, 17760, Note_on_c, 2, 53, 0
4, 17760, Note_on_c, 2, 41, 0
4, 17760, Note_on_c, 2, 46, 66
4, 17760, Note_on_c, 2, 58, 66
4, 18240, Note_on_c, 2, 58, 0
4, 18240, Note_on_c, 2, 46, 0
4, 19200, Note_on_c, 2, 41, 51
4, 19200, Note_on_c, 2, 53, 51
4, 20160, Note_on_c, 2, 53, 0
4, 20160, Note_on_c, 2, 41, 0
4, 20640, Note_on_c, 2, 41, 56
4, 20640, Note_on_c, 2, 53, 56
4, 21120, Note_on_c, 2, 53, 0
4, 21120, Note_on_c, 2, 41, 0
4, 21120, Note_on_c, 2, 46, 68
4, 21120, Note_on_c, 2, 58, 68
4, 21600, Note_on_c, 2, 58, 0
4, 21600, Note_on_c, 2, 46, 0
4, 21600, Note_on_c, 2, 41, 55
4, 21600, Note_on_c, 2, 53, 55
4, 22080, Note_on_c, 2, 53, 0
4, 22080, Note_on_c, 2, 41, 0
4, 32640, Note_on_c, 2, 46, 72
4, 33600, Note_on_c, 2, 46, 0
4, 34080, Note_on_c, 2, 58, 72
4, 34560, Note_on_c, 2, 58, 0
4, 34560, Note_on_c, 2, 63, 96
4, 36000, Note_on_c, 2, 63, 0
4, 36000, Note_on_c, 2, 62, 71
4, 36360, Note_on_c, 2, 62, 0
4, 36360, Note_on_c, 2, 58, 74
4, 36480, Note_on_c, 2, 58, 0
4, 36480, Note_on_c, 2, 57, 79
4, 36960, Note_on_c, 2, 57, 0
4, 36960, Note_on_c, 2, 60, 100
4, 37440, Note_on_c, 2, 60, 0
4, 37440, Note_on_c, 2, 57, 84
4, 37920, Note_on_c, 2, 57, 0
4, 37920, Note_on_c, 2, 53, 72
4, 38400, Note_on_c, 2, 53, 0
4, 38400, Note_on_c, 2, 50, 72
4, 38880, Note_on_c, 2, 50, 0
4, 38880, Note_on_c, 2, 41, 86
4, 38880, Note_on_c, 2, 53, 86
4, 39360, Note_on_c, 2, 53, 0
4, 39360, Note_on_c, 2, 41, 0
4, 39360, Note_on_c, 2, 46, 92
4, 39360, Note_on_c, 2, 58, 92
4, 39840, Note_on_c, 2, 58, 0
4, 39840, Note_on_c, 2, 46, 0
4, 39840, Note_on_c, 2, 50, 106
4, 39840, Note_on_c, 2, 62, 106
4, 40320, Note_on_c, 2, 62, 0
4, 40320, Note_on_c, 2, 50, 0
4, 40320, Note_on_c, 2, 41, 68
4, 40320, Note_on_c, 2, 53, 68
4, 44160, Note_on_c, 2, 53, 0
4, 44160, Note_on_c, 2, 41, 0
4, 44160, Note_on_c, 2, 46, 74
4, 44640, Note_on_c, 2, 46, 0
4, 46080, Note_on_c, 2, 65, 66
4, 46197, Note_on_c, 2, 65, 0
4, 46320, Note_on_c, 2, 58, 65
4, 46437, Note_on_c, 2, 58, 0
4, 46560, Note_on_c, 2, 58, 86
4, 47040, Note_on_c, 2, 58, 0
4, 47040, Note_on_c, 2, 62, 107
4, 47157, Note_on_c, 2, 62, 0
4, 47268, Note_on_c, 2, 53, 70
4, 47386, Note_on_c, 2, 53, 0
4, 47494, Note_on_c, 2, 53, 78
4, 48000, Note_on_c, 2, 53, 0
4, 48000, Note_on_c, 2, 58, 98
4, 48106, Note_on_c, 2, 58, 0
4, 48228, Note_on_c, 2, 50, 75
4, 48346, Note_on_c, 2, 50, 0
4, 48472, Note_on_c, 2, 50, 80
4, 49200, Note_on_c, 2, 50, 0
4, 49200, Note_on_c, 2, 52, 92
4, 49320, Note_on_c, 2, 52, 0
4, 49320, Note_on_c, 2, 53, 87
4, 49440, Note_on_c, 2, 53, 0
4, 49440, Note_on_c, 2, 55, 86
4, 49680, Note_on_c, 2, 55, 0
4, 49680, Note_on_c, 2, 52, 84
4, 49920, Note_on_c, 2, 52, 0
4, 49920, Note_on_c, 2, 53, 85
4, 50155, Note_on_c, 2, 53, 0
4, 50400, Note_on_c, 2, 41, 61
4, 50635, Note_on_c, 2, 41, 0
4, 53760, Note_on_c, 2, 63, 58
4, 54480, Note_on_c, 2, 63, 0
4, 54480, Note_on_c, 2, 60, 48
4, 54720, Note_on_c, 2, 60, 0
4, 54720, Note_on_c, 2, 57, 51
4, 55200, Note_on_c, 2, 57, 0
4, 55200, Note_on_c, 2, 57, 56
4, 55680, Note_on_c, 2, 57, 0
4, 57618, Note_on_c, 2, 63, 57
4, 57858, Note_on_c, 2, 63, 0
4, 57858, Note_on_c, 2, 62, 57
4, 58089, Note_on_c, 2, 62, 0
4, 58089, Note_on_c, 2, 63, 68
4, 58320, Note_on_c, 2, 63, 0
4, 58320, Note_on_c, 2, 60, 48
4, 58553, Note_on_c, 2, 60, 0
4, 58553, Note_on_c, 2, 57, 55
4, 59024, Note_on_c, 2, 57, 0
4, 59024, Note_on_c, 2, 57, 55
4, 59520, Note_on_c, 2, 57, 0
4, 60480, Note_on_c, 2, 63, 48
4, 61920, Note_on_c, 2, 63, 0
4, 61920, Note_on_c, 2, 64, 59
4, 62880, Note_on_c, 2, 64, 0
4, 62880, Note_on_c, 2, 62, 55
4, 63840, Note_on_c, 2, 62, 0
4, 63840, Note_on_c, 2, 63, 63
4, 64800, Note_on_c, 2, 63, 0
4, 64800, Note_on_c, 2, 60, 53
4, 65760, Note_on_c, 2, 60, 0
4, 65760, Note_on_c, 2, 61, 64
4, 66720, Note_on_c, 2, 61, 0
4, 66720, Note_on_c, 2, 58, 54
4, 67680, Note_on_c, 2, 58, 0
4, 67680, Note_on_c, 2, 59, 58
4, 68640, Note_on_c, 2, 59, 0
4, 68640, Note_on_c, 2, 57, 53
4, 69120, Note_on_c, 2, 57, 0
4, 69120, Note_on_c, 2, 58, 62
4, 69600, Note_on_c, 2, 58, 0
4, 72960, Note_on_c, 2, 46, 70
4, 78240, Note_on_c, 2, 60, 63
4, 78480, Note_on_c, 2, 60, 0
4, 78480, Note_on_c, 2, 58, 65
4, 78720, Note_on_c, 2, 58, 0
4, 78720, Note_on_c, 2, 58, 66
4, 78960, Note_on_c, 2, 58, 0
4, 78960, Note_on_c, 2, 57, 69
4, 79200, Note_on_c, 2, 57, 0
4, 79200, Note_on_c, 2, 55, 62
4, 79433, Note_on_c, 2, 55, 0
4, 79433, Note_on_c, 2, 53, 68
4, 79680, Note_on_c, 2, 53, 0
4, 79680, Note_on_c, 2, 52, 67
4, 79920, Note_on_c, 2, 52, 0
4, 79920, Note_on_c, 2, 53, 73
4, 80172, Note_on_c, 2, 53, 0
4, 80172, Note_on_c, 2, 55, 74
4, 80420, Note_on_c, 2, 55, 0
4, 80420, Note_on_c, 2, 57, 78
4, 80640, Note_on_c, 2, 57, 0
4, 80658, Note_on_c, 2, 58, 73
4, 80894, Note_on_c, 2, 58, 0
4, 80894, Note_on_c, 2, 60, 82
4, 80954, Note_on_c, 2, 60, 0
4, 80954, Note_on_c, 2, 58, 62
4, 81012, Note_on_c, 2, 58, 0
4, 81012, Note_on_c, 2, 57, 68
4, 81132, Note_on_c, 2, 57, 0
4, 81132, Note_on_c, 2, 58, 77
4, 81369, Note_on_c, 2, 58, 0
4, 81369, Note_on_c, 2, 60, 76
4, 81486, Note_on_c, 2, 60, 0
4, 81606, Note_on_c, 2, 62, 77
4, 82081, Note_on_c, 2, 62, 0
4, 85920, Note_on_c, 2, 63, 60
4, 86160, Note_on_c, 2, 63, 0
4, 86160, Note_on_c, 2, 60, 63
4, 86400, Note_on_c, 2, 60, 0
4, 86400, Note_on_c, 2, 58, 65
4, 86640, Note_on_c, 2, 58, 0
4, 86640, Note_on_c, 2, 57, 66
4, 86880, Note_on_c, 2, 57, 0
4, 86880, Note_on_c, 2, 55, 64
4, 87116, Note_on_c, 2, 55, 0
4, 87116, Note_on_c, 2, 53, 65
4, 87360, Note_on_c, 2, 53, 0
4, 87360, Note_on_c, 2, 52, 65
4, 87600, Note_on_c, 2, 52, 0
4, 87600, Note_on_c, 2, 53, 74
4, 87846, Note_on_c, 2, 53, 0
4, 87846, Note_on_c, 2, 55, 81
4, 88092, Note_on_c, 2, 55, 0
4, 88092, Note_on_c, 2, 57, 74
4, 88320, Note_on_c, 2, 57, 0
4, 88338, Note_on_c, 2, 58, 76
4, 88574, Note_on_c, 2, 58, 0
4, 88574, Note_on_c, 2, 60, 80
4, 88634, Note_on_c, 2, 60, 0
4, 88634, Note_on_c, 2, 58, 66
4, 88692, Note_on_c, 2, 58, 0
4, 88692, Note_on_c, 2, 57, 71
4, 88812, Note_on_c, 2, 57, 0
4, 88812, Note_on_c, 2, 46, 0
4, 88812, Note_on_c, 2, 58, 75
4, 89049, Note_on_c, 2, 58, 0
4, 89049, Note_on_c, 2, 62, 86
4, 89166, Note_on_c, 2, 62, 0
4, 89286, Note_on_c, 2, 53, 61
4, 90000, Note_on_c, 2, 53, 0
4, 90000, Note_on_c, 2, 55, 71
4, 90120, Note_on_c, 2, 55, 0
4, 90120, Note_on_c, 2, 57, 71
4, 90240, Note_on_c, 2, 57, 0
4, 90240, Note_on_c, 2, 58, 81
4, 90480, Note_on_c, 2, 58, 0
4, 90480, Note_on_c, 2, 60, 80
4, 90540, Note_on_c, 2, 60, 0
4, 90540, Note_on_c, 2, 58, 68
4, 90600, Note_on_c, 2, 58, 0
4, 90600, Note_on_c, 2, 57, 69
4, 90720, Note_on_c, 2, 57, 0
4, 90720, Note_on_c, 2, 58, 76
4, 90960, Note_on_c, 2, 58, 0
4, 90960, Note_on_c, 2, 62, 90
4, 91200, Note_on_c, 2, 62, 0
4, 91200, Note_on_c, 2, 53, 62
4, 91920, Note_on_c, 2, 53, 0
4, 91920, Note_on_c, 2, 55, 74
4, 92040, Note_on_c, 2, 55, 0
4, 92040, Note_on_c, 2, 57, 71
4, 92160, Note_on_c, 2, 57, 0
4, 92160, Note_on_c, 2, 58, 85
4, 92400, Note_on_c, 2, 58, 0
4, 92400, Note_on_c, 2, 60, 85
4, 92460, Note_on_c, 2, 60, 0
4, 92460, Note_on_c, 2, 58, 67
4, 92520, Note_on_c, 2, 58, 0
4, 92520, Note_on_c, 2, 57, 72
4, 92640, Note_on_c, 2, 57, 0
4, 92640, Note_on_c, 2, 58, 78
4, 92880, Note_on_c, 2, 58, 0
4, 92880, Note_on_c, 2, 62, 83
4, 92997, Note_on_c, 2, 62, 0
4, 93113, Note_on_c, 2, 53, 56
4, 93352, Note_on_c, 2, 53, 0
4, 93352, Note_on_c, 2, 53, 73
4, 93596, Note_on_c, 2, 53, 0
4, 93596, Note_on_c, 2, 53, 74
4, 93840, Note_on_c, 2, 53, 0
4, 93840, Note_on_c, 2, 55, 74
4, 93961, Note_on_c, 2, 55, 0
4, 93961, Note_on_c, 2, 57, 74
4, 94080, Note_on_c, 2, 57, 0
4, 94081, Note_on_c, 2, 58, 74
4, 94321, Note_on_c, 2, 58, 0
4, 94321, Note_on_c, 2, 60, 87
4, 94381, Note_on_c, 2, 60, 0
4, 94381, Note_on_c, 2, 58, 74
4, 94441, Note_on_c, 2, 58, 0
4, 94441, Note_on_c, 2, 57, 76
4, 94561, Note_on_c, 2, 57, 0
4, 94561, Note_on_c, 2, 58, 69
4, 94800, Note_on_c, 2, 58, 0
4, 94800, Note_on_c, 2, 62, 90
4, 94917, Note_on_c, 2, 62, 0
4, 95036, Note_on_c, 2, 53, 59
4, 95273, Note_on_c, 2, 53, 0
4, 95273, Note_on_c, 2, 53, 65
4, 95516, Note_on_c, 2, 53, 0
4, 95516, Note_on_c, 2, 53, 70
4, 95760, Note_on_c, 2, 53, 0
4, 95760, Note_on_c, 2, 55, 71
4, 95881, Note_on_c, 2, 55, 0
4, 95881, Note_on_c, 2, 57, 79
4, 96000, Note_on_c, 2, 57, 0
4, 96002, Note_on_c, 2, 58, 88
4, 96242, Note_on_c, 2, 58, 0
4, 96242, Note_on_c, 2, 58, 83
4, 96482, Note_on_c, 2, 58, 0
4, 96482, Note_on_c, 2, 58, 84
4, 96720, Note_on_c, 2, 58, 0
4, 96720, Note_on_c, 2, 62, 105
4, 96960, Note_on_c, 2, 62, 0
4, 96960, Note_on_c, 2, 53, 72
4, 97200, Note_on_c, 2, 53, 0
4, 97200, Note_on_c, 2, 53, 74
4, 97440, Note_on_c, 2, 53, 0
4, 97440, Note_on_c, 2, 53, 85
4, 97680, Note_on_c, 2, 53, 0
4, 97680, Note_on_c, 2, 55, 88
4, 97800, Note_on_c, 2, 55, 0
4, 97800, Note_on_c, 2, 57, 87
4, 97920, Note_on_c, 2, 57, 0
4, 97920, Note_on_c, 2, 58, 93
4, 98157, Note_on_c, 2, 58, 0
4, 98157, Note_on_c, 2, 46, 57
4, 98397, Note_on_c, 2, 46, 0
4, 98397, Note_on_c, 2, 46, 79
4, 98517, Note_on_c, 2, 46, 0
4, 98517, Note_on_c, 2, 48, 88
4, 98640, Note_on_c, 2, 48, 0
4, 98640, Note_on_c, 2, 50, 85
4, 98760, Note_on_c, 2, 50, 0
4, 98760, Note_on_c, 2, 51, 93
4, 98880, Note_on_c, 2, 51, 0
4, 98880, Note_on_c, 2, 53, 92
4, 99122, Note_on_c, 2, 53, 0
4, 99122, Note_on_c, 2, 53, 86
4, 99369, Note_on_c, 2, 53, 0
4, 99369, Note_on_c, 2, 53, 84
4, 99614, Note_on_c, 2, 53, 0
4, 99614, Note_on_c, 2, 55, 86
4, 99738, Note_on_c, 2, 55, 0
4, 99738, Note_on_c, 2, 57, 89
4, 99840, Note_on_c, 2, 57, 0
4, 99850, Note_on_c, 2, 58, 90
4, 100089, Note_on_c, 2, 58, 0
4, 100089, Note_on_c, 2, 58, 85
4, 100326, Note_on_c, 2, 58, 0
4, 100326, Note_on_c, 2, 58, 82
4, 100569, Note_on_c, 2, 58, 0
4, 100569, Note_on_c, 2, 57, 83
4, 100689, Note_on_c, 2, 57, 0
4, 100689, Note_on_c, 2, 55, 74
4, 100809, Note_on_c, 2, 55, 0
4, 100809, Note_on_c, 2, 53, 71
4, 101281, Note_on_c, 2, 53, 0
4, 102717, Note_on_c, 2, 55, 71
4, 103680, Note_on_c, 2, 55, 0
4, 103680, Note_on_c, 2, 51, 69
4, 104640, Note_on_c, 2, 51, 0
4, 104640, Note_on_c, 2, 53, 71
4, 105496, Note_on_c, 2, 53, 0
4, 105600, Note_on_c, 2, 58, 72
4, 106080, Note_on_c, 2, 58, 0
4, 106080, Note_on_c, 2, 51, 61
4, 106560, Note_on_c, 2, 51, 0
4, 106560, Note_on_c, 2, 53, 74
4, 107040, Note_on_c, 2, 53, 0
4, 107040, Note_on_c, 2, 53, 74
4, 107520, Note_on_c, 2, 53, 0
4, 107520, Note_on_c, 2, 46, 59
4, 108000, Note_on_c, 2, 46, 0
4, 110396, Note_on_c, 2, 65, 53
4, 110396, Note_on_c, 2, 62, 74
4, 111360, Note_on_c, 2, 62, 0
4, 111360, Note_on_c, 2, 65, 0
4, 111360, Note_on_c, 2, 64, 51
4, 111360, Note_on_c, 2, 60, 58
4, 112321, Note_on_c, 2, 64, 0
4, 112321, Note_on_c, 2, 63, 54
4, 113280, Note_on_c, 2, 63, 0
4, 113280, Note_on_c, 2, 60, 0
4, 113281, Note_on_c, 2, 58, 51
4, 113281, Note_on_c, 2, 62, 51
4, 113761, Note_on_c, 2, 62, 0
4, 113761, Note_on_c, 2, 58, 0
4, 113761, Note_on_c, 2, 60, 65
4, 113761, Note_on_c, 2, 63, 65
4, 114240, Note_on_c, 2, 63, 0
4, 114240, Note_on_c, 2, 60, 0
4, 114240, Note_on_c, 2, 58, 51
4, 114240, Note_on_c, 2, 62, 51
4, 114720, Note_on_c, 2, 62, 0
4, 114720, Note_on_c, 2, 58, 0
4, 114720, Note_on_c, 2, 57, 60
4, 114720, Note_on_c, 2, 60, 60
4, 115200, Note_on_c, 2, 60, 0
4, 115200, Note_on_c, 2, 57, 0
4, 122880, Note_on_c, 2, 62, 63
4, 122997, Note_on_c, 2, 62, 0
4, 123120, Note_on_c, 2, 62, 72
4, 123177, Note_on_c, 2, 62, 0
4, 123240, Note_on_c, 2, 62, 77
4, 123297, Note_on_c, 2, 62, 0
4, 123360, Note_on_c, 2, 62, 72
4, 123477, Note_on_c, 2, 62, 0
4, 123600, Note_on_c, 2, 62, 79
4, 123717, Note_on_c, 2, 62, 0
4, 123840, Note_on_c, 2, 62, 70
4, 124080, Note_on_c, 2, 62, 0
4, 124080, Note_on_c, 2, 65, 84
4, 124320, Note_on_c, 2, 65, 0
4, 124320, Note_on_c, 2, 58, 63
4, 124560, Note_on_c, 2, 58, 0
4, 124560, Note_on_c, 2, 62, 84
4, 124800, Note_on_c, 2, 62, 0
4, 124800, Note_on_c, 2, 53, 56
4, 124917, Note_on_c, 2, 53, 0
4, 125040, Note_on_c, 2, 53, 72
4, 125097, Note_on_c, 2, 53, 0
4, 125160, Note_on_c, 2, 53, 69
4, 125217, Note_on_c, 2, 53, 0
4, 125280, Note_on_c, 2, 53, 64
4, 125397, Note_on_c, 2, 53, 0
4, 125520, Note_on_c, 2, 53, 68
4, 125637, Note_on_c, 2, 53, 0
4, 125760, Note_on_c, 2, 53, 71
4, 125877, Note_on_c, 2, 53, 0
4, 126000, Note_on_c, 2, 53, 75
4, 126117, Note_on_c, 2, 53, 0
4, 126240, Note_on_c, 2, 53, 66
4, 126357, Note_on_c, 2, 53, 0
4, 126480, Note_on_c, 2, 53, 72
4, 126597, Note_on_c, 2, 53, 0
4, 126689, Note_on_c, 2, 46, 66
4, 127186, Note_on_c, 2, 46, 0
4, 127930, Note_on_c, 2, 51, 75
4, 128170, Note_on_c, 2, 51, 0
4, 128170, Note_on_c, 2, 50, 79
4, 128410, Note_on_c, 2, 50, 0
4, 128410, Note_on_c, 2, 48, 81
4, 128640, Note_on_c, 2, 48, 0
4, 128649, Note_on_c, 2, 46, 78
4, 129122, Note_on_c, 2, 46, 0
4, 129842, Note_on_c, 2, 51, 74
4, 130082, Note_on_c, 2, 51, 0
4, 130082, Note_on_c, 2, 50, 78
4, 130321, Note_on_c, 2, 50, 0
4, 130321, Note_on_c, 2, 48, 83
4, 130560, Note_on_c, 2, 48, 0
4, 130561, Note_on_c, 2, 46, 76
4, 130800, Note_on_c, 2, 46, 0
4, 131040, Note_on_c, 2, 58, 105
4, 131277, Note_on_c, 2, 58, 0
4, 131520, Note_on_c, 2, 46, 75
4, 131941, Note_on_c, 2, 46, 0
4, 150240, Note_on_c, 2, 58, 53
4, 151200, Note_on_c, 2, 58, 0
4, 151200, Note_on_c, 2, 59, 57
4, 151680, Note_on_c, 2, 59, 0
4, 151680, Note_on_c, 2, 60, 69
4, 152156, Note_on_c, 2, 60, 0
4, 154080, Note_on_c, 2, 60, 53
4, 155040, Note_on_c, 2, 60, 0
4, 155040, Note_on_c, 2, 61, 60
4, 155416, Note_on_c, 2, 61, 0
4, 155516, Note_on_c, 2, 62, 69
4, 155996, Note_on_c, 2, 62, 0
4, 165120, Note_on_c, 2, 46, 77
4, 166080, Note_on_c, 2, 46, 0
4, 166560, Note_on_c, 2, 58, 76
4, 167040, Note_on_c, 2, 58, 0
4, 167040, Note_on_c, 2, 63, 102
4, 168480, Note_on_c, 2, 63, 0
4, 168480, Note_on_c, 2, 62, 82
4, 168840, Note_on_c, 2, 62, 0
4, 168840, Note_on_c, 2, 60, 71
4, 168960, Note_on_c, 2, 60, 0
4, 168960, Note_on_c, 2, 57, 70
4, 169440, Note_on_c, 2, 57, 0
4, 169440, Note_on_c, 2, 60, 92
4, 169920, Note_on_c, 2, 60, 0
4, 169920, Note_on_c, 2, 57, 53
4, 170400, Note_on_c, 2, 57, 0
4, 170400, Note_on_c, 2, 53, 56
4, 170880, Note_on_c, 2, 53, 0
4, 170880, Note_on_c, 2, 58, 71
4, 171109, Note_on_c, 2, 58, 0
4, 171109, Note_on_c, 2, 53, 56
4, 171349, Note_on_c, 2, 53, 0
4, 171349, Note_on_c, 2, 58, 63
4, 171600, Note_on_c, 2, 58, 0
4, 171600, Note_on_c, 2, 53, 54
4, 171840, Note_on_c, 2, 53, 0
4, 171840, Note_on_c, 2, 58, 71
4, 172080, Note_on_c, 2, 53, 67
4, 172326, Note_on_c, 2, 53, 0
4, 172326, Note_on_c, 2, 58, 0
4, 172326, Note_on_c, 2, 62, 74
4, 172326, Note_on_c, 2, 58, 77
4, 172572, Note_on_c, 2, 58, 0
4, 172572, Note_on_c, 2, 53, 70
4, 172800, Note_on_c, 2, 53, 0
4, 172800, Note_on_c, 2, 62, 0
4, 172814, Note_on_c, 2, 63, 72
4, 172814, Note_on_c, 2, 60, 99
4, 173050, Note_on_c, 2, 60, 0
4, 173050, Note_on_c, 2, 53, 76
4, 173289, Note_on_c, 2, 53, 0
4, 173289, Note_on_c, 2, 60, 111
4, 173529, Note_on_c, 2, 60, 0
4, 173529, Note_on_c, 2, 53, 68
4, 173761, Note_on_c, 2, 53, 0
4, 173761, Note_on_c, 2, 60, 101
4, 174001, Note_on_c, 2, 60, 0
4, 174001, Note_on_c, 2, 53, 67
4, 174241, Note_on_c, 2, 53, 0
4, 174241, Note_on_c, 2, 63, 0
4, 174241, Note_on_c, 2, 62, 53
4, 174241, Note_on_c, 2, 58, 84
4, 174485, Note_on_c, 2, 58, 0
4, 174485, Note_on_c, 2, 53, 64
4, 174720, Note_on_c, 2, 53, 0
4, 174720, Note_on_c, 2, 62, 0
4, 174729, Note_on_c, 2, 60, 46
4, 174729, Note_on_c, 2, 57, 80
4, 174966, Note_on_c, 2, 57, 0
4, 174966, Note_on_c, 2, 53, 66
4, 175202, Note_on_c, 2, 53, 0
4, 175202, Note_on_c, 2, 57, 79
4, 175442, Note_on_c, 2, 57, 0
4, 175442, Note_on_c, 2, 53, 73
4, 175681, Note_on_c, 2, 53, 0
4, 175681, Note_on_c, 2, 60, 0
4, 175681, Note_on_c, 2, 57, 58
4, 175921, Note_on_c, 2, 57, 0
4, 175921, Note_on_c, 2, 53, 71
4, 176161, Note_on_c, 2, 57, 79
4, 176402, Note_on_c, 2, 57, 0
4, 176640, Note_on_c, 2, 53, 0
4, 176645, Note_on_c, 2, 58, 70
4, 177125, Note_on_c, 2, 58, 0
4, 184572, Note_on_c, 2, 41, 55
4, 184572, Note_on_c, 2, 53, 55
4, 184690, Note_on_c, 2, 53, 0
4, 184690, Note_on_c, 2, 41, 0
4, 184810, Note_on_c, 2, 43, 67
4, 184810, Note_on_c, 2, 55, 67
4, 184929, Note_on_c, 2, 55, 0
4, 184929, Note_on_c, 2, 43, 0
4, 185049, Note_on_c, 2, 45, 72
4, 185049, Note_on_c, 2, 57, 72
4, 185166, Note_on_c, 2, 57, 0
4, 185166, Note_on_c, 2, 45, 0
4, 185285, Note_on_c, 2, 46, 62
4, 185285, Note_on_c, 2, 58, 62
4, 185402, Note_on_c, 2, 58, 0
4, 185402, Note_on_c, 2, 46, 0
4, 185525, Note_on_c, 2, 45, 62
4, 185525, Note_on_c, 2, 57, 62
4, 185642, Note_on_c, 2, 57, 0
4, 185642, Note_on_c, 2, 45, 0
4, 185765, Note_on_c, 2, 46, 68
4, 185765, Note_on_c, 2, 58, 68
4, 185882, Note_on_c, 2, 58, 0
4, 185882, Note_on_c, 2, 46, 0
4, 186005, Note_on_c, 2, 48, 68
4, 186005, Note_on_c, 2, 60, 68
4, 186122, Note_on_c, 2, 60, 0
4, 186122, Note_on_c, 2, 48, 0
4, 186246, Note_on_c, 2, 50, 64
4, 186246, Note_on_c, 2, 62, 64
4, 186365, Note_on_c, 2, 62, 0
4, 186365, Note_on_c, 2, 50, 0
4, 186482, Note_on_c, 2, 46, 58
4, 186482, Note_on_c, 2, 58, 58
4, 186601, Note_on_c, 2, 58, 0
4, 186601, Note_on_c, 2, 46, 0
4, 186722, Note_on_c, 2, 48, 74
4, 186722, Note_on_c, 2, 60, 74
4, 186841, Note_on_c, 2, 60, 0
4, 186841, Note_on_c, 2, 48, 0
4, 186961, Note_on_c, 2, 50, 76
4, 186961, Note_on_c, 2, 62, 76
4, 187080, Note_on_c, 2, 62, 0
4, 187080, Note_on_c, 2, 50, 0
4, 187201, Note_on_c, 2, 51, 71
4, 187201, Note_on_c, 2, 63, 71
4, 187320, Note_on_c, 2, 63, 0
4, 187320, Note_on_c, 2, 51, 0
4, 187441, Note_on_c, 2, 50, 57
4, 187441, Note_on_c, 2, 62, 57
4, 187560, Note_on_c, 2, 62, 0
4, 187560, Note_on_c, 2, 50, 0
4, 187682, Note_on_c, 2, 51, 63
4, 187682, Note_on_c, 2, 63, 63
4, 187801, Note_on_c, 2, 63, 0
4, 187801, Note_on_c, 2, 51, 0
4, 187922, Note_on_c, 2, 52, 65
4, 187922, Note_on_c, 2, 64, 65
4, 188041, Note_on_c, 2, 64, 0
4, 188041, Note_on_c, 2, 52, 0
4, 188162, Note_on_c, 2, 53, 70
4, 188162, Note_on_c, 2, 65, 70
4, 188641, Note_on_c, 2, 65, 0
4, 188641, Note_on_c, 2, 53, 0
4, 189362, Note_on_c, 2, 58, 72
4, 189481, Note_on_c, 2, 58, 0
4, 189602, Note_on_c, 2, 57, 77
4, 189721, Note_on_c, 2, 57, 0
4, 189842, Note_on_c, 2, 55, 82
4, 189961, Note_on_c, 2, 55, 0
4, 190086, Note_on_c, 2, 53, 80
4, 190562, Note_on_c, 2, 53, 0
4, 191280, Note_on_c, 2, 58, 75
4, 191397, Note_on_c, 2, 58, 0
4, 191520, Note_on_c, 2, 57, 77
4, 191637, Note_on_c, 2, 57, 0
4, 191760, Note_on_c, 2, 55, 80
4, 191877, Note_on_c, 2, 55, 0
4, 192000, Note_on_c, 2, 53, 74
4, 192480, Note_on_c, 2, 53, 0
4, 224633, Note_on_c, 2, 58, 61
4, 225356, Note_on_c, 2, 58, 0
4, 225356, Note_on_c, 2, 55, 66
4, 225546, Note_on_c, 2, 55, 0
4, 225596, Note_on_c, 2, 52, 66
4, 226077, Note_on_c, 2, 52, 0
4, 226077, Note_on_c, 2, 52, 72
4, 226560, Note_on_c, 2, 52, 0
4, 228473, Note_on_c, 2, 58, 65
4, 228713, Note_on_c, 2, 58, 0
4, 228713, Note_on_c, 2, 57, 67
4, 228953, Note_on_c, 2, 57, 0
4, 228953, Note_on_c, 2, 58, 74
4, 229196, Note_on_c, 2, 58, 0
4, 229196, Note_on_c, 2, 55, 58
4, 229386, Note_on_c, 2, 55, 0
4, 229436, Note_on_c, 2, 52, 60
4, 229917, Note_on_c, 2, 52, 0
4, 229917, Note_on_c, 2, 52, 73
4, 230400, Note_on_c, 2, 52, 0
4, 231360, Note_on_c, 2, 58, 60
4, 232796, Note_on_c, 2, 58, 0
4, 232796, Note_on_c, 2, 59, 79
4, 233757, Note_on_c, 2, 59, 0
4, 233757, Note_on_c, 2, 57, 67
4, 234720, Note_on_c, 2, 57, 0
4, 234720, Note_on_c, 2, 58, 81
4, 235680, Note_on_c, 2, 58, 0
4, 235680, Note_on_c, 2, 55, 68
4, 236640, Note_on_c, 2, 55, 0
4, 236640, Note_on_c, 2, 56, 82
4, 237600, Note_on_c, 2, 56, 0
4, 237600, Note_on_c, 2, 53, 68
4, 238560, Note_on_c, 2, 53, 0
4, 238560, Note_on_c, 2, 54, 73
4, 239520, Note_on_c, 2, 54, 0
4, 239520, Note_on_c, 2, 52, 69
4, 239901, Note_on_c, 2, 52, 0
4, 240000, Note_on_c, 2, 53, 77
4, 240480, Note_on_c, 2, 53, 0
4, 245280, Note_on_c, 2, 57, 60
4, 245280, Note_on_c, 2, 60, 60
4, 245400, Note_on_c, 2, 60, 0
4, 245400, Note_on_c, 2, 57, 0
4, 245400, Note_on_c, 2, 58, 82
4, 245400, Note_on_c, 2, 62, 82
4, 245520, Note_on_c, 2, 62, 0
4, 245520, Note_on_c, 2, 58, 0
4, 245520, Note_on_c, 2, 57, 64
4, 245520, Note_on_c, 2, 60, 64
4, 245640, Note_on_c, 2, 60, 0
4, 245640, Note_on_c, 2, 57, 0
4, 245640, Note_on_c, 2, 55, 68
4, 245640, Note_on_c, 2, 58, 68
4, 245760, Note_on_c, 2, 58, 0
4, 245760, Note_on_c, 2, 55, 0
4, 245760, Note_on_c, 2, 53, 65
4, 245760, Note_on_c, 2, 57, 65
4, 246000, Note_on_c, 2, 57, 0
4, 246000, Note_on_c, 2, 53, 0
4, 246240, Note_on_c, 2, 57, 57
4, 246240, Note_on_c, 2, 60, 57
4, 246360, Note_on_c, 2, 60, 0
4, 246360, Note_on_c, 2, 57, 0
4, 246360, Note_on_c, 2, 58, 73
4, 246360, Note_on_c, 2, 62, 73
4, 246480, Note_on_c, 2, 62, 0
4, 246480, Note_on_c, 2, 58, 0
4, 246480, Note_on_c, 2, 57, 66
4, 246480, Note_on_c, 2, 60, 66
4, 246600, Note_on_c, 2, 60, 0
4, 246600, Note_on_c, 2, 57, 0
4, 246600, Note_on_c, 2, 55, 63
4, 246600, Note_on_c, 2, 58, 63
4, 246720, Note_on_c, 2, 58, 0
4, 246720, Note_on_c, 2, 55, 0
4, 246720, Note_on_c, 2, 53, 67
4, 246720, Note_on_c, 2, 57, 67
4, 246960, Note_on_c, 2, 57, 0
4, 246960, Note_on_c, 2, 53, 0
4, 247200, Note_on_c, 2, 57, 64
4, 247200, Note_on_c, 2, 60, 64
4, 247680, Note_on_c, 2, 60, 0
4, 247680, Note_on_c, 2, 57, 0
4, 247680, Note_on_c, 2, 52, 76
4, 247680, Note_on_c, 2, 55, 76
4, 247920, Note_on_c, 2, 55, 0
4, 247920, Note_on_c, 2, 52, 0
4, 248160, Note_on_c, 2, 52, 66
4, 248160, Note_on_c, 2, 55, 66
4, 248400, Note_on_c, 2, 55, 0
4, 248400, Note_on_c, 2, 52, 0
4, 248640, Note_on_c, 2, 52, 63
4, 248640, Note_on_c, 2, 55, 63
4, 248880, Note_on_c, 2, 55, 0
4, 248880, Note_on_c, 2, 52, 0
4, 249120, Note_on_c, 2, 67, 64
4, 249360, Note_on_c, 2, 67, 0
4, 249360, Note_on_c, 2, 65, 61
4, 249600, Note_on_c, 2, 65, 0
4, 249600, Note_on_c, 2, 65, 76
4, 249840, Note_on_c, 2, 65, 0
4, 249840, Note_on_c, 2, 64, 58
4, 250080, Note_on_c, 2, 64, 0
4, 250080, Note_on_c, 2, 62, 62
4, 250320, Note_on_c, 2, 62, 0
4, 250320, Note_on_c, 2, 60, 56
4, 250560, Note_on_c, 2, 60, 0
4, 250560, Note_on_c, 2, 59, 68
4, 250800, Note_on_c, 2, 59, 0
4, 250800, Note_on_c, 2, 60, 72
4, 251046, Note_on_c, 2, 60, 0
4, 251046, Note_on_c, 2, 62, 83
4, 251290, Note_on_c, 2, 62, 0
4, 251290, Note_on_c, 2, 64, 87
4, 251520, Note_on_c, 2, 64, 0
4, 251536, Note_on_c, 2, 65, 80
4, 251772, Note_on_c, 2, 65, 0
4, 251772, Note_on_c, 2, 67, 84
4, 251832, Note_on_c, 2, 67, 0
4, 251832, Note_on_c, 2, 65, 61
4, 251892, Note_on_c, 2, 65, 0
4, 251892, Note_on_c, 2, 64, 64
4, 252010, Note_on_c, 2, 64, 0
4, 252010, Note_on_c, 2, 65, 76
4, 252246, Note_on_c, 2, 65, 0
4, 252246, Note_on_c, 2, 60, 91
4, 252365, Note_on_c, 2, 60, 0
4, 252486, Note_on_c, 2, 57, 90
4, 252961, Note_on_c, 2, 57, 0
4, 279356, Note_on_c, 2, 57, 70
4, 279356, Note_on_c, 2, 60, 70
4, 280320, Note_on_c, 2, 60, 0
4, 280320, Note_on_c, 2, 57, 0
4, 280325, Note_on_c, 2, 59, 66
4, 280325, Note_on_c, 2, 55, 66
4, 281282, Note_on_c, 2, 59, 0
4, 281282, Note_on_c, 2, 58, 64
4, 282240, Note_on_c, 2, 58, 0
4, 282240, Note_on_c, 2, 55, 0
4, 282240, Note_on_c, 2, 53, 65
4, 282240, Note_on_c, 2, 57, 65
4, 282473, Note_on_c, 2, 57, 0
4, 282473, Note_on_c, 2, 53, 0
4, 282716, Note_on_c, 2, 58, 63
4, 282716, Note_on_c, 2, 62, 63
4, 282956, Note_on_c, 2, 62, 0
4, 282956, Note_on_c, 2, 58, 0
4, 283196, Note_on_c, 2, 57, 63
4, 283196, Note_on_c, 2, 60, 63
4, 283436, Note_on_c, 2, 60, 0
4, 283436, Note_on_c, 2, 57, 0
4, 283676, Note_on_c, 2, 55, 59
4, 283676, Note_on_c, 2, 58, 59
4, 283916, Note_on_c, 2, 58, 0
4, 283916, Note_on_c, 2, 55, 0
4, 284157, Note_on_c, 2, 53, 65
4, 284157, Note_on_c, 2, 57, 65
4, 284636, Note_on_c, 2, 57, 0
4, 284636, Note_on_c, 2, 53, 0
4, 298796, Note_on_c, 2, 48, 50
4, 298796, Note_on_c, 2, 60, 50
4, 299033, Note_on_c, 2, 60, 0
4, 299033, Note_on_c, 2, 48, 0
4, 299033, Note_on_c, 2, 52, 72
4, 299033, Note_on_c, 2, 64, 72
4, 299272, Note_on_c, 2, 64, 0
4, 299272, Note_on_c, 2, 52, 0
4, 299272, Note_on_c, 2, 48, 56
4, 299272, Note_on_c, 2, 60, 56
4, 299520, Note_on_c, 2, 60, 0
4, 299520, Note_on_c, 2, 48, 0
4, 299520, Note_on_c, 2, 53, 72
4, 299520, Note_on_c, 2, 65, 72
4, 300000, Note_on_c, 2, 65, 0
4, 300000, Note_on_c, 2, 53, 0
4, 300716, Note_on_c, 2, 48, 53
4, 300716, Note_on_c, 2, 60, 53
4, 300836, Note_on_c, 2, 60, 0
4, 300836, Note_on_c, 2, 48, 0
4, 300836, Note_on_c, 2, 50, 66
4, 300836, Note_on_c, 2, 62, 66
4, 300953, Note_on_c, 2, 62, 0
4, 300953, Note_on_c, 2, 50, 0
4, 300953, Note_on_c, 2, 52, 67
4, 300953, Note_on_c, 2, 64, 67
4, 301192, Note_on_c, 2, 64, 0
4, 301192, Note_on_c, 2, 52, 0
4, 301192, Note_on_c, 2, 48, 50
4, 301192, Note_on_c, 2, 60, 50
4, 301440, Note_on_c, 2, 60, 0
4, 301440, Note_on_c, 2, 48, 0
4, 301440, Note_on_c, 2, 53, 72
4, 301440, Note_on_c, 2, 65, 72
4, 301920, Note_on_c, 2, 65, 0
4, 301920, Note_on_c, 2, 53, 0
4, 302636, Note_on_c, 2, 48, 48
4, 302636, Note_on_c, 2, 60, 48
4, 302756, Note_on_c, 2, 60, 0
4, 302756, Note_on_c, 2, 48, 0
4, 302756, Note_on_c, 2, 50, 68
4, 302756, Note_on_c, 2, 62, 68
4, 302873, Note_on_c, 2, 62, 0
4, 302873, Note_on_c, 2, 50, 0
4, 302873, Note_on_c, 2, 52, 71
4, 302873, Note_on_c, 2, 64, 71
4, 303112, Note_on_c, 2, 64, 0
4, 303112, Note_on_c, 2, 52, 0
4, 303112, Note_on_c, 2, 48, 43
4, 303112, Note_on_c, 2, 60, 43
4, 303360, Note_on_c, 2, 60, 0
4, 303360, Note_on_c, 2, 48, 0
4, 303360, Note_on_c, 2, 53, 78
4, 303360, Note_on_c, 2, 65, 78
4, 303833, Note_on_c, 2, 65, 0
4, 303833, Note_on_c, 2, 53, 0
4, 314873, Note_on_c, 2, 65, 49
4, 323040, Note_on_c, 2, 65, 0
4, 323986, Note_on_c, 2, 62, 54
4, 323986, Note_on_c, 2, 65, 54
4, 324224, Note_on_c, 2, 65, 0
4, 324224, Note_on_c, 2, 62, 0
4, 324473, Note_on_c, 2, 58, 50
4, 324473, Note_on_c, 2, 62, 50
4, 324709, Note_on_c, 2, 62, 0
4, 324709, Note_on_c, 2, 58, 0
4, 324956, Note_on_c, 2, 53, 51
4, 324956, Note_on_c, 2, 58, 51
4, 325193, Note_on_c, 2, 58, 0
4, 325193, Note_on_c, 2, 53, 0
4, 325436, Note_on_c, 2, 50, 52
4, 325436, Note_on_c, 2, 53, 52
4, 325673, Note_on_c, 2, 53, 0
4, 325673, Note_on_c, 2, 50, 0
4, 325916, Note_on_c, 2, 47, 54
4, 325916, Note_on_c, 2, 50, 54
4, 326153, Note_on_c, 2, 50, 0
4, 326153, Note_on_c, 2, 47, 0
4, 330237, Note_on_c, 2, 53, 73
4, 330480, Note_on_c, 2, 53, 0
4, 330480, Note_on_c, 2, 48, 69
4, 330720, Note_on_c, 2, 48, 0
4, 330720, Note_on_c, 2, 53, 92
4, 330960, Note_on_c, 2, 53, 0
4, 330960, Note_on_c, 2, 48, 80
4, 331200, Note_on_c, 2, 48, 0
4, 331200, Note_on_c, 2, 53, 97
4, 331440, Note_on_c, 2, 53, 0
4, 331440, Note_on_c, 2, 48, 71
4, 331680, Note_on_c, 2, 48, 0
4, 331680, Note_on_c, 2, 53, 98
4, 331920, Note_on_c, 2, 53, 0
4, 331920, Note_on_c, 2, 48, 75
4, 332160, Note_on_c, 2, 48, 0
4, 332160, Note_on_c, 2, 55, 97
4, 332400, Note_on_c, 2, 55, 0
4, 332400, Note_on_c, 2, 48, 61
4, 332640, Note_on_c, 2, 48, 0
4, 332640, Note_on_c, 2, 55, 100
4, 332880, Note_on_c, 2, 55, 0
4, 332880, Note_on_c, 2, 48, 68
4, 333120, Note_on_c, 2, 48, 0
4, 333120, Note_on_c, 2, 55, 96
4, 333360, Note_on_c, 2, 55, 0
4, 333360, Note_on_c, 2, 48, 72
4, 333600, Note_on_c, 2, 48, 0
4, 333600, Note_on_c, 2, 53, 94
4, 333840, Note_on_c, 2, 53, 0
4, 333840, Note_on_c, 2, 48, 77
4, 334080, Note_on_c, 2, 48, 0
4, 334080, Note_on_c, 2, 52, 91
4, 334320, Note_on_c, 2, 52, 0
4, 334320, Note_on_c, 2, 48, 78
4, 334560, Note_on_c, 2, 48, 0
4, 334560, Note_on_c, 2, 52, 87
4, 334800, Note_on_c, 2, 52, 0
4, 334800, Note_on_c, 2, 48, 79
4, 335040, Note_on_c, 2, 48, 0
4, 335040, Note_on_c, 2, 55, 98
4, 335280, Note_on_c, 2, 55, 0
4, 335280, Note_on_c, 2, 48, 73
4, 335520, Note_on_c, 2, 48, 0
4, 335520, Note_on_c, 2, 58, 104
4, 335760, Note_on_c, 2, 58, 0
4, 335760, Note_on_c, 2, 48, 65
4, 336000, Note_on_c, 2, 48, 0
4, 336000, Note_on_c, 2, 57, 89
4, 336240, Note_on_c, 2, 57, 0
4, 336240, Note_on_c, 2, 48, 72
4, 336480, Note_on_c, 2, 48, 0
4, 336480, Note_on_c, 2, 57, 95
4, 336720, Note_on_c, 2, 57, 0
4, 336720, Note_on_c, 2, 48, 66
4, 336960, Note_on_c, 2, 48, 0
4, 336960, Note_on_c, 2, 57, 97
4, 337200, Note_on_c, 2, 57, 0
4, 337200, Note_on_c, 2, 48, 73
4, 337440, Note_on_c, 2, 48, 0
4, 337440, Note_on_c, 2, 52, 85
4, 337680, Note_on_c, 2, 52, 0
4, 337680, Note_on_c, 2, 48, 74
4, 337920, Note_on_c, 2, 48, 0
4, 337920, Note_on_c, 2, 53, 97
4, 338160, Note_on_c, 2, 53, 0
4, 338160, Note_on_c, 2, 48, 77
4, 338400, Note_on_c, 2, 48, 0
4, 338400, Note_on_c, 2, 53, 89
4, 338640, Note_on_c, 2, 53, 0
4, 338640, Note_on_c, 2, 48, 84
4, 338880, Note_on_c, 2, 48, 0
4, 338880, Note_on_c, 2, 53, 85
4, 339120, Note_on_c, 2, 53, 0
4, 339120, Note_on_c, 2, 48, 76
4, 339360, Note_on_c, 2, 48, 0
4, 339360, Note_on_c, 2, 53, 97
4, 339600, Note_on_c, 2, 53, 0
4, 339600, Note_on_c, 2, 48, 75
4, 339840, Note_on_c, 2, 48, 0
4, 339840, Note_on_c, 2, 52, 84
4, 340080, Note_on_c, 2, 52, 0
4, 340080, Note_on_c, 2, 48, 75
4, 340320, Note_on_c, 2, 48, 0
4, 340320, Note_on_c, 2, 52, 88
4, 340560, Note_on_c, 2, 52, 0
4, 340560, Note_on_c, 2, 48, 75
4, 340800, Note_on_c, 2, 48, 0
4, 340800, Note_on_c, 2, 52, 90
4, 341040, Note_on_c, 2, 52, 0
4, 341040, Note_on_c, 2, 48, 82
4, 341280, Note_on_c, 2, 48, 0
4, 341280, Note_on_c, 2, 54, 93
4, 341520, Note_on_c, 2, 54, 0
4, 341520, Note_on_c, 2, 48, 72
4, 341760, Note_on_c, 2, 48, 0
4, 341760, Note_on_c, 2, 55, 91
4, 342000, Note_on_c, 2, 55, 0
4, 342000, Note_on_c, 2, 48, 74
4, 342240, Note_on_c, 2, 48, 0
4, 342240, Note_on_c, 2, 55, 95
4, 342480, Note_on_c, 2, 55, 0
4, 342480, Note_on_c, 2, 48, 70
4, 342720, Note_on_c, 2, 48, 0
4, 342720, Note_on_c, 2, 55, 91
4, 342960, Note_on_c, 2, 55, 0
4, 342960, Note_on_c, 2, 48, 71
4, 343200, Note_on_c, 2, 48, 0
4, 343200, Note_on_c, 2, 52, 95
4, 343440, Note_on_c, 2, 52, 0
4, 343440, Note_on_c, 2, 48, 82
4, 343680, Note_on_c, 2, 48, 0
4, 343680, Note_on_c, 2, 53, 93
4, 344160, Note_on_c, 2, 53, 0
4, 345596, Note_on_c, 2, 62, 76
4, 345712, Note_on_c, 2, 62, 0
4, 345840, Note_on_c, 2, 58, 77
4, 345957, Note_on_c, 2, 58, 0
4, 346080, Note_on_c, 2, 58, 75
4, 346560, Note_on_c, 2, 58, 0
4, 346560, Note_on_c, 2, 62, 98
4, 346677, Note_on_c, 2, 62, 0
4, 346789, Note_on_c, 2, 53, 71
4, 346908, Note_on_c, 2, 53, 0
4, 347014, Note_on_c, 2, 53, 80
4, 347520, Note_on_c, 2, 53, 0
4, 347520, Note_on_c, 2, 58, 97
4, 347626, Note_on_c, 2, 58, 0
4, 347748, Note_on_c, 2, 50, 70
4, 347866, Note_on_c, 2, 50, 0
4, 347992, Note_on_c, 2, 50, 83
4, 348109, Note_on_c, 2, 50, 0
4, 348232, Note_on_c, 2, 50, 85
4, 348349, Note_on_c, 2, 50, 0
4, 348476, Note_on_c, 2, 50, 80
4, 348593, Note_on_c, 2, 50, 0
4, 348716, Note_on_c, 2, 50, 86
4, 348833, Note_on_c, 2, 50, 0
4, 348960, Note_on_c, 2, 50, 81
4, 349077, Note_on_c, 2, 50, 0
4, 349200, Note_on_c, 2, 50, 80
4, 349317, Note_on_c, 2, 50, 0
4, 349440, Note_on_c, 2, 50, 82
4, 349920, Note_on_c, 2, 50, 0
4, 349920, Note_on_c, 2, 62, 116
4, 349920, Note_on_c, 2, 65, 116
4, 350400, Note_on_c, 2, 65, 0
4, 350400, Note_on_c, 2, 62, 0
4, 350400, Note_on_c, 2, 62, 97
4, 350400, Note_on_c, 2, 65, 97
4, 350880, Note_on_c, 2, 65, 0
4, 350880, Note_on_c, 2, 62, 0
4, 350880, Note_on_c, 2, 62, 87
4, 350880, Note_on_c, 2, 65, 87
4, 351360, Note_on_c, 2, 65, 0
4, 351360, Note_on_c, 2, 62, 0
4, 351360, Note_on_c, 2, 62, 86
4, 351360, Note_on_c, 2, 65, 86
4, 351840, Note_on_c, 2, 65, 0
4, 351840, Note_on_c, 2, 62, 0
4, 357120, Note_on_c, 2, 57, 63
4, 357360, Note_on_c, 2, 57, 0
4, 357360, Note_on_c, 2, 57, 69
4, 357480, Note_on_c, 2, 57, 0
4, 357480, Note_on_c, 2, 57, 74
4, 357600, Note_on_c, 2, 57, 0
4, 357600, Note_on_c, 2, 57, 76
4, 357840, Note_on_c, 2, 57, 0
4, 357840, Note_on_c, 2, 57, 70
4, 358080, Note_on_c, 2, 57, 0
4, 358080, Note_on_c, 2, 57, 72
4, 358320, Note_on_c, 2, 57, 0
4, 358320, Note_on_c, 2, 60, 86
4, 358560, Note_on_c, 2, 60, 0
4, 358560, Note_on_c, 2, 53, 64
4, 358800, Note_on_c, 2, 53, 0
4, 358800, Note_on_c, 2, 57, 81
4, 359040, Note_on_c, 2, 57, 0
4, 359040, Note_on_c, 2, 48, 81
4, 359040, Note_on_c, 2, 60, 81
4, 359157, Note_on_c, 2, 60, 0
4, 359157, Note_on_c, 2, 48, 0
4, 359280, Note_on_c, 2, 48, 75
4, 359280, Note_on_c, 2, 60, 75
4, 359397, Note_on_c, 2, 60, 0
4, 359397, Note_on_c, 2, 48, 0
4, 359520, Note_on_c, 2, 48, 78
4, 359520, Note_on_c, 2, 60, 78
4, 359637, Note_on_c, 2, 60, 0
4, 359637, Note_on_c, 2, 48, 0
4, 359760, Note_on_c, 2, 48, 66
4, 359760, Note_on_c, 2, 60, 66
4, 359877, Note_on_c, 2, 60, 0
4, 359877, Note_on_c, 2, 48, 0
4, 360000, Note_on_c, 2, 48, 71
4, 360000, Note_on_c, 2, 60, 71
4, 360117, Note_on_c, 2, 60, 0
4, 360117, Note_on_c, 2, 48, 0
4, 360240, Note_on_c, 2, 48, 68
4, 360240, Note_on_c, 2, 60, 68
4, 360357, Note_on_c, 2, 60, 0
4, 360357, Note_on_c, 2, 48, 0
4, 360480, Note_on_c, 2, 48, 70
4, 360480, Note_on_c, 2, 60, 70
4, 360597, Note_on_c, 2, 60, 0
4, 360597, Note_on_c, 2, 48, 0
4, 360720, Note_on_c, 2, 48, 75
4, 360720, Note_on_c, 2, 60, 75
4, 360837, Note_on_c, 2, 60, 0
4, 360837, Note_on_c, 2, 48, 0
4, 360933, Note_on_c, 2, 53, 80
4, 361428, Note_on_c, 2, 53, 0
4, 362169, Note_on_c, 2, 58, 78
4, 362409, Note_on_c, 2, 58, 0
4, 362409, Note_on_c, 2, 57, 80
4, 362649, Note_on_c, 2, 57, 0
4, 362649, Note_on_c, 2, 55, 74
4, 362880, Note_on_c, 2, 55, 0
4, 362886, Note_on_c, 2, 53, 77
4, 363362, Note_on_c, 2, 53, 0
4, 364080, Note_on_c, 2, 58, 69
4, 364320, Note_on_c, 2, 58, 0
4, 364320, Note_on_c, 2, 57, 75
4, 364560, Note_on_c, 2, 57, 0
4, 364560, Note_on_c, 2, 55, 78
4, 364800, Note_on_c, 2, 55, 0
4, 364800, Note_on_c, 2, 53, 83
4, 365280, Note_on_c, 2, 53, 0
4, 365280, Note_on_c, 2, 53, 87
4, 365760, Note_on_c, 2, 53, 0
4, 365760, Note_on_c, 2, 41, 65
4, 366240, Note_on_c, 2, 41, 0
4, 374418, Note_on_c, 2, 65, 55
4, 375842, Note_on_c, 2, 65, 0
4, 375842, Note_on_c, 2, 60, 49
4, 376221, Note_on_c, 2, 60, 0
4, 376320, Note_on_c, 2, 57, 49
4, 376800, Note_on_c, 2, 57, 0
4, 383996, Note_on_c, 2, 62, 58
4, 384112, Note_on_c, 2, 62, 0
4, 384233, Note_on_c, 2, 62, 67
4, 384292, Note_on_c, 2, 62, 0
4, 384353, Note_on_c, 2, 62, 71
4, 384412, Note_on_c, 2, 62, 0
4, 384476, Note_on_c, 2, 62, 82
4, 384593, Note_on_c, 2, 62, 0
4, 384716, Note_on_c, 2, 62, 72
4, 384833, Note_on_c, 2, 62, 0
4, 384956, Note_on_c, 2, 62, 73
4, 385200, Note_on_c, 2, 62, 0
4, 385200, Note_on_c, 2, 65, 80
4, 385440, Note_on_c, 2, 65, 0
4, 385440, Note_on_c, 2, 57, 59
4, 385680, Note_on_c, 2, 57, 0
4, 385680, Note_on_c, 2, 62, 90
4, 385920, Note_on_c, 2, 62, 0
4, 385920, Note_on_c, 2, 53, 59
4, 386024, Note_on_c, 2, 53, 0
4, 386148, Note_on_c, 2, 53, 64
4, 386206, Note_on_c, 2, 53, 0
4, 386268, Note_on_c, 2, 53, 70
4, 386326, Note_on_c, 2, 53, 0
4, 386389, Note_on_c, 2, 53, 72
4, 386508, Note_on_c, 2, 53, 0
4, 386636, Note_on_c, 2, 53, 75
4, 386753, Note_on_c, 2, 53, 0
4, 386880, Note_on_c, 2, 53, 74
4, 387122, Note_on_c, 2, 53, 0
4, 387122, Note_on_c, 2, 57, 84
4, 387369, Note_on_c, 2, 57, 0
4, 387369, Note_on_c, 2, 50, 60
4, 387609, Note_on_c, 2, 50, 0
4, 387609, Note_on_c, 2, 54, 73
4, 387840, Note_on_c, 2, 54, 0
4, 387849, Note_on_c, 2, 55, 78
4, 388326, Note_on_c, 2, 55, 0
4, 389760, Note_on_c, 2, 58, 59
4, 389877, Note_on_c, 2, 58, 0
4, 389997, Note_on_c, 2, 58, 64
4, 390056, Note_on_c, 2, 58, 0
4, 390117, Note_on_c, 2, 58, 66
4, 390176, Note_on_c, 2, 58, 0
4, 390236, Note_on_c, 2, 58, 71
4, 390353, Note_on_c, 2, 58, 0
4, 390480, Note_on_c, 2, 58, 70
4, 390597, Note_on_c, 2, 58, 0
4, 390721, Note_on_c, 2, 58, 73
4, 390965, Note_on_c, 2, 58, 0
4, 390965, Note_on_c, 2, 62, 88
4, 391206, Note_on_c, 2, 62, 0
4, 391206, Note_on_c, 2, 55, 62
4, 391445, Note_on_c, 2, 55, 0
4, 391445, Note_on_c, 2, 59, 75
4, 391680, Note_on_c, 2, 59, 0
4, 391682, Note_on_c, 2, 60, 84
4, 391922, Note_on_c, 2, 60, 0
4, 391922, Note_on_c, 2, 60, 63
4, 392042, Note_on_c, 2, 60, 0
4, 392042, Note_on_c, 2, 60, 62
4, 392161, Note_on_c, 2, 60, 0
4, 392161, Note_on_c, 2, 60, 63
4, 392280, Note_on_c, 2, 60, 0
4, 392401, Note_on_c, 2, 60, 65
4, 392520, Note_on_c, 2, 60, 0
4, 392641, Note_on_c, 2, 60, 63
4, 392880, Note_on_c, 2, 60, 0
4, 392880, Note_on_c, 2, 63, 75
4, 393120, Note_on_c, 2, 63, 0
4, 393120, Note_on_c, 2, 55, 35
4, 393360, Note_on_c, 2, 55, 0
4, 393360, Note_on_c, 2, 60, 67
4, 393600, Note_on_c, 2, 60, 0
4, 393600, Note_on_c, 2, 63, 63
4, 393600, Note_on_c, 2, 51, 61
4, 393717, Note_on_c, 2, 51, 0
4, 393717, Note_on_c, 2, 63, 0
4, 393840, Note_on_c, 2, 63, 72
4, 393840, Note_on_c, 2, 51, 75
4, 393897, Note_on_c, 2, 51, 0
4, 393897, Note_on_c, 2, 63, 0
4, 393960, Note_on_c, 2, 63, 69
4, 393960, Note_on_c, 2, 51, 66
4, 394017, Note_on_c, 2, 51, 0
4, 394017, Note_on_c, 2, 63, 0
4, 394080, Note_on_c, 2, 63, 75
4, 394080, Note_on_c, 2, 51, 71
4, 394197, Note_on_c, 2, 51, 0
4, 394197, Note_on_c, 2, 63, 0
4, 394320, Note_on_c, 2, 63, 76
4, 394320, Note_on_c, 2, 51, 74
4, 394437, Note_on_c, 2, 51, 0
4, 394437, Note_on_c, 2, 63, 0
4, 394560, Note_on_c, 2, 63, 71
4, 394560, Note_on_c, 2, 51, 81
4, 394801, Note_on_c, 2, 51, 0
4, 394801, Note_on_c, 2, 63, 0
4, 394801, Note_on_c, 2, 67, 86
4, 394801, Note_on_c, 2, 55, 91
4, 395041, Note_on_c, 2, 55, 0
4, 395041, Note_on_c, 2, 67, 0
4, 395041, Note_on_c, 2, 60, 54
4, 395041, Note_on_c, 2, 48, 66
4, 395281, Note_on_c, 2, 48, 0
4, 395281, Note_on_c, 2, 60, 0
4, 395281, Note_on_c, 2, 64, 84
4, 395281, Note_on_c, 2, 52, 81
4, 395520, Note_on_c, 2, 52, 0
4, 395520, Note_on_c, 2, 64, 0
4, 395521, Note_on_c, 2, 65, 81
4, 395521, Note_on_c, 2, 53, 75
4, 395640, Note_on_c, 2, 65, 0
4, 395761, Note_on_c, 2, 65, 73
4, 395820, Note_on_c, 2, 65, 0
4, 395881, Note_on_c, 2, 65, 68
4, 395940, Note_on_c, 2, 65, 0
4, 396001, Note_on_c, 2, 53, 0
4, 396001, Note_on_c, 2, 65, 71
4, 396120, Note_on_c, 2, 65, 0
4, 396241, Note_on_c, 2, 65, 64
4, 396360, Note_on_c, 2, 65, 0
4, 396480, Note_on_c, 2, 65, 75
4, 396720, Note_on_c, 2, 65, 0
4, 396960, Note_on_c, 2, 60, 61
4, 397200, Note_on_c, 2, 60, 0
4, 397200, Note_on_c, 2, 65, 84
4, 397440, Note_on_c, 2, 65, 0
4, 397440, Note_on_c, 2, 57, 58
4, 397557, Note_on_c, 2, 57, 0
4, 397680, Note_on_c, 2, 57, 66
4, 397737, Note_on_c, 2, 57, 0
4, 397800, Note_on_c, 2, 57, 75
4, 397857, Note_on_c, 2, 57, 0
4, 397920, Note_on_c, 2, 57, 65
4, 398037, Note_on_c, 2, 57, 0
4, 398160, Note_on_c, 2, 57, 69
4, 398277, Note_on_c, 2, 57, 0
4, 398401, Note_on_c, 2, 57, 77
4, 398645, Note_on_c, 2, 57, 0
4, 398645, Note_on_c, 2, 60, 84
4, 398885, Note_on_c, 2, 60, 0
4, 398885, Note_on_c, 2, 53, 57
4, 399125, Note_on_c, 2, 53, 0
4, 399125, Note_on_c, 2, 57, 76
4, 399360, Note_on_c, 2, 57, 0
4, 399366, Note_on_c, 2, 58, 76
4, 399485, Note_on_c, 2, 58, 0
4, 399602, Note_on_c, 2, 58, 65
4, 399661, Note_on_c, 2, 58, 0
4, 399722, Note_on_c, 2, 58, 71
4, 399781, Note_on_c, 2, 58, 0
4, 399842, Note_on_c, 2, 58, 69
4, 399961, Note_on_c, 2, 58, 0
4, 400082, Note_on_c, 2, 58, 72
4, 400201, Note_on_c, 2, 58, 0
4, 400322, Note_on_c, 2, 58, 66
4, 400560, Note_on_c, 2, 58, 0
4, 400560, Note_on_c, 2, 62, 85
4, 400800, Note_on_c, 2, 62, 0
4, 400800, Note_on_c, 2, 53, 61
4, 401040, Note_on_c, 2, 53, 0
4, 401040, Note_on_c, 2, 58, 77
4, 401280, Note_on_c, 2, 58, 0
4, 401280, Note_on_c, 2, 50, 92
4, 401280, Note_on_c, 2, 62, 92
4, 401397, Note_on_c, 2, 62, 0
4, 401397, Note_on_c, 2, 50, 0
4, 401520, Note_on_c, 2, 50, 71
4, 401520, Note_on_c, 2, 62, 71
4, 401577, Note_on_c, 2, 62, 0
4, 401577, Note_on_c, 2, 50, 0
4, 401640, Note_on_c, 2, 50, 66
4, 401640, Note_on_c, 2, 62, 66
4, 401697, Note_on_c, 2, 62, 0
4, 401697, Note_on_c, 2, 50, 0
4, 401760, Note_on_c, 2, 50, 73
4, 401760, Note_on_c, 2, 62, 73
4, 401877, Note_on_c, 2, 62, 0
4, 401877, Note_on_c, 2, 50, 0
4, 402000, Note_on_c, 2, 50, 74
4, 402000, Note_on_c, 2, 62, 74
4, 402117, Note_on_c, 2, 62, 0
4, 402117, Note_on_c, 2, 50, 0
4, 402242, Note_on_c, 2, 50, 72
4, 402242, Note_on_c, 2, 62, 72
4, 402490, Note_on_c, 2, 62, 0
4, 402490, Note_on_c, 2, 50, 0
4, 402490, Note_on_c, 2, 53, 79
4, 402490, Note_on_c, 2, 65, 79
4, 402730, Note_on_c, 2, 65, 0
4, 402730, Note_on_c, 2, 53, 0
4, 402730, Note_on_c, 2, 46, 58
4, 402730, Note_on_c, 2, 58, 58
4, 402966, Note_on_c, 2, 58, 0
4, 402966, Note_on_c, 2, 46, 0
4, 402966, Note_on_c, 2, 50, 88
4, 402966, Note_on_c, 2, 62, 88
4, 403200, Note_on_c, 2, 62, 0
4, 403200, Note_on_c, 2, 50, 0
4, 403206, Note_on_c, 2, 51, 81
4, 403206, Note_on_c, 2, 63, 81
4, 403682, Note_on_c, 2, 63, 0
4, 403682, Note_on_c, 2, 51, 0
4, 438716, Note_on_c, 2, 41, 58
4, 438716, Note_on_c, 2, 53, 58
4, 439680, Note_on_c, 2, 53, 0
4, 439680, Note_on_c, 2, 41, 0
4, 439680, Note_on_c, 2, 42, 72
4, 439680, Note_on_c, 2, 54, 72
4, 440640, Note_on_c, 2, 54, 0
4, 440640, Note_on_c, 2, 42, 0
4, 440640, Note_on_c, 2, 43, 76
4, 440640, Note_on_c, 2, 55, 76
4, 441600, Note_on_c, 2, 55, 0
4, 441600, Note_on_c, 2, 43, 0
4, 441600, Note_on_c, 2, 44, 70
4, 441600, Note_on_c, 2, 56, 70
4, 442560, Note_on_c, 2, 56, 0
4, 442560, Note_on_c, 2, 44, 0
4, 442560, Note_on_c, 2, 45, 88
4, 442560, Note_on_c, 2, 57, 88
4, 443520, Note_on_c, 2, 57, 0
4, 443520, Note_on_c, 2, 45, 0
4, 443520, Note_on_c, 2, 46, 85
4, 443520, Note_on_c, 2, 58, 85
4, 443896, Note_on_c, 2, 58, 0
4, 443896, Note_on_c, 2, 46, 0
4, 445920, Note_on_c, 2, 58, 55
4, 446880, Note_on_c, 2, 58, 0
4, 446880, Note_on_c, 2, 59, 59
4, 447261, Note_on_c, 2, 59, 0
4, 447360, Note_on_c, 2, 60, 66
4, 447840, Note_on_c, 2, 60, 0
4, 449760, Note_on_c, 2, 60, 59
4, 450720, Note_on_c, 2, 60, 0
4, 450720, Note_on_c, 2, 61, 69
4, 451200, Note_on_c, 2, 61, 0
4, 451200, Note_on_c, 2, 62, 73
4, 451680, Note_on_c, 2, 62, 0
4, 458885, Note_on_c, 2, 62, 67
4, 458885, Note_on_c, 2, 46, 78
4, 459122, Note_on_c, 2, 62, 0
4, 459362, Note_on_c, 2, 62, 70
4, 459541, Note_on_c, 2, 62, 0
4, 459722, Note_on_c, 2, 62, 69
4, 459781, Note_on_c, 2, 62, 0
4, 459841, Note_on_c, 2, 62, 73
4, 460080, Note_on_c, 2, 62, 0
4, 460181, Note_on_c, 2, 46, 0
4, 460321, Note_on_c, 2, 62, 72
4, 460321, Note_on_c, 2, 46, 70
4, 460557, Note_on_c, 2, 46, 0
4, 460557, Note_on_c, 2, 62, 0
4, 460800, Note_on_c, 2, 63, 79
4, 460800, Note_on_c, 2, 41, 72
4, 461040, Note_on_c, 2, 63, 0
4, 461040, Note_on_c, 2, 60, 62
4, 461280, Note_on_c, 2, 60, 0
4, 461280, Note_on_c, 2, 41, 0
4, 461280, Note_on_c, 2, 62, 76
4, 461280, Note_on_c, 2, 46, 79
4, 461760, Note_on_c, 2, 46, 0
4, 461760, Note_on_c, 2, 62, 0
4, 462720, Note_on_c, 2, 41, 60
4, 462720, Note_on_c, 2, 53, 60
4, 463680, Note_on_c, 2, 53, 0
4, 463680, Note_on_c, 2, 41, 0
4, 464160, Note_on_c, 2, 41, 59
4, 464160, Note_on_c, 2, 53, 59
4, 464640, Note_on_c, 2, 53, 0
4, 464640, Note_on_c, 2, 41, 0
4, 464640, Note_on_c, 2, 46, 82
4, 464640, Note_on_c, 2, 58, 82
4, 465120, Note_on_c, 2, 58, 0
4, 465120, Note_on_c, 2, 46, 0
4, 465120, Note_on_c, 2, 41, 64
4, 465120, Note_on_c, 2, 53, 64
4, 465600, Note_on_c, 2, 53, 0
4, 465600, Note_on_c, 2, 41, 0
4, 476157, Note_on_c, 2, 46, 78
4, 477120, Note_on_c, 2, 46, 0
4, 477600, Note_on_c, 2, 58, 79
4, 478080, Note_on_c, 2, 58, 0
4, 478080, Note_on_c, 2, 63, 105
4, 479520, Note_on_c, 2, 63, 0
4, 479520, Note_on_c, 2, 62, 81
4, 479880, Note_on_c, 2, 62, 0
4, 479880, Note_on_c, 2, 58, 75
4, 480000, Note_on_c, 2, 58, 0
4, 480000, Note_on_c, 2, 57, 79
4, 480480, Note_on_c, 2, 57, 0
4, 480480, Note_on_c, 2, 60, 95
4, 480960, Note_on_c, 2, 60, 0
4, 480960, Note_on_c, 2, 57, 81
4, 481440, Note_on_c, 2, 57, 0
4, 481440, Note_on_c, 2, 53, 78
4, 481920, Note_on_c, 2, 53, 0
4, 481920, Note_on_c, 2, 50, 78
4, 482400, Note_on_c, 2, 50, 0
4, 482400, Note_on_c, 2, 41, 86
4, 482400, Note_on_c, 2, 53, 86
4, 482880, Note_on_c, 2, 53, 0
4, 482880, Note_on_c, 2, 41, 0
4, 482880, Note_on_c, 2, 46, 97
4, 482880, Note_on_c, 2, 58, 97
4, 483360, Note_on_c, 2, 58, 0
4, 483360, Note_on_c, 2, 46, 0
4, 483360, Note_on_c, 2, 50, 108
4, 483360, Note_on_c, 2, 62, 108
4, 483840, Note_on_c, 2, 62, 0
4, 483840, Note_on_c, 2, 50, 0
4, 483840, Note_on_c, 2, 41, 67
4, 483840, Note_on_c, 2, 53, 67
4, 487680, Note_on_c, 2, 53, 0
4, 487680, Note_on_c, 2, 41, 0
4, 487680, Note_on_c, 2, 46, 69
4, 488160, Note_on_c, 2, 46, 0
4, 489600, Note_on_c, 2, 65, 75
4, 489717, Note_on_c, 2, 65, 0
4, 489840, Note_on_c, 2, 58, 64
4, 489957, Note_on_c, 2, 58, 0
4, 490080, Note_on_c, 2, 58, 75
4, 490560, Note_on_c, 2, 58, 0
4, 490560, Note_on_c, 2, 62, 100
4, 490677, Note_on_c, 2, 62, 0
4, 490788, Note_on_c, 2, 53, 74
4, 490906, Note_on_c, 2, 53, 0
4, 491014, Note_on_c, 2, 53, 80
4, 491520, Note_on_c, 2, 53, 0
4, 491520, Note_on_c, 2, 58, 91
4, 491626, Note_on_c, 2, 58, 0
4, 491748, Note_on_c, 2, 50, 67
4, 491866, Note_on_c, 2, 50, 0
4, 491992, Note_on_c, 2, 50, 80
4, 492720, Note_on_c, 2, 50, 0
4, 492720, Note_on_c, 2, 52, 93
4, 492840, Note_on_c, 2, 52, 0
4, 492840, Note_on_c, 2, 53, 87
4, 492960, Note_on_c, 2, 53, 0
4, 492960, Note_on_c, 2, 55, 89
4, 493200, Note_on_c, 2, 55, 0
4, 493200, Note_on_c, 2, 52, 75
4, 493440, Note_on_c, 2, 52, 0
4, 493440, Note_on_c, 2, 53, 86
4, 493916, Note_on_c, 2, 53, 0
4, 526069, Note_on_c, 2, 63, 58
4, 526792, Note_on_c, 2, 63, 0
4, 526792, Note_on_c, 2, 60, 46
4, 527033, Note_on_c, 2, 60, 0
4, 527033, Note_on_c, 2, 57, 45
4, 527517, Note_on_c, 2, 57, 0
4, 527517, Note_on_c, 2, 57, 56
4, 528000, Note_on_c, 2, 57, 0
4, 529913, Note_on_c, 2, 63, 52
4, 530153, Note_on_c, 2, 63, 0
4, 530153, Note_on_c, 2, 62, 47
4, 530393, Note_on_c, 2, 62, 0
4, 530393, Note_on_c, 2, 63, 67
4, 530636, Note_on_c, 2, 63, 0
4, 530636, Note_on_c, 2, 60, 58
4, 530876, Note_on_c, 2, 60, 0
4, 530876, Note_on_c, 2, 57, 47
4, 531357, Note_on_c, 2, 57, 0
4, 531357, Note_on_c, 2, 57, 53
4, 531840, Note_on_c, 2, 57, 0
4, 532800, Note_on_c, 2, 63, 51
4, 534237, Note_on_c, 2, 63, 0
4, 534237, Note_on_c, 2, 64, 74
4, 535197, Note_on_c, 2, 64, 0
4, 535197, Note_on_c, 2, 62, 47
4, 536160, Note_on_c, 2, 62, 0
4, 536160, Note_on_c, 2, 63, 70
4, 537120, Note_on_c, 2, 63, 0
4, 537120, Note_on_c, 2, 60, 52
4, 538080, Note_on_c, 2, 60, 0
4, 538080, Note_on_c, 2, 61, 68
4, 539040, Note_on_c, 2, 61, 0
4, 539040, Note_on_c, 2, 58, 58
4, 540000, Note_on_c, 2, 58, 0
4, 540000, Note_on_c, 2, 59, 59
4, 540960, Note_on_c, 2, 59, 0
4, 540960, Note_on_c, 2, 57, 57
4, 541341, Note_on_c, 2, 57, 0
4, 541440, Note_on_c, 2, 58, 66
4, 541920, Note_on_c, 2, 58, 0
4, 545273, Note_on_c, 2, 46, 48
4, 550560, Note_on_c, 2, 60, 50
4, 550800, Note_on_c, 2, 60, 0
4, 550800, Note_on_c, 2, 58, 51
4, 551040, Note_on_c, 2, 58, 0
4, 551040, Note_on_c, 2, 58, 64
4, 551280, Note_on_c, 2, 58, 0
4, 551280, Note_on_c, 2, 57, 53
4, 551520, Note_on_c, 2, 57, 0
4, 551520, Note_on_c, 2, 55, 61
4, 551760, Note_on_c, 2, 55, 0
4, 551760, Note_on_c, 2, 53, 56
4, 552000, Note_on_c, 2, 53, 0
4, 552000, Note_on_c, 2, 52, 58
4, 552240, Note_on_c, 2, 52, 0
4, 552240, Note_on_c, 2, 53, 65
4, 552485, Note_on_c, 2, 53, 0
4, 552485, Note_on_c, 2, 55, 63
4, 552730, Note_on_c, 2, 55, 0
4, 552730, Note_on_c, 2, 57, 56
4, 552960, Note_on_c, 2, 57, 0
4, 552972, Note_on_c, 2, 58, 65
4, 553212, Note_on_c, 2, 58, 0
4, 553212, Note_on_c, 2, 60, 68
4, 553272, Note_on_c, 2, 60, 0
4, 553272, Note_on_c, 2, 58, 56
4, 553332, Note_on_c, 2, 58, 0
4, 553332, Note_on_c, 2, 57, 55
4, 553452, Note_on_c, 2, 57, 0
4, 553452, Note_on_c, 2, 58, 63
4, 553685, Note_on_c, 2, 58, 0
4, 553685, Note_on_c, 2, 62, 77
4, 553802, Note_on_c, 2, 62, 0
4, 553925, Note_on_c, 2, 65, 79
4, 554400, Note_on_c, 2, 65, 0
4, 554880, Note_on_c, 2, 46, 0
4, 554880, Note_on_c, 2, 46, 36
4, 561132, Note_on_c, 2, 46, 0
4, 580800, Note_on_c, 2, 65, 63
4, 580800, Note_on_c, 2, 62, 34
4, 581760, Note_on_c, 2, 62, 0
4, 581760, Note_on_c, 2, 65, 0
4, 581761, Note_on_c, 2, 64, 58
4, 581761, Note_on_c, 2, 60, 37
4, 582721, Note_on_c, 2, 64, 0
4, 582721, Note_on_c, 2, 63, 66
4, 583562, Note_on_c, 2, 63, 0
4, 583562, Note_on_c, 2, 60, 0
4, 583673, Note_on_c, 2, 58, 66
4, 583673, Note_on_c, 2, 62, 66
4, 583912, Note_on_c, 2, 62, 0
4, 583912, Note_on_c, 2, 58, 0
4, 584152, Note_on_c, 2, 51, 62
4, 584152, Note_on_c, 2, 60, 62
4, 584396, Note_on_c, 2, 60, 0
4, 584396, Note_on_c, 2, 51, 0
4, 584636, Note_on_c, 2, 50, 68
4, 584636, Note_on_c, 2, 58, 68
4, 584876, Note_on_c, 2, 58, 0
4, 584876, Note_on_c, 2, 50, 0
4, 585116, Note_on_c, 2, 48, 66
4, 585116, Note_on_c, 2, 57, 66
4, 585356, Note_on_c, 2, 57, 0
4, 585356, Note_on_c, 2, 48, 0
4, 585597, Note_on_c, 2, 46, 58
4, 585597, Note_on_c, 2, 58, 58
4, 586080, Note_on_c, 2, 58, 0
4, 586080, Note_on_c, 2, 46, 0
4, 599269, Note_on_c, 2, 58, 67
4, 599509, Note_on_c, 2, 58, 0
4, 599509, Note_on_c, 2, 62, 89
4, 599756, Note_on_c, 2, 62, 0
4, 599756, Note_on_c, 2, 58, 75
4, 600000, Note_on_c, 2, 58, 0
4, 600000, Note_on_c, 2, 65, 95
4, 600240, Note_on_c, 2, 53, 38
4, 600480, Note_on_c, 2, 53, 0
4, 600480, Note_on_c, 2, 65, 0
4, 600480, Note_on_c, 2, 57, 51
4, 600720, Note_on_c, 2, 57, 0
4, 600720, Note_on_c, 2, 53, 37
4, 600960, Note_on_c, 2, 53, 0
4, 600960, Note_on_c, 2, 58, 44
4, 601200, Note_on_c, 2, 58, 0
4, 601200, Note_on_c, 2, 58, 64
4, 601320, Note_on_c, 2, 60, 77
4, 601440, Note_on_c, 2, 60, 0
4, 601440, Note_on_c, 2, 58, 0
4, 601440, Note_on_c, 2, 62, 81
4, 601682, Note_on_c, 2, 62, 0
4, 601682, Note_on_c, 2, 58, 66
4, 601920, Note_on_c, 2, 58, 0
4, 601920, Note_on_c, 2, 65, 95
4, 602157, Note_on_c, 2, 53, 35
4, 602273, Note_on_c, 2, 53, 0
4, 602273, Note_on_c, 2, 55, 48
4, 602389, Note_on_c, 2, 55, 0
4, 602389, Note_on_c, 2, 65, 0
4, 602389, Note_on_c, 2, 57, 49
4, 602626, Note_on_c, 2, 57, 0
4, 602626, Note_on_c, 2, 53, 37
4, 602880, Note_on_c, 2, 53, 0
4, 602880, Note_on_c, 2, 58, 43
4, 603113, Note_on_c, 2, 58, 0
4, 603113, Note_on_c, 2, 58, 67
4, 603236, Note_on_c, 2, 60, 75
4, 603357, Note_on_c, 2, 60, 0
4, 603357, Note_on_c, 2, 58, 0
4, 603357, Note_on_c, 2, 62, 79
4, 603600, Note_on_c, 2, 62, 0
4, 603600, Note_on_c, 2, 58, 66
4, 603840, Note_on_c, 2, 58, 0
4, 603840, Note_on_c, 2, 65, 91
4, 604073, Note_on_c, 2, 65, 0
4, 604073, Note_on_c, 2, 53, 58
4, 604073, Note_on_c, 2, 41, 38
4, 604193, Note_on_c, 2, 41, 0
4, 604193, Note_on_c, 2, 53, 0
4, 604193, Note_on_c, 2, 55, 73
4, 604193, Note_on_c, 2, 43, 45
4, 604309, Note_on_c, 2, 43, 0
4, 604309, Note_on_c, 2, 55, 0
4, 604309, Note_on_c, 2, 57, 76
4, 604309, Note_on_c, 2, 45, 48
4, 604548, Note_on_c, 2, 45, 0
4, 604548, Note_on_c, 2, 57, 0
4, 604548, Note_on_c, 2, 53, 70
4, 604548, Note_on_c, 2, 41, 32
4, 604800, Note_on_c, 2, 41, 0
4, 604800, Note_on_c, 2, 53, 0
4, 604800, Note_on_c, 2, 46, 82
4, 604800, Note_on_c, 2, 58, 82
4, 605273, Note_on_c, 2, 58, 0
4, 605273, Note_on_c, 2, 46, 0
4, 608642, Note_on_c, 2, 43, 62
4, 608642, Note_on_c, 2, 55, 62
4, 608761, Note_on_c, 2, 55, 0
4, 608761, Note_on_c, 2, 43, 0
4, 608882, Note_on_c, 2, 43, 68
4, 608882, Note_on_c, 2, 55, 68
4, 609001, Note_on_c, 2, 55, 0
4, 609001, Note_on_c, 2, 43, 0
4, 609122, Note_on_c, 2, 43, 74
4, 609122, Note_on_c, 2, 55, 74
4, 609241, Note_on_c, 2, 55, 0
4, 609241, Note_on_c, 2, 43, 0
4, 609361, Note_on_c, 2, 43, 75
4, 609361, Note_on_c, 2, 55, 75
4, 609480, Note_on_c, 2, 55, 0
4, 609480, Note_on_c, 2, 43, 0
4, 609601, Note_on_c, 2, 48, 89
4, 609601, Note_on_c, 2, 60, 89
4, 609720, Note_on_c, 2, 60, 0
4, 609720, Note_on_c, 2, 48, 0
4, 609840, Note_on_c, 2, 48, 77
4, 609840, Note_on_c, 2, 60, 77
4, 609957, Note_on_c, 2, 60, 0
4, 609957, Note_on_c, 2, 48, 0
4, 610080, Note_on_c, 2, 48, 74
4, 610080, Note_on_c, 2, 60, 74
4, 610197, Note_on_c, 2, 60, 0
4, 610197, Note_on_c, 2, 48, 0
4, 610320, Note_on_c, 2, 48, 71
4, 610320, Note_on_c, 2, 60, 71
4, 610437, Note_on_c, 2, 60, 0
4, 610437, Note_on_c, 2, 48, 0
4, 610560, Note_on_c, 2, 42, 61
4, 610560, Note_on_c, 2, 54, 61
4, 610677, Note_on_c, 2, 54, 0
4, 610677, Note_on_c, 2, 42, 0
4, 610800, Note_on_c, 2, 42, 64
4, 610800, Note_on_c, 2, 54, 64
4, 610917, Note_on_c, 2, 54, 0
4, 610917, Note_on_c, 2, 42, 0
4, 611040, Note_on_c, 2, 42, 74
4, 611040, Note_on_c, 2, 54, 74
4, 611157, Note_on_c, 2, 54, 0
4, 611157, Note_on_c, 2, 42, 0
4, 611280, Note_on_c, 2, 42, 76
4, 611280, Note_on_c, 2, 54, 76
4, 611397, Note_on_c, 2, 54, 0
4, 611397, Note_on_c, 2, 42, 0
4, 611520, Note_on_c, 2, 43, 70
4, 611520, Note_on_c, 2, 55, 70
4, 611637, Note_on_c, 2, 55, 0
4, 611637, Note_on_c, 2, 43, 0
4, 611760, Note_on_c, 2, 43, 77
4, 611760, Note_on_c, 2, 55, 77
4, 611877, Note_on_c, 2, 55, 0
4, 611877, Note_on_c, 2, 43, 0
4, 612000, Note_on_c, 2, 43, 77
4, 612000, Note_on_c, 2, 55, 77
4, 612117, Note_on_c, 2, 55, 0
4, 612117, Note_on_c, 2, 43, 0
4, 612240, Note_on_c, 2, 43, 66
4, 612240, Note_on_c, 2, 55, 66
4, 612357, Note_on_c, 2, 55, 0
4, 612357, Note_on_c, 2, 43, 0
4, 618236, Note_on_c, 2, 58, 60
4, 626393, Note_on_c, 2, 58, 0
4, 635520, Note_on_c, 2, 62, 62
4, 635637, Note_on_c, 2, 62, 0
4, 635760, Note_on_c, 2, 62, 76
4, 635817, Note_on_c, 2, 62, 0
4, 635880, Note_on_c, 2, 62, 72
4, 635937, Note_on_c, 2, 62, 0
4, 636000, Note_on_c, 2, 62, 71
4, 636117, Note_on_c, 2, 62, 0
4, 636240, Note_on_c, 2, 62, 69
4, 636357, Note_on_c, 2, 62, 0
4, 636480, Note_on_c, 2, 62, 73
4, 636720, Note_on_c, 2, 62, 0
4, 636720, Note_on_c, 2, 65, 77
4, 636960, Note_on_c, 2, 65, 0
4, 636960, Note_on_c, 2, 58, 64
4, 637200, Note_on_c, 2, 58, 0
4, 637200, Note_on_c, 2, 62, 82
4, 637440, Note_on_c, 2, 62, 0
4, 637440, Note_on_c, 2, 65, 86
4, 637440, Note_on_c, 2, 53, 51
4, 637557, Note_on_c, 2, 65, 0
4, 637680, Note_on_c, 2, 53, 0
4, 637680, Note_on_c, 2, 65, 80
4, 637680, Note_on_c, 2, 53, 44
4, 637737, Note_on_c, 2, 65, 0
4, 637800, Note_on_c, 2, 53, 0
4, 637800, Note_on_c, 2, 65, 71
4, 637800, Note_on_c, 2, 53, 45
4, 637857, Note_on_c, 2, 65, 0
4, 637920, Note_on_c, 2, 53, 0
4, 637920, Note_on_c, 2, 65, 76
4, 637920, Note_on_c, 2, 53, 47
4, 638037, Note_on_c, 2, 65, 0
4, 638160, Note_on_c, 2, 53, 0
4, 638160, Note_on_c, 2, 65, 67
4, 638160, Note_on_c, 2, 53, 45
4, 638277, Note_on_c, 2, 65, 0
4, 638401, Note_on_c, 2, 53, 0
4, 638401, Note_on_c, 2, 65, 61
4, 638401, Note_on_c, 2, 53, 43
4, 638642, Note_on_c, 2, 53, 0
4, 638642, Note_on_c, 2, 65, 0
4, 638642, Note_on_c, 2, 58, 43
4, 638882, Note_on_c, 2, 58, 0
4, 638882, Note_on_c, 2, 62, 59
4, 638882, Note_on_c, 2, 50, 42
4, 639122, Note_on_c, 2, 50, 0
4, 639122, Note_on_c, 2, 62, 0
4, 639122, Note_on_c, 2, 53, 44
4, 639360, Note_on_c, 2, 53, 0
4, 639365, Note_on_c, 2, 46, 65
4, 639365, Note_on_c, 2, 58, 65
4, 639482, Note_on_c, 2, 58, 0
4, 639482, Note_on_c, 2, 46, 0
4, 639605, Note_on_c, 2, 50, 84
4, 639605, Note_on_c, 2, 62, 84
4, 639722, Note_on_c, 2, 62, 0
4, 639722, Note_on_c, 2, 50, 0
4, 639845, Note_on_c, 2, 41, 60
4, 639845, Note_on_c, 2, 53, 60
4, 639962, Note_on_c, 2, 53, 0
4, 639962, Note_on_c, 2, 41, 0
4, 640085, Note_on_c, 2, 46, 78
4, 640085, Note_on_c, 2, 58, 78
4, 640202, Note_on_c, 2, 58, 0
4, 640202, Note_on_c, 2, 46, 0
4, 640321, Note_on_c, 2, 38, 61
4, 640321, Note_on_c, 2, 50, 61
4, 640440, Note_on_c, 2, 50, 0
4, 640440, Note_on_c, 2, 38, 0
4, 640560, Note_on_c, 2, 41, 69
4, 640560, Note_on_c, 2, 53, 69
4, 640677, Note_on_c, 2, 53, 0
4, 640677, Note_on_c, 2, 41, 0
4, 640792, Note_on_c, 2, 34, 66
4, 640792, Note_on_c, 2, 46, 66
4, 640909, Note_on_c, 2, 46, 0
4, 640909, Note_on_c, 2, 34, 0
4, 641026, Note_on_c, 2, 38, 78
4, 641026, Note_on_c, 2, 50, 78
4, 641144, Note_on_c, 2, 50, 0
4, 641144, Note_on_c, 2, 38, 0
4, 641273, Note_on_c, 2, 41, 79
4, 641273, Note_on_c, 2, 53, 79
4, 641756, Note_on_c, 2, 53, 0
4, 641756, Note_on_c, 2, 41, 0
4, 645120, Note_on_c, 2, 62, 75
4, 645600, Note_on_c, 2, 62, 0
4, 645600, Note_on_c, 2, 53, 64
4, 646080, Note_on_c, 2, 53, 0
4, 646080, Note_on_c, 2, 58, 89
4, 646560, Note_on_c, 2, 58, 0
4, 646560, Note_on_c, 2, 62, 101
4, 647040, Note_on_c, 2, 62, 0
4, 647040, Note_on_c, 2, 63, 87
4, 648480, Note_on_c, 2, 63, 0
4, 648480, Note_on_c, 2, 62, 83
4, 648840, Note_on_c, 2, 62, 0
4, 648840, Note_on_c, 2, 58, 74
4, 648960, Note_on_c, 2, 58, 0
4, 648960, Note_on_c, 2, 60, 93
4, 649440, Note_on_c, 2, 60, 0
4, 649440, Note_on_c, 2, 53, 79
4, 649920, Note_on_c, 2, 53, 0
4, 649920, Note_on_c, 2, 57, 89
4, 650400, Note_on_c, 2, 57, 0
4, 650400, Note_on_c, 2, 60, 97
4, 650880, Note_on_c, 2, 60, 0
4, 650880, Note_on_c, 2, 65, 103
4, 652320, Note_on_c, 2, 65, 0
4, 652320, Note_on_c, 2, 63, 79
4, 652680, Note_on_c, 2, 63, 0
4, 652680, Note_on_c, 2, 60, 66
4, 652800, Note_on_c, 2, 60, 0
4, 652800, Note_on_c, 2, 58, 73
4, 653280, Note_on_c, 2, 58, 0
4, 653280, Note_on_c, 2, 53, 75
4, 653760, Note_on_c, 2, 53, 0
4, 653760, Note_on_c, 2, 58, 90
4, 654240, Note_on_c, 2, 58, 0
4, 654240, Note_on_c, 2, 62, 101
4, 654720, Note_on_c, 2, 62, 0
4, 654720, Note_on_c, 2, 63, 95
4, 656160, Note_on_c, 2, 63, 0
4, 656160, Note_on_c, 2, 62, 85
4, 656640, Note_on_c, 2, 62, 0
4, 656640, Note_on_c, 2, 57, 66
4, 658080, Note_on_c, 2, 57, 0
4, 658080, Note_on_c, 2, 60, 93
4, 658560, Note_on_c, 2, 60, 0
4, 658560, Note_on_c, 2, 58, 82
4, 659040, Note_on_c, 2, 58, 0
4, 660480, Note_on_c, 2, 65, 74
4, 660597, Note_on_c, 2, 65, 0
4, 660720, Note_on_c, 2, 58, 66
4, 660837, Note_on_c, 2, 58, 0
4, 660960, Note_on_c, 2, 58, 82
4, 661440, Note_on_c, 2, 58, 0
4, 661440, Note_on_c, 2, 62, 103
4, 661557, Note_on_c, 2, 62, 0
4, 661668, Note_on_c, 2, 53, 68
4, 661786, Note_on_c, 2, 53, 0
4, 661894, Note_on_c, 2, 53, 77
4, 662400, Note_on_c, 2, 53, 0
4, 662400, Note_on_c, 2, 58, 93
4, 662506, Note_on_c, 2, 58, 0
4, 662628, Note_on_c, 2, 50, 69
4, 662746, Note_on_c, 2, 50, 0
4, 662872, Note_on_c, 2, 50, 84
4, 663600, Note_on_c, 2, 50, 0
4, 663600, Note_on_c, 2, 52, 83
4, 663720, Note_on_c, 2, 52, 0
4, 663720, Note_on_c, 2, 53, 90
4, 663840, Note_on_c, 2, 53, 0
4, 663840, Note_on_c, 2, 55, 87
4, 664080, Note_on_c, 2, 55, 0
4, 664080, Note_on_c, 2, 52, 77
4, 664320, Note_on_c, 2, 52, 0
4, 664320, Note_on_c, 2, 53, 86
4, 664800, Note_on_c, 2, 53, 0
4, 664800, Note_on_c, 2, 55, 89
4, 665280, Note_on_c, 2, 55, 0
4, 665280, Note_on_c, 2, 53, 87
4, 665761, Note_on_c, 2, 53, 0
4, 665761, Note_on_c, 2, 52, 81
4, 666240, Note_on_c, 2, 52, 0
4, 744957, Note_on_c, 2, 58, 77
4, 745196, Note_on_c, 2, 58, 0
4, 745196, Note_on_c, 2, 58, 86
4, 745436, Note_on_c, 2, 58, 0
4, 745436, Note_on_c, 2, 58, 78
4, 745677, Note_on_c, 2, 58, 0
4, 745677, Note_on_c, 2, 62, 99
4, 745917, Note_on_c, 2, 62, 0
4, 745917, Note_on_c, 2, 53, 68
4, 746157, Note_on_c, 2, 53, 0
4, 746157, Note_on_c, 2, 53, 81
4, 746400, Note_on_c, 2, 53, 0
4, 746400, Note_on_c, 2, 53, 86
4, 746640, Note_on_c, 2, 53, 0
4, 746640, Note_on_c, 2, 55, 89
4, 746760, Note_on_c, 2, 55, 0
4, 746760, Note_on_c, 2, 57, 92
4, 746880, Note_on_c, 2, 57, 0
4, 746880, Note_on_c, 2, 58, 96
4, 747117, Note_on_c, 2, 58, 0
4, 747117, Note_on_c, 2, 46, 61
4, 747357, Note_on_c, 2, 46, 0
4, 747357, Note_on_c, 2, 46, 79
4, 747477, Note_on_c, 2, 46, 0
4, 747477, Note_on_c, 2, 48, 86
4, 747600, Note_on_c, 2, 48, 0
4, 747600, Note_on_c, 2, 50, 92
4, 747720, Note_on_c, 2, 50, 0
4, 747720, Note_on_c, 2, 51, 88
4, 747840, Note_on_c, 2, 51, 0
4, 747840, Note_on_c, 2, 53, 88
4, 748082, Note_on_c, 2, 53, 0
4, 748082, Note_on_c, 2, 53, 90
4, 748329, Note_on_c, 2, 53, 0
4, 748329, Note_on_c, 2, 53, 85
4, 748572, Note_on_c, 2, 53, 0
4, 748572, Note_on_c, 2, 55, 95
4, 748696, Note_on_c, 2, 55, 0
4, 748696, Note_on_c, 2, 57, 95
4, 748800, Note_on_c, 2, 57, 0
4, 748810, Note_on_c, 2, 58, 90
4, 749049, Note_on_c, 2, 58, 0
4, 749049, Note_on_c, 2, 58, 86
4, 749285, Note_on_c, 2, 58, 0
4, 749285, Note_on_c, 2, 58, 84
4, 749526, Note_on_c, 2, 58, 0
4, 749526, Note_on_c, 2, 57, 78
4, 749646, Note_on_c, 2, 57, 0
4, 749646, Note_on_c, 2, 55, 77
4, 749769, Note_on_c, 2, 55, 0
4, 749769, Note_on_c, 2, 53, 70
4, 750241, Note_on_c, 2, 53, 0
4, 751676, Note_on_c, 2, 65, 49
4, 751676, Note_on_c, 2, 62, 36
4, 752640, Note_on_c, 2, 62, 0
4, 752640, Note_on_c, 2, 65, 0
4, 752640, Note_on_c, 2, 64, 53
4, 752640, Note_on_c, 2, 60, 33
4, 753601, Note_on_c, 2, 64, 0
4, 753601, Note_on_c, 2, 63, 60
4, 754560, Note_on_c, 2, 63, 0
4, 754560, Note_on_c, 2, 60, 0
4, 754561, Note_on_c, 2, 58, 51
4, 754561, Note_on_c, 2, 62, 51
4, 755041, Note_on_c, 2, 62, 0
4, 755041, Note_on_c, 2, 58, 0
4, 755041, Note_on_c, 2, 60, 57
4, 755041, Note_on_c, 2, 63, 57
4, 755520, Note_on_c, 2, 63, 0
4, 755520, Note_on_c, 2, 60, 0
4, 755520, Note_on_c, 2, 58, 52
4, 755520, Note_on_c, 2, 62, 52
4, 756000, Note_on_c, 2, 62, 0
4, 756000, Note_on_c, 2, 58, 0
4, 756000, Note_on_c, 2, 57, 53
4, 756000, Note_on_c, 2, 60, 53
4, 756480, Note_on_c, 2, 60, 0
4, 756480, Note_on_c, 2, 57, 0
4, 764160, Note_on_c, 2, 62, 70
4, 764277, Note_on_c, 2, 62, 0
4, 764400, Note_on_c, 2, 62, 71
4, 764457, Note_on_c, 2, 62, 0
4, 764520, Note_on_c, 2, 62, 63
4, 764577, Note_on_c, 2, 62, 0
4, 764640, Note_on_c, 2, 62, 71
4, 764757, Note_on_c, 2, 62, 0
4, 764880, Note_on_c, 2, 62, 70
4, 764997, Note_on_c, 2, 62, 0
4, 765120, Note_on_c, 2, 62, 62
4, 765360, Note_on_c, 2, 62, 0
4, 765360, Note_on_c, 2, 65, 83
4, 765600, Note_on_c, 2, 65, 0
4, 765600, Note_on_c, 2, 58, 67
4, 765840, Note_on_c, 2, 58, 0
4, 765840, Note_on_c, 2, 62, 79
4, 766080, Note_on_c, 2, 62, 0
4, 766080, Note_on_c, 2, 53, 65
4, 766197, Note_on_c, 2, 53, 0
4, 766320, Note_on_c, 2, 53, 64
4, 766377, Note_on_c, 2, 53, 0
4, 766440, Note_on_c, 2, 53, 68
4, 766497, Note_on_c, 2, 53, 0
4, 766560, Note_on_c, 2, 53, 67
4, 766677, Note_on_c, 2, 53, 0
4, 766800, Note_on_c, 2, 53, 72
4, 766917, Note_on_c, 2, 53, 0
4, 767040, Note_on_c, 2, 53, 67
4, 767157, Note_on_c, 2, 53, 0
4, 767280, Note_on_c, 2, 53, 72
4, 767397, Note_on_c, 2, 53, 0
4, 767520, Note_on_c, 2, 53, 68
4, 767637, Note_on_c, 2, 53, 0
4, 767760, Note_on_c, 2, 53, 67
4, 767877, Note_on_c, 2, 53, 0
4, 767969, Note_on_c, 2, 46, 68
4, 768466, Note_on_c, 2, 46, 0
4, 769210, Note_on_c, 2, 51, 68
4, 769450, Note_on_c, 2, 51, 0
4, 769450, Note_on_c, 2, 50, 78
4, 769690, Note_on_c, 2, 50, 0
4, 769690, Note_on_c, 2, 48, 76
4, 769920, Note_on_c, 2, 48, 0
4, 769929, Note_on_c, 2, 46, 80
4, 770402, Note_on_c, 2, 46, 0
4, 771122, Note_on_c, 2, 51, 69
4, 771362, Note_on_c, 2, 51, 0
4, 771362, Note_on_c, 2, 50, 74
4, 771601, Note_on_c, 2, 50, 0
4, 771601, Note_on_c, 2, 48, 73
4, 771840, Note_on_c, 2, 48, 0
4, 771841, Note_on_c, 2, 46, 79
4, 772080, Note_on_c, 2, 46, 0
4, 772800, Note_on_c, 2, 46, 78
4, 773037, Note_on_c, 2, 46, 0
4, 773280, Note_on_c, 2, 46, 83
4, 773517, Note_on_c, 2, 46, 0
4, 773760, Note_on_c, 2, 46, 101
4, 774602, Note_on_c, 2, 46, 0
4, 774602, End_track
5, 0, Start_track
5, 0, Title_t, "Horns"
5, 0, Program_c, 3, 60
5, 0, Control_c, 3, 7, 50
5, 0, Control_c, 3, 10, 46
5, 0, Control_c, 3, 121, 0
5, 0, Control_c, 3, 91, 78
5, 15365, Note_on_c, 3, 58, 58
5, 15365, Note_on_c, 3, 65, 58
5, 15842, Note_on_c, 3, 65, 0
5, 15842, Note_on_c, 3, 58, 0
5, 15842, Note_on_c, 3, 58, 53
5, 15842, Note_on_c, 3, 65, 53
5, 16202, Note_on_c, 3, 65, 0
5, 16202, Note_on_c, 3, 58, 0
5, 16202, Note_on_c, 3, 58, 59
5, 16202, Note_on_c, 3, 65, 59
5, 16321, Note_on_c, 3, 65, 0
5, 16321, Note_on_c, 3, 58, 0
5, 16321, Note_on_c, 3, 58, 59
5, 16321, Note_on_c, 3, 65, 59
5, 16800, Note_on_c, 3, 65, 0
5, 16800, Note_on_c, 3, 58, 0
5, 16800, Note_on_c, 3, 58, 68
5, 16800, Note_on_c, 3, 65, 68
5, 17280, Note_on_c, 3, 65, 0
5, 17280, Note_on_c, 3, 58, 0
5, 17280, Note_on_c, 3, 53, 62
5, 17280, Note_on_c, 3, 65, 62
5, 17760, Note_on_c, 3, 65, 0
5, 17760, Note_on_c, 3, 53, 0
5, 17760, Note_on_c, 3, 58, 61
5, 17760, Note_on_c, 3, 65, 61
5, 18240, Note_on_c, 3, 65, 0
5, 18240, Note_on_c, 3, 58, 0
5, 19200, Note_on_c, 3, 65, 59
5, 19200, Note_on_c, 3, 53, 65
5, 19680, Note_on_c, 3, 65, 0
5, 19680, Note_on_c, 3, 65, 64
5, 20040, Note_on_c, 3, 65, 0
5, 20040, Note_on_c, 3, 65, 58
5, 20160, Note_on_c, 3, 65, 0
5, 20160, Note_on_c, 3, 53, 0
5, 20160, Note_on_c, 3, 65, 65
5, 20640, Note_on_c, 3, 65, 0
5, 20640, Note_on_c, 3, 65, 61
5, 20640, Note_on_c, 3, 53, 71
5, 21120, Note_on_c, 3, 53, 0
5, 21120, Note_on_c, 3, 65, 0
5, 21120, Note_on_c, 3, 53, 64
5, 21120, Note_on_c, 3, 65, 64
5, 21600, Note_on_c, 3, 65, 0
5, 21600, Note_on_c, 3, 53, 0
5, 21600, Note_on_c, 3, 53, 53
5, 21600, Note_on_c, 3, 65, 53
5, 22080, Note_on_c, 3, 65, 0
5, 22080, Note_on_c, 3, 53, 0
5, 32640, Note_on_c, 3, 58, 74
5, 32640, Note_on_c, 3, 70, 74
5, 33120, Note_on_c, 3, 70, 0
5, 33120, Note_on_c, 3, 58, 0
5, 33120, Note_on_c, 3, 53, 55
5, 33120, Note_on_c, 3, 65, 55
5, 33480, Note_on_c, 3, 65, 0
5, 33480, Note_on_c, 3, 53, 0
5, 33480, Note_on_c, 3, 53, 79
5, 33480, Note_on_c, 3, 65, 79
5, 33600, Note_on_c, 3, 65, 0
5, 33600, Note_on_c, 3, 53, 0
5, 33600, Note_on_c, 3, 53, 81
5, 33600, Note_on_c, 3, 65, 81
5, 34080, Note_on_c, 3, 65, 0
5, 34080, Note_on_c, 3, 53, 0
5, 34080, Note_on_c, 3, 53, 74
5, 34080, Note_on_c, 3, 65, 74
5, 34560, Note_on_c, 3, 65, 0
5, 34560, Note_on_c, 3, 53, 0
5, 34560, Note_on_c, 3, 53, 81
5, 34560, Note_on_c, 3, 65, 81
5, 38400, Note_on_c, 3, 65, 0
5, 38400, Note_on_c, 3, 53, 0
5, 38400, Note_on_c, 3, 58, 109
5, 38400, Note_on_c, 3, 70, 109
5, 38880, Note_on_c, 3, 70, 0
5, 38880, Note_on_c, 3, 58, 0
5, 38880, Note_on_c, 3, 53, 69
5, 38880, Note_on_c, 3, 65, 69
5, 39240, Note_on_c, 3, 65, 0
5, 39240, Note_on_c, 3, 53, 0
5, 39240, Note_on_c, 3, 53, 77
5, 39240, Note_on_c, 3, 65, 77
5, 39360, Note_on_c, 3, 65, 0
5, 39360, Note_on_c, 3, 53, 0
5, 39360, Note_on_c, 3, 53, 79
5, 39360, Note_on_c, 3, 65, 79
5, 39840, Note_on_c, 3, 65, 0
5, 39840, Note_on_c, 3, 53, 0
5, 39840, Note_on_c, 3, 53, 94
5, 39840, Note_on_c, 3, 65, 94
5, 40320, Note_on_c, 3, 65, 0
5, 40320, Note_on_c, 3, 53, 0
5, 40320, Note_on_c, 3, 53, 79
5, 40320, Note_on_c, 3, 65, 79
5, 44160, Note_on_c, 3, 65, 0
5, 44160, Note_on_c, 3, 53, 0
5, 44160, Note_on_c, 3, 58, 85
5, 44160, Note_on_c, 3, 65, 85
5, 44640, Note_on_c, 3, 65, 0
5, 44640, Note_on_c, 3, 58, 0
5, 47040, Note_on_c, 3, 74, 75
5, 47157, Note_on_c, 3, 74, 0
5, 47268, Note_on_c, 3, 65, 60
5, 47386, Note_on_c, 3, 65, 0
5, 47494, Note_on_c, 3, 65, 73
5, 48000, Note_on_c, 3, 65, 0
5, 48000, Note_on_c, 3, 70, 103
5, 48106, Note_on_c, 3, 70, 0
5, 48228, Note_on_c, 3, 62, 58
5, 48346, Note_on_c, 3, 62, 0
5, 48472, Note_on_c, 3, 62, 83
5, 48716, Note_on_c, 3, 62, 0
5, 48716, Note_on_c, 3, 62, 86
5, 48960, Note_on_c, 3, 62, 0
5, 48960, Note_on_c, 3, 62, 90
5, 49440, Note_on_c, 3, 62, 0
5, 49920, Note_on_c, 3, 65, 67
5, 50157, Note_on_c, 3, 65, 0
5, 50400, Note_on_c, 3, 65, 87
5, 50637, Note_on_c, 3, 65, 0
5, 72960, Note_on_c, 3, 53, 64
5, 72960, Note_on_c, 3, 65, 64
5, 88338, Note_on_c, 3, 58, 73
5, 88812, Note_on_c, 3, 58, 0
5, 88812, Note_on_c, 3, 65, 0
5, 88812, Note_on_c, 3, 53, 0
5, 89286, Note_on_c, 3, 65, 69
5, 89522, Note_on_c, 3, 65, 0
5, 89522, Note_on_c, 3, 65, 73
5, 89761, Note_on_c, 3, 65, 0
5, 89761, Note_on_c, 3, 65, 65
5, 90000, Note_on_c, 3, 65, 0
5, 90000, Note_on_c, 3, 65, 79
5, 90240, Note_on_c, 3, 65, 0
5, 90240, Note_on_c, 3, 62, 85
5, 90240, Note_on_c, 3, 70, 85
5, 90720, Note_on_c, 3, 70, 0
5, 90720, Note_on_c, 3, 62, 0
5, 91200, Note_on_c, 3, 65, 63
5, 91440, Note_on_c, 3, 65, 0
5, 91440, Note_on_c, 3, 65, 67
5, 91680, Note_on_c, 3, 65, 0
5, 91680, Note_on_c, 3, 65, 73
5, 91920, Note_on_c, 3, 65, 0
5, 91920, Note_on_c, 3, 65, 73
5, 92160, Note_on_c, 3, 65, 0
5, 92160, Note_on_c, 3, 62, 88
5, 92160, Note_on_c, 3, 70, 88
5, 92640, Note_on_c, 3, 70, 0
5, 92640, Note_on_c, 3, 62, 0
5, 93113, Note_on_c, 3, 65, 65
5, 93352, Note_on_c, 3, 65, 0
5, 93352, Note_on_c, 3, 65, 70
5, 93596, Note_on_c, 3, 65, 0
5, 93596, Note_on_c, 3, 65, 77
5, 93840, Note_on_c, 3, 65, 0
5, 93840, Note_on_c, 3, 65, 74
5, 94080, Note_on_c, 3, 65, 0
5, 94081, Note_on_c, 3, 62, 86
5, 94081, Note_on_c, 3, 70, 86
5, 94561, Note_on_c, 3, 70, 0
5, 94561, Note_on_c, 3, 62, 0
5, 95036, Note_on_c, 3, 65, 63
5, 95273, Note_on_c, 3, 65, 0
5, 95273, Note_on_c, 3, 65, 74
5, 95516, Note_on_c, 3, 65, 0
5, 95516, Note_on_c, 3, 65, 71
5, 95760, Note_on_c, 3, 65, 0
5, 95760, Note_on_c, 3, 65, 70
5, 96000, Note_on_c, 3, 65, 0
5, 96002, Note_on_c, 3, 58, 105
5, 96002, Note_on_c, 3, 70, 105
5, 96242, Note_on_c, 3, 70, 0
5, 96242, Note_on_c, 3, 58, 0
5, 96242, Note_on_c, 3, 58, 88
5, 96242, Note_on_c, 3, 70, 88
5, 96482, Note_on_c, 3, 70, 0
5, 96482, Note_on_c, 3, 58, 0
5, 96482, Note_on_c, 3, 58, 85
5, 96482, Note_on_c, 3, 70, 85
5, 96720, Note_on_c, 3, 70, 0
5, 96720, Note_on_c, 3, 58, 0
5, 96720, Note_on_c, 3, 62, 103
5, 96720, Note_on_c, 3, 74, 103
5, 96960, Note_on_c, 3, 74, 0
5, 96960, Note_on_c, 3, 62, 0
5, 96960, Note_on_c, 3, 53, 63
5, 96960, Note_on_c, 3, 65, 63
5, 97200, Note_on_c, 3, 65, 0
5, 97200, Note_on_c, 3, 53, 0
5, 97200, Note_on_c, 3, 53, 74
5, 97200, Note_on_c, 3, 65, 74
5, 97440, Note_on_c, 3, 65, 0
5, 97440, Note_on_c, 3, 53, 0
5, 97440, Note_on_c, 3, 53, 84
5, 97440, Note_on_c, 3, 65, 84
5, 97920, Note_on_c, 3, 65, 0
5, 97920, Note_on_c, 3, 53, 0
5, 97920, Note_on_c, 3, 58, 110
5, 97920, Note_on_c, 3, 70, 110
5, 98157, Note_on_c, 3, 70, 0
5, 98157, Note_on_c, 3, 58, 0
5, 98157, Note_on_c, 3, 58, 81
5, 98157, Note_on_c, 3, 70, 81
5, 98397, Note_on_c, 3, 70, 0
5, 98397, Note_on_c, 3, 58, 0
5, 98397, Note_on_c, 3, 58, 91
5, 98397, Note_on_c, 3, 70, 91
5, 98880, Note_on_c, 3, 70, 0
5, 98880, Note_on_c, 3, 58, 0
5, 98880, Note_on_c, 3, 65, 114
5, 98880, Note_on_c, 3, 77, 114
5, 99122, Note_on_c, 3, 77, 0
5, 99122, Note_on_c, 3, 65, 0
5, 99122, Note_on_c, 3, 65, 93
5, 99122, Note_on_c, 3, 77, 93
5, 99369, Note_on_c, 3, 77, 0
5, 99369, Note_on_c, 3, 65, 0
5, 99369, Note_on_c, 3, 65, 79
5, 99369, Note_on_c, 3, 77, 79
5, 99840, Note_on_c, 3, 77, 0
5, 99840, Note_on_c, 3, 65, 0
5, 99850, Note_on_c, 3, 62, 62
5, 99850, Note_on_c, 3, 74, 62
5, 100089, Note_on_c, 3, 74, 0
5, 100089, Note_on_c, 3, 62, 0
5, 100089, Note_on_c, 3, 58, 60
5, 100089, Note_on_c, 3, 70, 60
5, 100326, Note_on_c, 3, 70, 0
5, 100326, Note_on_c, 3, 58, 0
5, 100326, Note_on_c, 3, 62, 97
5, 100326, Note_on_c, 3, 74, 97
5, 100569, Note_on_c, 3, 74, 0
5, 100569, Note_on_c, 3, 62, 0
5, 100569, Note_on_c, 3, 58, 64
5, 100569, Note_on_c, 3, 70, 64
5, 100809, Note_on_c, 3, 70, 0
5, 100809, Note_on_c, 3, 58, 0
5, 100809, Note_on_c, 3, 55, 49
5, 100809, Note_on_c, 3, 67, 53
5, 101280, Note_on_c, 3, 67, 0
5, 101280, Note_on_c, 3, 55, 0
5, 112321, Note_on_c, 3, 65, 63
5, 113280, Note_on_c, 3, 65, 0
5, 113281, Note_on_c, 3, 58, 99
5, 113281, Note_on_c, 3, 70, 99
5, 113761, Note_on_c, 3, 70, 0
5, 113761, Note_on_c, 3, 58, 0
5, 114240, Note_on_c, 3, 70, 75
5, 114240, Note_on_c, 3, 74, 75
5, 114720, Note_on_c, 3, 74, 0
5, 114720, Note_on_c, 3, 70, 0
5, 114720, Note_on_c, 3, 65, 67
5, 114720, Note_on_c, 3, 72, 67
5, 115200, Note_on_c, 3, 72, 0
5, 115200, Note_on_c, 3, 65, 0
5, 115200, Note_on_c, 3, 62, 55
5, 115200, Note_on_c, 3, 70, 55
5, 117120, Note_on_c, 3, 70, 0
5, 117120, Note_on_c, 3, 62, 0
5, 117120, Note_on_c, 3, 58, 62
5, 117120, Note_on_c, 3, 74, 62
5, 119040, Note_on_c, 3, 74, 0
5, 119040, Note_on_c, 3, 58, 0
5, 119040, Note_on_c, 3, 53, 70
5, 119040, Note_on_c, 3, 77, 70
5, 120960, Note_on_c, 3, 77, 0
5, 120960, Note_on_c, 3, 53, 0
5, 124800, Note_on_c, 3, 65, 75
5, 124917, Note_on_c, 3, 65, 0
5, 125040, Note_on_c, 3, 65, 73
5, 125097, Note_on_c, 3, 65, 0
5, 125160, Note_on_c, 3, 65, 77
5, 125217, Note_on_c, 3, 65, 0
5, 125280, Note_on_c, 3, 65, 73
5, 125397, Note_on_c, 3, 65, 0
5, 125520, Note_on_c, 3, 65, 72
5, 125637, Note_on_c, 3, 65, 0
5, 125760, Note_on_c, 3, 65, 74
5, 125877, Note_on_c, 3, 65, 0
5, 126000, Note_on_c, 3, 65, 77
5, 126117, Note_on_c, 3, 65, 0
5, 126240, Note_on_c, 3, 65, 75
5, 126357, Note_on_c, 3, 65, 0
5, 126480, Note_on_c, 3, 65, 76
5, 126597, Note_on_c, 3, 65, 0
5, 126689, Note_on_c, 3, 58, 101
5, 126689, Note_on_c, 3, 70, 101
5, 127186, Note_on_c, 3, 70, 0
5, 127186, Note_on_c, 3, 58, 0
5, 127930, Note_on_c, 3, 58, 81
5, 127930, Note_on_c, 3, 70, 81
5, 128170, Note_on_c, 3, 70, 0
5, 128170, Note_on_c, 3, 58, 0
5, 128170, Note_on_c, 3, 58, 82
5, 128170, Note_on_c, 3, 70, 82
5, 128410, Note_on_c, 3, 70, 0
5, 128410, Note_on_c, 3, 58, 0
5, 128410, Note_on_c, 3, 58, 81
5, 128410, Note_on_c, 3, 70, 81
5, 128640, Note_on_c, 3, 70, 0
5, 128640, Note_on_c, 3, 58, 0
5, 128649, Note_on_c, 3, 58, 79
5, 128649, Note_on_c, 3, 70, 79
5, 129122, Note_on_c, 3, 70, 0
5, 129122, Note_on_c, 3, 58, 0
5, 129122, Note_on_c, 3, 58, 87
5, 129122, Note_on_c, 3, 70, 87
5, 129482, Note_on_c, 3, 70, 0
5, 129482, Note_on_c, 3, 58, 0
5, 129482, Note_on_c, 3, 58, 81
5, 129482, Note_on_c, 3, 70, 81
5, 129605, Note_on_c, 3, 70, 0
5, 129605, Note_on_c, 3, 58, 0
5, 129605, Note_on_c, 3, 58, 87
5, 129605, Note_on_c, 3, 70, 87
5, 129842, Note_on_c, 3, 70, 0
5, 129842, Note_on_c, 3, 58, 0
5, 129842, Note_on_c, 3, 58, 82
5, 129842, Note_on_c, 3, 70, 82
5, 130082, Note_on_c, 3, 70, 0
5, 130082, Note_on_c, 3, 58, 0
5, 130082, Note_on_c, 3, 58, 88
5, 130082, Note_on_c, 3, 70, 88
5, 130321, Note_on_c, 3, 70, 0
5, 130321, Note_on_c, 3, 58, 0
5, 130321, Note_on_c, 3, 58, 88
5, 130321, Note_on_c, 3, 70, 88
5, 130560, Note_on_c, 3, 70, 0
5, 130560, Note_on_c, 3, 58, 0
5, 130561, Note_on_c, 3, 58, 88
5, 130561, Note_on_c, 3, 70, 88
5, 130800, Note_on_c, 3, 70, 0
5, 130800, Note_on_c, 3, 58, 0
5, 131040, Note_on_c, 3, 62, 64
5, 131040, Note_on_c, 3, 65, 64
5, 131277, Note_on_c, 3, 65, 0
5, 131277, Note_on_c, 3, 62, 0
5, 131520, Note_on_c, 3, 58, 83
5, 131520, Note_on_c, 3, 62, 83
5, 131941, Note_on_c, 3, 62, 0
5, 131941, Note_on_c, 3, 58, 0
5, 165120, Note_on_c, 3, 58, 83
5, 165120, Note_on_c, 3, 70, 83
5, 165600, Note_on_c, 3, 70, 0
5, 165600, Note_on_c, 3, 58, 0
5, 165600, Note_on_c, 3, 53, 58
5, 165600, Note_on_c, 3, 65, 58
5, 165960, Note_on_c, 3, 65, 0
5, 165960, Note_on_c, 3, 53, 0
5, 165960, Note_on_c, 3, 53, 73
5, 165960, Note_on_c, 3, 65, 73
5, 166080, Note_on_c, 3, 65, 0
5, 166080, Note_on_c, 3, 53, 0
5, 166080, Note_on_c, 3, 53, 84
5, 166080, Note_on_c, 3, 65, 84
5, 166560, Note_on_c, 3, 65, 0
5, 166560, Note_on_c, 3, 53, 0
5, 166560, Note_on_c, 3, 53, 91
5, 166560, Note_on_c, 3, 65, 91
5, 167040, Note_on_c, 3, 65, 0
5, 167040, Note_on_c, 3, 53, 0
5, 167040, Note_on_c, 3, 53, 78
5, 167040, Note_on_c, 3, 65, 78
5, 171349, Note_on_c, 3, 65, 0
5, 171349, Note_on_c, 3, 53, 0
5, 171349, Note_on_c, 3, 65, 84
5, 171720, Note_on_c, 3, 65, 0
5, 171720, Note_on_c, 3, 65, 84
5, 171840, Note_on_c, 3, 65, 0
5, 171840, Note_on_c, 3, 65, 83
5, 172326, Note_on_c, 3, 65, 0
5, 172326, Note_on_c, 3, 65, 83
5, 172800, Note_on_c, 3, 65, 0
5, 172814, Note_on_c, 3, 65, 84
5, 176640, Note_on_c, 3, 65, 0
5, 176645, Note_on_c, 3, 58, 82
5, 176645, Note_on_c, 3, 65, 82
5, 177125, Note_on_c, 3, 65, 0
5, 177125, Note_on_c, 3, 58, 0
5, 188162, Note_on_c, 3, 65, 72
5, 188641, Note_on_c, 3, 65, 0
5, 189362, Note_on_c, 3, 65, 73
5, 189602, Note_on_c, 3, 65, 0
5, 189602, Note_on_c, 3, 65, 80
5, 189842, Note_on_c, 3, 65, 0
5, 189842, Note_on_c, 3, 65, 77
5, 190080, Note_on_c, 3, 65, 0
5, 190086, Note_on_c, 3, 65, 86
5, 190562, Note_on_c, 3, 65, 0
5, 190562, Note_on_c, 3, 65, 83
5, 190922, Note_on_c, 3, 65, 0
5, 190922, Note_on_c, 3, 65, 83
5, 191042, Note_on_c, 3, 65, 0
5, 191042, Note_on_c, 3, 65, 90
5, 191280, Note_on_c, 3, 65, 0
5, 191280, Note_on_c, 3, 65, 86
5, 191520, Note_on_c, 3, 65, 0
5, 191520, Note_on_c, 3, 65, 84
5, 191760, Note_on_c, 3, 65, 0
5, 191760, Note_on_c, 3, 65, 92
5, 192000, Note_on_c, 3, 65, 0
5, 192000, Note_on_c, 3, 65, 79
5, 192480, Note_on_c, 3, 65, 0
5, 330237, Note_on_c, 3, 65, 77
5, 330473, Note_on_c, 3, 65, 0
5, 330720, Note_on_c, 3, 65, 74
5, 330897, Note_on_c, 3, 65, 0
5, 331080, Note_on_c, 3, 65, 86
5, 331137, Note_on_c, 3, 65, 0
5, 331200, Note_on_c, 3, 65, 78
5, 331437, Note_on_c, 3, 65, 0
5, 331680, Note_on_c, 3, 65, 80
5, 331917, Note_on_c, 3, 65, 0
5, 332160, Note_on_c, 3, 72, 109
5, 343680, Note_on_c, 3, 72, 0
5, 343680, Note_on_c, 3, 65, 89
5, 343680, Note_on_c, 3, 72, 89
5, 344160, Note_on_c, 3, 72, 0
5, 344160, Note_on_c, 3, 65, 0
5, 345596, Note_on_c, 3, 74, 76
5, 345712, Note_on_c, 3, 74, 0
5, 345840, Note_on_c, 3, 70, 63
5, 345957, Note_on_c, 3, 70, 0
5, 346080, Note_on_c, 3, 70, 84
5, 346560, Note_on_c, 3, 70, 0
5, 346560, Note_on_c, 3, 74, 104
5, 346677, Note_on_c, 3, 74, 0
5, 346789, Note_on_c, 3, 65, 53
5, 346908, Note_on_c, 3, 65, 0
5, 347014, Note_on_c, 3, 65, 73
5, 347520, Note_on_c, 3, 65, 0
5, 347520, Note_on_c, 3, 70, 100
5, 347748, Note_on_c, 3, 70, 0
5, 347748, Note_on_c, 3, 62, 63
5, 347992, Note_on_c, 3, 62, 0
5, 347992, Note_on_c, 3, 62, 85
5, 348232, Note_on_c, 3, 62, 0
5, 348232, Note_on_c, 3, 62, 82
5, 348476, Note_on_c, 3, 62, 0
5, 348476, Note_on_c, 3, 62, 85
5, 348716, Note_on_c, 3, 62, 0
5, 348716, Note_on_c, 3, 62, 79
5, 348960, Note_on_c, 3, 62, 0
5, 348960, Note_on_c, 3, 62, 87
5, 349200, Note_on_c, 3, 62, 0
5, 349200, Note_on_c, 3, 62, 81
5, 349440, Note_on_c, 3, 62, 0
5, 349440, Note_on_c, 3, 62, 82
5, 349920, Note_on_c, 3, 62, 0
5, 349920, Note_on_c, 3, 62, 116
5, 349920, Note_on_c, 3, 74, 116
5, 350400, Note_on_c, 3, 74, 0
5, 350400, Note_on_c, 3, 62, 0
5, 350400, Note_on_c, 3, 65, 105
5, 350400, Note_on_c, 3, 77, 105
5, 350880, Note_on_c, 3, 77, 0
5, 350880, Note_on_c, 3, 65, 0
5, 350880, Note_on_c, 3, 62, 55
5, 350880, Note_on_c, 3, 70, 55
5, 351360, Note_on_c, 3, 70, 0
5, 351360, Note_on_c, 3, 62, 0
5, 351360, Note_on_c, 3, 58, 74
5, 351360, Note_on_c, 3, 70, 74
5, 351840, Note_on_c, 3, 70, 0
5, 351840, Note_on_c, 3, 58, 0
5, 360933, Note_on_c, 3, 65, 74
5, 361428, Note_on_c, 3, 65, 0
5, 362169, Note_on_c, 3, 65, 74
5, 362409, Note_on_c, 3, 65, 0
5, 362409, Note_on_c, 3, 65, 79
5, 362649, Note_on_c, 3, 65, 0
5, 362649, Note_on_c, 3, 65, 83
5, 362880, Note_on_c, 3, 65, 0
5, 362886, Note_on_c, 3, 65, 84
5, 363362, Note_on_c, 3, 65, 0
5, 363362, Note_on_c, 3, 65, 86
5, 363722, Note_on_c, 3, 65, 0
5, 363722, Note_on_c, 3, 65, 83
5, 363842, Note_on_c, 3, 65, 0
5, 363842, Note_on_c, 3, 65, 83
5, 364080, Note_on_c, 3, 65, 0
5, 364080, Note_on_c, 3, 65, 87
5, 364320, Note_on_c, 3, 65, 0
5, 364320, Note_on_c, 3, 65, 79
5, 364560, Note_on_c, 3, 65, 0
5, 364560, Note_on_c, 3, 65, 81
5, 364800, Note_on_c, 3, 65, 0
5, 364800, Note_on_c, 3, 65, 86
5, 365280, Note_on_c, 3, 65, 0
5, 365280, Note_on_c, 3, 65, 117
5, 365280, Note_on_c, 3, 72, 117
5, 365760, Note_on_c, 3, 72, 0
5, 365760, Note_on_c, 3, 65, 0
5, 365760, Note_on_c, 3, 65, 91
5, 365760, Note_on_c, 3, 72, 91
5, 366240, Note_on_c, 3, 72, 0
5, 366240, Note_on_c, 3, 65, 0
5, 399366, Note_on_c, 3, 70, 80
5, 399485, Note_on_c, 3, 70, 0
5, 399602, Note_on_c, 3, 70, 88
5, 399661, Note_on_c, 3, 70, 0
5, 399722, Note_on_c, 3, 70, 88
5, 399781, Note_on_c, 3, 70, 0
5, 399842, Note_on_c, 3, 70, 80
5, 399961, Note_on_c, 3, 70, 0
5, 400082, Note_on_c, 3, 70, 81
5, 400201, Note_on_c, 3, 70, 0
5, 400322, Note_on_c, 3, 70, 80
5, 400560, Note_on_c, 3, 70, 0
5, 400800, Note_on_c, 3, 65, 80
5, 401040, Note_on_c, 3, 65, 0
5, 401280, Note_on_c, 3, 62, 77
5, 401397, Note_on_c, 3, 62, 0
5, 401520, Note_on_c, 3, 62, 84
5, 401577, Note_on_c, 3, 62, 0
5, 401640, Note_on_c, 3, 62, 82
5, 401697, Note_on_c, 3, 62, 0
5, 401760, Note_on_c, 3, 62, 84
5, 401877, Note_on_c, 3, 62, 0
5, 402000, Note_on_c, 3, 62, 85
5, 402117, Note_on_c, 3, 62, 0
5, 402242, Note_on_c, 3, 62, 92
5, 402490, Note_on_c, 3, 62, 0
5, 402730, Note_on_c, 3, 58, 76
5, 402966, Note_on_c, 3, 58, 0
5, 442560, Note_on_c, 3, 65, 75
5, 443520, Note_on_c, 3, 65, 0
5, 443520, Note_on_c, 3, 58, 84
5, 443520, Note_on_c, 3, 65, 84
5, 443993, Note_on_c, 3, 65, 0
5, 443993, Note_on_c, 3, 58, 0
5, 458885, Note_on_c, 3, 58, 58
5, 458885, Note_on_c, 3, 70, 58
5, 459122, Note_on_c, 3, 70, 0
5, 459122, Note_on_c, 3, 58, 0
5, 459362, Note_on_c, 3, 58, 68
5, 459362, Note_on_c, 3, 70, 68
5, 459541, Note_on_c, 3, 70, 0
5, 459541, Note_on_c, 3, 58, 0
5, 459722, Note_on_c, 3, 58, 65
5, 459722, Note_on_c, 3, 70, 65
5, 459781, Note_on_c, 3, 70, 0
5, 459781, Note_on_c, 3, 58, 0
5, 459841, Note_on_c, 3, 58, 68
5, 459841, Note_on_c, 3, 70, 68
5, 460080, Note_on_c, 3, 70, 0
5, 460080, Note_on_c, 3, 58, 0
5, 460321, Note_on_c, 3, 58, 67
5, 460321, Note_on_c, 3, 70, 67
5, 460557, Note_on_c, 3, 70, 0
5, 460557, Note_on_c, 3, 58, 0
5, 460800, Note_on_c, 3, 53, 48
5, 460800, Note_on_c, 3, 65, 48
5, 461280, Note_on_c, 3, 65, 0
5, 461280, Note_on_c, 3, 53, 0
5, 461280, Note_on_c, 3, 58, 87
5, 461280, Note_on_c, 3, 70, 87
5, 461760, Note_on_c, 3, 70, 0
5, 461760, Note_on_c, 3, 58, 0
5, 462720, Note_on_c, 3, 65, 63
5, 462720, Note_on_c, 3, 53, 57
5, 462957, Note_on_c, 3, 65, 0
5, 463200, Note_on_c, 3, 65, 66
5, 463377, Note_on_c, 3, 65, 0
5, 463560, Note_on_c, 3, 65, 79
5, 463617, Note_on_c, 3, 65, 0
5, 463680, Note_on_c, 3, 53, 0
5, 463680, Note_on_c, 3, 65, 72
5, 463917, Note_on_c, 3, 65, 0
5, 464160, Note_on_c, 3, 65, 71
5, 464160, Note_on_c, 3, 53, 62
5, 464397, Note_on_c, 3, 65, 0
5, 464640, Note_on_c, 3, 53, 0
5, 464640, Note_on_c, 3, 53, 71
5, 464640, Note_on_c, 3, 65, 71
5, 465120, Note_on_c, 3, 65, 0
5, 465120, Note_on_c, 3, 53, 0
5, 465120, Note_on_c, 3, 53, 70
5, 465120, Note_on_c, 3, 65, 70
5, 465600, Note_on_c, 3, 65, 0
5, 465600, Note_on_c, 3, 53, 0
5, 476157, Note_on_c, 3, 58, 71
5, 476157, Note_on_c, 3, 70, 71
5, 476640, Note_on_c, 3, 70, 0
5, 476640, Note_on_c, 3, 58, 0
5, 476640, Note_on_c, 3, 53, 56
5, 476640, Note_on_c, 3, 65, 56
5, 477000, Note_on_c, 3, 65, 0
5, 477000, Note_on_c, 3, 53, 0
5, 477000, Note_on_c, 3, 53, 79
5, 477000, Note_on_c, 3, 65, 79
5, 477120, Note_on_c, 3, 65, 0
5, 477120, Note_on_c, 3, 53, 0
5, 477120, Note_on_c, 3, 53, 79
5, 477120, Note_on_c, 3, 65, 79
5, 477600, Note_on_c, 3, 65, 0
5, 477600, Note_on_c, 3, 53, 0
5, 477600, Note_on_c, 3, 53, 87
5, 477600, Note_on_c, 3, 65, 87
5, 478080, Note_on_c, 3, 65, 0
5, 478080, Note_on_c, 3, 53, 0
5, 478080, Note_on_c, 3, 53, 83
5, 478080, Note_on_c, 3, 65, 83
5, 481920, Note_on_c, 3, 65, 0
5, 481920, Note_on_c, 3, 53, 0
5, 481920, Note_on_c, 3, 58, 100
5, 481920, Note_on_c, 3, 70, 100
5, 482400, Note_on_c, 3, 70, 0
5, 482400, Note_on_c, 3, 58, 0
5, 482400, Note_on_c, 3, 53, 69
5, 482400, Note_on_c, 3, 65, 69
5, 482760, Note_on_c, 3, 65, 0
5, 482760, Note_on_c, 3, 53, 0
5, 482760, Note_on_c, 3, 53, 89
5, 482760, Note_on_c, 3, 65, 89
5, 482880, Note_on_c, 3, 65, 0
5, 482880, Note_on_c, 3, 53, 0
5, 482880, Note_on_c, 3, 53, 80
5, 482880, Note_on_c, 3, 65, 80
5, 483360, Note_on_c, 3, 65, 0
5, 483360, Note_on_c, 3, 53, 0
5, 483360, Note_on_c, 3, 53, 85
5, 483360, Note_on_c, 3, 65, 85
5, 483840, Note_on_c, 3, 65, 0
5, 483840, Note_on_c, 3, 53, 0
5, 483840, Note_on_c, 3, 53, 80
5, 483840, Note_on_c, 3, 65, 80
5, 487680, Note_on_c, 3, 65, 0
5, 487680, Note_on_c, 3, 53, 0
5, 487680, Note_on_c, 3, 58, 92
5, 487680, Note_on_c, 3, 65, 92
5, 488160, Note_on_c, 3, 65, 0
5, 488160, Note_on_c, 3, 58, 0
5, 490560, Note_on_c, 3, 74, 77
5, 490677, Note_on_c, 3, 74, 0
5, 490788, Note_on_c, 3, 65, 60
5, 490906, Note_on_c, 3, 65, 0
5, 491014, Note_on_c, 3, 65, 76
5, 491520, Note_on_c, 3, 65, 0
5, 491520, Note_on_c, 3, 70, 106
5, 491626, Note_on_c, 3, 70, 0
5, 491748, Note_on_c, 3, 62, 60
5, 491866, Note_on_c, 3, 62, 0
5, 491992, Note_on_c, 3, 62, 79
5, 492236, Note_on_c, 3, 62, 0
5, 492236, Note_on_c, 3, 62, 77
5, 492480, Note_on_c, 3, 62, 0
5, 492480, Note_on_c, 3, 62, 86
5, 492960, Note_on_c, 3, 62, 0
5, 493440, Note_on_c, 3, 65, 80
5, 493916, Note_on_c, 3, 65, 0
5, 545273, Note_on_c, 3, 53, 39
5, 545273, Note_on_c, 3, 65, 39
5, 552960, Note_on_c, 3, 65, 0
5, 552960, Note_on_c, 3, 53, 0
5, 552972, Note_on_c, 3, 58, 53
5, 552972, Note_on_c, 3, 70, 53
5, 561132, Note_on_c, 3, 70, 0
5, 561132, Note_on_c, 3, 58, 0
5, 633596, Note_on_c, 3, 70, 35
5, 633712, Note_on_c, 3, 70, 0
5, 633833, Note_on_c, 3, 70, 38
5, 633892, Note_on_c, 3, 70, 0
5, 633953, Note_on_c, 3, 70, 44
5, 634012, Note_on_c, 3, 70, 0
5, 634073, Note_on_c, 3, 70, 39
5, 634192, Note_on_c, 3, 70, 0
5, 634316, Note_on_c, 3, 70, 45
5, 634433, Note_on_c, 3, 70, 0
5, 634556, Note_on_c, 3, 70, 33
5, 634800, Note_on_c, 3, 70, 0
5, 635040, Note_on_c, 3, 65, 38
5, 635280, Note_on_c, 3, 65, 0
5, 635520, Note_on_c, 3, 62, 41
5, 635520, Note_on_c, 3, 74, 41
5, 635637, Note_on_c, 3, 74, 0
5, 635637, Note_on_c, 3, 62, 0
5, 635760, Note_on_c, 3, 62, 36
5, 635760, Note_on_c, 3, 74, 36
5, 635817, Note_on_c, 3, 74, 0
5, 635817, Note_on_c, 3, 62, 0
5, 635880, Note_on_c, 3, 62, 44
5, 635880, Note_on_c, 3, 74, 44
5, 635937, Note_on_c, 3, 74, 0
5, 635937, Note_on_c, 3, 62, 0
5, 636000, Note_on_c, 3, 62, 36
5, 636000, Note_on_c, 3, 74, 36
5, 636117, Note_on_c, 3, 74, 0
5, 636117, Note_on_c, 3, 62, 0
5, 636240, Note_on_c, 3, 62, 47
5, 636240, Note_on_c, 3, 74, 47
5, 636357, Note_on_c, 3, 74, 0
5, 636357, Note_on_c, 3, 62, 0
5, 636480, Note_on_c, 3, 62, 43
5, 636480, Note_on_c, 3, 74, 43
5, 636720, Note_on_c, 3, 74, 0
5, 636720, Note_on_c, 3, 62, 0
5, 636960, Note_on_c, 3, 58, 44
5, 636960, Note_on_c, 3, 70, 44
5, 637200, Note_on_c, 3, 70, 0
5, 637200, Note_on_c, 3, 58, 0
5, 637440, Note_on_c, 3, 77, 38
5, 637440, Note_on_c, 3, 65, 64
5, 637677, Note_on_c, 3, 77, 0
5, 637680, Note_on_c, 3, 65, 0
5, 637680, Note_on_c, 3, 65, 73
5, 637800, Note_on_c, 3, 65, 0
5, 637800, Note_on_c, 3, 65, 72
5, 637920, Note_on_c, 3, 65, 0
5, 637920, Note_on_c, 3, 77, 52
5, 637920, Note_on_c, 3, 65, 76
5, 638037, Note_on_c, 3, 77, 0
5, 638160, Note_on_c, 3, 65, 0
5, 638160, Note_on_c, 3, 77, 38
5, 638160, Note_on_c, 3, 65, 70
5, 638277, Note_on_c, 3, 77, 0
5, 638401, Note_on_c, 3, 65, 0
5, 638401, Note_on_c, 3, 77, 46
5, 638401, Note_on_c, 3, 65, 78
5, 638642, Note_on_c, 3, 65, 0
5, 638642, Note_on_c, 3, 77, 0
5, 638882, Note_on_c, 3, 74, 39
5, 638882, Note_on_c, 3, 62, 70
5, 639122, Note_on_c, 3, 62, 0
5, 639122, Note_on_c, 3, 74, 0
5, 639122, Note_on_c, 3, 77, 46
5, 639122, Note_on_c, 3, 65, 84
5, 639360, Note_on_c, 3, 65, 0
5, 639360, Note_on_c, 3, 77, 0
5, 639365, Note_on_c, 3, 58, 23
5, 639365, Note_on_c, 3, 70, 23
5, 639482, Note_on_c, 3, 70, 0
5, 639482, Note_on_c, 3, 58, 0
5, 639605, Note_on_c, 3, 62, 57
5, 639605, Note_on_c, 3, 74, 57
5, 639722, Note_on_c, 3, 74, 0
5, 639722, Note_on_c, 3, 62, 0
5, 639845, Note_on_c, 3, 53, 27
5, 639845, Note_on_c, 3, 65, 27
5, 639962, Note_on_c, 3, 65, 0
5, 639962, Note_on_c, 3, 53, 0
5, 640085, Note_on_c, 3, 58, 50
5, 640085, Note_on_c, 3, 70, 50
5, 640202, Note_on_c, 3, 70, 0
5, 640202, Note_on_c, 3, 58, 0
5, 640321, Note_on_c, 3, 62, 34
5, 640440, Note_on_c, 3, 62, 0
5, 640560, Note_on_c, 3, 65, 47
5, 640677, Note_on_c, 3, 65, 0
5, 640792, Note_on_c, 3, 58, 37
5, 640909, Note_on_c, 3, 58, 0
5, 641026, Note_on_c, 3, 62, 48
5, 641144, Note_on_c, 3, 62, 0
5, 641273, Note_on_c, 3, 65, 49
5, 641756, Note_on_c, 3, 65, 0
5, 645120, Note_on_c, 3, 58, 75
5, 645120, Note_on_c, 3, 70, 75
5, 645600, Note_on_c, 3, 70, 0
5, 645600, Note_on_c, 3, 58, 0
5, 645600, Note_on_c, 3, 53, 64
5, 645600, Note_on_c, 3, 65, 64
5, 645960, Note_on_c, 3, 65, 0
5, 645960, Note_on_c, 3, 53, 0
5, 645960, Note_on_c, 3, 53, 75
5, 645960, Note_on_c, 3, 65, 75
5, 646080, Note_on_c, 3, 65, 0
5, 646080, Note_on_c, 3, 53, 0
5, 646080, Note_on_c, 3, 53, 80
5, 646080, Note_on_c, 3, 65, 80
5, 646560, Note_on_c, 3, 65, 0
5, 646560, Note_on_c, 3, 53, 0
5, 646560, Note_on_c, 3, 53, 77
5, 646560, Note_on_c, 3, 65, 77
5, 647040, Note_on_c, 3, 65, 0
5, 647040, Note_on_c, 3, 53, 0
5, 647040, Note_on_c, 3, 53, 80
5, 647040, Note_on_c, 3, 65, 80
5, 658560, Note_on_c, 3, 53, 0
5, 658560, Note_on_c, 3, 58, 83
5, 659040, Note_on_c, 3, 58, 0
5, 659040, Note_on_c, 3, 65, 0
5, 661440, Note_on_c, 3, 74, 74
5, 661557, Note_on_c, 3, 74, 0
5, 661668, Note_on_c, 3, 65, 59
5, 661786, Note_on_c, 3, 65, 0
5, 661894, Note_on_c, 3, 65, 77
5, 662400, Note_on_c, 3, 65, 0
5, 662400, Note_on_c, 3, 70, 105
5, 662506, Note_on_c, 3, 70, 0
5, 662628, Note_on_c, 3, 62, 55
5, 662746, Note_on_c, 3, 62, 0
5, 662872, Note_on_c, 3, 62, 84
5, 663116, Note_on_c, 3, 62, 0
5, 663116, Note_on_c, 3, 62, 80
5, 663360, Note_on_c, 3, 62, 0
5, 663360, Note_on_c, 3, 62, 80
5, 663840, Note_on_c, 3, 62, 0
5, 664320, Note_on_c, 3, 65, 77
5, 664800, Note_on_c, 3, 65, 0
5, 664800, Note_on_c, 3, 58, 101
5, 664800, Note_on_c, 3, 70, 101
5, 665280, Note_on_c, 3, 70, 0
5, 665280, Note_on_c, 3, 58, 0
5, 665280, Note_on_c, 3, 62, 107
5, 665280, Note_on_c, 3, 74, 107
5, 665761, Note_on_c, 3, 74, 0
5, 665761, Note_on_c, 3, 62, 0
5, 665761, Note_on_c, 3, 58, 67
5, 665761, Note_on_c, 3, 70, 67
5, 666240, Note_on_c, 3, 70, 0
5, 666240, Note_on_c, 3, 58, 0
5, 666241, Note_on_c, 3, 53, 94
5, 666241, Note_on_c, 3, 65, 94
5, 667200, Note_on_c, 3, 65, 0
5, 667200, Note_on_c, 3, 53, 0
5, 744957, Note_on_c, 3, 58, 78
5, 744957, Note_on_c, 3, 70, 78
5, 745196, Note_on_c, 3, 70, 0
5, 745196, Note_on_c, 3, 58, 0
5, 745196, Note_on_c, 3, 58, 82
5, 745196, Note_on_c, 3, 70, 82
5, 745436, Note_on_c, 3, 70, 0
5, 745436, Note_on_c, 3, 58, 0
5, 745436, Note_on_c, 3, 58, 86
5, 745436, Note_on_c, 3, 70, 86
5, 745677, Note_on_c, 3, 70, 0
5, 745677, Note_on_c, 3, 58, 0
5, 745677, Note_on_c, 3, 62, 103
5, 745677, Note_on_c, 3, 74, 103
5, 745917, Note_on_c, 3, 74, 0
5, 745917, Note_on_c, 3, 62, 0
5, 745917, Note_on_c, 3, 53, 56
5, 745917, Note_on_c, 3, 65, 56
5, 746157, Note_on_c, 3, 65, 0
5, 746157, Note_on_c, 3, 53, 0
5, 746157, Note_on_c, 3, 53, 72
5, 746157, Note_on_c, 3, 65, 72
5, 746400, Note_on_c, 3, 65, 0
5, 746400, Note_on_c, 3, 53, 0
5, 746400, Note_on_c, 3, 53, 84
5, 746400, Note_on_c, 3, 65, 84
5, 746880, Note_on_c, 3, 65, 0
5, 746880, Note_on_c, 3, 53, 0
5, 746880, Note_on_c, 3, 58, 107
5, 746880, Note_on_c, 3, 70, 107
5, 747117, Note_on_c, 3, 70, 0
5, 747117, Note_on_c, 3, 58, 0
5, 747117, Note_on_c, 3, 58, 94
5, 747117, Note_on_c, 3, 70, 94
5, 747357, Note_on_c, 3, 70, 0
5, 747357, Note_on_c, 3, 58, 0
5, 747357, Note_on_c, 3, 58, 90
5, 747357, Note_on_c, 3, 70, 90
5, 747840, Note_on_c, 3, 70, 0
5, 747840, Note_on_c, 3, 58, 0
5, 747840, Note_on_c, 3, 65, 112
5, 747840, Note_on_c, 3, 77, 112
5, 748082, Note_on_c, 3, 77, 0
5, 748082, Note_on_c, 3, 65, 0
5, 748082, Note_on_c, 3, 65, 90
5, 748082, Note_on_c, 3, 77, 90
5, 748329, Note_on_c, 3, 77, 0
5, 748329, Note_on_c, 3, 65, 0
5, 748329, Note_on_c, 3, 65, 91
5, 748329, Note_on_c, 3, 77, 91
5, 748800, Note_on_c, 3, 77, 0
5, 748800, Note_on_c, 3, 65, 0
5, 748810, Note_on_c, 3, 62, 62
5, 748810, Note_on_c, 3, 74, 62
5, 749049, Note_on_c, 3, 74, 0
5, 749049, Note_on_c, 3, 62, 0
5, 749049, Note_on_c, 3, 58, 61
5, 749049, Note_on_c, 3, 70, 61
5, 749285, Note_on_c, 3, 70, 0
5, 749285, Note_on_c, 3, 58, 0
5, 749285, Note_on_c, 3, 62, 92
5, 749285, Note_on_c, 3, 74, 92
5, 749526, Note_on_c, 3, 74, 0
5, 749526, Note_on_c, 3, 62, 0
5, 749526, Note_on_c, 3, 58, 70
5, 749526, Note_on_c, 3, 70, 70
5, 749766, Note_on_c, 3, 53, 54
5, 749766, Note_on_c, 3, 65, 54
5, 749769, Note_on_c, 3, 70, 0
5, 749769, Note_on_c, 3, 58, 0
5, 750236, Note_on_c, 3, 53, 0
5, 750236, Note_on_c, 3, 65, 0
5, 753601, Note_on_c, 3, 65, 74
5, 754560, Note_on_c, 3, 65, 0
5, 754561, Note_on_c, 3, 58, 111
5, 754561, Note_on_c, 3, 70, 111
5, 755041, Note_on_c, 3, 70, 0
5, 755041, Note_on_c, 3, 58, 0
5, 755520, Note_on_c, 3, 70, 77
5, 755520, Note_on_c, 3, 74, 77
5, 756000, Note_on_c, 3, 74, 0
5, 756000, Note_on_c, 3, 70, 0
5, 756000, Note_on_c, 3, 65, 71
5, 756000, Note_on_c, 3, 72, 71
5, 756480, Note_on_c, 3, 72, 0
5, 756480, Note_on_c, 3, 65, 0
5, 756480, Note_on_c, 3, 62, 47
5, 756480, Note_on_c, 3, 70, 47
5, 758400, Note_on_c, 3, 70, 0
5, 758400, Note_on_c, 3, 62, 0
5, 758400, Note_on_c, 3, 58, 78
5, 758400, Note_on_c, 3, 74, 78
5, 760320, Note_on_c, 3, 74, 0
5, 760320, Note_on_c, 3, 58, 0
5, 760320, Note_on_c, 3, 53, 72
5, 760320, Note_on_c, 3, 77, 72
5, 762240, Note_on_c, 3, 77, 0
5, 762240, Note_on_c, 3, 53, 0
5, 766080, Note_on_c, 3, 65, 74
5, 766197, Note_on_c, 3, 65, 0
5, 766320, Note_on_c, 3, 65, 83
5, 766377, Note_on_c, 3, 65, 0
5, 766440, Note_on_c, 3, 65, 72
5, 766497, Note_on_c, 3, 65, 0
5, 766560, Note_on_c, 3, 65, 75
5, 766677, Note_on_c, 3, 65, 0
5, 766800, Note_on_c, 3, 65, 76
5, 766917, Note_on_c, 3, 65, 0
5, 767040, Note_on_c, 3, 65, 69
5, 767157, Note_on_c, 3, 65, 0
5, 767280, Note_on_c, 3, 65, 75
5, 767397, Note_on_c, 3, 65, 0
5, 767520, Note_on_c, 3, 65, 78
5, 767637, Note_on_c, 3, 65, 0
5, 767760, Note_on_c, 3, 65, 75
5, 767877, Note_on_c, 3, 65, 0
5, 767969, Note_on_c, 3, 58, 107
5, 767969, Note_on_c, 3, 70, 107
5, 768466, Note_on_c, 3, 70, 0
5, 768466, Note_on_c, 3, 58, 0
5, 769210, Note_on_c, 3, 58, 79
5, 769210, Note_on_c, 3, 70, 79
5, 769450, Note_on_c, 3, 70, 0
5, 769450, Note_on_c, 3, 58, 0
5, 769450, Note_on_c, 3, 58, 83
5, 769450, Note_on_c, 3, 70, 83
5, 769690, Note_on_c, 3, 70, 0
5, 769690, Note_on_c, 3, 58, 0
5, 769690, Note_on_c, 3, 58, 81
5, 769690, Note_on_c, 3, 70, 81
5, 769920, Note_on_c, 3, 70, 0
5, 769920, Note_on_c, 3, 58, 0
5, 769929, Note_on_c, 3, 58, 81
5, 769929, Note_on_c, 3, 70, 81
5, 770402, Note_on_c, 3, 70, 0
5, 770402, Note_on_c, 3, 58, 0
5, 770402, Note_on_c, 3, 58, 83
5, 770402, Note_on_c, 3, 70, 83
5, 770762, Note_on_c, 3, 70, 0
5, 770762, Note_on_c, 3, 58, 0
5, 770762, Note_on_c, 3, 58, 91
5, 770762, Note_on_c, 3, 70, 91
5, 770885, Note_on_c, 3, 70, 0
5, 770885, Note_on_c, 3, 58, 0
5, 770885, Note_on_c, 3, 58, 84
5, 770885, Note_on_c, 3, 70, 84
5, 771122, Note_on_c, 3, 70, 0
5, 771122, Note_on_c, 3, 58, 0
5, 771122, Note_on_c, 3, 58, 80
5, 771122, Note_on_c, 3, 70, 80
5, 771362, Note_on_c, 3, 70, 0
5, 771362, Note_on_c, 3, 58, 0
5, 771362, Note_on_c, 3, 58, 82
5, 771362, Note_on_c, 3, 70, 82
5, 771601, Note_on_c, 3, 70, 0
5, 771601, Note_on_c, 3, 58, 0
5, 771601, Note_on_c, 3, 58, 89
5, 771601, Note_on_c, 3, 70, 89
5, 771840, Note_on_c, 3, 70, 0
5, 771840, Note_on_c, 3, 58, 0
5, 771841, Note_on_c, 3, 58, 81
5, 771841, Note_on_c, 3, 70, 81
5, 772080, Note_on_c, 3, 70, 0
5, 772080, Note_on_c, 3, 58, 0
5, 772800, Note_on_c, 3, 58, 73
5, 773037, Note_on_c, 3, 58, 0
5, 773280, Note_on_c, 3, 58, 79
5, 773517, Note_on_c, 3, 58, 0
5, 773760, Note_on_c, 3, 58, 93
5, 774602, Note_on_c, 3, 58, 0
5, 774602, End_track
6, 0, Start_track
6, 0, Title_t, "Pianoforte"
6, 0, Program_c, 4, 0
6, 0, Control_c, 4, 7, 120
6, 0, Control_c, 4, 10, 51
6, 0, Control_c, 4, 121, 0
6, 0, Control_c, 4, 91, 60
6, 0, Control_c, 4, 121, 0
6, 0, Control_c, 4, 91, 60
6, 0, Control_c, 4, 10, 51
6, 0, Control_c, 4, 7, 87
6, 132480, Note_on_c, 4, 62, 80
6, 132480, Note_on_c, 4, 65, 80
6, 132480, Note_on_c, 4, 70, 80
6, 132480, Note_on_c, 4, 46, 67
6, 132480, Note_on_c, 4, 58, 67
6, 132960, Note_on_c, 4, 58, 0
6, 132960, Note_on_c, 4, 70, 0
6, 132960, Note_on_c, 4, 62, 0
6, 132960, Note_on_c, 4, 65, 0
6, 132960, Note_on_c, 4, 46, 0
6, 132960, Note_on_c, 4, 70, 78
6, 133320, Note_on_c, 4, 70, 0
6, 133320, Note_on_c, 4, 70, 78
6, 133440, Note_on_c, 4, 70, 0
6, 133440, Note_on_c, 4, 70, 88
6, 133920, Note_on_c, 4, 70, 0
6, 133920, Note_on_c, 4, 70, 84
6, 133920, Note_on_c, 4, 58, 65
6, 133920, Note_on_c, 4, 62, 65
6, 134400, Note_on_c, 4, 62, 0
6, 134400, Note_on_c, 4, 58, 0
6, 134400, Note_on_c, 4, 70, 0
6, 134400, Note_on_c, 4, 72, 84
6, 134400, Note_on_c, 4, 53, 76
6, 134400, Note_on_c, 4, 63, 76
6, 134640, Note_on_c, 4, 72, 0
6, 134640, Note_on_c, 4, 69, 72
6, 134880, Note_on_c, 4, 69, 0
6, 134880, Note_on_c, 4, 63, 0
6, 134880, Note_on_c, 4, 53, 0
6, 134880, Note_on_c, 4, 70, 84
6, 134880, Note_on_c, 4, 58, 63
6, 134880, Note_on_c, 4, 62, 63
6, 135261, Note_on_c, 4, 70, 0
6, 135360, Note_on_c, 4, 62, 0
6, 135360, Note_on_c, 4, 58, 0
6, 136320, Note_on_c, 4, 65, 69
6, 136320, Note_on_c, 4, 69, 69
6, 136320, Note_on_c, 4, 72, 69
6, 136320, Note_on_c, 4, 41, 59
6, 136320, Note_on_c, 4, 53, 59
6, 136800, Note_on_c, 4, 53, 0
6, 136800, Note_on_c, 4, 72, 0
6, 136800, Note_on_c, 4, 65, 0
6, 136800, Note_on_c, 4, 69, 0
6, 136800, Note_on_c, 4, 41, 0
6, 136800, Note_on_c, 4, 72, 72
6, 137160, Note_on_c, 4, 72, 0
6, 137160, Note_on_c, 4, 72, 81
6, 137280, Note_on_c, 4, 72, 0
6, 137280, Note_on_c, 4, 72, 86
6, 137760, Note_on_c, 4, 72, 0
6, 137760, Note_on_c, 4, 69, 87
6, 137760, Note_on_c, 4, 72, 87
6, 137760, Note_on_c, 4, 53, 58
6, 137760, Note_on_c, 4, 65, 58
6, 138240, Note_on_c, 4, 65, 0
6, 138240, Note_on_c, 4, 69, 0
6, 138240, Note_on_c, 4, 72, 0
6, 138240, Note_on_c, 4, 53, 0
6, 138240, Note_on_c, 4, 70, 71
6, 138240, Note_on_c, 4, 67, 65
6, 138240, Note_on_c, 4, 58, 71
6, 138240, Note_on_c, 4, 65, 71
6, 138480, Note_on_c, 4, 70, 0
6, 138480, Note_on_c, 4, 72, 93
6, 138600, Note_on_c, 4, 72, 0
6, 138600, Note_on_c, 4, 74, 97
6, 138720, Note_on_c, 4, 74, 0
6, 138720, Note_on_c, 4, 67, 0
6, 138720, Note_on_c, 4, 58, 0
6, 138720, Note_on_c, 4, 65, 0
6, 138720, Note_on_c, 4, 72, 73
6, 138720, Note_on_c, 4, 69, 82
6, 138720, Note_on_c, 4, 53, 70
6, 138720, Note_on_c, 4, 65, 70
6, 139200, Note_on_c, 4, 65, 0
6, 139200, Note_on_c, 4, 72, 0
6, 139200, Note_on_c, 4, 69, 0
6, 139200, Note_on_c, 4, 53, 0
6, 140160, Note_on_c, 4, 74, 79
6, 140400, Control_c, 4, 64, 127
6, 140400, Note_on_c, 4, 58, 57
6, 140640, Note_on_c, 4, 58, 0
6, 140640, Note_on_c, 4, 62, 73
6, 140880, Note_on_c, 4, 62, 0
6, 140880, Note_on_c, 4, 74, 0
6, 140880, Note_on_c, 4, 70, 64
6, 140880, Note_on_c, 4, 65, 72
6, 141120, Note_on_c, 4, 65, 0
6, 141120, Note_on_c, 4, 70, 0
6, 141120, Note_on_c, 4, 75, 107
6, 141120, Control_c, 4, 64, 0
6, 141360, Control_c, 4, 64, 127
6, 141360, Note_on_c, 4, 60, 54
6, 141612, Note_on_c, 4, 60, 0
6, 141612, Note_on_c, 4, 63, 69
6, 141868, Note_on_c, 4, 63, 0
6, 141868, Note_on_c, 4, 75, 0
6, 141868, Note_on_c, 4, 72, 72
6, 141868, Control_c, 4, 64, 0
6, 141868, Note_on_c, 4, 69, 86
6, 142080, Note_on_c, 4, 69, 0
6, 142080, Note_on_c, 4, 72, 0
6, 142094, Note_on_c, 4, 77, 106
6, 142094, Control_c, 4, 64, 127
6, 142094, Note_on_c, 4, 62, 39
6, 142330, Note_on_c, 4, 62, 0
6, 142330, Note_on_c, 4, 65, 67
6, 142450, Note_on_c, 4, 77, 0
6, 142450, Note_on_c, 4, 74, 70
6, 142569, Note_on_c, 4, 74, 0
6, 142569, Note_on_c, 4, 65, 0
6, 142569, Note_on_c, 4, 77, 92
6, 142569, Note_on_c, 4, 70, 76
6, 142809, Note_on_c, 4, 70, 0
6, 142809, Note_on_c, 4, 65, 40
6, 143049, Note_on_c, 4, 65, 0
6, 143049, Control_c, 4, 64, 0
6, 143049, Note_on_c, 4, 62, 46
6, 143289, Note_on_c, 4, 77, 0
6, 143289, Note_on_c, 4, 76, 75
6, 143405, Note_on_c, 4, 76, 0
6, 143405, Note_on_c, 4, 77, 90
6, 143520, Note_on_c, 4, 77, 0
6, 143520, Note_on_c, 4, 62, 0
6, 143520, Note_on_c, 4, 79, 94
6, 143640, Note_on_c, 4, 79, 0
6, 143640, Note_on_c, 4, 77, 79
6, 143760, Note_on_c, 4, 77, 0
6, 143760, Note_on_c, 4, 75, 71
6, 143872, Note_on_c, 4, 75, 0
6, 143872, Note_on_c, 4, 74, 78
6, 144000, Note_on_c, 4, 74, 0
6, 144000, Note_on_c, 4, 72, 68
6, 144000, Note_on_c, 4, 55, 62
6, 144000, Note_on_c, 4, 51, 67
6, 144236, Note_on_c, 4, 72, 0
6, 144236, Note_on_c, 4, 74, 82
6, 144296, Note_on_c, 4, 74, 0
6, 144296, Note_on_c, 4, 72, 69
6, 144356, Note_on_c, 4, 72, 0
6, 144356, Note_on_c, 4, 71, 70
6, 144476, Note_on_c, 4, 71, 0
6, 144476, Note_on_c, 4, 72, 89
6, 144720, Note_on_c, 4, 72, 0
6, 144720, Note_on_c, 4, 74, 92
6, 144960, Note_on_c, 4, 74, 0
6, 144960, Note_on_c, 4, 55, 0
6, 144960, Note_on_c, 4, 75, 97
6, 144960, Note_on_c, 4, 60, 85
6, 145200, Note_on_c, 4, 75, 0
6, 145200, Note_on_c, 4, 67, 59
6, 145433, Note_on_c, 4, 67, 0
6, 145433, Note_on_c, 4, 51, 0
6, 145433, Note_on_c, 4, 72, 105
6, 145433, Note_on_c, 4, 52, 80
6, 145669, Note_on_c, 4, 72, 0
6, 145669, Note_on_c, 4, 70, 71
6, 145860, Note_on_c, 4, 70, 0
6, 145920, Note_on_c, 4, 52, 0
6, 145920, Note_on_c, 4, 60, 0
6, 145920, Note_on_c, 4, 70, 83
6, 145920, Note_on_c, 4, 53, 66
6, 146156, Note_on_c, 4, 70, 0
6, 146156, Note_on_c, 4, 69, 71
6, 146396, Note_on_c, 4, 69, 0
6, 146396, Note_on_c, 4, 53, 0
6, 146396, Note_on_c, 4, 67, 58
6, 146636, Note_on_c, 4, 67, 0
6, 146636, Note_on_c, 4, 65, 51
6, 146877, Note_on_c, 4, 65, 0
6, 146877, Note_on_c, 4, 64, 58
6, 147037, Note_on_c, 4, 64, 0
6, 147037, Note_on_c, 4, 65, 66
6, 147198, Note_on_c, 4, 65, 0
6, 147198, Note_on_c, 4, 66, 75
6, 147361, Note_on_c, 4, 66, 0
6, 147361, Note_on_c, 4, 67, 83
6, 147522, Note_on_c, 4, 67, 0
6, 147522, Note_on_c, 4, 68, 95
6, 147684, Note_on_c, 4, 68, 0
6, 147684, Note_on_c, 4, 69, 91
6, 147813, Note_on_c, 4, 69, 0
6, 147846, Note_on_c, 4, 70, 90
6, 148325, Note_on_c, 4, 70, 0
6, 150240, Note_on_c, 4, 82, 76
6, 150360, Note_on_c, 4, 82, 0
6, 150360, Note_on_c, 4, 81, 73
6, 150481, Note_on_c, 4, 81, 0
6, 150481, Note_on_c, 4, 82, 94
6, 150602, Note_on_c, 4, 82, 0
6, 150602, Note_on_c, 4, 81, 77
6, 150725, Note_on_c, 4, 81, 0
6, 150725, Note_on_c, 4, 84, 94
6, 150842, Note_on_c, 4, 84, 0
6, 150842, Note_on_c, 4, 82, 73
6, 150961, Note_on_c, 4, 82, 0
6, 150961, Note_on_c, 4, 81, 69
6, 151080, Note_on_c, 4, 81, 0
6, 151080, Note_on_c, 4, 79, 70
6, 151200, Note_on_c, 4, 79, 0
6, 151200, Note_on_c, 4, 79, 84
6, 151316, Note_on_c, 4, 79, 0
6, 151316, Note_on_c, 4, 77, 72
6, 151436, Note_on_c, 4, 77, 0
6, 151436, Note_on_c, 4, 75, 69
6, 151553, Note_on_c, 4, 75, 0
6, 151553, Note_on_c, 4, 74, 69
6, 151680, Note_on_c, 4, 74, 0
6, 151680, Note_on_c, 4, 72, 73
6, 152156, Note_on_c, 4, 72, 0
6, 154080, Note_on_c, 4, 84, 74
6, 154200, Note_on_c, 4, 84, 0
6, 154200, Note_on_c, 4, 83, 69
6, 154321, Note_on_c, 4, 83, 0
6, 154321, Note_on_c, 4, 84, 87
6, 154442, Note_on_c, 4, 84, 0
6, 154442, Note_on_c, 4, 83, 83
6, 154565, Note_on_c, 4, 83, 0
6, 154565, Note_on_c, 4, 86, 100
6, 154682, Note_on_c, 4, 86, 0
6, 154682, Note_on_c, 4, 84, 72
6, 154802, Note_on_c, 4, 84, 0
6, 154802, Note_on_c, 4, 82, 69
6, 154920, Note_on_c, 4, 82, 0
6, 154920, Note_on_c, 4, 81, 65
6, 155040, Note_on_c, 4, 81, 0
6, 155040, Note_on_c, 4, 81, 80
6, 155156, Note_on_c, 4, 81, 0
6, 155156, Note_on_c, 4, 79, 64
6, 155276, Note_on_c, 4, 79, 0
6, 155276, Note_on_c, 4, 77, 71
6, 155393, Note_on_c, 4, 77, 0
6, 155393, Note_on_c, 4, 75, 69
6, 155520, Note_on_c, 4, 75, 0
6, 155520, Note_on_c, 4, 74, 74
6, 155753, Note_on_c, 4, 74, 0
6, 155753, Note_on_c, 4, 74, 79
6, 155753, Control_c, 4, 64, 127
6, 155753, Note_on_c, 4, 58, 54
6, 155996, Note_on_c, 4, 58, 0
6, 155996, Note_on_c, 4, 62, 79
6, 156236, Note_on_c, 4, 62, 0
6, 156236, Note_on_c, 4, 74, 0
6, 156236, Note_on_c, 4, 70, 67
6, 156236, Note_on_c, 4, 65, 71
6, 156476, Note_on_c, 4, 65, 0
6, 156476, Note_on_c, 4, 70, 0
6, 156476, Note_on_c, 4, 75, 98
6, 156476, Control_c, 4, 64, 0
6, 156720, Note_on_c, 4, 75, 0
6, 156720, Note_on_c, 4, 75, 88
6, 156720, Control_c, 4, 64, 127
6, 156720, Note_on_c, 4, 60, 60
6, 156960, Note_on_c, 4, 60, 0
6, 156960, Note_on_c, 4, 63, 73
6, 157200, Note_on_c, 4, 63, 0
6, 157200, Note_on_c, 4, 75, 0
6, 157200, Note_on_c, 4, 72, 71
6, 157200, Note_on_c, 4, 69, 83
6, 157440, Note_on_c, 4, 69, 0
6, 157440, Note_on_c, 4, 72, 0
6, 157440, Note_on_c, 4, 77, 102
6, 157440, Control_c, 4, 64, 0
6, 157440, Note_on_c, 4, 62, 63
6, 157440, Note_on_c, 4, 70, 63
6, 157676, Note_on_c, 4, 77, 0
6, 157676, Note_on_c, 4, 74, 66
6, 157916, Note_on_c, 4, 74, 0
6, 157916, Note_on_c, 4, 70, 0
6, 157916, Note_on_c, 4, 62, 0
6, 157916, Note_on_c, 4, 82, 109
6, 158033, Note_on_c, 4, 82, 0
6, 158156, Note_on_c, 4, 82, 94
6, 158273, Note_on_c, 4, 82, 0
6, 158400, Note_on_c, 4, 72, 65
6, 158400, Note_on_c, 4, 63, 48
6, 158400, Note_on_c, 4, 67, 48
6, 158642, Note_on_c, 4, 72, 0
6, 158642, Note_on_c, 4, 75, 99
6, 158886, Note_on_c, 4, 75, 0
6, 158886, Note_on_c, 4, 67, 0
6, 158886, Note_on_c, 4, 63, 0
6, 158886, Note_on_c, 4, 79, 104
6, 159005, Note_on_c, 4, 79, 0
6, 159130, Note_on_c, 4, 79, 83
6, 159249, Note_on_c, 4, 79, 0
6, 159369, Note_on_c, 4, 70, 61
6, 159606, Note_on_c, 4, 53, 60
6, 159845, Note_on_c, 4, 53, 0
6, 159845, Note_on_c, 4, 62, 86
6, 160082, Note_on_c, 4, 62, 0
6, 160082, Note_on_c, 4, 65, 82
6, 160321, Note_on_c, 4, 65, 0
6, 160321, Note_on_c, 4, 60, 45
6, 160321, Note_on_c, 4, 63, 45
6, 160321, Note_on_c, 4, 53, 79
6, 160562, Note_on_c, 4, 70, 0
6, 160562, Note_on_c, 4, 69, 79
6, 160806, Note_on_c, 4, 69, 0
6, 160806, Note_on_c, 4, 60, 0
6, 160806, Note_on_c, 4, 63, 0
6, 160806, Note_on_c, 4, 72, 98
6, 160806, Note_on_c, 4, 57, 49
6, 160806, Note_on_c, 4, 60, 49
6, 161050, Note_on_c, 4, 72, 0
6, 161050, Note_on_c, 4, 75, 100
6, 161280, Note_on_c, 4, 75, 0
6, 161280, Note_on_c, 4, 60, 0
6, 161280, Note_on_c, 4, 57, 0
6, 161280, Note_on_c, 4, 53, 0
6, 161292, Note_on_c, 4, 74, 76
6, 161292, Note_on_c, 4, 58, 56
6, 161530, Note_on_c, 4, 74, 0
6, 161530, Note_on_c, 4, 81, 117
6, 161649, Note_on_c, 4, 81, 0
6, 161649, Note_on_c, 4, 82, 94
6, 161769, Note_on_c, 4, 82, 0
6, 161769, Note_on_c, 4, 58, 0
6, 161769, Note_on_c, 4, 81, 77
6, 161886, Note_on_c, 4, 81, 0
6, 161886, Note_on_c, 4, 82, 90
6, 162006, Note_on_c, 4, 82, 0
6, 162006, Note_on_c, 4, 81, 78
6, 162125, Note_on_c, 4, 81, 0
6, 162125, Note_on_c, 4, 82, 95
6, 162245, Note_on_c, 4, 82, 0
6, 162245, Note_on_c, 4, 72, 53
6, 162245, Note_on_c, 4, 51, 62
6, 162245, Note_on_c, 4, 55, 62
6, 162481, Note_on_c, 4, 72, 0
6, 162481, Note_on_c, 4, 78, 104
6, 162600, Note_on_c, 4, 78, 0
6, 162600, Note_on_c, 4, 79, 94
6, 162720, Note_on_c, 4, 79, 0
6, 162720, Note_on_c, 4, 55, 0
6, 162720, Note_on_c, 4, 51, 0
6, 162720, Note_on_c, 4, 78, 77
6, 162840, Note_on_c, 4, 78, 0
6, 162840, Note_on_c, 4, 79, 94
6, 162960, Note_on_c, 4, 79, 0
6, 162960, Note_on_c, 4, 78, 75
6, 163080, Note_on_c, 4, 78, 0
6, 163080, Note_on_c, 4, 79, 89
6, 163200, Note_on_c, 4, 79, 0
6, 163200, Note_on_c, 4, 70, 57
6, 163440, Note_on_c, 4, 53, 78
6, 163680, Note_on_c, 4, 70, 0
6, 163680, Note_on_c, 4, 74, 94
6, 163680, Note_on_c, 4, 58, 74
6, 163920, Note_on_c, 4, 58, 0
6, 163920, Note_on_c, 4, 62, 77
6, 164160, Note_on_c, 4, 62, 0
6, 164160, Note_on_c, 4, 65, 74
6, 164400, Note_on_c, 4, 65, 0
6, 164400, Note_on_c, 4, 74, 0
6, 164400, Note_on_c, 4, 77, 105
6, 164400, Note_on_c, 4, 62, 57
6, 164640, Note_on_c, 4, 62, 0
6, 164640, Note_on_c, 4, 77, 0
6, 164640, Note_on_c, 4, 75, 80
6, 164640, Note_on_c, 4, 60, 53
6, 164880, Note_on_c, 4, 60, 0
6, 164880, Note_on_c, 4, 75, 0
6, 164880, Note_on_c, 4, 72, 65
6, 164880, Note_on_c, 4, 57, 46
6, 165120, Note_on_c, 4, 57, 0
6, 165120, Note_on_c, 4, 72, 0
6, 165120, Note_on_c, 4, 53, 0
6, 165120, Note_on_c, 4, 70, 66
6, 165120, Note_on_c, 4, 58, 61
6, 165600, Note_on_c, 4, 58, 0
6, 165600, Note_on_c, 4, 70, 0
6, 170862, Note_on_c, 4, 77, 52
6, 170989, Note_on_c, 4, 77, 0
6, 170989, Note_on_c, 4, 82, 66
6, 171109, Note_on_c, 4, 82, 0
6, 171109, Note_on_c, 4, 86, 75
6, 171233, Note_on_c, 4, 86, 0
6, 171233, Note_on_c, 4, 89, 70
6, 171349, Note_on_c, 4, 89, 0
6, 171349, Note_on_c, 4, 77, 38
6, 171480, Note_on_c, 4, 77, 0
6, 171480, Note_on_c, 4, 89, 82
6, 171600, Note_on_c, 4, 89, 0
6, 171600, Note_on_c, 4, 77, 44
6, 171720, Note_on_c, 4, 77, 0
6, 171720, Note_on_c, 4, 89, 86
6, 171840, Note_on_c, 4, 89, 0
6, 171840, Note_on_c, 4, 77, 40
6, 171960, Note_on_c, 4, 77, 0
6, 171960, Note_on_c, 4, 89, 86
6, 172080, Note_on_c, 4, 89, 0
6, 172080, Note_on_c, 4, 77, 45
6, 172200, Note_on_c, 4, 77, 0
6, 172200, Note_on_c, 4, 89, 80
6, 172326, Note_on_c, 4, 89, 0
6, 172326, Note_on_c, 4, 77, 44
6, 172452, Note_on_c, 4, 77, 0
6, 172452, Note_on_c, 4, 89, 86
6, 172572, Note_on_c, 4, 89, 0
6, 172572, Note_on_c, 4, 77, 46
6, 172700, Note_on_c, 4, 77, 0
6, 172700, Note_on_c, 4, 89, 81
6, 172800, Note_on_c, 4, 89, 0
6, 172814, Note_on_c, 4, 77, 45
6, 172934, Note_on_c, 4, 77, 0
6, 172934, Note_on_c, 4, 89, 83
6, 173050, Note_on_c, 4, 89, 0
6, 173050, Note_on_c, 4, 77, 45
6, 173170, Note_on_c, 4, 77, 0
6, 173170, Note_on_c, 4, 89, 78
6, 173289, Note_on_c, 4, 89, 0
6, 173289, Note_on_c, 4, 77, 43
6, 173409, Note_on_c, 4, 77, 0
6, 173409, Note_on_c, 4, 89, 87
6, 173529, Note_on_c, 4, 89, 0
6, 173529, Note_on_c, 4, 77, 44
6, 173645, Note_on_c, 4, 77, 0
6, 173645, Note_on_c, 4, 89, 86
6, 173761, Note_on_c, 4, 89, 0
6, 173761, Note_on_c, 4, 77, 46
6, 173881, Note_on_c, 4, 77, 0
6, 173881, Note_on_c, 4, 89, 78
6, 174001, Note_on_c, 4, 89, 0
6, 174001, Note_on_c, 4, 77, 41
6, 174121, Note_on_c, 4, 77, 0
6, 174121, Note_on_c, 4, 89, 86
6, 174241, Note_on_c, 4, 89, 0
6, 174241, Note_on_c, 4, 77, 44
6, 174365, Note_on_c, 4, 77, 0
6, 174365, Note_on_c, 4, 89, 89
6, 174485, Note_on_c, 4, 89, 0
6, 174485, Note_on_c, 4, 77, 38
6, 174610, Note_on_c, 4, 77, 0
6, 174610, Note_on_c, 4, 89, 90
6, 174720, Note_on_c, 4, 89, 0
6, 174729, Note_on_c, 4, 77, 33
6, 174849, Note_on_c, 4, 77, 0
6, 174849, Note_on_c, 4, 89, 79
6, 174966, Note_on_c, 4, 89, 0
6, 174966, Note_on_c, 4, 77, 49
6, 175086, Note_on_c, 4, 77, 0
6, 175086, Note_on_c, 4, 89, 88
6, 175202, Note_on_c, 4, 89, 0
6, 175202, Note_on_c, 4, 77, 37
6, 175322, Note_on_c, 4, 77, 0
6, 175322, Note_on_c, 4, 89, 80
6, 175442, Note_on_c, 4, 89, 0
6, 175442, Note_on_c, 4, 77, 43
6, 175562, Note_on_c, 4, 77, 0
6, 175562, Note_on_c, 4, 89, 86
6, 175681, Note_on_c, 4, 89, 0
6, 175681, Note_on_c, 4, 77, 49
6, 175800, Note_on_c, 4, 77, 0
6, 175800, Note_on_c, 4, 89, 80
6, 175921, Note_on_c, 4, 89, 0
6, 175921, Note_on_c, 4, 77, 46
6, 176041, Note_on_c, 4, 77, 0
6, 176041, Note_on_c, 4, 89, 86
6, 176161, Note_on_c, 4, 89, 0
6, 176161, Note_on_c, 4, 77, 43
6, 176282, Note_on_c, 4, 77, 0
6, 176282, Note_on_c, 4, 89, 77
6, 176402, Note_on_c, 4, 89, 0
6, 176402, Note_on_c, 4, 77, 48
6, 176529, Note_on_c, 4, 77, 0
6, 176529, Note_on_c, 4, 89, 87
6, 176640, Note_on_c, 4, 89, 0
6, 176645, Note_on_c, 4, 86, 75
6, 176765, Note_on_c, 4, 86, 0
6, 176765, Note_on_c, 4, 89, 92
6, 176885, Note_on_c, 4, 89, 0
6, 176885, Note_on_c, 4, 81, 60
6, 177005, Note_on_c, 4, 81, 0
6, 177005, Note_on_c, 4, 84, 89
6, 177125, Note_on_c, 4, 84, 0
6, 177125, Note_on_c, 4, 82, 75
6, 177242, Note_on_c, 4, 82, 0
6, 177242, Note_on_c, 4, 86, 102
6, 177362, Note_on_c, 4, 86, 0
6, 177362, Note_on_c, 4, 78, 52
6, 177481, Note_on_c, 4, 78, 0
6, 177481, Note_on_c, 4, 81, 88
6, 177600, Note_on_c, 4, 81, 0
6, 177600, Note_on_c, 4, 79, 75
6, 177720, Note_on_c, 4, 79, 0
6, 177720, Note_on_c, 4, 82, 97
6, 177840, Note_on_c, 4, 82, 0
6, 177840, Note_on_c, 4, 74, 60
6, 177960, Note_on_c, 4, 74, 0
6, 177960, Note_on_c, 4, 77, 87
6, 178077, Note_on_c, 4, 77, 0
6, 178077, Note_on_c, 4, 75, 71
6, 178077, Note_on_c, 4, 53, 50
6, 178077, Note_on_c, 4, 57, 50
6, 178077, Note_on_c, 4, 60, 50
6, 178196, Note_on_c, 4, 75, 0
6, 178196, Note_on_c, 4, 79, 99
6, 178313, Note_on_c, 4, 79, 0
6, 178313, Note_on_c, 4, 77, 76
6, 178432, Note_on_c, 4, 77, 0
6, 178432, Note_on_c, 4, 75, 75
6, 178560, Note_on_c, 4, 75, 0
6, 178560, Note_on_c, 4, 60, 0
6, 178560, Note_on_c, 4, 57, 0
6, 178560, Note_on_c, 4, 53, 0
6, 178560, Note_on_c, 4, 74, 70
6, 178560, Note_on_c, 4, 58, 61
6, 178676, Note_on_c, 4, 74, 0
6, 178676, Note_on_c, 4, 77, 92
6, 178796, Note_on_c, 4, 77, 0
6, 178796, Note_on_c, 4, 69, 60
6, 178916, Note_on_c, 4, 69, 0
6, 178916, Note_on_c, 4, 72, 98
6, 179040, Note_on_c, 4, 72, 0
6, 179040, Note_on_c, 4, 58, 0
6, 179040, Note_on_c, 4, 70, 79
6, 179160, Note_on_c, 4, 70, 0
6, 179160, Note_on_c, 4, 74, 100
6, 179280, Note_on_c, 4, 74, 0
6, 179280, Note_on_c, 4, 66, 59
6, 179396, Note_on_c, 4, 66, 0
6, 179396, Note_on_c, 4, 69, 90
6, 179516, Note_on_c, 4, 69, 0
6, 179516, Note_on_c, 4, 67, 72
6, 179636, Note_on_c, 4, 67, 0
6, 179636, Note_on_c, 4, 70, 97
6, 179756, Note_on_c, 4, 70, 0
6, 179756, Note_on_c, 4, 62, 56
6, 179873, Note_on_c, 4, 62, 0
6, 179873, Note_on_c, 4, 65, 96
6, 179993, Note_on_c, 4, 65, 0
6, 179993, Note_on_c, 4, 63, 80
6, 179993, Note_on_c, 4, 41, 47
6, 179993, Note_on_c, 4, 45, 47
6, 179993, Note_on_c, 4, 48, 47
6, 180112, Note_on_c, 4, 63, 0
6, 180112, Note_on_c, 4, 67, 100
6, 180232, Note_on_c, 4, 67, 0
6, 180232, Note_on_c, 4, 65, 81
6, 180352, Note_on_c, 4, 65, 0
6, 180352, Note_on_c, 4, 63, 70
6, 180480, Note_on_c, 4, 63, 0
6, 180480, Note_on_c, 4, 48, 0
6, 180480, Note_on_c, 4, 45, 0
6, 180480, Note_on_c, 4, 41, 0
6, 180480, Note_on_c, 4, 62, 73
6, 180480, Note_on_c, 4, 46, 54
6, 180716, Note_on_c, 4, 46, 0
6, 180716, Note_on_c, 4, 62, 0
6, 180716, Note_on_c, 4, 58, 77
6, 180716, Note_on_c, 4, 46, 64
6, 180836, Note_on_c, 4, 58, 0
6, 180836, Note_on_c, 4, 62, 106
6, 180956, Note_on_c, 4, 62, 0
6, 180956, Note_on_c, 4, 46, 0
6, 180956, Note_on_c, 4, 60, 71
6, 180956, Note_on_c, 4, 48, 60
6, 181076, Note_on_c, 4, 60, 0
6, 181076, Note_on_c, 4, 63, 101
6, 181196, Note_on_c, 4, 63, 0
6, 181196, Note_on_c, 4, 48, 0
6, 181196, Note_on_c, 4, 62, 72
6, 181196, Note_on_c, 4, 50, 63
6, 181320, Note_on_c, 4, 62, 0
6, 181320, Note_on_c, 4, 65, 89
6, 181440, Note_on_c, 4, 65, 0
6, 181440, Note_on_c, 4, 50, 0
6, 181440, Note_on_c, 4, 63, 73
6, 181440, Note_on_c, 4, 51, 56
6, 181680, Note_on_c, 4, 51, 0
6, 181680, Note_on_c, 4, 63, 0
6, 181680, Note_on_c, 4, 60, 68
6, 181680, Note_on_c, 4, 48, 60
6, 181800, Note_on_c, 4, 60, 0
6, 181800, Note_on_c, 4, 63, 92
6, 181920, Note_on_c, 4, 63, 0
6, 181920, Note_on_c, 4, 48, 0
6, 181920, Note_on_c, 4, 62, 77
6, 181920, Note_on_c, 4, 50, 57
6, 182040, Note_on_c, 4, 62, 0
6, 182040, Note_on_c, 4, 65, 94
6, 182160, Note_on_c, 4, 65, 0
6, 182160, Note_on_c, 4, 50, 0
6, 182160, Note_on_c, 4, 63, 80
6, 182160, Note_on_c, 4, 51, 68
6, 182280, Note_on_c, 4, 63, 0
6, 182280, Note_on_c, 4, 67, 100
6, 182400, Note_on_c, 4, 67, 0
6, 182400, Note_on_c, 4, 51, 0
6, 182400, Note_on_c, 4, 65, 81
6, 182400, Note_on_c, 4, 53, 64
6, 182640, Note_on_c, 4, 53, 0
6, 182640, Note_on_c, 4, 65, 0
6, 182640, Note_on_c, 4, 62, 73
6, 182640, Note_on_c, 4, 50, 52
6, 182760, Note_on_c, 4, 62, 0
6, 182760, Note_on_c, 4, 65, 94
6, 182880, Note_on_c, 4, 65, 0
6, 182880, Note_on_c, 4, 50, 0
6, 182880, Note_on_c, 4, 63, 73
6, 182880, Note_on_c, 4, 51, 67
6, 183000, Note_on_c, 4, 63, 0
6, 183000, Note_on_c, 4, 67, 96
6, 183120, Note_on_c, 4, 67, 0
6, 183120, Note_on_c, 4, 51, 0
6, 183120, Note_on_c, 4, 65, 78
6, 183120, Note_on_c, 4, 53, 60
6, 183240, Note_on_c, 4, 65, 0
6, 183240, Note_on_c, 4, 68, 98
6, 183360, Note_on_c, 4, 68, 0
6, 183360, Note_on_c, 4, 53, 0
6, 183360, Note_on_c, 4, 67, 77
6, 183360, Note_on_c, 4, 55, 66
6, 183481, Note_on_c, 4, 67, 0
6, 183481, Note_on_c, 4, 68, 91
6, 183601, Note_on_c, 4, 68, 0
6, 183601, Note_on_c, 4, 55, 0
6, 183601, Note_on_c, 4, 65, 68
6, 183601, Note_on_c, 4, 53, 65
6, 183722, Note_on_c, 4, 65, 0
6, 183722, Note_on_c, 4, 68, 91
6, 183846, Note_on_c, 4, 68, 0
6, 183846, Note_on_c, 4, 53, 0
6, 183846, Note_on_c, 4, 67, 83
6, 183846, Note_on_c, 4, 55, 67
6, 183969, Note_on_c, 4, 67, 0
6, 183969, Note_on_c, 4, 70, 99
6, 184090, Note_on_c, 4, 70, 0
6, 184090, Note_on_c, 4, 55, 0
6, 184090, Note_on_c, 4, 69, 90
6, 184090, Note_on_c, 4, 57, 70
6, 184214, Note_on_c, 4, 69, 0
6, 184214, Note_on_c, 4, 72, 102
6, 184320, Note_on_c, 4, 72, 0
6, 184320, Note_on_c, 4, 57, 0
6, 184338, Note_on_c, 4, 70, 78
6, 184338, Note_on_c, 4, 58, 63
6, 184572, Note_on_c, 4, 58, 0
6, 184572, Note_on_c, 4, 70, 0
6, 184572, Note_on_c, 4, 65, 64
6, 184572, Note_on_c, 4, 41, 55
6, 184572, Note_on_c, 4, 53, 55
6, 184692, Note_on_c, 4, 65, 0
6, 184692, Note_on_c, 4, 69, 98
6, 184810, Note_on_c, 4, 69, 0
6, 184810, Note_on_c, 4, 53, 0
6, 184810, Note_on_c, 4, 41, 0
6, 184810, Note_on_c, 4, 67, 76
6, 184810, Note_on_c, 4, 43, 54
6, 184810, Note_on_c, 4, 55, 54
6, 184929, Note_on_c, 4, 67, 0
6, 184929, Note_on_c, 4, 70, 102
6, 185049, Note_on_c, 4, 70, 0
6, 185049, Note_on_c, 4, 55, 0
6, 185049, Note_on_c, 4, 43, 0
6, 185049, Note_on_c, 4, 69, 74
6, 185049, Note_on_c, 4, 45, 65
6, 185049, Note_on_c, 4, 57, 65
6, 185169, Note_on_c, 4, 69, 0
6, 185169, Note_on_c, 4, 72, 99
6, 185285, Note_on_c, 4, 72, 0
6, 185285, Note_on_c, 4, 57, 0
6, 185285, Note_on_c, 4, 45, 0
6, 185285, Note_on_c, 4, 70, 71
6, 185285, Note_on_c, 4, 46, 70
6, 185285, Note_on_c, 4, 58, 70
6, 185525, Note_on_c, 4, 58, 0
6, 185525, Note_on_c, 4, 46, 0
6, 185525, Note_on_c, 4, 70, 0
6, 185525, Note_on_c, 4, 69, 71
6, 185525, Note_on_c, 4, 45, 61
6, 185525, Note_on_c, 4, 57, 61
6, 185645, Note_on_c, 4, 69, 0
6, 185645, Note_on_c, 4, 72, 100
6, 185765, Note_on_c, 4, 72, 0
6, 185765, Note_on_c, 4, 57, 0
6, 185765, Note_on_c, 4, 45, 0
6, 185765, Note_on_c, 4, 70, 85
6, 185765, Note_on_c, 4, 46, 56
6, 185765, Note_on_c, 4, 58, 56
6, 185885, Note_on_c, 4, 70, 0
6, 185885, Note_on_c, 4, 74, 99
6, 186005, Note_on_c, 4, 74, 0
6, 186005, Note_on_c, 4, 58, 0
6, 186005, Note_on_c, 4, 46, 0
6, 186005, Note_on_c, 4, 72, 79
6, 186005, Note_on_c, 4, 48, 69
6, 186005, Note_on_c, 4, 60, 69
6, 186125, Note_on_c, 4, 72, 0
6, 186125, Note_on_c, 4, 75, 96
6, 186240, Note_on_c, 4, 75, 0
6, 186240, Note_on_c, 4, 60, 0
6, 186240, Note_on_c, 4, 48, 0
6, 186246, Note_on_c, 4, 74, 81
6, 186246, Note_on_c, 4, 50, 63
6, 186246, Note_on_c, 4, 62, 63
6, 186482, Note_on_c, 4, 62, 0
6, 186482, Note_on_c, 4, 50, 0
6, 186482, Note_on_c, 4, 74, 0
6, 186482, Note_on_c, 4, 70, 63
6, 186482, Note_on_c, 4, 46, 58
6, 186482, Note_on_c, 4, 58, 58
6, 186602, Note_on_c, 4, 70, 0
6, 186602, Note_on_c, 4, 74, 99
6, 186722, Note_on_c, 4, 74, 0
6, 186722, Note_on_c, 4, 58, 0
6, 186722, Note_on_c, 4, 46, 0
6, 186722, Note_on_c, 4, 72, 78
6, 186722, Note_on_c, 4, 48, 58
6, 186722, Note_on_c, 4, 60, 58
6, 186841, Note_on_c, 4, 72, 0
6, 186841, Note_on_c, 4, 75, 100
6, 186961, Note_on_c, 4, 75, 0
6, 186961, Note_on_c, 4, 60, 0
6, 186961, Note_on_c, 4, 48, 0
6, 186961, Note_on_c, 4, 74, 81
6, 186961, Note_on_c, 4, 50, 74
6, 186961, Note_on_c, 4, 62, 74
6, 187081, Note_on_c, 4, 74, 0
6, 187081, Note_on_c, 4, 77, 96
6, 187201, Note_on_c, 4, 77, 0
6, 187201, Note_on_c, 4, 62, 0
6, 187201, Note_on_c, 4, 50, 0
6, 187201, Note_on_c, 4, 75, 73
6, 187201, Note_on_c, 4, 51, 65
6, 187201, Note_on_c, 4, 63, 65
6, 187321, Note_on_c, 4, 75, 0
6, 187321, Note_on_c, 4, 77, 90
6, 187441, Note_on_c, 4, 77, 0
6, 187441, Note_on_c, 4, 63, 0
6, 187441, Note_on_c, 4, 51, 0
6, 187441, Note_on_c, 4, 74, 74
6, 187441, Note_on_c, 4, 50, 45
6, 187441, Note_on_c, 4, 62, 45
6, 187562, Note_on_c, 4, 74, 0
6, 187562, Note_on_c, 4, 77, 100
6, 187682, Note_on_c, 4, 77, 0
6, 187682, Note_on_c, 4, 62, 0
6, 187682, Note_on_c, 4, 50, 0
6, 187682, Note_on_c, 4, 75, 75
6, 187682, Note_on_c, 4, 51, 69
6, 187682, Note_on_c, 4, 63, 69
6, 187802, Note_on_c, 4, 75, 0
6, 187802, Note_on_c, 4, 77, 94
6, 187922, Note_on_c, 4, 77, 0
6, 187922, Note_on_c, 4, 63, 0
6, 187922, Note_on_c, 4, 51, 0
6, 187922, Note_on_c, 4, 76, 72
6, 187922, Note_on_c, 4, 52, 67
6, 187922, Note_on_c, 4, 64, 67
6, 188042, Note_on_c, 4, 76, 0
6, 188042, Note_on_c, 4, 79, 95
6, 188160, Note_on_c, 4, 79, 0
6, 188160, Note_on_c, 4, 64, 0
6, 188160, Note_on_c, 4, 52, 0
6, 188162, Note_on_c, 4, 77, 77
6, 188162, Note_on_c, 4, 53, 69
6, 188162, Note_on_c, 4, 65, 69
6, 188641, Note_on_c, 4, 65, 0
6, 188641, Note_on_c, 4, 53, 0
6, 188641, Note_on_c, 4, 77, 0
6, 192000, Note_on_c, 4, 57, 77
6, 192120, Note_on_c, 4, 57, 0
6, 192120, Note_on_c, 4, 58, 83
6, 192240, Note_on_c, 4, 58, 0
6, 192240, Note_on_c, 4, 60, 95
6, 192360, Note_on_c, 4, 60, 0
6, 192360, Note_on_c, 4, 62, 102
6, 192480, Note_on_c, 4, 62, 0
6, 192480, Note_on_c, 4, 64, 91
6, 192600, Note_on_c, 4, 64, 0
6, 192600, Note_on_c, 4, 65, 97
6, 192720, Note_on_c, 4, 65, 0
6, 192720, Note_on_c, 4, 67, 98
6, 192840, Note_on_c, 4, 67, 0
6, 192840, Note_on_c, 4, 69, 94
6, 192960, Note_on_c, 4, 69, 0
6, 192960, Note_on_c, 4, 70, 98
6, 193080, Note_on_c, 4, 70, 0
6, 193080, Note_on_c, 4, 72, 93
6, 193200, Note_on_c, 4, 72, 0
6, 193200, Note_on_c, 4, 74, 104
6, 193320, Note_on_c, 4, 74, 0
6, 193320, Note_on_c, 4, 76, 90
6, 193440, Note_on_c, 4, 76, 0
6, 193440, Note_on_c, 4, 77, 92
6, 193560, Note_on_c, 4, 77, 0
6, 193560, Note_on_c, 4, 79, 99
6, 193682, Note_on_c, 4, 79, 0
6, 193682, Note_on_c, 4, 81, 101
6, 193802, Note_on_c, 4, 81, 0
6, 193802, Note_on_c, 4, 82, 97
6, 193920, Note_on_c, 4, 82, 0
6, 193922, Note_on_c, 4, 84, 104
6, 194880, Note_on_c, 4, 84, 0
6, 194880, Note_on_c, 4, 82, 77
6, 195000, Note_on_c, 4, 82, 0
6, 195000, Note_on_c, 4, 81, 77
6, 195120, Note_on_c, 4, 81, 0
6, 195120, Note_on_c, 4, 79, 71
6, 195240, Note_on_c, 4, 79, 0
6, 195240, Note_on_c, 4, 77, 70
6, 195353, Note_on_c, 4, 77, 0
6, 195353, Note_on_c, 4, 76, 72
6, 195469, Note_on_c, 4, 76, 0
6, 195469, Note_on_c, 4, 77, 89
6, 195589, Note_on_c, 4, 77, 0
6, 195589, Note_on_c, 4, 81, 108
6, 195706, Note_on_c, 4, 81, 0
6, 195706, Note_on_c, 4, 77, 71
6, 195840, Note_on_c, 4, 77, 0
6, 195840, Note_on_c, 4, 72, 59
6, 195840, Control_c, 4, 64, 127
6, 195840, Note_on_c, 4, 53, 56
6, 195840, Note_on_c, 4, 57, 56
6, 196073, Note_on_c, 4, 53, 0
6, 196073, Note_on_c, 4, 48, 63
6, 196313, Note_on_c, 4, 48, 0
6, 196313, Note_on_c, 4, 57, 0
6, 196313, Note_on_c, 4, 72, 0
6, 196313, Note_on_c, 4, 53, 56
6, 196313, Note_on_c, 4, 57, 56
6, 196560, Note_on_c, 4, 53, 0
6, 196560, Control_c, 4, 64, 0
6, 196560, Note_on_c, 4, 48, 60
6, 196800, Note_on_c, 4, 48, 0
6, 196800, Note_on_c, 4, 57, 0
6, 196800, Control_c, 4, 64, 127
6, 196800, Note_on_c, 4, 53, 61
6, 196800, Note_on_c, 4, 57, 61
6, 197040, Note_on_c, 4, 53, 0
6, 197040, Note_on_c, 4, 48, 67
6, 197280, Note_on_c, 4, 48, 0
6, 197280, Note_on_c, 4, 57, 0
6, 197280, Note_on_c, 4, 71, 73
6, 197280, Note_on_c, 4, 53, 62
6, 197280, Note_on_c, 4, 57, 62
6, 197400, Note_on_c, 4, 71, 0
6, 197400, Note_on_c, 4, 72, 84
6, 197520, Note_on_c, 4, 72, 0
6, 197520, Note_on_c, 4, 53, 0
6, 197520, Note_on_c, 4, 77, 107
6, 197520, Control_c, 4, 64, 0
6, 197520, Note_on_c, 4, 48, 60
6, 197640, Note_on_c, 4, 77, 0
6, 197640, Note_on_c, 4, 72, 66
6, 197760, Note_on_c, 4, 72, 0
6, 197760, Note_on_c, 4, 48, 0
6, 197760, Note_on_c, 4, 57, 0
6, 197760, Note_on_c, 4, 69, 68
6, 197760, Control_c, 4, 64, 127
6, 197760, Note_on_c, 4, 53, 61
6, 197760, Note_on_c, 4, 57, 61
6, 197986, Note_on_c, 4, 53, 0
6, 197986, Note_on_c, 4, 48, 63
6, 198226, Note_on_c, 4, 48, 0
6, 198226, Note_on_c, 4, 57, 0
6, 198226, Note_on_c, 4, 69, 0
6, 198226, Note_on_c, 4, 68, 70
6, 198226, Note_on_c, 4, 53, 64
6, 198226, Note_on_c, 4, 57, 64
6, 198349, Note_on_c, 4, 68, 0
6, 198349, Note_on_c, 4, 69, 91
6, 198473, Note_on_c, 4, 69, 0
6, 198473, Note_on_c, 4, 53, 0
6, 198473, Note_on_c, 4, 72, 96
6, 198473, Control_c, 4, 64, 0
6, 198473, Note_on_c, 4, 48, 59
6, 198600, Note_on_c, 4, 72, 0
6, 198600, Note_on_c, 4, 69, 70
6, 198720, Note_on_c, 4, 69, 0
6, 198720, Note_on_c, 4, 48, 0
6, 198720, Note_on_c, 4, 57, 0
6, 198720, Note_on_c, 4, 65, 55
6, 198720, Note_on_c, 4, 53, 57
6, 198720, Note_on_c, 4, 57, 57
6, 199210, Note_on_c, 4, 57, 0
6, 199210, Note_on_c, 4, 53, 0
6, 199210, Note_on_c, 4, 65, 0
6, 199210, Note_on_c, 4, 81, 119
6, 199210, Note_on_c, 4, 84, 119
6, 199570, Note_on_c, 4, 84, 0
6, 199570, Note_on_c, 4, 81, 0
6, 199570, Note_on_c, 4, 81, 87
6, 199570, Note_on_c, 4, 84, 87
6, 199680, Note_on_c, 4, 84, 0
6, 199680, Note_on_c, 4, 81, 0
6, 199689, Note_on_c, 4, 78, 68
6, 199689, Note_on_c, 4, 81, 68
6, 199926, Note_on_c, 4, 60, 49
6, 200165, Note_on_c, 4, 60, 0
6, 200165, Note_on_c, 4, 60, 62
6, 200402, Note_on_c, 4, 60, 0
6, 200402, Note_on_c, 4, 60, 64
6, 200642, Note_on_c, 4, 60, 0
6, 200642, Note_on_c, 4, 81, 0
6, 200642, Note_on_c, 4, 78, 0
6, 200642, Note_on_c, 4, 79, 85
6, 200642, Note_on_c, 4, 82, 85
6, 200642, Note_on_c, 4, 60, 64
6, 200881, Note_on_c, 4, 60, 0
6, 200881, Note_on_c, 4, 62, 64
6, 201001, Note_on_c, 4, 62, 0
6, 201001, Note_on_c, 4, 64, 73
6, 201121, Note_on_c, 4, 64, 0
6, 201121, Note_on_c, 4, 82, 0
6, 201121, Note_on_c, 4, 79, 0
6, 201121, Note_on_c, 4, 65, 71
6, 201241, Note_on_c, 4, 65, 0
6, 201241, Note_on_c, 4, 67, 70
6, 201361, Note_on_c, 4, 67, 0
6, 201361, Note_on_c, 4, 69, 58
6, 201480, Note_on_c, 4, 69, 0
6, 201480, Note_on_c, 4, 70, 69
6, 201600, Note_on_c, 4, 70, 0
6, 201600, Note_on_c, 4, 82, 80
6, 201600, Note_on_c, 4, 72, 70
6, 202080, Note_on_c, 4, 72, 0
6, 202560, Note_on_c, 4, 82, 0
6, 202560, Note_on_c, 4, 81, 68
6, 202680, Note_on_c, 4, 81, 0
6, 202680, Note_on_c, 4, 79, 70
6, 202800, Note_on_c, 4, 79, 0
6, 202800, Note_on_c, 4, 77, 64
6, 202920, Note_on_c, 4, 77, 0
6, 202920, Note_on_c, 4, 76, 70
6, 203040, Note_on_c, 4, 76, 0
6, 203040, Note_on_c, 4, 75, 75
6, 203157, Note_on_c, 4, 75, 0
6, 203157, Note_on_c, 4, 76, 89
6, 203277, Note_on_c, 4, 76, 0
6, 203277, Note_on_c, 4, 79, 99
6, 203397, Note_on_c, 4, 79, 0
6, 203397, Note_on_c, 4, 76, 76
6, 203520, Note_on_c, 4, 76, 0
6, 203520, Note_on_c, 4, 70, 59
6, 203520, Control_c, 4, 64, 127
6, 203520, Note_on_c, 4, 52, 61
6, 203520, Note_on_c, 4, 55, 61
6, 203757, Note_on_c, 4, 52, 0
6, 203757, Note_on_c, 4, 48, 56
6, 203997, Note_on_c, 4, 48, 0
6, 203997, Note_on_c, 4, 55, 0
6, 203997, Note_on_c, 4, 70, 0
6, 203997, Note_on_c, 4, 52, 62
6, 203997, Note_on_c, 4, 55, 62
6, 204240, Note_on_c, 4, 52, 0
6, 204240, Note_on_c, 4, 48, 67
6, 204480, Note_on_c, 4, 48, 0
6, 204480, Note_on_c, 4, 55, 0
6, 204480, Note_on_c, 4, 52, 61
6, 204480, Note_on_c, 4, 55, 61
6, 204720, Note_on_c, 4, 52, 0
6, 204720, Note_on_c, 4, 48, 60
6, 204960, Note_on_c, 4, 48, 0
6, 204960, Note_on_c, 4, 55, 0
6, 204960, Note_on_c, 4, 69, 78
6, 204960, Note_on_c, 4, 52, 63
6, 204960, Note_on_c, 4, 55, 63
6, 205080, Note_on_c, 4, 69, 0
6, 205080, Note_on_c, 4, 70, 88
6, 205200, Note_on_c, 4, 70, 0
6, 205200, Note_on_c, 4, 52, 0
6, 205200, Note_on_c, 4, 74, 101
6, 205200, Note_on_c, 4, 48, 61
6, 205320, Note_on_c, 4, 74, 0
6, 205320, Note_on_c, 4, 70, 72
6, 205440, Note_on_c, 4, 70, 0
6, 205440, Note_on_c, 4, 48, 0
6, 205440, Note_on_c, 4, 55, 0
6, 205440, Note_on_c, 4, 66, 61
6, 205440, Control_c, 4, 64, 0
6, 205440, Control_c, 4, 64, 127
6, 205440, Note_on_c, 4, 52, 61
6, 205440, Note_on_c, 4, 55, 61
6, 205548, Note_on_c, 4, 66, 0
6, 205548, Note_on_c, 4, 67, 84
6, 205666, Note_on_c, 4, 67, 0
6, 205666, Note_on_c, 4, 52, 0
6, 205666, Note_on_c, 4, 70, 96
6, 205666, Note_on_c, 4, 48, 64
6, 205786, Note_on_c, 4, 70, 0
6, 205786, Note_on_c, 4, 67, 77
6, 205906, Note_on_c, 4, 67, 0
6, 205906, Note_on_c, 4, 48, 0
6, 205906, Note_on_c, 4, 55, 0
6, 205906, Note_on_c, 4, 63, 61
6, 205906, Note_on_c, 4, 52, 66
6, 205906, Note_on_c, 4, 55, 66
6, 206029, Note_on_c, 4, 63, 0
6, 206029, Note_on_c, 4, 64, 85
6, 206153, Note_on_c, 4, 64, 0
6, 206153, Note_on_c, 4, 52, 0
6, 206153, Note_on_c, 4, 67, 105
6, 206153, Note_on_c, 4, 48, 61
6, 206276, Note_on_c, 4, 67, 0
6, 206276, Note_on_c, 4, 64, 74
6, 206400, Note_on_c, 4, 64, 0
6, 206400, Note_on_c, 4, 48, 0
6, 206400, Note_on_c, 4, 55, 0
6, 206400, Note_on_c, 4, 60, 61
6, 206400, Control_c, 4, 64, 0
6, 206400, Note_on_c, 4, 55, 61
6, 206400, Note_on_c, 4, 52, 74
6, 206892, Note_on_c, 4, 52, 0
6, 206892, Note_on_c, 4, 55, 0
6, 206892, Note_on_c, 4, 60, 0
6, 206892, Note_on_c, 4, 79, 120
6, 206892, Note_on_c, 4, 82, 120
6, 207252, Note_on_c, 4, 82, 0
6, 207252, Note_on_c, 4, 79, 0
6, 207252, Note_on_c, 4, 79, 87
6, 207252, Note_on_c, 4, 82, 87
6, 207360, Note_on_c, 4, 82, 0
6, 207360, Note_on_c, 4, 79, 0
6, 207370, Note_on_c, 4, 76, 76
6, 207370, Note_on_c, 4, 80, 76
6, 207609, Note_on_c, 4, 65, 73
6, 207846, Note_on_c, 4, 65, 0
6, 207846, Note_on_c, 4, 65, 79
6, 208085, Note_on_c, 4, 65, 0
6, 208085, Note_on_c, 4, 65, 86
6, 208322, Note_on_c, 4, 65, 0
6, 208322, Note_on_c, 4, 80, 0
6, 208322, Note_on_c, 4, 76, 0
6, 208322, Note_on_c, 4, 77, 91
6, 208322, Note_on_c, 4, 81, 91
6, 208322, Note_on_c, 4, 65, 82
6, 208442, Note_on_c, 4, 65, 0
6, 208442, Note_on_c, 4, 64, 76
6, 208561, Note_on_c, 4, 64, 0
6, 208561, Note_on_c, 4, 65, 89
6, 208680, Note_on_c, 4, 65, 0
6, 208680, Note_on_c, 4, 67, 92
6, 208800, Note_on_c, 4, 67, 0
6, 208800, Note_on_c, 4, 81, 0
6, 208800, Note_on_c, 4, 77, 0
6, 208800, Note_on_c, 4, 65, 81
6, 208920, Note_on_c, 4, 65, 0
6, 208920, Note_on_c, 4, 63, 74
6, 209040, Note_on_c, 4, 63, 0
6, 209040, Note_on_c, 4, 62, 66
6, 209160, Note_on_c, 4, 62, 0
6, 209160, Note_on_c, 4, 60, 72
6, 209280, Note_on_c, 4, 60, 0
6, 209280, Note_on_c, 4, 58, 85
6, 209520, Note_on_c, 4, 86, 87
6, 209760, Note_on_c, 4, 86, 0
6, 209760, Note_on_c, 4, 58, 0
6, 209760, Note_on_c, 4, 86, 94
6, 210000, Note_on_c, 4, 86, 0
6, 210000, Note_on_c, 4, 86, 93
6, 210240, Note_on_c, 4, 86, 0
6, 210240, Note_on_c, 4, 86, 99
6, 210360, Note_on_c, 4, 86, 0
6, 210360, Note_on_c, 4, 85, 96
6, 210480, Note_on_c, 4, 85, 0
6, 210480, Note_on_c, 4, 86, 107
6, 210600, Note_on_c, 4, 86, 0
6, 210600, Note_on_c, 4, 87, 108
6, 210717, Note_on_c, 4, 87, 0
6, 210717, Note_on_c, 4, 86, 85
6, 210836, Note_on_c, 4, 86, 0
6, 210836, Note_on_c, 4, 84, 79
6, 210952, Note_on_c, 4, 84, 0
6, 210952, Note_on_c, 4, 82, 78
6, 211069, Note_on_c, 4, 82, 0
6, 211069, Note_on_c, 4, 81, 84
6, 211200, Note_on_c, 4, 81, 0
6, 211200, Note_on_c, 4, 79, 83
6, 211200, Note_on_c, 4, 46, 97
6, 211436, Note_on_c, 4, 79, 0
6, 211436, Note_on_c, 4, 74, 77
6, 211556, Note_on_c, 4, 74, 0
6, 211556, Note_on_c, 4, 72, 79
6, 211676, Note_on_c, 4, 72, 0
6, 211676, Note_on_c, 4, 46, 0
6, 211676, Note_on_c, 4, 70, 81
6, 211796, Note_on_c, 4, 70, 0
6, 211796, Note_on_c, 4, 69, 78
6, 211916, Note_on_c, 4, 69, 0
6, 211916, Note_on_c, 4, 67, 86
6, 212036, Note_on_c, 4, 67, 0
6, 212036, Note_on_c, 4, 66, 87
6, 212157, Note_on_c, 4, 66, 0
6, 212157, Note_on_c, 4, 67, 105
6, 212157, Note_on_c, 4, 58, 67
6, 212157, Note_on_c, 4, 62, 67
6, 212400, Note_on_c, 4, 67, 0
6, 212400, Note_on_c, 4, 79, 126
6, 212521, Note_on_c, 4, 79, 0
6, 212521, Note_on_c, 4, 81, 117
6, 212642, Note_on_c, 4, 81, 0
6, 212642, Note_on_c, 4, 62, 0
6, 212642, Note_on_c, 4, 58, 0
6, 212642, Note_on_c, 4, 82, 112
6, 212762, Note_on_c, 4, 82, 0
6, 212762, Note_on_c, 4, 84, 113
6, 212882, Note_on_c, 4, 84, 0
6, 212882, Note_on_c, 4, 86, 111
6, 213005, Note_on_c, 4, 86, 0
6, 213005, Note_on_c, 4, 82, 77
6, 213120, Note_on_c, 4, 82, 0
6, 213125, Note_on_c, 4, 84, 106
6, 213125, Note_on_c, 4, 58, 70
6, 213125, Note_on_c, 4, 64, 70
6, 213125, Note_on_c, 4, 67, 70
6, 213362, Note_on_c, 4, 84, 0
6, 213362, Note_on_c, 4, 84, 100
6, 213602, Note_on_c, 4, 84, 0
6, 213602, Note_on_c, 4, 67, 0
6, 213602, Note_on_c, 4, 64, 0
6, 213602, Note_on_c, 4, 58, 0
6, 213602, Note_on_c, 4, 84, 90
6, 213842, Note_on_c, 4, 84, 0
6, 213842, Note_on_c, 4, 84, 98
6, 214082, Note_on_c, 4, 84, 0
6, 214082, Note_on_c, 4, 84, 96
6, 214201, Note_on_c, 4, 84, 0
6, 214201, Note_on_c, 4, 83, 93
6, 214321, Note_on_c, 4, 83, 0
6, 214321, Note_on_c, 4, 84, 106
6, 214440, Note_on_c, 4, 84, 0
6, 214440, Note_on_c, 4, 86, 113
6, 214557, Note_on_c, 4, 86, 0
6, 214557, Note_on_c, 4, 84, 90
6, 214676, Note_on_c, 4, 84, 0
6, 214676, Note_on_c, 4, 82, 81
6, 214793, Note_on_c, 4, 82, 0
6, 214793, Note_on_c, 4, 81, 91
6, 214909, Note_on_c, 4, 81, 0
6, 214909, Note_on_c, 4, 79, 77
6, 215040, Note_on_c, 4, 79, 0
6, 215040, Note_on_c, 4, 77, 76
6, 215040, Note_on_c, 4, 45, 96
6, 215276, Note_on_c, 4, 77, 0
6, 215276, Note_on_c, 4, 72, 70
6, 215393, Note_on_c, 4, 72, 0
6, 215393, Note_on_c, 4, 70, 74
6, 215513, Note_on_c, 4, 70, 0
6, 215513, Note_on_c, 4, 45, 0
6, 215513, Note_on_c, 4, 69, 84
6, 215636, Note_on_c, 4, 69, 0
6, 215636, Note_on_c, 4, 67, 76
6, 215756, Note_on_c, 4, 67, 0
6, 215756, Note_on_c, 4, 65, 87
6, 215876, Note_on_c, 4, 65, 0
6, 215876, Note_on_c, 4, 64, 80
6, 215996, Note_on_c, 4, 64, 0
6, 215996, Note_on_c, 4, 65, 106
6, 215996, Note_on_c, 4, 57, 77
6, 215996, Note_on_c, 4, 60, 77
6, 216240, Note_on_c, 4, 65, 0
6, 216240, Note_on_c, 4, 77, 126
6, 216360, Note_on_c, 4, 77, 0
6, 216360, Note_on_c, 4, 79, 117
6, 216482, Note_on_c, 4, 79, 0
6, 216482, Note_on_c, 4, 60, 0
6, 216482, Note_on_c, 4, 57, 0
6, 216482, Note_on_c, 4, 81, 117
6, 216602, Note_on_c, 4, 81, 0
6, 216602, Note_on_c, 4, 82, 113
6, 216722, Note_on_c, 4, 82, 0
6, 216722, Note_on_c, 4, 84, 111
6, 216845, Note_on_c, 4, 84, 0
6, 216845, Note_on_c, 4, 81, 86
6, 216960, Note_on_c, 4, 81, 0
6, 216962, Note_on_c, 4, 82, 106
6, 216962, Note_on_c, 4, 55, 71
6, 216962, Note_on_c, 4, 58, 71
6, 216962, Note_on_c, 4, 64, 71
6, 217202, Note_on_c, 4, 82, 0
6, 217202, Note_on_c, 4, 82, 98
6, 217442, Note_on_c, 4, 82, 0
6, 217442, Note_on_c, 4, 82, 97
6, 217682, Note_on_c, 4, 82, 0
6, 217682, Note_on_c, 4, 82, 92
6, 217921, Note_on_c, 4, 82, 0
6, 217921, Note_on_c, 4, 82, 104
6, 218041, Note_on_c, 4, 82, 0
6, 218041, Note_on_c, 4, 81, 89
6, 218160, Note_on_c, 4, 81, 0
6, 218160, Note_on_c, 4, 82, 114
6, 218280, Note_on_c, 4, 82, 0
6, 218280, Note_on_c, 4, 84, 108
6, 218397, Note_on_c, 4, 84, 0
6, 218397, Note_on_c, 4, 82, 89
6, 218516, Note_on_c, 4, 82, 0
6, 218516, Note_on_c, 4, 79, 80
6, 218633, Note_on_c, 4, 79, 0
6, 218633, Note_on_c, 4, 77, 78
6, 218749, Note_on_c, 4, 77, 0
6, 218749, Note_on_c, 4, 76, 83
6, 218880, Note_on_c, 4, 76, 0
6, 218880, Note_on_c, 4, 64, 0
6, 218880, Note_on_c, 4, 58, 0
6, 218880, Note_on_c, 4, 55, 0
6, 218880, Note_on_c, 4, 74, 85
6, 218880, Note_on_c, 4, 53, 91
6, 218880, Note_on_c, 4, 58, 91
6, 218880, Note_on_c, 4, 65, 91
6, 219116, Note_on_c, 4, 74, 0
6, 219116, Note_on_c, 4, 82, 126
6, 219356, Note_on_c, 4, 82, 0
6, 219356, Note_on_c, 4, 82, 106
6, 219600, Note_on_c, 4, 82, 0
6, 219600, Note_on_c, 4, 82, 95
6, 219840, Note_on_c, 4, 82, 0
6, 219840, Note_on_c, 4, 82, 101
6, 219960, Note_on_c, 4, 82, 0
6, 219960, Note_on_c, 4, 81, 90
6, 220080, Note_on_c, 4, 81, 0
6, 220080, Note_on_c, 4, 82, 109
6, 220197, Note_on_c, 4, 82, 0
6, 220197, Note_on_c, 4, 84, 116
6, 220316, Note_on_c, 4, 84, 0
6, 220316, Note_on_c, 4, 82, 80
6, 220436, Note_on_c, 4, 82, 0
6, 220436, Note_on_c, 4, 77, 72
6, 220553, Note_on_c, 4, 77, 0
6, 220553, Note_on_c, 4, 76, 78
6, 220669, Note_on_c, 4, 76, 0
6, 220669, Note_on_c, 4, 74, 78
6, 220800, Note_on_c, 4, 74, 0
6, 220800, Note_on_c, 4, 65, 0
6, 220800, Note_on_c, 4, 58, 0
6, 220800, Note_on_c, 4, 53, 0
6, 220800, Note_on_c, 4, 72, 78
6, 220800, Note_on_c, 4, 52, 60
6, 220800, Note_on_c, 4, 55, 60
6, 220800, Note_on_c, 4, 60, 60
6, 221033, Note_on_c, 4, 72, 0
6, 221033, Note_on_c, 4, 82, 126
6, 221276, Note_on_c, 4, 82, 0
6, 221276, Note_on_c, 4, 82, 108
6, 221517, Note_on_c, 4, 82, 0
6, 221517, Note_on_c, 4, 82, 93
6, 221757, Note_on_c, 4, 82, 0
6, 221757, Note_on_c, 4, 82, 98
6, 221880, Note_on_c, 4, 82, 0
6, 221880, Note_on_c, 4, 81, 89
6, 222000, Note_on_c, 4, 81, 0
6, 222000, Note_on_c, 4, 82, 107
6, 222120, Note_on_c, 4, 82, 0
6, 222120, Note_on_c, 4, 84, 117
6, 222240, Note_on_c, 4, 84, 0
6, 222240, Note_on_c, 4, 82, 85
6, 222360, Note_on_c, 4, 82, 0
6, 222360, Note_on_c, 4, 81, 87
6, 222481, Note_on_c, 4, 81, 0
6, 222481, Note_on_c, 4, 82, 113
6, 222601, Note_on_c, 4, 82, 0
6, 222601, Note_on_c, 4, 84, 115
6, 222720, Note_on_c, 4, 84, 0
6, 222720, Note_on_c, 4, 60, 0
6, 222720, Note_on_c, 4, 55, 0
6, 222720, Note_on_c, 4, 52, 0
6, 222721, Note_on_c, 4, 82, 88
6, 222721, Control_c, 4, 64, 127
6, 222721, Note_on_c, 4, 37, 82
6, 222721, Note_on_c, 4, 49, 82
6, 222842, Note_on_c, 4, 82, 0
6, 222842, Note_on_c, 4, 89, 125
6, 222962, Note_on_c, 4, 89, 0
6, 222962, Note_on_c, 4, 85, 89
6, 223082, Note_on_c, 4, 85, 0
6, 223082, Note_on_c, 4, 82, 84
6, 223202, Note_on_c, 4, 82, 0
6, 223202, Note_on_c, 4, 77, 73
6, 223322, Note_on_c, 4, 77, 0
6, 223322, Note_on_c, 4, 85, 126
6, 223441, Note_on_c, 4, 85, 0
6, 223441, Note_on_c, 4, 82, 86
6, 223561, Note_on_c, 4, 82, 0
6, 223561, Note_on_c, 4, 77, 70
6, 223680, Note_on_c, 4, 77, 0
6, 223680, Note_on_c, 4, 73, 73
6, 223800, Note_on_c, 4, 73, 0
6, 223800, Note_on_c, 4, 82, 126
6, 223917, Note_on_c, 4, 82, 0
6, 223917, Note_on_c, 4, 77, 78
6, 224036, Note_on_c, 4, 77, 0
6, 224036, Note_on_c, 4, 73, 75
6, 224152, Note_on_c, 4, 73, 0
6, 224152, Note_on_c, 4, 70, 74
6, 224272, Note_on_c, 4, 70, 0
6, 224272, Note_on_c, 4, 77, 126
6, 224389, Note_on_c, 4, 77, 0
6, 224389, Note_on_c, 4, 73, 83
6, 224508, Note_on_c, 4, 73, 0
6, 224508, Note_on_c, 4, 70, 77
6, 224640, Note_on_c, 4, 70, 0
6, 224640, Note_on_c, 4, 49, 0
6, 224640, Note_on_c, 4, 37, 0
6, 224640, Note_on_c, 4, 67, 126
6, 224640, Note_on_c, 4, 70, 126
6, 224640, Note_on_c, 4, 76, 126
6, 224640, Control_c, 4, 64, 0
6, 224640, Note_on_c, 4, 36, 57
6, 224753, Note_on_c, 4, 36, 0
6, 224753, Note_on_c, 4, 48, 99
6, 224873, Note_on_c, 4, 48, 0
6, 224873, Note_on_c, 4, 47, 86
6, 224993, Note_on_c, 4, 47, 0
6, 224993, Note_on_c, 4, 48, 84
6, 225113, Note_on_c, 4, 48, 0
6, 225113, Note_on_c, 4, 40, 67
6, 225236, Note_on_c, 4, 40, 0
6, 225236, Note_on_c, 4, 52, 104
6, 225356, Note_on_c, 4, 52, 0
6, 225356, Note_on_c, 4, 51, 84
6, 225476, Note_on_c, 4, 51, 0
6, 225476, Note_on_c, 4, 52, 88
6, 225596, Note_on_c, 4, 52, 0
6, 225596, Note_on_c, 4, 43, 67
6, 225717, Note_on_c, 4, 43, 0
6, 225717, Note_on_c, 4, 55, 99
6, 225837, Note_on_c, 4, 55, 0
6, 225837, Note_on_c, 4, 54, 84
6, 225957, Note_on_c, 4, 54, 0
6, 225957, Note_on_c, 4, 55, 87
6, 226077, Note_on_c, 4, 55, 0
6, 226077, Note_on_c, 4, 48, 73
6, 226200, Note_on_c, 4, 48, 0
6, 226200, Note_on_c, 4, 60, 114
6, 226320, Note_on_c, 4, 60, 0
6, 226320, Note_on_c, 4, 59, 87
6, 226440, Note_on_c, 4, 59, 0
6, 226440, Note_on_c, 4, 60, 90
6, 226560, Note_on_c, 4, 60, 0
6, 226560, Note_on_c, 4, 76, 0
6, 226560, Note_on_c, 4, 70, 0
6, 226560, Note_on_c, 4, 67, 0
6, 226560, Note_on_c, 4, 82, 126
6, 226560, Control_c, 4, 64, 127
6, 226560, Note_on_c, 4, 37, 100
6, 226560, Note_on_c, 4, 49, 100
6, 226680, Note_on_c, 4, 82, 0
6, 226680, Note_on_c, 4, 89, 126
6, 226800, Note_on_c, 4, 89, 0
6, 226800, Note_on_c, 4, 85, 90
6, 226920, Note_on_c, 4, 85, 0
6, 226920, Note_on_c, 4, 82, 72
6, 227040, Note_on_c, 4, 82, 0
6, 227040, Note_on_c, 4, 77, 70
6, 227160, Note_on_c, 4, 77, 0
6, 227160, Note_on_c, 4, 85, 126
6, 227280, Note_on_c, 4, 85, 0
6, 227280, Note_on_c, 4, 82, 86
6, 227400, Note_on_c, 4, 82, 0
6, 227400, Note_on_c, 4, 77, 68
6, 227520, Note_on_c, 4, 77, 0
6, 227520, Note_on_c, 4, 73, 63
6, 227637, Note_on_c, 4, 73, 0
6, 227637, Note_on_c, 4, 82, 126
6, 227757, Note_on_c, 4, 82, 0
6, 227757, Note_on_c, 4, 77, 92
6, 227873, Note_on_c, 4, 77, 0
6, 227873, Note_on_c, 4, 73, 72
6, 227992, Note_on_c, 4, 73, 0
6, 227992, Note_on_c, 4, 70, 70
6, 228112, Note_on_c, 4, 70, 0
6, 228112, Note_on_c, 4, 77, 126
6, 228228, Note_on_c, 4, 77, 0
6, 228228, Note_on_c, 4, 73, 79
6, 228346, Note_on_c, 4, 73, 0
6, 228346, Note_on_c, 4, 70, 78
6, 228480, Note_on_c, 4, 70, 0
6, 228480, Note_on_c, 4, 49, 0
6, 228480, Note_on_c, 4, 37, 0
6, 228480, Note_on_c, 4, 67, 125
6, 228480, Note_on_c, 4, 70, 125
6, 228480, Note_on_c, 4, 76, 125
6, 228480, Control_c, 4, 64, 0
6, 228480, Note_on_c, 4, 36, 62
6, 228593, Note_on_c, 4, 36, 0
6, 228593, Note_on_c, 4, 48, 104
6, 228713, Note_on_c, 4, 48, 0
6, 228713, Note_on_c, 4, 47, 78
6, 228833, Note_on_c, 4, 47, 0
6, 228833, Note_on_c, 4, 48, 88
6, 228953, Note_on_c, 4, 48, 0
6, 228953, Note_on_c, 4, 40, 67
6, 229076, Note_on_c, 4, 40, 0
6, 229076, Note_on_c, 4, 52, 104
6, 229196, Note_on_c, 4, 52, 0
6, 229196, Note_on_c, 4, 51, 81
6, 229316, Note_on_c, 4, 51, 0
6, 229316, Note_on_c, 4, 52, 93
6, 229436, Note_on_c, 4, 52, 0
6, 229436, Note_on_c, 4, 43, 66
6, 229557, Note_on_c, 4, 43, 0
6, 229557, Note_on_c, 4, 55, 98
6, 229677, Note_on_c, 4, 55, 0
6, 229677, Note_on_c, 4, 54, 79
6, 229797, Note_on_c, 4, 54, 0
6, 229797, Note_on_c, 4, 55, 87
6, 229917, Note_on_c, 4, 55, 0
6, 229917, Note_on_c, 4, 48, 64
6, 230040, Note_on_c, 4, 48, 0
6, 230040, Note_on_c, 4, 60, 122
6, 230160, Note_on_c, 4, 60, 0
6, 230160, Note_on_c, 4, 59, 97
6, 230280, Note_on_c, 4, 59, 0
6, 230280, Note_on_c, 4, 60, 86
6, 230400, Note_on_c, 4, 60, 0
6, 230400, Note_on_c, 4, 76, 0
6, 230400, Note_on_c, 4, 70, 0
6, 230400, Note_on_c, 4, 67, 0
6, 230400, Note_on_c, 4, 82, 126
6, 230400, Control_c, 4, 64, 127
6, 230400, Note_on_c, 4, 49, 88
6, 230400, Note_on_c, 4, 61, 88
6, 230520, Note_on_c, 4, 82, 0
6, 230520, Note_on_c, 4, 89, 126
6, 230640, Note_on_c, 4, 89, 0
6, 230640, Note_on_c, 4, 85, 91
6, 230760, Note_on_c, 4, 85, 0
6, 230760, Note_on_c, 4, 82, 76
6, 230880, Note_on_c, 4, 82, 0
6, 230880, Note_on_c, 4, 77, 67
6, 231000, Note_on_c, 4, 77, 0
6, 231000, Note_on_c, 4, 85, 126
6, 231120, Note_on_c, 4, 85, 0
6, 231120, Note_on_c, 4, 82, 90
6, 231240, Note_on_c, 4, 82, 0
6, 231240, Note_on_c, 4, 77, 69
6, 231360, Note_on_c, 4, 77, 0
6, 231360, Note_on_c, 4, 73, 74
6, 231480, Note_on_c, 4, 73, 0
6, 231480, Note_on_c, 4, 82, 126
6, 231597, Note_on_c, 4, 82, 0
6, 231597, Note_on_c, 4, 77, 81
6, 231716, Note_on_c, 4, 77, 0
6, 231716, Note_on_c, 4, 73, 69
6, 231836, Note_on_c, 4, 73, 0
6, 231836, Note_on_c, 4, 70, 76
6, 231956, Note_on_c, 4, 70, 0
6, 231956, Note_on_c, 4, 77, 126
6, 232072, Note_on_c, 4, 77, 0
6, 232072, Note_on_c, 4, 73, 80
6, 232192, Note_on_c, 4, 73, 0
6, 232192, Note_on_c, 4, 70, 71
6, 232320, Note_on_c, 4, 70, 0
6, 232320, Note_on_c, 4, 61, 0
6, 232320, Note_on_c, 4, 49, 0
6, 232320, Control_c, 4, 64, 0
6, 232320, Note_on_c, 4, 51, 58
6, 232436, Note_on_c, 4, 66, 73
6, 232556, Note_on_c, 4, 66, 0
6, 232556, Note_on_c, 4, 70, 106
6, 232676, Note_on_c, 4, 70, 0
6, 232676, Note_on_c, 4, 66, 74
6, 232796, Note_on_c, 4, 66, 0
6, 232796, Note_on_c, 4, 71, 107
6, 232917, Note_on_c, 4, 71, 0
6, 232917, Note_on_c, 4, 66, 64
6, 233037, Note_on_c, 4, 66, 0
6, 233037, Note_on_c, 4, 71, 93
6, 233157, Note_on_c, 4, 71, 0
6, 233157, Note_on_c, 4, 66, 66
6, 233277, Note_on_c, 4, 66, 0
6, 233277, Note_on_c, 4, 51, 0
6, 233277, Note_on_c, 4, 53, 82
6, 233397, Note_on_c, 4, 63, 77
6, 233517, Note_on_c, 4, 63, 0
6, 233517, Note_on_c, 4, 66, 103
6, 233637, Note_on_c, 4, 66, 0
6, 233637, Note_on_c, 4, 63, 68
6, 233757, Note_on_c, 4, 63, 0
6, 233757, Note_on_c, 4, 69, 105
6, 233880, Note_on_c, 4, 69, 0
6, 233880, Note_on_c, 4, 63, 68
6, 234000, Note_on_c, 4, 63, 0
6, 234000, Note_on_c, 4, 65, 87
6, 234120, Note_on_c, 4, 65, 0
6, 234120, Note_on_c, 4, 63, 78
6, 234240, Note_on_c, 4, 63, 0
6, 234240, Note_on_c, 4, 53, 0
6, 234240, Note_on_c, 4, 54, 78
6, 234360, Note_on_c, 4, 63, 71
6, 234480, Note_on_c, 4, 63, 0
6, 234480, Note_on_c, 4, 69, 106
6, 234600, Note_on_c, 4, 69, 0
6, 234600, Note_on_c, 4, 63, 63
6, 234720, Note_on_c, 4, 63, 0
6, 234720, Note_on_c, 4, 70, 106
6, 234840, Note_on_c, 4, 70, 0
6, 234840, Note_on_c, 4, 61, 59
6, 234960, Note_on_c, 4, 61, 0
6, 234960, Note_on_c, 4, 66, 101
6, 235080, Note_on_c, 4, 66, 0
6, 235080, Note_on_c, 4, 61, 66
6, 235200, Note_on_c, 4, 61, 0
6, 235200, Note_on_c, 4, 54, 0
6, 235200, Note_on_c, 4, 52, 83
6, 235320, Note_on_c, 4, 61, 72
6, 235440, Note_on_c, 4, 61, 0
6, 235440, Note_on_c, 4, 67, 107
6, 235560, Note_on_c, 4, 67, 0
6, 235560, Note_on_c, 4, 61, 53
6, 235680, Note_on_c, 4, 61, 0
6, 235680, Note_on_c, 4, 70, 120
6, 235800, Note_on_c, 4, 70, 0
6, 235800, Note_on_c, 4, 61, 61
6, 235920, Note_on_c, 4, 61, 0
6, 235920, Note_on_c, 4, 67, 100
6, 236040, Note_on_c, 4, 67, 0
6, 236040, Note_on_c, 4, 61, 60
6, 236160, Note_on_c, 4, 61, 0
6, 236160, Note_on_c, 4, 52, 0
6, 236160, Note_on_c, 4, 53, 90
6, 236280, Note_on_c, 4, 60, 79
6, 236400, Note_on_c, 4, 60, 0
6, 236400, Note_on_c, 4, 67, 101
6, 236520, Note_on_c, 4, 67, 0
6, 236520, Note_on_c, 4, 60, 58
6, 236640, Note_on_c, 4, 60, 0
6, 236640, Note_on_c, 4, 68, 107
6, 236760, Note_on_c, 4, 68, 0
6, 236760, Note_on_c, 4, 60, 64
6, 236880, Note_on_c, 4, 60, 0
6, 236880, Note_on_c, 4, 67, 112
6, 237000, Note_on_c, 4, 67, 0
6, 237000, Note_on_c, 4, 60, 59
6, 237120, Note_on_c, 4, 60, 0
6, 237120, Note_on_c, 4, 53, 0
6, 237120, Note_on_c, 4, 49, 80
6, 237240, Note_on_c, 4, 61, 76
6, 237360, Note_on_c, 4, 61, 0
6, 237360, Note_on_c, 4, 65, 95
6, 237480, Note_on_c, 4, 65, 0
6, 237480, Note_on_c, 4, 61, 78
6, 237600, Note_on_c, 4, 61, 0
6, 237600, Note_on_c, 4, 68, 108
6, 237720, Note_on_c, 4, 68, 0
6, 237720, Note_on_c, 4, 61, 62
6, 237840, Note_on_c, 4, 61, 0
6, 237840, Note_on_c, 4, 65, 95
6, 237960, Note_on_c, 4, 65, 0
6, 237960, Note_on_c, 4, 61, 68
6, 238080, Note_on_c, 4, 61, 0
6, 238080, Note_on_c, 4, 49, 0
6, 238080, Note_on_c, 4, 46, 69
6, 238200, Note_on_c, 4, 61, 76
6, 238320, Note_on_c, 4, 61, 0
6, 238320, Note_on_c, 4, 65, 102
6, 238440, Note_on_c, 4, 65, 0
6, 238440, Note_on_c, 4, 61, 67
6, 238560, Note_on_c, 4, 61, 0
6, 238560, Note_on_c, 4, 66, 99
6, 238680, Note_on_c, 4, 66, 0
6, 238680, Note_on_c, 4, 61, 66
6, 238800, Note_on_c, 4, 61, 0
6, 238800, Note_on_c, 4, 65, 103
6, 238920, Note_on_c, 4, 65, 0
6, 238920, Note_on_c, 4, 61, 64
6, 239040, Note_on_c, 4, 61, 0
6, 239040, Note_on_c, 4, 46, 0
6, 239040, Note_on_c, 4, 48, 93
6, 239160, Note_on_c, 4, 58, 73
6, 239280, Note_on_c, 4, 58, 0
6, 239280, Note_on_c, 4, 61, 95
6, 239400, Note_on_c, 4, 61, 0
6, 239400, Note_on_c, 4, 58, 79
6, 239520, Note_on_c, 4, 58, 0
6, 239520, Note_on_c, 4, 64, 108
6, 239640, Note_on_c, 4, 64, 0
6, 239640, Note_on_c, 4, 58, 78
6, 239760, Note_on_c, 4, 58, 0
6, 239760, Note_on_c, 4, 60, 89
6, 239880, Note_on_c, 4, 60, 0
6, 239880, Note_on_c, 4, 58, 82
6, 239896, Note_on_c, 4, 48, 0
6, 240000, Note_on_c, 4, 58, 0
6, 240000, Note_on_c, 4, 56, 81
6, 240000, Note_on_c, 4, 49, 109
6, 240158, Note_on_c, 4, 56, 0
6, 240158, Note_on_c, 4, 61, 102
6, 240318, Note_on_c, 4, 61, 0
6, 240318, Note_on_c, 4, 65, 104
6, 240480, Note_on_c, 4, 65, 0
6, 240480, Note_on_c, 4, 49, 0
6, 240480, Note_on_c, 4, 68, 105
6, 240638, Note_on_c, 4, 68, 0
6, 240638, Note_on_c, 4, 73, 109
6, 240798, Note_on_c, 4, 73, 0
6, 240798, Note_on_c, 4, 77, 108
6, 240960, Note_on_c, 4, 77, 0
6, 240960, Note_on_c, 4, 80, 102
6, 240960, Note_on_c, 4, 44, 106
6, 241118, Note_on_c, 4, 80, 0
6, 241118, Note_on_c, 4, 84, 112
6, 241278, Note_on_c, 4, 84, 0
6, 241278, Note_on_c, 4, 89, 110
6, 241440, Note_on_c, 4, 89, 0
6, 241440, Note_on_c, 4, 44, 0
6, 241440, Note_on_c, 4, 84, 61
6, 241598, Note_on_c, 4, 84, 0
6, 241598, Note_on_c, 4, 80, 59
6, 241758, Note_on_c, 4, 80, 0
6, 241758, Note_on_c, 4, 77, 66
6, 241920, Note_on_c, 4, 77, 0
6, 241920, Note_on_c, 4, 85, 111
6, 241920, Note_on_c, 4, 46, 99
6, 242080, Note_on_c, 4, 85, 0
6, 242080, Note_on_c, 4, 84, 78
6, 242240, Note_on_c, 4, 84, 0
6, 242240, Note_on_c, 4, 82, 68
6, 242402, Note_on_c, 4, 82, 0
6, 242402, Note_on_c, 4, 46, 0
6, 242402, Note_on_c, 4, 80, 72
6, 242562, Note_on_c, 4, 80, 0
6, 242562, Note_on_c, 4, 79, 74
6, 242721, Note_on_c, 4, 79, 0
6, 242721, Note_on_c, 4, 77, 76
6, 242880, Note_on_c, 4, 77, 0
6, 242880, Note_on_c, 4, 76, 74
6, 242880, Note_on_c, 4, 48, 101
6, 243034, Note_on_c, 4, 76, 0
6, 243034, Note_on_c, 4, 73, 67
6, 243190, Note_on_c, 4, 73, 0
6, 243190, Note_on_c, 4, 72, 73
6, 243338, Note_on_c, 4, 72, 0
6, 243338, Note_on_c, 4, 48, 0
6, 243338, Note_on_c, 4, 70, 74
6, 243492, Note_on_c, 4, 70, 0
6, 243492, Note_on_c, 4, 68, 71
6, 243648, Note_on_c, 4, 68, 0
6, 243648, Note_on_c, 4, 67, 71
6, 243840, Note_on_c, 4, 67, 0
6, 243840, Note_on_c, 4, 65, 73
6, 243840, Note_on_c, 4, 41, 71
6, 244308, Note_on_c, 4, 41, 0
6, 244308, Note_on_c, 4, 65, 0
6, 251536, Control_c, 4, 64, 127
6, 251536, Note_on_c, 4, 53, 54
6, 251536, Note_on_c, 4, 57, 54
6, 251772, Note_on_c, 4, 57, 0
6, 251772, Note_on_c, 4, 60, 72
6, 252010, Note_on_c, 4, 60, 0
6, 252010, Note_on_c, 4, 57, 61
6, 252246, Note_on_c, 4, 57, 0
6, 252246, Note_on_c, 4, 60, 72
6, 252486, Note_on_c, 4, 60, 0
6, 252486, Note_on_c, 4, 57, 62
6, 252725, Note_on_c, 4, 57, 0
6, 252725, Note_on_c, 4, 60, 75
6, 252961, Note_on_c, 4, 60, 0
6, 252961, Note_on_c, 4, 84, 76
6, 252961, Note_on_c, 4, 81, 106
6, 252961, Note_on_c, 4, 57, 49
6, 253080, Note_on_c, 4, 84, 0
6, 253080, Note_on_c, 4, 86, 96
6, 253200, Note_on_c, 4, 86, 0
6, 253200, Note_on_c, 4, 57, 0
6, 253200, Note_on_c, 4, 84, 78
6, 253200, Control_c, 4, 64, 0
6, 253200, Note_on_c, 4, 60, 76
6, 253320, Note_on_c, 4, 84, 0
6, 253320, Note_on_c, 4, 82, 70
6, 253440, Note_on_c, 4, 82, 0
6, 253440, Note_on_c, 4, 60, 0
6, 253440, Note_on_c, 4, 81, 0
6, 253440, Note_on_c, 4, 53, 0
6, 253440, Note_on_c, 4, 81, 72
6, 253440, Note_on_c, 4, 77, 63
6, 253440, Control_c, 4, 64, 127
6, 253440, Note_on_c, 4, 53, 59
6, 253440, Note_on_c, 4, 57, 59
6, 253680, Note_on_c, 4, 57, 0
6, 253680, Note_on_c, 4, 81, 0
6, 253680, Note_on_c, 4, 77, 0
6, 253680, Note_on_c, 4, 60, 67
6, 253920, Note_on_c, 4, 60, 0
6, 253920, Note_on_c, 4, 84, 72
6, 253920, Note_on_c, 4, 81, 96
6, 253920, Note_on_c, 4, 57, 59
6, 254040, Note_on_c, 4, 84, 0
6, 254040, Note_on_c, 4, 86, 92
6, 254160, Note_on_c, 4, 86, 0
6, 254160, Note_on_c, 4, 57, 0
6, 254160, Note_on_c, 4, 84, 74
6, 254160, Note_on_c, 4, 60, 67
6, 254280, Note_on_c, 4, 84, 0
6, 254280, Note_on_c, 4, 82, 64
6, 254400, Note_on_c, 4, 82, 0
6, 254400, Note_on_c, 4, 60, 0
6, 254400, Note_on_c, 4, 81, 0
6, 254400, Note_on_c, 4, 81, 73
6, 254400, Note_on_c, 4, 77, 61
6, 254400, Note_on_c, 4, 57, 58
6, 254640, Note_on_c, 4, 57, 0
6, 254640, Note_on_c, 4, 77, 0
6, 254640, Note_on_c, 4, 81, 0
6, 254640, Note_on_c, 4, 60, 74
6, 254880, Note_on_c, 4, 60, 0
6, 254880, Note_on_c, 4, 84, 74
6, 254880, Note_on_c, 4, 81, 89
6, 254880, Note_on_c, 4, 57, 62
6, 255120, Note_on_c, 4, 57, 0
6, 255120, Control_c, 4, 64, 0
6, 255120, Note_on_c, 4, 60, 64
6, 255360, Note_on_c, 4, 60, 0
6, 255360, Note_on_c, 4, 81, 0
6, 255360, Note_on_c, 4, 84, 0
6, 255360, Note_on_c, 4, 53, 0
6, 255360, Note_on_c, 4, 76, 54
6, 255360, Note_on_c, 4, 79, 54
6, 255360, Note_on_c, 4, 58, 55
6, 255360, Note_on_c, 4, 53, 69
6, 255600, Note_on_c, 4, 58, 0
6, 255600, Note_on_c, 4, 76, 0
6, 255600, Note_on_c, 4, 79, 0
6, 255600, Note_on_c, 4, 60, 63
6, 255840, Note_on_c, 4, 60, 0
6, 255840, Note_on_c, 4, 76, 75
6, 255840, Note_on_c, 4, 79, 75
6, 255840, Note_on_c, 4, 58, 55
6, 256080, Note_on_c, 4, 58, 0
6, 256080, Note_on_c, 4, 79, 0
6, 256080, Note_on_c, 4, 76, 0
6, 256080, Note_on_c, 4, 60, 68
6, 256320, Note_on_c, 4, 60, 0
6, 256320, Note_on_c, 4, 76, 71
6, 256320, Note_on_c, 4, 79, 71
6, 256320, Note_on_c, 4, 58, 62
6, 256560, Note_on_c, 4, 58, 0
6, 256560, Note_on_c, 4, 79, 0
6, 256560, Note_on_c, 4, 76, 0
6, 256560, Note_on_c, 4, 60, 69
6, 256800, Note_on_c, 4, 60, 0
6, 256800, Note_on_c, 4, 82, 74
6, 256800, Note_on_c, 4, 58, 56
6, 257040, Note_on_c, 4, 58, 0
6, 257040, Note_on_c, 4, 82, 0
6, 257040, Note_on_c, 4, 79, 74
6, 257040, Note_on_c, 4, 60, 69
6, 257280, Note_on_c, 4, 60, 0
6, 257280, Note_on_c, 4, 79, 0
6, 257280, Note_on_c, 4, 53, 0
6, 257280, Note_on_c, 4, 77, 72
6, 257280, Note_on_c, 4, 53, 60
6, 257280, Note_on_c, 4, 58, 60
6, 257520, Note_on_c, 4, 58, 0
6, 257520, Note_on_c, 4, 77, 0
6, 257520, Note_on_c, 4, 76, 70
6, 257520, Note_on_c, 4, 60, 66
6, 257760, Note_on_c, 4, 60, 0
6, 257760, Note_on_c, 4, 76, 0
6, 257760, Note_on_c, 4, 74, 68
6, 257760, Note_on_c, 4, 58, 59
6, 258000, Note_on_c, 4, 58, 0
6, 258000, Note_on_c, 4, 74, 0
6, 258000, Note_on_c, 4, 72, 68
6, 258000, Note_on_c, 4, 60, 73
6, 258240, Note_on_c, 4, 60, 0
6, 258240, Note_on_c, 4, 72, 0
6, 258240, Note_on_c, 4, 71, 72
6, 258240, Note_on_c, 4, 55, 56
6, 258480, Note_on_c, 4, 55, 0
6, 258480, Note_on_c, 4, 71, 0
6, 258480, Note_on_c, 4, 72, 92
6, 258480, Note_on_c, 4, 60, 75
6, 258726, Note_on_c, 4, 60, 0
6, 258726, Note_on_c, 4, 72, 0
6, 258726, Note_on_c, 4, 74, 100
6, 258726, Note_on_c, 4, 58, 59
6, 258974, Note_on_c, 4, 58, 0
6, 258974, Note_on_c, 4, 74, 0
6, 258974, Note_on_c, 4, 76, 96
6, 258974, Note_on_c, 4, 60, 66
6, 259200, Note_on_c, 4, 60, 0
6, 259200, Note_on_c, 4, 76, 0
6, 259200, Note_on_c, 4, 53, 0
6, 259216, Note_on_c, 4, 77, 96
6, 259216, Note_on_c, 4, 53, 60
6, 259216, Note_on_c, 4, 57, 60
6, 259456, Note_on_c, 4, 77, 0
6, 259456, Note_on_c, 4, 79, 90
6, 259516, Note_on_c, 4, 79, 0
6, 259516, Note_on_c, 4, 77, 74
6, 259574, Note_on_c, 4, 77, 0
6, 259574, Note_on_c, 4, 76, 79
6, 259694, Note_on_c, 4, 76, 0
6, 259694, Note_on_c, 4, 57, 0
6, 259694, Note_on_c, 4, 53, 0
6, 259694, Note_on_c, 4, 77, 89
6, 259812, Note_on_c, 4, 77, 0
6, 259926, Note_on_c, 4, 81, 105
6, 260045, Note_on_c, 4, 81, 0
6, 260161, Note_on_c, 4, 71, 45
6, 260161, Note_on_c, 4, 60, 62
6, 260161, Note_on_c, 4, 67, 62
6, 260161, Note_on_c, 4, 70, 62
6, 260318, Note_on_c, 4, 71, 0
6, 260318, Note_on_c, 4, 72, 70
6, 260478, Note_on_c, 4, 72, 0
6, 260478, Note_on_c, 4, 73, 82
6, 260640, Note_on_c, 4, 73, 0
6, 260640, Note_on_c, 4, 74, 76
6, 260798, Note_on_c, 4, 74, 0
6, 260798, Note_on_c, 4, 75, 79
6, 260960, Note_on_c, 4, 75, 0
6, 260960, Note_on_c, 4, 76, 87
6, 261120, Note_on_c, 4, 76, 0
6, 261120, Note_on_c, 4, 70, 0
6, 261120, Note_on_c, 4, 67, 0
6, 261120, Note_on_c, 4, 60, 0
6, 261121, Note_on_c, 4, 77, 100
6, 261121, Note_on_c, 4, 65, 74
6, 261121, Note_on_c, 4, 69, 74
6, 261360, Note_on_c, 4, 77, 0
6, 261360, Note_on_c, 4, 79, 100
6, 261420, Note_on_c, 4, 79, 0
6, 261420, Note_on_c, 4, 77, 82
6, 261480, Note_on_c, 4, 77, 0
6, 261480, Note_on_c, 4, 76, 74
6, 261600, Note_on_c, 4, 76, 0
6, 261600, Note_on_c, 4, 69, 0
6, 261600, Note_on_c, 4, 65, 0
6, 261600, Note_on_c, 4, 77, 87
6, 261841, Note_on_c, 4, 77, 0
6, 261841, Note_on_c, 4, 81, 106
6, 261960, Note_on_c, 4, 81, 0
6, 262082, Note_on_c, 4, 84, 85
6, 262082, Note_on_c, 4, 60, 64
6, 262082, Note_on_c, 4, 64, 64
6, 262082, Note_on_c, 4, 70, 64
6, 262246, Note_on_c, 4, 84, 0
6, 262246, Note_on_c, 4, 83, 70
6, 262405, Note_on_c, 4, 83, 0
6, 262405, Note_on_c, 4, 82, 58
6, 262561, Note_on_c, 4, 82, 0
6, 262561, Note_on_c, 4, 81, 59
6, 262720, Note_on_c, 4, 81, 0
6, 262720, Note_on_c, 4, 82, 76
6, 262878, Note_on_c, 4, 82, 0
6, 262878, Note_on_c, 4, 79, 60
6, 263040, Note_on_c, 4, 79, 0
6, 263040, Note_on_c, 4, 70, 0
6, 263040, Note_on_c, 4, 64, 0
6, 263040, Note_on_c, 4, 60, 0
6, 263040, Note_on_c, 4, 77, 75
6, 263040, Note_on_c, 4, 65, 76
6, 263040, Note_on_c, 4, 69, 76
6, 263280, Note_on_c, 4, 77, 0
6, 263280, Note_on_c, 4, 79, 88
6, 263340, Note_on_c, 4, 79, 0
6, 263340, Note_on_c, 4, 77, 79
6, 263400, Note_on_c, 4, 77, 0
6, 263400, Note_on_c, 4, 76, 71
6, 263520, Note_on_c, 4, 76, 0
6, 263520, Note_on_c, 4, 69, 0
6, 263520, Note_on_c, 4, 65, 0
6, 263520, Note_on_c, 4, 77, 95
6, 263760, Note_on_c, 4, 77, 0
6, 263760, Note_on_c, 4, 81, 100
6, 263877, Note_on_c, 4, 81, 0
6, 263996, Note_on_c, 4, 71, 50
6, 263996, Note_on_c, 4, 60, 68
6, 263996, Note_on_c, 4, 67, 68
6, 263996, Note_on_c, 4, 70, 68
6, 264154, Note_on_c, 4, 71, 0
6, 264154, Note_on_c, 4, 72, 80
6, 264312, Note_on_c, 4, 72, 0
6, 264312, Note_on_c, 4, 73, 76
6, 264480, Note_on_c, 4, 73, 0
6, 264480, Note_on_c, 4, 74, 83
6, 264638, Note_on_c, 4, 74, 0
6, 264638, Note_on_c, 4, 75, 76
6, 264798, Note_on_c, 4, 75, 0
6, 264798, Note_on_c, 4, 76, 74
6, 264960, Note_on_c, 4, 76, 0
6, 264960, Note_on_c, 4, 70, 0
6, 264960, Note_on_c, 4, 67, 0
6, 264960, Note_on_c, 4, 60, 0
6, 264961, Note_on_c, 4, 77, 95
6, 264961, Note_on_c, 4, 65, 72
6, 264961, Note_on_c, 4, 69, 72
6, 265200, Note_on_c, 4, 77, 0
6, 265200, Note_on_c, 4, 79, 98
6, 265260, Note_on_c, 4, 79, 0
6, 265260, Note_on_c, 4, 77, 77
6, 265320, Note_on_c, 4, 77, 0
6, 265320, Note_on_c, 4, 76, 78
6, 265440, Note_on_c, 4, 76, 0
6, 265440, Note_on_c, 4, 69, 0
6, 265440, Note_on_c, 4, 65, 0
6, 265440, Note_on_c, 4, 77, 89
6, 265681, Note_on_c, 4, 77, 0
6, 265681, Note_on_c, 4, 81, 108
6, 265800, Note_on_c, 4, 81, 0
6, 265922, Note_on_c, 4, 84, 90
6, 265922, Note_on_c, 4, 60, 66
6, 265922, Note_on_c, 4, 64, 66
6, 265922, Note_on_c, 4, 70, 66
6, 266086, Note_on_c, 4, 84, 0
6, 266086, Note_on_c, 4, 83, 75
6, 266245, Note_on_c, 4, 83, 0
6, 266245, Note_on_c, 4, 82, 67
6, 266401, Note_on_c, 4, 82, 0
6, 266401, Note_on_c, 4, 81, 60
6, 266560, Note_on_c, 4, 81, 0
6, 266560, Note_on_c, 4, 82, 81
6, 266718, Note_on_c, 4, 82, 0
6, 266718, Note_on_c, 4, 79, 58
6, 266880, Note_on_c, 4, 79, 0
6, 266880, Note_on_c, 4, 70, 0
6, 266880, Note_on_c, 4, 64, 0
6, 266880, Note_on_c, 4, 60, 0
6, 266880, Note_on_c, 4, 77, 64
6, 266880, Note_on_c, 4, 65, 66
6, 266880, Note_on_c, 4, 69, 66
6, 267038, Note_on_c, 4, 77, 0
6, 267038, Note_on_c, 4, 81, 83
6, 267120, Note_on_c, 4, 69, 0
6, 267120, Note_on_c, 4, 65, 0
6, 267198, Note_on_c, 4, 81, 0
6, 267198, Note_on_c, 4, 77, 59
6, 267360, Note_on_c, 4, 77, 0
6, 267360, Note_on_c, 4, 84, 92
6, 267360, Note_on_c, 4, 60, 57
6, 267360, Note_on_c, 4, 67, 57
6, 267518, Note_on_c, 4, 84, 0
6, 267518, Note_on_c, 4, 82, 72
6, 267600, Note_on_c, 4, 67, 0
6, 267600, Note_on_c, 4, 60, 0
6, 267678, Note_on_c, 4, 82, 0
6, 267678, Note_on_c, 4, 79, 56
6, 267840, Note_on_c, 4, 79, 0
6, 267840, Note_on_c, 4, 77, 56
6, 267840, Note_on_c, 4, 65, 57
6, 267840, Note_on_c, 4, 69, 57
6, 267998, Note_on_c, 4, 77, 0
6, 267998, Note_on_c, 4, 81, 70
6, 268080, Note_on_c, 4, 69, 0
6, 268080, Note_on_c, 4, 65, 0
6, 268158, Note_on_c, 4, 81, 0
6, 268158, Note_on_c, 4, 77, 45
6, 268320, Note_on_c, 4, 77, 0
6, 268320, Note_on_c, 4, 84, 73
6, 268320, Note_on_c, 4, 60, 56
6, 268320, Note_on_c, 4, 67, 56
6, 268478, Note_on_c, 4, 84, 0
6, 268478, Note_on_c, 4, 82, 64
6, 268556, Note_on_c, 4, 67, 0
6, 268556, Note_on_c, 4, 60, 0
6, 268634, Note_on_c, 4, 82, 0
6, 268634, Note_on_c, 4, 79, 52
6, 268800, Note_on_c, 4, 79, 0
6, 268800, Note_on_c, 4, 77, 56
6, 268800, Note_on_c, 4, 65, 43
6, 268800, Note_on_c, 4, 69, 43
6, 269032, Note_on_c, 4, 77, 0
6, 269272, Note_on_c, 4, 69, 0
6, 269272, Note_on_c, 4, 65, 0
6, 269272, Note_on_c, 4, 81, 51
6, 269516, Note_on_c, 4, 81, 0
6, 269756, Note_on_c, 4, 84, 62
6, 270000, Note_on_c, 4, 84, 0
6, 270720, Note_on_c, 4, 69, 51
6, 270720, Note_on_c, 4, 72, 51
6, 271680, Note_on_c, 4, 72, 0
6, 271680, Note_on_c, 4, 69, 0
6, 271680, Note_on_c, 4, 65, 54
6, 271680, Note_on_c, 4, 69, 54
6, 271680, Note_on_c, 4, 50, 57
6, 271680, Note_on_c, 4, 57, 57
6, 272640, Note_on_c, 4, 57, 0
6, 272640, Note_on_c, 4, 65, 0
6, 272640, Note_on_c, 4, 69, 0
6, 272640, Note_on_c, 4, 50, 0
6, 272640, Note_on_c, 4, 65, 73
6, 272640, Note_on_c, 4, 74, 73
6, 272640, Note_on_c, 4, 46, 53
6, 272640, Note_on_c, 4, 55, 53
6, 273600, Note_on_c, 4, 55, 0
6, 273600, Note_on_c, 4, 65, 0
6, 273600, Note_on_c, 4, 74, 0
6, 273600, Note_on_c, 4, 46, 0
6, 273600, Note_on_c, 4, 64, 44
6, 273600, Note_on_c, 4, 67, 44
6, 273600, Note_on_c, 4, 48, 72
6, 273600, Note_on_c, 4, 58, 72
6, 274456, Note_on_c, 4, 58, 0
6, 274456, Note_on_c, 4, 64, 0
6, 274456, Note_on_c, 4, 67, 0
6, 274456, Note_on_c, 4, 48, 0
6, 274570, Note_on_c, 4, 69, 65
6, 274570, Note_on_c, 4, 65, 60
6, 274570, Note_on_c, 4, 53, 48
6, 274570, Note_on_c, 4, 57, 48
6, 274805, Note_on_c, 4, 69, 0
6, 274805, Note_on_c, 4, 72, 68
6, 275045, Note_on_c, 4, 72, 0
6, 275045, Note_on_c, 4, 57, 0
6, 275045, Note_on_c, 4, 53, 0
6, 275045, Note_on_c, 4, 65, 0
6, 275045, Note_on_c, 4, 70, 61
6, 275045, Note_on_c, 4, 62, 67
6, 275045, Note_on_c, 4, 46, 46
6, 275045, Note_on_c, 4, 55, 46
6, 275280, Note_on_c, 4, 70, 0
6, 275280, Note_on_c, 4, 67, 50
6, 275520, Note_on_c, 4, 67, 0
6, 275520, Note_on_c, 4, 55, 0
6, 275520, Note_on_c, 4, 46, 0
6, 275520, Note_on_c, 4, 62, 0
6, 275520, Note_on_c, 4, 65, 58
6, 275520, Note_on_c, 4, 60, 65
6, 275520, Note_on_c, 4, 48, 50
6, 275520, Note_on_c, 4, 57, 50
6, 275992, Note_on_c, 4, 57, 0
6, 275992, Note_on_c, 4, 65, 0
6, 275992, Note_on_c, 4, 60, 0
6, 275992, Note_on_c, 4, 67, 59
6, 275992, Note_on_c, 4, 64, 92
6, 275992, Note_on_c, 4, 60, 64
6, 276480, Note_on_c, 4, 60, 0
6, 276480, Note_on_c, 4, 48, 0
6, 276480, Note_on_c, 4, 67, 0
6, 276480, Note_on_c, 4, 64, 0
6, 276480, Note_on_c, 4, 69, 65
6, 276480, Note_on_c, 4, 65, 90
6, 276480, Note_on_c, 4, 53, 45
6, 276480, Note_on_c, 4, 60, 45
6, 276712, Note_on_c, 4, 65, 0
6, 276712, Note_on_c, 4, 69, 0
6, 276712, Note_on_c, 4, 70, 69
6, 276772, Note_on_c, 4, 70, 0
6, 276772, Note_on_c, 4, 69, 54
6, 276832, Note_on_c, 4, 69, 0
6, 276832, Note_on_c, 4, 67, 52
6, 276952, Note_on_c, 4, 67, 0
6, 276952, Note_on_c, 4, 53, 0
6, 276952, Note_on_c, 4, 60, 0
6, 276952, Note_on_c, 4, 69, 64
6, 277200, Note_on_c, 4, 69, 0
6, 277200, Note_on_c, 4, 70, 67
6, 277200, Note_on_c, 4, 67, 69
6, 277440, Note_on_c, 4, 67, 0
6, 277440, Note_on_c, 4, 70, 0
6, 277440, Note_on_c, 4, 72, 66
6, 277440, Note_on_c, 4, 69, 86
6, 277912, Note_on_c, 4, 69, 0
6, 277912, Note_on_c, 4, 72, 0
6, 278393, Note_on_c, 4, 52, 75
6, 278393, Note_on_c, 4, 45, 57
6, 278512, Note_on_c, 4, 52, 0
6, 278512, Note_on_c, 4, 53, 90
6, 278632, Note_on_c, 4, 53, 0
6, 278632, Note_on_c, 4, 55, 87
6, 278752, Note_on_c, 4, 55, 0
6, 278752, Note_on_c, 4, 57, 90
6, 278872, Note_on_c, 4, 57, 0
6, 278872, Note_on_c, 4, 59, 73
6, 278992, Note_on_c, 4, 59, 0
6, 278992, Note_on_c, 4, 60, 92
6, 279112, Note_on_c, 4, 60, 0
6, 279112, Note_on_c, 4, 62, 96
6, 279236, Note_on_c, 4, 62, 0
6, 279236, Note_on_c, 4, 64, 103
6, 279356, Note_on_c, 4, 64, 0
6, 279356, Note_on_c, 4, 45, 0
6, 279356, Note_on_c, 4, 66, 106
6, 279356, Note_on_c, 4, 38, 68
6, 279480, Note_on_c, 4, 66, 0
6, 279480, Note_on_c, 4, 67, 92
6, 279600, Note_on_c, 4, 67, 0
6, 279600, Note_on_c, 4, 69, 92
6, 279720, Note_on_c, 4, 69, 0
6, 279720, Note_on_c, 4, 71, 100
6, 279841, Note_on_c, 4, 71, 0
6, 279841, Note_on_c, 4, 72, 101
6, 279961, Note_on_c, 4, 72, 0
6, 279961, Note_on_c, 4, 74, 93
6, 280085, Note_on_c, 4, 74, 0
6, 280085, Note_on_c, 4, 76, 98
6, 280209, Note_on_c, 4, 76, 0
6, 280209, Note_on_c, 4, 78, 101
6, 280320, Note_on_c, 4, 78, 0
6, 280320, Note_on_c, 4, 38, 0
6, 280325, Note_on_c, 4, 79, 99
6, 280325, Note_on_c, 4, 43, 75
6, 280445, Note_on_c, 4, 79, 0
6, 280445, Note_on_c, 4, 81, 100
6, 280562, Note_on_c, 4, 81, 0
6, 280562, Note_on_c, 4, 79, 81
6, 280682, Note_on_c, 4, 79, 0
6, 280682, Note_on_c, 4, 78, 73
6, 280802, Note_on_c, 4, 78, 0
6, 280802, Note_on_c, 4, 79, 87
6, 280922, Note_on_c, 4, 79, 0
6, 280922, Note_on_c, 4, 81, 97
6, 281042, Note_on_c, 4, 81, 0
6, 281042, Note_on_c, 4, 79, 76
6, 281162, Note_on_c, 4, 79, 0
6, 281162, Note_on_c, 4, 81, 90
6, 281282, Note_on_c, 4, 81, 0
6, 281282, Note_on_c, 4, 43, 0
6, 281282, Note_on_c, 4, 82, 94
6, 281282, Note_on_c, 4, 36, 64
6, 281402, Note_on_c, 4, 82, 0
6, 281402, Note_on_c, 4, 81, 71
6, 281521, Note_on_c, 4, 81, 0
6, 281521, Note_on_c, 4, 79, 68
6, 281640, Note_on_c, 4, 79, 0
6, 281640, Note_on_c, 4, 77, 71
6, 281756, Note_on_c, 4, 77, 0
6, 281756, Note_on_c, 4, 76, 78
6, 281872, Note_on_c, 4, 76, 0
6, 281872, Note_on_c, 4, 74, 69
6, 281989, Note_on_c, 4, 74, 0
6, 281989, Note_on_c, 4, 72, 71
6, 282108, Note_on_c, 4, 72, 0
6, 282108, Note_on_c, 4, 70, 68
6, 282240, Note_on_c, 4, 70, 0
6, 282240, Note_on_c, 4, 36, 0
6, 282240, Note_on_c, 4, 69, 69
6, 282240, Note_on_c, 4, 41, 117
6, 282353, Note_on_c, 4, 69, 0
6, 282353, Note_on_c, 4, 77, 107
6, 282473, Note_on_c, 4, 77, 0
6, 282473, Note_on_c, 4, 72, 70
6, 282593, Note_on_c, 4, 72, 0
6, 282593, Note_on_c, 4, 69, 66
6, 282716, Note_on_c, 4, 69, 0
6, 282716, Note_on_c, 4, 41, 0
6, 282716, Note_on_c, 4, 67, 73
6, 282716, Note_on_c, 4, 46, 120
6, 282836, Note_on_c, 4, 67, 0
6, 282836, Note_on_c, 4, 74, 106
6, 282956, Note_on_c, 4, 74, 0
6, 282956, Note_on_c, 4, 70, 72
6, 283076, Note_on_c, 4, 70, 0
6, 283076, Note_on_c, 4, 67, 70
6, 283196, Note_on_c, 4, 67, 0
6, 283196, Note_on_c, 4, 46, 0
6, 283196, Note_on_c, 4, 65, 75
6, 283196, Note_on_c, 4, 48, 125
6, 283316, Note_on_c, 4, 65, 0
6, 283316, Note_on_c, 4, 72, 112
6, 283436, Note_on_c, 4, 72, 0
6, 283436, Note_on_c, 4, 69, 70
6, 283556, Note_on_c, 4, 69, 0
6, 283556, Note_on_c, 4, 65, 61
6, 283676, Note_on_c, 4, 65, 0
6, 283676, Note_on_c, 4, 48, 0
6, 283676, Note_on_c, 4, 64, 71
6, 283676, Note_on_c, 4, 36, 90
6, 283800, Note_on_c, 4, 64, 0
6, 283800, Note_on_c, 4, 70, 107
6, 283916, Note_on_c, 4, 70, 0
6, 283916, Note_on_c, 4, 67, 79
6, 284036, Note_on_c, 4, 67, 0
6, 284036, Note_on_c, 4, 64, 73
6, 284160, Note_on_c, 4, 64, 0
6, 284160, Note_on_c, 4, 36, 0
6, 284160, Note_on_c, 4, 65, 112
6, 284160, Note_on_c, 4, 41, 107
6, 284636, Note_on_c, 4, 41, 0
6, 284636, Note_on_c, 4, 65, 0
6, 284636, Note_on_c, 4, 84, 116
6, 284760, Note_on_c, 4, 84, 0
6, 284760, Note_on_c, 4, 81, 84
6, 284880, Note_on_c, 4, 81, 0
6, 284880, Note_on_c, 4, 77, 63
6, 285000, Note_on_c, 4, 77, 0
6, 285000, Note_on_c, 4, 72, 58
6, 285121, Note_on_c, 4, 72, 0
6, 285121, Note_on_c, 4, 82, 112
6, 285121, Note_on_c, 4, 36, 78
6, 285241, Note_on_c, 4, 36, 0
6, 285241, Note_on_c, 4, 82, 0
6, 285241, Note_on_c, 4, 79, 68
6, 285241, Note_on_c, 4, 40, 92
6, 285361, Note_on_c, 4, 40, 0
6, 285361, Note_on_c, 4, 79, 0
6, 285361, Note_on_c, 4, 76, 65
6, 285361, Note_on_c, 4, 43, 95
6, 285480, Note_on_c, 4, 43, 0
6, 285480, Note_on_c, 4, 76, 0
6, 285480, Note_on_c, 4, 72, 61
6, 285480, Note_on_c, 4, 48, 94
6, 285600, Note_on_c, 4, 48, 0
6, 285600, Note_on_c, 4, 72, 0
6, 285600, Note_on_c, 4, 70, 62
6, 285600, Note_on_c, 4, 52, 98
6, 285720, Note_on_c, 4, 52, 0
6, 285720, Note_on_c, 4, 70, 0
6, 285720, Note_on_c, 4, 72, 88
6, 285720, Note_on_c, 4, 48, 72
6, 285840, Note_on_c, 4, 48, 0
6, 285840, Note_on_c, 4, 72, 0
6, 285840, Note_on_c, 4, 70, 74
6, 285840, Note_on_c, 4, 52, 93
6, 285960, Note_on_c, 4, 52, 0
6, 285960, Note_on_c, 4, 70, 0
6, 285960, Note_on_c, 4, 72, 88
6, 285960, Note_on_c, 4, 48, 75
6, 286080, Note_on_c, 4, 48, 0
6, 286080, Note_on_c, 4, 72, 0
6, 286080, Note_on_c, 4, 69, 67
6, 286080, Note_on_c, 4, 53, 91
6, 286200, Note_on_c, 4, 69, 0
6, 286200, Note_on_c, 4, 72, 92
6, 286320, Note_on_c, 4, 72, 0
6, 286320, Note_on_c, 4, 77, 105
6, 286440, Note_on_c, 4, 77, 0
6, 286440, Note_on_c, 4, 81, 107
6, 286560, Note_on_c, 4, 81, 0
6, 286560, Note_on_c, 4, 53, 0
6, 286560, Note_on_c, 4, 84, 105
6, 286681, Note_on_c, 4, 84, 0
6, 286681, Note_on_c, 4, 81, 75
6, 286802, Note_on_c, 4, 81, 0
6, 286802, Note_on_c, 4, 77, 71
6, 286921, Note_on_c, 4, 77, 0
6, 286921, Note_on_c, 4, 72, 62
6, 287040, Note_on_c, 4, 72, 0
6, 287040, Note_on_c, 4, 82, 117
6, 287040, Note_on_c, 4, 36, 73
6, 287160, Note_on_c, 4, 36, 0
6, 287160, Note_on_c, 4, 82, 0
6, 287160, Note_on_c, 4, 79, 76
6, 287160, Note_on_c, 4, 40, 88
6, 287277, Note_on_c, 4, 40, 0
6, 287277, Note_on_c, 4, 79, 0
6, 287277, Note_on_c, 4, 76, 68
6, 287277, Note_on_c, 4, 43, 95
6, 287393, Note_on_c, 4, 43, 0
6, 287393, Note_on_c, 4, 76, 0
6, 287393, Note_on_c, 4, 72, 58
6, 287393, Note_on_c, 4, 48, 98
6, 287509, Note_on_c, 4, 48, 0
6, 287509, Note_on_c, 4, 72, 0
6, 287509, Note_on_c, 4, 70, 67
6, 287509, Note_on_c, 4, 52, 92
6, 287626, Note_on_c, 4, 52, 0
6, 287626, Note_on_c, 4, 70, 0
6, 287626, Note_on_c, 4, 72, 94
6, 287626, Note_on_c, 4, 48, 71
6, 287746, Note_on_c, 4, 48, 0
6, 287746, Note_on_c, 4, 72, 0
6, 287746, Note_on_c, 4, 70, 73
6, 287746, Note_on_c, 4, 52, 88
6, 287864, Note_on_c, 4, 52, 0
6, 287864, Note_on_c, 4, 70, 0
6, 287864, Note_on_c, 4, 72, 89
6, 287864, Note_on_c, 4, 48, 80
6, 288000, Note_on_c, 4, 48, 0
6, 288000, Note_on_c, 4, 72, 0
6, 288000, Note_on_c, 4, 69, 70
6, 288000, Note_on_c, 4, 53, 95
6, 288113, Note_on_c, 4, 69, 0
6, 288113, Note_on_c, 4, 72, 91
6, 288233, Note_on_c, 4, 72, 0
6, 288233, Note_on_c, 4, 77, 106
6, 288356, Note_on_c, 4, 77, 0
6, 288356, Note_on_c, 4, 81, 110
6, 288477, Note_on_c, 4, 81, 0
6, 288477, Note_on_c, 4, 53, 0
6, 288477, Note_on_c, 4, 84, 103
6, 288600, Note_on_c, 4, 84, 0
6, 288600, Note_on_c, 4, 81, 72
6, 288720, Note_on_c, 4, 81, 0
6, 288720, Note_on_c, 4, 77, 67
6, 288840, Note_on_c, 4, 77, 0
6, 288840, Note_on_c, 4, 72, 57
6, 288960, Note_on_c, 4, 72, 0
6, 288960, Note_on_c, 4, 82, 122
6, 288960, Note_on_c, 4, 36, 75
6, 289077, Note_on_c, 4, 36, 0
6, 289077, Note_on_c, 4, 82, 0
6, 289077, Note_on_c, 4, 79, 67
6, 289077, Note_on_c, 4, 40, 87
6, 289193, Note_on_c, 4, 40, 0
6, 289193, Note_on_c, 4, 79, 0
6, 289193, Note_on_c, 4, 76, 74
6, 289193, Note_on_c, 4, 43, 90
6, 289312, Note_on_c, 4, 43, 0
6, 289312, Note_on_c, 4, 76, 0
6, 289312, Note_on_c, 4, 72, 68
6, 289312, Note_on_c, 4, 48, 100
6, 289428, Note_on_c, 4, 48, 0
6, 289428, Note_on_c, 4, 72, 0
6, 289428, Note_on_c, 4, 70, 72
6, 289428, Note_on_c, 4, 52, 83
6, 289546, Note_on_c, 4, 52, 0
6, 289546, Note_on_c, 4, 70, 0
6, 289546, Note_on_c, 4, 72, 95
6, 289546, Note_on_c, 4, 48, 75
6, 289664, Note_on_c, 4, 48, 0
6, 289664, Note_on_c, 4, 72, 0
6, 289664, Note_on_c, 4, 70, 76
6, 289664, Note_on_c, 4, 52, 94
6, 289784, Note_on_c, 4, 52, 0
6, 289784, Note_on_c, 4, 70, 0
6, 289784, Note_on_c, 4, 72, 95
6, 289784, Note_on_c, 4, 48, 72
6, 289920, Note_on_c, 4, 48, 0
6, 289920, Note_on_c, 4, 72, 0
6, 289920, Note_on_c, 4, 69, 73
6, 289920, Control_c, 4, 64, 127
6, 289920, Note_on_c, 4, 53, 86
6, 290392, Note_on_c, 4, 53, 0
6, 290392, Note_on_c, 4, 69, 0
6, 290392, Note_on_c, 4, 81, 127
6, 290392, Note_on_c, 4, 84, 127
6, 290636, Note_on_c, 4, 84, 0
6, 290636, Note_on_c, 4, 81, 0
6, 290636, Note_on_c, 4, 72, 73
6, 290636, Note_on_c, 4, 81, 73
6, 290880, Note_on_c, 4, 53, 80
6, 290880, Note_on_c, 4, 65, 80
6, 291125, Note_on_c, 4, 81, 0
6, 291125, Note_on_c, 4, 72, 0
6, 291125, Note_on_c, 4, 69, 58
6, 291125, Note_on_c, 4, 72, 58
6, 291366, Note_on_c, 4, 72, 0
6, 291366, Note_on_c, 4, 65, 0
6, 291366, Note_on_c, 4, 53, 0
6, 291366, Note_on_c, 4, 69, 0
6, 291366, Note_on_c, 4, 81, 127
6, 291366, Note_on_c, 4, 84, 127
6, 291609, Note_on_c, 4, 84, 0
6, 291609, Note_on_c, 4, 81, 0
6, 291609, Note_on_c, 4, 72, 70
6, 291609, Note_on_c, 4, 81, 70
6, 291849, Control_c, 4, 64, 0
6, 291849, Control_c, 4, 64, 127
6, 291849, Note_on_c, 4, 53, 73
6, 291849, Note_on_c, 4, 65, 73
6, 292086, Note_on_c, 4, 81, 0
6, 292086, Note_on_c, 4, 72, 0
6, 292086, Note_on_c, 4, 69, 58
6, 292086, Note_on_c, 4, 72, 58
6, 292325, Note_on_c, 4, 72, 0
6, 292325, Note_on_c, 4, 65, 0
6, 292325, Note_on_c, 4, 53, 0
6, 292325, Note_on_c, 4, 69, 0
6, 292325, Note_on_c, 4, 81, 127
6, 292325, Note_on_c, 4, 84, 127
6, 292565, Note_on_c, 4, 84, 0
6, 292565, Note_on_c, 4, 81, 0
6, 292565, Note_on_c, 4, 72, 76
6, 292565, Note_on_c, 4, 81, 76
6, 292805, Note_on_c, 4, 81, 0
6, 292805, Note_on_c, 4, 72, 0
6, 292805, Note_on_c, 4, 81, 123
6, 292805, Note_on_c, 4, 84, 123
6, 292805, Note_on_c, 4, 53, 77
6, 292805, Note_on_c, 4, 65, 77
6, 293042, Note_on_c, 4, 84, 0
6, 293042, Note_on_c, 4, 81, 0
6, 293042, Note_on_c, 4, 72, 76
6, 293042, Note_on_c, 4, 81, 76
6, 293282, Note_on_c, 4, 81, 0
6, 293282, Note_on_c, 4, 65, 0
6, 293282, Note_on_c, 4, 53, 0
6, 293282, Note_on_c, 4, 72, 0
6, 293282, Note_on_c, 4, 81, 120
6, 293282, Note_on_c, 4, 84, 120
6, 293282, Note_on_c, 4, 53, 77
6, 293282, Note_on_c, 4, 65, 77
6, 293521, Note_on_c, 4, 84, 0
6, 293521, Note_on_c, 4, 81, 0
6, 293521, Note_on_c, 4, 72, 65
6, 293521, Note_on_c, 4, 81, 65
6, 293760, Note_on_c, 4, 81, 0
6, 293760, Note_on_c, 4, 65, 0
6, 293760, Note_on_c, 4, 53, 0
6, 293760, Note_on_c, 4, 72, 0
6, 293761, Note_on_c, 4, 82, 108
6, 293761, Control_c, 4, 64, 0
6, 293761, Note_on_c, 4, 46, 74
6, 293844, Note_on_c, 4, 86, 108
6, 293844, Note_on_c, 4, 58, 74
6, 294240, Note_on_c, 4, 58, 0
6, 294240, Note_on_c, 4, 82, 0
6, 294240, Note_on_c, 4, 46, 0
6, 294240, Note_on_c, 4, 86, 0
6, 294720, Note_on_c, 4, 79, 71
6, 294720, Note_on_c, 4, 76, 65
6, 294720, Note_on_c, 4, 58, 76
6, 294720, Note_on_c, 4, 60, 76
6, 295440, Note_on_c, 4, 79, 0
6, 295440, Note_on_c, 4, 81, 75
6, 295560, Note_on_c, 4, 81, 0
6, 295560, Note_on_c, 4, 82, 74
6, 295680, Note_on_c, 4, 82, 0
6, 295680, Note_on_c, 4, 76, 0
6, 295680, Note_on_c, 4, 58, 0
6, 295680, Note_on_c, 4, 60, 0
6, 295680, Note_on_c, 4, 84, 71
6, 295680, Note_on_c, 4, 57, 83
6, 295680, Note_on_c, 4, 65, 83
6, 295797, Note_on_c, 4, 84, 0
6, 295920, Note_on_c, 4, 65, 0
6, 295920, Note_on_c, 4, 57, 0
6, 295920, Note_on_c, 4, 84, 75
6, 296040, Note_on_c, 4, 84, 0
6, 296040, Note_on_c, 4, 81, 78
6, 296160, Note_on_c, 4, 81, 0
6, 296160, Note_on_c, 4, 82, 80
6, 296160, Note_on_c, 4, 58, 96
6, 296160, Note_on_c, 4, 67, 96
6, 296277, Note_on_c, 4, 82, 0
6, 296400, Note_on_c, 4, 67, 0
6, 296400, Note_on_c, 4, 58, 0
6, 296400, Note_on_c, 4, 82, 84
6, 296520, Note_on_c, 4, 82, 0
6, 296520, Note_on_c, 4, 79, 87
6, 296640, Note_on_c, 4, 79, 0
6, 296640, Note_on_c, 4, 81, 89
6, 296640, Note_on_c, 4, 60, 109
6, 296640, Note_on_c, 4, 69, 109
6, 296757, Note_on_c, 4, 81, 0
6, 296877, Note_on_c, 4, 69, 0
6, 296877, Note_on_c, 4, 60, 0
6, 296877, Note_on_c, 4, 81, 94
6, 296996, Note_on_c, 4, 81, 0
6, 296996, Note_on_c, 4, 77, 96
6, 297113, Note_on_c, 4, 77, 0
6, 297113, Note_on_c, 4, 79, 101
6, 297113, Note_on_c, 4, 60, 105
6, 297113, Note_on_c, 4, 70, 105
6, 297232, Note_on_c, 4, 79, 0
6, 297349, Note_on_c, 4, 70, 0
6, 297349, Note_on_c, 4, 60, 0
6, 297349, Note_on_c, 4, 79, 98
6, 297468, Note_on_c, 4, 79, 0
6, 297468, Note_on_c, 4, 76, 81
6, 297600, Note_on_c, 4, 76, 0
6, 297600, Note_on_c, 4, 77, 93
6, 297600, Note_on_c, 4, 65, 74
6, 297600, Note_on_c, 4, 69, 74
6, 298073, Note_on_c, 4, 69, 0
6, 298073, Note_on_c, 4, 65, 0
6, 298073, Note_on_c, 4, 77, 0
6, 298073, Note_on_c, 4, 84, 109
6, 298193, Note_on_c, 4, 84, 0
6, 298193, Note_on_c, 4, 81, 73
6, 298316, Note_on_c, 4, 81, 0
6, 298316, Note_on_c, 4, 77, 66
6, 298436, Note_on_c, 4, 77, 0
6, 298436, Note_on_c, 4, 72, 66
6, 298556, Note_on_c, 4, 72, 0
6, 298556, Note_on_c, 4, 82, 115
6, 298556, Note_on_c, 4, 36, 71
6, 298676, Note_on_c, 4, 36, 0
6, 298676, Note_on_c, 4, 82, 0
6, 298676, Note_on_c, 4, 79, 81
6, 298676, Note_on_c, 4, 40, 90
6, 298796, Note_on_c, 4, 40, 0
6, 298796, Note_on_c, 4, 79, 0
6, 298796, Note_on_c, 4, 76, 58
6, 298796, Note_on_c, 4, 43, 91
6, 298913, Note_on_c, 4, 43, 0
6, 298913, Note_on_c, 4, 76, 0
6, 298913, Note_on_c, 4, 72, 68
6, 298913, Note_on_c, 4, 48, 101
6, 299033, Note_on_c, 4, 48, 0
6, 299033, Note_on_c, 4, 72, 0
6, 299033, Note_on_c, 4, 70, 68
6, 299033, Note_on_c, 4, 52, 95
6, 299152, Note_on_c, 4, 52, 0
6, 299152, Note_on_c, 4, 70, 0
6, 299152, Note_on_c, 4, 72, 87
6, 299152, Note_on_c, 4, 48, 66
6, 299272, Note_on_c, 4, 48, 0
6, 299272, Note_on_c, 4, 72, 0
6, 299272, Note_on_c, 4, 70, 79
6, 299272, Note_on_c, 4, 52, 95
6, 299392, Note_on_c, 4, 52, 0
6, 299392, Note_on_c, 4, 70, 0
6, 299392, Note_on_c, 4, 72, 90
6, 299392, Note_on_c, 4, 48, 79
6, 299520, Note_on_c, 4, 48, 0
6, 299520, Note_on_c, 4, 72, 0
6, 299520, Note_on_c, 4, 69, 79
6, 299520, Note_on_c, 4, 53, 89
6, 299636, Note_on_c, 4, 69, 0
6, 299636, Note_on_c, 4, 72, 96
6, 299756, Note_on_c, 4, 72, 0
6, 299756, Note_on_c, 4, 77, 110
6, 299880, Note_on_c, 4, 77, 0
6, 299880, Note_on_c, 4, 81, 100
6, 300000, Note_on_c, 4, 81, 0
6, 300000, Note_on_c, 4, 53, 0
6, 300000, Note_on_c, 4, 84, 100
6, 300120, Note_on_c, 4, 84, 0
6, 300120, Note_on_c, 4, 81, 73
6, 300240, Note_on_c, 4, 81, 0
6, 300240, Note_on_c, 4, 77, 59
6, 300360, Note_on_c, 4, 77, 0
6, 300360, Note_on_c, 4, 72, 67
6, 300480, Note_on_c, 4, 72, 0
6, 300480, Note_on_c, 4, 82, 113
6, 300480, Note_on_c, 4, 36, 74
6, 300600, Note_on_c, 4, 36, 0
6, 300600, Note_on_c, 4, 82, 0
6, 300600, Note_on_c, 4, 79, 76
6, 300600, Note_on_c, 4, 40, 96
6, 300716, Note_on_c, 4, 40, 0
6, 300716, Note_on_c, 4, 79, 0
6, 300716, Note_on_c, 4, 76, 66
6, 300716, Note_on_c, 4, 43, 89
6, 300836, Note_on_c, 4, 43, 0
6, 300836, Note_on_c, 4, 76, 0
6, 300836, Note_on_c, 4, 72, 56
6, 300836, Note_on_c, 4, 48, 92
6, 300953, Note_on_c, 4, 48, 0
6, 300953, Note_on_c, 4, 72, 0
6, 300953, Note_on_c, 4, 70, 72
6, 300953, Note_on_c, 4, 52, 98
6, 301072, Note_on_c, 4, 52, 0
6, 301072, Note_on_c, 4, 70, 0
6, 301072, Note_on_c, 4, 72, 85
6, 301072, Note_on_c, 4, 48, 75
6, 301192, Note_on_c, 4, 48, 0
6, 301192, Note_on_c, 4, 72, 0
6, 301192, Note_on_c, 4, 70, 75
6, 301192, Note_on_c, 4, 52, 93
6, 301312, Note_on_c, 4, 52, 0
6, 301312, Note_on_c, 4, 70, 0
6, 301312, Note_on_c, 4, 72, 90
6, 301312, Note_on_c, 4, 48, 78
6, 301440, Note_on_c, 4, 48, 0
6, 301440, Note_on_c, 4, 72, 0
6, 301440, Note_on_c, 4, 69, 75
6, 301440, Note_on_c, 4, 53, 88
6, 301556, Note_on_c, 4, 69, 0
6, 301556, Note_on_c, 4, 72, 96
6, 301676, Note_on_c, 4, 72, 0
6, 301676, Note_on_c, 4, 77, 111
6, 301800, Note_on_c, 4, 77, 0
6, 301800, Note_on_c, 4, 81, 110
6, 301920, Note_on_c, 4, 81, 0
6, 301920, Note_on_c, 4, 53, 0
6, 301920, Note_on_c, 4, 84, 105
6, 302040, Note_on_c, 4, 84, 0
6, 302040, Note_on_c, 4, 81, 77
6, 302160, Note_on_c, 4, 81, 0
6, 302160, Note_on_c, 4, 77, 64
6, 302280, Note_on_c, 4, 77, 0
6, 302280, Note_on_c, 4, 72, 62
6, 302400, Note_on_c, 4, 72, 0
6, 302400, Note_on_c, 4, 82, 121
6, 302400, Note_on_c, 4, 36, 81
6, 302520, Note_on_c, 4, 36, 0
6, 302520, Note_on_c, 4, 82, 0
6, 302520, Note_on_c, 4, 79, 74
6, 302520, Note_on_c, 4, 40, 89
6, 302636, Note_on_c, 4, 40, 0
6, 302636, Note_on_c, 4, 79, 0
6, 302636, Note_on_c, 4, 76, 69
6, 302636, Note_on_c, 4, 43, 100
6, 302756, Note_on_c, 4, 43, 0
6, 302756, Note_on_c, 4, 76, 0
6, 302756, Note_on_c, 4, 72, 62
6, 302756, Note_on_c, 4, 48, 98
6, 302873, Note_on_c, 4, 48, 0
6, 302873, Note_on_c, 4, 72, 0
6, 302873, Note_on_c, 4, 70, 64
6, 302873, Note_on_c, 4, 52, 91
6, 302992, Note_on_c, 4, 52, 0
6, 302992, Note_on_c, 4, 70, 0
6, 302992, Note_on_c, 4, 72, 86
6, 302992, Note_on_c, 4, 48, 64
6, 303112, Note_on_c, 4, 48, 0
6, 303112, Note_on_c, 4, 72, 0
6, 303112, Note_on_c, 4, 70, 77
6, 303112, Note_on_c, 4, 52, 97
6, 303232, Note_on_c, 4, 52, 0
6, 303232, Note_on_c, 4, 70, 0
6, 303232, Note_on_c, 4, 72, 97
6, 303232, Note_on_c, 4, 48, 79
6, 303360, Note_on_c, 4, 48, 0
6, 303360, Note_on_c, 4, 72, 0
6, 303360, Note_on_c, 4, 69, 68
6, 303360, Control_c, 4, 64, 127
6, 303360, Note_on_c, 4, 53, 94
6, 303833, Note_on_c, 4, 53, 0
6, 303833, Note_on_c, 4, 69, 0
6, 303833, Note_on_c, 4, 81, 127
6, 303833, Note_on_c, 4, 84, 127
6, 304076, Note_on_c, 4, 84, 0
6, 304076, Note_on_c, 4, 81, 0
6, 304076, Note_on_c, 4, 72, 79
6, 304076, Note_on_c, 4, 81, 79
6, 304320, Note_on_c, 4, 53, 71
6, 304320, Note_on_c, 4, 65, 71
6, 304562, Note_on_c, 4, 81, 0
6, 304562, Note_on_c, 4, 72, 0
6, 304562, Note_on_c, 4, 69, 61
6, 304562, Note_on_c, 4, 72, 61
6, 304681, Note_on_c, 4, 72, 0
6, 304681, Note_on_c, 4, 69, 0
6, 304802, Note_on_c, 4, 53, 0
6, 304802, Note_on_c, 4, 65, 0
6, 304802, Note_on_c, 4, 81, 127
6, 304802, Note_on_c, 4, 84, 127
6, 305046, Note_on_c, 4, 84, 0
6, 305046, Note_on_c, 4, 81, 0
6, 305046, Note_on_c, 4, 72, 75
6, 305046, Note_on_c, 4, 81, 75
6, 305280, Note_on_c, 4, 81, 0
6, 305280, Note_on_c, 4, 72, 0
6, 305290, Note_on_c, 4, 72, 87
6, 305290, Note_on_c, 4, 81, 87
6, 305290, Control_c, 4, 64, 0
6, 305290, Control_c, 4, 64, 127
6, 305290, Note_on_c, 4, 53, 74
6, 305290, Note_on_c, 4, 65, 74
6, 305525, Note_on_c, 4, 81, 0
6, 305525, Note_on_c, 4, 72, 0
6, 305525, Note_on_c, 4, 69, 53
6, 305525, Note_on_c, 4, 72, 53
6, 305765, Note_on_c, 4, 72, 0
6, 305765, Note_on_c, 4, 65, 0
6, 305765, Note_on_c, 4, 53, 0
6, 305765, Note_on_c, 4, 69, 0
6, 305765, Note_on_c, 4, 81, 127
6, 305765, Note_on_c, 4, 84, 127
6, 306006, Note_on_c, 4, 84, 0
6, 306006, Note_on_c, 4, 81, 0
6, 306006, Note_on_c, 4, 72, 73
6, 306006, Note_on_c, 4, 81, 73
6, 306246, Note_on_c, 4, 81, 0
6, 306246, Note_on_c, 4, 72, 0
6, 306246, Note_on_c, 4, 81, 127
6, 306246, Note_on_c, 4, 84, 127
6, 306246, Note_on_c, 4, 53, 72
6, 306246, Note_on_c, 4, 65, 72
6, 306486, Note_on_c, 4, 84, 0
6, 306486, Note_on_c, 4, 81, 0
6, 306486, Note_on_c, 4, 72, 74
6, 306486, Note_on_c, 4, 81, 74
6, 306725, Note_on_c, 4, 81, 0
6, 306725, Note_on_c, 4, 65, 0
6, 306725, Note_on_c, 4, 53, 0
6, 306725, Note_on_c, 4, 72, 0
6, 306725, Note_on_c, 4, 81, 118
6, 306725, Note_on_c, 4, 84, 118
6, 306725, Note_on_c, 4, 53, 84
6, 306725, Note_on_c, 4, 65, 84
6, 306965, Note_on_c, 4, 84, 0
6, 306965, Note_on_c, 4, 81, 0
6, 306965, Note_on_c, 4, 72, 78
6, 306965, Note_on_c, 4, 81, 78
6, 307200, Note_on_c, 4, 81, 0
6, 307200, Note_on_c, 4, 65, 0
6, 307200, Note_on_c, 4, 53, 0
6, 307200, Note_on_c, 4, 72, 0
6, 307205, Note_on_c, 4, 82, 105
6, 307205, Note_on_c, 4, 86, 105
6, 307205, Control_c, 4, 64, 0
6, 307205, Note_on_c, 4, 46, 70
6, 307205, Note_on_c, 4, 58, 70
6, 307445, Note_on_c, 4, 86, 0
6, 307445, Note_on_c, 4, 82, 0
6, 307445, Note_on_c, 4, 82, 89
6, 307445, Note_on_c, 4, 86, 89
6, 307685, Note_on_c, 4, 86, 0
6, 307685, Note_on_c, 4, 58, 0
6, 307685, Note_on_c, 4, 46, 0
6, 307685, Note_on_c, 4, 82, 0
6, 307685, Note_on_c, 4, 79, 63
6, 307685, Note_on_c, 4, 82, 63
6, 307921, Note_on_c, 4, 82, 0
6, 307921, Note_on_c, 4, 79, 0
6, 307921, Note_on_c, 4, 79, 79
6, 307921, Note_on_c, 4, 82, 79
6, 308160, Note_on_c, 4, 82, 0
6, 308160, Note_on_c, 4, 79, 0
6, 308160, Note_on_c, 4, 74, 68
6, 308160, Note_on_c, 4, 79, 68
6, 308640, Note_on_c, 4, 79, 0
6, 308640, Note_on_c, 4, 74, 0
6, 309117, Note_on_c, 4, 76, 78
6, 309117, Note_on_c, 4, 79, 78
6, 309117, Note_on_c, 4, 58, 61
6, 309117, Note_on_c, 4, 60, 61
6, 309117, Note_on_c, 4, 64, 61
6, 309117, Note_on_c, 4, 67, 61
6, 310076, Note_on_c, 4, 76, 0
6, 310200, Note_on_c, 4, 79, 0
6, 310200, Note_on_c, 4, 81, 92
6, 310320, Note_on_c, 4, 81, 0
6, 310320, Note_on_c, 4, 79, 72
6, 310440, Note_on_c, 4, 79, 0
6, 310440, Note_on_c, 4, 78, 76
6, 310560, Note_on_c, 4, 78, 0
6, 310560, Note_on_c, 4, 79, 88
6, 310681, Note_on_c, 4, 79, 0
6, 310681, Note_on_c, 4, 81, 92
6, 310801, Note_on_c, 4, 81, 0
6, 310801, Note_on_c, 4, 82, 92
6, 310925, Note_on_c, 4, 82, 0
6, 310925, Note_on_c, 4, 83, 95
6, 311040, Note_on_c, 4, 83, 0
6, 311040, Note_on_c, 4, 58, 0
6, 311040, Note_on_c, 4, 60, 0
6, 311040, Note_on_c, 4, 67, 0
6, 311040, Note_on_c, 4, 64, 0
6, 311045, Note_on_c, 4, 84, 95
6, 311165, Note_on_c, 4, 84, 0
6, 311165, Note_on_c, 4, 86, 99
6, 311285, Note_on_c, 4, 86, 0
6, 311285, Note_on_c, 4, 84, 77
6, 311401, Note_on_c, 4, 84, 0
6, 311401, Note_on_c, 4, 81, 68
6, 311521, Note_on_c, 4, 81, 0
6, 311521, Note_on_c, 4, 89, 106
6, 311521, Note_on_c, 4, 57, 66
6, 311521, Note_on_c, 4, 65, 66
6, 311640, Note_on_c, 4, 89, 0
6, 311761, Note_on_c, 4, 89, 95
6, 311880, Note_on_c, 4, 89, 0
6, 312000, Note_on_c, 4, 65, 0
6, 312000, Note_on_c, 4, 57, 0
6, 312000, Note_on_c, 4, 82, 61
6, 312120, Note_on_c, 4, 82, 0
6, 312120, Note_on_c, 4, 84, 89
6, 312240, Note_on_c, 4, 84, 0
6, 312240, Note_on_c, 4, 82, 71
6, 312360, Note_on_c, 4, 82, 0
6, 312360, Note_on_c, 4, 79, 64
6, 312481, Note_on_c, 4, 79, 0
6, 312481, Note_on_c, 4, 86, 113
6, 312481, Note_on_c, 4, 58, 57
6, 312481, Note_on_c, 4, 67, 57
6, 312600, Note_on_c, 4, 86, 0
6, 312729, Note_on_c, 4, 86, 90
6, 312846, Note_on_c, 4, 86, 0
6, 312960, Note_on_c, 4, 67, 0
6, 312960, Note_on_c, 4, 58, 0
6, 312962, Note_on_c, 4, 84, 76
6, 313082, Note_on_c, 4, 84, 0
6, 313082, Note_on_c, 4, 86, 89
6, 313202, Note_on_c, 4, 86, 0
6, 313202, Note_on_c, 4, 84, 77
6, 313322, Note_on_c, 4, 84, 0
6, 313322, Note_on_c, 4, 81, 64
6, 313442, Note_on_c, 4, 81, 0
6, 313442, Note_on_c, 4, 77, 62
6, 313442, Note_on_c, 4, 60, 59
6, 313442, Note_on_c, 4, 65, 59
6, 313442, Note_on_c, 4, 69, 59
6, 313561, Note_on_c, 4, 77, 0
6, 313685, Note_on_c, 4, 77, 81
6, 313802, Note_on_c, 4, 77, 0
6, 313922, Note_on_c, 4, 69, 0
6, 313922, Note_on_c, 4, 65, 0
6, 313922, Note_on_c, 4, 60, 0
6, 313922, Note_on_c, 4, 82, 105
6, 314041, Note_on_c, 4, 82, 0
6, 314041, Note_on_c, 4, 84, 105
6, 314160, Note_on_c, 4, 84, 0
6, 314160, Note_on_c, 4, 82, 77
6, 314280, Note_on_c, 4, 82, 0
6, 314280, Note_on_c, 4, 79, 64
6, 314393, Note_on_c, 4, 79, 0
6, 314393, Note_on_c, 4, 76, 67
6, 314393, Note_on_c, 4, 60, 66
6, 314393, Note_on_c, 4, 67, 66
6, 314393, Note_on_c, 4, 70, 66
6, 314512, Note_on_c, 4, 76, 0
6, 314624, Note_on_c, 4, 76, 81
6, 314742, Note_on_c, 4, 76, 0
6, 314880, Note_on_c, 4, 70, 0
6, 314880, Note_on_c, 4, 67, 0
6, 314880, Note_on_c, 4, 60, 0
6, 314880, Note_on_c, 4, 77, 90
6, 314880, Note_on_c, 4, 57, 66
6, 314880, Note_on_c, 4, 69, 66
6, 314992, Note_on_c, 4, 77, 0
6, 314992, Note_on_c, 4, 72, 65
6, 315112, Note_on_c, 4, 72, 0
6, 315112, Note_on_c, 4, 74, 88
6, 315233, Note_on_c, 4, 74, 0
6, 315233, Note_on_c, 4, 76, 89
6, 315353, Note_on_c, 4, 76, 0
6, 315353, Note_on_c, 4, 77, 95
6, 315476, Note_on_c, 4, 77, 0
6, 315476, Note_on_c, 4, 79, 97
6, 315596, Note_on_c, 4, 79, 0
6, 315596, Note_on_c, 4, 81, 101
6, 315716, Note_on_c, 4, 81, 0
6, 315716, Note_on_c, 4, 82, 94
6, 315837, Note_on_c, 4, 82, 0
6, 315837, Note_on_c, 4, 84, 98
6, 315957, Note_on_c, 4, 84, 0
6, 315957, Note_on_c, 4, 77, 62
6, 316077, Note_on_c, 4, 77, 0
6, 316077, Note_on_c, 4, 69, 0
6, 316077, Note_on_c, 4, 57, 0
6, 316077, Note_on_c, 4, 83, 100
6, 316077, Note_on_c, 4, 56, 64
6, 316077, Note_on_c, 4, 68, 64
6, 316200, Note_on_c, 4, 83, 0
6, 316200, Note_on_c, 4, 77, 56
6, 316320, Note_on_c, 4, 77, 0
6, 316320, Note_on_c, 4, 68, 0
6, 316320, Note_on_c, 4, 56, 0
6, 316320, Note_on_c, 4, 84, 108
6, 316320, Note_on_c, 4, 57, 80
6, 316320, Note_on_c, 4, 69, 80
6, 316440, Note_on_c, 4, 84, 0
6, 316440, Note_on_c, 4, 77, 59
6, 316560, Note_on_c, 4, 77, 0
6, 316560, Note_on_c, 4, 69, 0
6, 316560, Note_on_c, 4, 57, 0
6, 316560, Note_on_c, 4, 83, 102
6, 316560, Note_on_c, 4, 56, 56
6, 316560, Note_on_c, 4, 68, 56
6, 316680, Note_on_c, 4, 83, 0
6, 316680, Note_on_c, 4, 77, 61
6, 316800, Note_on_c, 4, 77, 0
6, 316800, Note_on_c, 4, 68, 0
6, 316800, Note_on_c, 4, 56, 0
6, 316800, Note_on_c, 4, 84, 111
6, 316800, Note_on_c, 4, 57, 79
6, 316800, Note_on_c, 4, 69, 79
6, 316920, Note_on_c, 4, 84, 0
6, 316920, Note_on_c, 4, 81, 74
6, 317040, Note_on_c, 4, 81, 0
6, 317040, Note_on_c, 4, 77, 66
6, 317160, Note_on_c, 4, 77, 0
6, 317160, Note_on_c, 4, 81, 92
6, 317280, Note_on_c, 4, 81, 0
6, 317280, Note_on_c, 4, 84, 104
6, 317400, Note_on_c, 4, 84, 0
6, 317400, Note_on_c, 4, 77, 57
6, 317520, Note_on_c, 4, 77, 0
6, 317520, Note_on_c, 4, 69, 0
6, 317520, Note_on_c, 4, 57, 0
6, 317520, Note_on_c, 4, 83, 99
6, 317520, Note_on_c, 4, 56, 73
6, 317520, Note_on_c, 4, 68, 73
6, 317640, Note_on_c, 4, 83, 0
6, 317640, Note_on_c, 4, 77, 62
6, 317760, Note_on_c, 4, 77, 0
6, 317760, Note_on_c, 4, 68, 0
6, 317760, Note_on_c, 4, 56, 0
6, 317760, Note_on_c, 4, 84, 102
6, 317760, Note_on_c, 4, 57, 73
6, 317760, Note_on_c, 4, 69, 73
6, 317880, Note_on_c, 4, 84, 0
6, 317880, Note_on_c, 4, 77, 60
6, 318000, Note_on_c, 4, 77, 0
6, 318000, Note_on_c, 4, 69, 0
6, 318000, Note_on_c, 4, 57, 0
6, 318000, Note_on_c, 4, 83, 107
6, 318000, Note_on_c, 4, 56, 64
6, 318000, Note_on_c, 4, 68, 64
6, 318120, Note_on_c, 4, 83, 0
6, 318120, Note_on_c, 4, 77, 60
6, 318237, Note_on_c, 4, 77, 0
6, 318237, Note_on_c, 4, 68, 0
6, 318237, Note_on_c, 4, 56, 0
6, 318237, Note_on_c, 4, 84, 112
6, 318237, Note_on_c, 4, 57, 81
6, 318237, Note_on_c, 4, 69, 81
6, 318357, Note_on_c, 4, 84, 0
6, 318357, Note_on_c, 4, 77, 59
6, 318477, Note_on_c, 4, 77, 0
6, 318477, Note_on_c, 4, 69, 0
6, 318477, Note_on_c, 4, 57, 0
6, 318477, Note_on_c, 4, 83, 99
6, 318477, Note_on_c, 4, 56, 60
6, 318477, Note_on_c, 4, 68, 60
6, 318596, Note_on_c, 4, 83, 0
6, 318596, Note_on_c, 4, 77, 66
6, 318720, Note_on_c, 4, 77, 0
6, 318720, Note_on_c, 4, 68, 0
6, 318720, Note_on_c, 4, 56, 0
6, 318720, Note_on_c, 4, 84, 111
6, 318720, Note_on_c, 4, 57, 74
6, 318720, Note_on_c, 4, 69, 74
6, 318833, Note_on_c, 4, 84, 0
6, 318833, Note_on_c, 4, 77, 58
6, 318953, Note_on_c, 4, 77, 0
6, 318953, Note_on_c, 4, 84, 106
6, 319073, Note_on_c, 4, 84, 0
6, 319073, Note_on_c, 4, 77, 58
6, 319193, Note_on_c, 4, 77, 0
6, 319193, Note_on_c, 4, 69, 0
6, 319193, Note_on_c, 4, 57, 0
6, 319193, Note_on_c, 4, 85, 114
6, 319193, Note_on_c, 4, 58, 84
6, 319193, Note_on_c, 4, 70, 84
6, 319316, Note_on_c, 4, 85, 0
6, 319316, Note_on_c, 4, 77, 56
6, 319436, Note_on_c, 4, 77, 0
6, 319436, Note_on_c, 4, 85, 110
6, 319556, Note_on_c, 4, 85, 0
6, 319556, Note_on_c, 4, 77, 57
6, 319680, Note_on_c, 4, 77, 0
6, 319680, Note_on_c, 4, 70, 0
6, 319680, Note_on_c, 4, 58, 0
6, 319680, Note_on_c, 4, 86, 112
6, 319680, Note_on_c, 4, 59, 76
6, 319680, Note_on_c, 4, 71, 76
6, 319800, Note_on_c, 4, 86, 0
6, 319800, Note_on_c, 4, 77, 58
6, 319920, Note_on_c, 4, 77, 0
6, 319920, Note_on_c, 4, 86, 112
6, 320040, Note_on_c, 4, 86, 0
6, 320040, Note_on_c, 4, 77, 58
6, 320160, Note_on_c, 4, 77, 0
6, 320160, Note_on_c, 4, 71, 0
6, 320160, Note_on_c, 4, 59, 0
6, 320160, Note_on_c, 4, 87, 116
6, 320160, Note_on_c, 4, 60, 78
6, 320160, Note_on_c, 4, 72, 78
6, 320280, Note_on_c, 4, 87, 0
6, 320280, Note_on_c, 4, 77, 56
6, 320400, Note_on_c, 4, 77, 0
6, 320400, Note_on_c, 4, 87, 112
6, 320513, Note_on_c, 4, 87, 0
6, 320513, Note_on_c, 4, 77, 65
6, 320640, Note_on_c, 4, 77, 0
6, 320640, Note_on_c, 4, 72, 0
6, 320640, Note_on_c, 4, 60, 0
6, 320640, Note_on_c, 4, 88, 121
6, 320640, Note_on_c, 4, 61, 79
6, 320640, Note_on_c, 4, 73, 79
6, 320752, Note_on_c, 4, 88, 0
6, 320752, Note_on_c, 4, 77, 54
6, 320876, Note_on_c, 4, 77, 0
6, 320876, Note_on_c, 4, 88, 118
6, 320996, Note_on_c, 4, 88, 0
6, 320996, Note_on_c, 4, 77, 57
6, 321116, Note_on_c, 4, 77, 0
6, 321116, Note_on_c, 4, 73, 0
6, 321116, Note_on_c, 4, 61, 0
6, 321116, Note_on_c, 4, 89, 113
6, 321116, Note_on_c, 4, 62, 78
6, 321116, Note_on_c, 4, 74, 78
6, 321236, Note_on_c, 4, 89, 0
6, 321236, Note_on_c, 4, 77, 59
6, 321360, Note_on_c, 4, 77, 0
6, 321360, Note_on_c, 4, 89, 116
6, 321480, Note_on_c, 4, 89, 0
6, 321480, Note_on_c, 4, 77, 55
6, 321600, Note_on_c, 4, 77, 0
6, 321600, Note_on_c, 4, 74, 0
6, 321600, Note_on_c, 4, 62, 0
6, 321600, Note_on_c, 4, 88, 116
6, 321600, Note_on_c, 4, 61, 65
6, 321600, Note_on_c, 4, 73, 65
6, 321720, Note_on_c, 4, 88, 0
6, 321720, Note_on_c, 4, 77, 60
6, 321840, Note_on_c, 4, 77, 0
6, 321840, Note_on_c, 4, 88, 112
6, 321960, Note_on_c, 4, 88, 0
6, 321960, Note_on_c, 4, 77, 56
6, 322080, Note_on_c, 4, 77, 0
6, 322080, Note_on_c, 4, 73, 0
6, 322080, Note_on_c, 4, 61, 0
6, 322080, Note_on_c, 4, 87, 118
6, 322080, Note_on_c, 4, 60, 70
6, 322080, Note_on_c, 4, 72, 70
6, 322196, Note_on_c, 4, 87, 0
6, 322196, Note_on_c, 4, 77, 60
6, 322320, Note_on_c, 4, 77, 0
6, 322320, Note_on_c, 4, 87, 118
6, 322432, Note_on_c, 4, 87, 0
6, 322432, Note_on_c, 4, 77, 60
6, 322560, Note_on_c, 4, 77, 0
6, 322560, Note_on_c, 4, 72, 0
6, 322560, Note_on_c, 4, 60, 0
6, 322560, Note_on_c, 4, 85, 111
6, 322560, Note_on_c, 4, 58, 63
6, 322560, Note_on_c, 4, 70, 63
6, 322672, Note_on_c, 4, 85, 0
6, 322672, Note_on_c, 4, 86, 94
6, 322796, Note_on_c, 4, 86, 0
6, 322796, Note_on_c, 4, 89, 98
6, 322916, Note_on_c, 4, 89, 0
6, 322916, Note_on_c, 4, 86, 74
6, 323040, Note_on_c, 4, 86, 0
6, 323040, Note_on_c, 4, 70, 0
6, 323040, Note_on_c, 4, 58, 0
6, 323040, Note_on_c, 4, 81, 51
6, 323160, Note_on_c, 4, 81, 0
6, 323160, Note_on_c, 4, 82, 82
6, 323280, Note_on_c, 4, 82, 0
6, 323280, Note_on_c, 4, 86, 99
6, 323396, Note_on_c, 4, 86, 0
6, 323396, Note_on_c, 4, 82, 73
6, 323516, Note_on_c, 4, 82, 0
6, 323516, Note_on_c, 4, 76, 57
6, 323636, Note_on_c, 4, 76, 0
6, 323636, Note_on_c, 4, 77, 90
6, 323752, Note_on_c, 4, 77, 0
6, 323752, Note_on_c, 4, 82, 112
6, 323868, Note_on_c, 4, 82, 0
6, 323868, Note_on_c, 4, 77, 62
6, 323986, Note_on_c, 4, 77, 0
6, 323986, Note_on_c, 4, 73, 63
6, 324106, Note_on_c, 4, 73, 0
6, 324106, Note_on_c, 4, 74, 85
6, 324226, Note_on_c, 4, 74, 0
6, 324226, Note_on_c, 4, 77, 95
6, 324342, Note_on_c, 4, 77, 0
6, 324342, Note_on_c, 4, 74, 72
6, 324480, Note_on_c, 4, 74, 0
6, 324480, Note_on_c, 4, 69, 59
6, 324592, Note_on_c, 4, 69, 0
6, 324592, Note_on_c, 4, 70, 85
6, 324712, Note_on_c, 4, 70, 0
6, 324712, Note_on_c, 4, 74, 104
6, 324832, Note_on_c, 4, 74, 0
6, 324832, Note_on_c, 4, 70, 70
6, 324956, Note_on_c, 4, 70, 0
6, 324956, Note_on_c, 4, 64, 61
6, 325076, Note_on_c, 4, 64, 0
6, 325076, Note_on_c, 4, 65, 84
6, 325196, Note_on_c, 4, 65, 0
6, 325196, Note_on_c, 4, 70, 109
6, 325316, Note_on_c, 4, 70, 0
6, 325316, Note_on_c, 4, 65, 64
6, 325436, Note_on_c, 4, 65, 0
6, 325436, Note_on_c, 4, 61, 58
6, 325556, Note_on_c, 4, 61, 0
6, 325556, Note_on_c, 4, 62, 92
6, 325676, Note_on_c, 4, 62, 0
6, 325676, Note_on_c, 4, 65, 100
6, 325796, Note_on_c, 4, 65, 0
6, 325796, Note_on_c, 4, 62, 74
6, 325916, Note_on_c, 4, 62, 0
6, 325916, Note_on_c, 4, 58, 71
6, 325916, Note_on_c, 4, 35, 65
6, 325916, Note_on_c, 4, 47, 65
6, 326036, Note_on_c, 4, 58, 0
6, 326036, Note_on_c, 4, 59, 85
6, 326156, Note_on_c, 4, 59, 0
6, 326156, Note_on_c, 4, 62, 99
6, 326276, Note_on_c, 4, 62, 0
6, 326276, Note_on_c, 4, 59, 83
6, 326400, Note_on_c, 4, 59, 0
6, 326400, Note_on_c, 4, 47, 0
6, 326400, Note_on_c, 4, 35, 0
6, 326400, Note_on_c, 4, 36, 76
6, 326400, Note_on_c, 4, 48, 76
6, 326516, Note_on_c, 4, 60, 79
6, 326636, Note_on_c, 4, 60, 0
6, 326636, Note_on_c, 4, 62, 96
6, 326756, Note_on_c, 4, 62, 0
6, 326756, Note_on_c, 4, 64, 97
6, 326876, Note_on_c, 4, 64, 0
6, 326876, Note_on_c, 4, 48, 0
6, 326876, Note_on_c, 4, 36, 0
6, 326876, Note_on_c, 4, 65, 90
6, 326996, Note_on_c, 4, 65, 0
6, 326996, Note_on_c, 4, 67, 95
6, 327116, Note_on_c, 4, 67, 0
6, 327116, Note_on_c, 4, 69, 98
6, 327240, Note_on_c, 4, 69, 0
6, 327240, Note_on_c, 4, 70, 97
6, 327360, Note_on_c, 4, 70, 0
6, 327360, Note_on_c, 4, 72, 97
6, 327480, Note_on_c, 4, 72, 0
6, 327480, Note_on_c, 4, 74, 99
6, 327600, Note_on_c, 4, 74, 0
6, 327600, Note_on_c, 4, 76, 96
6, 327720, Note_on_c, 4, 76, 0
6, 327720, Note_on_c, 4, 77, 91
6, 327841, Note_on_c, 4, 77, 0
6, 327841, Note_on_c, 4, 79, 98
6, 327965, Note_on_c, 4, 79, 0
6, 327965, Note_on_c, 4, 81, 93
6, 328085, Note_on_c, 4, 81, 0
6, 328085, Note_on_c, 4, 82, 104
6, 328206, Note_on_c, 4, 82, 0
6, 328206, Note_on_c, 4, 84, 95
6, 328320, Note_on_c, 4, 84, 0
6, 328326, Note_on_c, 4, 79, 47
6, 328326, Control_c, 4, 64, 127
6, 328326, Note_on_c, 4, 60, 66
6, 328386, Note_on_c, 4, 79, 0
6, 328386, Note_on_c, 4, 81, 60
6, 328446, Note_on_c, 4, 81, 0
6, 328446, Note_on_c, 4, 60, 0
6, 328446, Note_on_c, 4, 79, 65
6, 328446, Note_on_c, 4, 70, 100
6, 328506, Note_on_c, 4, 79, 0
6, 328506, Note_on_c, 4, 81, 69
6, 328565, Note_on_c, 4, 81, 0
6, 328565, Note_on_c, 4, 70, 0
6, 328565, Note_on_c, 4, 79, 73
6, 328565, Note_on_c, 4, 64, 50
6, 328625, Note_on_c, 4, 79, 0
6, 328625, Note_on_c, 4, 81, 77
6, 328685, Note_on_c, 4, 81, 0
6, 328685, Note_on_c, 4, 64, 0
6, 328685, Note_on_c, 4, 79, 82
6, 328685, Note_on_c, 4, 70, 91
6, 328745, Note_on_c, 4, 79, 0
6, 328745, Note_on_c, 4, 81, 86
6, 328805, Note_on_c, 4, 81, 0
6, 328805, Note_on_c, 4, 70, 0
6, 328805, Note_on_c, 4, 79, 62
6, 328805, Note_on_c, 4, 60, 51
6, 328865, Note_on_c, 4, 79, 0
6, 328865, Note_on_c, 4, 81, 71
6, 328925, Note_on_c, 4, 81, 0
6, 328925, Note_on_c, 4, 60, 0
6, 328925, Note_on_c, 4, 79, 75
6, 328925, Note_on_c, 4, 70, 101
6, 328985, Note_on_c, 4, 79, 0
6, 328985, Note_on_c, 4, 81, 79
6, 329045, Note_on_c, 4, 81, 0
6, 329045, Note_on_c, 4, 70, 0
6, 329045, Note_on_c, 4, 79, 83
6, 329045, Note_on_c, 4, 64, 60
6, 329105, Note_on_c, 4, 79, 0
6, 329105, Note_on_c, 4, 81, 87
6, 329165, Note_on_c, 4, 81, 0
6, 329165, Note_on_c, 4, 64, 0
6, 329165, Note_on_c, 4, 79, 92
6, 329165, Note_on_c, 4, 70, 90
6, 329225, Note_on_c, 4, 79, 0
6, 329225, Note_on_c, 4, 81, 96
6, 329281, Note_on_c, 4, 81, 0
6, 329281, Note_on_c, 4, 70, 0
6, 329281, Note_on_c, 4, 79, 75
6, 329281, Note_on_c, 4, 60, 49
6, 329341, Note_on_c, 4, 79, 0
6, 329341, Note_on_c, 4, 81, 83
6, 329401, Note_on_c, 4, 81, 0
6, 329401, Note_on_c, 4, 60, 0
6, 329401, Note_on_c, 4, 79, 88
6, 329401, Note_on_c, 4, 70, 97
6, 329461, Note_on_c, 4, 79, 0
6, 329461, Note_on_c, 4, 81, 92
6, 329521, Note_on_c, 4, 81, 0
6, 329521, Note_on_c, 4, 70, 0
6, 329521, Note_on_c, 4, 79, 96
6, 329521, Note_on_c, 4, 64, 60
6, 329581, Note_on_c, 4, 79, 0
6, 329581, Note_on_c, 4, 81, 100
6, 329640, Note_on_c, 4, 81, 0
6, 329640, Note_on_c, 4, 64, 0
6, 329640, Note_on_c, 4, 79, 104
6, 329640, Note_on_c, 4, 70, 88
6, 329700, Note_on_c, 4, 79, 0
6, 329700, Note_on_c, 4, 81, 109
6, 329760, Note_on_c, 4, 81, 0
6, 329760, Note_on_c, 4, 70, 0
6, 329760, Note_on_c, 4, 79, 97
6, 329760, Note_on_c, 4, 60, 48
6, 329820, Note_on_c, 4, 79, 0
6, 329820, Note_on_c, 4, 81, 116
6, 329880, Note_on_c, 4, 81, 0
6, 329880, Note_on_c, 4, 60, 0
6, 329880, Note_on_c, 4, 79, 95
6, 329880, Note_on_c, 4, 70, 101
6, 329940, Note_on_c, 4, 79, 0
6, 329940, Note_on_c, 4, 81, 113
6, 330000, Note_on_c, 4, 81, 0
6, 330000, Note_on_c, 4, 70, 0
6, 330000, Note_on_c, 4, 77, 84
6, 330000, Note_on_c, 4, 64, 54
6, 330116, Note_on_c, 4, 64, 0
6, 330116, Note_on_c, 4, 77, 0
6, 330116, Note_on_c, 4, 79, 100
6, 330116, Note_on_c, 4, 70, 92
6, 330240, Note_on_c, 4, 70, 0
6, 330240, Note_on_c, 4, 79, 0
6, 330240, Note_on_c, 4, 77, 77
6, 330240, Control_c, 4, 64, 0
6, 330240, Note_on_c, 4, 65, 71
6, 330240, Note_on_c, 4, 69, 71
6, 330720, Note_on_c, 4, 69, 0
6, 330720, Note_on_c, 4, 65, 0
6, 330720, Note_on_c, 4, 77, 0
6, 366713, Note_on_c, 4, 69, 66
6, 366713, Control_c, 4, 64, 127
6, 366801, Note_on_c, 4, 69, 0
6, 366801, Note_on_c, 4, 72, 78
6, 366896, Note_on_c, 4, 72, 0
6, 366896, Note_on_c, 4, 77, 95
6, 367440, Note_on_c, 4, 77, 0
6, 367440, Note_on_c, 4, 79, 75
6, 367518, Note_on_c, 4, 79, 0
6, 367518, Note_on_c, 4, 77, 56
6, 367598, Note_on_c, 4, 77, 0
6, 367598, Note_on_c, 4, 76, 57
6, 367680, Note_on_c, 4, 76, 0
6, 367680, Note_on_c, 4, 77, 74
6, 368040, Note_on_c, 4, 77, 0
6, 368040, Note_on_c, 4, 81, 86
6, 368160, Note_on_c, 4, 81, 0
6, 368160, Note_on_c, 4, 72, 50
6, 368520, Note_on_c, 4, 72, 0
6, 368520, Note_on_c, 4, 77, 84
6, 368520, Control_c, 4, 64, 0
6, 368640, Note_on_c, 4, 77, 0
6, 368640, Note_on_c, 4, 69, 62
6, 368640, Control_c, 4, 64, 127
6, 368640, Note_on_c, 4, 53, 56
6, 368880, Note_on_c, 4, 53, 0
6, 368880, Note_on_c, 4, 60, 72
6, 369120, Note_on_c, 4, 60, 0
6, 369120, Note_on_c, 4, 69, 0
6, 369120, Note_on_c, 4, 57, 51
6, 369360, Note_on_c, 4, 57, 0
6, 369360, Control_c, 4, 64, 0
6, 369360, Note_on_c, 4, 60, 61
6, 369600, Note_on_c, 4, 60, 0
6, 369600, Control_c, 4, 64, 127
6, 369600, Note_on_c, 4, 50, 54
6, 369840, Note_on_c, 4, 50, 0
6, 369840, Note_on_c, 4, 62, 77
6, 370080, Note_on_c, 4, 62, 0
6, 370080, Note_on_c, 4, 77, 71
6, 370080, Note_on_c, 4, 57, 54
6, 370320, Note_on_c, 4, 57, 0
6, 370320, Note_on_c, 4, 62, 66
6, 370560, Note_on_c, 4, 62, 0
6, 370560, Note_on_c, 4, 77, 0
6, 370560, Note_on_c, 4, 81, 94
6, 370560, Control_c, 4, 64, 0
6, 370560, Control_c, 4, 64, 127
6, 370560, Note_on_c, 4, 58, 44
6, 370800, Note_on_c, 4, 58, 0
6, 370800, Note_on_c, 4, 67, 71
6, 371040, Note_on_c, 4, 67, 0
6, 371040, Note_on_c, 4, 81, 0
6, 371040, Note_on_c, 4, 79, 64
6, 371040, Note_on_c, 4, 62, 39
6, 371280, Note_on_c, 4, 62, 0
6, 371280, Control_c, 4, 64, 0
6, 371280, Note_on_c, 4, 67, 67
6, 371520, Note_on_c, 4, 67, 0
6, 371520, Control_c, 4, 64, 127
6, 371520, Note_on_c, 4, 60, 31
6, 371760, Note_on_c, 4, 60, 0
6, 371760, Note_on_c, 4, 70, 68
6, 372006, Note_on_c, 4, 70, 0
6, 372006, Note_on_c, 4, 79, 0
6, 372006, Note_on_c, 4, 77, 58
6, 372006, Note_on_c, 4, 67, 46
6, 372126, Note_on_c, 4, 77, 0
6, 372126, Note_on_c, 4, 76, 61
6, 372246, Note_on_c, 4, 76, 0
6, 372246, Note_on_c, 4, 67, 0
6, 372246, Note_on_c, 4, 74, 50
6, 372246, Control_c, 4, 64, 0
6, 372246, Note_on_c, 4, 70, 59
6, 372366, Note_on_c, 4, 74, 0
6, 372366, Note_on_c, 4, 76, 82
6, 372480, Note_on_c, 4, 76, 0
6, 372480, Note_on_c, 4, 70, 0
6, 372481, Note_on_c, 4, 77, 80
6, 372481, Note_on_c, 4, 65, 39
6, 372481, Note_on_c, 4, 69, 39
6, 372638, Note_on_c, 4, 77, 0
6, 372638, Note_on_c, 4, 72, 60
6, 372717, Note_on_c, 4, 72, 0
6, 372798, Note_on_c, 4, 74, 75
6, 372877, Note_on_c, 4, 74, 0
6, 372960, Note_on_c, 4, 69, 0
6, 372960, Note_on_c, 4, 65, 0
6, 372960, Note_on_c, 4, 76, 81
6, 373118, Note_on_c, 4, 76, 0
6, 373118, Note_on_c, 4, 77, 79
6, 373278, Note_on_c, 4, 77, 0
6, 373278, Note_on_c, 4, 78, 78
6, 373440, Note_on_c, 4, 78, 0
6, 373440, Note_on_c, 4, 79, 81
6, 373600, Note_on_c, 4, 79, 0
6, 373600, Note_on_c, 4, 80, 80
6, 373765, Note_on_c, 4, 80, 0
6, 373765, Note_on_c, 4, 81, 74
6, 373936, Note_on_c, 4, 81, 0
6, 373936, Note_on_c, 4, 82, 76
6, 374100, Note_on_c, 4, 82, 0
6, 374100, Note_on_c, 4, 83, 80
6, 374260, Note_on_c, 4, 83, 0
6, 374260, Note_on_c, 4, 84, 81
6, 374400, Note_on_c, 4, 84, 0
6, 374418, Note_on_c, 4, 77, 53
6, 375129, Note_on_c, 4, 77, 0
6, 375129, Note_on_c, 4, 79, 74
6, 375208, Note_on_c, 4, 79, 0
6, 375208, Note_on_c, 4, 77, 56
6, 375288, Note_on_c, 4, 77, 0
6, 375288, Note_on_c, 4, 76, 61
6, 375366, Note_on_c, 4, 76, 0
6, 375366, Note_on_c, 4, 77, 70
6, 375605, Note_on_c, 4, 77, 0
6, 375605, Note_on_c, 4, 77, 73
6, 375722, Note_on_c, 4, 77, 0
6, 375722, Note_on_c, 4, 81, 81
6, 375842, Note_on_c, 4, 81, 0
6, 375842, Note_on_c, 4, 72, 53
6, 376081, Note_on_c, 4, 72, 0
6, 376081, Note_on_c, 4, 72, 68
6, 376200, Note_on_c, 4, 72, 0
6, 376200, Note_on_c, 4, 77, 82
6, 376320, Note_on_c, 4, 77, 0
6, 376320, Note_on_c, 4, 69, 61
6, 376320, Control_c, 4, 64, 127
6, 376320, Note_on_c, 4, 53, 59
6, 376560, Note_on_c, 4, 53, 0
6, 376560, Note_on_c, 4, 60, 81
6, 376800, Note_on_c, 4, 60, 0
6, 376800, Note_on_c, 4, 69, 0
6, 376800, Note_on_c, 4, 57, 59
6, 377040, Note_on_c, 4, 57, 0
6, 377040, Control_c, 4, 64, 0
6, 377040, Note_on_c, 4, 60, 75
6, 377280, Note_on_c, 4, 60, 0
6, 377280, Control_c, 4, 64, 127
6, 377280, Note_on_c, 4, 50, 55
6, 377520, Note_on_c, 4, 50, 0
6, 377520, Note_on_c, 4, 62, 80
6, 377760, Note_on_c, 4, 62, 0
6, 377760, Note_on_c, 4, 77, 77
6, 377760, Note_on_c, 4, 57, 59
6, 378000, Note_on_c, 4, 57, 0
6, 378000, Control_c, 4, 64, 0
6, 378000, Note_on_c, 4, 62, 79
6, 378240, Note_on_c, 4, 62, 0
6, 378240, Note_on_c, 4, 77, 0
6, 378240, Control_c, 4, 64, 127
6, 378240, Note_on_c, 4, 58, 43
6, 378269, Note_on_c, 4, 81, 82
6, 378480, Note_on_c, 4, 58, 0
6, 378480, Note_on_c, 4, 67, 70
6, 378600, Note_on_c, 4, 81, 0
6, 378600, Note_on_c, 4, 79, 76
6, 378720, Note_on_c, 4, 79, 0
6, 378720, Note_on_c, 4, 67, 0
6, 378720, Note_on_c, 4, 79, 76
6, 378720, Note_on_c, 4, 62, 40
6, 378960, Note_on_c, 4, 62, 0
6, 378960, Control_c, 4, 64, 0
6, 378960, Note_on_c, 4, 67, 61
6, 379200, Note_on_c, 4, 67, 0
6, 379200, Control_c, 4, 64, 127
6, 379200, Note_on_c, 4, 60, 33
6, 379440, Note_on_c, 4, 60, 0
6, 379440, Note_on_c, 4, 79, 0
6, 379440, Note_on_c, 4, 81, 97
6, 379440, Note_on_c, 4, 70, 67
6, 379557, Note_on_c, 4, 81, 0
6, 379557, Note_on_c, 4, 79, 76
6, 379673, Note_on_c, 4, 79, 0
6, 379673, Note_on_c, 4, 70, 0
6, 379673, Note_on_c, 4, 77, 71
6, 379673, Note_on_c, 4, 67, 45
6, 379789, Note_on_c, 4, 77, 0
6, 379789, Note_on_c, 4, 76, 70
6, 379908, Note_on_c, 4, 76, 0
6, 379908, Note_on_c, 4, 67, 0
6, 379908, Note_on_c, 4, 74, 69
6, 379908, Control_c, 4, 64, 0
6, 379908, Note_on_c, 4, 70, 57
6, 380024, Note_on_c, 4, 74, 0
6, 380024, Note_on_c, 4, 72, 70
6, 380160, Note_on_c, 4, 72, 0
6, 380160, Note_on_c, 4, 70, 0
6, 380160, Note_on_c, 4, 79, 115
6, 380160, Control_c, 4, 64, 127
6, 380160, Note_on_c, 4, 57, 43
6, 380392, Note_on_c, 4, 57, 0
6, 380392, Note_on_c, 4, 65, 71
6, 380513, Note_on_c, 4, 79, 0
6, 380513, Note_on_c, 4, 77, 76
6, 380633, Note_on_c, 4, 77, 0
6, 380633, Note_on_c, 4, 65, 0
6, 380633, Note_on_c, 4, 77, 80
6, 380633, Note_on_c, 4, 60, 42
6, 380876, Note_on_c, 4, 60, 0
6, 380876, Control_c, 4, 64, 0
6, 380876, Note_on_c, 4, 65, 67
6, 381117, Note_on_c, 4, 65, 0
6, 381117, Control_c, 4, 64, 127
6, 381117, Note_on_c, 4, 58, 52
6, 381357, Note_on_c, 4, 58, 0
6, 381357, Note_on_c, 4, 77, 0
6, 381357, Note_on_c, 4, 79, 95
6, 381357, Note_on_c, 4, 65, 70
6, 381476, Note_on_c, 4, 79, 0
6, 381476, Note_on_c, 4, 77, 85
6, 381593, Note_on_c, 4, 77, 0
6, 381593, Note_on_c, 4, 65, 0
6, 381593, Note_on_c, 4, 76, 80
6, 381593, Note_on_c, 4, 62, 51
6, 381713, Note_on_c, 4, 76, 0
6, 381713, Note_on_c, 4, 74, 74
6, 381832, Note_on_c, 4, 74, 0
6, 381832, Note_on_c, 4, 62, 0
6, 381832, Note_on_c, 4, 73, 75
6, 381832, Control_c, 4, 64, 0
6, 381832, Note_on_c, 4, 65, 56
6, 381949, Note_on_c, 4, 73, 0
6, 381949, Note_on_c, 4, 74, 93
6, 382080, Note_on_c, 4, 74, 0
6, 382080, Note_on_c, 4, 65, 0
6, 382080, Note_on_c, 4, 77, 94
6, 382080, Control_c, 4, 64, 127
6, 382080, Note_on_c, 4, 55, 36
6, 382313, Note_on_c, 4, 55, 0
6, 382313, Note_on_c, 4, 64, 70
6, 382436, Note_on_c, 4, 77, 0
6, 382436, Note_on_c, 4, 76, 77
6, 382556, Note_on_c, 4, 76, 0
6, 382556, Note_on_c, 4, 64, 0
6, 382556, Note_on_c, 4, 76, 87
6, 382556, Note_on_c, 4, 58, 46
6, 382800, Note_on_c, 4, 58, 0
6, 382800, Control_c, 4, 64, 0
6, 382800, Note_on_c, 4, 64, 63
6, 383040, Note_on_c, 4, 64, 0
6, 383040, Control_c, 4, 64, 127
6, 383040, Note_on_c, 4, 57, 49
6, 383276, Note_on_c, 4, 57, 0
6, 383276, Note_on_c, 4, 76, 0
6, 383276, Note_on_c, 4, 79, 97
6, 383276, Note_on_c, 4, 67, 70
6, 383396, Note_on_c, 4, 79, 0
6, 383396, Note_on_c, 4, 76, 66
6, 383513, Note_on_c, 4, 76, 0
6, 383513, Note_on_c, 4, 67, 0
6, 383513, Note_on_c, 4, 74, 65
6, 383513, Note_on_c, 4, 64, 46
6, 383632, Note_on_c, 4, 74, 0
6, 383632, Note_on_c, 4, 73, 72
6, 383749, Note_on_c, 4, 73, 0
6, 383749, Note_on_c, 4, 64, 0
6, 383749, Note_on_c, 4, 71, 71
6, 383749, Control_c, 4, 64, 0
6, 383749, Note_on_c, 4, 67, 64
6, 383868, Note_on_c, 4, 71, 0
6, 383868, Note_on_c, 4, 73, 88
6, 384000, Note_on_c, 4, 73, 0
6, 384000, Note_on_c, 4, 67, 0
6, 384000, Note_on_c, 4, 74, 93
6, 384000, Note_on_c, 4, 62, 75
6, 384000, Note_on_c, 4, 65, 75
6, 384476, Note_on_c, 4, 65, 0
6, 384476, Note_on_c, 4, 62, 0
6, 384476, Note_on_c, 4, 74, 0
6, 386028, Note_on_c, 4, 62, 77
6, 386148, Note_on_c, 4, 62, 0
6, 386148, Note_on_c, 4, 64, 94
6, 386268, Note_on_c, 4, 64, 0
6, 386268, Note_on_c, 4, 65, 92
6, 386389, Note_on_c, 4, 65, 0
6, 386389, Note_on_c, 4, 67, 93
6, 386513, Note_on_c, 4, 67, 0
6, 386513, Note_on_c, 4, 69, 98
6, 386636, Note_on_c, 4, 69, 0
6, 386636, Note_on_c, 4, 71, 96
6, 386760, Note_on_c, 4, 71, 0
6, 386760, Note_on_c, 4, 73, 96
6, 386880, Note_on_c, 4, 73, 0
6, 386880, Note_on_c, 4, 74, 94
6, 387001, Note_on_c, 4, 74, 0
6, 387001, Note_on_c, 4, 76, 97
6, 387122, Note_on_c, 4, 76, 0
6, 387122, Note_on_c, 4, 78, 96
6, 387245, Note_on_c, 4, 78, 0
6, 387245, Note_on_c, 4, 79, 87
6, 387369, Note_on_c, 4, 79, 0
6, 387369, Note_on_c, 4, 81, 89
6, 387489, Note_on_c, 4, 81, 0
6, 387489, Note_on_c, 4, 82, 93
6, 387609, Note_on_c, 4, 82, 0
6, 387609, Note_on_c, 4, 84, 101
6, 387730, Note_on_c, 4, 84, 0
6, 387730, Note_on_c, 4, 86, 93
6, 387840, Note_on_c, 4, 86, 0
6, 387849, Note_on_c, 4, 82, 64
6, 387969, Note_on_c, 4, 43, 73
6, 388089, Note_on_c, 4, 43, 0
6, 388089, Note_on_c, 4, 45, 85
6, 388206, Note_on_c, 4, 45, 0
6, 388206, Note_on_c, 4, 46, 83
6, 388326, Note_on_c, 4, 46, 0
6, 388326, Note_on_c, 4, 82, 0
6, 388326, Note_on_c, 4, 48, 93
6, 388445, Note_on_c, 4, 48, 0
6, 388445, Note_on_c, 4, 50, 95
6, 388565, Note_on_c, 4, 50, 0
6, 388565, Note_on_c, 4, 52, 90
6, 388682, Note_on_c, 4, 52, 0
6, 388682, Note_on_c, 4, 54, 92
6, 388802, Note_on_c, 4, 54, 0
6, 388802, Note_on_c, 4, 55, 97
6, 388922, Note_on_c, 4, 55, 0
6, 388922, Note_on_c, 4, 57, 93
6, 389041, Note_on_c, 4, 57, 0
6, 389041, Note_on_c, 4, 58, 88
6, 389161, Note_on_c, 4, 58, 0
6, 389161, Note_on_c, 4, 60, 94
6, 389280, Note_on_c, 4, 60, 0
6, 389280, Note_on_c, 4, 62, 102
6, 389400, Note_on_c, 4, 62, 0
6, 389400, Note_on_c, 4, 58, 80
6, 389520, Note_on_c, 4, 58, 0
6, 389520, Note_on_c, 4, 62, 103
6, 389640, Note_on_c, 4, 62, 0
6, 389640, Note_on_c, 4, 58, 82
6, 389760, Note_on_c, 4, 58, 0
6, 389760, Note_on_c, 4, 55, 78
6, 389880, Note_on_c, 4, 67, 76
6, 389997, Note_on_c, 4, 67, 0
6, 389997, Note_on_c, 4, 69, 91
6, 390117, Note_on_c, 4, 69, 0
6, 390117, Note_on_c, 4, 70, 94
6, 390236, Note_on_c, 4, 70, 0
6, 390236, Note_on_c, 4, 55, 0
6, 390236, Note_on_c, 4, 72, 90
6, 390357, Note_on_c, 4, 72, 0
6, 390357, Note_on_c, 4, 74, 99
6, 390480, Note_on_c, 4, 74, 0
6, 390480, Note_on_c, 4, 76, 101
6, 390600, Note_on_c, 4, 76, 0
6, 390600, Note_on_c, 4, 78, 97
6, 390721, Note_on_c, 4, 78, 0
6, 390721, Note_on_c, 4, 79, 96
6, 390845, Note_on_c, 4, 79, 0
6, 390845, Note_on_c, 4, 81, 86
6, 390965, Note_on_c, 4, 81, 0
6, 390965, Note_on_c, 4, 83, 98
6, 391086, Note_on_c, 4, 83, 0
6, 391086, Note_on_c, 4, 84, 94
6, 391206, Note_on_c, 4, 84, 0
6, 391206, Note_on_c, 4, 86, 95
6, 391326, Note_on_c, 4, 86, 0
6, 391326, Note_on_c, 4, 83, 86
6, 391445, Note_on_c, 4, 83, 0
6, 391445, Note_on_c, 4, 79, 61
6, 391565, Note_on_c, 4, 79, 0
6, 391565, Note_on_c, 4, 77, 63
6, 391680, Note_on_c, 4, 77, 0
6, 391682, Note_on_c, 4, 75, 63
6, 391802, Note_on_c, 4, 36, 66
6, 391922, Note_on_c, 4, 36, 0
6, 391922, Note_on_c, 4, 38, 86
6, 392042, Note_on_c, 4, 38, 0
6, 392042, Note_on_c, 4, 39, 81
6, 392161, Note_on_c, 4, 39, 0
6, 392161, Note_on_c, 4, 75, 0
6, 392161, Note_on_c, 4, 41, 94
6, 392281, Note_on_c, 4, 41, 0
6, 392281, Note_on_c, 4, 43, 89
6, 392401, Note_on_c, 4, 43, 0
6, 392401, Note_on_c, 4, 45, 85
6, 392521, Note_on_c, 4, 45, 0
6, 392521, Note_on_c, 4, 47, 95
6, 392641, Note_on_c, 4, 47, 0
6, 392641, Note_on_c, 4, 48, 87
6, 392761, Note_on_c, 4, 48, 0
6, 392761, Note_on_c, 4, 50, 86
6, 392880, Note_on_c, 4, 50, 0
6, 392880, Note_on_c, 4, 51, 89
6, 393000, Note_on_c, 4, 51, 0
6, 393000, Note_on_c, 4, 53, 84
6, 393120, Note_on_c, 4, 53, 0
6, 393120, Note_on_c, 4, 55, 89
6, 393240, Note_on_c, 4, 55, 0
6, 393240, Note_on_c, 4, 51, 69
6, 393360, Note_on_c, 4, 51, 0
6, 393360, Note_on_c, 4, 55, 88
6, 393480, Note_on_c, 4, 55, 0
6, 393480, Note_on_c, 4, 51, 76
6, 393600, Note_on_c, 4, 51, 0
6, 393600, Note_on_c, 4, 48, 71
6, 393720, Note_on_c, 4, 60, 77
6, 393840, Note_on_c, 4, 60, 0
6, 393840, Note_on_c, 4, 62, 86
6, 393960, Note_on_c, 4, 62, 0
6, 393960, Note_on_c, 4, 63, 91
6, 394080, Note_on_c, 4, 63, 0
6, 394080, Note_on_c, 4, 48, 0
6, 394080, Note_on_c, 4, 65, 96
6, 394200, Note_on_c, 4, 65, 0
6, 394200, Note_on_c, 4, 67, 90
6, 394320, Note_on_c, 4, 67, 0
6, 394320, Note_on_c, 4, 69, 96
6, 394440, Note_on_c, 4, 69, 0
6, 394440, Note_on_c, 4, 71, 96
6, 394560, Note_on_c, 4, 71, 0
6, 394560, Note_on_c, 4, 72, 94
6, 394681, Note_on_c, 4, 72, 0
6, 394681, Note_on_c, 4, 74, 93
6, 394801, Note_on_c, 4, 74, 0
6, 394801, Note_on_c, 4, 76, 100
6, 394921, Note_on_c, 4, 76, 0
6, 394921, Note_on_c, 4, 77, 101
6, 395041, Note_on_c, 4, 77, 0
6, 395041, Note_on_c, 4, 79, 96
6, 395161, Note_on_c, 4, 79, 0
6, 395161, Note_on_c, 4, 76, 76
6, 395281, Note_on_c, 4, 76, 0
6, 395281, Note_on_c, 4, 72, 61
6, 395400, Note_on_c, 4, 72, 0
6, 395400, Note_on_c, 4, 70, 59
6, 395520, Note_on_c, 4, 70, 0
6, 395521, Note_on_c, 4, 69, 73
6, 395641, Note_on_c, 4, 41, 77
6, 395761, Note_on_c, 4, 41, 0
6, 395761, Note_on_c, 4, 43, 82
6, 395881, Note_on_c, 4, 43, 0
6, 395881, Note_on_c, 4, 45, 86
6, 396001, Note_on_c, 4, 45, 0
6, 396001, Note_on_c, 4, 69, 0
6, 396001, Note_on_c, 4, 46, 97
6, 396121, Note_on_c, 4, 46, 0
6, 396121, Note_on_c, 4, 48, 85
6, 396241, Note_on_c, 4, 48, 0
6, 396241, Note_on_c, 4, 50, 94
6, 396361, Note_on_c, 4, 50, 0
6, 396361, Note_on_c, 4, 52, 83
6, 396480, Note_on_c, 4, 52, 0
6, 396480, Note_on_c, 4, 53, 88
6, 396600, Note_on_c, 4, 53, 0
6, 396600, Note_on_c, 4, 55, 88
6, 396720, Note_on_c, 4, 55, 0
6, 396720, Note_on_c, 4, 57, 94
6, 396840, Note_on_c, 4, 57, 0
6, 396840, Note_on_c, 4, 58, 90
6, 396960, Note_on_c, 4, 58, 0
6, 396960, Note_on_c, 4, 60, 94
6, 397080, Note_on_c, 4, 60, 0
6, 397080, Note_on_c, 4, 57, 85
6, 397200, Note_on_c, 4, 57, 0
6, 397200, Note_on_c, 4, 60, 99
6, 397320, Note_on_c, 4, 60, 0
6, 397320, Note_on_c, 4, 57, 77
6, 397440, Note_on_c, 4, 57, 0
6, 397440, Note_on_c, 4, 53, 68
6, 397560, Note_on_c, 4, 65, 78
6, 397680, Note_on_c, 4, 65, 0
6, 397680, Note_on_c, 4, 67, 91
6, 397800, Note_on_c, 4, 67, 0
6, 397800, Note_on_c, 4, 69, 93
6, 397920, Note_on_c, 4, 69, 0
6, 397920, Note_on_c, 4, 53, 0
6, 397920, Note_on_c, 4, 70, 95
6, 398040, Note_on_c, 4, 70, 0
6, 398040, Note_on_c, 4, 72, 98
6, 398160, Note_on_c, 4, 72, 0
6, 398160, Note_on_c, 4, 74, 97
6, 398280, Note_on_c, 4, 74, 0
6, 398280, Note_on_c, 4, 76, 99
6, 398401, Note_on_c, 4, 76, 0
6, 398401, Note_on_c, 4, 77, 99
6, 398525, Note_on_c, 4, 77, 0
6, 398525, Note_on_c, 4, 79, 98
6, 398645, Note_on_c, 4, 79, 0
6, 398645, Note_on_c, 4, 81, 103
6, 398765, Note_on_c, 4, 81, 0
6, 398765, Note_on_c, 4, 82, 91
6, 398885, Note_on_c, 4, 82, 0
6, 398885, Note_on_c, 4, 84, 97
6, 399005, Note_on_c, 4, 84, 0
6, 399005, Note_on_c, 4, 81, 70
6, 399125, Note_on_c, 4, 81, 0
6, 399125, Note_on_c, 4, 77, 61
6, 399245, Note_on_c, 4, 77, 0
6, 399245, Note_on_c, 4, 75, 66
6, 399360, Note_on_c, 4, 75, 0
6, 399366, Note_on_c, 4, 74, 68
6, 399482, Note_on_c, 4, 46, 75
6, 399602, Note_on_c, 4, 46, 0
6, 399602, Note_on_c, 4, 48, 87
6, 399722, Note_on_c, 4, 48, 0
6, 399722, Note_on_c, 4, 50, 91
6, 399842, Note_on_c, 4, 50, 0
6, 399842, Note_on_c, 4, 74, 0
6, 399842, Note_on_c, 4, 51, 87
6, 399962, Note_on_c, 4, 51, 0
6, 399962, Note_on_c, 4, 53, 89
6, 400082, Note_on_c, 4, 53, 0
6, 400082, Note_on_c, 4, 55, 84
6, 400202, Note_on_c, 4, 55, 0
6, 400202, Note_on_c, 4, 57, 92
6, 400322, Note_on_c, 4, 57, 0
6, 400322, Note_on_c, 4, 58, 82
6, 400442, Note_on_c, 4, 58, 0
6, 400442, Note_on_c, 4, 60, 96
6, 400560, Note_on_c, 4, 60, 0
6, 400560, Note_on_c, 4, 62, 101
6, 400680, Note_on_c, 4, 62, 0
6, 400680, Note_on_c, 4, 63, 90
6, 400800, Note_on_c, 4, 63, 0
6, 400800, Note_on_c, 4, 65, 97
6, 400920, Note_on_c, 4, 65, 0
6, 400920, Note_on_c, 4, 62, 64
6, 401040, Note_on_c, 4, 62, 0
6, 401040, Note_on_c, 4, 65, 87
6, 401160, Note_on_c, 4, 65, 0
6, 401160, Note_on_c, 4, 62, 71
6, 401280, Note_on_c, 4, 62, 0
6, 401280, Note_on_c, 4, 58, 75
6, 401400, Note_on_c, 4, 70, 71
6, 401520, Note_on_c, 4, 70, 0
6, 401520, Note_on_c, 4, 72, 100
6, 401640, Note_on_c, 4, 72, 0
6, 401640, Note_on_c, 4, 74, 94
6, 401760, Note_on_c, 4, 74, 0
6, 401760, Note_on_c, 4, 58, 0
6, 401760, Note_on_c, 4, 75, 93
6, 401880, Note_on_c, 4, 75, 0
6, 401880, Note_on_c, 4, 77, 98
6, 402000, Note_on_c, 4, 77, 0
6, 402000, Note_on_c, 4, 79, 98
6, 402122, Note_on_c, 4, 79, 0
6, 402122, Note_on_c, 4, 81, 104
6, 402242, Note_on_c, 4, 81, 0
6, 402242, Note_on_c, 4, 82, 99
6, 402366, Note_on_c, 4, 82, 0
6, 402366, Note_on_c, 4, 84, 96
6, 402490, Note_on_c, 4, 84, 0
6, 402490, Note_on_c, 4, 86, 102
6, 402610, Note_on_c, 4, 86, 0
6, 402610, Note_on_c, 4, 87, 97
6, 402730, Note_on_c, 4, 87, 0
6, 402730, Note_on_c, 4, 89, 97
6, 402850, Note_on_c, 4, 89, 0
6, 402850, Note_on_c, 4, 86, 66
6, 402966, Note_on_c, 4, 86, 0
6, 402966, Note_on_c, 4, 82, 61
6, 403086, Note_on_c, 4, 82, 0
6, 403086, Note_on_c, 4, 80, 65
6, 403200, Note_on_c, 4, 80, 0
6, 403206, Note_on_c, 4, 79, 75
6, 403206, Note_on_c, 4, 63, 61
6, 403442, Note_on_c, 4, 63, 0
6, 403442, Note_on_c, 4, 70, 81
6, 403682, Note_on_c, 4, 70, 0
6, 403682, Note_on_c, 4, 67, 56
6, 403922, Note_on_c, 4, 67, 0
6, 403922, Note_on_c, 4, 70, 64
6, 404162, Note_on_c, 4, 70, 0
6, 404162, Note_on_c, 4, 79, 0
6, 404162, Note_on_c, 4, 80, 93
6, 404162, Note_on_c, 4, 62, 44
6, 404222, Note_on_c, 4, 80, 0
6, 404222, Note_on_c, 4, 82, 94
6, 404282, Note_on_c, 4, 82, 0
6, 404282, Note_on_c, 4, 80, 75
6, 404342, Note_on_c, 4, 80, 0
6, 404342, Note_on_c, 4, 82, 89
6, 404402, Note_on_c, 4, 82, 0
6, 404402, Note_on_c, 4, 62, 0
6, 404402, Note_on_c, 4, 80, 76
6, 404402, Note_on_c, 4, 71, 82
6, 404462, Note_on_c, 4, 80, 0
6, 404462, Note_on_c, 4, 82, 92
6, 404522, Note_on_c, 4, 82, 0
6, 404522, Note_on_c, 4, 80, 77
6, 404582, Note_on_c, 4, 80, 0
6, 404582, Note_on_c, 4, 82, 86
6, 404642, Note_on_c, 4, 82, 0
6, 404642, Note_on_c, 4, 71, 0
6, 404642, Note_on_c, 4, 80, 69
6, 404642, Note_on_c, 4, 65, 49
6, 404702, Note_on_c, 4, 80, 0
6, 404702, Note_on_c, 4, 82, 90
6, 404762, Note_on_c, 4, 82, 0
6, 404762, Note_on_c, 4, 80, 70
6, 404822, Note_on_c, 4, 80, 0
6, 404822, Note_on_c, 4, 82, 92
6, 404882, Note_on_c, 4, 82, 0
6, 404882, Note_on_c, 4, 65, 0
6, 404882, Note_on_c, 4, 79, 70
6, 404882, Note_on_c, 4, 71, 81
6, 405000, Note_on_c, 4, 79, 0
6, 405000, Note_on_c, 4, 80, 85
6, 405120, Note_on_c, 4, 80, 0
6, 405120, Note_on_c, 4, 71, 0
6, 405120, Note_on_c, 4, 79, 75
6, 405120, Note_on_c, 4, 63, 92
6, 405120, Note_on_c, 4, 72, 92
6, 405246, Note_on_c, 4, 79, 0
6, 405278, Note_on_c, 4, 78, 82
6, 405438, Note_on_c, 4, 78, 0
6, 405438, Note_on_c, 4, 77, 74
6, 405600, Note_on_c, 4, 77, 0
6, 405600, Note_on_c, 4, 72, 0
6, 405600, Note_on_c, 4, 63, 0
6, 405600, Note_on_c, 4, 76, 77
6, 405758, Note_on_c, 4, 76, 0
6, 405758, Note_on_c, 4, 75, 78
6, 405918, Note_on_c, 4, 75, 0
6, 405918, Note_on_c, 4, 74, 67
6, 406080, Note_on_c, 4, 74, 0
6, 406080, Note_on_c, 4, 72, 73
6, 406158, Note_on_c, 4, 72, 0
6, 406238, Note_on_c, 4, 74, 90
6, 406317, Note_on_c, 4, 74, 0
6, 406398, Note_on_c, 4, 75, 92
6, 406477, Note_on_c, 4, 75, 0
6, 406562, Note_on_c, 4, 77, 97
6, 406641, Note_on_c, 4, 77, 0
6, 406722, Note_on_c, 4, 78, 97
6, 406801, Note_on_c, 4, 78, 0
6, 406888, Note_on_c, 4, 79, 88
6, 406966, Note_on_c, 4, 79, 0
6, 407046, Note_on_c, 4, 77, 81
6, 407046, Note_on_c, 4, 62, 57
6, 407282, Note_on_c, 4, 62, 0
6, 407282, Note_on_c, 4, 70, 78
6, 407522, Note_on_c, 4, 70, 0
6, 407522, Note_on_c, 4, 65, 50
6, 407760, Note_on_c, 4, 65, 0
6, 407760, Note_on_c, 4, 70, 77
6, 408002, Note_on_c, 4, 70, 0
6, 408002, Note_on_c, 4, 77, 0
6, 408002, Note_on_c, 4, 78, 90
6, 408002, Note_on_c, 4, 63, 47
6, 408062, Note_on_c, 4, 78, 0
6, 408062, Note_on_c, 4, 80, 92
6, 408122, Note_on_c, 4, 80, 0
6, 408122, Note_on_c, 4, 78, 77
6, 408182, Note_on_c, 4, 78, 0
6, 408182, Note_on_c, 4, 80, 86
6, 408242, Note_on_c, 4, 80, 0
6, 408242, Note_on_c, 4, 63, 0
6, 408242, Note_on_c, 4, 78, 76
6, 408242, Note_on_c, 4, 69, 71
6, 408302, Note_on_c, 4, 78, 0
6, 408302, Note_on_c, 4, 80, 84
6, 408366, Note_on_c, 4, 80, 0
6, 408366, Note_on_c, 4, 78, 76
6, 408426, Note_on_c, 4, 78, 0
6, 408426, Note_on_c, 4, 80, 98
6, 408486, Note_on_c, 4, 80, 0
6, 408486, Note_on_c, 4, 69, 0
6, 408486, Note_on_c, 4, 78, 73
6, 408486, Note_on_c, 4, 66, 51
6, 408546, Note_on_c, 4, 78, 0
6, 408546, Note_on_c, 4, 80, 93
6, 408606, Note_on_c, 4, 80, 0
6, 408606, Note_on_c, 4, 78, 74
6, 408666, Note_on_c, 4, 78, 0
6, 408666, Note_on_c, 4, 80, 94
6, 408726, Note_on_c, 4, 80, 0
6, 408726, Note_on_c, 4, 66, 0
6, 408726, Note_on_c, 4, 77, 66
6, 408726, Note_on_c, 4, 69, 76
6, 408842, Note_on_c, 4, 77, 0
6, 408842, Note_on_c, 4, 78, 81
6, 408960, Note_on_c, 4, 78, 0
6, 408960, Note_on_c, 4, 69, 0
6, 408962, Note_on_c, 4, 77, 75
6, 408962, Note_on_c, 4, 62, 92
6, 408962, Note_on_c, 4, 70, 92
6, 409122, Note_on_c, 4, 77, 0
6, 409122, Note_on_c, 4, 76, 75
6, 409281, Note_on_c, 4, 76, 0
6, 409281, Note_on_c, 4, 75, 72
6, 409440, Note_on_c, 4, 75, 0
6, 409440, Note_on_c, 4, 70, 0
6, 409440, Note_on_c, 4, 62, 0
6, 409440, Note_on_c, 4, 74, 68
6, 409598, Note_on_c, 4, 74, 0
6, 409598, Note_on_c, 4, 73, 74
6, 409758, Note_on_c, 4, 73, 0
6, 409758, Note_on_c, 4, 72, 71
6, 409920, Note_on_c, 4, 72, 0
6, 409920, Note_on_c, 4, 70, 69
6, 409998, Note_on_c, 4, 70, 0
6, 410078, Note_on_c, 4, 72, 92
6, 410157, Note_on_c, 4, 72, 0
6, 410238, Note_on_c, 4, 74, 97
6, 410317, Note_on_c, 4, 74, 0
6, 410402, Note_on_c, 4, 75, 89
6, 410481, Note_on_c, 4, 75, 0
6, 410562, Note_on_c, 4, 76, 101
6, 410641, Note_on_c, 4, 76, 0
6, 410721, Note_on_c, 4, 77, 95
6, 410806, Note_on_c, 4, 77, 0
6, 410889, Note_on_c, 4, 77, 84
6, 410889, Control_c, 4, 64, 127
6, 410889, Note_on_c, 4, 54, 59
6, 411122, Note_on_c, 4, 54, 0
6, 411122, Note_on_c, 4, 77, 0
6, 411122, Note_on_c, 4, 75, 74
6, 411122, Note_on_c, 4, 58, 63
6, 411362, Note_on_c, 4, 58, 0
6, 411362, Note_on_c, 4, 75, 0
6, 411362, Note_on_c, 4, 75, 80
6, 411362, Note_on_c, 4, 57, 58
6, 411602, Note_on_c, 4, 57, 0
6, 411602, Control_c, 4, 64, 0
6, 411602, Note_on_c, 4, 58, 61
6, 411842, Note_on_c, 4, 58, 0
6, 411842, Note_on_c, 4, 75, 0
6, 411842, Control_c, 4, 64, 127
6, 411842, Note_on_c, 4, 53, 61
6, 412080, Note_on_c, 4, 53, 0
6, 412080, Note_on_c, 4, 75, 75
6, 412080, Note_on_c, 4, 58, 65
6, 412140, Note_on_c, 4, 75, 0
6, 412140, Note_on_c, 4, 73, 69
6, 412200, Note_on_c, 4, 73, 0
6, 412200, Note_on_c, 4, 72, 69
6, 412260, Note_on_c, 4, 72, 0
6, 412260, Note_on_c, 4, 73, 88
6, 412320, Note_on_c, 4, 73, 0
6, 412320, Note_on_c, 4, 58, 0
6, 412320, Note_on_c, 4, 77, 108
6, 412320, Note_on_c, 4, 57, 63
6, 412560, Note_on_c, 4, 57, 0
6, 412560, Note_on_c, 4, 77, 0
6, 412560, Note_on_c, 4, 73, 72
6, 412560, Control_c, 4, 64, 0
6, 412560, Note_on_c, 4, 58, 65
6, 412800, Note_on_c, 4, 58, 0
6, 412800, Note_on_c, 4, 73, 0
6, 412800, Note_on_c, 4, 73, 83
6, 412800, Control_c, 4, 64, 127
6, 412800, Note_on_c, 4, 51, 54
6, 413040, Note_on_c, 4, 51, 0
6, 413040, Note_on_c, 4, 73, 0
6, 413040, Note_on_c, 4, 72, 74
6, 413040, Note_on_c, 4, 58, 71
6, 413280, Note_on_c, 4, 58, 0
6, 413280, Note_on_c, 4, 72, 0
6, 413280, Note_on_c, 4, 72, 82
6, 413280, Note_on_c, 4, 57, 56
6, 413520, Note_on_c, 4, 57, 0
6, 413520, Control_c, 4, 64, 0
6, 413520, Note_on_c, 4, 58, 69
6, 413760, Note_on_c, 4, 58, 0
6, 413760, Control_c, 4, 64, 127
6, 413760, Note_on_c, 4, 53, 60
6, 414000, Note_on_c, 4, 53, 0
6, 414000, Note_on_c, 4, 72, 0
6, 414000, Note_on_c, 4, 72, 85
6, 414000, Note_on_c, 4, 58, 69
6, 414240, Note_on_c, 4, 58, 0
6, 414240, Note_on_c, 4, 72, 0
6, 414240, Note_on_c, 4, 75, 96
6, 414240, Note_on_c, 4, 57, 66
6, 414480, Note_on_c, 4, 57, 0
6, 414480, Control_c, 4, 64, 0
6, 414480, Note_on_c, 4, 58, 63
6, 414600, Note_on_c, 4, 75, 0
6, 414600, Note_on_c, 4, 74, 77
6, 414720, Note_on_c, 4, 74, 0
6, 414720, Note_on_c, 4, 58, 0
6, 414720, Note_on_c, 4, 77, 98
6, 414720, Control_c, 4, 64, 127
6, 414720, Note_on_c, 4, 54, 55
6, 414960, Note_on_c, 4, 54, 0
6, 414960, Note_on_c, 4, 77, 0
6, 414960, Note_on_c, 4, 75, 75
6, 414960, Note_on_c, 4, 58, 67
6, 415200, Note_on_c, 4, 58, 0
6, 415200, Note_on_c, 4, 75, 0
6, 415200, Note_on_c, 4, 75, 87
6, 415200, Note_on_c, 4, 57, 58
6, 415440, Note_on_c, 4, 57, 0
6, 415440, Control_c, 4, 64, 0
6, 415440, Note_on_c, 4, 58, 66
6, 415680, Note_on_c, 4, 58, 0
6, 415680, Control_c, 4, 64, 127
6, 415680, Note_on_c, 4, 53, 60
6, 415800, Note_on_c, 4, 75, 0
6, 415800, Note_on_c, 4, 73, 67
6, 415920, Note_on_c, 4, 73, 0
6, 415920, Note_on_c, 4, 53, 0
6, 415920, Note_on_c, 4, 77, 101
6, 415920, Note_on_c, 4, 58, 73
6, 416040, Note_on_c, 4, 77, 0
6, 416040, Note_on_c, 4, 76, 76
6, 416160, Note_on_c, 4, 76, 0
6, 416160, Note_on_c, 4, 58, 0
6, 416160, Note_on_c, 4, 77, 91
6, 416160, Note_on_c, 4, 57, 62
6, 416280, Note_on_c, 4, 77, 0
6, 416280, Note_on_c, 4, 76, 73
6, 416400, Note_on_c, 4, 76, 0
6, 416400, Note_on_c, 4, 57, 0
6, 416400, Note_on_c, 4, 77, 93
6, 416400, Control_c, 4, 64, 0
6, 416400, Note_on_c, 4, 58, 64
6, 416520, Note_on_c, 4, 77, 0
6, 416520, Note_on_c, 4, 73, 72
6, 416640, Note_on_c, 4, 73, 0
6, 416640, Note_on_c, 4, 58, 0
6, 416640, Note_on_c, 4, 73, 81
6, 416640, Control_c, 4, 64, 127
6, 416640, Note_on_c, 4, 52, 53
6, 416700, Note_on_c, 4, 73, 0
6, 416700, Note_on_c, 4, 75, 89
6, 416760, Note_on_c, 4, 75, 0
6, 416760, Note_on_c, 4, 73, 70
6, 416880, Note_on_c, 4, 73, 0
6, 416880, Note_on_c, 4, 52, 0
6, 416880, Note_on_c, 4, 72, 74
6, 416880, Note_on_c, 4, 58, 72
6, 417120, Note_on_c, 4, 58, 0
6, 417120, Note_on_c, 4, 72, 0
6, 417120, Note_on_c, 4, 72, 86
6, 417120, Note_on_c, 4, 57, 53
6, 417360, Note_on_c, 4, 57, 0
6, 417360, Control_c, 4, 64, 0
6, 417360, Note_on_c, 4, 58, 65
6, 417600, Note_on_c, 4, 58, 0
6, 417600, Control_c, 4, 64, 127
6, 417600, Note_on_c, 4, 53, 52
6, 417840, Note_on_c, 4, 53, 0
6, 417840, Note_on_c, 4, 72, 0
6, 417840, Note_on_c, 4, 72, 87
6, 417840, Note_on_c, 4, 58, 71
6, 418080, Note_on_c, 4, 58, 0
6, 418080, Note_on_c, 4, 72, 0
6, 418080, Note_on_c, 4, 75, 101
6, 418080, Note_on_c, 4, 56, 60
6, 418320, Note_on_c, 4, 56, 0
6, 418320, Control_c, 4, 64, 0
6, 418320, Note_on_c, 4, 58, 61
6, 418440, Note_on_c, 4, 75, 0
6, 418440, Note_on_c, 4, 74, 79
6, 418560, Note_on_c, 4, 74, 0
6, 418560, Note_on_c, 4, 58, 0
6, 418560, Note_on_c, 4, 77, 98
6, 418560, Control_c, 4, 64, 127
6, 418560, Note_on_c, 4, 54, 45
6, 418800, Note_on_c, 4, 54, 0
6, 418800, Note_on_c, 4, 63, 83
6, 418920, Note_on_c, 4, 77, 0
6, 418920, Note_on_c, 4, 75, 74
6, 419040, Note_on_c, 4, 75, 0
6, 419040, Note_on_c, 4, 63, 0
6, 419040, Note_on_c, 4, 70, 107
6, 419040, Note_on_c, 4, 82, 107
6, 419040, Note_on_c, 4, 58, 61
6, 419280, Note_on_c, 4, 58, 0
6, 419280, Control_c, 4, 64, 0
6, 419280, Note_on_c, 4, 63, 83
6, 419520, Note_on_c, 4, 63, 0
6, 419520, Control_c, 4, 64, 127
6, 419520, Note_on_c, 4, 50, 42
6, 419760, Note_on_c, 4, 50, 0
6, 419760, Note_on_c, 4, 58, 72
6, 420000, Note_on_c, 4, 58, 0
6, 420000, Note_on_c, 4, 82, 0
6, 420000, Note_on_c, 4, 70, 0
6, 420000, Note_on_c, 4, 80, 84
6, 420000, Note_on_c, 4, 53, 55
6, 420240, Note_on_c, 4, 53, 0
6, 420240, Control_c, 4, 64, 0
6, 420240, Note_on_c, 4, 58, 67
6, 420480, Note_on_c, 4, 58, 0
6, 420480, Control_c, 4, 64, 127
6, 420480, Note_on_c, 4, 51, 48
6, 420720, Note_on_c, 4, 51, 0
6, 420720, Note_on_c, 4, 63, 86
6, 420960, Note_on_c, 4, 63, 0
6, 420960, Note_on_c, 4, 80, 0
6, 420960, Note_on_c, 4, 78, 72
6, 420960, Note_on_c, 4, 58, 57
6, 421200, Note_on_c, 4, 58, 0
6, 421200, Control_c, 4, 64, 0
6, 421200, Note_on_c, 4, 63, 80
6, 421440, Note_on_c, 4, 63, 0
6, 421440, Control_c, 4, 64, 127
6, 421440, Note_on_c, 4, 53, 44
6, 421680, Note_on_c, 4, 53, 0
6, 421680, Note_on_c, 4, 61, 80
6, 421920, Note_on_c, 4, 61, 0
6, 421920, Note_on_c, 4, 78, 0
6, 421920, Note_on_c, 4, 77, 72
6, 421920, Note_on_c, 4, 58, 62
6, 422160, Note_on_c, 4, 58, 0
6, 422160, Control_c, 4, 64, 0
6, 422160, Note_on_c, 4, 61, 69
6, 422400, Note_on_c, 4, 61, 0
6, 422400, Note_on_c, 4, 54, 121
6, 422640, Note_on_c, 4, 77, 0
6, 422640, Note_on_c, 4, 76, 74
6, 422880, Note_on_c, 4, 58, 49
6, 423120, Note_on_c, 4, 76, 0
6, 423120, Note_on_c, 4, 73, 67
6, 423360, Note_on_c, 4, 58, 0
6, 423360, Note_on_c, 4, 61, 68
6, 423600, Note_on_c, 4, 73, 0
6, 423600, Note_on_c, 4, 72, 78
6, 423829, Note_on_c, 4, 61, 0
6, 423829, Note_on_c, 4, 64, 74
6, 424060, Note_on_c, 4, 72, 0
6, 424060, Note_on_c, 4, 70, 74
6, 424320, Note_on_c, 4, 70, 0
6, 424320, Note_on_c, 4, 64, 0
6, 424320, Note_on_c, 4, 54, 0
6, 424320, Note_on_c, 4, 69, 80
6, 424320, Note_on_c, 4, 53, 71
6, 424429, Note_on_c, 4, 69, 0
6, 424429, Note_on_c, 4, 65, 63
6, 424549, Note_on_c, 4, 65, 0
6, 424549, Note_on_c, 4, 67, 88
6, 424669, Note_on_c, 4, 67, 0
6, 424669, Note_on_c, 4, 69, 95
6, 424789, Note_on_c, 4, 69, 0
6, 424789, Note_on_c, 4, 53, 0
6, 424789, Note_on_c, 4, 70, 95
6, 424909, Note_on_c, 4, 70, 0
6, 424909, Note_on_c, 4, 72, 88
6, 425033, Note_on_c, 4, 72, 0
6, 425033, Note_on_c, 4, 74, 92
6, 425153, Note_on_c, 4, 74, 0
6, 425153, Note_on_c, 4, 76, 93
6, 425276, Note_on_c, 4, 76, 0
6, 425276, Note_on_c, 4, 77, 88
6, 425400, Note_on_c, 4, 77, 0
6, 425400, Note_on_c, 4, 79, 99
6, 425521, Note_on_c, 4, 79, 0
6, 425521, Note_on_c, 4, 81, 99
6, 425642, Note_on_c, 4, 81, 0
6, 425642, Note_on_c, 4, 82, 88
6, 425769, Note_on_c, 4, 82, 0
6, 425769, Note_on_c, 4, 84, 97
6, 425894, Note_on_c, 4, 84, 0
6, 425894, Note_on_c, 4, 86, 101
6, 426018, Note_on_c, 4, 86, 0
6, 426018, Note_on_c, 4, 88, 101
6, 426140, Note_on_c, 4, 88, 0
6, 426140, Note_on_c, 4, 89, 91
6, 426240, Note_on_c, 4, 89, 0
6, 426250, Note_on_c, 4, 88, 82
6, 426250, Note_on_c, 4, 41, 78
6, 426250, Note_on_c, 4, 53, 78
6, 426409, Note_on_c, 4, 88, 0
6, 426409, Note_on_c, 4, 85, 71
6, 426569, Note_on_c, 4, 85, 0
6, 426569, Note_on_c, 4, 82, 62
6, 426729, Note_on_c, 4, 82, 0
6, 426729, Note_on_c, 4, 79, 68
6, 426886, Note_on_c, 4, 79, 0
6, 426886, Note_on_c, 4, 76, 62
6, 427045, Note_on_c, 4, 76, 0
6, 427045, Note_on_c, 4, 73, 64
6, 427205, Note_on_c, 4, 73, 0
6, 427205, Note_on_c, 4, 70, 66
6, 427362, Note_on_c, 4, 70, 0
6, 427362, Note_on_c, 4, 67, 65
6, 427520, Note_on_c, 4, 67, 0
6, 427520, Note_on_c, 4, 64, 65
6, 427680, Note_on_c, 4, 64, 0
6, 427680, Note_on_c, 4, 61, 66
6, 427837, Note_on_c, 4, 61, 0
6, 427837, Note_on_c, 4, 58, 73
6, 427994, Note_on_c, 4, 58, 0
6, 427994, Note_on_c, 4, 55, 81
6, 428160, Note_on_c, 4, 55, 0
6, 428160, Note_on_c, 4, 53, 0
6, 428160, Note_on_c, 4, 41, 0
6, 428160, Note_on_c, 4, 57, 96
6, 428277, Note_on_c, 4, 57, 0
6, 428277, Note_on_c, 4, 53, 73
6, 428397, Note_on_c, 4, 53, 0
6, 428397, Note_on_c, 4, 55, 82
6, 428517, Note_on_c, 4, 55, 0
6, 428517, Note_on_c, 4, 57, 94
6, 428637, Note_on_c, 4, 57, 0
6, 428637, Note_on_c, 4, 58, 70
6, 428757, Note_on_c, 4, 58, 0
6, 428757, Note_on_c, 4, 60, 93
6, 428877, Note_on_c, 4, 60, 0
6, 428877, Note_on_c, 4, 62, 103
6, 428997, Note_on_c, 4, 62, 0
6, 428997, Note_on_c, 4, 64, 94
6, 429120, Note_on_c, 4, 64, 0
6, 429120, Note_on_c, 4, 65, 89
6, 429240, Note_on_c, 4, 65, 0
6, 429240, Note_on_c, 4, 67, 99
6, 429360, Note_on_c, 4, 67, 0
6, 429360, Note_on_c, 4, 69, 94
6, 429480, Note_on_c, 4, 69, 0
6, 429480, Note_on_c, 4, 70, 89
6, 429600, Note_on_c, 4, 70, 0
6, 429600, Note_on_c, 4, 72, 98
6, 429721, Note_on_c, 4, 72, 0
6, 429721, Note_on_c, 4, 74, 92
6, 429841, Note_on_c, 4, 74, 0
6, 429841, Note_on_c, 4, 76, 88
6, 429962, Note_on_c, 4, 76, 0
6, 429962, Note_on_c, 4, 77, 94
6, 430080, Note_on_c, 4, 77, 0
6, 430082, Note_on_c, 4, 76, 71
6, 430082, Note_on_c, 4, 29, 105
6, 430082, Note_on_c, 4, 41, 105
6, 430240, Note_on_c, 4, 76, 0
6, 430240, Note_on_c, 4, 73, 66
6, 430400, Note_on_c, 4, 73, 0
6, 430400, Note_on_c, 4, 70, 67
6, 430561, Note_on_c, 4, 70, 0
6, 430561, Note_on_c, 4, 67, 66
6, 430720, Note_on_c, 4, 67, 0
6, 430720, Note_on_c, 4, 64, 74
6, 430878, Note_on_c, 4, 64, 0
6, 430878, Note_on_c, 4, 61, 63
6, 431040, Note_on_c, 4, 61, 0
6, 431040, Note_on_c, 4, 58, 78
6, 431198, Note_on_c, 4, 58, 0
6, 431198, Note_on_c, 4, 55, 74
6, 431358, Note_on_c, 4, 55, 0
6, 431358, Note_on_c, 4, 52, 73
6, 431520, Note_on_c, 4, 52, 0
6, 431520, Note_on_c, 4, 49, 77
6, 431678, Note_on_c, 4, 49, 0
6, 431678, Note_on_c, 4, 46, 70
6, 431838, Note_on_c, 4, 46, 0
6, 431838, Note_on_c, 4, 43, 69
6, 432000, Note_on_c, 4, 43, 0
6, 432000, Note_on_c, 4, 41, 0
6, 432000, Note_on_c, 4, 29, 0
6, 432000, Control_c, 4, 64, 127
6, 432000, Note_on_c, 4, 45, 78
6, 432156, Note_on_c, 4, 45, 0
6, 432160, Note_on_c, 4, 29, 95
6, 432316, Note_on_c, 4, 29, 0
6, 432320, Note_on_c, 4, 33, 94
6, 432476, Note_on_c, 4, 33, 0
6, 432480, Note_on_c, 4, 36, 92
6, 432636, Note_on_c, 4, 36, 0
6, 432640, Note_on_c, 4, 41, 91
6, 432796, Note_on_c, 4, 41, 0
6, 432800, Note_on_c, 4, 48, 88
6, 432956, Note_on_c, 4, 48, 0
6, 432960, Note_on_c, 4, 53, 87
6, 433116, Note_on_c, 4, 53, 0
6, 433120, Note_on_c, 4, 41, 88
6, 433276, Note_on_c, 4, 41, 0
6, 433280, Note_on_c, 4, 45, 86
6, 433436, Note_on_c, 4, 45, 0
6, 433440, Note_on_c, 4, 48, 86
6, 433596, Note_on_c, 4, 48, 0
6, 433600, Note_on_c, 4, 53, 85
6, 433756, Note_on_c, 4, 53, 0
6, 433760, Note_on_c, 4, 60, 84
6, 433916, Note_on_c, 4, 60, 0
6, 433920, Note_on_c, 4, 65, 73
6, 434076, Note_on_c, 4, 65, 0
6, 434080, Note_on_c, 4, 53, 81
6, 434236, Note_on_c, 4, 53, 0
6, 434240, Note_on_c, 4, 57, 82
6, 434396, Note_on_c, 4, 57, 0
6, 434400, Note_on_c, 4, 60, 83
6, 434556, Note_on_c, 4, 60, 0
6, 434560, Note_on_c, 4, 65, 85
6, 434716, Note_on_c, 4, 65, 0
6, 434720, Note_on_c, 4, 72, 86
6, 434876, Note_on_c, 4, 72, 0
6, 434880, Note_on_c, 4, 77, 87
6, 435036, Note_on_c, 4, 77, 0
6, 435040, Note_on_c, 4, 65, 80
6, 435196, Note_on_c, 4, 65, 0
6, 435200, Note_on_c, 4, 69, 81
6, 435356, Note_on_c, 4, 69, 0
6, 435360, Note_on_c, 4, 72, 82
6, 435516, Note_on_c, 4, 72, 0
6, 435520, Note_on_c, 4, 77, 83
6, 435676, Note_on_c, 4, 77, 0
6, 435680, Note_on_c, 4, 84, 84
6, 435836, Note_on_c, 4, 84, 0
6, 435850, Note_on_c, 4, 87, 94
6, 435850, Control_c, 4, 64, 0
6, 435850, Control_c, 4, 64, 127
6, 435970, Note_on_c, 4, 87, 0
6, 435970, Note_on_c, 4, 86, 84
6, 436089, Note_on_c, 4, 86, 0
6, 436089, Note_on_c, 4, 84, 75
6, 436209, Note_on_c, 4, 84, 0
6, 436209, Note_on_c, 4, 82, 70
6, 436329, Note_on_c, 4, 82, 0
6, 436329, Note_on_c, 4, 81, 75
6, 436449, Note_on_c, 4, 81, 0
6, 436449, Note_on_c, 4, 79, 73
6, 436566, Note_on_c, 4, 79, 0
6, 436566, Note_on_c, 4, 77, 74
6, 436685, Note_on_c, 4, 77, 0
6, 436685, Note_on_c, 4, 76, 72
6, 436802, Note_on_c, 4, 76, 0
6, 436802, Note_on_c, 4, 75, 75
6, 436921, Note_on_c, 4, 75, 0
6, 436921, Note_on_c, 4, 74, 78
6, 437040, Note_on_c, 4, 74, 0
6, 437040, Note_on_c, 4, 72, 73
6, 437156, Note_on_c, 4, 72, 0
6, 437156, Note_on_c, 4, 70, 72
6, 437272, Note_on_c, 4, 70, 0
6, 437272, Note_on_c, 4, 69, 73
6, 437389, Note_on_c, 4, 69, 0
6, 437389, Note_on_c, 4, 67, 65
6, 437506, Note_on_c, 4, 67, 0
6, 437506, Note_on_c, 4, 65, 70
6, 437622, Note_on_c, 4, 65, 0
6, 437622, Note_on_c, 4, 64, 72
6, 437760, Note_on_c, 4, 64, 0
6, 437760, Note_on_c, 4, 63, 74
6, 437760, Control_c, 4, 64, 0
6, 437760, Note_on_c, 4, 53, 72
6, 437760, Note_on_c, 4, 57, 72
6, 437760, Note_on_c, 4, 60, 72
6, 438233, Note_on_c, 4, 60, 0
6, 438233, Note_on_c, 4, 63, 0
6, 438233, Note_on_c, 4, 53, 0
6, 438233, Note_on_c, 4, 57, 0
6, 457796, Note_on_c, 4, 65, 71
6, 457916, Note_on_c, 4, 77, 115
6, 458401, Note_on_c, 4, 77, 0
6, 458401, Note_on_c, 4, 77, 89
6, 458880, Note_on_c, 4, 77, 0
6, 458885, Note_on_c, 4, 77, 59
6, 458945, Note_on_c, 4, 77, 0
6, 458945, Note_on_c, 4, 79, 57
6, 459005, Note_on_c, 4, 79, 0
6, 459005, Note_on_c, 4, 77, 48
6, 459065, Note_on_c, 4, 77, 0
6, 459065, Note_on_c, 4, 79, 63
6, 459125, Note_on_c, 4, 79, 0
6, 459125, Note_on_c, 4, 77, 59
6, 459185, Note_on_c, 4, 77, 0
6, 459185, Note_on_c, 4, 79, 65
6, 459245, Note_on_c, 4, 79, 0
6, 459245, Note_on_c, 4, 77, 54
6, 459305, Note_on_c, 4, 77, 0
6, 459305, Note_on_c, 4, 79, 74
6, 459362, Note_on_c, 4, 79, 0
6, 459362, Note_on_c, 4, 77, 54
6, 459422, Note_on_c, 4, 77, 0
6, 459422, Note_on_c, 4, 79, 66
6, 459482, Note_on_c, 4, 79, 0
6, 459482, Note_on_c, 4, 77, 56
6, 459542, Note_on_c, 4, 77, 0
6, 459542, Note_on_c, 4, 79, 61
6, 459602, Note_on_c, 4, 79, 0
6, 459602, Note_on_c, 4, 77, 58
6, 459662, Note_on_c, 4, 77, 0
6, 459662, Note_on_c, 4, 79, 74
6, 459722, Note_on_c, 4, 79, 0
6, 459722, Note_on_c, 4, 77, 61
6, 459782, Note_on_c, 4, 77, 0
6, 459782, Note_on_c, 4, 79, 71
6, 459841, Note_on_c, 4, 79, 0
6, 459841, Note_on_c, 4, 77, 54
6, 459901, Note_on_c, 4, 77, 0
6, 459901, Note_on_c, 4, 79, 66
6, 459961, Note_on_c, 4, 79, 0
6, 459961, Note_on_c, 4, 77, 59
6, 460021, Note_on_c, 4, 77, 0
6, 460021, Note_on_c, 4, 79, 65
6, 460081, Note_on_c, 4, 79, 0
6, 460081, Note_on_c, 4, 77, 55
6, 460141, Note_on_c, 4, 77, 0
6, 460141, Note_on_c, 4, 79, 63
6, 460201, Note_on_c, 4, 79, 0
6, 460201, Note_on_c, 4, 77, 55
6, 460261, Note_on_c, 4, 77, 0
6, 460261, Note_on_c, 4, 79, 68
6, 460321, Note_on_c, 4, 79, 0
6, 460321, Note_on_c, 4, 77, 54
6, 460381, Note_on_c, 4, 77, 0
6, 460381, Note_on_c, 4, 79, 63
6, 460440, Note_on_c, 4, 79, 0
6, 460440, Note_on_c, 4, 77, 61
6, 460500, Note_on_c, 4, 77, 0
6, 460500, Note_on_c, 4, 79, 67
6, 460560, Note_on_c, 4, 79, 0
6, 460560, Note_on_c, 4, 77, 52
6, 460620, Note_on_c, 4, 77, 0
6, 460620, Note_on_c, 4, 79, 67
6, 460680, Note_on_c, 4, 79, 0
6, 460680, Note_on_c, 4, 77, 52
6, 460740, Note_on_c, 4, 77, 0
6, 460740, Note_on_c, 4, 79, 72
6, 460800, Note_on_c, 4, 79, 0
6, 460800, Note_on_c, 4, 77, 55
6, 460860, Note_on_c, 4, 77, 0
6, 460860, Note_on_c, 4, 79, 71
6, 460920, Note_on_c, 4, 79, 0
6, 460920, Note_on_c, 4, 77, 56
6, 460980, Note_on_c, 4, 77, 0
6, 460980, Note_on_c, 4, 79, 60
6, 461040, Note_on_c, 4, 79, 0
6, 461040, Note_on_c, 4, 77, 60
6, 461100, Note_on_c, 4, 77, 0
6, 461100, Note_on_c, 4, 79, 60
6, 461160, Note_on_c, 4, 79, 0
6, 461160, Note_on_c, 4, 77, 55
6, 461220, Note_on_c, 4, 77, 0
6, 461220, Note_on_c, 4, 79, 71
6, 461280, Note_on_c, 4, 79, 0
6, 461280, Note_on_c, 4, 77, 58
6, 461340, Note_on_c, 4, 77, 0
6, 461340, Note_on_c, 4, 79, 66
6, 461400, Note_on_c, 4, 79, 0
6, 461400, Note_on_c, 4, 77, 52
6, 461460, Note_on_c, 4, 77, 0
6, 461460, Note_on_c, 4, 79, 64
6, 461520, Note_on_c, 4, 79, 0
6, 461520, Note_on_c, 4, 77, 61
6, 461580, Note_on_c, 4, 77, 0
6, 461580, Note_on_c, 4, 79, 66
6, 461640, Note_on_c, 4, 79, 0
6, 461640, Note_on_c, 4, 77, 57
6, 461700, Note_on_c, 4, 77, 0
6, 461700, Note_on_c, 4, 79, 70
6, 461760, Note_on_c, 4, 79, 0
6, 461760, Note_on_c, 4, 77, 55
6, 461820, Note_on_c, 4, 77, 0
6, 461820, Note_on_c, 4, 79, 75
6, 461880, Note_on_c, 4, 79, 0
6, 461880, Note_on_c, 4, 77, 56
6, 461940, Note_on_c, 4, 77, 0
6, 461940, Note_on_c, 4, 79, 64
6, 462000, Note_on_c, 4, 79, 0
6, 462000, Note_on_c, 4, 77, 60
6, 462060, Note_on_c, 4, 77, 0
6, 462060, Note_on_c, 4, 79, 60
6, 462120, Note_on_c, 4, 79, 0
6, 462120, Note_on_c, 4, 77, 50
6, 462180, Note_on_c, 4, 77, 0
6, 462180, Note_on_c, 4, 79, 63
6, 462240, Note_on_c, 4, 79, 0
6, 462240, Note_on_c, 4, 77, 48
6, 462300, Note_on_c, 4, 77, 0
6, 462300, Note_on_c, 4, 79, 61
6, 462360, Note_on_c, 4, 79, 0
6, 462360, Note_on_c, 4, 77, 54
6, 462420, Note_on_c, 4, 77, 0
6, 462420, Note_on_c, 4, 79, 68
6, 462480, Note_on_c, 4, 79, 0
6, 462480, Note_on_c, 4, 77, 54
6, 462540, Note_on_c, 4, 77, 0
6, 462540, Note_on_c, 4, 79, 62
6, 462600, Note_on_c, 4, 79, 0
6, 462600, Note_on_c, 4, 77, 55
6, 462660, Note_on_c, 4, 77, 0
6, 462660, Note_on_c, 4, 79, 68
6, 462720, Note_on_c, 4, 79, 0
6, 462720, Note_on_c, 4, 77, 50
6, 462780, Note_on_c, 4, 77, 0
6, 462780, Note_on_c, 4, 79, 66
6, 462840, Note_on_c, 4, 79, 0
6, 462840, Note_on_c, 4, 77, 55
6, 462900, Note_on_c, 4, 77, 0
6, 462900, Note_on_c, 4, 79, 76
6, 462960, Note_on_c, 4, 79, 0
6, 462960, Note_on_c, 4, 77, 54
6, 463020, Note_on_c, 4, 77, 0
6, 463020, Note_on_c, 4, 79, 74
6, 463080, Note_on_c, 4, 79, 0
6, 463080, Note_on_c, 4, 77, 54
6, 463140, Note_on_c, 4, 77, 0
6, 463140, Note_on_c, 4, 79, 66
6, 463200, Note_on_c, 4, 79, 0
6, 463200, Note_on_c, 4, 77, 55
6, 463260, Note_on_c, 4, 77, 0
6, 463260, Note_on_c, 4, 79, 68
6, 463320, Note_on_c, 4, 79, 0
6, 463320, Note_on_c, 4, 77, 62
6, 463380, Note_on_c, 4, 77, 0
6, 463380, Note_on_c, 4, 79, 66
6, 463440, Note_on_c, 4, 79, 0
6, 463440, Note_on_c, 4, 77, 56
6, 463500, Note_on_c, 4, 77, 0
6, 463500, Note_on_c, 4, 79, 73
6, 463560, Note_on_c, 4, 79, 0
6, 463560, Note_on_c, 4, 77, 59
6, 463620, Note_on_c, 4, 77, 0
6, 463620, Note_on_c, 4, 79, 67
6, 463680, Note_on_c, 4, 79, 0
6, 463680, Note_on_c, 4, 77, 54
6, 463740, Note_on_c, 4, 77, 0
6, 463740, Note_on_c, 4, 79, 62
6, 463800, Note_on_c, 4, 79, 0
6, 463800, Note_on_c, 4, 77, 55
6, 463860, Note_on_c, 4, 77, 0
6, 463860, Note_on_c, 4, 79, 61
6, 463920, Note_on_c, 4, 79, 0
6, 463920, Note_on_c, 4, 77, 49
6, 463980, Note_on_c, 4, 77, 0
6, 463980, Note_on_c, 4, 79, 71
6, 464040, Note_on_c, 4, 79, 0
6, 464040, Note_on_c, 4, 77, 45
6, 464100, Note_on_c, 4, 77, 0
6, 464100, Note_on_c, 4, 79, 66
6, 464160, Note_on_c, 4, 79, 0
6, 464160, Note_on_c, 4, 77, 47
6, 464220, Note_on_c, 4, 77, 0
6, 464220, Note_on_c, 4, 79, 60
6, 464280, Note_on_c, 4, 79, 0
6, 464280, Note_on_c, 4, 77, 56
6, 464340, Note_on_c, 4, 77, 0
6, 464340, Note_on_c, 4, 79, 69
6, 464400, Note_on_c, 4, 79, 0
6, 464400, Note_on_c, 4, 77, 52
6, 464460, Note_on_c, 4, 77, 0
6, 464460, Note_on_c, 4, 79, 74
6, 464520, Note_on_c, 4, 79, 0
6, 464520, Note_on_c, 4, 77, 47
6, 464580, Note_on_c, 4, 77, 0
6, 464580, Note_on_c, 4, 79, 70
6, 464640, Note_on_c, 4, 79, 0
6, 464640, Note_on_c, 4, 77, 52
6, 464700, Note_on_c, 4, 77, 0
6, 464700, Note_on_c, 4, 79, 68
6, 464760, Note_on_c, 4, 79, 0
6, 464760, Note_on_c, 4, 77, 56
6, 464820, Note_on_c, 4, 77, 0
6, 464820, Note_on_c, 4, 79, 66
6, 464880, Note_on_c, 4, 79, 0
6, 464880, Note_on_c, 4, 77, 53
6, 464940, Note_on_c, 4, 77, 0
6, 464940, Note_on_c, 4, 79, 59
6, 465000, Note_on_c, 4, 79, 0
6, 465000, Note_on_c, 4, 77, 60
6, 465060, Note_on_c, 4, 77, 0
6, 465060, Note_on_c, 4, 79, 65
6, 465120, Note_on_c, 4, 79, 0
6, 465120, Note_on_c, 4, 77, 49
6, 465180, Note_on_c, 4, 77, 0
6, 465180, Note_on_c, 4, 79, 65
6, 465240, Note_on_c, 4, 79, 0
6, 465240, Note_on_c, 4, 77, 50
6, 465300, Note_on_c, 4, 77, 0
6, 465300, Note_on_c, 4, 79, 67
6, 465360, Note_on_c, 4, 79, 0
6, 465360, Note_on_c, 4, 77, 56
6, 465420, Note_on_c, 4, 77, 0
6, 465420, Note_on_c, 4, 79, 65
6, 465480, Note_on_c, 4, 79, 0
6, 465480, Note_on_c, 4, 77, 53
6, 465540, Note_on_c, 4, 77, 0
6, 465540, Note_on_c, 4, 79, 69
6, 465600, Note_on_c, 4, 79, 0
6, 465600, Note_on_c, 4, 77, 48
6, 465660, Note_on_c, 4, 77, 0
6, 465660, Note_on_c, 4, 79, 71
6, 465720, Note_on_c, 4, 79, 0
6, 465720, Note_on_c, 4, 77, 49
6, 465780, Note_on_c, 4, 77, 0
6, 465780, Note_on_c, 4, 79, 65
6, 465840, Note_on_c, 4, 79, 0
6, 465840, Note_on_c, 4, 77, 61
6, 465900, Note_on_c, 4, 77, 0
6, 465900, Note_on_c, 4, 79, 66
6, 465960, Note_on_c, 4, 79, 0
6, 465960, Note_on_c, 4, 77, 55
6, 466020, Note_on_c, 4, 77, 0
6, 466020, Note_on_c, 4, 79, 71
6, 466080, Note_on_c, 4, 79, 0
6, 466080, Note_on_c, 4, 77, 48
6, 466140, Note_on_c, 4, 77, 0
6, 466140, Note_on_c, 4, 79, 60
6, 466192, Note_on_c, 4, 79, 0
6, 466192, Note_on_c, 4, 77, 57
6, 466252, Note_on_c, 4, 77, 0
6, 466252, Note_on_c, 4, 79, 66
6, 466312, Note_on_c, 4, 79, 0
6, 466312, Note_on_c, 4, 76, 52
6, 466426, Note_on_c, 4, 76, 0
6, 466426, Note_on_c, 4, 77, 61
6, 466560, Note_on_c, 4, 77, 0
6, 466560, Note_on_c, 4, 86, 117
6, 466662, Note_on_c, 4, 86, 0
6, 466784, Note_on_c, 4, 86, 100
6, 466784, Control_c, 4, 64, 127
6, 466784, Note_on_c, 4, 58, 58
6, 467032, Note_on_c, 4, 58, 0
6, 467032, Note_on_c, 4, 62, 74
6, 467280, Note_on_c, 4, 62, 0
6, 467280, Note_on_c, 4, 86, 0
6, 467280, Note_on_c, 4, 65, 0
6, 467280, Note_on_c, 4, 82, 68
6, 467280, Control_c, 4, 64, 0
6, 467280, Note_on_c, 4, 65, 75
6, 467520, Note_on_c, 4, 82, 0
6, 467520, Note_on_c, 4, 87, 103
6, 467637, Note_on_c, 4, 87, 0
6, 467752, Note_on_c, 4, 87, 89
6, 467752, Control_c, 4, 64, 127
6, 467752, Note_on_c, 4, 60, 55
6, 467984, Note_on_c, 4, 60, 0
6, 467984, Note_on_c, 4, 63, 67
6, 468217, Note_on_c, 4, 63, 0
6, 468217, Note_on_c, 4, 87, 0
6, 468217, Note_on_c, 4, 84, 73
6, 468217, Control_c, 4, 64, 0
6, 468217, Note_on_c, 4, 69, 81
6, 468480, Note_on_c, 4, 69, 0
6, 468480, Note_on_c, 4, 84, 0
6, 468480, Note_on_c, 4, 89, 102
6, 468480, Note_on_c, 4, 62, 73
6, 468480, Note_on_c, 4, 70, 73
6, 468720, Note_on_c, 4, 89, 0
6, 468720, Note_on_c, 4, 86, 72
6, 468960, Note_on_c, 4, 86, 0
6, 468960, Note_on_c, 4, 70, 0
6, 468960, Note_on_c, 4, 62, 0
6, 468960, Note_on_c, 4, 82, 63
6, 469077, Note_on_c, 4, 82, 0
6, 469201, Note_on_c, 4, 82, 81
6, 469320, Note_on_c, 4, 82, 0
6, 469440, Note_on_c, 4, 82, 79
6, 469440, Note_on_c, 4, 67, 53
6, 469440, Note_on_c, 4, 70, 53
6, 469673, Note_on_c, 4, 82, 0
6, 469673, Note_on_c, 4, 79, 69
6, 469900, Note_on_c, 4, 79, 0
6, 469900, Note_on_c, 4, 70, 0
6, 469900, Note_on_c, 4, 67, 0
6, 469900, Note_on_c, 4, 75, 65
6, 470018, Note_on_c, 4, 75, 0
6, 470134, Note_on_c, 4, 75, 77
6, 470253, Note_on_c, 4, 75, 0
6, 470389, Note_on_c, 4, 74, 71
6, 470629, Control_c, 4, 64, 127
6, 470629, Note_on_c, 4, 53, 90
6, 470872, Note_on_c, 4, 74, 0
6, 470872, Note_on_c, 4, 77, 99
6, 470872, Note_on_c, 4, 58, 64
6, 471113, Note_on_c, 4, 58, 0
6, 471113, Note_on_c, 4, 53, 0
6, 471113, Note_on_c, 4, 53, 58
6, 471356, Note_on_c, 4, 62, 91
6, 471596, Note_on_c, 4, 62, 0
6, 471596, Note_on_c, 4, 77, 0
6, 471596, Note_on_c, 4, 74, 74
6, 471596, Note_on_c, 4, 58, 60
6, 471833, Note_on_c, 4, 58, 0
6, 471833, Note_on_c, 4, 74, 0
6, 471833, Note_on_c, 4, 75, 88
6, 471833, Note_on_c, 4, 60, 60
6, 472073, Note_on_c, 4, 60, 0
6, 472073, Note_on_c, 4, 75, 0
6, 472073, Note_on_c, 4, 72, 66
6, 472073, Control_c, 4, 64, 0
6, 472073, Note_on_c, 4, 57, 59
6, 472320, Note_on_c, 4, 57, 0
6, 472320, Note_on_c, 4, 72, 0
6, 472320, Note_on_c, 4, 53, 0
6, 472320, Note_on_c, 4, 86, 114
6, 472320, Note_on_c, 4, 58, 61
6, 472437, Note_on_c, 4, 86, 0
6, 472437, Note_on_c, 4, 87, 94
6, 472560, Note_on_c, 4, 87, 0
6, 472560, Note_on_c, 4, 89, 104
6, 472680, Note_on_c, 4, 89, 0
6, 472680, Note_on_c, 4, 87, 77
6, 472800, Note_on_c, 4, 87, 0
6, 472800, Note_on_c, 4, 58, 0
6, 472800, Note_on_c, 4, 86, 74
6, 472920, Note_on_c, 4, 86, 0
6, 472920, Note_on_c, 4, 84, 70
6, 473040, Note_on_c, 4, 84, 0
6, 473040, Note_on_c, 4, 82, 75
6, 473160, Note_on_c, 4, 82, 0
6, 473160, Note_on_c, 4, 81, 73
6, 473280, Note_on_c, 4, 81, 0
6, 473280, Note_on_c, 4, 79, 69
6, 473280, Note_on_c, 4, 51, 55
6, 473397, Note_on_c, 4, 79, 0
6, 473397, Note_on_c, 4, 77, 72
6, 473516, Note_on_c, 4, 77, 0
6, 473516, Note_on_c, 4, 75, 65
6, 473633, Note_on_c, 4, 75, 0
6, 473633, Note_on_c, 4, 74, 72
6, 473749, Note_on_c, 4, 74, 0
6, 473749, Note_on_c, 4, 51, 0
6, 473749, Note_on_c, 4, 72, 68
6, 473868, Note_on_c, 4, 72, 0
6, 473868, Note_on_c, 4, 70, 73
6, 473986, Note_on_c, 4, 70, 0
6, 473986, Note_on_c, 4, 69, 68
6, 474104, Note_on_c, 4, 69, 0
6, 474104, Note_on_c, 4, 67, 69
6, 474240, Note_on_c, 4, 67, 0
6, 474352, Note_on_c, 4, 65, 0
6, 474352, Note_on_c, 4, 70, 102
6, 474473, Note_on_c, 4, 70, 0
6, 474473, Note_on_c, 4, 74, 110
6, 474473, Control_c, 4, 64, 127
6, 474473, Note_on_c, 4, 53, 90
6, 474593, Note_on_c, 4, 74, 0
6, 474593, Note_on_c, 4, 70, 69
6, 474713, Note_on_c, 4, 70, 0
6, 474713, Note_on_c, 4, 77, 107
6, 474713, Note_on_c, 4, 58, 65
6, 474956, Note_on_c, 4, 58, 0
6, 474956, Note_on_c, 4, 62, 77
6, 475200, Note_on_c, 4, 62, 0
6, 475200, Note_on_c, 4, 65, 79
6, 475440, Note_on_c, 4, 65, 0
6, 475440, Note_on_c, 4, 77, 0
6, 475440, Note_on_c, 4, 79, 100
6, 475440, Control_c, 4, 64, 0
6, 475440, Note_on_c, 4, 62, 47
6, 475560, Note_on_c, 4, 79, 0
6, 475560, Note_on_c, 4, 77, 77
6, 475680, Note_on_c, 4, 77, 0
6, 475680, Note_on_c, 4, 62, 0
6, 475680, Note_on_c, 4, 77, 77
6, 475680, Note_on_c, 4, 60, 49
6, 475800, Note_on_c, 4, 77, 0
6, 475800, Note_on_c, 4, 75, 72
6, 475920, Note_on_c, 4, 75, 0
6, 475920, Note_on_c, 4, 60, 0
6, 475920, Note_on_c, 4, 74, 78
6, 475920, Note_on_c, 4, 57, 47
6, 476037, Note_on_c, 4, 74, 0
6, 476037, Note_on_c, 4, 72, 67
6, 476160, Note_on_c, 4, 72, 0
6, 476160, Note_on_c, 4, 57, 0
6, 476160, Note_on_c, 4, 53, 0
6, 476160, Note_on_c, 4, 70, 67
6, 476160, Note_on_c, 4, 58, 58
6, 476640, Note_on_c, 4, 58, 0
6, 476640, Note_on_c, 4, 70, 0
6, 493440, Note_on_c, 4, 65, 76
6, 493676, Note_on_c, 4, 65, 0
6, 493676, Note_on_c, 4, 67, 93
6, 493796, Note_on_c, 4, 67, 0
6, 493796, Note_on_c, 4, 69, 99
6, 493916, Note_on_c, 4, 69, 0
6, 493916, Note_on_c, 4, 70, 87
6, 494036, Note_on_c, 4, 70, 0
6, 494036, Note_on_c, 4, 72, 100
6, 494156, Note_on_c, 4, 72, 0
6, 494156, Note_on_c, 4, 74, 94
6, 494280, Note_on_c, 4, 74, 0
6, 494280, Note_on_c, 4, 76, 90
6, 494400, Note_on_c, 4, 76, 0
6, 494400, Note_on_c, 4, 77, 99
6, 494642, Note_on_c, 4, 77, 0
6, 494642, Note_on_c, 4, 79, 99
6, 494765, Note_on_c, 4, 79, 0
6, 494765, Note_on_c, 4, 81, 99
6, 494889, Note_on_c, 4, 81, 0
6, 494889, Note_on_c, 4, 82, 94
6, 495010, Note_on_c, 4, 82, 0
6, 495010, Note_on_c, 4, 84, 93
6, 495132, Note_on_c, 4, 84, 0
6, 495132, Note_on_c, 4, 86, 96
6, 495254, Note_on_c, 4, 86, 0
6, 495254, Note_on_c, 4, 88, 97
6, 495360, Note_on_c, 4, 88, 0
6, 495369, Note_on_c, 4, 89, 102
6, 496322, Note_on_c, 4, 89, 0
6, 496322, Note_on_c, 4, 87, 77
6, 496442, Note_on_c, 4, 87, 0
6, 496442, Note_on_c, 4, 86, 79
6, 496561, Note_on_c, 4, 86, 0
6, 496561, Note_on_c, 4, 84, 74
6, 496680, Note_on_c, 4, 84, 0
6, 496680, Note_on_c, 4, 82, 72
6, 496800, Note_on_c, 4, 82, 0
6, 496800, Note_on_c, 4, 81, 71
6, 496917, Note_on_c, 4, 81, 0
6, 496917, Note_on_c, 4, 82, 89
6, 497036, Note_on_c, 4, 82, 0
6, 497036, Note_on_c, 4, 86, 105
6, 497153, Note_on_c, 4, 86, 0
6, 497153, Note_on_c, 4, 82, 74
6, 497280, Note_on_c, 4, 82, 0
6, 497280, Note_on_c, 4, 77, 58
6, 497280, Control_c, 4, 64, 127
6, 497280, Note_on_c, 4, 58, 46
6, 497280, Note_on_c, 4, 62, 46
6, 497517, Note_on_c, 4, 58, 0
6, 497517, Note_on_c, 4, 53, 49
6, 497757, Note_on_c, 4, 53, 0
6, 497757, Note_on_c, 4, 62, 0
6, 497757, Note_on_c, 4, 77, 0
6, 497757, Note_on_c, 4, 58, 53
6, 497757, Note_on_c, 4, 62, 53
6, 497997, Note_on_c, 4, 58, 0
6, 497997, Note_on_c, 4, 53, 48
6, 498240, Note_on_c, 4, 53, 0
6, 498240, Note_on_c, 4, 62, 0
6, 498240, Note_on_c, 4, 58, 50
6, 498240, Note_on_c, 4, 62, 50
6, 498480, Note_on_c, 4, 58, 0
6, 498480, Note_on_c, 4, 53, 52
6, 498720, Note_on_c, 4, 53, 0
6, 498720, Note_on_c, 4, 62, 0
6, 498720, Note_on_c, 4, 76, 76
6, 498720, Note_on_c, 4, 58, 54
6, 498720, Note_on_c, 4, 62, 54
6, 498840, Note_on_c, 4, 76, 0
6, 498840, Note_on_c, 4, 77, 93
6, 498960, Note_on_c, 4, 77, 0
6, 498960, Note_on_c, 4, 58, 0
6, 498960, Note_on_c, 4, 82, 110
6, 498960, Note_on_c, 4, 53, 51
6, 499080, Note_on_c, 4, 82, 0
6, 499080, Note_on_c, 4, 77, 62
6, 499200, Note_on_c, 4, 77, 0
6, 499200, Note_on_c, 4, 53, 0
6, 499200, Note_on_c, 4, 62, 0
6, 499200, Note_on_c, 4, 74, 61
6, 499200, Control_c, 4, 64, 0
6, 499200, Control_c, 4, 64, 127
6, 499200, Note_on_c, 4, 62, 50
6, 499200, Note_on_c, 4, 58, 50
6, 499426, Note_on_c, 4, 58, 0
6, 499426, Note_on_c, 4, 53, 53
6, 499666, Note_on_c, 4, 53, 0
6, 499666, Note_on_c, 4, 62, 0
6, 499666, Note_on_c, 4, 74, 0
6, 499666, Note_on_c, 4, 73, 73
6, 499666, Note_on_c, 4, 62, 54
6, 499666, Note_on_c, 4, 58, 50
6, 499789, Note_on_c, 4, 73, 0
6, 499789, Note_on_c, 4, 74, 87
6, 499913, Note_on_c, 4, 74, 0
6, 499913, Note_on_c, 4, 58, 0
6, 499913, Note_on_c, 4, 77, 101
6, 499913, Note_on_c, 4, 53, 50
6, 500037, Note_on_c, 4, 77, 0
6, 500037, Note_on_c, 4, 74, 76
6, 500160, Note_on_c, 4, 74, 0
6, 500160, Note_on_c, 4, 53, 0
6, 500160, Note_on_c, 4, 62, 0
6, 500160, Note_on_c, 4, 70, 62
6, 500160, Control_c, 4, 64, 0
6, 500160, Note_on_c, 4, 62, 56
6, 500160, Note_on_c, 4, 58, 53
6, 500652, Note_on_c, 4, 58, 0
6, 500652, Note_on_c, 4, 62, 0
6, 500652, Note_on_c, 4, 70, 0
6, 500652, Note_on_c, 4, 86, 112
6, 500652, Note_on_c, 4, 89, 112
6, 501012, Note_on_c, 4, 89, 0
6, 501012, Note_on_c, 4, 86, 0
6, 501012, Note_on_c, 4, 86, 90
6, 501012, Note_on_c, 4, 89, 90
6, 501120, Note_on_c, 4, 89, 0
6, 501120, Note_on_c, 4, 86, 0
6, 501130, Note_on_c, 4, 83, 68
6, 501130, Note_on_c, 4, 86, 68
6, 501369, Note_on_c, 4, 65, 44
6, 501606, Note_on_c, 4, 65, 0
6, 501606, Note_on_c, 4, 65, 58
6, 501845, Note_on_c, 4, 65, 0
6, 501845, Note_on_c, 4, 65, 56
6, 502082, Note_on_c, 4, 65, 0
6, 502082, Note_on_c, 4, 86, 0
6, 502082, Note_on_c, 4, 83, 0
6, 502082, Note_on_c, 4, 84, 87
6, 502082, Note_on_c, 4, 87, 87
6, 502082, Note_on_c, 4, 65, 67
6, 502322, Note_on_c, 4, 65, 0
6, 502322, Note_on_c, 4, 67, 81
6, 502441, Note_on_c, 4, 67, 0
6, 502441, Note_on_c, 4, 69, 82
6, 502561, Note_on_c, 4, 69, 0
6, 502561, Note_on_c, 4, 87, 0
6, 502561, Note_on_c, 4, 84, 0
6, 502561, Note_on_c, 4, 70, 76
6, 502681, Note_on_c, 4, 70, 0
6, 502681, Note_on_c, 4, 72, 82
6, 502800, Note_on_c, 4, 72, 0
6, 502800, Note_on_c, 4, 74, 80
6, 502920, Note_on_c, 4, 74, 0
6, 502920, Note_on_c, 4, 75, 73
6, 503040, Note_on_c, 4, 75, 0
6, 503040, Note_on_c, 4, 87, 75
6, 503040, Note_on_c, 4, 77, 82
6, 503520, Note_on_c, 4, 77, 0
6, 504000, Note_on_c, 4, 87, 0
6, 504000, Note_on_c, 4, 86, 73
6, 504120, Note_on_c, 4, 86, 0
6, 504120, Note_on_c, 4, 84, 64
6, 504240, Note_on_c, 4, 84, 0
6, 504240, Note_on_c, 4, 82, 68
6, 504360, Note_on_c, 4, 82, 0
6, 504360, Note_on_c, 4, 81, 68
6, 504480, Note_on_c, 4, 81, 0
6, 504480, Note_on_c, 4, 80, 76
6, 504597, Note_on_c, 4, 80, 0
6, 504597, Note_on_c, 4, 81, 91
6, 504717, Note_on_c, 4, 81, 0
6, 504717, Note_on_c, 4, 84, 104
6, 504837, Note_on_c, 4, 84, 0
6, 504837, Note_on_c, 4, 81, 73
6, 504960, Note_on_c, 4, 81, 0
6, 504960, Note_on_c, 4, 75, 58
6, 504960, Control_c, 4, 64, 127
6, 504960, Note_on_c, 4, 57, 44
6, 504960, Note_on_c, 4, 60, 44
6, 505197, Note_on_c, 4, 57, 0
6, 505197, Note_on_c, 4, 53, 45
6, 505437, Note_on_c, 4, 53, 0
6, 505437, Note_on_c, 4, 60, 0
6, 505437, Note_on_c, 4, 75, 0
6, 505437, Note_on_c, 4, 57, 54
6, 505437, Note_on_c, 4, 60, 54
6, 505677, Note_on_c, 4, 57, 0
6, 505677, Note_on_c, 4, 53, 48
6, 505920, Note_on_c, 4, 53, 0
6, 505920, Note_on_c, 4, 60, 0
6, 505920, Note_on_c, 4, 57, 47
6, 505920, Note_on_c, 4, 60, 47
6, 506160, Note_on_c, 4, 57, 0
6, 506160, Note_on_c, 4, 53, 48
6, 506400, Note_on_c, 4, 53, 0
6, 506400, Note_on_c, 4, 60, 0
6, 506400, Note_on_c, 4, 74, 79
6, 506400, Note_on_c, 4, 57, 53
6, 506400, Note_on_c, 4, 60, 53
6, 506520, Note_on_c, 4, 74, 0
6, 506520, Note_on_c, 4, 75, 89
6, 506640, Note_on_c, 4, 75, 0
6, 506640, Note_on_c, 4, 57, 0
6, 506640, Note_on_c, 4, 79, 104
6, 506640, Control_c, 4, 64, 0
6, 506640, Note_on_c, 4, 53, 51
6, 506760, Note_on_c, 4, 79, 0
6, 506760, Note_on_c, 4, 75, 70
6, 506880, Note_on_c, 4, 75, 0
6, 506880, Note_on_c, 4, 53, 0
6, 506880, Note_on_c, 4, 60, 0
6, 506880, Note_on_c, 4, 71, 62
6, 506880, Control_c, 4, 64, 127
6, 506880, Note_on_c, 4, 57, 46
6, 506880, Note_on_c, 4, 60, 46
6, 506986, Note_on_c, 4, 71, 0
6, 506986, Note_on_c, 4, 72, 80
6, 507106, Note_on_c, 4, 72, 0
6, 507106, Note_on_c, 4, 57, 0
6, 507106, Note_on_c, 4, 75, 106
6, 507106, Note_on_c, 4, 53, 51
6, 507226, Note_on_c, 4, 75, 0
6, 507226, Note_on_c, 4, 72, 71
6, 507346, Note_on_c, 4, 72, 0
6, 507346, Note_on_c, 4, 53, 0
6, 507346, Note_on_c, 4, 60, 0
6, 507346, Note_on_c, 4, 68, 62
6, 507346, Note_on_c, 4, 57, 43
6, 507346, Note_on_c, 4, 60, 43
6, 507469, Note_on_c, 4, 68, 0
6, 507469, Note_on_c, 4, 69, 94
6, 507593, Note_on_c, 4, 69, 0
6, 507593, Note_on_c, 4, 57, 0
6, 507593, Note_on_c, 4, 72, 105
6, 507593, Note_on_c, 4, 53, 53
6, 507716, Note_on_c, 4, 72, 0
6, 507716, Note_on_c, 4, 69, 71
6, 507840, Note_on_c, 4, 69, 0
6, 507840, Note_on_c, 4, 53, 0
6, 507840, Note_on_c, 4, 60, 0
6, 507840, Note_on_c, 4, 65, 61
6, 507840, Note_on_c, 4, 57, 51
6, 507840, Note_on_c, 4, 60, 51
6, 508085, Note_on_c, 4, 57, 0
6, 508085, Note_on_c, 4, 53, 51
6, 508330, Note_on_c, 4, 53, 0
6, 508330, Note_on_c, 4, 60, 0
6, 508330, Note_on_c, 4, 65, 0
6, 508330, Note_on_c, 4, 81, 114
6, 508330, Note_on_c, 4, 84, 114
6, 508330, Note_on_c, 4, 57, 48
6, 508330, Note_on_c, 4, 60, 48
6, 508570, Note_on_c, 4, 57, 0
6, 508570, Control_c, 4, 64, 0
6, 508570, Note_on_c, 4, 53, 49
6, 508690, Note_on_c, 4, 81, 0
6, 508690, Note_on_c, 4, 84, 0
6, 508690, Note_on_c, 4, 81, 87
6, 508690, Note_on_c, 4, 84, 87
6, 508800, Note_on_c, 4, 84, 0
6, 508800, Note_on_c, 4, 53, 0
6, 508800, Note_on_c, 4, 60, 0
6, 508800, Note_on_c, 4, 81, 0
6, 508810, Note_on_c, 4, 81, 98
6, 508810, Note_on_c, 4, 85, 98
6, 509050, Note_on_c, 4, 70, 57
6, 509169, Note_on_c, 4, 70, 0
6, 509289, Note_on_c, 4, 70, 60
6, 509406, Note_on_c, 4, 70, 0
6, 509526, Note_on_c, 4, 70, 73
6, 509645, Note_on_c, 4, 70, 0
6, 509765, Note_on_c, 4, 85, 0
6, 509765, Note_on_c, 4, 81, 0
6, 509765, Note_on_c, 4, 82, 93
6, 509765, Note_on_c, 4, 86, 93
6, 509765, Note_on_c, 4, 70, 75
6, 509882, Note_on_c, 4, 70, 0
6, 509882, Note_on_c, 4, 69, 64
6, 510002, Note_on_c, 4, 69, 0
6, 510002, Note_on_c, 4, 70, 74
6, 510121, Note_on_c, 4, 70, 0
6, 510121, Note_on_c, 4, 72, 83
6, 510240, Note_on_c, 4, 72, 0
6, 510240, Note_on_c, 4, 86, 0
6, 510240, Note_on_c, 4, 82, 0
6, 510240, Note_on_c, 4, 70, 73
6, 510360, Note_on_c, 4, 70, 0
6, 510360, Note_on_c, 4, 68, 66
6, 510480, Note_on_c, 4, 68, 0
6, 510480, Note_on_c, 4, 67, 74
6, 510600, Note_on_c, 4, 67, 0
6, 510600, Note_on_c, 4, 65, 66
6, 510720, Note_on_c, 4, 65, 0
6, 510720, Note_on_c, 4, 63, 77
6, 510960, Note_on_c, 4, 79, 76
6, 511077, Note_on_c, 4, 79, 0
6, 511200, Note_on_c, 4, 63, 0
6, 511200, Note_on_c, 4, 79, 83
6, 511317, Note_on_c, 4, 79, 0
6, 511440, Note_on_c, 4, 79, 89
6, 511680, Note_on_c, 4, 79, 0
6, 511680, Note_on_c, 4, 79, 75
6, 511800, Note_on_c, 4, 79, 0
6, 511800, Note_on_c, 4, 78, 75
6, 511920, Note_on_c, 4, 78, 0
6, 511920, Note_on_c, 4, 79, 91
6, 512040, Note_on_c, 4, 79, 0
6, 512040, Note_on_c, 4, 80, 97
6, 512160, Note_on_c, 4, 80, 0
6, 512160, Note_on_c, 4, 79, 75
6, 512277, Note_on_c, 4, 79, 0
6, 512277, Note_on_c, 4, 77, 73
6, 512397, Note_on_c, 4, 77, 0
6, 512397, Note_on_c, 4, 75, 64
6, 512517, Note_on_c, 4, 75, 0
6, 512517, Note_on_c, 4, 74, 75
6, 512640, Note_on_c, 4, 74, 0
6, 512640, Note_on_c, 4, 72, 76
6, 512640, Note_on_c, 4, 39, 75
6, 512877, Note_on_c, 4, 72, 0
6, 512877, Note_on_c, 4, 67, 89
6, 512997, Note_on_c, 4, 67, 0
6, 512997, Note_on_c, 4, 65, 90
6, 513116, Note_on_c, 4, 65, 0
6, 513116, Note_on_c, 4, 39, 0
6, 513116, Note_on_c, 4, 63, 93
6, 513237, Note_on_c, 4, 63, 0
6, 513237, Note_on_c, 4, 62, 95
6, 513357, Note_on_c, 4, 62, 0
6, 513357, Note_on_c, 4, 60, 93
6, 513477, Note_on_c, 4, 60, 0
6, 513477, Note_on_c, 4, 59, 97
6, 513597, Note_on_c, 4, 59, 0
6, 513597, Note_on_c, 4, 60, 115
6, 513597, Note_on_c, 4, 51, 83
6, 513597, Note_on_c, 4, 55, 83
6, 513840, Note_on_c, 4, 60, 0
6, 513840, Note_on_c, 4, 72, 125
6, 513960, Note_on_c, 4, 72, 0
6, 513960, Note_on_c, 4, 74, 101
6, 514081, Note_on_c, 4, 74, 0
6, 514081, Note_on_c, 4, 55, 0
6, 514081, Note_on_c, 4, 51, 0
6, 514081, Note_on_c, 4, 75, 93
6, 514201, Note_on_c, 4, 75, 0
6, 514201, Note_on_c, 4, 77, 101
6, 514322, Note_on_c, 4, 77, 0
6, 514322, Note_on_c, 4, 79, 92
6, 514442, Note_on_c, 4, 79, 0
6, 514442, Note_on_c, 4, 75, 70
6, 514560, Note_on_c, 4, 75, 0
6, 514565, Note_on_c, 4, 77, 90
6, 514565, Note_on_c, 4, 51, 73
6, 514565, Note_on_c, 4, 57, 73
6, 514565, Note_on_c, 4, 60, 73
6, 514805, Note_on_c, 4, 77, 0
6, 514805, Note_on_c, 4, 77, 86
6, 514922, Note_on_c, 4, 77, 0
6, 515042, Note_on_c, 4, 60, 0
6, 515042, Note_on_c, 4, 57, 0
6, 515042, Note_on_c, 4, 51, 0
6, 515042, Note_on_c, 4, 77, 71
6, 515161, Note_on_c, 4, 77, 0
6, 515281, Note_on_c, 4, 77, 77
6, 515400, Note_on_c, 4, 77, 0
6, 515521, Note_on_c, 4, 77, 79
6, 515641, Note_on_c, 4, 77, 0
6, 515641, Note_on_c, 4, 76, 81
6, 515761, Note_on_c, 4, 76, 0
6, 515761, Note_on_c, 4, 77, 88
6, 515880, Note_on_c, 4, 77, 0
6, 515880, Note_on_c, 4, 79, 101
6, 516000, Note_on_c, 4, 79, 0
6, 516000, Note_on_c, 4, 77, 73
6, 516120, Note_on_c, 4, 77, 0
6, 516120, Note_on_c, 4, 75, 68
6, 516237, Note_on_c, 4, 75, 0
6, 516237, Note_on_c, 4, 74, 72
6, 516356, Note_on_c, 4, 74, 0
6, 516356, Note_on_c, 4, 72, 68
6, 516480, Note_on_c, 4, 72, 0
6, 516480, Note_on_c, 4, 70, 71
6, 516480, Note_on_c, 4, 38, 78
6, 516716, Note_on_c, 4, 70, 0
6, 516716, Note_on_c, 4, 65, 85
6, 516836, Note_on_c, 4, 65, 0
6, 516836, Note_on_c, 4, 63, 97
6, 516956, Note_on_c, 4, 63, 0
6, 516956, Note_on_c, 4, 38, 0
6, 516956, Note_on_c, 4, 62, 97
6, 517076, Note_on_c, 4, 62, 0
6, 517076, Note_on_c, 4, 60, 95
6, 517196, Note_on_c, 4, 60, 0
6, 517196, Note_on_c, 4, 58, 98
6, 517317, Note_on_c, 4, 58, 0
6, 517317, Note_on_c, 4, 57, 100
6, 517437, Note_on_c, 4, 57, 0
6, 517437, Note_on_c, 4, 58, 109
6, 517437, Note_on_c, 4, 50, 78
6, 517437, Note_on_c, 4, 53, 78
6, 517680, Note_on_c, 4, 58, 0
6, 517680, Note_on_c, 4, 70, 126
6, 517800, Note_on_c, 4, 70, 0
6, 517800, Note_on_c, 4, 72, 103
6, 517920, Note_on_c, 4, 72, 0
6, 517920, Note_on_c, 4, 53, 0
6, 517920, Note_on_c, 4, 50, 0
6, 517920, Note_on_c, 4, 74, 97
6, 518041, Note_on_c, 4, 74, 0
6, 518041, Note_on_c, 4, 75, 92
6, 518161, Note_on_c, 4, 75, 0
6, 518161, Note_on_c, 4, 77, 93
6, 518282, Note_on_c, 4, 77, 0
6, 518282, Note_on_c, 4, 79, 94
6, 518400, Note_on_c, 4, 79, 0
6, 518402, Note_on_c, 4, 75, 69
6, 518402, Note_on_c, 4, 48, 75
6, 518402, Note_on_c, 4, 51, 75
6, 518402, Note_on_c, 4, 57, 75
6, 518641, Note_on_c, 4, 75, 0
6, 518641, Note_on_c, 4, 75, 78
6, 518760, Note_on_c, 4, 75, 0
6, 518881, Note_on_c, 4, 75, 79
6, 519000, Note_on_c, 4, 75, 0
6, 519120, Note_on_c, 4, 75, 81
6, 519237, Note_on_c, 4, 75, 0
6, 519360, Note_on_c, 4, 75, 81
6, 519480, Note_on_c, 4, 75, 0
6, 519480, Note_on_c, 4, 74, 77
6, 519600, Note_on_c, 4, 74, 0
6, 519600, Note_on_c, 4, 75, 91
6, 519720, Note_on_c, 4, 75, 0
6, 519720, Note_on_c, 4, 77, 93
6, 519840, Note_on_c, 4, 77, 0
6, 519840, Note_on_c, 4, 75, 69
6, 519960, Note_on_c, 4, 75, 0
6, 519960, Note_on_c, 4, 74, 73
6, 520080, Note_on_c, 4, 74, 0
6, 520080, Note_on_c, 4, 75, 92
6, 520200, Note_on_c, 4, 75, 0
6, 520200, Note_on_c, 4, 77, 98
6, 520320, Note_on_c, 4, 77, 0
6, 520320, Note_on_c, 4, 57, 0
6, 520320, Note_on_c, 4, 51, 0
6, 520320, Note_on_c, 4, 48, 0
6, 520320, Note_on_c, 4, 75, 78
6, 520320, Note_on_c, 4, 46, 82
6, 520320, Note_on_c, 4, 51, 82
6, 520320, Note_on_c, 4, 55, 82
6, 520560, Note_on_c, 4, 75, 0
6, 520560, Note_on_c, 4, 63, 59
6, 520677, Note_on_c, 4, 63, 0
6, 520800, Note_on_c, 4, 63, 79
6, 520917, Note_on_c, 4, 63, 0
6, 521040, Note_on_c, 4, 63, 83
6, 521157, Note_on_c, 4, 63, 0
6, 521280, Note_on_c, 4, 63, 78
6, 521400, Note_on_c, 4, 63, 0
6, 521400, Note_on_c, 4, 62, 81
6, 521520, Note_on_c, 4, 62, 0
6, 521520, Note_on_c, 4, 63, 88
6, 521640, Note_on_c, 4, 63, 0
6, 521640, Note_on_c, 4, 65, 96
6, 521760, Note_on_c, 4, 65, 0
6, 521760, Note_on_c, 4, 63, 71
6, 521880, Note_on_c, 4, 63, 0
6, 521880, Note_on_c, 4, 62, 72
6, 522000, Note_on_c, 4, 62, 0
6, 522000, Note_on_c, 4, 63, 88
6, 522120, Note_on_c, 4, 63, 0
6, 522120, Note_on_c, 4, 65, 96
6, 522240, Note_on_c, 4, 65, 0
6, 522240, Note_on_c, 4, 55, 0
6, 522240, Note_on_c, 4, 51, 0
6, 522240, Note_on_c, 4, 46, 0
6, 522240, Note_on_c, 4, 63, 77
6, 522240, Note_on_c, 4, 45, 68
6, 522240, Note_on_c, 4, 48, 68
6, 522240, Note_on_c, 4, 53, 68
6, 522480, Note_on_c, 4, 63, 0
6, 522480, Note_on_c, 4, 87, 119
6, 522597, Note_on_c, 4, 87, 0
6, 522720, Note_on_c, 4, 87, 91
6, 522837, Note_on_c, 4, 87, 0
6, 522961, Note_on_c, 4, 87, 81
6, 523080, Note_on_c, 4, 87, 0
6, 523201, Note_on_c, 4, 87, 83
6, 523321, Note_on_c, 4, 87, 0
6, 523321, Note_on_c, 4, 86, 65
6, 523441, Note_on_c, 4, 86, 0
6, 523441, Note_on_c, 4, 87, 92
6, 523561, Note_on_c, 4, 87, 0
6, 523561, Note_on_c, 4, 89, 92
6, 523685, Note_on_c, 4, 89, 0
6, 523685, Note_on_c, 4, 87, 88
6, 523805, Note_on_c, 4, 87, 0
6, 523805, Note_on_c, 4, 86, 77
6, 523925, Note_on_c, 4, 86, 0
6, 523925, Note_on_c, 4, 87, 84
6, 524049, Note_on_c, 4, 87, 0
6, 524049, Note_on_c, 4, 89, 97
6, 524160, Note_on_c, 4, 89, 0
6, 524160, Note_on_c, 4, 53, 0
6, 524160, Note_on_c, 4, 48, 0
6, 524160, Note_on_c, 4, 45, 0
6, 524162, Note_on_c, 4, 87, 83
6, 524162, Control_c, 4, 64, 127
6, 524162, Note_on_c, 4, 42, 85
6, 524162, Note_on_c, 4, 54, 85
6, 524282, Note_on_c, 4, 87, 0
6, 524282, Note_on_c, 4, 82, 64
6, 524405, Note_on_c, 4, 82, 0
6, 524405, Note_on_c, 4, 78, 67
6, 524525, Note_on_c, 4, 78, 0
6, 524525, Note_on_c, 4, 75, 70
6, 524645, Note_on_c, 4, 75, 0
6, 524645, Note_on_c, 4, 82, 126
6, 524765, Note_on_c, 4, 82, 0
6, 524765, Note_on_c, 4, 78, 86
6, 524885, Note_on_c, 4, 78, 0
6, 524885, Note_on_c, 4, 75, 78
6, 525002, Note_on_c, 4, 75, 0
6, 525002, Note_on_c, 4, 70, 67
6, 525120, Note_on_c, 4, 70, 0
6, 525120, Note_on_c, 4, 78, 126
6, 525240, Note_on_c, 4, 78, 0
6, 525240, Note_on_c, 4, 75, 82
6, 525356, Note_on_c, 4, 75, 0
6, 525356, Note_on_c, 4, 70, 73
6, 525472, Note_on_c, 4, 70, 0
6, 525472, Note_on_c, 4, 66, 72
6, 525586, Note_on_c, 4, 66, 0
6, 525586, Note_on_c, 4, 75, 126
6, 525700, Note_on_c, 4, 75, 0
6, 525700, Note_on_c, 4, 70, 85
6, 525817, Note_on_c, 4, 70, 0
6, 525817, Note_on_c, 4, 66, 71
6, 525933, Note_on_c, 4, 66, 0
6, 525933, Note_on_c, 4, 63, 69
6, 526080, Note_on_c, 4, 63, 0
6, 526080, Note_on_c, 4, 54, 0
6, 526080, Note_on_c, 4, 42, 0
6, 526080, Note_on_c, 4, 60, 126
6, 526080, Note_on_c, 4, 63, 126
6, 526080, Note_on_c, 4, 69, 126
6, 526080, Control_c, 4, 64, 0
6, 526080, Note_on_c, 4, 29, 89
6, 526188, Note_on_c, 4, 29, 0
6, 526188, Note_on_c, 4, 41, 93
6, 526309, Note_on_c, 4, 41, 0
6, 526309, Note_on_c, 4, 40, 77
6, 526429, Note_on_c, 4, 40, 0
6, 526429, Note_on_c, 4, 41, 87
6, 526549, Note_on_c, 4, 41, 0
6, 526549, Note_on_c, 4, 33, 93
6, 526672, Note_on_c, 4, 33, 0
6, 526672, Note_on_c, 4, 45, 104
6, 526792, Note_on_c, 4, 45, 0
6, 526792, Note_on_c, 4, 44, 83
6, 526913, Note_on_c, 4, 44, 0
6, 526913, Note_on_c, 4, 45, 89
6, 527033, Note_on_c, 4, 45, 0
6, 527033, Note_on_c, 4, 36, 91
6, 527153, Note_on_c, 4, 36, 0
6, 527153, Note_on_c, 4, 48, 95
6, 527276, Note_on_c, 4, 48, 0
6, 527276, Note_on_c, 4, 47, 82
6, 527396, Note_on_c, 4, 47, 0
6, 527396, Note_on_c, 4, 48, 88
6, 527517, Note_on_c, 4, 48, 0
6, 527517, Note_on_c, 4, 41, 96
6, 527637, Note_on_c, 4, 41, 0
6, 527637, Note_on_c, 4, 53, 104
6, 527760, Note_on_c, 4, 53, 0
6, 527760, Note_on_c, 4, 52, 80
6, 527880, Note_on_c, 4, 52, 0
6, 527880, Note_on_c, 4, 53, 92
6, 528000, Note_on_c, 4, 53, 0
6, 528000, Note_on_c, 4, 69, 0
6, 528000, Note_on_c, 4, 63, 0
6, 528000, Note_on_c, 4, 60, 0
6, 528000, Note_on_c, 4, 87, 126
6, 528000, Control_c, 4, 64, 127
6, 528000, Note_on_c, 4, 42, 89
6, 528000, Note_on_c, 4, 54, 89
6, 528120, Note_on_c, 4, 87, 0
6, 528120, Note_on_c, 4, 82, 82
6, 528240, Note_on_c, 4, 82, 0
6, 528240, Note_on_c, 4, 78, 66
6, 528360, Note_on_c, 4, 78, 0
6, 528360, Note_on_c, 4, 75, 72
6, 528480, Note_on_c, 4, 75, 0
6, 528480, Note_on_c, 4, 82, 126
6, 528600, Note_on_c, 4, 82, 0
6, 528600, Note_on_c, 4, 78, 80
6, 528720, Note_on_c, 4, 78, 0
6, 528720, Note_on_c, 4, 75, 78
6, 528840, Note_on_c, 4, 75, 0
6, 528840, Note_on_c, 4, 70, 65
6, 528960, Note_on_c, 4, 70, 0
6, 528960, Note_on_c, 4, 78, 126
6, 529080, Note_on_c, 4, 78, 0
6, 529080, Note_on_c, 4, 75, 89
6, 529196, Note_on_c, 4, 75, 0
6, 529196, Note_on_c, 4, 70, 71
6, 529313, Note_on_c, 4, 70, 0
6, 529313, Note_on_c, 4, 66, 69
6, 529432, Note_on_c, 4, 66, 0
6, 529432, Note_on_c, 4, 75, 126
6, 529548, Note_on_c, 4, 75, 0
6, 529548, Note_on_c, 4, 70, 80
6, 529668, Note_on_c, 4, 70, 0
6, 529668, Note_on_c, 4, 66, 74
6, 529784, Note_on_c, 4, 66, 0
6, 529784, Note_on_c, 4, 63, 74
6, 529920, Note_on_c, 4, 63, 0
6, 529920, Note_on_c, 4, 54, 0
6, 529920, Note_on_c, 4, 42, 0
6, 529920, Note_on_c, 4, 60, 125
6, 529920, Note_on_c, 4, 63, 125
6, 529920, Note_on_c, 4, 69, 125
6, 529920, Control_c, 4, 64, 0
6, 529920, Note_on_c, 4, 29, 85
6, 530032, Note_on_c, 4, 29, 0
6, 530032, Note_on_c, 4, 41, 94
6, 530153, Note_on_c, 4, 41, 0
6, 530153, Note_on_c, 4, 40, 83
6, 530273, Note_on_c, 4, 40, 0
6, 530273, Note_on_c, 4, 41, 89
6, 530393, Note_on_c, 4, 41, 0
6, 530393, Note_on_c, 4, 33, 91
6, 530516, Note_on_c, 4, 33, 0
6, 530516, Note_on_c, 4, 45, 103
6, 530636, Note_on_c, 4, 45, 0
6, 530636, Note_on_c, 4, 44, 77
6, 530756, Note_on_c, 4, 44, 0
6, 530756, Note_on_c, 4, 45, 83
6, 530876, Note_on_c, 4, 45, 0
6, 530876, Note_on_c, 4, 36, 93
6, 530996, Note_on_c, 4, 36, 0
6, 530996, Note_on_c, 4, 48, 104
6, 531117, Note_on_c, 4, 48, 0
6, 531117, Note_on_c, 4, 47, 81
6, 531237, Note_on_c, 4, 47, 0
6, 531237, Note_on_c, 4, 48, 88
6, 531357, Note_on_c, 4, 48, 0
6, 531357, Note_on_c, 4, 41, 102
6, 531477, Note_on_c, 4, 41, 0
6, 531477, Note_on_c, 4, 53, 100
6, 531600, Note_on_c, 4, 53, 0
6, 531600, Note_on_c, 4, 52, 86
6, 531720, Note_on_c, 4, 52, 0
6, 531720, Note_on_c, 4, 53, 89
6, 531840, Note_on_c, 4, 53, 0
6, 531840, Note_on_c, 4, 69, 0
6, 531840, Note_on_c, 4, 63, 0
6, 531840, Note_on_c, 4, 60, 0
6, 531840, Note_on_c, 4, 87, 126
6, 531840, Control_c, 4, 64, 127
6, 531840, Note_on_c, 4, 42, 81
6, 531840, Note_on_c, 4, 54, 81
6, 531960, Note_on_c, 4, 87, 0
6, 531960, Note_on_c, 4, 82, 82
6, 532080, Note_on_c, 4, 82, 0
6, 532080, Note_on_c, 4, 78, 71
6, 532200, Note_on_c, 4, 78, 0
6, 532200, Note_on_c, 4, 75, 72
6, 532320, Note_on_c, 4, 75, 0
6, 532320, Note_on_c, 4, 82, 126
6, 532440, Note_on_c, 4, 82, 0
6, 532440, Note_on_c, 4, 78, 85
6, 532560, Note_on_c, 4, 78, 0
6, 532560, Note_on_c, 4, 75, 82
6, 532680, Note_on_c, 4, 75, 0
6, 532680, Note_on_c, 4, 70, 75
6, 532800, Note_on_c, 4, 70, 0
6, 532800, Note_on_c, 4, 78, 126
6, 532920, Note_on_c, 4, 78, 0
6, 532920, Note_on_c, 4, 75, 90
6, 533040, Note_on_c, 4, 75, 0
6, 533040, Note_on_c, 4, 70, 70
6, 533160, Note_on_c, 4, 70, 0
6, 533160, Note_on_c, 4, 66, 72
6, 533277, Note_on_c, 4, 66, 0
6, 533277, Note_on_c, 4, 75, 126
6, 533397, Note_on_c, 4, 75, 0
6, 533397, Note_on_c, 4, 70, 83
6, 533516, Note_on_c, 4, 70, 0
6, 533516, Note_on_c, 4, 66, 71
6, 533636, Note_on_c, 4, 66, 0
6, 533636, Note_on_c, 4, 63, 72
6, 533760, Note_on_c, 4, 63, 0
6, 533760, Note_on_c, 4, 54, 0
6, 533760, Note_on_c, 4, 42, 0
6, 533760, Control_c, 4, 64, 0
6, 533760, Note_on_c, 4, 56, 97
6, 533876, Note_on_c, 4, 71, 76
6, 533996, Note_on_c, 4, 71, 0
6, 533996, Note_on_c, 4, 75, 103
6, 534116, Note_on_c, 4, 75, 0
6, 534116, Note_on_c, 4, 71, 68
6, 534237, Note_on_c, 4, 71, 0
6, 534237, Note_on_c, 4, 76, 100
6, 534357, Note_on_c, 4, 76, 0
6, 534357, Note_on_c, 4, 71, 67
6, 534477, Note_on_c, 4, 71, 0
6, 534477, Note_on_c, 4, 75, 94
6, 534597, Note_on_c, 4, 75, 0
6, 534597, Note_on_c, 4, 71, 70
6, 534717, Note_on_c, 4, 71, 0
6, 534717, Note_on_c, 4, 56, 0
6, 534717, Note_on_c, 4, 58, 93
6, 534837, Note_on_c, 4, 68, 70
6, 534957, Note_on_c, 4, 68, 0
6, 534957, Note_on_c, 4, 71, 94
6, 535077, Note_on_c, 4, 71, 0
6, 535077, Note_on_c, 4, 68, 76
6, 535197, Note_on_c, 4, 68, 0
6, 535197, Note_on_c, 4, 74, 103
6, 535317, Note_on_c, 4, 74, 0
6, 535317, Note_on_c, 4, 68, 59
6, 535440, Note_on_c, 4, 68, 0
6, 535440, Note_on_c, 4, 70, 90
6, 535560, Note_on_c, 4, 70, 0
6, 535560, Note_on_c, 4, 68, 69
6, 535680, Note_on_c, 4, 68, 0
6, 535680, Note_on_c, 4, 58, 0
6, 535680, Note_on_c, 4, 59, 86
6, 535800, Note_on_c, 4, 68, 78
6, 535920, Note_on_c, 4, 68, 0
6, 535920, Note_on_c, 4, 74, 112
6, 536040, Note_on_c, 4, 74, 0
6, 536040, Note_on_c, 4, 68, 67
6, 536160, Note_on_c, 4, 68, 0
6, 536160, Note_on_c, 4, 75, 110
6, 536280, Note_on_c, 4, 75, 0
6, 536280, Note_on_c, 4, 66, 62
6, 536400, Note_on_c, 4, 66, 0
6, 536400, Note_on_c, 4, 71, 100
6, 536520, Note_on_c, 4, 71, 0
6, 536520, Note_on_c, 4, 66, 62
6, 536640, Note_on_c, 4, 66, 0
6, 536640, Note_on_c, 4, 59, 0
6, 536640, Note_on_c, 4, 57, 77
6, 536760, Note_on_c, 4, 66, 81
6, 536880, Note_on_c, 4, 66, 0
6, 536880, Note_on_c, 4, 72, 100
6, 537000, Note_on_c, 4, 72, 0
6, 537000, Note_on_c, 4, 66, 64
6, 537120, Note_on_c, 4, 66, 0
6, 537120, Note_on_c, 4, 75, 113
6, 537240, Note_on_c, 4, 75, 0
6, 537240, Note_on_c, 4, 66, 52
6, 537360, Note_on_c, 4, 66, 0
6, 537360, Note_on_c, 4, 72, 107
6, 537480, Note_on_c, 4, 72, 0
6, 537480, Note_on_c, 4, 66, 57
6, 537600, Note_on_c, 4, 66, 0
6, 537600, Note_on_c, 4, 57, 0
6, 537600, Note_on_c, 4, 58, 82
6, 537720, Note_on_c, 4, 65, 66
6, 537840, Note_on_c, 4, 65, 0
6, 537840, Note_on_c, 4, 72, 109
6, 537960, Note_on_c, 4, 72, 0
6, 537960, Note_on_c, 4, 65, 60
6, 538080, Note_on_c, 4, 65, 0
6, 538080, Note_on_c, 4, 73, 107
6, 538200, Note_on_c, 4, 73, 0
6, 538200, Note_on_c, 4, 65, 52
6, 538320, Note_on_c, 4, 65, 0
6, 538320, Note_on_c, 4, 72, 100
6, 538440, Note_on_c, 4, 72, 0
6, 538440, Note_on_c, 4, 65, 64
6, 538560, Note_on_c, 4, 65, 0
6, 538560, Note_on_c, 4, 58, 0
6, 538560, Note_on_c, 4, 54, 79
6, 538680, Note_on_c, 4, 66, 72
6, 538800, Note_on_c, 4, 66, 0
6, 538800, Note_on_c, 4, 70, 101
6, 538920, Note_on_c, 4, 70, 0
6, 538920, Note_on_c, 4, 66, 68
6, 539040, Note_on_c, 4, 66, 0
6, 539040, Note_on_c, 4, 73, 116
6, 539160, Note_on_c, 4, 73, 0
6, 539160, Note_on_c, 4, 66, 57
6, 539280, Note_on_c, 4, 66, 0
6, 539280, Note_on_c, 4, 70, 88
6, 539400, Note_on_c, 4, 70, 0
6, 539400, Note_on_c, 4, 66, 70
6, 539520, Note_on_c, 4, 66, 0
6, 539520, Note_on_c, 4, 54, 0
6, 539520, Note_on_c, 4, 51, 79
6, 539640, Note_on_c, 4, 66, 79
6, 539760, Note_on_c, 4, 66, 0
6, 539760, Note_on_c, 4, 70, 98
6, 539880, Note_on_c, 4, 70, 0
6, 539880, Note_on_c, 4, 66, 68
6, 540000, Note_on_c, 4, 66, 0
6, 540000, Note_on_c, 4, 71, 105
6, 540120, Note_on_c, 4, 71, 0
6, 540120, Note_on_c, 4, 66, 70
6, 540240, Note_on_c, 4, 66, 0
6, 540240, Note_on_c, 4, 70, 93
6, 540360, Note_on_c, 4, 70, 0
6, 540360, Note_on_c, 4, 66, 67
6, 540480, Note_on_c, 4, 66, 0
6, 540480, Note_on_c, 4, 51, 0
6, 540480, Note_on_c, 4, 53, 87
6, 540600, Note_on_c, 4, 63, 74
6, 540720, Note_on_c, 4, 63, 0
6, 540720, Note_on_c, 4, 66, 97
6, 540840, Note_on_c, 4, 66, 0
6, 540840, Note_on_c, 4, 63, 68
6, 540960, Note_on_c, 4, 63, 0
6, 540960, Note_on_c, 4, 69, 105
6, 541080, Note_on_c, 4, 69, 0
6, 541080, Note_on_c, 4, 63, 67
6, 541200, Note_on_c, 4, 63, 0
6, 541200, Note_on_c, 4, 65, 87
6, 541320, Note_on_c, 4, 65, 0
6, 541320, Note_on_c, 4, 63, 73
6, 541336, Note_on_c, 4, 53, 0
6, 541440, Note_on_c, 4, 63, 0
6, 541440, Note_on_c, 4, 61, 67
6, 541440, Note_on_c, 4, 54, 115
6, 541598, Note_on_c, 4, 61, 0
6, 541598, Note_on_c, 4, 58, 68
6, 541758, Note_on_c, 4, 58, 0
6, 541758, Note_on_c, 4, 61, 96
6, 541920, Note_on_c, 4, 61, 0
6, 541920, Note_on_c, 4, 54, 0
6, 541920, Note_on_c, 4, 66, 103
6, 542078, Note_on_c, 4, 66, 0
6, 542078, Note_on_c, 4, 70, 108
6, 542238, Note_on_c, 4, 70, 0
6, 542238, Note_on_c, 4, 73, 103
6, 542400, Note_on_c, 4, 73, 0
6, 542400, Note_on_c, 4, 77, 110
6, 542400, Note_on_c, 4, 49, 97
6, 542558, Note_on_c, 4, 77, 0
6, 542558, Note_on_c, 4, 82, 107
6, 542720, Note_on_c, 4, 82, 0
6, 542720, Note_on_c, 4, 85, 96
6, 542881, Note_on_c, 4, 85, 0
6, 542881, Note_on_c, 4, 49, 0
6, 542881, Note_on_c, 4, 82, 75
6, 543038, Note_on_c, 4, 82, 0
6, 543038, Note_on_c, 4, 77, 53
6, 543198, Note_on_c, 4, 77, 0
6, 543198, Note_on_c, 4, 73, 56
6, 543360, Note_on_c, 4, 73, 0
6, 543360, Note_on_c, 4, 78, 103
6, 543360, Note_on_c, 4, 51, 102
6, 543518, Note_on_c, 4, 78, 0
6, 543518, Note_on_c, 4, 77, 78
6, 543681, Note_on_c, 4, 77, 0
6, 543681, Note_on_c, 4, 75, 67
6, 543842, Note_on_c, 4, 75, 0
6, 543842, Note_on_c, 4, 51, 0
6, 543842, Note_on_c, 4, 73, 77
6, 544002, Note_on_c, 4, 73, 0
6, 544002, Note_on_c, 4, 72, 73
6, 544161, Note_on_c, 4, 72, 0
6, 544161, Note_on_c, 4, 70, 68
6, 544320, Note_on_c, 4, 70, 0
6, 544320, Note_on_c, 4, 69, 70
6, 544320, Note_on_c, 4, 53, 105
6, 544478, Note_on_c, 4, 69, 0
6, 544478, Note_on_c, 4, 66, 69
6, 544632, Note_on_c, 4, 66, 0
6, 544632, Note_on_c, 4, 65, 74
6, 544784, Note_on_c, 4, 65, 0
6, 544784, Note_on_c, 4, 53, 0
6, 544784, Note_on_c, 4, 63, 68
6, 544940, Note_on_c, 4, 63, 0
6, 544940, Note_on_c, 4, 61, 68
6, 545100, Note_on_c, 4, 61, 0
6, 545100, Note_on_c, 4, 60, 67
6, 545280, Note_on_c, 4, 60, 0
6, 545280, Note_on_c, 4, 58, 73
6, 545280, Note_on_c, 4, 46, 74
6, 545752, Note_on_c, 4, 46, 0
6, 545752, Note_on_c, 4, 58, 0
6, 552972, Note_on_c, 4, 58, 54
6, 552972, Note_on_c, 4, 62, 54
6, 553212, Note_on_c, 4, 62, 0
6, 553212, Note_on_c, 4, 65, 70
6, 553452, Note_on_c, 4, 65, 0
6, 553452, Note_on_c, 4, 62, 53
6, 553685, Note_on_c, 4, 62, 0
6, 553685, Note_on_c, 4, 65, 71
6, 553925, Note_on_c, 4, 65, 0
6, 553925, Note_on_c, 4, 62, 52
6, 554165, Note_on_c, 4, 62, 0
6, 554165, Note_on_c, 4, 65, 68
6, 554400, Note_on_c, 4, 65, 0
6, 554400, Note_on_c, 4, 77, 71
6, 554400, Note_on_c, 4, 74, 116
6, 554400, Note_on_c, 4, 62, 49
6, 554520, Note_on_c, 4, 77, 0
6, 554520, Note_on_c, 4, 79, 90
6, 554640, Note_on_c, 4, 79, 0
6, 554640, Note_on_c, 4, 62, 0
6, 554640, Note_on_c, 4, 77, 76
6, 554640, Note_on_c, 4, 65, 64
6, 554760, Note_on_c, 4, 77, 0
6, 554760, Note_on_c, 4, 75, 64
6, 554880, Note_on_c, 4, 75, 0
6, 554880, Note_on_c, 4, 65, 0
6, 554880, Note_on_c, 4, 74, 0
6, 554880, Note_on_c, 4, 58, 0
6, 554880, Note_on_c, 4, 74, 70
6, 554880, Note_on_c, 4, 70, 100
6, 554880, Note_on_c, 4, 58, 56
6, 554880, Note_on_c, 4, 62, 56
6, 555120, Note_on_c, 4, 62, 0
6, 555120, Note_on_c, 4, 74, 0
6, 555120, Note_on_c, 4, 70, 0
6, 555120, Note_on_c, 4, 65, 70
6, 555360, Note_on_c, 4, 65, 0
6, 555360, Note_on_c, 4, 77, 84
6, 555360, Note_on_c, 4, 74, 112
6, 555360, Note_on_c, 4, 62, 58
6, 555480, Note_on_c, 4, 77, 0
6, 555480, Note_on_c, 4, 79, 91
6, 555600, Note_on_c, 4, 79, 0
6, 555600, Note_on_c, 4, 62, 0
6, 555600, Note_on_c, 4, 77, 80
6, 555600, Note_on_c, 4, 65, 62
6, 555720, Note_on_c, 4, 77, 0
6, 555720, Note_on_c, 4, 75, 75
6, 555840, Note_on_c, 4, 75, 0
6, 555840, Note_on_c, 4, 65, 0
6, 555840, Note_on_c, 4, 74, 0
6, 555840, Note_on_c, 4, 74, 76
6, 555840, Note_on_c, 4, 70, 92
6, 555840, Note_on_c, 4, 62, 57
6, 556080, Note_on_c, 4, 62, 0
6, 556080, Note_on_c, 4, 70, 0
6, 556080, Note_on_c, 4, 74, 0
6, 556080, Note_on_c, 4, 65, 72
6, 556320, Note_on_c, 4, 65, 0
6, 556320, Note_on_c, 4, 77, 70
6, 556320, Note_on_c, 4, 74, 117
6, 556320, Note_on_c, 4, 62, 53
6, 556560, Note_on_c, 4, 62, 0
6, 556560, Note_on_c, 4, 65, 70
6, 556800, Note_on_c, 4, 65, 0
6, 556800, Note_on_c, 4, 74, 0
6, 556800, Note_on_c, 4, 77, 0
6, 556800, Note_on_c, 4, 58, 0
6, 556800, Note_on_c, 4, 69, 63
6, 556800, Note_on_c, 4, 72, 63
6, 556800, Note_on_c, 4, 63, 52
6, 556800, Note_on_c, 4, 58, 94
6, 557040, Note_on_c, 4, 63, 0
6, 557040, Note_on_c, 4, 69, 0
6, 557040, Note_on_c, 4, 72, 0
6, 557040, Note_on_c, 4, 65, 63
6, 557280, Note_on_c, 4, 65, 0
6, 557280, Note_on_c, 4, 69, 66
6, 557280, Note_on_c, 4, 72, 66
6, 557280, Note_on_c, 4, 63, 53
6, 557520, Note_on_c, 4, 63, 0
6, 557520, Note_on_c, 4, 72, 0
6, 557520, Note_on_c, 4, 69, 0
6, 557520, Note_on_c, 4, 65, 71
6, 557760, Note_on_c, 4, 65, 0
6, 557760, Note_on_c, 4, 69, 68
6, 557760, Note_on_c, 4, 72, 68
6, 557760, Note_on_c, 4, 63, 52
6, 558000, Note_on_c, 4, 63, 0
6, 558000, Note_on_c, 4, 72, 0
6, 558000, Note_on_c, 4, 69, 0
6, 558000, Note_on_c, 4, 65, 65
6, 558240, Note_on_c, 4, 65, 0
6, 558240, Note_on_c, 4, 87, 73
6, 558240, Note_on_c, 4, 63, 59
6, 558480, Note_on_c, 4, 63, 0
6, 558480, Note_on_c, 4, 87, 0
6, 558480, Note_on_c, 4, 84, 80
6, 558480, Note_on_c, 4, 65, 74
6, 558720, Note_on_c, 4, 65, 0
6, 558720, Note_on_c, 4, 84, 0
6, 558720, Note_on_c, 4, 58, 0
6, 558720, Note_on_c, 4, 82, 71
6, 558720, Note_on_c, 4, 58, 57
6, 558720, Note_on_c, 4, 63, 57
6, 558960, Note_on_c, 4, 63, 0
6, 558960, Note_on_c, 4, 82, 0
6, 558960, Note_on_c, 4, 81, 70
6, 558960, Note_on_c, 4, 65, 63
6, 559200, Note_on_c, 4, 65, 0
6, 559200, Note_on_c, 4, 81, 0
6, 559200, Note_on_c, 4, 79, 79
6, 559200, Note_on_c, 4, 63, 51
6, 559440, Note_on_c, 4, 63, 0
6, 559440, Note_on_c, 4, 79, 0
6, 559440, Note_on_c, 4, 77, 68
6, 559440, Note_on_c, 4, 65, 66
6, 559680, Note_on_c, 4, 65, 0
6, 559680, Note_on_c, 4, 77, 0
6, 559680, Note_on_c, 4, 76, 74
6, 559680, Note_on_c, 4, 60, 46
6, 559920, Note_on_c, 4, 60, 0
6, 559920, Note_on_c, 4, 76, 0
6, 559920, Note_on_c, 4, 77, 83
6, 559920, Note_on_c, 4, 65, 72
6, 560165, Note_on_c, 4, 65, 0
6, 560165, Note_on_c, 4, 77, 0
6, 560165, Note_on_c, 4, 79, 96
6, 560165, Note_on_c, 4, 63, 60
6, 560412, Note_on_c, 4, 63, 0
6, 560412, Note_on_c, 4, 79, 0
6, 560412, Note_on_c, 4, 81, 96
6, 560412, Note_on_c, 4, 65, 60
6, 560640, Note_on_c, 4, 65, 0
6, 560640, Note_on_c, 4, 81, 0
6, 560640, Note_on_c, 4, 58, 0
6, 560652, Note_on_c, 4, 82, 95
6, 560652, Note_on_c, 4, 58, 51
6, 560652, Note_on_c, 4, 62, 51
6, 560892, Note_on_c, 4, 82, 0
6, 560892, Note_on_c, 4, 84, 101
6, 560952, Note_on_c, 4, 84, 0
6, 560952, Note_on_c, 4, 82, 75
6, 561012, Note_on_c, 4, 82, 0
6, 561012, Note_on_c, 4, 81, 73
6, 561132, Note_on_c, 4, 81, 0
6, 561132, Note_on_c, 4, 62, 0
6, 561132, Note_on_c, 4, 58, 0
6, 561132, Note_on_c, 4, 82, 89
6, 561250, Note_on_c, 4, 82, 0
6, 561365, Note_on_c, 4, 86, 103
6, 561482, Note_on_c, 4, 86, 0
6, 561600, Note_on_c, 4, 76, 48
6, 561600, Note_on_c, 4, 65, 57
6, 561600, Note_on_c, 4, 72, 57
6, 561600, Note_on_c, 4, 75, 57
6, 561758, Note_on_c, 4, 76, 0
6, 561758, Note_on_c, 4, 77, 70
6, 561918, Note_on_c, 4, 77, 0
6, 561918, Note_on_c, 4, 78, 78
6, 562080, Note_on_c, 4, 78, 0
6, 562080, Note_on_c, 4, 79, 78
6, 562238, Note_on_c, 4, 79, 0
6, 562238, Note_on_c, 4, 80, 85
6, 562398, Note_on_c, 4, 80, 0
6, 562398, Note_on_c, 4, 81, 75
6, 562560, Note_on_c, 4, 81, 0
6, 562560, Note_on_c, 4, 75, 0
6, 562560, Note_on_c, 4, 72, 0
6, 562560, Note_on_c, 4, 65, 0
6, 562560, Note_on_c, 4, 82, 99
6, 562560, Note_on_c, 4, 70, 78
6, 562560, Note_on_c, 4, 74, 78
6, 562800, Note_on_c, 4, 82, 0
6, 562800, Note_on_c, 4, 84, 90
6, 562860, Note_on_c, 4, 84, 0
6, 562860, Note_on_c, 4, 82, 73
6, 562920, Note_on_c, 4, 82, 0
6, 562920, Note_on_c, 4, 81, 77
6, 563040, Note_on_c, 4, 81, 0
6, 563040, Note_on_c, 4, 74, 0
6, 563040, Note_on_c, 4, 70, 0
6, 563040, Note_on_c, 4, 82, 84
6, 563282, Note_on_c, 4, 82, 0
6, 563282, Note_on_c, 4, 86, 109
6, 563401, Note_on_c, 4, 86, 0
6, 563529, Note_on_c, 4, 89, 88
6, 563529, Note_on_c, 4, 65, 62
6, 563529, Note_on_c, 4, 69, 62
6, 563529, Note_on_c, 4, 75, 62
6, 563688, Note_on_c, 4, 89, 0
6, 563688, Note_on_c, 4, 88, 70
6, 563850, Note_on_c, 4, 88, 0
6, 563850, Note_on_c, 4, 87, 61
6, 564002, Note_on_c, 4, 87, 0
6, 564002, Note_on_c, 4, 86, 61
6, 564162, Note_on_c, 4, 86, 0
6, 564162, Note_on_c, 4, 87, 76
6, 564318, Note_on_c, 4, 87, 0
6, 564318, Note_on_c, 4, 84, 62
6, 564480, Note_on_c, 4, 84, 0
6, 564480, Note_on_c, 4, 75, 0
6, 564480, Note_on_c, 4, 69, 0
6, 564480, Note_on_c, 4, 65, 0
6, 564480, Note_on_c, 4, 82, 71
6, 564480, Note_on_c, 4, 70, 75
6, 564480, Note_on_c, 4, 74, 75
6, 564720, Note_on_c, 4, 82, 0
6, 564720, Note_on_c, 4, 84, 95
6, 564780, Note_on_c, 4, 84, 0
6, 564780, Note_on_c, 4, 82, 73
6, 564840, Note_on_c, 4, 82, 0
6, 564840, Note_on_c, 4, 81, 72
6, 564960, Note_on_c, 4, 81, 0
6, 564960, Note_on_c, 4, 74, 0
6, 564960, Note_on_c, 4, 70, 0
6, 564960, Note_on_c, 4, 82, 90
6, 565200, Note_on_c, 4, 82, 0
6, 565200, Note_on_c, 4, 86, 103
6, 565317, Note_on_c, 4, 86, 0
6, 565436, Note_on_c, 4, 76, 53
6, 565436, Note_on_c, 4, 65, 73
6, 565436, Note_on_c, 4, 72, 73
6, 565436, Note_on_c, 4, 75, 73
6, 565590, Note_on_c, 4, 76, 0
6, 565590, Note_on_c, 4, 77, 68
6, 565750, Note_on_c, 4, 77, 0
6, 565750, Note_on_c, 4, 78, 82
6, 565920, Note_on_c, 4, 78, 0
6, 565920, Note_on_c, 4, 79, 83
6, 566078, Note_on_c, 4, 79, 0
6, 566078, Note_on_c, 4, 80, 82
6, 566238, Note_on_c, 4, 80, 0
6, 566238, Note_on_c, 4, 81, 80
6, 566400, Note_on_c, 4, 81, 0
6, 566400, Note_on_c, 4, 75, 0
6, 566400, Note_on_c, 4, 72, 0
6, 566400, Note_on_c, 4, 65, 0
6, 566401, Note_on_c, 4, 82, 97
6, 566401, Note_on_c, 4, 70, 72
6, 566401, Note_on_c, 4, 74, 72
6, 566640, Note_on_c, 4, 82, 0
6, 566640, Note_on_c, 4, 84, 97
6, 566700, Note_on_c, 4, 84, 0
6, 566700, Note_on_c, 4, 82, 73
6, 566760, Note_on_c, 4, 82, 0
6, 566760, Note_on_c, 4, 81, 75
6, 566880, Note_on_c, 4, 81, 0
6, 566880, Note_on_c, 4, 74, 0
6, 566880, Note_on_c, 4, 70, 0
6, 566880, Note_on_c, 4, 82, 90
6, 567121, Note_on_c, 4, 82, 0
6, 567121, Note_on_c, 4, 86, 99
6, 567240, Note_on_c, 4, 86, 0
6, 567369, Note_on_c, 4, 89, 81
6, 567369, Note_on_c, 4, 65, 60
6, 567369, Note_on_c, 4, 69, 60
6, 567369, Note_on_c, 4, 75, 60
6, 567528, Note_on_c, 4, 89, 0
6, 567528, Note_on_c, 4, 88, 68
6, 567688, Note_on_c, 4, 88, 0
6, 567688, Note_on_c, 4, 87, 59
6, 567841, Note_on_c, 4, 87, 0
6, 567841, Note_on_c, 4, 86, 65
6, 568000, Note_on_c, 4, 86, 0
6, 568000, Note_on_c, 4, 87, 80
6, 568158, Note_on_c, 4, 87, 0
6, 568158, Note_on_c, 4, 84, 64
6, 568320, Note_on_c, 4, 84, 0
6, 568320, Note_on_c, 4, 75, 0
6, 568320, Note_on_c, 4, 69, 0
6, 568320, Note_on_c, 4, 65, 0
6, 568320, Note_on_c, 4, 82, 67
6, 568320, Note_on_c, 4, 70, 63
6, 568320, Note_on_c, 4, 74, 63
6, 568478, Note_on_c, 4, 82, 0
6, 568478, Note_on_c, 4, 86, 83
6, 568560, Note_on_c, 4, 74, 0
6, 568560, Note_on_c, 4, 70, 0
6, 568638, Note_on_c, 4, 86, 0
6, 568638, Note_on_c, 4, 82, 69
6, 568800, Note_on_c, 4, 82, 0
6, 568800, Note_on_c, 4, 89, 94
6, 568800, Note_on_c, 4, 65, 68
6, 568800, Note_on_c, 4, 72, 68
6, 568958, Note_on_c, 4, 89, 0
6, 568958, Note_on_c, 4, 87, 69
6, 569040, Note_on_c, 4, 72, 0
6, 569040, Note_on_c, 4, 65, 0
6, 569118, Note_on_c, 4, 87, 0
6, 569118, Note_on_c, 4, 84, 59
6, 569280, Note_on_c, 4, 84, 0
6, 569280, Note_on_c, 4, 82, 45
6, 569280, Note_on_c, 4, 70, 54
6, 569280, Note_on_c, 4, 74, 54
6, 569438, Note_on_c, 4, 82, 0
6, 569438, Note_on_c, 4, 86, 71
6, 569520, Note_on_c, 4, 74, 0
6, 569520, Note_on_c, 4, 70, 0
6, 569598, Note_on_c, 4, 86, 0
6, 569598, Note_on_c, 4, 82, 50
6, 569760, Note_on_c, 4, 82, 0
6, 569760, Note_on_c, 4, 89, 78
6, 569760, Note_on_c, 4, 65, 51
6, 569760, Note_on_c, 4, 72, 51
6, 569914, Note_on_c, 4, 89, 0
6, 569914, Note_on_c, 4, 87, 59
6, 569996, Note_on_c, 4, 72, 0
6, 569996, Note_on_c, 4, 65, 0
6, 570074, Note_on_c, 4, 87, 0
6, 570074, Note_on_c, 4, 84, 49
6, 570240, Note_on_c, 4, 84, 0
6, 570240, Note_on_c, 4, 82, 50
6, 570240, Note_on_c, 4, 70, 38
6, 570240, Note_on_c, 4, 74, 38
6, 570472, Note_on_c, 4, 82, 0
6, 570712, Note_on_c, 4, 74, 0
6, 570712, Note_on_c, 4, 70, 0
6, 570712, Note_on_c, 4, 86, 40
6, 570956, Note_on_c, 4, 86, 0
6, 571196, Note_on_c, 4, 89, 37
6, 571440, Note_on_c, 4, 89, 0
6, 572160, Note_on_c, 4, 74, 53
6, 572160, Note_on_c, 4, 77, 53
6, 573120, Note_on_c, 4, 77, 0
6, 573120, Note_on_c, 4, 74, 0
6, 573120, Note_on_c, 4, 70, 53
6, 573120, Note_on_c, 4, 74, 53
6, 573120, Note_on_c, 4, 55, 58
6, 573120, Note_on_c, 4, 62, 58
6, 574080, Note_on_c, 4, 62, 0
6, 574080, Note_on_c, 4, 70, 0
6, 574080, Note_on_c, 4, 74, 0
6, 574080, Note_on_c, 4, 55, 0
6, 574080, Note_on_c, 4, 70, 73
6, 574080, Note_on_c, 4, 79, 73
6, 574080, Note_on_c, 4, 51, 48
6, 574080, Note_on_c, 4, 60, 48
6, 575040, Note_on_c, 4, 60, 0
6, 575040, Note_on_c, 4, 70, 0
6, 575040, Note_on_c, 4, 79, 0
6, 575040, Note_on_c, 4, 51, 0
6, 575040, Note_on_c, 4, 69, 44
6, 575040, Note_on_c, 4, 72, 44
6, 575040, Note_on_c, 4, 53, 72
6, 575040, Note_on_c, 4, 63, 72
6, 576000, Note_on_c, 4, 63, 0
6, 576000, Note_on_c, 4, 69, 0
6, 576000, Note_on_c, 4, 72, 0
6, 576000, Note_on_c, 4, 53, 0
6, 576010, Note_on_c, 4, 74, 73
6, 576010, Note_on_c, 4, 70, 97
6, 576010, Note_on_c, 4, 62, 50
6, 576010, Note_on_c, 4, 58, 95
6, 576245, Note_on_c, 4, 74, 0
6, 576245, Note_on_c, 4, 77, 83
6, 576485, Note_on_c, 4, 77, 0
6, 576485, Note_on_c, 4, 58, 0
6, 576485, Note_on_c, 4, 62, 0
6, 576485, Note_on_c, 4, 70, 0
6, 576485, Note_on_c, 4, 75, 70
6, 576485, Note_on_c, 4, 67, 100
6, 576485, Note_on_c, 4, 60, 50
6, 576485, Note_on_c, 4, 51, 84
6, 576720, Note_on_c, 4, 75, 0
6, 576720, Note_on_c, 4, 72, 52
6, 576960, Note_on_c, 4, 72, 0
6, 576960, Note_on_c, 4, 51, 0
6, 576960, Note_on_c, 4, 60, 0
6, 576960, Note_on_c, 4, 67, 0
6, 576960, Note_on_c, 4, 70, 57
6, 576960, Note_on_c, 4, 65, 104
6, 576960, Note_on_c, 4, 62, 65
6, 576960, Note_on_c, 4, 53, 101
6, 577432, Note_on_c, 4, 62, 0
6, 577432, Note_on_c, 4, 70, 0
6, 577432, Note_on_c, 4, 65, 0
6, 577432, Note_on_c, 4, 72, 69
6, 577432, Note_on_c, 4, 69, 126
6, 577432, Note_on_c, 4, 65, 70
6, 577920, Note_on_c, 4, 65, 0
6, 577920, Note_on_c, 4, 53, 0
6, 577920, Note_on_c, 4, 72, 0
6, 577920, Note_on_c, 4, 69, 0
6, 577920, Note_on_c, 4, 74, 83
6, 577920, Note_on_c, 4, 70, 126
6, 577920, Note_on_c, 4, 58, 63
6, 577920, Note_on_c, 4, 65, 63
6, 578152, Note_on_c, 4, 70, 0
6, 578152, Note_on_c, 4, 74, 0
6, 578152, Note_on_c, 4, 75, 79
6, 578212, Note_on_c, 4, 75, 0
6, 578212, Note_on_c, 4, 74, 71
6, 578272, Note_on_c, 4, 74, 0
6, 578272, Note_on_c, 4, 72, 62
6, 578392, Note_on_c, 4, 72, 0
6, 578392, Note_on_c, 4, 58, 0
6, 578392, Note_on_c, 4, 65, 0
6, 578392, Note_on_c, 4, 74, 80
6, 578640, Note_on_c, 4, 74, 0
6, 578640, Note_on_c, 4, 75, 79
6, 578640, Note_on_c, 4, 72, 113
6, 578880, Note_on_c, 4, 72, 0
6, 578880, Note_on_c, 4, 75, 0
6, 578880, Note_on_c, 4, 77, 78
6, 578880, Note_on_c, 4, 74, 126
6, 579352, Note_on_c, 4, 74, 0
6, 579352, Note_on_c, 4, 77, 0
6, 579836, Note_on_c, 4, 57, 70
6, 579836, Note_on_c, 4, 50, 86
6, 579953, Note_on_c, 4, 57, 0
6, 579953, Note_on_c, 4, 58, 87
6, 580073, Note_on_c, 4, 58, 0
6, 580073, Note_on_c, 4, 60, 93
6, 580193, Note_on_c, 4, 60, 0
6, 580193, Note_on_c, 4, 62, 96
6, 580313, Note_on_c, 4, 62, 0
6, 580313, Note_on_c, 4, 64, 100
6, 580433, Note_on_c, 4, 64, 0
6, 580433, Note_on_c, 4, 65, 94
6, 580553, Note_on_c, 4, 65, 0
6, 580553, Note_on_c, 4, 67, 100
6, 580680, Note_on_c, 4, 67, 0
6, 580680, Note_on_c, 4, 69, 101
6, 580800, Note_on_c, 4, 69, 0
6, 580800, Note_on_c, 4, 50, 0
6, 580800, Note_on_c, 4, 71, 99
6, 580800, Note_on_c, 4, 43, 84
6, 580920, Note_on_c, 4, 71, 0
6, 580920, Note_on_c, 4, 72, 89
6, 581040, Note_on_c, 4, 72, 0
6, 581040, Note_on_c, 4, 74, 99
6, 581160, Note_on_c, 4, 74, 0
6, 581160, Note_on_c, 4, 75, 94
6, 581280, Note_on_c, 4, 75, 0
6, 581280, Note_on_c, 4, 77, 96
6, 581400, Note_on_c, 4, 77, 0
6, 581400, Note_on_c, 4, 79, 105
6, 581522, Note_on_c, 4, 79, 0
6, 581522, Note_on_c, 4, 81, 99
6, 581642, Note_on_c, 4, 81, 0
6, 581642, Note_on_c, 4, 83, 98
6, 581760, Note_on_c, 4, 83, 0
6, 581760, Note_on_c, 4, 43, 0
6, 581761, Note_on_c, 4, 84, 92
6, 581761, Note_on_c, 4, 48, 99
6, 581881, Note_on_c, 4, 84, 0
6, 581881, Note_on_c, 4, 86, 100
6, 582001, Note_on_c, 4, 86, 0
6, 582001, Note_on_c, 4, 84, 80
6, 582121, Note_on_c, 4, 84, 0
6, 582121, Note_on_c, 4, 83, 80
6, 582241, Note_on_c, 4, 83, 0
6, 582241, Note_on_c, 4, 84, 96
6, 582361, Note_on_c, 4, 84, 0
6, 582361, Note_on_c, 4, 86, 101
6, 582481, Note_on_c, 4, 86, 0
6, 582481, Note_on_c, 4, 84, 82
6, 582601, Note_on_c, 4, 84, 0
6, 582601, Note_on_c, 4, 86, 91
6, 582721, Note_on_c, 4, 86, 0
6, 582721, Note_on_c, 4, 48, 0
6, 582721, Note_on_c, 4, 87, 95
6, 582721, Note_on_c, 4, 41, 87
6, 582841, Note_on_c, 4, 87, 0
6, 582841, Note_on_c, 4, 86, 77
6, 582960, Note_on_c, 4, 86, 0
6, 582960, Note_on_c, 4, 84, 67
6, 583080, Note_on_c, 4, 84, 0
6, 583080, Note_on_c, 4, 82, 69
6, 583193, Note_on_c, 4, 82, 0
6, 583193, Note_on_c, 4, 81, 73
6, 583312, Note_on_c, 4, 81, 0
6, 583312, Note_on_c, 4, 79, 64
6, 583428, Note_on_c, 4, 79, 0
6, 583428, Note_on_c, 4, 77, 74
6, 583546, Note_on_c, 4, 77, 0
6, 583546, Note_on_c, 4, 75, 72
6, 583680, Note_on_c, 4, 75, 0
6, 583680, Note_on_c, 4, 41, 0
6, 583680, Note_on_c, 4, 74, 72
6, 583680, Note_on_c, 4, 46, 99
6, 583792, Note_on_c, 4, 74, 0
6, 583792, Note_on_c, 4, 82, 115
6, 583912, Note_on_c, 4, 82, 0
6, 583912, Note_on_c, 4, 77, 73
6, 584032, Note_on_c, 4, 77, 0
6, 584032, Note_on_c, 4, 74, 71
6, 584152, Note_on_c, 4, 74, 0
6, 584152, Note_on_c, 4, 46, 0
6, 584152, Note_on_c, 4, 72, 73
6, 584152, Note_on_c, 4, 51, 104
6, 584276, Note_on_c, 4, 72, 0
6, 584276, Note_on_c, 4, 79, 111
6, 584396, Note_on_c, 4, 79, 0
6, 584396, Note_on_c, 4, 75, 72
6, 584516, Note_on_c, 4, 75, 0
6, 584516, Note_on_c, 4, 72, 63
6, 584636, Note_on_c, 4, 72, 0
6, 584636, Note_on_c, 4, 51, 0
6, 584636, Note_on_c, 4, 70, 73
6, 584636, Note_on_c, 4, 53, 103
6, 584756, Note_on_c, 4, 70, 0
6, 584756, Note_on_c, 4, 77, 110
6, 584876, Note_on_c, 4, 77, 0
6, 584876, Note_on_c, 4, 74, 74
6, 584996, Note_on_c, 4, 74, 0
6, 584996, Note_on_c, 4, 70, 58
6, 585116, Note_on_c, 4, 70, 0
6, 585116, Note_on_c, 4, 53, 0
6, 585116, Note_on_c, 4, 69, 68
6, 585116, Note_on_c, 4, 41, 78
6, 585236, Note_on_c, 4, 69, 0
6, 585236, Note_on_c, 4, 75, 106
6, 585356, Note_on_c, 4, 75, 0
6, 585356, Note_on_c, 4, 72, 75
6, 585476, Note_on_c, 4, 72, 0
6, 585476, Note_on_c, 4, 69, 68
6, 585600, Note_on_c, 4, 69, 0
6, 585600, Note_on_c, 4, 41, 0
6, 585600, Note_on_c, 4, 70, 89
6, 585600, Note_on_c, 4, 46, 117
6, 586080, Note_on_c, 4, 46, 0
6, 586080, Note_on_c, 4, 70, 0
6, 586080, Note_on_c, 4, 77, 109
6, 586200, Note_on_c, 4, 77, 0
6, 586200, Note_on_c, 4, 74, 75
6, 586320, Note_on_c, 4, 74, 0
6, 586320, Note_on_c, 4, 70, 63
6, 586440, Note_on_c, 4, 70, 0
6, 586440, Note_on_c, 4, 65, 53
6, 586560, Note_on_c, 4, 65, 0
6, 586560, Note_on_c, 4, 75, 121
6, 586560, Note_on_c, 4, 41, 76
6, 586680, Note_on_c, 4, 41, 0
6, 586680, Note_on_c, 4, 75, 0
6, 586680, Note_on_c, 4, 72, 78
6, 586680, Note_on_c, 4, 45, 90
6, 586800, Note_on_c, 4, 45, 0
6, 586800, Note_on_c, 4, 72, 0
6, 586800, Note_on_c, 4, 69, 63
6, 586800, Note_on_c, 4, 48, 91
6, 586920, Note_on_c, 4, 48, 0
6, 586920, Note_on_c, 4, 69, 0
6, 586920, Note_on_c, 4, 65, 61
6, 586920, Note_on_c, 4, 53, 92
6, 587040, Note_on_c, 4, 53, 0
6, 587040, Note_on_c, 4, 65, 0
6, 587040, Note_on_c, 4, 63, 65
6, 587040, Note_on_c, 4, 57, 97
6, 587156, Note_on_c, 4, 57, 0
6, 587156, Note_on_c, 4, 63, 0
6, 587156, Note_on_c, 4, 65, 95
6, 587156, Note_on_c, 4, 53, 73
6, 587276, Note_on_c, 4, 53, 0
6, 587276, Note_on_c, 4, 65, 0
6, 587276, Note_on_c, 4, 63, 73
6, 587276, Note_on_c, 4, 57, 89
6, 587396, Note_on_c, 4, 57, 0
6, 587396, Note_on_c, 4, 63, 0
6, 587396, Note_on_c, 4, 65, 96
6, 587396, Note_on_c, 4, 53, 71
6, 587520, Note_on_c, 4, 53, 0
6, 587520, Note_on_c, 4, 65, 0
6, 587520, Note_on_c, 4, 62, 81
6, 587520, Note_on_c, 4, 58, 98
6, 587640, Note_on_c, 4, 62, 0
6, 587640, Note_on_c, 4, 65, 98
6, 587760, Note_on_c, 4, 65, 0
6, 587760, Note_on_c, 4, 70, 112
6, 587880, Note_on_c, 4, 70, 0
6, 587880, Note_on_c, 4, 74, 107
6, 588000, Note_on_c, 4, 74, 0
6, 588000, Note_on_c, 4, 58, 0
6, 588000, Note_on_c, 4, 77, 105
6, 588120, Note_on_c, 4, 77, 0
6, 588120, Note_on_c, 4, 74, 73
6, 588240, Note_on_c, 4, 74, 0
6, 588240, Note_on_c, 4, 70, 59
6, 588360, Note_on_c, 4, 70, 0
6, 588360, Note_on_c, 4, 65, 62
6, 588480, Note_on_c, 4, 65, 0
6, 588480, Note_on_c, 4, 75, 115
6, 588480, Note_on_c, 4, 41, 76
6, 588600, Note_on_c, 4, 41, 0
6, 588600, Note_on_c, 4, 75, 0
6, 588600, Note_on_c, 4, 72, 72
6, 588600, Note_on_c, 4, 45, 86
6, 588720, Note_on_c, 4, 45, 0
6, 588720, Note_on_c, 4, 72, 0
6, 588720, Note_on_c, 4, 69, 70
6, 588720, Note_on_c, 4, 48, 86
6, 588836, Note_on_c, 4, 48, 0
6, 588836, Note_on_c, 4, 69, 0
6, 588836, Note_on_c, 4, 65, 64
6, 588836, Note_on_c, 4, 53, 92
6, 588952, Note_on_c, 4, 53, 0
6, 588952, Note_on_c, 4, 65, 0
6, 588952, Note_on_c, 4, 63, 68
6, 588952, Note_on_c, 4, 57, 98
6, 589072, Note_on_c, 4, 57, 0
6, 589072, Note_on_c, 4, 63, 0
6, 589072, Note_on_c, 4, 65, 92
6, 589072, Note_on_c, 4, 53, 78
6, 589192, Note_on_c, 4, 53, 0
6, 589192, Note_on_c, 4, 65, 0
6, 589192, Note_on_c, 4, 63, 74
6, 589192, Note_on_c, 4, 57, 94
6, 589312, Note_on_c, 4, 57, 0
6, 589312, Note_on_c, 4, 63, 0
6, 589312, Note_on_c, 4, 65, 95
6, 589312, Note_on_c, 4, 53, 78
6, 589440, Note_on_c, 4, 53, 0
6, 589440, Note_on_c, 4, 65, 0
6, 589440, Note_on_c, 4, 62, 66
6, 589440, Note_on_c, 4, 58, 98
6, 589548, Note_on_c, 4, 62, 0
6, 589548, Note_on_c, 4, 65, 102
6, 589668, Note_on_c, 4, 65, 0
6, 589668, Note_on_c, 4, 70, 109
6, 589788, Note_on_c, 4, 70, 0
6, 589788, Note_on_c, 4, 74, 108
6, 589913, Note_on_c, 4, 74, 0
6, 589913, Note_on_c, 4, 58, 0
6, 589913, Note_on_c, 4, 77, 107
6, 590033, Note_on_c, 4, 77, 0
6, 590033, Note_on_c, 4, 74, 74
6, 590160, Note_on_c, 4, 74, 0
6, 590160, Note_on_c, 4, 70, 64
6, 590280, Note_on_c, 4, 70, 0
6, 590280, Note_on_c, 4, 65, 58
6, 590400, Note_on_c, 4, 65, 0
6, 590400, Note_on_c, 4, 75, 111
6, 590400, Note_on_c, 4, 41, 81
6, 590513, Note_on_c, 4, 41, 0
6, 590513, Note_on_c, 4, 75, 0
6, 590513, Note_on_c, 4, 72, 73
6, 590513, Note_on_c, 4, 45, 91
6, 590633, Note_on_c, 4, 45, 0
6, 590633, Note_on_c, 4, 72, 0
6, 590633, Note_on_c, 4, 69, 66
6, 590633, Note_on_c, 4, 48, 95
6, 590748, Note_on_c, 4, 48, 0
6, 590748, Note_on_c, 4, 69, 0
6, 590748, Note_on_c, 4, 65, 61
6, 590748, Note_on_c, 4, 53, 93
6, 590868, Note_on_c, 4, 53, 0
6, 590868, Note_on_c, 4, 65, 0
6, 590868, Note_on_c, 4, 63, 69
6, 590868, Note_on_c, 4, 57, 95
6, 590988, Note_on_c, 4, 57, 0
6, 590988, Note_on_c, 4, 63, 0
6, 590988, Note_on_c, 4, 65, 87
6, 590988, Note_on_c, 4, 53, 77
6, 591108, Note_on_c, 4, 53, 0
6, 591108, Note_on_c, 4, 65, 0
6, 591108, Note_on_c, 4, 63, 69
6, 591108, Note_on_c, 4, 57, 96
6, 591228, Note_on_c, 4, 57, 0
6, 591228, Note_on_c, 4, 63, 0
6, 591228, Note_on_c, 4, 65, 92
6, 591228, Note_on_c, 4, 53, 81
6, 591360, Note_on_c, 4, 53, 0
6, 591360, Note_on_c, 4, 65, 0
6, 591360, Note_on_c, 4, 62, 63
6, 591360, Control_c, 4, 64, 127
6, 591360, Note_on_c, 4, 58, 97
6, 591828, Note_on_c, 4, 58, 0
6, 591828, Note_on_c, 4, 62, 0
6, 591828, Note_on_c, 4, 74, 127
6, 591828, Note_on_c, 4, 77, 127
6, 592072, Note_on_c, 4, 77, 0
6, 592072, Note_on_c, 4, 74, 0
6, 592072, Note_on_c, 4, 65, 55
6, 592072, Note_on_c, 4, 74, 55
6, 592320, Note_on_c, 4, 46, 73
6, 592320, Note_on_c, 4, 58, 73
6, 592561, Note_on_c, 4, 74, 0
6, 592561, Note_on_c, 4, 65, 0
6, 592561, Note_on_c, 4, 62, 72
6, 592561, Note_on_c, 4, 65, 72
6, 592805, Note_on_c, 4, 65, 0
6, 592805, Note_on_c, 4, 58, 0
6, 592805, Note_on_c, 4, 46, 0
6, 592805, Note_on_c, 4, 62, 0
6, 592805, Note_on_c, 4, 74, 92
6, 592805, Note_on_c, 4, 77, 92
6, 593049, Note_on_c, 4, 77, 0
6, 593049, Note_on_c, 4, 74, 0
6, 593049, Note_on_c, 4, 65, 57
6, 593049, Note_on_c, 4, 74, 57
6, 593286, Note_on_c, 4, 46, 74
6, 593286, Note_on_c, 4, 58, 74
6, 593525, Note_on_c, 4, 74, 0
6, 593525, Note_on_c, 4, 65, 0
6, 593525, Note_on_c, 4, 62, 65
6, 593525, Note_on_c, 4, 65, 65
6, 593765, Note_on_c, 4, 65, 0
6, 593765, Note_on_c, 4, 58, 0
6, 593765, Note_on_c, 4, 46, 0
6, 593765, Note_on_c, 4, 62, 0
6, 593765, Note_on_c, 4, 74, 85
6, 593765, Note_on_c, 4, 77, 85
6, 594006, Note_on_c, 4, 77, 0
6, 594006, Note_on_c, 4, 74, 0
6, 594006, Note_on_c, 4, 65, 82
6, 594006, Note_on_c, 4, 74, 82
6, 594245, Note_on_c, 4, 74, 0
6, 594245, Note_on_c, 4, 65, 0
6, 594245, Note_on_c, 4, 74, 69
6, 594245, Note_on_c, 4, 77, 69
6, 594245, Note_on_c, 4, 46, 71
6, 594245, Note_on_c, 4, 58, 71
6, 594485, Note_on_c, 4, 77, 0
6, 594485, Note_on_c, 4, 74, 0
6, 594485, Note_on_c, 4, 65, 78
6, 594485, Note_on_c, 4, 74, 78
6, 594725, Note_on_c, 4, 74, 0
6, 594725, Note_on_c, 4, 58, 0
6, 594725, Note_on_c, 4, 46, 0
6, 594725, Note_on_c, 4, 65, 0
6, 594725, Note_on_c, 4, 74, 80
6, 594725, Note_on_c, 4, 77, 80
6, 594725, Note_on_c, 4, 46, 75
6, 594725, Note_on_c, 4, 58, 75
6, 594965, Note_on_c, 4, 77, 0
6, 594965, Note_on_c, 4, 74, 0
6, 594965, Note_on_c, 4, 65, 62
6, 594965, Note_on_c, 4, 74, 62
6, 595200, Note_on_c, 4, 74, 0
6, 595200, Note_on_c, 4, 58, 0
6, 595200, Note_on_c, 4, 46, 0
6, 595200, Note_on_c, 4, 65, 0
6, 595205, Note_on_c, 4, 75, 88
6, 595205, Note_on_c, 4, 79, 88
6, 595205, Control_c, 4, 64, 0
6, 595205, Note_on_c, 4, 39, 49
6, 595205, Note_on_c, 4, 51, 49
6, 595681, Note_on_c, 4, 51, 0
6, 595681, Note_on_c, 4, 75, 0
6, 595681, Note_on_c, 4, 79, 0
6, 595681, Note_on_c, 4, 39, 0
6, 596161, Note_on_c, 4, 72, 59
6, 596161, Note_on_c, 4, 69, 113
6, 596161, Note_on_c, 4, 51, 48
6, 596244, Note_on_c, 4, 53, 48
6, 596324, Note_on_c, 4, 57, 48
6, 596406, Note_on_c, 4, 60, 48
6, 596880, Note_on_c, 4, 72, 0
6, 596880, Note_on_c, 4, 74, 95
6, 597000, Note_on_c, 4, 74, 0
6, 597000, Note_on_c, 4, 75, 93
6, 597120, Note_on_c, 4, 75, 0
6, 597120, Note_on_c, 4, 51, 0
6, 597120, Note_on_c, 4, 53, 0
6, 597120, Note_on_c, 4, 69, 0
6, 597120, Note_on_c, 4, 60, 0
6, 597120, Note_on_c, 4, 57, 0
6, 597120, Note_on_c, 4, 77, 96
6, 597120, Note_on_c, 4, 50, 73
6, 597120, Note_on_c, 4, 58, 73
6, 597237, Note_on_c, 4, 77, 0
6, 597360, Note_on_c, 4, 58, 0
6, 597360, Note_on_c, 4, 50, 0
6, 597360, Note_on_c, 4, 77, 85
6, 597480, Note_on_c, 4, 77, 0
6, 597480, Note_on_c, 4, 74, 69
6, 597601, Note_on_c, 4, 74, 0
6, 597601, Note_on_c, 4, 75, 87
6, 597601, Note_on_c, 4, 51, 70
6, 597601, Note_on_c, 4, 60, 70
6, 597720, Note_on_c, 4, 75, 0
6, 597841, Note_on_c, 4, 60, 0
6, 597841, Note_on_c, 4, 51, 0
6, 597841, Note_on_c, 4, 75, 77
6, 597960, Note_on_c, 4, 75, 0
6, 597960, Note_on_c, 4, 72, 73
6, 598080, Note_on_c, 4, 72, 0
6, 598080, Note_on_c, 4, 74, 94
6, 598080, Note_on_c, 4, 53, 80
6, 598080, Note_on_c, 4, 62, 80
6, 598197, Note_on_c, 4, 74, 0
6, 598316, Note_on_c, 4, 62, 0
6, 598316, Note_on_c, 4, 53, 0
6, 598316, Note_on_c, 4, 74, 86
6, 598433, Note_on_c, 4, 74, 0
6, 598433, Note_on_c, 4, 70, 67
6, 598549, Note_on_c, 4, 70, 0
6, 598549, Note_on_c, 4, 72, 86
6, 598549, Note_on_c, 4, 53, 72
6, 598549, Note_on_c, 4, 63, 72
6, 598668, Note_on_c, 4, 72, 0
6, 598784, Note_on_c, 4, 63, 0
6, 598784, Note_on_c, 4, 53, 0
6, 598784, Note_on_c, 4, 72, 79
6, 598902, Note_on_c, 4, 72, 0
6, 598902, Note_on_c, 4, 69, 67
6, 599040, Note_on_c, 4, 69, 0
6, 599040, Note_on_c, 4, 70, 80
6, 599040, Note_on_c, 4, 58, 75
6, 599040, Note_on_c, 4, 62, 75
6, 599509, Note_on_c, 4, 62, 0
6, 599509, Note_on_c, 4, 58, 0
6, 599509, Note_on_c, 4, 70, 0
6, 599509, Note_on_c, 4, 89, 119
6, 599633, Note_on_c, 4, 89, 0
6, 599633, Note_on_c, 4, 86, 72
6, 599756, Note_on_c, 4, 86, 0
6, 599756, Note_on_c, 4, 82, 60
6, 599880, Note_on_c, 4, 82, 0
6, 599880, Note_on_c, 4, 77, 59
6, 600000, Note_on_c, 4, 77, 0
6, 600000, Note_on_c, 4, 87, 116
6, 600000, Note_on_c, 4, 53, 71
6, 600120, Note_on_c, 4, 53, 0
6, 600120, Note_on_c, 4, 87, 0
6, 600120, Note_on_c, 4, 84, 73
6, 600120, Note_on_c, 4, 57, 93
6, 600240, Note_on_c, 4, 57, 0
6, 600240, Note_on_c, 4, 84, 0
6, 600240, Note_on_c, 4, 81, 68
6, 600240, Note_on_c, 4, 60, 103
6, 600360, Note_on_c, 4, 60, 0
6, 600360, Note_on_c, 4, 81, 0
6, 600360, Note_on_c, 4, 77, 62
6, 600360, Note_on_c, 4, 65, 110
6, 600480, Note_on_c, 4, 65, 0
6, 600480, Note_on_c, 4, 77, 0
6, 600480, Note_on_c, 4, 75, 62
6, 600480, Note_on_c, 4, 69, 106
6, 600600, Note_on_c, 4, 69, 0
6, 600600, Note_on_c, 4, 75, 0
6, 600600, Note_on_c, 4, 77, 89
6, 600600, Note_on_c, 4, 65, 68
6, 600720, Note_on_c, 4, 65, 0
6, 600720, Note_on_c, 4, 77, 0
6, 600720, Note_on_c, 4, 75, 76
6, 600720, Note_on_c, 4, 69, 92
6, 600840, Note_on_c, 4, 69, 0
6, 600840, Note_on_c, 4, 75, 0
6, 600840, Note_on_c, 4, 77, 90
6, 600840, Note_on_c, 4, 65, 67
6, 600960, Note_on_c, 4, 65, 0
6, 600960, Note_on_c, 4, 77, 0
6, 600960, Note_on_c, 4, 74, 70
6, 600960, Note_on_c, 4, 70, 107
6, 601080, Note_on_c, 4, 74, 0
6, 601080, Note_on_c, 4, 77, 90
6, 601200, Note_on_c, 4, 77, 0
6, 601200, Note_on_c, 4, 82, 110
6, 601320, Note_on_c, 4, 82, 0
6, 601320, Note_on_c, 4, 86, 111
6, 601440, Note_on_c, 4, 86, 0
6, 601440, Note_on_c, 4, 70, 0
6, 601440, Note_on_c, 4, 89, 104
6, 601561, Note_on_c, 4, 89, 0
6, 601561, Note_on_c, 4, 86, 69
6, 601682, Note_on_c, 4, 86, 0
6, 601682, Note_on_c, 4, 82, 68
6, 601801, Note_on_c, 4, 82, 0
6, 601801, Note_on_c, 4, 77, 63
6, 601920, Note_on_c, 4, 77, 0
6, 601920, Note_on_c, 4, 87, 111
6, 601920, Note_on_c, 4, 53, 77
6, 602040, Note_on_c, 4, 53, 0
6, 602040, Note_on_c, 4, 87, 0
6, 602040, Note_on_c, 4, 84, 81
6, 602040, Note_on_c, 4, 57, 90
6, 602157, Note_on_c, 4, 57, 0
6, 602157, Note_on_c, 4, 84, 0
6, 602157, Note_on_c, 4, 81, 72
6, 602157, Note_on_c, 4, 60, 102
6, 602273, Note_on_c, 4, 60, 0
6, 602273, Note_on_c, 4, 81, 0
6, 602273, Note_on_c, 4, 77, 64
6, 602273, Note_on_c, 4, 65, 110
6, 602389, Note_on_c, 4, 65, 0
6, 602389, Note_on_c, 4, 77, 0
6, 602389, Note_on_c, 4, 75, 64
6, 602389, Note_on_c, 4, 69, 106
6, 602508, Note_on_c, 4, 69, 0
6, 602508, Note_on_c, 4, 75, 0
6, 602508, Note_on_c, 4, 77, 88
6, 602508, Note_on_c, 4, 65, 73
6, 602626, Note_on_c, 4, 65, 0
6, 602626, Note_on_c, 4, 77, 0
6, 602626, Note_on_c, 4, 75, 78
6, 602626, Note_on_c, 4, 69, 97
6, 602746, Note_on_c, 4, 69, 0
6, 602746, Note_on_c, 4, 75, 0
6, 602746, Note_on_c, 4, 77, 93
6, 602746, Note_on_c, 4, 65, 68
6, 602880, Note_on_c, 4, 65, 0
6, 602880, Note_on_c, 4, 77, 0
6, 602880, Note_on_c, 4, 74, 74
6, 602880, Note_on_c, 4, 70, 107
6, 602993, Note_on_c, 4, 74, 0
6, 602993, Note_on_c, 4, 77, 95
6, 603113, Note_on_c, 4, 77, 0
6, 603113, Note_on_c, 4, 82, 111
6, 603236, Note_on_c, 4, 82, 0
6, 603236, Note_on_c, 4, 86, 107
6, 603357, Note_on_c, 4, 86, 0
6, 603357, Note_on_c, 4, 70, 0
6, 603357, Note_on_c, 4, 89, 96
6, 603480, Note_on_c, 4, 89, 0
6, 603480, Note_on_c, 4, 86, 72
6, 603600, Note_on_c, 4, 86, 0
6, 603600, Note_on_c, 4, 82, 66
6, 603720, Note_on_c, 4, 82, 0
6, 603720, Note_on_c, 4, 77, 57
6, 603840, Note_on_c, 4, 77, 0
6, 603840, Note_on_c, 4, 87, 118
6, 603840, Note_on_c, 4, 53, 78
6, 603957, Note_on_c, 4, 53, 0
6, 603957, Note_on_c, 4, 87, 0
6, 603957, Note_on_c, 4, 84, 80
6, 603957, Note_on_c, 4, 57, 86
6, 604073, Note_on_c, 4, 57, 0
6, 604073, Note_on_c, 4, 84, 0
6, 604073, Note_on_c, 4, 81, 67
6, 604073, Note_on_c, 4, 60, 99
6, 604193, Note_on_c, 4, 60, 0
6, 604193, Note_on_c, 4, 81, 0
6, 604193, Note_on_c, 4, 77, 61
6, 604193, Note_on_c, 4, 65, 102
6, 604309, Note_on_c, 4, 65, 0
6, 604309, Note_on_c, 4, 77, 0
6, 604309, Note_on_c, 4, 75, 64
6, 604309, Note_on_c, 4, 69, 108
6, 604428, Note_on_c, 4, 69, 0
6, 604428, Note_on_c, 4, 75, 0
6, 604428, Note_on_c, 4, 77, 88
6, 604428, Note_on_c, 4, 65, 71
6, 604548, Note_on_c, 4, 65, 0
6, 604548, Note_on_c, 4, 77, 0
6, 604548, Note_on_c, 4, 75, 69
6, 604548, Note_on_c, 4, 69, 92
6, 604668, Note_on_c, 4, 69, 0
6, 604668, Note_on_c, 4, 75, 0
6, 604668, Note_on_c, 4, 77, 87
6, 604668, Note_on_c, 4, 65, 63
6, 604800, Note_on_c, 4, 65, 0
6, 604800, Note_on_c, 4, 77, 0
6, 604800, Note_on_c, 4, 74, 69
6, 604800, Control_c, 4, 64, 127
6, 604800, Note_on_c, 4, 70, 103
6, 605273, Note_on_c, 4, 70, 0
6, 605273, Note_on_c, 4, 74, 0
6, 605273, Note_on_c, 4, 86, 127
6, 605273, Note_on_c, 4, 89, 127
6, 605516, Note_on_c, 4, 89, 0
6, 605516, Note_on_c, 4, 86, 0
6, 605516, Note_on_c, 4, 77, 84
6, 605516, Note_on_c, 4, 86, 84
6, 605760, Note_on_c, 4, 58, 75
6, 605760, Note_on_c, 4, 70, 75
6, 606000, Note_on_c, 4, 86, 0
6, 606000, Note_on_c, 4, 77, 0
6, 606000, Note_on_c, 4, 74, 59
6, 606000, Note_on_c, 4, 77, 59
6, 606117, Note_on_c, 4, 77, 0
6, 606117, Note_on_c, 4, 74, 0
6, 606241, Note_on_c, 4, 58, 0
6, 606241, Note_on_c, 4, 70, 0
6, 606241, Note_on_c, 4, 86, 127
6, 606241, Note_on_c, 4, 89, 127
6, 606482, Note_on_c, 4, 89, 0
6, 606482, Note_on_c, 4, 86, 0
6, 606482, Note_on_c, 4, 77, 79
6, 606482, Note_on_c, 4, 86, 79
6, 606722, Note_on_c, 4, 58, 81
6, 606722, Note_on_c, 4, 70, 81
6, 606962, Note_on_c, 4, 86, 0
6, 606962, Note_on_c, 4, 77, 0
6, 606962, Note_on_c, 4, 74, 55
6, 606962, Note_on_c, 4, 77, 55
6, 607201, Note_on_c, 4, 77, 0
6, 607201, Note_on_c, 4, 70, 0
6, 607201, Note_on_c, 4, 58, 0
6, 607201, Note_on_c, 4, 74, 0
6, 607201, Note_on_c, 4, 86, 127
6, 607201, Note_on_c, 4, 89, 127
6, 607442, Note_on_c, 4, 89, 0
6, 607442, Note_on_c, 4, 86, 0
6, 607442, Note_on_c, 4, 77, 77
6, 607442, Note_on_c, 4, 86, 77
6, 607682, Note_on_c, 4, 86, 0
6, 607682, Note_on_c, 4, 77, 0
6, 607682, Note_on_c, 4, 86, 122
6, 607682, Note_on_c, 4, 89, 122
6, 607682, Note_on_c, 4, 58, 69
6, 607682, Note_on_c, 4, 70, 69
6, 607922, Note_on_c, 4, 89, 0
6, 607922, Note_on_c, 4, 86, 0
6, 607922, Note_on_c, 4, 77, 71
6, 607922, Note_on_c, 4, 86, 71
6, 608162, Note_on_c, 4, 86, 0
6, 608162, Note_on_c, 4, 70, 0
6, 608162, Note_on_c, 4, 58, 0
6, 608162, Note_on_c, 4, 77, 0
6, 608162, Note_on_c, 4, 86, 116
6, 608162, Note_on_c, 4, 89, 116
6, 608162, Control_c, 4, 64, 0
6, 608162, Note_on_c, 4, 56, 70
6, 608162, Note_on_c, 4, 68, 70
6, 608401, Note_on_c, 4, 89, 0
6, 608401, Note_on_c, 4, 86, 0
6, 608401, Note_on_c, 4, 77, 75
6, 608401, Note_on_c, 4, 86, 75
6, 608640, Note_on_c, 4, 86, 0
6, 608640, Note_on_c, 4, 68, 0
6, 608640, Note_on_c, 4, 56, 0
6, 608640, Note_on_c, 4, 77, 0
6, 608642, Note_on_c, 4, 86, 93
6, 608642, Note_on_c, 4, 89, 93
6, 608642, Note_on_c, 4, 55, 62
6, 608642, Note_on_c, 4, 67, 62
6, 609122, Note_on_c, 4, 67, 0
6, 609122, Note_on_c, 4, 86, 0
6, 609122, Note_on_c, 4, 89, 0
6, 609122, Note_on_c, 4, 55, 0
6, 609601, Note_on_c, 4, 84, 72
6, 609601, Note_on_c, 4, 88, 72
6, 609601, Note_on_c, 4, 48, 71
6, 609601, Note_on_c, 4, 60, 71
6, 610080, Note_on_c, 4, 60, 0
6, 610080, Note_on_c, 4, 84, 0
6, 610080, Note_on_c, 4, 88, 0
6, 610080, Note_on_c, 4, 48, 0
6, 610560, Note_on_c, 4, 84, 75
6, 610560, Note_on_c, 4, 87, 75
6, 610560, Note_on_c, 4, 42, 80
6, 610560, Note_on_c, 4, 54, 80
6, 611040, Note_on_c, 4, 54, 0
6, 611040, Note_on_c, 4, 84, 0
6, 611040, Note_on_c, 4, 87, 0
6, 611040, Note_on_c, 4, 42, 0
6, 611520, Note_on_c, 4, 82, 70
6, 611520, Note_on_c, 4, 86, 70
6, 611520, Note_on_c, 4, 43, 74
6, 611520, Note_on_c, 4, 55, 74
6, 612000, Note_on_c, 4, 55, 0
6, 612000, Note_on_c, 4, 82, 0
6, 612000, Note_on_c, 4, 86, 0
6, 612000, Note_on_c, 4, 43, 0
6, 612480, Note_on_c, 4, 81, 72
6, 612480, Note_on_c, 4, 84, 72
6, 612480, Note_on_c, 4, 63, 81
6, 612561, Note_on_c, 4, 65, 81
6, 612644, Note_on_c, 4, 69, 81
6, 612726, Note_on_c, 4, 72, 81
6, 613440, Note_on_c, 4, 81, 0
6, 613560, Note_on_c, 4, 84, 0
6, 613560, Note_on_c, 4, 87, 100
6, 613680, Note_on_c, 4, 87, 0
6, 613680, Note_on_c, 4, 84, 79
6, 613800, Note_on_c, 4, 84, 0
6, 613800, Note_on_c, 4, 83, 71
6, 613925, Note_on_c, 4, 83, 0
6, 613925, Note_on_c, 4, 84, 84
6, 614049, Note_on_c, 4, 84, 0
6, 614049, Note_on_c, 4, 86, 89
6, 614170, Note_on_c, 4, 86, 0
6, 614170, Note_on_c, 4, 87, 96
6, 614298, Note_on_c, 4, 87, 0
6, 614298, Note_on_c, 4, 88, 92
6, 614400, Note_on_c, 4, 88, 0
6, 614400, Note_on_c, 4, 63, 0
6, 614400, Note_on_c, 4, 65, 0
6, 614400, Note_on_c, 4, 72, 0
6, 614400, Note_on_c, 4, 69, 0
6, 614406, Note_on_c, 4, 89, 99
6, 614529, Note_on_c, 4, 89, 0
6, 614529, Note_on_c, 4, 86, 71
6, 614649, Note_on_c, 4, 86, 0
6, 614649, Note_on_c, 4, 89, 99
6, 614769, Note_on_c, 4, 89, 0
6, 614769, Note_on_c, 4, 86, 66
6, 614889, Note_on_c, 4, 86, 0
6, 614889, Note_on_c, 4, 82, 62
6, 614889, Note_on_c, 4, 62, 73
6, 614889, Note_on_c, 4, 70, 73
6, 615006, Note_on_c, 4, 82, 0
6, 615125, Note_on_c, 4, 82, 82
6, 615242, Note_on_c, 4, 82, 0
6, 615362, Note_on_c, 4, 70, 0
6, 615362, Note_on_c, 4, 62, 0
6, 615362, Note_on_c, 4, 82, 83
6, 615480, Note_on_c, 4, 82, 0
6, 615480, Note_on_c, 4, 79, 65
6, 615600, Note_on_c, 4, 79, 0
6, 615600, Note_on_c, 4, 82, 93
6, 615716, Note_on_c, 4, 82, 0
6, 615716, Note_on_c, 4, 79, 76
6, 615829, Note_on_c, 4, 79, 0
6, 615829, Note_on_c, 4, 75, 65
6, 615829, Note_on_c, 4, 67, 64
6, 615829, Note_on_c, 4, 70, 64
6, 615948, Note_on_c, 4, 75, 0
6, 616062, Note_on_c, 4, 75, 80
6, 616180, Note_on_c, 4, 75, 0
6, 616320, Note_on_c, 4, 70, 0
6, 616320, Note_on_c, 4, 67, 0
6, 616320, Note_on_c, 4, 77, 92
6, 616432, Note_on_c, 4, 77, 0
6, 616432, Note_on_c, 4, 74, 76
6, 616552, Note_on_c, 4, 74, 0
6, 616552, Note_on_c, 4, 77, 98
6, 616673, Note_on_c, 4, 77, 0
6, 616673, Note_on_c, 4, 74, 70
6, 616793, Note_on_c, 4, 74, 0
6, 616793, Note_on_c, 4, 70, 58
6, 616793, Note_on_c, 4, 53, 82
6, 616793, Note_on_c, 4, 58, 82
6, 616793, Note_on_c, 4, 62, 82
6, 616912, Note_on_c, 4, 70, 0
6, 617033, Note_on_c, 4, 70, 80
6, 617152, Note_on_c, 4, 70, 0
6, 617273, Note_on_c, 4, 62, 0
6, 617273, Note_on_c, 4, 58, 0
6, 617273, Note_on_c, 4, 53, 0
6, 617273, Note_on_c, 4, 75, 105
6, 617393, Note_on_c, 4, 75, 0
6, 617393, Note_on_c, 4, 72, 72
6, 617513, Note_on_c, 4, 72, 0
6, 617513, Note_on_c, 4, 75, 90
6, 617633, Note_on_c, 4, 75, 0
6, 617633, Note_on_c, 4, 72, 65
6, 617753, Note_on_c, 4, 72, 0
6, 617753, Note_on_c, 4, 69, 72
6, 617753, Note_on_c, 4, 53, 76
6, 617753, Note_on_c, 4, 60, 76
6, 617753, Note_on_c, 4, 63, 76
6, 617872, Note_on_c, 4, 69, 0
6, 617989, Note_on_c, 4, 69, 77
6, 618108, Note_on_c, 4, 69, 0
6, 618240, Note_on_c, 4, 63, 0
6, 618240, Note_on_c, 4, 60, 0
6, 618240, Note_on_c, 4, 53, 0
6, 618240, Note_on_c, 4, 70, 82
6, 618240, Note_on_c, 4, 50, 75
6, 618240, Note_on_c, 4, 62, 75
6, 618356, Note_on_c, 4, 70, 0
6, 618356, Note_on_c, 4, 65, 67
6, 618476, Note_on_c, 4, 65, 0
6, 618476, Note_on_c, 4, 67, 88
6, 618596, Note_on_c, 4, 67, 0
6, 618596, Note_on_c, 4, 69, 97
6, 618716, Note_on_c, 4, 69, 0
6, 618716, Note_on_c, 4, 70, 94
6, 618837, Note_on_c, 4, 70, 0
6, 618837, Note_on_c, 4, 72, 94
6, 618957, Note_on_c, 4, 72, 0
6, 618957, Note_on_c, 4, 74, 100
6, 619077, Note_on_c, 4, 74, 0
6, 619077, Note_on_c, 4, 75, 92
6, 619200, Note_on_c, 4, 75, 0
6, 619200, Note_on_c, 4, 77, 99
6, 619320, Note_on_c, 4, 77, 0
6, 619320, Note_on_c, 4, 70, 63
6, 619440, Note_on_c, 4, 70, 0
6, 619440, Note_on_c, 4, 62, 0
6, 619440, Note_on_c, 4, 50, 0
6, 619440, Note_on_c, 4, 76, 101
6, 619440, Note_on_c, 4, 49, 72
6, 619440, Note_on_c, 4, 61, 72
6, 619560, Note_on_c, 4, 76, 0
6, 619560, Note_on_c, 4, 70, 60
6, 619680, Note_on_c, 4, 70, 0
6, 619680, Note_on_c, 4, 61, 0
6, 619680, Note_on_c, 4, 49, 0
6, 619680, Note_on_c, 4, 77, 107
6, 619680, Note_on_c, 4, 50, 87
6, 619680, Note_on_c, 4, 62, 87
6, 619800, Note_on_c, 4, 77, 0
6, 619800, Note_on_c, 4, 70, 66
6, 619920, Note_on_c, 4, 70, 0
6, 619920, Note_on_c, 4, 62, 0
6, 619920, Note_on_c, 4, 50, 0
6, 619920, Note_on_c, 4, 76, 99
6, 619920, Note_on_c, 4, 49, 77
6, 619920, Note_on_c, 4, 61, 77
6, 620040, Note_on_c, 4, 76, 0
6, 620040, Note_on_c, 4, 70, 65
6, 620160, Note_on_c, 4, 70, 0
6, 620160, Note_on_c, 4, 61, 0
6, 620160, Note_on_c, 4, 49, 0
6, 620160, Note_on_c, 4, 77, 109
6, 620160, Note_on_c, 4, 50, 93
6, 620160, Note_on_c, 4, 62, 93
6, 620280, Note_on_c, 4, 77, 0
6, 620280, Note_on_c, 4, 74, 74
6, 620400, Note_on_c, 4, 74, 0
6, 620400, Note_on_c, 4, 70, 64
6, 620520, Note_on_c, 4, 70, 0
6, 620520, Note_on_c, 4, 74, 95
6, 620640, Note_on_c, 4, 74, 0
6, 620640, Note_on_c, 4, 77, 105
6, 620760, Note_on_c, 4, 77, 0
6, 620760, Note_on_c, 4, 70, 62
6, 620880, Note_on_c, 4, 70, 0
6, 620880, Note_on_c, 4, 62, 0
6, 620880, Note_on_c, 4, 50, 0
6, 620880, Note_on_c, 4, 76, 108
6, 620880, Note_on_c, 4, 49, 72
6, 620880, Note_on_c, 4, 61, 72
6, 621000, Note_on_c, 4, 76, 0
6, 621000, Note_on_c, 4, 70, 70
6, 621120, Note_on_c, 4, 70, 0
6, 621120, Note_on_c, 4, 61, 0
6, 621120, Note_on_c, 4, 49, 0
6, 621120, Note_on_c, 4, 77, 109
6, 621120, Note_on_c, 4, 50, 89
6, 621120, Note_on_c, 4, 62, 89
6, 621240, Note_on_c, 4, 77, 0
6, 621240, Note_on_c, 4, 70, 64
6, 621360, Note_on_c, 4, 70, 0
6, 621360, Note_on_c, 4, 62, 0
6, 621360, Note_on_c, 4, 50, 0
6, 621360, Note_on_c, 4, 76, 105
6, 621360, Note_on_c, 4, 49, 78
6, 621360, Note_on_c, 4, 61, 78
6, 621480, Note_on_c, 4, 76, 0
6, 621480, Note_on_c, 4, 70, 60
6, 621600, Note_on_c, 4, 70, 0
6, 621600, Note_on_c, 4, 61, 0
6, 621600, Note_on_c, 4, 49, 0
6, 621600, Note_on_c, 4, 77, 108
6, 621600, Note_on_c, 4, 50, 79
6, 621600, Note_on_c, 4, 62, 79
6, 621717, Note_on_c, 4, 77, 0
6, 621717, Note_on_c, 4, 70, 57
6, 621837, Note_on_c, 4, 70, 0
6, 621837, Note_on_c, 4, 62, 0
6, 621837, Note_on_c, 4, 50, 0
6, 621837, Note_on_c, 4, 76, 101
6, 621837, Note_on_c, 4, 49, 69
6, 621837, Note_on_c, 4, 61, 69
6, 621956, Note_on_c, 4, 76, 0
6, 621956, Note_on_c, 4, 70, 63
6, 622080, Note_on_c, 4, 70, 0
6, 622080, Note_on_c, 4, 61, 0
6, 622080, Note_on_c, 4, 49, 0
6, 622080, Note_on_c, 4, 77, 108
6, 622080, Note_on_c, 4, 50, 97
6, 622080, Note_on_c, 4, 62, 97
6, 622189, Note_on_c, 4, 77, 0
6, 622189, Note_on_c, 4, 70, 62
6, 622309, Note_on_c, 4, 70, 0
6, 622309, Note_on_c, 4, 77, 107
6, 622429, Note_on_c, 4, 77, 0
6, 622429, Note_on_c, 4, 70, 54
6, 622553, Note_on_c, 4, 70, 0
6, 622553, Note_on_c, 4, 62, 0
6, 622553, Note_on_c, 4, 50, 0
6, 622553, Note_on_c, 4, 78, 114
6, 622553, Note_on_c, 4, 51, 98
6, 622553, Note_on_c, 4, 63, 98
6, 622673, Note_on_c, 4, 78, 0
6, 622673, Note_on_c, 4, 70, 64
6, 622793, Note_on_c, 4, 70, 0
6, 622793, Note_on_c, 4, 78, 117
6, 622920, Note_on_c, 4, 78, 0
6, 622920, Note_on_c, 4, 70, 58
6, 623040, Note_on_c, 4, 70, 0
6, 623040, Note_on_c, 4, 63, 0
6, 623040, Note_on_c, 4, 51, 0
6, 623040, Note_on_c, 4, 79, 118
6, 623040, Note_on_c, 4, 52, 85
6, 623040, Note_on_c, 4, 64, 85
6, 623160, Note_on_c, 4, 79, 0
6, 623160, Note_on_c, 4, 70, 52
6, 623280, Note_on_c, 4, 70, 0
6, 623280, Note_on_c, 4, 79, 120
6, 623400, Note_on_c, 4, 79, 0
6, 623400, Note_on_c, 4, 70, 55
6, 623520, Note_on_c, 4, 70, 0
6, 623520, Note_on_c, 4, 64, 0
6, 623520, Note_on_c, 4, 52, 0
6, 623520, Note_on_c, 4, 80, 121
6, 623520, Note_on_c, 4, 53, 96
6, 623520, Note_on_c, 4, 65, 96
6, 623640, Note_on_c, 4, 80, 0
6, 623640, Note_on_c, 4, 70, 60
6, 623760, Note_on_c, 4, 70, 0
6, 623760, Note_on_c, 4, 80, 115
6, 623873, Note_on_c, 4, 80, 0
6, 623873, Note_on_c, 4, 70, 60
6, 624000, Note_on_c, 4, 70, 0
6, 624000, Note_on_c, 4, 65, 0
6, 624000, Note_on_c, 4, 53, 0
6, 624000, Note_on_c, 4, 81, 115
6, 624000, Note_on_c, 4, 54, 90
6, 624000, Note_on_c, 4, 66, 90
6, 624113, Note_on_c, 4, 81, 0
6, 624113, Note_on_c, 4, 70, 61
6, 624233, Note_on_c, 4, 70, 0
6, 624233, Note_on_c, 4, 81, 115
6, 624353, Note_on_c, 4, 81, 0
6, 624353, Note_on_c, 4, 70, 62
6, 624473, Note_on_c, 4, 70, 0
6, 624473, Note_on_c, 4, 66, 0
6, 624473, Note_on_c, 4, 54, 0
6, 624473, Note_on_c, 4, 82, 118
6, 624473, Note_on_c, 4, 55, 92
6, 624473, Note_on_c, 4, 67, 92
6, 624593, Note_on_c, 4, 82, 0
6, 624593, Note_on_c, 4, 70, 52
6, 624720, Note_on_c, 4, 70, 0
6, 624720, Note_on_c, 4, 82, 121
6, 624840, Note_on_c, 4, 82, 0
6, 624840, Note_on_c, 4, 70, 60
6, 624960, Note_on_c, 4, 70, 0
6, 624960, Note_on_c, 4, 67, 0
6, 624960, Note_on_c, 4, 55, 0
6, 624960, Note_on_c, 4, 81, 111
6, 624960, Note_on_c, 4, 54, 69
6, 624960, Note_on_c, 4, 66, 69
6, 625080, Note_on_c, 4, 81, 0
6, 625080, Note_on_c, 4, 70, 63
6, 625200, Note_on_c, 4, 70, 0
6, 625200, Note_on_c, 4, 81, 119
6, 625320, Note_on_c, 4, 81, 0
6, 625320, Note_on_c, 4, 70, 57
6, 625440, Note_on_c, 4, 70, 0
6, 625440, Note_on_c, 4, 66, 0
6, 625440, Note_on_c, 4, 54, 0
6, 625440, Note_on_c, 4, 80, 110
6, 625440, Note_on_c, 4, 53, 70
6, 625440, Note_on_c, 4, 65, 70
6, 625553, Note_on_c, 4, 80, 0
6, 625553, Note_on_c, 4, 70, 57
6, 625680, Note_on_c, 4, 70, 0
6, 625680, Note_on_c, 4, 80, 110
6, 625789, Note_on_c, 4, 80, 0
6, 625789, Note_on_c, 4, 70, 61
6, 625920, Note_on_c, 4, 70, 0
6, 625920, Note_on_c, 4, 65, 0
6, 625920, Note_on_c, 4, 53, 0
6, 625920, Note_on_c, 4, 78, 108
6, 625920, Note_on_c, 4, 51, 73
6, 625920, Note_on_c, 4, 63, 73
6, 626029, Note_on_c, 4, 78, 0
6, 626029, Note_on_c, 4, 79, 104
6, 626153, Note_on_c, 4, 79, 0
6, 626153, Note_on_c, 4, 82, 101
6, 626273, Note_on_c, 4, 82, 0
6, 626273, Note_on_c, 4, 79, 72
6, 626393, Note_on_c, 4, 79, 0
6, 626393, Note_on_c, 4, 63, 0
6, 626393, Note_on_c, 4, 51, 0
6, 626393, Note_on_c, 4, 74, 56
6, 626513, Note_on_c, 4, 74, 0
6, 626513, Note_on_c, 4, 75, 86
6, 626633, Note_on_c, 4, 75, 0
6, 626633, Note_on_c, 4, 79, 103
6, 626753, Note_on_c, 4, 79, 0
6, 626753, Note_on_c, 4, 75, 67
6, 626873, Note_on_c, 4, 75, 0
6, 626873, Note_on_c, 4, 69, 60
6, 626993, Note_on_c, 4, 69, 0
6, 626993, Note_on_c, 4, 70, 83
6, 627113, Note_on_c, 4, 70, 0
6, 627113, Note_on_c, 4, 75, 106
6, 627233, Note_on_c, 4, 75, 0
6, 627233, Note_on_c, 4, 70, 67
6, 627353, Note_on_c, 4, 70, 0
6, 627353, Note_on_c, 4, 66, 61
6, 627473, Note_on_c, 4, 66, 0
6, 627473, Note_on_c, 4, 67, 81
6, 627593, Note_on_c, 4, 67, 0
6, 627593, Note_on_c, 4, 70, 90
6, 627709, Note_on_c, 4, 70, 0
6, 627709, Note_on_c, 4, 67, 79
6, 627840, Note_on_c, 4, 67, 0
6, 627840, Note_on_c, 4, 62, 61
6, 627953, Note_on_c, 4, 62, 0
6, 627953, Note_on_c, 4, 63, 85
6, 628073, Note_on_c, 4, 63, 0
6, 628073, Note_on_c, 4, 67, 101
6, 628193, Note_on_c, 4, 67, 0
6, 628193, Note_on_c, 4, 63, 64
6, 628313, Note_on_c, 4, 63, 0
6, 628313, Note_on_c, 4, 57, 76
6, 628433, Note_on_c, 4, 57, 0
6, 628433, Note_on_c, 4, 58, 83
6, 628560, Note_on_c, 4, 58, 0
6, 628560, Note_on_c, 4, 63, 99
6, 628680, Note_on_c, 4, 63, 0
6, 628680, Note_on_c, 4, 58, 79
6, 628800, Note_on_c, 4, 58, 0
6, 628800, Note_on_c, 4, 54, 76
6, 628920, Note_on_c, 4, 54, 0
6, 628920, Note_on_c, 4, 55, 86
6, 629040, Note_on_c, 4, 55, 0
6, 629040, Note_on_c, 4, 58, 83
6, 629160, Note_on_c, 4, 58, 0
6, 629160, Note_on_c, 4, 55, 84
6, 629280, Note_on_c, 4, 55, 0
6, 629280, Note_on_c, 4, 50, 80
6, 629400, Note_on_c, 4, 50, 0
6, 629400, Note_on_c, 4, 51, 81
6, 629513, Note_on_c, 4, 51, 0
6, 629513, Note_on_c, 4, 55, 92
6, 629633, Note_on_c, 4, 55, 0
6, 629633, Note_on_c, 4, 51, 80
6, 629760, Note_on_c, 4, 51, 0
6, 629760, Control_c, 4, 64, 127
6, 629760, Note_on_c, 4, 40, 104
6, 629914, Note_on_c, 4, 52, 71
6, 630074, Note_on_c, 4, 52, 0
6, 630074, Note_on_c, 4, 55, 84
6, 630236, Note_on_c, 4, 55, 0
6, 630236, Note_on_c, 4, 40, 0
6, 630236, Note_on_c, 4, 58, 74
6, 630394, Note_on_c, 4, 58, 0
6, 630394, Note_on_c, 4, 61, 94
6, 630554, Note_on_c, 4, 61, 0
6, 630554, Note_on_c, 4, 64, 103
6, 630720, Note_on_c, 4, 64, 0
6, 630720, Note_on_c, 4, 67, 99
6, 630878, Note_on_c, 4, 67, 0
6, 630878, Note_on_c, 4, 70, 105
6, 631038, Note_on_c, 4, 70, 0
6, 631038, Note_on_c, 4, 73, 106
6, 631205, Note_on_c, 4, 73, 0
6, 631205, Note_on_c, 4, 76, 109
6, 631364, Note_on_c, 4, 76, 0
6, 631364, Note_on_c, 4, 79, 95
6, 631528, Note_on_c, 4, 79, 0
6, 631528, Note_on_c, 4, 82, 101
6, 631680, Note_on_c, 4, 82, 0
6, 631685, Note_on_c, 4, 85, 104
6, 631848, Note_on_c, 4, 85, 0
6, 631848, Note_on_c, 4, 82, 69
6, 632008, Note_on_c, 4, 82, 0
6, 632008, Note_on_c, 4, 79, 67
6, 632169, Note_on_c, 4, 79, 0
6, 632169, Note_on_c, 4, 76, 67
6, 632324, Note_on_c, 4, 76, 0
6, 632324, Note_on_c, 4, 73, 63
6, 632484, Note_on_c, 4, 73, 0
6, 632484, Note_on_c, 4, 70, 66
6, 632641, Note_on_c, 4, 70, 0
6, 632641, Note_on_c, 4, 67, 70
6, 632798, Note_on_c, 4, 67, 0
6, 632798, Note_on_c, 4, 64, 69
6, 632954, Note_on_c, 4, 64, 0
6, 632954, Note_on_c, 4, 61, 59
6, 633112, Note_on_c, 4, 61, 0
6, 633112, Note_on_c, 4, 58, 78
6, 633268, Note_on_c, 4, 58, 0
6, 633268, Note_on_c, 4, 55, 74
6, 633425, Note_on_c, 4, 55, 0
6, 633425, Note_on_c, 4, 52, 77
6, 633600, Note_on_c, 4, 52, 0
6, 633600, Control_c, 4, 64, 0
6, 633600, Note_on_c, 4, 29, 124
6, 633600, Note_on_c, 4, 41, 124
6, 633713, Note_on_c, 4, 53, 65
6, 633833, Note_on_c, 4, 53, 0
6, 633833, Note_on_c, 4, 55, 89
6, 633953, Note_on_c, 4, 55, 0
6, 633953, Note_on_c, 4, 57, 92
6, 634073, Note_on_c, 4, 57, 0
6, 634073, Note_on_c, 4, 41, 0
6, 634073, Note_on_c, 4, 29, 0
6, 634073, Note_on_c, 4, 58, 84
6, 634193, Note_on_c, 4, 58, 0
6, 634193, Note_on_c, 4, 60, 78
6, 634316, Note_on_c, 4, 60, 0
6, 634316, Note_on_c, 4, 62, 89
6, 634436, Note_on_c, 4, 62, 0
6, 634436, Note_on_c, 4, 64, 89
6, 634556, Note_on_c, 4, 64, 0
6, 634556, Note_on_c, 4, 65, 96
6, 634680, Note_on_c, 4, 65, 0
6, 634680, Note_on_c, 4, 64, 71
6, 634800, Note_on_c, 4, 64, 0
6, 634800, Note_on_c, 4, 65, 86
6, 634920, Note_on_c, 4, 65, 0
6, 634920, Note_on_c, 4, 64, 85
6, 635040, Note_on_c, 4, 64, 0
6, 635040, Note_on_c, 4, 65, 87
6, 635160, Note_on_c, 4, 65, 0
6, 635160, Note_on_c, 4, 64, 76
6, 635280, Note_on_c, 4, 64, 0
6, 635280, Note_on_c, 4, 65, 88
6, 635400, Note_on_c, 4, 65, 0
6, 635400, Note_on_c, 4, 64, 81
6, 635520, Note_on_c, 4, 64, 0
6, 635520, Note_on_c, 4, 65, 92
6, 635760, Note_on_c, 4, 65, 0
6, 635760, Note_on_c, 4, 67, 92
6, 635880, Note_on_c, 4, 67, 0
6, 635880, Note_on_c, 4, 69, 97
6, 636000, Note_on_c, 4, 69, 0
6, 636000, Note_on_c, 4, 70, 92
6, 636120, Note_on_c, 4, 70, 0
6, 636120, Note_on_c, 4, 72, 95
6, 636240, Note_on_c, 4, 72, 0
6, 636240, Note_on_c, 4, 74, 104
6, 636360, Note_on_c, 4, 74, 0
6, 636360, Note_on_c, 4, 76, 101
6, 636480, Note_on_c, 4, 76, 0
6, 636480, Note_on_c, 4, 77, 93
6, 636600, Note_on_c, 4, 77, 0
6, 636600, Note_on_c, 4, 76, 74
6, 636720, Note_on_c, 4, 76, 0
6, 636720, Note_on_c, 4, 77, 96
6, 636840, Note_on_c, 4, 77, 0
6, 636840, Note_on_c, 4, 76, 77
6, 636960, Note_on_c, 4, 76, 0
6, 636960, Note_on_c, 4, 77, 92
6, 637080, Note_on_c, 4, 77, 0
6, 637080, Note_on_c, 4, 76, 73
6, 637200, Note_on_c, 4, 76, 0
6, 637200, Note_on_c, 4, 77, 89
6, 637320, Note_on_c, 4, 77, 0
6, 637320, Note_on_c, 4, 76, 76
6, 637440, Note_on_c, 4, 76, 0
6, 637440, Note_on_c, 4, 77, 85
6, 637440, Note_on_c, 4, 53, 73
6, 637440, Note_on_c, 4, 58, 73
6, 637440, Note_on_c, 4, 62, 73
6, 637680, Note_on_c, 4, 77, 0
6, 637680, Note_on_c, 4, 79, 88
6, 637800, Note_on_c, 4, 79, 0
6, 637800, Note_on_c, 4, 81, 97
6, 637920, Note_on_c, 4, 81, 0
6, 637920, Note_on_c, 4, 53, 0
6, 637920, Note_on_c, 4, 58, 0
6, 637920, Note_on_c, 4, 62, 0
6, 637920, Note_on_c, 4, 82, 97
6, 638040, Note_on_c, 4, 82, 0
6, 638040, Note_on_c, 4, 84, 103
6, 638160, Note_on_c, 4, 84, 0
6, 638160, Note_on_c, 4, 86, 97
6, 638281, Note_on_c, 4, 86, 0
6, 638281, Note_on_c, 4, 88, 90
6, 638401, Note_on_c, 4, 88, 0
6, 638401, Note_on_c, 4, 89, 92
6, 638522, Note_on_c, 4, 89, 0
6, 638522, Note_on_c, 4, 88, 83
6, 638642, Note_on_c, 4, 88, 0
6, 638642, Note_on_c, 4, 89, 81
6, 638762, Note_on_c, 4, 89, 0
6, 638762, Note_on_c, 4, 88, 74
6, 638882, Note_on_c, 4, 88, 0
6, 638882, Note_on_c, 4, 89, 97
6, 639002, Note_on_c, 4, 89, 0
6, 639002, Note_on_c, 4, 88, 72
6, 639122, Note_on_c, 4, 88, 0
6, 639122, Note_on_c, 4, 89, 90
6, 639242, Note_on_c, 4, 89, 0
6, 639242, Note_on_c, 4, 88, 71
6, 639360, Note_on_c, 4, 88, 0
6, 639365, Note_on_c, 4, 89, 90
6, 639365, Note_on_c, 4, 62, 76
6, 639365, Note_on_c, 4, 65, 76
6, 639365, Note_on_c, 4, 70, 76
6, 639605, Note_on_c, 4, 89, 0
6, 639605, Note_on_c, 4, 85, 63
6, 639725, Note_on_c, 4, 85, 0
6, 639725, Note_on_c, 4, 87, 90
6, 639845, Note_on_c, 4, 87, 0
6, 639845, Note_on_c, 4, 62, 0
6, 639845, Note_on_c, 4, 65, 0
6, 639845, Note_on_c, 4, 70, 0
6, 639845, Note_on_c, 4, 86, 71
6, 639962, Note_on_c, 4, 86, 0
6, 640085, Note_on_c, 4, 81, 67
6, 640201, Note_on_c, 4, 81, 0
6, 640201, Note_on_c, 4, 84, 85
6, 640321, Note_on_c, 4, 84, 0
6, 640321, Note_on_c, 4, 82, 77
6, 640440, Note_on_c, 4, 82, 0
6, 640560, Note_on_c, 4, 76, 55
6, 640676, Note_on_c, 4, 76, 0
6, 640676, Note_on_c, 4, 79, 94
6, 640792, Note_on_c, 4, 79, 0
6, 640792, Note_on_c, 4, 77, 76
6, 640909, Note_on_c, 4, 77, 0
6, 641026, Note_on_c, 4, 73, 61
6, 641144, Note_on_c, 4, 73, 0
6, 641144, Note_on_c, 4, 75, 86
6, 641280, Note_on_c, 4, 75, 0
6, 641280, Note_on_c, 4, 74, 77
6, 641430, Note_on_c, 4, 74, 0
6, 641430, Note_on_c, 4, 82, 121
6, 641590, Note_on_c, 4, 82, 0
6, 641590, Note_on_c, 4, 81, 81
6, 641756, Note_on_c, 4, 81, 0
6, 641756, Note_on_c, 4, 80, 73
6, 641914, Note_on_c, 4, 80, 0
6, 641914, Note_on_c, 4, 79, 74
6, 642074, Note_on_c, 4, 79, 0
6, 642074, Note_on_c, 4, 78, 71
6, 642236, Note_on_c, 4, 78, 0
6, 642236, Note_on_c, 4, 77, 77
6, 642394, Note_on_c, 4, 77, 0
6, 642394, Note_on_c, 4, 76, 70
6, 642554, Note_on_c, 4, 76, 0
6, 642554, Note_on_c, 4, 75, 70
6, 642716, Note_on_c, 4, 75, 0
6, 642716, Note_on_c, 4, 74, 78
6, 642874, Note_on_c, 4, 74, 0
6, 642874, Note_on_c, 4, 72, 61
6, 643034, Note_on_c, 4, 72, 0
6, 643034, Note_on_c, 4, 70, 71
6, 643200, Note_on_c, 4, 70, 0
6, 643200, Note_on_c, 4, 72, 92
6, 643200, Control_c, 4, 64, 127
6, 643200, Note_on_c, 4, 53, 65
6, 643256, Note_on_c, 4, 72, 0
6, 643256, Note_on_c, 4, 74, 96
6, 643316, Note_on_c, 4, 74, 0
6, 643316, Note_on_c, 4, 53, 0
6, 643316, Note_on_c, 4, 72, 70
6, 643316, Note_on_c, 4, 63, 103
6, 643376, Note_on_c, 4, 72, 0
6, 643376, Note_on_c, 4, 74, 91
6, 643436, Note_on_c, 4, 74, 0
6, 643436, Note_on_c, 4, 63, 0
6, 643436, Note_on_c, 4, 72, 71
6, 643436, Note_on_c, 4, 57, 71
6, 643496, Note_on_c, 4, 72, 0
6, 643496, Note_on_c, 4, 74, 91
6, 643556, Note_on_c, 4, 74, 0
6, 643556, Note_on_c, 4, 57, 0
6, 643556, Note_on_c, 4, 72, 76
6, 643556, Note_on_c, 4, 63, 99
6, 643616, Note_on_c, 4, 72, 0
6, 643616, Note_on_c, 4, 74, 96
6, 643676, Note_on_c, 4, 74, 0
6, 643676, Note_on_c, 4, 63, 0
6, 643676, Note_on_c, 4, 72, 83
6, 643676, Note_on_c, 4, 53, 55
6, 643736, Note_on_c, 4, 72, 0
6, 643736, Note_on_c, 4, 74, 89
6, 643796, Note_on_c, 4, 74, 0
6, 643796, Note_on_c, 4, 53, 0
6, 643796, Note_on_c, 4, 72, 76
6, 643796, Note_on_c, 4, 63, 99
6, 643856, Note_on_c, 4, 72, 0
6, 643856, Note_on_c, 4, 74, 93
6, 643916, Note_on_c, 4, 74, 0
6, 643916, Note_on_c, 4, 63, 0
6, 643916, Note_on_c, 4, 72, 84
6, 643916, Note_on_c, 4, 57, 60
6, 643976, Note_on_c, 4, 72, 0
6, 643976, Note_on_c, 4, 74, 87
6, 644040, Note_on_c, 4, 74, 0
6, 644040, Note_on_c, 4, 57, 0
6, 644040, Note_on_c, 4, 72, 72
6, 644040, Note_on_c, 4, 63, 95
6, 644100, Note_on_c, 4, 72, 0
6, 644100, Note_on_c, 4, 74, 89
6, 644160, Note_on_c, 4, 74, 0
6, 644160, Note_on_c, 4, 63, 0
6, 644160, Note_on_c, 4, 72, 70
6, 644160, Note_on_c, 4, 53, 60
6, 644220, Note_on_c, 4, 72, 0
6, 644220, Note_on_c, 4, 74, 94
6, 644280, Note_on_c, 4, 74, 0
6, 644280, Note_on_c, 4, 53, 0
6, 644280, Note_on_c, 4, 72, 73
6, 644280, Note_on_c, 4, 63, 92
6, 644340, Note_on_c, 4, 72, 0
6, 644340, Note_on_c, 4, 74, 93
6, 644400, Note_on_c, 4, 74, 0
6, 644400, Note_on_c, 4, 63, 0
6, 644400, Note_on_c, 4, 72, 73
6, 644400, Note_on_c, 4, 57, 63
6, 644460, Note_on_c, 4, 72, 0
6, 644460, Note_on_c, 4, 74, 93
6, 644520, Note_on_c, 4, 74, 0
6, 644520, Note_on_c, 4, 57, 0
6, 644520, Note_on_c, 4, 72, 72
6, 644520, Note_on_c, 4, 63, 92
6, 644580, Note_on_c, 4, 72, 0
6, 644580, Note_on_c, 4, 74, 92
6, 644640, Note_on_c, 4, 74, 0
6, 644640, Note_on_c, 4, 63, 0
6, 644640, Note_on_c, 4, 72, 75
6, 644640, Note_on_c, 4, 53, 55
6, 644700, Note_on_c, 4, 72, 0
6, 644700, Note_on_c, 4, 74, 92
6, 644760, Note_on_c, 4, 74, 0
6, 644760, Note_on_c, 4, 53, 0
6, 644760, Note_on_c, 4, 72, 74
6, 644760, Note_on_c, 4, 63, 98
6, 644820, Note_on_c, 4, 72, 0
6, 644820, Note_on_c, 4, 74, 90
6, 644880, Note_on_c, 4, 74, 0
6, 644880, Note_on_c, 4, 63, 0
6, 644880, Note_on_c, 4, 70, 65
6, 644880, Note_on_c, 4, 57, 61
6, 645000, Note_on_c, 4, 57, 0
6, 645000, Note_on_c, 4, 70, 0
6, 645000, Note_on_c, 4, 72, 100
6, 645000, Note_on_c, 4, 63, 94
6, 645120, Note_on_c, 4, 63, 0
6, 645120, Note_on_c, 4, 72, 0
6, 645120, Note_on_c, 4, 74, 89
6, 645120, Control_c, 4, 64, 0
6, 645120, Note_on_c, 4, 58, 71
6, 645120, Note_on_c, 4, 62, 71
6, 645600, Note_on_c, 4, 62, 0
6, 645600, Note_on_c, 4, 58, 0
6, 645600, Note_on_c, 4, 74, 0
6, 666240, Note_on_c, 4, 70, 72
6, 666240, Control_c, 4, 64, 127
6, 666240, Note_on_c, 4, 53, 75
6, 666240, Note_on_c, 4, 58, 75
6, 666240, Note_on_c, 4, 62, 75
6, 666300, Note_on_c, 4, 70, 0
6, 666300, Note_on_c, 4, 72, 90
6, 666360, Note_on_c, 4, 72, 0
6, 666360, Note_on_c, 4, 70, 80
6, 666420, Note_on_c, 4, 70, 0
6, 666420, Note_on_c, 4, 72, 98
6, 666480, Note_on_c, 4, 72, 0
6, 666480, Note_on_c, 4, 70, 80
6, 666540, Note_on_c, 4, 70, 0
6, 666540, Note_on_c, 4, 72, 94
6, 666600, Note_on_c, 4, 72, 0
6, 666600, Note_on_c, 4, 70, 72
6, 666660, Note_on_c, 4, 70, 0
6, 666660, Note_on_c, 4, 72, 98
6, 666720, Note_on_c, 4, 72, 0
6, 666720, Note_on_c, 4, 70, 75
6, 666780, Note_on_c, 4, 70, 0
6, 666780, Note_on_c, 4, 72, 91
6, 666837, Note_on_c, 4, 72, 0
6, 666837, Note_on_c, 4, 70, 79
6, 666897, Note_on_c, 4, 70, 0
6, 666897, Note_on_c, 4, 72, 90
6, 666956, Note_on_c, 4, 72, 0
6, 666956, Note_on_c, 4, 70, 83
6, 667016, Note_on_c, 4, 70, 0
6, 667016, Note_on_c, 4, 72, 85
6, 667076, Note_on_c, 4, 72, 0
6, 667076, Note_on_c, 4, 70, 81
6, 667136, Note_on_c, 4, 70, 0
6, 667136, Note_on_c, 4, 72, 90
6, 667196, Note_on_c, 4, 72, 0
6, 667196, Note_on_c, 4, 62, 0
6, 667196, Note_on_c, 4, 58, 0
6, 667196, Note_on_c, 4, 53, 0
6, 667196, Note_on_c, 4, 69, 76
6, 667316, Note_on_c, 4, 69, 0
6, 667316, Note_on_c, 4, 70, 89
6, 667561, Note_on_c, 4, 70, 0
6, 667561, Note_on_c, 4, 72, 96
6, 667621, Note_on_c, 4, 72, 0
6, 667621, Note_on_c, 4, 74, 94
6, 667690, Note_on_c, 4, 74, 0
6, 667690, Note_on_c, 4, 75, 97
6, 667750, Note_on_c, 4, 75, 0
6, 667750, Note_on_c, 4, 77, 91
6, 667814, Note_on_c, 4, 77, 0
6, 667814, Note_on_c, 4, 79, 92
6, 667874, Note_on_c, 4, 79, 0
6, 667874, Note_on_c, 4, 81, 92
6, 667941, Note_on_c, 4, 81, 0
6, 667941, Note_on_c, 4, 82, 96
6, 668001, Note_on_c, 4, 82, 0
6, 668001, Note_on_c, 4, 84, 99
6, 668069, Note_on_c, 4, 84, 0
6, 668069, Note_on_c, 4, 86, 92
6, 668129, Note_on_c, 4, 86, 0
6, 668129, Note_on_c, 4, 87, 89
6, 668160, Note_on_c, 4, 87, 0
6, 668176, Note_on_c, 4, 89, 97
6, 668176, Control_c, 4, 64, 0
6, 668294, Note_on_c, 4, 89, 0
6, 668414, Note_on_c, 4, 82, 65
6, 668532, Note_on_c, 4, 82, 0
6, 668650, Note_on_c, 4, 82, 81
6, 668710, Note_on_c, 4, 82, 0
6, 668710, Note_on_c, 4, 84, 95
6, 668770, Note_on_c, 4, 84, 0
6, 668770, Note_on_c, 4, 82, 69
6, 668830, Note_on_c, 4, 82, 0
6, 668830, Note_on_c, 4, 84, 95
6, 668890, Note_on_c, 4, 84, 0
6, 668890, Note_on_c, 4, 81, 74
6, 669009, Note_on_c, 4, 81, 0
6, 669009, Note_on_c, 4, 82, 90
6, 669126, Note_on_c, 4, 82, 0
6, 669126, Note_on_c, 4, 86, 96
6, 669245, Note_on_c, 4, 86, 0
6, 669361, Note_on_c, 4, 77, 53
6, 669480, Note_on_c, 4, 77, 0
6, 669597, Note_on_c, 4, 77, 79
6, 669657, Note_on_c, 4, 77, 0
6, 669657, Note_on_c, 4, 79, 93
6, 669716, Note_on_c, 4, 79, 0
6, 669716, Note_on_c, 4, 77, 75
6, 669776, Note_on_c, 4, 77, 0
6, 669776, Note_on_c, 4, 79, 97
6, 669833, Note_on_c, 4, 79, 0
6, 669833, Note_on_c, 4, 76, 67
6, 669952, Note_on_c, 4, 76, 0
6, 669952, Note_on_c, 4, 77, 92
6, 670080, Note_on_c, 4, 77, 0
6, 670080, Note_on_c, 4, 82, 108
6, 670193, Note_on_c, 4, 82, 0
6, 670317, Note_on_c, 4, 74, 65
6, 670436, Note_on_c, 4, 74, 0
6, 670557, Note_on_c, 4, 74, 78
6, 670617, Note_on_c, 4, 74, 0
6, 670617, Note_on_c, 4, 75, 89
6, 670677, Note_on_c, 4, 75, 0
6, 670677, Note_on_c, 4, 74, 74
6, 670737, Note_on_c, 4, 74, 0
6, 670737, Note_on_c, 4, 75, 82
6, 670797, Note_on_c, 4, 75, 0
6, 670797, Note_on_c, 4, 73, 77
6, 670917, Note_on_c, 4, 73, 0
6, 670917, Note_on_c, 4, 74, 98
6, 671037, Note_on_c, 4, 74, 0
6, 671037, Note_on_c, 4, 77, 105
6, 671156, Note_on_c, 4, 77, 0
6, 671277, Note_on_c, 4, 70, 57
6, 671396, Note_on_c, 4, 70, 0
6, 671516, Note_on_c, 4, 70, 82
6, 671576, Note_on_c, 4, 70, 0
6, 671576, Note_on_c, 4, 72, 92
6, 671633, Note_on_c, 4, 72, 0
6, 671633, Note_on_c, 4, 70, 75
6, 671693, Note_on_c, 4, 70, 0
6, 671693, Note_on_c, 4, 72, 94
6, 671753, Note_on_c, 4, 72, 0
6, 671753, Note_on_c, 4, 69, 70
6, 671873, Note_on_c, 4, 69, 0
6, 671873, Note_on_c, 4, 70, 94
6, 672000, Note_on_c, 4, 70, 0
6, 672000, Note_on_c, 4, 74, 102
6, 672000, Note_on_c, 4, 62, 77
6, 672116, Note_on_c, 4, 62, 0
6, 672116, Note_on_c, 4, 74, 0
6, 672237, Note_on_c, 4, 65, 58
6, 672237, Note_on_c, 4, 53, 61
6, 672356, Note_on_c, 4, 53, 0
6, 672356, Note_on_c, 4, 65, 0
6, 672477, Note_on_c, 4, 65, 70
6, 672477, Note_on_c, 4, 53, 78
6, 672537, Note_on_c, 4, 53, 0
6, 672537, Note_on_c, 4, 65, 0
6, 672537, Note_on_c, 4, 67, 93
6, 672537, Note_on_c, 4, 55, 89
6, 672597, Note_on_c, 4, 55, 0
6, 672597, Note_on_c, 4, 67, 0
6, 672597, Note_on_c, 4, 65, 78
6, 672597, Note_on_c, 4, 53, 74
6, 672657, Note_on_c, 4, 53, 0
6, 672657, Note_on_c, 4, 65, 0
6, 672657, Note_on_c, 4, 67, 90
6, 672657, Note_on_c, 4, 55, 94
6, 672720, Note_on_c, 4, 55, 0
6, 672720, Note_on_c, 4, 67, 0
6, 672720, Note_on_c, 4, 64, 70
6, 672720, Note_on_c, 4, 52, 89
6, 672837, Note_on_c, 4, 52, 0
6, 672837, Note_on_c, 4, 64, 0
6, 672837, Note_on_c, 4, 65, 84
6, 672837, Note_on_c, 4, 53, 85
6, 672957, Note_on_c, 4, 53, 0
6, 672957, Note_on_c, 4, 65, 0
6, 672957, Note_on_c, 4, 70, 111
6, 672957, Note_on_c, 4, 58, 89
6, 673076, Note_on_c, 4, 58, 0
6, 673076, Note_on_c, 4, 70, 0
6, 673197, Note_on_c, 4, 62, 65
6, 673197, Note_on_c, 4, 50, 68
6, 673316, Note_on_c, 4, 50, 0
6, 673316, Note_on_c, 4, 62, 0
6, 673436, Note_on_c, 4, 62, 74
6, 673436, Note_on_c, 4, 50, 76
6, 673496, Note_on_c, 4, 50, 0
6, 673496, Note_on_c, 4, 62, 0
6, 673496, Note_on_c, 4, 63, 88
6, 673496, Note_on_c, 4, 51, 87
6, 673556, Note_on_c, 4, 51, 0
6, 673556, Note_on_c, 4, 63, 0
6, 673556, Note_on_c, 4, 62, 79
6, 673556, Note_on_c, 4, 50, 82
6, 673616, Note_on_c, 4, 50, 0
6, 673616, Note_on_c, 4, 62, 0
6, 673616, Note_on_c, 4, 63, 92
6, 673616, Note_on_c, 4, 51, 85
6, 673676, Note_on_c, 4, 51, 0
6, 673676, Note_on_c, 4, 63, 0
6, 673676, Note_on_c, 4, 61, 83
6, 673676, Note_on_c, 4, 49, 84
6, 673796, Note_on_c, 4, 49, 0
6, 673796, Note_on_c, 4, 61, 0
6, 673796, Note_on_c, 4, 62, 90
6, 673796, Note_on_c, 4, 50, 84
6, 673920, Note_on_c, 4, 50, 0
6, 673920, Note_on_c, 4, 62, 0
6, 673920, Note_on_c, 4, 65, 95
6, 673920, Note_on_c, 4, 53, 86
6, 674036, Note_on_c, 4, 53, 0
6, 674036, Note_on_c, 4, 65, 0
6, 674157, Note_on_c, 4, 58, 71
6, 674157, Note_on_c, 4, 46, 69
6, 674276, Note_on_c, 4, 46, 0
6, 674276, Note_on_c, 4, 58, 0
6, 674400, Note_on_c, 4, 58, 80
6, 674400, Note_on_c, 4, 46, 81
6, 674460, Note_on_c, 4, 46, 0
6, 674460, Note_on_c, 4, 58, 0
6, 674460, Note_on_c, 4, 60, 100
6, 674460, Note_on_c, 4, 48, 87
6, 674520, Note_on_c, 4, 48, 0
6, 674520, Note_on_c, 4, 60, 0
6, 674520, Note_on_c, 4, 58, 73
6, 674520, Note_on_c, 4, 46, 82
6, 674580, Note_on_c, 4, 46, 0
6, 674580, Note_on_c, 4, 58, 0
6, 674580, Note_on_c, 4, 60, 94
6, 674580, Note_on_c, 4, 48, 88
6, 674640, Note_on_c, 4, 48, 0
6, 674640, Note_on_c, 4, 60, 0
6, 674640, Note_on_c, 4, 57, 80
6, 674640, Note_on_c, 4, 45, 83
6, 674760, Note_on_c, 4, 45, 0
6, 674760, Note_on_c, 4, 57, 0
6, 674760, Note_on_c, 4, 58, 90
6, 674760, Note_on_c, 4, 46, 85
6, 674880, Note_on_c, 4, 46, 0
6, 674880, Note_on_c, 4, 58, 0
6, 674880, Note_on_c, 4, 62, 101
6, 674880, Note_on_c, 4, 50, 98
6, 674997, Note_on_c, 4, 50, 0
6, 674997, Note_on_c, 4, 62, 0
6, 675116, Note_on_c, 4, 53, 69
6, 675116, Note_on_c, 4, 41, 70
6, 675233, Note_on_c, 4, 41, 0
6, 675233, Note_on_c, 4, 53, 0
6, 675353, Note_on_c, 4, 53, 84
6, 675353, Note_on_c, 4, 41, 82
6, 675413, Note_on_c, 4, 41, 0
6, 675413, Note_on_c, 4, 53, 0
6, 675413, Note_on_c, 4, 55, 83
6, 675413, Note_on_c, 4, 43, 84
6, 675473, Note_on_c, 4, 43, 0
6, 675473, Note_on_c, 4, 55, 0
6, 675473, Note_on_c, 4, 53, 76
6, 675473, Note_on_c, 4, 41, 82
6, 675533, Note_on_c, 4, 41, 0
6, 675533, Note_on_c, 4, 53, 0
6, 675533, Note_on_c, 4, 55, 85
6, 675533, Note_on_c, 4, 43, 86
6, 675593, Note_on_c, 4, 43, 0
6, 675593, Note_on_c, 4, 55, 0
6, 675593, Note_on_c, 4, 52, 80
6, 675593, Note_on_c, 4, 40, 79
6, 675713, Note_on_c, 4, 40, 0
6, 675713, Note_on_c, 4, 52, 0
6, 675713, Note_on_c, 4, 53, 86
6, 675713, Note_on_c, 4, 41, 82
6, 675840, Note_on_c, 4, 41, 0
6, 675840, Note_on_c, 4, 53, 0
6, 675840, Note_on_c, 4, 52, 78
6, 675840, Control_c, 4, 64, 127
6, 675953, Note_on_c, 4, 52, 0
6, 676073, Note_on_c, 4, 40, 72
6, 676193, Note_on_c, 4, 40, 0
6, 676193, Note_on_c, 4, 43, 85
6, 676313, Note_on_c, 4, 43, 0
6, 676313, Note_on_c, 4, 46, 95
6, 676433, Note_on_c, 4, 46, 0
6, 676433, Note_on_c, 4, 48, 87
6, 676553, Note_on_c, 4, 48, 0
6, 676553, Note_on_c, 4, 52, 93
6, 676676, Note_on_c, 4, 52, 0
6, 676676, Note_on_c, 4, 53, 90
6, 676800, Note_on_c, 4, 53, 0
6, 676800, Note_on_c, 4, 55, 93
6, 676920, Note_on_c, 4, 55, 0
6, 676920, Note_on_c, 4, 57, 95
6, 677041, Note_on_c, 4, 57, 0
6, 677041, Note_on_c, 4, 58, 87
6, 677162, Note_on_c, 4, 58, 0
6, 677162, Note_on_c, 4, 60, 90
6, 677285, Note_on_c, 4, 60, 0
6, 677285, Note_on_c, 4, 62, 96
6, 677406, Note_on_c, 4, 62, 0
6, 677406, Control_c, 4, 64, 0
6, 677406, Note_on_c, 4, 64, 97
6, 677529, Note_on_c, 4, 64, 0
6, 677529, Note_on_c, 4, 65, 99
6, 677650, Note_on_c, 4, 65, 0
6, 677650, Note_on_c, 4, 67, 101
6, 677760, Note_on_c, 4, 67, 0
6, 677766, Note_on_c, 4, 69, 97
6, 677885, Note_on_c, 4, 69, 0
6, 677885, Note_on_c, 4, 70, 100
6, 678005, Note_on_c, 4, 70, 0
6, 678005, Note_on_c, 4, 72, 95
6, 678122, Note_on_c, 4, 72, 0
6, 678122, Note_on_c, 4, 74, 104
6, 678242, Note_on_c, 4, 74, 0
6, 678242, Note_on_c, 4, 76, 99
6, 678365, Note_on_c, 4, 76, 0
6, 678365, Note_on_c, 4, 77, 92
6, 678486, Note_on_c, 4, 77, 0
6, 678486, Note_on_c, 4, 79, 93
6, 678609, Note_on_c, 4, 79, 0
6, 678609, Note_on_c, 4, 81, 100
6, 678729, Note_on_c, 4, 81, 0
6, 678729, Note_on_c, 4, 82, 87
6, 678846, Note_on_c, 4, 82, 0
6, 678846, Note_on_c, 4, 81, 77
6, 678965, Note_on_c, 4, 81, 0
6, 678965, Note_on_c, 4, 79, 72
6, 679081, Note_on_c, 4, 79, 0
6, 679081, Note_on_c, 4, 77, 75
6, 679197, Note_on_c, 4, 77, 0
6, 679197, Note_on_c, 4, 76, 65
6, 679313, Note_on_c, 4, 76, 0
6, 679313, Note_on_c, 4, 74, 74
6, 679429, Note_on_c, 4, 74, 0
6, 679429, Note_on_c, 4, 72, 63
6, 679546, Note_on_c, 4, 72, 0
6, 679546, Note_on_c, 4, 70, 68
6, 679680, Note_on_c, 4, 70, 0
6, 679680, Note_on_c, 4, 69, 77
6, 679796, Note_on_c, 4, 69, 0
6, 679796, Note_on_c, 4, 70, 90
6, 679916, Note_on_c, 4, 70, 0
6, 679916, Note_on_c, 4, 72, 87
6, 680036, Note_on_c, 4, 72, 0
6, 680036, Note_on_c, 4, 70, 74
6, 680156, Note_on_c, 4, 70, 0
6, 680156, Note_on_c, 4, 69, 69
6, 680276, Note_on_c, 4, 69, 0
6, 680276, Note_on_c, 4, 75, 108
6, 680393, Note_on_c, 4, 75, 0
6, 680393, Control_c, 4, 64, 127
6, 680393, Note_on_c, 4, 41, 61
6, 680513, Note_on_c, 4, 41, 0
6, 680513, Note_on_c, 4, 45, 86
6, 680632, Note_on_c, 4, 45, 0
6, 680632, Note_on_c, 4, 48, 97
6, 680752, Note_on_c, 4, 48, 0
6, 680752, Note_on_c, 4, 53, 103
6, 680873, Note_on_c, 4, 53, 0
6, 680873, Note_on_c, 4, 57, 93
6, 680997, Note_on_c, 4, 57, 0
6, 680997, Note_on_c, 4, 60, 100
6, 681121, Note_on_c, 4, 60, 0
6, 681121, Note_on_c, 4, 65, 108
6, 681242, Note_on_c, 4, 65, 0
6, 681242, Note_on_c, 4, 69, 113
6, 681366, Note_on_c, 4, 69, 0
6, 681366, Note_on_c, 4, 72, 101
6, 681489, Note_on_c, 4, 72, 0
6, 681489, Note_on_c, 4, 75, 105
6, 681600, Note_on_c, 4, 75, 0
6, 681605, Note_on_c, 4, 77, 92
6, 681725, Note_on_c, 4, 77, 0
6, 681725, Note_on_c, 4, 81, 114
6, 681845, Note_on_c, 4, 81, 0
6, 681845, Note_on_c, 4, 84, 103
6, 681965, Note_on_c, 4, 84, 0
6, 681965, Control_c, 4, 64, 0
6, 681965, Note_on_c, 4, 87, 99
6, 682325, Note_on_c, 4, 87, 0
6, 682325, Note_on_c, 4, 86, 78
6, 682442, Note_on_c, 4, 86, 0
6, 682442, Note_on_c, 4, 84, 73
6, 682562, Note_on_c, 4, 84, 0
6, 682562, Note_on_c, 4, 82, 75
6, 682681, Note_on_c, 4, 82, 0
6, 682681, Note_on_c, 4, 81, 78
6, 682800, Note_on_c, 4, 81, 0
6, 682800, Note_on_c, 4, 79, 74
6, 682917, Note_on_c, 4, 79, 0
6, 682917, Note_on_c, 4, 77, 69
6, 683033, Note_on_c, 4, 77, 0
6, 683033, Note_on_c, 4, 75, 67
6, 683152, Note_on_c, 4, 75, 0
6, 683152, Note_on_c, 4, 74, 67
6, 683269, Note_on_c, 4, 74, 0
6, 683269, Note_on_c, 4, 72, 71
6, 683388, Note_on_c, 4, 72, 0
6, 683388, Note_on_c, 4, 70, 66
6, 683520, Note_on_c, 4, 70, 0
6, 683520, Note_on_c, 4, 69, 71
6, 683633, Note_on_c, 4, 69, 0
6, 683633, Note_on_c, 4, 75, 110
6, 683996, Note_on_c, 4, 75, 0
6, 683996, Note_on_c, 4, 74, 79
6, 684117, Note_on_c, 4, 74, 0
6, 684117, Note_on_c, 4, 72, 75
6, 684237, Note_on_c, 4, 72, 0
6, 684237, Note_on_c, 4, 70, 68
6, 684357, Note_on_c, 4, 70, 0
6, 684357, Note_on_c, 4, 69, 69
6, 684477, Note_on_c, 4, 69, 0
6, 684477, Note_on_c, 4, 67, 73
6, 684596, Note_on_c, 4, 67, 0
6, 684596, Note_on_c, 4, 65, 75
6, 684716, Note_on_c, 4, 65, 0
6, 684716, Note_on_c, 4, 63, 69
6, 684833, Note_on_c, 4, 63, 0
6, 684833, Note_on_c, 4, 62, 80
6, 684953, Note_on_c, 4, 62, 0
6, 684953, Note_on_c, 4, 60, 62
6, 685440, Note_on_c, 4, 60, 0
6, 685440, Note_on_c, 4, 50, 63
6, 685440, Note_on_c, 4, 58, 63
6, 685916, Note_on_c, 4, 58, 0
6, 685916, Note_on_c, 4, 50, 0
6, 685916, Note_on_c, 4, 50, 67
6, 685916, Note_on_c, 4, 58, 67
6, 686277, Note_on_c, 4, 58, 0
6, 686277, Note_on_c, 4, 50, 0
6, 686277, Note_on_c, 4, 50, 66
6, 686277, Note_on_c, 4, 58, 66
6, 686397, Note_on_c, 4, 58, 0
6, 686397, Note_on_c, 4, 50, 0
6, 686397, Note_on_c, 4, 50, 68
6, 686397, Note_on_c, 4, 58, 68
6, 686877, Note_on_c, 4, 58, 0
6, 686877, Note_on_c, 4, 50, 0
6, 686877, Note_on_c, 4, 50, 73
6, 686877, Note_on_c, 4, 58, 73
6, 687360, Note_on_c, 4, 58, 0
6, 687360, Note_on_c, 4, 50, 0
6, 687360, Note_on_c, 4, 60, 78
6, 687360, Note_on_c, 4, 53, 90
6, 687596, Note_on_c, 4, 60, 0
6, 687596, Note_on_c, 4, 57, 70
6, 687840, Note_on_c, 4, 57, 0
6, 687840, Note_on_c, 4, 53, 0
6, 687840, Note_on_c, 4, 82, 65
6, 687840, Note_on_c, 4, 58, 76
6, 687840, Note_on_c, 4, 50, 92
6, 687960, Note_on_c, 4, 82, 0
6, 687960, Note_on_c, 4, 81, 60
6, 688081, Note_on_c, 4, 81, 0
6, 688081, Note_on_c, 4, 82, 76
6, 688202, Note_on_c, 4, 82, 0
6, 688202, Note_on_c, 4, 81, 68
6, 688322, Note_on_c, 4, 81, 0
6, 688322, Note_on_c, 4, 50, 0
6, 688322, Note_on_c, 4, 58, 0
6, 688322, Note_on_c, 4, 84, 73
6, 688442, Note_on_c, 4, 84, 0
6, 688442, Note_on_c, 4, 82, 72
6, 688561, Note_on_c, 4, 82, 0
6, 688561, Note_on_c, 4, 81, 63
6, 688680, Note_on_c, 4, 81, 0
6, 688680, Note_on_c, 4, 79, 62
6, 688797, Note_on_c, 4, 79, 0
6, 688797, Note_on_c, 4, 79, 74
6, 688916, Note_on_c, 4, 79, 0
6, 688916, Note_on_c, 4, 77, 58
6, 689036, Note_on_c, 4, 77, 0
6, 689036, Note_on_c, 4, 75, 64
6, 689153, Note_on_c, 4, 75, 0
6, 689153, Note_on_c, 4, 74, 65
6, 689280, Note_on_c, 4, 74, 0
6, 689280, Note_on_c, 4, 72, 63
6, 689280, Note_on_c, 4, 53, 65
6, 689280, Note_on_c, 4, 60, 65
6, 689756, Note_on_c, 4, 60, 0
6, 689756, Note_on_c, 4, 53, 0
6, 689756, Note_on_c, 4, 72, 0
6, 689756, Note_on_c, 4, 53, 68
6, 689756, Note_on_c, 4, 60, 68
6, 690117, Note_on_c, 4, 60, 0
6, 690117, Note_on_c, 4, 53, 0
6, 690117, Note_on_c, 4, 53, 71
6, 690117, Note_on_c, 4, 60, 71
6, 690237, Note_on_c, 4, 60, 0
6, 690237, Note_on_c, 4, 53, 0
6, 690237, Note_on_c, 4, 53, 72
6, 690237, Note_on_c, 4, 60, 72
6, 690720, Note_on_c, 4, 60, 0
6, 690720, Note_on_c, 4, 53, 0
6, 690720, Note_on_c, 4, 53, 76
6, 690720, Note_on_c, 4, 60, 76
6, 691200, Note_on_c, 4, 60, 0
6, 691200, Note_on_c, 4, 53, 0
6, 691200, Note_on_c, 4, 58, 70
6, 691200, Note_on_c, 4, 50, 90
6, 691557, Note_on_c, 4, 58, 0
6, 691557, Note_on_c, 4, 60, 75
6, 691617, Note_on_c, 4, 60, 0
6, 691617, Note_on_c, 4, 62, 76
6, 691680, Note_on_c, 4, 62, 0
6, 691680, Note_on_c, 4, 50, 0
6, 691680, Note_on_c, 4, 84, 62
6, 691680, Note_on_c, 4, 60, 78
6, 691680, Note_on_c, 4, 53, 104
6, 691801, Note_on_c, 4, 84, 0
6, 691801, Note_on_c, 4, 83, 64
6, 691922, Note_on_c, 4, 83, 0
6, 691922, Note_on_c, 4, 84, 79
6, 692045, Note_on_c, 4, 84, 0
6, 692045, Note_on_c, 4, 83, 61
6, 692166, Note_on_c, 4, 83, 0
6, 692166, Note_on_c, 4, 53, 0
6, 692166, Note_on_c, 4, 60, 0
6, 692166, Note_on_c, 4, 86, 83
6, 692285, Note_on_c, 4, 86, 0
6, 692285, Note_on_c, 4, 84, 68
6, 692402, Note_on_c, 4, 84, 0
6, 692402, Note_on_c, 4, 82, 61
6, 692521, Note_on_c, 4, 82, 0
6, 692521, Note_on_c, 4, 81, 67
6, 692637, Note_on_c, 4, 81, 0
6, 692637, Note_on_c, 4, 81, 75
6, 692756, Note_on_c, 4, 81, 0
6, 692756, Note_on_c, 4, 79, 59
6, 692873, Note_on_c, 4, 79, 0
6, 692873, Note_on_c, 4, 77, 67
6, 692992, Note_on_c, 4, 77, 0
6, 692992, Note_on_c, 4, 75, 62
6, 693120, Note_on_c, 4, 75, 0
6, 693120, Note_on_c, 4, 74, 63
6, 693120, Note_on_c, 4, 58, 62
6, 693120, Note_on_c, 4, 62, 62
6, 693596, Note_on_c, 4, 62, 0
6, 693596, Note_on_c, 4, 58, 0
6, 693596, Note_on_c, 4, 74, 0
6, 693596, Note_on_c, 4, 82, 103
6, 693596, Note_on_c, 4, 58, 67
6, 693596, Note_on_c, 4, 62, 67
6, 693717, Note_on_c, 4, 82, 0
6, 693717, Note_on_c, 4, 81, 77
6, 693840, Note_on_c, 4, 81, 0
6, 693840, Note_on_c, 4, 82, 76
6, 693960, Note_on_c, 4, 82, 0
6, 693960, Note_on_c, 4, 62, 0
6, 693960, Note_on_c, 4, 58, 0
6, 693960, Note_on_c, 4, 81, 64
6, 693960, Note_on_c, 4, 58, 68
6, 693960, Note_on_c, 4, 62, 68
6, 694081, Note_on_c, 4, 62, 0
6, 694081, Note_on_c, 4, 58, 0
6, 694081, Note_on_c, 4, 81, 0
6, 694081, Note_on_c, 4, 84, 83
6, 694081, Note_on_c, 4, 58, 66
6, 694081, Note_on_c, 4, 62, 66
6, 694201, Note_on_c, 4, 84, 0
6, 694201, Note_on_c, 4, 82, 68
6, 694320, Note_on_c, 4, 82, 0
6, 694320, Note_on_c, 4, 81, 67
6, 694440, Note_on_c, 4, 81, 0
6, 694440, Note_on_c, 4, 79, 63
6, 694556, Note_on_c, 4, 79, 0
6, 694556, Note_on_c, 4, 62, 0
6, 694556, Note_on_c, 4, 58, 0
6, 694556, Note_on_c, 4, 79, 67
6, 694676, Note_on_c, 4, 79, 0
6, 694676, Note_on_c, 4, 77, 67
6, 694793, Note_on_c, 4, 77, 0
6, 694793, Note_on_c, 4, 75, 63
6, 694912, Note_on_c, 4, 75, 0
6, 694912, Note_on_c, 4, 74, 67
6, 695040, Note_on_c, 4, 74, 0
6, 695040, Note_on_c, 4, 75, 72
6, 695040, Note_on_c, 4, 55, 65
6, 695040, Note_on_c, 4, 58, 65
6, 695040, Note_on_c, 4, 63, 65
6, 695516, Note_on_c, 4, 63, 0
6, 695516, Note_on_c, 4, 75, 0
6, 695516, Note_on_c, 4, 55, 0
6, 695516, Note_on_c, 4, 58, 0
6, 695516, Note_on_c, 4, 82, 99
6, 695516, Note_on_c, 4, 55, 73
6, 695516, Note_on_c, 4, 58, 73
6, 695516, Note_on_c, 4, 63, 73
6, 695637, Note_on_c, 4, 82, 0
6, 695637, Note_on_c, 4, 81, 72
6, 695760, Note_on_c, 4, 81, 0
6, 695760, Note_on_c, 4, 82, 73
6, 695880, Note_on_c, 4, 82, 0
6, 695880, Note_on_c, 4, 55, 0
6, 695880, Note_on_c, 4, 58, 0
6, 695880, Note_on_c, 4, 63, 0
6, 695880, Note_on_c, 4, 81, 62
6, 695880, Note_on_c, 4, 55, 69
6, 695880, Note_on_c, 4, 58, 69
6, 695880, Note_on_c, 4, 63, 69
6, 696001, Note_on_c, 4, 63, 0
6, 696001, Note_on_c, 4, 81, 0
6, 696001, Note_on_c, 4, 55, 0
6, 696001, Note_on_c, 4, 58, 0
6, 696001, Note_on_c, 4, 84, 83
6, 696001, Note_on_c, 4, 55, 68
6, 696001, Note_on_c, 4, 58, 68
6, 696001, Note_on_c, 4, 63, 68
6, 696121, Note_on_c, 4, 84, 0
6, 696121, Note_on_c, 4, 82, 58
6, 696240, Note_on_c, 4, 82, 0
6, 696240, Note_on_c, 4, 81, 68
6, 696360, Note_on_c, 4, 81, 0
6, 696360, Note_on_c, 4, 79, 57
6, 696477, Note_on_c, 4, 79, 0
6, 696477, Note_on_c, 4, 63, 0
6, 696477, Note_on_c, 4, 58, 0
6, 696477, Note_on_c, 4, 55, 0
6, 696477, Note_on_c, 4, 81, 83
6, 696596, Note_on_c, 4, 81, 0
6, 696596, Note_on_c, 4, 79, 62
6, 696716, Note_on_c, 4, 79, 0
6, 696716, Note_on_c, 4, 77, 60
6, 696833, Note_on_c, 4, 77, 0
6, 696833, Note_on_c, 4, 75, 60
6, 696960, Note_on_c, 4, 75, 0
6, 696960, Note_on_c, 4, 77, 79
6, 696960, Note_on_c, 4, 50, 61
6, 696960, Note_on_c, 4, 53, 61
6, 696960, Note_on_c, 4, 56, 61
6, 696960, Note_on_c, 4, 58, 61
6, 697436, Note_on_c, 4, 58, 0
6, 697436, Note_on_c, 4, 53, 0
6, 697436, Note_on_c, 4, 77, 0
6, 697436, Note_on_c, 4, 50, 0
6, 697436, Note_on_c, 4, 56, 0
6, 697436, Note_on_c, 4, 89, 102
6, 697436, Note_on_c, 4, 50, 70
6, 697436, Note_on_c, 4, 53, 70
6, 697436, Note_on_c, 4, 56, 70
6, 697436, Note_on_c, 4, 58, 70
6, 697560, Note_on_c, 4, 89, 0
6, 697560, Note_on_c, 4, 88, 72
6, 697680, Note_on_c, 4, 88, 0
6, 697680, Note_on_c, 4, 89, 82
6, 697801, Note_on_c, 4, 89, 0
6, 697801, Note_on_c, 4, 56, 0
6, 697801, Note_on_c, 4, 50, 0
6, 697801, Note_on_c, 4, 53, 0
6, 697801, Note_on_c, 4, 58, 0
6, 697801, Note_on_c, 4, 88, 69
6, 697801, Note_on_c, 4, 50, 66
6, 697801, Note_on_c, 4, 53, 66
6, 697801, Note_on_c, 4, 56, 66
6, 697801, Note_on_c, 4, 58, 66
6, 697922, Note_on_c, 4, 58, 0
6, 697922, Note_on_c, 4, 53, 0
6, 697922, Note_on_c, 4, 88, 0
6, 697922, Note_on_c, 4, 50, 0
6, 697922, Note_on_c, 4, 56, 0
6, 697922, Note_on_c, 4, 89, 71
6, 697922, Note_on_c, 4, 50, 73
6, 697922, Note_on_c, 4, 53, 73
6, 697922, Note_on_c, 4, 56, 73
6, 697922, Note_on_c, 4, 58, 73
6, 698082, Note_on_c, 4, 89, 0
6, 698082, Note_on_c, 4, 87, 63
6, 698240, Note_on_c, 4, 87, 0
6, 698240, Note_on_c, 4, 86, 57
6, 698400, Note_on_c, 4, 86, 0
6, 698400, Note_on_c, 4, 56, 0
6, 698400, Note_on_c, 4, 50, 0
6, 698400, Note_on_c, 4, 53, 0
6, 698400, Note_on_c, 4, 58, 0
6, 698400, Note_on_c, 4, 84, 62
6, 698557, Note_on_c, 4, 84, 0
6, 698557, Note_on_c, 4, 82, 59
6, 698714, Note_on_c, 4, 82, 0
6, 698714, Note_on_c, 4, 80, 54
6, 698880, Note_on_c, 4, 80, 0
6, 698880, Note_on_c, 4, 79, 65
6, 698880, Note_on_c, 4, 51, 64
6, 698880, Note_on_c, 4, 55, 64
6, 698880, Note_on_c, 4, 58, 64
6, 699037, Note_on_c, 4, 79, 0
6, 699037, Note_on_c, 4, 77, 62
6, 699198, Note_on_c, 4, 77, 0
6, 699198, Note_on_c, 4, 75, 62
6, 699360, Note_on_c, 4, 75, 0
6, 699360, Note_on_c, 4, 74, 62
6, 699518, Note_on_c, 4, 74, 0
6, 699518, Note_on_c, 4, 72, 59
6, 699678, Note_on_c, 4, 72, 0
6, 699678, Note_on_c, 4, 70, 60
6, 699837, Note_on_c, 4, 70, 0
6, 699837, Note_on_c, 4, 69, 59
6, 699994, Note_on_c, 4, 69, 0
6, 699994, Note_on_c, 4, 67, 63
6, 700152, Note_on_c, 4, 67, 0
6, 700152, Note_on_c, 4, 65, 55
6, 700308, Note_on_c, 4, 65, 0
6, 700308, Note_on_c, 4, 63, 66
6, 700468, Note_on_c, 4, 63, 0
6, 700468, Note_on_c, 4, 62, 56
6, 700622, Note_on_c, 4, 62, 0
6, 700622, Note_on_c, 4, 60, 59
6, 700800, Note_on_c, 4, 60, 0
6, 700800, Note_on_c, 4, 58, 0
6, 700800, Note_on_c, 4, 55, 0
6, 700800, Note_on_c, 4, 51, 0
6, 700800, Note_on_c, 4, 58, 64
6, 700800, Control_c, 4, 64, 127
6, 700953, Note_on_c, 4, 58, 0
6, 700953, Note_on_c, 4, 52, 60
6, 701112, Note_on_c, 4, 52, 0
6, 701112, Note_on_c, 4, 55, 73
6, 701272, Note_on_c, 4, 55, 0
6, 701272, Note_on_c, 4, 58, 74
6, 701430, Note_on_c, 4, 58, 0
6, 701430, Note_on_c, 4, 61, 85
6, 701592, Note_on_c, 4, 61, 0
6, 701592, Note_on_c, 4, 64, 61
6, 701756, Note_on_c, 4, 64, 0
6, 701756, Note_on_c, 4, 67, 76
6, 701918, Note_on_c, 4, 67, 0
6, 701918, Note_on_c, 4, 70, 83
6, 702080, Note_on_c, 4, 70, 0
6, 702080, Note_on_c, 4, 73, 88
6, 702249, Note_on_c, 4, 73, 0
6, 702249, Note_on_c, 4, 76, 84
6, 702409, Note_on_c, 4, 76, 0
6, 702409, Note_on_c, 4, 79, 87
6, 702570, Note_on_c, 4, 79, 0
6, 702570, Note_on_c, 4, 82, 93
6, 702720, Note_on_c, 4, 82, 0
6, 702729, Note_on_c, 4, 85, 84
6, 702729, Control_c, 4, 64, 0
6, 702729, Control_c, 4, 64, 127
6, 702888, Note_on_c, 4, 85, 0
6, 702888, Note_on_c, 4, 82, 65
6, 703048, Note_on_c, 4, 82, 0
6, 703048, Note_on_c, 4, 79, 63
6, 703206, Note_on_c, 4, 79, 0
6, 703206, Note_on_c, 4, 76, 56
6, 703366, Note_on_c, 4, 76, 0
6, 703366, Note_on_c, 4, 73, 55
6, 703525, Note_on_c, 4, 73, 0
6, 703525, Note_on_c, 4, 70, 51
6, 703682, Note_on_c, 4, 70, 0
6, 703682, Note_on_c, 4, 67, 50
6, 703840, Note_on_c, 4, 67, 0
6, 703840, Note_on_c, 4, 64, 55
6, 703998, Note_on_c, 4, 64, 0
6, 703998, Note_on_c, 4, 61, 54
6, 704156, Note_on_c, 4, 61, 0
6, 704156, Note_on_c, 4, 58, 61
6, 704313, Note_on_c, 4, 58, 0
6, 704313, Note_on_c, 4, 55, 63
6, 704470, Note_on_c, 4, 55, 0
6, 704470, Note_on_c, 4, 52, 64
6, 704640, Note_on_c, 4, 52, 0
6, 704640, Control_c, 4, 64, 0
6, 704640, Note_on_c, 4, 41, 66
6, 704640, Note_on_c, 4, 53, 66
6, 704876, Note_on_c, 4, 65, 45
6, 704993, Note_on_c, 4, 65, 0
6, 705116, Note_on_c, 4, 65, 49
6, 705233, Note_on_c, 4, 65, 0
6, 705356, Note_on_c, 4, 65, 47
6, 705473, Note_on_c, 4, 65, 0
6, 705596, Note_on_c, 4, 53, 0
6, 705596, Note_on_c, 4, 41, 0
6, 705596, Note_on_c, 4, 65, 50
6, 705837, Note_on_c, 4, 65, 0
6, 705837, Note_on_c, 4, 67, 55
6, 705960, Note_on_c, 4, 67, 0
6, 705960, Note_on_c, 4, 69, 55
6, 706080, Note_on_c, 4, 69, 0
6, 706080, Note_on_c, 4, 70, 55
6, 706201, Note_on_c, 4, 70, 0
6, 706201, Note_on_c, 4, 72, 54
6, 706321, Note_on_c, 4, 72, 0
6, 706321, Note_on_c, 4, 74, 64
6, 706442, Note_on_c, 4, 74, 0
6, 706442, Note_on_c, 4, 75, 60
6, 706560, Note_on_c, 4, 75, 0
6, 706562, Note_on_c, 4, 74, 54
6, 706562, Note_on_c, 4, 77, 54
6, 707521, Note_on_c, 4, 77, 0
6, 707521, Note_on_c, 4, 74, 0
6, 707521, Note_on_c, 4, 70, 45
6, 707521, Note_on_c, 4, 74, 45
6, 707521, Note_on_c, 4, 55, 49
6, 707521, Note_on_c, 4, 62, 49
6, 708480, Note_on_c, 4, 62, 0
6, 708480, Note_on_c, 4, 70, 0
6, 708480, Note_on_c, 4, 74, 0
6, 708480, Note_on_c, 4, 55, 0
6, 708480, Note_on_c, 4, 70, 59
6, 708480, Note_on_c, 4, 79, 59
6, 708480, Note_on_c, 4, 51, 37
6, 708480, Note_on_c, 4, 60, 37
6, 709440, Note_on_c, 4, 60, 0
6, 709440, Note_on_c, 4, 70, 0
6, 709440, Note_on_c, 4, 79, 0
6, 709440, Note_on_c, 4, 51, 0
6, 709440, Note_on_c, 4, 69, 43
6, 709440, Note_on_c, 4, 72, 43
6, 709440, Note_on_c, 4, 53, 49
6, 709440, Note_on_c, 4, 60, 49
6, 710400, Note_on_c, 4, 60, 0
6, 710400, Note_on_c, 4, 69, 0
6, 710400, Note_on_c, 4, 72, 0
6, 710400, Note_on_c, 4, 53, 0
6, 710400, Note_on_c, 4, 65, 59
6, 710400, Note_on_c, 4, 77, 59
6, 710400, Note_on_c, 4, 50, 45
6, 710400, Note_on_c, 4, 58, 45
6, 711360, Note_on_c, 4, 50, 0
6, 711360, Note_on_c, 4, 65, 0
6, 711360, Note_on_c, 4, 77, 0
6, 711360, Note_on_c, 4, 67, 41
6, 711360, Note_on_c, 4, 75, 41
6, 711360, Note_on_c, 4, 51, 50
6, 712320, Note_on_c, 4, 51, 0
6, 712320, Note_on_c, 4, 58, 0
6, 712320, Note_on_c, 4, 67, 0
6, 712320, Note_on_c, 4, 75, 0
6, 712320, Note_on_c, 4, 65, 48
6, 712320, Note_on_c, 4, 74, 48
6, 712320, Note_on_c, 4, 53, 52
6, 712320, Note_on_c, 4, 58, 52
6, 713280, Note_on_c, 4, 53, 0
6, 713280, Note_on_c, 4, 65, 0
6, 713280, Note_on_c, 4, 74, 0
6, 713280, Note_on_c, 4, 64, 46
6, 713280, Note_on_c, 4, 72, 46
6, 713280, Note_on_c, 4, 55, 51
6, 714153, Note_on_c, 4, 55, 0
6, 714153, Note_on_c, 4, 58, 0
6, 714153, Note_on_c, 4, 64, 0
6, 714153, Note_on_c, 4, 72, 0
6, 714218, Note_on_c, 4, 74, 59
6, 714218, Note_on_c, 4, 53, 41
6, 714218, Note_on_c, 4, 58, 41
6, 714340, Note_on_c, 4, 74, 0
6, 714340, Note_on_c, 4, 65, 39
6, 714462, Note_on_c, 4, 65, 0
6, 714462, Note_on_c, 4, 67, 57
6, 714586, Note_on_c, 4, 67, 0
6, 714586, Note_on_c, 4, 69, 69
6, 714708, Note_on_c, 4, 69, 0
6, 714708, Note_on_c, 4, 70, 60
6, 714832, Note_on_c, 4, 70, 0
6, 714832, Note_on_c, 4, 72, 63
6, 714953, Note_on_c, 4, 72, 0
6, 714953, Note_on_c, 4, 74, 66
6, 715076, Note_on_c, 4, 74, 0
6, 715076, Note_on_c, 4, 75, 68
6, 715200, Note_on_c, 4, 75, 0
6, 715200, Note_on_c, 4, 58, 0
6, 715200, Note_on_c, 4, 53, 0
6, 715200, Note_on_c, 4, 77, 71
6, 715321, Note_on_c, 4, 77, 0
6, 715321, Note_on_c, 4, 70, 73
6, 715442, Note_on_c, 4, 70, 0
6, 715442, Note_on_c, 4, 72, 76
6, 715566, Note_on_c, 4, 72, 0
6, 715566, Note_on_c, 4, 74, 78
6, 715692, Note_on_c, 4, 74, 0
6, 715692, Note_on_c, 4, 75, 81
6, 715814, Note_on_c, 4, 75, 0
6, 715814, Note_on_c, 4, 77, 83
6, 715938, Note_on_c, 4, 77, 0
6, 715938, Note_on_c, 4, 79, 86
6, 716061, Note_on_c, 4, 79, 0
6, 716061, Note_on_c, 4, 81, 103
6, 716160, Note_on_c, 4, 81, 0
6, 716174, Note_on_c, 4, 82, 94
6, 716292, Note_on_c, 4, 82, 0
6, 716412, Note_on_c, 4, 84, 100
6, 716472, Note_on_c, 4, 84, 0
6, 716472, Note_on_c, 4, 82, 78
6, 716530, Note_on_c, 4, 82, 0
6, 716530, Note_on_c, 4, 81, 76
6, 716650, Note_on_c, 4, 81, 0
6, 716650, Note_on_c, 4, 82, 88
6, 716886, Note_on_c, 4, 82, 0
6, 716886, Note_on_c, 4, 86, 106
6, 717122, Note_on_c, 4, 86, 0
6, 717122, Note_on_c, 4, 76, 55
6, 717122, Note_on_c, 4, 65, 40
6, 717122, Note_on_c, 4, 72, 40
6, 717122, Note_on_c, 4, 75, 40
6, 717282, Note_on_c, 4, 76, 0
6, 717282, Note_on_c, 4, 77, 88
6, 717440, Note_on_c, 4, 77, 0
6, 717440, Note_on_c, 4, 78, 94
6, 717600, Note_on_c, 4, 78, 0
6, 717600, Note_on_c, 4, 79, 90
6, 717758, Note_on_c, 4, 79, 0
6, 717758, Note_on_c, 4, 80, 97
6, 717918, Note_on_c, 4, 80, 0
6, 717918, Note_on_c, 4, 81, 94
6, 718080, Note_on_c, 4, 81, 0
6, 718080, Note_on_c, 4, 75, 0
6, 718080, Note_on_c, 4, 72, 0
6, 718080, Note_on_c, 4, 65, 0
6, 718080, Note_on_c, 4, 82, 90
6, 718080, Note_on_c, 4, 70, 45
6, 718080, Note_on_c, 4, 74, 45
6, 718197, Note_on_c, 4, 82, 0
6, 718320, Note_on_c, 4, 84, 98
6, 718380, Note_on_c, 4, 84, 0
6, 718380, Note_on_c, 4, 82, 71
6, 718440, Note_on_c, 4, 82, 0
6, 718440, Note_on_c, 4, 81, 73
6, 718560, Note_on_c, 4, 81, 0
6, 718560, Note_on_c, 4, 74, 0
6, 718560, Note_on_c, 4, 70, 0
6, 718560, Note_on_c, 4, 82, 85
6, 718800, Note_on_c, 4, 82, 0
6, 718800, Note_on_c, 4, 86, 105
6, 719041, Note_on_c, 4, 86, 0
6, 719041, Note_on_c, 4, 89, 76
6, 719041, Note_on_c, 4, 65, 57
6, 719041, Note_on_c, 4, 69, 57
6, 719041, Note_on_c, 4, 75, 57
6, 719200, Note_on_c, 4, 89, 0
6, 719200, Note_on_c, 4, 88, 60
6, 719360, Note_on_c, 4, 88, 0
6, 719360, Note_on_c, 4, 87, 48
6, 719520, Note_on_c, 4, 87, 0
6, 719520, Note_on_c, 4, 86, 53
6, 719678, Note_on_c, 4, 86, 0
6, 719678, Note_on_c, 4, 87, 63
6, 719838, Note_on_c, 4, 87, 0
6, 719838, Note_on_c, 4, 84, 47
6, 720000, Note_on_c, 4, 84, 0
6, 720000, Note_on_c, 4, 75, 0
6, 720000, Note_on_c, 4, 69, 0
6, 720000, Note_on_c, 4, 65, 0
6, 720000, Note_on_c, 4, 82, 51
6, 720000, Note_on_c, 4, 70, 57
6, 720000, Note_on_c, 4, 74, 57
6, 720117, Note_on_c, 4, 82, 0
6, 720240, Note_on_c, 4, 84, 64
6, 720300, Note_on_c, 4, 84, 0
6, 720300, Note_on_c, 4, 82, 49
6, 720360, Note_on_c, 4, 82, 0
6, 720360, Note_on_c, 4, 81, 55
6, 720480, Note_on_c, 4, 81, 0
6, 720480, Note_on_c, 4, 74, 0
6, 720480, Note_on_c, 4, 70, 0
6, 720480, Note_on_c, 4, 82, 69
6, 720720, Note_on_c, 4, 82, 0
6, 720720, Note_on_c, 4, 86, 71
6, 720957, Note_on_c, 4, 86, 0
6, 720957, Note_on_c, 4, 76, 39
6, 720957, Note_on_c, 4, 65, 50
6, 720957, Note_on_c, 4, 72, 50
6, 720957, Note_on_c, 4, 75, 50
6, 721114, Note_on_c, 4, 76, 0
6, 721114, Note_on_c, 4, 77, 64
6, 721274, Note_on_c, 4, 77, 0
6, 721274, Note_on_c, 4, 78, 61
6, 721440, Note_on_c, 4, 78, 0
6, 721440, Note_on_c, 4, 79, 65
6, 721598, Note_on_c, 4, 79, 0
6, 721598, Note_on_c, 4, 80, 68
6, 721758, Note_on_c, 4, 80, 0
6, 721758, Note_on_c, 4, 81, 62
6, 721920, Note_on_c, 4, 81, 0
6, 721920, Note_on_c, 4, 75, 0
6, 721920, Note_on_c, 4, 72, 0
6, 721920, Note_on_c, 4, 65, 0
6, 721921, Note_on_c, 4, 82, 66
6, 721921, Note_on_c, 4, 70, 50
6, 721921, Note_on_c, 4, 74, 50
6, 722040, Note_on_c, 4, 82, 0
6, 722160, Note_on_c, 4, 84, 67
6, 722220, Note_on_c, 4, 84, 0
6, 722220, Note_on_c, 4, 82, 54
6, 722280, Note_on_c, 4, 82, 0
6, 722280, Note_on_c, 4, 81, 59
6, 722400, Note_on_c, 4, 81, 0
6, 722400, Note_on_c, 4, 74, 0
6, 722400, Note_on_c, 4, 70, 0
6, 722400, Note_on_c, 4, 82, 65
6, 722641, Note_on_c, 4, 82, 0
6, 722641, Note_on_c, 4, 86, 79
6, 722885, Note_on_c, 4, 86, 0
6, 722885, Note_on_c, 4, 89, 73
6, 722885, Note_on_c, 4, 65, 54
6, 722885, Note_on_c, 4, 69, 54
6, 722885, Note_on_c, 4, 75, 54
6, 723044, Note_on_c, 4, 89, 0
6, 723044, Note_on_c, 4, 88, 53
6, 723204, Note_on_c, 4, 88, 0
6, 723204, Note_on_c, 4, 87, 52
6, 723361, Note_on_c, 4, 87, 0
6, 723361, Note_on_c, 4, 86, 57
6, 723520, Note_on_c, 4, 86, 0
6, 723520, Note_on_c, 4, 87, 65
6, 723678, Note_on_c, 4, 87, 0
6, 723678, Note_on_c, 4, 84, 54
6, 723840, Note_on_c, 4, 84, 0
6, 723840, Note_on_c, 4, 75, 0
6, 723840, Note_on_c, 4, 69, 0
6, 723840, Note_on_c, 4, 65, 0
6, 723840, Note_on_c, 4, 82, 45
6, 723840, Note_on_c, 4, 70, 49
6, 723840, Note_on_c, 4, 74, 49
6, 723957, Note_on_c, 4, 74, 0
6, 723957, Note_on_c, 4, 70, 0
6, 723998, Note_on_c, 4, 82, 0
6, 723998, Note_on_c, 4, 86, 60
6, 724158, Note_on_c, 4, 86, 0
6, 724158, Note_on_c, 4, 82, 63
6, 724320, Note_on_c, 4, 82, 0
6, 724320, Note_on_c, 4, 89, 66
6, 724320, Note_on_c, 4, 65, 66
6, 724320, Note_on_c, 4, 72, 66
6, 724437, Note_on_c, 4, 72, 0
6, 724437, Note_on_c, 4, 65, 0
6, 724478, Note_on_c, 4, 89, 0
6, 724478, Note_on_c, 4, 87, 68
6, 724638, Note_on_c, 4, 87, 0
6, 724638, Note_on_c, 4, 84, 71
6, 724800, Note_on_c, 4, 84, 0
6, 724800, Note_on_c, 4, 82, 73
6, 724800, Note_on_c, 4, 70, 73
6, 724800, Note_on_c, 4, 74, 73
6, 724917, Note_on_c, 4, 74, 0
6, 724917, Note_on_c, 4, 70, 0
6, 724958, Note_on_c, 4, 82, 0
6, 724958, Note_on_c, 4, 86, 76
6, 725118, Note_on_c, 4, 86, 0
6, 725118, Note_on_c, 4, 82, 78
6, 725280, Note_on_c, 4, 82, 0
6, 725280, Note_on_c, 4, 89, 81
6, 725280, Note_on_c, 4, 65, 81
6, 725280, Note_on_c, 4, 72, 81
6, 725397, Note_on_c, 4, 72, 0
6, 725397, Note_on_c, 4, 65, 0
6, 725434, Note_on_c, 4, 89, 0
6, 725434, Note_on_c, 4, 87, 83
6, 725594, Note_on_c, 4, 87, 0
6, 725594, Note_on_c, 4, 84, 86
6, 725760, Note_on_c, 4, 84, 0
6, 725760, Note_on_c, 4, 82, 64
6, 725760, Control_c, 4, 64, 127
6, 725760, Note_on_c, 4, 70, 74
6, 725760, Note_on_c, 4, 74, 74
6, 725914, Note_on_c, 4, 82, 0
6, 725914, Note_on_c, 4, 86, 106
6, 726076, Note_on_c, 4, 86, 0
6, 726076, Note_on_c, 4, 82, 70
6, 726240, Note_on_c, 4, 82, 0
6, 726240, Note_on_c, 4, 74, 0
6, 726240, Note_on_c, 4, 70, 0
6, 726240, Note_on_c, 4, 89, 110
6, 726398, Note_on_c, 4, 89, 0
6, 726398, Note_on_c, 4, 86, 72
6, 726558, Note_on_c, 4, 86, 0
6, 726558, Note_on_c, 4, 82, 62
6, 726720, Note_on_c, 4, 82, 0
6, 726720, Note_on_c, 4, 86, 91
6, 726877, Note_on_c, 4, 86, 0
6, 726877, Note_on_c, 4, 82, 64
6, 727034, Note_on_c, 4, 82, 0
6, 727034, Note_on_c, 4, 77, 63
6, 727184, Note_on_c, 4, 77, 0
6, 727184, Note_on_c, 4, 82, 99
6, 727340, Note_on_c, 4, 82, 0
6, 727340, Note_on_c, 4, 77, 66
6, 727493, Note_on_c, 4, 77, 0
6, 727493, Note_on_c, 4, 74, 60
6, 727680, Note_on_c, 4, 74, 0
6, 727680, Note_on_c, 4, 77, 96
6, 727680, Control_c, 4, 64, 0
6, 727680, Control_c, 4, 64, 127
6, 727829, Note_on_c, 4, 77, 0
6, 727829, Note_on_c, 4, 74, 75
6, 727990, Note_on_c, 4, 74, 0
6, 727990, Note_on_c, 4, 70, 68
6, 728153, Note_on_c, 4, 70, 0
6, 728153, Note_on_c, 4, 74, 101
6, 728313, Note_on_c, 4, 74, 0
6, 728313, Note_on_c, 4, 70, 72
6, 728472, Note_on_c, 4, 70, 0
6, 728472, Note_on_c, 4, 65, 61
6, 728633, Note_on_c, 4, 65, 0
6, 728633, Note_on_c, 4, 70, 104
6, 728793, Note_on_c, 4, 70, 0
6, 728793, Note_on_c, 4, 65, 63
6, 728950, Note_on_c, 4, 65, 0
6, 728950, Note_on_c, 4, 62, 66
6, 729106, Note_on_c, 4, 62, 0
6, 729106, Note_on_c, 4, 65, 79
6, 729265, Note_on_c, 4, 65, 0
6, 729265, Note_on_c, 4, 62, 74
6, 729421, Note_on_c, 4, 62, 0
6, 729421, Note_on_c, 4, 58, 70
6, 729600, Note_on_c, 4, 58, 0
6, 729600, Note_on_c, 4, 62, 98
6, 729600, Control_c, 4, 64, 0
6, 729600, Control_c, 4, 64, 127
6, 729750, Note_on_c, 4, 62, 0
6, 729750, Note_on_c, 4, 58, 78
6, 729912, Note_on_c, 4, 58, 0
6, 729912, Note_on_c, 4, 53, 67
6, 730076, Note_on_c, 4, 53, 0
6, 730076, Note_on_c, 4, 58, 90
6, 730234, Note_on_c, 4, 58, 0
6, 730234, Note_on_c, 4, 53, 73
6, 730394, Note_on_c, 4, 53, 0
6, 730394, Note_on_c, 4, 50, 75
6, 730556, Note_on_c, 4, 50, 0
6, 730556, Note_on_c, 4, 53, 89
6, 730714, Note_on_c, 4, 53, 0
6, 730714, Note_on_c, 4, 50, 82
6, 730872, Note_on_c, 4, 50, 0
6, 730872, Note_on_c, 4, 46, 69
6, 731029, Note_on_c, 4, 46, 0
6, 731029, Note_on_c, 4, 50, 88
6, 731188, Note_on_c, 4, 50, 0
6, 731188, Note_on_c, 4, 46, 77
6, 731346, Note_on_c, 4, 46, 0
6, 731346, Note_on_c, 4, 41, 74
6, 731520, Note_on_c, 4, 41, 0
6, 731520, Control_c, 4, 64, 0
6, 731520, Note_on_c, 4, 29, 106
6, 731632, Note_on_c, 4, 29, 0
6, 731753, Note_on_c, 4, 53, 68
6, 731753, Note_on_c, 4, 29, 126
6, 731753, Note_on_c, 4, 41, 126
6, 731872, Note_on_c, 4, 41, 0
6, 731872, Note_on_c, 4, 29, 0
6, 731873, Note_on_c, 4, 53, 0
6, 731873, Note_on_c, 4, 57, 93
6, 731993, Note_on_c, 4, 57, 0
6, 731993, Note_on_c, 4, 55, 81
6, 731993, Note_on_c, 4, 31, 126
6, 731993, Note_on_c, 4, 43, 126
6, 732112, Note_on_c, 4, 43, 0
6, 732112, Note_on_c, 4, 31, 0
6, 732116, Note_on_c, 4, 55, 0
6, 732116, Note_on_c, 4, 58, 87
6, 732237, Note_on_c, 4, 58, 0
6, 732237, Note_on_c, 4, 57, 77
6, 732237, Note_on_c, 4, 33, 126
6, 732237, Note_on_c, 4, 45, 126
6, 732356, Note_on_c, 4, 45, 0
6, 732356, Note_on_c, 4, 33, 0
6, 732360, Note_on_c, 4, 57, 0
6, 732360, Note_on_c, 4, 60, 100
6, 732480, Note_on_c, 4, 60, 0
6, 732480, Note_on_c, 4, 58, 82
6, 732480, Note_on_c, 4, 34, 126
6, 732480, Note_on_c, 4, 46, 126
6, 732597, Note_on_c, 4, 46, 0
6, 732597, Note_on_c, 4, 34, 0
6, 732597, Note_on_c, 4, 58, 0
6, 732720, Note_on_c, 4, 57, 72
6, 732720, Note_on_c, 4, 33, 119
6, 732720, Note_on_c, 4, 45, 119
6, 732837, Note_on_c, 4, 45, 0
6, 732837, Note_on_c, 4, 33, 0
6, 732841, Note_on_c, 4, 57, 0
6, 732841, Note_on_c, 4, 60, 91
6, 732962, Note_on_c, 4, 60, 0
6, 732962, Note_on_c, 4, 58, 81
6, 732962, Note_on_c, 4, 34, 126
6, 732962, Note_on_c, 4, 46, 126
6, 733081, Note_on_c, 4, 46, 0
6, 733081, Note_on_c, 4, 34, 0
6, 733085, Note_on_c, 4, 58, 0
6, 733085, Note_on_c, 4, 62, 90
6, 733206, Note_on_c, 4, 62, 0
6, 733206, Note_on_c, 4, 60, 80
6, 733206, Note_on_c, 4, 36, 126
6, 733206, Note_on_c, 4, 48, 126
6, 733325, Note_on_c, 4, 48, 0
6, 733325, Note_on_c, 4, 36, 0
6, 733329, Note_on_c, 4, 60, 0
6, 733329, Note_on_c, 4, 63, 100
6, 733440, Note_on_c, 4, 63, 0
6, 733450, Note_on_c, 4, 62, 82
6, 733450, Note_on_c, 4, 38, 126
6, 733450, Note_on_c, 4, 50, 126
6, 733569, Note_on_c, 4, 50, 0
6, 733569, Note_on_c, 4, 38, 0
6, 733569, Note_on_c, 4, 62, 0
6, 733686, Note_on_c, 4, 58, 78
6, 733686, Note_on_c, 4, 34, 114
6, 733686, Note_on_c, 4, 46, 114
6, 733805, Note_on_c, 4, 46, 0
6, 733805, Note_on_c, 4, 34, 0
6, 733806, Note_on_c, 4, 58, 0
6, 733806, Note_on_c, 4, 62, 102
6, 733925, Note_on_c, 4, 62, 0
6, 733925, Note_on_c, 4, 60, 79
6, 733925, Note_on_c, 4, 36, 126
6, 733925, Note_on_c, 4, 48, 126
6, 734042, Note_on_c, 4, 48, 0
6, 734042, Note_on_c, 4, 36, 0
6, 734045, Note_on_c, 4, 60, 0
6, 734045, Note_on_c, 4, 63, 77
6, 734162, Note_on_c, 4, 63, 0
6, 734162, Note_on_c, 4, 62, 73
6, 734162, Note_on_c, 4, 38, 126
6, 734162, Note_on_c, 4, 50, 126
6, 734281, Note_on_c, 4, 50, 0
6, 734281, Note_on_c, 4, 38, 0
6, 734282, Note_on_c, 4, 62, 0
6, 734282, Note_on_c, 4, 65, 96
6, 734402, Note_on_c, 4, 65, 0
6, 734402, Note_on_c, 4, 63, 83
6, 734402, Note_on_c, 4, 39, 77
6, 734402, Note_on_c, 4, 51, 77
6, 734521, Note_on_c, 4, 51, 0
6, 734521, Note_on_c, 4, 39, 0
6, 734522, Note_on_c, 4, 63, 0
6, 734522, Note_on_c, 4, 67, 98
6, 734642, Note_on_c, 4, 67, 0
6, 734642, Note_on_c, 4, 65, 81
6, 734642, Note_on_c, 4, 41, 90
6, 734642, Note_on_c, 4, 53, 90
6, 734761, Note_on_c, 4, 53, 0
6, 734761, Note_on_c, 4, 41, 0
6, 734765, Note_on_c, 4, 65, 0
6, 734765, Note_on_c, 4, 69, 91
6, 734886, Note_on_c, 4, 69, 0
6, 734886, Note_on_c, 4, 67, 75
6, 734886, Note_on_c, 4, 43, 89
6, 734886, Note_on_c, 4, 55, 89
6, 735005, Note_on_c, 4, 55, 0
6, 735005, Note_on_c, 4, 43, 0
6, 735006, Note_on_c, 4, 67, 0
6, 735006, Note_on_c, 4, 70, 93
6, 735129, Note_on_c, 4, 70, 0
6, 735129, Note_on_c, 4, 69, 72
6, 735129, Note_on_c, 4, 45, 91
6, 735129, Note_on_c, 4, 57, 91
6, 735246, Note_on_c, 4, 57, 0
6, 735246, Note_on_c, 4, 45, 0
6, 735249, Note_on_c, 4, 69, 0
6, 735249, Note_on_c, 4, 72, 98
6, 735360, Note_on_c, 4, 72, 0
6, 735370, Note_on_c, 4, 70, 75
6, 735370, Note_on_c, 4, 46, 79
6, 735370, Note_on_c, 4, 58, 79
6, 735489, Note_on_c, 4, 58, 0
6, 735489, Note_on_c, 4, 46, 0
6, 735489, Note_on_c, 4, 70, 0
6, 735606, Note_on_c, 4, 65, 61
6, 735606, Note_on_c, 4, 41, 74
6, 735606, Note_on_c, 4, 53, 74
6, 735725, Note_on_c, 4, 53, 0
6, 735725, Note_on_c, 4, 41, 0
6, 735726, Note_on_c, 4, 65, 0
6, 735726, Note_on_c, 4, 69, 91
6, 735846, Note_on_c, 4, 69, 0
6, 735846, Note_on_c, 4, 67, 79
6, 735846, Note_on_c, 4, 43, 88
6, 735846, Note_on_c, 4, 55, 88
6, 735965, Note_on_c, 4, 55, 0
6, 735965, Note_on_c, 4, 43, 0
6, 735965, Note_on_c, 4, 67, 0
6, 735965, Note_on_c, 4, 70, 99
6, 736085, Note_on_c, 4, 70, 0
6, 736085, Note_on_c, 4, 69, 80
6, 736085, Note_on_c, 4, 45, 90
6, 736085, Note_on_c, 4, 57, 90
6, 736202, Note_on_c, 4, 57, 0
6, 736202, Note_on_c, 4, 45, 0
6, 736205, Note_on_c, 4, 69, 0
6, 736205, Note_on_c, 4, 72, 97
6, 736325, Note_on_c, 4, 72, 0
6, 736325, Note_on_c, 4, 70, 73
6, 736325, Note_on_c, 4, 46, 91
6, 736325, Note_on_c, 4, 58, 91
6, 736442, Note_on_c, 4, 58, 0
6, 736442, Note_on_c, 4, 46, 0
6, 736442, Note_on_c, 4, 70, 0
6, 736565, Note_on_c, 4, 69, 78
6, 736565, Note_on_c, 4, 45, 80
6, 736565, Note_on_c, 4, 57, 80
6, 736682, Note_on_c, 4, 57, 0
6, 736682, Note_on_c, 4, 45, 0
6, 736685, Note_on_c, 4, 69, 0
6, 736685, Note_on_c, 4, 72, 98
6, 736805, Note_on_c, 4, 72, 0
6, 736805, Note_on_c, 4, 70, 74
6, 736805, Note_on_c, 4, 46, 87
6, 736805, Note_on_c, 4, 58, 87
6, 736922, Note_on_c, 4, 58, 0
6, 736922, Note_on_c, 4, 46, 0
6, 736925, Note_on_c, 4, 70, 0
6, 736925, Note_on_c, 4, 74, 93
6, 737046, Note_on_c, 4, 74, 0
6, 737046, Note_on_c, 4, 72, 77
6, 737046, Note_on_c, 4, 48, 89
6, 737046, Note_on_c, 4, 60, 89
6, 737165, Note_on_c, 4, 60, 0
6, 737165, Note_on_c, 4, 48, 0
6, 737166, Note_on_c, 4, 72, 0
6, 737166, Note_on_c, 4, 75, 95
6, 737280, Note_on_c, 4, 75, 0
6, 737286, Note_on_c, 4, 74, 76
6, 737286, Note_on_c, 4, 50, 96
6, 737286, Note_on_c, 4, 62, 96
6, 737405, Note_on_c, 4, 62, 0
6, 737405, Note_on_c, 4, 50, 0
6, 737405, Note_on_c, 4, 74, 0
6, 737522, Note_on_c, 4, 70, 64
6, 737522, Note_on_c, 4, 46, 84
6, 737522, Note_on_c, 4, 58, 84
6, 737641, Note_on_c, 4, 58, 0
6, 737641, Note_on_c, 4, 46, 0
6, 737642, Note_on_c, 4, 70, 0
6, 737642, Note_on_c, 4, 74, 99
6, 737762, Note_on_c, 4, 74, 0
6, 737762, Note_on_c, 4, 72, 80
6, 737762, Note_on_c, 4, 48, 88
6, 737762, Note_on_c, 4, 60, 88
6, 737881, Note_on_c, 4, 60, 0
6, 737881, Note_on_c, 4, 48, 0
6, 737881, Note_on_c, 4, 72, 0
6, 737881, Note_on_c, 4, 75, 99
6, 738001, Note_on_c, 4, 75, 0
6, 738001, Note_on_c, 4, 74, 81
6, 738001, Note_on_c, 4, 50, 94
6, 738001, Note_on_c, 4, 62, 94
6, 738120, Note_on_c, 4, 62, 0
6, 738120, Note_on_c, 4, 50, 0
6, 738121, Note_on_c, 4, 74, 0
6, 738121, Note_on_c, 4, 77, 88
6, 738242, Note_on_c, 4, 77, 0
6, 738242, Note_on_c, 4, 75, 72
6, 738242, Note_on_c, 4, 51, 92
6, 738242, Note_on_c, 4, 63, 92
6, 738361, Note_on_c, 4, 63, 0
6, 738361, Note_on_c, 4, 51, 0
6, 738362, Note_on_c, 4, 75, 0
6, 738362, Note_on_c, 4, 79, 94
6, 738482, Note_on_c, 4, 79, 0
6, 738482, Note_on_c, 4, 77, 80
6, 738482, Note_on_c, 4, 53, 93
6, 738482, Note_on_c, 4, 65, 93
6, 738601, Note_on_c, 4, 65, 0
6, 738601, Note_on_c, 4, 53, 0
6, 738605, Note_on_c, 4, 77, 0
6, 738605, Note_on_c, 4, 81, 94
6, 738729, Note_on_c, 4, 81, 0
6, 738729, Note_on_c, 4, 79, 86
6, 738729, Note_on_c, 4, 55, 93
6, 738729, Note_on_c, 4, 67, 93
6, 738846, Note_on_c, 4, 67, 0
6, 738846, Note_on_c, 4, 55, 0
6, 738850, Note_on_c, 4, 79, 0
6, 738850, Note_on_c, 4, 82, 97
6, 738970, Note_on_c, 4, 82, 0
6, 738970, Note_on_c, 4, 81, 85
6, 738970, Note_on_c, 4, 57, 95
6, 738970, Note_on_c, 4, 69, 95
6, 739089, Note_on_c, 4, 69, 0
6, 739089, Note_on_c, 4, 57, 0
6, 739092, Note_on_c, 4, 81, 0
6, 739092, Note_on_c, 4, 84, 101
6, 739200, Note_on_c, 4, 84, 0
6, 739212, Note_on_c, 4, 82, 75
6, 739212, Note_on_c, 4, 58, 90
6, 739212, Note_on_c, 4, 70, 90
6, 739330, Note_on_c, 4, 70, 0
6, 739330, Note_on_c, 4, 58, 0
6, 739332, Note_on_c, 4, 82, 0
6, 739332, Note_on_c, 4, 86, 105
6, 739452, Note_on_c, 4, 86, 0
6, 739452, Note_on_c, 4, 84, 78
6, 739452, Note_on_c, 4, 60, 94
6, 739452, Note_on_c, 4, 72, 94
6, 739570, Note_on_c, 4, 72, 0
6, 739570, Note_on_c, 4, 60, 0
6, 739572, Note_on_c, 4, 84, 0
6, 739572, Note_on_c, 4, 87, 95
6, 739690, Note_on_c, 4, 87, 0
6, 739690, Note_on_c, 4, 86, 77
6, 739690, Note_on_c, 4, 62, 98
6, 739690, Note_on_c, 4, 74, 98
6, 739809, Note_on_c, 4, 74, 0
6, 739809, Note_on_c, 4, 62, 0
6, 739809, Note_on_c, 4, 86, 0
6, 739925, Note_on_c, 4, 64, 78
6, 739925, Note_on_c, 4, 40, 91
6, 739925, Note_on_c, 4, 52, 91
6, 740042, Note_on_c, 4, 52, 0
6, 740042, Note_on_c, 4, 40, 0
6, 740042, Note_on_c, 4, 64, 0
6, 740160, Note_on_c, 4, 65, 112
6, 740160, Note_on_c, 4, 41, 106
6, 740160, Note_on_c, 4, 53, 106
6, 740396, Note_on_c, 4, 65, 0
6, 740396, Note_on_c, 4, 67, 95
6, 740516, Note_on_c, 4, 67, 0
6, 740516, Note_on_c, 4, 69, 91
6, 740640, Note_on_c, 4, 69, 0
6, 740640, Note_on_c, 4, 70, 92
6, 740760, Note_on_c, 4, 70, 0
6, 740760, Note_on_c, 4, 72, 95
6, 740880, Note_on_c, 4, 72, 0
6, 740880, Note_on_c, 4, 74, 93
6, 741000, Note_on_c, 4, 74, 0
6, 741000, Note_on_c, 4, 75, 96
6, 741120, Note_on_c, 4, 75, 0
6, 741120, Note_on_c, 4, 53, 0
6, 741120, Note_on_c, 4, 41, 0
6, 741120, Note_on_c, 4, 77, 96
6, 741240, Note_on_c, 4, 77, 0
6, 741240, Note_on_c, 4, 79, 93
6, 741360, Note_on_c, 4, 79, 0
6, 741360, Note_on_c, 4, 81, 98
6, 741480, Note_on_c, 4, 81, 0
6, 741480, Note_on_c, 4, 82, 105
6, 741600, Note_on_c, 4, 82, 0
6, 741600, Note_on_c, 4, 83, 91
6, 741678, Note_on_c, 4, 83, 0
6, 741678, Note_on_c, 4, 84, 94
6, 741758, Note_on_c, 4, 84, 0
6, 741758, Note_on_c, 4, 85, 98
6, 741840, Note_on_c, 4, 85, 0
6, 741840, Note_on_c, 4, 86, 86
6, 741918, Note_on_c, 4, 86, 0
6, 741918, Note_on_c, 4, 87, 97
6, 741998, Note_on_c, 4, 87, 0
6, 741998, Note_on_c, 4, 88, 98
6, 742080, Note_on_c, 4, 88, 0
6, 742080, Note_on_c, 4, 89, 87
6, 742197, Note_on_c, 4, 89, 0
6, 742440, Note_on_c, 4, 82, 75
6, 742560, Note_on_c, 4, 82, 0
6, 742560, Note_on_c, 4, 84, 97
6, 742680, Note_on_c, 4, 84, 0
6, 742680, Note_on_c, 4, 86, 93
6, 742802, Note_on_c, 4, 86, 0
6, 742802, Note_on_c, 4, 84, 75
6, 742862, Note_on_c, 4, 84, 0
6, 742862, Note_on_c, 4, 86, 94
6, 742922, Note_on_c, 4, 86, 0
6, 742922, Note_on_c, 4, 84, 74
6, 742982, Note_on_c, 4, 84, 0
6, 742982, Note_on_c, 4, 86, 85
6, 743040, Note_on_c, 4, 86, 0
6, 743042, Note_on_c, 4, 84, 81
6, 743102, Note_on_c, 4, 84, 0
6, 743102, Note_on_c, 4, 86, 94
6, 743161, Note_on_c, 4, 86, 0
6, 743161, Note_on_c, 4, 84, 78
6, 743221, Note_on_c, 4, 84, 0
6, 743221, Note_on_c, 4, 86, 95
6, 743281, Note_on_c, 4, 86, 0
6, 743281, Note_on_c, 4, 84, 75
6, 743341, Note_on_c, 4, 84, 0
6, 743341, Note_on_c, 4, 86, 89
6, 743401, Note_on_c, 4, 86, 0
6, 743401, Note_on_c, 4, 84, 74
6, 743461, Note_on_c, 4, 84, 0
6, 743461, Note_on_c, 4, 86, 99
6, 743521, Note_on_c, 4, 86, 0
6, 743521, Note_on_c, 4, 84, 73
6, 743581, Note_on_c, 4, 84, 0
6, 743581, Note_on_c, 4, 86, 91
6, 743641, Note_on_c, 4, 86, 0
6, 743641, Note_on_c, 4, 84, 73
6, 743701, Note_on_c, 4, 84, 0
6, 743701, Note_on_c, 4, 86, 87
6, 743761, Note_on_c, 4, 86, 0
6, 743761, Note_on_c, 4, 84, 72
6, 743761, Note_on_c, 4, 53, 78
6, 743761, Note_on_c, 4, 57, 78
6, 743761, Note_on_c, 4, 63, 78
6, 743821, Note_on_c, 4, 84, 0
6, 743821, Note_on_c, 4, 86, 86
6, 743881, Note_on_c, 4, 86, 0
6, 743881, Note_on_c, 4, 84, 69
6, 743941, Note_on_c, 4, 84, 0
6, 743941, Note_on_c, 4, 86, 94
6, 744001, Note_on_c, 4, 86, 0
6, 744001, Note_on_c, 4, 84, 73
6, 744061, Note_on_c, 4, 84, 0
6, 744061, Note_on_c, 4, 86, 89
6, 744121, Note_on_c, 4, 86, 0
6, 744121, Note_on_c, 4, 84, 70
6, 744181, Note_on_c, 4, 84, 0
6, 744181, Note_on_c, 4, 86, 92
6, 744240, Note_on_c, 4, 86, 0
6, 744240, Note_on_c, 4, 84, 81
6, 744300, Note_on_c, 4, 84, 0
6, 744300, Note_on_c, 4, 86, 98
6, 744360, Note_on_c, 4, 86, 0
6, 744360, Note_on_c, 4, 84, 73
6, 744420, Note_on_c, 4, 84, 0
6, 744420, Note_on_c, 4, 86, 88
6, 744480, Note_on_c, 4, 86, 0
6, 744480, Note_on_c, 4, 84, 71
6, 744540, Note_on_c, 4, 84, 0
6, 744540, Note_on_c, 4, 86, 94
6, 744600, Note_on_c, 4, 86, 0
6, 744600, Note_on_c, 4, 84, 75
6, 744660, Note_on_c, 4, 84, 0
6, 744660, Note_on_c, 4, 86, 91
6, 744717, Note_on_c, 4, 86, 0
6, 744717, Note_on_c, 4, 82, 72
6, 744836, Note_on_c, 4, 82, 0
6, 744836, Note_on_c, 4, 84, 88
6, 744960, Note_on_c, 4, 84, 0
6, 744960, Note_on_c, 4, 63, 0
6, 744960, Note_on_c, 4, 57, 0
6, 744960, Note_on_c, 4, 53, 0
6, 744960, Note_on_c, 4, 82, 77
6, 744960, Note_on_c, 4, 58, 81
6, 744960, Note_on_c, 4, 62, 81
6, 745917, Note_on_c, 4, 62, 0
6, 745917, Note_on_c, 4, 58, 0
6, 745917, Note_on_c, 4, 82, 0
6, 745917, End_track
7, 0, Start_track
7, 0, Title_t, "Violins I"
7, 0, Program_c, 5, 48
7, 0, Control_c, 5, 7, 86
7, 0, Control_c, 5, 10, 16
7, 0, Control_c, 5, 121, 0
7, 0, Control_c, 5, 91, 60
7, 0, Note_on_c, 5, 70, 56
7, 237, Note_on_c, 5, 70, 0
7, 480, Note_on_c, 5, 70, 56
7, 657, Note_on_c, 5, 70, 0
7, 840, Note_on_c, 5, 70, 68
7, 897, Note_on_c, 5, 70, 0
7, 960, Note_on_c, 5, 70, 60
7, 1197, Note_on_c, 5, 70, 0
7, 1440, Note_on_c, 5, 70, 58
7, 1629, Note_on_c, 5, 70, 0
7, 1920, Note_on_c, 5, 72, 75
7, 2160, Note_on_c, 5, 72, 0
7, 2160, Note_on_c, 5, 69, 59
7, 2350, Note_on_c, 5, 69, 0
7, 2400, Note_on_c, 5, 70, 67
7, 2880, Note_on_c, 5, 70, 0
7, 3840, Note_on_c, 5, 72, 49
7, 4077, Note_on_c, 5, 72, 0
7, 4320, Note_on_c, 5, 72, 62
7, 4497, Note_on_c, 5, 72, 0
7, 4680, Note_on_c, 5, 72, 65
7, 4737, Note_on_c, 5, 72, 0
7, 4800, Note_on_c, 5, 72, 51
7, 5037, Note_on_c, 5, 72, 0
7, 5280, Note_on_c, 5, 72, 60
7, 5469, Note_on_c, 5, 72, 0
7, 5760, Note_on_c, 5, 70, 60
7, 6000, Note_on_c, 5, 70, 0
7, 6000, Note_on_c, 5, 72, 58
7, 6120, Note_on_c, 5, 72, 0
7, 6120, Note_on_c, 5, 74, 70
7, 6240, Note_on_c, 5, 74, 0
7, 6240, Note_on_c, 5, 72, 56
7, 6621, Note_on_c, 5, 72, 0
7, 7680, Note_on_c, 5, 74, 47
7, 8400, Note_on_c, 5, 74, 0
7, 8400, Note_on_c, 5, 70, 47
7, 8590, Note_on_c, 5, 70, 0
7, 8640, Note_on_c, 5, 75, 74
7, 9360, Note_on_c, 5, 75, 0
7, 9360, Note_on_c, 5, 72, 52
7, 9552, Note_on_c, 5, 72, 0
7, 9605, Note_on_c, 5, 77, 109
7, 9960, Note_on_c, 5, 77, 0
7, 9960, Note_on_c, 5, 74, 51
7, 10085, Note_on_c, 5, 74, 0
7, 10085, Note_on_c, 5, 77, 69
7, 10800, Note_on_c, 5, 77, 0
7, 10800, Note_on_c, 5, 79, 68
7, 10920, Note_on_c, 5, 79, 0
7, 10920, Note_on_c, 5, 77, 53
7, 11032, Note_on_c, 5, 77, 0
7, 11032, Note_on_c, 5, 75, 55
7, 11266, Note_on_c, 5, 75, 0
7, 11266, Note_on_c, 5, 74, 52
7, 11360, Note_on_c, 5, 74, 0
7, 11516, Note_on_c, 5, 72, 55
7, 11753, Note_on_c, 5, 72, 0
7, 11753, Note_on_c, 5, 74, 70
7, 11813, Note_on_c, 5, 74, 0
7, 11813, Note_on_c, 5, 72, 50
7, 11873, Note_on_c, 5, 72, 0
7, 11873, Note_on_c, 5, 71, 53
7, 12000, Note_on_c, 5, 71, 0
7, 12000, Note_on_c, 5, 72, 65
7, 12190, Note_on_c, 5, 72, 0
7, 12240, Note_on_c, 5, 74, 73
7, 12357, Note_on_c, 5, 74, 0
7, 12480, Note_on_c, 5, 75, 71
7, 12597, Note_on_c, 5, 75, 0
7, 12713, Note_on_c, 5, 67, 46
7, 12949, Note_on_c, 5, 67, 0
7, 12949, Note_on_c, 5, 72, 77
7, 13189, Note_on_c, 5, 72, 0
7, 13189, Note_on_c, 5, 70, 54
7, 13381, Note_on_c, 5, 70, 0
7, 13436, Note_on_c, 5, 70, 61
7, 13673, Note_on_c, 5, 70, 0
7, 13673, Note_on_c, 5, 69, 57
7, 13913, Note_on_c, 5, 69, 0
7, 13913, Note_on_c, 5, 67, 52
7, 14153, Note_on_c, 5, 67, 0
7, 14153, Note_on_c, 5, 65, 47
7, 14396, Note_on_c, 5, 65, 0
7, 14396, Note_on_c, 5, 66, 67
7, 14640, Note_on_c, 5, 66, 0
7, 14640, Note_on_c, 5, 67, 65
7, 14881, Note_on_c, 5, 67, 0
7, 14881, Note_on_c, 5, 68, 64
7, 15126, Note_on_c, 5, 68, 0
7, 15126, Note_on_c, 5, 69, 69
7, 15318, Note_on_c, 5, 69, 0
7, 15365, Note_on_c, 5, 70, 70
7, 15842, Note_on_c, 5, 70, 0
7, 17760, Note_on_c, 5, 70, 55
7, 18720, Note_on_c, 5, 70, 0
7, 18720, Note_on_c, 5, 71, 65
7, 19101, Note_on_c, 5, 71, 0
7, 19200, Note_on_c, 5, 72, 71
7, 19680, Note_on_c, 5, 72, 0
7, 21600, Note_on_c, 5, 72, 55
7, 22560, Note_on_c, 5, 72, 0
7, 22560, Note_on_c, 5, 73, 70
7, 22941, Note_on_c, 5, 73, 0
7, 23040, Note_on_c, 5, 74, 70
7, 23157, Note_on_c, 5, 74, 0
7, 23280, Note_on_c, 5, 74, 56
7, 23760, Note_on_c, 5, 74, 0
7, 23760, Note_on_c, 5, 70, 44
7, 23950, Note_on_c, 5, 70, 0
7, 24000, Note_on_c, 5, 75, 73
7, 24117, Note_on_c, 5, 75, 0
7, 24240, Note_on_c, 5, 75, 62
7, 24720, Note_on_c, 5, 75, 0
7, 24720, Note_on_c, 5, 72, 51
7, 24910, Note_on_c, 5, 72, 0
7, 24960, Note_on_c, 5, 77, 75
7, 25200, Note_on_c, 5, 77, 0
7, 25200, Note_on_c, 5, 74, 55
7, 25390, Note_on_c, 5, 74, 0
7, 25440, Note_on_c, 5, 82, 76
7, 25557, Note_on_c, 5, 82, 0
7, 25680, Note_on_c, 5, 82, 67
7, 25797, Note_on_c, 5, 82, 0
7, 25920, Note_on_c, 5, 72, 42
7, 26170, Note_on_c, 5, 72, 0
7, 26170, Note_on_c, 5, 75, 63
7, 26368, Note_on_c, 5, 75, 0
7, 26421, Note_on_c, 5, 79, 76
7, 26540, Note_on_c, 5, 79, 0
7, 26668, Note_on_c, 5, 79, 67
7, 26785, Note_on_c, 5, 79, 0
7, 26896, Note_on_c, 5, 70, 45
7, 28321, Note_on_c, 5, 70, 0
7, 28321, Note_on_c, 5, 69, 55
7, 28560, Note_on_c, 5, 69, 0
7, 28560, Note_on_c, 5, 75, 81
7, 28750, Note_on_c, 5, 75, 0
7, 28796, Note_on_c, 5, 74, 54
7, 28958, Note_on_c, 5, 74, 0
7, 28958, Note_on_c, 5, 77, 79
7, 29118, Note_on_c, 5, 77, 0
7, 29118, Note_on_c, 5, 82, 79
7, 29248, Note_on_c, 5, 82, 0
7, 29280, Note_on_c, 5, 82, 60
7, 29358, Note_on_c, 5, 82, 0
7, 29442, Note_on_c, 5, 82, 64
7, 29521, Note_on_c, 5, 82, 0
7, 29601, Note_on_c, 5, 82, 62
7, 29680, Note_on_c, 5, 82, 0
7, 29761, Note_on_c, 5, 72, 45
7, 29918, Note_on_c, 5, 72, 0
7, 29918, Note_on_c, 5, 75, 70
7, 30078, Note_on_c, 5, 75, 0
7, 30078, Note_on_c, 5, 79, 75
7, 30201, Note_on_c, 5, 79, 0
7, 30236, Note_on_c, 5, 79, 60
7, 30314, Note_on_c, 5, 79, 0
7, 30394, Note_on_c, 5, 79, 61
7, 30473, Note_on_c, 5, 79, 0
7, 30554, Note_on_c, 5, 79, 70
7, 30633, Note_on_c, 5, 79, 0
7, 30717, Note_on_c, 5, 70, 48
7, 31196, Note_on_c, 5, 70, 0
7, 31196, Note_on_c, 5, 74, 73
7, 31920, Note_on_c, 5, 74, 0
7, 31920, Note_on_c, 5, 77, 75
7, 32160, Note_on_c, 5, 77, 0
7, 32160, Note_on_c, 5, 75, 58
7, 32400, Note_on_c, 5, 75, 0
7, 32400, Note_on_c, 5, 72, 48
7, 32640, Note_on_c, 5, 72, 0
7, 32640, Note_on_c, 5, 62, 83
7, 32640, Note_on_c, 5, 70, 83
7, 33600, Note_on_c, 5, 70, 0
7, 33600, Note_on_c, 5, 62, 0
7, 33840, Note_on_c, 5, 82, 92
7, 33957, Note_on_c, 5, 82, 0
7, 34080, Note_on_c, 5, 82, 94
7, 34197, Note_on_c, 5, 82, 0
7, 34320, Note_on_c, 5, 82, 102
7, 34437, Note_on_c, 5, 82, 0
7, 34560, Note_on_c, 5, 82, 95
7, 34620, Note_on_c, 5, 82, 0
7, 34620, Note_on_c, 5, 84, 110
7, 34680, Note_on_c, 5, 84, 0
7, 34680, Note_on_c, 5, 82, 93
7, 34800, Note_on_c, 5, 82, 0
7, 34800, Note_on_c, 5, 81, 90
7, 35040, Note_on_c, 5, 81, 0
7, 35040, Note_on_c, 5, 81, 90
7, 36000, Note_on_c, 5, 81, 0
7, 36000, Note_on_c, 5, 82, 111
7, 36480, Note_on_c, 5, 82, 0
7, 36480, Note_on_c, 5, 83, 110
7, 36720, Note_on_c, 5, 83, 0
7, 36720, Note_on_c, 5, 84, 110
7, 36960, Note_on_c, 5, 84, 0
7, 36960, Note_on_c, 5, 84, 104
7, 37680, Note_on_c, 5, 84, 0
7, 37680, Note_on_c, 5, 84, 103
7, 37797, Note_on_c, 5, 84, 0
7, 37920, Note_on_c, 5, 84, 93
7, 38037, Note_on_c, 5, 84, 0
7, 38160, Note_on_c, 5, 84, 96
7, 38277, Note_on_c, 5, 84, 0
7, 38400, Note_on_c, 5, 84, 93
7, 38640, Note_on_c, 5, 84, 0
7, 38640, Note_on_c, 5, 86, 114
7, 38880, Note_on_c, 5, 86, 0
7, 38880, Note_on_c, 5, 82, 76
7, 39360, Note_on_c, 5, 82, 0
7, 39600, Note_on_c, 5, 82, 88
7, 39717, Note_on_c, 5, 82, 0
7, 39840, Note_on_c, 5, 82, 93
7, 39957, Note_on_c, 5, 82, 0
7, 40080, Note_on_c, 5, 82, 97
7, 40197, Note_on_c, 5, 82, 0
7, 40320, Note_on_c, 5, 82, 95
7, 40380, Note_on_c, 5, 82, 0
7, 40380, Note_on_c, 5, 84, 111
7, 40440, Note_on_c, 5, 84, 0
7, 40440, Note_on_c, 5, 82, 83
7, 40560, Note_on_c, 5, 82, 0
7, 40560, Note_on_c, 5, 81, 87
7, 40800, Note_on_c, 5, 81, 0
7, 40800, Note_on_c, 5, 81, 94
7, 41760, Note_on_c, 5, 81, 0
7, 41760, Note_on_c, 5, 82, 104
7, 42240, Note_on_c, 5, 82, 0
7, 42240, Note_on_c, 5, 83, 114
7, 42480, Note_on_c, 5, 83, 0
7, 42480, Note_on_c, 5, 84, 108
7, 42720, Note_on_c, 5, 84, 0
7, 42720, Note_on_c, 5, 84, 100
7, 43440, Note_on_c, 5, 84, 0
7, 43440, Note_on_c, 5, 84, 93
7, 43557, Note_on_c, 5, 84, 0
7, 43680, Note_on_c, 5, 84, 89
7, 43797, Note_on_c, 5, 84, 0
7, 43920, Note_on_c, 5, 84, 108
7, 44037, Note_on_c, 5, 84, 0
7, 44160, Note_on_c, 5, 86, 114
7, 44277, Note_on_c, 5, 86, 0
7, 44400, Note_on_c, 5, 77, 67
7, 44517, Note_on_c, 5, 77, 0
7, 44640, Note_on_c, 5, 79, 99
7, 44700, Note_on_c, 5, 79, 0
7, 44700, Note_on_c, 5, 77, 86
7, 44760, Note_on_c, 5, 77, 0
7, 44760, Note_on_c, 5, 76, 93
7, 44820, Note_on_c, 5, 76, 0
7, 44820, Note_on_c, 5, 77, 98
7, 45120, Note_on_c, 5, 77, 0
7, 45120, Note_on_c, 5, 82, 126
7, 45237, Note_on_c, 5, 82, 0
7, 45360, Note_on_c, 5, 74, 73
7, 45477, Note_on_c, 5, 74, 0
7, 45600, Note_on_c, 5, 75, 101
7, 45660, Note_on_c, 5, 75, 0
7, 45660, Note_on_c, 5, 74, 86
7, 45720, Note_on_c, 5, 74, 0
7, 45720, Note_on_c, 5, 72, 82
7, 45780, Note_on_c, 5, 72, 0
7, 45780, Note_on_c, 5, 74, 110
7, 46080, Note_on_c, 5, 74, 0
7, 46080, Note_on_c, 5, 77, 112
7, 46197, Note_on_c, 5, 77, 0
7, 46320, Note_on_c, 5, 70, 72
7, 46437, Note_on_c, 5, 70, 0
7, 46560, Note_on_c, 5, 72, 107
7, 46620, Note_on_c, 5, 72, 0
7, 46620, Note_on_c, 5, 70, 80
7, 46682, Note_on_c, 5, 70, 0
7, 46682, Note_on_c, 5, 69, 86
7, 46742, Note_on_c, 5, 69, 0
7, 46742, Note_on_c, 5, 70, 101
7, 47040, Note_on_c, 5, 70, 0
7, 47040, Note_on_c, 5, 74, 115
7, 47157, Note_on_c, 5, 74, 0
7, 47268, Note_on_c, 5, 65, 70
7, 47386, Note_on_c, 5, 65, 0
7, 47494, Note_on_c, 5, 67, 100
7, 47554, Note_on_c, 5, 67, 0
7, 47554, Note_on_c, 5, 65, 83
7, 47609, Note_on_c, 5, 65, 0
7, 47609, Note_on_c, 5, 64, 86
7, 47669, Note_on_c, 5, 64, 0
7, 47669, Note_on_c, 5, 65, 104
7, 48000, Note_on_c, 5, 65, 0
7, 48000, Note_on_c, 5, 70, 120
7, 48106, Note_on_c, 5, 70, 0
7, 48228, Note_on_c, 5, 62, 67
7, 48346, Note_on_c, 5, 62, 0
7, 48472, Note_on_c, 5, 62, 84
7, 49200, Note_on_c, 5, 62, 0
7, 49200, Note_on_c, 5, 64, 108
7, 49320, Note_on_c, 5, 64, 0
7, 49320, Note_on_c, 5, 65, 111
7, 49440, Note_on_c, 5, 65, 0
7, 49440, Note_on_c, 5, 67, 112
7, 49680, Note_on_c, 5, 67, 0
7, 49680, Note_on_c, 5, 64, 89
7, 49920, Note_on_c, 5, 64, 0
7, 49920, Note_on_c, 5, 65, 106
7, 50157, Note_on_c, 5, 65, 0
7, 50400, Note_on_c, 5, 69, 126
7, 50400, Note_on_c, 5, 77, 126
7, 50637, Note_on_c, 5, 77, 0
7, 50637, Note_on_c, 5, 69, 0
7, 51841, Note_on_c, 5, 63, 48
7, 61440, Note_on_c, 5, 63, 0
7, 61440, Note_on_c, 5, 59, 47
7, 62400, Note_on_c, 5, 59, 0
7, 62400, Note_on_c, 5, 68, 72
7, 63256, Note_on_c, 5, 68, 0
7, 63360, Note_on_c, 5, 66, 46
7, 64320, Note_on_c, 5, 66, 0
7, 64320, Note_on_c, 5, 65, 51
7, 66240, Note_on_c, 5, 65, 0
7, 66240, Note_on_c, 5, 66, 57
7, 68160, Note_on_c, 5, 66, 0
7, 68160, Note_on_c, 5, 63, 40
7, 69016, Note_on_c, 5, 63, 0
7, 69120, Note_on_c, 5, 61, 41
7, 69237, Note_on_c, 5, 61, 0
7, 69360, Note_on_c, 5, 70, 72
7, 69600, Note_on_c, 5, 70, 0
7, 69600, Note_on_c, 5, 69, 52
7, 69840, Note_on_c, 5, 69, 0
7, 69840, Note_on_c, 5, 70, 57
7, 70030, Note_on_c, 5, 70, 0
7, 70320, Note_on_c, 5, 61, 46
7, 70437, Note_on_c, 5, 61, 0
7, 70560, Note_on_c, 5, 61, 51
7, 70677, Note_on_c, 5, 61, 0
7, 70800, Note_on_c, 5, 61, 52
7, 70917, Note_on_c, 5, 61, 0
7, 71280, Note_on_c, 5, 60, 38
7, 71397, Note_on_c, 5, 60, 0
7, 71520, Note_on_c, 5, 60, 48
7, 71637, Note_on_c, 5, 60, 0
7, 71760, Note_on_c, 5, 60, 57
7, 71877, Note_on_c, 5, 60, 0
7, 72240, Note_on_c, 5, 60, 41
7, 72357, Note_on_c, 5, 60, 0
7, 72480, Note_on_c, 5, 60, 52
7, 72597, Note_on_c, 5, 60, 0
7, 72720, Note_on_c, 5, 60, 57
7, 72837, Note_on_c, 5, 60, 0
7, 72960, Note_on_c, 5, 62, 50
7, 73200, Note_on_c, 5, 62, 0
7, 73200, Note_on_c, 5, 65, 47
7, 73440, Note_on_c, 5, 65, 0
7, 73440, Note_on_c, 5, 62, 39
7, 73680, Note_on_c, 5, 62, 0
7, 73680, Note_on_c, 5, 65, 42
7, 73920, Note_on_c, 5, 65, 0
7, 73920, Note_on_c, 5, 62, 38
7, 74160, Note_on_c, 5, 62, 0
7, 74160, Note_on_c, 5, 65, 51
7, 74400, Note_on_c, 5, 65, 0
7, 74400, Note_on_c, 5, 62, 40
7, 74640, Note_on_c, 5, 62, 0
7, 74640, Note_on_c, 5, 65, 48
7, 74880, Note_on_c, 5, 65, 0
7, 74880, Note_on_c, 5, 62, 38
7, 75120, Note_on_c, 5, 62, 0
7, 75120, Note_on_c, 5, 65, 48
7, 75360, Note_on_c, 5, 65, 0
7, 75360, Note_on_c, 5, 62, 38
7, 75600, Note_on_c, 5, 62, 0
7, 75600, Note_on_c, 5, 65, 41
7, 75840, Note_on_c, 5, 65, 0
7, 75840, Note_on_c, 5, 62, 41
7, 76080, Note_on_c, 5, 62, 0
7, 76080, Note_on_c, 5, 65, 50
7, 76320, Note_on_c, 5, 65, 0
7, 76320, Note_on_c, 5, 62, 38
7, 76560, Note_on_c, 5, 62, 0
7, 76560, Note_on_c, 5, 65, 44
7, 76750, Note_on_c, 5, 65, 0
7, 76800, Note_on_c, 5, 60, 35
7, 77040, Note_on_c, 5, 60, 0
7, 77040, Note_on_c, 5, 63, 49
7, 77280, Note_on_c, 5, 63, 0
7, 77280, Note_on_c, 5, 60, 46
7, 77520, Note_on_c, 5, 60, 0
7, 77520, Note_on_c, 5, 63, 48
7, 77760, Note_on_c, 5, 63, 0
7, 77760, Note_on_c, 5, 60, 36
7, 78000, Note_on_c, 5, 60, 0
7, 78000, Note_on_c, 5, 63, 51
7, 78240, Note_on_c, 5, 63, 0
7, 78240, Note_on_c, 5, 60, 39
7, 78480, Note_on_c, 5, 60, 0
7, 78480, Note_on_c, 5, 63, 47
7, 78720, Note_on_c, 5, 63, 0
7, 78720, Note_on_c, 5, 60, 34
7, 78960, Note_on_c, 5, 60, 0
7, 78960, Note_on_c, 5, 63, 55
7, 79200, Note_on_c, 5, 63, 0
7, 79200, Note_on_c, 5, 60, 40
7, 79433, Note_on_c, 5, 60, 0
7, 79433, Note_on_c, 5, 63, 50
7, 79680, Note_on_c, 5, 63, 0
7, 79680, Note_on_c, 5, 60, 41
7, 79920, Note_on_c, 5, 60, 0
7, 79920, Note_on_c, 5, 63, 49
7, 80172, Note_on_c, 5, 63, 0
7, 80172, Note_on_c, 5, 60, 33
7, 80420, Note_on_c, 5, 60, 0
7, 80420, Note_on_c, 5, 63, 49
7, 80640, Note_on_c, 5, 63, 0
7, 80658, Note_on_c, 5, 62, 38
7, 80894, Note_on_c, 5, 62, 0
7, 80894, Note_on_c, 5, 65, 47
7, 81132, Note_on_c, 5, 65, 0
7, 81132, Note_on_c, 5, 62, 34
7, 81369, Note_on_c, 5, 62, 0
7, 81369, Note_on_c, 5, 65, 52
7, 81606, Note_on_c, 5, 65, 0
7, 81606, Note_on_c, 5, 62, 36
7, 81842, Note_on_c, 5, 62, 0
7, 81842, Note_on_c, 5, 65, 46
7, 82081, Note_on_c, 5, 65, 0
7, 82081, Note_on_c, 5, 62, 38
7, 82320, Note_on_c, 5, 62, 0
7, 82320, Note_on_c, 5, 65, 40
7, 82560, Note_on_c, 5, 65, 0
7, 82560, Note_on_c, 5, 62, 39
7, 82800, Note_on_c, 5, 62, 0
7, 82800, Note_on_c, 5, 65, 48
7, 83040, Note_on_c, 5, 65, 0
7, 83040, Note_on_c, 5, 62, 40
7, 83280, Note_on_c, 5, 62, 0
7, 83280, Note_on_c, 5, 65, 54
7, 83520, Note_on_c, 5, 65, 0
7, 83520, Note_on_c, 5, 62, 46
7, 83760, Note_on_c, 5, 62, 0
7, 83760, Note_on_c, 5, 65, 47
7, 84000, Note_on_c, 5, 65, 0
7, 84000, Note_on_c, 5, 62, 34
7, 84240, Note_on_c, 5, 62, 0
7, 84240, Note_on_c, 5, 65, 50
7, 84480, Note_on_c, 5, 65, 0
7, 84480, Note_on_c, 5, 60, 26
7, 84720, Note_on_c, 5, 60, 0
7, 84720, Note_on_c, 5, 63, 45
7, 84960, Note_on_c, 5, 63, 0
7, 84960, Note_on_c, 5, 60, 34
7, 85200, Note_on_c, 5, 60, 0
7, 85200, Note_on_c, 5, 63, 51
7, 85440, Note_on_c, 5, 63, 0
7, 85440, Note_on_c, 5, 60, 33
7, 85680, Note_on_c, 5, 60, 0
7, 85680, Note_on_c, 5, 63, 62
7, 85920, Note_on_c, 5, 63, 0
7, 85920, Note_on_c, 5, 60, 33
7, 86160, Note_on_c, 5, 60, 0
7, 86160, Note_on_c, 5, 63, 54
7, 86350, Note_on_c, 5, 63, 0
7, 86400, Note_on_c, 5, 60, 36
7, 86640, Note_on_c, 5, 60, 0
7, 86640, Note_on_c, 5, 63, 49
7, 86880, Note_on_c, 5, 63, 0
7, 86880, Note_on_c, 5, 60, 35
7, 87116, Note_on_c, 5, 60, 0
7, 87116, Note_on_c, 5, 63, 47
7, 87360, Note_on_c, 5, 63, 0
7, 87360, Note_on_c, 5, 60, 37
7, 87600, Note_on_c, 5, 60, 0
7, 87600, Note_on_c, 5, 63, 52
7, 87846, Note_on_c, 5, 63, 0
7, 87846, Note_on_c, 5, 60, 28
7, 88092, Note_on_c, 5, 60, 0
7, 88092, Note_on_c, 5, 63, 54
7, 88320, Note_on_c, 5, 63, 0
7, 88338, Note_on_c, 5, 62, 56
7, 88714, Note_on_c, 5, 62, 0
7, 96002, Note_on_c, 5, 70, 85
7, 96242, Note_on_c, 5, 70, 0
7, 96242, Note_on_c, 5, 72, 111
7, 96302, Note_on_c, 5, 72, 0
7, 96302, Note_on_c, 5, 70, 89
7, 96362, Note_on_c, 5, 70, 0
7, 96362, Note_on_c, 5, 69, 86
7, 96482, Note_on_c, 5, 69, 0
7, 96482, Note_on_c, 5, 70, 108
7, 96720, Note_on_c, 5, 70, 0
7, 96720, Note_on_c, 5, 74, 119
7, 96837, Note_on_c, 5, 74, 0
7, 96960, Note_on_c, 5, 65, 69
7, 97200, Note_on_c, 5, 65, 0
7, 97200, Note_on_c, 5, 65, 92
7, 97440, Note_on_c, 5, 65, 0
7, 97440, Note_on_c, 5, 65, 94
7, 97680, Note_on_c, 5, 65, 0
7, 97680, Note_on_c, 5, 67, 106
7, 97800, Note_on_c, 5, 67, 0
7, 97800, Note_on_c, 5, 69, 109
7, 97920, Note_on_c, 5, 69, 0
7, 97920, Note_on_c, 5, 70, 111
7, 98157, Note_on_c, 5, 70, 0
7, 98157, Note_on_c, 5, 70, 95
7, 98397, Note_on_c, 5, 70, 0
7, 98397, Note_on_c, 5, 70, 99
7, 98517, Note_on_c, 5, 70, 0
7, 98517, Note_on_c, 5, 72, 110
7, 98640, Note_on_c, 5, 72, 0
7, 98640, Note_on_c, 5, 74, 117
7, 98760, Note_on_c, 5, 74, 0
7, 98760, Note_on_c, 5, 75, 110
7, 98880, Note_on_c, 5, 75, 0
7, 98880, Note_on_c, 5, 77, 119
7, 99122, Note_on_c, 5, 77, 0
7, 99122, Note_on_c, 5, 77, 106
7, 99369, Note_on_c, 5, 77, 0
7, 99369, Note_on_c, 5, 77, 93
7, 99614, Note_on_c, 5, 77, 0
7, 99614, Note_on_c, 5, 79, 118
7, 99738, Note_on_c, 5, 79, 0
7, 99738, Note_on_c, 5, 81, 117
7, 99840, Note_on_c, 5, 81, 0
7, 99850, Note_on_c, 5, 82, 109
7, 100089, Note_on_c, 5, 82, 0
7, 100089, Note_on_c, 5, 82, 103
7, 100326, Note_on_c, 5, 82, 0
7, 100326, Note_on_c, 5, 82, 102
7, 100569, Note_on_c, 5, 82, 0
7, 100569, Note_on_c, 5, 81, 92
7, 100689, Note_on_c, 5, 81, 0
7, 100689, Note_on_c, 5, 79, 83
7, 100809, Note_on_c, 5, 79, 0
7, 100809, Note_on_c, 5, 77, 78
7, 101281, Note_on_c, 5, 77, 0
7, 101757, Note_on_c, 5, 77, 54
7, 102717, Note_on_c, 5, 77, 0
7, 102717, Note_on_c, 5, 74, 47
7, 103680, Note_on_c, 5, 74, 0
7, 103680, Note_on_c, 5, 79, 78
7, 104640, Note_on_c, 5, 79, 0
7, 104640, Note_on_c, 5, 72, 36
7, 105496, Note_on_c, 5, 72, 0
7, 105600, Note_on_c, 5, 74, 58
7, 105840, Note_on_c, 5, 74, 0
7, 105840, Note_on_c, 5, 77, 72
7, 106080, Note_on_c, 5, 77, 0
7, 106080, Note_on_c, 5, 75, 57
7, 106320, Note_on_c, 5, 75, 0
7, 106320, Note_on_c, 5, 72, 50
7, 106560, Note_on_c, 5, 72, 0
7, 106560, Note_on_c, 5, 70, 49
7, 107040, Note_on_c, 5, 70, 0
7, 107040, Note_on_c, 5, 72, 67
7, 107520, Note_on_c, 5, 72, 0
7, 107520, Note_on_c, 5, 74, 75
7, 107756, Note_on_c, 5, 74, 0
7, 107756, Note_on_c, 5, 75, 71
7, 107816, Note_on_c, 5, 75, 0
7, 107816, Note_on_c, 5, 74, 61
7, 107880, Note_on_c, 5, 74, 0
7, 107880, Note_on_c, 5, 72, 49
7, 108000, Note_on_c, 5, 72, 0
7, 108000, Note_on_c, 5, 74, 68
7, 108246, Note_on_c, 5, 74, 0
7, 108246, Note_on_c, 5, 75, 71
7, 108490, Note_on_c, 5, 75, 0
7, 108490, Note_on_c, 5, 77, 68
7, 108956, Note_on_c, 5, 77, 0
7, 109429, Note_on_c, 5, 65, 59
7, 110396, Note_on_c, 5, 65, 0
7, 110396, Note_on_c, 5, 62, 48
7, 111360, Note_on_c, 5, 62, 0
7, 111360, Note_on_c, 5, 67, 77
7, 112321, Note_on_c, 5, 67, 0
7, 112321, Note_on_c, 5, 60, 41
7, 113180, Note_on_c, 5, 60, 0
7, 113281, Note_on_c, 5, 62, 61
7, 113521, Note_on_c, 5, 62, 0
7, 113521, Note_on_c, 5, 70, 92
7, 113761, Note_on_c, 5, 70, 0
7, 113761, Note_on_c, 5, 67, 50
7, 114000, Note_on_c, 5, 67, 0
7, 114000, Note_on_c, 5, 63, 49
7, 114190, Note_on_c, 5, 63, 0
7, 114240, Note_on_c, 5, 62, 61
7, 114720, Note_on_c, 5, 62, 0
7, 114720, Note_on_c, 5, 60, 53
7, 115100, Note_on_c, 5, 60, 0
7, 115197, Note_on_c, 5, 82, 70
7, 115313, Note_on_c, 5, 82, 0
7, 115440, Note_on_c, 5, 82, 72
7, 115497, Note_on_c, 5, 82, 0
7, 115560, Note_on_c, 5, 82, 73
7, 115617, Note_on_c, 5, 82, 0
7, 115680, Note_on_c, 5, 82, 74
7, 115797, Note_on_c, 5, 82, 0
7, 115920, Note_on_c, 5, 82, 75
7, 116037, Note_on_c, 5, 82, 0
7, 116160, Note_on_c, 5, 82, 75
7, 116400, Note_on_c, 5, 82, 0
7, 116400, Note_on_c, 5, 86, 74
7, 116590, Note_on_c, 5, 86, 0
7, 116640, Note_on_c, 5, 77, 73
7, 116880, Note_on_c, 5, 77, 0
7, 116880, Note_on_c, 5, 82, 72
7, 117070, Note_on_c, 5, 82, 0
7, 117120, Note_on_c, 5, 74, 70
7, 117237, Note_on_c, 5, 74, 0
7, 117360, Note_on_c, 5, 74, 70
7, 117417, Note_on_c, 5, 74, 0
7, 117480, Note_on_c, 5, 74, 70
7, 117537, Note_on_c, 5, 74, 0
7, 117600, Note_on_c, 5, 74, 73
7, 117717, Note_on_c, 5, 74, 0
7, 117840, Note_on_c, 5, 74, 74
7, 117957, Note_on_c, 5, 74, 0
7, 118080, Note_on_c, 5, 74, 75
7, 118320, Note_on_c, 5, 74, 0
7, 118320, Note_on_c, 5, 77, 76
7, 118510, Note_on_c, 5, 77, 0
7, 118560, Note_on_c, 5, 70, 77
7, 118800, Note_on_c, 5, 70, 0
7, 118800, Note_on_c, 5, 74, 78
7, 118990, Note_on_c, 5, 74, 0
7, 119040, Note_on_c, 5, 65, 68
7, 119157, Note_on_c, 5, 65, 0
7, 119280, Note_on_c, 5, 65, 69
7, 119337, Note_on_c, 5, 65, 0
7, 119400, Note_on_c, 5, 65, 70
7, 119457, Note_on_c, 5, 65, 0
7, 119520, Note_on_c, 5, 65, 72
7, 119637, Note_on_c, 5, 65, 0
7, 119760, Note_on_c, 5, 65, 72
7, 119877, Note_on_c, 5, 65, 0
7, 120000, Note_on_c, 5, 65, 70
7, 120117, Note_on_c, 5, 65, 0
7, 120240, Note_on_c, 5, 65, 70
7, 120357, Note_on_c, 5, 65, 0
7, 120480, Note_on_c, 5, 65, 70
7, 120597, Note_on_c, 5, 65, 0
7, 120720, Note_on_c, 5, 65, 70
7, 120813, Note_on_c, 5, 65, 0
7, 120960, Note_on_c, 5, 77, 73
7, 122880, Note_on_c, 5, 77, 0
7, 122880, Note_on_c, 5, 82, 66
7, 124800, Note_on_c, 5, 82, 0
7, 124800, Note_on_c, 5, 77, 32
7, 125040, Note_on_c, 5, 77, 0
7, 125280, Note_on_c, 5, 74, 39
7, 125520, Note_on_c, 5, 74, 0
7, 125760, Note_on_c, 5, 75, 45
7, 126000, Note_on_c, 5, 75, 0
7, 126240, Note_on_c, 5, 72, 40
7, 126480, Note_on_c, 5, 72, 0
7, 126689, Note_on_c, 5, 58, 83
7, 126805, Note_on_c, 5, 58, 0
7, 126938, Note_on_c, 5, 60, 111
7, 126997, Note_on_c, 5, 60, 0
7, 127062, Note_on_c, 5, 62, 113
7, 127120, Note_on_c, 5, 62, 0
7, 127186, Note_on_c, 5, 63, 103
7, 127244, Note_on_c, 5, 63, 0
7, 127312, Note_on_c, 5, 65, 114
7, 127369, Note_on_c, 5, 65, 0
7, 127440, Note_on_c, 5, 67, 103
7, 127497, Note_on_c, 5, 67, 0
7, 127565, Note_on_c, 5, 69, 114
7, 127622, Note_on_c, 5, 69, 0
7, 127689, Note_on_c, 5, 70, 114
7, 127810, Note_on_c, 5, 70, 0
7, 127810, Note_on_c, 5, 69, 95
7, 127930, Note_on_c, 5, 69, 0
7, 127930, Note_on_c, 5, 70, 110
7, 128050, Note_on_c, 5, 70, 0
7, 128050, Note_on_c, 5, 69, 88
7, 128170, Note_on_c, 5, 69, 0
7, 128170, Note_on_c, 5, 70, 104
7, 128290, Note_on_c, 5, 70, 0
7, 128290, Note_on_c, 5, 69, 87
7, 128410, Note_on_c, 5, 69, 0
7, 128410, Note_on_c, 5, 70, 105
7, 128530, Note_on_c, 5, 70, 0
7, 128530, Note_on_c, 5, 69, 92
7, 128626, Note_on_c, 5, 69, 0
7, 128649, Note_on_c, 5, 70, 108
7, 128766, Note_on_c, 5, 70, 0
7, 128885, Note_on_c, 5, 72, 114
7, 128942, Note_on_c, 5, 72, 0
7, 129005, Note_on_c, 5, 74, 115
7, 129062, Note_on_c, 5, 74, 0
7, 129122, Note_on_c, 5, 75, 117
7, 129181, Note_on_c, 5, 75, 0
7, 129242, Note_on_c, 5, 77, 119
7, 129301, Note_on_c, 5, 77, 0
7, 129362, Note_on_c, 5, 79, 119
7, 129421, Note_on_c, 5, 79, 0
7, 129482, Note_on_c, 5, 81, 114
7, 129541, Note_on_c, 5, 81, 0
7, 129605, Note_on_c, 5, 82, 107
7, 129725, Note_on_c, 5, 82, 0
7, 129725, Note_on_c, 5, 81, 90
7, 129842, Note_on_c, 5, 81, 0
7, 129842, Note_on_c, 5, 82, 99
7, 129962, Note_on_c, 5, 82, 0
7, 129962, Note_on_c, 5, 81, 93
7, 130082, Note_on_c, 5, 81, 0
7, 130082, Note_on_c, 5, 82, 100
7, 130202, Note_on_c, 5, 82, 0
7, 130202, Note_on_c, 5, 81, 85
7, 130321, Note_on_c, 5, 81, 0
7, 130321, Note_on_c, 5, 82, 104
7, 130441, Note_on_c, 5, 82, 0
7, 130441, Note_on_c, 5, 81, 86
7, 130537, Note_on_c, 5, 81, 0
7, 130561, Note_on_c, 5, 82, 104
7, 130800, Note_on_c, 5, 82, 0
7, 131040, Note_on_c, 5, 77, 120
7, 131040, Note_on_c, 5, 86, 120
7, 131277, Note_on_c, 5, 86, 0
7, 131277, Note_on_c, 5, 77, 0
7, 131520, Note_on_c, 5, 58, 93
7, 131941, Note_on_c, 5, 58, 0
7, 147846, Note_on_c, 5, 70, 55
7, 148085, Note_on_c, 5, 70, 0
7, 148325, Note_on_c, 5, 70, 61
7, 148501, Note_on_c, 5, 70, 0
7, 148681, Note_on_c, 5, 70, 56
7, 148740, Note_on_c, 5, 70, 0
7, 148801, Note_on_c, 5, 70, 59
7, 149040, Note_on_c, 5, 70, 0
7, 149280, Note_on_c, 5, 70, 64
7, 149517, Note_on_c, 5, 70, 0
7, 149753, Note_on_c, 5, 72, 65
7, 149996, Note_on_c, 5, 72, 0
7, 149996, Note_on_c, 5, 69, 55
7, 150240, Note_on_c, 5, 69, 0
7, 150240, Note_on_c, 5, 70, 70
7, 150725, Note_on_c, 5, 70, 0
7, 151676, Note_on_c, 5, 72, 54
7, 151912, Note_on_c, 5, 72, 0
7, 152156, Note_on_c, 5, 72, 58
7, 152333, Note_on_c, 5, 72, 0
7, 152516, Note_on_c, 5, 72, 61
7, 152573, Note_on_c, 5, 72, 0
7, 152636, Note_on_c, 5, 72, 61
7, 152873, Note_on_c, 5, 72, 0
7, 153120, Note_on_c, 5, 72, 59
7, 153357, Note_on_c, 5, 72, 0
7, 153592, Note_on_c, 5, 70, 53
7, 153836, Note_on_c, 5, 70, 0
7, 153836, Note_on_c, 5, 72, 72
7, 153960, Note_on_c, 5, 72, 0
7, 153960, Note_on_c, 5, 74, 73
7, 154080, Note_on_c, 5, 74, 0
7, 154080, Note_on_c, 5, 72, 62
7, 154565, Note_on_c, 5, 72, 0
7, 161292, Note_on_c, 5, 77, 48
7, 162245, Note_on_c, 5, 77, 0
7, 162245, Note_on_c, 5, 75, 46
7, 163200, Note_on_c, 5, 75, 0
7, 163200, Note_on_c, 5, 74, 38
7, 164536, Note_on_c, 5, 74, 0
7, 164640, Note_on_c, 5, 75, 58
7, 164880, Note_on_c, 5, 75, 0
7, 164880, Note_on_c, 5, 72, 38
7, 165120, Note_on_c, 5, 72, 0
7, 165120, Note_on_c, 5, 62, 85
7, 165120, Note_on_c, 5, 70, 85
7, 166080, Note_on_c, 5, 70, 0
7, 166080, Note_on_c, 5, 62, 0
7, 166320, Note_on_c, 5, 82, 88
7, 166437, Note_on_c, 5, 82, 0
7, 166560, Note_on_c, 5, 82, 96
7, 166677, Note_on_c, 5, 82, 0
7, 166800, Note_on_c, 5, 82, 91
7, 166917, Note_on_c, 5, 82, 0
7, 167040, Note_on_c, 5, 82, 97
7, 167100, Note_on_c, 5, 82, 0
7, 167100, Note_on_c, 5, 84, 115
7, 167160, Note_on_c, 5, 84, 0
7, 167160, Note_on_c, 5, 82, 80
7, 167280, Note_on_c, 5, 82, 0
7, 167280, Note_on_c, 5, 81, 84
7, 167520, Note_on_c, 5, 81, 0
7, 167520, Note_on_c, 5, 81, 97
7, 168480, Note_on_c, 5, 81, 0
7, 168480, Note_on_c, 5, 82, 103
7, 168960, Note_on_c, 5, 82, 0
7, 168960, Note_on_c, 5, 83, 110
7, 169200, Note_on_c, 5, 83, 0
7, 169200, Note_on_c, 5, 84, 119
7, 169440, Note_on_c, 5, 84, 0
7, 169440, Note_on_c, 5, 84, 105
7, 170160, Note_on_c, 5, 84, 0
7, 170160, Note_on_c, 5, 84, 59
7, 170277, Note_on_c, 5, 84, 0
7, 170400, Note_on_c, 5, 84, 61
7, 170517, Note_on_c, 5, 84, 0
7, 170640, Note_on_c, 5, 84, 64
7, 170757, Note_on_c, 5, 84, 0
7, 170862, Note_on_c, 5, 84, 60
7, 171109, Note_on_c, 5, 84, 0
7, 171109, Note_on_c, 5, 86, 67
7, 171349, Note_on_c, 5, 86, 0
7, 171349, Note_on_c, 5, 82, 44
7, 171840, Note_on_c, 5, 82, 0
7, 178077, Note_on_c, 5, 69, 55
7, 178560, Note_on_c, 5, 69, 0
7, 178560, Note_on_c, 5, 70, 63
7, 179040, Note_on_c, 5, 70, 0
7, 179993, Note_on_c, 5, 81, 50
7, 180480, Note_on_c, 5, 81, 0
7, 180480, Note_on_c, 5, 82, 62
7, 180956, Note_on_c, 5, 82, 0
7, 188162, Note_on_c, 5, 65, 86
7, 188281, Note_on_c, 5, 65, 0
7, 188401, Note_on_c, 5, 67, 104
7, 188460, Note_on_c, 5, 67, 0
7, 188521, Note_on_c, 5, 69, 114
7, 188580, Note_on_c, 5, 69, 0
7, 188641, Note_on_c, 5, 70, 108
7, 188700, Note_on_c, 5, 70, 0
7, 188761, Note_on_c, 5, 72, 116
7, 188820, Note_on_c, 5, 72, 0
7, 188881, Note_on_c, 5, 74, 114
7, 188940, Note_on_c, 5, 74, 0
7, 189002, Note_on_c, 5, 76, 114
7, 189061, Note_on_c, 5, 76, 0
7, 189122, Note_on_c, 5, 77, 102
7, 189242, Note_on_c, 5, 77, 0
7, 189242, Note_on_c, 5, 76, 91
7, 189362, Note_on_c, 5, 76, 0
7, 189362, Note_on_c, 5, 77, 106
7, 189482, Note_on_c, 5, 77, 0
7, 189482, Note_on_c, 5, 76, 93
7, 189602, Note_on_c, 5, 76, 0
7, 189602, Note_on_c, 5, 77, 106
7, 189722, Note_on_c, 5, 77, 0
7, 189722, Note_on_c, 5, 76, 89
7, 189842, Note_on_c, 5, 76, 0
7, 189842, Note_on_c, 5, 77, 112
7, 189962, Note_on_c, 5, 77, 0
7, 189962, Note_on_c, 5, 76, 86
7, 190080, Note_on_c, 5, 76, 0
7, 190086, Note_on_c, 5, 77, 106
7, 190145, Note_on_c, 5, 77, 0
7, 190206, Note_on_c, 5, 72, 71
7, 190265, Note_on_c, 5, 72, 0
7, 190326, Note_on_c, 5, 74, 104
7, 190385, Note_on_c, 5, 74, 0
7, 190442, Note_on_c, 5, 76, 107
7, 190501, Note_on_c, 5, 76, 0
7, 190562, Note_on_c, 5, 77, 108
7, 190621, Note_on_c, 5, 77, 0
7, 190682, Note_on_c, 5, 79, 112
7, 190741, Note_on_c, 5, 79, 0
7, 190802, Note_on_c, 5, 81, 107
7, 190861, Note_on_c, 5, 81, 0
7, 190922, Note_on_c, 5, 79, 85
7, 190981, Note_on_c, 5, 79, 0
7, 191042, Note_on_c, 5, 77, 84
7, 191162, Note_on_c, 5, 77, 0
7, 191162, Note_on_c, 5, 76, 83
7, 191280, Note_on_c, 5, 76, 0
7, 191280, Note_on_c, 5, 77, 101
7, 191400, Note_on_c, 5, 77, 0
7, 191400, Note_on_c, 5, 76, 87
7, 191520, Note_on_c, 5, 76, 0
7, 191520, Note_on_c, 5, 77, 107
7, 191640, Note_on_c, 5, 77, 0
7, 191640, Note_on_c, 5, 76, 88
7, 191760, Note_on_c, 5, 76, 0
7, 191760, Note_on_c, 5, 77, 107
7, 191880, Note_on_c, 5, 77, 0
7, 191880, Note_on_c, 5, 76, 86
7, 192000, Note_on_c, 5, 76, 0
7, 192000, Note_on_c, 5, 77, 108
7, 192480, Note_on_c, 5, 77, 0
7, 195836, Note_on_c, 5, 84, 56
7, 196800, Note_on_c, 5, 84, 0
7, 196800, Note_on_c, 5, 81, 55
7, 197280, Note_on_c, 5, 81, 0
7, 197280, Note_on_c, 5, 77, 51
7, 197760, Note_on_c, 5, 77, 0
7, 197760, Note_on_c, 5, 72, 44
7, 198226, Note_on_c, 5, 72, 0
7, 203520, Note_on_c, 5, 82, 59
7, 204480, Note_on_c, 5, 82, 0
7, 204480, Note_on_c, 5, 79, 50
7, 204960, Note_on_c, 5, 79, 0
7, 204960, Note_on_c, 5, 76, 47
7, 205440, Note_on_c, 5, 76, 0
7, 205440, Note_on_c, 5, 70, 40
7, 205906, Note_on_c, 5, 70, 0
7, 209280, Note_on_c, 5, 74, 53
7, 211676, Note_on_c, 5, 74, 0
7, 211676, Note_on_c, 5, 78, 68
7, 212157, Note_on_c, 5, 78, 0
7, 212157, Note_on_c, 5, 79, 71
7, 212642, Note_on_c, 5, 79, 0
7, 212642, Note_on_c, 5, 82, 70
7, 213028, Note_on_c, 5, 82, 0
7, 213125, Note_on_c, 5, 72, 39
7, 215513, Note_on_c, 5, 72, 0
7, 215513, Note_on_c, 5, 76, 74
7, 215996, Note_on_c, 5, 76, 0
7, 215996, Note_on_c, 5, 77, 71
7, 216482, Note_on_c, 5, 77, 0
7, 216482, Note_on_c, 5, 81, 77
7, 216960, Note_on_c, 5, 81, 0
7, 216962, Note_on_c, 5, 70, 44
7, 218880, Note_on_c, 5, 70, 0
7, 218880, Note_on_c, 5, 70, 57
7, 220800, Note_on_c, 5, 70, 0
7, 220800, Note_on_c, 5, 70, 56
7, 222720, Note_on_c, 5, 70, 0
7, 222721, Note_on_c, 5, 70, 66
7, 226560, Note_on_c, 5, 70, 0
7, 226560, Note_on_c, 5, 70, 63
7, 230400, Note_on_c, 5, 70, 0
7, 230400, Note_on_c, 5, 70, 64
7, 232320, Note_on_c, 5, 70, 0
7, 232320, Note_on_c, 5, 63, 42
7, 233277, Note_on_c, 5, 63, 0
7, 233277, Note_on_c, 5, 65, 68
7, 234136, Note_on_c, 5, 65, 0
7, 234240, Note_on_c, 5, 66, 68
7, 235200, Note_on_c, 5, 66, 0
7, 235200, Note_on_c, 5, 64, 59
7, 236056, Note_on_c, 5, 64, 0
7, 236160, Note_on_c, 5, 65, 64
7, 237120, Note_on_c, 5, 65, 0
7, 237120, Note_on_c, 5, 61, 51
7, 238080, Note_on_c, 5, 61, 0
7, 238080, Note_on_c, 5, 58, 61
7, 239040, Note_on_c, 5, 58, 0
7, 239040, Note_on_c, 5, 60, 65
7, 239896, Note_on_c, 5, 60, 0
7, 240000, Note_on_c, 5, 61, 67
7, 240117, Note_on_c, 5, 61, 0
7, 240240, Note_on_c, 5, 68, 84
7, 240480, Note_on_c, 5, 68, 0
7, 240480, Note_on_c, 5, 67, 54
7, 240720, Note_on_c, 5, 67, 0
7, 240720, Note_on_c, 5, 68, 69
7, 240910, Note_on_c, 5, 68, 0
7, 241200, Note_on_c, 5, 68, 50
7, 241317, Note_on_c, 5, 68, 0
7, 241440, Note_on_c, 5, 68, 62
7, 241557, Note_on_c, 5, 68, 0
7, 241680, Note_on_c, 5, 68, 65
7, 241797, Note_on_c, 5, 68, 0
7, 242161, Note_on_c, 5, 67, 58
7, 242280, Note_on_c, 5, 67, 0
7, 242402, Note_on_c, 5, 67, 63
7, 242521, Note_on_c, 5, 67, 0
7, 242642, Note_on_c, 5, 67, 63
7, 242761, Note_on_c, 5, 67, 0
7, 243112, Note_on_c, 5, 67, 57
7, 243229, Note_on_c, 5, 67, 0
7, 243338, Note_on_c, 5, 67, 54
7, 243457, Note_on_c, 5, 67, 0
7, 243569, Note_on_c, 5, 67, 64
7, 243688, Note_on_c, 5, 67, 0
7, 243829, Note_on_c, 5, 65, 36
7, 244068, Note_on_c, 5, 65, 0
7, 244068, Note_on_c, 5, 69, 60
7, 244308, Note_on_c, 5, 69, 0
7, 244308, Note_on_c, 5, 65, 40
7, 244552, Note_on_c, 5, 65, 0
7, 244552, Note_on_c, 5, 69, 60
7, 244793, Note_on_c, 5, 69, 0
7, 244793, Note_on_c, 5, 65, 37
7, 245036, Note_on_c, 5, 65, 0
7, 245036, Note_on_c, 5, 69, 57
7, 245280, Note_on_c, 5, 69, 0
7, 245280, Note_on_c, 5, 65, 45
7, 245520, Note_on_c, 5, 65, 0
7, 245520, Note_on_c, 5, 69, 68
7, 245760, Note_on_c, 5, 69, 0
7, 245760, Note_on_c, 5, 65, 37
7, 246000, Note_on_c, 5, 65, 0
7, 246000, Note_on_c, 5, 69, 60
7, 246240, Note_on_c, 5, 69, 0
7, 246240, Note_on_c, 5, 65, 38
7, 246480, Note_on_c, 5, 65, 0
7, 246480, Note_on_c, 5, 69, 59
7, 246720, Note_on_c, 5, 69, 0
7, 246720, Note_on_c, 5, 65, 48
7, 246960, Note_on_c, 5, 65, 0
7, 246960, Note_on_c, 5, 69, 60
7, 247200, Note_on_c, 5, 69, 0
7, 247200, Note_on_c, 5, 65, 38
7, 247440, Note_on_c, 5, 65, 0
7, 247440, Note_on_c, 5, 69, 52
7, 247630, Note_on_c, 5, 69, 0
7, 247680, Note_on_c, 5, 64, 40
7, 247920, Note_on_c, 5, 64, 0
7, 247920, Note_on_c, 5, 67, 57
7, 248160, Note_on_c, 5, 67, 0
7, 248160, Note_on_c, 5, 64, 52
7, 248400, Note_on_c, 5, 64, 0
7, 248400, Note_on_c, 5, 67, 58
7, 248640, Note_on_c, 5, 67, 0
7, 248640, Note_on_c, 5, 64, 42
7, 248880, Note_on_c, 5, 64, 0
7, 248880, Note_on_c, 5, 67, 57
7, 249120, Note_on_c, 5, 67, 0
7, 249120, Note_on_c, 5, 64, 43
7, 249360, Note_on_c, 5, 64, 0
7, 249360, Note_on_c, 5, 67, 52
7, 249600, Note_on_c, 5, 67, 0
7, 249600, Note_on_c, 5, 64, 40
7, 249840, Note_on_c, 5, 64, 0
7, 249840, Note_on_c, 5, 67, 56
7, 250080, Note_on_c, 5, 67, 0
7, 250080, Note_on_c, 5, 64, 38
7, 250320, Note_on_c, 5, 64, 0
7, 250320, Note_on_c, 5, 67, 55
7, 250560, Note_on_c, 5, 67, 0
7, 250560, Note_on_c, 5, 64, 54
7, 250800, Note_on_c, 5, 64, 0
7, 250800, Note_on_c, 5, 67, 58
7, 251046, Note_on_c, 5, 67, 0
7, 251046, Note_on_c, 5, 64, 46
7, 251290, Note_on_c, 5, 64, 0
7, 251290, Note_on_c, 5, 67, 63
7, 251520, Note_on_c, 5, 67, 0
7, 251536, Note_on_c, 5, 65, 47
7, 251772, Note_on_c, 5, 65, 0
7, 251772, Note_on_c, 5, 69, 58
7, 252010, Note_on_c, 5, 69, 0
7, 252010, Note_on_c, 5, 65, 44
7, 252246, Note_on_c, 5, 65, 0
7, 252246, Note_on_c, 5, 69, 56
7, 252486, Note_on_c, 5, 69, 0
7, 252486, Note_on_c, 5, 65, 44
7, 252725, Note_on_c, 5, 65, 0
7, 252725, Note_on_c, 5, 69, 62
7, 252961, Note_on_c, 5, 69, 0
7, 252961, Note_on_c, 5, 65, 37
7, 253200, Note_on_c, 5, 65, 0
7, 253200, Note_on_c, 5, 69, 56
7, 253440, Note_on_c, 5, 69, 0
7, 253440, Note_on_c, 5, 65, 42
7, 253680, Note_on_c, 5, 65, 0
7, 253680, Note_on_c, 5, 69, 53
7, 253920, Note_on_c, 5, 69, 0
7, 253920, Note_on_c, 5, 65, 43
7, 254160, Note_on_c, 5, 65, 0
7, 254160, Note_on_c, 5, 69, 54
7, 254400, Note_on_c, 5, 69, 0
7, 254400, Note_on_c, 5, 65, 44
7, 254640, Note_on_c, 5, 65, 0
7, 254640, Note_on_c, 5, 69, 65
7, 254880, Note_on_c, 5, 69, 0
7, 254880, Note_on_c, 5, 65, 45
7, 255120, Note_on_c, 5, 65, 0
7, 255120, Note_on_c, 5, 69, 58
7, 255360, Note_on_c, 5, 69, 0
7, 255360, Note_on_c, 5, 64, 39
7, 255600, Note_on_c, 5, 64, 0
7, 255600, Note_on_c, 5, 67, 53
7, 255840, Note_on_c, 5, 67, 0
7, 255840, Note_on_c, 5, 64, 42
7, 256080, Note_on_c, 5, 64, 0
7, 256080, Note_on_c, 5, 67, 61
7, 256320, Note_on_c, 5, 67, 0
7, 256320, Note_on_c, 5, 64, 48
7, 256560, Note_on_c, 5, 64, 0
7, 256560, Note_on_c, 5, 67, 61
7, 256800, Note_on_c, 5, 67, 0
7, 256800, Note_on_c, 5, 64, 44
7, 257040, Note_on_c, 5, 64, 0
7, 257040, Note_on_c, 5, 67, 60
7, 257230, Note_on_c, 5, 67, 0
7, 257280, Note_on_c, 5, 64, 40
7, 257520, Note_on_c, 5, 64, 0
7, 257520, Note_on_c, 5, 67, 61
7, 257760, Note_on_c, 5, 67, 0
7, 257760, Note_on_c, 5, 64, 43
7, 258000, Note_on_c, 5, 64, 0
7, 258000, Note_on_c, 5, 67, 54
7, 258240, Note_on_c, 5, 67, 0
7, 258240, Note_on_c, 5, 64, 45
7, 258480, Note_on_c, 5, 64, 0
7, 258480, Note_on_c, 5, 67, 57
7, 258726, Note_on_c, 5, 67, 0
7, 258726, Note_on_c, 5, 64, 47
7, 258974, Note_on_c, 5, 64, 0
7, 258974, Note_on_c, 5, 67, 63
7, 259200, Note_on_c, 5, 67, 0
7, 259216, Note_on_c, 5, 65, 43
7, 259597, Note_on_c, 5, 65, 0
7, 278393, Note_on_c, 5, 72, 50
7, 279356, Note_on_c, 5, 72, 0
7, 279356, Note_on_c, 5, 69, 50
7, 280320, Note_on_c, 5, 69, 0
7, 280325, Note_on_c, 5, 74, 83
7, 281282, Note_on_c, 5, 74, 0
7, 281282, Note_on_c, 5, 67, 39
7, 282240, Note_on_c, 5, 67, 0
7, 282240, Note_on_c, 5, 69, 68
7, 282473, Note_on_c, 5, 69, 0
7, 282716, Note_on_c, 5, 70, 53
7, 282956, Note_on_c, 5, 70, 0
7, 283196, Note_on_c, 5, 69, 60
7, 283436, Note_on_c, 5, 69, 0
7, 283676, Note_on_c, 5, 67, 53
7, 283916, Note_on_c, 5, 67, 0
7, 284157, Note_on_c, 5, 65, 52
7, 284636, Note_on_c, 5, 65, 0
7, 285121, Note_on_c, 5, 70, 51
7, 286080, Note_on_c, 5, 70, 0
7, 286080, Note_on_c, 5, 69, 50
7, 286560, Note_on_c, 5, 69, 0
7, 287040, Note_on_c, 5, 70, 60
7, 288000, Note_on_c, 5, 70, 0
7, 288000, Note_on_c, 5, 69, 53
7, 288477, Note_on_c, 5, 69, 0
7, 288960, Note_on_c, 5, 70, 54
7, 289920, Note_on_c, 5, 70, 0
7, 289920, Note_on_c, 5, 69, 51
7, 290392, Note_on_c, 5, 69, 0
7, 298556, Note_on_c, 5, 70, 50
7, 299520, Note_on_c, 5, 70, 0
7, 299520, Note_on_c, 5, 69, 58
7, 300000, Note_on_c, 5, 69, 0
7, 300480, Note_on_c, 5, 70, 55
7, 301440, Note_on_c, 5, 70, 0
7, 301440, Note_on_c, 5, 69, 52
7, 301920, Note_on_c, 5, 69, 0
7, 302400, Note_on_c, 5, 70, 56
7, 303360, Note_on_c, 5, 70, 0
7, 303360, Note_on_c, 5, 69, 52
7, 303833, Note_on_c, 5, 69, 0
7, 304320, Note_on_c, 5, 72, 51
7, 305280, Note_on_c, 5, 72, 0
7, 305290, Note_on_c, 5, 72, 60
7, 306246, Note_on_c, 5, 72, 0
7, 306246, Note_on_c, 5, 72, 62
7, 306486, Note_on_c, 5, 72, 0
7, 306725, Note_on_c, 5, 72, 55
7, 306965, Note_on_c, 5, 72, 0
7, 307205, Note_on_c, 5, 74, 52
7, 307685, Note_on_c, 5, 74, 0
7, 314873, Note_on_c, 5, 72, 53
7, 316077, Note_on_c, 5, 72, 0
7, 316077, Note_on_c, 5, 71, 55
7, 316320, Note_on_c, 5, 71, 0
7, 316320, Note_on_c, 5, 72, 59
7, 316560, Note_on_c, 5, 72, 0
7, 316560, Note_on_c, 5, 71, 52
7, 316800, Note_on_c, 5, 71, 0
7, 316800, Note_on_c, 5, 72, 69
7, 317520, Note_on_c, 5, 72, 0
7, 317520, Note_on_c, 5, 71, 54
7, 317760, Note_on_c, 5, 71, 0
7, 317760, Note_on_c, 5, 72, 69
7, 318000, Note_on_c, 5, 72, 0
7, 318000, Note_on_c, 5, 71, 53
7, 318237, Note_on_c, 5, 71, 0
7, 318237, Note_on_c, 5, 72, 61
7, 318477, Note_on_c, 5, 72, 0
7, 318477, Note_on_c, 5, 71, 60
7, 318720, Note_on_c, 5, 71, 0
7, 318720, Note_on_c, 5, 72, 67
7, 319193, Note_on_c, 5, 72, 0
7, 319193, Note_on_c, 5, 73, 69
7, 319680, Note_on_c, 5, 73, 0
7, 319680, Note_on_c, 5, 74, 69
7, 320160, Note_on_c, 5, 74, 0
7, 320160, Note_on_c, 5, 75, 68
7, 320640, Note_on_c, 5, 75, 0
7, 320640, Note_on_c, 5, 76, 70
7, 321116, Note_on_c, 5, 76, 0
7, 321116, Note_on_c, 5, 77, 58
7, 321600, Note_on_c, 5, 77, 0
7, 321600, Note_on_c, 5, 76, 52
7, 322080, Note_on_c, 5, 76, 0
7, 322080, Note_on_c, 5, 75, 52
7, 322560, Note_on_c, 5, 75, 0
7, 322560, Note_on_c, 5, 74, 53
7, 323040, Note_on_c, 5, 74, 0
7, 326636, Note_on_c, 5, 69, 57
7, 326876, Note_on_c, 5, 69, 0
7, 326876, Note_on_c, 5, 69, 62
7, 327116, Note_on_c, 5, 69, 0
7, 327116, Note_on_c, 5, 69, 61
7, 327360, Note_on_c, 5, 69, 0
7, 327360, Note_on_c, 5, 69, 62
7, 327600, Note_on_c, 5, 69, 0
7, 327600, Note_on_c, 5, 69, 60
7, 327841, Note_on_c, 5, 69, 0
7, 327841, Note_on_c, 5, 69, 55
7, 328085, Note_on_c, 5, 69, 0
7, 328085, Note_on_c, 5, 69, 54
7, 328320, Note_on_c, 5, 69, 0
7, 328326, Note_on_c, 5, 67, 59
7, 328446, Note_on_c, 5, 67, 0
7, 328446, Note_on_c, 5, 67, 54
7, 328565, Note_on_c, 5, 67, 0
7, 328565, Note_on_c, 5, 67, 56
7, 328685, Note_on_c, 5, 67, 0
7, 328685, Note_on_c, 5, 67, 65
7, 328805, Note_on_c, 5, 67, 0
7, 328805, Note_on_c, 5, 67, 59
7, 328925, Note_on_c, 5, 67, 0
7, 328925, Note_on_c, 5, 67, 69
7, 329045, Note_on_c, 5, 67, 0
7, 329045, Note_on_c, 5, 67, 71
7, 329165, Note_on_c, 5, 67, 0
7, 329165, Note_on_c, 5, 67, 79
7, 329281, Note_on_c, 5, 67, 0
7, 329281, Note_on_c, 5, 67, 87
7, 329401, Note_on_c, 5, 67, 0
7, 329401, Note_on_c, 5, 67, 96
7, 329521, Note_on_c, 5, 67, 0
7, 329521, Note_on_c, 5, 67, 76
7, 329640, Note_on_c, 5, 67, 0
7, 329640, Note_on_c, 5, 67, 88
7, 329760, Note_on_c, 5, 67, 0
7, 329760, Note_on_c, 5, 67, 96
7, 329880, Note_on_c, 5, 67, 0
7, 329880, Note_on_c, 5, 67, 104
7, 330000, Note_on_c, 5, 67, 0
7, 330000, Note_on_c, 5, 67, 106
7, 330116, Note_on_c, 5, 67, 0
7, 330116, Note_on_c, 5, 67, 102
7, 330240, Note_on_c, 5, 67, 0
7, 330240, Note_on_c, 5, 57, 88
7, 330240, Note_on_c, 5, 65, 88
7, 331200, Note_on_c, 5, 65, 0
7, 331200, Note_on_c, 5, 57, 0
7, 331440, Note_on_c, 5, 77, 85
7, 331557, Note_on_c, 5, 77, 0
7, 331680, Note_on_c, 5, 77, 97
7, 331797, Note_on_c, 5, 77, 0
7, 331920, Note_on_c, 5, 77, 102
7, 332037, Note_on_c, 5, 77, 0
7, 332160, Note_on_c, 5, 77, 91
7, 332220, Note_on_c, 5, 77, 0
7, 332220, Note_on_c, 5, 79, 110
7, 332280, Note_on_c, 5, 79, 0
7, 332280, Note_on_c, 5, 77, 86
7, 332400, Note_on_c, 5, 77, 0
7, 332400, Note_on_c, 5, 76, 85
7, 332640, Note_on_c, 5, 76, 0
7, 332640, Note_on_c, 5, 76, 91
7, 333600, Note_on_c, 5, 76, 0
7, 333600, Note_on_c, 5, 77, 115
7, 334080, Note_on_c, 5, 77, 0
7, 334080, Note_on_c, 5, 78, 111
7, 334320, Note_on_c, 5, 78, 0
7, 334320, Note_on_c, 5, 79, 106
7, 334560, Note_on_c, 5, 79, 0
7, 334560, Note_on_c, 5, 79, 103
7, 335280, Note_on_c, 5, 79, 0
7, 335280, Note_on_c, 5, 79, 91
7, 335397, Note_on_c, 5, 79, 0
7, 335520, Note_on_c, 5, 79, 95
7, 335637, Note_on_c, 5, 79, 0
7, 335760, Note_on_c, 5, 79, 96
7, 335877, Note_on_c, 5, 79, 0
7, 336000, Note_on_c, 5, 79, 96
7, 336060, Note_on_c, 5, 79, 0
7, 336060, Note_on_c, 5, 81, 107
7, 336120, Note_on_c, 5, 81, 0
7, 336120, Note_on_c, 5, 79, 84
7, 336240, Note_on_c, 5, 79, 0
7, 336240, Note_on_c, 5, 77, 80
7, 336480, Note_on_c, 5, 77, 0
7, 336480, Note_on_c, 5, 77, 93
7, 337440, Note_on_c, 5, 77, 0
7, 337440, Note_on_c, 5, 79, 109
7, 337920, Note_on_c, 5, 79, 0
7, 337920, Note_on_c, 5, 80, 114
7, 338160, Note_on_c, 5, 80, 0
7, 338160, Note_on_c, 5, 81, 117
7, 338400, Note_on_c, 5, 81, 0
7, 338400, Note_on_c, 5, 81, 104
7, 339120, Note_on_c, 5, 81, 0
7, 339120, Note_on_c, 5, 81, 102
7, 339237, Note_on_c, 5, 81, 0
7, 339360, Note_on_c, 5, 81, 95
7, 339477, Note_on_c, 5, 81, 0
7, 339600, Note_on_c, 5, 81, 97
7, 339717, Note_on_c, 5, 81, 0
7, 339840, Note_on_c, 5, 81, 96
7, 339900, Note_on_c, 5, 81, 0
7, 339900, Note_on_c, 5, 82, 104
7, 339960, Note_on_c, 5, 82, 0
7, 339960, Note_on_c, 5, 81, 86
7, 340080, Note_on_c, 5, 81, 0
7, 340080, Note_on_c, 5, 79, 88
7, 340320, Note_on_c, 5, 79, 0
7, 340320, Note_on_c, 5, 79, 95
7, 341280, Note_on_c, 5, 79, 0
7, 341280, Note_on_c, 5, 81, 110
7, 341760, Note_on_c, 5, 81, 0
7, 341760, Note_on_c, 5, 81, 93
7, 342000, Note_on_c, 5, 81, 0
7, 342000, Note_on_c, 5, 82, 108
7, 342240, Note_on_c, 5, 82, 0
7, 342240, Note_on_c, 5, 82, 102
7, 342960, Note_on_c, 5, 82, 0
7, 342960, Note_on_c, 5, 82, 99
7, 343077, Note_on_c, 5, 82, 0
7, 343200, Note_on_c, 5, 82, 95
7, 343317, Note_on_c, 5, 82, 0
7, 343440, Note_on_c, 5, 82, 97
7, 343557, Note_on_c, 5, 82, 0
7, 343680, Note_on_c, 5, 81, 95
7, 343797, Note_on_c, 5, 81, 0
7, 343920, Note_on_c, 5, 77, 69
7, 344037, Note_on_c, 5, 77, 0
7, 344160, Note_on_c, 5, 79, 106
7, 344220, Note_on_c, 5, 79, 0
7, 344220, Note_on_c, 5, 77, 88
7, 344280, Note_on_c, 5, 77, 0
7, 344280, Note_on_c, 5, 76, 92
7, 344340, Note_on_c, 5, 76, 0
7, 344340, Note_on_c, 5, 77, 105
7, 344640, Note_on_c, 5, 77, 0
7, 344640, Note_on_c, 5, 81, 119
7, 344757, Note_on_c, 5, 81, 0
7, 344880, Note_on_c, 5, 72, 73
7, 344997, Note_on_c, 5, 72, 0
7, 345120, Note_on_c, 5, 74, 101
7, 345180, Note_on_c, 5, 74, 0
7, 345180, Note_on_c, 5, 72, 87
7, 345237, Note_on_c, 5, 72, 0
7, 345237, Note_on_c, 5, 71, 87
7, 345297, Note_on_c, 5, 71, 0
7, 345297, Note_on_c, 5, 72, 101
7, 345600, Note_on_c, 5, 72, 0
7, 345600, Note_on_c, 5, 74, 105
7, 345712, Note_on_c, 5, 74, 0
7, 345840, Note_on_c, 5, 70, 83
7, 345957, Note_on_c, 5, 70, 0
7, 346080, Note_on_c, 5, 72, 96
7, 346140, Note_on_c, 5, 72, 0
7, 346140, Note_on_c, 5, 70, 84
7, 346200, Note_on_c, 5, 70, 0
7, 346200, Note_on_c, 5, 69, 82
7, 346260, Note_on_c, 5, 69, 0
7, 346260, Note_on_c, 5, 70, 103
7, 346560, Note_on_c, 5, 70, 0
7, 346560, Note_on_c, 5, 74, 118
7, 346677, Note_on_c, 5, 74, 0
7, 346789, Note_on_c, 5, 65, 65
7, 346908, Note_on_c, 5, 65, 0
7, 347014, Note_on_c, 5, 67, 100
7, 347074, Note_on_c, 5, 67, 0
7, 347074, Note_on_c, 5, 65, 89
7, 347130, Note_on_c, 5, 65, 0
7, 347130, Note_on_c, 5, 64, 88
7, 347190, Note_on_c, 5, 64, 0
7, 347190, Note_on_c, 5, 65, 101
7, 347520, Note_on_c, 5, 65, 0
7, 347520, Note_on_c, 5, 70, 123
7, 347626, Note_on_c, 5, 70, 0
7, 347748, Note_on_c, 5, 62, 67
7, 347866, Note_on_c, 5, 62, 0
7, 347992, Note_on_c, 5, 62, 84
7, 348109, Note_on_c, 5, 62, 0
7, 348232, Note_on_c, 5, 62, 94
7, 348349, Note_on_c, 5, 62, 0
7, 348476, Note_on_c, 5, 62, 95
7, 348593, Note_on_c, 5, 62, 0
7, 348716, Note_on_c, 5, 62, 95
7, 348833, Note_on_c, 5, 62, 0
7, 348960, Note_on_c, 5, 62, 96
7, 349077, Note_on_c, 5, 62, 0
7, 349200, Note_on_c, 5, 62, 97
7, 349317, Note_on_c, 5, 62, 0
7, 349440, Note_on_c, 5, 62, 101
7, 349677, Note_on_c, 5, 62, 0
7, 349920, Note_on_c, 5, 62, 126
7, 349920, Note_on_c, 5, 70, 126
7, 349920, Note_on_c, 5, 82, 126
7, 350157, Note_on_c, 5, 82, 0
7, 350157, Note_on_c, 5, 70, 0
7, 350157, Note_on_c, 5, 62, 0
7, 350400, Note_on_c, 5, 62, 102
7, 350400, Note_on_c, 5, 70, 102
7, 350400, Note_on_c, 5, 82, 102
7, 350637, Note_on_c, 5, 82, 0
7, 350637, Note_on_c, 5, 70, 0
7, 350637, Note_on_c, 5, 62, 0
7, 350880, Note_on_c, 5, 62, 95
7, 350880, Note_on_c, 5, 70, 95
7, 350880, Note_on_c, 5, 82, 95
7, 351117, Note_on_c, 5, 82, 0
7, 351117, Note_on_c, 5, 70, 0
7, 351117, Note_on_c, 5, 62, 0
7, 351360, Note_on_c, 5, 62, 95
7, 351360, Note_on_c, 5, 70, 95
7, 351360, Note_on_c, 5, 82, 95
7, 351840, Note_on_c, 5, 82, 0
7, 351840, Note_on_c, 5, 70, 0
7, 351840, Note_on_c, 5, 62, 0
7, 353280, Note_on_c, 5, 81, 46
7, 353397, Note_on_c, 5, 81, 0
7, 353520, Note_on_c, 5, 81, 58
7, 353577, Note_on_c, 5, 81, 0
7, 353640, Note_on_c, 5, 81, 61
7, 353697, Note_on_c, 5, 81, 0
7, 353760, Note_on_c, 5, 81, 59
7, 353877, Note_on_c, 5, 81, 0
7, 354000, Note_on_c, 5, 81, 68
7, 354117, Note_on_c, 5, 81, 0
7, 354240, Note_on_c, 5, 81, 61
7, 354480, Note_on_c, 5, 81, 0
7, 354480, Note_on_c, 5, 84, 73
7, 354720, Note_on_c, 5, 84, 0
7, 354720, Note_on_c, 5, 77, 40
7, 354960, Note_on_c, 5, 77, 0
7, 354960, Note_on_c, 5, 81, 69
7, 355200, Note_on_c, 5, 81, 0
7, 355200, Note_on_c, 5, 72, 41
7, 355317, Note_on_c, 5, 72, 0
7, 355440, Note_on_c, 5, 72, 57
7, 355497, Note_on_c, 5, 72, 0
7, 355560, Note_on_c, 5, 72, 55
7, 355617, Note_on_c, 5, 72, 0
7, 355680, Note_on_c, 5, 72, 59
7, 355797, Note_on_c, 5, 72, 0
7, 355920, Note_on_c, 5, 72, 62
7, 356037, Note_on_c, 5, 72, 0
7, 356160, Note_on_c, 5, 72, 57
7, 356277, Note_on_c, 5, 72, 0
7, 356400, Note_on_c, 5, 72, 62
7, 356517, Note_on_c, 5, 72, 0
7, 356640, Note_on_c, 5, 72, 56
7, 356757, Note_on_c, 5, 72, 0
7, 356880, Note_on_c, 5, 72, 60
7, 356997, Note_on_c, 5, 72, 0
7, 357120, Note_on_c, 5, 69, 50
7, 359040, Note_on_c, 5, 69, 0
7, 359040, Note_on_c, 5, 84, 83
7, 359280, Note_on_c, 5, 84, 0
7, 359520, Note_on_c, 5, 81, 48
7, 359760, Note_on_c, 5, 81, 0
7, 360000, Note_on_c, 5, 82, 55
7, 360240, Note_on_c, 5, 82, 0
7, 360480, Note_on_c, 5, 79, 59
7, 360720, Note_on_c, 5, 79, 0
7, 360933, Note_on_c, 5, 65, 86
7, 361049, Note_on_c, 5, 65, 0
7, 361182, Note_on_c, 5, 67, 106
7, 361240, Note_on_c, 5, 67, 0
7, 361308, Note_on_c, 5, 69, 112
7, 361366, Note_on_c, 5, 69, 0
7, 361428, Note_on_c, 5, 70, 106
7, 361486, Note_on_c, 5, 70, 0
7, 361553, Note_on_c, 5, 72, 115
7, 361612, Note_on_c, 5, 72, 0
7, 361680, Note_on_c, 5, 74, 117
7, 361737, Note_on_c, 5, 74, 0
7, 361802, Note_on_c, 5, 76, 112
7, 361861, Note_on_c, 5, 76, 0
7, 361922, Note_on_c, 5, 77, 105
7, 362049, Note_on_c, 5, 77, 0
7, 362049, Note_on_c, 5, 76, 91
7, 362169, Note_on_c, 5, 76, 0
7, 362169, Note_on_c, 5, 77, 98
7, 362289, Note_on_c, 5, 77, 0
7, 362289, Note_on_c, 5, 76, 85
7, 362409, Note_on_c, 5, 76, 0
7, 362409, Note_on_c, 5, 77, 104
7, 362529, Note_on_c, 5, 77, 0
7, 362529, Note_on_c, 5, 76, 91
7, 362649, Note_on_c, 5, 76, 0
7, 362649, Note_on_c, 5, 77, 106
7, 362769, Note_on_c, 5, 77, 0
7, 362769, Note_on_c, 5, 76, 88
7, 362880, Note_on_c, 5, 76, 0
7, 362886, Note_on_c, 5, 77, 104
7, 363006, Note_on_c, 5, 77, 0
7, 363006, Note_on_c, 5, 72, 74
7, 363126, Note_on_c, 5, 72, 0
7, 363126, Note_on_c, 5, 74, 101
7, 363242, Note_on_c, 5, 74, 0
7, 363242, Note_on_c, 5, 76, 111
7, 363362, Note_on_c, 5, 76, 0
7, 363362, Note_on_c, 5, 77, 107
7, 363482, Note_on_c, 5, 77, 0
7, 363482, Note_on_c, 5, 79, 114
7, 363602, Note_on_c, 5, 79, 0
7, 363602, Note_on_c, 5, 81, 116
7, 363722, Note_on_c, 5, 81, 0
7, 363722, Note_on_c, 5, 79, 92
7, 363842, Note_on_c, 5, 79, 0
7, 363842, Note_on_c, 5, 77, 80
7, 363962, Note_on_c, 5, 77, 0
7, 363962, Note_on_c, 5, 76, 93
7, 364080, Note_on_c, 5, 76, 0
7, 364080, Note_on_c, 5, 77, 99
7, 364200, Note_on_c, 5, 77, 0
7, 364200, Note_on_c, 5, 76, 93
7, 364320, Note_on_c, 5, 76, 0
7, 364320, Note_on_c, 5, 77, 105
7, 364440, Note_on_c, 5, 77, 0
7, 364440, Note_on_c, 5, 76, 89
7, 364560, Note_on_c, 5, 76, 0
7, 364560, Note_on_c, 5, 77, 110
7, 364680, Note_on_c, 5, 77, 0
7, 364680, Note_on_c, 5, 76, 86
7, 364800, Note_on_c, 5, 76, 0
7, 364800, Note_on_c, 5, 77, 103
7, 365037, Note_on_c, 5, 77, 0
7, 365280, Note_on_c, 5, 72, 117
7, 365280, Note_on_c, 5, 81, 117
7, 365517, Note_on_c, 5, 81, 0
7, 365517, Note_on_c, 5, 72, 0
7, 365760, Note_on_c, 5, 57, 63
7, 365760, Note_on_c, 5, 65, 63
7, 366240, Note_on_c, 5, 65, 0
7, 366240, Note_on_c, 5, 57, 0
7, 376320, Note_on_c, 5, 69, 47
7, 378240, Note_on_c, 5, 69, 0
7, 378240, Note_on_c, 5, 67, 41
7, 380160, Note_on_c, 5, 67, 0
7, 380160, Note_on_c, 5, 65, 43
7, 382080, Note_on_c, 5, 65, 0
7, 382080, Note_on_c, 5, 64, 40
7, 384000, Note_on_c, 5, 64, 0
7, 384000, Note_on_c, 5, 65, 60
7, 384112, Note_on_c, 5, 65, 0
7, 384476, Note_on_c, 5, 62, 57
7, 384593, Note_on_c, 5, 62, 0
7, 384956, Note_on_c, 5, 65, 56
7, 385073, Note_on_c, 5, 65, 0
7, 385440, Note_on_c, 5, 69, 49
7, 385557, Note_on_c, 5, 69, 0
7, 385908, Note_on_c, 5, 74, 57
7, 386024, Note_on_c, 5, 74, 0
7, 386389, Note_on_c, 5, 77, 54
7, 386508, Note_on_c, 5, 77, 0
7, 386880, Note_on_c, 5, 81, 57
7, 386997, Note_on_c, 5, 81, 0
7, 387369, Note_on_c, 5, 86, 56
7, 387486, Note_on_c, 5, 86, 0
7, 387849, Note_on_c, 5, 82, 54
7, 388086, Note_on_c, 5, 82, 0
7, 392161, Note_on_c, 5, 60, 50
7, 392280, Note_on_c, 5, 60, 0
7, 392641, Note_on_c, 5, 63, 53
7, 392760, Note_on_c, 5, 63, 0
7, 393120, Note_on_c, 5, 67, 63
7, 393237, Note_on_c, 5, 67, 0
7, 393600, Note_on_c, 5, 72, 55
7, 393717, Note_on_c, 5, 72, 0
7, 394080, Note_on_c, 5, 75, 50
7, 394197, Note_on_c, 5, 75, 0
7, 394560, Note_on_c, 5, 79, 58
7, 394677, Note_on_c, 5, 79, 0
7, 395041, Note_on_c, 5, 84, 59
7, 395160, Note_on_c, 5, 84, 0
7, 395521, Note_on_c, 5, 81, 54
7, 395760, Note_on_c, 5, 81, 0
7, 399842, Note_on_c, 5, 58, 51
7, 399961, Note_on_c, 5, 58, 0
7, 400322, Note_on_c, 5, 62, 58
7, 400441, Note_on_c, 5, 62, 0
7, 400800, Note_on_c, 5, 65, 58
7, 400917, Note_on_c, 5, 65, 0
7, 401280, Note_on_c, 5, 70, 54
7, 401397, Note_on_c, 5, 70, 0
7, 401760, Note_on_c, 5, 74, 53
7, 401877, Note_on_c, 5, 74, 0
7, 402242, Note_on_c, 5, 77, 49
7, 402361, Note_on_c, 5, 77, 0
7, 402730, Note_on_c, 5, 82, 53
7, 402849, Note_on_c, 5, 82, 0
7, 403206, Note_on_c, 5, 79, 53
7, 404162, Note_on_c, 5, 79, 0
7, 404162, Note_on_c, 5, 80, 63
7, 405016, Note_on_c, 5, 80, 0
7, 405120, Note_on_c, 5, 79, 57
7, 405600, Note_on_c, 5, 79, 0
7, 407046, Note_on_c, 5, 77, 53
7, 408002, Note_on_c, 5, 77, 0
7, 408002, Note_on_c, 5, 78, 62
7, 408860, Note_on_c, 5, 78, 0
7, 408962, Note_on_c, 5, 77, 53
7, 409440, Note_on_c, 5, 77, 0
7, 414720, Note_on_c, 5, 82, 48
7, 423360, Note_on_c, 5, 82, 0
7, 423360, Note_on_c, 5, 70, 36
7, 424320, Note_on_c, 5, 70, 0
7, 424320, Note_on_c, 5, 69, 49
7, 424789, Note_on_c, 5, 69, 0
7, 426250, Note_on_c, 5, 76, 54
7, 428160, Note_on_c, 5, 76, 0
7, 428160, Note_on_c, 5, 77, 65
7, 428637, Note_on_c, 5, 77, 0
7, 430082, Note_on_c, 5, 70, 52
7, 432000, Note_on_c, 5, 70, 0
7, 432000, Note_on_c, 5, 69, 60
7, 432381, Note_on_c, 5, 69, 0
7, 443513, Note_on_c, 5, 70, 51
7, 443752, Note_on_c, 5, 70, 0
7, 443993, Note_on_c, 5, 70, 52
7, 444172, Note_on_c, 5, 70, 0
7, 444356, Note_on_c, 5, 70, 64
7, 444413, Note_on_c, 5, 70, 0
7, 444476, Note_on_c, 5, 70, 62
7, 444713, Note_on_c, 5, 70, 0
7, 444960, Note_on_c, 5, 70, 60
7, 445197, Note_on_c, 5, 70, 0
7, 445440, Note_on_c, 5, 72, 73
7, 445680, Note_on_c, 5, 72, 0
7, 445680, Note_on_c, 5, 69, 48
7, 445920, Note_on_c, 5, 69, 0
7, 445920, Note_on_c, 5, 70, 69
7, 446400, Note_on_c, 5, 70, 0
7, 447360, Note_on_c, 5, 72, 58
7, 447597, Note_on_c, 5, 72, 0
7, 447840, Note_on_c, 5, 72, 62
7, 448017, Note_on_c, 5, 72, 0
7, 448200, Note_on_c, 5, 72, 65
7, 448257, Note_on_c, 5, 72, 0
7, 448320, Note_on_c, 5, 72, 60
7, 448557, Note_on_c, 5, 72, 0
7, 448800, Note_on_c, 5, 72, 61
7, 449037, Note_on_c, 5, 72, 0
7, 449280, Note_on_c, 5, 70, 49
7, 449520, Note_on_c, 5, 70, 0
7, 449520, Note_on_c, 5, 72, 63
7, 449640, Note_on_c, 5, 72, 0
7, 449640, Note_on_c, 5, 74, 66
7, 449760, Note_on_c, 5, 74, 0
7, 449760, Note_on_c, 5, 72, 55
7, 450240, Note_on_c, 5, 72, 0
7, 451200, Note_on_c, 5, 74, 51
7, 451920, Note_on_c, 5, 74, 0
7, 451920, Note_on_c, 5, 70, 49
7, 452160, Note_on_c, 5, 70, 0
7, 452160, Note_on_c, 5, 75, 65
7, 452880, Note_on_c, 5, 75, 0
7, 452880, Note_on_c, 5, 72, 58
7, 453120, Note_on_c, 5, 72, 0
7, 453120, Note_on_c, 5, 77, 76
7, 453480, Note_on_c, 5, 77, 0
7, 453480, Note_on_c, 5, 74, 49
7, 453600, Note_on_c, 5, 74, 0
7, 453600, Note_on_c, 5, 77, 66
7, 454320, Note_on_c, 5, 77, 0
7, 454320, Note_on_c, 5, 79, 68
7, 454440, Note_on_c, 5, 79, 0
7, 454440, Note_on_c, 5, 77, 56
7, 454549, Note_on_c, 5, 77, 0
7, 454549, Note_on_c, 5, 75, 59
7, 454782, Note_on_c, 5, 75, 0
7, 454782, Note_on_c, 5, 74, 58
7, 454900, Note_on_c, 5, 74, 0
7, 455036, Note_on_c, 5, 72, 55
7, 455273, Note_on_c, 5, 72, 0
7, 455273, Note_on_c, 5, 74, 69
7, 455333, Note_on_c, 5, 74, 0
7, 455333, Note_on_c, 5, 72, 57
7, 455393, Note_on_c, 5, 72, 0
7, 455393, Note_on_c, 5, 71, 55
7, 455520, Note_on_c, 5, 71, 0
7, 455520, Note_on_c, 5, 72, 63
7, 455760, Note_on_c, 5, 72, 0
7, 455760, Note_on_c, 5, 74, 70
7, 455877, Note_on_c, 5, 74, 0
7, 456000, Note_on_c, 5, 75, 65
7, 456117, Note_on_c, 5, 75, 0
7, 456233, Note_on_c, 5, 67, 44
7, 456468, Note_on_c, 5, 67, 0
7, 456468, Note_on_c, 5, 72, 69
7, 456708, Note_on_c, 5, 72, 0
7, 456708, Note_on_c, 5, 70, 58
7, 456960, Note_on_c, 5, 70, 0
7, 456960, Note_on_c, 5, 70, 68
7, 457192, Note_on_c, 5, 70, 0
7, 457192, Note_on_c, 5, 69, 56
7, 457432, Note_on_c, 5, 69, 0
7, 457432, Note_on_c, 5, 67, 55
7, 457672, Note_on_c, 5, 67, 0
7, 457672, Note_on_c, 5, 65, 47
7, 457916, Note_on_c, 5, 65, 0
7, 457916, Note_on_c, 5, 66, 66
7, 458160, Note_on_c, 5, 66, 0
7, 458160, Note_on_c, 5, 67, 65
7, 458401, Note_on_c, 5, 67, 0
7, 458401, Note_on_c, 5, 68, 68
7, 458646, Note_on_c, 5, 68, 0
7, 458646, Note_on_c, 5, 69, 63
7, 458880, Note_on_c, 5, 69, 0
7, 458885, Note_on_c, 5, 70, 65
7, 459268, Note_on_c, 5, 70, 0
7, 461280, Note_on_c, 5, 70, 48
7, 462240, Note_on_c, 5, 70, 0
7, 462240, Note_on_c, 5, 71, 67
7, 462621, Note_on_c, 5, 71, 0
7, 462720, Note_on_c, 5, 72, 72
7, 463200, Note_on_c, 5, 72, 0
7, 465120, Note_on_c, 5, 72, 50
7, 466080, Note_on_c, 5, 72, 0
7, 466080, Note_on_c, 5, 73, 65
7, 466560, Note_on_c, 5, 73, 0
7, 466560, Note_on_c, 5, 74, 69
7, 467032, Note_on_c, 5, 74, 0
7, 472320, Note_on_c, 5, 77, 53
7, 473280, Note_on_c, 5, 77, 0
7, 473280, Note_on_c, 5, 75, 49
7, 474240, Note_on_c, 5, 75, 0
7, 474240, Note_on_c, 5, 74, 51
7, 475680, Note_on_c, 5, 74, 0
7, 475680, Note_on_c, 5, 75, 63
7, 475920, Note_on_c, 5, 75, 0
7, 475920, Note_on_c, 5, 72, 47
7, 476160, Note_on_c, 5, 72, 0
7, 476160, Note_on_c, 5, 62, 79
7, 476160, Note_on_c, 5, 70, 79
7, 477120, Note_on_c, 5, 70, 0
7, 477120, Note_on_c, 5, 62, 0
7, 477360, Note_on_c, 5, 82, 87
7, 477477, Note_on_c, 5, 82, 0
7, 477600, Note_on_c, 5, 82, 98
7, 477717, Note_on_c, 5, 82, 0
7, 477840, Note_on_c, 5, 82, 96
7, 477957, Note_on_c, 5, 82, 0
7, 478080, Note_on_c, 5, 82, 99
7, 478140, Note_on_c, 5, 82, 0
7, 478140, Note_on_c, 5, 84, 112
7, 478200, Note_on_c, 5, 84, 0
7, 478200, Note_on_c, 5, 82, 90
7, 478320, Note_on_c, 5, 82, 0
7, 478320, Note_on_c, 5, 81, 88
7, 478560, Note_on_c, 5, 81, 0
7, 478560, Note_on_c, 5, 81, 95
7, 479520, Note_on_c, 5, 81, 0
7, 479520, Note_on_c, 5, 82, 106
7, 480000, Note_on_c, 5, 82, 0
7, 480000, Note_on_c, 5, 83, 111
7, 480240, Note_on_c, 5, 83, 0
7, 480240, Note_on_c, 5, 84, 110
7, 480480, Note_on_c, 5, 84, 0
7, 480480, Note_on_c, 5, 84, 95
7, 481200, Note_on_c, 5, 84, 0
7, 481200, Note_on_c, 5, 84, 97
7, 481317, Note_on_c, 5, 84, 0
7, 481440, Note_on_c, 5, 84, 100
7, 481557, Note_on_c, 5, 84, 0
7, 481680, Note_on_c, 5, 84, 97
7, 481797, Note_on_c, 5, 84, 0
7, 481920, Note_on_c, 5, 84, 99
7, 482160, Note_on_c, 5, 84, 0
7, 482160, Note_on_c, 5, 86, 109
7, 482400, Note_on_c, 5, 86, 0
7, 482400, Note_on_c, 5, 82, 79
7, 482880, Note_on_c, 5, 82, 0
7, 483120, Note_on_c, 5, 82, 90
7, 483237, Note_on_c, 5, 82, 0
7, 483360, Note_on_c, 5, 82, 97
7, 483477, Note_on_c, 5, 82, 0
7, 483600, Note_on_c, 5, 82, 101
7, 483717, Note_on_c, 5, 82, 0
7, 483840, Note_on_c, 5, 82, 97
7, 483900, Note_on_c, 5, 82, 0
7, 483900, Note_on_c, 5, 84, 112
7, 483960, Note_on_c, 5, 84, 0
7, 483960, Note_on_c, 5, 82, 88
7, 484080, Note_on_c, 5, 82, 0
7, 484080, Note_on_c, 5, 81, 81
7, 484320, Note_on_c, 5, 81, 0
7, 484320, Note_on_c, 5, 81, 93
7, 485280, Note_on_c, 5, 81, 0
7, 485280, Note_on_c, 5, 82, 99
7, 485760, Note_on_c, 5, 82, 0
7, 485760, Note_on_c, 5, 83, 103
7, 486000, Note_on_c, 5, 83, 0
7, 486000, Note_on_c, 5, 84, 104
7, 486240, Note_on_c, 5, 84, 0
7, 486240, Note_on_c, 5, 84, 101
7, 486960, Note_on_c, 5, 84, 0
7, 486960, Note_on_c, 5, 84, 96
7, 487077, Note_on_c, 5, 84, 0
7, 487200, Note_on_c, 5, 84, 102
7, 487317, Note_on_c, 5, 84, 0
7, 487440, Note_on_c, 5, 84, 101
7, 487557, Note_on_c, 5, 84, 0
7, 487680, Note_on_c, 5, 86, 107
7, 487797, Note_on_c, 5, 86, 0
7, 487920, Note_on_c, 5, 77, 67
7, 488037, Note_on_c, 5, 77, 0
7, 488160, Note_on_c, 5, 79, 103
7, 488220, Note_on_c, 5, 79, 0
7, 488220, Note_on_c, 5, 77, 84
7, 488280, Note_on_c, 5, 77, 0
7, 488280, Note_on_c, 5, 76, 87
7, 488340, Note_on_c, 5, 76, 0
7, 488340, Note_on_c, 5, 77, 110
7, 488640, Note_on_c, 5, 77, 0
7, 488640, Note_on_c, 5, 82, 126
7, 488757, Note_on_c, 5, 82, 0
7, 488880, Note_on_c, 5, 74, 70
7, 488997, Note_on_c, 5, 74, 0
7, 489120, Note_on_c, 5, 75, 94
7, 489180, Note_on_c, 5, 75, 0
7, 489180, Note_on_c, 5, 74, 89
7, 489240, Note_on_c, 5, 74, 0
7, 489240, Note_on_c, 5, 72, 85
7, 489300, Note_on_c, 5, 72, 0
7, 489300, Note_on_c, 5, 74, 102
7, 489600, Note_on_c, 5, 74, 0
7, 489600, Note_on_c, 5, 77, 115
7, 489717, Note_on_c, 5, 77, 0
7, 489840, Note_on_c, 5, 70, 60
7, 489957, Note_on_c, 5, 70, 0
7, 490080, Note_on_c, 5, 72, 107
7, 490140, Note_on_c, 5, 72, 0
7, 490140, Note_on_c, 5, 70, 80
7, 490202, Note_on_c, 5, 70, 0
7, 490202, Note_on_c, 5, 69, 87
7, 490262, Note_on_c, 5, 69, 0
7, 490262, Note_on_c, 5, 70, 104
7, 490560, Note_on_c, 5, 70, 0
7, 490560, Note_on_c, 5, 74, 114
7, 490677, Note_on_c, 5, 74, 0
7, 490788, Note_on_c, 5, 65, 72
7, 490906, Note_on_c, 5, 65, 0
7, 491014, Note_on_c, 5, 67, 101
7, 491074, Note_on_c, 5, 67, 0
7, 491074, Note_on_c, 5, 65, 95
7, 491129, Note_on_c, 5, 65, 0
7, 491129, Note_on_c, 5, 64, 93
7, 491189, Note_on_c, 5, 64, 0
7, 491189, Note_on_c, 5, 65, 105
7, 491520, Note_on_c, 5, 65, 0
7, 491520, Note_on_c, 5, 70, 126
7, 491626, Note_on_c, 5, 70, 0
7, 491748, Note_on_c, 5, 62, 58
7, 491866, Note_on_c, 5, 62, 0
7, 491992, Note_on_c, 5, 62, 93
7, 492720, Note_on_c, 5, 62, 0
7, 492720, Note_on_c, 5, 64, 106
7, 492840, Note_on_c, 5, 64, 0
7, 492840, Note_on_c, 5, 65, 110
7, 492960, Note_on_c, 5, 65, 0
7, 492960, Note_on_c, 5, 67, 111
7, 493200, Note_on_c, 5, 67, 0
7, 493200, Note_on_c, 5, 64, 83
7, 493440, Note_on_c, 5, 64, 0
7, 493440, Note_on_c, 5, 65, 104
7, 493916, Note_on_c, 5, 65, 0
7, 497280, Note_on_c, 5, 77, 46
7, 498240, Note_on_c, 5, 77, 0
7, 498240, Note_on_c, 5, 74, 42
7, 498720, Note_on_c, 5, 74, 0
7, 498720, Note_on_c, 5, 70, 31
7, 499200, Note_on_c, 5, 70, 0
7, 499200, Note_on_c, 5, 65, 34
7, 499666, Note_on_c, 5, 65, 0
7, 504960, Note_on_c, 5, 75, 57
7, 505920, Note_on_c, 5, 75, 0
7, 505920, Note_on_c, 5, 72, 42
7, 506400, Note_on_c, 5, 72, 0
7, 506400, Note_on_c, 5, 69, 36
7, 506880, Note_on_c, 5, 69, 0
7, 506880, Note_on_c, 5, 63, 40
7, 507346, Note_on_c, 5, 63, 0
7, 510720, Note_on_c, 5, 79, 43
7, 513116, Note_on_c, 5, 79, 0
7, 513116, Note_on_c, 5, 71, 45
7, 513597, Note_on_c, 5, 71, 0
7, 513597, Note_on_c, 5, 72, 55
7, 514081, Note_on_c, 5, 72, 0
7, 514081, Note_on_c, 5, 79, 69
7, 514560, Note_on_c, 5, 79, 0
7, 514565, Note_on_c, 5, 77, 47
7, 516480, Note_on_c, 5, 77, 0
7, 516480, Note_on_c, 5, 77, 54
7, 516956, Note_on_c, 5, 77, 0
7, 516956, Note_on_c, 5, 81, 63
7, 517437, Note_on_c, 5, 81, 0
7, 517437, Note_on_c, 5, 82, 57
7, 517920, Note_on_c, 5, 82, 0
7, 517920, Note_on_c, 5, 86, 67
7, 518305, Note_on_c, 5, 86, 0
7, 518402, Note_on_c, 5, 75, 36
7, 520320, Note_on_c, 5, 75, 0
7, 520320, Note_on_c, 5, 75, 44
7, 522240, Note_on_c, 5, 75, 0
7, 522240, Note_on_c, 5, 75, 50
7, 524160, Note_on_c, 5, 75, 0
7, 524162, Note_on_c, 5, 63, 32
7, 528000, Note_on_c, 5, 63, 0
7, 528000, Note_on_c, 5, 63, 47
7, 531840, Note_on_c, 5, 63, 0
7, 531840, Note_on_c, 5, 63, 56
7, 533760, Note_on_c, 5, 63, 0
7, 533760, Note_on_c, 5, 56, 32
7, 534717, Note_on_c, 5, 56, 0
7, 534717, Note_on_c, 5, 58, 54
7, 535576, Note_on_c, 5, 58, 0
7, 535680, Note_on_c, 5, 59, 61
7, 536640, Note_on_c, 5, 59, 0
7, 536640, Note_on_c, 5, 57, 49
7, 537496, Note_on_c, 5, 57, 0
7, 537600, Note_on_c, 5, 58, 56
7, 538560, Note_on_c, 5, 58, 0
7, 538560, Note_on_c, 5, 66, 69
7, 539520, Note_on_c, 5, 66, 0
7, 539520, Note_on_c, 5, 63, 43
7, 540480, Note_on_c, 5, 63, 0
7, 540480, Note_on_c, 5, 65, 59
7, 541336, Note_on_c, 5, 65, 0
7, 541440, Note_on_c, 5, 66, 54
7, 541557, Note_on_c, 5, 66, 0
7, 541680, Note_on_c, 5, 70, 65
7, 541920, Note_on_c, 5, 70, 0
7, 541920, Note_on_c, 5, 69, 47
7, 542160, Note_on_c, 5, 69, 0
7, 542160, Note_on_c, 5, 70, 48
7, 542350, Note_on_c, 5, 70, 0
7, 542641, Note_on_c, 5, 61, 46
7, 542760, Note_on_c, 5, 61, 0
7, 542881, Note_on_c, 5, 61, 57
7, 543000, Note_on_c, 5, 61, 0
7, 543120, Note_on_c, 5, 61, 48
7, 543237, Note_on_c, 5, 61, 0
7, 543602, Note_on_c, 5, 60, 45
7, 543721, Note_on_c, 5, 60, 0
7, 543842, Note_on_c, 5, 60, 45
7, 543961, Note_on_c, 5, 60, 0
7, 544082, Note_on_c, 5, 60, 49
7, 544201, Note_on_c, 5, 60, 0
7, 544553, Note_on_c, 5, 60, 39
7, 544672, Note_on_c, 5, 60, 0
7, 544784, Note_on_c, 5, 60, 46
7, 544902, Note_on_c, 5, 60, 0
7, 545020, Note_on_c, 5, 60, 51
7, 545138, Note_on_c, 5, 60, 0
7, 545273, Note_on_c, 5, 62, 48
7, 545512, Note_on_c, 5, 62, 0
7, 545512, Note_on_c, 5, 65, 56
7, 545752, Note_on_c, 5, 65, 0
7, 545752, Note_on_c, 5, 62, 33
7, 545996, Note_on_c, 5, 62, 0
7, 545996, Note_on_c, 5, 65, 50
7, 546236, Note_on_c, 5, 65, 0
7, 546236, Note_on_c, 5, 62, 35
7, 546480, Note_on_c, 5, 62, 0
7, 546480, Note_on_c, 5, 65, 47
7, 546720, Note_on_c, 5, 65, 0
7, 546720, Note_on_c, 5, 62, 34
7, 546960, Note_on_c, 5, 62, 0
7, 546960, Note_on_c, 5, 65, 55
7, 547200, Note_on_c, 5, 65, 0
7, 547200, Note_on_c, 5, 62, 44
7, 547440, Note_on_c, 5, 62, 0
7, 547440, Note_on_c, 5, 65, 50
7, 547680, Note_on_c, 5, 65, 0
7, 547680, Note_on_c, 5, 62, 34
7, 547920, Note_on_c, 5, 62, 0
7, 547920, Note_on_c, 5, 65, 44
7, 548160, Note_on_c, 5, 65, 0
7, 548160, Note_on_c, 5, 62, 34
7, 548400, Note_on_c, 5, 62, 0
7, 548400, Note_on_c, 5, 65, 49
7, 548640, Note_on_c, 5, 65, 0
7, 548640, Note_on_c, 5, 62, 36
7, 548880, Note_on_c, 5, 62, 0
7, 548880, Note_on_c, 5, 65, 48
7, 549070, Note_on_c, 5, 65, 0
7, 549120, Note_on_c, 5, 60, 33
7, 549360, Note_on_c, 5, 60, 0
7, 549360, Note_on_c, 5, 63, 44
7, 549600, Note_on_c, 5, 63, 0
7, 549600, Note_on_c, 5, 60, 33
7, 549840, Note_on_c, 5, 60, 0
7, 549840, Note_on_c, 5, 63, 53
7, 550080, Note_on_c, 5, 63, 0
7, 550080, Note_on_c, 5, 60, 35
7, 550320, Note_on_c, 5, 60, 0
7, 550320, Note_on_c, 5, 63, 48
7, 550560, Note_on_c, 5, 63, 0
7, 550560, Note_on_c, 5, 60, 30
7, 550800, Note_on_c, 5, 60, 0
7, 550800, Note_on_c, 5, 63, 42
7, 551040, Note_on_c, 5, 63, 0
7, 551040, Note_on_c, 5, 60, 37
7, 551280, Note_on_c, 5, 60, 0
7, 551280, Note_on_c, 5, 63, 44
7, 551520, Note_on_c, 5, 63, 0
7, 551520, Note_on_c, 5, 60, 35
7, 551760, Note_on_c, 5, 60, 0
7, 551760, Note_on_c, 5, 63, 47
7, 552000, Note_on_c, 5, 63, 0
7, 552000, Note_on_c, 5, 60, 35
7, 552240, Note_on_c, 5, 60, 0
7, 552240, Note_on_c, 5, 63, 47
7, 552485, Note_on_c, 5, 63, 0
7, 552485, Note_on_c, 5, 60, 40
7, 552730, Note_on_c, 5, 60, 0
7, 552730, Note_on_c, 5, 63, 45
7, 552960, Note_on_c, 5, 63, 0
7, 552972, Note_on_c, 5, 62, 38
7, 553212, Note_on_c, 5, 62, 0
7, 553212, Note_on_c, 5, 74, 60
7, 553452, Note_on_c, 5, 74, 0
7, 553452, Note_on_c, 5, 70, 43
7, 553685, Note_on_c, 5, 70, 0
7, 553685, Note_on_c, 5, 74, 49
7, 553925, Note_on_c, 5, 74, 0
7, 553925, Note_on_c, 5, 70, 37
7, 554165, Note_on_c, 5, 70, 0
7, 554165, Note_on_c, 5, 74, 48
7, 554400, Note_on_c, 5, 74, 0
7, 554400, Note_on_c, 5, 70, 33
7, 554640, Note_on_c, 5, 70, 0
7, 554640, Note_on_c, 5, 74, 53
7, 554880, Note_on_c, 5, 74, 0
7, 554880, Note_on_c, 5, 70, 32
7, 555120, Note_on_c, 5, 70, 0
7, 555120, Note_on_c, 5, 74, 52
7, 555360, Note_on_c, 5, 74, 0
7, 555360, Note_on_c, 5, 70, 32
7, 555600, Note_on_c, 5, 70, 0
7, 555600, Note_on_c, 5, 74, 50
7, 555840, Note_on_c, 5, 74, 0
7, 555840, Note_on_c, 5, 70, 34
7, 556080, Note_on_c, 5, 70, 0
7, 556080, Note_on_c, 5, 74, 52
7, 556320, Note_on_c, 5, 74, 0
7, 556320, Note_on_c, 5, 70, 32
7, 556560, Note_on_c, 5, 70, 0
7, 556560, Note_on_c, 5, 74, 50
7, 556800, Note_on_c, 5, 74, 0
7, 556800, Note_on_c, 5, 69, 41
7, 557040, Note_on_c, 5, 69, 0
7, 557040, Note_on_c, 5, 72, 54
7, 557280, Note_on_c, 5, 72, 0
7, 557280, Note_on_c, 5, 69, 28
7, 557520, Note_on_c, 5, 69, 0
7, 557520, Note_on_c, 5, 72, 53
7, 557760, Note_on_c, 5, 72, 0
7, 557760, Note_on_c, 5, 69, 37
7, 558000, Note_on_c, 5, 69, 0
7, 558000, Note_on_c, 5, 72, 48
7, 558240, Note_on_c, 5, 72, 0
7, 558240, Note_on_c, 5, 69, 40
7, 558480, Note_on_c, 5, 69, 0
7, 558480, Note_on_c, 5, 72, 46
7, 558670, Note_on_c, 5, 72, 0
7, 558720, Note_on_c, 5, 69, 38
7, 558960, Note_on_c, 5, 69, 0
7, 558960, Note_on_c, 5, 72, 51
7, 559200, Note_on_c, 5, 72, 0
7, 559200, Note_on_c, 5, 69, 33
7, 559440, Note_on_c, 5, 69, 0
7, 559440, Note_on_c, 5, 72, 51
7, 559680, Note_on_c, 5, 72, 0
7, 559680, Note_on_c, 5, 69, 41
7, 559920, Note_on_c, 5, 69, 0
7, 559920, Note_on_c, 5, 72, 51
7, 560165, Note_on_c, 5, 72, 0
7, 560165, Note_on_c, 5, 69, 30
7, 560412, Note_on_c, 5, 69, 0
7, 560412, Note_on_c, 5, 72, 53
7, 560640, Note_on_c, 5, 72, 0
7, 560652, Note_on_c, 5, 70, 36
7, 561034, Note_on_c, 5, 70, 0
7, 579836, Note_on_c, 5, 65, 46
7, 580800, Note_on_c, 5, 65, 0
7, 580800, Note_on_c, 5, 62, 52
7, 581760, Note_on_c, 5, 62, 0
7, 581761, Note_on_c, 5, 67, 77
7, 582721, Note_on_c, 5, 67, 0
7, 582721, Note_on_c, 5, 60, 39
7, 583680, Note_on_c, 5, 60, 0
7, 583680, Note_on_c, 5, 62, 63
7, 583912, Note_on_c, 5, 62, 0
7, 584152, Note_on_c, 5, 63, 51
7, 584396, Note_on_c, 5, 63, 0
7, 584636, Note_on_c, 5, 62, 49
7, 584876, Note_on_c, 5, 62, 0
7, 585116, Note_on_c, 5, 60, 56
7, 585356, Note_on_c, 5, 60, 0
7, 585597, Note_on_c, 5, 58, 54
7, 586080, Note_on_c, 5, 58, 0
7, 586560, Note_on_c, 5, 75, 62
7, 587520, Note_on_c, 5, 75, 0
7, 587520, Note_on_c, 5, 74, 52
7, 587901, Note_on_c, 5, 74, 0
7, 588480, Note_on_c, 5, 75, 49
7, 589440, Note_on_c, 5, 75, 0
7, 589440, Note_on_c, 5, 74, 50
7, 589810, Note_on_c, 5, 74, 0
7, 590400, Note_on_c, 5, 75, 51
7, 591360, Note_on_c, 5, 75, 0
7, 591360, Note_on_c, 5, 74, 57
7, 591730, Note_on_c, 5, 74, 0
7, 600000, Note_on_c, 5, 75, 49
7, 600960, Note_on_c, 5, 75, 0
7, 600960, Note_on_c, 5, 74, 53
7, 601341, Note_on_c, 5, 74, 0
7, 601920, Note_on_c, 5, 75, 49
7, 602880, Note_on_c, 5, 75, 0
7, 602880, Note_on_c, 5, 74, 61
7, 603258, Note_on_c, 5, 74, 0
7, 603840, Note_on_c, 5, 75, 53
7, 604800, Note_on_c, 5, 75, 0
7, 604800, Note_on_c, 5, 74, 55
7, 605176, Note_on_c, 5, 74, 0
7, 605760, Note_on_c, 5, 65, 46
7, 606720, Note_on_c, 5, 65, 0
7, 606722, Note_on_c, 5, 65, 57
7, 607682, Note_on_c, 5, 65, 0
7, 607682, Note_on_c, 5, 65, 64
7, 607922, Note_on_c, 5, 65, 0
7, 608162, Note_on_c, 5, 65, 51
7, 608401, Note_on_c, 5, 65, 0
7, 608642, Note_on_c, 5, 65, 50
7, 608882, Note_on_c, 5, 65, 0
7, 609601, Note_on_c, 5, 64, 57
7, 609840, Note_on_c, 5, 64, 0
7, 610560, Note_on_c, 5, 63, 54
7, 610800, Note_on_c, 5, 63, 0
7, 611520, Note_on_c, 5, 62, 53
7, 611760, Note_on_c, 5, 62, 0
7, 618236, Note_on_c, 5, 77, 52
7, 619440, Note_on_c, 5, 77, 0
7, 619440, Note_on_c, 5, 76, 62
7, 619680, Note_on_c, 5, 76, 0
7, 619680, Note_on_c, 5, 77, 68
7, 619920, Note_on_c, 5, 77, 0
7, 619920, Note_on_c, 5, 76, 57
7, 620160, Note_on_c, 5, 76, 0
7, 620160, Note_on_c, 5, 77, 70
7, 620880, Note_on_c, 5, 77, 0
7, 620880, Note_on_c, 5, 76, 65
7, 621120, Note_on_c, 5, 76, 0
7, 621120, Note_on_c, 5, 77, 66
7, 621360, Note_on_c, 5, 77, 0
7, 621360, Note_on_c, 5, 76, 53
7, 621600, Note_on_c, 5, 76, 0
7, 621600, Note_on_c, 5, 77, 65
7, 621837, Note_on_c, 5, 77, 0
7, 621837, Note_on_c, 5, 76, 48
7, 622026, Note_on_c, 5, 76, 0
7, 622072, Note_on_c, 5, 77, 66
7, 622553, Note_on_c, 5, 77, 0
7, 622553, Note_on_c, 5, 78, 70
7, 623040, Note_on_c, 5, 78, 0
7, 623040, Note_on_c, 5, 79, 70
7, 623520, Note_on_c, 5, 79, 0
7, 623520, Note_on_c, 5, 80, 71
7, 623896, Note_on_c, 5, 80, 0
7, 623996, Note_on_c, 5, 81, 71
7, 624473, Note_on_c, 5, 81, 0
7, 624473, Note_on_c, 5, 82, 67
7, 624960, Note_on_c, 5, 82, 0
7, 624960, Note_on_c, 5, 81, 57
7, 625440, Note_on_c, 5, 81, 0
7, 625440, Note_on_c, 5, 80, 57
7, 625920, Note_on_c, 5, 80, 0
7, 625920, Note_on_c, 5, 79, 54
7, 626296, Note_on_c, 5, 79, 0
7, 629757, Note_on_c, 5, 73, 62
7, 631680, Note_on_c, 5, 73, 0
7, 631685, Note_on_c, 5, 64, 47
7, 633482, Note_on_c, 5, 64, 0
7, 633596, Note_on_c, 5, 65, 61
7, 635520, Note_on_c, 5, 65, 0
7, 635520, Note_on_c, 5, 70, 78
7, 637440, Note_on_c, 5, 70, 0
7, 637440, Note_on_c, 5, 74, 76
7, 639360, Note_on_c, 5, 74, 0
7, 639365, Note_on_c, 5, 77, 76
7, 639605, Note_on_c, 5, 77, 0
7, 640321, Note_on_c, 5, 82, 56
7, 640560, Note_on_c, 5, 82, 0
7, 641273, Note_on_c, 5, 86, 57
7, 641512, Note_on_c, 5, 86, 0
7, 643197, Note_on_c, 5, 69, 51
7, 643316, Note_on_c, 5, 69, 0
7, 643316, Note_on_c, 5, 69, 60
7, 643436, Note_on_c, 5, 69, 0
7, 643436, Note_on_c, 5, 69, 67
7, 643556, Note_on_c, 5, 69, 0
7, 643556, Note_on_c, 5, 69, 73
7, 643676, Note_on_c, 5, 69, 0
7, 643676, Note_on_c, 5, 69, 79
7, 643796, Note_on_c, 5, 69, 0
7, 643796, Note_on_c, 5, 69, 86
7, 643916, Note_on_c, 5, 69, 0
7, 643916, Note_on_c, 5, 69, 83
7, 644040, Note_on_c, 5, 69, 0
7, 644040, Note_on_c, 5, 69, 85
7, 644160, Note_on_c, 5, 69, 0
7, 644160, Note_on_c, 5, 69, 68
7, 644280, Note_on_c, 5, 69, 0
7, 644280, Note_on_c, 5, 69, 65
7, 644400, Note_on_c, 5, 69, 0
7, 644400, Note_on_c, 5, 69, 74
7, 644520, Note_on_c, 5, 69, 0
7, 644520, Note_on_c, 5, 69, 80
7, 644640, Note_on_c, 5, 69, 0
7, 644640, Note_on_c, 5, 69, 86
7, 644760, Note_on_c, 5, 69, 0
7, 644760, Note_on_c, 5, 69, 93
7, 644880, Note_on_c, 5, 69, 0
7, 644880, Note_on_c, 5, 69, 87
7, 645000, Note_on_c, 5, 69, 0
7, 645000, Note_on_c, 5, 69, 83
7, 645120, Note_on_c, 5, 69, 0
7, 645120, Note_on_c, 5, 62, 101
7, 645120, Note_on_c, 5, 70, 101
7, 646080, Note_on_c, 5, 70, 0
7, 646080, Note_on_c, 5, 62, 0
7, 646320, Note_on_c, 5, 82, 89
7, 646437, Note_on_c, 5, 82, 0
7, 646560, Note_on_c, 5, 82, 90
7, 646677, Note_on_c, 5, 82, 0
7, 646800, Note_on_c, 5, 82, 93
7, 646917, Note_on_c, 5, 82, 0
7, 647040, Note_on_c, 5, 82, 99
7, 647100, Note_on_c, 5, 82, 0
7, 647100, Note_on_c, 5, 84, 113
7, 647160, Note_on_c, 5, 84, 0
7, 647160, Note_on_c, 5, 82, 87
7, 647280, Note_on_c, 5, 82, 0
7, 647280, Note_on_c, 5, 81, 90
7, 647520, Note_on_c, 5, 81, 0
7, 647520, Note_on_c, 5, 81, 97
7, 648480, Note_on_c, 5, 81, 0
7, 648480, Note_on_c, 5, 82, 105
7, 648960, Note_on_c, 5, 82, 0
7, 648960, Note_on_c, 5, 83, 107
7, 649200, Note_on_c, 5, 83, 0
7, 649200, Note_on_c, 5, 84, 106
7, 649440, Note_on_c, 5, 84, 0
7, 649440, Note_on_c, 5, 84, 98
7, 650160, Note_on_c, 5, 84, 0
7, 650160, Note_on_c, 5, 84, 97
7, 650277, Note_on_c, 5, 84, 0
7, 650400, Note_on_c, 5, 84, 101
7, 650517, Note_on_c, 5, 84, 0
7, 650640, Note_on_c, 5, 84, 99
7, 650757, Note_on_c, 5, 84, 0
7, 650880, Note_on_c, 5, 84, 98
7, 650940, Note_on_c, 5, 84, 0
7, 650940, Note_on_c, 5, 86, 111
7, 651000, Note_on_c, 5, 86, 0
7, 651000, Note_on_c, 5, 84, 83
7, 651120, Note_on_c, 5, 84, 0
7, 651120, Note_on_c, 5, 82, 89
7, 651360, Note_on_c, 5, 82, 0
7, 651360, Note_on_c, 5, 82, 93
7, 652320, Note_on_c, 5, 82, 0
7, 652320, Note_on_c, 5, 84, 107
7, 652800, Note_on_c, 5, 84, 0
7, 652800, Note_on_c, 5, 85, 107
7, 653040, Note_on_c, 5, 85, 0
7, 653040, Note_on_c, 5, 86, 111
7, 653280, Note_on_c, 5, 86, 0
7, 653280, Note_on_c, 5, 86, 97
7, 654000, Note_on_c, 5, 86, 0
7, 654000, Note_on_c, 5, 86, 96
7, 654117, Note_on_c, 5, 86, 0
7, 654240, Note_on_c, 5, 86, 100
7, 654357, Note_on_c, 5, 86, 0
7, 654480, Note_on_c, 5, 86, 96
7, 654597, Note_on_c, 5, 86, 0
7, 654720, Note_on_c, 5, 86, 90
7, 654960, Note_on_c, 5, 86, 0
7, 654960, Note_on_c, 5, 84, 88
7, 655200, Note_on_c, 5, 84, 0
7, 655200, Note_on_c, 5, 84, 94
7, 656160, Note_on_c, 5, 84, 0
7, 656160, Note_on_c, 5, 86, 114
7, 656397, Note_on_c, 5, 86, 0
7, 656640, Note_on_c, 5, 86, 99
7, 656880, Note_on_c, 5, 86, 0
7, 656880, Note_on_c, 5, 87, 107
7, 657120, Note_on_c, 5, 87, 0
7, 657120, Note_on_c, 5, 87, 103
7, 657840, Note_on_c, 5, 87, 0
7, 657840, Note_on_c, 5, 87, 99
7, 657957, Note_on_c, 5, 87, 0
7, 658080, Note_on_c, 5, 87, 95
7, 658197, Note_on_c, 5, 87, 0
7, 658320, Note_on_c, 5, 87, 95
7, 658437, Note_on_c, 5, 87, 0
7, 658560, Note_on_c, 5, 86, 90
7, 658677, Note_on_c, 5, 86, 0
7, 658800, Note_on_c, 5, 77, 62
7, 658917, Note_on_c, 5, 77, 0
7, 659040, Note_on_c, 5, 79, 98
7, 659100, Note_on_c, 5, 79, 0
7, 659100, Note_on_c, 5, 77, 88
7, 659160, Note_on_c, 5, 77, 0
7, 659160, Note_on_c, 5, 76, 82
7, 659220, Note_on_c, 5, 76, 0
7, 659220, Note_on_c, 5, 77, 103
7, 659520, Note_on_c, 5, 77, 0
7, 659520, Note_on_c, 5, 82, 121
7, 659637, Note_on_c, 5, 82, 0
7, 659760, Note_on_c, 5, 74, 63
7, 659877, Note_on_c, 5, 74, 0
7, 660000, Note_on_c, 5, 75, 101
7, 660060, Note_on_c, 5, 75, 0
7, 660060, Note_on_c, 5, 74, 92
7, 660120, Note_on_c, 5, 74, 0
7, 660120, Note_on_c, 5, 72, 78
7, 660180, Note_on_c, 5, 72, 0
7, 660180, Note_on_c, 5, 74, 115
7, 660480, Note_on_c, 5, 74, 0
7, 660480, Note_on_c, 5, 77, 112
7, 660597, Note_on_c, 5, 77, 0
7, 660720, Note_on_c, 5, 70, 63
7, 660837, Note_on_c, 5, 70, 0
7, 660960, Note_on_c, 5, 72, 104
7, 661020, Note_on_c, 5, 72, 0
7, 661020, Note_on_c, 5, 70, 80
7, 661082, Note_on_c, 5, 70, 0
7, 661082, Note_on_c, 5, 69, 94
7, 661142, Note_on_c, 5, 69, 0
7, 661142, Note_on_c, 5, 70, 108
7, 661440, Note_on_c, 5, 70, 0
7, 661440, Note_on_c, 5, 74, 115
7, 661557, Note_on_c, 5, 74, 0
7, 661668, Note_on_c, 5, 65, 68
7, 661786, Note_on_c, 5, 65, 0
7, 661894, Note_on_c, 5, 67, 98
7, 661954, Note_on_c, 5, 67, 0
7, 661954, Note_on_c, 5, 65, 88
7, 662009, Note_on_c, 5, 65, 0
7, 662009, Note_on_c, 5, 64, 86
7, 662069, Note_on_c, 5, 64, 0
7, 662069, Note_on_c, 5, 65, 102
7, 662400, Note_on_c, 5, 65, 0
7, 662400, Note_on_c, 5, 70, 121
7, 662506, Note_on_c, 5, 70, 0
7, 662628, Note_on_c, 5, 62, 67
7, 662746, Note_on_c, 5, 62, 0
7, 662872, Note_on_c, 5, 62, 91
7, 663600, Note_on_c, 5, 62, 0
7, 663600, Note_on_c, 5, 64, 106
7, 663720, Note_on_c, 5, 64, 0
7, 663720, Note_on_c, 5, 65, 107
7, 663840, Note_on_c, 5, 65, 0
7, 663840, Note_on_c, 5, 67, 110
7, 664080, Note_on_c, 5, 67, 0
7, 664080, Note_on_c, 5, 64, 90
7, 664320, Note_on_c, 5, 64, 0
7, 664320, Note_on_c, 5, 65, 96
7, 664437, Note_on_c, 5, 65, 0
7, 664560, Note_on_c, 5, 82, 126
7, 664797, Note_on_c, 5, 82, 0
7, 665040, Note_on_c, 5, 82, 104
7, 665277, Note_on_c, 5, 82, 0
7, 665521, Note_on_c, 5, 82, 98
7, 665760, Note_on_c, 5, 82, 0
7, 666001, Note_on_c, 5, 82, 89
7, 666120, Note_on_c, 5, 82, 0
7, 666241, Note_on_c, 5, 82, 127
7, 667200, Note_on_c, 5, 82, 0
7, 744957, Note_on_c, 5, 70, 87
7, 745196, Note_on_c, 5, 70, 0
7, 745196, Note_on_c, 5, 72, 111
7, 745256, Note_on_c, 5, 72, 0
7, 745256, Note_on_c, 5, 70, 84
7, 745316, Note_on_c, 5, 70, 0
7, 745316, Note_on_c, 5, 69, 85
7, 745436, Note_on_c, 5, 69, 0
7, 745436, Note_on_c, 5, 70, 106
7, 745677, Note_on_c, 5, 70, 0
7, 745677, Note_on_c, 5, 74, 113
7, 745796, Note_on_c, 5, 74, 0
7, 745917, Note_on_c, 5, 65, 65
7, 746157, Note_on_c, 5, 65, 0
7, 746157, Note_on_c, 5, 65, 92
7, 746400, Note_on_c, 5, 65, 0
7, 746400, Note_on_c, 5, 65, 88
7, 746640, Note_on_c, 5, 65, 0
7, 746640, Note_on_c, 5, 67, 111
7, 746760, Note_on_c, 5, 67, 0
7, 746760, Note_on_c, 5, 69, 109
7, 746880, Note_on_c, 5, 69, 0
7, 746880, Note_on_c, 5, 70, 114
7, 747117, Note_on_c, 5, 70, 0
7, 747117, Note_on_c, 5, 70, 98
7, 747357, Note_on_c, 5, 70, 0
7, 747357, Note_on_c, 5, 70, 95
7, 747477, Note_on_c, 5, 70, 0
7, 747477, Note_on_c, 5, 72, 107
7, 747600, Note_on_c, 5, 72, 0
7, 747600, Note_on_c, 5, 74, 114
7, 747720, Note_on_c, 5, 74, 0
7, 747720, Note_on_c, 5, 75, 114
7, 747840, Note_on_c, 5, 75, 0
7, 747840, Note_on_c, 5, 77, 117
7, 748082, Note_on_c, 5, 77, 0
7, 748082, Note_on_c, 5, 77, 100
7, 748329, Note_on_c, 5, 77, 0
7, 748329, Note_on_c, 5, 77, 97
7, 748572, Note_on_c, 5, 77, 0
7, 748572, Note_on_c, 5, 79, 110
7, 748696, Note_on_c, 5, 79, 0
7, 748696, Note_on_c, 5, 81, 106
7, 748800, Note_on_c, 5, 81, 0
7, 748810, Note_on_c, 5, 82, 117
7, 749049, Note_on_c, 5, 82, 0
7, 749049, Note_on_c, 5, 82, 108
7, 749285, Note_on_c, 5, 82, 0
7, 749285, Note_on_c, 5, 82, 100
7, 749526, Note_on_c, 5, 82, 0
7, 749526, Note_on_c, 5, 81, 93
7, 749646, Note_on_c, 5, 81, 0
7, 749646, Note_on_c, 5, 79, 90
7, 749769, Note_on_c, 5, 79, 0
7, 749769, Note_on_c, 5, 77, 88
7, 750241, Note_on_c, 5, 77, 0
7, 750709, Note_on_c, 5, 65, 55
7, 751676, Note_on_c, 5, 65, 0
7, 751676, Note_on_c, 5, 62, 56
7, 752640, Note_on_c, 5, 62, 0
7, 752640, Note_on_c, 5, 67, 65
7, 753601, Note_on_c, 5, 67, 0
7, 753601, Note_on_c, 5, 60, 47
7, 754460, Note_on_c, 5, 60, 0
7, 754561, Note_on_c, 5, 62, 58
7, 754801, Note_on_c, 5, 62, 0
7, 754801, Note_on_c, 5, 70, 85
7, 755041, Note_on_c, 5, 70, 0
7, 755041, Note_on_c, 5, 67, 55
7, 755280, Note_on_c, 5, 67, 0
7, 755280, Note_on_c, 5, 63, 44
7, 755470, Note_on_c, 5, 63, 0
7, 755520, Note_on_c, 5, 62, 49
7, 756000, Note_on_c, 5, 62, 0
7, 756000, Note_on_c, 5, 60, 59
7, 756380, Note_on_c, 5, 60, 0
7, 756477, Note_on_c, 5, 82, 70
7, 756593, Note_on_c, 5, 82, 0
7, 756720, Note_on_c, 5, 82, 72
7, 756777, Note_on_c, 5, 82, 0
7, 756840, Note_on_c, 5, 82, 72
7, 756897, Note_on_c, 5, 82, 0
7, 756960, Note_on_c, 5, 82, 73
7, 757077, Note_on_c, 5, 82, 0
7, 757200, Note_on_c, 5, 82, 73
7, 757317, Note_on_c, 5, 82, 0
7, 757440, Note_on_c, 5, 82, 73
7, 757680, Note_on_c, 5, 82, 0
7, 757680, Note_on_c, 5, 86, 73
7, 757870, Note_on_c, 5, 86, 0
7, 757920, Note_on_c, 5, 77, 72
7, 758160, Note_on_c, 5, 77, 0
7, 758160, Note_on_c, 5, 82, 72
7, 758350, Note_on_c, 5, 82, 0
7, 758400, Note_on_c, 5, 74, 70
7, 758517, Note_on_c, 5, 74, 0
7, 758640, Note_on_c, 5, 74, 70
7, 758697, Note_on_c, 5, 74, 0
7, 758760, Note_on_c, 5, 74, 72
7, 758817, Note_on_c, 5, 74, 0
7, 758880, Note_on_c, 5, 74, 73
7, 758997, Note_on_c, 5, 74, 0
7, 759120, Note_on_c, 5, 74, 74
7, 759237, Note_on_c, 5, 74, 0
7, 759360, Note_on_c, 5, 74, 75
7, 759600, Note_on_c, 5, 74, 0
7, 759600, Note_on_c, 5, 77, 73
7, 759790, Note_on_c, 5, 77, 0
7, 759840, Note_on_c, 5, 70, 75
7, 760080, Note_on_c, 5, 70, 0
7, 760080, Note_on_c, 5, 74, 73
7, 760270, Note_on_c, 5, 74, 0
7, 760320, Note_on_c, 5, 65, 70
7, 760437, Note_on_c, 5, 65, 0
7, 760560, Note_on_c, 5, 65, 72
7, 760617, Note_on_c, 5, 65, 0
7, 760680, Note_on_c, 5, 65, 72
7, 760737, Note_on_c, 5, 65, 0
7, 760800, Note_on_c, 5, 65, 72
7, 760917, Note_on_c, 5, 65, 0
7, 761040, Note_on_c, 5, 65, 72
7, 761157, Note_on_c, 5, 65, 0
7, 761280, Note_on_c, 5, 65, 72
7, 761397, Note_on_c, 5, 65, 0
7, 761520, Note_on_c, 5, 65, 72
7, 761637, Note_on_c, 5, 65, 0
7, 761760, Note_on_c, 5, 65, 72
7, 761877, Note_on_c, 5, 65, 0
7, 762000, Note_on_c, 5, 65, 72
7, 762093, Note_on_c, 5, 65, 0
7, 762240, Note_on_c, 5, 77, 68
7, 764160, Note_on_c, 5, 77, 0
7, 764160, Note_on_c, 5, 82, 66
7, 766080, Note_on_c, 5, 82, 0
7, 766080, Note_on_c, 5, 77, 38
7, 766320, Note_on_c, 5, 77, 0
7, 766560, Note_on_c, 5, 74, 47
7, 766800, Note_on_c, 5, 74, 0
7, 767040, Note_on_c, 5, 75, 42
7, 767280, Note_on_c, 5, 75, 0
7, 767520, Note_on_c, 5, 72, 54
7, 767760, Note_on_c, 5, 72, 0
7, 767969, Note_on_c, 5, 58, 87
7, 768085, Note_on_c, 5, 58, 0
7, 768218, Note_on_c, 5, 60, 111
7, 768277, Note_on_c, 5, 60, 0
7, 768342, Note_on_c, 5, 62, 113
7, 768400, Note_on_c, 5, 62, 0
7, 768466, Note_on_c, 5, 63, 110
7, 768524, Note_on_c, 5, 63, 0
7, 768592, Note_on_c, 5, 65, 121
7, 768649, Note_on_c, 5, 65, 0
7, 768720, Note_on_c, 5, 67, 111
7, 768777, Note_on_c, 5, 67, 0
7, 768845, Note_on_c, 5, 69, 119
7, 768902, Note_on_c, 5, 69, 0
7, 768969, Note_on_c, 5, 70, 113
7, 769090, Note_on_c, 5, 70, 0
7, 769090, Note_on_c, 5, 69, 94
7, 769210, Note_on_c, 5, 69, 0
7, 769210, Note_on_c, 5, 70, 108
7, 769330, Note_on_c, 5, 70, 0
7, 769330, Note_on_c, 5, 69, 89
7, 769450, Note_on_c, 5, 69, 0
7, 769450, Note_on_c, 5, 70, 103
7, 769570, Note_on_c, 5, 70, 0
7, 769570, Note_on_c, 5, 69, 86
7, 769690, Note_on_c, 5, 69, 0
7, 769690, Note_on_c, 5, 70, 112
7, 769810, Note_on_c, 5, 70, 0
7, 769810, Note_on_c, 5, 69, 90
7, 769906, Note_on_c, 5, 69, 0
7, 769929, Note_on_c, 5, 70, 110
7, 770046, Note_on_c, 5, 70, 0
7, 770165, Note_on_c, 5, 72, 110
7, 770222, Note_on_c, 5, 72, 0
7, 770285, Note_on_c, 5, 74, 116
7, 770342, Note_on_c, 5, 74, 0
7, 770402, Note_on_c, 5, 75, 112
7, 770461, Note_on_c, 5, 75, 0
7, 770522, Note_on_c, 5, 77, 112
7, 770581, Note_on_c, 5, 77, 0
7, 770642, Note_on_c, 5, 79, 116
7, 770701, Note_on_c, 5, 79, 0
7, 770762, Note_on_c, 5, 81, 114
7, 770821, Note_on_c, 5, 81, 0
7, 770885, Note_on_c, 5, 82, 114
7, 771005, Note_on_c, 5, 82, 0
7, 771005, Note_on_c, 5, 81, 97
7, 771122, Note_on_c, 5, 81, 0
7, 771122, Note_on_c, 5, 82, 108
7, 771242, Note_on_c, 5, 82, 0
7, 771242, Note_on_c, 5, 81, 85
7, 771362, Note_on_c, 5, 81, 0
7, 771362, Note_on_c, 5, 82, 112
7, 771482, Note_on_c, 5, 82, 0
7, 771482, Note_on_c, 5, 81, 92
7, 771601, Note_on_c, 5, 81, 0
7, 771601, Note_on_c, 5, 82, 113
7, 771721, Note_on_c, 5, 82, 0
7, 771721, Note_on_c, 5, 81, 95
7, 771817, Note_on_c, 5, 81, 0
7, 771841, Note_on_c, 5, 82, 112
7, 772080, Note_on_c, 5, 82, 0
7, 772320, Note_on_c, 5, 77, 125
7, 772320, Note_on_c, 5, 86, 125
7, 772557, Note_on_c, 5, 86, 0
7, 772557, Note_on_c, 5, 77, 0
7, 772800, Note_on_c, 5, 58, 78
7, 773037, Note_on_c, 5, 58, 0
7, 773280, Note_on_c, 5, 58, 88
7, 773517, Note_on_c, 5, 58, 0
7, 773760, Note_on_c, 5, 58, 112
7, 774602, Note_on_c, 5, 58, 0
7, 774602, End_track
8, 0, Start_track
8, 0, Title_t, "Violins 2"
8, 0, Program_c, 6, 48
8, 0, Control_c, 6, 7, 67
8, 0, Control_c, 6, 10, 112
8, 0, Program_c, 6, 48
8, 0, Control_c, 6, 7, 67
8, 0, Control_c, 6, 121, 0
8, 0, Control_c, 6, 91, 60
8, 0, Note_on_c, 6, 62, 52
8, 237, Note_on_c, 6, 62, 0
8, 480, Note_on_c, 6, 62, 55
8, 657, Note_on_c, 6, 62, 0
8, 840, Note_on_c, 6, 62, 56
8, 897, Note_on_c, 6, 62, 0
8, 960, Note_on_c, 6, 62, 66
8, 1197, Note_on_c, 6, 62, 0
8, 1440, Note_on_c, 6, 62, 62
8, 1629, Note_on_c, 6, 62, 0
8, 1920, Note_on_c, 6, 63, 72
8, 2160, Note_on_c, 6, 63, 0
8, 2160, Note_on_c, 6, 60, 55
8, 2350, Note_on_c, 6, 60, 0
8, 2400, Note_on_c, 6, 62, 71
8, 2880, Note_on_c, 6, 62, 0
8, 3840, Note_on_c, 6, 69, 61
8, 4077, Note_on_c, 6, 69, 0
8, 4320, Note_on_c, 6, 69, 63
8, 4497, Note_on_c, 6, 69, 0
8, 4680, Note_on_c, 6, 69, 59
8, 4737, Note_on_c, 6, 69, 0
8, 4800, Note_on_c, 6, 69, 68
8, 5037, Note_on_c, 6, 69, 0
8, 5280, Note_on_c, 6, 69, 55
8, 5469, Note_on_c, 6, 69, 0
8, 5760, Note_on_c, 6, 67, 56
8, 6000, Note_on_c, 6, 67, 0
8, 6000, Note_on_c, 6, 69, 59
8, 6120, Note_on_c, 6, 69, 0
8, 6120, Note_on_c, 6, 70, 67
8, 6240, Note_on_c, 6, 70, 0
8, 6240, Note_on_c, 6, 69, 59
8, 6621, Note_on_c, 6, 69, 0
8, 7920, Note_on_c, 6, 58, 52
8, 8037, Note_on_c, 6, 58, 0
8, 8160, Note_on_c, 6, 62, 66
8, 8400, Note_on_c, 6, 62, 0
8, 8400, Note_on_c, 6, 65, 76
8, 8590, Note_on_c, 6, 65, 0
8, 8880, Note_on_c, 6, 57, 53
8, 8997, Note_on_c, 6, 57, 0
8, 9120, Note_on_c, 6, 60, 71
8, 9360, Note_on_c, 6, 60, 0
8, 9360, Note_on_c, 6, 63, 78
8, 9552, Note_on_c, 6, 63, 0
8, 9840, Note_on_c, 6, 58, 55
8, 9957, Note_on_c, 6, 58, 0
8, 10085, Note_on_c, 6, 62, 69
8, 10202, Note_on_c, 6, 62, 0
8, 10325, Note_on_c, 6, 65, 69
8, 10442, Note_on_c, 6, 65, 0
8, 10565, Note_on_c, 6, 70, 74
8, 11032, Note_on_c, 6, 70, 0
8, 11516, Note_on_c, 6, 67, 57
8, 13440, Note_on_c, 6, 67, 0
8, 13440, Note_on_c, 6, 65, 51
8, 13913, Note_on_c, 6, 65, 0
8, 17760, Note_on_c, 6, 58, 60
8, 18720, Note_on_c, 6, 58, 0
8, 18720, Note_on_c, 6, 59, 62
8, 19101, Note_on_c, 6, 59, 0
8, 19200, Note_on_c, 6, 60, 65
8, 19680, Note_on_c, 6, 60, 0
8, 21600, Note_on_c, 6, 60, 51
8, 22560, Note_on_c, 6, 60, 0
8, 22560, Note_on_c, 6, 61, 64
8, 22941, Note_on_c, 6, 61, 0
8, 23040, Note_on_c, 6, 62, 76
8, 23280, Note_on_c, 6, 62, 0
8, 23280, Note_on_c, 6, 58, 54
8, 23470, Note_on_c, 6, 58, 0
8, 23520, Note_on_c, 6, 62, 73
8, 23637, Note_on_c, 6, 62, 0
8, 23760, Note_on_c, 6, 65, 74
8, 23877, Note_on_c, 6, 65, 0
8, 24240, Note_on_c, 6, 57, 57
8, 24480, Note_on_c, 6, 57, 0
8, 24480, Note_on_c, 6, 60, 70
8, 24720, Note_on_c, 6, 60, 0
8, 24720, Note_on_c, 6, 63, 78
8, 24910, Note_on_c, 6, 63, 0
8, 24960, Note_on_c, 6, 58, 55
8, 25440, Note_on_c, 6, 58, 0
8, 25920, Note_on_c, 6, 67, 55
8, 26421, Note_on_c, 6, 67, 0
8, 26896, Note_on_c, 6, 62, 55
8, 28321, Note_on_c, 6, 62, 0
8, 28321, Note_on_c, 6, 63, 64
8, 28560, Note_on_c, 6, 63, 0
8, 28560, Note_on_c, 6, 60, 48
8, 28750, Note_on_c, 6, 60, 0
8, 28796, Note_on_c, 6, 58, 55
8, 29280, Note_on_c, 6, 58, 0
8, 29761, Note_on_c, 6, 67, 51
8, 30236, Note_on_c, 6, 67, 0
8, 30717, Note_on_c, 6, 62, 51
8, 31196, Note_on_c, 6, 62, 0
8, 31196, Note_on_c, 6, 58, 41
8, 31920, Note_on_c, 6, 58, 0
8, 31920, Note_on_c, 6, 62, 78
8, 32160, Note_on_c, 6, 62, 0
8, 32160, Note_on_c, 6, 60, 61
8, 32400, Note_on_c, 6, 60, 0
8, 32400, Note_on_c, 6, 57, 51
8, 32640, Note_on_c, 6, 57, 0
8, 32640, Note_on_c, 6, 58, 99
8, 33600, Note_on_c, 6, 58, 0
8, 33840, Note_on_c, 6, 70, 89
8, 33957, Note_on_c, 6, 70, 0
8, 34080, Note_on_c, 6, 70, 95
8, 34197, Note_on_c, 6, 70, 0
8, 34320, Note_on_c, 6, 70, 101
8, 34437, Note_on_c, 6, 70, 0
8, 34560, Note_on_c, 6, 70, 91
8, 34620, Note_on_c, 6, 70, 0
8, 34620, Note_on_c, 6, 72, 112
8, 34680, Note_on_c, 6, 72, 0
8, 34680, Note_on_c, 6, 70, 90
8, 34800, Note_on_c, 6, 70, 0
8, 34800, Note_on_c, 6, 69, 88
8, 35040, Note_on_c, 6, 69, 0
8, 35040, Note_on_c, 6, 69, 101
8, 36000, Note_on_c, 6, 69, 0
8, 36000, Note_on_c, 6, 70, 105
8, 36480, Note_on_c, 6, 70, 0
8, 36480, Note_on_c, 6, 71, 111
8, 36720, Note_on_c, 6, 71, 0
8, 36720, Note_on_c, 6, 72, 112
8, 36960, Note_on_c, 6, 72, 0
8, 36960, Note_on_c, 6, 72, 98
8, 37680, Note_on_c, 6, 72, 0
8, 37680, Note_on_c, 6, 72, 100
8, 37797, Note_on_c, 6, 72, 0
8, 37920, Note_on_c, 6, 72, 98
8, 38037, Note_on_c, 6, 72, 0
8, 38160, Note_on_c, 6, 72, 97
8, 38277, Note_on_c, 6, 72, 0
8, 38400, Note_on_c, 6, 72, 112
8, 38640, Note_on_c, 6, 72, 0
8, 38640, Note_on_c, 6, 74, 110
8, 38880, Note_on_c, 6, 74, 0
8, 38880, Note_on_c, 6, 70, 74
8, 39360, Note_on_c, 6, 70, 0
8, 39600, Note_on_c, 6, 70, 85
8, 39717, Note_on_c, 6, 70, 0
8, 39840, Note_on_c, 6, 70, 89
8, 39957, Note_on_c, 6, 70, 0
8, 40080, Note_on_c, 6, 70, 99
8, 40197, Note_on_c, 6, 70, 0
8, 40320, Note_on_c, 6, 70, 97
8, 40380, Note_on_c, 6, 70, 0
8, 40380, Note_on_c, 6, 72, 109
8, 40440, Note_on_c, 6, 72, 0
8, 40440, Note_on_c, 6, 70, 94
8, 40560, Note_on_c, 6, 70, 0
8, 40560, Note_on_c, 6, 69, 86
8, 40800, Note_on_c, 6, 69, 0
8, 40800, Note_on_c, 6, 69, 92
8, 41760, Note_on_c, 6, 69, 0
8, 41760, Note_on_c, 6, 70, 108
8, 42240, Note_on_c, 6, 70, 0
8, 42240, Note_on_c, 6, 71, 110
8, 42480, Note_on_c, 6, 71, 0
8, 42480, Note_on_c, 6, 72, 101
8, 42670, Note_on_c, 6, 72, 0
8, 42720, Note_on_c, 6, 72, 100
8, 43440, Note_on_c, 6, 72, 0
8, 43440, Note_on_c, 6, 72, 102
8, 43557, Note_on_c, 6, 72, 0
8, 43680, Note_on_c, 6, 72, 93
8, 43797, Note_on_c, 6, 72, 0
8, 43920, Note_on_c, 6, 72, 101
8, 44037, Note_on_c, 6, 72, 0
8, 44160, Note_on_c, 6, 74, 109
8, 44277, Note_on_c, 6, 74, 0
8, 44400, Note_on_c, 6, 77, 120
8, 44517, Note_on_c, 6, 77, 0
8, 44640, Note_on_c, 6, 79, 112
8, 44700, Note_on_c, 6, 79, 0
8, 44700, Note_on_c, 6, 77, 84
8, 44760, Note_on_c, 6, 77, 0
8, 44760, Note_on_c, 6, 76, 88
8, 44820, Note_on_c, 6, 76, 0
8, 44820, Note_on_c, 6, 77, 100
8, 45120, Note_on_c, 6, 77, 0
8, 45120, Note_on_c, 6, 82, 122
8, 45237, Note_on_c, 6, 82, 0
8, 45360, Note_on_c, 6, 74, 63
8, 45477, Note_on_c, 6, 74, 0
8, 45600, Note_on_c, 6, 75, 108
8, 45660, Note_on_c, 6, 75, 0
8, 45660, Note_on_c, 6, 74, 87
8, 45720, Note_on_c, 6, 74, 0
8, 45720, Note_on_c, 6, 72, 86
8, 45780, Note_on_c, 6, 72, 0
8, 45780, Note_on_c, 6, 74, 108
8, 46080, Note_on_c, 6, 74, 0
8, 46080, Note_on_c, 6, 77, 116
8, 46197, Note_on_c, 6, 77, 0
8, 46320, Note_on_c, 6, 70, 65
8, 46437, Note_on_c, 6, 70, 0
8, 46560, Note_on_c, 6, 72, 97
8, 46620, Note_on_c, 6, 72, 0
8, 46620, Note_on_c, 6, 70, 86
8, 46682, Note_on_c, 6, 70, 0
8, 46682, Note_on_c, 6, 69, 88
8, 46742, Note_on_c, 6, 69, 0
8, 46742, Note_on_c, 6, 70, 102
8, 47040, Note_on_c, 6, 70, 0
8, 47040, Note_on_c, 6, 74, 116
8, 47157, Note_on_c, 6, 74, 0
8, 47268, Note_on_c, 6, 65, 68
8, 47386, Note_on_c, 6, 65, 0
8, 47494, Note_on_c, 6, 67, 106
8, 47554, Note_on_c, 6, 67, 0
8, 47554, Note_on_c, 6, 65, 82
8, 47609, Note_on_c, 6, 65, 0
8, 47609, Note_on_c, 6, 64, 86
8, 47669, Note_on_c, 6, 64, 0
8, 47669, Note_on_c, 6, 65, 109
8, 48000, Note_on_c, 6, 65, 0
8, 48000, Note_on_c, 6, 70, 122
8, 48106, Note_on_c, 6, 70, 0
8, 48228, Note_on_c, 6, 62, 74
8, 48346, Note_on_c, 6, 62, 0
8, 48472, Note_on_c, 6, 62, 85
8, 49200, Note_on_c, 6, 62, 0
8, 49200, Note_on_c, 6, 64, 113
8, 49320, Note_on_c, 6, 64, 0
8, 49320, Note_on_c, 6, 65, 107
8, 49440, Note_on_c, 6, 65, 0
8, 49440, Note_on_c, 6, 67, 115
8, 49680, Note_on_c, 6, 67, 0
8, 49680, Note_on_c, 6, 64, 85
8, 49920, Note_on_c, 6, 64, 0
8, 49920, Note_on_c, 6, 65, 101
8, 50157, Note_on_c, 6, 65, 0
8, 50400, Note_on_c, 6, 65, 126
8, 50400, Note_on_c, 6, 72, 126
8, 50400, Note_on_c, 6, 77, 126
8, 50637, Note_on_c, 6, 77, 0
8, 50637, Note_on_c, 6, 72, 0
8, 50637, Note_on_c, 6, 65, 0
8, 51841, Note_on_c, 6, 58, 49
8, 53760, Note_on_c, 6, 58, 0
8, 53760, Note_on_c, 6, 60, 56
8, 55576, Note_on_c, 6, 60, 0
8, 55680, Note_on_c, 6, 58, 48
8, 57600, Note_on_c, 6, 58, 0
8, 57618, Note_on_c, 6, 60, 48
8, 59401, Note_on_c, 6, 60, 0
8, 59516, Note_on_c, 6, 58, 53
8, 61440, Note_on_c, 6, 58, 0
8, 61440, Note_on_c, 6, 59, 51
8, 62400, Note_on_c, 6, 59, 0
8, 62400, Note_on_c, 6, 68, 63
8, 63360, Note_on_c, 6, 68, 0
8, 63360, Note_on_c, 6, 66, 37
8, 64320, Note_on_c, 6, 66, 0
8, 64320, Note_on_c, 6, 65, 46
8, 65176, Note_on_c, 6, 65, 0
8, 65280, Note_on_c, 6, 65, 52
8, 66240, Note_on_c, 6, 65, 0
8, 66240, Note_on_c, 6, 66, 51
8, 67200, Note_on_c, 6, 66, 0
8, 67200, Note_on_c, 6, 66, 56
8, 68160, Note_on_c, 6, 66, 0
8, 68160, Note_on_c, 6, 63, 44
8, 69016, Note_on_c, 6, 63, 0
8, 69120, Note_on_c, 6, 61, 41
8, 69237, Note_on_c, 6, 61, 0
8, 69360, Note_on_c, 6, 61, 51
8, 69600, Note_on_c, 6, 61, 0
8, 69600, Note_on_c, 6, 60, 50
8, 69840, Note_on_c, 6, 60, 0
8, 69840, Note_on_c, 6, 61, 58
8, 70030, Note_on_c, 6, 61, 0
8, 70320, Note_on_c, 6, 58, 50
8, 70437, Note_on_c, 6, 58, 0
8, 70560, Note_on_c, 6, 58, 44
8, 70677, Note_on_c, 6, 58, 0
8, 70800, Note_on_c, 6, 58, 48
8, 70917, Note_on_c, 6, 58, 0
8, 71280, Note_on_c, 6, 58, 48
8, 71397, Note_on_c, 6, 58, 0
8, 71520, Note_on_c, 6, 58, 50
8, 71637, Note_on_c, 6, 58, 0
8, 71760, Note_on_c, 6, 58, 50
8, 71877, Note_on_c, 6, 58, 0
8, 72240, Note_on_c, 6, 57, 48
8, 72357, Note_on_c, 6, 57, 0
8, 72480, Note_on_c, 6, 57, 47
8, 72597, Note_on_c, 6, 57, 0
8, 72720, Note_on_c, 6, 57, 54
8, 72837, Note_on_c, 6, 57, 0
8, 72960, Note_on_c, 6, 58, 42
8, 73200, Note_on_c, 6, 58, 0
8, 73200, Note_on_c, 6, 62, 47
8, 73440, Note_on_c, 6, 62, 0
8, 73440, Note_on_c, 6, 58, 37
8, 73680, Note_on_c, 6, 58, 0
8, 73680, Note_on_c, 6, 62, 48
8, 73920, Note_on_c, 6, 62, 0
8, 73920, Note_on_c, 6, 58, 44
8, 74160, Note_on_c, 6, 58, 0
8, 74160, Note_on_c, 6, 62, 49
8, 74400, Note_on_c, 6, 62, 0
8, 74400, Note_on_c, 6, 58, 41
8, 74640, Note_on_c, 6, 58, 0
8, 74640, Note_on_c, 6, 62, 55
8, 74880, Note_on_c, 6, 62, 0
8, 74880, Note_on_c, 6, 58, 40
8, 75120, Note_on_c, 6, 58, 0
8, 75120, Note_on_c, 6, 62, 55
8, 75360, Note_on_c, 6, 62, 0
8, 75360, Note_on_c, 6, 58, 46
8, 75600, Note_on_c, 6, 58, 0
8, 75600, Note_on_c, 6, 62, 56
8, 75840, Note_on_c, 6, 62, 0
8, 75840, Note_on_c, 6, 58, 42
8, 76080, Note_on_c, 6, 58, 0
8, 76080, Note_on_c, 6, 62, 46
8, 76320, Note_on_c, 6, 62, 0
8, 76320, Note_on_c, 6, 58, 37
8, 76560, Note_on_c, 6, 58, 0
8, 76560, Note_on_c, 6, 62, 53
8, 76800, Note_on_c, 6, 62, 0
8, 76800, Note_on_c, 6, 57, 36
8, 77040, Note_on_c, 6, 57, 0
8, 77040, Note_on_c, 6, 60, 50
8, 77280, Note_on_c, 6, 60, 0
8, 77280, Note_on_c, 6, 57, 42
8, 77520, Note_on_c, 6, 57, 0
8, 77520, Note_on_c, 6, 60, 50
8, 77760, Note_on_c, 6, 60, 0
8, 77760, Note_on_c, 6, 57, 40
8, 78000, Note_on_c, 6, 57, 0
8, 78000, Note_on_c, 6, 60, 53
8, 78240, Note_on_c, 6, 60, 0
8, 78240, Note_on_c, 6, 57, 35
8, 78480, Note_on_c, 6, 57, 0
8, 78480, Note_on_c, 6, 60, 48
8, 78720, Note_on_c, 6, 60, 0
8, 78720, Note_on_c, 6, 57, 40
8, 78960, Note_on_c, 6, 57, 0
8, 78960, Note_on_c, 6, 60, 50
8, 79200, Note_on_c, 6, 60, 0
8, 79200, Note_on_c, 6, 57, 36
8, 79433, Note_on_c, 6, 57, 0
8, 79433, Note_on_c, 6, 60, 53
8, 79680, Note_on_c, 6, 60, 0
8, 79680, Note_on_c, 6, 57, 39
8, 79920, Note_on_c, 6, 57, 0
8, 79920, Note_on_c, 6, 60, 53
8, 80172, Note_on_c, 6, 60, 0
8, 80172, Note_on_c, 6, 57, 37
8, 80420, Note_on_c, 6, 57, 0
8, 80420, Note_on_c, 6, 60, 49
8, 80640, Note_on_c, 6, 60, 0
8, 80658, Note_on_c, 6, 58, 48
8, 80894, Note_on_c, 6, 58, 0
8, 80894, Note_on_c, 6, 62, 53
8, 81132, Note_on_c, 6, 62, 0
8, 81132, Note_on_c, 6, 58, 41
8, 81369, Note_on_c, 6, 58, 0
8, 81369, Note_on_c, 6, 62, 57
8, 81606, Note_on_c, 6, 62, 0
8, 81606, Note_on_c, 6, 58, 45
8, 81842, Note_on_c, 6, 58, 0
8, 81842, Note_on_c, 6, 62, 55
8, 82081, Note_on_c, 6, 62, 0
8, 82081, Note_on_c, 6, 58, 36
8, 82320, Note_on_c, 6, 58, 0
8, 82320, Note_on_c, 6, 62, 48
8, 82560, Note_on_c, 6, 62, 0
8, 82560, Note_on_c, 6, 58, 40
8, 82800, Note_on_c, 6, 58, 0
8, 82800, Note_on_c, 6, 62, 54
8, 83040, Note_on_c, 6, 62, 0
8, 83040, Note_on_c, 6, 58, 37
8, 83280, Note_on_c, 6, 58, 0
8, 83280, Note_on_c, 6, 62, 56
8, 83520, Note_on_c, 6, 62, 0
8, 83520, Note_on_c, 6, 58, 40
8, 83760, Note_on_c, 6, 58, 0
8, 83760, Note_on_c, 6, 62, 59
8, 84000, Note_on_c, 6, 62, 0
8, 84000, Note_on_c, 6, 58, 41
8, 84240, Note_on_c, 6, 58, 0
8, 84240, Note_on_c, 6, 62, 50
8, 84480, Note_on_c, 6, 62, 0
8, 84480, Note_on_c, 6, 57, 39
8, 84720, Note_on_c, 6, 57, 0
8, 84720, Note_on_c, 6, 60, 47
8, 84960, Note_on_c, 6, 60, 0
8, 84960, Note_on_c, 6, 57, 42
8, 85200, Note_on_c, 6, 57, 0
8, 85200, Note_on_c, 6, 60, 45
8, 85440, Note_on_c, 6, 60, 0
8, 85440, Note_on_c, 6, 57, 39
8, 85680, Note_on_c, 6, 57, 0
8, 85680, Note_on_c, 6, 60, 56
8, 85920, Note_on_c, 6, 60, 0
8, 85920, Note_on_c, 6, 57, 45
8, 86160, Note_on_c, 6, 57, 0
8, 86160, Note_on_c, 6, 60, 45
8, 86400, Note_on_c, 6, 60, 0
8, 86400, Note_on_c, 6, 57, 42
8, 86640, Note_on_c, 6, 57, 0
8, 86640, Note_on_c, 6, 60, 51
8, 86880, Note_on_c, 6, 60, 0
8, 86880, Note_on_c, 6, 57, 47
8, 87116, Note_on_c, 6, 57, 0
8, 87116, Note_on_c, 6, 60, 52
8, 87360, Note_on_c, 6, 60, 0
8, 87360, Note_on_c, 6, 57, 37
8, 87600, Note_on_c, 6, 57, 0
8, 87600, Note_on_c, 6, 60, 49
8, 87846, Note_on_c, 6, 60, 0
8, 87846, Note_on_c, 6, 57, 39
8, 88092, Note_on_c, 6, 57, 0
8, 88092, Note_on_c, 6, 60, 56
8, 88320, Note_on_c, 6, 60, 0
8, 88338, Note_on_c, 6, 58, 55
8, 88714, Note_on_c, 6, 58, 0
8, 96002, Note_on_c, 6, 70, 84
8, 96242, Note_on_c, 6, 70, 0
8, 96242, Note_on_c, 6, 72, 107
8, 96302, Note_on_c, 6, 72, 0
8, 96302, Note_on_c, 6, 70, 80
8, 96362, Note_on_c, 6, 70, 0
8, 96362, Note_on_c, 6, 69, 85
8, 96482, Note_on_c, 6, 69, 0
8, 96482, Note_on_c, 6, 70, 105
8, 96720, Note_on_c, 6, 70, 0
8, 96720, Note_on_c, 6, 74, 113
8, 96837, Note_on_c, 6, 74, 0
8, 96960, Note_on_c, 6, 65, 62
8, 97200, Note_on_c, 6, 65, 0
8, 97200, Note_on_c, 6, 65, 94
8, 97440, Note_on_c, 6, 65, 0
8, 97440, Note_on_c, 6, 65, 94
8, 97680, Note_on_c, 6, 65, 0
8, 97680, Note_on_c, 6, 67, 112
8, 97800, Note_on_c, 6, 67, 0
8, 97800, Note_on_c, 6, 69, 114
8, 97920, Note_on_c, 6, 69, 0
8, 97920, Note_on_c, 6, 70, 109
8, 98157, Note_on_c, 6, 70, 0
8, 98157, Note_on_c, 6, 70, 94
8, 98397, Note_on_c, 6, 70, 0
8, 98397, Note_on_c, 6, 70, 94
8, 98517, Note_on_c, 6, 70, 0
8, 98517, Note_on_c, 6, 72, 105
8, 98640, Note_on_c, 6, 72, 0
8, 98640, Note_on_c, 6, 74, 114
8, 98760, Note_on_c, 6, 74, 0
8, 98760, Note_on_c, 6, 75, 105
8, 98880, Note_on_c, 6, 75, 0
8, 98880, Note_on_c, 6, 77, 116
8, 99122, Note_on_c, 6, 77, 0
8, 99122, Note_on_c, 6, 77, 103
8, 99369, Note_on_c, 6, 77, 0
8, 99369, Note_on_c, 6, 77, 95
8, 99614, Note_on_c, 6, 77, 0
8, 99614, Note_on_c, 6, 79, 111
8, 99738, Note_on_c, 6, 79, 0
8, 99738, Note_on_c, 6, 81, 111
8, 99840, Note_on_c, 6, 81, 0
8, 99850, Note_on_c, 6, 82, 104
8, 100089, Note_on_c, 6, 82, 0
8, 100089, Note_on_c, 6, 82, 98
8, 100326, Note_on_c, 6, 82, 0
8, 100326, Note_on_c, 6, 82, 105
8, 100569, Note_on_c, 6, 82, 0
8, 100569, Note_on_c, 6, 81, 84
8, 100689, Note_on_c, 6, 81, 0
8, 100689, Note_on_c, 6, 79, 80
8, 100809, Note_on_c, 6, 79, 0
8, 100809, Note_on_c, 6, 77, 82
8, 101281, Note_on_c, 6, 77, 0
8, 101757, Note_on_c, 6, 74, 57
8, 102717, Note_on_c, 6, 74, 0
8, 102717, Note_on_c, 6, 70, 48
8, 104640, Note_on_c, 6, 70, 0
8, 104640, Note_on_c, 6, 69, 54
8, 105496, Note_on_c, 6, 69, 0
8, 105600, Note_on_c, 6, 70, 61
8, 105840, Note_on_c, 6, 70, 0
8, 105840, Note_on_c, 6, 74, 76
8, 106080, Note_on_c, 6, 74, 0
8, 106080, Note_on_c, 6, 67, 49
8, 106320, Note_on_c, 6, 67, 0
8, 106320, Note_on_c, 6, 63, 40
8, 106560, Note_on_c, 6, 63, 0
8, 106560, Note_on_c, 6, 62, 52
8, 107040, Note_on_c, 6, 62, 0
8, 107040, Note_on_c, 6, 57, 49
8, 107520, Note_on_c, 6, 57, 0
8, 107520, Note_on_c, 6, 58, 56
8, 107756, Note_on_c, 6, 58, 0
8, 107756, Note_on_c, 6, 60, 69
8, 107816, Note_on_c, 6, 60, 0
8, 107816, Note_on_c, 6, 58, 56
8, 107880, Note_on_c, 6, 58, 0
8, 107880, Note_on_c, 6, 57, 56
8, 108000, Note_on_c, 6, 57, 0
8, 108000, Note_on_c, 6, 58, 62
8, 108246, Note_on_c, 6, 58, 0
8, 108246, Note_on_c, 6, 60, 67
8, 108490, Note_on_c, 6, 60, 0
8, 108490, Note_on_c, 6, 62, 73
8, 108956, Note_on_c, 6, 62, 0
8, 109429, Note_on_c, 6, 62, 54
8, 110396, Note_on_c, 6, 62, 0
8, 110396, Note_on_c, 6, 59, 49
8, 111360, Note_on_c, 6, 59, 0
8, 111360, Note_on_c, 6, 58, 61
8, 112321, Note_on_c, 6, 58, 0
8, 112321, Note_on_c, 6, 57, 57
8, 113180, Note_on_c, 6, 57, 0
8, 113281, Note_on_c, 6, 58, 69
8, 113521, Note_on_c, 6, 58, 0
8, 113521, Note_on_c, 6, 62, 77
8, 113761, Note_on_c, 6, 62, 0
8, 113761, Note_on_c, 6, 63, 69
8, 114000, Note_on_c, 6, 63, 0
8, 114000, Note_on_c, 6, 60, 50
8, 114190, Note_on_c, 6, 60, 0
8, 114240, Note_on_c, 6, 58, 49
8, 114720, Note_on_c, 6, 58, 0
8, 114720, Note_on_c, 6, 57, 57
8, 115100, Note_on_c, 6, 57, 0
8, 115197, Note_on_c, 6, 65, 83
8, 117120, Note_on_c, 6, 65, 0
8, 117120, Note_on_c, 6, 70, 82
8, 119040, Note_on_c, 6, 70, 0
8, 119040, Note_on_c, 6, 65, 50
8, 119280, Note_on_c, 6, 65, 0
8, 119520, Note_on_c, 6, 62, 55
8, 119760, Note_on_c, 6, 62, 0
8, 120000, Note_on_c, 6, 63, 52
8, 120240, Note_on_c, 6, 63, 0
8, 120480, Note_on_c, 6, 60, 50
8, 120720, Note_on_c, 6, 60, 0
8, 120960, Note_on_c, 6, 65, 46
8, 122880, Note_on_c, 6, 65, 0
8, 122880, Note_on_c, 6, 77, 74
8, 124800, Note_on_c, 6, 77, 0
8, 124800, Note_on_c, 6, 74, 45
8, 125040, Note_on_c, 6, 74, 0
8, 125280, Note_on_c, 6, 70, 54
8, 125520, Note_on_c, 6, 70, 0
8, 125760, Note_on_c, 6, 72, 45
8, 126000, Note_on_c, 6, 72, 0
8, 126240, Note_on_c, 6, 69, 42
8, 126480, Note_on_c, 6, 69, 0
8, 126689, Note_on_c, 6, 58, 89
8, 126805, Note_on_c, 6, 58, 0
8, 126938, Note_on_c, 6, 60, 108
8, 126997, Note_on_c, 6, 60, 0
8, 127062, Note_on_c, 6, 62, 114
8, 127120, Note_on_c, 6, 62, 0
8, 127186, Note_on_c, 6, 63, 112
8, 127244, Note_on_c, 6, 63, 0
8, 127312, Note_on_c, 6, 65, 115
8, 127369, Note_on_c, 6, 65, 0
8, 127440, Note_on_c, 6, 67, 112
8, 127497, Note_on_c, 6, 67, 0
8, 127565, Note_on_c, 6, 69, 115
8, 127622, Note_on_c, 6, 69, 0
8, 127689, Note_on_c, 6, 70, 106
8, 127810, Note_on_c, 6, 70, 0
8, 127810, Note_on_c, 6, 69, 86
8, 127930, Note_on_c, 6, 69, 0
8, 127930, Note_on_c, 6, 70, 108
8, 128050, Note_on_c, 6, 70, 0
8, 128050, Note_on_c, 6, 69, 86
8, 128170, Note_on_c, 6, 69, 0
8, 128170, Note_on_c, 6, 70, 105
8, 128290, Note_on_c, 6, 70, 0
8, 128290, Note_on_c, 6, 69, 84
8, 128410, Note_on_c, 6, 69, 0
8, 128410, Note_on_c, 6, 70, 104
8, 128530, Note_on_c, 6, 70, 0
8, 128530, Note_on_c, 6, 69, 90
8, 128626, Note_on_c, 6, 69, 0
8, 128649, Note_on_c, 6, 70, 101
8, 128766, Note_on_c, 6, 70, 0
8, 128885, Note_on_c, 6, 72, 119
8, 128942, Note_on_c, 6, 72, 0
8, 129005, Note_on_c, 6, 74, 116
8, 129062, Note_on_c, 6, 74, 0
8, 129122, Note_on_c, 6, 75, 108
8, 129181, Note_on_c, 6, 75, 0
8, 129242, Note_on_c, 6, 77, 115
8, 129301, Note_on_c, 6, 77, 0
8, 129362, Note_on_c, 6, 79, 109
8, 129421, Note_on_c, 6, 79, 0
8, 129482, Note_on_c, 6, 81, 109
8, 129541, Note_on_c, 6, 81, 0
8, 129605, Note_on_c, 6, 82, 109
8, 129725, Note_on_c, 6, 82, 0
8, 129725, Note_on_c, 6, 81, 93
8, 129842, Note_on_c, 6, 81, 0
8, 129842, Note_on_c, 6, 82, 104
8, 129962, Note_on_c, 6, 82, 0
8, 129962, Note_on_c, 6, 81, 91
8, 130082, Note_on_c, 6, 81, 0
8, 130082, Note_on_c, 6, 82, 103
8, 130202, Note_on_c, 6, 82, 0
8, 130202, Note_on_c, 6, 81, 91
8, 130321, Note_on_c, 6, 81, 0
8, 130321, Note_on_c, 6, 82, 108
8, 130441, Note_on_c, 6, 82, 0
8, 130441, Note_on_c, 6, 81, 89
8, 130537, Note_on_c, 6, 81, 0
8, 130561, Note_on_c, 6, 82, 108
8, 130800, Note_on_c, 6, 82, 0
8, 131040, Note_on_c, 6, 74, 99
8, 131040, Note_on_c, 6, 82, 99
8, 131277, Note_on_c, 6, 82, 0
8, 131277, Note_on_c, 6, 74, 0
8, 131520, Note_on_c, 6, 58, 86
8, 131941, Note_on_c, 6, 58, 0
8, 147846, Note_on_c, 6, 62, 56
8, 148085, Note_on_c, 6, 62, 0
8, 148325, Note_on_c, 6, 62, 57
8, 148501, Note_on_c, 6, 62, 0
8, 148681, Note_on_c, 6, 62, 60
8, 148740, Note_on_c, 6, 62, 0
8, 148801, Note_on_c, 6, 62, 61
8, 149040, Note_on_c, 6, 62, 0
8, 149280, Note_on_c, 6, 62, 57
8, 149517, Note_on_c, 6, 62, 0
8, 149753, Note_on_c, 6, 63, 63
8, 149996, Note_on_c, 6, 63, 0
8, 149996, Note_on_c, 6, 60, 55
8, 150240, Note_on_c, 6, 60, 0
8, 150240, Note_on_c, 6, 62, 62
8, 150725, Note_on_c, 6, 62, 0
8, 151676, Note_on_c, 6, 69, 54
8, 151912, Note_on_c, 6, 69, 0
8, 152156, Note_on_c, 6, 69, 56
8, 152333, Note_on_c, 6, 69, 0
8, 152516, Note_on_c, 6, 69, 56
8, 152573, Note_on_c, 6, 69, 0
8, 152636, Note_on_c, 6, 69, 66
8, 152873, Note_on_c, 6, 69, 0
8, 153120, Note_on_c, 6, 69, 65
8, 153357, Note_on_c, 6, 69, 0
8, 153592, Note_on_c, 6, 67, 54
8, 153836, Note_on_c, 6, 67, 0
8, 153836, Note_on_c, 6, 69, 72
8, 153960, Note_on_c, 6, 69, 0
8, 153960, Note_on_c, 6, 70, 68
8, 154080, Note_on_c, 6, 70, 0
8, 154080, Note_on_c, 6, 69, 57
8, 154565, Note_on_c, 6, 69, 0
8, 161292, Note_on_c, 6, 74, 46
8, 162245, Note_on_c, 6, 74, 0
8, 162245, Note_on_c, 6, 72, 41
8, 163200, Note_on_c, 6, 72, 0
8, 163200, Note_on_c, 6, 70, 37
8, 164536, Note_on_c, 6, 70, 0
8, 164640, Note_on_c, 6, 72, 58
8, 164880, Note_on_c, 6, 72, 0
8, 164880, Note_on_c, 6, 69, 44
8, 165120, Note_on_c, 6, 69, 0
8, 165120, Note_on_c, 6, 62, 108
8, 165120, Note_on_c, 6, 70, 108
8, 166080, Note_on_c, 6, 70, 0
8, 166080, Note_on_c, 6, 62, 0
8, 166320, Note_on_c, 6, 70, 82
8, 166437, Note_on_c, 6, 70, 0
8, 166560, Note_on_c, 6, 70, 96
8, 166677, Note_on_c, 6, 70, 0
8, 166800, Note_on_c, 6, 70, 99
8, 166917, Note_on_c, 6, 70, 0
8, 167040, Note_on_c, 6, 70, 98
8, 167100, Note_on_c, 6, 70, 0
8, 167100, Note_on_c, 6, 72, 107
8, 167160, Note_on_c, 6, 72, 0
8, 167160, Note_on_c, 6, 70, 90
8, 167280, Note_on_c, 6, 70, 0
8, 167280, Note_on_c, 6, 69, 91
8, 167520, Note_on_c, 6, 69, 0
8, 167520, Note_on_c, 6, 69, 95
8, 168480, Note_on_c, 6, 69, 0
8, 168480, Note_on_c, 6, 70, 104
8, 168960, Note_on_c, 6, 70, 0
8, 168960, Note_on_c, 6, 71, 103
8, 169200, Note_on_c, 6, 71, 0
8, 169200, Note_on_c, 6, 72, 103
8, 169440, Note_on_c, 6, 72, 0
8, 169440, Note_on_c, 6, 72, 97
8, 170160, Note_on_c, 6, 72, 0
8, 170160, Note_on_c, 6, 72, 61
8, 170277, Note_on_c, 6, 72, 0
8, 170400, Note_on_c, 6, 72, 63
8, 170517, Note_on_c, 6, 72, 0
8, 170640, Note_on_c, 6, 72, 58
8, 170757, Note_on_c, 6, 72, 0
8, 170862, Note_on_c, 6, 72, 68
8, 171109, Note_on_c, 6, 72, 0
8, 171109, Note_on_c, 6, 74, 67
8, 171349, Note_on_c, 6, 74, 0
8, 171349, Note_on_c, 6, 70, 44
8, 171840, Note_on_c, 6, 70, 0
8, 178077, Note_on_c, 6, 63, 47
8, 178560, Note_on_c, 6, 63, 0
8, 178560, Note_on_c, 6, 62, 51
8, 179040, Note_on_c, 6, 62, 0
8, 179993, Note_on_c, 6, 75, 52
8, 180480, Note_on_c, 6, 75, 0
8, 180480, Note_on_c, 6, 74, 53
8, 180956, Note_on_c, 6, 74, 0
8, 188162, Note_on_c, 6, 65, 89
8, 188281, Note_on_c, 6, 65, 0
8, 188401, Note_on_c, 6, 67, 109
8, 188460, Note_on_c, 6, 67, 0
8, 188521, Note_on_c, 6, 69, 114
8, 188580, Note_on_c, 6, 69, 0
8, 188641, Note_on_c, 6, 70, 107
8, 188700, Note_on_c, 6, 70, 0
8, 188761, Note_on_c, 6, 72, 114
8, 188820, Note_on_c, 6, 72, 0
8, 188881, Note_on_c, 6, 74, 112
8, 188940, Note_on_c, 6, 74, 0
8, 189002, Note_on_c, 6, 76, 113
8, 189061, Note_on_c, 6, 76, 0
8, 189122, Note_on_c, 6, 77, 111
8, 189242, Note_on_c, 6, 77, 0
8, 189242, Note_on_c, 6, 76, 91
8, 189362, Note_on_c, 6, 76, 0
8, 189362, Note_on_c, 6, 77, 106
8, 189482, Note_on_c, 6, 77, 0
8, 189482, Note_on_c, 6, 76, 95
8, 189602, Note_on_c, 6, 76, 0
8, 189602, Note_on_c, 6, 77, 102
8, 189722, Note_on_c, 6, 77, 0
8, 189722, Note_on_c, 6, 76, 86
8, 189842, Note_on_c, 6, 76, 0
8, 189842, Note_on_c, 6, 77, 103
8, 189962, Note_on_c, 6, 77, 0
8, 189962, Note_on_c, 6, 76, 90
8, 190080, Note_on_c, 6, 76, 0
8, 190086, Note_on_c, 6, 77, 113
8, 190145, Note_on_c, 6, 77, 0
8, 190206, Note_on_c, 6, 72, 70
8, 190265, Note_on_c, 6, 72, 0
8, 190326, Note_on_c, 6, 74, 98
8, 190385, Note_on_c, 6, 74, 0
8, 190442, Note_on_c, 6, 76, 103
8, 190501, Note_on_c, 6, 76, 0
8, 190562, Note_on_c, 6, 77, 105
8, 190621, Note_on_c, 6, 77, 0
8, 190682, Note_on_c, 6, 79, 110
8, 190741, Note_on_c, 6, 79, 0
8, 190802, Note_on_c, 6, 81, 117
8, 190861, Note_on_c, 6, 81, 0
8, 190922, Note_on_c, 6, 79, 89
8, 190981, Note_on_c, 6, 79, 0
8, 191042, Note_on_c, 6, 77, 83
8, 191162, Note_on_c, 6, 77, 0
8, 191162, Note_on_c, 6, 76, 84
8, 191280, Note_on_c, 6, 76, 0
8, 191280, Note_on_c, 6, 77, 98
8, 191400, Note_on_c, 6, 77, 0
8, 191400, Note_on_c, 6, 76, 90
8, 191520, Note_on_c, 6, 76, 0
8, 191520, Note_on_c, 6, 77, 109
8, 191640, Note_on_c, 6, 77, 0
8, 191640, Note_on_c, 6, 76, 91
8, 191760, Note_on_c, 6, 76, 0
8, 191760, Note_on_c, 6, 77, 106
8, 191880, Note_on_c, 6, 77, 0
8, 191880, Note_on_c, 6, 76, 92
8, 192000, Note_on_c, 6, 76, 0
8, 192000, Note_on_c, 6, 77, 103
8, 192480, Note_on_c, 6, 77, 0
8, 195836, Note_on_c, 6, 72, 58
8, 196800, Note_on_c, 6, 72, 0
8, 196800, Note_on_c, 6, 69, 52
8, 197280, Note_on_c, 6, 69, 0
8, 197280, Note_on_c, 6, 65, 37
8, 197760, Note_on_c, 6, 65, 0
8, 197760, Note_on_c, 6, 72, 72
8, 198720, Note_on_c, 6, 72, 0
8, 198720, Note_on_c, 6, 69, 58
8, 199210, Note_on_c, 6, 69, 0
8, 199210, Note_on_c, 6, 65, 48
8, 199680, Note_on_c, 6, 65, 0
8, 199689, Note_on_c, 6, 60, 50
8, 200165, Note_on_c, 6, 60, 0
8, 203520, Note_on_c, 6, 70, 59
8, 204480, Note_on_c, 6, 70, 0
8, 204480, Note_on_c, 6, 67, 51
8, 204960, Note_on_c, 6, 67, 0
8, 204960, Note_on_c, 6, 64, 50
8, 205440, Note_on_c, 6, 64, 0
8, 205440, Note_on_c, 6, 70, 76
8, 206400, Note_on_c, 6, 70, 0
8, 206400, Note_on_c, 6, 67, 55
8, 206892, Note_on_c, 6, 67, 0
8, 206892, Note_on_c, 6, 64, 51
8, 207360, Note_on_c, 6, 64, 0
8, 207370, Note_on_c, 6, 65, 65
8, 207846, Note_on_c, 6, 65, 0
8, 209280, Note_on_c, 6, 65, 51
8, 210717, Note_on_c, 6, 65, 0
8, 210717, Note_on_c, 6, 66, 58
8, 211092, Note_on_c, 6, 66, 0
8, 211197, Note_on_c, 6, 67, 67
8, 211676, Note_on_c, 6, 67, 0
8, 211676, Note_on_c, 6, 69, 72
8, 212157, Note_on_c, 6, 69, 0
8, 212157, Note_on_c, 6, 70, 69
8, 212642, Note_on_c, 6, 70, 0
8, 212642, Note_on_c, 6, 74, 73
8, 213028, Note_on_c, 6, 74, 0
8, 213125, Note_on_c, 6, 67, 41
8, 213602, Note_on_c, 6, 67, 0
8, 213602, Note_on_c, 6, 70, 66
8, 213985, Note_on_c, 6, 70, 0
8, 214082, Note_on_c, 6, 60, 44
8, 214557, Note_on_c, 6, 60, 0
8, 214557, Note_on_c, 6, 64, 72
8, 214932, Note_on_c, 6, 64, 0
8, 215037, Note_on_c, 6, 65, 67
8, 215513, Note_on_c, 6, 65, 0
8, 215513, Note_on_c, 6, 67, 70
8, 215996, Note_on_c, 6, 67, 0
8, 215996, Note_on_c, 6, 69, 72
8, 216482, Note_on_c, 6, 69, 0
8, 216482, Note_on_c, 6, 72, 74
8, 216960, Note_on_c, 6, 72, 0
8, 216962, Note_on_c, 6, 64, 41
8, 218880, Note_on_c, 6, 64, 0
8, 218880, Note_on_c, 6, 65, 59
8, 220800, Note_on_c, 6, 65, 0
8, 220800, Note_on_c, 6, 67, 67
8, 222720, Note_on_c, 6, 67, 0
8, 222721, Note_on_c, 6, 65, 58
8, 224640, Note_on_c, 6, 65, 0
8, 224640, Note_on_c, 6, 64, 55
8, 226456, Note_on_c, 6, 64, 0
8, 226560, Note_on_c, 6, 65, 63
8, 228480, Note_on_c, 6, 65, 0
8, 228480, Note_on_c, 6, 64, 59
8, 230296, Note_on_c, 6, 64, 0
8, 230400, Note_on_c, 6, 65, 66
8, 232320, Note_on_c, 6, 65, 0
8, 232320, Note_on_c, 6, 63, 51
8, 233277, Note_on_c, 6, 63, 0
8, 233277, Note_on_c, 6, 65, 59
8, 234136, Note_on_c, 6, 65, 0
8, 234240, Note_on_c, 6, 66, 68
8, 235200, Note_on_c, 6, 66, 0
8, 235200, Note_on_c, 6, 64, 48
8, 236056, Note_on_c, 6, 64, 0
8, 236160, Note_on_c, 6, 65, 58
8, 237120, Note_on_c, 6, 65, 0
8, 237120, Note_on_c, 6, 61, 53
8, 238080, Note_on_c, 6, 61, 0
8, 238080, Note_on_c, 6, 58, 50
8, 239040, Note_on_c, 6, 58, 0
8, 239040, Note_on_c, 6, 60, 69
8, 239896, Note_on_c, 6, 60, 0
8, 240000, Note_on_c, 6, 61, 65
8, 240117, Note_on_c, 6, 61, 0
8, 240240, Note_on_c, 6, 65, 71
8, 240480, Note_on_c, 6, 65, 0
8, 240480, Note_on_c, 6, 64, 59
8, 240720, Note_on_c, 6, 64, 0
8, 240720, Note_on_c, 6, 65, 61
8, 240910, Note_on_c, 6, 65, 0
8, 241200, Note_on_c, 6, 65, 50
8, 241317, Note_on_c, 6, 65, 0
8, 241440, Note_on_c, 6, 65, 57
8, 241557, Note_on_c, 6, 65, 0
8, 241680, Note_on_c, 6, 65, 65
8, 241797, Note_on_c, 6, 65, 0
8, 242161, Note_on_c, 6, 65, 48
8, 242280, Note_on_c, 6, 65, 0
8, 242402, Note_on_c, 6, 65, 58
8, 242521, Note_on_c, 6, 65, 0
8, 242642, Note_on_c, 6, 65, 66
8, 242761, Note_on_c, 6, 65, 0
8, 243112, Note_on_c, 6, 64, 51
8, 243229, Note_on_c, 6, 64, 0
8, 243338, Note_on_c, 6, 64, 63
8, 243457, Note_on_c, 6, 64, 0
8, 243569, Note_on_c, 6, 64, 61
8, 243688, Note_on_c, 6, 64, 0
8, 243829, Note_on_c, 6, 65, 54
8, 244068, Note_on_c, 6, 65, 0
8, 244068, Note_on_c, 6, 60, 42
8, 244308, Note_on_c, 6, 60, 0
8, 244308, Note_on_c, 6, 57, 45
8, 244552, Note_on_c, 6, 57, 0
8, 244552, Note_on_c, 6, 60, 61
8, 244793, Note_on_c, 6, 60, 0
8, 244793, Note_on_c, 6, 57, 49
8, 245036, Note_on_c, 6, 57, 0
8, 245036, Note_on_c, 6, 60, 62
8, 245280, Note_on_c, 6, 60, 0
8, 245280, Note_on_c, 6, 57, 47
8, 245520, Note_on_c, 6, 57, 0
8, 245520, Note_on_c, 6, 60, 57
8, 245760, Note_on_c, 6, 60, 0
8, 245760, Note_on_c, 6, 57, 44
8, 246000, Note_on_c, 6, 57, 0
8, 246000, Note_on_c, 6, 60, 54
8, 246240, Note_on_c, 6, 60, 0
8, 246240, Note_on_c, 6, 57, 46
8, 246480, Note_on_c, 6, 57, 0
8, 246480, Note_on_c, 6, 60, 56
8, 246720, Note_on_c, 6, 60, 0
8, 246720, Note_on_c, 6, 57, 48
8, 246960, Note_on_c, 6, 57, 0
8, 246960, Note_on_c, 6, 60, 61
8, 247200, Note_on_c, 6, 60, 0
8, 247200, Note_on_c, 6, 57, 48
8, 247440, Note_on_c, 6, 57, 0
8, 247440, Note_on_c, 6, 60, 56
8, 247630, Note_on_c, 6, 60, 0
8, 247680, Note_on_c, 6, 55, 46
8, 247920, Note_on_c, 6, 55, 0
8, 247920, Note_on_c, 6, 58, 47
8, 248160, Note_on_c, 6, 58, 0
8, 248160, Note_on_c, 6, 55, 50
8, 248400, Note_on_c, 6, 55, 0
8, 248400, Note_on_c, 6, 58, 50
8, 248640, Note_on_c, 6, 58, 0
8, 248640, Note_on_c, 6, 55, 53
8, 248880, Note_on_c, 6, 55, 0
8, 248880, Note_on_c, 6, 58, 51
8, 249120, Note_on_c, 6, 58, 0
8, 249120, Note_on_c, 6, 55, 50
8, 249360, Note_on_c, 6, 55, 0
8, 249360, Note_on_c, 6, 58, 47
8, 249600, Note_on_c, 6, 58, 0
8, 249600, Note_on_c, 6, 55, 42
8, 249840, Note_on_c, 6, 55, 0
8, 249840, Note_on_c, 6, 58, 52
8, 250080, Note_on_c, 6, 58, 0
8, 250080, Note_on_c, 6, 55, 48
8, 250320, Note_on_c, 6, 55, 0
8, 250320, Note_on_c, 6, 58, 55
8, 250560, Note_on_c, 6, 58, 0
8, 250560, Note_on_c, 6, 55, 47
8, 250800, Note_on_c, 6, 55, 0
8, 250800, Note_on_c, 6, 58, 57
8, 251046, Note_on_c, 6, 58, 0
8, 251046, Note_on_c, 6, 55, 47
8, 251290, Note_on_c, 6, 55, 0
8, 251290, Note_on_c, 6, 58, 46
8, 251520, Note_on_c, 6, 58, 0
8, 251536, Note_on_c, 6, 57, 51
8, 251772, Note_on_c, 6, 57, 0
8, 251772, Note_on_c, 6, 60, 57
8, 252010, Note_on_c, 6, 60, 0
8, 252010, Note_on_c, 6, 57, 47
8, 252246, Note_on_c, 6, 57, 0
8, 252246, Note_on_c, 6, 60, 54
8, 252486, Note_on_c, 6, 60, 0
8, 252486, Note_on_c, 6, 57, 41
8, 252725, Note_on_c, 6, 57, 0
8, 252725, Note_on_c, 6, 60, 62
8, 252961, Note_on_c, 6, 60, 0
8, 252961, Note_on_c, 6, 57, 51
8, 253200, Note_on_c, 6, 57, 0
8, 253200, Note_on_c, 6, 60, 58
8, 253440, Note_on_c, 6, 60, 0
8, 253440, Note_on_c, 6, 57, 49
8, 253680, Note_on_c, 6, 57, 0
8, 253680, Note_on_c, 6, 60, 68
8, 253920, Note_on_c, 6, 60, 0
8, 253920, Note_on_c, 6, 57, 42
8, 254160, Note_on_c, 6, 57, 0
8, 254160, Note_on_c, 6, 60, 63
8, 254400, Note_on_c, 6, 60, 0
8, 254400, Note_on_c, 6, 57, 53
8, 254640, Note_on_c, 6, 57, 0
8, 254640, Note_on_c, 6, 60, 57
8, 254880, Note_on_c, 6, 60, 0
8, 254880, Note_on_c, 6, 57, 50
8, 255120, Note_on_c, 6, 57, 0
8, 255120, Note_on_c, 6, 60, 58
8, 255360, Note_on_c, 6, 60, 0
8, 255360, Note_on_c, 6, 55, 45
8, 255600, Note_on_c, 6, 55, 0
8, 255600, Note_on_c, 6, 58, 65
8, 255840, Note_on_c, 6, 58, 0
8, 255840, Note_on_c, 6, 55, 49
8, 256080, Note_on_c, 6, 55, 0
8, 256080, Note_on_c, 6, 58, 51
8, 256320, Note_on_c, 6, 58, 0
8, 256320, Note_on_c, 6, 55, 43
8, 256560, Note_on_c, 6, 55, 0
8, 256560, Note_on_c, 6, 58, 50
8, 256800, Note_on_c, 6, 58, 0
8, 256800, Note_on_c, 6, 55, 49
8, 257040, Note_on_c, 6, 55, 0
8, 257040, Note_on_c, 6, 58, 50
8, 257230, Note_on_c, 6, 58, 0
8, 257280, Note_on_c, 6, 55, 47
8, 257520, Note_on_c, 6, 55, 0
8, 257520, Note_on_c, 6, 58, 52
8, 257760, Note_on_c, 6, 58, 0
8, 257760, Note_on_c, 6, 55, 53
8, 258000, Note_on_c, 6, 55, 0
8, 258000, Note_on_c, 6, 58, 59
8, 258240, Note_on_c, 6, 58, 0
8, 258240, Note_on_c, 6, 55, 44
8, 258480, Note_on_c, 6, 55, 0
8, 258480, Note_on_c, 6, 58, 58
8, 258726, Note_on_c, 6, 58, 0
8, 258726, Note_on_c, 6, 55, 36
8, 258974, Note_on_c, 6, 55, 0
8, 258974, Note_on_c, 6, 58, 50
8, 259200, Note_on_c, 6, 58, 0
8, 259216, Note_on_c, 6, 57, 46
8, 259597, Note_on_c, 6, 57, 0
8, 278393, Note_on_c, 6, 69, 52
8, 279356, Note_on_c, 6, 69, 0
8, 279356, Note_on_c, 6, 66, 46
8, 280320, Note_on_c, 6, 66, 0
8, 280325, Note_on_c, 6, 65, 57
8, 281282, Note_on_c, 6, 65, 0
8, 281282, Note_on_c, 6, 64, 51
8, 282240, Note_on_c, 6, 64, 0
8, 282240, Note_on_c, 6, 65, 67
8, 282473, Note_on_c, 6, 65, 0
8, 282716, Note_on_c, 6, 67, 51
8, 282956, Note_on_c, 6, 67, 0
8, 283196, Note_on_c, 6, 65, 56
8, 283436, Note_on_c, 6, 65, 0
8, 283676, Note_on_c, 6, 64, 57
8, 283916, Note_on_c, 6, 64, 0
8, 284157, Note_on_c, 6, 65, 57
8, 284636, Note_on_c, 6, 65, 0
8, 285121, Note_on_c, 6, 67, 52
8, 286080, Note_on_c, 6, 67, 0
8, 286080, Note_on_c, 6, 65, 53
8, 286560, Note_on_c, 6, 65, 0
8, 287040, Note_on_c, 6, 67, 56
8, 288000, Note_on_c, 6, 67, 0
8, 288000, Note_on_c, 6, 65, 55
8, 288477, Note_on_c, 6, 65, 0
8, 288960, Note_on_c, 6, 67, 52
8, 289920, Note_on_c, 6, 67, 0
8, 289920, Note_on_c, 6, 65, 54
8, 290392, Note_on_c, 6, 65, 0
8, 298556, Note_on_c, 6, 67, 55
8, 299520, Note_on_c, 6, 67, 0
8, 299520, Note_on_c, 6, 65, 39
8, 300000, Note_on_c, 6, 65, 0
8, 300480, Note_on_c, 6, 67, 56
8, 301440, Note_on_c, 6, 67, 0
8, 301440, Note_on_c, 6, 65, 58
8, 301920, Note_on_c, 6, 65, 0
8, 302400, Note_on_c, 6, 67, 56
8, 303360, Note_on_c, 6, 67, 0
8, 303360, Note_on_c, 6, 65, 49
8, 303833, Note_on_c, 6, 65, 0
8, 304320, Note_on_c, 6, 69, 52
8, 305280, Note_on_c, 6, 69, 0
8, 305290, Note_on_c, 6, 69, 62
8, 306246, Note_on_c, 6, 69, 0
8, 306246, Note_on_c, 6, 69, 60
8, 306486, Note_on_c, 6, 69, 0
8, 306725, Note_on_c, 6, 69, 59
8, 306965, Note_on_c, 6, 69, 0
8, 307205, Note_on_c, 6, 70, 52
8, 307685, Note_on_c, 6, 70, 0
8, 314873, Note_on_c, 6, 60, 56
8, 316077, Note_on_c, 6, 60, 0
8, 316077, Note_on_c, 6, 59, 65
8, 316320, Note_on_c, 6, 59, 0
8, 316320, Note_on_c, 6, 60, 75
8, 316560, Note_on_c, 6, 60, 0
8, 316560, Note_on_c, 6, 59, 66
8, 316800, Note_on_c, 6, 59, 0
8, 316800, Note_on_c, 6, 60, 68
8, 317520, Note_on_c, 6, 60, 0
8, 317520, Note_on_c, 6, 59, 58
8, 317760, Note_on_c, 6, 59, 0
8, 317760, Note_on_c, 6, 60, 69
8, 318000, Note_on_c, 6, 60, 0
8, 318000, Note_on_c, 6, 59, 62
8, 318237, Note_on_c, 6, 59, 0
8, 318237, Note_on_c, 6, 60, 64
8, 318477, Note_on_c, 6, 60, 0
8, 318477, Note_on_c, 6, 59, 58
8, 318720, Note_on_c, 6, 59, 0
8, 318720, Note_on_c, 6, 60, 65
8, 319193, Note_on_c, 6, 60, 0
8, 319193, Note_on_c, 6, 61, 64
8, 319680, Note_on_c, 6, 61, 0
8, 319680, Note_on_c, 6, 62, 70
8, 320160, Note_on_c, 6, 62, 0
8, 320160, Note_on_c, 6, 63, 64
8, 320640, Note_on_c, 6, 63, 0
8, 320640, Note_on_c, 6, 64, 61
8, 321116, Note_on_c, 6, 64, 0
8, 321116, Note_on_c, 6, 65, 67
8, 321600, Note_on_c, 6, 65, 0
8, 321600, Note_on_c, 6, 64, 50
8, 322080, Note_on_c, 6, 64, 0
8, 322080, Note_on_c, 6, 63, 57
8, 322560, Note_on_c, 6, 63, 0
8, 322560, Note_on_c, 6, 62, 56
8, 323040, Note_on_c, 6, 62, 0
8, 326636, Note_on_c, 6, 65, 52
8, 326876, Note_on_c, 6, 65, 0
8, 326876, Note_on_c, 6, 65, 64
8, 327116, Note_on_c, 6, 65, 0
8, 327116, Note_on_c, 6, 65, 64
8, 327360, Note_on_c, 6, 65, 0
8, 327360, Note_on_c, 6, 65, 54
8, 327600, Note_on_c, 6, 65, 0
8, 327600, Note_on_c, 6, 65, 65
8, 327841, Note_on_c, 6, 65, 0
8, 327841, Note_on_c, 6, 65, 59
8, 328085, Note_on_c, 6, 65, 0
8, 328085, Note_on_c, 6, 65, 63
8, 328320, Note_on_c, 6, 65, 0
8, 328326, Note_on_c, 6, 64, 60
8, 328446, Note_on_c, 6, 64, 0
8, 328446, Note_on_c, 6, 64, 65
8, 328565, Note_on_c, 6, 64, 0
8, 328565, Note_on_c, 6, 64, 73
8, 328685, Note_on_c, 6, 64, 0
8, 328685, Note_on_c, 6, 64, 82
8, 328805, Note_on_c, 6, 64, 0
8, 328805, Note_on_c, 6, 64, 86
8, 328925, Note_on_c, 6, 64, 0
8, 328925, Note_on_c, 6, 64, 66
8, 329045, Note_on_c, 6, 64, 0
8, 329045, Note_on_c, 6, 64, 75
8, 329165, Note_on_c, 6, 64, 0
8, 329165, Note_on_c, 6, 64, 83
8, 329281, Note_on_c, 6, 64, 0
8, 329281, Note_on_c, 6, 64, 92
8, 329401, Note_on_c, 6, 64, 0
8, 329401, Note_on_c, 6, 64, 87
8, 329521, Note_on_c, 6, 64, 0
8, 329521, Note_on_c, 6, 64, 90
8, 329640, Note_on_c, 6, 64, 0
8, 329640, Note_on_c, 6, 64, 88
8, 329760, Note_on_c, 6, 64, 0
8, 329760, Note_on_c, 6, 64, 96
8, 329880, Note_on_c, 6, 64, 0
8, 329880, Note_on_c, 6, 64, 104
8, 330000, Note_on_c, 6, 64, 0
8, 330000, Note_on_c, 6, 64, 107
8, 330116, Note_on_c, 6, 64, 0
8, 330116, Note_on_c, 6, 64, 103
8, 330240, Note_on_c, 6, 64, 0
8, 330240, Note_on_c, 6, 57, 108
8, 330240, Note_on_c, 6, 65, 108
8, 331200, Note_on_c, 6, 65, 0
8, 331200, Note_on_c, 6, 57, 0
8, 331440, Note_on_c, 6, 65, 93
8, 331557, Note_on_c, 6, 65, 0
8, 331680, Note_on_c, 6, 65, 98
8, 331797, Note_on_c, 6, 65, 0
8, 331920, Note_on_c, 6, 65, 96
8, 332037, Note_on_c, 6, 65, 0
8, 332160, Note_on_c, 6, 65, 103
8, 332220, Note_on_c, 6, 65, 0
8, 332220, Note_on_c, 6, 67, 109
8, 332280, Note_on_c, 6, 67, 0
8, 332280, Note_on_c, 6, 65, 89
8, 332400, Note_on_c, 6, 65, 0
8, 332400, Note_on_c, 6, 64, 84
8, 332640, Note_on_c, 6, 64, 0
8, 332640, Note_on_c, 6, 64, 106
8, 333600, Note_on_c, 6, 64, 0
8, 333600, Note_on_c, 6, 65, 104
8, 334080, Note_on_c, 6, 65, 0
8, 334080, Note_on_c, 6, 66, 122
8, 334320, Note_on_c, 6, 66, 0
8, 334320, Note_on_c, 6, 67, 107
8, 334560, Note_on_c, 6, 67, 0
8, 334560, Note_on_c, 6, 67, 103
8, 335280, Note_on_c, 6, 67, 0
8, 335280, Note_on_c, 6, 67, 94
8, 335397, Note_on_c, 6, 67, 0
8, 335520, Note_on_c, 6, 67, 95
8, 335637, Note_on_c, 6, 67, 0
8, 335760, Note_on_c, 6, 67, 96
8, 335877, Note_on_c, 6, 67, 0
8, 336000, Note_on_c, 6, 67, 98
8, 336060, Note_on_c, 6, 67, 0
8, 336060, Note_on_c, 6, 69, 104
8, 336120, Note_on_c, 6, 69, 0
8, 336120, Note_on_c, 6, 67, 86
8, 336240, Note_on_c, 6, 67, 0
8, 336240, Note_on_c, 6, 65, 86
8, 336480, Note_on_c, 6, 65, 0
8, 336480, Note_on_c, 6, 65, 96
8, 337440, Note_on_c, 6, 65, 0
8, 337440, Note_on_c, 6, 67, 109
8, 337920, Note_on_c, 6, 67, 0
8, 337920, Note_on_c, 6, 68, 109
8, 338160, Note_on_c, 6, 68, 0
8, 338160, Note_on_c, 6, 69, 104
8, 338400, Note_on_c, 6, 69, 0
8, 338400, Note_on_c, 6, 69, 102
8, 339120, Note_on_c, 6, 69, 0
8, 339120, Note_on_c, 6, 69, 97
8, 339237, Note_on_c, 6, 69, 0
8, 339360, Note_on_c, 6, 69, 96
8, 339477, Note_on_c, 6, 69, 0
8, 339600, Note_on_c, 6, 69, 91
8, 339717, Note_on_c, 6, 69, 0
8, 339840, Note_on_c, 6, 69, 95
8, 339900, Note_on_c, 6, 69, 0
8, 339900, Note_on_c, 6, 70, 105
8, 339960, Note_on_c, 6, 70, 0
8, 339960, Note_on_c, 6, 69, 94
8, 340080, Note_on_c, 6, 69, 0
8, 340080, Note_on_c, 6, 67, 86
8, 340320, Note_on_c, 6, 67, 0
8, 340320, Note_on_c, 6, 67, 102
8, 341280, Note_on_c, 6, 67, 0
8, 341280, Note_on_c, 6, 69, 113
8, 341760, Note_on_c, 6, 69, 0
8, 341760, Note_on_c, 6, 69, 100
8, 342000, Note_on_c, 6, 69, 0
8, 342000, Note_on_c, 6, 70, 104
8, 342240, Note_on_c, 6, 70, 0
8, 342240, Note_on_c, 6, 70, 99
8, 342960, Note_on_c, 6, 70, 0
8, 342960, Note_on_c, 6, 70, 97
8, 343077, Note_on_c, 6, 70, 0
8, 343200, Note_on_c, 6, 70, 96
8, 343317, Note_on_c, 6, 70, 0
8, 343440, Note_on_c, 6, 70, 101
8, 343557, Note_on_c, 6, 70, 0
8, 343680, Note_on_c, 6, 81, 126
8, 343797, Note_on_c, 6, 81, 0
8, 343920, Note_on_c, 6, 77, 85
8, 344037, Note_on_c, 6, 77, 0
8, 344160, Note_on_c, 6, 79, 106
8, 344220, Note_on_c, 6, 79, 0
8, 344220, Note_on_c, 6, 77, 91
8, 344280, Note_on_c, 6, 77, 0
8, 344280, Note_on_c, 6, 76, 84
8, 344340, Note_on_c, 6, 76, 0
8, 344340, Note_on_c, 6, 77, 99
8, 344640, Note_on_c, 6, 77, 0
8, 344640, Note_on_c, 6, 81, 113
8, 344757, Note_on_c, 6, 81, 0
8, 344880, Note_on_c, 6, 72, 64
8, 344997, Note_on_c, 6, 72, 0
8, 345120, Note_on_c, 6, 74, 100
8, 345180, Note_on_c, 6, 74, 0
8, 345180, Note_on_c, 6, 72, 90
8, 345237, Note_on_c, 6, 72, 0
8, 345237, Note_on_c, 6, 71, 83
8, 345297, Note_on_c, 6, 71, 0
8, 345297, Note_on_c, 6, 72, 99
8, 345600, Note_on_c, 6, 72, 0
8, 345600, Note_on_c, 6, 74, 109
8, 345712, Note_on_c, 6, 74, 0
8, 345840, Note_on_c, 6, 70, 73
8, 345957, Note_on_c, 6, 70, 0
8, 346080, Note_on_c, 6, 72, 109
8, 346140, Note_on_c, 6, 72, 0
8, 346140, Note_on_c, 6, 70, 88
8, 346200, Note_on_c, 6, 70, 0
8, 346200, Note_on_c, 6, 69, 88
8, 346260, Note_on_c, 6, 69, 0
8, 346260, Note_on_c, 6, 70, 102
8, 346560, Note_on_c, 6, 70, 0
8, 346560, Note_on_c, 6, 74, 120
8, 346677, Note_on_c, 6, 74, 0
8, 346789, Note_on_c, 6, 65, 72
8, 346908, Note_on_c, 6, 65, 0
8, 347014, Note_on_c, 6, 67, 102
8, 347074, Note_on_c, 6, 67, 0
8, 347074, Note_on_c, 6, 65, 87
8, 347130, Note_on_c, 6, 65, 0
8, 347130, Note_on_c, 6, 64, 91
8, 347190, Note_on_c, 6, 64, 0
8, 347190, Note_on_c, 6, 65, 107
8, 347520, Note_on_c, 6, 65, 0
8, 347520, Note_on_c, 6, 70, 126
8, 347626, Note_on_c, 6, 70, 0
8, 347748, Note_on_c, 6, 62, 68
8, 347866, Note_on_c, 6, 62, 0
8, 347992, Note_on_c, 6, 62, 89
8, 348109, Note_on_c, 6, 62, 0
8, 348232, Note_on_c, 6, 62, 102
8, 348349, Note_on_c, 6, 62, 0
8, 348476, Note_on_c, 6, 62, 95
8, 348593, Note_on_c, 6, 62, 0
8, 348716, Note_on_c, 6, 62, 95
8, 348833, Note_on_c, 6, 62, 0
8, 348960, Note_on_c, 6, 62, 97
8, 349077, Note_on_c, 6, 62, 0
8, 349200, Note_on_c, 6, 62, 94
8, 349317, Note_on_c, 6, 62, 0
8, 349440, Note_on_c, 6, 62, 91
8, 349677, Note_on_c, 6, 62, 0
8, 349920, Note_on_c, 6, 62, 126
8, 349920, Note_on_c, 6, 70, 126
8, 349920, Note_on_c, 6, 77, 126
8, 350157, Note_on_c, 6, 77, 0
8, 350157, Note_on_c, 6, 70, 0
8, 350157, Note_on_c, 6, 62, 0
8, 350400, Note_on_c, 6, 62, 100
8, 350400, Note_on_c, 6, 70, 100
8, 350400, Note_on_c, 6, 77, 100
8, 350637, Note_on_c, 6, 77, 0
8, 350637, Note_on_c, 6, 70, 0
8, 350637, Note_on_c, 6, 62, 0
8, 350880, Note_on_c, 6, 62, 100
8, 350880, Note_on_c, 6, 70, 100
8, 350880, Note_on_c, 6, 77, 100
8, 351117, Note_on_c, 6, 77, 0
8, 351117, Note_on_c, 6, 70, 0
8, 351117, Note_on_c, 6, 62, 0
8, 351360, Note_on_c, 6, 62, 98
8, 351360, Note_on_c, 6, 70, 98
8, 351360, Note_on_c, 6, 77, 98
8, 351840, Note_on_c, 6, 77, 0
8, 351840, Note_on_c, 6, 70, 0
8, 351840, Note_on_c, 6, 62, 0
8, 353280, Note_on_c, 6, 65, 57
8, 355200, Note_on_c, 6, 65, 0
8, 355200, Note_on_c, 6, 72, 77
8, 355440, Note_on_c, 6, 72, 0
8, 355680, Note_on_c, 6, 69, 49
8, 355920, Note_on_c, 6, 69, 0
8, 356160, Note_on_c, 6, 70, 54
8, 356400, Note_on_c, 6, 70, 0
8, 356640, Note_on_c, 6, 67, 47
8, 356880, Note_on_c, 6, 67, 0
8, 357120, Note_on_c, 6, 65, 59
8, 359040, Note_on_c, 6, 65, 0
8, 359040, Note_on_c, 6, 81, 90
8, 359280, Note_on_c, 6, 81, 0
8, 359520, Note_on_c, 6, 77, 57
8, 359760, Note_on_c, 6, 77, 0
8, 360000, Note_on_c, 6, 79, 57
8, 360240, Note_on_c, 6, 79, 0
8, 360480, Note_on_c, 6, 76, 56
8, 360720, Note_on_c, 6, 76, 0
8, 360933, Note_on_c, 6, 65, 87
8, 361049, Note_on_c, 6, 65, 0
8, 361182, Note_on_c, 6, 67, 115
8, 361240, Note_on_c, 6, 67, 0
8, 361308, Note_on_c, 6, 69, 113
8, 361366, Note_on_c, 6, 69, 0
8, 361428, Note_on_c, 6, 70, 108
8, 361486, Note_on_c, 6, 70, 0
8, 361553, Note_on_c, 6, 72, 110
8, 361612, Note_on_c, 6, 72, 0
8, 361680, Note_on_c, 6, 74, 113
8, 361737, Note_on_c, 6, 74, 0
8, 361802, Note_on_c, 6, 76, 120
8, 361861, Note_on_c, 6, 76, 0
8, 361922, Note_on_c, 6, 77, 106
8, 362049, Note_on_c, 6, 77, 0
8, 362049, Note_on_c, 6, 76, 89
8, 362169, Note_on_c, 6, 76, 0
8, 362169, Note_on_c, 6, 77, 107
8, 362289, Note_on_c, 6, 77, 0
8, 362289, Note_on_c, 6, 76, 92
8, 362409, Note_on_c, 6, 76, 0
8, 362409, Note_on_c, 6, 77, 97
8, 362529, Note_on_c, 6, 77, 0
8, 362529, Note_on_c, 6, 76, 88
8, 362649, Note_on_c, 6, 76, 0
8, 362649, Note_on_c, 6, 77, 106
8, 362769, Note_on_c, 6, 77, 0
8, 362769, Note_on_c, 6, 76, 92
8, 362880, Note_on_c, 6, 76, 0
8, 362886, Note_on_c, 6, 77, 102
8, 362945, Note_on_c, 6, 77, 0
8, 363006, Note_on_c, 6, 72, 73
8, 363065, Note_on_c, 6, 72, 0
8, 363126, Note_on_c, 6, 74, 106
8, 363185, Note_on_c, 6, 74, 0
8, 363242, Note_on_c, 6, 76, 106
8, 363301, Note_on_c, 6, 76, 0
8, 363362, Note_on_c, 6, 77, 107
8, 363421, Note_on_c, 6, 77, 0
8, 363482, Note_on_c, 6, 79, 115
8, 363541, Note_on_c, 6, 79, 0
8, 363602, Note_on_c, 6, 81, 104
8, 363661, Note_on_c, 6, 81, 0
8, 363722, Note_on_c, 6, 79, 100
8, 363781, Note_on_c, 6, 79, 0
8, 363842, Note_on_c, 6, 77, 86
8, 363962, Note_on_c, 6, 77, 0
8, 363962, Note_on_c, 6, 76, 84
8, 364080, Note_on_c, 6, 76, 0
8, 364080, Note_on_c, 6, 77, 108
8, 364200, Note_on_c, 6, 77, 0
8, 364200, Note_on_c, 6, 76, 83
8, 364320, Note_on_c, 6, 76, 0
8, 364320, Note_on_c, 6, 77, 109
8, 364440, Note_on_c, 6, 77, 0
8, 364440, Note_on_c, 6, 76, 94
8, 364560, Note_on_c, 6, 76, 0
8, 364560, Note_on_c, 6, 77, 102
8, 364680, Note_on_c, 6, 77, 0
8, 364680, Note_on_c, 6, 76, 86
8, 364800, Note_on_c, 6, 76, 0
8, 364800, Note_on_c, 6, 77, 102
8, 365037, Note_on_c, 6, 77, 0
8, 365280, Note_on_c, 6, 72, 119
8, 365280, Note_on_c, 6, 81, 119
8, 365517, Note_on_c, 6, 81, 0
8, 365517, Note_on_c, 6, 72, 0
8, 365760, Note_on_c, 6, 57, 69
8, 365760, Note_on_c, 6, 65, 69
8, 366240, Note_on_c, 6, 65, 0
8, 366240, Note_on_c, 6, 57, 0
8, 376320, Note_on_c, 6, 65, 47
8, 379200, Note_on_c, 6, 65, 0
8, 379200, Note_on_c, 6, 64, 42
8, 381117, Note_on_c, 6, 64, 0
8, 381117, Note_on_c, 6, 62, 40
8, 383040, Note_on_c, 6, 62, 0
8, 383040, Note_on_c, 6, 61, 43
8, 384000, Note_on_c, 6, 61, 0
8, 384000, Note_on_c, 6, 62, 74
8, 384232, Note_on_c, 6, 62, 0
8, 388326, Note_on_c, 6, 55, 60
8, 388445, Note_on_c, 6, 55, 0
8, 388802, Note_on_c, 6, 58, 51
8, 388921, Note_on_c, 6, 58, 0
8, 389280, Note_on_c, 6, 62, 56
8, 389397, Note_on_c, 6, 62, 0
8, 389760, Note_on_c, 6, 67, 60
8, 389877, Note_on_c, 6, 67, 0
8, 390236, Note_on_c, 6, 70, 58
8, 390353, Note_on_c, 6, 70, 0
8, 390721, Note_on_c, 6, 74, 51
8, 390840, Note_on_c, 6, 74, 0
8, 391206, Note_on_c, 6, 79, 56
8, 391325, Note_on_c, 6, 79, 0
8, 391682, Note_on_c, 6, 75, 52
8, 391921, Note_on_c, 6, 75, 0
8, 396001, Note_on_c, 6, 65, 52
8, 396120, Note_on_c, 6, 65, 0
8, 396480, Note_on_c, 6, 69, 58
8, 396597, Note_on_c, 6, 69, 0
8, 396960, Note_on_c, 6, 72, 51
8, 397077, Note_on_c, 6, 72, 0
8, 397440, Note_on_c, 6, 77, 54
8, 397557, Note_on_c, 6, 77, 0
8, 397920, Note_on_c, 6, 81, 53
8, 398037, Note_on_c, 6, 81, 0
8, 398401, Note_on_c, 6, 84, 55
8, 398520, Note_on_c, 6, 84, 0
8, 398885, Note_on_c, 6, 77, 53
8, 399002, Note_on_c, 6, 77, 0
8, 399366, Note_on_c, 6, 74, 49
8, 399601, Note_on_c, 6, 74, 0
8, 403206, Note_on_c, 6, 70, 56
8, 404162, Note_on_c, 6, 70, 0
8, 404162, Note_on_c, 6, 71, 63
8, 405016, Note_on_c, 6, 71, 0
8, 405120, Note_on_c, 6, 72, 68
8, 405600, Note_on_c, 6, 72, 0
8, 407046, Note_on_c, 6, 74, 52
8, 408002, Note_on_c, 6, 74, 0
8, 408002, Note_on_c, 6, 72, 50
8, 408860, Note_on_c, 6, 72, 0
8, 408962, Note_on_c, 6, 74, 65
8, 409440, Note_on_c, 6, 74, 0
8, 410889, Note_on_c, 6, 70, 48
8, 423360, Note_on_c, 6, 70, 0
8, 423360, Note_on_c, 6, 64, 40
8, 424320, Note_on_c, 6, 64, 0
8, 424320, Note_on_c, 6, 65, 61
8, 424789, Note_on_c, 6, 65, 0
8, 426250, Note_on_c, 6, 70, 51
8, 428160, Note_on_c, 6, 70, 0
8, 428160, Note_on_c, 6, 69, 57
8, 428637, Note_on_c, 6, 69, 0
8, 430082, Note_on_c, 6, 61, 55
8, 432000, Note_on_c, 6, 61, 0
8, 432000, Note_on_c, 6, 60, 57
8, 432381, Note_on_c, 6, 60, 0
8, 443513, Note_on_c, 6, 62, 57
8, 443752, Note_on_c, 6, 62, 0
8, 443993, Note_on_c, 6, 62, 66
8, 444172, Note_on_c, 6, 62, 0
8, 444356, Note_on_c, 6, 62, 63
8, 444413, Note_on_c, 6, 62, 0
8, 444476, Note_on_c, 6, 62, 60
8, 444713, Note_on_c, 6, 62, 0
8, 444960, Note_on_c, 6, 62, 58
8, 445197, Note_on_c, 6, 62, 0
8, 445440, Note_on_c, 6, 63, 67
8, 445680, Note_on_c, 6, 63, 0
8, 445680, Note_on_c, 6, 60, 51
8, 445920, Note_on_c, 6, 60, 0
8, 445920, Note_on_c, 6, 62, 60
8, 446400, Note_on_c, 6, 62, 0
8, 447360, Note_on_c, 6, 69, 55
8, 447597, Note_on_c, 6, 69, 0
8, 447840, Note_on_c, 6, 69, 54
8, 448017, Note_on_c, 6, 69, 0
8, 448200, Note_on_c, 6, 69, 63
8, 448257, Note_on_c, 6, 69, 0
8, 448320, Note_on_c, 6, 69, 66
8, 448557, Note_on_c, 6, 69, 0
8, 448800, Note_on_c, 6, 69, 63
8, 449037, Note_on_c, 6, 69, 0
8, 449280, Note_on_c, 6, 67, 51
8, 449520, Note_on_c, 6, 67, 0
8, 449520, Note_on_c, 6, 69, 67
8, 449640, Note_on_c, 6, 69, 0
8, 449640, Note_on_c, 6, 70, 67
8, 449760, Note_on_c, 6, 70, 0
8, 449760, Note_on_c, 6, 69, 56
8, 450240, Note_on_c, 6, 69, 0
8, 451440, Note_on_c, 6, 58, 57
8, 451557, Note_on_c, 6, 58, 0
8, 451680, Note_on_c, 6, 62, 70
8, 451920, Note_on_c, 6, 62, 0
8, 451920, Note_on_c, 6, 65, 77
8, 452160, Note_on_c, 6, 65, 0
8, 452160, Note_on_c, 6, 57, 55
8, 452277, Note_on_c, 6, 57, 0
8, 452400, Note_on_c, 6, 60, 67
8, 452640, Note_on_c, 6, 60, 0
8, 452640, Note_on_c, 6, 63, 71
8, 452880, Note_on_c, 6, 63, 0
8, 453360, Note_on_c, 6, 58, 57
8, 453477, Note_on_c, 6, 58, 0
8, 453600, Note_on_c, 6, 62, 72
8, 453717, Note_on_c, 6, 62, 0
8, 453846, Note_on_c, 6, 65, 68
8, 453965, Note_on_c, 6, 65, 0
8, 454086, Note_on_c, 6, 70, 87
8, 454549, Note_on_c, 6, 70, 0
8, 455036, Note_on_c, 6, 67, 50
8, 456960, Note_on_c, 6, 67, 0
8, 456960, Note_on_c, 6, 65, 50
8, 457432, Note_on_c, 6, 65, 0
8, 461280, Note_on_c, 6, 58, 49
8, 462240, Note_on_c, 6, 58, 0
8, 462240, Note_on_c, 6, 59, 67
8, 462621, Note_on_c, 6, 59, 0
8, 462720, Note_on_c, 6, 60, 66
8, 463200, Note_on_c, 6, 60, 0
8, 465120, Note_on_c, 6, 60, 52
8, 466080, Note_on_c, 6, 60, 0
8, 466080, Note_on_c, 6, 61, 61
8, 466560, Note_on_c, 6, 61, 0
8, 466560, Note_on_c, 6, 62, 74
8, 467032, Note_on_c, 6, 62, 0
8, 472320, Note_on_c, 6, 74, 50
8, 473280, Note_on_c, 6, 74, 0
8, 473280, Note_on_c, 6, 72, 52
8, 474240, Note_on_c, 6, 72, 0
8, 474240, Note_on_c, 6, 74, 69
8, 475680, Note_on_c, 6, 74, 0
8, 475680, Note_on_c, 6, 75, 64
8, 475920, Note_on_c, 6, 75, 0
8, 475920, Note_on_c, 6, 72, 43
8, 476160, Note_on_c, 6, 72, 0
8, 476160, Note_on_c, 6, 62, 71
8, 476160, Note_on_c, 6, 70, 71
8, 477120, Note_on_c, 6, 70, 0
8, 477120, Note_on_c, 6, 62, 0
8, 477360, Note_on_c, 6, 70, 80
8, 477477, Note_on_c, 6, 70, 0
8, 477600, Note_on_c, 6, 70, 88
8, 477717, Note_on_c, 6, 70, 0
8, 477840, Note_on_c, 6, 70, 91
8, 477957, Note_on_c, 6, 70, 0
8, 478080, Note_on_c, 6, 70, 97
8, 478140, Note_on_c, 6, 70, 0
8, 478140, Note_on_c, 6, 72, 112
8, 478200, Note_on_c, 6, 72, 0
8, 478200, Note_on_c, 6, 70, 86
8, 478320, Note_on_c, 6, 70, 0
8, 478320, Note_on_c, 6, 69, 87
8, 478560, Note_on_c, 6, 69, 0
8, 478560, Note_on_c, 6, 69, 90
8, 479520, Note_on_c, 6, 69, 0
8, 479520, Note_on_c, 6, 70, 113
8, 480000, Note_on_c, 6, 70, 0
8, 480000, Note_on_c, 6, 71, 104
8, 480240, Note_on_c, 6, 71, 0
8, 480240, Note_on_c, 6, 72, 107
8, 480480, Note_on_c, 6, 72, 0
8, 480480, Note_on_c, 6, 72, 100
8, 481200, Note_on_c, 6, 72, 0
8, 481200, Note_on_c, 6, 72, 100
8, 481317, Note_on_c, 6, 72, 0
8, 481440, Note_on_c, 6, 72, 93
8, 481557, Note_on_c, 6, 72, 0
8, 481680, Note_on_c, 6, 72, 98
8, 481797, Note_on_c, 6, 72, 0
8, 481920, Note_on_c, 6, 72, 95
8, 482160, Note_on_c, 6, 72, 0
8, 482160, Note_on_c, 6, 74, 109
8, 482400, Note_on_c, 6, 74, 0
8, 482400, Note_on_c, 6, 70, 80
8, 482880, Note_on_c, 6, 70, 0
8, 483120, Note_on_c, 6, 70, 87
8, 483237, Note_on_c, 6, 70, 0
8, 483360, Note_on_c, 6, 70, 89
8, 483477, Note_on_c, 6, 70, 0
8, 483600, Note_on_c, 6, 70, 98
8, 483717, Note_on_c, 6, 70, 0
8, 483840, Note_on_c, 6, 70, 99
8, 483900, Note_on_c, 6, 70, 0
8, 483900, Note_on_c, 6, 72, 107
8, 483960, Note_on_c, 6, 72, 0
8, 483960, Note_on_c, 6, 70, 88
8, 484080, Note_on_c, 6, 70, 0
8, 484080, Note_on_c, 6, 69, 95
8, 484320, Note_on_c, 6, 69, 0
8, 484320, Note_on_c, 6, 69, 97
8, 485280, Note_on_c, 6, 69, 0
8, 485280, Note_on_c, 6, 70, 105
8, 485760, Note_on_c, 6, 70, 0
8, 485760, Note_on_c, 6, 71, 107
8, 486000, Note_on_c, 6, 71, 0
8, 486000, Note_on_c, 6, 72, 105
8, 486190, Note_on_c, 6, 72, 0
8, 486240, Note_on_c, 6, 72, 102
8, 486960, Note_on_c, 6, 72, 0
8, 486960, Note_on_c, 6, 72, 100
8, 487077, Note_on_c, 6, 72, 0
8, 487200, Note_on_c, 6, 72, 98
8, 487317, Note_on_c, 6, 72, 0
8, 487440, Note_on_c, 6, 72, 97
8, 487557, Note_on_c, 6, 72, 0
8, 487680, Note_on_c, 6, 74, 116
8, 487797, Note_on_c, 6, 74, 0
8, 487920, Note_on_c, 6, 77, 119
8, 488037, Note_on_c, 6, 77, 0
8, 488160, Note_on_c, 6, 79, 116
8, 488220, Note_on_c, 6, 79, 0
8, 488220, Note_on_c, 6, 77, 91
8, 488280, Note_on_c, 6, 77, 0
8, 488280, Note_on_c, 6, 76, 84
8, 488340, Note_on_c, 6, 76, 0
8, 488340, Note_on_c, 6, 77, 106
8, 488640, Note_on_c, 6, 77, 0
8, 488640, Note_on_c, 6, 82, 125
8, 488757, Note_on_c, 6, 82, 0
8, 488880, Note_on_c, 6, 74, 70
8, 488997, Note_on_c, 6, 74, 0
8, 489120, Note_on_c, 6, 75, 106
8, 489180, Note_on_c, 6, 75, 0
8, 489180, Note_on_c, 6, 74, 85
8, 489240, Note_on_c, 6, 74, 0
8, 489240, Note_on_c, 6, 72, 81
8, 489300, Note_on_c, 6, 72, 0
8, 489300, Note_on_c, 6, 74, 112
8, 489600, Note_on_c, 6, 74, 0
8, 489600, Note_on_c, 6, 77, 117
8, 489717, Note_on_c, 6, 77, 0
8, 489840, Note_on_c, 6, 70, 69
8, 489957, Note_on_c, 6, 70, 0
8, 490080, Note_on_c, 6, 72, 103
8, 490140, Note_on_c, 6, 72, 0
8, 490140, Note_on_c, 6, 70, 88
8, 490202, Note_on_c, 6, 70, 0
8, 490202, Note_on_c, 6, 69, 88
8, 490262, Note_on_c, 6, 69, 0
8, 490262, Note_on_c, 6, 70, 105
8, 490560, Note_on_c, 6, 70, 0
8, 490560, Note_on_c, 6, 74, 119
8, 490677, Note_on_c, 6, 74, 0
8, 490788, Note_on_c, 6, 65, 68
8, 490906, Note_on_c, 6, 65, 0
8, 491014, Note_on_c, 6, 67, 99
8, 491074, Note_on_c, 6, 67, 0
8, 491074, Note_on_c, 6, 65, 84
8, 491129, Note_on_c, 6, 65, 0
8, 491129, Note_on_c, 6, 64, 92
8, 491189, Note_on_c, 6, 64, 0
8, 491189, Note_on_c, 6, 65, 99
8, 491520, Note_on_c, 6, 65, 0
8, 491520, Note_on_c, 6, 70, 126
8, 491626, Note_on_c, 6, 70, 0
8, 491748, Note_on_c, 6, 62, 65
8, 491866, Note_on_c, 6, 62, 0
8, 491992, Note_on_c, 6, 62, 88
8, 492720, Note_on_c, 6, 62, 0
8, 492720, Note_on_c, 6, 64, 105
8, 492840, Note_on_c, 6, 64, 0
8, 492840, Note_on_c, 6, 65, 111
8, 492960, Note_on_c, 6, 65, 0
8, 492960, Note_on_c, 6, 67, 111
8, 493200, Note_on_c, 6, 67, 0
8, 493200, Note_on_c, 6, 64, 83
8, 493440, Note_on_c, 6, 64, 0
8, 493440, Note_on_c, 6, 65, 109
8, 493916, Note_on_c, 6, 65, 0
8, 497280, Note_on_c, 6, 65, 52
8, 498240, Note_on_c, 6, 65, 0
8, 498240, Note_on_c, 6, 62, 42
8, 498720, Note_on_c, 6, 62, 0
8, 498720, Note_on_c, 6, 58, 45
8, 499200, Note_on_c, 6, 58, 0
8, 499200, Note_on_c, 6, 65, 59
8, 500160, Note_on_c, 6, 65, 0
8, 500160, Note_on_c, 6, 62, 45
8, 500652, Note_on_c, 6, 62, 0
8, 500652, Note_on_c, 6, 58, 41
8, 501120, Note_on_c, 6, 58, 0
8, 501130, Note_on_c, 6, 65, 62
8, 501606, Note_on_c, 6, 65, 0
8, 504960, Note_on_c, 6, 63, 41
8, 505920, Note_on_c, 6, 63, 0
8, 505920, Note_on_c, 6, 60, 47
8, 506400, Note_on_c, 6, 60, 0
8, 506400, Note_on_c, 6, 57, 50
8, 506880, Note_on_c, 6, 57, 0
8, 506880, Note_on_c, 6, 63, 63
8, 507840, Note_on_c, 6, 63, 0
8, 507840, Note_on_c, 6, 60, 46
8, 508330, Note_on_c, 6, 60, 0
8, 508330, Note_on_c, 6, 57, 47
8, 508800, Note_on_c, 6, 57, 0
8, 508810, Note_on_c, 6, 58, 48
8, 509289, Note_on_c, 6, 58, 0
8, 510720, Note_on_c, 6, 70, 48
8, 512160, Note_on_c, 6, 70, 0
8, 512160, Note_on_c, 6, 71, 52
8, 512640, Note_on_c, 6, 71, 0
8, 512640, Note_on_c, 6, 72, 49
8, 513116, Note_on_c, 6, 72, 0
8, 513116, Note_on_c, 6, 65, 34
8, 513597, Note_on_c, 6, 65, 0
8, 513597, Note_on_c, 6, 67, 52
8, 514081, Note_on_c, 6, 67, 0
8, 514081, Note_on_c, 6, 63, 38
8, 514560, Note_on_c, 6, 63, 0
8, 514565, Note_on_c, 6, 72, 72
8, 515042, Note_on_c, 6, 72, 0
8, 515042, Note_on_c, 6, 75, 60
8, 515521, Note_on_c, 6, 75, 0
8, 515521, Note_on_c, 6, 65, 35
8, 516000, Note_on_c, 6, 65, 0
8, 516000, Note_on_c, 6, 69, 63
8, 516480, Note_on_c, 6, 69, 0
8, 516480, Note_on_c, 6, 70, 57
8, 516956, Note_on_c, 6, 70, 0
8, 516956, Note_on_c, 6, 72, 59
8, 517437, Note_on_c, 6, 72, 0
8, 517437, Note_on_c, 6, 74, 59
8, 517920, Note_on_c, 6, 74, 0
8, 517920, Note_on_c, 6, 77, 65
8, 518305, Note_on_c, 6, 77, 0
8, 518402, Note_on_c, 6, 69, 35
8, 520320, Note_on_c, 6, 69, 0
8, 520320, Note_on_c, 6, 70, 56
8, 522240, Note_on_c, 6, 70, 0
8, 522240, Note_on_c, 6, 72, 52
8, 524160, Note_on_c, 6, 72, 0
8, 524162, Note_on_c, 6, 58, 39
8, 526080, Note_on_c, 6, 58, 0
8, 526080, Note_on_c, 6, 60, 57
8, 528000, Note_on_c, 6, 60, 0
8, 528000, Note_on_c, 6, 58, 50
8, 529920, Note_on_c, 6, 58, 0
8, 529920, Note_on_c, 6, 60, 59
8, 531840, Note_on_c, 6, 60, 0
8, 531840, Note_on_c, 6, 58, 44
8, 533760, Note_on_c, 6, 58, 0
8, 533760, Note_on_c, 6, 56, 48
8, 534717, Note_on_c, 6, 56, 0
8, 534717, Note_on_c, 6, 58, 54
8, 535576, Note_on_c, 6, 58, 0
8, 535680, Note_on_c, 6, 59, 56
8, 536640, Note_on_c, 6, 59, 0
8, 536640, Note_on_c, 6, 57, 50
8, 537496, Note_on_c, 6, 57, 0
8, 537600, Note_on_c, 6, 58, 53
8, 538560, Note_on_c, 6, 58, 0
8, 538560, Note_on_c, 6, 66, 68
8, 539520, Note_on_c, 6, 66, 0
8, 539520, Note_on_c, 6, 63, 47
8, 540480, Note_on_c, 6, 63, 0
8, 540480, Note_on_c, 6, 65, 55
8, 541336, Note_on_c, 6, 65, 0
8, 541440, Note_on_c, 6, 66, 55
8, 541557, Note_on_c, 6, 66, 0
8, 541680, Note_on_c, 6, 61, 41
8, 541920, Note_on_c, 6, 61, 0
8, 541920, Note_on_c, 6, 60, 44
8, 542160, Note_on_c, 6, 60, 0
8, 542160, Note_on_c, 6, 61, 60
8, 542350, Note_on_c, 6, 61, 0
8, 542641, Note_on_c, 6, 58, 50
8, 542760, Note_on_c, 6, 58, 0
8, 542881, Note_on_c, 6, 58, 48
8, 543000, Note_on_c, 6, 58, 0
8, 543120, Note_on_c, 6, 58, 50
8, 543237, Note_on_c, 6, 58, 0
8, 543602, Note_on_c, 6, 58, 41
8, 543721, Note_on_c, 6, 58, 0
8, 543842, Note_on_c, 6, 58, 51
8, 543961, Note_on_c, 6, 58, 0
8, 544082, Note_on_c, 6, 58, 49
8, 544201, Note_on_c, 6, 58, 0
8, 544553, Note_on_c, 6, 57, 53
8, 544672, Note_on_c, 6, 57, 0
8, 544784, Note_on_c, 6, 57, 46
8, 544902, Note_on_c, 6, 57, 0
8, 545020, Note_on_c, 6, 57, 54
8, 545138, Note_on_c, 6, 57, 0
8, 545273, Note_on_c, 6, 58, 39
8, 545512, Note_on_c, 6, 58, 0
8, 545512, Note_on_c, 6, 62, 52
8, 545752, Note_on_c, 6, 62, 0
8, 545752, Note_on_c, 6, 58, 43
8, 545996, Note_on_c, 6, 58, 0
8, 545996, Note_on_c, 6, 62, 51
8, 546236, Note_on_c, 6, 62, 0
8, 546236, Note_on_c, 6, 58, 40
8, 546480, Note_on_c, 6, 58, 0
8, 546480, Note_on_c, 6, 62, 54
8, 546720, Note_on_c, 6, 62, 0
8, 546720, Note_on_c, 6, 58, 39
8, 546960, Note_on_c, 6, 58, 0
8, 546960, Note_on_c, 6, 62, 47
8, 547200, Note_on_c, 6, 62, 0
8, 547200, Note_on_c, 6, 58, 38
8, 547440, Note_on_c, 6, 58, 0
8, 547440, Note_on_c, 6, 62, 49
8, 547680, Note_on_c, 6, 62, 0
8, 547680, Note_on_c, 6, 58, 44
8, 547920, Note_on_c, 6, 58, 0
8, 547920, Note_on_c, 6, 62, 47
8, 548160, Note_on_c, 6, 62, 0
8, 548160, Note_on_c, 6, 58, 39
8, 548400, Note_on_c, 6, 58, 0
8, 548400, Note_on_c, 6, 62, 48
8, 548640, Note_on_c, 6, 62, 0
8, 548640, Note_on_c, 6, 58, 30
8, 548880, Note_on_c, 6, 58, 0
8, 548880, Note_on_c, 6, 62, 43
8, 549070, Note_on_c, 6, 62, 0
8, 549120, Note_on_c, 6, 57, 39
8, 549360, Note_on_c, 6, 57, 0
8, 549360, Note_on_c, 6, 60, 40
8, 549600, Note_on_c, 6, 60, 0
8, 549600, Note_on_c, 6, 57, 31
8, 549840, Note_on_c, 6, 57, 0
8, 549840, Note_on_c, 6, 60, 44
8, 550080, Note_on_c, 6, 60, 0
8, 550080, Note_on_c, 6, 57, 43
8, 550320, Note_on_c, 6, 57, 0
8, 550320, Note_on_c, 6, 60, 45
8, 550560, Note_on_c, 6, 60, 0
8, 550560, Note_on_c, 6, 57, 34
8, 550800, Note_on_c, 6, 57, 0
8, 550800, Note_on_c, 6, 60, 43
8, 550990, Note_on_c, 6, 60, 0
8, 551040, Note_on_c, 6, 57, 38
8, 551280, Note_on_c, 6, 57, 0
8, 551280, Note_on_c, 6, 60, 47
8, 551520, Note_on_c, 6, 60, 0
8, 551520, Note_on_c, 6, 57, 46
8, 551760, Note_on_c, 6, 57, 0
8, 551760, Note_on_c, 6, 60, 48
8, 552000, Note_on_c, 6, 60, 0
8, 552000, Note_on_c, 6, 57, 45
8, 552240, Note_on_c, 6, 57, 0
8, 552240, Note_on_c, 6, 60, 49
8, 552485, Note_on_c, 6, 60, 0
8, 552485, Note_on_c, 6, 57, 43
8, 552730, Note_on_c, 6, 57, 0
8, 552730, Note_on_c, 6, 60, 51
8, 552960, Note_on_c, 6, 60, 0
8, 552972, Note_on_c, 6, 58, 54
8, 553212, Note_on_c, 6, 58, 0
8, 553212, Note_on_c, 6, 65, 51
8, 553452, Note_on_c, 6, 65, 0
8, 553452, Note_on_c, 6, 63, 37
8, 553685, Note_on_c, 6, 63, 0
8, 553685, Note_on_c, 6, 65, 52
8, 553925, Note_on_c, 6, 65, 0
8, 553925, Note_on_c, 6, 63, 34
8, 554165, Note_on_c, 6, 63, 0
8, 554165, Note_on_c, 6, 65, 39
8, 554400, Note_on_c, 6, 65, 0
8, 554400, Note_on_c, 6, 63, 34
8, 554640, Note_on_c, 6, 63, 0
8, 554640, Note_on_c, 6, 65, 44
8, 554880, Note_on_c, 6, 65, 0
8, 554880, Note_on_c, 6, 63, 35
8, 555120, Note_on_c, 6, 63, 0
8, 555120, Note_on_c, 6, 65, 50
8, 555360, Note_on_c, 6, 65, 0
8, 555360, Note_on_c, 6, 63, 38
8, 555600, Note_on_c, 6, 63, 0
8, 555600, Note_on_c, 6, 65, 43
8, 555840, Note_on_c, 6, 65, 0
8, 555840, Note_on_c, 6, 63, 40
8, 556080, Note_on_c, 6, 63, 0
8, 556080, Note_on_c, 6, 65, 42
8, 556320, Note_on_c, 6, 65, 0
8, 556320, Note_on_c, 6, 63, 38
8, 556560, Note_on_c, 6, 63, 0
8, 556560, Note_on_c, 6, 65, 43
8, 556800, Note_on_c, 6, 65, 0
8, 556800, Note_on_c, 6, 60, 36
8, 557040, Note_on_c, 6, 60, 0
8, 557040, Note_on_c, 6, 63, 42
8, 557280, Note_on_c, 6, 63, 0
8, 557280, Note_on_c, 6, 60, 26
8, 557520, Note_on_c, 6, 60, 0
8, 557520, Note_on_c, 6, 63, 42
8, 557760, Note_on_c, 6, 63, 0
8, 557760, Note_on_c, 6, 60, 34
8, 558000, Note_on_c, 6, 60, 0
8, 558000, Note_on_c, 6, 63, 52
8, 558240, Note_on_c, 6, 63, 0
8, 558240, Note_on_c, 6, 60, 40
8, 558480, Note_on_c, 6, 60, 0
8, 558480, Note_on_c, 6, 63, 49
8, 558720, Note_on_c, 6, 63, 0
8, 558720, Note_on_c, 6, 60, 34
8, 558960, Note_on_c, 6, 60, 0
8, 558960, Note_on_c, 6, 63, 57
8, 559200, Note_on_c, 6, 63, 0
8, 559200, Note_on_c, 6, 60, 37
8, 559440, Note_on_c, 6, 60, 0
8, 559440, Note_on_c, 6, 63, 60
8, 559680, Note_on_c, 6, 63, 0
8, 559680, Note_on_c, 6, 60, 31
8, 559920, Note_on_c, 6, 60, 0
8, 559920, Note_on_c, 6, 63, 48
8, 560165, Note_on_c, 6, 63, 0
8, 560165, Note_on_c, 6, 60, 28
8, 560412, Note_on_c, 6, 60, 0
8, 560412, Note_on_c, 6, 63, 45
8, 560640, Note_on_c, 6, 63, 0
8, 560652, Note_on_c, 6, 62, 44
8, 561034, Note_on_c, 6, 62, 0
8, 579836, Note_on_c, 6, 62, 52
8, 580800, Note_on_c, 6, 62, 0
8, 580800, Note_on_c, 6, 59, 56
8, 581760, Note_on_c, 6, 59, 0
8, 581761, Note_on_c, 6, 58, 57
8, 582721, Note_on_c, 6, 58, 0
8, 582721, Note_on_c, 6, 57, 59
8, 583680, Note_on_c, 6, 57, 0
8, 583680, Note_on_c, 6, 58, 63
8, 583912, Note_on_c, 6, 58, 0
8, 584152, Note_on_c, 6, 60, 51
8, 584396, Note_on_c, 6, 60, 0
8, 584636, Note_on_c, 6, 58, 49
8, 584876, Note_on_c, 6, 58, 0
8, 585116, Note_on_c, 6, 57, 52
8, 585356, Note_on_c, 6, 57, 0
8, 585597, Note_on_c, 6, 58, 56
8, 586080, Note_on_c, 6, 58, 0
8, 586560, Note_on_c, 6, 72, 55
8, 587520, Note_on_c, 6, 72, 0
8, 587520, Note_on_c, 6, 70, 54
8, 587901, Note_on_c, 6, 70, 0
8, 588480, Note_on_c, 6, 72, 53
8, 589440, Note_on_c, 6, 72, 0
8, 589440, Note_on_c, 6, 70, 50
8, 589810, Note_on_c, 6, 70, 0
8, 590400, Note_on_c, 6, 72, 56
8, 591360, Note_on_c, 6, 72, 0
8, 591360, Note_on_c, 6, 70, 55
8, 591730, Note_on_c, 6, 70, 0
8, 600000, Note_on_c, 6, 72, 54
8, 600960, Note_on_c, 6, 72, 0
8, 600960, Note_on_c, 6, 74, 63
8, 601341, Note_on_c, 6, 74, 0
8, 601920, Note_on_c, 6, 72, 52
8, 602880, Note_on_c, 6, 72, 0
8, 602880, Note_on_c, 6, 70, 49
8, 603258, Note_on_c, 6, 70, 0
8, 603840, Note_on_c, 6, 72, 55
8, 604800, Note_on_c, 6, 72, 0
8, 604800, Note_on_c, 6, 70, 53
8, 605176, Note_on_c, 6, 70, 0
8, 605760, Note_on_c, 6, 62, 59
8, 606720, Note_on_c, 6, 62, 0
8, 606722, Note_on_c, 6, 62, 57
8, 607682, Note_on_c, 6, 62, 0
8, 607682, Note_on_c, 6, 62, 65
8, 607922, Note_on_c, 6, 62, 0
8, 608162, Note_on_c, 6, 62, 50
8, 608401, Note_on_c, 6, 62, 0
8, 608642, Note_on_c, 6, 62, 52
8, 608882, Note_on_c, 6, 62, 0
8, 609601, Note_on_c, 6, 60, 56
8, 609840, Note_on_c, 6, 60, 0
8, 610560, Note_on_c, 6, 60, 49
8, 610800, Note_on_c, 6, 60, 0
8, 611520, Note_on_c, 6, 58, 46
8, 611760, Note_on_c, 6, 58, 0
8, 618236, Note_on_c, 6, 65, 54
8, 619440, Note_on_c, 6, 65, 0
8, 619440, Note_on_c, 6, 64, 55
8, 619680, Note_on_c, 6, 64, 0
8, 619680, Note_on_c, 6, 65, 62
8, 619920, Note_on_c, 6, 65, 0
8, 619920, Note_on_c, 6, 64, 52
8, 620160, Note_on_c, 6, 64, 0
8, 620160, Note_on_c, 6, 65, 62
8, 620880, Note_on_c, 6, 65, 0
8, 620880, Note_on_c, 6, 64, 60
8, 621120, Note_on_c, 6, 64, 0
8, 621120, Note_on_c, 6, 65, 64
8, 621360, Note_on_c, 6, 65, 0
8, 621360, Note_on_c, 6, 64, 57
8, 621600, Note_on_c, 6, 64, 0
8, 621600, Note_on_c, 6, 65, 62
8, 621837, Note_on_c, 6, 65, 0
8, 621837, Note_on_c, 6, 64, 58
8, 622026, Note_on_c, 6, 64, 0
8, 622072, Note_on_c, 6, 65, 65
8, 622553, Note_on_c, 6, 65, 0
8, 622553, Note_on_c, 6, 66, 69
8, 623040, Note_on_c, 6, 66, 0
8, 623040, Note_on_c, 6, 67, 62
8, 623520, Note_on_c, 6, 67, 0
8, 623520, Note_on_c, 6, 68, 72
8, 623896, Note_on_c, 6, 68, 0
8, 623996, Note_on_c, 6, 69, 69
8, 624473, Note_on_c, 6, 69, 0
8, 624473, Note_on_c, 6, 70, 69
8, 624960, Note_on_c, 6, 70, 0
8, 624960, Note_on_c, 6, 69, 60
8, 625440, Note_on_c, 6, 69, 0
8, 625440, Note_on_c, 6, 68, 48
8, 625920, Note_on_c, 6, 68, 0
8, 625920, Note_on_c, 6, 67, 54
8, 626296, Note_on_c, 6, 67, 0
8, 629757, Note_on_c, 6, 70, 58
8, 631680, Note_on_c, 6, 70, 0
8, 631685, Note_on_c, 6, 61, 45
8, 633482, Note_on_c, 6, 61, 0
8, 633596, Note_on_c, 6, 62, 66
8, 635520, Note_on_c, 6, 62, 0
8, 635520, Note_on_c, 6, 65, 70
8, 637440, Note_on_c, 6, 65, 0
8, 637440, Note_on_c, 6, 70, 81
8, 639360, Note_on_c, 6, 70, 0
8, 639365, Note_on_c, 6, 74, 79
8, 639605, Note_on_c, 6, 74, 0
8, 640321, Note_on_c, 6, 77, 52
8, 640560, Note_on_c, 6, 77, 0
8, 641273, Note_on_c, 6, 82, 58
8, 641512, Note_on_c, 6, 82, 0
8, 643197, Note_on_c, 6, 63, 54
8, 643316, Note_on_c, 6, 63, 0
8, 643316, Note_on_c, 6, 63, 60
8, 643436, Note_on_c, 6, 63, 0
8, 643436, Note_on_c, 6, 63, 67
8, 643556, Note_on_c, 6, 63, 0
8, 643556, Note_on_c, 6, 63, 73
8, 643676, Note_on_c, 6, 63, 0
8, 643676, Note_on_c, 6, 63, 79
8, 643796, Note_on_c, 6, 63, 0
8, 643796, Note_on_c, 6, 63, 86
8, 643916, Note_on_c, 6, 63, 0
8, 643916, Note_on_c, 6, 63, 85
8, 644040, Note_on_c, 6, 63, 0
8, 644040, Note_on_c, 6, 63, 82
8, 644160, Note_on_c, 6, 63, 0
8, 644160, Note_on_c, 6, 63, 76
8, 644280, Note_on_c, 6, 63, 0
8, 644280, Note_on_c, 6, 63, 73
8, 644400, Note_on_c, 6, 63, 0
8, 644400, Note_on_c, 6, 63, 74
8, 644520, Note_on_c, 6, 63, 0
8, 644520, Note_on_c, 6, 63, 80
8, 644640, Note_on_c, 6, 63, 0
8, 644640, Note_on_c, 6, 63, 86
8, 644760, Note_on_c, 6, 63, 0
8, 644760, Note_on_c, 6, 63, 93
8, 644880, Note_on_c, 6, 63, 0
8, 644880, Note_on_c, 6, 63, 86
8, 645000, Note_on_c, 6, 63, 0
8, 645000, Note_on_c, 6, 63, 81
8, 645120, Note_on_c, 6, 63, 0
8, 645120, Note_on_c, 6, 58, 83
8, 645120, Note_on_c, 6, 62, 83
8, 646080, Note_on_c, 6, 62, 0
8, 646080, Note_on_c, 6, 58, 0
8, 646320, Note_on_c, 6, 70, 104
8, 646437, Note_on_c, 6, 70, 0
8, 646560, Note_on_c, 6, 70, 105
8, 646677, Note_on_c, 6, 70, 0
8, 646800, Note_on_c, 6, 70, 114
8, 646917, Note_on_c, 6, 70, 0
8, 647040, Note_on_c, 6, 70, 111
8, 647100, Note_on_c, 6, 70, 0
8, 647100, Note_on_c, 6, 72, 125
8, 647160, Note_on_c, 6, 72, 0
8, 647160, Note_on_c, 6, 70, 101
8, 647280, Note_on_c, 6, 70, 0
8, 647280, Note_on_c, 6, 69, 100
8, 647520, Note_on_c, 6, 69, 0
8, 647520, Note_on_c, 6, 69, 106
8, 648480, Note_on_c, 6, 69, 0
8, 648480, Note_on_c, 6, 70, 118
8, 648960, Note_on_c, 6, 70, 0
8, 648960, Note_on_c, 6, 71, 126
8, 649200, Note_on_c, 6, 71, 0
8, 649200, Note_on_c, 6, 72, 126
8, 649440, Note_on_c, 6, 72, 0
8, 649440, Note_on_c, 6, 72, 110
8, 650160, Note_on_c, 6, 72, 0
8, 650160, Note_on_c, 6, 72, 110
8, 650277, Note_on_c, 6, 72, 0
8, 650400, Note_on_c, 6, 72, 107
8, 650517, Note_on_c, 6, 72, 0
8, 650640, Note_on_c, 6, 72, 113
8, 650757, Note_on_c, 6, 72, 0
8, 650880, Note_on_c, 6, 72, 104
8, 650940, Note_on_c, 6, 72, 0
8, 650940, Note_on_c, 6, 74, 121
8, 651000, Note_on_c, 6, 74, 0
8, 651000, Note_on_c, 6, 72, 105
8, 651120, Note_on_c, 6, 72, 0
8, 651120, Note_on_c, 6, 70, 93
8, 651360, Note_on_c, 6, 70, 0
8, 651360, Note_on_c, 6, 70, 110
8, 652320, Note_on_c, 6, 70, 0
8, 652320, Note_on_c, 6, 72, 119
8, 652800, Note_on_c, 6, 72, 0
8, 652800, Note_on_c, 6, 73, 120
8, 653040, Note_on_c, 6, 73, 0
8, 653040, Note_on_c, 6, 74, 117
8, 653280, Note_on_c, 6, 74, 0
8, 653280, Note_on_c, 6, 74, 113
8, 654000, Note_on_c, 6, 74, 0
8, 654000, Note_on_c, 6, 74, 108
8, 654117, Note_on_c, 6, 74, 0
8, 654240, Note_on_c, 6, 74, 107
8, 654357, Note_on_c, 6, 74, 0
8, 654480, Note_on_c, 6, 74, 107
8, 654597, Note_on_c, 6, 74, 0
8, 654720, Note_on_c, 6, 71, 89
8, 654960, Note_on_c, 6, 71, 0
8, 654960, Note_on_c, 6, 72, 112
8, 655150, Note_on_c, 6, 72, 0
8, 655200, Note_on_c, 6, 72, 111
8, 655920, Note_on_c, 6, 72, 0
8, 655920, Note_on_c, 6, 72, 110
8, 656037, Note_on_c, 6, 72, 0
8, 656160, Note_on_c, 6, 72, 108
8, 656277, Note_on_c, 6, 72, 0
8, 656400, Note_on_c, 6, 72, 106
8, 656517, Note_on_c, 6, 72, 0
8, 656640, Note_on_c, 6, 74, 121
8, 656880, Note_on_c, 6, 74, 0
8, 656880, Note_on_c, 6, 75, 117
8, 657120, Note_on_c, 6, 75, 0
8, 657120, Note_on_c, 6, 75, 109
8, 657840, Note_on_c, 6, 75, 0
8, 657840, Note_on_c, 6, 75, 112
8, 657957, Note_on_c, 6, 75, 0
8, 658080, Note_on_c, 6, 75, 114
8, 658197, Note_on_c, 6, 75, 0
8, 658320, Note_on_c, 6, 75, 105
8, 658437, Note_on_c, 6, 75, 0
8, 658560, Note_on_c, 6, 74, 97
8, 658677, Note_on_c, 6, 74, 0
8, 658800, Note_on_c, 6, 77, 117
8, 658917, Note_on_c, 6, 77, 0
8, 659040, Note_on_c, 6, 79, 125
8, 659100, Note_on_c, 6, 79, 0
8, 659100, Note_on_c, 6, 77, 102
8, 659160, Note_on_c, 6, 77, 0
8, 659160, Note_on_c, 6, 76, 102
8, 659220, Note_on_c, 6, 76, 0
8, 659220, Note_on_c, 6, 77, 123
8, 659520, Note_on_c, 6, 77, 0
8, 659520, Note_on_c, 6, 82, 126
8, 659637, Note_on_c, 6, 82, 0
8, 659760, Note_on_c, 6, 74, 81
8, 659877, Note_on_c, 6, 74, 0
8, 660000, Note_on_c, 6, 75, 113
8, 660060, Note_on_c, 6, 75, 0
8, 660060, Note_on_c, 6, 74, 104
8, 660120, Note_on_c, 6, 74, 0
8, 660120, Note_on_c, 6, 72, 83
8, 660180, Note_on_c, 6, 72, 0
8, 660180, Note_on_c, 6, 74, 119
8, 660480, Note_on_c, 6, 74, 0
8, 660480, Note_on_c, 6, 77, 124
8, 660597, Note_on_c, 6, 77, 0
8, 660720, Note_on_c, 6, 70, 76
8, 660837, Note_on_c, 6, 70, 0
8, 660960, Note_on_c, 6, 72, 113
8, 661020, Note_on_c, 6, 72, 0
8, 661020, Note_on_c, 6, 70, 93
8, 661082, Note_on_c, 6, 70, 0
8, 661082, Note_on_c, 6, 69, 91
8, 661142, Note_on_c, 6, 69, 0
8, 661142, Note_on_c, 6, 70, 112
8, 661440, Note_on_c, 6, 70, 0
8, 661440, Note_on_c, 6, 74, 126
8, 661557, Note_on_c, 6, 74, 0
8, 661668, Note_on_c, 6, 65, 75
8, 661786, Note_on_c, 6, 65, 0
8, 661894, Note_on_c, 6, 67, 117
8, 661954, Note_on_c, 6, 67, 0
8, 661954, Note_on_c, 6, 65, 98
8, 662009, Note_on_c, 6, 65, 0
8, 662009, Note_on_c, 6, 64, 92
8, 662069, Note_on_c, 6, 64, 0
8, 662069, Note_on_c, 6, 65, 118
8, 662400, Note_on_c, 6, 65, 0
8, 662400, Note_on_c, 6, 70, 126
8, 662506, Note_on_c, 6, 70, 0
8, 662628, Note_on_c, 6, 62, 71
8, 662746, Note_on_c, 6, 62, 0
8, 662872, Note_on_c, 6, 62, 102
8, 663600, Note_on_c, 6, 62, 0
8, 663600, Note_on_c, 6, 64, 123
8, 663720, Note_on_c, 6, 64, 0
8, 663720, Note_on_c, 6, 65, 124
8, 663840, Note_on_c, 6, 65, 0
8, 663840, Note_on_c, 6, 67, 123
8, 664080, Note_on_c, 6, 67, 0
8, 664080, Note_on_c, 6, 64, 84
8, 664320, Note_on_c, 6, 64, 0
8, 664320, Note_on_c, 6, 65, 113
8, 664437, Note_on_c, 6, 65, 0
8, 664560, Note_on_c, 6, 74, 126
8, 664797, Note_on_c, 6, 74, 0
8, 665040, Note_on_c, 6, 74, 114
8, 665277, Note_on_c, 6, 74, 0
8, 665521, Note_on_c, 6, 74, 112
8, 665760, Note_on_c, 6, 74, 0
8, 666001, Note_on_c, 6, 74, 107
8, 666120, Note_on_c, 6, 74, 0
8, 666241, Note_on_c, 6, 74, 127
8, 667200, Note_on_c, 6, 74, 0
8, 744957, Note_on_c, 6, 70, 87
8, 745196, Note_on_c, 6, 70, 0
8, 745196, Note_on_c, 6, 72, 108
8, 745256, Note_on_c, 6, 72, 0
8, 745256, Note_on_c, 6, 70, 95
8, 745316, Note_on_c, 6, 70, 0
8, 745316, Note_on_c, 6, 69, 87
8, 745436, Note_on_c, 6, 69, 0
8, 745436, Note_on_c, 6, 70, 100
8, 745677, Note_on_c, 6, 70, 0
8, 745677, Note_on_c, 6, 74, 124
8, 745796, Note_on_c, 6, 74, 0
8, 745917, Note_on_c, 6, 65, 79
8, 746157, Note_on_c, 6, 65, 0
8, 746157, Note_on_c, 6, 65, 92
8, 746400, Note_on_c, 6, 65, 0
8, 746400, Note_on_c, 6, 65, 99
8, 746640, Note_on_c, 6, 65, 0
8, 746640, Note_on_c, 6, 67, 114
8, 746760, Note_on_c, 6, 67, 0
8, 746760, Note_on_c, 6, 69, 111
8, 746880, Note_on_c, 6, 69, 0
8, 746880, Note_on_c, 6, 70, 107
8, 747117, Note_on_c, 6, 70, 0
8, 747117, Note_on_c, 6, 70, 94
8, 747357, Note_on_c, 6, 70, 0
8, 747357, Note_on_c, 6, 70, 99
8, 747477, Note_on_c, 6, 70, 0
8, 747477, Note_on_c, 6, 72, 103
8, 747600, Note_on_c, 6, 72, 0
8, 747600, Note_on_c, 6, 74, 114
8, 747720, Note_on_c, 6, 74, 0
8, 747720, Note_on_c, 6, 75, 102
8, 747840, Note_on_c, 6, 75, 0
8, 747840, Note_on_c, 6, 77, 113
8, 748082, Note_on_c, 6, 77, 0
8, 748082, Note_on_c, 6, 77, 99
8, 748329, Note_on_c, 6, 77, 0
8, 748329, Note_on_c, 6, 77, 98
8, 748572, Note_on_c, 6, 77, 0
8, 748572, Note_on_c, 6, 79, 107
8, 748696, Note_on_c, 6, 79, 0
8, 748696, Note_on_c, 6, 81, 105
8, 748800, Note_on_c, 6, 81, 0
8, 748810, Note_on_c, 6, 82, 106
8, 749049, Note_on_c, 6, 82, 0
8, 749049, Note_on_c, 6, 82, 103
8, 749285, Note_on_c, 6, 82, 0
8, 749285, Note_on_c, 6, 82, 96
8, 749526, Note_on_c, 6, 82, 0
8, 749526, Note_on_c, 6, 81, 88
8, 749646, Note_on_c, 6, 81, 0
8, 749646, Note_on_c, 6, 79, 81
8, 749769, Note_on_c, 6, 79, 0
8, 749769, Note_on_c, 6, 77, 79
8, 750241, Note_on_c, 6, 77, 0
8, 750709, Note_on_c, 6, 62, 50
8, 751676, Note_on_c, 6, 62, 0
8, 751676, Note_on_c, 6, 59, 55
8, 752640, Note_on_c, 6, 59, 0
8, 752640, Note_on_c, 6, 58, 52
8, 753601, Note_on_c, 6, 58, 0
8, 753601, Note_on_c, 6, 57, 69
8, 754460, Note_on_c, 6, 57, 0
8, 754561, Note_on_c, 6, 58, 66
8, 754801, Note_on_c, 6, 58, 0
8, 754801, Note_on_c, 6, 62, 79
8, 755041, Note_on_c, 6, 62, 0
8, 755041, Note_on_c, 6, 63, 63
8, 755280, Note_on_c, 6, 63, 0
8, 755280, Note_on_c, 6, 60, 46
8, 755470, Note_on_c, 6, 60, 0
8, 755520, Note_on_c, 6, 58, 52
8, 756000, Note_on_c, 6, 58, 0
8, 756000, Note_on_c, 6, 57, 55
8, 756380, Note_on_c, 6, 57, 0
8, 756477, Note_on_c, 6, 65, 80
8, 758400, Note_on_c, 6, 65, 0
8, 758400, Note_on_c, 6, 70, 79
8, 760320, Note_on_c, 6, 70, 0
8, 760320, Note_on_c, 6, 65, 50
8, 760560, Note_on_c, 6, 65, 0
8, 760800, Note_on_c, 6, 62, 54
8, 761040, Note_on_c, 6, 62, 0
8, 761280, Note_on_c, 6, 63, 53
8, 761520, Note_on_c, 6, 63, 0
8, 761760, Note_on_c, 6, 60, 54
8, 762000, Note_on_c, 6, 60, 0
8, 762240, Note_on_c, 6, 65, 38
8, 764160, Note_on_c, 6, 65, 0
8, 764160, Note_on_c, 6, 77, 69
8, 766080, Note_on_c, 6, 77, 0
8, 766080, Note_on_c, 6, 74, 41
8, 766320, Note_on_c, 6, 74, 0
8, 766560, Note_on_c, 6, 70, 43
8, 766800, Note_on_c, 6, 70, 0
8, 767040, Note_on_c, 6, 72, 46
8, 767280, Note_on_c, 6, 72, 0
8, 767520, Note_on_c, 6, 69, 41
8, 767760, Note_on_c, 6, 69, 0
8, 767969, Note_on_c, 6, 58, 86
8, 768085, Note_on_c, 6, 58, 0
8, 768218, Note_on_c, 6, 60, 109
8, 768277, Note_on_c, 6, 60, 0
8, 768342, Note_on_c, 6, 62, 116
8, 768400, Note_on_c, 6, 62, 0
8, 768466, Note_on_c, 6, 63, 109
8, 768524, Note_on_c, 6, 63, 0
8, 768592, Note_on_c, 6, 65, 111
8, 768649, Note_on_c, 6, 65, 0
8, 768720, Note_on_c, 6, 67, 120
8, 768777, Note_on_c, 6, 67, 0
8, 768845, Note_on_c, 6, 69, 113
8, 768902, Note_on_c, 6, 69, 0
8, 768969, Note_on_c, 6, 70, 109
8, 769090, Note_on_c, 6, 70, 0
8, 769090, Note_on_c, 6, 69, 94
8, 769210, Note_on_c, 6, 69, 0
8, 769210, Note_on_c, 6, 70, 109
8, 769330, Note_on_c, 6, 70, 0
8, 769330, Note_on_c, 6, 69, 83
8, 769450, Note_on_c, 6, 69, 0
8, 769450, Note_on_c, 6, 70, 109
8, 769570, Note_on_c, 6, 70, 0
8, 769570, Note_on_c, 6, 69, 86
8, 769690, Note_on_c, 6, 69, 0
8, 769690, Note_on_c, 6, 70, 106
8, 769810, Note_on_c, 6, 70, 0
8, 769810, Note_on_c, 6, 69, 92
8, 769906, Note_on_c, 6, 69, 0
8, 769929, Note_on_c, 6, 70, 105
8, 770046, Note_on_c, 6, 70, 0
8, 770165, Note_on_c, 6, 72, 106
8, 770222, Note_on_c, 6, 72, 0
8, 770285, Note_on_c, 6, 74, 115
8, 770342, Note_on_c, 6, 74, 0
8, 770402, Note_on_c, 6, 75, 113
8, 770461, Note_on_c, 6, 75, 0
8, 770522, Note_on_c, 6, 77, 113
8, 770581, Note_on_c, 6, 77, 0
8, 770642, Note_on_c, 6, 79, 112
8, 770701, Note_on_c, 6, 79, 0
8, 770762, Note_on_c, 6, 81, 111
8, 770821, Note_on_c, 6, 81, 0
8, 770885, Note_on_c, 6, 82, 106
8, 771005, Note_on_c, 6, 82, 0
8, 771005, Note_on_c, 6, 81, 90
8, 771122, Note_on_c, 6, 81, 0
8, 771122, Note_on_c, 6, 82, 106
8, 771242, Note_on_c, 6, 82, 0
8, 771242, Note_on_c, 6, 81, 87
8, 771362, Note_on_c, 6, 81, 0
8, 771362, Note_on_c, 6, 82, 109
8, 771482, Note_on_c, 6, 82, 0
8, 771482, Note_on_c, 6, 81, 87
8, 771601, Note_on_c, 6, 81, 0
8, 771601, Note_on_c, 6, 82, 107
8, 771721, Note_on_c, 6, 82, 0
8, 771721, Note_on_c, 6, 81, 84
8, 771817, Note_on_c, 6, 81, 0
8, 771841, Note_on_c, 6, 82, 106
8, 772080, Note_on_c, 6, 82, 0
8, 772320, Note_on_c, 6, 74, 96
8, 772320, Note_on_c, 6, 82, 96
8, 772557, Note_on_c, 6, 82, 0
8, 772557, Note_on_c, 6, 74, 0
8, 772800, Note_on_c, 6, 58, 68
8, 773037, Note_on_c, 6, 58, 0
8, 773280, Note_on_c, 6, 58, 88
8, 773517, Note_on_c, 6, 58, 0
8, 773760, Note_on_c, 6, 58, 107
8, 774602, Note_on_c, 6, 58, 0
8, 774602, End_track
9, 0, Start_track
9, 0, Title_t, "Violas"
9, 0, Program_c, 7, 48
9, 0, Control_c, 7, 7, 80
9, 0, Control_c, 7, 10, 32
9, 0, Program_c, 7, 48
9, 0, Control_c, 7, 7, 80
9, 0, Control_c, 7, 121, 0
9, 0, Control_c, 7, 91, 76
9, 0, Note_on_c, 7, 65, 57
9, 480, Note_on_c, 7, 65, 0
9, 1440, Note_on_c, 7, 65, 52
9, 1920, Note_on_c, 7, 65, 0
9, 1920, Note_on_c, 7, 65, 66
9, 2400, Note_on_c, 7, 65, 0
9, 2400, Note_on_c, 7, 65, 65
9, 2880, Note_on_c, 7, 65, 0
9, 3840, Note_on_c, 7, 65, 57
9, 4320, Note_on_c, 7, 65, 0
9, 5280, Note_on_c, 7, 65, 54
9, 5760, Note_on_c, 7, 65, 0
9, 5760, Note_on_c, 7, 65, 59
9, 6240, Note_on_c, 7, 65, 0
9, 6240, Note_on_c, 7, 65, 61
9, 6720, Note_on_c, 7, 65, 0
9, 7680, Note_on_c, 7, 58, 49
9, 8160, Note_on_c, 7, 58, 0
9, 8640, Note_on_c, 7, 60, 51
9, 9120, Note_on_c, 7, 60, 0
9, 9605, Note_on_c, 7, 62, 84
9, 10085, Note_on_c, 7, 62, 0
9, 11516, Note_on_c, 7, 63, 57
9, 12480, Note_on_c, 7, 63, 0
9, 12480, Note_on_c, 7, 60, 44
9, 13440, Note_on_c, 7, 60, 0
9, 13440, Note_on_c, 7, 60, 63
9, 13913, Note_on_c, 7, 60, 0
9, 23040, Note_on_c, 7, 65, 55
9, 25440, Note_on_c, 7, 65, 0
9, 25920, Note_on_c, 7, 63, 57
9, 26421, Note_on_c, 7, 63, 0
9, 26896, Note_on_c, 7, 65, 55
9, 29280, Note_on_c, 7, 65, 0
9, 29761, Note_on_c, 7, 63, 54
9, 30236, Note_on_c, 7, 63, 0
9, 30717, Note_on_c, 7, 65, 58
9, 32640, Note_on_c, 7, 65, 0
9, 32640, Note_on_c, 7, 58, 81
9, 32757, Note_on_c, 7, 58, 0
9, 32880, Note_on_c, 7, 53, 85
9, 32997, Note_on_c, 7, 53, 0
9, 33120, Note_on_c, 7, 58, 110
9, 33237, Note_on_c, 7, 58, 0
9, 33360, Note_on_c, 7, 53, 86
9, 33477, Note_on_c, 7, 53, 0
9, 33600, Note_on_c, 7, 58, 104
9, 33717, Note_on_c, 7, 58, 0
9, 33840, Note_on_c, 7, 53, 92
9, 33957, Note_on_c, 7, 53, 0
9, 34080, Note_on_c, 7, 58, 102
9, 34197, Note_on_c, 7, 58, 0
9, 34320, Note_on_c, 7, 53, 86
9, 34437, Note_on_c, 7, 53, 0
9, 34560, Note_on_c, 7, 60, 126
9, 34677, Note_on_c, 7, 60, 0
9, 34800, Note_on_c, 7, 53, 87
9, 34917, Note_on_c, 7, 53, 0
9, 35040, Note_on_c, 7, 60, 126
9, 35157, Note_on_c, 7, 60, 0
9, 35280, Note_on_c, 7, 53, 93
9, 35397, Note_on_c, 7, 53, 0
9, 35520, Note_on_c, 7, 60, 126
9, 35637, Note_on_c, 7, 60, 0
9, 35760, Note_on_c, 7, 53, 89
9, 35877, Note_on_c, 7, 53, 0
9, 36000, Note_on_c, 7, 58, 107
9, 36117, Note_on_c, 7, 58, 0
9, 36240, Note_on_c, 7, 53, 87
9, 36357, Note_on_c, 7, 53, 0
9, 36480, Note_on_c, 7, 57, 108
9, 36597, Note_on_c, 7, 57, 0
9, 36720, Note_on_c, 7, 53, 83
9, 36837, Note_on_c, 7, 53, 0
9, 36960, Note_on_c, 7, 57, 107
9, 37077, Note_on_c, 7, 57, 0
9, 37200, Note_on_c, 7, 53, 86
9, 37317, Note_on_c, 7, 53, 0
9, 37440, Note_on_c, 7, 57, 105
9, 37557, Note_on_c, 7, 57, 0
9, 37680, Note_on_c, 7, 53, 101
9, 37797, Note_on_c, 7, 53, 0
9, 37920, Note_on_c, 7, 57, 106
9, 38037, Note_on_c, 7, 57, 0
9, 38160, Note_on_c, 7, 53, 89
9, 38277, Note_on_c, 7, 53, 0
9, 38400, Note_on_c, 7, 58, 106
9, 38517, Note_on_c, 7, 58, 0
9, 38640, Note_on_c, 7, 53, 88
9, 38757, Note_on_c, 7, 53, 0
9, 38880, Note_on_c, 7, 58, 110
9, 38997, Note_on_c, 7, 58, 0
9, 39120, Note_on_c, 7, 53, 88
9, 39237, Note_on_c, 7, 53, 0
9, 39360, Note_on_c, 7, 58, 109
9, 39477, Note_on_c, 7, 58, 0
9, 39600, Note_on_c, 7, 53, 85
9, 39717, Note_on_c, 7, 53, 0
9, 39840, Note_on_c, 7, 58, 108
9, 39957, Note_on_c, 7, 58, 0
9, 40080, Note_on_c, 7, 53, 89
9, 40197, Note_on_c, 7, 53, 0
9, 40320, Note_on_c, 7, 60, 124
9, 40437, Note_on_c, 7, 60, 0
9, 40560, Note_on_c, 7, 53, 85
9, 40677, Note_on_c, 7, 53, 0
9, 40800, Note_on_c, 7, 60, 126
9, 40917, Note_on_c, 7, 60, 0
9, 41040, Note_on_c, 7, 53, 85
9, 41157, Note_on_c, 7, 53, 0
9, 41280, Note_on_c, 7, 60, 126
9, 41397, Note_on_c, 7, 60, 0
9, 41520, Note_on_c, 7, 53, 93
9, 41637, Note_on_c, 7, 53, 0
9, 41760, Note_on_c, 7, 58, 101
9, 41877, Note_on_c, 7, 58, 0
9, 42000, Note_on_c, 7, 53, 87
9, 42117, Note_on_c, 7, 53, 0
9, 42240, Note_on_c, 7, 57, 108
9, 42357, Note_on_c, 7, 57, 0
9, 42480, Note_on_c, 7, 53, 92
9, 42597, Note_on_c, 7, 53, 0
9, 42720, Note_on_c, 7, 57, 106
9, 42837, Note_on_c, 7, 57, 0
9, 42960, Note_on_c, 7, 53, 89
9, 43077, Note_on_c, 7, 53, 0
9, 43200, Note_on_c, 7, 57, 109
9, 43317, Note_on_c, 7, 57, 0
9, 43440, Note_on_c, 7, 53, 84
9, 43557, Note_on_c, 7, 53, 0
9, 43680, Note_on_c, 7, 57, 109
9, 43797, Note_on_c, 7, 57, 0
9, 43920, Note_on_c, 7, 53, 93
9, 44037, Note_on_c, 7, 53, 0
9, 44160, Note_on_c, 7, 58, 109
9, 44640, Note_on_c, 7, 58, 0
9, 46320, Note_on_c, 7, 70, 83
9, 46437, Note_on_c, 7, 70, 0
9, 46560, Note_on_c, 7, 72, 114
9, 46620, Note_on_c, 7, 72, 0
9, 46620, Note_on_c, 7, 70, 89
9, 46682, Note_on_c, 7, 70, 0
9, 46682, Note_on_c, 7, 69, 88
9, 46742, Note_on_c, 7, 69, 0
9, 46742, Note_on_c, 7, 70, 111
9, 47040, Note_on_c, 7, 70, 0
9, 47040, Note_on_c, 7, 74, 124
9, 47157, Note_on_c, 7, 74, 0
9, 47268, Note_on_c, 7, 65, 65
9, 47386, Note_on_c, 7, 65, 0
9, 47494, Note_on_c, 7, 67, 103
9, 47554, Note_on_c, 7, 67, 0
9, 47554, Note_on_c, 7, 65, 92
9, 47609, Note_on_c, 7, 65, 0
9, 47609, Note_on_c, 7, 64, 87
9, 47669, Note_on_c, 7, 64, 0
9, 47669, Note_on_c, 7, 65, 96
9, 48000, Note_on_c, 7, 65, 0
9, 48000, Note_on_c, 7, 70, 122
9, 48106, Note_on_c, 7, 70, 0
9, 48228, Note_on_c, 7, 62, 65
9, 48346, Note_on_c, 7, 62, 0
9, 48472, Note_on_c, 7, 62, 81
9, 49200, Note_on_c, 7, 62, 0
9, 49200, Note_on_c, 7, 64, 108
9, 49320, Note_on_c, 7, 64, 0
9, 49320, Note_on_c, 7, 65, 110
9, 49440, Note_on_c, 7, 65, 0
9, 49440, Note_on_c, 7, 67, 115
9, 49680, Note_on_c, 7, 67, 0
9, 49680, Note_on_c, 7, 64, 79
9, 49920, Note_on_c, 7, 64, 0
9, 49920, Note_on_c, 7, 65, 103
9, 50157, Note_on_c, 7, 65, 0
9, 50400, Note_on_c, 7, 53, 77
9, 50637, Note_on_c, 7, 53, 0
9, 51841, Note_on_c, 7, 58, 42
9, 53760, Note_on_c, 7, 58, 0
9, 53760, Note_on_c, 7, 57, 51
9, 55576, Note_on_c, 7, 57, 0
9, 55680, Note_on_c, 7, 58, 48
9, 57600, Note_on_c, 7, 58, 0
9, 57618, Note_on_c, 7, 57, 50
9, 59401, Note_on_c, 7, 57, 0
9, 59516, Note_on_c, 7, 58, 51
9, 61440, Note_on_c, 7, 58, 0
9, 61440, Note_on_c, 7, 56, 47
9, 62400, Note_on_c, 7, 56, 0
9, 62400, Note_on_c, 7, 58, 50
9, 63360, Note_on_c, 7, 58, 0
9, 63360, Note_on_c, 7, 59, 50
9, 64320, Note_on_c, 7, 59, 0
9, 64320, Note_on_c, 7, 57, 48
9, 65176, Note_on_c, 7, 57, 0
9, 65280, Note_on_c, 7, 58, 48
9, 66240, Note_on_c, 7, 58, 0
9, 66240, Note_on_c, 7, 54, 51
9, 67200, Note_on_c, 7, 54, 0
9, 67200, Note_on_c, 7, 51, 48
9, 68160, Note_on_c, 7, 51, 0
9, 68160, Note_on_c, 7, 53, 55
9, 69016, Note_on_c, 7, 53, 0
9, 69120, Note_on_c, 7, 54, 55
9, 69600, Note_on_c, 7, 54, 0
9, 70080, Note_on_c, 7, 53, 44
9, 70560, Note_on_c, 7, 53, 0
9, 71040, Note_on_c, 7, 54, 48
9, 71520, Note_on_c, 7, 54, 0
9, 72000, Note_on_c, 7, 53, 47
9, 72480, Note_on_c, 7, 53, 0
9, 72960, Note_on_c, 7, 50, 42
9, 72960, Note_on_c, 7, 53, 42
9, 76696, Note_on_c, 7, 53, 0
9, 76696, Note_on_c, 7, 50, 0
9, 76800, Note_on_c, 7, 51, 47
9, 76800, Note_on_c, 7, 53, 47
9, 80640, Note_on_c, 7, 53, 0
9, 80640, Note_on_c, 7, 51, 0
9, 80658, Note_on_c, 7, 50, 42
9, 80658, Note_on_c, 7, 53, 42
9, 84480, Note_on_c, 7, 53, 0
9, 84480, Note_on_c, 7, 50, 0
9, 84480, Note_on_c, 7, 51, 41
9, 84480, Note_on_c, 7, 53, 41
9, 88320, Note_on_c, 7, 53, 0
9, 88320, Note_on_c, 7, 51, 0
9, 88338, Note_on_c, 7, 50, 62
9, 88338, Note_on_c, 7, 53, 62
9, 88812, Note_on_c, 7, 53, 0
9, 88812, Note_on_c, 7, 50, 0
9, 96002, Note_on_c, 7, 58, 86
9, 96242, Note_on_c, 7, 58, 0
9, 96242, Note_on_c, 7, 60, 105
9, 96302, Note_on_c, 7, 60, 0
9, 96302, Note_on_c, 7, 58, 94
9, 96362, Note_on_c, 7, 58, 0
9, 96362, Note_on_c, 7, 57, 93
9, 96482, Note_on_c, 7, 57, 0
9, 96482, Note_on_c, 7, 58, 101
9, 96720, Note_on_c, 7, 58, 0
9, 96720, Note_on_c, 7, 62, 121
9, 96837, Note_on_c, 7, 62, 0
9, 96960, Note_on_c, 7, 53, 83
9, 97200, Note_on_c, 7, 53, 0
9, 97200, Note_on_c, 7, 53, 90
9, 97440, Note_on_c, 7, 53, 0
9, 97440, Note_on_c, 7, 53, 100
9, 97680, Note_on_c, 7, 53, 0
9, 97680, Note_on_c, 7, 55, 100
9, 97800, Note_on_c, 7, 55, 0
9, 97800, Note_on_c, 7, 57, 106
9, 97920, Note_on_c, 7, 57, 0
9, 97920, Note_on_c, 7, 58, 105
9, 98157, Note_on_c, 7, 58, 0
9, 98157, Note_on_c, 7, 58, 93
9, 98397, Note_on_c, 7, 58, 0
9, 98397, Note_on_c, 7, 58, 95
9, 98517, Note_on_c, 7, 58, 0
9, 98517, Note_on_c, 7, 60, 107
9, 98640, Note_on_c, 7, 60, 0
9, 98640, Note_on_c, 7, 62, 109
9, 98760, Note_on_c, 7, 62, 0
9, 98760, Note_on_c, 7, 63, 112
9, 98880, Note_on_c, 7, 63, 0
9, 98880, Note_on_c, 7, 65, 108
9, 99122, Note_on_c, 7, 65, 0
9, 99122, Note_on_c, 7, 65, 103
9, 99369, Note_on_c, 7, 65, 0
9, 99369, Note_on_c, 7, 65, 90
9, 99614, Note_on_c, 7, 65, 0
9, 99614, Note_on_c, 7, 67, 109
9, 99738, Note_on_c, 7, 67, 0
9, 99738, Note_on_c, 7, 69, 112
9, 99840, Note_on_c, 7, 69, 0
9, 99850, Note_on_c, 7, 70, 115
9, 100089, Note_on_c, 7, 70, 0
9, 100089, Note_on_c, 7, 70, 98
9, 100326, Note_on_c, 7, 70, 0
9, 100326, Note_on_c, 7, 70, 102
9, 100569, Note_on_c, 7, 70, 0
9, 100569, Note_on_c, 7, 69, 83
9, 100689, Note_on_c, 7, 69, 0
9, 100689, Note_on_c, 7, 67, 80
9, 100809, Note_on_c, 7, 67, 0
9, 100809, Note_on_c, 7, 65, 83
9, 101281, Note_on_c, 7, 65, 0
9, 102717, Note_on_c, 7, 67, 48
9, 103680, Note_on_c, 7, 67, 0
9, 103680, Note_on_c, 7, 60, 42
9, 104640, Note_on_c, 7, 60, 0
9, 104640, Note_on_c, 7, 63, 69
9, 105496, Note_on_c, 7, 63, 0
9, 105600, Note_on_c, 7, 62, 48
9, 106080, Note_on_c, 7, 62, 0
9, 106080, Note_on_c, 7, 60, 56
9, 106461, Note_on_c, 7, 60, 0
9, 106560, Note_on_c, 7, 65, 74
9, 107040, Note_on_c, 7, 65, 0
9, 107040, Note_on_c, 7, 65, 61
9, 107520, Note_on_c, 7, 65, 0
9, 107520, Note_on_c, 7, 65, 56
9, 108000, Note_on_c, 7, 65, 0
9, 109429, Note_on_c, 7, 57, 53
9, 110396, Note_on_c, 7, 57, 0
9, 110396, Note_on_c, 7, 55, 56
9, 112321, Note_on_c, 7, 55, 0
9, 112321, Note_on_c, 7, 53, 57
9, 113761, Note_on_c, 7, 53, 0
9, 113761, Note_on_c, 7, 55, 64
9, 114240, Note_on_c, 7, 55, 0
9, 114240, Note_on_c, 7, 53, 57
9, 114720, Note_on_c, 7, 53, 0
9, 114720, Note_on_c, 7, 53, 62
9, 115200, Note_on_c, 7, 53, 0
9, 115200, Note_on_c, 7, 62, 88
9, 117120, Note_on_c, 7, 62, 0
9, 117120, Note_on_c, 7, 58, 55
9, 119040, Note_on_c, 7, 58, 0
9, 119040, Note_on_c, 7, 62, 68
9, 119280, Note_on_c, 7, 62, 0
9, 119520, Note_on_c, 7, 58, 52
9, 119760, Note_on_c, 7, 58, 0
9, 120000, Note_on_c, 7, 60, 53
9, 120240, Note_on_c, 7, 60, 0
9, 120480, Note_on_c, 7, 57, 58
9, 120720, Note_on_c, 7, 57, 0
9, 120960, Note_on_c, 7, 58, 46
9, 122880, Note_on_c, 7, 58, 0
9, 122880, Note_on_c, 7, 70, 75
9, 124800, Note_on_c, 7, 70, 0
9, 124800, Note_on_c, 7, 62, 45
9, 124800, Note_on_c, 7, 65, 45
9, 125040, Note_on_c, 7, 65, 0
9, 125040, Note_on_c, 7, 62, 0
9, 125280, Note_on_c, 7, 58, 52
9, 125280, Note_on_c, 7, 62, 52
9, 125520, Note_on_c, 7, 62, 0
9, 125520, Note_on_c, 7, 58, 0
9, 125760, Note_on_c, 7, 60, 50
9, 125760, Note_on_c, 7, 63, 50
9, 126000, Note_on_c, 7, 63, 0
9, 126000, Note_on_c, 7, 60, 0
9, 126240, Note_on_c, 7, 57, 43
9, 126240, Note_on_c, 7, 60, 43
9, 126480, Note_on_c, 7, 60, 0
9, 126480, Note_on_c, 7, 57, 0
9, 126689, Note_on_c, 7, 58, 85
9, 127186, Note_on_c, 7, 58, 0
9, 127930, Note_on_c, 7, 67, 89
9, 128170, Note_on_c, 7, 67, 0
9, 128170, Note_on_c, 7, 65, 78
9, 128410, Note_on_c, 7, 65, 0
9, 128410, Note_on_c, 7, 63, 88
9, 128640, Note_on_c, 7, 63, 0
9, 128649, Note_on_c, 7, 62, 80
9, 129122, Note_on_c, 7, 62, 0
9, 129842, Note_on_c, 7, 67, 88
9, 130082, Note_on_c, 7, 67, 0
9, 130082, Note_on_c, 7, 65, 88
9, 130321, Note_on_c, 7, 65, 0
9, 130321, Note_on_c, 7, 63, 76
9, 130560, Note_on_c, 7, 63, 0
9, 130561, Note_on_c, 7, 62, 85
9, 130800, Note_on_c, 7, 62, 0
9, 131040, Note_on_c, 7, 70, 126
9, 131277, Note_on_c, 7, 70, 0
9, 131520, Note_on_c, 7, 58, 87
9, 131941, Note_on_c, 7, 58, 0
9, 147846, Note_on_c, 7, 65, 56
9, 148325, Note_on_c, 7, 65, 0
9, 149280, Note_on_c, 7, 65, 60
9, 149760, Note_on_c, 7, 65, 0
9, 149760, Note_on_c, 7, 65, 56
9, 150240, Note_on_c, 7, 65, 0
9, 150240, Note_on_c, 7, 65, 60
9, 150725, Note_on_c, 7, 65, 0
9, 151676, Note_on_c, 7, 65, 51
9, 152156, Note_on_c, 7, 65, 0
9, 153120, Note_on_c, 7, 65, 63
9, 153600, Note_on_c, 7, 65, 0
9, 153600, Note_on_c, 7, 65, 58
9, 154080, Note_on_c, 7, 65, 0
9, 154080, Note_on_c, 7, 65, 63
9, 154565, Note_on_c, 7, 65, 0
9, 161292, Note_on_c, 7, 58, 49
9, 162245, Note_on_c, 7, 58, 0
9, 162245, Note_on_c, 7, 67, 68
9, 163200, Note_on_c, 7, 67, 0
9, 163200, Note_on_c, 7, 65, 51
9, 165016, Note_on_c, 7, 65, 0
9, 165120, Note_on_c, 7, 58, 78
9, 165360, Note_on_c, 7, 58, 0
9, 165360, Note_on_c, 7, 53, 82
9, 165600, Note_on_c, 7, 53, 0
9, 165600, Note_on_c, 7, 58, 110
9, 165840, Note_on_c, 7, 58, 0
9, 165840, Note_on_c, 7, 53, 82
9, 166080, Note_on_c, 7, 53, 0
9, 166080, Note_on_c, 7, 58, 106
9, 166320, Note_on_c, 7, 58, 0
9, 166320, Note_on_c, 7, 53, 91
9, 166560, Note_on_c, 7, 53, 0
9, 166560, Note_on_c, 7, 58, 105
9, 166800, Note_on_c, 7, 58, 0
9, 166800, Note_on_c, 7, 53, 98
9, 167040, Note_on_c, 7, 53, 0
9, 167040, Note_on_c, 7, 60, 126
9, 167280, Note_on_c, 7, 60, 0
9, 167280, Note_on_c, 7, 53, 89
9, 167520, Note_on_c, 7, 53, 0
9, 167520, Note_on_c, 7, 60, 126
9, 167760, Note_on_c, 7, 60, 0
9, 167760, Note_on_c, 7, 53, 99
9, 168000, Note_on_c, 7, 53, 0
9, 168000, Note_on_c, 7, 60, 126
9, 168240, Note_on_c, 7, 60, 0
9, 168240, Note_on_c, 7, 53, 82
9, 168480, Note_on_c, 7, 53, 0
9, 168480, Note_on_c, 7, 58, 110
9, 168720, Note_on_c, 7, 58, 0
9, 168720, Note_on_c, 7, 53, 89
9, 168960, Note_on_c, 7, 53, 0
9, 168960, Note_on_c, 7, 57, 107
9, 169200, Note_on_c, 7, 57, 0
9, 169200, Note_on_c, 7, 53, 89
9, 169440, Note_on_c, 7, 53, 0
9, 169440, Note_on_c, 7, 57, 101
9, 169680, Note_on_c, 7, 57, 0
9, 169680, Note_on_c, 7, 53, 91
9, 169920, Note_on_c, 7, 53, 0
9, 169920, Note_on_c, 7, 57, 64
9, 170160, Note_on_c, 7, 57, 0
9, 170160, Note_on_c, 7, 53, 63
9, 170400, Note_on_c, 7, 53, 0
9, 170400, Note_on_c, 7, 57, 68
9, 170640, Note_on_c, 7, 57, 0
9, 170640, Note_on_c, 7, 53, 59
9, 170880, Note_on_c, 7, 53, 0
9, 170880, Note_on_c, 7, 58, 68
9, 171349, Note_on_c, 7, 58, 0
9, 178077, Note_on_c, 7, 65, 60
9, 178560, Note_on_c, 7, 65, 0
9, 178560, Note_on_c, 7, 65, 60
9, 179040, Note_on_c, 7, 65, 0
9, 179993, Note_on_c, 7, 65, 52
9, 180480, Note_on_c, 7, 65, 0
9, 180480, Note_on_c, 7, 65, 63
9, 180956, Note_on_c, 7, 65, 0
9, 188162, Note_on_c, 7, 65, 81
9, 188641, Note_on_c, 7, 65, 0
9, 189362, Note_on_c, 7, 62, 90
9, 189481, Note_on_c, 7, 62, 0
9, 189602, Note_on_c, 7, 60, 86
9, 189721, Note_on_c, 7, 60, 0
9, 189842, Note_on_c, 7, 58, 91
9, 189961, Note_on_c, 7, 58, 0
9, 190086, Note_on_c, 7, 57, 101
9, 190562, Note_on_c, 7, 57, 0
9, 191280, Note_on_c, 7, 62, 86
9, 191397, Note_on_c, 7, 62, 0
9, 191520, Note_on_c, 7, 60, 83
9, 191637, Note_on_c, 7, 60, 0
9, 191760, Note_on_c, 7, 58, 84
9, 191877, Note_on_c, 7, 58, 0
9, 192000, Note_on_c, 7, 57, 88
9, 192480, Note_on_c, 7, 57, 0
9, 197748, Note_on_c, 7, 60, 51
9, 198720, Note_on_c, 7, 60, 0
9, 198720, Note_on_c, 7, 57, 49
9, 199210, Note_on_c, 7, 57, 0
9, 199210, Note_on_c, 7, 53, 52
9, 199680, Note_on_c, 7, 53, 0
9, 199689, Note_on_c, 7, 48, 53
9, 200165, Note_on_c, 7, 48, 0
9, 205429, Note_on_c, 7, 58, 58
9, 206400, Note_on_c, 7, 58, 0
9, 206400, Note_on_c, 7, 55, 60
9, 206892, Note_on_c, 7, 55, 0
9, 206892, Note_on_c, 7, 52, 55
9, 207360, Note_on_c, 7, 52, 0
9, 207370, Note_on_c, 7, 53, 61
9, 207846, Note_on_c, 7, 53, 0
9, 209280, Note_on_c, 7, 62, 57
9, 210717, Note_on_c, 7, 62, 0
9, 210717, Note_on_c, 7, 60, 54
9, 211092, Note_on_c, 7, 60, 0
9, 211197, Note_on_c, 7, 58, 55
9, 211676, Note_on_c, 7, 58, 0
9, 211676, Note_on_c, 7, 62, 77
9, 212157, Note_on_c, 7, 62, 0
9, 212157, Note_on_c, 7, 58, 57
9, 212642, Note_on_c, 7, 58, 0
9, 212642, Note_on_c, 7, 55, 52
9, 213028, Note_on_c, 7, 55, 0
9, 213125, Note_on_c, 7, 52, 56
9, 214557, Note_on_c, 7, 52, 0
9, 214557, Note_on_c, 7, 55, 64
9, 214932, Note_on_c, 7, 55, 0
9, 215037, Note_on_c, 7, 57, 56
9, 215513, Note_on_c, 7, 57, 0
9, 215513, Note_on_c, 7, 60, 70
9, 215996, Note_on_c, 7, 60, 0
9, 215996, Note_on_c, 7, 57, 60
9, 216482, Note_on_c, 7, 57, 0
9, 216482, Note_on_c, 7, 53, 59
9, 216960, Note_on_c, 7, 53, 0
9, 216962, Note_on_c, 7, 58, 73
9, 218880, Note_on_c, 7, 58, 0
9, 218880, Note_on_c, 7, 62, 73
9, 220800, Note_on_c, 7, 62, 0
9, 220800, Note_on_c, 7, 60, 54
9, 222720, Note_on_c, 7, 60, 0
9, 222721, Note_on_c, 7, 53, 55
9, 224640, Note_on_c, 7, 53, 0
9, 224640, Note_on_c, 7, 55, 63
9, 226456, Note_on_c, 7, 55, 0
9, 226560, Note_on_c, 7, 53, 52
9, 228480, Note_on_c, 7, 53, 0
9, 228480, Note_on_c, 7, 55, 61
9, 230296, Note_on_c, 7, 55, 0
9, 230400, Note_on_c, 7, 53, 63
9, 232320, Note_on_c, 7, 53, 0
9, 232320, Note_on_c, 7, 51, 60
9, 233277, Note_on_c, 7, 51, 0
9, 233277, Note_on_c, 7, 53, 67
9, 234136, Note_on_c, 7, 53, 0
9, 234240, Note_on_c, 7, 54, 59
9, 235200, Note_on_c, 7, 54, 0
9, 235200, Note_on_c, 7, 52, 59
9, 236056, Note_on_c, 7, 52, 0
9, 236160, Note_on_c, 7, 53, 68
9, 237120, Note_on_c, 7, 53, 0
9, 237120, Note_on_c, 7, 61, 86
9, 238080, Note_on_c, 7, 61, 0
9, 238080, Note_on_c, 7, 58, 66
9, 239040, Note_on_c, 7, 58, 0
9, 239040, Note_on_c, 7, 60, 69
9, 239896, Note_on_c, 7, 60, 0
9, 240000, Note_on_c, 7, 61, 72
9, 240480, Note_on_c, 7, 61, 0
9, 240960, Note_on_c, 7, 60, 63
9, 241440, Note_on_c, 7, 60, 0
9, 241920, Note_on_c, 7, 61, 60
9, 242402, Note_on_c, 7, 61, 0
9, 242880, Note_on_c, 7, 60, 56
9, 243338, Note_on_c, 7, 60, 0
9, 243829, Note_on_c, 7, 57, 47
9, 243829, Note_on_c, 7, 60, 47
9, 247680, Note_on_c, 7, 60, 0
9, 247680, Note_on_c, 7, 57, 0
9, 247680, Note_on_c, 7, 58, 52
9, 247680, Note_on_c, 7, 60, 52
9, 251520, Note_on_c, 7, 60, 0
9, 251520, Note_on_c, 7, 58, 0
9, 251536, Note_on_c, 7, 57, 45
9, 251536, Note_on_c, 7, 60, 45
9, 255360, Note_on_c, 7, 60, 0
9, 255360, Note_on_c, 7, 57, 0
9, 255360, Note_on_c, 7, 58, 52
9, 255360, Note_on_c, 7, 60, 52
9, 259200, Note_on_c, 7, 60, 0
9, 259200, Note_on_c, 7, 58, 0
9, 259216, Note_on_c, 7, 57, 47
9, 259216, Note_on_c, 7, 60, 47
9, 259694, Note_on_c, 7, 60, 0
9, 259694, Note_on_c, 7, 57, 0
9, 278393, Note_on_c, 7, 64, 58
9, 279356, Note_on_c, 7, 64, 0
9, 279356, Note_on_c, 7, 62, 52
9, 281282, Note_on_c, 7, 62, 0
9, 281282, Note_on_c, 7, 60, 61
9, 282240, Note_on_c, 7, 60, 0
9, 282240, Note_on_c, 7, 60, 57
9, 282473, Note_on_c, 7, 60, 0
9, 282716, Note_on_c, 7, 62, 51
9, 282956, Note_on_c, 7, 62, 0
9, 283196, Note_on_c, 7, 60, 54
9, 283436, Note_on_c, 7, 60, 0
9, 283676, Note_on_c, 7, 60, 51
9, 283916, Note_on_c, 7, 60, 0
9, 284157, Note_on_c, 7, 60, 56
9, 284636, Note_on_c, 7, 60, 0
9, 285121, Note_on_c, 7, 52, 51
9, 285121, Note_on_c, 7, 60, 51
9, 286080, Note_on_c, 7, 52, 0
9, 286080, Note_on_c, 7, 53, 61
9, 286560, Note_on_c, 7, 53, 0
9, 286560, Note_on_c, 7, 60, 0
9, 287040, Note_on_c, 7, 52, 51
9, 287040, Note_on_c, 7, 60, 51
9, 288000, Note_on_c, 7, 52, 0
9, 288000, Note_on_c, 7, 53, 67
9, 288477, Note_on_c, 7, 53, 0
9, 288477, Note_on_c, 7, 60, 0
9, 288960, Note_on_c, 7, 52, 56
9, 288960, Note_on_c, 7, 60, 56
9, 289920, Note_on_c, 7, 52, 0
9, 289920, Note_on_c, 7, 53, 63
9, 290392, Note_on_c, 7, 53, 0
9, 290392, Note_on_c, 7, 60, 0
9, 298556, Note_on_c, 7, 52, 57
9, 298556, Note_on_c, 7, 60, 57
9, 299520, Note_on_c, 7, 52, 0
9, 299520, Note_on_c, 7, 53, 56
9, 300000, Note_on_c, 7, 53, 0
9, 300000, Note_on_c, 7, 60, 0
9, 300480, Note_on_c, 7, 52, 63
9, 300480, Note_on_c, 7, 60, 63
9, 301440, Note_on_c, 7, 52, 0
9, 301440, Note_on_c, 7, 53, 62
9, 301920, Note_on_c, 7, 53, 0
9, 301920, Note_on_c, 7, 60, 0
9, 302400, Note_on_c, 7, 52, 44
9, 302400, Note_on_c, 7, 60, 44
9, 303360, Note_on_c, 7, 52, 0
9, 303360, Note_on_c, 7, 53, 59
9, 303833, Note_on_c, 7, 53, 0
9, 303833, Note_on_c, 7, 60, 0
9, 304320, Note_on_c, 7, 65, 58
9, 305280, Note_on_c, 7, 65, 0
9, 305290, Note_on_c, 7, 65, 58
9, 306246, Note_on_c, 7, 65, 0
9, 306246, Note_on_c, 7, 65, 65
9, 306486, Note_on_c, 7, 65, 0
9, 306725, Note_on_c, 7, 65, 55
9, 306965, Note_on_c, 7, 65, 0
9, 307205, Note_on_c, 7, 62, 58
9, 307685, Note_on_c, 7, 62, 0
9, 314873, Note_on_c, 7, 57, 57
9, 316077, Note_on_c, 7, 57, 0
9, 316077, Note_on_c, 7, 56, 58
9, 316320, Note_on_c, 7, 56, 0
9, 316320, Note_on_c, 7, 57, 62
9, 316560, Note_on_c, 7, 57, 0
9, 316560, Note_on_c, 7, 56, 56
9, 316800, Note_on_c, 7, 56, 0
9, 316800, Note_on_c, 7, 57, 65
9, 317520, Note_on_c, 7, 57, 0
9, 317520, Note_on_c, 7, 56, 64
9, 317760, Note_on_c, 7, 56, 0
9, 317760, Note_on_c, 7, 57, 73
9, 318000, Note_on_c, 7, 57, 0
9, 318000, Note_on_c, 7, 56, 61
9, 318237, Note_on_c, 7, 56, 0
9, 318237, Note_on_c, 7, 57, 64
9, 318477, Note_on_c, 7, 57, 0
9, 318477, Note_on_c, 7, 56, 56
9, 318720, Note_on_c, 7, 56, 0
9, 318720, Note_on_c, 7, 57, 60
9, 319193, Note_on_c, 7, 57, 0
9, 319193, Note_on_c, 7, 58, 59
9, 319680, Note_on_c, 7, 58, 0
9, 319680, Note_on_c, 7, 59, 57
9, 320160, Note_on_c, 7, 59, 0
9, 320160, Note_on_c, 7, 60, 62
9, 320640, Note_on_c, 7, 60, 0
9, 320640, Note_on_c, 7, 61, 66
9, 321116, Note_on_c, 7, 61, 0
9, 321116, Note_on_c, 7, 62, 71
9, 321600, Note_on_c, 7, 62, 0
9, 321600, Note_on_c, 7, 61, 57
9, 322080, Note_on_c, 7, 61, 0
9, 322080, Note_on_c, 7, 60, 51
9, 322560, Note_on_c, 7, 60, 0
9, 322560, Note_on_c, 7, 58, 53
9, 323040, Note_on_c, 7, 58, 0
9, 326397, Note_on_c, 7, 60, 51
9, 328565, Note_on_c, 7, 60, 0
9, 328565, Note_on_c, 7, 60, 73
9, 328805, Note_on_c, 7, 60, 0
9, 328805, Note_on_c, 7, 60, 84
9, 329045, Note_on_c, 7, 60, 0
9, 329045, Note_on_c, 7, 60, 64
9, 329281, Note_on_c, 7, 60, 0
9, 329281, Note_on_c, 7, 60, 80
9, 329521, Note_on_c, 7, 60, 0
9, 329521, Note_on_c, 7, 60, 96
9, 329760, Note_on_c, 7, 60, 0
9, 329760, Note_on_c, 7, 60, 108
9, 330000, Note_on_c, 7, 60, 0
9, 330000, Note_on_c, 7, 60, 96
9, 330240, Note_on_c, 7, 60, 0
9, 330240, Note_on_c, 7, 65, 110
9, 330353, Note_on_c, 7, 65, 0
9, 330480, Note_on_c, 7, 60, 62
9, 330597, Note_on_c, 7, 60, 0
9, 330720, Note_on_c, 7, 65, 103
9, 330837, Note_on_c, 7, 65, 0
9, 330960, Note_on_c, 7, 60, 68
9, 331077, Note_on_c, 7, 60, 0
9, 331200, Note_on_c, 7, 65, 103
9, 331317, Note_on_c, 7, 65, 0
9, 331440, Note_on_c, 7, 60, 68
9, 331557, Note_on_c, 7, 60, 0
9, 331680, Note_on_c, 7, 65, 94
9, 331797, Note_on_c, 7, 65, 0
9, 331920, Note_on_c, 7, 60, 72
9, 332037, Note_on_c, 7, 60, 0
9, 332160, Note_on_c, 7, 67, 112
9, 332277, Note_on_c, 7, 67, 0
9, 332400, Note_on_c, 7, 60, 57
9, 332517, Note_on_c, 7, 60, 0
9, 332640, Note_on_c, 7, 67, 112
9, 332757, Note_on_c, 7, 67, 0
9, 332880, Note_on_c, 7, 60, 60
9, 332997, Note_on_c, 7, 60, 0
9, 333120, Note_on_c, 7, 67, 109
9, 333237, Note_on_c, 7, 67, 0
9, 333360, Note_on_c, 7, 60, 54
9, 333477, Note_on_c, 7, 60, 0
9, 333600, Note_on_c, 7, 65, 107
9, 333717, Note_on_c, 7, 65, 0
9, 333840, Note_on_c, 7, 60, 72
9, 333957, Note_on_c, 7, 60, 0
9, 334080, Note_on_c, 7, 64, 89
9, 334197, Note_on_c, 7, 64, 0
9, 334320, Note_on_c, 7, 60, 71
9, 334437, Note_on_c, 7, 60, 0
9, 334560, Note_on_c, 7, 64, 94
9, 334677, Note_on_c, 7, 64, 0
9, 334800, Note_on_c, 7, 60, 75
9, 334917, Note_on_c, 7, 60, 0
9, 335040, Note_on_c, 7, 67, 106
9, 335157, Note_on_c, 7, 67, 0
9, 335280, Note_on_c, 7, 60, 59
9, 335397, Note_on_c, 7, 60, 0
9, 335520, Note_on_c, 7, 70, 122
9, 335637, Note_on_c, 7, 70, 0
9, 335760, Note_on_c, 7, 60, 66
9, 335877, Note_on_c, 7, 60, 0
9, 336000, Note_on_c, 7, 69, 111
9, 336117, Note_on_c, 7, 69, 0
9, 336240, Note_on_c, 7, 60, 63
9, 336357, Note_on_c, 7, 60, 0
9, 336480, Note_on_c, 7, 69, 115
9, 336597, Note_on_c, 7, 69, 0
9, 336720, Note_on_c, 7, 60, 64
9, 336837, Note_on_c, 7, 60, 0
9, 336960, Note_on_c, 7, 69, 117
9, 337077, Note_on_c, 7, 69, 0
9, 337200, Note_on_c, 7, 60, 61
9, 337317, Note_on_c, 7, 60, 0
9, 337440, Note_on_c, 7, 64, 101
9, 337557, Note_on_c, 7, 64, 0
9, 337680, Note_on_c, 7, 60, 71
9, 337797, Note_on_c, 7, 60, 0
9, 337920, Note_on_c, 7, 65, 100
9, 338037, Note_on_c, 7, 65, 0
9, 338160, Note_on_c, 7, 60, 73
9, 338277, Note_on_c, 7, 60, 0
9, 338400, Note_on_c, 7, 65, 98
9, 338517, Note_on_c, 7, 65, 0
9, 338640, Note_on_c, 7, 60, 64
9, 338757, Note_on_c, 7, 60, 0
9, 338880, Note_on_c, 7, 65, 106
9, 338997, Note_on_c, 7, 65, 0
9, 339120, Note_on_c, 7, 60, 65
9, 339237, Note_on_c, 7, 60, 0
9, 339360, Note_on_c, 7, 65, 102
9, 339477, Note_on_c, 7, 65, 0
9, 339600, Note_on_c, 7, 60, 72
9, 339717, Note_on_c, 7, 60, 0
9, 339840, Note_on_c, 7, 64, 91
9, 339957, Note_on_c, 7, 64, 0
9, 340080, Note_on_c, 7, 60, 64
9, 340197, Note_on_c, 7, 60, 0
9, 340320, Note_on_c, 7, 64, 100
9, 340437, Note_on_c, 7, 64, 0
9, 340560, Note_on_c, 7, 60, 66
9, 340677, Note_on_c, 7, 60, 0
9, 340800, Note_on_c, 7, 64, 99
9, 340917, Note_on_c, 7, 64, 0
9, 341040, Note_on_c, 7, 60, 67
9, 341157, Note_on_c, 7, 60, 0
9, 341280, Note_on_c, 7, 66, 99
9, 341397, Note_on_c, 7, 66, 0
9, 341520, Note_on_c, 7, 60, 64
9, 341637, Note_on_c, 7, 60, 0
9, 341760, Note_on_c, 7, 67, 113
9, 341877, Note_on_c, 7, 67, 0
9, 342000, Note_on_c, 7, 60, 60
9, 342117, Note_on_c, 7, 60, 0
9, 342240, Note_on_c, 7, 67, 116
9, 342357, Note_on_c, 7, 67, 0
9, 342480, Note_on_c, 7, 60, 60
9, 342597, Note_on_c, 7, 60, 0
9, 342720, Note_on_c, 7, 67, 108
9, 342837, Note_on_c, 7, 67, 0
9, 342960, Note_on_c, 7, 60, 60
9, 343077, Note_on_c, 7, 60, 0
9, 343200, Note_on_c, 7, 64, 99
9, 343317, Note_on_c, 7, 64, 0
9, 343440, Note_on_c, 7, 60, 61
9, 343557, Note_on_c, 7, 60, 0
9, 343680, Note_on_c, 7, 65, 100
9, 344160, Note_on_c, 7, 65, 0
9, 345596, Note_on_c, 7, 74, 75
9, 345712, Note_on_c, 7, 74, 0
9, 345840, Note_on_c, 7, 70, 68
9, 345957, Note_on_c, 7, 70, 0
9, 346080, Note_on_c, 7, 72, 97
9, 346140, Note_on_c, 7, 72, 0
9, 346140, Note_on_c, 7, 70, 76
9, 346200, Note_on_c, 7, 70, 0
9, 346200, Note_on_c, 7, 69, 74
9, 346260, Note_on_c, 7, 69, 0
9, 346260, Note_on_c, 7, 70, 90
9, 346560, Note_on_c, 7, 70, 0
9, 346560, Note_on_c, 7, 74, 97
9, 346677, Note_on_c, 7, 74, 0
9, 346789, Note_on_c, 7, 65, 61
9, 346908, Note_on_c, 7, 65, 0
9, 347014, Note_on_c, 7, 67, 83
9, 347074, Note_on_c, 7, 67, 0
9, 347074, Note_on_c, 7, 65, 76
9, 347130, Note_on_c, 7, 65, 0
9, 347130, Note_on_c, 7, 64, 78
9, 347190, Note_on_c, 7, 64, 0
9, 347190, Note_on_c, 7, 65, 88
9, 347520, Note_on_c, 7, 65, 0
9, 347520, Note_on_c, 7, 70, 112
9, 347626, Note_on_c, 7, 70, 0
9, 347748, Note_on_c, 7, 62, 59
9, 347866, Note_on_c, 7, 62, 0
9, 347992, Note_on_c, 7, 62, 81
9, 348109, Note_on_c, 7, 62, 0
9, 348232, Note_on_c, 7, 62, 75
9, 348349, Note_on_c, 7, 62, 0
9, 348476, Note_on_c, 7, 62, 81
9, 348593, Note_on_c, 7, 62, 0
9, 348716, Note_on_c, 7, 62, 83
9, 348833, Note_on_c, 7, 62, 0
9, 348960, Note_on_c, 7, 62, 82
9, 349077, Note_on_c, 7, 62, 0
9, 349200, Note_on_c, 7, 62, 82
9, 349317, Note_on_c, 7, 62, 0
9, 349440, Note_on_c, 7, 62, 68
9, 349677, Note_on_c, 7, 62, 0
9, 349920, Note_on_c, 7, 62, 81
9, 350157, Note_on_c, 7, 62, 0
9, 350400, Note_on_c, 7, 62, 84
9, 350637, Note_on_c, 7, 62, 0
9, 350880, Note_on_c, 7, 62, 78
9, 351117, Note_on_c, 7, 62, 0
9, 351360, Note_on_c, 7, 62, 81
9, 351840, Note_on_c, 7, 62, 0
9, 353280, Note_on_c, 7, 60, 54
9, 355200, Note_on_c, 7, 60, 0
9, 355200, Note_on_c, 7, 69, 88
9, 355440, Note_on_c, 7, 69, 0
9, 355680, Note_on_c, 7, 65, 60
9, 355920, Note_on_c, 7, 65, 0
9, 356160, Note_on_c, 7, 67, 57
9, 356400, Note_on_c, 7, 67, 0
9, 356640, Note_on_c, 7, 64, 46
9, 356880, Note_on_c, 7, 64, 0
9, 357120, Note_on_c, 7, 60, 58
9, 359040, Note_on_c, 7, 60, 0
9, 359040, Note_on_c, 7, 69, 82
9, 359040, Note_on_c, 7, 72, 82
9, 359280, Note_on_c, 7, 72, 0
9, 359280, Note_on_c, 7, 69, 0
9, 359520, Note_on_c, 7, 65, 55
9, 359520, Note_on_c, 7, 69, 55
9, 359760, Note_on_c, 7, 69, 0
9, 359760, Note_on_c, 7, 65, 0
9, 360000, Note_on_c, 7, 67, 54
9, 360000, Note_on_c, 7, 70, 54
9, 360240, Note_on_c, 7, 70, 0
9, 360240, Note_on_c, 7, 67, 0
9, 360480, Note_on_c, 7, 64, 55
9, 360480, Note_on_c, 7, 67, 55
9, 360720, Note_on_c, 7, 67, 0
9, 360720, Note_on_c, 7, 64, 0
9, 360933, Note_on_c, 7, 65, 91
9, 361428, Note_on_c, 7, 65, 0
9, 362169, Note_on_c, 7, 62, 92
9, 362409, Note_on_c, 7, 62, 0
9, 362409, Note_on_c, 7, 60, 90
9, 362649, Note_on_c, 7, 60, 0
9, 362649, Note_on_c, 7, 58, 88
9, 362880, Note_on_c, 7, 58, 0
9, 362886, Note_on_c, 7, 57, 90
9, 363362, Note_on_c, 7, 57, 0
9, 364080, Note_on_c, 7, 62, 84
9, 364320, Note_on_c, 7, 62, 0
9, 364320, Note_on_c, 7, 60, 82
9, 364560, Note_on_c, 7, 60, 0
9, 364560, Note_on_c, 7, 58, 95
9, 364800, Note_on_c, 7, 58, 0
9, 364800, Note_on_c, 7, 57, 96
9, 365037, Note_on_c, 7, 57, 0
9, 365280, Note_on_c, 7, 65, 126
9, 365517, Note_on_c, 7, 65, 0
9, 365760, Note_on_c, 7, 53, 80
9, 366240, Note_on_c, 7, 53, 0
9, 376320, Note_on_c, 7, 60, 48
9, 377280, Note_on_c, 7, 60, 0
9, 377280, Note_on_c, 7, 62, 51
9, 379200, Note_on_c, 7, 62, 0
9, 379200, Note_on_c, 7, 60, 48
9, 381117, Note_on_c, 7, 60, 0
9, 381117, Note_on_c, 7, 58, 44
9, 383040, Note_on_c, 7, 58, 0
9, 383040, Note_on_c, 7, 57, 46
9, 384000, Note_on_c, 7, 57, 0
9, 384000, Note_on_c, 7, 57, 57
9, 384232, Note_on_c, 7, 57, 0
9, 403206, Note_on_c, 7, 67, 54
9, 404162, Note_on_c, 7, 67, 0
9, 404162, Note_on_c, 7, 65, 50
9, 405016, Note_on_c, 7, 65, 0
9, 405120, Note_on_c, 7, 67, 66
9, 405600, Note_on_c, 7, 67, 0
9, 407046, Note_on_c, 7, 70, 47
9, 408002, Note_on_c, 7, 70, 0
9, 408002, Note_on_c, 7, 69, 54
9, 408860, Note_on_c, 7, 69, 0
9, 408962, Note_on_c, 7, 70, 61
9, 409440, Note_on_c, 7, 70, 0
9, 410889, Note_on_c, 7, 58, 43
9, 424320, Note_on_c, 7, 58, 0
9, 424320, Note_on_c, 7, 60, 70
9, 424789, Note_on_c, 7, 60, 0
9, 426250, Note_on_c, 7, 61, 49
9, 428160, Note_on_c, 7, 61, 0
9, 428160, Note_on_c, 7, 60, 56
9, 428637, Note_on_c, 7, 60, 0
9, 430082, Note_on_c, 7, 52, 55
9, 432000, Note_on_c, 7, 53, 64
9, 432480, Note_on_c, 7, 53, 0
9, 432480, Note_on_c, 7, 52, 0
9, 443513, Note_on_c, 7, 65, 44
9, 443993, Note_on_c, 7, 65, 0
9, 444960, Note_on_c, 7, 65, 53
9, 445440, Note_on_c, 7, 65, 0
9, 445440, Note_on_c, 7, 65, 63
9, 445920, Note_on_c, 7, 65, 0
9, 445920, Note_on_c, 7, 65, 62
9, 446400, Note_on_c, 7, 65, 0
9, 447360, Note_on_c, 7, 65, 52
9, 447840, Note_on_c, 7, 65, 0
9, 448800, Note_on_c, 7, 65, 53
9, 449280, Note_on_c, 7, 65, 0
9, 449280, Note_on_c, 7, 65, 63
9, 449760, Note_on_c, 7, 65, 0
9, 449760, Note_on_c, 7, 65, 65
9, 450240, Note_on_c, 7, 65, 0
9, 451200, Note_on_c, 7, 58, 55
9, 451680, Note_on_c, 7, 58, 0
9, 452160, Note_on_c, 7, 60, 54
9, 452640, Note_on_c, 7, 60, 0
9, 453120, Note_on_c, 7, 62, 83
9, 453600, Note_on_c, 7, 62, 0
9, 455036, Note_on_c, 7, 63, 53
9, 456000, Note_on_c, 7, 63, 0
9, 456000, Note_on_c, 7, 60, 58
9, 456845, Note_on_c, 7, 60, 0
9, 456953, Note_on_c, 7, 60, 63
9, 457432, Note_on_c, 7, 60, 0
9, 472320, Note_on_c, 7, 58, 59
9, 473280, Note_on_c, 7, 58, 0
9, 473280, Note_on_c, 7, 67, 87
9, 474240, Note_on_c, 7, 67, 0
9, 474240, Note_on_c, 7, 65, 60
9, 476160, Note_on_c, 7, 65, 0
9, 476160, Note_on_c, 7, 58, 73
9, 476273, Note_on_c, 7, 58, 0
9, 476400, Note_on_c, 7, 53, 82
9, 476517, Note_on_c, 7, 53, 0
9, 476640, Note_on_c, 7, 58, 102
9, 476757, Note_on_c, 7, 58, 0
9, 476880, Note_on_c, 7, 53, 92
9, 476997, Note_on_c, 7, 53, 0
9, 477120, Note_on_c, 7, 58, 104
9, 477237, Note_on_c, 7, 58, 0
9, 477360, Note_on_c, 7, 53, 84
9, 477477, Note_on_c, 7, 53, 0
9, 477600, Note_on_c, 7, 58, 107
9, 477717, Note_on_c, 7, 58, 0
9, 477840, Note_on_c, 7, 53, 84
9, 477957, Note_on_c, 7, 53, 0
9, 478080, Note_on_c, 7, 60, 126
9, 478197, Note_on_c, 7, 60, 0
9, 478320, Note_on_c, 7, 53, 85
9, 478437, Note_on_c, 7, 53, 0
9, 478560, Note_on_c, 7, 60, 126
9, 478677, Note_on_c, 7, 60, 0
9, 478800, Note_on_c, 7, 53, 87
9, 478917, Note_on_c, 7, 53, 0
9, 479040, Note_on_c, 7, 60, 126
9, 479157, Note_on_c, 7, 60, 0
9, 479280, Note_on_c, 7, 53, 94
9, 479397, Note_on_c, 7, 53, 0
9, 479520, Note_on_c, 7, 58, 106
9, 479637, Note_on_c, 7, 58, 0
9, 479760, Note_on_c, 7, 53, 86
9, 479877, Note_on_c, 7, 53, 0
9, 480000, Note_on_c, 7, 57, 105
9, 480117, Note_on_c, 7, 57, 0
9, 480240, Note_on_c, 7, 53, 93
9, 480357, Note_on_c, 7, 53, 0
9, 480480, Note_on_c, 7, 57, 97
9, 480597, Note_on_c, 7, 57, 0
9, 480720, Note_on_c, 7, 53, 94
9, 480837, Note_on_c, 7, 53, 0
9, 480960, Note_on_c, 7, 57, 107
9, 481077, Note_on_c, 7, 57, 0
9, 481200, Note_on_c, 7, 53, 90
9, 481317, Note_on_c, 7, 53, 0
9, 481440, Note_on_c, 7, 57, 103
9, 481557, Note_on_c, 7, 57, 0
9, 481680, Note_on_c, 7, 53, 82
9, 481797, Note_on_c, 7, 53, 0
9, 481920, Note_on_c, 7, 58, 108
9, 482037, Note_on_c, 7, 58, 0
9, 482160, Note_on_c, 7, 53, 88
9, 482277, Note_on_c, 7, 53, 0
9, 482400, Note_on_c, 7, 58, 108
9, 482517, Note_on_c, 7, 58, 0
9, 482640, Note_on_c, 7, 53, 85
9, 482757, Note_on_c, 7, 53, 0
9, 482880, Note_on_c, 7, 58, 100
9, 482997, Note_on_c, 7, 58, 0
9, 483120, Note_on_c, 7, 53, 85
9, 483237, Note_on_c, 7, 53, 0
9, 483360, Note_on_c, 7, 58, 111
9, 483477, Note_on_c, 7, 58, 0
9, 483600, Note_on_c, 7, 53, 90
9, 483717, Note_on_c, 7, 53, 0
9, 483840, Note_on_c, 7, 60, 126
9, 483957, Note_on_c, 7, 60, 0
9, 484080, Note_on_c, 7, 53, 79
9, 484197, Note_on_c, 7, 53, 0
9, 484320, Note_on_c, 7, 60, 126
9, 484437, Note_on_c, 7, 60, 0
9, 484560, Note_on_c, 7, 53, 87
9, 484677, Note_on_c, 7, 53, 0
9, 484800, Note_on_c, 7, 60, 126
9, 484917, Note_on_c, 7, 60, 0
9, 485040, Note_on_c, 7, 53, 81
9, 485157, Note_on_c, 7, 53, 0
9, 485280, Note_on_c, 7, 58, 107
9, 485397, Note_on_c, 7, 58, 0
9, 485520, Note_on_c, 7, 53, 84
9, 485637, Note_on_c, 7, 53, 0
9, 485760, Note_on_c, 7, 57, 100
9, 485877, Note_on_c, 7, 57, 0
9, 486000, Note_on_c, 7, 53, 91
9, 486117, Note_on_c, 7, 53, 0
9, 486240, Note_on_c, 7, 57, 103
9, 486357, Note_on_c, 7, 57, 0
9, 486480, Note_on_c, 7, 53, 87
9, 486597, Note_on_c, 7, 53, 0
9, 486720, Note_on_c, 7, 57, 105
9, 486837, Note_on_c, 7, 57, 0
9, 486960, Note_on_c, 7, 53, 95
9, 487077, Note_on_c, 7, 53, 0
9, 487200, Note_on_c, 7, 57, 106
9, 487317, Note_on_c, 7, 57, 0
9, 487440, Note_on_c, 7, 53, 86
9, 487557, Note_on_c, 7, 53, 0
9, 487680, Note_on_c, 7, 58, 103
9, 488160, Note_on_c, 7, 58, 0
9, 489840, Note_on_c, 7, 70, 89
9, 489957, Note_on_c, 7, 70, 0
9, 490080, Note_on_c, 7, 72, 103
9, 490140, Note_on_c, 7, 72, 0
9, 490140, Note_on_c, 7, 70, 89
9, 490202, Note_on_c, 7, 70, 0
9, 490202, Note_on_c, 7, 69, 80
9, 490262, Note_on_c, 7, 69, 0
9, 490262, Note_on_c, 7, 70, 102
9, 490560, Note_on_c, 7, 70, 0
9, 490560, Note_on_c, 7, 74, 122
9, 490677, Note_on_c, 7, 74, 0
9, 490788, Note_on_c, 7, 65, 70
9, 490906, Note_on_c, 7, 65, 0
9, 491014, Note_on_c, 7, 67, 106
9, 491074, Note_on_c, 7, 67, 0
9, 491074, Note_on_c, 7, 65, 85
9, 491129, Note_on_c, 7, 65, 0
9, 491129, Note_on_c, 7, 64, 86
9, 491189, Note_on_c, 7, 64, 0
9, 491189, Note_on_c, 7, 65, 104
9, 491520, Note_on_c, 7, 65, 0
9, 491520, Note_on_c, 7, 70, 126
9, 491626, Note_on_c, 7, 70, 0
9, 491748, Note_on_c, 7, 62, 68
9, 491866, Note_on_c, 7, 62, 0
9, 491992, Note_on_c, 7, 62, 94
9, 492720, Note_on_c, 7, 62, 0
9, 492720, Note_on_c, 7, 64, 108
9, 492840, Note_on_c, 7, 64, 0
9, 492840, Note_on_c, 7, 65, 107
9, 492960, Note_on_c, 7, 65, 0
9, 492960, Note_on_c, 7, 67, 108
9, 493200, Note_on_c, 7, 67, 0
9, 493200, Note_on_c, 7, 64, 77
9, 493440, Note_on_c, 7, 64, 0
9, 493440, Note_on_c, 7, 65, 103
9, 493916, Note_on_c, 7, 65, 0
9, 499186, Note_on_c, 7, 53, 45
9, 500160, Note_on_c, 7, 53, 0
9, 500160, Note_on_c, 7, 50, 42
9, 500652, Note_on_c, 7, 50, 0
9, 500652, Note_on_c, 7, 58, 60
9, 501120, Note_on_c, 7, 58, 0
9, 501130, Note_on_c, 7, 53, 50
9, 501606, Note_on_c, 7, 53, 0
9, 506869, Note_on_c, 7, 51, 42
9, 507840, Note_on_c, 7, 51, 0
9, 507840, Note_on_c, 7, 48, 47
9, 508330, Note_on_c, 7, 48, 0
9, 508330, Note_on_c, 7, 57, 63
9, 508800, Note_on_c, 7, 57, 0
9, 508810, Note_on_c, 7, 58, 58
9, 509289, Note_on_c, 7, 58, 0
9, 510720, Note_on_c, 7, 67, 49
9, 512160, Note_on_c, 7, 67, 0
9, 512160, Note_on_c, 7, 65, 51
9, 512640, Note_on_c, 7, 65, 0
9, 512640, Note_on_c, 7, 63, 40
9, 513116, Note_on_c, 7, 63, 0
9, 513116, Note_on_c, 7, 62, 41
9, 513597, Note_on_c, 7, 62, 0
9, 513597, Note_on_c, 7, 63, 56
9, 514081, Note_on_c, 7, 63, 0
9, 514081, Note_on_c, 7, 60, 40
9, 514560, Note_on_c, 7, 60, 0
9, 514565, Note_on_c, 7, 57, 45
9, 516000, Note_on_c, 7, 57, 0
9, 516000, Note_on_c, 7, 60, 63
9, 516480, Note_on_c, 7, 60, 0
9, 516480, Note_on_c, 7, 62, 63
9, 516956, Note_on_c, 7, 62, 0
9, 516956, Note_on_c, 7, 65, 61
9, 517437, Note_on_c, 7, 65, 0
9, 517437, Note_on_c, 7, 62, 48
9, 517920, Note_on_c, 7, 62, 0
9, 517920, Note_on_c, 7, 58, 40
9, 518305, Note_on_c, 7, 58, 0
9, 518402, Note_on_c, 7, 63, 65
9, 520320, Note_on_c, 7, 63, 0
9, 520320, Note_on_c, 7, 67, 62
9, 522240, Note_on_c, 7, 67, 0
9, 522240, Note_on_c, 7, 65, 50
9, 524160, Note_on_c, 7, 65, 0
9, 524162, Note_on_c, 7, 58, 39
9, 526080, Note_on_c, 7, 58, 0
9, 526080, Note_on_c, 7, 57, 44
9, 528000, Note_on_c, 7, 57, 0
9, 528000, Note_on_c, 7, 58, 52
9, 529920, Note_on_c, 7, 58, 0
9, 529920, Note_on_c, 7, 57, 45
9, 531840, Note_on_c, 7, 57, 0
9, 531840, Note_on_c, 7, 58, 54
9, 533760, Note_on_c, 7, 58, 0
9, 533760, Note_on_c, 7, 56, 43
9, 534717, Note_on_c, 7, 56, 0
9, 534717, Note_on_c, 7, 58, 51
9, 535576, Note_on_c, 7, 58, 0
9, 535680, Note_on_c, 7, 59, 53
9, 536640, Note_on_c, 7, 59, 0
9, 536640, Note_on_c, 7, 57, 49
9, 537496, Note_on_c, 7, 57, 0
9, 537600, Note_on_c, 7, 58, 56
9, 538560, Note_on_c, 7, 58, 0
9, 538560, Note_on_c, 7, 66, 75
9, 539520, Note_on_c, 7, 66, 0
9, 539520, Note_on_c, 7, 63, 47
9, 540480, Note_on_c, 7, 63, 0
9, 540480, Note_on_c, 7, 65, 66
9, 541336, Note_on_c, 7, 65, 0
9, 541440, Note_on_c, 7, 66, 57
9, 541920, Note_on_c, 7, 66, 0
9, 542400, Note_on_c, 7, 65, 40
9, 542881, Note_on_c, 7, 65, 0
9, 543360, Note_on_c, 7, 66, 45
9, 543842, Note_on_c, 7, 66, 0
9, 544320, Note_on_c, 7, 65, 44
9, 544784, Note_on_c, 7, 65, 0
9, 545273, Note_on_c, 7, 50, 36
9, 545273, Note_on_c, 7, 53, 36
9, 549120, Note_on_c, 7, 53, 0
9, 549120, Note_on_c, 7, 50, 0
9, 549120, Note_on_c, 7, 51, 44
9, 549120, Note_on_c, 7, 53, 44
9, 552960, Note_on_c, 7, 53, 0
9, 552960, Note_on_c, 7, 51, 0
9, 552972, Note_on_c, 7, 50, 50
9, 552972, Note_on_c, 7, 53, 50
9, 556800, Note_on_c, 7, 53, 0
9, 556800, Note_on_c, 7, 50, 0
9, 556800, Note_on_c, 7, 51, 44
9, 556800, Note_on_c, 7, 53, 44
9, 560640, Note_on_c, 7, 53, 0
9, 560640, Note_on_c, 7, 51, 0
9, 560652, Note_on_c, 7, 50, 42
9, 560652, Note_on_c, 7, 53, 42
9, 561132, Note_on_c, 7, 53, 0
9, 561132, Note_on_c, 7, 50, 0
9, 579836, Note_on_c, 7, 57, 49
9, 580800, Note_on_c, 7, 57, 0
9, 580800, Note_on_c, 7, 55, 54
9, 582721, Note_on_c, 7, 55, 0
9, 582721, Note_on_c, 7, 53, 54
9, 583680, Note_on_c, 7, 53, 0
9, 583680, Note_on_c, 7, 53, 58
9, 583912, Note_on_c, 7, 53, 0
9, 584152, Note_on_c, 7, 55, 51
9, 584396, Note_on_c, 7, 55, 0
9, 584636, Note_on_c, 7, 53, 53
9, 584876, Note_on_c, 7, 53, 0
9, 585116, Note_on_c, 7, 51, 51
9, 585356, Note_on_c, 7, 51, 0
9, 585597, Note_on_c, 7, 50, 52
9, 586080, Note_on_c, 7, 50, 0
9, 586560, Note_on_c, 7, 57, 50
9, 586560, Note_on_c, 7, 65, 50
9, 587520, Note_on_c, 7, 65, 0
9, 587520, Note_on_c, 7, 57, 0
9, 587520, Note_on_c, 7, 58, 62
9, 587520, Note_on_c, 7, 65, 62
9, 587901, Note_on_c, 7, 65, 0
9, 587901, Note_on_c, 7, 58, 0
9, 588480, Note_on_c, 7, 57, 61
9, 588480, Note_on_c, 7, 65, 61
9, 589440, Note_on_c, 7, 65, 0
9, 589440, Note_on_c, 7, 57, 0
9, 589440, Note_on_c, 7, 58, 68
9, 589440, Note_on_c, 7, 65, 68
9, 589810, Note_on_c, 7, 65, 0
9, 589810, Note_on_c, 7, 58, 0
9, 590400, Note_on_c, 7, 57, 51
9, 590400, Note_on_c, 7, 65, 51
9, 591360, Note_on_c, 7, 65, 0
9, 591360, Note_on_c, 7, 57, 0
9, 591360, Note_on_c, 7, 58, 56
9, 591360, Note_on_c, 7, 65, 56
9, 591730, Note_on_c, 7, 65, 0
9, 591730, Note_on_c, 7, 58, 0
9, 600000, Note_on_c, 7, 57, 49
9, 600000, Note_on_c, 7, 65, 49
9, 600960, Note_on_c, 7, 65, 0
9, 600960, Note_on_c, 7, 58, 57
9, 600960, Note_on_c, 7, 65, 57
9, 601341, Note_on_c, 7, 65, 0
9, 601341, Note_on_c, 7, 58, 0
9, 601440, Note_on_c, 7, 57, 0
9, 601920, Note_on_c, 7, 57, 56
9, 601920, Note_on_c, 7, 65, 56
9, 602880, Note_on_c, 7, 65, 0
9, 602880, Note_on_c, 7, 57, 0
9, 602880, Note_on_c, 7, 58, 56
9, 602880, Note_on_c, 7, 65, 56
9, 603258, Note_on_c, 7, 65, 0
9, 603258, Note_on_c, 7, 58, 0
9, 603840, Note_on_c, 7, 57, 54
9, 603840, Note_on_c, 7, 65, 54
9, 604800, Note_on_c, 7, 65, 0
9, 604800, Note_on_c, 7, 57, 0
9, 604800, Note_on_c, 7, 58, 65
9, 604800, Note_on_c, 7, 65, 65
9, 605176, Note_on_c, 7, 65, 0
9, 605176, Note_on_c, 7, 58, 0
9, 605760, Note_on_c, 7, 58, 55
9, 606720, Note_on_c, 7, 58, 0
9, 606722, Note_on_c, 7, 58, 62
9, 607682, Note_on_c, 7, 58, 0
9, 607682, Note_on_c, 7, 58, 63
9, 607922, Note_on_c, 7, 58, 0
9, 608162, Note_on_c, 7, 58, 54
9, 608401, Note_on_c, 7, 58, 0
9, 608642, Note_on_c, 7, 59, 54
9, 608882, Note_on_c, 7, 59, 0
9, 609601, Note_on_c, 7, 55, 53
9, 609840, Note_on_c, 7, 55, 0
9, 610560, Note_on_c, 7, 57, 60
9, 610800, Note_on_c, 7, 57, 0
9, 611520, Note_on_c, 7, 50, 56
9, 611760, Note_on_c, 7, 50, 0
9, 618236, Note_on_c, 7, 50, 53
9, 618236, Note_on_c, 7, 62, 53
9, 619440, Note_on_c, 7, 62, 0
9, 619440, Note_on_c, 7, 50, 0
9, 619440, Note_on_c, 7, 49, 53
9, 619440, Note_on_c, 7, 61, 53
9, 619680, Note_on_c, 7, 61, 0
9, 619680, Note_on_c, 7, 49, 0
9, 619680, Note_on_c, 7, 50, 64
9, 619680, Note_on_c, 7, 62, 64
9, 619920, Note_on_c, 7, 62, 0
9, 619920, Note_on_c, 7, 50, 0
9, 619920, Note_on_c, 7, 49, 59
9, 619920, Note_on_c, 7, 61, 59
9, 620160, Note_on_c, 7, 61, 0
9, 620160, Note_on_c, 7, 49, 0
9, 620160, Note_on_c, 7, 50, 68
9, 620160, Note_on_c, 7, 62, 68
9, 620880, Note_on_c, 7, 62, 0
9, 620880, Note_on_c, 7, 50, 0
9, 620880, Note_on_c, 7, 49, 53
9, 620880, Note_on_c, 7, 61, 53
9, 621120, Note_on_c, 7, 61, 0
9, 621120, Note_on_c, 7, 49, 0
9, 621120, Note_on_c, 7, 50, 69
9, 621120, Note_on_c, 7, 62, 69
9, 621360, Note_on_c, 7, 62, 0
9, 621360, Note_on_c, 7, 50, 0
9, 621360, Note_on_c, 7, 49, 60
9, 621360, Note_on_c, 7, 61, 60
9, 621600, Note_on_c, 7, 61, 0
9, 621600, Note_on_c, 7, 49, 0
9, 621600, Note_on_c, 7, 50, 65
9, 621600, Note_on_c, 7, 62, 65
9, 621837, Note_on_c, 7, 62, 0
9, 621837, Note_on_c, 7, 50, 0
9, 621837, Note_on_c, 7, 49, 53
9, 621837, Note_on_c, 7, 61, 53
9, 622026, Note_on_c, 7, 61, 0
9, 622026, Note_on_c, 7, 49, 0
9, 622072, Note_on_c, 7, 50, 62
9, 622072, Note_on_c, 7, 62, 62
9, 622553, Note_on_c, 7, 62, 0
9, 622553, Note_on_c, 7, 50, 0
9, 622553, Note_on_c, 7, 51, 70
9, 622553, Note_on_c, 7, 63, 70
9, 623040, Note_on_c, 7, 63, 0
9, 623040, Note_on_c, 7, 51, 0
9, 623040, Note_on_c, 7, 52, 64
9, 623040, Note_on_c, 7, 64, 64
9, 623520, Note_on_c, 7, 64, 0
9, 623520, Note_on_c, 7, 52, 0
9, 623520, Note_on_c, 7, 53, 71
9, 623520, Note_on_c, 7, 65, 71
9, 623896, Note_on_c, 7, 65, 0
9, 623896, Note_on_c, 7, 53, 0
9, 623996, Note_on_c, 7, 54, 67
9, 623996, Note_on_c, 7, 66, 67
9, 624473, Note_on_c, 7, 66, 0
9, 624473, Note_on_c, 7, 54, 0
9, 624473, Note_on_c, 7, 55, 68
9, 624473, Note_on_c, 7, 67, 68
9, 624960, Note_on_c, 7, 67, 0
9, 624960, Note_on_c, 7, 55, 0
9, 624960, Note_on_c, 7, 54, 55
9, 624960, Note_on_c, 7, 66, 55
9, 625440, Note_on_c, 7, 66, 0
9, 625440, Note_on_c, 7, 54, 0
9, 625440, Note_on_c, 7, 53, 59
9, 625440, Note_on_c, 7, 65, 59
9, 625920, Note_on_c, 7, 65, 0
9, 625920, Note_on_c, 7, 53, 0
9, 625920, Note_on_c, 7, 51, 56
9, 625920, Note_on_c, 7, 63, 56
9, 626296, Note_on_c, 7, 63, 0
9, 626296, Note_on_c, 7, 51, 0
9, 629757, Note_on_c, 7, 67, 58
9, 631680, Note_on_c, 7, 67, 0
9, 631685, Note_on_c, 7, 58, 46
9, 633482, Note_on_c, 7, 58, 0
9, 633596, Note_on_c, 7, 58, 61
9, 635520, Note_on_c, 7, 58, 0
9, 635520, Note_on_c, 7, 62, 74
9, 637440, Note_on_c, 7, 62, 0
9, 637440, Note_on_c, 7, 65, 71
9, 639360, Note_on_c, 7, 65, 0
9, 639365, Note_on_c, 7, 70, 77
9, 639605, Note_on_c, 7, 70, 0
9, 640321, Note_on_c, 7, 74, 54
9, 640560, Note_on_c, 7, 74, 0
9, 641273, Note_on_c, 7, 77, 54
9, 641512, Note_on_c, 7, 77, 0
9, 643197, Note_on_c, 7, 65, 52
9, 643436, Note_on_c, 7, 65, 0
9, 643436, Note_on_c, 7, 65, 67
9, 643676, Note_on_c, 7, 65, 0
9, 643676, Note_on_c, 7, 65, 79
9, 643916, Note_on_c, 7, 65, 0
9, 643916, Note_on_c, 7, 65, 85
9, 644160, Note_on_c, 7, 65, 0
9, 644160, Note_on_c, 7, 65, 62
9, 644400, Note_on_c, 7, 65, 0
9, 644400, Note_on_c, 7, 65, 77
9, 644640, Note_on_c, 7, 65, 0
9, 644640, Note_on_c, 7, 65, 90
9, 644880, Note_on_c, 7, 65, 0
9, 644880, Note_on_c, 7, 65, 87
9, 645120, Note_on_c, 7, 65, 0
9, 645120, Note_on_c, 7, 58, 90
9, 645237, Note_on_c, 7, 58, 0
9, 645360, Note_on_c, 7, 53, 102
9, 645477, Note_on_c, 7, 53, 0
9, 645600, Note_on_c, 7, 58, 117
9, 645717, Note_on_c, 7, 58, 0
9, 645840, Note_on_c, 7, 53, 90
9, 645957, Note_on_c, 7, 53, 0
9, 646080, Note_on_c, 7, 58, 121
9, 646197, Note_on_c, 7, 58, 0
9, 646320, Note_on_c, 7, 53, 95
9, 646437, Note_on_c, 7, 53, 0
9, 646560, Note_on_c, 7, 58, 119
9, 646677, Note_on_c, 7, 58, 0
9, 646800, Note_on_c, 7, 53, 102
9, 646917, Note_on_c, 7, 53, 0
9, 647040, Note_on_c, 7, 60, 126
9, 647157, Note_on_c, 7, 60, 0
9, 647280, Note_on_c, 7, 53, 98
9, 647397, Note_on_c, 7, 53, 0
9, 647520, Note_on_c, 7, 60, 126
9, 647637, Note_on_c, 7, 60, 0
9, 647760, Note_on_c, 7, 53, 97
9, 647877, Note_on_c, 7, 53, 0
9, 648000, Note_on_c, 7, 60, 126
9, 648117, Note_on_c, 7, 60, 0
9, 648240, Note_on_c, 7, 53, 99
9, 648357, Note_on_c, 7, 53, 0
9, 648480, Note_on_c, 7, 58, 123
9, 648597, Note_on_c, 7, 58, 0
9, 648720, Note_on_c, 7, 53, 101
9, 648837, Note_on_c, 7, 53, 0
9, 648960, Note_on_c, 7, 57, 114
9, 649077, Note_on_c, 7, 57, 0
9, 649200, Note_on_c, 7, 53, 97
9, 649317, Note_on_c, 7, 53, 0
9, 649440, Note_on_c, 7, 57, 122
9, 649557, Note_on_c, 7, 57, 0
9, 649680, Note_on_c, 7, 53, 97
9, 649797, Note_on_c, 7, 53, 0
9, 649920, Note_on_c, 7, 60, 126
9, 650037, Note_on_c, 7, 60, 0
9, 650160, Note_on_c, 7, 53, 100
9, 650277, Note_on_c, 7, 53, 0
9, 650400, Note_on_c, 7, 63, 126
9, 650517, Note_on_c, 7, 63, 0
9, 650640, Note_on_c, 7, 53, 94
9, 650757, Note_on_c, 7, 53, 0
9, 650880, Note_on_c, 7, 62, 126
9, 650997, Note_on_c, 7, 62, 0
9, 651120, Note_on_c, 7, 53, 89
9, 651237, Note_on_c, 7, 53, 0
9, 651360, Note_on_c, 7, 62, 126
9, 651477, Note_on_c, 7, 62, 0
9, 651600, Note_on_c, 7, 53, 94
9, 651717, Note_on_c, 7, 53, 0
9, 651840, Note_on_c, 7, 62, 126
9, 651957, Note_on_c, 7, 62, 0
9, 652080, Note_on_c, 7, 53, 98
9, 652197, Note_on_c, 7, 53, 0
9, 652320, Note_on_c, 7, 57, 118
9, 652437, Note_on_c, 7, 57, 0
9, 652560, Note_on_c, 7, 53, 95
9, 652677, Note_on_c, 7, 53, 0
9, 652800, Note_on_c, 7, 58, 126
9, 652917, Note_on_c, 7, 58, 0
9, 653040, Note_on_c, 7, 53, 96
9, 653157, Note_on_c, 7, 53, 0
9, 653280, Note_on_c, 7, 58, 122
9, 653397, Note_on_c, 7, 58, 0
9, 653520, Note_on_c, 7, 53, 95
9, 653637, Note_on_c, 7, 53, 0
9, 653760, Note_on_c, 7, 58, 116
9, 653877, Note_on_c, 7, 58, 0
9, 654000, Note_on_c, 7, 53, 102
9, 654117, Note_on_c, 7, 53, 0
9, 654240, Note_on_c, 7, 58, 125
9, 654357, Note_on_c, 7, 58, 0
9, 654480, Note_on_c, 7, 53, 96
9, 654597, Note_on_c, 7, 53, 0
9, 654720, Note_on_c, 7, 57, 110
9, 654837, Note_on_c, 7, 57, 0
9, 654960, Note_on_c, 7, 53, 100
9, 655077, Note_on_c, 7, 53, 0
9, 655200, Note_on_c, 7, 57, 110
9, 655317, Note_on_c, 7, 57, 0
9, 655440, Note_on_c, 7, 53, 102
9, 655557, Note_on_c, 7, 53, 0
9, 655680, Note_on_c, 7, 57, 118
9, 655797, Note_on_c, 7, 57, 0
9, 655920, Note_on_c, 7, 53, 92
9, 656037, Note_on_c, 7, 53, 0
9, 656160, Note_on_c, 7, 59, 125
9, 656277, Note_on_c, 7, 59, 0
9, 656400, Note_on_c, 7, 53, 93
9, 656517, Note_on_c, 7, 53, 0
9, 656640, Note_on_c, 7, 60, 126
9, 656757, Note_on_c, 7, 60, 0
9, 656880, Note_on_c, 7, 53, 101
9, 656997, Note_on_c, 7, 53, 0
9, 657120, Note_on_c, 7, 60, 126
9, 657237, Note_on_c, 7, 60, 0
9, 657360, Note_on_c, 7, 53, 96
9, 657477, Note_on_c, 7, 53, 0
9, 657600, Note_on_c, 7, 60, 126
9, 657717, Note_on_c, 7, 60, 0
9, 657840, Note_on_c, 7, 53, 97
9, 657957, Note_on_c, 7, 53, 0
9, 658080, Note_on_c, 7, 57, 112
9, 658197, Note_on_c, 7, 57, 0
9, 658320, Note_on_c, 7, 53, 97
9, 658437, Note_on_c, 7, 53, 0
9, 658560, Note_on_c, 7, 58, 122
9, 659040, Note_on_c, 7, 58, 0
9, 660720, Note_on_c, 7, 70, 97
9, 660837, Note_on_c, 7, 70, 0
9, 660960, Note_on_c, 7, 72, 117
9, 661020, Note_on_c, 7, 72, 0
9, 661020, Note_on_c, 7, 70, 101
9, 661082, Note_on_c, 7, 70, 0
9, 661082, Note_on_c, 7, 69, 98
9, 661142, Note_on_c, 7, 69, 0
9, 661142, Note_on_c, 7, 70, 114
9, 661440, Note_on_c, 7, 70, 0
9, 661440, Note_on_c, 7, 74, 126
9, 661557, Note_on_c, 7, 74, 0
9, 661668, Note_on_c, 7, 65, 83
9, 661786, Note_on_c, 7, 65, 0
9, 661894, Note_on_c, 7, 67, 115
9, 661954, Note_on_c, 7, 67, 0
9, 661954, Note_on_c, 7, 65, 87
9, 662009, Note_on_c, 7, 65, 0
9, 662009, Note_on_c, 7, 64, 100
9, 662069, Note_on_c, 7, 64, 0
9, 662069, Note_on_c, 7, 65, 121
9, 662400, Note_on_c, 7, 65, 0
9, 662400, Note_on_c, 7, 70, 126
9, 662506, Note_on_c, 7, 70, 0
9, 662628, Note_on_c, 7, 62, 73
9, 662746, Note_on_c, 7, 62, 0
9, 662872, Note_on_c, 7, 62, 104
9, 663600, Note_on_c, 7, 62, 0
9, 663600, Note_on_c, 7, 64, 121
9, 663720, Note_on_c, 7, 64, 0
9, 663720, Note_on_c, 7, 65, 119
9, 663840, Note_on_c, 7, 65, 0
9, 663840, Note_on_c, 7, 67, 126
9, 664080, Note_on_c, 7, 67, 0
9, 664080, Note_on_c, 7, 64, 96
9, 664320, Note_on_c, 7, 64, 0
9, 664320, Note_on_c, 7, 65, 116
9, 664800, Note_on_c, 7, 65, 0
9, 664800, Note_on_c, 7, 62, 92
9, 665280, Note_on_c, 7, 62, 0
9, 665280, Note_on_c, 7, 65, 122
9, 665761, Note_on_c, 7, 65, 0
9, 665761, Note_on_c, 7, 67, 126
9, 666240, Note_on_c, 7, 67, 0
9, 666241, Note_on_c, 7, 65, 127
9, 667200, Note_on_c, 7, 65, 0
9, 744957, Note_on_c, 7, 58, 89
9, 745196, Note_on_c, 7, 58, 0
9, 745196, Note_on_c, 7, 60, 108
9, 745256, Note_on_c, 7, 60, 0
9, 745256, Note_on_c, 7, 58, 96
9, 745316, Note_on_c, 7, 58, 0
9, 745316, Note_on_c, 7, 57, 93
9, 745436, Note_on_c, 7, 57, 0
9, 745436, Note_on_c, 7, 58, 108
9, 745677, Note_on_c, 7, 58, 0
9, 745677, Note_on_c, 7, 62, 118
9, 745796, Note_on_c, 7, 62, 0
9, 745917, Note_on_c, 7, 53, 80
9, 746157, Note_on_c, 7, 53, 0
9, 746157, Note_on_c, 7, 53, 93
9, 746400, Note_on_c, 7, 53, 0
9, 746400, Note_on_c, 7, 53, 93
9, 746640, Note_on_c, 7, 53, 0
9, 746640, Note_on_c, 7, 55, 111
9, 746760, Note_on_c, 7, 55, 0
9, 746760, Note_on_c, 7, 57, 102
9, 746880, Note_on_c, 7, 57, 0
9, 746880, Note_on_c, 7, 58, 101
9, 747117, Note_on_c, 7, 58, 0
9, 747117, Note_on_c, 7, 58, 97
9, 747357, Note_on_c, 7, 58, 0
9, 747357, Note_on_c, 7, 58, 93
9, 747477, Note_on_c, 7, 58, 0
9, 747477, Note_on_c, 7, 60, 109
9, 747600, Note_on_c, 7, 60, 0
9, 747600, Note_on_c, 7, 62, 119
9, 747720, Note_on_c, 7, 62, 0
9, 747720, Note_on_c, 7, 63, 109
9, 747840, Note_on_c, 7, 63, 0
9, 747840, Note_on_c, 7, 65, 110
9, 748082, Note_on_c, 7, 65, 0
9, 748082, Note_on_c, 7, 65, 102
9, 748329, Note_on_c, 7, 65, 0
9, 748329, Note_on_c, 7, 65, 103
9, 748572, Note_on_c, 7, 65, 0
9, 748572, Note_on_c, 7, 67, 110
9, 748696, Note_on_c, 7, 67, 0
9, 748696, Note_on_c, 7, 69, 113
9, 748800, Note_on_c, 7, 69, 0
9, 748810, Note_on_c, 7, 70, 111
9, 749049, Note_on_c, 7, 70, 0
9, 749049, Note_on_c, 7, 70, 98
9, 749285, Note_on_c, 7, 70, 0
9, 749285, Note_on_c, 7, 70, 102
9, 749526, Note_on_c, 7, 70, 0
9, 749526, Note_on_c, 7, 69, 87
9, 749646, Note_on_c, 7, 69, 0
9, 749646, Note_on_c, 7, 67, 78
9, 749769, Note_on_c, 7, 67, 0
9, 749769, Note_on_c, 7, 65, 85
9, 750241, Note_on_c, 7, 65, 0
9, 750709, Note_on_c, 7, 57, 49
9, 751676, Note_on_c, 7, 57, 0
9, 751676, Note_on_c, 7, 55, 54
9, 753601, Note_on_c, 7, 55, 0
9, 753601, Note_on_c, 7, 53, 57
9, 755041, Note_on_c, 7, 53, 0
9, 755041, Note_on_c, 7, 55, 61
9, 755520, Note_on_c, 7, 55, 0
9, 755520, Note_on_c, 7, 53, 64
9, 756000, Note_on_c, 7, 53, 0
9, 756000, Note_on_c, 7, 53, 58
9, 756480, Note_on_c, 7, 53, 0
9, 756480, Note_on_c, 7, 62, 88
9, 758400, Note_on_c, 7, 62, 0
9, 758400, Note_on_c, 7, 58, 60
9, 760320, Note_on_c, 7, 58, 0
9, 760320, Note_on_c, 7, 62, 75
9, 760560, Note_on_c, 7, 62, 0
9, 760800, Note_on_c, 7, 58, 53
9, 761040, Note_on_c, 7, 58, 0
9, 761280, Note_on_c, 7, 60, 50
9, 761520, Note_on_c, 7, 60, 0
9, 761760, Note_on_c, 7, 57, 65
9, 762000, Note_on_c, 7, 57, 0
9, 762240, Note_on_c, 7, 58, 43
9, 764160, Note_on_c, 7, 58, 0
9, 764160, Note_on_c, 7, 70, 71
9, 766080, Note_on_c, 7, 70, 0
9, 766080, Note_on_c, 7, 62, 40
9, 766080, Note_on_c, 7, 65, 40
9, 766320, Note_on_c, 7, 65, 0
9, 766320, Note_on_c, 7, 62, 0
9, 766560, Note_on_c, 7, 58, 47
9, 766560, Note_on_c, 7, 62, 47
9, 766800, Note_on_c, 7, 62, 0
9, 766800, Note_on_c, 7, 58, 0
9, 767040, Note_on_c, 7, 60, 48
9, 767040, Note_on_c, 7, 63, 48
9, 767280, Note_on_c, 7, 63, 0
9, 767280, Note_on_c, 7, 60, 0
9, 767520, Note_on_c, 7, 57, 42
9, 767520, Note_on_c, 7, 60, 42
9, 767760, Note_on_c, 7, 60, 0
9, 767760, Note_on_c, 7, 57, 0
9, 767969, Note_on_c, 7, 58, 91
9, 768466, Note_on_c, 7, 58, 0
9, 769210, Note_on_c, 7, 67, 85
9, 769450, Note_on_c, 7, 67, 0
9, 769450, Note_on_c, 7, 65, 89
9, 769690, Note_on_c, 7, 65, 0
9, 769690, Note_on_c, 7, 63, 79
9, 769920, Note_on_c, 7, 63, 0
9, 769929, Note_on_c, 7, 62, 95
9, 770402, Note_on_c, 7, 62, 0
9, 771122, Note_on_c, 7, 67, 90
9, 771362, Note_on_c, 7, 67, 0
9, 771362, Note_on_c, 7, 65, 85
9, 771601, Note_on_c, 7, 65, 0
9, 771601, Note_on_c, 7, 63, 79
9, 771840, Note_on_c, 7, 63, 0
9, 771841, Note_on_c, 7, 62, 82
9, 772080, Note_on_c, 7, 62, 0
9, 772320, Note_on_c, 7, 70, 126
9, 772557, Note_on_c, 7, 70, 0
9, 772800, Note_on_c, 7, 58, 76
9, 773037, Note_on_c, 7, 58, 0
9, 773280, Note_on_c, 7, 58, 95
9, 773517, Note_on_c, 7, 58, 0
9, 773760, Note_on_c, 7, 58, 111
9, 774602, Note_on_c, 7, 58, 0
9, 774602, End_track
10, 0, Start_track
10, 0, Title_t, "Violoncellos"
10, 0, Program_c, 8, 48
10, 0, Control_c, 8, 7, 74
10, 0, Control_c, 8, 10, 96
10, 0, Program_c, 8, 48
10, 0, Control_c, 8, 7, 74
10, 0, Control_c, 8, 121, 0
10, 0, Control_c, 8, 91, 91
10, 0, Note_on_c, 8, 58, 52
10, 480, Note_on_c, 8, 58, 0
10, 1440, Note_on_c, 8, 58, 52
10, 1920, Note_on_c, 8, 58, 0
10, 1920, Note_on_c, 8, 53, 57
10, 2400, Note_on_c, 8, 53, 0
10, 2400, Note_on_c, 8, 46, 53
10, 2880, Note_on_c, 8, 46, 0
10, 3840, Note_on_c, 8, 53, 50
10, 4320, Note_on_c, 8, 53, 0
10, 5280, Note_on_c, 8, 53, 53
10, 5760, Note_on_c, 8, 53, 0
10, 5760, Note_on_c, 8, 58, 63
10, 6240, Note_on_c, 8, 58, 0
10, 6240, Note_on_c, 8, 53, 50
10, 6720, Note_on_c, 8, 53, 0
10, 7680, Note_on_c, 8, 46, 55
10, 8160, Note_on_c, 8, 46, 0
10, 8640, Note_on_c, 8, 48, 50
10, 9120, Note_on_c, 8, 48, 0
10, 9605, Note_on_c, 8, 50, 87
10, 10085, Note_on_c, 8, 50, 0
10, 11516, Note_on_c, 8, 51, 60
10, 12949, Note_on_c, 8, 51, 0
10, 12949, Note_on_c, 8, 52, 61
10, 13440, Note_on_c, 8, 52, 0
10, 13440, Note_on_c, 8, 53, 57
10, 13913, Note_on_c, 8, 53, 0
10, 23040, Note_on_c, 8, 46, 50
10, 23520, Note_on_c, 8, 46, 0
10, 24000, Note_on_c, 8, 48, 58
10, 24480, Note_on_c, 8, 48, 0
10, 24960, Note_on_c, 8, 50, 52
10, 25440, Note_on_c, 8, 50, 0
10, 25920, Note_on_c, 8, 51, 55
10, 26421, Note_on_c, 8, 51, 0
10, 27132, Note_on_c, 8, 53, 55
10, 27372, Note_on_c, 8, 53, 0
10, 27372, Note_on_c, 8, 53, 50
10, 27609, Note_on_c, 8, 53, 0
10, 27609, Note_on_c, 8, 53, 69
10, 27845, Note_on_c, 8, 53, 0
10, 27845, Note_on_c, 8, 53, 61
10, 28081, Note_on_c, 8, 53, 0
10, 28081, Note_on_c, 8, 53, 67
10, 28321, Note_on_c, 8, 53, 0
10, 28321, Note_on_c, 8, 53, 56
10, 28560, Note_on_c, 8, 53, 0
10, 28560, Note_on_c, 8, 53, 60
10, 28800, Note_on_c, 8, 53, 0
10, 28800, Note_on_c, 8, 58, 71
10, 29280, Note_on_c, 8, 58, 0
10, 29761, Note_on_c, 8, 51, 58
10, 30236, Note_on_c, 8, 51, 0
10, 30956, Note_on_c, 8, 53, 53
10, 31196, Note_on_c, 8, 53, 0
10, 31196, Note_on_c, 8, 53, 60
10, 31440, Note_on_c, 8, 53, 0
10, 31440, Note_on_c, 8, 53, 63
10, 31680, Note_on_c, 8, 53, 0
10, 31680, Note_on_c, 8, 53, 59
10, 31920, Note_on_c, 8, 53, 0
10, 31920, Note_on_c, 8, 53, 58
10, 32160, Note_on_c, 8, 53, 0
10, 32160, Note_on_c, 8, 53, 55
10, 32400, Note_on_c, 8, 53, 0
10, 32400, Note_on_c, 8, 53, 54
10, 32640, Note_on_c, 8, 53, 0
10, 32640, Note_on_c, 8, 58, 108
10, 32757, Note_on_c, 8, 58, 0
10, 32880, Note_on_c, 8, 53, 94
10, 32997, Note_on_c, 8, 53, 0
10, 33120, Note_on_c, 8, 58, 101
10, 33237, Note_on_c, 8, 58, 0
10, 33360, Note_on_c, 8, 53, 92
10, 33477, Note_on_c, 8, 53, 0
10, 33600, Note_on_c, 8, 58, 105
10, 33717, Note_on_c, 8, 58, 0
10, 33840, Note_on_c, 8, 53, 87
10, 33957, Note_on_c, 8, 53, 0
10, 34080, Note_on_c, 8, 58, 107
10, 34197, Note_on_c, 8, 58, 0
10, 34320, Note_on_c, 8, 53, 92
10, 34437, Note_on_c, 8, 53, 0
10, 34560, Note_on_c, 8, 60, 107
10, 34677, Note_on_c, 8, 60, 0
10, 34800, Note_on_c, 8, 53, 78
10, 34917, Note_on_c, 8, 53, 0
10, 35040, Note_on_c, 8, 60, 106
10, 35157, Note_on_c, 8, 60, 0
10, 35280, Note_on_c, 8, 53, 80
10, 35397, Note_on_c, 8, 53, 0
10, 35520, Note_on_c, 8, 60, 112
10, 35637, Note_on_c, 8, 60, 0
10, 35760, Note_on_c, 8, 53, 77
10, 35877, Note_on_c, 8, 53, 0
10, 36000, Note_on_c, 8, 58, 105
10, 36117, Note_on_c, 8, 58, 0
10, 36240, Note_on_c, 8, 53, 83
10, 36357, Note_on_c, 8, 53, 0
10, 36480, Note_on_c, 8, 57, 109
10, 36597, Note_on_c, 8, 57, 0
10, 36720, Note_on_c, 8, 53, 87
10, 36837, Note_on_c, 8, 53, 0
10, 36960, Note_on_c, 8, 57, 99
10, 37077, Note_on_c, 8, 57, 0
10, 37200, Note_on_c, 8, 53, 93
10, 37317, Note_on_c, 8, 53, 0
10, 37440, Note_on_c, 8, 57, 107
10, 37557, Note_on_c, 8, 57, 0
10, 37680, Note_on_c, 8, 53, 87
10, 37797, Note_on_c, 8, 53, 0
10, 37920, Note_on_c, 8, 57, 110
10, 38037, Note_on_c, 8, 57, 0
10, 38160, Note_on_c, 8, 53, 89
10, 38277, Note_on_c, 8, 53, 0
10, 38400, Note_on_c, 8, 58, 106
10, 38517, Note_on_c, 8, 58, 0
10, 38640, Note_on_c, 8, 53, 92
10, 38757, Note_on_c, 8, 53, 0
10, 38880, Note_on_c, 8, 58, 110
10, 38997, Note_on_c, 8, 58, 0
10, 39120, Note_on_c, 8, 53, 90
10, 39237, Note_on_c, 8, 53, 0
10, 39360, Note_on_c, 8, 58, 101
10, 39477, Note_on_c, 8, 58, 0
10, 39600, Note_on_c, 8, 53, 88
10, 39717, Note_on_c, 8, 53, 0
10, 39840, Note_on_c, 8, 58, 110
10, 39957, Note_on_c, 8, 58, 0
10, 40080, Note_on_c, 8, 53, 80
10, 40197, Note_on_c, 8, 53, 0
10, 40320, Note_on_c, 8, 60, 112
10, 40437, Note_on_c, 8, 60, 0
10, 40560, Note_on_c, 8, 53, 89
10, 40677, Note_on_c, 8, 53, 0
10, 40800, Note_on_c, 8, 60, 111
10, 40917, Note_on_c, 8, 60, 0
10, 41040, Note_on_c, 8, 53, 83
10, 41157, Note_on_c, 8, 53, 0
10, 41280, Note_on_c, 8, 60, 110
10, 41397, Note_on_c, 8, 60, 0
10, 41520, Note_on_c, 8, 53, 77
10, 41637, Note_on_c, 8, 53, 0
10, 41760, Note_on_c, 8, 58, 99
10, 41877, Note_on_c, 8, 58, 0
10, 42000, Note_on_c, 8, 53, 88
10, 42117, Note_on_c, 8, 53, 0
10, 42240, Note_on_c, 8, 57, 106
10, 42357, Note_on_c, 8, 57, 0
10, 42480, Note_on_c, 8, 53, 89
10, 42597, Note_on_c, 8, 53, 0
10, 42720, Note_on_c, 8, 57, 99
10, 42837, Note_on_c, 8, 57, 0
10, 42960, Note_on_c, 8, 53, 90
10, 43077, Note_on_c, 8, 53, 0
10, 43200, Note_on_c, 8, 57, 110
10, 43317, Note_on_c, 8, 57, 0
10, 43440, Note_on_c, 8, 53, 94
10, 43557, Note_on_c, 8, 53, 0
10, 43680, Note_on_c, 8, 57, 104
10, 43797, Note_on_c, 8, 57, 0
10, 43920, Note_on_c, 8, 53, 88
10, 44037, Note_on_c, 8, 53, 0
10, 44160, Note_on_c, 8, 58, 111
10, 44640, Note_on_c, 8, 58, 0
10, 46080, Note_on_c, 8, 65, 83
10, 46197, Note_on_c, 8, 65, 0
10, 46320, Note_on_c, 8, 58, 76
10, 46437, Note_on_c, 8, 58, 0
10, 46560, Note_on_c, 8, 58, 89
10, 47040, Note_on_c, 8, 58, 0
10, 47040, Note_on_c, 8, 62, 106
10, 47157, Note_on_c, 8, 62, 0
10, 47268, Note_on_c, 8, 53, 78
10, 47386, Note_on_c, 8, 53, 0
10, 47494, Note_on_c, 8, 53, 94
10, 48000, Note_on_c, 8, 53, 0
10, 48000, Note_on_c, 8, 58, 104
10, 48106, Note_on_c, 8, 58, 0
10, 48228, Note_on_c, 8, 50, 80
10, 48346, Note_on_c, 8, 50, 0
10, 48472, Note_on_c, 8, 50, 100
10, 49200, Note_on_c, 8, 50, 0
10, 49200, Note_on_c, 8, 52, 101
10, 49320, Note_on_c, 8, 52, 0
10, 49320, Note_on_c, 8, 53, 98
10, 49440, Note_on_c, 8, 53, 0
10, 49440, Note_on_c, 8, 55, 111
10, 49680, Note_on_c, 8, 55, 0
10, 49680, Note_on_c, 8, 52, 89
10, 49920, Note_on_c, 8, 52, 0
10, 49920, Note_on_c, 8, 53, 99
10, 50157, Note_on_c, 8, 53, 0
10, 50400, Note_on_c, 8, 41, 69
10, 50637, Note_on_c, 8, 41, 0
10, 51841, Note_on_c, 8, 54, 43
10, 53760, Note_on_c, 8, 54, 0
10, 53760, Note_on_c, 8, 53, 51
10, 55576, Note_on_c, 8, 53, 0
10, 55680, Note_on_c, 8, 54, 52
10, 57600, Note_on_c, 8, 54, 0
10, 57618, Note_on_c, 8, 53, 45
10, 59401, Note_on_c, 8, 53, 0
10, 59516, Note_on_c, 8, 54, 58
10, 61440, Note_on_c, 8, 54, 0
10, 61440, Note_on_c, 8, 56, 58
10, 62400, Note_on_c, 8, 56, 0
10, 62400, Note_on_c, 8, 58, 48
10, 63360, Note_on_c, 8, 58, 0
10, 63360, Note_on_c, 8, 59, 49
10, 64320, Note_on_c, 8, 59, 0
10, 64320, Note_on_c, 8, 57, 46
10, 65176, Note_on_c, 8, 57, 0
10, 65280, Note_on_c, 8, 58, 51
10, 66240, Note_on_c, 8, 58, 0
10, 66240, Note_on_c, 8, 54, 50
10, 67200, Note_on_c, 8, 54, 0
10, 67200, Note_on_c, 8, 51, 49
10, 68160, Note_on_c, 8, 51, 0
10, 68160, Note_on_c, 8, 53, 56
10, 69016, Note_on_c, 8, 53, 0
10, 69120, Note_on_c, 8, 54, 52
10, 69600, Note_on_c, 8, 54, 0
10, 70080, Note_on_c, 8, 49, 44
10, 70560, Note_on_c, 8, 49, 0
10, 71040, Note_on_c, 8, 51, 44
10, 71520, Note_on_c, 8, 51, 0
10, 72000, Note_on_c, 8, 53, 45
10, 72480, Note_on_c, 8, 53, 0
10, 72960, Note_on_c, 8, 46, 35
10, 88812, Note_on_c, 8, 46, 0
10, 89286, Note_on_c, 8, 53, 59
10, 89761, Note_on_c, 8, 53, 0
10, 90240, Note_on_c, 8, 46, 49
10, 90720, Note_on_c, 8, 46, 0
10, 91200, Note_on_c, 8, 53, 46
10, 91680, Note_on_c, 8, 53, 0
10, 92160, Note_on_c, 8, 46, 56
10, 92640, Note_on_c, 8, 46, 0
10, 93113, Note_on_c, 8, 53, 58
10, 93596, Note_on_c, 8, 53, 0
10, 94081, Note_on_c, 8, 46, 58
10, 94561, Note_on_c, 8, 46, 0
10, 95036, Note_on_c, 8, 53, 51
10, 95516, Note_on_c, 8, 53, 0
10, 96002, Note_on_c, 8, 58, 84
10, 96242, Note_on_c, 8, 58, 0
10, 96242, Note_on_c, 8, 58, 94
10, 96482, Note_on_c, 8, 58, 0
10, 96482, Note_on_c, 8, 58, 94
10, 96720, Note_on_c, 8, 58, 0
10, 96720, Note_on_c, 8, 62, 109
10, 96960, Note_on_c, 8, 62, 0
10, 96960, Note_on_c, 8, 53, 75
10, 97200, Note_on_c, 8, 53, 0
10, 97200, Note_on_c, 8, 53, 90
10, 97440, Note_on_c, 8, 53, 0
10, 97440, Note_on_c, 8, 53, 92
10, 97680, Note_on_c, 8, 53, 0
10, 97680, Note_on_c, 8, 55, 98
10, 97800, Note_on_c, 8, 55, 0
10, 97800, Note_on_c, 8, 57, 105
10, 97920, Note_on_c, 8, 57, 0
10, 97920, Note_on_c, 8, 58, 106
10, 98157, Note_on_c, 8, 58, 0
10, 98157, Note_on_c, 8, 46, 78
10, 98397, Note_on_c, 8, 46, 0
10, 98397, Note_on_c, 8, 46, 92
10, 98517, Note_on_c, 8, 46, 0
10, 98517, Note_on_c, 8, 48, 103
10, 98640, Note_on_c, 8, 48, 0
10, 98640, Note_on_c, 8, 50, 98
10, 98760, Note_on_c, 8, 50, 0
10, 98760, Note_on_c, 8, 51, 104
10, 98880, Note_on_c, 8, 51, 0
10, 98880, Note_on_c, 8, 53, 109
10, 99122, Note_on_c, 8, 53, 0
10, 99122, Note_on_c, 8, 53, 98
10, 99369, Note_on_c, 8, 53, 0
10, 99369, Note_on_c, 8, 53, 101
10, 99614, Note_on_c, 8, 53, 0
10, 99614, Note_on_c, 8, 55, 99
10, 99738, Note_on_c, 8, 55, 0
10, 99738, Note_on_c, 8, 57, 104
10, 99840, Note_on_c, 8, 57, 0
10, 99850, Note_on_c, 8, 58, 102
10, 100089, Note_on_c, 8, 58, 0
10, 100089, Note_on_c, 8, 58, 99
10, 100326, Note_on_c, 8, 58, 0
10, 100326, Note_on_c, 8, 58, 94
10, 100569, Note_on_c, 8, 58, 0
10, 100569, Note_on_c, 8, 57, 94
10, 100689, Note_on_c, 8, 57, 0
10, 100689, Note_on_c, 8, 55, 90
10, 100809, Note_on_c, 8, 55, 0
10, 100809, Note_on_c, 8, 53, 95
10, 101281, Note_on_c, 8, 53, 0
10, 102717, Note_on_c, 8, 55, 59
10, 103680, Note_on_c, 8, 55, 0
10, 103680, Note_on_c, 8, 51, 54
10, 104640, Note_on_c, 8, 51, 0
10, 104640, Note_on_c, 8, 53, 65
10, 105496, Note_on_c, 8, 53, 0
10, 105600, Note_on_c, 8, 58, 69
10, 106080, Note_on_c, 8, 58, 0
10, 106080, Note_on_c, 8, 51, 50
10, 106560, Note_on_c, 8, 51, 0
10, 106560, Note_on_c, 8, 53, 68
10, 107040, Note_on_c, 8, 53, 0
10, 107040, Note_on_c, 8, 53, 61
10, 107520, Note_on_c, 8, 53, 0
10, 107520, Note_on_c, 8, 46, 50
10, 108000, Note_on_c, 8, 46, 0
10, 109429, Note_on_c, 8, 50, 53
10, 110396, Note_on_c, 8, 50, 0
10, 110396, Note_on_c, 8, 55, 71
10, 111360, Note_on_c, 8, 55, 0
10, 111360, Note_on_c, 8, 48, 53
10, 112321, Note_on_c, 8, 48, 0
10, 112321, Note_on_c, 8, 53, 63
10, 113280, Note_on_c, 8, 53, 0
10, 113281, Note_on_c, 8, 46, 54
10, 113761, Note_on_c, 8, 46, 0
10, 113761, Note_on_c, 8, 51, 66
10, 114240, Note_on_c, 8, 51, 0
10, 114240, Note_on_c, 8, 53, 63
10, 114720, Note_on_c, 8, 53, 0
10, 114720, Note_on_c, 8, 41, 39
10, 115200, Note_on_c, 8, 41, 0
10, 120960, Note_on_c, 8, 50, 45
10, 122880, Note_on_c, 8, 50, 0
10, 122880, Note_on_c, 8, 46, 48
10, 124800, Note_on_c, 8, 46, 0
10, 124800, Note_on_c, 8, 53, 59
10, 125280, Note_on_c, 8, 53, 0
10, 126689, Note_on_c, 8, 46, 83
10, 127186, Note_on_c, 8, 46, 0
10, 127930, Note_on_c, 8, 51, 89
10, 128170, Note_on_c, 8, 51, 0
10, 128170, Note_on_c, 8, 50, 93
10, 128410, Note_on_c, 8, 50, 0
10, 128410, Note_on_c, 8, 48, 88
10, 128640, Note_on_c, 8, 48, 0
10, 128649, Note_on_c, 8, 46, 89
10, 129122, Note_on_c, 8, 46, 0
10, 129842, Note_on_c, 8, 51, 88
10, 130082, Note_on_c, 8, 51, 0
10, 130082, Note_on_c, 8, 50, 93
10, 130321, Note_on_c, 8, 50, 0
10, 130321, Note_on_c, 8, 48, 94
10, 130560, Note_on_c, 8, 48, 0
10, 130561, Note_on_c, 8, 46, 94
10, 130800, Note_on_c, 8, 46, 0
10, 131040, Note_on_c, 8, 58, 124
10, 131277, Note_on_c, 8, 58, 0
10, 131520, Note_on_c, 8, 46, 91
10, 131941, Note_on_c, 8, 46, 0
10, 147846, Note_on_c, 8, 58, 50
10, 148325, Note_on_c, 8, 58, 0
10, 149280, Note_on_c, 8, 58, 58
10, 149760, Note_on_c, 8, 58, 0
10, 149760, Note_on_c, 8, 53, 51
10, 149992, Note_on_c, 8, 53, 0
10, 150240, Note_on_c, 8, 46, 48
10, 150477, Note_on_c, 8, 46, 0
10, 151676, Note_on_c, 8, 53, 54
10, 152156, Note_on_c, 8, 53, 0
10, 153120, Note_on_c, 8, 53, 59
10, 153600, Note_on_c, 8, 53, 0
10, 153600, Note_on_c, 8, 58, 69
10, 153832, Note_on_c, 8, 58, 0
10, 154080, Note_on_c, 8, 53, 52
10, 154317, Note_on_c, 8, 53, 0
10, 161292, Note_on_c, 8, 58, 47
10, 162245, Note_on_c, 8, 58, 0
10, 162245, Note_on_c, 8, 51, 34
10, 163200, Note_on_c, 8, 51, 0
10, 163200, Note_on_c, 8, 53, 50
10, 165016, Note_on_c, 8, 53, 0
10, 165120, Note_on_c, 8, 58, 110
10, 165360, Note_on_c, 8, 58, 0
10, 165360, Note_on_c, 8, 53, 88
10, 165600, Note_on_c, 8, 53, 0
10, 165600, Note_on_c, 8, 58, 112
10, 165840, Note_on_c, 8, 58, 0
10, 165840, Note_on_c, 8, 53, 83
10, 166080, Note_on_c, 8, 53, 0
10, 166080, Note_on_c, 8, 58, 101
10, 166320, Note_on_c, 8, 58, 0
10, 166320, Note_on_c, 8, 53, 73
10, 166560, Note_on_c, 8, 53, 0
10, 166560, Note_on_c, 8, 58, 109
10, 166800, Note_on_c, 8, 58, 0
10, 166800, Note_on_c, 8, 53, 92
10, 167040, Note_on_c, 8, 53, 0
10, 167040, Note_on_c, 8, 60, 114
10, 167280, Note_on_c, 8, 60, 0
10, 167280, Note_on_c, 8, 53, 88
10, 167520, Note_on_c, 8, 53, 0
10, 167520, Note_on_c, 8, 60, 109
10, 167760, Note_on_c, 8, 60, 0
10, 167760, Note_on_c, 8, 53, 83
10, 168000, Note_on_c, 8, 53, 0
10, 168000, Note_on_c, 8, 60, 112
10, 168240, Note_on_c, 8, 60, 0
10, 168240, Note_on_c, 8, 53, 83
10, 168480, Note_on_c, 8, 53, 0
10, 168480, Note_on_c, 8, 58, 112
10, 168720, Note_on_c, 8, 58, 0
10, 168720, Note_on_c, 8, 53, 89
10, 168960, Note_on_c, 8, 53, 0
10, 168960, Note_on_c, 8, 57, 113
10, 169200, Note_on_c, 8, 57, 0
10, 169200, Note_on_c, 8, 53, 90
10, 169440, Note_on_c, 8, 53, 0
10, 169440, Note_on_c, 8, 57, 112
10, 169680, Note_on_c, 8, 57, 0
10, 169680, Note_on_c, 8, 53, 83
10, 169920, Note_on_c, 8, 53, 0
10, 169920, Note_on_c, 8, 57, 67
10, 170160, Note_on_c, 8, 57, 0
10, 170160, Note_on_c, 8, 53, 53
10, 170400, Note_on_c, 8, 53, 0
10, 170400, Note_on_c, 8, 57, 65
10, 170640, Note_on_c, 8, 57, 0
10, 170640, Note_on_c, 8, 53, 57
10, 170880, Note_on_c, 8, 53, 0
10, 170880, Note_on_c, 8, 58, 72
10, 171349, Note_on_c, 8, 58, 0
10, 178077, Note_on_c, 8, 53, 50
10, 178560, Note_on_c, 8, 53, 0
10, 178560, Note_on_c, 8, 46, 54
10, 179040, Note_on_c, 8, 46, 0
10, 179993, Note_on_c, 8, 53, 54
10, 180480, Note_on_c, 8, 53, 0
10, 180480, Note_on_c, 8, 46, 46
10, 180956, Note_on_c, 8, 46, 0
10, 188162, Note_on_c, 8, 53, 93
10, 188641, Note_on_c, 8, 53, 0
10, 189362, Note_on_c, 8, 58, 85
10, 189481, Note_on_c, 8, 58, 0
10, 189602, Note_on_c, 8, 57, 97
10, 189721, Note_on_c, 8, 57, 0
10, 189842, Note_on_c, 8, 55, 87
10, 189961, Note_on_c, 8, 55, 0
10, 190086, Note_on_c, 8, 53, 86
10, 190562, Note_on_c, 8, 53, 0
10, 191280, Note_on_c, 8, 58, 89
10, 191397, Note_on_c, 8, 58, 0
10, 191520, Note_on_c, 8, 57, 85
10, 191637, Note_on_c, 8, 57, 0
10, 191760, Note_on_c, 8, 55, 98
10, 191877, Note_on_c, 8, 55, 0
10, 192000, Note_on_c, 8, 53, 89
10, 192480, Note_on_c, 8, 53, 0
10, 195836, Note_on_c, 8, 48, 54
10, 200165, Note_on_c, 8, 48, 0
10, 203520, Note_on_c, 8, 48, 59
10, 207360, Note_on_c, 8, 48, 0
10, 207370, Note_on_c, 8, 53, 75
10, 207846, Note_on_c, 8, 53, 0
10, 209280, Note_on_c, 8, 46, 50
10, 215040, Note_on_c, 8, 46, 0
10, 215040, Note_on_c, 8, 45, 60
10, 215996, Note_on_c, 8, 45, 0
10, 215996, Note_on_c, 8, 57, 71
10, 216960, Note_on_c, 8, 57, 0
10, 216962, Note_on_c, 8, 55, 56
10, 218880, Note_on_c, 8, 55, 0
10, 218880, Note_on_c, 8, 53, 58
10, 220800, Note_on_c, 8, 53, 0
10, 220800, Note_on_c, 8, 52, 55
10, 222720, Note_on_c, 8, 52, 0
10, 222721, Note_on_c, 8, 49, 54
10, 224640, Note_on_c, 8, 49, 0
10, 224640, Note_on_c, 8, 48, 53
10, 226456, Note_on_c, 8, 48, 0
10, 226560, Note_on_c, 8, 49, 62
10, 228480, Note_on_c, 8, 49, 0
10, 228480, Note_on_c, 8, 48, 64
10, 230296, Note_on_c, 8, 48, 0
10, 230400, Note_on_c, 8, 49, 69
10, 232320, Note_on_c, 8, 49, 0
10, 232320, Note_on_c, 8, 51, 62
10, 233277, Note_on_c, 8, 51, 0
10, 233277, Note_on_c, 8, 53, 64
10, 234136, Note_on_c, 8, 53, 0
10, 234240, Note_on_c, 8, 54, 67
10, 235200, Note_on_c, 8, 54, 0
10, 235200, Note_on_c, 8, 52, 60
10, 236056, Note_on_c, 8, 52, 0
10, 236160, Note_on_c, 8, 53, 71
10, 237120, Note_on_c, 8, 53, 0
10, 237120, Note_on_c, 8, 49, 51
10, 238080, Note_on_c, 8, 49, 0
10, 238080, Note_on_c, 8, 46, 57
10, 239040, Note_on_c, 8, 46, 0
10, 239040, Note_on_c, 8, 48, 64
10, 239896, Note_on_c, 8, 48, 0
10, 240000, Note_on_c, 8, 49, 70
10, 240480, Note_on_c, 8, 49, 0
10, 240960, Note_on_c, 8, 44, 56
10, 241440, Note_on_c, 8, 44, 0
10, 241920, Note_on_c, 8, 46, 57
10, 242402, Note_on_c, 8, 46, 0
10, 242880, Note_on_c, 8, 48, 59
10, 243338, Note_on_c, 8, 48, 0
10, 243829, Note_on_c, 8, 53, 54
10, 259694, Note_on_c, 8, 53, 0
10, 278393, Note_on_c, 8, 45, 55
10, 279356, Note_on_c, 8, 45, 0
10, 279356, Note_on_c, 8, 50, 73
10, 280320, Note_on_c, 8, 50, 0
10, 280325, Note_on_c, 8, 43, 56
10, 281282, Note_on_c, 8, 43, 0
10, 281282, Note_on_c, 8, 48, 70
10, 282240, Note_on_c, 8, 48, 0
10, 282240, Note_on_c, 8, 53, 62
10, 282473, Note_on_c, 8, 53, 0
10, 282716, Note_on_c, 8, 46, 51
10, 282956, Note_on_c, 8, 46, 0
10, 283196, Note_on_c, 8, 48, 58
10, 283436, Note_on_c, 8, 48, 0
10, 283676, Note_on_c, 8, 48, 60
10, 283916, Note_on_c, 8, 48, 0
10, 284157, Note_on_c, 8, 53, 52
10, 284636, Note_on_c, 8, 53, 0
10, 285121, Note_on_c, 8, 48, 48
10, 286080, Note_on_c, 8, 48, 0
10, 286080, Note_on_c, 8, 53, 67
10, 286560, Note_on_c, 8, 53, 0
10, 287040, Note_on_c, 8, 48, 54
10, 288000, Note_on_c, 8, 48, 0
10, 288000, Note_on_c, 8, 53, 60
10, 288477, Note_on_c, 8, 53, 0
10, 288960, Note_on_c, 8, 48, 55
10, 289920, Note_on_c, 8, 48, 0
10, 289920, Note_on_c, 8, 53, 67
10, 290392, Note_on_c, 8, 53, 0
10, 298556, Note_on_c, 8, 48, 54
10, 299520, Note_on_c, 8, 48, 0
10, 299520, Note_on_c, 8, 53, 69
10, 300000, Note_on_c, 8, 53, 0
10, 300480, Note_on_c, 8, 48, 48
10, 301440, Note_on_c, 8, 48, 0
10, 301440, Note_on_c, 8, 53, 66
10, 301920, Note_on_c, 8, 53, 0
10, 302400, Note_on_c, 8, 48, 56
10, 303360, Note_on_c, 8, 48, 0
10, 303360, Note_on_c, 8, 53, 63
10, 303833, Note_on_c, 8, 53, 0
10, 304320, Note_on_c, 8, 53, 49
10, 305280, Note_on_c, 8, 53, 0
10, 305290, Note_on_c, 8, 53, 61
10, 306246, Note_on_c, 8, 53, 0
10, 306246, Note_on_c, 8, 53, 61
10, 306486, Note_on_c, 8, 53, 0
10, 306725, Note_on_c, 8, 53, 56
10, 306965, Note_on_c, 8, 53, 0
10, 307205, Note_on_c, 8, 46, 53
10, 307685, Note_on_c, 8, 46, 0
10, 326397, Note_on_c, 8, 48, 47
10, 328565, Note_on_c, 8, 48, 0
10, 328565, Note_on_c, 8, 48, 69
10, 328805, Note_on_c, 8, 48, 0
10, 328805, Note_on_c, 8, 48, 86
10, 329045, Note_on_c, 8, 48, 0
10, 329045, Note_on_c, 8, 48, 69
10, 329281, Note_on_c, 8, 48, 0
10, 329281, Note_on_c, 8, 48, 83
10, 329521, Note_on_c, 8, 48, 0
10, 329521, Note_on_c, 8, 48, 88
10, 329760, Note_on_c, 8, 48, 0
10, 329760, Note_on_c, 8, 48, 96
10, 330000, Note_on_c, 8, 48, 0
10, 330000, Note_on_c, 8, 48, 98
10, 330240, Note_on_c, 8, 48, 0
10, 330240, Note_on_c, 8, 53, 92
10, 330353, Note_on_c, 8, 53, 0
10, 330480, Note_on_c, 8, 48, 71
10, 330597, Note_on_c, 8, 48, 0
10, 330720, Note_on_c, 8, 53, 92
10, 330837, Note_on_c, 8, 53, 0
10, 330960, Note_on_c, 8, 48, 82
10, 331077, Note_on_c, 8, 48, 0
10, 331200, Note_on_c, 8, 53, 92
10, 331317, Note_on_c, 8, 53, 0
10, 331440, Note_on_c, 8, 48, 67
10, 331557, Note_on_c, 8, 48, 0
10, 331680, Note_on_c, 8, 53, 94
10, 331797, Note_on_c, 8, 53, 0
10, 331920, Note_on_c, 8, 48, 75
10, 332037, Note_on_c, 8, 48, 0
10, 332160, Note_on_c, 8, 55, 97
10, 332277, Note_on_c, 8, 55, 0
10, 332400, Note_on_c, 8, 48, 65
10, 332517, Note_on_c, 8, 48, 0
10, 332640, Note_on_c, 8, 55, 91
10, 332757, Note_on_c, 8, 55, 0
10, 332880, Note_on_c, 8, 48, 76
10, 332997, Note_on_c, 8, 48, 0
10, 333120, Note_on_c, 8, 55, 103
10, 333237, Note_on_c, 8, 55, 0
10, 333360, Note_on_c, 8, 48, 76
10, 333477, Note_on_c, 8, 48, 0
10, 333600, Note_on_c, 8, 53, 87
10, 333717, Note_on_c, 8, 53, 0
10, 333840, Note_on_c, 8, 48, 73
10, 333957, Note_on_c, 8, 48, 0
10, 334080, Note_on_c, 8, 52, 94
10, 334197, Note_on_c, 8, 52, 0
10, 334320, Note_on_c, 8, 48, 75
10, 334437, Note_on_c, 8, 48, 0
10, 334560, Note_on_c, 8, 52, 89
10, 334677, Note_on_c, 8, 52, 0
10, 334800, Note_on_c, 8, 48, 86
10, 334917, Note_on_c, 8, 48, 0
10, 335040, Note_on_c, 8, 55, 98
10, 335157, Note_on_c, 8, 55, 0
10, 335280, Note_on_c, 8, 48, 72
10, 335397, Note_on_c, 8, 48, 0
10, 335520, Note_on_c, 8, 58, 103
10, 335637, Note_on_c, 8, 58, 0
10, 335760, Note_on_c, 8, 48, 62
10, 335877, Note_on_c, 8, 48, 0
10, 336000, Note_on_c, 8, 57, 94
10, 336117, Note_on_c, 8, 57, 0
10, 336240, Note_on_c, 8, 48, 68
10, 336357, Note_on_c, 8, 48, 0
10, 336480, Note_on_c, 8, 57, 95
10, 336597, Note_on_c, 8, 57, 0
10, 336720, Note_on_c, 8, 48, 67
10, 336837, Note_on_c, 8, 48, 0
10, 336960, Note_on_c, 8, 57, 100
10, 337077, Note_on_c, 8, 57, 0
10, 337200, Note_on_c, 8, 48, 66
10, 337317, Note_on_c, 8, 48, 0
10, 337440, Note_on_c, 8, 52, 87
10, 337557, Note_on_c, 8, 52, 0
10, 337680, Note_on_c, 8, 48, 83
10, 337797, Note_on_c, 8, 48, 0
10, 337920, Note_on_c, 8, 53, 90
10, 338037, Note_on_c, 8, 53, 0
10, 338160, Note_on_c, 8, 48, 78
10, 338277, Note_on_c, 8, 48, 0
10, 338400, Note_on_c, 8, 53, 93
10, 338517, Note_on_c, 8, 53, 0
10, 338640, Note_on_c, 8, 48, 79
10, 338757, Note_on_c, 8, 48, 0
10, 338880, Note_on_c, 8, 53, 91
10, 338997, Note_on_c, 8, 53, 0
10, 339120, Note_on_c, 8, 48, 80
10, 339237, Note_on_c, 8, 48, 0
10, 339360, Note_on_c, 8, 53, 91
10, 339477, Note_on_c, 8, 53, 0
10, 339600, Note_on_c, 8, 48, 79
10, 339717, Note_on_c, 8, 48, 0
10, 339840, Note_on_c, 8, 52, 89
10, 339957, Note_on_c, 8, 52, 0
10, 340080, Note_on_c, 8, 48, 71
10, 340197, Note_on_c, 8, 48, 0
10, 340320, Note_on_c, 8, 52, 95
10, 340437, Note_on_c, 8, 52, 0
10, 340560, Note_on_c, 8, 48, 74
10, 340677, Note_on_c, 8, 48, 0
10, 340800, Note_on_c, 8, 52, 88
10, 340917, Note_on_c, 8, 52, 0
10, 341040, Note_on_c, 8, 48, 77
10, 341157, Note_on_c, 8, 48, 0
10, 341280, Note_on_c, 8, 54, 101
10, 341397, Note_on_c, 8, 54, 0
10, 341520, Note_on_c, 8, 48, 76
10, 341637, Note_on_c, 8, 48, 0
10, 341760, Note_on_c, 8, 55, 98
10, 341877, Note_on_c, 8, 55, 0
10, 342000, Note_on_c, 8, 48, 71
10, 342117, Note_on_c, 8, 48, 0
10, 342240, Note_on_c, 8, 55, 102
10, 342357, Note_on_c, 8, 55, 0
10, 342480, Note_on_c, 8, 48, 71
10, 342597, Note_on_c, 8, 48, 0
10, 342720, Note_on_c, 8, 55, 89
10, 342837, Note_on_c, 8, 55, 0
10, 342960, Note_on_c, 8, 48, 74
10, 343077, Note_on_c, 8, 48, 0
10, 343200, Note_on_c, 8, 52, 88
10, 343317, Note_on_c, 8, 52, 0
10, 343440, Note_on_c, 8, 48, 74
10, 343557, Note_on_c, 8, 48, 0
10, 343680, Note_on_c, 8, 53, 89
10, 344160, Note_on_c, 8, 53, 0
10, 345596, Note_on_c, 8, 62, 79
10, 345712, Note_on_c, 8, 62, 0
10, 345840, Note_on_c, 8, 58, 75
10, 345957, Note_on_c, 8, 58, 0
10, 346080, Note_on_c, 8, 58, 88
10, 346560, Note_on_c, 8, 58, 0
10, 346560, Note_on_c, 8, 62, 93
10, 346677, Note_on_c, 8, 62, 0
10, 346789, Note_on_c, 8, 53, 69
10, 346908, Note_on_c, 8, 53, 0
10, 347014, Note_on_c, 8, 53, 81
10, 347520, Note_on_c, 8, 53, 0
10, 347520, Note_on_c, 8, 58, 96
10, 347626, Note_on_c, 8, 58, 0
10, 347748, Note_on_c, 8, 50, 70
10, 347866, Note_on_c, 8, 50, 0
10, 347992, Note_on_c, 8, 50, 82
10, 348109, Note_on_c, 8, 50, 0
10, 348232, Note_on_c, 8, 50, 82
10, 348349, Note_on_c, 8, 50, 0
10, 348476, Note_on_c, 8, 50, 89
10, 348593, Note_on_c, 8, 50, 0
10, 348716, Note_on_c, 8, 50, 89
10, 348833, Note_on_c, 8, 50, 0
10, 348960, Note_on_c, 8, 50, 84
10, 349077, Note_on_c, 8, 50, 0
10, 349200, Note_on_c, 8, 50, 84
10, 349317, Note_on_c, 8, 50, 0
10, 349440, Note_on_c, 8, 50, 82
10, 349677, Note_on_c, 8, 50, 0
10, 349920, Note_on_c, 8, 62, 108
10, 350157, Note_on_c, 8, 62, 0
10, 350400, Note_on_c, 8, 62, 92
10, 350637, Note_on_c, 8, 62, 0
10, 350880, Note_on_c, 8, 62, 90
10, 351117, Note_on_c, 8, 62, 0
10, 351360, Note_on_c, 8, 62, 82
10, 351840, Note_on_c, 8, 62, 0
10, 357120, Note_on_c, 8, 60, 72
10, 359040, Note_on_c, 8, 60, 0
10, 359040, Note_on_c, 8, 48, 62
10, 360960, Note_on_c, 8, 48, 0
10, 360960, Note_on_c, 8, 53, 99
10, 361428, Note_on_c, 8, 53, 0
10, 362169, Note_on_c, 8, 58, 87
10, 362409, Note_on_c, 8, 58, 0
10, 362409, Note_on_c, 8, 57, 88
10, 362649, Note_on_c, 8, 57, 0
10, 362649, Note_on_c, 8, 55, 93
10, 362880, Note_on_c, 8, 55, 0
10, 362886, Note_on_c, 8, 53, 93
10, 363362, Note_on_c, 8, 53, 0
10, 364080, Note_on_c, 8, 58, 86
10, 364320, Note_on_c, 8, 58, 0
10, 364320, Note_on_c, 8, 57, 87
10, 364560, Note_on_c, 8, 57, 0
10, 364560, Note_on_c, 8, 55, 90
10, 364800, Note_on_c, 8, 55, 0
10, 364800, Note_on_c, 8, 53, 85
10, 365037, Note_on_c, 8, 53, 0
10, 365280, Note_on_c, 8, 53, 94
10, 365517, Note_on_c, 8, 53, 0
10, 365760, Note_on_c, 8, 41, 71
10, 366240, Note_on_c, 8, 41, 0
10, 376320, Note_on_c, 8, 53, 41
10, 377280, Note_on_c, 8, 53, 0
10, 377280, Note_on_c, 8, 50, 53
10, 378136, Note_on_c, 8, 50, 0
10, 378240, Note_on_c, 8, 46, 40
10, 379096, Note_on_c, 8, 46, 0
10, 379200, Note_on_c, 8, 48, 46
10, 380041, Note_on_c, 8, 48, 0
10, 380152, Note_on_c, 8, 45, 47
10, 381117, Note_on_c, 8, 45, 0
10, 381117, Note_on_c, 8, 46, 48
10, 381966, Note_on_c, 8, 46, 0
10, 382076, Note_on_c, 8, 43, 49
10, 383040, Note_on_c, 8, 43, 0
10, 383040, Note_on_c, 8, 45, 58
10, 384000, Note_on_c, 8, 45, 0
10, 384000, Note_on_c, 8, 50, 60
10, 384232, Note_on_c, 8, 50, 0
10, 403206, Note_on_c, 8, 63, 54
10, 404162, Note_on_c, 8, 63, 0
10, 404162, Note_on_c, 8, 62, 56
10, 405016, Note_on_c, 8, 62, 0
10, 405120, Note_on_c, 8, 63, 64
10, 405600, Note_on_c, 8, 63, 0
10, 407046, Note_on_c, 8, 62, 59
10, 408002, Note_on_c, 8, 62, 0
10, 408002, Note_on_c, 8, 63, 64
10, 408860, Note_on_c, 8, 63, 0
10, 408962, Note_on_c, 8, 62, 53
10, 409440, Note_on_c, 8, 62, 0
10, 410889, Note_on_c, 8, 54, 50
10, 411842, Note_on_c, 8, 54, 0
10, 411842, Note_on_c, 8, 53, 46
10, 412800, Note_on_c, 8, 53, 0
10, 412800, Note_on_c, 8, 51, 49
10, 413760, Note_on_c, 8, 51, 0
10, 413760, Note_on_c, 8, 53, 53
10, 414616, Note_on_c, 8, 53, 0
10, 414720, Note_on_c, 8, 54, 51
10, 415680, Note_on_c, 8, 54, 0
10, 415680, Note_on_c, 8, 53, 50
10, 416640, Note_on_c, 8, 53, 0
10, 416640, Note_on_c, 8, 52, 51
10, 417600, Note_on_c, 8, 52, 0
10, 417600, Note_on_c, 8, 53, 51
10, 418560, Note_on_c, 8, 53, 0
10, 418560, Note_on_c, 8, 54, 52
10, 419520, Note_on_c, 8, 54, 0
10, 419520, Note_on_c, 8, 50, 46
10, 420480, Note_on_c, 8, 50, 0
10, 420480, Note_on_c, 8, 51, 50
10, 421440, Note_on_c, 8, 51, 0
10, 421440, Note_on_c, 8, 53, 57
10, 422400, Note_on_c, 8, 53, 0
10, 422400, Note_on_c, 8, 54, 48
10, 424320, Note_on_c, 8, 54, 0
10, 424320, Note_on_c, 8, 53, 54
10, 424789, Note_on_c, 8, 53, 0
10, 426250, Note_on_c, 8, 53, 51
10, 428637, Note_on_c, 8, 53, 0
10, 430082, Note_on_c, 8, 53, 56
10, 432480, Note_on_c, 8, 53, 0
10, 443513, Note_on_c, 8, 58, 53
10, 443993, Note_on_c, 8, 58, 0
10, 444960, Note_on_c, 8, 58, 58
10, 445440, Note_on_c, 8, 58, 0
10, 445440, Note_on_c, 8, 53, 47
10, 445920, Note_on_c, 8, 53, 0
10, 445920, Note_on_c, 8, 46, 49
10, 446400, Note_on_c, 8, 46, 0
10, 447360, Note_on_c, 8, 53, 49
10, 447840, Note_on_c, 8, 53, 0
10, 448800, Note_on_c, 8, 53, 49
10, 449280, Note_on_c, 8, 53, 0
10, 449280, Note_on_c, 8, 58, 73
10, 449760, Note_on_c, 8, 58, 0
10, 449760, Note_on_c, 8, 53, 50
10, 450240, Note_on_c, 8, 53, 0
10, 451200, Note_on_c, 8, 46, 53
10, 451680, Note_on_c, 8, 46, 0
10, 452160, Note_on_c, 8, 48, 56
10, 452640, Note_on_c, 8, 48, 0
10, 453120, Note_on_c, 8, 50, 78
10, 453600, Note_on_c, 8, 50, 0
10, 455036, Note_on_c, 8, 51, 63
10, 456468, Note_on_c, 8, 51, 0
10, 456468, Note_on_c, 8, 52, 64
10, 456850, Note_on_c, 8, 52, 0
10, 456953, Note_on_c, 8, 53, 62
10, 457432, Note_on_c, 8, 53, 0
10, 472320, Note_on_c, 8, 58, 52
10, 473280, Note_on_c, 8, 58, 0
10, 473280, Note_on_c, 8, 51, 47
10, 474240, Note_on_c, 8, 51, 0
10, 474240, Note_on_c, 8, 53, 63
10, 476160, Note_on_c, 8, 53, 0
10, 476160, Note_on_c, 8, 58, 110
10, 476273, Note_on_c, 8, 58, 0
10, 476400, Note_on_c, 8, 53, 90
10, 476517, Note_on_c, 8, 53, 0
10, 476640, Note_on_c, 8, 58, 101
10, 476757, Note_on_c, 8, 58, 0
10, 476880, Note_on_c, 8, 53, 91
10, 476997, Note_on_c, 8, 53, 0
10, 477120, Note_on_c, 8, 58, 112
10, 477237, Note_on_c, 8, 58, 0
10, 477360, Note_on_c, 8, 53, 95
10, 477477, Note_on_c, 8, 53, 0
10, 477600, Note_on_c, 8, 58, 112
10, 477717, Note_on_c, 8, 58, 0
10, 477840, Note_on_c, 8, 53, 93
10, 477957, Note_on_c, 8, 53, 0
10, 478080, Note_on_c, 8, 60, 114
10, 478197, Note_on_c, 8, 60, 0
10, 478320, Note_on_c, 8, 53, 82
10, 478437, Note_on_c, 8, 53, 0
10, 478560, Note_on_c, 8, 60, 114
10, 478677, Note_on_c, 8, 60, 0
10, 478800, Note_on_c, 8, 53, 81
10, 478917, Note_on_c, 8, 53, 0
10, 479040, Note_on_c, 8, 60, 110
10, 479157, Note_on_c, 8, 60, 0
10, 479280, Note_on_c, 8, 53, 83
10, 479397, Note_on_c, 8, 53, 0
10, 479520, Note_on_c, 8, 58, 107
10, 479637, Note_on_c, 8, 58, 0
10, 479760, Note_on_c, 8, 53, 92
10, 479877, Note_on_c, 8, 53, 0
10, 480000, Note_on_c, 8, 57, 102
10, 480117, Note_on_c, 8, 57, 0
10, 480240, Note_on_c, 8, 53, 88
10, 480357, Note_on_c, 8, 53, 0
10, 480480, Note_on_c, 8, 57, 102
10, 480597, Note_on_c, 8, 57, 0
10, 480720, Note_on_c, 8, 53, 86
10, 480837, Note_on_c, 8, 53, 0
10, 480960, Note_on_c, 8, 57, 109
10, 481077, Note_on_c, 8, 57, 0
10, 481200, Note_on_c, 8, 53, 90
10, 481317, Note_on_c, 8, 53, 0
10, 481440, Note_on_c, 8, 57, 108
10, 481557, Note_on_c, 8, 57, 0
10, 481680, Note_on_c, 8, 53, 86
10, 481797, Note_on_c, 8, 53, 0
10, 481920, Note_on_c, 8, 58, 108
10, 482037, Note_on_c, 8, 58, 0
10, 482160, Note_on_c, 8, 53, 90
10, 482277, Note_on_c, 8, 53, 0
10, 482400, Note_on_c, 8, 58, 96
10, 482517, Note_on_c, 8, 58, 0
10, 482640, Note_on_c, 8, 53, 86
10, 482757, Note_on_c, 8, 53, 0
10, 482880, Note_on_c, 8, 58, 111
10, 482997, Note_on_c, 8, 58, 0
10, 483120, Note_on_c, 8, 53, 88
10, 483237, Note_on_c, 8, 53, 0
10, 483360, Note_on_c, 8, 58, 108
10, 483477, Note_on_c, 8, 58, 0
10, 483600, Note_on_c, 8, 53, 95
10, 483717, Note_on_c, 8, 53, 0
10, 483840, Note_on_c, 8, 60, 106
10, 483957, Note_on_c, 8, 60, 0
10, 484080, Note_on_c, 8, 53, 82
10, 484197, Note_on_c, 8, 53, 0
10, 484320, Note_on_c, 8, 60, 104
10, 484437, Note_on_c, 8, 60, 0
10, 484560, Note_on_c, 8, 53, 87
10, 484677, Note_on_c, 8, 53, 0
10, 484800, Note_on_c, 8, 60, 108
10, 484917, Note_on_c, 8, 60, 0
10, 485040, Note_on_c, 8, 53, 78
10, 485157, Note_on_c, 8, 53, 0
10, 485280, Note_on_c, 8, 58, 105
10, 485397, Note_on_c, 8, 58, 0
10, 485520, Note_on_c, 8, 53, 94
10, 485637, Note_on_c, 8, 53, 0
10, 485760, Note_on_c, 8, 57, 106
10, 485877, Note_on_c, 8, 57, 0
10, 486000, Note_on_c, 8, 53, 87
10, 486117, Note_on_c, 8, 53, 0
10, 486240, Note_on_c, 8, 57, 109
10, 486357, Note_on_c, 8, 57, 0
10, 486480, Note_on_c, 8, 53, 83
10, 486597, Note_on_c, 8, 53, 0
10, 486720, Note_on_c, 8, 57, 105
10, 486837, Note_on_c, 8, 57, 0
10, 486960, Note_on_c, 8, 53, 90
10, 487077, Note_on_c, 8, 53, 0
10, 487200, Note_on_c, 8, 57, 105
10, 487317, Note_on_c, 8, 57, 0
10, 487440, Note_on_c, 8, 53, 81
10, 487557, Note_on_c, 8, 53, 0
10, 487680, Note_on_c, 8, 58, 112
10, 488160, Note_on_c, 8, 58, 0
10, 489600, Note_on_c, 8, 65, 91
10, 489717, Note_on_c, 8, 65, 0
10, 489840, Note_on_c, 8, 58, 74
10, 489957, Note_on_c, 8, 58, 0
10, 490080, Note_on_c, 8, 58, 96
10, 490560, Note_on_c, 8, 58, 0
10, 490560, Note_on_c, 8, 62, 105
10, 490677, Note_on_c, 8, 62, 0
10, 490788, Note_on_c, 8, 53, 83
10, 490906, Note_on_c, 8, 53, 0
10, 491014, Note_on_c, 8, 53, 97
10, 491520, Note_on_c, 8, 53, 0
10, 491520, Note_on_c, 8, 58, 110
10, 491626, Note_on_c, 8, 58, 0
10, 491748, Note_on_c, 8, 50, 82
10, 491866, Note_on_c, 8, 50, 0
10, 491992, Note_on_c, 8, 50, 93
10, 492720, Note_on_c, 8, 50, 0
10, 492720, Note_on_c, 8, 52, 96
10, 492840, Note_on_c, 8, 52, 0
10, 492840, Note_on_c, 8, 53, 101
10, 492960, Note_on_c, 8, 53, 0
10, 492960, Note_on_c, 8, 55, 105
10, 493200, Note_on_c, 8, 55, 0
10, 493200, Note_on_c, 8, 52, 97
10, 493440, Note_on_c, 8, 52, 0
10, 493440, Note_on_c, 8, 53, 99
10, 493916, Note_on_c, 8, 53, 0
10, 497280, Note_on_c, 8, 53, 47
10, 501606, Note_on_c, 8, 53, 0
10, 504960, Note_on_c, 8, 53, 47
10, 508800, Note_on_c, 8, 53, 0
10, 508810, Note_on_c, 8, 46, 41
10, 509289, Note_on_c, 8, 46, 0
10, 510720, Note_on_c, 8, 51, 50
10, 516480, Note_on_c, 8, 51, 0
10, 516480, Note_on_c, 8, 50, 41
10, 518400, Note_on_c, 8, 50, 0
10, 518402, Note_on_c, 8, 48, 44
10, 520320, Note_on_c, 8, 48, 0
10, 520320, Note_on_c, 8, 46, 53
10, 522240, Note_on_c, 8, 46, 0
10, 522240, Note_on_c, 8, 45, 50
10, 524160, Note_on_c, 8, 45, 0
10, 524162, Note_on_c, 8, 54, 55
10, 526080, Note_on_c, 8, 54, 0
10, 526080, Note_on_c, 8, 53, 51
10, 528000, Note_on_c, 8, 53, 0
10, 528000, Note_on_c, 8, 54, 49
10, 529920, Note_on_c, 8, 54, 0
10, 529920, Note_on_c, 8, 53, 47
10, 531840, Note_on_c, 8, 53, 0
10, 531840, Note_on_c, 8, 54, 49
10, 533760, Note_on_c, 8, 54, 0
10, 533760, Note_on_c, 8, 56, 56
10, 534717, Note_on_c, 8, 56, 0
10, 534717, Note_on_c, 8, 58, 53
10, 535576, Note_on_c, 8, 58, 0
10, 535680, Note_on_c, 8, 59, 47
10, 536640, Note_on_c, 8, 59, 0
10, 536640, Note_on_c, 8, 57, 47
10, 537496, Note_on_c, 8, 57, 0
10, 537600, Note_on_c, 8, 58, 52
10, 538560, Note_on_c, 8, 58, 0
10, 538560, Note_on_c, 8, 54, 43
10, 539520, Note_on_c, 8, 54, 0
10, 539520, Note_on_c, 8, 51, 42
10, 540480, Note_on_c, 8, 51, 0
10, 540480, Note_on_c, 8, 53, 46
10, 541336, Note_on_c, 8, 53, 0
10, 541440, Note_on_c, 8, 54, 54
10, 541920, Note_on_c, 8, 54, 0
10, 542400, Note_on_c, 8, 49, 45
10, 542881, Note_on_c, 8, 49, 0
10, 543360, Note_on_c, 8, 51, 36
10, 543842, Note_on_c, 8, 51, 0
10, 544320, Note_on_c, 8, 53, 46
10, 544784, Note_on_c, 8, 53, 0
10, 545273, Note_on_c, 8, 46, 40
10, 561132, Note_on_c, 8, 46, 0
10, 579836, Note_on_c, 8, 50, 58
10, 580800, Note_on_c, 8, 50, 0
10, 580800, Note_on_c, 8, 55, 65
10, 581760, Note_on_c, 8, 55, 0
10, 581761, Note_on_c, 8, 48, 54
10, 582721, Note_on_c, 8, 48, 0
10, 582721, Note_on_c, 8, 53, 67
10, 583680, Note_on_c, 8, 53, 0
10, 583680, Note_on_c, 8, 58, 71
10, 583912, Note_on_c, 8, 58, 0
10, 584152, Note_on_c, 8, 51, 60
10, 584396, Note_on_c, 8, 51, 0
10, 584636, Note_on_c, 8, 53, 56
10, 584876, Note_on_c, 8, 53, 0
10, 585116, Note_on_c, 8, 41, 50
10, 585356, Note_on_c, 8, 41, 0
10, 585597, Note_on_c, 8, 46, 59
10, 586080, Note_on_c, 8, 46, 0
10, 586560, Note_on_c, 8, 53, 51
10, 587520, Note_on_c, 8, 53, 0
10, 587520, Note_on_c, 8, 58, 70
10, 587901, Note_on_c, 8, 58, 0
10, 588480, Note_on_c, 8, 53, 58
10, 589440, Note_on_c, 8, 53, 0
10, 589440, Note_on_c, 8, 58, 61
10, 589810, Note_on_c, 8, 58, 0
10, 590400, Note_on_c, 8, 53, 56
10, 591360, Note_on_c, 8, 53, 0
10, 591360, Note_on_c, 8, 58, 69
10, 591730, Note_on_c, 8, 58, 0
10, 600000, Note_on_c, 8, 53, 56
10, 600960, Note_on_c, 8, 53, 0
10, 600960, Note_on_c, 8, 58, 65
10, 601341, Note_on_c, 8, 58, 0
10, 601920, Note_on_c, 8, 53, 56
10, 602880, Note_on_c, 8, 53, 0
10, 602880, Note_on_c, 8, 58, 67
10, 603258, Note_on_c, 8, 58, 0
10, 603840, Note_on_c, 8, 53, 54
10, 604800, Note_on_c, 8, 53, 0
10, 604800, Note_on_c, 8, 58, 61
10, 605176, Note_on_c, 8, 58, 0
10, 605760, Note_on_c, 8, 58, 48
10, 606720, Note_on_c, 8, 58, 0
10, 606722, Note_on_c, 8, 58, 55
10, 607682, Note_on_c, 8, 58, 0
10, 607682, Note_on_c, 8, 58, 66
10, 607922, Note_on_c, 8, 58, 0
10, 608162, Note_on_c, 8, 56, 54
10, 608401, Note_on_c, 8, 56, 0
10, 608642, Note_on_c, 8, 55, 50
10, 608882, Note_on_c, 8, 55, 0
10, 609601, Note_on_c, 8, 60, 51
10, 609840, Note_on_c, 8, 60, 0
10, 610560, Note_on_c, 8, 54, 57
10, 610800, Note_on_c, 8, 54, 0
10, 611520, Note_on_c, 8, 55, 55
10, 611760, Note_on_c, 8, 55, 0
10, 629757, Note_on_c, 8, 52, 58
10, 631680, Note_on_c, 8, 52, 0
10, 631685, Note_on_c, 8, 55, 60
10, 633482, Note_on_c, 8, 55, 0
10, 633596, Note_on_c, 8, 53, 64
10, 639845, Note_on_c, 8, 53, 0
10, 643197, Note_on_c, 8, 53, 56
10, 643436, Note_on_c, 8, 53, 0
10, 643436, Note_on_c, 8, 53, 55
10, 643676, Note_on_c, 8, 53, 0
10, 643676, Note_on_c, 8, 53, 67
10, 643916, Note_on_c, 8, 53, 0
10, 643916, Note_on_c, 8, 53, 63
10, 644160, Note_on_c, 8, 53, 0
10, 644160, Note_on_c, 8, 53, 76
10, 644400, Note_on_c, 8, 53, 0
10, 644400, Note_on_c, 8, 53, 77
10, 644640, Note_on_c, 8, 53, 0
10, 644640, Note_on_c, 8, 53, 90
10, 644880, Note_on_c, 8, 53, 0
10, 644880, Note_on_c, 8, 53, 84
10, 645120, Note_on_c, 8, 53, 0
10, 645120, Note_on_c, 8, 58, 90
10, 645237, Note_on_c, 8, 58, 0
10, 645360, Note_on_c, 8, 53, 102
10, 645477, Note_on_c, 8, 53, 0
10, 645600, Note_on_c, 8, 58, 117
10, 645717, Note_on_c, 8, 58, 0
10, 645840, Note_on_c, 8, 53, 99
10, 645957, Note_on_c, 8, 53, 0
10, 646080, Note_on_c, 8, 58, 124
10, 646197, Note_on_c, 8, 58, 0
10, 646320, Note_on_c, 8, 53, 95
10, 646437, Note_on_c, 8, 53, 0
10, 646560, Note_on_c, 8, 58, 121
10, 646677, Note_on_c, 8, 58, 0
10, 646800, Note_on_c, 8, 53, 97
10, 646917, Note_on_c, 8, 53, 0
10, 647040, Note_on_c, 8, 60, 126
10, 647157, Note_on_c, 8, 60, 0
10, 647280, Note_on_c, 8, 53, 97
10, 647397, Note_on_c, 8, 53, 0
10, 647520, Note_on_c, 8, 60, 126
10, 647637, Note_on_c, 8, 60, 0
10, 647760, Note_on_c, 8, 53, 93
10, 647877, Note_on_c, 8, 53, 0
10, 648000, Note_on_c, 8, 60, 124
10, 648117, Note_on_c, 8, 60, 0
10, 648240, Note_on_c, 8, 53, 94
10, 648357, Note_on_c, 8, 53, 0
10, 648480, Note_on_c, 8, 58, 124
10, 648597, Note_on_c, 8, 58, 0
10, 648720, Note_on_c, 8, 53, 101
10, 648837, Note_on_c, 8, 53, 0
10, 648960, Note_on_c, 8, 57, 118
10, 649077, Note_on_c, 8, 57, 0
10, 649200, Note_on_c, 8, 53, 95
10, 649317, Note_on_c, 8, 53, 0
10, 649440, Note_on_c, 8, 57, 119
10, 649557, Note_on_c, 8, 57, 0
10, 649680, Note_on_c, 8, 53, 98
10, 649797, Note_on_c, 8, 53, 0
10, 649920, Note_on_c, 8, 60, 126
10, 650037, Note_on_c, 8, 60, 0
10, 650160, Note_on_c, 8, 53, 85
10, 650277, Note_on_c, 8, 53, 0
10, 650400, Note_on_c, 8, 63, 126
10, 650517, Note_on_c, 8, 63, 0
10, 650640, Note_on_c, 8, 53, 91
10, 650757, Note_on_c, 8, 53, 0
10, 650880, Note_on_c, 8, 62, 126
10, 650997, Note_on_c, 8, 62, 0
10, 651120, Note_on_c, 8, 53, 81
10, 651237, Note_on_c, 8, 53, 0
10, 651360, Note_on_c, 8, 62, 126
10, 651477, Note_on_c, 8, 62, 0
10, 651600, Note_on_c, 8, 53, 85
10, 651717, Note_on_c, 8, 53, 0
10, 651840, Note_on_c, 8, 62, 126
10, 651957, Note_on_c, 8, 62, 0
10, 652080, Note_on_c, 8, 53, 91
10, 652197, Note_on_c, 8, 53, 0
10, 652320, Note_on_c, 8, 57, 115
10, 652437, Note_on_c, 8, 57, 0
10, 652560, Note_on_c, 8, 53, 99
10, 652677, Note_on_c, 8, 53, 0
10, 652800, Note_on_c, 8, 58, 116
10, 652917, Note_on_c, 8, 58, 0
10, 653040, Note_on_c, 8, 53, 101
10, 653157, Note_on_c, 8, 53, 0
10, 653280, Note_on_c, 8, 58, 117
10, 653397, Note_on_c, 8, 58, 0
10, 653520, Note_on_c, 8, 53, 96
10, 653637, Note_on_c, 8, 53, 0
10, 653760, Note_on_c, 8, 58, 118
10, 653877, Note_on_c, 8, 58, 0
10, 654000, Note_on_c, 8, 53, 106
10, 654117, Note_on_c, 8, 53, 0
10, 654240, Note_on_c, 8, 58, 123
10, 654357, Note_on_c, 8, 58, 0
10, 654480, Note_on_c, 8, 53, 99
10, 654597, Note_on_c, 8, 53, 0
10, 654720, Note_on_c, 8, 57, 114
10, 654837, Note_on_c, 8, 57, 0
10, 654960, Note_on_c, 8, 53, 97
10, 655077, Note_on_c, 8, 53, 0
10, 655200, Note_on_c, 8, 57, 119
10, 655317, Note_on_c, 8, 57, 0
10, 655440, Note_on_c, 8, 53, 102
10, 655557, Note_on_c, 8, 53, 0
10, 655680, Note_on_c, 8, 57, 117
10, 655797, Note_on_c, 8, 57, 0
10, 655920, Note_on_c, 8, 53, 97
10, 656037, Note_on_c, 8, 53, 0
10, 656160, Note_on_c, 8, 59, 126
10, 656277, Note_on_c, 8, 59, 0
10, 656400, Note_on_c, 8, 53, 98
10, 656517, Note_on_c, 8, 53, 0
10, 656640, Note_on_c, 8, 60, 123
10, 656757, Note_on_c, 8, 60, 0
10, 656880, Note_on_c, 8, 53, 88
10, 656997, Note_on_c, 8, 53, 0
10, 657120, Note_on_c, 8, 60, 126
10, 657237, Note_on_c, 8, 60, 0
10, 657360, Note_on_c, 8, 53, 89
10, 657477, Note_on_c, 8, 53, 0
10, 657600, Note_on_c, 8, 60, 124
10, 657717, Note_on_c, 8, 60, 0
10, 657840, Note_on_c, 8, 53, 96
10, 657957, Note_on_c, 8, 53, 0
10, 658080, Note_on_c, 8, 57, 118
10, 658197, Note_on_c, 8, 57, 0
10, 658320, Note_on_c, 8, 53, 100
10, 658437, Note_on_c, 8, 53, 0
10, 658560, Note_on_c, 8, 58, 117
10, 659040, Note_on_c, 8, 58, 0
10, 660480, Note_on_c, 8, 65, 95
10, 660597, Note_on_c, 8, 65, 0
10, 660720, Note_on_c, 8, 58, 91
10, 660837, Note_on_c, 8, 58, 0
10, 660960, Note_on_c, 8, 58, 103
10, 661440, Note_on_c, 8, 58, 0
10, 661440, Note_on_c, 8, 62, 121
10, 661557, Note_on_c, 8, 62, 0
10, 661668, Note_on_c, 8, 53, 87
10, 661786, Note_on_c, 8, 53, 0
10, 661894, Note_on_c, 8, 53, 97
10, 662400, Note_on_c, 8, 53, 0
10, 662400, Note_on_c, 8, 58, 116
10, 662506, Note_on_c, 8, 58, 0
10, 662628, Note_on_c, 8, 50, 92
10, 662746, Note_on_c, 8, 50, 0
10, 662872, Note_on_c, 8, 50, 99
10, 663600, Note_on_c, 8, 50, 0
10, 663600, Note_on_c, 8, 52, 114
10, 663720, Note_on_c, 8, 52, 0
10, 663720, Note_on_c, 8, 53, 109
10, 663840, Note_on_c, 8, 53, 0
10, 663840, Note_on_c, 8, 55, 119
10, 664080, Note_on_c, 8, 55, 0
10, 664080, Note_on_c, 8, 52, 107
10, 664320, Note_on_c, 8, 52, 0
10, 664320, Note_on_c, 8, 53, 113
10, 664800, Note_on_c, 8, 53, 0
10, 664800, Note_on_c, 8, 55, 117
10, 665280, Note_on_c, 8, 55, 0
10, 665280, Note_on_c, 8, 53, 101
10, 665761, Note_on_c, 8, 53, 0
10, 665761, Note_on_c, 8, 52, 103
10, 666240, Note_on_c, 8, 52, 0
10, 666241, Note_on_c, 8, 53, 127
10, 667200, Note_on_c, 8, 53, 0
10, 744957, Note_on_c, 8, 58, 98
10, 745196, Note_on_c, 8, 58, 0
10, 745196, Note_on_c, 8, 58, 90
10, 745436, Note_on_c, 8, 58, 0
10, 745436, Note_on_c, 8, 58, 96
10, 745677, Note_on_c, 8, 58, 0
10, 745677, Note_on_c, 8, 62, 107
10, 745917, Note_on_c, 8, 62, 0
10, 745917, Note_on_c, 8, 53, 87
10, 746157, Note_on_c, 8, 53, 0
10, 746157, Note_on_c, 8, 53, 96
10, 746400, Note_on_c, 8, 53, 0
10, 746400, Note_on_c, 8, 53, 100
10, 746640, Note_on_c, 8, 53, 0
10, 746640, Note_on_c, 8, 55, 104
10, 746760, Note_on_c, 8, 55, 0
10, 746760, Note_on_c, 8, 57, 112
10, 746880, Note_on_c, 8, 57, 0
10, 746880, Note_on_c, 8, 58, 106
10, 747117, Note_on_c, 8, 58, 0
10, 747117, Note_on_c, 8, 46, 67
10, 747357, Note_on_c, 8, 46, 0
10, 747357, Note_on_c, 8, 46, 92
10, 747477, Note_on_c, 8, 46, 0
10, 747477, Note_on_c, 8, 48, 105
10, 747600, Note_on_c, 8, 48, 0
10, 747600, Note_on_c, 8, 50, 110
10, 747720, Note_on_c, 8, 50, 0
10, 747720, Note_on_c, 8, 51, 113
10, 747840, Note_on_c, 8, 51, 0
10, 747840, Note_on_c, 8, 53, 112
10, 748082, Note_on_c, 8, 53, 0
10, 748082, Note_on_c, 8, 53, 93
10, 748329, Note_on_c, 8, 53, 0
10, 748329, Note_on_c, 8, 53, 95
10, 748572, Note_on_c, 8, 53, 0
10, 748572, Note_on_c, 8, 55, 106
10, 748696, Note_on_c, 8, 55, 0
10, 748696, Note_on_c, 8, 57, 105
10, 748800, Note_on_c, 8, 57, 0
10, 748810, Note_on_c, 8, 58, 100
10, 749049, Note_on_c, 8, 58, 0
10, 749049, Note_on_c, 8, 58, 99
10, 749285, Note_on_c, 8, 58, 0
10, 749285, Note_on_c, 8, 58, 100
10, 749526, Note_on_c, 8, 58, 0
10, 749526, Note_on_c, 8, 57, 95
10, 749646, Note_on_c, 8, 57, 0
10, 749646, Note_on_c, 8, 55, 93
10, 749769, Note_on_c, 8, 55, 0
10, 749769, Note_on_c, 8, 53, 87
10, 750241, Note_on_c, 8, 53, 0
10, 750709, Note_on_c, 8, 50, 56
10, 751676, Note_on_c, 8, 50, 0
10, 751676, Note_on_c, 8, 55, 68
10, 752640, Note_on_c, 8, 55, 0
10, 752640, Note_on_c, 8, 48, 46
10, 753601, Note_on_c, 8, 48, 0
10, 753601, Note_on_c, 8, 53, 71
10, 754560, Note_on_c, 8, 53, 0
10, 754561, Note_on_c, 8, 46, 54
10, 755041, Note_on_c, 8, 46, 0
10, 755041, Note_on_c, 8, 51, 61
10, 755520, Note_on_c, 8, 51, 0
10, 755520, Note_on_c, 8, 53, 61
10, 756000, Note_on_c, 8, 53, 0
10, 756000, Note_on_c, 8, 41, 45
10, 756480, Note_on_c, 8, 41, 0
10, 762240, Note_on_c, 8, 50, 44
10, 764160, Note_on_c, 8, 50, 0
10, 764160, Note_on_c, 8, 46, 47
10, 766080, Note_on_c, 8, 46, 0
10, 766080, Note_on_c, 8, 53, 54
10, 766560, Note_on_c, 8, 53, 0
10, 767969, Note_on_c, 8, 46, 84
10, 768466, Note_on_c, 8, 46, 0
10, 769210, Note_on_c, 8, 51, 88
10, 769450, Note_on_c, 8, 51, 0
10, 769450, Note_on_c, 8, 50, 89
10, 769690, Note_on_c, 8, 50, 0
10, 769690, Note_on_c, 8, 48, 94
10, 769920, Note_on_c, 8, 48, 0
10, 769929, Note_on_c, 8, 46, 89
10, 770402, Note_on_c, 8, 46, 0
10, 771122, Note_on_c, 8, 51, 94
10, 771362, Note_on_c, 8, 51, 0
10, 771362, Note_on_c, 8, 50, 86
10, 771601, Note_on_c, 8, 50, 0
10, 771601, Note_on_c, 8, 48, 92
10, 771840, Note_on_c, 8, 48, 0
10, 771841, Note_on_c, 8, 46, 89
10, 772080, Note_on_c, 8, 46, 0
10, 772320, Note_on_c, 8, 58, 122
10, 772557, Note_on_c, 8, 58, 0
10, 772800, Note_on_c, 8, 46, 76
10, 773037, Note_on_c, 8, 46, 0
10, 773280, Note_on_c, 8, 46, 95
10, 773517, Note_on_c, 8, 46, 0
10, 773760, Note_on_c, 8, 46, 108
10, 774602, Note_on_c, 8, 46, 0
10, 774602, End_track
11, 0, Start_track
11, 0, Title_t, "Contrabass"
11, 0, Program_c, 10, 48
11, 0, Control_c, 10, 7, 74
11, 0, Control_c, 10, 10, 96
11, 0, Program_c, 10, 48
11, 0, Control_c, 10, 7, 74
11, 0, Control_c, 10, 121, 0
11, 0, Control_c, 10, 91, 91
11, 0, Note_on_c, 10, 46, 52
11, 480, Note_on_c, 10, 46, 0
11, 1440, Note_on_c, 10, 46, 52
11, 1920, Note_on_c, 10, 46, 0
11, 1920, Note_on_c, 10, 41, 57
11, 2400, Note_on_c, 10, 41, 0
11, 2400, Note_on_c, 10, 34, 53
11, 2880, Note_on_c, 10, 34, 0
11, 3840, Note_on_c, 10, 41, 50
11, 4320, Note_on_c, 10, 41, 0
11, 5280, Note_on_c, 10, 41, 53
11, 5760, Note_on_c, 10, 41, 0
11, 5760, Note_on_c, 10, 46, 63
11, 6240, Note_on_c, 10, 46, 0
11, 6240, Note_on_c, 10, 41, 50
11, 6720, Note_on_c, 10, 41, 0
11, 7680, Note_on_c, 10, 34, 55
11, 8160, Note_on_c, 10, 34, 0
11, 8640, Note_on_c, 10, 36, 50
11, 9120, Note_on_c, 10, 36, 0
11, 9605, Note_on_c, 10, 38, 87
11, 10085, Note_on_c, 10, 38, 0
11, 11516, Note_on_c, 10, 39, 60
11, 12949, Note_on_c, 10, 39, 0
11, 12949, Note_on_c, 10, 40, 61
11, 13440, Note_on_c, 10, 40, 0
11, 13440, Note_on_c, 10, 41, 57
11, 13913, Note_on_c, 10, 41, 0
11, 23040, Note_on_c, 10, 34, 50
11, 23520, Note_on_c, 10, 34, 0
11, 24000, Note_on_c, 10, 36, 58
11, 24480, Note_on_c, 10, 36, 0
11, 24960, Note_on_c, 10, 38, 52
11, 25440, Note_on_c, 10, 38, 0
11, 25920, Note_on_c, 10, 39, 55
11, 26421, Note_on_c, 10, 39, 0
11, 27132, Note_on_c, 10, 41, 55
11, 27372, Note_on_c, 10, 41, 0
11, 27372, Note_on_c, 10, 41, 50
11, 27609, Note_on_c, 10, 41, 0
11, 27609, Note_on_c, 10, 41, 69
11, 27845, Note_on_c, 10, 41, 0
11, 27845, Note_on_c, 10, 41, 61
11, 28081, Note_on_c, 10, 41, 0
11, 28081, Note_on_c, 10, 41, 67
11, 28321, Note_on_c, 10, 41, 0
11, 28321, Note_on_c, 10, 41, 56
11, 28560, Note_on_c, 10, 41, 0
11, 28560, Note_on_c, 10, 41, 60
11, 28800, Note_on_c, 10, 41, 0
11, 28800, Note_on_c, 10, 46, 71
11, 29280, Note_on_c, 10, 46, 0
11, 29761, Note_on_c, 10, 39, 58
11, 30236, Note_on_c, 10, 39, 0
11, 30956, Note_on_c, 10, 41, 53
11, 31196, Note_on_c, 10, 41, 0
11, 31196, Note_on_c, 10, 41, 60
11, 31440, Note_on_c, 10, 41, 0
11, 31440, Note_on_c, 10, 41, 63
11, 31680, Note_on_c, 10, 41, 0
11, 31680, Note_on_c, 10, 41, 59
11, 31920, Note_on_c, 10, 41, 0
11, 31920, Note_on_c, 10, 41, 58
11, 32160, Note_on_c, 10, 41, 0
11, 32160, Note_on_c, 10, 41, 55
11, 32400, Note_on_c, 10, 41, 0
11, 32400, Note_on_c, 10, 41, 54
11, 32640, Note_on_c, 10, 41, 0
11, 32640, Note_on_c, 10, 46, 108
11, 32757, Note_on_c, 10, 46, 0
11, 32880, Note_on_c, 10, 41, 94
11, 32997, Note_on_c, 10, 41, 0
11, 33120, Note_on_c, 10, 46, 101
11, 33237, Note_on_c, 10, 46, 0
11, 33360, Note_on_c, 10, 41, 92
11, 33477, Note_on_c, 10, 41, 0
11, 33600, Note_on_c, 10, 46, 105
11, 33717, Note_on_c, 10, 46, 0
11, 33840, Note_on_c, 10, 41, 87
11, 33957, Note_on_c, 10, 41, 0
11, 34080, Note_on_c, 10, 46, 107
11, 34197, Note_on_c, 10, 46, 0
11, 34320, Note_on_c, 10, 41, 92
11, 34437, Note_on_c, 10, 41, 0
11, 34560, Note_on_c, 10, 48, 107
11, 34677, Note_on_c, 10, 48, 0
11, 34800, Note_on_c, 10, 41, 78
11, 34917, Note_on_c, 10, 41, 0
11, 35040, Note_on_c, 10, 48, 106
11, 35157, Note_on_c, 10, 48, 0
11, 35280, Note_on_c, 10, 41, 80
11, 35397, Note_on_c, 10, 41, 0
11, 35520, Note_on_c, 10, 48, 112
11, 35637, Note_on_c, 10, 48, 0
11, 35760, Note_on_c, 10, 41, 77
11, 35877, Note_on_c, 10, 41, 0
11, 36000, Note_on_c, 10, 46, 105
11, 36117, Note_on_c, 10, 46, 0
11, 36240, Note_on_c, 10, 41, 83
11, 36357, Note_on_c, 10, 41, 0
11, 36480, Note_on_c, 10, 45, 109
11, 36597, Note_on_c, 10, 45, 0
11, 36720, Note_on_c, 10, 41, 87
11, 36837, Note_on_c, 10, 41, 0
11, 36960, Note_on_c, 10, 45, 99
11, 37077, Note_on_c, 10, 45, 0
11, 37200, Note_on_c, 10, 41, 93
11, 37317, Note_on_c, 10, 41, 0
11, 37440, Note_on_c, 10, 45, 107
11, 37557, Note_on_c, 10, 45, 0
11, 37680, Note_on_c, 10, 41, 87
11, 37797, Note_on_c, 10, 41, 0
11, 37920, Note_on_c, 10, 45, 110
11, 38037, Note_on_c, 10, 45, 0
11, 38160, Note_on_c, 10, 41, 89
11, 38277, Note_on_c, 10, 41, 0
11, 38400, Note_on_c, 10, 46, 106
11, 38517, Note_on_c, 10, 46, 0
11, 38640, Note_on_c, 10, 41, 92
11, 38757, Note_on_c, 10, 41, 0
11, 38880, Note_on_c, 10, 46, 110
11, 38997, Note_on_c, 10, 46, 0
11, 39120, Note_on_c, 10, 41, 90
11, 39237, Note_on_c, 10, 41, 0
11, 39360, Note_on_c, 10, 46, 101
11, 39477, Note_on_c, 10, 46, 0
11, 39600, Note_on_c, 10, 41, 88
11, 39717, Note_on_c, 10, 41, 0
11, 39840, Note_on_c, 10, 46, 110
11, 39957, Note_on_c, 10, 46, 0
11, 40080, Note_on_c, 10, 41, 80
11, 40197, Note_on_c, 10, 41, 0
11, 40320, Note_on_c, 10, 48, 112
11, 40437, Note_on_c, 10, 48, 0
11, 40560, Note_on_c, 10, 41, 89
11, 40677, Note_on_c, 10, 41, 0
11, 40800, Note_on_c, 10, 48, 111
11, 40917, Note_on_c, 10, 48, 0
11, 41040, Note_on_c, 10, 41, 83
11, 41157, Note_on_c, 10, 41, 0
11, 41280, Note_on_c, 10, 48, 110
11, 41397, Note_on_c, 10, 48, 0
11, 41520, Note_on_c, 10, 41, 77
11, 41637, Note_on_c, 10, 41, 0
11, 41760, Note_on_c, 10, 46, 99
11, 41877, Note_on_c, 10, 46, 0
11, 42000, Note_on_c, 10, 41, 88
11, 42117, Note_on_c, 10, 41, 0
11, 42240, Note_on_c, 10, 45, 106
11, 42357, Note_on_c, 10, 45, 0
11, 42480, Note_on_c, 10, 41, 89
11, 42597, Note_on_c, 10, 41, 0
11, 42720, Note_on_c, 10, 45, 99
11, 42837, Note_on_c, 10, 45, 0
11, 42960, Note_on_c, 10, 41, 90
11, 43077, Note_on_c, 10, 41, 0
11, 43200, Note_on_c, 10, 45, 110
11, 43317, Note_on_c, 10, 45, 0
11, 43440, Note_on_c, 10, 41, 94
11, 43557, Note_on_c, 10, 41, 0
11, 43680, Note_on_c, 10, 45, 104
11, 43797, Note_on_c, 10, 45, 0
11, 43920, Note_on_c, 10, 41, 88
11, 44037, Note_on_c, 10, 41, 0
11, 44160, Note_on_c, 10, 46, 111
11, 44640, Note_on_c, 10, 46, 0
11, 46080, Note_on_c, 10, 53, 83
11, 46197, Note_on_c, 10, 53, 0
11, 46320, Note_on_c, 10, 46, 76
11, 46437, Note_on_c, 10, 46, 0
11, 46560, Note_on_c, 10, 46, 89
11, 47040, Note_on_c, 10, 46, 0
11, 47040, Note_on_c, 10, 50, 106
11, 47157, Note_on_c, 10, 50, 0
11, 47268, Note_on_c, 10, 41, 78
11, 47386, Note_on_c, 10, 41, 0
11, 47494, Note_on_c, 10, 41, 94
11, 48000, Note_on_c, 10, 41, 0
11, 48000, Note_on_c, 10, 46, 104
11, 48106, Note_on_c, 10, 46, 0
11, 48228, Note_on_c, 10, 38, 80
11, 48346, Note_on_c, 10, 38, 0
11, 48472, Note_on_c, 10, 38, 100
11, 49200, Note_on_c, 10, 38, 0
11, 49200, Note_on_c, 10, 40, 101
11, 49320, Note_on_c, 10, 40, 0
11, 49320, Note_on_c, 10, 41, 98
11, 49440, Note_on_c, 10, 41, 0
11, 49440, Note_on_c, 10, 43, 111
11, 49680, Note_on_c, 10, 43, 0
11, 49680, Note_on_c, 10, 40, 89
11, 49920, Note_on_c, 10, 40, 0
11, 49920, Note_on_c, 10, 41, 99
11, 50157, Note_on_c, 10, 41, 0
11, 50400, Note_on_c, 10, 29, 69
11, 50637, Note_on_c, 10, 29, 0
11, 51841, Note_on_c, 10, 42, 43
11, 53760, Note_on_c, 10, 42, 0
11, 53760, Note_on_c, 10, 41, 51
11, 55576, Note_on_c, 10, 41, 0
11, 55680, Note_on_c, 10, 42, 52
11, 57600, Note_on_c, 10, 42, 0
11, 57618, Note_on_c, 10, 41, 45
11, 59401, Note_on_c, 10, 41, 0
11, 59516, Note_on_c, 10, 42, 58
11, 61440, Note_on_c, 10, 42, 0
11, 61440, Note_on_c, 10, 44, 58
11, 62400, Note_on_c, 10, 44, 0
11, 62400, Note_on_c, 10, 46, 48
11, 63360, Note_on_c, 10, 46, 0
11, 63360, Note_on_c, 10, 47, 49
11, 64320, Note_on_c, 10, 47, 0
11, 64320, Note_on_c, 10, 45, 46
11, 65176, Note_on_c, 10, 45, 0
11, 65280, Note_on_c, 10, 46, 51
11, 66240, Note_on_c, 10, 46, 0
11, 66240, Note_on_c, 10, 42, 50
11, 67200, Note_on_c, 10, 42, 0
11, 67200, Note_on_c, 10, 39, 49
11, 68160, Note_on_c, 10, 39, 0
11, 68160, Note_on_c, 10, 41, 56
11, 69016, Note_on_c, 10, 41, 0
11, 69120, Note_on_c, 10, 42, 52
11, 69600, Note_on_c, 10, 42, 0
11, 70080, Note_on_c, 10, 37, 44
11, 70560, Note_on_c, 10, 37, 0
11, 71040, Note_on_c, 10, 39, 44
11, 71520, Note_on_c, 10, 39, 0
11, 72000, Note_on_c, 10, 41, 45
11, 72480, Note_on_c, 10, 41, 0
11, 72960, Note_on_c, 10, 34, 35
11, 88812, Note_on_c, 10, 34, 0
11, 89286, Note_on_c, 10, 41, 59
11, 89761, Note_on_c, 10, 41, 0
11, 90240, Note_on_c, 10, 34, 49
11, 90720, Note_on_c, 10, 34, 0
11, 91200, Note_on_c, 10, 41, 46
11, 91680, Note_on_c, 10, 41, 0
11, 92160, Note_on_c, 10, 34, 56
11, 92640, Note_on_c, 10, 34, 0
11, 93113, Note_on_c, 10, 41, 58
11, 93596, Note_on_c, 10, 41, 0
11, 94081, Note_on_c, 10, 34, 58
11, 94561, Note_on_c, 10, 34, 0
11, 95036, Note_on_c, 10, 41, 51
11, 95516, Note_on_c, 10, 41, 0
11, 96002, Note_on_c, 10, 46, 84
11, 96242, Note_on_c, 10, 46, 0
11, 96242, Note_on_c, 10, 46, 94
11, 96482, Note_on_c, 10, 46, 0
11, 96482, Note_on_c, 10, 46, 94
11, 96720, Note_on_c, 10, 46, 0
11, 96720, Note_on_c, 10, 50, 109
11, 96960, Note_on_c, 10, 50, 0
11, 96960, Note_on_c, 10, 41, 75
11, 97200, Note_on_c, 10, 41, 0
11, 97200, Note_on_c, 10, 41, 90
11, 97440, Note_on_c, 10, 41, 0
11, 97440, Note_on_c, 10, 41, 92
11, 97680, Note_on_c, 10, 41, 0
11, 97680, Note_on_c, 10, 43, 98
11, 97800, Note_on_c, 10, 43, 0
11, 97800, Note_on_c, 10, 45, 105
11, 97920, Note_on_c, 10, 45, 0
11, 97920, Note_on_c, 10, 46, 106
11, 98157, Note_on_c, 10, 46, 0
11, 98157, Note_on_c, 10, 34, 78
11, 98397, Note_on_c, 10, 34, 0
11, 98397, Note_on_c, 10, 34, 92
11, 98517, Note_on_c, 10, 34, 0
11, 98517, Note_on_c, 10, 36, 103
11, 98640, Note_on_c, 10, 36, 0
11, 98640, Note_on_c, 10, 38, 98
11, 98760, Note_on_c, 10, 38, 0
11, 98760, Note_on_c, 10, 39, 104
11, 98880, Note_on_c, 10, 39, 0
11, 98880, Note_on_c, 10, 41, 109
11, 99122, Note_on_c, 10, 41, 0
11, 99122, Note_on_c, 10, 41, 98
11, 99369, Note_on_c, 10, 41, 0
11, 99369, Note_on_c, 10, 41, 101
11, 99614, Note_on_c, 10, 41, 0
11, 99614, Note_on_c, 10, 43, 99
11, 99738, Note_on_c, 10, 43, 0
11, 99738, Note_on_c, 10, 45, 104
11, 99840, Note_on_c, 10, 45, 0
11, 99850, Note_on_c, 10, 46, 102
11, 100089, Note_on_c, 10, 46, 0
11, 100089, Note_on_c, 10, 46, 99
11, 100326, Note_on_c, 10, 46, 0
11, 100326, Note_on_c, 10, 46, 94
11, 100569, Note_on_c, 10, 46, 0
11, 100569, Note_on_c, 10, 45, 94
11, 100689, Note_on_c, 10, 45, 0
11, 100689, Note_on_c, 10, 43, 90
11, 100809, Note_on_c, 10, 43, 0
11, 100809, Note_on_c, 10, 41, 95
11, 101281, Note_on_c, 10, 41, 0
11, 102717, Note_on_c, 10, 43, 59
11, 103680, Note_on_c, 10, 43, 0
11, 103680, Note_on_c, 10, 39, 54
11, 104640, Note_on_c, 10, 39, 0
11, 104640, Note_on_c, 10, 41, 65
11, 105496, Note_on_c, 10, 41, 0
11, 105600, Note_on_c, 10, 46, 69
11, 106080, Note_on_c, 10, 46, 0
11, 106080, Note_on_c, 10, 39, 50
11, 106560, Note_on_c, 10, 39, 0
11, 106560, Note_on_c, 10, 41, 68
11, 107040, Note_on_c, 10, 41, 0
11, 107040, Note_on_c, 10, 41, 61
11, 107520, Note_on_c, 10, 41, 0
11, 107520, Note_on_c, 10, 34, 50
11, 108000, Note_on_c, 10, 34, 0
11, 109429, Note_on_c, 10, 38, 53
11, 110396, Note_on_c, 10, 38, 0
11, 110396, Note_on_c, 10, 43, 71
11, 111360, Note_on_c, 10, 43, 0
11, 111360, Note_on_c, 10, 36, 53
11, 112321, Note_on_c, 10, 36, 0
11, 112321, Note_on_c, 10, 41, 63
11, 113280, Note_on_c, 10, 41, 0
11, 113281, Note_on_c, 10, 34, 54
11, 113761, Note_on_c, 10, 34, 0
11, 113761, Note_on_c, 10, 39, 66
11, 114240, Note_on_c, 10, 39, 0
11, 114240, Note_on_c, 10, 41, 63
11, 114720, Note_on_c, 10, 41, 0
11, 114720, Note_on_c, 10, 29, 39
11, 115200, Note_on_c, 10, 29, 0
11, 120960, Note_on_c, 10, 38, 45
11, 122880, Note_on_c, 10, 38, 0
11, 122880, Note_on_c, 10, 34, 48
11, 124800, Note_on_c, 10, 34, 0
11, 124800, Note_on_c, 10, 41, 59
11, 125280, Note_on_c, 10, 41, 0
11, 126689, Note_on_c, 10, 34, 83
11, 127186, Note_on_c, 10, 34, 0
11, 127930, Note_on_c, 10, 39, 89
11, 128170, Note_on_c, 10, 39, 0
11, 128170, Note_on_c, 10, 38, 93
11, 128410, Note_on_c, 10, 38, 0
11, 128410, Note_on_c, 10, 36, 88
11, 128640, Note_on_c, 10, 36, 0
11, 128649, Note_on_c, 10, 34, 89
11, 129122, Note_on_c, 10, 34, 0
11, 129842, Note_on_c, 10, 39, 88
11, 130082, Note_on_c, 10, 39, 0
11, 130082, Note_on_c, 10, 38, 93
11, 130321, Note_on_c, 10, 38, 0
11, 130321, Note_on_c, 10, 36, 94
11, 130560, Note_on_c, 10, 36, 0
11, 130561, Note_on_c, 10, 34, 94
11, 130800, Note_on_c, 10, 34, 0
11, 131040, Note_on_c, 10, 46, 124
11, 131277, Note_on_c, 10, 46, 0
11, 131520, Note_on_c, 10, 34, 91
11, 131941, Note_on_c, 10, 34, 0
11, 147846, Note_on_c, 10, 46, 50
11, 148325, Note_on_c, 10, 46, 0
11, 149280, Note_on_c, 10, 46, 58
11, 149760, Note_on_c, 10, 46, 0
11, 149760, Note_on_c, 10, 41, 51
11, 149992, Note_on_c, 10, 41, 0
11, 150240, Note_on_c, 10, 34, 48
11, 150477, Note_on_c, 10, 34, 0
11, 151676, Note_on_c, 10, 41, 54
11, 152156, Note_on_c, 10, 41, 0
11, 153120, Note_on_c, 10, 41, 59
11, 153600, Note_on_c, 10, 41, 0
11, 153600, Note_on_c, 10, 46, 69
11, 153832, Note_on_c, 10, 46, 0
11, 154080, Note_on_c, 10, 41, 52
11, 154317, Note_on_c, 10, 41, 0
11, 161292, Note_on_c, 10, 46, 47
11, 162245, Note_on_c, 10, 46, 0
11, 162245, Note_on_c, 10, 39, 34
11, 163200, Note_on_c, 10, 39, 0
11, 163200, Note_on_c, 10, 41, 50
11, 165016, Note_on_c, 10, 41, 0
11, 165120, Note_on_c, 10, 46, 110
11, 165360, Note_on_c, 10, 46, 0
11, 165360, Note_on_c, 10, 41, 88
11, 165600, Note_on_c, 10, 41, 0
11, 165600, Note_on_c, 10, 46, 112
11, 165840, Note_on_c, 10, 46, 0
11, 165840, Note_on_c, 10, 41, 83
11, 166080, Note_on_c, 10, 41, 0
11, 166080, Note_on_c, 10, 46, 101
11, 166320, Note_on_c, 10, 46, 0
11, 166320, Note_on_c, 10, 41, 73
11, 166560, Note_on_c, 10, 41, 0
11, 166560, Note_on_c, 10, 46, 109
11, 166800, Note_on_c, 10, 46, 0
11, 166800, Note_on_c, 10, 41, 92
11, 167040, Note_on_c, 10, 41, 0
11, 167040, Note_on_c, 10, 48, 114
11, 167280, Note_on_c, 10, 48, 0
11, 167280, Note_on_c, 10, 41, 88
11, 167520, Note_on_c, 10, 41, 0
11, 167520, Note_on_c, 10, 48, 109
11, 167760, Note_on_c, 10, 48, 0
11, 167760, Note_on_c, 10, 41, 83
11, 168000, Note_on_c, 10, 41, 0
11, 168000, Note_on_c, 10, 48, 112
11, 168240, Note_on_c, 10, 48, 0
11, 168240, Note_on_c, 10, 41, 83
11, 168480, Note_on_c, 10, 41, 0
11, 168480, Note_on_c, 10, 46, 112
11, 168720, Note_on_c, 10, 46, 0
11, 168720, Note_on_c, 10, 41, 89
11, 168960, Note_on_c, 10, 41, 0
11, 168960, Note_on_c, 10, 45, 113
11, 169200, Note_on_c, 10, 45, 0
11, 169200, Note_on_c, 10, 41, 90
11, 169440, Note_on_c, 10, 41, 0
11, 169440, Note_on_c, 10, 45, 112
11, 169680, Note_on_c, 10, 45, 0
11, 169680, Note_on_c, 10, 41, 83
11, 169920, Note_on_c, 10, 41, 0
11, 169920, Note_on_c, 10, 45, 67
11, 170160, Note_on_c, 10, 45, 0
11, 170160, Note_on_c, 10, 41, 53
11, 170400, Note_on_c, 10, 41, 0
11, 170400, Note_on_c, 10, 45, 65
11, 170640, Note_on_c, 10, 45, 0
11, 170640, Note_on_c, 10, 41, 57
11, 170880, Note_on_c, 10, 41, 0
11, 170880, Note_on_c, 10, 46, 72
11, 171349, Note_on_c, 10, 46, 0
11, 178077, Note_on_c, 10, 41, 50
11, 178560, Note_on_c, 10, 41, 0
11, 178560, Note_on_c, 10, 34, 54
11, 179040, Note_on_c, 10, 34, 0
11, 179993, Note_on_c, 10, 41, 54
11, 180480, Note_on_c, 10, 41, 0
11, 180480, Note_on_c, 10, 34, 46
11, 180956, Note_on_c, 10, 34, 0
11, 188162, Note_on_c, 10, 41, 93
11, 188641, Note_on_c, 10, 41, 0
11, 189362, Note_on_c, 10, 46, 85
11, 189481, Note_on_c, 10, 46, 0
11, 189602, Note_on_c, 10, 45, 97
11, 189721, Note_on_c, 10, 45, 0
11, 189842, Note_on_c, 10, 43, 87
11, 189961, Note_on_c, 10, 43, 0
11, 190086, Note_on_c, 10, 41, 86
11, 190562, Note_on_c, 10, 41, 0
11, 191280, Note_on_c, 10, 46, 89
11, 191397, Note_on_c, 10, 46, 0
11, 191520, Note_on_c, 10, 45, 85
11, 191637, Note_on_c, 10, 45, 0
11, 191760, Note_on_c, 10, 43, 98
11, 191877, Note_on_c, 10, 43, 0
11, 192000, Note_on_c, 10, 41, 89
11, 192480, Note_on_c, 10, 41, 0
11, 195836, Note_on_c, 10, 36, 54
11, 200165, Note_on_c, 10, 36, 0
11, 203520, Note_on_c, 10, 36, 59
11, 207360, Note_on_c, 10, 36, 0
11, 207370, Note_on_c, 10, 41, 75
11, 207846, Note_on_c, 10, 41, 0
11, 209280, Note_on_c, 10, 34, 50
11, 215040, Note_on_c, 10, 34, 0
11, 215040, Note_on_c, 10, 33, 60
11, 215996, Note_on_c, 10, 33, 0
11, 215996, Note_on_c, 10, 45, 71
11, 216960, Note_on_c, 10, 45, 0
11, 216962, Note_on_c, 10, 43, 56
11, 218880, Note_on_c, 10, 43, 0
11, 218880, Note_on_c, 10, 41, 58
11, 220800, Note_on_c, 10, 41, 0
11, 220800, Note_on_c, 10, 40, 55
11, 222720, Note_on_c, 10, 40, 0
11, 222721, Note_on_c, 10, 37, 54
11, 224640, Note_on_c, 10, 37, 0
11, 224640, Note_on_c, 10, 36, 53
11, 226456, Note_on_c, 10, 36, 0
11, 226560, Note_on_c, 10, 37, 62
11, 228480, Note_on_c, 10, 37, 0
11, 228480, Note_on_c, 10, 36, 64
11, 230296, Note_on_c, 10, 36, 0
11, 230400, Note_on_c, 10, 37, 69
11, 232320, Note_on_c, 10, 37, 0
11, 232320, Note_on_c, 10, 39, 62
11, 233277, Note_on_c, 10, 39, 0
11, 233277, Note_on_c, 10, 41, 64
11, 234136, Note_on_c, 10, 41, 0
11, 234240, Note_on_c, 10, 42, 67
11, 235200, Note_on_c, 10, 42, 0
11, 235200, Note_on_c, 10, 40, 60
11, 236056, Note_on_c, 10, 40, 0
11, 236160, Note_on_c, 10, 41, 71
11, 237120, Note_on_c, 10, 41, 0
11, 237120, Note_on_c, 10, 37, 51
11, 238080, Note_on_c, 10, 37, 0
11, 238080, Note_on_c, 10, 34, 57
11, 239040, Note_on_c, 10, 34, 0
11, 239040, Note_on_c, 10, 36, 64
11, 239896, Note_on_c, 10, 36, 0
11, 240000, Note_on_c, 10, 37, 70
11, 240480, Note_on_c, 10, 37, 0
11, 240960, Note_on_c, 10, 32, 56
11, 241440, Note_on_c, 10, 32, 0
11, 241920, Note_on_c, 10, 34, 57
11, 242402, Note_on_c, 10, 34, 0
11, 242880, Note_on_c, 10, 36, 59
11, 243338, Note_on_c, 10, 36, 0
11, 243829, Note_on_c, 10, 41, 54
11, 259694, Note_on_c, 10, 41, 0
11, 278393, Note_on_c, 10, 33, 55
11, 279356, Note_on_c, 10, 33, 0
11, 279356, Note_on_c, 10, 38, 73
11, 280320, Note_on_c, 10, 38, 0
11, 280325, Note_on_c, 10, 31, 56
11, 281282, Note_on_c, 10, 31, 0
11, 281282, Note_on_c, 10, 36, 70
11, 282240, Note_on_c, 10, 36, 0
11, 282240, Note_on_c, 10, 41, 62
11, 282473, Note_on_c, 10, 41, 0
11, 282716, Note_on_c, 10, 34, 51
11, 282956, Note_on_c, 10, 34, 0
11, 283196, Note_on_c, 10, 36, 58
11, 283436, Note_on_c, 10, 36, 0
11, 283676, Note_on_c, 10, 36, 60
11, 283916, Note_on_c, 10, 36, 0
11, 284157, Note_on_c, 10, 41, 52
11, 284636, Note_on_c, 10, 41, 0
11, 285121, Note_on_c, 10, 36, 48
11, 286080, Note_on_c, 10, 36, 0
11, 286080, Note_on_c, 10, 41, 67
11, 286560, Note_on_c, 10, 41, 0
11, 287040, Note_on_c, 10, 36, 54
11, 288000, Note_on_c, 10, 36, 0
11, 288000, Note_on_c, 10, 41, 60
11, 288477, Note_on_c, 10, 41, 0
11, 288960, Note_on_c, 10, 36, 55
11, 289920, Note_on_c, 10, 36, 0
11, 289920, Note_on_c, 10, 41, 67
11, 290392, Note_on_c, 10, 41, 0
11, 298556, Note_on_c, 10, 36, 54
11, 299520, Note_on_c, 10, 36, 0
11, 299520, Note_on_c, 10, 41, 69
11, 300000, Note_on_c, 10, 41, 0
11, 300480, Note_on_c, 10, 36, 48
11, 301440, Note_on_c, 10, 36, 0
11, 301440, Note_on_c, 10, 41, 66
11, 301920, Note_on_c, 10, 41, 0
11, 302400, Note_on_c, 10, 36, 56
11, 303360, Note_on_c, 10, 36, 0
11, 303360, Note_on_c, 10, 41, 63
11, 303833, Note_on_c, 10, 41, 0
11, 304320, Note_on_c, 10, 41, 49
11, 305280, Note_on_c, 10, 41, 0
11, 305290, Note_on_c, 10, 41, 61
11, 306246, Note_on_c, 10, 41, 0
11, 306246, Note_on_c, 10, 41, 61
11, 306486, Note_on_c, 10, 41, 0
11, 306725, Note_on_c, 10, 41, 56
11, 306965, Note_on_c, 10, 41, 0
11, 307205, Note_on_c, 10, 34, 53
11, 307685, Note_on_c, 10, 34, 0
11, 326397, Note_on_c, 10, 36, 47
11, 328565, Note_on_c, 10, 36, 0
11, 328565, Note_on_c, 10, 36, 69
11, 328805, Note_on_c, 10, 36, 0
11, 328805, Note_on_c, 10, 36, 86
11, 329045, Note_on_c, 10, 36, 0
11, 329045, Note_on_c, 10, 36, 69
11, 329281, Note_on_c, 10, 36, 0
11, 329281, Note_on_c, 10, 36, 83
11, 329521, Note_on_c, 10, 36, 0
11, 329521, Note_on_c, 10, 36, 88
11, 329760, Note_on_c, 10, 36, 0
11, 329760, Note_on_c, 10, 36, 96
11, 330000, Note_on_c, 10, 36, 0
11, 330000, Note_on_c, 10, 36, 98
11, 330240, Note_on_c, 10, 36, 0
11, 330240, Note_on_c, 10, 41, 92
11, 330353, Note_on_c, 10, 41, 0
11, 330480, Note_on_c, 10, 36, 71
11, 330597, Note_on_c, 10, 36, 0
11, 330720, Note_on_c, 10, 41, 92
11, 330837, Note_on_c, 10, 41, 0
11, 330960, Note_on_c, 10, 36, 82
11, 331077, Note_on_c, 10, 36, 0
11, 331200, Note_on_c, 10, 41, 92
11, 331317, Note_on_c, 10, 41, 0
11, 331440, Note_on_c, 10, 36, 67
11, 331557, Note_on_c, 10, 36, 0
11, 331680, Note_on_c, 10, 41, 94
11, 331797, Note_on_c, 10, 41, 0
11, 331920, Note_on_c, 10, 36, 75
11, 332037, Note_on_c, 10, 36, 0
11, 332160, Note_on_c, 10, 43, 97
11, 332277, Note_on_c, 10, 43, 0
11, 332400, Note_on_c, 10, 36, 65
11, 332517, Note_on_c, 10, 36, 0
11, 332640, Note_on_c, 10, 43, 91
11, 332757, Note_on_c, 10, 43, 0
11, 332880, Note_on_c, 10, 36, 76
11, 332997, Note_on_c, 10, 36, 0
11, 333120, Note_on_c, 10, 43, 103
11, 333237, Note_on_c, 10, 43, 0
11, 333360, Note_on_c, 10, 36, 76
11, 333477, Note_on_c, 10, 36, 0
11, 333600, Note_on_c, 10, 41, 87
11, 333717, Note_on_c, 10, 41, 0
11, 333840, Note_on_c, 10, 36, 73
11, 333957, Note_on_c, 10, 36, 0
11, 334080, Note_on_c, 10, 40, 94
11, 334197, Note_on_c, 10, 40, 0
11, 334320, Note_on_c, 10, 36, 75
11, 334437, Note_on_c, 10, 36, 0
11, 334560, Note_on_c, 10, 40, 89
11, 334677, Note_on_c, 10, 40, 0
11, 334800, Note_on_c, 10, 36, 86
11, 334917, Note_on_c, 10, 36, 0
11, 335040, Note_on_c, 10, 43, 98
11, 335157, Note_on_c, 10, 43, 0
11, 335280, Note_on_c, 10, 36, 72
11, 335397, Note_on_c, 10, 36, 0
11, 335520, Note_on_c, 10, 46, 103
11, 335637, Note_on_c, 10, 46, 0
11, 335760, Note_on_c, 10, 36, 62
11, 335877, Note_on_c, 10, 36, 0
11, 336000, Note_on_c, 10, 45, 94
11, 336117, Note_on_c, 10, 45, 0
11, 336240, Note_on_c, 10, 36, 68
11, 336357, Note_on_c, 10, 36, 0
11, 336480, Note_on_c, 10, 45, 95
11, 336597, Note_on_c, 10, 45, 0
11, 336720, Note_on_c, 10, 36, 67
11, 336837, Note_on_c, 10, 36, 0
11, 336960, Note_on_c, 10, 45, 100
11, 337077, Note_on_c, 10, 45, 0
11, 337200, Note_on_c, 10, 36, 66
11, 337317, Note_on_c, 10, 36, 0
11, 337440, Note_on_c, 10, 40, 87
11, 337557, Note_on_c, 10, 40, 0
11, 337680, Note_on_c, 10, 36, 83
11, 337797, Note_on_c, 10, 36, 0
11, 337920, Note_on_c, 10, 41, 90
11, 338037, Note_on_c, 10, 41, 0
11, 338160, Note_on_c, 10, 36, 78
11, 338277, Note_on_c, 10, 36, 0
11, 338400, Note_on_c, 10, 41, 93
11, 338517, Note_on_c, 10, 41, 0
11, 338640, Note_on_c, 10, 36, 79
11, 338757, Note_on_c, 10, 36, 0
11, 338880, Note_on_c, 10, 41, 91
11, 338997, Note_on_c, 10, 41, 0
11, 339120, Note_on_c, 10, 36, 80
11, 339237, Note_on_c, 10, 36, 0
11, 339360, Note_on_c, 10, 41, 91
11, 339477, Note_on_c, 10, 41, 0
11, 339600, Note_on_c, 10, 36, 79
11, 339717, Note_on_c, 10, 36, 0
11, 339840, Note_on_c, 10, 40, 89
11, 339957, Note_on_c, 10, 40, 0
11, 340080, Note_on_c, 10, 36, 71
11, 340197, Note_on_c, 10, 36, 0
11, 340320, Note_on_c, 10, 40, 95
11, 340437, Note_on_c, 10, 40, 0
11, 340560, Note_on_c, 10, 36, 74
11, 340677, Note_on_c, 10, 36, 0
11, 340800, Note_on_c, 10, 40, 88
11, 340917, Note_on_c, 10, 40, 0
11, 341040, Note_on_c, 10, 36, 77
11, 341157, Note_on_c, 10, 36, 0
11, 341280, Note_on_c, 10, 42, 101
11, 341397, Note_on_c, 10, 42, 0
11, 341520, Note_on_c, 10, 36, 76
11, 341637, Note_on_c, 10, 36, 0
11, 341760, Note_on_c, 10, 43, 98
11, 341877, Note_on_c, 10, 43, 0
11, 342000, Note_on_c, 10, 36, 71
11, 342117, Note_on_c, 10, 36, 0
11, 342240, Note_on_c, 10, 43, 102
11, 342357, Note_on_c, 10, 43, 0
11, 342480, Note_on_c, 10, 36, 71
11, 342597, Note_on_c, 10, 36, 0
11, 342720, Note_on_c, 10, 43, 89
11, 342837, Note_on_c, 10, 43, 0
11, 342960, Note_on_c, 10, 36, 74
11, 343077, Note_on_c, 10, 36, 0
11, 343200, Note_on_c, 10, 40, 88
11, 343317, Note_on_c, 10, 40, 0
11, 343440, Note_on_c, 10, 36, 74
11, 343557, Note_on_c, 10, 36, 0
11, 343680, Note_on_c, 10, 41, 89
11, 344160, Note_on_c, 10, 41, 0
11, 345596, Note_on_c, 10, 50, 79
11, 345712, Note_on_c, 10, 50, 0
11, 345840, Note_on_c, 10, 46, 75
11, 345957, Note_on_c, 10, 46, 0
11, 346080, Note_on_c, 10, 46, 88
11, 346560, Note_on_c, 10, 46, 0
11, 346560, Note_on_c, 10, 50, 93
11, 346677, Note_on_c, 10, 50, 0
11, 346789, Note_on_c, 10, 41, 69
11, 346908, Note_on_c, 10, 41, 0
11, 347014, Note_on_c, 10, 41, 81
11, 347520, Note_on_c, 10, 41, 0
11, 347520, Note_on_c, 10, 46, 96
11, 347626, Note_on_c, 10, 46, 0
11, 347748, Note_on_c, 10, 38, 70
11, 347866, Note_on_c, 10, 38, 0
11, 347992, Note_on_c, 10, 38, 82
11, 348109, Note_on_c, 10, 38, 0
11, 348232, Note_on_c, 10, 38, 82
11, 348349, Note_on_c, 10, 38, 0
11, 348476, Note_on_c, 10, 38, 89
11, 348593, Note_on_c, 10, 38, 0
11, 348716, Note_on_c, 10, 38, 89
11, 348833, Note_on_c, 10, 38, 0
11, 348960, Note_on_c, 10, 38, 84
11, 349077, Note_on_c, 10, 38, 0
11, 349200, Note_on_c, 10, 38, 84
11, 349317, Note_on_c, 10, 38, 0
11, 349440, Note_on_c, 10, 38, 82
11, 349677, Note_on_c, 10, 38, 0
11, 349920, Note_on_c, 10, 50, 108
11, 350157, Note_on_c, 10, 50, 0
11, 350400, Note_on_c, 10, 50, 92
11, 350637, Note_on_c, 10, 50, 0
11, 350880, Note_on_c, 10, 50, 90
11, 351117, Note_on_c, 10, 50, 0
11, 351360, Note_on_c, 10, 50, 82
11, 351840, Note_on_c, 10, 50, 0
11, 357120, Note_on_c, 10, 48, 72
11, 359040, Note_on_c, 10, 48, 0
11, 359040, Note_on_c, 10, 36, 62
11, 360960, Note_on_c, 10, 36, 0
11, 360960, Note_on_c, 10, 41, 99
11, 361428, Note_on_c, 10, 41, 0
11, 362169, Note_on_c, 10, 46, 87
11, 362409, Note_on_c, 10, 46, 0
11, 362409, Note_on_c, 10, 45, 88
11, 362649, Note_on_c, 10, 45, 0
11, 362649, Note_on_c, 10, 43, 93
11, 362880, Note_on_c, 10, 43, 0
11, 362886, Note_on_c, 10, 41, 93
11, 363362, Note_on_c, 10, 41, 0
11, 364080, Note_on_c, 10, 46, 86
11, 364320, Note_on_c, 10, 46, 0
11, 364320, Note_on_c, 10, 45, 87
11, 364560, Note_on_c, 10, 45, 0
11, 364560, Note_on_c, 10, 43, 90
11, 364800, Note_on_c, 10, 43, 0
11, 364800, Note_on_c, 10, 41, 85
11, 365037, Note_on_c, 10, 41, 0
11, 365280, Note_on_c, 10, 41, 94
11, 365517, Note_on_c, 10, 41, 0
11, 365760, Note_on_c, 10, 29, 71
11, 366240, Note_on_c, 10, 29, 0
11, 376320, Note_on_c, 10, 41, 41
11, 377280, Note_on_c, 10, 41, 0
11, 377280, Note_on_c, 10, 38, 53
11, 378136, Note_on_c, 10, 38, 0
11, 378240, Note_on_c, 10, 34, 40
11, 379096, Note_on_c, 10, 34, 0
11, 379200, Note_on_c, 10, 36, 46
11, 380041, Note_on_c, 10, 36, 0
11, 380152, Note_on_c, 10, 33, 47
11, 381117, Note_on_c, 10, 33, 0
11, 381117, Note_on_c, 10, 34, 48
11, 381966, Note_on_c, 10, 34, 0
11, 382076, Note_on_c, 10, 31, 49
11, 383040, Note_on_c, 10, 31, 0
11, 383040, Note_on_c, 10, 33, 58
11, 384000, Note_on_c, 10, 33, 0
11, 384000, Note_on_c, 10, 38, 60
11, 384232, Note_on_c, 10, 38, 0
11, 403206, Note_on_c, 10, 51, 54
11, 404162, Note_on_c, 10, 51, 0
11, 404162, Note_on_c, 10, 50, 56
11, 405016, Note_on_c, 10, 50, 0
11, 405120, Note_on_c, 10, 51, 64
11, 405600, Note_on_c, 10, 51, 0
11, 407046, Note_on_c, 10, 50, 59
11, 408002, Note_on_c, 10, 50, 0
11, 408002, Note_on_c, 10, 51, 64
11, 408860, Note_on_c, 10, 51, 0
11, 408962, Note_on_c, 10, 50, 53
11, 409440, Note_on_c, 10, 50, 0
11, 410889, Note_on_c, 10, 42, 50
11, 411842, Note_on_c, 10, 42, 0
11, 411842, Note_on_c, 10, 41, 46
11, 412800, Note_on_c, 10, 41, 0
11, 412800, Note_on_c, 10, 39, 49
11, 413760, Note_on_c, 10, 39, 0
11, 413760, Note_on_c, 10, 41, 53
11, 414616, Note_on_c, 10, 41, 0
11, 414720, Note_on_c, 10, 42, 51
11, 415680, Note_on_c, 10, 42, 0
11, 415680, Note_on_c, 10, 41, 50
11, 416640, Note_on_c, 10, 41, 0
11, 416640, Note_on_c, 10, 40, 51
11, 417600, Note_on_c, 10, 40, 0
11, 417600, Note_on_c, 10, 41, 51
11, 418560, Note_on_c, 10, 41, 0
11, 418560, Note_on_c, 10, 42, 52
11, 419520, Note_on_c, 10, 42, 0
11, 419520, Note_on_c, 10, 38, 46
11, 420480, Note_on_c, 10, 38, 0
11, 420480, Note_on_c, 10, 39, 50
11, 421440, Note_on_c, 10, 39, 0
11, 421440, Note_on_c, 10, 41, 57
11, 422400, Note_on_c, 10, 41, 0
11, 422400, Note_on_c, 10, 42, 48
11, 424320, Note_on_c, 10, 42, 0
11, 424320, Note_on_c, 10, 41, 54
11, 424789, Note_on_c, 10, 41, 0
11, 426250, Note_on_c, 10, 41, 51
11, 428637, Note_on_c, 10, 41, 0
11, 430082, Note_on_c, 10, 41, 56
11, 432480, Note_on_c, 10, 41, 0
11, 443513, Note_on_c, 10, 46, 53
11, 443993, Note_on_c, 10, 46, 0
11, 444960, Note_on_c, 10, 46, 58
11, 445440, Note_on_c, 10, 46, 0
11, 445440, Note_on_c, 10, 41, 47
11, 445920, Note_on_c, 10, 41, 0
11, 445920, Note_on_c, 10, 34, 49
11, 446400, Note_on_c, 10, 34, 0
11, 447360, Note_on_c, 10, 41, 49
11, 447840, Note_on_c, 10, 41, 0
11, 448800, Note_on_c, 10, 41, 49
11, 449280, Note_on_c, 10, 41, 0
11, 449280, Note_on_c, 10, 46, 73
11, 449760, Note_on_c, 10, 46, 0
11, 449760, Note_on_c, 10, 41, 50
11, 450240, Note_on_c, 10, 41, 0
11, 451200, Note_on_c, 10, 34, 53
11, 451680, Note_on_c, 10, 34, 0
11, 452160, Note_on_c, 10, 36, 56
11, 452640, Note_on_c, 10, 36, 0
11, 453120, Note_on_c, 10, 38, 78
11, 453600, Note_on_c, 10, 38, 0
11, 455036, Note_on_c, 10, 39, 63
11, 456468, Note_on_c, 10, 39, 0
11, 456468, Note_on_c, 10, 40, 64
11, 456850, Note_on_c, 10, 40, 0
11, 456953, Note_on_c, 10, 41, 62
11, 457432, Note_on_c, 10, 41, 0
11, 472320, Note_on_c, 10, 46, 52
11, 473280, Note_on_c, 10, 46, 0
11, 473280, Note_on_c, 10, 39, 47
11, 474240, Note_on_c, 10, 39, 0
11, 474240, Note_on_c, 10, 41, 63
11, 476160, Note_on_c, 10, 41, 0
11, 476160, Note_on_c, 10, 46, 110
11, 476273, Note_on_c, 10, 46, 0
11, 476400, Note_on_c, 10, 41, 90
11, 476517, Note_on_c, 10, 41, 0
11, 476640, Note_on_c, 10, 46, 101
11, 476757, Note_on_c, 10, 46, 0
11, 476880, Note_on_c, 10, 41, 91
11, 476997, Note_on_c, 10, 41, 0
11, 477120, Note_on_c, 10, 46, 112
11, 477237, Note_on_c, 10, 46, 0
11, 477360, Note_on_c, 10, 41, 95
11, 477477, Note_on_c, 10, 41, 0
11, 477600, Note_on_c, 10, 46, 112
11, 477717, Note_on_c, 10, 46, 0
11, 477840, Note_on_c, 10, 41, 93
11, 477957, Note_on_c, 10, 41, 0
11, 478080, Note_on_c, 10, 48, 114
11, 478197, Note_on_c, 10, 48, 0
11, 478320, Note_on_c, 10, 41, 82
11, 478437, Note_on_c, 10, 41, 0
11, 478560, Note_on_c, 10, 48, 114
11, 478677, Note_on_c, 10, 48, 0
11, 478800, Note_on_c, 10, 41, 81
11, 478917, Note_on_c, 10, 41, 0
11, 479040, Note_on_c, 10, 48, 110
11, 479157, Note_on_c, 10, 48, 0
11, 479280, Note_on_c, 10, 41, 83
11, 479397, Note_on_c, 10, 41, 0
11, 479520, Note_on_c, 10, 46, 107
11, 479637, Note_on_c, 10, 46, 0
11, 479760, Note_on_c, 10, 41, 92
11, 479877, Note_on_c, 10, 41, 0
11, 480000, Note_on_c, 10, 45, 102
11, 480117, Note_on_c, 10, 45, 0
11, 480240, Note_on_c, 10, 41, 88
11, 480357, Note_on_c, 10, 41, 0
11, 480480, Note_on_c, 10, 45, 102
11, 480597, Note_on_c, 10, 45, 0
11, 480720, Note_on_c, 10, 41, 86
11, 480837, Note_on_c, 10, 41, 0
11, 480960, Note_on_c, 10, 45, 109
11, 481077, Note_on_c, 10, 45, 0
11, 481200, Note_on_c, 10, 41, 90
11, 481317, Note_on_c, 10, 41, 0
11, 481440, Note_on_c, 10, 45, 108
11, 481557, Note_on_c, 10, 45, 0
11, 481680, Note_on_c, 10, 41, 86
11, 481797, Note_on_c, 10, 41, 0
11, 481920, Note_on_c, 10, 46, 108
11, 482037, Note_on_c, 10, 46, 0
11, 482160, Note_on_c, 10, 41, 90
11, 482277, Note_on_c, 10, 41, 0
11, 482400, Note_on_c, 10, 46, 96
11, 482517, Note_on_c, 10, 46, 0
11, 482640, Note_on_c, 10, 41, 86
11, 482757, Note_on_c, 10, 41, 0
11, 482880, Note_on_c, 10, 46, 111
11, 482997, Note_on_c, 10, 46, 0
11, 483120, Note_on_c, 10, 41, 88
11, 483237, Note_on_c, 10, 41, 0
11, 483360, Note_on_c, 10, 46, 108
11, 483477, Note_on_c, 10, 46, 0
11, 483600, Note_on_c, 10, 41, 95
11, 483717, Note_on_c, 10, 41, 0
11, 483840, Note_on_c, 10, 48, 106
11, 483957, Note_on_c, 10, 48, 0
11, 484080, Note_on_c, 10, 41, 82
11, 484197, Note_on_c, 10, 41, 0
11, 484320, Note_on_c, 10, 48, 104
11, 484437, Note_on_c, 10, 48, 0
11, 484560, Note_on_c, 10, 41, 87
11, 484677, Note_on_c, 10, 41, 0
11, 484800, Note_on_c, 10, 48, 108
11, 484917, Note_on_c, 10, 48, 0
11, 485040, Note_on_c, 10, 41, 78
11, 485157, Note_on_c, 10, 41, 0
11, 485280, Note_on_c, 10, 46, 105
11, 485397, Note_on_c, 10, 46, 0
11, 485520, Note_on_c, 10, 41, 94
11, 485637, Note_on_c, 10, 41, 0
11, 485760, Note_on_c, 10, 45, 106
11, 485877, Note_on_c, 10, 45, 0
11, 486000, Note_on_c, 10, 41, 87
11, 486117, Note_on_c, 10, 41, 0
11, 486240, Note_on_c, 10, 45, 109
11, 486357, Note_on_c, 10, 45, 0
11, 486480, Note_on_c, 10, 41, 83
11, 486597, Note_on_c, 10, 41, 0
11, 486720, Note_on_c, 10, 45, 105
11, 486837, Note_on_c, 10, 45, 0
11, 486960, Note_on_c, 10, 41, 90
11, 487077, Note_on_c, 10, 41, 0
11, 487200, Note_on_c, 10, 45, 105
11, 487317, Note_on_c, 10, 45, 0
11, 487440, Note_on_c, 10, 41, 81
11, 487557, Note_on_c, 10, 41, 0
11, 487680, Note_on_c, 10, 46, 112
11, 488160, Note_on_c, 10, 46, 0
11, 489600, Note_on_c, 10, 53, 91
11, 489717, Note_on_c, 10, 53, 0
11, 489840, Note_on_c, 10, 46, 74
11, 489957, Note_on_c, 10, 46, 0
11, 490080, Note_on_c, 10, 46, 96
11, 490560, Note_on_c, 10, 46, 0
11, 490560, Note_on_c, 10, 50, 105
11, 490677, Note_on_c, 10, 50, 0
11, 490788, Note_on_c, 10, 41, 83
11, 490906, Note_on_c, 10, 41, 0
11, 491014, Note_on_c, 10, 41, 97
11, 491520, Note_on_c, 10, 41, 0
11, 491520, Note_on_c, 10, 46, 110
11, 491626, Note_on_c, 10, 46, 0
11, 491748, Note_on_c, 10, 38, 82
11, 491866, Note_on_c, 10, 38, 0
11, 491992, Note_on_c, 10, 38, 93
11, 492720, Note_on_c, 10, 38, 0
11, 492720, Note_on_c, 10, 40, 96
11, 492840, Note_on_c, 10, 40, 0
11, 492840, Note_on_c, 10, 41, 101
11, 492960, Note_on_c, 10, 41, 0
11, 492960, Note_on_c, 10, 43, 105
11, 493200, Note_on_c, 10, 43, 0
11, 493200, Note_on_c, 10, 40, 97
11, 493440, Note_on_c, 10, 40, 0
11, 493440, Note_on_c, 10, 41, 99
11, 493916, Note_on_c, 10, 41, 0
11, 497280, Note_on_c, 10, 41, 47
11, 501606, Note_on_c, 10, 41, 0
11, 504960, Note_on_c, 10, 41, 47
11, 508800, Note_on_c, 10, 41, 0
11, 508810, Note_on_c, 10, 34, 41
11, 509289, Note_on_c, 10, 34, 0
11, 510720, Note_on_c, 10, 39, 50
11, 516480, Note_on_c, 10, 39, 0
11, 516480, Note_on_c, 10, 38, 41
11, 518400, Note_on_c, 10, 38, 0
11, 518402, Note_on_c, 10, 36, 44
11, 520320, Note_on_c, 10, 36, 0
11, 520320, Note_on_c, 10, 34, 53
11, 522240, Note_on_c, 10, 34, 0
11, 522240, Note_on_c, 10, 33, 50
11, 524160, Note_on_c, 10, 33, 0
11, 524162, Note_on_c, 10, 42, 55
11, 526080, Note_on_c, 10, 42, 0
11, 526080, Note_on_c, 10, 41, 51
11, 528000, Note_on_c, 10, 41, 0
11, 528000, Note_on_c, 10, 42, 49
11, 529920, Note_on_c, 10, 42, 0
11, 529920, Note_on_c, 10, 41, 47
11, 531840, Note_on_c, 10, 41, 0
11, 531840, Note_on_c, 10, 42, 49
11, 533760, Note_on_c, 10, 42, 0
11, 533760, Note_on_c, 10, 44, 56
11, 534717, Note_on_c, 10, 44, 0
11, 534717, Note_on_c, 10, 46, 53
11, 535576, Note_on_c, 10, 46, 0
11, 535680, Note_on_c, 10, 47, 47
11, 536640, Note_on_c, 10, 47, 0
11, 536640, Note_on_c, 10, 45, 47
11, 537496, Note_on_c, 10, 45, 0
11, 537600, Note_on_c, 10, 46, 52
11, 538560, Note_on_c, 10, 46, 0
11, 538560, Note_on_c, 10, 42, 43
11, 539520, Note_on_c, 10, 42, 0
11, 539520, Note_on_c, 10, 39, 42
11, 540480, Note_on_c, 10, 39, 0
11, 540480, Note_on_c, 10, 41, 46
11, 541336, Note_on_c, 10, 41, 0
11, 541440, Note_on_c, 10, 42, 54
11, 541920, Note_on_c, 10, 42, 0
11, 542400, Note_on_c, 10, 37, 45
11, 542881, Note_on_c, 10, 37, 0
11, 543360, Note_on_c, 10, 39, 36
11, 543842, Note_on_c, 10, 39, 0
11, 544320, Note_on_c, 10, 41, 46
11, 544784, Note_on_c, 10, 41, 0
11, 545273, Note_on_c, 10, 34, 40
11, 561132, Note_on_c, 10, 34, 0
11, 579836, Note_on_c, 10, 38, 58
11, 580800, Note_on_c, 10, 38, 0
11, 580800, Note_on_c, 10, 43, 65
11, 581760, Note_on_c, 10, 43, 0
11, 581761, Note_on_c, 10, 36, 54
11, 582721, Note_on_c, 10, 36, 0
11, 582721, Note_on_c, 10, 41, 67
11, 583680, Note_on_c, 10, 41, 0
11, 583680, Note_on_c, 10, 46, 71
11, 583912, Note_on_c, 10, 46, 0
11, 584152, Note_on_c, 10, 39, 60
11, 584396, Note_on_c, 10, 39, 0
11, 584636, Note_on_c, 10, 41, 56
11, 584876, Note_on_c, 10, 41, 0
11, 585116, Note_on_c, 10, 29, 50
11, 585356, Note_on_c, 10, 29, 0
11, 585597, Note_on_c, 10, 34, 59
11, 586080, Note_on_c, 10, 34, 0
11, 586560, Note_on_c, 10, 41, 51
11, 587520, Note_on_c, 10, 41, 0
11, 587520, Note_on_c, 10, 46, 70
11, 587901, Note_on_c, 10, 46, 0
11, 588480, Note_on_c, 10, 41, 58
11, 589440, Note_on_c, 10, 41, 0
11, 589440, Note_on_c, 10, 46, 61
11, 589810, Note_on_c, 10, 46, 0
11, 590400, Note_on_c, 10, 41, 56
11, 591360, Note_on_c, 10, 41, 0
11, 591360, Note_on_c, 10, 46, 69
11, 591730, Note_on_c, 10, 46, 0
11, 600000, Note_on_c, 10, 41, 56
11, 600960, Note_on_c, 10, 41, 0
11, 600960, Note_on_c, 10, 46, 65
11, 601341, Note_on_c, 10, 46, 0
11, 601920, Note_on_c, 10, 41, 56
11, 602880, Note_on_c, 10, 41, 0
11, 602880, Note_on_c, 10, 46, 67
11, 603258, Note_on_c, 10, 46, 0
11, 603840, Note_on_c, 10, 41, 54
11, 604800, Note_on_c, 10, 41, 0
11, 604800, Note_on_c, 10, 46, 61
11, 605176, Note_on_c, 10, 46, 0
11, 605760, Note_on_c, 10, 46, 48
11, 606720, Note_on_c, 10, 46, 0
11, 606722, Note_on_c, 10, 46, 55
11, 607682, Note_on_c, 10, 46, 0
11, 607682, Note_on_c, 10, 46, 66
11, 607922, Note_on_c, 10, 46, 0
11, 608162, Note_on_c, 10, 44, 54
11, 608401, Note_on_c, 10, 44, 0
11, 608642, Note_on_c, 10, 43, 50
11, 608882, Note_on_c, 10, 43, 0
11, 609601, Note_on_c, 10, 48, 51
11, 609840, Note_on_c, 10, 48, 0
11, 610560, Note_on_c, 10, 42, 57
11, 610800, Note_on_c, 10, 42, 0
11, 611520, Note_on_c, 10, 43, 55
11, 611760, Note_on_c, 10, 43, 0
11, 629757, Note_on_c, 10, 40, 58
11, 631680, Note_on_c, 10, 40, 0
11, 631685, Note_on_c, 10, 43, 60
11, 633482, Note_on_c, 10, 43, 0
11, 633596, Note_on_c, 10, 41, 64
11, 639845, Note_on_c, 10, 41, 0
11, 643197, Note_on_c, 10, 41, 56
11, 643436, Note_on_c, 10, 41, 0
11, 643436, Note_on_c, 10, 41, 55
11, 643676, Note_on_c, 10, 41, 0
11, 643676, Note_on_c, 10, 41, 67
11, 643916, Note_on_c, 10, 41, 0
11, 643916, Note_on_c, 10, 41, 63
11, 644160, Note_on_c, 10, 41, 0
11, 644160, Note_on_c, 10, 41, 76
11, 644400, Note_on_c, 10, 41, 0
11, 644400, Note_on_c, 10, 41, 77
11, 644640, Note_on_c, 10, 41, 0
11, 644640, Note_on_c, 10, 41, 90
11, 644880, Note_on_c, 10, 41, 0
11, 644880, Note_on_c, 10, 41, 84
11, 645120, Note_on_c, 10, 41, 0
11, 645120, Note_on_c, 10, 46, 90
11, 645237, Note_on_c, 10, 46, 0
11, 645360, Note_on_c, 10, 41, 102
11, 645477, Note_on_c, 10, 41, 0
11, 645600, Note_on_c, 10, 46, 117
11, 645717, Note_on_c, 10, 46, 0
11, 645840, Note_on_c, 10, 41, 99
11, 645957, Note_on_c, 10, 41, 0
11, 646080, Note_on_c, 10, 46, 124
11, 646197, Note_on_c, 10, 46, 0
11, 646320, Note_on_c, 10, 41, 95
11, 646437, Note_on_c, 10, 41, 0
11, 646560, Note_on_c, 10, 46, 121
11, 646677, Note_on_c, 10, 46, 0
11, 646800, Note_on_c, 10, 41, 97
11, 646917, Note_on_c, 10, 41, 0
11, 647040, Note_on_c, 10, 48, 126
11, 647157, Note_on_c, 10, 48, 0
11, 647280, Note_on_c, 10, 41, 97
11, 647397, Note_on_c, 10, 41, 0
11, 647520, Note_on_c, 10, 48, 126
11, 647637, Note_on_c, 10, 48, 0
11, 647760, Note_on_c, 10, 41, 93
11, 647877, Note_on_c, 10, 41, 0
11, 648000, Note_on_c, 10, 48, 124
11, 648117, Note_on_c, 10, 48, 0
11, 648240, Note_on_c, 10, 41, 94
11, 648357, Note_on_c, 10, 41, 0
11, 648480, Note_on_c, 10, 46, 124
11, 648597, Note_on_c, 10, 46, 0
11, 648720, Note_on_c, 10, 41, 101
11, 648837, Note_on_c, 10, 41, 0
11, 648960, Note_on_c, 10, 45, 118
11, 649077, Note_on_c, 10, 45, 0
11, 649200, Note_on_c, 10, 41, 95
11, 649317, Note_on_c, 10, 41, 0
11, 649440, Note_on_c, 10, 45, 119
11, 649557, Note_on_c, 10, 45, 0
11, 649680, Note_on_c, 10, 41, 98
11, 649797, Note_on_c, 10, 41, 0
11, 649920, Note_on_c, 10, 48, 126
11, 650037, Note_on_c, 10, 48, 0
11, 650160, Note_on_c, 10, 41, 85
11, 650277, Note_on_c, 10, 41, 0
11, 650400, Note_on_c, 10, 51, 126
11, 650517, Note_on_c, 10, 51, 0
11, 650640, Note_on_c, 10, 41, 91
11, 650757, Note_on_c, 10, 41, 0
11, 650880, Note_on_c, 10, 50, 126
11, 650997, Note_on_c, 10, 50, 0
11, 651120, Note_on_c, 10, 41, 81
11, 651237, Note_on_c, 10, 41, 0
11, 651360, Note_on_c, 10, 50, 126
11, 651477, Note_on_c, 10, 50, 0
11, 651600, Note_on_c, 10, 41, 85
11, 651717, Note_on_c, 10, 41, 0
11, 651840, Note_on_c, 10, 50, 126
11, 651957, Note_on_c, 10, 50, 0
11, 652080, Note_on_c, 10, 41, 91
11, 652197, Note_on_c, 10, 41, 0
11, 652320, Note_on_c, 10, 45, 115
11, 652437, Note_on_c, 10, 45, 0
11, 652560, Note_on_c, 10, 41, 99
11, 652677, Note_on_c, 10, 41, 0
11, 652800, Note_on_c, 10, 46, 116
11, 652917, Note_on_c, 10, 46, 0
11, 653040, Note_on_c, 10, 41, 101
11, 653157, Note_on_c, 10, 41, 0
11, 653280, Note_on_c, 10, 46, 117
11, 653397, Note_on_c, 10, 46, 0
11, 653520, Note_on_c, 10, 41, 96
11, 653637, Note_on_c, 10, 41, 0
11, 653760, Note_on_c, 10, 46, 118
11, 653877, Note_on_c, 10, 46, 0
11, 654000, Note_on_c, 10, 41, 106
11, 654117, Note_on_c, 10, 41, 0
11, 654240, Note_on_c, 10, 46, 123
11, 654357, Note_on_c, 10, 46, 0
11, 654480, Note_on_c, 10, 41, 99
11, 654597, Note_on_c, 10, 41, 0
11, 654720, Note_on_c, 10, 45, 114
11, 654837, Note_on_c, 10, 45, 0
11, 654960, Note_on_c, 10, 41, 97
11, 655077, Note_on_c, 10, 41, 0
11, 655200, Note_on_c, 10, 45, 119
11, 655317, Note_on_c, 10, 45, 0
11, 655440, Note_on_c, 10, 41, 102
11, 655557, Note_on_c, 10, 41, 0
11, 655680, Note_on_c, 10, 45, 117
11, 655797, Note_on_c, 10, 45, 0
11, 655920, Note_on_c, 10, 41, 97
11, 656037, Note_on_c, 10, 41, 0
11, 656160, Note_on_c, 10, 47, 126
11, 656277, Note_on_c, 10, 47, 0
11, 656400, Note_on_c, 10, 41, 98
11, 656517, Note_on_c, 10, 41, 0
11, 656640, Note_on_c, 10, 48, 123
11, 656757, Note_on_c, 10, 48, 0
11, 656880, Note_on_c, 10, 41, 88
11, 656997, Note_on_c, 10, 41, 0
11, 657120, Note_on_c, 10, 48, 126
11, 657237, Note_on_c, 10, 48, 0
11, 657360, Note_on_c, 10, 41, 89
11, 657477, Note_on_c, 10, 41, 0
11, 657600, Note_on_c, 10, 48, 124
11, 657717, Note_on_c, 10, 48, 0
11, 657840, Note_on_c, 10, 41, 96
11, 657957, Note_on_c, 10, 41, 0
11, 658080, Note_on_c, 10, 45, 118
11, 658197, Note_on_c, 10, 45, 0
11, 658320, Note_on_c, 10, 41, 100
11, 658437, Note_on_c, 10, 41, 0
11, 658560, Note_on_c, 10, 46, 117
11, 659040, Note_on_c, 10, 46, 0
11, 660480, Note_on_c, 10, 53, 95
11, 660597, Note_on_c, 10, 53, 0
11, 660720, Note_on_c, 10, 46, 91
11, 660837, Note_on_c, 10, 46, 0
11, 660960, Note_on_c, 10, 46, 103
11, 661440, Note_on_c, 10, 46, 0
11, 661440, Note_on_c, 10, 50, 121
11, 661557, Note_on_c, 10, 50, 0
11, 661668, Note_on_c, 10, 41, 87
11, 661786, Note_on_c, 10, 41, 0
11, 661894, Note_on_c, 10, 41, 97
11, 662400, Note_on_c, 10, 41, 0
11, 662400, Note_on_c, 10, 46, 116
11, 662506, Note_on_c, 10, 46, 0
11, 662628, Note_on_c, 10, 38, 92
11, 662746, Note_on_c, 10, 38, 0
11, 662872, Note_on_c, 10, 38, 99
11, 663600, Note_on_c, 10, 38, 0
11, 663600, Note_on_c, 10, 40, 114
11, 663720, Note_on_c, 10, 40, 0
11, 663720, Note_on_c, 10, 41, 109
11, 663840, Note_on_c, 10, 41, 0
11, 663840, Note_on_c, 10, 43, 119
11, 664080, Note_on_c, 10, 43, 0
11, 664080, Note_on_c, 10, 40, 107
11, 664320, Note_on_c, 10, 40, 0
11, 664320, Note_on_c, 10, 41, 113
11, 664800, Note_on_c, 10, 41, 0
11, 664800, Note_on_c, 10, 43, 117
11, 665280, Note_on_c, 10, 43, 0
11, 665280, Note_on_c, 10, 41, 101
11, 665761, Note_on_c, 10, 41, 0
11, 665761, Note_on_c, 10, 40, 103
11, 666240, Note_on_c, 10, 40, 0
11, 666241, Note_on_c, 10, 41, 127
11, 667200, Note_on_c, 10, 41, 0
11, 744957, Note_on_c, 10, 46, 98
11, 745196, Note_on_c, 10, 46, 0
11, 745196, Note_on_c, 10, 46, 90
11, 745436, Note_on_c, 10, 46, 0
11, 745436, Note_on_c, 10, 46, 96
11, 745677, Note_on_c, 10, 46, 0
11, 745677, Note_on_c, 10, 50, 107
11, 745917, Note_on_c, 10, 50, 0
11, 745917, Note_on_c, 10, 41, 87
11, 746157, Note_on_c, 10, 41, 0
11, 746157, Note_on_c, 10, 41, 96
11, 746400, Note_on_c, 10, 41, 0
11, 746400, Note_on_c, 10, 41, 100
11, 746640, Note_on_c, 10, 41, 0
11, 746640, Note_on_c, 10, 43, 104
11, 746760, Note_on_c, 10, 43, 0
11, 746760, Note_on_c, 10, 45, 112
11, 746880, Note_on_c, 10, 45, 0
11, 746880, Note_on_c, 10, 46, 106
11, 747117, Note_on_c, 10, 46, 0
11, 747117, Note_on_c, 10, 34, 67
11, 747357, Note_on_c, 10, 34, 0
11, 747357, Note_on_c, 10, 34, 92
11, 747477, Note_on_c, 10, 34, 0
11, 747477, Note_on_c, 10, 36, 105
11, 747600, Note_on_c, 10, 36, 0
11, 747600, Note_on_c, 10, 38, 110
11, 747720, Note_on_c, 10, 38, 0
11, 747720, Note_on_c, 10, 39, 113
11, 747840, Note_on_c, 10, 39, 0
11, 747840, Note_on_c, 10, 41, 112
11, 748082, Note_on_c, 10, 41, 0
11, 748082, Note_on_c, 10, 41, 93
11, 748329, Note_on_c, 10, 41, 0
11, 748329, Note_on_c, 10, 41, 95
11, 748572, Note_on_c, 10, 41, 0
11, 748572, Note_on_c, 10, 43, 106
11, 748696, Note_on_c, 10, 43, 0
11, 748696, Note_on_c, 10, 45, 105
11, 748800, Note_on_c, 10, 45, 0
11, 748810, Note_on_c, 10, 46, 100
11, 749049, Note_on_c, 10, 46, 0
11, 749049, Note_on_c, 10, 46, 99
11, 749285, Note_on_c, 10, 46, 0
11, 749285, Note_on_c, 10, 46, 100
11, 749526, Note_on_c, 10, 46, 0
11, 749526, Note_on_c, 10, 45, 95
11, 749646, Note_on_c, 10, 45, 0
11, 749646, Note_on_c, 10, 43, 93
11, 749769, Note_on_c, 10, 43, 0
11, 749769, Note_on_c, 10, 41, 87
11, 750241, Note_on_c, 10, 41, 0
11, 750709, Note_on_c, 10, 38, 56
11, 751676, Note_on_c, 10, 38, 0
11, 751676, Note_on_c, 10, 43, 68
11, 752640, Note_on_c, 10, 43, 0
11, 752640, Note_on_c, 10, 36, 46
11, 753601, Note_on_c, 10, 36, 0
11, 753601, Note_on_c, 10, 41, 71
11, 754560, Note_on_c, 10, 41, 0
11, 754561, Note_on_c, 10, 34, 54
11, 755041, Note_on_c, 10, 34, 0
11, 755041, Note_on_c, 10, 39, 61
11, 755520, Note_on_c, 10, 39, 0
11, 755520, Note_on_c, 10, 41, 61
11, 756000, Note_on_c, 10, 41, 0
11, 756000, Note_on_c, 10, 29, 45
11, 756480, Note_on_c, 10, 29, 0
11, 762240, Note_on_c, 10, 38, 44
11, 764160, Note_on_c, 10, 38, 0
11, 764160, Note_on_c, 10, 34, 47
11, 766080, Note_on_c, 10, 34, 0
11, 766080, Note_on_c, 10, 41, 54
11, 766560, Note_on_c, 10, 41, 0
11, 767969, Note_on_c, 10, 34, 84
11, 768466, Note_on_c, 10, 34, 0
11, 769210, Note_on_c, 10, 39, 88
11, 769450, Note_on_c, 10, 39, 0
11, 769450, Note_on_c, 10, 38, 89
11, 769690, Note_on_c, 10, 38, 0
11, 769690, Note_on_c, 10, 36, 94
11, 769920, Note_on_c, 10, 36, 0
11, 769929, Note_on_c, 10, 34, 89
11, 770402, Note_on_c, 10, 34, 0
11, 771122, Note_on_c, 10, 39, 94
11, 771362, Note_on_c, 10, 39, 0
11, 771362, Note_on_c, 10, 38, 86
11, 771601, Note_on_c, 10, 38, 0
11, 771601, Note_on_c, 10, 36, 92
11, 771840, Note_on_c, 10, 36, 0
11, 771841, Note_on_c, 10, 34, 89
11, 772080, Note_on_c, 10, 34, 0
11, 772320, Note_on_c, 10, 46, 122
11, 772557, Note_on_c, 10, 46, 0
11, 772800, Note_on_c, 10, 34, 76
11, 773037, Note_on_c, 10, 34, 0
11, 773280, Note_on_c, 10, 34, 95
11, 773517, Note_on_c, 10, 34, 0
11, 773760, Note_on_c, 10, 34, 108
11, 774602, Note_on_c, 10, 34, 0
11, 774602, End_track
12, 0, Start_track
12, 0, Title_t, "String effects"
12, 0, Program_c, 11, 48
12, 0, Control_c, 11, 7, 100
12, 0, Control_c, 11, 10, 16
12, 0, Program_c, 11, 48
12, 0, Control_c, 11, 7, 100
12, 0, Control_c, 11, 121, 0
12, 0, Control_c, 11, 91, 60
12, 0, Control_c, 11, 7, 95
12, 0, Control_c, 11, 10, 112
12, 0, Control_c, 11, 121, 0
12, 0, Control_c, 11, 91, 60
12, 0, Control_c, 11, 7, 90
12, 0, Control_c, 11, 10, 32
12, 0, Control_c, 11, 121, 0
12, 0, Control_c, 11, 91, 76
12, 0, Control_c, 11, 7, 90
12, 0, Control_c, 11, 10, 96
12, 0, Control_c, 11, 121, 0
12, 0, Control_c, 11, 91, 91
12, 51841, Note_on_c, 11, 63, 53
12, 51841, Note_on_c, 11, 58, 54
12, 51841, Note_on_c, 11, 42, 55
12, 52320, Note_on_c, 11, 42, 0
12, 52320, Note_on_c, 11, 58, 0
12, 52320, Note_on_c, 11, 63, 0
12, 55680, Note_on_c, 11, 63, 56
12, 55680, Note_on_c, 11, 58, 57
12, 55680, Note_on_c, 11, 42, 53
12, 56160, Note_on_c, 11, 42, 0
12, 56160, Note_on_c, 11, 58, 0
12, 56160, Note_on_c, 11, 63, 0
12, 59516, Note_on_c, 11, 63, 52
12, 59516, Note_on_c, 11, 58, 52
12, 59516, Note_on_c, 11, 42, 61
12, 60000, Note_on_c, 11, 42, 0
12, 60000, Note_on_c, 11, 58, 0
12, 60000, Note_on_c, 11, 63, 0
12, 216962, Note_on_c, 11, 70, 49
12, 216962, Note_on_c, 11, 64, 53
12, 216962, Note_on_c, 11, 58, 55
12, 216962, Note_on_c, 11, 43, 59
12, 217442, Note_on_c, 11, 43, 0
12, 217442, Note_on_c, 11, 70, 0
12, 217442, Note_on_c, 11, 64, 0
12, 217442, Note_on_c, 11, 58, 0
12, 218877, Note_on_c, 11, 70, 54
12, 218877, Note_on_c, 11, 65, 56
12, 218877, Note_on_c, 11, 62, 53
12, 218877, Note_on_c, 11, 41, 53
12, 219356, Note_on_c, 11, 41, 0
12, 219356, Note_on_c, 11, 70, 0
12, 219356, Note_on_c, 11, 65, 0
12, 219356, Note_on_c, 11, 62, 0
12, 220796, Note_on_c, 11, 70, 56
12, 220796, Note_on_c, 11, 67, 59
12, 220796, Note_on_c, 11, 60, 56
12, 220796, Note_on_c, 11, 40, 53
12, 221276, Note_on_c, 11, 40, 0
12, 221276, Note_on_c, 11, 70, 0
12, 221276, Note_on_c, 11, 67, 0
12, 221276, Note_on_c, 11, 60, 0
12, 222721, Note_on_c, 11, 70, 79
12, 222721, Note_on_c, 11, 65, 74
12, 222721, Note_on_c, 11, 53, 79
12, 222721, Note_on_c, 11, 37, 82
12, 223202, Note_on_c, 11, 37, 0
12, 223202, Note_on_c, 11, 70, 0
12, 223202, Note_on_c, 11, 65, 0
12, 223202, Note_on_c, 11, 53, 0
12, 226560, Note_on_c, 11, 70, 90
12, 226560, Note_on_c, 11, 65, 73
12, 226560, Note_on_c, 11, 53, 79
12, 226560, Note_on_c, 11, 37, 81
12, 227040, Note_on_c, 11, 37, 0
12, 227040, Note_on_c, 11, 70, 0
12, 227040, Note_on_c, 11, 65, 0
12, 227040, Note_on_c, 11, 53, 0
12, 230400, Note_on_c, 11, 70, 79
12, 230400, Note_on_c, 11, 65, 81
12, 230400, Note_on_c, 11, 53, 88
12, 230400, Note_on_c, 11, 37, 81
12, 230880, Note_on_c, 11, 37, 0
12, 230880, Note_on_c, 11, 70, 0
12, 230880, Note_on_c, 11, 65, 0
12, 230880, Note_on_c, 11, 53, 0
12, 304320, Note_on_c, 11, 72, 52
12, 304320, Note_on_c, 11, 69, 55
12, 304320, Note_on_c, 11, 65, 50
12, 304320, Note_on_c, 11, 41, 51
12, 304562, Note_on_c, 11, 41, 0
12, 304562, Note_on_c, 11, 72, 0
12, 304562, Note_on_c, 11, 69, 0
12, 304562, Note_on_c, 11, 65, 0
12, 305290, Note_on_c, 11, 72, 60
12, 305290, Note_on_c, 11, 69, 59
12, 305290, Note_on_c, 11, 65, 54
12, 305290, Note_on_c, 11, 41, 51
12, 305525, Note_on_c, 11, 41, 0
12, 305525, Note_on_c, 11, 72, 0
12, 305525, Note_on_c, 11, 69, 0
12, 305525, Note_on_c, 11, 65, 0
12, 518402, Note_on_c, 11, 75, 56
12, 518402, Note_on_c, 11, 69, 53
12, 518402, Note_on_c, 11, 63, 58
12, 518402, Note_on_c, 11, 36, 57
12, 518881, Note_on_c, 11, 36, 0
12, 518881, Note_on_c, 11, 75, 0
12, 518881, Note_on_c, 11, 69, 0
12, 518881, Note_on_c, 11, 63, 0
12, 520320, Note_on_c, 11, 75, 59
12, 520320, Note_on_c, 11, 70, 58
12, 520320, Note_on_c, 11, 67, 47
12, 520320, Note_on_c, 11, 34, 50
12, 520800, Note_on_c, 11, 34, 0
12, 520800, Note_on_c, 11, 75, 0
12, 520800, Note_on_c, 11, 70, 0
12, 520800, Note_on_c, 11, 67, 0
12, 522240, Note_on_c, 11, 75, 47
12, 522240, Note_on_c, 11, 72, 52
12, 522240, Note_on_c, 11, 65, 54
12, 522240, Note_on_c, 11, 33, 54
12, 522720, Note_on_c, 11, 33, 0
12, 522720, Note_on_c, 11, 75, 0
12, 522720, Note_on_c, 11, 72, 0
12, 522720, Note_on_c, 11, 65, 0
12, 524162, Note_on_c, 11, 63, 80
12, 524162, Note_on_c, 11, 58, 79
12, 524162, Note_on_c, 11, 42, 81
12, 524645, Note_on_c, 11, 42, 0
12, 524645, Note_on_c, 11, 58, 0
12, 524645, Note_on_c, 11, 63, 0
12, 528000, Note_on_c, 11, 63, 78
12, 528000, Note_on_c, 11, 58, 79
12, 528000, Note_on_c, 11, 42, 78
12, 528480, Note_on_c, 11, 42, 0
12, 528480, Note_on_c, 11, 58, 0
12, 528480, Note_on_c, 11, 63, 0
12, 531840, Note_on_c, 11, 63, 82
12, 531840, Note_on_c, 11, 58, 84
12, 531840, Note_on_c, 11, 42, 82
12, 532320, Note_on_c, 11, 42, 0
12, 532320, Note_on_c, 11, 58, 0
12, 532320, Note_on_c, 11, 63, 0
12, 605760, Note_on_c, 11, 65, 54
12, 605760, Note_on_c, 11, 62, 55
12, 605760, Note_on_c, 11, 58, 56
12, 605760, Note_on_c, 11, 46, 53
12, 606000, Note_on_c, 11, 46, 0
12, 606000, Note_on_c, 11, 65, 0
12, 606000, Note_on_c, 11, 62, 0
12, 606000, Note_on_c, 11, 58, 0
12, 606722, Note_on_c, 11, 65, 50
12, 606722, Note_on_c, 11, 62, 56
12, 606722, Note_on_c, 11, 58, 52
12, 606722, Note_on_c, 11, 46, 54
12, 606962, Note_on_c, 11, 46, 0
12, 606962, Note_on_c, 11, 65, 0
12, 606962, Note_on_c, 11, 62, 0
12, 606962, Note_on_c, 11, 58, 0
12, 606962, End_track
0, 0, End_of_file