0, 0, Header, 1, 3, 120
1, 0, Start_track
1, 0, Key_signature, 1, "major"
1, 0, Tempo, 500000
1, 0, Time_signature, 4, 2, 24, 8
1, 38280, Tempo, 500000
1, 38286, Tempo, 504201
1, 38292, Tempo, 508474
1, 38298, Tempo, 512820
1, 38304, Tempo, 517241
1, 38310, Tempo, 521739
1, 38316, Tempo, 526315
1, 38322, Tempo, 530973
1, 38328, Tempo, 535714
1, 38334, Tempo, 540540
1, 38340, Tempo, 545454
1, 38346, Tempo, 550458
1, 38352, Tempo, 555555
1, 38358, Tempo, 560747
1, 38364, Tempo, 566037
1, 38370, Tempo, 571428
1, 38376, Tempo, 576923
1, 38382, Tempo, 582524
1, 38388, Tempo, 588235
1, 38394, Tempo, 594059
1, 38400, Tempo, 600000
1, 38400, End_track
2, 0, Start_track
2, 0, Title_t, "Piano right"
2, 0, Control_c, 0, 7, 90
2, 0, Control_c, 0, 10, 35
2, 0, Program_c, 0, 0
2, 240, Note_on_c, 0, 71, 64
2, 240, Note_on_c, 0, 67, 64
2, 359, Note_on_c, 0, 67, 0
2, 359, Note_on_c, 0, 71, 0
2, 360, Note_on_c, 0, 72, 64
2, 360, Note_on_c, 0, 69, 64
2, 479, Note_on_c, 0, 69, 0
2, 479, Note_on_c, 0, 72, 0
2, 480, Note_on_c, 0, 74, 64
2, 480, Note_on_c, 0, 71, 64
2, 600, Note_on_c, 0, 76, 64
2, 600, Note_on_c, 0, 72, 64
2, 600, Note_on_c, 0, 71, 0
2, 600, Note_on_c, 0, 74, 0
2, 717, Note_on_c, 0, 76, 0
2, 717, Note_on_c, 0, 72, 0
2, 720, Note_on_c, 0, 69, 64
2, 720, Note_on_c, 0, 66, 64
2, 839, Note_on_c, 0, 66, 0
2, 839, Note_on_c, 0, 69, 0
2, 840, Note_on_c, 0, 71, 64
2, 840, Note_on_c, 0, 67, 64
2, 959, Note_on_c, 0, 67, 0
2, 959, Note_on_c, 0, 71, 0
2, 960, Note_on_c, 0, 72, 64
2, 960, Note_on_c, 0, 69, 64
2, 1080, Note_on_c, 0, 74, 64
2, 1080, Note_on_c, 0, 71, 64
2, 1080, Note_on_c, 0, 69, 0
2, 1080, Note_on_c, 0, 72, 0
2, 1197, Note_on_c, 0, 74, 0
2, 1197, Note_on_c, 0, 71, 0
2, 1200, Note_on_c, 0, 67, 64
2, 1200, Note_on_c, 0, 64, 64
2, 1319, Note_on_c, 0, 64, 0
2, 1319, Note_on_c, 0, 67, 0
2, 1320, Note_on_c, 0, 69, 64
2, 1320, Note_on_c, 0, 66, 64
2, 1439, Note_on_c, 0, 66, 0
2, 1439, Note_on_c, 0, 69, 0
2, 1440, Note_on_c, 0, 71, 64
2, 1440, Note_on_c, 0, 67, 64
2, 1559, Note_on_c, 0, 71, 0
2, 1560, Note_on_c, 0, 72, 64
2, 1679, Note_on_c, 0, 72, 0
2, 1680, Note_on_c, 0, 76, 64
2, 1740, Note_on_c, 0, 74, 64
2, 1740, Note_on_c, 0, 76, 0
2, 1797, Note_on_c, 0, 74, 0
2, 1800, Note_on_c, 0, 72, 64
2, 1859, Note_on_c, 0, 72, 0
2, 1860, Note_on_c, 0, 71, 64
2, 1919, Note_on_c, 0, 71, 0
2, 1919, Note_on_c, 0, 67, 0
2, 1920, Note_on_c, 0, 71, 64
2, 1920, Note_on_c, 0, 67, 64
2, 2040, Note_on_c, 0, 69, 64
2, 2040, Note_on_c, 0, 66, 64
2, 2040, Note_on_c, 0, 67, 0
2, 2040, Note_on_c, 0, 71, 0
2, 2157, Note_on_c, 0, 69, 0
2, 2157, Note_on_c, 0, 66, 0
2, 2160, Note_on_c, 0, 71, 100
2, 2160, Note_on_c, 0, 67, 100
2, 2219, Note_on_c, 0, 67, 0
2, 2220, Note_on_c, 0, 62, 100
2, 2279, Note_on_c, 0, 62, 0
2, 2279, Note_on_c, 0, 71, 0
2, 2280, Note_on_c, 0, 72, 100
2, 2280, Note_on_c, 0, 69, 100
2, 2339, Note_on_c, 0, 69, 0
2, 2340, Note_on_c, 0, 62, 100
2, 2399, Note_on_c, 0, 62, 0
2, 2399, Note_on_c, 0, 72, 0
2, 2400, Note_on_c, 0, 74, 100
2, 2400, Note_on_c, 0, 71, 100
2, 2459, Note_on_c, 0, 71, 0
2, 2460, Note_on_c, 0, 62, 100
2, 2519, Note_on_c, 0, 62, 0
2, 2520, Note_on_c, 0, 76, 100
2, 2520, Note_on_c, 0, 72, 100
2, 2520, Note_on_c, 0, 74, 0
2, 2579, Note_on_c, 0, 72, 0
2, 2580, Note_on_c, 0, 62, 100
2, 2637, Note_on_c, 0, 76, 0
2, 2639, Note_on_c, 0, 62, 0
2, 2640, Note_on_c, 0, 69, 100
2, 2640, Note_on_c, 0, 66, 100
2, 2699, Note_on_c, 0, 66, 0
2, 2700, Note_on_c, 0, 62, 100
2, 2759, Note_on_c, 0, 62, 0
2, 2759, Note_on_c, 0, 69, 0
2, 2760, Note_on_c, 0, 71, 100
2, 2760, Note_on_c, 0, 67, 100
2, 2819, Note_on_c, 0, 67, 0
2, 2820, Note_on_c, 0, 62, 100
2, 2879, Note_on_c, 0, 62, 0
2, 2879, Note_on_c, 0, 71, 0
2, 2880, Note_on_c, 0, 72, 100
2, 2880, Note_on_c, 0, 69, 100
2, 2939, Note_on_c, 0, 69, 0
2, 2940, Note_on_c, 0, 62, 100
2, 2999, Note_on_c, 0, 62, 0
2, 3000, Note_on_c, 0, 74, 100
2, 3000, Note_on_c, 0, 71, 100
2, 3000, Note_on_c, 0, 72, 0
2, 3059, Note_on_c, 0, 71, 0
2, 3060, Note_on_c, 0, 62, 100
2, 3117, Note_on_c, 0, 74, 0
2, 3119, Note_on_c, 0, 62, 0
2, 3120, Note_on_c, 0, 67, 100
2, 3120, Note_on_c, 0, 64, 100
2, 3179, Note_on_c, 0, 64, 0
2, 3180, Note_on_c, 0, 62, 100
2, 3239, Note_on_c, 0, 62, 0
2, 3239, Note_on_c, 0, 67, 0
2, 3240, Note_on_c, 0, 69, 100
2, 3240, Note_on_c, 0, 66, 100
2, 3299, Note_on_c, 0, 66, 0
2, 3300, Note_on_c, 0, 62, 100
2, 3359, Note_on_c, 0, 62, 0
2, 3359, Note_on_c, 0, 69, 0
2, 3360, Note_on_c, 0, 71, 100
2, 3419, Note_on_c, 0, 71, 0
2, 3420, Note_on_c, 0, 67, 100
2, 3479, Note_on_c, 0, 67, 0
2, 3480, Note_on_c, 0, 72, 100
2, 3539, Note_on_c, 0, 72, 0
2, 3540, Note_on_c, 0, 69, 100
2, 3599, Note_on_c, 0, 69, 0
2, 3600, Note_on_c, 0, 71, 100
2, 3615, Note_on_c, 0, 69, 100
2, 3615, Note_on_c, 0, 71, 0
2, 3630, Note_on_c, 0, 71, 100
2, 3630, Note_on_c, 0, 69, 0
2, 3645, Note_on_c, 0, 69, 100
2, 3645, Note_on_c, 0, 71, 0
2, 3660, Note_on_c, 0, 71, 100
2, 3660, Note_on_c, 0, 69, 0
2, 3675, Note_on_c, 0, 69, 100
2, 3675, Note_on_c, 0, 71, 0
2, 3690, Note_on_c, 0, 71, 100
2, 3690, Note_on_c, 0, 69, 0
2, 3705, Note_on_c, 0, 69, 100
2, 3705, Note_on_c, 0, 71, 0
2, 3720, Note_on_c, 0, 71, 100
2, 3720, Note_on_c, 0, 69, 0
2, 3735, Note_on_c, 0, 69, 100
2, 3735, Note_on_c, 0, 71, 0
2, 3750, Note_on_c, 0, 71, 100
2, 3750, Note_on_c, 0, 69, 0
2, 3765, Note_on_c, 0, 69, 100
2, 3765, Note_on_c, 0, 71, 0
2, 3780, Note_on_c, 0, 67, 100
2, 3780, Note_on_c, 0, 69, 0
2, 3810, Note_on_c, 0, 69, 100
2, 3810, Note_on_c, 0, 67, 0
2, 3840, Note_on_c, 0, 67, 100
2, 3840, Note_on_c, 0, 69, 0
2, 4079, Note_on_c, 0, 67, 0
2, 4080, Note_on_c, 0, 71, 64
2, 4080, Note_on_c, 0, 67, 64
2, 4199, Note_on_c, 0, 67, 0
2, 4199, Note_on_c, 0, 71, 0
2, 4200, Note_on_c, 0, 72, 64
2, 4200, Note_on_c, 0, 69, 64
2, 4319, Note_on_c, 0, 69, 0
2, 4319, Note_on_c, 0, 72, 0
2, 4320, Note_on_c, 0, 74, 64
2, 4320, Note_on_c, 0, 71, 64
2, 4440, Note_on_c, 0, 76, 64
2, 4440, Note_on_c, 0, 72, 64
2, 4440, Note_on_c, 0, 71, 0
2, 4440, Note_on_c, 0, 74, 0
2, 4557, Note_on_c, 0, 76, 0
2, 4557, Note_on_c, 0, 72, 0
2, 4560, Note_on_c, 0, 69, 64
2, 4560, Note_on_c, 0, 66, 64
2, 4679, Note_on_c, 0, 66, 0
2, 4679, Note_on_c, 0, 69, 0
2, 4680, Note_on_c, 0, 71, 64
2, 4680, Note_on_c, 0, 67, 64
2, 4799, Note_on_c, 0, 67, 0
2, 4799, Note_on_c, 0, 71, 0
2, 4800, Note_on_c, 0, 72, 64
2, 4800, Note_on_c, 0, 69, 64
2, 4920, Note_on_c, 0, 74, 64
2, 4920, Note_on_c, 0, 71, 64
2, 4920, Note_on_c, 0, 69, 0
2, 4920, Note_on_c, 0, 72, 0
2, 5037, Note_on_c, 0, 74, 0
2, 5037, Note_on_c, 0, 71, 0
2, 5040, Note_on_c, 0, 67, 64
2, 5040, Note_on_c, 0, 64, 64
2, 5159, Note_on_c, 0, 64, 0
2, 5159, Note_on_c, 0, 67, 0
2, 5160, Note_on_c, 0, 69, 64
2, 5160, Note_on_c, 0, 66, 64
2, 5279, Note_on_c, 0, 66, 0
2, 5279, Note_on_c, 0, 69, 0
2, 5280, Note_on_c, 0, 71, 64
2, 5280, Note_on_c, 0, 67, 64
2, 5399, Note_on_c, 0, 71, 0
2, 5400, Note_on_c, 0, 72, 64
2, 5519, Note_on_c, 0, 72, 0
2, 5520, Note_on_c, 0, 76, 64
2, 5580, Note_on_c, 0, 74, 64
2, 5580, Note_on_c, 0, 76, 0
2, 5637, Note_on_c, 0, 74, 0
2, 5640, Note_on_c, 0, 72, 64
2, 5699, Note_on_c, 0, 72, 0
2, 5700, Note_on_c, 0, 71, 64
2, 5759, Note_on_c, 0, 71, 0
2, 5759, Note_on_c, 0, 67, 0
2, 5760, Note_on_c, 0, 71, 64
2, 5760, Note_on_c, 0, 67, 64
2, 5880, Note_on_c, 0, 69, 64
2, 5880, Note_on_c, 0, 66, 64
2, 5880, Note_on_c, 0, 67, 0
2, 5880, Note_on_c, 0, 71, 0
2, 5997, Note_on_c, 0, 69, 0
2, 5997, Note_on_c, 0, 66, 0
2, 6000, Note_on_c, 0, 71, 100
2, 6000, Note_on_c, 0, 67, 100
2, 6059, Note_on_c, 0, 67, 0
2, 6060, Note_on_c, 0, 62, 100
2, 6119, Note_on_c, 0, 62, 0
2, 6119, Note_on_c, 0, 71, 0
2, 6120, Note_on_c, 0, 72, 100
2, 6120, Note_on_c, 0, 69, 100
2, 6179, Note_on_c, 0, 69, 0
2, 6180, Note_on_c, 0, 62, 100
2, 6239, Note_on_c, 0, 62, 0
2, 6239, Note_on_c, 0, 72, 0
2, 6240, Note_on_c, 0, 74, 100
2, 6240, Note_on_c, 0, 71, 100
2, 6299, Note_on_c, 0, 71, 0
2, 6300, Note_on_c, 0, 62, 100
2, 6359, Note_on_c, 0, 62, 0
2, 6360, Note_on_c, 0, 76, 100
2, 6360, Note_on_c, 0, 72, 100
2, 6360, Note_on_c, 0, 74, 0
2, 6419, Note_on_c, 0, 72, 0
2, 6420, Note_on_c, 0, 62, 100
2, 6477, Note_on_c, 0, 76, 0
2, 6479, Note_on_c, 0, 62, 0
2, 6480, Note_on_c, 0, 69, 100
2, 6480, Note_on_c, 0, 66, 100
2, 6539, Note_on_c, 0, 66, 0
2, 6540, Note_on_c, 0, 62, 100
2, 6599, Note_on_c, 0, 62, 0
2, 6599, Note_on_c, 0, 69, 0
2, 6600, Note_on_c, 0, 71, 100
2, 6600, Note_on_c, 0, 67, 100
2, 6659, Note_on_c, 0, 67, 0
2, 6660, Note_on_c, 0, 62, 100
2, 6719, Note_on_c, 0, 62, 0
2, 6719, Note_on_c, 0, 71, 0
2, 6720, Note_on_c, 0, 72, 100
2, 6720, Note_on_c, 0, 69, 100
2, 6779, Note_on_c, 0, 69, 0
2, 6780, Note_on_c, 0, 62, 100
2, 6839, Note_on_c, 0, 62, 0
2, 6840, Note_on_c, 0, 74, 100
2, 6840, Note_on_c, 0, 71, 100
2, 6840, Note_on_c, 0, 72, 0
2, 6899, Note_on_c, 0, 71, 0
2, 6900, Note_on_c, 0, 62, 100
2, 6957, Note_on_c, 0, 74, 0
2, 6959, Note_on_c, 0, 62, 0
2, 6960, Note_on_c, 0, 67, 100
2, 6960, Note_on_c, 0, 64, 100
2, 7019, Note_on_c, 0, 64, 0
2, 7020, Note_on_c, 0, 62, 100
2, 7079, Note_on_c, 0, 62, 0
2, 7079, Note_on_c, 0, 67, 0
2, 7080, Note_on_c, 0, 69, 100
2, 7080, Note_on_c, 0, 66, 100
2, 7139, Note_on_c, 0, 66, 0
2, 7140, Note_on_c, 0, 62, 100
2, 7199, Note_on_c, 0, 62, 0
2, 7199, Note_on_c, 0, 69, 0
2, 7200, Note_on_c, 0, 71, 100
2, 7259, Note_on_c, 0, 71, 0
2, 7260, Note_on_c, 0, 67, 100
2, 7319, Note_on_c, 0, 67, 0
2, 7320, Note_on_c, 0, 72, 100
2, 7379, Note_on_c, 0, 72, 0
2, 7380, Note_on_c, 0, 69, 100
2, 7439, Note_on_c, 0, 69, 0
2, 7440, Note_on_c, 0, 71, 100
2, 7455, Note_on_c, 0, 69, 100
2, 7455, Note_on_c, 0, 71, 0
2, 7470, Note_on_c, 0, 71, 100
2, 7470, Note_on_c, 0, 69, 0
2, 7485, Note_on_c, 0, 69, 100
2, 7485, Note_on_c, 0, 71, 0
2, 7500, Note_on_c, 0, 71, 100
2, 7500, Note_on_c, 0, 69, 0
2, 7515, Note_on_c, 0, 69, 100
2, 7515, Note_on_c, 0, 71, 0
2, 7530, Note_on_c, 0, 71, 100
2, 7530, Note_on_c, 0, 69, 0
2, 7545, Note_on_c, 0, 69, 100
2, 7545, Note_on_c, 0, 71, 0
2, 7560, Note_on_c, 0, 71, 100
2, 7560, Note_on_c, 0, 69, 0
2, 7575, Note_on_c, 0, 69, 100
2, 7575, Note_on_c, 0, 71, 0
2, 7590, Note_on_c, 0, 71, 100
2, 7590, Note_on_c, 0, 69, 0
2, 7605, Note_on_c, 0, 69, 100
2, 7605, Note_on_c, 0, 71, 0
2, 7620, Note_on_c, 0, 67, 100
2, 7620, Note_on_c, 0, 69, 0
2, 7650, Note_on_c, 0, 69, 100
2, 7650, Note_on_c, 0, 67, 0
2, 7680, Note_on_c, 0, 67, 100
2, 7680, Note_on_c, 0, 69, 0
2, 7919, Note_on_c, 0, 67, 0
2, 7920, Note_on_c, 0, 71, 64
2, 8039, Note_on_c, 0, 71, 0
2, 8040, Note_on_c, 0, 74, 64
2, 8069, Note_on_c, 0, 74, 0
2, 8070, Note_on_c, 0, 72, 64
2, 8099, Note_on_c, 0, 72, 0
2, 8100, Note_on_c, 0, 71, 64
2, 8129, Note_on_c, 0, 71, 0
2, 8130, Note_on_c, 0, 72, 64
2, 8159, Note_on_c, 0, 72, 0
2, 8160, Note_on_c, 0, 74, 64
2, 8279, Note_on_c, 0, 74, 0
2, 8280, Note_on_c, 0, 79, 64
2, 8280, Note_on_c, 0, 72, 64
2, 8399, Note_on_c, 0, 72, 0
2, 8399, Note_on_c, 0, 79, 0
2, 8400, Note_on_c, 0, 79, 64
2, 8400, Note_on_c, 0, 71, 64
2, 8519, Note_on_c, 0, 71, 0
2, 8519, Note_on_c, 0, 79, 0
2, 8520, Note_on_c, 0, 79, 64
2, 8520, Note_on_c, 0, 76, 64
2, 8639, Note_on_c, 0, 76, 0
2, 8639, Note_on_c, 0, 79, 0
2, 8640, Note_on_c, 0, 79, 64
2, 8640, Note_on_c, 0, 74, 64
2, 8760, Note_on_c, 0, 71, 64
2, 8760, Note_on_c, 0, 74, 0
2, 8877, Note_on_c, 0, 71, 0
2, 8879, Note_on_c, 0, 79, 0
2, 8880, Note_on_c, 0, 81, 64
2, 8940, Note_on_c, 0, 79, 64
2, 8940, Note_on_c, 0, 81, 0
2, 8997, Note_on_c, 0, 79, 0
2, 9000, Note_on_c, 0, 78, 64
2, 9059, Note_on_c, 0, 78, 0
2, 9060, Note_on_c, 0, 76, 64
2, 9119, Note_on_c, 0, 76, 0
2, 9120, Note_on_c, 0, 74, 64
2, 9239, Note_on_c, 0, 74, 0
2, 9240, Note_on_c, 0, 74, 64
2, 9240, Note_on_c, 0, 71, 64
2, 9359, Note_on_c, 0, 71, 0
2, 9359, Note_on_c, 0, 74, 0
2, 9360, Note_on_c, 0, 76, 64
2, 9360, Note_on_c, 0, 72, 64
2, 9419, Note_on_c, 0, 72, 0
2, 9419, Note_on_c, 0, 76, 0
2, 9420, Note_on_c, 0, 74, 64
2, 9420, Note_on_c, 0, 71, 64
2, 9479, Note_on_c, 0, 71, 0
2, 9479, Note_on_c, 0, 74, 0
2, 9480, Note_on_c, 0, 72, 64
2, 9480, Note_on_c, 0, 69, 64
2, 9539, Note_on_c, 0, 69, 0
2, 9539, Note_on_c, 0, 72, 0
2, 9540, Note_on_c, 0, 71, 64
2, 9540, Note_on_c, 0, 67, 64
2, 9599, Note_on_c, 0, 67, 0
2, 9599, Note_on_c, 0, 71, 0
2, 9600, Note_on_c, 0, 71, 64
2, 9600, Note_on_c, 0, 67, 64
2, 9720, Note_on_c, 0, 69, 64
2, 9720, Note_on_c, 0, 66, 64
2, 9720, Note_on_c, 0, 67, 0
2, 9720, Note_on_c, 0, 71, 0
2, 9837, Note_on_c, 0, 69, 0
2, 9837, Note_on_c, 0, 66, 0
2, 9840, Note_on_c, 0, 71, 100
2, 9959, Note_on_c, 0, 71, 0
2, 9960, Note_on_c, 0, 74, 100
2, 9989, Note_on_c, 0, 74, 0
2, 9990, Note_on_c, 0, 72, 100
2, 10019, Note_on_c, 0, 72, 0
2, 10020, Note_on_c, 0, 71, 100
2, 10049, Note_on_c, 0, 71, 0
2, 10050, Note_on_c, 0, 72, 100
2, 10079, Note_on_c, 0, 72, 0
2, 10080, Note_on_c, 0, 74, 100
2, 10199, Note_on_c, 0, 74, 0
2, 10200, Note_on_c, 0, 79, 100
2, 10200, Note_on_c, 0, 72, 100
2, 10319, Note_on_c, 0, 72, 0
2, 10319, Note_on_c, 0, 79, 0
2, 10320, Note_on_c, 0, 79, 100
2, 10320, Note_on_c, 0, 71, 100
2, 10439, Note_on_c, 0, 71, 0
2, 10439, Note_on_c, 0, 79, 0
2, 10440, Note_on_c, 0, 79, 100
2, 10440, Note_on_c, 0, 76, 100
2, 10559, Note_on_c, 0, 76, 0
2, 10559, Note_on_c, 0, 79, 0
2, 10560, Note_on_c, 0, 79, 100
2, 10560, Note_on_c, 0, 74, 100
2, 10680, Note_on_c, 0, 71, 100
2, 10680, Note_on_c, 0, 74, 0
2, 10797, Note_on_c, 0, 71, 0
2, 10799, Note_on_c, 0, 79, 0
2, 10800, Note_on_c, 0, 83, 100
2, 10859, Note_on_c, 0, 83, 0
2, 10860, Note_on_c, 0, 79, 100
2, 10919, Note_on_c, 0, 79, 0
2, 10920, Note_on_c, 0, 78, 100
2, 10979, Note_on_c, 0, 78, 0
2, 10980, Note_on_c, 0, 76, 100
2, 11039, Note_on_c, 0, 76, 0
2, 11040, Note_on_c, 0, 81, 100
2, 11099, Note_on_c, 0, 81, 0
2, 11100, Note_on_c, 0, 78, 100
2, 11159, Note_on_c, 0, 78, 0
2, 11160, Note_on_c, 0, 76, 100
2, 11219, Note_on_c, 0, 76, 0
2, 11220, Note_on_c, 0, 74, 100
2, 11279, Note_on_c, 0, 74, 0
2, 11280, Note_on_c, 0, 79, 100
2, 11339, Note_on_c, 0, 79, 0
2, 11340, Note_on_c, 0, 76, 100
2, 11399, Note_on_c, 0, 76, 0
2, 11400, Note_on_c, 0, 74, 100
2, 11459, Note_on_c, 0, 74, 0
2, 11460, Note_on_c, 0, 73, 100
2, 11519, Note_on_c, 0, 73, 0
2, 11520, Note_on_c, 0, 74, 100
2, 11759, Note_on_c, 0, 74, 0
2, 11760, Note_on_c, 0, 71, 100
2, 11879, Note_on_c, 0, 71, 0
2, 11880, Note_on_c, 0, 74, 100
2, 11909, Note_on_c, 0, 74, 0
2, 11910, Note_on_c, 0, 72, 100
2, 11939, Note_on_c, 0, 72, 0
2, 11940, Note_on_c, 0, 71, 100
2, 11969, Note_on_c, 0, 71, 0
2, 11970, Note_on_c, 0, 72, 100
2, 11999, Note_on_c, 0, 72, 0
2, 12000, Note_on_c, 0, 74, 64
2, 12119, Note_on_c, 0, 74, 0
2, 12120, Note_on_c, 0, 79, 64
2, 12120, Note_on_c, 0, 72, 64
2, 12239, Note_on_c, 0, 72, 0
2, 12239, Note_on_c, 0, 79, 0
2, 12240, Note_on_c, 0, 79, 64
2, 12240, Note_on_c, 0, 71, 64
2, 12359, Note_on_c, 0, 71, 0
2, 12359, Note_on_c, 0, 79, 0
2, 12360, Note_on_c, 0, 79, 64
2, 12360, Note_on_c, 0, 76, 64
2, 12479, Note_on_c, 0, 76, 0
2, 12479, Note_on_c, 0, 79, 0
2, 12480, Note_on_c, 0, 79, 64
2, 12480, Note_on_c, 0, 74, 64
2, 12600, Note_on_c, 0, 71, 64
2, 12600, Note_on_c, 0, 74, 0
2, 12717, Note_on_c, 0, 71, 0
2, 12719, Note_on_c, 0, 79, 0
2, 12720, Note_on_c, 0, 81, 64
2, 12780, Note_on_c, 0, 79, 64
2, 12780, Note_on_c, 0, 81, 0
2, 12837, Note_on_c, 0, 79, 0
2, 12840, Note_on_c, 0, 78, 64
2, 12899, Note_on_c, 0, 78, 0
2, 12900, Note_on_c, 0, 76, 64
2, 12959, Note_on_c, 0, 76, 0
2, 12960, Note_on_c, 0, 74, 64
2, 13079, Note_on_c, 0, 74, 0
2, 13080, Note_on_c, 0, 74, 64
2, 13080, Note_on_c, 0, 71, 64
2, 13199, Note_on_c, 0, 71, 0
2, 13199, Note_on_c, 0, 74, 0
2, 13200, Note_on_c, 0, 76, 64
2, 13200, Note_on_c, 0, 72, 64
2, 13259, Note_on_c, 0, 72, 0
2, 13259, Note_on_c, 0, 76, 0
2, 13260, Note_on_c, 0, 74, 64
2, 13260, Note_on_c, 0, 71, 64
2, 13319, Note_on_c, 0, 71, 0
2, 13319, Note_on_c, 0, 74, 0
2, 13320, Note_on_c, 0, 72, 64
2, 13320, Note_on_c, 0, 69, 64
2, 13379, Note_on_c, 0, 69, 0
2, 13379, Note_on_c, 0, 72, 0
2, 13380, Note_on_c, 0, 71, 64
2, 13380, Note_on_c, 0, 67, 64
2, 13439, Note_on_c, 0, 67, 0
2, 13439, Note_on_c, 0, 71, 0
2, 13440, Note_on_c, 0, 71, 64
2, 13440, Note_on_c, 0, 67, 64
2, 13560, Note_on_c, 0, 69, 64
2, 13560, Note_on_c, 0, 66, 64
2, 13560, Note_on_c, 0, 67, 0
2, 13560, Note_on_c, 0, 71, 0
2, 13677, Note_on_c, 0, 69, 0
2, 13677, Note_on_c, 0, 66, 0
2, 13680, Note_on_c, 0, 71, 100
2, 13799, Note_on_c, 0, 71, 0
2, 13800, Note_on_c, 0, 74, 100
2, 13829, Note_on_c, 0, 74, 0
2, 13830, Note_on_c, 0, 72, 100
2, 13859, Note_on_c, 0, 72, 0
2, 13860, Note_on_c, 0, 71, 100
2, 13889, Note_on_c, 0, 71, 0
2, 13890, Note_on_c, 0, 72, 100
2, 13919, Note_on_c, 0, 72, 0
2, 13920, Note_on_c, 0, 74, 100
2, 14039, Note_on_c, 0, 74, 0
2, 14040, Note_on_c, 0, 79, 100
2, 14040, Note_on_c, 0, 72, 100
2, 14159, Note_on_c, 0, 72, 0
2, 14159, Note_on_c, 0, 79, 0
2, 14160, Note_on_c, 0, 79, 100
2, 14160, Note_on_c, 0, 71, 100
2, 14279, Note_on_c, 0, 71, 0
2, 14279, Note_on_c, 0, 79, 0
2, 14280, Note_on_c, 0, 79, 100
2, 14280, Note_on_c, 0, 76, 100
2, 14399, Note_on_c, 0, 76, 0
2, 14399, Note_on_c, 0, 79, 0
2, 14400, Note_on_c, 0, 79, 100
2, 14400, Note_on_c, 0, 74, 100
2, 14520, Note_on_c, 0, 71, 100
2, 14520, Note_on_c, 0, 74, 0
2, 14637, Note_on_c, 0, 71, 0
2, 14639, Note_on_c, 0, 79, 0
2, 14640, Note_on_c, 0, 83, 100
2, 14699, Note_on_c, 0, 83, 0
2, 14700, Note_on_c, 0, 79, 100
2, 14759, Note_on_c, 0, 79, 0
2, 14760, Note_on_c, 0, 78, 100
2, 14819, Note_on_c, 0, 78, 0
2, 14820, Note_on_c, 0, 76, 100
2, 14879, Note_on_c, 0, 76, 0
2, 14880, Note_on_c, 0, 81, 100
2, 14939, Note_on_c, 0, 81, 0
2, 14940, Note_on_c, 0, 78, 100
2, 14999, Note_on_c, 0, 78, 0
2, 15000, Note_on_c, 0, 76, 100
2, 15059, Note_on_c, 0, 76, 0
2, 15060, Note_on_c, 0, 74, 100
2, 15119, Note_on_c, 0, 74, 0
2, 15120, Note_on_c, 0, 79, 100
2, 15179, Note_on_c, 0, 79, 0
2, 15180, Note_on_c, 0, 76, 100
2, 15239, Note_on_c, 0, 76, 0
2, 15240, Note_on_c, 0, 74, 100
2, 15299, Note_on_c, 0, 74, 0
2, 15300, Note_on_c, 0, 73, 100
2, 15359, Note_on_c, 0, 73, 0
2, 15360, Note_on_c, 0, 74, 100
2, 15599, Note_on_c, 0, 74, 0
2, 15600, Note_on_c, 0, 71, 64
2, 15600, Note_on_c, 0, 67, 64
2, 15719, Note_on_c, 0, 67, 0
2, 15719, Note_on_c, 0, 71, 0
2, 15720, Note_on_c, 0, 71, 64
2, 15720, Note_on_c, 0, 67, 64
2, 15839, Note_on_c, 0, 67, 0
2, 15839, Note_on_c, 0, 71, 0
2, 15840, Note_on_c, 0, 71, 64
2, 15840, Note_on_c, 0, 67, 64
2, 15959, Note_on_c, 0, 67, 0
2, 15959, Note_on_c, 0, 71, 0
2, 15960, Note_on_c, 0, 69, 64
2, 15960, Note_on_c, 0, 66, 64
2, 16019, Note_on_c, 0, 66, 0
2, 16019, Note_on_c, 0, 69, 0
2, 16020, Note_on_c, 0, 71, 64
2, 16020, Note_on_c, 0, 67, 64
2, 16079, Note_on_c, 0, 67, 0
2, 16079, Note_on_c, 0, 71, 0
2, 16080, Note_on_c, 0, 72, 64
2, 16080, Note_on_c, 0, 69, 64
2, 16199, Note_on_c, 0, 69, 0
2, 16199, Note_on_c, 0, 72, 0
2, 16200, Note_on_c, 0, 72, 64
2, 16200, Note_on_c, 0, 69, 64
2, 16319, Note_on_c, 0, 69, 0
2, 16319, Note_on_c, 0, 72, 0
2, 16320, Note_on_c, 0, 72, 64
2, 16320, Note_on_c, 0, 69, 64
2, 16440, Note_on_c, 0, 71, 64
2, 16440, Note_on_c, 0, 67, 64
2, 16440, Note_on_c, 0, 69, 0
2, 16440, Note_on_c, 0, 72, 0
2, 16557, Note_on_c, 0, 71, 0
2, 16557, Note_on_c, 0, 67, 0
2, 16560, Note_on_c, 0, 74, 100
2, 16560, Note_on_c, 0, 71, 100
2, 16679, Note_on_c, 0, 71, 0
2, 16679, Note_on_c, 0, 74, 0
2, 16680, Note_on_c, 0, 74, 100
2, 16680, Note_on_c, 0, 71, 100
2, 16799, Note_on_c, 0, 71, 0
2, 16799, Note_on_c, 0, 74, 0
2, 16800, Note_on_c, 0, 76, 100
2, 16800, Note_on_c, 0, 72, 100
2, 16860, Note_on_c, 0, 74, 100
2, 16860, Note_on_c, 0, 71, 100
2, 16860, Note_on_c, 0, 72, 0
2, 16860, Note_on_c, 0, 76, 0
2, 16917, Note_on_c, 0, 74, 0
2, 16917, Note_on_c, 0, 71, 0
2, 16920, Note_on_c, 0, 72, 100
2, 16920, Note_on_c, 0, 69, 100
2, 16979, Note_on_c, 0, 69, 0
2, 16979, Note_on_c, 0, 72, 0
2, 16980, Note_on_c, 0, 71, 100
2, 16980, Note_on_c, 0, 67, 100
2, 17039, Note_on_c, 0, 67, 0
2, 17039, Note_on_c, 0, 71, 0
2, 17040, Note_on_c, 0, 69, 100
2, 17040, Note_on_c, 0, 66, 100
2, 17159, Note_on_c, 0, 66, 0
2, 17159, Note_on_c, 0, 69, 0
2, 17160, Note_on_c, 0, 71, 100
2, 17160, Note_on_c, 0, 67, 100
2, 17279, Note_on_c, 0, 67, 0
2, 17279, Note_on_c, 0, 71, 0
2, 17280, Note_on_c, 0, 71, 100
2, 17280, Note_on_c, 0, 67, 100
2, 17400, Note_on_c, 0, 69, 100
2, 17400, Note_on_c, 0, 66, 100
2, 17400, Note_on_c, 0, 67, 0
2, 17400, Note_on_c, 0, 71, 0
2, 17517, Note_on_c, 0, 69, 0
2, 17517, Note_on_c, 0, 66, 0
2, 17520, Note_on_c, 0, 71, 64
2, 17639, Note_on_c, 0, 71, 0
2, 17640, Note_on_c, 0, 71, 64
2, 17759, Note_on_c, 0, 71, 0
2, 17760, Note_on_c, 0, 72, 64
2, 17820, Note_on_c, 0, 71, 64
2, 17820, Note_on_c, 0, 72, 0
2, 17877, Note_on_c, 0, 71, 0
2, 17880, Note_on_c, 0, 69, 64
2, 17939, Note_on_c, 0, 69, 0
2, 17940, Note_on_c, 0, 67, 64
2, 17999, Note_on_c, 0, 67, 0
2, 18000, Note_on_c, 0, 74, 64
2, 18119, Note_on_c, 0, 74, 0
2, 18120, Note_on_c, 0, 74, 64
2, 18120, Note_on_c, 0, 71, 64
2, 18239, Note_on_c, 0, 71, 0
2, 18239, Note_on_c, 0, 74, 0
2, 18240, Note_on_c, 0, 76, 64
2, 18300, Note_on_c, 0, 74, 64
2, 18300, Note_on_c, 0, 76, 0
2, 18357, Note_on_c, 0, 74, 0
2, 18360, Note_on_c, 0, 72, 64
2, 18419, Note_on_c, 0, 72, 0
2, 18420, Note_on_c, 0, 71, 64
2, 18479, Note_on_c, 0, 71, 0
2, 18480, Note_on_c, 0, 76, 100
2, 18599, Note_on_c, 0, 76, 0
2, 18600, Note_on_c, 0, 76, 100
2, 18719, Note_on_c, 0, 76, 0
2, 18720, Note_on_c, 0, 76, 100
2, 18779, Note_on_c, 0, 76, 0
2, 18780, Note_on_c, 0, 78, 100
2, 18839, Note_on_c, 0, 78, 0
2, 18840, Note_on_c, 0, 79, 100
2, 18899, Note_on_c, 0, 79, 0
2, 18900, Note_on_c, 0, 72, 100
2, 18959, Note_on_c, 0, 72, 0
2, 18960, Note_on_c, 0, 71, 100
2, 19079, Note_on_c, 0, 71, 0
2, 19080, Note_on_c, 0, 71, 100
2, 19095, Note_on_c, 0, 69, 100
2, 19095, Note_on_c, 0, 71, 0
2, 19110, Note_on_c, 0, 71, 100
2, 19110, Note_on_c, 0, 69, 0
2, 19125, Note_on_c, 0, 69, 100
2, 19125, Note_on_c, 0, 71, 0
2, 19140, Note_on_c, 0, 67, 100
2, 19140, Note_on_c, 0, 69, 0
2, 19170, Note_on_c, 0, 69, 100
2, 19170, Note_on_c, 0, 67, 0
2, 19200, Note_on_c, 0, 67, 100
2, 19200, Note_on_c, 0, 69, 0
2, 19439, Note_on_c, 0, 67, 0
2, 19440, Note_on_c, 0, 71, 64
2, 19440, Note_on_c, 0, 67, 64
2, 19559, Note_on_c, 0, 67, 0
2, 19559, Note_on_c, 0, 71, 0
2, 19560, Note_on_c, 0, 71, 64
2, 19560, Note_on_c, 0, 67, 64
2, 19679, Note_on_c, 0, 67, 0
2, 19679, Note_on_c, 0, 71, 0
2, 19680, Note_on_c, 0, 71, 64
2, 19680, Note_on_c, 0, 67, 64
2, 19799, Note_on_c, 0, 67, 0
2, 19799, Note_on_c, 0, 71, 0
2, 19800, Note_on_c, 0, 69, 64
2, 19800, Note_on_c, 0, 66, 64
2, 19859, Note_on_c, 0, 66, 0
2, 19859, Note_on_c, 0, 69, 0
2, 19860, Note_on_c, 0, 71, 64
2, 19860, Note_on_c, 0, 67, 64
2, 19919, Note_on_c, 0, 67, 0
2, 19919, Note_on_c, 0, 71, 0
2, 19920, Note_on_c, 0, 72, 64
2, 19920, Note_on_c, 0, 69, 64
2, 20039, Note_on_c, 0, 69, 0
2, 20039, Note_on_c, 0, 72, 0
2, 20040, Note_on_c, 0, 72, 64
2, 20040, Note_on_c, 0, 69, 64
2, 20159, Note_on_c, 0, 69, 0
2, 20159, Note_on_c, 0, 72, 0
2, 20160, Note_on_c, 0, 72, 64
2, 20160, Note_on_c, 0, 69, 64
2, 20280, Note_on_c, 0, 71, 64
2, 20280, Note_on_c, 0, 67, 64
2, 20280, Note_on_c, 0, 69, 0
2, 20280, Note_on_c, 0, 72, 0
2, 20397, Note_on_c, 0, 71, 0
2, 20397, Note_on_c, 0, 67, 0
2, 20400, Note_on_c, 0, 74, 100
2, 20400, Note_on_c, 0, 71, 100
2, 20519, Note_on_c, 0, 71, 0
2, 20519, Note_on_c, 0, 74, 0
2, 20520, Note_on_c, 0, 74, 100
2, 20520, Note_on_c, 0, 71, 100
2, 20639, Note_on_c, 0, 71, 0
2, 20639, Note_on_c, 0, 74, 0
2, 20640, Note_on_c, 0, 76, 100
2, 20640, Note_on_c, 0, 72, 100
2, 20700, Note_on_c, 0, 74, 100
2, 20700, Note_on_c, 0, 71, 100
2, 20700, Note_on_c, 0, 72, 0
2, 20700, Note_on_c, 0, 76, 0
2, 20757, Note_on_c, 0, 74, 0
2, 20757, Note_on_c, 0, 71, 0
2, 20760, Note_on_c, 0, 72, 100
2, 20760, Note_on_c, 0, 69, 100
2, 20819, Note_on_c, 0, 69, 0
2, 20819, Note_on_c, 0, 72, 0
2, 20820, Note_on_c, 0, 71, 100
2, 20820, Note_on_c, 0, 67, 100
2, 20879, Note_on_c, 0, 67, 0
2, 20879, Note_on_c, 0, 71, 0
2, 20880, Note_on_c, 0, 69, 100
2, 20880, Note_on_c, 0, 66, 100
2, 20999, Note_on_c, 0, 66, 0
2, 20999, Note_on_c, 0, 69, 0
2, 21000, Note_on_c, 0, 71, 100
2, 21000, Note_on_c, 0, 67, 100
2, 21119, Note_on_c, 0, 67, 0
2, 21119, Note_on_c, 0, 71, 0
2, 21120, Note_on_c, 0, 71, 100
2, 21120, Note_on_c, 0, 67, 100
2, 21240, Note_on_c, 0, 69, 100
2, 21240, Note_on_c, 0, 66, 100
2, 21240, Note_on_c, 0, 67, 0
2, 21240, Note_on_c, 0, 71, 0
2, 21357, Note_on_c, 0, 69, 0
2, 21357, Note_on_c, 0, 66, 0
2, 21360, Note_on_c, 0, 71, 64
2, 21479, Note_on_c, 0, 71, 0
2, 21480, Note_on_c, 0, 71, 64
2, 21599, Note_on_c, 0, 71, 0
2, 21600, Note_on_c, 0, 72, 64
2, 21660, Note_on_c, 0, 71, 64
2, 21660, Note_on_c, 0, 72, 0
2, 21717, Note_on_c, 0, 71, 0
2, 21720, Note_on_c, 0, 69, 64
2, 21779, Note_on_c, 0, 69, 0
2, 21780, Note_on_c, 0, 67, 64
2, 21839, Note_on_c, 0, 67, 0
2, 21840, Note_on_c, 0, 74, 64
2, 21959, Note_on_c, 0, 74, 0
2, 21960, Note_on_c, 0, 74, 64
2, 21960, Note_on_c, 0, 71, 64
2, 22079, Note_on_c, 0, 71, 0
2, 22079, Note_on_c, 0, 74, 0
2, 22080, Note_on_c, 0, 76, 64
2, 22140, Note_on_c, 0, 74, 64
2, 22140, Note_on_c, 0, 76, 0
2, 22197, Note_on_c, 0, 74, 0
2, 22200, Note_on_c, 0, 72, 64
2, 22259, Note_on_c, 0, 72, 0
2, 22260, Note_on_c, 0, 71, 64
2, 22319, Note_on_c, 0, 71, 0
2, 22320, Note_on_c, 0, 76, 100
2, 22439, Note_on_c, 0, 76, 0
2, 22440, Note_on_c, 0, 76, 100
2, 22559, Note_on_c, 0, 76, 0
2, 22560, Note_on_c, 0, 76, 100
2, 22619, Note_on_c, 0, 76, 0
2, 22620, Note_on_c, 0, 78, 100
2, 22679, Note_on_c, 0, 78, 0
2, 22680, Note_on_c, 0, 79, 100
2, 22739, Note_on_c, 0, 79, 0
2, 22740, Note_on_c, 0, 72, 100
2, 22799, Note_on_c, 0, 72, 0
2, 22800, Note_on_c, 0, 71, 100
2, 22919, Note_on_c, 0, 71, 0
2, 22920, Note_on_c, 0, 71, 100
2, 22935, Note_on_c, 0, 69, 100
2, 22935, Note_on_c, 0, 71, 0
2, 22950, Note_on_c, 0, 71, 100
2, 22950, Note_on_c, 0, 69, 0
2, 22965, Note_on_c, 0, 69, 100
2, 22965, Note_on_c, 0, 71, 0
2, 22980, Note_on_c, 0, 67, 100
2, 22980, Note_on_c, 0, 69, 0
2, 23010, Note_on_c, 0, 69, 100
2, 23010, Note_on_c, 0, 67, 0
2, 23040, Note_on_c, 0, 67, 100
2, 23040, Note_on_c, 0, 69, 0
2, 23279, Note_on_c, 0, 67, 0
2, 23280, Note_on_c, 0, 67, 100
2, 23399, Note_on_c, 0, 67, 0
2, 23400, Note_on_c, 0, 67, 100
2, 23519, Note_on_c, 0, 67, 0
2, 23520, Note_on_c, 0, 67, 100
2, 23579, Note_on_c, 0, 67, 0
2, 23580, Note_on_c, 0, 62, 100
2, 23639, Note_on_c, 0, 62, 0
2, 23640, Note_on_c, 0, 59, 100
2, 23699, Note_on_c, 0, 59, 0
2, 23700, Note_on_c, 0, 55, 100
2, 23759, Note_on_c, 0, 55, 0
2, 23760, Note_on_c, 0, 71, 100
2, 23879, Note_on_c, 0, 71, 0
2, 23880, Note_on_c, 0, 71, 100
2, 23999, Note_on_c, 0, 71, 0
2, 24000, Note_on_c, 0, 71, 100
2, 24059, Note_on_c, 0, 71, 0
2, 24060, Note_on_c, 0, 67, 100
2, 24119, Note_on_c, 0, 67, 0
2, 24120, Note_on_c, 0, 62, 100
2, 24179, Note_on_c, 0, 62, 0
2, 24180, Note_on_c, 0, 59, 100
2, 24239, Note_on_c, 0, 59, 0
2, 24240, Note_on_c, 0, 74, 100
2, 24359, Note_on_c, 0, 74, 0
2, 24360, Note_on_c, 0, 74, 100
2, 24479, Note_on_c, 0, 74, 0
2, 24480, Note_on_c, 0, 74, 100
2, 24539, Note_on_c, 0, 74, 0
2, 24540, Note_on_c, 0, 71, 100
2, 24599, Note_on_c, 0, 71, 0
2, 24600, Note_on_c, 0, 67, 100
2, 24659, Note_on_c, 0, 67, 0
2, 24660, Note_on_c, 0, 62, 100
2, 24719, Note_on_c, 0, 62, 0
2, 24720, Note_on_c, 0, 79, 100
2, 24839, Note_on_c, 0, 79, 0
2, 24840, Note_on_c, 0, 79, 100
2, 24840, Note_on_c, 0, 71, 100
2, 24959, Note_on_c, 0, 71, 0
2, 24959, Note_on_c, 0, 79, 0
2, 24960, Note_on_c, 0, 79, 100
2, 24960, Note_on_c, 0, 71, 100
2, 25199, Note_on_c, 0, 71, 0
2, 25199, Note_on_c, 0, 79, 0
2, 25200, Note_on_c, 0, 71, 100
2, 25200, Note_on_c, 0, 67, 100
2, 25259, Note_on_c, 0, 67, 0
2, 25260, Note_on_c, 0, 62, 100
2, 25319, Note_on_c, 0, 62, 0
2, 25319, Note_on_c, 0, 71, 0
2, 25320, Note_on_c, 0, 72, 100
2, 25320, Note_on_c, 0, 69, 100
2, 25379, Note_on_c, 0, 69, 0
2, 25380, Note_on_c, 0, 62, 100
2, 25439, Note_on_c, 0, 62, 0
2, 25439, Note_on_c, 0, 72, 0
2, 25440, Note_on_c, 0, 74, 100
2, 25440, Note_on_c, 0, 71, 100
2, 25499, Note_on_c, 0, 71, 0
2, 25500, Note_on_c, 0, 62, 100
2, 25559, Note_on_c, 0, 62, 0
2, 25560, Note_on_c, 0, 76, 100
2, 25560, Note_on_c, 0, 72, 100
2, 25560, Note_on_c, 0, 74, 0
2, 25619, Note_on_c, 0, 72, 0
2, 25620, Note_on_c, 0, 62, 100
2, 25677, Note_on_c, 0, 76, 0
2, 25679, Note_on_c, 0, 62, 0
2, 25680, Note_on_c, 0, 69, 100
2, 25680, Note_on_c, 0, 66, 100
2, 25739, Note_on_c, 0, 66, 0
2, 25740, Note_on_c, 0, 62, 100
2, 25799, Note_on_c, 0, 62, 0
2, 25799, Note_on_c, 0, 69, 0
2, 25800, Note_on_c, 0, 71, 100
2, 25800, Note_on_c, 0, 67, 100
2, 25859, Note_on_c, 0, 67, 0
2, 25860, Note_on_c, 0, 62, 100
2, 25919, Note_on_c, 0, 62, 0
2, 25919, Note_on_c, 0, 71, 0
2, 25920, Note_on_c, 0, 72, 100
2, 25920, Note_on_c, 0, 69, 100
2, 25979, Note_on_c, 0, 69, 0
2, 25980, Note_on_c, 0, 62, 100
2, 26039, Note_on_c, 0, 62, 0
2, 26040, Note_on_c, 0, 74, 100
2, 26040, Note_on_c, 0, 71, 100
2, 26040, Note_on_c, 0, 72, 0
2, 26099, Note_on_c, 0, 71, 0
2, 26100, Note_on_c, 0, 62, 100
2, 26157, Note_on_c, 0, 74, 0
2, 26159, Note_on_c, 0, 62, 0
2, 26160, Note_on_c, 0, 67, 100
2, 26160, Note_on_c, 0, 64, 100
2, 26219, Note_on_c, 0, 64, 0
2, 26220, Note_on_c, 0, 62, 100
2, 26279, Note_on_c, 0, 62, 0
2, 26279, Note_on_c, 0, 67, 0
2, 26280, Note_on_c, 0, 69, 100
2, 26280, Note_on_c, 0, 66, 100
2, 26339, Note_on_c, 0, 66, 0
2, 26340, Note_on_c, 0, 62, 100
2, 26399, Note_on_c, 0, 62, 0
2, 26399, Note_on_c, 0, 69, 0
2, 26400, Note_on_c, 0, 71, 100
2, 26459, Note_on_c, 0, 71, 0
2, 26460, Note_on_c, 0, 74, 100
2, 26519, Note_on_c, 0, 74, 0
2, 26520, Note_on_c, 0, 71, 100
2, 26579, Note_on_c, 0, 71, 0
2, 26580, Note_on_c, 0, 67, 100
2, 26639, Note_on_c, 0, 67, 0
2, 26640, Note_on_c, 0, 74, 100
2, 26700, Note_on_c, 0, 72, 100
2, 26700, Note_on_c, 0, 74, 0
2, 26757, Note_on_c, 0, 72, 0
2, 26760, Note_on_c, 0, 69, 100
2, 26819, Note_on_c, 0, 69, 0
2, 26820, Note_on_c, 0, 66, 100
2, 26879, Note_on_c, 0, 66, 0
2, 26880, Note_on_c, 0, 67, 100
2, 27119, Note_on_c, 0, 67, 0
2, 27120, Note_on_c, 0, 67, 100
2, 27239, Note_on_c, 0, 67, 0
2, 27240, Note_on_c, 0, 67, 100
2, 27359, Note_on_c, 0, 67, 0
2, 27360, Note_on_c, 0, 67, 100
2, 27419, Note_on_c, 0, 67, 0
2, 27420, Note_on_c, 0, 62, 100
2, 27479, Note_on_c, 0, 62, 0
2, 27480, Note_on_c, 0, 59, 100
2, 27539, Note_on_c, 0, 59, 0
2, 27540, Note_on_c, 0, 55, 100
2, 27599, Note_on_c, 0, 55, 0
2, 27600, Note_on_c, 0, 71, 100
2, 27719, Note_on_c, 0, 71, 0
2, 27720, Note_on_c, 0, 71, 100
2, 27839, Note_on_c, 0, 71, 0
2, 27840, Note_on_c, 0, 71, 100
2, 27899, Note_on_c, 0, 71, 0
2, 27900, Note_on_c, 0, 67, 100
2, 27959, Note_on_c, 0, 67, 0
2, 27960, Note_on_c, 0, 62, 100
2, 28019, Note_on_c, 0, 62, 0
2, 28020, Note_on_c, 0, 59, 100
2, 28079, Note_on_c, 0, 59, 0
2, 28080, Note_on_c, 0, 74, 100
2, 28199, Note_on_c, 0, 74, 0
2, 28200, Note_on_c, 0, 74, 100
2, 28319, Note_on_c, 0, 74, 0
2, 28320, Note_on_c, 0, 74, 100
2, 28379, Note_on_c, 0, 74, 0
2, 28380, Note_on_c, 0, 71, 100
2, 28439, Note_on_c, 0, 71, 0
2, 28440, Note_on_c, 0, 67, 100
2, 28499, Note_on_c, 0, 67, 0
2, 28500, Note_on_c, 0, 62, 100
2, 28559, Note_on_c, 0, 62, 0
2, 28560, Note_on_c, 0, 79, 100
2, 28679, Note_on_c, 0, 79, 0
2, 28680, Note_on_c, 0, 79, 100
2, 28680, Note_on_c, 0, 71, 100
2, 28799, Note_on_c, 0, 71, 0
2, 28799, Note_on_c, 0, 79, 0
2, 28800, Note_on_c, 0, 79, 100
2, 28800, Note_on_c, 0, 71, 100
2, 29039, Note_on_c, 0, 71, 0
2, 29039, Note_on_c, 0, 79, 0
2, 29040, Note_on_c, 0, 71, 100
2, 29040, Note_on_c, 0, 67, 100
2, 29099, Note_on_c, 0, 67, 0
2, 29100, Note_on_c, 0, 62, 100
2, 29159, Note_on_c, 0, 62, 0
2, 29159, Note_on_c, 0, 71, 0
2, 29160, Note_on_c, 0, 72, 100
2, 29160, Note_on_c, 0, 69, 100
2, 29219, Note_on_c, 0, 69, 0
2, 29220, Note_on_c, 0, 62, 100
2, 29279, Note_on_c, 0, 62, 0
2, 29279, Note_on_c, 0, 72, 0
2, 29280, Note_on_c, 0, 74, 100
2, 29280, Note_on_c, 0, 71, 100
2, 29339, Note_on_c, 0, 71, 0
2, 29340, Note_on_c, 0, 62, 100
2, 29399, Note_on_c, 0, 62, 0
2, 29400, Note_on_c, 0, 76, 100
2, 29400, Note_on_c, 0, 72, 100
2, 29400, Note_on_c, 0, 74, 0
2, 29459, Note_on_c, 0, 72, 0
2, 29460, Note_on_c, 0, 62, 100
2, 29517, Note_on_c, 0, 76, 0
2, 29519, Note_on_c, 0, 62, 0
2, 29520, Note_on_c, 0, 69, 100
2, 29520, Note_on_c, 0, 66, 100
2, 29579, Note_on_c, 0, 66, 0
2, 29580, Note_on_c, 0, 62, 100
2, 29639, Note_on_c, 0, 62, 0
2, 29639, Note_on_c, 0, 69, 0
2, 29640, Note_on_c, 0, 71, 100
2, 29640, Note_on_c, 0, 67, 100
2, 29699, Note_on_c, 0, 67, 0
2, 29700, Note_on_c, 0, 62, 100
2, 29759, Note_on_c, 0, 62, 0
2, 29759, Note_on_c, 0, 71, 0
2, 29760, Note_on_c, 0, 72, 100
2, 29760, Note_on_c, 0, 69, 100
2, 29819, Note_on_c, 0, 69, 0
2, 29820, Note_on_c, 0, 62, 100
2, 29879, Note_on_c, 0, 62, 0
2, 29880, Note_on_c, 0, 74, 100
2, 29880, Note_on_c, 0, 71, 100
2, 29880, Note_on_c, 0, 72, 0
2, 29939, Note_on_c, 0, 71, 0
2, 29940, Note_on_c, 0, 62, 100
2, 29997, Note_on_c, 0, 74, 0
2, 29999, Note_on_c, 0, 62, 0
2, 30000, Note_on_c, 0, 67, 100
2, 30000, Note_on_c, 0, 64, 100
2, 30059, Note_on_c, 0, 64, 0
2, 30060, Note_on_c, 0, 62, 100
2, 30119, Note_on_c, 0, 62, 0
2, 30119, Note_on_c, 0, 67, 0
2, 30120, Note_on_c, 0, 69, 100
2, 30120, Note_on_c, 0, 66, 100
2, 30179, Note_on_c, 0, 66, 0
2, 30180, Note_on_c, 0, 62, 100
2, 30239, Note_on_c, 0, 62, 0
2, 30239, Note_on_c, 0, 69, 0
2, 30240, Note_on_c, 0, 71, 100
2, 30299, Note_on_c, 0, 71, 0
2, 30300, Note_on_c, 0, 74, 100
2, 30359, Note_on_c, 0, 74, 0
2, 30360, Note_on_c, 0, 71, 100
2, 30419, Note_on_c, 0, 71, 0
2, 30420, Note_on_c, 0, 67, 100
2, 30479, Note_on_c, 0, 67, 0
2, 30480, Note_on_c, 0, 74, 100
2, 30540, Note_on_c, 0, 72, 100
2, 30540, Note_on_c, 0, 74, 0
2, 30597, Note_on_c, 0, 72, 0
2, 30600, Note_on_c, 0, 69, 100
2, 30659, Note_on_c, 0, 69, 0
2, 30660, Note_on_c, 0, 66, 100
2, 30719, Note_on_c, 0, 66, 0
2, 30720, Note_on_c, 0, 67, 100
2, 30959, Note_on_c, 0, 67, 0
2, 30960, Note_on_c, 0, 71, 64
2, 30960, Note_on_c, 0, 67, 64
2, 31079, Note_on_c, 0, 67, 0
2, 31079, Note_on_c, 0, 71, 0
2, 31080, Note_on_c, 0, 72, 64
2, 31080, Note_on_c, 0, 69, 64
2, 31199, Note_on_c, 0, 69, 0
2, 31199, Note_on_c, 0, 72, 0
2, 31200, Note_on_c, 0, 74, 64
2, 31200, Note_on_c, 0, 71, 64
2, 31320, Note_on_c, 0, 76, 64
2, 31320, Note_on_c, 0, 72, 64
2, 31320, Note_on_c, 0, 71, 0
2, 31320, Note_on_c, 0, 74, 0
2, 31437, Note_on_c, 0, 76, 0
2, 31437, Note_on_c, 0, 72, 0
2, 31440, Note_on_c, 0, 69, 64
2, 31440, Note_on_c, 0, 66, 64
2, 31559, Note_on_c, 0, 66, 0
2, 31559, Note_on_c, 0, 69, 0
2, 31560, Note_on_c, 0, 71, 64
2, 31560, Note_on_c, 0, 67, 64
2, 31679, Note_on_c, 0, 67, 0
2, 31679, Note_on_c, 0, 71, 0
2, 31680, Note_on_c, 0, 72, 64
2, 31680, Note_on_c, 0, 69, 64
2, 31800, Note_on_c, 0, 74, 64
2, 31800, Note_on_c, 0, 71, 64
2, 31800, Note_on_c, 0, 69, 0
2, 31800, Note_on_c, 0, 72, 0
2, 31917, Note_on_c, 0, 74, 0
2, 31917, Note_on_c, 0, 71, 0
2, 31920, Note_on_c, 0, 67, 64
2, 31920, Note_on_c, 0, 64, 64
2, 32039, Note_on_c, 0, 64, 0
2, 32039, Note_on_c, 0, 67, 0
2, 32040, Note_on_c, 0, 69, 64
2, 32040, Note_on_c, 0, 66, 64
2, 32159, Note_on_c, 0, 66, 0
2, 32159, Note_on_c, 0, 69, 0
2, 32160, Note_on_c, 0, 71, 64
2, 32160, Note_on_c, 0, 67, 64
2, 32279, Note_on_c, 0, 71, 0
2, 32280, Note_on_c, 0, 72, 64
2, 32399, Note_on_c, 0, 72, 0
2, 32400, Note_on_c, 0, 76, 64
2, 32460, Note_on_c, 0, 74, 64
2, 32460, Note_on_c, 0, 76, 0
2, 32517, Note_on_c, 0, 74, 0
2, 32520, Note_on_c, 0, 72, 64
2, 32579, Note_on_c, 0, 72, 0
2, 32580, Note_on_c, 0, 71, 64
2, 32639, Note_on_c, 0, 71, 0
2, 32639, Note_on_c, 0, 67, 0
2, 32640, Note_on_c, 0, 71, 64
2, 32640, Note_on_c, 0, 67, 64
2, 32760, Note_on_c, 0, 69, 64
2, 32760, Note_on_c, 0, 66, 64
2, 32760, Note_on_c, 0, 67, 0
2, 32760, Note_on_c, 0, 71, 0
2, 32877, Note_on_c, 0, 69, 0
2, 32877, Note_on_c, 0, 66, 0
2, 32880, Note_on_c, 0, 71, 100
2, 32880, Note_on_c, 0, 67, 100
2, 32939, Note_on_c, 0, 67, 0
2, 32940, Note_on_c, 0, 62, 100
2, 32999, Note_on_c, 0, 62, 0
2, 32999, Note_on_c, 0, 71, 0
2, 33000, Note_on_c, 0, 72, 100
2, 33000, Note_on_c, 0, 69, 100
2, 33059, Note_on_c, 0, 69, 0
2, 33060, Note_on_c, 0, 62, 100
2, 33119, Note_on_c, 0, 62, 0
2, 33119, Note_on_c, 0, 72, 0
2, 33120, Note_on_c, 0, 74, 100
2, 33120, Note_on_c, 0, 71, 100
2, 33179, Note_on_c, 0, 71, 0
2, 33180, Note_on_c, 0, 62, 100
2, 33239, Note_on_c, 0, 62, 0
2, 33240, Note_on_c, 0, 76, 100
2, 33240, Note_on_c, 0, 72, 100
2, 33240, Note_on_c, 0, 74, 0
2, 33299, Note_on_c, 0, 72, 0
2, 33300, Note_on_c, 0, 62, 100
2, 33357, Note_on_c, 0, 76, 0
2, 33359, Note_on_c, 0, 62, 0
2, 33360, Note_on_c, 0, 69, 100
2, 33360, Note_on_c, 0, 66, 100
2, 33419, Note_on_c, 0, 66, 0
2, 33420, Note_on_c, 0, 62, 100
2, 33479, Note_on_c, 0, 62, 0
2, 33479, Note_on_c, 0, 69, 0
2, 33480, Note_on_c, 0, 71, 100
2, 33480, Note_on_c, 0, 67, 100
2, 33539, Note_on_c, 0, 67, 0
2, 33540, Note_on_c, 0, 62, 100
2, 33599, Note_on_c, 0, 62, 0
2, 33599, Note_on_c, 0, 71, 0
2, 33600, Note_on_c, 0, 72, 100
2, 33600, Note_on_c, 0, 69, 100
2, 33659, Note_on_c, 0, 69, 0
2, 33660, Note_on_c, 0, 62, 100
2, 33719, Note_on_c, 0, 62, 0
2, 33720, Note_on_c, 0, 74, 100
2, 33720, Note_on_c, 0, 71, 100
2, 33720, Note_on_c, 0, 72, 0
2, 33779, Note_on_c, 0, 71, 0
2, 33780, Note_on_c, 0, 62, 100
2, 33837, Note_on_c, 0, 74, 0
2, 33839, Note_on_c, 0, 62, 0
2, 33840, Note_on_c, 0, 67, 100
2, 33840, Note_on_c, 0, 64, 100
2, 33899, Note_on_c, 0, 64, 0
2, 33900, Note_on_c, 0, 62, 100
2, 33959, Note_on_c, 0, 62, 0
2, 33959, Note_on_c, 0, 67, 0
2, 33960, Note_on_c, 0, 69, 100
2, 33960, Note_on_c, 0, 66, 100
2, 34019, Note_on_c, 0, 66, 0
2, 34020, Note_on_c, 0, 62, 100
2, 34079, Note_on_c, 0, 62, 0
2, 34079, Note_on_c, 0, 69, 0
2, 34080, Note_on_c, 0, 71, 100
2, 34139, Note_on_c, 0, 71, 0
2, 34140, Note_on_c, 0, 67, 100
2, 34199, Note_on_c, 0, 67, 0
2, 34200, Note_on_c, 0, 72, 100
2, 34259, Note_on_c, 0, 72, 0
2, 34260, Note_on_c, 0, 69, 100
2, 34319, Note_on_c, 0, 69, 0
2, 34320, Note_on_c, 0, 71, 100
2, 34335, Note_on_c, 0, 69, 100
2, 34335, Note_on_c, 0, 71, 0
2, 34350, Note_on_c, 0, 71, 100
2, 34350, Note_on_c, 0, 69, 0
2, 34365, Note_on_c, 0, 69, 100
2, 34365, Note_on_c, 0, 71, 0
2, 34380, Note_on_c, 0, 71, 100
2, 34380, Note_on_c, 0, 69, 0
2, 34395, Note_on_c, 0, 69, 100
2, 34395, Note_on_c, 0, 71, 0
2, 34410, Note_on_c, 0, 71, 100
2, 34410, Note_on_c, 0, 69, 0
2, 34425, Note_on_c, 0, 69, 100
2, 34425, Note_on_c, 0, 71, 0
2, 34440, Note_on_c, 0, 71, 100
2, 34440, Note_on_c, 0, 69, 0
2, 34455, Note_on_c, 0, 69, 100
2, 34455, Note_on_c, 0, 71, 0
2, 34470, Note_on_c, 0, 71, 100
2, 34470, Note_on_c, 0, 69, 0
2, 34485, Note_on_c, 0, 69, 100
2, 34485, Note_on_c, 0, 71, 0
2, 34500, Note_on_c, 0, 67, 100
2, 34500, Note_on_c, 0, 69, 0
2, 34530, Note_on_c, 0, 69, 100
2, 34530, Note_on_c, 0, 67, 0
2, 34560, Note_on_c, 0, 67, 100
2, 34560, Note_on_c, 0, 69, 0
2, 34799, Note_on_c, 0, 67, 0
2, 34800, Note_on_c, 0, 71, 64
2, 34800, Note_on_c, 0, 67, 64
2, 34919, Note_on_c, 0, 67, 0
2, 34919, Note_on_c, 0, 71, 0
2, 34920, Note_on_c, 0, 72, 64
2, 34920, Note_on_c, 0, 69, 64
2, 35039, Note_on_c, 0, 69, 0
2, 35039, Note_on_c, 0, 72, 0
2, 35040, Note_on_c, 0, 74, 64
2, 35040, Note_on_c, 0, 71, 64
2, 35160, Note_on_c, 0, 76, 64
2, 35160, Note_on_c, 0, 72, 64
2, 35160, Note_on_c, 0, 71, 0
2, 35160, Note_on_c, 0, 74, 0
2, 35277, Note_on_c, 0, 76, 0
2, 35277, Note_on_c, 0, 72, 0
2, 35280, Note_on_c, 0, 69, 64
2, 35280, Note_on_c, 0, 66, 64
2, 35399, Note_on_c, 0, 66, 0
2, 35399, Note_on_c, 0, 69, 0
2, 35400, Note_on_c, 0, 71, 64
2, 35400, Note_on_c, 0, 67, 64
2, 35519, Note_on_c, 0, 67, 0
2, 35519, Note_on_c, 0, 71, 0
2, 35520, Note_on_c, 0, 72, 64
2, 35520, Note_on_c, 0, 69, 64
2, 35640, Note_on_c, 0, 74, 64
2, 35640, Note_on_c, 0, 71, 64
2, 35640, Note_on_c, 0, 69, 0
2, 35640, Note_on_c, 0, 72, 0
2, 35757, Note_on_c, 0, 74, 0
2, 35757, Note_on_c, 0, 71, 0
2, 35760, Note_on_c, 0, 67, 64
2, 35760, Note_on_c, 0, 64, 64
2, 35879, Note_on_c, 0, 64, 0
2, 35879, Note_on_c, 0, 67, 0
2, 35880, Note_on_c, 0, 69, 64
2, 35880, Note_on_c, 0, 66, 64
2, 35999, Note_on_c, 0, 66, 0
2, 35999, Note_on_c, 0, 69, 0
2, 36000, Note_on_c, 0, 71, 64
2, 36000, Note_on_c, 0, 67, 64
2, 36119, Note_on_c, 0, 71, 0
2, 36120, Note_on_c, 0, 72, 64
2, 36239, Note_on_c, 0, 72, 0
2, 36240, Note_on_c, 0, 76, 64
2, 36300, Note_on_c, 0, 74, 64
2, 36300, Note_on_c, 0, 76, 0
2, 36357, Note_on_c, 0, 74, 0
2, 36360, Note_on_c, 0, 72, 64
2, 36419, Note_on_c, 0, 72, 0
2, 36420, Note_on_c, 0, 71, 64
2, 36479, Note_on_c, 0, 71, 0
2, 36479, Note_on_c, 0, 67, 0
2, 36480, Note_on_c, 0, 71, 64
2, 36480, Note_on_c, 0, 67, 64
2, 36600, Note_on_c, 0, 69, 64
2, 36600, Note_on_c, 0, 66, 64
2, 36600, Note_on_c, 0, 67, 0
2, 36600, Note_on_c, 0, 71, 0
2, 36717, Note_on_c, 0, 69, 0
2, 36717, Note_on_c, 0, 66, 0
2, 36720, Note_on_c, 0, 71, 100
2, 36720, Note_on_c, 0, 67, 100
2, 36779, Note_on_c, 0, 67, 0
2, 36780, Note_on_c, 0, 62, 100
2, 36839, Note_on_c, 0, 62, 0
2, 36839, Note_on_c, 0, 71, 0
2, 36840, Note_on_c, 0, 72, 100
2, 36840, Note_on_c, 0, 69, 100
2, 36899, Note_on_c, 0, 69, 0
2, 36900, Note_on_c, 0, 62, 100
2, 36959, Note_on_c, 0, 62, 0
2, 36959, Note_on_c, 0, 72, 0
2, 36960, Note_on_c, 0, 74, 100
2, 36960, Note_on_c, 0, 71, 100
2, 37019, Note_on_c, 0, 71, 0
2, 37020, Note_on_c, 0, 62, 100
2, 37079, Note_on_c, 0, 62, 0
2, 37080, Note_on_c, 0, 76, 100
2, 37080, Note_on_c, 0, 72, 100
2, 37080, Note_on_c, 0, 74, 0
2, 37139, Note_on_c, 0, 72, 0
2, 37140, Note_on_c, 0, 62, 100
2, 37197, Note_on_c, 0, 76, 0
2, 37199, Note_on_c, 0, 62, 0
2, 37200, Note_on_c, 0, 69, 100
2, 37200, Note_on_c, 0, 66, 100
2, 37259, Note_on_c, 0, 66, 0
2, 37260, Note_on_c, 0, 62, 100
2, 37319, Note_on_c, 0, 62, 0
2, 37319, Note_on_c, 0, 69, 0
2, 37320, Note_on_c, 0, 71, 100
2, 37320, Note_on_c, 0, 67, 100
2, 37379, Note_on_c, 0, 67, 0
2, 37380, Note_on_c, 0, 62, 100
2, 37439, Note_on_c, 0, 62, 0
2, 37439, Note_on_c, 0, 71, 0
2, 37440, Note_on_c, 0, 72, 100
2, 37440, Note_on_c, 0, 69, 100
2, 37499, Note_on_c, 0, 69, 0
2, 37500, Note_on_c, 0, 62, 100
2, 37559, Note_on_c, 0, 62, 0
2, 37560, Note_on_c, 0, 74, 100
2, 37560, Note_on_c, 0, 71, 100
2, 37560, Note_on_c, 0, 72, 0
2, 37619, Note_on_c, 0, 71, 0
2, 37620, Note_on_c, 0, 62, 100
2, 37677, Note_on_c, 0, 74, 0
2, 37679, Note_on_c, 0, 62, 0
2, 37680, Note_on_c, 0, 67, 100
2, 37680, Note_on_c, 0, 64, 100
2, 37739, Note_on_c, 0, 64, 0
2, 37740, Note_on_c, 0, 62, 100
2, 37799, Note_on_c, 0, 62, 0
2, 37799, Note_on_c, 0, 67, 0
2, 37800, Note_on_c, 0, 69, 100
2, 37800, Note_on_c, 0, 66, 100
2, 37859, Note_on_c, 0, 66, 0
2, 37860, Note_on_c, 0, 62, 100
2, 37919, Note_on_c, 0, 62, 0
2, 37919, Note_on_c, 0, 69, 0
2, 37920, Note_on_c, 0, 71, 100
2, 37979, Note_on_c, 0, 71, 0
2, 37980, Note_on_c, 0, 67, 100
2, 38039, Note_on_c, 0, 67, 0
2, 38040, Note_on_c, 0, 72, 100
2, 38099, Note_on_c, 0, 72, 0
2, 38100, Note_on_c, 0, 69, 100
2, 38159, Note_on_c, 0, 69, 0
2, 38160, Note_on_c, 0, 71, 100
2, 38175, Note_on_c, 0, 69, 100
2, 38175, Note_on_c, 0, 71, 0
2, 38190, Note_on_c, 0, 71, 100
2, 38190, Note_on_c, 0, 69, 0
2, 38205, Note_on_c, 0, 69, 100
2, 38205, Note_on_c, 0, 71, 0
2, 38220, Note_on_c, 0, 71, 100
2, 38220, Note_on_c, 0, 69, 0
2, 38235, Note_on_c, 0, 69, 100
2, 38235, Note_on_c, 0, 71, 0
2, 38250, Note_on_c, 0, 71, 100
2, 38250, Note_on_c, 0, 69, 0
2, 38265, Note_on_c, 0, 69, 100
2, 38265, Note_on_c, 0, 71, 0
2, 38280, Note_on_c, 0, 71, 100
2, 38280, Note_on_c, 0, 69, 0
2, 38295, Note_on_c, 0, 69, 100
2, 38295, Note_on_c, 0, 71, 0
2, 38310, Note_on_c, 0, 71, 100
2, 38310, Note_on_c, 0, 69, 0
2, 38325, Note_on_c, 0, 69, 100
2, 38325, Note_on_c, 0, 71, 0
2, 38340, Note_on_c, 0, 67, 100
2, 38340, Note_on_c, 0, 69, 0
2, 38370, Note_on_c, 0, 69, 100
2, 38370, Note_on_c, 0, 67, 0
2, 38400, Note_on_c, 0, 67, 100
2, 38400, Note_on_c, 0, 69, 0
2, 38639, Note_on_c, 0, 67, 0
2, 38639, End_track
3, 0, Start_track
3, 0, Title_t, "Piano left"
3, 0, Control_c, 1, 7, 85
3, 0, Control_c, 1, 10, 90
3, 0, Program_c, 1, 0
3, 240, Note_on_c, 1, 55, 60
3, 359, Note_on_c, 1, 55, 0
3, 360, Note_on_c, 1, 55, 60
3, 479, Note_on_c, 1, 55, 0
3, 480, Note_on_c, 1, 55, 60
3, 599, Note_on_c, 1, 55, 0
3, 600, Poly_aftertouch_c, 1, 55, 64
3, 720, Note_on_c, 1, 62, 60
3, 839, Note_on_c, 1, 62, 0
3, 840, Note_on_c, 1, 62, 60
3, 959, Note_on_c, 1, 62, 0
3, 960, Note_on_c, 1, 62, 60
3, 1079, Note_on_c, 1, 62, 0
3, 1080, Poly_aftertouch_c, 1, 62, 64
3, 1320, Note_on_c, 1, 50, 60
3, 1439, Note_on_c, 1, 50, 0
3, 1440, Note_on_c, 1, 43, 60
3, 1559, Note_on_c, 1, 43, 0
3, 1560, Note_on_c, 1, 45, 60
3, 1679, Note_on_c, 1, 45, 0
3, 1680, Note_on_c, 1, 47, 60
3, 1799, Note_on_c, 1, 47, 0
3, 1800, Note_on_c, 1, 48, 60
3, 1919, Note_on_c, 1, 48, 0
3, 1920, Note_on_c, 1, 50, 60
3, 2159, Note_on_c, 1, 50, 0
3, 2160, Poly_aftertouch_c, 1, 50, 64
3, 2400, Note_on_c, 1, 50, 95
3, 2400, Note_on_c, 1, 38, 95
3, 2639, Note_on_c, 1, 38, 0
3, 2639, Note_on_c, 1, 50, 0
3, 2640, Poly_aftertouch_c, 1, 38, 64
3, 2880, Note_on_c, 1, 50, 95
3, 2880, Note_on_c, 1, 38, 95
3, 3119, Note_on_c, 1, 38, 0
3, 3119, Note_on_c, 1, 50, 0
3, 3120, Poly_aftertouch_c, 1, 38, 64
3, 3240, Note_on_c, 1, 50, 95
3, 3359, Note_on_c, 1, 50, 0
3, 3360, Note_on_c, 1, 55, 95
3, 3480, Note_on_c, 1, 52, 95
3, 3599, Note_on_c, 1, 52, 0
3, 3599, Note_on_c, 1, 55, 0
3, 3600, Note_on_c, 1, 48, 95
3, 3719, Note_on_c, 1, 48, 0
3, 3720, Note_on_c, 1, 54, 95
3, 3720, Note_on_c, 1, 50, 95
3, 3839, Note_on_c, 1, 50, 0
3, 3839, Note_on_c, 1, 54, 0
3, 3840, Note_on_c, 1, 55, 95
3, 3840, Note_on_c, 1, 43, 95
3, 4079, Note_on_c, 1, 43, 0
3, 4079, Note_on_c, 1, 55, 0
3, 4080, Note_on_c, 1, 55, 60
3, 4199, Note_on_c, 1, 55, 0
3, 4200, Note_on_c, 1, 55, 60
3, 4319, Note_on_c, 1, 55, 0
3, 4320, Note_on_c, 1, 55, 60
3, 4439, Note_on_c, 1, 55, 0
3, 4440, Poly_aftertouch_c, 1, 55, 64
3, 4560, Note_on_c, 1, 62, 60
3, 4679, Note_on_c, 1, 62, 0
3, 4680, Note_on_c, 1, 62, 60
3, 4799, Note_on_c, 1, 62, 0
3, 4800, Note_on_c, 1, 62, 60
3, 4919, Note_on_c, 1, 62, 0
3, 4920, Poly_aftertouch_c, 1, 62, 64
3, 5160, Note_on_c, 1, 50, 60
3, 5279, Note_on_c, 1, 50, 0
3, 5280, Note_on_c, 1, 43, 60
3, 5399, Note_on_c, 1, 43, 0
3, 5400, Note_on_c, 1, 45, 60
3, 5519, Note_on_c, 1, 45, 0
3, 5520, Note_on_c, 1, 47, 60
3, 5639, Note_on_c, 1, 47, 0
3, 5640, Note_on_c, 1, 48, 60
3, 5759, Note_on_c, 1, 48, 0
3, 5760, Note_on_c, 1, 50, 60
3, 5999, Note_on_c, 1, 50, 0
3, 6000, Poly_aftertouch_c, 1, 50, 64
3, 6240, Note_on_c, 1, 50, 95
3, 6240, Note_on_c, 1, 38, 95
3, 6479, Note_on_c, 1, 38, 0
3, 6479, Note_on_c, 1, 50, 0
3, 6480, Poly_aftertouch_c, 1, 38, 64
3, 6720, Note_on_c, 1, 50, 95
3, 6720, Note_on_c, 1, 38, 95
3, 6959, Note_on_c, 1, 38, 0
3, 6959, Note_on_c, 1, 50, 0
3, 6960, Poly_aftertouch_c, 1, 38, 64
3, 7080, Note_on_c, 1, 50, 95
3, 7199, Note_on_c, 1, 50, 0
3, 7200, Note_on_c, 1, 55, 95
3, 7320, Note_on_c, 1, 52, 95
3, 7439, Note_on_c, 1, 52, 0
3, 7439, Note_on_c, 1, 55, 0
3, 7440, Note_on_c, 1, 48, 95
3, 7559, Note_on_c, 1, 48, 0
3, 7560, Note_on_c, 1, 54, 95
3, 7560, Note_on_c, 1, 50, 95
3, 7679, Note_on_c, 1, 50, 0
3, 7679, Note_on_c, 1, 54, 0
3, 7680, Note_on_c, 1, 55, 95
3, 7680, Note_on_c, 1, 43, 95
3, 7919, Note_on_c, 1, 43, 0
3, 7919, Note_on_c, 1, 55, 0
3, 7920, Note_on_c, 1, 55, 60
3, 8039, Note_on_c, 1, 55, 0
3, 8040, Note_on_c, 1, 57, 60
3, 8159, Note_on_c, 1, 57, 0
3, 8160, Note_on_c, 1, 59, 60
3, 8279, Note_on_c, 1, 59, 0
3, 8280, Note_on_c, 1, 64, 60
3, 8399, Note_on_c, 1, 64, 0
3, 8400, Note_on_c, 1, 62, 60
3, 8519, Note_on_c, 1, 62, 0
3, 8520, Note_on_c, 1, 60, 60
3, 8639, Note_on_c, 1, 60, 0
3, 8640, Note_on_c, 1, 59, 60
3, 8759, Note_on_c, 1, 59, 0
3, 8760, Note_on_c, 1, 55, 60
3, 8879, Note_on_c, 1, 55, 0
3, 8880, Poly_aftertouch_c, 1, 55, 64
3, 9120, Note_on_c, 1, 55, 60
3, 9359, Note_on_c, 1, 55, 0
3, 9360, Note_on_c, 1, 48, 60
3, 9599, Note_on_c, 1, 48, 0
3, 9600, Note_on_c, 1, 50, 60
3, 9839, Note_on_c, 1, 50, 0
3, 9840, Note_on_c, 1, 55, 95
3, 9959, Note_on_c, 1, 55, 0
3, 9960, Note_on_c, 1, 57, 95
3, 10079, Note_on_c, 1, 57, 0
3, 10080, Note_on_c, 1, 59, 95
3, 10199, Note_on_c, 1, 59, 0
3, 10200, Note_on_c, 1, 64, 95
3, 10319, Note_on_c, 1, 64, 0
3, 10320, Note_on_c, 1, 62, 95
3, 10439, Note_on_c, 1, 62, 0
3, 10440, Note_on_c, 1, 60, 95
3, 10559, Note_on_c, 1, 60, 0
3, 10560, Note_on_c, 1, 59, 95
3, 10679, Note_on_c, 1, 59, 0
3, 10680, Note_on_c, 1, 55, 95
3, 10799, Note_on_c, 1, 55, 0
3, 10800, Poly_aftertouch_c, 1, 55, 64
3, 10920, Note_on_c, 1, 55, 95
3, 11039, Note_on_c, 1, 55, 0
3, 11040, Note_on_c, 1, 54, 95
3, 11159, Note_on_c, 1, 54, 0
3, 11160, Note_on_c, 1, 59, 95
3, 11279, Note_on_c, 1, 59, 0
3, 11280, Note_on_c, 1, 55, 95
3, 11399, Note_on_c, 1, 55, 0
3, 11400, Note_on_c, 1, 57, 95
3, 11519, Note_on_c, 1, 57, 0
3, 11520, Note_on_c, 1, 50, 95
3, 11759, Note_on_c, 1, 50, 0
3, 11760, Note_on_c, 1, 55, 60
3, 11879, Note_on_c, 1, 55, 0
3, 11880, Note_on_c, 1, 57, 60
3, 11999, Note_on_c, 1, 57, 0
3, 12000, Note_on_c, 1, 59, 60
3, 12119, Note_on_c, 1, 59, 0
3, 12120, Note_on_c, 1, 64, 60
3, 12239, Note_on_c, 1, 64, 0
3, 12240, Note_on_c, 1, 62, 60
3, 12359, Note_on_c, 1, 62, 0
3, 12360, Note_on_c, 1, 60, 60
3, 12479, Note_on_c, 1, 60, 0
3, 12480, Note_on_c, 1, 59, 60
3, 12599, Note_on_c, 1, 59, 0
3, 12600, Note_on_c, 1, 55, 60
3, 12719, Note_on_c, 1, 55, 0
3, 12720, Poly_aftertouch_c, 1, 55, 64
3, 12960, Note_on_c, 1, 55, 60
3, 13199, Note_on_c, 1, 55, 0
3, 13200, Note_on_c, 1, 48, 60
3, 13439, Note_on_c, 1, 48, 0
3, 13440, Note_on_c, 1, 50, 60
3, 13679, Note_on_c, 1, 50, 0
3, 13680, Note_on_c, 1, 55, 95
3, 13799, Note_on_c, 1, 55, 0
3, 13800, Note_on_c, 1, 57, 95
3, 13919, Note_on_c, 1, 57, 0
3, 13920, Note_on_c, 1, 59, 95
3, 14039, Note_on_c, 1, 59, 0
3, 14040, Note_on_c, 1, 64, 95
3, 14159, Note_on_c, 1, 64, 0
3, 14160, Note_on_c, 1, 62, 95
3, 14279, Note_on_c, 1, 62, 0
3, 14280, Note_on_c, 1, 60, 95
3, 14399, Note_on_c, 1, 60, 0
3, 14400, Note_on_c, 1, 59, 95
3, 14519, Note_on_c, 1, 59, 0
3, 14520, Note_on_c, 1, 55, 95
3, 14639, Note_on_c, 1, 55, 0
3, 14640, Poly_aftertouch_c, 1, 55, 64
3, 14760, Note_on_c, 1, 55, 95
3, 14879, Note_on_c, 1, 55, 0
3, 14880, Note_on_c, 1, 54, 95
3, 14999, Note_on_c, 1, 54, 0
3, 15000, Note_on_c, 1, 59, 95
3, 15119, Note_on_c, 1, 59, 0
3, 15120, Note_on_c, 1, 55, 95
3, 15239, Note_on_c, 1, 55, 0
3, 15240, Note_on_c, 1, 57, 95
3, 15359, Note_on_c, 1, 57, 0
3, 15360, Note_on_c, 1, 50, 95
3, 15599, Note_on_c, 1, 50, 0
3, 15600, Note_on_c, 1, 55, 60
3, 15719, Note_on_c, 1, 55, 0
3, 15720, Note_on_c, 1, 49, 60
3, 15839, Note_on_c, 1, 49, 0
3, 15840, Note_on_c, 1, 50, 60
3, 15959, Note_on_c, 1, 50, 0
3, 15960, Poly_aftertouch_c, 1, 50, 64
3, 16080, Note_on_c, 1, 62, 60
3, 16199, Note_on_c, 1, 62, 0
3, 16200, Note_on_c, 1, 54, 60
3, 16319, Note_on_c, 1, 54, 0
3, 16320, Note_on_c, 1, 55, 60
3, 16439, Note_on_c, 1, 55, 0
3, 16440, Poly_aftertouch_c, 1, 54, 64
3, 16560, Note_on_c, 1, 55, 95
3, 16619, Note_on_c, 1, 55, 0
3, 16620, Note_on_c, 1, 54, 95
3, 16679, Note_on_c, 1, 54, 0
3, 16680, Note_on_c, 1, 55, 95
3, 16739, Note_on_c, 1, 55, 0
3, 16740, Note_on_c, 1, 54, 95
3, 16799, Note_on_c, 1, 54, 0
3, 16800, Note_on_c, 1, 55, 95
3, 16919, Note_on_c, 1, 55, 0
3, 16920, Note_on_c, 1, 55, 95
3, 17039, Note_on_c, 1, 55, 0
3, 17040, Note_on_c, 1, 62, 95
3, 17159, Note_on_c, 1, 62, 0
3, 17160, Note_on_c, 1, 61, 95
3, 17279, Note_on_c, 1, 61, 0
3, 17280, Note_on_c, 1, 62, 95
3, 17519, Note_on_c, 1, 62, 0
3, 17520, Note_on_c, 1, 62, 60
3, 17520, Note_on_c, 1, 55, 60
3, 17639, Note_on_c, 1, 55, 0
3, 17639, Note_on_c, 1, 62, 0
3, 17640, Note_on_c, 1, 62, 60
3, 17640, Note_on_c, 1, 55, 60
3, 17759, Note_on_c, 1, 55, 0
3, 17759, Note_on_c, 1, 62, 0
3, 17760, Note_on_c, 1, 62, 60
3, 17760, Note_on_c, 1, 55, 60
3, 17879, Note_on_c, 1, 55, 0
3, 17879, Note_on_c, 1, 62, 0
3, 17880, Poly_aftertouch_c, 1, 62, 64
3, 18000, Note_on_c, 1, 59, 60
3, 18000, Note_on_c, 1, 55, 60
3, 18119, Note_on_c, 1, 55, 0
3, 18119, Note_on_c, 1, 59, 0
3, 18120, Note_on_c, 1, 59, 60
3, 18120, Note_on_c, 1, 55, 60
3, 18239, Note_on_c, 1, 55, 0
3, 18239, Note_on_c, 1, 59, 0
3, 18240, Note_on_c, 1, 59, 60
3, 18240, Note_on_c, 1, 55, 60
3, 18359, Note_on_c, 1, 55, 0
3, 18359, Note_on_c, 1, 59, 0
3, 18360, Poly_aftertouch_c, 1, 59, 64
3, 18480, Note_on_c, 1, 55, 95
3, 18480, Note_on_c, 1, 48, 95
3, 18599, Note_on_c, 1, 48, 0
3, 18599, Note_on_c, 1, 55, 0
3, 18600, Note_on_c, 1, 55, 95
3, 18600, Note_on_c, 1, 55, 95
3, 18719, Note_on_c, 1, 55, 0
3, 18719, Note_on_c, 1, 55, 0
3, 18720, Note_on_c, 1, 55, 95
3, 18720, Note_on_c, 1, 48, 95
3, 18839, Note_on_c, 1, 48, 0
3, 18840, Note_on_c, 1, 52, 95
3, 18959, Note_on_c, 1, 52, 0
3, 18960, Note_on_c, 1, 50, 95
3, 19079, Note_on_c, 1, 50, 0
3, 19079, Note_on_c, 1, 55, 0
3, 19080, Note_on_c, 1, 54, 95
3, 19080, Note_on_c, 1, 50, 95
3, 19199, Note_on_c, 1, 50, 0
3, 19199, Note_on_c, 1, 54, 0
3, 19200, Note_on_c, 1, 55, 95
3, 19200, Note_on_c, 1, 43, 95
3, 19439, Note_on_c, 1, 43, 0
3, 19439, Note_on_c, 1, 55, 0
3, 19440, Note_on_c, 1, 55, 60
3, 19559, Note_on_c, 1, 55, 0
3, 19560, Note_on_c, 1, 49, 60
3, 19679, Note_on_c, 1, 49, 0
3, 19680, Note_on_c, 1, 50, 60
3, 19799, Note_on_c, 1, 50, 0
3, 19800, Poly_aftertouch_c, 1, 50, 64
3, 19920, Note_on_c, 1, 62, 60
3, 20039, Note_on_c, 1, 62, 0
3, 20040, Note_on_c, 1, 54, 60
3, 20159, Note_on_c, 1, 54, 0
3, 20160, Note_on_c, 1, 55, 60
3, 20279, Note_on_c, 1, 55, 0
3, 20280, Poly_aftertouch_c, 1, 54, 64
3, 20400, Note_on_c, 1, 55, 95
3, 20459, Note_on_c, 1, 55, 0
3, 20460, Note_on_c, 1, 54, 95
3, 20519, Note_on_c, 1, 54, 0
3, 20520, Note_on_c, 1, 55, 95
3, 20579, Note_on_c, 1, 55, 0
3, 20580, Note_on_c, 1, 54, 95
3, 20639, Note_on_c, 1, 54, 0
3, 20640, Note_on_c, 1, 55, 95
3, 20759, Note_on_c, 1, 55, 0
3, 20760, Note_on_c, 1, 55, 95
3, 20879, Note_on_c, 1, 55, 0
3, 20880, Note_on_c, 1, 62, 95
3, 20999, Note_on_c, 1, 62, 0
3, 21000, Note_on_c, 1, 61, 95
3, 21119, Note_on_c, 1, 61, 0
3, 21120, Note_on_c, 1, 62, 95
3, 21359, Note_on_c, 1, 62, 0
3, 21360, Note_on_c, 1, 62, 60
3, 21360, Note_on_c, 1, 55, 60
3, 21479, Note_on_c, 1, 55, 0
3, 21479, Note_on_c, 1, 62, 0
3, 21480, Note_on_c, 1, 62, 60
3, 21480, Note_on_c, 1, 55, 60
3, 21599, Note_on_c, 1, 55, 0
3, 21599, Note_on_c, 1, 62, 0
3, 21600, Note_on_c, 1, 62, 60
3, 21600, Note_on_c, 1, 55, 60
3, 21719, Note_on_c, 1, 55, 0
3, 21719, Note_on_c, 1, 62, 0
3, 21720, Poly_aftertouch_c, 1, 62, 64
3, 21840, Note_on_c, 1, 59, 60
3, 21840, Note_on_c, 1, 55, 60
3, 21959, Note_on_c, 1, 55, 0
3, 21959, Note_on_c, 1, 59, 0
3, 21960, Note_on_c, 1, 59, 60
3, 21960, Note_on_c, 1, 55, 60
3, 22079, Note_on_c, 1, 55, 0
3, 22079, Note_on_c, 1, 59, 0
3, 22080, Note_on_c, 1, 59, 60
3, 22080, Note_on_c, 1, 55, 60
3, 22199, Note_on_c, 1, 55, 0
3, 22199, Note_on_c, 1, 59, 0
3, 22200, Poly_aftertouch_c, 1, 59, 64
3, 22320, Note_on_c, 1, 55, 95
3, 22320, Note_on_c, 1, 48, 95
3, 22439, Note_on_c, 1, 48, 0
3, 22439, Note_on_c, 1, 55, 0
3, 22440, Note_on_c, 1, 55, 95
3, 22440, Note_on_c, 1, 55, 95
3, 22559, Note_on_c, 1, 55, 0
3, 22559, Note_on_c, 1, 55, 0
3, 22560, Note_on_c, 1, 55, 95
3, 22560, Note_on_c, 1, 48, 95
3, 22679, Note_on_c, 1, 48, 0
3, 22680, Note_on_c, 1, 52, 95
3, 22799, Note_on_c, 1, 52, 0
3, 22800, Note_on_c, 1, 50, 95
3, 22919, Note_on_c, 1, 50, 0
3, 22919, Note_on_c, 1, 55, 0
3, 22920, Note_on_c, 1, 54, 95
3, 22920, Note_on_c, 1, 50, 95
3, 23039, Note_on_c, 1, 50, 0
3, 23039, Note_on_c, 1, 54, 0
3, 23040, Note_on_c, 1, 55, 95
3, 23040, Note_on_c, 1, 43, 95
3, 23279, Note_on_c, 1, 43, 0
3, 23279, Note_on_c, 1, 55, 0
3, 23280, Note_on_c, 1, 43, 95
3, 23339, Note_on_c, 1, 43, 0
3, 23340, Note_on_c, 1, 47, 95
3, 23399, Note_on_c, 1, 47, 0
3, 23400, Note_on_c, 1, 50, 95
3, 23459, Note_on_c, 1, 50, 0
3, 23460, Note_on_c, 1, 55, 95
3, 23519, Note_on_c, 1, 55, 0
3, 23520, Note_on_c, 1, 43, 95
3, 23639, Note_on_c, 1, 43, 0
3, 23640, Poly_aftertouch_c, 1, 43, 64
3, 23760, Note_on_c, 1, 43, 95
3, 23819, Note_on_c, 1, 43, 0
3, 23820, Note_on_c, 1, 47, 95
3, 23879, Note_on_c, 1, 47, 0
3, 23880, Note_on_c, 1, 50, 95
3, 23939, Note_on_c, 1, 50, 0
3, 23940, Note_on_c, 1, 55, 95
3, 23999, Note_on_c, 1, 55, 0
3, 24000, Note_on_c, 1, 43, 95
3, 24119, Note_on_c, 1, 43, 0
3, 24120, Poly_aftertouch_c, 1, 43, 64
3, 24240, Note_on_c, 1, 43, 95
3, 24299, Note_on_c, 1, 43, 0
3, 24300, Note_on_c, 1, 47, 95
3, 24359, Note_on_c, 1, 47, 0
3, 24360, Note_on_c, 1, 50, 95
3, 24419, Note_on_c, 1, 50, 0
3, 24420, Note_on_c, 1, 55, 95
3, 24479, Note_on_c, 1, 55, 0
3, 24480, Note_on_c, 1, 43, 95
3, 24539, Note_on_c, 1, 43, 0
3, 24540, Note_on_c, 1, 47, 95
3, 24599, Note_on_c, 1, 47, 0
3, 24600, Note_on_c, 1, 50, 95
3, 24659, Note_on_c, 1, 50, 0
3, 24660, Note_on_c, 1, 55, 95
3, 24719, Note_on_c, 1, 55, 0
3, 24720, Note_on_c, 1, 43, 95
3, 24779, Note_on_c, 1, 43, 0
3, 24780, Note_on_c, 1, 47, 95
3, 24839, Note_on_c, 1, 47, 0
3, 24840, Note_on_c, 1, 50, 95
3, 24899, Note_on_c, 1, 50, 0
3, 24900, Note_on_c, 1, 55, 95
3, 24959, Note_on_c, 1, 55, 0
3, 24960, Note_on_c, 1, 43, 95
3, 25199, Note_on_c, 1, 43, 0
3, 25200, Poly_aftertouch_c, 1, 43, 64
3, 25440, Note_on_c, 1, 50, 95
3, 25440, Note_on_c, 1, 38, 95
3, 25679, Note_on_c, 1, 38, 0
3, 25679, Note_on_c, 1, 50, 0
3, 25680, Poly_aftertouch_c, 1, 43, 64
3, 25920, Note_on_c, 1, 50, 95
3, 25920, Note_on_c, 1, 38, 95
3, 26159, Note_on_c, 1, 38, 0
3, 26159, Note_on_c, 1, 50, 0
3, 26160, Poly_aftertouch_c, 1, 43, 64
3, 26280, Note_on_c, 1, 50, 95
3, 26399, Note_on_c, 1, 50, 0
3, 26400, Note_on_c, 1, 43, 95
3, 26519, Note_on_c, 1, 43, 0
3, 26520, Note_on_c, 1, 52, 95
3, 26639, Note_on_c, 1, 52, 0
3, 26640, Note_on_c, 1, 48, 95
3, 26759, Note_on_c, 1, 48, 0
3, 26760, Note_on_c, 1, 50, 95
3, 26879, Note_on_c, 1, 50, 0
3, 26880, Note_on_c, 1, 43, 95
3, 27119, Note_on_c, 1, 43, 0
3, 27120, Note_on_c, 1, 43, 95
3, 27179, Note_on_c, 1, 43, 0
3, 27180, Note_on_c, 1, 47, 95
3, 27239, Note_on_c, 1, 47, 0
3, 27240, Note_on_c, 1, 50, 95
3, 27299, Note_on_c, 1, 50, 0
3, 27300, Note_on_c, 1, 55, 95
3, 27359, Note_on_c, 1, 55, 0
3, 27360, Note_on_c, 1, 43, 95
3, 27479, Note_on_c, 1, 43, 0
3, 27480, Poly_aftertouch_c, 1, 43, 64
3, 27600, Note_on_c, 1, 43, 95
3, 27659, Note_on_c, 1, 43, 0
3, 27660, Note_on_c, 1, 47, 95
3, 27719, Note_on_c, 1, 47, 0
3, 27720, Note_on_c, 1, 50, 95
3, 27779, Note_on_c, 1, 50, 0
3, 27780, Note_on_c, 1, 55, 95
3, 27839, Note_on_c, 1, 55, 0
3, 27840, Note_on_c, 1, 43, 95
3, 27959, Note_on_c, 1, 43, 0
3, 27960, Poly_aftertouch_c, 1, 43, 64
3, 28080, Note_on_c, 1, 43, 95
3, 28139, Note_on_c, 1, 43, 0
3, 28140, Note_on_c, 1, 47, 95
3, 28199, Note_on_c, 1, 47, 0
3, 28200, Note_on_c, 1, 50, 95
3, 28259, Note_on_c, 1, 50, 0
3, 28260, Note_on_c, 1, 55, 95
3, 28319, Note_on_c, 1, 55, 0
3, 28320, Note_on_c, 1, 43, 95
3, 28379, Note_on_c, 1, 43, 0
3, 28380, Note_on_c, 1, 47, 95
3, 28439, Note_on_c, 1, 47, 0
3, 28440, Note_on_c, 1, 50, 95
3, 28499, Note_on_c, 1, 50, 0
3, 28500, Note_on_c, 1, 55, 95
3, 28559, Note_on_c, 1, 55, 0
3, 28560, Note_on_c, 1, 43, 95
3, 28619, Note_on_c, 1, 43, 0
3, 28620, Note_on_c, 1, 47, 95
3, 28679, Note_on_c, 1, 47, 0
3, 28680, Note_on_c, 1, 50, 95
3, 28739, Note_on_c, 1, 50, 0
3, 28740, Note_on_c, 1, 55, 95
3, 28799, Note_on_c, 1, 55, 0
3, 28800, Note_on_c, 1, 43, 95
3, 29039, Note_on_c, 1, 43, 0
3, 29040, Poly_aftertouch_c, 1, 43, 64
3, 29280, Note_on_c, 1, 50, 95
3, 29280, Note_on_c, 1, 38, 95
3, 29519, Note_on_c, 1, 38, 0
3, 29519, Note_on_c, 1, 50, 0
3, 29520, Poly_aftertouch_c, 1, 43, 64
3, 29760, Note_on_c, 1, 50, 95
3, 29760, Note_on_c, 1, 38, 95
3, 29999, Note_on_c, 1, 38, 0
3, 29999, Note_on_c, 1, 50, 0
3, 30000, Poly_aftertouch_c, 1, 43, 64
3, 30120, Note_on_c, 1, 50, 95
3, 30239, Note_on_c, 1, 50, 0
3, 30240, Note_on_c, 1, 43, 95
3, 30359, Note_on_c, 1, 43, 0
3, 30360, Note_on_c, 1, 52, 95
3, 30479, Note_on_c, 1, 52, 0
3, 30480, Note_on_c, 1, 48, 95
3, 30599, Note_on_c, 1, 48, 0
3, 30600, Note_on_c, 1, 50, 95
3, 30719, Note_on_c, 1, 50, 0
3, 30720, Note_on_c, 1, 43, 95
3, 30959, Note_on_c, 1, 43, 0
3, 30960, Note_on_c, 1, 55, 60
3, 31079, Note_on_c, 1, 55, 0
3, 31080, Note_on_c, 1, 55, 60
3, 31199, Note_on_c, 1, 55, 0
3, 31200, Note_on_c, 1, 55, 60
3, 31319, Note_on_c, 1, 55, 0
3, 31320, Poly_aftertouch_c, 1, 55, 64
3, 31440, Note_on_c, 1, 62, 60
3, 31559, Note_on_c, 1, 62, 0
3, 31560, Note_on_c, 1, 62, 60
3, 31679, Note_on_c, 1, 62, 0
3, 31680, Note_on_c, 1, 62, 60
3, 31799, Note_on_c, 1, 62, 0
3, 31800, Poly_aftertouch_c, 1, 62, 64
3, 32040, Note_on_c, 1, 50, 60
3, 32159, Note_on_c, 1, 50, 0
3, 32160, Note_on_c, 1, 43, 60
3, 32279, Note_on_c, 1, 43, 0
3, 32280, Note_on_c, 1, 45, 60
3, 32399, Note_on_c, 1, 45, 0
3, 32400, Note_on_c, 1, 47, 60
3, 32519, Note_on_c, 1, 47, 0
3, 32520, Note_on_c, 1, 48, 60
3, 32639, Note_on_c, 1, 48, 0
3, 32640, Note_on_c, 1, 50, 60
3, 32879, Note_on_c, 1, 50, 0
3, 32880, Poly_aftertouch_c, 1, 50, 64
3, 33120, Note_on_c, 1, 50, 95
3, 33120, Note_on_c, 1, 38, 95
3, 33359, Note_on_c, 1, 38, 0
3, 33359, Note_on_c, 1, 50, 0
3, 33360, Poly_aftertouch_c, 1, 38, 64
3, 33600, Note_on_c, 1, 50, 95
3, 33600, Note_on_c, 1, 38, 95
3, 33839, Note_on_c, 1, 38, 0
3, 33839, Note_on_c, 1, 50, 0
3, 33840, Poly_aftertouch_c, 1, 38, 64
3, 33960, Note_on_c, 1, 50, 95
3, 34079, Note_on_c, 1, 50, 0
3, 34080, Note_on_c, 1, 55, 95
3, 34200, Note_on_c, 1, 52, 95
3, 34319, Note_on_c, 1, 52, 0
3, 34319, Note_on_c, 1, 55, 0
3, 34320, Note_on_c, 1, 48, 95
3, 34439, Note_on_c, 1, 48, 0
3, 34440, Note_on_c, 1, 54, 95
3, 34440, Note_on_c, 1, 50, 95
3, 34559, Note_on_c, 1, 50, 0
3, 34559, Note_on_c, 1, 54, 0
3, 34560, Note_on_c, 1, 55, 95
3, 34560, Note_on_c, 1, 43, 95
3, 34799, Note_on_c, 1, 43, 0
3, 34799, Note_on_c, 1, 55, 0
3, 34800, Note_on_c, 1, 55, 60
3, 34919, Note_on_c, 1, 55, 0
3, 34920, Note_on_c, 1, 55, 60
3, 35039, Note_on_c, 1, 55, 0
3, 35040, Note_on_c, 1, 55, 60
3, 35159, Note_on_c, 1, 55, 0
3, 35160, Poly_aftertouch_c, 1, 55, 64
3, 35280, Note_on_c, 1, 62, 60
3, 35399, Note_on_c, 1, 62, 0
3, 35400, Note_on_c, 1, 62, 60
3, 35519, Note_on_c, 1, 62, 0
3, 35520, Note_on_c, 1, 62, 60
3, 35639, Note_on_c, 1, 62, 0
3, 35640, Poly_aftertouch_c, 1, 62, 64
3, 35880, Note_on_c, 1, 50, 60
3, 35999, Note_on_c, 1, 50, 0
3, 36000, Note_on_c, 1, 43, 60
3, 36119, Note_on_c, 1, 43, 0
3, 36120, Note_on_c, 1, 45, 60
3, 36239, Note_on_c, 1, 45, 0
3, 36240, Note_on_c, 1, 47, 60
3, 36359, Note_on_c, 1, 47, 0
3, 36360, Note_on_c, 1, 48, 60
3, 36479, Note_on_c, 1, 48, 0
3, 36480, Note_on_c, 1, 50, 60
3, 36719, Note_on_c, 1, 50, 0
3, 36720, Poly_aftertouch_c, 1, 50, 64
3, 36960, Note_on_c, 1, 50, 95
3, 36960, Note_on_c, 1, 38, 95
3, 37199, Note_on_c, 1, 38, 0
3, 37199, Note_on_c, 1, 50, 0
3, 37200, Poly_aftertouch_c, 1, 38, 64
3, 37440, Note_on_c, 1, 50, 95
3, 37440, Note_on_c, 1, 38, 95
3, 37679, Note_on_c, 1, 38, 0
3, 37679, Note_on_c, 1, 50, 0
3, 37680, Poly_aftertouch_c, 1, 38, 64
3, 37800, Note_on_c, 1, 50, 95
3, 37919, Note_on_c, 1, 50, 0
3, 37920, Note_on_c, 1, 55, 95
3, 38040, Note_on_c, 1, 52, 95
3, 38159, Note_on_c, 1, 52, 0
3, 38159, Note_on_c, 1, 55, 0
3, 38160, Note_on_c, 1, 48, 95
3, 38279, Note_on_c, 1, 48, 0
3, 38280, Note_on_c, 1, 54, 95
3, 38280, Note_on_c, 1, 50, 95
3, 38399, Note_on_c, 1, 50, 0
3, 38399, Note_on_c, 1, 54, 0
3, 38400, Note_on_c, 1, 55, 95
3, 38400, Note_on_c, 1, 43, 95
3, 38639, Note_on_c, 1, 43, 0
3, 38639, Note_on_c, 1, 55, 0
3, 38639, End_track
0, 0, End_of_file