0, 0, Header, 1, 26, 384
1, 0, Start_track
1, 0, Title_t, "untitled"
1, 0, System_exclusive, 05, 7E, 7F, 09, 01, F7
1, 0, Time_signature, 4, 2, 24, 8
1, 0, Key_signature, 0, "major"
1, 0, Tempo, 600000
1, 76698, Tempo, 857143
1, 76732, Tempo, 869565
1, 76758, Tempo, 895522
1, 76778, Tempo, 923077
1, 76810, Tempo, 937500
1, 76842, Tempo, 952381
1, 78918, Tempo, 952381
1, 79470, Tempo, 1304348
1, 79488, Tempo, 1428571
1, 79504, Tempo, 1500000
1, 79528, Tempo, 1578947
1, 79540, Tempo, 1666667
1, 79550, Tempo, 1764706
1, 79564, Tempo, 2000000
1, 79660, Tempo, 1875000
1, 79670, Tempo, 1666667
1, 79792, Tempo, 1714286
1, 79814, Tempo, 1764706
1, 80180, Tempo, 1818182
1, 80652, Tempo, 1764706
1, 80952, Tempo, 1818182
1, 80968, Tempo, 1875000
1, 81194, Tempo, 1935484
1, 81212, Tempo, 2000000
1, 81212, End_track
2, 0, Start_track
2, 0, Title_t, "crni bass"
2, 384, Program_c, 0, 71
2, 385, Control_c, 0, 7, 63
2, 385, Control_c, 0, 10, 55
2, 576, Control_c, 0, 91, 120
2, 4808, Note_on_c, 0, 64, 94
2, 4858, Note_on_c, 0, 64, 0
2, 4996, Note_on_c, 0, 64, 94
2, 5052, Note_on_c, 0, 64, 0
2, 5178, Note_on_c, 0, 64, 91
2, 5236, Note_on_c, 0, 64, 0
2, 5364, Note_on_c, 0, 65, 95
2, 5424, Note_on_c, 0, 65, 0
2, 5462, Note_on_c, 0, 67, 81
2, 5514, Note_on_c, 0, 67, 0
2, 5558, Note_on_c, 0, 65, 80
2, 5608, Note_on_c, 0, 65, 0
2, 5644, Note_on_c, 0, 64, 77
2, 5696, Note_on_c, 0, 64, 0
2, 5746, Note_on_c, 0, 65, 87
2, 5792, Note_on_c, 0, 65, 0
2, 5834, Note_on_c, 0, 67, 84
2, 5888, Note_on_c, 0, 67, 0
2, 5926, Note_on_c, 0, 64, 75
2, 5980, Note_on_c, 0, 64, 0
2, 6020, Note_on_c, 0, 65, 87
2, 6070, Note_on_c, 0, 65, 0
2, 6126, Note_on_c, 0, 67, 96
2, 6174, Note_on_c, 0, 67, 0
2, 6216, Note_on_c, 0, 69, 82
2, 6262, Note_on_c, 0, 69, 0
2, 6320, Note_on_c, 0, 67, 85
2, 6366, Note_on_c, 0, 67, 0
2, 6410, Note_on_c, 0, 65, 78
2, 6458, Note_on_c, 0, 65, 0
2, 6514, Note_on_c, 0, 67, 89
2, 6558, Note_on_c, 0, 67, 0
2, 6608, Note_on_c, 0, 69, 87
2, 6646, Note_on_c, 0, 69, 0
2, 6702, Note_on_c, 0, 65, 81
2, 6750, Note_on_c, 0, 65, 0
2, 6800, Note_on_c, 0, 67, 88
2, 6846, Note_on_c, 0, 67, 0
2, 6898, Note_on_c, 0, 69, 95
2, 7056, Note_on_c, 0, 69, 0
2, 7100, Note_on_c, 0, 70, 91
2, 7156, Note_on_c, 0, 70, 0
2, 7194, Note_on_c, 0, 69, 89
2, 7242, Note_on_c, 0, 69, 0
2, 7282, Note_on_c, 0, 67, 85
2, 7328, Note_on_c, 0, 67, 0
2, 7364, Note_on_c, 0, 65, 80
2, 7414, Note_on_c, 0, 65, 0
2, 7462, Note_on_c, 0, 64, 85
2, 7518, Note_on_c, 0, 64, 0
2, 7546, Note_on_c, 0, 62, 83
2, 7590, Note_on_c, 0, 62, 0
2, 7650, Note_on_c, 0, 61, 89
2, 7798, Note_on_c, 0, 61, 0
2, 7860, Note_on_c, 0, 64, 88
2, 7992, Note_on_c, 0, 64, 0
2, 8054, Note_on_c, 0, 69, 91
2, 8186, Note_on_c, 0, 69, 0
2, 8246, Note_on_c, 0, 67, 90
2, 8382, Note_on_c, 0, 67, 0
2, 8440, Note_on_c, 0, 74, 110
2, 8446, Note_on_c, 0, 65, 95
2, 8584, Note_on_c, 0, 65, 0
2, 8636, Note_on_c, 0, 64, 87
2, 8674, Note_on_c, 0, 64, 0
2, 8724, Note_on_c, 0, 65, 87
2, 8774, Note_on_c, 0, 65, 0
2, 8828, Note_on_c, 0, 62, 80
2, 8874, Note_on_c, 0, 62, 0
2, 8918, Note_on_c, 0, 64, 80
2, 8954, Note_on_c, 0, 64, 0
2, 8982, Note_on_c, 0, 74, 0
2, 9016, Note_on_c, 0, 66, 86
2, 9030, Note_on_c, 0, 74, 103
2, 9062, Note_on_c, 0, 66, 0
2, 9110, Note_on_c, 0, 68, 86
2, 9160, Note_on_c, 0, 68, 0
2, 9174, Note_on_c, 0, 74, 0
2, 9208, Note_on_c, 0, 69, 99
2, 9220, Note_on_c, 0, 72, 103
2, 9376, Note_on_c, 0, 69, 0
2, 9542, Note_on_c, 0, 72, 0
2, 9590, Note_on_c, 0, 77, 101
2, 9884, Note_on_c, 0, 77, 0
2, 9972, Note_on_c, 0, 68, 97
2, 10470, Note_on_c, 0, 68, 0
2, 10552, Note_on_c, 0, 68, 93
2, 10672, Note_on_c, 0, 68, 0
2, 10738, Note_on_c, 0, 69, 88
2, 11164, Note_on_c, 0, 69, 0
2, 11314, Note_on_c, 0, 69, 95
2, 11452, Note_on_c, 0, 69, 0
2, 11512, Note_on_c, 0, 71, 108
2, 12010, Note_on_c, 0, 71, 0
2, 12074, Note_on_c, 0, 69, 89
2, 12130, Note_on_c, 0, 69, 0
2, 12170, Note_on_c, 0, 71, 95
2, 12222, Note_on_c, 0, 71, 0
2, 12268, Note_on_c, 0, 72, 101
2, 12432, Note_on_c, 0, 72, 0
2, 12472, Note_on_c, 0, 71, 95
2, 12514, Note_on_c, 0, 71, 0
2, 12558, Note_on_c, 0, 72, 91
2, 12606, Note_on_c, 0, 72, 0
2, 12650, Note_on_c, 0, 74, 96
2, 12822, Note_on_c, 0, 74, 0
2, 12862, Note_on_c, 0, 72, 91
2, 12916, Note_on_c, 0, 72, 0
2, 12948, Note_on_c, 0, 74, 94
2, 13000, Note_on_c, 0, 74, 0
2, 13042, Note_on_c, 0, 76, 94
2, 13198, Note_on_c, 0, 76, 0
2, 13246, Note_on_c, 0, 74, 99
2, 13402, Note_on_c, 0, 74, 0
2, 13428, Note_on_c, 0, 72, 90
2, 13586, Note_on_c, 0, 72, 0
2, 13622, Note_on_c, 0, 71, 88
2, 13790, Note_on_c, 0, 71, 0
2, 13812, Note_on_c, 0, 69, 84
2, 13818, Note_on_c, 0, 69, 0
2, 13818, Note_on_c, 0, 69, 105
2, 13958, Note_on_c, 0, 69, 0
2, 14012, Note_on_c, 0, 79, 99
2, 14166, Note_on_c, 0, 79, 0
2, 14206, Note_on_c, 0, 77, 95
2, 14340, Note_on_c, 0, 77, 0
2, 14392, Note_on_c, 0, 76, 94
2, 14402, Note_on_c, 0, 69, 91
2, 14526, Note_on_c, 0, 76, 0
2, 14534, Note_on_c, 0, 69, 0
2, 14588, Note_on_c, 0, 62, 94
2, 14588, Note_on_c, 0, 74, 91
2, 14930, Note_on_c, 0, 74, 0
2, 15044, Note_on_c, 0, 62, 0
2, 15152, Note_on_c, 0, 62, 83
2, 15160, Note_on_c, 0, 62, 0
2, 15160, Note_on_c, 0, 62, 95
2, 15250, Note_on_c, 0, 62, 0
2, 15346, Note_on_c, 0, 61, 94
2, 15362, Note_on_c, 0, 67, 99
2, 15388, Note_on_c, 0, 71, 44
2, 15402, Note_on_c, 0, 71, 0
2, 15872, Note_on_c, 0, 67, 0
2, 15874, Note_on_c, 0, 61, 0
2, 15932, Note_on_c, 0, 61, 91
2, 15932, Note_on_c, 0, 65, 82
2, 15980, Note_on_c, 0, 65, 0
2, 16014, Note_on_c, 0, 64, 77
2, 16074, Note_on_c, 0, 61, 0
2, 16082, Note_on_c, 0, 64, 0
2, 16122, Note_on_c, 0, 69, 87
2, 16128, Note_on_c, 0, 62, 99
2, 16254, Note_on_c, 0, 69, 0
2, 16312, Note_on_c, 0, 62, 0
2, 16312, Note_on_c, 0, 62, 85
2, 16434, Note_on_c, 0, 62, 0
2, 16504, Note_on_c, 0, 74, 96
2, 16692, Note_on_c, 0, 62, 91
2, 16792, Note_on_c, 0, 62, 0
2, 16876, Note_on_c, 0, 64, 101
2, 17234, Note_on_c, 0, 74, 0
2, 17272, Note_on_c, 0, 74, 94
2, 17382, Note_on_c, 0, 64, 0
2, 17460, Note_on_c, 0, 62, 80
2, 17498, Note_on_c, 0, 62, 0
2, 17546, Note_on_c, 0, 64, 82
2, 17594, Note_on_c, 0, 64, 0
2, 17646, Note_on_c, 0, 65, 95
2, 17792, Note_on_c, 0, 65, 0
2, 17794, Note_on_c, 0, 74, 0
2, 17836, Note_on_c, 0, 73, 88
2, 17840, Note_on_c, 0, 64, 88
2, 17886, Note_on_c, 0, 64, 0
2, 17894, Note_on_c, 0, 73, 0
2, 17926, Note_on_c, 0, 74, 91
2, 17934, Note_on_c, 0, 65, 88
2, 17984, Note_on_c, 0, 65, 0
2, 17984, Note_on_c, 0, 74, 0
2, 18028, Note_on_c, 0, 76, 96
2, 18034, Note_on_c, 0, 67, 94
2, 18182, Note_on_c, 0, 67, 0
2, 18224, Note_on_c, 0, 65, 89
2, 18272, Note_on_c, 0, 65, 0
2, 18314, Note_on_c, 0, 67, 95
2, 18364, Note_on_c, 0, 67, 0
2, 18408, Note_on_c, 0, 69, 94
2, 18568, Note_on_c, 0, 69, 0
2, 18616, Note_on_c, 0, 67, 101
2, 18758, Note_on_c, 0, 67, 0
2, 18764, Note_on_c, 0, 76, 0
2, 18806, Note_on_c, 0, 74, 103
2, 18808, Note_on_c, 0, 65, 94
2, 18944, Note_on_c, 0, 65, 0
2, 18964, Note_on_c, 0, 74, 0
2, 18992, Note_on_c, 0, 64, 87
2, 19000, Note_on_c, 0, 73, 90
2, 19126, Note_on_c, 0, 64, 0
2, 19144, Note_on_c, 0, 73, 0
2, 19182, Note_on_c, 0, 74, 103
2, 19198, Note_on_c, 0, 62, 94
2, 19416, Note_on_c, 0, 62, 0
2, 19452, Note_on_c, 0, 74, 0
2, 19458, Note_on_c, 0, 64, 77
2, 19516, Note_on_c, 0, 64, 0
2, 19552, Note_on_c, 0, 66, 91
2, 19708, Note_on_c, 0, 66, 0
2, 19764, Note_on_c, 0, 68, 93
2, 19918, Note_on_c, 0, 68, 0
2, 19956, Note_on_c, 0, 69, 91
2, 20092, Note_on_c, 0, 69, 0
2, 20166, Note_on_c, 0, 64, 99
2, 20476, Note_on_c, 0, 64, 0
2, 20544, Note_on_c, 0, 62, 89
2, 20588, Note_on_c, 0, 62, 0
2, 20622, Note_on_c, 0, 60, 88
2, 20668, Note_on_c, 0, 60, 0
2, 20714, Note_on_c, 0, 59, 96
2, 20908, Note_on_c, 0, 59, 0
2, 20918, Note_on_c, 0, 71, 103
2, 21014, Note_on_c, 0, 71, 0
2, 21116, Note_on_c, 0, 71, 101
2, 21204, Note_on_c, 0, 71, 0
2, 21306, Note_on_c, 0, 71, 99
2, 21414, Note_on_c, 0, 71, 0
2, 21498, Note_on_c, 0, 72, 101
2, 21562, Note_on_c, 0, 72, 0
2, 21588, Note_on_c, 0, 74, 85
2, 21656, Note_on_c, 0, 74, 0
2, 21680, Note_on_c, 0, 64, 92
2, 21694, Note_on_c, 0, 72, 90
2, 21752, Note_on_c, 0, 72, 0
2, 21764, Note_on_c, 0, 64, 0
2, 21786, Note_on_c, 0, 71, 91
2, 21844, Note_on_c, 0, 71, 0
2, 21884, Note_on_c, 0, 69, 95
2, 21884, Note_on_c, 0, 72, 92
2, 21936, Note_on_c, 0, 72, 0
2, 21972, Note_on_c, 0, 74, 89
2, 22042, Note_on_c, 0, 74, 0
2, 22068, Note_on_c, 0, 71, 84
2, 22132, Note_on_c, 0, 71, 0
2, 22166, Note_on_c, 0, 72, 91
2, 22218, Note_on_c, 0, 72, 0
2, 22258, Note_on_c, 0, 74, 96
2, 22314, Note_on_c, 0, 74, 0
2, 22324, Note_on_c, 0, 69, 0
2, 22344, Note_on_c, 0, 76, 84
2, 22368, Note_on_c, 0, 67, 92
2, 22404, Note_on_c, 0, 76, 0
2, 22418, Note_on_c, 0, 67, 0
2, 22446, Note_on_c, 0, 74, 92
2, 22460, Note_on_c, 0, 65, 81
2, 22494, Note_on_c, 0, 74, 0
2, 22498, Note_on_c, 0, 65, 0
2, 22532, Note_on_c, 0, 72, 92
2, 22542, Note_on_c, 0, 64, 90
2, 22582, Note_on_c, 0, 72, 0
2, 22598, Note_on_c, 0, 64, 0
2, 22636, Note_on_c, 0, 74, 92
2, 22648, Note_on_c, 0, 65, 94
2, 22684, Note_on_c, 0, 74, 0
2, 22726, Note_on_c, 0, 76, 87
2, 22788, Note_on_c, 0, 76, 0
2, 22794, Note_on_c, 0, 65, 0
2, 22828, Note_on_c, 0, 72, 83
2, 22842, Note_on_c, 0, 67, 90
2, 22880, Note_on_c, 0, 72, 0
2, 22888, Note_on_c, 0, 67, 0
2, 22924, Note_on_c, 0, 74, 91
2, 22930, Note_on_c, 0, 65, 91
2, 22976, Note_on_c, 0, 65, 0
2, 22978, Note_on_c, 0, 74, 0
2, 23028, Note_on_c, 0, 64, 99
2, 23028, Note_on_c, 0, 76, 96
2, 23178, Note_on_c, 0, 76, 0
2, 23214, Note_on_c, 0, 64, 0
2, 23224, Note_on_c, 0, 77, 92
2, 23278, Note_on_c, 0, 77, 0
2, 23320, Note_on_c, 0, 76, 90
2, 23370, Note_on_c, 0, 76, 0
2, 23412, Note_on_c, 0, 74, 91
2, 23462, Note_on_c, 0, 74, 0
2, 23498, Note_on_c, 0, 72, 80
2, 23552, Note_on_c, 0, 72, 0
2, 23596, Note_on_c, 0, 71, 87
2, 23654, Note_on_c, 0, 71, 0
2, 23686, Note_on_c, 0, 69, 77
2, 23754, Note_on_c, 0, 69, 0
2, 23796, Note_on_c, 0, 68, 94
2, 23942, Note_on_c, 0, 68, 0
2, 23990, Note_on_c, 0, 71, 99
2, 24002, Note_on_c, 0, 64, 90
2, 24124, Note_on_c, 0, 64, 0
2, 24128, Note_on_c, 0, 71, 0
2, 24176, Note_on_c, 0, 76, 89
2, 24188, Note_on_c, 0, 66, 94
2, 24310, Note_on_c, 0, 66, 0
2, 24324, Note_on_c, 0, 76, 0
2, 24370, Note_on_c, 0, 68, 93
2, 24376, Note_on_c, 0, 74, 96
2, 24498, Note_on_c, 0, 74, 0
2, 24502, Note_on_c, 0, 68, 0
2, 24568, Note_on_c, 0, 69, 101
2, 24568, Note_on_c, 0, 72, 92
2, 24610, Note_on_c, 0, 72, 0
2, 24652, Note_on_c, 0, 71, 94
2, 24698, Note_on_c, 0, 71, 0
2, 24750, Note_on_c, 0, 69, 0
2, 24750, Note_on_c, 0, 69, 89
2, 24952, Note_on_c, 0, 69, 0
2, 25052, Note_on_c, 0, 70, 92
2, 25114, Note_on_c, 0, 70, 0
2, 25148, Note_on_c, 0, 67, 89
2, 25194, Note_on_c, 0, 67, 0
2, 25234, Note_on_c, 0, 69, 83
2, 25290, Note_on_c, 0, 69, 0
2, 25326, Note_on_c, 0, 66, 93
2, 25492, Note_on_c, 0, 66, 0
2, 25530, Note_on_c, 0, 69, 94
2, 25532, Note_on_c, 0, 69, 0
2, 25532, Note_on_c, 0, 69, 91
2, 25668, Note_on_c, 0, 69, 0
2, 25720, Note_on_c, 0, 74, 91
2, 25728, Note_on_c, 0, 74, 0
2, 25728, Note_on_c, 0, 74, 92
2, 25734, Note_on_c, 0, 67, 99
2, 25866, Note_on_c, 0, 74, 0
2, 25872, Note_on_c, 0, 67, 0
2, 25910, Note_on_c, 0, 72, 88
2, 25914, Note_on_c, 0, 69, 85
2, 25918, Note_on_c, 0, 72, 0
2, 25918, Note_on_c, 0, 72, 87
2, 26040, Note_on_c, 0, 72, 0
2, 26050, Note_on_c, 0, 69, 0
2, 26098, Note_on_c, 0, 70, 84
2, 26098, Note_on_c, 0, 70, 0
2, 26098, Note_on_c, 0, 70, 90
2, 26108, Note_on_c, 0, 62, 88
2, 26148, Note_on_c, 0, 70, 0
2, 26188, Note_on_c, 0, 69, 81
2, 26190, Note_on_c, 0, 69, 0
2, 26190, Note_on_c, 0, 69, 85
2, 26236, Note_on_c, 0, 69, 0
2, 26276, Note_on_c, 0, 67, 89
2, 26284, Note_on_c, 0, 67, 0
2, 26284, Note_on_c, 0, 67, 85
2, 26414, Note_on_c, 0, 62, 0
2, 26522, Note_on_c, 0, 67, 0
2, 26572, Note_on_c, 0, 69, 80
2, 26584, Note_on_c, 0, 69, 0
2, 26584, Note_on_c, 0, 69, 81
2, 26586, Note_on_c, 0, 69, 0
2, 26586, Note_on_c, 0, 69, 80
2, 26624, Note_on_c, 0, 69, 0
2, 26668, Note_on_c, 0, 65, 80
2, 26678, Note_on_c, 0, 65, 0
2, 26678, Note_on_c, 0, 65, 80
2, 26682, Note_on_c, 0, 65, 0
2, 26682, Note_on_c, 0, 65, 82
2, 26716, Note_on_c, 0, 65, 0
2, 26754, Note_on_c, 0, 67, 82
2, 26764, Note_on_c, 0, 67, 0
2, 26764, Note_on_c, 0, 67, 81
2, 26768, Note_on_c, 0, 67, 0
2, 26768, Note_on_c, 0, 67, 80
2, 26792, Note_on_c, 0, 67, 0
2, 26860, Note_on_c, 0, 72, 105
2, 26862, Note_on_c, 0, 64, 89
2, 26864, Note_on_c, 0, 64, 0
2, 26864, Note_on_c, 0, 64, 88
2, 26866, Note_on_c, 0, 64, 0
2, 26866, Note_on_c, 0, 64, 87
2, 27064, Note_on_c, 0, 64, 0
2, 27256, Note_on_c, 0, 65, 92
2, 27350, Note_on_c, 0, 72, 0
2, 27406, Note_on_c, 0, 65, 0
2, 27444, Note_on_c, 0, 67, 85
2, 27462, Note_on_c, 0, 72, 101
2, 27556, Note_on_c, 0, 67, 0
2, 27590, Note_on_c, 0, 72, 0
2, 27634, Note_on_c, 0, 60, 89
2, 27646, Note_on_c, 0, 69, 101
2, 27832, Note_on_c, 0, 60, 0
2, 27966, Note_on_c, 0, 69, 0
2, 28030, Note_on_c, 0, 74, 101
2, 28366, Note_on_c, 0, 74, 0
2, 28408, Note_on_c, 0, 64, 99
2, 28582, Note_on_c, 0, 60, 95
2, 28592, Note_on_c, 0, 60, 0
2, 28592, Note_on_c, 0, 60, 94
2, 28908, Note_on_c, 0, 64, 0
2, 28918, Note_on_c, 0, 60, 0
2, 28966, Note_on_c, 0, 58, 91
2, 28990, Note_on_c, 0, 58, 0
2, 28990, Note_on_c, 0, 58, 93
2, 28992, Note_on_c, 0, 64, 89
2, 29114, Note_on_c, 0, 58, 0
2, 29120, Note_on_c, 0, 64, 0
2, 29174, Note_on_c, 0, 57, 91
2, 29180, Note_on_c, 0, 65, 96
2, 29184, Note_on_c, 0, 57, 0
2, 29184, Note_on_c, 0, 57, 88
2, 29332, Note_on_c, 0, 57, 0
2, 29376, Note_on_c, 0, 65, 0
2, 29376, Note_on_c, 0, 65, 80
2, 29526, Note_on_c, 0, 65, 0
2, 29564, Note_on_c, 0, 62, 82
2, 29702, Note_on_c, 0, 62, 0
2, 29740, Note_on_c, 0, 58, 90
2, 29744, Note_on_c, 0, 65, 95
2, 29874, Note_on_c, 0, 65, 0
2, 29912, Note_on_c, 0, 58, 0
2, 29948, Note_on_c, 0, 67, 99
2, 30124, Note_on_c, 0, 67, 0
2, 30124, Note_on_c, 0, 67, 91
2, 30274, Note_on_c, 0, 67, 0
2, 30318, Note_on_c, 0, 64, 85
2, 30474, Note_on_c, 0, 64, 0
2, 30500, Note_on_c, 0, 60, 79
2, 30502, Note_on_c, 0, 65, 82
2, 30558, Note_on_c, 0, 65, 0
2, 30608, Note_on_c, 0, 67, 84
2, 30618, Note_on_c, 0, 60, 0
2, 30658, Note_on_c, 0, 67, 0
2, 30710, Note_on_c, 0, 69, 99
2, 30842, Note_on_c, 0, 69, 0
2, 30890, Note_on_c, 0, 67, 89
2, 30894, Note_on_c, 0, 64, 90
2, 30934, Note_on_c, 0, 67, 0
2, 30946, Note_on_c, 0, 64, 0
2, 30984, Note_on_c, 0, 69, 85
2, 30988, Note_on_c, 0, 65, 85
2, 31026, Note_on_c, 0, 69, 0
2, 31034, Note_on_c, 0, 65, 0
2, 31080, Note_on_c, 0, 70, 93
2, 31084, Note_on_c, 0, 67, 91
2, 31238, Note_on_c, 0, 70, 0
2, 31238, Note_on_c, 0, 67, 0
2, 31274, Note_on_c, 0, 65, 88
2, 31282, Note_on_c, 0, 69, 91
2, 31320, Note_on_c, 0, 65, 0
2, 31330, Note_on_c, 0, 69, 0
2, 31362, Note_on_c, 0, 67, 83
2, 31370, Note_on_c, 0, 70, 90
2, 31412, Note_on_c, 0, 67, 0
2, 31424, Note_on_c, 0, 70, 0
2, 31466, Note_on_c, 0, 69, 89
2, 31470, Note_on_c, 0, 72, 92
2, 31614, Note_on_c, 0, 69, 0
2, 31616, Note_on_c, 0, 72, 0
2, 31664, Note_on_c, 0, 64, 91
2, 31666, Note_on_c, 0, 70, 92
2, 31798, Note_on_c, 0, 64, 0
2, 31806, Note_on_c, 0, 70, 0
2, 31858, Note_on_c, 0, 62, 87
2, 31860, Note_on_c, 0, 69, 94
2, 31996, Note_on_c, 0, 62, 0
2, 32006, Note_on_c, 0, 69, 0
2, 32044, Note_on_c, 0, 61, 88
2, 32052, Note_on_c, 0, 67, 90
2, 32190, Note_on_c, 0, 67, 0
2, 32192, Note_on_c, 0, 61, 0
2, 32242, Note_on_c, 0, 62, 87
2, 32250, Note_on_c, 0, 66, 100
2, 32576, Note_on_c, 0, 62, 0
2, 32602, Note_on_c, 0, 66, 0
2, 32638, Note_on_c, 0, 64, 90
2, 32650, Note_on_c, 0, 67, 95
2, 32784, Note_on_c, 0, 64, 0
2, 32794, Note_on_c, 0, 67, 0
2, 32834, Note_on_c, 0, 66, 93
2, 32836, Note_on_c, 0, 69, 89
2, 32966, Note_on_c, 0, 69, 0
2, 32974, Note_on_c, 0, 66, 0
2, 33014, Note_on_c, 0, 67, 99
2, 33014, Note_on_c, 0, 70, 89
2, 33136, Note_on_c, 0, 67, 0
2, 33262, Note_on_c, 0, 70, 0
2, 33984, Note_on_c, 0, 63, 99
2, 33988, Note_on_c, 0, 69, 105
2, 34022, Note_on_c, 0, 69, 0
2, 34126, Note_on_c, 0, 63, 0
2, 34176, Note_on_c, 0, 62, 90
2, 34184, Note_on_c, 0, 69, 96
2, 34218, Note_on_c, 0, 69, 0
2, 34324, Note_on_c, 0, 62, 0
2, 34354, Note_on_c, 0, 60, 80
2, 34364, Note_on_c, 0, 69, 96
2, 34402, Note_on_c, 0, 69, 0
2, 34490, Note_on_c, 0, 60, 0
2, 34548, Note_on_c, 0, 70, 95
2, 34550, Note_on_c, 0, 58, 87
2, 34614, Note_on_c, 0, 70, 0
2, 34646, Note_on_c, 0, 72, 80
2, 34696, Note_on_c, 0, 58, 0
2, 34698, Note_on_c, 0, 72, 0
2, 34736, Note_on_c, 0, 55, 81
2, 34748, Note_on_c, 0, 70, 86
2, 34804, Note_on_c, 0, 70, 0
2, 34836, Note_on_c, 0, 69, 83
2, 34872, Note_on_c, 0, 55, 0
2, 34888, Note_on_c, 0, 69, 0
2, 34926, Note_on_c, 0, 70, 90
2, 34928, Note_on_c, 0, 63, 95
2, 34978, Note_on_c, 0, 70, 0
2, 35016, Note_on_c, 0, 72, 87
2, 35068, Note_on_c, 0, 72, 0
2, 35112, Note_on_c, 0, 69, 88
2, 35158, Note_on_c, 0, 69, 0
2, 35204, Note_on_c, 0, 70, 83
2, 35260, Note_on_c, 0, 70, 0
2, 35310, Note_on_c, 0, 72, 95
2, 35364, Note_on_c, 0, 72, 0
2, 35398, Note_on_c, 0, 74, 84
2, 35454, Note_on_c, 0, 74, 0
2, 35456, Note_on_c, 0, 63, 0
2, 35510, Note_on_c, 0, 72, 94
2, 35510, Note_on_c, 0, 60, 90
2, 35562, Note_on_c, 0, 72, 0
2, 35602, Note_on_c, 0, 70, 90
2, 35650, Note_on_c, 0, 60, 0
2, 35654, Note_on_c, 0, 70, 0
2, 35692, Note_on_c, 0, 72, 90
2, 35710, Note_on_c, 0, 65, 90
2, 35746, Note_on_c, 0, 72, 0
2, 35786, Note_on_c, 0, 74, 88
2, 35842, Note_on_c, 0, 74, 0
2, 35882, Note_on_c, 0, 70, 87
2, 35928, Note_on_c, 0, 70, 0
2, 35974, Note_on_c, 0, 72, 78
2, 36032, Note_on_c, 0, 72, 0
2, 36080, Note_on_c, 0, 74, 101
2, 36224, Note_on_c, 0, 74, 0
2, 36266, Note_on_c, 0, 75, 95
2, 36324, Note_on_c, 0, 75, 0
2, 36364, Note_on_c, 0, 74, 95
2, 36416, Note_on_c, 0, 65, 0
2, 36428, Note_on_c, 0, 74, 0
2, 36460, Note_on_c, 0, 72, 81
2, 36462, Note_on_c, 0, 63, 93
2, 36502, Note_on_c, 0, 72, 0
2, 36550, Note_on_c, 0, 70, 86
2, 36608, Note_on_c, 0, 70, 0
2, 36656, Note_on_c, 0, 69, 89
2, 36712, Note_on_c, 0, 69, 0
2, 36744, Note_on_c, 0, 67, 83
2, 36790, Note_on_c, 0, 67, 0
2, 36794, Note_on_c, 0, 63, 0
2, 36850, Note_on_c, 0, 66, 91
2, 36852, Note_on_c, 0, 62, 90
2, 36996, Note_on_c, 0, 66, 0
2, 37002, Note_on_c, 0, 62, 0
2, 37038, Note_on_c, 0, 69, 89
2, 37056, Note_on_c, 0, 66, 93
2, 37176, Note_on_c, 0, 69, 0
2, 37208, Note_on_c, 0, 66, 0
2, 37238, Note_on_c, 0, 74, 96
2, 37252, Note_on_c, 0, 67, 92
2, 37376, Note_on_c, 0, 74, 0
2, 37398, Note_on_c, 0, 67, 0
2, 37432, Note_on_c, 0, 72, 92
2, 37450, Note_on_c, 0, 69, 84
2, 37564, Note_on_c, 0, 72, 0
2, 37568, Note_on_c, 0, 69, 0
2, 37618, Note_on_c, 0, 70, 91
2, 37634, Note_on_c, 0, 62, 79
2, 37750, Note_on_c, 0, 70, 0
2, 37770, Note_on_c, 0, 62, 0
2, 37818, Note_on_c, 0, 69, 84
2, 37824, Note_on_c, 0, 71, 92
2, 37946, Note_on_c, 0, 69, 0
2, 37956, Note_on_c, 0, 71, 0
2, 38010, Note_on_c, 0, 72, 94
2, 38012, Note_on_c, 0, 67, 96
2, 38130, Note_on_c, 0, 67, 0
2, 38130, Note_on_c, 0, 72, 0
2, 38184, Note_on_c, 0, 74, 91
2, 38334, Note_on_c, 0, 74, 0
2, 38388, Note_on_c, 0, 75, 99
2, 38392, Note_on_c, 0, 75, 0
2, 38392, Note_on_c, 0, 75, 92
2, 38438, Note_on_c, 0, 75, 0
2, 38476, Note_on_c, 0, 74, 87
2, 38518, Note_on_c, 0, 74, 0
2, 38566, Note_on_c, 0, 72, 96
2, 38746, Note_on_c, 0, 72, 0
2, 39348, Note_on_c, 0, 62, 95
2, 39440, Note_on_c, 0, 62, 0
2, 39548, Note_on_c, 0, 62, 94
2, 39660, Note_on_c, 0, 62, 0
2, 39740, Note_on_c, 0, 62, 88
2, 39866, Note_on_c, 0, 62, 0
2, 39936, Note_on_c, 0, 63, 94
2, 39994, Note_on_c, 0, 63, 0
2, 40026, Note_on_c, 0, 65, 83
2, 40082, Note_on_c, 0, 65, 0
2, 40124, Note_on_c, 0, 63, 88
2, 40174, Note_on_c, 0, 63, 0
2, 40214, Note_on_c, 0, 62, 88
2, 40266, Note_on_c, 0, 62, 0
2, 40308, Note_on_c, 0, 63, 94
2, 40364, Note_on_c, 0, 63, 0
2, 40400, Note_on_c, 0, 65, 83
2, 40462, Note_on_c, 0, 65, 0
2, 40504, Note_on_c, 0, 62, 87
2, 40556, Note_on_c, 0, 62, 0
2, 40592, Note_on_c, 0, 63, 92
2, 40648, Note_on_c, 0, 63, 0
2, 40690, Note_on_c, 0, 65, 90
2, 40760, Note_on_c, 0, 65, 0
2, 40786, Note_on_c, 0, 67, 88
2, 40838, Note_on_c, 0, 67, 0
2, 40880, Note_on_c, 0, 65, 83
2, 40932, Note_on_c, 0, 65, 0
2, 40968, Note_on_c, 0, 63, 90
2, 41022, Note_on_c, 0, 63, 0
2, 41064, Note_on_c, 0, 65, 87
2, 41122, Note_on_c, 0, 65, 0
2, 41160, Note_on_c, 0, 67, 82
2, 41214, Note_on_c, 0, 67, 0
2, 41248, Note_on_c, 0, 63, 90
2, 41300, Note_on_c, 0, 63, 0
2, 41346, Note_on_c, 0, 65, 84
2, 41404, Note_on_c, 0, 65, 0
2, 41450, Note_on_c, 0, 67, 92
2, 41610, Note_on_c, 0, 67, 0
2, 41660, Note_on_c, 0, 68, 90
2, 41718, Note_on_c, 0, 68, 0
2, 41752, Note_on_c, 0, 67, 89
2, 41804, Note_on_c, 0, 67, 0
2, 41842, Note_on_c, 0, 65, 82
2, 41894, Note_on_c, 0, 65, 0
2, 41936, Note_on_c, 0, 63, 92
2, 41992, Note_on_c, 0, 63, 0
2, 42030, Note_on_c, 0, 62, 82
2, 42078, Note_on_c, 0, 62, 0
2, 42108, Note_on_c, 0, 60, 85
2, 42166, Note_on_c, 0, 60, 0
2, 42216, Note_on_c, 0, 59, 96
2, 42352, Note_on_c, 0, 59, 0
2, 42422, Note_on_c, 0, 62, 92
2, 42548, Note_on_c, 0, 62, 0
2, 42614, Note_on_c, 0, 67, 96
2, 42746, Note_on_c, 0, 67, 0
2, 42800, Note_on_c, 0, 65, 91
2, 42942, Note_on_c, 0, 65, 0
2, 43000, Note_on_c, 0, 63, 97
2, 43500, Note_on_c, 0, 63, 0
2, 43564, Note_on_c, 0, 62, 92
2, 43714, Note_on_c, 0, 62, 0
2, 43766, Note_on_c, 0, 77, 105
2, 43770, Note_on_c, 0, 60, 90
2, 43914, Note_on_c, 0, 60, 0
2, 43960, Note_on_c, 0, 65, 91
2, 44110, Note_on_c, 0, 65, 0
2, 44152, Note_on_c, 0, 67, 95
2, 44292, Note_on_c, 0, 67, 0
2, 44292, Note_on_c, 0, 77, 0
2, 44342, Note_on_c, 0, 69, 90
2, 44352, Note_on_c, 0, 77, 101
2, 44462, Note_on_c, 0, 69, 0
2, 44484, Note_on_c, 0, 77, 0
2, 44536, Note_on_c, 0, 70, 94
2, 44540, Note_on_c, 0, 74, 95
2, 44668, Note_on_c, 0, 70, 0
2, 44732, Note_on_c, 0, 58, 90
2, 44856, Note_on_c, 0, 58, 0
2, 44878, Note_on_c, 0, 74, 0
2, 44920, Note_on_c, 0, 63, 102
2, 44926, Note_on_c, 0, 79, 96
2, 45130, Note_on_c, 0, 63, 0
2, 45214, Note_on_c, 0, 62, 89
2, 45246, Note_on_c, 0, 79, 0
2, 45256, Note_on_c, 0, 62, 0
2, 45304, Note_on_c, 0, 69, 92
2, 45306, Note_on_c, 0, 60, 90
2, 45428, Note_on_c, 0, 60, 0
2, 45492, Note_on_c, 0, 60, 84
2, 45598, Note_on_c, 0, 60, 0
2, 45684, Note_on_c, 0, 65, 101
2, 45804, Note_on_c, 0, 69, 0
2, 45882, Note_on_c, 0, 69, 91
2, 45998, Note_on_c, 0, 69, 0
2, 46062, Note_on_c, 0, 70, 94
2, 46200, Note_on_c, 0, 65, 0
2, 46264, Note_on_c, 0, 63, 93
2, 46328, Note_on_c, 0, 63, 0
2, 46354, Note_on_c, 0, 62, 80
2, 46408, Note_on_c, 0, 62, 0
2, 46448, Note_on_c, 0, 63, 94
2, 46474, Note_on_c, 0, 70, 0
2, 46504, Note_on_c, 0, 63, 0
2, 46540, Note_on_c, 0, 65, 84
2, 46602, Note_on_c, 0, 65, 0
2, 46636, Note_on_c, 0, 62, 84
2, 46638, Note_on_c, 0, 70, 93
2, 46682, Note_on_c, 0, 62, 0
2, 46726, Note_on_c, 0, 63, 90
2, 46774, Note_on_c, 0, 70, 0
2, 46786, Note_on_c, 0, 63, 0
2, 46830, Note_on_c, 0, 60, 92
2, 46840, Note_on_c, 0, 72, 95
2, 46976, Note_on_c, 0, 60, 0
2, 47020, Note_on_c, 0, 62, 88
2, 47068, Note_on_c, 0, 62, 0
2, 47106, Note_on_c, 0, 63, 90
2, 47160, Note_on_c, 0, 63, 0
2, 47208, Note_on_c, 0, 65, 91
2, 47330, Note_on_c, 0, 72, 0
2, 47400, Note_on_c, 0, 70, 84
2, 47456, Note_on_c, 0, 70, 0
2, 47494, Note_on_c, 0, 72, 84
2, 47558, Note_on_c, 0, 72, 0
2, 47600, Note_on_c, 0, 74, 95
2, 47676, Note_on_c, 0, 65, 0
2, 47744, Note_on_c, 0, 74, 0
2, 47792, Note_on_c, 0, 58, 93
2, 47800, Note_on_c, 0, 72, 79
2, 47852, Note_on_c, 0, 72, 0
2, 47888, Note_on_c, 0, 74, 89
2, 47938, Note_on_c, 0, 74, 0
2, 47986, Note_on_c, 0, 75, 93
2, 48096, Note_on_c, 0, 58, 0
2, 48148, Note_on_c, 0, 75, 0
2, 48180, Note_on_c, 0, 67, 82
2, 48184, Note_on_c, 0, 74, 91
2, 48234, Note_on_c, 0, 74, 0
2, 48272, Note_on_c, 0, 75, 87
2, 48314, Note_on_c, 0, 67, 0
2, 48334, Note_on_c, 0, 75, 0
2, 48380, Note_on_c, 0, 77, 90
2, 48384, Note_on_c, 0, 65, 96
2, 48530, Note_on_c, 0, 77, 0
2, 48576, Note_on_c, 0, 72, 94
2, 48718, Note_on_c, 0, 72, 0
2, 48766, Note_on_c, 0, 77, 90
2, 48878, Note_on_c, 0, 65, 0
2, 48904, Note_on_c, 0, 77, 0
2, 48946, Note_on_c, 0, 75, 92
2, 49104, Note_on_c, 0, 75, 0
2, 49142, Note_on_c, 0, 74, 88
2, 49288, Note_on_c, 0, 74, 0
2, 49332, Note_on_c, 0, 65, 88
2, 49456, Note_on_c, 0, 65, 0
2, 49526, Note_on_c, 0, 70, 105
2, 50260, Note_on_c, 0, 70, 0
2, 50294, Note_on_c, 0, 69, 103
2, 50614, Note_on_c, 0, 69, 0
2, 50658, Note_on_c, 0, 70, 97
2, 50772, Note_on_c, 0, 70, 0
2, 50856, Note_on_c, 0, 70, 93
2, 50980, Note_on_c, 0, 70, 0
2, 51054, Note_on_c, 0, 70, 97
2, 51440, Note_on_c, 0, 72, 101
2, 51802, Note_on_c, 0, 70, 0
2, 51960, Note_on_c, 0, 72, 0
2, 52014, Note_on_c, 0, 72, 92
2, 52020, Note_on_c, 0, 72, 0
2, 52020, Note_on_c, 0, 72, 90
2, 52164, Note_on_c, 0, 72, 0
2, 52206, Note_on_c, 0, 68, 98
2, 52224, Note_on_c, 0, 68, 0
2, 52224, Note_on_c, 0, 68, 97
2, 52548, Note_on_c, 0, 68, 0
2, 52598, Note_on_c, 0, 73, 99
2, 52616, Note_on_c, 0, 73, 0
2, 52616, Note_on_c, 0, 73, 97
2, 52880, Note_on_c, 0, 73, 0
2, 52984, Note_on_c, 0, 64, 99
2, 52986, Note_on_c, 0, 64, 0
2, 52986, Note_on_c, 0, 64, 80
2, 53122, Note_on_c, 0, 64, 0
2, 53562, Note_on_c, 0, 64, 92
2, 53702, Note_on_c, 0, 64, 0
2, 53748, Note_on_c, 0, 65, 101
2, 53938, Note_on_c, 0, 65, 0
2, 53938, Note_on_c, 0, 65, 88
2, 54056, Note_on_c, 0, 65, 0
2, 54126, Note_on_c, 0, 70, 88
2, 54266, Note_on_c, 0, 70, 0
2, 54314, Note_on_c, 0, 68, 85
2, 54464, Note_on_c, 0, 68, 0
2, 54500, Note_on_c, 0, 67, 89
2, 54630, Note_on_c, 0, 67, 0
2, 54696, Note_on_c, 0, 60, 88
2, 54838, Note_on_c, 0, 60, 0
2, 54890, Note_on_c, 0, 72, 87
2, 55034, Note_on_c, 0, 72, 0
2, 55090, Note_on_c, 0, 70, 92
2, 55240, Note_on_c, 0, 70, 0
2, 55280, Note_on_c, 0, 68, 98
2, 55432, Note_on_c, 0, 68, 0
2, 56232, Note_on_c, 0, 62, 96
2, 56334, Note_on_c, 0, 62, 0
2, 56440, Note_on_c, 0, 62, 99
2, 56546, Note_on_c, 0, 62, 0
2, 56632, Note_on_c, 0, 62, 91
2, 56758, Note_on_c, 0, 62, 0
2, 56824, Note_on_c, 0, 63, 94
2, 56882, Note_on_c, 0, 63, 0
2, 56922, Note_on_c, 0, 65, 88
2, 56978, Note_on_c, 0, 65, 0
2, 57016, Note_on_c, 0, 63, 86
2, 57070, Note_on_c, 0, 63, 0
2, 57104, Note_on_c, 0, 62, 77
2, 57138, Note_on_c, 0, 62, 0
2, 57200, Note_on_c, 0, 64, 89
2, 57252, Note_on_c, 0, 64, 0
2, 57286, Note_on_c, 0, 65, 83
2, 57352, Note_on_c, 0, 65, 0
2, 57388, Note_on_c, 0, 62, 80
2, 57450, Note_on_c, 0, 62, 0
2, 57492, Note_on_c, 0, 64, 85
2, 57550, Note_on_c, 0, 64, 0
2, 57588, Note_on_c, 0, 65, 91
2, 57650, Note_on_c, 0, 65, 0
2, 57680, Note_on_c, 0, 67, 81
2, 57736, Note_on_c, 0, 67, 0
2, 57778, Note_on_c, 0, 69, 103
2, 57782, Note_on_c, 0, 65, 88
2, 57832, Note_on_c, 0, 65, 0
2, 57872, Note_on_c, 0, 64, 75
2, 57892, Note_on_c, 0, 69, 0
2, 57932, Note_on_c, 0, 64, 0
2, 57970, Note_on_c, 0, 66, 89
2, 57980, Note_on_c, 0, 69, 96
2, 58028, Note_on_c, 0, 66, 0
2, 58064, Note_on_c, 0, 67, 87
2, 58098, Note_on_c, 0, 69, 0
2, 58128, Note_on_c, 0, 67, 0
2, 58162, Note_on_c, 0, 64, 87
2, 58172, Note_on_c, 0, 69, 87
2, 58216, Note_on_c, 0, 64, 0
2, 58244, Note_on_c, 0, 66, 85
2, 58296, Note_on_c, 0, 69, 0
2, 58298, Note_on_c, 0, 66, 0
2, 58354, Note_on_c, 0, 67, 101
2, 58364, Note_on_c, 0, 70, 91
2, 58426, Note_on_c, 0, 70, 0
2, 58458, Note_on_c, 0, 72, 83
2, 58482, Note_on_c, 0, 67, 0
2, 58512, Note_on_c, 0, 72, 0
2, 58552, Note_on_c, 0, 62, 90
2, 58554, Note_on_c, 0, 70, 86
2, 58616, Note_on_c, 0, 70, 0
2, 58644, Note_on_c, 0, 69, 83
2, 58686, Note_on_c, 0, 62, 0
2, 58700, Note_on_c, 0, 69, 0
2, 58744, Note_on_c, 0, 71, 96
2, 58746, Note_on_c, 0, 67, 99
2, 58800, Note_on_c, 0, 71, 0
2, 58830, Note_on_c, 0, 72, 87
2, 58884, Note_on_c, 0, 67, 0
2, 58892, Note_on_c, 0, 72, 0
2, 58930, Note_on_c, 0, 69, 80
2, 58940, Note_on_c, 0, 65, 94
2, 58984, Note_on_c, 0, 69, 0
2, 59024, Note_on_c, 0, 71, 92
2, 59070, Note_on_c, 0, 65, 0
2, 59078, Note_on_c, 0, 71, 0
2, 59120, Note_on_c, 0, 72, 91
2, 59130, Note_on_c, 0, 64, 87
2, 59170, Note_on_c, 0, 72, 0
2, 59210, Note_on_c, 0, 74, 85
2, 59244, Note_on_c, 0, 64, 0
2, 59264, Note_on_c, 0, 74, 0
2, 59310, Note_on_c, 0, 72, 90
2, 59318, Note_on_c, 0, 57, 84
2, 59358, Note_on_c, 0, 72, 0
2, 59398, Note_on_c, 0, 71, 89
2, 59446, Note_on_c, 0, 57, 0
2, 59454, Note_on_c, 0, 71, 0
2, 59504, Note_on_c, 0, 73, 90
2, 59518, Note_on_c, 0, 69, 88
2, 59562, Note_on_c, 0, 73, 0
2, 59600, Note_on_c, 0, 74, 90
2, 59648, Note_on_c, 0, 69, 0
2, 59658, Note_on_c, 0, 74, 0
2, 59698, Note_on_c, 0, 71, 91
2, 59706, Note_on_c, 0, 67, 96
2, 59744, Note_on_c, 0, 71, 0
2, 59786, Note_on_c, 0, 73, 88
2, 59838, Note_on_c, 0, 67, 0
2, 59848, Note_on_c, 0, 73, 0
2, 59896, Note_on_c, 0, 74, 95
2, 59904, Note_on_c, 0, 65, 103
2, 60026, Note_on_c, 0, 74, 0
2, 60094, Note_on_c, 0, 69, 91
2, 60194, Note_on_c, 0, 65, 0
2, 60226, Note_on_c, 0, 69, 0
2, 60274, Note_on_c, 0, 74, 95
2, 60278, Note_on_c, 0, 69, 96
2, 60414, Note_on_c, 0, 74, 0
2, 60470, Note_on_c, 0, 72, 94
2, 60522, Note_on_c, 0, 69, 0
2, 60572, Note_on_c, 0, 69, 84
2, 60610, Note_on_c, 0, 72, 0
2, 60646, Note_on_c, 0, 69, 0
2, 60666, Note_on_c, 0, 71, 96
2, 60670, Note_on_c, 0, 62, 87
2, 60782, Note_on_c, 0, 71, 0
2, 60822, Note_on_c, 0, 62, 0
2, 60854, Note_on_c, 0, 71, 95
2, 60860, Note_on_c, 0, 71, 0
2, 60860, Note_on_c, 0, 71, 96
2, 60958, Note_on_c, 0, 71, 0
2, 61046, Note_on_c, 0, 76, 95
2, 61048, Note_on_c, 0, 71, 95
2, 61186, Note_on_c, 0, 76, 0
2, 61240, Note_on_c, 0, 74, 99
2, 61374, Note_on_c, 0, 71, 0
2, 61374, Note_on_c, 0, 74, 0
2, 61424, Note_on_c, 0, 73, 100
2, 61430, Note_on_c, 0, 64, 95
2, 61538, Note_on_c, 0, 64, 0
2, 61634, Note_on_c, 0, 61, 92
2, 61710, Note_on_c, 0, 73, 0
2, 61790, Note_on_c, 0, 61, 0
2, 61822, Note_on_c, 0, 62, 85
2, 61958, Note_on_c, 0, 62, 0
2, 62018, Note_on_c, 0, 64, 90
2, 62158, Note_on_c, 0, 64, 0
2, 62206, Note_on_c, 0, 65, 99
2, 62346, Note_on_c, 0, 65, 0
2, 62390, Note_on_c, 0, 64, 82
2, 62442, Note_on_c, 0, 64, 0
2, 62484, Note_on_c, 0, 65, 87
2, 62538, Note_on_c, 0, 65, 0
2, 62586, Note_on_c, 0, 67, 99
2, 62722, Note_on_c, 0, 67, 0
2, 62764, Note_on_c, 0, 65, 82
2, 62822, Note_on_c, 0, 65, 0
2, 62858, Note_on_c, 0, 67, 89
2, 62912, Note_on_c, 0, 67, 0
2, 62962, Note_on_c, 0, 69, 94
2, 63108, Note_on_c, 0, 69, 0
2, 63160, Note_on_c, 0, 70, 93
2, 63164, Note_on_c, 0, 76, 101
2, 63274, Note_on_c, 0, 76, 0
2, 63304, Note_on_c, 0, 70, 0
2, 63354, Note_on_c, 0, 69, 90
2, 63354, Note_on_c, 0, 76, 96
2, 63472, Note_on_c, 0, 76, 0
2, 63506, Note_on_c, 0, 69, 0
2, 63550, Note_on_c, 0, 67, 87
2, 63552, Note_on_c, 0, 76, 95
2, 63686, Note_on_c, 0, 76, 0
2, 63688, Note_on_c, 0, 67, 0
2, 63734, Note_on_c, 0, 65, 83
2, 63750, Note_on_c, 0, 77, 95
2, 63808, Note_on_c, 0, 77, 0
2, 63840, Note_on_c, 0, 79, 83
2, 63876, Note_on_c, 0, 65, 0
2, 63892, Note_on_c, 0, 79, 0
2, 63934, Note_on_c, 0, 69, 80
2, 63938, Note_on_c, 0, 77, 92
2, 63988, Note_on_c, 0, 77, 0
2, 64022, Note_on_c, 0, 76, 88
2, 64066, Note_on_c, 0, 69, 0
2, 64076, Note_on_c, 0, 76, 0
2, 64120, Note_on_c, 0, 77, 94
2, 64122, Note_on_c, 0, 74, 89
2, 64170, Note_on_c, 0, 77, 0
2, 64206, Note_on_c, 0, 79, 88
2, 64270, Note_on_c, 0, 79, 0
2, 64304, Note_on_c, 0, 76, 81
2, 64356, Note_on_c, 0, 76, 0
2, 64392, Note_on_c, 0, 77, 90
2, 64440, Note_on_c, 0, 77, 0
2, 64496, Note_on_c, 0, 79, 101
2, 64860, Note_on_c, 0, 74, 0
2, 64886, Note_on_c, 0, 73, 94
2, 65006, Note_on_c, 0, 79, 0
2, 65078, Note_on_c, 0, 77, 88
2, 65126, Note_on_c, 0, 77, 0
2, 65166, Note_on_c, 0, 76, 73
2, 65202, Note_on_c, 0, 73, 0
2, 65232, Note_on_c, 0, 76, 0
2, 65272, Note_on_c, 0, 74, 90
2, 65580, Note_on_c, 0, 74, 0
2, 65652, Note_on_c, 0, 79, 92
2, 65702, Note_on_c, 0, 79, 0
2, 65740, Note_on_c, 0, 77, 88
2, 65794, Note_on_c, 0, 77, 0
2, 65842, Note_on_c, 0, 76, 87
2, 65890, Note_on_c, 0, 76, 0
2, 65926, Note_on_c, 0, 74, 80
2, 65988, Note_on_c, 0, 74, 0
2, 66032, Note_on_c, 0, 73, 99
2, 66168, Note_on_c, 0, 73, 0
2, 66226, Note_on_c, 0, 74, 92
2, 66342, Note_on_c, 0, 74, 0
2, 66410, Note_on_c, 0, 76, 101
2, 66430, Note_on_c, 0, 70, 97
2, 66896, Note_on_c, 0, 70, 0
2, 66930, Note_on_c, 0, 76, 0
2, 66988, Note_on_c, 0, 70, 90
2, 67000, Note_on_c, 0, 79, 95
2, 67128, Note_on_c, 0, 70, 0
2, 67156, Note_on_c, 0, 79, 0
2, 67196, Note_on_c, 0, 69, 88
2, 67204, Note_on_c, 0, 77, 94
2, 67338, Note_on_c, 0, 69, 0
2, 67348, Note_on_c, 0, 77, 0
2, 67390, Note_on_c, 0, 76, 91
2, 67392, Note_on_c, 0, 69, 91
2, 67524, Note_on_c, 0, 69, 0
2, 67546, Note_on_c, 0, 76, 0
2, 67580, Note_on_c, 0, 74, 89
2, 67584, Note_on_c, 0, 69, 99
2, 67932, Note_on_c, 0, 69, 0
2, 67968, Note_on_c, 0, 68, 93
2, 68070, Note_on_c, 0, 74, 0
2, 68162, Note_on_c, 0, 74, 101
2, 68306, Note_on_c, 0, 68, 0
2, 68312, Note_on_c, 0, 74, 0
2, 68346, Note_on_c, 0, 73, 95
2, 68356, Note_on_c, 0, 69, 96
2, 68426, Note_on_c, 0, 69, 0
2, 68482, Note_on_c, 0, 73, 0
2, 68540, Note_on_c, 0, 69, 99
2, 68540, Note_on_c, 0, 73, 97
2, 68690, Note_on_c, 0, 73, 0
2, 68724, Note_on_c, 0, 74, 99
2, 68858, Note_on_c, 0, 74, 0
2, 68860, Note_on_c, 0, 69, 0
2, 68910, Note_on_c, 0, 76, 94
2, 68924, Note_on_c, 0, 69, 101
2, 69056, Note_on_c, 0, 76, 0
2, 69062, Note_on_c, 0, 69, 0
2, 69102, Note_on_c, 0, 69, 91
2, 69120, Note_on_c, 0, 65, 95
2, 69434, Note_on_c, 0, 65, 0
2, 69440, Note_on_c, 0, 69, 0
2, 69496, Note_on_c, 0, 70, 98
2, 69510, Note_on_c, 0, 70, 0
2, 69510, Note_on_c, 0, 70, 100
2, 69732, Note_on_c, 0, 70, 0
2, 69882, Note_on_c, 0, 61, 98
2, 70366, Note_on_c, 0, 61, 0
2, 70454, Note_on_c, 0, 61, 89
2, 70608, Note_on_c, 0, 61, 0
2, 70652, Note_on_c, 0, 62, 89
2, 71058, Note_on_c, 0, 62, 0
2, 71224, Note_on_c, 0, 62, 84
2, 71346, Note_on_c, 0, 62, 0
2, 71418, Note_on_c, 0, 64, 99
2, 71604, Note_on_c, 0, 69, 99
2, 71638, Note_on_c, 0, 69, 0
2, 71790, Note_on_c, 0, 69, 99
2, 71844, Note_on_c, 0, 69, 0
2, 71894, Note_on_c, 0, 64, 0
2, 71984, Note_on_c, 0, 69, 90
2, 71986, Note_on_c, 0, 62, 80
2, 72028, Note_on_c, 0, 62, 0
2, 72038, Note_on_c, 0, 69, 0
2, 72072, Note_on_c, 0, 64, 88
2, 72130, Note_on_c, 0, 64, 0
2, 72172, Note_on_c, 0, 70, 92
2, 72178, Note_on_c, 0, 65, 103
2, 72236, Note_on_c, 0, 70, 0
2, 72262, Note_on_c, 0, 72, 80
2, 72318, Note_on_c, 0, 72, 0
2, 72368, Note_on_c, 0, 70, 90
2, 72430, Note_on_c, 0, 70, 0
2, 72432, Note_on_c, 0, 65, 0
2, 72460, Note_on_c, 0, 69, 79
2, 72516, Note_on_c, 0, 69, 0
2, 72562, Note_on_c, 0, 71, 99
2, 72616, Note_on_c, 0, 71, 0
2, 72652, Note_on_c, 0, 72, 83
2, 72712, Note_on_c, 0, 72, 0
2, 72748, Note_on_c, 0, 69, 83
2, 72804, Note_on_c, 0, 69, 0
2, 72842, Note_on_c, 0, 71, 90
2, 72896, Note_on_c, 0, 71, 0
2, 72938, Note_on_c, 0, 72, 94
2, 72992, Note_on_c, 0, 72, 0
2, 73028, Note_on_c, 0, 74, 84
2, 73080, Note_on_c, 0, 74, 0
2, 73138, Note_on_c, 0, 72, 88
2, 73150, Note_on_c, 0, 64, 103
2, 73186, Note_on_c, 0, 72, 0
2, 73224, Note_on_c, 0, 71, 84
2, 73226, Note_on_c, 0, 64, 0
2, 73280, Note_on_c, 0, 71, 0
2, 73326, Note_on_c, 0, 73, 91
2, 73340, Note_on_c, 0, 64, 95
2, 73378, Note_on_c, 0, 73, 0
2, 73424, Note_on_c, 0, 64, 0
2, 73424, Note_on_c, 0, 74, 90
2, 73476, Note_on_c, 0, 74, 0
2, 73520, Note_on_c, 0, 71, 88
2, 73528, Note_on_c, 0, 64, 91
2, 73566, Note_on_c, 0, 71, 0
2, 73608, Note_on_c, 0, 73, 86
2, 73638, Note_on_c, 0, 64, 0
2, 73660, Note_on_c, 0, 73, 0
2, 73714, Note_on_c, 0, 74, 103
2, 73722, Note_on_c, 0, 65, 95
2, 73776, Note_on_c, 0, 65, 0
2, 73810, Note_on_c, 0, 67, 89
2, 73862, Note_on_c, 0, 67, 0
2, 73906, Note_on_c, 0, 65, 82
2, 73952, Note_on_c, 0, 65, 0
2, 73990, Note_on_c, 0, 64, 82
2, 74042, Note_on_c, 0, 64, 0
2, 74094, Note_on_c, 0, 66, 94
2, 74124, Note_on_c, 0, 74, 0
2, 74146, Note_on_c, 0, 66, 0
2, 74192, Note_on_c, 0, 67, 90
2, 74250, Note_on_c, 0, 67, 0
2, 74288, Note_on_c, 0, 64, 85
2, 74344, Note_on_c, 0, 64, 0
2, 74384, Note_on_c, 0, 66, 93
2, 74438, Note_on_c, 0, 66, 0
2, 74486, Note_on_c, 0, 67, 99
2, 74538, Note_on_c, 0, 67, 0
2, 74578, Note_on_c, 0, 69, 84
2, 74628, Note_on_c, 0, 69, 0
2, 74676, Note_on_c, 0, 67, 91
2, 74678, Note_on_c, 0, 76, 101
2, 74720, Note_on_c, 0, 67, 0
2, 74750, Note_on_c, 0, 76, 0
2, 74758, Note_on_c, 0, 66, 91
2, 74810, Note_on_c, 0, 66, 0
2, 74856, Note_on_c, 0, 68, 90
2, 74872, Note_on_c, 0, 76, 95
2, 74906, Note_on_c, 0, 68, 0
2, 74950, Note_on_c, 0, 69, 83
2, 74960, Note_on_c, 0, 76, 0
2, 75000, Note_on_c, 0, 69, 0
2, 75060, Note_on_c, 0, 76, 90
2, 75060, Note_on_c, 0, 66, 93
2, 75108, Note_on_c, 0, 66, 0
2, 75146, Note_on_c, 0, 68, 88
2, 75152, Note_on_c, 0, 76, 0
2, 75190, Note_on_c, 0, 68, 0
2, 75246, Note_on_c, 0, 69, 96
2, 75248, Note_on_c, 0, 77, 95
2, 75302, Note_on_c, 0, 77, 0
2, 75340, Note_on_c, 0, 79, 85
2, 75392, Note_on_c, 0, 79, 0
2, 75444, Note_on_c, 0, 77, 85
2, 75500, Note_on_c, 0, 77, 0
2, 75540, Note_on_c, 0, 76, 83
2, 75560, Note_on_c, 0, 69, 0
2, 75598, Note_on_c, 0, 76, 0
2, 75642, Note_on_c, 0, 69, 99
2, 75644, Note_on_c, 0, 78, 91
2, 75698, Note_on_c, 0, 78, 0
2, 75736, Note_on_c, 0, 79, 88
2, 75790, Note_on_c, 0, 79, 0
2, 75834, Note_on_c, 0, 76, 87
2, 75850, Note_on_c, 0, 69, 0
2, 75878, Note_on_c, 0, 76, 0
2, 75918, Note_on_c, 0, 78, 89
2, 75920, Note_on_c, 0, 69, 89
2, 75974, Note_on_c, 0, 78, 0
2, 75974, Note_on_c, 0, 69, 0
2, 76022, Note_on_c, 0, 79, 94
2, 76024, Note_on_c, 0, 67, 99
2, 76170, Note_on_c, 0, 79, 0
2, 76208, Note_on_c, 0, 74, 83
2, 76332, Note_on_c, 0, 74, 0
2, 76344, Note_on_c, 0, 67, 0
2, 76400, Note_on_c, 0, 76, 101
2, 76420, Note_on_c, 0, 71, 105
2, 76626, Note_on_c, 0, 71, 0
2, 76634, Note_on_c, 0, 76, 0
2, 76694, Note_on_c, 0, 71, 95
2, 76702, Note_on_c, 0, 76, 92
2, 76748, Note_on_c, 0, 71, 0
2, 76750, Note_on_c, 0, 76, 0
2, 76792, Note_on_c, 0, 69, 95
2, 76792, Note_on_c, 0, 76, 95
2, 76934, Note_on_c, 0, 69, 0
2, 76992, Note_on_c, 0, 67, 91
2, 77122, Note_on_c, 0, 76, 0
2, 77132, Note_on_c, 0, 67, 0
2, 77180, Note_on_c, 0, 65, 94
2, 77186, Note_on_c, 0, 74, 96
2, 77308, Note_on_c, 0, 65, 0
2, 77318, Note_on_c, 0, 74, 0
2, 77368, Note_on_c, 0, 70, 95
2, 77376, Note_on_c, 0, 74, 95
2, 77494, Note_on_c, 0, 70, 0
2, 77514, Note_on_c, 0, 74, 0
2, 77564, Note_on_c, 0, 74, 103
2, 77566, Note_on_c, 0, 69, 101
2, 77908, Note_on_c, 0, 74, 0
2, 77944, Note_on_c, 0, 73, 100
2, 78058, Note_on_c, 0, 69, 0
2, 78136, Note_on_c, 0, 69, 101
2, 78256, Note_on_c, 0, 69, 0
2, 78274, Note_on_c, 0, 73, 0
2, 78332, Note_on_c, 0, 71, 105
2, 78332, Note_on_c, 0, 74, 103
2, 79100, Note_on_c, 0, 71, 0
2, 79150, Note_on_c, 0, 74, 0
2, 79870, Note_on_c, 0, 74, 108
2, 79876, Note_on_c, 0, 65, 105
2, 80088, Note_on_c, 0, 65, 0
2, 80116, Note_on_c, 0, 74, 0
2, 80160, Note_on_c, 0, 65, 94
2, 80164, Note_on_c, 0, 74, 94
2, 80212, Note_on_c, 0, 65, 0
2, 80230, Note_on_c, 0, 74, 0
2, 80254, Note_on_c, 0, 64, 96
2, 80264, Note_on_c, 0, 73, 94
2, 80582, Note_on_c, 0, 64, 0
2, 80600, Note_on_c, 0, 73, 0
2, 80638, Note_on_c, 0, 65, 105
2, 80642, Note_on_c, 0, 74, 108
2, 81348, Note_on_c, 0, 74, 0
2, 81350, Note_on_c, 0, 65, 0
2, 81400, Note_on_c, 0, 73, 101
2, 81400, Note_on_c, 0, 64, 95
2, 81732, Note_on_c, 0, 64, 0
2, 81738, Note_on_c, 0, 73, 0
2, 81788, Note_on_c, 0, 74, 95
2, 81790, Note_on_c, 0, 62, 92
2, 82944, Note_on_c, 0, 74, 0
2, 82946, Note_on_c, 0, 62, 0
2, 82946, End_track
3, 0, Start_track
3, 0, Title_t, "fg"
3, 386, Program_c, 1, 70
3, 387, Control_c, 1, 7, 66
3, 387, Control_c, 1, 10, 70
3, 576, Control_c, 1, 91, 120
3, 3066, Note_on_c, 1, 57, 110
3, 3460, Note_on_c, 1, 57, 0
3, 3648, Note_on_c, 1, 57, 95
3, 3686, Note_on_c, 1, 57, 0
3, 3842, Note_on_c, 1, 53, 96
3, 4130, Note_on_c, 1, 53, 0
3, 4222, Note_on_c, 1, 58, 99
3, 4474, Note_on_c, 1, 58, 0
3, 4618, Note_on_c, 1, 49, 99
3, 5052, Note_on_c, 1, 49, 0
3, 5168, Note_on_c, 1, 49, 99
3, 5246, Note_on_c, 1, 49, 0
3, 5368, Note_on_c, 1, 50, 103
3, 5814, Note_on_c, 1, 50, 0
3, 5954, Note_on_c, 1, 50, 99
3, 6018, Note_on_c, 1, 50, 0
3, 6146, Note_on_c, 1, 52, 103
3, 6638, Note_on_c, 1, 52, 0
3, 6714, Note_on_c, 1, 50, 94
3, 6764, Note_on_c, 1, 50, 0
3, 6804, Note_on_c, 1, 52, 92
3, 6850, Note_on_c, 1, 52, 0
3, 6904, Note_on_c, 1, 53, 103
3, 7034, Note_on_c, 1, 53, 0
3, 7094, Note_on_c, 1, 52, 84
3, 7130, Note_on_c, 1, 52, 0
3, 7176, Note_on_c, 1, 53, 91
3, 7218, Note_on_c, 1, 53, 0
3, 7282, Note_on_c, 1, 55, 96
3, 7410, Note_on_c, 1, 55, 0
3, 7476, Note_on_c, 1, 53, 91
3, 7518, Note_on_c, 1, 53, 0
3, 7566, Note_on_c, 1, 55, 90
3, 7604, Note_on_c, 1, 55, 0
3, 7668, Note_on_c, 1, 57, 103
3, 7788, Note_on_c, 1, 57, 0
3, 7872, Note_on_c, 1, 55, 96
3, 7986, Note_on_c, 1, 55, 0
3, 8062, Note_on_c, 1, 53, 103
3, 8178, Note_on_c, 1, 53, 0
3, 8254, Note_on_c, 1, 52, 95
3, 8364, Note_on_c, 1, 52, 0
3, 8446, Note_on_c, 1, 50, 101
3, 8562, Note_on_c, 1, 50, 0
3, 8634, Note_on_c, 1, 48, 92
3, 8752, Note_on_c, 1, 48, 0
3, 8822, Note_on_c, 1, 47, 96
3, 8942, Note_on_c, 1, 47, 0
3, 9014, Note_on_c, 1, 52, 95
3, 9138, Note_on_c, 1, 52, 0
3, 9216, Note_on_c, 1, 45, 105
3, 9332, Note_on_c, 1, 45, 0
3, 9402, Note_on_c, 1, 53, 94
3, 9450, Note_on_c, 1, 53, 0
3, 9490, Note_on_c, 1, 52, 91
3, 9550, Note_on_c, 1, 52, 0
3, 9588, Note_on_c, 1, 50, 92
3, 9644, Note_on_c, 1, 50, 0
3, 9680, Note_on_c, 1, 47, 91
3, 9724, Note_on_c, 1, 47, 0
3, 9772, Note_on_c, 1, 48, 92
3, 9820, Note_on_c, 1, 48, 0
3, 9870, Note_on_c, 1, 50, 90
3, 9916, Note_on_c, 1, 50, 0
3, 9970, Note_on_c, 1, 52, 105
3, 9974, Note_on_c, 1, 52, 0
3, 9974, Note_on_c, 1, 52, 77
3, 10170, Note_on_c, 1, 59, 91
3, 10206, Note_on_c, 1, 59, 0
3, 10340, Note_on_c, 1, 52, 0
3, 10362, Note_on_c, 1, 59, 89
3, 10402, Note_on_c, 1, 59, 0
3, 10556, Note_on_c, 1, 59, 87
3, 10606, Note_on_c, 1, 59, 0
3, 10752, Note_on_c, 1, 60, 99
3, 10824, Note_on_c, 1, 60, 0
3, 10842, Note_on_c, 1, 62, 78
3, 10888, Note_on_c, 1, 62, 0
3, 10932, Note_on_c, 1, 60, 80
3, 10972, Note_on_c, 1, 60, 0
3, 11022, Note_on_c, 1, 59, 80
3, 11068, Note_on_c, 1, 59, 0
3, 11124, Note_on_c, 1, 60, 95
3, 11130, Note_on_c, 1, 57, 110
3, 11170, Note_on_c, 1, 60, 0
3, 11208, Note_on_c, 1, 62, 79
3, 11258, Note_on_c, 1, 62, 0
3, 11308, Note_on_c, 1, 59, 84
3, 11356, Note_on_c, 1, 59, 0
3, 11398, Note_on_c, 1, 60, 85
3, 11440, Note_on_c, 1, 60, 0
3, 11496, Note_on_c, 1, 62, 85
3, 11550, Note_on_c, 1, 62, 0
3, 11594, Note_on_c, 1, 64, 87
3, 11644, Note_on_c, 1, 64, 0
3, 11696, Note_on_c, 1, 62, 80
3, 11742, Note_on_c, 1, 62, 0
3, 11790, Note_on_c, 1, 60, 84
3, 11822, Note_on_c, 1, 57, 0
3, 11840, Note_on_c, 1, 60, 0
3, 11888, Note_on_c, 1, 62, 85
3, 11888, Note_on_c, 1, 55, 89
3, 11930, Note_on_c, 1, 55, 0
3, 11936, Note_on_c, 1, 62, 0
3, 11980, Note_on_c, 1, 53, 85
3, 11984, Note_on_c, 1, 64, 87
3, 12022, Note_on_c, 1, 53, 0
3, 12028, Note_on_c, 1, 64, 0
3, 12072, Note_on_c, 1, 52, 82
3, 12082, Note_on_c, 1, 60, 85
3, 12114, Note_on_c, 1, 52, 0
3, 12126, Note_on_c, 1, 60, 0
3, 12160, Note_on_c, 1, 50, 80
3, 12172, Note_on_c, 1, 62, 83
3, 12200, Note_on_c, 1, 50, 0
3, 12222, Note_on_c, 1, 62, 0
3, 12270, Note_on_c, 1, 48, 105
3, 12282, Note_on_c, 1, 64, 101
3, 12418, Note_on_c, 1, 64, 0
3, 12472, Note_on_c, 1, 65, 80
3, 12526, Note_on_c, 1, 65, 0
3, 12560, Note_on_c, 1, 64, 82
3, 12600, Note_on_c, 1, 48, 0
3, 12616, Note_on_c, 1, 64, 0
3, 12662, Note_on_c, 1, 62, 83
3, 12670, Note_on_c, 1, 47, 101
3, 12696, Note_on_c, 1, 62, 0
3, 12752, Note_on_c, 1, 60, 83
3, 12786, Note_on_c, 1, 47, 0
3, 12804, Note_on_c, 1, 60, 0
3, 12846, Note_on_c, 1, 59, 90
3, 12868, Note_on_c, 1, 53, 96
3, 12892, Note_on_c, 1, 59, 0
3, 12936, Note_on_c, 1, 57, 89
3, 12966, Note_on_c, 1, 53, 0
3, 12982, Note_on_c, 1, 57, 0
3, 13040, Note_on_c, 1, 56, 99
3, 13052, Note_on_c, 1, 52, 95
3, 13166, Note_on_c, 1, 56, 0
3, 13232, Note_on_c, 1, 59, 95
3, 13272, Note_on_c, 1, 52, 0
3, 13332, Note_on_c, 1, 54, 81
3, 13354, Note_on_c, 1, 59, 0
3, 13372, Note_on_c, 1, 54, 0
3, 13428, Note_on_c, 1, 56, 91
3, 13434, Note_on_c, 1, 64, 91
3, 13470, Note_on_c, 1, 56, 0
3, 13514, Note_on_c, 1, 57, 83
3, 13552, Note_on_c, 1, 57, 0
3, 13564, Note_on_c, 1, 64, 0
3, 13614, Note_on_c, 1, 54, 82
3, 13630, Note_on_c, 1, 62, 88
3, 13654, Note_on_c, 1, 54, 0
3, 13698, Note_on_c, 1, 56, 86
3, 13730, Note_on_c, 1, 56, 0
3, 13756, Note_on_c, 1, 62, 0
3, 13808, Note_on_c, 1, 57, 101
3, 13820, Note_on_c, 1, 60, 96
3, 13920, Note_on_c, 1, 57, 0
3, 13952, Note_on_c, 1, 60, 0
3, 14006, Note_on_c, 1, 45, 101
3, 14016, Note_on_c, 1, 61, 90
3, 14136, Note_on_c, 1, 45, 0
3, 14148, Note_on_c, 1, 61, 0
3, 14200, Note_on_c, 1, 47, 96
3, 14204, Note_on_c, 1, 62, 90
3, 14322, Note_on_c, 1, 47, 0
3, 14332, Note_on_c, 1, 62, 0
3, 14390, Note_on_c, 1, 49, 91
3, 14398, Note_on_c, 1, 64, 84
3, 14510, Note_on_c, 1, 49, 0
3, 14524, Note_on_c, 1, 64, 0
3, 14588, Note_on_c, 1, 57, 89
3, 14592, Note_on_c, 1, 50, 96
3, 14724, Note_on_c, 1, 57, 0
3, 14780, Note_on_c, 1, 50, 0
3, 14780, Note_on_c, 1, 50, 92
3, 14918, Note_on_c, 1, 50, 0
3, 14966, Note_on_c, 1, 55, 88
3, 15116, Note_on_c, 1, 55, 0
3, 15166, Note_on_c, 1, 53, 91
3, 15306, Note_on_c, 1, 53, 0
3, 15360, Note_on_c, 1, 52, 101
3, 15512, Note_on_c, 1, 52, 0
3, 15546, Note_on_c, 1, 55, 87
3, 15546, Note_on_c, 1, 52, 103
3, 15632, Note_on_c, 1, 52, 0
3, 15678, Note_on_c, 1, 55, 0
3, 15734, Note_on_c, 1, 58, 100
3, 15746, Note_on_c, 1, 52, 99
3, 15820, Note_on_c, 1, 52, 0
3, 15930, Note_on_c, 1, 52, 94
3, 16050, Note_on_c, 1, 52, 0
3, 16078, Note_on_c, 1, 58, 0
3, 16124, Note_on_c, 1, 53, 99
3, 16134, Note_on_c, 1, 57, 105
3, 16184, Note_on_c, 1, 53, 0
3, 16212, Note_on_c, 1, 55, 90
3, 16264, Note_on_c, 1, 55, 0
3, 16314, Note_on_c, 1, 53, 92
3, 16362, Note_on_c, 1, 53, 0
3, 16402, Note_on_c, 1, 52, 85
3, 16442, Note_on_c, 1, 52, 0
3, 16446, Note_on_c, 1, 57, 0
3, 16502, Note_on_c, 1, 53, 94
3, 16542, Note_on_c, 1, 53, 0
3, 16586, Note_on_c, 1, 55, 85
3, 16636, Note_on_c, 1, 55, 0
3, 16680, Note_on_c, 1, 52, 83
3, 16726, Note_on_c, 1, 52, 0
3, 16774, Note_on_c, 1, 53, 91
3, 16816, Note_on_c, 1, 53, 0
3, 16876, Note_on_c, 1, 55, 88
3, 16926, Note_on_c, 1, 55, 0
3, 16970, Note_on_c, 1, 57, 91
3, 17010, Note_on_c, 1, 57, 0
3, 17064, Note_on_c, 1, 55, 81
3, 17108, Note_on_c, 1, 55, 0
3, 17158, Note_on_c, 1, 53, 90
3, 17200, Note_on_c, 1, 53, 0
3, 17256, Note_on_c, 1, 55, 90
3, 17294, Note_on_c, 1, 55, 0
3, 17346, Note_on_c, 1, 57, 84
3, 17384, Note_on_c, 1, 57, 0
3, 17446, Note_on_c, 1, 53, 88
3, 17482, Note_on_c, 1, 53, 0
3, 17536, Note_on_c, 1, 55, 87
3, 17572, Note_on_c, 1, 55, 0
3, 17640, Note_on_c, 1, 57, 101
3, 17778, Note_on_c, 1, 57, 0
3, 17842, Note_on_c, 1, 58, 90
3, 17882, Note_on_c, 1, 58, 0
3, 17936, Note_on_c, 1, 57, 87
3, 17984, Note_on_c, 1, 57, 0
3, 18028, Note_on_c, 1, 55, 88
3, 18072, Note_on_c, 1, 55, 0
3, 18124, Note_on_c, 1, 53, 90
3, 18158, Note_on_c, 1, 53, 0
3, 18216, Note_on_c, 1, 52, 87
3, 18262, Note_on_c, 1, 52, 0
3, 18314, Note_on_c, 1, 50, 92
3, 18354, Note_on_c, 1, 50, 0
3, 18416, Note_on_c, 1, 49, 94
3, 18558, Note_on_c, 1, 49, 0
3, 18616, Note_on_c, 1, 52, 94
3, 18736, Note_on_c, 1, 52, 0
3, 18806, Note_on_c, 1, 57, 101
3, 18936, Note_on_c, 1, 57, 0
3, 19000, Note_on_c, 1, 55, 91
3, 19132, Note_on_c, 1, 55, 0
3, 19194, Note_on_c, 1, 53, 94
3, 19198, Note_on_c, 1, 62, 101
3, 19228, Note_on_c, 1, 53, 0
3, 19284, Note_on_c, 1, 52, 84
3, 19322, Note_on_c, 1, 52, 0
3, 19384, Note_on_c, 1, 50, 89
3, 19420, Note_on_c, 1, 50, 0
3, 19474, Note_on_c, 1, 48, 83
3, 19508, Note_on_c, 1, 48, 0
3, 19566, Note_on_c, 1, 47, 95
3, 19692, Note_on_c, 1, 62, 0
3, 19774, Note_on_c, 1, 62, 101
3, 19908, Note_on_c, 1, 47, 0
3, 19926, Note_on_c, 1, 62, 0
3, 19972, Note_on_c, 1, 60, 99
3, 19978, Note_on_c, 1, 48, 95
3, 20276, Note_on_c, 1, 48, 0
3, 20296, Note_on_c, 1, 60, 0
3, 20344, Note_on_c, 1, 65, 96
3, 20348, Note_on_c, 1, 50, 101
3, 20668, Note_on_c, 1, 50, 0
3, 20674, Note_on_c, 1, 65, 0
3, 20726, Note_on_c, 1, 56, 95
3, 20730, Note_on_c, 1, 52, 95
3, 21218, Note_on_c, 1, 52, 0
3, 21246, Note_on_c, 1, 56, 0
3, 21300, Note_on_c, 1, 56, 95
3, 21306, Note_on_c, 1, 52, 91
3, 21428, Note_on_c, 1, 52, 0
3, 21450, Note_on_c, 1, 56, 0
3, 21500, Note_on_c, 1, 57, 103
3, 21502, Note_on_c, 1, 57, 0
3, 21502, Note_on_c, 1, 57, 108
3, 21906, Note_on_c, 1, 57, 0
3, 21978, Note_on_c, 1, 55, 89
3, 22014, Note_on_c, 1, 55, 0
3, 22070, Note_on_c, 1, 53, 85
3, 22074, Note_on_c, 1, 57, 101
3, 22106, Note_on_c, 1, 53, 0
3, 22158, Note_on_c, 1, 52, 85
3, 22182, Note_on_c, 1, 57, 0
3, 22192, Note_on_c, 1, 52, 0
3, 22260, Note_on_c, 1, 53, 101
3, 22268, Note_on_c, 1, 59, 103
3, 22374, Note_on_c, 1, 53, 0
3, 22450, Note_on_c, 1, 50, 96
3, 22570, Note_on_c, 1, 50, 0
3, 22642, Note_on_c, 1, 55, 94
3, 22744, Note_on_c, 1, 59, 0
3, 22838, Note_on_c, 1, 57, 92
3, 22892, Note_on_c, 1, 57, 0
3, 22928, Note_on_c, 1, 59, 90
3, 22954, Note_on_c, 1, 55, 0
3, 22984, Note_on_c, 1, 59, 0
3, 23028, Note_on_c, 1, 60, 94
3, 23040, Note_on_c, 1, 48, 92
3, 23126, Note_on_c, 1, 48, 0
3, 23170, Note_on_c, 1, 60, 0
3, 23224, Note_on_c, 1, 45, 101
3, 23232, Note_on_c, 1, 59, 89
3, 23280, Note_on_c, 1, 59, 0
3, 23302, Note_on_c, 1, 45, 0
3, 23316, Note_on_c, 1, 60, 89
3, 23368, Note_on_c, 1, 60, 0
3, 23410, Note_on_c, 1, 53, 101
3, 23416, Note_on_c, 1, 62, 90
3, 23556, Note_on_c, 1, 62, 0
3, 23614, Note_on_c, 1, 60, 85
3, 23670, Note_on_c, 1, 60, 0
3, 23698, Note_on_c, 1, 62, 84
3, 23724, Note_on_c, 1, 53, 0
3, 23764, Note_on_c, 1, 62, 0
3, 23798, Note_on_c, 1, 64, 92
3, 23802, Note_on_c, 1, 52, 99
3, 23936, Note_on_c, 1, 64, 0
3, 23994, Note_on_c, 1, 62, 95
3, 24136, Note_on_c, 1, 62, 0
3, 24190, Note_on_c, 1, 60, 91
3, 24330, Note_on_c, 1, 60, 0
3, 24386, Note_on_c, 1, 59, 92
3, 24388, Note_on_c, 1, 52, 0
3, 24508, Note_on_c, 1, 59, 0
3, 24572, Note_on_c, 1, 57, 91
3, 24612, Note_on_c, 1, 57, 0
3, 24658, Note_on_c, 1, 59, 87
3, 24702, Note_on_c, 1, 59, 0
3, 24754, Note_on_c, 1, 57, 94
3, 24756, Note_on_c, 1, 60, 96
3, 24792, Note_on_c, 1, 57, 0
3, 24852, Note_on_c, 1, 55, 90
3, 24890, Note_on_c, 1, 55, 0
3, 24946, Note_on_c, 1, 53, 94
3, 25080, Note_on_c, 1, 53, 0
3, 25080, Note_on_c, 1, 60, 0
3, 25134, Note_on_c, 1, 51, 93
3, 25134, Note_on_c, 1, 61, 97
3, 25276, Note_on_c, 1, 51, 0
3, 25302, Note_on_c, 1, 61, 0
3, 25334, Note_on_c, 1, 50, 103
3, 25350, Note_on_c, 1, 62, 89
3, 25480, Note_on_c, 1, 62, 0
3, 25538, Note_on_c, 1, 50, 0
3, 25538, Note_on_c, 1, 50, 101
3, 25680, Note_on_c, 1, 50, 0
3, 25726, Note_on_c, 1, 52, 95
3, 25858, Note_on_c, 1, 52, 0
3, 25908, Note_on_c, 1, 54, 85
3, 26036, Note_on_c, 1, 54, 0
3, 26102, Note_on_c, 1, 55, 91
3, 26140, Note_on_c, 1, 55, 0
3, 26182, Note_on_c, 1, 57, 85
3, 26226, Note_on_c, 1, 57, 0
3, 26288, Note_on_c, 1, 58, 98
3, 26288, Note_on_c, 1, 55, 94
3, 26330, Note_on_c, 1, 55, 0
3, 26378, Note_on_c, 1, 53, 87
3, 26416, Note_on_c, 1, 53, 0
3, 26482, Note_on_c, 1, 52, 84
3, 26616, Note_on_c, 1, 52, 0
3, 26618, Note_on_c, 1, 58, 0
3, 26676, Note_on_c, 1, 59, 95
3, 26680, Note_on_c, 1, 50, 89
3, 26808, Note_on_c, 1, 50, 0
3, 26830, Note_on_c, 1, 59, 0
3, 26876, Note_on_c, 1, 48, 94
3, 26880, Note_on_c, 1, 60, 90
3, 27018, Note_on_c, 1, 60, 0
3, 27066, Note_on_c, 1, 58, 91
3, 27204, Note_on_c, 1, 48, 0
3, 27218, Note_on_c, 1, 58, 0
3, 27260, Note_on_c, 1, 57, 91
3, 27262, Note_on_c, 1, 50, 95
3, 27396, Note_on_c, 1, 57, 0
3, 27396, Note_on_c, 1, 50, 0
3, 27446, Note_on_c, 1, 55, 92
3, 27456, Note_on_c, 1, 52, 92
3, 27570, Note_on_c, 1, 52, 0
3, 27578, Note_on_c, 1, 55, 0
3, 27634, Note_on_c, 1, 57, 96
3, 27642, Note_on_c, 1, 53, 101
3, 27676, Note_on_c, 1, 57, 0
3, 27726, Note_on_c, 1, 53, 0
3, 27726, Note_on_c, 1, 53, 89
3, 27770, Note_on_c, 1, 53, 0
3, 27818, Note_on_c, 1, 55, 88
3, 27858, Note_on_c, 1, 55, 0
3, 27908, Note_on_c, 1, 57, 82
3, 27958, Note_on_c, 1, 57, 0
3, 28010, Note_on_c, 1, 58, 92
3, 28064, Note_on_c, 1, 58, 0
3, 28108, Note_on_c, 1, 55, 83
3, 28154, Note_on_c, 1, 55, 0
3, 28202, Note_on_c, 1, 57, 83
3, 28238, Note_on_c, 1, 57, 0
3, 28288, Note_on_c, 1, 58, 86
3, 28330, Note_on_c, 1, 58, 0
3, 28396, Note_on_c, 1, 60, 91
3, 28508, Note_on_c, 1, 60, 0
3, 28588, Note_on_c, 1, 55, 95
3, 28594, Note_on_c, 1, 48, 96
3, 28640, Note_on_c, 1, 48, 0
3, 28702, Note_on_c, 1, 55, 0
3, 28788, Note_on_c, 1, 60, 99
3, 28792, Note_on_c, 1, 48, 96
3, 28846, Note_on_c, 1, 48, 0
3, 28980, Note_on_c, 1, 48, 91
3, 29032, Note_on_c, 1, 48, 0
3, 29178, Note_on_c, 1, 50, 99
3, 29224, Note_on_c, 1, 50, 0
3, 29264, Note_on_c, 1, 52, 81
3, 29302, Note_on_c, 1, 52, 0
3, 29306, Note_on_c, 1, 60, 0
3, 29362, Note_on_c, 1, 50, 88
3, 29364, Note_on_c, 1, 58, 87
3, 29400, Note_on_c, 1, 50, 0
3, 29426, Note_on_c, 1, 58, 0
3, 29450, Note_on_c, 1, 48, 81
3, 29454, Note_on_c, 1, 57, 87
3, 29480, Note_on_c, 1, 48, 0
3, 29508, Note_on_c, 1, 57, 0
3, 29550, Note_on_c, 1, 58, 84
3, 29550, Note_on_c, 1, 50, 99
3, 29588, Note_on_c, 1, 50, 0
3, 29598, Note_on_c, 1, 58, 0
3, 29640, Note_on_c, 1, 60, 77
3, 29644, Note_on_c, 1, 52, 76
3, 29680, Note_on_c, 1, 52, 0
3, 29698, Note_on_c, 1, 60, 0
3, 29730, Note_on_c, 1, 57, 82
3, 29742, Note_on_c, 1, 48, 84
3, 29772, Note_on_c, 1, 57, 0
3, 29778, Note_on_c, 1, 48, 0
3, 29818, Note_on_c, 1, 58, 84
3, 29834, Note_on_c, 1, 50, 89
3, 29864, Note_on_c, 1, 50, 0
3, 29880, Note_on_c, 1, 58, 0
3, 29930, Note_on_c, 1, 52, 89
3, 29932, Note_on_c, 1, 55, 96
3, 29970, Note_on_c, 1, 52, 0
3, 30018, Note_on_c, 1, 53, 90
3, 30056, Note_on_c, 1, 53, 0
3, 30078, Note_on_c, 1, 55, 0
3, 30116, Note_on_c, 1, 52, 80
3, 30128, Note_on_c, 1, 57, 87
3, 30146, Note_on_c, 1, 52, 0
3, 30168, Note_on_c, 1, 57, 0
3, 30206, Note_on_c, 1, 50, 89
3, 30212, Note_on_c, 1, 58, 81
3, 30242, Note_on_c, 1, 50, 0
3, 30260, Note_on_c, 1, 58, 0
3, 30304, Note_on_c, 1, 52, 89
3, 30320, Note_on_c, 1, 60, 95
3, 30340, Note_on_c, 1, 52, 0
3, 30394, Note_on_c, 1, 53, 90
3, 30422, Note_on_c, 1, 53, 0
3, 30488, Note_on_c, 1, 50, 89
3, 30520, Note_on_c, 1, 50, 0
3, 30576, Note_on_c, 1, 52, 85
3, 30600, Note_on_c, 1, 52, 0
3, 30654, Note_on_c, 1, 60, 0
3, 30682, Note_on_c, 1, 53, 105
3, 30714, Note_on_c, 1, 53, 0
3, 30714, Note_on_c, 1, 53, 96
3, 30780, Note_on_c, 1, 53, 0
3, 30900, Note_on_c, 1, 55, 84
3, 30954, Note_on_c, 1, 55, 0
3, 30984, Note_on_c, 1, 53, 84
3, 31038, Note_on_c, 1, 53, 0
3, 31078, Note_on_c, 1, 52, 85
3, 31124, Note_on_c, 1, 52, 0
3, 31168, Note_on_c, 1, 50, 81
3, 31224, Note_on_c, 1, 50, 0
3, 31262, Note_on_c, 1, 48, 81
3, 31310, Note_on_c, 1, 48, 0
3, 31354, Note_on_c, 1, 46, 78
3, 31430, Note_on_c, 1, 46, 0
3, 31476, Note_on_c, 1, 45, 103
3, 31598, Note_on_c, 1, 45, 0
3, 31660, Note_on_c, 1, 48, 88
3, 31802, Note_on_c, 1, 48, 0
3, 31858, Note_on_c, 1, 53, 90
3, 31998, Note_on_c, 1, 53, 0
3, 32054, Note_on_c, 1, 51, 83
3, 32174, Note_on_c, 1, 51, 0
3, 32246, Note_on_c, 1, 62, 99
3, 32258, Note_on_c, 1, 50, 83
3, 32324, Note_on_c, 1, 50, 0
3, 32442, Note_on_c, 1, 60, 83
3, 32672, Note_on_c, 1, 62, 0
3, 32754, Note_on_c, 1, 60, 0
3, 32814, Note_on_c, 1, 58, 82
3, 32818, Note_on_c, 1, 62, 92
3, 32868, Note_on_c, 1, 58, 0
3, 32902, Note_on_c, 1, 57, 82
3, 32932, Note_on_c, 1, 62, 0
3, 32958, Note_on_c, 1, 57, 0
3, 33010, Note_on_c, 1, 58, 99
3, 33012, Note_on_c, 1, 55, 83
3, 33070, Note_on_c, 1, 55, 0
3, 33106, Note_on_c, 1, 53, 81
3, 33150, Note_on_c, 1, 53, 0
3, 33202, Note_on_c, 1, 51, 86
3, 33248, Note_on_c, 1, 51, 0
3, 33302, Note_on_c, 1, 50, 83
3, 33354, Note_on_c, 1, 50, 0
3, 33358, Note_on_c, 1, 58, 0
3, 33404, Note_on_c, 1, 48, 74
3, 33410, Note_on_c, 1, 63, 98
3, 33448, Note_on_c, 1, 48, 0
3, 33492, Note_on_c, 1, 50, 82
3, 33542, Note_on_c, 1, 50, 0
3, 33592, Note_on_c, 1, 46, 83
3, 33636, Note_on_c, 1, 46, 0
3, 33686, Note_on_c, 1, 48, 82
3, 33702, Note_on_c, 1, 63, 0
3, 33720, Note_on_c, 1, 48, 0
3, 33790, Note_on_c, 1, 50, 99
3, 33794, Note_on_c, 1, 54, 93
3, 34248, Note_on_c, 1, 50, 0
3, 34284, Note_on_c, 1, 54, 0
3, 34348, Note_on_c, 1, 50, 89
3, 34352, Note_on_c, 1, 54, 89
3, 34390, Note_on_c, 1, 50, 0
3, 34498, Note_on_c, 1, 54, 0
3, 34548, Note_on_c, 1, 43, 88
3, 34554, Note_on_c, 1, 55, 99
3, 34926, Note_on_c, 1, 43, 0
3, 34986, Note_on_c, 1, 55, 0
3, 35134, Note_on_c, 1, 55, 96
3, 35248, Note_on_c, 1, 55, 0
3, 35322, Note_on_c, 1, 57, 108
3, 35818, Note_on_c, 1, 57, 0
3, 35882, Note_on_c, 1, 55, 92
3, 35932, Note_on_c, 1, 55, 0
3, 35974, Note_on_c, 1, 57, 84
3, 36034, Note_on_c, 1, 57, 0
3, 36078, Note_on_c, 1, 58, 92
3, 36226, Note_on_c, 1, 58, 0
3, 36276, Note_on_c, 1, 57, 94
3, 36318, Note_on_c, 1, 57, 0
3, 36360, Note_on_c, 1, 58, 86
3, 36412, Note_on_c, 1, 58, 0
3, 36466, Note_on_c, 1, 60, 95
3, 36606, Note_on_c, 1, 60, 0
3, 36656, Note_on_c, 1, 58, 88
3, 36712, Note_on_c, 1, 58, 0
3, 36746, Note_on_c, 1, 60, 89
3, 36796, Note_on_c, 1, 60, 0
3, 36848, Note_on_c, 1, 62, 91
3, 37000, Note_on_c, 1, 62, 0
3, 37052, Note_on_c, 1, 60, 96
3, 37180, Note_on_c, 1, 60, 0
3, 37234, Note_on_c, 1, 58, 89
3, 37368, Note_on_c, 1, 58, 0
3, 37426, Note_on_c, 1, 57, 99
3, 37562, Note_on_c, 1, 57, 0
3, 37620, Note_on_c, 1, 55, 99
3, 37630, Note_on_c, 1, 55, 0
3, 37630, Note_on_c, 1, 55, 103
3, 37760, Note_on_c, 1, 55, 0
3, 37810, Note_on_c, 1, 65, 91
3, 37958, Note_on_c, 1, 65, 0
3, 38004, Note_on_c, 1, 63, 95
3, 38146, Note_on_c, 1, 63, 0
3, 38192, Note_on_c, 1, 59, 95
3, 38218, Note_on_c, 1, 55, 92
3, 38276, Note_on_c, 1, 55, 0
3, 38332, Note_on_c, 1, 59, 0
3, 38384, Note_on_c, 1, 60, 92
3, 38392, Note_on_c, 1, 51, 105
3, 38530, Note_on_c, 1, 60, 0
3, 38578, Note_on_c, 1, 67, 91
3, 38714, Note_on_c, 1, 51, 0
3, 38722, Note_on_c, 1, 67, 0
3, 38770, Note_on_c, 1, 65, 88
3, 38782, Note_on_c, 1, 56, 99
3, 38826, Note_on_c, 1, 65, 0
3, 38860, Note_on_c, 1, 63, 87
3, 38914, Note_on_c, 1, 63, 0
3, 38954, Note_on_c, 1, 62, 81
3, 39010, Note_on_c, 1, 62, 0
3, 39044, Note_on_c, 1, 60, 74
3, 39056, Note_on_c, 1, 56, 0
3, 39100, Note_on_c, 1, 60, 0
3, 39144, Note_on_c, 1, 62, 88
3, 39164, Note_on_c, 1, 47, 96
3, 39202, Note_on_c, 1, 62, 0
3, 39242, Note_on_c, 1, 60, 84
3, 39298, Note_on_c, 1, 60, 0
3, 39338, Note_on_c, 1, 59, 71
3, 39344, Note_on_c, 1, 60, 65
3, 39356, Note_on_c, 1, 60, 0
3, 39382, Note_on_c, 1, 59, 0
3, 39426, Note_on_c, 1, 57, 84
3, 39498, Note_on_c, 1, 57, 0
3, 39532, Note_on_c, 1, 55, 81
3, 39576, Note_on_c, 1, 55, 0
3, 39586, Note_on_c, 1, 47, 0
3, 39632, Note_on_c, 1, 56, 89
3, 39666, Note_on_c, 1, 56, 0
3, 39724, Note_on_c, 1, 55, 71
3, 39732, Note_on_c, 1, 47, 90
3, 39770, Note_on_c, 1, 55, 0
3, 39782, Note_on_c, 1, 47, 0
3, 39818, Note_on_c, 1, 53, 89
3, 39870, Note_on_c, 1, 53, 0
3, 39924, Note_on_c, 1, 51, 95
3, 39924, Note_on_c, 1, 48, 101
3, 40044, Note_on_c, 1, 51, 0
3, 40106, Note_on_c, 1, 48, 0
3, 40106, Note_on_c, 1, 48, 94
3, 40206, Note_on_c, 1, 48, 0
3, 40304, Note_on_c, 1, 56, 101
3, 40502, Note_on_c, 1, 48, 90
3, 40542, Note_on_c, 1, 48, 0
3, 40696, Note_on_c, 1, 50, 95
3, 40784, Note_on_c, 1, 56, 0
3, 40882, Note_on_c, 1, 53, 105
3, 40968, Note_on_c, 1, 53, 0
3, 41068, Note_on_c, 1, 58, 100
3, 41170, Note_on_c, 1, 50, 0
3, 41272, Note_on_c, 1, 48, 88
3, 41308, Note_on_c, 1, 48, 0
3, 41364, Note_on_c, 1, 50, 85
3, 41408, Note_on_c, 1, 50, 0
3, 41458, Note_on_c, 1, 51, 99
3, 41602, Note_on_c, 1, 51, 0
3, 41654, Note_on_c, 1, 50, 90
3, 41692, Note_on_c, 1, 50, 0
3, 41738, Note_on_c, 1, 51, 91
3, 41780, Note_on_c, 1, 51, 0
3, 41800, Note_on_c, 1, 58, 0
3, 41836, Note_on_c, 1, 53, 95
3, 41846, Note_on_c, 1, 56, 100
3, 41978, Note_on_c, 1, 53, 0
3, 42032, Note_on_c, 1, 51, 86
3, 42078, Note_on_c, 1, 51, 0
3, 42124, Note_on_c, 1, 53, 88
3, 42158, Note_on_c, 1, 53, 0
3, 42186, Note_on_c, 1, 56, 0
3, 42222, Note_on_c, 1, 55, 95
3, 42242, Note_on_c, 1, 55, 0
3, 42242, Note_on_c, 1, 55, 99
3, 42346, Note_on_c, 1, 55, 0
3, 42424, Note_on_c, 1, 53, 94
3, 42426, Note_on_c, 1, 57, 89
3, 42466, Note_on_c, 1, 57, 0
3, 42514, Note_on_c, 1, 59, 89
3, 42552, Note_on_c, 1, 53, 0
3, 42560, Note_on_c, 1, 59, 0
3, 42608, Note_on_c, 1, 51, 92
3, 42618, Note_on_c, 1, 60, 95
3, 42742, Note_on_c, 1, 60, 0
3, 42742, Note_on_c, 1, 51, 0
3, 42800, Note_on_c, 1, 62, 89
3, 42806, Note_on_c, 1, 50, 90
3, 42950, Note_on_c, 1, 50, 0
3, 42952, Note_on_c, 1, 62, 0
3, 43002, Note_on_c, 1, 63, 93
3, 43002, Note_on_c, 1, 48, 94
3, 43060, Note_on_c, 1, 63, 0
3, 43086, Note_on_c, 1, 62, 75
3, 43142, Note_on_c, 1, 62, 0
3, 43142, Note_on_c, 1, 48, 0
3, 43182, Note_on_c, 1, 60, 82
3, 43200, Note_on_c, 1, 50, 88
3, 43228, Note_on_c, 1, 60, 0
3, 43238, Note_on_c, 1, 50, 0
3, 43264, Note_on_c, 1, 58, 87
3, 43288, Note_on_c, 1, 51, 84
3, 43318, Note_on_c, 1, 58, 0
3, 43324, Note_on_c, 1, 51, 0
3, 43366, Note_on_c, 1, 57, 99
3, 43384, Note_on_c, 1, 53, 99
3, 43500, Note_on_c, 1, 57, 0
3, 43558, Note_on_c, 1, 58, 94
3, 43874, Note_on_c, 1, 53, 0
3, 43904, Note_on_c, 1, 58, 0
3, 43968, Note_on_c, 1, 51, 93
3, 43968, Note_on_c, 1, 57, 105
3, 44106, Note_on_c, 1, 57, 0
3, 44110, Note_on_c, 1, 51, 0
3, 44162, Note_on_c, 1, 58, 90
3, 44164, Note_on_c, 1, 50, 88
3, 44280, Note_on_c, 1, 50, 0
3, 44290, Note_on_c, 1, 58, 0
3, 44348, Note_on_c, 1, 60, 92
3, 44352, Note_on_c, 1, 48, 88
3, 44456, Note_on_c, 1, 60, 0
3, 44480, Note_on_c, 1, 48, 0
3, 44536, Note_on_c, 1, 62, 99
3, 44538, Note_on_c, 1, 46, 97
3, 44656, Note_on_c, 1, 62, 0
3, 44660, Note_on_c, 1, 46, 0
3, 44740, Note_on_c, 1, 55, 88
3, 44788, Note_on_c, 1, 55, 0
3, 44830, Note_on_c, 1, 53, 89
3, 44876, Note_on_c, 1, 53, 0
3, 44924, Note_on_c, 1, 51, 88
3, 44972, Note_on_c, 1, 51, 0
3, 45026, Note_on_c, 1, 48, 89
3, 45070, Note_on_c, 1, 48, 0
3, 45114, Note_on_c, 1, 50, 90
3, 45152, Note_on_c, 1, 50, 0
3, 45198, Note_on_c, 1, 51, 88
3, 45244, Note_on_c, 1, 51, 0
3, 45300, Note_on_c, 1, 53, 101
3, 45494, Note_on_c, 1, 53, 0
3, 45494, Note_on_c, 1, 53, 101
3, 45584, Note_on_c, 1, 53, 0
3, 45692, Note_on_c, 1, 53, 95
3, 45766, Note_on_c, 1, 53, 0
3, 45884, Note_on_c, 1, 53, 91
3, 46000, Note_on_c, 1, 53, 0
3, 46076, Note_on_c, 1, 55, 95
3, 46146, Note_on_c, 1, 55, 0
3, 46168, Note_on_c, 1, 57, 83
3, 46216, Note_on_c, 1, 57, 0
3, 46264, Note_on_c, 1, 55, 87
3, 46314, Note_on_c, 1, 55, 0
3, 46346, Note_on_c, 1, 53, 84
3, 46400, Note_on_c, 1, 53, 0
3, 46444, Note_on_c, 1, 55, 89
3, 46498, Note_on_c, 1, 55, 0
3, 46536, Note_on_c, 1, 57, 87
3, 46582, Note_on_c, 1, 57, 0
3, 46634, Note_on_c, 1, 53, 89
3, 46684, Note_on_c, 1, 53, 0
3, 46724, Note_on_c, 1, 55, 88
3, 46778, Note_on_c, 1, 55, 0
3, 46824, Note_on_c, 1, 57, 90
3, 46836, Note_on_c, 1, 53, 103
3, 46870, Note_on_c, 1, 57, 0
3, 46916, Note_on_c, 1, 58, 87
3, 46968, Note_on_c, 1, 58, 0
3, 47012, Note_on_c, 1, 57, 92
3, 47062, Note_on_c, 1, 57, 0
3, 47102, Note_on_c, 1, 55, 83
3, 47152, Note_on_c, 1, 55, 0
3, 47200, Note_on_c, 1, 57, 92
3, 47246, Note_on_c, 1, 57, 0
3, 47290, Note_on_c, 1, 58, 89
3, 47326, Note_on_c, 1, 53, 0
3, 47342, Note_on_c, 1, 58, 0
3, 47396, Note_on_c, 1, 55, 83
3, 47412, Note_on_c, 1, 53, 94
3, 47438, Note_on_c, 1, 55, 0
3, 47486, Note_on_c, 1, 57, 76
3, 47530, Note_on_c, 1, 57, 0
3, 47530, Note_on_c, 1, 53, 0
3, 47590, Note_on_c, 1, 58, 97
3, 47602, Note_on_c, 1, 50, 108
3, 47766, Note_on_c, 1, 58, 0
3, 47926, Note_on_c, 1, 50, 0
3, 47996, Note_on_c, 1, 55, 94
3, 48306, Note_on_c, 1, 55, 0
3, 48378, Note_on_c, 1, 45, 101
3, 48570, Note_on_c, 1, 60, 96
3, 48688, Note_on_c, 1, 60, 0
3, 48762, Note_on_c, 1, 60, 92
3, 48798, Note_on_c, 1, 45, 0
3, 48886, Note_on_c, 1, 60, 0
3, 48956, Note_on_c, 1, 60, 91
3, 48956, Note_on_c, 1, 45, 91
3, 49054, Note_on_c, 1, 45, 0
3, 49088, Note_on_c, 1, 60, 0
3, 49136, Note_on_c, 1, 46, 98
3, 49142, Note_on_c, 1, 62, 87
3, 49206, Note_on_c, 1, 62, 0
3, 49240, Note_on_c, 1, 63, 93
3, 49300, Note_on_c, 1, 63, 0
3, 49338, Note_on_c, 1, 62, 80
3, 49388, Note_on_c, 1, 62, 0
3, 49424, Note_on_c, 1, 60, 85
3, 49478, Note_on_c, 1, 60, 0
3, 49520, Note_on_c, 1, 62, 85
3, 49544, Note_on_c, 1, 46, 0
3, 49572, Note_on_c, 1, 62, 0
3, 49606, Note_on_c, 1, 63, 90
3, 49670, Note_on_c, 1, 63, 0
3, 49708, Note_on_c, 1, 60, 90
3, 49718, Note_on_c, 1, 46, 97
3, 49758, Note_on_c, 1, 60, 0
3, 49780, Note_on_c, 1, 46, 0
3, 49800, Note_on_c, 1, 62, 83
3, 49848, Note_on_c, 1, 62, 0
3, 49896, Note_on_c, 1, 63, 93
3, 49908, Note_on_c, 1, 48, 95
3, 49966, Note_on_c, 1, 63, 0
3, 49990, Note_on_c, 1, 65, 81
3, 50034, Note_on_c, 1, 65, 0
3, 50086, Note_on_c, 1, 63, 90
3, 50144, Note_on_c, 1, 63, 0
3, 50172, Note_on_c, 1, 62, 80
3, 50220, Note_on_c, 1, 62, 0
3, 50270, Note_on_c, 1, 63, 92
3, 50328, Note_on_c, 1, 63, 0
3, 50362, Note_on_c, 1, 65, 78
3, 50368, Note_on_c, 1, 48, 0
3, 50408, Note_on_c, 1, 65, 0
3, 50456, Note_on_c, 1, 46, 89
3, 50462, Note_on_c, 1, 62, 82
3, 50506, Note_on_c, 1, 46, 0
3, 50514, Note_on_c, 1, 62, 0
3, 50550, Note_on_c, 1, 48, 81
3, 50558, Note_on_c, 1, 63, 89
3, 50594, Note_on_c, 1, 48, 0
3, 50604, Note_on_c, 1, 63, 0
3, 50656, Note_on_c, 1, 50, 91
3, 50666, Note_on_c, 1, 65, 88
3, 50706, Note_on_c, 1, 50, 0
3, 50796, Note_on_c, 1, 65, 0
3, 50854, Note_on_c, 1, 58, 92
3, 50864, Note_on_c, 1, 62, 92
3, 50902, Note_on_c, 1, 58, 0
3, 50942, Note_on_c, 1, 57, 89
3, 50990, Note_on_c, 1, 57, 0
3, 50990, Note_on_c, 1, 62, 0
3, 51044, Note_on_c, 1, 55, 91
3, 51058, Note_on_c, 1, 64, 99
3, 51176, Note_on_c, 1, 64, 0
3, 51176, Note_on_c, 1, 55, 0
3, 51238, Note_on_c, 1, 53, 92
3, 51258, Note_on_c, 1, 65, 94
3, 51368, Note_on_c, 1, 53, 0
3, 51388, Note_on_c, 1, 65, 0
3, 51440, Note_on_c, 1, 52, 91
3, 51452, Note_on_c, 1, 67, 103
3, 51552, Note_on_c, 1, 52, 0
3, 51634, Note_on_c, 1, 55, 81
3, 51738, Note_on_c, 1, 55, 0
3, 51776, Note_on_c, 1, 67, 0
3, 51822, Note_on_c, 1, 48, 96
3, 51838, Note_on_c, 1, 65, 94
3, 51976, Note_on_c, 1, 65, 0
3, 52032, Note_on_c, 1, 64, 94
3, 52150, Note_on_c, 1, 64, 0
3, 52188, Note_on_c, 1, 48, 0
3, 52218, Note_on_c, 1, 65, 95
3, 52344, Note_on_c, 1, 65, 0
3, 52408, Note_on_c, 1, 53, 95
3, 52552, Note_on_c, 1, 53, 0
3, 52600, Note_on_c, 1, 58, 92
3, 52740, Note_on_c, 1, 58, 0
3, 52786, Note_on_c, 1, 55, 91
3, 52924, Note_on_c, 1, 55, 0
3, 52986, Note_on_c, 1, 60, 96
3, 53172, Note_on_c, 1, 48, 101
3, 53208, Note_on_c, 1, 60, 0
3, 53284, Note_on_c, 1, 48, 0
3, 53366, Note_on_c, 1, 48, 91
3, 53492, Note_on_c, 1, 48, 0
3, 53562, Note_on_c, 1, 48, 88
3, 53698, Note_on_c, 1, 48, 0
3, 53752, Note_on_c, 1, 49, 93
3, 53802, Note_on_c, 1, 49, 0
3, 53838, Note_on_c, 1, 51, 84
3, 53886, Note_on_c, 1, 51, 0
3, 53930, Note_on_c, 1, 49, 84
3, 53974, Note_on_c, 1, 49, 0
3, 54016, Note_on_c, 1, 48, 87
3, 54066, Note_on_c, 1, 48, 0
3, 54118, Note_on_c, 1, 50, 90
3, 54160, Note_on_c, 1, 50, 0
3, 54204, Note_on_c, 1, 51, 88
3, 54256, Note_on_c, 1, 51, 0
3, 54302, Note_on_c, 1, 48, 74
3, 54362, Note_on_c, 1, 48, 0
3, 54394, Note_on_c, 1, 50, 90
3, 54440, Note_on_c, 1, 50, 0
3, 54494, Note_on_c, 1, 51, 87
3, 54540, Note_on_c, 1, 51, 0
3, 54584, Note_on_c, 1, 53, 84
3, 54638, Note_on_c, 1, 53, 0
3, 54690, Note_on_c, 1, 50, 87
3, 54716, Note_on_c, 1, 55, 99
3, 54738, Note_on_c, 1, 50, 0
3, 54782, Note_on_c, 1, 51, 86
3, 54830, Note_on_c, 1, 51, 0
3, 54846, Note_on_c, 1, 55, 0
3, 54888, Note_on_c, 1, 52, 91
3, 54916, Note_on_c, 1, 55, 95
3, 54942, Note_on_c, 1, 52, 0
3, 54984, Note_on_c, 1, 53, 83
3, 55032, Note_on_c, 1, 53, 0
3, 55040, Note_on_c, 1, 55, 0
3, 55084, Note_on_c, 1, 50, 90
3, 55108, Note_on_c, 1, 55, 92
3, 55134, Note_on_c, 1, 50, 0
3, 55184, Note_on_c, 1, 52, 85
3, 55216, Note_on_c, 1, 52, 0
3, 55238, Note_on_c, 1, 55, 0
3, 55282, Note_on_c, 1, 53, 99
3, 55290, Note_on_c, 1, 56, 94
3, 55356, Note_on_c, 1, 56, 0
3, 55380, Note_on_c, 1, 58, 84
3, 55404, Note_on_c, 1, 53, 0
3, 55430, Note_on_c, 1, 58, 0
3, 55474, Note_on_c, 1, 56, 84
3, 55474, Note_on_c, 1, 48, 95
3, 55534, Note_on_c, 1, 56, 0
3, 55562, Note_on_c, 1, 55, 81
3, 55576, Note_on_c, 1, 48, 0
3, 55638, Note_on_c, 1, 55, 0
3, 55664, Note_on_c, 1, 57, 91
3, 55670, Note_on_c, 1, 53, 101
3, 55720, Note_on_c, 1, 57, 0
3, 55746, Note_on_c, 1, 58, 85
3, 55792, Note_on_c, 1, 53, 0
3, 55806, Note_on_c, 1, 58, 0
3, 55846, Note_on_c, 1, 55, 75
3, 55862, Note_on_c, 1, 51, 90
3, 55908, Note_on_c, 1, 55, 0
3, 55942, Note_on_c, 1, 57, 83
3, 55974, Note_on_c, 1, 51, 0
3, 55986, Note_on_c, 1, 57, 0
3, 56038, Note_on_c, 1, 50, 89
3, 56042, Note_on_c, 1, 58, 90
3, 56108, Note_on_c, 1, 58, 0
3, 56136, Note_on_c, 1, 60, 80
3, 56162, Note_on_c, 1, 50, 0
3, 56184, Note_on_c, 1, 60, 0
3, 56232, Note_on_c, 1, 43, 89
3, 56238, Note_on_c, 1, 58, 81
3, 56290, Note_on_c, 1, 58, 0
3, 56334, Note_on_c, 1, 57, 94
3, 56360, Note_on_c, 1, 43, 0
3, 56384, Note_on_c, 1, 57, 0
3, 56430, Note_on_c, 1, 55, 92
3, 56432, Note_on_c, 1, 59, 87
3, 56478, Note_on_c, 1, 59, 0
3, 56522, Note_on_c, 1, 60, 89
3, 56562, Note_on_c, 1, 55, 0
3, 56568, Note_on_c, 1, 60, 0
3, 56620, Note_on_c, 1, 57, 94
3, 56630, Note_on_c, 1, 53, 95
3, 56660, Note_on_c, 1, 57, 0
3, 56714, Note_on_c, 1, 59, 83
3, 56752, Note_on_c, 1, 53, 0
3, 56754, Note_on_c, 1, 59, 0
3, 56816, Note_on_c, 1, 51, 100
3, 56820, Note_on_c, 1, 60, 99
3, 56928, Note_on_c, 1, 60, 0
3, 57014, Note_on_c, 1, 55, 99
3, 57032, Note_on_c, 1, 51, 0
3, 57142, Note_on_c, 1, 55, 0
3, 57206, Note_on_c, 1, 60, 91
3, 57326, Note_on_c, 1, 60, 0
3, 57394, Note_on_c, 1, 58, 85
3, 57530, Note_on_c, 1, 58, 0
3, 57592, Note_on_c, 1, 57, 92
3, 57660, Note_on_c, 1, 57, 0
3, 57788, Note_on_c, 1, 50, 94
3, 57912, Note_on_c, 1, 50, 0
3, 57974, Note_on_c, 1, 62, 92
3, 58096, Note_on_c, 1, 62, 0
3, 58172, Note_on_c, 1, 60, 89
3, 58304, Note_on_c, 1, 60, 0
3, 58364, Note_on_c, 1, 58, 100
3, 58568, Note_on_c, 1, 58, 0
3, 59320, Note_on_c, 1, 55, 96
3, 59326, Note_on_c, 1, 52, 92
3, 59438, Note_on_c, 1, 55, 0
3, 59454, Note_on_c, 1, 52, 0
3, 59518, Note_on_c, 1, 55, 94
3, 59526, Note_on_c, 1, 52, 90
3, 59638, Note_on_c, 1, 55, 0
3, 59648, Note_on_c, 1, 52, 0
3, 59702, Note_on_c, 1, 57, 99
3, 59714, Note_on_c, 1, 52, 89
3, 59812, Note_on_c, 1, 57, 0
3, 59840, Note_on_c, 1, 52, 0
3, 59898, Note_on_c, 1, 57, 108
3, 59902, Note_on_c, 1, 53, 84
3, 59956, Note_on_c, 1, 53, 0
3, 59998, Note_on_c, 1, 55, 85
3, 60040, Note_on_c, 1, 55, 0
3, 60084, Note_on_c, 1, 53, 88
3, 60114, Note_on_c, 1, 53, 0
3, 60182, Note_on_c, 1, 52, 82
3, 60200, Note_on_c, 1, 57, 0
3, 60232, Note_on_c, 1, 52, 0
3, 60280, Note_on_c, 1, 54, 84
3, 60284, Note_on_c, 1, 57, 103
3, 60334, Note_on_c, 1, 54, 0
3, 60366, Note_on_c, 1, 55, 79
3, 60416, Note_on_c, 1, 55, 0
3, 60466, Note_on_c, 1, 52, 82
3, 60500, Note_on_c, 1, 57, 0
3, 60518, Note_on_c, 1, 52, 0
3, 60562, Note_on_c, 1, 54, 84
3, 60576, Note_on_c, 1, 57, 95
3, 60600, Note_on_c, 1, 57, 0
3, 60610, Note_on_c, 1, 54, 0
3, 60662, Note_on_c, 1, 55, 91
3, 60672, Note_on_c, 1, 59, 88
3, 60710, Note_on_c, 1, 55, 0
3, 60754, Note_on_c, 1, 57, 85
3, 60802, Note_on_c, 1, 57, 0
3, 60848, Note_on_c, 1, 55, 85
3, 60888, Note_on_c, 1, 55, 0
3, 60932, Note_on_c, 1, 54, 79
3, 60950, Note_on_c, 1, 59, 0
3, 60982, Note_on_c, 1, 54, 0
3, 61034, Note_on_c, 1, 56, 93
3, 61050, Note_on_c, 1, 59, 95
3, 61088, Note_on_c, 1, 56, 0
3, 61126, Note_on_c, 1, 57, 83
3, 61170, Note_on_c, 1, 57, 0
3, 61226, Note_on_c, 1, 54, 81
3, 61270, Note_on_c, 1, 54, 0
3, 61270, Note_on_c, 1, 59, 0
3, 61324, Note_on_c, 1, 56, 89
3, 61346, Note_on_c, 1, 59, 90
3, 61366, Note_on_c, 1, 56, 0
3, 61394, Note_on_c, 1, 59, 0
3, 61434, Note_on_c, 1, 57, 110
3, 61444, Note_on_c, 1, 61, 90
3, 61520, Note_on_c, 1, 57, 0
3, 61570, Note_on_c, 1, 61, 0
3, 61624, Note_on_c, 1, 57, 94
3, 61630, Note_on_c, 1, 57, 0
3, 61630, Note_on_c, 1, 57, 103
3, 61766, Note_on_c, 1, 57, 0
3, 61816, Note_on_c, 1, 59, 89
3, 61934, Note_on_c, 1, 59, 0
3, 62006, Note_on_c, 1, 61, 90
3, 62006, Note_on_c, 1, 57, 90
3, 62126, Note_on_c, 1, 57, 0
3, 62132, Note_on_c, 1, 61, 0
3, 62202, Note_on_c, 1, 53, 101
3, 62208, Note_on_c, 1, 62, 89
3, 62498, Note_on_c, 1, 53, 0
3, 62570, Note_on_c, 1, 58, 98
3, 62690, Note_on_c, 1, 62, 0
3, 62770, Note_on_c, 1, 62, 91
3, 62902, Note_on_c, 1, 62, 0
3, 62910, Note_on_c, 1, 58, 0
3, 62968, Note_on_c, 1, 49, 98
3, 62972, Note_on_c, 1, 64, 92
3, 63290, Note_on_c, 1, 64, 0
3, 63350, Note_on_c, 1, 57, 99
3, 63390, Note_on_c, 1, 49, 0
3, 63538, Note_on_c, 1, 49, 94
3, 63660, Note_on_c, 1, 49, 0
3, 63736, Note_on_c, 1, 50, 101
3, 63850, Note_on_c, 1, 57, 0
3, 63914, Note_on_c, 1, 53, 92
3, 64052, Note_on_c, 1, 53, 0
3, 64116, Note_on_c, 1, 58, 95
3, 64184, Note_on_c, 1, 50, 0
3, 64316, Note_on_c, 1, 50, 96
3, 64434, Note_on_c, 1, 50, 0
3, 64502, Note_on_c, 1, 52, 99
3, 64566, Note_on_c, 1, 58, 0
3, 64692, Note_on_c, 1, 55, 90
3, 64826, Note_on_c, 1, 55, 0
3, 64888, Note_on_c, 1, 64, 95
3, 64982, Note_on_c, 1, 52, 0
3, 65024, Note_on_c, 1, 64, 0
3, 65076, Note_on_c, 1, 64, 92
3, 65082, Note_on_c, 1, 50, 82
3, 65120, Note_on_c, 1, 50, 0
3, 65172, Note_on_c, 1, 52, 81
3, 65210, Note_on_c, 1, 52, 0
3, 65218, Note_on_c, 1, 64, 0
3, 65258, Note_on_c, 1, 53, 92
3, 65268, Note_on_c, 1, 62, 88
3, 65404, Note_on_c, 1, 53, 0
3, 65412, Note_on_c, 1, 62, 0
3, 65460, Note_on_c, 1, 61, 83
3, 65460, Note_on_c, 1, 52, 84
3, 65504, Note_on_c, 1, 52, 0
3, 65520, Note_on_c, 1, 61, 0
3, 65546, Note_on_c, 1, 53, 85
3, 65552, Note_on_c, 1, 62, 84
3, 65584, Note_on_c, 1, 53, 0
3, 65612, Note_on_c, 1, 62, 0
3, 65648, Note_on_c, 1, 55, 89
3, 65648, Note_on_c, 1, 64, 87
3, 65706, Note_on_c, 1, 64, 0
3, 65736, Note_on_c, 1, 65, 82
3, 65784, Note_on_c, 1, 55, 0
3, 65794, Note_on_c, 1, 65, 0
3, 65832, Note_on_c, 1, 67, 90
3, 65836, Note_on_c, 1, 53, 85
3, 65874, Note_on_c, 1, 67, 0
3, 65876, Note_on_c, 1, 53, 0
3, 65922, Note_on_c, 1, 65, 80
3, 65924, Note_on_c, 1, 55, 85
3, 65966, Note_on_c, 1, 55, 0
3, 65982, Note_on_c, 1, 65, 0
3, 66024, Note_on_c, 1, 57, 94
3, 66032, Note_on_c, 1, 64, 94
3, 66158, Note_on_c, 1, 57, 0
3, 66170, Note_on_c, 1, 64, 0
3, 66214, Note_on_c, 1, 58, 83
3, 66228, Note_on_c, 1, 62, 90
3, 66260, Note_on_c, 1, 58, 0
3, 66300, Note_on_c, 1, 57, 87
3, 66350, Note_on_c, 1, 57, 0
3, 66366, Note_on_c, 1, 62, 0
3, 66400, Note_on_c, 1, 55, 88
3, 66426, Note_on_c, 1, 61, 93
3, 66448, Note_on_c, 1, 55, 0
3, 66498, Note_on_c, 1, 53, 84
3, 66534, Note_on_c, 1, 53, 0
3, 66594, Note_on_c, 1, 52, 80
3, 66640, Note_on_c, 1, 52, 0
3, 66652, Note_on_c, 1, 61, 0
3, 66690, Note_on_c, 1, 50, 89
3, 66704, Note_on_c, 1, 62, 87
3, 66736, Note_on_c, 1, 50, 0
3, 66752, Note_on_c, 1, 62, 0
3, 66792, Note_on_c, 1, 49, 97
3, 66806, Note_on_c, 1, 64, 94
3, 67092, Note_on_c, 1, 64, 0
3, 67128, Note_on_c, 1, 49, 0
3, 67182, Note_on_c, 1, 57, 101
3, 67192, Note_on_c, 1, 50, 91
3, 67324, Note_on_c, 1, 50, 0
3, 67328, Note_on_c, 1, 57, 0
3, 67384, Note_on_c, 1, 61, 81
3, 67384, Note_on_c, 1, 57, 94
3, 67516, Note_on_c, 1, 57, 0
3, 67520, Note_on_c, 1, 61, 0
3, 67578, Note_on_c, 1, 62, 91
3, 67584, Note_on_c, 1, 58, 105
3, 67718, Note_on_c, 1, 62, 0
3, 67768, Note_on_c, 1, 65, 91
3, 67918, Note_on_c, 1, 65, 0
3, 67966, Note_on_c, 1, 64, 91
3, 68048, Note_on_c, 1, 58, 0
3, 68102, Note_on_c, 1, 64, 0
3, 68142, Note_on_c, 1, 62, 83
3, 68152, Note_on_c, 1, 58, 98
3, 68280, Note_on_c, 1, 62, 0
3, 68288, Note_on_c, 1, 58, 0
3, 68336, Note_on_c, 1, 64, 90
3, 68350, Note_on_c, 1, 57, 99
3, 68474, Note_on_c, 1, 64, 0
3, 68530, Note_on_c, 1, 57, 0
3, 68530, Note_on_c, 1, 57, 96
3, 68558, Note_on_c, 1, 57, 0
3, 68726, Note_on_c, 1, 59, 91
3, 68870, Note_on_c, 1, 59, 0
3, 68918, Note_on_c, 1, 61, 90
3, 69064, Note_on_c, 1, 61, 0
3, 69112, Note_on_c, 1, 62, 84
3, 69256, Note_on_c, 1, 62, 0
3, 69312, Note_on_c, 1, 50, 91
3, 69454, Note_on_c, 1, 50, 0
3, 69498, Note_on_c, 1, 55, 94
3, 69632, Note_on_c, 1, 55, 0
3, 69678, Note_on_c, 1, 52, 94
3, 69822, Note_on_c, 1, 52, 0
3, 69872, Note_on_c, 1, 57, 99
3, 70010, Note_on_c, 1, 57, 0
3, 70070, Note_on_c, 1, 58, 95
3, 70072, Note_on_c, 1, 45, 105
3, 70200, Note_on_c, 1, 45, 0
3, 70218, Note_on_c, 1, 58, 0
3, 70266, Note_on_c, 1, 57, 95
3, 70266, Note_on_c, 1, 45, 96
3, 70400, Note_on_c, 1, 45, 0
3, 70402, Note_on_c, 1, 57, 0
3, 70452, Note_on_c, 1, 55, 94
3, 70452, Note_on_c, 1, 45, 94
3, 70584, Note_on_c, 1, 45, 0
3, 70612, Note_on_c, 1, 55, 0
3, 70640, Note_on_c, 1, 46, 99
3, 70654, Note_on_c, 1, 53, 99
3, 70694, Note_on_c, 1, 46, 0
3, 70732, Note_on_c, 1, 48, 82
3, 70776, Note_on_c, 1, 48, 0
3, 70784, Note_on_c, 1, 53, 0
3, 70822, Note_on_c, 1, 46, 89
3, 70842, Note_on_c, 1, 50, 96
3, 70870, Note_on_c, 1, 46, 0
3, 70912, Note_on_c, 1, 45, 89
3, 70960, Note_on_c, 1, 45, 0
3, 70976, Note_on_c, 1, 50, 0
3, 71016, Note_on_c, 1, 47, 90
3, 71036, Note_on_c, 1, 55, 95
3, 71074, Note_on_c, 1, 47, 0
3, 71114, Note_on_c, 1, 48, 81
3, 71166, Note_on_c, 1, 48, 0
3, 71178, Note_on_c, 1, 55, 0
3, 71216, Note_on_c, 1, 45, 90
3, 71226, Note_on_c, 1, 53, 94
3, 71266, Note_on_c, 1, 45, 0
3, 71306, Note_on_c, 1, 47, 87
3, 71352, Note_on_c, 1, 47, 0
3, 71366, Note_on_c, 1, 53, 0
3, 71408, Note_on_c, 1, 48, 91
3, 71408, Note_on_c, 1, 52, 88
3, 71460, Note_on_c, 1, 48, 0
3, 71494, Note_on_c, 1, 50, 87
3, 71542, Note_on_c, 1, 50, 0
3, 71562, Note_on_c, 1, 52, 0
3, 71588, Note_on_c, 1, 48, 88
3, 71602, Note_on_c, 1, 48, 0
3, 71602, Note_on_c, 1, 48, 87
3, 71630, Note_on_c, 1, 48, 0
3, 71678, Note_on_c, 1, 47, 87
3, 71726, Note_on_c, 1, 47, 0
3, 71778, Note_on_c, 1, 49, 93
3, 71794, Note_on_c, 1, 57, 96
3, 71836, Note_on_c, 1, 49, 0
3, 71870, Note_on_c, 1, 50, 82
3, 71916, Note_on_c, 1, 50, 0
3, 71936, Note_on_c, 1, 57, 0
3, 71972, Note_on_c, 1, 47, 91
3, 71998, Note_on_c, 1, 57, 105
3, 72018, Note_on_c, 1, 47, 0
3, 72066, Note_on_c, 1, 49, 90
3, 72112, Note_on_c, 1, 49, 0
3, 72114, Note_on_c, 1, 57, 0
3, 72172, Note_on_c, 1, 50, 105
3, 72180, Note_on_c, 1, 53, 105
3, 72294, Note_on_c, 1, 50, 0
3, 72378, Note_on_c, 1, 50, 110
3, 72476, Note_on_c, 1, 53, 0
3, 72504, Note_on_c, 1, 50, 0
3, 72562, Note_on_c, 1, 55, 94
3, 72570, Note_on_c, 1, 62, 101
3, 72682, Note_on_c, 1, 55, 0
3, 72754, Note_on_c, 1, 53, 96
3, 72864, Note_on_c, 1, 53, 0
3, 72878, Note_on_c, 1, 62, 0
3, 72944, Note_on_c, 1, 52, 91
3, 72964, Note_on_c, 1, 55, 105
3, 73068, Note_on_c, 1, 52, 0
3, 73144, Note_on_c, 1, 52, 95
3, 73232, Note_on_c, 1, 55, 0
3, 73270, Note_on_c, 1, 52, 0
3, 73330, Note_on_c, 1, 57, 99
3, 73460, Note_on_c, 1, 57, 0
3, 73522, Note_on_c, 1, 55, 94
3, 73642, Note_on_c, 1, 55, 0
3, 73710, Note_on_c, 1, 53, 105
3, 73918, Note_on_c, 1, 57, 101
3, 73920, Note_on_c, 1, 53, 0
3, 74058, Note_on_c, 1, 57, 0
3, 74110, Note_on_c, 1, 62, 91
3, 74254, Note_on_c, 1, 62, 0
3, 74308, Note_on_c, 1, 60, 95
3, 74434, Note_on_c, 1, 60, 0
3, 74494, Note_on_c, 1, 59, 95
3, 74642, Note_on_c, 1, 59, 0
3, 74690, Note_on_c, 1, 59, 95
3, 74814, Note_on_c, 1, 59, 0
3, 74878, Note_on_c, 1, 64, 95
3, 75018, Note_on_c, 1, 64, 0
3, 75058, Note_on_c, 1, 52, 94
3, 75068, Note_on_c, 1, 62, 90
3, 75192, Note_on_c, 1, 52, 0
3, 75200, Note_on_c, 1, 62, 0
3, 75260, Note_on_c, 1, 60, 99
3, 75268, Note_on_c, 1, 57, 103
3, 75396, Note_on_c, 1, 57, 0
3, 75458, Note_on_c, 1, 45, 92
3, 75550, Note_on_c, 1, 60, 0
3, 75584, Note_on_c, 1, 45, 0
3, 75638, Note_on_c, 1, 62, 95
3, 75644, Note_on_c, 1, 50, 101
3, 75786, Note_on_c, 1, 50, 0
3, 75830, Note_on_c, 1, 48, 91
3, 75854, Note_on_c, 1, 62, 0
3, 75932, Note_on_c, 1, 62, 89
3, 75966, Note_on_c, 1, 48, 0
3, 75970, Note_on_c, 1, 62, 0
3, 76030, Note_on_c, 1, 47, 101
3, 76034, Note_on_c, 1, 62, 95
3, 76144, Note_on_c, 1, 47, 0
3, 76206, Note_on_c, 1, 47, 96
3, 76322, Note_on_c, 1, 62, 0
3, 76348, Note_on_c, 1, 47, 0
3, 76402, Note_on_c, 1, 52, 91
3, 76416, Note_on_c, 1, 64, 99
3, 76536, Note_on_c, 1, 52, 0
3, 76598, Note_on_c, 1, 50, 96
3, 76626, Note_on_c, 1, 64, 0
3, 76698, Note_on_c, 1, 64, 90
3, 76730, Note_on_c, 1, 50, 0
3, 76742, Note_on_c, 1, 64, 0
3, 76784, Note_on_c, 1, 49, 92
3, 76804, Note_on_c, 1, 64, 96
3, 76928, Note_on_c, 1, 49, 0
3, 76992, Note_on_c, 1, 57, 99
3, 77120, Note_on_c, 1, 57, 0
3, 77134, Note_on_c, 1, 64, 0
3, 77178, Note_on_c, 1, 58, 95
3, 77180, Note_on_c, 1, 62, 94
3, 77296, Note_on_c, 1, 58, 0
3, 77336, Note_on_c, 1, 62, 0
3, 77368, Note_on_c, 1, 55, 92
3, 77372, Note_on_c, 1, 65, 92
3, 77486, Note_on_c, 1, 55, 0
3, 77504, Note_on_c, 1, 65, 0
3, 77562, Note_on_c, 1, 64, 99
3, 77562, Note_on_c, 1, 57, 108
3, 78260, Note_on_c, 1, 64, 0
3, 78286, Note_on_c, 1, 57, 0
3, 78326, Note_on_c, 1, 56, 101
3, 78334, Note_on_c, 1, 65, 99
3, 79052, Note_on_c, 1, 65, 0
3, 79114, Note_on_c, 1, 56, 0
3, 79854, Note_on_c, 1, 56, 109
3, 79864, Note_on_c, 1, 65, 99
3, 79866, Note_on_c, 1, 65, 0
3, 79866, Note_on_c, 1, 65, 96
3, 80084, Note_on_c, 1, 56, 0
3, 80092, Note_on_c, 1, 65, 0
3, 80148, Note_on_c, 1, 56, 92
3, 80152, Note_on_c, 1, 65, 85
3, 80196, Note_on_c, 1, 65, 0
3, 80198, Note_on_c, 1, 56, 0
3, 80252, Note_on_c, 1, 57, 103
3, 80260, Note_on_c, 1, 64, 99
3, 80554, Note_on_c, 1, 57, 0
3, 80584, Note_on_c, 1, 64, 0
3, 80628, Note_on_c, 1, 53, 94
3, 80638, Note_on_c, 1, 65, 96
3, 80752, Note_on_c, 1, 53, 0
3, 80808, Note_on_c, 1, 50, 87
3, 80926, Note_on_c, 1, 50, 0
3, 81002, Note_on_c, 1, 57, 105
3, 81328, Note_on_c, 1, 57, 0
3, 81344, Note_on_c, 1, 65, 0
3, 81400, Note_on_c, 1, 64, 94
3, 81402, Note_on_c, 1, 45, 99
3, 81696, Note_on_c, 1, 45, 0
3, 81740, Note_on_c, 1, 64, 0
3, 81792, Note_on_c, 1, 62, 95
3, 81792, Note_on_c, 1, 50, 108
3, 82948, Note_on_c, 1, 50, 0
3, 82948, Note_on_c, 1, 62, 0
3, 82948, End_track
4, 0, Start_track
4, 0, Title_t, "trb re"
4, 388, Program_c, 2, 56
4, 389, Control_c, 2, 7, 95
4, 389, Control_c, 2, 10, 58
4, 576, Control_c, 2, 91, 120
4, 13808, Note_on_c, 2, 69, 108
4, 13808, Note_on_c, 2, 57, 115
4, 14126, Note_on_c, 2, 69, 0
4, 14134, Note_on_c, 2, 57, 0
4, 14208, Note_on_c, 2, 69, 108
4, 14212, Note_on_c, 2, 57, 99
4, 14266, Note_on_c, 2, 57, 0
4, 14282, Note_on_c, 2, 69, 0
4, 14394, Note_on_c, 2, 69, 105
4, 14394, Note_on_c, 2, 57, 99
4, 14446, Note_on_c, 2, 57, 0
4, 14474, Note_on_c, 2, 69, 0
4, 14594, Note_on_c, 2, 62, 99
4, 14594, Note_on_c, 2, 69, 105
4, 14912, Note_on_c, 2, 69, 0
4, 14916, Note_on_c, 2, 62, 0
4, 18604, Note_on_c, 2, 69, 103
4, 18604, Note_on_c, 2, 57, 103
4, 18656, Note_on_c, 2, 57, 0
4, 18666, Note_on_c, 2, 69, 0
4, 18800, Note_on_c, 2, 57, 96
4, 18800, Note_on_c, 2, 69, 96
4, 18842, Note_on_c, 2, 57, 0
4, 18860, Note_on_c, 2, 69, 0
4, 18988, Note_on_c, 2, 57, 96
4, 18990, Note_on_c, 2, 69, 96
4, 19032, Note_on_c, 2, 57, 0
4, 19050, Note_on_c, 2, 69, 0
4, 19182, Note_on_c, 2, 69, 108
4, 19184, Note_on_c, 2, 62, 99
4, 19382, Note_on_c, 2, 62, 0
4, 19384, Note_on_c, 2, 69, 0
4, 32250, Note_on_c, 2, 62, 108
4, 32542, Note_on_c, 2, 62, 0
4, 32640, Note_on_c, 2, 62, 105
4, 32674, Note_on_c, 2, 62, 0
4, 32828, Note_on_c, 2, 62, 103
4, 32862, Note_on_c, 2, 62, 0
4, 33022, Note_on_c, 2, 62, 101
4, 33316, Note_on_c, 2, 62, 0
4, 59904, Note_on_c, 2, 62, 96
4, 59904, Note_on_c, 2, 74, 101
4, 60216, Note_on_c, 2, 62, 0
4, 60224, Note_on_c, 2, 74, 0
4, 60286, Note_on_c, 2, 74, 108
4, 60288, Note_on_c, 2, 62, 101
4, 60602, Note_on_c, 2, 62, 0
4, 60612, Note_on_c, 2, 74, 0
4, 60678, Note_on_c, 2, 62, 99
4, 60678, Note_on_c, 2, 74, 105
4, 60936, Note_on_c, 2, 74, 0
4, 60946, Note_on_c, 2, 62, 0
4, 61620, Note_on_c, 2, 69, 94
4, 61620, Note_on_c, 2, 57, 103
4, 61680, Note_on_c, 2, 57, 0
4, 61692, Note_on_c, 2, 69, 0
4, 61812, Note_on_c, 2, 57, 103
4, 61814, Note_on_c, 2, 69, 96
4, 61856, Note_on_c, 2, 57, 0
4, 61878, Note_on_c, 2, 69, 0
4, 62004, Note_on_c, 2, 57, 103
4, 62004, Note_on_c, 2, 69, 95
4, 62032, Note_on_c, 2, 57, 0
4, 62070, Note_on_c, 2, 69, 0
4, 62206, Note_on_c, 2, 69, 105
4, 62206, Note_on_c, 2, 62, 101
4, 62464, Note_on_c, 2, 62, 0
4, 62510, Note_on_c, 2, 69, 0
4, 62582, Note_on_c, 2, 62, 103
4, 62582, Note_on_c, 2, 74, 103
4, 62786, Note_on_c, 2, 74, 0
4, 62848, Note_on_c, 2, 62, 0
4, 62970, Note_on_c, 2, 69, 94
4, 62972, Note_on_c, 2, 57, 95
4, 63232, Note_on_c, 2, 57, 0
4, 63234, Note_on_c, 2, 69, 0
4, 66998, Note_on_c, 2, 69, 103
4, 67000, Note_on_c, 2, 57, 101
4, 67050, Note_on_c, 2, 57, 0
4, 67062, Note_on_c, 2, 69, 0
4, 67184, Note_on_c, 2, 57, 96
4, 67184, Note_on_c, 2, 69, 92
4, 67222, Note_on_c, 2, 57, 0
4, 67246, Note_on_c, 2, 69, 0
4, 67376, Note_on_c, 2, 69, 84
4, 67378, Note_on_c, 2, 57, 87
4, 67414, Note_on_c, 2, 57, 0
4, 67422, Note_on_c, 2, 69, 0
4, 67564, Note_on_c, 2, 74, 91
4, 67564, Note_on_c, 2, 62, 95
4, 68308, Note_on_c, 2, 62, 0
4, 68320, Note_on_c, 2, 74, 0
4, 68340, Note_on_c, 2, 69, 88
4, 68344, Note_on_c, 2, 57, 99
4, 68496, Note_on_c, 2, 69, 0
4, 68506, Note_on_c, 2, 57, 0
4, 76798, Note_on_c, 2, 57, 113
4, 76800, Note_on_c, 2, 69, 103
4, 77126, Note_on_c, 2, 57, 0
4, 77140, Note_on_c, 2, 69, 0
4, 77184, Note_on_c, 2, 62, 103
4, 77282, Note_on_c, 2, 62, 0
4, 77380, Note_on_c, 2, 62, 91
4, 77498, Note_on_c, 2, 62, 0
4, 77568, Note_on_c, 2, 57, 108
4, 77568, Note_on_c, 2, 69, 96
4, 77674, Note_on_c, 2, 57, 0
4, 77686, Note_on_c, 2, 69, 0
4, 77772, Note_on_c, 2, 57, 95
4, 77772, Note_on_c, 2, 69, 92
4, 77796, Note_on_c, 2, 57, 0
4, 77804, Note_on_c, 2, 69, 0
4, 77858, Note_on_c, 2, 57, 101
4, 77860, Note_on_c, 2, 69, 96
4, 77884, Note_on_c, 2, 57, 0
4, 77894, Note_on_c, 2, 69, 0
4, 77942, Note_on_c, 2, 57, 108
4, 77942, Note_on_c, 2, 69, 95
4, 77974, Note_on_c, 2, 57, 0
4, 77982, Note_on_c, 2, 69, 0
4, 78142, Note_on_c, 2, 57, 108
4, 78144, Note_on_c, 2, 69, 101
4, 78162, Note_on_c, 2, 57, 0
4, 78184, Note_on_c, 2, 69, 0
4, 78342, Note_on_c, 2, 74, 103
4, 78342, Note_on_c, 2, 62, 99
4, 79190, Note_on_c, 2, 62, 0
4, 79196, Note_on_c, 2, 74, 0
4, 80270, Note_on_c, 2, 69, 96
4, 80270, Note_on_c, 2, 57, 105
4, 80578, Note_on_c, 2, 57, 0
4, 80588, Note_on_c, 2, 69, 0
4, 80642, Note_on_c, 2, 69, 92
4, 80644, Note_on_c, 2, 62, 87
4, 80726, Note_on_c, 2, 69, 0
4, 80728, Note_on_c, 2, 62, 0
4, 80828, Note_on_c, 2, 69, 91
4, 80830, Note_on_c, 2, 62, 90
4, 80890, Note_on_c, 2, 62, 0
4, 80920, Note_on_c, 2, 69, 0
4, 81010, Note_on_c, 2, 69, 95
4, 81012, Note_on_c, 2, 57, 96
4, 81342, Note_on_c, 2, 57, 0
4, 81352, Note_on_c, 2, 69, 0
4, 81404, Note_on_c, 2, 57, 101
4, 81404, Note_on_c, 2, 69, 92
4, 81434, Note_on_c, 2, 57, 0
4, 81448, Note_on_c, 2, 69, 0
4, 81594, Note_on_c, 2, 57, 103
4, 81594, Note_on_c, 2, 69, 95
4, 81626, Note_on_c, 2, 57, 0
4, 81656, Note_on_c, 2, 69, 0
4, 81792, Note_on_c, 2, 62, 89
4, 81792, Note_on_c, 2, 69, 90
4, 82956, Note_on_c, 2, 62, 0
4, 82964, Note_on_c, 2, 69, 0
4, 82964, End_track
5, 0, Start_track
5, 0, Title_t, "tp"
5, 390, Program_c, 3, 47
5, 391, Control_c, 3, 7, 80
5, 391, Control_c, 3, 10, 55
5, 576, Control_c, 3, 91, 100
5, 13810, Note_on_c, 3, 33, 88
5, 13810, Note_on_c, 3, 45, 94
5, 13836, Note_on_c, 3, 45, 0
5, 13836, Note_on_c, 3, 33, 0
5, 14006, Note_on_c, 3, 45, 84
5, 14006, Note_on_c, 3, 33, 78
5, 14024, Note_on_c, 3, 45, 0
5, 14032, Note_on_c, 3, 33, 0
5, 14092, Note_on_c, 3, 45, 89
5, 14094, Note_on_c, 3, 33, 80
5, 14120, Note_on_c, 3, 45, 0
5, 14120, Note_on_c, 3, 33, 0
5, 14178, Note_on_c, 3, 33, 80
5, 14178, Note_on_c, 3, 45, 89
5, 14198, Note_on_c, 3, 33, 0
5, 14198, Note_on_c, 3, 45, 0
5, 14380, Note_on_c, 3, 33, 81
5, 14382, Note_on_c, 3, 45, 84
5, 14390, Note_on_c, 3, 33, 0
5, 14396, Note_on_c, 3, 45, 0
5, 14584, Note_on_c, 3, 50, 95
5, 14588, Note_on_c, 3, 38, 76
5, 14644, Note_on_c, 3, 38, 0
5, 14690, Note_on_c, 3, 50, 0
5, 18622, Note_on_c, 3, 45, 87
5, 18624, Note_on_c, 3, 33, 79
5, 18644, Note_on_c, 3, 33, 0
5, 18646, Note_on_c, 3, 45, 0
5, 18810, Note_on_c, 3, 45, 81
5, 18814, Note_on_c, 3, 33, 71
5, 18824, Note_on_c, 3, 45, 0
5, 18826, Note_on_c, 3, 33, 0
5, 19000, Note_on_c, 3, 45, 76
5, 19004, Note_on_c, 3, 33, 62
5, 19014, Note_on_c, 3, 45, 0
5, 19018, Note_on_c, 3, 33, 0
5, 19184, Note_on_c, 3, 50, 82
5, 19190, Note_on_c, 3, 38, 60
5, 19234, Note_on_c, 3, 38, 0
5, 19258, Note_on_c, 3, 50, 0
5, 32248, Note_on_c, 3, 38, 83
5, 32248, Note_on_c, 3, 50, 96
5, 32302, Note_on_c, 3, 50, 0
5, 32304, Note_on_c, 3, 38, 0
5, 59898, Note_on_c, 3, 50, 92
5, 59898, Note_on_c, 3, 38, 87
5, 59914, Note_on_c, 3, 50, 0
5, 59920, Note_on_c, 3, 38, 0
5, 60094, Note_on_c, 3, 50, 84
5, 60098, Note_on_c, 3, 38, 67
5, 60108, Note_on_c, 3, 50, 0
5, 60112, Note_on_c, 3, 38, 0
5, 60176, Note_on_c, 3, 50, 87
5, 60180, Note_on_c, 3, 38, 70
5, 60194, Note_on_c, 3, 38, 0
5, 60200, Note_on_c, 3, 50, 0
5, 60268, Note_on_c, 3, 50, 87
5, 60268, Note_on_c, 3, 38, 75
5, 60284, Note_on_c, 3, 50, 0
5, 60292, Note_on_c, 3, 38, 0
5, 60474, Note_on_c, 3, 50, 73
5, 60478, Note_on_c, 3, 38, 58
5, 60488, Note_on_c, 3, 50, 0
5, 60492, Note_on_c, 3, 38, 0
5, 60552, Note_on_c, 3, 50, 74
5, 60554, Note_on_c, 3, 38, 59
5, 60570, Note_on_c, 3, 38, 0
5, 60572, Note_on_c, 3, 50, 0
5, 60648, Note_on_c, 3, 50, 94
5, 60652, Note_on_c, 3, 38, 80
5, 60666, Note_on_c, 3, 38, 0
5, 60676, Note_on_c, 3, 50, 0
5, 61628, Note_on_c, 3, 45, 82
5, 61638, Note_on_c, 3, 33, 54
5, 61646, Note_on_c, 3, 45, 0
5, 61654, Note_on_c, 3, 33, 0
5, 61816, Note_on_c, 3, 45, 79
5, 61822, Note_on_c, 3, 33, 68
5, 61834, Note_on_c, 3, 33, 0
5, 61834, Note_on_c, 3, 45, 0
5, 62010, Note_on_c, 3, 45, 78
5, 62020, Note_on_c, 3, 33, 42
5, 62028, Note_on_c, 3, 45, 0
5, 62034, Note_on_c, 3, 33, 0
5, 62196, Note_on_c, 3, 50, 94
5, 62200, Note_on_c, 3, 38, 74
5, 62240, Note_on_c, 3, 38, 0
5, 62278, Note_on_c, 3, 50, 0
5, 62588, Note_on_c, 3, 50, 95
5, 62592, Note_on_c, 3, 38, 84
5, 62614, Note_on_c, 3, 38, 0
5, 62616, Note_on_c, 3, 50, 0
5, 62966, Note_on_c, 3, 45, 95
5, 62970, Note_on_c, 3, 33, 87
5, 62994, Note_on_c, 3, 33, 0
5, 63014, Note_on_c, 3, 45, 0
5, 66998, Note_on_c, 3, 45, 84
5, 67000, Note_on_c, 3, 33, 73
5, 67016, Note_on_c, 3, 33, 0
5, 67026, Note_on_c, 3, 45, 0
5, 67190, Note_on_c, 3, 50, 80
5, 67194, Note_on_c, 3, 38, 69
5, 67218, Note_on_c, 3, 50, 0
5, 67222, Note_on_c, 3, 38, 0
5, 67378, Note_on_c, 3, 45, 88
5, 67380, Note_on_c, 3, 33, 66
5, 67400, Note_on_c, 3, 33, 0
5, 67406, Note_on_c, 3, 45, 0
5, 67572, Note_on_c, 3, 50, 96
5, 67574, Note_on_c, 3, 38, 82
5, 67596, Note_on_c, 3, 38, 0
5, 67600, Note_on_c, 3, 50, 0
5, 67770, Note_on_c, 3, 50, 89
5, 67774, Note_on_c, 3, 38, 80
5, 67792, Note_on_c, 3, 38, 0
5, 67792, Note_on_c, 3, 50, 0
5, 67850, Note_on_c, 3, 50, 91
5, 67852, Note_on_c, 3, 38, 77
5, 67868, Note_on_c, 3, 38, 0
5, 67876, Note_on_c, 3, 50, 0
5, 67940, Note_on_c, 3, 50, 96
5, 67940, Note_on_c, 3, 38, 90
5, 67954, Note_on_c, 3, 50, 0
5, 67956, Note_on_c, 3, 38, 0
5, 68136, Note_on_c, 3, 50, 91
5, 68138, Note_on_c, 3, 38, 89
5, 68148, Note_on_c, 3, 50, 0
5, 68164, Note_on_c, 3, 38, 0
5, 68336, Note_on_c, 3, 33, 83
5, 68338, Note_on_c, 3, 45, 99
5, 68370, Note_on_c, 3, 45, 0
5, 68374, Note_on_c, 3, 33, 0
5, 76802, Note_on_c, 3, 45, 103
5, 76804, Note_on_c, 3, 33, 89
5, 76862, Note_on_c, 3, 33, 0
5, 76926, Note_on_c, 3, 45, 0
5, 77198, Note_on_c, 3, 50, 105
5, 77200, Note_on_c, 3, 38, 94
5, 77220, Note_on_c, 3, 50, 0
5, 77224, Note_on_c, 3, 38, 0
5, 77376, Note_on_c, 3, 50, 99
5, 77378, Note_on_c, 3, 38, 91
5, 77402, Note_on_c, 3, 38, 0
5, 77402, Note_on_c, 3, 50, 0
5, 77578, Note_on_c, 3, 45, 103
5, 77578, Note_on_c, 3, 33, 91
5, 77600, Note_on_c, 3, 45, 0
5, 77602, Note_on_c, 3, 33, 0
5, 77768, Note_on_c, 3, 45, 95
5, 77770, Note_on_c, 3, 33, 87
5, 77796, Note_on_c, 3, 45, 0
5, 77796, Note_on_c, 3, 33, 0
5, 77850, Note_on_c, 3, 33, 85
5, 77850, Note_on_c, 3, 45, 96
5, 77872, Note_on_c, 3, 45, 0
5, 77876, Note_on_c, 3, 33, 0
5, 77924, Note_on_c, 3, 33, 89
5, 77924, Note_on_c, 3, 45, 101
5, 77946, Note_on_c, 3, 33, 0
5, 77950, Note_on_c, 3, 45, 0
5, 78128, Note_on_c, 3, 45, 108
5, 78128, Note_on_c, 3, 33, 94
5, 78152, Note_on_c, 3, 45, 0
5, 78154, Note_on_c, 3, 33, 0
5, 78338, Note_on_c, 3, 50, 113
5, 78340, Note_on_c, 3, 38, 103
5, 78350, Note_on_c, 3, 48, 48
5, 78364, Note_on_c, 3, 48, 0
5, 78838, Note_on_c, 3, 50, 0
5, 78852, Note_on_c, 3, 38, 0
5, 80270, Note_on_c, 3, 45, 110
5, 80270, Note_on_c, 3, 33, 99
5, 80438, Note_on_c, 3, 33, 0
5, 80480, Note_on_c, 3, 45, 0
5, 80646, Note_on_c, 3, 50, 99
5, 80646, Note_on_c, 3, 38, 91
5, 80668, Note_on_c, 3, 38, 0
5, 80670, Note_on_c, 3, 50, 0
5, 80826, Note_on_c, 3, 50, 99
5, 80828, Note_on_c, 3, 38, 89
5, 80852, Note_on_c, 3, 38, 0
5, 80852, Note_on_c, 3, 50, 0
5, 81016, Note_on_c, 3, 33, 87
5, 81016, Note_on_c, 3, 45, 95
5, 81042, Note_on_c, 3, 45, 0
5, 81044, Note_on_c, 3, 33, 0
5, 81224, Note_on_c, 3, 33, 80
5, 81224, Note_on_c, 3, 45, 87
5, 81238, Note_on_c, 3, 45, 0
5, 81246, Note_on_c, 3, 33, 0
5, 81312, Note_on_c, 3, 33, 73
5, 81312, Note_on_c, 3, 45, 80
5, 81326, Note_on_c, 3, 33, 0
5, 81326, Note_on_c, 3, 45, 0
5, 81400, Note_on_c, 3, 45, 83
5, 81400, Note_on_c, 3, 33, 78
5, 81418, Note_on_c, 3, 33, 0
5, 81420, Note_on_c, 3, 45, 0
5, 81492, Note_on_c, 3, 33, 78
5, 81492, Note_on_c, 3, 45, 85
5, 81510, Note_on_c, 3, 45, 0
5, 81510, Note_on_c, 3, 33, 0
5, 81594, Note_on_c, 3, 45, 84
5, 81596, Note_on_c, 3, 33, 74
5, 81608, Note_on_c, 3, 45, 0
5, 81614, Note_on_c, 3, 33, 0
5, 81692, Note_on_c, 3, 33, 79
5, 81692, Note_on_c, 3, 45, 88
5, 81704, Note_on_c, 3, 33, 0
5, 81706, Note_on_c, 3, 45, 0
5, 81802, Note_on_c, 3, 50, 105
5, 81804, Note_on_c, 3, 38, 92
5, 82744, Note_on_c, 3, 50, 0
5, 82746, Note_on_c, 3, 38, 0
5, 82746, End_track
6, 0, Start_track
6, 0, Title_t, "vlni 1"
6, 392, Program_c, 4, 48
6, 393, Control_c, 4, 7, 123
6, 393, Control_c, 4, 10, 55
6, 768, Control_c, 4, 91, 120
6, 8444, Note_on_c, 4, 74, 92
6, 8966, Note_on_c, 4, 74, 0
6, 9012, Note_on_c, 4, 74, 91
6, 9166, Note_on_c, 4, 74, 0
6, 9206, Note_on_c, 4, 72, 96
6, 9536, Note_on_c, 4, 72, 0
6, 9588, Note_on_c, 4, 77, 95
6, 9914, Note_on_c, 4, 77, 0
6, 9972, Note_on_c, 4, 68, 95
6, 10490, Note_on_c, 4, 68, 0
6, 10552, Note_on_c, 4, 68, 86
6, 10698, Note_on_c, 4, 68, 0
6, 10738, Note_on_c, 4, 69, 91
6, 11108, Note_on_c, 4, 69, 0
6, 11302, Note_on_c, 4, 69, 73
6, 11452, Note_on_c, 4, 69, 0
6, 11490, Note_on_c, 4, 71, 81
6, 11988, Note_on_c, 4, 71, 0
6, 12068, Note_on_c, 4, 69, 82
6, 12118, Note_on_c, 4, 69, 0
6, 12158, Note_on_c, 4, 71, 91
6, 12208, Note_on_c, 4, 71, 0
6, 12254, Note_on_c, 4, 72, 94
6, 12408, Note_on_c, 4, 72, 0
6, 12460, Note_on_c, 4, 71, 91
6, 12502, Note_on_c, 4, 71, 0
6, 12546, Note_on_c, 4, 72, 91
6, 12590, Note_on_c, 4, 72, 0
6, 12640, Note_on_c, 4, 74, 91
6, 12808, Note_on_c, 4, 74, 0
6, 12854, Note_on_c, 4, 72, 90
6, 12896, Note_on_c, 4, 72, 0
6, 12938, Note_on_c, 4, 74, 89
6, 12998, Note_on_c, 4, 74, 0
6, 13042, Note_on_c, 4, 76, 94
6, 13196, Note_on_c, 4, 76, 0
6, 13232, Note_on_c, 4, 74, 95
6, 13368, Note_on_c, 4, 74, 0
6, 13412, Note_on_c, 4, 72, 95
6, 13558, Note_on_c, 4, 72, 0
6, 13606, Note_on_c, 4, 71, 96
6, 13748, Note_on_c, 4, 71, 0
6, 13806, Note_on_c, 4, 69, 95
6, 13952, Note_on_c, 4, 69, 0
6, 14010, Note_on_c, 4, 79, 105
6, 14148, Note_on_c, 4, 79, 0
6, 14194, Note_on_c, 4, 77, 95
6, 14330, Note_on_c, 4, 77, 0
6, 14374, Note_on_c, 4, 76, 91
6, 14496, Note_on_c, 4, 76, 0
6, 14572, Note_on_c, 4, 74, 96
6, 15100, Note_on_c, 4, 74, 0
6, 15152, Note_on_c, 4, 62, 72
6, 15236, Note_on_c, 4, 62, 0
6, 15346, Note_on_c, 4, 67, 94
6, 15860, Note_on_c, 4, 67, 0
6, 15920, Note_on_c, 4, 65, 89
6, 15972, Note_on_c, 4, 65, 0
6, 16004, Note_on_c, 4, 64, 80
6, 16062, Note_on_c, 4, 64, 0
6, 16108, Note_on_c, 4, 69, 94
6, 16192, Note_on_c, 4, 69, 0
6, 16298, Note_on_c, 4, 62, 90
6, 16406, Note_on_c, 4, 62, 0
6, 16494, Note_on_c, 4, 74, 99
6, 17204, Note_on_c, 4, 74, 0
6, 17256, Note_on_c, 4, 74, 105
6, 17794, Note_on_c, 4, 74, 0
6, 17834, Note_on_c, 4, 73, 92
6, 17888, Note_on_c, 4, 73, 0
6, 17924, Note_on_c, 4, 74, 94
6, 17988, Note_on_c, 4, 74, 0
6, 18026, Note_on_c, 4, 76, 95
6, 18758, Note_on_c, 4, 76, 0
6, 18808, Note_on_c, 4, 74, 92
6, 18952, Note_on_c, 4, 74, 0
6, 18988, Note_on_c, 4, 73, 88
6, 19132, Note_on_c, 4, 73, 0
6, 19184, Note_on_c, 4, 74, 96
6, 19400, Note_on_c, 4, 74, 0
6, 20920, Note_on_c, 4, 71, 105
6, 20998, Note_on_c, 4, 71, 0
6, 21106, Note_on_c, 4, 71, 105
6, 21200, Note_on_c, 4, 71, 0
6, 21298, Note_on_c, 4, 71, 103
6, 21424, Note_on_c, 4, 71, 0
6, 21496, Note_on_c, 4, 72, 105
6, 21554, Note_on_c, 4, 72, 0
6, 21588, Note_on_c, 4, 74, 91
6, 21638, Note_on_c, 4, 74, 0
6, 21682, Note_on_c, 4, 72, 95
6, 21724, Note_on_c, 4, 72, 0
6, 21770, Note_on_c, 4, 71, 94
6, 21820, Note_on_c, 4, 71, 0
6, 21876, Note_on_c, 4, 72, 95
6, 21924, Note_on_c, 4, 72, 0
6, 21968, Note_on_c, 4, 74, 92
6, 22020, Note_on_c, 4, 74, 0
6, 22062, Note_on_c, 4, 71, 94
6, 22106, Note_on_c, 4, 71, 0
6, 22156, Note_on_c, 4, 72, 94
6, 22206, Note_on_c, 4, 72, 0
6, 22256, Note_on_c, 4, 74, 92
6, 22312, Note_on_c, 4, 74, 0
6, 22348, Note_on_c, 4, 76, 87
6, 22400, Note_on_c, 4, 76, 0
6, 22446, Note_on_c, 4, 74, 95
6, 22490, Note_on_c, 4, 74, 0
6, 22538, Note_on_c, 4, 72, 92
6, 22588, Note_on_c, 4, 72, 0
6, 22640, Note_on_c, 4, 74, 96
6, 22688, Note_on_c, 4, 74, 0
6, 22732, Note_on_c, 4, 76, 91
6, 22786, Note_on_c, 4, 76, 0
6, 22826, Note_on_c, 4, 72, 85
6, 22870, Note_on_c, 4, 72, 0
6, 22918, Note_on_c, 4, 74, 94
6, 22968, Note_on_c, 4, 74, 0
6, 23022, Note_on_c, 4, 76, 96
6, 23172, Note_on_c, 4, 76, 0
6, 23222, Note_on_c, 4, 77, 92
6, 23274, Note_on_c, 4, 77, 0
6, 23312, Note_on_c, 4, 76, 92
6, 23362, Note_on_c, 4, 76, 0
6, 23404, Note_on_c, 4, 74, 89
6, 23454, Note_on_c, 4, 74, 0
6, 23496, Note_on_c, 4, 72, 80
6, 23540, Note_on_c, 4, 72, 0
6, 23590, Note_on_c, 4, 71, 91
6, 23642, Note_on_c, 4, 71, 0
6, 23678, Note_on_c, 4, 69, 79
6, 23728, Note_on_c, 4, 69, 0
6, 23786, Note_on_c, 4, 68, 92
6, 23934, Note_on_c, 4, 68, 0
6, 23982, Note_on_c, 4, 71, 103
6, 24122, Note_on_c, 4, 71, 0
6, 24176, Note_on_c, 4, 76, 89
6, 24316, Note_on_c, 4, 76, 0
6, 24368, Note_on_c, 4, 74, 95
6, 24506, Note_on_c, 4, 74, 0
6, 24566, Note_on_c, 4, 72, 95
6, 24612, Note_on_c, 4, 72, 0
6, 24656, Note_on_c, 4, 71, 91
6, 24704, Note_on_c, 4, 71, 0
6, 24752, Note_on_c, 4, 69, 84
6, 25000, Note_on_c, 4, 69, 0
6, 25044, Note_on_c, 4, 70, 94
6, 25104, Note_on_c, 4, 70, 0
6, 25136, Note_on_c, 4, 67, 89
6, 25184, Note_on_c, 4, 67, 0
6, 25226, Note_on_c, 4, 69, 85
6, 25290, Note_on_c, 4, 69, 0
6, 25326, Note_on_c, 4, 66, 98
6, 25664, Note_on_c, 4, 66, 0
6, 25724, Note_on_c, 4, 67, 99
6, 25864, Note_on_c, 4, 67, 0
6, 25908, Note_on_c, 4, 69, 84
6, 26038, Note_on_c, 4, 69, 0
6, 26094, Note_on_c, 4, 62, 91
6, 26418, Note_on_c, 4, 62, 0
6, 26870, Note_on_c, 4, 72, 103
6, 27410, Note_on_c, 4, 72, 0
6, 27442, Note_on_c, 4, 72, 95
6, 27600, Note_on_c, 4, 72, 0
6, 27634, Note_on_c, 4, 69, 96
6, 27990, Note_on_c, 4, 69, 0
6, 28026, Note_on_c, 4, 74, 101
6, 28358, Note_on_c, 4, 74, 0
6, 28406, Note_on_c, 4, 64, 96
6, 28928, Note_on_c, 4, 64, 0
6, 28974, Note_on_c, 4, 64, 85
6, 29126, Note_on_c, 4, 64, 0
6, 29162, Note_on_c, 4, 65, 99
6, 29662, Note_on_c, 4, 65, 0
6, 29748, Note_on_c, 4, 65, 96
6, 29894, Note_on_c, 4, 65, 0
6, 29942, Note_on_c, 4, 67, 101
6, 30448, Note_on_c, 4, 67, 0
6, 30508, Note_on_c, 4, 65, 80
6, 30550, Note_on_c, 4, 65, 0
6, 30598, Note_on_c, 4, 67, 87
6, 30644, Note_on_c, 4, 67, 0
6, 30698, Note_on_c, 4, 69, 92
6, 30838, Note_on_c, 4, 69, 0
6, 30888, Note_on_c, 4, 67, 75
6, 30924, Note_on_c, 4, 67, 0
6, 30974, Note_on_c, 4, 69, 87
6, 31018, Note_on_c, 4, 69, 0
6, 31068, Note_on_c, 4, 70, 93
6, 31228, Note_on_c, 4, 70, 0
6, 31268, Note_on_c, 4, 69, 92
6, 31316, Note_on_c, 4, 69, 0
6, 31356, Note_on_c, 4, 70, 89
6, 31410, Note_on_c, 4, 70, 0
6, 31456, Note_on_c, 4, 72, 95
6, 31606, Note_on_c, 4, 72, 0
6, 31650, Note_on_c, 4, 70, 93
6, 31806, Note_on_c, 4, 70, 0
6, 31846, Note_on_c, 4, 69, 96
6, 32010, Note_on_c, 4, 69, 0
6, 32040, Note_on_c, 4, 67, 90
6, 32190, Note_on_c, 4, 67, 0
6, 32234, Note_on_c, 4, 66, 102
6, 32606, Note_on_c, 4, 66, 0
6, 32628, Note_on_c, 4, 67, 92
6, 32784, Note_on_c, 4, 67, 0
6, 32816, Note_on_c, 4, 69, 88
6, 32962, Note_on_c, 4, 69, 0
6, 33004, Note_on_c, 4, 70, 100
6, 33274, Note_on_c, 4, 70, 0
6, 33976, Note_on_c, 4, 69, 99
6, 34044, Note_on_c, 4, 69, 0
6, 34162, Note_on_c, 4, 69, 95
6, 34230, Note_on_c, 4, 69, 0
6, 34360, Note_on_c, 4, 69, 92
6, 34462, Note_on_c, 4, 69, 0
6, 34550, Note_on_c, 4, 70, 95
6, 34608, Note_on_c, 4, 70, 0
6, 34644, Note_on_c, 4, 72, 88
6, 34696, Note_on_c, 4, 72, 0
6, 34742, Note_on_c, 4, 70, 90
6, 34792, Note_on_c, 4, 70, 0
6, 34838, Note_on_c, 4, 69, 88
6, 34884, Note_on_c, 4, 69, 0
6, 34932, Note_on_c, 4, 70, 90
6, 34982, Note_on_c, 4, 70, 0
6, 35022, Note_on_c, 4, 72, 88
6, 35078, Note_on_c, 4, 72, 0
6, 35122, Note_on_c, 4, 69, 87
6, 35166, Note_on_c, 4, 69, 0
6, 35208, Note_on_c, 4, 70, 88
6, 35266, Note_on_c, 4, 70, 0
6, 35314, Note_on_c, 4, 72, 94
6, 35368, Note_on_c, 4, 72, 0
6, 35400, Note_on_c, 4, 74, 83
6, 35456, Note_on_c, 4, 74, 0
6, 35506, Note_on_c, 4, 72, 78
6, 35550, Note_on_c, 4, 72, 0
6, 35592, Note_on_c, 4, 70, 86
6, 35642, Note_on_c, 4, 70, 0
6, 35696, Note_on_c, 4, 72, 94
6, 35740, Note_on_c, 4, 72, 0
6, 35784, Note_on_c, 4, 74, 89
6, 35834, Note_on_c, 4, 74, 0
6, 35880, Note_on_c, 4, 70, 85
6, 35924, Note_on_c, 4, 70, 0
6, 35972, Note_on_c, 4, 72, 82
6, 36026, Note_on_c, 4, 72, 0
6, 36078, Note_on_c, 4, 74, 99
6, 36224, Note_on_c, 4, 74, 0
6, 36266, Note_on_c, 4, 75, 90
6, 36314, Note_on_c, 4, 75, 0
6, 36360, Note_on_c, 4, 74, 91
6, 36408, Note_on_c, 4, 74, 0
6, 36456, Note_on_c, 4, 72, 84
6, 36496, Note_on_c, 4, 72, 0
6, 36550, Note_on_c, 4, 70, 90
6, 36600, Note_on_c, 4, 70, 0
6, 36650, Note_on_c, 4, 69, 85
6, 36694, Note_on_c, 4, 69, 0
6, 36732, Note_on_c, 4, 67, 81
6, 36780, Note_on_c, 4, 67, 0
6, 36840, Note_on_c, 4, 66, 97
6, 36992, Note_on_c, 4, 66, 0
6, 37036, Note_on_c, 4, 69, 95
6, 37168, Note_on_c, 4, 69, 0
6, 37224, Note_on_c, 4, 74, 91
6, 37366, Note_on_c, 4, 74, 0
6, 37426, Note_on_c, 4, 72, 92
6, 37566, Note_on_c, 4, 72, 0
6, 37620, Note_on_c, 4, 70, 91
6, 37792, Note_on_c, 4, 70, 0
6, 37808, Note_on_c, 4, 71, 88
6, 37964, Note_on_c, 4, 71, 0
6, 38004, Note_on_c, 4, 72, 88
6, 38158, Note_on_c, 4, 72, 0
6, 38192, Note_on_c, 4, 74, 91
6, 38322, Note_on_c, 4, 74, 0
6, 38380, Note_on_c, 4, 75, 92
6, 38432, Note_on_c, 4, 75, 0
6, 38466, Note_on_c, 4, 74, 87
6, 38518, Note_on_c, 4, 74, 0
6, 38564, Note_on_c, 4, 72, 94
6, 38698, Note_on_c, 4, 72, 0
6, 43748, Note_on_c, 4, 77, 99
6, 44322, Note_on_c, 4, 77, 0
6, 44352, Note_on_c, 4, 77, 95
6, 44528, Note_on_c, 4, 77, 0
6, 44538, Note_on_c, 4, 74, 94
6, 44876, Note_on_c, 4, 74, 0
6, 44922, Note_on_c, 4, 79, 96
6, 45272, Note_on_c, 4, 79, 0
6, 45288, Note_on_c, 4, 69, 91
6, 45816, Note_on_c, 4, 69, 0
6, 45874, Note_on_c, 4, 69, 88
6, 46040, Note_on_c, 4, 69, 0
6, 46058, Note_on_c, 4, 70, 90
6, 46444, Note_on_c, 4, 70, 0
6, 46630, Note_on_c, 4, 70, 87
6, 46794, Note_on_c, 4, 70, 0
6, 46824, Note_on_c, 4, 72, 91
6, 47324, Note_on_c, 4, 72, 0
6, 47406, Note_on_c, 4, 70, 87
6, 47466, Note_on_c, 4, 70, 0
6, 47496, Note_on_c, 4, 72, 82
6, 47558, Note_on_c, 4, 72, 0
6, 47594, Note_on_c, 4, 74, 90
6, 47746, Note_on_c, 4, 74, 0
6, 47790, Note_on_c, 4, 72, 83
6, 47844, Note_on_c, 4, 72, 0
6, 47878, Note_on_c, 4, 74, 90
6, 47940, Note_on_c, 4, 74, 0
6, 47982, Note_on_c, 4, 75, 94
6, 48126, Note_on_c, 4, 75, 0
6, 48168, Note_on_c, 4, 74, 84
6, 48210, Note_on_c, 4, 74, 0
6, 48250, Note_on_c, 4, 75, 87
6, 48308, Note_on_c, 4, 75, 0
6, 48360, Note_on_c, 4, 77, 90
6, 48528, Note_on_c, 4, 77, 0
6, 48558, Note_on_c, 4, 72, 87
6, 48712, Note_on_c, 4, 72, 0
6, 48746, Note_on_c, 4, 77, 89
6, 48904, Note_on_c, 4, 77, 0
6, 48936, Note_on_c, 4, 75, 91
6, 49098, Note_on_c, 4, 75, 0
6, 49124, Note_on_c, 4, 74, 91
6, 49288, Note_on_c, 4, 74, 0
6, 49322, Note_on_c, 4, 65, 94
6, 49502, Note_on_c, 4, 65, 0
6, 49524, Note_on_c, 4, 70, 97
6, 50224, Note_on_c, 4, 70, 0
6, 50274, Note_on_c, 4, 69, 78
6, 50636, Note_on_c, 4, 69, 0
6, 50662, Note_on_c, 4, 70, 91
6, 50796, Note_on_c, 4, 70, 0
6, 50844, Note_on_c, 4, 70, 80
6, 51000, Note_on_c, 4, 70, 0
6, 51038, Note_on_c, 4, 70, 81
6, 51804, Note_on_c, 4, 70, 0
6, 51822, Note_on_c, 4, 68, 85
6, 51994, Note_on_c, 4, 68, 0
6, 52008, Note_on_c, 4, 67, 82
6, 52188, Note_on_c, 4, 67, 0
6, 52200, Note_on_c, 4, 68, 91
6, 52508, Note_on_c, 4, 68, 0
6, 53934, Note_on_c, 4, 65, 88
6, 54100, Note_on_c, 4, 65, 0
6, 54126, Note_on_c, 4, 70, 90
6, 54266, Note_on_c, 4, 70, 0
6, 54306, Note_on_c, 4, 68, 88
6, 54456, Note_on_c, 4, 68, 0
6, 54502, Note_on_c, 4, 67, 94
6, 54646, Note_on_c, 4, 67, 0
6, 54690, Note_on_c, 4, 60, 87
6, 54852, Note_on_c, 4, 60, 0
6, 54890, Note_on_c, 4, 72, 84
6, 55040, Note_on_c, 4, 72, 0
6, 55082, Note_on_c, 4, 70, 91
6, 55232, Note_on_c, 4, 70, 0
6, 55272, Note_on_c, 4, 68, 99
6, 55484, Note_on_c, 4, 68, 0
6, 57778, Note_on_c, 4, 69, 108
6, 57878, Note_on_c, 4, 69, 0
6, 57966, Note_on_c, 4, 69, 94
6, 58086, Note_on_c, 4, 69, 0
6, 58160, Note_on_c, 4, 69, 89
6, 58296, Note_on_c, 4, 69, 0
6, 58358, Note_on_c, 4, 70, 94
6, 58418, Note_on_c, 4, 70, 0
6, 58452, Note_on_c, 4, 72, 87
6, 58506, Note_on_c, 4, 72, 0
6, 58546, Note_on_c, 4, 70, 87
6, 58608, Note_on_c, 4, 70, 0
6, 58638, Note_on_c, 4, 69, 82
6, 58698, Note_on_c, 4, 69, 0
6, 58744, Note_on_c, 4, 71, 95
6, 58796, Note_on_c, 4, 71, 0
6, 58826, Note_on_c, 4, 72, 87
6, 58882, Note_on_c, 4, 72, 0
6, 58926, Note_on_c, 4, 69, 87
6, 58974, Note_on_c, 4, 69, 0
6, 59016, Note_on_c, 4, 71, 92
6, 59064, Note_on_c, 4, 71, 0
6, 59118, Note_on_c, 4, 72, 92
6, 59170, Note_on_c, 4, 72, 0
6, 59212, Note_on_c, 4, 74, 89
6, 59266, Note_on_c, 4, 74, 0
6, 59318, Note_on_c, 4, 72, 92
6, 59362, Note_on_c, 4, 72, 0
6, 59406, Note_on_c, 4, 71, 85
6, 59452, Note_on_c, 4, 71, 0
6, 59500, Note_on_c, 4, 73, 90
6, 59548, Note_on_c, 4, 73, 0
6, 59596, Note_on_c, 4, 74, 90
6, 59648, Note_on_c, 4, 74, 0
6, 59698, Note_on_c, 4, 71, 91
6, 59742, Note_on_c, 4, 71, 0
6, 59786, Note_on_c, 4, 73, 88
6, 59838, Note_on_c, 4, 73, 0
6, 59894, Note_on_c, 4, 74, 96
6, 60026, Note_on_c, 4, 74, 0
6, 60082, Note_on_c, 4, 69, 89
6, 60224, Note_on_c, 4, 69, 0
6, 60278, Note_on_c, 4, 74, 91
6, 60406, Note_on_c, 4, 74, 0
6, 60456, Note_on_c, 4, 72, 90
6, 60596, Note_on_c, 4, 72, 0
6, 60650, Note_on_c, 4, 71, 96
6, 60788, Note_on_c, 4, 71, 0
6, 60848, Note_on_c, 4, 64, 87
6, 60988, Note_on_c, 4, 64, 0
6, 61038, Note_on_c, 4, 76, 92
6, 61182, Note_on_c, 4, 76, 0
6, 61226, Note_on_c, 4, 74, 95
6, 61362, Note_on_c, 4, 74, 0
6, 61408, Note_on_c, 4, 73, 101
6, 61758, Note_on_c, 4, 73, 0
6, 63154, Note_on_c, 4, 76, 103
6, 63238, Note_on_c, 4, 76, 0
6, 63340, Note_on_c, 4, 76, 103
6, 63436, Note_on_c, 4, 76, 0
6, 63536, Note_on_c, 4, 76, 96
6, 63638, Note_on_c, 4, 76, 0
6, 63728, Note_on_c, 4, 77, 103
6, 63778, Note_on_c, 4, 77, 0
6, 63818, Note_on_c, 4, 79, 90
6, 63870, Note_on_c, 4, 79, 0
6, 63918, Note_on_c, 4, 77, 95
6, 63968, Note_on_c, 4, 77, 0
6, 64008, Note_on_c, 4, 76, 91
6, 64062, Note_on_c, 4, 76, 0
6, 64108, Note_on_c, 4, 77, 99
6, 64158, Note_on_c, 4, 77, 0
6, 64200, Note_on_c, 4, 79, 88
6, 64252, Note_on_c, 4, 79, 0
6, 64298, Note_on_c, 4, 76, 85
6, 64346, Note_on_c, 4, 76, 0
6, 64392, Note_on_c, 4, 77, 92
6, 64442, Note_on_c, 4, 77, 0
6, 64488, Note_on_c, 4, 79, 96
6, 64534, Note_on_c, 4, 79, 0
6, 64576, Note_on_c, 4, 81, 91
6, 64628, Note_on_c, 4, 81, 0
6, 64678, Note_on_c, 4, 79, 96
6, 64722, Note_on_c, 4, 79, 0
6, 64770, Note_on_c, 4, 77, 91
6, 64816, Note_on_c, 4, 77, 0
6, 64870, Note_on_c, 4, 79, 96
6, 64914, Note_on_c, 4, 79, 0
6, 64960, Note_on_c, 4, 81, 89
6, 65010, Note_on_c, 4, 81, 0
6, 65058, Note_on_c, 4, 77, 85
6, 65104, Note_on_c, 4, 77, 0
6, 65144, Note_on_c, 4, 79, 92
6, 65196, Note_on_c, 4, 79, 0
6, 65252, Note_on_c, 4, 81, 99
6, 65398, Note_on_c, 4, 81, 0
6, 65446, Note_on_c, 4, 82, 93
6, 65504, Note_on_c, 4, 82, 0
6, 65538, Note_on_c, 4, 81, 94
6, 65588, Note_on_c, 4, 81, 0
6, 65632, Note_on_c, 4, 79, 91
6, 65682, Note_on_c, 4, 79, 0
6, 65724, Note_on_c, 4, 77, 83
6, 65770, Note_on_c, 4, 77, 0
6, 65818, Note_on_c, 4, 76, 94
6, 65862, Note_on_c, 4, 76, 0
6, 65902, Note_on_c, 4, 74, 83
6, 65964, Note_on_c, 4, 74, 0
6, 66008, Note_on_c, 4, 73, 94
6, 66148, Note_on_c, 4, 73, 0
6, 66206, Note_on_c, 4, 74, 90
6, 66326, Note_on_c, 4, 74, 0
6, 66398, Note_on_c, 4, 76, 103
6, 66908, Note_on_c, 4, 76, 0
6, 66978, Note_on_c, 4, 79, 94
6, 67134, Note_on_c, 4, 79, 0
6, 67174, Note_on_c, 4, 77, 99
6, 67324, Note_on_c, 4, 77, 0
6, 67360, Note_on_c, 4, 76, 85
6, 67510, Note_on_c, 4, 76, 0
6, 67554, Note_on_c, 4, 74, 92
6, 68086, Note_on_c, 4, 74, 0
6, 68146, Note_on_c, 4, 74, 103
6, 68310, Note_on_c, 4, 74, 0
6, 68336, Note_on_c, 4, 73, 95
6, 68470, Note_on_c, 4, 73, 0
6, 68520, Note_on_c, 4, 73, 95
6, 68706, Note_on_c, 4, 74, 88
6, 68708, Note_on_c, 4, 73, 0
6, 68900, Note_on_c, 4, 74, 0
6, 68904, Note_on_c, 4, 76, 78
6, 69080, Note_on_c, 4, 76, 0
6, 69090, Note_on_c, 4, 69, 83
6, 69452, Note_on_c, 4, 69, 0
6, 71596, Note_on_c, 4, 69, 103
6, 71688, Note_on_c, 4, 69, 0
6, 71782, Note_on_c, 4, 69, 99
6, 71890, Note_on_c, 4, 69, 0
6, 71968, Note_on_c, 4, 69, 90
6, 72104, Note_on_c, 4, 69, 0
6, 72168, Note_on_c, 4, 70, 91
6, 72232, Note_on_c, 4, 70, 0
6, 72258, Note_on_c, 4, 72, 83
6, 72322, Note_on_c, 4, 72, 0
6, 72362, Note_on_c, 4, 70, 87
6, 72422, Note_on_c, 4, 70, 0
6, 72448, Note_on_c, 4, 69, 82
6, 72510, Note_on_c, 4, 69, 0
6, 72558, Note_on_c, 4, 71, 99
6, 72620, Note_on_c, 4, 71, 0
6, 72652, Note_on_c, 4, 72, 88
6, 72720, Note_on_c, 4, 72, 0
6, 72752, Note_on_c, 4, 69, 84
6, 72810, Note_on_c, 4, 69, 0
6, 72844, Note_on_c, 4, 71, 92
6, 72902, Note_on_c, 4, 71, 0
6, 72942, Note_on_c, 4, 72, 96
6, 73002, Note_on_c, 4, 72, 0
6, 73030, Note_on_c, 4, 74, 88
6, 73092, Note_on_c, 4, 74, 0
6, 73128, Note_on_c, 4, 72, 89
6, 73180, Note_on_c, 4, 72, 0
6, 73214, Note_on_c, 4, 71, 88
6, 73278, Note_on_c, 4, 71, 0
6, 73318, Note_on_c, 4, 73, 93
6, 73370, Note_on_c, 4, 73, 0
6, 73416, Note_on_c, 4, 74, 88
6, 73478, Note_on_c, 4, 74, 0
6, 73510, Note_on_c, 4, 71, 87
6, 73566, Note_on_c, 4, 71, 0
6, 73598, Note_on_c, 4, 73, 89
6, 73658, Note_on_c, 4, 73, 0
6, 73700, Note_on_c, 4, 74, 103
6, 73934, Note_on_c, 4, 74, 0
6, 74666, Note_on_c, 4, 76, 96
6, 74764, Note_on_c, 4, 76, 0
6, 74858, Note_on_c, 4, 76, 94
6, 74962, Note_on_c, 4, 76, 0
6, 75050, Note_on_c, 4, 76, 91
6, 75174, Note_on_c, 4, 76, 0
6, 75246, Note_on_c, 4, 77, 96
6, 75300, Note_on_c, 4, 77, 0
6, 75330, Note_on_c, 4, 79, 87
6, 75392, Note_on_c, 4, 79, 0
6, 75440, Note_on_c, 4, 77, 90
6, 75488, Note_on_c, 4, 77, 0
6, 75526, Note_on_c, 4, 76, 80
6, 75584, Note_on_c, 4, 76, 0
6, 75626, Note_on_c, 4, 78, 90
6, 75682, Note_on_c, 4, 78, 0
6, 75722, Note_on_c, 4, 79, 89
6, 75786, Note_on_c, 4, 79, 0
6, 75822, Note_on_c, 4, 76, 81
6, 75872, Note_on_c, 4, 76, 0
6, 75908, Note_on_c, 4, 78, 90
6, 75968, Note_on_c, 4, 78, 0
6, 76008, Note_on_c, 4, 79, 94
6, 76058, Note_on_c, 4, 79, 0
6, 76096, Note_on_c, 4, 81, 89
6, 76152, Note_on_c, 4, 81, 0
6, 76196, Note_on_c, 4, 79, 81
6, 76248, Note_on_c, 4, 79, 0
6, 76298, Note_on_c, 4, 78, 63
6, 76336, Note_on_c, 4, 78, 0
6, 76382, Note_on_c, 4, 80, 84
6, 76448, Note_on_c, 4, 80, 0
6, 76472, Note_on_c, 4, 81, 84
6, 76538, Note_on_c, 4, 81, 0
6, 76580, Note_on_c, 4, 78, 88
6, 76634, Note_on_c, 4, 78, 0
6, 76668, Note_on_c, 4, 80, 88
6, 76738, Note_on_c, 4, 80, 0
6, 76778, Note_on_c, 4, 81, 94
6, 76958, Note_on_c, 4, 81, 0
6, 76970, Note_on_c, 4, 73, 98
6, 77124, Note_on_c, 4, 73, 0
6, 77156, Note_on_c, 4, 74, 95
6, 77298, Note_on_c, 4, 74, 0
6, 77354, Note_on_c, 4, 74, 103
6, 77510, Note_on_c, 4, 74, 0
6, 77550, Note_on_c, 4, 74, 94
6, 77928, Note_on_c, 4, 74, 0
6, 77936, Note_on_c, 4, 73, 92
6, 78282, Note_on_c, 4, 73, 0
6, 78320, Note_on_c, 4, 74, 110
6, 79152, Note_on_c, 4, 74, 0
6, 79856, Note_on_c, 4, 74, 110
6, 80102, Note_on_c, 4, 74, 0
6, 80158, Note_on_c, 4, 74, 105
6, 80228, Note_on_c, 4, 74, 0
6, 80252, Note_on_c, 4, 73, 97
6, 80600, Note_on_c, 4, 73, 0
6, 80630, Note_on_c, 4, 74, 110
6, 81378, Note_on_c, 4, 74, 0
6, 81402, Note_on_c, 4, 73, 94
6, 81750, Note_on_c, 4, 73, 0
6, 81792, Note_on_c, 4, 74, 91
6, 82964, Note_on_c, 4, 74, 0
6, 82964, End_track
7, 0, Start_track
7, 0, Title_t, "vlni 2"
7, 394, Program_c, 5, 48
7, 395, Control_c, 5, 7, 114
7, 395, Control_c, 5, 10, 60
7, 576, Control_c, 5, 91, 120
7, 4800, Note_on_c, 5, 64, 92
7, 4828, Note_on_c, 5, 64, 0
7, 4980, Note_on_c, 5, 64, 94
7, 5014, Note_on_c, 5, 64, 0
7, 5172, Note_on_c, 5, 64, 81
7, 5214, Note_on_c, 5, 64, 0
7, 5360, Note_on_c, 5, 65, 87
7, 5404, Note_on_c, 5, 65, 0
7, 5448, Note_on_c, 5, 67, 80
7, 5496, Note_on_c, 5, 67, 0
7, 5546, Note_on_c, 5, 65, 80
7, 5582, Note_on_c, 5, 65, 0
7, 5634, Note_on_c, 5, 64, 81
7, 5678, Note_on_c, 5, 64, 0
7, 5736, Note_on_c, 5, 65, 84
7, 5776, Note_on_c, 5, 65, 0
7, 5824, Note_on_c, 5, 67, 82
7, 5870, Note_on_c, 5, 67, 0
7, 5926, Note_on_c, 5, 64, 83
7, 5966, Note_on_c, 5, 64, 0
7, 6020, Note_on_c, 5, 65, 80
7, 6058, Note_on_c, 5, 65, 0
7, 6122, Note_on_c, 5, 67, 81
7, 6166, Note_on_c, 5, 67, 0
7, 6220, Note_on_c, 5, 69, 79
7, 6260, Note_on_c, 5, 69, 0
7, 6320, Note_on_c, 5, 67, 82
7, 6356, Note_on_c, 5, 67, 0
7, 6412, Note_on_c, 5, 65, 82
7, 6454, Note_on_c, 5, 65, 0
7, 6514, Note_on_c, 5, 67, 85
7, 6548, Note_on_c, 5, 67, 0
7, 6606, Note_on_c, 5, 69, 75
7, 6648, Note_on_c, 5, 69, 0
7, 6702, Note_on_c, 5, 65, 77
7, 6744, Note_on_c, 5, 65, 0
7, 6796, Note_on_c, 5, 67, 80
7, 6836, Note_on_c, 5, 67, 0
7, 6896, Note_on_c, 5, 69, 87
7, 7038, Note_on_c, 5, 69, 0
7, 7092, Note_on_c, 5, 70, 84
7, 7136, Note_on_c, 5, 70, 0
7, 7180, Note_on_c, 5, 69, 80
7, 7214, Note_on_c, 5, 69, 0
7, 7272, Note_on_c, 5, 67, 77
7, 7312, Note_on_c, 5, 67, 0
7, 7360, Note_on_c, 5, 65, 74
7, 7400, Note_on_c, 5, 65, 0
7, 7458, Note_on_c, 5, 64, 85
7, 7500, Note_on_c, 5, 64, 0
7, 7548, Note_on_c, 5, 62, 71
7, 7598, Note_on_c, 5, 62, 0
7, 7662, Note_on_c, 5, 61, 87
7, 7812, Note_on_c, 5, 61, 0
7, 7856, Note_on_c, 5, 64, 80
7, 7984, Note_on_c, 5, 64, 0
7, 8044, Note_on_c, 5, 69, 79
7, 8178, Note_on_c, 5, 69, 0
7, 8230, Note_on_c, 5, 67, 81
7, 8366, Note_on_c, 5, 67, 0
7, 8436, Note_on_c, 5, 65, 87
7, 8560, Note_on_c, 5, 65, 0
7, 8620, Note_on_c, 5, 64, 78
7, 8656, Note_on_c, 5, 64, 0
7, 8712, Note_on_c, 5, 65, 78
7, 8756, Note_on_c, 5, 65, 0
7, 8818, Note_on_c, 5, 62, 75
7, 8864, Note_on_c, 5, 62, 0
7, 8914, Note_on_c, 5, 64, 75
7, 8952, Note_on_c, 5, 64, 0
7, 9006, Note_on_c, 5, 66, 81
7, 9048, Note_on_c, 5, 66, 0
7, 9096, Note_on_c, 5, 68, 76
7, 9150, Note_on_c, 5, 68, 0
7, 9198, Note_on_c, 5, 69, 89
7, 9376, Note_on_c, 5, 69, 0
7, 9972, Note_on_c, 5, 68, 86
7, 10410, Note_on_c, 5, 68, 0
7, 10558, Note_on_c, 5, 68, 70
7, 10648, Note_on_c, 5, 68, 0
7, 10738, Note_on_c, 5, 69, 64
7, 11164, Note_on_c, 5, 69, 0
7, 11308, Note_on_c, 5, 69, 70
7, 11404, Note_on_c, 5, 69, 0
7, 11494, Note_on_c, 5, 71, 66
7, 11950, Note_on_c, 5, 71, 0
7, 12072, Note_on_c, 5, 69, 72
7, 12112, Note_on_c, 5, 69, 0
7, 12166, Note_on_c, 5, 71, 74
7, 12208, Note_on_c, 5, 71, 0
7, 12268, Note_on_c, 5, 72, 74
7, 12408, Note_on_c, 5, 72, 0
7, 12470, Note_on_c, 5, 71, 77
7, 12508, Note_on_c, 5, 71, 0
7, 12564, Note_on_c, 5, 72, 74
7, 12604, Note_on_c, 5, 72, 0
7, 12664, Note_on_c, 5, 74, 74
7, 12800, Note_on_c, 5, 74, 0
7, 12860, Note_on_c, 5, 72, 76
7, 12898, Note_on_c, 5, 72, 0
7, 12946, Note_on_c, 5, 74, 74
7, 12994, Note_on_c, 5, 74, 0
7, 13042, Note_on_c, 5, 76, 74
7, 13188, Note_on_c, 5, 76, 0
7, 13238, Note_on_c, 5, 74, 70
7, 13366, Note_on_c, 5, 74, 0
7, 13422, Note_on_c, 5, 72, 74
7, 13556, Note_on_c, 5, 72, 0
7, 13610, Note_on_c, 5, 71, 75
7, 13734, Note_on_c, 5, 71, 0
7, 13806, Note_on_c, 5, 69, 73
7, 14224, Note_on_c, 5, 69, 0
7, 14412, Note_on_c, 5, 69, 85
7, 14516, Note_on_c, 5, 69, 0
7, 14598, Note_on_c, 5, 65, 76
7, 14894, Note_on_c, 5, 65, 0
7, 14966, Note_on_c, 5, 70, 75
7, 15142, Note_on_c, 5, 70, 0
7, 15162, Note_on_c, 5, 62, 55
7, 15306, Note_on_c, 5, 62, 0
7, 15354, Note_on_c, 5, 61, 80
7, 15826, Note_on_c, 5, 61, 0
7, 15916, Note_on_c, 5, 61, 84
7, 16056, Note_on_c, 5, 61, 0
7, 16112, Note_on_c, 5, 62, 82
7, 16472, Note_on_c, 5, 62, 0
7, 16694, Note_on_c, 5, 62, 80
7, 16806, Note_on_c, 5, 62, 0
7, 16882, Note_on_c, 5, 64, 85
7, 17354, Note_on_c, 5, 64, 0
7, 17448, Note_on_c, 5, 62, 68
7, 17488, Note_on_c, 5, 62, 0
7, 17540, Note_on_c, 5, 64, 80
7, 17592, Note_on_c, 5, 64, 0
7, 17638, Note_on_c, 5, 65, 83
7, 17792, Note_on_c, 5, 65, 0
7, 17838, Note_on_c, 5, 64, 71
7, 17880, Note_on_c, 5, 64, 0
7, 17926, Note_on_c, 5, 65, 77
7, 17968, Note_on_c, 5, 65, 0
7, 18026, Note_on_c, 5, 67, 87
7, 18178, Note_on_c, 5, 67, 0
7, 18218, Note_on_c, 5, 65, 76
7, 18270, Note_on_c, 5, 65, 0
7, 18312, Note_on_c, 5, 67, 81
7, 18360, Note_on_c, 5, 67, 0
7, 18410, Note_on_c, 5, 69, 80
7, 18554, Note_on_c, 5, 69, 0
7, 18606, Note_on_c, 5, 67, 85
7, 18754, Note_on_c, 5, 67, 0
7, 18800, Note_on_c, 5, 65, 84
7, 18944, Note_on_c, 5, 65, 0
7, 18988, Note_on_c, 5, 64, 74
7, 19118, Note_on_c, 5, 64, 0
7, 19198, Note_on_c, 5, 62, 85
7, 19386, Note_on_c, 5, 62, 0
7, 19452, Note_on_c, 5, 64, 70
7, 19498, Note_on_c, 5, 64, 0
7, 19562, Note_on_c, 5, 66, 89
7, 19684, Note_on_c, 5, 66, 0
7, 19752, Note_on_c, 5, 68, 83
7, 19898, Note_on_c, 5, 68, 0
7, 19956, Note_on_c, 5, 69, 85
7, 20084, Note_on_c, 5, 69, 0
7, 20160, Note_on_c, 5, 64, 75
7, 20454, Note_on_c, 5, 64, 0
7, 20538, Note_on_c, 5, 62, 72
7, 20582, Note_on_c, 5, 62, 0
7, 20622, Note_on_c, 5, 60, 74
7, 20666, Note_on_c, 5, 60, 0
7, 20722, Note_on_c, 5, 59, 75
7, 21078, Note_on_c, 5, 59, 0
7, 21682, Note_on_c, 5, 64, 74
7, 21776, Note_on_c, 5, 64, 0
7, 21862, Note_on_c, 5, 69, 72
7, 22304, Note_on_c, 5, 69, 0
7, 22358, Note_on_c, 5, 67, 69
7, 22398, Note_on_c, 5, 67, 0
7, 22448, Note_on_c, 5, 65, 75
7, 22484, Note_on_c, 5, 65, 0
7, 22528, Note_on_c, 5, 64, 82
7, 22568, Note_on_c, 5, 64, 0
7, 22632, Note_on_c, 5, 65, 85
7, 22776, Note_on_c, 5, 65, 0
7, 22832, Note_on_c, 5, 67, 80
7, 22870, Note_on_c, 5, 67, 0
7, 22916, Note_on_c, 5, 65, 80
7, 22954, Note_on_c, 5, 65, 0
7, 23020, Note_on_c, 5, 64, 89
7, 23270, Note_on_c, 5, 64, 0
7, 23990, Note_on_c, 5, 64, 83
7, 24122, Note_on_c, 5, 64, 0
7, 24186, Note_on_c, 5, 66, 84
7, 24306, Note_on_c, 5, 66, 0
7, 24368, Note_on_c, 5, 68, 76
7, 24506, Note_on_c, 5, 68, 0
7, 24570, Note_on_c, 5, 69, 84
7, 24666, Note_on_c, 5, 69, 0
7, 25520, Note_on_c, 5, 69, 83
7, 25658, Note_on_c, 5, 69, 0
7, 25710, Note_on_c, 5, 74, 78
7, 25862, Note_on_c, 5, 74, 0
7, 25910, Note_on_c, 5, 72, 77
7, 26048, Note_on_c, 5, 72, 0
7, 26098, Note_on_c, 5, 70, 82
7, 26150, Note_on_c, 5, 70, 0
7, 26186, Note_on_c, 5, 69, 78
7, 26236, Note_on_c, 5, 69, 0
7, 26280, Note_on_c, 5, 67, 82
7, 26528, Note_on_c, 5, 67, 0
7, 26574, Note_on_c, 5, 69, 80
7, 26626, Note_on_c, 5, 69, 0
7, 26668, Note_on_c, 5, 65, 74
7, 26708, Note_on_c, 5, 65, 0
7, 26760, Note_on_c, 5, 67, 78
7, 26806, Note_on_c, 5, 67, 0
7, 26862, Note_on_c, 5, 64, 78
7, 27192, Note_on_c, 5, 64, 0
7, 27244, Note_on_c, 5, 65, 81
7, 27400, Note_on_c, 5, 65, 0
7, 27444, Note_on_c, 5, 67, 82
7, 27586, Note_on_c, 5, 67, 0
7, 27648, Note_on_c, 5, 60, 85
7, 27844, Note_on_c, 5, 60, 0
7, 28588, Note_on_c, 5, 60, 80
7, 28884, Note_on_c, 5, 60, 0
7, 28966, Note_on_c, 5, 58, 78
7, 29088, Note_on_c, 5, 58, 0
7, 29172, Note_on_c, 5, 57, 88
7, 29270, Note_on_c, 5, 57, 0
7, 29360, Note_on_c, 5, 65, 82
7, 29440, Note_on_c, 5, 65, 0
7, 29548, Note_on_c, 5, 62, 77
7, 29620, Note_on_c, 5, 62, 0
7, 29732, Note_on_c, 5, 58, 81
7, 29830, Note_on_c, 5, 58, 0
7, 30126, Note_on_c, 5, 67, 80
7, 30184, Note_on_c, 5, 67, 0
7, 30308, Note_on_c, 5, 64, 84
7, 30366, Note_on_c, 5, 64, 0
7, 30496, Note_on_c, 5, 60, 82
7, 30556, Note_on_c, 5, 60, 0
7, 30884, Note_on_c, 5, 64, 81
7, 30920, Note_on_c, 5, 64, 0
7, 30974, Note_on_c, 5, 65, 76
7, 31020, Note_on_c, 5, 65, 0
7, 31078, Note_on_c, 5, 67, 89
7, 31228, Note_on_c, 5, 67, 0
7, 31280, Note_on_c, 5, 65, 80
7, 31316, Note_on_c, 5, 65, 0
7, 31362, Note_on_c, 5, 67, 80
7, 31406, Note_on_c, 5, 67, 0
7, 31458, Note_on_c, 5, 69, 87
7, 31586, Note_on_c, 5, 69, 0
7, 31658, Note_on_c, 5, 64, 90
7, 31790, Note_on_c, 5, 64, 0
7, 31848, Note_on_c, 5, 65, 85
7, 31980, Note_on_c, 5, 65, 0
7, 32038, Note_on_c, 5, 61, 83
7, 32150, Note_on_c, 5, 61, 0
7, 32240, Note_on_c, 5, 62, 77
7, 32576, Note_on_c, 5, 62, 0
7, 32624, Note_on_c, 5, 64, 76
7, 32752, Note_on_c, 5, 64, 0
7, 32812, Note_on_c, 5, 66, 77
7, 32954, Note_on_c, 5, 66, 0
7, 32998, Note_on_c, 5, 67, 83
7, 33194, Note_on_c, 5, 67, 0
7, 33972, Note_on_c, 5, 63, 88
7, 34104, Note_on_c, 5, 63, 0
7, 34164, Note_on_c, 5, 62, 82
7, 34290, Note_on_c, 5, 62, 0
7, 34350, Note_on_c, 5, 60, 74
7, 34464, Note_on_c, 5, 60, 0
7, 34550, Note_on_c, 5, 58, 81
7, 34688, Note_on_c, 5, 58, 0
7, 34734, Note_on_c, 5, 55, 73
7, 34834, Note_on_c, 5, 55, 0
7, 34924, Note_on_c, 5, 63, 92
7, 35440, Note_on_c, 5, 63, 0
7, 35498, Note_on_c, 5, 60, 80
7, 35642, Note_on_c, 5, 60, 0
7, 35698, Note_on_c, 5, 65, 81
7, 36394, Note_on_c, 5, 65, 0
7, 36464, Note_on_c, 5, 63, 92
7, 36778, Note_on_c, 5, 63, 0
7, 36842, Note_on_c, 5, 62, 76
7, 36992, Note_on_c, 5, 62, 0
7, 37046, Note_on_c, 5, 66, 88
7, 37198, Note_on_c, 5, 66, 0
7, 37232, Note_on_c, 5, 67, 88
7, 37374, Note_on_c, 5, 67, 0
7, 37418, Note_on_c, 5, 69, 84
7, 37560, Note_on_c, 5, 69, 0
7, 37606, Note_on_c, 5, 62, 75
7, 37742, Note_on_c, 5, 62, 0
7, 37796, Note_on_c, 5, 68, 88
7, 37944, Note_on_c, 5, 68, 0
7, 37988, Note_on_c, 5, 67, 91
7, 38202, Note_on_c, 5, 67, 0
7, 39324, Note_on_c, 5, 62, 80
7, 39400, Note_on_c, 5, 62, 0
7, 39532, Note_on_c, 5, 62, 84
7, 39586, Note_on_c, 5, 62, 0
7, 39730, Note_on_c, 5, 62, 83
7, 39794, Note_on_c, 5, 62, 0
7, 39930, Note_on_c, 5, 63, 97
7, 39974, Note_on_c, 5, 63, 0
7, 40018, Note_on_c, 5, 65, 82
7, 40062, Note_on_c, 5, 65, 0
7, 40108, Note_on_c, 5, 63, 90
7, 40152, Note_on_c, 5, 63, 0
7, 40204, Note_on_c, 5, 62, 80
7, 40248, Note_on_c, 5, 62, 0
7, 40306, Note_on_c, 5, 63, 93
7, 40346, Note_on_c, 5, 63, 0
7, 40394, Note_on_c, 5, 65, 87
7, 40446, Note_on_c, 5, 65, 0
7, 40498, Note_on_c, 5, 62, 84
7, 40534, Note_on_c, 5, 62, 0
7, 40582, Note_on_c, 5, 63, 90
7, 40632, Note_on_c, 5, 63, 0
7, 40682, Note_on_c, 5, 65, 89
7, 40726, Note_on_c, 5, 65, 0
7, 40780, Note_on_c, 5, 67, 85
7, 40822, Note_on_c, 5, 67, 0
7, 40878, Note_on_c, 5, 65, 85
7, 40914, Note_on_c, 5, 65, 0
7, 40964, Note_on_c, 5, 63, 87
7, 41014, Note_on_c, 5, 63, 0
7, 41066, Note_on_c, 5, 65, 88
7, 41106, Note_on_c, 5, 65, 0
7, 41154, Note_on_c, 5, 67, 83
7, 41196, Note_on_c, 5, 67, 0
7, 41250, Note_on_c, 5, 63, 87
7, 41288, Note_on_c, 5, 63, 0
7, 41338, Note_on_c, 5, 65, 76
7, 41394, Note_on_c, 5, 65, 0
7, 41448, Note_on_c, 5, 67, 96
7, 41592, Note_on_c, 5, 67, 0
7, 41644, Note_on_c, 5, 68, 90
7, 41692, Note_on_c, 5, 68, 0
7, 41738, Note_on_c, 5, 67, 87
7, 41776, Note_on_c, 5, 67, 0
7, 41836, Note_on_c, 5, 65, 80
7, 41878, Note_on_c, 5, 65, 0
7, 41928, Note_on_c, 5, 63, 90
7, 41976, Note_on_c, 5, 63, 0
7, 42024, Note_on_c, 5, 62, 74
7, 42066, Note_on_c, 5, 62, 0
7, 42112, Note_on_c, 5, 60, 80
7, 42174, Note_on_c, 5, 60, 0
7, 42218, Note_on_c, 5, 59, 92
7, 42356, Note_on_c, 5, 59, 0
7, 42412, Note_on_c, 5, 62, 90
7, 42554, Note_on_c, 5, 62, 0
7, 42604, Note_on_c, 5, 67, 94
7, 42738, Note_on_c, 5, 67, 0
7, 42802, Note_on_c, 5, 65, 87
7, 42932, Note_on_c, 5, 65, 0
7, 42986, Note_on_c, 5, 63, 98
7, 43496, Note_on_c, 5, 63, 0
7, 43556, Note_on_c, 5, 62, 82
7, 43718, Note_on_c, 5, 62, 0
7, 43758, Note_on_c, 5, 60, 84
7, 43902, Note_on_c, 5, 60, 0
7, 43954, Note_on_c, 5, 65, 83
7, 44094, Note_on_c, 5, 65, 0
7, 44148, Note_on_c, 5, 67, 83
7, 44294, Note_on_c, 5, 67, 0
7, 44336, Note_on_c, 5, 69, 80
7, 44474, Note_on_c, 5, 69, 0
7, 44530, Note_on_c, 5, 70, 92
7, 44668, Note_on_c, 5, 70, 0
7, 44720, Note_on_c, 5, 58, 87
7, 44852, Note_on_c, 5, 58, 0
7, 44914, Note_on_c, 5, 63, 97
7, 45122, Note_on_c, 5, 63, 0
7, 45188, Note_on_c, 5, 62, 80
7, 45232, Note_on_c, 5, 62, 0
7, 45292, Note_on_c, 5, 60, 87
7, 45414, Note_on_c, 5, 60, 0
7, 45486, Note_on_c, 5, 60, 88
7, 45594, Note_on_c, 5, 60, 0
7, 45676, Note_on_c, 5, 65, 96
7, 46188, Note_on_c, 5, 65, 0
7, 46260, Note_on_c, 5, 63, 94
7, 46316, Note_on_c, 5, 63, 0
7, 46352, Note_on_c, 5, 62, 87
7, 46398, Note_on_c, 5, 62, 0
7, 46444, Note_on_c, 5, 63, 90
7, 46494, Note_on_c, 5, 63, 0
7, 46536, Note_on_c, 5, 65, 82
7, 46590, Note_on_c, 5, 65, 0
7, 46636, Note_on_c, 5, 62, 83
7, 46678, Note_on_c, 5, 62, 0
7, 46720, Note_on_c, 5, 63, 92
7, 46770, Note_on_c, 5, 63, 0
7, 46824, Note_on_c, 5, 60, 91
7, 46976, Note_on_c, 5, 60, 0
7, 47024, Note_on_c, 5, 62, 75
7, 47060, Note_on_c, 5, 62, 0
7, 47100, Note_on_c, 5, 63, 86
7, 47154, Note_on_c, 5, 63, 0
7, 47208, Note_on_c, 5, 65, 94
7, 47680, Note_on_c, 5, 65, 0
7, 47790, Note_on_c, 5, 58, 89
7, 48088, Note_on_c, 5, 58, 0
7, 48176, Note_on_c, 5, 67, 79
7, 48288, Note_on_c, 5, 67, 0
7, 48364, Note_on_c, 5, 65, 95
7, 48632, Note_on_c, 5, 65, 0
7, 51440, Note_on_c, 5, 72, 96
7, 51962, Note_on_c, 5, 72, 0
7, 52012, Note_on_c, 5, 72, 87
7, 52176, Note_on_c, 5, 72, 0
7, 52210, Note_on_c, 5, 68, 91
7, 52562, Note_on_c, 5, 68, 0
7, 52600, Note_on_c, 5, 73, 92
7, 52948, Note_on_c, 5, 73, 0
7, 52980, Note_on_c, 5, 64, 88
7, 53494, Note_on_c, 5, 64, 0
7, 53548, Note_on_c, 5, 64, 83
7, 53702, Note_on_c, 5, 64, 0
7, 53740, Note_on_c, 5, 65, 82
7, 53990, Note_on_c, 5, 65, 0
7, 56232, Note_on_c, 5, 62, 91
7, 56280, Note_on_c, 5, 62, 0
7, 56428, Note_on_c, 5, 62, 89
7, 56470, Note_on_c, 5, 62, 0
7, 56630, Note_on_c, 5, 62, 85
7, 56672, Note_on_c, 5, 62, 0
7, 56820, Note_on_c, 5, 63, 92
7, 56866, Note_on_c, 5, 63, 0
7, 56904, Note_on_c, 5, 65, 80
7, 56948, Note_on_c, 5, 65, 0
7, 57008, Note_on_c, 5, 63, 86
7, 57048, Note_on_c, 5, 63, 0
7, 57090, Note_on_c, 5, 62, 74
7, 57132, Note_on_c, 5, 62, 0
7, 57194, Note_on_c, 5, 64, 91
7, 57236, Note_on_c, 5, 64, 0
7, 57282, Note_on_c, 5, 65, 81
7, 57332, Note_on_c, 5, 65, 0
7, 57380, Note_on_c, 5, 62, 74
7, 57422, Note_on_c, 5, 62, 0
7, 57474, Note_on_c, 5, 64, 82
7, 57518, Note_on_c, 5, 64, 0
7, 57578, Note_on_c, 5, 65, 88
7, 57622, Note_on_c, 5, 65, 0
7, 57662, Note_on_c, 5, 67, 80
7, 57708, Note_on_c, 5, 67, 0
7, 57768, Note_on_c, 5, 65, 72
7, 57808, Note_on_c, 5, 65, 0
7, 57856, Note_on_c, 5, 64, 64
7, 57904, Note_on_c, 5, 64, 0
7, 57960, Note_on_c, 5, 66, 84
7, 58010, Note_on_c, 5, 66, 0
7, 58060, Note_on_c, 5, 67, 79
7, 58112, Note_on_c, 5, 67, 0
7, 58156, Note_on_c, 5, 64, 75
7, 58196, Note_on_c, 5, 64, 0
7, 58246, Note_on_c, 5, 66, 86
7, 58288, Note_on_c, 5, 66, 0
7, 58350, Note_on_c, 5, 67, 92
7, 58468, Note_on_c, 5, 67, 0
7, 58546, Note_on_c, 5, 62, 78
7, 58668, Note_on_c, 5, 62, 0
7, 58734, Note_on_c, 5, 67, 88
7, 58844, Note_on_c, 5, 67, 0
7, 58928, Note_on_c, 5, 65, 79
7, 59034, Note_on_c, 5, 65, 0
7, 59114, Note_on_c, 5, 64, 83
7, 59204, Note_on_c, 5, 64, 0
7, 59308, Note_on_c, 5, 57, 89
7, 59400, Note_on_c, 5, 57, 0
7, 59504, Note_on_c, 5, 69, 89
7, 59600, Note_on_c, 5, 69, 0
7, 59694, Note_on_c, 5, 67, 94
7, 59776, Note_on_c, 5, 67, 0
7, 59882, Note_on_c, 5, 65, 94
7, 60160, Note_on_c, 5, 65, 0
7, 60282, Note_on_c, 5, 69, 84
7, 60488, Note_on_c, 5, 69, 0
7, 60560, Note_on_c, 5, 69, 80
7, 60612, Note_on_c, 5, 69, 0
7, 60658, Note_on_c, 5, 62, 80
7, 60770, Note_on_c, 5, 62, 0
7, 60844, Note_on_c, 5, 71, 85
7, 60940, Note_on_c, 5, 71, 0
7, 61034, Note_on_c, 5, 71, 92
7, 61288, Note_on_c, 5, 71, 0
7, 61418, Note_on_c, 5, 64, 91
7, 61534, Note_on_c, 5, 64, 0
7, 61622, Note_on_c, 5, 61, 93
7, 61774, Note_on_c, 5, 61, 0
7, 61810, Note_on_c, 5, 62, 85
7, 61950, Note_on_c, 5, 62, 0
7, 62000, Note_on_c, 5, 64, 90
7, 62140, Note_on_c, 5, 64, 0
7, 62196, Note_on_c, 5, 65, 94
7, 62328, Note_on_c, 5, 65, 0
7, 62390, Note_on_c, 5, 64, 78
7, 62436, Note_on_c, 5, 64, 0
7, 62478, Note_on_c, 5, 65, 89
7, 62532, Note_on_c, 5, 65, 0
7, 62576, Note_on_c, 5, 67, 99
7, 62718, Note_on_c, 5, 67, 0
7, 62768, Note_on_c, 5, 65, 80
7, 62816, Note_on_c, 5, 65, 0
7, 62854, Note_on_c, 5, 67, 91
7, 62904, Note_on_c, 5, 67, 0
7, 62952, Note_on_c, 5, 69, 92
7, 63116, Note_on_c, 5, 69, 0
7, 63146, Note_on_c, 5, 70, 82
7, 63296, Note_on_c, 5, 70, 0
7, 63344, Note_on_c, 5, 69, 89
7, 63492, Note_on_c, 5, 69, 0
7, 63538, Note_on_c, 5, 67, 89
7, 63680, Note_on_c, 5, 67, 0
7, 63728, Note_on_c, 5, 65, 83
7, 63864, Note_on_c, 5, 65, 0
7, 63910, Note_on_c, 5, 69, 84
7, 64040, Note_on_c, 5, 69, 0
7, 64110, Note_on_c, 5, 74, 99
7, 64830, Note_on_c, 5, 74, 0
7, 64872, Note_on_c, 5, 73, 76
7, 65182, Note_on_c, 5, 73, 0
7, 66420, Note_on_c, 5, 70, 92
7, 66916, Note_on_c, 5, 70, 0
7, 66984, Note_on_c, 5, 70, 93
7, 67142, Note_on_c, 5, 70, 0
7, 67184, Note_on_c, 5, 69, 81
7, 67332, Note_on_c, 5, 69, 0
7, 67376, Note_on_c, 5, 69, 85
7, 67524, Note_on_c, 5, 69, 0
7, 67570, Note_on_c, 5, 69, 91
7, 67948, Note_on_c, 5, 69, 0
7, 67956, Note_on_c, 5, 68, 84
7, 68336, Note_on_c, 5, 68, 0
7, 68340, Note_on_c, 5, 69, 73
7, 68468, Note_on_c, 5, 69, 0
7, 68532, Note_on_c, 5, 69, 73
7, 68806, Note_on_c, 5, 69, 0
7, 68898, Note_on_c, 5, 69, 99
7, 69050, Note_on_c, 5, 69, 0
7, 69098, Note_on_c, 5, 65, 88
7, 69442, Note_on_c, 5, 65, 0
7, 69498, Note_on_c, 5, 70, 97
7, 69834, Note_on_c, 5, 70, 0
7, 69876, Note_on_c, 5, 61, 92
7, 70378, Note_on_c, 5, 61, 0
7, 70448, Note_on_c, 5, 61, 91
7, 70602, Note_on_c, 5, 61, 0
7, 70636, Note_on_c, 5, 62, 92
7, 71066, Note_on_c, 5, 62, 0
7, 71214, Note_on_c, 5, 62, 91
7, 71348, Note_on_c, 5, 62, 0
7, 71412, Note_on_c, 5, 64, 99
7, 71894, Note_on_c, 5, 64, 0
7, 71982, Note_on_c, 5, 62, 82
7, 72026, Note_on_c, 5, 62, 0
7, 72068, Note_on_c, 5, 64, 85
7, 72110, Note_on_c, 5, 64, 0
7, 72170, Note_on_c, 5, 65, 101
7, 72462, Note_on_c, 5, 65, 0
7, 73124, Note_on_c, 5, 64, 103
7, 73210, Note_on_c, 5, 64, 0
7, 73326, Note_on_c, 5, 64, 88
7, 73412, Note_on_c, 5, 64, 0
7, 73516, Note_on_c, 5, 64, 90
7, 73616, Note_on_c, 5, 64, 0
7, 73706, Note_on_c, 5, 65, 95
7, 73758, Note_on_c, 5, 65, 0
7, 73800, Note_on_c, 5, 67, 84
7, 73846, Note_on_c, 5, 67, 0
7, 73908, Note_on_c, 5, 65, 85
7, 73948, Note_on_c, 5, 65, 0
7, 73992, Note_on_c, 5, 64, 83
7, 74046, Note_on_c, 5, 64, 0
7, 74092, Note_on_c, 5, 66, 95
7, 74138, Note_on_c, 5, 66, 0
7, 74188, Note_on_c, 5, 67, 91
7, 74240, Note_on_c, 5, 67, 0
7, 74280, Note_on_c, 5, 64, 87
7, 74330, Note_on_c, 5, 64, 0
7, 74370, Note_on_c, 5, 66, 94
7, 74428, Note_on_c, 5, 66, 0
7, 74474, Note_on_c, 5, 67, 96
7, 74524, Note_on_c, 5, 67, 0
7, 74568, Note_on_c, 5, 69, 85
7, 74618, Note_on_c, 5, 69, 0
7, 74664, Note_on_c, 5, 67, 91
7, 74708, Note_on_c, 5, 67, 0
7, 74754, Note_on_c, 5, 66, 90
7, 74802, Note_on_c, 5, 66, 0
7, 74846, Note_on_c, 5, 68, 90
7, 74892, Note_on_c, 5, 68, 0
7, 74942, Note_on_c, 5, 69, 84
7, 74988, Note_on_c, 5, 69, 0
7, 75040, Note_on_c, 5, 66, 90
7, 75086, Note_on_c, 5, 66, 0
7, 75130, Note_on_c, 5, 68, 89
7, 75174, Note_on_c, 5, 68, 0
7, 75236, Note_on_c, 5, 69, 101
7, 75510, Note_on_c, 5, 69, 0
7, 75626, Note_on_c, 5, 69, 101
7, 75824, Note_on_c, 5, 69, 0
7, 75906, Note_on_c, 5, 69, 91
7, 75950, Note_on_c, 5, 69, 0
7, 76008, Note_on_c, 5, 67, 101
7, 76330, Note_on_c, 5, 67, 0
7, 76406, Note_on_c, 5, 71, 105
7, 76650, Note_on_c, 5, 71, 0
7, 76702, Note_on_c, 5, 71, 81
7, 76758, Note_on_c, 5, 71, 0
7, 76792, Note_on_c, 5, 69, 94
7, 76942, Note_on_c, 5, 69, 0
7, 76984, Note_on_c, 5, 67, 92
7, 77136, Note_on_c, 5, 67, 0
7, 77164, Note_on_c, 5, 65, 91
7, 77302, Note_on_c, 5, 65, 0
7, 77354, Note_on_c, 5, 70, 95
7, 77494, Note_on_c, 5, 70, 0
7, 77554, Note_on_c, 5, 69, 99
7, 78054, Note_on_c, 5, 69, 0
7, 78128, Note_on_c, 5, 69, 87
7, 78272, Note_on_c, 5, 69, 0
7, 78330, Note_on_c, 5, 71, 91
7, 79110, Note_on_c, 5, 71, 0
7, 79856, Note_on_c, 5, 71, 108
7, 80122, Note_on_c, 5, 71, 0
7, 80164, Note_on_c, 5, 71, 92
7, 80216, Note_on_c, 5, 71, 0
7, 80250, Note_on_c, 5, 69, 95
7, 80580, Note_on_c, 5, 69, 0
7, 80626, Note_on_c, 5, 69, 99
7, 80958, Note_on_c, 5, 69, 0
7, 81010, Note_on_c, 5, 69, 96
7, 81518, Note_on_c, 5, 69, 0
7, 81580, Note_on_c, 5, 69, 80
7, 81728, Note_on_c, 5, 69, 0
7, 81792, Note_on_c, 5, 69, 77
7, 82948, Note_on_c, 5, 69, 0
7, 82948, End_track
8, 0, Start_track
8, 0, Title_t, "vle"
8, 396, Program_c, 6, 48
8, 397, Control_c, 6, 7, 110
8, 397, Control_c, 6, 10, 68
8, 576, Control_c, 6, 91, 120
8, 10160, Note_on_c, 6, 59, 94
8, 10208, Note_on_c, 6, 59, 0
8, 10354, Note_on_c, 6, 59, 88
8, 10398, Note_on_c, 6, 59, 0
8, 10548, Note_on_c, 6, 59, 78
8, 10600, Note_on_c, 6, 59, 0
8, 10746, Note_on_c, 6, 60, 71
8, 10806, Note_on_c, 6, 60, 0
8, 10838, Note_on_c, 6, 62, 75
8, 10880, Note_on_c, 6, 62, 0
8, 10928, Note_on_c, 6, 60, 80
8, 10962, Note_on_c, 6, 60, 0
8, 11012, Note_on_c, 6, 59, 83
8, 11058, Note_on_c, 6, 59, 0
8, 11112, Note_on_c, 6, 60, 82
8, 11150, Note_on_c, 6, 60, 0
8, 11200, Note_on_c, 6, 62, 74
8, 11250, Note_on_c, 6, 62, 0
8, 11298, Note_on_c, 6, 59, 80
8, 11346, Note_on_c, 6, 59, 0
8, 11398, Note_on_c, 6, 60, 80
8, 11444, Note_on_c, 6, 60, 0
8, 11500, Note_on_c, 6, 62, 85
8, 11548, Note_on_c, 6, 62, 0
8, 11590, Note_on_c, 6, 64, 80
8, 11636, Note_on_c, 6, 64, 0
8, 11682, Note_on_c, 6, 62, 78
8, 11718, Note_on_c, 6, 62, 0
8, 11770, Note_on_c, 6, 60, 80
8, 11814, Note_on_c, 6, 60, 0
8, 11878, Note_on_c, 6, 62, 81
8, 11918, Note_on_c, 6, 62, 0
8, 11964, Note_on_c, 6, 64, 79
8, 12008, Note_on_c, 6, 64, 0
8, 12064, Note_on_c, 6, 60, 80
8, 12100, Note_on_c, 6, 60, 0
8, 12148, Note_on_c, 6, 62, 79
8, 12180, Note_on_c, 6, 62, 0
8, 12254, Note_on_c, 6, 64, 91
8, 12408, Note_on_c, 6, 64, 0
8, 12448, Note_on_c, 6, 65, 81
8, 12490, Note_on_c, 6, 65, 0
8, 12536, Note_on_c, 6, 64, 82
8, 12584, Note_on_c, 6, 64, 0
8, 12646, Note_on_c, 6, 62, 85
8, 12692, Note_on_c, 6, 62, 0
8, 12732, Note_on_c, 6, 60, 78
8, 12768, Note_on_c, 6, 60, 0
8, 12824, Note_on_c, 6, 59, 72
8, 12860, Note_on_c, 6, 59, 0
8, 12914, Note_on_c, 6, 57, 85
8, 12946, Note_on_c, 6, 57, 0
8, 13024, Note_on_c, 6, 56, 87
8, 13158, Note_on_c, 6, 56, 0
8, 13218, Note_on_c, 6, 59, 80
8, 13342, Note_on_c, 6, 59, 0
8, 13406, Note_on_c, 6, 64, 74
8, 13556, Note_on_c, 6, 64, 0
8, 13602, Note_on_c, 6, 62, 75
8, 13736, Note_on_c, 6, 62, 0
8, 13794, Note_on_c, 6, 60, 78
8, 13934, Note_on_c, 6, 60, 0
8, 13990, Note_on_c, 6, 61, 78
8, 14142, Note_on_c, 6, 61, 0
8, 14184, Note_on_c, 6, 62, 77
8, 14334, Note_on_c, 6, 62, 0
8, 14374, Note_on_c, 6, 64, 81
8, 14480, Note_on_c, 6, 64, 0
8, 14566, Note_on_c, 6, 57, 88
8, 14698, Note_on_c, 6, 57, 0
8, 14756, Note_on_c, 6, 50, 82
8, 14904, Note_on_c, 6, 50, 0
8, 14944, Note_on_c, 6, 55, 80
8, 15104, Note_on_c, 6, 55, 0
8, 15140, Note_on_c, 6, 53, 81
8, 15298, Note_on_c, 6, 53, 0
8, 15326, Note_on_c, 6, 52, 77
8, 15498, Note_on_c, 6, 52, 0
8, 15526, Note_on_c, 6, 55, 71
8, 15672, Note_on_c, 6, 55, 0
8, 15712, Note_on_c, 6, 58, 72
8, 16078, Note_on_c, 6, 58, 0
8, 16100, Note_on_c, 6, 57, 76
8, 16320, Note_on_c, 6, 57, 0
8, 19192, Note_on_c, 6, 62, 94
8, 19708, Note_on_c, 6, 62, 0
8, 19756, Note_on_c, 6, 62, 103
8, 19926, Note_on_c, 6, 62, 0
8, 19952, Note_on_c, 6, 60, 103
8, 20308, Note_on_c, 6, 60, 0
8, 20338, Note_on_c, 6, 65, 101
8, 20680, Note_on_c, 6, 65, 0
8, 20708, Note_on_c, 6, 56, 98
8, 21246, Note_on_c, 6, 56, 0
8, 21302, Note_on_c, 6, 56, 90
8, 21460, Note_on_c, 6, 56, 0
8, 21480, Note_on_c, 6, 57, 92
8, 21956, Note_on_c, 6, 57, 0
8, 22062, Note_on_c, 6, 57, 92
8, 22212, Note_on_c, 6, 57, 0
8, 22248, Note_on_c, 6, 59, 96
8, 22766, Note_on_c, 6, 59, 0
8, 22824, Note_on_c, 6, 57, 84
8, 22884, Note_on_c, 6, 57, 0
8, 22916, Note_on_c, 6, 59, 88
8, 22976, Note_on_c, 6, 59, 0
8, 23016, Note_on_c, 6, 60, 91
8, 23152, Note_on_c, 6, 60, 0
8, 23208, Note_on_c, 6, 59, 83
8, 23260, Note_on_c, 6, 59, 0
8, 23294, Note_on_c, 6, 60, 89
8, 23350, Note_on_c, 6, 60, 0
8, 23402, Note_on_c, 6, 62, 94
8, 23552, Note_on_c, 6, 62, 0
8, 23590, Note_on_c, 6, 60, 85
8, 23632, Note_on_c, 6, 60, 0
8, 23676, Note_on_c, 6, 62, 83
8, 23736, Note_on_c, 6, 62, 0
8, 23782, Note_on_c, 6, 64, 88
8, 23936, Note_on_c, 6, 64, 0
8, 23976, Note_on_c, 6, 62, 92
8, 24134, Note_on_c, 6, 62, 0
8, 24172, Note_on_c, 6, 60, 92
8, 24336, Note_on_c, 6, 60, 0
8, 24362, Note_on_c, 6, 59, 85
8, 24510, Note_on_c, 6, 59, 0
8, 24556, Note_on_c, 6, 57, 90
8, 24598, Note_on_c, 6, 57, 0
8, 24644, Note_on_c, 6, 59, 91
8, 24684, Note_on_c, 6, 59, 0
8, 24736, Note_on_c, 6, 60, 91
8, 25078, Note_on_c, 6, 60, 0
8, 25120, Note_on_c, 6, 61, 93
8, 25292, Note_on_c, 6, 61, 0
8, 25326, Note_on_c, 6, 62, 94
8, 25492, Note_on_c, 6, 62, 0
8, 25512, Note_on_c, 6, 50, 108
8, 25660, Note_on_c, 6, 50, 0
8, 25698, Note_on_c, 6, 52, 103
8, 25872, Note_on_c, 6, 52, 0
8, 25890, Note_on_c, 6, 54, 90
8, 26044, Note_on_c, 6, 54, 0
8, 26086, Note_on_c, 6, 55, 82
8, 26134, Note_on_c, 6, 55, 0
8, 26176, Note_on_c, 6, 57, 95
8, 26226, Note_on_c, 6, 57, 0
8, 26274, Note_on_c, 6, 58, 92
8, 26638, Note_on_c, 6, 58, 0
8, 26670, Note_on_c, 6, 59, 96
8, 26824, Note_on_c, 6, 59, 0
8, 26862, Note_on_c, 6, 60, 96
8, 27008, Note_on_c, 6, 60, 0
8, 27042, Note_on_c, 6, 58, 97
8, 27186, Note_on_c, 6, 58, 0
8, 27234, Note_on_c, 6, 57, 101
8, 27372, Note_on_c, 6, 57, 0
8, 27420, Note_on_c, 6, 55, 89
8, 27582, Note_on_c, 6, 55, 0
8, 27634, Note_on_c, 6, 57, 103
8, 27668, Note_on_c, 6, 57, 0
8, 27722, Note_on_c, 6, 53, 90
8, 27770, Note_on_c, 6, 53, 0
8, 27812, Note_on_c, 6, 55, 92
8, 27856, Note_on_c, 6, 55, 0
8, 27908, Note_on_c, 6, 57, 95
8, 27950, Note_on_c, 6, 57, 0
8, 28000, Note_on_c, 6, 58, 97
8, 28050, Note_on_c, 6, 58, 0
8, 28098, Note_on_c, 6, 55, 84
8, 28142, Note_on_c, 6, 55, 0
8, 28190, Note_on_c, 6, 57, 92
8, 28224, Note_on_c, 6, 57, 0
8, 28274, Note_on_c, 6, 58, 90
8, 28320, Note_on_c, 6, 58, 0
8, 28376, Note_on_c, 6, 60, 96
8, 28514, Note_on_c, 6, 60, 0
8, 28564, Note_on_c, 6, 55, 89
8, 28708, Note_on_c, 6, 55, 0
8, 28756, Note_on_c, 6, 60, 95
8, 29290, Note_on_c, 6, 60, 0
8, 29344, Note_on_c, 6, 58, 90
8, 29400, Note_on_c, 6, 58, 0
8, 29436, Note_on_c, 6, 57, 94
8, 29484, Note_on_c, 6, 57, 0
8, 29532, Note_on_c, 6, 58, 89
8, 29582, Note_on_c, 6, 58, 0
8, 29622, Note_on_c, 6, 60, 87
8, 29672, Note_on_c, 6, 60, 0
8, 29720, Note_on_c, 6, 57, 92
8, 29762, Note_on_c, 6, 57, 0
8, 29816, Note_on_c, 6, 58, 85
8, 29874, Note_on_c, 6, 58, 0
8, 29932, Note_on_c, 6, 55, 88
8, 30090, Note_on_c, 6, 55, 0
8, 30124, Note_on_c, 6, 57, 83
8, 30172, Note_on_c, 6, 57, 0
8, 30200, Note_on_c, 6, 58, 87
8, 30260, Note_on_c, 6, 58, 0
8, 30306, Note_on_c, 6, 60, 96
8, 30666, Note_on_c, 6, 60, 0
8, 32242, Note_on_c, 6, 62, 108
8, 32244, Note_on_c, 6, 62, 0
8, 32244, Note_on_c, 6, 62, 105
8, 32752, Note_on_c, 6, 62, 0
8, 32814, Note_on_c, 6, 62, 94
8, 32966, Note_on_c, 6, 62, 0
8, 33006, Note_on_c, 6, 58, 99
8, 33340, Note_on_c, 6, 58, 0
8, 33386, Note_on_c, 6, 63, 104
8, 33726, Note_on_c, 6, 63, 0
8, 33770, Note_on_c, 6, 54, 93
8, 34254, Note_on_c, 6, 54, 0
8, 34350, Note_on_c, 6, 54, 90
8, 34486, Note_on_c, 6, 54, 0
8, 34532, Note_on_c, 6, 55, 99
8, 34950, Note_on_c, 6, 55, 0
8, 35118, Note_on_c, 6, 55, 92
8, 35244, Note_on_c, 6, 55, 0
8, 35310, Note_on_c, 6, 57, 110
8, 35808, Note_on_c, 6, 57, 0
8, 35880, Note_on_c, 6, 55, 74
8, 35928, Note_on_c, 6, 55, 0
8, 35976, Note_on_c, 6, 57, 90
8, 36026, Note_on_c, 6, 57, 0
8, 36074, Note_on_c, 6, 58, 95
8, 36226, Note_on_c, 6, 58, 0
8, 36268, Note_on_c, 6, 57, 90
8, 36310, Note_on_c, 6, 57, 0
8, 36352, Note_on_c, 6, 58, 88
8, 36402, Note_on_c, 6, 58, 0
8, 36450, Note_on_c, 6, 60, 91
8, 36606, Note_on_c, 6, 60, 0
8, 36642, Note_on_c, 6, 58, 90
8, 36698, Note_on_c, 6, 58, 0
8, 36734, Note_on_c, 6, 60, 88
8, 36790, Note_on_c, 6, 60, 0
8, 36840, Note_on_c, 6, 62, 92
8, 36994, Note_on_c, 6, 62, 0
8, 37032, Note_on_c, 6, 60, 91
8, 37182, Note_on_c, 6, 60, 0
8, 37226, Note_on_c, 6, 58, 90
8, 37392, Note_on_c, 6, 58, 0
8, 37426, Note_on_c, 6, 57, 95
8, 37580, Note_on_c, 6, 57, 0
8, 37606, Note_on_c, 6, 55, 89
8, 37774, Note_on_c, 6, 55, 0
8, 37808, Note_on_c, 6, 65, 87
8, 37954, Note_on_c, 6, 65, 0
8, 37988, Note_on_c, 6, 63, 95
8, 38160, Note_on_c, 6, 63, 0
8, 38182, Note_on_c, 6, 59, 84
8, 38322, Note_on_c, 6, 59, 0
8, 38376, Note_on_c, 6, 60, 87
8, 38520, Note_on_c, 6, 60, 0
8, 38576, Note_on_c, 6, 67, 92
8, 38710, Note_on_c, 6, 67, 0
8, 38770, Note_on_c, 6, 65, 92
8, 38824, Note_on_c, 6, 65, 0
8, 38860, Note_on_c, 6, 63, 92
8, 38916, Note_on_c, 6, 63, 0
8, 38954, Note_on_c, 6, 62, 78
8, 38996, Note_on_c, 6, 62, 0
8, 39040, Note_on_c, 6, 60, 82
8, 39096, Note_on_c, 6, 60, 0
8, 39150, Note_on_c, 6, 62, 92
8, 39208, Note_on_c, 6, 62, 0
8, 39236, Note_on_c, 6, 60, 85
8, 39286, Note_on_c, 6, 60, 0
8, 39324, Note_on_c, 6, 59, 76
8, 39372, Note_on_c, 6, 59, 0
8, 39414, Note_on_c, 6, 57, 89
8, 39468, Note_on_c, 6, 57, 0
8, 39518, Note_on_c, 6, 55, 81
8, 39572, Note_on_c, 6, 55, 0
8, 39612, Note_on_c, 6, 56, 89
8, 39676, Note_on_c, 6, 56, 0
8, 39726, Note_on_c, 6, 53, 82
8, 39776, Note_on_c, 6, 53, 0
8, 39810, Note_on_c, 6, 55, 81
8, 39868, Note_on_c, 6, 55, 0
8, 39908, Note_on_c, 6, 51, 92
8, 40082, Note_on_c, 6, 51, 0
8, 40092, Note_on_c, 6, 48, 85
8, 40242, Note_on_c, 6, 48, 0
8, 40288, Note_on_c, 6, 56, 105
8, 40816, Note_on_c, 6, 56, 0
8, 40860, Note_on_c, 6, 53, 82
8, 41026, Note_on_c, 6, 53, 0
8, 41062, Note_on_c, 6, 58, 88
8, 41808, Note_on_c, 6, 58, 0
8, 41848, Note_on_c, 6, 56, 89
8, 42188, Note_on_c, 6, 56, 0
8, 42224, Note_on_c, 6, 55, 90
8, 42392, Note_on_c, 6, 55, 0
8, 42426, Note_on_c, 6, 57, 90
8, 42474, Note_on_c, 6, 57, 0
8, 42506, Note_on_c, 6, 59, 90
8, 42558, Note_on_c, 6, 59, 0
8, 42598, Note_on_c, 6, 60, 90
8, 42748, Note_on_c, 6, 60, 0
8, 42782, Note_on_c, 6, 62, 88
8, 42946, Note_on_c, 6, 62, 0
8, 42988, Note_on_c, 6, 63, 94
8, 43050, Note_on_c, 6, 63, 0
8, 43080, Note_on_c, 6, 62, 78
8, 43120, Note_on_c, 6, 62, 0
8, 43164, Note_on_c, 6, 60, 71
8, 43218, Note_on_c, 6, 60, 0
8, 43252, Note_on_c, 6, 58, 85
8, 43322, Note_on_c, 6, 58, 0
8, 43376, Note_on_c, 6, 57, 92
8, 43496, Note_on_c, 6, 57, 0
8, 43548, Note_on_c, 6, 58, 91
8, 43898, Note_on_c, 6, 58, 0
8, 43946, Note_on_c, 6, 57, 94
8, 44106, Note_on_c, 6, 57, 0
8, 44138, Note_on_c, 6, 58, 92
8, 44294, Note_on_c, 6, 58, 0
8, 44318, Note_on_c, 6, 60, 88
8, 44492, Note_on_c, 6, 60, 0
8, 44524, Note_on_c, 6, 62, 90
8, 44768, Note_on_c, 6, 62, 0
8, 45480, Note_on_c, 6, 53, 113
8, 45580, Note_on_c, 6, 53, 0
8, 45672, Note_on_c, 6, 53, 103
8, 45772, Note_on_c, 6, 53, 0
8, 45866, Note_on_c, 6, 53, 99
8, 46008, Note_on_c, 6, 53, 0
8, 46072, Note_on_c, 6, 55, 101
8, 46128, Note_on_c, 6, 55, 0
8, 46162, Note_on_c, 6, 57, 95
8, 46214, Note_on_c, 6, 57, 0
8, 46258, Note_on_c, 6, 55, 88
8, 46310, Note_on_c, 6, 55, 0
8, 46340, Note_on_c, 6, 53, 89
8, 46400, Note_on_c, 6, 53, 0
8, 46440, Note_on_c, 6, 55, 95
8, 46492, Note_on_c, 6, 55, 0
8, 46528, Note_on_c, 6, 57, 95
8, 46590, Note_on_c, 6, 57, 0
8, 46624, Note_on_c, 6, 53, 89
8, 46682, Note_on_c, 6, 53, 0
8, 46716, Note_on_c, 6, 55, 89
8, 46772, Note_on_c, 6, 55, 0
8, 46816, Note_on_c, 6, 57, 101
8, 46868, Note_on_c, 6, 57, 0
8, 46902, Note_on_c, 6, 58, 89
8, 46962, Note_on_c, 6, 58, 0
8, 47000, Note_on_c, 6, 57, 96
8, 47044, Note_on_c, 6, 57, 0
8, 47090, Note_on_c, 6, 55, 88
8, 47146, Note_on_c, 6, 55, 0
8, 47194, Note_on_c, 6, 57, 92
8, 47236, Note_on_c, 6, 57, 0
8, 47278, Note_on_c, 6, 58, 90
8, 47332, Note_on_c, 6, 58, 0
8, 47376, Note_on_c, 6, 55, 89
8, 47416, Note_on_c, 6, 55, 0
8, 47464, Note_on_c, 6, 57, 91
8, 47512, Note_on_c, 6, 57, 0
8, 47576, Note_on_c, 6, 58, 94
8, 47828, Note_on_c, 6, 58, 0
8, 48558, Note_on_c, 6, 60, 103
8, 48660, Note_on_c, 6, 60, 0
8, 48756, Note_on_c, 6, 60, 99
8, 48848, Note_on_c, 6, 60, 0
8, 48956, Note_on_c, 6, 60, 96
8, 49054, Note_on_c, 6, 60, 0
8, 49138, Note_on_c, 6, 62, 96
8, 49176, Note_on_c, 6, 62, 0
8, 49222, Note_on_c, 6, 63, 99
8, 49270, Note_on_c, 6, 63, 0
8, 49320, Note_on_c, 6, 62, 92
8, 49360, Note_on_c, 6, 62, 0
8, 49408, Note_on_c, 6, 60, 91
8, 49458, Note_on_c, 6, 60, 0
8, 49512, Note_on_c, 6, 62, 92
8, 49554, Note_on_c, 6, 62, 0
8, 49602, Note_on_c, 6, 63, 99
8, 49662, Note_on_c, 6, 63, 0
8, 49706, Note_on_c, 6, 60, 89
8, 49758, Note_on_c, 6, 60, 0
8, 49800, Note_on_c, 6, 62, 90
8, 49848, Note_on_c, 6, 62, 0
8, 49892, Note_on_c, 6, 63, 97
8, 49944, Note_on_c, 6, 63, 0
8, 49984, Note_on_c, 6, 65, 94
8, 50036, Note_on_c, 6, 65, 0
8, 50078, Note_on_c, 6, 63, 94
8, 50124, Note_on_c, 6, 63, 0
8, 50166, Note_on_c, 6, 62, 90
8, 50210, Note_on_c, 6, 62, 0
8, 50262, Note_on_c, 6, 63, 95
8, 50318, Note_on_c, 6, 63, 0
8, 50358, Note_on_c, 6, 65, 91
8, 50408, Note_on_c, 6, 65, 0
8, 50456, Note_on_c, 6, 62, 90
8, 50494, Note_on_c, 6, 62, 0
8, 50540, Note_on_c, 6, 63, 93
8, 50594, Note_on_c, 6, 63, 0
8, 50646, Note_on_c, 6, 65, 99
8, 50786, Note_on_c, 6, 65, 0
8, 50848, Note_on_c, 6, 62, 95
8, 51000, Note_on_c, 6, 62, 0
8, 51042, Note_on_c, 6, 64, 96
8, 51190, Note_on_c, 6, 64, 0
8, 51218, Note_on_c, 6, 65, 99
8, 51382, Note_on_c, 6, 65, 0
8, 51426, Note_on_c, 6, 67, 99
8, 51794, Note_on_c, 6, 67, 0
8, 51822, Note_on_c, 6, 65, 92
8, 51974, Note_on_c, 6, 65, 0
8, 52004, Note_on_c, 6, 64, 88
8, 52182, Note_on_c, 6, 64, 0
8, 52200, Note_on_c, 6, 65, 87
8, 52372, Note_on_c, 6, 65, 0
8, 52388, Note_on_c, 6, 53, 85
8, 52552, Note_on_c, 6, 53, 0
8, 52582, Note_on_c, 6, 58, 91
8, 52756, Note_on_c, 6, 58, 0
8, 52782, Note_on_c, 6, 55, 85
8, 52942, Note_on_c, 6, 55, 0
8, 52968, Note_on_c, 6, 60, 96
8, 53168, Note_on_c, 6, 60, 0
8, 54692, Note_on_c, 6, 55, 99
8, 54780, Note_on_c, 6, 55, 0
8, 54888, Note_on_c, 6, 55, 96
8, 54962, Note_on_c, 6, 55, 0
8, 55076, Note_on_c, 6, 55, 92
8, 55170, Note_on_c, 6, 55, 0
8, 55266, Note_on_c, 6, 56, 95
8, 55322, Note_on_c, 6, 56, 0
8, 55358, Note_on_c, 6, 58, 90
8, 55412, Note_on_c, 6, 58, 0
8, 55454, Note_on_c, 6, 56, 91
8, 55516, Note_on_c, 6, 56, 0
8, 55544, Note_on_c, 6, 55, 85
8, 55610, Note_on_c, 6, 55, 0
8, 55656, Note_on_c, 6, 57, 99
8, 55708, Note_on_c, 6, 57, 0
8, 55746, Note_on_c, 6, 58, 89
8, 55810, Note_on_c, 6, 58, 0
8, 55838, Note_on_c, 6, 55, 87
8, 55890, Note_on_c, 6, 55, 0
8, 55934, Note_on_c, 6, 57, 95
8, 55986, Note_on_c, 6, 57, 0
8, 56030, Note_on_c, 6, 58, 90
8, 56082, Note_on_c, 6, 58, 0
8, 56120, Note_on_c, 6, 60, 88
8, 56174, Note_on_c, 6, 60, 0
8, 56214, Note_on_c, 6, 58, 88
8, 56268, Note_on_c, 6, 58, 0
8, 56304, Note_on_c, 6, 57, 89
8, 56360, Note_on_c, 6, 57, 0
8, 56416, Note_on_c, 6, 59, 99
8, 56466, Note_on_c, 6, 59, 0
8, 56508, Note_on_c, 6, 60, 90
8, 56560, Note_on_c, 6, 60, 0
8, 56610, Note_on_c, 6, 57, 92
8, 56654, Note_on_c, 6, 57, 0
8, 56704, Note_on_c, 6, 59, 94
8, 56764, Note_on_c, 6, 59, 0
8, 56816, Note_on_c, 6, 60, 94
8, 56950, Note_on_c, 6, 60, 0
8, 57004, Note_on_c, 6, 55, 88
8, 57150, Note_on_c, 6, 55, 0
8, 57202, Note_on_c, 6, 60, 92
8, 57334, Note_on_c, 6, 60, 0
8, 57380, Note_on_c, 6, 58, 92
8, 57524, Note_on_c, 6, 58, 0
8, 57578, Note_on_c, 6, 57, 87
8, 57746, Note_on_c, 6, 57, 0
8, 57768, Note_on_c, 6, 50, 81
8, 57922, Note_on_c, 6, 50, 0
8, 57964, Note_on_c, 6, 62, 88
8, 58112, Note_on_c, 6, 62, 0
8, 58152, Note_on_c, 6, 60, 94
8, 58316, Note_on_c, 6, 60, 0
8, 58354, Note_on_c, 6, 58, 104
8, 58508, Note_on_c, 6, 58, 0
8, 59310, Note_on_c, 6, 55, 95
8, 59436, Note_on_c, 6, 55, 0
8, 59496, Note_on_c, 6, 55, 92
8, 59624, Note_on_c, 6, 55, 0
8, 59688, Note_on_c, 6, 57, 103
8, 59808, Note_on_c, 6, 57, 0
8, 59882, Note_on_c, 6, 57, 110
8, 60160, Note_on_c, 6, 57, 0
8, 60272, Note_on_c, 6, 57, 101
8, 60496, Note_on_c, 6, 57, 0
8, 60566, Note_on_c, 6, 57, 95
8, 60608, Note_on_c, 6, 57, 0
8, 60654, Note_on_c, 6, 59, 95
8, 60884, Note_on_c, 6, 59, 0
8, 61048, Note_on_c, 6, 59, 103
8, 61252, Note_on_c, 6, 59, 0
8, 61314, Note_on_c, 6, 59, 88
8, 61368, Note_on_c, 6, 59, 0
8, 61418, Note_on_c, 6, 61, 95
8, 61562, Note_on_c, 6, 61, 0
8, 61616, Note_on_c, 6, 57, 101
8, 61754, Note_on_c, 6, 57, 0
8, 61804, Note_on_c, 6, 59, 95
8, 61926, Note_on_c, 6, 59, 0
8, 61978, Note_on_c, 6, 61, 91
8, 62118, Note_on_c, 6, 61, 0
8, 62184, Note_on_c, 6, 62, 96
8, 62694, Note_on_c, 6, 62, 0
8, 62768, Note_on_c, 6, 62, 92
8, 62910, Note_on_c, 6, 62, 0
8, 62964, Note_on_c, 6, 64, 95
8, 63282, Note_on_c, 6, 64, 0
8, 63344, Note_on_c, 6, 57, 99
8, 63842, Note_on_c, 6, 57, 0
8, 63916, Note_on_c, 6, 53, 94
8, 64082, Note_on_c, 6, 53, 0
8, 64116, Note_on_c, 6, 58, 95
8, 64588, Note_on_c, 6, 58, 0
8, 64684, Note_on_c, 6, 55, 87
8, 64828, Note_on_c, 6, 55, 0
8, 64874, Note_on_c, 6, 64, 83
8, 65022, Note_on_c, 6, 64, 0
8, 65058, Note_on_c, 6, 64, 76
8, 65214, Note_on_c, 6, 64, 0
8, 65250, Note_on_c, 6, 62, 87
8, 65408, Note_on_c, 6, 62, 0
8, 65452, Note_on_c, 6, 61, 83
8, 65504, Note_on_c, 6, 61, 0
8, 65540, Note_on_c, 6, 62, 79
8, 65602, Note_on_c, 6, 62, 0
8, 65644, Note_on_c, 6, 64, 88
8, 65694, Note_on_c, 6, 64, 0
8, 65738, Note_on_c, 6, 65, 85
8, 65792, Note_on_c, 6, 65, 0
8, 65834, Note_on_c, 6, 67, 85
8, 65878, Note_on_c, 6, 67, 0
8, 65922, Note_on_c, 6, 65, 87
8, 65976, Note_on_c, 6, 65, 0
8, 66026, Note_on_c, 6, 64, 95
8, 66190, Note_on_c, 6, 64, 0
8, 66210, Note_on_c, 6, 62, 80
8, 66342, Note_on_c, 6, 62, 0
8, 66396, Note_on_c, 6, 61, 90
8, 66622, Note_on_c, 6, 61, 0
8, 66680, Note_on_c, 6, 62, 82
8, 66754, Note_on_c, 6, 62, 0
8, 66796, Note_on_c, 6, 64, 90
8, 67124, Note_on_c, 6, 64, 0
8, 67182, Note_on_c, 6, 57, 96
8, 67350, Note_on_c, 6, 57, 0
8, 67370, Note_on_c, 6, 61, 86
8, 67546, Note_on_c, 6, 61, 0
8, 67558, Note_on_c, 6, 62, 77
8, 67720, Note_on_c, 6, 62, 0
8, 67748, Note_on_c, 6, 65, 68
8, 67946, Note_on_c, 6, 64, 80
8, 67960, Note_on_c, 6, 65, 0
8, 68110, Note_on_c, 6, 64, 0
8, 68126, Note_on_c, 6, 62, 76
8, 68308, Note_on_c, 6, 62, 0
8, 68332, Note_on_c, 6, 64, 85
8, 68474, Note_on_c, 6, 64, 0
8, 68530, Note_on_c, 6, 57, 105
8, 68662, Note_on_c, 6, 57, 0
8, 68712, Note_on_c, 6, 59, 99
8, 68858, Note_on_c, 6, 59, 0
8, 68898, Note_on_c, 6, 61, 92
8, 69064, Note_on_c, 6, 61, 0
8, 69102, Note_on_c, 6, 62, 88
8, 69240, Note_on_c, 6, 62, 0
8, 69294, Note_on_c, 6, 50, 96
8, 69458, Note_on_c, 6, 50, 0
8, 69476, Note_on_c, 6, 55, 85
8, 69640, Note_on_c, 6, 55, 0
8, 69658, Note_on_c, 6, 52, 80
8, 69826, Note_on_c, 6, 52, 0
8, 69860, Note_on_c, 6, 57, 75
8, 70024, Note_on_c, 6, 57, 0
8, 70044, Note_on_c, 6, 58, 78
8, 70224, Note_on_c, 6, 58, 0
8, 70244, Note_on_c, 6, 57, 85
8, 70402, Note_on_c, 6, 57, 0
8, 70436, Note_on_c, 6, 55, 80
8, 70600, Note_on_c, 6, 55, 0
8, 70636, Note_on_c, 6, 53, 89
8, 70792, Note_on_c, 6, 53, 0
8, 70826, Note_on_c, 6, 50, 87
8, 70982, Note_on_c, 6, 50, 0
8, 71008, Note_on_c, 6, 55, 87
8, 71154, Note_on_c, 6, 55, 0
8, 71200, Note_on_c, 6, 53, 96
8, 71352, Note_on_c, 6, 53, 0
8, 71400, Note_on_c, 6, 52, 89
8, 71532, Note_on_c, 6, 52, 0
8, 71582, Note_on_c, 6, 48, 88
8, 71730, Note_on_c, 6, 48, 0
8, 71782, Note_on_c, 6, 57, 92
8, 71924, Note_on_c, 6, 57, 0
8, 71968, Note_on_c, 6, 57, 99
8, 72078, Note_on_c, 6, 57, 0
8, 72166, Note_on_c, 6, 53, 96
8, 72476, Note_on_c, 6, 53, 0
8, 72570, Note_on_c, 6, 62, 90
8, 72874, Note_on_c, 6, 62, 0
8, 72950, Note_on_c, 6, 55, 83
8, 73188, Note_on_c, 6, 55, 0
8, 73904, Note_on_c, 6, 57, 89
8, 74078, Note_on_c, 6, 57, 0
8, 74106, Note_on_c, 6, 62, 85
8, 74260, Note_on_c, 6, 62, 0
8, 74282, Note_on_c, 6, 60, 87
8, 74428, Note_on_c, 6, 60, 0
8, 74478, Note_on_c, 6, 59, 92
8, 74612, Note_on_c, 6, 59, 0
8, 74670, Note_on_c, 6, 59, 94
8, 74824, Note_on_c, 6, 59, 0
8, 74862, Note_on_c, 6, 64, 90
8, 75016, Note_on_c, 6, 64, 0
8, 75056, Note_on_c, 6, 62, 92
8, 75204, Note_on_c, 6, 62, 0
8, 75242, Note_on_c, 6, 60, 101
8, 75596, Note_on_c, 6, 60, 0
8, 75636, Note_on_c, 6, 62, 95
8, 75846, Note_on_c, 6, 62, 0
8, 75916, Note_on_c, 6, 62, 91
8, 75968, Note_on_c, 6, 62, 0
8, 76010, Note_on_c, 6, 62, 85
8, 76354, Note_on_c, 6, 62, 0
8, 76408, Note_on_c, 6, 64, 99
8, 76614, Note_on_c, 6, 64, 0
8, 76688, Note_on_c, 6, 64, 95
8, 76742, Note_on_c, 6, 64, 0
8, 76782, Note_on_c, 6, 64, 94
8, 77114, Note_on_c, 6, 64, 0
8, 77174, Note_on_c, 6, 62, 99
8, 77318, Note_on_c, 6, 62, 0
8, 77362, Note_on_c, 6, 65, 94
8, 77498, Note_on_c, 6, 65, 0
8, 77554, Note_on_c, 6, 64, 99
8, 78086, Note_on_c, 6, 64, 0
8, 78130, Note_on_c, 6, 64, 105
8, 78292, Note_on_c, 6, 64, 0
8, 78310, Note_on_c, 6, 65, 95
8, 79130, Note_on_c, 6, 65, 0
8, 79856, Note_on_c, 6, 65, 108
8, 80112, Note_on_c, 6, 65, 0
8, 80154, Note_on_c, 6, 65, 95
8, 80228, Note_on_c, 6, 65, 0
8, 80260, Note_on_c, 6, 64, 99
8, 80616, Note_on_c, 6, 64, 0
8, 80642, Note_on_c, 6, 65, 105
8, 81368, Note_on_c, 6, 65, 0
8, 81398, Note_on_c, 6, 64, 96
8, 81750, Note_on_c, 6, 64, 0
8, 81780, Note_on_c, 6, 62, 94
8, 82944, Note_on_c, 6, 62, 0
8, 82944, End_track
9, 0, Start_track
9, 0, Title_t, "cell"
9, 398, Program_c, 7, 48
9, 399, Control_c, 7, 7, 110
9, 399, Control_c, 7, 10, 72
9, 576, Control_c, 7, 91, 120
9, 3066, Note_on_c, 7, 57, 110
9, 3538, Note_on_c, 7, 57, 0
9, 3636, Note_on_c, 7, 57, 105
9, 3782, Note_on_c, 7, 57, 0
9, 3836, Note_on_c, 7, 53, 105
9, 4146, Note_on_c, 7, 53, 0
9, 4218, Note_on_c, 7, 58, 97
9, 4560, Note_on_c, 7, 58, 0
9, 4604, Note_on_c, 7, 49, 99
9, 4798, Note_on_c, 7, 64, 94
9, 4838, Note_on_c, 7, 64, 0
9, 4978, Note_on_c, 7, 64, 94
9, 5020, Note_on_c, 7, 64, 0
9, 5114, Note_on_c, 7, 49, 0
9, 5162, Note_on_c, 7, 64, 87
9, 5172, Note_on_c, 7, 49, 95
9, 5204, Note_on_c, 7, 64, 0
9, 5324, Note_on_c, 7, 49, 0
9, 5358, Note_on_c, 7, 65, 91
9, 5360, Note_on_c, 7, 50, 96
9, 5398, Note_on_c, 7, 65, 0
9, 5448, Note_on_c, 7, 67, 83
9, 5492, Note_on_c, 7, 67, 0
9, 5544, Note_on_c, 7, 65, 84
9, 5582, Note_on_c, 7, 65, 0
9, 5634, Note_on_c, 7, 64, 85
9, 5674, Note_on_c, 7, 64, 0
9, 5732, Note_on_c, 7, 65, 88
9, 5772, Note_on_c, 7, 65, 0
9, 5816, Note_on_c, 7, 67, 83
9, 5846, Note_on_c, 7, 50, 0
9, 5858, Note_on_c, 7, 67, 0
9, 5916, Note_on_c, 7, 64, 87
9, 5932, Note_on_c, 7, 50, 99
9, 5950, Note_on_c, 7, 64, 0
9, 6004, Note_on_c, 7, 65, 81
9, 6046, Note_on_c, 7, 65, 0
9, 6078, Note_on_c, 7, 50, 0
9, 6112, Note_on_c, 7, 67, 94
9, 6128, Note_on_c, 7, 52, 96
9, 6152, Note_on_c, 7, 67, 0
9, 6204, Note_on_c, 7, 69, 82
9, 6244, Note_on_c, 7, 69, 0
9, 6310, Note_on_c, 7, 67, 84
9, 6344, Note_on_c, 7, 67, 0
9, 6396, Note_on_c, 7, 65, 80
9, 6438, Note_on_c, 7, 65, 0
9, 6502, Note_on_c, 7, 67, 90
9, 6530, Note_on_c, 7, 67, 0
9, 6588, Note_on_c, 7, 69, 83
9, 6608, Note_on_c, 7, 52, 0
9, 6628, Note_on_c, 7, 69, 0
9, 6690, Note_on_c, 7, 65, 79
9, 6696, Note_on_c, 7, 50, 87
9, 6726, Note_on_c, 7, 65, 0
9, 6738, Note_on_c, 7, 50, 0
9, 6782, Note_on_c, 7, 52, 83
9, 6782, Note_on_c, 7, 67, 80
9, 6816, Note_on_c, 7, 52, 0
9, 6820, Note_on_c, 7, 67, 0
9, 6884, Note_on_c, 7, 53, 96
9, 6886, Note_on_c, 7, 69, 80
9, 7026, Note_on_c, 7, 69, 0
9, 7032, Note_on_c, 7, 53, 0
9, 7080, Note_on_c, 7, 52, 80
9, 7080, Note_on_c, 7, 70, 89
9, 7122, Note_on_c, 7, 52, 0
9, 7130, Note_on_c, 7, 70, 0
9, 7160, Note_on_c, 7, 53, 90
9, 7170, Note_on_c, 7, 69, 83
9, 7202, Note_on_c, 7, 53, 0
9, 7214, Note_on_c, 7, 69, 0
9, 7264, Note_on_c, 7, 67, 80
9, 7266, Note_on_c, 7, 55, 92
9, 7302, Note_on_c, 7, 67, 0
9, 7354, Note_on_c, 7, 65, 74
9, 7396, Note_on_c, 7, 65, 0
9, 7412, Note_on_c, 7, 55, 0
9, 7452, Note_on_c, 7, 64, 85
9, 7458, Note_on_c, 7, 53, 84
9, 7484, Note_on_c, 7, 64, 0
9, 7502, Note_on_c, 7, 53, 0
9, 7538, Note_on_c, 7, 62, 78
9, 7542, Note_on_c, 7, 55, 78
9, 7586, Note_on_c, 7, 62, 0
9, 7596, Note_on_c, 7, 55, 0
9, 7646, Note_on_c, 7, 61, 87
9, 7648, Note_on_c, 7, 57, 101
9, 7796, Note_on_c, 7, 57, 0
9, 7800, Note_on_c, 7, 61, 0
9, 7838, Note_on_c, 7, 64, 85
9, 7844, Note_on_c, 7, 55, 88
9, 7974, Note_on_c, 7, 64, 0
9, 7990, Note_on_c, 7, 55, 0
9, 8034, Note_on_c, 7, 69, 88
9, 8042, Note_on_c, 7, 53, 95
9, 8178, Note_on_c, 7, 53, 0
9, 8184, Note_on_c, 7, 69, 0
9, 8226, Note_on_c, 7, 52, 85
9, 8226, Note_on_c, 7, 67, 92
9, 8336, Note_on_c, 7, 67, 0
9, 8382, Note_on_c, 7, 52, 0
9, 8424, Note_on_c, 7, 50, 91
9, 8570, Note_on_c, 7, 50, 0
9, 8616, Note_on_c, 7, 48, 87
9, 8764, Note_on_c, 7, 48, 0
9, 8804, Note_on_c, 7, 47, 91
9, 8964, Note_on_c, 7, 47, 0
9, 8994, Note_on_c, 7, 52, 84
9, 9138, Note_on_c, 7, 52, 0
9, 9200, Note_on_c, 7, 45, 99
9, 9334, Note_on_c, 7, 45, 0
9, 9392, Note_on_c, 7, 53, 82
9, 9444, Note_on_c, 7, 53, 0
9, 9478, Note_on_c, 7, 52, 85
9, 9532, Note_on_c, 7, 52, 0
9, 9570, Note_on_c, 7, 50, 88
9, 9622, Note_on_c, 7, 50, 0
9, 9664, Note_on_c, 7, 47, 83
9, 9704, Note_on_c, 7, 47, 0
9, 9756, Note_on_c, 7, 48, 83
9, 9796, Note_on_c, 7, 48, 0
9, 9846, Note_on_c, 7, 50, 87
9, 9884, Note_on_c, 7, 50, 0
9, 9956, Note_on_c, 7, 52, 94
9, 10492, Note_on_c, 7, 52, 0
9, 10550, Note_on_c, 7, 52, 85
9, 10684, Note_on_c, 7, 52, 0
9, 10734, Note_on_c, 7, 57, 94
9, 10852, Note_on_c, 7, 57, 0
9, 10908, Note_on_c, 7, 45, 94
9, 11046, Note_on_c, 7, 45, 0
9, 11112, Note_on_c, 7, 57, 108
9, 11816, Note_on_c, 7, 57, 0
9, 11886, Note_on_c, 7, 55, 88
9, 11944, Note_on_c, 7, 55, 0
9, 11972, Note_on_c, 7, 53, 87
9, 12004, Note_on_c, 7, 53, 0
9, 12062, Note_on_c, 7, 52, 79
9, 12108, Note_on_c, 7, 52, 0
9, 12144, Note_on_c, 7, 50, 87
9, 12188, Note_on_c, 7, 50, 0
9, 12250, Note_on_c, 7, 48, 95
9, 12590, Note_on_c, 7, 48, 0
9, 12660, Note_on_c, 7, 47, 99
9, 12806, Note_on_c, 7, 47, 0
9, 12840, Note_on_c, 7, 53, 88
9, 12984, Note_on_c, 7, 53, 0
9, 13046, Note_on_c, 7, 52, 92
9, 13268, Note_on_c, 7, 52, 0
9, 13316, Note_on_c, 7, 54, 81
9, 13366, Note_on_c, 7, 54, 0
9, 13410, Note_on_c, 7, 56, 84
9, 13454, Note_on_c, 7, 56, 0
9, 13500, Note_on_c, 7, 57, 81
9, 13546, Note_on_c, 7, 57, 0
9, 13600, Note_on_c, 7, 54, 78
9, 13644, Note_on_c, 7, 54, 0
9, 13688, Note_on_c, 7, 56, 86
9, 13728, Note_on_c, 7, 56, 0
9, 13800, Note_on_c, 7, 57, 96
9, 13918, Note_on_c, 7, 57, 0
9, 13984, Note_on_c, 7, 45, 101
9, 14136, Note_on_c, 7, 45, 0
9, 14182, Note_on_c, 7, 47, 89
9, 14322, Note_on_c, 7, 47, 0
9, 14372, Note_on_c, 7, 49, 88
9, 14520, Note_on_c, 7, 49, 0
9, 14570, Note_on_c, 7, 50, 91
9, 14704, Note_on_c, 7, 50, 0
9, 14762, Note_on_c, 7, 50, 91
9, 14900, Note_on_c, 7, 50, 0
9, 14950, Note_on_c, 7, 55, 91
9, 15088, Note_on_c, 7, 55, 0
9, 15136, Note_on_c, 7, 53, 96
9, 15280, Note_on_c, 7, 53, 0
9, 15338, Note_on_c, 7, 52, 95
9, 15466, Note_on_c, 7, 52, 0
9, 15542, Note_on_c, 7, 52, 88
9, 15654, Note_on_c, 7, 52, 0
9, 15722, Note_on_c, 7, 52, 92
9, 15846, Note_on_c, 7, 52, 0
9, 15920, Note_on_c, 7, 52, 88
9, 16052, Note_on_c, 7, 52, 0
9, 16108, Note_on_c, 7, 53, 96
9, 16164, Note_on_c, 7, 53, 0
9, 16192, Note_on_c, 7, 55, 85
9, 16250, Note_on_c, 7, 55, 0
9, 16292, Note_on_c, 7, 53, 90
9, 16340, Note_on_c, 7, 53, 0
9, 16376, Note_on_c, 7, 52, 87
9, 16420, Note_on_c, 7, 52, 0
9, 16482, Note_on_c, 7, 53, 90
9, 16528, Note_on_c, 7, 53, 0
9, 16572, Note_on_c, 7, 55, 83
9, 16630, Note_on_c, 7, 55, 0
9, 16680, Note_on_c, 7, 52, 91
9, 16728, Note_on_c, 7, 52, 0
9, 16768, Note_on_c, 7, 53, 85
9, 16826, Note_on_c, 7, 53, 0
9, 16874, Note_on_c, 7, 55, 92
9, 16928, Note_on_c, 7, 55, 0
9, 16962, Note_on_c, 7, 57, 82
9, 17010, Note_on_c, 7, 57, 0
9, 17058, Note_on_c, 7, 55, 85
9, 17104, Note_on_c, 7, 55, 0
9, 17146, Note_on_c, 7, 53, 91
9, 17188, Note_on_c, 7, 53, 0
9, 17248, Note_on_c, 7, 55, 88
9, 17288, Note_on_c, 7, 55, 0
9, 17332, Note_on_c, 7, 57, 85
9, 17378, Note_on_c, 7, 57, 0
9, 17438, Note_on_c, 7, 53, 90
9, 17480, Note_on_c, 7, 53, 0
9, 17526, Note_on_c, 7, 55, 83
9, 17564, Note_on_c, 7, 55, 0
9, 17628, Note_on_c, 7, 57, 95
9, 17766, Note_on_c, 7, 57, 0
9, 17822, Note_on_c, 7, 58, 90
9, 17864, Note_on_c, 7, 58, 0
9, 17906, Note_on_c, 7, 57, 88
9, 17956, Note_on_c, 7, 57, 0
9, 18006, Note_on_c, 7, 55, 88
9, 18058, Note_on_c, 7, 55, 0
9, 18100, Note_on_c, 7, 53, 89
9, 18128, Note_on_c, 7, 53, 0
9, 18196, Note_on_c, 7, 52, 79
9, 18242, Note_on_c, 7, 52, 0
9, 18294, Note_on_c, 7, 50, 87
9, 18342, Note_on_c, 7, 50, 0
9, 18406, Note_on_c, 7, 49, 94
9, 18546, Note_on_c, 7, 49, 0
9, 18598, Note_on_c, 7, 52, 87
9, 18730, Note_on_c, 7, 52, 0
9, 18788, Note_on_c, 7, 57, 91
9, 18932, Note_on_c, 7, 57, 0
9, 18978, Note_on_c, 7, 55, 85
9, 19112, Note_on_c, 7, 55, 0
9, 19168, Note_on_c, 7, 53, 83
9, 19202, Note_on_c, 7, 53, 0
9, 19252, Note_on_c, 7, 52, 80
9, 19294, Note_on_c, 7, 52, 0
9, 19358, Note_on_c, 7, 50, 82
9, 19394, Note_on_c, 7, 50, 0
9, 19446, Note_on_c, 7, 48, 80
9, 19478, Note_on_c, 7, 48, 0
9, 19552, Note_on_c, 7, 47, 96
9, 19876, Note_on_c, 7, 47, 0
9, 19946, Note_on_c, 7, 48, 99
9, 20272, Note_on_c, 7, 48, 0
9, 20332, Note_on_c, 7, 50, 103
9, 20686, Note_on_c, 7, 50, 0
9, 20724, Note_on_c, 7, 52, 94
9, 21134, Note_on_c, 7, 52, 0
9, 21306, Note_on_c, 7, 52, 89
9, 21432, Note_on_c, 7, 52, 0
9, 21492, Note_on_c, 7, 57, 103
9, 21900, Note_on_c, 7, 57, 0
9, 21968, Note_on_c, 7, 55, 84
9, 22012, Note_on_c, 7, 55, 0
9, 22058, Note_on_c, 7, 53, 82
9, 22094, Note_on_c, 7, 53, 0
9, 22142, Note_on_c, 7, 52, 84
9, 22188, Note_on_c, 7, 52, 0
9, 22250, Note_on_c, 7, 53, 99
9, 22382, Note_on_c, 7, 53, 0
9, 22436, Note_on_c, 7, 50, 92
9, 22564, Note_on_c, 7, 50, 0
9, 22630, Note_on_c, 7, 55, 90
9, 22974, Note_on_c, 7, 55, 0
9, 23020, Note_on_c, 7, 48, 91
9, 23166, Note_on_c, 7, 48, 0
9, 23214, Note_on_c, 7, 45, 90
9, 23388, Note_on_c, 7, 45, 0
9, 23404, Note_on_c, 7, 53, 99
9, 23750, Note_on_c, 7, 53, 0
9, 23786, Note_on_c, 7, 52, 90
9, 23922, Note_on_c, 7, 52, 0
9, 23990, Note_on_c, 7, 62, 96
9, 24138, Note_on_c, 7, 62, 0
9, 24178, Note_on_c, 7, 60, 95
9, 24322, Note_on_c, 7, 60, 0
9, 24362, Note_on_c, 7, 59, 89
9, 24512, Note_on_c, 7, 59, 0
9, 24548, Note_on_c, 7, 57, 101
9, 24730, Note_on_c, 7, 57, 0
9, 24752, Note_on_c, 7, 57, 96
9, 24798, Note_on_c, 7, 57, 0
9, 24840, Note_on_c, 7, 55, 87
9, 24872, Note_on_c, 7, 55, 0
9, 24936, Note_on_c, 7, 53, 99
9, 25086, Note_on_c, 7, 53, 0
9, 25132, Note_on_c, 7, 51, 97
9, 25292, Note_on_c, 7, 51, 0
9, 25330, Note_on_c, 7, 50, 90
9, 25448, Note_on_c, 7, 50, 0
9, 25512, Note_on_c, 7, 50, 91
9, 25666, Note_on_c, 7, 50, 0
9, 25706, Note_on_c, 7, 52, 88
9, 25840, Note_on_c, 7, 52, 0
9, 25894, Note_on_c, 7, 54, 91
9, 26042, Note_on_c, 7, 54, 0
9, 26090, Note_on_c, 7, 55, 89
9, 26230, Note_on_c, 7, 55, 0
9, 26288, Note_on_c, 7, 55, 85
9, 26334, Note_on_c, 7, 55, 0
9, 26368, Note_on_c, 7, 53, 90
9, 26420, Note_on_c, 7, 53, 0
9, 26466, Note_on_c, 7, 52, 88
9, 26610, Note_on_c, 7, 52, 0
9, 26658, Note_on_c, 7, 50, 85
9, 26800, Note_on_c, 7, 50, 0
9, 26860, Note_on_c, 7, 48, 94
9, 27214, Note_on_c, 7, 48, 0
9, 27252, Note_on_c, 7, 50, 103
9, 27404, Note_on_c, 7, 50, 0
9, 27440, Note_on_c, 7, 52, 89
9, 27578, Note_on_c, 7, 52, 0
9, 27632, Note_on_c, 7, 53, 95
9, 27770, Note_on_c, 7, 53, 0
9, 27814, Note_on_c, 7, 55, 84
9, 27860, Note_on_c, 7, 55, 0
9, 27892, Note_on_c, 7, 57, 94
9, 27936, Note_on_c, 7, 57, 0
9, 27988, Note_on_c, 7, 58, 90
9, 28036, Note_on_c, 7, 58, 0
9, 28096, Note_on_c, 7, 55, 87
9, 28136, Note_on_c, 7, 55, 0
9, 28198, Note_on_c, 7, 57, 82
9, 28228, Note_on_c, 7, 57, 0
9, 28274, Note_on_c, 7, 58, 86
9, 28304, Note_on_c, 7, 58, 0
9, 28386, Note_on_c, 7, 60, 96
9, 28484, Note_on_c, 7, 60, 0
9, 28580, Note_on_c, 7, 48, 103
9, 28686, Note_on_c, 7, 48, 0
9, 28770, Note_on_c, 7, 48, 99
9, 28888, Note_on_c, 7, 48, 0
9, 28956, Note_on_c, 7, 48, 94
9, 29086, Note_on_c, 7, 48, 0
9, 29156, Note_on_c, 7, 50, 94
9, 29206, Note_on_c, 7, 50, 0
9, 29254, Note_on_c, 7, 52, 89
9, 29298, Note_on_c, 7, 52, 0
9, 29350, Note_on_c, 7, 50, 85
9, 29392, Note_on_c, 7, 50, 0
9, 29440, Note_on_c, 7, 48, 89
9, 29482, Note_on_c, 7, 48, 0
9, 29546, Note_on_c, 7, 50, 92
9, 29586, Note_on_c, 7, 50, 0
9, 29636, Note_on_c, 7, 52, 87
9, 29678, Note_on_c, 7, 52, 0
9, 29732, Note_on_c, 7, 48, 84
9, 29774, Note_on_c, 7, 48, 0
9, 29824, Note_on_c, 7, 50, 88
9, 29860, Note_on_c, 7, 50, 0
9, 29924, Note_on_c, 7, 52, 90
9, 29960, Note_on_c, 7, 52, 0
9, 30016, Note_on_c, 7, 53, 84
9, 30058, Note_on_c, 7, 53, 0
9, 30112, Note_on_c, 7, 52, 85
9, 30146, Note_on_c, 7, 52, 0
9, 30198, Note_on_c, 7, 50, 87
9, 30234, Note_on_c, 7, 50, 0
9, 30306, Note_on_c, 7, 52, 88
9, 30338, Note_on_c, 7, 52, 0
9, 30398, Note_on_c, 7, 53, 84
9, 30440, Note_on_c, 7, 53, 0
9, 30498, Note_on_c, 7, 50, 88
9, 30530, Note_on_c, 7, 50, 0
9, 30588, Note_on_c, 7, 52, 88
9, 30616, Note_on_c, 7, 52, 0
9, 30694, Note_on_c, 7, 53, 96
9, 30826, Note_on_c, 7, 53, 0
9, 30884, Note_on_c, 7, 55, 90
9, 30920, Note_on_c, 7, 55, 0
9, 30974, Note_on_c, 7, 53, 88
9, 31024, Note_on_c, 7, 53, 0
9, 31072, Note_on_c, 7, 52, 89
9, 31118, Note_on_c, 7, 52, 0
9, 31158, Note_on_c, 7, 50, 91
9, 31188, Note_on_c, 7, 50, 0
9, 31250, Note_on_c, 7, 48, 79
9, 31290, Note_on_c, 7, 48, 0
9, 31348, Note_on_c, 7, 46, 86
9, 31392, Note_on_c, 7, 46, 0
9, 31462, Note_on_c, 7, 45, 99
9, 31592, Note_on_c, 7, 45, 0
9, 31650, Note_on_c, 7, 48, 95
9, 31784, Note_on_c, 7, 48, 0
9, 31840, Note_on_c, 7, 53, 88
9, 31972, Note_on_c, 7, 53, 0
9, 32030, Note_on_c, 7, 51, 90
9, 32156, Note_on_c, 7, 51, 0
9, 32224, Note_on_c, 7, 50, 101
9, 32338, Note_on_c, 7, 50, 0
9, 32426, Note_on_c, 7, 60, 96
9, 32730, Note_on_c, 7, 60, 0
9, 32816, Note_on_c, 7, 58, 87
9, 32862, Note_on_c, 7, 58, 0
9, 32910, Note_on_c, 7, 57, 89
9, 32964, Note_on_c, 7, 57, 0
9, 33002, Note_on_c, 7, 55, 88
9, 33064, Note_on_c, 7, 55, 0
9, 33090, Note_on_c, 7, 53, 85
9, 33140, Note_on_c, 7, 53, 0
9, 33184, Note_on_c, 7, 51, 85
9, 33234, Note_on_c, 7, 51, 0
9, 33274, Note_on_c, 7, 50, 83
9, 33322, Note_on_c, 7, 50, 0
9, 33380, Note_on_c, 7, 48, 88
9, 33414, Note_on_c, 7, 48, 0
9, 33476, Note_on_c, 7, 50, 85
9, 33516, Note_on_c, 7, 50, 0
9, 33570, Note_on_c, 7, 46, 88
9, 33606, Note_on_c, 7, 46, 0
9, 33656, Note_on_c, 7, 48, 89
9, 33684, Note_on_c, 7, 48, 0
9, 33768, Note_on_c, 7, 50, 103
9, 34262, Note_on_c, 7, 50, 0
9, 34348, Note_on_c, 7, 50, 96
9, 34478, Note_on_c, 7, 50, 0
9, 34544, Note_on_c, 7, 43, 95
9, 35036, Note_on_c, 7, 43, 0
9, 35116, Note_on_c, 7, 55, 92
9, 35232, Note_on_c, 7, 55, 0
9, 35304, Note_on_c, 7, 57, 113
9, 35806, Note_on_c, 7, 57, 0
9, 35878, Note_on_c, 7, 55, 91
9, 35918, Note_on_c, 7, 55, 0
9, 35968, Note_on_c, 7, 57, 84
9, 36000, Note_on_c, 7, 57, 0
9, 36064, Note_on_c, 7, 58, 90
9, 36212, Note_on_c, 7, 58, 0
9, 36262, Note_on_c, 7, 57, 91
9, 36298, Note_on_c, 7, 57, 0
9, 36344, Note_on_c, 7, 58, 84
9, 36380, Note_on_c, 7, 58, 0
9, 36446, Note_on_c, 7, 60, 94
9, 36586, Note_on_c, 7, 60, 0
9, 36640, Note_on_c, 7, 58, 86
9, 36682, Note_on_c, 7, 58, 0
9, 36728, Note_on_c, 7, 60, 87
9, 36770, Note_on_c, 7, 60, 0
9, 36840, Note_on_c, 7, 62, 94
9, 36980, Note_on_c, 7, 62, 0
9, 37032, Note_on_c, 7, 60, 91
9, 37160, Note_on_c, 7, 60, 0
9, 37220, Note_on_c, 7, 58, 89
9, 37346, Note_on_c, 7, 58, 0
9, 37406, Note_on_c, 7, 57, 94
9, 37532, Note_on_c, 7, 57, 0
9, 37606, Note_on_c, 7, 55, 96
9, 38134, Note_on_c, 7, 55, 0
9, 38200, Note_on_c, 7, 55, 94
9, 38334, Note_on_c, 7, 55, 0
9, 38376, Note_on_c, 7, 51, 98
9, 38716, Note_on_c, 7, 51, 0
9, 38766, Note_on_c, 7, 56, 98
9, 39106, Note_on_c, 7, 56, 0
9, 39148, Note_on_c, 7, 47, 92
9, 39150, Note_on_c, 7, 48, 88
9, 39222, Note_on_c, 7, 48, 0
9, 39662, Note_on_c, 7, 47, 0
9, 39724, Note_on_c, 7, 47, 95
9, 39850, Note_on_c, 7, 47, 0
9, 39910, Note_on_c, 7, 48, 96
9, 40394, Note_on_c, 7, 48, 0
9, 40484, Note_on_c, 7, 48, 95
9, 40628, Note_on_c, 7, 48, 0
9, 40688, Note_on_c, 7, 50, 99
9, 41176, Note_on_c, 7, 50, 0
9, 41262, Note_on_c, 7, 48, 90
9, 41304, Note_on_c, 7, 48, 0
9, 41348, Note_on_c, 7, 50, 84
9, 41382, Note_on_c, 7, 50, 0
9, 41440, Note_on_c, 7, 51, 97
9, 41582, Note_on_c, 7, 51, 0
9, 41636, Note_on_c, 7, 50, 85
9, 41672, Note_on_c, 7, 50, 0
9, 41724, Note_on_c, 7, 51, 84
9, 41764, Note_on_c, 7, 51, 0
9, 41828, Note_on_c, 7, 53, 94
9, 41966, Note_on_c, 7, 53, 0
9, 42018, Note_on_c, 7, 51, 87
9, 42060, Note_on_c, 7, 51, 0
9, 42108, Note_on_c, 7, 53, 85
9, 42140, Note_on_c, 7, 53, 0
9, 42210, Note_on_c, 7, 55, 92
9, 42364, Note_on_c, 7, 55, 0
9, 42406, Note_on_c, 7, 53, 92
9, 42544, Note_on_c, 7, 53, 0
9, 42588, Note_on_c, 7, 51, 90
9, 42736, Note_on_c, 7, 51, 0
9, 42780, Note_on_c, 7, 50, 89
9, 42916, Note_on_c, 7, 50, 0
9, 42980, Note_on_c, 7, 48, 90
9, 43124, Note_on_c, 7, 48, 0
9, 43182, Note_on_c, 7, 50, 80
9, 43216, Note_on_c, 7, 50, 0
9, 43262, Note_on_c, 7, 51, 87
9, 43300, Note_on_c, 7, 51, 0
9, 43368, Note_on_c, 7, 53, 96
9, 43890, Note_on_c, 7, 53, 0
9, 43948, Note_on_c, 7, 51, 98
9, 44110, Note_on_c, 7, 51, 0
9, 44132, Note_on_c, 7, 50, 89
9, 44282, Note_on_c, 7, 50, 0
9, 44326, Note_on_c, 7, 48, 92
9, 44488, Note_on_c, 7, 48, 0
9, 44524, Note_on_c, 7, 46, 91
9, 44674, Note_on_c, 7, 46, 0
9, 44718, Note_on_c, 7, 55, 82
9, 44768, Note_on_c, 7, 55, 0
9, 44804, Note_on_c, 7, 53, 87
9, 44858, Note_on_c, 7, 53, 0
9, 44898, Note_on_c, 7, 51, 88
9, 44958, Note_on_c, 7, 51, 0
9, 45002, Note_on_c, 7, 48, 84
9, 45050, Note_on_c, 7, 48, 0
9, 45092, Note_on_c, 7, 50, 84
9, 45128, Note_on_c, 7, 50, 0
9, 45176, Note_on_c, 7, 51, 83
9, 45220, Note_on_c, 7, 51, 0
9, 45284, Note_on_c, 7, 53, 99
9, 45414, Note_on_c, 7, 53, 0
9, 45476, Note_on_c, 7, 53, 101
9, 45582, Note_on_c, 7, 53, 0
9, 45664, Note_on_c, 7, 53, 101
9, 45770, Note_on_c, 7, 53, 0
9, 45860, Note_on_c, 7, 53, 101
9, 45962, Note_on_c, 7, 53, 0
9, 46064, Note_on_c, 7, 55, 101
9, 46120, Note_on_c, 7, 55, 0
9, 46160, Note_on_c, 7, 57, 90
9, 46204, Note_on_c, 7, 57, 0
9, 46260, Note_on_c, 7, 55, 91
9, 46302, Note_on_c, 7, 55, 0
9, 46348, Note_on_c, 7, 53, 91
9, 46388, Note_on_c, 7, 53, 0
9, 46446, Note_on_c, 7, 55, 90
9, 46484, Note_on_c, 7, 55, 0
9, 46530, Note_on_c, 7, 57, 89
9, 46572, Note_on_c, 7, 57, 0
9, 46628, Note_on_c, 7, 53, 85
9, 46662, Note_on_c, 7, 53, 0
9, 46712, Note_on_c, 7, 55, 89
9, 46750, Note_on_c, 7, 55, 0
9, 46812, Note_on_c, 7, 53, 108
9, 47328, Note_on_c, 7, 53, 0
9, 47392, Note_on_c, 7, 53, 105
9, 47536, Note_on_c, 7, 53, 0
9, 47590, Note_on_c, 7, 50, 110
9, 47950, Note_on_c, 7, 50, 0
9, 47996, Note_on_c, 7, 55, 96
9, 48312, Note_on_c, 7, 55, 0
9, 48370, Note_on_c, 7, 45, 105
9, 48914, Note_on_c, 7, 45, 0
9, 48964, Note_on_c, 7, 45, 96
9, 49102, Note_on_c, 7, 45, 0
9, 49142, Note_on_c, 7, 46, 101
9, 49628, Note_on_c, 7, 46, 0
9, 49704, Note_on_c, 7, 46, 94
9, 49862, Note_on_c, 7, 46, 0
9, 49896, Note_on_c, 7, 48, 96
9, 50410, Note_on_c, 7, 48, 0
9, 50470, Note_on_c, 7, 46, 89
9, 50510, Note_on_c, 7, 46, 0
9, 50560, Note_on_c, 7, 48, 83
9, 50610, Note_on_c, 7, 48, 0
9, 50668, Note_on_c, 7, 50, 95
9, 50776, Note_on_c, 7, 50, 0
9, 50840, Note_on_c, 7, 58, 99
9, 50894, Note_on_c, 7, 58, 0
9, 50936, Note_on_c, 7, 57, 95
9, 50988, Note_on_c, 7, 57, 0
9, 51040, Note_on_c, 7, 55, 96
9, 51190, Note_on_c, 7, 55, 0
9, 51234, Note_on_c, 7, 53, 91
9, 51384, Note_on_c, 7, 53, 0
9, 51426, Note_on_c, 7, 52, 90
9, 51568, Note_on_c, 7, 52, 0
9, 51618, Note_on_c, 7, 55, 85
9, 51762, Note_on_c, 7, 55, 0
9, 51814, Note_on_c, 7, 48, 94
9, 52206, Note_on_c, 7, 48, 0
9, 52400, Note_on_c, 7, 53, 96
9, 52548, Note_on_c, 7, 53, 0
9, 52590, Note_on_c, 7, 58, 94
9, 52736, Note_on_c, 7, 58, 0
9, 52776, Note_on_c, 7, 55, 94
9, 52910, Note_on_c, 7, 55, 0
9, 52970, Note_on_c, 7, 60, 96
9, 53042, Note_on_c, 7, 60, 0
9, 53158, Note_on_c, 7, 48, 101
9, 53212, Note_on_c, 7, 48, 0
9, 53350, Note_on_c, 7, 48, 105
9, 53392, Note_on_c, 7, 48, 0
9, 53544, Note_on_c, 7, 48, 101
9, 53608, Note_on_c, 7, 48, 0
9, 53742, Note_on_c, 7, 49, 97
9, 53796, Note_on_c, 7, 49, 0
9, 53832, Note_on_c, 7, 51, 91
9, 53880, Note_on_c, 7, 51, 0
9, 53926, Note_on_c, 7, 49, 86
9, 53968, Note_on_c, 7, 49, 0
9, 54012, Note_on_c, 7, 48, 91
9, 54060, Note_on_c, 7, 48, 0
9, 54120, Note_on_c, 7, 50, 95
9, 54166, Note_on_c, 7, 50, 0
9, 54210, Note_on_c, 7, 51, 90
9, 54262, Note_on_c, 7, 51, 0
9, 54308, Note_on_c, 7, 48, 92
9, 54354, Note_on_c, 7, 48, 0
9, 54402, Note_on_c, 7, 50, 88
9, 54446, Note_on_c, 7, 50, 0
9, 54500, Note_on_c, 7, 51, 93
9, 54548, Note_on_c, 7, 51, 0
9, 54588, Note_on_c, 7, 53, 84
9, 54636, Note_on_c, 7, 53, 0
9, 54690, Note_on_c, 7, 51, 91
9, 54738, Note_on_c, 7, 51, 0
9, 54780, Note_on_c, 7, 50, 94
9, 54830, Note_on_c, 7, 50, 0
9, 54886, Note_on_c, 7, 52, 85
9, 54930, Note_on_c, 7, 52, 0
9, 54976, Note_on_c, 7, 53, 89
9, 55024, Note_on_c, 7, 53, 0
9, 55076, Note_on_c, 7, 50, 91
9, 55118, Note_on_c, 7, 50, 0
9, 55166, Note_on_c, 7, 52, 88
9, 55198, Note_on_c, 7, 52, 0
9, 55280, Note_on_c, 7, 53, 99
9, 55396, Note_on_c, 7, 53, 0
9, 55462, Note_on_c, 7, 48, 99
9, 55584, Note_on_c, 7, 48, 0
9, 55660, Note_on_c, 7, 53, 99
9, 55780, Note_on_c, 7, 53, 0
9, 55850, Note_on_c, 7, 51, 95
9, 55964, Note_on_c, 7, 51, 0
9, 56040, Note_on_c, 7, 50, 96
9, 56162, Note_on_c, 7, 50, 0
9, 56226, Note_on_c, 7, 43, 90
9, 56350, Note_on_c, 7, 43, 0
9, 56420, Note_on_c, 7, 55, 89
9, 56544, Note_on_c, 7, 55, 0
9, 56610, Note_on_c, 7, 53, 91
9, 56728, Note_on_c, 7, 53, 0
9, 56800, Note_on_c, 7, 51, 90
9, 56898, Note_on_c, 7, 51, 0
9, 57002, Note_on_c, 7, 55, 83
9, 57128, Note_on_c, 7, 55, 0
9, 57196, Note_on_c, 7, 60, 89
9, 57324, Note_on_c, 7, 60, 0
9, 57388, Note_on_c, 7, 58, 87
9, 57508, Note_on_c, 7, 58, 0
9, 57566, Note_on_c, 7, 57, 94
9, 57706, Note_on_c, 7, 57, 0
9, 57764, Note_on_c, 7, 50, 94
9, 57888, Note_on_c, 7, 50, 0
9, 57964, Note_on_c, 7, 62, 92
9, 58100, Note_on_c, 7, 62, 0
9, 58160, Note_on_c, 7, 60, 92
9, 58302, Note_on_c, 7, 60, 0
9, 58344, Note_on_c, 7, 58, 84
9, 58466, Note_on_c, 7, 58, 0
9, 58560, Note_on_c, 7, 62, 95
9, 58690, Note_on_c, 7, 62, 0
9, 58742, Note_on_c, 7, 67, 96
9, 58876, Note_on_c, 7, 67, 0
9, 58932, Note_on_c, 7, 65, 85
9, 59068, Note_on_c, 7, 65, 0
9, 59122, Note_on_c, 7, 64, 92
9, 59182, Note_on_c, 7, 64, 0
9, 59312, Note_on_c, 7, 52, 90
9, 59400, Note_on_c, 7, 52, 0
9, 59510, Note_on_c, 7, 52, 105
9, 59564, Note_on_c, 7, 52, 0
9, 59694, Note_on_c, 7, 52, 95
9, 59764, Note_on_c, 7, 52, 0
9, 59890, Note_on_c, 7, 53, 101
9, 59926, Note_on_c, 7, 53, 0
9, 59980, Note_on_c, 7, 55, 88
9, 60026, Note_on_c, 7, 55, 0
9, 60076, Note_on_c, 7, 53, 90
9, 60116, Note_on_c, 7, 53, 0
9, 60166, Note_on_c, 7, 52, 88
9, 60198, Note_on_c, 7, 52, 0
9, 60272, Note_on_c, 7, 54, 90
9, 60308, Note_on_c, 7, 54, 0
9, 60364, Note_on_c, 7, 55, 80
9, 60406, Note_on_c, 7, 55, 0
9, 60460, Note_on_c, 7, 52, 90
9, 60498, Note_on_c, 7, 52, 0
9, 60552, Note_on_c, 7, 54, 85
9, 60592, Note_on_c, 7, 54, 0
9, 60654, Note_on_c, 7, 55, 95
9, 60692, Note_on_c, 7, 55, 0
9, 60742, Note_on_c, 7, 57, 91
9, 60786, Note_on_c, 7, 57, 0
9, 60836, Note_on_c, 7, 55, 89
9, 60876, Note_on_c, 7, 55, 0
9, 60922, Note_on_c, 7, 54, 85
9, 60964, Note_on_c, 7, 54, 0
9, 61028, Note_on_c, 7, 56, 98
9, 61068, Note_on_c, 7, 56, 0
9, 61122, Note_on_c, 7, 57, 90
9, 61160, Note_on_c, 7, 57, 0
9, 61222, Note_on_c, 7, 54, 84
9, 61256, Note_on_c, 7, 54, 0
9, 61312, Note_on_c, 7, 56, 91
9, 61344, Note_on_c, 7, 56, 0
9, 61420, Note_on_c, 7, 57, 113
9, 61940, Note_on_c, 7, 57, 0
9, 62004, Note_on_c, 7, 57, 101
9, 62142, Note_on_c, 7, 57, 0
9, 62190, Note_on_c, 7, 53, 108
9, 62542, Note_on_c, 7, 53, 0
9, 62584, Note_on_c, 7, 58, 102
9, 62914, Note_on_c, 7, 58, 0
9, 62964, Note_on_c, 7, 49, 106
9, 63496, Note_on_c, 7, 49, 0
9, 63544, Note_on_c, 7, 49, 99
9, 63690, Note_on_c, 7, 49, 0
9, 63732, Note_on_c, 7, 50, 103
9, 64240, Note_on_c, 7, 50, 0
9, 64302, Note_on_c, 7, 50, 101
9, 64460, Note_on_c, 7, 50, 0
9, 64502, Note_on_c, 7, 52, 101
9, 64998, Note_on_c, 7, 52, 0
9, 65070, Note_on_c, 7, 50, 89
9, 65108, Note_on_c, 7, 50, 0
9, 65156, Note_on_c, 7, 52, 89
9, 65190, Note_on_c, 7, 52, 0
9, 65262, Note_on_c, 7, 53, 101
9, 65398, Note_on_c, 7, 53, 0
9, 65452, Note_on_c, 7, 52, 83
9, 65486, Note_on_c, 7, 52, 0
9, 65536, Note_on_c, 7, 53, 91
9, 65570, Note_on_c, 7, 53, 0
9, 65640, Note_on_c, 7, 55, 96
9, 65774, Note_on_c, 7, 55, 0
9, 65828, Note_on_c, 7, 53, 89
9, 65866, Note_on_c, 7, 53, 0
9, 65912, Note_on_c, 7, 55, 88
9, 65952, Note_on_c, 7, 55, 0
9, 66018, Note_on_c, 7, 57, 99
9, 66166, Note_on_c, 7, 57, 0
9, 66218, Note_on_c, 7, 58, 88
9, 66256, Note_on_c, 7, 58, 0
9, 66298, Note_on_c, 7, 57, 90
9, 66342, Note_on_c, 7, 57, 0
9, 66394, Note_on_c, 7, 55, 88
9, 66440, Note_on_c, 7, 55, 0
9, 66488, Note_on_c, 7, 53, 88
9, 66518, Note_on_c, 7, 53, 0
9, 66578, Note_on_c, 7, 52, 85
9, 66620, Note_on_c, 7, 52, 0
9, 66668, Note_on_c, 7, 50, 87
9, 66710, Note_on_c, 7, 50, 0
9, 66784, Note_on_c, 7, 49, 100
9, 67138, Note_on_c, 7, 49, 0
9, 67192, Note_on_c, 7, 50, 95
9, 67320, Note_on_c, 7, 50, 0
9, 67370, Note_on_c, 7, 57, 96
9, 67506, Note_on_c, 7, 57, 0
9, 67564, Note_on_c, 7, 58, 109
9, 67892, Note_on_c, 7, 58, 0
9, 67954, Note_on_c, 7, 46, 101
9, 68284, Note_on_c, 7, 46, 0
9, 68334, Note_on_c, 7, 45, 99
9, 68466, Note_on_c, 7, 45, 0
9, 68532, Note_on_c, 7, 57, 99
9, 68650, Note_on_c, 7, 57, 0
9, 68710, Note_on_c, 7, 59, 96
9, 68854, Note_on_c, 7, 59, 0
9, 68906, Note_on_c, 7, 61, 90
9, 69068, Note_on_c, 7, 61, 0
9, 69104, Note_on_c, 7, 62, 88
9, 69232, Note_on_c, 7, 62, 0
9, 69286, Note_on_c, 7, 50, 91
9, 69438, Note_on_c, 7, 50, 0
9, 69480, Note_on_c, 7, 55, 94
9, 69632, Note_on_c, 7, 55, 0
9, 69670, Note_on_c, 7, 52, 83
9, 69838, Note_on_c, 7, 52, 0
9, 69866, Note_on_c, 7, 57, 99
9, 69942, Note_on_c, 7, 57, 0
9, 70064, Note_on_c, 7, 45, 115
9, 70138, Note_on_c, 7, 45, 0
9, 70246, Note_on_c, 7, 45, 105
9, 70322, Note_on_c, 7, 45, 0
9, 70440, Note_on_c, 7, 45, 99
9, 70504, Note_on_c, 7, 45, 0
9, 70628, Note_on_c, 7, 46, 95
9, 70680, Note_on_c, 7, 46, 0
9, 70720, Note_on_c, 7, 48, 82
9, 70766, Note_on_c, 7, 48, 0
9, 70814, Note_on_c, 7, 46, 85
9, 70862, Note_on_c, 7, 46, 0
9, 70904, Note_on_c, 7, 45, 89
9, 70956, Note_on_c, 7, 45, 0
9, 71016, Note_on_c, 7, 47, 90
9, 71070, Note_on_c, 7, 47, 0
9, 71110, Note_on_c, 7, 48, 87
9, 71162, Note_on_c, 7, 48, 0
9, 71212, Note_on_c, 7, 45, 92
9, 71270, Note_on_c, 7, 45, 0
9, 71310, Note_on_c, 7, 47, 81
9, 71360, Note_on_c, 7, 47, 0
9, 71408, Note_on_c, 7, 48, 90
9, 71468, Note_on_c, 7, 48, 0
9, 71494, Note_on_c, 7, 50, 83
9, 71552, Note_on_c, 7, 50, 0
9, 71590, Note_on_c, 7, 48, 84
9, 71634, Note_on_c, 7, 48, 0
9, 71676, Note_on_c, 7, 47, 84
9, 71716, Note_on_c, 7, 47, 0
9, 71786, Note_on_c, 7, 49, 100
9, 71846, Note_on_c, 7, 49, 0
9, 71876, Note_on_c, 7, 50, 85
9, 71924, Note_on_c, 7, 50, 0
9, 71974, Note_on_c, 7, 47, 89
9, 72014, Note_on_c, 7, 47, 0
9, 72062, Note_on_c, 7, 49, 90
9, 72106, Note_on_c, 7, 49, 0
9, 72164, Note_on_c, 7, 50, 103
9, 72298, Note_on_c, 7, 50, 0
9, 72364, Note_on_c, 7, 50, 96
9, 72496, Note_on_c, 7, 50, 0
9, 72548, Note_on_c, 7, 55, 95
9, 72664, Note_on_c, 7, 55, 0
9, 72742, Note_on_c, 7, 53, 101
9, 72866, Note_on_c, 7, 53, 0
9, 72940, Note_on_c, 7, 52, 95
9, 73062, Note_on_c, 7, 52, 0
9, 73126, Note_on_c, 7, 52, 92
9, 73254, Note_on_c, 7, 52, 0
9, 73324, Note_on_c, 7, 57, 99
9, 73454, Note_on_c, 7, 57, 0
9, 73518, Note_on_c, 7, 55, 91
9, 73648, Note_on_c, 7, 55, 0
9, 73706, Note_on_c, 7, 53, 96
9, 73830, Note_on_c, 7, 53, 0
9, 73898, Note_on_c, 7, 57, 99
9, 74026, Note_on_c, 7, 57, 0
9, 74096, Note_on_c, 7, 62, 94
9, 74214, Note_on_c, 7, 62, 0
9, 74282, Note_on_c, 7, 60, 89
9, 74400, Note_on_c, 7, 60, 0
9, 74472, Note_on_c, 7, 59, 89
9, 74592, Note_on_c, 7, 59, 0
9, 74662, Note_on_c, 7, 59, 89
9, 74800, Note_on_c, 7, 59, 0
9, 74858, Note_on_c, 7, 64, 90
9, 74980, Note_on_c, 7, 64, 0
9, 75058, Note_on_c, 7, 52, 91
9, 75172, Note_on_c, 7, 52, 0
9, 75246, Note_on_c, 7, 57, 99
9, 75348, Note_on_c, 7, 57, 0
9, 75428, Note_on_c, 7, 45, 94
9, 75536, Note_on_c, 7, 45, 0
9, 75614, Note_on_c, 7, 50, 96
9, 75734, Note_on_c, 7, 50, 0
9, 75810, Note_on_c, 7, 48, 90
9, 75936, Note_on_c, 7, 48, 0
9, 76010, Note_on_c, 7, 47, 91
9, 76112, Note_on_c, 7, 47, 0
9, 76194, Note_on_c, 7, 47, 99
9, 76320, Note_on_c, 7, 47, 0
9, 76384, Note_on_c, 7, 52, 95
9, 76512, Note_on_c, 7, 52, 0
9, 76578, Note_on_c, 7, 50, 96
9, 76720, Note_on_c, 7, 50, 0
9, 76772, Note_on_c, 7, 49, 93
9, 76916, Note_on_c, 7, 49, 0
9, 76978, Note_on_c, 7, 57, 96
9, 77106, Note_on_c, 7, 57, 0
9, 77162, Note_on_c, 7, 58, 94
9, 77288, Note_on_c, 7, 58, 0
9, 77352, Note_on_c, 7, 55, 90
9, 77472, Note_on_c, 7, 55, 0
9, 77556, Note_on_c, 7, 57, 108
9, 77890, Note_on_c, 7, 57, 0
9, 77946, Note_on_c, 7, 45, 101
9, 78262, Note_on_c, 7, 45, 0
9, 78322, Note_on_c, 7, 44, 93
9, 79118, Note_on_c, 7, 44, 0
9, 79862, Note_on_c, 7, 56, 115
9, 80232, Note_on_c, 7, 56, 0
9, 80250, Note_on_c, 7, 57, 101
9, 80578, Note_on_c, 7, 57, 0
9, 80628, Note_on_c, 7, 53, 101
9, 80782, Note_on_c, 7, 53, 0
9, 80804, Note_on_c, 7, 50, 94
9, 80948, Note_on_c, 7, 50, 0
9, 80990, Note_on_c, 7, 45, 108
9, 81352, Note_on_c, 7, 45, 0
9, 81394, Note_on_c, 7, 45, 103
9, 81754, Note_on_c, 7, 45, 0
9, 81778, Note_on_c, 7, 50, 103
9, 82950, Note_on_c, 7, 50, 0
9, 82950, End_track
10, 0, Start_track
10, 0, Title_t, "bassi"
10, 400, Program_c, 8, 48
10, 401, Control_c, 8, 7, 115
10, 401, Control_c, 8, 10, 75
10, 576, Control_c, 8, 91, 120
10, 3054, Note_on_c, 8, 45, 101
10, 3548, Note_on_c, 8, 45, 0
10, 3630, Note_on_c, 8, 45, 92
10, 3764, Note_on_c, 8, 45, 0
10, 3828, Note_on_c, 8, 41, 92
10, 4152, Note_on_c, 8, 41, 0
10, 4202, Note_on_c, 8, 46, 95
10, 4534, Note_on_c, 8, 46, 0
10, 4586, Note_on_c, 8, 37, 89
10, 5054, Note_on_c, 8, 37, 0
10, 5174, Note_on_c, 8, 37, 95
10, 5226, Note_on_c, 8, 37, 0
10, 5354, Note_on_c, 8, 38, 91
10, 5860, Note_on_c, 8, 38, 0
10, 5932, Note_on_c, 8, 38, 87
10, 6054, Note_on_c, 8, 38, 0
10, 6120, Note_on_c, 8, 40, 84
10, 6632, Note_on_c, 8, 40, 0
10, 6700, Note_on_c, 8, 38, 78
10, 6736, Note_on_c, 8, 38, 0
10, 6792, Note_on_c, 8, 40, 74
10, 6826, Note_on_c, 8, 40, 0
10, 6890, Note_on_c, 8, 41, 90
10, 7046, Note_on_c, 8, 41, 0
10, 7080, Note_on_c, 8, 40, 74
10, 7124, Note_on_c, 8, 40, 0
10, 7168, Note_on_c, 8, 41, 79
10, 7202, Note_on_c, 8, 41, 0
10, 7274, Note_on_c, 8, 43, 85
10, 7410, Note_on_c, 8, 43, 0
10, 7464, Note_on_c, 8, 41, 58
10, 7508, Note_on_c, 8, 41, 0
10, 7544, Note_on_c, 8, 43, 75
10, 7586, Note_on_c, 8, 43, 0
10, 7648, Note_on_c, 8, 45, 90
10, 7794, Note_on_c, 8, 45, 0
10, 7844, Note_on_c, 8, 43, 87
10, 7984, Note_on_c, 8, 43, 0
10, 8036, Note_on_c, 8, 41, 88
10, 8170, Note_on_c, 8, 41, 0
10, 8220, Note_on_c, 8, 40, 75
10, 8370, Note_on_c, 8, 40, 0
10, 8416, Note_on_c, 8, 38, 88
10, 8578, Note_on_c, 8, 38, 0
10, 8622, Note_on_c, 8, 36, 88
10, 8744, Note_on_c, 8, 36, 0
10, 8812, Note_on_c, 8, 35, 90
10, 8948, Note_on_c, 8, 35, 0
10, 8994, Note_on_c, 8, 40, 80
10, 9112, Note_on_c, 8, 40, 0
10, 9186, Note_on_c, 8, 33, 91
10, 9336, Note_on_c, 8, 33, 0
10, 9386, Note_on_c, 8, 41, 79
10, 9430, Note_on_c, 8, 41, 0
10, 9468, Note_on_c, 8, 40, 79
10, 9510, Note_on_c, 8, 40, 0
10, 9564, Note_on_c, 8, 38, 80
10, 9596, Note_on_c, 8, 38, 0
10, 9668, Note_on_c, 8, 35, 74
10, 9700, Note_on_c, 8, 35, 0
10, 9760, Note_on_c, 8, 36, 78
10, 9790, Note_on_c, 8, 36, 0
10, 9846, Note_on_c, 8, 38, 80
10, 9874, Note_on_c, 8, 38, 0
10, 9946, Note_on_c, 8, 40, 87
10, 10396, Note_on_c, 8, 40, 0
10, 10536, Note_on_c, 8, 40, 82
10, 10660, Note_on_c, 8, 40, 0
10, 10722, Note_on_c, 8, 45, 90
10, 10820, Note_on_c, 8, 45, 0
10, 10908, Note_on_c, 8, 33, 85
10, 11016, Note_on_c, 8, 33, 0
10, 11104, Note_on_c, 8, 45, 90
10, 11818, Note_on_c, 8, 45, 0
10, 11884, Note_on_c, 8, 43, 87
10, 11930, Note_on_c, 8, 43, 0
10, 11970, Note_on_c, 8, 41, 88
10, 12002, Note_on_c, 8, 41, 0
10, 12064, Note_on_c, 8, 40, 76
10, 12106, Note_on_c, 8, 40, 0
10, 12148, Note_on_c, 8, 38, 80
10, 12184, Note_on_c, 8, 38, 0
10, 12250, Note_on_c, 8, 36, 87
10, 12562, Note_on_c, 8, 36, 0
10, 12646, Note_on_c, 8, 35, 89
10, 12806, Note_on_c, 8, 35, 0
10, 12836, Note_on_c, 8, 41, 79
10, 12972, Note_on_c, 8, 41, 0
10, 13034, Note_on_c, 8, 40, 81
10, 13250, Note_on_c, 8, 40, 0
10, 13304, Note_on_c, 8, 42, 81
10, 13350, Note_on_c, 8, 42, 0
10, 13408, Note_on_c, 8, 44, 79
10, 13450, Note_on_c, 8, 44, 0
10, 13492, Note_on_c, 8, 45, 75
10, 13528, Note_on_c, 8, 45, 0
10, 13590, Note_on_c, 8, 42, 78
10, 13624, Note_on_c, 8, 42, 0
10, 13676, Note_on_c, 8, 44, 81
10, 13712, Note_on_c, 8, 44, 0
10, 13782, Note_on_c, 8, 45, 89
10, 13910, Note_on_c, 8, 45, 0
10, 13982, Note_on_c, 8, 33, 88
10, 14122, Note_on_c, 8, 33, 0
10, 14168, Note_on_c, 8, 35, 85
10, 14304, Note_on_c, 8, 35, 0
10, 14366, Note_on_c, 8, 37, 84
10, 14504, Note_on_c, 8, 37, 0
10, 14564, Note_on_c, 8, 38, 82
10, 14700, Note_on_c, 8, 38, 0
10, 14756, Note_on_c, 8, 38, 80
10, 14886, Note_on_c, 8, 38, 0
10, 14944, Note_on_c, 8, 43, 81
10, 15084, Note_on_c, 8, 43, 0
10, 15134, Note_on_c, 8, 41, 84
10, 15248, Note_on_c, 8, 41, 0
10, 15336, Note_on_c, 8, 40, 85
10, 15400, Note_on_c, 8, 40, 0
10, 15534, Note_on_c, 8, 40, 88
10, 15570, Note_on_c, 8, 40, 0
10, 15716, Note_on_c, 8, 40, 91
10, 15754, Note_on_c, 8, 40, 0
10, 15908, Note_on_c, 8, 40, 91
10, 15958, Note_on_c, 8, 40, 0
10, 16104, Note_on_c, 8, 41, 94
10, 16150, Note_on_c, 8, 41, 0
10, 16194, Note_on_c, 8, 43, 78
10, 16240, Note_on_c, 8, 43, 0
10, 16300, Note_on_c, 8, 41, 85
10, 16342, Note_on_c, 8, 41, 0
10, 16392, Note_on_c, 8, 40, 80
10, 16432, Note_on_c, 8, 40, 0
10, 16488, Note_on_c, 8, 41, 89
10, 16524, Note_on_c, 8, 41, 0
10, 16576, Note_on_c, 8, 43, 80
10, 16620, Note_on_c, 8, 43, 0
10, 16680, Note_on_c, 8, 40, 81
10, 16722, Note_on_c, 8, 40, 0
10, 16772, Note_on_c, 8, 41, 85
10, 16810, Note_on_c, 8, 41, 0
10, 16868, Note_on_c, 8, 43, 81
10, 16914, Note_on_c, 8, 43, 0
10, 16964, Note_on_c, 8, 45, 89
10, 17002, Note_on_c, 8, 45, 0
10, 17054, Note_on_c, 8, 43, 74
10, 17102, Note_on_c, 8, 43, 0
10, 17146, Note_on_c, 8, 41, 83
10, 17182, Note_on_c, 8, 41, 0
10, 17246, Note_on_c, 8, 43, 85
10, 17278, Note_on_c, 8, 43, 0
10, 17338, Note_on_c, 8, 45, 78
10, 17376, Note_on_c, 8, 45, 0
10, 17434, Note_on_c, 8, 41, 83
10, 17466, Note_on_c, 8, 41, 0
10, 17524, Note_on_c, 8, 43, 85
10, 17552, Note_on_c, 8, 43, 0
10, 17624, Note_on_c, 8, 45, 95
10, 17776, Note_on_c, 8, 45, 0
10, 17828, Note_on_c, 8, 46, 90
10, 17868, Note_on_c, 8, 46, 0
10, 17910, Note_on_c, 8, 45, 83
10, 17952, Note_on_c, 8, 45, 0
10, 18006, Note_on_c, 8, 43, 80
10, 18044, Note_on_c, 8, 43, 0
10, 18098, Note_on_c, 8, 41, 83
10, 18128, Note_on_c, 8, 41, 0
10, 18190, Note_on_c, 8, 40, 72
10, 18232, Note_on_c, 8, 40, 0
10, 18290, Note_on_c, 8, 38, 80
10, 18324, Note_on_c, 8, 38, 0
10, 18398, Note_on_c, 8, 37, 81
10, 18532, Note_on_c, 8, 37, 0
10, 18594, Note_on_c, 8, 40, 72
10, 18736, Note_on_c, 8, 40, 0
10, 18790, Note_on_c, 8, 45, 80
10, 18922, Note_on_c, 8, 45, 0
10, 18978, Note_on_c, 8, 43, 78
10, 19116, Note_on_c, 8, 43, 0
10, 19172, Note_on_c, 8, 41, 74
10, 19206, Note_on_c, 8, 41, 0
10, 19258, Note_on_c, 8, 40, 71
10, 19298, Note_on_c, 8, 40, 0
10, 19352, Note_on_c, 8, 38, 77
10, 19378, Note_on_c, 8, 38, 0
10, 19432, Note_on_c, 8, 36, 71
10, 19476, Note_on_c, 8, 36, 0
10, 19552, Note_on_c, 8, 35, 76
10, 19876, Note_on_c, 8, 35, 0
10, 19952, Note_on_c, 8, 36, 90
10, 20276, Note_on_c, 8, 36, 0
10, 20332, Note_on_c, 8, 38, 81
10, 20682, Note_on_c, 8, 38, 0
10, 20732, Note_on_c, 8, 40, 79
10, 21126, Note_on_c, 8, 40, 0
10, 21298, Note_on_c, 8, 40, 90
10, 21360, Note_on_c, 8, 40, 0
10, 21496, Note_on_c, 8, 45, 92
10, 21906, Note_on_c, 8, 45, 0
10, 21976, Note_on_c, 8, 43, 84
10, 22014, Note_on_c, 8, 43, 0
10, 22064, Note_on_c, 8, 41, 80
10, 22096, Note_on_c, 8, 41, 0
10, 22144, Note_on_c, 8, 40, 80
10, 22176, Note_on_c, 8, 40, 0
10, 22240, Note_on_c, 8, 41, 89
10, 22368, Note_on_c, 8, 41, 0
10, 22432, Note_on_c, 8, 38, 78
10, 22566, Note_on_c, 8, 38, 0
10, 22622, Note_on_c, 8, 43, 82
10, 22970, Note_on_c, 8, 43, 0
10, 23026, Note_on_c, 8, 36, 87
10, 23158, Note_on_c, 8, 36, 0
10, 23214, Note_on_c, 8, 33, 77
10, 23330, Note_on_c, 8, 33, 0
10, 23400, Note_on_c, 8, 41, 83
10, 23736, Note_on_c, 8, 41, 0
10, 23788, Note_on_c, 8, 40, 80
10, 23936, Note_on_c, 8, 40, 0
10, 23980, Note_on_c, 8, 50, 88
10, 24114, Note_on_c, 8, 50, 0
10, 24176, Note_on_c, 8, 48, 83
10, 24294, Note_on_c, 8, 48, 0
10, 24360, Note_on_c, 8, 47, 80
10, 24494, Note_on_c, 8, 47, 0
10, 24556, Note_on_c, 8, 45, 88
10, 24682, Note_on_c, 8, 45, 0
10, 24752, Note_on_c, 8, 57, 87
10, 24792, Note_on_c, 8, 57, 0
10, 24838, Note_on_c, 8, 55, 87
10, 24886, Note_on_c, 8, 55, 0
10, 24934, Note_on_c, 8, 53, 91
10, 25064, Note_on_c, 8, 53, 0
10, 25112, Note_on_c, 8, 51, 78
10, 25272, Note_on_c, 8, 51, 0
10, 25314, Note_on_c, 8, 50, 80
10, 25358, Note_on_c, 8, 50, 0
10, 25526, Note_on_c, 8, 38, 85
10, 25648, Note_on_c, 8, 38, 0
10, 25704, Note_on_c, 8, 40, 85
10, 25842, Note_on_c, 8, 40, 0
10, 25894, Note_on_c, 8, 42, 86
10, 26066, Note_on_c, 8, 42, 0
10, 26092, Note_on_c, 8, 43, 87
10, 26220, Note_on_c, 8, 43, 0
10, 26286, Note_on_c, 8, 43, 72
10, 26332, Note_on_c, 8, 43, 0
10, 26368, Note_on_c, 8, 41, 83
10, 26406, Note_on_c, 8, 41, 0
10, 26464, Note_on_c, 8, 40, 83
10, 26600, Note_on_c, 8, 40, 0
10, 26664, Note_on_c, 8, 38, 85
10, 26798, Note_on_c, 8, 38, 0
10, 26856, Note_on_c, 8, 36, 90
10, 27174, Note_on_c, 8, 36, 0
10, 27250, Note_on_c, 8, 38, 89
10, 27384, Note_on_c, 8, 38, 0
10, 27434, Note_on_c, 8, 40, 80
10, 27558, Note_on_c, 8, 40, 0
10, 27626, Note_on_c, 8, 41, 87
10, 27764, Note_on_c, 8, 41, 0
10, 27816, Note_on_c, 8, 43, 71
10, 27862, Note_on_c, 8, 43, 0
10, 27900, Note_on_c, 8, 45, 78
10, 27946, Note_on_c, 8, 45, 0
10, 27998, Note_on_c, 8, 46, 84
10, 28048, Note_on_c, 8, 46, 0
10, 28096, Note_on_c, 8, 43, 77
10, 28140, Note_on_c, 8, 43, 0
10, 28198, Note_on_c, 8, 45, 78
10, 28228, Note_on_c, 8, 45, 0
10, 28278, Note_on_c, 8, 46, 84
10, 28310, Note_on_c, 8, 46, 0
10, 28384, Note_on_c, 8, 48, 91
10, 28502, Note_on_c, 8, 48, 0
10, 28574, Note_on_c, 8, 36, 87
10, 28702, Note_on_c, 8, 36, 0
10, 28772, Note_on_c, 8, 36, 89
10, 28880, Note_on_c, 8, 36, 0
10, 28958, Note_on_c, 8, 36, 88
10, 29096, Note_on_c, 8, 36, 0
10, 29164, Note_on_c, 8, 38, 80
10, 29202, Note_on_c, 8, 38, 0
10, 29254, Note_on_c, 8, 40, 73
10, 29308, Note_on_c, 8, 40, 0
10, 29356, Note_on_c, 8, 38, 80
10, 29396, Note_on_c, 8, 38, 0
10, 29444, Note_on_c, 8, 36, 80
10, 29488, Note_on_c, 8, 36, 0
10, 29546, Note_on_c, 8, 38, 81
10, 29590, Note_on_c, 8, 38, 0
10, 29632, Note_on_c, 8, 40, 77
10, 29674, Note_on_c, 8, 40, 0
10, 29726, Note_on_c, 8, 36, 73
10, 29768, Note_on_c, 8, 36, 0
10, 29810, Note_on_c, 8, 38, 81
10, 29844, Note_on_c, 8, 38, 0
10, 29916, Note_on_c, 8, 40, 88
10, 29956, Note_on_c, 8, 40, 0
10, 30010, Note_on_c, 8, 41, 76
10, 30058, Note_on_c, 8, 41, 0
10, 30110, Note_on_c, 8, 40, 80
10, 30148, Note_on_c, 8, 40, 0
10, 30196, Note_on_c, 8, 38, 79
10, 30236, Note_on_c, 8, 38, 0
10, 30298, Note_on_c, 8, 40, 82
10, 30336, Note_on_c, 8, 40, 0
10, 30382, Note_on_c, 8, 41, 74
10, 30424, Note_on_c, 8, 41, 0
10, 30484, Note_on_c, 8, 38, 78
10, 30524, Note_on_c, 8, 38, 0
10, 30582, Note_on_c, 8, 40, 77
10, 30616, Note_on_c, 8, 40, 0
10, 30684, Note_on_c, 8, 41, 89
10, 30832, Note_on_c, 8, 41, 0
10, 30882, Note_on_c, 8, 43, 84
10, 30918, Note_on_c, 8, 43, 0
10, 30968, Note_on_c, 8, 41, 79
10, 31018, Note_on_c, 8, 41, 0
10, 31068, Note_on_c, 8, 40, 79
10, 31112, Note_on_c, 8, 40, 0
10, 31156, Note_on_c, 8, 38, 78
10, 31196, Note_on_c, 8, 38, 0
10, 31248, Note_on_c, 8, 36, 81
10, 31276, Note_on_c, 8, 36, 0
10, 31332, Note_on_c, 8, 34, 74
10, 31378, Note_on_c, 8, 34, 0
10, 31444, Note_on_c, 8, 33, 87
10, 31582, Note_on_c, 8, 33, 0
10, 31638, Note_on_c, 8, 36, 92
10, 31800, Note_on_c, 8, 36, 0
10, 31844, Note_on_c, 8, 41, 88
10, 31974, Note_on_c, 8, 41, 0
10, 32032, Note_on_c, 8, 39, 83
10, 32170, Note_on_c, 8, 39, 0
10, 32228, Note_on_c, 8, 38, 85
10, 32344, Note_on_c, 8, 38, 0
10, 32420, Note_on_c, 8, 48, 92
10, 32726, Note_on_c, 8, 48, 0
10, 32806, Note_on_c, 8, 46, 82
10, 32850, Note_on_c, 8, 46, 0
10, 32894, Note_on_c, 8, 45, 79
10, 32948, Note_on_c, 8, 45, 0
10, 33000, Note_on_c, 8, 43, 85
10, 33052, Note_on_c, 8, 43, 0
10, 33090, Note_on_c, 8, 41, 80
10, 33138, Note_on_c, 8, 41, 0
10, 33182, Note_on_c, 8, 39, 76
10, 33224, Note_on_c, 8, 39, 0
10, 33274, Note_on_c, 8, 38, 78
10, 33322, Note_on_c, 8, 38, 0
10, 33382, Note_on_c, 8, 36, 82
10, 33418, Note_on_c, 8, 36, 0
10, 33476, Note_on_c, 8, 38, 74
10, 33518, Note_on_c, 8, 38, 0
10, 33570, Note_on_c, 8, 34, 78
10, 33606, Note_on_c, 8, 34, 0
10, 33656, Note_on_c, 8, 36, 85
10, 33686, Note_on_c, 8, 36, 0
10, 33758, Note_on_c, 8, 38, 91
10, 34244, Note_on_c, 8, 38, 0
10, 34332, Note_on_c, 8, 38, 87
10, 34450, Note_on_c, 8, 38, 0
10, 34522, Note_on_c, 8, 31, 90
10, 34918, Note_on_c, 8, 31, 0
10, 35120, Note_on_c, 8, 43, 82
10, 35212, Note_on_c, 8, 43, 0
10, 35328, Note_on_c, 8, 45, 95
10, 35524, Note_on_c, 8, 45, 0
10, 35892, Note_on_c, 8, 43, 87
10, 35934, Note_on_c, 8, 43, 0
10, 35974, Note_on_c, 8, 45, 85
10, 36012, Note_on_c, 8, 45, 0
10, 36070, Note_on_c, 8, 46, 94
10, 36218, Note_on_c, 8, 46, 0
10, 36266, Note_on_c, 8, 45, 84
10, 36308, Note_on_c, 8, 45, 0
10, 36346, Note_on_c, 8, 46, 84
10, 36394, Note_on_c, 8, 46, 0
10, 36454, Note_on_c, 8, 48, 94
10, 36600, Note_on_c, 8, 48, 0
10, 36638, Note_on_c, 8, 46, 86
10, 36680, Note_on_c, 8, 46, 0
10, 36724, Note_on_c, 8, 48, 85
10, 36766, Note_on_c, 8, 48, 0
10, 36834, Note_on_c, 8, 50, 92
10, 36984, Note_on_c, 8, 50, 0
10, 37024, Note_on_c, 8, 48, 89
10, 37172, Note_on_c, 8, 48, 0
10, 37216, Note_on_c, 8, 46, 81
10, 37370, Note_on_c, 8, 46, 0
10, 37402, Note_on_c, 8, 45, 84
10, 37536, Note_on_c, 8, 45, 0
10, 37612, Note_on_c, 8, 43, 84
10, 38126, Note_on_c, 8, 43, 0
10, 38202, Note_on_c, 8, 43, 94
10, 38340, Note_on_c, 8, 43, 0
10, 38376, Note_on_c, 8, 39, 90
10, 38720, Note_on_c, 8, 39, 0
10, 38768, Note_on_c, 8, 44, 94
10, 39098, Note_on_c, 8, 44, 0
10, 39144, Note_on_c, 8, 35, 90
10, 39672, Note_on_c, 8, 35, 0
10, 39724, Note_on_c, 8, 35, 87
10, 39854, Note_on_c, 8, 35, 0
10, 39910, Note_on_c, 8, 36, 90
10, 40294, Note_on_c, 8, 36, 0
10, 40472, Note_on_c, 8, 36, 80
10, 40608, Note_on_c, 8, 36, 0
10, 40676, Note_on_c, 8, 38, 81
10, 41120, Note_on_c, 8, 38, 0
10, 41254, Note_on_c, 8, 36, 77
10, 41288, Note_on_c, 8, 36, 0
10, 41336, Note_on_c, 8, 38, 71
10, 41368, Note_on_c, 8, 38, 0
10, 41430, Note_on_c, 8, 39, 77
10, 41580, Note_on_c, 8, 39, 0
10, 41632, Note_on_c, 8, 38, 78
10, 41672, Note_on_c, 8, 38, 0
10, 41720, Note_on_c, 8, 39, 71
10, 41758, Note_on_c, 8, 39, 0
10, 41822, Note_on_c, 8, 41, 83
10, 41960, Note_on_c, 8, 41, 0
10, 42018, Note_on_c, 8, 39, 63
10, 42052, Note_on_c, 8, 39, 0
10, 42100, Note_on_c, 8, 41, 77
10, 42132, Note_on_c, 8, 41, 0
10, 42202, Note_on_c, 8, 43, 82
10, 42346, Note_on_c, 8, 43, 0
10, 42404, Note_on_c, 8, 41, 83
10, 42540, Note_on_c, 8, 41, 0
10, 42590, Note_on_c, 8, 39, 71
10, 42740, Note_on_c, 8, 39, 0
10, 42776, Note_on_c, 8, 38, 74
10, 42918, Note_on_c, 8, 38, 0
10, 42978, Note_on_c, 8, 36, 82
10, 43114, Note_on_c, 8, 36, 0
10, 43172, Note_on_c, 8, 38, 75
10, 43208, Note_on_c, 8, 38, 0
10, 43252, Note_on_c, 8, 39, 69
10, 43288, Note_on_c, 8, 39, 0
10, 43360, Note_on_c, 8, 41, 80
10, 43898, Note_on_c, 8, 41, 0
10, 43942, Note_on_c, 8, 39, 85
10, 44118, Note_on_c, 8, 39, 0
10, 44138, Note_on_c, 8, 38, 76
10, 44284, Note_on_c, 8, 38, 0
10, 44324, Note_on_c, 8, 36, 66
10, 44466, Note_on_c, 8, 36, 0
10, 44516, Note_on_c, 8, 34, 87
10, 44658, Note_on_c, 8, 34, 0
10, 44712, Note_on_c, 8, 43, 72
10, 44760, Note_on_c, 8, 43, 0
10, 44794, Note_on_c, 8, 41, 81
10, 44844, Note_on_c, 8, 41, 0
10, 44890, Note_on_c, 8, 39, 77
10, 44942, Note_on_c, 8, 39, 0
10, 44986, Note_on_c, 8, 36, 75
10, 45034, Note_on_c, 8, 36, 0
10, 45086, Note_on_c, 8, 38, 75
10, 45118, Note_on_c, 8, 38, 0
10, 45170, Note_on_c, 8, 39, 72
10, 45214, Note_on_c, 8, 39, 0
10, 45284, Note_on_c, 8, 41, 83
10, 45400, Note_on_c, 8, 41, 0
10, 45474, Note_on_c, 8, 41, 91
10, 45532, Note_on_c, 8, 41, 0
10, 45670, Note_on_c, 8, 41, 92
10, 45726, Note_on_c, 8, 41, 0
10, 45860, Note_on_c, 8, 41, 85
10, 45904, Note_on_c, 8, 41, 0
10, 46064, Note_on_c, 8, 43, 90
10, 46106, Note_on_c, 8, 43, 0
10, 46144, Note_on_c, 8, 45, 83
10, 46190, Note_on_c, 8, 45, 0
10, 46240, Note_on_c, 8, 43, 76
10, 46278, Note_on_c, 8, 43, 0
10, 46324, Note_on_c, 8, 41, 83
10, 46356, Note_on_c, 8, 41, 0
10, 46434, Note_on_c, 8, 43, 84
10, 46472, Note_on_c, 8, 43, 0
10, 46526, Note_on_c, 8, 45, 75
10, 46568, Note_on_c, 8, 45, 0
10, 46616, Note_on_c, 8, 41, 78
10, 46652, Note_on_c, 8, 41, 0
10, 46702, Note_on_c, 8, 43, 79
10, 46734, Note_on_c, 8, 43, 0
10, 46836, Note_on_c, 8, 41, 80
10, 47316, Note_on_c, 8, 41, 0
10, 47390, Note_on_c, 8, 41, 95
10, 47546, Note_on_c, 8, 41, 0
10, 47590, Note_on_c, 8, 38, 94
10, 47934, Note_on_c, 8, 38, 0
10, 47986, Note_on_c, 8, 43, 83
10, 48322, Note_on_c, 8, 43, 0
10, 48364, Note_on_c, 8, 33, 89
10, 48816, Note_on_c, 8, 33, 0
10, 48940, Note_on_c, 8, 33, 87
10, 49052, Note_on_c, 8, 33, 0
10, 49130, Note_on_c, 8, 34, 90
10, 49516, Note_on_c, 8, 34, 0
10, 49696, Note_on_c, 8, 34, 86
10, 49814, Note_on_c, 8, 34, 0
10, 49896, Note_on_c, 8, 36, 85
10, 50338, Note_on_c, 8, 36, 0
10, 50466, Note_on_c, 8, 34, 71
10, 50536, Note_on_c, 8, 34, 0
10, 50550, Note_on_c, 8, 36, 64
10, 50616, Note_on_c, 8, 36, 0
10, 50648, Note_on_c, 8, 38, 76
10, 50794, Note_on_c, 8, 38, 0
10, 50844, Note_on_c, 8, 46, 81
10, 50900, Note_on_c, 8, 46, 0
10, 50936, Note_on_c, 8, 45, 81
10, 50988, Note_on_c, 8, 45, 0
10, 51026, Note_on_c, 8, 43, 76
10, 51172, Note_on_c, 8, 43, 0
10, 51228, Note_on_c, 8, 41, 79
10, 51364, Note_on_c, 8, 41, 0
10, 51422, Note_on_c, 8, 40, 80
10, 51576, Note_on_c, 8, 40, 0
10, 51610, Note_on_c, 8, 43, 76
10, 51752, Note_on_c, 8, 43, 0
10, 51814, Note_on_c, 8, 36, 91
10, 52226, Note_on_c, 8, 36, 0
10, 52406, Note_on_c, 8, 41, 89
10, 52542, Note_on_c, 8, 41, 0
10, 52590, Note_on_c, 8, 46, 91
10, 52730, Note_on_c, 8, 46, 0
10, 52766, Note_on_c, 8, 43, 76
10, 52910, Note_on_c, 8, 43, 0
10, 52958, Note_on_c, 8, 48, 79
10, 53064, Note_on_c, 8, 48, 0
10, 53154, Note_on_c, 8, 36, 99
10, 53294, Note_on_c, 8, 36, 0
10, 53348, Note_on_c, 8, 36, 84
10, 53460, Note_on_c, 8, 36, 0
10, 53534, Note_on_c, 8, 36, 80
10, 53660, Note_on_c, 8, 36, 0
10, 53738, Note_on_c, 8, 37, 75
10, 53778, Note_on_c, 8, 37, 0
10, 53826, Note_on_c, 8, 39, 78
10, 53872, Note_on_c, 8, 39, 0
10, 53914, Note_on_c, 8, 37, 74
10, 53954, Note_on_c, 8, 37, 0
10, 53998, Note_on_c, 8, 36, 77
10, 54050, Note_on_c, 8, 36, 0
10, 54118, Note_on_c, 8, 38, 79
10, 54152, Note_on_c, 8, 38, 0
10, 54206, Note_on_c, 8, 39, 76
10, 54258, Note_on_c, 8, 39, 0
10, 54304, Note_on_c, 8, 36, 80
10, 54350, Note_on_c, 8, 36, 0
10, 54400, Note_on_c, 8, 38, 74
10, 54436, Note_on_c, 8, 38, 0
10, 54498, Note_on_c, 8, 39, 81
10, 54544, Note_on_c, 8, 39, 0
10, 54586, Note_on_c, 8, 41, 77
10, 54634, Note_on_c, 8, 41, 0
10, 54680, Note_on_c, 8, 39, 76
10, 54720, Note_on_c, 8, 39, 0
10, 54770, Note_on_c, 8, 38, 77
10, 54808, Note_on_c, 8, 38, 0
10, 54880, Note_on_c, 8, 40, 79
10, 54914, Note_on_c, 8, 40, 0
10, 54966, Note_on_c, 8, 41, 78
10, 55008, Note_on_c, 8, 41, 0
10, 55066, Note_on_c, 8, 38, 79
10, 55096, Note_on_c, 8, 38, 0
10, 55154, Note_on_c, 8, 40, 76
10, 55182, Note_on_c, 8, 40, 0
10, 55258, Note_on_c, 8, 41, 87
10, 55380, Note_on_c, 8, 41, 0
10, 55458, Note_on_c, 8, 36, 92
10, 55588, Note_on_c, 8, 36, 0
10, 55648, Note_on_c, 8, 41, 83
10, 55784, Note_on_c, 8, 41, 0
10, 55840, Note_on_c, 8, 39, 84
10, 55978, Note_on_c, 8, 39, 0
10, 56022, Note_on_c, 8, 38, 80
10, 56148, Note_on_c, 8, 38, 0
10, 56208, Note_on_c, 8, 31, 84
10, 56346, Note_on_c, 8, 31, 0
10, 56412, Note_on_c, 8, 43, 85
10, 56538, Note_on_c, 8, 43, 0
10, 56608, Note_on_c, 8, 41, 80
10, 56730, Note_on_c, 8, 41, 0
10, 56802, Note_on_c, 8, 39, 81
10, 56934, Note_on_c, 8, 39, 0
10, 57002, Note_on_c, 8, 43, 81
10, 57130, Note_on_c, 8, 43, 0
10, 57192, Note_on_c, 8, 48, 82
10, 57322, Note_on_c, 8, 48, 0
10, 57380, Note_on_c, 8, 46, 84
10, 57540, Note_on_c, 8, 46, 0
10, 57578, Note_on_c, 8, 45, 87
10, 57694, Note_on_c, 8, 45, 0
10, 57760, Note_on_c, 8, 38, 74
10, 57906, Note_on_c, 8, 38, 0
10, 57958, Note_on_c, 8, 50, 89
10, 58094, Note_on_c, 8, 50, 0
10, 58150, Note_on_c, 8, 48, 83
10, 58294, Note_on_c, 8, 48, 0
10, 58350, Note_on_c, 8, 46, 97
10, 58486, Note_on_c, 8, 46, 0
10, 58552, Note_on_c, 8, 38, 83
10, 58680, Note_on_c, 8, 38, 0
10, 58736, Note_on_c, 8, 43, 83
10, 58854, Note_on_c, 8, 43, 0
10, 58928, Note_on_c, 8, 41, 81
10, 59036, Note_on_c, 8, 41, 0
10, 59122, Note_on_c, 8, 40, 84
10, 59214, Note_on_c, 8, 40, 0
10, 59318, Note_on_c, 8, 40, 91
10, 59378, Note_on_c, 8, 40, 0
10, 59512, Note_on_c, 8, 40, 89
10, 59604, Note_on_c, 8, 40, 0
10, 59700, Note_on_c, 8, 40, 82
10, 59812, Note_on_c, 8, 40, 0
10, 59896, Note_on_c, 8, 41, 92
10, 59940, Note_on_c, 8, 41, 0
10, 59980, Note_on_c, 8, 43, 77
10, 60028, Note_on_c, 8, 43, 0
10, 60076, Note_on_c, 8, 41, 80
10, 60112, Note_on_c, 8, 41, 0
10, 60158, Note_on_c, 8, 40, 79
10, 60190, Note_on_c, 8, 40, 0
10, 60258, Note_on_c, 8, 42, 89
10, 60300, Note_on_c, 8, 42, 0
10, 60352, Note_on_c, 8, 43, 80
10, 60394, Note_on_c, 8, 43, 0
10, 60452, Note_on_c, 8, 40, 80
10, 60486, Note_on_c, 8, 40, 0
10, 60540, Note_on_c, 8, 42, 84
10, 60584, Note_on_c, 8, 42, 0
10, 60650, Note_on_c, 8, 43, 90
10, 60692, Note_on_c, 8, 43, 0
10, 60738, Note_on_c, 8, 45, 84
10, 60786, Note_on_c, 8, 45, 0
10, 60832, Note_on_c, 8, 43, 80
10, 60868, Note_on_c, 8, 43, 0
10, 60914, Note_on_c, 8, 42, 83
10, 60954, Note_on_c, 8, 42, 0
10, 61016, Note_on_c, 8, 44, 89
10, 61060, Note_on_c, 8, 44, 0
10, 61110, Note_on_c, 8, 45, 79
10, 61148, Note_on_c, 8, 45, 0
10, 61208, Note_on_c, 8, 42, 76
10, 61238, Note_on_c, 8, 42, 0
10, 61292, Note_on_c, 8, 44, 76
10, 61318, Note_on_c, 8, 44, 0
10, 61404, Note_on_c, 8, 45, 79
10, 61900, Note_on_c, 8, 45, 0
10, 62004, Note_on_c, 8, 45, 99
10, 62134, Note_on_c, 8, 45, 0
10, 62190, Note_on_c, 8, 41, 96
10, 62520, Note_on_c, 8, 41, 0
10, 62566, Note_on_c, 8, 46, 101
10, 62926, Note_on_c, 8, 46, 0
10, 62956, Note_on_c, 8, 37, 92
10, 63484, Note_on_c, 8, 37, 0
10, 63538, Note_on_c, 8, 37, 91
10, 63696, Note_on_c, 8, 37, 0
10, 63728, Note_on_c, 8, 38, 85
10, 64234, Note_on_c, 8, 38, 0
10, 64306, Note_on_c, 8, 38, 84
10, 64450, Note_on_c, 8, 38, 0
10, 64498, Note_on_c, 8, 40, 82
10, 64998, Note_on_c, 8, 40, 0
10, 65070, Note_on_c, 8, 38, 81
10, 65106, Note_on_c, 8, 38, 0
10, 65156, Note_on_c, 8, 40, 78
10, 65190, Note_on_c, 8, 40, 0
10, 65256, Note_on_c, 8, 41, 91
10, 65406, Note_on_c, 8, 41, 0
10, 65454, Note_on_c, 8, 40, 74
10, 65490, Note_on_c, 8, 40, 0
10, 65538, Note_on_c, 8, 41, 83
10, 65572, Note_on_c, 8, 41, 0
10, 65636, Note_on_c, 8, 43, 84
10, 65782, Note_on_c, 8, 43, 0
10, 65828, Note_on_c, 8, 41, 80
10, 65866, Note_on_c, 8, 41, 0
10, 65908, Note_on_c, 8, 43, 82
10, 65944, Note_on_c, 8, 43, 0
10, 66014, Note_on_c, 8, 45, 92
10, 66168, Note_on_c, 8, 45, 0
10, 66214, Note_on_c, 8, 46, 87
10, 66256, Note_on_c, 8, 46, 0
10, 66296, Note_on_c, 8, 45, 81
10, 66346, Note_on_c, 8, 45, 0
10, 66394, Note_on_c, 8, 43, 79
10, 66438, Note_on_c, 8, 43, 0
10, 66484, Note_on_c, 8, 41, 83
10, 66518, Note_on_c, 8, 41, 0
10, 66574, Note_on_c, 8, 40, 79
10, 66620, Note_on_c, 8, 40, 0
10, 66670, Note_on_c, 8, 38, 80
10, 66706, Note_on_c, 8, 38, 0
10, 66788, Note_on_c, 8, 37, 85
10, 67152, Note_on_c, 8, 37, 0
10, 67186, Note_on_c, 8, 38, 87
10, 67314, Note_on_c, 8, 38, 0
10, 67362, Note_on_c, 8, 45, 89
10, 67498, Note_on_c, 8, 45, 0
10, 67552, Note_on_c, 8, 46, 99
10, 67896, Note_on_c, 8, 46, 0
10, 67960, Note_on_c, 8, 34, 99
10, 68272, Note_on_c, 8, 34, 0
10, 68340, Note_on_c, 8, 33, 92
10, 68486, Note_on_c, 8, 33, 0
10, 68532, Note_on_c, 8, 45, 88
10, 68662, Note_on_c, 8, 45, 0
10, 68714, Note_on_c, 8, 47, 87
10, 68854, Note_on_c, 8, 47, 0
10, 68906, Note_on_c, 8, 49, 91
10, 69066, Note_on_c, 8, 49, 0
10, 69098, Note_on_c, 8, 50, 78
10, 69228, Note_on_c, 8, 50, 0
10, 69286, Note_on_c, 8, 38, 82
10, 69470, Note_on_c, 8, 38, 0
10, 69476, Note_on_c, 8, 46, 85
10, 69646, Note_on_c, 8, 46, 0
10, 69676, Note_on_c, 8, 43, 74
10, 69810, Note_on_c, 8, 43, 0
10, 70060, Note_on_c, 8, 33, 95
10, 70160, Note_on_c, 8, 33, 0
10, 70244, Note_on_c, 8, 33, 96
10, 70356, Note_on_c, 8, 33, 0
10, 70438, Note_on_c, 8, 33, 89
10, 70558, Note_on_c, 8, 33, 0
10, 70632, Note_on_c, 8, 34, 84
10, 70690, Note_on_c, 8, 34, 0
10, 70720, Note_on_c, 8, 36, 78
10, 70770, Note_on_c, 8, 36, 0
10, 70812, Note_on_c, 8, 34, 75
10, 70864, Note_on_c, 8, 34, 0
10, 70902, Note_on_c, 8, 33, 78
10, 70952, Note_on_c, 8, 33, 0
10, 71014, Note_on_c, 8, 35, 79
10, 71062, Note_on_c, 8, 35, 0
10, 71102, Note_on_c, 8, 36, 77
10, 71150, Note_on_c, 8, 36, 0
10, 71202, Note_on_c, 8, 33, 74
10, 71252, Note_on_c, 8, 33, 0
10, 71294, Note_on_c, 8, 35, 72
10, 71338, Note_on_c, 8, 35, 0
10, 71402, Note_on_c, 8, 36, 85
10, 71456, Note_on_c, 8, 36, 0
10, 71486, Note_on_c, 8, 38, 75
10, 71536, Note_on_c, 8, 38, 0
10, 71584, Note_on_c, 8, 36, 74
10, 71624, Note_on_c, 8, 36, 0
10, 71676, Note_on_c, 8, 35, 74
10, 71716, Note_on_c, 8, 35, 0
10, 71784, Note_on_c, 8, 37, 84
10, 71832, Note_on_c, 8, 37, 0
10, 71870, Note_on_c, 8, 38, 76
10, 71916, Note_on_c, 8, 38, 0
10, 71974, Note_on_c, 8, 35, 76
10, 72016, Note_on_c, 8, 35, 0
10, 72064, Note_on_c, 8, 37, 84
10, 72108, Note_on_c, 8, 37, 0
10, 72170, Note_on_c, 8, 38, 94
10, 72246, Note_on_c, 8, 38, 0
10, 72358, Note_on_c, 8, 38, 90
10, 72482, Note_on_c, 8, 38, 0
10, 72554, Note_on_c, 8, 43, 88
10, 72674, Note_on_c, 8, 43, 0
10, 72742, Note_on_c, 8, 41, 90
10, 72874, Note_on_c, 8, 41, 0
10, 72936, Note_on_c, 8, 40, 82
10, 73062, Note_on_c, 8, 40, 0
10, 73128, Note_on_c, 8, 40, 81
10, 73260, Note_on_c, 8, 40, 0
10, 73320, Note_on_c, 8, 45, 87
10, 73454, Note_on_c, 8, 45, 0
10, 73508, Note_on_c, 8, 43, 81
10, 73632, Note_on_c, 8, 43, 0
10, 73702, Note_on_c, 8, 41, 91
10, 73840, Note_on_c, 8, 41, 0
10, 73898, Note_on_c, 8, 45, 90
10, 74018, Note_on_c, 8, 45, 0
10, 74084, Note_on_c, 8, 50, 91
10, 74226, Note_on_c, 8, 50, 0
10, 74280, Note_on_c, 8, 48, 90
10, 74410, Note_on_c, 8, 48, 0
10, 74474, Note_on_c, 8, 47, 90
10, 74592, Note_on_c, 8, 47, 0
10, 74662, Note_on_c, 8, 47, 84
10, 74800, Note_on_c, 8, 47, 0
10, 74866, Note_on_c, 8, 52, 77
10, 74970, Note_on_c, 8, 52, 0
10, 75050, Note_on_c, 8, 50, 78
10, 75152, Note_on_c, 8, 50, 0
10, 75434, Note_on_c, 8, 33, 80
10, 75566, Note_on_c, 8, 33, 0
10, 75624, Note_on_c, 8, 38, 91
10, 75754, Note_on_c, 8, 38, 0
10, 75810, Note_on_c, 8, 36, 84
10, 75960, Note_on_c, 8, 36, 0
10, 76012, Note_on_c, 8, 35, 81
10, 76140, Note_on_c, 8, 35, 0
10, 76200, Note_on_c, 8, 35, 77
10, 76352, Note_on_c, 8, 35, 0
10, 76396, Note_on_c, 8, 40, 88
10, 76530, Note_on_c, 8, 40, 0
10, 76580, Note_on_c, 8, 38, 88
10, 76712, Note_on_c, 8, 38, 0
10, 76766, Note_on_c, 8, 37, 97
10, 76908, Note_on_c, 8, 37, 0
10, 76970, Note_on_c, 8, 45, 96
10, 77114, Note_on_c, 8, 45, 0
10, 77166, Note_on_c, 8, 46, 99
10, 77300, Note_on_c, 8, 46, 0
10, 77352, Note_on_c, 8, 43, 88
10, 77476, Note_on_c, 8, 43, 0
10, 77554, Note_on_c, 8, 45, 103
10, 77906, Note_on_c, 8, 45, 0
10, 77946, Note_on_c, 8, 33, 94
10, 78284, Note_on_c, 8, 33, 0
10, 78314, Note_on_c, 8, 32, 95
10, 79126, Note_on_c, 8, 32, 0
10, 79850, Note_on_c, 8, 44, 99
10, 80220, Note_on_c, 8, 44, 0
10, 80242, Note_on_c, 8, 45, 92
10, 80578, Note_on_c, 8, 45, 0
10, 80628, Note_on_c, 8, 41, 103
10, 80786, Note_on_c, 8, 41, 0
10, 80816, Note_on_c, 8, 38, 90
10, 80958, Note_on_c, 8, 38, 0
10, 80996, Note_on_c, 8, 33, 94
10, 81358, Note_on_c, 8, 33, 0
10, 81396, Note_on_c, 8, 33, 91
10, 81726, Note_on_c, 8, 33, 0
10, 81776, Note_on_c, 8, 38, 94
10, 82948, Note_on_c, 8, 38, 0
10, 82948, End_track
11, 0, Start_track
11, 0, Title_t, "org"
11, 404, Program_c, 10, 19
11, 405, Control_c, 10, 7, 75
11, 405, Control_c, 10, 10, 64
11, 576, Control_c, 10, 91, 110
11, 576, End_track
12, 0, Start_track
12, 0, Title_t, "sop"
12, 406, Program_c, 11, 52
12, 407, Control_c, 11, 7, 127
12, 407, Control_c, 11, 10, 55
12, 576, Control_c, 11, 91, 120
12, 8432, Note_on_c, 11, 74, 127
12, 8956, Note_on_c, 11, 74, 0
12, 8988, Note_on_c, 11, 74, 127
12, 9164, Note_on_c, 11, 74, 0
12, 9194, Note_on_c, 11, 72, 127
12, 9548, Note_on_c, 11, 72, 0
12, 9584, Note_on_c, 11, 77, 127
12, 9916, Note_on_c, 11, 77, 0
12, 9958, Note_on_c, 11, 68, 127
12, 10494, Note_on_c, 11, 68, 0
12, 10540, Note_on_c, 11, 68, 127
12, 10702, Note_on_c, 11, 68, 0
12, 10726, Note_on_c, 11, 69, 127
12, 11236, Note_on_c, 11, 69, 0
12, 11306, Note_on_c, 11, 69, 127
12, 11458, Note_on_c, 11, 69, 0
12, 11500, Note_on_c, 11, 71, 127
12, 12014, Note_on_c, 11, 71, 0
12, 12078, Note_on_c, 11, 69, 127
12, 12136, Note_on_c, 11, 69, 0
12, 12160, Note_on_c, 11, 71, 127
12, 12232, Note_on_c, 11, 71, 0
12, 12258, Note_on_c, 11, 72, 127
12, 12434, Note_on_c, 11, 72, 0
12, 12458, Note_on_c, 11, 71, 127
12, 12510, Note_on_c, 11, 71, 0
12, 12542, Note_on_c, 11, 72, 127
12, 12610, Note_on_c, 11, 72, 0
12, 12640, Note_on_c, 11, 74, 127
12, 12804, Note_on_c, 11, 74, 0
12, 12838, Note_on_c, 11, 72, 127
12, 12892, Note_on_c, 11, 72, 0
12, 12926, Note_on_c, 11, 74, 127
12, 12994, Note_on_c, 11, 74, 0
12, 13028, Note_on_c, 11, 76, 127
12, 13198, Note_on_c, 11, 76, 0
12, 13224, Note_on_c, 11, 74, 127
12, 13384, Note_on_c, 11, 74, 0
12, 13406, Note_on_c, 11, 72, 127
12, 13564, Note_on_c, 11, 72, 0
12, 13592, Note_on_c, 11, 71, 127
12, 13760, Note_on_c, 11, 71, 0
12, 13794, Note_on_c, 11, 69, 127
12, 13950, Note_on_c, 11, 69, 0
12, 13980, Note_on_c, 11, 79, 127
12, 14140, Note_on_c, 11, 79, 0
12, 14182, Note_on_c, 11, 77, 127
12, 14324, Note_on_c, 11, 77, 0
12, 14368, Note_on_c, 11, 76, 127
12, 14536, Note_on_c, 11, 76, 0
12, 14574, Note_on_c, 11, 74, 127
12, 14858, Note_on_c, 11, 74, 0
12, 15150, Note_on_c, 11, 62, 127
12, 15304, Note_on_c, 11, 62, 0
12, 15338, Note_on_c, 11, 67, 127
12, 15862, Note_on_c, 11, 67, 0
12, 15912, Note_on_c, 11, 65, 127
12, 15958, Note_on_c, 11, 65, 0
12, 15990, Note_on_c, 11, 64, 127
12, 16062, Note_on_c, 11, 64, 0
12, 16090, Note_on_c, 11, 69, 127
12, 16218, Note_on_c, 11, 69, 0
12, 16294, Note_on_c, 11, 62, 127
12, 16428, Note_on_c, 11, 62, 0
12, 16482, Note_on_c, 11, 74, 127
12, 17208, Note_on_c, 11, 74, 0
12, 17256, Note_on_c, 11, 74, 127
12, 17600, Note_on_c, 11, 74, 0
12, 17648, Note_on_c, 11, 74, 127
12, 17788, Note_on_c, 11, 74, 0
12, 17824, Note_on_c, 11, 73, 127
12, 17880, Note_on_c, 11, 73, 0
12, 17916, Note_on_c, 11, 74, 127
12, 17978, Note_on_c, 11, 74, 0
12, 18022, Note_on_c, 11, 76, 127
12, 18760, Note_on_c, 11, 76, 0
12, 18802, Note_on_c, 11, 74, 127
12, 18952, Note_on_c, 11, 74, 0
12, 18978, Note_on_c, 11, 73, 127
12, 19130, Note_on_c, 11, 73, 0
12, 19176, Note_on_c, 11, 74, 127
12, 19418, Note_on_c, 11, 74, 0
12, 20910, Note_on_c, 11, 71, 127
12, 21000, Note_on_c, 11, 71, 0
12, 21096, Note_on_c, 11, 71, 127
12, 21202, Note_on_c, 11, 71, 0
12, 21290, Note_on_c, 11, 71, 127
12, 21414, Note_on_c, 11, 71, 0
12, 21488, Note_on_c, 11, 72, 127
12, 21560, Note_on_c, 11, 72, 0
12, 21586, Note_on_c, 11, 74, 127
12, 21650, Note_on_c, 11, 74, 0
12, 21684, Note_on_c, 11, 72, 127
12, 21738, Note_on_c, 11, 72, 0
12, 21768, Note_on_c, 11, 71, 127
12, 21830, Note_on_c, 11, 71, 0
12, 21868, Note_on_c, 11, 72, 127
12, 21920, Note_on_c, 11, 72, 0
12, 21950, Note_on_c, 11, 74, 127
12, 22008, Note_on_c, 11, 74, 0
12, 22046, Note_on_c, 11, 71, 127
12, 22106, Note_on_c, 11, 71, 0
12, 22138, Note_on_c, 11, 72, 127
12, 22194, Note_on_c, 11, 72, 0
12, 22238, Note_on_c, 11, 74, 127
12, 22298, Note_on_c, 11, 74, 0
12, 22326, Note_on_c, 11, 76, 127
12, 22400, Note_on_c, 11, 76, 0
12, 22434, Note_on_c, 11, 74, 127
12, 22490, Note_on_c, 11, 74, 0
12, 22524, Note_on_c, 11, 72, 127
12, 22582, Note_on_c, 11, 72, 0
12, 22630, Note_on_c, 11, 74, 127
12, 22678, Note_on_c, 11, 74, 0
12, 22720, Note_on_c, 11, 76, 127
12, 22776, Note_on_c, 11, 76, 0
12, 22816, Note_on_c, 11, 72, 127
12, 22870, Note_on_c, 11, 72, 0
12, 22904, Note_on_c, 11, 74, 127
12, 22956, Note_on_c, 11, 74, 0
12, 23010, Note_on_c, 11, 76, 127
12, 23158, Note_on_c, 11, 76, 0
12, 23212, Note_on_c, 11, 77, 127
12, 23270, Note_on_c, 11, 77, 0
12, 23304, Note_on_c, 11, 76, 127
12, 23358, Note_on_c, 11, 76, 0
12, 23400, Note_on_c, 11, 74, 127
12, 23452, Note_on_c, 11, 74, 0
12, 23490, Note_on_c, 11, 72, 127
12, 23536, Note_on_c, 11, 72, 0
12, 23578, Note_on_c, 11, 71, 127
12, 23630, Note_on_c, 11, 71, 0
12, 23664, Note_on_c, 11, 69, 127
12, 23730, Note_on_c, 11, 69, 0
12, 23774, Note_on_c, 11, 68, 127
12, 23928, Note_on_c, 11, 68, 0
12, 23968, Note_on_c, 11, 71, 127
12, 24108, Note_on_c, 11, 71, 0
12, 24162, Note_on_c, 11, 76, 127
12, 24310, Note_on_c, 11, 76, 0
12, 24356, Note_on_c, 11, 74, 127
12, 24498, Note_on_c, 11, 74, 0
12, 24548, Note_on_c, 11, 72, 127
12, 24630, Note_on_c, 11, 72, 0
12, 24642, Note_on_c, 11, 71, 127
12, 24694, Note_on_c, 11, 71, 0
12, 24736, Note_on_c, 11, 69, 127
12, 24996, Note_on_c, 11, 69, 0
12, 25036, Note_on_c, 11, 70, 127
12, 25098, Note_on_c, 11, 70, 0
12, 25126, Note_on_c, 11, 67, 127
12, 25180, Note_on_c, 11, 67, 0
12, 25218, Note_on_c, 11, 69, 127
12, 25268, Note_on_c, 11, 69, 0
12, 25312, Note_on_c, 11, 66, 127
12, 25642, Note_on_c, 11, 66, 0
12, 25700, Note_on_c, 11, 67, 127
12, 25856, Note_on_c, 11, 67, 0
12, 25894, Note_on_c, 11, 69, 127
12, 26036, Note_on_c, 11, 69, 0
12, 26084, Note_on_c, 11, 62, 127
12, 26398, Note_on_c, 11, 62, 0
12, 26854, Note_on_c, 11, 72, 127
12, 27402, Note_on_c, 11, 72, 0
12, 27436, Note_on_c, 11, 72, 127
12, 27614, Note_on_c, 11, 72, 0
12, 27632, Note_on_c, 11, 69, 127
12, 27976, Note_on_c, 11, 69, 0
12, 28010, Note_on_c, 11, 74, 127
12, 28356, Note_on_c, 11, 74, 0
12, 28382, Note_on_c, 11, 64, 127
12, 28918, Note_on_c, 11, 64, 0
12, 28962, Note_on_c, 11, 64, 127
12, 29130, Note_on_c, 11, 64, 0
12, 29164, Note_on_c, 11, 65, 127
12, 29696, Note_on_c, 11, 65, 0
12, 29740, Note_on_c, 11, 65, 127
12, 29890, Note_on_c, 11, 65, 0
12, 29930, Note_on_c, 11, 67, 127
12, 30460, Note_on_c, 11, 67, 0
12, 30504, Note_on_c, 11, 65, 127
12, 30574, Note_on_c, 11, 65, 0
12, 30600, Note_on_c, 11, 67, 127
12, 30666, Note_on_c, 11, 67, 0
12, 30698, Note_on_c, 11, 69, 127
12, 30844, Note_on_c, 11, 69, 0
12, 30882, Note_on_c, 11, 67, 127
12, 30938, Note_on_c, 11, 67, 0
12, 30974, Note_on_c, 11, 69, 127
12, 31034, Note_on_c, 11, 69, 0
12, 31072, Note_on_c, 11, 70, 127
12, 31242, Note_on_c, 11, 70, 0
12, 31270, Note_on_c, 11, 69, 127
12, 31322, Note_on_c, 11, 69, 0
12, 31356, Note_on_c, 11, 70, 127
12, 31426, Note_on_c, 11, 70, 0
12, 31458, Note_on_c, 11, 72, 127
12, 31624, Note_on_c, 11, 72, 0
12, 31652, Note_on_c, 11, 70, 127
12, 31808, Note_on_c, 11, 70, 0
12, 31836, Note_on_c, 11, 69, 127
12, 32012, Note_on_c, 11, 69, 0
12, 32034, Note_on_c, 11, 67, 127
12, 32186, Note_on_c, 11, 67, 0
12, 32224, Note_on_c, 11, 66, 127
12, 32598, Note_on_c, 11, 66, 0
12, 32616, Note_on_c, 11, 67, 127
12, 32770, Note_on_c, 11, 67, 0
12, 32806, Note_on_c, 11, 69, 127
12, 32956, Note_on_c, 11, 69, 0
12, 33000, Note_on_c, 11, 70, 127
12, 33268, Note_on_c, 11, 70, 0
12, 33962, Note_on_c, 11, 69, 127
12, 34056, Note_on_c, 11, 69, 0
12, 34160, Note_on_c, 11, 69, 127
12, 34254, Note_on_c, 11, 69, 0
12, 34348, Note_on_c, 11, 69, 127
12, 34468, Note_on_c, 11, 69, 0
12, 34544, Note_on_c, 11, 70, 127
12, 34604, Note_on_c, 11, 70, 0
12, 34636, Note_on_c, 11, 72, 127
12, 34698, Note_on_c, 11, 72, 0
12, 34734, Note_on_c, 11, 70, 127
12, 34792, Note_on_c, 11, 70, 0
12, 34824, Note_on_c, 11, 69, 127
12, 34828, Note_on_c, 11, 70, 127
12, 34844, Note_on_c, 11, 70, 0
12, 34880, Note_on_c, 11, 69, 0
12, 34914, Note_on_c, 11, 70, 127
12, 34970, Note_on_c, 11, 70, 0
12, 35000, Note_on_c, 11, 72, 127
12, 35060, Note_on_c, 11, 72, 0
12, 35098, Note_on_c, 11, 69, 127
12, 35152, Note_on_c, 11, 69, 0
12, 35188, Note_on_c, 11, 70, 127
12, 35252, Note_on_c, 11, 70, 0
12, 35296, Note_on_c, 11, 72, 127
12, 35356, Note_on_c, 11, 72, 0
12, 35390, Note_on_c, 11, 74, 127
12, 35456, Note_on_c, 11, 74, 0
12, 35496, Note_on_c, 11, 72, 127
12, 35550, Note_on_c, 11, 72, 0
12, 35586, Note_on_c, 11, 70, 127
12, 35650, Note_on_c, 11, 70, 0
12, 35686, Note_on_c, 11, 72, 127
12, 35738, Note_on_c, 11, 72, 0
12, 35774, Note_on_c, 11, 74, 127
12, 35838, Note_on_c, 11, 74, 0
12, 35868, Note_on_c, 11, 70, 127
12, 35918, Note_on_c, 11, 70, 0
12, 35952, Note_on_c, 11, 72, 127
12, 36030, Note_on_c, 11, 72, 0
12, 36064, Note_on_c, 11, 74, 127
12, 36226, Note_on_c, 11, 74, 0
12, 36254, Note_on_c, 11, 75, 127
12, 36314, Note_on_c, 11, 75, 0
12, 36346, Note_on_c, 11, 74, 127
12, 36412, Note_on_c, 11, 74, 0
12, 36444, Note_on_c, 11, 72, 127
12, 36498, Note_on_c, 11, 72, 0
12, 36530, Note_on_c, 11, 70, 127
12, 36596, Note_on_c, 11, 70, 0
12, 36630, Note_on_c, 11, 69, 127
12, 36678, Note_on_c, 11, 69, 0
12, 36710, Note_on_c, 11, 67, 127
12, 36784, Note_on_c, 11, 67, 0
12, 36826, Note_on_c, 11, 66, 127
12, 36996, Note_on_c, 11, 66, 0
12, 37026, Note_on_c, 11, 69, 127
12, 37174, Note_on_c, 11, 69, 0
12, 37208, Note_on_c, 11, 74, 127
12, 37356, Note_on_c, 11, 74, 0
12, 37396, Note_on_c, 11, 72, 127
12, 37560, Note_on_c, 11, 72, 0
12, 37598, Note_on_c, 11, 70, 127
12, 37764, Note_on_c, 11, 70, 0
12, 37812, Note_on_c, 11, 71, 127
12, 37918, Note_on_c, 11, 71, 0
12, 37980, Note_on_c, 11, 72, 127
12, 38152, Note_on_c, 11, 72, 0
12, 38186, Note_on_c, 11, 74, 127
12, 38314, Note_on_c, 11, 74, 0
12, 38366, Note_on_c, 11, 75, 127
12, 38422, Note_on_c, 11, 75, 0
12, 38458, Note_on_c, 11, 74, 127
12, 38510, Note_on_c, 11, 74, 0
12, 38556, Note_on_c, 11, 72, 127
12, 38672, Note_on_c, 11, 72, 0
12, 43756, Note_on_c, 11, 77, 127
12, 44316, Note_on_c, 11, 77, 0
12, 44340, Note_on_c, 11, 77, 127
12, 44502, Note_on_c, 11, 77, 0
12, 44528, Note_on_c, 11, 74, 127
12, 44872, Note_on_c, 11, 74, 0
12, 44908, Note_on_c, 11, 79, 127
12, 45250, Note_on_c, 11, 79, 0
12, 45284, Note_on_c, 11, 69, 127
12, 45828, Note_on_c, 11, 69, 0
12, 45868, Note_on_c, 11, 69, 127
12, 46030, Note_on_c, 11, 69, 0
12, 46052, Note_on_c, 11, 70, 127
12, 46444, Note_on_c, 11, 70, 0
12, 46624, Note_on_c, 11, 70, 127
12, 46794, Note_on_c, 11, 70, 0
12, 46814, Note_on_c, 11, 72, 127
12, 47344, Note_on_c, 11, 72, 0
12, 47400, Note_on_c, 11, 70, 127
12, 47458, Note_on_c, 11, 70, 0
12, 47488, Note_on_c, 11, 72, 127
12, 47560, Note_on_c, 11, 72, 0
12, 47588, Note_on_c, 11, 74, 127
12, 47754, Note_on_c, 11, 74, 0
12, 47786, Note_on_c, 11, 72, 127
12, 47852, Note_on_c, 11, 72, 0
12, 47880, Note_on_c, 11, 74, 127
12, 47940, Note_on_c, 11, 74, 0
12, 47974, Note_on_c, 11, 75, 127
12, 48124, Note_on_c, 11, 75, 0
12, 48158, Note_on_c, 11, 74, 127
12, 48214, Note_on_c, 11, 74, 0
12, 48242, Note_on_c, 11, 75, 127
12, 48318, Note_on_c, 11, 75, 0
12, 48350, Note_on_c, 11, 77, 127
12, 48516, Note_on_c, 11, 77, 0
12, 48550, Note_on_c, 11, 72, 127
12, 48712, Note_on_c, 11, 72, 0
12, 48746, Note_on_c, 11, 77, 127
12, 48898, Note_on_c, 11, 77, 0
12, 48934, Note_on_c, 11, 75, 127
12, 49078, Note_on_c, 11, 75, 0
12, 49124, Note_on_c, 11, 74, 127
12, 49258, Note_on_c, 11, 74, 0
12, 49320, Note_on_c, 11, 65, 127
12, 49486, Note_on_c, 11, 65, 0
12, 49522, Note_on_c, 11, 70, 127
12, 50236, Note_on_c, 11, 70, 0
12, 50270, Note_on_c, 11, 69, 127
12, 50660, Note_on_c, 11, 69, 0
12, 50670, Note_on_c, 11, 70, 127
12, 50804, Note_on_c, 11, 70, 0
12, 50858, Note_on_c, 11, 70, 127
12, 50996, Note_on_c, 11, 70, 0
12, 51036, Note_on_c, 11, 70, 127
12, 51806, Note_on_c, 11, 70, 0
12, 51814, Note_on_c, 11, 68, 127
12, 51988, Note_on_c, 11, 68, 0
12, 52004, Note_on_c, 11, 67, 127
12, 52168, Note_on_c, 11, 67, 0
12, 52186, Note_on_c, 11, 68, 127
12, 52468, Note_on_c, 11, 68, 0
12, 53922, Note_on_c, 11, 65, 127
12, 54056, Note_on_c, 11, 65, 0
12, 54110, Note_on_c, 11, 70, 127
12, 54258, Note_on_c, 11, 70, 0
12, 54302, Note_on_c, 11, 68, 127
12, 54436, Note_on_c, 11, 68, 0
12, 54492, Note_on_c, 11, 67, 127
12, 54608, Note_on_c, 11, 67, 0
12, 54670, Note_on_c, 11, 60, 127
12, 54836, Note_on_c, 11, 60, 0
12, 54874, Note_on_c, 11, 72, 127
12, 55028, Note_on_c, 11, 72, 0
12, 55064, Note_on_c, 11, 70, 127
12, 55226, Note_on_c, 11, 70, 0
12, 55260, Note_on_c, 11, 68, 127
12, 55422, Note_on_c, 11, 68, 0
12, 57768, Note_on_c, 11, 69, 127
12, 57882, Note_on_c, 11, 69, 0
12, 57966, Note_on_c, 11, 69, 127
12, 58082, Note_on_c, 11, 69, 0
12, 58152, Note_on_c, 11, 69, 127
12, 58288, Note_on_c, 11, 69, 0
12, 58346, Note_on_c, 11, 70, 127
12, 58396, Note_on_c, 11, 70, 0
12, 58436, Note_on_c, 11, 72, 127
12, 58500, Note_on_c, 11, 72, 0
12, 58540, Note_on_c, 11, 70, 127
12, 58594, Note_on_c, 11, 70, 0
12, 58626, Note_on_c, 11, 69, 127
12, 58694, Note_on_c, 11, 69, 0
12, 58730, Note_on_c, 11, 71, 127
12, 58788, Note_on_c, 11, 71, 0
12, 58818, Note_on_c, 11, 72, 127
12, 58888, Note_on_c, 11, 72, 0
12, 58918, Note_on_c, 11, 69, 127
12, 58984, Note_on_c, 11, 69, 0
12, 59016, Note_on_c, 11, 71, 127
12, 59080, Note_on_c, 11, 71, 0
12, 59114, Note_on_c, 11, 72, 127
12, 59174, Note_on_c, 11, 72, 0
12, 59204, Note_on_c, 11, 74, 127
12, 59266, Note_on_c, 11, 74, 0
12, 59300, Note_on_c, 11, 72, 127
12, 59356, Note_on_c, 11, 72, 0
12, 59390, Note_on_c, 11, 71, 127
12, 59450, Note_on_c, 11, 71, 0
12, 59486, Note_on_c, 11, 73, 127
12, 59542, Note_on_c, 11, 73, 0
12, 59578, Note_on_c, 11, 74, 127
12, 59640, Note_on_c, 11, 74, 0
12, 59678, Note_on_c, 11, 71, 127
12, 59726, Note_on_c, 11, 71, 0
12, 59764, Note_on_c, 11, 73, 127
12, 59832, Note_on_c, 11, 73, 0
12, 59878, Note_on_c, 11, 74, 127
12, 60020, Note_on_c, 11, 74, 0
12, 60074, Note_on_c, 11, 69, 127
12, 60232, Note_on_c, 11, 69, 0
12, 60264, Note_on_c, 11, 74, 127
12, 60406, Note_on_c, 11, 74, 0
12, 60448, Note_on_c, 11, 72, 127
12, 60594, Note_on_c, 11, 72, 0
12, 60642, Note_on_c, 11, 71, 127
12, 60786, Note_on_c, 11, 71, 0
12, 60834, Note_on_c, 11, 64, 127
12, 60978, Note_on_c, 11, 64, 0
12, 61028, Note_on_c, 11, 76, 127
12, 61174, Note_on_c, 11, 76, 0
12, 61212, Note_on_c, 11, 74, 127
12, 61352, Note_on_c, 11, 74, 0
12, 61398, Note_on_c, 11, 73, 127
12, 61644, Note_on_c, 11, 73, 0
12, 63150, Note_on_c, 11, 76, 127
12, 63266, Note_on_c, 11, 76, 0
12, 63336, Note_on_c, 11, 76, 127
12, 63468, Note_on_c, 11, 76, 0
12, 63526, Note_on_c, 11, 76, 127
12, 63674, Note_on_c, 11, 76, 0
12, 63722, Note_on_c, 11, 77, 127
12, 63798, Note_on_c, 11, 77, 0
12, 63818, Note_on_c, 11, 79, 127
12, 63888, Note_on_c, 11, 79, 0
12, 63920, Note_on_c, 11, 77, 127
12, 63986, Note_on_c, 11, 77, 0
12, 64008, Note_on_c, 11, 76, 127
12, 64070, Note_on_c, 11, 76, 0
12, 64104, Note_on_c, 11, 77, 127
12, 64168, Note_on_c, 11, 77, 0
12, 64196, Note_on_c, 11, 79, 127
12, 64274, Note_on_c, 11, 79, 0
12, 64298, Note_on_c, 11, 76, 127
12, 64368, Note_on_c, 11, 76, 0
12, 64390, Note_on_c, 11, 77, 127
12, 64456, Note_on_c, 11, 77, 0
12, 64492, Note_on_c, 11, 79, 127
12, 64554, Note_on_c, 11, 79, 0
12, 64584, Note_on_c, 11, 81, 127
12, 64648, Note_on_c, 11, 81, 0
12, 64684, Note_on_c, 11, 79, 127
12, 64742, Note_on_c, 11, 79, 0
12, 64772, Note_on_c, 11, 77, 127
12, 64834, Note_on_c, 11, 77, 0
12, 64876, Note_on_c, 11, 79, 127
12, 64932, Note_on_c, 11, 79, 0
12, 64966, Note_on_c, 11, 81, 127
12, 65022, Note_on_c, 11, 81, 0
12, 65056, Note_on_c, 11, 77, 127
12, 65116, Note_on_c, 11, 77, 0
12, 65146, Note_on_c, 11, 79, 127
12, 65214, Note_on_c, 11, 79, 0
12, 65252, Note_on_c, 11, 81, 127
12, 65402, Note_on_c, 11, 81, 0
12, 65448, Note_on_c, 11, 82, 127
12, 65510, Note_on_c, 11, 82, 0
12, 65538, Note_on_c, 11, 81, 127
12, 65600, Note_on_c, 11, 81, 0
12, 65638, Note_on_c, 11, 79, 127
12, 65694, Note_on_c, 11, 79, 0
12, 65728, Note_on_c, 11, 77, 127
12, 65778, Note_on_c, 11, 77, 0
12, 65822, Note_on_c, 11, 76, 127
12, 65880, Note_on_c, 11, 76, 0
12, 65906, Note_on_c, 11, 74, 127
12, 65968, Note_on_c, 11, 74, 0
12, 66014, Note_on_c, 11, 73, 127
12, 66170, Note_on_c, 11, 73, 0
12, 66202, Note_on_c, 11, 74, 127
12, 66344, Note_on_c, 11, 74, 0
12, 66396, Note_on_c, 11, 76, 127
12, 66954, Note_on_c, 11, 76, 0
12, 66994, Note_on_c, 11, 79, 127
12, 67150, Note_on_c, 11, 79, 0
12, 67184, Note_on_c, 11, 77, 127
12, 67332, Note_on_c, 11, 77, 0
12, 67368, Note_on_c, 11, 76, 127
12, 67524, Note_on_c, 11, 76, 0
12, 67556, Note_on_c, 11, 74, 127
12, 68076, Note_on_c, 11, 74, 0
12, 68132, Note_on_c, 11, 74, 127
12, 68298, Note_on_c, 11, 74, 0
12, 68328, Note_on_c, 11, 73, 127
12, 68476, Note_on_c, 11, 73, 0
12, 68522, Note_on_c, 11, 73, 127
12, 68688, Note_on_c, 11, 73, 0
12, 68706, Note_on_c, 11, 74, 127
12, 68874, Note_on_c, 11, 74, 0
12, 68896, Note_on_c, 11, 76, 127
12, 69066, Note_on_c, 11, 76, 0
12, 69088, Note_on_c, 11, 69, 127
12, 69398, Note_on_c, 11, 69, 0
12, 71594, Note_on_c, 11, 69, 127
12, 71676, Note_on_c, 11, 69, 0
12, 71780, Note_on_c, 11, 69, 127
12, 71882, Note_on_c, 11, 69, 0
12, 71968, Note_on_c, 11, 69, 127
12, 72110, Note_on_c, 11, 69, 0
12, 72170, Note_on_c, 11, 70, 127
12, 72238, Note_on_c, 11, 70, 0
12, 72266, Note_on_c, 11, 72, 127
12, 72328, Note_on_c, 11, 72, 0
12, 72366, Note_on_c, 11, 70, 127
12, 72424, Note_on_c, 11, 70, 0
12, 72448, Note_on_c, 11, 69, 127
12, 72518, Note_on_c, 11, 69, 0
12, 72556, Note_on_c, 11, 71, 127
12, 72614, Note_on_c, 11, 71, 0
12, 72648, Note_on_c, 11, 72, 127
12, 72712, Note_on_c, 11, 72, 0
12, 72746, Note_on_c, 11, 69, 127
12, 72802, Note_on_c, 11, 69, 0
12, 72834, Note_on_c, 11, 71, 127
12, 72894, Note_on_c, 11, 71, 0
12, 72928, Note_on_c, 11, 72, 127
12, 72994, Note_on_c, 11, 72, 0
12, 73020, Note_on_c, 11, 74, 127
12, 73078, Note_on_c, 11, 74, 0
12, 73122, Note_on_c, 11, 72, 127
12, 73176, Note_on_c, 11, 72, 0
12, 73206, Note_on_c, 11, 71, 127
12, 73270, Note_on_c, 11, 71, 0
12, 73306, Note_on_c, 11, 73, 127
12, 73366, Note_on_c, 11, 73, 0
12, 73406, Note_on_c, 11, 74, 127
12, 73468, Note_on_c, 11, 74, 0
12, 73498, Note_on_c, 11, 71, 127
12, 73552, Note_on_c, 11, 71, 0
12, 73584, Note_on_c, 11, 73, 127
12, 73650, Note_on_c, 11, 73, 0
12, 73694, Note_on_c, 11, 74, 127
12, 73940, Note_on_c, 11, 74, 0
12, 74660, Note_on_c, 11, 76, 127
12, 74784, Note_on_c, 11, 76, 0
12, 74860, Note_on_c, 11, 76, 127
12, 74978, Note_on_c, 11, 76, 0
12, 75050, Note_on_c, 11, 76, 127
12, 75180, Note_on_c, 11, 76, 0
12, 75244, Note_on_c, 11, 77, 127
12, 75316, Note_on_c, 11, 77, 0
12, 75340, Note_on_c, 11, 79, 127
12, 75402, Note_on_c, 11, 79, 0
12, 75442, Note_on_c, 11, 77, 127
12, 75496, Note_on_c, 11, 77, 0
12, 75526, Note_on_c, 11, 76, 127
12, 75588, Note_on_c, 11, 76, 0
12, 75624, Note_on_c, 11, 78, 127
12, 75684, Note_on_c, 11, 78, 0
12, 75714, Note_on_c, 11, 79, 127
12, 75780, Note_on_c, 11, 79, 0
12, 75812, Note_on_c, 11, 76, 127
12, 75864, Note_on_c, 11, 76, 0
12, 75900, Note_on_c, 11, 78, 127
12, 75960, Note_on_c, 11, 78, 0
12, 75998, Note_on_c, 11, 79, 127
12, 76052, Note_on_c, 11, 79, 0
12, 76084, Note_on_c, 11, 81, 127
12, 76146, Note_on_c, 11, 81, 0
12, 76182, Note_on_c, 11, 79, 127
12, 76242, Note_on_c, 11, 79, 0
12, 76274, Note_on_c, 11, 78, 127
12, 76338, Note_on_c, 11, 78, 0
12, 76376, Note_on_c, 11, 80, 127
12, 76434, Note_on_c, 11, 80, 0
12, 76468, Note_on_c, 11, 81, 127
12, 76532, Note_on_c, 11, 81, 0
12, 76574, Note_on_c, 11, 78, 127
12, 76626, Note_on_c, 11, 78, 0
12, 76662, Note_on_c, 11, 80, 127
12, 76734, Note_on_c, 11, 80, 0
12, 76772, Note_on_c, 11, 81, 127
12, 76896, Note_on_c, 11, 81, 0
12, 76968, Note_on_c, 11, 73, 127
12, 77114, Note_on_c, 11, 73, 0
12, 77164, Note_on_c, 11, 74, 127
12, 77284, Note_on_c, 11, 74, 0
12, 77364, Note_on_c, 11, 74, 127
12, 77482, Note_on_c, 11, 74, 0
12, 77564, Note_on_c, 11, 74, 127
12, 77916, Note_on_c, 11, 74, 0
12, 77950, Note_on_c, 11, 73, 127
12, 78298, Note_on_c, 11, 73, 0
12, 78326, Note_on_c, 11, 74, 127
12, 79136, Note_on_c, 11, 74, 0
12, 79864, Note_on_c, 11, 74, 127
12, 80096, Note_on_c, 11, 74, 0
12, 80154, Note_on_c, 11, 74, 127
12, 80218, Note_on_c, 11, 74, 0
12, 80246, Note_on_c, 11, 73, 127
12, 80604, Note_on_c, 11, 73, 0
12, 80638, Note_on_c, 11, 74, 127
12, 80950, Note_on_c, 11, 74, 0
12, 81012, Note_on_c, 11, 74, 127
12, 81368, Note_on_c, 11, 74, 0
12, 81400, Note_on_c, 11, 73, 127
12, 81756, Note_on_c, 11, 73, 0
12, 81786, Note_on_c, 11, 74, 127
12, 82950, Note_on_c, 11, 74, 0
12, 82950, End_track
13, 0, Start_track
13, 0, Title_t, "cont"
13, 408, Program_c, 12, 52
13, 409, Control_c, 12, 7, 127
13, 409, Control_c, 12, 10, 70
13, 576, Control_c, 12, 91, 121
13, 4782, Note_on_c, 12, 64, 127
13, 4906, Note_on_c, 12, 64, 0
13, 4974, Note_on_c, 12, 64, 127
13, 5086, Note_on_c, 12, 64, 0
13, 5156, Note_on_c, 12, 64, 127
13, 5290, Note_on_c, 12, 64, 0
13, 5350, Note_on_c, 12, 65, 127
13, 5426, Note_on_c, 12, 65, 0
13, 5452, Note_on_c, 12, 67, 127
13, 5518, Note_on_c, 12, 67, 0
13, 5552, Note_on_c, 12, 65, 127
13, 5606, Note_on_c, 12, 65, 0
13, 5632, Note_on_c, 12, 64, 127
13, 5698, Note_on_c, 12, 64, 0
13, 5734, Note_on_c, 12, 65, 127
13, 5792, Note_on_c, 12, 65, 0
13, 5824, Note_on_c, 12, 67, 127
13, 5886, Note_on_c, 12, 67, 0
13, 5916, Note_on_c, 12, 64, 127
13, 5982, Note_on_c, 12, 64, 0
13, 6008, Note_on_c, 12, 65, 127
13, 6070, Note_on_c, 12, 65, 0
13, 6106, Note_on_c, 12, 67, 127
13, 6166, Note_on_c, 12, 67, 0
13, 6196, Note_on_c, 12, 69, 127
13, 6258, Note_on_c, 12, 69, 0
13, 6298, Note_on_c, 12, 67, 127
13, 6356, Note_on_c, 12, 67, 0
13, 6384, Note_on_c, 12, 65, 127
13, 6448, Note_on_c, 12, 65, 0
13, 6486, Note_on_c, 12, 67, 127
13, 6540, Note_on_c, 12, 67, 0
13, 6572, Note_on_c, 12, 69, 127
13, 6636, Note_on_c, 12, 69, 0
13, 6666, Note_on_c, 12, 65, 127
13, 6728, Note_on_c, 12, 65, 0
13, 6758, Note_on_c, 12, 67, 127
13, 6820, Note_on_c, 12, 67, 0
13, 6862, Note_on_c, 12, 69, 127
13, 7030, Note_on_c, 12, 69, 0
13, 7068, Note_on_c, 12, 70, 127
13, 7132, Note_on_c, 12, 70, 0
13, 7164, Note_on_c, 12, 69, 127
13, 7230, Note_on_c, 12, 69, 0
13, 7260, Note_on_c, 12, 67, 127
13, 7312, Note_on_c, 12, 67, 0
13, 7342, Note_on_c, 12, 65, 127
13, 7398, Note_on_c, 12, 65, 0
13, 7438, Note_on_c, 12, 64, 127
13, 7494, Note_on_c, 12, 64, 0
13, 7526, Note_on_c, 12, 62, 127
13, 7600, Note_on_c, 12, 62, 0
13, 7636, Note_on_c, 12, 61, 127
13, 7802, Note_on_c, 12, 61, 0
13, 7832, Note_on_c, 12, 64, 127
13, 7980, Note_on_c, 12, 64, 0
13, 8020, Note_on_c, 12, 69, 127
13, 8186, Note_on_c, 12, 69, 0
13, 8218, Note_on_c, 12, 67, 127
13, 8374, Note_on_c, 12, 67, 0
13, 8410, Note_on_c, 12, 65, 127
13, 8584, Note_on_c, 12, 65, 0
13, 8618, Note_on_c, 12, 64, 127
13, 8678, Note_on_c, 12, 64, 0
13, 8710, Note_on_c, 12, 65, 127
13, 8786, Note_on_c, 12, 65, 0
13, 8810, Note_on_c, 12, 62, 127
13, 8874, Note_on_c, 12, 62, 0
13, 8900, Note_on_c, 12, 64, 127
13, 8956, Note_on_c, 12, 64, 0
13, 8984, Note_on_c, 12, 66, 127
13, 9040, Note_on_c, 12, 66, 0
13, 9070, Note_on_c, 12, 68, 127
13, 9132, Note_on_c, 12, 68, 0
13, 9186, Note_on_c, 12, 69, 127
13, 9438, Note_on_c, 12, 69, 0
13, 9968, Note_on_c, 12, 68, 127
13, 10480, Note_on_c, 12, 68, 0
13, 10534, Note_on_c, 12, 68, 127
13, 10706, Note_on_c, 12, 68, 0
13, 10734, Note_on_c, 12, 69, 127
13, 11220, Note_on_c, 12, 69, 0
13, 11312, Note_on_c, 12, 69, 127
13, 11468, Note_on_c, 12, 69, 0
13, 11494, Note_on_c, 12, 71, 127
13, 12030, Note_on_c, 12, 71, 0
13, 12072, Note_on_c, 12, 69, 127
13, 12132, Note_on_c, 12, 69, 0
13, 12152, Note_on_c, 12, 71, 127
13, 12228, Note_on_c, 12, 71, 0
13, 12256, Note_on_c, 12, 72, 127
13, 12420, Note_on_c, 12, 72, 0
13, 12450, Note_on_c, 12, 71, 127
13, 12512, Note_on_c, 12, 71, 0
13, 12536, Note_on_c, 12, 72, 127
13, 12594, Note_on_c, 12, 72, 0
13, 12638, Note_on_c, 12, 74, 127
13, 12804, Note_on_c, 12, 74, 0
13, 12840, Note_on_c, 12, 72, 127
13, 12890, Note_on_c, 12, 72, 0
13, 12924, Note_on_c, 12, 74, 127
13, 12996, Note_on_c, 12, 74, 0
13, 13032, Note_on_c, 12, 76, 127
13, 13192, Note_on_c, 12, 76, 0
13, 13222, Note_on_c, 12, 74, 127
13, 13384, Note_on_c, 12, 74, 0
13, 13412, Note_on_c, 12, 72, 127
13, 13588, Note_on_c, 12, 72, 0
13, 13612, Note_on_c, 12, 71, 127
13, 13776, Note_on_c, 12, 71, 0
13, 13800, Note_on_c, 12, 69, 127
13, 14302, Note_on_c, 12, 69, 0
13, 14366, Note_on_c, 12, 69, 127
13, 14530, Note_on_c, 12, 69, 0
13, 14554, Note_on_c, 12, 65, 127
13, 14904, Note_on_c, 12, 65, 0
13, 14950, Note_on_c, 12, 70, 127
13, 15276, Note_on_c, 12, 70, 0
13, 15332, Note_on_c, 12, 61, 127
13, 15858, Note_on_c, 12, 61, 0
13, 15904, Note_on_c, 12, 61, 127
13, 16078, Note_on_c, 12, 61, 0
13, 16096, Note_on_c, 12, 62, 127
13, 16534, Note_on_c, 12, 62, 0
13, 16680, Note_on_c, 12, 62, 127
13, 16796, Note_on_c, 12, 62, 0
13, 16872, Note_on_c, 12, 64, 127
13, 17380, Note_on_c, 12, 64, 0
13, 17448, Note_on_c, 12, 62, 127
13, 17498, Note_on_c, 12, 62, 0
13, 17534, Note_on_c, 12, 64, 127
13, 17596, Note_on_c, 12, 64, 0
13, 17634, Note_on_c, 12, 65, 127
13, 17794, Note_on_c, 12, 65, 0
13, 17824, Note_on_c, 12, 64, 127
13, 17884, Note_on_c, 12, 64, 0
13, 17914, Note_on_c, 12, 65, 127
13, 17984, Note_on_c, 12, 65, 0
13, 18022, Note_on_c, 12, 67, 127
13, 18178, Note_on_c, 12, 67, 0
13, 18210, Note_on_c, 12, 65, 127
13, 18262, Note_on_c, 12, 65, 0
13, 18288, Note_on_c, 12, 67, 127
13, 18350, Note_on_c, 12, 67, 0
13, 18390, Note_on_c, 12, 69, 127
13, 18548, Note_on_c, 12, 69, 0
13, 18592, Note_on_c, 12, 67, 127
13, 18752, Note_on_c, 12, 67, 0
13, 18786, Note_on_c, 12, 65, 127
13, 18946, Note_on_c, 12, 65, 0
13, 18976, Note_on_c, 12, 64, 127
13, 19134, Note_on_c, 12, 64, 0
13, 19178, Note_on_c, 12, 62, 127
13, 19410, Note_on_c, 12, 62, 0
13, 19448, Note_on_c, 12, 64, 127
13, 19508, Note_on_c, 12, 64, 0
13, 19538, Note_on_c, 12, 66, 127
13, 19718, Note_on_c, 12, 66, 0
13, 19754, Note_on_c, 12, 68, 127
13, 19904, Note_on_c, 12, 68, 0
13, 19940, Note_on_c, 12, 69, 127
13, 20078, Note_on_c, 12, 69, 0
13, 20152, Note_on_c, 12, 64, 127
13, 20490, Note_on_c, 12, 64, 0
13, 20526, Note_on_c, 12, 62, 127
13, 20596, Note_on_c, 12, 62, 0
13, 20616, Note_on_c, 12, 60, 127
13, 20680, Note_on_c, 12, 60, 0
13, 20712, Note_on_c, 12, 59, 127
13, 20974, Note_on_c, 12, 59, 0
13, 21688, Note_on_c, 12, 64, 127
13, 21790, Note_on_c, 12, 64, 0
13, 21874, Note_on_c, 12, 69, 127
13, 22298, Note_on_c, 12, 69, 0
13, 22340, Note_on_c, 12, 67, 127
13, 22402, Note_on_c, 12, 67, 0
13, 22430, Note_on_c, 12, 65, 127
13, 22490, Note_on_c, 12, 65, 0
13, 22520, Note_on_c, 12, 64, 127
13, 22582, Note_on_c, 12, 64, 0
13, 22626, Note_on_c, 12, 65, 127
13, 22788, Note_on_c, 12, 65, 0
13, 22826, Note_on_c, 12, 67, 127
13, 22880, Note_on_c, 12, 67, 0
13, 22912, Note_on_c, 12, 65, 127
13, 22966, Note_on_c, 12, 65, 0
13, 23012, Note_on_c, 12, 64, 127
13, 23248, Note_on_c, 12, 64, 0
13, 23980, Note_on_c, 12, 64, 127
13, 24126, Note_on_c, 12, 64, 0
13, 24168, Note_on_c, 12, 66, 127
13, 24314, Note_on_c, 12, 66, 0
13, 24358, Note_on_c, 12, 68, 127
13, 24514, Note_on_c, 12, 68, 0
13, 24554, Note_on_c, 12, 69, 127
13, 24860, Note_on_c, 12, 69, 0
13, 25518, Note_on_c, 12, 69, 127
13, 25678, Note_on_c, 12, 69, 0
13, 25708, Note_on_c, 12, 74, 127
13, 25880, Note_on_c, 12, 74, 0
13, 25908, Note_on_c, 12, 72, 127
13, 26052, Note_on_c, 12, 72, 0
13, 26096, Note_on_c, 12, 70, 127
13, 26158, Note_on_c, 12, 70, 0
13, 26188, Note_on_c, 12, 69, 127
13, 26248, Note_on_c, 12, 69, 0
13, 26276, Note_on_c, 12, 67, 127
13, 26532, Note_on_c, 12, 67, 0
13, 26572, Note_on_c, 12, 69, 127
13, 26634, Note_on_c, 12, 69, 0
13, 26664, Note_on_c, 12, 65, 127
13, 26712, Note_on_c, 12, 65, 0
13, 26748, Note_on_c, 12, 67, 127
13, 26818, Note_on_c, 12, 67, 0
13, 26846, Note_on_c, 12, 64, 127
13, 27202, Note_on_c, 12, 64, 0
13, 27236, Note_on_c, 12, 65, 127
13, 27404, Note_on_c, 12, 65, 0
13, 27434, Note_on_c, 12, 67, 127
13, 27574, Note_on_c, 12, 67, 0
13, 27622, Note_on_c, 12, 60, 127
13, 27872, Note_on_c, 12, 60, 0
13, 28570, Note_on_c, 12, 60, 127
13, 28886, Note_on_c, 12, 60, 0
13, 28960, Note_on_c, 12, 58, 127
13, 29118, Note_on_c, 12, 58, 0
13, 29156, Note_on_c, 12, 57, 127
13, 29284, Note_on_c, 12, 57, 0
13, 29350, Note_on_c, 12, 65, 127
13, 29500, Note_on_c, 12, 65, 0
13, 29542, Note_on_c, 12, 62, 127
13, 29642, Note_on_c, 12, 62, 0
13, 29718, Note_on_c, 12, 58, 127
13, 29900, Note_on_c, 12, 58, 0
13, 30116, Note_on_c, 12, 67, 127
13, 30242, Note_on_c, 12, 67, 0
13, 30306, Note_on_c, 12, 64, 127
13, 30412, Note_on_c, 12, 64, 0
13, 30490, Note_on_c, 12, 60, 127
13, 30620, Note_on_c, 12, 60, 0
13, 30882, Note_on_c, 12, 64, 127
13, 30938, Note_on_c, 12, 64, 0
13, 30970, Note_on_c, 12, 65, 127
13, 31028, Note_on_c, 12, 65, 0
13, 31072, Note_on_c, 12, 67, 127
13, 31224, Note_on_c, 12, 67, 0
13, 31266, Note_on_c, 12, 65, 127
13, 31320, Note_on_c, 12, 65, 0
13, 31352, Note_on_c, 12, 67, 127
13, 31414, Note_on_c, 12, 67, 0
13, 31458, Note_on_c, 12, 69, 127
13, 31614, Note_on_c, 12, 69, 0
13, 31640, Note_on_c, 12, 64, 127
13, 31800, Note_on_c, 12, 64, 0
13, 31840, Note_on_c, 12, 65, 127
13, 32004, Note_on_c, 12, 65, 0
13, 32032, Note_on_c, 12, 61, 127
13, 32184, Note_on_c, 12, 61, 0
13, 32232, Note_on_c, 12, 62, 127
13, 32594, Note_on_c, 12, 62, 0
13, 32614, Note_on_c, 12, 64, 127
13, 32762, Note_on_c, 12, 64, 0
13, 32802, Note_on_c, 12, 66, 127
13, 32962, Note_on_c, 12, 66, 0
13, 32998, Note_on_c, 12, 67, 127
13, 33236, Note_on_c, 12, 67, 0
13, 33962, Note_on_c, 12, 63, 127
13, 34118, Note_on_c, 12, 63, 0
13, 34154, Note_on_c, 12, 62, 127
13, 34304, Note_on_c, 12, 62, 0
13, 34334, Note_on_c, 12, 60, 127
13, 34496, Note_on_c, 12, 60, 0
13, 34530, Note_on_c, 12, 58, 127
13, 34692, Note_on_c, 12, 58, 0
13, 34718, Note_on_c, 12, 55, 127
13, 34874, Note_on_c, 12, 55, 0
13, 34912, Note_on_c, 12, 63, 127
13, 35466, Note_on_c, 12, 63, 0
13, 35496, Note_on_c, 12, 60, 127
13, 35660, Note_on_c, 12, 60, 0
13, 35690, Note_on_c, 12, 65, 127
13, 36416, Note_on_c, 12, 65, 0
13, 36448, Note_on_c, 12, 63, 127
13, 36816, Note_on_c, 12, 63, 0
13, 36834, Note_on_c, 12, 62, 127
13, 37010, Note_on_c, 12, 62, 0
13, 37038, Note_on_c, 12, 66, 127
13, 37190, Note_on_c, 12, 66, 0
13, 37220, Note_on_c, 12, 67, 127
13, 37376, Note_on_c, 12, 67, 0
13, 37410, Note_on_c, 12, 69, 127
13, 37572, Note_on_c, 12, 69, 0
13, 37604, Note_on_c, 12, 62, 127
13, 37760, Note_on_c, 12, 62, 0
13, 37798, Note_on_c, 12, 68, 127
13, 37942, Note_on_c, 12, 68, 0
13, 37994, Note_on_c, 12, 67, 127
13, 38242, Note_on_c, 12, 67, 0
13, 39336, Note_on_c, 12, 62, 127
13, 39462, Note_on_c, 12, 62, 0
13, 39526, Note_on_c, 12, 62, 127
13, 39650, Note_on_c, 12, 62, 0
13, 39716, Note_on_c, 12, 62, 127
13, 39870, Note_on_c, 12, 62, 0
13, 39918, Note_on_c, 12, 63, 127
13, 39986, Note_on_c, 12, 63, 0
13, 40014, Note_on_c, 12, 65, 127
13, 40086, Note_on_c, 12, 65, 0
13, 40114, Note_on_c, 12, 63, 127
13, 40184, Note_on_c, 12, 63, 0
13, 40200, Note_on_c, 12, 62, 127
13, 40264, Note_on_c, 12, 62, 0
13, 40294, Note_on_c, 12, 63, 127
13, 40356, Note_on_c, 12, 63, 0
13, 40386, Note_on_c, 12, 65, 127
13, 40452, Note_on_c, 12, 65, 0
13, 40478, Note_on_c, 12, 62, 127
13, 40538, Note_on_c, 12, 62, 0
13, 40564, Note_on_c, 12, 63, 127
13, 40628, Note_on_c, 12, 63, 0
13, 40662, Note_on_c, 12, 65, 127
13, 40728, Note_on_c, 12, 65, 0
13, 40760, Note_on_c, 12, 67, 127
13, 40820, Note_on_c, 12, 67, 0
13, 40862, Note_on_c, 12, 65, 127
13, 40918, Note_on_c, 12, 65, 0
13, 40946, Note_on_c, 12, 63, 127
13, 41010, Note_on_c, 12, 63, 0
13, 41048, Note_on_c, 12, 65, 127
13, 41100, Note_on_c, 12, 65, 0
13, 41136, Note_on_c, 12, 67, 127
13, 41194, Note_on_c, 12, 67, 0
13, 41232, Note_on_c, 12, 63, 127
13, 41282, Note_on_c, 12, 63, 0
13, 41320, Note_on_c, 12, 65, 127
13, 41376, Note_on_c, 12, 65, 0
13, 41420, Note_on_c, 12, 67, 127
13, 41586, Note_on_c, 12, 67, 0
13, 41626, Note_on_c, 12, 68, 127
13, 41688, Note_on_c, 12, 68, 0
13, 41722, Note_on_c, 12, 67, 127
13, 41780, Note_on_c, 12, 67, 0
13, 41816, Note_on_c, 12, 65, 127
13, 41870, Note_on_c, 12, 65, 0
13, 41914, Note_on_c, 12, 63, 127
13, 41980, Note_on_c, 12, 63, 0
13, 42012, Note_on_c, 12, 62, 127
13, 42064, Note_on_c, 12, 62, 0
13, 42092, Note_on_c, 12, 60, 127
13, 42166, Note_on_c, 12, 60, 0
13, 42200, Note_on_c, 12, 59, 127
13, 42348, Note_on_c, 12, 59, 0
13, 42396, Note_on_c, 12, 62, 127
13, 42534, Note_on_c, 12, 62, 0
13, 42588, Note_on_c, 12, 67, 127
13, 42730, Note_on_c, 12, 67, 0
13, 42774, Note_on_c, 12, 65, 127
13, 42918, Note_on_c, 12, 65, 0
13, 42966, Note_on_c, 12, 63, 127
13, 43502, Note_on_c, 12, 63, 0
13, 43548, Note_on_c, 12, 62, 127
13, 43702, Note_on_c, 12, 62, 0
13, 43732, Note_on_c, 12, 60, 127
13, 43890, Note_on_c, 12, 60, 0
13, 43928, Note_on_c, 12, 65, 127
13, 44080, Note_on_c, 12, 65, 0
13, 44124, Note_on_c, 12, 67, 127
13, 44276, Note_on_c, 12, 67, 0
13, 44314, Note_on_c, 12, 69, 127
13, 44454, Note_on_c, 12, 69, 0
13, 44508, Note_on_c, 12, 70, 127
13, 44650, Note_on_c, 12, 70, 0
13, 44710, Note_on_c, 12, 58, 127
13, 44864, Note_on_c, 12, 58, 0
13, 44900, Note_on_c, 12, 63, 127
13, 45118, Note_on_c, 12, 63, 0
13, 45172, Note_on_c, 12, 62, 127
13, 45222, Note_on_c, 12, 62, 0
13, 45268, Note_on_c, 12, 60, 127
13, 45380, Note_on_c, 12, 60, 0
13, 45470, Note_on_c, 12, 60, 127
13, 45608, Note_on_c, 12, 60, 0
13, 45670, Note_on_c, 12, 65, 127
13, 46186, Note_on_c, 12, 65, 0
13, 46246, Note_on_c, 12, 63, 127
13, 46318, Note_on_c, 12, 63, 0
13, 46344, Note_on_c, 12, 62, 127
13, 46404, Note_on_c, 12, 62, 0
13, 46426, Note_on_c, 12, 63, 127
13, 46484, Note_on_c, 12, 63, 0
13, 46518, Note_on_c, 12, 65, 127
13, 46584, Note_on_c, 12, 65, 0
13, 46614, Note_on_c, 12, 62, 127
13, 46666, Note_on_c, 12, 62, 0
13, 46700, Note_on_c, 12, 63, 127
13, 46762, Note_on_c, 12, 63, 0
13, 46812, Note_on_c, 12, 60, 127
13, 46974, Note_on_c, 12, 60, 0
13, 47008, Note_on_c, 12, 62, 127
13, 47054, Note_on_c, 12, 62, 0
13, 47088, Note_on_c, 12, 63, 127
13, 47152, Note_on_c, 12, 63, 0
13, 47196, Note_on_c, 12, 65, 127
13, 47686, Note_on_c, 12, 65, 0
13, 47774, Note_on_c, 12, 58, 127
13, 48104, Note_on_c, 12, 58, 0
13, 48152, Note_on_c, 12, 67, 127
13, 48304, Note_on_c, 12, 67, 0
13, 48352, Note_on_c, 12, 65, 127
13, 48578, Note_on_c, 12, 65, 0
13, 51424, Note_on_c, 12, 72, 127
13, 51972, Note_on_c, 12, 72, 0
13, 52006, Note_on_c, 12, 72, 127
13, 52190, Note_on_c, 12, 72, 0
13, 52204, Note_on_c, 12, 68, 127
13, 52562, Note_on_c, 12, 68, 0
13, 52592, Note_on_c, 12, 73, 127
13, 52952, Note_on_c, 12, 73, 0
13, 52974, Note_on_c, 12, 64, 127
13, 53488, Note_on_c, 12, 64, 0
13, 53536, Note_on_c, 12, 64, 127
13, 53708, Note_on_c, 12, 64, 0
13, 53740, Note_on_c, 12, 65, 127
13, 54070, Note_on_c, 12, 65, 0
13, 56232, Note_on_c, 12, 62, 127
13, 56340, Note_on_c, 12, 62, 0
13, 56426, Note_on_c, 12, 62, 127
13, 56552, Note_on_c, 12, 62, 0
13, 56624, Note_on_c, 12, 62, 127
13, 56760, Note_on_c, 12, 62, 0
13, 56810, Note_on_c, 12, 63, 127
13, 56872, Note_on_c, 12, 63, 0
13, 56900, Note_on_c, 12, 65, 127
13, 56970, Note_on_c, 12, 65, 0
13, 57002, Note_on_c, 12, 63, 127
13, 57060, Note_on_c, 12, 63, 0
13, 57082, Note_on_c, 12, 62, 127
13, 57146, Note_on_c, 12, 62, 0
13, 57188, Note_on_c, 12, 64, 127
13, 57248, Note_on_c, 12, 64, 0
13, 57278, Note_on_c, 12, 65, 127
13, 57350, Note_on_c, 12, 65, 0
13, 57378, Note_on_c, 12, 62, 127
13, 57440, Note_on_c, 12, 62, 0
13, 57470, Note_on_c, 12, 64, 127
13, 57534, Note_on_c, 12, 64, 0
13, 57566, Note_on_c, 12, 65, 127
13, 57626, Note_on_c, 12, 65, 0
13, 57654, Note_on_c, 12, 67, 127
13, 57720, Note_on_c, 12, 67, 0
13, 57756, Note_on_c, 12, 65, 127
13, 57810, Note_on_c, 12, 65, 0
13, 57838, Note_on_c, 12, 64, 127
13, 57922, Note_on_c, 12, 64, 0
13, 57950, Note_on_c, 12, 66, 127
13, 58016, Note_on_c, 12, 66, 0
13, 58046, Note_on_c, 12, 67, 127
13, 58130, Note_on_c, 12, 67, 0
13, 58154, Note_on_c, 12, 64, 127
13, 58222, Note_on_c, 12, 64, 0
13, 58246, Note_on_c, 12, 66, 127
13, 58308, Note_on_c, 12, 66, 0
13, 58346, Note_on_c, 12, 67, 127
13, 58500, Note_on_c, 12, 67, 0
13, 58544, Note_on_c, 12, 62, 127
13, 58700, Note_on_c, 12, 62, 0
13, 58734, Note_on_c, 12, 67, 127
13, 58876, Note_on_c, 12, 67, 0
13, 58920, Note_on_c, 12, 65, 127
13, 59068, Note_on_c, 12, 65, 0
13, 59108, Note_on_c, 12, 64, 127
13, 59264, Note_on_c, 12, 64, 0
13, 59296, Note_on_c, 12, 57, 127
13, 59452, Note_on_c, 12, 57, 0
13, 59498, Note_on_c, 12, 69, 127
13, 59650, Note_on_c, 12, 69, 0
13, 59686, Note_on_c, 12, 67, 127
13, 59824, Note_on_c, 12, 67, 0
13, 59872, Note_on_c, 12, 65, 127
13, 60174, Note_on_c, 12, 65, 0
13, 60276, Note_on_c, 12, 69, 127
13, 60476, Note_on_c, 12, 69, 0
13, 60546, Note_on_c, 12, 69, 127
13, 60596, Note_on_c, 12, 69, 0
13, 60646, Note_on_c, 12, 62, 127
13, 60784, Note_on_c, 12, 62, 0
13, 60848, Note_on_c, 12, 71, 127
13, 60972, Note_on_c, 12, 71, 0
13, 61040, Note_on_c, 12, 71, 127
13, 61384, Note_on_c, 12, 71, 0
13, 61416, Note_on_c, 12, 64, 127
13, 61554, Note_on_c, 12, 64, 0
13, 61612, Note_on_c, 12, 61, 127
13, 61782, Note_on_c, 12, 61, 0
13, 61794, Note_on_c, 12, 62, 127
13, 61958, Note_on_c, 12, 62, 0
13, 61982, Note_on_c, 12, 64, 127
13, 62142, Note_on_c, 12, 64, 0
13, 62176, Note_on_c, 12, 65, 127
13, 62354, Note_on_c, 12, 65, 0
13, 62380, Note_on_c, 12, 64, 127
13, 62444, Note_on_c, 12, 64, 0
13, 62466, Note_on_c, 12, 65, 127
13, 62540, Note_on_c, 12, 65, 0
13, 62568, Note_on_c, 12, 67, 127
13, 62732, Note_on_c, 12, 67, 0
13, 62766, Note_on_c, 12, 65, 127
13, 62830, Note_on_c, 12, 65, 0
13, 62854, Note_on_c, 12, 67, 127
13, 62924, Note_on_c, 12, 67, 0
13, 62952, Note_on_c, 12, 69, 127
13, 63104, Note_on_c, 12, 69, 0
13, 63140, Note_on_c, 12, 70, 127
13, 63300, Note_on_c, 12, 70, 0
13, 63328, Note_on_c, 12, 69, 127
13, 63496, Note_on_c, 12, 69, 0
13, 63526, Note_on_c, 12, 67, 127
13, 63694, Note_on_c, 12, 67, 0
13, 63714, Note_on_c, 12, 65, 127
13, 63870, Note_on_c, 12, 65, 0
13, 63906, Note_on_c, 12, 69, 127
13, 64054, Note_on_c, 12, 69, 0
13, 64098, Note_on_c, 12, 74, 127
13, 64834, Note_on_c, 12, 74, 0
13, 64862, Note_on_c, 12, 73, 127
13, 65204, Note_on_c, 12, 73, 0
13, 66422, Note_on_c, 12, 70, 127
13, 66918, Note_on_c, 12, 70, 0
13, 66974, Note_on_c, 12, 70, 127
13, 67148, Note_on_c, 12, 70, 0
13, 67172, Note_on_c, 12, 69, 127
13, 67332, Note_on_c, 12, 69, 0
13, 67370, Note_on_c, 12, 69, 127
13, 67530, Note_on_c, 12, 69, 0
13, 67566, Note_on_c, 12, 69, 127
13, 67922, Note_on_c, 12, 69, 0
13, 67938, Note_on_c, 12, 68, 127
13, 68308, Note_on_c, 12, 68, 0
13, 68322, Note_on_c, 12, 69, 127
13, 68474, Note_on_c, 12, 69, 0
13, 68518, Note_on_c, 12, 69, 127
13, 68864, Note_on_c, 12, 69, 0
13, 68900, Note_on_c, 12, 69, 127
13, 69082, Note_on_c, 12, 69, 0
13, 69092, Note_on_c, 12, 65, 127
13, 69440, Note_on_c, 12, 65, 0
13, 69486, Note_on_c, 12, 70, 127
13, 69836, Note_on_c, 12, 70, 0
13, 69872, Note_on_c, 12, 61, 127
13, 70406, Note_on_c, 12, 61, 0
13, 70442, Note_on_c, 12, 61, 127
13, 70616, Note_on_c, 12, 61, 0
13, 70636, Note_on_c, 12, 62, 127
13, 71076, Note_on_c, 12, 62, 0
13, 71208, Note_on_c, 12, 62, 127
13, 71368, Note_on_c, 12, 62, 0
13, 71408, Note_on_c, 12, 64, 127
13, 71888, Note_on_c, 12, 64, 0
13, 71972, Note_on_c, 12, 62, 127
13, 72024, Note_on_c, 12, 62, 0
13, 72052, Note_on_c, 12, 64, 127
13, 72110, Note_on_c, 12, 64, 0
13, 72158, Note_on_c, 12, 65, 127
13, 72526, Note_on_c, 12, 65, 0
13, 73130, Note_on_c, 12, 64, 127
13, 73256, Note_on_c, 12, 64, 0
13, 73326, Note_on_c, 12, 64, 127
13, 73458, Note_on_c, 12, 64, 0
13, 73516, Note_on_c, 12, 64, 127
13, 73658, Note_on_c, 12, 64, 0
13, 73706, Note_on_c, 12, 65, 127
13, 73766, Note_on_c, 12, 65, 0
13, 73794, Note_on_c, 12, 67, 127
13, 73860, Note_on_c, 12, 67, 0
13, 73892, Note_on_c, 12, 65, 127
13, 73940, Note_on_c, 12, 65, 0
13, 73972, Note_on_c, 12, 64, 127
13, 74042, Note_on_c, 12, 64, 0
13, 74080, Note_on_c, 12, 66, 127
13, 74144, Note_on_c, 12, 66, 0
13, 74178, Note_on_c, 12, 67, 127
13, 74244, Note_on_c, 12, 67, 0
13, 74276, Note_on_c, 12, 64, 127
13, 74338, Note_on_c, 12, 64, 0
13, 74366, Note_on_c, 12, 66, 127
13, 74432, Note_on_c, 12, 66, 0
13, 74466, Note_on_c, 12, 67, 127
13, 74526, Note_on_c, 12, 67, 0
13, 74556, Note_on_c, 12, 69, 127
13, 74620, Note_on_c, 12, 69, 0
13, 74660, Note_on_c, 12, 67, 127
13, 74712, Note_on_c, 12, 67, 0
13, 74746, Note_on_c, 12, 66, 127
13, 74814, Note_on_c, 12, 66, 0
13, 74844, Note_on_c, 12, 68, 127
13, 74898, Note_on_c, 12, 68, 0
13, 74940, Note_on_c, 12, 69, 127
13, 75000, Note_on_c, 12, 69, 0
13, 75038, Note_on_c, 12, 66, 127
13, 75086, Note_on_c, 12, 66, 0
13, 75128, Note_on_c, 12, 68, 127
13, 75192, Note_on_c, 12, 68, 0
13, 75244, Note_on_c, 12, 69, 127
13, 75568, Note_on_c, 12, 69, 0
13, 75624, Note_on_c, 12, 69, 127
13, 75824, Note_on_c, 12, 69, 0
13, 75886, Note_on_c, 12, 69, 127
13, 75938, Note_on_c, 12, 69, 0
13, 75986, Note_on_c, 12, 67, 127
13, 76338, Note_on_c, 12, 67, 0
13, 76394, Note_on_c, 12, 71, 127
13, 76612, Note_on_c, 12, 71, 0
13, 76664, Note_on_c, 12, 71, 127
13, 76738, Note_on_c, 12, 71, 0
13, 76778, Note_on_c, 12, 69, 127
13, 76930, Note_on_c, 12, 69, 0
13, 76972, Note_on_c, 12, 67, 127
13, 77138, Note_on_c, 12, 67, 0
13, 77166, Note_on_c, 12, 65, 127
13, 77322, Note_on_c, 12, 65, 0
13, 77356, Note_on_c, 12, 70, 127
13, 77504, Note_on_c, 12, 70, 0
13, 77546, Note_on_c, 12, 69, 127
13, 78076, Note_on_c, 12, 69, 0
13, 78114, Note_on_c, 12, 69, 127
13, 78272, Note_on_c, 12, 69, 0
13, 78310, Note_on_c, 12, 71, 127
13, 79124, Note_on_c, 12, 71, 0
13, 79856, Note_on_c, 12, 71, 127
13, 80088, Note_on_c, 12, 71, 0
13, 80146, Note_on_c, 12, 71, 127
13, 80208, Note_on_c, 12, 71, 0
13, 80248, Note_on_c, 12, 69, 127
13, 80584, Note_on_c, 12, 69, 0
13, 80630, Note_on_c, 12, 69, 127
13, 80962, Note_on_c, 12, 69, 0
13, 81010, Note_on_c, 12, 69, 127
13, 81530, Note_on_c, 12, 69, 0
13, 81574, Note_on_c, 12, 69, 127
13, 81728, Note_on_c, 12, 69, 0
13, 81792, Note_on_c, 12, 69, 127
13, 82948, Note_on_c, 12, 69, 0
13, 82948, End_track
14, 0, Start_track
14, 0, Title_t, "ten"
14, 410, Program_c, 13, 52
14, 411, Control_c, 13, 7, 127
14, 411, Control_c, 13, 10, 55
14, 576, Control_c, 13, 91, 120
14, 10164, Note_on_c, 13, 59, 127
14, 10246, Note_on_c, 13, 59, 0
14, 10342, Note_on_c, 13, 59, 127
14, 10446, Note_on_c, 13, 59, 0
14, 10538, Note_on_c, 13, 59, 127
14, 10656, Note_on_c, 13, 59, 0
14, 10736, Note_on_c, 13, 60, 127
14, 10794, Note_on_c, 13, 60, 0
14, 10824, Note_on_c, 13, 62, 127
14, 10884, Note_on_c, 13, 62, 0
14, 10920, Note_on_c, 13, 60, 127
14, 10968, Note_on_c, 13, 60, 0
14, 11004, Note_on_c, 13, 59, 127
14, 11052, Note_on_c, 13, 59, 0
14, 11108, Note_on_c, 13, 60, 127
14, 11154, Note_on_c, 13, 60, 0
14, 11190, Note_on_c, 13, 62, 127
14, 11252, Note_on_c, 13, 62, 0
14, 11288, Note_on_c, 13, 59, 127
14, 11358, Note_on_c, 13, 59, 0
14, 11388, Note_on_c, 13, 60, 127
14, 11448, Note_on_c, 13, 60, 0
14, 11490, Note_on_c, 13, 62, 127
14, 11550, Note_on_c, 13, 62, 0
14, 11582, Note_on_c, 13, 64, 127
14, 11644, Note_on_c, 13, 64, 0
14, 11692, Note_on_c, 13, 62, 127
14, 11738, Note_on_c, 13, 62, 0
14, 11776, Note_on_c, 13, 60, 127
14, 11832, Note_on_c, 13, 60, 0
14, 11884, Note_on_c, 13, 62, 127
14, 11934, Note_on_c, 13, 62, 0
14, 11970, Note_on_c, 13, 64, 127
14, 12028, Note_on_c, 13, 64, 0
14, 12064, Note_on_c, 13, 60, 127
14, 12116, Note_on_c, 13, 60, 0
14, 12152, Note_on_c, 13, 62, 127
14, 12206, Note_on_c, 13, 62, 0
14, 12254, Note_on_c, 13, 64, 127
14, 12408, Note_on_c, 13, 64, 0
14, 12446, Note_on_c, 13, 65, 127
14, 12502, Note_on_c, 13, 65, 0
14, 12538, Note_on_c, 13, 64, 127
14, 12588, Note_on_c, 13, 64, 0
14, 12632, Note_on_c, 13, 62, 127
14, 12682, Note_on_c, 13, 62, 0
14, 12716, Note_on_c, 13, 60, 127
14, 12764, Note_on_c, 13, 60, 0
14, 12814, Note_on_c, 13, 59, 127
14, 12864, Note_on_c, 13, 59, 0
14, 12902, Note_on_c, 13, 57, 127
14, 12974, Note_on_c, 13, 57, 0
14, 13016, Note_on_c, 13, 56, 127
14, 13176, Note_on_c, 13, 56, 0
14, 13210, Note_on_c, 13, 59, 127
14, 13352, Note_on_c, 13, 59, 0
14, 13398, Note_on_c, 13, 64, 127
14, 13534, Note_on_c, 13, 64, 0
14, 13576, Note_on_c, 13, 62, 127
14, 13758, Note_on_c, 13, 62, 0
14, 13800, Note_on_c, 13, 60, 127
14, 13940, Note_on_c, 13, 60, 0
14, 13986, Note_on_c, 13, 61, 127
14, 14156, Note_on_c, 13, 61, 0
14, 14182, Note_on_c, 13, 62, 127
14, 14344, Note_on_c, 13, 62, 0
14, 14370, Note_on_c, 13, 64, 127
14, 14518, Note_on_c, 13, 64, 0
14, 14564, Note_on_c, 13, 57, 127
14, 14710, Note_on_c, 13, 57, 0
14, 14750, Note_on_c, 13, 50, 127
14, 14910, Note_on_c, 13, 50, 0
14, 14952, Note_on_c, 13, 55, 127
14, 15110, Note_on_c, 13, 55, 0
14, 15132, Note_on_c, 13, 53, 127
14, 15300, Note_on_c, 13, 53, 0
14, 15322, Note_on_c, 13, 52, 127
14, 15498, Note_on_c, 13, 52, 0
14, 15522, Note_on_c, 13, 55, 127
14, 15676, Note_on_c, 13, 55, 0
14, 15710, Note_on_c, 13, 58, 127
14, 16084, Note_on_c, 13, 58, 0
14, 16108, Note_on_c, 13, 57, 127
14, 16312, Note_on_c, 13, 57, 0
14, 19188, Note_on_c, 13, 62, 127
14, 19692, Note_on_c, 13, 62, 0
14, 19756, Note_on_c, 13, 62, 127
14, 19906, Note_on_c, 13, 62, 0
14, 19940, Note_on_c, 13, 60, 127
14, 20286, Note_on_c, 13, 60, 0
14, 20334, Note_on_c, 13, 65, 127
14, 20670, Note_on_c, 13, 65, 0
14, 20712, Note_on_c, 13, 56, 127
14, 21244, Note_on_c, 13, 56, 0
14, 21298, Note_on_c, 13, 56, 127
14, 21472, Note_on_c, 13, 56, 0
14, 21496, Note_on_c, 13, 57, 127
14, 21964, Note_on_c, 13, 57, 0
14, 22060, Note_on_c, 13, 57, 127
14, 22226, Note_on_c, 13, 57, 0
14, 22260, Note_on_c, 13, 59, 127
14, 22754, Note_on_c, 13, 59, 0
14, 22824, Note_on_c, 13, 57, 127
14, 22880, Note_on_c, 13, 57, 0
14, 22908, Note_on_c, 13, 59, 127
14, 22972, Note_on_c, 13, 59, 0
14, 23010, Note_on_c, 13, 60, 127
14, 23170, Note_on_c, 13, 60, 0
14, 23214, Note_on_c, 13, 59, 127
14, 23266, Note_on_c, 13, 59, 0
14, 23300, Note_on_c, 13, 60, 127
14, 23354, Note_on_c, 13, 60, 0
14, 23402, Note_on_c, 13, 62, 127
14, 23556, Note_on_c, 13, 62, 0
14, 23590, Note_on_c, 13, 60, 127
14, 23638, Note_on_c, 13, 60, 0
14, 23674, Note_on_c, 13, 62, 127
14, 23738, Note_on_c, 13, 62, 0
14, 23778, Note_on_c, 13, 64, 127
14, 23938, Note_on_c, 13, 64, 0
14, 23968, Note_on_c, 13, 62, 127
14, 24126, Note_on_c, 13, 62, 0
14, 24166, Note_on_c, 13, 60, 127
14, 24330, Note_on_c, 13, 60, 0
14, 24354, Note_on_c, 13, 59, 127
14, 24502, Note_on_c, 13, 59, 0
14, 24550, Note_on_c, 13, 57, 127
14, 24594, Note_on_c, 13, 57, 0
14, 24636, Note_on_c, 13, 59, 127
14, 24682, Note_on_c, 13, 59, 0
14, 24730, Note_on_c, 13, 60, 127
14, 25092, Note_on_c, 13, 60, 0
14, 25132, Note_on_c, 13, 61, 127
14, 25296, Note_on_c, 13, 61, 0
14, 25324, Note_on_c, 13, 62, 127
14, 25474, Note_on_c, 13, 62, 0
14, 25516, Note_on_c, 13, 50, 127
14, 25674, Note_on_c, 13, 50, 0
14, 25704, Note_on_c, 13, 52, 127
14, 25860, Note_on_c, 13, 52, 0
14, 25892, Note_on_c, 13, 54, 127
14, 26054, Note_on_c, 13, 54, 0
14, 26082, Note_on_c, 13, 55, 127
14, 26144, Note_on_c, 13, 55, 0
14, 26178, Note_on_c, 13, 57, 127
14, 26230, Note_on_c, 13, 57, 0
14, 26268, Note_on_c, 13, 58, 127
14, 26622, Note_on_c, 13, 58, 0
14, 26658, Note_on_c, 13, 59, 127
14, 26820, Note_on_c, 13, 59, 0
14, 26856, Note_on_c, 13, 60, 127
14, 27010, Note_on_c, 13, 60, 0
14, 27046, Note_on_c, 13, 58, 127
14, 27194, Note_on_c, 13, 58, 0
14, 27232, Note_on_c, 13, 57, 127
14, 27376, Note_on_c, 13, 57, 0
14, 27418, Note_on_c, 13, 55, 127
14, 27580, Note_on_c, 13, 55, 0
14, 27632, Note_on_c, 13, 57, 127
14, 27680, Note_on_c, 13, 57, 0
14, 27716, Note_on_c, 13, 53, 127
14, 27772, Note_on_c, 13, 53, 0
14, 27808, Note_on_c, 13, 55, 127
14, 27858, Note_on_c, 13, 55, 0
14, 27894, Note_on_c, 13, 57, 127
14, 27944, Note_on_c, 13, 57, 0
14, 27994, Note_on_c, 13, 58, 127
14, 28060, Note_on_c, 13, 58, 0
14, 28088, Note_on_c, 13, 55, 127
14, 28142, Note_on_c, 13, 55, 0
14, 28182, Note_on_c, 13, 57, 127
14, 28220, Note_on_c, 13, 57, 0
14, 28270, Note_on_c, 13, 58, 127
14, 28324, Note_on_c, 13, 58, 0
14, 28378, Note_on_c, 13, 60, 127
14, 28510, Note_on_c, 13, 60, 0
14, 28572, Note_on_c, 13, 55, 127
14, 28706, Note_on_c, 13, 55, 0
14, 28772, Note_on_c, 13, 60, 127
14, 29318, Note_on_c, 13, 60, 0
14, 29348, Note_on_c, 13, 58, 127
14, 29416, Note_on_c, 13, 58, 0
14, 29448, Note_on_c, 13, 57, 127
14, 29508, Note_on_c, 13, 57, 0
14, 29540, Note_on_c, 13, 58, 127
14, 29600, Note_on_c, 13, 58, 0
14, 29634, Note_on_c, 13, 60, 127
14, 29698, Note_on_c, 13, 60, 0
14, 29732, Note_on_c, 13, 57, 127
14, 29780, Note_on_c, 13, 57, 0
14, 29820, Note_on_c, 13, 58, 127
14, 29908, Note_on_c, 13, 58, 0
14, 29934, Note_on_c, 13, 55, 127
14, 30092, Note_on_c, 13, 55, 0
14, 30118, Note_on_c, 13, 57, 127
14, 30174, Note_on_c, 13, 57, 0
14, 30204, Note_on_c, 13, 58, 127
14, 30274, Note_on_c, 13, 58, 0
14, 30312, Note_on_c, 13, 60, 127
14, 30584, Note_on_c, 13, 60, 0
14, 32242, Note_on_c, 13, 62, 127
14, 32770, Note_on_c, 13, 62, 0
14, 32818, Note_on_c, 13, 62, 127
14, 32968, Note_on_c, 13, 62, 0
14, 33000, Note_on_c, 13, 58, 127
14, 33352, Note_on_c, 13, 58, 0
14, 33386, Note_on_c, 13, 63, 127
14, 33728, Note_on_c, 13, 63, 0
14, 33758, Note_on_c, 13, 54, 127
14, 34294, Note_on_c, 13, 54, 0
14, 34344, Note_on_c, 13, 54, 127
14, 34504, Note_on_c, 13, 54, 0
14, 34530, Note_on_c, 13, 55, 127
14, 35014, Note_on_c, 13, 55, 0
14, 35116, Note_on_c, 13, 55, 127
14, 35264, Note_on_c, 13, 55, 0
14, 35306, Note_on_c, 13, 57, 127
14, 35820, Note_on_c, 13, 57, 0
14, 35884, Note_on_c, 13, 55, 127
14, 35940, Note_on_c, 13, 55, 0
14, 35970, Note_on_c, 13, 57, 127
14, 36030, Note_on_c, 13, 57, 0
14, 36066, Note_on_c, 13, 58, 127
14, 36232, Note_on_c, 13, 58, 0
14, 36262, Note_on_c, 13, 57, 127
14, 36322, Note_on_c, 13, 57, 0
14, 36346, Note_on_c, 13, 58, 127
14, 36408, Note_on_c, 13, 58, 0
14, 36446, Note_on_c, 13, 60, 127
14, 36602, Note_on_c, 13, 60, 0
14, 36632, Note_on_c, 13, 58, 127
14, 36684, Note_on_c, 13, 58, 0
14, 36716, Note_on_c, 13, 60, 127
14, 36786, Note_on_c, 13, 60, 0
14, 36832, Note_on_c, 13, 62, 127
14, 36988, Note_on_c, 13, 62, 0
14, 37026, Note_on_c, 13, 60, 127
14, 37176, Note_on_c, 13, 60, 0
14, 37216, Note_on_c, 13, 58, 127
14, 37378, Note_on_c, 13, 58, 0
14, 37408, Note_on_c, 13, 57, 127
14, 37570, Note_on_c, 13, 57, 0
14, 37602, Note_on_c, 13, 55, 127
14, 37756, Note_on_c, 13, 55, 0
14, 37802, Note_on_c, 13, 65, 127
14, 37956, Note_on_c, 13, 65, 0
14, 37986, Note_on_c, 13, 63, 127
14, 38160, Note_on_c, 13, 63, 0
14, 38176, Note_on_c, 13, 59, 127
14, 38306, Note_on_c, 13, 59, 0
14, 38370, Note_on_c, 13, 60, 127
14, 38530, Note_on_c, 13, 60, 0
14, 38566, Note_on_c, 13, 67, 127
14, 38714, Note_on_c, 13, 67, 0
14, 38760, Note_on_c, 13, 65, 127
14, 38814, Note_on_c, 13, 65, 0
14, 38848, Note_on_c, 13, 63, 127
14, 38912, Note_on_c, 13, 63, 0
14, 38944, Note_on_c, 13, 62, 127
14, 38996, Note_on_c, 13, 62, 0
14, 39036, Note_on_c, 13, 60, 127
14, 39100, Note_on_c, 13, 60, 0
14, 39150, Note_on_c, 13, 62, 127
14, 39222, Note_on_c, 13, 62, 0
14, 39240, Note_on_c, 13, 60, 127
14, 39300, Note_on_c, 13, 60, 0
14, 39328, Note_on_c, 13, 59, 127
14, 39390, Note_on_c, 13, 59, 0
14, 39420, Note_on_c, 13, 57, 127
14, 39490, Note_on_c, 13, 57, 0
14, 39520, Note_on_c, 13, 55, 127
14, 39590, Note_on_c, 13, 55, 0
14, 39608, Note_on_c, 13, 56, 127
14, 39696, Note_on_c, 13, 56, 0
14, 39720, Note_on_c, 13, 53, 127
14, 39778, Note_on_c, 13, 53, 0
14, 39812, Note_on_c, 13, 55, 127
14, 39894, Note_on_c, 13, 55, 0
14, 39918, Note_on_c, 13, 51, 127
14, 40086, Note_on_c, 13, 51, 0
14, 40100, Note_on_c, 13, 48, 127
14, 40188, Note_on_c, 13, 48, 0
14, 40290, Note_on_c, 13, 56, 127
14, 40828, Note_on_c, 13, 56, 0
14, 40870, Note_on_c, 13, 53, 127
14, 41000, Note_on_c, 13, 53, 0
14, 41062, Note_on_c, 13, 58, 127
14, 41782, Note_on_c, 13, 58, 0
14, 41818, Note_on_c, 13, 56, 127
14, 42192, Note_on_c, 13, 56, 0
14, 42212, Note_on_c, 13, 55, 127
14, 42372, Note_on_c, 13, 55, 0
14, 42412, Note_on_c, 13, 57, 127
14, 42456, Note_on_c, 13, 57, 0
14, 42492, Note_on_c, 13, 59, 127
14, 42556, Note_on_c, 13, 59, 0
14, 42594, Note_on_c, 13, 60, 127
14, 42768, Note_on_c, 13, 60, 0
14, 42800, Note_on_c, 13, 62, 127
14, 42950, Note_on_c, 13, 62, 0
14, 42988, Note_on_c, 13, 63, 127
14, 43070, Note_on_c, 13, 63, 0
14, 43078, Note_on_c, 13, 62, 127
14, 43142, Note_on_c, 13, 62, 0
14, 43170, Note_on_c, 13, 60, 127
14, 43252, Note_on_c, 13, 60, 0
14, 43256, Note_on_c, 13, 58, 127
14, 43322, Note_on_c, 13, 58, 0
14, 43368, Note_on_c, 13, 57, 127
14, 43504, Note_on_c, 13, 57, 0
14, 43544, Note_on_c, 13, 58, 127
14, 43896, Note_on_c, 13, 58, 0
14, 43940, Note_on_c, 13, 57, 127
14, 44108, Note_on_c, 13, 57, 0
14, 44142, Note_on_c, 13, 58, 127
14, 44310, Note_on_c, 13, 58, 0
14, 44340, Note_on_c, 13, 60, 127
14, 44486, Note_on_c, 13, 60, 0
14, 44524, Note_on_c, 13, 62, 127
14, 44904, Note_on_c, 13, 62, 0
14, 45482, Note_on_c, 13, 53, 127
14, 45566, Note_on_c, 13, 53, 0
14, 45676, Note_on_c, 13, 53, 127
14, 45762, Note_on_c, 13, 53, 0
14, 45872, Note_on_c, 13, 53, 127
14, 45988, Note_on_c, 13, 53, 0
14, 46068, Note_on_c, 13, 55, 127
14, 46122, Note_on_c, 13, 55, 0
14, 46158, Note_on_c, 13, 57, 127
14, 46206, Note_on_c, 13, 57, 0
14, 46254, Note_on_c, 13, 55, 127
14, 46292, Note_on_c, 13, 55, 0
14, 46330, Note_on_c, 13, 53, 127
14, 46382, Note_on_c, 13, 53, 0
14, 46434, Note_on_c, 13, 55, 127
14, 46482, Note_on_c, 13, 55, 0
14, 46528, Note_on_c, 13, 57, 127
14, 46580, Note_on_c, 13, 57, 0
14, 46618, Note_on_c, 13, 53, 127
14, 46666, Note_on_c, 13, 53, 0
14, 46706, Note_on_c, 13, 55, 127
14, 46760, Note_on_c, 13, 55, 0
14, 46806, Note_on_c, 13, 57, 127
14, 46850, Note_on_c, 13, 57, 0
14, 46892, Note_on_c, 13, 58, 127
14, 46948, Note_on_c, 13, 58, 0
14, 46990, Note_on_c, 13, 57, 127
14, 47028, Note_on_c, 13, 57, 0
14, 47078, Note_on_c, 13, 55, 127
14, 47134, Note_on_c, 13, 55, 0
14, 47192, Note_on_c, 13, 57, 127
14, 47232, Note_on_c, 13, 57, 0
14, 47280, Note_on_c, 13, 58, 127
14, 47340, Note_on_c, 13, 58, 0
14, 47376, Note_on_c, 13, 55, 127
14, 47420, Note_on_c, 13, 55, 0
14, 47466, Note_on_c, 13, 57, 127
14, 47512, Note_on_c, 13, 57, 0
14, 47574, Note_on_c, 13, 58, 127
14, 47972, Note_on_c, 13, 58, 0
14, 48552, Note_on_c, 13, 60, 127
14, 48668, Note_on_c, 13, 60, 0
14, 48758, Note_on_c, 13, 60, 127
14, 48866, Note_on_c, 13, 60, 0
14, 48944, Note_on_c, 13, 60, 127
14, 49060, Note_on_c, 13, 60, 0
14, 49130, Note_on_c, 13, 62, 127
14, 49190, Note_on_c, 13, 62, 0
14, 49218, Note_on_c, 13, 63, 127
14, 49282, Note_on_c, 13, 63, 0
14, 49320, Note_on_c, 13, 62, 127
14, 49370, Note_on_c, 13, 62, 0
14, 49404, Note_on_c, 13, 60, 127
14, 49464, Note_on_c, 13, 60, 0
14, 49504, Note_on_c, 13, 62, 127
14, 49556, Note_on_c, 13, 62, 0
14, 49594, Note_on_c, 13, 63, 127
14, 49660, Note_on_c, 13, 63, 0
14, 49694, Note_on_c, 13, 60, 127
14, 49752, Note_on_c, 13, 60, 0
14, 49790, Note_on_c, 13, 62, 127
14, 49840, Note_on_c, 13, 62, 0
14, 49884, Note_on_c, 13, 63, 127
14, 49946, Note_on_c, 13, 63, 0
14, 49978, Note_on_c, 13, 65, 127
14, 50036, Note_on_c, 13, 65, 0
14, 50074, Note_on_c, 13, 63, 127
14, 50132, Note_on_c, 13, 63, 0
14, 50166, Note_on_c, 13, 62, 127
14, 50220, Note_on_c, 13, 62, 0
14, 50262, Note_on_c, 13, 63, 127
14, 50318, Note_on_c, 13, 63, 0
14, 50356, Note_on_c, 13, 65, 127
14, 50418, Note_on_c, 13, 65, 0
14, 50456, Note_on_c, 13, 62, 127
14, 50502, Note_on_c, 13, 62, 0
14, 50538, Note_on_c, 13, 63, 127
14, 50592, Note_on_c, 13, 63, 0
14, 50646, Note_on_c, 13, 65, 127
14, 50802, Note_on_c, 13, 65, 0
14, 50850, Note_on_c, 13, 62, 127
14, 51002, Note_on_c, 13, 62, 0
14, 51036, Note_on_c, 13, 64, 127
14, 51196, Note_on_c, 13, 64, 0
14, 51224, Note_on_c, 13, 65, 127
14, 51400, Note_on_c, 13, 65, 0
14, 51424, Note_on_c, 13, 67, 127
14, 51790, Note_on_c, 13, 67, 0
14, 51818, Note_on_c, 13, 65, 127
14, 51978, Note_on_c, 13, 65, 0
14, 52002, Note_on_c, 13, 64, 127
14, 52174, Note_on_c, 13, 64, 0
14, 52200, Note_on_c, 13, 65, 127
14, 52374, Note_on_c, 13, 65, 0
14, 52396, Note_on_c, 13, 53, 127
14, 52544, Note_on_c, 13, 53, 0
14, 52582, Note_on_c, 13, 58, 127
14, 52752, Note_on_c, 13, 58, 0
14, 52770, Note_on_c, 13, 55, 127
14, 52930, Note_on_c, 13, 55, 0
14, 52962, Note_on_c, 13, 60, 127
14, 53218, Note_on_c, 13, 60, 0
14, 54694, Note_on_c, 13, 55, 127
14, 54814, Note_on_c, 13, 55, 0
14, 54892, Note_on_c, 13, 55, 127
14, 55010, Note_on_c, 13, 55, 0
14, 55074, Note_on_c, 13, 55, 127
14, 55230, Note_on_c, 13, 55, 0
14, 55274, Note_on_c, 13, 56, 127
14, 55334, Note_on_c, 13, 56, 0
14, 55364, Note_on_c, 13, 58, 127
14, 55422, Note_on_c, 13, 58, 0
14, 55456, Note_on_c, 13, 56, 127
14, 55508, Note_on_c, 13, 56, 0
14, 55542, Note_on_c, 13, 55, 127
14, 55612, Note_on_c, 13, 55, 0
14, 55654, Note_on_c, 13, 57, 127
14, 55714, Note_on_c, 13, 57, 0
14, 55746, Note_on_c, 13, 58, 127
14, 55814, Note_on_c, 13, 58, 0
14, 55842, Note_on_c, 13, 55, 127
14, 55904, Note_on_c, 13, 55, 0
14, 55938, Note_on_c, 13, 57, 127
14, 55990, Note_on_c, 13, 57, 0
14, 56030, Note_on_c, 13, 58, 127
14, 56084, Note_on_c, 13, 58, 0
14, 56122, Note_on_c, 13, 60, 127
14, 56182, Note_on_c, 13, 60, 0
14, 56218, Note_on_c, 13, 58, 127
14, 56274, Note_on_c, 13, 58, 0
14, 56310, Note_on_c, 13, 57, 127
14, 56360, Note_on_c, 13, 57, 0
14, 56410, Note_on_c, 13, 59, 127
14, 56466, Note_on_c, 13, 59, 0
14, 56496, Note_on_c, 13, 60, 127
14, 56554, Note_on_c, 13, 60, 0
14, 56598, Note_on_c, 13, 57, 127
14, 56646, Note_on_c, 13, 57, 0
14, 56692, Note_on_c, 13, 59, 127
14, 56754, Note_on_c, 13, 59, 0
14, 56802, Note_on_c, 13, 60, 127
14, 56932, Note_on_c, 13, 60, 0
14, 57000, Note_on_c, 13, 55, 127
14, 57158, Note_on_c, 13, 55, 0
14, 57192, Note_on_c, 13, 60, 127
14, 57350, Note_on_c, 13, 60, 0
14, 57374, Note_on_c, 13, 58, 127
14, 57514, Note_on_c, 13, 58, 0
14, 57548, Note_on_c, 13, 57, 127
14, 57712, Note_on_c, 13, 57, 0
14, 57760, Note_on_c, 13, 53, 127
14, 57900, Note_on_c, 13, 53, 0
14, 57948, Note_on_c, 13, 62, 127
14, 58104, Note_on_c, 13, 62, 0
14, 58146, Note_on_c, 13, 60, 127
14, 58298, Note_on_c, 13, 60, 0
14, 58348, Note_on_c, 13, 58, 127
14, 58528, Note_on_c, 13, 58, 0
14, 59314, Note_on_c, 13, 55, 127
14, 59420, Note_on_c, 13, 55, 0
14, 59510, Note_on_c, 13, 55, 127
14, 59624, Note_on_c, 13, 55, 0
14, 59698, Note_on_c, 13, 57, 127
14, 59824, Note_on_c, 13, 57, 0
14, 59896, Note_on_c, 13, 57, 127
14, 60158, Note_on_c, 13, 57, 0
14, 60272, Note_on_c, 13, 57, 127
14, 60488, Note_on_c, 13, 57, 0
14, 60564, Note_on_c, 13, 57, 127
14, 60610, Note_on_c, 13, 57, 0
14, 60658, Note_on_c, 13, 59, 127
14, 60944, Note_on_c, 13, 59, 0
14, 61046, Note_on_c, 13, 59, 127
14, 61266, Note_on_c, 13, 59, 0
14, 61326, Note_on_c, 13, 59, 127
14, 61380, Note_on_c, 13, 59, 0
14, 61420, Note_on_c, 13, 61, 127
14, 61558, Note_on_c, 13, 61, 0
14, 61622, Note_on_c, 13, 57, 127
14, 61782, Note_on_c, 13, 57, 0
14, 61804, Note_on_c, 13, 59, 127
14, 61952, Note_on_c, 13, 59, 0
14, 61982, Note_on_c, 13, 61, 127
14, 62152, Note_on_c, 13, 61, 0
14, 62186, Note_on_c, 13, 62, 127
14, 62680, Note_on_c, 13, 62, 0
14, 62766, Note_on_c, 13, 62, 127
14, 62914, Note_on_c, 13, 62, 0
14, 62958, Note_on_c, 13, 64, 127
14, 63292, Note_on_c, 13, 64, 0
14, 63334, Note_on_c, 13, 57, 127
14, 63836, Note_on_c, 13, 57, 0
14, 63910, Note_on_c, 13, 53, 127
14, 64060, Note_on_c, 13, 53, 0
14, 64098, Note_on_c, 13, 58, 127
14, 64626, Note_on_c, 13, 58, 0
14, 64676, Note_on_c, 13, 55, 127
14, 64842, Note_on_c, 13, 55, 0
14, 64872, Note_on_c, 13, 64, 127
14, 65020, Note_on_c, 13, 64, 0
14, 65058, Note_on_c, 13, 64, 127
14, 65230, Note_on_c, 13, 64, 0
14, 65258, Note_on_c, 13, 62, 127
14, 65400, Note_on_c, 13, 62, 0
14, 65444, Note_on_c, 13, 61, 127
14, 65500, Note_on_c, 13, 61, 0
14, 65530, Note_on_c, 13, 62, 127
14, 65598, Note_on_c, 13, 62, 0
14, 65636, Note_on_c, 13, 64, 127
14, 65696, Note_on_c, 13, 64, 0
14, 65728, Note_on_c, 13, 65, 127
14, 65786, Note_on_c, 13, 65, 0
14, 65826, Note_on_c, 13, 67, 127
14, 65880, Note_on_c, 13, 67, 0
14, 65912, Note_on_c, 13, 65, 127
14, 65970, Note_on_c, 13, 65, 0
14, 66018, Note_on_c, 13, 64, 127
14, 66172, Note_on_c, 13, 64, 0
14, 66208, Note_on_c, 13, 62, 127
14, 66358, Note_on_c, 13, 62, 0
14, 66402, Note_on_c, 13, 61, 127
14, 66638, Note_on_c, 13, 61, 0
14, 66680, Note_on_c, 13, 62, 127
14, 66758, Note_on_c, 13, 62, 0
14, 66782, Note_on_c, 13, 64, 127
14, 67128, Note_on_c, 13, 64, 0
14, 67172, Note_on_c, 13, 57, 127
14, 67344, Note_on_c, 13, 57, 0
14, 67366, Note_on_c, 13, 61, 127
14, 67536, Note_on_c, 13, 61, 0
14, 67558, Note_on_c, 13, 62, 127
14, 67728, Note_on_c, 13, 62, 0
14, 67746, Note_on_c, 13, 65, 127
14, 67914, Note_on_c, 13, 65, 0
14, 67938, Note_on_c, 13, 64, 127
14, 68096, Note_on_c, 13, 64, 0
14, 68120, Note_on_c, 13, 62, 127
14, 68280, Note_on_c, 13, 62, 0
14, 68312, Note_on_c, 13, 64, 127
14, 68458, Note_on_c, 13, 64, 0
14, 68524, Note_on_c, 13, 57, 127
14, 68686, Note_on_c, 13, 57, 0
14, 68712, Note_on_c, 13, 59, 127
14, 68870, Note_on_c, 13, 59, 0
14, 68898, Note_on_c, 13, 61, 127
14, 69070, Note_on_c, 13, 61, 0
14, 69086, Note_on_c, 13, 62, 127
14, 69224, Note_on_c, 13, 62, 0
14, 69282, Note_on_c, 13, 50, 127
14, 69456, Note_on_c, 13, 50, 0
14, 69484, Note_on_c, 13, 55, 127
14, 69646, Note_on_c, 13, 55, 0
14, 69664, Note_on_c, 13, 52, 127
14, 69842, Note_on_c, 13, 52, 0
14, 69856, Note_on_c, 13, 57, 127
14, 70034, Note_on_c, 13, 57, 0
14, 70044, Note_on_c, 13, 58, 127
14, 70210, Note_on_c, 13, 58, 0
14, 70248, Note_on_c, 13, 57, 127
14, 70414, Note_on_c, 13, 57, 0
14, 70430, Note_on_c, 13, 55, 127
14, 70626, Note_on_c, 13, 55, 0
14, 70626, Note_on_c, 13, 53, 127
14, 70794, Note_on_c, 13, 53, 0
14, 70812, Note_on_c, 13, 50, 127
14, 70972, Note_on_c, 13, 50, 0
14, 71008, Note_on_c, 13, 55, 127
14, 71194, Note_on_c, 13, 53, 127
14, 71196, Note_on_c, 13, 55, 0
14, 71394, Note_on_c, 13, 53, 0
14, 71400, Note_on_c, 13, 52, 127
14, 71566, Note_on_c, 13, 52, 0
14, 71592, Note_on_c, 13, 48, 127
14, 71744, Note_on_c, 13, 48, 0
14, 71788, Note_on_c, 13, 57, 127
14, 71918, Note_on_c, 13, 57, 0
14, 71978, Note_on_c, 13, 57, 127
14, 72104, Note_on_c, 13, 57, 0
14, 72162, Note_on_c, 13, 53, 127
14, 72496, Note_on_c, 13, 53, 0
14, 72548, Note_on_c, 13, 62, 127
14, 72908, Note_on_c, 13, 62, 0
14, 72936, Note_on_c, 13, 55, 127
14, 73166, Note_on_c, 13, 55, 0
14, 73896, Note_on_c, 13, 57, 127
14, 74040, Note_on_c, 13, 57, 0
14, 74088, Note_on_c, 13, 62, 127
14, 74240, Note_on_c, 13, 62, 0
14, 74278, Note_on_c, 13, 60, 127
14, 74430, Note_on_c, 13, 60, 0
14, 74468, Note_on_c, 13, 59, 127
14, 74620, Note_on_c, 13, 59, 0
14, 74674, Note_on_c, 13, 59, 127
14, 74802, Note_on_c, 13, 59, 0
14, 74852, Note_on_c, 13, 64, 127
14, 75020, Note_on_c, 13, 64, 0
14, 75050, Note_on_c, 13, 62, 127
14, 75192, Note_on_c, 13, 62, 0
14, 75244, Note_on_c, 13, 60, 127
14, 75580, Note_on_c, 13, 60, 0
14, 75620, Note_on_c, 13, 62, 127
14, 75846, Note_on_c, 13, 62, 0
14, 75914, Note_on_c, 13, 62, 127
14, 75962, Note_on_c, 13, 62, 0
14, 75998, Note_on_c, 13, 62, 127
14, 76364, Note_on_c, 13, 62, 0
14, 76398, Note_on_c, 13, 64, 127
14, 76616, Note_on_c, 13, 64, 0
14, 76670, Note_on_c, 13, 64, 127
14, 76736, Note_on_c, 13, 64, 0
14, 76772, Note_on_c, 13, 64, 127
14, 77144, Note_on_c, 13, 64, 0
14, 77172, Note_on_c, 13, 62, 127
14, 77310, Note_on_c, 13, 62, 0
14, 77360, Note_on_c, 13, 65, 127
14, 77484, Note_on_c, 13, 65, 0
14, 77554, Note_on_c, 13, 64, 127
14, 78096, Note_on_c, 13, 64, 0
14, 78134, Note_on_c, 13, 64, 127
14, 78280, Note_on_c, 13, 64, 0
14, 78324, Note_on_c, 13, 65, 127
14, 79138, Note_on_c, 13, 65, 0
14, 79856, Note_on_c, 13, 65, 127
14, 80106, Note_on_c, 13, 65, 0
14, 80156, Note_on_c, 13, 65, 127
14, 80224, Note_on_c, 13, 65, 0
14, 80256, Note_on_c, 13, 64, 127
14, 80610, Note_on_c, 13, 64, 0
14, 80640, Note_on_c, 13, 65, 127
14, 80946, Note_on_c, 13, 65, 0
14, 81010, Note_on_c, 13, 65, 127
14, 81382, Note_on_c, 13, 65, 0
14, 81402, Note_on_c, 13, 64, 127
14, 81742, Note_on_c, 13, 64, 0
14, 81792, Note_on_c, 13, 62, 127
14, 82964, Note_on_c, 13, 62, 0
14, 82964, End_track
15, 0, Start_track
15, 0, Title_t, "bassi"
15, 412, Program_c, 14, 52
15, 413, Control_c, 14, 7, 127
15, 413, Control_c, 14, 10, 70
15, 576, Control_c, 14, 91, 120
15, 3056, Note_on_c, 14, 57, 127
15, 3558, Note_on_c, 14, 57, 0
15, 3622, Note_on_c, 14, 57, 127
15, 3750, Note_on_c, 14, 57, 0
15, 3814, Note_on_c, 14, 53, 127
15, 4174, Note_on_c, 14, 53, 0
15, 4206, Note_on_c, 14, 58, 127
15, 4564, Note_on_c, 14, 58, 0
15, 4588, Note_on_c, 14, 49, 127
15, 5128, Note_on_c, 14, 49, 0
15, 5172, Note_on_c, 14, 49, 127
15, 5318, Note_on_c, 14, 49, 0
15, 5350, Note_on_c, 14, 50, 127
15, 5872, Note_on_c, 14, 50, 0
15, 5930, Note_on_c, 14, 50, 127
15, 6082, Note_on_c, 14, 50, 0
15, 6122, Note_on_c, 14, 52, 127
15, 6628, Note_on_c, 14, 52, 0
15, 6694, Note_on_c, 14, 50, 127
15, 6736, Note_on_c, 14, 50, 0
15, 6774, Note_on_c, 14, 52, 127
15, 6822, Note_on_c, 14, 52, 0
15, 6874, Note_on_c, 14, 53, 127
15, 7032, Note_on_c, 14, 53, 0
15, 7072, Note_on_c, 14, 52, 127
15, 7118, Note_on_c, 14, 52, 0
15, 7158, Note_on_c, 14, 53, 127
15, 7228, Note_on_c, 14, 53, 0
15, 7264, Note_on_c, 14, 55, 127
15, 7414, Note_on_c, 14, 55, 0
15, 7458, Note_on_c, 14, 53, 127
15, 7512, Note_on_c, 14, 53, 0
15, 7540, Note_on_c, 14, 55, 127
15, 7600, Note_on_c, 14, 55, 0
15, 7646, Note_on_c, 14, 57, 127
15, 7816, Note_on_c, 14, 57, 0
15, 7844, Note_on_c, 14, 55, 127
15, 8014, Note_on_c, 14, 55, 0
15, 8042, Note_on_c, 14, 53, 127
15, 8192, Note_on_c, 14, 53, 0
15, 8220, Note_on_c, 14, 52, 127
15, 8392, Note_on_c, 14, 52, 0
15, 8424, Note_on_c, 14, 50, 127
15, 8590, Note_on_c, 14, 50, 0
15, 8618, Note_on_c, 14, 48, 127
15, 8792, Note_on_c, 14, 48, 0
15, 8808, Note_on_c, 14, 47, 127
15, 8974, Note_on_c, 14, 47, 0
15, 8992, Note_on_c, 14, 52, 127
15, 9160, Note_on_c, 14, 52, 0
15, 9194, Note_on_c, 14, 45, 127
15, 9350, Note_on_c, 14, 45, 0
15, 9384, Note_on_c, 14, 53, 127
15, 9436, Note_on_c, 14, 53, 0
15, 9464, Note_on_c, 14, 52, 127
15, 9518, Note_on_c, 14, 52, 0
15, 9562, Note_on_c, 14, 50, 127
15, 9608, Note_on_c, 14, 50, 0
15, 9644, Note_on_c, 14, 47, 127
15, 9694, Note_on_c, 14, 47, 0
15, 9742, Note_on_c, 14, 48, 127
15, 9780, Note_on_c, 14, 48, 0
15, 9834, Note_on_c, 14, 50, 127
15, 9864, Note_on_c, 14, 50, 0
15, 9942, Note_on_c, 14, 52, 127
15, 10308, Note_on_c, 14, 52, 0
15, 11118, Note_on_c, 14, 57, 127
15, 11824, Note_on_c, 14, 57, 0
15, 11874, Note_on_c, 14, 55, 127
15, 11942, Note_on_c, 14, 55, 0
15, 11968, Note_on_c, 14, 53, 127
15, 12006, Note_on_c, 14, 53, 0
15, 12054, Note_on_c, 14, 52, 127
15, 12110, Note_on_c, 14, 52, 0
15, 12142, Note_on_c, 14, 50, 127
15, 12192, Note_on_c, 14, 50, 0
15, 12254, Note_on_c, 14, 48, 127
15, 12588, Note_on_c, 14, 48, 0
15, 12644, Note_on_c, 14, 47, 127
15, 12804, Note_on_c, 14, 47, 0
15, 12824, Note_on_c, 14, 53, 127
15, 12994, Note_on_c, 14, 53, 0
15, 13030, Note_on_c, 14, 52, 127
15, 13266, Note_on_c, 14, 52, 0
15, 13310, Note_on_c, 14, 54, 127
15, 13360, Note_on_c, 14, 54, 0
15, 13404, Note_on_c, 14, 56, 127
15, 13450, Note_on_c, 14, 56, 0
15, 13490, Note_on_c, 14, 57, 127
15, 13532, Note_on_c, 14, 57, 0
15, 13590, Note_on_c, 14, 54, 127
15, 13634, Note_on_c, 14, 54, 0
15, 13680, Note_on_c, 14, 56, 127
15, 13718, Note_on_c, 14, 56, 0
15, 13794, Note_on_c, 14, 57, 127
15, 13886, Note_on_c, 14, 57, 0
15, 13988, Note_on_c, 14, 45, 127
15, 14140, Note_on_c, 14, 45, 0
15, 14178, Note_on_c, 14, 47, 127
15, 14312, Note_on_c, 14, 47, 0
15, 14354, Note_on_c, 14, 49, 127
15, 14512, Note_on_c, 14, 49, 0
15, 14562, Note_on_c, 14, 50, 127
15, 14792, Note_on_c, 14, 50, 0
15, 15532, Note_on_c, 14, 52, 127
15, 15646, Note_on_c, 14, 52, 0
15, 15718, Note_on_c, 14, 52, 127
15, 15818, Note_on_c, 14, 52, 0
15, 15908, Note_on_c, 14, 52, 127
15, 16024, Note_on_c, 14, 52, 0
15, 16108, Note_on_c, 14, 53, 127
15, 16180, Note_on_c, 14, 53, 0
15, 16194, Note_on_c, 14, 55, 127
15, 16258, Note_on_c, 14, 55, 0
15, 16288, Note_on_c, 14, 53, 127
15, 16340, Note_on_c, 14, 53, 0
15, 16376, Note_on_c, 14, 52, 127
15, 16432, Note_on_c, 14, 52, 0
15, 16476, Note_on_c, 14, 53, 127
15, 16534, Note_on_c, 14, 53, 0
15, 16570, Note_on_c, 14, 55, 127
15, 16626, Note_on_c, 14, 55, 0
15, 16666, Note_on_c, 14, 52, 127
15, 16716, Note_on_c, 14, 52, 0
15, 16756, Note_on_c, 14, 53, 127
15, 16804, Note_on_c, 14, 53, 0
15, 16860, Note_on_c, 14, 55, 127
15, 16914, Note_on_c, 14, 55, 0
15, 16950, Note_on_c, 14, 57, 127
15, 16994, Note_on_c, 14, 57, 0
15, 17038, Note_on_c, 14, 55, 127
15, 17078, Note_on_c, 14, 55, 0
15, 17128, Note_on_c, 14, 53, 127
15, 17172, Note_on_c, 14, 53, 0
15, 17234, Note_on_c, 14, 55, 127
15, 17280, Note_on_c, 14, 55, 0
15, 17326, Note_on_c, 14, 57, 127
15, 17368, Note_on_c, 14, 57, 0
15, 17428, Note_on_c, 14, 53, 127
15, 17468, Note_on_c, 14, 53, 0
15, 17516, Note_on_c, 14, 55, 127
15, 17552, Note_on_c, 14, 55, 0
15, 17622, Note_on_c, 14, 57, 127
15, 17786, Note_on_c, 14, 57, 0
15, 17828, Note_on_c, 14, 58, 127
15, 17878, Note_on_c, 14, 58, 0
15, 17912, Note_on_c, 14, 57, 127
15, 17966, Note_on_c, 14, 57, 0
15, 18008, Note_on_c, 14, 55, 127
15, 18068, Note_on_c, 14, 55, 0
15, 18100, Note_on_c, 14, 53, 127
15, 18134, Note_on_c, 14, 53, 0
15, 18192, Note_on_c, 14, 52, 127
15, 18238, Note_on_c, 14, 52, 0
15, 18288, Note_on_c, 14, 50, 127
15, 18340, Note_on_c, 14, 50, 0
15, 18396, Note_on_c, 14, 49, 127
15, 18558, Note_on_c, 14, 49, 0
15, 18594, Note_on_c, 14, 52, 127
15, 18740, Note_on_c, 14, 52, 0
15, 18780, Note_on_c, 14, 57, 127
15, 18932, Note_on_c, 14, 57, 0
15, 18966, Note_on_c, 14, 55, 127
15, 19130, Note_on_c, 14, 55, 0
15, 19166, Note_on_c, 14, 53, 127
15, 19202, Note_on_c, 14, 53, 0
15, 19246, Note_on_c, 14, 52, 127
15, 19292, Note_on_c, 14, 52, 0
15, 19338, Note_on_c, 14, 50, 127
15, 19374, Note_on_c, 14, 50, 0
15, 19420, Note_on_c, 14, 48, 127
15, 19454, Note_on_c, 14, 48, 0
15, 19540, Note_on_c, 14, 47, 127
15, 19890, Note_on_c, 14, 47, 0
15, 19940, Note_on_c, 14, 48, 127
15, 20280, Note_on_c, 14, 48, 0
15, 20332, Note_on_c, 14, 50, 127
15, 20688, Note_on_c, 14, 50, 0
15, 20718, Note_on_c, 14, 52, 127
15, 21086, Note_on_c, 14, 52, 0
15, 21290, Note_on_c, 14, 52, 127
15, 21470, Note_on_c, 14, 52, 0
15, 21488, Note_on_c, 14, 57, 127
15, 21908, Note_on_c, 14, 57, 0
15, 21962, Note_on_c, 14, 55, 127
15, 22004, Note_on_c, 14, 55, 0
15, 22052, Note_on_c, 14, 53, 127
15, 22090, Note_on_c, 14, 53, 0
15, 22136, Note_on_c, 14, 52, 127
15, 22176, Note_on_c, 14, 52, 0
15, 22248, Note_on_c, 14, 53, 127
15, 22380, Note_on_c, 14, 53, 0
15, 22424, Note_on_c, 14, 50, 127
15, 22592, Note_on_c, 14, 50, 0
15, 22622, Note_on_c, 14, 55, 127
15, 22952, Note_on_c, 14, 55, 0
15, 23018, Note_on_c, 14, 48, 127
15, 23190, Note_on_c, 14, 48, 0
15, 23206, Note_on_c, 14, 45, 127
15, 23376, Note_on_c, 14, 45, 0
15, 23402, Note_on_c, 14, 53, 127
15, 23618, Note_on_c, 14, 53, 0
15, 23662, Note_on_c, 14, 53, 127
15, 23732, Note_on_c, 14, 53, 0
15, 23770, Note_on_c, 14, 52, 127
15, 24132, Note_on_c, 14, 52, 0
15, 24748, Note_on_c, 14, 57, 127
15, 24790, Note_on_c, 14, 57, 0
15, 24828, Note_on_c, 14, 55, 127
15, 24872, Note_on_c, 14, 55, 0
15, 24916, Note_on_c, 14, 53, 127
15, 25066, Note_on_c, 14, 53, 0
15, 25114, Note_on_c, 14, 51, 127
15, 25272, Note_on_c, 14, 51, 0
15, 25320, Note_on_c, 14, 50, 127
15, 25508, Note_on_c, 14, 50, 0
15, 26276, Note_on_c, 14, 55, 127
15, 26328, Note_on_c, 14, 55, 0
15, 26362, Note_on_c, 14, 53, 127
15, 26426, Note_on_c, 14, 53, 0
15, 26464, Note_on_c, 14, 52, 127
15, 26616, Note_on_c, 14, 52, 0
15, 26664, Note_on_c, 14, 50, 127
15, 26818, Note_on_c, 14, 50, 0
15, 26854, Note_on_c, 14, 48, 127
15, 27190, Note_on_c, 14, 48, 0
15, 27234, Note_on_c, 14, 50, 127
15, 27396, Note_on_c, 14, 50, 0
15, 27414, Note_on_c, 14, 52, 127
15, 27606, Note_on_c, 14, 52, 0
15, 27614, Note_on_c, 14, 53, 127
15, 27984, Note_on_c, 14, 53, 0
15, 28588, Note_on_c, 14, 48, 127
15, 28678, Note_on_c, 14, 48, 0
15, 28776, Note_on_c, 14, 48, 127
15, 28866, Note_on_c, 14, 48, 0
15, 28966, Note_on_c, 14, 48, 127
15, 29104, Note_on_c, 14, 48, 0
15, 29160, Note_on_c, 14, 50, 127
15, 29230, Note_on_c, 14, 50, 0
15, 29248, Note_on_c, 14, 52, 127
15, 29304, Note_on_c, 14, 52, 0
15, 29340, Note_on_c, 14, 50, 127
15, 29390, Note_on_c, 14, 50, 0
15, 29432, Note_on_c, 14, 48, 127
15, 29480, Note_on_c, 14, 48, 0
15, 29536, Note_on_c, 14, 50, 127
15, 29586, Note_on_c, 14, 50, 0
15, 29628, Note_on_c, 14, 52, 127
15, 29678, Note_on_c, 14, 52, 0
15, 29732, Note_on_c, 14, 48, 127
15, 29780, Note_on_c, 14, 48, 0
15, 29824, Note_on_c, 14, 50, 127
15, 29874, Note_on_c, 14, 50, 0
15, 29922, Note_on_c, 14, 52, 127
15, 29964, Note_on_c, 14, 52, 0
15, 30012, Note_on_c, 14, 53, 127
15, 30058, Note_on_c, 14, 53, 0
15, 30104, Note_on_c, 14, 52, 127
15, 30144, Note_on_c, 14, 52, 0
15, 30188, Note_on_c, 14, 50, 127
15, 30232, Note_on_c, 14, 50, 0
15, 30284, Note_on_c, 14, 52, 127
15, 30324, Note_on_c, 14, 52, 0
15, 30378, Note_on_c, 14, 53, 127
15, 30422, Note_on_c, 14, 53, 0
15, 30482, Note_on_c, 14, 50, 127
15, 30526, Note_on_c, 14, 50, 0
15, 30580, Note_on_c, 14, 52, 127
15, 30620, Note_on_c, 14, 52, 0
15, 30690, Note_on_c, 14, 53, 127
15, 30788, Note_on_c, 14, 53, 0
15, 30874, Note_on_c, 14, 55, 127
15, 30928, Note_on_c, 14, 55, 0
15, 30962, Note_on_c, 14, 53, 127
15, 31020, Note_on_c, 14, 53, 0
15, 31062, Note_on_c, 14, 52, 127
15, 31110, Note_on_c, 14, 52, 0
15, 31156, Note_on_c, 14, 50, 127
15, 31210, Note_on_c, 14, 50, 0
15, 31258, Note_on_c, 14, 48, 127
15, 31308, Note_on_c, 14, 48, 0
15, 31348, Note_on_c, 14, 46, 127
15, 31400, Note_on_c, 14, 46, 0
15, 31454, Note_on_c, 14, 45, 127
15, 31610, Note_on_c, 14, 45, 0
15, 31644, Note_on_c, 14, 48, 127
15, 31786, Note_on_c, 14, 48, 0
15, 31834, Note_on_c, 14, 53, 127
15, 31976, Note_on_c, 14, 53, 0
15, 32024, Note_on_c, 14, 51, 127
15, 32176, Note_on_c, 14, 51, 0
15, 32224, Note_on_c, 14, 50, 127
15, 32350, Note_on_c, 14, 50, 0
15, 32424, Note_on_c, 14, 60, 127
15, 32728, Note_on_c, 14, 60, 0
15, 32792, Note_on_c, 14, 58, 127
15, 32844, Note_on_c, 14, 58, 0
15, 32876, Note_on_c, 14, 57, 127
15, 32934, Note_on_c, 14, 57, 0
15, 32988, Note_on_c, 14, 55, 127
15, 33050, Note_on_c, 14, 55, 0
15, 33078, Note_on_c, 14, 53, 127
15, 33132, Note_on_c, 14, 53, 0
15, 33176, Note_on_c, 14, 51, 127
15, 33234, Note_on_c, 14, 51, 0
15, 33268, Note_on_c, 14, 50, 127
15, 33328, Note_on_c, 14, 50, 0
15, 33378, Note_on_c, 14, 48, 127
15, 33420, Note_on_c, 14, 48, 0
15, 33466, Note_on_c, 14, 50, 127
15, 33512, Note_on_c, 14, 50, 0
15, 33560, Note_on_c, 14, 46, 127
15, 33600, Note_on_c, 14, 46, 0
15, 33650, Note_on_c, 14, 48, 127
15, 33680, Note_on_c, 14, 48, 0
15, 33758, Note_on_c, 14, 50, 127
15, 34226, Note_on_c, 14, 50, 0
15, 34328, Note_on_c, 14, 50, 127
15, 34484, Note_on_c, 14, 50, 0
15, 34526, Note_on_c, 14, 43, 127
15, 34808, Note_on_c, 14, 43, 0
15, 37616, Note_on_c, 14, 55, 127
15, 38146, Note_on_c, 14, 55, 0
15, 38194, Note_on_c, 14, 55, 127
15, 38340, Note_on_c, 14, 55, 0
15, 38378, Note_on_c, 14, 51, 127
15, 38706, Note_on_c, 14, 51, 0
15, 38760, Note_on_c, 14, 56, 127
15, 39110, Note_on_c, 14, 56, 0
15, 39144, Note_on_c, 14, 47, 127
15, 39672, Note_on_c, 14, 47, 0
15, 39724, Note_on_c, 14, 47, 127
15, 39882, Note_on_c, 14, 47, 0
15, 39914, Note_on_c, 14, 48, 127
15, 40340, Note_on_c, 14, 48, 0
15, 40482, Note_on_c, 14, 48, 127
15, 40648, Note_on_c, 14, 48, 0
15, 40672, Note_on_c, 14, 50, 127
15, 41194, Note_on_c, 14, 50, 0
15, 41248, Note_on_c, 14, 48, 127
15, 41304, Note_on_c, 14, 48, 0
15, 41338, Note_on_c, 14, 50, 127
15, 41394, Note_on_c, 14, 50, 0
15, 41432, Note_on_c, 14, 51, 127
15, 41592, Note_on_c, 14, 51, 0
15, 41632, Note_on_c, 14, 50, 127
15, 41682, Note_on_c, 14, 50, 0
15, 41710, Note_on_c, 14, 51, 127
15, 41762, Note_on_c, 14, 51, 0
15, 41820, Note_on_c, 14, 53, 127
15, 41964, Note_on_c, 14, 53, 0
15, 42016, Note_on_c, 14, 51, 127
15, 42068, Note_on_c, 14, 51, 0
15, 42098, Note_on_c, 14, 53, 127
15, 42146, Note_on_c, 14, 53, 0
15, 42200, Note_on_c, 14, 55, 127
15, 42366, Note_on_c, 14, 55, 0
15, 42402, Note_on_c, 14, 53, 127
15, 42552, Note_on_c, 14, 53, 0
15, 42590, Note_on_c, 14, 51, 127
15, 42764, Note_on_c, 14, 51, 0
15, 42784, Note_on_c, 14, 50, 127
15, 42940, Note_on_c, 14, 50, 0
15, 42976, Note_on_c, 14, 48, 127
15, 43132, Note_on_c, 14, 48, 0
15, 43174, Note_on_c, 14, 50, 127
15, 43222, Note_on_c, 14, 50, 0
15, 43256, Note_on_c, 14, 51, 127
15, 43306, Note_on_c, 14, 51, 0
15, 43362, Note_on_c, 14, 53, 127
15, 43894, Note_on_c, 14, 53, 0
15, 43942, Note_on_c, 14, 51, 127
15, 44116, Note_on_c, 14, 51, 0
15, 44132, Note_on_c, 14, 50, 127
15, 44290, Note_on_c, 14, 50, 0
15, 44316, Note_on_c, 14, 48, 127
15, 44486, Note_on_c, 14, 48, 0
15, 44526, Note_on_c, 14, 46, 127
15, 44672, Note_on_c, 14, 46, 0
15, 44712, Note_on_c, 14, 55, 127
15, 44762, Note_on_c, 14, 55, 0
15, 44792, Note_on_c, 14, 53, 127
15, 44852, Note_on_c, 14, 53, 0
15, 44892, Note_on_c, 14, 51, 127
15, 44952, Note_on_c, 14, 51, 0
15, 44996, Note_on_c, 14, 48, 127
15, 45046, Note_on_c, 14, 48, 0
15, 45094, Note_on_c, 14, 50, 127
15, 45136, Note_on_c, 14, 50, 0
15, 45184, Note_on_c, 14, 51, 127
15, 45222, Note_on_c, 14, 51, 0
15, 45280, Note_on_c, 14, 53, 127
15, 45468, Note_on_c, 14, 53, 0
15, 46820, Note_on_c, 14, 53, 127
15, 47344, Note_on_c, 14, 53, 0
15, 47386, Note_on_c, 14, 53, 127
15, 47554, Note_on_c, 14, 53, 0
15, 47582, Note_on_c, 14, 50, 127
15, 47950, Note_on_c, 14, 50, 0
15, 47984, Note_on_c, 14, 55, 127
15, 48314, Note_on_c, 14, 55, 0
15, 48358, Note_on_c, 14, 45, 127
15, 48872, Note_on_c, 14, 45, 0
15, 48936, Note_on_c, 14, 45, 127
15, 49088, Note_on_c, 14, 45, 0
15, 49116, Note_on_c, 14, 46, 127
15, 49650, Note_on_c, 14, 46, 0
15, 49704, Note_on_c, 14, 46, 127
15, 49864, Note_on_c, 14, 46, 0
15, 49894, Note_on_c, 14, 48, 127
15, 50414, Note_on_c, 14, 48, 0
15, 50470, Note_on_c, 14, 46, 127
15, 50528, Note_on_c, 14, 46, 0
15, 50556, Note_on_c, 14, 48, 127
15, 50622, Note_on_c, 14, 48, 0
15, 50658, Note_on_c, 14, 50, 127
15, 50752, Note_on_c, 14, 50, 0
15, 50834, Note_on_c, 14, 58, 127
15, 50892, Note_on_c, 14, 58, 0
15, 50938, Note_on_c, 14, 57, 127
15, 50992, Note_on_c, 14, 57, 0
15, 51028, Note_on_c, 14, 55, 127
15, 51192, Note_on_c, 14, 55, 0
15, 51232, Note_on_c, 14, 53, 127
15, 51394, Note_on_c, 14, 53, 0
15, 51430, Note_on_c, 14, 52, 127
15, 51586, Note_on_c, 14, 52, 0
15, 51612, Note_on_c, 14, 55, 127
15, 51768, Note_on_c, 14, 55, 0
15, 51802, Note_on_c, 14, 48, 127
15, 52138, Note_on_c, 14, 48, 0
15, 53162, Note_on_c, 14, 48, 127
15, 53262, Note_on_c, 14, 48, 0
15, 53350, Note_on_c, 14, 48, 127
15, 53472, Note_on_c, 14, 48, 0
15, 53540, Note_on_c, 14, 48, 127
15, 53670, Note_on_c, 14, 48, 0
15, 53740, Note_on_c, 14, 49, 127
15, 53792, Note_on_c, 14, 49, 0
15, 53826, Note_on_c, 14, 51, 127
15, 53890, Note_on_c, 14, 51, 0
15, 53912, Note_on_c, 14, 49, 127
15, 53964, Note_on_c, 14, 49, 0
15, 54004, Note_on_c, 14, 48, 127
15, 54068, Note_on_c, 14, 48, 0
15, 54112, Note_on_c, 14, 50, 127
15, 54166, Note_on_c, 14, 50, 0
15, 54206, Note_on_c, 14, 51, 127
15, 54270, Note_on_c, 14, 51, 0
15, 54308, Note_on_c, 14, 48, 127
15, 54362, Note_on_c, 14, 48, 0
15, 54400, Note_on_c, 14, 50, 127
15, 54452, Note_on_c, 14, 50, 0
15, 54500, Note_on_c, 14, 51, 127
15, 54554, Note_on_c, 14, 51, 0
15, 54586, Note_on_c, 14, 53, 127
15, 54640, Note_on_c, 14, 53, 0
15, 54682, Note_on_c, 14, 51, 127
15, 54730, Note_on_c, 14, 51, 0
15, 54770, Note_on_c, 14, 50, 127
15, 54832, Note_on_c, 14, 50, 0
15, 54882, Note_on_c, 14, 52, 127
15, 54940, Note_on_c, 14, 52, 0
15, 54972, Note_on_c, 14, 53, 127
15, 55022, Note_on_c, 14, 53, 0
15, 55074, Note_on_c, 14, 50, 127
15, 55120, Note_on_c, 14, 50, 0
15, 55160, Note_on_c, 14, 52, 127
15, 55200, Note_on_c, 14, 52, 0
15, 55268, Note_on_c, 14, 53, 127
15, 55388, Note_on_c, 14, 53, 0
15, 55456, Note_on_c, 14, 48, 127
15, 55596, Note_on_c, 14, 48, 0
15, 55644, Note_on_c, 14, 53, 127
15, 55780, Note_on_c, 14, 53, 0
15, 55826, Note_on_c, 14, 51, 127
15, 55992, Note_on_c, 14, 51, 0
15, 56016, Note_on_c, 14, 50, 127
15, 56168, Note_on_c, 14, 50, 0
15, 56210, Note_on_c, 14, 43, 127
15, 56374, Note_on_c, 14, 43, 0
15, 56410, Note_on_c, 14, 55, 127
15, 56558, Note_on_c, 14, 55, 0
15, 56598, Note_on_c, 14, 53, 127
15, 56756, Note_on_c, 14, 53, 0
15, 56798, Note_on_c, 14, 51, 127
15, 56968, Note_on_c, 14, 51, 0
15, 59318, Note_on_c, 14, 52, 127
15, 59420, Note_on_c, 14, 52, 0
15, 59510, Note_on_c, 14, 52, 127
15, 59612, Note_on_c, 14, 52, 0
15, 59694, Note_on_c, 14, 52, 127
15, 59834, Note_on_c, 14, 52, 0
15, 59888, Note_on_c, 14, 53, 127
15, 59942, Note_on_c, 14, 53, 0
15, 59974, Note_on_c, 14, 55, 127
15, 60030, Note_on_c, 14, 55, 0
15, 60066, Note_on_c, 14, 53, 127
15, 60114, Note_on_c, 14, 53, 0
15, 60156, Note_on_c, 14, 52, 127
15, 60212, Note_on_c, 14, 52, 0
15, 60262, Note_on_c, 14, 54, 127
15, 60320, Note_on_c, 14, 54, 0
15, 60356, Note_on_c, 14, 55, 127
15, 60408, Note_on_c, 14, 55, 0
15, 60452, Note_on_c, 14, 52, 127
15, 60510, Note_on_c, 14, 52, 0
15, 60546, Note_on_c, 14, 54, 127
15, 60606, Note_on_c, 14, 54, 0
15, 60652, Note_on_c, 14, 55, 127
15, 60714, Note_on_c, 14, 55, 0
15, 60738, Note_on_c, 14, 57, 127
15, 60788, Note_on_c, 14, 57, 0
15, 60832, Note_on_c, 14, 55, 127
15, 60874, Note_on_c, 14, 55, 0
15, 60916, Note_on_c, 14, 54, 127
15, 60968, Note_on_c, 14, 54, 0
15, 61020, Note_on_c, 14, 56, 127
15, 61068, Note_on_c, 14, 56, 0
15, 61110, Note_on_c, 14, 57, 127
15, 61150, Note_on_c, 14, 57, 0
15, 61212, Note_on_c, 14, 54, 127
15, 61252, Note_on_c, 14, 54, 0
15, 61304, Note_on_c, 14, 56, 127
15, 61342, Note_on_c, 14, 56, 0
15, 61422, Note_on_c, 14, 57, 127
15, 61460, Note_on_c, 14, 57, 0
15, 61616, Note_on_c, 14, 57, 127
15, 61938, Note_on_c, 14, 57, 0
15, 61990, Note_on_c, 14, 57, 127
15, 62150, Note_on_c, 14, 57, 0
15, 62184, Note_on_c, 14, 53, 127
15, 62530, Note_on_c, 14, 53, 0
15, 62566, Note_on_c, 14, 58, 127
15, 62908, Note_on_c, 14, 58, 0
15, 62956, Note_on_c, 14, 49, 127
15, 63472, Note_on_c, 14, 49, 0
15, 63524, Note_on_c, 14, 49, 127
15, 63692, Note_on_c, 14, 49, 0
15, 63722, Note_on_c, 14, 50, 127
15, 64160, Note_on_c, 14, 50, 0
15, 64290, Note_on_c, 14, 50, 127
15, 64440, Note_on_c, 14, 50, 0
15, 64484, Note_on_c, 14, 52, 127
15, 65000, Note_on_c, 14, 52, 0
15, 65058, Note_on_c, 14, 50, 127
15, 65106, Note_on_c, 14, 50, 0
15, 65144, Note_on_c, 14, 52, 127
15, 65188, Note_on_c, 14, 52, 0
15, 65252, Note_on_c, 14, 53, 127
15, 65406, Note_on_c, 14, 53, 0
15, 65446, Note_on_c, 14, 52, 127
15, 65492, Note_on_c, 14, 52, 0
15, 65530, Note_on_c, 14, 53, 127
15, 65578, Note_on_c, 14, 53, 0
15, 65634, Note_on_c, 14, 55, 127
15, 65786, Note_on_c, 14, 55, 0
15, 65824, Note_on_c, 14, 53, 127
15, 65874, Note_on_c, 14, 53, 0
15, 65914, Note_on_c, 14, 55, 127
15, 65978, Note_on_c, 14, 55, 0
15, 66014, Note_on_c, 14, 57, 127
15, 66168, Note_on_c, 14, 57, 0
15, 66210, Note_on_c, 14, 58, 127
15, 66262, Note_on_c, 14, 58, 0
15, 66296, Note_on_c, 14, 57, 127
15, 66352, Note_on_c, 14, 57, 0
15, 66386, Note_on_c, 14, 55, 127
15, 66440, Note_on_c, 14, 55, 0
15, 66482, Note_on_c, 14, 53, 127
15, 66512, Note_on_c, 14, 53, 0
15, 66566, Note_on_c, 14, 52, 127
15, 66614, Note_on_c, 14, 52, 0
15, 66658, Note_on_c, 14, 50, 127
15, 66712, Note_on_c, 14, 50, 0
15, 66780, Note_on_c, 14, 49, 127
15, 67138, Note_on_c, 14, 49, 0
15, 67180, Note_on_c, 14, 50, 127
15, 67348, Note_on_c, 14, 50, 0
15, 67376, Note_on_c, 14, 57, 127
15, 67514, Note_on_c, 14, 57, 0
15, 67558, Note_on_c, 14, 58, 127
15, 68084, Note_on_c, 14, 58, 0
15, 68126, Note_on_c, 14, 58, 127
15, 68322, Note_on_c, 14, 58, 0
15, 68328, Note_on_c, 14, 57, 127
15, 68526, Note_on_c, 14, 57, 0
15, 70066, Note_on_c, 14, 45, 127
15, 70172, Note_on_c, 14, 45, 0
15, 70248, Note_on_c, 14, 45, 127
15, 70368, Note_on_c, 14, 45, 0
15, 70440, Note_on_c, 14, 45, 127
15, 70586, Note_on_c, 14, 45, 0
15, 70632, Note_on_c, 14, 46, 127
15, 70698, Note_on_c, 14, 46, 0
15, 70718, Note_on_c, 14, 48, 127
15, 70772, Note_on_c, 14, 48, 0
15, 70808, Note_on_c, 14, 46, 127
15, 70862, Note_on_c, 14, 46, 0
15, 70900, Note_on_c, 14, 45, 127
15, 70956, Note_on_c, 14, 45, 0
15, 71010, Note_on_c, 14, 47, 127
15, 71062, Note_on_c, 14, 47, 0
15, 71106, Note_on_c, 14, 48, 127
15, 71160, Note_on_c, 14, 48, 0
15, 71204, Note_on_c, 14, 45, 127
15, 71252, Note_on_c, 14, 45, 0
15, 71294, Note_on_c, 14, 47, 127
15, 71346, Note_on_c, 14, 47, 0
15, 71402, Note_on_c, 14, 48, 127
15, 71456, Note_on_c, 14, 48, 0
15, 71490, Note_on_c, 14, 50, 127
15, 71538, Note_on_c, 14, 50, 0
15, 71584, Note_on_c, 14, 48, 127
15, 71626, Note_on_c, 14, 48, 0
15, 71672, Note_on_c, 14, 47, 127
15, 71726, Note_on_c, 14, 47, 0
15, 71776, Note_on_c, 14, 49, 127
15, 71824, Note_on_c, 14, 49, 0
15, 71866, Note_on_c, 14, 50, 127
15, 71922, Note_on_c, 14, 50, 0
15, 71972, Note_on_c, 14, 47, 127
15, 72018, Note_on_c, 14, 47, 0
15, 72062, Note_on_c, 14, 49, 127
15, 72102, Note_on_c, 14, 49, 0
15, 72172, Note_on_c, 14, 50, 127
15, 72242, Note_on_c, 14, 50, 0
15, 72368, Note_on_c, 14, 50, 127
15, 72466, Note_on_c, 14, 50, 0
15, 72558, Note_on_c, 14, 55, 127
15, 72666, Note_on_c, 14, 55, 0
15, 72744, Note_on_c, 14, 53, 127
15, 72862, Note_on_c, 14, 53, 0
15, 72934, Note_on_c, 14, 52, 127
15, 73056, Note_on_c, 14, 52, 0
15, 73126, Note_on_c, 14, 52, 127
15, 73262, Note_on_c, 14, 52, 0
15, 73326, Note_on_c, 14, 57, 127
15, 73454, Note_on_c, 14, 57, 0
15, 73516, Note_on_c, 14, 55, 127
15, 73654, Note_on_c, 14, 55, 0
15, 73702, Note_on_c, 14, 53, 127
15, 73904, Note_on_c, 14, 53, 0
15, 75052, Note_on_c, 14, 52, 127
15, 75194, Note_on_c, 14, 52, 0
15, 75252, Note_on_c, 14, 57, 127
15, 75380, Note_on_c, 14, 57, 0
15, 75430, Note_on_c, 14, 45, 127
15, 75570, Note_on_c, 14, 45, 0
15, 75620, Note_on_c, 14, 50, 127
15, 75764, Note_on_c, 14, 50, 0
15, 75806, Note_on_c, 14, 48, 127
15, 75950, Note_on_c, 14, 48, 0
15, 76002, Note_on_c, 14, 47, 127
15, 76154, Note_on_c, 14, 47, 0
15, 76192, Note_on_c, 14, 47, 127
15, 76332, Note_on_c, 14, 47, 0
15, 76384, Note_on_c, 14, 52, 127
15, 76526, Note_on_c, 14, 52, 0
15, 76582, Note_on_c, 14, 50, 127
15, 76722, Note_on_c, 14, 50, 0
15, 76768, Note_on_c, 14, 49, 127
15, 76920, Note_on_c, 14, 49, 0
15, 76976, Note_on_c, 14, 57, 127
15, 77120, Note_on_c, 14, 57, 0
15, 77164, Note_on_c, 14, 58, 127
15, 77288, Note_on_c, 14, 58, 0
15, 77342, Note_on_c, 14, 55, 127
15, 77476, Note_on_c, 14, 55, 0
15, 77542, Note_on_c, 14, 57, 127
15, 78070, Note_on_c, 14, 57, 0
15, 78124, Note_on_c, 14, 57, 127
15, 78284, Note_on_c, 14, 57, 0
15, 78310, Note_on_c, 14, 56, 127
15, 79132, Note_on_c, 14, 56, 0
15, 79854, Note_on_c, 14, 56, 127
15, 80110, Note_on_c, 14, 56, 0
15, 80158, Note_on_c, 14, 56, 127
15, 80254, Note_on_c, 14, 56, 0
15, 80264, Note_on_c, 14, 57, 127
15, 80610, Note_on_c, 14, 57, 0
15, 80642, Note_on_c, 14, 53, 127
15, 80786, Note_on_c, 14, 53, 0
15, 80816, Note_on_c, 14, 50, 127
15, 80970, Note_on_c, 14, 50, 0
15, 81004, Note_on_c, 14, 57, 127
15, 81540, Note_on_c, 14, 57, 0
15, 81592, Note_on_c, 14, 57, 127
15, 81736, Note_on_c, 14, 57, 0
15, 81792, Note_on_c, 14, 50, 127
15, 82944, Note_on_c, 14, 50, 0
15, 82944, End_track
16, 0, Start_track
16, 0, Title_t, "SysEx"
16, 0, End_track
17, 0, Start_track
17, 0, Title_t, "M.Salvi"
17, 0, End_track
18, 0, Start_track
18, 0, Title_t, "CsoDogali"
18, 0, End_track
19, 0, Start_track
19, 0, Title_t, "9/1 16136"
19, 0, End_track
20, 0, Start_track
20, 0, Title_t, "+39-010"
20, 0, End_track
21, 0, Start_track
21, 0, Title_t, "2722510"
21, 0, End_track
22, 0, Start_track
22, 0, Title_t, "Genova(It"
22, 0, End_track
23, 0, Start_track
23, 0, Title_t, "masalv@"
23, 0, End_track
24, 0, Start_track
24, 0, Title_t, "mbox. "
24, 0, End_track
25, 0, Start_track
25, 0, Title_t, "vol.it"
25, 0, End_track
26, 0, Start_track
26, 0, End_track
0, 0, End_of_file