0, 0, Header, 1, 12, 480
1, 0, Start_track
1, 0, Title_t, "untitled"
1, 0, Time_signature, 4, 2, 24, 8
1, 0, Key_signature, 0, "major"
1, 0, Tempo, 454545
1, 9600, Tempo, 434783
1, 19680, Tempo, 444444
1, 20160, Tempo, 454545
1, 20640, Tempo, 461538
1, 21120, Tempo, 458015
1, 23040, Tempo, 434783
1, 27360, Tempo, 437956
1, 27840, Tempo, 444444
1, 28320, Tempo, 454545
1, 28800, Tempo, 458015
1, 30720, Tempo, 434783
1, 51840, Tempo, 454545
1, 52320, Tempo, 454545
1, 52800, Tempo, 491803
1, 53280, Tempo, 495868
1, 53760, Tempo, 434783
1, 101760, Tempo, 437956
1, 102240, Tempo, 451128
1, 102720, Tempo, 454545
1, 103200, Tempo, 465116
1, 103680, Tempo, 454545
1, 105600, Tempo, 458015
1, 107520, Tempo, 454545
1, 115200, Tempo, 434783
1, 125280, Tempo, 444444
1, 125760, Tempo, 454545
1, 126240, Tempo, 461538
1, 126720, Tempo, 458015
1, 128640, Tempo, 434783
1, 132960, Tempo, 437956
1, 133440, Tempo, 444444
1, 133920, Tempo, 454545
1, 134400, Tempo, 458015
1, 136320, Tempo, 434783
1, 157440, Tempo, 454545
1, 157920, Tempo, 454545
1, 158400, Tempo, 500000
1, 158880, Tempo, 504202
1, 159360, Tempo, 434783
1, 207360, Tempo, 437956
1, 207840, Tempo, 451128
1, 208320, Tempo, 454545
1, 208800, Tempo, 465116
1, 209280, Tempo, 454545
1, 211200, Tempo, 458015
1, 213120, Tempo, 454545
1, 220800, Tempo, 434783
1, 236160, Tempo, 444444
1, 240000, Tempo, 434783
1, 243840, Tempo, 444444
1, 244320, Tempo, 451128
1, 244800, Tempo, 451128
1, 245280, Tempo, 454545
1, 250080, Tempo, 454545
1, 250560, Tempo, 458015
1, 251040, Tempo, 461538
1, 251520, Tempo, 454545
1, 259200, Tempo, 434783
1, 269280, Tempo, 444444
1, 269760, Tempo, 454545
1, 270240, Tempo, 461538
1, 270720, Tempo, 454545
1, 272640, Tempo, 434783
1, 276480, Tempo, 454545
1, 280320, Tempo, 434783
1, 297600, Tempo, 444444
1, 299520, Tempo, 434783
1, 347520, Tempo, 437956
1, 348000, Tempo, 451128
1, 348480, Tempo, 454545
1, 348960, Tempo, 465116
1, 349440, Tempo, 458015
1, 357120, Tempo, 472441
1, 357600, Tempo, 480000
1, 358080, Tempo, 483871
1, 358560, Tempo, 495868
1, 359040, Tempo, 434783
1, 366720, Tempo, 454545
1, 367200, Tempo, 458015
1, 367680, Tempo, 472441
1, 368160, Tempo, 476190
1, 368640, Tempo, 521739
1, 368640, End_track
2, 0, Start_track
2, 0, Program_c, 6, 48
2, 0, Control_c, 6, 7, 127
2, 0, Control_c, 6, 10, 43
2, 0, Control_c, 6, 91, 80
2, 1920, Note_on_c, 6, 71, 105
2, 1920, Note_on_c, 6, 79, 105
2, 1920, Note_on_c, 6, 62, 105
2, 2304, Note_on_c, 6, 62, 0
2, 2304, Note_on_c, 6, 79, 0
2, 2304, Note_on_c, 6, 71, 0
2, 2640, Note_on_c, 6, 74, 105
2, 2784, Note_on_c, 6, 74, 0
2, 2880, Note_on_c, 6, 79, 105
2, 3264, Note_on_c, 6, 79, 0
2, 3600, Note_on_c, 6, 74, 105
2, 3744, Note_on_c, 6, 74, 0
2, 3840, Note_on_c, 6, 79, 105
2, 3984, Note_on_c, 6, 79, 0
2, 4080, Note_on_c, 6, 74, 105
2, 4224, Note_on_c, 6, 74, 0
2, 4320, Note_on_c, 6, 79, 105
2, 4464, Note_on_c, 6, 79, 0
2, 4560, Note_on_c, 6, 83, 105
2, 4704, Note_on_c, 6, 83, 0
2, 4800, Note_on_c, 6, 86, 105
2, 5184, Note_on_c, 6, 86, 0
2, 5760, Note_on_c, 6, 84, 105
2, 6144, Note_on_c, 6, 84, 0
2, 6480, Note_on_c, 6, 81, 105
2, 6624, Note_on_c, 6, 81, 0
2, 6720, Note_on_c, 6, 84, 105
2, 7104, Note_on_c, 6, 84, 0
2, 7440, Note_on_c, 6, 81, 105
2, 7584, Note_on_c, 6, 81, 0
2, 7680, Note_on_c, 6, 84, 105
2, 7824, Note_on_c, 6, 84, 0
2, 7920, Note_on_c, 6, 81, 105
2, 8064, Note_on_c, 6, 81, 0
2, 8160, Note_on_c, 6, 78, 105
2, 8304, Note_on_c, 6, 78, 0
2, 8400, Note_on_c, 6, 81, 105
2, 8544, Note_on_c, 6, 81, 0
2, 8640, Note_on_c, 6, 74, 105
2, 9024, Note_on_c, 6, 74, 0
2, 9600, Note_on_c, 6, 79, 116
2, 9600, Note_on_c, 6, 71, 116
2, 9600, Note_on_c, 6, 62, 116
2, 9744, Note_on_c, 6, 79, 0
2, 9792, Note_on_c, 6, 62, 0
2, 9792, Note_on_c, 6, 71, 0
2, 10080, Note_on_c, 6, 79, 116
2, 10656, Note_on_c, 6, 79, 0
2, 10800, Note_on_c, 6, 83, 116
2, 11040, Note_on_c, 6, 83, 0
2, 11040, Note_on_c, 6, 81, 116
2, 11184, Note_on_c, 6, 81, 0
2, 11280, Note_on_c, 6, 79, 116
2, 11424, Note_on_c, 6, 79, 0
2, 11520, Note_on_c, 6, 81, 116
2, 11580, Note_on_c, 6, 81, 0
2, 11580, Note_on_c, 6, 79, 116
2, 11640, Note_on_c, 6, 79, 0
2, 11640, Note_on_c, 6, 81, 116
2, 11700, Note_on_c, 6, 81, 0
2, 11700, Note_on_c, 6, 79, 116
2, 11760, Note_on_c, 6, 79, 0
2, 11760, Note_on_c, 6, 78, 116
2, 11904, Note_on_c, 6, 78, 0
2, 12000, Note_on_c, 6, 78, 116
2, 12576, Note_on_c, 6, 78, 0
2, 12720, Note_on_c, 6, 81, 116
2, 12960, Note_on_c, 6, 81, 0
2, 12960, Note_on_c, 6, 84, 116
2, 13104, Note_on_c, 6, 84, 0
2, 13200, Note_on_c, 6, 78, 116
2, 13344, Note_on_c, 6, 78, 0
2, 13440, Note_on_c, 6, 81, 116
2, 13680, Note_on_c, 6, 81, 0
2, 13680, Note_on_c, 6, 79, 116
2, 13824, Note_on_c, 6, 79, 0
2, 13920, Note_on_c, 6, 79, 116
2, 14496, Note_on_c, 6, 79, 0
2, 14640, Note_on_c, 6, 83, 116
2, 14880, Note_on_c, 6, 83, 0
2, 14880, Note_on_c, 6, 81, 116
2, 15024, Note_on_c, 6, 81, 0
2, 15120, Note_on_c, 6, 79, 116
2, 15264, Note_on_c, 6, 79, 0
2, 15360, Note_on_c, 6, 81, 116
2, 15420, Note_on_c, 6, 81, 0
2, 15420, Note_on_c, 6, 79, 116
2, 15480, Note_on_c, 6, 79, 0
2, 15480, Note_on_c, 6, 81, 116
2, 15540, Note_on_c, 6, 81, 0
2, 15540, Note_on_c, 6, 79, 116
2, 15600, Note_on_c, 6, 79, 0
2, 15600, Note_on_c, 6, 78, 116
2, 15744, Note_on_c, 6, 78, 0
2, 15840, Note_on_c, 6, 78, 116
2, 16416, Note_on_c, 6, 78, 0
2, 16560, Note_on_c, 6, 81, 116
2, 16800, Note_on_c, 6, 81, 0
2, 16800, Note_on_c, 6, 84, 116
2, 16944, Note_on_c, 6, 84, 0
2, 17040, Note_on_c, 6, 78, 116
2, 17184, Note_on_c, 6, 78, 0
2, 17280, Note_on_c, 6, 79, 116
2, 17424, Note_on_c, 6, 79, 0
2, 17520, Note_on_c, 6, 79, 116
2, 17664, Note_on_c, 6, 79, 0
2, 17760, Note_on_c, 6, 79, 116
2, 17880, Note_on_c, 6, 79, 0
2, 17880, Note_on_c, 6, 78, 116
2, 18000, Note_on_c, 6, 78, 0
2, 18000, Note_on_c, 6, 76, 116
2, 18120, Note_on_c, 6, 76, 0
2, 18120, Note_on_c, 6, 78, 116
2, 18240, Note_on_c, 6, 78, 0
2, 18240, Note_on_c, 6, 79, 116
2, 18384, Note_on_c, 6, 79, 0
2, 18480, Note_on_c, 6, 79, 116
2, 18624, Note_on_c, 6, 79, 0
2, 18720, Note_on_c, 6, 83, 116
2, 18840, Note_on_c, 6, 83, 0
2, 18840, Note_on_c, 6, 81, 116
2, 18960, Note_on_c, 6, 81, 0
2, 18960, Note_on_c, 6, 79, 116
2, 19080, Note_on_c, 6, 79, 0
2, 19080, Note_on_c, 6, 81, 116
2, 19176, Note_on_c, 6, 81, 0
2, 19200, Note_on_c, 6, 83, 116
2, 19344, Note_on_c, 6, 83, 0
2, 19440, Note_on_c, 6, 83, 116
2, 19584, Note_on_c, 6, 83, 0
2, 19680, Note_on_c, 6, 86, 116
2, 19800, Note_on_c, 6, 86, 0
2, 19800, Note_on_c, 6, 84, 116
2, 19920, Note_on_c, 6, 84, 0
2, 19920, Note_on_c, 6, 83, 116
2, 20040, Note_on_c, 6, 83, 0
2, 20040, Note_on_c, 6, 84, 116
2, 20136, Note_on_c, 6, 84, 0
2, 20160, Note_on_c, 6, 86, 92
2, 20544, Note_on_c, 6, 86, 0
2, 21120, Note_on_c, 6, 74, 72
2, 22080, Note_on_c, 6, 74, 0
2, 22080, Note_on_c, 6, 76, 72
2, 22848, Note_on_c, 6, 76, 0
2, 23040, Note_on_c, 6, 74, 72
2, 23160, Note_on_c, 6, 74, 0
2, 23160, Note_on_c, 6, 72, 72
2, 23394, Note_on_c, 6, 72, 0
2, 23520, Note_on_c, 6, 72, 72
2, 23832, Note_on_c, 6, 72, 0
2, 24000, Note_on_c, 6, 72, 72
2, 24120, Note_on_c, 6, 72, 0
2, 24120, Note_on_c, 6, 71, 72
2, 24354, Note_on_c, 6, 71, 0
2, 24480, Note_on_c, 6, 71, 72
2, 24792, Note_on_c, 6, 71, 0
2, 24960, Note_on_c, 6, 71, 72
2, 25080, Note_on_c, 6, 71, 0
2, 25080, Note_on_c, 6, 69, 72
2, 25314, Note_on_c, 6, 69, 0
2, 25440, Note_on_c, 6, 69, 72
2, 25752, Note_on_c, 6, 69, 0
2, 25920, Note_on_c, 6, 67, 72
2, 26160, Note_on_c, 6, 67, 0
2, 26160, Note_on_c, 6, 66, 72
2, 26316, Note_on_c, 6, 66, 0
2, 26400, Note_on_c, 6, 64, 72
2, 26556, Note_on_c, 6, 64, 0
2, 26640, Note_on_c, 6, 66, 72
2, 26796, Note_on_c, 6, 66, 0
2, 26880, Note_on_c, 6, 67, 72
2, 27072, Note_on_c, 6, 67, 0
2, 27360, Note_on_c, 6, 69, 72
2, 27552, Note_on_c, 6, 69, 0
2, 27840, Note_on_c, 6, 71, 58
2, 28032, Note_on_c, 6, 71, 0
2, 28800, Note_on_c, 6, 74, 72
2, 29760, Note_on_c, 6, 74, 0
2, 29760, Note_on_c, 6, 76, 72
2, 30528, Note_on_c, 6, 76, 0
2, 30720, Note_on_c, 6, 74, 72
2, 30960, Note_on_c, 6, 74, 0
2, 30960, Note_on_c, 6, 72, 72
2, 31116, Note_on_c, 6, 72, 0
2, 31200, Note_on_c, 6, 72, 72
2, 31356, Note_on_c, 6, 72, 0
2, 31440, Note_on_c, 6, 72, 72
2, 31596, Note_on_c, 6, 72, 0
2, 31680, Note_on_c, 6, 72, 72
2, 31920, Note_on_c, 6, 72, 0
2, 31920, Note_on_c, 6, 71, 72
2, 32076, Note_on_c, 6, 71, 0
2, 32160, Note_on_c, 6, 71, 72
2, 32316, Note_on_c, 6, 71, 0
2, 32400, Note_on_c, 6, 71, 72
2, 32556, Note_on_c, 6, 71, 0
2, 32640, Note_on_c, 6, 71, 72
2, 32880, Note_on_c, 6, 71, 0
2, 32880, Note_on_c, 6, 69, 72
2, 33036, Note_on_c, 6, 69, 0
2, 33120, Note_on_c, 6, 69, 72
2, 33276, Note_on_c, 6, 69, 0
2, 33360, Note_on_c, 6, 69, 72
2, 33516, Note_on_c, 6, 69, 0
2, 33600, Note_on_c, 6, 67, 72
2, 33840, Note_on_c, 6, 67, 0
2, 33840, Note_on_c, 6, 66, 72
2, 34080, Note_on_c, 6, 66, 0
2, 34080, Note_on_c, 6, 64, 72
2, 34320, Note_on_c, 6, 64, 0
2, 34320, Note_on_c, 6, 66, 72
2, 34476, Note_on_c, 6, 66, 0
2, 34560, Note_on_c, 6, 67, 121
2, 34560, Note_on_c, 6, 55, 81
2, 35712, Note_on_c, 6, 55, 0
2, 35712, Note_on_c, 6, 67, 0
2, 35760, Note_on_c, 6, 69, 72
2, 35820, Note_on_c, 6, 69, 0
2, 35820, Note_on_c, 6, 67, 72
2, 35880, Note_on_c, 6, 67, 0
2, 35880, Note_on_c, 6, 66, 72
2, 35940, Note_on_c, 6, 66, 0
2, 35940, Note_on_c, 6, 67, 72
2, 36000, Note_on_c, 6, 67, 0
2, 36000, Note_on_c, 6, 69, 72
2, 36240, Note_on_c, 6, 69, 0
2, 36240, Note_on_c, 6, 66, 72
2, 36432, Note_on_c, 6, 66, 0
2, 36480, Note_on_c, 6, 71, 121
2, 37632, Note_on_c, 6, 71, 0
2, 37680, Note_on_c, 6, 72, 72
2, 37740, Note_on_c, 6, 72, 0
2, 37740, Note_on_c, 6, 71, 72
2, 37800, Note_on_c, 6, 71, 0
2, 37800, Note_on_c, 6, 69, 72
2, 37860, Note_on_c, 6, 69, 0
2, 37860, Note_on_c, 6, 71, 72
2, 37920, Note_on_c, 6, 71, 0
2, 37920, Note_on_c, 6, 72, 72
2, 38160, Note_on_c, 6, 72, 0
2, 38160, Note_on_c, 6, 69, 72
2, 38352, Note_on_c, 6, 69, 0
2, 38400, Note_on_c, 6, 74, 72
2, 38496, Note_on_c, 6, 74, 0
2, 38520, Note_on_c, 6, 74, 72
2, 38616, Note_on_c, 6, 74, 0
2, 38640, Note_on_c, 6, 74, 72
2, 38736, Note_on_c, 6, 74, 0
2, 38760, Note_on_c, 6, 74, 72
2, 38856, Note_on_c, 6, 74, 0
2, 38880, Note_on_c, 6, 74, 72
2, 38976, Note_on_c, 6, 74, 0
2, 39000, Note_on_c, 6, 74, 72
2, 39096, Note_on_c, 6, 74, 0
2, 39120, Note_on_c, 6, 74, 72
2, 39216, Note_on_c, 6, 74, 0
2, 39240, Note_on_c, 6, 74, 72
2, 39336, Note_on_c, 6, 74, 0
2, 39360, Note_on_c, 6, 76, 81
2, 39456, Note_on_c, 6, 76, 0
2, 39480, Note_on_c, 6, 76, 81
2, 39576, Note_on_c, 6, 76, 0
2, 39600, Note_on_c, 6, 76, 81
2, 39696, Note_on_c, 6, 76, 0
2, 39720, Note_on_c, 6, 76, 81
2, 39816, Note_on_c, 6, 76, 0
2, 39840, Note_on_c, 6, 78, 81
2, 39936, Note_on_c, 6, 78, 0
2, 39960, Note_on_c, 6, 78, 81
2, 40056, Note_on_c, 6, 78, 0
2, 40080, Note_on_c, 6, 78, 81
2, 40176, Note_on_c, 6, 78, 0
2, 40200, Note_on_c, 6, 78, 81
2, 40296, Note_on_c, 6, 78, 0
2, 40320, Note_on_c, 6, 79, 92
2, 40416, Note_on_c, 6, 79, 0
2, 40440, Note_on_c, 6, 79, 92
2, 40536, Note_on_c, 6, 79, 0
2, 40560, Note_on_c, 6, 79, 92
2, 40656, Note_on_c, 6, 79, 0
2, 40680, Note_on_c, 6, 79, 92
2, 40776, Note_on_c, 6, 79, 0
2, 40800, Note_on_c, 6, 81, 92
2, 40896, Note_on_c, 6, 81, 0
2, 40920, Note_on_c, 6, 81, 92
2, 41016, Note_on_c, 6, 81, 0
2, 41040, Note_on_c, 6, 81, 92
2, 41136, Note_on_c, 6, 81, 0
2, 41160, Note_on_c, 6, 81, 105
2, 41256, Note_on_c, 6, 81, 0
2, 41280, Note_on_c, 6, 83, 105
2, 41376, Note_on_c, 6, 83, 0
2, 41400, Note_on_c, 6, 83, 105
2, 41496, Note_on_c, 6, 83, 0
2, 41520, Note_on_c, 6, 83, 105
2, 41616, Note_on_c, 6, 83, 0
2, 41640, Note_on_c, 6, 83, 105
2, 41736, Note_on_c, 6, 83, 0
2, 41760, Note_on_c, 6, 85, 105
2, 41856, Note_on_c, 6, 85, 0
2, 41880, Note_on_c, 6, 85, 116
2, 41976, Note_on_c, 6, 85, 0
2, 42000, Note_on_c, 6, 85, 116
2, 42096, Note_on_c, 6, 85, 0
2, 42120, Note_on_c, 6, 85, 116
2, 42216, Note_on_c, 6, 85, 0
2, 42240, Note_on_c, 6, 86, 127
2, 42960, Note_on_c, 6, 86, 0
2, 42960, Note_on_c, 6, 81, 116
2, 43152, Note_on_c, 6, 81, 0
2, 43200, Note_on_c, 6, 85, 116
2, 43560, Note_on_c, 6, 85, 0
2, 43560, Note_on_c, 6, 81, 116
2, 43656, Note_on_c, 6, 81, 0
2, 43680, Note_on_c, 6, 85, 116
2, 44040, Note_on_c, 6, 85, 0
2, 44040, Note_on_c, 6, 81, 116
2, 44136, Note_on_c, 6, 81, 0
2, 44160, Note_on_c, 6, 86, 127
2, 44880, Note_on_c, 6, 86, 0
2, 44880, Note_on_c, 6, 81, 116
2, 45072, Note_on_c, 6, 81, 0
2, 45120, Note_on_c, 6, 85, 116
2, 45480, Note_on_c, 6, 85, 0
2, 45480, Note_on_c, 6, 81, 116
2, 45576, Note_on_c, 6, 81, 0
2, 45600, Note_on_c, 6, 85, 116
2, 45960, Note_on_c, 6, 85, 0
2, 45960, Note_on_c, 6, 81, 116
2, 46056, Note_on_c, 6, 81, 0
2, 46080, Note_on_c, 6, 86, 116
2, 46224, Note_on_c, 6, 86, 0
2, 46320, Note_on_c, 6, 86, 116
2, 46320, Note_on_c, 6, 78, 116
2, 46704, Note_on_c, 6, 78, 0
2, 46704, Note_on_c, 6, 86, 0
2, 46800, Note_on_c, 6, 78, 116
2, 46800, Note_on_c, 6, 86, 116
2, 47184, Note_on_c, 6, 86, 0
2, 47184, Note_on_c, 6, 78, 0
2, 47280, Note_on_c, 6, 78, 116
2, 47280, Note_on_c, 6, 86, 116
2, 47664, Note_on_c, 6, 86, 0
2, 47664, Note_on_c, 6, 78, 0
2, 47760, Note_on_c, 6, 86, 116
2, 47760, Note_on_c, 6, 78, 116
2, 48000, Note_on_c, 6, 78, 0
2, 48000, Note_on_c, 6, 76, 116
2, 48192, Note_on_c, 6, 76, 0
2, 48192, Note_on_c, 6, 86, 0
2, 48240, Note_on_c, 6, 86, 116
2, 48240, Note_on_c, 6, 76, 116
2, 48624, Note_on_c, 6, 76, 0
2, 48624, Note_on_c, 6, 86, 0
2, 48720, Note_on_c, 6, 76, 116
2, 48720, Note_on_c, 6, 86, 116
2, 49104, Note_on_c, 6, 86, 0
2, 49104, Note_on_c, 6, 76, 0
2, 49200, Note_on_c, 6, 86, 116
2, 49200, Note_on_c, 6, 76, 116
2, 49584, Note_on_c, 6, 76, 0
2, 49584, Note_on_c, 6, 86, 0
2, 49680, Note_on_c, 6, 86, 116
2, 49680, Note_on_c, 6, 76, 116
2, 49824, Note_on_c, 6, 76, 0
2, 49824, Note_on_c, 6, 86, 0
2, 49920, Note_on_c, 6, 85, 116
2, 49920, Note_on_c, 6, 76, 116
2, 50064, Note_on_c, 6, 76, 0
2, 50064, Note_on_c, 6, 85, 0
2, 50160, Note_on_c, 6, 81, 116
2, 50304, Note_on_c, 6, 81, 0
2, 50400, Note_on_c, 6, 86, 116
2, 50544, Note_on_c, 6, 86, 0
2, 50640, Note_on_c, 6, 81, 116
2, 50784, Note_on_c, 6, 81, 0
2, 50880, Note_on_c, 6, 85, 116
2, 51024, Note_on_c, 6, 85, 0
2, 51120, Note_on_c, 6, 81, 116
2, 51264, Note_on_c, 6, 81, 0
2, 51360, Note_on_c, 6, 86, 116
2, 51504, Note_on_c, 6, 86, 0
2, 51600, Note_on_c, 6, 81, 116
2, 51744, Note_on_c, 6, 81, 0
2, 51840, Note_on_c, 6, 85, 116
2, 51984, Note_on_c, 6, 85, 0
2, 52080, Note_on_c, 6, 69, 116
2, 52224, Note_on_c, 6, 69, 0
2, 52320, Note_on_c, 6, 69, 116
2, 52464, Note_on_c, 6, 69, 0
2, 52560, Note_on_c, 6, 69, 116
2, 52704, Note_on_c, 6, 69, 0
2, 52800, Note_on_c, 6, 69, 116
2, 53184, Note_on_c, 6, 69, 0
2, 53760, Note_on_c, 6, 81, 72
2, 54480, Note_on_c, 6, 81, 0
2, 54480, Note_on_c, 6, 79, 72
2, 54560, Note_on_c, 6, 79, 0
2, 54560, Note_on_c, 6, 78, 72
2, 54640, Note_on_c, 6, 78, 0
2, 54640, Note_on_c, 6, 76, 72
2, 54720, Note_on_c, 6, 76, 0
2, 54720, Note_on_c, 6, 74, 72
2, 54876, Note_on_c, 6, 74, 0
2, 55200, Note_on_c, 6, 83, 72
2, 55356, Note_on_c, 6, 83, 0
2, 55680, Note_on_c, 6, 79, 72
2, 55836, Note_on_c, 6, 79, 0
2, 56160, Note_on_c, 6, 76, 72
2, 56316, Note_on_c, 6, 76, 0
2, 56640, Note_on_c, 6, 81, 72
2, 56796, Note_on_c, 6, 81, 0
2, 57600, Note_on_c, 6, 78, 72
2, 58320, Note_on_c, 6, 78, 0
2, 58320, Note_on_c, 6, 76, 72
2, 58400, Note_on_c, 6, 76, 0
2, 58400, Note_on_c, 6, 74, 72
2, 58480, Note_on_c, 6, 74, 0
2, 58480, Note_on_c, 6, 73, 72
2, 58560, Note_on_c, 6, 73, 0
2, 58560, Note_on_c, 6, 71, 72
2, 58716, Note_on_c, 6, 71, 0
2, 59040, Note_on_c, 6, 79, 72
2, 59196, Note_on_c, 6, 79, 0
2, 59520, Note_on_c, 6, 78, 72
2, 60480, Note_on_c, 6, 78, 0
2, 60480, Note_on_c, 6, 76, 72
2, 60864, Note_on_c, 6, 76, 0
2, 61680, Note_on_c, 6, 81, 72
2, 61824, Note_on_c, 6, 81, 0
2, 61920, Note_on_c, 6, 81, 58
2, 62064, Note_on_c, 6, 81, 0
2, 62160, Note_on_c, 6, 81, 58
2, 62304, Note_on_c, 6, 81, 0
2, 62400, Note_on_c, 6, 81, 58
2, 62544, Note_on_c, 6, 81, 0
2, 62640, Note_on_c, 6, 81, 58
2, 62784, Note_on_c, 6, 81, 0
2, 62880, Note_on_c, 6, 81, 58
2, 63024, Note_on_c, 6, 81, 0
2, 63120, Note_on_c, 6, 81, 58
2, 63264, Note_on_c, 6, 81, 0
2, 63360, Note_on_c, 6, 81, 58
2, 63504, Note_on_c, 6, 81, 0
2, 63600, Note_on_c, 6, 81, 58
2, 63744, Note_on_c, 6, 81, 0
2, 63840, Note_on_c, 6, 81, 58
2, 63984, Note_on_c, 6, 81, 0
2, 64080, Note_on_c, 6, 81, 58
2, 64224, Note_on_c, 6, 81, 0
2, 64320, Note_on_c, 6, 81, 58
2, 64464, Note_on_c, 6, 81, 0
2, 64560, Note_on_c, 6, 81, 58
2, 64704, Note_on_c, 6, 81, 0
2, 64800, Note_on_c, 6, 83, 58
2, 64944, Note_on_c, 6, 83, 0
2, 65040, Note_on_c, 6, 85, 58
2, 65184, Note_on_c, 6, 85, 0
2, 65280, Note_on_c, 6, 85, 72
2, 65520, Note_on_c, 6, 85, 0
2, 65520, Note_on_c, 6, 86, 72
2, 65664, Note_on_c, 6, 86, 0
2, 66000, Note_on_c, 6, 83, 72
2, 66144, Note_on_c, 6, 83, 0
2, 66240, Note_on_c, 6, 83, 72
2, 66480, Note_on_c, 6, 83, 0
2, 66480, Note_on_c, 6, 81, 72
2, 66672, Note_on_c, 6, 81, 0
2, 66960, Note_on_c, 6, 73, 72
2, 67104, Note_on_c, 6, 73, 0
2, 67200, Note_on_c, 6, 74, 72
2, 67584, Note_on_c, 6, 74, 0
2, 67920, Note_on_c, 6, 81, 72
2, 68112, Note_on_c, 6, 81, 0
2, 68160, Note_on_c, 6, 86, 72
2, 68400, Note_on_c, 6, 86, 0
2, 68400, Note_on_c, 6, 85, 72
2, 68640, Note_on_c, 6, 85, 0
2, 68640, Note_on_c, 6, 83, 72
2, 68880, Note_on_c, 6, 83, 0
2, 68880, Note_on_c, 6, 81, 72
2, 69072, Note_on_c, 6, 81, 0
2, 69120, Note_on_c, 6, 85, 72
2, 69180, Note_on_c, 6, 85, 0
2, 69180, Note_on_c, 6, 83, 72
2, 69240, Note_on_c, 6, 83, 0
2, 69240, Note_on_c, 6, 85, 72
2, 69300, Note_on_c, 6, 85, 0
2, 69300, Note_on_c, 6, 83, 72
2, 69360, Note_on_c, 6, 83, 0
2, 69360, Note_on_c, 6, 81, 72
2, 69552, Note_on_c, 6, 81, 0
2, 69840, Note_on_c, 6, 81, 72
2, 69996, Note_on_c, 6, 81, 0
2, 70080, Note_on_c, 6, 81, 72
2, 70236, Note_on_c, 6, 81, 0
2, 70320, Note_on_c, 6, 81, 72
2, 70476, Note_on_c, 6, 81, 0
2, 70560, Note_on_c, 6, 81, 72
2, 70716, Note_on_c, 6, 81, 0
2, 70800, Note_on_c, 6, 81, 72
2, 70956, Note_on_c, 6, 81, 0
2, 71040, Note_on_c, 6, 85, 72
2, 71100, Note_on_c, 6, 85, 0
2, 71100, Note_on_c, 6, 83, 72
2, 71160, Note_on_c, 6, 83, 0
2, 71160, Note_on_c, 6, 85, 72
2, 71220, Note_on_c, 6, 85, 0
2, 71220, Note_on_c, 6, 83, 72
2, 71280, Note_on_c, 6, 83, 0
2, 71280, Note_on_c, 6, 81, 72
2, 71472, Note_on_c, 6, 81, 0
2, 71760, Note_on_c, 6, 81, 72
2, 71952, Note_on_c, 6, 81, 0
2, 72000, Note_on_c, 6, 86, 72
2, 72240, Note_on_c, 6, 86, 0
2, 72240, Note_on_c, 6, 85, 72
2, 72480, Note_on_c, 6, 85, 0
2, 72480, Note_on_c, 6, 83, 72
2, 72720, Note_on_c, 6, 83, 0
2, 72720, Note_on_c, 6, 81, 72
2, 72912, Note_on_c, 6, 81, 0
2, 72960, Note_on_c, 6, 85, 72
2, 73020, Note_on_c, 6, 85, 0
2, 73020, Note_on_c, 6, 83, 72
2, 73080, Note_on_c, 6, 83, 0
2, 73080, Note_on_c, 6, 85, 72
2, 73140, Note_on_c, 6, 85, 0
2, 73140, Note_on_c, 6, 83, 72
2, 73200, Note_on_c, 6, 83, 0
2, 73200, Note_on_c, 6, 81, 72
2, 73392, Note_on_c, 6, 81, 0
2, 73680, Note_on_c, 6, 81, 72
2, 73836, Note_on_c, 6, 81, 0
2, 73920, Note_on_c, 6, 81, 72
2, 74076, Note_on_c, 6, 81, 0
2, 74160, Note_on_c, 6, 81, 72
2, 74316, Note_on_c, 6, 81, 0
2, 74400, Note_on_c, 6, 81, 72
2, 74556, Note_on_c, 6, 81, 0
2, 74640, Note_on_c, 6, 81, 72
2, 74796, Note_on_c, 6, 81, 0
2, 74880, Note_on_c, 6, 85, 72
2, 74940, Note_on_c, 6, 85, 0
2, 74940, Note_on_c, 6, 83, 72
2, 75000, Note_on_c, 6, 83, 0
2, 75000, Note_on_c, 6, 85, 72
2, 75060, Note_on_c, 6, 85, 0
2, 75060, Note_on_c, 6, 83, 72
2, 75120, Note_on_c, 6, 83, 0
2, 75120, Note_on_c, 6, 81, 72
2, 75312, Note_on_c, 6, 81, 0
2, 75840, Note_on_c, 6, 83, 105
2, 75840, Note_on_c, 6, 71, 105
2, 76560, Note_on_c, 6, 71, 0
2, 76560, Note_on_c, 6, 83, 0
2, 76560, Note_on_c, 6, 81, 105
2, 76640, Note_on_c, 6, 81, 0
2, 76640, Note_on_c, 6, 79, 105
2, 76720, Note_on_c, 6, 79, 0
2, 76720, Note_on_c, 6, 78, 105
2, 76800, Note_on_c, 6, 78, 0
2, 76800, Note_on_c, 6, 79, 105
2, 77184, Note_on_c, 6, 79, 0
2, 77760, Note_on_c, 6, 69, 105
2, 77760, Note_on_c, 6, 81, 105
2, 78480, Note_on_c, 6, 81, 0
2, 78480, Note_on_c, 6, 69, 0
2, 78480, Note_on_c, 6, 79, 105
2, 78560, Note_on_c, 6, 79, 0
2, 78560, Note_on_c, 6, 78, 105
2, 78640, Note_on_c, 6, 78, 0
2, 78640, Note_on_c, 6, 76, 105
2, 78720, Note_on_c, 6, 76, 0
2, 78720, Note_on_c, 6, 78, 105
2, 79104, Note_on_c, 6, 78, 0
2, 79680, Note_on_c, 6, 83, 105
2, 79920, Note_on_c, 6, 83, 0
2, 79920, Note_on_c, 6, 85, 105
2, 80040, Note_on_c, 6, 85, 0
2, 80040, Note_on_c, 6, 86, 105
2, 80160, Note_on_c, 6, 86, 0
2, 80160, Note_on_c, 6, 85, 105
2, 80304, Note_on_c, 6, 85, 0
2, 80400, Note_on_c, 6, 83, 105
2, 80544, Note_on_c, 6, 83, 0
2, 80640, Note_on_c, 6, 83, 105
2, 80880, Note_on_c, 6, 83, 0
2, 80880, Note_on_c, 6, 81, 105
2, 81036, Note_on_c, 6, 81, 0
2, 81120, Note_on_c, 6, 78, 105
2, 81276, Note_on_c, 6, 78, 0
2, 81360, Note_on_c, 6, 81, 105
2, 81516, Note_on_c, 6, 81, 0
2, 81600, Note_on_c, 6, 81, 105
2, 81840, Note_on_c, 6, 81, 0
2, 81840, Note_on_c, 6, 79, 105
2, 81996, Note_on_c, 6, 79, 0
2, 82080, Note_on_c, 6, 78, 105
2, 82236, Note_on_c, 6, 78, 0
2, 82320, Note_on_c, 6, 76, 105
2, 82476, Note_on_c, 6, 76, 0
2, 82560, Note_on_c, 6, 74, 92
2, 82944, Note_on_c, 6, 74, 0
2, 83280, Note_on_c, 6, 81, 72
2, 83472, Note_on_c, 6, 81, 0
2, 83520, Note_on_c, 6, 86, 72
2, 83760, Note_on_c, 6, 86, 0
2, 83760, Note_on_c, 6, 85, 72
2, 84000, Note_on_c, 6, 85, 0
2, 84000, Note_on_c, 6, 83, 72
2, 84240, Note_on_c, 6, 83, 0
2, 84240, Note_on_c, 6, 81, 72
2, 84432, Note_on_c, 6, 81, 0
2, 84480, Note_on_c, 6, 85, 72
2, 84540, Note_on_c, 6, 85, 0
2, 84540, Note_on_c, 6, 83, 72
2, 84600, Note_on_c, 6, 83, 0
2, 84600, Note_on_c, 6, 85, 72
2, 84660, Note_on_c, 6, 85, 0
2, 84660, Note_on_c, 6, 83, 72
2, 84720, Note_on_c, 6, 83, 0
2, 84720, Note_on_c, 6, 81, 72
2, 84912, Note_on_c, 6, 81, 0
2, 85200, Note_on_c, 6, 81, 72
2, 85356, Note_on_c, 6, 81, 0
2, 85440, Note_on_c, 6, 81, 72
2, 85596, Note_on_c, 6, 81, 0
2, 85680, Note_on_c, 6, 81, 72
2, 85836, Note_on_c, 6, 81, 0
2, 85920, Note_on_c, 6, 81, 72
2, 86076, Note_on_c, 6, 81, 0
2, 86160, Note_on_c, 6, 81, 72
2, 86316, Note_on_c, 6, 81, 0
2, 86400, Note_on_c, 6, 85, 72
2, 86460, Note_on_c, 6, 85, 0
2, 86460, Note_on_c, 6, 83, 72
2, 86520, Note_on_c, 6, 83, 0
2, 86520, Note_on_c, 6, 85, 72
2, 86580, Note_on_c, 6, 85, 0
2, 86580, Note_on_c, 6, 83, 72
2, 86640, Note_on_c, 6, 83, 0
2, 86640, Note_on_c, 6, 81, 72
2, 86832, Note_on_c, 6, 81, 0
2, 87120, Note_on_c, 6, 81, 72
2, 87312, Note_on_c, 6, 81, 0
2, 87360, Note_on_c, 6, 86, 72
2, 87600, Note_on_c, 6, 86, 0
2, 87600, Note_on_c, 6, 85, 72
2, 87840, Note_on_c, 6, 85, 0
2, 87840, Note_on_c, 6, 83, 72
2, 88080, Note_on_c, 6, 83, 0
2, 88080, Note_on_c, 6, 81, 72
2, 88272, Note_on_c, 6, 81, 0
2, 88320, Note_on_c, 6, 85, 72
2, 88380, Note_on_c, 6, 85, 0
2, 88380, Note_on_c, 6, 83, 72
2, 88440, Note_on_c, 6, 83, 0
2, 88440, Note_on_c, 6, 85, 72
2, 88500, Note_on_c, 6, 85, 0
2, 88500, Note_on_c, 6, 83, 72
2, 88560, Note_on_c, 6, 83, 0
2, 88560, Note_on_c, 6, 81, 72
2, 88752, Note_on_c, 6, 81, 0
2, 89040, Note_on_c, 6, 81, 72
2, 89196, Note_on_c, 6, 81, 0
2, 89280, Note_on_c, 6, 81, 72
2, 89436, Note_on_c, 6, 81, 0
2, 89520, Note_on_c, 6, 81, 72
2, 89676, Note_on_c, 6, 81, 0
2, 89760, Note_on_c, 6, 81, 72
2, 89916, Note_on_c, 6, 81, 0
2, 90000, Note_on_c, 6, 81, 72
2, 90156, Note_on_c, 6, 81, 0
2, 90240, Note_on_c, 6, 85, 72
2, 90300, Note_on_c, 6, 85, 0
2, 90300, Note_on_c, 6, 83, 72
2, 90360, Note_on_c, 6, 83, 0
2, 90360, Note_on_c, 6, 85, 72
2, 90420, Note_on_c, 6, 85, 0
2, 90420, Note_on_c, 6, 83, 72
2, 90480, Note_on_c, 6, 83, 0
2, 90480, Note_on_c, 6, 81, 72
2, 90672, Note_on_c, 6, 81, 0
2, 91200, Note_on_c, 6, 71, 105
2, 91200, Note_on_c, 6, 83, 105
2, 91920, Note_on_c, 6, 83, 0
2, 91920, Note_on_c, 6, 71, 0
2, 91920, Note_on_c, 6, 81, 105
2, 92000, Note_on_c, 6, 81, 0
2, 92000, Note_on_c, 6, 79, 105
2, 92080, Note_on_c, 6, 79, 0
2, 92080, Note_on_c, 6, 78, 105
2, 92160, Note_on_c, 6, 78, 0
2, 92160, Note_on_c, 6, 79, 105
2, 92544, Note_on_c, 6, 79, 0
2, 93120, Note_on_c, 6, 69, 105
2, 93120, Note_on_c, 6, 81, 105
2, 93840, Note_on_c, 6, 81, 0
2, 93840, Note_on_c, 6, 69, 0
2, 93840, Note_on_c, 6, 79, 105
2, 93920, Note_on_c, 6, 79, 0
2, 93920, Note_on_c, 6, 78, 105
2, 94000, Note_on_c, 6, 78, 0
2, 94000, Note_on_c, 6, 76, 105
2, 94080, Note_on_c, 6, 76, 0
2, 94080, Note_on_c, 6, 78, 105
2, 94464, Note_on_c, 6, 78, 0
2, 95040, Note_on_c, 6, 83, 105
2, 95280, Note_on_c, 6, 83, 0
2, 95280, Note_on_c, 6, 85, 105
2, 95400, Note_on_c, 6, 85, 0
2, 95400, Note_on_c, 6, 86, 105
2, 95520, Note_on_c, 6, 86, 0
2, 95520, Note_on_c, 6, 85, 105
2, 95664, Note_on_c, 6, 85, 0
2, 95760, Note_on_c, 6, 83, 105
2, 95904, Note_on_c, 6, 83, 0
2, 96000, Note_on_c, 6, 83, 105
2, 96240, Note_on_c, 6, 83, 0
2, 96240, Note_on_c, 6, 81, 105
2, 96396, Note_on_c, 6, 81, 0
2, 96480, Note_on_c, 6, 78, 105
2, 96636, Note_on_c, 6, 78, 0
2, 96720, Note_on_c, 6, 81, 105
2, 96876, Note_on_c, 6, 81, 0
2, 96960, Note_on_c, 6, 81, 105
2, 97200, Note_on_c, 6, 81, 0
2, 97200, Note_on_c, 6, 79, 105
2, 97356, Note_on_c, 6, 79, 0
2, 97440, Note_on_c, 6, 78, 105
2, 97596, Note_on_c, 6, 78, 0
2, 97680, Note_on_c, 6, 76, 105
2, 97836, Note_on_c, 6, 76, 0
2, 97920, Note_on_c, 6, 74, 105
2, 98064, Note_on_c, 6, 74, 0
2, 98160, Note_on_c, 6, 69, 105
2, 98304, Note_on_c, 6, 69, 0
2, 98400, Note_on_c, 6, 71, 105
2, 98544, Note_on_c, 6, 71, 0
2, 98640, Note_on_c, 6, 73, 105
2, 98784, Note_on_c, 6, 73, 0
2, 98880, Note_on_c, 6, 74, 105
2, 99024, Note_on_c, 6, 74, 0
2, 99120, Note_on_c, 6, 74, 105
2, 99264, Note_on_c, 6, 74, 0
2, 99360, Note_on_c, 6, 78, 105
2, 99420, Note_on_c, 6, 78, 0
2, 99420, Note_on_c, 6, 76, 105
2, 99480, Note_on_c, 6, 76, 0
2, 99480, Note_on_c, 6, 78, 105
2, 99540, Note_on_c, 6, 78, 0
2, 99540, Note_on_c, 6, 76, 105
2, 99600, Note_on_c, 6, 76, 0
2, 99600, Note_on_c, 6, 74, 105
2, 99720, Note_on_c, 6, 74, 0
2, 99720, Note_on_c, 6, 76, 105
2, 99840, Note_on_c, 6, 76, 0
2, 99840, Note_on_c, 6, 78, 105
2, 99984, Note_on_c, 6, 78, 0
2, 100080, Note_on_c, 6, 73, 105
2, 100224, Note_on_c, 6, 73, 0
2, 100320, Note_on_c, 6, 74, 105
2, 100464, Note_on_c, 6, 74, 0
2, 100560, Note_on_c, 6, 76, 105
2, 100704, Note_on_c, 6, 76, 0
2, 100800, Note_on_c, 6, 78, 105
2, 100944, Note_on_c, 6, 78, 0
2, 101040, Note_on_c, 6, 78, 105
2, 101184, Note_on_c, 6, 78, 0
2, 101280, Note_on_c, 6, 81, 105
2, 101340, Note_on_c, 6, 81, 0
2, 101340, Note_on_c, 6, 79, 105
2, 101400, Note_on_c, 6, 79, 0
2, 101400, Note_on_c, 6, 81, 105
2, 101460, Note_on_c, 6, 81, 0
2, 101460, Note_on_c, 6, 79, 105
2, 101520, Note_on_c, 6, 79, 0
2, 101520, Note_on_c, 6, 78, 105
2, 101640, Note_on_c, 6, 78, 0
2, 101640, Note_on_c, 6, 79, 105
2, 101760, Note_on_c, 6, 79, 0
2, 101760, Note_on_c, 6, 81, 105
2, 101904, Note_on_c, 6, 81, 0
2, 102000, Note_on_c, 6, 81, 105
2, 102144, Note_on_c, 6, 81, 0
2, 102240, Note_on_c, 6, 83, 105
2, 102300, Note_on_c, 6, 83, 0
2, 102300, Note_on_c, 6, 82, 105
2, 102360, Note_on_c, 6, 82, 0
2, 102360, Note_on_c, 6, 83, 105
2, 102420, Note_on_c, 6, 83, 0
2, 102420, Note_on_c, 6, 82, 105
2, 102480, Note_on_c, 6, 82, 0
2, 102480, Note_on_c, 6, 80, 105
2, 102600, Note_on_c, 6, 80, 0
2, 102600, Note_on_c, 6, 82, 105
2, 102720, Note_on_c, 6, 82, 0
2, 102720, Note_on_c, 6, 83, 92
2, 103104, Note_on_c, 6, 83, 0
2, 103680, Note_on_c, 6, 71, 72
2, 104400, Note_on_c, 6, 71, 0
2, 104400, Note_on_c, 6, 76, 72
2, 104592, Note_on_c, 6, 76, 0
2, 104640, Note_on_c, 6, 74, 72
2, 104880, Note_on_c, 6, 74, 0
2, 104880, Note_on_c, 6, 73, 72
2, 105120, Note_on_c, 6, 73, 0
2, 105120, Note_on_c, 6, 71, 72
2, 105360, Note_on_c, 6, 71, 0
2, 105360, Note_on_c, 6, 69, 72
2, 105552, Note_on_c, 6, 69, 0
2, 105600, Note_on_c, 6, 74, 72
2, 105792, Note_on_c, 6, 74, 0
2, 106080, Note_on_c, 6, 78, 72
2, 106272, Note_on_c, 6, 78, 0
2, 106560, Note_on_c, 6, 74, 58
2, 106752, Note_on_c, 6, 74, 0
2, 107520, Note_on_c, 6, 71, 105
2, 107520, Note_on_c, 6, 79, 105
2, 107520, Note_on_c, 6, 62, 105
2, 107904, Note_on_c, 6, 62, 0
2, 107904, Note_on_c, 6, 79, 0
2, 107904, Note_on_c, 6, 71, 0
2, 108240, Note_on_c, 6, 74, 105
2, 108384, Note_on_c, 6, 74, 0
2, 108480, Note_on_c, 6, 79, 105
2, 108864, Note_on_c, 6, 79, 0
2, 109200, Note_on_c, 6, 74, 105
2, 109344, Note_on_c, 6, 74, 0
2, 109440, Note_on_c, 6, 79, 105
2, 109584, Note_on_c, 6, 79, 0
2, 109680, Note_on_c, 6, 74, 105
2, 109824, Note_on_c, 6, 74, 0
2, 109920, Note_on_c, 6, 79, 105
2, 110064, Note_on_c, 6, 79, 0
2, 110160, Note_on_c, 6, 83, 105
2, 110304, Note_on_c, 6, 83, 0
2, 110400, Note_on_c, 6, 86, 105
2, 110784, Note_on_c, 6, 86, 0
2, 111360, Note_on_c, 6, 84, 105
2, 111744, Note_on_c, 6, 84, 0
2, 112080, Note_on_c, 6, 81, 105
2, 112224, Note_on_c, 6, 81, 0
2, 112320, Note_on_c, 6, 84, 105
2, 112704, Note_on_c, 6, 84, 0
2, 113040, Note_on_c, 6, 81, 105
2, 113184, Note_on_c, 6, 81, 0
2, 113280, Note_on_c, 6, 84, 105
2, 113424, Note_on_c, 6, 84, 0
2, 113520, Note_on_c, 6, 81, 105
2, 113664, Note_on_c, 6, 81, 0
2, 113760, Note_on_c, 6, 78, 105
2, 113904, Note_on_c, 6, 78, 0
2, 114000, Note_on_c, 6, 81, 105
2, 114144, Note_on_c, 6, 81, 0
2, 114240, Note_on_c, 6, 74, 105
2, 114624, Note_on_c, 6, 74, 0
2, 115200, Note_on_c, 6, 79, 116
2, 115200, Note_on_c, 6, 71, 116
2, 115200, Note_on_c, 6, 62, 116
2, 115344, Note_on_c, 6, 79, 0
2, 115392, Note_on_c, 6, 62, 0
2, 115392, Note_on_c, 6, 71, 0
2, 115680, Note_on_c, 6, 79, 116
2, 116256, Note_on_c, 6, 79, 0
2, 116400, Note_on_c, 6, 83, 116
2, 116640, Note_on_c, 6, 83, 0
2, 116640, Note_on_c, 6, 81, 116
2, 116784, Note_on_c, 6, 81, 0
2, 116880, Note_on_c, 6, 79, 116
2, 117024, Note_on_c, 6, 79, 0
2, 117120, Note_on_c, 6, 81, 116
2, 117180, Note_on_c, 6, 81, 0
2, 117180, Note_on_c, 6, 79, 116
2, 117240, Note_on_c, 6, 79, 0
2, 117240, Note_on_c, 6, 81, 116
2, 117300, Note_on_c, 6, 81, 0
2, 117300, Note_on_c, 6, 79, 116
2, 117360, Note_on_c, 6, 79, 0
2, 117360, Note_on_c, 6, 78, 116
2, 117504, Note_on_c, 6, 78, 0
2, 117600, Note_on_c, 6, 78, 116
2, 118176, Note_on_c, 6, 78, 0
2, 118320, Note_on_c, 6, 81, 116
2, 118560, Note_on_c, 6, 81, 0
2, 118560, Note_on_c, 6, 84, 116
2, 118704, Note_on_c, 6, 84, 0
2, 118800, Note_on_c, 6, 78, 116
2, 118944, Note_on_c, 6, 78, 0
2, 119040, Note_on_c, 6, 81, 116
2, 119280, Note_on_c, 6, 81, 0
2, 119280, Note_on_c, 6, 79, 116
2, 119424, Note_on_c, 6, 79, 0
2, 119520, Note_on_c, 6, 79, 116
2, 120096, Note_on_c, 6, 79, 0
2, 120240, Note_on_c, 6, 83, 116
2, 120480, Note_on_c, 6, 83, 0
2, 120480, Note_on_c, 6, 81, 116
2, 120624, Note_on_c, 6, 81, 0
2, 120720, Note_on_c, 6, 79, 116
2, 120864, Note_on_c, 6, 79, 0
2, 120960, Note_on_c, 6, 81, 116
2, 121020, Note_on_c, 6, 81, 0
2, 121020, Note_on_c, 6, 79, 116
2, 121080, Note_on_c, 6, 79, 0
2, 121080, Note_on_c, 6, 81, 116
2, 121140, Note_on_c, 6, 81, 0
2, 121140, Note_on_c, 6, 79, 116
2, 121200, Note_on_c, 6, 79, 0
2, 121200, Note_on_c, 6, 78, 116
2, 121344, Note_on_c, 6, 78, 0
2, 121440, Note_on_c, 6, 78, 116
2, 122016, Note_on_c, 6, 78, 0
2, 122160, Note_on_c, 6, 81, 116
2, 122400, Note_on_c, 6, 81, 0
2, 122400, Note_on_c, 6, 84, 116
2, 122544, Note_on_c, 6, 84, 0
2, 122640, Note_on_c, 6, 78, 116
2, 122784, Note_on_c, 6, 78, 0
2, 122880, Note_on_c, 6, 79, 116
2, 123024, Note_on_c, 6, 79, 0
2, 123120, Note_on_c, 6, 79, 116
2, 123264, Note_on_c, 6, 79, 0
2, 123360, Note_on_c, 6, 79, 116
2, 123480, Note_on_c, 6, 79, 0
2, 123480, Note_on_c, 6, 78, 116
2, 123600, Note_on_c, 6, 78, 0
2, 123600, Note_on_c, 6, 76, 116
2, 123720, Note_on_c, 6, 76, 0
2, 123720, Note_on_c, 6, 78, 116
2, 123840, Note_on_c, 6, 78, 0
2, 123840, Note_on_c, 6, 79, 116
2, 123984, Note_on_c, 6, 79, 0
2, 124080, Note_on_c, 6, 79, 116
2, 124224, Note_on_c, 6, 79, 0
2, 124320, Note_on_c, 6, 83, 116
2, 124440, Note_on_c, 6, 83, 0
2, 124440, Note_on_c, 6, 81, 116
2, 124560, Note_on_c, 6, 81, 0
2, 124560, Note_on_c, 6, 79, 116
2, 124680, Note_on_c, 6, 79, 0
2, 124680, Note_on_c, 6, 81, 116
2, 124776, Note_on_c, 6, 81, 0
2, 124800, Note_on_c, 6, 83, 116
2, 124944, Note_on_c, 6, 83, 0
2, 125040, Note_on_c, 6, 83, 116
2, 125184, Note_on_c, 6, 83, 0
2, 125280, Note_on_c, 6, 86, 116
2, 125400, Note_on_c, 6, 86, 0
2, 125400, Note_on_c, 6, 84, 116
2, 125520, Note_on_c, 6, 84, 0
2, 125520, Note_on_c, 6, 83, 116
2, 125640, Note_on_c, 6, 83, 0
2, 125640, Note_on_c, 6, 84, 116
2, 125736, Note_on_c, 6, 84, 0
2, 125760, Note_on_c, 6, 86, 92
2, 126144, Note_on_c, 6, 86, 0
2, 126720, Note_on_c, 6, 74, 72
2, 127680, Note_on_c, 6, 74, 0
2, 127680, Note_on_c, 6, 76, 72
2, 128448, Note_on_c, 6, 76, 0
2, 128640, Note_on_c, 6, 74, 72
2, 128760, Note_on_c, 6, 74, 0
2, 128760, Note_on_c, 6, 72, 72
2, 128994, Note_on_c, 6, 72, 0
2, 129120, Note_on_c, 6, 72, 72
2, 129432, Note_on_c, 6, 72, 0
2, 129600, Note_on_c, 6, 72, 72
2, 129720, Note_on_c, 6, 72, 0
2, 129720, Note_on_c, 6, 71, 72
2, 129954, Note_on_c, 6, 71, 0
2, 130080, Note_on_c, 6, 71, 72
2, 130392, Note_on_c, 6, 71, 0
2, 130560, Note_on_c, 6, 71, 72
2, 130680, Note_on_c, 6, 71, 0
2, 130680, Note_on_c, 6, 69, 72
2, 130914, Note_on_c, 6, 69, 0
2, 131040, Note_on_c, 6, 69, 72
2, 131352, Note_on_c, 6, 69, 0
2, 131520, Note_on_c, 6, 67, 72
2, 131760, Note_on_c, 6, 67, 0
2, 131760, Note_on_c, 6, 66, 72
2, 131916, Note_on_c, 6, 66, 0
2, 132000, Note_on_c, 6, 64, 72
2, 132156, Note_on_c, 6, 64, 0
2, 132240, Note_on_c, 6, 66, 72
2, 132396, Note_on_c, 6, 66, 0
2, 132480, Note_on_c, 6, 67, 72
2, 132672, Note_on_c, 6, 67, 0
2, 132960, Note_on_c, 6, 69, 72
2, 133152, Note_on_c, 6, 69, 0
2, 133440, Note_on_c, 6, 71, 58
2, 133632, Note_on_c, 6, 71, 0
2, 134400, Note_on_c, 6, 74, 72
2, 135360, Note_on_c, 6, 74, 0
2, 135360, Note_on_c, 6, 76, 72
2, 136128, Note_on_c, 6, 76, 0
2, 136320, Note_on_c, 6, 74, 72
2, 136560, Note_on_c, 6, 74, 0
2, 136560, Note_on_c, 6, 72, 72
2, 136716, Note_on_c, 6, 72, 0
2, 136800, Note_on_c, 6, 72, 72
2, 136956, Note_on_c, 6, 72, 0
2, 137040, Note_on_c, 6, 72, 72
2, 137196, Note_on_c, 6, 72, 0
2, 137280, Note_on_c, 6, 72, 72
2, 137520, Note_on_c, 6, 72, 0
2, 137520, Note_on_c, 6, 71, 72
2, 137676, Note_on_c, 6, 71, 0
2, 137760, Note_on_c, 6, 71, 72
2, 137916, Note_on_c, 6, 71, 0
2, 138000, Note_on_c, 6, 71, 72
2, 138156, Note_on_c, 6, 71, 0
2, 138240, Note_on_c, 6, 71, 72
2, 138480, Note_on_c, 6, 71, 0
2, 138480, Note_on_c, 6, 69, 72
2, 138636, Note_on_c, 6, 69, 0
2, 138720, Note_on_c, 6, 69, 72
2, 138876, Note_on_c, 6, 69, 0
2, 138960, Note_on_c, 6, 69, 72
2, 139116, Note_on_c, 6, 69, 0
2, 139200, Note_on_c, 6, 67, 72
2, 139440, Note_on_c, 6, 67, 0
2, 139440, Note_on_c, 6, 66, 72
2, 139680, Note_on_c, 6, 66, 0
2, 139680, Note_on_c, 6, 64, 72
2, 139920, Note_on_c, 6, 64, 0
2, 139920, Note_on_c, 6, 66, 72
2, 140076, Note_on_c, 6, 66, 0
2, 140160, Note_on_c, 6, 67, 121
2, 140160, Note_on_c, 6, 55, 81
2, 141312, Note_on_c, 6, 55, 0
2, 141312, Note_on_c, 6, 67, 0
2, 141360, Note_on_c, 6, 69, 72
2, 141420, Note_on_c, 6, 69, 0
2, 141420, Note_on_c, 6, 67, 72
2, 141480, Note_on_c, 6, 67, 0
2, 141480, Note_on_c, 6, 66, 72
2, 141540, Note_on_c, 6, 66, 0
2, 141540, Note_on_c, 6, 67, 72
2, 141600, Note_on_c, 6, 67, 0
2, 141600, Note_on_c, 6, 69, 72
2, 141840, Note_on_c, 6, 69, 0
2, 141840, Note_on_c, 6, 66, 72
2, 142032, Note_on_c, 6, 66, 0
2, 142080, Note_on_c, 6, 71, 121
2, 143232, Note_on_c, 6, 71, 0
2, 143280, Note_on_c, 6, 72, 72
2, 143340, Note_on_c, 6, 72, 0
2, 143340, Note_on_c, 6, 71, 72
2, 143400, Note_on_c, 6, 71, 0
2, 143400, Note_on_c, 6, 69, 72
2, 143460, Note_on_c, 6, 69, 0
2, 143460, Note_on_c, 6, 71, 72
2, 143520, Note_on_c, 6, 71, 0
2, 143520, Note_on_c, 6, 72, 72
2, 143760, Note_on_c, 6, 72, 0
2, 143760, Note_on_c, 6, 69, 72
2, 143952, Note_on_c, 6, 69, 0
2, 144000, Note_on_c, 6, 74, 72
2, 144096, Note_on_c, 6, 74, 0
2, 144120, Note_on_c, 6, 74, 72
2, 144216, Note_on_c, 6, 74, 0
2, 144240, Note_on_c, 6, 74, 72
2, 144336, Note_on_c, 6, 74, 0
2, 144360, Note_on_c, 6, 74, 72
2, 144456, Note_on_c, 6, 74, 0
2, 144480, Note_on_c, 6, 74, 72
2, 144576, Note_on_c, 6, 74, 0
2, 144600, Note_on_c, 6, 74, 72
2, 144696, Note_on_c, 6, 74, 0
2, 144720, Note_on_c, 6, 74, 72
2, 144816, Note_on_c, 6, 74, 0
2, 144840, Note_on_c, 6, 74, 72
2, 144936, Note_on_c, 6, 74, 0
2, 144960, Note_on_c, 6, 76, 81
2, 145056, Note_on_c, 6, 76, 0
2, 145080, Note_on_c, 6, 76, 81
2, 145176, Note_on_c, 6, 76, 0
2, 145200, Note_on_c, 6, 76, 81
2, 145296, Note_on_c, 6, 76, 0
2, 145320, Note_on_c, 6, 76, 81
2, 145416, Note_on_c, 6, 76, 0
2, 145440, Note_on_c, 6, 78, 81
2, 145536, Note_on_c, 6, 78, 0
2, 145560, Note_on_c, 6, 78, 81
2, 145656, Note_on_c, 6, 78, 0
2, 145680, Note_on_c, 6, 78, 81
2, 145776, Note_on_c, 6, 78, 0
2, 145800, Note_on_c, 6, 78, 81
2, 145896, Note_on_c, 6, 78, 0
2, 145920, Note_on_c, 6, 79, 92
2, 146016, Note_on_c, 6, 79, 0
2, 146040, Note_on_c, 6, 79, 92
2, 146136, Note_on_c, 6, 79, 0
2, 146160, Note_on_c, 6, 79, 92
2, 146256, Note_on_c, 6, 79, 0
2, 146280, Note_on_c, 6, 79, 92
2, 146376, Note_on_c, 6, 79, 0
2, 146400, Note_on_c, 6, 81, 92
2, 146496, Note_on_c, 6, 81, 0
2, 146520, Note_on_c, 6, 81, 92
2, 146616, Note_on_c, 6, 81, 0
2, 146640, Note_on_c, 6, 81, 92
2, 146736, Note_on_c, 6, 81, 0
2, 146760, Note_on_c, 6, 81, 105
2, 146856, Note_on_c, 6, 81, 0
2, 146880, Note_on_c, 6, 83, 105
2, 146976, Note_on_c, 6, 83, 0
2, 147000, Note_on_c, 6, 83, 105
2, 147096, Note_on_c, 6, 83, 0
2, 147120, Note_on_c, 6, 83, 105
2, 147216, Note_on_c, 6, 83, 0
2, 147240, Note_on_c, 6, 83, 105
2, 147336, Note_on_c, 6, 83, 0
2, 147360, Note_on_c, 6, 85, 105
2, 147456, Note_on_c, 6, 85, 0
2, 147480, Note_on_c, 6, 85, 116
2, 147576, Note_on_c, 6, 85, 0
2, 147600, Note_on_c, 6, 85, 116
2, 147696, Note_on_c, 6, 85, 0
2, 147720, Note_on_c, 6, 85, 116
2, 147816, Note_on_c, 6, 85, 0
2, 147840, Note_on_c, 6, 86, 127
2, 148560, Note_on_c, 6, 86, 0
2, 148560, Note_on_c, 6, 81, 116
2, 148752, Note_on_c, 6, 81, 0
2, 148800, Note_on_c, 6, 85, 116
2, 149160, Note_on_c, 6, 85, 0
2, 149160, Note_on_c, 6, 81, 116
2, 149256, Note_on_c, 6, 81, 0
2, 149280, Note_on_c, 6, 85, 116
2, 149640, Note_on_c, 6, 85, 0
2, 149640, Note_on_c, 6, 81, 116
2, 149736, Note_on_c, 6, 81, 0
2, 149760, Note_on_c, 6, 86, 127
2, 150480, Note_on_c, 6, 86, 0
2, 150480, Note_on_c, 6, 81, 116
2, 150672, Note_on_c, 6, 81, 0
2, 150720, Note_on_c, 6, 85, 116
2, 151080, Note_on_c, 6, 85, 0
2, 151080, Note_on_c, 6, 81, 116
2, 151176, Note_on_c, 6, 81, 0
2, 151200, Note_on_c, 6, 85, 116
2, 151560, Note_on_c, 6, 85, 0
2, 151560, Note_on_c, 6, 81, 116
2, 151656, Note_on_c, 6, 81, 0
2, 151680, Note_on_c, 6, 86, 116
2, 151824, Note_on_c, 6, 86, 0
2, 151920, Note_on_c, 6, 86, 116
2, 151920, Note_on_c, 6, 78, 116
2, 152304, Note_on_c, 6, 78, 0
2, 152304, Note_on_c, 6, 86, 0
2, 152400, Note_on_c, 6, 78, 116
2, 152400, Note_on_c, 6, 86, 116
2, 152784, Note_on_c, 6, 86, 0
2, 152784, Note_on_c, 6, 78, 0
2, 152880, Note_on_c, 6, 78, 116
2, 152880, Note_on_c, 6, 86, 116
2, 153264, Note_on_c, 6, 86, 0
2, 153264, Note_on_c, 6, 78, 0
2, 153360, Note_on_c, 6, 86, 116
2, 153360, Note_on_c, 6, 78, 116
2, 153600, Note_on_c, 6, 78, 0
2, 153600, Note_on_c, 6, 76, 116
2, 153792, Note_on_c, 6, 76, 0
2, 153792, Note_on_c, 6, 86, 0
2, 153840, Note_on_c, 6, 86, 116
2, 153840, Note_on_c, 6, 76, 116
2, 154224, Note_on_c, 6, 76, 0
2, 154224, Note_on_c, 6, 86, 0
2, 154320, Note_on_c, 6, 76, 116
2, 154320, Note_on_c, 6, 86, 116
2, 154704, Note_on_c, 6, 86, 0
2, 154704, Note_on_c, 6, 76, 0
2, 154800, Note_on_c, 6, 86, 116
2, 154800, Note_on_c, 6, 76, 116
2, 155184, Note_on_c, 6, 76, 0
2, 155184, Note_on_c, 6, 86, 0
2, 155280, Note_on_c, 6, 86, 116
2, 155280, Note_on_c, 6, 76, 116
2, 155424, Note_on_c, 6, 76, 0
2, 155424, Note_on_c, 6, 86, 0
2, 155520, Note_on_c, 6, 85, 116
2, 155520, Note_on_c, 6, 76, 116
2, 155664, Note_on_c, 6, 76, 0
2, 155664, Note_on_c, 6, 85, 0
2, 155760, Note_on_c, 6, 81, 116
2, 155904, Note_on_c, 6, 81, 0
2, 156000, Note_on_c, 6, 86, 116
2, 156144, Note_on_c, 6, 86, 0
2, 156240, Note_on_c, 6, 81, 116
2, 156384, Note_on_c, 6, 81, 0
2, 156480, Note_on_c, 6, 85, 116
2, 156624, Note_on_c, 6, 85, 0
2, 156720, Note_on_c, 6, 81, 116
2, 156864, Note_on_c, 6, 81, 0
2, 156960, Note_on_c, 6, 86, 116
2, 157104, Note_on_c, 6, 86, 0
2, 157200, Note_on_c, 6, 81, 116
2, 157344, Note_on_c, 6, 81, 0
2, 157440, Note_on_c, 6, 85, 116
2, 157584, Note_on_c, 6, 85, 0
2, 157680, Note_on_c, 6, 69, 116
2, 157824, Note_on_c, 6, 69, 0
2, 157920, Note_on_c, 6, 69, 116
2, 158064, Note_on_c, 6, 69, 0
2, 158160, Note_on_c, 6, 69, 116
2, 158304, Note_on_c, 6, 69, 0
2, 158400, Note_on_c, 6, 69, 116
2, 158784, Note_on_c, 6, 69, 0
2, 159360, Note_on_c, 6, 81, 72
2, 160080, Note_on_c, 6, 81, 0
2, 160080, Note_on_c, 6, 79, 72
2, 160160, Note_on_c, 6, 79, 0
2, 160160, Note_on_c, 6, 78, 72
2, 160240, Note_on_c, 6, 78, 0
2, 160240, Note_on_c, 6, 76, 72
2, 160320, Note_on_c, 6, 76, 0
2, 160320, Note_on_c, 6, 74, 72
2, 160476, Note_on_c, 6, 74, 0
2, 160800, Note_on_c, 6, 83, 72
2, 160956, Note_on_c, 6, 83, 0
2, 161280, Note_on_c, 6, 79, 72
2, 161436, Note_on_c, 6, 79, 0
2, 161760, Note_on_c, 6, 76, 72
2, 161916, Note_on_c, 6, 76, 0
2, 162240, Note_on_c, 6, 81, 72
2, 162396, Note_on_c, 6, 81, 0
2, 163200, Note_on_c, 6, 78, 72
2, 163920, Note_on_c, 6, 78, 0
2, 163920, Note_on_c, 6, 76, 72
2, 164000, Note_on_c, 6, 76, 0
2, 164000, Note_on_c, 6, 74, 72
2, 164080, Note_on_c, 6, 74, 0
2, 164080, Note_on_c, 6, 73, 72
2, 164160, Note_on_c, 6, 73, 0
2, 164160, Note_on_c, 6, 71, 72
2, 164316, Note_on_c, 6, 71, 0
2, 164640, Note_on_c, 6, 79, 72
2, 164796, Note_on_c, 6, 79, 0
2, 165120, Note_on_c, 6, 78, 72
2, 166080, Note_on_c, 6, 78, 0
2, 166080, Note_on_c, 6, 76, 72
2, 166464, Note_on_c, 6, 76, 0
2, 167280, Note_on_c, 6, 81, 72
2, 167424, Note_on_c, 6, 81, 0
2, 167520, Note_on_c, 6, 81, 58
2, 167664, Note_on_c, 6, 81, 0
2, 167760, Note_on_c, 6, 81, 58
2, 167904, Note_on_c, 6, 81, 0
2, 168000, Note_on_c, 6, 81, 58
2, 168144, Note_on_c, 6, 81, 0
2, 168240, Note_on_c, 6, 81, 58
2, 168384, Note_on_c, 6, 81, 0
2, 168480, Note_on_c, 6, 81, 58
2, 168624, Note_on_c, 6, 81, 0
2, 168720, Note_on_c, 6, 81, 58
2, 168864, Note_on_c, 6, 81, 0
2, 168960, Note_on_c, 6, 81, 58
2, 169104, Note_on_c, 6, 81, 0
2, 169200, Note_on_c, 6, 81, 58
2, 169344, Note_on_c, 6, 81, 0
2, 169440, Note_on_c, 6, 81, 58
2, 169584, Note_on_c, 6, 81, 0
2, 169680, Note_on_c, 6, 81, 58
2, 169824, Note_on_c, 6, 81, 0
2, 169920, Note_on_c, 6, 81, 58
2, 170064, Note_on_c, 6, 81, 0
2, 170160, Note_on_c, 6, 81, 58
2, 170304, Note_on_c, 6, 81, 0
2, 170400, Note_on_c, 6, 83, 58
2, 170544, Note_on_c, 6, 83, 0
2, 170640, Note_on_c, 6, 85, 58
2, 170784, Note_on_c, 6, 85, 0
2, 170880, Note_on_c, 6, 85, 72
2, 171120, Note_on_c, 6, 85, 0
2, 171120, Note_on_c, 6, 86, 72
2, 171264, Note_on_c, 6, 86, 0
2, 171600, Note_on_c, 6, 83, 72
2, 171744, Note_on_c, 6, 83, 0
2, 171840, Note_on_c, 6, 83, 72
2, 172080, Note_on_c, 6, 83, 0
2, 172080, Note_on_c, 6, 81, 72
2, 172272, Note_on_c, 6, 81, 0
2, 172560, Note_on_c, 6, 73, 72
2, 172704, Note_on_c, 6, 73, 0
2, 172800, Note_on_c, 6, 74, 72
2, 173184, Note_on_c, 6, 74, 0
2, 173520, Note_on_c, 6, 81, 72
2, 173712, Note_on_c, 6, 81, 0
2, 173760, Note_on_c, 6, 86, 72
2, 174000, Note_on_c, 6, 86, 0
2, 174000, Note_on_c, 6, 85, 72
2, 174240, Note_on_c, 6, 85, 0
2, 174240, Note_on_c, 6, 83, 72
2, 174480, Note_on_c, 6, 83, 0
2, 174480, Note_on_c, 6, 81, 72
2, 174672, Note_on_c, 6, 81, 0
2, 174720, Note_on_c, 6, 85, 72
2, 174780, Note_on_c, 6, 85, 0
2, 174780, Note_on_c, 6, 83, 72
2, 174840, Note_on_c, 6, 83, 0
2, 174840, Note_on_c, 6, 85, 72
2, 174900, Note_on_c, 6, 85, 0
2, 174900, Note_on_c, 6, 83, 72
2, 174960, Note_on_c, 6, 83, 0
2, 174960, Note_on_c, 6, 81, 72
2, 175152, Note_on_c, 6, 81, 0
2, 175440, Note_on_c, 6, 81, 72
2, 175596, Note_on_c, 6, 81, 0
2, 175680, Note_on_c, 6, 81, 72
2, 175836, Note_on_c, 6, 81, 0
2, 175920, Note_on_c, 6, 81, 72
2, 176076, Note_on_c, 6, 81, 0
2, 176160, Note_on_c, 6, 81, 72
2, 176316, Note_on_c, 6, 81, 0
2, 176400, Note_on_c, 6, 81, 72
2, 176556, Note_on_c, 6, 81, 0
2, 176640, Note_on_c, 6, 85, 72
2, 176700, Note_on_c, 6, 85, 0
2, 176700, Note_on_c, 6, 83, 72
2, 176760, Note_on_c, 6, 83, 0
2, 176760, Note_on_c, 6, 85, 72
2, 176820, Note_on_c, 6, 85, 0
2, 176820, Note_on_c, 6, 83, 72
2, 176880, Note_on_c, 6, 83, 0
2, 176880, Note_on_c, 6, 81, 72
2, 177072, Note_on_c, 6, 81, 0
2, 177360, Note_on_c, 6, 81, 72
2, 177552, Note_on_c, 6, 81, 0
2, 177600, Note_on_c, 6, 86, 72
2, 177840, Note_on_c, 6, 86, 0
2, 177840, Note_on_c, 6, 85, 72
2, 178080, Note_on_c, 6, 85, 0
2, 178080, Note_on_c, 6, 83, 72
2, 178320, Note_on_c, 6, 83, 0
2, 178320, Note_on_c, 6, 81, 72
2, 178512, Note_on_c, 6, 81, 0
2, 178560, Note_on_c, 6, 85, 72
2, 178620, Note_on_c, 6, 85, 0
2, 178620, Note_on_c, 6, 83, 72
2, 178680, Note_on_c, 6, 83, 0
2, 178680, Note_on_c, 6, 85, 72
2, 178740, Note_on_c, 6, 85, 0
2, 178740, Note_on_c, 6, 83, 72
2, 178800, Note_on_c, 6, 83, 0
2, 178800, Note_on_c, 6, 81, 72
2, 178992, Note_on_c, 6, 81, 0
2, 179280, Note_on_c, 6, 81, 72
2, 179436, Note_on_c, 6, 81, 0
2, 179520, Note_on_c, 6, 81, 72
2, 179676, Note_on_c, 6, 81, 0
2, 179760, Note_on_c, 6, 81, 72
2, 179916, Note_on_c, 6, 81, 0
2, 180000, Note_on_c, 6, 81, 72
2, 180156, Note_on_c, 6, 81, 0
2, 180240, Note_on_c, 6, 81, 72
2, 180396, Note_on_c, 6, 81, 0
2, 180480, Note_on_c, 6, 85, 72
2, 180540, Note_on_c, 6, 85, 0
2, 180540, Note_on_c, 6, 83, 72
2, 180600, Note_on_c, 6, 83, 0
2, 180600, Note_on_c, 6, 85, 72
2, 180660, Note_on_c, 6, 85, 0
2, 180660, Note_on_c, 6, 83, 72
2, 180720, Note_on_c, 6, 83, 0
2, 180720, Note_on_c, 6, 81, 72
2, 180912, Note_on_c, 6, 81, 0
2, 181440, Note_on_c, 6, 83, 105
2, 181440, Note_on_c, 6, 71, 105
2, 182160, Note_on_c, 6, 71, 0
2, 182160, Note_on_c, 6, 83, 0
2, 182160, Note_on_c, 6, 81, 105
2, 182240, Note_on_c, 6, 81, 0
2, 182240, Note_on_c, 6, 79, 105
2, 182320, Note_on_c, 6, 79, 0
2, 182320, Note_on_c, 6, 78, 105
2, 182400, Note_on_c, 6, 78, 0
2, 182400, Note_on_c, 6, 79, 105
2, 182784, Note_on_c, 6, 79, 0
2, 183360, Note_on_c, 6, 69, 105
2, 183360, Note_on_c, 6, 81, 105
2, 184080, Note_on_c, 6, 81, 0
2, 184080, Note_on_c, 6, 69, 0
2, 184080, Note_on_c, 6, 79, 105
2, 184160, Note_on_c, 6, 79, 0
2, 184160, Note_on_c, 6, 78, 105
2, 184240, Note_on_c, 6, 78, 0
2, 184240, Note_on_c, 6, 76, 105
2, 184320, Note_on_c, 6, 76, 0
2, 184320, Note_on_c, 6, 78, 105
2, 184704, Note_on_c, 6, 78, 0
2, 185280, Note_on_c, 6, 83, 105
2, 185520, Note_on_c, 6, 83, 0
2, 185520, Note_on_c, 6, 85, 105
2, 185640, Note_on_c, 6, 85, 0
2, 185640, Note_on_c, 6, 86, 105
2, 185760, Note_on_c, 6, 86, 0
2, 185760, Note_on_c, 6, 85, 105
2, 185904, Note_on_c, 6, 85, 0
2, 186000, Note_on_c, 6, 83, 105
2, 186144, Note_on_c, 6, 83, 0
2, 186240, Note_on_c, 6, 83, 105
2, 186480, Note_on_c, 6, 83, 0
2, 186480, Note_on_c, 6, 81, 105
2, 186636, Note_on_c, 6, 81, 0
2, 186720, Note_on_c, 6, 78, 105
2, 186876, Note_on_c, 6, 78, 0
2, 186960, Note_on_c, 6, 81, 105
2, 187116, Note_on_c, 6, 81, 0
2, 187200, Note_on_c, 6, 81, 105
2, 187440, Note_on_c, 6, 81, 0
2, 187440, Note_on_c, 6, 79, 105
2, 187596, Note_on_c, 6, 79, 0
2, 187680, Note_on_c, 6, 78, 105
2, 187836, Note_on_c, 6, 78, 0
2, 187920, Note_on_c, 6, 76, 105
2, 188076, Note_on_c, 6, 76, 0
2, 188160, Note_on_c, 6, 74, 92
2, 188544, Note_on_c, 6, 74, 0
2, 188880, Note_on_c, 6, 81, 72
2, 189072, Note_on_c, 6, 81, 0
2, 189120, Note_on_c, 6, 86, 72
2, 189360, Note_on_c, 6, 86, 0
2, 189360, Note_on_c, 6, 85, 72
2, 189600, Note_on_c, 6, 85, 0
2, 189600, Note_on_c, 6, 83, 72
2, 189840, Note_on_c, 6, 83, 0
2, 189840, Note_on_c, 6, 81, 72
2, 190032, Note_on_c, 6, 81, 0
2, 190080, Note_on_c, 6, 85, 72
2, 190140, Note_on_c, 6, 85, 0
2, 190140, Note_on_c, 6, 83, 72
2, 190200, Note_on_c, 6, 83, 0
2, 190200, Note_on_c, 6, 85, 72
2, 190260, Note_on_c, 6, 85, 0
2, 190260, Note_on_c, 6, 83, 72
2, 190320, Note_on_c, 6, 83, 0
2, 190320, Note_on_c, 6, 81, 72
2, 190512, Note_on_c, 6, 81, 0
2, 190800, Note_on_c, 6, 81, 72
2, 190956, Note_on_c, 6, 81, 0
2, 191040, Note_on_c, 6, 81, 72
2, 191196, Note_on_c, 6, 81, 0
2, 191280, Note_on_c, 6, 81, 72
2, 191436, Note_on_c, 6, 81, 0
2, 191520, Note_on_c, 6, 81, 72
2, 191676, Note_on_c, 6, 81, 0
2, 191760, Note_on_c, 6, 81, 72
2, 191916, Note_on_c, 6, 81, 0
2, 192000, Note_on_c, 6, 85, 72
2, 192060, Note_on_c, 6, 85, 0
2, 192060, Note_on_c, 6, 83, 72
2, 192120, Note_on_c, 6, 83, 0
2, 192120, Note_on_c, 6, 85, 72
2, 192180, Note_on_c, 6, 85, 0
2, 192180, Note_on_c, 6, 83, 72
2, 192240, Note_on_c, 6, 83, 0
2, 192240, Note_on_c, 6, 81, 72
2, 192432, Note_on_c, 6, 81, 0
2, 192720, Note_on_c, 6, 81, 72
2, 192912, Note_on_c, 6, 81, 0
2, 192960, Note_on_c, 6, 86, 72
2, 193200, Note_on_c, 6, 86, 0
2, 193200, Note_on_c, 6, 85, 72
2, 193440, Note_on_c, 6, 85, 0
2, 193440, Note_on_c, 6, 83, 72
2, 193680, Note_on_c, 6, 83, 0
2, 193680, Note_on_c, 6, 81, 72
2, 193872, Note_on_c, 6, 81, 0
2, 193920, Note_on_c, 6, 85, 72
2, 193980, Note_on_c, 6, 85, 0
2, 193980, Note_on_c, 6, 83, 72
2, 194040, Note_on_c, 6, 83, 0
2, 194040, Note_on_c, 6, 85, 72
2, 194100, Note_on_c, 6, 85, 0
2, 194100, Note_on_c, 6, 83, 72
2, 194160, Note_on_c, 6, 83, 0
2, 194160, Note_on_c, 6, 81, 72
2, 194352, Note_on_c, 6, 81, 0
2, 194640, Note_on_c, 6, 81, 72
2, 194796, Note_on_c, 6, 81, 0
2, 194880, Note_on_c, 6, 81, 72
2, 195036, Note_on_c, 6, 81, 0
2, 195120, Note_on_c, 6, 81, 72
2, 195276, Note_on_c, 6, 81, 0
2, 195360, Note_on_c, 6, 81, 72
2, 195516, Note_on_c, 6, 81, 0
2, 195600, Note_on_c, 6, 81, 72
2, 195756, Note_on_c, 6, 81, 0
2, 195840, Note_on_c, 6, 85, 72
2, 195900, Note_on_c, 6, 85, 0
2, 195900, Note_on_c, 6, 83, 72
2, 195960, Note_on_c, 6, 83, 0
2, 195960, Note_on_c, 6, 85, 72
2, 196020, Note_on_c, 6, 85, 0
2, 196020, Note_on_c, 6, 83, 72
2, 196080, Note_on_c, 6, 83, 0
2, 196080, Note_on_c, 6, 81, 72
2, 196272, Note_on_c, 6, 81, 0
2, 196800, Note_on_c, 6, 71, 105
2, 196800, Note_on_c, 6, 83, 105
2, 197520, Note_on_c, 6, 83, 0
2, 197520, Note_on_c, 6, 71, 0
2, 197520, Note_on_c, 6, 81, 105
2, 197600, Note_on_c, 6, 81, 0
2, 197600, Note_on_c, 6, 79, 105
2, 197680, Note_on_c, 6, 79, 0
2, 197680, Note_on_c, 6, 78, 105
2, 197760, Note_on_c, 6, 78, 0
2, 197760, Note_on_c, 6, 79, 105
2, 198144, Note_on_c, 6, 79, 0
2, 198720, Note_on_c, 6, 69, 105
2, 198720, Note_on_c, 6, 81, 105
2, 199440, Note_on_c, 6, 81, 0
2, 199440, Note_on_c, 6, 69, 0
2, 199440, Note_on_c, 6, 79, 105
2, 199520, Note_on_c, 6, 79, 0
2, 199520, Note_on_c, 6, 78, 105
2, 199600, Note_on_c, 6, 78, 0
2, 199600, Note_on_c, 6, 76, 105
2, 199680, Note_on_c, 6, 76, 0
2, 199680, Note_on_c, 6, 78, 105
2, 200064, Note_on_c, 6, 78, 0
2, 200640, Note_on_c, 6, 83, 105
2, 200880, Note_on_c, 6, 83, 0
2, 200880, Note_on_c, 6, 85, 105
2, 201000, Note_on_c, 6, 85, 0
2, 201000, Note_on_c, 6, 86, 105
2, 201120, Note_on_c, 6, 86, 0
2, 201120, Note_on_c, 6, 85, 105
2, 201264, Note_on_c, 6, 85, 0
2, 201360, Note_on_c, 6, 83, 105
2, 201504, Note_on_c, 6, 83, 0
2, 201600, Note_on_c, 6, 83, 105
2, 201840, Note_on_c, 6, 83, 0
2, 201840, Note_on_c, 6, 81, 105
2, 201996, Note_on_c, 6, 81, 0
2, 202080, Note_on_c, 6, 78, 105
2, 202236, Note_on_c, 6, 78, 0
2, 202320, Note_on_c, 6, 81, 105
2, 202476, Note_on_c, 6, 81, 0
2, 202560, Note_on_c, 6, 81, 105
2, 202800, Note_on_c, 6, 81, 0
2, 202800, Note_on_c, 6, 79, 105
2, 202956, Note_on_c, 6, 79, 0
2, 203040, Note_on_c, 6, 78, 105
2, 203196, Note_on_c, 6, 78, 0
2, 203280, Note_on_c, 6, 76, 105
2, 203436, Note_on_c, 6, 76, 0
2, 203520, Note_on_c, 6, 74, 105
2, 203664, Note_on_c, 6, 74, 0
2, 203760, Note_on_c, 6, 69, 105
2, 203904, Note_on_c, 6, 69, 0
2, 204000, Note_on_c, 6, 71, 105
2, 204144, Note_on_c, 6, 71, 0
2, 204240, Note_on_c, 6, 73, 105
2, 204384, Note_on_c, 6, 73, 0
2, 204480, Note_on_c, 6, 74, 105
2, 204624, Note_on_c, 6, 74, 0
2, 204720, Note_on_c, 6, 74, 105
2, 204864, Note_on_c, 6, 74, 0
2, 204960, Note_on_c, 6, 78, 105
2, 205020, Note_on_c, 6, 78, 0
2, 205020, Note_on_c, 6, 76, 105
2, 205080, Note_on_c, 6, 76, 0
2, 205080, Note_on_c, 6, 78, 105
2, 205140, Note_on_c, 6, 78, 0
2, 205140, Note_on_c, 6, 76, 105
2, 205200, Note_on_c, 6, 76, 0
2, 205200, Note_on_c, 6, 74, 105
2, 205320, Note_on_c, 6, 74, 0
2, 205320, Note_on_c, 6, 76, 105
2, 205440, Note_on_c, 6, 76, 0
2, 205440, Note_on_c, 6, 78, 105
2, 205584, Note_on_c, 6, 78, 0
2, 205680, Note_on_c, 6, 73, 105
2, 205824, Note_on_c, 6, 73, 0
2, 205920, Note_on_c, 6, 74, 105
2, 206064, Note_on_c, 6, 74, 0
2, 206160, Note_on_c, 6, 76, 105
2, 206304, Note_on_c, 6, 76, 0
2, 206400, Note_on_c, 6, 78, 105
2, 206544, Note_on_c, 6, 78, 0
2, 206640, Note_on_c, 6, 78, 105
2, 206784, Note_on_c, 6, 78, 0
2, 206880, Note_on_c, 6, 81, 105
2, 206940, Note_on_c, 6, 81, 0
2, 206940, Note_on_c, 6, 79, 105
2, 207000, Note_on_c, 6, 79, 0
2, 207000, Note_on_c, 6, 81, 105
2, 207060, Note_on_c, 6, 81, 0
2, 207060, Note_on_c, 6, 79, 105
2, 207120, Note_on_c, 6, 79, 0
2, 207120, Note_on_c, 6, 78, 105
2, 207240, Note_on_c, 6, 78, 0
2, 207240, Note_on_c, 6, 79, 105
2, 207360, Note_on_c, 6, 79, 0
2, 207360, Note_on_c, 6, 81, 105
2, 207504, Note_on_c, 6, 81, 0
2, 207600, Note_on_c, 6, 81, 105
2, 207744, Note_on_c, 6, 81, 0
2, 207840, Note_on_c, 6, 83, 105
2, 207900, Note_on_c, 6, 83, 0
2, 207900, Note_on_c, 6, 82, 105
2, 207960, Note_on_c, 6, 82, 0
2, 207960, Note_on_c, 6, 83, 105
2, 208020, Note_on_c, 6, 83, 0
2, 208020, Note_on_c, 6, 82, 105
2, 208080, Note_on_c, 6, 82, 0
2, 208080, Note_on_c, 6, 80, 105
2, 208200, Note_on_c, 6, 80, 0
2, 208200, Note_on_c, 6, 82, 105
2, 208320, Note_on_c, 6, 82, 0
2, 208320, Note_on_c, 6, 83, 92
2, 208704, Note_on_c, 6, 83, 0
2, 209280, Note_on_c, 6, 71, 72
2, 210000, Note_on_c, 6, 71, 0
2, 210000, Note_on_c, 6, 76, 72
2, 210192, Note_on_c, 6, 76, 0
2, 210240, Note_on_c, 6, 74, 72
2, 210480, Note_on_c, 6, 74, 0
2, 210480, Note_on_c, 6, 73, 72
2, 210720, Note_on_c, 6, 73, 0
2, 210720, Note_on_c, 6, 71, 72
2, 210960, Note_on_c, 6, 71, 0
2, 210960, Note_on_c, 6, 69, 72
2, 211152, Note_on_c, 6, 69, 0
2, 211200, Note_on_c, 6, 74, 72
2, 211392, Note_on_c, 6, 74, 0
2, 211680, Note_on_c, 6, 78, 72
2, 211872, Note_on_c, 6, 78, 0
2, 212160, Note_on_c, 6, 74, 58
2, 212352, Note_on_c, 6, 74, 0
2, 213120, Note_on_c, 6, 62, 105
2, 213120, Note_on_c, 6, 74, 105
2, 213504, Note_on_c, 6, 74, 0
2, 213504, Note_on_c, 6, 62, 0
2, 213840, Note_on_c, 6, 69, 105
2, 213996, Note_on_c, 6, 69, 0
2, 214080, Note_on_c, 6, 74, 105
2, 214464, Note_on_c, 6, 74, 0
2, 214800, Note_on_c, 6, 69, 105
2, 214956, Note_on_c, 6, 69, 0
2, 215040, Note_on_c, 6, 74, 105
2, 215196, Note_on_c, 6, 74, 0
2, 215280, Note_on_c, 6, 69, 105
2, 215436, Note_on_c, 6, 69, 0
2, 215520, Note_on_c, 6, 74, 105
2, 215676, Note_on_c, 6, 74, 0
2, 215760, Note_on_c, 6, 78, 105
2, 215916, Note_on_c, 6, 78, 0
2, 216000, Note_on_c, 6, 81, 105
2, 216384, Note_on_c, 6, 81, 0
2, 216960, Note_on_c, 6, 81, 105
2, 217344, Note_on_c, 6, 81, 0
2, 217680, Note_on_c, 6, 78, 105
2, 217836, Note_on_c, 6, 78, 0
2, 217920, Note_on_c, 6, 81, 105
2, 218304, Note_on_c, 6, 81, 0
2, 218640, Note_on_c, 6, 78, 105
2, 218796, Note_on_c, 6, 78, 0
2, 218880, Note_on_c, 6, 81, 105
2, 219036, Note_on_c, 6, 81, 0
2, 219120, Note_on_c, 6, 78, 105
2, 219276, Note_on_c, 6, 78, 0
2, 219360, Note_on_c, 6, 75, 105
2, 219516, Note_on_c, 6, 75, 0
2, 219600, Note_on_c, 6, 78, 105
2, 219756, Note_on_c, 6, 78, 0
2, 219840, Note_on_c, 6, 71, 105
2, 220224, Note_on_c, 6, 71, 0
2, 221520, Note_on_c, 6, 79, 72
2, 221712, Note_on_c, 6, 79, 0
2, 221760, Note_on_c, 6, 84, 72
2, 222000, Note_on_c, 6, 84, 0
2, 222000, Note_on_c, 6, 83, 72
2, 222240, Note_on_c, 6, 83, 0
2, 222240, Note_on_c, 6, 81, 72
2, 222480, Note_on_c, 6, 81, 0
2, 222480, Note_on_c, 6, 79, 72
2, 222672, Note_on_c, 6, 79, 0
2, 222720, Note_on_c, 6, 83, 72
2, 222780, Note_on_c, 6, 83, 0
2, 222780, Note_on_c, 6, 81, 72
2, 222840, Note_on_c, 6, 81, 0
2, 222840, Note_on_c, 6, 83, 72
2, 222900, Note_on_c, 6, 83, 0
2, 222900, Note_on_c, 6, 81, 72
2, 222960, Note_on_c, 6, 81, 0
2, 222960, Note_on_c, 6, 79, 72
2, 223152, Note_on_c, 6, 79, 0
2, 223440, Note_on_c, 6, 79, 72
2, 223584, Note_on_c, 6, 79, 0
2, 223680, Note_on_c, 6, 79, 72
2, 223824, Note_on_c, 6, 79, 0
2, 223920, Note_on_c, 6, 79, 72
2, 224064, Note_on_c, 6, 79, 0
2, 224160, Note_on_c, 6, 79, 72
2, 224304, Note_on_c, 6, 79, 0
2, 224400, Note_on_c, 6, 79, 72
2, 224544, Note_on_c, 6, 79, 0
2, 224640, Note_on_c, 6, 83, 72
2, 224700, Note_on_c, 6, 83, 0
2, 224700, Note_on_c, 6, 81, 72
2, 224760, Note_on_c, 6, 81, 0
2, 224760, Note_on_c, 6, 83, 72
2, 224820, Note_on_c, 6, 83, 0
2, 224820, Note_on_c, 6, 81, 72
2, 224880, Note_on_c, 6, 81, 0
2, 224880, Note_on_c, 6, 79, 72
2, 225072, Note_on_c, 6, 79, 0
2, 225360, Note_on_c, 6, 79, 72
2, 225552, Note_on_c, 6, 79, 0
2, 225600, Note_on_c, 6, 84, 72
2, 225840, Note_on_c, 6, 84, 0
2, 225840, Note_on_c, 6, 83, 72
2, 226080, Note_on_c, 6, 83, 0
2, 226080, Note_on_c, 6, 81, 72
2, 226320, Note_on_c, 6, 81, 0
2, 226320, Note_on_c, 6, 79, 72
2, 226512, Note_on_c, 6, 79, 0
2, 226560, Note_on_c, 6, 83, 72
2, 226620, Note_on_c, 6, 83, 0
2, 226620, Note_on_c, 6, 81, 72
2, 226680, Note_on_c, 6, 81, 0
2, 226680, Note_on_c, 6, 83, 72
2, 226740, Note_on_c, 6, 83, 0
2, 226740, Note_on_c, 6, 81, 72
2, 226800, Note_on_c, 6, 81, 0
2, 226800, Note_on_c, 6, 79, 72
2, 226992, Note_on_c, 6, 79, 0
2, 227280, Note_on_c, 6, 79, 72
2, 227424, Note_on_c, 6, 79, 0
2, 227520, Note_on_c, 6, 79, 72
2, 227664, Note_on_c, 6, 79, 0
2, 227760, Note_on_c, 6, 79, 72
2, 227904, Note_on_c, 6, 79, 0
2, 228000, Note_on_c, 6, 79, 72
2, 228144, Note_on_c, 6, 79, 0
2, 228240, Note_on_c, 6, 79, 72
2, 228384, Note_on_c, 6, 79, 0
2, 228480, Note_on_c, 6, 83, 72
2, 228540, Note_on_c, 6, 83, 0
2, 228540, Note_on_c, 6, 81, 72
2, 228600, Note_on_c, 6, 81, 0
2, 228600, Note_on_c, 6, 83, 72
2, 228660, Note_on_c, 6, 83, 0
2, 228660, Note_on_c, 6, 81, 72
2, 228720, Note_on_c, 6, 81, 0
2, 228720, Note_on_c, 6, 79, 72
2, 228912, Note_on_c, 6, 79, 0
2, 229200, Note_on_c, 6, 79, 72
2, 229392, Note_on_c, 6, 79, 0
2, 229440, Note_on_c, 6, 84, 72
2, 229680, Note_on_c, 6, 84, 0
2, 229680, Note_on_c, 6, 83, 72
2, 229920, Note_on_c, 6, 83, 0
2, 229920, Note_on_c, 6, 81, 72
2, 230160, Note_on_c, 6, 81, 0
2, 230160, Note_on_c, 6, 79, 72
2, 230352, Note_on_c, 6, 79, 0
2, 230400, Note_on_c, 6, 83, 72
2, 230460, Note_on_c, 6, 83, 0
2, 230460, Note_on_c, 6, 81, 72
2, 230520, Note_on_c, 6, 81, 0
2, 230520, Note_on_c, 6, 83, 72
2, 230580, Note_on_c, 6, 83, 0
2, 230580, Note_on_c, 6, 81, 72
2, 230640, Note_on_c, 6, 81, 0
2, 230640, Note_on_c, 6, 80, 72
2, 230832, Note_on_c, 6, 80, 0
2, 231120, Note_on_c, 6, 80, 72
2, 231264, Note_on_c, 6, 80, 0
2, 231360, Note_on_c, 6, 80, 72
2, 231504, Note_on_c, 6, 80, 0
2, 231600, Note_on_c, 6, 80, 72
2, 231744, Note_on_c, 6, 80, 0
2, 231840, Note_on_c, 6, 80, 72
2, 231984, Note_on_c, 6, 80, 0
2, 232080, Note_on_c, 6, 80, 72
2, 232224, Note_on_c, 6, 80, 0
2, 232320, Note_on_c, 6, 84, 72
2, 232380, Note_on_c, 6, 84, 0
2, 232380, Note_on_c, 6, 83, 72
2, 232440, Note_on_c, 6, 83, 0
2, 232440, Note_on_c, 6, 84, 72
2, 232500, Note_on_c, 6, 84, 0
2, 232500, Note_on_c, 6, 83, 72
2, 232560, Note_on_c, 6, 83, 0
2, 232560, Note_on_c, 6, 81, 72
2, 232752, Note_on_c, 6, 81, 0
2, 233040, Note_on_c, 6, 81, 72
2, 233232, Note_on_c, 6, 81, 0
2, 233280, Note_on_c, 6, 84, 72
2, 233520, Note_on_c, 6, 84, 0
2, 233520, Note_on_c, 6, 82, 72
2, 233760, Note_on_c, 6, 82, 0
2, 233760, Note_on_c, 6, 81, 72
2, 234000, Note_on_c, 6, 81, 0
2, 234000, Note_on_c, 6, 79, 72
2, 234192, Note_on_c, 6, 79, 0
2, 234240, Note_on_c, 6, 81, 72
2, 234300, Note_on_c, 6, 81, 0
2, 234300, Note_on_c, 6, 79, 72
2, 234360, Note_on_c, 6, 79, 0
2, 234360, Note_on_c, 6, 81, 72
2, 234420, Note_on_c, 6, 81, 0
2, 234420, Note_on_c, 6, 79, 72
2, 234480, Note_on_c, 6, 79, 0
2, 234480, Note_on_c, 6, 78, 72
2, 234672, Note_on_c, 6, 78, 0
2, 234960, Note_on_c, 6, 78, 72
2, 235104, Note_on_c, 6, 78, 0
2, 235200, Note_on_c, 6, 78, 72
2, 235344, Note_on_c, 6, 78, 0
2, 235440, Note_on_c, 6, 78, 72
2, 235584, Note_on_c, 6, 78, 0
2, 235680, Note_on_c, 6, 78, 72
2, 235824, Note_on_c, 6, 78, 0
2, 235920, Note_on_c, 6, 78, 72
2, 236064, Note_on_c, 6, 78, 0
2, 236160, Note_on_c, 6, 82, 72
2, 236220, Note_on_c, 6, 82, 0
2, 236220, Note_on_c, 6, 81, 72
2, 236280, Note_on_c, 6, 81, 0
2, 236280, Note_on_c, 6, 82, 72
2, 236340, Note_on_c, 6, 82, 0
2, 236340, Note_on_c, 6, 81, 72
2, 236400, Note_on_c, 6, 81, 0
2, 236400, Note_on_c, 6, 79, 72
2, 236592, Note_on_c, 6, 79, 0
2, 236880, Note_on_c, 6, 75, 72
2, 237072, Note_on_c, 6, 75, 0
2, 237120, Note_on_c, 6, 79, 72
2, 237360, Note_on_c, 6, 79, 0
2, 237360, Note_on_c, 6, 77, 72
2, 237600, Note_on_c, 6, 77, 0
2, 237600, Note_on_c, 6, 75, 72
2, 237840, Note_on_c, 6, 75, 0
2, 237840, Note_on_c, 6, 74, 72
2, 238032, Note_on_c, 6, 74, 0
2, 238080, Note_on_c, 6, 75, 72
2, 238140, Note_on_c, 6, 75, 0
2, 238140, Note_on_c, 6, 74, 72
2, 238200, Note_on_c, 6, 74, 0
2, 238200, Note_on_c, 6, 75, 72
2, 238260, Note_on_c, 6, 75, 0
2, 238260, Note_on_c, 6, 74, 72
2, 238320, Note_on_c, 6, 74, 0
2, 238320, Note_on_c, 6, 73, 72
2, 238512, Note_on_c, 6, 73, 0
2, 238800, Note_on_c, 6, 73, 72
2, 238956, Note_on_c, 6, 73, 0
2, 239040, Note_on_c, 6, 73, 72
2, 239196, Note_on_c, 6, 73, 0
2, 239280, Note_on_c, 6, 73, 72
2, 239436, Note_on_c, 6, 73, 0
2, 239520, Note_on_c, 6, 73, 72
2, 239676, Note_on_c, 6, 73, 0
2, 239760, Note_on_c, 6, 73, 72
2, 239916, Note_on_c, 6, 73, 0
2, 240000, Note_on_c, 6, 78, 72
2, 240060, Note_on_c, 6, 78, 0
2, 240060, Note_on_c, 6, 76, 72
2, 240120, Note_on_c, 6, 76, 0
2, 240120, Note_on_c, 6, 78, 72
2, 240180, Note_on_c, 6, 78, 0
2, 240180, Note_on_c, 6, 76, 58
2, 240240, Note_on_c, 6, 76, 0
2, 240240, Note_on_c, 6, 74, 58
2, 240432, Note_on_c, 6, 74, 0
2, 240720, Note_on_c, 6, 62, 105
2, 240960, Note_on_c, 6, 62, 0
2, 240960, Note_on_c, 6, 64, 105
2, 241200, Note_on_c, 6, 64, 0
2, 241200, Note_on_c, 6, 66, 105
2, 241440, Note_on_c, 6, 66, 0
2, 241440, Note_on_c, 6, 67, 105
2, 241680, Note_on_c, 6, 67, 0
2, 241680, Note_on_c, 6, 69, 105
2, 241920, Note_on_c, 6, 69, 0
2, 241920, Note_on_c, 6, 72, 105
2, 242160, Note_on_c, 6, 72, 0
2, 242160, Note_on_c, 6, 70, 105
2, 242400, Note_on_c, 6, 70, 0
2, 242640, Note_on_c, 6, 66, 105
2, 242880, Note_on_c, 6, 66, 0
2, 242880, Note_on_c, 6, 67, 105
2, 243120, Note_on_c, 6, 67, 0
2, 243120, Note_on_c, 6, 69, 105
2, 243360, Note_on_c, 6, 69, 0
2, 243360, Note_on_c, 6, 70, 105
2, 243600, Note_on_c, 6, 70, 0
2, 243600, Note_on_c, 6, 73, 105
2, 243840, Note_on_c, 6, 73, 0
2, 243840, Note_on_c, 6, 76, 105
2, 244080, Note_on_c, 6, 76, 0
2, 244080, Note_on_c, 6, 74, 105
2, 244272, Note_on_c, 6, 74, 0
2, 244560, Note_on_c, 6, 74, 72
2, 244800, Note_on_c, 6, 74, 0
2, 244800, Note_on_c, 6, 76, 72
2, 245040, Note_on_c, 6, 76, 0
2, 245040, Note_on_c, 6, 78, 72
2, 245280, Note_on_c, 6, 78, 0
2, 245280, Note_on_c, 6, 79, 72
2, 245520, Note_on_c, 6, 79, 0
2, 245520, Note_on_c, 6, 81, 72
2, 245760, Note_on_c, 6, 81, 0
2, 245760, Note_on_c, 6, 82, 72
2, 246240, Note_on_c, 6, 82, 0
2, 246240, Note_on_c, 6, 83, 72
2, 246720, Note_on_c, 6, 83, 0
2, 246720, Note_on_c, 6, 84, 72
2, 247200, Note_on_c, 6, 84, 0
2, 247200, Note_on_c, 6, 85, 72
2, 247656, Note_on_c, 6, 85, 0
2, 247680, Note_on_c, 6, 86, 72
2, 250368, Note_on_c, 6, 86, 0
2, 250560, Note_on_c, 6, 79, 72
2, 250620, Note_on_c, 6, 79, 0
2, 250620, Note_on_c, 6, 78, 72
2, 250680, Note_on_c, 6, 78, 0
2, 250680, Note_on_c, 6, 79, 72
2, 250740, Note_on_c, 6, 79, 0
2, 250740, Note_on_c, 6, 78, 72
2, 250800, Note_on_c, 6, 78, 0
2, 250800, Note_on_c, 6, 79, 72
2, 250860, Note_on_c, 6, 79, 0
2, 250860, Note_on_c, 6, 78, 72
2, 250920, Note_on_c, 6, 78, 0
2, 250920, Note_on_c, 6, 79, 72
2, 250980, Note_on_c, 6, 79, 0
2, 250980, Note_on_c, 6, 78, 72
2, 251040, Note_on_c, 6, 78, 0
2, 251040, Note_on_c, 6, 79, 72
2, 251100, Note_on_c, 6, 79, 0
2, 251100, Note_on_c, 6, 78, 72
2, 251160, Note_on_c, 6, 78, 0
2, 251160, Note_on_c, 6, 79, 72
2, 251220, Note_on_c, 6, 79, 0
2, 251220, Note_on_c, 6, 78, 72
2, 251280, Note_on_c, 6, 78, 0
2, 251280, Note_on_c, 6, 76, 72
2, 251400, Note_on_c, 6, 76, 0
2, 251400, Note_on_c, 6, 78, 72
2, 251496, Note_on_c, 6, 78, 0
2, 251520, Note_on_c, 6, 79, 125
2, 251904, Note_on_c, 6, 79, 0
2, 252240, Note_on_c, 6, 74, 105
2, 252384, Note_on_c, 6, 74, 0
2, 252480, Note_on_c, 6, 79, 105
2, 252864, Note_on_c, 6, 79, 0
2, 253200, Note_on_c, 6, 74, 105
2, 253344, Note_on_c, 6, 74, 0
2, 253440, Note_on_c, 6, 79, 105
2, 253584, Note_on_c, 6, 79, 0
2, 253680, Note_on_c, 6, 74, 105
2, 253824, Note_on_c, 6, 74, 0
2, 253920, Note_on_c, 6, 79, 105
2, 254064, Note_on_c, 6, 79, 0
2, 254160, Note_on_c, 6, 83, 105
2, 254304, Note_on_c, 6, 83, 0
2, 254400, Note_on_c, 6, 86, 105
2, 254784, Note_on_c, 6, 86, 0
2, 255360, Note_on_c, 6, 84, 105
2, 255744, Note_on_c, 6, 84, 0
2, 256080, Note_on_c, 6, 81, 105
2, 256224, Note_on_c, 6, 81, 0
2, 256320, Note_on_c, 6, 84, 105
2, 256704, Note_on_c, 6, 84, 0
2, 257040, Note_on_c, 6, 81, 105
2, 257184, Note_on_c, 6, 81, 0
2, 257280, Note_on_c, 6, 84, 105
2, 257424, Note_on_c, 6, 84, 0
2, 257520, Note_on_c, 6, 81, 105
2, 257664, Note_on_c, 6, 81, 0
2, 257760, Note_on_c, 6, 78, 105
2, 257904, Note_on_c, 6, 78, 0
2, 258000, Note_on_c, 6, 81, 105
2, 258144, Note_on_c, 6, 81, 0
2, 258240, Note_on_c, 6, 74, 105
2, 258624, Note_on_c, 6, 74, 0
2, 259200, Note_on_c, 6, 79, 116
2, 259200, Note_on_c, 6, 71, 116
2, 259200, Note_on_c, 6, 62, 116
2, 259344, Note_on_c, 6, 79, 0
2, 259392, Note_on_c, 6, 62, 0
2, 259392, Note_on_c, 6, 71, 0
2, 259680, Note_on_c, 6, 79, 116
2, 260256, Note_on_c, 6, 79, 0
2, 260400, Note_on_c, 6, 83, 116
2, 260640, Note_on_c, 6, 83, 0
2, 260640, Note_on_c, 6, 81, 116
2, 260832, Note_on_c, 6, 81, 0
2, 260880, Note_on_c, 6, 79, 116
2, 261024, Note_on_c, 6, 79, 0
2, 261120, Note_on_c, 6, 81, 116
2, 261180, Note_on_c, 6, 81, 0
2, 261180, Note_on_c, 6, 79, 116
2, 261240, Note_on_c, 6, 79, 0
2, 261240, Note_on_c, 6, 81, 116
2, 261300, Note_on_c, 6, 81, 0
2, 261300, Note_on_c, 6, 79, 116
2, 261360, Note_on_c, 6, 79, 0
2, 261360, Note_on_c, 6, 78, 116
2, 261552, Note_on_c, 6, 78, 0
2, 261600, Note_on_c, 6, 78, 116
2, 262176, Note_on_c, 6, 78, 0
2, 262320, Note_on_c, 6, 81, 116
2, 262560, Note_on_c, 6, 81, 0
2, 262560, Note_on_c, 6, 84, 116
2, 262704, Note_on_c, 6, 84, 0
2, 262800, Note_on_c, 6, 78, 116
2, 262944, Note_on_c, 6, 78, 0
2, 263040, Note_on_c, 6, 81, 116
2, 263280, Note_on_c, 6, 81, 0
2, 263280, Note_on_c, 6, 79, 116
2, 263472, Note_on_c, 6, 79, 0
2, 263520, Note_on_c, 6, 79, 116
2, 264096, Note_on_c, 6, 79, 0
2, 264240, Note_on_c, 6, 83, 116
2, 264480, Note_on_c, 6, 83, 0
2, 264480, Note_on_c, 6, 81, 116
2, 264672, Note_on_c, 6, 81, 0
2, 264720, Note_on_c, 6, 79, 116
2, 264864, Note_on_c, 6, 79, 0
2, 264960, Note_on_c, 6, 81, 116
2, 265020, Note_on_c, 6, 81, 0
2, 265020, Note_on_c, 6, 79, 116
2, 265080, Note_on_c, 6, 79, 0
2, 265080, Note_on_c, 6, 81, 116
2, 265140, Note_on_c, 6, 81, 0
2, 265140, Note_on_c, 6, 79, 116
2, 265200, Note_on_c, 6, 79, 0
2, 265200, Note_on_c, 6, 78, 116
2, 265392, Note_on_c, 6, 78, 0
2, 265440, Note_on_c, 6, 78, 116
2, 266016, Note_on_c, 6, 78, 0
2, 266160, Note_on_c, 6, 81, 116
2, 266400, Note_on_c, 6, 81, 0
2, 266400, Note_on_c, 6, 84, 116
2, 266544, Note_on_c, 6, 84, 0
2, 266640, Note_on_c, 6, 78, 116
2, 266784, Note_on_c, 6, 78, 0
2, 266880, Note_on_c, 6, 79, 116
2, 267024, Note_on_c, 6, 79, 0
2, 267120, Note_on_c, 6, 79, 116
2, 267264, Note_on_c, 6, 79, 0
2, 267360, Note_on_c, 6, 79, 116
2, 267480, Note_on_c, 6, 79, 0
2, 267480, Note_on_c, 6, 78, 116
2, 267600, Note_on_c, 6, 78, 0
2, 267600, Note_on_c, 6, 76, 116
2, 267720, Note_on_c, 6, 76, 0
2, 267720, Note_on_c, 6, 78, 116
2, 267816, Note_on_c, 6, 78, 0
2, 267840, Note_on_c, 6, 79, 116
2, 267984, Note_on_c, 6, 79, 0
2, 268080, Note_on_c, 6, 79, 116
2, 268224, Note_on_c, 6, 79, 0
2, 268320, Note_on_c, 6, 83, 116
2, 268440, Note_on_c, 6, 83, 0
2, 268440, Note_on_c, 6, 81, 116
2, 268560, Note_on_c, 6, 81, 0
2, 268560, Note_on_c, 6, 79, 116
2, 268680, Note_on_c, 6, 79, 0
2, 268680, Note_on_c, 6, 81, 116
2, 268776, Note_on_c, 6, 81, 0
2, 268800, Note_on_c, 6, 83, 116
2, 268944, Note_on_c, 6, 83, 0
2, 269040, Note_on_c, 6, 83, 116
2, 269184, Note_on_c, 6, 83, 0
2, 269280, Note_on_c, 6, 86, 116
2, 269400, Note_on_c, 6, 86, 0
2, 269400, Note_on_c, 6, 84, 116
2, 269520, Note_on_c, 6, 84, 0
2, 269520, Note_on_c, 6, 83, 116
2, 269640, Note_on_c, 6, 83, 0
2, 269640, Note_on_c, 6, 84, 116
2, 269736, Note_on_c, 6, 84, 0
2, 269760, Note_on_c, 6, 86, 105
2, 270144, Note_on_c, 6, 86, 0
2, 270720, Note_on_c, 6, 74, 72
2, 271680, Note_on_c, 6, 74, 0
2, 271680, Note_on_c, 6, 76, 72
2, 272448, Note_on_c, 6, 76, 0
2, 272640, Note_on_c, 6, 74, 72
2, 272760, Note_on_c, 6, 74, 0
2, 272760, Note_on_c, 6, 72, 72
2, 272976, Note_on_c, 6, 72, 0
2, 273120, Note_on_c, 6, 72, 72
2, 273408, Note_on_c, 6, 72, 0
2, 273600, Note_on_c, 6, 72, 72
2, 273720, Note_on_c, 6, 72, 0
2, 273720, Note_on_c, 6, 71, 72
2, 273936, Note_on_c, 6, 71, 0
2, 274080, Note_on_c, 6, 71, 72
2, 274368, Note_on_c, 6, 71, 0
2, 274560, Note_on_c, 6, 71, 72
2, 274680, Note_on_c, 6, 71, 0
2, 274680, Note_on_c, 6, 69, 72
2, 274896, Note_on_c, 6, 69, 0
2, 275040, Note_on_c, 6, 69, 72
2, 275328, Note_on_c, 6, 69, 0
2, 275520, Note_on_c, 6, 67, 72
2, 275760, Note_on_c, 6, 67, 0
2, 275760, Note_on_c, 6, 66, 72
2, 275904, Note_on_c, 6, 66, 0
2, 276000, Note_on_c, 6, 64, 72
2, 276144, Note_on_c, 6, 64, 0
2, 276240, Note_on_c, 6, 66, 72
2, 276384, Note_on_c, 6, 66, 0
2, 276480, Note_on_c, 6, 67, 72
2, 276636, Note_on_c, 6, 67, 0
2, 276960, Note_on_c, 6, 69, 72
2, 277116, Note_on_c, 6, 69, 0
2, 277440, Note_on_c, 6, 71, 72
2, 277596, Note_on_c, 6, 71, 0
2, 278400, Note_on_c, 6, 74, 58
2, 279360, Note_on_c, 6, 74, 0
2, 279360, Note_on_c, 6, 76, 72
2, 280128, Note_on_c, 6, 76, 0
2, 280320, Note_on_c, 6, 74, 72
2, 280560, Note_on_c, 6, 74, 0
2, 280560, Note_on_c, 6, 72, 72
2, 280716, Note_on_c, 6, 72, 0
2, 280800, Note_on_c, 6, 72, 72
2, 280956, Note_on_c, 6, 72, 0
2, 281040, Note_on_c, 6, 72, 72
2, 281196, Note_on_c, 6, 72, 0
2, 281280, Note_on_c, 6, 72, 72
2, 281520, Note_on_c, 6, 72, 0
2, 281520, Note_on_c, 6, 71, 72
2, 281676, Note_on_c, 6, 71, 0
2, 281760, Note_on_c, 6, 71, 72
2, 281916, Note_on_c, 6, 71, 0
2, 282000, Note_on_c, 6, 71, 72
2, 282156, Note_on_c, 6, 71, 0
2, 282240, Note_on_c, 6, 71, 72
2, 282480, Note_on_c, 6, 71, 0
2, 282480, Note_on_c, 6, 69, 72
2, 282636, Note_on_c, 6, 69, 0
2, 282720, Note_on_c, 6, 69, 72
2, 282876, Note_on_c, 6, 69, 0
2, 282960, Note_on_c, 6, 69, 72
2, 283116, Note_on_c, 6, 69, 0
2, 283200, Note_on_c, 6, 67, 72
2, 283440, Note_on_c, 6, 67, 0
2, 283440, Note_on_c, 6, 66, 72
2, 283680, Note_on_c, 6, 66, 0
2, 283680, Note_on_c, 6, 64, 72
2, 283920, Note_on_c, 6, 64, 0
2, 283920, Note_on_c, 6, 66, 72
2, 284076, Note_on_c, 6, 66, 0
2, 284160, Note_on_c, 6, 55, 72
2, 284160, Note_on_c, 6, 67, 112
2, 285312, Note_on_c, 6, 67, 0
2, 285312, Note_on_c, 6, 55, 0
2, 285360, Note_on_c, 6, 69, 72
2, 285420, Note_on_c, 6, 69, 0
2, 285420, Note_on_c, 6, 67, 72
2, 285480, Note_on_c, 6, 67, 0
2, 285480, Note_on_c, 6, 66, 72
2, 285540, Note_on_c, 6, 66, 0
2, 285540, Note_on_c, 6, 67, 72
2, 285600, Note_on_c, 6, 67, 0
2, 285600, Note_on_c, 6, 69, 72
2, 285840, Note_on_c, 6, 69, 0
2, 285840, Note_on_c, 6, 66, 72
2, 286032, Note_on_c, 6, 66, 0
2, 286080, Note_on_c, 6, 71, 112
2, 287232, Note_on_c, 6, 71, 0
2, 287280, Note_on_c, 6, 72, 72
2, 287340, Note_on_c, 6, 72, 0
2, 287340, Note_on_c, 6, 71, 72
2, 287400, Note_on_c, 6, 71, 0
2, 287400, Note_on_c, 6, 69, 72
2, 287460, Note_on_c, 6, 69, 0
2, 287460, Note_on_c, 6, 71, 72
2, 287520, Note_on_c, 6, 71, 0
2, 287520, Note_on_c, 6, 72, 72
2, 287760, Note_on_c, 6, 72, 0
2, 287760, Note_on_c, 6, 69, 72
2, 287952, Note_on_c, 6, 69, 0
2, 288000, Note_on_c, 6, 74, 72
2, 288096, Note_on_c, 6, 74, 0
2, 288120, Note_on_c, 6, 74, 72
2, 288216, Note_on_c, 6, 74, 0
2, 288240, Note_on_c, 6, 74, 72
2, 288336, Note_on_c, 6, 74, 0
2, 288360, Note_on_c, 6, 74, 72
2, 288456, Note_on_c, 6, 74, 0
2, 288480, Note_on_c, 6, 74, 72
2, 288576, Note_on_c, 6, 74, 0
2, 288600, Note_on_c, 6, 74, 72
2, 288696, Note_on_c, 6, 74, 0
2, 288720, Note_on_c, 6, 74, 72
2, 288816, Note_on_c, 6, 74, 0
2, 288840, Note_on_c, 6, 74, 72
2, 288936, Note_on_c, 6, 74, 0
2, 288960, Note_on_c, 6, 76, 81
2, 289056, Note_on_c, 6, 76, 0
2, 289080, Note_on_c, 6, 76, 81
2, 289176, Note_on_c, 6, 76, 0
2, 289200, Note_on_c, 6, 76, 81
2, 289296, Note_on_c, 6, 76, 0
2, 289320, Note_on_c, 6, 76, 81
2, 289416, Note_on_c, 6, 76, 0
2, 289440, Note_on_c, 6, 78, 81
2, 289536, Note_on_c, 6, 78, 0
2, 289560, Note_on_c, 6, 78, 81
2, 289656, Note_on_c, 6, 78, 0
2, 289680, Note_on_c, 6, 78, 81
2, 289776, Note_on_c, 6, 78, 0
2, 289800, Note_on_c, 6, 78, 81
2, 289896, Note_on_c, 6, 78, 0
2, 289920, Note_on_c, 6, 79, 92
2, 290016, Note_on_c, 6, 79, 0
2, 290040, Note_on_c, 6, 79, 92
2, 290136, Note_on_c, 6, 79, 0
2, 290160, Note_on_c, 6, 79, 92
2, 290256, Note_on_c, 6, 79, 0
2, 290280, Note_on_c, 6, 79, 92
2, 290376, Note_on_c, 6, 79, 0
2, 290400, Note_on_c, 6, 81, 92
2, 290496, Note_on_c, 6, 81, 0
2, 290520, Note_on_c, 6, 81, 92
2, 290616, Note_on_c, 6, 81, 0
2, 290640, Note_on_c, 6, 81, 92
2, 290736, Note_on_c, 6, 81, 0
2, 290760, Note_on_c, 6, 81, 92
2, 290856, Note_on_c, 6, 81, 0
2, 290880, Note_on_c, 6, 83, 105
2, 290976, Note_on_c, 6, 83, 0
2, 291000, Note_on_c, 6, 83, 105
2, 291096, Note_on_c, 6, 83, 0
2, 291120, Note_on_c, 6, 83, 105
2, 291216, Note_on_c, 6, 83, 0
2, 291240, Note_on_c, 6, 83, 105
2, 291336, Note_on_c, 6, 83, 0
2, 291360, Note_on_c, 6, 85, 105
2, 291456, Note_on_c, 6, 85, 0
2, 291480, Note_on_c, 6, 85, 116
2, 291576, Note_on_c, 6, 85, 0
2, 291600, Note_on_c, 6, 85, 116
2, 291696, Note_on_c, 6, 85, 0
2, 291720, Note_on_c, 6, 85, 116
2, 291816, Note_on_c, 6, 85, 0
2, 291840, Note_on_c, 6, 86, 127
2, 292560, Note_on_c, 6, 86, 0
2, 292560, Note_on_c, 6, 81, 116
2, 292752, Note_on_c, 6, 81, 0
2, 292800, Note_on_c, 6, 85, 116
2, 293160, Note_on_c, 6, 85, 0
2, 293160, Note_on_c, 6, 81, 116
2, 293256, Note_on_c, 6, 81, 0
2, 293280, Note_on_c, 6, 85, 116
2, 293640, Note_on_c, 6, 85, 0
2, 293640, Note_on_c, 6, 81, 116
2, 293736, Note_on_c, 6, 81, 0
2, 293760, Note_on_c, 6, 86, 127
2, 294480, Note_on_c, 6, 86, 0
2, 294480, Note_on_c, 6, 81, 116
2, 294672, Note_on_c, 6, 81, 0
2, 294720, Note_on_c, 6, 85, 116
2, 295080, Note_on_c, 6, 85, 0
2, 295080, Note_on_c, 6, 81, 116
2, 295176, Note_on_c, 6, 81, 0
2, 295200, Note_on_c, 6, 85, 116
2, 295560, Note_on_c, 6, 85, 0
2, 295560, Note_on_c, 6, 81, 116
2, 295656, Note_on_c, 6, 81, 0
2, 295680, Note_on_c, 6, 86, 116
2, 295836, Note_on_c, 6, 86, 0
2, 295920, Note_on_c, 6, 81, 116
2, 296076, Note_on_c, 6, 81, 0
2, 296160, Note_on_c, 6, 85, 116
2, 296316, Note_on_c, 6, 85, 0
2, 296400, Note_on_c, 6, 81, 116
2, 296556, Note_on_c, 6, 81, 0
2, 296640, Note_on_c, 6, 86, 116
2, 296796, Note_on_c, 6, 86, 0
2, 296880, Note_on_c, 6, 81, 116
2, 297036, Note_on_c, 6, 81, 0
2, 297120, Note_on_c, 6, 85, 116
2, 297276, Note_on_c, 6, 85, 0
2, 297360, Note_on_c, 6, 81, 116
2, 297516, Note_on_c, 6, 81, 0
2, 297600, Note_on_c, 6, 86, 116
2, 297756, Note_on_c, 6, 86, 0
2, 297840, Note_on_c, 6, 62, 116
2, 297996, Note_on_c, 6, 62, 0
2, 298080, Note_on_c, 6, 62, 105
2, 298236, Note_on_c, 6, 62, 0
2, 298320, Note_on_c, 6, 62, 105
2, 298476, Note_on_c, 6, 62, 0
2, 298560, Note_on_c, 6, 62, 92
2, 298944, Note_on_c, 6, 62, 0
2, 299520, Note_on_c, 6, 74, 72
2, 300240, Note_on_c, 6, 74, 0
2, 300240, Note_on_c, 6, 72, 72
2, 300320, Note_on_c, 6, 72, 0
2, 300320, Note_on_c, 6, 71, 72
2, 300400, Note_on_c, 6, 71, 0
2, 300400, Note_on_c, 6, 69, 72
2, 300480, Note_on_c, 6, 69, 0
2, 300480, Note_on_c, 6, 67, 72
2, 300672, Note_on_c, 6, 67, 0
2, 300960, Note_on_c, 6, 76, 72
2, 301152, Note_on_c, 6, 76, 0
2, 301440, Note_on_c, 6, 72, 72
2, 301632, Note_on_c, 6, 72, 0
2, 301920, Note_on_c, 6, 69, 72
2, 302112, Note_on_c, 6, 69, 0
2, 302400, Note_on_c, 6, 74, 72
2, 302592, Note_on_c, 6, 74, 0
2, 303360, Note_on_c, 6, 83, 72
2, 304080, Note_on_c, 6, 83, 0
2, 304080, Note_on_c, 6, 81, 72
2, 304160, Note_on_c, 6, 81, 0
2, 304160, Note_on_c, 6, 79, 72
2, 304240, Note_on_c, 6, 79, 0
2, 304240, Note_on_c, 6, 78, 72
2, 304320, Note_on_c, 6, 78, 0
2, 304320, Note_on_c, 6, 76, 72
2, 304512, Note_on_c, 6, 76, 0
2, 304800, Note_on_c, 6, 84, 72
2, 304992, Note_on_c, 6, 84, 0
2, 305280, Note_on_c, 6, 83, 72
2, 306240, Note_on_c, 6, 83, 0
2, 306240, Note_on_c, 6, 81, 72
2, 306624, Note_on_c, 6, 81, 0
2, 307440, Note_on_c, 6, 86, 72
2, 307584, Note_on_c, 6, 86, 0
2, 307680, Note_on_c, 6, 86, 72
2, 307824, Note_on_c, 6, 86, 0
2, 307920, Note_on_c, 6, 86, 72
2, 308064, Note_on_c, 6, 86, 0
2, 308160, Note_on_c, 6, 86, 72
2, 308304, Note_on_c, 6, 86, 0
2, 308400, Note_on_c, 6, 86, 72
2, 308544, Note_on_c, 6, 86, 0
2, 308640, Note_on_c, 6, 86, 72
2, 308784, Note_on_c, 6, 86, 0
2, 308880, Note_on_c, 6, 86, 72
2, 309024, Note_on_c, 6, 86, 0
2, 309120, Note_on_c, 6, 86, 72
2, 309264, Note_on_c, 6, 86, 0
2, 309360, Note_on_c, 6, 86, 72
2, 309504, Note_on_c, 6, 86, 0
2, 309600, Note_on_c, 6, 86, 72
2, 309744, Note_on_c, 6, 86, 0
2, 309840, Note_on_c, 6, 86, 72
2, 309984, Note_on_c, 6, 86, 0
2, 310080, Note_on_c, 6, 86, 72
2, 310320, Note_on_c, 6, 86, 0
2, 310320, Note_on_c, 6, 84, 72
2, 310560, Note_on_c, 6, 84, 0
2, 310560, Note_on_c, 6, 81, 72
2, 310800, Note_on_c, 6, 81, 0
2, 310800, Note_on_c, 6, 78, 72
2, 310992, Note_on_c, 6, 78, 0
2, 311040, Note_on_c, 6, 78, 72
2, 311280, Note_on_c, 6, 78, 0
2, 311280, Note_on_c, 6, 79, 72
2, 311472, Note_on_c, 6, 79, 0
2, 311760, Note_on_c, 6, 76, 72
2, 311904, Note_on_c, 6, 76, 0
2, 312000, Note_on_c, 6, 76, 72
2, 312240, Note_on_c, 6, 76, 0
2, 312240, Note_on_c, 6, 74, 72
2, 312432, Note_on_c, 6, 74, 0
2, 312720, Note_on_c, 6, 66, 72
2, 312864, Note_on_c, 6, 66, 0
2, 312960, Note_on_c, 6, 67, 58
2, 313344, Note_on_c, 6, 67, 0
2, 313680, Note_on_c, 6, 74, 72
2, 313824, Note_on_c, 6, 74, 0
2, 313920, Note_on_c, 6, 79, 72
2, 314160, Note_on_c, 6, 79, 0
2, 314160, Note_on_c, 6, 78, 72
2, 314400, Note_on_c, 6, 78, 0
2, 314400, Note_on_c, 6, 76, 72
2, 314640, Note_on_c, 6, 76, 0
2, 314640, Note_on_c, 6, 74, 72
2, 314832, Note_on_c, 6, 74, 0
2, 314880, Note_on_c, 6, 78, 72
2, 314940, Note_on_c, 6, 78, 0
2, 314940, Note_on_c, 6, 76, 72
2, 315000, Note_on_c, 6, 76, 0
2, 315000, Note_on_c, 6, 78, 72
2, 315060, Note_on_c, 6, 78, 0
2, 315060, Note_on_c, 6, 76, 72
2, 315120, Note_on_c, 6, 76, 0
2, 315120, Note_on_c, 6, 74, 72
2, 315312, Note_on_c, 6, 74, 0
2, 315600, Note_on_c, 6, 74, 72
2, 315744, Note_on_c, 6, 74, 0
2, 315840, Note_on_c, 6, 74, 72
2, 315984, Note_on_c, 6, 74, 0
2, 316080, Note_on_c, 6, 74, 72
2, 316224, Note_on_c, 6, 74, 0
2, 316320, Note_on_c, 6, 74, 72
2, 316464, Note_on_c, 6, 74, 0
2, 316560, Note_on_c, 6, 74, 72
2, 316704, Note_on_c, 6, 74, 0
2, 316800, Note_on_c, 6, 78, 72
2, 316860, Note_on_c, 6, 78, 0
2, 316860, Note_on_c, 6, 76, 72
2, 316920, Note_on_c, 6, 76, 0
2, 316920, Note_on_c, 6, 78, 72
2, 316980, Note_on_c, 6, 78, 0
2, 316980, Note_on_c, 6, 76, 72
2, 317040, Note_on_c, 6, 76, 0
2, 317040, Note_on_c, 6, 74, 72
2, 317232, Note_on_c, 6, 74, 0
2, 317520, Note_on_c, 6, 74, 72
2, 317664, Note_on_c, 6, 74, 0
2, 317760, Note_on_c, 6, 79, 72
2, 318000, Note_on_c, 6, 79, 0
2, 318000, Note_on_c, 6, 78, 72
2, 318240, Note_on_c, 6, 78, 0
2, 318240, Note_on_c, 6, 76, 72
2, 318480, Note_on_c, 6, 76, 0
2, 318480, Note_on_c, 6, 74, 72
2, 318672, Note_on_c, 6, 74, 0
2, 318720, Note_on_c, 6, 78, 72
2, 318780, Note_on_c, 6, 78, 0
2, 318780, Note_on_c, 6, 76, 72
2, 318840, Note_on_c, 6, 76, 0
2, 318840, Note_on_c, 6, 78, 72
2, 318900, Note_on_c, 6, 78, 0
2, 318900, Note_on_c, 6, 76, 72
2, 318960, Note_on_c, 6, 76, 0
2, 318960, Note_on_c, 6, 74, 72
2, 319152, Note_on_c, 6, 74, 0
2, 319440, Note_on_c, 6, 74, 72
2, 319584, Note_on_c, 6, 74, 0
2, 319680, Note_on_c, 6, 74, 72
2, 319824, Note_on_c, 6, 74, 0
2, 319920, Note_on_c, 6, 74, 72
2, 320064, Note_on_c, 6, 74, 0
2, 320160, Note_on_c, 6, 74, 72
2, 320304, Note_on_c, 6, 74, 0
2, 320400, Note_on_c, 6, 74, 72
2, 320544, Note_on_c, 6, 74, 0
2, 320640, Note_on_c, 6, 78, 72
2, 320700, Note_on_c, 6, 78, 0
2, 320700, Note_on_c, 6, 76, 72
2, 320760, Note_on_c, 6, 76, 0
2, 320760, Note_on_c, 6, 78, 72
2, 320820, Note_on_c, 6, 78, 0
2, 320820, Note_on_c, 6, 76, 58
2, 320880, Note_on_c, 6, 76, 0
2, 320880, Note_on_c, 6, 74, 58
2, 321072, Note_on_c, 6, 74, 0
2, 321600, Note_on_c, 6, 76, 116
2, 321600, Note_on_c, 6, 64, 116
2, 322320, Note_on_c, 6, 64, 0
2, 322320, Note_on_c, 6, 76, 0
2, 322320, Note_on_c, 6, 74, 116
2, 322400, Note_on_c, 6, 74, 0
2, 322400, Note_on_c, 6, 72, 116
2, 322480, Note_on_c, 6, 72, 0
2, 322480, Note_on_c, 6, 71, 116
2, 322560, Note_on_c, 6, 71, 0
2, 322560, Note_on_c, 6, 72, 116
2, 322944, Note_on_c, 6, 72, 0
2, 323520, Note_on_c, 6, 74, 116
2, 323520, Note_on_c, 6, 62, 116
2, 324240, Note_on_c, 6, 62, 0
2, 324240, Note_on_c, 6, 74, 0
2, 324240, Note_on_c, 6, 72, 116
2, 324320, Note_on_c, 6, 72, 0
2, 324320, Note_on_c, 6, 71, 116
2, 324400, Note_on_c, 6, 71, 0
2, 324400, Note_on_c, 6, 69, 116
2, 324480, Note_on_c, 6, 69, 0
2, 324480, Note_on_c, 6, 71, 116
2, 324864, Note_on_c, 6, 71, 0
2, 325440, Note_on_c, 6, 76, 116
2, 325680, Note_on_c, 6, 76, 0
2, 325680, Note_on_c, 6, 78, 116
2, 325800, Note_on_c, 6, 78, 0
2, 325800, Note_on_c, 6, 79, 116
2, 325920, Note_on_c, 6, 79, 0
2, 325920, Note_on_c, 6, 78, 116
2, 326064, Note_on_c, 6, 78, 0
2, 326160, Note_on_c, 6, 76, 116
2, 326304, Note_on_c, 6, 76, 0
2, 326400, Note_on_c, 6, 76, 116
2, 326640, Note_on_c, 6, 76, 0
2, 326640, Note_on_c, 6, 74, 116
2, 326796, Note_on_c, 6, 74, 0
2, 326880, Note_on_c, 6, 71, 116
2, 327036, Note_on_c, 6, 71, 0
2, 327120, Note_on_c, 6, 74, 116
2, 327276, Note_on_c, 6, 74, 0
2, 327360, Note_on_c, 6, 74, 116
2, 327600, Note_on_c, 6, 74, 0
2, 327600, Note_on_c, 6, 72, 116
2, 327756, Note_on_c, 6, 72, 0
2, 327840, Note_on_c, 6, 71, 116
2, 327996, Note_on_c, 6, 71, 0
2, 328080, Note_on_c, 6, 69, 116
2, 328236, Note_on_c, 6, 69, 0
2, 328320, Note_on_c, 6, 67, 92
2, 328704, Note_on_c, 6, 67, 0
2, 329040, Note_on_c, 6, 74, 72
2, 329184, Note_on_c, 6, 74, 0
2, 329280, Note_on_c, 6, 79, 72
2, 329520, Note_on_c, 6, 79, 0
2, 329520, Note_on_c, 6, 78, 72
2, 329760, Note_on_c, 6, 78, 0
2, 329760, Note_on_c, 6, 76, 72
2, 330000, Note_on_c, 6, 76, 0
2, 330000, Note_on_c, 6, 74, 72
2, 330192, Note_on_c, 6, 74, 0
2, 330240, Note_on_c, 6, 78, 72
2, 330300, Note_on_c, 6, 78, 0
2, 330300, Note_on_c, 6, 76, 72
2, 330360, Note_on_c, 6, 76, 0
2, 330360, Note_on_c, 6, 78, 72
2, 330420, Note_on_c, 6, 78, 0
2, 330420, Note_on_c, 6, 76, 72
2, 330480, Note_on_c, 6, 76, 0
2, 330480, Note_on_c, 6, 74, 72
2, 330672, Note_on_c, 6, 74, 0
2, 330960, Note_on_c, 6, 74, 72
2, 331104, Note_on_c, 6, 74, 0
2, 331200, Note_on_c, 6, 74, 72
2, 331344, Note_on_c, 6, 74, 0
2, 331440, Note_on_c, 6, 74, 72
2, 331584, Note_on_c, 6, 74, 0
2, 331680, Note_on_c, 6, 74, 72
2, 331824, Note_on_c, 6, 74, 0
2, 331920, Note_on_c, 6, 74, 72
2, 332064, Note_on_c, 6, 74, 0
2, 332160, Note_on_c, 6, 78, 72
2, 332220, Note_on_c, 6, 78, 0
2, 332220, Note_on_c, 6, 76, 72
2, 332280, Note_on_c, 6, 76, 0
2, 332280, Note_on_c, 6, 78, 72
2, 332340, Note_on_c, 6, 78, 0
2, 332340, Note_on_c, 6, 76, 72
2, 332400, Note_on_c, 6, 76, 0
2, 332400, Note_on_c, 6, 74, 72
2, 332592, Note_on_c, 6, 74, 0
2, 332880, Note_on_c, 6, 74, 72
2, 333024, Note_on_c, 6, 74, 0
2, 333120, Note_on_c, 6, 79, 72
2, 333360, Note_on_c, 6, 79, 0
2, 333360, Note_on_c, 6, 78, 72
2, 333600, Note_on_c, 6, 78, 0
2, 333600, Note_on_c, 6, 76, 72
2, 333840, Note_on_c, 6, 76, 0
2, 333840, Note_on_c, 6, 74, 72
2, 334032, Note_on_c, 6, 74, 0
2, 334080, Note_on_c, 6, 78, 72
2, 334140, Note_on_c, 6, 78, 0
2, 334140, Note_on_c, 6, 76, 72
2, 334200, Note_on_c, 6, 76, 0
2, 334200, Note_on_c, 6, 78, 72
2, 334260, Note_on_c, 6, 78, 0
2, 334260, Note_on_c, 6, 76, 72
2, 334320, Note_on_c, 6, 76, 0
2, 334320, Note_on_c, 6, 74, 72
2, 334512, Note_on_c, 6, 74, 0
2, 334800, Note_on_c, 6, 74, 72
2, 334944, Note_on_c, 6, 74, 0
2, 335040, Note_on_c, 6, 74, 72
2, 335184, Note_on_c, 6, 74, 0
2, 335280, Note_on_c, 6, 74, 72
2, 335424, Note_on_c, 6, 74, 0
2, 335520, Note_on_c, 6, 74, 72
2, 335664, Note_on_c, 6, 74, 0
2, 335760, Note_on_c, 6, 74, 72
2, 335904, Note_on_c, 6, 74, 0
2, 336000, Note_on_c, 6, 78, 72
2, 336060, Note_on_c, 6, 78, 0
2, 336060, Note_on_c, 6, 76, 72
2, 336120, Note_on_c, 6, 76, 0
2, 336120, Note_on_c, 6, 78, 72
2, 336180, Note_on_c, 6, 78, 0
2, 336180, Note_on_c, 6, 76, 58
2, 336240, Note_on_c, 6, 76, 0
2, 336240, Note_on_c, 6, 74, 58
2, 336432, Note_on_c, 6, 74, 0
2, 336960, Note_on_c, 6, 88, 105
2, 337680, Note_on_c, 6, 88, 0
2, 337680, Note_on_c, 6, 86, 105
2, 337760, Note_on_c, 6, 86, 0
2, 337760, Note_on_c, 6, 84, 105
2, 337840, Note_on_c, 6, 84, 0
2, 337840, Note_on_c, 6, 83, 105
2, 337920, Note_on_c, 6, 83, 0
2, 337920, Note_on_c, 6, 84, 105
2, 338304, Note_on_c, 6, 84, 0
2, 338880, Note_on_c, 6, 86, 105
2, 338880, Note_on_c, 6, 74, 105
2, 339600, Note_on_c, 6, 74, 0
2, 339600, Note_on_c, 6, 86, 0
2, 339600, Note_on_c, 6, 84, 105
2, 339680, Note_on_c, 6, 84, 0
2, 339680, Note_on_c, 6, 83, 105
2, 339760, Note_on_c, 6, 83, 0
2, 339760, Note_on_c, 6, 81, 105
2, 339840, Note_on_c, 6, 81, 0
2, 339840, Note_on_c, 6, 83, 105
2, 340224, Note_on_c, 6, 83, 0
2, 340800, Note_on_c, 6, 76, 105
2, 341040, Note_on_c, 6, 76, 0
2, 341040, Note_on_c, 6, 78, 105
2, 341160, Note_on_c, 6, 78, 0
2, 341160, Note_on_c, 6, 79, 105
2, 341280, Note_on_c, 6, 79, 0
2, 341280, Note_on_c, 6, 78, 105
2, 341424, Note_on_c, 6, 78, 0
2, 341520, Note_on_c, 6, 76, 105
2, 341664, Note_on_c, 6, 76, 0
2, 341760, Note_on_c, 6, 74, 105
2, 342000, Note_on_c, 6, 74, 0
2, 342000, Note_on_c, 6, 79, 105
2, 342156, Note_on_c, 6, 79, 0
2, 342240, Note_on_c, 6, 83, 105
2, 342396, Note_on_c, 6, 83, 0
2, 342480, Note_on_c, 6, 86, 105
2, 342636, Note_on_c, 6, 86, 0
2, 342720, Note_on_c, 6, 86, 105
2, 342960, Note_on_c, 6, 86, 0
2, 342960, Note_on_c, 6, 84, 105
2, 343116, Note_on_c, 6, 84, 0
2, 343200, Note_on_c, 6, 83, 105
2, 343356, Note_on_c, 6, 83, 0
2, 343440, Note_on_c, 6, 81, 105
2, 343596, Note_on_c, 6, 81, 0
2, 343680, Note_on_c, 6, 79, 105
2, 343836, Note_on_c, 6, 79, 0
2, 343920, Note_on_c, 6, 62, 105
2, 344076, Note_on_c, 6, 62, 0
2, 344160, Note_on_c, 6, 64, 105
2, 344316, Note_on_c, 6, 64, 0
2, 344400, Note_on_c, 6, 66, 105
2, 344556, Note_on_c, 6, 66, 0
2, 344640, Note_on_c, 6, 67, 105
2, 344796, Note_on_c, 6, 67, 0
2, 344880, Note_on_c, 6, 67, 105
2, 345036, Note_on_c, 6, 67, 0
2, 345120, Note_on_c, 6, 71, 105
2, 345168, Note_on_c, 6, 71, 0
2, 345180, Note_on_c, 6, 69, 105
2, 345240, Note_on_c, 6, 69, 0
2, 345240, Note_on_c, 6, 71, 105
2, 345300, Note_on_c, 6, 71, 0
2, 345300, Note_on_c, 6, 69, 105
2, 345360, Note_on_c, 6, 69, 0
2, 345360, Note_on_c, 6, 67, 105
2, 345480, Note_on_c, 6, 67, 0
2, 345480, Note_on_c, 6, 69, 105
2, 345600, Note_on_c, 6, 69, 0
2, 345600, Note_on_c, 6, 71, 105
2, 345756, Note_on_c, 6, 71, 0
2, 345840, Note_on_c, 6, 66, 105
2, 345996, Note_on_c, 6, 66, 0
2, 346080, Note_on_c, 6, 67, 105
2, 346236, Note_on_c, 6, 67, 0
2, 346320, Note_on_c, 6, 69, 105
2, 346476, Note_on_c, 6, 69, 0
2, 346560, Note_on_c, 6, 71, 105
2, 346716, Note_on_c, 6, 71, 0
2, 346800, Note_on_c, 6, 71, 105
2, 346956, Note_on_c, 6, 71, 0
2, 347040, Note_on_c, 6, 74, 105
2, 347100, Note_on_c, 6, 74, 0
2, 347100, Note_on_c, 6, 72, 105
2, 347160, Note_on_c, 6, 72, 0
2, 347160, Note_on_c, 6, 74, 105
2, 347220, Note_on_c, 6, 74, 0
2, 347220, Note_on_c, 6, 72, 105
2, 347280, Note_on_c, 6, 72, 0
2, 347280, Note_on_c, 6, 71, 105
2, 347400, Note_on_c, 6, 71, 0
2, 347400, Note_on_c, 6, 72, 105
2, 347520, Note_on_c, 6, 72, 0
2, 347520, Note_on_c, 6, 74, 105
2, 347676, Note_on_c, 6, 74, 0
2, 347760, Note_on_c, 6, 74, 105
2, 347916, Note_on_c, 6, 74, 0
2, 348000, Note_on_c, 6, 76, 105
2, 348060, Note_on_c, 6, 76, 0
2, 348060, Note_on_c, 6, 75, 105
2, 348120, Note_on_c, 6, 75, 0
2, 348120, Note_on_c, 6, 76, 105
2, 348180, Note_on_c, 6, 76, 0
2, 348180, Note_on_c, 6, 75, 105
2, 348240, Note_on_c, 6, 75, 0
2, 348240, Note_on_c, 6, 73, 105
2, 348360, Note_on_c, 6, 73, 0
2, 348360, Note_on_c, 6, 75, 105
2, 348480, Note_on_c, 6, 75, 0
2, 348480, Note_on_c, 6, 76, 105
2, 348864, Note_on_c, 6, 76, 0
2, 349440, Note_on_c, 6, 64, 72
2, 350160, Note_on_c, 6, 64, 0
2, 350160, Note_on_c, 6, 69, 72
2, 350352, Note_on_c, 6, 69, 0
2, 350400, Note_on_c, 6, 67, 72
2, 350640, Note_on_c, 6, 67, 0
2, 350640, Note_on_c, 6, 66, 72
2, 350880, Note_on_c, 6, 66, 0
2, 350880, Note_on_c, 6, 64, 72
2, 351120, Note_on_c, 6, 64, 0
2, 351120, Note_on_c, 6, 62, 72
2, 351312, Note_on_c, 6, 62, 0
2, 351360, Note_on_c, 6, 74, 72
2, 351600, Note_on_c, 6, 74, 0
2, 351600, Note_on_c, 6, 73, 72
2, 351840, Note_on_c, 6, 73, 0
2, 351840, Note_on_c, 6, 72, 72
2, 352080, Note_on_c, 6, 72, 0
2, 352080, Note_on_c, 6, 71, 72
2, 352272, Note_on_c, 6, 71, 0
2, 352320, Note_on_c, 6, 74, 72
2, 352560, Note_on_c, 6, 74, 0
2, 352560, Note_on_c, 6, 73, 72
2, 352800, Note_on_c, 6, 73, 0
2, 352800, Note_on_c, 6, 72, 72
2, 353040, Note_on_c, 6, 72, 0
2, 353040, Note_on_c, 6, 71, 72
2, 353232, Note_on_c, 6, 71, 0
2, 353280, Note_on_c, 6, 64, 72
2, 354000, Note_on_c, 6, 64, 0
2, 354000, Note_on_c, 6, 69, 72
2, 354192, Note_on_c, 6, 69, 0
2, 354240, Note_on_c, 6, 67, 72
2, 354480, Note_on_c, 6, 67, 0
2, 354480, Note_on_c, 6, 66, 72
2, 354720, Note_on_c, 6, 66, 0
2, 354720, Note_on_c, 6, 64, 72
2, 354960, Note_on_c, 6, 64, 0
2, 354960, Note_on_c, 6, 62, 72
2, 355152, Note_on_c, 6, 62, 0
2, 355200, Note_on_c, 6, 74, 72
2, 355440, Note_on_c, 6, 74, 0
2, 355440, Note_on_c, 6, 76, 72
2, 355680, Note_on_c, 6, 76, 0
2, 355680, Note_on_c, 6, 78, 72
2, 355920, Note_on_c, 6, 78, 0
2, 355920, Note_on_c, 6, 79, 72
2, 356112, Note_on_c, 6, 79, 0
2, 356160, Note_on_c, 6, 74, 72
2, 356400, Note_on_c, 6, 74, 0
2, 356400, Note_on_c, 6, 76, 72
2, 356640, Note_on_c, 6, 76, 0
2, 356640, Note_on_c, 6, 78, 72
2, 356880, Note_on_c, 6, 78, 0
2, 356880, Note_on_c, 6, 79, 72
2, 357072, Note_on_c, 6, 79, 0
2, 357120, Note_on_c, 6, 81, 58
2, 357504, Note_on_c, 6, 81, 0
2, 358080, Note_on_c, 6, 86, 105
2, 358080, Note_on_c, 6, 62, 105
2, 358080, Note_on_c, 6, 74, 105
2, 358464, Note_on_c, 6, 74, 0
2, 358464, Note_on_c, 6, 62, 0
2, 358464, Note_on_c, 6, 86, 0
2, 359040, Note_on_c, 6, 62, 116
2, 359040, Note_on_c, 6, 71, 116
2, 359040, Note_on_c, 6, 79, 116
2, 359424, Note_on_c, 6, 79, 0
2, 359424, Note_on_c, 6, 71, 0
2, 359424, Note_on_c, 6, 62, 0
2, 359760, Note_on_c, 6, 74, 116
2, 359916, Note_on_c, 6, 74, 0
2, 360000, Note_on_c, 6, 71, 116
2, 360156, Note_on_c, 6, 71, 0
2, 360240, Note_on_c, 6, 67, 116
2, 360396, Note_on_c, 6, 67, 0
2, 360480, Note_on_c, 6, 71, 116
2, 360636, Note_on_c, 6, 71, 0
2, 360720, Note_on_c, 6, 74, 116
2, 360876, Note_on_c, 6, 74, 0
2, 360960, Note_on_c, 6, 79, 116
2, 361116, Note_on_c, 6, 79, 0
2, 361200, Note_on_c, 6, 74, 116
2, 361356, Note_on_c, 6, 74, 0
2, 361440, Note_on_c, 6, 79, 116
2, 361596, Note_on_c, 6, 79, 0
2, 361680, Note_on_c, 6, 83, 116
2, 361836, Note_on_c, 6, 83, 0
2, 361920, Note_on_c, 6, 86, 116
2, 362232, Note_on_c, 6, 86, 0
2, 362400, Note_on_c, 6, 62, 116
2, 362400, Note_on_c, 6, 78, 116
2, 362400, Note_on_c, 6, 69, 116
2, 362712, Note_on_c, 6, 69, 0
2, 362712, Note_on_c, 6, 78, 0
2, 362712, Note_on_c, 6, 62, 0
2, 362880, Note_on_c, 6, 79, 116
2, 362880, Note_on_c, 6, 62, 116
2, 362880, Note_on_c, 6, 71, 116
2, 363264, Note_on_c, 6, 71, 0
2, 363264, Note_on_c, 6, 62, 0
2, 363264, Note_on_c, 6, 79, 0
2, 363600, Note_on_c, 6, 74, 116
2, 363756, Note_on_c, 6, 74, 0
2, 363840, Note_on_c, 6, 71, 116
2, 363996, Note_on_c, 6, 71, 0
2, 364080, Note_on_c, 6, 67, 116
2, 364236, Note_on_c, 6, 67, 0
2, 364320, Note_on_c, 6, 71, 116
2, 364476, Note_on_c, 6, 71, 0
2, 364560, Note_on_c, 6, 74, 116
2, 364716, Note_on_c, 6, 74, 0
2, 364800, Note_on_c, 6, 79, 116
2, 364956, Note_on_c, 6, 79, 0
2, 365040, Note_on_c, 6, 74, 116
2, 365196, Note_on_c, 6, 74, 0
2, 365280, Note_on_c, 6, 79, 116
2, 365436, Note_on_c, 6, 79, 0
2, 365520, Note_on_c, 6, 83, 116
2, 365676, Note_on_c, 6, 83, 0
2, 365760, Note_on_c, 6, 86, 116
2, 366072, Note_on_c, 6, 86, 0
2, 366240, Note_on_c, 6, 62, 116
2, 366240, Note_on_c, 6, 69, 116
2, 366240, Note_on_c, 6, 78, 116
2, 366552, Note_on_c, 6, 78, 0
2, 366552, Note_on_c, 6, 69, 0
2, 366552, Note_on_c, 6, 62, 0
2, 366720, Note_on_c, 6, 71, 116
2, 366720, Note_on_c, 6, 62, 116
2, 366720, Note_on_c, 6, 79, 116
2, 367104, Note_on_c, 6, 79, 0
2, 367104, Note_on_c, 6, 62, 0
2, 367104, Note_on_c, 6, 71, 0
2, 367680, Note_on_c, 6, 62, 105
2, 367680, Note_on_c, 6, 79, 105
2, 367680, Note_on_c, 6, 71, 105
2, 368064, Note_on_c, 6, 71, 0
2, 368064, Note_on_c, 6, 79, 0
2, 368064, Note_on_c, 6, 62, 0
2, 368640, Note_on_c, 6, 62, 105
2, 368640, Note_on_c, 6, 71, 105
2, 368640, Note_on_c, 6, 79, 105
2, 368952, Note_on_c, 6, 79, 0
2, 368952, Note_on_c, 6, 71, 0
2, 368952, Note_on_c, 6, 62, 0
2, 369120, Note_on_c, 6, 55, 105
2, 369120, Note_on_c, 6, 67, 105
2, 369354, Note_on_c, 6, 67, 0
2, 369354, Note_on_c, 6, 55, 0
2, 369480, Note_on_c, 6, 67, 105
2, 369480, Note_on_c, 6, 55, 105
2, 369558, Note_on_c, 6, 55, 0
2, 369558, Note_on_c, 6, 67, 0
2, 369600, Note_on_c, 6, 67, 105
2, 369600, Note_on_c, 6, 55, 105
2, 369984, Note_on_c, 6, 55, 0
2, 369984, Note_on_c, 6, 67, 0
2, 369984, End_track
3, 0, Start_track
3, 0, Program_c, 7, 48
3, 0, Control_c, 7, 7, 127
3, 0, Control_c, 7, 10, 92
3, 0, Control_c, 7, 91, 85
3, 1920, Note_on_c, 7, 71, 105
3, 1920, Note_on_c, 7, 79, 105
3, 1920, Note_on_c, 7, 62, 105
3, 2304, Note_on_c, 7, 62, 0
3, 2304, Note_on_c, 7, 79, 0
3, 2304, Note_on_c, 7, 71, 0
3, 2640, Note_on_c, 7, 74, 92
3, 2784, Note_on_c, 7, 74, 0
3, 2880, Note_on_c, 7, 79, 92
3, 3264, Note_on_c, 7, 79, 0
3, 3600, Note_on_c, 7, 74, 92
3, 3744, Note_on_c, 7, 74, 0
3, 3840, Note_on_c, 7, 79, 92
3, 3984, Note_on_c, 7, 79, 0
3, 4080, Note_on_c, 7, 74, 92
3, 4224, Note_on_c, 7, 74, 0
3, 4320, Note_on_c, 7, 79, 92
3, 4464, Note_on_c, 7, 79, 0
3, 4560, Note_on_c, 7, 83, 92
3, 4704, Note_on_c, 7, 83, 0
3, 4800, Note_on_c, 7, 86, 92
3, 5184, Note_on_c, 7, 86, 0
3, 5760, Note_on_c, 7, 84, 92
3, 6144, Note_on_c, 7, 84, 0
3, 6480, Note_on_c, 7, 81, 92
3, 6624, Note_on_c, 7, 81, 0
3, 6720, Note_on_c, 7, 84, 92
3, 7104, Note_on_c, 7, 84, 0
3, 7440, Note_on_c, 7, 81, 92
3, 7584, Note_on_c, 7, 81, 0
3, 7680, Note_on_c, 7, 84, 92
3, 7824, Note_on_c, 7, 84, 0
3, 7920, Note_on_c, 7, 81, 92
3, 8064, Note_on_c, 7, 81, 0
3, 8160, Note_on_c, 7, 78, 92
3, 8304, Note_on_c, 7, 78, 0
3, 8400, Note_on_c, 7, 81, 92
3, 8544, Note_on_c, 7, 81, 0
3, 8640, Note_on_c, 7, 74, 92
3, 9024, Note_on_c, 7, 74, 0
3, 9600, Note_on_c, 7, 62, 105
3, 9600, Note_on_c, 7, 59, 105
3, 9696, Note_on_c, 7, 59, 0
3, 9696, Note_on_c, 7, 62, 0
3, 9720, Note_on_c, 7, 59, 105
3, 9720, Note_on_c, 7, 62, 105
3, 9816, Note_on_c, 7, 62, 0
3, 9816, Note_on_c, 7, 59, 0
3, 9840, Note_on_c, 7, 62, 105
3, 9840, Note_on_c, 7, 59, 105
3, 9936, Note_on_c, 7, 59, 0
3, 9936, Note_on_c, 7, 62, 0
3, 9960, Note_on_c, 7, 59, 105
3, 9960, Note_on_c, 7, 62, 105
3, 10056, Note_on_c, 7, 62, 0
3, 10056, Note_on_c, 7, 59, 0
3, 10080, Note_on_c, 7, 59, 105
3, 10080, Note_on_c, 7, 62, 105
3, 10176, Note_on_c, 7, 62, 0
3, 10176, Note_on_c, 7, 59, 0
3, 10200, Note_on_c, 7, 59, 105
3, 10200, Note_on_c, 7, 62, 105
3, 10296, Note_on_c, 7, 62, 0
3, 10296, Note_on_c, 7, 59, 0
3, 10320, Note_on_c, 7, 59, 105
3, 10320, Note_on_c, 7, 62, 105
3, 10416, Note_on_c, 7, 62, 0
3, 10416, Note_on_c, 7, 59, 0
3, 10440, Note_on_c, 7, 59, 105
3, 10440, Note_on_c, 7, 62, 105
3, 10536, Note_on_c, 7, 62, 0
3, 10536, Note_on_c, 7, 59, 0
3, 10560, Note_on_c, 7, 59, 105
3, 10560, Note_on_c, 7, 62, 105
3, 10656, Note_on_c, 7, 62, 0
3, 10656, Note_on_c, 7, 59, 0
3, 10680, Note_on_c, 7, 59, 105
3, 10680, Note_on_c, 7, 62, 105
3, 10776, Note_on_c, 7, 62, 0
3, 10776, Note_on_c, 7, 59, 0
3, 10800, Note_on_c, 7, 62, 105
3, 10800, Note_on_c, 7, 59, 105
3, 10896, Note_on_c, 7, 59, 0
3, 10896, Note_on_c, 7, 62, 0
3, 10920, Note_on_c, 7, 59, 105
3, 10920, Note_on_c, 7, 62, 105
3, 11016, Note_on_c, 7, 62, 0
3, 11016, Note_on_c, 7, 59, 0
3, 11040, Note_on_c, 7, 59, 105
3, 11040, Note_on_c, 7, 62, 105
3, 11136, Note_on_c, 7, 62, 0
3, 11136, Note_on_c, 7, 59, 0
3, 11160, Note_on_c, 7, 59, 105
3, 11160, Note_on_c, 7, 62, 105
3, 11256, Note_on_c, 7, 62, 0
3, 11256, Note_on_c, 7, 59, 0
3, 11280, Note_on_c, 7, 62, 105
3, 11280, Note_on_c, 7, 59, 105
3, 11376, Note_on_c, 7, 59, 0
3, 11376, Note_on_c, 7, 62, 0
3, 11400, Note_on_c, 7, 59, 105
3, 11400, Note_on_c, 7, 62, 105
3, 11496, Note_on_c, 7, 62, 0
3, 11496, Note_on_c, 7, 59, 0
3, 11520, Note_on_c, 7, 60, 105
3, 11520, Note_on_c, 7, 62, 105
3, 11616, Note_on_c, 7, 62, 0
3, 11616, Note_on_c, 7, 60, 0
3, 11640, Note_on_c, 7, 60, 105
3, 11640, Note_on_c, 7, 62, 105
3, 11736, Note_on_c, 7, 62, 0
3, 11736, Note_on_c, 7, 60, 0
3, 11760, Note_on_c, 7, 60, 105
3, 11760, Note_on_c, 7, 62, 105
3, 11856, Note_on_c, 7, 62, 0
3, 11856, Note_on_c, 7, 60, 0
3, 11880, Note_on_c, 7, 62, 105
3, 11880, Note_on_c, 7, 60, 105
3, 11976, Note_on_c, 7, 60, 0
3, 11976, Note_on_c, 7, 62, 0
3, 12000, Note_on_c, 7, 62, 105
3, 12000, Note_on_c, 7, 60, 105
3, 12096, Note_on_c, 7, 60, 0
3, 12096, Note_on_c, 7, 62, 0
3, 12120, Note_on_c, 7, 62, 105
3, 12120, Note_on_c, 7, 60, 105
3, 12216, Note_on_c, 7, 60, 0
3, 12216, Note_on_c, 7, 62, 0
3, 12240, Note_on_c, 7, 62, 105
3, 12240, Note_on_c, 7, 60, 105
3, 12336, Note_on_c, 7, 60, 0
3, 12336, Note_on_c, 7, 62, 0
3, 12360, Note_on_c, 7, 62, 105
3, 12360, Note_on_c, 7, 60, 105
3, 12456, Note_on_c, 7, 60, 0
3, 12456, Note_on_c, 7, 62, 0
3, 12480, Note_on_c, 7, 62, 105
3, 12480, Note_on_c, 7, 60, 105
3, 12576, Note_on_c, 7, 60, 0
3, 12576, Note_on_c, 7, 62, 0
3, 12600, Note_on_c, 7, 60, 105
3, 12600, Note_on_c, 7, 62, 105
3, 12696, Note_on_c, 7, 62, 0
3, 12696, Note_on_c, 7, 60, 0
3, 12720, Note_on_c, 7, 60, 105
3, 12720, Note_on_c, 7, 62, 105
3, 12816, Note_on_c, 7, 62, 0
3, 12816, Note_on_c, 7, 60, 0
3, 12840, Note_on_c, 7, 60, 105
3, 12840, Note_on_c, 7, 62, 105
3, 12936, Note_on_c, 7, 62, 0
3, 12936, Note_on_c, 7, 60, 0
3, 12960, Note_on_c, 7, 60, 105
3, 12960, Note_on_c, 7, 62, 105
3, 13056, Note_on_c, 7, 62, 0
3, 13056, Note_on_c, 7, 60, 0
3, 13080, Note_on_c, 7, 60, 105
3, 13080, Note_on_c, 7, 62, 105
3, 13176, Note_on_c, 7, 62, 0
3, 13176, Note_on_c, 7, 60, 0
3, 13200, Note_on_c, 7, 60, 105
3, 13200, Note_on_c, 7, 62, 105
3, 13296, Note_on_c, 7, 62, 0
3, 13296, Note_on_c, 7, 60, 0
3, 13320, Note_on_c, 7, 62, 105
3, 13320, Note_on_c, 7, 60, 105
3, 13416, Note_on_c, 7, 60, 0
3, 13416, Note_on_c, 7, 62, 0
3, 13440, Note_on_c, 7, 62, 105
3, 13440, Note_on_c, 7, 59, 105
3, 13536, Note_on_c, 7, 59, 0
3, 13536, Note_on_c, 7, 62, 0
3, 13560, Note_on_c, 7, 62, 105
3, 13560, Note_on_c, 7, 59, 105
3, 13656, Note_on_c, 7, 59, 0
3, 13656, Note_on_c, 7, 62, 0
3, 13680, Note_on_c, 7, 59, 105
3, 13680, Note_on_c, 7, 62, 105
3, 13776, Note_on_c, 7, 62, 0
3, 13776, Note_on_c, 7, 59, 0
3, 13800, Note_on_c, 7, 59, 105
3, 13800, Note_on_c, 7, 62, 105
3, 13896, Note_on_c, 7, 62, 0
3, 13896, Note_on_c, 7, 59, 0
3, 13920, Note_on_c, 7, 62, 105
3, 13920, Note_on_c, 7, 59, 105
3, 14016, Note_on_c, 7, 59, 0
3, 14016, Note_on_c, 7, 62, 0
3, 14040, Note_on_c, 7, 62, 105
3, 14040, Note_on_c, 7, 59, 105
3, 14136, Note_on_c, 7, 59, 0
3, 14136, Note_on_c, 7, 62, 0
3, 14160, Note_on_c, 7, 62, 105
3, 14160, Note_on_c, 7, 59, 105
3, 14256, Note_on_c, 7, 59, 0
3, 14256, Note_on_c, 7, 62, 0
3, 14280, Note_on_c, 7, 59, 105
3, 14280, Note_on_c, 7, 62, 105
3, 14376, Note_on_c, 7, 62, 0
3, 14376, Note_on_c, 7, 59, 0
3, 14400, Note_on_c, 7, 62, 105
3, 14400, Note_on_c, 7, 59, 105
3, 14496, Note_on_c, 7, 59, 0
3, 14496, Note_on_c, 7, 62, 0
3, 14520, Note_on_c, 7, 62, 105
3, 14520, Note_on_c, 7, 59, 105
3, 14616, Note_on_c, 7, 59, 0
3, 14616, Note_on_c, 7, 62, 0
3, 14640, Note_on_c, 7, 62, 105
3, 14640, Note_on_c, 7, 59, 105
3, 14736, Note_on_c, 7, 59, 0
3, 14736, Note_on_c, 7, 62, 0
3, 14760, Note_on_c, 7, 59, 105
3, 14760, Note_on_c, 7, 62, 105
3, 14856, Note_on_c, 7, 62, 0
3, 14856, Note_on_c, 7, 59, 0
3, 14880, Note_on_c, 7, 59, 105
3, 14880, Note_on_c, 7, 62, 105
3, 14976, Note_on_c, 7, 62, 0
3, 14976, Note_on_c, 7, 59, 0
3, 15000, Note_on_c, 7, 59, 105
3, 15000, Note_on_c, 7, 62, 105
3, 15096, Note_on_c, 7, 62, 0
3, 15096, Note_on_c, 7, 59, 0
3, 15120, Note_on_c, 7, 59, 105
3, 15120, Note_on_c, 7, 62, 105
3, 15216, Note_on_c, 7, 62, 0
3, 15216, Note_on_c, 7, 59, 0
3, 15240, Note_on_c, 7, 62, 105
3, 15240, Note_on_c, 7, 59, 105
3, 15336, Note_on_c, 7, 59, 0
3, 15336, Note_on_c, 7, 62, 0
3, 15360, Note_on_c, 7, 60, 105
3, 15360, Note_on_c, 7, 62, 105
3, 15456, Note_on_c, 7, 62, 0
3, 15456, Note_on_c, 7, 60, 0
3, 15480, Note_on_c, 7, 62, 105
3, 15480, Note_on_c, 7, 60, 105
3, 15576, Note_on_c, 7, 60, 0
3, 15576, Note_on_c, 7, 62, 0
3, 15600, Note_on_c, 7, 60, 105
3, 15600, Note_on_c, 7, 62, 105
3, 15696, Note_on_c, 7, 62, 0
3, 15696, Note_on_c, 7, 60, 0
3, 15720, Note_on_c, 7, 60, 105
3, 15720, Note_on_c, 7, 62, 105
3, 15816, Note_on_c, 7, 62, 0
3, 15816, Note_on_c, 7, 60, 0
3, 15840, Note_on_c, 7, 60, 105
3, 15840, Note_on_c, 7, 62, 105
3, 15936, Note_on_c, 7, 62, 0
3, 15936, Note_on_c, 7, 60, 0
3, 15960, Note_on_c, 7, 60, 105
3, 15960, Note_on_c, 7, 62, 105
3, 16056, Note_on_c, 7, 62, 0
3, 16056, Note_on_c, 7, 60, 0
3, 16080, Note_on_c, 7, 62, 105
3, 16080, Note_on_c, 7, 60, 105
3, 16176, Note_on_c, 7, 60, 0
3, 16176, Note_on_c, 7, 62, 0
3, 16200, Note_on_c, 7, 62, 105
3, 16200, Note_on_c, 7, 60, 105
3, 16296, Note_on_c, 7, 60, 0
3, 16296, Note_on_c, 7, 62, 0
3, 16320, Note_on_c, 7, 62, 105
3, 16320, Note_on_c, 7, 60, 105
3, 16416, Note_on_c, 7, 60, 0
3, 16416, Note_on_c, 7, 62, 0
3, 16440, Note_on_c, 7, 60, 105
3, 16440, Note_on_c, 7, 62, 105
3, 16536, Note_on_c, 7, 62, 0
3, 16536, Note_on_c, 7, 60, 0
3, 16560, Note_on_c, 7, 62, 105
3, 16560, Note_on_c, 7, 60, 105
3, 16656, Note_on_c, 7, 60, 0
3, 16656, Note_on_c, 7, 62, 0
3, 16680, Note_on_c, 7, 62, 105
3, 16680, Note_on_c, 7, 60, 105
3, 16776, Note_on_c, 7, 60, 0
3, 16776, Note_on_c, 7, 62, 0
3, 16800, Note_on_c, 7, 60, 105
3, 16800, Note_on_c, 7, 62, 105
3, 16896, Note_on_c, 7, 62, 0
3, 16896, Note_on_c, 7, 60, 0
3, 16920, Note_on_c, 7, 60, 105
3, 16920, Note_on_c, 7, 62, 105
3, 17016, Note_on_c, 7, 62, 0
3, 17016, Note_on_c, 7, 60, 0
3, 17040, Note_on_c, 7, 60, 105
3, 17040, Note_on_c, 7, 62, 105
3, 17136, Note_on_c, 7, 62, 0
3, 17136, Note_on_c, 7, 60, 0
3, 17160, Note_on_c, 7, 62, 105
3, 17160, Note_on_c, 7, 60, 105
3, 17256, Note_on_c, 7, 60, 0
3, 17256, Note_on_c, 7, 62, 0
3, 17280, Note_on_c, 7, 59, 105
3, 17280, Note_on_c, 7, 62, 105
3, 17664, Note_on_c, 7, 62, 0
3, 17664, Note_on_c, 7, 59, 0
3, 17760, Note_on_c, 7, 72, 105
3, 17904, Note_on_c, 7, 72, 0
3, 18000, Note_on_c, 7, 72, 105
3, 18144, Note_on_c, 7, 72, 0
3, 18240, Note_on_c, 7, 74, 105
3, 18384, Note_on_c, 7, 74, 0
3, 18480, Note_on_c, 7, 74, 105
3, 18624, Note_on_c, 7, 74, 0
3, 18720, Note_on_c, 7, 72, 105
3, 18960, Note_on_c, 7, 72, 0
3, 18960, Note_on_c, 7, 71, 105
3, 19080, Note_on_c, 7, 71, 0
3, 19080, Note_on_c, 7, 69, 105
3, 19176, Note_on_c, 7, 69, 0
3, 19200, Note_on_c, 7, 67, 105
3, 19344, Note_on_c, 7, 67, 0
3, 19440, Note_on_c, 7, 67, 105
3, 19584, Note_on_c, 7, 67, 0
3, 19680, Note_on_c, 7, 66, 105
3, 19824, Note_on_c, 7, 66, 0
3, 19920, Note_on_c, 7, 66, 105
3, 20064, Note_on_c, 7, 66, 0
3, 20160, Note_on_c, 7, 67, 92
3, 20544, Note_on_c, 7, 67, 0
3, 21120, Note_on_c, 7, 71, 58
3, 22080, Note_on_c, 7, 71, 0
3, 22080, Note_on_c, 7, 72, 58
3, 22848, Note_on_c, 7, 72, 0
3, 23040, Note_on_c, 7, 71, 58
3, 23160, Note_on_c, 7, 71, 0
3, 23160, Note_on_c, 7, 69, 58
3, 23394, Note_on_c, 7, 69, 0
3, 23520, Note_on_c, 7, 69, 58
3, 23832, Note_on_c, 7, 69, 0
3, 24000, Note_on_c, 7, 69, 58
3, 24120, Note_on_c, 7, 69, 0
3, 24120, Note_on_c, 7, 67, 58
3, 24354, Note_on_c, 7, 67, 0
3, 24480, Note_on_c, 7, 67, 58
3, 24792, Note_on_c, 7, 67, 0
3, 24960, Note_on_c, 7, 64, 58
3, 25272, Note_on_c, 7, 64, 0
3, 25440, Note_on_c, 7, 64, 58
3, 25752, Note_on_c, 7, 64, 0
3, 25920, Note_on_c, 7, 60, 58
3, 26232, Note_on_c, 7, 60, 0
3, 26400, Note_on_c, 7, 57, 58
3, 26712, Note_on_c, 7, 57, 0
3, 26880, Note_on_c, 7, 62, 58
3, 27072, Note_on_c, 7, 62, 0
3, 27360, Note_on_c, 7, 66, 58
3, 27552, Note_on_c, 7, 66, 0
3, 27840, Note_on_c, 7, 67, 58
3, 28032, Note_on_c, 7, 67, 0
3, 28800, Note_on_c, 7, 71, 58
3, 29760, Note_on_c, 7, 71, 0
3, 29760, Note_on_c, 7, 72, 58
3, 30528, Note_on_c, 7, 72, 0
3, 30720, Note_on_c, 7, 71, 58
3, 30960, Note_on_c, 7, 71, 0
3, 30960, Note_on_c, 7, 69, 58
3, 31116, Note_on_c, 7, 69, 0
3, 31200, Note_on_c, 7, 69, 58
3, 31356, Note_on_c, 7, 69, 0
3, 31440, Note_on_c, 7, 69, 58
3, 31596, Note_on_c, 7, 69, 0
3, 31680, Note_on_c, 7, 69, 58
3, 31920, Note_on_c, 7, 69, 0
3, 31920, Note_on_c, 7, 67, 58
3, 32076, Note_on_c, 7, 67, 0
3, 32160, Note_on_c, 7, 67, 58
3, 32316, Note_on_c, 7, 67, 0
3, 32400, Note_on_c, 7, 67, 58
3, 32556, Note_on_c, 7, 67, 0
3, 32640, Note_on_c, 7, 64, 58
3, 32952, Note_on_c, 7, 64, 0
3, 33120, Note_on_c, 7, 64, 58
3, 33276, Note_on_c, 7, 64, 0
3, 33360, Note_on_c, 7, 64, 58
3, 33516, Note_on_c, 7, 64, 0
3, 33600, Note_on_c, 7, 60, 58
3, 33912, Note_on_c, 7, 60, 0
3, 34080, Note_on_c, 7, 60, 58
3, 34236, Note_on_c, 7, 60, 0
3, 34320, Note_on_c, 7, 60, 58
3, 34476, Note_on_c, 7, 60, 0
3, 34560, Note_on_c, 7, 59, 121
3, 35712, Note_on_c, 7, 59, 0
3, 35760, Note_on_c, 7, 60, 72
3, 35820, Note_on_c, 7, 60, 0
3, 35820, Note_on_c, 7, 59, 72
3, 35880, Note_on_c, 7, 59, 0
3, 35880, Note_on_c, 7, 57, 72
3, 35940, Note_on_c, 7, 57, 0
3, 35940, Note_on_c, 7, 59, 72
3, 36000, Note_on_c, 7, 59, 0
3, 36000, Note_on_c, 7, 60, 72
3, 36240, Note_on_c, 7, 60, 0
3, 36240, Note_on_c, 7, 57, 72
3, 36432, Note_on_c, 7, 57, 0
3, 36480, Note_on_c, 7, 67, 121
3, 37632, Note_on_c, 7, 67, 0
3, 37680, Note_on_c, 7, 69, 72
3, 37740, Note_on_c, 7, 69, 0
3, 37740, Note_on_c, 7, 67, 72
3, 37800, Note_on_c, 7, 67, 0
3, 37800, Note_on_c, 7, 66, 72
3, 37860, Note_on_c, 7, 66, 0
3, 37860, Note_on_c, 7, 67, 72
3, 37920, Note_on_c, 7, 67, 0
3, 37920, Note_on_c, 7, 69, 72
3, 38160, Note_on_c, 7, 69, 0
3, 38160, Note_on_c, 7, 66, 72
3, 38352, Note_on_c, 7, 66, 0
3, 38400, Note_on_c, 7, 71, 72
3, 38496, Note_on_c, 7, 71, 0
3, 38520, Note_on_c, 7, 71, 72
3, 38616, Note_on_c, 7, 71, 0
3, 38640, Note_on_c, 7, 71, 72
3, 38736, Note_on_c, 7, 71, 0
3, 38760, Note_on_c, 7, 71, 72
3, 38856, Note_on_c, 7, 71, 0
3, 38880, Note_on_c, 7, 71, 72
3, 38976, Note_on_c, 7, 71, 0
3, 39000, Note_on_c, 7, 71, 72
3, 39096, Note_on_c, 7, 71, 0
3, 39120, Note_on_c, 7, 71, 72
3, 39216, Note_on_c, 7, 71, 0
3, 39240, Note_on_c, 7, 71, 72
3, 39336, Note_on_c, 7, 71, 0
3, 39360, Note_on_c, 7, 72, 81
3, 39456, Note_on_c, 7, 72, 0
3, 39480, Note_on_c, 7, 72, 81
3, 39576, Note_on_c, 7, 72, 0
3, 39600, Note_on_c, 7, 72, 81
3, 39696, Note_on_c, 7, 72, 0
3, 39720, Note_on_c, 7, 72, 81
3, 39816, Note_on_c, 7, 72, 0
3, 39840, Note_on_c, 7, 72, 81
3, 39936, Note_on_c, 7, 72, 0
3, 39960, Note_on_c, 7, 72, 81
3, 40056, Note_on_c, 7, 72, 0
3, 40080, Note_on_c, 7, 72, 81
3, 40176, Note_on_c, 7, 72, 0
3, 40200, Note_on_c, 7, 72, 81
3, 40296, Note_on_c, 7, 72, 0
3, 40320, Note_on_c, 7, 71, 92
3, 40416, Note_on_c, 7, 71, 0
3, 40440, Note_on_c, 7, 71, 92
3, 40536, Note_on_c, 7, 71, 0
3, 40560, Note_on_c, 7, 71, 92
3, 40656, Note_on_c, 7, 71, 0
3, 40680, Note_on_c, 7, 71, 92
3, 40776, Note_on_c, 7, 71, 0
3, 40800, Note_on_c, 7, 74, 92
3, 40896, Note_on_c, 7, 74, 0
3, 40920, Note_on_c, 7, 74, 92
3, 41016, Note_on_c, 7, 74, 0
3, 41040, Note_on_c, 7, 74, 92
3, 41136, Note_on_c, 7, 74, 0
3, 41160, Note_on_c, 7, 74, 105
3, 41256, Note_on_c, 7, 74, 0
3, 41280, Note_on_c, 7, 74, 105
3, 41376, Note_on_c, 7, 74, 0
3, 41400, Note_on_c, 7, 74, 105
3, 41496, Note_on_c, 7, 74, 0
3, 41520, Note_on_c, 7, 74, 105
3, 41616, Note_on_c, 7, 74, 0
3, 41640, Note_on_c, 7, 74, 105
3, 41736, Note_on_c, 7, 74, 0
3, 41760, Note_on_c, 7, 79, 105
3, 41856, Note_on_c, 7, 79, 0
3, 41880, Note_on_c, 7, 79, 105
3, 41976, Note_on_c, 7, 79, 0
3, 42000, Note_on_c, 7, 79, 105
3, 42096, Note_on_c, 7, 79, 0
3, 42120, Note_on_c, 7, 79, 105
3, 42216, Note_on_c, 7, 79, 0
3, 42240, Note_on_c, 7, 78, 105
3, 42336, Note_on_c, 7, 78, 0
3, 42360, Note_on_c, 7, 78, 105
3, 42456, Note_on_c, 7, 78, 0
3, 42480, Note_on_c, 7, 78, 105
3, 42576, Note_on_c, 7, 78, 0
3, 42600, Note_on_c, 7, 78, 105
3, 42696, Note_on_c, 7, 78, 0
3, 42720, Note_on_c, 7, 78, 105
3, 42816, Note_on_c, 7, 78, 0
3, 42840, Note_on_c, 7, 78, 105
3, 42936, Note_on_c, 7, 78, 0
3, 42960, Note_on_c, 7, 78, 105
3, 43056, Note_on_c, 7, 78, 0
3, 43080, Note_on_c, 7, 78, 105
3, 43176, Note_on_c, 7, 78, 0
3, 43200, Note_on_c, 7, 79, 105
3, 43296, Note_on_c, 7, 79, 0
3, 43320, Note_on_c, 7, 79, 105
3, 43416, Note_on_c, 7, 79, 0
3, 43440, Note_on_c, 7, 79, 105
3, 43536, Note_on_c, 7, 79, 0
3, 43560, Note_on_c, 7, 79, 105
3, 43656, Note_on_c, 7, 79, 0
3, 43680, Note_on_c, 7, 79, 105
3, 43776, Note_on_c, 7, 79, 0
3, 43800, Note_on_c, 7, 79, 105
3, 43896, Note_on_c, 7, 79, 0
3, 43920, Note_on_c, 7, 79, 105
3, 44016, Note_on_c, 7, 79, 0
3, 44040, Note_on_c, 7, 79, 105
3, 44136, Note_on_c, 7, 79, 0
3, 44160, Note_on_c, 7, 78, 105
3, 44256, Note_on_c, 7, 78, 0
3, 44280, Note_on_c, 7, 78, 105
3, 44376, Note_on_c, 7, 78, 0
3, 44400, Note_on_c, 7, 78, 105
3, 44496, Note_on_c, 7, 78, 0
3, 44520, Note_on_c, 7, 78, 105
3, 44616, Note_on_c, 7, 78, 0
3, 44640, Note_on_c, 7, 78, 105
3, 44736, Note_on_c, 7, 78, 0
3, 44760, Note_on_c, 7, 78, 105
3, 44856, Note_on_c, 7, 78, 0
3, 44880, Note_on_c, 7, 78, 105
3, 44976, Note_on_c, 7, 78, 0
3, 45000, Note_on_c, 7, 78, 105
3, 45096, Note_on_c, 7, 78, 0
3, 45120, Note_on_c, 7, 79, 105
3, 45216, Note_on_c, 7, 79, 0
3, 45240, Note_on_c, 7, 79, 105
3, 45336, Note_on_c, 7, 79, 0
3, 45360, Note_on_c, 7, 79, 105
3, 45456, Note_on_c, 7, 79, 0
3, 45480, Note_on_c, 7, 79, 105
3, 45576, Note_on_c, 7, 79, 0
3, 45600, Note_on_c, 7, 79, 105
3, 45696, Note_on_c, 7, 79, 0
3, 45720, Note_on_c, 7, 79, 105
3, 45816, Note_on_c, 7, 79, 0
3, 45840, Note_on_c, 7, 79, 105
3, 45936, Note_on_c, 7, 79, 0
3, 45960, Note_on_c, 7, 79, 105
3, 46056, Note_on_c, 7, 79, 0
3, 46080, Note_on_c, 7, 78, 105
3, 46080, Note_on_c, 7, 74, 105
3, 46224, Note_on_c, 7, 74, 0
3, 46224, Note_on_c, 7, 78, 0
3, 46320, Note_on_c, 7, 78, 92
3, 46320, Note_on_c, 7, 74, 92
3, 46704, Note_on_c, 7, 74, 0
3, 46704, Note_on_c, 7, 78, 0
3, 46800, Note_on_c, 7, 78, 92
3, 46800, Note_on_c, 7, 74, 92
3, 47184, Note_on_c, 7, 74, 0
3, 47184, Note_on_c, 7, 78, 0
3, 47280, Note_on_c, 7, 74, 92
3, 47280, Note_on_c, 7, 78, 92
3, 47664, Note_on_c, 7, 78, 0
3, 47664, Note_on_c, 7, 74, 0
3, 47760, Note_on_c, 7, 74, 92
3, 47760, Note_on_c, 7, 78, 92
3, 48000, Note_on_c, 7, 78, 0
3, 48000, Note_on_c, 7, 76, 92
3, 48192, Note_on_c, 7, 76, 0
3, 48192, Note_on_c, 7, 74, 0
3, 48240, Note_on_c, 7, 76, 92
3, 48240, Note_on_c, 7, 74, 92
3, 48624, Note_on_c, 7, 74, 0
3, 48624, Note_on_c, 7, 76, 0
3, 48720, Note_on_c, 7, 76, 92
3, 48720, Note_on_c, 7, 74, 92
3, 49104, Note_on_c, 7, 74, 0
3, 49104, Note_on_c, 7, 76, 0
3, 49200, Note_on_c, 7, 76, 92
3, 49200, Note_on_c, 7, 74, 92
3, 49584, Note_on_c, 7, 74, 0
3, 49584, Note_on_c, 7, 76, 0
3, 49680, Note_on_c, 7, 76, 92
3, 49680, Note_on_c, 7, 74, 92
3, 49824, Note_on_c, 7, 76, 0
3, 49872, Note_on_c, 7, 74, 0
3, 49920, Note_on_c, 7, 73, 105
3, 49920, Note_on_c, 7, 76, 105
3, 50016, Note_on_c, 7, 76, 0
3, 50016, Note_on_c, 7, 73, 0
3, 50040, Note_on_c, 7, 76, 105
3, 50040, Note_on_c, 7, 73, 105
3, 50136, Note_on_c, 7, 73, 0
3, 50136, Note_on_c, 7, 76, 0
3, 50160, Note_on_c, 7, 76, 105
3, 50160, Note_on_c, 7, 73, 105
3, 50256, Note_on_c, 7, 73, 0
3, 50256, Note_on_c, 7, 76, 0
3, 50280, Note_on_c, 7, 73, 105
3, 50280, Note_on_c, 7, 76, 105
3, 50376, Note_on_c, 7, 76, 0
3, 50376, Note_on_c, 7, 73, 0
3, 50400, Note_on_c, 7, 78, 105
3, 50400, Note_on_c, 7, 74, 105
3, 50496, Note_on_c, 7, 74, 0
3, 50496, Note_on_c, 7, 78, 0
3, 50520, Note_on_c, 7, 74, 105
3, 50520, Note_on_c, 7, 78, 105
3, 50616, Note_on_c, 7, 78, 0
3, 50616, Note_on_c, 7, 74, 0
3, 50640, Note_on_c, 7, 74, 105
3, 50640, Note_on_c, 7, 78, 105
3, 50736, Note_on_c, 7, 78, 0
3, 50736, Note_on_c, 7, 74, 0
3, 50760, Note_on_c, 7, 78, 105
3, 50760, Note_on_c, 7, 74, 105
3, 50856, Note_on_c, 7, 74, 0
3, 50856, Note_on_c, 7, 78, 0
3, 50880, Note_on_c, 7, 76, 105
3, 50880, Note_on_c, 7, 73, 105
3, 50976, Note_on_c, 7, 73, 0
3, 50976, Note_on_c, 7, 76, 0
3, 51000, Note_on_c, 7, 73, 105
3, 51000, Note_on_c, 7, 76, 105
3, 51096, Note_on_c, 7, 76, 0
3, 51096, Note_on_c, 7, 73, 0
3, 51120, Note_on_c, 7, 73, 105
3, 51120, Note_on_c, 7, 76, 105
3, 51216, Note_on_c, 7, 76, 0
3, 51216, Note_on_c, 7, 73, 0
3, 51240, Note_on_c, 7, 76, 105
3, 51240, Note_on_c, 7, 73, 105
3, 51336, Note_on_c, 7, 73, 0
3, 51336, Note_on_c, 7, 76, 0
3, 51360, Note_on_c, 7, 78, 105
3, 51360, Note_on_c, 7, 74, 105
3, 51456, Note_on_c, 7, 74, 0
3, 51456, Note_on_c, 7, 78, 0
3, 51480, Note_on_c, 7, 78, 105
3, 51480, Note_on_c, 7, 74, 105
3, 51576, Note_on_c, 7, 74, 0
3, 51576, Note_on_c, 7, 78, 0
3, 51600, Note_on_c, 7, 74, 105
3, 51600, Note_on_c, 7, 78, 105
3, 51696, Note_on_c, 7, 78, 0
3, 51696, Note_on_c, 7, 74, 0
3, 51720, Note_on_c, 7, 78, 105
3, 51720, Note_on_c, 7, 74, 105
3, 51816, Note_on_c, 7, 74, 0
3, 51816, Note_on_c, 7, 78, 0
3, 51840, Note_on_c, 7, 76, 105
3, 51840, Note_on_c, 7, 73, 105
3, 51984, Note_on_c, 7, 73, 0
3, 51984, Note_on_c, 7, 76, 0
3, 52080, Note_on_c, 7, 69, 92
3, 52224, Note_on_c, 7, 69, 0
3, 52320, Note_on_c, 7, 69, 92
3, 52464, Note_on_c, 7, 69, 0
3, 52560, Note_on_c, 7, 69, 92
3, 52704, Note_on_c, 7, 69, 0
3, 52800, Note_on_c, 7, 69, 92
3, 53184, Note_on_c, 7, 69, 0
3, 53760, Note_on_c, 7, 69, 92
3, 54480, Note_on_c, 7, 69, 0
3, 54480, Note_on_c, 7, 67, 72
3, 54560, Note_on_c, 7, 67, 0
3, 54560, Note_on_c, 7, 66, 72
3, 54640, Note_on_c, 7, 66, 0
3, 54640, Note_on_c, 7, 64, 72
3, 54720, Note_on_c, 7, 64, 0
3, 54720, Note_on_c, 7, 62, 72
3, 54876, Note_on_c, 7, 62, 0
3, 55200, Note_on_c, 7, 71, 72
3, 55356, Note_on_c, 7, 71, 0
3, 55680, Note_on_c, 7, 67, 72
3, 55836, Note_on_c, 7, 67, 0
3, 56160, Note_on_c, 7, 64, 72
3, 56316, Note_on_c, 7, 64, 0
3, 56640, Note_on_c, 7, 69, 72
3, 56796, Note_on_c, 7, 69, 0
3, 57600, Note_on_c, 7, 66, 72
3, 58320, Note_on_c, 7, 66, 0
3, 58320, Note_on_c, 7, 64, 72
3, 58400, Note_on_c, 7, 64, 0
3, 58400, Note_on_c, 7, 62, 72
3, 58480, Note_on_c, 7, 62, 0
3, 58480, Note_on_c, 7, 61, 72
3, 58560, Note_on_c, 7, 61, 0
3, 58560, Note_on_c, 7, 59, 72
3, 58716, Note_on_c, 7, 59, 0
3, 59040, Note_on_c, 7, 67, 72
3, 59196, Note_on_c, 7, 67, 0
3, 59520, Note_on_c, 7, 66, 72
3, 60480, Note_on_c, 7, 66, 0
3, 60480, Note_on_c, 7, 64, 72
3, 60864, Note_on_c, 7, 64, 0
3, 61440, Note_on_c, 7, 69, 72
3, 62160, Note_on_c, 7, 69, 0
3, 62160, Note_on_c, 7, 67, 72
3, 62240, Note_on_c, 7, 67, 0
3, 62240, Note_on_c, 7, 66, 72
3, 62320, Note_on_c, 7, 66, 0
3, 62320, Note_on_c, 7, 64, 72
3, 62400, Note_on_c, 7, 64, 0
3, 62400, Note_on_c, 7, 62, 72
3, 62556, Note_on_c, 7, 62, 0
3, 62880, Note_on_c, 7, 71, 72
3, 63036, Note_on_c, 7, 71, 0
3, 63360, Note_on_c, 7, 67, 72
3, 63516, Note_on_c, 7, 67, 0
3, 63840, Note_on_c, 7, 64, 72
3, 63996, Note_on_c, 7, 64, 0
3, 64320, Note_on_c, 7, 69, 72
3, 64476, Note_on_c, 7, 69, 0
3, 65040, Note_on_c, 7, 67, 72
3, 65232, Note_on_c, 7, 67, 0
3, 65280, Note_on_c, 7, 67, 72
3, 65520, Note_on_c, 7, 67, 0
3, 65520, Note_on_c, 7, 66, 72
3, 65664, Note_on_c, 7, 66, 0
3, 66000, Note_on_c, 7, 79, 72
3, 66144, Note_on_c, 7, 79, 0
3, 66240, Note_on_c, 7, 79, 72
3, 66480, Note_on_c, 7, 79, 0
3, 66480, Note_on_c, 7, 78, 72
3, 66672, Note_on_c, 7, 78, 0
3, 66960, Note_on_c, 7, 67, 72
3, 67104, Note_on_c, 7, 67, 0
3, 67200, Note_on_c, 7, 66, 58
3, 67356, Note_on_c, 7, 66, 0
3, 67440, Note_on_c, 7, 66, 58
3, 67596, Note_on_c, 7, 66, 0
3, 67680, Note_on_c, 7, 67, 58
3, 67836, Note_on_c, 7, 67, 0
3, 67920, Note_on_c, 7, 67, 58
3, 68076, Note_on_c, 7, 67, 0
3, 68160, Note_on_c, 7, 69, 58
3, 68316, Note_on_c, 7, 69, 0
3, 68400, Note_on_c, 7, 69, 58
3, 68556, Note_on_c, 7, 69, 0
3, 68640, Note_on_c, 7, 66, 58
3, 68796, Note_on_c, 7, 66, 0
3, 68880, Note_on_c, 7, 66, 58
3, 69036, Note_on_c, 7, 66, 0
3, 69120, Note_on_c, 7, 64, 58
3, 69276, Note_on_c, 7, 64, 0
3, 69360, Note_on_c, 7, 64, 58
3, 69516, Note_on_c, 7, 64, 0
3, 69600, Note_on_c, 7, 66, 58
3, 69756, Note_on_c, 7, 66, 0
3, 69840, Note_on_c, 7, 66, 58
3, 69996, Note_on_c, 7, 66, 0
3, 70080, Note_on_c, 7, 67, 58
3, 70236, Note_on_c, 7, 67, 0
3, 70320, Note_on_c, 7, 67, 58
3, 70476, Note_on_c, 7, 67, 0
3, 70560, Note_on_c, 7, 64, 58
3, 70716, Note_on_c, 7, 64, 0
3, 70800, Note_on_c, 7, 64, 58
3, 70956, Note_on_c, 7, 64, 0
3, 71040, Note_on_c, 7, 66, 58
3, 71196, Note_on_c, 7, 66, 0
3, 71280, Note_on_c, 7, 66, 58
3, 71436, Note_on_c, 7, 66, 0
3, 71520, Note_on_c, 7, 67, 58
3, 71676, Note_on_c, 7, 67, 0
3, 71760, Note_on_c, 7, 67, 58
3, 71916, Note_on_c, 7, 67, 0
3, 72000, Note_on_c, 7, 69, 58
3, 72156, Note_on_c, 7, 69, 0
3, 72240, Note_on_c, 7, 69, 58
3, 72396, Note_on_c, 7, 69, 0
3, 72480, Note_on_c, 7, 66, 58
3, 72636, Note_on_c, 7, 66, 0
3, 72720, Note_on_c, 7, 66, 58
3, 72876, Note_on_c, 7, 66, 0
3, 72960, Note_on_c, 7, 64, 58
3, 73116, Note_on_c, 7, 64, 0
3, 73200, Note_on_c, 7, 64, 58
3, 73356, Note_on_c, 7, 64, 0
3, 73440, Note_on_c, 7, 66, 58
3, 73596, Note_on_c, 7, 66, 0
3, 73680, Note_on_c, 7, 66, 58
3, 73836, Note_on_c, 7, 66, 0
3, 73920, Note_on_c, 7, 67, 58
3, 74076, Note_on_c, 7, 67, 0
3, 74160, Note_on_c, 7, 67, 58
3, 74316, Note_on_c, 7, 67, 0
3, 74400, Note_on_c, 7, 64, 58
3, 74556, Note_on_c, 7, 64, 0
3, 74640, Note_on_c, 7, 64, 58
3, 74796, Note_on_c, 7, 64, 0
3, 74880, Note_on_c, 7, 66, 58
3, 75264, Note_on_c, 7, 66, 0
3, 75840, Note_on_c, 7, 71, 105
3, 75840, Note_on_c, 7, 78, 105
3, 76608, Note_on_c, 7, 71, 0
3, 76800, Note_on_c, 7, 78, 0
3, 76800, Note_on_c, 7, 76, 105
3, 77184, Note_on_c, 7, 76, 0
3, 77760, Note_on_c, 7, 69, 105
3, 77760, Note_on_c, 7, 76, 105
3, 78528, Note_on_c, 7, 69, 0
3, 78720, Note_on_c, 7, 76, 0
3, 78720, Note_on_c, 7, 74, 105
3, 78876, Note_on_c, 7, 74, 0
3, 78960, Note_on_c, 7, 78, 105
3, 79116, Note_on_c, 7, 78, 0
3, 79200, Note_on_c, 7, 79, 105
3, 79356, Note_on_c, 7, 79, 0
3, 79440, Note_on_c, 7, 81, 105
3, 79596, Note_on_c, 7, 81, 0
3, 79680, Note_on_c, 7, 79, 105
3, 79920, Note_on_c, 7, 79, 0
3, 79920, Note_on_c, 7, 81, 105
3, 80040, Note_on_c, 7, 81, 0
3, 80040, Note_on_c, 7, 83, 105
3, 80160, Note_on_c, 7, 83, 0
3, 80160, Note_on_c, 7, 81, 105
3, 80304, Note_on_c, 7, 81, 0
3, 80400, Note_on_c, 7, 79, 105
3, 80544, Note_on_c, 7, 79, 0
3, 80640, Note_on_c, 7, 79, 105
3, 80880, Note_on_c, 7, 79, 0
3, 80880, Note_on_c, 7, 78, 105
3, 81024, Note_on_c, 7, 78, 0
3, 81120, Note_on_c, 7, 74, 105
3, 81264, Note_on_c, 7, 74, 0
3, 81360, Note_on_c, 7, 78, 105
3, 81504, Note_on_c, 7, 78, 0
3, 81600, Note_on_c, 7, 78, 105
3, 81840, Note_on_c, 7, 78, 0
3, 81840, Note_on_c, 7, 76, 105
3, 81984, Note_on_c, 7, 76, 0
3, 82080, Note_on_c, 7, 74, 105
3, 82224, Note_on_c, 7, 74, 0
3, 82320, Note_on_c, 7, 73, 105
3, 82464, Note_on_c, 7, 73, 0
3, 82560, Note_on_c, 7, 74, 92
3, 82716, Note_on_c, 7, 74, 0
3, 82800, Note_on_c, 7, 66, 58
3, 82956, Note_on_c, 7, 66, 0
3, 83040, Note_on_c, 7, 67, 58
3, 83196, Note_on_c, 7, 67, 0
3, 83280, Note_on_c, 7, 67, 58
3, 83436, Note_on_c, 7, 67, 0
3, 83520, Note_on_c, 7, 69, 58
3, 83676, Note_on_c, 7, 69, 0
3, 83760, Note_on_c, 7, 69, 58
3, 83916, Note_on_c, 7, 69, 0
3, 84000, Note_on_c, 7, 66, 58
3, 84156, Note_on_c, 7, 66, 0
3, 84240, Note_on_c, 7, 66, 58
3, 84396, Note_on_c, 7, 66, 0
3, 84480, Note_on_c, 7, 64, 58
3, 84636, Note_on_c, 7, 64, 0
3, 84720, Note_on_c, 7, 64, 58
3, 84876, Note_on_c, 7, 64, 0
3, 84960, Note_on_c, 7, 66, 58
3, 85116, Note_on_c, 7, 66, 0
3, 85200, Note_on_c, 7, 66, 58
3, 85356, Note_on_c, 7, 66, 0
3, 85440, Note_on_c, 7, 67, 58
3, 85596, Note_on_c, 7, 67, 0
3, 85680, Note_on_c, 7, 67, 58
3, 85836, Note_on_c, 7, 67, 0
3, 85920, Note_on_c, 7, 64, 58
3, 86076, Note_on_c, 7, 64, 0
3, 86160, Note_on_c, 7, 64, 58
3, 86316, Note_on_c, 7, 64, 0
3, 86400, Note_on_c, 7, 66, 58
3, 86556, Note_on_c, 7, 66, 0
3, 86640, Note_on_c, 7, 66, 58
3, 86796, Note_on_c, 7, 66, 0
3, 86880, Note_on_c, 7, 67, 58
3, 87036, Note_on_c, 7, 67, 0
3, 87120, Note_on_c, 7, 67, 58
3, 87276, Note_on_c, 7, 67, 0
3, 87360, Note_on_c, 7, 69, 58
3, 87516, Note_on_c, 7, 69, 0
3, 87600, Note_on_c, 7, 69, 58
3, 87756, Note_on_c, 7, 69, 0
3, 87840, Note_on_c, 7, 66, 58
3, 87996, Note_on_c, 7, 66, 0
3, 88080, Note_on_c, 7, 66, 58
3, 88236, Note_on_c, 7, 66, 0
3, 88320, Note_on_c, 7, 64, 58
3, 88476, Note_on_c, 7, 64, 0
3, 88560, Note_on_c, 7, 64, 58
3, 88716, Note_on_c, 7, 64, 0
3, 88800, Note_on_c, 7, 66, 58
3, 88956, Note_on_c, 7, 66, 0
3, 89040, Note_on_c, 7, 66, 58
3, 89196, Note_on_c, 7, 66, 0
3, 89280, Note_on_c, 7, 67, 58
3, 89436, Note_on_c, 7, 67, 0
3, 89520, Note_on_c, 7, 67, 58
3, 89676, Note_on_c, 7, 67, 0
3, 89760, Note_on_c, 7, 64, 58
3, 89916, Note_on_c, 7, 64, 0
3, 90000, Note_on_c, 7, 64, 58
3, 90156, Note_on_c, 7, 64, 0
3, 90240, Note_on_c, 7, 66, 58
3, 90624, Note_on_c, 7, 66, 0
3, 91200, Note_on_c, 7, 71, 105
3, 91200, Note_on_c, 7, 78, 105
3, 91968, Note_on_c, 7, 71, 0
3, 92160, Note_on_c, 7, 78, 0
3, 92160, Note_on_c, 7, 76, 105
3, 92544, Note_on_c, 7, 76, 0
3, 93120, Note_on_c, 7, 69, 105
3, 93120, Note_on_c, 7, 76, 105
3, 93888, Note_on_c, 7, 69, 0
3, 94080, Note_on_c, 7, 76, 0
3, 94080, Note_on_c, 7, 74, 105
3, 94236, Note_on_c, 7, 74, 0
3, 94320, Note_on_c, 7, 78, 105
3, 94476, Note_on_c, 7, 78, 0
3, 94560, Note_on_c, 7, 79, 105
3, 94716, Note_on_c, 7, 79, 0
3, 94800, Note_on_c, 7, 81, 105
3, 94956, Note_on_c, 7, 81, 0
3, 95040, Note_on_c, 7, 79, 105
3, 95280, Note_on_c, 7, 79, 0
3, 95280, Note_on_c, 7, 81, 105
3, 95400, Note_on_c, 7, 81, 0
3, 95400, Note_on_c, 7, 83, 105
3, 95520, Note_on_c, 7, 83, 0
3, 95520, Note_on_c, 7, 81, 105
3, 95664, Note_on_c, 7, 81, 0
3, 95760, Note_on_c, 7, 79, 105
3, 95904, Note_on_c, 7, 79, 0
3, 96000, Note_on_c, 7, 79, 105
3, 96240, Note_on_c, 7, 79, 0
3, 96240, Note_on_c, 7, 78, 105
3, 96384, Note_on_c, 7, 78, 0
3, 96480, Note_on_c, 7, 74, 105
3, 96624, Note_on_c, 7, 74, 0
3, 96720, Note_on_c, 7, 78, 105
3, 96864, Note_on_c, 7, 78, 0
3, 96960, Note_on_c, 7, 78, 105
3, 97200, Note_on_c, 7, 78, 0
3, 97200, Note_on_c, 7, 76, 105
3, 97344, Note_on_c, 7, 76, 0
3, 97440, Note_on_c, 7, 74, 105
3, 97584, Note_on_c, 7, 74, 0
3, 97680, Note_on_c, 7, 73, 105
3, 97824, Note_on_c, 7, 73, 0
3, 97920, Note_on_c, 7, 74, 105
3, 98064, Note_on_c, 7, 74, 0
3, 98160, Note_on_c, 7, 69, 105
3, 98304, Note_on_c, 7, 69, 0
3, 98400, Note_on_c, 7, 71, 105
3, 98544, Note_on_c, 7, 71, 0
3, 98640, Note_on_c, 7, 73, 105
3, 98784, Note_on_c, 7, 73, 0
3, 98880, Note_on_c, 7, 74, 105
3, 99024, Note_on_c, 7, 74, 0
3, 99120, Note_on_c, 7, 74, 105
3, 99264, Note_on_c, 7, 74, 0
3, 99360, Note_on_c, 7, 78, 105
3, 99420, Note_on_c, 7, 78, 0
3, 99420, Note_on_c, 7, 76, 105
3, 99480, Note_on_c, 7, 76, 0
3, 99480, Note_on_c, 7, 78, 105
3, 99540, Note_on_c, 7, 78, 0
3, 99540, Note_on_c, 7, 76, 105
3, 99600, Note_on_c, 7, 76, 0
3, 99600, Note_on_c, 7, 74, 105
3, 99720, Note_on_c, 7, 74, 0
3, 99720, Note_on_c, 7, 76, 105
3, 99840, Note_on_c, 7, 76, 0
3, 99840, Note_on_c, 7, 78, 105
3, 99984, Note_on_c, 7, 78, 0
3, 100080, Note_on_c, 7, 73, 105
3, 100224, Note_on_c, 7, 73, 0
3, 100320, Note_on_c, 7, 74, 105
3, 100464, Note_on_c, 7, 74, 0
3, 100560, Note_on_c, 7, 76, 105
3, 100704, Note_on_c, 7, 76, 0
3, 100800, Note_on_c, 7, 78, 105
3, 100944, Note_on_c, 7, 78, 0
3, 101040, Note_on_c, 7, 78, 105
3, 101184, Note_on_c, 7, 78, 0
3, 101280, Note_on_c, 7, 81, 105
3, 101340, Note_on_c, 7, 81, 0
3, 101340, Note_on_c, 7, 79, 105
3, 101400, Note_on_c, 7, 79, 0
3, 101400, Note_on_c, 7, 81, 105
3, 101460, Note_on_c, 7, 81, 0
3, 101460, Note_on_c, 7, 79, 105
3, 101520, Note_on_c, 7, 79, 0
3, 101520, Note_on_c, 7, 78, 105
3, 101640, Note_on_c, 7, 78, 0
3, 101640, Note_on_c, 7, 79, 105
3, 101760, Note_on_c, 7, 79, 0
3, 101760, Note_on_c, 7, 81, 105
3, 101904, Note_on_c, 7, 81, 0
3, 102000, Note_on_c, 7, 81, 105
3, 102144, Note_on_c, 7, 81, 0
3, 102240, Note_on_c, 7, 83, 105
3, 102300, Note_on_c, 7, 83, 0
3, 102300, Note_on_c, 7, 82, 105
3, 102360, Note_on_c, 7, 82, 0
3, 102360, Note_on_c, 7, 83, 105
3, 102420, Note_on_c, 7, 83, 0
3, 102420, Note_on_c, 7, 82, 105
3, 102480, Note_on_c, 7, 82, 0
3, 102480, Note_on_c, 7, 80, 105
3, 102600, Note_on_c, 7, 80, 0
3, 102600, Note_on_c, 7, 82, 105
3, 102720, Note_on_c, 7, 82, 0
3, 102720, Note_on_c, 7, 83, 92
3, 103104, Note_on_c, 7, 83, 0
3, 103680, Note_on_c, 7, 67, 58
3, 105504, Note_on_c, 7, 67, 0
3, 105600, Note_on_c, 7, 66, 58
3, 105792, Note_on_c, 7, 66, 0
3, 106080, Note_on_c, 7, 69, 58
3, 106272, Note_on_c, 7, 69, 0
3, 106560, Note_on_c, 7, 66, 58
3, 106752, Note_on_c, 7, 66, 0
3, 107520, Note_on_c, 7, 71, 105
3, 107520, Note_on_c, 7, 79, 105
3, 107520, Note_on_c, 7, 62, 105
3, 107904, Note_on_c, 7, 62, 0
3, 107904, Note_on_c, 7, 79, 0
3, 107904, Note_on_c, 7, 71, 0
3, 108240, Note_on_c, 7, 74, 92
3, 108384, Note_on_c, 7, 74, 0
3, 108480, Note_on_c, 7, 79, 92
3, 108864, Note_on_c, 7, 79, 0
3, 109200, Note_on_c, 7, 74, 92
3, 109344, Note_on_c, 7, 74, 0
3, 109440, Note_on_c, 7, 79, 92
3, 109584, Note_on_c, 7, 79, 0
3, 109680, Note_on_c, 7, 74, 92
3, 109824, Note_on_c, 7, 74, 0
3, 109920, Note_on_c, 7, 79, 92
3, 110064, Note_on_c, 7, 79, 0
3, 110160, Note_on_c, 7, 83, 92
3, 110304, Note_on_c, 7, 83, 0
3, 110400, Note_on_c, 7, 86, 92
3, 110784, Note_on_c, 7, 86, 0
3, 111360, Note_on_c, 7, 84, 92
3, 111744, Note_on_c, 7, 84, 0
3, 112080, Note_on_c, 7, 81, 92
3, 112224, Note_on_c, 7, 81, 0
3, 112320, Note_on_c, 7, 84, 92
3, 112704, Note_on_c, 7, 84, 0
3, 113040, Note_on_c, 7, 81, 92
3, 113184, Note_on_c, 7, 81, 0
3, 113280, Note_on_c, 7, 84, 92
3, 113424, Note_on_c, 7, 84, 0
3, 113520, Note_on_c, 7, 81, 92
3, 113664, Note_on_c, 7, 81, 0
3, 113760, Note_on_c, 7, 78, 92
3, 113904, Note_on_c, 7, 78, 0
3, 114000, Note_on_c, 7, 81, 92
3, 114144, Note_on_c, 7, 81, 0
3, 114240, Note_on_c, 7, 74, 92
3, 114624, Note_on_c, 7, 74, 0
3, 115200, Note_on_c, 7, 62, 105
3, 115200, Note_on_c, 7, 59, 105
3, 115296, Note_on_c, 7, 59, 0
3, 115296, Note_on_c, 7, 62, 0
3, 115320, Note_on_c, 7, 59, 105
3, 115320, Note_on_c, 7, 62, 105
3, 115416, Note_on_c, 7, 62, 0
3, 115416, Note_on_c, 7, 59, 0
3, 115440, Note_on_c, 7, 62, 105
3, 115440, Note_on_c, 7, 59, 105
3, 115536, Note_on_c, 7, 59, 0
3, 115536, Note_on_c, 7, 62, 0
3, 115560, Note_on_c, 7, 59, 105
3, 115560, Note_on_c, 7, 62, 105
3, 115656, Note_on_c, 7, 62, 0
3, 115656, Note_on_c, 7, 59, 0
3, 115680, Note_on_c, 7, 59, 105
3, 115680, Note_on_c, 7, 62, 105
3, 115776, Note_on_c, 7, 62, 0
3, 115776, Note_on_c, 7, 59, 0
3, 115800, Note_on_c, 7, 59, 105
3, 115800, Note_on_c, 7, 62, 105
3, 115896, Note_on_c, 7, 62, 0
3, 115896, Note_on_c, 7, 59, 0
3, 115920, Note_on_c, 7, 59, 105
3, 115920, Note_on_c, 7, 62, 105
3, 116016, Note_on_c, 7, 62, 0
3, 116016, Note_on_c, 7, 59, 0
3, 116040, Note_on_c, 7, 59, 105
3, 116040, Note_on_c, 7, 62, 105
3, 116136, Note_on_c, 7, 62, 0
3, 116136, Note_on_c, 7, 59, 0
3, 116160, Note_on_c, 7, 59, 105
3, 116160, Note_on_c, 7, 62, 105
3, 116256, Note_on_c, 7, 62, 0
3, 116256, Note_on_c, 7, 59, 0
3, 116280, Note_on_c, 7, 59, 105
3, 116280, Note_on_c, 7, 62, 105
3, 116376, Note_on_c, 7, 62, 0
3, 116376, Note_on_c, 7, 59, 0
3, 116400, Note_on_c, 7, 62, 105
3, 116400, Note_on_c, 7, 59, 105
3, 116496, Note_on_c, 7, 59, 0
3, 116496, Note_on_c, 7, 62, 0
3, 116520, Note_on_c, 7, 59, 105
3, 116520, Note_on_c, 7, 62, 105
3, 116616, Note_on_c, 7, 62, 0
3, 116616, Note_on_c, 7, 59, 0
3, 116640, Note_on_c, 7, 59, 105
3, 116640, Note_on_c, 7, 62, 105
3, 116736, Note_on_c, 7, 62, 0
3, 116736, Note_on_c, 7, 59, 0
3, 116760, Note_on_c, 7, 59, 105
3, 116760, Note_on_c, 7, 62, 105
3, 116856, Note_on_c, 7, 62, 0
3, 116856, Note_on_c, 7, 59, 0
3, 116880, Note_on_c, 7, 62, 105
3, 116880, Note_on_c, 7, 59, 105
3, 116976, Note_on_c, 7, 59, 0
3, 116976, Note_on_c, 7, 62, 0
3, 117000, Note_on_c, 7, 59, 105
3, 117000, Note_on_c, 7, 62, 105
3, 117096, Note_on_c, 7, 62, 0
3, 117096, Note_on_c, 7, 59, 0
3, 117120, Note_on_c, 7, 60, 105
3, 117120, Note_on_c, 7, 62, 105
3, 117216, Note_on_c, 7, 62, 0
3, 117216, Note_on_c, 7, 60, 0
3, 117240, Note_on_c, 7, 60, 105
3, 117240, Note_on_c, 7, 62, 105
3, 117336, Note_on_c, 7, 62, 0
3, 117336, Note_on_c, 7, 60, 0
3, 117360, Note_on_c, 7, 60, 105
3, 117360, Note_on_c, 7, 62, 105
3, 117456, Note_on_c, 7, 62, 0
3, 117456, Note_on_c, 7, 60, 0
3, 117480, Note_on_c, 7, 62, 105
3, 117480, Note_on_c, 7, 60, 105
3, 117576, Note_on_c, 7, 60, 0
3, 117576, Note_on_c, 7, 62, 0
3, 117600, Note_on_c, 7, 62, 105
3, 117600, Note_on_c, 7, 60, 105
3, 117696, Note_on_c, 7, 60, 0
3, 117696, Note_on_c, 7, 62, 0
3, 117720, Note_on_c, 7, 62, 105
3, 117720, Note_on_c, 7, 60, 105
3, 117816, Note_on_c, 7, 60, 0
3, 117816, Note_on_c, 7, 62, 0
3, 117840, Note_on_c, 7, 62, 105
3, 117840, Note_on_c, 7, 60, 105
3, 117936, Note_on_c, 7, 60, 0
3, 117936, Note_on_c, 7, 62, 0
3, 117960, Note_on_c, 7, 62, 105
3, 117960, Note_on_c, 7, 60, 105
3, 118056, Note_on_c, 7, 60, 0
3, 118056, Note_on_c, 7, 62, 0
3, 118080, Note_on_c, 7, 62, 105
3, 118080, Note_on_c, 7, 60, 105
3, 118176, Note_on_c, 7, 60, 0
3, 118176, Note_on_c, 7, 62, 0
3, 118200, Note_on_c, 7, 60, 105
3, 118200, Note_on_c, 7, 62, 105
3, 118296, Note_on_c, 7, 62, 0
3, 118296, Note_on_c, 7, 60, 0
3, 118320, Note_on_c, 7, 60, 105
3, 118320, Note_on_c, 7, 62, 105
3, 118416, Note_on_c, 7, 62, 0
3, 118416, Note_on_c, 7, 60, 0
3, 118440, Note_on_c, 7, 60, 105
3, 118440, Note_on_c, 7, 62, 105
3, 118536, Note_on_c, 7, 62, 0
3, 118536, Note_on_c, 7, 60, 0
3, 118560, Note_on_c, 7, 60, 105
3, 118560, Note_on_c, 7, 62, 105
3, 118656, Note_on_c, 7, 62, 0
3, 118656, Note_on_c, 7, 60, 0
3, 118680, Note_on_c, 7, 60, 105
3, 118680, Note_on_c, 7, 62, 105
3, 118776, Note_on_c, 7, 62, 0
3, 118776, Note_on_c, 7, 60, 0
3, 118800, Note_on_c, 7, 60, 105
3, 118800, Note_on_c, 7, 62, 105
3, 118896, Note_on_c, 7, 62, 0
3, 118896, Note_on_c, 7, 60, 0
3, 118920, Note_on_c, 7, 62, 105
3, 118920, Note_on_c, 7, 60, 105
3, 119016, Note_on_c, 7, 60, 0
3, 119016, Note_on_c, 7, 62, 0
3, 119040, Note_on_c, 7, 62, 105
3, 119040, Note_on_c, 7, 59, 105
3, 119136, Note_on_c, 7, 59, 0
3, 119136, Note_on_c, 7, 62, 0
3, 119160, Note_on_c, 7, 62, 105
3, 119160, Note_on_c, 7, 59, 105
3, 119256, Note_on_c, 7, 59, 0
3, 119256, Note_on_c, 7, 62, 0
3, 119280, Note_on_c, 7, 59, 105
3, 119280, Note_on_c, 7, 62, 105
3, 119376, Note_on_c, 7, 62, 0
3, 119376, Note_on_c, 7, 59, 0
3, 119400, Note_on_c, 7, 59, 105
3, 119400, Note_on_c, 7, 62, 105
3, 119496, Note_on_c, 7, 62, 0
3, 119496, Note_on_c, 7, 59, 0
3, 119520, Note_on_c, 7, 62, 105
3, 119520, Note_on_c, 7, 59, 105
3, 119616, Note_on_c, 7, 59, 0
3, 119616, Note_on_c, 7, 62, 0
3, 119640, Note_on_c, 7, 62, 105
3, 119640, Note_on_c, 7, 59, 105
3, 119736, Note_on_c, 7, 59, 0
3, 119736, Note_on_c, 7, 62, 0
3, 119760, Note_on_c, 7, 62, 105
3, 119760, Note_on_c, 7, 59, 105
3, 119856, Note_on_c, 7, 59, 0
3, 119856, Note_on_c, 7, 62, 0
3, 119880, Note_on_c, 7, 59, 105
3, 119880, Note_on_c, 7, 62, 105
3, 119976, Note_on_c, 7, 62, 0
3, 119976, Note_on_c, 7, 59, 0
3, 120000, Note_on_c, 7, 62, 105
3, 120000, Note_on_c, 7, 59, 105
3, 120096, Note_on_c, 7, 59, 0
3, 120096, Note_on_c, 7, 62, 0
3, 120120, Note_on_c, 7, 62, 105
3, 120120, Note_on_c, 7, 59, 105
3, 120216, Note_on_c, 7, 59, 0
3, 120216, Note_on_c, 7, 62, 0
3, 120240, Note_on_c, 7, 62, 105
3, 120240, Note_on_c, 7, 59, 105
3, 120336, Note_on_c, 7, 59, 0
3, 120336, Note_on_c, 7, 62, 0
3, 120360, Note_on_c, 7, 59, 105
3, 120360, Note_on_c, 7, 62, 105
3, 120456, Note_on_c, 7, 62, 0
3, 120456, Note_on_c, 7, 59, 0
3, 120480, Note_on_c, 7, 59, 105
3, 120480, Note_on_c, 7, 62, 105
3, 120576, Note_on_c, 7, 62, 0
3, 120576, Note_on_c, 7, 59, 0
3, 120600, Note_on_c, 7, 59, 105
3, 120600, Note_on_c, 7, 62, 105
3, 120696, Note_on_c, 7, 62, 0
3, 120696, Note_on_c, 7, 59, 0
3, 120720, Note_on_c, 7, 59, 105
3, 120720, Note_on_c, 7, 62, 105
3, 120816, Note_on_c, 7, 62, 0
3, 120816, Note_on_c, 7, 59, 0
3, 120840, Note_on_c, 7, 62, 105
3, 120840, Note_on_c, 7, 59, 105
3, 120936, Note_on_c, 7, 59, 0
3, 120936, Note_on_c, 7, 62, 0
3, 120960, Note_on_c, 7, 60, 105
3, 120960, Note_on_c, 7, 62, 105
3, 121056, Note_on_c, 7, 62, 0
3, 121056, Note_on_c, 7, 60, 0
3, 121080, Note_on_c, 7, 62, 105
3, 121080, Note_on_c, 7, 60, 105
3, 121176, Note_on_c, 7, 60, 0
3, 121176, Note_on_c, 7, 62, 0
3, 121200, Note_on_c, 7, 60, 105
3, 121200, Note_on_c, 7, 62, 105
3, 121296, Note_on_c, 7, 62, 0
3, 121296, Note_on_c, 7, 60, 0
3, 121320, Note_on_c, 7, 60, 105
3, 121320, Note_on_c, 7, 62, 105
3, 121416, Note_on_c, 7, 62, 0
3, 121416, Note_on_c, 7, 60, 0
3, 121440, Note_on_c, 7, 60, 105
3, 121440, Note_on_c, 7, 62, 105
3, 121536, Note_on_c, 7, 62, 0
3, 121536, Note_on_c, 7, 60, 0
3, 121560, Note_on_c, 7, 60, 105
3, 121560, Note_on_c, 7, 62, 105
3, 121656, Note_on_c, 7, 62, 0
3, 121656, Note_on_c, 7, 60, 0
3, 121680, Note_on_c, 7, 62, 105
3, 121680, Note_on_c, 7, 60, 105
3, 121776, Note_on_c, 7, 60, 0
3, 121776, Note_on_c, 7, 62, 0
3, 121800, Note_on_c, 7, 62, 105
3, 121800, Note_on_c, 7, 60, 105
3, 121896, Note_on_c, 7, 60, 0
3, 121896, Note_on_c, 7, 62, 0
3, 121920, Note_on_c, 7, 62, 105
3, 121920, Note_on_c, 7, 60, 105
3, 122016, Note_on_c, 7, 60, 0
3, 122016, Note_on_c, 7, 62, 0
3, 122040, Note_on_c, 7, 60, 105
3, 122040, Note_on_c, 7, 62, 105
3, 122136, Note_on_c, 7, 62, 0
3, 122136, Note_on_c, 7, 60, 0
3, 122160, Note_on_c, 7, 62, 105
3, 122160, Note_on_c, 7, 60, 105
3, 122256, Note_on_c, 7, 60, 0
3, 122256, Note_on_c, 7, 62, 0
3, 122280, Note_on_c, 7, 62, 105
3, 122280, Note_on_c, 7, 60, 105
3, 122376, Note_on_c, 7, 60, 0
3, 122376, Note_on_c, 7, 62, 0
3, 122400, Note_on_c, 7, 60, 105
3, 122400, Note_on_c, 7, 62, 105
3, 122496, Note_on_c, 7, 62, 0
3, 122496, Note_on_c, 7, 60, 0
3, 122520, Note_on_c, 7, 60, 105
3, 122520, Note_on_c, 7, 62, 105
3, 122616, Note_on_c, 7, 62, 0
3, 122616, Note_on_c, 7, 60, 0
3, 122640, Note_on_c, 7, 60, 105
3, 122640, Note_on_c, 7, 62, 105
3, 122736, Note_on_c, 7, 62, 0
3, 122736, Note_on_c, 7, 60, 0
3, 122760, Note_on_c, 7, 62, 105
3, 122760, Note_on_c, 7, 60, 105
3, 122856, Note_on_c, 7, 60, 0
3, 122856, Note_on_c, 7, 62, 0
3, 122880, Note_on_c, 7, 59, 105
3, 122880, Note_on_c, 7, 62, 105
3, 123264, Note_on_c, 7, 62, 0
3, 123264, Note_on_c, 7, 59, 0
3, 123360, Note_on_c, 7, 72, 105
3, 123504, Note_on_c, 7, 72, 0
3, 123600, Note_on_c, 7, 72, 105
3, 123744, Note_on_c, 7, 72, 0
3, 123840, Note_on_c, 7, 74, 105
3, 123984, Note_on_c, 7, 74, 0
3, 124080, Note_on_c, 7, 74, 105
3, 124224, Note_on_c, 7, 74, 0
3, 124320, Note_on_c, 7, 72, 105
3, 124560, Note_on_c, 7, 72, 0
3, 124560, Note_on_c, 7, 71, 105
3, 124680, Note_on_c, 7, 71, 0
3, 124680, Note_on_c, 7, 69, 105
3, 124776, Note_on_c, 7, 69, 0
3, 124800, Note_on_c, 7, 67, 105
3, 124944, Note_on_c, 7, 67, 0
3, 125040, Note_on_c, 7, 67, 105
3, 125184, Note_on_c, 7, 67, 0
3, 125280, Note_on_c, 7, 66, 105
3, 125424, Note_on_c, 7, 66, 0
3, 125520, Note_on_c, 7, 66, 105
3, 125664, Note_on_c, 7, 66, 0
3, 125760, Note_on_c, 7, 67, 92
3, 126144, Note_on_c, 7, 67, 0
3, 126720, Note_on_c, 7, 71, 58
3, 127680, Note_on_c, 7, 71, 0
3, 127680, Note_on_c, 7, 72, 58
3, 128448, Note_on_c, 7, 72, 0
3, 128640, Note_on_c, 7, 71, 58
3, 128760, Note_on_c, 7, 71, 0
3, 128760, Note_on_c, 7, 69, 58
3, 128994, Note_on_c, 7, 69, 0
3, 129120, Note_on_c, 7, 69, 58
3, 129432, Note_on_c, 7, 69, 0
3, 129600, Note_on_c, 7, 69, 58
3, 129720, Note_on_c, 7, 69, 0
3, 129720, Note_on_c, 7, 67, 58
3, 129954, Note_on_c, 7, 67, 0
3, 130080, Note_on_c, 7, 67, 58
3, 130392, Note_on_c, 7, 67, 0
3, 130560, Note_on_c, 7, 64, 58
3, 130872, Note_on_c, 7, 64, 0
3, 131040, Note_on_c, 7, 64, 58
3, 131352, Note_on_c, 7, 64, 0
3, 131520, Note_on_c, 7, 60, 58
3, 131832, Note_on_c, 7, 60, 0
3, 132000, Note_on_c, 7, 57, 58
3, 132312, Note_on_c, 7, 57, 0
3, 132480, Note_on_c, 7, 62, 58
3, 132672, Note_on_c, 7, 62, 0
3, 132960, Note_on_c, 7, 66, 58
3, 133152, Note_on_c, 7, 66, 0
3, 133440, Note_on_c, 7, 67, 58
3, 133632, Note_on_c, 7, 67, 0
3, 134400, Note_on_c, 7, 71, 58
3, 135360, Note_on_c, 7, 71, 0
3, 135360, Note_on_c, 7, 72, 58
3, 136128, Note_on_c, 7, 72, 0
3, 136320, Note_on_c, 7, 71, 58
3, 136560, Note_on_c, 7, 71, 0
3, 136560, Note_on_c, 7, 69, 58
3, 136716, Note_on_c, 7, 69, 0
3, 136800, Note_on_c, 7, 69, 58
3, 136956, Note_on_c, 7, 69, 0
3, 137040, Note_on_c, 7, 69, 58
3, 137196, Note_on_c, 7, 69, 0
3, 137280, Note_on_c, 7, 69, 58
3, 137520, Note_on_c, 7, 69, 0
3, 137520, Note_on_c, 7, 67, 58
3, 137676, Note_on_c, 7, 67, 0
3, 137760, Note_on_c, 7, 67, 58
3, 137916, Note_on_c, 7, 67, 0
3, 138000, Note_on_c, 7, 67, 58
3, 138156, Note_on_c, 7, 67, 0
3, 138240, Note_on_c, 7, 64, 58
3, 138552, Note_on_c, 7, 64, 0
3, 138720, Note_on_c, 7, 64, 58
3, 138876, Note_on_c, 7, 64, 0
3, 138960, Note_on_c, 7, 64, 58
3, 139116, Note_on_c, 7, 64, 0
3, 139200, Note_on_c, 7, 60, 58
3, 139512, Note_on_c, 7, 60, 0
3, 139680, Note_on_c, 7, 60, 58
3, 139836, Note_on_c, 7, 60, 0
3, 139920, Note_on_c, 7, 60, 58
3, 140076, Note_on_c, 7, 60, 0
3, 140160, Note_on_c, 7, 59, 121
3, 141312, Note_on_c, 7, 59, 0
3, 141360, Note_on_c, 7, 60, 72
3, 141420, Note_on_c, 7, 60, 0
3, 141420, Note_on_c, 7, 59, 72
3, 141480, Note_on_c, 7, 59, 0
3, 141480, Note_on_c, 7, 57, 72
3, 141540, Note_on_c, 7, 57, 0
3, 141540, Note_on_c, 7, 59, 72
3, 141600, Note_on_c, 7, 59, 0
3, 141600, Note_on_c, 7, 60, 72
3, 141840, Note_on_c, 7, 60, 0
3, 141840, Note_on_c, 7, 57, 72
3, 142032, Note_on_c, 7, 57, 0
3, 142080, Note_on_c, 7, 67, 121
3, 143232, Note_on_c, 7, 67, 0
3, 143280, Note_on_c, 7, 69, 72
3, 143340, Note_on_c, 7, 69, 0
3, 143340, Note_on_c, 7, 67, 72
3, 143400, Note_on_c, 7, 67, 0
3, 143400, Note_on_c, 7, 66, 72
3, 143460, Note_on_c, 7, 66, 0
3, 143460, Note_on_c, 7, 67, 72
3, 143520, Note_on_c, 7, 67, 0
3, 143520, Note_on_c, 7, 69, 72
3, 143760, Note_on_c, 7, 69, 0
3, 143760, Note_on_c, 7, 66, 72
3, 143952, Note_on_c, 7, 66, 0
3, 144000, Note_on_c, 7, 71, 72
3, 144096, Note_on_c, 7, 71, 0
3, 144120, Note_on_c, 7, 71, 72
3, 144216, Note_on_c, 7, 71, 0
3, 144240, Note_on_c, 7, 71, 72
3, 144336, Note_on_c, 7, 71, 0
3, 144360, Note_on_c, 7, 71, 72
3, 144456, Note_on_c, 7, 71, 0
3, 144480, Note_on_c, 7, 71, 72
3, 144576, Note_on_c, 7, 71, 0
3, 144600, Note_on_c, 7, 71, 72
3, 144696, Note_on_c, 7, 71, 0
3, 144720, Note_on_c, 7, 71, 72
3, 144816, Note_on_c, 7, 71, 0
3, 144840, Note_on_c, 7, 71, 72
3, 144936, Note_on_c, 7, 71, 0
3, 144960, Note_on_c, 7, 72, 81
3, 145056, Note_on_c, 7, 72, 0
3, 145080, Note_on_c, 7, 72, 81
3, 145176, Note_on_c, 7, 72, 0
3, 145200, Note_on_c, 7, 72, 81
3, 145296, Note_on_c, 7, 72, 0
3, 145320, Note_on_c, 7, 72, 81
3, 145416, Note_on_c, 7, 72, 0
3, 145440, Note_on_c, 7, 72, 81
3, 145536, Note_on_c, 7, 72, 0
3, 145560, Note_on_c, 7, 72, 81
3, 145656, Note_on_c, 7, 72, 0
3, 145680, Note_on_c, 7, 72, 81
3, 145776, Note_on_c, 7, 72, 0
3, 145800, Note_on_c, 7, 72, 81
3, 145896, Note_on_c, 7, 72, 0
3, 145920, Note_on_c, 7, 71, 92
3, 146016, Note_on_c, 7, 71, 0
3, 146040, Note_on_c, 7, 71, 92
3, 146136, Note_on_c, 7, 71, 0
3, 146160, Note_on_c, 7, 71, 92
3, 146256, Note_on_c, 7, 71, 0
3, 146280, Note_on_c, 7, 71, 92
3, 146376, Note_on_c, 7, 71, 0
3, 146400, Note_on_c, 7, 74, 92
3, 146496, Note_on_c, 7, 74, 0
3, 146520, Note_on_c, 7, 74, 92
3, 146616, Note_on_c, 7, 74, 0
3, 146640, Note_on_c, 7, 74, 92
3, 146736, Note_on_c, 7, 74, 0
3, 146760, Note_on_c, 7, 74, 105
3, 146856, Note_on_c, 7, 74, 0
3, 146880, Note_on_c, 7, 74, 105
3, 146976, Note_on_c, 7, 74, 0
3, 147000, Note_on_c, 7, 74, 105
3, 147096, Note_on_c, 7, 74, 0
3, 147120, Note_on_c, 7, 74, 105
3, 147216, Note_on_c, 7, 74, 0
3, 147240, Note_on_c, 7, 74, 105
3, 147336, Note_on_c, 7, 74, 0
3, 147360, Note_on_c, 7, 79, 105
3, 147456, Note_on_c, 7, 79, 0
3, 147480, Note_on_c, 7, 79, 105
3, 147576, Note_on_c, 7, 79, 0
3, 147600, Note_on_c, 7, 79, 105
3, 147696, Note_on_c, 7, 79, 0
3, 147720, Note_on_c, 7, 79, 105
3, 147816, Note_on_c, 7, 79, 0
3, 147840, Note_on_c, 7, 78, 105
3, 147936, Note_on_c, 7, 78, 0
3, 147960, Note_on_c, 7, 78, 105
3, 148056, Note_on_c, 7, 78, 0
3, 148080, Note_on_c, 7, 78, 105
3, 148176, Note_on_c, 7, 78, 0
3, 148200, Note_on_c, 7, 78, 105
3, 148296, Note_on_c, 7, 78, 0
3, 148320, Note_on_c, 7, 78, 105
3, 148416, Note_on_c, 7, 78, 0
3, 148440, Note_on_c, 7, 78, 105
3, 148536, Note_on_c, 7, 78, 0
3, 148560, Note_on_c, 7, 78, 105
3, 148656, Note_on_c, 7, 78, 0
3, 148680, Note_on_c, 7, 78, 105
3, 148776, Note_on_c, 7, 78, 0
3, 148800, Note_on_c, 7, 79, 105
3, 148896, Note_on_c, 7, 79, 0
3, 148920, Note_on_c, 7, 79, 105
3, 149016, Note_on_c, 7, 79, 0
3, 149040, Note_on_c, 7, 79, 105
3, 149136, Note_on_c, 7, 79, 0
3, 149160, Note_on_c, 7, 79, 105
3, 149256, Note_on_c, 7, 79, 0
3, 149280, Note_on_c, 7, 79, 105
3, 149376, Note_on_c, 7, 79, 0
3, 149400, Note_on_c, 7, 79, 105
3, 149496, Note_on_c, 7, 79, 0
3, 149520, Note_on_c, 7, 79, 105
3, 149616, Note_on_c, 7, 79, 0
3, 149640, Note_on_c, 7, 79, 105
3, 149736, Note_on_c, 7, 79, 0
3, 149760, Note_on_c, 7, 78, 105
3, 149856, Note_on_c, 7, 78, 0
3, 149880, Note_on_c, 7, 78, 105
3, 149976, Note_on_c, 7, 78, 0
3, 150000, Note_on_c, 7, 78, 105
3, 150096, Note_on_c, 7, 78, 0
3, 150120, Note_on_c, 7, 78, 105
3, 150216, Note_on_c, 7, 78, 0
3, 150240, Note_on_c, 7, 78, 105
3, 150336, Note_on_c, 7, 78, 0
3, 150360, Note_on_c, 7, 78, 105
3, 150456, Note_on_c, 7, 78, 0
3, 150480, Note_on_c, 7, 78, 105
3, 150576, Note_on_c, 7, 78, 0
3, 150600, Note_on_c, 7, 78, 105
3, 150696, Note_on_c, 7, 78, 0
3, 150720, Note_on_c, 7, 79, 105
3, 150816, Note_on_c, 7, 79, 0
3, 150840, Note_on_c, 7, 79, 105
3, 150936, Note_on_c, 7, 79, 0
3, 150960, Note_on_c, 7, 79, 105
3, 151056, Note_on_c, 7, 79, 0
3, 151080, Note_on_c, 7, 79, 105
3, 151176, Note_on_c, 7, 79, 0
3, 151200, Note_on_c, 7, 79, 105
3, 151296, Note_on_c, 7, 79, 0
3, 151320, Note_on_c, 7, 79, 105
3, 151416, Note_on_c, 7, 79, 0
3, 151440, Note_on_c, 7, 79, 105
3, 151536, Note_on_c, 7, 79, 0
3, 151560, Note_on_c, 7, 79, 105
3, 151656, Note_on_c, 7, 79, 0
3, 151680, Note_on_c, 7, 78, 105
3, 151680, Note_on_c, 7, 74, 105
3, 151824, Note_on_c, 7, 74, 0
3, 151824, Note_on_c, 7, 78, 0
3, 151920, Note_on_c, 7, 78, 92
3, 151920, Note_on_c, 7, 74, 92
3, 152304, Note_on_c, 7, 74, 0
3, 152304, Note_on_c, 7, 78, 0
3, 152400, Note_on_c, 7, 78, 92
3, 152400, Note_on_c, 7, 74, 92
3, 152784, Note_on_c, 7, 74, 0
3, 152784, Note_on_c, 7, 78, 0
3, 152880, Note_on_c, 7, 74, 92
3, 152880, Note_on_c, 7, 78, 92
3, 153264, Note_on_c, 7, 78, 0
3, 153264, Note_on_c, 7, 74, 0
3, 153360, Note_on_c, 7, 74, 92
3, 153360, Note_on_c, 7, 78, 92
3, 153600, Note_on_c, 7, 78, 0
3, 153600, Note_on_c, 7, 76, 92
3, 153792, Note_on_c, 7, 76, 0
3, 153792, Note_on_c, 7, 74, 0
3, 153840, Note_on_c, 7, 76, 92
3, 153840, Note_on_c, 7, 74, 92
3, 154224, Note_on_c, 7, 74, 0
3, 154224, Note_on_c, 7, 76, 0
3, 154320, Note_on_c, 7, 76, 92
3, 154320, Note_on_c, 7, 74, 92
3, 154704, Note_on_c, 7, 74, 0
3, 154704, Note_on_c, 7, 76, 0
3, 154800, Note_on_c, 7, 76, 92
3, 154800, Note_on_c, 7, 74, 92
3, 155184, Note_on_c, 7, 74, 0
3, 155184, Note_on_c, 7, 76, 0
3, 155280, Note_on_c, 7, 76, 92
3, 155280, Note_on_c, 7, 74, 92
3, 155424, Note_on_c, 7, 76, 0
3, 155472, Note_on_c, 7, 74, 0
3, 155520, Note_on_c, 7, 73, 105
3, 155520, Note_on_c, 7, 76, 105
3, 155616, Note_on_c, 7, 76, 0
3, 155616, Note_on_c, 7, 73, 0
3, 155640, Note_on_c, 7, 76, 105
3, 155640, Note_on_c, 7, 73, 105
3, 155736, Note_on_c, 7, 73, 0
3, 155736, Note_on_c, 7, 76, 0
3, 155760, Note_on_c, 7, 76, 105
3, 155760, Note_on_c, 7, 73, 105
3, 155856, Note_on_c, 7, 73, 0
3, 155856, Note_on_c, 7, 76, 0
3, 155880, Note_on_c, 7, 73, 105
3, 155880, Note_on_c, 7, 76, 105
3, 155976, Note_on_c, 7, 76, 0
3, 155976, Note_on_c, 7, 73, 0
3, 156000, Note_on_c, 7, 78, 105
3, 156000, Note_on_c, 7, 74, 105
3, 156096, Note_on_c, 7, 74, 0
3, 156096, Note_on_c, 7, 78, 0
3, 156120, Note_on_c, 7, 74, 105
3, 156120, Note_on_c, 7, 78, 105
3, 156216, Note_on_c, 7, 78, 0
3, 156216, Note_on_c, 7, 74, 0
3, 156240, Note_on_c, 7, 74, 105
3, 156240, Note_on_c, 7, 78, 105
3, 156336, Note_on_c, 7, 78, 0
3, 156336, Note_on_c, 7, 74, 0
3, 156360, Note_on_c, 7, 78, 105
3, 156360, Note_on_c, 7, 74, 105
3, 156456, Note_on_c, 7, 74, 0
3, 156456, Note_on_c, 7, 78, 0
3, 156480, Note_on_c, 7, 76, 105
3, 156480, Note_on_c, 7, 73, 105
3, 156576, Note_on_c, 7, 73, 0
3, 156576, Note_on_c, 7, 76, 0
3, 156600, Note_on_c, 7, 73, 105
3, 156600, Note_on_c, 7, 76, 105
3, 156696, Note_on_c, 7, 76, 0
3, 156696, Note_on_c, 7, 73, 0
3, 156720, Note_on_c, 7, 73, 105
3, 156720, Note_on_c, 7, 76, 105
3, 156816, Note_on_c, 7, 76, 0
3, 156816, Note_on_c, 7, 73, 0
3, 156840, Note_on_c, 7, 76, 105
3, 156840, Note_on_c, 7, 73, 105
3, 156936, Note_on_c, 7, 73, 0
3, 156936, Note_on_c, 7, 76, 0
3, 156960, Note_on_c, 7, 78, 105
3, 156960, Note_on_c, 7, 74, 105
3, 157056, Note_on_c, 7, 74, 0
3, 157056, Note_on_c, 7, 78, 0
3, 157080, Note_on_c, 7, 78, 105
3, 157080, Note_on_c, 7, 74, 105
3, 157176, Note_on_c, 7, 74, 0
3, 157176, Note_on_c, 7, 78, 0
3, 157200, Note_on_c, 7, 74, 105
3, 157200, Note_on_c, 7, 78, 105
3, 157296, Note_on_c, 7, 78, 0
3, 157296, Note_on_c, 7, 74, 0
3, 157320, Note_on_c, 7, 78, 105
3, 157320, Note_on_c, 7, 74, 105
3, 157416, Note_on_c, 7, 74, 0
3, 157416, Note_on_c, 7, 78, 0
3, 157440, Note_on_c, 7, 76, 105
3, 157440, Note_on_c, 7, 73, 105
3, 157584, Note_on_c, 7, 73, 0
3, 157584, Note_on_c, 7, 76, 0
3, 157680, Note_on_c, 7, 69, 92
3, 157824, Note_on_c, 7, 69, 0
3, 157920, Note_on_c, 7, 69, 92
3, 158064, Note_on_c, 7, 69, 0
3, 158160, Note_on_c, 7, 69, 92
3, 158304, Note_on_c, 7, 69, 0
3, 158400, Note_on_c, 7, 69, 92
3, 158784, Note_on_c, 7, 69, 0
3, 159360, Note_on_c, 7, 69, 92
3, 160080, Note_on_c, 7, 69, 0
3, 160080, Note_on_c, 7, 67, 72
3, 160160, Note_on_c, 7, 67, 0
3, 160160, Note_on_c, 7, 66, 72
3, 160240, Note_on_c, 7, 66, 0
3, 160240, Note_on_c, 7, 64, 72
3, 160320, Note_on_c, 7, 64, 0
3, 160320, Note_on_c, 7, 62, 72
3, 160476, Note_on_c, 7, 62, 0
3, 160800, Note_on_c, 7, 71, 72
3, 160956, Note_on_c, 7, 71, 0
3, 161280, Note_on_c, 7, 67, 72
3, 161436, Note_on_c, 7, 67, 0
3, 161760, Note_on_c, 7, 64, 72
3, 161916, Note_on_c, 7, 64, 0
3, 162240, Note_on_c, 7, 69, 72
3, 162396, Note_on_c, 7, 69, 0
3, 163200, Note_on_c, 7, 66, 72
3, 163920, Note_on_c, 7, 66, 0
3, 163920, Note_on_c, 7, 64, 72
3, 164000, Note_on_c, 7, 64, 0
3, 164000, Note_on_c, 7, 62, 72
3, 164080, Note_on_c, 7, 62, 0
3, 164080, Note_on_c, 7, 61, 72
3, 164160, Note_on_c, 7, 61, 0
3, 164160, Note_on_c, 7, 59, 72
3, 164316, Note_on_c, 7, 59, 0
3, 164640, Note_on_c, 7, 67, 72
3, 164796, Note_on_c, 7, 67, 0
3, 165120, Note_on_c, 7, 66, 72
3, 166080, Note_on_c, 7, 66, 0
3, 166080, Note_on_c, 7, 64, 72
3, 166464, Note_on_c, 7, 64, 0
3, 167040, Note_on_c, 7, 69, 72
3, 167760, Note_on_c, 7, 69, 0
3, 167760, Note_on_c, 7, 67, 72
3, 167840, Note_on_c, 7, 67, 0
3, 167840, Note_on_c, 7, 66, 72
3, 167920, Note_on_c, 7, 66, 0
3, 167920, Note_on_c, 7, 64, 72
3, 168000, Note_on_c, 7, 64, 0
3, 168000, Note_on_c, 7, 62, 72
3, 168156, Note_on_c, 7, 62, 0
3, 168480, Note_on_c, 7, 71, 72
3, 168636, Note_on_c, 7, 71, 0
3, 168960, Note_on_c, 7, 67, 72
3, 169116, Note_on_c, 7, 67, 0
3, 169440, Note_on_c, 7, 64, 72
3, 169596, Note_on_c, 7, 64, 0
3, 169920, Note_on_c, 7, 69, 72
3, 170076, Note_on_c, 7, 69, 0
3, 170640, Note_on_c, 7, 67, 72
3, 170832, Note_on_c, 7, 67, 0
3, 170880, Note_on_c, 7, 67, 72
3, 171120, Note_on_c, 7, 67, 0
3, 171120, Note_on_c, 7, 66, 72
3, 171264, Note_on_c, 7, 66, 0
3, 171600, Note_on_c, 7, 79, 72
3, 171744, Note_on_c, 7, 79, 0
3, 171840, Note_on_c, 7, 79, 72
3, 172080, Note_on_c, 7, 79, 0
3, 172080, Note_on_c, 7, 78, 72
3, 172272, Note_on_c, 7, 78, 0
3, 172560, Note_on_c, 7, 67, 72
3, 172704, Note_on_c, 7, 67, 0
3, 172800, Note_on_c, 7, 66, 58
3, 172956, Note_on_c, 7, 66, 0
3, 173040, Note_on_c, 7, 66, 58
3, 173196, Note_on_c, 7, 66, 0
3, 173280, Note_on_c, 7, 67, 58
3, 173436, Note_on_c, 7, 67, 0
3, 173520, Note_on_c, 7, 67, 58
3, 173676, Note_on_c, 7, 67, 0
3, 173760, Note_on_c, 7, 69, 58
3, 173916, Note_on_c, 7, 69, 0
3, 174000, Note_on_c, 7, 69, 58
3, 174156, Note_on_c, 7, 69, 0
3, 174240, Note_on_c, 7, 66, 58
3, 174396, Note_on_c, 7, 66, 0
3, 174480, Note_on_c, 7, 66, 58
3, 174636, Note_on_c, 7, 66, 0
3, 174720, Note_on_c, 7, 64, 58
3, 174876, Note_on_c, 7, 64, 0
3, 174960, Note_on_c, 7, 64, 58
3, 175116, Note_on_c, 7, 64, 0
3, 175200, Note_on_c, 7, 66, 58
3, 175356, Note_on_c, 7, 66, 0
3, 175440, Note_on_c, 7, 66, 58
3, 175596, Note_on_c, 7, 66, 0
3, 175680, Note_on_c, 7, 67, 58
3, 175836, Note_on_c, 7, 67, 0
3, 175920, Note_on_c, 7, 67, 58
3, 176076, Note_on_c, 7, 67, 0
3, 176160, Note_on_c, 7, 64, 58
3, 176316, Note_on_c, 7, 64, 0
3, 176400, Note_on_c, 7, 64, 58
3, 176556, Note_on_c, 7, 64, 0
3, 176640, Note_on_c, 7, 66, 58
3, 176796, Note_on_c, 7, 66, 0
3, 176880, Note_on_c, 7, 66, 58
3, 177036, Note_on_c, 7, 66, 0
3, 177120, Note_on_c, 7, 67, 58
3, 177276, Note_on_c, 7, 67, 0
3, 177360, Note_on_c, 7, 67, 58
3, 177516, Note_on_c, 7, 67, 0
3, 177600, Note_on_c, 7, 69, 58
3, 177756, Note_on_c, 7, 69, 0
3, 177840, Note_on_c, 7, 69, 58
3, 177996, Note_on_c, 7, 69, 0
3, 178080, Note_on_c, 7, 66, 58
3, 178236, Note_on_c, 7, 66, 0
3, 178320, Note_on_c, 7, 66, 58
3, 178476, Note_on_c, 7, 66, 0
3, 178560, Note_on_c, 7, 64, 58
3, 178716, Note_on_c, 7, 64, 0
3, 178800, Note_on_c, 7, 64, 58
3, 178956, Note_on_c, 7, 64, 0
3, 179040, Note_on_c, 7, 66, 58
3, 179196, Note_on_c, 7, 66, 0
3, 179280, Note_on_c, 7, 66, 58
3, 179436, Note_on_c, 7, 66, 0
3, 179520, Note_on_c, 7, 67, 58
3, 179676, Note_on_c, 7, 67, 0
3, 179760, Note_on_c, 7, 67, 58
3, 179916, Note_on_c, 7, 67, 0
3, 180000, Note_on_c, 7, 64, 58
3, 180156, Note_on_c, 7, 64, 0
3, 180240, Note_on_c, 7, 64, 58
3, 180396, Note_on_c, 7, 64, 0
3, 180480, Note_on_c, 7, 66, 58
3, 180864, Note_on_c, 7, 66, 0
3, 181440, Note_on_c, 7, 71, 105
3, 181440, Note_on_c, 7, 78, 105
3, 182208, Note_on_c, 7, 71, 0
3, 182400, Note_on_c, 7, 78, 0
3, 182400, Note_on_c, 7, 76, 105
3, 182784, Note_on_c, 7, 76, 0
3, 183360, Note_on_c, 7, 69, 105
3, 183360, Note_on_c, 7, 76, 105
3, 184128, Note_on_c, 7, 69, 0
3, 184320, Note_on_c, 7, 76, 0
3, 184320, Note_on_c, 7, 74, 105
3, 184476, Note_on_c, 7, 74, 0
3, 184560, Note_on_c, 7, 78, 105
3, 184716, Note_on_c, 7, 78, 0
3, 184800, Note_on_c, 7, 79, 105
3, 184956, Note_on_c, 7, 79, 0
3, 185040, Note_on_c, 7, 81, 105
3, 185196, Note_on_c, 7, 81, 0
3, 185280, Note_on_c, 7, 79, 105
3, 185520, Note_on_c, 7, 79, 0
3, 185520, Note_on_c, 7, 81, 105
3, 185640, Note_on_c, 7, 81, 0
3, 185640, Note_on_c, 7, 83, 105
3, 185760, Note_on_c, 7, 83, 0
3, 185760, Note_on_c, 7, 81, 105
3, 185904, Note_on_c, 7, 81, 0
3, 186000, Note_on_c, 7, 79, 105
3, 186144, Note_on_c, 7, 79, 0
3, 186240, Note_on_c, 7, 79, 105
3, 186480, Note_on_c, 7, 79, 0
3, 186480, Note_on_c, 7, 78, 105
3, 186624, Note_on_c, 7, 78, 0
3, 186720, Note_on_c, 7, 74, 105
3, 186864, Note_on_c, 7, 74, 0
3, 186960, Note_on_c, 7, 78, 105
3, 187104, Note_on_c, 7, 78, 0
3, 187200, Note_on_c, 7, 78, 105
3, 187440, Note_on_c, 7, 78, 0
3, 187440, Note_on_c, 7, 76, 105
3, 187584, Note_on_c, 7, 76, 0
3, 187680, Note_on_c, 7, 74, 105
3, 187824, Note_on_c, 7, 74, 0
3, 187920, Note_on_c, 7, 73, 105
3, 188064, Note_on_c, 7, 73, 0
3, 188160, Note_on_c, 7, 74, 92
3, 188316, Note_on_c, 7, 74, 0
3, 188400, Note_on_c, 7, 66, 58
3, 188556, Note_on_c, 7, 66, 0
3, 188640, Note_on_c, 7, 67, 58
3, 188796, Note_on_c, 7, 67, 0
3, 188880, Note_on_c, 7, 67, 58
3, 189036, Note_on_c, 7, 67, 0
3, 189120, Note_on_c, 7, 69, 58
3, 189276, Note_on_c, 7, 69, 0
3, 189360, Note_on_c, 7, 69, 58
3, 189516, Note_on_c, 7, 69, 0
3, 189600, Note_on_c, 7, 66, 58
3, 189756, Note_on_c, 7, 66, 0
3, 189840, Note_on_c, 7, 66, 58
3, 189996, Note_on_c, 7, 66, 0
3, 190080, Note_on_c, 7, 64, 58
3, 190236, Note_on_c, 7, 64, 0
3, 190320, Note_on_c, 7, 64, 58
3, 190476, Note_on_c, 7, 64, 0
3, 190560, Note_on_c, 7, 66, 58
3, 190716, Note_on_c, 7, 66, 0
3, 190800, Note_on_c, 7, 66, 58
3, 190956, Note_on_c, 7, 66, 0
3, 191040, Note_on_c, 7, 67, 58
3, 191196, Note_on_c, 7, 67, 0
3, 191280, Note_on_c, 7, 67, 58
3, 191436, Note_on_c, 7, 67, 0
3, 191520, Note_on_c, 7, 64, 58
3, 191676, Note_on_c, 7, 64, 0
3, 191760, Note_on_c, 7, 64, 58
3, 191916, Note_on_c, 7, 64, 0
3, 192000, Note_on_c, 7, 66, 58
3, 192156, Note_on_c, 7, 66, 0
3, 192240, Note_on_c, 7, 66, 58
3, 192396, Note_on_c, 7, 66, 0
3, 192480, Note_on_c, 7, 67, 58
3, 192636, Note_on_c, 7, 67, 0
3, 192720, Note_on_c, 7, 67, 58
3, 192876, Note_on_c, 7, 67, 0
3, 192960, Note_on_c, 7, 69, 58
3, 193116, Note_on_c, 7, 69, 0
3, 193200, Note_on_c, 7, 69, 58
3, 193356, Note_on_c, 7, 69, 0
3, 193440, Note_on_c, 7, 66, 58
3, 193596, Note_on_c, 7, 66, 0
3, 193680, Note_on_c, 7, 66, 58
3, 193836, Note_on_c, 7, 66, 0
3, 193920, Note_on_c, 7, 64, 58
3, 194076, Note_on_c, 7, 64, 0
3, 194160, Note_on_c, 7, 64, 58
3, 194316, Note_on_c, 7, 64, 0
3, 194400, Note_on_c, 7, 66, 58
3, 194556, Note_on_c, 7, 66, 0
3, 194640, Note_on_c, 7, 66, 58
3, 194796, Note_on_c, 7, 66, 0
3, 194880, Note_on_c, 7, 67, 58
3, 195036, Note_on_c, 7, 67, 0
3, 195120, Note_on_c, 7, 67, 58
3, 195276, Note_on_c, 7, 67, 0
3, 195360, Note_on_c, 7, 64, 58
3, 195516, Note_on_c, 7, 64, 0
3, 195600, Note_on_c, 7, 64, 58
3, 195756, Note_on_c, 7, 64, 0
3, 195840, Note_on_c, 7, 66, 58
3, 196224, Note_on_c, 7, 66, 0
3, 196800, Note_on_c, 7, 71, 105
3, 196800, Note_on_c, 7, 78, 105
3, 197568, Note_on_c, 7, 71, 0
3, 197760, Note_on_c, 7, 78, 0
3, 197760, Note_on_c, 7, 76, 105
3, 198144, Note_on_c, 7, 76, 0
3, 198720, Note_on_c, 7, 69, 105
3, 198720, Note_on_c, 7, 76, 105
3, 199488, Note_on_c, 7, 69, 0
3, 199680, Note_on_c, 7, 76, 0
3, 199680, Note_on_c, 7, 74, 105
3, 199836, Note_on_c, 7, 74, 0
3, 199920, Note_on_c, 7, 78, 105
3, 200076, Note_on_c, 7, 78, 0
3, 200160, Note_on_c, 7, 79, 105
3, 200316, Note_on_c, 7, 79, 0
3, 200400, Note_on_c, 7, 81, 105
3, 200556, Note_on_c, 7, 81, 0
3, 200640, Note_on_c, 7, 79, 105
3, 200880, Note_on_c, 7, 79, 0
3, 200880, Note_on_c, 7, 81, 105
3, 201000, Note_on_c, 7, 81, 0
3, 201000, Note_on_c, 7, 83, 105
3, 201120, Note_on_c, 7, 83, 0
3, 201120, Note_on_c, 7, 81, 105
3, 201264, Note_on_c, 7, 81, 0
3, 201360, Note_on_c, 7, 79, 105
3, 201504, Note_on_c, 7, 79, 0
3, 201600, Note_on_c, 7, 79, 105
3, 201840, Note_on_c, 7, 79, 0
3, 201840, Note_on_c, 7, 78, 105
3, 201984, Note_on_c, 7, 78, 0
3, 202080, Note_on_c, 7, 74, 105
3, 202224, Note_on_c, 7, 74, 0
3, 202320, Note_on_c, 7, 78, 105
3, 202464, Note_on_c, 7, 78, 0
3, 202560, Note_on_c, 7, 78, 105
3, 202800, Note_on_c, 7, 78, 0
3, 202800, Note_on_c, 7, 76, 105
3, 202944, Note_on_c, 7, 76, 0
3, 203040, Note_on_c, 7, 74, 105
3, 203184, Note_on_c, 7, 74, 0
3, 203280, Note_on_c, 7, 73, 105
3, 203424, Note_on_c, 7, 73, 0
3, 203520, Note_on_c, 7, 74, 105
3, 203664, Note_on_c, 7, 74, 0
3, 203760, Note_on_c, 7, 69, 105
3, 203904, Note_on_c, 7, 69, 0
3, 204000, Note_on_c, 7, 71, 105
3, 204144, Note_on_c, 7, 71, 0
3, 204240, Note_on_c, 7, 73, 105
3, 204384, Note_on_c, 7, 73, 0
3, 204480, Note_on_c, 7, 74, 105
3, 204624, Note_on_c, 7, 74, 0
3, 204720, Note_on_c, 7, 74, 105
3, 204864, Note_on_c, 7, 74, 0
3, 204960, Note_on_c, 7, 78, 105
3, 205020, Note_on_c, 7, 78, 0
3, 205020, Note_on_c, 7, 76, 105
3, 205080, Note_on_c, 7, 76, 0
3, 205080, Note_on_c, 7, 78, 105
3, 205140, Note_on_c, 7, 78, 0
3, 205140, Note_on_c, 7, 76, 105
3, 205200, Note_on_c, 7, 76, 0
3, 205200, Note_on_c, 7, 74, 105
3, 205320, Note_on_c, 7, 74, 0
3, 205320, Note_on_c, 7, 76, 105
3, 205440, Note_on_c, 7, 76, 0
3, 205440, Note_on_c, 7, 78, 105
3, 205584, Note_on_c, 7, 78, 0
3, 205680, Note_on_c, 7, 73, 105
3, 205824, Note_on_c, 7, 73, 0
3, 205920, Note_on_c, 7, 74, 105
3, 206064, Note_on_c, 7, 74, 0
3, 206160, Note_on_c, 7, 76, 105
3, 206304, Note_on_c, 7, 76, 0
3, 206400, Note_on_c, 7, 78, 105
3, 206544, Note_on_c, 7, 78, 0
3, 206640, Note_on_c, 7, 78, 105
3, 206784, Note_on_c, 7, 78, 0
3, 206880, Note_on_c, 7, 81, 105
3, 206940, Note_on_c, 7, 81, 0
3, 206940, Note_on_c, 7, 79, 105
3, 207000, Note_on_c, 7, 79, 0
3, 207000, Note_on_c, 7, 81, 105
3, 207060, Note_on_c, 7, 81, 0
3, 207060, Note_on_c, 7, 79, 105
3, 207120, Note_on_c, 7, 79, 0
3, 207120, Note_on_c, 7, 78, 105
3, 207240, Note_on_c, 7, 78, 0
3, 207240, Note_on_c, 7, 79, 105
3, 207360, Note_on_c, 7, 79, 0
3, 207360, Note_on_c, 7, 81, 105
3, 207504, Note_on_c, 7, 81, 0
3, 207600, Note_on_c, 7, 81, 105
3, 207744, Note_on_c, 7, 81, 0
3, 207840, Note_on_c, 7, 83, 105
3, 207900, Note_on_c, 7, 83, 0
3, 207900, Note_on_c, 7, 82, 105
3, 207960, Note_on_c, 7, 82, 0
3, 207960, Note_on_c, 7, 83, 105
3, 208020, Note_on_c, 7, 83, 0
3, 208020, Note_on_c, 7, 82, 105
3, 208080, Note_on_c, 7, 82, 0
3, 208080, Note_on_c, 7, 80, 105
3, 208200, Note_on_c, 7, 80, 0
3, 208200, Note_on_c, 7, 82, 105
3, 208320, Note_on_c, 7, 82, 0
3, 208320, Note_on_c, 7, 83, 92
3, 208704, Note_on_c, 7, 83, 0
3, 209280, Note_on_c, 7, 67, 58
3, 211104, Note_on_c, 7, 67, 0
3, 211200, Note_on_c, 7, 66, 58
3, 211392, Note_on_c, 7, 66, 0
3, 211680, Note_on_c, 7, 69, 58
3, 211872, Note_on_c, 7, 69, 0
3, 212160, Note_on_c, 7, 66, 58
3, 212352, Note_on_c, 7, 66, 0
3, 213120, Note_on_c, 7, 74, 92
3, 213120, Note_on_c, 7, 62, 92
3, 213504, Note_on_c, 7, 62, 0
3, 213504, Note_on_c, 7, 74, 0
3, 213840, Note_on_c, 7, 69, 92
3, 213996, Note_on_c, 7, 69, 0
3, 214080, Note_on_c, 7, 74, 92
3, 214464, Note_on_c, 7, 74, 0
3, 214800, Note_on_c, 7, 69, 92
3, 214956, Note_on_c, 7, 69, 0
3, 215040, Note_on_c, 7, 74, 92
3, 215196, Note_on_c, 7, 74, 0
3, 215280, Note_on_c, 7, 69, 92
3, 215436, Note_on_c, 7, 69, 0
3, 215520, Note_on_c, 7, 74, 92
3, 215676, Note_on_c, 7, 74, 0
3, 215760, Note_on_c, 7, 78, 92
3, 215916, Note_on_c, 7, 78, 0
3, 216000, Note_on_c, 7, 81, 92
3, 216384, Note_on_c, 7, 81, 0
3, 216960, Note_on_c, 7, 81, 92
3, 217344, Note_on_c, 7, 81, 0
3, 217680, Note_on_c, 7, 78, 92
3, 217836, Note_on_c, 7, 78, 0
3, 217920, Note_on_c, 7, 81, 92
3, 218304, Note_on_c, 7, 81, 0
3, 218640, Note_on_c, 7, 78, 92
3, 218796, Note_on_c, 7, 78, 0
3, 218880, Note_on_c, 7, 81, 92
3, 219036, Note_on_c, 7, 81, 0
3, 219120, Note_on_c, 7, 78, 92
3, 219276, Note_on_c, 7, 78, 0
3, 219360, Note_on_c, 7, 75, 92
3, 219516, Note_on_c, 7, 75, 0
3, 219600, Note_on_c, 7, 78, 92
3, 219756, Note_on_c, 7, 78, 0
3, 219840, Note_on_c, 7, 71, 92
3, 220224, Note_on_c, 7, 71, 0
3, 220800, Note_on_c, 7, 64, 58
3, 220956, Note_on_c, 7, 64, 0
3, 221040, Note_on_c, 7, 64, 58
3, 221196, Note_on_c, 7, 64, 0
3, 221280, Note_on_c, 7, 65, 58
3, 221436, Note_on_c, 7, 65, 0
3, 221520, Note_on_c, 7, 65, 58
3, 221676, Note_on_c, 7, 65, 0
3, 221760, Note_on_c, 7, 67, 58
3, 221916, Note_on_c, 7, 67, 0
3, 222000, Note_on_c, 7, 67, 58
3, 222156, Note_on_c, 7, 67, 0
3, 222240, Note_on_c, 7, 64, 58
3, 222396, Note_on_c, 7, 64, 0
3, 222480, Note_on_c, 7, 64, 58
3, 222636, Note_on_c, 7, 64, 0
3, 222720, Note_on_c, 7, 62, 58
3, 222876, Note_on_c, 7, 62, 0
3, 222960, Note_on_c, 7, 62, 58
3, 223116, Note_on_c, 7, 62, 0
3, 223200, Note_on_c, 7, 64, 58
3, 223356, Note_on_c, 7, 64, 0
3, 223440, Note_on_c, 7, 64, 58
3, 223596, Note_on_c, 7, 64, 0
3, 223680, Note_on_c, 7, 65, 58
3, 223836, Note_on_c, 7, 65, 0
3, 223920, Note_on_c, 7, 65, 58
3, 224076, Note_on_c, 7, 65, 0
3, 224160, Note_on_c, 7, 62, 58
3, 224316, Note_on_c, 7, 62, 0
3, 224400, Note_on_c, 7, 62, 58
3, 224556, Note_on_c, 7, 62, 0
3, 224640, Note_on_c, 7, 64, 58
3, 224796, Note_on_c, 7, 64, 0
3, 224880, Note_on_c, 7, 64, 58
3, 225036, Note_on_c, 7, 64, 0
3, 225120, Note_on_c, 7, 65, 58
3, 225276, Note_on_c, 7, 65, 0
3, 225360, Note_on_c, 7, 65, 58
3, 225516, Note_on_c, 7, 65, 0
3, 225600, Note_on_c, 7, 67, 58
3, 225756, Note_on_c, 7, 67, 0
3, 225840, Note_on_c, 7, 67, 58
3, 225996, Note_on_c, 7, 67, 0
3, 226080, Note_on_c, 7, 64, 58
3, 226236, Note_on_c, 7, 64, 0
3, 226320, Note_on_c, 7, 64, 58
3, 226476, Note_on_c, 7, 64, 0
3, 226560, Note_on_c, 7, 62, 58
3, 226716, Note_on_c, 7, 62, 0
3, 226800, Note_on_c, 7, 62, 58
3, 226956, Note_on_c, 7, 62, 0
3, 227040, Note_on_c, 7, 64, 58
3, 227196, Note_on_c, 7, 64, 0
3, 227280, Note_on_c, 7, 64, 58
3, 227436, Note_on_c, 7, 64, 0
3, 227520, Note_on_c, 7, 65, 58
3, 227676, Note_on_c, 7, 65, 0
3, 227760, Note_on_c, 7, 65, 58
3, 227916, Note_on_c, 7, 65, 0
3, 228000, Note_on_c, 7, 62, 58
3, 228156, Note_on_c, 7, 62, 0
3, 228240, Note_on_c, 7, 62, 58
3, 228396, Note_on_c, 7, 62, 0
3, 228480, Note_on_c, 7, 64, 58
3, 228636, Note_on_c, 7, 64, 0
3, 228720, Note_on_c, 7, 64, 58
3, 228876, Note_on_c, 7, 64, 0
3, 228960, Note_on_c, 7, 65, 58
3, 229116, Note_on_c, 7, 65, 0
3, 229200, Note_on_c, 7, 65, 58
3, 229356, Note_on_c, 7, 65, 0
3, 229440, Note_on_c, 7, 67, 58
3, 229596, Note_on_c, 7, 67, 0
3, 229680, Note_on_c, 7, 67, 58
3, 229836, Note_on_c, 7, 67, 0
3, 229920, Note_on_c, 7, 64, 58
3, 230076, Note_on_c, 7, 64, 0
3, 230160, Note_on_c, 7, 64, 58
3, 230316, Note_on_c, 7, 64, 0
3, 230400, Note_on_c, 7, 62, 58
3, 230556, Note_on_c, 7, 62, 0
3, 230640, Note_on_c, 7, 62, 58
3, 230796, Note_on_c, 7, 62, 0
3, 230880, Note_on_c, 7, 64, 58
3, 231036, Note_on_c, 7, 64, 0
3, 231120, Note_on_c, 7, 64, 58
3, 231276, Note_on_c, 7, 64, 0
3, 231360, Note_on_c, 7, 65, 58
3, 231516, Note_on_c, 7, 65, 0
3, 231600, Note_on_c, 7, 65, 58
3, 231756, Note_on_c, 7, 65, 0
3, 231840, Note_on_c, 7, 62, 58
3, 231996, Note_on_c, 7, 62, 0
3, 232080, Note_on_c, 7, 62, 58
3, 232236, Note_on_c, 7, 62, 0
3, 232320, Note_on_c, 7, 60, 58
3, 232476, Note_on_c, 7, 60, 0
3, 232560, Note_on_c, 7, 60, 58
3, 232716, Note_on_c, 7, 60, 0
3, 232800, Note_on_c, 7, 62, 58
3, 232956, Note_on_c, 7, 62, 0
3, 233040, Note_on_c, 7, 62, 58
3, 233196, Note_on_c, 7, 62, 0
3, 233280, Note_on_c, 7, 64, 58
3, 233436, Note_on_c, 7, 64, 0
3, 233520, Note_on_c, 7, 64, 58
3, 233676, Note_on_c, 7, 64, 0
3, 233760, Note_on_c, 7, 60, 58
3, 233916, Note_on_c, 7, 60, 0
3, 234000, Note_on_c, 7, 60, 58
3, 234156, Note_on_c, 7, 60, 0
3, 234240, Note_on_c, 7, 60, 58
3, 234396, Note_on_c, 7, 60, 0
3, 234480, Note_on_c, 7, 60, 58
3, 234636, Note_on_c, 7, 60, 0
3, 234720, Note_on_c, 7, 62, 58
3, 234876, Note_on_c, 7, 62, 0
3, 234960, Note_on_c, 7, 62, 58
3, 235116, Note_on_c, 7, 62, 0
3, 235200, Note_on_c, 7, 63, 58
3, 235356, Note_on_c, 7, 63, 0
3, 235440, Note_on_c, 7, 63, 58
3, 235596, Note_on_c, 7, 63, 0
3, 235680, Note_on_c, 7, 60, 58
3, 235836, Note_on_c, 7, 60, 0
3, 235920, Note_on_c, 7, 60, 58
3, 236076, Note_on_c, 7, 60, 0
3, 236160, Note_on_c, 7, 58, 58
3, 236316, Note_on_c, 7, 58, 0
3, 236400, Note_on_c, 7, 58, 58
3, 236556, Note_on_c, 7, 58, 0
3, 236640, Note_on_c, 7, 57, 58
3, 236796, Note_on_c, 7, 57, 0
3, 236880, Note_on_c, 7, 57, 58
3, 237036, Note_on_c, 7, 57, 0
3, 237120, Note_on_c, 7, 58, 58
3, 237276, Note_on_c, 7, 58, 0
3, 237360, Note_on_c, 7, 58, 58
3, 237516, Note_on_c, 7, 58, 0
3, 237600, Note_on_c, 7, 69, 58
3, 237756, Note_on_c, 7, 69, 0
3, 237840, Note_on_c, 7, 69, 58
3, 237996, Note_on_c, 7, 69, 0
3, 238080, Note_on_c, 7, 70, 58
3, 238236, Note_on_c, 7, 70, 0
3, 238320, Note_on_c, 7, 70, 58
3, 238476, Note_on_c, 7, 70, 0
3, 238560, Note_on_c, 7, 69, 58
3, 238716, Note_on_c, 7, 69, 0
3, 238800, Note_on_c, 7, 69, 58
3, 238956, Note_on_c, 7, 69, 0
3, 239040, Note_on_c, 7, 70, 58
3, 239196, Note_on_c, 7, 70, 0
3, 239280, Note_on_c, 7, 70, 58
3, 239436, Note_on_c, 7, 70, 0
3, 239520, Note_on_c, 7, 69, 58
3, 239676, Note_on_c, 7, 69, 0
3, 239760, Note_on_c, 7, 67, 58
3, 239916, Note_on_c, 7, 67, 0
3, 240000, Note_on_c, 7, 66, 58
3, 240384, Note_on_c, 7, 66, 0
3, 240720, Note_on_c, 7, 62, 92
3, 240960, Note_on_c, 7, 62, 0
3, 240960, Note_on_c, 7, 64, 92
3, 241200, Note_on_c, 7, 64, 0
3, 241200, Note_on_c, 7, 66, 92
3, 241440, Note_on_c, 7, 66, 0
3, 241440, Note_on_c, 7, 67, 92
3, 241680, Note_on_c, 7, 67, 0
3, 241680, Note_on_c, 7, 69, 92
3, 241920, Note_on_c, 7, 69, 0
3, 241920, Note_on_c, 7, 72, 92
3, 242160, Note_on_c, 7, 72, 0
3, 242160, Note_on_c, 7, 70, 92
3, 242400, Note_on_c, 7, 70, 0
3, 242640, Note_on_c, 7, 66, 92
3, 242880, Note_on_c, 7, 66, 0
3, 242880, Note_on_c, 7, 67, 92
3, 243120, Note_on_c, 7, 67, 0
3, 243120, Note_on_c, 7, 69, 92
3, 243360, Note_on_c, 7, 69, 0
3, 243360, Note_on_c, 7, 70, 92
3, 243600, Note_on_c, 7, 70, 0
3, 243600, Note_on_c, 7, 73, 92
3, 243840, Note_on_c, 7, 73, 0
3, 243840, Note_on_c, 7, 76, 92
3, 244080, Note_on_c, 7, 76, 0
3, 244080, Note_on_c, 7, 74, 92
3, 244272, Note_on_c, 7, 74, 0
3, 244560, Note_on_c, 7, 62, 58
3, 244800, Note_on_c, 7, 62, 0
3, 244800, Note_on_c, 7, 64, 58
3, 245040, Note_on_c, 7, 64, 0
3, 245040, Note_on_c, 7, 66, 58
3, 245280, Note_on_c, 7, 66, 0
3, 245280, Note_on_c, 7, 67, 58
3, 245520, Note_on_c, 7, 67, 0
3, 245520, Note_on_c, 7, 69, 58
3, 245760, Note_on_c, 7, 69, 0
3, 245760, Note_on_c, 7, 70, 58
3, 246240, Note_on_c, 7, 70, 0
3, 246240, Note_on_c, 7, 71, 58
3, 246720, Note_on_c, 7, 71, 0
3, 246720, Note_on_c, 7, 72, 58
3, 247200, Note_on_c, 7, 72, 0
3, 247200, Note_on_c, 7, 73, 58
3, 247584, Note_on_c, 7, 73, 0
3, 247680, Note_on_c, 7, 74, 72
3, 247824, Note_on_c, 7, 74, 0
3, 247920, Note_on_c, 7, 74, 72
3, 248064, Note_on_c, 7, 74, 0
3, 248160, Note_on_c, 7, 74, 72
3, 248400, Note_on_c, 7, 74, 0
3, 248400, Note_on_c, 7, 76, 72
3, 248544, Note_on_c, 7, 76, 0
3, 248640, Note_on_c, 7, 72, 72
3, 248784, Note_on_c, 7, 72, 0
3, 248880, Note_on_c, 7, 72, 72
3, 249024, Note_on_c, 7, 72, 0
3, 249120, Note_on_c, 7, 72, 72
3, 249360, Note_on_c, 7, 72, 0
3, 249360, Note_on_c, 7, 74, 72
3, 249504, Note_on_c, 7, 74, 0
3, 249600, Note_on_c, 7, 71, 72
3, 249744, Note_on_c, 7, 71, 0
3, 249840, Note_on_c, 7, 71, 72
3, 249984, Note_on_c, 7, 71, 0
3, 250080, Note_on_c, 7, 71, 72
3, 250320, Note_on_c, 7, 71, 0
3, 250320, Note_on_c, 7, 74, 72
3, 250464, Note_on_c, 7, 74, 0
3, 250560, Note_on_c, 7, 74, 72
3, 250800, Note_on_c, 7, 74, 0
3, 250800, Note_on_c, 7, 72, 72
3, 250956, Note_on_c, 7, 72, 0
3, 251040, Note_on_c, 7, 71, 72
3, 251196, Note_on_c, 7, 71, 0
3, 251280, Note_on_c, 7, 69, 72
3, 251436, Note_on_c, 7, 69, 0
3, 251520, Note_on_c, 7, 67, 125
3, 251904, Note_on_c, 7, 67, 0
3, 252240, Note_on_c, 7, 74, 92
3, 252384, Note_on_c, 7, 74, 0
3, 252480, Note_on_c, 7, 79, 92
3, 252864, Note_on_c, 7, 79, 0
3, 253200, Note_on_c, 7, 74, 92
3, 253344, Note_on_c, 7, 74, 0
3, 253440, Note_on_c, 7, 79, 92
3, 253584, Note_on_c, 7, 79, 0
3, 253680, Note_on_c, 7, 74, 92
3, 253824, Note_on_c, 7, 74, 0
3, 253920, Note_on_c, 7, 79, 92
3, 254064, Note_on_c, 7, 79, 0
3, 254160, Note_on_c, 7, 83, 92
3, 254304, Note_on_c, 7, 83, 0
3, 254400, Note_on_c, 7, 86, 92
3, 254784, Note_on_c, 7, 86, 0
3, 255360, Note_on_c, 7, 84, 92
3, 255744, Note_on_c, 7, 84, 0
3, 256080, Note_on_c, 7, 81, 92
3, 256224, Note_on_c, 7, 81, 0
3, 256320, Note_on_c, 7, 84, 92
3, 256704, Note_on_c, 7, 84, 0
3, 257040, Note_on_c, 7, 81, 92
3, 257184, Note_on_c, 7, 81, 0
3, 257280, Note_on_c, 7, 84, 92
3, 257424, Note_on_c, 7, 84, 0
3, 257520, Note_on_c, 7, 81, 92
3, 257664, Note_on_c, 7, 81, 0
3, 257760, Note_on_c, 7, 78, 92
3, 257904, Note_on_c, 7, 78, 0
3, 258000, Note_on_c, 7, 81, 92
3, 258144, Note_on_c, 7, 81, 0
3, 258240, Note_on_c, 7, 74, 92
3, 258624, Note_on_c, 7, 74, 0
3, 259200, Note_on_c, 7, 59, 105
3, 259200, Note_on_c, 7, 62, 105
3, 259296, Note_on_c, 7, 62, 0
3, 259296, Note_on_c, 7, 59, 0
3, 259320, Note_on_c, 7, 62, 105
3, 259320, Note_on_c, 7, 59, 105
3, 259416, Note_on_c, 7, 59, 0
3, 259416, Note_on_c, 7, 62, 0
3, 259440, Note_on_c, 7, 59, 105
3, 259440, Note_on_c, 7, 62, 105
3, 259536, Note_on_c, 7, 62, 0
3, 259536, Note_on_c, 7, 59, 0
3, 259560, Note_on_c, 7, 59, 105
3, 259560, Note_on_c, 7, 62, 105
3, 259656, Note_on_c, 7, 62, 0
3, 259656, Note_on_c, 7, 59, 0
3, 259680, Note_on_c, 7, 62, 105
3, 259680, Note_on_c, 7, 59, 105
3, 259776, Note_on_c, 7, 59, 0
3, 259776, Note_on_c, 7, 62, 0
3, 259800, Note_on_c, 7, 59, 105
3, 259800, Note_on_c, 7, 62, 105
3, 259896, Note_on_c, 7, 62, 0
3, 259896, Note_on_c, 7, 59, 0
3, 259920, Note_on_c, 7, 59, 105
3, 259920, Note_on_c, 7, 62, 105
3, 260016, Note_on_c, 7, 62, 0
3, 260016, Note_on_c, 7, 59, 0
3, 260040, Note_on_c, 7, 62, 105
3, 260040, Note_on_c, 7, 59, 105
3, 260136, Note_on_c, 7, 59, 0
3, 260136, Note_on_c, 7, 62, 0
3, 260160, Note_on_c, 7, 59, 105
3, 260160, Note_on_c, 7, 62, 105
3, 260256, Note_on_c, 7, 62, 0
3, 260256, Note_on_c, 7, 59, 0
3, 260280, Note_on_c, 7, 62, 105
3, 260280, Note_on_c, 7, 59, 105
3, 260376, Note_on_c, 7, 59, 0
3, 260376, Note_on_c, 7, 62, 0
3, 260400, Note_on_c, 7, 59, 105
3, 260400, Note_on_c, 7, 62, 105
3, 260496, Note_on_c, 7, 62, 0
3, 260496, Note_on_c, 7, 59, 0
3, 260520, Note_on_c, 7, 59, 105
3, 260520, Note_on_c, 7, 62, 105
3, 260616, Note_on_c, 7, 62, 0
3, 260616, Note_on_c, 7, 59, 0
3, 260640, Note_on_c, 7, 62, 105
3, 260640, Note_on_c, 7, 59, 105
3, 260736, Note_on_c, 7, 59, 0
3, 260736, Note_on_c, 7, 62, 0
3, 260760, Note_on_c, 7, 59, 105
3, 260760, Note_on_c, 7, 62, 105
3, 260856, Note_on_c, 7, 62, 0
3, 260856, Note_on_c, 7, 59, 0
3, 260880, Note_on_c, 7, 59, 105
3, 260880, Note_on_c, 7, 62, 105
3, 260976, Note_on_c, 7, 62, 0
3, 260976, Note_on_c, 7, 59, 0
3, 261000, Note_on_c, 7, 59, 105
3, 261000, Note_on_c, 7, 62, 105
3, 261096, Note_on_c, 7, 62, 0
3, 261096, Note_on_c, 7, 59, 0
3, 261120, Note_on_c, 7, 62, 105
3, 261120, Note_on_c, 7, 60, 105
3, 261216, Note_on_c, 7, 60, 0
3, 261216, Note_on_c, 7, 62, 0
3, 261240, Note_on_c, 7, 62, 105
3, 261240, Note_on_c, 7, 60, 105
3, 261336, Note_on_c, 7, 60, 0
3, 261336, Note_on_c, 7, 62, 0
3, 261360, Note_on_c, 7, 62, 105
3, 261360, Note_on_c, 7, 60, 105
3, 261456, Note_on_c, 7, 60, 0
3, 261456, Note_on_c, 7, 62, 0
3, 261480, Note_on_c, 7, 62, 105
3, 261480, Note_on_c, 7, 60, 105
3, 261576, Note_on_c, 7, 60, 0
3, 261576, Note_on_c, 7, 62, 0
3, 261600, Note_on_c, 7, 60, 105
3, 261600, Note_on_c, 7, 62, 105
3, 261696, Note_on_c, 7, 62, 0
3, 261696, Note_on_c, 7, 60, 0
3, 261720, Note_on_c, 7, 60, 105
3, 261720, Note_on_c, 7, 62, 105
3, 261816, Note_on_c, 7, 62, 0
3, 261816, Note_on_c, 7, 60, 0
3, 261840, Note_on_c, 7, 60, 105
3, 261840, Note_on_c, 7, 62, 105
3, 261936, Note_on_c, 7, 62, 0
3, 261936, Note_on_c, 7, 60, 0
3, 261960, Note_on_c, 7, 60, 105
3, 261960, Note_on_c, 7, 62, 105
3, 262056, Note_on_c, 7, 62, 0
3, 262056, Note_on_c, 7, 60, 0
3, 262080, Note_on_c, 7, 60, 105
3, 262080, Note_on_c, 7, 62, 105
3, 262176, Note_on_c, 7, 62, 0
3, 262176, Note_on_c, 7, 60, 0
3, 262200, Note_on_c, 7, 62, 105
3, 262200, Note_on_c, 7, 60, 105
3, 262296, Note_on_c, 7, 60, 0
3, 262296, Note_on_c, 7, 62, 0
3, 262320, Note_on_c, 7, 62, 105
3, 262320, Note_on_c, 7, 60, 105
3, 262416, Note_on_c, 7, 60, 0
3, 262416, Note_on_c, 7, 62, 0
3, 262440, Note_on_c, 7, 62, 105
3, 262440, Note_on_c, 7, 60, 105
3, 262536, Note_on_c, 7, 60, 0
3, 262536, Note_on_c, 7, 62, 0
3, 262560, Note_on_c, 7, 60, 105
3, 262560, Note_on_c, 7, 62, 105
3, 262656, Note_on_c, 7, 62, 0
3, 262656, Note_on_c, 7, 60, 0
3, 262680, Note_on_c, 7, 60, 105
3, 262680, Note_on_c, 7, 62, 105
3, 262776, Note_on_c, 7, 62, 0
3, 262776, Note_on_c, 7, 60, 0
3, 262800, Note_on_c, 7, 62, 105
3, 262800, Note_on_c, 7, 60, 105
3, 262896, Note_on_c, 7, 60, 0
3, 262896, Note_on_c, 7, 62, 0
3, 262920, Note_on_c, 7, 60, 105
3, 262920, Note_on_c, 7, 62, 105
3, 263016, Note_on_c, 7, 62, 0
3, 263016, Note_on_c, 7, 60, 0
3, 263040, Note_on_c, 7, 62, 105
3, 263040, Note_on_c, 7, 59, 105
3, 263136, Note_on_c, 7, 59, 0
3, 263136, Note_on_c, 7, 62, 0
3, 263160, Note_on_c, 7, 62, 105
3, 263160, Note_on_c, 7, 59, 105
3, 263256, Note_on_c, 7, 59, 0
3, 263256, Note_on_c, 7, 62, 0
3, 263280, Note_on_c, 7, 59, 105
3, 263280, Note_on_c, 7, 62, 105
3, 263376, Note_on_c, 7, 62, 0
3, 263376, Note_on_c, 7, 59, 0
3, 263400, Note_on_c, 7, 62, 105
3, 263400, Note_on_c, 7, 59, 105
3, 263496, Note_on_c, 7, 59, 0
3, 263496, Note_on_c, 7, 62, 0
3, 263520, Note_on_c, 7, 62, 105
3, 263520, Note_on_c, 7, 59, 105
3, 263616, Note_on_c, 7, 59, 0
3, 263616, Note_on_c, 7, 62, 0
3, 263640, Note_on_c, 7, 62, 105
3, 263640, Note_on_c, 7, 59, 105
3, 263736, Note_on_c, 7, 59, 0
3, 263736, Note_on_c, 7, 62, 0
3, 263760, Note_on_c, 7, 62, 105
3, 263760, Note_on_c, 7, 59, 105
3, 263856, Note_on_c, 7, 59, 0
3, 263856, Note_on_c, 7, 62, 0
3, 263880, Note_on_c, 7, 62, 105
3, 263880, Note_on_c, 7, 59, 105
3, 263976, Note_on_c, 7, 59, 0
3, 263976, Note_on_c, 7, 62, 0
3, 264000, Note_on_c, 7, 59, 105
3, 264000, Note_on_c, 7, 62, 105
3, 264096, Note_on_c, 7, 62, 0
3, 264096, Note_on_c, 7, 59, 0
3, 264120, Note_on_c, 7, 59, 105
3, 264120, Note_on_c, 7, 62, 105
3, 264216, Note_on_c, 7, 62, 0
3, 264216, Note_on_c, 7, 59, 0
3, 264240, Note_on_c, 7, 59, 105
3, 264240, Note_on_c, 7, 62, 105
3, 264336, Note_on_c, 7, 62, 0
3, 264336, Note_on_c, 7, 59, 0
3, 264360, Note_on_c, 7, 59, 105
3, 264360, Note_on_c, 7, 62, 105
3, 264456, Note_on_c, 7, 62, 0
3, 264456, Note_on_c, 7, 59, 0
3, 264480, Note_on_c, 7, 59, 105
3, 264480, Note_on_c, 7, 62, 105
3, 264576, Note_on_c, 7, 62, 0
3, 264576, Note_on_c, 7, 59, 0
3, 264600, Note_on_c, 7, 62, 105
3, 264600, Note_on_c, 7, 59, 105
3, 264696, Note_on_c, 7, 59, 0
3, 264696, Note_on_c, 7, 62, 0
3, 264720, Note_on_c, 7, 59, 105
3, 264720, Note_on_c, 7, 62, 105
3, 264816, Note_on_c, 7, 62, 0
3, 264816, Note_on_c, 7, 59, 0
3, 264840, Note_on_c, 7, 62, 105
3, 264840, Note_on_c, 7, 59, 105
3, 264936, Note_on_c, 7, 59, 0
3, 264936, Note_on_c, 7, 62, 0
3, 264960, Note_on_c, 7, 62, 105
3, 264960, Note_on_c, 7, 60, 105
3, 265056, Note_on_c, 7, 60, 0
3, 265056, Note_on_c, 7, 62, 0
3, 265080, Note_on_c, 7, 62, 105
3, 265080, Note_on_c, 7, 60, 105
3, 265176, Note_on_c, 7, 60, 0
3, 265176, Note_on_c, 7, 62, 0
3, 265200, Note_on_c, 7, 62, 105
3, 265200, Note_on_c, 7, 60, 105
3, 265296, Note_on_c, 7, 60, 0
3, 265296, Note_on_c, 7, 62, 0
3, 265320, Note_on_c, 7, 60, 105
3, 265320, Note_on_c, 7, 62, 105
3, 265416, Note_on_c, 7, 62, 0
3, 265416, Note_on_c, 7, 60, 0
3, 265440, Note_on_c, 7, 62, 105
3, 265440, Note_on_c, 7, 60, 105
3, 265536, Note_on_c, 7, 60, 0
3, 265536, Note_on_c, 7, 62, 0
3, 265560, Note_on_c, 7, 62, 105
3, 265560, Note_on_c, 7, 60, 105
3, 265656, Note_on_c, 7, 60, 0
3, 265656, Note_on_c, 7, 62, 0
3, 265680, Note_on_c, 7, 60, 105
3, 265680, Note_on_c, 7, 62, 105
3, 265776, Note_on_c, 7, 62, 0
3, 265776, Note_on_c, 7, 60, 0
3, 265800, Note_on_c, 7, 60, 105
3, 265800, Note_on_c, 7, 62, 105
3, 265896, Note_on_c, 7, 62, 0
3, 265896, Note_on_c, 7, 60, 0
3, 265920, Note_on_c, 7, 60, 105
3, 265920, Note_on_c, 7, 62, 105
3, 266016, Note_on_c, 7, 62, 0
3, 266016, Note_on_c, 7, 60, 0
3, 266040, Note_on_c, 7, 62, 105
3, 266040, Note_on_c, 7, 60, 105
3, 266136, Note_on_c, 7, 60, 0
3, 266136, Note_on_c, 7, 62, 0
3, 266160, Note_on_c, 7, 60, 105
3, 266160, Note_on_c, 7, 62, 105
3, 266256, Note_on_c, 7, 62, 0
3, 266256, Note_on_c, 7, 60, 0
3, 266280, Note_on_c, 7, 60, 105
3, 266280, Note_on_c, 7, 62, 105
3, 266376, Note_on_c, 7, 62, 0
3, 266376, Note_on_c, 7, 60, 0
3, 266400, Note_on_c, 7, 62, 105
3, 266400, Note_on_c, 7, 60, 105
3, 266496, Note_on_c, 7, 60, 0
3, 266496, Note_on_c, 7, 62, 0
3, 266520, Note_on_c, 7, 60, 105
3, 266520, Note_on_c, 7, 62, 105
3, 266616, Note_on_c, 7, 62, 0
3, 266616, Note_on_c, 7, 60, 0
3, 266640, Note_on_c, 7, 62, 105
3, 266640, Note_on_c, 7, 60, 105
3, 266736, Note_on_c, 7, 60, 0
3, 266736, Note_on_c, 7, 62, 0
3, 266760, Note_on_c, 7, 60, 105
3, 266760, Note_on_c, 7, 62, 105
3, 266856, Note_on_c, 7, 62, 0
3, 266856, Note_on_c, 7, 60, 0
3, 266880, Note_on_c, 7, 59, 105
3, 266880, Note_on_c, 7, 62, 105
3, 267264, Note_on_c, 7, 62, 0
3, 267264, Note_on_c, 7, 59, 0
3, 267360, Note_on_c, 7, 72, 105
3, 267504, Note_on_c, 7, 72, 0
3, 267600, Note_on_c, 7, 72, 105
3, 267744, Note_on_c, 7, 72, 0
3, 267840, Note_on_c, 7, 74, 105
3, 267984, Note_on_c, 7, 74, 0
3, 268080, Note_on_c, 7, 74, 105
3, 268224, Note_on_c, 7, 74, 0
3, 268320, Note_on_c, 7, 72, 105
3, 268560, Note_on_c, 7, 72, 0
3, 268560, Note_on_c, 7, 71, 105
3, 268680, Note_on_c, 7, 71, 0
3, 268680, Note_on_c, 7, 69, 105
3, 268776, Note_on_c, 7, 69, 0
3, 268800, Note_on_c, 7, 67, 105
3, 268944, Note_on_c, 7, 67, 0
3, 269040, Note_on_c, 7, 67, 105
3, 269184, Note_on_c, 7, 67, 0
3, 269280, Note_on_c, 7, 66, 105
3, 269424, Note_on_c, 7, 66, 0
3, 269520, Note_on_c, 7, 66, 105
3, 269664, Note_on_c, 7, 66, 0
3, 269760, Note_on_c, 7, 67, 92
3, 270144, Note_on_c, 7, 67, 0
3, 270720, Note_on_c, 7, 71, 58
3, 271680, Note_on_c, 7, 71, 0
3, 271680, Note_on_c, 7, 72, 58
3, 272448, Note_on_c, 7, 72, 0
3, 272640, Note_on_c, 7, 71, 58
3, 272760, Note_on_c, 7, 71, 0
3, 272760, Note_on_c, 7, 69, 58
3, 272976, Note_on_c, 7, 69, 0
3, 273120, Note_on_c, 7, 69, 58
3, 273408, Note_on_c, 7, 69, 0
3, 273600, Note_on_c, 7, 69, 58
3, 273720, Note_on_c, 7, 69, 0
3, 273720, Note_on_c, 7, 67, 58
3, 273936, Note_on_c, 7, 67, 0
3, 274080, Note_on_c, 7, 67, 58
3, 274368, Note_on_c, 7, 67, 0
3, 274560, Note_on_c, 7, 64, 58
3, 274872, Note_on_c, 7, 64, 0
3, 275040, Note_on_c, 7, 64, 58
3, 275352, Note_on_c, 7, 64, 0
3, 275520, Note_on_c, 7, 60, 58
3, 275808, Note_on_c, 7, 60, 0
3, 276000, Note_on_c, 7, 57, 58
3, 276288, Note_on_c, 7, 57, 0
3, 276480, Note_on_c, 7, 62, 58
3, 276636, Note_on_c, 7, 62, 0
3, 276960, Note_on_c, 7, 66, 58
3, 277116, Note_on_c, 7, 66, 0
3, 277440, Note_on_c, 7, 67, 58
3, 277596, Note_on_c, 7, 67, 0
3, 278400, Note_on_c, 7, 71, 58
3, 279360, Note_on_c, 7, 71, 0
3, 279360, Note_on_c, 7, 72, 58
3, 280128, Note_on_c, 7, 72, 0
3, 280320, Note_on_c, 7, 71, 58
3, 280560, Note_on_c, 7, 71, 0
3, 280560, Note_on_c, 7, 69, 58
3, 280716, Note_on_c, 7, 69, 0
3, 280800, Note_on_c, 7, 69, 58
3, 280956, Note_on_c, 7, 69, 0
3, 281040, Note_on_c, 7, 69, 58
3, 281196, Note_on_c, 7, 69, 0
3, 281280, Note_on_c, 7, 69, 58
3, 281520, Note_on_c, 7, 69, 0
3, 281520, Note_on_c, 7, 67, 58
3, 281676, Note_on_c, 7, 67, 0
3, 281760, Note_on_c, 7, 67, 58
3, 281916, Note_on_c, 7, 67, 0
3, 282000, Note_on_c, 7, 67, 58
3, 282156, Note_on_c, 7, 67, 0
3, 282240, Note_on_c, 7, 64, 58
3, 282552, Note_on_c, 7, 64, 0
3, 282720, Note_on_c, 7, 64, 58
3, 282876, Note_on_c, 7, 64, 0
3, 282960, Note_on_c, 7, 64, 58
3, 283116, Note_on_c, 7, 64, 0
3, 283200, Note_on_c, 7, 60, 58
3, 283512, Note_on_c, 7, 60, 0
3, 283680, Note_on_c, 7, 60, 58
3, 283836, Note_on_c, 7, 60, 0
3, 283920, Note_on_c, 7, 60, 58
3, 284076, Note_on_c, 7, 60, 0
3, 284160, Note_on_c, 7, 59, 112
3, 285312, Note_on_c, 7, 59, 0
3, 285360, Note_on_c, 7, 60, 72
3, 285420, Note_on_c, 7, 60, 0
3, 285420, Note_on_c, 7, 59, 72
3, 285480, Note_on_c, 7, 59, 0
3, 285480, Note_on_c, 7, 57, 72
3, 285540, Note_on_c, 7, 57, 0
3, 285540, Note_on_c, 7, 59, 72
3, 285600, Note_on_c, 7, 59, 0
3, 285600, Note_on_c, 7, 60, 72
3, 285840, Note_on_c, 7, 60, 0
3, 285840, Note_on_c, 7, 57, 72
3, 286032, Note_on_c, 7, 57, 0
3, 286080, Note_on_c, 7, 67, 112
3, 287232, Note_on_c, 7, 67, 0
3, 287280, Note_on_c, 7, 69, 72
3, 287340, Note_on_c, 7, 69, 0
3, 287340, Note_on_c, 7, 67, 72
3, 287400, Note_on_c, 7, 67, 0
3, 287400, Note_on_c, 7, 66, 72
3, 287460, Note_on_c, 7, 66, 0
3, 287460, Note_on_c, 7, 67, 72
3, 287520, Note_on_c, 7, 67, 0
3, 287520, Note_on_c, 7, 69, 72
3, 287760, Note_on_c, 7, 69, 0
3, 287760, Note_on_c, 7, 66, 72
3, 287952, Note_on_c, 7, 66, 0
3, 288000, Note_on_c, 7, 71, 72
3, 288096, Note_on_c, 7, 71, 0
3, 288120, Note_on_c, 7, 71, 72
3, 288216, Note_on_c, 7, 71, 0
3, 288240, Note_on_c, 7, 71, 72
3, 288336, Note_on_c, 7, 71, 0
3, 288360, Note_on_c, 7, 71, 72
3, 288456, Note_on_c, 7, 71, 0
3, 288480, Note_on_c, 7, 71, 72
3, 288576, Note_on_c, 7, 71, 0
3, 288600, Note_on_c, 7, 71, 72
3, 288696, Note_on_c, 7, 71, 0
3, 288720, Note_on_c, 7, 71, 72
3, 288816, Note_on_c, 7, 71, 0
3, 288840, Note_on_c, 7, 71, 72
3, 288936, Note_on_c, 7, 71, 0
3, 288960, Note_on_c, 7, 72, 72
3, 289056, Note_on_c, 7, 72, 0
3, 289080, Note_on_c, 7, 72, 81
3, 289176, Note_on_c, 7, 72, 0
3, 289200, Note_on_c, 7, 72, 81
3, 289296, Note_on_c, 7, 72, 0
3, 289320, Note_on_c, 7, 72, 81
3, 289416, Note_on_c, 7, 72, 0
3, 289440, Note_on_c, 7, 72, 81
3, 289536, Note_on_c, 7, 72, 0
3, 289560, Note_on_c, 7, 72, 81
3, 289656, Note_on_c, 7, 72, 0
3, 289680, Note_on_c, 7, 72, 81
3, 289776, Note_on_c, 7, 72, 0
3, 289800, Note_on_c, 7, 72, 81
3, 289896, Note_on_c, 7, 72, 0
3, 289920, Note_on_c, 7, 71, 92
3, 290016, Note_on_c, 7, 71, 0
3, 290040, Note_on_c, 7, 71, 92
3, 290136, Note_on_c, 7, 71, 0
3, 290160, Note_on_c, 7, 71, 92
3, 290256, Note_on_c, 7, 71, 0
3, 290280, Note_on_c, 7, 71, 92
3, 290376, Note_on_c, 7, 71, 0
3, 290400, Note_on_c, 7, 74, 92
3, 290496, Note_on_c, 7, 74, 0
3, 290520, Note_on_c, 7, 74, 92
3, 290616, Note_on_c, 7, 74, 0
3, 290640, Note_on_c, 7, 74, 92
3, 290736, Note_on_c, 7, 74, 0
3, 290760, Note_on_c, 7, 74, 92
3, 290856, Note_on_c, 7, 74, 0
3, 290880, Note_on_c, 7, 74, 105
3, 290976, Note_on_c, 7, 74, 0
3, 291000, Note_on_c, 7, 74, 105
3, 291096, Note_on_c, 7, 74, 0
3, 291120, Note_on_c, 7, 74, 105
3, 291216, Note_on_c, 7, 74, 0
3, 291240, Note_on_c, 7, 74, 105
3, 291336, Note_on_c, 7, 74, 0
3, 291360, Note_on_c, 7, 79, 105
3, 291456, Note_on_c, 7, 79, 0
3, 291480, Note_on_c, 7, 79, 105
3, 291576, Note_on_c, 7, 79, 0
3, 291600, Note_on_c, 7, 79, 105
3, 291696, Note_on_c, 7, 79, 0
3, 291720, Note_on_c, 7, 79, 105
3, 291816, Note_on_c, 7, 79, 0
3, 291840, Note_on_c, 7, 78, 105
3, 291936, Note_on_c, 7, 78, 0
3, 291960, Note_on_c, 7, 78, 105
3, 292056, Note_on_c, 7, 78, 0
3, 292080, Note_on_c, 7, 78, 105
3, 292176, Note_on_c, 7, 78, 0
3, 292200, Note_on_c, 7, 78, 105
3, 292296, Note_on_c, 7, 78, 0
3, 292320, Note_on_c, 7, 78, 105
3, 292416, Note_on_c, 7, 78, 0
3, 292440, Note_on_c, 7, 78, 105
3, 292536, Note_on_c, 7, 78, 0
3, 292560, Note_on_c, 7, 78, 105
3, 292656, Note_on_c, 7, 78, 0
3, 292680, Note_on_c, 7, 78, 105
3, 292776, Note_on_c, 7, 78, 0
3, 292800, Note_on_c, 7, 79, 105
3, 292896, Note_on_c, 7, 79, 0
3, 292920, Note_on_c, 7, 79, 105
3, 293016, Note_on_c, 7, 79, 0
3, 293040, Note_on_c, 7, 79, 105
3, 293136, Note_on_c, 7, 79, 0
3, 293160, Note_on_c, 7, 79, 105
3, 293256, Note_on_c, 7, 79, 0
3, 293280, Note_on_c, 7, 79, 105
3, 293376, Note_on_c, 7, 79, 0
3, 293400, Note_on_c, 7, 79, 105
3, 293496, Note_on_c, 7, 79, 0
3, 293520, Note_on_c, 7, 79, 105
3, 293616, Note_on_c, 7, 79, 0
3, 293640, Note_on_c, 7, 79, 105
3, 293736, Note_on_c, 7, 79, 0
3, 293760, Note_on_c, 7, 78, 105
3, 293856, Note_on_c, 7, 78, 0
3, 293880, Note_on_c, 7, 78, 105
3, 293976, Note_on_c, 7, 78, 0
3, 294000, Note_on_c, 7, 78, 105
3, 294096, Note_on_c, 7, 78, 0
3, 294120, Note_on_c, 7, 78, 105
3, 294216, Note_on_c, 7, 78, 0
3, 294240, Note_on_c, 7, 78, 105
3, 294336, Note_on_c, 7, 78, 0
3, 294360, Note_on_c, 7, 78, 105
3, 294456, Note_on_c, 7, 78, 0
3, 294480, Note_on_c, 7, 78, 105
3, 294576, Note_on_c, 7, 78, 0
3, 294600, Note_on_c, 7, 78, 105
3, 294696, Note_on_c, 7, 78, 0
3, 294720, Note_on_c, 7, 79, 105
3, 294816, Note_on_c, 7, 79, 0
3, 294840, Note_on_c, 7, 79, 105
3, 294936, Note_on_c, 7, 79, 0
3, 294960, Note_on_c, 7, 79, 105
3, 295056, Note_on_c, 7, 79, 0
3, 295080, Note_on_c, 7, 79, 105
3, 295176, Note_on_c, 7, 79, 0
3, 295200, Note_on_c, 7, 79, 105
3, 295296, Note_on_c, 7, 79, 0
3, 295320, Note_on_c, 7, 79, 105
3, 295416, Note_on_c, 7, 79, 0
3, 295440, Note_on_c, 7, 79, 105
3, 295536, Note_on_c, 7, 79, 0
3, 295560, Note_on_c, 7, 79, 105
3, 295656, Note_on_c, 7, 79, 0
3, 295680, Note_on_c, 7, 78, 105
3, 295776, Note_on_c, 7, 78, 0
3, 295800, Note_on_c, 7, 78, 105
3, 295896, Note_on_c, 7, 78, 0
3, 295920, Note_on_c, 7, 78, 105
3, 296016, Note_on_c, 7, 78, 0
3, 296040, Note_on_c, 7, 78, 105
3, 296136, Note_on_c, 7, 78, 0
3, 296160, Note_on_c, 7, 79, 105
3, 296256, Note_on_c, 7, 79, 0
3, 296280, Note_on_c, 7, 79, 105
3, 296376, Note_on_c, 7, 79, 0
3, 296400, Note_on_c, 7, 79, 105
3, 296496, Note_on_c, 7, 79, 0
3, 296520, Note_on_c, 7, 79, 105
3, 296616, Note_on_c, 7, 79, 0
3, 296640, Note_on_c, 7, 78, 105
3, 296736, Note_on_c, 7, 78, 0
3, 296760, Note_on_c, 7, 78, 105
3, 296856, Note_on_c, 7, 78, 0
3, 296880, Note_on_c, 7, 78, 105
3, 296976, Note_on_c, 7, 78, 0
3, 297000, Note_on_c, 7, 78, 105
3, 297096, Note_on_c, 7, 78, 0
3, 297120, Note_on_c, 7, 79, 105
3, 297216, Note_on_c, 7, 79, 0
3, 297240, Note_on_c, 7, 79, 105
3, 297336, Note_on_c, 7, 79, 0
3, 297360, Note_on_c, 7, 79, 105
3, 297456, Note_on_c, 7, 79, 0
3, 297480, Note_on_c, 7, 79, 105
3, 297576, Note_on_c, 7, 79, 0
3, 297600, Note_on_c, 7, 78, 105
3, 297756, Note_on_c, 7, 78, 0
3, 297840, Note_on_c, 7, 62, 81
3, 297996, Note_on_c, 7, 62, 0
3, 298080, Note_on_c, 7, 62, 81
3, 298236, Note_on_c, 7, 62, 0
3, 298320, Note_on_c, 7, 62, 81
3, 298476, Note_on_c, 7, 62, 0
3, 298560, Note_on_c, 7, 62, 81
3, 298944, Note_on_c, 7, 62, 0
3, 299520, Note_on_c, 7, 62, 58
3, 300240, Note_on_c, 7, 62, 0
3, 300240, Note_on_c, 7, 60, 58
3, 300320, Note_on_c, 7, 60, 0
3, 300320, Note_on_c, 7, 59, 58
3, 300400, Note_on_c, 7, 59, 0
3, 300400, Note_on_c, 7, 57, 58
3, 300480, Note_on_c, 7, 57, 0
3, 300480, Note_on_c, 7, 55, 58
3, 300672, Note_on_c, 7, 55, 0
3, 300960, Note_on_c, 7, 64, 58
3, 301152, Note_on_c, 7, 64, 0
3, 301440, Note_on_c, 7, 60, 58
3, 301632, Note_on_c, 7, 60, 0
3, 301920, Note_on_c, 7, 57, 58
3, 302112, Note_on_c, 7, 57, 0
3, 302400, Note_on_c, 7, 62, 58
3, 302592, Note_on_c, 7, 62, 0
3, 303360, Note_on_c, 7, 71, 58
3, 304080, Note_on_c, 7, 71, 0
3, 304080, Note_on_c, 7, 69, 58
3, 304160, Note_on_c, 7, 69, 0
3, 304160, Note_on_c, 7, 67, 58
3, 304240, Note_on_c, 7, 67, 0
3, 304240, Note_on_c, 7, 66, 58
3, 304320, Note_on_c, 7, 66, 0
3, 304320, Note_on_c, 7, 64, 58
3, 304512, Note_on_c, 7, 64, 0
3, 304800, Note_on_c, 7, 72, 58
3, 304992, Note_on_c, 7, 72, 0
3, 305280, Note_on_c, 7, 71, 58
3, 306240, Note_on_c, 7, 71, 0
3, 306240, Note_on_c, 7, 69, 58
3, 306624, Note_on_c, 7, 69, 0
3, 307200, Note_on_c, 7, 74, 72
3, 307920, Note_on_c, 7, 74, 0
3, 307920, Note_on_c, 7, 72, 72
3, 308000, Note_on_c, 7, 72, 0
3, 308000, Note_on_c, 7, 71, 72
3, 308080, Note_on_c, 7, 71, 0
3, 308080, Note_on_c, 7, 69, 72
3, 308160, Note_on_c, 7, 69, 0
3, 308160, Note_on_c, 7, 67, 72
3, 308352, Note_on_c, 7, 67, 0
3, 308640, Note_on_c, 7, 76, 72
3, 308832, Note_on_c, 7, 76, 0
3, 309120, Note_on_c, 7, 72, 72
3, 309312, Note_on_c, 7, 72, 0
3, 309600, Note_on_c, 7, 69, 72
3, 309792, Note_on_c, 7, 69, 0
3, 310080, Note_on_c, 7, 74, 72
3, 310272, Note_on_c, 7, 74, 0
3, 310800, Note_on_c, 7, 72, 72
3, 310992, Note_on_c, 7, 72, 0
3, 311040, Note_on_c, 7, 72, 72
3, 311280, Note_on_c, 7, 72, 0
3, 311280, Note_on_c, 7, 71, 72
3, 311472, Note_on_c, 7, 71, 0
3, 311760, Note_on_c, 7, 72, 72
3, 311904, Note_on_c, 7, 72, 0
3, 312000, Note_on_c, 7, 72, 72
3, 312240, Note_on_c, 7, 72, 0
3, 312240, Note_on_c, 7, 71, 72
3, 312432, Note_on_c, 7, 71, 0
3, 312720, Note_on_c, 7, 60, 72
3, 312864, Note_on_c, 7, 60, 0
3, 312960, Note_on_c, 7, 59, 58
3, 313116, Note_on_c, 7, 59, 0
3, 313200, Note_on_c, 7, 59, 58
3, 313356, Note_on_c, 7, 59, 0
3, 313440, Note_on_c, 7, 60, 58
3, 313596, Note_on_c, 7, 60, 0
3, 313680, Note_on_c, 7, 60, 58
3, 313836, Note_on_c, 7, 60, 0
3, 313920, Note_on_c, 7, 62, 58
3, 314076, Note_on_c, 7, 62, 0
3, 314160, Note_on_c, 7, 62, 58
3, 314316, Note_on_c, 7, 62, 0
3, 314400, Note_on_c, 7, 59, 58
3, 314556, Note_on_c, 7, 59, 0
3, 314640, Note_on_c, 7, 59, 58
3, 314796, Note_on_c, 7, 59, 0
3, 314880, Note_on_c, 7, 57, 58
3, 315036, Note_on_c, 7, 57, 0
3, 315120, Note_on_c, 7, 57, 58
3, 315276, Note_on_c, 7, 57, 0
3, 315360, Note_on_c, 7, 59, 58
3, 315516, Note_on_c, 7, 59, 0
3, 315600, Note_on_c, 7, 59, 58
3, 315756, Note_on_c, 7, 59, 0
3, 315840, Note_on_c, 7, 60, 58
3, 315996, Note_on_c, 7, 60, 0
3, 316080, Note_on_c, 7, 60, 58
3, 316236, Note_on_c, 7, 60, 0
3, 316320, Note_on_c, 7, 57, 58
3, 316476, Note_on_c, 7, 57, 0
3, 316560, Note_on_c, 7, 57, 58
3, 316716, Note_on_c, 7, 57, 0
3, 316800, Note_on_c, 7, 59, 58
3, 316956, Note_on_c, 7, 59, 0
3, 317040, Note_on_c, 7, 59, 58
3, 317196, Note_on_c, 7, 59, 0
3, 317280, Note_on_c, 7, 60, 58
3, 317436, Note_on_c, 7, 60, 0
3, 317520, Note_on_c, 7, 60, 58
3, 317676, Note_on_c, 7, 60, 0
3, 317760, Note_on_c, 7, 62, 58
3, 317916, Note_on_c, 7, 62, 0
3, 318000, Note_on_c, 7, 62, 58
3, 318156, Note_on_c, 7, 62, 0
3, 318240, Note_on_c, 7, 59, 58
3, 318396, Note_on_c, 7, 59, 0
3, 318480, Note_on_c, 7, 59, 58
3, 318636, Note_on_c, 7, 59, 0
3, 318720, Note_on_c, 7, 57, 58
3, 318876, Note_on_c, 7, 57, 0
3, 318960, Note_on_c, 7, 57, 58
3, 319116, Note_on_c, 7, 57, 0
3, 319200, Note_on_c, 7, 59, 58
3, 319356, Note_on_c, 7, 59, 0
3, 319440, Note_on_c, 7, 59, 58
3, 319596, Note_on_c, 7, 59, 0
3, 319680, Note_on_c, 7, 60, 58
3, 319836, Note_on_c, 7, 60, 0
3, 319920, Note_on_c, 7, 60, 58
3, 320076, Note_on_c, 7, 60, 0
3, 320160, Note_on_c, 7, 57, 58
3, 320316, Note_on_c, 7, 57, 0
3, 320400, Note_on_c, 7, 57, 58
3, 320556, Note_on_c, 7, 57, 0
3, 320640, Note_on_c, 7, 59, 58
3, 321024, Note_on_c, 7, 59, 0
3, 321600, Note_on_c, 7, 64, 58
3, 321600, Note_on_c, 7, 71, 92
3, 322368, Note_on_c, 7, 64, 0
3, 322560, Note_on_c, 7, 71, 0
3, 322560, Note_on_c, 7, 69, 92
3, 322944, Note_on_c, 7, 69, 0
3, 323520, Note_on_c, 7, 69, 92
3, 323520, Note_on_c, 7, 62, 92
3, 324288, Note_on_c, 7, 62, 0
3, 324480, Note_on_c, 7, 69, 0
3, 324480, Note_on_c, 7, 67, 92
3, 324636, Note_on_c, 7, 67, 0
3, 324720, Note_on_c, 7, 71, 92
3, 324876, Note_on_c, 7, 71, 0
3, 324960, Note_on_c, 7, 72, 92
3, 325116, Note_on_c, 7, 72, 0
3, 325200, Note_on_c, 7, 74, 92
3, 325356, Note_on_c, 7, 74, 0
3, 325440, Note_on_c, 7, 72, 92
3, 325680, Note_on_c, 7, 72, 0
3, 325680, Note_on_c, 7, 74, 105
3, 325800, Note_on_c, 7, 74, 0
3, 325800, Note_on_c, 7, 76, 105
3, 325878, Note_on_c, 7, 76, 0
3, 325920, Note_on_c, 7, 74, 105
3, 326076, Note_on_c, 7, 74, 0
3, 326160, Note_on_c, 7, 72, 105
3, 326316, Note_on_c, 7, 72, 0
3, 326400, Note_on_c, 7, 72, 105
3, 326640, Note_on_c, 7, 72, 0
3, 326640, Note_on_c, 7, 71, 105
3, 326796, Note_on_c, 7, 71, 0
3, 326880, Note_on_c, 7, 67, 105
3, 327036, Note_on_c, 7, 67, 0
3, 327120, Note_on_c, 7, 71, 105
3, 327276, Note_on_c, 7, 71, 0
3, 327360, Note_on_c, 7, 71, 105
3, 327600, Note_on_c, 7, 71, 0
3, 327600, Note_on_c, 7, 69, 105
3, 327756, Note_on_c, 7, 69, 0
3, 327840, Note_on_c, 7, 67, 105
3, 327996, Note_on_c, 7, 67, 0
3, 328080, Note_on_c, 7, 66, 105
3, 328236, Note_on_c, 7, 66, 0
3, 328320, Note_on_c, 7, 67, 58
3, 328476, Note_on_c, 7, 67, 0
3, 328560, Note_on_c, 7, 59, 58
3, 328716, Note_on_c, 7, 59, 0
3, 328800, Note_on_c, 7, 60, 58
3, 328956, Note_on_c, 7, 60, 0
3, 329040, Note_on_c, 7, 60, 58
3, 329196, Note_on_c, 7, 60, 0
3, 329280, Note_on_c, 7, 62, 58
3, 329436, Note_on_c, 7, 62, 0
3, 329520, Note_on_c, 7, 62, 58
3, 329676, Note_on_c, 7, 62, 0
3, 329760, Note_on_c, 7, 59, 58
3, 329916, Note_on_c, 7, 59, 0
3, 330000, Note_on_c, 7, 59, 58
3, 330156, Note_on_c, 7, 59, 0
3, 330240, Note_on_c, 7, 57, 58
3, 330396, Note_on_c, 7, 57, 0
3, 330480, Note_on_c, 7, 57, 58
3, 330636, Note_on_c, 7, 57, 0
3, 330720, Note_on_c, 7, 59, 58
3, 330876, Note_on_c, 7, 59, 0
3, 330960, Note_on_c, 7, 59, 58
3, 331116, Note_on_c, 7, 59, 0
3, 331200, Note_on_c, 7, 60, 58
3, 331356, Note_on_c, 7, 60, 0
3, 331440, Note_on_c, 7, 60, 58
3, 331596, Note_on_c, 7, 60, 0
3, 331680, Note_on_c, 7, 57, 58
3, 331836, Note_on_c, 7, 57, 0
3, 331920, Note_on_c, 7, 57, 58
3, 332076, Note_on_c, 7, 57, 0
3, 332160, Note_on_c, 7, 59, 58
3, 332316, Note_on_c, 7, 59, 0
3, 332400, Note_on_c, 7, 71, 58
3, 332556, Note_on_c, 7, 71, 0
3, 332640, Note_on_c, 7, 72, 58
3, 332796, Note_on_c, 7, 72, 0
3, 332880, Note_on_c, 7, 72, 58
3, 333036, Note_on_c, 7, 72, 0
3, 333120, Note_on_c, 7, 74, 58
3, 333276, Note_on_c, 7, 74, 0
3, 333360, Note_on_c, 7, 74, 58
3, 333516, Note_on_c, 7, 74, 0
3, 333600, Note_on_c, 7, 71, 58
3, 333756, Note_on_c, 7, 71, 0
3, 333840, Note_on_c, 7, 71, 58
3, 333996, Note_on_c, 7, 71, 0
3, 334080, Note_on_c, 7, 69, 58
3, 334236, Note_on_c, 7, 69, 0
3, 334320, Note_on_c, 7, 69, 58
3, 334476, Note_on_c, 7, 69, 0
3, 334560, Note_on_c, 7, 71, 58
3, 334716, Note_on_c, 7, 71, 0
3, 334800, Note_on_c, 7, 71, 58
3, 334956, Note_on_c, 7, 71, 0
3, 335040, Note_on_c, 7, 72, 58
3, 335196, Note_on_c, 7, 72, 0
3, 335280, Note_on_c, 7, 72, 58
3, 335436, Note_on_c, 7, 72, 0
3, 335520, Note_on_c, 7, 69, 58
3, 335676, Note_on_c, 7, 69, 0
3, 335760, Note_on_c, 7, 69, 58
3, 335916, Note_on_c, 7, 69, 0
3, 336000, Note_on_c, 7, 71, 58
3, 336384, Note_on_c, 7, 71, 0
3, 336960, Note_on_c, 7, 83, 105
3, 337920, Note_on_c, 7, 83, 0
3, 337920, Note_on_c, 7, 81, 105
3, 338304, Note_on_c, 7, 81, 0
3, 338880, Note_on_c, 7, 81, 105
3, 339840, Note_on_c, 7, 81, 0
3, 339840, Note_on_c, 7, 79, 105
3, 339996, Note_on_c, 7, 79, 0
3, 340080, Note_on_c, 7, 71, 105
3, 340236, Note_on_c, 7, 71, 0
3, 340320, Note_on_c, 7, 72, 105
3, 340476, Note_on_c, 7, 72, 0
3, 340560, Note_on_c, 7, 74, 105
3, 340716, Note_on_c, 7, 74, 0
3, 340800, Note_on_c, 7, 72, 105
3, 341040, Note_on_c, 7, 72, 0
3, 341040, Note_on_c, 7, 74, 105
3, 341160, Note_on_c, 7, 74, 0
3, 341160, Note_on_c, 7, 76, 105
3, 341238, Note_on_c, 7, 76, 0
3, 341280, Note_on_c, 7, 74, 105
3, 341436, Note_on_c, 7, 74, 0
3, 341520, Note_on_c, 7, 72, 105
3, 341676, Note_on_c, 7, 72, 0
3, 341760, Note_on_c, 7, 71, 105
3, 342000, Note_on_c, 7, 71, 0
3, 342000, Note_on_c, 7, 74, 105
3, 342156, Note_on_c, 7, 74, 0
3, 342240, Note_on_c, 7, 79, 105
3, 342396, Note_on_c, 7, 79, 0
3, 342480, Note_on_c, 7, 83, 105
3, 342636, Note_on_c, 7, 83, 0
3, 342720, Note_on_c, 7, 83, 105
3, 342960, Note_on_c, 7, 83, 0
3, 342960, Note_on_c, 7, 81, 105
3, 343116, Note_on_c, 7, 81, 0
3, 343200, Note_on_c, 7, 79, 105
3, 343356, Note_on_c, 7, 79, 0
3, 343440, Note_on_c, 7, 78, 105
3, 343596, Note_on_c, 7, 78, 0
3, 343680, Note_on_c, 7, 79, 92
3, 343836, Note_on_c, 7, 79, 0
3, 343920, Note_on_c, 7, 62, 92
3, 344076, Note_on_c, 7, 62, 0
3, 344160, Note_on_c, 7, 64, 92
3, 344316, Note_on_c, 7, 64, 0
3, 344400, Note_on_c, 7, 66, 92
3, 344556, Note_on_c, 7, 66, 0
3, 344640, Note_on_c, 7, 67, 92
3, 344796, Note_on_c, 7, 67, 0
3, 344880, Note_on_c, 7, 67, 92
3, 345036, Note_on_c, 7, 67, 0
3, 345120, Note_on_c, 7, 71, 92
3, 345168, Note_on_c, 7, 71, 0
3, 345180, Note_on_c, 7, 69, 92
3, 345240, Note_on_c, 7, 69, 0
3, 345240, Note_on_c, 7, 71, 92
3, 345300, Note_on_c, 7, 71, 0
3, 345300, Note_on_c, 7, 69, 92
3, 345360, Note_on_c, 7, 69, 0
3, 345360, Note_on_c, 7, 67, 92
3, 345480, Note_on_c, 7, 67, 0
3, 345480, Note_on_c, 7, 69, 92
3, 345600, Note_on_c, 7, 69, 0
3, 345600, Note_on_c, 7, 71, 92
3, 345756, Note_on_c, 7, 71, 0
3, 345840, Note_on_c, 7, 66, 92
3, 345996, Note_on_c, 7, 66, 0
3, 346080, Note_on_c, 7, 67, 92
3, 346236, Note_on_c, 7, 67, 0
3, 346320, Note_on_c, 7, 69, 92
3, 346476, Note_on_c, 7, 69, 0
3, 346560, Note_on_c, 7, 71, 92
3, 346716, Note_on_c, 7, 71, 0
3, 346800, Note_on_c, 7, 71, 92
3, 346956, Note_on_c, 7, 71, 0
3, 347040, Note_on_c, 7, 74, 92
3, 347100, Note_on_c, 7, 74, 0
3, 347100, Note_on_c, 7, 72, 92
3, 347160, Note_on_c, 7, 72, 0
3, 347160, Note_on_c, 7, 74, 92
3, 347220, Note_on_c, 7, 74, 0
3, 347220, Note_on_c, 7, 72, 92
3, 347280, Note_on_c, 7, 72, 0
3, 347280, Note_on_c, 7, 71, 92
3, 347400, Note_on_c, 7, 71, 0
3, 347400, Note_on_c, 7, 72, 92
3, 347520, Note_on_c, 7, 72, 0
3, 347520, Note_on_c, 7, 74, 92
3, 347676, Note_on_c, 7, 74, 0
3, 347760, Note_on_c, 7, 74, 92
3, 347916, Note_on_c, 7, 74, 0
3, 348000, Note_on_c, 7, 76, 92
3, 348060, Note_on_c, 7, 76, 0
3, 348060, Note_on_c, 7, 75, 92
3, 348120, Note_on_c, 7, 75, 0
3, 348120, Note_on_c, 7, 76, 92
3, 348180, Note_on_c, 7, 76, 0
3, 348180, Note_on_c, 7, 75, 92
3, 348240, Note_on_c, 7, 75, 0
3, 348240, Note_on_c, 7, 73, 92
3, 348360, Note_on_c, 7, 73, 0
3, 348360, Note_on_c, 7, 75, 92
3, 348480, Note_on_c, 7, 75, 0
3, 348480, Note_on_c, 7, 76, 92
3, 348864, Note_on_c, 7, 76, 0
3, 349440, Note_on_c, 7, 60, 58
3, 351360, Note_on_c, 7, 60, 0
3, 351360, Note_on_c, 7, 59, 58
3, 351744, Note_on_c, 7, 59, 0
3, 353280, Note_on_c, 7, 60, 58
3, 355200, Note_on_c, 7, 60, 0
3, 355200, Note_on_c, 7, 59, 58
3, 355584, Note_on_c, 7, 59, 0
3, 356160, Note_on_c, 7, 71, 58
3, 356544, Note_on_c, 7, 71, 0
3, 357120, Note_on_c, 7, 76, 58
3, 357504, Note_on_c, 7, 76, 0
3, 358080, Note_on_c, 7, 78, 105
3, 358080, Note_on_c, 7, 69, 105
3, 358464, Note_on_c, 7, 69, 0
3, 358464, Note_on_c, 7, 78, 0
3, 359040, Note_on_c, 7, 59, 105
3, 359040, Note_on_c, 7, 62, 105
3, 359136, Note_on_c, 7, 62, 0
3, 359136, Note_on_c, 7, 59, 0
3, 359160, Note_on_c, 7, 62, 105
3, 359160, Note_on_c, 7, 59, 105
3, 359256, Note_on_c, 7, 59, 0
3, 359256, Note_on_c, 7, 62, 0
3, 359280, Note_on_c, 7, 59, 105
3, 359280, Note_on_c, 7, 62, 105
3, 359376, Note_on_c, 7, 62, 0
3, 359376, Note_on_c, 7, 59, 0
3, 359400, Note_on_c, 7, 62, 105
3, 359400, Note_on_c, 7, 59, 105
3, 359496, Note_on_c, 7, 59, 0
3, 359496, Note_on_c, 7, 62, 0
3, 359520, Note_on_c, 7, 59, 105
3, 359520, Note_on_c, 7, 62, 105
3, 359616, Note_on_c, 7, 62, 0
3, 359616, Note_on_c, 7, 59, 0
3, 359640, Note_on_c, 7, 62, 105
3, 359640, Note_on_c, 7, 59, 105
3, 359736, Note_on_c, 7, 59, 0
3, 359736, Note_on_c, 7, 62, 0
3, 359760, Note_on_c, 7, 59, 105
3, 359760, Note_on_c, 7, 62, 105
3, 359856, Note_on_c, 7, 62, 0
3, 359856, Note_on_c, 7, 59, 0
3, 359880, Note_on_c, 7, 59, 105
3, 359880, Note_on_c, 7, 62, 105
3, 359976, Note_on_c, 7, 62, 0
3, 359976, Note_on_c, 7, 59, 0
3, 360000, Note_on_c, 7, 62, 105
3, 360000, Note_on_c, 7, 59, 105
3, 360096, Note_on_c, 7, 59, 0
3, 360096, Note_on_c, 7, 62, 0
3, 360120, Note_on_c, 7, 62, 105
3, 360120, Note_on_c, 7, 59, 105
3, 360216, Note_on_c, 7, 59, 0
3, 360216, Note_on_c, 7, 62, 0
3, 360240, Note_on_c, 7, 59, 105
3, 360240, Note_on_c, 7, 62, 105
3, 360336, Note_on_c, 7, 62, 0
3, 360336, Note_on_c, 7, 59, 0
3, 360360, Note_on_c, 7, 62, 105
3, 360360, Note_on_c, 7, 59, 105
3, 360456, Note_on_c, 7, 59, 0
3, 360456, Note_on_c, 7, 62, 0
3, 360480, Note_on_c, 7, 59, 105
3, 360480, Note_on_c, 7, 62, 105
3, 360576, Note_on_c, 7, 62, 0
3, 360576, Note_on_c, 7, 59, 0
3, 360600, Note_on_c, 7, 62, 105
3, 360600, Note_on_c, 7, 59, 105
3, 360696, Note_on_c, 7, 59, 0
3, 360696, Note_on_c, 7, 62, 0
3, 360720, Note_on_c, 7, 59, 105
3, 360720, Note_on_c, 7, 62, 105
3, 360816, Note_on_c, 7, 62, 0
3, 360816, Note_on_c, 7, 59, 0
3, 360840, Note_on_c, 7, 59, 105
3, 360840, Note_on_c, 7, 62, 105
3, 360936, Note_on_c, 7, 62, 0
3, 360936, Note_on_c, 7, 59, 0
3, 360960, Note_on_c, 7, 59, 105
3, 360960, Note_on_c, 7, 62, 105
3, 361056, Note_on_c, 7, 62, 0
3, 361056, Note_on_c, 7, 59, 0
3, 361080, Note_on_c, 7, 59, 105
3, 361080, Note_on_c, 7, 62, 105
3, 361176, Note_on_c, 7, 62, 0
3, 361176, Note_on_c, 7, 59, 0
3, 361200, Note_on_c, 7, 59, 105
3, 361200, Note_on_c, 7, 62, 105
3, 361296, Note_on_c, 7, 62, 0
3, 361296, Note_on_c, 7, 59, 0
3, 361320, Note_on_c, 7, 62, 105
3, 361320, Note_on_c, 7, 59, 105
3, 361416, Note_on_c, 7, 59, 0
3, 361416, Note_on_c, 7, 62, 0
3, 361440, Note_on_c, 7, 62, 105
3, 361440, Note_on_c, 7, 59, 105
3, 361536, Note_on_c, 7, 59, 0
3, 361536, Note_on_c, 7, 62, 0
3, 361560, Note_on_c, 7, 62, 105
3, 361560, Note_on_c, 7, 59, 105
3, 361656, Note_on_c, 7, 59, 0
3, 361656, Note_on_c, 7, 62, 0
3, 361680, Note_on_c, 7, 59, 105
3, 361680, Note_on_c, 7, 62, 105
3, 361776, Note_on_c, 7, 62, 0
3, 361776, Note_on_c, 7, 59, 0
3, 361800, Note_on_c, 7, 59, 105
3, 361800, Note_on_c, 7, 62, 105
3, 361896, Note_on_c, 7, 62, 0
3, 361896, Note_on_c, 7, 59, 0
3, 361920, Note_on_c, 7, 59, 105
3, 361920, Note_on_c, 7, 62, 105
3, 362016, Note_on_c, 7, 62, 0
3, 362016, Note_on_c, 7, 59, 0
3, 362040, Note_on_c, 7, 59, 105
3, 362040, Note_on_c, 7, 62, 105
3, 362136, Note_on_c, 7, 62, 0
3, 362136, Note_on_c, 7, 59, 0
3, 362160, Note_on_c, 7, 59, 105
3, 362160, Note_on_c, 7, 62, 105
3, 362256, Note_on_c, 7, 62, 0
3, 362256, Note_on_c, 7, 59, 0
3, 362280, Note_on_c, 7, 62, 105
3, 362280, Note_on_c, 7, 59, 105
3, 362376, Note_on_c, 7, 59, 0
3, 362376, Note_on_c, 7, 62, 0
3, 362400, Note_on_c, 7, 60, 105
3, 362400, Note_on_c, 7, 62, 105
3, 362496, Note_on_c, 7, 62, 0
3, 362496, Note_on_c, 7, 60, 0
3, 362520, Note_on_c, 7, 62, 105
3, 362520, Note_on_c, 7, 60, 105
3, 362616, Note_on_c, 7, 60, 0
3, 362616, Note_on_c, 7, 62, 0
3, 362640, Note_on_c, 7, 60, 105
3, 362640, Note_on_c, 7, 62, 105
3, 362736, Note_on_c, 7, 62, 0
3, 362736, Note_on_c, 7, 60, 0
3, 362760, Note_on_c, 7, 60, 105
3, 362760, Note_on_c, 7, 62, 105
3, 362856, Note_on_c, 7, 62, 0
3, 362856, Note_on_c, 7, 60, 0
3, 362880, Note_on_c, 7, 59, 105
3, 362880, Note_on_c, 7, 62, 105
3, 362976, Note_on_c, 7, 62, 0
3, 362976, Note_on_c, 7, 59, 0
3, 363000, Note_on_c, 7, 59, 105
3, 363000, Note_on_c, 7, 62, 105
3, 363096, Note_on_c, 7, 62, 0
3, 363096, Note_on_c, 7, 59, 0
3, 363120, Note_on_c, 7, 59, 105
3, 363120, Note_on_c, 7, 62, 105
3, 363216, Note_on_c, 7, 62, 0
3, 363216, Note_on_c, 7, 59, 0
3, 363240, Note_on_c, 7, 62, 105
3, 363240, Note_on_c, 7, 59, 105
3, 363336, Note_on_c, 7, 59, 0
3, 363336, Note_on_c, 7, 62, 0
3, 363360, Note_on_c, 7, 59, 105
3, 363360, Note_on_c, 7, 62, 105
3, 363456, Note_on_c, 7, 62, 0
3, 363456, Note_on_c, 7, 59, 0
3, 363480, Note_on_c, 7, 62, 105
3, 363480, Note_on_c, 7, 59, 105
3, 363576, Note_on_c, 7, 59, 0
3, 363576, Note_on_c, 7, 62, 0
3, 363600, Note_on_c, 7, 59, 105
3, 363600, Note_on_c, 7, 62, 105
3, 363696, Note_on_c, 7, 62, 0
3, 363696, Note_on_c, 7, 59, 0
3, 363720, Note_on_c, 7, 62, 105
3, 363720, Note_on_c, 7, 59, 105
3, 363816, Note_on_c, 7, 59, 0
3, 363816, Note_on_c, 7, 62, 0
3, 363840, Note_on_c, 7, 59, 105
3, 363840, Note_on_c, 7, 62, 105
3, 363936, Note_on_c, 7, 62, 0
3, 363936, Note_on_c, 7, 59, 0
3, 363960, Note_on_c, 7, 62, 105
3, 363960, Note_on_c, 7, 59, 105
3, 364056, Note_on_c, 7, 59, 0
3, 364056, Note_on_c, 7, 62, 0
3, 364080, Note_on_c, 7, 59, 105
3, 364080, Note_on_c, 7, 62, 105
3, 364176, Note_on_c, 7, 62, 0
3, 364176, Note_on_c, 7, 59, 0
3, 364200, Note_on_c, 7, 62, 105
3, 364200, Note_on_c, 7, 59, 105
3, 364296, Note_on_c, 7, 59, 0
3, 364296, Note_on_c, 7, 62, 0
3, 364320, Note_on_c, 7, 62, 105
3, 364320, Note_on_c, 7, 59, 105
3, 364416, Note_on_c, 7, 59, 0
3, 364416, Note_on_c, 7, 62, 0
3, 364440, Note_on_c, 7, 62, 105
3, 364440, Note_on_c, 7, 59, 105
3, 364536, Note_on_c, 7, 59, 0
3, 364536, Note_on_c, 7, 62, 0
3, 364560, Note_on_c, 7, 59, 105
3, 364560, Note_on_c, 7, 62, 105
3, 364656, Note_on_c, 7, 62, 0
3, 364656, Note_on_c, 7, 59, 0
3, 364680, Note_on_c, 7, 59, 105
3, 364680, Note_on_c, 7, 62, 105
3, 364776, Note_on_c, 7, 62, 0
3, 364776, Note_on_c, 7, 59, 0
3, 364800, Note_on_c, 7, 59, 105
3, 364800, Note_on_c, 7, 62, 105
3, 364896, Note_on_c, 7, 62, 0
3, 364896, Note_on_c, 7, 59, 0
3, 364920, Note_on_c, 7, 62, 105
3, 364920, Note_on_c, 7, 59, 105
3, 365016, Note_on_c, 7, 59, 0
3, 365016, Note_on_c, 7, 62, 0
3, 365040, Note_on_c, 7, 59, 105
3, 365040, Note_on_c, 7, 62, 105
3, 365136, Note_on_c, 7, 62, 0
3, 365136, Note_on_c, 7, 59, 0
3, 365160, Note_on_c, 7, 62, 105
3, 365160, Note_on_c, 7, 59, 105
3, 365256, Note_on_c, 7, 59, 0
3, 365256, Note_on_c, 7, 62, 0
3, 365280, Note_on_c, 7, 59, 105
3, 365280, Note_on_c, 7, 62, 105
3, 365376, Note_on_c, 7, 62, 0
3, 365376, Note_on_c, 7, 59, 0
3, 365400, Note_on_c, 7, 62, 105
3, 365400, Note_on_c, 7, 59, 105
3, 365496, Note_on_c, 7, 59, 0
3, 365496, Note_on_c, 7, 62, 0
3, 365520, Note_on_c, 7, 59, 105
3, 365520, Note_on_c, 7, 62, 105
3, 365616, Note_on_c, 7, 62, 0
3, 365616, Note_on_c, 7, 59, 0
3, 365640, Note_on_c, 7, 59, 105
3, 365640, Note_on_c, 7, 62, 105
3, 365736, Note_on_c, 7, 62, 0
3, 365736, Note_on_c, 7, 59, 0
3, 365760, Note_on_c, 7, 62, 105
3, 365760, Note_on_c, 7, 59, 105
3, 365856, Note_on_c, 7, 59, 0
3, 365856, Note_on_c, 7, 62, 0
3, 365880, Note_on_c, 7, 62, 105
3, 365880, Note_on_c, 7, 59, 105
3, 365976, Note_on_c, 7, 59, 0
3, 365976, Note_on_c, 7, 62, 0
3, 366000, Note_on_c, 7, 59, 105
3, 366000, Note_on_c, 7, 62, 105
3, 366096, Note_on_c, 7, 62, 0
3, 366096, Note_on_c, 7, 59, 0
3, 366120, Note_on_c, 7, 62, 105
3, 366120, Note_on_c, 7, 59, 105
3, 366216, Note_on_c, 7, 59, 0
3, 366216, Note_on_c, 7, 62, 0
3, 366240, Note_on_c, 7, 60, 105
3, 366240, Note_on_c, 7, 62, 105
3, 366336, Note_on_c, 7, 62, 0
3, 366336, Note_on_c, 7, 60, 0
3, 366360, Note_on_c, 7, 62, 105
3, 366360, Note_on_c, 7, 60, 105
3, 366456, Note_on_c, 7, 60, 0
3, 366456, Note_on_c, 7, 62, 0
3, 366480, Note_on_c, 7, 60, 105
3, 366480, Note_on_c, 7, 62, 105
3, 366576, Note_on_c, 7, 62, 0
3, 366576, Note_on_c, 7, 60, 0
3, 366600, Note_on_c, 7, 60, 105
3, 366600, Note_on_c, 7, 62, 105
3, 366696, Note_on_c, 7, 62, 0
3, 366696, Note_on_c, 7, 60, 0
3, 366720, Note_on_c, 7, 62, 105
3, 366720, Note_on_c, 7, 59, 105
3, 367104, Note_on_c, 7, 59, 0
3, 367104, Note_on_c, 7, 62, 0
3, 367680, Note_on_c, 7, 79, 105
3, 367680, Note_on_c, 7, 71, 105
3, 367680, Note_on_c, 7, 62, 105
3, 368064, Note_on_c, 7, 62, 0
3, 368064, Note_on_c, 7, 71, 0
3, 368064, Note_on_c, 7, 79, 0
3, 368640, Note_on_c, 7, 62, 105
3, 368640, Note_on_c, 7, 71, 105
3, 368640, Note_on_c, 7, 79, 105
3, 368952, Note_on_c, 7, 79, 0
3, 368952, Note_on_c, 7, 71, 0
3, 368952, Note_on_c, 7, 62, 0
3, 369120, Note_on_c, 7, 67, 105
3, 369120, Note_on_c, 7, 55, 105
3, 369354, Note_on_c, 7, 55, 0
3, 369354, Note_on_c, 7, 67, 0
3, 369480, Note_on_c, 7, 55, 105
3, 369480, Note_on_c, 7, 67, 105
3, 369558, Note_on_c, 7, 67, 0
3, 369558, Note_on_c, 7, 55, 0
3, 369600, Note_on_c, 7, 67, 105
3, 369600, Note_on_c, 7, 55, 105
3, 369984, Note_on_c, 7, 55, 0
3, 369984, Note_on_c, 7, 67, 0
3, 369984, End_track
4, 0, Start_track
4, 0, Program_c, 8, 48
4, 0, Control_c, 8, 7, 127
4, 0, Control_c, 8, 10, 35
4, 0, Control_c, 8, 91, 85
4, 1920, Note_on_c, 8, 67, 80
4, 2304, Note_on_c, 8, 67, 0
4, 2640, Note_on_c, 8, 62, 105
4, 2784, Note_on_c, 8, 62, 0
4, 2880, Note_on_c, 8, 67, 105
4, 3264, Note_on_c, 8, 67, 0
4, 3600, Note_on_c, 8, 62, 105
4, 3744, Note_on_c, 8, 62, 0
4, 3840, Note_on_c, 8, 67, 105
4, 3984, Note_on_c, 8, 67, 0
4, 4080, Note_on_c, 8, 62, 105
4, 4224, Note_on_c, 8, 62, 0
4, 4320, Note_on_c, 8, 67, 105
4, 4464, Note_on_c, 8, 67, 0
4, 4560, Note_on_c, 8, 71, 105
4, 4704, Note_on_c, 8, 71, 0
4, 4800, Note_on_c, 8, 74, 105
4, 5184, Note_on_c, 8, 74, 0
4, 5760, Note_on_c, 8, 72, 105
4, 6144, Note_on_c, 8, 72, 0
4, 6480, Note_on_c, 8, 69, 105
4, 6624, Note_on_c, 8, 69, 0
4, 6720, Note_on_c, 8, 72, 105
4, 7104, Note_on_c, 8, 72, 0
4, 7440, Note_on_c, 8, 69, 105
4, 7584, Note_on_c, 8, 69, 0
4, 7680, Note_on_c, 8, 72, 105
4, 7824, Note_on_c, 8, 72, 0
4, 7920, Note_on_c, 8, 69, 105
4, 8064, Note_on_c, 8, 69, 0
4, 8160, Note_on_c, 8, 66, 105
4, 8304, Note_on_c, 8, 66, 0
4, 8400, Note_on_c, 8, 69, 105
4, 8544, Note_on_c, 8, 69, 0
4, 8640, Note_on_c, 8, 62, 105
4, 9024, Note_on_c, 8, 62, 0
4, 9600, Note_on_c, 8, 67, 105
4, 9756, Note_on_c, 8, 67, 0
4, 9840, Note_on_c, 8, 67, 105
4, 9996, Note_on_c, 8, 67, 0
4, 10080, Note_on_c, 8, 67, 105
4, 10236, Note_on_c, 8, 67, 0
4, 10320, Note_on_c, 8, 67, 105
4, 10476, Note_on_c, 8, 67, 0
4, 10560, Note_on_c, 8, 67, 105
4, 10716, Note_on_c, 8, 67, 0
4, 10800, Note_on_c, 8, 67, 105
4, 10956, Note_on_c, 8, 67, 0
4, 11040, Note_on_c, 8, 67, 105
4, 11196, Note_on_c, 8, 67, 0
4, 11280, Note_on_c, 8, 67, 105
4, 11436, Note_on_c, 8, 67, 0
4, 11520, Note_on_c, 8, 69, 105
4, 11676, Note_on_c, 8, 69, 0
4, 11760, Note_on_c, 8, 69, 105
4, 11916, Note_on_c, 8, 69, 0
4, 12000, Note_on_c, 8, 69, 105
4, 12156, Note_on_c, 8, 69, 0
4, 12240, Note_on_c, 8, 69, 105
4, 12396, Note_on_c, 8, 69, 0
4, 12480, Note_on_c, 8, 69, 105
4, 12720, Note_on_c, 8, 69, 0
4, 12720, Note_on_c, 8, 72, 105
4, 12876, Note_on_c, 8, 72, 0
4, 12960, Note_on_c, 8, 66, 105
4, 13200, Note_on_c, 8, 66, 0
4, 13200, Note_on_c, 8, 69, 105
4, 13356, Note_on_c, 8, 69, 0
4, 13440, Note_on_c, 8, 67, 105
4, 13596, Note_on_c, 8, 67, 0
4, 13680, Note_on_c, 8, 67, 105
4, 13836, Note_on_c, 8, 67, 0
4, 13920, Note_on_c, 8, 67, 105
4, 14076, Note_on_c, 8, 67, 0
4, 14160, Note_on_c, 8, 67, 105
4, 14316, Note_on_c, 8, 67, 0
4, 14400, Note_on_c, 8, 67, 105
4, 14556, Note_on_c, 8, 67, 0
4, 14640, Note_on_c, 8, 67, 105
4, 14796, Note_on_c, 8, 67, 0
4, 14880, Note_on_c, 8, 67, 105
4, 15036, Note_on_c, 8, 67, 0
4, 15120, Note_on_c, 8, 67, 105
4, 15276, Note_on_c, 8, 67, 0
4, 15360, Note_on_c, 8, 69, 105
4, 15516, Note_on_c, 8, 69, 0
4, 15600, Note_on_c, 8, 69, 105
4, 15756, Note_on_c, 8, 69, 0
4, 15840, Note_on_c, 8, 69, 105
4, 15996, Note_on_c, 8, 69, 0
4, 16080, Note_on_c, 8, 69, 105
4, 16236, Note_on_c, 8, 69, 0
4, 16320, Note_on_c, 8, 69, 105
4, 16560, Note_on_c, 8, 69, 0
4, 16560, Note_on_c, 8, 72, 105
4, 16716, Note_on_c, 8, 72, 0
4, 16800, Note_on_c, 8, 66, 105
4, 17040, Note_on_c, 8, 66, 0
4, 17040, Note_on_c, 8, 69, 105
4, 17196, Note_on_c, 8, 69, 0
4, 17280, Note_on_c, 8, 62, 105
4, 17376, Note_on_c, 8, 62, 0
4, 17400, Note_on_c, 8, 62, 105
4, 17496, Note_on_c, 8, 62, 0
4, 17520, Note_on_c, 8, 62, 105
4, 17616, Note_on_c, 8, 62, 0
4, 17640, Note_on_c, 8, 62, 105
4, 17736, Note_on_c, 8, 62, 0
4, 17760, Note_on_c, 8, 62, 105
4, 17856, Note_on_c, 8, 62, 0
4, 17880, Note_on_c, 8, 62, 105
4, 17976, Note_on_c, 8, 62, 0
4, 18000, Note_on_c, 8, 62, 105
4, 18096, Note_on_c, 8, 62, 0
4, 18120, Note_on_c, 8, 62, 105
4, 18216, Note_on_c, 8, 62, 0
4, 18240, Note_on_c, 8, 62, 105
4, 18336, Note_on_c, 8, 62, 0
4, 18360, Note_on_c, 8, 62, 105
4, 18456, Note_on_c, 8, 62, 0
4, 18480, Note_on_c, 8, 62, 105
4, 18576, Note_on_c, 8, 62, 0
4, 18600, Note_on_c, 8, 62, 105
4, 18696, Note_on_c, 8, 62, 0
4, 18720, Note_on_c, 8, 62, 105
4, 18816, Note_on_c, 8, 62, 0
4, 18840, Note_on_c, 8, 62, 105
4, 18936, Note_on_c, 8, 62, 0
4, 18960, Note_on_c, 8, 62, 105
4, 19056, Note_on_c, 8, 62, 0
4, 19080, Note_on_c, 8, 62, 105
4, 19176, Note_on_c, 8, 62, 0
4, 19200, Note_on_c, 8, 62, 105
4, 19296, Note_on_c, 8, 62, 0
4, 19320, Note_on_c, 8, 62, 105
4, 19416, Note_on_c, 8, 62, 0
4, 19440, Note_on_c, 8, 62, 105
4, 19536, Note_on_c, 8, 62, 0
4, 19560, Note_on_c, 8, 62, 105
4, 19656, Note_on_c, 8, 62, 0
4, 19680, Note_on_c, 8, 62, 105
4, 19776, Note_on_c, 8, 62, 0
4, 19800, Note_on_c, 8, 62, 105
4, 19896, Note_on_c, 8, 62, 0
4, 19920, Note_on_c, 8, 62, 105
4, 20016, Note_on_c, 8, 62, 0
4, 20040, Note_on_c, 8, 62, 105
4, 20136, Note_on_c, 8, 62, 0
4, 20160, Note_on_c, 8, 62, 92
4, 20544, Note_on_c, 8, 62, 0
4, 23040, Note_on_c, 8, 54, 58
4, 24000, Note_on_c, 8, 54, 0
4, 24000, Note_on_c, 8, 55, 58
4, 24768, Note_on_c, 8, 55, 0
4, 24960, Note_on_c, 8, 60, 58
4, 25272, Note_on_c, 8, 60, 0
4, 25440, Note_on_c, 8, 60, 58
4, 25752, Note_on_c, 8, 60, 0
4, 25920, Note_on_c, 8, 57, 58
4, 26232, Note_on_c, 8, 57, 0
4, 26400, Note_on_c, 8, 50, 58
4, 26712, Note_on_c, 8, 50, 0
4, 26880, Note_on_c, 8, 50, 58
4, 27072, Note_on_c, 8, 50, 0
4, 27360, Note_on_c, 8, 62, 58
4, 27552, Note_on_c, 8, 62, 0
4, 27840, Note_on_c, 8, 62, 58
4, 28224, Note_on_c, 8, 62, 0
4, 30720, Note_on_c, 8, 66, 58
4, 31680, Note_on_c, 8, 66, 0
4, 31680, Note_on_c, 8, 67, 58
4, 32448, Note_on_c, 8, 67, 0
4, 32640, Note_on_c, 8, 60, 58
4, 32952, Note_on_c, 8, 60, 0
4, 33120, Note_on_c, 8, 60, 58
4, 33276, Note_on_c, 8, 60, 0
4, 33360, Note_on_c, 8, 60, 58
4, 33516, Note_on_c, 8, 60, 0
4, 33600, Note_on_c, 8, 57, 58
4, 33912, Note_on_c, 8, 57, 0
4, 34080, Note_on_c, 8, 57, 58
4, 34236, Note_on_c, 8, 57, 0
4, 34320, Note_on_c, 8, 57, 58
4, 34476, Note_on_c, 8, 57, 0
4, 34560, Note_on_c, 8, 55, 112
4, 34752, Note_on_c, 8, 55, 0
4, 34800, Note_on_c, 8, 55, 92
4, 34992, Note_on_c, 8, 55, 0
4, 35040, Note_on_c, 8, 55, 92
4, 35232, Note_on_c, 8, 55, 0
4, 35280, Note_on_c, 8, 55, 92
4, 35472, Note_on_c, 8, 55, 0
4, 35520, Note_on_c, 8, 55, 72
4, 35712, Note_on_c, 8, 55, 0
4, 35760, Note_on_c, 8, 55, 72
4, 35952, Note_on_c, 8, 55, 0
4, 36000, Note_on_c, 8, 55, 72
4, 36192, Note_on_c, 8, 55, 0
4, 36240, Note_on_c, 8, 55, 72
4, 36432, Note_on_c, 8, 55, 0
4, 36480, Note_on_c, 8, 55, 112
4, 36672, Note_on_c, 8, 55, 0
4, 36720, Note_on_c, 8, 55, 92
4, 36912, Note_on_c, 8, 55, 0
4, 36960, Note_on_c, 8, 55, 92
4, 37152, Note_on_c, 8, 55, 0
4, 37200, Note_on_c, 8, 55, 92
4, 37392, Note_on_c, 8, 55, 0
4, 37440, Note_on_c, 8, 55, 72
4, 37632, Note_on_c, 8, 55, 0
4, 37680, Note_on_c, 8, 55, 72
4, 37872, Note_on_c, 8, 55, 0
4, 37920, Note_on_c, 8, 55, 72
4, 38112, Note_on_c, 8, 55, 0
4, 38160, Note_on_c, 8, 55, 72
4, 38352, Note_on_c, 8, 55, 0
4, 38400, Note_on_c, 8, 55, 72
4, 38544, Note_on_c, 8, 55, 0
4, 38640, Note_on_c, 8, 67, 72
4, 38784, Note_on_c, 8, 67, 0
4, 38880, Note_on_c, 8, 67, 72
4, 39024, Note_on_c, 8, 67, 0
4, 39120, Note_on_c, 8, 67, 72
4, 39264, Note_on_c, 8, 67, 0
4, 39360, Note_on_c, 8, 67, 81
4, 39504, Note_on_c, 8, 67, 0
4, 39600, Note_on_c, 8, 67, 81
4, 39744, Note_on_c, 8, 67, 0
4, 39840, Note_on_c, 8, 69, 81
4, 39984, Note_on_c, 8, 69, 0
4, 40080, Note_on_c, 8, 69, 81
4, 40224, Note_on_c, 8, 69, 0
4, 40320, Note_on_c, 8, 67, 92
4, 40464, Note_on_c, 8, 67, 0
4, 40560, Note_on_c, 8, 67, 92
4, 40704, Note_on_c, 8, 67, 0
4, 40800, Note_on_c, 8, 66, 92
4, 40944, Note_on_c, 8, 66, 0
4, 41040, Note_on_c, 8, 66, 92
4, 41184, Note_on_c, 8, 66, 0
4, 41280, Note_on_c, 8, 67, 105
4, 41424, Note_on_c, 8, 67, 0
4, 41520, Note_on_c, 8, 67, 105
4, 41664, Note_on_c, 8, 67, 0
4, 41760, Note_on_c, 8, 64, 105
4, 41904, Note_on_c, 8, 64, 0
4, 42000, Note_on_c, 8, 64, 105
4, 42144, Note_on_c, 8, 64, 0
4, 42240, Note_on_c, 8, 69, 105
4, 42240, Note_on_c, 8, 62, 105
4, 42336, Note_on_c, 8, 62, 0
4, 42336, Note_on_c, 8, 69, 0
4, 42360, Note_on_c, 8, 69, 105
4, 42360, Note_on_c, 8, 62, 105
4, 42456, Note_on_c, 8, 62, 0
4, 42456, Note_on_c, 8, 69, 0
4, 42480, Note_on_c, 8, 62, 105
4, 42480, Note_on_c, 8, 69, 105
4, 42576, Note_on_c, 8, 69, 0
4, 42576, Note_on_c, 8, 62, 0
4, 42600, Note_on_c, 8, 69, 105
4, 42600, Note_on_c, 8, 62, 105
4, 42696, Note_on_c, 8, 62, 0
4, 42696, Note_on_c, 8, 69, 0
4, 42720, Note_on_c, 8, 62, 105
4, 42720, Note_on_c, 8, 69, 105
4, 42816, Note_on_c, 8, 69, 0
4, 42816, Note_on_c, 8, 62, 0
4, 42840, Note_on_c, 8, 62, 105
4, 42840, Note_on_c, 8, 69, 105
4, 42936, Note_on_c, 8, 69, 0
4, 42936, Note_on_c, 8, 62, 0
4, 42960, Note_on_c, 8, 62, 105
4, 42960, Note_on_c, 8, 69, 105
4, 43056, Note_on_c, 8, 69, 0
4, 43056, Note_on_c, 8, 62, 0
4, 43080, Note_on_c, 8, 69, 105
4, 43080, Note_on_c, 8, 62, 105
4, 43176, Note_on_c, 8, 62, 0
4, 43176, Note_on_c, 8, 69, 0
4, 43200, Note_on_c, 8, 69, 105
4, 43200, Note_on_c, 8, 64, 105
4, 43296, Note_on_c, 8, 64, 0
4, 43296, Note_on_c, 8, 69, 0
4, 43320, Note_on_c, 8, 69, 105
4, 43320, Note_on_c, 8, 64, 105
4, 43416, Note_on_c, 8, 64, 0
4, 43416, Note_on_c, 8, 69, 0
4, 43440, Note_on_c, 8, 64, 105
4, 43440, Note_on_c, 8, 69, 105
4, 43536, Note_on_c, 8, 69, 0
4, 43536, Note_on_c, 8, 64, 0
4, 43560, Note_on_c, 8, 64, 105
4, 43560, Note_on_c, 8, 69, 105
4, 43656, Note_on_c, 8, 69, 0
4, 43656, Note_on_c, 8, 64, 0
4, 43680, Note_on_c, 8, 69, 105
4, 43680, Note_on_c, 8, 64, 105
4, 43776, Note_on_c, 8, 64, 0
4, 43776, Note_on_c, 8, 69, 0
4, 43800, Note_on_c, 8, 69, 105
4, 43800, Note_on_c, 8, 64, 105
4, 43896, Note_on_c, 8, 64, 0
4, 43896, Note_on_c, 8, 69, 0
4, 43920, Note_on_c, 8, 69, 105
4, 43920, Note_on_c, 8, 64, 105
4, 44016, Note_on_c, 8, 64, 0
4, 44016, Note_on_c, 8, 69, 0
4, 44040, Note_on_c, 8, 69, 105
4, 44040, Note_on_c, 8, 64, 105
4, 44136, Note_on_c, 8, 64, 0
4, 44136, Note_on_c, 8, 69, 0
4, 44160, Note_on_c, 8, 69, 105
4, 44160, Note_on_c, 8, 62, 105
4, 44256, Note_on_c, 8, 62, 0
4, 44256, Note_on_c, 8, 69, 0
4, 44280, Note_on_c, 8, 62, 105
4, 44280, Note_on_c, 8, 69, 105
4, 44376, Note_on_c, 8, 69, 0
4, 44376, Note_on_c, 8, 62, 0
4, 44400, Note_on_c, 8, 62, 105
4, 44400, Note_on_c, 8, 69, 105
4, 44496, Note_on_c, 8, 69, 0
4, 44496, Note_on_c, 8, 62, 0
4, 44520, Note_on_c, 8, 69, 105
4, 44520, Note_on_c, 8, 62, 105
4, 44616, Note_on_c, 8, 62, 0
4, 44616, Note_on_c, 8, 69, 0
4, 44640, Note_on_c, 8, 62, 105
4, 44640, Note_on_c, 8, 69, 105
4, 44736, Note_on_c, 8, 69, 0
4, 44736, Note_on_c, 8, 62, 0
4, 44760, Note_on_c, 8, 62, 105
4, 44760, Note_on_c, 8, 69, 105
4, 44856, Note_on_c, 8, 69, 0
4, 44856, Note_on_c, 8, 62, 0
4, 44880, Note_on_c, 8, 69, 105
4, 44880, Note_on_c, 8, 62, 105
4, 44976, Note_on_c, 8, 62, 0
4, 44976, Note_on_c, 8, 69, 0
4, 45000, Note_on_c, 8, 62, 105
4, 45000, Note_on_c, 8, 69, 105
4, 45096, Note_on_c, 8, 69, 0
4, 45096, Note_on_c, 8, 62, 0
4, 45120, Note_on_c, 8, 69, 105
4, 45120, Note_on_c, 8, 64, 105
4, 45216, Note_on_c, 8, 64, 0
4, 45216, Note_on_c, 8, 69, 0
4, 45240, Note_on_c, 8, 64, 105
4, 45240, Note_on_c, 8, 69, 105
4, 45336, Note_on_c, 8, 69, 0
4, 45336, Note_on_c, 8, 64, 0
4, 45360, Note_on_c, 8, 64, 105
4, 45360, Note_on_c, 8, 69, 105
4, 45456, Note_on_c, 8, 69, 0
4, 45456, Note_on_c, 8, 64, 0
4, 45480, Note_on_c, 8, 69, 105
4, 45480, Note_on_c, 8, 64, 105
4, 45576, Note_on_c, 8, 64, 0
4, 45576, Note_on_c, 8, 69, 0
4, 45600, Note_on_c, 8, 64, 105
4, 45600, Note_on_c, 8, 69, 105
4, 45696, Note_on_c, 8, 69, 0
4, 45696, Note_on_c, 8, 64, 0
4, 45720, Note_on_c, 8, 64, 105
4, 45720, Note_on_c, 8, 69, 105
4, 45816, Note_on_c, 8, 69, 0
4, 45816, Note_on_c, 8, 64, 0
4, 45840, Note_on_c, 8, 69, 105
4, 45840, Note_on_c, 8, 64, 105
4, 45936, Note_on_c, 8, 64, 0
4, 45936, Note_on_c, 8, 69, 0
4, 45960, Note_on_c, 8, 69, 105
4, 45960, Note_on_c, 8, 64, 105
4, 46056, Note_on_c, 8, 64, 0
4, 46056, Note_on_c, 8, 69, 0
4, 46080, Note_on_c, 8, 66, 105
4, 46236, Note_on_c, 8, 66, 0
4, 46320, Note_on_c, 8, 67, 105
4, 46476, Note_on_c, 8, 67, 0
4, 46560, Note_on_c, 8, 69, 105
4, 46716, Note_on_c, 8, 69, 0
4, 46800, Note_on_c, 8, 67, 105
4, 46956, Note_on_c, 8, 67, 0
4, 47040, Note_on_c, 8, 66, 105
4, 47196, Note_on_c, 8, 66, 0
4, 47280, Note_on_c, 8, 67, 105
4, 47436, Note_on_c, 8, 67, 0
4, 47520, Note_on_c, 8, 69, 105
4, 47676, Note_on_c, 8, 69, 0
4, 47760, Note_on_c, 8, 66, 105
4, 47916, Note_on_c, 8, 66, 0
4, 48000, Note_on_c, 8, 71, 105
4, 48156, Note_on_c, 8, 71, 0
4, 48240, Note_on_c, 8, 69, 105
4, 48396, Note_on_c, 8, 69, 0
4, 48480, Note_on_c, 8, 67, 105
4, 48636, Note_on_c, 8, 67, 0
4, 48720, Note_on_c, 8, 69, 105
4, 48876, Note_on_c, 8, 69, 0
4, 48960, Note_on_c, 8, 71, 105
4, 49116, Note_on_c, 8, 71, 0
4, 49200, Note_on_c, 8, 69, 105
4, 49356, Note_on_c, 8, 69, 0
4, 49440, Note_on_c, 8, 68, 105
4, 49596, Note_on_c, 8, 68, 0
4, 49680, Note_on_c, 8, 71, 105
4, 49836, Note_on_c, 8, 71, 0
4, 49920, Note_on_c, 8, 69, 105
4, 50076, Note_on_c, 8, 69, 0
4, 50160, Note_on_c, 8, 69, 105
4, 50316, Note_on_c, 8, 69, 0
4, 50400, Note_on_c, 8, 69, 105
4, 50556, Note_on_c, 8, 69, 0
4, 50640, Note_on_c, 8, 69, 105
4, 50796, Note_on_c, 8, 69, 0
4, 50880, Note_on_c, 8, 69, 105
4, 51036, Note_on_c, 8, 69, 0
4, 51120, Note_on_c, 8, 69, 105
4, 51276, Note_on_c, 8, 69, 0
4, 51360, Note_on_c, 8, 69, 105
4, 51516, Note_on_c, 8, 69, 0
4, 51600, Note_on_c, 8, 69, 105
4, 51756, Note_on_c, 8, 69, 0
4, 51840, Note_on_c, 8, 69, 105
4, 51996, Note_on_c, 8, 69, 0
4, 52080, Note_on_c, 8, 57, 105
4, 52236, Note_on_c, 8, 57, 0
4, 52320, Note_on_c, 8, 57, 105
4, 52476, Note_on_c, 8, 57, 0
4, 52560, Note_on_c, 8, 57, 105
4, 52716, Note_on_c, 8, 57, 0
4, 52800, Note_on_c, 8, 57, 92
4, 53184, Note_on_c, 8, 57, 0
4, 55200, Note_on_c, 8, 66, 58
4, 55392, Note_on_c, 8, 66, 0
4, 55680, Note_on_c, 8, 59, 58
4, 55872, Note_on_c, 8, 59, 0
4, 56160, Note_on_c, 8, 67, 58
4, 56352, Note_on_c, 8, 67, 0
4, 56640, Note_on_c, 8, 64, 58
4, 56832, Note_on_c, 8, 64, 0
4, 57120, Note_on_c, 8, 61, 58
4, 57312, Note_on_c, 8, 61, 0
4, 58080, Note_on_c, 8, 64, 58
4, 58560, Note_on_c, 8, 64, 0
4, 58560, Note_on_c, 8, 62, 58
4, 58752, Note_on_c, 8, 62, 0
4, 59040, Note_on_c, 8, 64, 58
4, 59232, Note_on_c, 8, 64, 0
4, 59520, Note_on_c, 8, 62, 58
4, 60480, Note_on_c, 8, 62, 0
4, 60480, Note_on_c, 8, 61, 58
4, 60864, Note_on_c, 8, 61, 0
4, 61920, Note_on_c, 8, 61, 58
4, 62400, Note_on_c, 8, 61, 0
4, 62400, Note_on_c, 8, 62, 58
4, 62592, Note_on_c, 8, 62, 0
4, 62880, Note_on_c, 8, 66, 58
4, 63072, Note_on_c, 8, 66, 0
4, 63360, Note_on_c, 8, 59, 58
4, 63552, Note_on_c, 8, 59, 0
4, 63840, Note_on_c, 8, 55, 58
4, 64032, Note_on_c, 8, 55, 0
4, 64320, Note_on_c, 8, 52, 58
4, 64704, Note_on_c, 8, 52, 0
4, 65040, Note_on_c, 8, 64, 58
4, 65232, Note_on_c, 8, 64, 0
4, 65280, Note_on_c, 8, 64, 72
4, 65520, Note_on_c, 8, 64, 0
4, 65520, Note_on_c, 8, 62, 72
4, 65712, Note_on_c, 8, 62, 0
4, 67200, Note_on_c, 8, 62, 58
4, 67356, Note_on_c, 8, 62, 0
4, 67440, Note_on_c, 8, 62, 58
4, 67596, Note_on_c, 8, 62, 0
4, 67680, Note_on_c, 8, 64, 58
4, 67836, Note_on_c, 8, 64, 0
4, 67920, Note_on_c, 8, 64, 58
4, 68076, Note_on_c, 8, 64, 0
4, 68160, Note_on_c, 8, 66, 58
4, 68316, Note_on_c, 8, 66, 0
4, 68400, Note_on_c, 8, 66, 58
4, 68556, Note_on_c, 8, 66, 0
4, 68640, Note_on_c, 8, 62, 58
4, 68796, Note_on_c, 8, 62, 0
4, 68880, Note_on_c, 8, 62, 58
4, 69036, Note_on_c, 8, 62, 0
4, 69120, Note_on_c, 8, 61, 58
4, 69276, Note_on_c, 8, 61, 0
4, 69360, Note_on_c, 8, 61, 58
4, 69516, Note_on_c, 8, 61, 0
4, 69600, Note_on_c, 8, 62, 58
4, 69756, Note_on_c, 8, 62, 0
4, 69840, Note_on_c, 8, 62, 58
4, 69996, Note_on_c, 8, 62, 0
4, 70080, Note_on_c, 8, 64, 58
4, 70236, Note_on_c, 8, 64, 0
4, 70320, Note_on_c, 8, 64, 58
4, 70476, Note_on_c, 8, 64, 0
4, 70560, Note_on_c, 8, 61, 58
4, 70716, Note_on_c, 8, 61, 0
4, 70800, Note_on_c, 8, 61, 58
4, 70956, Note_on_c, 8, 61, 0
4, 71040, Note_on_c, 8, 62, 58
4, 71196, Note_on_c, 8, 62, 0
4, 71280, Note_on_c, 8, 62, 58
4, 71436, Note_on_c, 8, 62, 0
4, 71520, Note_on_c, 8, 64, 58
4, 71676, Note_on_c, 8, 64, 0
4, 71760, Note_on_c, 8, 64, 58
4, 71916, Note_on_c, 8, 64, 0
4, 72000, Note_on_c, 8, 66, 58
4, 72156, Note_on_c, 8, 66, 0
4, 72240, Note_on_c, 8, 66, 58
4, 72396, Note_on_c, 8, 66, 0
4, 72480, Note_on_c, 8, 62, 58
4, 72636, Note_on_c, 8, 62, 0
4, 72720, Note_on_c, 8, 62, 58
4, 72876, Note_on_c, 8, 62, 0
4, 72960, Note_on_c, 8, 61, 58
4, 73116, Note_on_c, 8, 61, 0
4, 73200, Note_on_c, 8, 61, 58
4, 73356, Note_on_c, 8, 61, 0
4, 73440, Note_on_c, 8, 62, 58
4, 73596, Note_on_c, 8, 62, 0
4, 73680, Note_on_c, 8, 62, 58
4, 73836, Note_on_c, 8, 62, 0
4, 73920, Note_on_c, 8, 64, 58
4, 74076, Note_on_c, 8, 64, 0
4, 74160, Note_on_c, 8, 64, 58
4, 74316, Note_on_c, 8, 64, 0
4, 74400, Note_on_c, 8, 61, 58
4, 74556, Note_on_c, 8, 61, 0
4, 74640, Note_on_c, 8, 61, 58
4, 74796, Note_on_c, 8, 61, 0
4, 74880, Note_on_c, 8, 62, 58
4, 75036, Note_on_c, 8, 62, 0
4, 75120, Note_on_c, 8, 62, 105
4, 75276, Note_on_c, 8, 62, 0
4, 75360, Note_on_c, 8, 66, 105
4, 75516, Note_on_c, 8, 66, 0
4, 75600, Note_on_c, 8, 64, 105
4, 75756, Note_on_c, 8, 64, 0
4, 75840, Note_on_c, 8, 63, 105
4, 75996, Note_on_c, 8, 63, 0
4, 76080, Note_on_c, 8, 59, 105
4, 76236, Note_on_c, 8, 59, 0
4, 76320, Note_on_c, 8, 61, 105
4, 76476, Note_on_c, 8, 61, 0
4, 76560, Note_on_c, 8, 63, 105
4, 76716, Note_on_c, 8, 63, 0
4, 76800, Note_on_c, 8, 64, 105
4, 76956, Note_on_c, 8, 64, 0
4, 77040, Note_on_c, 8, 67, 105
4, 77196, Note_on_c, 8, 67, 0
4, 77280, Note_on_c, 8, 64, 105
4, 77436, Note_on_c, 8, 64, 0
4, 77520, Note_on_c, 8, 62, 105
4, 77676, Note_on_c, 8, 62, 0
4, 77760, Note_on_c, 8, 61, 105
4, 77916, Note_on_c, 8, 61, 0
4, 78000, Note_on_c, 8, 57, 105
4, 78156, Note_on_c, 8, 57, 0
4, 78240, Note_on_c, 8, 59, 105
4, 78396, Note_on_c, 8, 59, 0
4, 78480, Note_on_c, 8, 61, 105
4, 78636, Note_on_c, 8, 61, 0
4, 78720, Note_on_c, 8, 62, 105
4, 78876, Note_on_c, 8, 62, 0
4, 78960, Note_on_c, 8, 74, 105
4, 79116, Note_on_c, 8, 74, 0
4, 79200, Note_on_c, 8, 74, 105
4, 79356, Note_on_c, 8, 74, 0
4, 79440, Note_on_c, 8, 74, 105
4, 79596, Note_on_c, 8, 74, 0
4, 79680, Note_on_c, 8, 74, 105
4, 79836, Note_on_c, 8, 74, 0
4, 79920, Note_on_c, 8, 74, 105
4, 80076, Note_on_c, 8, 74, 0
4, 80160, Note_on_c, 8, 74, 105
4, 80316, Note_on_c, 8, 74, 0
4, 80400, Note_on_c, 8, 74, 105
4, 80556, Note_on_c, 8, 74, 0
4, 80640, Note_on_c, 8, 74, 105
4, 80880, Note_on_c, 8, 74, 0
4, 80880, Note_on_c, 8, 69, 105
4, 81036, Note_on_c, 8, 69, 0
4, 81120, Note_on_c, 8, 69, 105
4, 81276, Note_on_c, 8, 69, 0
4, 81360, Note_on_c, 8, 69, 105
4, 81516, Note_on_c, 8, 69, 0
4, 81600, Note_on_c, 8, 69, 105
4, 81756, Note_on_c, 8, 69, 0
4, 81840, Note_on_c, 8, 69, 105
4, 81996, Note_on_c, 8, 69, 0
4, 82080, Note_on_c, 8, 69, 105
4, 82236, Note_on_c, 8, 69, 0
4, 82320, Note_on_c, 8, 67, 105
4, 82476, Note_on_c, 8, 67, 0
4, 82560, Note_on_c, 8, 66, 92
4, 82716, Note_on_c, 8, 66, 0
4, 82800, Note_on_c, 8, 62, 58
4, 82956, Note_on_c, 8, 62, 0
4, 83040, Note_on_c, 8, 64, 58
4, 83196, Note_on_c, 8, 64, 0
4, 83280, Note_on_c, 8, 64, 58
4, 83436, Note_on_c, 8, 64, 0
4, 83520, Note_on_c, 8, 66, 58
4, 83676, Note_on_c, 8, 66, 0
4, 83760, Note_on_c, 8, 66, 58
4, 83916, Note_on_c, 8, 66, 0
4, 84000, Note_on_c, 8, 62, 58
4, 84156, Note_on_c, 8, 62, 0
4, 84240, Note_on_c, 8, 62, 58
4, 84396, Note_on_c, 8, 62, 0
4, 84480, Note_on_c, 8, 61, 58
4, 84636, Note_on_c, 8, 61, 0
4, 84720, Note_on_c, 8, 61, 58
4, 84876, Note_on_c, 8, 61, 0
4, 84960, Note_on_c, 8, 62, 58
4, 85116, Note_on_c, 8, 62, 0
4, 85200, Note_on_c, 8, 62, 58
4, 85356, Note_on_c, 8, 62, 0
4, 85440, Note_on_c, 8, 64, 58
4, 85596, Note_on_c, 8, 64, 0
4, 85680, Note_on_c, 8, 64, 58
4, 85836, Note_on_c, 8, 64, 0
4, 85920, Note_on_c, 8, 61, 58
4, 86076, Note_on_c, 8, 61, 0
4, 86160, Note_on_c, 8, 61, 58
4, 86316, Note_on_c, 8, 61, 0
4, 86400, Note_on_c, 8, 62, 58
4, 86556, Note_on_c, 8, 62, 0
4, 86640, Note_on_c, 8, 62, 58
4, 86796, Note_on_c, 8, 62, 0
4, 86880, Note_on_c, 8, 64, 58
4, 87036, Note_on_c, 8, 64, 0
4, 87120, Note_on_c, 8, 64, 58
4, 87276, Note_on_c, 8, 64, 0
4, 87360, Note_on_c, 8, 66, 58
4, 87516, Note_on_c, 8, 66, 0
4, 87600, Note_on_c, 8, 66, 58
4, 87756, Note_on_c, 8, 66, 0
4, 87840, Note_on_c, 8, 62, 58
4, 87996, Note_on_c, 8, 62, 0
4, 88080, Note_on_c, 8, 62, 58
4, 88236, Note_on_c, 8, 62, 0
4, 88320, Note_on_c, 8, 61, 58
4, 88476, Note_on_c, 8, 61, 0
4, 88560, Note_on_c, 8, 61, 58
4, 88716, Note_on_c, 8, 61, 0
4, 88800, Note_on_c, 8, 62, 58
4, 88956, Note_on_c, 8, 62, 0
4, 89040, Note_on_c, 8, 62, 58
4, 89196, Note_on_c, 8, 62, 0
4, 89280, Note_on_c, 8, 64, 58
4, 89436, Note_on_c, 8, 64, 0
4, 89520, Note_on_c, 8, 64, 58
4, 89676, Note_on_c, 8, 64, 0
4, 89760, Note_on_c, 8, 61, 58
4, 89916, Note_on_c, 8, 61, 0
4, 90000, Note_on_c, 8, 61, 58
4, 90156, Note_on_c, 8, 61, 0
4, 90240, Note_on_c, 8, 62, 58
4, 90396, Note_on_c, 8, 62, 0
4, 90480, Note_on_c, 8, 62, 105
4, 90636, Note_on_c, 8, 62, 0
4, 90720, Note_on_c, 8, 66, 105
4, 90876, Note_on_c, 8, 66, 0
4, 90960, Note_on_c, 8, 64, 105
4, 91116, Note_on_c, 8, 64, 0
4, 91200, Note_on_c, 8, 63, 105
4, 91356, Note_on_c, 8, 63, 0
4, 91440, Note_on_c, 8, 59, 105
4, 91596, Note_on_c, 8, 59, 0
4, 91680, Note_on_c, 8, 61, 105
4, 91836, Note_on_c, 8, 61, 0
4, 91920, Note_on_c, 8, 63, 105
4, 92076, Note_on_c, 8, 63, 0
4, 92160, Note_on_c, 8, 64, 105
4, 92316, Note_on_c, 8, 64, 0
4, 92400, Note_on_c, 8, 67, 105
4, 92556, Note_on_c, 8, 67, 0
4, 92640, Note_on_c, 8, 64, 105
4, 92796, Note_on_c, 8, 64, 0
4, 92880, Note_on_c, 8, 62, 105
4, 93036, Note_on_c, 8, 62, 0
4, 93120, Note_on_c, 8, 61, 105
4, 93276, Note_on_c, 8, 61, 0
4, 93360, Note_on_c, 8, 57, 105
4, 93516, Note_on_c, 8, 57, 0
4, 93600, Note_on_c, 8, 59, 105
4, 93756, Note_on_c, 8, 59, 0
4, 93840, Note_on_c, 8, 61, 105
4, 93996, Note_on_c, 8, 61, 0
4, 94080, Note_on_c, 8, 62, 105
4, 94236, Note_on_c, 8, 62, 0
4, 94320, Note_on_c, 8, 74, 105
4, 94476, Note_on_c, 8, 74, 0
4, 94560, Note_on_c, 8, 74, 105
4, 94716, Note_on_c, 8, 74, 0
4, 94800, Note_on_c, 8, 74, 105
4, 94956, Note_on_c, 8, 74, 0
4, 95040, Note_on_c, 8, 74, 105
4, 95196, Note_on_c, 8, 74, 0
4, 95280, Note_on_c, 8, 74, 105
4, 95436, Note_on_c, 8, 74, 0
4, 95520, Note_on_c, 8, 74, 105
4, 95676, Note_on_c, 8, 74, 0
4, 95760, Note_on_c, 8, 74, 105
4, 95916, Note_on_c, 8, 74, 0
4, 96000, Note_on_c, 8, 74, 105
4, 96240, Note_on_c, 8, 74, 0
4, 96240, Note_on_c, 8, 69, 105
4, 96396, Note_on_c, 8, 69, 0
4, 96480, Note_on_c, 8, 69, 105
4, 96636, Note_on_c, 8, 69, 0
4, 96720, Note_on_c, 8, 69, 105
4, 96876, Note_on_c, 8, 69, 0
4, 96960, Note_on_c, 8, 69, 105
4, 97116, Note_on_c, 8, 69, 0
4, 97200, Note_on_c, 8, 69, 105
4, 97356, Note_on_c, 8, 69, 0
4, 97440, Note_on_c, 8, 69, 105
4, 97596, Note_on_c, 8, 69, 0
4, 97680, Note_on_c, 8, 67, 105
4, 97836, Note_on_c, 8, 67, 0
4, 97920, Note_on_c, 8, 66, 105
4, 98076, Note_on_c, 8, 66, 0
4, 98160, Note_on_c, 8, 57, 105
4, 98316, Note_on_c, 8, 57, 0
4, 98400, Note_on_c, 8, 59, 105
4, 98556, Note_on_c, 8, 59, 0
4, 98640, Note_on_c, 8, 61, 105
4, 98796, Note_on_c, 8, 61, 0
4, 98880, Note_on_c, 8, 62, 105
4, 99036, Note_on_c, 8, 62, 0
4, 99120, Note_on_c, 8, 62, 105
4, 99276, Note_on_c, 8, 62, 0
4, 99360, Note_on_c, 8, 64, 105
4, 99516, Note_on_c, 8, 64, 0
4, 99600, Note_on_c, 8, 64, 105
4, 99756, Note_on_c, 8, 64, 0
4, 99840, Note_on_c, 8, 66, 105
4, 99996, Note_on_c, 8, 66, 0
4, 100080, Note_on_c, 8, 61, 105
4, 100236, Note_on_c, 8, 61, 0
4, 100320, Note_on_c, 8, 62, 105
4, 100476, Note_on_c, 8, 62, 0
4, 100560, Note_on_c, 8, 64, 105
4, 100716, Note_on_c, 8, 64, 0
4, 100800, Note_on_c, 8, 66, 105
4, 100956, Note_on_c, 8, 66, 0
4, 101040, Note_on_c, 8, 66, 105
4, 101196, Note_on_c, 8, 66, 0
4, 101280, Note_on_c, 8, 67, 105
4, 101436, Note_on_c, 8, 67, 0
4, 101520, Note_on_c, 8, 67, 105
4, 101676, Note_on_c, 8, 67, 0
4, 101760, Note_on_c, 8, 69, 105
4, 101916, Note_on_c, 8, 69, 0
4, 102000, Note_on_c, 8, 69, 105
4, 102156, Note_on_c, 8, 69, 0
4, 102240, Note_on_c, 8, 70, 105
4, 102396, Note_on_c, 8, 70, 0
4, 102480, Note_on_c, 8, 70, 105
4, 102636, Note_on_c, 8, 70, 0
4, 102720, Note_on_c, 8, 71, 92
4, 103104, Note_on_c, 8, 71, 0
4, 103680, Note_on_c, 8, 64, 58
4, 105120, Note_on_c, 8, 64, 0
4, 105120, Note_on_c, 8, 62, 58
4, 105360, Note_on_c, 8, 62, 0
4, 105360, Note_on_c, 8, 61, 58
4, 105552, Note_on_c, 8, 61, 0
4, 105600, Note_on_c, 8, 62, 58
4, 105792, Note_on_c, 8, 62, 0
4, 106080, Note_on_c, 8, 62, 58
4, 106272, Note_on_c, 8, 62, 0
4, 106560, Note_on_c, 8, 62, 58
4, 106752, Note_on_c, 8, 62, 0
4, 107520, Note_on_c, 8, 67, 58
4, 107904, Note_on_c, 8, 67, 0
4, 108240, Note_on_c, 8, 62, 105
4, 108384, Note_on_c, 8, 62, 0
4, 108480, Note_on_c, 8, 67, 105
4, 108864, Note_on_c, 8, 67, 0
4, 109200, Note_on_c, 8, 62, 105
4, 109344, Note_on_c, 8, 62, 0
4, 109440, Note_on_c, 8, 67, 105
4, 109584, Note_on_c, 8, 67, 0
4, 109680, Note_on_c, 8, 62, 105
4, 109824, Note_on_c, 8, 62, 0
4, 109920, Note_on_c, 8, 67, 105
4, 110064, Note_on_c, 8, 67, 0
4, 110160, Note_on_c, 8, 71, 105
4, 110304, Note_on_c, 8, 71, 0
4, 110400, Note_on_c, 8, 74, 105
4, 110784, Note_on_c, 8, 74, 0
4, 111360, Note_on_c, 8, 72, 105
4, 111744, Note_on_c, 8, 72, 0
4, 112080, Note_on_c, 8, 69, 105
4, 112224, Note_on_c, 8, 69, 0
4, 112320, Note_on_c, 8, 72, 105
4, 112704, Note_on_c, 8, 72, 0
4, 113040, Note_on_c, 8, 69, 105
4, 113184, Note_on_c, 8, 69, 0
4, 113280, Note_on_c, 8, 72, 105
4, 113424, Note_on_c, 8, 72, 0
4, 113520, Note_on_c, 8, 69, 105
4, 113664, Note_on_c, 8, 69, 0
4, 113760, Note_on_c, 8, 66, 105
4, 113904, Note_on_c, 8, 66, 0
4, 114000, Note_on_c, 8, 69, 105
4, 114144, Note_on_c, 8, 69, 0
4, 114240, Note_on_c, 8, 62, 105
4, 114624, Note_on_c, 8, 62, 0
4, 115200, Note_on_c, 8, 67, 105
4, 115356, Note_on_c, 8, 67, 0
4, 115440, Note_on_c, 8, 67, 105
4, 115596, Note_on_c, 8, 67, 0
4, 115680, Note_on_c, 8, 67, 105
4, 115836, Note_on_c, 8, 67, 0
4, 115920, Note_on_c, 8, 67, 105
4, 116076, Note_on_c, 8, 67, 0
4, 116160, Note_on_c, 8, 67, 105
4, 116316, Note_on_c, 8, 67, 0
4, 116400, Note_on_c, 8, 67, 105
4, 116556, Note_on_c, 8, 67, 0
4, 116640, Note_on_c, 8, 67, 105
4, 116796, Note_on_c, 8, 67, 0
4, 116880, Note_on_c, 8, 67, 105
4, 117036, Note_on_c, 8, 67, 0
4, 117120, Note_on_c, 8, 69, 105
4, 117276, Note_on_c, 8, 69, 0
4, 117360, Note_on_c, 8, 69, 105
4, 117516, Note_on_c, 8, 69, 0
4, 117600, Note_on_c, 8, 69, 105
4, 117756, Note_on_c, 8, 69, 0
4, 117840, Note_on_c, 8, 69, 105
4, 117996, Note_on_c, 8, 69, 0
4, 118080, Note_on_c, 8, 69, 105
4, 118320, Note_on_c, 8, 69, 0
4, 118320, Note_on_c, 8, 72, 105
4, 118476, Note_on_c, 8, 72, 0
4, 118560, Note_on_c, 8, 66, 105
4, 118800, Note_on_c, 8, 66, 0
4, 118800, Note_on_c, 8, 69, 105
4, 118956, Note_on_c, 8, 69, 0
4, 119040, Note_on_c, 8, 67, 105
4, 119196, Note_on_c, 8, 67, 0
4, 119280, Note_on_c, 8, 67, 105
4, 119436, Note_on_c, 8, 67, 0
4, 119520, Note_on_c, 8, 67, 105
4, 119676, Note_on_c, 8, 67, 0
4, 119760, Note_on_c, 8, 67, 105
4, 119916, Note_on_c, 8, 67, 0
4, 120000, Note_on_c, 8, 67, 105
4, 120156, Note_on_c, 8, 67, 0
4, 120240, Note_on_c, 8, 67, 105
4, 120396, Note_on_c, 8, 67, 0
4, 120480, Note_on_c, 8, 67, 105
4, 120636, Note_on_c, 8, 67, 0
4, 120720, Note_on_c, 8, 67, 105
4, 120876, Note_on_c, 8, 67, 0
4, 120960, Note_on_c, 8, 69, 105
4, 121116, Note_on_c, 8, 69, 0
4, 121200, Note_on_c, 8, 69, 105
4, 121356, Note_on_c, 8, 69, 0
4, 121440, Note_on_c, 8, 69, 105
4, 121596, Note_on_c, 8, 69, 0
4, 121680, Note_on_c, 8, 69, 105
4, 121836, Note_on_c, 8, 69, 0
4, 121920, Note_on_c, 8, 69, 105
4, 122160, Note_on_c, 8, 69, 0
4, 122160, Note_on_c, 8, 72, 105
4, 122316, Note_on_c, 8, 72, 0
4, 122400, Note_on_c, 8, 66, 105
4, 122640, Note_on_c, 8, 66, 0
4, 122640, Note_on_c, 8, 69, 105
4, 122796, Note_on_c, 8, 69, 0
4, 122880, Note_on_c, 8, 62, 105
4, 122976, Note_on_c, 8, 62, 0
4, 123000, Note_on_c, 8, 62, 105
4, 123096, Note_on_c, 8, 62, 0
4, 123120, Note_on_c, 8, 62, 105
4, 123216, Note_on_c, 8, 62, 0
4, 123240, Note_on_c, 8, 62, 105
4, 123336, Note_on_c, 8, 62, 0
4, 123360, Note_on_c, 8, 62, 105
4, 123456, Note_on_c, 8, 62, 0
4, 123480, Note_on_c, 8, 62, 105
4, 123576, Note_on_c, 8, 62, 0
4, 123600, Note_on_c, 8, 62, 105
4, 123696, Note_on_c, 8, 62, 0
4, 123720, Note_on_c, 8, 62, 105
4, 123816, Note_on_c, 8, 62, 0
4, 123840, Note_on_c, 8, 62, 105
4, 123936, Note_on_c, 8, 62, 0
4, 123960, Note_on_c, 8, 62, 105
4, 124056, Note_on_c, 8, 62, 0
4, 124080, Note_on_c, 8, 62, 105
4, 124176, Note_on_c, 8, 62, 0
4, 124200, Note_on_c, 8, 62, 105
4, 124296, Note_on_c, 8, 62, 0
4, 124320, Note_on_c, 8, 62, 105
4, 124416, Note_on_c, 8, 62, 0
4, 124440, Note_on_c, 8, 62, 105
4, 124536, Note_on_c, 8, 62, 0
4, 124560, Note_on_c, 8, 62, 105
4, 124656, Note_on_c, 8, 62, 0
4, 124680, Note_on_c, 8, 62, 105
4, 124776, Note_on_c, 8, 62, 0
4, 124800, Note_on_c, 8, 62, 105
4, 124896, Note_on_c, 8, 62, 0
4, 124920, Note_on_c, 8, 62, 105
4, 125016, Note_on_c, 8, 62, 0
4, 125040, Note_on_c, 8, 62, 105
4, 125136, Note_on_c, 8, 62, 0
4, 125160, Note_on_c, 8, 62, 105
4, 125256, Note_on_c, 8, 62, 0
4, 125280, Note_on_c, 8, 62, 105
4, 125376, Note_on_c, 8, 62, 0
4, 125400, Note_on_c, 8, 62, 105
4, 125496, Note_on_c, 8, 62, 0
4, 125520, Note_on_c, 8, 62, 105
4, 125616, Note_on_c, 8, 62, 0
4, 125640, Note_on_c, 8, 62, 105
4, 125736, Note_on_c, 8, 62, 0
4, 125760, Note_on_c, 8, 62, 92
4, 126144, Note_on_c, 8, 62, 0
4, 128640, Note_on_c, 8, 54, 58
4, 129600, Note_on_c, 8, 54, 0
4, 129600, Note_on_c, 8, 55, 58
4, 130368, Note_on_c, 8, 55, 0
4, 130560, Note_on_c, 8, 60, 58
4, 130872, Note_on_c, 8, 60, 0
4, 131040, Note_on_c, 8, 60, 58
4, 131352, Note_on_c, 8, 60, 0
4, 131520, Note_on_c, 8, 57, 58
4, 131832, Note_on_c, 8, 57, 0
4, 132000, Note_on_c, 8, 50, 58
4, 132312, Note_on_c, 8, 50, 0
4, 132480, Note_on_c, 8, 50, 58
4, 132672, Note_on_c, 8, 50, 0
4, 132960, Note_on_c, 8, 62, 58
4, 133152, Note_on_c, 8, 62, 0
4, 133440, Note_on_c, 8, 62, 58
4, 133824, Note_on_c, 8, 62, 0
4, 136320, Note_on_c, 8, 66, 58
4, 137280, Note_on_c, 8, 66, 0
4, 137280, Note_on_c, 8, 67, 58
4, 138048, Note_on_c, 8, 67, 0
4, 138240, Note_on_c, 8, 60, 58
4, 138552, Note_on_c, 8, 60, 0
4, 138720, Note_on_c, 8, 60, 58
4, 138876, Note_on_c, 8, 60, 0
4, 138960, Note_on_c, 8, 60, 58
4, 139116, Note_on_c, 8, 60, 0
4, 139200, Note_on_c, 8, 57, 58
4, 139512, Note_on_c, 8, 57, 0
4, 139680, Note_on_c, 8, 57, 58
4, 139836, Note_on_c, 8, 57, 0
4, 139920, Note_on_c, 8, 57, 58
4, 140076, Note_on_c, 8, 57, 0
4, 140160, Note_on_c, 8, 55, 112
4, 140352, Note_on_c, 8, 55, 0
4, 140400, Note_on_c, 8, 55, 92
4, 140592, Note_on_c, 8, 55, 0
4, 140640, Note_on_c, 8, 55, 92
4, 140832, Note_on_c, 8, 55, 0
4, 140880, Note_on_c, 8, 55, 92
4, 141072, Note_on_c, 8, 55, 0
4, 141120, Note_on_c, 8, 55, 72
4, 141312, Note_on_c, 8, 55, 0
4, 141360, Note_on_c, 8, 55, 72
4, 141552, Note_on_c, 8, 55, 0
4, 141600, Note_on_c, 8, 55, 72
4, 141792, Note_on_c, 8, 55, 0
4, 141840, Note_on_c, 8, 55, 72
4, 142032, Note_on_c, 8, 55, 0
4, 142080, Note_on_c, 8, 55, 112
4, 142272, Note_on_c, 8, 55, 0
4, 142320, Note_on_c, 8, 55, 92
4, 142512, Note_on_c, 8, 55, 0
4, 142560, Note_on_c, 8, 55, 92
4, 142752, Note_on_c, 8, 55, 0
4, 142800, Note_on_c, 8, 55, 92
4, 142992, Note_on_c, 8, 55, 0
4, 143040, Note_on_c, 8, 55, 72
4, 143232, Note_on_c, 8, 55, 0
4, 143280, Note_on_c, 8, 55, 72
4, 143472, Note_on_c, 8, 55, 0
4, 143520, Note_on_c, 8, 55, 72
4, 143712, Note_on_c, 8, 55, 0
4, 143760, Note_on_c, 8, 55, 72
4, 143952, Note_on_c, 8, 55, 0
4, 144000, Note_on_c, 8, 55, 72
4, 144144, Note_on_c, 8, 55, 0
4, 144240, Note_on_c, 8, 67, 72
4, 144384, Note_on_c, 8, 67, 0
4, 144480, Note_on_c, 8, 67, 72
4, 144624, Note_on_c, 8, 67, 0
4, 144720, Note_on_c, 8, 67, 72
4, 144864, Note_on_c, 8, 67, 0
4, 144960, Note_on_c, 8, 67, 81
4, 145104, Note_on_c, 8, 67, 0
4, 145200, Note_on_c, 8, 67, 81
4, 145344, Note_on_c, 8, 67, 0
4, 145440, Note_on_c, 8, 69, 81
4, 145584, Note_on_c, 8, 69, 0
4, 145680, Note_on_c, 8, 69, 81
4, 145824, Note_on_c, 8, 69, 0
4, 145920, Note_on_c, 8, 67, 92
4, 146064, Note_on_c, 8, 67, 0
4, 146160, Note_on_c, 8, 67, 92
4, 146304, Note_on_c, 8, 67, 0
4, 146400, Note_on_c, 8, 66, 92
4, 146544, Note_on_c, 8, 66, 0
4, 146640, Note_on_c, 8, 66, 92
4, 146784, Note_on_c, 8, 66, 0
4, 146880, Note_on_c, 8, 67, 105
4, 147024, Note_on_c, 8, 67, 0
4, 147120, Note_on_c, 8, 67, 105
4, 147264, Note_on_c, 8, 67, 0
4, 147360, Note_on_c, 8, 64, 105
4, 147504, Note_on_c, 8, 64, 0
4, 147600, Note_on_c, 8, 64, 105
4, 147744, Note_on_c, 8, 64, 0
4, 147840, Note_on_c, 8, 69, 105
4, 147840, Note_on_c, 8, 62, 105
4, 147936, Note_on_c, 8, 62, 0
4, 147936, Note_on_c, 8, 69, 0
4, 147960, Note_on_c, 8, 69, 105
4, 147960, Note_on_c, 8, 62, 105
4, 148056, Note_on_c, 8, 62, 0
4, 148056, Note_on_c, 8, 69, 0
4, 148080, Note_on_c, 8, 62, 105
4, 148080, Note_on_c, 8, 69, 105
4, 148176, Note_on_c, 8, 69, 0
4, 148176, Note_on_c, 8, 62, 0
4, 148200, Note_on_c, 8, 69, 105
4, 148200, Note_on_c, 8, 62, 105
4, 148296, Note_on_c, 8, 62, 0
4, 148296, Note_on_c, 8, 69, 0
4, 148320, Note_on_c, 8, 62, 105
4, 148320, Note_on_c, 8, 69, 105
4, 148416, Note_on_c, 8, 69, 0
4, 148416, Note_on_c, 8, 62, 0
4, 148440, Note_on_c, 8, 62, 105
4, 148440, Note_on_c, 8, 69, 105
4, 148536, Note_on_c, 8, 69, 0
4, 148536, Note_on_c, 8, 62, 0
4, 148560, Note_on_c, 8, 62, 105
4, 148560, Note_on_c, 8, 69, 105
4, 148656, Note_on_c, 8, 69, 0
4, 148656, Note_on_c, 8, 62, 0
4, 148680, Note_on_c, 8, 69, 105
4, 148680, Note_on_c, 8, 62, 105
4, 148776, Note_on_c, 8, 62, 0
4, 148776, Note_on_c, 8, 69, 0
4, 148800, Note_on_c, 8, 69, 105
4, 148800, Note_on_c, 8, 64, 105
4, 148896, Note_on_c, 8, 64, 0
4, 148896, Note_on_c, 8, 69, 0
4, 148920, Note_on_c, 8, 69, 105
4, 148920, Note_on_c, 8, 64, 105
4, 149016, Note_on_c, 8, 64, 0
4, 149016, Note_on_c, 8, 69, 0
4, 149040, Note_on_c, 8, 64, 105
4, 149040, Note_on_c, 8, 69, 105
4, 149136, Note_on_c, 8, 69, 0
4, 149136, Note_on_c, 8, 64, 0
4, 149160, Note_on_c, 8, 64, 105
4, 149160, Note_on_c, 8, 69, 105
4, 149256, Note_on_c, 8, 69, 0
4, 149256, Note_on_c, 8, 64, 0
4, 149280, Note_on_c, 8, 69, 105
4, 149280, Note_on_c, 8, 64, 105
4, 149376, Note_on_c, 8, 64, 0
4, 149376, Note_on_c, 8, 69, 0
4, 149400, Note_on_c, 8, 69, 105
4, 149400, Note_on_c, 8, 64, 105
4, 149496, Note_on_c, 8, 64, 0
4, 149496, Note_on_c, 8, 69, 0
4, 149520, Note_on_c, 8, 69, 105
4, 149520, Note_on_c, 8, 64, 105
4, 149616, Note_on_c, 8, 64, 0
4, 149616, Note_on_c, 8, 69, 0
4, 149640, Note_on_c, 8, 69, 105
4, 149640, Note_on_c, 8, 64, 105
4, 149736, Note_on_c, 8, 64, 0
4, 149736, Note_on_c, 8, 69, 0
4, 149760, Note_on_c, 8, 69, 105
4, 149760, Note_on_c, 8, 62, 105
4, 149856, Note_on_c, 8, 62, 0
4, 149856, Note_on_c, 8, 69, 0
4, 149880, Note_on_c, 8, 62, 105
4, 149880, Note_on_c, 8, 69, 105
4, 149976, Note_on_c, 8, 69, 0
4, 149976, Note_on_c, 8, 62, 0
4, 150000, Note_on_c, 8, 62, 105
4, 150000, Note_on_c, 8, 69, 105
4, 150096, Note_on_c, 8, 69, 0
4, 150096, Note_on_c, 8, 62, 0
4, 150120, Note_on_c, 8, 69, 105
4, 150120, Note_on_c, 8, 62, 105
4, 150216, Note_on_c, 8, 62, 0
4, 150216, Note_on_c, 8, 69, 0
4, 150240, Note_on_c, 8, 62, 105
4, 150240, Note_on_c, 8, 69, 105
4, 150336, Note_on_c, 8, 69, 0
4, 150336, Note_on_c, 8, 62, 0
4, 150360, Note_on_c, 8, 62, 105
4, 150360, Note_on_c, 8, 69, 105
4, 150456, Note_on_c, 8, 69, 0
4, 150456, Note_on_c, 8, 62, 0
4, 150480, Note_on_c, 8, 69, 105
4, 150480, Note_on_c, 8, 62, 105
4, 150576, Note_on_c, 8, 62, 0
4, 150576, Note_on_c, 8, 69, 0
4, 150600, Note_on_c, 8, 62, 105
4, 150600, Note_on_c, 8, 69, 105
4, 150696, Note_on_c, 8, 69, 0
4, 150696, Note_on_c, 8, 62, 0
4, 150720, Note_on_c, 8, 69, 105
4, 150720, Note_on_c, 8, 64, 105
4, 150816, Note_on_c, 8, 64, 0
4, 150816, Note_on_c, 8, 69, 0
4, 150840, Note_on_c, 8, 64, 105
4, 150840, Note_on_c, 8, 69, 105
4, 150936, Note_on_c, 8, 69, 0
4, 150936, Note_on_c, 8, 64, 0
4, 150960, Note_on_c, 8, 64, 105
4, 150960, Note_on_c, 8, 69, 105
4, 151056, Note_on_c, 8, 69, 0
4, 151056, Note_on_c, 8, 64, 0
4, 151080, Note_on_c, 8, 69, 105
4, 151080, Note_on_c, 8, 64, 105
4, 151176, Note_on_c, 8, 64, 0
4, 151176, Note_on_c, 8, 69, 0
4, 151200, Note_on_c, 8, 64, 105
4, 151200, Note_on_c, 8, 69, 105
4, 151296, Note_on_c, 8, 69, 0
4, 151296, Note_on_c, 8, 64, 0
4, 151320, Note_on_c, 8, 64, 105
4, 151320, Note_on_c, 8, 69, 105
4, 151416, Note_on_c, 8, 69, 0
4, 151416, Note_on_c, 8, 64, 0
4, 151440, Note_on_c, 8, 69, 105
4, 151440, Note_on_c, 8, 64, 105
4, 151536, Note_on_c, 8, 64, 0
4, 151536, Note_on_c, 8, 69, 0
4, 151560, Note_on_c, 8, 69, 105
4, 151560, Note_on_c, 8, 64, 105
4, 151656, Note_on_c, 8, 64, 0
4, 151656, Note_on_c, 8, 69, 0
4, 151680, Note_on_c, 8, 66, 105
4, 151836, Note_on_c, 8, 66, 0
4, 151920, Note_on_c, 8, 67, 105
4, 152076, Note_on_c, 8, 67, 0
4, 152160, Note_on_c, 8, 69, 105
4, 152316, Note_on_c, 8, 69, 0
4, 152400, Note_on_c, 8, 67, 105
4, 152556, Note_on_c, 8, 67, 0
4, 152640, Note_on_c, 8, 66, 105
4, 152796, Note_on_c, 8, 66, 0
4, 152880, Note_on_c, 8, 67, 105
4, 153036, Note_on_c, 8, 67, 0
4, 153120, Note_on_c, 8, 69, 105
4, 153276, Note_on_c, 8, 69, 0
4, 153360, Note_on_c, 8, 66, 105
4, 153516, Note_on_c, 8, 66, 0
4, 153600, Note_on_c, 8, 71, 105
4, 153756, Note_on_c, 8, 71, 0
4, 153840, Note_on_c, 8, 69, 105
4, 153996, Note_on_c, 8, 69, 0
4, 154080, Note_on_c, 8, 67, 105
4, 154236, Note_on_c, 8, 67, 0
4, 154320, Note_on_c, 8, 69, 105
4, 154476, Note_on_c, 8, 69, 0
4, 154560, Note_on_c, 8, 71, 105
4, 154716, Note_on_c, 8, 71, 0
4, 154800, Note_on_c, 8, 69, 105
4, 154956, Note_on_c, 8, 69, 0
4, 155040, Note_on_c, 8, 68, 105
4, 155196, Note_on_c, 8, 68, 0
4, 155280, Note_on_c, 8, 71, 105
4, 155436, Note_on_c, 8, 71, 0
4, 155520, Note_on_c, 8, 69, 105
4, 155676, Note_on_c, 8, 69, 0
4, 155760, Note_on_c, 8, 69, 105
4, 155916, Note_on_c, 8, 69, 0
4, 156000, Note_on_c, 8, 69, 105
4, 156156, Note_on_c, 8, 69, 0
4, 156240, Note_on_c, 8, 69, 105
4, 156396, Note_on_c, 8, 69, 0
4, 156480, Note_on_c, 8, 69, 105
4, 156636, Note_on_c, 8, 69, 0
4, 156720, Note_on_c, 8, 69, 105
4, 156876, Note_on_c, 8, 69, 0
4, 156960, Note_on_c, 8, 69, 105
4, 157116, Note_on_c, 8, 69, 0
4, 157200, Note_on_c, 8, 69, 105
4, 157356, Note_on_c, 8, 69, 0
4, 157440, Note_on_c, 8, 69, 105
4, 157596, Note_on_c, 8, 69, 0
4, 157680, Note_on_c, 8, 57, 105
4, 157836, Note_on_c, 8, 57, 0
4, 157920, Note_on_c, 8, 57, 105
4, 158076, Note_on_c, 8, 57, 0
4, 158160, Note_on_c, 8, 57, 105
4, 158316, Note_on_c, 8, 57, 0
4, 158400, Note_on_c, 8, 57, 92
4, 158784, Note_on_c, 8, 57, 0
4, 160800, Note_on_c, 8, 66, 58
4, 160992, Note_on_c, 8, 66, 0
4, 161280, Note_on_c, 8, 59, 58
4, 161472, Note_on_c, 8, 59, 0
4, 161760, Note_on_c, 8, 67, 58
4, 161952, Note_on_c, 8, 67, 0
4, 162240, Note_on_c, 8, 64, 58
4, 162432, Note_on_c, 8, 64, 0
4, 162720, Note_on_c, 8, 61, 58
4, 162912, Note_on_c, 8, 61, 0
4, 163680, Note_on_c, 8, 64, 58
4, 164160, Note_on_c, 8, 64, 0
4, 164160, Note_on_c, 8, 62, 58
4, 164352, Note_on_c, 8, 62, 0
4, 164640, Note_on_c, 8, 64, 58
4, 164832, Note_on_c, 8, 64, 0
4, 165120, Note_on_c, 8, 62, 58
4, 166080, Note_on_c, 8, 62, 0
4, 166080, Note_on_c, 8, 61, 58
4, 166464, Note_on_c, 8, 61, 0
4, 167520, Note_on_c, 8, 61, 58
4, 168000, Note_on_c, 8, 61, 0
4, 168000, Note_on_c, 8, 62, 58
4, 168192, Note_on_c, 8, 62, 0
4, 168480, Note_on_c, 8, 66, 58
4, 168672, Note_on_c, 8, 66, 0
4, 168960, Note_on_c, 8, 59, 58
4, 169152, Note_on_c, 8, 59, 0
4, 169440, Note_on_c, 8, 55, 58
4, 169632, Note_on_c, 8, 55, 0
4, 169920, Note_on_c, 8, 52, 58
4, 170304, Note_on_c, 8, 52, 0
4, 170640, Note_on_c, 8, 64, 58
4, 170832, Note_on_c, 8, 64, 0
4, 170880, Note_on_c, 8, 64, 72
4, 171120, Note_on_c, 8, 64, 0
4, 171120, Note_on_c, 8, 62, 72
4, 171312, Note_on_c, 8, 62, 0
4, 172800, Note_on_c, 8, 62, 58
4, 172956, Note_on_c, 8, 62, 0
4, 173040, Note_on_c, 8, 62, 58
4, 173196, Note_on_c, 8, 62, 0
4, 173280, Note_on_c, 8, 64, 58
4, 173436, Note_on_c, 8, 64, 0
4, 173520, Note_on_c, 8, 64, 58
4, 173676, Note_on_c, 8, 64, 0
4, 173760, Note_on_c, 8, 66, 58
4, 173916, Note_on_c, 8, 66, 0
4, 174000, Note_on_c, 8, 66, 58
4, 174156, Note_on_c, 8, 66, 0
4, 174240, Note_on_c, 8, 62, 58
4, 174396, Note_on_c, 8, 62, 0
4, 174480, Note_on_c, 8, 62, 58
4, 174636, Note_on_c, 8, 62, 0
4, 174720, Note_on_c, 8, 61, 58
4, 174876, Note_on_c, 8, 61, 0
4, 174960, Note_on_c, 8, 61, 58
4, 175116, Note_on_c, 8, 61, 0
4, 175200, Note_on_c, 8, 62, 58
4, 175356, Note_on_c, 8, 62, 0
4, 175440, Note_on_c, 8, 62, 58
4, 175596, Note_on_c, 8, 62, 0
4, 175680, Note_on_c, 8, 64, 58
4, 175836, Note_on_c, 8, 64, 0
4, 175920, Note_on_c, 8, 64, 58
4, 176076, Note_on_c, 8, 64, 0
4, 176160, Note_on_c, 8, 61, 58
4, 176316, Note_on_c, 8, 61, 0
4, 176400, Note_on_c, 8, 61, 58
4, 176556, Note_on_c, 8, 61, 0
4, 176640, Note_on_c, 8, 62, 58
4, 176796, Note_on_c, 8, 62, 0
4, 176880, Note_on_c, 8, 62, 58
4, 177036, Note_on_c, 8, 62, 0
4, 177120, Note_on_c, 8, 64, 58
4, 177276, Note_on_c, 8, 64, 0
4, 177360, Note_on_c, 8, 64, 58
4, 177516, Note_on_c, 8, 64, 0
4, 177600, Note_on_c, 8, 66, 58
4, 177756, Note_on_c, 8, 66, 0
4, 177840, Note_on_c, 8, 66, 58
4, 177996, Note_on_c, 8, 66, 0
4, 178080, Note_on_c, 8, 62, 58
4, 178236, Note_on_c, 8, 62, 0
4, 178320, Note_on_c, 8, 62, 58
4, 178476, Note_on_c, 8, 62, 0
4, 178560, Note_on_c, 8, 61, 58
4, 178716, Note_on_c, 8, 61, 0
4, 178800, Note_on_c, 8, 61, 58
4, 178956, Note_on_c, 8, 61, 0
4, 179040, Note_on_c, 8, 62, 58
4, 179196, Note_on_c, 8, 62, 0
4, 179280, Note_on_c, 8, 62, 58
4, 179436, Note_on_c, 8, 62, 0
4, 179520, Note_on_c, 8, 64, 58
4, 179676, Note_on_c, 8, 64, 0
4, 179760, Note_on_c, 8, 64, 58
4, 179916, Note_on_c, 8, 64, 0
4, 180000, Note_on_c, 8, 61, 58
4, 180156, Note_on_c, 8, 61, 0
4, 180240, Note_on_c, 8, 61, 58
4, 180396, Note_on_c, 8, 61, 0
4, 180480, Note_on_c, 8, 62, 58
4, 180636, Note_on_c, 8, 62, 0
4, 180720, Note_on_c, 8, 62, 105
4, 180876, Note_on_c, 8, 62, 0
4, 180960, Note_on_c, 8, 66, 105
4, 181116, Note_on_c, 8, 66, 0
4, 181200, Note_on_c, 8, 64, 105
4, 181356, Note_on_c, 8, 64, 0
4, 181440, Note_on_c, 8, 63, 105
4, 181596, Note_on_c, 8, 63, 0
4, 181680, Note_on_c, 8, 59, 105
4, 181836, Note_on_c, 8, 59, 0
4, 181920, Note_on_c, 8, 61, 105
4, 182076, Note_on_c, 8, 61, 0
4, 182160, Note_on_c, 8, 63, 105
4, 182316, Note_on_c, 8, 63, 0
4, 182400, Note_on_c, 8, 64, 105
4, 182556, Note_on_c, 8, 64, 0
4, 182640, Note_on_c, 8, 67, 105
4, 182796, Note_on_c, 8, 67, 0
4, 182880, Note_on_c, 8, 64, 105
4, 183036, Note_on_c, 8, 64, 0
4, 183120, Note_on_c, 8, 62, 105
4, 183276, Note_on_c, 8, 62, 0
4, 183360, Note_on_c, 8, 61, 105
4, 183516, Note_on_c, 8, 61, 0
4, 183600, Note_on_c, 8, 57, 105
4, 183756, Note_on_c, 8, 57, 0
4, 183840, Note_on_c, 8, 59, 105
4, 183996, Note_on_c, 8, 59, 0
4, 184080, Note_on_c, 8, 61, 105
4, 184236, Note_on_c, 8, 61, 0
4, 184320, Note_on_c, 8, 62, 105
4, 184476, Note_on_c, 8, 62, 0
4, 184560, Note_on_c, 8, 74, 105
4, 184716, Note_on_c, 8, 74, 0
4, 184800, Note_on_c, 8, 74, 105
4, 184956, Note_on_c, 8, 74, 0
4, 185040, Note_on_c, 8, 74, 105
4, 185196, Note_on_c, 8, 74, 0
4, 185280, Note_on_c, 8, 74, 105
4, 185436, Note_on_c, 8, 74, 0
4, 185520, Note_on_c, 8, 74, 105
4, 185676, Note_on_c, 8, 74, 0
4, 185760, Note_on_c, 8, 74, 105
4, 185916, Note_on_c, 8, 74, 0
4, 186000, Note_on_c, 8, 74, 105
4, 186156, Note_on_c, 8, 74, 0
4, 186240, Note_on_c, 8, 74, 105
4, 186480, Note_on_c, 8, 74, 0
4, 186480, Note_on_c, 8, 69, 105
4, 186636, Note_on_c, 8, 69, 0
4, 186720, Note_on_c, 8, 69, 105
4, 186876, Note_on_c, 8, 69, 0
4, 186960, Note_on_c, 8, 69, 105
4, 187116, Note_on_c, 8, 69, 0
4, 187200, Note_on_c, 8, 69, 105
4, 187356, Note_on_c, 8, 69, 0
4, 187440, Note_on_c, 8, 69, 105
4, 187596, Note_on_c, 8, 69, 0
4, 187680, Note_on_c, 8, 69, 105
4, 187836, Note_on_c, 8, 69, 0
4, 187920, Note_on_c, 8, 67, 105
4, 188076, Note_on_c, 8, 67, 0
4, 188160, Note_on_c, 8, 66, 92
4, 188316, Note_on_c, 8, 66, 0
4, 188400, Note_on_c, 8, 62, 58
4, 188556, Note_on_c, 8, 62, 0
4, 188640, Note_on_c, 8, 64, 58
4, 188796, Note_on_c, 8, 64, 0
4, 188880, Note_on_c, 8, 64, 58
4, 189036, Note_on_c, 8, 64, 0
4, 189120, Note_on_c, 8, 66, 58
4, 189276, Note_on_c, 8, 66, 0
4, 189360, Note_on_c, 8, 66, 58
4, 189516, Note_on_c, 8, 66, 0
4, 189600, Note_on_c, 8, 62, 58
4, 189756, Note_on_c, 8, 62, 0
4, 189840, Note_on_c, 8, 62, 58
4, 189996, Note_on_c, 8, 62, 0
4, 190080, Note_on_c, 8, 61, 58
4, 190236, Note_on_c, 8, 61, 0
4, 190320, Note_on_c, 8, 61, 58
4, 190476, Note_on_c, 8, 61, 0
4, 190560, Note_on_c, 8, 62, 58
4, 190716, Note_on_c, 8, 62, 0
4, 190800, Note_on_c, 8, 62, 58
4, 190956, Note_on_c, 8, 62, 0
4, 191040, Note_on_c, 8, 64, 58
4, 191196, Note_on_c, 8, 64, 0
4, 191280, Note_on_c, 8, 64, 58
4, 191436, Note_on_c, 8, 64, 0
4, 191520, Note_on_c, 8, 61, 58
4, 191676, Note_on_c, 8, 61, 0
4, 191760, Note_on_c, 8, 61, 58
4, 191916, Note_on_c, 8, 61, 0
4, 192000, Note_on_c, 8, 62, 58
4, 192156, Note_on_c, 8, 62, 0
4, 192240, Note_on_c, 8, 62, 58
4, 192396, Note_on_c, 8, 62, 0
4, 192480, Note_on_c, 8, 64, 58
4, 192636, Note_on_c, 8, 64, 0
4, 192720, Note_on_c, 8, 64, 58
4, 192876, Note_on_c, 8, 64, 0
4, 192960, Note_on_c, 8, 66, 58
4, 193116, Note_on_c, 8, 66, 0
4, 193200, Note_on_c, 8, 66, 58
4, 193356, Note_on_c, 8, 66, 0
4, 193440, Note_on_c, 8, 62, 58
4, 193596, Note_on_c, 8, 62, 0
4, 193680, Note_on_c, 8, 62, 58
4, 193836, Note_on_c, 8, 62, 0
4, 193920, Note_on_c, 8, 61, 58
4, 194076, Note_on_c, 8, 61, 0
4, 194160, Note_on_c, 8, 61, 58
4, 194316, Note_on_c, 8, 61, 0
4, 194400, Note_on_c, 8, 62, 58
4, 194556, Note_on_c, 8, 62, 0
4, 194640, Note_on_c, 8, 62, 58
4, 194796, Note_on_c, 8, 62, 0
4, 194880, Note_on_c, 8, 64, 58
4, 195036, Note_on_c, 8, 64, 0
4, 195120, Note_on_c, 8, 64, 58
4, 195276, Note_on_c, 8, 64, 0
4, 195360, Note_on_c, 8, 61, 58
4, 195516, Note_on_c, 8, 61, 0
4, 195600, Note_on_c, 8, 61, 58
4, 195756, Note_on_c, 8, 61, 0
4, 195840, Note_on_c, 8, 62, 58
4, 195996, Note_on_c, 8, 62, 0
4, 196080, Note_on_c, 8, 62, 105
4, 196236, Note_on_c, 8, 62, 0
4, 196320, Note_on_c, 8, 66, 105
4, 196476, Note_on_c, 8, 66, 0
4, 196560, Note_on_c, 8, 64, 105
4, 196716, Note_on_c, 8, 64, 0
4, 196800, Note_on_c, 8, 63, 105
4, 196956, Note_on_c, 8, 63, 0
4, 197040, Note_on_c, 8, 59, 105
4, 197196, Note_on_c, 8, 59, 0
4, 197280, Note_on_c, 8, 61, 105
4, 197436, Note_on_c, 8, 61, 0
4, 197520, Note_on_c, 8, 63, 105
4, 197676, Note_on_c, 8, 63, 0
4, 197760, Note_on_c, 8, 64, 105
4, 197916, Note_on_c, 8, 64, 0
4, 198000, Note_on_c, 8, 67, 105
4, 198156, Note_on_c, 8, 67, 0
4, 198240, Note_on_c, 8, 64, 105
4, 198396, Note_on_c, 8, 64, 0
4, 198480, Note_on_c, 8, 62, 105
4, 198636, Note_on_c, 8, 62, 0
4, 198720, Note_on_c, 8, 61, 105
4, 198876, Note_on_c, 8, 61, 0
4, 198960, Note_on_c, 8, 57, 105
4, 199116, Note_on_c, 8, 57, 0
4, 199200, Note_on_c, 8, 59, 105
4, 199356, Note_on_c, 8, 59, 0
4, 199440, Note_on_c, 8, 61, 105
4, 199596, Note_on_c, 8, 61, 0
4, 199680, Note_on_c, 8, 62, 105
4, 199836, Note_on_c, 8, 62, 0
4, 199920, Note_on_c, 8, 74, 105
4, 200076, Note_on_c, 8, 74, 0
4, 200160, Note_on_c, 8, 74, 105
4, 200316, Note_on_c, 8, 74, 0
4, 200400, Note_on_c, 8, 74, 105
4, 200556, Note_on_c, 8, 74, 0
4, 200640, Note_on_c, 8, 74, 105
4, 200796, Note_on_c, 8, 74, 0
4, 200880, Note_on_c, 8, 74, 105
4, 201036, Note_on_c, 8, 74, 0
4, 201120, Note_on_c, 8, 74, 105
4, 201276, Note_on_c, 8, 74, 0
4, 201360, Note_on_c, 8, 74, 105
4, 201516, Note_on_c, 8, 74, 0
4, 201600, Note_on_c, 8, 74, 105
4, 201840, Note_on_c, 8, 74, 0
4, 201840, Note_on_c, 8, 69, 105
4, 201996, Note_on_c, 8, 69, 0
4, 202080, Note_on_c, 8, 69, 105
4, 202236, Note_on_c, 8, 69, 0
4, 202320, Note_on_c, 8, 69, 105
4, 202476, Note_on_c, 8, 69, 0
4, 202560, Note_on_c, 8, 69, 105
4, 202716, Note_on_c, 8, 69, 0
4, 202800, Note_on_c, 8, 69, 105
4, 202956, Note_on_c, 8, 69, 0
4, 203040, Note_on_c, 8, 69, 105
4, 203196, Note_on_c, 8, 69, 0
4, 203280, Note_on_c, 8, 67, 105
4, 203436, Note_on_c, 8, 67, 0
4, 203520, Note_on_c, 8, 66, 105
4, 203676, Note_on_c, 8, 66, 0
4, 203760, Note_on_c, 8, 57, 105
4, 203916, Note_on_c, 8, 57, 0
4, 204000, Note_on_c, 8, 59, 105
4, 204156, Note_on_c, 8, 59, 0
4, 204240, Note_on_c, 8, 61, 105
4, 204396, Note_on_c, 8, 61, 0
4, 204480, Note_on_c, 8, 62, 105
4, 204636, Note_on_c, 8, 62, 0
4, 204720, Note_on_c, 8, 62, 105
4, 204876, Note_on_c, 8, 62, 0
4, 204960, Note_on_c, 8, 64, 105
4, 205116, Note_on_c, 8, 64, 0
4, 205200, Note_on_c, 8, 64, 105
4, 205356, Note_on_c, 8, 64, 0
4, 205440, Note_on_c, 8, 66, 105
4, 205596, Note_on_c, 8, 66, 0
4, 205680, Note_on_c, 8, 61, 105
4, 205836, Note_on_c, 8, 61, 0
4, 205920, Note_on_c, 8, 62, 105
4, 206076, Note_on_c, 8, 62, 0
4, 206160, Note_on_c, 8, 64, 105
4, 206316, Note_on_c, 8, 64, 0
4, 206400, Note_on_c, 8, 66, 105
4, 206556, Note_on_c, 8, 66, 0
4, 206640, Note_on_c, 8, 66, 105
4, 206796, Note_on_c, 8, 66, 0
4, 206880, Note_on_c, 8, 67, 105
4, 207036, Note_on_c, 8, 67, 0
4, 207120, Note_on_c, 8, 67, 105
4, 207276, Note_on_c, 8, 67, 0
4, 207360, Note_on_c, 8, 69, 105
4, 207516, Note_on_c, 8, 69, 0
4, 207600, Note_on_c, 8, 69, 105
4, 207756, Note_on_c, 8, 69, 0
4, 207840, Note_on_c, 8, 70, 105
4, 207996, Note_on_c, 8, 70, 0
4, 208080, Note_on_c, 8, 70, 105
4, 208236, Note_on_c, 8, 70, 0
4, 208320, Note_on_c, 8, 71, 92
4, 208704, Note_on_c, 8, 71, 0
4, 209280, Note_on_c, 8, 64, 58
4, 210720, Note_on_c, 8, 64, 0
4, 210720, Note_on_c, 8, 62, 58
4, 210960, Note_on_c, 8, 62, 0
4, 210960, Note_on_c, 8, 61, 58
4, 211152, Note_on_c, 8, 61, 0
4, 211200, Note_on_c, 8, 62, 58
4, 211392, Note_on_c, 8, 62, 0
4, 211680, Note_on_c, 8, 62, 58
4, 211872, Note_on_c, 8, 62, 0
4, 212160, Note_on_c, 8, 62, 58
4, 212352, Note_on_c, 8, 62, 0
4, 213120, Note_on_c, 8, 62, 105
4, 213504, Note_on_c, 8, 62, 0
4, 213840, Note_on_c, 8, 57, 105
4, 213984, Note_on_c, 8, 57, 0
4, 214080, Note_on_c, 8, 62, 105
4, 214464, Note_on_c, 8, 62, 0
4, 214800, Note_on_c, 8, 57, 105
4, 214944, Note_on_c, 8, 57, 0
4, 215040, Note_on_c, 8, 62, 105
4, 215196, Note_on_c, 8, 62, 0
4, 215280, Note_on_c, 8, 57, 105
4, 215436, Note_on_c, 8, 57, 0
4, 215520, Note_on_c, 8, 62, 105
4, 215676, Note_on_c, 8, 62, 0
4, 215760, Note_on_c, 8, 66, 105
4, 215916, Note_on_c, 8, 66, 0
4, 216000, Note_on_c, 8, 69, 105
4, 216384, Note_on_c, 8, 69, 0
4, 216960, Note_on_c, 8, 69, 105
4, 217344, Note_on_c, 8, 69, 0
4, 217680, Note_on_c, 8, 66, 105
4, 217824, Note_on_c, 8, 66, 0
4, 217920, Note_on_c, 8, 69, 105
4, 218304, Note_on_c, 8, 69, 0
4, 218640, Note_on_c, 8, 66, 105
4, 218784, Note_on_c, 8, 66, 0
4, 218880, Note_on_c, 8, 69, 105
4, 219036, Note_on_c, 8, 69, 0
4, 219120, Note_on_c, 8, 66, 105
4, 219276, Note_on_c, 8, 66, 0
4, 219360, Note_on_c, 8, 63, 105
4, 219516, Note_on_c, 8, 63, 0
4, 219600, Note_on_c, 8, 66, 105
4, 219756, Note_on_c, 8, 66, 0
4, 219840, Note_on_c, 8, 59, 105
4, 220224, Note_on_c, 8, 59, 0
4, 220800, Note_on_c, 8, 60, 58
4, 220944, Note_on_c, 8, 60, 0
4, 221040, Note_on_c, 8, 60, 58
4, 221184, Note_on_c, 8, 60, 0
4, 221280, Note_on_c, 8, 62, 58
4, 221424, Note_on_c, 8, 62, 0
4, 221520, Note_on_c, 8, 62, 58
4, 221664, Note_on_c, 8, 62, 0
4, 221760, Note_on_c, 8, 64, 58
4, 221904, Note_on_c, 8, 64, 0
4, 222000, Note_on_c, 8, 64, 58
4, 222144, Note_on_c, 8, 64, 0
4, 222240, Note_on_c, 8, 60, 58
4, 222384, Note_on_c, 8, 60, 0
4, 222480, Note_on_c, 8, 60, 58
4, 222624, Note_on_c, 8, 60, 0
4, 222720, Note_on_c, 8, 59, 58
4, 222864, Note_on_c, 8, 59, 0
4, 222960, Note_on_c, 8, 59, 58
4, 223104, Note_on_c, 8, 59, 0
4, 223200, Note_on_c, 8, 60, 58
4, 223344, Note_on_c, 8, 60, 0
4, 223440, Note_on_c, 8, 60, 58
4, 223584, Note_on_c, 8, 60, 0
4, 223680, Note_on_c, 8, 62, 58
4, 223824, Note_on_c, 8, 62, 0
4, 223920, Note_on_c, 8, 62, 58
4, 224064, Note_on_c, 8, 62, 0
4, 224160, Note_on_c, 8, 59, 58
4, 224304, Note_on_c, 8, 59, 0
4, 224400, Note_on_c, 8, 59, 58
4, 224544, Note_on_c, 8, 59, 0
4, 224640, Note_on_c, 8, 60, 58
4, 224784, Note_on_c, 8, 60, 0
4, 224880, Note_on_c, 8, 60, 58
4, 225024, Note_on_c, 8, 60, 0
4, 225120, Note_on_c, 8, 62, 58
4, 225264, Note_on_c, 8, 62, 0
4, 225360, Note_on_c, 8, 62, 58
4, 225504, Note_on_c, 8, 62, 0
4, 225600, Note_on_c, 8, 64, 58
4, 225744, Note_on_c, 8, 64, 0
4, 225840, Note_on_c, 8, 64, 58
4, 225984, Note_on_c, 8, 64, 0
4, 226080, Note_on_c, 8, 60, 58
4, 226224, Note_on_c, 8, 60, 0
4, 226320, Note_on_c, 8, 60, 58
4, 226464, Note_on_c, 8, 60, 0
4, 226560, Note_on_c, 8, 59, 58
4, 226704, Note_on_c, 8, 59, 0
4, 226800, Note_on_c, 8, 59, 58
4, 226944, Note_on_c, 8, 59, 0
4, 227040, Note_on_c, 8, 60, 58
4, 227184, Note_on_c, 8, 60, 0
4, 227280, Note_on_c, 8, 60, 58
4, 227424, Note_on_c, 8, 60, 0
4, 227520, Note_on_c, 8, 62, 58
4, 227664, Note_on_c, 8, 62, 0
4, 227760, Note_on_c, 8, 62, 58
4, 227904, Note_on_c, 8, 62, 0
4, 228000, Note_on_c, 8, 59, 58
4, 228144, Note_on_c, 8, 59, 0
4, 228240, Note_on_c, 8, 59, 58
4, 228384, Note_on_c, 8, 59, 0
4, 228480, Note_on_c, 8, 60, 58
4, 228624, Note_on_c, 8, 60, 0
4, 228720, Note_on_c, 8, 60, 58
4, 228864, Note_on_c, 8, 60, 0
4, 228960, Note_on_c, 8, 62, 58
4, 229104, Note_on_c, 8, 62, 0
4, 229200, Note_on_c, 8, 62, 58
4, 229344, Note_on_c, 8, 62, 0
4, 229440, Note_on_c, 8, 64, 58
4, 229584, Note_on_c, 8, 64, 0
4, 229680, Note_on_c, 8, 64, 58
4, 229824, Note_on_c, 8, 64, 0
4, 229920, Note_on_c, 8, 60, 58
4, 230064, Note_on_c, 8, 60, 0
4, 230160, Note_on_c, 8, 60, 58
4, 230304, Note_on_c, 8, 60, 0
4, 230400, Note_on_c, 8, 59, 58
4, 230544, Note_on_c, 8, 59, 0
4, 230640, Note_on_c, 8, 59, 58
4, 230784, Note_on_c, 8, 59, 0
4, 230880, Note_on_c, 8, 60, 58
4, 231024, Note_on_c, 8, 60, 0
4, 231120, Note_on_c, 8, 60, 58
4, 231264, Note_on_c, 8, 60, 0
4, 231360, Note_on_c, 8, 62, 58
4, 231504, Note_on_c, 8, 62, 0
4, 231600, Note_on_c, 8, 62, 58
4, 231744, Note_on_c, 8, 62, 0
4, 231840, Note_on_c, 8, 59, 58
4, 231984, Note_on_c, 8, 59, 0
4, 232080, Note_on_c, 8, 59, 58
4, 232224, Note_on_c, 8, 59, 0
4, 232320, Note_on_c, 8, 57, 58
4, 232464, Note_on_c, 8, 57, 0
4, 232560, Note_on_c, 8, 57, 58
4, 232704, Note_on_c, 8, 57, 0
4, 232800, Note_on_c, 8, 59, 58
4, 232944, Note_on_c, 8, 59, 0
4, 233040, Note_on_c, 8, 59, 58
4, 233184, Note_on_c, 8, 59, 0
4, 233280, Note_on_c, 8, 60, 58
4, 233424, Note_on_c, 8, 60, 0
4, 233520, Note_on_c, 8, 60, 58
4, 233664, Note_on_c, 8, 60, 0
4, 233760, Note_on_c, 8, 57, 58
4, 233904, Note_on_c, 8, 57, 0
4, 234000, Note_on_c, 8, 57, 58
4, 234144, Note_on_c, 8, 57, 0
4, 234240, Note_on_c, 8, 57, 58
4, 234384, Note_on_c, 8, 57, 0
4, 234480, Note_on_c, 8, 57, 58
4, 234624, Note_on_c, 8, 57, 0
4, 234720, Note_on_c, 8, 58, 58
4, 234864, Note_on_c, 8, 58, 0
4, 234960, Note_on_c, 8, 58, 58
4, 235104, Note_on_c, 8, 58, 0
4, 235200, Note_on_c, 8, 60, 58
4, 235344, Note_on_c, 8, 60, 0
4, 235440, Note_on_c, 8, 60, 58
4, 235584, Note_on_c, 8, 60, 0
4, 235680, Note_on_c, 8, 57, 58
4, 235824, Note_on_c, 8, 57, 0
4, 235920, Note_on_c, 8, 57, 58
4, 236064, Note_on_c, 8, 57, 0
4, 236160, Note_on_c, 8, 55, 58
4, 236304, Note_on_c, 8, 55, 0
4, 236400, Note_on_c, 8, 55, 58
4, 236544, Note_on_c, 8, 55, 0
4, 236640, Note_on_c, 8, 54, 58
4, 236784, Note_on_c, 8, 54, 0
4, 236880, Note_on_c, 8, 54, 58
4, 237024, Note_on_c, 8, 54, 0
4, 237120, Note_on_c, 8, 55, 58
4, 237264, Note_on_c, 8, 55, 0
4, 237360, Note_on_c, 8, 55, 58
4, 237504, Note_on_c, 8, 55, 0
4, 237600, Note_on_c, 8, 66, 58
4, 237744, Note_on_c, 8, 66, 0
4, 237840, Note_on_c, 8, 66, 58
4, 237984, Note_on_c, 8, 66, 0
4, 238080, Note_on_c, 8, 67, 58
4, 238224, Note_on_c, 8, 67, 0
4, 238320, Note_on_c, 8, 67, 58
4, 238464, Note_on_c, 8, 67, 0
4, 238560, Note_on_c, 8, 66, 58
4, 238704, Note_on_c, 8, 66, 0
4, 238800, Note_on_c, 8, 66, 58
4, 238944, Note_on_c, 8, 66, 0
4, 239040, Note_on_c, 8, 67, 58
4, 239184, Note_on_c, 8, 67, 0
4, 239280, Note_on_c, 8, 55, 58
4, 239424, Note_on_c, 8, 55, 0
4, 239520, Note_on_c, 8, 54, 58
4, 239664, Note_on_c, 8, 54, 0
4, 239760, Note_on_c, 8, 55, 58
4, 239904, Note_on_c, 8, 55, 0
4, 240000, Note_on_c, 8, 57, 58
4, 240384, Note_on_c, 8, 57, 0
4, 240720, Note_on_c, 8, 50, 92
4, 240960, Note_on_c, 8, 50, 0
4, 240960, Note_on_c, 8, 52, 92
4, 241200, Note_on_c, 8, 52, 0
4, 241200, Note_on_c, 8, 54, 92
4, 241440, Note_on_c, 8, 54, 0
4, 241440, Note_on_c, 8, 55, 92
4, 241680, Note_on_c, 8, 55, 0
4, 241680, Note_on_c, 8, 57, 92
4, 241920, Note_on_c, 8, 57, 0
4, 241920, Note_on_c, 8, 60, 92
4, 242160, Note_on_c, 8, 60, 0
4, 242160, Note_on_c, 8, 58, 92
4, 242400, Note_on_c, 8, 58, 0
4, 242640, Note_on_c, 8, 54, 92
4, 242880, Note_on_c, 8, 54, 0
4, 242880, Note_on_c, 8, 55, 92
4, 243120, Note_on_c, 8, 55, 0
4, 243120, Note_on_c, 8, 57, 92
4, 243360, Note_on_c, 8, 57, 0
4, 243360, Note_on_c, 8, 58, 92
4, 243600, Note_on_c, 8, 58, 0
4, 243600, Note_on_c, 8, 61, 92
4, 243840, Note_on_c, 8, 61, 0
4, 243840, Note_on_c, 8, 64, 92
4, 244080, Note_on_c, 8, 64, 0
4, 244080, Note_on_c, 8, 62, 92
4, 244272, Note_on_c, 8, 62, 0
4, 247680, Note_on_c, 8, 71, 58
4, 247824, Note_on_c, 8, 71, 0
4, 247920, Note_on_c, 8, 71, 58
4, 248064, Note_on_c, 8, 71, 0
4, 248160, Note_on_c, 8, 71, 58
4, 248400, Note_on_c, 8, 71, 0
4, 248400, Note_on_c, 8, 72, 58
4, 248544, Note_on_c, 8, 72, 0
4, 248640, Note_on_c, 8, 69, 58
4, 248784, Note_on_c, 8, 69, 0
4, 248880, Note_on_c, 8, 69, 58
4, 249024, Note_on_c, 8, 69, 0
4, 249120, Note_on_c, 8, 69, 58
4, 249360, Note_on_c, 8, 69, 0
4, 249360, Note_on_c, 8, 71, 58
4, 249504, Note_on_c, 8, 71, 0
4, 249600, Note_on_c, 8, 67, 58
4, 249744, Note_on_c, 8, 67, 0
4, 249840, Note_on_c, 8, 67, 58
4, 249984, Note_on_c, 8, 67, 0
4, 250080, Note_on_c, 8, 67, 58
4, 250320, Note_on_c, 8, 67, 0
4, 250320, Note_on_c, 8, 71, 58
4, 250464, Note_on_c, 8, 71, 0
4, 250560, Note_on_c, 8, 71, 58
4, 250800, Note_on_c, 8, 71, 0
4, 250800, Note_on_c, 8, 69, 58
4, 250992, Note_on_c, 8, 69, 0
4, 251040, Note_on_c, 8, 67, 58
4, 251232, Note_on_c, 8, 67, 0
4, 251280, Note_on_c, 8, 62, 58
4, 251472, Note_on_c, 8, 62, 0
4, 251520, Note_on_c, 8, 59, 125
4, 251904, Note_on_c, 8, 59, 0
4, 252240, Note_on_c, 8, 62, 105
4, 252384, Note_on_c, 8, 62, 0
4, 252480, Note_on_c, 8, 67, 105
4, 252864, Note_on_c, 8, 67, 0
4, 253200, Note_on_c, 8, 62, 105
4, 253344, Note_on_c, 8, 62, 0
4, 253440, Note_on_c, 8, 67, 105
4, 253584, Note_on_c, 8, 67, 0
4, 253680, Note_on_c, 8, 62, 105
4, 253824, Note_on_c, 8, 62, 0
4, 253920, Note_on_c, 8, 67, 105
4, 254064, Note_on_c, 8, 67, 0
4, 254160, Note_on_c, 8, 71, 105
4, 254304, Note_on_c, 8, 71, 0
4, 254400, Note_on_c, 8, 74, 105
4, 254784, Note_on_c, 8, 74, 0
4, 255360, Note_on_c, 8, 72, 105
4, 255744, Note_on_c, 8, 72, 0
4, 256080, Note_on_c, 8, 69, 105
4, 256224, Note_on_c, 8, 69, 0
4, 256320, Note_on_c, 8, 72, 105
4, 256704, Note_on_c, 8, 72, 0
4, 257040, Note_on_c, 8, 69, 105
4, 257184, Note_on_c, 8, 69, 0
4, 257280, Note_on_c, 8, 72, 105
4, 257424, Note_on_c, 8, 72, 0
4, 257520, Note_on_c, 8, 69, 105
4, 257664, Note_on_c, 8, 69, 0
4, 257760, Note_on_c, 8, 66, 105
4, 257904, Note_on_c, 8, 66, 0
4, 258000, Note_on_c, 8, 69, 105
4, 258144, Note_on_c, 8, 69, 0
4, 258240, Note_on_c, 8, 62, 105
4, 258624, Note_on_c, 8, 62, 0
4, 259200, Note_on_c, 8, 67, 105
4, 259344, Note_on_c, 8, 67, 0
4, 259440, Note_on_c, 8, 67, 105
4, 259584, Note_on_c, 8, 67, 0
4, 259680, Note_on_c, 8, 67, 105
4, 259824, Note_on_c, 8, 67, 0
4, 259920, Note_on_c, 8, 67, 105
4, 260064, Note_on_c, 8, 67, 0
4, 260160, Note_on_c, 8, 67, 105
4, 260304, Note_on_c, 8, 67, 0
4, 260400, Note_on_c, 8, 67, 105
4, 260544, Note_on_c, 8, 67, 0
4, 260640, Note_on_c, 8, 67, 105
4, 260784, Note_on_c, 8, 67, 0
4, 260880, Note_on_c, 8, 67, 105
4, 261024, Note_on_c, 8, 67, 0
4, 261120, Note_on_c, 8, 69, 105
4, 261264, Note_on_c, 8, 69, 0
4, 261360, Note_on_c, 8, 69, 105
4, 261504, Note_on_c, 8, 69, 0
4, 261600, Note_on_c, 8, 69, 105
4, 261744, Note_on_c, 8, 69, 0
4, 261840, Note_on_c, 8, 69, 105
4, 261984, Note_on_c, 8, 69, 0
4, 262080, Note_on_c, 8, 69, 105
4, 262320, Note_on_c, 8, 69, 0
4, 262320, Note_on_c, 8, 72, 105
4, 262464, Note_on_c, 8, 72, 0
4, 262560, Note_on_c, 8, 66, 105
4, 262800, Note_on_c, 8, 66, 0
4, 262800, Note_on_c, 8, 69, 105
4, 262944, Note_on_c, 8, 69, 0
4, 263040, Note_on_c, 8, 67, 105
4, 263184, Note_on_c, 8, 67, 0
4, 263280, Note_on_c, 8, 67, 105
4, 263424, Note_on_c, 8, 67, 0
4, 263520, Note_on_c, 8, 67, 105
4, 263664, Note_on_c, 8, 67, 0
4, 263760, Note_on_c, 8, 67, 105
4, 263904, Note_on_c, 8, 67, 0
4, 264000, Note_on_c, 8, 67, 105
4, 264144, Note_on_c, 8, 67, 0
4, 264240, Note_on_c, 8, 67, 105
4, 264384, Note_on_c, 8, 67, 0
4, 264480, Note_on_c, 8, 67, 105
4, 264624, Note_on_c, 8, 67, 0
4, 264720, Note_on_c, 8, 67, 105
4, 264864, Note_on_c, 8, 67, 0
4, 264960, Note_on_c, 8, 69, 105
4, 265104, Note_on_c, 8, 69, 0
4, 265200, Note_on_c, 8, 69, 105
4, 265344, Note_on_c, 8, 69, 0
4, 265440, Note_on_c, 8, 69, 105
4, 265584, Note_on_c, 8, 69, 0
4, 265680, Note_on_c, 8, 69, 105
4, 265824, Note_on_c, 8, 69, 0
4, 265920, Note_on_c, 8, 69, 105
4, 266160, Note_on_c, 8, 69, 0
4, 266160, Note_on_c, 8, 72, 105
4, 266304, Note_on_c, 8, 72, 0
4, 266400, Note_on_c, 8, 66, 105
4, 266640, Note_on_c, 8, 66, 0
4, 266640, Note_on_c, 8, 69, 105
4, 266784, Note_on_c, 8, 69, 0
4, 266880, Note_on_c, 8, 62, 105
4, 266976, Note_on_c, 8, 62, 0
4, 267000, Note_on_c, 8, 62, 105
4, 267096, Note_on_c, 8, 62, 0
4, 267120, Note_on_c, 8, 62, 105
4, 267216, Note_on_c, 8, 62, 0
4, 267240, Note_on_c, 8, 62, 105
4, 267336, Note_on_c, 8, 62, 0
4, 267360, Note_on_c, 8, 62, 105
4, 267456, Note_on_c, 8, 62, 0
4, 267480, Note_on_c, 8, 62, 105
4, 267576, Note_on_c, 8, 62, 0
4, 267600, Note_on_c, 8, 62, 105
4, 267696, Note_on_c, 8, 62, 0
4, 267720, Note_on_c, 8, 62, 105
4, 267816, Note_on_c, 8, 62, 0
4, 267840, Note_on_c, 8, 62, 105
4, 267936, Note_on_c, 8, 62, 0
4, 267960, Note_on_c, 8, 62, 105
4, 268056, Note_on_c, 8, 62, 0
4, 268080, Note_on_c, 8, 62, 105
4, 268176, Note_on_c, 8, 62, 0
4, 268200, Note_on_c, 8, 62, 105
4, 268296, Note_on_c, 8, 62, 0
4, 268320, Note_on_c, 8, 62, 105
4, 268416, Note_on_c, 8, 62, 0
4, 268440, Note_on_c, 8, 62, 105
4, 268536, Note_on_c, 8, 62, 0
4, 268560, Note_on_c, 8, 62, 105
4, 268656, Note_on_c, 8, 62, 0
4, 268680, Note_on_c, 8, 62, 105
4, 268776, Note_on_c, 8, 62, 0
4, 268800, Note_on_c, 8, 62, 105
4, 268896, Note_on_c, 8, 62, 0
4, 268920, Note_on_c, 8, 62, 105
4, 269016, Note_on_c, 8, 62, 0
4, 269040, Note_on_c, 8, 62, 105
4, 269136, Note_on_c, 8, 62, 0
4, 269160, Note_on_c, 8, 62, 105
4, 269256, Note_on_c, 8, 62, 0
4, 269280, Note_on_c, 8, 62, 105
4, 269376, Note_on_c, 8, 62, 0
4, 269400, Note_on_c, 8, 62, 105
4, 269496, Note_on_c, 8, 62, 0
4, 269520, Note_on_c, 8, 62, 105
4, 269616, Note_on_c, 8, 62, 0
4, 269640, Note_on_c, 8, 62, 105
4, 269736, Note_on_c, 8, 62, 0
4, 269760, Note_on_c, 8, 62, 92
4, 270144, Note_on_c, 8, 62, 0
4, 272640, Note_on_c, 8, 54, 58
4, 273600, Note_on_c, 8, 54, 0
4, 273600, Note_on_c, 8, 55, 58
4, 274368, Note_on_c, 8, 55, 0
4, 274560, Note_on_c, 8, 60, 58
4, 274872, Note_on_c, 8, 60, 0
4, 275040, Note_on_c, 8, 60, 58
4, 275352, Note_on_c, 8, 60, 0
4, 275520, Note_on_c, 8, 57, 58
4, 275832, Note_on_c, 8, 57, 0
4, 276000, Note_on_c, 8, 50, 58
4, 276312, Note_on_c, 8, 50, 0
4, 276480, Note_on_c, 8, 50, 58
4, 276636, Note_on_c, 8, 50, 0
4, 276960, Note_on_c, 8, 62, 58
4, 277116, Note_on_c, 8, 62, 0
4, 277440, Note_on_c, 8, 62, 58
4, 277596, Note_on_c, 8, 62, 0
4, 280320, Note_on_c, 8, 66, 58
4, 281280, Note_on_c, 8, 66, 0
4, 281280, Note_on_c, 8, 67, 58
4, 282048, Note_on_c, 8, 67, 0
4, 282240, Note_on_c, 8, 60, 58
4, 282552, Note_on_c, 8, 60, 0
4, 282720, Note_on_c, 8, 60, 58
4, 282876, Note_on_c, 8, 60, 0
4, 282960, Note_on_c, 8, 60, 58
4, 283116, Note_on_c, 8, 60, 0
4, 283200, Note_on_c, 8, 57, 58
4, 283512, Note_on_c, 8, 57, 0
4, 283680, Note_on_c, 8, 57, 58
4, 283836, Note_on_c, 8, 57, 0
4, 283920, Note_on_c, 8, 57, 58
4, 284076, Note_on_c, 8, 57, 0
4, 284160, Note_on_c, 8, 55, 112
4, 284316, Note_on_c, 8, 55, 0
4, 284400, Note_on_c, 8, 55, 92
4, 284556, Note_on_c, 8, 55, 0
4, 284640, Note_on_c, 8, 55, 92
4, 284796, Note_on_c, 8, 55, 0
4, 284880, Note_on_c, 8, 55, 92
4, 285036, Note_on_c, 8, 55, 0
4, 285120, Note_on_c, 8, 55, 58
4, 285276, Note_on_c, 8, 55, 0
4, 285360, Note_on_c, 8, 55, 58
4, 285516, Note_on_c, 8, 55, 0
4, 285600, Note_on_c, 8, 55, 58
4, 285756, Note_on_c, 8, 55, 0
4, 285840, Note_on_c, 8, 55, 58
4, 285996, Note_on_c, 8, 55, 0
4, 286080, Note_on_c, 8, 55, 112
4, 286236, Note_on_c, 8, 55, 0
4, 286320, Note_on_c, 8, 55, 92
4, 286476, Note_on_c, 8, 55, 0
4, 286560, Note_on_c, 8, 55, 92
4, 286716, Note_on_c, 8, 55, 0
4, 286800, Note_on_c, 8, 55, 92
4, 286956, Note_on_c, 8, 55, 0
4, 287040, Note_on_c, 8, 55, 58
4, 287196, Note_on_c, 8, 55, 0
4, 287280, Note_on_c, 8, 55, 58
4, 287436, Note_on_c, 8, 55, 0
4, 287520, Note_on_c, 8, 55, 58
4, 287676, Note_on_c, 8, 55, 0
4, 287760, Note_on_c, 8, 55, 58
4, 287916, Note_on_c, 8, 55, 0
4, 288000, Note_on_c, 8, 55, 72
4, 288156, Note_on_c, 8, 55, 0
4, 288240, Note_on_c, 8, 67, 72
4, 288396, Note_on_c, 8, 67, 0
4, 288480, Note_on_c, 8, 67, 72
4, 288636, Note_on_c, 8, 67, 0
4, 288720, Note_on_c, 8, 67, 81
4, 288876, Note_on_c, 8, 67, 0
4, 288960, Note_on_c, 8, 67, 81
4, 289116, Note_on_c, 8, 67, 0
4, 289200, Note_on_c, 8, 67, 81
4, 289356, Note_on_c, 8, 67, 0
4, 289440, Note_on_c, 8, 69, 81
4, 289596, Note_on_c, 8, 69, 0
4, 289680, Note_on_c, 8, 69, 81
4, 289836, Note_on_c, 8, 69, 0
4, 289920, Note_on_c, 8, 67, 81
4, 290076, Note_on_c, 8, 67, 0
4, 290160, Note_on_c, 8, 67, 92
4, 290316, Note_on_c, 8, 67, 0
4, 290400, Note_on_c, 8, 66, 92
4, 290556, Note_on_c, 8, 66, 0
4, 290640, Note_on_c, 8, 66, 92
4, 290796, Note_on_c, 8, 66, 0
4, 290880, Note_on_c, 8, 67, 105
4, 291036, Note_on_c, 8, 67, 0
4, 291120, Note_on_c, 8, 67, 105
4, 291276, Note_on_c, 8, 67, 0
4, 291360, Note_on_c, 8, 64, 105
4, 291516, Note_on_c, 8, 64, 0
4, 291600, Note_on_c, 8, 64, 105
4, 291756, Note_on_c, 8, 64, 0
4, 291840, Note_on_c, 8, 62, 105
4, 291840, Note_on_c, 8, 69, 105
4, 291936, Note_on_c, 8, 69, 0
4, 291936, Note_on_c, 8, 62, 0
4, 291960, Note_on_c, 8, 62, 105
4, 291960, Note_on_c, 8, 69, 105
4, 292056, Note_on_c, 8, 69, 0
4, 292056, Note_on_c, 8, 62, 0
4, 292080, Note_on_c, 8, 69, 105
4, 292080, Note_on_c, 8, 62, 105
4, 292176, Note_on_c, 8, 62, 0
4, 292176, Note_on_c, 8, 69, 0
4, 292200, Note_on_c, 8, 69, 105
4, 292200, Note_on_c, 8, 62, 105
4, 292296, Note_on_c, 8, 62, 0
4, 292296, Note_on_c, 8, 69, 0
4, 292320, Note_on_c, 8, 62, 105
4, 292320, Note_on_c, 8, 69, 105
4, 292416, Note_on_c, 8, 69, 0
4, 292416, Note_on_c, 8, 62, 0
4, 292440, Note_on_c, 8, 69, 105
4, 292440, Note_on_c, 8, 62, 105
4, 292536, Note_on_c, 8, 62, 0
4, 292536, Note_on_c, 8, 69, 0
4, 292560, Note_on_c, 8, 62, 105
4, 292560, Note_on_c, 8, 69, 105
4, 292656, Note_on_c, 8, 69, 0
4, 292656, Note_on_c, 8, 62, 0
4, 292680, Note_on_c, 8, 62, 105
4, 292680, Note_on_c, 8, 69, 105
4, 292776, Note_on_c, 8, 69, 0
4, 292776, Note_on_c, 8, 62, 0
4, 292800, Note_on_c, 8, 69, 105
4, 292800, Note_on_c, 8, 64, 105
4, 292896, Note_on_c, 8, 64, 0
4, 292896, Note_on_c, 8, 69, 0
4, 292920, Note_on_c, 8, 69, 105
4, 292920, Note_on_c, 8, 64, 105
4, 293016, Note_on_c, 8, 64, 0
4, 293016, Note_on_c, 8, 69, 0
4, 293040, Note_on_c, 8, 64, 105
4, 293040, Note_on_c, 8, 69, 105
4, 293136, Note_on_c, 8, 69, 0
4, 293136, Note_on_c, 8, 64, 0
4, 293160, Note_on_c, 8, 69, 105
4, 293160, Note_on_c, 8, 64, 105
4, 293256, Note_on_c, 8, 64, 0
4, 293256, Note_on_c, 8, 69, 0
4, 293280, Note_on_c, 8, 64, 105
4, 293280, Note_on_c, 8, 69, 105
4, 293376, Note_on_c, 8, 69, 0
4, 293376, Note_on_c, 8, 64, 0
4, 293400, Note_on_c, 8, 64, 105
4, 293400, Note_on_c, 8, 69, 105
4, 293496, Note_on_c, 8, 69, 0
4, 293496, Note_on_c, 8, 64, 0
4, 293520, Note_on_c, 8, 64, 105
4, 293520, Note_on_c, 8, 69, 105
4, 293616, Note_on_c, 8, 69, 0
4, 293616, Note_on_c, 8, 64, 0
4, 293640, Note_on_c, 8, 64, 105
4, 293640, Note_on_c, 8, 69, 105
4, 293736, Note_on_c, 8, 69, 0
4, 293736, Note_on_c, 8, 64, 0
4, 293760, Note_on_c, 8, 62, 105
4, 293760, Note_on_c, 8, 69, 105
4, 293856, Note_on_c, 8, 69, 0
4, 293856, Note_on_c, 8, 62, 0
4, 293880, Note_on_c, 8, 69, 105
4, 293880, Note_on_c, 8, 62, 105
4, 293976, Note_on_c, 8, 62, 0
4, 293976, Note_on_c, 8, 69, 0
4, 294000, Note_on_c, 8, 69, 105
4, 294000, Note_on_c, 8, 62, 105
4, 294096, Note_on_c, 8, 62, 0
4, 294096, Note_on_c, 8, 69, 0
4, 294120, Note_on_c, 8, 69, 105
4, 294120, Note_on_c, 8, 62, 105
4, 294216, Note_on_c, 8, 62, 0
4, 294216, Note_on_c, 8, 69, 0
4, 294240, Note_on_c, 8, 62, 105
4, 294240, Note_on_c, 8, 69, 105
4, 294336, Note_on_c, 8, 69, 0
4, 294336, Note_on_c, 8, 62, 0
4, 294360, Note_on_c, 8, 69, 105
4, 294360, Note_on_c, 8, 62, 105
4, 294456, Note_on_c, 8, 62, 0
4, 294456, Note_on_c, 8, 69, 0
4, 294480, Note_on_c, 8, 69, 105
4, 294480, Note_on_c, 8, 62, 105
4, 294576, Note_on_c, 8, 62, 0
4, 294576, Note_on_c, 8, 69, 0
4, 294600, Note_on_c, 8, 69, 105
4, 294600, Note_on_c, 8, 62, 105
4, 294696, Note_on_c, 8, 62, 0
4, 294696, Note_on_c, 8, 69, 0
4, 294720, Note_on_c, 8, 69, 105
4, 294720, Note_on_c, 8, 64, 105
4, 294816, Note_on_c, 8, 64, 0
4, 294816, Note_on_c, 8, 69, 0
4, 294840, Note_on_c, 8, 64, 105
4, 294840, Note_on_c, 8, 69, 105
4, 294936, Note_on_c, 8, 69, 0
4, 294936, Note_on_c, 8, 64, 0
4, 294960, Note_on_c, 8, 64, 105
4, 294960, Note_on_c, 8, 69, 105
4, 295056, Note_on_c, 8, 69, 0
4, 295056, Note_on_c, 8, 64, 0
4, 295080, Note_on_c, 8, 64, 105
4, 295080, Note_on_c, 8, 69, 105
4, 295176, Note_on_c, 8, 69, 0
4, 295176, Note_on_c, 8, 64, 0
4, 295200, Note_on_c, 8, 69, 105
4, 295200, Note_on_c, 8, 64, 105
4, 295296, Note_on_c, 8, 64, 0
4, 295296, Note_on_c, 8, 69, 0
4, 295320, Note_on_c, 8, 69, 105
4, 295320, Note_on_c, 8, 64, 105
4, 295416, Note_on_c, 8, 64, 0
4, 295416, Note_on_c, 8, 69, 0
4, 295440, Note_on_c, 8, 64, 105
4, 295440, Note_on_c, 8, 69, 105
4, 295536, Note_on_c, 8, 69, 0
4, 295536, Note_on_c, 8, 64, 0
4, 295560, Note_on_c, 8, 64, 105
4, 295560, Note_on_c, 8, 69, 105
4, 295656, Note_on_c, 8, 69, 0
4, 295656, Note_on_c, 8, 64, 0
4, 295680, Note_on_c, 8, 62, 105
4, 295680, Note_on_c, 8, 69, 105
4, 295776, Note_on_c, 8, 69, 0
4, 295776, Note_on_c, 8, 62, 0
4, 295800, Note_on_c, 8, 62, 105
4, 295800, Note_on_c, 8, 69, 105
4, 295896, Note_on_c, 8, 69, 0
4, 295896, Note_on_c, 8, 62, 0
4, 295920, Note_on_c, 8, 62, 105
4, 295920, Note_on_c, 8, 69, 105
4, 296016, Note_on_c, 8, 69, 0
4, 296016, Note_on_c, 8, 62, 0
4, 296040, Note_on_c, 8, 69, 105
4, 296040, Note_on_c, 8, 62, 105
4, 296136, Note_on_c, 8, 62, 0
4, 296136, Note_on_c, 8, 69, 0
4, 296160, Note_on_c, 8, 64, 105
4, 296160, Note_on_c, 8, 69, 105
4, 296256, Note_on_c, 8, 69, 0
4, 296256, Note_on_c, 8, 64, 0
4, 296280, Note_on_c, 8, 69, 105
4, 296280, Note_on_c, 8, 64, 105
4, 296376, Note_on_c, 8, 64, 0
4, 296376, Note_on_c, 8, 69, 0
4, 296400, Note_on_c, 8, 64, 105
4, 296400, Note_on_c, 8, 69, 105
4, 296496, Note_on_c, 8, 69, 0
4, 296496, Note_on_c, 8, 64, 0
4, 296520, Note_on_c, 8, 69, 105
4, 296520, Note_on_c, 8, 64, 105
4, 296616, Note_on_c, 8, 64, 0
4, 296616, Note_on_c, 8, 69, 0
4, 296640, Note_on_c, 8, 62, 105
4, 296640, Note_on_c, 8, 69, 105
4, 296736, Note_on_c, 8, 69, 0
4, 296736, Note_on_c, 8, 62, 0
4, 296760, Note_on_c, 8, 62, 105
4, 296760, Note_on_c, 8, 69, 105
4, 296856, Note_on_c, 8, 69, 0
4, 296856, Note_on_c, 8, 62, 0
4, 296880, Note_on_c, 8, 62, 105
4, 296880, Note_on_c, 8, 69, 105
4, 296976, Note_on_c, 8, 69, 0
4, 296976, Note_on_c, 8, 62, 0
4, 297000, Note_on_c, 8, 62, 105
4, 297000, Note_on_c, 8, 69, 105
4, 297096, Note_on_c, 8, 69, 0
4, 297096, Note_on_c, 8, 62, 0
4, 297120, Note_on_c, 8, 64, 105
4, 297120, Note_on_c, 8, 69, 105
4, 297216, Note_on_c, 8, 69, 0
4, 297216, Note_on_c, 8, 64, 0
4, 297240, Note_on_c, 8, 64, 105
4, 297240, Note_on_c, 8, 69, 105
4, 297336, Note_on_c, 8, 69, 0
4, 297336, Note_on_c, 8, 64, 0
4, 297360, Note_on_c, 8, 64, 105
4, 297360, Note_on_c, 8, 69, 105
4, 297456, Note_on_c, 8, 69, 0
4, 297456, Note_on_c, 8, 64, 0
4, 297480, Note_on_c, 8, 64, 105
4, 297480, Note_on_c, 8, 69, 105
4, 297576, Note_on_c, 8, 69, 0
4, 297576, Note_on_c, 8, 64, 0
4, 297600, Note_on_c, 8, 62, 105
4, 297600, Note_on_c, 8, 69, 105
4, 297756, Note_on_c, 8, 69, 0
4, 297756, Note_on_c, 8, 62, 0
4, 297840, Note_on_c, 8, 50, 81
4, 297996, Note_on_c, 8, 50, 0
4, 298080, Note_on_c, 8, 50, 81
4, 298236, Note_on_c, 8, 50, 0
4, 298320, Note_on_c, 8, 50, 81
4, 298476, Note_on_c, 8, 50, 0
4, 298560, Note_on_c, 8, 50, 81
4, 298944, Note_on_c, 8, 50, 0
4, 300960, Note_on_c, 8, 59, 58
4, 301152, Note_on_c, 8, 59, 0
4, 301440, Note_on_c, 8, 52, 58
4, 301632, Note_on_c, 8, 52, 0
4, 301920, Note_on_c, 8, 60, 58
4, 302112, Note_on_c, 8, 60, 0
4, 302400, Note_on_c, 8, 57, 58
4, 302592, Note_on_c, 8, 57, 0
4, 302880, Note_on_c, 8, 54, 58
4, 303072, Note_on_c, 8, 54, 0
4, 303840, Note_on_c, 8, 69, 58
4, 304320, Note_on_c, 8, 69, 0
4, 304320, Note_on_c, 8, 67, 58
4, 304512, Note_on_c, 8, 67, 0
4, 304800, Note_on_c, 8, 69, 58
4, 304992, Note_on_c, 8, 69, 0
4, 305280, Note_on_c, 8, 67, 58
4, 306240, Note_on_c, 8, 67, 0
4, 306240, Note_on_c, 8, 66, 58
4, 306624, Note_on_c, 8, 66, 0
4, 307680, Note_on_c, 8, 66, 58
4, 308160, Note_on_c, 8, 66, 0
4, 308160, Note_on_c, 8, 67, 58
4, 308352, Note_on_c, 8, 67, 0
4, 308640, Note_on_c, 8, 71, 58
4, 308832, Note_on_c, 8, 71, 0
4, 309120, Note_on_c, 8, 64, 58
4, 309312, Note_on_c, 8, 64, 0
4, 309600, Note_on_c, 8, 60, 58
4, 309792, Note_on_c, 8, 60, 0
4, 310080, Note_on_c, 8, 57, 58
4, 310464, Note_on_c, 8, 57, 0
4, 310800, Note_on_c, 8, 69, 58
4, 310992, Note_on_c, 8, 69, 0
4, 311040, Note_on_c, 8, 69, 78
4, 311280, Note_on_c, 8, 69, 0
4, 311280, Note_on_c, 8, 67, 58
4, 311472, Note_on_c, 8, 67, 0
4, 312960, Note_on_c, 8, 55, 58
4, 313116, Note_on_c, 8, 55, 0
4, 313200, Note_on_c, 8, 55, 58
4, 313356, Note_on_c, 8, 55, 0
4, 313440, Note_on_c, 8, 57, 58
4, 313596, Note_on_c, 8, 57, 0
4, 313680, Note_on_c, 8, 57, 58
4, 313836, Note_on_c, 8, 57, 0
4, 313920, Note_on_c, 8, 59, 58
4, 314076, Note_on_c, 8, 59, 0
4, 314160, Note_on_c, 8, 59, 58
4, 314316, Note_on_c, 8, 59, 0
4, 314400, Note_on_c, 8, 55, 58
4, 314556, Note_on_c, 8, 55, 0
4, 314640, Note_on_c, 8, 55, 58
4, 314796, Note_on_c, 8, 55, 0
4, 314880, Note_on_c, 8, 54, 58
4, 315036, Note_on_c, 8, 54, 0
4, 315120, Note_on_c, 8, 54, 58
4, 315276, Note_on_c, 8, 54, 0
4, 315360, Note_on_c, 8, 55, 58
4, 315516, Note_on_c, 8, 55, 0
4, 315600, Note_on_c, 8, 55, 58
4, 315756, Note_on_c, 8, 55, 0
4, 315840, Note_on_c, 8, 57, 58
4, 315996, Note_on_c, 8, 57, 0
4, 316080, Note_on_c, 8, 57, 58
4, 316236, Note_on_c, 8, 57, 0
4, 316320, Note_on_c, 8, 54, 58
4, 316476, Note_on_c, 8, 54, 0
4, 316560, Note_on_c, 8, 54, 58
4, 316716, Note_on_c, 8, 54, 0
4, 316800, Note_on_c, 8, 55, 58
4, 316956, Note_on_c, 8, 55, 0
4, 317040, Note_on_c, 8, 55, 58
4, 317196, Note_on_c, 8, 55, 0
4, 317280, Note_on_c, 8, 57, 58
4, 317436, Note_on_c, 8, 57, 0
4, 317520, Note_on_c, 8, 57, 58
4, 317676, Note_on_c, 8, 57, 0
4, 317760, Note_on_c, 8, 59, 58
4, 317916, Note_on_c, 8, 59, 0
4, 318000, Note_on_c, 8, 59, 58
4, 318156, Note_on_c, 8, 59, 0
4, 318240, Note_on_c, 8, 55, 58
4, 318396, Note_on_c, 8, 55, 0
4, 318480, Note_on_c, 8, 55, 58
4, 318636, Note_on_c, 8, 55, 0
4, 318720, Note_on_c, 8, 54, 58
4, 318876, Note_on_c, 8, 54, 0
4, 318960, Note_on_c, 8, 54, 58
4, 319116, Note_on_c, 8, 54, 0
4, 319200, Note_on_c, 8, 55, 58
4, 319356, Note_on_c, 8, 55, 0
4, 319440, Note_on_c, 8, 55, 58
4, 319596, Note_on_c, 8, 55, 0
4, 319680, Note_on_c, 8, 57, 58
4, 319836, Note_on_c, 8, 57, 0
4, 319920, Note_on_c, 8, 57, 58
4, 320076, Note_on_c, 8, 57, 0
4, 320160, Note_on_c, 8, 54, 58
4, 320316, Note_on_c, 8, 54, 0
4, 320400, Note_on_c, 8, 54, 58
4, 320556, Note_on_c, 8, 54, 0
4, 320640, Note_on_c, 8, 55, 58
4, 320796, Note_on_c, 8, 55, 0
4, 320880, Note_on_c, 8, 67, 105
4, 321036, Note_on_c, 8, 67, 0
4, 321120, Note_on_c, 8, 71, 105
4, 321276, Note_on_c, 8, 71, 0
4, 321360, Note_on_c, 8, 69, 105
4, 321516, Note_on_c, 8, 69, 0
4, 321600, Note_on_c, 8, 68, 105
4, 321756, Note_on_c, 8, 68, 0
4, 321840, Note_on_c, 8, 64, 105
4, 321996, Note_on_c, 8, 64, 0
4, 322080, Note_on_c, 8, 66, 105
4, 322236, Note_on_c, 8, 66, 0
4, 322320, Note_on_c, 8, 68, 105
4, 322476, Note_on_c, 8, 68, 0
4, 322560, Note_on_c, 8, 69, 105
4, 322716, Note_on_c, 8, 69, 0
4, 322800, Note_on_c, 8, 72, 105
4, 322956, Note_on_c, 8, 72, 0
4, 323040, Note_on_c, 8, 69, 105
4, 323196, Note_on_c, 8, 69, 0
4, 323280, Note_on_c, 8, 67, 105
4, 323436, Note_on_c, 8, 67, 0
4, 323520, Note_on_c, 8, 66, 105
4, 323676, Note_on_c, 8, 66, 0
4, 323760, Note_on_c, 8, 62, 105
4, 323916, Note_on_c, 8, 62, 0
4, 324000, Note_on_c, 8, 64, 105
4, 324156, Note_on_c, 8, 64, 0
4, 324240, Note_on_c, 8, 66, 105
4, 324396, Note_on_c, 8, 66, 0
4, 324480, Note_on_c, 8, 67, 105
4, 324636, Note_on_c, 8, 67, 0
4, 324720, Note_on_c, 8, 67, 105
4, 324876, Note_on_c, 8, 67, 0
4, 324960, Note_on_c, 8, 67, 105
4, 325116, Note_on_c, 8, 67, 0
4, 325200, Note_on_c, 8, 67, 105
4, 325356, Note_on_c, 8, 67, 0
4, 325440, Note_on_c, 8, 67, 105
4, 325596, Note_on_c, 8, 67, 0
4, 325680, Note_on_c, 8, 67, 105
4, 325836, Note_on_c, 8, 67, 0
4, 325920, Note_on_c, 8, 67, 105
4, 326076, Note_on_c, 8, 67, 0
4, 326160, Note_on_c, 8, 67, 105
4, 326316, Note_on_c, 8, 67, 0
4, 326400, Note_on_c, 8, 67, 105
4, 326640, Note_on_c, 8, 67, 0
4, 326640, Note_on_c, 8, 62, 105
4, 326796, Note_on_c, 8, 62, 0
4, 326880, Note_on_c, 8, 62, 105
4, 327036, Note_on_c, 8, 62, 0
4, 327120, Note_on_c, 8, 62, 105
4, 327276, Note_on_c, 8, 62, 0
4, 327360, Note_on_c, 8, 62, 105
4, 327516, Note_on_c, 8, 62, 0
4, 327600, Note_on_c, 8, 62, 105
4, 327756, Note_on_c, 8, 62, 0
4, 327840, Note_on_c, 8, 62, 105
4, 327996, Note_on_c, 8, 62, 0
4, 328080, Note_on_c, 8, 60, 105
4, 328236, Note_on_c, 8, 60, 0
4, 328320, Note_on_c, 8, 59, 92
4, 328476, Note_on_c, 8, 59, 0
4, 328560, Note_on_c, 8, 55, 58
4, 328716, Note_on_c, 8, 55, 0
4, 328800, Note_on_c, 8, 57, 58
4, 328956, Note_on_c, 8, 57, 0
4, 329040, Note_on_c, 8, 57, 58
4, 329196, Note_on_c, 8, 57, 0
4, 329280, Note_on_c, 8, 59, 58
4, 329436, Note_on_c, 8, 59, 0
4, 329520, Note_on_c, 8, 59, 58
4, 329676, Note_on_c, 8, 59, 0
4, 329760, Note_on_c, 8, 55, 58
4, 329916, Note_on_c, 8, 55, 0
4, 330000, Note_on_c, 8, 55, 58
4, 330156, Note_on_c, 8, 55, 0
4, 330240, Note_on_c, 8, 54, 58
4, 330396, Note_on_c, 8, 54, 0
4, 330480, Note_on_c, 8, 54, 58
4, 330636, Note_on_c, 8, 54, 0
4, 330720, Note_on_c, 8, 55, 58
4, 330876, Note_on_c, 8, 55, 0
4, 330960, Note_on_c, 8, 55, 58
4, 331116, Note_on_c, 8, 55, 0
4, 331200, Note_on_c, 8, 57, 58
4, 331356, Note_on_c, 8, 57, 0
4, 331440, Note_on_c, 8, 57, 58
4, 331596, Note_on_c, 8, 57, 0
4, 331680, Note_on_c, 8, 54, 58
4, 331836, Note_on_c, 8, 54, 0
4, 331920, Note_on_c, 8, 54, 58
4, 332076, Note_on_c, 8, 54, 0
4, 332160, Note_on_c, 8, 55, 58
4, 332316, Note_on_c, 8, 55, 0
4, 332400, Note_on_c, 8, 67, 58
4, 332556, Note_on_c, 8, 67, 0
4, 332640, Note_on_c, 8, 69, 58
4, 332796, Note_on_c, 8, 69, 0
4, 332880, Note_on_c, 8, 69, 58
4, 333036, Note_on_c, 8, 69, 0
4, 333120, Note_on_c, 8, 71, 58
4, 333276, Note_on_c, 8, 71, 0
4, 333360, Note_on_c, 8, 71, 58
4, 333516, Note_on_c, 8, 71, 0
4, 333600, Note_on_c, 8, 67, 58
4, 333756, Note_on_c, 8, 67, 0
4, 333840, Note_on_c, 8, 67, 58
4, 333996, Note_on_c, 8, 67, 0
4, 334080, Note_on_c, 8, 66, 58
4, 334236, Note_on_c, 8, 66, 0
4, 334320, Note_on_c, 8, 66, 58
4, 334476, Note_on_c, 8, 66, 0
4, 334560, Note_on_c, 8, 67, 58
4, 334716, Note_on_c, 8, 67, 0
4, 334800, Note_on_c, 8, 67, 58
4, 334956, Note_on_c, 8, 67, 0
4, 335040, Note_on_c, 8, 69, 58
4, 335196, Note_on_c, 8, 69, 0
4, 335280, Note_on_c, 8, 69, 58
4, 335436, Note_on_c, 8, 69, 0
4, 335520, Note_on_c, 8, 66, 58
4, 335676, Note_on_c, 8, 66, 0
4, 335760, Note_on_c, 8, 66, 58
4, 335916, Note_on_c, 8, 66, 0
4, 336000, Note_on_c, 8, 67, 58
4, 336156, Note_on_c, 8, 67, 0
4, 336240, Note_on_c, 8, 67, 105
4, 336396, Note_on_c, 8, 67, 0
4, 336480, Note_on_c, 8, 71, 105
4, 336636, Note_on_c, 8, 71, 0
4, 336720, Note_on_c, 8, 69, 105
4, 336876, Note_on_c, 8, 69, 0
4, 336960, Note_on_c, 8, 68, 105
4, 337116, Note_on_c, 8, 68, 0
4, 337200, Note_on_c, 8, 64, 105
4, 337356, Note_on_c, 8, 64, 0
4, 337440, Note_on_c, 8, 66, 105
4, 337596, Note_on_c, 8, 66, 0
4, 337680, Note_on_c, 8, 68, 105
4, 337836, Note_on_c, 8, 68, 0
4, 337920, Note_on_c, 8, 69, 105
4, 338076, Note_on_c, 8, 69, 0
4, 338160, Note_on_c, 8, 72, 105
4, 338316, Note_on_c, 8, 72, 0
4, 338400, Note_on_c, 8, 69, 105
4, 338556, Note_on_c, 8, 69, 0
4, 338640, Note_on_c, 8, 67, 105
4, 338796, Note_on_c, 8, 67, 0
4, 338880, Note_on_c, 8, 66, 105
4, 339036, Note_on_c, 8, 66, 0
4, 339120, Note_on_c, 8, 62, 105
4, 339276, Note_on_c, 8, 62, 0
4, 339360, Note_on_c, 8, 64, 105
4, 339516, Note_on_c, 8, 64, 0
4, 339600, Note_on_c, 8, 66, 105
4, 339756, Note_on_c, 8, 66, 0
4, 339840, Note_on_c, 8, 67, 105
4, 339996, Note_on_c, 8, 67, 0
4, 340080, Note_on_c, 8, 67, 105
4, 340236, Note_on_c, 8, 67, 0
4, 340320, Note_on_c, 8, 67, 105
4, 340476, Note_on_c, 8, 67, 0
4, 340560, Note_on_c, 8, 67, 105
4, 340716, Note_on_c, 8, 67, 0
4, 340800, Note_on_c, 8, 67, 105
4, 340956, Note_on_c, 8, 67, 0
4, 341040, Note_on_c, 8, 67, 105
4, 341196, Note_on_c, 8, 67, 0
4, 341280, Note_on_c, 8, 67, 105
4, 341436, Note_on_c, 8, 67, 0
4, 341520, Note_on_c, 8, 67, 105
4, 341676, Note_on_c, 8, 67, 0
4, 341760, Note_on_c, 8, 67, 105
4, 342000, Note_on_c, 8, 67, 0
4, 342000, Note_on_c, 8, 71, 105
4, 342156, Note_on_c, 8, 71, 0
4, 342240, Note_on_c, 8, 74, 105
4, 342396, Note_on_c, 8, 74, 0
4, 342480, Note_on_c, 8, 74, 105
4, 342636, Note_on_c, 8, 74, 0
4, 342720, Note_on_c, 8, 74, 105
4, 342876, Note_on_c, 8, 74, 0
4, 342960, Note_on_c, 8, 74, 105
4, 343116, Note_on_c, 8, 74, 0
4, 343200, Note_on_c, 8, 74, 105
4, 343356, Note_on_c, 8, 74, 0
4, 343440, Note_on_c, 8, 72, 105
4, 343596, Note_on_c, 8, 72, 0
4, 343680, Note_on_c, 8, 67, 105
4, 343836, Note_on_c, 8, 67, 0
4, 343920, Note_on_c, 8, 62, 105
4, 344076, Note_on_c, 8, 62, 0
4, 344160, Note_on_c, 8, 64, 105
4, 344316, Note_on_c, 8, 64, 0
4, 344400, Note_on_c, 8, 66, 105
4, 344556, Note_on_c, 8, 66, 0
4, 344640, Note_on_c, 8, 67, 105
4, 344796, Note_on_c, 8, 67, 0
4, 344880, Note_on_c, 8, 67, 105
4, 345036, Note_on_c, 8, 67, 0
4, 345120, Note_on_c, 8, 69, 105
4, 345276, Note_on_c, 8, 69, 0
4, 345360, Note_on_c, 8, 69, 105
4, 345516, Note_on_c, 8, 69, 0
4, 345600, Note_on_c, 8, 71, 92
4, 345756, Note_on_c, 8, 71, 0
4, 345840, Note_on_c, 8, 54, 92
4, 345996, Note_on_c, 8, 54, 0
4, 346080, Note_on_c, 8, 55, 92
4, 346236, Note_on_c, 8, 55, 0
4, 346320, Note_on_c, 8, 57, 92
4, 346476, Note_on_c, 8, 57, 0
4, 346560, Note_on_c, 8, 59, 92
4, 346716, Note_on_c, 8, 59, 0
4, 346800, Note_on_c, 8, 59, 92
4, 346956, Note_on_c, 8, 59, 0
4, 347040, Note_on_c, 8, 60, 92
4, 347196, Note_on_c, 8, 60, 0
4, 347280, Note_on_c, 8, 60, 92
4, 347436, Note_on_c, 8, 60, 0
4, 347520, Note_on_c, 8, 62, 92
4, 347676, Note_on_c, 8, 62, 0
4, 347760, Note_on_c, 8, 62, 92
4, 347916, Note_on_c, 8, 62, 0
4, 348000, Note_on_c, 8, 63, 92
4, 348156, Note_on_c, 8, 63, 0
4, 348240, Note_on_c, 8, 63, 92
4, 348396, Note_on_c, 8, 63, 0
4, 348480, Note_on_c, 8, 64, 92
4, 348864, Note_on_c, 8, 64, 0
4, 349440, Note_on_c, 8, 57, 58
4, 350880, Note_on_c, 8, 57, 0
4, 350880, Note_on_c, 8, 55, 58
4, 351120, Note_on_c, 8, 55, 0
4, 351120, Note_on_c, 8, 54, 58
4, 351360, Note_on_c, 8, 54, 0
4, 351360, Note_on_c, 8, 55, 58
4, 351744, Note_on_c, 8, 55, 0
4, 353280, Note_on_c, 8, 57, 58
4, 354720, Note_on_c, 8, 57, 0
4, 354720, Note_on_c, 8, 55, 58
4, 354960, Note_on_c, 8, 55, 0
4, 354960, Note_on_c, 8, 54, 58
4, 355200, Note_on_c, 8, 54, 0
4, 355200, Note_on_c, 8, 55, 58
4, 355584, Note_on_c, 8, 55, 0
4, 356160, Note_on_c, 8, 67, 58
4, 356544, Note_on_c, 8, 67, 0
4, 357120, Note_on_c, 8, 64, 58
4, 357504, Note_on_c, 8, 64, 0
4, 358080, Note_on_c, 8, 69, 105
4, 358080, Note_on_c, 8, 62, 105
4, 358464, Note_on_c, 8, 62, 0
4, 358464, Note_on_c, 8, 69, 0
4, 359040, Note_on_c, 8, 55, 105
4, 359136, Note_on_c, 8, 55, 0
4, 359160, Note_on_c, 8, 55, 105
4, 359256, Note_on_c, 8, 55, 0
4, 359280, Note_on_c, 8, 55, 105
4, 359376, Note_on_c, 8, 55, 0
4, 359400, Note_on_c, 8, 55, 105
4, 359496, Note_on_c, 8, 55, 0
4, 359520, Note_on_c, 8, 55, 105
4, 359616, Note_on_c, 8, 55, 0
4, 359640, Note_on_c, 8, 55, 105
4, 359736, Note_on_c, 8, 55, 0
4, 359760, Note_on_c, 8, 55, 105
4, 359856, Note_on_c, 8, 55, 0
4, 359880, Note_on_c, 8, 55, 105
4, 359976, Note_on_c, 8, 55, 0
4, 360000, Note_on_c, 8, 55, 105
4, 360096, Note_on_c, 8, 55, 0
4, 360120, Note_on_c, 8, 55, 105
4, 360216, Note_on_c, 8, 55, 0
4, 360240, Note_on_c, 8, 55, 105
4, 360336, Note_on_c, 8, 55, 0
4, 360360, Note_on_c, 8, 55, 105
4, 360456, Note_on_c, 8, 55, 0
4, 360480, Note_on_c, 8, 55, 105
4, 360576, Note_on_c, 8, 55, 0
4, 360600, Note_on_c, 8, 55, 105
4, 360696, Note_on_c, 8, 55, 0
4, 360720, Note_on_c, 8, 55, 105
4, 360816, Note_on_c, 8, 55, 0
4, 360840, Note_on_c, 8, 55, 105
4, 360936, Note_on_c, 8, 55, 0
4, 360960, Note_on_c, 8, 55, 105
4, 361056, Note_on_c, 8, 55, 0
4, 361080, Note_on_c, 8, 55, 105
4, 361176, Note_on_c, 8, 55, 0
4, 361200, Note_on_c, 8, 55, 105
4, 361296, Note_on_c, 8, 55, 0
4, 361320, Note_on_c, 8, 55, 105
4, 361416, Note_on_c, 8, 55, 0
4, 361440, Note_on_c, 8, 55, 105
4, 361536, Note_on_c, 8, 55, 0
4, 361560, Note_on_c, 8, 55, 105
4, 361656, Note_on_c, 8, 55, 0
4, 361680, Note_on_c, 8, 55, 105
4, 361776, Note_on_c, 8, 55, 0
4, 361800, Note_on_c, 8, 55, 105
4, 361896, Note_on_c, 8, 55, 0
4, 361920, Note_on_c, 8, 55, 105
4, 362016, Note_on_c, 8, 55, 0
4, 362040, Note_on_c, 8, 55, 105
4, 362136, Note_on_c, 8, 55, 0
4, 362160, Note_on_c, 8, 55, 105
4, 362256, Note_on_c, 8, 55, 0
4, 362280, Note_on_c, 8, 55, 105
4, 362376, Note_on_c, 8, 55, 0
4, 362400, Note_on_c, 8, 57, 105
4, 362496, Note_on_c, 8, 57, 0
4, 362520, Note_on_c, 8, 57, 105
4, 362616, Note_on_c, 8, 57, 0
4, 362640, Note_on_c, 8, 57, 105
4, 362736, Note_on_c, 8, 57, 0
4, 362760, Note_on_c, 8, 57, 105
4, 362856, Note_on_c, 8, 57, 0
4, 362880, Note_on_c, 8, 55, 105
4, 362976, Note_on_c, 8, 55, 0
4, 363000, Note_on_c, 8, 55, 105
4, 363096, Note_on_c, 8, 55, 0
4, 363120, Note_on_c, 8, 55, 105
4, 363216, Note_on_c, 8, 55, 0
4, 363240, Note_on_c, 8, 55, 105
4, 363336, Note_on_c, 8, 55, 0
4, 363360, Note_on_c, 8, 55, 105
4, 363456, Note_on_c, 8, 55, 0
4, 363480, Note_on_c, 8, 55, 105
4, 363576, Note_on_c, 8, 55, 0
4, 363600, Note_on_c, 8, 55, 105
4, 363696, Note_on_c, 8, 55, 0
4, 363720, Note_on_c, 8, 55, 105
4, 363816, Note_on_c, 8, 55, 0
4, 363840, Note_on_c, 8, 55, 105
4, 363936, Note_on_c, 8, 55, 0
4, 363960, Note_on_c, 8, 55, 105
4, 364056, Note_on_c, 8, 55, 0
4, 364080, Note_on_c, 8, 55, 105
4, 364176, Note_on_c, 8, 55, 0
4, 364200, Note_on_c, 8, 55, 105
4, 364296, Note_on_c, 8, 55, 0
4, 364320, Note_on_c, 8, 55, 105
4, 364416, Note_on_c, 8, 55, 0
4, 364440, Note_on_c, 8, 55, 105
4, 364536, Note_on_c, 8, 55, 0
4, 364560, Note_on_c, 8, 55, 105
4, 364656, Note_on_c, 8, 55, 0
4, 364680, Note_on_c, 8, 55, 105
4, 364776, Note_on_c, 8, 55, 0
4, 364800, Note_on_c, 8, 55, 105
4, 364896, Note_on_c, 8, 55, 0
4, 364920, Note_on_c, 8, 55, 105
4, 365016, Note_on_c, 8, 55, 0
4, 365040, Note_on_c, 8, 55, 105
4, 365136, Note_on_c, 8, 55, 0
4, 365160, Note_on_c, 8, 55, 105
4, 365256, Note_on_c, 8, 55, 0
4, 365280, Note_on_c, 8, 55, 105
4, 365376, Note_on_c, 8, 55, 0
4, 365400, Note_on_c, 8, 55, 105
4, 365496, Note_on_c, 8, 55, 0
4, 365520, Note_on_c, 8, 55, 105
4, 365616, Note_on_c, 8, 55, 0
4, 365640, Note_on_c, 8, 55, 105
4, 365736, Note_on_c, 8, 55, 0
4, 365760, Note_on_c, 8, 55, 105
4, 365856, Note_on_c, 8, 55, 0
4, 365880, Note_on_c, 8, 55, 105
4, 365976, Note_on_c, 8, 55, 0
4, 366000, Note_on_c, 8, 55, 105
4, 366096, Note_on_c, 8, 55, 0
4, 366120, Note_on_c, 8, 55, 105
4, 366216, Note_on_c, 8, 55, 0
4, 366240, Note_on_c, 8, 57, 105
4, 366336, Note_on_c, 8, 57, 0
4, 366360, Note_on_c, 8, 57, 105
4, 366456, Note_on_c, 8, 57, 0
4, 366480, Note_on_c, 8, 57, 105
4, 366576, Note_on_c, 8, 57, 0
4, 366600, Note_on_c, 8, 57, 105
4, 366696, Note_on_c, 8, 57, 0
4, 366720, Note_on_c, 8, 55, 105
4, 366888, Note_on_c, 8, 55, 0
4, 366960, Note_on_c, 8, 59, 105
4, 367128, Note_on_c, 8, 59, 0
4, 367200, Note_on_c, 8, 62, 105
4, 367368, Note_on_c, 8, 62, 0
4, 367440, Note_on_c, 8, 67, 105
4, 367608, Note_on_c, 8, 67, 0
4, 367680, Note_on_c, 8, 71, 105
4, 367848, Note_on_c, 8, 71, 0
4, 367920, Note_on_c, 8, 67, 105
4, 368088, Note_on_c, 8, 67, 0
4, 368160, Note_on_c, 8, 74, 105
4, 368328, Note_on_c, 8, 74, 0
4, 368400, Note_on_c, 8, 71, 105
4, 368568, Note_on_c, 8, 71, 0
4, 368640, Note_on_c, 8, 67, 105
4, 368976, Note_on_c, 8, 67, 0
4, 369120, Note_on_c, 8, 55, 105
4, 369372, Note_on_c, 8, 55, 0
4, 369480, Note_on_c, 8, 55, 105
4, 369564, Note_on_c, 8, 55, 0
4, 369600, Note_on_c, 8, 55, 105
4, 369984, Note_on_c, 8, 55, 0
4, 369984, End_track
5, 0, Start_track
5, 0, Program_c, 10, 48
5, 0, Control_c, 10, 7, 127
5, 0, Control_c, 10, 10, 92
5, 0, Control_c, 10, 91, 85
5, 1920, Note_on_c, 10, 55, 105
5, 2304, Note_on_c, 10, 55, 0
5, 2640, Note_on_c, 10, 50, 105
5, 2784, Note_on_c, 10, 50, 0
5, 2880, Note_on_c, 10, 55, 105
5, 3264, Note_on_c, 10, 55, 0
5, 3600, Note_on_c, 10, 50, 105
5, 3744, Note_on_c, 10, 50, 0
5, 3840, Note_on_c, 10, 55, 105
5, 3984, Note_on_c, 10, 55, 0
5, 4080, Note_on_c, 10, 50, 105
5, 4224, Note_on_c, 10, 50, 0
5, 4320, Note_on_c, 10, 55, 105
5, 4464, Note_on_c, 10, 55, 0
5, 4560, Note_on_c, 10, 59, 105
5, 4704, Note_on_c, 10, 59, 0
5, 4800, Note_on_c, 10, 62, 105
5, 5184, Note_on_c, 10, 62, 0
5, 5760, Note_on_c, 10, 60, 105
5, 6144, Note_on_c, 10, 60, 0
5, 6480, Note_on_c, 10, 57, 105
5, 6624, Note_on_c, 10, 57, 0
5, 6720, Note_on_c, 10, 60, 105
5, 7104, Note_on_c, 10, 60, 0
5, 7440, Note_on_c, 10, 57, 105
5, 7584, Note_on_c, 10, 57, 0
5, 7680, Note_on_c, 10, 60, 105
5, 7824, Note_on_c, 10, 60, 0
5, 7920, Note_on_c, 10, 57, 105
5, 8064, Note_on_c, 10, 57, 0
5, 8160, Note_on_c, 10, 54, 105
5, 8304, Note_on_c, 10, 54, 0
5, 8400, Note_on_c, 10, 57, 105
5, 8544, Note_on_c, 10, 57, 0
5, 8640, Note_on_c, 10, 50, 105
5, 9024, Note_on_c, 10, 50, 0
5, 9600, Note_on_c, 10, 55, 105
5, 9756, Note_on_c, 10, 55, 0
5, 9840, Note_on_c, 10, 55, 105
5, 9996, Note_on_c, 10, 55, 0
5, 10080, Note_on_c, 10, 55, 105
5, 10236, Note_on_c, 10, 55, 0
5, 10320, Note_on_c, 10, 55, 105
5, 10476, Note_on_c, 10, 55, 0
5, 10560, Note_on_c, 10, 55, 105
5, 10716, Note_on_c, 10, 55, 0
5, 10800, Note_on_c, 10, 55, 105
5, 10956, Note_on_c, 10, 55, 0
5, 11040, Note_on_c, 10, 55, 105
5, 11196, Note_on_c, 10, 55, 0
5, 11280, Note_on_c, 10, 55, 105
5, 11436, Note_on_c, 10, 55, 0
5, 11520, Note_on_c, 10, 55, 105
5, 11676, Note_on_c, 10, 55, 0
5, 11760, Note_on_c, 10, 55, 105
5, 11916, Note_on_c, 10, 55, 0
5, 12000, Note_on_c, 10, 55, 105
5, 12156, Note_on_c, 10, 55, 0
5, 12240, Note_on_c, 10, 55, 105
5, 12396, Note_on_c, 10, 55, 0
5, 12480, Note_on_c, 10, 55, 105
5, 12636, Note_on_c, 10, 55, 0
5, 12720, Note_on_c, 10, 55, 105
5, 12876, Note_on_c, 10, 55, 0
5, 12960, Note_on_c, 10, 55, 105
5, 13116, Note_on_c, 10, 55, 0
5, 13200, Note_on_c, 10, 55, 105
5, 13356, Note_on_c, 10, 55, 0
5, 13440, Note_on_c, 10, 55, 105
5, 13596, Note_on_c, 10, 55, 0
5, 13680, Note_on_c, 10, 55, 105
5, 13836, Note_on_c, 10, 55, 0
5, 13920, Note_on_c, 10, 55, 105
5, 14076, Note_on_c, 10, 55, 0
5, 14160, Note_on_c, 10, 55, 105
5, 14316, Note_on_c, 10, 55, 0
5, 14400, Note_on_c, 10, 55, 105
5, 14556, Note_on_c, 10, 55, 0
5, 14640, Note_on_c, 10, 55, 105
5, 14796, Note_on_c, 10, 55, 0
5, 14880, Note_on_c, 10, 55, 105
5, 15036, Note_on_c, 10, 55, 0
5, 15120, Note_on_c, 10, 55, 105
5, 15276, Note_on_c, 10, 55, 0
5, 15360, Note_on_c, 10, 55, 105
5, 15516, Note_on_c, 10, 55, 0
5, 15600, Note_on_c, 10, 55, 105
5, 15756, Note_on_c, 10, 55, 0
5, 15840, Note_on_c, 10, 55, 105
5, 15996, Note_on_c, 10, 55, 0
5, 16080, Note_on_c, 10, 55, 105
5, 16236, Note_on_c, 10, 55, 0
5, 16320, Note_on_c, 10, 55, 105
5, 16476, Note_on_c, 10, 55, 0
5, 16560, Note_on_c, 10, 55, 105
5, 16716, Note_on_c, 10, 55, 0
5, 16800, Note_on_c, 10, 55, 105
5, 16956, Note_on_c, 10, 55, 0
5, 17040, Note_on_c, 10, 55, 105
5, 17196, Note_on_c, 10, 55, 0
5, 17280, Note_on_c, 10, 55, 105
5, 17436, Note_on_c, 10, 55, 0
5, 17520, Note_on_c, 10, 55, 105
5, 17676, Note_on_c, 10, 55, 0
5, 17760, Note_on_c, 10, 57, 105
5, 17916, Note_on_c, 10, 57, 0
5, 18000, Note_on_c, 10, 57, 105
5, 18156, Note_on_c, 10, 57, 0
5, 18240, Note_on_c, 10, 59, 105
5, 18396, Note_on_c, 10, 59, 0
5, 18480, Note_on_c, 10, 59, 105
5, 18636, Note_on_c, 10, 59, 0
5, 18720, Note_on_c, 10, 54, 105
5, 18876, Note_on_c, 10, 54, 0
5, 18960, Note_on_c, 10, 54, 105
5, 19116, Note_on_c, 10, 54, 0
5, 19200, Note_on_c, 10, 55, 105
5, 19356, Note_on_c, 10, 55, 0
5, 19440, Note_on_c, 10, 55, 105
5, 19596, Note_on_c, 10, 55, 0
5, 19680, Note_on_c, 10, 57, 105
5, 19836, Note_on_c, 10, 57, 0
5, 19920, Note_on_c, 10, 57, 105
5, 20076, Note_on_c, 10, 57, 0
5, 20160, Note_on_c, 10, 59, 92
5, 20544, Note_on_c, 10, 59, 0
5, 23040, Note_on_c, 10, 50, 58
5, 24000, Note_on_c, 10, 50, 0
5, 24000, Note_on_c, 10, 52, 58
5, 24768, Note_on_c, 10, 52, 0
5, 24960, Note_on_c, 10, 48, 58
5, 25272, Note_on_c, 10, 48, 0
5, 25440, Note_on_c, 10, 48, 58
5, 25752, Note_on_c, 10, 48, 0
5, 25920, Note_on_c, 10, 50, 58
5, 26232, Note_on_c, 10, 50, 0
5, 26400, Note_on_c, 10, 50, 58
5, 26712, Note_on_c, 10, 50, 0
5, 26880, Note_on_c, 10, 47, 58
5, 27072, Note_on_c, 10, 47, 0
5, 27360, Note_on_c, 10, 50, 58
5, 27552, Note_on_c, 10, 50, 0
5, 27840, Note_on_c, 10, 55, 58
5, 28224, Note_on_c, 10, 55, 0
5, 30720, Note_on_c, 10, 50, 58
5, 31680, Note_on_c, 10, 50, 0
5, 31680, Note_on_c, 10, 52, 58
5, 32448, Note_on_c, 10, 52, 0
5, 32640, Note_on_c, 10, 48, 58
5, 32952, Note_on_c, 10, 48, 0
5, 33120, Note_on_c, 10, 48, 58
5, 33432, Note_on_c, 10, 48, 0
5, 33600, Note_on_c, 10, 50, 58
5, 33912, Note_on_c, 10, 50, 0
5, 34080, Note_on_c, 10, 50, 58
5, 34392, Note_on_c, 10, 50, 0
5, 34560, Note_on_c, 10, 55, 112
5, 34752, Note_on_c, 10, 55, 0
5, 34800, Note_on_c, 10, 55, 92
5, 34992, Note_on_c, 10, 55, 0
5, 35040, Note_on_c, 10, 55, 92
5, 35232, Note_on_c, 10, 55, 0
5, 35280, Note_on_c, 10, 55, 92
5, 35472, Note_on_c, 10, 55, 0
5, 35520, Note_on_c, 10, 55, 58
5, 35712, Note_on_c, 10, 55, 0
5, 35760, Note_on_c, 10, 55, 58
5, 35952, Note_on_c, 10, 55, 0
5, 36000, Note_on_c, 10, 55, 58
5, 36192, Note_on_c, 10, 55, 0
5, 36240, Note_on_c, 10, 55, 58
5, 36432, Note_on_c, 10, 55, 0
5, 36480, Note_on_c, 10, 55, 112
5, 36672, Note_on_c, 10, 55, 0
5, 36720, Note_on_c, 10, 55, 92
5, 36912, Note_on_c, 10, 55, 0
5, 36960, Note_on_c, 10, 55, 92
5, 37152, Note_on_c, 10, 55, 0
5, 37200, Note_on_c, 10, 55, 92
5, 37392, Note_on_c, 10, 55, 0
5, 37440, Note_on_c, 10, 55, 58
5, 37632, Note_on_c, 10, 55, 0
5, 37680, Note_on_c, 10, 55, 58
5, 37872, Note_on_c, 10, 55, 0
5, 37920, Note_on_c, 10, 55, 58
5, 38112, Note_on_c, 10, 55, 0
5, 38160, Note_on_c, 10, 55, 58
5, 38352, Note_on_c, 10, 55, 0
5, 38400, Note_on_c, 10, 55, 58
5, 38592, Note_on_c, 10, 55, 0
5, 38640, Note_on_c, 10, 55, 58
5, 38832, Note_on_c, 10, 55, 0
5, 38880, Note_on_c, 10, 55, 58
5, 39072, Note_on_c, 10, 55, 0
5, 39120, Note_on_c, 10, 55, 58
5, 39312, Note_on_c, 10, 55, 0
5, 39360, Note_on_c, 10, 55, 58
5, 39552, Note_on_c, 10, 55, 0
5, 39600, Note_on_c, 10, 55, 72
5, 39792, Note_on_c, 10, 55, 0
5, 39840, Note_on_c, 10, 55, 72
5, 40032, Note_on_c, 10, 55, 0
5, 40080, Note_on_c, 10, 55, 72
5, 40272, Note_on_c, 10, 55, 0
5, 40320, Note_on_c, 10, 55, 72
5, 40512, Note_on_c, 10, 55, 0
5, 40560, Note_on_c, 10, 55, 81
5, 40752, Note_on_c, 10, 55, 0
5, 40800, Note_on_c, 10, 54, 81
5, 40992, Note_on_c, 10, 54, 0
5, 41040, Note_on_c, 10, 54, 81
5, 41232, Note_on_c, 10, 54, 0
5, 41280, Note_on_c, 10, 55, 92
5, 41472, Note_on_c, 10, 55, 0
5, 41520, Note_on_c, 10, 55, 92
5, 41712, Note_on_c, 10, 55, 0
5, 41760, Note_on_c, 10, 52, 105
5, 41952, Note_on_c, 10, 52, 0
5, 42000, Note_on_c, 10, 52, 105
5, 42192, Note_on_c, 10, 52, 0
5, 42240, Note_on_c, 10, 50, 105
5, 42432, Note_on_c, 10, 50, 0
5, 42480, Note_on_c, 10, 50, 105
5, 42672, Note_on_c, 10, 50, 0
5, 42720, Note_on_c, 10, 50, 105
5, 42912, Note_on_c, 10, 50, 0
5, 42960, Note_on_c, 10, 50, 105
5, 43152, Note_on_c, 10, 50, 0
5, 43200, Note_on_c, 10, 50, 105
5, 43392, Note_on_c, 10, 50, 0
5, 43440, Note_on_c, 10, 50, 105
5, 43632, Note_on_c, 10, 50, 0
5, 43680, Note_on_c, 10, 50, 105
5, 43872, Note_on_c, 10, 50, 0
5, 43920, Note_on_c, 10, 50, 105
5, 44112, Note_on_c, 10, 50, 0
5, 44160, Note_on_c, 10, 50, 105
5, 44352, Note_on_c, 10, 50, 0
5, 44400, Note_on_c, 10, 50, 105
5, 44592, Note_on_c, 10, 50, 0
5, 44640, Note_on_c, 10, 50, 105
5, 44832, Note_on_c, 10, 50, 0
5, 44880, Note_on_c, 10, 50, 105
5, 45072, Note_on_c, 10, 50, 0
5, 45120, Note_on_c, 10, 50, 105
5, 45312, Note_on_c, 10, 50, 0
5, 45360, Note_on_c, 10, 50, 105
5, 45552, Note_on_c, 10, 50, 0
5, 45600, Note_on_c, 10, 50, 105
5, 45792, Note_on_c, 10, 50, 0
5, 45840, Note_on_c, 10, 50, 105
5, 46032, Note_on_c, 10, 50, 0
5, 46080, Note_on_c, 10, 50, 105
5, 46236, Note_on_c, 10, 50, 0
5, 46320, Note_on_c, 10, 52, 105
5, 46476, Note_on_c, 10, 52, 0
5, 46560, Note_on_c, 10, 54, 105
5, 46716, Note_on_c, 10, 54, 0
5, 46800, Note_on_c, 10, 52, 105
5, 46956, Note_on_c, 10, 52, 0
5, 47040, Note_on_c, 10, 50, 105
5, 47196, Note_on_c, 10, 50, 0
5, 47280, Note_on_c, 10, 52, 105
5, 47436, Note_on_c, 10, 52, 0
5, 47520, Note_on_c, 10, 54, 105
5, 47676, Note_on_c, 10, 54, 0
5, 47760, Note_on_c, 10, 50, 105
5, 47916, Note_on_c, 10, 50, 0
5, 48000, Note_on_c, 10, 55, 105
5, 48156, Note_on_c, 10, 55, 0
5, 48240, Note_on_c, 10, 57, 105
5, 48396, Note_on_c, 10, 57, 0
5, 48480, Note_on_c, 10, 59, 105
5, 48636, Note_on_c, 10, 59, 0
5, 48720, Note_on_c, 10, 57, 105
5, 48876, Note_on_c, 10, 57, 0
5, 48960, Note_on_c, 10, 55, 105
5, 49116, Note_on_c, 10, 55, 0
5, 49200, Note_on_c, 10, 57, 105
5, 49356, Note_on_c, 10, 57, 0
5, 49440, Note_on_c, 10, 59, 105
5, 49596, Note_on_c, 10, 59, 0
5, 49680, Note_on_c, 10, 56, 105
5, 49836, Note_on_c, 10, 56, 0
5, 49920, Note_on_c, 10, 57, 105
5, 50076, Note_on_c, 10, 57, 0
5, 50160, Note_on_c, 10, 57, 105
5, 50316, Note_on_c, 10, 57, 0
5, 50400, Note_on_c, 10, 57, 105
5, 50556, Note_on_c, 10, 57, 0
5, 50640, Note_on_c, 10, 57, 105
5, 50796, Note_on_c, 10, 57, 0
5, 50880, Note_on_c, 10, 57, 105
5, 51036, Note_on_c, 10, 57, 0
5, 51120, Note_on_c, 10, 57, 105
5, 51276, Note_on_c, 10, 57, 0
5, 51360, Note_on_c, 10, 57, 105
5, 51516, Note_on_c, 10, 57, 0
5, 51600, Note_on_c, 10, 57, 105
5, 51756, Note_on_c, 10, 57, 0
5, 51840, Note_on_c, 10, 57, 105
5, 51996, Note_on_c, 10, 57, 0
5, 52080, Note_on_c, 10, 45, 105
5, 52236, Note_on_c, 10, 45, 0
5, 52320, Note_on_c, 10, 45, 105
5, 52476, Note_on_c, 10, 45, 0
5, 52560, Note_on_c, 10, 45, 105
5, 52716, Note_on_c, 10, 45, 0
5, 52800, Note_on_c, 10, 45, 92
5, 53184, Note_on_c, 10, 45, 0
5, 55200, Note_on_c, 10, 51, 58
5, 55392, Note_on_c, 10, 51, 0
5, 55680, Note_on_c, 10, 52, 58
5, 55872, Note_on_c, 10, 52, 0
5, 56160, Note_on_c, 10, 50, 58
5, 56352, Note_on_c, 10, 50, 0
5, 56640, Note_on_c, 10, 49, 58
5, 56832, Note_on_c, 10, 49, 0
5, 57120, Note_on_c, 10, 45, 58
5, 57312, Note_on_c, 10, 45, 0
5, 58080, Note_on_c, 10, 46, 58
5, 58464, Note_on_c, 10, 46, 0
5, 58560, Note_on_c, 10, 47, 58
5, 58752, Note_on_c, 10, 47, 0
5, 59040, Note_on_c, 10, 43, 58
5, 59232, Note_on_c, 10, 43, 0
5, 59520, Note_on_c, 10, 45, 58
5, 59904, Note_on_c, 10, 45, 0
5, 60000, Note_on_c, 10, 57, 78
5, 60720, Note_on_c, 10, 57, 0
5, 60720, Note_on_c, 10, 56, 58
5, 60960, Note_on_c, 10, 56, 0
5, 60960, Note_on_c, 10, 55, 58
5, 61200, Note_on_c, 10, 55, 0
5, 61200, Note_on_c, 10, 52, 58
5, 61440, Note_on_c, 10, 52, 0
5, 61440, Note_on_c, 10, 50, 58
5, 61632, Note_on_c, 10, 50, 0
5, 61920, Note_on_c, 10, 52, 58
5, 62112, Note_on_c, 10, 52, 0
5, 62400, Note_on_c, 10, 54, 58
5, 62592, Note_on_c, 10, 54, 0
5, 62880, Note_on_c, 10, 51, 58
5, 63072, Note_on_c, 10, 51, 0
5, 63360, Note_on_c, 10, 52, 58
5, 63552, Note_on_c, 10, 52, 0
5, 63840, Note_on_c, 10, 50, 58
5, 64032, Note_on_c, 10, 50, 0
5, 64320, Note_on_c, 10, 49, 58
5, 64512, Note_on_c, 10, 49, 0
5, 64800, Note_on_c, 10, 45, 58
5, 64992, Note_on_c, 10, 45, 0
5, 65280, Note_on_c, 10, 47, 58
5, 65472, Note_on_c, 10, 47, 0
5, 65760, Note_on_c, 10, 55, 58
5, 65952, Note_on_c, 10, 55, 0
5, 66240, Note_on_c, 10, 57, 58
5, 66432, Note_on_c, 10, 57, 0
5, 66720, Note_on_c, 10, 45, 58
5, 66912, Note_on_c, 10, 45, 0
5, 67200, Note_on_c, 10, 50, 58
5, 67584, Note_on_c, 10, 50, 0
5, 69120, Note_on_c, 10, 45, 58
5, 69504, Note_on_c, 10, 45, 0
5, 71040, Note_on_c, 10, 50, 58
5, 71424, Note_on_c, 10, 50, 0
5, 72960, Note_on_c, 10, 45, 58
5, 73344, Note_on_c, 10, 45, 0
5, 75120, Note_on_c, 10, 50, 105
5, 75276, Note_on_c, 10, 50, 0
5, 75360, Note_on_c, 10, 54, 105
5, 75516, Note_on_c, 10, 54, 0
5, 75600, Note_on_c, 10, 52, 105
5, 75756, Note_on_c, 10, 52, 0
5, 75840, Note_on_c, 10, 51, 105
5, 75996, Note_on_c, 10, 51, 0
5, 76080, Note_on_c, 10, 47, 105
5, 76236, Note_on_c, 10, 47, 0
5, 76320, Note_on_c, 10, 49, 105
5, 76476, Note_on_c, 10, 49, 0
5, 76560, Note_on_c, 10, 51, 105
5, 76716, Note_on_c, 10, 51, 0
5, 76800, Note_on_c, 10, 52, 105
5, 76956, Note_on_c, 10, 52, 0
5, 77040, Note_on_c, 10, 55, 105
5, 77196, Note_on_c, 10, 55, 0
5, 77280, Note_on_c, 10, 52, 105
5, 77436, Note_on_c, 10, 52, 0
5, 77520, Note_on_c, 10, 50, 105
5, 77676, Note_on_c, 10, 50, 0
5, 77760, Note_on_c, 10, 49, 105
5, 77916, Note_on_c, 10, 49, 0
5, 78000, Note_on_c, 10, 45, 105
5, 78156, Note_on_c, 10, 45, 0
5, 78240, Note_on_c, 10, 47, 105
5, 78396, Note_on_c, 10, 47, 0
5, 78480, Note_on_c, 10, 49, 105
5, 78636, Note_on_c, 10, 49, 0
5, 78720, Note_on_c, 10, 50, 105
5, 78876, Note_on_c, 10, 50, 0
5, 78960, Note_on_c, 10, 50, 105
5, 79116, Note_on_c, 10, 50, 0
5, 79200, Note_on_c, 10, 52, 105
5, 79356, Note_on_c, 10, 52, 0
5, 79440, Note_on_c, 10, 54, 105
5, 79596, Note_on_c, 10, 54, 0
5, 79680, Note_on_c, 10, 55, 105
5, 79836, Note_on_c, 10, 55, 0
5, 79920, Note_on_c, 10, 55, 105
5, 80076, Note_on_c, 10, 55, 0
5, 80160, Note_on_c, 10, 55, 105
5, 80316, Note_on_c, 10, 55, 0
5, 80400, Note_on_c, 10, 55, 105
5, 80556, Note_on_c, 10, 55, 0
5, 80640, Note_on_c, 10, 57, 105
5, 80796, Note_on_c, 10, 57, 0
5, 80880, Note_on_c, 10, 57, 105
5, 81036, Note_on_c, 10, 57, 0
5, 81120, Note_on_c, 10, 57, 105
5, 81276, Note_on_c, 10, 57, 0
5, 81360, Note_on_c, 10, 57, 105
5, 81516, Note_on_c, 10, 57, 0
5, 81600, Note_on_c, 10, 45, 105
5, 81756, Note_on_c, 10, 45, 0
5, 81840, Note_on_c, 10, 45, 105
5, 81996, Note_on_c, 10, 45, 0
5, 82080, Note_on_c, 10, 45, 105
5, 82236, Note_on_c, 10, 45, 0
5, 82320, Note_on_c, 10, 45, 105
5, 82476, Note_on_c, 10, 45, 0
5, 82560, Note_on_c, 10, 50, 92
5, 82944, Note_on_c, 10, 50, 0
5, 84480, Note_on_c, 10, 45, 58
5, 84864, Note_on_c, 10, 45, 0
5, 86400, Note_on_c, 10, 50, 58
5, 86784, Note_on_c, 10, 50, 0
5, 88320, Note_on_c, 10, 45, 58
5, 88704, Note_on_c, 10, 45, 0
5, 90480, Note_on_c, 10, 50, 105
5, 90636, Note_on_c, 10, 50, 0
5, 90720, Note_on_c, 10, 54, 105
5, 90876, Note_on_c, 10, 54, 0
5, 90960, Note_on_c, 10, 52, 105
5, 91116, Note_on_c, 10, 52, 0
5, 91200, Note_on_c, 10, 51, 105
5, 91356, Note_on_c, 10, 51, 0
5, 91440, Note_on_c, 10, 47, 105
5, 91596, Note_on_c, 10, 47, 0
5, 91680, Note_on_c, 10, 49, 105
5, 91836, Note_on_c, 10, 49, 0
5, 91920, Note_on_c, 10, 51, 105
5, 92076, Note_on_c, 10, 51, 0
5, 92160, Note_on_c, 10, 52, 105
5, 92316, Note_on_c, 10, 52, 0
5, 92400, Note_on_c, 10, 55, 105
5, 92556, Note_on_c, 10, 55, 0
5, 92640, Note_on_c, 10, 52, 105
5, 92796, Note_on_c, 10, 52, 0
5, 92880, Note_on_c, 10, 50, 105
5, 93036, Note_on_c, 10, 50, 0
5, 93120, Note_on_c, 10, 49, 105
5, 93276, Note_on_c, 10, 49, 0
5, 93360, Note_on_c, 10, 45, 105
5, 93516, Note_on_c, 10, 45, 0
5, 93600, Note_on_c, 10, 47, 105
5, 93756, Note_on_c, 10, 47, 0
5, 93840, Note_on_c, 10, 49, 105
5, 93996, Note_on_c, 10, 49, 0
5, 94080, Note_on_c, 10, 50, 105
5, 94236, Note_on_c, 10, 50, 0
5, 94320, Note_on_c, 10, 50, 105
5, 94476, Note_on_c, 10, 50, 0
5, 94560, Note_on_c, 10, 52, 105
5, 94716, Note_on_c, 10, 52, 0
5, 94800, Note_on_c, 10, 54, 105
5, 94956, Note_on_c, 10, 54, 0
5, 95040, Note_on_c, 10, 55, 105
5, 95196, Note_on_c, 10, 55, 0
5, 95280, Note_on_c, 10, 55, 105
5, 95436, Note_on_c, 10, 55, 0
5, 95520, Note_on_c, 10, 55, 105
5, 95676, Note_on_c, 10, 55, 0
5, 95760, Note_on_c, 10, 55, 105
5, 95916, Note_on_c, 10, 55, 0
5, 96000, Note_on_c, 10, 57, 105
5, 96156, Note_on_c, 10, 57, 0
5, 96240, Note_on_c, 10, 57, 105
5, 96396, Note_on_c, 10, 57, 0
5, 96480, Note_on_c, 10, 57, 105
5, 96636, Note_on_c, 10, 57, 0
5, 96720, Note_on_c, 10, 57, 105
5, 96876, Note_on_c, 10, 57, 0
5, 96960, Note_on_c, 10, 45, 105
5, 97116, Note_on_c, 10, 45, 0
5, 97200, Note_on_c, 10, 45, 105
5, 97356, Note_on_c, 10, 45, 0
5, 97440, Note_on_c, 10, 45, 105
5, 97596, Note_on_c, 10, 45, 0
5, 97680, Note_on_c, 10, 45, 105
5, 97836, Note_on_c, 10, 45, 0
5, 97920, Note_on_c, 10, 50, 105
5, 98076, Note_on_c, 10, 50, 0
5, 98160, Note_on_c, 10, 45, 105
5, 98316, Note_on_c, 10, 45, 0
5, 98400, Note_on_c, 10, 47, 105
5, 98556, Note_on_c, 10, 47, 0
5, 98640, Note_on_c, 10, 49, 105
5, 98796, Note_on_c, 10, 49, 0
5, 98880, Note_on_c, 10, 50, 105
5, 99036, Note_on_c, 10, 50, 0
5, 99120, Note_on_c, 10, 50, 105
5, 99276, Note_on_c, 10, 50, 0
5, 99360, Note_on_c, 10, 52, 105
5, 99516, Note_on_c, 10, 52, 0
5, 99600, Note_on_c, 10, 52, 105
5, 99756, Note_on_c, 10, 52, 0
5, 99840, Note_on_c, 10, 54, 105
5, 99996, Note_on_c, 10, 54, 0
5, 100080, Note_on_c, 10, 49, 105
5, 100236, Note_on_c, 10, 49, 0
5, 100320, Note_on_c, 10, 50, 105
5, 100476, Note_on_c, 10, 50, 0
5, 100560, Note_on_c, 10, 52, 105
5, 100716, Note_on_c, 10, 52, 0
5, 100800, Note_on_c, 10, 54, 105
5, 100956, Note_on_c, 10, 54, 0
5, 101040, Note_on_c, 10, 54, 105
5, 101196, Note_on_c, 10, 54, 0
5, 101280, Note_on_c, 10, 55, 105
5, 101436, Note_on_c, 10, 55, 0
5, 101520, Note_on_c, 10, 55, 105
5, 101676, Note_on_c, 10, 55, 0
5, 101760, Note_on_c, 10, 57, 105
5, 101916, Note_on_c, 10, 57, 0
5, 102000, Note_on_c, 10, 57, 105
5, 102156, Note_on_c, 10, 57, 0
5, 102240, Note_on_c, 10, 58, 105
5, 102396, Note_on_c, 10, 58, 0
5, 102480, Note_on_c, 10, 58, 105
5, 102636, Note_on_c, 10, 58, 0
5, 102720, Note_on_c, 10, 59, 92
5, 103104, Note_on_c, 10, 59, 0
5, 103680, Note_on_c, 10, 55, 58
5, 104640, Note_on_c, 10, 55, 0
5, 104640, Note_on_c, 10, 57, 58
5, 105552, Note_on_c, 10, 57, 0
5, 105600, Note_on_c, 10, 50, 58
5, 105792, Note_on_c, 10, 50, 0
5, 106080, Note_on_c, 10, 50, 58
5, 106272, Note_on_c, 10, 50, 0
5, 106560, Note_on_c, 10, 50, 58
5, 106752, Note_on_c, 10, 50, 0
5, 107520, Note_on_c, 10, 55, 105
5, 107904, Note_on_c, 10, 55, 0
5, 108240, Note_on_c, 10, 50, 105
5, 108384, Note_on_c, 10, 50, 0
5, 108480, Note_on_c, 10, 55, 105
5, 108864, Note_on_c, 10, 55, 0
5, 109200, Note_on_c, 10, 50, 105
5, 109344, Note_on_c, 10, 50, 0
5, 109440, Note_on_c, 10, 55, 105
5, 109584, Note_on_c, 10, 55, 0
5, 109680, Note_on_c, 10, 50, 105
5, 109824, Note_on_c, 10, 50, 0
5, 109920, Note_on_c, 10, 55, 105
5, 110064, Note_on_c, 10, 55, 0
5, 110160, Note_on_c, 10, 59, 105
5, 110304, Note_on_c, 10, 59, 0
5, 110400, Note_on_c, 10, 62, 105
5, 110784, Note_on_c, 10, 62, 0
5, 111360, Note_on_c, 10, 60, 105
5, 111744, Note_on_c, 10, 60, 0
5, 112080, Note_on_c, 10, 57, 105
5, 112224, Note_on_c, 10, 57, 0
5, 112320, Note_on_c, 10, 60, 105
5, 112704, Note_on_c, 10, 60, 0
5, 113040, Note_on_c, 10, 57, 105
5, 113184, Note_on_c, 10, 57, 0
5, 113280, Note_on_c, 10, 60, 105
5, 113424, Note_on_c, 10, 60, 0
5, 113520, Note_on_c, 10, 57, 105
5, 113664, Note_on_c, 10, 57, 0
5, 113760, Note_on_c, 10, 54, 105
5, 113904, Note_on_c, 10, 54, 0
5, 114000, Note_on_c, 10, 57, 105
5, 114144, Note_on_c, 10, 57, 0
5, 114240, Note_on_c, 10, 50, 105
5, 114624, Note_on_c, 10, 50, 0
5, 115200, Note_on_c, 10, 55, 105
5, 115356, Note_on_c, 10, 55, 0
5, 115440, Note_on_c, 10, 55, 105
5, 115596, Note_on_c, 10, 55, 0
5, 115680, Note_on_c, 10, 55, 105
5, 115836, Note_on_c, 10, 55, 0
5, 115920, Note_on_c, 10, 55, 105
5, 116076, Note_on_c, 10, 55, 0
5, 116160, Note_on_c, 10, 55, 105
5, 116316, Note_on_c, 10, 55, 0
5, 116400, Note_on_c, 10, 55, 105
5, 116556, Note_on_c, 10, 55, 0
5, 116640, Note_on_c, 10, 55, 105
5, 116796, Note_on_c, 10, 55, 0
5, 116880, Note_on_c, 10, 55, 105
5, 117036, Note_on_c, 10, 55, 0
5, 117120, Note_on_c, 10, 55, 105
5, 117276, Note_on_c, 10, 55, 0
5, 117360, Note_on_c, 10, 55, 105
5, 117516, Note_on_c, 10, 55, 0
5, 117600, Note_on_c, 10, 55, 105
5, 117756, Note_on_c, 10, 55, 0
5, 117840, Note_on_c, 10, 55, 105
5, 117996, Note_on_c, 10, 55, 0
5, 118080, Note_on_c, 10, 55, 105
5, 118236, Note_on_c, 10, 55, 0
5, 118320, Note_on_c, 10, 55, 105
5, 118476, Note_on_c, 10, 55, 0
5, 118560, Note_on_c, 10, 55, 105
5, 118716, Note_on_c, 10, 55, 0
5, 118800, Note_on_c, 10, 55, 105
5, 118956, Note_on_c, 10, 55, 0
5, 119040, Note_on_c, 10, 55, 105
5, 119196, Note_on_c, 10, 55, 0
5, 119280, Note_on_c, 10, 55, 105
5, 119436, Note_on_c, 10, 55, 0
5, 119520, Note_on_c, 10, 55, 105
5, 119676, Note_on_c, 10, 55, 0
5, 119760, Note_on_c, 10, 55, 105
5, 119916, Note_on_c, 10, 55, 0
5, 120000, Note_on_c, 10, 55, 105
5, 120156, Note_on_c, 10, 55, 0
5, 120240, Note_on_c, 10, 55, 105
5, 120396, Note_on_c, 10, 55, 0
5, 120480, Note_on_c, 10, 55, 105
5, 120636, Note_on_c, 10, 55, 0
5, 120720, Note_on_c, 10, 55, 105
5, 120876, Note_on_c, 10, 55, 0
5, 120960, Note_on_c, 10, 55, 105
5, 121116, Note_on_c, 10, 55, 0
5, 121200, Note_on_c, 10, 55, 105
5, 121356, Note_on_c, 10, 55, 0
5, 121440, Note_on_c, 10, 55, 105
5, 121596, Note_on_c, 10, 55, 0
5, 121680, Note_on_c, 10, 55, 105
5, 121836, Note_on_c, 10, 55, 0
5, 121920, Note_on_c, 10, 55, 105
5, 122076, Note_on_c, 10, 55, 0
5, 122160, Note_on_c, 10, 55, 105
5, 122316, Note_on_c, 10, 55, 0
5, 122400, Note_on_c, 10, 55, 105
5, 122556, Note_on_c, 10, 55, 0
5, 122640, Note_on_c, 10, 55, 105
5, 122796, Note_on_c, 10, 55, 0
5, 122880, Note_on_c, 10, 55, 105
5, 123036, Note_on_c, 10, 55, 0
5, 123120, Note_on_c, 10, 55, 105
5, 123276, Note_on_c, 10, 55, 0
5, 123360, Note_on_c, 10, 57, 105
5, 123516, Note_on_c, 10, 57, 0
5, 123600, Note_on_c, 10, 57, 105
5, 123756, Note_on_c, 10, 57, 0
5, 123840, Note_on_c, 10, 59, 105
5, 123996, Note_on_c, 10, 59, 0
5, 124080, Note_on_c, 10, 59, 105
5, 124236, Note_on_c, 10, 59, 0
5, 124320, Note_on_c, 10, 54, 105
5, 124476, Note_on_c, 10, 54, 0
5, 124560, Note_on_c, 10, 54, 105
5, 124716, Note_on_c, 10, 54, 0
5, 124800, Note_on_c, 10, 55, 105
5, 124956, Note_on_c, 10, 55, 0
5, 125040, Note_on_c, 10, 55, 105
5, 125196, Note_on_c, 10, 55, 0
5, 125280, Note_on_c, 10, 57, 105
5, 125436, Note_on_c, 10, 57, 0
5, 125520, Note_on_c, 10, 57, 105
5, 125676, Note_on_c, 10, 57, 0
5, 125760, Note_on_c, 10, 59, 92
5, 126144, Note_on_c, 10, 59, 0
5, 128640, Note_on_c, 10, 50, 58
5, 129600, Note_on_c, 10, 50, 0
5, 129600, Note_on_c, 10, 52, 58
5, 130368, Note_on_c, 10, 52, 0
5, 130560, Note_on_c, 10, 48, 58
5, 130872, Note_on_c, 10, 48, 0
5, 131040, Note_on_c, 10, 48, 58
5, 131352, Note_on_c, 10, 48, 0
5, 131520, Note_on_c, 10, 50, 58
5, 131832, Note_on_c, 10, 50, 0
5, 132000, Note_on_c, 10, 50, 58
5, 132312, Note_on_c, 10, 50, 0
5, 132480, Note_on_c, 10, 47, 58
5, 132672, Note_on_c, 10, 47, 0
5, 132960, Note_on_c, 10, 50, 58
5, 133152, Note_on_c, 10, 50, 0
5, 133440, Note_on_c, 10, 55, 58
5, 133824, Note_on_c, 10, 55, 0
5, 136320, Note_on_c, 10, 50, 58
5, 137280, Note_on_c, 10, 50, 0
5, 137280, Note_on_c, 10, 52, 58
5, 138048, Note_on_c, 10, 52, 0
5, 138240, Note_on_c, 10, 48, 58
5, 138552, Note_on_c, 10, 48, 0
5, 138720, Note_on_c, 10, 48, 58
5, 139032, Note_on_c, 10, 48, 0
5, 139200, Note_on_c, 10, 50, 58
5, 139512, Note_on_c, 10, 50, 0
5, 139680, Note_on_c, 10, 50, 58
5, 139992, Note_on_c, 10, 50, 0
5, 140160, Note_on_c, 10, 55, 112
5, 140352, Note_on_c, 10, 55, 0
5, 140400, Note_on_c, 10, 55, 92
5, 140592, Note_on_c, 10, 55, 0
5, 140640, Note_on_c, 10, 55, 92
5, 140832, Note_on_c, 10, 55, 0
5, 140880, Note_on_c, 10, 55, 92
5, 141072, Note_on_c, 10, 55, 0
5, 141120, Note_on_c, 10, 55, 58
5, 141312, Note_on_c, 10, 55, 0
5, 141360, Note_on_c, 10, 55, 58
5, 141552, Note_on_c, 10, 55, 0
5, 141600, Note_on_c, 10, 55, 58
5, 141792, Note_on_c, 10, 55, 0
5, 141840, Note_on_c, 10, 55, 58
5, 142032, Note_on_c, 10, 55, 0
5, 142080, Note_on_c, 10, 55, 112
5, 142272, Note_on_c, 10, 55, 0
5, 142320, Note_on_c, 10, 55, 92
5, 142512, Note_on_c, 10, 55, 0
5, 142560, Note_on_c, 10, 55, 92
5, 142752, Note_on_c, 10, 55, 0
5, 142800, Note_on_c, 10, 55, 92
5, 142992, Note_on_c, 10, 55, 0
5, 143040, Note_on_c, 10, 55, 58
5, 143232, Note_on_c, 10, 55, 0
5, 143280, Note_on_c, 10, 55, 58
5, 143472, Note_on_c, 10, 55, 0
5, 143520, Note_on_c, 10, 55, 58
5, 143712, Note_on_c, 10, 55, 0
5, 143760, Note_on_c, 10, 55, 58
5, 143952, Note_on_c, 10, 55, 0
5, 144000, Note_on_c, 10, 55, 58
5, 144192, Note_on_c, 10, 55, 0
5, 144240, Note_on_c, 10, 55, 58
5, 144432, Note_on_c, 10, 55, 0
5, 144480, Note_on_c, 10, 55, 58
5, 144672, Note_on_c, 10, 55, 0
5, 144720, Note_on_c, 10, 55, 58
5, 144912, Note_on_c, 10, 55, 0
5, 144960, Note_on_c, 10, 55, 58
5, 145152, Note_on_c, 10, 55, 0
5, 145200, Note_on_c, 10, 55, 72
5, 145392, Note_on_c, 10, 55, 0
5, 145440, Note_on_c, 10, 55, 72
5, 145632, Note_on_c, 10, 55, 0
5, 145680, Note_on_c, 10, 55, 72
5, 145872, Note_on_c, 10, 55, 0
5, 145920, Note_on_c, 10, 55, 72
5, 146112, Note_on_c, 10, 55, 0
5, 146160, Note_on_c, 10, 55, 81
5, 146352, Note_on_c, 10, 55, 0
5, 146400, Note_on_c, 10, 54, 81
5, 146592, Note_on_c, 10, 54, 0
5, 146640, Note_on_c, 10, 54, 81
5, 146832, Note_on_c, 10, 54, 0
5, 146880, Note_on_c, 10, 55, 92
5, 147072, Note_on_c, 10, 55, 0
5, 147120, Note_on_c, 10, 55, 92
5, 147312, Note_on_c, 10, 55, 0
5, 147360, Note_on_c, 10, 52, 105
5, 147552, Note_on_c, 10, 52, 0
5, 147600, Note_on_c, 10, 52, 105
5, 147792, Note_on_c, 10, 52, 0
5, 147840, Note_on_c, 10, 50, 105
5, 148032, Note_on_c, 10, 50, 0
5, 148080, Note_on_c, 10, 50, 105
5, 148272, Note_on_c, 10, 50, 0
5, 148320, Note_on_c, 10, 50, 105
5, 148512, Note_on_c, 10, 50, 0
5, 148560, Note_on_c, 10, 50, 105
5, 148752, Note_on_c, 10, 50, 0
5, 148800, Note_on_c, 10, 50, 105
5, 148992, Note_on_c, 10, 50, 0
5, 149040, Note_on_c, 10, 50, 105
5, 149232, Note_on_c, 10, 50, 0
5, 149280, Note_on_c, 10, 50, 105
5, 149472, Note_on_c, 10, 50, 0
5, 149520, Note_on_c, 10, 50, 105
5, 149712, Note_on_c, 10, 50, 0
5, 149760, Note_on_c, 10, 50, 105
5, 149952, Note_on_c, 10, 50, 0
5, 150000, Note_on_c, 10, 50, 105
5, 150192, Note_on_c, 10, 50, 0
5, 150240, Note_on_c, 10, 50, 105
5, 150432, Note_on_c, 10, 50, 0
5, 150480, Note_on_c, 10, 50, 105
5, 150672, Note_on_c, 10, 50, 0
5, 150720, Note_on_c, 10, 50, 105
5, 150912, Note_on_c, 10, 50, 0
5, 150960, Note_on_c, 10, 50, 105
5, 151152, Note_on_c, 10, 50, 0
5, 151200, Note_on_c, 10, 50, 105
5, 151392, Note_on_c, 10, 50, 0
5, 151440, Note_on_c, 10, 50, 105
5, 151632, Note_on_c, 10, 50, 0
5, 151680, Note_on_c, 10, 50, 105
5, 151836, Note_on_c, 10, 50, 0
5, 151920, Note_on_c, 10, 52, 105
5, 152076, Note_on_c, 10, 52, 0
5, 152160, Note_on_c, 10, 54, 105
5, 152316, Note_on_c, 10, 54, 0
5, 152400, Note_on_c, 10, 52, 105
5, 152556, Note_on_c, 10, 52, 0
5, 152640, Note_on_c, 10, 50, 105
5, 152796, Note_on_c, 10, 50, 0
5, 152880, Note_on_c, 10, 52, 105
5, 153036, Note_on_c, 10, 52, 0
5, 153120, Note_on_c, 10, 54, 105
5, 153276, Note_on_c, 10, 54, 0
5, 153360, Note_on_c, 10, 50, 105
5, 153516, Note_on_c, 10, 50, 0
5, 153600, Note_on_c, 10, 55, 105
5, 153756, Note_on_c, 10, 55, 0
5, 153840, Note_on_c, 10, 57, 105
5, 153996, Note_on_c, 10, 57, 0
5, 154080, Note_on_c, 10, 59, 105
5, 154236, Note_on_c, 10, 59, 0
5, 154320, Note_on_c, 10, 57, 105
5, 154476, Note_on_c, 10, 57, 0
5, 154560, Note_on_c, 10, 55, 105
5, 154716, Note_on_c, 10, 55, 0
5, 154800, Note_on_c, 10, 57, 105
5, 154956, Note_on_c, 10, 57, 0
5, 155040, Note_on_c, 10, 59, 105
5, 155196, Note_on_c, 10, 59, 0
5, 155280, Note_on_c, 10, 56, 105
5, 155436, Note_on_c, 10, 56, 0
5, 155520, Note_on_c, 10, 57, 105
5, 155676, Note_on_c, 10, 57, 0
5, 155760, Note_on_c, 10, 57, 105
5, 155916, Note_on_c, 10, 57, 0
5, 156000, Note_on_c, 10, 57, 105
5, 156156, Note_on_c, 10, 57, 0
5, 156240, Note_on_c, 10, 57, 105
5, 156396, Note_on_c, 10, 57, 0
5, 156480, Note_on_c, 10, 57, 105
5, 156636, Note_on_c, 10, 57, 0
5, 156720, Note_on_c, 10, 57, 105
5, 156876, Note_on_c, 10, 57, 0
5, 156960, Note_on_c, 10, 57, 105
5, 157116, Note_on_c, 10, 57, 0
5, 157200, Note_on_c, 10, 57, 105
5, 157356, Note_on_c, 10, 57, 0
5, 157440, Note_on_c, 10, 57, 105
5, 157596, Note_on_c, 10, 57, 0
5, 157680, Note_on_c, 10, 45, 105
5, 157836, Note_on_c, 10, 45, 0
5, 157920, Note_on_c, 10, 45, 105
5, 158076, Note_on_c, 10, 45, 0
5, 158160, Note_on_c, 10, 45, 105
5, 158316, Note_on_c, 10, 45, 0
5, 158400, Note_on_c, 10, 45, 92
5, 158784, Note_on_c, 10, 45, 0
5, 160800, Note_on_c, 10, 51, 58
5, 160992, Note_on_c, 10, 51, 0
5, 161280, Note_on_c, 10, 52, 58
5, 161472, Note_on_c, 10, 52, 0
5, 161760, Note_on_c, 10, 50, 58
5, 161952, Note_on_c, 10, 50, 0
5, 162240, Note_on_c, 10, 49, 58
5, 162432, Note_on_c, 10, 49, 0
5, 162720, Note_on_c, 10, 45, 58
5, 162912, Note_on_c, 10, 45, 0
5, 163680, Note_on_c, 10, 46, 58
5, 164064, Note_on_c, 10, 46, 0
5, 164160, Note_on_c, 10, 47, 58
5, 164352, Note_on_c, 10, 47, 0
5, 164640, Note_on_c, 10, 43, 58
5, 164832, Note_on_c, 10, 43, 0
5, 165120, Note_on_c, 10, 45, 58
5, 165504, Note_on_c, 10, 45, 0
5, 165600, Note_on_c, 10, 57, 78
5, 166320, Note_on_c, 10, 57, 0
5, 166320, Note_on_c, 10, 56, 58
5, 166560, Note_on_c, 10, 56, 0
5, 166560, Note_on_c, 10, 55, 58
5, 166800, Note_on_c, 10, 55, 0
5, 166800, Note_on_c, 10, 52, 58
5, 167040, Note_on_c, 10, 52, 0
5, 167040, Note_on_c, 10, 50, 58
5, 167232, Note_on_c, 10, 50, 0
5, 167520, Note_on_c, 10, 52, 58
5, 167712, Note_on_c, 10, 52, 0
5, 168000, Note_on_c, 10, 54, 58
5, 168192, Note_on_c, 10, 54, 0
5, 168480, Note_on_c, 10, 51, 58
5, 168672, Note_on_c, 10, 51, 0
5, 168960, Note_on_c, 10, 52, 58
5, 169152, Note_on_c, 10, 52, 0
5, 169440, Note_on_c, 10, 50, 58
5, 169632, Note_on_c, 10, 50, 0
5, 169920, Note_on_c, 10, 49, 58
5, 170112, Note_on_c, 10, 49, 0
5, 170400, Note_on_c, 10, 45, 58
5, 170592, Note_on_c, 10, 45, 0
5, 170880, Note_on_c, 10, 47, 58
5, 171072, Note_on_c, 10, 47, 0
5, 171360, Note_on_c, 10, 55, 58
5, 171552, Note_on_c, 10, 55, 0
5, 171840, Note_on_c, 10, 57, 58
5, 172032, Note_on_c, 10, 57, 0
5, 172320, Note_on_c, 10, 45, 58
5, 172512, Note_on_c, 10, 45, 0
5, 172800, Note_on_c, 10, 50, 58
5, 173184, Note_on_c, 10, 50, 0
5, 174720, Note_on_c, 10, 45, 58
5, 175104, Note_on_c, 10, 45, 0
5, 176640, Note_on_c, 10, 50, 58
5, 177024, Note_on_c, 10, 50, 0
5, 178560, Note_on_c, 10, 45, 58
5, 178944, Note_on_c, 10, 45, 0
5, 180720, Note_on_c, 10, 50, 105
5, 180876, Note_on_c, 10, 50, 0
5, 180960, Note_on_c, 10, 54, 105
5, 181116, Note_on_c, 10, 54, 0
5, 181200, Note_on_c, 10, 52, 105
5, 181356, Note_on_c, 10, 52, 0
5, 181440, Note_on_c, 10, 51, 105
5, 181596, Note_on_c, 10, 51, 0
5, 181680, Note_on_c, 10, 47, 105
5, 181836, Note_on_c, 10, 47, 0
5, 181920, Note_on_c, 10, 49, 105
5, 182076, Note_on_c, 10, 49, 0
5, 182160, Note_on_c, 10, 51, 105
5, 182316, Note_on_c, 10, 51, 0
5, 182400, Note_on_c, 10, 52, 105
5, 182556, Note_on_c, 10, 52, 0
5, 182640, Note_on_c, 10, 55, 105
5, 182796, Note_on_c, 10, 55, 0
5, 182880, Note_on_c, 10, 52, 105
5, 183036, Note_on_c, 10, 52, 0
5, 183120, Note_on_c, 10, 50, 105
5, 183276, Note_on_c, 10, 50, 0
5, 183360, Note_on_c, 10, 49, 105
5, 183516, Note_on_c, 10, 49, 0
5, 183600, Note_on_c, 10, 45, 105
5, 183756, Note_on_c, 10, 45, 0
5, 183840, Note_on_c, 10, 47, 105
5, 183996, Note_on_c, 10, 47, 0
5, 184080, Note_on_c, 10, 49, 105
5, 184236, Note_on_c, 10, 49, 0
5, 184320, Note_on_c, 10, 50, 105
5, 184476, Note_on_c, 10, 50, 0
5, 184560, Note_on_c, 10, 50, 105
5, 184716, Note_on_c, 10, 50, 0
5, 184800, Note_on_c, 10, 52, 105
5, 184956, Note_on_c, 10, 52, 0
5, 185040, Note_on_c, 10, 54, 105
5, 185196, Note_on_c, 10, 54, 0
5, 185280, Note_on_c, 10, 55, 105
5, 185436, Note_on_c, 10, 55, 0
5, 185520, Note_on_c, 10, 55, 105
5, 185676, Note_on_c, 10, 55, 0
5, 185760, Note_on_c, 10, 55, 105
5, 185916, Note_on_c, 10, 55, 0
5, 186000, Note_on_c, 10, 55, 105
5, 186156, Note_on_c, 10, 55, 0
5, 186240, Note_on_c, 10, 57, 105
5, 186396, Note_on_c, 10, 57, 0
5, 186480, Note_on_c, 10, 57, 105
5, 186636, Note_on_c, 10, 57, 0
5, 186720, Note_on_c, 10, 57, 105
5, 186876, Note_on_c, 10, 57, 0
5, 186960, Note_on_c, 10, 57, 105
5, 187116, Note_on_c, 10, 57, 0
5, 187200, Note_on_c, 10, 45, 105
5, 187356, Note_on_c, 10, 45, 0
5, 187440, Note_on_c, 10, 45, 105
5, 187596, Note_on_c, 10, 45, 0
5, 187680, Note_on_c, 10, 45, 105
5, 187836, Note_on_c, 10, 45, 0
5, 187920, Note_on_c, 10, 45, 105
5, 188076, Note_on_c, 10, 45, 0
5, 188160, Note_on_c, 10, 50, 92
5, 188544, Note_on_c, 10, 50, 0
5, 190080, Note_on_c, 10, 45, 58
5, 190464, Note_on_c, 10, 45, 0
5, 192000, Note_on_c, 10, 50, 58
5, 192384, Note_on_c, 10, 50, 0
5, 193920, Note_on_c, 10, 45, 58
5, 194304, Note_on_c, 10, 45, 0
5, 196080, Note_on_c, 10, 50, 105
5, 196236, Note_on_c, 10, 50, 0
5, 196320, Note_on_c, 10, 54, 105
5, 196476, Note_on_c, 10, 54, 0
5, 196560, Note_on_c, 10, 52, 105
5, 196716, Note_on_c, 10, 52, 0
5, 196800, Note_on_c, 10, 51, 105
5, 196956, Note_on_c, 10, 51, 0
5, 197040, Note_on_c, 10, 47, 105
5, 197196, Note_on_c, 10, 47, 0
5, 197280, Note_on_c, 10, 49, 105
5, 197436, Note_on_c, 10, 49, 0
5, 197520, Note_on_c, 10, 51, 105
5, 197676, Note_on_c, 10, 51, 0
5, 197760, Note_on_c, 10, 52, 105
5, 197916, Note_on_c, 10, 52, 0
5, 198000, Note_on_c, 10, 55, 105
5, 198156, Note_on_c, 10, 55, 0
5, 198240, Note_on_c, 10, 52, 105
5, 198396, Note_on_c, 10, 52, 0
5, 198480, Note_on_c, 10, 50, 105
5, 198636, Note_on_c, 10, 50, 0
5, 198720, Note_on_c, 10, 49, 105
5, 198876, Note_on_c, 10, 49, 0
5, 198960, Note_on_c, 10, 45, 105
5, 199116, Note_on_c, 10, 45, 0
5, 199200, Note_on_c, 10, 47, 105
5, 199356, Note_on_c, 10, 47, 0
5, 199440, Note_on_c, 10, 49, 105
5, 199596, Note_on_c, 10, 49, 0
5, 199680, Note_on_c, 10, 50, 105
5, 199836, Note_on_c, 10, 50, 0
5, 199920, Note_on_c, 10, 50, 105
5, 200076, Note_on_c, 10, 50, 0
5, 200160, Note_on_c, 10, 52, 105
5, 200316, Note_on_c, 10, 52, 0
5, 200400, Note_on_c, 10, 54, 105
5, 200556, Note_on_c, 10, 54, 0
5, 200640, Note_on_c, 10, 55, 105
5, 200796, Note_on_c, 10, 55, 0
5, 200880, Note_on_c, 10, 55, 105
5, 201036, Note_on_c, 10, 55, 0
5, 201120, Note_on_c, 10, 55, 105
5, 201276, Note_on_c, 10, 55, 0
5, 201360, Note_on_c, 10, 55, 105
5, 201516, Note_on_c, 10, 55, 0
5, 201600, Note_on_c, 10, 57, 105
5, 201756, Note_on_c, 10, 57, 0
5, 201840, Note_on_c, 10, 57, 105
5, 201996, Note_on_c, 10, 57, 0
5, 202080, Note_on_c, 10, 57, 105
5, 202236, Note_on_c, 10, 57, 0
5, 202320, Note_on_c, 10, 57, 105
5, 202476, Note_on_c, 10, 57, 0
5, 202560, Note_on_c, 10, 45, 105
5, 202716, Note_on_c, 10, 45, 0
5, 202800, Note_on_c, 10, 45, 105
5, 202956, Note_on_c, 10, 45, 0
5, 203040, Note_on_c, 10, 45, 105
5, 203196, Note_on_c, 10, 45, 0
5, 203280, Note_on_c, 10, 45, 105
5, 203436, Note_on_c, 10, 45, 0
5, 203520, Note_on_c, 10, 50, 105
5, 203676, Note_on_c, 10, 50, 0
5, 203760, Note_on_c, 10, 45, 105
5, 203916, Note_on_c, 10, 45, 0
5, 204000, Note_on_c, 10, 47, 105
5, 204156, Note_on_c, 10, 47, 0
5, 204240, Note_on_c, 10, 49, 105
5, 204396, Note_on_c, 10, 49, 0
5, 204480, Note_on_c, 10, 50, 105
5, 204636, Note_on_c, 10, 50, 0
5, 204720, Note_on_c, 10, 50, 105
5, 204876, Note_on_c, 10, 50, 0
5, 204960, Note_on_c, 10, 52, 105
5, 205116, Note_on_c, 10, 52, 0
5, 205200, Note_on_c, 10, 52, 105
5, 205356, Note_on_c, 10, 52, 0
5, 205440, Note_on_c, 10, 54, 105
5, 205596, Note_on_c, 10, 54, 0
5, 205680, Note_on_c, 10, 49, 105
5, 205836, Note_on_c, 10, 49, 0
5, 205920, Note_on_c, 10, 50, 105
5, 206076, Note_on_c, 10, 50, 0
5, 206160, Note_on_c, 10, 52, 105
5, 206316, Note_on_c, 10, 52, 0
5, 206400, Note_on_c, 10, 54, 105
5, 206556, Note_on_c, 10, 54, 0
5, 206640, Note_on_c, 10, 54, 105
5, 206796, Note_on_c, 10, 54, 0
5, 206880, Note_on_c, 10, 55, 105
5, 207036, Note_on_c, 10, 55, 0
5, 207120, Note_on_c, 10, 55, 105
5, 207276, Note_on_c, 10, 55, 0
5, 207360, Note_on_c, 10, 57, 105
5, 207516, Note_on_c, 10, 57, 0
5, 207600, Note_on_c, 10, 57, 105
5, 207756, Note_on_c, 10, 57, 0
5, 207840, Note_on_c, 10, 58, 105
5, 207996, Note_on_c, 10, 58, 0
5, 208080, Note_on_c, 10, 58, 105
5, 208236, Note_on_c, 10, 58, 0
5, 208320, Note_on_c, 10, 59, 92
5, 208704, Note_on_c, 10, 59, 0
5, 209280, Note_on_c, 10, 55, 58
5, 210240, Note_on_c, 10, 55, 0
5, 210240, Note_on_c, 10, 57, 58
5, 211152, Note_on_c, 10, 57, 0
5, 211200, Note_on_c, 10, 50, 58
5, 211392, Note_on_c, 10, 50, 0
5, 211680, Note_on_c, 10, 50, 58
5, 211872, Note_on_c, 10, 50, 0
5, 212160, Note_on_c, 10, 50, 58
5, 212352, Note_on_c, 10, 50, 0
5, 213120, Note_on_c, 10, 50, 58
5, 213504, Note_on_c, 10, 50, 0
5, 213840, Note_on_c, 10, 45, 105
5, 213984, Note_on_c, 10, 45, 0
5, 214080, Note_on_c, 10, 50, 105
5, 214464, Note_on_c, 10, 50, 0
5, 214800, Note_on_c, 10, 45, 105
5, 214944, Note_on_c, 10, 45, 0
5, 215040, Note_on_c, 10, 50, 105
5, 215196, Note_on_c, 10, 50, 0
5, 215280, Note_on_c, 10, 45, 105
5, 215436, Note_on_c, 10, 45, 0
5, 215520, Note_on_c, 10, 50, 105
5, 215676, Note_on_c, 10, 50, 0
5, 215760, Note_on_c, 10, 54, 105
5, 215916, Note_on_c, 10, 54, 0
5, 216000, Note_on_c, 10, 57, 105
5, 216384, Note_on_c, 10, 57, 0
5, 216960, Note_on_c, 10, 57, 105
5, 217344, Note_on_c, 10, 57, 0
5, 217680, Note_on_c, 10, 54, 105
5, 217824, Note_on_c, 10, 54, 0
5, 217920, Note_on_c, 10, 57, 105
5, 218304, Note_on_c, 10, 57, 0
5, 218640, Note_on_c, 10, 54, 105
5, 218784, Note_on_c, 10, 54, 0
5, 218880, Note_on_c, 10, 57, 105
5, 219036, Note_on_c, 10, 57, 0
5, 219120, Note_on_c, 10, 54, 105
5, 219276, Note_on_c, 10, 54, 0
5, 219360, Note_on_c, 10, 51, 105
5, 219516, Note_on_c, 10, 51, 0
5, 219600, Note_on_c, 10, 54, 105
5, 219756, Note_on_c, 10, 54, 0
5, 219840, Note_on_c, 10, 47, 105
5, 220224, Note_on_c, 10, 47, 0
5, 220800, Note_on_c, 10, 48, 58
5, 221184, Note_on_c, 10, 48, 0
5, 222720, Note_on_c, 10, 43, 58
5, 223104, Note_on_c, 10, 43, 0
5, 224640, Note_on_c, 10, 48, 58
5, 225024, Note_on_c, 10, 48, 0
5, 226560, Note_on_c, 10, 43, 58
5, 226944, Note_on_c, 10, 43, 0
5, 228480, Note_on_c, 10, 48, 58
5, 228864, Note_on_c, 10, 48, 0
5, 230400, Note_on_c, 10, 52, 58
5, 230784, Note_on_c, 10, 52, 0
5, 232320, Note_on_c, 10, 45, 58
5, 232704, Note_on_c, 10, 45, 0
5, 234240, Note_on_c, 10, 50, 58
5, 234624, Note_on_c, 10, 50, 0
5, 236160, Note_on_c, 10, 51, 58
5, 239924, Note_on_c, 10, 51, 0
5, 240000, Note_on_c, 10, 50, 58
5, 240384, Note_on_c, 10, 50, 0
5, 240720, Note_on_c, 10, 50, 105
5, 240960, Note_on_c, 10, 50, 0
5, 240960, Note_on_c, 10, 52, 105
5, 241200, Note_on_c, 10, 52, 0
5, 241200, Note_on_c, 10, 54, 105
5, 241440, Note_on_c, 10, 54, 0
5, 241440, Note_on_c, 10, 55, 105
5, 241680, Note_on_c, 10, 55, 0
5, 241680, Note_on_c, 10, 57, 105
5, 241920, Note_on_c, 10, 57, 0
5, 241920, Note_on_c, 10, 60, 105
5, 242160, Note_on_c, 10, 60, 0
5, 242160, Note_on_c, 10, 58, 105
5, 242400, Note_on_c, 10, 58, 0
5, 242640, Note_on_c, 10, 54, 105
5, 242880, Note_on_c, 10, 54, 0
5, 242880, Note_on_c, 10, 55, 105
5, 243120, Note_on_c, 10, 55, 0
5, 243120, Note_on_c, 10, 57, 105
5, 243360, Note_on_c, 10, 57, 0
5, 243360, Note_on_c, 10, 58, 105
5, 243600, Note_on_c, 10, 58, 0
5, 243600, Note_on_c, 10, 61, 105
5, 243840, Note_on_c, 10, 61, 0
5, 243840, Note_on_c, 10, 64, 105
5, 244080, Note_on_c, 10, 64, 0
5, 244080, Note_on_c, 10, 62, 105
5, 244272, Note_on_c, 10, 62, 0
5, 249600, Note_on_c, 10, 50, 58
5, 251424, Note_on_c, 10, 50, 0
5, 251520, Note_on_c, 10, 55, 125
5, 251904, Note_on_c, 10, 55, 0
5, 252240, Note_on_c, 10, 50, 105
5, 252384, Note_on_c, 10, 50, 0
5, 252480, Note_on_c, 10, 55, 105
5, 252864, Note_on_c, 10, 55, 0
5, 253200, Note_on_c, 10, 50, 105
5, 253344, Note_on_c, 10, 50, 0
5, 253440, Note_on_c, 10, 55, 105
5, 253584, Note_on_c, 10, 55, 0
5, 253680, Note_on_c, 10, 50, 105
5, 253824, Note_on_c, 10, 50, 0
5, 253920, Note_on_c, 10, 55, 105
5, 254064, Note_on_c, 10, 55, 0
5, 254160, Note_on_c, 10, 59, 105
5, 254304, Note_on_c, 10, 59, 0
5, 254400, Note_on_c, 10, 62, 105
5, 254784, Note_on_c, 10, 62, 0
5, 255360, Note_on_c, 10, 60, 105
5, 255744, Note_on_c, 10, 60, 0
5, 256080, Note_on_c, 10, 57, 105
5, 256224, Note_on_c, 10, 57, 0
5, 256320, Note_on_c, 10, 60, 105
5, 256704, Note_on_c, 10, 60, 0
5, 257040, Note_on_c, 10, 57, 105
5, 257184, Note_on_c, 10, 57, 0
5, 257280, Note_on_c, 10, 60, 105
5, 257424, Note_on_c, 10, 60, 0
5, 257520, Note_on_c, 10, 57, 105
5, 257664, Note_on_c, 10, 57, 0
5, 257760, Note_on_c, 10, 54, 105
5, 257904, Note_on_c, 10, 54, 0
5, 258000, Note_on_c, 10, 57, 105
5, 258144, Note_on_c, 10, 57, 0
5, 258240, Note_on_c, 10, 50, 105
5, 258624, Note_on_c, 10, 50, 0
5, 259200, Note_on_c, 10, 55, 105
5, 259356, Note_on_c, 10, 55, 0
5, 259440, Note_on_c, 10, 55, 105
5, 259596, Note_on_c, 10, 55, 0
5, 259680, Note_on_c, 10, 55, 105
5, 259836, Note_on_c, 10, 55, 0
5, 259920, Note_on_c, 10, 55, 105
5, 260076, Note_on_c, 10, 55, 0
5, 260160, Note_on_c, 10, 55, 105
5, 260316, Note_on_c, 10, 55, 0
5, 260400, Note_on_c, 10, 55, 105
5, 260556, Note_on_c, 10, 55, 0
5, 260640, Note_on_c, 10, 55, 105
5, 260796, Note_on_c, 10, 55, 0
5, 260880, Note_on_c, 10, 55, 105
5, 261036, Note_on_c, 10, 55, 0
5, 261120, Note_on_c, 10, 55, 105
5, 261276, Note_on_c, 10, 55, 0
5, 261360, Note_on_c, 10, 55, 105
5, 261516, Note_on_c, 10, 55, 0
5, 261600, Note_on_c, 10, 55, 105
5, 261756, Note_on_c, 10, 55, 0
5, 261840, Note_on_c, 10, 55, 105
5, 261996, Note_on_c, 10, 55, 0
5, 262080, Note_on_c, 10, 55, 105
5, 262236, Note_on_c, 10, 55, 0
5, 262320, Note_on_c, 10, 55, 105
5, 262476, Note_on_c, 10, 55, 0
5, 262560, Note_on_c, 10, 55, 105
5, 262716, Note_on_c, 10, 55, 0
5, 262800, Note_on_c, 10, 55, 105
5, 262956, Note_on_c, 10, 55, 0
5, 263040, Note_on_c, 10, 55, 105
5, 263196, Note_on_c, 10, 55, 0
5, 263280, Note_on_c, 10, 55, 105
5, 263436, Note_on_c, 10, 55, 0
5, 263520, Note_on_c, 10, 55, 105
5, 263676, Note_on_c, 10, 55, 0
5, 263760, Note_on_c, 10, 55, 105
5, 263916, Note_on_c, 10, 55, 0
5, 264000, Note_on_c, 10, 55, 105
5, 264156, Note_on_c, 10, 55, 0
5, 264240, Note_on_c, 10, 55, 105
5, 264396, Note_on_c, 10, 55, 0
5, 264480, Note_on_c, 10, 55, 105
5, 264636, Note_on_c, 10, 55, 0
5, 264720, Note_on_c, 10, 55, 105
5, 264876, Note_on_c, 10, 55, 0
5, 264960, Note_on_c, 10, 55, 105
5, 265116, Note_on_c, 10, 55, 0
5, 265200, Note_on_c, 10, 55, 105
5, 265356, Note_on_c, 10, 55, 0
5, 265440, Note_on_c, 10, 55, 105
5, 265596, Note_on_c, 10, 55, 0
5, 265680, Note_on_c, 10, 55, 105
5, 265836, Note_on_c, 10, 55, 0
5, 265920, Note_on_c, 10, 55, 105
5, 266076, Note_on_c, 10, 55, 0
5, 266160, Note_on_c, 10, 55, 105
5, 266316, Note_on_c, 10, 55, 0
5, 266400, Note_on_c, 10, 55, 105
5, 266556, Note_on_c, 10, 55, 0
5, 266640, Note_on_c, 10, 55, 105
5, 266796, Note_on_c, 10, 55, 0
5, 266880, Note_on_c, 10, 55, 105
5, 267036, Note_on_c, 10, 55, 0
5, 267120, Note_on_c, 10, 55, 105
5, 267276, Note_on_c, 10, 55, 0
5, 267360, Note_on_c, 10, 57, 105
5, 267516, Note_on_c, 10, 57, 0
5, 267600, Note_on_c, 10, 57, 105
5, 267756, Note_on_c, 10, 57, 0
5, 267840, Note_on_c, 10, 59, 105
5, 267996, Note_on_c, 10, 59, 0
5, 268080, Note_on_c, 10, 59, 105
5, 268236, Note_on_c, 10, 59, 0
5, 268320, Note_on_c, 10, 54, 105
5, 268476, Note_on_c, 10, 54, 0
5, 268560, Note_on_c, 10, 54, 105
5, 268716, Note_on_c, 10, 54, 0
5, 268800, Note_on_c, 10, 55, 105
5, 268956, Note_on_c, 10, 55, 0
5, 269040, Note_on_c, 10, 55, 105
5, 269196, Note_on_c, 10, 55, 0
5, 269280, Note_on_c, 10, 57, 105
5, 269436, Note_on_c, 10, 57, 0
5, 269520, Note_on_c, 10, 57, 105
5, 269676, Note_on_c, 10, 57, 0
5, 269760, Note_on_c, 10, 59, 92
5, 270144, Note_on_c, 10, 59, 0
5, 272640, Note_on_c, 10, 50, 58
5, 273600, Note_on_c, 10, 50, 0
5, 273600, Note_on_c, 10, 52, 58
5, 274368, Note_on_c, 10, 52, 0
5, 274560, Note_on_c, 10, 48, 58
5, 274872, Note_on_c, 10, 48, 0
5, 275040, Note_on_c, 10, 48, 58
5, 275352, Note_on_c, 10, 48, 0
5, 275520, Note_on_c, 10, 50, 58
5, 275832, Note_on_c, 10, 50, 0
5, 276000, Note_on_c, 10, 50, 58
5, 276312, Note_on_c, 10, 50, 0
5, 276480, Note_on_c, 10, 47, 58
5, 276636, Note_on_c, 10, 47, 0
5, 276960, Note_on_c, 10, 50, 58
5, 277116, Note_on_c, 10, 50, 0
5, 277440, Note_on_c, 10, 55, 58
5, 277752, Note_on_c, 10, 55, 0
5, 280320, Note_on_c, 10, 50, 58
5, 281280, Note_on_c, 10, 50, 0
5, 281280, Note_on_c, 10, 52, 58
5, 282048, Note_on_c, 10, 52, 0
5, 282240, Note_on_c, 10, 48, 58
5, 282624, Note_on_c, 10, 48, 0
5, 282720, Note_on_c, 10, 48, 58
5, 283104, Note_on_c, 10, 48, 0
5, 283200, Note_on_c, 10, 50, 58
5, 283584, Note_on_c, 10, 50, 0
5, 283680, Note_on_c, 10, 50, 58
5, 284064, Note_on_c, 10, 50, 0
5, 284160, Note_on_c, 10, 55, 78
5, 284316, Note_on_c, 10, 55, 0
5, 284400, Note_on_c, 10, 55, 92
5, 284556, Note_on_c, 10, 55, 0
5, 284640, Note_on_c, 10, 55, 92
5, 284796, Note_on_c, 10, 55, 0
5, 284880, Note_on_c, 10, 55, 92
5, 285036, Note_on_c, 10, 55, 0
5, 285120, Note_on_c, 10, 55, 58
5, 285276, Note_on_c, 10, 55, 0
5, 285360, Note_on_c, 10, 55, 58
5, 285516, Note_on_c, 10, 55, 0
5, 285600, Note_on_c, 10, 55, 58
5, 285756, Note_on_c, 10, 55, 0
5, 285840, Note_on_c, 10, 55, 58
5, 285996, Note_on_c, 10, 55, 0
5, 286080, Note_on_c, 10, 55, 112
5, 286236, Note_on_c, 10, 55, 0
5, 286320, Note_on_c, 10, 55, 92
5, 286476, Note_on_c, 10, 55, 0
5, 286560, Note_on_c, 10, 55, 92
5, 286716, Note_on_c, 10, 55, 0
5, 286800, Note_on_c, 10, 55, 92
5, 286956, Note_on_c, 10, 55, 0
5, 287040, Note_on_c, 10, 55, 58
5, 287196, Note_on_c, 10, 55, 0
5, 287280, Note_on_c, 10, 55, 58
5, 287436, Note_on_c, 10, 55, 0
5, 287520, Note_on_c, 10, 55, 58
5, 287676, Note_on_c, 10, 55, 0
5, 287760, Note_on_c, 10, 55, 58
5, 287916, Note_on_c, 10, 55, 0
5, 288000, Note_on_c, 10, 55, 58
5, 288156, Note_on_c, 10, 55, 0
5, 288240, Note_on_c, 10, 55, 58
5, 288396, Note_on_c, 10, 55, 0
5, 288480, Note_on_c, 10, 55, 72
5, 288636, Note_on_c, 10, 55, 0
5, 288720, Note_on_c, 10, 55, 72
5, 288876, Note_on_c, 10, 55, 0
5, 288960, Note_on_c, 10, 55, 72
5, 289116, Note_on_c, 10, 55, 0
5, 289200, Note_on_c, 10, 55, 72
5, 289356, Note_on_c, 10, 55, 0
5, 289440, Note_on_c, 10, 55, 81
5, 289596, Note_on_c, 10, 55, 0
5, 289680, Note_on_c, 10, 55, 81
5, 289836, Note_on_c, 10, 55, 0
5, 289920, Note_on_c, 10, 55, 81
5, 290076, Note_on_c, 10, 55, 0
5, 290160, Note_on_c, 10, 55, 81
5, 290316, Note_on_c, 10, 55, 0
5, 290400, Note_on_c, 10, 54, 92
5, 290556, Note_on_c, 10, 54, 0
5, 290640, Note_on_c, 10, 54, 92
5, 290796, Note_on_c, 10, 54, 0
5, 290880, Note_on_c, 10, 55, 92
5, 291036, Note_on_c, 10, 55, 0
5, 291120, Note_on_c, 10, 55, 92
5, 291276, Note_on_c, 10, 55, 0
5, 291360, Note_on_c, 10, 52, 105
5, 291516, Note_on_c, 10, 52, 0
5, 291600, Note_on_c, 10, 52, 105
5, 291756, Note_on_c, 10, 52, 0
5, 291840, Note_on_c, 10, 50, 105
5, 291996, Note_on_c, 10, 50, 0
5, 292080, Note_on_c, 10, 50, 105
5, 292236, Note_on_c, 10, 50, 0
5, 292320, Note_on_c, 10, 50, 105
5, 292476, Note_on_c, 10, 50, 0
5, 292560, Note_on_c, 10, 50, 105
5, 292716, Note_on_c, 10, 50, 0
5, 292800, Note_on_c, 10, 50, 105
5, 292956, Note_on_c, 10, 50, 0
5, 293040, Note_on_c, 10, 50, 105
5, 293196, Note_on_c, 10, 50, 0
5, 293280, Note_on_c, 10, 50, 105
5, 293436, Note_on_c, 10, 50, 0
5, 293520, Note_on_c, 10, 50, 105
5, 293676, Note_on_c, 10, 50, 0
5, 293760, Note_on_c, 10, 50, 105
5, 293916, Note_on_c, 10, 50, 0
5, 294000, Note_on_c, 10, 50, 105
5, 294156, Note_on_c, 10, 50, 0
5, 294240, Note_on_c, 10, 50, 105
5, 294396, Note_on_c, 10, 50, 0
5, 294480, Note_on_c, 10, 50, 105
5, 294636, Note_on_c, 10, 50, 0
5, 294720, Note_on_c, 10, 50, 105
5, 294876, Note_on_c, 10, 50, 0
5, 294960, Note_on_c, 10, 50, 105
5, 295116, Note_on_c, 10, 50, 0
5, 295200, Note_on_c, 10, 50, 105
5, 295356, Note_on_c, 10, 50, 0
5, 295440, Note_on_c, 10, 50, 105
5, 295596, Note_on_c, 10, 50, 0
5, 295680, Note_on_c, 10, 50, 105
5, 295836, Note_on_c, 10, 50, 0
5, 295920, Note_on_c, 10, 50, 105
5, 296076, Note_on_c, 10, 50, 0
5, 296160, Note_on_c, 10, 50, 105
5, 296316, Note_on_c, 10, 50, 0
5, 296400, Note_on_c, 10, 50, 105
5, 296556, Note_on_c, 10, 50, 0
5, 296640, Note_on_c, 10, 50, 105
5, 296796, Note_on_c, 10, 50, 0
5, 296880, Note_on_c, 10, 50, 105
5, 297036, Note_on_c, 10, 50, 0
5, 297120, Note_on_c, 10, 50, 105
5, 297276, Note_on_c, 10, 50, 0
5, 297360, Note_on_c, 10, 50, 105
5, 297516, Note_on_c, 10, 50, 0
5, 297600, Note_on_c, 10, 50, 105
5, 297756, Note_on_c, 10, 50, 0
5, 297840, Note_on_c, 10, 50, 105
5, 297996, Note_on_c, 10, 50, 0
5, 298080, Note_on_c, 10, 50, 105
5, 298236, Note_on_c, 10, 50, 0
5, 298320, Note_on_c, 10, 50, 105
5, 298476, Note_on_c, 10, 50, 0
5, 298560, Note_on_c, 10, 50, 92
5, 298944, Note_on_c, 10, 50, 0
5, 300960, Note_on_c, 10, 56, 58
5, 301152, Note_on_c, 10, 56, 0
5, 301440, Note_on_c, 10, 57, 58
5, 301632, Note_on_c, 10, 57, 0
5, 301920, Note_on_c, 10, 55, 58
5, 302112, Note_on_c, 10, 55, 0
5, 302400, Note_on_c, 10, 54, 58
5, 302592, Note_on_c, 10, 54, 0
5, 302880, Note_on_c, 10, 50, 58
5, 303072, Note_on_c, 10, 50, 0
5, 303840, Note_on_c, 10, 51, 58
5, 304320, Note_on_c, 10, 51, 0
5, 304320, Note_on_c, 10, 52, 58
5, 304512, Note_on_c, 10, 52, 0
5, 304800, Note_on_c, 10, 48, 58
5, 304992, Note_on_c, 10, 48, 0
5, 305280, Note_on_c, 10, 50, 58
5, 305640, Note_on_c, 10, 50, 0
5, 305760, Note_on_c, 10, 62, 78
5, 306480, Note_on_c, 10, 62, 0
5, 306480, Note_on_c, 10, 61, 58
5, 306720, Note_on_c, 10, 61, 0
5, 306720, Note_on_c, 10, 60, 58
5, 306960, Note_on_c, 10, 60, 0
5, 306960, Note_on_c, 10, 57, 58
5, 307200, Note_on_c, 10, 57, 0
5, 307200, Note_on_c, 10, 55, 58
5, 307392, Note_on_c, 10, 55, 0
5, 307680, Note_on_c, 10, 57, 58
5, 307872, Note_on_c, 10, 57, 0
5, 308160, Note_on_c, 10, 59, 58
5, 308352, Note_on_c, 10, 59, 0
5, 308640, Note_on_c, 10, 56, 58
5, 308832, Note_on_c, 10, 56, 0
5, 309120, Note_on_c, 10, 57, 58
5, 309312, Note_on_c, 10, 57, 0
5, 309600, Note_on_c, 10, 55, 58
5, 309792, Note_on_c, 10, 55, 0
5, 310080, Note_on_c, 10, 54, 58
5, 310272, Note_on_c, 10, 54, 0
5, 310560, Note_on_c, 10, 50, 58
5, 310752, Note_on_c, 10, 50, 0
5, 311040, Note_on_c, 10, 52, 58
5, 311232, Note_on_c, 10, 52, 0
5, 311520, Note_on_c, 10, 48, 58
5, 311712, Note_on_c, 10, 48, 0
5, 312000, Note_on_c, 10, 50, 58
5, 312192, Note_on_c, 10, 50, 0
5, 312480, Note_on_c, 10, 50, 58
5, 312672, Note_on_c, 10, 50, 0
5, 312960, Note_on_c, 10, 43, 58
5, 313344, Note_on_c, 10, 43, 0
5, 314880, Note_on_c, 10, 50, 58
5, 315264, Note_on_c, 10, 50, 0
5, 316800, Note_on_c, 10, 43, 58
5, 317184, Note_on_c, 10, 43, 0
5, 318720, Note_on_c, 10, 50, 58
5, 319104, Note_on_c, 10, 50, 0
5, 320880, Note_on_c, 10, 55, 105
5, 321036, Note_on_c, 10, 55, 0
5, 321120, Note_on_c, 10, 59, 105
5, 321276, Note_on_c, 10, 59, 0
5, 321360, Note_on_c, 10, 57, 105
5, 321516, Note_on_c, 10, 57, 0
5, 321600, Note_on_c, 10, 56, 105
5, 321756, Note_on_c, 10, 56, 0
5, 321840, Note_on_c, 10, 52, 105
5, 321996, Note_on_c, 10, 52, 0
5, 322080, Note_on_c, 10, 54, 105
5, 322236, Note_on_c, 10, 54, 0
5, 322320, Note_on_c, 10, 56, 105
5, 322476, Note_on_c, 10, 56, 0
5, 322560, Note_on_c, 10, 57, 105
5, 322716, Note_on_c, 10, 57, 0
5, 322800, Note_on_c, 10, 60, 105
5, 322956, Note_on_c, 10, 60, 0
5, 323040, Note_on_c, 10, 57, 105
5, 323196, Note_on_c, 10, 57, 0
5, 323280, Note_on_c, 10, 55, 105
5, 323436, Note_on_c, 10, 55, 0
5, 323520, Note_on_c, 10, 54, 105
5, 323676, Note_on_c, 10, 54, 0
5, 323760, Note_on_c, 10, 50, 105
5, 323916, Note_on_c, 10, 50, 0
5, 324000, Note_on_c, 10, 52, 105
5, 324156, Note_on_c, 10, 52, 0
5, 324240, Note_on_c, 10, 54, 105
5, 324396, Note_on_c, 10, 54, 0
5, 324480, Note_on_c, 10, 55, 105
5, 324636, Note_on_c, 10, 55, 0
5, 324720, Note_on_c, 10, 55, 105
5, 324876, Note_on_c, 10, 55, 0
5, 324960, Note_on_c, 10, 57, 105
5, 325116, Note_on_c, 10, 57, 0
5, 325200, Note_on_c, 10, 59, 105
5, 325356, Note_on_c, 10, 59, 0
5, 325440, Note_on_c, 10, 60, 105
5, 325596, Note_on_c, 10, 60, 0
5, 325680, Note_on_c, 10, 60, 105
5, 325836, Note_on_c, 10, 60, 0
5, 325920, Note_on_c, 10, 60, 105
5, 326076, Note_on_c, 10, 60, 0
5, 326160, Note_on_c, 10, 60, 105
5, 326316, Note_on_c, 10, 60, 0
5, 326400, Note_on_c, 10, 62, 105
5, 326556, Note_on_c, 10, 62, 0
5, 326640, Note_on_c, 10, 62, 105
5, 326796, Note_on_c, 10, 62, 0
5, 326880, Note_on_c, 10, 62, 105
5, 327036, Note_on_c, 10, 62, 0
5, 327120, Note_on_c, 10, 62, 105
5, 327276, Note_on_c, 10, 62, 0
5, 327360, Note_on_c, 10, 50, 105
5, 327516, Note_on_c, 10, 50, 0
5, 327600, Note_on_c, 10, 50, 105
5, 327756, Note_on_c, 10, 50, 0
5, 327840, Note_on_c, 10, 50, 105
5, 327996, Note_on_c, 10, 50, 0
5, 328080, Note_on_c, 10, 50, 105
5, 328236, Note_on_c, 10, 50, 0
5, 328320, Note_on_c, 10, 55, 92
5, 328704, Note_on_c, 10, 55, 0
5, 330240, Note_on_c, 10, 50, 58
5, 330624, Note_on_c, 10, 50, 0
5, 332160, Note_on_c, 10, 55, 58
5, 332544, Note_on_c, 10, 55, 0
5, 334080, Note_on_c, 10, 50, 58
5, 334464, Note_on_c, 10, 50, 0
5, 336240, Note_on_c, 10, 55, 105
5, 336396, Note_on_c, 10, 55, 0
5, 336480, Note_on_c, 10, 59, 105
5, 336636, Note_on_c, 10, 59, 0
5, 336720, Note_on_c, 10, 57, 105
5, 336876, Note_on_c, 10, 57, 0
5, 336960, Note_on_c, 10, 56, 105
5, 337116, Note_on_c, 10, 56, 0
5, 337200, Note_on_c, 10, 52, 105
5, 337356, Note_on_c, 10, 52, 0
5, 337440, Note_on_c, 10, 54, 105
5, 337596, Note_on_c, 10, 54, 0
5, 337680, Note_on_c, 10, 56, 105
5, 337836, Note_on_c, 10, 56, 0
5, 337920, Note_on_c, 10, 57, 105
5, 338076, Note_on_c, 10, 57, 0
5, 338160, Note_on_c, 10, 60, 105
5, 338316, Note_on_c, 10, 60, 0
5, 338400, Note_on_c, 10, 57, 105
5, 338556, Note_on_c, 10, 57, 0
5, 338640, Note_on_c, 10, 55, 105
5, 338796, Note_on_c, 10, 55, 0
5, 338880, Note_on_c, 10, 54, 105
5, 339036, Note_on_c, 10, 54, 0
5, 339120, Note_on_c, 10, 50, 105
5, 339276, Note_on_c, 10, 50, 0
5, 339360, Note_on_c, 10, 52, 105
5, 339516, Note_on_c, 10, 52, 0
5, 339600, Note_on_c, 10, 54, 105
5, 339756, Note_on_c, 10, 54, 0
5, 339840, Note_on_c, 10, 55, 105
5, 339996, Note_on_c, 10, 55, 0
5, 340080, Note_on_c, 10, 55, 105
5, 340236, Note_on_c, 10, 55, 0
5, 340320, Note_on_c, 10, 57, 105
5, 340476, Note_on_c, 10, 57, 0
5, 340560, Note_on_c, 10, 59, 105
5, 340716, Note_on_c, 10, 59, 0
5, 340800, Note_on_c, 10, 60, 105
5, 340956, Note_on_c, 10, 60, 0
5, 341040, Note_on_c, 10, 60, 105
5, 341196, Note_on_c, 10, 60, 0
5, 341280, Note_on_c, 10, 60, 105
5, 341436, Note_on_c, 10, 60, 0
5, 341520, Note_on_c, 10, 60, 105
5, 341676, Note_on_c, 10, 60, 0
5, 341760, Note_on_c, 10, 62, 105
5, 341916, Note_on_c, 10, 62, 0
5, 342000, Note_on_c, 10, 62, 105
5, 342156, Note_on_c, 10, 62, 0
5, 342240, Note_on_c, 10, 62, 105
5, 342396, Note_on_c, 10, 62, 0
5, 342480, Note_on_c, 10, 62, 105
5, 342636, Note_on_c, 10, 62, 0
5, 342720, Note_on_c, 10, 50, 105
5, 342876, Note_on_c, 10, 50, 0
5, 342960, Note_on_c, 10, 50, 105
5, 343116, Note_on_c, 10, 50, 0
5, 343200, Note_on_c, 10, 50, 105
5, 343356, Note_on_c, 10, 50, 0
5, 343440, Note_on_c, 10, 50, 105
5, 343596, Note_on_c, 10, 50, 0
5, 343680, Note_on_c, 10, 55, 105
5, 343836, Note_on_c, 10, 55, 0
5, 343920, Note_on_c, 10, 50, 105
5, 344076, Note_on_c, 10, 50, 0
5, 344160, Note_on_c, 10, 52, 105
5, 344316, Note_on_c, 10, 52, 0
5, 344400, Note_on_c, 10, 54, 105
5, 344556, Note_on_c, 10, 54, 0
5, 344640, Note_on_c, 10, 55, 105
5, 344796, Note_on_c, 10, 55, 0
5, 344880, Note_on_c, 10, 55, 105
5, 345036, Note_on_c, 10, 55, 0
5, 345120, Note_on_c, 10, 57, 105
5, 345276, Note_on_c, 10, 57, 0
5, 345360, Note_on_c, 10, 57, 105
5, 345516, Note_on_c, 10, 57, 0
5, 345600, Note_on_c, 10, 59, 105
5, 345756, Note_on_c, 10, 59, 0
5, 345840, Note_on_c, 10, 54, 105
5, 345996, Note_on_c, 10, 54, 0
5, 346080, Note_on_c, 10, 55, 105
5, 346236, Note_on_c, 10, 55, 0
5, 346320, Note_on_c, 10, 57, 105
5, 346476, Note_on_c, 10, 57, 0
5, 346560, Note_on_c, 10, 59, 105
5, 346716, Note_on_c, 10, 59, 0
5, 346800, Note_on_c, 10, 59, 105
5, 346956, Note_on_c, 10, 59, 0
5, 347040, Note_on_c, 10, 60, 105
5, 347196, Note_on_c, 10, 60, 0
5, 347280, Note_on_c, 10, 60, 105
5, 347436, Note_on_c, 10, 60, 0
5, 347520, Note_on_c, 10, 62, 105
5, 347676, Note_on_c, 10, 62, 0
5, 347760, Note_on_c, 10, 62, 105
5, 347916, Note_on_c, 10, 62, 0
5, 348000, Note_on_c, 10, 63, 105
5, 348156, Note_on_c, 10, 63, 0
5, 348240, Note_on_c, 10, 63, 105
5, 348396, Note_on_c, 10, 63, 0
5, 348480, Note_on_c, 10, 64, 105
5, 348864, Note_on_c, 10, 64, 0
5, 349440, Note_on_c, 10, 48, 58
5, 350400, Note_on_c, 10, 48, 0
5, 350400, Note_on_c, 10, 50, 58
5, 351312, Note_on_c, 10, 50, 0
5, 351360, Note_on_c, 10, 43, 58
5, 351744, Note_on_c, 10, 43, 0
5, 353280, Note_on_c, 10, 48, 58
5, 354240, Note_on_c, 10, 48, 0
5, 354240, Note_on_c, 10, 50, 58
5, 355152, Note_on_c, 10, 50, 0
5, 355200, Note_on_c, 10, 43, 58
5, 355584, Note_on_c, 10, 43, 0
5, 357120, Note_on_c, 10, 48, 58
5, 357504, Note_on_c, 10, 48, 0
5, 358080, Note_on_c, 10, 50, 105
5, 358464, Note_on_c, 10, 50, 0
5, 359040, Note_on_c, 10, 43, 105
5, 359220, Note_on_c, 10, 43, 0
5, 359280, Note_on_c, 10, 43, 105
5, 359460, Note_on_c, 10, 43, 0
5, 359520, Note_on_c, 10, 43, 105
5, 359700, Note_on_c, 10, 43, 0
5, 359760, Note_on_c, 10, 43, 105
5, 359940, Note_on_c, 10, 43, 0
5, 360000, Note_on_c, 10, 43, 105
5, 360180, Note_on_c, 10, 43, 0
5, 360240, Note_on_c, 10, 43, 105
5, 360420, Note_on_c, 10, 43, 0
5, 360480, Note_on_c, 10, 43, 105
5, 360660, Note_on_c, 10, 43, 0
5, 360720, Note_on_c, 10, 43, 105
5, 360900, Note_on_c, 10, 43, 0
5, 360960, Note_on_c, 10, 43, 105
5, 361140, Note_on_c, 10, 43, 0
5, 361200, Note_on_c, 10, 43, 105
5, 361380, Note_on_c, 10, 43, 0
5, 361440, Note_on_c, 10, 43, 105
5, 361620, Note_on_c, 10, 43, 0
5, 361680, Note_on_c, 10, 43, 105
5, 361860, Note_on_c, 10, 43, 0
5, 361920, Note_on_c, 10, 43, 105
5, 362100, Note_on_c, 10, 43, 0
5, 362160, Note_on_c, 10, 43, 105
5, 362340, Note_on_c, 10, 43, 0
5, 362400, Note_on_c, 10, 43, 105
5, 362580, Note_on_c, 10, 43, 0
5, 362640, Note_on_c, 10, 43, 105
5, 362820, Note_on_c, 10, 43, 0
5, 362880, Note_on_c, 10, 43, 105
5, 363060, Note_on_c, 10, 43, 0
5, 363120, Note_on_c, 10, 43, 105
5, 363300, Note_on_c, 10, 43, 0
5, 363360, Note_on_c, 10, 43, 105
5, 363540, Note_on_c, 10, 43, 0
5, 363600, Note_on_c, 10, 43, 105
5, 363780, Note_on_c, 10, 43, 0
5, 363840, Note_on_c, 10, 43, 105
5, 364020, Note_on_c, 10, 43, 0
5, 364080, Note_on_c, 10, 43, 105
5, 364260, Note_on_c, 10, 43, 0
5, 364320, Note_on_c, 10, 43, 105
5, 364500, Note_on_c, 10, 43, 0
5, 364560, Note_on_c, 10, 43, 105
5, 364740, Note_on_c, 10, 43, 0
5, 364800, Note_on_c, 10, 43, 105
5, 364980, Note_on_c, 10, 43, 0
5, 365040, Note_on_c, 10, 43, 105
5, 365220, Note_on_c, 10, 43, 0
5, 365280, Note_on_c, 10, 43, 105
5, 365460, Note_on_c, 10, 43, 0
5, 365520, Note_on_c, 10, 43, 105
5, 365700, Note_on_c, 10, 43, 0
5, 365760, Note_on_c, 10, 43, 105
5, 365940, Note_on_c, 10, 43, 0
5, 366000, Note_on_c, 10, 43, 105
5, 366180, Note_on_c, 10, 43, 0
5, 366240, Note_on_c, 10, 43, 105
5, 366420, Note_on_c, 10, 43, 0
5, 366480, Note_on_c, 10, 43, 105
5, 366660, Note_on_c, 10, 43, 0
5, 366720, Note_on_c, 10, 43, 116
5, 366900, Note_on_c, 10, 43, 0
5, 366960, Note_on_c, 10, 47, 116
5, 367140, Note_on_c, 10, 47, 0
5, 367200, Note_on_c, 10, 50, 116
5, 367380, Note_on_c, 10, 50, 0
5, 367440, Note_on_c, 10, 55, 116
5, 367620, Note_on_c, 10, 55, 0
5, 367680, Note_on_c, 10, 59, 116
5, 367860, Note_on_c, 10, 59, 0
5, 367920, Note_on_c, 10, 55, 116
5, 368100, Note_on_c, 10, 55, 0
5, 368160, Note_on_c, 10, 62, 116
5, 368340, Note_on_c, 10, 62, 0
5, 368400, Note_on_c, 10, 59, 116
5, 368580, Note_on_c, 10, 59, 0
5, 368640, Note_on_c, 10, 55, 116
5, 369000, Note_on_c, 10, 55, 0
5, 369120, Note_on_c, 10, 43, 116
5, 369390, Note_on_c, 10, 43, 0
5, 369480, Note_on_c, 10, 43, 116
5, 369570, Note_on_c, 10, 43, 0
5, 369600, Note_on_c, 10, 43, 116
5, 369984, Note_on_c, 10, 43, 0
5, 369984, End_track
6, 0, Start_track
6, 0, Program_c, 11, 48
6, 0, Control_c, 11, 7, 127
6, 0, Control_c, 11, 10, 64
6, 0, Control_c, 11, 91, 95
6, 1920, Note_on_c, 11, 43, 105
6, 2304, Note_on_c, 11, 43, 0
6, 2640, Note_on_c, 11, 38, 105
6, 2784, Note_on_c, 11, 38, 0
6, 2880, Note_on_c, 11, 43, 105
6, 3264, Note_on_c, 11, 43, 0
6, 3600, Note_on_c, 11, 38, 105
6, 3744, Note_on_c, 11, 38, 0
6, 3840, Note_on_c, 11, 43, 105
6, 3984, Note_on_c, 11, 43, 0
6, 4080, Note_on_c, 11, 38, 105
6, 4224, Note_on_c, 11, 38, 0
6, 4320, Note_on_c, 11, 43, 105
6, 4464, Note_on_c, 11, 43, 0
6, 4560, Note_on_c, 11, 47, 105
6, 4704, Note_on_c, 11, 47, 0
6, 4800, Note_on_c, 11, 50, 105
6, 5184, Note_on_c, 11, 50, 0
6, 5760, Note_on_c, 11, 48, 105
6, 6144, Note_on_c, 11, 48, 0
6, 6480, Note_on_c, 11, 45, 105
6, 6624, Note_on_c, 11, 45, 0
6, 6720, Note_on_c, 11, 48, 105
6, 7104, Note_on_c, 11, 48, 0
6, 7440, Note_on_c, 11, 45, 105
6, 7584, Note_on_c, 11, 45, 0
6, 7680, Note_on_c, 11, 48, 105
6, 7824, Note_on_c, 11, 48, 0
6, 7920, Note_on_c, 11, 45, 105
6, 8064, Note_on_c, 11, 45, 0
6, 8160, Note_on_c, 11, 42, 105
6, 8304, Note_on_c, 11, 42, 0
6, 8400, Note_on_c, 11, 45, 105
6, 8544, Note_on_c, 11, 45, 0
6, 8640, Note_on_c, 11, 38, 105
6, 9024, Note_on_c, 11, 38, 0
6, 9600, Note_on_c, 11, 43, 105
6, 9756, Note_on_c, 11, 43, 0
6, 9840, Note_on_c, 11, 43, 105
6, 9996, Note_on_c, 11, 43, 0
6, 10080, Note_on_c, 11, 43, 105
6, 10236, Note_on_c, 11, 43, 0
6, 10320, Note_on_c, 11, 43, 105
6, 10476, Note_on_c, 11, 43, 0
6, 10560, Note_on_c, 11, 43, 105
6, 10716, Note_on_c, 11, 43, 0
6, 10800, Note_on_c, 11, 43, 105
6, 10956, Note_on_c, 11, 43, 0
6, 11040, Note_on_c, 11, 43, 105
6, 11196, Note_on_c, 11, 43, 0
6, 11280, Note_on_c, 11, 43, 105
6, 11436, Note_on_c, 11, 43, 0
6, 11520, Note_on_c, 11, 43, 105
6, 11676, Note_on_c, 11, 43, 0
6, 11760, Note_on_c, 11, 43, 105
6, 11916, Note_on_c, 11, 43, 0
6, 12000, Note_on_c, 11, 43, 105
6, 12156, Note_on_c, 11, 43, 0
6, 12240, Note_on_c, 11, 43, 105
6, 12396, Note_on_c, 11, 43, 0
6, 12480, Note_on_c, 11, 43, 105
6, 12636, Note_on_c, 11, 43, 0
6, 12720, Note_on_c, 11, 43, 105
6, 12876, Note_on_c, 11, 43, 0
6, 12960, Note_on_c, 11, 43, 105
6, 13116, Note_on_c, 11, 43, 0
6, 13200, Note_on_c, 11, 43, 105
6, 13356, Note_on_c, 11, 43, 0
6, 13440, Note_on_c, 11, 43, 105
6, 13596, Note_on_c, 11, 43, 0
6, 13680, Note_on_c, 11, 43, 105
6, 13836, Note_on_c, 11, 43, 0
6, 13920, Note_on_c, 11, 43, 105
6, 14076, Note_on_c, 11, 43, 0
6, 14160, Note_on_c, 11, 43, 105
6, 14316, Note_on_c, 11, 43, 0
6, 14400, Note_on_c, 11, 43, 105
6, 14556, Note_on_c, 11, 43, 0
6, 14640, Note_on_c, 11, 43, 105
6, 14796, Note_on_c, 11, 43, 0
6, 14880, Note_on_c, 11, 43, 105
6, 15036, Note_on_c, 11, 43, 0
6, 15120, Note_on_c, 11, 43, 105
6, 15276, Note_on_c, 11, 43, 0
6, 15360, Note_on_c, 11, 43, 105
6, 15516, Note_on_c, 11, 43, 0
6, 15600, Note_on_c, 11, 43, 105
6, 15756, Note_on_c, 11, 43, 0
6, 15840, Note_on_c, 11, 43, 105
6, 15996, Note_on_c, 11, 43, 0
6, 16080, Note_on_c, 11, 43, 105
6, 16236, Note_on_c, 11, 43, 0
6, 16320, Note_on_c, 11, 43, 105
6, 16476, Note_on_c, 11, 43, 0
6, 16560, Note_on_c, 11, 43, 105
6, 16716, Note_on_c, 11, 43, 0
6, 16800, Note_on_c, 11, 43, 105
6, 16956, Note_on_c, 11, 43, 0
6, 17040, Note_on_c, 11, 43, 105
6, 17196, Note_on_c, 11, 43, 0
6, 17280, Note_on_c, 11, 43, 105
6, 17436, Note_on_c, 11, 43, 0
6, 17520, Note_on_c, 11, 43, 105
6, 17676, Note_on_c, 11, 43, 0
6, 17760, Note_on_c, 11, 45, 105
6, 17916, Note_on_c, 11, 45, 0
6, 18000, Note_on_c, 11, 45, 105
6, 18156, Note_on_c, 11, 45, 0
6, 18240, Note_on_c, 11, 47, 105
6, 18396, Note_on_c, 11, 47, 0
6, 18480, Note_on_c, 11, 47, 105
6, 18636, Note_on_c, 11, 47, 0
6, 18720, Note_on_c, 11, 42, 105
6, 18876, Note_on_c, 11, 42, 0
6, 18960, Note_on_c, 11, 42, 105
6, 19116, Note_on_c, 11, 42, 0
6, 19200, Note_on_c, 11, 43, 105
6, 19356, Note_on_c, 11, 43, 0
6, 19440, Note_on_c, 11, 43, 105
6, 19596, Note_on_c, 11, 43, 0
6, 19680, Note_on_c, 11, 45, 105
6, 19836, Note_on_c, 11, 45, 0
6, 19920, Note_on_c, 11, 45, 105
6, 20076, Note_on_c, 11, 45, 0
6, 20160, Note_on_c, 11, 47, 92
6, 20544, Note_on_c, 11, 47, 0
6, 23040, Note_on_c, 11, 38, 58
6, 24000, Note_on_c, 11, 38, 0
6, 24000, Note_on_c, 11, 40, 58
6, 24768, Note_on_c, 11, 40, 0
6, 24960, Note_on_c, 11, 36, 58
6, 25272, Note_on_c, 11, 36, 0
6, 25440, Note_on_c, 11, 36, 58
6, 25752, Note_on_c, 11, 36, 0
6, 25920, Note_on_c, 11, 38, 58
6, 26232, Note_on_c, 11, 38, 0
6, 26400, Note_on_c, 11, 38, 58
6, 26712, Note_on_c, 11, 38, 0
6, 26880, Note_on_c, 11, 35, 58
6, 27072, Note_on_c, 11, 35, 0
6, 27360, Note_on_c, 11, 38, 58
6, 27552, Note_on_c, 11, 38, 0
6, 27840, Note_on_c, 11, 43, 58
6, 28224, Note_on_c, 11, 43, 0
6, 30720, Note_on_c, 11, 38, 58
6, 31680, Note_on_c, 11, 38, 0
6, 31680, Note_on_c, 11, 40, 58
6, 32448, Note_on_c, 11, 40, 0
6, 32640, Note_on_c, 11, 36, 58
6, 32952, Note_on_c, 11, 36, 0
6, 33120, Note_on_c, 11, 36, 58
6, 33432, Note_on_c, 11, 36, 0
6, 33600, Note_on_c, 11, 38, 58
6, 33912, Note_on_c, 11, 38, 0
6, 34080, Note_on_c, 11, 38, 58
6, 34392, Note_on_c, 11, 38, 0
6, 34560, Note_on_c, 11, 43, 112
6, 34752, Note_on_c, 11, 43, 0
6, 34800, Note_on_c, 11, 43, 92
6, 34992, Note_on_c, 11, 43, 0
6, 35040, Note_on_c, 11, 43, 92
6, 35232, Note_on_c, 11, 43, 0
6, 35280, Note_on_c, 11, 43, 92
6, 35472, Note_on_c, 11, 43, 0
6, 35520, Note_on_c, 11, 43, 58
6, 35712, Note_on_c, 11, 43, 0
6, 35760, Note_on_c, 11, 43, 58
6, 35952, Note_on_c, 11, 43, 0
6, 36000, Note_on_c, 11, 43, 58
6, 36192, Note_on_c, 11, 43, 0
6, 36240, Note_on_c, 11, 43, 58
6, 36432, Note_on_c, 11, 43, 0
6, 36480, Note_on_c, 11, 43, 112
6, 36672, Note_on_c, 11, 43, 0
6, 36720, Note_on_c, 11, 43, 92
6, 36912, Note_on_c, 11, 43, 0
6, 36960, Note_on_c, 11, 43, 92
6, 37152, Note_on_c, 11, 43, 0
6, 37200, Note_on_c, 11, 43, 92
6, 37392, Note_on_c, 11, 43, 0
6, 37440, Note_on_c, 11, 43, 58
6, 37632, Note_on_c, 11, 43, 0
6, 37680, Note_on_c, 11, 43, 58
6, 37872, Note_on_c, 11, 43, 0
6, 37920, Note_on_c, 11, 43, 58
6, 38112, Note_on_c, 11, 43, 0
6, 38160, Note_on_c, 11, 43, 58
6, 38352, Note_on_c, 11, 43, 0
6, 38400, Note_on_c, 11, 43, 58
6, 38592, Note_on_c, 11, 43, 0
6, 38640, Note_on_c, 11, 43, 58
6, 38832, Note_on_c, 11, 43, 0
6, 38880, Note_on_c, 11, 43, 58
6, 39072, Note_on_c, 11, 43, 0
6, 39120, Note_on_c, 11, 43, 58
6, 39312, Note_on_c, 11, 43, 0
6, 39360, Note_on_c, 11, 43, 58
6, 39552, Note_on_c, 11, 43, 0
6, 39600, Note_on_c, 11, 43, 72
6, 39792, Note_on_c, 11, 43, 0
6, 39840, Note_on_c, 11, 43, 72
6, 40032, Note_on_c, 11, 43, 0
6, 40080, Note_on_c, 11, 43, 72
6, 40272, Note_on_c, 11, 43, 0
6, 40320, Note_on_c, 11, 43, 72
6, 40512, Note_on_c, 11, 43, 0
6, 40560, Note_on_c, 11, 43, 81
6, 40752, Note_on_c, 11, 43, 0
6, 40800, Note_on_c, 11, 42, 81
6, 40992, Note_on_c, 11, 42, 0
6, 41040, Note_on_c, 11, 42, 81
6, 41232, Note_on_c, 11, 42, 0
6, 41280, Note_on_c, 11, 43, 81
6, 41472, Note_on_c, 11, 43, 0
6, 41520, Note_on_c, 11, 43, 92
6, 41712, Note_on_c, 11, 43, 0
6, 41760, Note_on_c, 11, 40, 105
6, 41952, Note_on_c, 11, 40, 0
6, 42000, Note_on_c, 11, 40, 105
6, 42192, Note_on_c, 11, 40, 0
6, 42240, Note_on_c, 11, 38, 105
6, 42432, Note_on_c, 11, 38, 0
6, 42480, Note_on_c, 11, 38, 105
6, 42672, Note_on_c, 11, 38, 0
6, 42720, Note_on_c, 11, 38, 105
6, 42912, Note_on_c, 11, 38, 0
6, 42960, Note_on_c, 11, 38, 105
6, 43152, Note_on_c, 11, 38, 0
6, 43200, Note_on_c, 11, 38, 105
6, 43392, Note_on_c, 11, 38, 0
6, 43440, Note_on_c, 11, 38, 105
6, 43632, Note_on_c, 11, 38, 0
6, 43680, Note_on_c, 11, 38, 105
6, 43872, Note_on_c, 11, 38, 0
6, 43920, Note_on_c, 11, 38, 105
6, 44112, Note_on_c, 11, 38, 0
6, 44160, Note_on_c, 11, 38, 105
6, 44352, Note_on_c, 11, 38, 0
6, 44400, Note_on_c, 11, 38, 105
6, 44592, Note_on_c, 11, 38, 0
6, 44640, Note_on_c, 11, 38, 105
6, 44832, Note_on_c, 11, 38, 0
6, 44880, Note_on_c, 11, 38, 105
6, 45072, Note_on_c, 11, 38, 0
6, 45120, Note_on_c, 11, 38, 105
6, 45312, Note_on_c, 11, 38, 0
6, 45360, Note_on_c, 11, 38, 105
6, 45552, Note_on_c, 11, 38, 0
6, 45600, Note_on_c, 11, 38, 105
6, 45792, Note_on_c, 11, 38, 0
6, 45840, Note_on_c, 11, 38, 105
6, 46032, Note_on_c, 11, 38, 0
6, 46080, Note_on_c, 11, 38, 105
6, 46236, Note_on_c, 11, 38, 0
6, 46320, Note_on_c, 11, 40, 105
6, 46476, Note_on_c, 11, 40, 0
6, 46560, Note_on_c, 11, 42, 105
6, 46716, Note_on_c, 11, 42, 0
6, 46800, Note_on_c, 11, 40, 105
6, 46956, Note_on_c, 11, 40, 0
6, 47040, Note_on_c, 11, 38, 105
6, 47196, Note_on_c, 11, 38, 0
6, 47280, Note_on_c, 11, 40, 105
6, 47436, Note_on_c, 11, 40, 0
6, 47520, Note_on_c, 11, 42, 105
6, 47676, Note_on_c, 11, 42, 0
6, 47760, Note_on_c, 11, 38, 105
6, 47916, Note_on_c, 11, 38, 0
6, 48000, Note_on_c, 11, 43, 105
6, 48156, Note_on_c, 11, 43, 0
6, 48240, Note_on_c, 11, 45, 105
6, 48396, Note_on_c, 11, 45, 0
6, 48480, Note_on_c, 11, 47, 105
6, 48636, Note_on_c, 11, 47, 0
6, 48720, Note_on_c, 11, 45, 105
6, 48876, Note_on_c, 11, 45, 0
6, 48960, Note_on_c, 11, 43, 105
6, 49116, Note_on_c, 11, 43, 0
6, 49200, Note_on_c, 11, 45, 105
6, 49356, Note_on_c, 11, 45, 0
6, 49440, Note_on_c, 11, 47, 105
6, 49596, Note_on_c, 11, 47, 0
6, 49680, Note_on_c, 11, 44, 105
6, 49836, Note_on_c, 11, 44, 0
6, 49920, Note_on_c, 11, 45, 105
6, 50076, Note_on_c, 11, 45, 0
6, 50160, Note_on_c, 11, 45, 105
6, 50316, Note_on_c, 11, 45, 0
6, 50400, Note_on_c, 11, 45, 105
6, 50556, Note_on_c, 11, 45, 0
6, 50640, Note_on_c, 11, 45, 105
6, 50796, Note_on_c, 11, 45, 0
6, 50880, Note_on_c, 11, 45, 105
6, 51036, Note_on_c, 11, 45, 0
6, 51120, Note_on_c, 11, 45, 105
6, 51276, Note_on_c, 11, 45, 0
6, 51360, Note_on_c, 11, 45, 105
6, 51516, Note_on_c, 11, 45, 0
6, 51600, Note_on_c, 11, 45, 105
6, 51756, Note_on_c, 11, 45, 0
6, 51840, Note_on_c, 11, 45, 105
6, 51996, Note_on_c, 11, 45, 0
6, 52080, Note_on_c, 11, 33, 105
6, 52236, Note_on_c, 11, 33, 0
6, 52320, Note_on_c, 11, 33, 105
6, 52476, Note_on_c, 11, 33, 0
6, 52560, Note_on_c, 11, 33, 105
6, 52716, Note_on_c, 11, 33, 0
6, 52800, Note_on_c, 11, 33, 92
6, 53184, Note_on_c, 11, 33, 0
6, 55200, Note_on_c, 11, 39, 58
6, 55392, Note_on_c, 11, 39, 0
6, 55680, Note_on_c, 11, 40, 58
6, 55872, Note_on_c, 11, 40, 0
6, 56160, Note_on_c, 11, 38, 58
6, 56352, Note_on_c, 11, 38, 0
6, 56640, Note_on_c, 11, 37, 58
6, 56832, Note_on_c, 11, 37, 0
6, 57120, Note_on_c, 11, 33, 58
6, 57312, Note_on_c, 11, 33, 0
6, 58080, Note_on_c, 11, 34, 58
6, 58464, Note_on_c, 11, 34, 0
6, 58560, Note_on_c, 11, 35, 58
6, 58752, Note_on_c, 11, 35, 0
6, 59040, Note_on_c, 11, 31, 58
6, 59232, Note_on_c, 11, 31, 0
6, 59520, Note_on_c, 11, 33, 58
6, 59904, Note_on_c, 11, 33, 0
6, 60000, Note_on_c, 11, 45, 58
6, 60720, Note_on_c, 11, 45, 0
6, 60720, Note_on_c, 11, 44, 58
6, 60960, Note_on_c, 11, 44, 0
6, 60960, Note_on_c, 11, 43, 58
6, 61200, Note_on_c, 11, 43, 0
6, 61200, Note_on_c, 11, 40, 58
6, 61440, Note_on_c, 11, 40, 0
6, 61440, Note_on_c, 11, 38, 58
6, 61632, Note_on_c, 11, 38, 0
6, 61920, Note_on_c, 11, 40, 58
6, 62112, Note_on_c, 11, 40, 0
6, 62400, Note_on_c, 11, 42, 58
6, 62592, Note_on_c, 11, 42, 0
6, 62880, Note_on_c, 11, 39, 58
6, 63072, Note_on_c, 11, 39, 0
6, 63360, Note_on_c, 11, 40, 58
6, 63552, Note_on_c, 11, 40, 0
6, 63840, Note_on_c, 11, 38, 58
6, 64032, Note_on_c, 11, 38, 0
6, 64320, Note_on_c, 11, 37, 58
6, 64512, Note_on_c, 11, 37, 0
6, 64800, Note_on_c, 11, 33, 58
6, 64992, Note_on_c, 11, 33, 0
6, 65280, Note_on_c, 11, 35, 58
6, 65472, Note_on_c, 11, 35, 0
6, 65760, Note_on_c, 11, 43, 58
6, 65952, Note_on_c, 11, 43, 0
6, 66240, Note_on_c, 11, 45, 58
6, 66432, Note_on_c, 11, 45, 0
6, 66720, Note_on_c, 11, 33, 58
6, 66912, Note_on_c, 11, 33, 0
6, 67200, Note_on_c, 11, 38, 58
6, 67584, Note_on_c, 11, 38, 0
6, 69120, Note_on_c, 11, 33, 58
6, 69504, Note_on_c, 11, 33, 0
6, 71040, Note_on_c, 11, 38, 58
6, 71424, Note_on_c, 11, 38, 0
6, 72960, Note_on_c, 11, 33, 58
6, 73344, Note_on_c, 11, 33, 0
6, 75120, Note_on_c, 11, 38, 105
6, 75276, Note_on_c, 11, 38, 0
6, 75360, Note_on_c, 11, 42, 105
6, 75516, Note_on_c, 11, 42, 0
6, 75600, Note_on_c, 11, 40, 105
6, 75756, Note_on_c, 11, 40, 0
6, 75840, Note_on_c, 11, 39, 105
6, 75996, Note_on_c, 11, 39, 0
6, 76080, Note_on_c, 11, 35, 105
6, 76236, Note_on_c, 11, 35, 0
6, 76320, Note_on_c, 11, 37, 105
6, 76476, Note_on_c, 11, 37, 0
6, 76560, Note_on_c, 11, 39, 105
6, 76716, Note_on_c, 11, 39, 0
6, 76800, Note_on_c, 11, 40, 105
6, 76956, Note_on_c, 11, 40, 0
6, 77040, Note_on_c, 11, 43, 105
6, 77196, Note_on_c, 11, 43, 0
6, 77280, Note_on_c, 11, 40, 105
6, 77436, Note_on_c, 11, 40, 0
6, 77520, Note_on_c, 11, 38, 105
6, 77676, Note_on_c, 11, 38, 0
6, 77760, Note_on_c, 11, 37, 105
6, 77916, Note_on_c, 11, 37, 0
6, 78000, Note_on_c, 11, 33, 105
6, 78156, Note_on_c, 11, 33, 0
6, 78240, Note_on_c, 11, 35, 105
6, 78396, Note_on_c, 11, 35, 0
6, 78480, Note_on_c, 11, 37, 105
6, 78636, Note_on_c, 11, 37, 0
6, 78720, Note_on_c, 11, 38, 105
6, 78876, Note_on_c, 11, 38, 0
6, 78960, Note_on_c, 11, 38, 105
6, 79116, Note_on_c, 11, 38, 0
6, 79200, Note_on_c, 11, 40, 105
6, 79356, Note_on_c, 11, 40, 0
6, 79440, Note_on_c, 11, 42, 105
6, 79596, Note_on_c, 11, 42, 0
6, 79680, Note_on_c, 11, 43, 105
6, 79836, Note_on_c, 11, 43, 0
6, 79920, Note_on_c, 11, 43, 105
6, 80076, Note_on_c, 11, 43, 0
6, 80160, Note_on_c, 11, 43, 105
6, 80316, Note_on_c, 11, 43, 0
6, 80400, Note_on_c, 11, 43, 105
6, 80556, Note_on_c, 11, 43, 0
6, 80640, Note_on_c, 11, 45, 105
6, 80796, Note_on_c, 11, 45, 0
6, 80880, Note_on_c, 11, 45, 105
6, 81036, Note_on_c, 11, 45, 0
6, 81120, Note_on_c, 11, 45, 105
6, 81276, Note_on_c, 11, 45, 0
6, 81360, Note_on_c, 11, 45, 105
6, 81516, Note_on_c, 11, 45, 0
6, 81600, Note_on_c, 11, 33, 105
6, 81756, Note_on_c, 11, 33, 0
6, 81840, Note_on_c, 11, 33, 105
6, 81996, Note_on_c, 11, 33, 0
6, 82080, Note_on_c, 11, 33, 105
6, 82236, Note_on_c, 11, 33, 0
6, 82320, Note_on_c, 11, 33, 105
6, 82476, Note_on_c, 11, 33, 0
6, 82560, Note_on_c, 11, 38, 92
6, 82944, Note_on_c, 11, 38, 0
6, 84480, Note_on_c, 11, 33, 58
6, 84864, Note_on_c, 11, 33, 0
6, 86400, Note_on_c, 11, 38, 58
6, 86784, Note_on_c, 11, 38, 0
6, 88320, Note_on_c, 11, 33, 58
6, 88704, Note_on_c, 11, 33, 0
6, 90480, Note_on_c, 11, 38, 105
6, 90636, Note_on_c, 11, 38, 0
6, 90720, Note_on_c, 11, 42, 105
6, 90876, Note_on_c, 11, 42, 0
6, 90960, Note_on_c, 11, 40, 105
6, 91116, Note_on_c, 11, 40, 0
6, 91200, Note_on_c, 11, 39, 105
6, 91356, Note_on_c, 11, 39, 0
6, 91440, Note_on_c, 11, 35, 105
6, 91596, Note_on_c, 11, 35, 0
6, 91680, Note_on_c, 11, 37, 105
6, 91836, Note_on_c, 11, 37, 0
6, 91920, Note_on_c, 11, 39, 105
6, 92076, Note_on_c, 11, 39, 0
6, 92160, Note_on_c, 11, 40, 105
6, 92316, Note_on_c, 11, 40, 0
6, 92400, Note_on_c, 11, 43, 105
6, 92556, Note_on_c, 11, 43, 0
6, 92640, Note_on_c, 11, 40, 105
6, 92796, Note_on_c, 11, 40, 0
6, 92880, Note_on_c, 11, 38, 105
6, 93036, Note_on_c, 11, 38, 0
6, 93120, Note_on_c, 11, 37, 105
6, 93276, Note_on_c, 11, 37, 0
6, 93360, Note_on_c, 11, 33, 105
6, 93516, Note_on_c, 11, 33, 0
6, 93600, Note_on_c, 11, 35, 105
6, 93756, Note_on_c, 11, 35, 0
6, 93840, Note_on_c, 11, 37, 105
6, 93996, Note_on_c, 11, 37, 0
6, 94080, Note_on_c, 11, 38, 105
6, 94236, Note_on_c, 11, 38, 0
6, 94320, Note_on_c, 11, 38, 105
6, 94476, Note_on_c, 11, 38, 0
6, 94560, Note_on_c, 11, 40, 105
6, 94716, Note_on_c, 11, 40, 0
6, 94800, Note_on_c, 11, 42, 105
6, 94956, Note_on_c, 11, 42, 0
6, 95040, Note_on_c, 11, 43, 105
6, 95196, Note_on_c, 11, 43, 0
6, 95280, Note_on_c, 11, 43, 105
6, 95436, Note_on_c, 11, 43, 0
6, 95520, Note_on_c, 11, 43, 105
6, 95676, Note_on_c, 11, 43, 0
6, 95760, Note_on_c, 11, 43, 105
6, 95916, Note_on_c, 11, 43, 0
6, 96000, Note_on_c, 11, 45, 105
6, 96156, Note_on_c, 11, 45, 0
6, 96240, Note_on_c, 11, 45, 105
6, 96396, Note_on_c, 11, 45, 0
6, 96480, Note_on_c, 11, 45, 105
6, 96636, Note_on_c, 11, 45, 0
6, 96720, Note_on_c, 11, 45, 105
6, 96876, Note_on_c, 11, 45, 0
6, 96960, Note_on_c, 11, 33, 105
6, 97116, Note_on_c, 11, 33, 0
6, 97200, Note_on_c, 11, 33, 105
6, 97356, Note_on_c, 11, 33, 0
6, 97440, Note_on_c, 11, 33, 105
6, 97596, Note_on_c, 11, 33, 0
6, 97680, Note_on_c, 11, 33, 105
6, 97836, Note_on_c, 11, 33, 0
6, 97920, Note_on_c, 11, 38, 105
6, 98076, Note_on_c, 11, 38, 0
6, 98160, Note_on_c, 11, 33, 105
6, 98316, Note_on_c, 11, 33, 0
6, 98400, Note_on_c, 11, 35, 105
6, 98556, Note_on_c, 11, 35, 0
6, 98640, Note_on_c, 11, 37, 105
6, 98796, Note_on_c, 11, 37, 0
6, 98880, Note_on_c, 11, 38, 105
6, 99036, Note_on_c, 11, 38, 0
6, 99120, Note_on_c, 11, 38, 105
6, 99276, Note_on_c, 11, 38, 0
6, 99360, Note_on_c, 11, 40, 105
6, 99516, Note_on_c, 11, 40, 0
6, 99600, Note_on_c, 11, 40, 105
6, 99756, Note_on_c, 11, 40, 0
6, 99840, Note_on_c, 11, 42, 105
6, 99996, Note_on_c, 11, 42, 0
6, 100080, Note_on_c, 11, 37, 105
6, 100236, Note_on_c, 11, 37, 0
6, 100320, Note_on_c, 11, 38, 105
6, 100476, Note_on_c, 11, 38, 0
6, 100560, Note_on_c, 11, 40, 105
6, 100716, Note_on_c, 11, 40, 0
6, 100800, Note_on_c, 11, 42, 105
6, 100956, Note_on_c, 11, 42, 0
6, 101040, Note_on_c, 11, 42, 105
6, 101196, Note_on_c, 11, 42, 0
6, 101280, Note_on_c, 11, 43, 105
6, 101436, Note_on_c, 11, 43, 0
6, 101520, Note_on_c, 11, 43, 105
6, 101676, Note_on_c, 11, 43, 0
6, 101760, Note_on_c, 11, 45, 105
6, 101916, Note_on_c, 11, 45, 0
6, 102000, Note_on_c, 11, 45, 105
6, 102156, Note_on_c, 11, 45, 0
6, 102240, Note_on_c, 11, 46, 105
6, 102396, Note_on_c, 11, 46, 0
6, 102480, Note_on_c, 11, 46, 105
6, 102636, Note_on_c, 11, 46, 0
6, 102720, Note_on_c, 11, 47, 92
6, 103104, Note_on_c, 11, 47, 0
6, 103680, Note_on_c, 11, 43, 58
6, 104640, Note_on_c, 11, 43, 0
6, 104640, Note_on_c, 11, 45, 58
6, 105552, Note_on_c, 11, 45, 0
6, 105600, Note_on_c, 11, 38, 58
6, 105792, Note_on_c, 11, 38, 0
6, 106080, Note_on_c, 11, 38, 58
6, 106272, Note_on_c, 11, 38, 0
6, 106560, Note_on_c, 11, 38, 58
6, 106752, Note_on_c, 11, 38, 0
6, 107520, Note_on_c, 11, 43, 105
6, 107904, Note_on_c, 11, 43, 0
6, 108240, Note_on_c, 11, 38, 105
6, 108384, Note_on_c, 11, 38, 0
6, 108480, Note_on_c, 11, 43, 105
6, 108864, Note_on_c, 11, 43, 0
6, 109200, Note_on_c, 11, 38, 105
6, 109344, Note_on_c, 11, 38, 0
6, 109440, Note_on_c, 11, 43, 105
6, 109584, Note_on_c, 11, 43, 0
6, 109680, Note_on_c, 11, 38, 105
6, 109824, Note_on_c, 11, 38, 0
6, 109920, Note_on_c, 11, 43, 105
6, 110064, Note_on_c, 11, 43, 0
6, 110160, Note_on_c, 11, 47, 105
6, 110304, Note_on_c, 11, 47, 0
6, 110400, Note_on_c, 11, 50, 105
6, 110784, Note_on_c, 11, 50, 0
6, 111360, Note_on_c, 11, 48, 105
6, 111744, Note_on_c, 11, 48, 0
6, 112080, Note_on_c, 11, 45, 105
6, 112224, Note_on_c, 11, 45, 0
6, 112320, Note_on_c, 11, 48, 105
6, 112704, Note_on_c, 11, 48, 0
6, 113040, Note_on_c, 11, 45, 105
6, 113184, Note_on_c, 11, 45, 0
6, 113280, Note_on_c, 11, 48, 105
6, 113424, Note_on_c, 11, 48, 0
6, 113520, Note_on_c, 11, 45, 105
6, 113664, Note_on_c, 11, 45, 0
6, 113760, Note_on_c, 11, 42, 105
6, 113904, Note_on_c, 11, 42, 0
6, 114000, Note_on_c, 11, 45, 105
6, 114144, Note_on_c, 11, 45, 0
6, 114240, Note_on_c, 11, 38, 105
6, 114624, Note_on_c, 11, 38, 0
6, 115200, Note_on_c, 11, 43, 105
6, 115356, Note_on_c, 11, 43, 0
6, 115440, Note_on_c, 11, 43, 105
6, 115596, Note_on_c, 11, 43, 0
6, 115680, Note_on_c, 11, 43, 105
6, 115836, Note_on_c, 11, 43, 0
6, 115920, Note_on_c, 11, 43, 105
6, 116076, Note_on_c, 11, 43, 0
6, 116160, Note_on_c, 11, 43, 105
6, 116316, Note_on_c, 11, 43, 0
6, 116400, Note_on_c, 11, 43, 105
6, 116556, Note_on_c, 11, 43, 0
6, 116640, Note_on_c, 11, 43, 105
6, 116796, Note_on_c, 11, 43, 0
6, 116880, Note_on_c, 11, 43, 105
6, 117036, Note_on_c, 11, 43, 0
6, 117120, Note_on_c, 11, 43, 105
6, 117276, Note_on_c, 11, 43, 0
6, 117360, Note_on_c, 11, 43, 105
6, 117516, Note_on_c, 11, 43, 0
6, 117600, Note_on_c, 11, 43, 105
6, 117756, Note_on_c, 11, 43, 0
6, 117840, Note_on_c, 11, 43, 105
6, 117996, Note_on_c, 11, 43, 0
6, 118080, Note_on_c, 11, 43, 105
6, 118236, Note_on_c, 11, 43, 0
6, 118320, Note_on_c, 11, 43, 105
6, 118476, Note_on_c, 11, 43, 0
6, 118560, Note_on_c, 11, 43, 105
6, 118716, Note_on_c, 11, 43, 0
6, 118800, Note_on_c, 11, 43, 105
6, 118956, Note_on_c, 11, 43, 0
6, 119040, Note_on_c, 11, 43, 105
6, 119196, Note_on_c, 11, 43, 0
6, 119280, Note_on_c, 11, 43, 105
6, 119436, Note_on_c, 11, 43, 0
6, 119520, Note_on_c, 11, 43, 105
6, 119676, Note_on_c, 11, 43, 0
6, 119760, Note_on_c, 11, 43, 105
6, 119916, Note_on_c, 11, 43, 0
6, 120000, Note_on_c, 11, 43, 105
6, 120156, Note_on_c, 11, 43, 0
6, 120240, Note_on_c, 11, 43, 105
6, 120396, Note_on_c, 11, 43, 0
6, 120480, Note_on_c, 11, 43, 105
6, 120636, Note_on_c, 11, 43, 0
6, 120720, Note_on_c, 11, 43, 105
6, 120876, Note_on_c, 11, 43, 0
6, 120960, Note_on_c, 11, 43, 105
6, 121116, Note_on_c, 11, 43, 0
6, 121200, Note_on_c, 11, 43, 105
6, 121356, Note_on_c, 11, 43, 0
6, 121440, Note_on_c, 11, 43, 105
6, 121596, Note_on_c, 11, 43, 0
6, 121680, Note_on_c, 11, 43, 105
6, 121836, Note_on_c, 11, 43, 0
6, 121920, Note_on_c, 11, 43, 105
6, 122076, Note_on_c, 11, 43, 0
6, 122160, Note_on_c, 11, 43, 105
6, 122316, Note_on_c, 11, 43, 0
6, 122400, Note_on_c, 11, 43, 105
6, 122556, Note_on_c, 11, 43, 0
6, 122640, Note_on_c, 11, 43, 105
6, 122796, Note_on_c, 11, 43, 0
6, 122880, Note_on_c, 11, 43, 105
6, 123036, Note_on_c, 11, 43, 0
6, 123120, Note_on_c, 11, 43, 105
6, 123276, Note_on_c, 11, 43, 0
6, 123360, Note_on_c, 11, 45, 105
6, 123516, Note_on_c, 11, 45, 0
6, 123600, Note_on_c, 11, 45, 105
6, 123756, Note_on_c, 11, 45, 0
6, 123840, Note_on_c, 11, 47, 105
6, 123996, Note_on_c, 11, 47, 0
6, 124080, Note_on_c, 11, 47, 105
6, 124236, Note_on_c, 11, 47, 0
6, 124320, Note_on_c, 11, 42, 105
6, 124476, Note_on_c, 11, 42, 0
6, 124560, Note_on_c, 11, 42, 105
6, 124716, Note_on_c, 11, 42, 0
6, 124800, Note_on_c, 11, 43, 105
6, 124956, Note_on_c, 11, 43, 0
6, 125040, Note_on_c, 11, 43, 105
6, 125196, Note_on_c, 11, 43, 0
6, 125280, Note_on_c, 11, 45, 105
6, 125436, Note_on_c, 11, 45, 0
6, 125520, Note_on_c, 11, 45, 105
6, 125676, Note_on_c, 11, 45, 0
6, 125760, Note_on_c, 11, 47, 92
6, 126144, Note_on_c, 11, 47, 0
6, 128640, Note_on_c, 11, 38, 58
6, 129600, Note_on_c, 11, 38, 0
6, 129600, Note_on_c, 11, 40, 58
6, 130368, Note_on_c, 11, 40, 0
6, 130560, Note_on_c, 11, 36, 58
6, 130872, Note_on_c, 11, 36, 0
6, 131040, Note_on_c, 11, 36, 58
6, 131352, Note_on_c, 11, 36, 0
6, 131520, Note_on_c, 11, 38, 58
6, 131832, Note_on_c, 11, 38, 0
6, 132000, Note_on_c, 11, 38, 58
6, 132312, Note_on_c, 11, 38, 0
6, 132480, Note_on_c, 11, 35, 58
6, 132672, Note_on_c, 11, 35, 0
6, 132960, Note_on_c, 11, 38, 58
6, 133152, Note_on_c, 11, 38, 0
6, 133440, Note_on_c, 11, 43, 58
6, 133824, Note_on_c, 11, 43, 0
6, 136320, Note_on_c, 11, 38, 58
6, 137280, Note_on_c, 11, 38, 0
6, 137280, Note_on_c, 11, 40, 58
6, 138048, Note_on_c, 11, 40, 0
6, 138240, Note_on_c, 11, 36, 58
6, 138552, Note_on_c, 11, 36, 0
6, 138720, Note_on_c, 11, 36, 58
6, 139032, Note_on_c, 11, 36, 0
6, 139200, Note_on_c, 11, 38, 58
6, 139512, Note_on_c, 11, 38, 0
6, 139680, Note_on_c, 11, 38, 58
6, 139992, Note_on_c, 11, 38, 0
6, 140160, Note_on_c, 11, 43, 112
6, 140352, Note_on_c, 11, 43, 0
6, 140400, Note_on_c, 11, 43, 92
6, 140592, Note_on_c, 11, 43, 0
6, 140640, Note_on_c, 11, 43, 92
6, 140832, Note_on_c, 11, 43, 0
6, 140880, Note_on_c, 11, 43, 92
6, 141072, Note_on_c, 11, 43, 0
6, 141120, Note_on_c, 11, 43, 58
6, 141312, Note_on_c, 11, 43, 0
6, 141360, Note_on_c, 11, 43, 58
6, 141552, Note_on_c, 11, 43, 0
6, 141600, Note_on_c, 11, 43, 58
6, 141792, Note_on_c, 11, 43, 0
6, 141840, Note_on_c, 11, 43, 58
6, 142032, Note_on_c, 11, 43, 0
6, 142080, Note_on_c, 11, 43, 112
6, 142272, Note_on_c, 11, 43, 0
6, 142320, Note_on_c, 11, 43, 92
6, 142512, Note_on_c, 11, 43, 0
6, 142560, Note_on_c, 11, 43, 92
6, 142752, Note_on_c, 11, 43, 0
6, 142800, Note_on_c, 11, 43, 92
6, 142992, Note_on_c, 11, 43, 0
6, 143040, Note_on_c, 11, 43, 58
6, 143232, Note_on_c, 11, 43, 0
6, 143280, Note_on_c, 11, 43, 58
6, 143472, Note_on_c, 11, 43, 0
6, 143520, Note_on_c, 11, 43, 58
6, 143712, Note_on_c, 11, 43, 0
6, 143760, Note_on_c, 11, 43, 58
6, 143952, Note_on_c, 11, 43, 0
6, 144000, Note_on_c, 11, 43, 58
6, 144192, Note_on_c, 11, 43, 0
6, 144240, Note_on_c, 11, 43, 58
6, 144432, Note_on_c, 11, 43, 0
6, 144480, Note_on_c, 11, 43, 58
6, 144672, Note_on_c, 11, 43, 0
6, 144720, Note_on_c, 11, 43, 58
6, 144912, Note_on_c, 11, 43, 0
6, 144960, Note_on_c, 11, 43, 58
6, 145152, Note_on_c, 11, 43, 0
6, 145200, Note_on_c, 11, 43, 72
6, 145392, Note_on_c, 11, 43, 0
6, 145440, Note_on_c, 11, 43, 72
6, 145632, Note_on_c, 11, 43, 0
6, 145680, Note_on_c, 11, 43, 72
6, 145872, Note_on_c, 11, 43, 0
6, 145920, Note_on_c, 11, 43, 72
6, 146112, Note_on_c, 11, 43, 0
6, 146160, Note_on_c, 11, 43, 81
6, 146352, Note_on_c, 11, 43, 0
6, 146400, Note_on_c, 11, 42, 81
6, 146592, Note_on_c, 11, 42, 0
6, 146640, Note_on_c, 11, 42, 81
6, 146832, Note_on_c, 11, 42, 0
6, 146880, Note_on_c, 11, 43, 81
6, 147072, Note_on_c, 11, 43, 0
6, 147120, Note_on_c, 11, 43, 92
6, 147312, Note_on_c, 11, 43, 0
6, 147360, Note_on_c, 11, 40, 105
6, 147552, Note_on_c, 11, 40, 0
6, 147600, Note_on_c, 11, 40, 105
6, 147792, Note_on_c, 11, 40, 0
6, 147840, Note_on_c, 11, 38, 105
6, 148032, Note_on_c, 11, 38, 0
6, 148080, Note_on_c, 11, 38, 105
6, 148272, Note_on_c, 11, 38, 0
6, 148320, Note_on_c, 11, 38, 105
6, 148512, Note_on_c, 11, 38, 0
6, 148560, Note_on_c, 11, 38, 105
6, 148752, Note_on_c, 11, 38, 0
6, 148800, Note_on_c, 11, 38, 105
6, 148992, Note_on_c, 11, 38, 0
6, 149040, Note_on_c, 11, 38, 105
6, 149232, Note_on_c, 11, 38, 0
6, 149280, Note_on_c, 11, 38, 105
6, 149472, Note_on_c, 11, 38, 0
6, 149520, Note_on_c, 11, 38, 105
6, 149712, Note_on_c, 11, 38, 0
6, 149760, Note_on_c, 11, 38, 105
6, 149952, Note_on_c, 11, 38, 0
6, 150000, Note_on_c, 11, 38, 105
6, 150192, Note_on_c, 11, 38, 0
6, 150240, Note_on_c, 11, 38, 105
6, 150432, Note_on_c, 11, 38, 0
6, 150480, Note_on_c, 11, 38, 105
6, 150672, Note_on_c, 11, 38, 0
6, 150720, Note_on_c, 11, 38, 105
6, 150912, Note_on_c, 11, 38, 0
6, 150960, Note_on_c, 11, 38, 105
6, 151152, Note_on_c, 11, 38, 0
6, 151200, Note_on_c, 11, 38, 105
6, 151392, Note_on_c, 11, 38, 0
6, 151440, Note_on_c, 11, 38, 105
6, 151632, Note_on_c, 11, 38, 0
6, 151680, Note_on_c, 11, 38, 105
6, 151836, Note_on_c, 11, 38, 0
6, 151920, Note_on_c, 11, 40, 105
6, 152076, Note_on_c, 11, 40, 0
6, 152160, Note_on_c, 11, 42, 105
6, 152316, Note_on_c, 11, 42, 0
6, 152400, Note_on_c, 11, 40, 105
6, 152556, Note_on_c, 11, 40, 0
6, 152640, Note_on_c, 11, 38, 105
6, 152796, Note_on_c, 11, 38, 0
6, 152880, Note_on_c, 11, 40, 105
6, 153036, Note_on_c, 11, 40, 0
6, 153120, Note_on_c, 11, 42, 105
6, 153276, Note_on_c, 11, 42, 0
6, 153360, Note_on_c, 11, 38, 105
6, 153516, Note_on_c, 11, 38, 0
6, 153600, Note_on_c, 11, 43, 105
6, 153756, Note_on_c, 11, 43, 0
6, 153840, Note_on_c, 11, 45, 105
6, 153996, Note_on_c, 11, 45, 0
6, 154080, Note_on_c, 11, 47, 105
6, 154236, Note_on_c, 11, 47, 0
6, 154320, Note_on_c, 11, 45, 105
6, 154476, Note_on_c, 11, 45, 0
6, 154560, Note_on_c, 11, 43, 105
6, 154716, Note_on_c, 11, 43, 0
6, 154800, Note_on_c, 11, 45, 105
6, 154956, Note_on_c, 11, 45, 0
6, 155040, Note_on_c, 11, 47, 105
6, 155196, Note_on_c, 11, 47, 0
6, 155280, Note_on_c, 11, 44, 105
6, 155436, Note_on_c, 11, 44, 0
6, 155520, Note_on_c, 11, 45, 105
6, 155676, Note_on_c, 11, 45, 0
6, 155760, Note_on_c, 11, 45, 105
6, 155916, Note_on_c, 11, 45, 0
6, 156000, Note_on_c, 11, 45, 105
6, 156156, Note_on_c, 11, 45, 0
6, 156240, Note_on_c, 11, 45, 105
6, 156396, Note_on_c, 11, 45, 0
6, 156480, Note_on_c, 11, 45, 105
6, 156636, Note_on_c, 11, 45, 0
6, 156720, Note_on_c, 11, 45, 105
6, 156876, Note_on_c, 11, 45, 0
6, 156960, Note_on_c, 11, 45, 105
6, 157116, Note_on_c, 11, 45, 0
6, 157200, Note_on_c, 11, 45, 105
6, 157356, Note_on_c, 11, 45, 0
6, 157440, Note_on_c, 11, 45, 105
6, 157596, Note_on_c, 11, 45, 0
6, 157680, Note_on_c, 11, 33, 105
6, 157836, Note_on_c, 11, 33, 0
6, 157920, Note_on_c, 11, 33, 105
6, 158076, Note_on_c, 11, 33, 0
6, 158160, Note_on_c, 11, 33, 105
6, 158316, Note_on_c, 11, 33, 0
6, 158400, Note_on_c, 11, 33, 92
6, 158784, Note_on_c, 11, 33, 0
6, 160800, Note_on_c, 11, 39, 58
6, 160992, Note_on_c, 11, 39, 0
6, 161280, Note_on_c, 11, 40, 58
6, 161472, Note_on_c, 11, 40, 0
6, 161760, Note_on_c, 11, 38, 58
6, 161952, Note_on_c, 11, 38, 0
6, 162240, Note_on_c, 11, 37, 58
6, 162432, Note_on_c, 11, 37, 0
6, 162720, Note_on_c, 11, 33, 58
6, 162912, Note_on_c, 11, 33, 0
6, 163680, Note_on_c, 11, 34, 58
6, 164064, Note_on_c, 11, 34, 0
6, 164160, Note_on_c, 11, 35, 58
6, 164352, Note_on_c, 11, 35, 0
6, 164640, Note_on_c, 11, 31, 58
6, 164832, Note_on_c, 11, 31, 0
6, 165120, Note_on_c, 11, 33, 58
6, 165504, Note_on_c, 11, 33, 0
6, 165600, Note_on_c, 11, 45, 58
6, 166320, Note_on_c, 11, 45, 0
6, 166320, Note_on_c, 11, 44, 58
6, 166560, Note_on_c, 11, 44, 0
6, 166560, Note_on_c, 11, 43, 58
6, 166800, Note_on_c, 11, 43, 0
6, 166800, Note_on_c, 11, 40, 58
6, 167040, Note_on_c, 11, 40, 0
6, 167040, Note_on_c, 11, 38, 58
6, 167232, Note_on_c, 11, 38, 0
6, 167520, Note_on_c, 11, 40, 58
6, 167712, Note_on_c, 11, 40, 0
6, 168000, Note_on_c, 11, 42, 58
6, 168192, Note_on_c, 11, 42, 0
6, 168480, Note_on_c, 11, 39, 58
6, 168672, Note_on_c, 11, 39, 0
6, 168960, Note_on_c, 11, 40, 58
6, 169152, Note_on_c, 11, 40, 0
6, 169440, Note_on_c, 11, 38, 58
6, 169632, Note_on_c, 11, 38, 0
6, 169920, Note_on_c, 11, 37, 58
6, 170112, Note_on_c, 11, 37, 0
6, 170400, Note_on_c, 11, 33, 58
6, 170592, Note_on_c, 11, 33, 0
6, 170880, Note_on_c, 11, 35, 58
6, 171072, Note_on_c, 11, 35, 0
6, 171360, Note_on_c, 11, 43, 58
6, 171552, Note_on_c, 11, 43, 0
6, 171840, Note_on_c, 11, 45, 58
6, 172032, Note_on_c, 11, 45, 0
6, 172320, Note_on_c, 11, 33, 58
6, 172512, Note_on_c, 11, 33, 0
6, 172800, Note_on_c, 11, 38, 58
6, 173184, Note_on_c, 11, 38, 0
6, 174720, Note_on_c, 11, 33, 58
6, 175104, Note_on_c, 11, 33, 0
6, 176640, Note_on_c, 11, 38, 58
6, 177024, Note_on_c, 11, 38, 0
6, 178560, Note_on_c, 11, 33, 58
6, 178944, Note_on_c, 11, 33, 0
6, 180720, Note_on_c, 11, 38, 105
6, 180876, Note_on_c, 11, 38, 0
6, 180960, Note_on_c, 11, 42, 105
6, 181116, Note_on_c, 11, 42, 0
6, 181200, Note_on_c, 11, 40, 105
6, 181356, Note_on_c, 11, 40, 0
6, 181440, Note_on_c, 11, 39, 105
6, 181596, Note_on_c, 11, 39, 0
6, 181680, Note_on_c, 11, 35, 105
6, 181836, Note_on_c, 11, 35, 0
6, 181920, Note_on_c, 11, 37, 105
6, 182076, Note_on_c, 11, 37, 0
6, 182160, Note_on_c, 11, 39, 105
6, 182316, Note_on_c, 11, 39, 0
6, 182400, Note_on_c, 11, 40, 105
6, 182556, Note_on_c, 11, 40, 0
6, 182640, Note_on_c, 11, 43, 105
6, 182796, Note_on_c, 11, 43, 0
6, 182880, Note_on_c, 11, 40, 105
6, 183036, Note_on_c, 11, 40, 0
6, 183120, Note_on_c, 11, 38, 105
6, 183276, Note_on_c, 11, 38, 0
6, 183360, Note_on_c, 11, 37, 105
6, 183516, Note_on_c, 11, 37, 0
6, 183600, Note_on_c, 11, 33, 105
6, 183756, Note_on_c, 11, 33, 0
6, 183840, Note_on_c, 11, 35, 105
6, 183996, Note_on_c, 11, 35, 0
6, 184080, Note_on_c, 11, 37, 105
6, 184236, Note_on_c, 11, 37, 0
6, 184320, Note_on_c, 11, 38, 105
6, 184476, Note_on_c, 11, 38, 0
6, 184560, Note_on_c, 11, 38, 105
6, 184716, Note_on_c, 11, 38, 0
6, 184800, Note_on_c, 11, 40, 105
6, 184956, Note_on_c, 11, 40, 0
6, 185040, Note_on_c, 11, 42, 105
6, 185196, Note_on_c, 11, 42, 0
6, 185280, Note_on_c, 11, 43, 105
6, 185436, Note_on_c, 11, 43, 0
6, 185520, Note_on_c, 11, 43, 105
6, 185676, Note_on_c, 11, 43, 0
6, 185760, Note_on_c, 11, 43, 105
6, 185916, Note_on_c, 11, 43, 0
6, 186000, Note_on_c, 11, 43, 105
6, 186156, Note_on_c, 11, 43, 0
6, 186240, Note_on_c, 11, 45, 105
6, 186396, Note_on_c, 11, 45, 0
6, 186480, Note_on_c, 11, 45, 105
6, 186636, Note_on_c, 11, 45, 0
6, 186720, Note_on_c, 11, 45, 105
6, 186876, Note_on_c, 11, 45, 0
6, 186960, Note_on_c, 11, 45, 105
6, 187116, Note_on_c, 11, 45, 0
6, 187200, Note_on_c, 11, 33, 105
6, 187356, Note_on_c, 11, 33, 0
6, 187440, Note_on_c, 11, 33, 105
6, 187596, Note_on_c, 11, 33, 0
6, 187680, Note_on_c, 11, 33, 105
6, 187836, Note_on_c, 11, 33, 0
6, 187920, Note_on_c, 11, 33, 105
6, 188076, Note_on_c, 11, 33, 0
6, 188160, Note_on_c, 11, 38, 92
6, 188544, Note_on_c, 11, 38, 0
6, 190080, Note_on_c, 11, 33, 58
6, 190464, Note_on_c, 11, 33, 0
6, 192000, Note_on_c, 11, 38, 58
6, 192384, Note_on_c, 11, 38, 0
6, 193920, Note_on_c, 11, 33, 58
6, 194304, Note_on_c, 11, 33, 0
6, 196080, Note_on_c, 11, 38, 105
6, 196236, Note_on_c, 11, 38, 0
6, 196320, Note_on_c, 11, 42, 105
6, 196476, Note_on_c, 11, 42, 0
6, 196560, Note_on_c, 11, 40, 105
6, 196716, Note_on_c, 11, 40, 0
6, 196800, Note_on_c, 11, 39, 105
6, 196956, Note_on_c, 11, 39, 0
6, 197040, Note_on_c, 11, 35, 105
6, 197196, Note_on_c, 11, 35, 0
6, 197280, Note_on_c, 11, 37, 105
6, 197436, Note_on_c, 11, 37, 0
6, 197520, Note_on_c, 11, 39, 105
6, 197676, Note_on_c, 11, 39, 0
6, 197760, Note_on_c, 11, 40, 105
6, 197916, Note_on_c, 11, 40, 0
6, 198000, Note_on_c, 11, 43, 105
6, 198156, Note_on_c, 11, 43, 0
6, 198240, Note_on_c, 11, 40, 105
6, 198396, Note_on_c, 11, 40, 0
6, 198480, Note_on_c, 11, 38, 105
6, 198636, Note_on_c, 11, 38, 0
6, 198720, Note_on_c, 11, 37, 105
6, 198876, Note_on_c, 11, 37, 0
6, 198960, Note_on_c, 11, 33, 105
6, 199116, Note_on_c, 11, 33, 0
6, 199200, Note_on_c, 11, 35, 105
6, 199356, Note_on_c, 11, 35, 0
6, 199440, Note_on_c, 11, 37, 105
6, 199596, Note_on_c, 11, 37, 0
6, 199680, Note_on_c, 11, 38, 105
6, 199836, Note_on_c, 11, 38, 0
6, 199920, Note_on_c, 11, 38, 105
6, 200076, Note_on_c, 11, 38, 0
6, 200160, Note_on_c, 11, 40, 105
6, 200316, Note_on_c, 11, 40, 0
6, 200400, Note_on_c, 11, 42, 105
6, 200556, Note_on_c, 11, 42, 0
6, 200640, Note_on_c, 11, 43, 105
6, 200796, Note_on_c, 11, 43, 0
6, 200880, Note_on_c, 11, 43, 105
6, 201036, Note_on_c, 11, 43, 0
6, 201120, Note_on_c, 11, 43, 105
6, 201276, Note_on_c, 11, 43, 0
6, 201360, Note_on_c, 11, 43, 105
6, 201516, Note_on_c, 11, 43, 0
6, 201600, Note_on_c, 11, 45, 105
6, 201756, Note_on_c, 11, 45, 0
6, 201840, Note_on_c, 11, 45, 105
6, 201996, Note_on_c, 11, 45, 0
6, 202080, Note_on_c, 11, 45, 105
6, 202236, Note_on_c, 11, 45, 0
6, 202320, Note_on_c, 11, 45, 105
6, 202476, Note_on_c, 11, 45, 0
6, 202560, Note_on_c, 11, 33, 105
6, 202716, Note_on_c, 11, 33, 0
6, 202800, Note_on_c, 11, 33, 105
6, 202956, Note_on_c, 11, 33, 0
6, 203040, Note_on_c, 11, 33, 105
6, 203196, Note_on_c, 11, 33, 0
6, 203280, Note_on_c, 11, 33, 105
6, 203436, Note_on_c, 11, 33, 0
6, 203520, Note_on_c, 11, 38, 105
6, 203676, Note_on_c, 11, 38, 0
6, 203760, Note_on_c, 11, 33, 105
6, 203916, Note_on_c, 11, 33, 0
6, 204000, Note_on_c, 11, 35, 105
6, 204156, Note_on_c, 11, 35, 0
6, 204240, Note_on_c, 11, 37, 105
6, 204396, Note_on_c, 11, 37, 0
6, 204480, Note_on_c, 11, 38, 105
6, 204636, Note_on_c, 11, 38, 0
6, 204720, Note_on_c, 11, 38, 105
6, 204876, Note_on_c, 11, 38, 0
6, 204960, Note_on_c, 11, 40, 105
6, 205116, Note_on_c, 11, 40, 0
6, 205200, Note_on_c, 11, 40, 105
6, 205356, Note_on_c, 11, 40, 0
6, 205440, Note_on_c, 11, 42, 105
6, 205596, Note_on_c, 11, 42, 0
6, 205680, Note_on_c, 11, 37, 105
6, 205836, Note_on_c, 11, 37, 0
6, 205920, Note_on_c, 11, 38, 105
6, 206076, Note_on_c, 11, 38, 0
6, 206160, Note_on_c, 11, 40, 105
6, 206316, Note_on_c, 11, 40, 0
6, 206400, Note_on_c, 11, 42, 105
6, 206556, Note_on_c, 11, 42, 0
6, 206640, Note_on_c, 11, 42, 105
6, 206796, Note_on_c, 11, 42, 0
6, 206880, Note_on_c, 11, 43, 105
6, 207036, Note_on_c, 11, 43, 0
6, 207120, Note_on_c, 11, 43, 105
6, 207276, Note_on_c, 11, 43, 0
6, 207360, Note_on_c, 11, 45, 105
6, 207516, Note_on_c, 11, 45, 0
6, 207600, Note_on_c, 11, 45, 105
6, 207756, Note_on_c, 11, 45, 0
6, 207840, Note_on_c, 11, 46, 105
6, 207996, Note_on_c, 11, 46, 0
6, 208080, Note_on_c, 11, 46, 105
6, 208236, Note_on_c, 11, 46, 0
6, 208320, Note_on_c, 11, 47, 92
6, 208704, Note_on_c, 11, 47, 0
6, 209280, Note_on_c, 11, 43, 58
6, 210240, Note_on_c, 11, 43, 0
6, 210240, Note_on_c, 11, 45, 58
6, 211152, Note_on_c, 11, 45, 0
6, 211200, Note_on_c, 11, 38, 58
6, 211392, Note_on_c, 11, 38, 0
6, 211680, Note_on_c, 11, 38, 58
6, 211872, Note_on_c, 11, 38, 0
6, 212160, Note_on_c, 11, 38, 58
6, 212352, Note_on_c, 11, 38, 0
6, 213120, Note_on_c, 11, 38, 105
6, 213504, Note_on_c, 11, 38, 0
6, 213840, Note_on_c, 11, 33, 105
6, 213984, Note_on_c, 11, 33, 0
6, 214080, Note_on_c, 11, 38, 105
6, 214464, Note_on_c, 11, 38, 0
6, 214800, Note_on_c, 11, 33, 105
6, 214944, Note_on_c, 11, 33, 0
6, 215040, Note_on_c, 11, 38, 105
6, 215196, Note_on_c, 11, 38, 0
6, 215280, Note_on_c, 11, 33, 105
6, 215436, Note_on_c, 11, 33, 0
6, 215520, Note_on_c, 11, 38, 105
6, 215676, Note_on_c, 11, 38, 0
6, 215760, Note_on_c, 11, 42, 105
6, 215916, Note_on_c, 11, 42, 0
6, 216000, Note_on_c, 11, 45, 105
6, 216384, Note_on_c, 11, 45, 0
6, 216960, Note_on_c, 11, 45, 105
6, 217344, Note_on_c, 11, 45, 0
6, 217680, Note_on_c, 11, 42, 105
6, 217824, Note_on_c, 11, 42, 0
6, 217920, Note_on_c, 11, 45, 105
6, 218304, Note_on_c, 11, 45, 0
6, 218640, Note_on_c, 11, 42, 105
6, 218784, Note_on_c, 11, 42, 0
6, 218880, Note_on_c, 11, 45, 105
6, 219036, Note_on_c, 11, 45, 0
6, 219120, Note_on_c, 11, 42, 105
6, 219276, Note_on_c, 11, 42, 0
6, 219360, Note_on_c, 11, 39, 105
6, 219516, Note_on_c, 11, 39, 0
6, 219600, Note_on_c, 11, 42, 105
6, 219756, Note_on_c, 11, 42, 0
6, 219840, Note_on_c, 11, 35, 105
6, 220224, Note_on_c, 11, 35, 0
6, 220800, Note_on_c, 11, 36, 58
6, 221184, Note_on_c, 11, 36, 0
6, 222720, Note_on_c, 11, 31, 58
6, 223104, Note_on_c, 11, 31, 0
6, 224640, Note_on_c, 11, 36, 58
6, 225024, Note_on_c, 11, 36, 0
6, 226560, Note_on_c, 11, 31, 58
6, 226944, Note_on_c, 11, 31, 0
6, 228480, Note_on_c, 11, 36, 58
6, 228864, Note_on_c, 11, 36, 0
6, 230400, Note_on_c, 11, 40, 58
6, 230784, Note_on_c, 11, 40, 0
6, 232320, Note_on_c, 11, 33, 58
6, 232704, Note_on_c, 11, 33, 0
6, 234240, Note_on_c, 11, 38, 58
6, 234624, Note_on_c, 11, 38, 0
6, 236160, Note_on_c, 11, 39, 58
6, 239924, Note_on_c, 11, 39, 0
6, 240000, Note_on_c, 11, 38, 58
6, 240384, Note_on_c, 11, 38, 0
6, 240720, Note_on_c, 11, 38, 105
6, 240960, Note_on_c, 11, 38, 0
6, 240960, Note_on_c, 11, 40, 105
6, 241200, Note_on_c, 11, 40, 0
6, 241200, Note_on_c, 11, 42, 105
6, 241440, Note_on_c, 11, 42, 0
6, 241440, Note_on_c, 11, 43, 105
6, 241680, Note_on_c, 11, 43, 0
6, 241680, Note_on_c, 11, 45, 105
6, 241920, Note_on_c, 11, 45, 0
6, 241920, Note_on_c, 11, 48, 105
6, 242160, Note_on_c, 11, 48, 0
6, 242160, Note_on_c, 11, 46, 105
6, 242400, Note_on_c, 11, 46, 0
6, 242640, Note_on_c, 11, 42, 105
6, 242880, Note_on_c, 11, 42, 0
6, 242880, Note_on_c, 11, 43, 105
6, 243120, Note_on_c, 11, 43, 0
6, 243120, Note_on_c, 11, 45, 105
6, 243360, Note_on_c, 11, 45, 0
6, 243360, Note_on_c, 11, 46, 105
6, 243600, Note_on_c, 11, 46, 0
6, 243600, Note_on_c, 11, 49, 105
6, 243840, Note_on_c, 11, 49, 0
6, 243840, Note_on_c, 11, 52, 105
6, 244080, Note_on_c, 11, 52, 0
6, 244080, Note_on_c, 11, 50, 105
6, 244272, Note_on_c, 11, 50, 0
6, 249600, Note_on_c, 11, 38, 58
6, 251424, Note_on_c, 11, 38, 0
6, 251520, Note_on_c, 11, 43, 125
6, 251904, Note_on_c, 11, 43, 0
6, 252240, Note_on_c, 11, 38, 105
6, 252384, Note_on_c, 11, 38, 0
6, 252480, Note_on_c, 11, 43, 105
6, 252864, Note_on_c, 11, 43, 0
6, 253200, Note_on_c, 11, 38, 105
6, 253344, Note_on_c, 11, 38, 0
6, 253440, Note_on_c, 11, 43, 105
6, 253584, Note_on_c, 11, 43, 0
6, 253680, Note_on_c, 11, 38, 105
6, 253824, Note_on_c, 11, 38, 0
6, 253920, Note_on_c, 11, 43, 105
6, 254064, Note_on_c, 11, 43, 0
6, 254160, Note_on_c, 11, 47, 105
6, 254304, Note_on_c, 11, 47, 0
6, 254400, Note_on_c, 11, 50, 105
6, 254784, Note_on_c, 11, 50, 0
6, 255360, Note_on_c, 11, 48, 105
6, 255744, Note_on_c, 11, 48, 0
6, 256080, Note_on_c, 11, 45, 105
6, 256224, Note_on_c, 11, 45, 0
6, 256320, Note_on_c, 11, 48, 105
6, 256704, Note_on_c, 11, 48, 0
6, 257040, Note_on_c, 11, 45, 105
6, 257184, Note_on_c, 11, 45, 0
6, 257280, Note_on_c, 11, 48, 105
6, 257424, Note_on_c, 11, 48, 0
6, 257520, Note_on_c, 11, 45, 105
6, 257664, Note_on_c, 11, 45, 0
6, 257760, Note_on_c, 11, 42, 105
6, 257904, Note_on_c, 11, 42, 0
6, 258000, Note_on_c, 11, 45, 105
6, 258144, Note_on_c, 11, 45, 0
6, 258240, Note_on_c, 11, 38, 105
6, 258624, Note_on_c, 11, 38, 0
6, 259200, Note_on_c, 11, 43, 105
6, 259392, Note_on_c, 11, 43, 0
6, 259440, Note_on_c, 11, 43, 105
6, 259632, Note_on_c, 11, 43, 0
6, 259680, Note_on_c, 11, 43, 105
6, 259872, Note_on_c, 11, 43, 0
6, 259920, Note_on_c, 11, 43, 105
6, 260112, Note_on_c, 11, 43, 0
6, 260160, Note_on_c, 11, 43, 105
6, 260352, Note_on_c, 11, 43, 0
6, 260400, Note_on_c, 11, 43, 105
6, 260592, Note_on_c, 11, 43, 0
6, 260640, Note_on_c, 11, 43, 105
6, 260832, Note_on_c, 11, 43, 0
6, 260880, Note_on_c, 11, 43, 105
6, 261072, Note_on_c, 11, 43, 0
6, 261120, Note_on_c, 11, 43, 105
6, 261312, Note_on_c, 11, 43, 0
6, 261360, Note_on_c, 11, 43, 105
6, 261552, Note_on_c, 11, 43, 0
6, 261600, Note_on_c, 11, 43, 105
6, 261792, Note_on_c, 11, 43, 0
6, 261840, Note_on_c, 11, 43, 105
6, 262032, Note_on_c, 11, 43, 0
6, 262080, Note_on_c, 11, 43, 105
6, 262272, Note_on_c, 11, 43, 0
6, 262320, Note_on_c, 11, 43, 105
6, 262512, Note_on_c, 11, 43, 0
6, 262560, Note_on_c, 11, 43, 105
6, 262752, Note_on_c, 11, 43, 0
6, 262800, Note_on_c, 11, 43, 105
6, 262992, Note_on_c, 11, 43, 0
6, 263040, Note_on_c, 11, 43, 105
6, 263232, Note_on_c, 11, 43, 0
6, 263280, Note_on_c, 11, 43, 105
6, 263472, Note_on_c, 11, 43, 0
6, 263520, Note_on_c, 11, 43, 105
6, 263712, Note_on_c, 11, 43, 0
6, 263760, Note_on_c, 11, 43, 105
6, 263952, Note_on_c, 11, 43, 0
6, 264000, Note_on_c, 11, 43, 105
6, 264192, Note_on_c, 11, 43, 0
6, 264240, Note_on_c, 11, 43, 105
6, 264432, Note_on_c, 11, 43, 0
6, 264480, Note_on_c, 11, 43, 105
6, 264672, Note_on_c, 11, 43, 0
6, 264720, Note_on_c, 11, 43, 105
6, 264912, Note_on_c, 11, 43, 0
6, 264960, Note_on_c, 11, 43, 105
6, 265152, Note_on_c, 11, 43, 0
6, 265200, Note_on_c, 11, 43, 105
6, 265392, Note_on_c, 11, 43, 0
6, 265440, Note_on_c, 11, 43, 105
6, 265632, Note_on_c, 11, 43, 0
6, 265680, Note_on_c, 11, 43, 105
6, 265872, Note_on_c, 11, 43, 0
6, 265920, Note_on_c, 11, 43, 105
6, 266112, Note_on_c, 11, 43, 0
6, 266160, Note_on_c, 11, 43, 105
6, 266352, Note_on_c, 11, 43, 0
6, 266400, Note_on_c, 11, 43, 105
6, 266592, Note_on_c, 11, 43, 0
6, 266640, Note_on_c, 11, 43, 105
6, 266832, Note_on_c, 11, 43, 0
6, 266880, Note_on_c, 11, 43, 105
6, 267072, Note_on_c, 11, 43, 0
6, 267120, Note_on_c, 11, 43, 105
6, 267312, Note_on_c, 11, 43, 0
6, 267360, Note_on_c, 11, 45, 105
6, 267552, Note_on_c, 11, 45, 0
6, 267600, Note_on_c, 11, 45, 105
6, 267792, Note_on_c, 11, 45, 0
6, 267840, Note_on_c, 11, 47, 105
6, 268032, Note_on_c, 11, 47, 0
6, 268080, Note_on_c, 11, 47, 105
6, 268272, Note_on_c, 11, 47, 0
6, 268320, Note_on_c, 11, 42, 105
6, 268512, Note_on_c, 11, 42, 0
6, 268560, Note_on_c, 11, 42, 105
6, 268752, Note_on_c, 11, 42, 0
6, 268800, Note_on_c, 11, 43, 105
6, 268992, Note_on_c, 11, 43, 0
6, 269040, Note_on_c, 11, 43, 105
6, 269232, Note_on_c, 11, 43, 0
6, 269280, Note_on_c, 11, 45, 105
6, 269472, Note_on_c, 11, 45, 0
6, 269520, Note_on_c, 11, 45, 105
6, 269712, Note_on_c, 11, 45, 0
6, 269760, Note_on_c, 11, 47, 92
6, 270144, Note_on_c, 11, 47, 0
6, 272640, Note_on_c, 11, 38, 58
6, 273600, Note_on_c, 11, 38, 0
6, 273600, Note_on_c, 11, 40, 58
6, 274368, Note_on_c, 11, 40, 0
6, 274560, Note_on_c, 11, 36, 58
6, 274872, Note_on_c, 11, 36, 0
6, 275040, Note_on_c, 11, 36, 58
6, 275352, Note_on_c, 11, 36, 0
6, 275520, Note_on_c, 11, 38, 58
6, 275832, Note_on_c, 11, 38, 0
6, 276000, Note_on_c, 11, 38, 58
6, 276312, Note_on_c, 11, 38, 0
6, 276480, Note_on_c, 11, 35, 58
6, 276636, Note_on_c, 11, 35, 0
6, 276960, Note_on_c, 11, 38, 58
6, 277116, Note_on_c, 11, 38, 0
6, 277440, Note_on_c, 11, 43, 58
6, 277752, Note_on_c, 11, 43, 0
6, 280320, Note_on_c, 11, 38, 58
6, 281280, Note_on_c, 11, 38, 0
6, 281280, Note_on_c, 11, 40, 58
6, 282048, Note_on_c, 11, 40, 0
6, 282240, Note_on_c, 11, 36, 58
6, 282624, Note_on_c, 11, 36, 0
6, 282720, Note_on_c, 11, 36, 58
6, 283104, Note_on_c, 11, 36, 0
6, 283200, Note_on_c, 11, 38, 58
6, 283584, Note_on_c, 11, 38, 0
6, 283680, Note_on_c, 11, 38, 58
6, 284064, Note_on_c, 11, 38, 0
6, 284160, Note_on_c, 11, 43, 78
6, 284316, Note_on_c, 11, 43, 0
6, 284400, Note_on_c, 11, 43, 92
6, 284556, Note_on_c, 11, 43, 0
6, 284640, Note_on_c, 11, 43, 92
6, 284796, Note_on_c, 11, 43, 0
6, 284880, Note_on_c, 11, 43, 92
6, 285036, Note_on_c, 11, 43, 0
6, 285120, Note_on_c, 11, 43, 58
6, 285276, Note_on_c, 11, 43, 0
6, 285360, Note_on_c, 11, 43, 58
6, 285516, Note_on_c, 11, 43, 0
6, 285600, Note_on_c, 11, 43, 58
6, 285756, Note_on_c, 11, 43, 0
6, 285840, Note_on_c, 11, 43, 58
6, 285996, Note_on_c, 11, 43, 0
6, 286080, Note_on_c, 11, 43, 112
6, 286236, Note_on_c, 11, 43, 0
6, 286320, Note_on_c, 11, 43, 92
6, 286476, Note_on_c, 11, 43, 0
6, 286560, Note_on_c, 11, 43, 92
6, 286716, Note_on_c, 11, 43, 0
6, 286800, Note_on_c, 11, 43, 92
6, 286956, Note_on_c, 11, 43, 0
6, 287040, Note_on_c, 11, 43, 58
6, 287196, Note_on_c, 11, 43, 0
6, 287280, Note_on_c, 11, 43, 58
6, 287436, Note_on_c, 11, 43, 0
6, 287520, Note_on_c, 11, 43, 58
6, 287676, Note_on_c, 11, 43, 0
6, 287760, Note_on_c, 11, 43, 58
6, 287916, Note_on_c, 11, 43, 0
6, 288000, Note_on_c, 11, 43, 58
6, 288156, Note_on_c, 11, 43, 0
6, 288240, Note_on_c, 11, 43, 58
6, 288396, Note_on_c, 11, 43, 0
6, 288480, Note_on_c, 11, 43, 58
6, 288636, Note_on_c, 11, 43, 0
6, 288720, Note_on_c, 11, 43, 72
6, 288876, Note_on_c, 11, 43, 0
6, 288960, Note_on_c, 11, 43, 72
6, 289116, Note_on_c, 11, 43, 0
6, 289200, Note_on_c, 11, 43, 72
6, 289356, Note_on_c, 11, 43, 0
6, 289440, Note_on_c, 11, 43, 81
6, 289596, Note_on_c, 11, 43, 0
6, 289680, Note_on_c, 11, 43, 81
6, 289836, Note_on_c, 11, 43, 0
6, 289920, Note_on_c, 11, 43, 81
6, 290076, Note_on_c, 11, 43, 0
6, 290160, Note_on_c, 11, 43, 81
6, 290316, Note_on_c, 11, 43, 0
6, 290400, Note_on_c, 11, 42, 81
6, 290556, Note_on_c, 11, 42, 0
6, 290640, Note_on_c, 11, 42, 92
6, 290796, Note_on_c, 11, 42, 0
6, 290880, Note_on_c, 11, 43, 92
6, 291036, Note_on_c, 11, 43, 0
6, 291120, Note_on_c, 11, 43, 92
6, 291276, Note_on_c, 11, 43, 0
6, 291360, Note_on_c, 11, 40, 105
6, 291516, Note_on_c, 11, 40, 0
6, 291600, Note_on_c, 11, 40, 105
6, 291756, Note_on_c, 11, 40, 0
6, 291840, Note_on_c, 11, 38, 105
6, 292032, Note_on_c, 11, 38, 0
6, 292080, Note_on_c, 11, 38, 105
6, 292272, Note_on_c, 11, 38, 0
6, 292320, Note_on_c, 11, 38, 105
6, 292512, Note_on_c, 11, 38, 0
6, 292560, Note_on_c, 11, 38, 105
6, 292752, Note_on_c, 11, 38, 0
6, 292800, Note_on_c, 11, 38, 105
6, 292992, Note_on_c, 11, 38, 0
6, 293040, Note_on_c, 11, 38, 105
6, 293232, Note_on_c, 11, 38, 0
6, 293280, Note_on_c, 11, 38, 105
6, 293472, Note_on_c, 11, 38, 0
6, 293520, Note_on_c, 11, 38, 105
6, 293712, Note_on_c, 11, 38, 0
6, 293760, Note_on_c, 11, 38, 105
6, 293952, Note_on_c, 11, 38, 0
6, 294000, Note_on_c, 11, 38, 105
6, 294192, Note_on_c, 11, 38, 0
6, 294240, Note_on_c, 11, 38, 105
6, 294432, Note_on_c, 11, 38, 0
6, 294480, Note_on_c, 11, 38, 105
6, 294672, Note_on_c, 11, 38, 0
6, 294720, Note_on_c, 11, 38, 105
6, 294912, Note_on_c, 11, 38, 0
6, 294960, Note_on_c, 11, 38, 105
6, 295152, Note_on_c, 11, 38, 0
6, 295200, Note_on_c, 11, 38, 105
6, 295392, Note_on_c, 11, 38, 0
6, 295440, Note_on_c, 11, 38, 105
6, 295632, Note_on_c, 11, 38, 0
6, 295680, Note_on_c, 11, 38, 105
6, 295872, Note_on_c, 11, 38, 0
6, 295920, Note_on_c, 11, 38, 105
6, 296112, Note_on_c, 11, 38, 0
6, 296160, Note_on_c, 11, 38, 105
6, 296352, Note_on_c, 11, 38, 0
6, 296400, Note_on_c, 11, 38, 105
6, 296592, Note_on_c, 11, 38, 0
6, 296640, Note_on_c, 11, 38, 105
6, 296832, Note_on_c, 11, 38, 0
6, 296880, Note_on_c, 11, 38, 105
6, 297072, Note_on_c, 11, 38, 0
6, 297120, Note_on_c, 11, 38, 105
6, 297312, Note_on_c, 11, 38, 0
6, 297360, Note_on_c, 11, 38, 105
6, 297552, Note_on_c, 11, 38, 0
6, 297600, Note_on_c, 11, 38, 105
6, 297792, Note_on_c, 11, 38, 0
6, 297840, Note_on_c, 11, 38, 105
6, 298032, Note_on_c, 11, 38, 0
6, 298080, Note_on_c, 11, 38, 105
6, 298272, Note_on_c, 11, 38, 0
6, 298320, Note_on_c, 11, 38, 105
6, 298512, Note_on_c, 11, 38, 0
6, 298560, Note_on_c, 11, 38, 105
6, 298944, Note_on_c, 11, 38, 0
6, 300960, Note_on_c, 11, 44, 58
6, 301152, Note_on_c, 11, 44, 0
6, 301440, Note_on_c, 11, 45, 58
6, 301632, Note_on_c, 11, 45, 0
6, 301920, Note_on_c, 11, 43, 58
6, 302112, Note_on_c, 11, 43, 0
6, 302400, Note_on_c, 11, 42, 58
6, 302592, Note_on_c, 11, 42, 0
6, 302880, Note_on_c, 11, 38, 58
6, 303072, Note_on_c, 11, 38, 0
6, 303840, Note_on_c, 11, 39, 58
6, 304320, Note_on_c, 11, 39, 0
6, 304320, Note_on_c, 11, 40, 58
6, 304512, Note_on_c, 11, 40, 0
6, 304800, Note_on_c, 11, 36, 58
6, 304992, Note_on_c, 11, 36, 0
6, 305280, Note_on_c, 11, 38, 58
6, 305640, Note_on_c, 11, 38, 0
6, 305760, Note_on_c, 11, 50, 78
6, 306480, Note_on_c, 11, 50, 0
6, 306480, Note_on_c, 11, 49, 58
6, 306720, Note_on_c, 11, 49, 0
6, 306720, Note_on_c, 11, 48, 58
6, 306960, Note_on_c, 11, 48, 0
6, 306960, Note_on_c, 11, 45, 58
6, 307200, Note_on_c, 11, 45, 0
6, 307200, Note_on_c, 11, 43, 58
6, 307392, Note_on_c, 11, 43, 0
6, 307680, Note_on_c, 11, 45, 58
6, 307872, Note_on_c, 11, 45, 0
6, 308160, Note_on_c, 11, 47, 58
6, 308352, Note_on_c, 11, 47, 0
6, 308640, Note_on_c, 11, 44, 58
6, 308832, Note_on_c, 11, 44, 0
6, 309120, Note_on_c, 11, 45, 58
6, 309312, Note_on_c, 11, 45, 0
6, 309600, Note_on_c, 11, 43, 58
6, 309792, Note_on_c, 11, 43, 0
6, 310080, Note_on_c, 11, 42, 58
6, 310272, Note_on_c, 11, 42, 0
6, 310560, Note_on_c, 11, 38, 58
6, 310752, Note_on_c, 11, 38, 0
6, 311040, Note_on_c, 11, 40, 58
6, 311232, Note_on_c, 11, 40, 0
6, 311520, Note_on_c, 11, 36, 58
6, 311712, Note_on_c, 11, 36, 0
6, 312000, Note_on_c, 11, 38, 58
6, 312192, Note_on_c, 11, 38, 0
6, 312480, Note_on_c, 11, 38, 58
6, 312672, Note_on_c, 11, 38, 0
6, 312960, Note_on_c, 11, 31, 58
6, 313344, Note_on_c, 11, 31, 0
6, 314880, Note_on_c, 11, 38, 58
6, 315264, Note_on_c, 11, 38, 0
6, 316800, Note_on_c, 11, 31, 58
6, 317184, Note_on_c, 11, 31, 0
6, 318720, Note_on_c, 11, 38, 58
6, 319104, Note_on_c, 11, 38, 0
6, 320880, Note_on_c, 11, 43, 105
6, 321036, Note_on_c, 11, 43, 0
6, 321120, Note_on_c, 11, 47, 105
6, 321276, Note_on_c, 11, 47, 0
6, 321360, Note_on_c, 11, 45, 105
6, 321516, Note_on_c, 11, 45, 0
6, 321600, Note_on_c, 11, 44, 105
6, 321756, Note_on_c, 11, 44, 0
6, 321840, Note_on_c, 11, 40, 105
6, 321996, Note_on_c, 11, 40, 0
6, 322080, Note_on_c, 11, 42, 105
6, 322236, Note_on_c, 11, 42, 0
6, 322320, Note_on_c, 11, 44, 105
6, 322476, Note_on_c, 11, 44, 0
6, 322560, Note_on_c, 11, 45, 105
6, 322716, Note_on_c, 11, 45, 0
6, 322800, Note_on_c, 11, 48, 105
6, 322956, Note_on_c, 11, 48, 0
6, 323040, Note_on_c, 11, 45, 105
6, 323196, Note_on_c, 11, 45, 0
6, 323280, Note_on_c, 11, 43, 105
6, 323436, Note_on_c, 11, 43, 0
6, 323520, Note_on_c, 11, 42, 105
6, 323676, Note_on_c, 11, 42, 0
6, 323760, Note_on_c, 11, 38, 105
6, 323916, Note_on_c, 11, 38, 0
6, 324000, Note_on_c, 11, 40, 105
6, 324156, Note_on_c, 11, 40, 0
6, 324240, Note_on_c, 11, 42, 105
6, 324396, Note_on_c, 11, 42, 0
6, 324480, Note_on_c, 11, 43, 105
6, 324636, Note_on_c, 11, 43, 0
6, 324720, Note_on_c, 11, 43, 105
6, 324876, Note_on_c, 11, 43, 0
6, 324960, Note_on_c, 11, 45, 105
6, 325116, Note_on_c, 11, 45, 0
6, 325200, Note_on_c, 11, 47, 105
6, 325356, Note_on_c, 11, 47, 0
6, 325440, Note_on_c, 11, 48, 105
6, 325596, Note_on_c, 11, 48, 0
6, 325680, Note_on_c, 11, 48, 105
6, 325836, Note_on_c, 11, 48, 0
6, 325920, Note_on_c, 11, 48, 105
6, 326076, Note_on_c, 11, 48, 0
6, 326160, Note_on_c, 11, 48, 105
6, 326316, Note_on_c, 11, 48, 0
6, 326400, Note_on_c, 11, 50, 105
6, 326556, Note_on_c, 11, 50, 0
6, 326640, Note_on_c, 11, 50, 105
6, 326796, Note_on_c, 11, 50, 0
6, 326880, Note_on_c, 11, 50, 105
6, 327036, Note_on_c, 11, 50, 0
6, 327120, Note_on_c, 11, 50, 105
6, 327276, Note_on_c, 11, 50, 0
6, 327360, Note_on_c, 11, 38, 105
6, 327516, Note_on_c, 11, 38, 0
6, 327600, Note_on_c, 11, 38, 105
6, 327756, Note_on_c, 11, 38, 0
6, 327840, Note_on_c, 11, 38, 105
6, 327996, Note_on_c, 11, 38, 0
6, 328080, Note_on_c, 11, 38, 105
6, 328236, Note_on_c, 11, 38, 0
6, 328320, Note_on_c, 11, 43, 92
6, 328704, Note_on_c, 11, 43, 0
6, 330240, Note_on_c, 11, 38, 58
6, 330624, Note_on_c, 11, 38, 0
6, 332160, Note_on_c, 11, 43, 58
6, 332544, Note_on_c, 11, 43, 0
6, 334080, Note_on_c, 11, 38, 58
6, 334464, Note_on_c, 11, 38, 0
6, 336240, Note_on_c, 11, 43, 105
6, 336396, Note_on_c, 11, 43, 0
6, 336480, Note_on_c, 11, 47, 105
6, 336636, Note_on_c, 11, 47, 0
6, 336720, Note_on_c, 11, 45, 105
6, 336876, Note_on_c, 11, 45, 0
6, 336960, Note_on_c, 11, 44, 105
6, 337116, Note_on_c, 11, 44, 0
6, 337200, Note_on_c, 11, 40, 105
6, 337356, Note_on_c, 11, 40, 0
6, 337440, Note_on_c, 11, 42, 105
6, 337596, Note_on_c, 11, 42, 0
6, 337680, Note_on_c, 11, 44, 105
6, 337836, Note_on_c, 11, 44, 0
6, 337920, Note_on_c, 11, 45, 105
6, 338076, Note_on_c, 11, 45, 0
6, 338160, Note_on_c, 11, 48, 105
6, 338316, Note_on_c, 11, 48, 0
6, 338400, Note_on_c, 11, 45, 105
6, 338556, Note_on_c, 11, 45, 0
6, 338640, Note_on_c, 11, 43, 105
6, 338796, Note_on_c, 11, 43, 0
6, 338880, Note_on_c, 11, 42, 105
6, 339036, Note_on_c, 11, 42, 0
6, 339120, Note_on_c, 11, 38, 105
6, 339276, Note_on_c, 11, 38, 0
6, 339360, Note_on_c, 11, 40, 105
6, 339516, Note_on_c, 11, 40, 0
6, 339600, Note_on_c, 11, 42, 105
6, 339756, Note_on_c, 11, 42, 0
6, 339840, Note_on_c, 11, 43, 105
6, 339996, Note_on_c, 11, 43, 0
6, 340080, Note_on_c, 11, 43, 105
6, 340236, Note_on_c, 11, 43, 0
6, 340320, Note_on_c, 11, 45, 105
6, 340476, Note_on_c, 11, 45, 0
6, 340560, Note_on_c, 11, 47, 105
6, 340716, Note_on_c, 11, 47, 0
6, 340800, Note_on_c, 11, 48, 105
6, 340956, Note_on_c, 11, 48, 0
6, 341040, Note_on_c, 11, 48, 105
6, 341196, Note_on_c, 11, 48, 0
6, 341280, Note_on_c, 11, 48, 105
6, 341436, Note_on_c, 11, 48, 0
6, 341520, Note_on_c, 11, 48, 105
6, 341676, Note_on_c, 11, 48, 0
6, 341760, Note_on_c, 11, 50, 105
6, 341916, Note_on_c, 11, 50, 0
6, 342000, Note_on_c, 11, 50, 105
6, 342156, Note_on_c, 11, 50, 0
6, 342240, Note_on_c, 11, 50, 105
6, 342396, Note_on_c, 11, 50, 0
6, 342480, Note_on_c, 11, 50, 105
6, 342636, Note_on_c, 11, 50, 0
6, 342720, Note_on_c, 11, 38, 105
6, 342876, Note_on_c, 11, 38, 0
6, 342960, Note_on_c, 11, 38, 105
6, 343116, Note_on_c, 11, 38, 0
6, 343200, Note_on_c, 11, 38, 105
6, 343356, Note_on_c, 11, 38, 0
6, 343440, Note_on_c, 11, 38, 105
6, 343596, Note_on_c, 11, 38, 0
6, 343680, Note_on_c, 11, 43, 105
6, 343836, Note_on_c, 11, 43, 0
6, 343920, Note_on_c, 11, 38, 105
6, 344076, Note_on_c, 11, 38, 0
6, 344160, Note_on_c, 11, 40, 105
6, 344316, Note_on_c, 11, 40, 0
6, 344400, Note_on_c, 11, 42, 105
6, 344556, Note_on_c, 11, 42, 0
6, 344640, Note_on_c, 11, 43, 105
6, 344796, Note_on_c, 11, 43, 0
6, 344880, Note_on_c, 11, 43, 105
6, 345036, Note_on_c, 11, 43, 0
6, 345120, Note_on_c, 11, 45, 105
6, 345276, Note_on_c, 11, 45, 0
6, 345360, Note_on_c, 11, 45, 105
6, 345516, Note_on_c, 11, 45, 0
6, 345600, Note_on_c, 11, 47, 105
6, 345756, Note_on_c, 11, 47, 0
6, 345840, Note_on_c, 11, 42, 105
6, 345996, Note_on_c, 11, 42, 0
6, 346080, Note_on_c, 11, 43, 105
6, 346236, Note_on_c, 11, 43, 0
6, 346320, Note_on_c, 11, 45, 105
6, 346476, Note_on_c, 11, 45, 0
6, 346560, Note_on_c, 11, 47, 105
6, 346716, Note_on_c, 11, 47, 0
6, 346800, Note_on_c, 11, 47, 105
6, 346956, Note_on_c, 11, 47, 0
6, 347040, Note_on_c, 11, 48, 105
6, 347196, Note_on_c, 11, 48, 0
6, 347280, Note_on_c, 11, 48, 105
6, 347436, Note_on_c, 11, 48, 0
6, 347520, Note_on_c, 11, 50, 105
6, 347676, Note_on_c, 11, 50, 0
6, 347760, Note_on_c, 11, 50, 105
6, 347916, Note_on_c, 11, 50, 0
6, 348000, Note_on_c, 11, 51, 105
6, 348156, Note_on_c, 11, 51, 0
6, 348240, Note_on_c, 11, 51, 105
6, 348396, Note_on_c, 11, 51, 0
6, 348480, Note_on_c, 11, 52, 105
6, 348864, Note_on_c, 11, 52, 0
6, 349440, Note_on_c, 11, 36, 58
6, 350400, Note_on_c, 11, 36, 0
6, 350400, Note_on_c, 11, 38, 58
6, 351312, Note_on_c, 11, 38, 0
6, 351360, Note_on_c, 11, 31, 58
6, 351744, Note_on_c, 11, 31, 0
6, 353280, Note_on_c, 11, 36, 58
6, 354240, Note_on_c, 11, 36, 0
6, 354240, Note_on_c, 11, 38, 58
6, 355152, Note_on_c, 11, 38, 0
6, 355200, Note_on_c, 11, 31, 58
6, 355584, Note_on_c, 11, 31, 0
6, 357120, Note_on_c, 11, 36, 58
6, 357504, Note_on_c, 11, 36, 0
6, 358080, Note_on_c, 11, 38, 105
6, 358464, Note_on_c, 11, 38, 0
6, 359040, Note_on_c, 11, 31, 105
6, 359220, Note_on_c, 11, 31, 0
6, 359280, Note_on_c, 11, 31, 105
6, 359460, Note_on_c, 11, 31, 0
6, 359520, Note_on_c, 11, 31, 105
6, 359700, Note_on_c, 11, 31, 0
6, 359760, Note_on_c, 11, 31, 105
6, 359940, Note_on_c, 11, 31, 0
6, 360000, Note_on_c, 11, 31, 105
6, 360180, Note_on_c, 11, 31, 0
6, 360240, Note_on_c, 11, 31, 105
6, 360420, Note_on_c, 11, 31, 0
6, 360480, Note_on_c, 11, 31, 105
6, 360660, Note_on_c, 11, 31, 0
6, 360720, Note_on_c, 11, 31, 105
6, 360900, Note_on_c, 11, 31, 0
6, 360960, Note_on_c, 11, 31, 105
6, 361140, Note_on_c, 11, 31, 0
6, 361200, Note_on_c, 11, 31, 105
6, 361380, Note_on_c, 11, 31, 0
6, 361440, Note_on_c, 11, 31, 105
6, 361620, Note_on_c, 11, 31, 0
6, 361680, Note_on_c, 11, 31, 105
6, 361860, Note_on_c, 11, 31, 0
6, 361920, Note_on_c, 11, 31, 105
6, 362100, Note_on_c, 11, 31, 0
6, 362160, Note_on_c, 11, 31, 105
6, 362340, Note_on_c, 11, 31, 0
6, 362400, Note_on_c, 11, 31, 105
6, 362580, Note_on_c, 11, 31, 0
6, 362640, Note_on_c, 11, 31, 105
6, 362820, Note_on_c, 11, 31, 0
6, 362880, Note_on_c, 11, 31, 105
6, 363060, Note_on_c, 11, 31, 0
6, 363120, Note_on_c, 11, 31, 105
6, 363300, Note_on_c, 11, 31, 0
6, 363360, Note_on_c, 11, 31, 105
6, 363540, Note_on_c, 11, 31, 0
6, 363600, Note_on_c, 11, 31, 105
6, 363780, Note_on_c, 11, 31, 0
6, 363840, Note_on_c, 11, 31, 105
6, 364020, Note_on_c, 11, 31, 0
6, 364080, Note_on_c, 11, 31, 105
6, 364260, Note_on_c, 11, 31, 0
6, 364320, Note_on_c, 11, 31, 105
6, 364500, Note_on_c, 11, 31, 0
6, 364560, Note_on_c, 11, 31, 105
6, 364740, Note_on_c, 11, 31, 0
6, 364800, Note_on_c, 11, 31, 105
6, 364980, Note_on_c, 11, 31, 0
6, 365040, Note_on_c, 11, 31, 105
6, 365220, Note_on_c, 11, 31, 0
6, 365280, Note_on_c, 11, 31, 105
6, 365460, Note_on_c, 11, 31, 0
6, 365520, Note_on_c, 11, 31, 105
6, 365700, Note_on_c, 11, 31, 0
6, 365760, Note_on_c, 11, 31, 105
6, 365940, Note_on_c, 11, 31, 0
6, 366000, Note_on_c, 11, 31, 105
6, 366180, Note_on_c, 11, 31, 0
6, 366240, Note_on_c, 11, 31, 105
6, 366420, Note_on_c, 11, 31, 0
6, 366480, Note_on_c, 11, 31, 105
6, 366660, Note_on_c, 11, 31, 0
6, 366720, Note_on_c, 11, 31, 116
6, 366900, Note_on_c, 11, 31, 0
6, 366960, Note_on_c, 11, 35, 116
6, 367140, Note_on_c, 11, 35, 0
6, 367200, Note_on_c, 11, 38, 116
6, 367380, Note_on_c, 11, 38, 0
6, 367440, Note_on_c, 11, 43, 116
6, 367620, Note_on_c, 11, 43, 0
6, 367680, Note_on_c, 11, 47, 116
6, 367860, Note_on_c, 11, 47, 0
6, 367920, Note_on_c, 11, 43, 116
6, 368100, Note_on_c, 11, 43, 0
6, 368160, Note_on_c, 11, 50, 116
6, 368340, Note_on_c, 11, 50, 0
6, 368400, Note_on_c, 11, 47, 116
6, 368580, Note_on_c, 11, 47, 0
6, 368640, Note_on_c, 11, 43, 116
6, 369000, Note_on_c, 11, 43, 0
6, 369120, Note_on_c, 11, 31, 116
6, 369390, Note_on_c, 11, 31, 0
6, 369480, Note_on_c, 11, 31, 116
6, 369570, Note_on_c, 11, 31, 0
6, 369600, Note_on_c, 11, 31, 116
6, 369984, Note_on_c, 11, 31, 0
6, 372480, Note_on_c, 11, 31, 1
6, 373248, Note_on_c, 11, 31, 0
6, 373248, End_track
7, 0, Start_track
7, 0, Program_c, 1, 40
7, 0, Control_c, 1, 7, 81
7, 0, Control_c, 1, 10, 38
7, 0, Control_c, 1, 91, 80
7, 1920, Note_on_c, 1, 71, 105
7, 1920, Note_on_c, 1, 79, 105
7, 1920, Note_on_c, 1, 62, 105
7, 2304, Note_on_c, 1, 62, 0
7, 2304, Note_on_c, 1, 79, 0
7, 2304, Note_on_c, 1, 71, 0
7, 2640, Note_on_c, 1, 74, 105
7, 2784, Note_on_c, 1, 74, 0
7, 2880, Note_on_c, 1, 79, 105
7, 3264, Note_on_c, 1, 79, 0
7, 3600, Note_on_c, 1, 74, 105
7, 3744, Note_on_c, 1, 74, 0
7, 3840, Note_on_c, 1, 79, 105
7, 3984, Note_on_c, 1, 79, 0
7, 4080, Note_on_c, 1, 74, 105
7, 4224, Note_on_c, 1, 74, 0
7, 4320, Note_on_c, 1, 79, 105
7, 4464, Note_on_c, 1, 79, 0
7, 4560, Note_on_c, 1, 83, 105
7, 4704, Note_on_c, 1, 83, 0
7, 4800, Note_on_c, 1, 86, 105
7, 5184, Note_on_c, 1, 86, 0
7, 5760, Note_on_c, 1, 84, 105
7, 6144, Note_on_c, 1, 84, 0
7, 6480, Note_on_c, 1, 81, 105
7, 6624, Note_on_c, 1, 81, 0
7, 6720, Note_on_c, 1, 84, 105
7, 7104, Note_on_c, 1, 84, 0
7, 7440, Note_on_c, 1, 81, 105
7, 7584, Note_on_c, 1, 81, 0
7, 7680, Note_on_c, 1, 84, 105
7, 7824, Note_on_c, 1, 84, 0
7, 7920, Note_on_c, 1, 81, 105
7, 8064, Note_on_c, 1, 81, 0
7, 8160, Note_on_c, 1, 78, 105
7, 8304, Note_on_c, 1, 78, 0
7, 8400, Note_on_c, 1, 81, 105
7, 8544, Note_on_c, 1, 81, 0
7, 8640, Note_on_c, 1, 74, 105
7, 9024, Note_on_c, 1, 74, 0
7, 9600, Note_on_c, 1, 79, 116
7, 9600, Note_on_c, 1, 71, 116
7, 9600, Note_on_c, 1, 62, 116
7, 9744, Note_on_c, 1, 79, 0
7, 9792, Note_on_c, 1, 62, 0
7, 9792, Note_on_c, 1, 71, 0
7, 10080, Note_on_c, 1, 79, 116
7, 10656, Note_on_c, 1, 79, 0
7, 10800, Note_on_c, 1, 83, 116
7, 11040, Note_on_c, 1, 83, 0
7, 11040, Note_on_c, 1, 81, 116
7, 11184, Note_on_c, 1, 81, 0
7, 11280, Note_on_c, 1, 79, 116
7, 11424, Note_on_c, 1, 79, 0
7, 11520, Note_on_c, 1, 81, 116
7, 11580, Note_on_c, 1, 81, 0
7, 11580, Note_on_c, 1, 79, 116
7, 11640, Note_on_c, 1, 79, 0
7, 11640, Note_on_c, 1, 81, 116
7, 11700, Note_on_c, 1, 81, 0
7, 11700, Note_on_c, 1, 79, 116
7, 11760, Note_on_c, 1, 79, 0
7, 11760, Note_on_c, 1, 78, 116
7, 11904, Note_on_c, 1, 78, 0
7, 12000, Note_on_c, 1, 78, 116
7, 12576, Note_on_c, 1, 78, 0
7, 12720, Note_on_c, 1, 81, 116
7, 12960, Note_on_c, 1, 81, 0
7, 12960, Note_on_c, 1, 84, 116
7, 13104, Note_on_c, 1, 84, 0
7, 13200, Note_on_c, 1, 78, 116
7, 13344, Note_on_c, 1, 78, 0
7, 13440, Note_on_c, 1, 81, 116
7, 13680, Note_on_c, 1, 81, 0
7, 13680, Note_on_c, 1, 79, 116
7, 13824, Note_on_c, 1, 79, 0
7, 13920, Note_on_c, 1, 79, 116
7, 14496, Note_on_c, 1, 79, 0
7, 14640, Note_on_c, 1, 83, 116
7, 14880, Note_on_c, 1, 83, 0
7, 14880, Note_on_c, 1, 81, 116
7, 15024, Note_on_c, 1, 81, 0
7, 15120, Note_on_c, 1, 79, 116
7, 15264, Note_on_c, 1, 79, 0
7, 15360, Note_on_c, 1, 81, 116
7, 15420, Note_on_c, 1, 81, 0
7, 15420, Note_on_c, 1, 79, 116
7, 15480, Note_on_c, 1, 79, 0
7, 15480, Note_on_c, 1, 81, 116
7, 15540, Note_on_c, 1, 81, 0
7, 15540, Note_on_c, 1, 79, 116
7, 15600, Note_on_c, 1, 79, 0
7, 15600, Note_on_c, 1, 78, 116
7, 15744, Note_on_c, 1, 78, 0
7, 15840, Note_on_c, 1, 78, 116
7, 16416, Note_on_c, 1, 78, 0
7, 16560, Note_on_c, 1, 81, 116
7, 16800, Note_on_c, 1, 81, 0
7, 16800, Note_on_c, 1, 84, 116
7, 16944, Note_on_c, 1, 84, 0
7, 17040, Note_on_c, 1, 78, 116
7, 17184, Note_on_c, 1, 78, 0
7, 17280, Note_on_c, 1, 79, 116
7, 17424, Note_on_c, 1, 79, 0
7, 17520, Note_on_c, 1, 79, 116
7, 17664, Note_on_c, 1, 79, 0
7, 17760, Note_on_c, 1, 79, 116
7, 17880, Note_on_c, 1, 79, 0
7, 17880, Note_on_c, 1, 78, 116
7, 18000, Note_on_c, 1, 78, 0
7, 18000, Note_on_c, 1, 76, 116
7, 18120, Note_on_c, 1, 76, 0
7, 18120, Note_on_c, 1, 78, 116
7, 18240, Note_on_c, 1, 78, 0
7, 18240, Note_on_c, 1, 79, 116
7, 18384, Note_on_c, 1, 79, 0
7, 18480, Note_on_c, 1, 79, 116
7, 18624, Note_on_c, 1, 79, 0
7, 18720, Note_on_c, 1, 83, 116
7, 18840, Note_on_c, 1, 83, 0
7, 18840, Note_on_c, 1, 81, 116
7, 18960, Note_on_c, 1, 81, 0
7, 18960, Note_on_c, 1, 79, 116
7, 19080, Note_on_c, 1, 79, 0
7, 19080, Note_on_c, 1, 81, 116
7, 19176, Note_on_c, 1, 81, 0
7, 19200, Note_on_c, 1, 83, 116
7, 19344, Note_on_c, 1, 83, 0
7, 19440, Note_on_c, 1, 83, 116
7, 19584, Note_on_c, 1, 83, 0
7, 19680, Note_on_c, 1, 86, 116
7, 19800, Note_on_c, 1, 86, 0
7, 19800, Note_on_c, 1, 84, 116
7, 19920, Note_on_c, 1, 84, 0
7, 19920, Note_on_c, 1, 83, 116
7, 20040, Note_on_c, 1, 83, 0
7, 20040, Note_on_c, 1, 84, 116
7, 20136, Note_on_c, 1, 84, 0
7, 20160, Note_on_c, 1, 86, 92
7, 20544, Note_on_c, 1, 86, 0
7, 21120, Note_on_c, 1, 74, 72
7, 22080, Note_on_c, 1, 74, 0
7, 22080, Note_on_c, 1, 76, 72
7, 22848, Note_on_c, 1, 76, 0
7, 23040, Note_on_c, 1, 74, 72
7, 23160, Note_on_c, 1, 74, 0
7, 23160, Note_on_c, 1, 72, 72
7, 23394, Note_on_c, 1, 72, 0
7, 23520, Note_on_c, 1, 72, 72
7, 23832, Note_on_c, 1, 72, 0
7, 24000, Note_on_c, 1, 72, 72
7, 24120, Note_on_c, 1, 72, 0
7, 24120, Note_on_c, 1, 71, 72
7, 24354, Note_on_c, 1, 71, 0
7, 24480, Note_on_c, 1, 71, 72
7, 24792, Note_on_c, 1, 71, 0
7, 24960, Note_on_c, 1, 71, 72
7, 25080, Note_on_c, 1, 71, 0
7, 25080, Note_on_c, 1, 69, 72
7, 25314, Note_on_c, 1, 69, 0
7, 25440, Note_on_c, 1, 69, 72
7, 25752, Note_on_c, 1, 69, 0
7, 25920, Note_on_c, 1, 67, 72
7, 26160, Note_on_c, 1, 67, 0
7, 26160, Note_on_c, 1, 66, 72
7, 26316, Note_on_c, 1, 66, 0
7, 26400, Note_on_c, 1, 64, 72
7, 26556, Note_on_c, 1, 64, 0
7, 26640, Note_on_c, 1, 66, 72
7, 26796, Note_on_c, 1, 66, 0
7, 26880, Note_on_c, 1, 67, 72
7, 27072, Note_on_c, 1, 67, 0
7, 27360, Note_on_c, 1, 69, 72
7, 27552, Note_on_c, 1, 69, 0
7, 27840, Note_on_c, 1, 71, 58
7, 28032, Note_on_c, 1, 71, 0
7, 28800, Note_on_c, 1, 74, 72
7, 29760, Note_on_c, 1, 74, 0
7, 29760, Note_on_c, 1, 76, 72
7, 30528, Note_on_c, 1, 76, 0
7, 30720, Note_on_c, 1, 74, 72
7, 30960, Note_on_c, 1, 74, 0
7, 30960, Note_on_c, 1, 72, 72
7, 31116, Note_on_c, 1, 72, 0
7, 31200, Note_on_c, 1, 72, 72
7, 31356, Note_on_c, 1, 72, 0
7, 31440, Note_on_c, 1, 72, 72
7, 31596, Note_on_c, 1, 72, 0
7, 31680, Note_on_c, 1, 72, 72
7, 31920, Note_on_c, 1, 72, 0
7, 31920, Note_on_c, 1, 71, 72
7, 32076, Note_on_c, 1, 71, 0
7, 32160, Note_on_c, 1, 71, 72
7, 32316, Note_on_c, 1, 71, 0
7, 32400, Note_on_c, 1, 71, 72
7, 32556, Note_on_c, 1, 71, 0
7, 32640, Note_on_c, 1, 71, 72
7, 32880, Note_on_c, 1, 71, 0
7, 32880, Note_on_c, 1, 69, 72
7, 33036, Note_on_c, 1, 69, 0
7, 33120, Note_on_c, 1, 69, 72
7, 33276, Note_on_c, 1, 69, 0
7, 33360, Note_on_c, 1, 69, 72
7, 33516, Note_on_c, 1, 69, 0
7, 33600, Note_on_c, 1, 67, 72
7, 33840, Note_on_c, 1, 67, 0
7, 33840, Note_on_c, 1, 66, 72
7, 34080, Note_on_c, 1, 66, 0
7, 34080, Note_on_c, 1, 64, 72
7, 34320, Note_on_c, 1, 64, 0
7, 34320, Note_on_c, 1, 66, 72
7, 34476, Note_on_c, 1, 66, 0
7, 34560, Note_on_c, 1, 67, 121
7, 34560, Note_on_c, 1, 55, 81
7, 35712, Note_on_c, 1, 55, 0
7, 35712, Note_on_c, 1, 67, 0
7, 35760, Note_on_c, 1, 69, 72
7, 35820, Note_on_c, 1, 69, 0
7, 35820, Note_on_c, 1, 67, 72
7, 35880, Note_on_c, 1, 67, 0
7, 35880, Note_on_c, 1, 66, 72
7, 35940, Note_on_c, 1, 66, 0
7, 35940, Note_on_c, 1, 67, 72
7, 36000, Note_on_c, 1, 67, 0
7, 36000, Note_on_c, 1, 69, 72
7, 36240, Note_on_c, 1, 69, 0
7, 36240, Note_on_c, 1, 66, 72
7, 36432, Note_on_c, 1, 66, 0
7, 36480, Note_on_c, 1, 71, 121
7, 37632, Note_on_c, 1, 71, 0
7, 37680, Note_on_c, 1, 72, 72
7, 37740, Note_on_c, 1, 72, 0
7, 37740, Note_on_c, 1, 71, 72
7, 37800, Note_on_c, 1, 71, 0
7, 37800, Note_on_c, 1, 69, 72
7, 37860, Note_on_c, 1, 69, 0
7, 37860, Note_on_c, 1, 71, 72
7, 37920, Note_on_c, 1, 71, 0
7, 37920, Note_on_c, 1, 72, 72
7, 38160, Note_on_c, 1, 72, 0
7, 38160, Note_on_c, 1, 69, 72
7, 38352, Note_on_c, 1, 69, 0
7, 38400, Note_on_c, 1, 74, 72
7, 38496, Note_on_c, 1, 74, 0
7, 38520, Note_on_c, 1, 74, 72
7, 38616, Note_on_c, 1, 74, 0
7, 38640, Note_on_c, 1, 74, 72
7, 38736, Note_on_c, 1, 74, 0
7, 38760, Note_on_c, 1, 74, 72
7, 38856, Note_on_c, 1, 74, 0
7, 38880, Note_on_c, 1, 74, 72
7, 38976, Note_on_c, 1, 74, 0
7, 39000, Note_on_c, 1, 74, 72
7, 39096, Note_on_c, 1, 74, 0
7, 39120, Note_on_c, 1, 74, 72
7, 39216, Note_on_c, 1, 74, 0
7, 39240, Note_on_c, 1, 74, 72
7, 39336, Note_on_c, 1, 74, 0
7, 39360, Note_on_c, 1, 76, 81
7, 39456, Note_on_c, 1, 76, 0
7, 39480, Note_on_c, 1, 76, 81
7, 39576, Note_on_c, 1, 76, 0
7, 39600, Note_on_c, 1, 76, 81
7, 39696, Note_on_c, 1, 76, 0
7, 39720, Note_on_c, 1, 76, 81
7, 39816, Note_on_c, 1, 76, 0
7, 39840, Note_on_c, 1, 78, 81
7, 39936, Note_on_c, 1, 78, 0
7, 39960, Note_on_c, 1, 78, 81
7, 40056, Note_on_c, 1, 78, 0
7, 40080, Note_on_c, 1, 78, 81
7, 40176, Note_on_c, 1, 78, 0
7, 40200, Note_on_c, 1, 78, 81
7, 40296, Note_on_c, 1, 78, 0
7, 40320, Note_on_c, 1, 79, 92
7, 40416, Note_on_c, 1, 79, 0
7, 40440, Note_on_c, 1, 79, 92
7, 40536, Note_on_c, 1, 79, 0
7, 40560, Note_on_c, 1, 79, 92
7, 40656, Note_on_c, 1, 79, 0
7, 40680, Note_on_c, 1, 79, 92
7, 40776, Note_on_c, 1, 79, 0
7, 40800, Note_on_c, 1, 81, 92
7, 40896, Note_on_c, 1, 81, 0
7, 40920, Note_on_c, 1, 81, 92
7, 41016, Note_on_c, 1, 81, 0
7, 41040, Note_on_c, 1, 81, 92
7, 41136, Note_on_c, 1, 81, 0
7, 41160, Note_on_c, 1, 81, 105
7, 41256, Note_on_c, 1, 81, 0
7, 41280, Note_on_c, 1, 83, 105
7, 41376, Note_on_c, 1, 83, 0
7, 41400, Note_on_c, 1, 83, 105
7, 41496, Note_on_c, 1, 83, 0
7, 41520, Note_on_c, 1, 83, 105
7, 41616, Note_on_c, 1, 83, 0
7, 41640, Note_on_c, 1, 83, 105
7, 41736, Note_on_c, 1, 83, 0
7, 41760, Note_on_c, 1, 85, 105
7, 41856, Note_on_c, 1, 85, 0
7, 41880, Note_on_c, 1, 85, 116
7, 41976, Note_on_c, 1, 85, 0
7, 42000, Note_on_c, 1, 85, 116
7, 42096, Note_on_c, 1, 85, 0
7, 42120, Note_on_c, 1, 85, 116
7, 42216, Note_on_c, 1, 85, 0
7, 42240, Note_on_c, 1, 86, 127
7, 42960, Note_on_c, 1, 86, 0
7, 42960, Note_on_c, 1, 81, 116
7, 43152, Note_on_c, 1, 81, 0
7, 43200, Note_on_c, 1, 85, 116
7, 43560, Note_on_c, 1, 85, 0
7, 43560, Note_on_c, 1, 81, 116
7, 43656, Note_on_c, 1, 81, 0
7, 43680, Note_on_c, 1, 85, 116
7, 44040, Note_on_c, 1, 85, 0
7, 44040, Note_on_c, 1, 81, 116
7, 44136, Note_on_c, 1, 81, 0
7, 44160, Note_on_c, 1, 86, 127
7, 44880, Note_on_c, 1, 86, 0
7, 44880, Note_on_c, 1, 81, 116
7, 45072, Note_on_c, 1, 81, 0
7, 45120, Note_on_c, 1, 85, 116
7, 45480, Note_on_c, 1, 85, 0
7, 45480, Note_on_c, 1, 81, 116
7, 45576, Note_on_c, 1, 81, 0
7, 45600, Note_on_c, 1, 85, 116
7, 45960, Note_on_c, 1, 85, 0
7, 45960, Note_on_c, 1, 81, 116
7, 46056, Note_on_c, 1, 81, 0
7, 46080, Note_on_c, 1, 86, 116
7, 46224, Note_on_c, 1, 86, 0
7, 46320, Note_on_c, 1, 86, 116
7, 46320, Note_on_c, 1, 78, 116
7, 46704, Note_on_c, 1, 78, 0
7, 46704, Note_on_c, 1, 86, 0
7, 46800, Note_on_c, 1, 78, 116
7, 46800, Note_on_c, 1, 86, 116
7, 47184, Note_on_c, 1, 86, 0
7, 47184, Note_on_c, 1, 78, 0
7, 47280, Note_on_c, 1, 78, 116
7, 47280, Note_on_c, 1, 86, 116
7, 47664, Note_on_c, 1, 86, 0
7, 47664, Note_on_c, 1, 78, 0
7, 47760, Note_on_c, 1, 86, 116
7, 47760, Note_on_c, 1, 78, 116
7, 48000, Note_on_c, 1, 78, 0
7, 48000, Note_on_c, 1, 76, 116
7, 48192, Note_on_c, 1, 76, 0
7, 48192, Note_on_c, 1, 86, 0
7, 48240, Note_on_c, 1, 86, 116
7, 48240, Note_on_c, 1, 76, 116
7, 48624, Note_on_c, 1, 76, 0
7, 48624, Note_on_c, 1, 86, 0
7, 48720, Note_on_c, 1, 76, 116
7, 48720, Note_on_c, 1, 86, 116
7, 49104, Note_on_c, 1, 86, 0
7, 49104, Note_on_c, 1, 76, 0
7, 49200, Note_on_c, 1, 86, 116
7, 49200, Note_on_c, 1, 76, 116
7, 49584, Note_on_c, 1, 76, 0
7, 49584, Note_on_c, 1, 86, 0
7, 49680, Note_on_c, 1, 86, 116
7, 49680, Note_on_c, 1, 76, 116
7, 49824, Note_on_c, 1, 76, 0
7, 49824, Note_on_c, 1, 86, 0
7, 49920, Note_on_c, 1, 85, 116
7, 49920, Note_on_c, 1, 76, 116
7, 50064, Note_on_c, 1, 76, 0
7, 50064, Note_on_c, 1, 85, 0
7, 50160, Note_on_c, 1, 81, 116
7, 50304, Note_on_c, 1, 81, 0
7, 50400, Note_on_c, 1, 86, 116
7, 50544, Note_on_c, 1, 86, 0
7, 50640, Note_on_c, 1, 81, 116
7, 50784, Note_on_c, 1, 81, 0
7, 50880, Note_on_c, 1, 85, 116
7, 51024, Note_on_c, 1, 85, 0
7, 51120, Note_on_c, 1, 81, 116
7, 51264, Note_on_c, 1, 81, 0
7, 51360, Note_on_c, 1, 86, 116
7, 51504, Note_on_c, 1, 86, 0
7, 51600, Note_on_c, 1, 81, 116
7, 51744, Note_on_c, 1, 81, 0
7, 51840, Note_on_c, 1, 85, 116
7, 51984, Note_on_c, 1, 85, 0
7, 52080, Note_on_c, 1, 69, 116
7, 52224, Note_on_c, 1, 69, 0
7, 52320, Note_on_c, 1, 69, 116
7, 52464, Note_on_c, 1, 69, 0
7, 52560, Note_on_c, 1, 69, 116
7, 52704, Note_on_c, 1, 69, 0
7, 52800, Note_on_c, 1, 69, 116
7, 53184, Note_on_c, 1, 69, 0
7, 53760, Note_on_c, 1, 81, 72
7, 54480, Note_on_c, 1, 81, 0
7, 54480, Note_on_c, 1, 79, 72
7, 54560, Note_on_c, 1, 79, 0
7, 54560, Note_on_c, 1, 78, 72
7, 54640, Note_on_c, 1, 78, 0
7, 54640, Note_on_c, 1, 76, 72
7, 54720, Note_on_c, 1, 76, 0
7, 54720, Note_on_c, 1, 74, 72
7, 54876, Note_on_c, 1, 74, 0
7, 55200, Note_on_c, 1, 83, 72
7, 55356, Note_on_c, 1, 83, 0
7, 55680, Note_on_c, 1, 79, 72
7, 55836, Note_on_c, 1, 79, 0
7, 56160, Note_on_c, 1, 76, 72
7, 56316, Note_on_c, 1, 76, 0
7, 56640, Note_on_c, 1, 81, 72
7, 56796, Note_on_c, 1, 81, 0
7, 57600, Note_on_c, 1, 78, 72
7, 58320, Note_on_c, 1, 78, 0
7, 58320, Note_on_c, 1, 76, 72
7, 58400, Note_on_c, 1, 76, 0
7, 58400, Note_on_c, 1, 74, 72
7, 58480, Note_on_c, 1, 74, 0
7, 58480, Note_on_c, 1, 73, 72
7, 58560, Note_on_c, 1, 73, 0
7, 58560, Note_on_c, 1, 71, 72
7, 58716, Note_on_c, 1, 71, 0
7, 59040, Note_on_c, 1, 79, 72
7, 59196, Note_on_c, 1, 79, 0
7, 59520, Note_on_c, 1, 78, 72
7, 60480, Note_on_c, 1, 78, 0
7, 60480, Note_on_c, 1, 76, 72
7, 60864, Note_on_c, 1, 76, 0
7, 61680, Note_on_c, 1, 81, 72
7, 61824, Note_on_c, 1, 81, 0
7, 61920, Note_on_c, 1, 81, 58
7, 62064, Note_on_c, 1, 81, 0
7, 62160, Note_on_c, 1, 81, 58
7, 62304, Note_on_c, 1, 81, 0
7, 62400, Note_on_c, 1, 81, 58
7, 62544, Note_on_c, 1, 81, 0
7, 62640, Note_on_c, 1, 81, 58
7, 62784, Note_on_c, 1, 81, 0
7, 62880, Note_on_c, 1, 81, 58
7, 63024, Note_on_c, 1, 81, 0
7, 63120, Note_on_c, 1, 81, 58
7, 63264, Note_on_c, 1, 81, 0
7, 63360, Note_on_c, 1, 81, 58
7, 63504, Note_on_c, 1, 81, 0
7, 63600, Note_on_c, 1, 81, 58
7, 63744, Note_on_c, 1, 81, 0
7, 63840, Note_on_c, 1, 81, 58
7, 63984, Note_on_c, 1, 81, 0
7, 64080, Note_on_c, 1, 81, 58
7, 64224, Note_on_c, 1, 81, 0
7, 64320, Note_on_c, 1, 81, 58
7, 64464, Note_on_c, 1, 81, 0
7, 64560, Note_on_c, 1, 81, 58
7, 64704, Note_on_c, 1, 81, 0
7, 64800, Note_on_c, 1, 83, 58
7, 64944, Note_on_c, 1, 83, 0
7, 65040, Note_on_c, 1, 85, 58
7, 65184, Note_on_c, 1, 85, 0
7, 65280, Note_on_c, 1, 85, 72
7, 65520, Note_on_c, 1, 85, 0
7, 65520, Note_on_c, 1, 86, 72
7, 65664, Note_on_c, 1, 86, 0
7, 66000, Note_on_c, 1, 83, 72
7, 66144, Note_on_c, 1, 83, 0
7, 66240, Note_on_c, 1, 83, 72
7, 66480, Note_on_c, 1, 83, 0
7, 66480, Note_on_c, 1, 81, 72
7, 66672, Note_on_c, 1, 81, 0
7, 66960, Note_on_c, 1, 73, 72
7, 67104, Note_on_c, 1, 73, 0
7, 67200, Note_on_c, 1, 74, 72
7, 67584, Note_on_c, 1, 74, 0
7, 67920, Note_on_c, 1, 81, 72
7, 68112, Note_on_c, 1, 81, 0
7, 68160, Note_on_c, 1, 86, 72
7, 68400, Note_on_c, 1, 86, 0
7, 68400, Note_on_c, 1, 85, 72
7, 68640, Note_on_c, 1, 85, 0
7, 68640, Note_on_c, 1, 83, 72
7, 68880, Note_on_c, 1, 83, 0
7, 68880, Note_on_c, 1, 81, 72
7, 69072, Note_on_c, 1, 81, 0
7, 69120, Note_on_c, 1, 85, 72
7, 69180, Note_on_c, 1, 85, 0
7, 69180, Note_on_c, 1, 83, 72
7, 69240, Note_on_c, 1, 83, 0
7, 69240, Note_on_c, 1, 85, 72
7, 69300, Note_on_c, 1, 85, 0
7, 69300, Note_on_c, 1, 83, 72
7, 69360, Note_on_c, 1, 83, 0
7, 69360, Note_on_c, 1, 81, 72
7, 69552, Note_on_c, 1, 81, 0
7, 69840, Note_on_c, 1, 81, 72
7, 69996, Note_on_c, 1, 81, 0
7, 70080, Note_on_c, 1, 81, 72
7, 70236, Note_on_c, 1, 81, 0
7, 70320, Note_on_c, 1, 81, 72
7, 70476, Note_on_c, 1, 81, 0
7, 70560, Note_on_c, 1, 81, 72
7, 70716, Note_on_c, 1, 81, 0
7, 70800, Note_on_c, 1, 81, 72
7, 70956, Note_on_c, 1, 81, 0
7, 71040, Note_on_c, 1, 85, 72
7, 71100, Note_on_c, 1, 85, 0
7, 71100, Note_on_c, 1, 83, 72
7, 71160, Note_on_c, 1, 83, 0
7, 71160, Note_on_c, 1, 85, 72
7, 71220, Note_on_c, 1, 85, 0
7, 71220, Note_on_c, 1, 83, 72
7, 71280, Note_on_c, 1, 83, 0
7, 71280, Note_on_c, 1, 81, 72
7, 71472, Note_on_c, 1, 81, 0
7, 71760, Note_on_c, 1, 81, 72
7, 71952, Note_on_c, 1, 81, 0
7, 72000, Note_on_c, 1, 86, 72
7, 72240, Note_on_c, 1, 86, 0
7, 72240, Note_on_c, 1, 85, 72
7, 72480, Note_on_c, 1, 85, 0
7, 72480, Note_on_c, 1, 83, 72
7, 72720, Note_on_c, 1, 83, 0
7, 72720, Note_on_c, 1, 81, 72
7, 72912, Note_on_c, 1, 81, 0
7, 72960, Note_on_c, 1, 85, 72
7, 73020, Note_on_c, 1, 85, 0
7, 73020, Note_on_c, 1, 83, 72
7, 73080, Note_on_c, 1, 83, 0
7, 73080, Note_on_c, 1, 85, 72
7, 73140, Note_on_c, 1, 85, 0
7, 73140, Note_on_c, 1, 83, 72
7, 73200, Note_on_c, 1, 83, 0
7, 73200, Note_on_c, 1, 81, 72
7, 73392, Note_on_c, 1, 81, 0
7, 73680, Note_on_c, 1, 81, 72
7, 73836, Note_on_c, 1, 81, 0
7, 73920, Note_on_c, 1, 81, 72
7, 74076, Note_on_c, 1, 81, 0
7, 74160, Note_on_c, 1, 81, 72
7, 74316, Note_on_c, 1, 81, 0
7, 74400, Note_on_c, 1, 81, 72
7, 74556, Note_on_c, 1, 81, 0
7, 74640, Note_on_c, 1, 81, 72
7, 74796, Note_on_c, 1, 81, 0
7, 74880, Note_on_c, 1, 85, 72
7, 74940, Note_on_c, 1, 85, 0
7, 74940, Note_on_c, 1, 83, 72
7, 75000, Note_on_c, 1, 83, 0
7, 75000, Note_on_c, 1, 85, 72
7, 75060, Note_on_c, 1, 85, 0
7, 75060, Note_on_c, 1, 83, 72
7, 75120, Note_on_c, 1, 83, 0
7, 75120, Note_on_c, 1, 81, 72
7, 75312, Note_on_c, 1, 81, 0
7, 75840, Note_on_c, 1, 83, 105
7, 75840, Note_on_c, 1, 71, 105
7, 76560, Note_on_c, 1, 71, 0
7, 76560, Note_on_c, 1, 83, 0
7, 76560, Note_on_c, 1, 81, 105
7, 76640, Note_on_c, 1, 81, 0
7, 76640, Note_on_c, 1, 79, 105
7, 76720, Note_on_c, 1, 79, 0
7, 76720, Note_on_c, 1, 78, 105
7, 76800, Note_on_c, 1, 78, 0
7, 76800, Note_on_c, 1, 79, 105
7, 77184, Note_on_c, 1, 79, 0
7, 77760, Note_on_c, 1, 69, 105
7, 77760, Note_on_c, 1, 81, 105
7, 78480, Note_on_c, 1, 81, 0
7, 78480, Note_on_c, 1, 69, 0
7, 78480, Note_on_c, 1, 79, 105
7, 78560, Note_on_c, 1, 79, 0
7, 78560, Note_on_c, 1, 78, 105
7, 78640, Note_on_c, 1, 78, 0
7, 78640, Note_on_c, 1, 76, 105
7, 78720, Note_on_c, 1, 76, 0
7, 78720, Note_on_c, 1, 78, 105
7, 79104, Note_on_c, 1, 78, 0
7, 79680, Note_on_c, 1, 83, 105
7, 79920, Note_on_c, 1, 83, 0
7, 79920, Note_on_c, 1, 85, 105
7, 80040, Note_on_c, 1, 85, 0
7, 80040, Note_on_c, 1, 86, 105
7, 80160, Note_on_c, 1, 86, 0
7, 80160, Note_on_c, 1, 85, 105
7, 80304, Note_on_c, 1, 85, 0
7, 80400, Note_on_c, 1, 83, 105
7, 80544, Note_on_c, 1, 83, 0
7, 80640, Note_on_c, 1, 83, 105
7, 80880, Note_on_c, 1, 83, 0
7, 80880, Note_on_c, 1, 81, 105
7, 81036, Note_on_c, 1, 81, 0
7, 81120, Note_on_c, 1, 78, 105
7, 81276, Note_on_c, 1, 78, 0
7, 81360, Note_on_c, 1, 81, 105
7, 81516, Note_on_c, 1, 81, 0
7, 81600, Note_on_c, 1, 81, 105
7, 81840, Note_on_c, 1, 81, 0
7, 81840, Note_on_c, 1, 79, 105
7, 81996, Note_on_c, 1, 79, 0
7, 82080, Note_on_c, 1, 78, 105
7, 82236, Note_on_c, 1, 78, 0
7, 82320, Note_on_c, 1, 76, 105
7, 82476, Note_on_c, 1, 76, 0
7, 82560, Note_on_c, 1, 74, 92
7, 82944, Note_on_c, 1, 74, 0
7, 83280, Note_on_c, 1, 81, 72
7, 83472, Note_on_c, 1, 81, 0
7, 83520, Note_on_c, 1, 86, 72
7, 83760, Note_on_c, 1, 86, 0
7, 83760, Note_on_c, 1, 85, 72
7, 84000, Note_on_c, 1, 85, 0
7, 84000, Note_on_c, 1, 83, 72
7, 84240, Note_on_c, 1, 83, 0
7, 84240, Note_on_c, 1, 81, 72
7, 84432, Note_on_c, 1, 81, 0
7, 84480, Note_on_c, 1, 85, 72
7, 84540, Note_on_c, 1, 85, 0
7, 84540, Note_on_c, 1, 83, 72
7, 84600, Note_on_c, 1, 83, 0
7, 84600, Note_on_c, 1, 85, 72
7, 84660, Note_on_c, 1, 85, 0
7, 84660, Note_on_c, 1, 83, 72
7, 84720, Note_on_c, 1, 83, 0
7, 84720, Note_on_c, 1, 81, 72
7, 84912, Note_on_c, 1, 81, 0
7, 85200, Note_on_c, 1, 81, 72
7, 85356, Note_on_c, 1, 81, 0
7, 85440, Note_on_c, 1, 81, 72
7, 85596, Note_on_c, 1, 81, 0
7, 85680, Note_on_c, 1, 81, 72
7, 85836, Note_on_c, 1, 81, 0
7, 85920, Note_on_c, 1, 81, 72
7, 86076, Note_on_c, 1, 81, 0
7, 86160, Note_on_c, 1, 81, 72
7, 86316, Note_on_c, 1, 81, 0
7, 86400, Note_on_c, 1, 85, 72
7, 86460, Note_on_c, 1, 85, 0
7, 86460, Note_on_c, 1, 83, 72
7, 86520, Note_on_c, 1, 83, 0
7, 86520, Note_on_c, 1, 85, 72
7, 86580, Note_on_c, 1, 85, 0
7, 86580, Note_on_c, 1, 83, 72
7, 86640, Note_on_c, 1, 83, 0
7, 86640, Note_on_c, 1, 81, 72
7, 86832, Note_on_c, 1, 81, 0
7, 87120, Note_on_c, 1, 81, 72
7, 87312, Note_on_c, 1, 81, 0
7, 87360, Note_on_c, 1, 86, 72
7, 87600, Note_on_c, 1, 86, 0
7, 87600, Note_on_c, 1, 85, 72
7, 87840, Note_on_c, 1, 85, 0
7, 87840, Note_on_c, 1, 83, 72
7, 88080, Note_on_c, 1, 83, 0
7, 88080, Note_on_c, 1, 81, 72
7, 88272, Note_on_c, 1, 81, 0
7, 88320, Note_on_c, 1, 85, 72
7, 88380, Note_on_c, 1, 85, 0
7, 88380, Note_on_c, 1, 83, 72
7, 88440, Note_on_c, 1, 83, 0
7, 88440, Note_on_c, 1, 85, 72
7, 88500, Note_on_c, 1, 85, 0
7, 88500, Note_on_c, 1, 83, 72
7, 88560, Note_on_c, 1, 83, 0
7, 88560, Note_on_c, 1, 81, 72
7, 88752, Note_on_c, 1, 81, 0
7, 89040, Note_on_c, 1, 81, 72
7, 89196, Note_on_c, 1, 81, 0
7, 89280, Note_on_c, 1, 81, 72
7, 89436, Note_on_c, 1, 81, 0
7, 89520, Note_on_c, 1, 81, 72
7, 89676, Note_on_c, 1, 81, 0
7, 89760, Note_on_c, 1, 81, 72
7, 89916, Note_on_c, 1, 81, 0
7, 90000, Note_on_c, 1, 81, 72
7, 90156, Note_on_c, 1, 81, 0
7, 90240, Note_on_c, 1, 85, 72
7, 90300, Note_on_c, 1, 85, 0
7, 90300, Note_on_c, 1, 83, 72
7, 90360, Note_on_c, 1, 83, 0
7, 90360, Note_on_c, 1, 85, 72
7, 90420, Note_on_c, 1, 85, 0
7, 90420, Note_on_c, 1, 83, 72
7, 90480, Note_on_c, 1, 83, 0
7, 90480, Note_on_c, 1, 81, 72
7, 90672, Note_on_c, 1, 81, 0
7, 91200, Note_on_c, 1, 71, 105
7, 91200, Note_on_c, 1, 83, 105
7, 91920, Note_on_c, 1, 83, 0
7, 91920, Note_on_c, 1, 71, 0
7, 91920, Note_on_c, 1, 81, 105
7, 92000, Note_on_c, 1, 81, 0
7, 92000, Note_on_c, 1, 79, 105
7, 92080, Note_on_c, 1, 79, 0
7, 92080, Note_on_c, 1, 78, 105
7, 92160, Note_on_c, 1, 78, 0
7, 92160, Note_on_c, 1, 79, 105
7, 92544, Note_on_c, 1, 79, 0
7, 93120, Note_on_c, 1, 69, 105
7, 93120, Note_on_c, 1, 81, 105
7, 93840, Note_on_c, 1, 81, 0
7, 93840, Note_on_c, 1, 69, 0
7, 93840, Note_on_c, 1, 79, 105
7, 93920, Note_on_c, 1, 79, 0
7, 93920, Note_on_c, 1, 78, 105
7, 94000, Note_on_c, 1, 78, 0
7, 94000, Note_on_c, 1, 76, 105
7, 94080, Note_on_c, 1, 76, 0
7, 94080, Note_on_c, 1, 78, 105
7, 94464, Note_on_c, 1, 78, 0
7, 95040, Note_on_c, 1, 83, 105
7, 95280, Note_on_c, 1, 83, 0
7, 95280, Note_on_c, 1, 85, 105
7, 95400, Note_on_c, 1, 85, 0
7, 95400, Note_on_c, 1, 86, 105
7, 95520, Note_on_c, 1, 86, 0
7, 95520, Note_on_c, 1, 85, 105
7, 95664, Note_on_c, 1, 85, 0
7, 95760, Note_on_c, 1, 83, 105
7, 95904, Note_on_c, 1, 83, 0
7, 96000, Note_on_c, 1, 83, 105
7, 96240, Note_on_c, 1, 83, 0
7, 96240, Note_on_c, 1, 81, 105
7, 96396, Note_on_c, 1, 81, 0
7, 96480, Note_on_c, 1, 78, 105
7, 96636, Note_on_c, 1, 78, 0
7, 96720, Note_on_c, 1, 81, 105
7, 96876, Note_on_c, 1, 81, 0
7, 96960, Note_on_c, 1, 81, 105
7, 97200, Note_on_c, 1, 81, 0
7, 97200, Note_on_c, 1, 79, 105
7, 97356, Note_on_c, 1, 79, 0
7, 97440, Note_on_c, 1, 78, 105
7, 97596, Note_on_c, 1, 78, 0
7, 97680, Note_on_c, 1, 76, 105
7, 97836, Note_on_c, 1, 76, 0
7, 97920, Note_on_c, 1, 74, 105
7, 98064, Note_on_c, 1, 74, 0
7, 98160, Note_on_c, 1, 69, 105
7, 98304, Note_on_c, 1, 69, 0
7, 98400, Note_on_c, 1, 71, 105
7, 98544, Note_on_c, 1, 71, 0
7, 98640, Note_on_c, 1, 73, 105
7, 98784, Note_on_c, 1, 73, 0
7, 98880, Note_on_c, 1, 74, 105
7, 99024, Note_on_c, 1, 74, 0
7, 99120, Note_on_c, 1, 74, 105
7, 99264, Note_on_c, 1, 74, 0
7, 99360, Note_on_c, 1, 78, 105
7, 99420, Note_on_c, 1, 78, 0
7, 99420, Note_on_c, 1, 76, 105
7, 99480, Note_on_c, 1, 76, 0
7, 99480, Note_on_c, 1, 78, 105
7, 99540, Note_on_c, 1, 78, 0
7, 99540, Note_on_c, 1, 76, 105
7, 99600, Note_on_c, 1, 76, 0
7, 99600, Note_on_c, 1, 74, 105
7, 99720, Note_on_c, 1, 74, 0
7, 99720, Note_on_c, 1, 76, 105
7, 99840, Note_on_c, 1, 76, 0
7, 99840, Note_on_c, 1, 78, 105
7, 99984, Note_on_c, 1, 78, 0
7, 100080, Note_on_c, 1, 73, 105
7, 100224, Note_on_c, 1, 73, 0
7, 100320, Note_on_c, 1, 74, 105
7, 100464, Note_on_c, 1, 74, 0
7, 100560, Note_on_c, 1, 76, 105
7, 100704, Note_on_c, 1, 76, 0
7, 100800, Note_on_c, 1, 78, 105
7, 100944, Note_on_c, 1, 78, 0
7, 101040, Note_on_c, 1, 78, 105
7, 101184, Note_on_c, 1, 78, 0
7, 101280, Note_on_c, 1, 81, 105
7, 101340, Note_on_c, 1, 81, 0
7, 101340, Note_on_c, 1, 79, 105
7, 101400, Note_on_c, 1, 79, 0
7, 101400, Note_on_c, 1, 81, 105
7, 101460, Note_on_c, 1, 81, 0
7, 101460, Note_on_c, 1, 79, 105
7, 101520, Note_on_c, 1, 79, 0
7, 101520, Note_on_c, 1, 78, 105
7, 101640, Note_on_c, 1, 78, 0
7, 101640, Note_on_c, 1, 79, 105
7, 101760, Note_on_c, 1, 79, 0
7, 101760, Note_on_c, 1, 81, 105
7, 101904, Note_on_c, 1, 81, 0
7, 102000, Note_on_c, 1, 81, 105
7, 102144, Note_on_c, 1, 81, 0
7, 102240, Note_on_c, 1, 83, 105
7, 102300, Note_on_c, 1, 83, 0
7, 102300, Note_on_c, 1, 82, 105
7, 102360, Note_on_c, 1, 82, 0
7, 102360, Note_on_c, 1, 83, 105
7, 102420, Note_on_c, 1, 83, 0
7, 102420, Note_on_c, 1, 82, 105
7, 102480, Note_on_c, 1, 82, 0
7, 102480, Note_on_c, 1, 80, 105
7, 102600, Note_on_c, 1, 80, 0
7, 102600, Note_on_c, 1, 82, 105
7, 102720, Note_on_c, 1, 82, 0
7, 102720, Note_on_c, 1, 83, 92
7, 103104, Note_on_c, 1, 83, 0
7, 103680, Note_on_c, 1, 71, 72
7, 104400, Note_on_c, 1, 71, 0
7, 104400, Note_on_c, 1, 76, 72
7, 104592, Note_on_c, 1, 76, 0
7, 104640, Note_on_c, 1, 74, 72
7, 104880, Note_on_c, 1, 74, 0
7, 104880, Note_on_c, 1, 73, 72
7, 105120, Note_on_c, 1, 73, 0
7, 105120, Note_on_c, 1, 71, 72
7, 105360, Note_on_c, 1, 71, 0
7, 105360, Note_on_c, 1, 69, 72
7, 105552, Note_on_c, 1, 69, 0
7, 105600, Note_on_c, 1, 74, 72
7, 105792, Note_on_c, 1, 74, 0
7, 106080, Note_on_c, 1, 78, 72
7, 106272, Note_on_c, 1, 78, 0
7, 106560, Note_on_c, 1, 74, 58
7, 106752, Note_on_c, 1, 74, 0
7, 107520, Note_on_c, 1, 71, 105
7, 107520, Note_on_c, 1, 79, 105
7, 107520, Note_on_c, 1, 62, 105
7, 107904, Note_on_c, 1, 62, 0
7, 107904, Note_on_c, 1, 79, 0
7, 107904, Note_on_c, 1, 71, 0
7, 108240, Note_on_c, 1, 74, 105
7, 108384, Note_on_c, 1, 74, 0
7, 108480, Note_on_c, 1, 79, 105
7, 108864, Note_on_c, 1, 79, 0
7, 109200, Note_on_c, 1, 74, 105
7, 109344, Note_on_c, 1, 74, 0
7, 109440, Note_on_c, 1, 79, 105
7, 109584, Note_on_c, 1, 79, 0
7, 109680, Note_on_c, 1, 74, 105
7, 109824, Note_on_c, 1, 74, 0
7, 109920, Note_on_c, 1, 79, 105
7, 110064, Note_on_c, 1, 79, 0
7, 110160, Note_on_c, 1, 83, 105
7, 110304, Note_on_c, 1, 83, 0
7, 110400, Note_on_c, 1, 86, 105
7, 110784, Note_on_c, 1, 86, 0
7, 111360, Note_on_c, 1, 84, 105
7, 111744, Note_on_c, 1, 84, 0
7, 112080, Note_on_c, 1, 81, 105
7, 112224, Note_on_c, 1, 81, 0
7, 112320, Note_on_c, 1, 84, 105
7, 112704, Note_on_c, 1, 84, 0
7, 113040, Note_on_c, 1, 81, 105
7, 113184, Note_on_c, 1, 81, 0
7, 113280, Note_on_c, 1, 84, 105
7, 113424, Note_on_c, 1, 84, 0
7, 113520, Note_on_c, 1, 81, 105
7, 113664, Note_on_c, 1, 81, 0
7, 113760, Note_on_c, 1, 78, 105
7, 113904, Note_on_c, 1, 78, 0
7, 114000, Note_on_c, 1, 81, 105
7, 114144, Note_on_c, 1, 81, 0
7, 114240, Note_on_c, 1, 74, 105
7, 114624, Note_on_c, 1, 74, 0
7, 115200, Note_on_c, 1, 79, 116
7, 115200, Note_on_c, 1, 71, 116
7, 115200, Note_on_c, 1, 62, 116
7, 115344, Note_on_c, 1, 79, 0
7, 115392, Note_on_c, 1, 62, 0
7, 115392, Note_on_c, 1, 71, 0
7, 115680, Note_on_c, 1, 79, 116
7, 116256, Note_on_c, 1, 79, 0
7, 116400, Note_on_c, 1, 83, 116
7, 116640, Note_on_c, 1, 83, 0
7, 116640, Note_on_c, 1, 81, 116
7, 116784, Note_on_c, 1, 81, 0
7, 116880, Note_on_c, 1, 79, 116
7, 117024, Note_on_c, 1, 79, 0
7, 117120, Note_on_c, 1, 81, 116
7, 117180, Note_on_c, 1, 81, 0
7, 117180, Note_on_c, 1, 79, 116
7, 117240, Note_on_c, 1, 79, 0
7, 117240, Note_on_c, 1, 81, 116
7, 117300, Note_on_c, 1, 81, 0
7, 117300, Note_on_c, 1, 79, 116
7, 117360, Note_on_c, 1, 79, 0
7, 117360, Note_on_c, 1, 78, 116
7, 117504, Note_on_c, 1, 78, 0
7, 117600, Note_on_c, 1, 78, 116
7, 118176, Note_on_c, 1, 78, 0
7, 118320, Note_on_c, 1, 81, 116
7, 118560, Note_on_c, 1, 81, 0
7, 118560, Note_on_c, 1, 84, 116
7, 118704, Note_on_c, 1, 84, 0
7, 118800, Note_on_c, 1, 78, 116
7, 118944, Note_on_c, 1, 78, 0
7, 119040, Note_on_c, 1, 81, 116
7, 119280, Note_on_c, 1, 81, 0
7, 119280, Note_on_c, 1, 79, 116
7, 119424, Note_on_c, 1, 79, 0
7, 119520, Note_on_c, 1, 79, 116
7, 120096, Note_on_c, 1, 79, 0
7, 120240, Note_on_c, 1, 83, 116
7, 120480, Note_on_c, 1, 83, 0
7, 120480, Note_on_c, 1, 81, 116
7, 120624, Note_on_c, 1, 81, 0
7, 120720, Note_on_c, 1, 79, 116
7, 120864, Note_on_c, 1, 79, 0
7, 120960, Note_on_c, 1, 81, 116
7, 121020, Note_on_c, 1, 81, 0
7, 121020, Note_on_c, 1, 79, 116
7, 121080, Note_on_c, 1, 79, 0
7, 121080, Note_on_c, 1, 81, 116
7, 121140, Note_on_c, 1, 81, 0
7, 121140, Note_on_c, 1, 79, 116
7, 121200, Note_on_c, 1, 79, 0
7, 121200, Note_on_c, 1, 78, 116
7, 121344, Note_on_c, 1, 78, 0
7, 121440, Note_on_c, 1, 78, 116
7, 122016, Note_on_c, 1, 78, 0
7, 122160, Note_on_c, 1, 81, 116
7, 122400, Note_on_c, 1, 81, 0
7, 122400, Note_on_c, 1, 84, 116
7, 122544, Note_on_c, 1, 84, 0
7, 122640, Note_on_c, 1, 78, 116
7, 122784, Note_on_c, 1, 78, 0
7, 122880, Note_on_c, 1, 79, 116
7, 123024, Note_on_c, 1, 79, 0
7, 123120, Note_on_c, 1, 79, 116
7, 123264, Note_on_c, 1, 79, 0
7, 123360, Note_on_c, 1, 79, 116
7, 123480, Note_on_c, 1, 79, 0
7, 123480, Note_on_c, 1, 78, 116
7, 123600, Note_on_c, 1, 78, 0
7, 123600, Note_on_c, 1, 76, 116
7, 123720, Note_on_c, 1, 76, 0
7, 123720, Note_on_c, 1, 78, 116
7, 123840, Note_on_c, 1, 78, 0
7, 123840, Note_on_c, 1, 79, 116
7, 123984, Note_on_c, 1, 79, 0
7, 124080, Note_on_c, 1, 79, 116
7, 124224, Note_on_c, 1, 79, 0
7, 124320, Note_on_c, 1, 83, 116
7, 124440, Note_on_c, 1, 83, 0
7, 124440, Note_on_c, 1, 81, 116
7, 124560, Note_on_c, 1, 81, 0
7, 124560, Note_on_c, 1, 79, 116
7, 124680, Note_on_c, 1, 79, 0
7, 124680, Note_on_c, 1, 81, 116
7, 124776, Note_on_c, 1, 81, 0
7, 124800, Note_on_c, 1, 83, 116
7, 124944, Note_on_c, 1, 83, 0
7, 125040, Note_on_c, 1, 83, 116
7, 125184, Note_on_c, 1, 83, 0
7, 125280, Note_on_c, 1, 86, 116
7, 125400, Note_on_c, 1, 86, 0
7, 125400, Note_on_c, 1, 84, 116
7, 125520, Note_on_c, 1, 84, 0
7, 125520, Note_on_c, 1, 83, 116
7, 125640, Note_on_c, 1, 83, 0
7, 125640, Note_on_c, 1, 84, 116
7, 125736, Note_on_c, 1, 84, 0
7, 125760, Note_on_c, 1, 86, 92
7, 126144, Note_on_c, 1, 86, 0
7, 126720, Note_on_c, 1, 74, 72
7, 127680, Note_on_c, 1, 74, 0
7, 127680, Note_on_c, 1, 76, 72
7, 128448, Note_on_c, 1, 76, 0
7, 128640, Note_on_c, 1, 74, 72
7, 128760, Note_on_c, 1, 74, 0
7, 128760, Note_on_c, 1, 72, 72
7, 128994, Note_on_c, 1, 72, 0
7, 129120, Note_on_c, 1, 72, 72
7, 129432, Note_on_c, 1, 72, 0
7, 129600, Note_on_c, 1, 72, 72
7, 129720, Note_on_c, 1, 72, 0
7, 129720, Note_on_c, 1, 71, 72
7, 129954, Note_on_c, 1, 71, 0
7, 130080, Note_on_c, 1, 71, 72
7, 130392, Note_on_c, 1, 71, 0
7, 130560, Note_on_c, 1, 71, 72
7, 130680, Note_on_c, 1, 71, 0
7, 130680, Note_on_c, 1, 69, 72
7, 130914, Note_on_c, 1, 69, 0
7, 131040, Note_on_c, 1, 69, 72
7, 131352, Note_on_c, 1, 69, 0
7, 131520, Note_on_c, 1, 67, 72
7, 131760, Note_on_c, 1, 67, 0
7, 131760, Note_on_c, 1, 66, 72
7, 131916, Note_on_c, 1, 66, 0
7, 132000, Note_on_c, 1, 64, 72
7, 132156, Note_on_c, 1, 64, 0
7, 132240, Note_on_c, 1, 66, 72
7, 132396, Note_on_c, 1, 66, 0
7, 132480, Note_on_c, 1, 67, 72
7, 132672, Note_on_c, 1, 67, 0
7, 132960, Note_on_c, 1, 69, 72
7, 133152, Note_on_c, 1, 69, 0
7, 133440, Note_on_c, 1, 71, 58
7, 133632, Note_on_c, 1, 71, 0
7, 134400, Note_on_c, 1, 74, 72
7, 135360, Note_on_c, 1, 74, 0
7, 135360, Note_on_c, 1, 76, 72
7, 136128, Note_on_c, 1, 76, 0
7, 136320, Note_on_c, 1, 74, 72
7, 136560, Note_on_c, 1, 74, 0
7, 136560, Note_on_c, 1, 72, 72
7, 136716, Note_on_c, 1, 72, 0
7, 136800, Note_on_c, 1, 72, 72
7, 136956, Note_on_c, 1, 72, 0
7, 137040, Note_on_c, 1, 72, 72
7, 137196, Note_on_c, 1, 72, 0
7, 137280, Note_on_c, 1, 72, 72
7, 137520, Note_on_c, 1, 72, 0
7, 137520, Note_on_c, 1, 71, 72
7, 137676, Note_on_c, 1, 71, 0
7, 137760, Note_on_c, 1, 71, 72
7, 137916, Note_on_c, 1, 71, 0
7, 138000, Note_on_c, 1, 71, 72
7, 138156, Note_on_c, 1, 71, 0
7, 138240, Note_on_c, 1, 71, 72
7, 138480, Note_on_c, 1, 71, 0
7, 138480, Note_on_c, 1, 69, 72
7, 138636, Note_on_c, 1, 69, 0
7, 138720, Note_on_c, 1, 69, 72
7, 138876, Note_on_c, 1, 69, 0
7, 138960, Note_on_c, 1, 69, 72
7, 139116, Note_on_c, 1, 69, 0
7, 139200, Note_on_c, 1, 67, 72
7, 139440, Note_on_c, 1, 67, 0
7, 139440, Note_on_c, 1, 66, 72
7, 139680, Note_on_c, 1, 66, 0
7, 139680, Note_on_c, 1, 64, 72
7, 139920, Note_on_c, 1, 64, 0
7, 139920, Note_on_c, 1, 66, 72
7, 140076, Note_on_c, 1, 66, 0
7, 140160, Note_on_c, 1, 67, 121
7, 140160, Note_on_c, 1, 55, 81
7, 141312, Note_on_c, 1, 55, 0
7, 141312, Note_on_c, 1, 67, 0
7, 141360, Note_on_c, 1, 69, 72
7, 141420, Note_on_c, 1, 69, 0
7, 141420, Note_on_c, 1, 67, 72
7, 141480, Note_on_c, 1, 67, 0
7, 141480, Note_on_c, 1, 66, 72
7, 141540, Note_on_c, 1, 66, 0
7, 141540, Note_on_c, 1, 67, 72
7, 141600, Note_on_c, 1, 67, 0
7, 141600, Note_on_c, 1, 69, 72
7, 141840, Note_on_c, 1, 69, 0
7, 141840, Note_on_c, 1, 66, 72
7, 142032, Note_on_c, 1, 66, 0
7, 142080, Note_on_c, 1, 71, 121
7, 143232, Note_on_c, 1, 71, 0
7, 143280, Note_on_c, 1, 72, 72
7, 143340, Note_on_c, 1, 72, 0
7, 143340, Note_on_c, 1, 71, 72
7, 143400, Note_on_c, 1, 71, 0
7, 143400, Note_on_c, 1, 69, 72
7, 143460, Note_on_c, 1, 69, 0
7, 143460, Note_on_c, 1, 71, 72
7, 143520, Note_on_c, 1, 71, 0
7, 143520, Note_on_c, 1, 72, 72
7, 143760, Note_on_c, 1, 72, 0
7, 143760, Note_on_c, 1, 69, 72
7, 143952, Note_on_c, 1, 69, 0
7, 144000, Note_on_c, 1, 74, 72
7, 144096, Note_on_c, 1, 74, 0
7, 144120, Note_on_c, 1, 74, 72
7, 144216, Note_on_c, 1, 74, 0
7, 144240, Note_on_c, 1, 74, 72
7, 144336, Note_on_c, 1, 74, 0
7, 144360, Note_on_c, 1, 74, 72
7, 144456, Note_on_c, 1, 74, 0
7, 144480, Note_on_c, 1, 74, 72
7, 144576, Note_on_c, 1, 74, 0
7, 144600, Note_on_c, 1, 74, 72
7, 144696, Note_on_c, 1, 74, 0
7, 144720, Note_on_c, 1, 74, 72
7, 144816, Note_on_c, 1, 74, 0
7, 144840, Note_on_c, 1, 74, 72
7, 144936, Note_on_c, 1, 74, 0
7, 144960, Note_on_c, 1, 76, 81
7, 145056, Note_on_c, 1, 76, 0
7, 145080, Note_on_c, 1, 76, 81
7, 145176, Note_on_c, 1, 76, 0
7, 145200, Note_on_c, 1, 76, 81
7, 145296, Note_on_c, 1, 76, 0
7, 145320, Note_on_c, 1, 76, 81
7, 145416, Note_on_c, 1, 76, 0
7, 145440, Note_on_c, 1, 78, 81
7, 145536, Note_on_c, 1, 78, 0
7, 145560, Note_on_c, 1, 78, 81
7, 145656, Note_on_c, 1, 78, 0
7, 145680, Note_on_c, 1, 78, 81
7, 145776, Note_on_c, 1, 78, 0
7, 145800, Note_on_c, 1, 78, 81
7, 145896, Note_on_c, 1, 78, 0
7, 145920, Note_on_c, 1, 79, 92
7, 146016, Note_on_c, 1, 79, 0
7, 146040, Note_on_c, 1, 79, 92
7, 146136, Note_on_c, 1, 79, 0
7, 146160, Note_on_c, 1, 79, 92
7, 146256, Note_on_c, 1, 79, 0
7, 146280, Note_on_c, 1, 79, 92
7, 146376, Note_on_c, 1, 79, 0
7, 146400, Note_on_c, 1, 81, 92
7, 146496, Note_on_c, 1, 81, 0
7, 146520, Note_on_c, 1, 81, 92
7, 146616, Note_on_c, 1, 81, 0
7, 146640, Note_on_c, 1, 81, 92
7, 146736, Note_on_c, 1, 81, 0
7, 146760, Note_on_c, 1, 81, 105
7, 146856, Note_on_c, 1, 81, 0
7, 146880, Note_on_c, 1, 83, 105
7, 146976, Note_on_c, 1, 83, 0
7, 147000, Note_on_c, 1, 83, 105
7, 147096, Note_on_c, 1, 83, 0
7, 147120, Note_on_c, 1, 83, 105
7, 147216, Note_on_c, 1, 83, 0
7, 147240, Note_on_c, 1, 83, 105
7, 147336, Note_on_c, 1, 83, 0
7, 147360, Note_on_c, 1, 85, 105
7, 147456, Note_on_c, 1, 85, 0
7, 147480, Note_on_c, 1, 85, 116
7, 147576, Note_on_c, 1, 85, 0
7, 147600, Note_on_c, 1, 85, 116
7, 147696, Note_on_c, 1, 85, 0
7, 147720, Note_on_c, 1, 85, 116
7, 147816, Note_on_c, 1, 85, 0
7, 147840, Note_on_c, 1, 86, 127
7, 148560, Note_on_c, 1, 86, 0
7, 148560, Note_on_c, 1, 81, 116
7, 148752, Note_on_c, 1, 81, 0
7, 148800, Note_on_c, 1, 85, 116
7, 149160, Note_on_c, 1, 85, 0
7, 149160, Note_on_c, 1, 81, 116
7, 149256, Note_on_c, 1, 81, 0
7, 149280, Note_on_c, 1, 85, 116
7, 149640, Note_on_c, 1, 85, 0
7, 149640, Note_on_c, 1, 81, 116
7, 149736, Note_on_c, 1, 81, 0
7, 149760, Note_on_c, 1, 86, 127
7, 150480, Note_on_c, 1, 86, 0
7, 150480, Note_on_c, 1, 81, 116
7, 150672, Note_on_c, 1, 81, 0
7, 150720, Note_on_c, 1, 85, 116
7, 151080, Note_on_c, 1, 85, 0
7, 151080, Note_on_c, 1, 81, 116
7, 151176, Note_on_c, 1, 81, 0
7, 151200, Note_on_c, 1, 85, 116
7, 151560, Note_on_c, 1, 85, 0
7, 151560, Note_on_c, 1, 81, 116
7, 151656, Note_on_c, 1, 81, 0
7, 151680, Note_on_c, 1, 86, 116
7, 151824, Note_on_c, 1, 86, 0
7, 151920, Note_on_c, 1, 86, 116
7, 151920, Note_on_c, 1, 78, 116
7, 152304, Note_on_c, 1, 78, 0
7, 152304, Note_on_c, 1, 86, 0
7, 152400, Note_on_c, 1, 78, 116
7, 152400, Note_on_c, 1, 86, 116
7, 152784, Note_on_c, 1, 86, 0
7, 152784, Note_on_c, 1, 78, 0
7, 152880, Note_on_c, 1, 78, 116
7, 152880, Note_on_c, 1, 86, 116
7, 153264, Note_on_c, 1, 86, 0
7, 153264, Note_on_c, 1, 78, 0
7, 153360, Note_on_c, 1, 86, 116
7, 153360, Note_on_c, 1, 78, 116
7, 153600, Note_on_c, 1, 78, 0
7, 153600, Note_on_c, 1, 76, 116
7, 153792, Note_on_c, 1, 76, 0
7, 153792, Note_on_c, 1, 86, 0
7, 153840, Note_on_c, 1, 86, 116
7, 153840, Note_on_c, 1, 76, 116
7, 154224, Note_on_c, 1, 76, 0
7, 154224, Note_on_c, 1, 86, 0
7, 154320, Note_on_c, 1, 76, 116
7, 154320, Note_on_c, 1, 86, 116
7, 154704, Note_on_c, 1, 86, 0
7, 154704, Note_on_c, 1, 76, 0
7, 154800, Note_on_c, 1, 86, 116
7, 154800, Note_on_c, 1, 76, 116
7, 155184, Note_on_c, 1, 76, 0
7, 155184, Note_on_c, 1, 86, 0
7, 155280, Note_on_c, 1, 86, 116
7, 155280, Note_on_c, 1, 76, 116
7, 155424, Note_on_c, 1, 76, 0
7, 155424, Note_on_c, 1, 86, 0
7, 155520, Note_on_c, 1, 85, 116
7, 155520, Note_on_c, 1, 76, 116
7, 155664, Note_on_c, 1, 76, 0
7, 155664, Note_on_c, 1, 85, 0
7, 155760, Note_on_c, 1, 81, 116
7, 155904, Note_on_c, 1, 81, 0
7, 156000, Note_on_c, 1, 86, 116
7, 156144, Note_on_c, 1, 86, 0
7, 156240, Note_on_c, 1, 81, 116
7, 156384, Note_on_c, 1, 81, 0
7, 156480, Note_on_c, 1, 85, 116
7, 156624, Note_on_c, 1, 85, 0
7, 156720, Note_on_c, 1, 81, 116
7, 156864, Note_on_c, 1, 81, 0
7, 156960, Note_on_c, 1, 86, 116
7, 157104, Note_on_c, 1, 86, 0
7, 157200, Note_on_c, 1, 81, 116
7, 157344, Note_on_c, 1, 81, 0
7, 157440, Note_on_c, 1, 85, 116
7, 157584, Note_on_c, 1, 85, 0
7, 157680, Note_on_c, 1, 69, 116
7, 157824, Note_on_c, 1, 69, 0
7, 157920, Note_on_c, 1, 69, 116
7, 158064, Note_on_c, 1, 69, 0
7, 158160, Note_on_c, 1, 69, 116
7, 158304, Note_on_c, 1, 69, 0
7, 158400, Note_on_c, 1, 69, 116
7, 158784, Note_on_c, 1, 69, 0
7, 159360, Note_on_c, 1, 81, 72
7, 160080, Note_on_c, 1, 81, 0
7, 160080, Note_on_c, 1, 79, 72
7, 160160, Note_on_c, 1, 79, 0
7, 160160, Note_on_c, 1, 78, 72
7, 160240, Note_on_c, 1, 78, 0
7, 160240, Note_on_c, 1, 76, 72
7, 160320, Note_on_c, 1, 76, 0
7, 160320, Note_on_c, 1, 74, 72
7, 160476, Note_on_c, 1, 74, 0
7, 160800, Note_on_c, 1, 83, 72
7, 160956, Note_on_c, 1, 83, 0
7, 161280, Note_on_c, 1, 79, 72
7, 161436, Note_on_c, 1, 79, 0
7, 161760, Note_on_c, 1, 76, 72
7, 161916, Note_on_c, 1, 76, 0
7, 162240, Note_on_c, 1, 81, 72
7, 162396, Note_on_c, 1, 81, 0
7, 163200, Note_on_c, 1, 78, 72
7, 163920, Note_on_c, 1, 78, 0
7, 163920, Note_on_c, 1, 76, 72
7, 164000, Note_on_c, 1, 76, 0
7, 164000, Note_on_c, 1, 74, 72
7, 164080, Note_on_c, 1, 74, 0
7, 164080, Note_on_c, 1, 73, 72
7, 164160, Note_on_c, 1, 73, 0
7, 164160, Note_on_c, 1, 71, 72
7, 164316, Note_on_c, 1, 71, 0
7, 164640, Note_on_c, 1, 79, 72
7, 164796, Note_on_c, 1, 79, 0
7, 165120, Note_on_c, 1, 78, 72
7, 166080, Note_on_c, 1, 78, 0
7, 166080, Note_on_c, 1, 76, 72
7, 166464, Note_on_c, 1, 76, 0
7, 167280, Note_on_c, 1, 81, 72
7, 167424, Note_on_c, 1, 81, 0
7, 167520, Note_on_c, 1, 81, 58
7, 167664, Note_on_c, 1, 81, 0
7, 167760, Note_on_c, 1, 81, 58
7, 167904, Note_on_c, 1, 81, 0
7, 168000, Note_on_c, 1, 81, 58
7, 168144, Note_on_c, 1, 81, 0
7, 168240, Note_on_c, 1, 81, 58
7, 168384, Note_on_c, 1, 81, 0
7, 168480, Note_on_c, 1, 81, 58
7, 168624, Note_on_c, 1, 81, 0
7, 168720, Note_on_c, 1, 81, 58
7, 168864, Note_on_c, 1, 81, 0
7, 168960, Note_on_c, 1, 81, 58
7, 169104, Note_on_c, 1, 81, 0
7, 169200, Note_on_c, 1, 81, 58
7, 169344, Note_on_c, 1, 81, 0
7, 169440, Note_on_c, 1, 81, 58
7, 169584, Note_on_c, 1, 81, 0
7, 169680, Note_on_c, 1, 81, 58
7, 169824, Note_on_c, 1, 81, 0
7, 169920, Note_on_c, 1, 81, 58
7, 170064, Note_on_c, 1, 81, 0
7, 170160, Note_on_c, 1, 81, 58
7, 170304, Note_on_c, 1, 81, 0
7, 170400, Note_on_c, 1, 83, 58
7, 170544, Note_on_c, 1, 83, 0
7, 170640, Note_on_c, 1, 85, 58
7, 170784, Note_on_c, 1, 85, 0
7, 170880, Note_on_c, 1, 85, 72
7, 171120, Note_on_c, 1, 85, 0
7, 171120, Note_on_c, 1, 86, 72
7, 171264, Note_on_c, 1, 86, 0
7, 171600, Note_on_c, 1, 83, 72
7, 171744, Note_on_c, 1, 83, 0
7, 171840, Note_on_c, 1, 83, 72
7, 172080, Note_on_c, 1, 83, 0
7, 172080, Note_on_c, 1, 81, 72
7, 172272, Note_on_c, 1, 81, 0
7, 172560, Note_on_c, 1, 73, 72
7, 172704, Note_on_c, 1, 73, 0
7, 172800, Note_on_c, 1, 74, 72
7, 173184, Note_on_c, 1, 74, 0
7, 173520, Note_on_c, 1, 81, 72
7, 173712, Note_on_c, 1, 81, 0
7, 173760, Note_on_c, 1, 86, 72
7, 174000, Note_on_c, 1, 86, 0
7, 174000, Note_on_c, 1, 85, 72
7, 174240, Note_on_c, 1, 85, 0
7, 174240, Note_on_c, 1, 83, 72
7, 174480, Note_on_c, 1, 83, 0
7, 174480, Note_on_c, 1, 81, 72
7, 174672, Note_on_c, 1, 81, 0
7, 174720, Note_on_c, 1, 85, 72
7, 174780, Note_on_c, 1, 85, 0
7, 174780, Note_on_c, 1, 83, 72
7, 174840, Note_on_c, 1, 83, 0
7, 174840, Note_on_c, 1, 85, 72
7, 174900, Note_on_c, 1, 85, 0
7, 174900, Note_on_c, 1, 83, 72
7, 174960, Note_on_c, 1, 83, 0
7, 174960, Note_on_c, 1, 81, 72
7, 175152, Note_on_c, 1, 81, 0
7, 175440, Note_on_c, 1, 81, 72
7, 175596, Note_on_c, 1, 81, 0
7, 175680, Note_on_c, 1, 81, 72
7, 175836, Note_on_c, 1, 81, 0
7, 175920, Note_on_c, 1, 81, 72
7, 176076, Note_on_c, 1, 81, 0
7, 176160, Note_on_c, 1, 81, 72
7, 176316, Note_on_c, 1, 81, 0
7, 176400, Note_on_c, 1, 81, 72
7, 176556, Note_on_c, 1, 81, 0
7, 176640, Note_on_c, 1, 85, 72
7, 176700, Note_on_c, 1, 85, 0
7, 176700, Note_on_c, 1, 83, 72
7, 176760, Note_on_c, 1, 83, 0
7, 176760, Note_on_c, 1, 85, 72
7, 176820, Note_on_c, 1, 85, 0
7, 176820, Note_on_c, 1, 83, 72
7, 176880, Note_on_c, 1, 83, 0
7, 176880, Note_on_c, 1, 81, 72
7, 177072, Note_on_c, 1, 81, 0
7, 177360, Note_on_c, 1, 81, 72
7, 177552, Note_on_c, 1, 81, 0
7, 177600, Note_on_c, 1, 86, 72
7, 177840, Note_on_c, 1, 86, 0
7, 177840, Note_on_c, 1, 85, 72
7, 178080, Note_on_c, 1, 85, 0
7, 178080, Note_on_c, 1, 83, 72
7, 178320, Note_on_c, 1, 83, 0
7, 178320, Note_on_c, 1, 81, 72
7, 178512, Note_on_c, 1, 81, 0
7, 178560, Note_on_c, 1, 85, 72
7, 178620, Note_on_c, 1, 85, 0
7, 178620, Note_on_c, 1, 83, 72
7, 178680, Note_on_c, 1, 83, 0
7, 178680, Note_on_c, 1, 85, 72
7, 178740, Note_on_c, 1, 85, 0
7, 178740, Note_on_c, 1, 83, 72
7, 178800, Note_on_c, 1, 83, 0
7, 178800, Note_on_c, 1, 81, 72
7, 178992, Note_on_c, 1, 81, 0
7, 179280, Note_on_c, 1, 81, 72
7, 179436, Note_on_c, 1, 81, 0
7, 179520, Note_on_c, 1, 81, 72
7, 179676, Note_on_c, 1, 81, 0
7, 179760, Note_on_c, 1, 81, 72
7, 179916, Note_on_c, 1, 81, 0
7, 180000, Note_on_c, 1, 81, 72
7, 180156, Note_on_c, 1, 81, 0
7, 180240, Note_on_c, 1, 81, 72
7, 180396, Note_on_c, 1, 81, 0
7, 180480, Note_on_c, 1, 85, 72
7, 180540, Note_on_c, 1, 85, 0
7, 180540, Note_on_c, 1, 83, 72
7, 180600, Note_on_c, 1, 83, 0
7, 180600, Note_on_c, 1, 85, 72
7, 180660, Note_on_c, 1, 85, 0
7, 180660, Note_on_c, 1, 83, 72
7, 180720, Note_on_c, 1, 83, 0
7, 180720, Note_on_c, 1, 81, 72
7, 180912, Note_on_c, 1, 81, 0
7, 181440, Note_on_c, 1, 83, 105
7, 181440, Note_on_c, 1, 71, 105
7, 182160, Note_on_c, 1, 71, 0
7, 182160, Note_on_c, 1, 83, 0
7, 182160, Note_on_c, 1, 81, 105
7, 182240, Note_on_c, 1, 81, 0
7, 182240, Note_on_c, 1, 79, 105
7, 182320, Note_on_c, 1, 79, 0
7, 182320, Note_on_c, 1, 78, 105
7, 182400, Note_on_c, 1, 78, 0
7, 182400, Note_on_c, 1, 79, 105
7, 182784, Note_on_c, 1, 79, 0
7, 183360, Note_on_c, 1, 69, 105
7, 183360, Note_on_c, 1, 81, 105
7, 184080, Note_on_c, 1, 81, 0
7, 184080, Note_on_c, 1, 69, 0
7, 184080, Note_on_c, 1, 79, 105
7, 184160, Note_on_c, 1, 79, 0
7, 184160, Note_on_c, 1, 78, 105
7, 184240, Note_on_c, 1, 78, 0
7, 184240, Note_on_c, 1, 76, 105
7, 184320, Note_on_c, 1, 76, 0
7, 184320, Note_on_c, 1, 78, 105
7, 184704, Note_on_c, 1, 78, 0
7, 185280, Note_on_c, 1, 83, 105
7, 185520, Note_on_c, 1, 83, 0
7, 185520, Note_on_c, 1, 85, 105
7, 185640, Note_on_c, 1, 85, 0
7, 185640, Note_on_c, 1, 86, 105
7, 185760, Note_on_c, 1, 86, 0
7, 185760, Note_on_c, 1, 85, 105
7, 185904, Note_on_c, 1, 85, 0
7, 186000, Note_on_c, 1, 83, 105
7, 186144, Note_on_c, 1, 83, 0
7, 186240, Note_on_c, 1, 83, 105
7, 186480, Note_on_c, 1, 83, 0
7, 186480, Note_on_c, 1, 81, 105
7, 186636, Note_on_c, 1, 81, 0
7, 186720, Note_on_c, 1, 78, 105
7, 186876, Note_on_c, 1, 78, 0
7, 186960, Note_on_c, 1, 81, 105
7, 187116, Note_on_c, 1, 81, 0
7, 187200, Note_on_c, 1, 81, 105
7, 187440, Note_on_c, 1, 81, 0
7, 187440, Note_on_c, 1, 79, 105
7, 187596, Note_on_c, 1, 79, 0
7, 187680, Note_on_c, 1, 78, 105
7, 187836, Note_on_c, 1, 78, 0
7, 187920, Note_on_c, 1, 76, 105
7, 188076, Note_on_c, 1, 76, 0
7, 188160, Note_on_c, 1, 74, 92
7, 188544, Note_on_c, 1, 74, 0
7, 188880, Note_on_c, 1, 81, 72
7, 189072, Note_on_c, 1, 81, 0
7, 189120, Note_on_c, 1, 86, 72
7, 189360, Note_on_c, 1, 86, 0
7, 189360, Note_on_c, 1, 85, 72
7, 189600, Note_on_c, 1, 85, 0
7, 189600, Note_on_c, 1, 83, 72
7, 189840, Note_on_c, 1, 83, 0
7, 189840, Note_on_c, 1, 81, 72
7, 190032, Note_on_c, 1, 81, 0
7, 190080, Note_on_c, 1, 85, 72
7, 190140, Note_on_c, 1, 85, 0
7, 190140, Note_on_c, 1, 83, 72
7, 190200, Note_on_c, 1, 83, 0
7, 190200, Note_on_c, 1, 85, 72
7, 190260, Note_on_c, 1, 85, 0
7, 190260, Note_on_c, 1, 83, 72
7, 190320, Note_on_c, 1, 83, 0
7, 190320, Note_on_c, 1, 81, 72
7, 190512, Note_on_c, 1, 81, 0
7, 190800, Note_on_c, 1, 81, 72
7, 190956, Note_on_c, 1, 81, 0
7, 191040, Note_on_c, 1, 81, 72
7, 191196, Note_on_c, 1, 81, 0
7, 191280, Note_on_c, 1, 81, 72
7, 191436, Note_on_c, 1, 81, 0
7, 191520, Note_on_c, 1, 81, 72
7, 191676, Note_on_c, 1, 81, 0
7, 191760, Note_on_c, 1, 81, 72
7, 191916, Note_on_c, 1, 81, 0
7, 192000, Note_on_c, 1, 85, 72
7, 192060, Note_on_c, 1, 85, 0
7, 192060, Note_on_c, 1, 83, 72
7, 192120, Note_on_c, 1, 83, 0
7, 192120, Note_on_c, 1, 85, 72
7, 192180, Note_on_c, 1, 85, 0
7, 192180, Note_on_c, 1, 83, 72
7, 192240, Note_on_c, 1, 83, 0
7, 192240, Note_on_c, 1, 81, 72
7, 192432, Note_on_c, 1, 81, 0
7, 192720, Note_on_c, 1, 81, 72
7, 192912, Note_on_c, 1, 81, 0
7, 192960, Note_on_c, 1, 86, 72
7, 193200, Note_on_c, 1, 86, 0
7, 193200, Note_on_c, 1, 85, 72
7, 193440, Note_on_c, 1, 85, 0
7, 193440, Note_on_c, 1, 83, 72
7, 193680, Note_on_c, 1, 83, 0
7, 193680, Note_on_c, 1, 81, 72
7, 193872, Note_on_c, 1, 81, 0
7, 193920, Note_on_c, 1, 85, 72
7, 193980, Note_on_c, 1, 85, 0
7, 193980, Note_on_c, 1, 83, 72
7, 194040, Note_on_c, 1, 83, 0
7, 194040, Note_on_c, 1, 85, 72
7, 194100, Note_on_c, 1, 85, 0
7, 194100, Note_on_c, 1, 83, 72
7, 194160, Note_on_c, 1, 83, 0
7, 194160, Note_on_c, 1, 81, 72
7, 194352, Note_on_c, 1, 81, 0
7, 194640, Note_on_c, 1, 81, 72
7, 194796, Note_on_c, 1, 81, 0
7, 194880, Note_on_c, 1, 81, 72
7, 195036, Note_on_c, 1, 81, 0
7, 195120, Note_on_c, 1, 81, 72
7, 195276, Note_on_c, 1, 81, 0
7, 195360, Note_on_c, 1, 81, 72
7, 195516, Note_on_c, 1, 81, 0
7, 195600, Note_on_c, 1, 81, 72
7, 195756, Note_on_c, 1, 81, 0
7, 195840, Note_on_c, 1, 85, 72
7, 195900, Note_on_c, 1, 85, 0
7, 195900, Note_on_c, 1, 83, 72
7, 195960, Note_on_c, 1, 83, 0
7, 195960, Note_on_c, 1, 85, 72
7, 196020, Note_on_c, 1, 85, 0
7, 196020, Note_on_c, 1, 83, 72
7, 196080, Note_on_c, 1, 83, 0
7, 196080, Note_on_c, 1, 81, 72
7, 196272, Note_on_c, 1, 81, 0
7, 196800, Note_on_c, 1, 71, 105
7, 196800, Note_on_c, 1, 83, 105
7, 197520, Note_on_c, 1, 83, 0
7, 197520, Note_on_c, 1, 71, 0
7, 197520, Note_on_c, 1, 81, 105
7, 197600, Note_on_c, 1, 81, 0
7, 197600, Note_on_c, 1, 79, 105
7, 197680, Note_on_c, 1, 79, 0
7, 197680, Note_on_c, 1, 78, 105
7, 197760, Note_on_c, 1, 78, 0
7, 197760, Note_on_c, 1, 79, 105
7, 198144, Note_on_c, 1, 79, 0
7, 198720, Note_on_c, 1, 69, 105
7, 198720, Note_on_c, 1, 81, 105
7, 199440, Note_on_c, 1, 81, 0
7, 199440, Note_on_c, 1, 69, 0
7, 199440, Note_on_c, 1, 79, 105
7, 199520, Note_on_c, 1, 79, 0
7, 199520, Note_on_c, 1, 78, 105
7, 199600, Note_on_c, 1, 78, 0
7, 199600, Note_on_c, 1, 76, 105
7, 199680, Note_on_c, 1, 76, 0
7, 199680, Note_on_c, 1, 78, 105
7, 200064, Note_on_c, 1, 78, 0
7, 200640, Note_on_c, 1, 83, 105
7, 200880, Note_on_c, 1, 83, 0
7, 200880, Note_on_c, 1, 85, 105
7, 201000, Note_on_c, 1, 85, 0
7, 201000, Note_on_c, 1, 86, 105
7, 201120, Note_on_c, 1, 86, 0
7, 201120, Note_on_c, 1, 85, 105
7, 201264, Note_on_c, 1, 85, 0
7, 201360, Note_on_c, 1, 83, 105
7, 201504, Note_on_c, 1, 83, 0
7, 201600, Note_on_c, 1, 83, 105
7, 201840, Note_on_c, 1, 83, 0
7, 201840, Note_on_c, 1, 81, 105
7, 201996, Note_on_c, 1, 81, 0
7, 202080, Note_on_c, 1, 78, 105
7, 202236, Note_on_c, 1, 78, 0
7, 202320, Note_on_c, 1, 81, 105
7, 202476, Note_on_c, 1, 81, 0
7, 202560, Note_on_c, 1, 81, 105
7, 202800, Note_on_c, 1, 81, 0
7, 202800, Note_on_c, 1, 79, 105
7, 202956, Note_on_c, 1, 79, 0
7, 203040, Note_on_c, 1, 78, 105
7, 203196, Note_on_c, 1, 78, 0
7, 203280, Note_on_c, 1, 76, 105
7, 203436, Note_on_c, 1, 76, 0
7, 203520, Note_on_c, 1, 74, 105
7, 203664, Note_on_c, 1, 74, 0
7, 203760, Note_on_c, 1, 69, 105
7, 203904, Note_on_c, 1, 69, 0
7, 204000, Note_on_c, 1, 71, 105
7, 204144, Note_on_c, 1, 71, 0
7, 204240, Note_on_c, 1, 73, 105
7, 204384, Note_on_c, 1, 73, 0
7, 204480, Note_on_c, 1, 74, 105
7, 204624, Note_on_c, 1, 74, 0
7, 204720, Note_on_c, 1, 74, 105
7, 204864, Note_on_c, 1, 74, 0
7, 204960, Note_on_c, 1, 78, 105
7, 205020, Note_on_c, 1, 78, 0
7, 205020, Note_on_c, 1, 76, 105
7, 205080, Note_on_c, 1, 76, 0
7, 205080, Note_on_c, 1, 78, 105
7, 205140, Note_on_c, 1, 78, 0
7, 205140, Note_on_c, 1, 76, 105
7, 205200, Note_on_c, 1, 76, 0
7, 205200, Note_on_c, 1, 74, 105
7, 205320, Note_on_c, 1, 74, 0
7, 205320, Note_on_c, 1, 76, 105
7, 205440, Note_on_c, 1, 76, 0
7, 205440, Note_on_c, 1, 78, 105
7, 205584, Note_on_c, 1, 78, 0
7, 205680, Note_on_c, 1, 73, 105
7, 205824, Note_on_c, 1, 73, 0
7, 205920, Note_on_c, 1, 74, 105
7, 206064, Note_on_c, 1, 74, 0
7, 206160, Note_on_c, 1, 76, 105
7, 206304, Note_on_c, 1, 76, 0
7, 206400, Note_on_c, 1, 78, 105
7, 206544, Note_on_c, 1, 78, 0
7, 206640, Note_on_c, 1, 78, 105
7, 206784, Note_on_c, 1, 78, 0
7, 206880, Note_on_c, 1, 81, 105
7, 206940, Note_on_c, 1, 81, 0
7, 206940, Note_on_c, 1, 79, 105
7, 207000, Note_on_c, 1, 79, 0
7, 207000, Note_on_c, 1, 81, 105
7, 207060, Note_on_c, 1, 81, 0
7, 207060, Note_on_c, 1, 79, 105
7, 207120, Note_on_c, 1, 79, 0
7, 207120, Note_on_c, 1, 78, 105
7, 207240, Note_on_c, 1, 78, 0
7, 207240, Note_on_c, 1, 79, 105
7, 207360, Note_on_c, 1, 79, 0
7, 207360, Note_on_c, 1, 81, 105
7, 207504, Note_on_c, 1, 81, 0
7, 207600, Note_on_c, 1, 81, 105
7, 207744, Note_on_c, 1, 81, 0
7, 207840, Note_on_c, 1, 83, 105
7, 207900, Note_on_c, 1, 83, 0
7, 207900, Note_on_c, 1, 82, 105
7, 207960, Note_on_c, 1, 82, 0
7, 207960, Note_on_c, 1, 83, 105
7, 208020, Note_on_c, 1, 83, 0
7, 208020, Note_on_c, 1, 82, 105
7, 208080, Note_on_c, 1, 82, 0
7, 208080, Note_on_c, 1, 80, 105
7, 208200, Note_on_c, 1, 80, 0
7, 208200, Note_on_c, 1, 82, 105
7, 208320, Note_on_c, 1, 82, 0
7, 208320, Note_on_c, 1, 83, 92
7, 208704, Note_on_c, 1, 83, 0
7, 209280, Note_on_c, 1, 71, 72
7, 210000, Note_on_c, 1, 71, 0
7, 210000, Note_on_c, 1, 76, 72
7, 210192, Note_on_c, 1, 76, 0
7, 210240, Note_on_c, 1, 74, 72
7, 210480, Note_on_c, 1, 74, 0
7, 210480, Note_on_c, 1, 73, 72
7, 210720, Note_on_c, 1, 73, 0
7, 210720, Note_on_c, 1, 71, 72
7, 210960, Note_on_c, 1, 71, 0
7, 210960, Note_on_c, 1, 69, 72
7, 211152, Note_on_c, 1, 69, 0
7, 211200, Note_on_c, 1, 74, 72
7, 211392, Note_on_c, 1, 74, 0
7, 211680, Note_on_c, 1, 78, 72
7, 211872, Note_on_c, 1, 78, 0
7, 212160, Note_on_c, 1, 74, 58
7, 212352, Note_on_c, 1, 74, 0
7, 213120, Note_on_c, 1, 62, 105
7, 213120, Note_on_c, 1, 74, 105
7, 213504, Note_on_c, 1, 74, 0
7, 213504, Note_on_c, 1, 62, 0
7, 213840, Note_on_c, 1, 69, 105
7, 213996, Note_on_c, 1, 69, 0
7, 214080, Note_on_c, 1, 74, 105
7, 214464, Note_on_c, 1, 74, 0
7, 214800, Note_on_c, 1, 69, 105
7, 214956, Note_on_c, 1, 69, 0
7, 215040, Note_on_c, 1, 74, 105
7, 215196, Note_on_c, 1, 74, 0
7, 215280, Note_on_c, 1, 69, 105
7, 215436, Note_on_c, 1, 69, 0
7, 215520, Note_on_c, 1, 74, 105
7, 215676, Note_on_c, 1, 74, 0
7, 215760, Note_on_c, 1, 78, 105
7, 215916, Note_on_c, 1, 78, 0
7, 216000, Note_on_c, 1, 81, 105
7, 216384, Note_on_c, 1, 81, 0
7, 216960, Note_on_c, 1, 81, 105
7, 217344, Note_on_c, 1, 81, 0
7, 217680, Note_on_c, 1, 78, 105
7, 217836, Note_on_c, 1, 78, 0
7, 217920, Note_on_c, 1, 81, 105
7, 218304, Note_on_c, 1, 81, 0
7, 218640, Note_on_c, 1, 78, 105
7, 218796, Note_on_c, 1, 78, 0
7, 218880, Note_on_c, 1, 81, 105
7, 219036, Note_on_c, 1, 81, 0
7, 219120, Note_on_c, 1, 78, 105
7, 219276, Note_on_c, 1, 78, 0
7, 219360, Note_on_c, 1, 75, 105
7, 219516, Note_on_c, 1, 75, 0
7, 219600, Note_on_c, 1, 78, 105
7, 219756, Note_on_c, 1, 78, 0
7, 219840, Note_on_c, 1, 71, 105
7, 220224, Note_on_c, 1, 71, 0
7, 221520, Note_on_c, 1, 79, 72
7, 221712, Note_on_c, 1, 79, 0
7, 221760, Note_on_c, 1, 84, 72
7, 222000, Note_on_c, 1, 84, 0
7, 222000, Note_on_c, 1, 83, 72
7, 222240, Note_on_c, 1, 83, 0
7, 222240, Note_on_c, 1, 81, 72
7, 222480, Note_on_c, 1, 81, 0
7, 222480, Note_on_c, 1, 79, 72
7, 222672, Note_on_c, 1, 79, 0
7, 222720, Note_on_c, 1, 83, 72
7, 222780, Note_on_c, 1, 83, 0
7, 222780, Note_on_c, 1, 81, 72
7, 222840, Note_on_c, 1, 81, 0
7, 222840, Note_on_c, 1, 83, 72
7, 222900, Note_on_c, 1, 83, 0
7, 222900, Note_on_c, 1, 81, 72
7, 222960, Note_on_c, 1, 81, 0
7, 222960, Note_on_c, 1, 79, 72
7, 223152, Note_on_c, 1, 79, 0
7, 223440, Note_on_c, 1, 79, 72
7, 223584, Note_on_c, 1, 79, 0
7, 223680, Note_on_c, 1, 79, 72
7, 223824, Note_on_c, 1, 79, 0
7, 223920, Note_on_c, 1, 79, 72
7, 224064, Note_on_c, 1, 79, 0
7, 224160, Note_on_c, 1, 79, 72
7, 224304, Note_on_c, 1, 79, 0
7, 224400, Note_on_c, 1, 79, 72
7, 224544, Note_on_c, 1, 79, 0
7, 224640, Note_on_c, 1, 83, 72
7, 224700, Note_on_c, 1, 83, 0
7, 224700, Note_on_c, 1, 81, 72
7, 224760, Note_on_c, 1, 81, 0
7, 224760, Note_on_c, 1, 83, 72
7, 224820, Note_on_c, 1, 83, 0
7, 224820, Note_on_c, 1, 81, 72
7, 224880, Note_on_c, 1, 81, 0
7, 224880, Note_on_c, 1, 79, 72
7, 225072, Note_on_c, 1, 79, 0
7, 225360, Note_on_c, 1, 79, 72
7, 225552, Note_on_c, 1, 79, 0
7, 225600, Note_on_c, 1, 84, 72
7, 225840, Note_on_c, 1, 84, 0
7, 225840, Note_on_c, 1, 83, 72
7, 226080, Note_on_c, 1, 83, 0
7, 226080, Note_on_c, 1, 81, 72
7, 226320, Note_on_c, 1, 81, 0
7, 226320, Note_on_c, 1, 79, 72
7, 226512, Note_on_c, 1, 79, 0
7, 226560, Note_on_c, 1, 83, 72
7, 226620, Note_on_c, 1, 83, 0
7, 226620, Note_on_c, 1, 81, 72
7, 226680, Note_on_c, 1, 81, 0
7, 226680, Note_on_c, 1, 83, 72
7, 226740, Note_on_c, 1, 83, 0
7, 226740, Note_on_c, 1, 81, 72
7, 226800, Note_on_c, 1, 81, 0
7, 226800, Note_on_c, 1, 79, 72
7, 226992, Note_on_c, 1, 79, 0
7, 227280, Note_on_c, 1, 79, 72
7, 227424, Note_on_c, 1, 79, 0
7, 227520, Note_on_c, 1, 79, 72
7, 227664, Note_on_c, 1, 79, 0
7, 227760, Note_on_c, 1, 79, 72
7, 227904, Note_on_c, 1, 79, 0
7, 228000, Note_on_c, 1, 79, 72
7, 228144, Note_on_c, 1, 79, 0
7, 228240, Note_on_c, 1, 79, 72
7, 228384, Note_on_c, 1, 79, 0
7, 228480, Note_on_c, 1, 83, 72
7, 228540, Note_on_c, 1, 83, 0
7, 228540, Note_on_c, 1, 81, 72
7, 228600, Note_on_c, 1, 81, 0
7, 228600, Note_on_c, 1, 83, 72
7, 228660, Note_on_c, 1, 83, 0
7, 228660, Note_on_c, 1, 81, 72
7, 228720, Note_on_c, 1, 81, 0
7, 228720, Note_on_c, 1, 79, 72
7, 228912, Note_on_c, 1, 79, 0
7, 229200, Note_on_c, 1, 79, 72
7, 229392, Note_on_c, 1, 79, 0
7, 229440, Note_on_c, 1, 84, 72
7, 229680, Note_on_c, 1, 84, 0
7, 229680, Note_on_c, 1, 83, 72
7, 229920, Note_on_c, 1, 83, 0
7, 229920, Note_on_c, 1, 81, 72
7, 230160, Note_on_c, 1, 81, 0
7, 230160, Note_on_c, 1, 79, 72
7, 230352, Note_on_c, 1, 79, 0
7, 230400, Note_on_c, 1, 83, 72
7, 230460, Note_on_c, 1, 83, 0
7, 230460, Note_on_c, 1, 81, 72
7, 230520, Note_on_c, 1, 81, 0
7, 230520, Note_on_c, 1, 83, 72
7, 230580, Note_on_c, 1, 83, 0
7, 230580, Note_on_c, 1, 81, 72
7, 230640, Note_on_c, 1, 81, 0
7, 230640, Note_on_c, 1, 80, 72
7, 230832, Note_on_c, 1, 80, 0
7, 231120, Note_on_c, 1, 80, 72
7, 231264, Note_on_c, 1, 80, 0
7, 231360, Note_on_c, 1, 80, 72
7, 231504, Note_on_c, 1, 80, 0
7, 231600, Note_on_c, 1, 80, 72
7, 231744, Note_on_c, 1, 80, 0
7, 231840, Note_on_c, 1, 80, 72
7, 231984, Note_on_c, 1, 80, 0
7, 232080, Note_on_c, 1, 80, 72
7, 232224, Note_on_c, 1, 80, 0
7, 232320, Note_on_c, 1, 84, 72
7, 232380, Note_on_c, 1, 84, 0
7, 232380, Note_on_c, 1, 83, 72
7, 232440, Note_on_c, 1, 83, 0
7, 232440, Note_on_c, 1, 84, 72
7, 232500, Note_on_c, 1, 84, 0
7, 232500, Note_on_c, 1, 83, 72
7, 232560, Note_on_c, 1, 83, 0
7, 232560, Note_on_c, 1, 81, 72
7, 232752, Note_on_c, 1, 81, 0
7, 233040, Note_on_c, 1, 81, 72
7, 233232, Note_on_c, 1, 81, 0
7, 233280, Note_on_c, 1, 84, 72
7, 233520, Note_on_c, 1, 84, 0
7, 233520, Note_on_c, 1, 82, 72
7, 233760, Note_on_c, 1, 82, 0
7, 233760, Note_on_c, 1, 81, 72
7, 234000, Note_on_c, 1, 81, 0
7, 234000, Note_on_c, 1, 79, 72
7, 234192, Note_on_c, 1, 79, 0
7, 234240, Note_on_c, 1, 81, 72
7, 234300, Note_on_c, 1, 81, 0
7, 234300, Note_on_c, 1, 79, 72
7, 234360, Note_on_c, 1, 79, 0
7, 234360, Note_on_c, 1, 81, 72
7, 234420, Note_on_c, 1, 81, 0
7, 234420, Note_on_c, 1, 79, 72
7, 234480, Note_on_c, 1, 79, 0
7, 234480, Note_on_c, 1, 78, 72
7, 234672, Note_on_c, 1, 78, 0
7, 234960, Note_on_c, 1, 78, 72
7, 235104, Note_on_c, 1, 78, 0
7, 235200, Note_on_c, 1, 78, 72
7, 235344, Note_on_c, 1, 78, 0
7, 235440, Note_on_c, 1, 78, 72
7, 235584, Note_on_c, 1, 78, 0
7, 235680, Note_on_c, 1, 78, 72
7, 235824, Note_on_c, 1, 78, 0
7, 235920, Note_on_c, 1, 78, 72
7, 236064, Note_on_c, 1, 78, 0
7, 236160, Note_on_c, 1, 82, 72
7, 236220, Note_on_c, 1, 82, 0
7, 236220, Note_on_c, 1, 81, 72
7, 236280, Note_on_c, 1, 81, 0
7, 236280, Note_on_c, 1, 82, 72
7, 236340, Note_on_c, 1, 82, 0
7, 236340, Note_on_c, 1, 81, 72
7, 236400, Note_on_c, 1, 81, 0
7, 236400, Note_on_c, 1, 79, 72
7, 236592, Note_on_c, 1, 79, 0
7, 236880, Note_on_c, 1, 75, 72
7, 237072, Note_on_c, 1, 75, 0
7, 237120, Note_on_c, 1, 79, 72
7, 237360, Note_on_c, 1, 79, 0
7, 237360, Note_on_c, 1, 77, 72
7, 237600, Note_on_c, 1, 77, 0
7, 237600, Note_on_c, 1, 75, 72
7, 237840, Note_on_c, 1, 75, 0
7, 237840, Note_on_c, 1, 74, 72
7, 238032, Note_on_c, 1, 74, 0
7, 238080, Note_on_c, 1, 75, 72
7, 238140, Note_on_c, 1, 75, 0
7, 238140, Note_on_c, 1, 74, 72
7, 238200, Note_on_c, 1, 74, 0
7, 238200, Note_on_c, 1, 75, 72
7, 238260, Note_on_c, 1, 75, 0
7, 238260, Note_on_c, 1, 74, 72
7, 238320, Note_on_c, 1, 74, 0
7, 238320, Note_on_c, 1, 73, 72
7, 238512, Note_on_c, 1, 73, 0
7, 238800, Note_on_c, 1, 73, 72
7, 238956, Note_on_c, 1, 73, 0
7, 239040, Note_on_c, 1, 73, 72
7, 239196, Note_on_c, 1, 73, 0
7, 239280, Note_on_c, 1, 73, 72
7, 239436, Note_on_c, 1, 73, 0
7, 239520, Note_on_c, 1, 73, 72
7, 239676, Note_on_c, 1, 73, 0
7, 239760, Note_on_c, 1, 73, 72
7, 239916, Note_on_c, 1, 73, 0
7, 240000, Note_on_c, 1, 78, 72
7, 240060, Note_on_c, 1, 78, 0
7, 240060, Note_on_c, 1, 76, 72
7, 240120, Note_on_c, 1, 76, 0
7, 240120, Note_on_c, 1, 78, 72
7, 240180, Note_on_c, 1, 78, 0
7, 240180, Note_on_c, 1, 76, 58
7, 240240, Note_on_c, 1, 76, 0
7, 240240, Note_on_c, 1, 74, 58
7, 240432, Note_on_c, 1, 74, 0
7, 240720, Note_on_c, 1, 62, 105
7, 240960, Note_on_c, 1, 62, 0
7, 240960, Note_on_c, 1, 64, 105
7, 241200, Note_on_c, 1, 64, 0
7, 241200, Note_on_c, 1, 66, 105
7, 241440, Note_on_c, 1, 66, 0
7, 241440, Note_on_c, 1, 67, 105
7, 241680, Note_on_c, 1, 67, 0
7, 241680, Note_on_c, 1, 69, 105
7, 241920, Note_on_c, 1, 69, 0
7, 241920, Note_on_c, 1, 72, 105
7, 242160, Note_on_c, 1, 72, 0
7, 242160, Note_on_c, 1, 70, 105
7, 242400, Note_on_c, 1, 70, 0
7, 242640, Note_on_c, 1, 66, 105
7, 242880, Note_on_c, 1, 66, 0
7, 242880, Note_on_c, 1, 67, 105
7, 243120, Note_on_c, 1, 67, 0
7, 243120, Note_on_c, 1, 69, 105
7, 243360, Note_on_c, 1, 69, 0
7, 243360, Note_on_c, 1, 70, 105
7, 243600, Note_on_c, 1, 70, 0
7, 243600, Note_on_c, 1, 73, 105
7, 243840, Note_on_c, 1, 73, 0
7, 243840, Note_on_c, 1, 76, 105
7, 244080, Note_on_c, 1, 76, 0
7, 244080, Note_on_c, 1, 74, 105
7, 244272, Note_on_c, 1, 74, 0
7, 244560, Note_on_c, 1, 74, 72
7, 244800, Note_on_c, 1, 74, 0
7, 244800, Note_on_c, 1, 76, 72
7, 245040, Note_on_c, 1, 76, 0
7, 245040, Note_on_c, 1, 78, 72
7, 245280, Note_on_c, 1, 78, 0
7, 245280, Note_on_c, 1, 79, 72
7, 245520, Note_on_c, 1, 79, 0
7, 245520, Note_on_c, 1, 81, 72
7, 245760, Note_on_c, 1, 81, 0
7, 245760, Note_on_c, 1, 82, 72
7, 246240, Note_on_c, 1, 82, 0
7, 246240, Note_on_c, 1, 83, 72
7, 246720, Note_on_c, 1, 83, 0
7, 246720, Note_on_c, 1, 84, 72
7, 247200, Note_on_c, 1, 84, 0
7, 247200, Note_on_c, 1, 85, 72
7, 247656, Note_on_c, 1, 85, 0
7, 247680, Note_on_c, 1, 86, 72
7, 250368, Note_on_c, 1, 86, 0
7, 250560, Note_on_c, 1, 79, 72
7, 250620, Note_on_c, 1, 79, 0
7, 250620, Note_on_c, 1, 78, 72
7, 250680, Note_on_c, 1, 78, 0
7, 250680, Note_on_c, 1, 79, 72
7, 250740, Note_on_c, 1, 79, 0
7, 250740, Note_on_c, 1, 78, 72
7, 250800, Note_on_c, 1, 78, 0
7, 250800, Note_on_c, 1, 79, 72
7, 250860, Note_on_c, 1, 79, 0
7, 250860, Note_on_c, 1, 78, 72
7, 250920, Note_on_c, 1, 78, 0
7, 250920, Note_on_c, 1, 79, 72
7, 250980, Note_on_c, 1, 79, 0
7, 250980, Note_on_c, 1, 78, 72
7, 251040, Note_on_c, 1, 78, 0
7, 251040, Note_on_c, 1, 79, 72
7, 251100, Note_on_c, 1, 79, 0
7, 251100, Note_on_c, 1, 78, 72
7, 251160, Note_on_c, 1, 78, 0
7, 251160, Note_on_c, 1, 79, 72
7, 251220, Note_on_c, 1, 79, 0
7, 251220, Note_on_c, 1, 78, 72
7, 251280, Note_on_c, 1, 78, 0
7, 251280, Note_on_c, 1, 76, 72
7, 251400, Note_on_c, 1, 76, 0
7, 251400, Note_on_c, 1, 78, 72
7, 251496, Note_on_c, 1, 78, 0
7, 251520, Note_on_c, 1, 79, 125
7, 251904, Note_on_c, 1, 79, 0
7, 252240, Note_on_c, 1, 74, 105
7, 252384, Note_on_c, 1, 74, 0
7, 252480, Note_on_c, 1, 79, 105
7, 252864, Note_on_c, 1, 79, 0
7, 253200, Note_on_c, 1, 74, 105
7, 253344, Note_on_c, 1, 74, 0
7, 253440, Note_on_c, 1, 79, 105
7, 253584, Note_on_c, 1, 79, 0
7, 253680, Note_on_c, 1, 74, 105
7, 253824, Note_on_c, 1, 74, 0
7, 253920, Note_on_c, 1, 79, 105
7, 254064, Note_on_c, 1, 79, 0
7, 254160, Note_on_c, 1, 83, 105
7, 254304, Note_on_c, 1, 83, 0
7, 254400, Note_on_c, 1, 86, 105
7, 254784, Note_on_c, 1, 86, 0
7, 255360, Note_on_c, 1, 84, 105
7, 255744, Note_on_c, 1, 84, 0
7, 256080, Note_on_c, 1, 81, 105
7, 256224, Note_on_c, 1, 81, 0
7, 256320, Note_on_c, 1, 84, 105
7, 256704, Note_on_c, 1, 84, 0
7, 257040, Note_on_c, 1, 81, 105
7, 257184, Note_on_c, 1, 81, 0
7, 257280, Note_on_c, 1, 84, 105
7, 257424, Note_on_c, 1, 84, 0
7, 257520, Note_on_c, 1, 81, 105
7, 257664, Note_on_c, 1, 81, 0
7, 257760, Note_on_c, 1, 78, 105
7, 257904, Note_on_c, 1, 78, 0
7, 258000, Note_on_c, 1, 81, 105
7, 258144, Note_on_c, 1, 81, 0
7, 258240, Note_on_c, 1, 74, 105
7, 258624, Note_on_c, 1, 74, 0
7, 259200, Note_on_c, 1, 79, 116
7, 259200, Note_on_c, 1, 71, 116
7, 259200, Note_on_c, 1, 62, 116
7, 259344, Note_on_c, 1, 79, 0
7, 259392, Note_on_c, 1, 62, 0
7, 259392, Note_on_c, 1, 71, 0
7, 259680, Note_on_c, 1, 79, 116
7, 260256, Note_on_c, 1, 79, 0
7, 260400, Note_on_c, 1, 83, 116
7, 260640, Note_on_c, 1, 83, 0
7, 260640, Note_on_c, 1, 81, 116
7, 260832, Note_on_c, 1, 81, 0
7, 260880, Note_on_c, 1, 79, 116
7, 261024, Note_on_c, 1, 79, 0
7, 261120, Note_on_c, 1, 81, 116
7, 261180, Note_on_c, 1, 81, 0
7, 261180, Note_on_c, 1, 79, 116
7, 261240, Note_on_c, 1, 79, 0
7, 261240, Note_on_c, 1, 81, 116
7, 261300, Note_on_c, 1, 81, 0
7, 261300, Note_on_c, 1, 79, 116
7, 261360, Note_on_c, 1, 79, 0
7, 261360, Note_on_c, 1, 78, 116
7, 261552, Note_on_c, 1, 78, 0
7, 261600, Note_on_c, 1, 78, 116
7, 262176, Note_on_c, 1, 78, 0
7, 262320, Note_on_c, 1, 81, 116
7, 262560, Note_on_c, 1, 81, 0
7, 262560, Note_on_c, 1, 84, 116
7, 262704, Note_on_c, 1, 84, 0
7, 262800, Note_on_c, 1, 78, 116
7, 262944, Note_on_c, 1, 78, 0
7, 263040, Note_on_c, 1, 81, 116
7, 263280, Note_on_c, 1, 81, 0
7, 263280, Note_on_c, 1, 79, 116
7, 263472, Note_on_c, 1, 79, 0
7, 263520, Note_on_c, 1, 79, 116
7, 264096, Note_on_c, 1, 79, 0
7, 264240, Note_on_c, 1, 83, 116
7, 264480, Note_on_c, 1, 83, 0
7, 264480, Note_on_c, 1, 81, 116
7, 264672, Note_on_c, 1, 81, 0
7, 264720, Note_on_c, 1, 79, 116
7, 264864, Note_on_c, 1, 79, 0
7, 264960, Note_on_c, 1, 81, 116
7, 265020, Note_on_c, 1, 81, 0
7, 265020, Note_on_c, 1, 79, 116
7, 265080, Note_on_c, 1, 79, 0
7, 265080, Note_on_c, 1, 81, 116
7, 265140, Note_on_c, 1, 81, 0
7, 265140, Note_on_c, 1, 79, 116
7, 265200, Note_on_c, 1, 79, 0
7, 265200, Note_on_c, 1, 78, 116
7, 265392, Note_on_c, 1, 78, 0
7, 265440, Note_on_c, 1, 78, 116
7, 266016, Note_on_c, 1, 78, 0
7, 266160, Note_on_c, 1, 81, 116
7, 266400, Note_on_c, 1, 81, 0
7, 266400, Note_on_c, 1, 84, 116
7, 266544, Note_on_c, 1, 84, 0
7, 266640, Note_on_c, 1, 78, 116
7, 266784, Note_on_c, 1, 78, 0
7, 266880, Note_on_c, 1, 79, 116
7, 267024, Note_on_c, 1, 79, 0
7, 267120, Note_on_c, 1, 79, 116
7, 267264, Note_on_c, 1, 79, 0
7, 267360, Note_on_c, 1, 79, 116
7, 267480, Note_on_c, 1, 79, 0
7, 267480, Note_on_c, 1, 78, 116
7, 267600, Note_on_c, 1, 78, 0
7, 267600, Note_on_c, 1, 76, 116
7, 267720, Note_on_c, 1, 76, 0
7, 267720, Note_on_c, 1, 78, 116
7, 267816, Note_on_c, 1, 78, 0
7, 267840, Note_on_c, 1, 79, 116
7, 267984, Note_on_c, 1, 79, 0
7, 268080, Note_on_c, 1, 79, 116
7, 268224, Note_on_c, 1, 79, 0
7, 268320, Note_on_c, 1, 83, 116
7, 268440, Note_on_c, 1, 83, 0
7, 268440, Note_on_c, 1, 81, 116
7, 268560, Note_on_c, 1, 81, 0
7, 268560, Note_on_c, 1, 79, 116
7, 268680, Note_on_c, 1, 79, 0
7, 268680, Note_on_c, 1, 81, 116
7, 268776, Note_on_c, 1, 81, 0
7, 268800, Note_on_c, 1, 83, 116
7, 268944, Note_on_c, 1, 83, 0
7, 269040, Note_on_c, 1, 83, 116
7, 269184, Note_on_c, 1, 83, 0
7, 269280, Note_on_c, 1, 86, 116
7, 269400, Note_on_c, 1, 86, 0
7, 269400, Note_on_c, 1, 84, 116
7, 269520, Note_on_c, 1, 84, 0
7, 269520, Note_on_c, 1, 83, 116
7, 269640, Note_on_c, 1, 83, 0
7, 269640, Note_on_c, 1, 84, 116
7, 269736, Note_on_c, 1, 84, 0
7, 269760, Note_on_c, 1, 86, 105
7, 270144, Note_on_c, 1, 86, 0
7, 270720, Note_on_c, 1, 74, 72
7, 271680, Note_on_c, 1, 74, 0
7, 271680, Note_on_c, 1, 76, 72
7, 272448, Note_on_c, 1, 76, 0
7, 272640, Note_on_c, 1, 74, 72
7, 272760, Note_on_c, 1, 74, 0
7, 272760, Note_on_c, 1, 72, 72
7, 272976, Note_on_c, 1, 72, 0
7, 273120, Note_on_c, 1, 72, 72
7, 273408, Note_on_c, 1, 72, 0
7, 273600, Note_on_c, 1, 72, 72
7, 273720, Note_on_c, 1, 72, 0
7, 273720, Note_on_c, 1, 71, 72
7, 273936, Note_on_c, 1, 71, 0
7, 274080, Note_on_c, 1, 71, 72
7, 274368, Note_on_c, 1, 71, 0
7, 274560, Note_on_c, 1, 71, 72
7, 274680, Note_on_c, 1, 71, 0
7, 274680, Note_on_c, 1, 69, 72
7, 274896, Note_on_c, 1, 69, 0
7, 275040, Note_on_c, 1, 69, 72
7, 275328, Note_on_c, 1, 69, 0
7, 275520, Note_on_c, 1, 67, 72
7, 275760, Note_on_c, 1, 67, 0
7, 275760, Note_on_c, 1, 66, 72
7, 275904, Note_on_c, 1, 66, 0
7, 276000, Note_on_c, 1, 64, 72
7, 276144, Note_on_c, 1, 64, 0
7, 276240, Note_on_c, 1, 66, 72
7, 276384, Note_on_c, 1, 66, 0
7, 276480, Note_on_c, 1, 67, 72
7, 276636, Note_on_c, 1, 67, 0
7, 276960, Note_on_c, 1, 69, 72
7, 277116, Note_on_c, 1, 69, 0
7, 277440, Note_on_c, 1, 71, 72
7, 277596, Note_on_c, 1, 71, 0
7, 278400, Note_on_c, 1, 74, 58
7, 279360, Note_on_c, 1, 74, 0
7, 279360, Note_on_c, 1, 76, 72
7, 280128, Note_on_c, 1, 76, 0
7, 280320, Note_on_c, 1, 74, 72
7, 280560, Note_on_c, 1, 74, 0
7, 280560, Note_on_c, 1, 72, 72
7, 280716, Note_on_c, 1, 72, 0
7, 280800, Note_on_c, 1, 72, 72
7, 280956, Note_on_c, 1, 72, 0
7, 281040, Note_on_c, 1, 72, 72
7, 281196, Note_on_c, 1, 72, 0
7, 281280, Note_on_c, 1, 72, 72
7, 281520, Note_on_c, 1, 72, 0
7, 281520, Note_on_c, 1, 71, 72
7, 281676, Note_on_c, 1, 71, 0
7, 281760, Note_on_c, 1, 71, 72
7, 281916, Note_on_c, 1, 71, 0
7, 282000, Note_on_c, 1, 71, 72
7, 282156, Note_on_c, 1, 71, 0
7, 282240, Note_on_c, 1, 71, 72
7, 282480, Note_on_c, 1, 71, 0
7, 282480, Note_on_c, 1, 69, 72
7, 282636, Note_on_c, 1, 69, 0
7, 282720, Note_on_c, 1, 69, 72
7, 282876, Note_on_c, 1, 69, 0
7, 282960, Note_on_c, 1, 69, 72
7, 283116, Note_on_c, 1, 69, 0
7, 283200, Note_on_c, 1, 67, 72
7, 283440, Note_on_c, 1, 67, 0
7, 283440, Note_on_c, 1, 66, 72
7, 283680, Note_on_c, 1, 66, 0
7, 283680, Note_on_c, 1, 64, 72
7, 283920, Note_on_c, 1, 64, 0
7, 283920, Note_on_c, 1, 66, 72
7, 284076, Note_on_c, 1, 66, 0
7, 284160, Note_on_c, 1, 55, 72
7, 284160, Note_on_c, 1, 67, 112
7, 285312, Note_on_c, 1, 67, 0
7, 285312, Note_on_c, 1, 55, 0
7, 285360, Note_on_c, 1, 69, 72
7, 285420, Note_on_c, 1, 69, 0
7, 285420, Note_on_c, 1, 67, 72
7, 285480, Note_on_c, 1, 67, 0
7, 285480, Note_on_c, 1, 66, 72
7, 285540, Note_on_c, 1, 66, 0
7, 285540, Note_on_c, 1, 67, 72
7, 285600, Note_on_c, 1, 67, 0
7, 285600, Note_on_c, 1, 69, 72
7, 285840, Note_on_c, 1, 69, 0
7, 285840, Note_on_c, 1, 66, 72
7, 286032, Note_on_c, 1, 66, 0
7, 286080, Note_on_c, 1, 71, 112
7, 287232, Note_on_c, 1, 71, 0
7, 287280, Note_on_c, 1, 72, 72
7, 287340, Note_on_c, 1, 72, 0
7, 287340, Note_on_c, 1, 71, 72
7, 287400, Note_on_c, 1, 71, 0
7, 287400, Note_on_c, 1, 69, 72
7, 287460, Note_on_c, 1, 69, 0
7, 287460, Note_on_c, 1, 71, 72
7, 287520, Note_on_c, 1, 71, 0
7, 287520, Note_on_c, 1, 72, 72
7, 287760, Note_on_c, 1, 72, 0
7, 287760, Note_on_c, 1, 69, 72
7, 287952, Note_on_c, 1, 69, 0
7, 288000, Note_on_c, 1, 74, 72
7, 288096, Note_on_c, 1, 74, 0
7, 288120, Note_on_c, 1, 74, 72
7, 288216, Note_on_c, 1, 74, 0
7, 288240, Note_on_c, 1, 74, 72
7, 288336, Note_on_c, 1, 74, 0
7, 288360, Note_on_c, 1, 74, 72
7, 288456, Note_on_c, 1, 74, 0
7, 288480, Note_on_c, 1, 74, 72
7, 288576, Note_on_c, 1, 74, 0
7, 288600, Note_on_c, 1, 74, 72
7, 288696, Note_on_c, 1, 74, 0
7, 288720, Note_on_c, 1, 74, 72
7, 288816, Note_on_c, 1, 74, 0
7, 288840, Note_on_c, 1, 74, 72
7, 288936, Note_on_c, 1, 74, 0
7, 288960, Note_on_c, 1, 76, 81
7, 289056, Note_on_c, 1, 76, 0
7, 289080, Note_on_c, 1, 76, 81
7, 289176, Note_on_c, 1, 76, 0
7, 289200, Note_on_c, 1, 76, 81
7, 289296, Note_on_c, 1, 76, 0
7, 289320, Note_on_c, 1, 76, 81
7, 289416, Note_on_c, 1, 76, 0
7, 289440, Note_on_c, 1, 78, 81
7, 289536, Note_on_c, 1, 78, 0
7, 289560, Note_on_c, 1, 78, 81
7, 289656, Note_on_c, 1, 78, 0
7, 289680, Note_on_c, 1, 78, 81
7, 289776, Note_on_c, 1, 78, 0
7, 289800, Note_on_c, 1, 78, 81
7, 289896, Note_on_c, 1, 78, 0
7, 289920, Note_on_c, 1, 79, 92
7, 290016, Note_on_c, 1, 79, 0
7, 290040, Note_on_c, 1, 79, 92
7, 290136, Note_on_c, 1, 79, 0
7, 290160, Note_on_c, 1, 79, 92
7, 290256, Note_on_c, 1, 79, 0
7, 290280, Note_on_c, 1, 79, 92
7, 290376, Note_on_c, 1, 79, 0
7, 290400, Note_on_c, 1, 81, 92
7, 290496, Note_on_c, 1, 81, 0
7, 290520, Note_on_c, 1, 81, 92
7, 290616, Note_on_c, 1, 81, 0
7, 290640, Note_on_c, 1, 81, 92
7, 290736, Note_on_c, 1, 81, 0
7, 290760, Note_on_c, 1, 81, 92
7, 290856, Note_on_c, 1, 81, 0
7, 290880, Note_on_c, 1, 83, 105
7, 290976, Note_on_c, 1, 83, 0
7, 291000, Note_on_c, 1, 83, 105
7, 291096, Note_on_c, 1, 83, 0
7, 291120, Note_on_c, 1, 83, 105
7, 291216, Note_on_c, 1, 83, 0
7, 291240, Note_on_c, 1, 83, 105
7, 291336, Note_on_c, 1, 83, 0
7, 291360, Note_on_c, 1, 85, 105
7, 291456, Note_on_c, 1, 85, 0
7, 291480, Note_on_c, 1, 85, 116
7, 291576, Note_on_c, 1, 85, 0
7, 291600, Note_on_c, 1, 85, 116
7, 291696, Note_on_c, 1, 85, 0
7, 291720, Note_on_c, 1, 85, 116
7, 291816, Note_on_c, 1, 85, 0
7, 291840, Note_on_c, 1, 86, 127
7, 292560, Note_on_c, 1, 86, 0
7, 292560, Note_on_c, 1, 81, 116
7, 292752, Note_on_c, 1, 81, 0
7, 292800, Note_on_c, 1, 85, 116
7, 293160, Note_on_c, 1, 85, 0
7, 293160, Note_on_c, 1, 81, 116
7, 293256, Note_on_c, 1, 81, 0
7, 293280, Note_on_c, 1, 85, 116
7, 293640, Note_on_c, 1, 85, 0
7, 293640, Note_on_c, 1, 81, 116
7, 293736, Note_on_c, 1, 81, 0
7, 293760, Note_on_c, 1, 86, 127
7, 294480, Note_on_c, 1, 86, 0
7, 294480, Note_on_c, 1, 81, 116
7, 294672, Note_on_c, 1, 81, 0
7, 294720, Note_on_c, 1, 85, 116
7, 295080, Note_on_c, 1, 85, 0
7, 295080, Note_on_c, 1, 81, 116
7, 295176, Note_on_c, 1, 81, 0
7, 295200, Note_on_c, 1, 85, 116
7, 295560, Note_on_c, 1, 85, 0
7, 295560, Note_on_c, 1, 81, 116
7, 295656, Note_on_c, 1, 81, 0
7, 295680, Note_on_c, 1, 86, 116
7, 295836, Note_on_c, 1, 86, 0
7, 295920, Note_on_c, 1, 81, 116
7, 296076, Note_on_c, 1, 81, 0
7, 296160, Note_on_c, 1, 85, 116
7, 296316, Note_on_c, 1, 85, 0
7, 296400, Note_on_c, 1, 81, 116
7, 296556, Note_on_c, 1, 81, 0
7, 296640, Note_on_c, 1, 86, 116
7, 296796, Note_on_c, 1, 86, 0
7, 296880, Note_on_c, 1, 81, 116
7, 297036, Note_on_c, 1, 81, 0
7, 297120, Note_on_c, 1, 85, 116
7, 297276, Note_on_c, 1, 85, 0
7, 297360, Note_on_c, 1, 81, 116
7, 297516, Note_on_c, 1, 81, 0
7, 297600, Note_on_c, 1, 86, 116
7, 297756, Note_on_c, 1, 86, 0
7, 297840, Note_on_c, 1, 62, 116
7, 297996, Note_on_c, 1, 62, 0
7, 298080, Note_on_c, 1, 62, 105
7, 298236, Note_on_c, 1, 62, 0
7, 298320, Note_on_c, 1, 62, 105
7, 298476, Note_on_c, 1, 62, 0
7, 298560, Note_on_c, 1, 62, 92
7, 298944, Note_on_c, 1, 62, 0
7, 299520, Note_on_c, 1, 74, 72
7, 300240, Note_on_c, 1, 74, 0
7, 300240, Note_on_c, 1, 72, 72
7, 300320, Note_on_c, 1, 72, 0
7, 300320, Note_on_c, 1, 71, 72
7, 300400, Note_on_c, 1, 71, 0
7, 300400, Note_on_c, 1, 69, 72
7, 300480, Note_on_c, 1, 69, 0
7, 300480, Note_on_c, 1, 67, 72
7, 300672, Note_on_c, 1, 67, 0
7, 300960, Note_on_c, 1, 76, 72
7, 301152, Note_on_c, 1, 76, 0
7, 301440, Note_on_c, 1, 72, 72
7, 301632, Note_on_c, 1, 72, 0
7, 301920, Note_on_c, 1, 69, 72
7, 302112, Note_on_c, 1, 69, 0
7, 302400, Note_on_c, 1, 74, 72
7, 302592, Note_on_c, 1, 74, 0
7, 303360, Note_on_c, 1, 83, 72
7, 304080, Note_on_c, 1, 83, 0
7, 304080, Note_on_c, 1, 81, 72
7, 304160, Note_on_c, 1, 81, 0
7, 304160, Note_on_c, 1, 79, 72
7, 304240, Note_on_c, 1, 79, 0
7, 304240, Note_on_c, 1, 78, 72
7, 304320, Note_on_c, 1, 78, 0
7, 304320, Note_on_c, 1, 76, 72
7, 304512, Note_on_c, 1, 76, 0
7, 304800, Note_on_c, 1, 84, 72
7, 304992, Note_on_c, 1, 84, 0
7, 305280, Note_on_c, 1, 83, 72
7, 306240, Note_on_c, 1, 83, 0
7, 306240, Note_on_c, 1, 81, 72
7, 306624, Note_on_c, 1, 81, 0
7, 307440, Note_on_c, 1, 86, 72
7, 307584, Note_on_c, 1, 86, 0
7, 307680, Note_on_c, 1, 86, 72
7, 307824, Note_on_c, 1, 86, 0
7, 307920, Note_on_c, 1, 86, 72
7, 308064, Note_on_c, 1, 86, 0
7, 308160, Note_on_c, 1, 86, 72
7, 308304, Note_on_c, 1, 86, 0
7, 308400, Note_on_c, 1, 86, 72
7, 308544, Note_on_c, 1, 86, 0
7, 308640, Note_on_c, 1, 86, 72
7, 308784, Note_on_c, 1, 86, 0
7, 308880, Note_on_c, 1, 86, 72
7, 309024, Note_on_c, 1, 86, 0
7, 309120, Note_on_c, 1, 86, 72
7, 309264, Note_on_c, 1, 86, 0
7, 309360, Note_on_c, 1, 86, 72
7, 309504, Note_on_c, 1, 86, 0
7, 309600, Note_on_c, 1, 86, 72
7, 309744, Note_on_c, 1, 86, 0
7, 309840, Note_on_c, 1, 86, 72
7, 309984, Note_on_c, 1, 86, 0
7, 310080, Note_on_c, 1, 86, 72
7, 310320, Note_on_c, 1, 86, 0
7, 310320, Note_on_c, 1, 84, 72
7, 310560, Note_on_c, 1, 84, 0
7, 310560, Note_on_c, 1, 81, 72
7, 310800, Note_on_c, 1, 81, 0
7, 310800, Note_on_c, 1, 78, 72
7, 310992, Note_on_c, 1, 78, 0
7, 311040, Note_on_c, 1, 78, 72
7, 311280, Note_on_c, 1, 78, 0
7, 311280, Note_on_c, 1, 79, 72
7, 311472, Note_on_c, 1, 79, 0
7, 311760, Note_on_c, 1, 76, 72
7, 311904, Note_on_c, 1, 76, 0
7, 312000, Note_on_c, 1, 76, 72
7, 312240, Note_on_c, 1, 76, 0
7, 312240, Note_on_c, 1, 74, 72
7, 312432, Note_on_c, 1, 74, 0
7, 312720, Note_on_c, 1, 66, 72
7, 312864, Note_on_c, 1, 66, 0
7, 312960, Note_on_c, 1, 67, 58
7, 313344, Note_on_c, 1, 67, 0
7, 313680, Note_on_c, 1, 74, 72
7, 313824, Note_on_c, 1, 74, 0
7, 313920, Note_on_c, 1, 79, 72
7, 314160, Note_on_c, 1, 79, 0
7, 314160, Note_on_c, 1, 78, 72
7, 314400, Note_on_c, 1, 78, 0
7, 314400, Note_on_c, 1, 76, 72
7, 314640, Note_on_c, 1, 76, 0
7, 314640, Note_on_c, 1, 74, 72
7, 314832, Note_on_c, 1, 74, 0
7, 314880, Note_on_c, 1, 78, 72
7, 314940, Note_on_c, 1, 78, 0
7, 314940, Note_on_c, 1, 76, 72
7, 315000, Note_on_c, 1, 76, 0
7, 315000, Note_on_c, 1, 78, 72
7, 315060, Note_on_c, 1, 78, 0
7, 315060, Note_on_c, 1, 76, 72
7, 315120, Note_on_c, 1, 76, 0
7, 315120, Note_on_c, 1, 74, 72
7, 315312, Note_on_c, 1, 74, 0
7, 315600, Note_on_c, 1, 74, 72
7, 315744, Note_on_c, 1, 74, 0
7, 315840, Note_on_c, 1, 74, 72
7, 315984, Note_on_c, 1, 74, 0
7, 316080, Note_on_c, 1, 74, 72
7, 316224, Note_on_c, 1, 74, 0
7, 316320, Note_on_c, 1, 74, 72
7, 316464, Note_on_c, 1, 74, 0
7, 316560, Note_on_c, 1, 74, 72
7, 316704, Note_on_c, 1, 74, 0
7, 316800, Note_on_c, 1, 78, 72
7, 316860, Note_on_c, 1, 78, 0
7, 316860, Note_on_c, 1, 76, 72
7, 316920, Note_on_c, 1, 76, 0
7, 316920, Note_on_c, 1, 78, 72
7, 316980, Note_on_c, 1, 78, 0
7, 316980, Note_on_c, 1, 76, 72
7, 317040, Note_on_c, 1, 76, 0
7, 317040, Note_on_c, 1, 74, 72
7, 317232, Note_on_c, 1, 74, 0
7, 317520, Note_on_c, 1, 74, 72
7, 317664, Note_on_c, 1, 74, 0
7, 317760, Note_on_c, 1, 79, 72
7, 318000, Note_on_c, 1, 79, 0
7, 318000, Note_on_c, 1, 78, 72
7, 318240, Note_on_c, 1, 78, 0
7, 318240, Note_on_c, 1, 76, 72
7, 318480, Note_on_c, 1, 76, 0
7, 318480, Note_on_c, 1, 74, 72
7, 318672, Note_on_c, 1, 74, 0
7, 318720, Note_on_c, 1, 78, 72
7, 318780, Note_on_c, 1, 78, 0
7, 318780, Note_on_c, 1, 76, 72
7, 318840, Note_on_c, 1, 76, 0
7, 318840, Note_on_c, 1, 78, 72
7, 318900, Note_on_c, 1, 78, 0
7, 318900, Note_on_c, 1, 76, 72
7, 318960, Note_on_c, 1, 76, 0
7, 318960, Note_on_c, 1, 74, 72
7, 319152, Note_on_c, 1, 74, 0
7, 319440, Note_on_c, 1, 74, 72
7, 319584, Note_on_c, 1, 74, 0
7, 319680, Note_on_c, 1, 74, 72
7, 319824, Note_on_c, 1, 74, 0
7, 319920, Note_on_c, 1, 74, 72
7, 320064, Note_on_c, 1, 74, 0
7, 320160, Note_on_c, 1, 74, 72
7, 320304, Note_on_c, 1, 74, 0
7, 320400, Note_on_c, 1, 74, 72
7, 320544, Note_on_c, 1, 74, 0
7, 320640, Note_on_c, 1, 78, 72
7, 320700, Note_on_c, 1, 78, 0
7, 320700, Note_on_c, 1, 76, 72
7, 320760, Note_on_c, 1, 76, 0
7, 320760, Note_on_c, 1, 78, 72
7, 320820, Note_on_c, 1, 78, 0
7, 320820, Note_on_c, 1, 76, 58
7, 320880, Note_on_c, 1, 76, 0
7, 320880, Note_on_c, 1, 74, 58
7, 321072, Note_on_c, 1, 74, 0
7, 321600, Note_on_c, 1, 76, 116
7, 321600, Note_on_c, 1, 64, 116
7, 322320, Note_on_c, 1, 64, 0
7, 322320, Note_on_c, 1, 76, 0
7, 322320, Note_on_c, 1, 74, 116
7, 322400, Note_on_c, 1, 74, 0
7, 322400, Note_on_c, 1, 72, 116
7, 322480, Note_on_c, 1, 72, 0
7, 322480, Note_on_c, 1, 71, 116
7, 322560, Note_on_c, 1, 71, 0
7, 322560, Note_on_c, 1, 72, 116
7, 322944, Note_on_c, 1, 72, 0
7, 323520, Note_on_c, 1, 74, 116
7, 323520, Note_on_c, 1, 62, 116
7, 324240, Note_on_c, 1, 62, 0
7, 324240, Note_on_c, 1, 74, 0
7, 324240, Note_on_c, 1, 72, 116
7, 324320, Note_on_c, 1, 72, 0
7, 324320, Note_on_c, 1, 71, 116
7, 324400, Note_on_c, 1, 71, 0
7, 324400, Note_on_c, 1, 69, 116
7, 324480, Note_on_c, 1, 69, 0
7, 324480, Note_on_c, 1, 71, 116
7, 324864, Note_on_c, 1, 71, 0
7, 325440, Note_on_c, 1, 76, 116
7, 325680, Note_on_c, 1, 76, 0
7, 325680, Note_on_c, 1, 78, 116
7, 325800, Note_on_c, 1, 78, 0
7, 325800, Note_on_c, 1, 79, 116
7, 325920, Note_on_c, 1, 79, 0
7, 325920, Note_on_c, 1, 78, 116
7, 326064, Note_on_c, 1, 78, 0
7, 326160, Note_on_c, 1, 76, 116
7, 326304, Note_on_c, 1, 76, 0
7, 326400, Note_on_c, 1, 76, 116
7, 326640, Note_on_c, 1, 76, 0
7, 326640, Note_on_c, 1, 74, 116
7, 326796, Note_on_c, 1, 74, 0
7, 326880, Note_on_c, 1, 71, 116
7, 327036, Note_on_c, 1, 71, 0
7, 327120, Note_on_c, 1, 74, 116
7, 327276, Note_on_c, 1, 74, 0
7, 327360, Note_on_c, 1, 74, 116
7, 327600, Note_on_c, 1, 74, 0
7, 327600, Note_on_c, 1, 72, 116
7, 327756, Note_on_c, 1, 72, 0
7, 327840, Note_on_c, 1, 71, 116
7, 327996, Note_on_c, 1, 71, 0
7, 328080, Note_on_c, 1, 69, 116
7, 328236, Note_on_c, 1, 69, 0
7, 328320, Note_on_c, 1, 67, 92
7, 328704, Note_on_c, 1, 67, 0
7, 329040, Note_on_c, 1, 74, 72
7, 329184, Note_on_c, 1, 74, 0
7, 329280, Note_on_c, 1, 79, 72
7, 329520, Note_on_c, 1, 79, 0
7, 329520, Note_on_c, 1, 78, 72
7, 329760, Note_on_c, 1, 78, 0
7, 329760, Note_on_c, 1, 76, 72
7, 330000, Note_on_c, 1, 76, 0
7, 330000, Note_on_c, 1, 74, 72
7, 330192, Note_on_c, 1, 74, 0
7, 330240, Note_on_c, 1, 78, 72
7, 330300, Note_on_c, 1, 78, 0
7, 330300, Note_on_c, 1, 76, 72
7, 330360, Note_on_c, 1, 76, 0
7, 330360, Note_on_c, 1, 78, 72
7, 330420, Note_on_c, 1, 78, 0
7, 330420, Note_on_c, 1, 76, 72
7, 330480, Note_on_c, 1, 76, 0
7, 330480, Note_on_c, 1, 74, 72
7, 330672, Note_on_c, 1, 74, 0
7, 330960, Note_on_c, 1, 74, 72
7, 331104, Note_on_c, 1, 74, 0
7, 331200, Note_on_c, 1, 74, 72
7, 331344, Note_on_c, 1, 74, 0
7, 331440, Note_on_c, 1, 74, 72
7, 331584, Note_on_c, 1, 74, 0
7, 331680, Note_on_c, 1, 74, 72
7, 331824, Note_on_c, 1, 74, 0
7, 331920, Note_on_c, 1, 74, 72
7, 332064, Note_on_c, 1, 74, 0
7, 332160, Note_on_c, 1, 78, 72
7, 332220, Note_on_c, 1, 78, 0
7, 332220, Note_on_c, 1, 76, 72
7, 332280, Note_on_c, 1, 76, 0
7, 332280, Note_on_c, 1, 78, 72
7, 332340, Note_on_c, 1, 78, 0
7, 332340, Note_on_c, 1, 76, 72
7, 332400, Note_on_c, 1, 76, 0
7, 332400, Note_on_c, 1, 74, 72
7, 332592, Note_on_c, 1, 74, 0
7, 332880, Note_on_c, 1, 74, 72
7, 333024, Note_on_c, 1, 74, 0
7, 333120, Note_on_c, 1, 79, 72
7, 333360, Note_on_c, 1, 79, 0
7, 333360, Note_on_c, 1, 78, 72
7, 333600, Note_on_c, 1, 78, 0
7, 333600, Note_on_c, 1, 76, 72
7, 333840, Note_on_c, 1, 76, 0
7, 333840, Note_on_c, 1, 74, 72
7, 334032, Note_on_c, 1, 74, 0
7, 334080, Note_on_c, 1, 78, 72
7, 334140, Note_on_c, 1, 78, 0
7, 334140, Note_on_c, 1, 76, 72
7, 334200, Note_on_c, 1, 76, 0
7, 334200, Note_on_c, 1, 78, 72
7, 334260, Note_on_c, 1, 78, 0
7, 334260, Note_on_c, 1, 76, 72
7, 334320, Note_on_c, 1, 76, 0
7, 334320, Note_on_c, 1, 74, 72
7, 334512, Note_on_c, 1, 74, 0
7, 334800, Note_on_c, 1, 74, 72
7, 334944, Note_on_c, 1, 74, 0
7, 335040, Note_on_c, 1, 74, 72
7, 335184, Note_on_c, 1, 74, 0
7, 335280, Note_on_c, 1, 74, 72
7, 335424, Note_on_c, 1, 74, 0
7, 335520, Note_on_c, 1, 74, 72
7, 335664, Note_on_c, 1, 74, 0
7, 335760, Note_on_c, 1, 74, 72
7, 335904, Note_on_c, 1, 74, 0
7, 336000, Note_on_c, 1, 78, 72
7, 336060, Note_on_c, 1, 78, 0
7, 336060, Note_on_c, 1, 76, 72
7, 336120, Note_on_c, 1, 76, 0
7, 336120, Note_on_c, 1, 78, 72
7, 336180, Note_on_c, 1, 78, 0
7, 336180, Note_on_c, 1, 76, 58
7, 336240, Note_on_c, 1, 76, 0
7, 336240, Note_on_c, 1, 74, 58
7, 336432, Note_on_c, 1, 74, 0
7, 336960, Note_on_c, 1, 88, 105
7, 337680, Note_on_c, 1, 88, 0
7, 337680, Note_on_c, 1, 86, 105
7, 337760, Note_on_c, 1, 86, 0
7, 337760, Note_on_c, 1, 84, 105
7, 337840, Note_on_c, 1, 84, 0
7, 337840, Note_on_c, 1, 83, 105
7, 337920, Note_on_c, 1, 83, 0
7, 337920, Note_on_c, 1, 84, 105
7, 338304, Note_on_c, 1, 84, 0
7, 338880, Note_on_c, 1, 86, 105
7, 338880, Note_on_c, 1, 74, 105
7, 339600, Note_on_c, 1, 74, 0
7, 339600, Note_on_c, 1, 86, 0
7, 339600, Note_on_c, 1, 84, 105
7, 339680, Note_on_c, 1, 84, 0
7, 339680, Note_on_c, 1, 83, 105
7, 339760, Note_on_c, 1, 83, 0
7, 339760, Note_on_c, 1, 81, 105
7, 339840, Note_on_c, 1, 81, 0
7, 339840, Note_on_c, 1, 83, 105
7, 340224, Note_on_c, 1, 83, 0
7, 340800, Note_on_c, 1, 76, 105
7, 341040, Note_on_c, 1, 76, 0
7, 341040, Note_on_c, 1, 78, 105
7, 341160, Note_on_c, 1, 78, 0
7, 341160, Note_on_c, 1, 79, 105
7, 341280, Note_on_c, 1, 79, 0
7, 341280, Note_on_c, 1, 78, 105
7, 341424, Note_on_c, 1, 78, 0
7, 341520, Note_on_c, 1, 76, 105
7, 341664, Note_on_c, 1, 76, 0
7, 341760, Note_on_c, 1, 74, 105
7, 342000, Note_on_c, 1, 74, 0
7, 342000, Note_on_c, 1, 79, 105
7, 342156, Note_on_c, 1, 79, 0
7, 342240, Note_on_c, 1, 83, 105
7, 342396, Note_on_c, 1, 83, 0
7, 342480, Note_on_c, 1, 86, 105
7, 342636, Note_on_c, 1, 86, 0
7, 342720, Note_on_c, 1, 86, 105
7, 342960, Note_on_c, 1, 86, 0
7, 342960, Note_on_c, 1, 84, 105
7, 343116, Note_on_c, 1, 84, 0
7, 343200, Note_on_c, 1, 83, 105
7, 343356, Note_on_c, 1, 83, 0
7, 343440, Note_on_c, 1, 81, 105
7, 343596, Note_on_c, 1, 81, 0
7, 343680, Note_on_c, 1, 79, 105
7, 343836, Note_on_c, 1, 79, 0
7, 343920, Note_on_c, 1, 62, 105
7, 344076, Note_on_c, 1, 62, 0
7, 344160, Note_on_c, 1, 64, 105
7, 344316, Note_on_c, 1, 64, 0
7, 344400, Note_on_c, 1, 66, 105
7, 344556, Note_on_c, 1, 66, 0
7, 344640, Note_on_c, 1, 67, 105
7, 344796, Note_on_c, 1, 67, 0
7, 344880, Note_on_c, 1, 67, 105
7, 345036, Note_on_c, 1, 67, 0
7, 345120, Note_on_c, 1, 71, 105
7, 345168, Note_on_c, 1, 71, 0
7, 345180, Note_on_c, 1, 69, 105
7, 345240, Note_on_c, 1, 69, 0
7, 345240, Note_on_c, 1, 71, 105
7, 345300, Note_on_c, 1, 71, 0
7, 345300, Note_on_c, 1, 69, 105
7, 345360, Note_on_c, 1, 69, 0
7, 345360, Note_on_c, 1, 67, 105
7, 345480, Note_on_c, 1, 67, 0
7, 345480, Note_on_c, 1, 69, 105
7, 345600, Note_on_c, 1, 69, 0
7, 345600, Note_on_c, 1, 71, 105
7, 345756, Note_on_c, 1, 71, 0
7, 345840, Note_on_c, 1, 66, 105
7, 345996, Note_on_c, 1, 66, 0
7, 346080, Note_on_c, 1, 67, 105
7, 346236, Note_on_c, 1, 67, 0
7, 346320, Note_on_c, 1, 69, 105
7, 346476, Note_on_c, 1, 69, 0
7, 346560, Note_on_c, 1, 71, 105
7, 346716, Note_on_c, 1, 71, 0
7, 346800, Note_on_c, 1, 71, 105
7, 346956, Note_on_c, 1, 71, 0
7, 347040, Note_on_c, 1, 74, 105
7, 347100, Note_on_c, 1, 74, 0
7, 347100, Note_on_c, 1, 72, 105
7, 347160, Note_on_c, 1, 72, 0
7, 347160, Note_on_c, 1, 74, 105
7, 347220, Note_on_c, 1, 74, 0
7, 347220, Note_on_c, 1, 72, 105
7, 347280, Note_on_c, 1, 72, 0
7, 347280, Note_on_c, 1, 71, 105
7, 347400, Note_on_c, 1, 71, 0
7, 347400, Note_on_c, 1, 72, 105
7, 347520, Note_on_c, 1, 72, 0
7, 347520, Note_on_c, 1, 74, 105
7, 347676, Note_on_c, 1, 74, 0
7, 347760, Note_on_c, 1, 74, 105
7, 347916, Note_on_c, 1, 74, 0
7, 348000, Note_on_c, 1, 76, 105
7, 348060, Note_on_c, 1, 76, 0
7, 348060, Note_on_c, 1, 75, 105
7, 348120, Note_on_c, 1, 75, 0
7, 348120, Note_on_c, 1, 76, 105
7, 348180, Note_on_c, 1, 76, 0
7, 348180, Note_on_c, 1, 75, 105
7, 348240, Note_on_c, 1, 75, 0
7, 348240, Note_on_c, 1, 73, 105
7, 348360, Note_on_c, 1, 73, 0
7, 348360, Note_on_c, 1, 75, 105
7, 348480, Note_on_c, 1, 75, 0
7, 348480, Note_on_c, 1, 76, 105
7, 348864, Note_on_c, 1, 76, 0
7, 349440, Note_on_c, 1, 64, 72
7, 350160, Note_on_c, 1, 64, 0
7, 350160, Note_on_c, 1, 69, 72
7, 350352, Note_on_c, 1, 69, 0
7, 350400, Note_on_c, 1, 67, 72
7, 350640, Note_on_c, 1, 67, 0
7, 350640, Note_on_c, 1, 66, 72
7, 350880, Note_on_c, 1, 66, 0
7, 350880, Note_on_c, 1, 64, 72
7, 351120, Note_on_c, 1, 64, 0
7, 351120, Note_on_c, 1, 62, 72
7, 351312, Note_on_c, 1, 62, 0
7, 351360, Note_on_c, 1, 74, 72
7, 351600, Note_on_c, 1, 74, 0
7, 351600, Note_on_c, 1, 73, 72
7, 351840, Note_on_c, 1, 73, 0
7, 351840, Note_on_c, 1, 72, 72
7, 352080, Note_on_c, 1, 72, 0
7, 352080, Note_on_c, 1, 71, 72
7, 352272, Note_on_c, 1, 71, 0
7, 352320, Note_on_c, 1, 74, 72
7, 352560, Note_on_c, 1, 74, 0
7, 352560, Note_on_c, 1, 73, 72
7, 352800, Note_on_c, 1, 73, 0
7, 352800, Note_on_c, 1, 72, 72
7, 353040, Note_on_c, 1, 72, 0
7, 353040, Note_on_c, 1, 71, 72
7, 353232, Note_on_c, 1, 71, 0
7, 353280, Note_on_c, 1, 64, 72
7, 354000, Note_on_c, 1, 64, 0
7, 354000, Note_on_c, 1, 69, 72
7, 354192, Note_on_c, 1, 69, 0
7, 354240, Note_on_c, 1, 67, 72
7, 354480, Note_on_c, 1, 67, 0
7, 354480, Note_on_c, 1, 66, 72
7, 354720, Note_on_c, 1, 66, 0
7, 354720, Note_on_c, 1, 64, 72
7, 354960, Note_on_c, 1, 64, 0
7, 354960, Note_on_c, 1, 62, 72
7, 355152, Note_on_c, 1, 62, 0
7, 355200, Note_on_c, 1, 74, 72
7, 355440, Note_on_c, 1, 74, 0
7, 355440, Note_on_c, 1, 76, 72
7, 355680, Note_on_c, 1, 76, 0
7, 355680, Note_on_c, 1, 78, 72
7, 355920, Note_on_c, 1, 78, 0
7, 355920, Note_on_c, 1, 79, 72
7, 356112, Note_on_c, 1, 79, 0
7, 356160, Note_on_c, 1, 74, 72
7, 356400, Note_on_c, 1, 74, 0
7, 356400, Note_on_c, 1, 76, 72
7, 356640, Note_on_c, 1, 76, 0
7, 356640, Note_on_c, 1, 78, 72
7, 356880, Note_on_c, 1, 78, 0
7, 356880, Note_on_c, 1, 79, 72
7, 357072, Note_on_c, 1, 79, 0
7, 357120, Note_on_c, 1, 81, 58
7, 357504, Note_on_c, 1, 81, 0
7, 358080, Note_on_c, 1, 86, 105
7, 358080, Note_on_c, 1, 62, 105
7, 358080, Note_on_c, 1, 74, 105
7, 358464, Note_on_c, 1, 74, 0
7, 358464, Note_on_c, 1, 62, 0
7, 358464, Note_on_c, 1, 86, 0
7, 359040, Note_on_c, 1, 62, 116
7, 359040, Note_on_c, 1, 71, 116
7, 359040, Note_on_c, 1, 79, 116
7, 359424, Note_on_c, 1, 79, 0
7, 359424, Note_on_c, 1, 71, 0
7, 359424, Note_on_c, 1, 62, 0
7, 359760, Note_on_c, 1, 74, 116
7, 359916, Note_on_c, 1, 74, 0
7, 360000, Note_on_c, 1, 71, 116
7, 360156, Note_on_c, 1, 71, 0
7, 360240, Note_on_c, 1, 67, 116
7, 360396, Note_on_c, 1, 67, 0
7, 360480, Note_on_c, 1, 71, 116
7, 360636, Note_on_c, 1, 71, 0
7, 360720, Note_on_c, 1, 74, 116
7, 360876, Note_on_c, 1, 74, 0
7, 360960, Note_on_c, 1, 79, 116
7, 361116, Note_on_c, 1, 79, 0
7, 361200, Note_on_c, 1, 74, 116
7, 361356, Note_on_c, 1, 74, 0
7, 361440, Note_on_c, 1, 79, 116
7, 361596, Note_on_c, 1, 79, 0
7, 361680, Note_on_c, 1, 83, 116
7, 361836, Note_on_c, 1, 83, 0
7, 361920, Note_on_c, 1, 86, 116
7, 362232, Note_on_c, 1, 86, 0
7, 362400, Note_on_c, 1, 62, 116
7, 362400, Note_on_c, 1, 78, 116
7, 362400, Note_on_c, 1, 69, 116
7, 362712, Note_on_c, 1, 69, 0
7, 362712, Note_on_c, 1, 78, 0
7, 362712, Note_on_c, 1, 62, 0
7, 362880, Note_on_c, 1, 79, 116
7, 362880, Note_on_c, 1, 62, 116
7, 362880, Note_on_c, 1, 71, 116
7, 363264, Note_on_c, 1, 71, 0
7, 363264, Note_on_c, 1, 62, 0
7, 363264, Note_on_c, 1, 79, 0
7, 363600, Note_on_c, 1, 74, 116
7, 363756, Note_on_c, 1, 74, 0
7, 363840, Note_on_c, 1, 71, 116
7, 363996, Note_on_c, 1, 71, 0
7, 364080, Note_on_c, 1, 67, 116
7, 364236, Note_on_c, 1, 67, 0
7, 364320, Note_on_c, 1, 71, 116
7, 364476, Note_on_c, 1, 71, 0
7, 364560, Note_on_c, 1, 74, 116
7, 364716, Note_on_c, 1, 74, 0
7, 364800, Note_on_c, 1, 79, 116
7, 364956, Note_on_c, 1, 79, 0
7, 365040, Note_on_c, 1, 74, 116
7, 365196, Note_on_c, 1, 74, 0
7, 365280, Note_on_c, 1, 79, 116
7, 365436, Note_on_c, 1, 79, 0
7, 365520, Note_on_c, 1, 83, 116
7, 365676, Note_on_c, 1, 83, 0
7, 365760, Note_on_c, 1, 86, 116
7, 366072, Note_on_c, 1, 86, 0
7, 366240, Note_on_c, 1, 62, 116
7, 366240, Note_on_c, 1, 69, 116
7, 366240, Note_on_c, 1, 78, 116
7, 366552, Note_on_c, 1, 78, 0
7, 366552, Note_on_c, 1, 69, 0
7, 366552, Note_on_c, 1, 62, 0
7, 366720, Note_on_c, 1, 71, 116
7, 366720, Note_on_c, 1, 62, 116
7, 366720, Note_on_c, 1, 79, 116
7, 367104, Note_on_c, 1, 79, 0
7, 367104, Note_on_c, 1, 62, 0
7, 367104, Note_on_c, 1, 71, 0
7, 367680, Note_on_c, 1, 62, 105
7, 367680, Note_on_c, 1, 79, 105
7, 367680, Note_on_c, 1, 71, 105
7, 368064, Note_on_c, 1, 71, 0
7, 368064, Note_on_c, 1, 79, 0
7, 368064, Note_on_c, 1, 62, 0
7, 368640, Note_on_c, 1, 62, 105
7, 368640, Note_on_c, 1, 71, 105
7, 368640, Note_on_c, 1, 79, 105
7, 368952, Note_on_c, 1, 79, 0
7, 368952, Note_on_c, 1, 71, 0
7, 368952, Note_on_c, 1, 62, 0
7, 369120, Note_on_c, 1, 55, 105
7, 369120, Note_on_c, 1, 67, 105
7, 369354, Note_on_c, 1, 67, 0
7, 369354, Note_on_c, 1, 55, 0
7, 369480, Note_on_c, 1, 67, 105
7, 369480, Note_on_c, 1, 55, 105
7, 369558, Note_on_c, 1, 55, 0
7, 369558, Note_on_c, 1, 67, 0
7, 369600, Note_on_c, 1, 67, 105
7, 369600, Note_on_c, 1, 55, 105
7, 369984, Note_on_c, 1, 55, 0
7, 369984, Note_on_c, 1, 67, 0
7, 369984, End_track
8, 0, Start_track
8, 0, Program_c, 2, 40
8, 0, Control_c, 2, 7, 81
8, 0, Control_c, 2, 10, 97
8, 0, Control_c, 2, 91, 85
8, 1920, Note_on_c, 2, 71, 105
8, 1920, Note_on_c, 2, 79, 105
8, 1920, Note_on_c, 2, 62, 105
8, 2304, Note_on_c, 2, 62, 0
8, 2304, Note_on_c, 2, 79, 0
8, 2304, Note_on_c, 2, 71, 0
8, 2640, Note_on_c, 2, 74, 92
8, 2784, Note_on_c, 2, 74, 0
8, 2880, Note_on_c, 2, 79, 92
8, 3264, Note_on_c, 2, 79, 0
8, 3600, Note_on_c, 2, 74, 92
8, 3744, Note_on_c, 2, 74, 0
8, 3840, Note_on_c, 2, 79, 92
8, 3984, Note_on_c, 2, 79, 0
8, 4080, Note_on_c, 2, 74, 92
8, 4224, Note_on_c, 2, 74, 0
8, 4320, Note_on_c, 2, 79, 92
8, 4464, Note_on_c, 2, 79, 0
8, 4560, Note_on_c, 2, 83, 92
8, 4704, Note_on_c, 2, 83, 0
8, 4800, Note_on_c, 2, 86, 92
8, 5184, Note_on_c, 2, 86, 0
8, 5760, Note_on_c, 2, 84, 92
8, 6144, Note_on_c, 2, 84, 0
8, 6480, Note_on_c, 2, 81, 92
8, 6624, Note_on_c, 2, 81, 0
8, 6720, Note_on_c, 2, 84, 92
8, 7104, Note_on_c, 2, 84, 0
8, 7440, Note_on_c, 2, 81, 92
8, 7584, Note_on_c, 2, 81, 0
8, 7680, Note_on_c, 2, 84, 92
8, 7824, Note_on_c, 2, 84, 0
8, 7920, Note_on_c, 2, 81, 92
8, 8064, Note_on_c, 2, 81, 0
8, 8160, Note_on_c, 2, 78, 92
8, 8304, Note_on_c, 2, 78, 0
8, 8400, Note_on_c, 2, 81, 92
8, 8544, Note_on_c, 2, 81, 0
8, 8640, Note_on_c, 2, 74, 92
8, 9024, Note_on_c, 2, 74, 0
8, 9600, Note_on_c, 2, 62, 105
8, 9600, Note_on_c, 2, 59, 105
8, 9696, Note_on_c, 2, 59, 0
8, 9696, Note_on_c, 2, 62, 0
8, 9720, Note_on_c, 2, 59, 105
8, 9720, Note_on_c, 2, 62, 105
8, 9816, Note_on_c, 2, 62, 0
8, 9816, Note_on_c, 2, 59, 0
8, 9840, Note_on_c, 2, 62, 105
8, 9840, Note_on_c, 2, 59, 105
8, 9936, Note_on_c, 2, 59, 0
8, 9936, Note_on_c, 2, 62, 0
8, 9960, Note_on_c, 2, 59, 105
8, 9960, Note_on_c, 2, 62, 105
8, 10056, Note_on_c, 2, 62, 0
8, 10056, Note_on_c, 2, 59, 0
8, 10080, Note_on_c, 2, 59, 105
8, 10080, Note_on_c, 2, 62, 105
8, 10176, Note_on_c, 2, 62, 0
8, 10176, Note_on_c, 2, 59, 0
8, 10200, Note_on_c, 2, 59, 105
8, 10200, Note_on_c, 2, 62, 105
8, 10296, Note_on_c, 2, 62, 0
8, 10296, Note_on_c, 2, 59, 0
8, 10320, Note_on_c, 2, 59, 105
8, 10320, Note_on_c, 2, 62, 105
8, 10416, Note_on_c, 2, 62, 0
8, 10416, Note_on_c, 2, 59, 0
8, 10440, Note_on_c, 2, 59, 105
8, 10440, Note_on_c, 2, 62, 105
8, 10536, Note_on_c, 2, 62, 0
8, 10536, Note_on_c, 2, 59, 0
8, 10560, Note_on_c, 2, 59, 105
8, 10560, Note_on_c, 2, 62, 105
8, 10656, Note_on_c, 2, 62, 0
8, 10656, Note_on_c, 2, 59, 0
8, 10680, Note_on_c, 2, 59, 105
8, 10680, Note_on_c, 2, 62, 105
8, 10776, Note_on_c, 2, 62, 0
8, 10776, Note_on_c, 2, 59, 0
8, 10800, Note_on_c, 2, 62, 105
8, 10800, Note_on_c, 2, 59, 105
8, 10896, Note_on_c, 2, 59, 0
8, 10896, Note_on_c, 2, 62, 0
8, 10920, Note_on_c, 2, 59, 105
8, 10920, Note_on_c, 2, 62, 105
8, 11016, Note_on_c, 2, 62, 0
8, 11016, Note_on_c, 2, 59, 0
8, 11040, Note_on_c, 2, 59, 105
8, 11040, Note_on_c, 2, 62, 105
8, 11136, Note_on_c, 2, 62, 0
8, 11136, Note_on_c, 2, 59, 0
8, 11160, Note_on_c, 2, 59, 105
8, 11160, Note_on_c, 2, 62, 105
8, 11256, Note_on_c, 2, 62, 0
8, 11256, Note_on_c, 2, 59, 0
8, 11280, Note_on_c, 2, 62, 105
8, 11280, Note_on_c, 2, 59, 105
8, 11376, Note_on_c, 2, 59, 0
8, 11376, Note_on_c, 2, 62, 0
8, 11400, Note_on_c, 2, 59, 105
8, 11400, Note_on_c, 2, 62, 105
8, 11496, Note_on_c, 2, 62, 0
8, 11496, Note_on_c, 2, 59, 0
8, 11520, Note_on_c, 2, 60, 105
8, 11520, Note_on_c, 2, 62, 105
8, 11616, Note_on_c, 2, 62, 0
8, 11616, Note_on_c, 2, 60, 0
8, 11640, Note_on_c, 2, 60, 105
8, 11640, Note_on_c, 2, 62, 105
8, 11736, Note_on_c, 2, 62, 0
8, 11736, Note_on_c, 2, 60, 0
8, 11760, Note_on_c, 2, 60, 105
8, 11760, Note_on_c, 2, 62, 105
8, 11856, Note_on_c, 2, 62, 0
8, 11856, Note_on_c, 2, 60, 0
8, 11880, Note_on_c, 2, 62, 105
8, 11880, Note_on_c, 2, 60, 105
8, 11976, Note_on_c, 2, 60, 0
8, 11976, Note_on_c, 2, 62, 0
8, 12000, Note_on_c, 2, 62, 105
8, 12000, Note_on_c, 2, 60, 105
8, 12096, Note_on_c, 2, 60, 0
8, 12096, Note_on_c, 2, 62, 0
8, 12120, Note_on_c, 2, 62, 105
8, 12120, Note_on_c, 2, 60, 105
8, 12216, Note_on_c, 2, 60, 0
8, 12216, Note_on_c, 2, 62, 0
8, 12240, Note_on_c, 2, 62, 105
8, 12240, Note_on_c, 2, 60, 105
8, 12336, Note_on_c, 2, 60, 0
8, 12336, Note_on_c, 2, 62, 0
8, 12360, Note_on_c, 2, 62, 105
8, 12360, Note_on_c, 2, 60, 105
8, 12456, Note_on_c, 2, 60, 0
8, 12456, Note_on_c, 2, 62, 0
8, 12480, Note_on_c, 2, 62, 105
8, 12480, Note_on_c, 2, 60, 105
8, 12576, Note_on_c, 2, 60, 0
8, 12576, Note_on_c, 2, 62, 0
8, 12600, Note_on_c, 2, 60, 105
8, 12600, Note_on_c, 2, 62, 105
8, 12696, Note_on_c, 2, 62, 0
8, 12696, Note_on_c, 2, 60, 0
8, 12720, Note_on_c, 2, 60, 105
8, 12720, Note_on_c, 2, 62, 105
8, 12816, Note_on_c, 2, 62, 0
8, 12816, Note_on_c, 2, 60, 0
8, 12840, Note_on_c, 2, 60, 105
8, 12840, Note_on_c, 2, 62, 105
8, 12936, Note_on_c, 2, 62, 0
8, 12936, Note_on_c, 2, 60, 0
8, 12960, Note_on_c, 2, 60, 105
8, 12960, Note_on_c, 2, 62, 105
8, 13056, Note_on_c, 2, 62, 0
8, 13056, Note_on_c, 2, 60, 0
8, 13080, Note_on_c, 2, 60, 105
8, 13080, Note_on_c, 2, 62, 105
8, 13176, Note_on_c, 2, 62, 0
8, 13176, Note_on_c, 2, 60, 0
8, 13200, Note_on_c, 2, 60, 105
8, 13200, Note_on_c, 2, 62, 105
8, 13296, Note_on_c, 2, 62, 0
8, 13296, Note_on_c, 2, 60, 0
8, 13320, Note_on_c, 2, 62, 105
8, 13320, Note_on_c, 2, 60, 105
8, 13416, Note_on_c, 2, 60, 0
8, 13416, Note_on_c, 2, 62, 0
8, 13440, Note_on_c, 2, 62, 105
8, 13440, Note_on_c, 2, 59, 105
8, 13536, Note_on_c, 2, 59, 0
8, 13536, Note_on_c, 2, 62, 0
8, 13560, Note_on_c, 2, 62, 105
8, 13560, Note_on_c, 2, 59, 105
8, 13656, Note_on_c, 2, 59, 0
8, 13656, Note_on_c, 2, 62, 0
8, 13680, Note_on_c, 2, 59, 105
8, 13680, Note_on_c, 2, 62, 105
8, 13776, Note_on_c, 2, 62, 0
8, 13776, Note_on_c, 2, 59, 0
8, 13800, Note_on_c, 2, 59, 105
8, 13800, Note_on_c, 2, 62, 105
8, 13896, Note_on_c, 2, 62, 0
8, 13896, Note_on_c, 2, 59, 0
8, 13920, Note_on_c, 2, 62, 105
8, 13920, Note_on_c, 2, 59, 105
8, 14016, Note_on_c, 2, 59, 0
8, 14016, Note_on_c, 2, 62, 0
8, 14040, Note_on_c, 2, 62, 105
8, 14040, Note_on_c, 2, 59, 105
8, 14136, Note_on_c, 2, 59, 0
8, 14136, Note_on_c, 2, 62, 0
8, 14160, Note_on_c, 2, 62, 105
8, 14160, Note_on_c, 2, 59, 105
8, 14256, Note_on_c, 2, 59, 0
8, 14256, Note_on_c, 2, 62, 0
8, 14280, Note_on_c, 2, 59, 105
8, 14280, Note_on_c, 2, 62, 105
8, 14376, Note_on_c, 2, 62, 0
8, 14376, Note_on_c, 2, 59, 0
8, 14400, Note_on_c, 2, 62, 105
8, 14400, Note_on_c, 2, 59, 105
8, 14496, Note_on_c, 2, 59, 0
8, 14496, Note_on_c, 2, 62, 0
8, 14520, Note_on_c, 2, 62, 105
8, 14520, Note_on_c, 2, 59, 105
8, 14616, Note_on_c, 2, 59, 0
8, 14616, Note_on_c, 2, 62, 0
8, 14640, Note_on_c, 2, 62, 105
8, 14640, Note_on_c, 2, 59, 105
8, 14736, Note_on_c, 2, 59, 0
8, 14736, Note_on_c, 2, 62, 0
8, 14760, Note_on_c, 2, 59, 105
8, 14760, Note_on_c, 2, 62, 105
8, 14856, Note_on_c, 2, 62, 0
8, 14856, Note_on_c, 2, 59, 0
8, 14880, Note_on_c, 2, 59, 105
8, 14880, Note_on_c, 2, 62, 105
8, 14976, Note_on_c, 2, 62, 0
8, 14976, Note_on_c, 2, 59, 0
8, 15000, Note_on_c, 2, 59, 105
8, 15000, Note_on_c, 2, 62, 105
8, 15096, Note_on_c, 2, 62, 0
8, 15096, Note_on_c, 2, 59, 0
8, 15120, Note_on_c, 2, 59, 105
8, 15120, Note_on_c, 2, 62, 105
8, 15216, Note_on_c, 2, 62, 0
8, 15216, Note_on_c, 2, 59, 0
8, 15240, Note_on_c, 2, 62, 105
8, 15240, Note_on_c, 2, 59, 105
8, 15336, Note_on_c, 2, 59, 0
8, 15336, Note_on_c, 2, 62, 0
8, 15360, Note_on_c, 2, 60, 105
8, 15360, Note_on_c, 2, 62, 105
8, 15456, Note_on_c, 2, 62, 0
8, 15456, Note_on_c, 2, 60, 0
8, 15480, Note_on_c, 2, 62, 105
8, 15480, Note_on_c, 2, 60, 105
8, 15576, Note_on_c, 2, 60, 0
8, 15576, Note_on_c, 2, 62, 0
8, 15600, Note_on_c, 2, 60, 105
8, 15600, Note_on_c, 2, 62, 105
8, 15696, Note_on_c, 2, 62, 0
8, 15696, Note_on_c, 2, 60, 0
8, 15720, Note_on_c, 2, 60, 105
8, 15720, Note_on_c, 2, 62, 105
8, 15816, Note_on_c, 2, 62, 0
8, 15816, Note_on_c, 2, 60, 0
8, 15840, Note_on_c, 2, 60, 105
8, 15840, Note_on_c, 2, 62, 105
8, 15936, Note_on_c, 2, 62, 0
8, 15936, Note_on_c, 2, 60, 0
8, 15960, Note_on_c, 2, 60, 105
8, 15960, Note_on_c, 2, 62, 105
8, 16056, Note_on_c, 2, 62, 0
8, 16056, Note_on_c, 2, 60, 0
8, 16080, Note_on_c, 2, 62, 105
8, 16080, Note_on_c, 2, 60, 105
8, 16176, Note_on_c, 2, 60, 0
8, 16176, Note_on_c, 2, 62, 0
8, 16200, Note_on_c, 2, 62, 105
8, 16200, Note_on_c, 2, 60, 105
8, 16296, Note_on_c, 2, 60, 0
8, 16296, Note_on_c, 2, 62, 0
8, 16320, Note_on_c, 2, 62, 105
8, 16320, Note_on_c, 2, 60, 105
8, 16416, Note_on_c, 2, 60, 0
8, 16416, Note_on_c, 2, 62, 0
8, 16440, Note_on_c, 2, 60, 105
8, 16440, Note_on_c, 2, 62, 105
8, 16536, Note_on_c, 2, 62, 0
8, 16536, Note_on_c, 2, 60, 0
8, 16560, Note_on_c, 2, 62, 105
8, 16560, Note_on_c, 2, 60, 105
8, 16656, Note_on_c, 2, 60, 0
8, 16656, Note_on_c, 2, 62, 0
8, 16680, Note_on_c, 2, 62, 105
8, 16680, Note_on_c, 2, 60, 105
8, 16776, Note_on_c, 2, 60, 0
8, 16776, Note_on_c, 2, 62, 0
8, 16800, Note_on_c, 2, 60, 105
8, 16800, Note_on_c, 2, 62, 105
8, 16896, Note_on_c, 2, 62, 0
8, 16896, Note_on_c, 2, 60, 0
8, 16920, Note_on_c, 2, 60, 105
8, 16920, Note_on_c, 2, 62, 105
8, 17016, Note_on_c, 2, 62, 0
8, 17016, Note_on_c, 2, 60, 0
8, 17040, Note_on_c, 2, 60, 105
8, 17040, Note_on_c, 2, 62, 105
8, 17136, Note_on_c, 2, 62, 0
8, 17136, Note_on_c, 2, 60, 0
8, 17160, Note_on_c, 2, 62, 105
8, 17160, Note_on_c, 2, 60, 105
8, 17256, Note_on_c, 2, 60, 0
8, 17256, Note_on_c, 2, 62, 0
8, 17280, Note_on_c, 2, 59, 105
8, 17280, Note_on_c, 2, 62, 105
8, 17664, Note_on_c, 2, 62, 0
8, 17664, Note_on_c, 2, 59, 0
8, 17760, Note_on_c, 2, 72, 105
8, 17904, Note_on_c, 2, 72, 0
8, 18000, Note_on_c, 2, 72, 105
8, 18144, Note_on_c, 2, 72, 0
8, 18240, Note_on_c, 2, 74, 105
8, 18384, Note_on_c, 2, 74, 0
8, 18480, Note_on_c, 2, 74, 105
8, 18624, Note_on_c, 2, 74, 0
8, 18720, Note_on_c, 2, 72, 105
8, 18960, Note_on_c, 2, 72, 0
8, 18960, Note_on_c, 2, 71, 105
8, 19080, Note_on_c, 2, 71, 0
8, 19080, Note_on_c, 2, 69, 105
8, 19176, Note_on_c, 2, 69, 0
8, 19200, Note_on_c, 2, 67, 105
8, 19344, Note_on_c, 2, 67, 0
8, 19440, Note_on_c, 2, 67, 105
8, 19584, Note_on_c, 2, 67, 0
8, 19680, Note_on_c, 2, 66, 105
8, 19824, Note_on_c, 2, 66, 0
8, 19920, Note_on_c, 2, 66, 105
8, 20064, Note_on_c, 2, 66, 0
8, 20160, Note_on_c, 2, 67, 92
8, 20544, Note_on_c, 2, 67, 0
8, 21120, Note_on_c, 2, 71, 58
8, 22080, Note_on_c, 2, 71, 0
8, 22080, Note_on_c, 2, 72, 58
8, 22848, Note_on_c, 2, 72, 0
8, 23040, Note_on_c, 2, 71, 58
8, 23160, Note_on_c, 2, 71, 0
8, 23160, Note_on_c, 2, 69, 58
8, 23394, Note_on_c, 2, 69, 0
8, 23520, Note_on_c, 2, 69, 58
8, 23832, Note_on_c, 2, 69, 0
8, 24000, Note_on_c, 2, 69, 58
8, 24120, Note_on_c, 2, 69, 0
8, 24120, Note_on_c, 2, 67, 58
8, 24354, Note_on_c, 2, 67, 0
8, 24480, Note_on_c, 2, 67, 58
8, 24792, Note_on_c, 2, 67, 0
8, 24960, Note_on_c, 2, 64, 58
8, 25272, Note_on_c, 2, 64, 0
8, 25440, Note_on_c, 2, 64, 58
8, 25752, Note_on_c, 2, 64, 0
8, 25920, Note_on_c, 2, 60, 58
8, 26232, Note_on_c, 2, 60, 0
8, 26400, Note_on_c, 2, 57, 58
8, 26712, Note_on_c, 2, 57, 0
8, 26880, Note_on_c, 2, 62, 58
8, 27072, Note_on_c, 2, 62, 0
8, 27360, Note_on_c, 2, 66, 58
8, 27552, Note_on_c, 2, 66, 0
8, 27840, Note_on_c, 2, 67, 58
8, 28032, Note_on_c, 2, 67, 0
8, 28800, Note_on_c, 2, 71, 58
8, 29760, Note_on_c, 2, 71, 0
8, 29760, Note_on_c, 2, 72, 58
8, 30528, Note_on_c, 2, 72, 0
8, 30720, Note_on_c, 2, 71, 58
8, 30960, Note_on_c, 2, 71, 0
8, 30960, Note_on_c, 2, 69, 58
8, 31116, Note_on_c, 2, 69, 0
8, 31200, Note_on_c, 2, 69, 58
8, 31356, Note_on_c, 2, 69, 0
8, 31440, Note_on_c, 2, 69, 58
8, 31596, Note_on_c, 2, 69, 0
8, 31680, Note_on_c, 2, 69, 58
8, 31920, Note_on_c, 2, 69, 0
8, 31920, Note_on_c, 2, 67, 58
8, 32076, Note_on_c, 2, 67, 0
8, 32160, Note_on_c, 2, 67, 58
8, 32316, Note_on_c, 2, 67, 0
8, 32400, Note_on_c, 2, 67, 58
8, 32556, Note_on_c, 2, 67, 0
8, 32640, Note_on_c, 2, 64, 58
8, 32952, Note_on_c, 2, 64, 0
8, 33120, Note_on_c, 2, 64, 58
8, 33276, Note_on_c, 2, 64, 0
8, 33360, Note_on_c, 2, 64, 58
8, 33516, Note_on_c, 2, 64, 0
8, 33600, Note_on_c, 2, 60, 58
8, 33912, Note_on_c, 2, 60, 0
8, 34080, Note_on_c, 2, 60, 58
8, 34236, Note_on_c, 2, 60, 0
8, 34320, Note_on_c, 2, 60, 58
8, 34476, Note_on_c, 2, 60, 0
8, 34560, Note_on_c, 2, 59, 121
8, 35712, Note_on_c, 2, 59, 0
8, 35760, Note_on_c, 2, 60, 72
8, 35820, Note_on_c, 2, 60, 0
8, 35820, Note_on_c, 2, 59, 72
8, 35880, Note_on_c, 2, 59, 0
8, 35880, Note_on_c, 2, 57, 72
8, 35940, Note_on_c, 2, 57, 0
8, 35940, Note_on_c, 2, 59, 72
8, 36000, Note_on_c, 2, 59, 0
8, 36000, Note_on_c, 2, 60, 72
8, 36240, Note_on_c, 2, 60, 0
8, 36240, Note_on_c, 2, 57, 72
8, 36432, Note_on_c, 2, 57, 0
8, 36480, Note_on_c, 2, 67, 121
8, 37632, Note_on_c, 2, 67, 0
8, 37680, Note_on_c, 2, 69, 72
8, 37740, Note_on_c, 2, 69, 0
8, 37740, Note_on_c, 2, 67, 72
8, 37800, Note_on_c, 2, 67, 0
8, 37800, Note_on_c, 2, 66, 72
8, 37860, Note_on_c, 2, 66, 0
8, 37860, Note_on_c, 2, 67, 72
8, 37920, Note_on_c, 2, 67, 0
8, 37920, Note_on_c, 2, 69, 72
8, 38160, Note_on_c, 2, 69, 0
8, 38160, Note_on_c, 2, 66, 72
8, 38352, Note_on_c, 2, 66, 0
8, 38400, Note_on_c, 2, 71, 72
8, 38496, Note_on_c, 2, 71, 0
8, 38520, Note_on_c, 2, 71, 72
8, 38616, Note_on_c, 2, 71, 0
8, 38640, Note_on_c, 2, 71, 72
8, 38736, Note_on_c, 2, 71, 0
8, 38760, Note_on_c, 2, 71, 72
8, 38856, Note_on_c, 2, 71, 0
8, 38880, Note_on_c, 2, 71, 72
8, 38976, Note_on_c, 2, 71, 0
8, 39000, Note_on_c, 2, 71, 72
8, 39096, Note_on_c, 2, 71, 0
8, 39120, Note_on_c, 2, 71, 72
8, 39216, Note_on_c, 2, 71, 0
8, 39240, Note_on_c, 2, 71, 72
8, 39336, Note_on_c, 2, 71, 0
8, 39360, Note_on_c, 2, 72, 81
8, 39456, Note_on_c, 2, 72, 0
8, 39480, Note_on_c, 2, 72, 81
8, 39576, Note_on_c, 2, 72, 0
8, 39600, Note_on_c, 2, 72, 81
8, 39696, Note_on_c, 2, 72, 0
8, 39720, Note_on_c, 2, 72, 81
8, 39816, Note_on_c, 2, 72, 0
8, 39840, Note_on_c, 2, 72, 81
8, 39936, Note_on_c, 2, 72, 0
8, 39960, Note_on_c, 2, 72, 81
8, 40056, Note_on_c, 2, 72, 0
8, 40080, Note_on_c, 2, 72, 81
8, 40176, Note_on_c, 2, 72, 0
8, 40200, Note_on_c, 2, 72, 81
8, 40296, Note_on_c, 2, 72, 0
8, 40320, Note_on_c, 2, 71, 92
8, 40416, Note_on_c, 2, 71, 0
8, 40440, Note_on_c, 2, 71, 92
8, 40536, Note_on_c, 2, 71, 0
8, 40560, Note_on_c, 2, 71, 92
8, 40656, Note_on_c, 2, 71, 0
8, 40680, Note_on_c, 2, 71, 92
8, 40776, Note_on_c, 2, 71, 0
8, 40800, Note_on_c, 2, 74, 92
8, 40896, Note_on_c, 2, 74, 0
8, 40920, Note_on_c, 2, 74, 92
8, 41016, Note_on_c, 2, 74, 0
8, 41040, Note_on_c, 2, 74, 92
8, 41136, Note_on_c, 2, 74, 0
8, 41160, Note_on_c, 2, 74, 105
8, 41256, Note_on_c, 2, 74, 0
8, 41280, Note_on_c, 2, 74, 105
8, 41376, Note_on_c, 2, 74, 0
8, 41400, Note_on_c, 2, 74, 105
8, 41496, Note_on_c, 2, 74, 0
8, 41520, Note_on_c, 2, 74, 105
8, 41616, Note_on_c, 2, 74, 0
8, 41640, Note_on_c, 2, 74, 105
8, 41736, Note_on_c, 2, 74, 0
8, 41760, Note_on_c, 2, 79, 105
8, 41856, Note_on_c, 2, 79, 0
8, 41880, Note_on_c, 2, 79, 105
8, 41976, Note_on_c, 2, 79, 0
8, 42000, Note_on_c, 2, 79, 105
8, 42096, Note_on_c, 2, 79, 0
8, 42120, Note_on_c, 2, 79, 105
8, 42216, Note_on_c, 2, 79, 0
8, 42240, Note_on_c, 2, 78, 105
8, 42336, Note_on_c, 2, 78, 0
8, 42360, Note_on_c, 2, 78, 105
8, 42456, Note_on_c, 2, 78, 0
8, 42480, Note_on_c, 2, 78, 105
8, 42576, Note_on_c, 2, 78, 0
8, 42600, Note_on_c, 2, 78, 105
8, 42696, Note_on_c, 2, 78, 0
8, 42720, Note_on_c, 2, 78, 105
8, 42816, Note_on_c, 2, 78, 0
8, 42840, Note_on_c, 2, 78, 105
8, 42936, Note_on_c, 2, 78, 0
8, 42960, Note_on_c, 2, 78, 105
8, 43056, Note_on_c, 2, 78, 0
8, 43080, Note_on_c, 2, 78, 105
8, 43176, Note_on_c, 2, 78, 0
8, 43200, Note_on_c, 2, 79, 105
8, 43296, Note_on_c, 2, 79, 0
8, 43320, Note_on_c, 2, 79, 105
8, 43416, Note_on_c, 2, 79, 0
8, 43440, Note_on_c, 2, 79, 105
8, 43536, Note_on_c, 2, 79, 0
8, 43560, Note_on_c, 2, 79, 105
8, 43656, Note_on_c, 2, 79, 0
8, 43680, Note_on_c, 2, 79, 105
8, 43776, Note_on_c, 2, 79, 0
8, 43800, Note_on_c, 2, 79, 105
8, 43896, Note_on_c, 2, 79, 0
8, 43920, Note_on_c, 2, 79, 105
8, 44016, Note_on_c, 2, 79, 0
8, 44040, Note_on_c, 2, 79, 105
8, 44136, Note_on_c, 2, 79, 0
8, 44160, Note_on_c, 2, 78, 105
8, 44256, Note_on_c, 2, 78, 0
8, 44280, Note_on_c, 2, 78, 105
8, 44376, Note_on_c, 2, 78, 0
8, 44400, Note_on_c, 2, 78, 105
8, 44496, Note_on_c, 2, 78, 0
8, 44520, Note_on_c, 2, 78, 105
8, 44616, Note_on_c, 2, 78, 0
8, 44640, Note_on_c, 2, 78, 105
8, 44736, Note_on_c, 2, 78, 0
8, 44760, Note_on_c, 2, 78, 105
8, 44856, Note_on_c, 2, 78, 0
8, 44880, Note_on_c, 2, 78, 105
8, 44976, Note_on_c, 2, 78, 0
8, 45000, Note_on_c, 2, 78, 105
8, 45096, Note_on_c, 2, 78, 0
8, 45120, Note_on_c, 2, 79, 105
8, 45216, Note_on_c, 2, 79, 0
8, 45240, Note_on_c, 2, 79, 105
8, 45336, Note_on_c, 2, 79, 0
8, 45360, Note_on_c, 2, 79, 105
8, 45456, Note_on_c, 2, 79, 0
8, 45480, Note_on_c, 2, 79, 105
8, 45576, Note_on_c, 2, 79, 0
8, 45600, Note_on_c, 2, 79, 105
8, 45696, Note_on_c, 2, 79, 0
8, 45720, Note_on_c, 2, 79, 105
8, 45816, Note_on_c, 2, 79, 0
8, 45840, Note_on_c, 2, 79, 105
8, 45936, Note_on_c, 2, 79, 0
8, 45960, Note_on_c, 2, 79, 105
8, 46056, Note_on_c, 2, 79, 0
8, 46080, Note_on_c, 2, 78, 105
8, 46080, Note_on_c, 2, 74, 105
8, 46224, Note_on_c, 2, 74, 0
8, 46224, Note_on_c, 2, 78, 0
8, 46320, Note_on_c, 2, 78, 92
8, 46320, Note_on_c, 2, 74, 92
8, 46704, Note_on_c, 2, 74, 0
8, 46704, Note_on_c, 2, 78, 0
8, 46800, Note_on_c, 2, 78, 92
8, 46800, Note_on_c, 2, 74, 92
8, 47184, Note_on_c, 2, 74, 0
8, 47184, Note_on_c, 2, 78, 0
8, 47280, Note_on_c, 2, 74, 92
8, 47280, Note_on_c, 2, 78, 92
8, 47664, Note_on_c, 2, 78, 0
8, 47664, Note_on_c, 2, 74, 0
8, 47760, Note_on_c, 2, 74, 92
8, 47760, Note_on_c, 2, 78, 92
8, 48000, Note_on_c, 2, 78, 0
8, 48000, Note_on_c, 2, 76, 92
8, 48192, Note_on_c, 2, 76, 0
8, 48192, Note_on_c, 2, 74, 0
8, 48240, Note_on_c, 2, 76, 92
8, 48240, Note_on_c, 2, 74, 92
8, 48624, Note_on_c, 2, 74, 0
8, 48624, Note_on_c, 2, 76, 0
8, 48720, Note_on_c, 2, 76, 92
8, 48720, Note_on_c, 2, 74, 92
8, 49104, Note_on_c, 2, 74, 0
8, 49104, Note_on_c, 2, 76, 0
8, 49200, Note_on_c, 2, 76, 92
8, 49200, Note_on_c, 2, 74, 92
8, 49584, Note_on_c, 2, 74, 0
8, 49584, Note_on_c, 2, 76, 0
8, 49680, Note_on_c, 2, 76, 92
8, 49680, Note_on_c, 2, 74, 92
8, 49824, Note_on_c, 2, 76, 0
8, 49872, Note_on_c, 2, 74, 0
8, 49920, Note_on_c, 2, 73, 105
8, 49920, Note_on_c, 2, 76, 105
8, 50016, Note_on_c, 2, 76, 0
8, 50016, Note_on_c, 2, 73, 0
8, 50040, Note_on_c, 2, 76, 105
8, 50040, Note_on_c, 2, 73, 105
8, 50136, Note_on_c, 2, 73, 0
8, 50136, Note_on_c, 2, 76, 0
8, 50160, Note_on_c, 2, 76, 105
8, 50160, Note_on_c, 2, 73, 105
8, 50256, Note_on_c, 2, 73, 0
8, 50256, Note_on_c, 2, 76, 0
8, 50280, Note_on_c, 2, 73, 105
8, 50280, Note_on_c, 2, 76, 105
8, 50376, Note_on_c, 2, 76, 0
8, 50376, Note_on_c, 2, 73, 0
8, 50400, Note_on_c, 2, 78, 105
8, 50400, Note_on_c, 2, 74, 105
8, 50496, Note_on_c, 2, 74, 0
8, 50496, Note_on_c, 2, 78, 0
8, 50520, Note_on_c, 2, 74, 105
8, 50520, Note_on_c, 2, 78, 105
8, 50616, Note_on_c, 2, 78, 0
8, 50616, Note_on_c, 2, 74, 0
8, 50640, Note_on_c, 2, 74, 105
8, 50640, Note_on_c, 2, 78, 105
8, 50736, Note_on_c, 2, 78, 0
8, 50736, Note_on_c, 2, 74, 0
8, 50760, Note_on_c, 2, 78, 105
8, 50760, Note_on_c, 2, 74, 105
8, 50856, Note_on_c, 2, 74, 0
8, 50856, Note_on_c, 2, 78, 0
8, 50880, Note_on_c, 2, 76, 105
8, 50880, Note_on_c, 2, 73, 105
8, 50976, Note_on_c, 2, 73, 0
8, 50976, Note_on_c, 2, 76, 0
8, 51000, Note_on_c, 2, 73, 105
8, 51000, Note_on_c, 2, 76, 105
8, 51096, Note_on_c, 2, 76, 0
8, 51096, Note_on_c, 2, 73, 0
8, 51120, Note_on_c, 2, 73, 105
8, 51120, Note_on_c, 2, 76, 105
8, 51216, Note_on_c, 2, 76, 0
8, 51216, Note_on_c, 2, 73, 0
8, 51240, Note_on_c, 2, 76, 105
8, 51240, Note_on_c, 2, 73, 105
8, 51336, Note_on_c, 2, 73, 0
8, 51336, Note_on_c, 2, 76, 0
8, 51360, Note_on_c, 2, 78, 105
8, 51360, Note_on_c, 2, 74, 105
8, 51456, Note_on_c, 2, 74, 0
8, 51456, Note_on_c, 2, 78, 0
8, 51480, Note_on_c, 2, 78, 105
8, 51480, Note_on_c, 2, 74, 105
8, 51576, Note_on_c, 2, 74, 0
8, 51576, Note_on_c, 2, 78, 0
8, 51600, Note_on_c, 2, 74, 105
8, 51600, Note_on_c, 2, 78, 105
8, 51696, Note_on_c, 2, 78, 0
8, 51696, Note_on_c, 2, 74, 0
8, 51720, Note_on_c, 2, 78, 105
8, 51720, Note_on_c, 2, 74, 105
8, 51816, Note_on_c, 2, 74, 0
8, 51816, Note_on_c, 2, 78, 0
8, 51840, Note_on_c, 2, 76, 105
8, 51840, Note_on_c, 2, 73, 105
8, 51984, Note_on_c, 2, 73, 0
8, 51984, Note_on_c, 2, 76, 0
8, 52080, Note_on_c, 2, 69, 92
8, 52224, Note_on_c, 2, 69, 0
8, 52320, Note_on_c, 2, 69, 92
8, 52464, Note_on_c, 2, 69, 0
8, 52560, Note_on_c, 2, 69, 92
8, 52704, Note_on_c, 2, 69, 0
8, 52800, Note_on_c, 2, 69, 92
8, 53184, Note_on_c, 2, 69, 0
8, 53760, Note_on_c, 2, 69, 92
8, 54480, Note_on_c, 2, 69, 0
8, 54480, Note_on_c, 2, 67, 72
8, 54560, Note_on_c, 2, 67, 0
8, 54560, Note_on_c, 2, 66, 72
8, 54640, Note_on_c, 2, 66, 0
8, 54640, Note_on_c, 2, 64, 72
8, 54720, Note_on_c, 2, 64, 0
8, 54720, Note_on_c, 2, 62, 72
8, 54876, Note_on_c, 2, 62, 0
8, 55200, Note_on_c, 2, 71, 72
8, 55356, Note_on_c, 2, 71, 0
8, 55680, Note_on_c, 2, 67, 72
8, 55836, Note_on_c, 2, 67, 0
8, 56160, Note_on_c, 2, 64, 72
8, 56316, Note_on_c, 2, 64, 0
8, 56640, Note_on_c, 2, 69, 72
8, 56796, Note_on_c, 2, 69, 0
8, 57600, Note_on_c, 2, 66, 72
8, 58320, Note_on_c, 2, 66, 0
8, 58320, Note_on_c, 2, 64, 72
8, 58400, Note_on_c, 2, 64, 0
8, 58400, Note_on_c, 2, 62, 72
8, 58480, Note_on_c, 2, 62, 0
8, 58480, Note_on_c, 2, 61, 72
8, 58560, Note_on_c, 2, 61, 0
8, 58560, Note_on_c, 2, 59, 72
8, 58716, Note_on_c, 2, 59, 0
8, 59040, Note_on_c, 2, 67, 72
8, 59196, Note_on_c, 2, 67, 0
8, 59520, Note_on_c, 2, 66, 72
8, 60480, Note_on_c, 2, 66, 0
8, 60480, Note_on_c, 2, 64, 72
8, 60864, Note_on_c, 2, 64, 0
8, 61440, Note_on_c, 2, 69, 72
8, 62160, Note_on_c, 2, 69, 0
8, 62160, Note_on_c, 2, 67, 72
8, 62240, Note_on_c, 2, 67, 0
8, 62240, Note_on_c, 2, 66, 72
8, 62320, Note_on_c, 2, 66, 0
8, 62320, Note_on_c, 2, 64, 72
8, 62400, Note_on_c, 2, 64, 0
8, 62400, Note_on_c, 2, 62, 72
8, 62556, Note_on_c, 2, 62, 0
8, 62880, Note_on_c, 2, 71, 72
8, 63036, Note_on_c, 2, 71, 0
8, 63360, Note_on_c, 2, 67, 72
8, 63516, Note_on_c, 2, 67, 0
8, 63840, Note_on_c, 2, 64, 72
8, 63996, Note_on_c, 2, 64, 0
8, 64320, Note_on_c, 2, 69, 72
8, 64476, Note_on_c, 2, 69, 0
8, 65040, Note_on_c, 2, 67, 72
8, 65232, Note_on_c, 2, 67, 0
8, 65280, Note_on_c, 2, 67, 72
8, 65520, Note_on_c, 2, 67, 0
8, 65520, Note_on_c, 2, 66, 72
8, 65664, Note_on_c, 2, 66, 0
8, 66000, Note_on_c, 2, 79, 72
8, 66144, Note_on_c, 2, 79, 0
8, 66240, Note_on_c, 2, 79, 72
8, 66480, Note_on_c, 2, 79, 0
8, 66480, Note_on_c, 2, 78, 72
8, 66672, Note_on_c, 2, 78, 0
8, 66960, Note_on_c, 2, 67, 72
8, 67104, Note_on_c, 2, 67, 0
8, 67200, Note_on_c, 2, 66, 58
8, 67356, Note_on_c, 2, 66, 0
8, 67440, Note_on_c, 2, 66, 58
8, 67596, Note_on_c, 2, 66, 0
8, 67680, Note_on_c, 2, 67, 58
8, 67836, Note_on_c, 2, 67, 0
8, 67920, Note_on_c, 2, 67, 58
8, 68076, Note_on_c, 2, 67, 0
8, 68160, Note_on_c, 2, 69, 58
8, 68316, Note_on_c, 2, 69, 0
8, 68400, Note_on_c, 2, 69, 58
8, 68556, Note_on_c, 2, 69, 0
8, 68640, Note_on_c, 2, 66, 58
8, 68796, Note_on_c, 2, 66, 0
8, 68880, Note_on_c, 2, 66, 58
8, 69036, Note_on_c, 2, 66, 0
8, 69120, Note_on_c, 2, 64, 58
8, 69276, Note_on_c, 2, 64, 0
8, 69360, Note_on_c, 2, 64, 58
8, 69516, Note_on_c, 2, 64, 0
8, 69600, Note_on_c, 2, 66, 58
8, 69756, Note_on_c, 2, 66, 0
8, 69840, Note_on_c, 2, 66, 58
8, 69996, Note_on_c, 2, 66, 0
8, 70080, Note_on_c, 2, 67, 58
8, 70236, Note_on_c, 2, 67, 0
8, 70320, Note_on_c, 2, 67, 58
8, 70476, Note_on_c, 2, 67, 0
8, 70560, Note_on_c, 2, 64, 58
8, 70716, Note_on_c, 2, 64, 0
8, 70800, Note_on_c, 2, 64, 58
8, 70956, Note_on_c, 2, 64, 0
8, 71040, Note_on_c, 2, 66, 58
8, 71196, Note_on_c, 2, 66, 0
8, 71280, Note_on_c, 2, 66, 58
8, 71436, Note_on_c, 2, 66, 0
8, 71520, Note_on_c, 2, 67, 58
8, 71676, Note_on_c, 2, 67, 0
8, 71760, Note_on_c, 2, 67, 58
8, 71916, Note_on_c, 2, 67, 0
8, 72000, Note_on_c, 2, 69, 58
8, 72156, Note_on_c, 2, 69, 0
8, 72240, Note_on_c, 2, 69, 58
8, 72396, Note_on_c, 2, 69, 0
8, 72480, Note_on_c, 2, 66, 58
8, 72636, Note_on_c, 2, 66, 0
8, 72720, Note_on_c, 2, 66, 58
8, 72876, Note_on_c, 2, 66, 0
8, 72960, Note_on_c, 2, 64, 58
8, 73116, Note_on_c, 2, 64, 0
8, 73200, Note_on_c, 2, 64, 58
8, 73356, Note_on_c, 2, 64, 0
8, 73440, Note_on_c, 2, 66, 58
8, 73596, Note_on_c, 2, 66, 0
8, 73680, Note_on_c, 2, 66, 58
8, 73836, Note_on_c, 2, 66, 0
8, 73920, Note_on_c, 2, 67, 58
8, 74076, Note_on_c, 2, 67, 0
8, 74160, Note_on_c, 2, 67, 58
8, 74316, Note_on_c, 2, 67, 0
8, 74400, Note_on_c, 2, 64, 58
8, 74556, Note_on_c, 2, 64, 0
8, 74640, Note_on_c, 2, 64, 58
8, 74796, Note_on_c, 2, 64, 0
8, 74880, Note_on_c, 2, 66, 58
8, 75264, Note_on_c, 2, 66, 0
8, 75840, Note_on_c, 2, 71, 105
8, 75840, Note_on_c, 2, 78, 105
8, 76608, Note_on_c, 2, 71, 0
8, 76800, Note_on_c, 2, 78, 0
8, 76800, Note_on_c, 2, 76, 105
8, 77184, Note_on_c, 2, 76, 0
8, 77760, Note_on_c, 2, 69, 105
8, 77760, Note_on_c, 2, 76, 105
8, 78528, Note_on_c, 2, 69, 0
8, 78720, Note_on_c, 2, 76, 0
8, 78720, Note_on_c, 2, 74, 105
8, 78876, Note_on_c, 2, 74, 0
8, 78960, Note_on_c, 2, 78, 105
8, 79116, Note_on_c, 2, 78, 0
8, 79200, Note_on_c, 2, 79, 105
8, 79356, Note_on_c, 2, 79, 0
8, 79440, Note_on_c, 2, 81, 105
8, 79596, Note_on_c, 2, 81, 0
8, 79680, Note_on_c, 2, 79, 105
8, 79920, Note_on_c, 2, 79, 0
8, 79920, Note_on_c, 2, 81, 105
8, 80040, Note_on_c, 2, 81, 0
8, 80040, Note_on_c, 2, 83, 105
8, 80160, Note_on_c, 2, 83, 0
8, 80160, Note_on_c, 2, 81, 105
8, 80304, Note_on_c, 2, 81, 0
8, 80400, Note_on_c, 2, 79, 105
8, 80544, Note_on_c, 2, 79, 0
8, 80640, Note_on_c, 2, 79, 105
8, 80880, Note_on_c, 2, 79, 0
8, 80880, Note_on_c, 2, 78, 105
8, 81024, Note_on_c, 2, 78, 0
8, 81120, Note_on_c, 2, 74, 105
8, 81264, Note_on_c, 2, 74, 0
8, 81360, Note_on_c, 2, 78, 105
8, 81504, Note_on_c, 2, 78, 0
8, 81600, Note_on_c, 2, 78, 105
8, 81840, Note_on_c, 2, 78, 0
8, 81840, Note_on_c, 2, 76, 105
8, 81984, Note_on_c, 2, 76, 0
8, 82080, Note_on_c, 2, 74, 105
8, 82224, Note_on_c, 2, 74, 0
8, 82320, Note_on_c, 2, 73, 105
8, 82464, Note_on_c, 2, 73, 0
8, 82560, Note_on_c, 2, 74, 92
8, 82716, Note_on_c, 2, 74, 0
8, 82800, Note_on_c, 2, 66, 58
8, 82956, Note_on_c, 2, 66, 0
8, 83040, Note_on_c, 2, 67, 58
8, 83196, Note_on_c, 2, 67, 0
8, 83280, Note_on_c, 2, 67, 58
8, 83436, Note_on_c, 2, 67, 0
8, 83520, Note_on_c, 2, 69, 58
8, 83676, Note_on_c, 2, 69, 0
8, 83760, Note_on_c, 2, 69, 58
8, 83916, Note_on_c, 2, 69, 0
8, 84000, Note_on_c, 2, 66, 58
8, 84156, Note_on_c, 2, 66, 0
8, 84240, Note_on_c, 2, 66, 58
8, 84396, Note_on_c, 2, 66, 0
8, 84480, Note_on_c, 2, 64, 58
8, 84636, Note_on_c, 2, 64, 0
8, 84720, Note_on_c, 2, 64, 58
8, 84876, Note_on_c, 2, 64, 0
8, 84960, Note_on_c, 2, 66, 58
8, 85116, Note_on_c, 2, 66, 0
8, 85200, Note_on_c, 2, 66, 58
8, 85356, Note_on_c, 2, 66, 0
8, 85440, Note_on_c, 2, 67, 58
8, 85596, Note_on_c, 2, 67, 0
8, 85680, Note_on_c, 2, 67, 58
8, 85836, Note_on_c, 2, 67, 0
8, 85920, Note_on_c, 2, 64, 58
8, 86076, Note_on_c, 2, 64, 0
8, 86160, Note_on_c, 2, 64, 58
8, 86316, Note_on_c, 2, 64, 0
8, 86400, Note_on_c, 2, 66, 58
8, 86556, Note_on_c, 2, 66, 0
8, 86640, Note_on_c, 2, 66, 58
8, 86796, Note_on_c, 2, 66, 0
8, 86880, Note_on_c, 2, 67, 58
8, 87036, Note_on_c, 2, 67, 0
8, 87120, Note_on_c, 2, 67, 58
8, 87276, Note_on_c, 2, 67, 0
8, 87360, Note_on_c, 2, 69, 58
8, 87516, Note_on_c, 2, 69, 0
8, 87600, Note_on_c, 2, 69, 58
8, 87756, Note_on_c, 2, 69, 0
8, 87840, Note_on_c, 2, 66, 58
8, 87996, Note_on_c, 2, 66, 0
8, 88080, Note_on_c, 2, 66, 58
8, 88236, Note_on_c, 2, 66, 0
8, 88320, Note_on_c, 2, 64, 58
8, 88476, Note_on_c, 2, 64, 0
8, 88560, Note_on_c, 2, 64, 58
8, 88716, Note_on_c, 2, 64, 0
8, 88800, Note_on_c, 2, 66, 58
8, 88956, Note_on_c, 2, 66, 0
8, 89040, Note_on_c, 2, 66, 58
8, 89196, Note_on_c, 2, 66, 0
8, 89280, Note_on_c, 2, 67, 58
8, 89436, Note_on_c, 2, 67, 0
8, 89520, Note_on_c, 2, 67, 58
8, 89676, Note_on_c, 2, 67, 0
8, 89760, Note_on_c, 2, 64, 58
8, 89916, Note_on_c, 2, 64, 0
8, 90000, Note_on_c, 2, 64, 58
8, 90156, Note_on_c, 2, 64, 0
8, 90240, Note_on_c, 2, 66, 58
8, 90624, Note_on_c, 2, 66, 0
8, 91200, Note_on_c, 2, 71, 105
8, 91200, Note_on_c, 2, 78, 105
8, 91968, Note_on_c, 2, 71, 0
8, 92160, Note_on_c, 2, 78, 0
8, 92160, Note_on_c, 2, 76, 105
8, 92544, Note_on_c, 2, 76, 0
8, 93120, Note_on_c, 2, 69, 105
8, 93120, Note_on_c, 2, 76, 105
8, 93888, Note_on_c, 2, 69, 0
8, 94080, Note_on_c, 2, 76, 0
8, 94080, Note_on_c, 2, 74, 105
8, 94236, Note_on_c, 2, 74, 0
8, 94320, Note_on_c, 2, 78, 105
8, 94476, Note_on_c, 2, 78, 0
8, 94560, Note_on_c, 2, 79, 105
8, 94716, Note_on_c, 2, 79, 0
8, 94800, Note_on_c, 2, 81, 105
8, 94956, Note_on_c, 2, 81, 0
8, 95040, Note_on_c, 2, 79, 105
8, 95280, Note_on_c, 2, 79, 0
8, 95280, Note_on_c, 2, 81, 105
8, 95400, Note_on_c, 2, 81, 0
8, 95400, Note_on_c, 2, 83, 105
8, 95520, Note_on_c, 2, 83, 0
8, 95520, Note_on_c, 2, 81, 105
8, 95664, Note_on_c, 2, 81, 0
8, 95760, Note_on_c, 2, 79, 105
8, 95904, Note_on_c, 2, 79, 0
8, 96000, Note_on_c, 2, 79, 105
8, 96240, Note_on_c, 2, 79, 0
8, 96240, Note_on_c, 2, 78, 105
8, 96384, Note_on_c, 2, 78, 0
8, 96480, Note_on_c, 2, 74, 105
8, 96624, Note_on_c, 2, 74, 0
8, 96720, Note_on_c, 2, 78, 105
8, 96864, Note_on_c, 2, 78, 0
8, 96960, Note_on_c, 2, 78, 105
8, 97200, Note_on_c, 2, 78, 0
8, 97200, Note_on_c, 2, 76, 105
8, 97344, Note_on_c, 2, 76, 0
8, 97440, Note_on_c, 2, 74, 105
8, 97584, Note_on_c, 2, 74, 0
8, 97680, Note_on_c, 2, 73, 105
8, 97824, Note_on_c, 2, 73, 0
8, 97920, Note_on_c, 2, 74, 105
8, 98064, Note_on_c, 2, 74, 0
8, 98160, Note_on_c, 2, 69, 105
8, 98304, Note_on_c, 2, 69, 0
8, 98400, Note_on_c, 2, 71, 105
8, 98544, Note_on_c, 2, 71, 0
8, 98640, Note_on_c, 2, 73, 105
8, 98784, Note_on_c, 2, 73, 0
8, 98880, Note_on_c, 2, 74, 105
8, 99024, Note_on_c, 2, 74, 0
8, 99120, Note_on_c, 2, 74, 105
8, 99264, Note_on_c, 2, 74, 0
8, 99360, Note_on_c, 2, 78, 105
8, 99420, Note_on_c, 2, 78, 0
8, 99420, Note_on_c, 2, 76, 105
8, 99480, Note_on_c, 2, 76, 0
8, 99480, Note_on_c, 2, 78, 105
8, 99540, Note_on_c, 2, 78, 0
8, 99540, Note_on_c, 2, 76, 105
8, 99600, Note_on_c, 2, 76, 0
8, 99600, Note_on_c, 2, 74, 105
8, 99720, Note_on_c, 2, 74, 0
8, 99720, Note_on_c, 2, 76, 105
8, 99840, Note_on_c, 2, 76, 0
8, 99840, Note_on_c, 2, 78, 105
8, 99984, Note_on_c, 2, 78, 0
8, 100080, Note_on_c, 2, 73, 105
8, 100224, Note_on_c, 2, 73, 0
8, 100320, Note_on_c, 2, 74, 105
8, 100464, Note_on_c, 2, 74, 0
8, 100560, Note_on_c, 2, 76, 105
8, 100704, Note_on_c, 2, 76, 0
8, 100800, Note_on_c, 2, 78, 105
8, 100944, Note_on_c, 2, 78, 0
8, 101040, Note_on_c, 2, 78, 105
8, 101184, Note_on_c, 2, 78, 0
8, 101280, Note_on_c, 2, 81, 105
8, 101340, Note_on_c, 2, 81, 0
8, 101340, Note_on_c, 2, 79, 105
8, 101400, Note_on_c, 2, 79, 0
8, 101400, Note_on_c, 2, 81, 105
8, 101460, Note_on_c, 2, 81, 0
8, 101460, Note_on_c, 2, 79, 105
8, 101520, Note_on_c, 2, 79, 0
8, 101520, Note_on_c, 2, 78, 105
8, 101640, Note_on_c, 2, 78, 0
8, 101640, Note_on_c, 2, 79, 105
8, 101760, Note_on_c, 2, 79, 0
8, 101760, Note_on_c, 2, 81, 105
8, 101904, Note_on_c, 2, 81, 0
8, 102000, Note_on_c, 2, 81, 105
8, 102144, Note_on_c, 2, 81, 0
8, 102240, Note_on_c, 2, 83, 105
8, 102300, Note_on_c, 2, 83, 0
8, 102300, Note_on_c, 2, 82, 105
8, 102360, Note_on_c, 2, 82, 0
8, 102360, Note_on_c, 2, 83, 105
8, 102420, Note_on_c, 2, 83, 0
8, 102420, Note_on_c, 2, 82, 105
8, 102480, Note_on_c, 2, 82, 0
8, 102480, Note_on_c, 2, 80, 105
8, 102600, Note_on_c, 2, 80, 0
8, 102600, Note_on_c, 2, 82, 105
8, 102720, Note_on_c, 2, 82, 0
8, 102720, Note_on_c, 2, 83, 92
8, 103104, Note_on_c, 2, 83, 0
8, 103680, Note_on_c, 2, 67, 58
8, 105504, Note_on_c, 2, 67, 0
8, 105600, Note_on_c, 2, 66, 58
8, 105792, Note_on_c, 2, 66, 0
8, 106080, Note_on_c, 2, 69, 58
8, 106272, Note_on_c, 2, 69, 0
8, 106560, Note_on_c, 2, 66, 58
8, 106752, Note_on_c, 2, 66, 0
8, 107520, Note_on_c, 2, 71, 105
8, 107520, Note_on_c, 2, 79, 105
8, 107520, Note_on_c, 2, 62, 105
8, 107904, Note_on_c, 2, 62, 0
8, 107904, Note_on_c, 2, 79, 0
8, 107904, Note_on_c, 2, 71, 0
8, 108240, Note_on_c, 2, 74, 92
8, 108384, Note_on_c, 2, 74, 0
8, 108480, Note_on_c, 2, 79, 92
8, 108864, Note_on_c, 2, 79, 0
8, 109200, Note_on_c, 2, 74, 92
8, 109344, Note_on_c, 2, 74, 0
8, 109440, Note_on_c, 2, 79, 92
8, 109584, Note_on_c, 2, 79, 0
8, 109680, Note_on_c, 2, 74, 92
8, 109824, Note_on_c, 2, 74, 0
8, 109920, Note_on_c, 2, 79, 92
8, 110064, Note_on_c, 2, 79, 0
8, 110160, Note_on_c, 2, 83, 92
8, 110304, Note_on_c, 2, 83, 0
8, 110400, Note_on_c, 2, 86, 92
8, 110784, Note_on_c, 2, 86, 0
8, 111360, Note_on_c, 2, 84, 92
8, 111744, Note_on_c, 2, 84, 0
8, 112080, Note_on_c, 2, 81, 92
8, 112224, Note_on_c, 2, 81, 0
8, 112320, Note_on_c, 2, 84, 92
8, 112704, Note_on_c, 2, 84, 0
8, 113040, Note_on_c, 2, 81, 92
8, 113184, Note_on_c, 2, 81, 0
8, 113280, Note_on_c, 2, 84, 92
8, 113424, Note_on_c, 2, 84, 0
8, 113520, Note_on_c, 2, 81, 92
8, 113664, Note_on_c, 2, 81, 0
8, 113760, Note_on_c, 2, 78, 92
8, 113904, Note_on_c, 2, 78, 0
8, 114000, Note_on_c, 2, 81, 92
8, 114144, Note_on_c, 2, 81, 0
8, 114240, Note_on_c, 2, 74, 92
8, 114624, Note_on_c, 2, 74, 0
8, 115200, Note_on_c, 2, 62, 105
8, 115200, Note_on_c, 2, 59, 105
8, 115296, Note_on_c, 2, 59, 0
8, 115296, Note_on_c, 2, 62, 0
8, 115320, Note_on_c, 2, 59, 105
8, 115320, Note_on_c, 2, 62, 105
8, 115416, Note_on_c, 2, 62, 0
8, 115416, Note_on_c, 2, 59, 0
8, 115440, Note_on_c, 2, 62, 105
8, 115440, Note_on_c, 2, 59, 105
8, 115536, Note_on_c, 2, 59, 0
8, 115536, Note_on_c, 2, 62, 0
8, 115560, Note_on_c, 2, 59, 105
8, 115560, Note_on_c, 2, 62, 105
8, 115656, Note_on_c, 2, 62, 0
8, 115656, Note_on_c, 2, 59, 0
8, 115680, Note_on_c, 2, 59, 105
8, 115680, Note_on_c, 2, 62, 105
8, 115776, Note_on_c, 2, 62, 0
8, 115776, Note_on_c, 2, 59, 0
8, 115800, Note_on_c, 2, 59, 105
8, 115800, Note_on_c, 2, 62, 105
8, 115896, Note_on_c, 2, 62, 0
8, 115896, Note_on_c, 2, 59, 0
8, 115920, Note_on_c, 2, 59, 105
8, 115920, Note_on_c, 2, 62, 105
8, 116016, Note_on_c, 2, 62, 0
8, 116016, Note_on_c, 2, 59, 0
8, 116040, Note_on_c, 2, 59, 105
8, 116040, Note_on_c, 2, 62, 105
8, 116136, Note_on_c, 2, 62, 0
8, 116136, Note_on_c, 2, 59, 0
8, 116160, Note_on_c, 2, 59, 105
8, 116160, Note_on_c, 2, 62, 105
8, 116256, Note_on_c, 2, 62, 0
8, 116256, Note_on_c, 2, 59, 0
8, 116280, Note_on_c, 2, 59, 105
8, 116280, Note_on_c, 2, 62, 105
8, 116376, Note_on_c, 2, 62, 0
8, 116376, Note_on_c, 2, 59, 0
8, 116400, Note_on_c, 2, 62, 105
8, 116400, Note_on_c, 2, 59, 105
8, 116496, Note_on_c, 2, 59, 0
8, 116496, Note_on_c, 2, 62, 0
8, 116520, Note_on_c, 2, 59, 105
8, 116520, Note_on_c, 2, 62, 105
8, 116616, Note_on_c, 2, 62, 0
8, 116616, Note_on_c, 2, 59, 0
8, 116640, Note_on_c, 2, 59, 105
8, 116640, Note_on_c, 2, 62, 105
8, 116736, Note_on_c, 2, 62, 0
8, 116736, Note_on_c, 2, 59, 0
8, 116760, Note_on_c, 2, 59, 105
8, 116760, Note_on_c, 2, 62, 105
8, 116856, Note_on_c, 2, 62, 0
8, 116856, Note_on_c, 2, 59, 0
8, 116880, Note_on_c, 2, 62, 105
8, 116880, Note_on_c, 2, 59, 105
8, 116976, Note_on_c, 2, 59, 0
8, 116976, Note_on_c, 2, 62, 0
8, 117000, Note_on_c, 2, 59, 105
8, 117000, Note_on_c, 2, 62, 105
8, 117096, Note_on_c, 2, 62, 0
8, 117096, Note_on_c, 2, 59, 0
8, 117120, Note_on_c, 2, 60, 105
8, 117120, Note_on_c, 2, 62, 105
8, 117216, Note_on_c, 2, 62, 0
8, 117216, Note_on_c, 2, 60, 0
8, 117240, Note_on_c, 2, 60, 105
8, 117240, Note_on_c, 2, 62, 105
8, 117336, Note_on_c, 2, 62, 0
8, 117336, Note_on_c, 2, 60, 0
8, 117360, Note_on_c, 2, 60, 105
8, 117360, Note_on_c, 2, 62, 105
8, 117456, Note_on_c, 2, 62, 0
8, 117456, Note_on_c, 2, 60, 0
8, 117480, Note_on_c, 2, 62, 105
8, 117480, Note_on_c, 2, 60, 105
8, 117576, Note_on_c, 2, 60, 0
8, 117576, Note_on_c, 2, 62, 0
8, 117600, Note_on_c, 2, 62, 105
8, 117600, Note_on_c, 2, 60, 105
8, 117696, Note_on_c, 2, 60, 0
8, 117696, Note_on_c, 2, 62, 0
8, 117720, Note_on_c, 2, 62, 105
8, 117720, Note_on_c, 2, 60, 105
8, 117816, Note_on_c, 2, 60, 0
8, 117816, Note_on_c, 2, 62, 0
8, 117840, Note_on_c, 2, 62, 105
8, 117840, Note_on_c, 2, 60, 105
8, 117936, Note_on_c, 2, 60, 0
8, 117936, Note_on_c, 2, 62, 0
8, 117960, Note_on_c, 2, 62, 105
8, 117960, Note_on_c, 2, 60, 105
8, 118056, Note_on_c, 2, 60, 0
8, 118056, Note_on_c, 2, 62, 0
8, 118080, Note_on_c, 2, 62, 105
8, 118080, Note_on_c, 2, 60, 105
8, 118176, Note_on_c, 2, 60, 0
8, 118176, Note_on_c, 2, 62, 0
8, 118200, Note_on_c, 2, 60, 105
8, 118200, Note_on_c, 2, 62, 105
8, 118296, Note_on_c, 2, 62, 0
8, 118296, Note_on_c, 2, 60, 0
8, 118320, Note_on_c, 2, 60, 105
8, 118320, Note_on_c, 2, 62, 105
8, 118416, Note_on_c, 2, 62, 0
8, 118416, Note_on_c, 2, 60, 0
8, 118440, Note_on_c, 2, 60, 105
8, 118440, Note_on_c, 2, 62, 105
8, 118536, Note_on_c, 2, 62, 0
8, 118536, Note_on_c, 2, 60, 0
8, 118560, Note_on_c, 2, 60, 105
8, 118560, Note_on_c, 2, 62, 105
8, 118656, Note_on_c, 2, 62, 0
8, 118656, Note_on_c, 2, 60, 0
8, 118680, Note_on_c, 2, 60, 105
8, 118680, Note_on_c, 2, 62, 105
8, 118776, Note_on_c, 2, 62, 0
8, 118776, Note_on_c, 2, 60, 0
8, 118800, Note_on_c, 2, 60, 105
8, 118800, Note_on_c, 2, 62, 105
8, 118896, Note_on_c, 2, 62, 0
8, 118896, Note_on_c, 2, 60, 0
8, 118920, Note_on_c, 2, 62, 105
8, 118920, Note_on_c, 2, 60, 105
8, 119016, Note_on_c, 2, 60, 0
8, 119016, Note_on_c, 2, 62, 0
8, 119040, Note_on_c, 2, 62, 105
8, 119040, Note_on_c, 2, 59, 105
8, 119136, Note_on_c, 2, 59, 0
8, 119136, Note_on_c, 2, 62, 0
8, 119160, Note_on_c, 2, 62, 105
8, 119160, Note_on_c, 2, 59, 105
8, 119256, Note_on_c, 2, 59, 0
8, 119256, Note_on_c, 2, 62, 0
8, 119280, Note_on_c, 2, 59, 105
8, 119280, Note_on_c, 2, 62, 105
8, 119376, Note_on_c, 2, 62, 0
8, 119376, Note_on_c, 2, 59, 0
8, 119400, Note_on_c, 2, 59, 105
8, 119400, Note_on_c, 2, 62, 105
8, 119496, Note_on_c, 2, 62, 0
8, 119496, Note_on_c, 2, 59, 0
8, 119520, Note_on_c, 2, 62, 105
8, 119520, Note_on_c, 2, 59, 105
8, 119616, Note_on_c, 2, 59, 0
8, 119616, Note_on_c, 2, 62, 0
8, 119640, Note_on_c, 2, 62, 105
8, 119640, Note_on_c, 2, 59, 105
8, 119736, Note_on_c, 2, 59, 0
8, 119736, Note_on_c, 2, 62, 0
8, 119760, Note_on_c, 2, 62, 105
8, 119760, Note_on_c, 2, 59, 105
8, 119856, Note_on_c, 2, 59, 0
8, 119856, Note_on_c, 2, 62, 0
8, 119880, Note_on_c, 2, 59, 105
8, 119880, Note_on_c, 2, 62, 105
8, 119976, Note_on_c, 2, 62, 0
8, 119976, Note_on_c, 2, 59, 0
8, 120000, Note_on_c, 2, 62, 105
8, 120000, Note_on_c, 2, 59, 105
8, 120096, Note_on_c, 2, 59, 0
8, 120096, Note_on_c, 2, 62, 0
8, 120120, Note_on_c, 2, 62, 105
8, 120120, Note_on_c, 2, 59, 105
8, 120216, Note_on_c, 2, 59, 0
8, 120216, Note_on_c, 2, 62, 0
8, 120240, Note_on_c, 2, 62, 105
8, 120240, Note_on_c, 2, 59, 105
8, 120336, Note_on_c, 2, 59, 0
8, 120336, Note_on_c, 2, 62, 0
8, 120360, Note_on_c, 2, 59, 105
8, 120360, Note_on_c, 2, 62, 105
8, 120456, Note_on_c, 2, 62, 0
8, 120456, Note_on_c, 2, 59, 0
8, 120480, Note_on_c, 2, 59, 105
8, 120480, Note_on_c, 2, 62, 105
8, 120576, Note_on_c, 2, 62, 0
8, 120576, Note_on_c, 2, 59, 0
8, 120600, Note_on_c, 2, 59, 105
8, 120600, Note_on_c, 2, 62, 105
8, 120696, Note_on_c, 2, 62, 0
8, 120696, Note_on_c, 2, 59, 0
8, 120720, Note_on_c, 2, 59, 105
8, 120720, Note_on_c, 2, 62, 105
8, 120816, Note_on_c, 2, 62, 0
8, 120816, Note_on_c, 2, 59, 0
8, 120840, Note_on_c, 2, 62, 105
8, 120840, Note_on_c, 2, 59, 105
8, 120936, Note_on_c, 2, 59, 0
8, 120936, Note_on_c, 2, 62, 0
8, 120960, Note_on_c, 2, 60, 105
8, 120960, Note_on_c, 2, 62, 105
8, 121056, Note_on_c, 2, 62, 0
8, 121056, Note_on_c, 2, 60, 0
8, 121080, Note_on_c, 2, 62, 105
8, 121080, Note_on_c, 2, 60, 105
8, 121176, Note_on_c, 2, 60, 0
8, 121176, Note_on_c, 2, 62, 0
8, 121200, Note_on_c, 2, 60, 105
8, 121200, Note_on_c, 2, 62, 105
8, 121296, Note_on_c, 2, 62, 0
8, 121296, Note_on_c, 2, 60, 0
8, 121320, Note_on_c, 2, 60, 105
8, 121320, Note_on_c, 2, 62, 105
8, 121416, Note_on_c, 2, 62, 0
8, 121416, Note_on_c, 2, 60, 0
8, 121440, Note_on_c, 2, 60, 105
8, 121440, Note_on_c, 2, 62, 105
8, 121536, Note_on_c, 2, 62, 0
8, 121536, Note_on_c, 2, 60, 0
8, 121560, Note_on_c, 2, 60, 105
8, 121560, Note_on_c, 2, 62, 105
8, 121656, Note_on_c, 2, 62, 0
8, 121656, Note_on_c, 2, 60, 0
8, 121680, Note_on_c, 2, 62, 105
8, 121680, Note_on_c, 2, 60, 105
8, 121776, Note_on_c, 2, 60, 0
8, 121776, Note_on_c, 2, 62, 0
8, 121800, Note_on_c, 2, 62, 105
8, 121800, Note_on_c, 2, 60, 105
8, 121896, Note_on_c, 2, 60, 0
8, 121896, Note_on_c, 2, 62, 0
8, 121920, Note_on_c, 2, 62, 105
8, 121920, Note_on_c, 2, 60, 105
8, 122016, Note_on_c, 2, 60, 0
8, 122016, Note_on_c, 2, 62, 0
8, 122040, Note_on_c, 2, 60, 105
8, 122040, Note_on_c, 2, 62, 105
8, 122136, Note_on_c, 2, 62, 0
8, 122136, Note_on_c, 2, 60, 0
8, 122160, Note_on_c, 2, 62, 105
8, 122160, Note_on_c, 2, 60, 105
8, 122256, Note_on_c, 2, 60, 0
8, 122256, Note_on_c, 2, 62, 0
8, 122280, Note_on_c, 2, 62, 105
8, 122280, Note_on_c, 2, 60, 105
8, 122376, Note_on_c, 2, 60, 0
8, 122376, Note_on_c, 2, 62, 0
8, 122400, Note_on_c, 2, 60, 105
8, 122400, Note_on_c, 2, 62, 105
8, 122496, Note_on_c, 2, 62, 0
8, 122496, Note_on_c, 2, 60, 0
8, 122520, Note_on_c, 2, 60, 105
8, 122520, Note_on_c, 2, 62, 105
8, 122616, Note_on_c, 2, 62, 0
8, 122616, Note_on_c, 2, 60, 0
8, 122640, Note_on_c, 2, 60, 105
8, 122640, Note_on_c, 2, 62, 105
8, 122736, Note_on_c, 2, 62, 0
8, 122736, Note_on_c, 2, 60, 0
8, 122760, Note_on_c, 2, 62, 105
8, 122760, Note_on_c, 2, 60, 105
8, 122856, Note_on_c, 2, 60, 0
8, 122856, Note_on_c, 2, 62, 0
8, 122880, Note_on_c, 2, 59, 105
8, 122880, Note_on_c, 2, 62, 105
8, 123264, Note_on_c, 2, 62, 0
8, 123264, Note_on_c, 2, 59, 0
8, 123360, Note_on_c, 2, 72, 105
8, 123504, Note_on_c, 2, 72, 0
8, 123600, Note_on_c, 2, 72, 105
8, 123744, Note_on_c, 2, 72, 0
8, 123840, Note_on_c, 2, 74, 105
8, 123984, Note_on_c, 2, 74, 0
8, 124080, Note_on_c, 2, 74, 105
8, 124224, Note_on_c, 2, 74, 0
8, 124320, Note_on_c, 2, 72, 105
8, 124560, Note_on_c, 2, 72, 0
8, 124560, Note_on_c, 2, 71, 105
8, 124680, Note_on_c, 2, 71, 0
8, 124680, Note_on_c, 2, 69, 105
8, 124776, Note_on_c, 2, 69, 0
8, 124800, Note_on_c, 2, 67, 105
8, 124944, Note_on_c, 2, 67, 0
8, 125040, Note_on_c, 2, 67, 105
8, 125184, Note_on_c, 2, 67, 0
8, 125280, Note_on_c, 2, 66, 105
8, 125424, Note_on_c, 2, 66, 0
8, 125520, Note_on_c, 2, 66, 105
8, 125664, Note_on_c, 2, 66, 0
8, 125760, Note_on_c, 2, 67, 92
8, 126144, Note_on_c, 2, 67, 0
8, 126720, Note_on_c, 2, 71, 58
8, 127680, Note_on_c, 2, 71, 0
8, 127680, Note_on_c, 2, 72, 58
8, 128448, Note_on_c, 2, 72, 0
8, 128640, Note_on_c, 2, 71, 58
8, 128760, Note_on_c, 2, 71, 0
8, 128760, Note_on_c, 2, 69, 58
8, 128994, Note_on_c, 2, 69, 0
8, 129120, Note_on_c, 2, 69, 58
8, 129432, Note_on_c, 2, 69, 0
8, 129600, Note_on_c, 2, 69, 58
8, 129720, Note_on_c, 2, 69, 0
8, 129720, Note_on_c, 2, 67, 58
8, 129954, Note_on_c, 2, 67, 0
8, 130080, Note_on_c, 2, 67, 58
8, 130392, Note_on_c, 2, 67, 0
8, 130560, Note_on_c, 2, 64, 58
8, 130872, Note_on_c, 2, 64, 0
8, 131040, Note_on_c, 2, 64, 58
8, 131352, Note_on_c, 2, 64, 0
8, 131520, Note_on_c, 2, 60, 58
8, 131832, Note_on_c, 2, 60, 0
8, 132000, Note_on_c, 2, 57, 58
8, 132312, Note_on_c, 2, 57, 0
8, 132480, Note_on_c, 2, 62, 58
8, 132672, Note_on_c, 2, 62, 0
8, 132960, Note_on_c, 2, 66, 58
8, 133152, Note_on_c, 2, 66, 0
8, 133440, Note_on_c, 2, 67, 58
8, 133632, Note_on_c, 2, 67, 0
8, 134400, Note_on_c, 2, 71, 58
8, 135360, Note_on_c, 2, 71, 0
8, 135360, Note_on_c, 2, 72, 58
8, 136128, Note_on_c, 2, 72, 0
8, 136320, Note_on_c, 2, 71, 58
8, 136560, Note_on_c, 2, 71, 0
8, 136560, Note_on_c, 2, 69, 58
8, 136716, Note_on_c, 2, 69, 0
8, 136800, Note_on_c, 2, 69, 58
8, 136956, Note_on_c, 2, 69, 0
8, 137040, Note_on_c, 2, 69, 58
8, 137196, Note_on_c, 2, 69, 0
8, 137280, Note_on_c, 2, 69, 58
8, 137520, Note_on_c, 2, 69, 0
8, 137520, Note_on_c, 2, 67, 58
8, 137676, Note_on_c, 2, 67, 0
8, 137760, Note_on_c, 2, 67, 58
8, 137916, Note_on_c, 2, 67, 0
8, 138000, Note_on_c, 2, 67, 58
8, 138156, Note_on_c, 2, 67, 0
8, 138240, Note_on_c, 2, 64, 58
8, 138552, Note_on_c, 2, 64, 0
8, 138720, Note_on_c, 2, 64, 58
8, 138876, Note_on_c, 2, 64, 0
8, 138960, Note_on_c, 2, 64, 58
8, 139116, Note_on_c, 2, 64, 0
8, 139200, Note_on_c, 2, 60, 58
8, 139512, Note_on_c, 2, 60, 0
8, 139680, Note_on_c, 2, 60, 58
8, 139836, Note_on_c, 2, 60, 0
8, 139920, Note_on_c, 2, 60, 58
8, 140076, Note_on_c, 2, 60, 0
8, 140160, Note_on_c, 2, 59, 121
8, 141312, Note_on_c, 2, 59, 0
8, 141360, Note_on_c, 2, 60, 72
8, 141420, Note_on_c, 2, 60, 0
8, 141420, Note_on_c, 2, 59, 72
8, 141480, Note_on_c, 2, 59, 0
8, 141480, Note_on_c, 2, 57, 72
8, 141540, Note_on_c, 2, 57, 0
8, 141540, Note_on_c, 2, 59, 72
8, 141600, Note_on_c, 2, 59, 0
8, 141600, Note_on_c, 2, 60, 72
8, 141840, Note_on_c, 2, 60, 0
8, 141840, Note_on_c, 2, 57, 72
8, 142032, Note_on_c, 2, 57, 0
8, 142080, Note_on_c, 2, 67, 121
8, 143232, Note_on_c, 2, 67, 0
8, 143280, Note_on_c, 2, 69, 72
8, 143340, Note_on_c, 2, 69, 0
8, 143340, Note_on_c, 2, 67, 72
8, 143400, Note_on_c, 2, 67, 0
8, 143400, Note_on_c, 2, 66, 72
8, 143460, Note_on_c, 2, 66, 0
8, 143460, Note_on_c, 2, 67, 72
8, 143520, Note_on_c, 2, 67, 0
8, 143520, Note_on_c, 2, 69, 72
8, 143760, Note_on_c, 2, 69, 0
8, 143760, Note_on_c, 2, 66, 72
8, 143952, Note_on_c, 2, 66, 0
8, 144000, Note_on_c, 2, 71, 72
8, 144096, Note_on_c, 2, 71, 0
8, 144120, Note_on_c, 2, 71, 72
8, 144216, Note_on_c, 2, 71, 0
8, 144240, Note_on_c, 2, 71, 72
8, 144336, Note_on_c, 2, 71, 0
8, 144360, Note_on_c, 2, 71, 72
8, 144456, Note_on_c, 2, 71, 0
8, 144480, Note_on_c, 2, 71, 72
8, 144576, Note_on_c, 2, 71, 0
8, 144600, Note_on_c, 2, 71, 72
8, 144696, Note_on_c, 2, 71, 0
8, 144720, Note_on_c, 2, 71, 72
8, 144816, Note_on_c, 2, 71, 0
8, 144840, Note_on_c, 2, 71, 72
8, 144936, Note_on_c, 2, 71, 0
8, 144960, Note_on_c, 2, 72, 81
8, 145056, Note_on_c, 2, 72, 0
8, 145080, Note_on_c, 2, 72, 81
8, 145176, Note_on_c, 2, 72, 0
8, 145200, Note_on_c, 2, 72, 81
8, 145296, Note_on_c, 2, 72, 0
8, 145320, Note_on_c, 2, 72, 81
8, 145416, Note_on_c, 2, 72, 0
8, 145440, Note_on_c, 2, 72, 81
8, 145536, Note_on_c, 2, 72, 0
8, 145560, Note_on_c, 2, 72, 81
8, 145656, Note_on_c, 2, 72, 0
8, 145680, Note_on_c, 2, 72, 81
8, 145776, Note_on_c, 2, 72, 0
8, 145800, Note_on_c, 2, 72, 81
8, 145896, Note_on_c, 2, 72, 0
8, 145920, Note_on_c, 2, 71, 92
8, 146016, Note_on_c, 2, 71, 0
8, 146040, Note_on_c, 2, 71, 92
8, 146136, Note_on_c, 2, 71, 0
8, 146160, Note_on_c, 2, 71, 92
8, 146256, Note_on_c, 2, 71, 0
8, 146280, Note_on_c, 2, 71, 92
8, 146376, Note_on_c, 2, 71, 0
8, 146400, Note_on_c, 2, 74, 92
8, 146496, Note_on_c, 2, 74, 0
8, 146520, Note_on_c, 2, 74, 92
8, 146616, Note_on_c, 2, 74, 0
8, 146640, Note_on_c, 2, 74, 92
8, 146736, Note_on_c, 2, 74, 0
8, 146760, Note_on_c, 2, 74, 105
8, 146856, Note_on_c, 2, 74, 0
8, 146880, Note_on_c, 2, 74, 105
8, 146976, Note_on_c, 2, 74, 0
8, 147000, Note_on_c, 2, 74, 105
8, 147096, Note_on_c, 2, 74, 0
8, 147120, Note_on_c, 2, 74, 105
8, 147216, Note_on_c, 2, 74, 0
8, 147240, Note_on_c, 2, 74, 105
8, 147336, Note_on_c, 2, 74, 0
8, 147360, Note_on_c, 2, 79, 105
8, 147456, Note_on_c, 2, 79, 0
8, 147480, Note_on_c, 2, 79, 105
8, 147576, Note_on_c, 2, 79, 0
8, 147600, Note_on_c, 2, 79, 105
8, 147696, Note_on_c, 2, 79, 0
8, 147720, Note_on_c, 2, 79, 105
8, 147816, Note_on_c, 2, 79, 0
8, 147840, Note_on_c, 2, 78, 105
8, 147936, Note_on_c, 2, 78, 0
8, 147960, Note_on_c, 2, 78, 105
8, 148056, Note_on_c, 2, 78, 0
8, 148080, Note_on_c, 2, 78, 105
8, 148176, Note_on_c, 2, 78, 0
8, 148200, Note_on_c, 2, 78, 105
8, 148296, Note_on_c, 2, 78, 0
8, 148320, Note_on_c, 2, 78, 105
8, 148416, Note_on_c, 2, 78, 0
8, 148440, Note_on_c, 2, 78, 105
8, 148536, Note_on_c, 2, 78, 0
8, 148560, Note_on_c, 2, 78, 105
8, 148656, Note_on_c, 2, 78, 0
8, 148680, Note_on_c, 2, 78, 105
8, 148776, Note_on_c, 2, 78, 0
8, 148800, Note_on_c, 2, 79, 105
8, 148896, Note_on_c, 2, 79, 0
8, 148920, Note_on_c, 2, 79, 105
8, 149016, Note_on_c, 2, 79, 0
8, 149040, Note_on_c, 2, 79, 105
8, 149136, Note_on_c, 2, 79, 0
8, 149160, Note_on_c, 2, 79, 105
8, 149256, Note_on_c, 2, 79, 0
8, 149280, Note_on_c, 2, 79, 105
8, 149376, Note_on_c, 2, 79, 0
8, 149400, Note_on_c, 2, 79, 105
8, 149496, Note_on_c, 2, 79, 0
8, 149520, Note_on_c, 2, 79, 105
8, 149616, Note_on_c, 2, 79, 0
8, 149640, Note_on_c, 2, 79, 105
8, 149736, Note_on_c, 2, 79, 0
8, 149760, Note_on_c, 2, 78, 105
8, 149856, Note_on_c, 2, 78, 0
8, 149880, Note_on_c, 2, 78, 105
8, 149976, Note_on_c, 2, 78, 0
8, 150000, Note_on_c, 2, 78, 105
8, 150096, Note_on_c, 2, 78, 0
8, 150120, Note_on_c, 2, 78, 105
8, 150216, Note_on_c, 2, 78, 0
8, 150240, Note_on_c, 2, 78, 105
8, 150336, Note_on_c, 2, 78, 0
8, 150360, Note_on_c, 2, 78, 105
8, 150456, Note_on_c, 2, 78, 0
8, 150480, Note_on_c, 2, 78, 105
8, 150576, Note_on_c, 2, 78, 0
8, 150600, Note_on_c, 2, 78, 105
8, 150696, Note_on_c, 2, 78, 0
8, 150720, Note_on_c, 2, 79, 105
8, 150816, Note_on_c, 2, 79, 0
8, 150840, Note_on_c, 2, 79, 105
8, 150936, Note_on_c, 2, 79, 0
8, 150960, Note_on_c, 2, 79, 105
8, 151056, Note_on_c, 2, 79, 0
8, 151080, Note_on_c, 2, 79, 105
8, 151176, Note_on_c, 2, 79, 0
8, 151200, Note_on_c, 2, 79, 105
8, 151296, Note_on_c, 2, 79, 0
8, 151320, Note_on_c, 2, 79, 105
8, 151416, Note_on_c, 2, 79, 0
8, 151440, Note_on_c, 2, 79, 105
8, 151536, Note_on_c, 2, 79, 0
8, 151560, Note_on_c, 2, 79, 105
8, 151656, Note_on_c, 2, 79, 0
8, 151680, Note_on_c, 2, 78, 105
8, 151680, Note_on_c, 2, 74, 105
8, 151824, Note_on_c, 2, 74, 0
8, 151824, Note_on_c, 2, 78, 0
8, 151920, Note_on_c, 2, 78, 92
8, 151920, Note_on_c, 2, 74, 92
8, 152304, Note_on_c, 2, 74, 0
8, 152304, Note_on_c, 2, 78, 0
8, 152400, Note_on_c, 2, 78, 92
8, 152400, Note_on_c, 2, 74, 92
8, 152784, Note_on_c, 2, 74, 0
8, 152784, Note_on_c, 2, 78, 0
8, 152880, Note_on_c, 2, 74, 92
8, 152880, Note_on_c, 2, 78, 92
8, 153264, Note_on_c, 2, 78, 0
8, 153264, Note_on_c, 2, 74, 0
8, 153360, Note_on_c, 2, 74, 92
8, 153360, Note_on_c, 2, 78, 92
8, 153600, Note_on_c, 2, 78, 0
8, 153600, Note_on_c, 2, 76, 92
8, 153792, Note_on_c, 2, 76, 0
8, 153792, Note_on_c, 2, 74, 0
8, 153840, Note_on_c, 2, 76, 92
8, 153840, Note_on_c, 2, 74, 92
8, 154224, Note_on_c, 2, 74, 0
8, 154224, Note_on_c, 2, 76, 0
8, 154320, Note_on_c, 2, 76, 92
8, 154320, Note_on_c, 2, 74, 92
8, 154704, Note_on_c, 2, 74, 0
8, 154704, Note_on_c, 2, 76, 0
8, 154800, Note_on_c, 2, 76, 92
8, 154800, Note_on_c, 2, 74, 92
8, 155184, Note_on_c, 2, 74, 0
8, 155184, Note_on_c, 2, 76, 0
8, 155280, Note_on_c, 2, 76, 92
8, 155280, Note_on_c, 2, 74, 92
8, 155424, Note_on_c, 2, 76, 0
8, 155472, Note_on_c, 2, 74, 0
8, 155520, Note_on_c, 2, 73, 105
8, 155520, Note_on_c, 2, 76, 105
8, 155616, Note_on_c, 2, 76, 0
8, 155616, Note_on_c, 2, 73, 0
8, 155640, Note_on_c, 2, 76, 105
8, 155640, Note_on_c, 2, 73, 105
8, 155736, Note_on_c, 2, 73, 0
8, 155736, Note_on_c, 2, 76, 0
8, 155760, Note_on_c, 2, 76, 105
8, 155760, Note_on_c, 2, 73, 105
8, 155856, Note_on_c, 2, 73, 0
8, 155856, Note_on_c, 2, 76, 0
8, 155880, Note_on_c, 2, 73, 105
8, 155880, Note_on_c, 2, 76, 105
8, 155976, Note_on_c, 2, 76, 0
8, 155976, Note_on_c, 2, 73, 0
8, 156000, Note_on_c, 2, 78, 105
8, 156000, Note_on_c, 2, 74, 105
8, 156096, Note_on_c, 2, 74, 0
8, 156096, Note_on_c, 2, 78, 0
8, 156120, Note_on_c, 2, 74, 105
8, 156120, Note_on_c, 2, 78, 105
8, 156216, Note_on_c, 2, 78, 0
8, 156216, Note_on_c, 2, 74, 0
8, 156240, Note_on_c, 2, 74, 105
8, 156240, Note_on_c, 2, 78, 105
8, 156336, Note_on_c, 2, 78, 0
8, 156336, Note_on_c, 2, 74, 0
8, 156360, Note_on_c, 2, 78, 105
8, 156360, Note_on_c, 2, 74, 105
8, 156456, Note_on_c, 2, 74, 0
8, 156456, Note_on_c, 2, 78, 0
8, 156480, Note_on_c, 2, 76, 105
8, 156480, Note_on_c, 2, 73, 105
8, 156576, Note_on_c, 2, 73, 0
8, 156576, Note_on_c, 2, 76, 0
8, 156600, Note_on_c, 2, 73, 105
8, 156600, Note_on_c, 2, 76, 105
8, 156696, Note_on_c, 2, 76, 0
8, 156696, Note_on_c, 2, 73, 0
8, 156720, Note_on_c, 2, 73, 105
8, 156720, Note_on_c, 2, 76, 105
8, 156816, Note_on_c, 2, 76, 0
8, 156816, Note_on_c, 2, 73, 0
8, 156840, Note_on_c, 2, 76, 105
8, 156840, Note_on_c, 2, 73, 105
8, 156936, Note_on_c, 2, 73, 0
8, 156936, Note_on_c, 2, 76, 0
8, 156960, Note_on_c, 2, 78, 105
8, 156960, Note_on_c, 2, 74, 105
8, 157056, Note_on_c, 2, 74, 0
8, 157056, Note_on_c, 2, 78, 0
8, 157080, Note_on_c, 2, 78, 105
8, 157080, Note_on_c, 2, 74, 105
8, 157176, Note_on_c, 2, 74, 0
8, 157176, Note_on_c, 2, 78, 0
8, 157200, Note_on_c, 2, 74, 105
8, 157200, Note_on_c, 2, 78, 105
8, 157296, Note_on_c, 2, 78, 0
8, 157296, Note_on_c, 2, 74, 0
8, 157320, Note_on_c, 2, 78, 105
8, 157320, Note_on_c, 2, 74, 105
8, 157416, Note_on_c, 2, 74, 0
8, 157416, Note_on_c, 2, 78, 0
8, 157440, Note_on_c, 2, 76, 105
8, 157440, Note_on_c, 2, 73, 105
8, 157584, Note_on_c, 2, 73, 0
8, 157584, Note_on_c, 2, 76, 0
8, 157680, Note_on_c, 2, 69, 92
8, 157824, Note_on_c, 2, 69, 0
8, 157920, Note_on_c, 2, 69, 92
8, 158064, Note_on_c, 2, 69, 0
8, 158160, Note_on_c, 2, 69, 92
8, 158304, Note_on_c, 2, 69, 0
8, 158400, Note_on_c, 2, 69, 92
8, 158784, Note_on_c, 2, 69, 0
8, 159360, Note_on_c, 2, 69, 92
8, 160080, Note_on_c, 2, 69, 0
8, 160080, Note_on_c, 2, 67, 72
8, 160160, Note_on_c, 2, 67, 0
8, 160160, Note_on_c, 2, 66, 72
8, 160240, Note_on_c, 2, 66, 0
8, 160240, Note_on_c, 2, 64, 72
8, 160320, Note_on_c, 2, 64, 0
8, 160320, Note_on_c, 2, 62, 72
8, 160476, Note_on_c, 2, 62, 0
8, 160800, Note_on_c, 2, 71, 72
8, 160956, Note_on_c, 2, 71, 0
8, 161280, Note_on_c, 2, 67, 72
8, 161436, Note_on_c, 2, 67, 0
8, 161760, Note_on_c, 2, 64, 72
8, 161916, Note_on_c, 2, 64, 0
8, 162240, Note_on_c, 2, 69, 72
8, 162396, Note_on_c, 2, 69, 0
8, 163200, Note_on_c, 2, 66, 72
8, 163920, Note_on_c, 2, 66, 0
8, 163920, Note_on_c, 2, 64, 72
8, 164000, Note_on_c, 2, 64, 0
8, 164000, Note_on_c, 2, 62, 72
8, 164080, Note_on_c, 2, 62, 0
8, 164080, Note_on_c, 2, 61, 72
8, 164160, Note_on_c, 2, 61, 0
8, 164160, Note_on_c, 2, 59, 72
8, 164316, Note_on_c, 2, 59, 0
8, 164640, Note_on_c, 2, 67, 72
8, 164796, Note_on_c, 2, 67, 0
8, 165120, Note_on_c, 2, 66, 72
8, 166080, Note_on_c, 2, 66, 0
8, 166080, Note_on_c, 2, 64, 72
8, 166464, Note_on_c, 2, 64, 0
8, 167040, Note_on_c, 2, 69, 72
8, 167760, Note_on_c, 2, 69, 0
8, 167760, Note_on_c, 2, 67, 72
8, 167840, Note_on_c, 2, 67, 0
8, 167840, Note_on_c, 2, 66, 72
8, 167920, Note_on_c, 2, 66, 0
8, 167920, Note_on_c, 2, 64, 72
8, 168000, Note_on_c, 2, 64, 0
8, 168000, Note_on_c, 2, 62, 72
8, 168156, Note_on_c, 2, 62, 0
8, 168480, Note_on_c, 2, 71, 72
8, 168636, Note_on_c, 2, 71, 0
8, 168960, Note_on_c, 2, 67, 72
8, 169116, Note_on_c, 2, 67, 0
8, 169440, Note_on_c, 2, 64, 72
8, 169596, Note_on_c, 2, 64, 0
8, 169920, Note_on_c, 2, 69, 72
8, 170076, Note_on_c, 2, 69, 0
8, 170640, Note_on_c, 2, 67, 72
8, 170832, Note_on_c, 2, 67, 0
8, 170880, Note_on_c, 2, 67, 72
8, 171120, Note_on_c, 2, 67, 0
8, 171120, Note_on_c, 2, 66, 72
8, 171264, Note_on_c, 2, 66, 0
8, 171600, Note_on_c, 2, 79, 72
8, 171744, Note_on_c, 2, 79, 0
8, 171840, Note_on_c, 2, 79, 72
8, 172080, Note_on_c, 2, 79, 0
8, 172080, Note_on_c, 2, 78, 72
8, 172272, Note_on_c, 2, 78, 0
8, 172560, Note_on_c, 2, 67, 72
8, 172704, Note_on_c, 2, 67, 0
8, 172800, Note_on_c, 2, 66, 58
8, 172956, Note_on_c, 2, 66, 0
8, 173040, Note_on_c, 2, 66, 58
8, 173196, Note_on_c, 2, 66, 0
8, 173280, Note_on_c, 2, 67, 58
8, 173436, Note_on_c, 2, 67, 0
8, 173520, Note_on_c, 2, 67, 58
8, 173676, Note_on_c, 2, 67, 0
8, 173760, Note_on_c, 2, 69, 58
8, 173916, Note_on_c, 2, 69, 0
8, 174000, Note_on_c, 2, 69, 58
8, 174156, Note_on_c, 2, 69, 0
8, 174240, Note_on_c, 2, 66, 58
8, 174396, Note_on_c, 2, 66, 0
8, 174480, Note_on_c, 2, 66, 58
8, 174636, Note_on_c, 2, 66, 0
8, 174720, Note_on_c, 2, 64, 58
8, 174876, Note_on_c, 2, 64, 0
8, 174960, Note_on_c, 2, 64, 58
8, 175116, Note_on_c, 2, 64, 0
8, 175200, Note_on_c, 2, 66, 58
8, 175356, Note_on_c, 2, 66, 0
8, 175440, Note_on_c, 2, 66, 58
8, 175596, Note_on_c, 2, 66, 0
8, 175680, Note_on_c, 2, 67, 58
8, 175836, Note_on_c, 2, 67, 0
8, 175920, Note_on_c, 2, 67, 58
8, 176076, Note_on_c, 2, 67, 0
8, 176160, Note_on_c, 2, 64, 58
8, 176316, Note_on_c, 2, 64, 0
8, 176400, Note_on_c, 2, 64, 58
8, 176556, Note_on_c, 2, 64, 0
8, 176640, Note_on_c, 2, 66, 58
8, 176796, Note_on_c, 2, 66, 0
8, 176880, Note_on_c, 2, 66, 58
8, 177036, Note_on_c, 2, 66, 0
8, 177120, Note_on_c, 2, 67, 58
8, 177276, Note_on_c, 2, 67, 0
8, 177360, Note_on_c, 2, 67, 58
8, 177516, Note_on_c, 2, 67, 0
8, 177600, Note_on_c, 2, 69, 58
8, 177756, Note_on_c, 2, 69, 0
8, 177840, Note_on_c, 2, 69, 58
8, 177996, Note_on_c, 2, 69, 0
8, 178080, Note_on_c, 2, 66, 58
8, 178236, Note_on_c, 2, 66, 0
8, 178320, Note_on_c, 2, 66, 58
8, 178476, Note_on_c, 2, 66, 0
8, 178560, Note_on_c, 2, 64, 58
8, 178716, Note_on_c, 2, 64, 0
8, 178800, Note_on_c, 2, 64, 58
8, 178956, Note_on_c, 2, 64, 0
8, 179040, Note_on_c, 2, 66, 58
8, 179196, Note_on_c, 2, 66, 0
8, 179280, Note_on_c, 2, 66, 58
8, 179436, Note_on_c, 2, 66, 0
8, 179520, Note_on_c, 2, 67, 58
8, 179676, Note_on_c, 2, 67, 0
8, 179760, Note_on_c, 2, 67, 58
8, 179916, Note_on_c, 2, 67, 0
8, 180000, Note_on_c, 2, 64, 58
8, 180156, Note_on_c, 2, 64, 0
8, 180240, Note_on_c, 2, 64, 58
8, 180396, Note_on_c, 2, 64, 0
8, 180480, Note_on_c, 2, 66, 58
8, 180864, Note_on_c, 2, 66, 0
8, 181440, Note_on_c, 2, 71, 105
8, 181440, Note_on_c, 2, 78, 105
8, 182208, Note_on_c, 2, 71, 0
8, 182400, Note_on_c, 2, 78, 0
8, 182400, Note_on_c, 2, 76, 105
8, 182784, Note_on_c, 2, 76, 0
8, 183360, Note_on_c, 2, 69, 105
8, 183360, Note_on_c, 2, 76, 105
8, 184128, Note_on_c, 2, 69, 0
8, 184320, Note_on_c, 2, 76, 0
8, 184320, Note_on_c, 2, 74, 105
8, 184476, Note_on_c, 2, 74, 0
8, 184560, Note_on_c, 2, 78, 105
8, 184716, Note_on_c, 2, 78, 0
8, 184800, Note_on_c, 2, 79, 105
8, 184956, Note_on_c, 2, 79, 0
8, 185040, Note_on_c, 2, 81, 105
8, 185196, Note_on_c, 2, 81, 0
8, 185280, Note_on_c, 2, 79, 105
8, 185520, Note_on_c, 2, 79, 0
8, 185520, Note_on_c, 2, 81, 105
8, 185640, Note_on_c, 2, 81, 0
8, 185640, Note_on_c, 2, 83, 105
8, 185760, Note_on_c, 2, 83, 0
8, 185760, Note_on_c, 2, 81, 105
8, 185904, Note_on_c, 2, 81, 0
8, 186000, Note_on_c, 2, 79, 105
8, 186144, Note_on_c, 2, 79, 0
8, 186240, Note_on_c, 2, 79, 105
8, 186480, Note_on_c, 2, 79, 0
8, 186480, Note_on_c, 2, 78, 105
8, 186624, Note_on_c, 2, 78, 0
8, 186720, Note_on_c, 2, 74, 105
8, 186864, Note_on_c, 2, 74, 0
8, 186960, Note_on_c, 2, 78, 105
8, 187104, Note_on_c, 2, 78, 0
8, 187200, Note_on_c, 2, 78, 105
8, 187440, Note_on_c, 2, 78, 0
8, 187440, Note_on_c, 2, 76, 105
8, 187584, Note_on_c, 2, 76, 0
8, 187680, Note_on_c, 2, 74, 105
8, 187824, Note_on_c, 2, 74, 0
8, 187920, Note_on_c, 2, 73, 105
8, 188064, Note_on_c, 2, 73, 0
8, 188160, Note_on_c, 2, 74, 92
8, 188316, Note_on_c, 2, 74, 0
8, 188400, Note_on_c, 2, 66, 58
8, 188556, Note_on_c, 2, 66, 0
8, 188640, Note_on_c, 2, 67, 58
8, 188796, Note_on_c, 2, 67, 0
8, 188880, Note_on_c, 2, 67, 58
8, 189036, Note_on_c, 2, 67, 0
8, 189120, Note_on_c, 2, 69, 58
8, 189276, Note_on_c, 2, 69, 0
8, 189360, Note_on_c, 2, 69, 58
8, 189516, Note_on_c, 2, 69, 0
8, 189600, Note_on_c, 2, 66, 58
8, 189756, Note_on_c, 2, 66, 0
8, 189840, Note_on_c, 2, 66, 58
8, 189996, Note_on_c, 2, 66, 0
8, 190080, Note_on_c, 2, 64, 58
8, 190236, Note_on_c, 2, 64, 0
8, 190320, Note_on_c, 2, 64, 58
8, 190476, Note_on_c, 2, 64, 0
8, 190560, Note_on_c, 2, 66, 58
8, 190716, Note_on_c, 2, 66, 0
8, 190800, Note_on_c, 2, 66, 58
8, 190956, Note_on_c, 2, 66, 0
8, 191040, Note_on_c, 2, 67, 58
8, 191196, Note_on_c, 2, 67, 0
8, 191280, Note_on_c, 2, 67, 58
8, 191436, Note_on_c, 2, 67, 0
8, 191520, Note_on_c, 2, 64, 58
8, 191676, Note_on_c, 2, 64, 0
8, 191760, Note_on_c, 2, 64, 58
8, 191916, Note_on_c, 2, 64, 0
8, 192000, Note_on_c, 2, 66, 58
8, 192156, Note_on_c, 2, 66, 0
8, 192240, Note_on_c, 2, 66, 58
8, 192396, Note_on_c, 2, 66, 0
8, 192480, Note_on_c, 2, 67, 58
8, 192636, Note_on_c, 2, 67, 0
8, 192720, Note_on_c, 2, 67, 58
8, 192876, Note_on_c, 2, 67, 0
8, 192960, Note_on_c, 2, 69, 58
8, 193116, Note_on_c, 2, 69, 0
8, 193200, Note_on_c, 2, 69, 58
8, 193356, Note_on_c, 2, 69, 0
8, 193440, Note_on_c, 2, 66, 58
8, 193596, Note_on_c, 2, 66, 0
8, 193680, Note_on_c, 2, 66, 58
8, 193836, Note_on_c, 2, 66, 0
8, 193920, Note_on_c, 2, 64, 58
8, 194076, Note_on_c, 2, 64, 0
8, 194160, Note_on_c, 2, 64, 58
8, 194316, Note_on_c, 2, 64, 0
8, 194400, Note_on_c, 2, 66, 58
8, 194556, Note_on_c, 2, 66, 0
8, 194640, Note_on_c, 2, 66, 58
8, 194796, Note_on_c, 2, 66, 0
8, 194880, Note_on_c, 2, 67, 58
8, 195036, Note_on_c, 2, 67, 0
8, 195120, Note_on_c, 2, 67, 58
8, 195276, Note_on_c, 2, 67, 0
8, 195360, Note_on_c, 2, 64, 58
8, 195516, Note_on_c, 2, 64, 0
8, 195600, Note_on_c, 2, 64, 58
8, 195756, Note_on_c, 2, 64, 0
8, 195840, Note_on_c, 2, 66, 58
8, 196224, Note_on_c, 2, 66, 0
8, 196800, Note_on_c, 2, 71, 105
8, 196800, Note_on_c, 2, 78, 105
8, 197568, Note_on_c, 2, 71, 0
8, 197760, Note_on_c, 2, 78, 0
8, 197760, Note_on_c, 2, 76, 105
8, 198144, Note_on_c, 2, 76, 0
8, 198720, Note_on_c, 2, 69, 105
8, 198720, Note_on_c, 2, 76, 105
8, 199488, Note_on_c, 2, 69, 0
8, 199680, Note_on_c, 2, 76, 0
8, 199680, Note_on_c, 2, 74, 105
8, 199836, Note_on_c, 2, 74, 0
8, 199920, Note_on_c, 2, 78, 105
8, 200076, Note_on_c, 2, 78, 0
8, 200160, Note_on_c, 2, 79, 105
8, 200316, Note_on_c, 2, 79, 0
8, 200400, Note_on_c, 2, 81, 105
8, 200556, Note_on_c, 2, 81, 0
8, 200640, Note_on_c, 2, 79, 105
8, 200880, Note_on_c, 2, 79, 0
8, 200880, Note_on_c, 2, 81, 105
8, 201000, Note_on_c, 2, 81, 0
8, 201000, Note_on_c, 2, 83, 105
8, 201120, Note_on_c, 2, 83, 0
8, 201120, Note_on_c, 2, 81, 105
8, 201264, Note_on_c, 2, 81, 0
8, 201360, Note_on_c, 2, 79, 105
8, 201504, Note_on_c, 2, 79, 0
8, 201600, Note_on_c, 2, 79, 105
8, 201840, Note_on_c, 2, 79, 0
8, 201840, Note_on_c, 2, 78, 105
8, 201984, Note_on_c, 2, 78, 0
8, 202080, Note_on_c, 2, 74, 105
8, 202224, Note_on_c, 2, 74, 0
8, 202320, Note_on_c, 2, 78, 105
8, 202464, Note_on_c, 2, 78, 0
8, 202560, Note_on_c, 2, 78, 105
8, 202800, Note_on_c, 2, 78, 0
8, 202800, Note_on_c, 2, 76, 105
8, 202944, Note_on_c, 2, 76, 0
8, 203040, Note_on_c, 2, 74, 105
8, 203184, Note_on_c, 2, 74, 0
8, 203280, Note_on_c, 2, 73, 105
8, 203424, Note_on_c, 2, 73, 0
8, 203520, Note_on_c, 2, 74, 105
8, 203664, Note_on_c, 2, 74, 0
8, 203760, Note_on_c, 2, 69, 105
8, 203904, Note_on_c, 2, 69, 0
8, 204000, Note_on_c, 2, 71, 105
8, 204144, Note_on_c, 2, 71, 0
8, 204240, Note_on_c, 2, 73, 105
8, 204384, Note_on_c, 2, 73, 0
8, 204480, Note_on_c, 2, 74, 105
8, 204624, Note_on_c, 2, 74, 0
8, 204720, Note_on_c, 2, 74, 105
8, 204864, Note_on_c, 2, 74, 0
8, 204960, Note_on_c, 2, 78, 105
8, 205020, Note_on_c, 2, 78, 0
8, 205020, Note_on_c, 2, 76, 105
8, 205080, Note_on_c, 2, 76, 0
8, 205080, Note_on_c, 2, 78, 105
8, 205140, Note_on_c, 2, 78, 0
8, 205140, Note_on_c, 2, 76, 105
8, 205200, Note_on_c, 2, 76, 0
8, 205200, Note_on_c, 2, 74, 105
8, 205320, Note_on_c, 2, 74, 0
8, 205320, Note_on_c, 2, 76, 105
8, 205440, Note_on_c, 2, 76, 0
8, 205440, Note_on_c, 2, 78, 105
8, 205584, Note_on_c, 2, 78, 0
8, 205680, Note_on_c, 2, 73, 105
8, 205824, Note_on_c, 2, 73, 0
8, 205920, Note_on_c, 2, 74, 105
8, 206064, Note_on_c, 2, 74, 0
8, 206160, Note_on_c, 2, 76, 105
8, 206304, Note_on_c, 2, 76, 0
8, 206400, Note_on_c, 2, 78, 105
8, 206544, Note_on_c, 2, 78, 0
8, 206640, Note_on_c, 2, 78, 105
8, 206784, Note_on_c, 2, 78, 0
8, 206880, Note_on_c, 2, 81, 105
8, 206940, Note_on_c, 2, 81, 0
8, 206940, Note_on_c, 2, 79, 105
8, 207000, Note_on_c, 2, 79, 0
8, 207000, Note_on_c, 2, 81, 105
8, 207060, Note_on_c, 2, 81, 0
8, 207060, Note_on_c, 2, 79, 105
8, 207120, Note_on_c, 2, 79, 0
8, 207120, Note_on_c, 2, 78, 105
8, 207240, Note_on_c, 2, 78, 0
8, 207240, Note_on_c, 2, 79, 105
8, 207360, Note_on_c, 2, 79, 0
8, 207360, Note_on_c, 2, 81, 105
8, 207504, Note_on_c, 2, 81, 0
8, 207600, Note_on_c, 2, 81, 105
8, 207744, Note_on_c, 2, 81, 0
8, 207840, Note_on_c, 2, 83, 105
8, 207900, Note_on_c, 2, 83, 0
8, 207900, Note_on_c, 2, 82, 105
8, 207960, Note_on_c, 2, 82, 0
8, 207960, Note_on_c, 2, 83, 105
8, 208020, Note_on_c, 2, 83, 0
8, 208020, Note_on_c, 2, 82, 105
8, 208080, Note_on_c, 2, 82, 0
8, 208080, Note_on_c, 2, 80, 105
8, 208200, Note_on_c, 2, 80, 0
8, 208200, Note_on_c, 2, 82, 105
8, 208320, Note_on_c, 2, 82, 0
8, 208320, Note_on_c, 2, 83, 92
8, 208704, Note_on_c, 2, 83, 0
8, 209280, Note_on_c, 2, 67, 58
8, 211104, Note_on_c, 2, 67, 0
8, 211200, Note_on_c, 2, 66, 58
8, 211392, Note_on_c, 2, 66, 0
8, 211680, Note_on_c, 2, 69, 58
8, 211872, Note_on_c, 2, 69, 0
8, 212160, Note_on_c, 2, 66, 58
8, 212352, Note_on_c, 2, 66, 0
8, 213120, Note_on_c, 2, 74, 92
8, 213120, Note_on_c, 2, 62, 92
8, 213504, Note_on_c, 2, 62, 0
8, 213504, Note_on_c, 2, 74, 0
8, 213840, Note_on_c, 2, 69, 92
8, 213996, Note_on_c, 2, 69, 0
8, 214080, Note_on_c, 2, 74, 92
8, 214464, Note_on_c, 2, 74, 0
8, 214800, Note_on_c, 2, 69, 92
8, 214956, Note_on_c, 2, 69, 0
8, 215040, Note_on_c, 2, 74, 92
8, 215196, Note_on_c, 2, 74, 0
8, 215280, Note_on_c, 2, 69, 92
8, 215436, Note_on_c, 2, 69, 0
8, 215520, Note_on_c, 2, 74, 92
8, 215676, Note_on_c, 2, 74, 0
8, 215760, Note_on_c, 2, 78, 92
8, 215916, Note_on_c, 2, 78, 0
8, 216000, Note_on_c, 2, 81, 92
8, 216384, Note_on_c, 2, 81, 0
8, 216960, Note_on_c, 2, 81, 92
8, 217344, Note_on_c, 2, 81, 0
8, 217680, Note_on_c, 2, 78, 92
8, 217836, Note_on_c, 2, 78, 0
8, 217920, Note_on_c, 2, 81, 92
8, 218304, Note_on_c, 2, 81, 0
8, 218640, Note_on_c, 2, 78, 92
8, 218796, Note_on_c, 2, 78, 0
8, 218880, Note_on_c, 2, 81, 92
8, 219036, Note_on_c, 2, 81, 0
8, 219120, Note_on_c, 2, 78, 92
8, 219276, Note_on_c, 2, 78, 0
8, 219360, Note_on_c, 2, 75, 92
8, 219516, Note_on_c, 2, 75, 0
8, 219600, Note_on_c, 2, 78, 92
8, 219756, Note_on_c, 2, 78, 0
8, 219840, Note_on_c, 2, 71, 92
8, 220224, Note_on_c, 2, 71, 0
8, 220800, Note_on_c, 2, 64, 58
8, 220956, Note_on_c, 2, 64, 0
8, 221040, Note_on_c, 2, 64, 58
8, 221196, Note_on_c, 2, 64, 0
8, 221280, Note_on_c, 2, 65, 58
8, 221436, Note_on_c, 2, 65, 0
8, 221520, Note_on_c, 2, 65, 58
8, 221676, Note_on_c, 2, 65, 0
8, 221760, Note_on_c, 2, 67, 58
8, 221916, Note_on_c, 2, 67, 0
8, 222000, Note_on_c, 2, 67, 58
8, 222156, Note_on_c, 2, 67, 0
8, 222240, Note_on_c, 2, 64, 58
8, 222396, Note_on_c, 2, 64, 0
8, 222480, Note_on_c, 2, 64, 58
8, 222636, Note_on_c, 2, 64, 0
8, 222720, Note_on_c, 2, 62, 58
8, 222876, Note_on_c, 2, 62, 0
8, 222960, Note_on_c, 2, 62, 58
8, 223116, Note_on_c, 2, 62, 0
8, 223200, Note_on_c, 2, 64, 58
8, 223356, Note_on_c, 2, 64, 0
8, 223440, Note_on_c, 2, 64, 58
8, 223596, Note_on_c, 2, 64, 0
8, 223680, Note_on_c, 2, 65, 58
8, 223836, Note_on_c, 2, 65, 0
8, 223920, Note_on_c, 2, 65, 58
8, 224076, Note_on_c, 2, 65, 0
8, 224160, Note_on_c, 2, 62, 58
8, 224316, Note_on_c, 2, 62, 0
8, 224400, Note_on_c, 2, 62, 58
8, 224556, Note_on_c, 2, 62, 0
8, 224640, Note_on_c, 2, 64, 58
8, 224796, Note_on_c, 2, 64, 0
8, 224880, Note_on_c, 2, 64, 58
8, 225036, Note_on_c, 2, 64, 0
8, 225120, Note_on_c, 2, 65, 58
8, 225276, Note_on_c, 2, 65, 0
8, 225360, Note_on_c, 2, 65, 58
8, 225516, Note_on_c, 2, 65, 0
8, 225600, Note_on_c, 2, 67, 58
8, 225756, Note_on_c, 2, 67, 0
8, 225840, Note_on_c, 2, 67, 58
8, 225996, Note_on_c, 2, 67, 0
8, 226080, Note_on_c, 2, 64, 58
8, 226236, Note_on_c, 2, 64, 0
8, 226320, Note_on_c, 2, 64, 58
8, 226476, Note_on_c, 2, 64, 0
8, 226560, Note_on_c, 2, 62, 58
8, 226716, Note_on_c, 2, 62, 0
8, 226800, Note_on_c, 2, 62, 58
8, 226956, Note_on_c, 2, 62, 0
8, 227040, Note_on_c, 2, 64, 58
8, 227196, Note_on_c, 2, 64, 0
8, 227280, Note_on_c, 2, 64, 58
8, 227436, Note_on_c, 2, 64, 0
8, 227520, Note_on_c, 2, 65, 58
8, 227676, Note_on_c, 2, 65, 0
8, 227760, Note_on_c, 2, 65, 58
8, 227916, Note_on_c, 2, 65, 0
8, 228000, Note_on_c, 2, 62, 58
8, 228156, Note_on_c, 2, 62, 0
8, 228240, Note_on_c, 2, 62, 58
8, 228396, Note_on_c, 2, 62, 0
8, 228480, Note_on_c, 2, 64, 58
8, 228636, Note_on_c, 2, 64, 0
8, 228720, Note_on_c, 2, 64, 58
8, 228876, Note_on_c, 2, 64, 0
8, 228960, Note_on_c, 2, 65, 58
8, 229116, Note_on_c, 2, 65, 0
8, 229200, Note_on_c, 2, 65, 58
8, 229356, Note_on_c, 2, 65, 0
8, 229440, Note_on_c, 2, 67, 58
8, 229596, Note_on_c, 2, 67, 0
8, 229680, Note_on_c, 2, 67, 58
8, 229836, Note_on_c, 2, 67, 0
8, 229920, Note_on_c, 2, 64, 58
8, 230076, Note_on_c, 2, 64, 0
8, 230160, Note_on_c, 2, 64, 58
8, 230316, Note_on_c, 2, 64, 0
8, 230400, Note_on_c, 2, 62, 58
8, 230556, Note_on_c, 2, 62, 0
8, 230640, Note_on_c, 2, 62, 58
8, 230796, Note_on_c, 2, 62, 0
8, 230880, Note_on_c, 2, 64, 58
8, 231036, Note_on_c, 2, 64, 0
8, 231120, Note_on_c, 2, 64, 58
8, 231276, Note_on_c, 2, 64, 0
8, 231360, Note_on_c, 2, 65, 58
8, 231516, Note_on_c, 2, 65, 0
8, 231600, Note_on_c, 2, 65, 58
8, 231756, Note_on_c, 2, 65, 0
8, 231840, Note_on_c, 2, 62, 58
8, 231996, Note_on_c, 2, 62, 0
8, 232080, Note_on_c, 2, 62, 58
8, 232236, Note_on_c, 2, 62, 0
8, 232320, Note_on_c, 2, 60, 58
8, 232476, Note_on_c, 2, 60, 0
8, 232560, Note_on_c, 2, 60, 58
8, 232716, Note_on_c, 2, 60, 0
8, 232800, Note_on_c, 2, 62, 58
8, 232956, Note_on_c, 2, 62, 0
8, 233040, Note_on_c, 2, 62, 58
8, 233196, Note_on_c, 2, 62, 0
8, 233280, Note_on_c, 2, 64, 58
8, 233436, Note_on_c, 2, 64, 0
8, 233520, Note_on_c, 2, 64, 58
8, 233676, Note_on_c, 2, 64, 0
8, 233760, Note_on_c, 2, 60, 58
8, 233916, Note_on_c, 2, 60, 0
8, 234000, Note_on_c, 2, 60, 58
8, 234156, Note_on_c, 2, 60, 0
8, 234240, Note_on_c, 2, 60, 58
8, 234396, Note_on_c, 2, 60, 0
8, 234480, Note_on_c, 2, 60, 58
8, 234636, Note_on_c, 2, 60, 0
8, 234720, Note_on_c, 2, 62, 58
8, 234876, Note_on_c, 2, 62, 0
8, 234960, Note_on_c, 2, 62, 58
8, 235116, Note_on_c, 2, 62, 0
8, 235200, Note_on_c, 2, 63, 58
8, 235356, Note_on_c, 2, 63, 0
8, 235440, Note_on_c, 2, 63, 58
8, 235596, Note_on_c, 2, 63, 0
8, 235680, Note_on_c, 2, 60, 58
8, 235836, Note_on_c, 2, 60, 0
8, 235920, Note_on_c, 2, 60, 58
8, 236076, Note_on_c, 2, 60, 0
8, 236160, Note_on_c, 2, 58, 58
8, 236316, Note_on_c, 2, 58, 0
8, 236400, Note_on_c, 2, 58, 58
8, 236556, Note_on_c, 2, 58, 0
8, 236640, Note_on_c, 2, 57, 58
8, 236796, Note_on_c, 2, 57, 0
8, 236880, Note_on_c, 2, 57, 58
8, 237036, Note_on_c, 2, 57, 0
8, 237120, Note_on_c, 2, 58, 58
8, 237276, Note_on_c, 2, 58, 0
8, 237360, Note_on_c, 2, 58, 58
8, 237516, Note_on_c, 2, 58, 0
8, 237600, Note_on_c, 2, 69, 58
8, 237756, Note_on_c, 2, 69, 0
8, 237840, Note_on_c, 2, 69, 58
8, 237996, Note_on_c, 2, 69, 0
8, 238080, Note_on_c, 2, 70, 58
8, 238236, Note_on_c, 2, 70, 0
8, 238320, Note_on_c, 2, 70, 58
8, 238476, Note_on_c, 2, 70, 0
8, 238560, Note_on_c, 2, 69, 58
8, 238716, Note_on_c, 2, 69, 0
8, 238800, Note_on_c, 2, 69, 58
8, 238956, Note_on_c, 2, 69, 0
8, 239040, Note_on_c, 2, 70, 58
8, 239196, Note_on_c, 2, 70, 0
8, 239280, Note_on_c, 2, 70, 58
8, 239436, Note_on_c, 2, 70, 0
8, 239520, Note_on_c, 2, 69, 58
8, 239676, Note_on_c, 2, 69, 0
8, 239760, Note_on_c, 2, 67, 58
8, 239916, Note_on_c, 2, 67, 0
8, 240000, Note_on_c, 2, 66, 58
8, 240384, Note_on_c, 2, 66, 0
8, 240720, Note_on_c, 2, 62, 92
8, 240960, Note_on_c, 2, 62, 0
8, 240960, Note_on_c, 2, 64, 92
8, 241200, Note_on_c, 2, 64, 0
8, 241200, Note_on_c, 2, 66, 92
8, 241440, Note_on_c, 2, 66, 0
8, 241440, Note_on_c, 2, 67, 92
8, 241680, Note_on_c, 2, 67, 0
8, 241680, Note_on_c, 2, 69, 92
8, 241920, Note_on_c, 2, 69, 0
8, 241920, Note_on_c, 2, 72, 92
8, 242160, Note_on_c, 2, 72, 0
8, 242160, Note_on_c, 2, 70, 92
8, 242400, Note_on_c, 2, 70, 0
8, 242640, Note_on_c, 2, 66, 92
8, 242880, Note_on_c, 2, 66, 0
8, 242880, Note_on_c, 2, 67, 92
8, 243120, Note_on_c, 2, 67, 0
8, 243120, Note_on_c, 2, 69, 92
8, 243360, Note_on_c, 2, 69, 0
8, 243360, Note_on_c, 2, 70, 92
8, 243600, Note_on_c, 2, 70, 0
8, 243600, Note_on_c, 2, 73, 92
8, 243840, Note_on_c, 2, 73, 0
8, 243840, Note_on_c, 2, 76, 92
8, 244080, Note_on_c, 2, 76, 0
8, 244080, Note_on_c, 2, 74, 92
8, 244272, Note_on_c, 2, 74, 0
8, 244560, Note_on_c, 2, 62, 58
8, 244800, Note_on_c, 2, 62, 0
8, 244800, Note_on_c, 2, 64, 58
8, 245040, Note_on_c, 2, 64, 0
8, 245040, Note_on_c, 2, 66, 58
8, 245280, Note_on_c, 2, 66, 0
8, 245280, Note_on_c, 2, 67, 58
8, 245520, Note_on_c, 2, 67, 0
8, 245520, Note_on_c, 2, 69, 58
8, 245760, Note_on_c, 2, 69, 0
8, 245760, Note_on_c, 2, 70, 58
8, 246240, Note_on_c, 2, 70, 0
8, 246240, Note_on_c, 2, 71, 58
8, 246720, Note_on_c, 2, 71, 0
8, 246720, Note_on_c, 2, 72, 58
8, 247200, Note_on_c, 2, 72, 0
8, 247200, Note_on_c, 2, 73, 58
8, 247584, Note_on_c, 2, 73, 0
8, 247680, Note_on_c, 2, 74, 72
8, 247824, Note_on_c, 2, 74, 0
8, 247920, Note_on_c, 2, 74, 72
8, 248064, Note_on_c, 2, 74, 0
8, 248160, Note_on_c, 2, 74, 72
8, 248400, Note_on_c, 2, 74, 0
8, 248400, Note_on_c, 2, 76, 72
8, 248544, Note_on_c, 2, 76, 0
8, 248640, Note_on_c, 2, 72, 72
8, 248784, Note_on_c, 2, 72, 0
8, 248880, Note_on_c, 2, 72, 72
8, 249024, Note_on_c, 2, 72, 0
8, 249120, Note_on_c, 2, 72, 72
8, 249360, Note_on_c, 2, 72, 0
8, 249360, Note_on_c, 2, 74, 72
8, 249504, Note_on_c, 2, 74, 0
8, 249600, Note_on_c, 2, 71, 72
8, 249744, Note_on_c, 2, 71, 0
8, 249840, Note_on_c, 2, 71, 72
8, 249984, Note_on_c, 2, 71, 0
8, 250080, Note_on_c, 2, 71, 72
8, 250320, Note_on_c, 2, 71, 0
8, 250320, Note_on_c, 2, 74, 72
8, 250464, Note_on_c, 2, 74, 0
8, 250560, Note_on_c, 2, 74, 72
8, 250800, Note_on_c, 2, 74, 0
8, 250800, Note_on_c, 2, 72, 72
8, 250956, Note_on_c, 2, 72, 0
8, 251040, Note_on_c, 2, 71, 72
8, 251196, Note_on_c, 2, 71, 0
8, 251280, Note_on_c, 2, 69, 72
8, 251436, Note_on_c, 2, 69, 0
8, 251520, Note_on_c, 2, 67, 125
8, 251904, Note_on_c, 2, 67, 0
8, 252240, Note_on_c, 2, 74, 92
8, 252384, Note_on_c, 2, 74, 0
8, 252480, Note_on_c, 2, 79, 92
8, 252864, Note_on_c, 2, 79, 0
8, 253200, Note_on_c, 2, 74, 92
8, 253344, Note_on_c, 2, 74, 0
8, 253440, Note_on_c, 2, 79, 92
8, 253584, Note_on_c, 2, 79, 0
8, 253680, Note_on_c, 2, 74, 92
8, 253824, Note_on_c, 2, 74, 0
8, 253920, Note_on_c, 2, 79, 92
8, 254064, Note_on_c, 2, 79, 0
8, 254160, Note_on_c, 2, 83, 92
8, 254304, Note_on_c, 2, 83, 0
8, 254400, Note_on_c, 2, 86, 92
8, 254784, Note_on_c, 2, 86, 0
8, 255360, Note_on_c, 2, 84, 92
8, 255744, Note_on_c, 2, 84, 0
8, 256080, Note_on_c, 2, 81, 92
8, 256224, Note_on_c, 2, 81, 0
8, 256320, Note_on_c, 2, 84, 92
8, 256704, Note_on_c, 2, 84, 0
8, 257040, Note_on_c, 2, 81, 92
8, 257184, Note_on_c, 2, 81, 0
8, 257280, Note_on_c, 2, 84, 92
8, 257424, Note_on_c, 2, 84, 0
8, 257520, Note_on_c, 2, 81, 92
8, 257664, Note_on_c, 2, 81, 0
8, 257760, Note_on_c, 2, 78, 92
8, 257904, Note_on_c, 2, 78, 0
8, 258000, Note_on_c, 2, 81, 92
8, 258144, Note_on_c, 2, 81, 0
8, 258240, Note_on_c, 2, 74, 92
8, 258624, Note_on_c, 2, 74, 0
8, 259200, Note_on_c, 2, 59, 105
8, 259200, Note_on_c, 2, 62, 105
8, 259296, Note_on_c, 2, 62, 0
8, 259296, Note_on_c, 2, 59, 0
8, 259320, Note_on_c, 2, 62, 105
8, 259320, Note_on_c, 2, 59, 105
8, 259416, Note_on_c, 2, 59, 0
8, 259416, Note_on_c, 2, 62, 0
8, 259440, Note_on_c, 2, 59, 105
8, 259440, Note_on_c, 2, 62, 105
8, 259536, Note_on_c, 2, 62, 0
8, 259536, Note_on_c, 2, 59, 0
8, 259560, Note_on_c, 2, 59, 105
8, 259560, Note_on_c, 2, 62, 105
8, 259656, Note_on_c, 2, 62, 0
8, 259656, Note_on_c, 2, 59, 0
8, 259680, Note_on_c, 2, 62, 105
8, 259680, Note_on_c, 2, 59, 105
8, 259776, Note_on_c, 2, 59, 0
8, 259776, Note_on_c, 2, 62, 0
8, 259800, Note_on_c, 2, 59, 105
8, 259800, Note_on_c, 2, 62, 105
8, 259896, Note_on_c, 2, 62, 0
8, 259896, Note_on_c, 2, 59, 0
8, 259920, Note_on_c, 2, 59, 105
8, 259920, Note_on_c, 2, 62, 105
8, 260016, Note_on_c, 2, 62, 0
8, 260016, Note_on_c, 2, 59, 0
8, 260040, Note_on_c, 2, 62, 105
8, 260040, Note_on_c, 2, 59, 105
8, 260136, Note_on_c, 2, 59, 0
8, 260136, Note_on_c, 2, 62, 0
8, 260160, Note_on_c, 2, 59, 105
8, 260160, Note_on_c, 2, 62, 105
8, 260256, Note_on_c, 2, 62, 0
8, 260256, Note_on_c, 2, 59, 0
8, 260280, Note_on_c, 2, 62, 105
8, 260280, Note_on_c, 2, 59, 105
8, 260376, Note_on_c, 2, 59, 0
8, 260376, Note_on_c, 2, 62, 0
8, 260400, Note_on_c, 2, 59, 105
8, 260400, Note_on_c, 2, 62, 105
8, 260496, Note_on_c, 2, 62, 0
8, 260496, Note_on_c, 2, 59, 0
8, 260520, Note_on_c, 2, 59, 105
8, 260520, Note_on_c, 2, 62, 105
8, 260616, Note_on_c, 2, 62, 0
8, 260616, Note_on_c, 2, 59, 0
8, 260640, Note_on_c, 2, 62, 105
8, 260640, Note_on_c, 2, 59, 105
8, 260736, Note_on_c, 2, 59, 0
8, 260736, Note_on_c, 2, 62, 0
8, 260760, Note_on_c, 2, 59, 105
8, 260760, Note_on_c, 2, 62, 105
8, 260856, Note_on_c, 2, 62, 0
8, 260856, Note_on_c, 2, 59, 0
8, 260880, Note_on_c, 2, 59, 105
8, 260880, Note_on_c, 2, 62, 105
8, 260976, Note_on_c, 2, 62, 0
8, 260976, Note_on_c, 2, 59, 0
8, 261000, Note_on_c, 2, 59, 105
8, 261000, Note_on_c, 2, 62, 105
8, 261096, Note_on_c, 2, 62, 0
8, 261096, Note_on_c, 2, 59, 0
8, 261120, Note_on_c, 2, 62, 105
8, 261120, Note_on_c, 2, 60, 105
8, 261216, Note_on_c, 2, 60, 0
8, 261216, Note_on_c, 2, 62, 0
8, 261240, Note_on_c, 2, 62, 105
8, 261240, Note_on_c, 2, 60, 105
8, 261336, Note_on_c, 2, 60, 0
8, 261336, Note_on_c, 2, 62, 0
8, 261360, Note_on_c, 2, 62, 105
8, 261360, Note_on_c, 2, 60, 105
8, 261456, Note_on_c, 2, 60, 0
8, 261456, Note_on_c, 2, 62, 0
8, 261480, Note_on_c, 2, 62, 105
8, 261480, Note_on_c, 2, 60, 105
8, 261576, Note_on_c, 2, 60, 0
8, 261576, Note_on_c, 2, 62, 0
8, 261600, Note_on_c, 2, 60, 105
8, 261600, Note_on_c, 2, 62, 105
8, 261696, Note_on_c, 2, 62, 0
8, 261696, Note_on_c, 2, 60, 0
8, 261720, Note_on_c, 2, 60, 105
8, 261720, Note_on_c, 2, 62, 105
8, 261816, Note_on_c, 2, 62, 0
8, 261816, Note_on_c, 2, 60, 0
8, 261840, Note_on_c, 2, 60, 105
8, 261840, Note_on_c, 2, 62, 105
8, 261936, Note_on_c, 2, 62, 0
8, 261936, Note_on_c, 2, 60, 0
8, 261960, Note_on_c, 2, 60, 105
8, 261960, Note_on_c, 2, 62, 105
8, 262056, Note_on_c, 2, 62, 0
8, 262056, Note_on_c, 2, 60, 0
8, 262080, Note_on_c, 2, 60, 105
8, 262080, Note_on_c, 2, 62, 105
8, 262176, Note_on_c, 2, 62, 0
8, 262176, Note_on_c, 2, 60, 0
8, 262200, Note_on_c, 2, 62, 105
8, 262200, Note_on_c, 2, 60, 105
8, 262296, Note_on_c, 2, 60, 0
8, 262296, Note_on_c, 2, 62, 0
8, 262320, Note_on_c, 2, 62, 105
8, 262320, Note_on_c, 2, 60, 105
8, 262416, Note_on_c, 2, 60, 0
8, 262416, Note_on_c, 2, 62, 0
8, 262440, Note_on_c, 2, 62, 105
8, 262440, Note_on_c, 2, 60, 105
8, 262536, Note_on_c, 2, 60, 0
8, 262536, Note_on_c, 2, 62, 0
8, 262560, Note_on_c, 2, 60, 105
8, 262560, Note_on_c, 2, 62, 105
8, 262656, Note_on_c, 2, 62, 0
8, 262656, Note_on_c, 2, 60, 0
8, 262680, Note_on_c, 2, 60, 105
8, 262680, Note_on_c, 2, 62, 105
8, 262776, Note_on_c, 2, 62, 0
8, 262776, Note_on_c, 2, 60, 0
8, 262800, Note_on_c, 2, 62, 105
8, 262800, Note_on_c, 2, 60, 105
8, 262896, Note_on_c, 2, 60, 0
8, 262896, Note_on_c, 2, 62, 0
8, 262920, Note_on_c, 2, 60, 105
8, 262920, Note_on_c, 2, 62, 105
8, 263016, Note_on_c, 2, 62, 0
8, 263016, Note_on_c, 2, 60, 0
8, 263040, Note_on_c, 2, 62, 105
8, 263040, Note_on_c, 2, 59, 105
8, 263136, Note_on_c, 2, 59, 0
8, 263136, Note_on_c, 2, 62, 0
8, 263160, Note_on_c, 2, 62, 105
8, 263160, Note_on_c, 2, 59, 105
8, 263256, Note_on_c, 2, 59, 0
8, 263256, Note_on_c, 2, 62, 0
8, 263280, Note_on_c, 2, 59, 105
8, 263280, Note_on_c, 2, 62, 105
8, 263376, Note_on_c, 2, 62, 0
8, 263376, Note_on_c, 2, 59, 0
8, 263400, Note_on_c, 2, 62, 105
8, 263400, Note_on_c, 2, 59, 105
8, 263496, Note_on_c, 2, 59, 0
8, 263496, Note_on_c, 2, 62, 0
8, 263520, Note_on_c, 2, 62, 105
8, 263520, Note_on_c, 2, 59, 105
8, 263616, Note_on_c, 2, 59, 0
8, 263616, Note_on_c, 2, 62, 0
8, 263640, Note_on_c, 2, 62, 105
8, 263640, Note_on_c, 2, 59, 105
8, 263736, Note_on_c, 2, 59, 0
8, 263736, Note_on_c, 2, 62, 0
8, 263760, Note_on_c, 2, 62, 105
8, 263760, Note_on_c, 2, 59, 105
8, 263856, Note_on_c, 2, 59, 0
8, 263856, Note_on_c, 2, 62, 0
8, 263880, Note_on_c, 2, 62, 105
8, 263880, Note_on_c, 2, 59, 105
8, 263976, Note_on_c, 2, 59, 0
8, 263976, Note_on_c, 2, 62, 0
8, 264000, Note_on_c, 2, 59, 105
8, 264000, Note_on_c, 2, 62, 105
8, 264096, Note_on_c, 2, 62, 0
8, 264096, Note_on_c, 2, 59, 0
8, 264120, Note_on_c, 2, 59, 105
8, 264120, Note_on_c, 2, 62, 105
8, 264216, Note_on_c, 2, 62, 0
8, 264216, Note_on_c, 2, 59, 0
8, 264240, Note_on_c, 2, 59, 105
8, 264240, Note_on_c, 2, 62, 105
8, 264336, Note_on_c, 2, 62, 0
8, 264336, Note_on_c, 2, 59, 0
8, 264360, Note_on_c, 2, 59, 105
8, 264360, Note_on_c, 2, 62, 105
8, 264456, Note_on_c, 2, 62, 0
8, 264456, Note_on_c, 2, 59, 0
8, 264480, Note_on_c, 2, 59, 105
8, 264480, Note_on_c, 2, 62, 105
8, 264576, Note_on_c, 2, 62, 0
8, 264576, Note_on_c, 2, 59, 0
8, 264600, Note_on_c, 2, 62, 105
8, 264600, Note_on_c, 2, 59, 105
8, 264696, Note_on_c, 2, 59, 0
8, 264696, Note_on_c, 2, 62, 0
8, 264720, Note_on_c, 2, 59, 105
8, 264720, Note_on_c, 2, 62, 105
8, 264816, Note_on_c, 2, 62, 0
8, 264816, Note_on_c, 2, 59, 0
8, 264840, Note_on_c, 2, 62, 105
8, 264840, Note_on_c, 2, 59, 105
8, 264936, Note_on_c, 2, 59, 0
8, 264936, Note_on_c, 2, 62, 0
8, 264960, Note_on_c, 2, 62, 105
8, 264960, Note_on_c, 2, 60, 105
8, 265056, Note_on_c, 2, 60, 0
8, 265056, Note_on_c, 2, 62, 0
8, 265080, Note_on_c, 2, 62, 105
8, 265080, Note_on_c, 2, 60, 105
8, 265176, Note_on_c, 2, 60, 0
8, 265176, Note_on_c, 2, 62, 0
8, 265200, Note_on_c, 2, 62, 105
8, 265200, Note_on_c, 2, 60, 105
8, 265296, Note_on_c, 2, 60, 0
8, 265296, Note_on_c, 2, 62, 0
8, 265320, Note_on_c, 2, 60, 105
8, 265320, Note_on_c, 2, 62, 105
8, 265416, Note_on_c, 2, 62, 0
8, 265416, Note_on_c, 2, 60, 0
8, 265440, Note_on_c, 2, 62, 105
8, 265440, Note_on_c, 2, 60, 105
8, 265536, Note_on_c, 2, 60, 0
8, 265536, Note_on_c, 2, 62, 0
8, 265560, Note_on_c, 2, 62, 105
8, 265560, Note_on_c, 2, 60, 105
8, 265656, Note_on_c, 2, 60, 0
8, 265656, Note_on_c, 2, 62, 0
8, 265680, Note_on_c, 2, 60, 105
8, 265680, Note_on_c, 2, 62, 105
8, 265776, Note_on_c, 2, 62, 0
8, 265776, Note_on_c, 2, 60, 0
8, 265800, Note_on_c, 2, 60, 105
8, 265800, Note_on_c, 2, 62, 105
8, 265896, Note_on_c, 2, 62, 0
8, 265896, Note_on_c, 2, 60, 0
8, 265920, Note_on_c, 2, 60, 105
8, 265920, Note_on_c, 2, 62, 105
8, 266016, Note_on_c, 2, 62, 0
8, 266016, Note_on_c, 2, 60, 0
8, 266040, Note_on_c, 2, 62, 105
8, 266040, Note_on_c, 2, 60, 105
8, 266136, Note_on_c, 2, 60, 0
8, 266136, Note_on_c, 2, 62, 0
8, 266160, Note_on_c, 2, 60, 105
8, 266160, Note_on_c, 2, 62, 105
8, 266256, Note_on_c, 2, 62, 0
8, 266256, Note_on_c, 2, 60, 0
8, 266280, Note_on_c, 2, 60, 105
8, 266280, Note_on_c, 2, 62, 105
8, 266376, Note_on_c, 2, 62, 0
8, 266376, Note_on_c, 2, 60, 0
8, 266400, Note_on_c, 2, 62, 105
8, 266400, Note_on_c, 2, 60, 105
8, 266496, Note_on_c, 2, 60, 0
8, 266496, Note_on_c, 2, 62, 0
8, 266520, Note_on_c, 2, 60, 105
8, 266520, Note_on_c, 2, 62, 105
8, 266616, Note_on_c, 2, 62, 0
8, 266616, Note_on_c, 2, 60, 0
8, 266640, Note_on_c, 2, 62, 105
8, 266640, Note_on_c, 2, 60, 105
8, 266736, Note_on_c, 2, 60, 0
8, 266736, Note_on_c, 2, 62, 0
8, 266760, Note_on_c, 2, 60, 105
8, 266760, Note_on_c, 2, 62, 105
8, 266856, Note_on_c, 2, 62, 0
8, 266856, Note_on_c, 2, 60, 0
8, 266880, Note_on_c, 2, 59, 105
8, 266880, Note_on_c, 2, 62, 105
8, 267264, Note_on_c, 2, 62, 0
8, 267264, Note_on_c, 2, 59, 0
8, 267360, Note_on_c, 2, 72, 105
8, 267504, Note_on_c, 2, 72, 0
8, 267600, Note_on_c, 2, 72, 105
8, 267744, Note_on_c, 2, 72, 0
8, 267840, Note_on_c, 2, 74, 105
8, 267984, Note_on_c, 2, 74, 0
8, 268080, Note_on_c, 2, 74, 105
8, 268224, Note_on_c, 2, 74, 0
8, 268320, Note_on_c, 2, 72, 105
8, 268560, Note_on_c, 2, 72, 0
8, 268560, Note_on_c, 2, 71, 105
8, 268680, Note_on_c, 2, 71, 0
8, 268680, Note_on_c, 2, 69, 105
8, 268776, Note_on_c, 2, 69, 0
8, 268800, Note_on_c, 2, 67, 105
8, 268944, Note_on_c, 2, 67, 0
8, 269040, Note_on_c, 2, 67, 105
8, 269184, Note_on_c, 2, 67, 0
8, 269280, Note_on_c, 2, 66, 105
8, 269424, Note_on_c, 2, 66, 0
8, 269520, Note_on_c, 2, 66, 105
8, 269664, Note_on_c, 2, 66, 0
8, 269760, Note_on_c, 2, 67, 92
8, 270144, Note_on_c, 2, 67, 0
8, 270720, Note_on_c, 2, 71, 58
8, 271680, Note_on_c, 2, 71, 0
8, 271680, Note_on_c, 2, 72, 58
8, 272448, Note_on_c, 2, 72, 0
8, 272640, Note_on_c, 2, 71, 58
8, 272760, Note_on_c, 2, 71, 0
8, 272760, Note_on_c, 2, 69, 58
8, 272976, Note_on_c, 2, 69, 0
8, 273120, Note_on_c, 2, 69, 58
8, 273408, Note_on_c, 2, 69, 0
8, 273600, Note_on_c, 2, 69, 58
8, 273720, Note_on_c, 2, 69, 0
8, 273720, Note_on_c, 2, 67, 58
8, 273936, Note_on_c, 2, 67, 0
8, 274080, Note_on_c, 2, 67, 58
8, 274368, Note_on_c, 2, 67, 0
8, 274560, Note_on_c, 2, 64, 58
8, 274872, Note_on_c, 2, 64, 0
8, 275040, Note_on_c, 2, 64, 58
8, 275352, Note_on_c, 2, 64, 0
8, 275520, Note_on_c, 2, 60, 58
8, 275808, Note_on_c, 2, 60, 0
8, 276000, Note_on_c, 2, 57, 58
8, 276288, Note_on_c, 2, 57, 0
8, 276480, Note_on_c, 2, 62, 58
8, 276636, Note_on_c, 2, 62, 0
8, 276960, Note_on_c, 2, 66, 58
8, 277116, Note_on_c, 2, 66, 0
8, 277440, Note_on_c, 2, 67, 58
8, 277596, Note_on_c, 2, 67, 0
8, 278400, Note_on_c, 2, 71, 58
8, 279360, Note_on_c, 2, 71, 0
8, 279360, Note_on_c, 2, 72, 58
8, 280128, Note_on_c, 2, 72, 0
8, 280320, Note_on_c, 2, 71, 58
8, 280560, Note_on_c, 2, 71, 0
8, 280560, Note_on_c, 2, 69, 58
8, 280716, Note_on_c, 2, 69, 0
8, 280800, Note_on_c, 2, 69, 58
8, 280956, Note_on_c, 2, 69, 0
8, 281040, Note_on_c, 2, 69, 58
8, 281196, Note_on_c, 2, 69, 0
8, 281280, Note_on_c, 2, 69, 58
8, 281520, Note_on_c, 2, 69, 0
8, 281520, Note_on_c, 2, 67, 58
8, 281676, Note_on_c, 2, 67, 0
8, 281760, Note_on_c, 2, 67, 58
8, 281916, Note_on_c, 2, 67, 0
8, 282000, Note_on_c, 2, 67, 58
8, 282156, Note_on_c, 2, 67, 0
8, 282240, Note_on_c, 2, 64, 58
8, 282552, Note_on_c, 2, 64, 0
8, 282720, Note_on_c, 2, 64, 58
8, 282876, Note_on_c, 2, 64, 0
8, 282960, Note_on_c, 2, 64, 58
8, 283116, Note_on_c, 2, 64, 0
8, 283200, Note_on_c, 2, 60, 58
8, 283512, Note_on_c, 2, 60, 0
8, 283680, Note_on_c, 2, 60, 58
8, 283836, Note_on_c, 2, 60, 0
8, 283920, Note_on_c, 2, 60, 58
8, 284076, Note_on_c, 2, 60, 0
8, 284160, Note_on_c, 2, 59, 112
8, 285312, Note_on_c, 2, 59, 0
8, 285360, Note_on_c, 2, 60, 72
8, 285420, Note_on_c, 2, 60, 0
8, 285420, Note_on_c, 2, 59, 72
8, 285480, Note_on_c, 2, 59, 0
8, 285480, Note_on_c, 2, 57, 72
8, 285540, Note_on_c, 2, 57, 0
8, 285540, Note_on_c, 2, 59, 72
8, 285600, Note_on_c, 2, 59, 0
8, 285600, Note_on_c, 2, 60, 72
8, 285840, Note_on_c, 2, 60, 0
8, 285840, Note_on_c, 2, 57, 72
8, 286032, Note_on_c, 2, 57, 0
8, 286080, Note_on_c, 2, 67, 112
8, 287232, Note_on_c, 2, 67, 0
8, 287280, Note_on_c, 2, 69, 72
8, 287340, Note_on_c, 2, 69, 0
8, 287340, Note_on_c, 2, 67, 72
8, 287400, Note_on_c, 2, 67, 0
8, 287400, Note_on_c, 2, 66, 72
8, 287460, Note_on_c, 2, 66, 0
8, 287460, Note_on_c, 2, 67, 72
8, 287520, Note_on_c, 2, 67, 0
8, 287520, Note_on_c, 2, 69, 72
8, 287760, Note_on_c, 2, 69, 0
8, 287760, Note_on_c, 2, 66, 72
8, 287952, Note_on_c, 2, 66, 0
8, 288000, Note_on_c, 2, 71, 72
8, 288096, Note_on_c, 2, 71, 0
8, 288120, Note_on_c, 2, 71, 72
8, 288216, Note_on_c, 2, 71, 0
8, 288240, Note_on_c, 2, 71, 72
8, 288336, Note_on_c, 2, 71, 0
8, 288360, Note_on_c, 2, 71, 72
8, 288456, Note_on_c, 2, 71, 0
8, 288480, Note_on_c, 2, 71, 72
8, 288576, Note_on_c, 2, 71, 0
8, 288600, Note_on_c, 2, 71, 72
8, 288696, Note_on_c, 2, 71, 0
8, 288720, Note_on_c, 2, 71, 72
8, 288816, Note_on_c, 2, 71, 0
8, 288840, Note_on_c, 2, 71, 72
8, 288936, Note_on_c, 2, 71, 0
8, 288960, Note_on_c, 2, 72, 72
8, 289056, Note_on_c, 2, 72, 0
8, 289080, Note_on_c, 2, 72, 81
8, 289176, Note_on_c, 2, 72, 0
8, 289200, Note_on_c, 2, 72, 81
8, 289296, Note_on_c, 2, 72, 0
8, 289320, Note_on_c, 2, 72, 81
8, 289416, Note_on_c, 2, 72, 0
8, 289440, Note_on_c, 2, 72, 81
8, 289536, Note_on_c, 2, 72, 0
8, 289560, Note_on_c, 2, 72, 81
8, 289656, Note_on_c, 2, 72, 0
8, 289680, Note_on_c, 2, 72, 81
8, 289776, Note_on_c, 2, 72, 0
8, 289800, Note_on_c, 2, 72, 81
8, 289896, Note_on_c, 2, 72, 0
8, 289920, Note_on_c, 2, 71, 92
8, 290016, Note_on_c, 2, 71, 0
8, 290040, Note_on_c, 2, 71, 92
8, 290136, Note_on_c, 2, 71, 0
8, 290160, Note_on_c, 2, 71, 92
8, 290256, Note_on_c, 2, 71, 0
8, 290280, Note_on_c, 2, 71, 92
8, 290376, Note_on_c, 2, 71, 0
8, 290400, Note_on_c, 2, 74, 92
8, 290496, Note_on_c, 2, 74, 0
8, 290520, Note_on_c, 2, 74, 92
8, 290616, Note_on_c, 2, 74, 0
8, 290640, Note_on_c, 2, 74, 92
8, 290736, Note_on_c, 2, 74, 0
8, 290760, Note_on_c, 2, 74, 92
8, 290856, Note_on_c, 2, 74, 0
8, 290880, Note_on_c, 2, 74, 105
8, 290976, Note_on_c, 2, 74, 0
8, 291000, Note_on_c, 2, 74, 105
8, 291096, Note_on_c, 2, 74, 0
8, 291120, Note_on_c, 2, 74, 105
8, 291216, Note_on_c, 2, 74, 0
8, 291240, Note_on_c, 2, 74, 105
8, 291336, Note_on_c, 2, 74, 0
8, 291360, Note_on_c, 2, 79, 105
8, 291456, Note_on_c, 2, 79, 0
8, 291480, Note_on_c, 2, 79, 105
8, 291576, Note_on_c, 2, 79, 0
8, 291600, Note_on_c, 2, 79, 105
8, 291696, Note_on_c, 2, 79, 0
8, 291720, Note_on_c, 2, 79, 105
8, 291816, Note_on_c, 2, 79, 0
8, 291840, Note_on_c, 2, 78, 105
8, 291936, Note_on_c, 2, 78, 0
8, 291960, Note_on_c, 2, 78, 105
8, 292056, Note_on_c, 2, 78, 0
8, 292080, Note_on_c, 2, 78, 105
8, 292176, Note_on_c, 2, 78, 0
8, 292200, Note_on_c, 2, 78, 105
8, 292296, Note_on_c, 2, 78, 0
8, 292320, Note_on_c, 2, 78, 105
8, 292416, Note_on_c, 2, 78, 0
8, 292440, Note_on_c, 2, 78, 105
8, 292536, Note_on_c, 2, 78, 0
8, 292560, Note_on_c, 2, 78, 105
8, 292656, Note_on_c, 2, 78, 0
8, 292680, Note_on_c, 2, 78, 105
8, 292776, Note_on_c, 2, 78, 0
8, 292800, Note_on_c, 2, 79, 105
8, 292896, Note_on_c, 2, 79, 0
8, 292920, Note_on_c, 2, 79, 105
8, 293016, Note_on_c, 2, 79, 0
8, 293040, Note_on_c, 2, 79, 105
8, 293136, Note_on_c, 2, 79, 0
8, 293160, Note_on_c, 2, 79, 105
8, 293256, Note_on_c, 2, 79, 0
8, 293280, Note_on_c, 2, 79, 105
8, 293376, Note_on_c, 2, 79, 0
8, 293400, Note_on_c, 2, 79, 105
8, 293496, Note_on_c, 2, 79, 0
8, 293520, Note_on_c, 2, 79, 105
8, 293616, Note_on_c, 2, 79, 0
8, 293640, Note_on_c, 2, 79, 105
8, 293736, Note_on_c, 2, 79, 0
8, 293760, Note_on_c, 2, 78, 105
8, 293856, Note_on_c, 2, 78, 0
8, 293880, Note_on_c, 2, 78, 105
8, 293976, Note_on_c, 2, 78, 0
8, 294000, Note_on_c, 2, 78, 105
8, 294096, Note_on_c, 2, 78, 0
8, 294120, Note_on_c, 2, 78, 105
8, 294216, Note_on_c, 2, 78, 0
8, 294240, Note_on_c, 2, 78, 105
8, 294336, Note_on_c, 2, 78, 0
8, 294360, Note_on_c, 2, 78, 105
8, 294456, Note_on_c, 2, 78, 0
8, 294480, Note_on_c, 2, 78, 105
8, 294576, Note_on_c, 2, 78, 0
8, 294600, Note_on_c, 2, 78, 105
8, 294696, Note_on_c, 2, 78, 0
8, 294720, Note_on_c, 2, 79, 105
8, 294816, Note_on_c, 2, 79, 0
8, 294840, Note_on_c, 2, 79, 105
8, 294936, Note_on_c, 2, 79, 0
8, 294960, Note_on_c, 2, 79, 105
8, 295056, Note_on_c, 2, 79, 0
8, 295080, Note_on_c, 2, 79, 105
8, 295176, Note_on_c, 2, 79, 0
8, 295200, Note_on_c, 2, 79, 105
8, 295296, Note_on_c, 2, 79, 0
8, 295320, Note_on_c, 2, 79, 105
8, 295416, Note_on_c, 2, 79, 0
8, 295440, Note_on_c, 2, 79, 105
8, 295536, Note_on_c, 2, 79, 0
8, 295560, Note_on_c, 2, 79, 105
8, 295656, Note_on_c, 2, 79, 0
8, 295680, Note_on_c, 2, 78, 105
8, 295776, Note_on_c, 2, 78, 0
8, 295800, Note_on_c, 2, 78, 105
8, 295896, Note_on_c, 2, 78, 0
8, 295920, Note_on_c, 2, 78, 105
8, 296016, Note_on_c, 2, 78, 0
8, 296040, Note_on_c, 2, 78, 105
8, 296136, Note_on_c, 2, 78, 0
8, 296160, Note_on_c, 2, 79, 105
8, 296256, Note_on_c, 2, 79, 0
8, 296280, Note_on_c, 2, 79, 105
8, 296376, Note_on_c, 2, 79, 0
8, 296400, Note_on_c, 2, 79, 105
8, 296496, Note_on_c, 2, 79, 0
8, 296520, Note_on_c, 2, 79, 105
8, 296616, Note_on_c, 2, 79, 0
8, 296640, Note_on_c, 2, 78, 105
8, 296736, Note_on_c, 2, 78, 0
8, 296760, Note_on_c, 2, 78, 105
8, 296856, Note_on_c, 2, 78, 0
8, 296880, Note_on_c, 2, 78, 105
8, 296976, Note_on_c, 2, 78, 0
8, 297000, Note_on_c, 2, 78, 105
8, 297096, Note_on_c, 2, 78, 0
8, 297120, Note_on_c, 2, 79, 105
8, 297216, Note_on_c, 2, 79, 0
8, 297240, Note_on_c, 2, 79, 105
8, 297336, Note_on_c, 2, 79, 0
8, 297360, Note_on_c, 2, 79, 105
8, 297456, Note_on_c, 2, 79, 0
8, 297480, Note_on_c, 2, 79, 105
8, 297576, Note_on_c, 2, 79, 0
8, 297600, Note_on_c, 2, 78, 105
8, 297756, Note_on_c, 2, 78, 0
8, 297840, Note_on_c, 2, 62, 81
8, 297996, Note_on_c, 2, 62, 0
8, 298080, Note_on_c, 2, 62, 81
8, 298236, Note_on_c, 2, 62, 0
8, 298320, Note_on_c, 2, 62, 81
8, 298476, Note_on_c, 2, 62, 0
8, 298560, Note_on_c, 2, 62, 81
8, 298944, Note_on_c, 2, 62, 0
8, 299520, Note_on_c, 2, 62, 58
8, 300240, Note_on_c, 2, 62, 0
8, 300240, Note_on_c, 2, 60, 58
8, 300320, Note_on_c, 2, 60, 0
8, 300320, Note_on_c, 2, 59, 58
8, 300400, Note_on_c, 2, 59, 0
8, 300400, Note_on_c, 2, 57, 58
8, 300480, Note_on_c, 2, 57, 0
8, 300480, Note_on_c, 2, 55, 58
8, 300672, Note_on_c, 2, 55, 0
8, 300960, Note_on_c, 2, 64, 58
8, 301152, Note_on_c, 2, 64, 0
8, 301440, Note_on_c, 2, 60, 58
8, 301632, Note_on_c, 2, 60, 0
8, 301920, Note_on_c, 2, 57, 58
8, 302112, Note_on_c, 2, 57, 0
8, 302400, Note_on_c, 2, 62, 58
8, 302592, Note_on_c, 2, 62, 0
8, 303360, Note_on_c, 2, 71, 58
8, 304080, Note_on_c, 2, 71, 0
8, 304080, Note_on_c, 2, 69, 58
8, 304160, Note_on_c, 2, 69, 0
8, 304160, Note_on_c, 2, 67, 58
8, 304240, Note_on_c, 2, 67, 0
8, 304240, Note_on_c, 2, 66, 58
8, 304320, Note_on_c, 2, 66, 0
8, 304320, Note_on_c, 2, 64, 58
8, 304512, Note_on_c, 2, 64, 0
8, 304800, Note_on_c, 2, 72, 58
8, 304992, Note_on_c, 2, 72, 0
8, 305280, Note_on_c, 2, 71, 58
8, 306240, Note_on_c, 2, 71, 0
8, 306240, Note_on_c, 2, 69, 58
8, 306624, Note_on_c, 2, 69, 0
8, 307200, Note_on_c, 2, 74, 72
8, 307920, Note_on_c, 2, 74, 0
8, 307920, Note_on_c, 2, 72, 72
8, 308000, Note_on_c, 2, 72, 0
8, 308000, Note_on_c, 2, 71, 72
8, 308080, Note_on_c, 2, 71, 0
8, 308080, Note_on_c, 2, 69, 72
8, 308160, Note_on_c, 2, 69, 0
8, 308160, Note_on_c, 2, 67, 72
8, 308352, Note_on_c, 2, 67, 0
8, 308640, Note_on_c, 2, 76, 72
8, 308832, Note_on_c, 2, 76, 0
8, 309120, Note_on_c, 2, 72, 72
8, 309312, Note_on_c, 2, 72, 0
8, 309600, Note_on_c, 2, 69, 72
8, 309792, Note_on_c, 2, 69, 0
8, 310080, Note_on_c, 2, 74, 72
8, 310272, Note_on_c, 2, 74, 0
8, 310800, Note_on_c, 2, 72, 72
8, 310992, Note_on_c, 2, 72, 0
8, 311040, Note_on_c, 2, 72, 72
8, 311280, Note_on_c, 2, 72, 0
8, 311280, Note_on_c, 2, 71, 72
8, 311472, Note_on_c, 2, 71, 0
8, 311760, Note_on_c, 2, 72, 72
8, 311904, Note_on_c, 2, 72, 0
8, 312000, Note_on_c, 2, 72, 72
8, 312240, Note_on_c, 2, 72, 0
8, 312240, Note_on_c, 2, 71, 72
8, 312432, Note_on_c, 2, 71, 0
8, 312720, Note_on_c, 2, 60, 72
8, 312864, Note_on_c, 2, 60, 0
8, 312960, Note_on_c, 2, 59, 58
8, 313116, Note_on_c, 2, 59, 0
8, 313200, Note_on_c, 2, 59, 58
8, 313356, Note_on_c, 2, 59, 0
8, 313440, Note_on_c, 2, 60, 58
8, 313596, Note_on_c, 2, 60, 0
8, 313680, Note_on_c, 2, 60, 58
8, 313836, Note_on_c, 2, 60, 0
8, 313920, Note_on_c, 2, 62, 58
8, 314076, Note_on_c, 2, 62, 0
8, 314160, Note_on_c, 2, 62, 58
8, 314316, Note_on_c, 2, 62, 0
8, 314400, Note_on_c, 2, 59, 58
8, 314556, Note_on_c, 2, 59, 0
8, 314640, Note_on_c, 2, 59, 58
8, 314796, Note_on_c, 2, 59, 0
8, 314880, Note_on_c, 2, 57, 58
8, 315036, Note_on_c, 2, 57, 0
8, 315120, Note_on_c, 2, 57, 58
8, 315276, Note_on_c, 2, 57, 0
8, 315360, Note_on_c, 2, 59, 58
8, 315516, Note_on_c, 2, 59, 0
8, 315600, Note_on_c, 2, 59, 58
8, 315756, Note_on_c, 2, 59, 0
8, 315840, Note_on_c, 2, 60, 58
8, 315996, Note_on_c, 2, 60, 0
8, 316080, Note_on_c, 2, 60, 58
8, 316236, Note_on_c, 2, 60, 0
8, 316320, Note_on_c, 2, 57, 58
8, 316476, Note_on_c, 2, 57, 0
8, 316560, Note_on_c, 2, 57, 58
8, 316716, Note_on_c, 2, 57, 0
8, 316800, Note_on_c, 2, 59, 58
8, 316956, Note_on_c, 2, 59, 0
8, 317040, Note_on_c, 2, 59, 58
8, 317196, Note_on_c, 2, 59, 0
8, 317280, Note_on_c, 2, 60, 58
8, 317436, Note_on_c, 2, 60, 0
8, 317520, Note_on_c, 2, 60, 58
8, 317676, Note_on_c, 2, 60, 0
8, 317760, Note_on_c, 2, 62, 58
8, 317916, Note_on_c, 2, 62, 0
8, 318000, Note_on_c, 2, 62, 58
8, 318156, Note_on_c, 2, 62, 0
8, 318240, Note_on_c, 2, 59, 58
8, 318396, Note_on_c, 2, 59, 0
8, 318480, Note_on_c, 2, 59, 58
8, 318636, Note_on_c, 2, 59, 0
8, 318720, Note_on_c, 2, 57, 58
8, 318876, Note_on_c, 2, 57, 0
8, 318960, Note_on_c, 2, 57, 58
8, 319116, Note_on_c, 2, 57, 0
8, 319200, Note_on_c, 2, 59, 58
8, 319356, Note_on_c, 2, 59, 0
8, 319440, Note_on_c, 2, 59, 58
8, 319596, Note_on_c, 2, 59, 0
8, 319680, Note_on_c, 2, 60, 58
8, 319836, Note_on_c, 2, 60, 0
8, 319920, Note_on_c, 2, 60, 58
8, 320076, Note_on_c, 2, 60, 0
8, 320160, Note_on_c, 2, 57, 58
8, 320316, Note_on_c, 2, 57, 0
8, 320400, Note_on_c, 2, 57, 58
8, 320556, Note_on_c, 2, 57, 0
8, 320640, Note_on_c, 2, 59, 58
8, 321024, Note_on_c, 2, 59, 0
8, 321600, Note_on_c, 2, 64, 58
8, 321600, Note_on_c, 2, 71, 92
8, 322368, Note_on_c, 2, 64, 0
8, 322560, Note_on_c, 2, 71, 0
8, 322560, Note_on_c, 2, 69, 92
8, 322944, Note_on_c, 2, 69, 0
8, 323520, Note_on_c, 2, 69, 92
8, 323520, Note_on_c, 2, 62, 92
8, 324288, Note_on_c, 2, 62, 0
8, 324480, Note_on_c, 2, 69, 0
8, 324480, Note_on_c, 2, 67, 92
8, 324636, Note_on_c, 2, 67, 0
8, 324720, Note_on_c, 2, 71, 92
8, 324876, Note_on_c, 2, 71, 0
8, 324960, Note_on_c, 2, 72, 92
8, 325116, Note_on_c, 2, 72, 0
8, 325200, Note_on_c, 2, 74, 92
8, 325356, Note_on_c, 2, 74, 0
8, 325440, Note_on_c, 2, 72, 92
8, 325680, Note_on_c, 2, 72, 0
8, 325680, Note_on_c, 2, 74, 105
8, 325800, Note_on_c, 2, 74, 0
8, 325800, Note_on_c, 2, 76, 105
8, 325878, Note_on_c, 2, 76, 0
8, 325920, Note_on_c, 2, 74, 105
8, 326076, Note_on_c, 2, 74, 0
8, 326160, Note_on_c, 2, 72, 105
8, 326316, Note_on_c, 2, 72, 0
8, 326400, Note_on_c, 2, 72, 105
8, 326640, Note_on_c, 2, 72, 0
8, 326640, Note_on_c, 2, 71, 105
8, 326796, Note_on_c, 2, 71, 0
8, 326880, Note_on_c, 2, 67, 105
8, 327036, Note_on_c, 2, 67, 0
8, 327120, Note_on_c, 2, 71, 105
8, 327276, Note_on_c, 2, 71, 0
8, 327360, Note_on_c, 2, 71, 105
8, 327600, Note_on_c, 2, 71, 0
8, 327600, Note_on_c, 2, 69, 105
8, 327756, Note_on_c, 2, 69, 0
8, 327840, Note_on_c, 2, 67, 105
8, 327996, Note_on_c, 2, 67, 0
8, 328080, Note_on_c, 2, 66, 105
8, 328236, Note_on_c, 2, 66, 0
8, 328320, Note_on_c, 2, 67, 58
8, 328476, Note_on_c, 2, 67, 0
8, 328560, Note_on_c, 2, 59, 58
8, 328716, Note_on_c, 2, 59, 0
8, 328800, Note_on_c, 2, 60, 58
8, 328956, Note_on_c, 2, 60, 0
8, 329040, Note_on_c, 2, 60, 58
8, 329196, Note_on_c, 2, 60, 0
8, 329280, Note_on_c, 2, 62, 58
8, 329436, Note_on_c, 2, 62, 0
8, 329520, Note_on_c, 2, 62, 58
8, 329676, Note_on_c, 2, 62, 0
8, 329760, Note_on_c, 2, 59, 58
8, 329916, Note_on_c, 2, 59, 0
8, 330000, Note_on_c, 2, 59, 58
8, 330156, Note_on_c, 2, 59, 0
8, 330240, Note_on_c, 2, 57, 58
8, 330396, Note_on_c, 2, 57, 0
8, 330480, Note_on_c, 2, 57, 58
8, 330636, Note_on_c, 2, 57, 0
8, 330720, Note_on_c, 2, 59, 58
8, 330876, Note_on_c, 2, 59, 0
8, 330960, Note_on_c, 2, 59, 58
8, 331116, Note_on_c, 2, 59, 0
8, 331200, Note_on_c, 2, 60, 58
8, 331356, Note_on_c, 2, 60, 0
8, 331440, Note_on_c, 2, 60, 58
8, 331596, Note_on_c, 2, 60, 0
8, 331680, Note_on_c, 2, 57, 58
8, 331836, Note_on_c, 2, 57, 0
8, 331920, Note_on_c, 2, 57, 58
8, 332076, Note_on_c, 2, 57, 0
8, 332160, Note_on_c, 2, 59, 58
8, 332316, Note_on_c, 2, 59, 0
8, 332400, Note_on_c, 2, 71, 58
8, 332556, Note_on_c, 2, 71, 0
8, 332640, Note_on_c, 2, 72, 58
8, 332796, Note_on_c, 2, 72, 0
8, 332880, Note_on_c, 2, 72, 58
8, 333036, Note_on_c, 2, 72, 0
8, 333120, Note_on_c, 2, 74, 58
8, 333276, Note_on_c, 2, 74, 0
8, 333360, Note_on_c, 2, 74, 58
8, 333516, Note_on_c, 2, 74, 0
8, 333600, Note_on_c, 2, 71, 58
8, 333756, Note_on_c, 2, 71, 0
8, 333840, Note_on_c, 2, 71, 58
8, 333996, Note_on_c, 2, 71, 0
8, 334080, Note_on_c, 2, 69, 58
8, 334236, Note_on_c, 2, 69, 0
8, 334320, Note_on_c, 2, 69, 58
8, 334476, Note_on_c, 2, 69, 0
8, 334560, Note_on_c, 2, 71, 58
8, 334716, Note_on_c, 2, 71, 0
8, 334800, Note_on_c, 2, 71, 58
8, 334956, Note_on_c, 2, 71, 0
8, 335040, Note_on_c, 2, 72, 58
8, 335196, Note_on_c, 2, 72, 0
8, 335280, Note_on_c, 2, 72, 58
8, 335436, Note_on_c, 2, 72, 0
8, 335520, Note_on_c, 2, 69, 58
8, 335676, Note_on_c, 2, 69, 0
8, 335760, Note_on_c, 2, 69, 58
8, 335916, Note_on_c, 2, 69, 0
8, 336000, Note_on_c, 2, 71, 58
8, 336384, Note_on_c, 2, 71, 0
8, 336960, Note_on_c, 2, 83, 105
8, 337920, Note_on_c, 2, 83, 0
8, 337920, Note_on_c, 2, 81, 105
8, 338304, Note_on_c, 2, 81, 0
8, 338880, Note_on_c, 2, 81, 105
8, 339840, Note_on_c, 2, 81, 0
8, 339840, Note_on_c, 2, 79, 105
8, 339996, Note_on_c, 2, 79, 0
8, 340080, Note_on_c, 2, 71, 105
8, 340236, Note_on_c, 2, 71, 0
8, 340320, Note_on_c, 2, 72, 105
8, 340476, Note_on_c, 2, 72, 0
8, 340560, Note_on_c, 2, 74, 105
8, 340716, Note_on_c, 2, 74, 0
8, 340800, Note_on_c, 2, 72, 105
8, 341040, Note_on_c, 2, 72, 0
8, 341040, Note_on_c, 2, 74, 105
8, 341160, Note_on_c, 2, 74, 0
8, 341160, Note_on_c, 2, 76, 105
8, 341238, Note_on_c, 2, 76, 0
8, 341280, Note_on_c, 2, 74, 105
8, 341436, Note_on_c, 2, 74, 0
8, 341520, Note_on_c, 2, 72, 105
8, 341676, Note_on_c, 2, 72, 0
8, 341760, Note_on_c, 2, 71, 105
8, 342000, Note_on_c, 2, 71, 0
8, 342000, Note_on_c, 2, 74, 105
8, 342156, Note_on_c, 2, 74, 0
8, 342240, Note_on_c, 2, 79, 105
8, 342396, Note_on_c, 2, 79, 0
8, 342480, Note_on_c, 2, 83, 105
8, 342636, Note_on_c, 2, 83, 0
8, 342720, Note_on_c, 2, 83, 105
8, 342960, Note_on_c, 2, 83, 0
8, 342960, Note_on_c, 2, 81, 105
8, 343116, Note_on_c, 2, 81, 0
8, 343200, Note_on_c, 2, 79, 105
8, 343356, Note_on_c, 2, 79, 0
8, 343440, Note_on_c, 2, 78, 105
8, 343596, Note_on_c, 2, 78, 0
8, 343680, Note_on_c, 2, 79, 92
8, 343836, Note_on_c, 2, 79, 0
8, 343920, Note_on_c, 2, 62, 92
8, 344076, Note_on_c, 2, 62, 0
8, 344160, Note_on_c, 2, 64, 92
8, 344316, Note_on_c, 2, 64, 0
8, 344400, Note_on_c, 2, 66, 92
8, 344556, Note_on_c, 2, 66, 0
8, 344640, Note_on_c, 2, 67, 92
8, 344796, Note_on_c, 2, 67, 0
8, 344880, Note_on_c, 2, 67, 92
8, 345036, Note_on_c, 2, 67, 0
8, 345120, Note_on_c, 2, 71, 92
8, 345168, Note_on_c, 2, 71, 0
8, 345180, Note_on_c, 2, 69, 92
8, 345240, Note_on_c, 2, 69, 0
8, 345240, Note_on_c, 2, 71, 92
8, 345300, Note_on_c, 2, 71, 0
8, 345300, Note_on_c, 2, 69, 92
8, 345360, Note_on_c, 2, 69, 0
8, 345360, Note_on_c, 2, 67, 92
8, 345480, Note_on_c, 2, 67, 0
8, 345480, Note_on_c, 2, 69, 92
8, 345600, Note_on_c, 2, 69, 0
8, 345600, Note_on_c, 2, 71, 92
8, 345756, Note_on_c, 2, 71, 0
8, 345840, Note_on_c, 2, 66, 92
8, 345996, Note_on_c, 2, 66, 0
8, 346080, Note_on_c, 2, 67, 92
8, 346236, Note_on_c, 2, 67, 0
8, 346320, Note_on_c, 2, 69, 92
8, 346476, Note_on_c, 2, 69, 0
8, 346560, Note_on_c, 2, 71, 92
8, 346716, Note_on_c, 2, 71, 0
8, 346800, Note_on_c, 2, 71, 92
8, 346956, Note_on_c, 2, 71, 0
8, 347040, Note_on_c, 2, 74, 92
8, 347100, Note_on_c, 2, 74, 0
8, 347100, Note_on_c, 2, 72, 92
8, 347160, Note_on_c, 2, 72, 0
8, 347160, Note_on_c, 2, 74, 92
8, 347220, Note_on_c, 2, 74, 0
8, 347220, Note_on_c, 2, 72, 92
8, 347280, Note_on_c, 2, 72, 0
8, 347280, Note_on_c, 2, 71, 92
8, 347400, Note_on_c, 2, 71, 0
8, 347400, Note_on_c, 2, 72, 92
8, 347520, Note_on_c, 2, 72, 0
8, 347520, Note_on_c, 2, 74, 92
8, 347676, Note_on_c, 2, 74, 0
8, 347760, Note_on_c, 2, 74, 92
8, 347916, Note_on_c, 2, 74, 0
8, 348000, Note_on_c, 2, 76, 92
8, 348060, Note_on_c, 2, 76, 0
8, 348060, Note_on_c, 2, 75, 92
8, 348120, Note_on_c, 2, 75, 0
8, 348120, Note_on_c, 2, 76, 92
8, 348180, Note_on_c, 2, 76, 0
8, 348180, Note_on_c, 2, 75, 92
8, 348240, Note_on_c, 2, 75, 0
8, 348240, Note_on_c, 2, 73, 92
8, 348360, Note_on_c, 2, 73, 0
8, 348360, Note_on_c, 2, 75, 92
8, 348480, Note_on_c, 2, 75, 0
8, 348480, Note_on_c, 2, 76, 92
8, 348864, Note_on_c, 2, 76, 0
8, 349440, Note_on_c, 2, 60, 58
8, 351360, Note_on_c, 2, 60, 0
8, 351360, Note_on_c, 2, 59, 58
8, 351744, Note_on_c, 2, 59, 0
8, 353280, Note_on_c, 2, 60, 58
8, 355200, Note_on_c, 2, 60, 0
8, 355200, Note_on_c, 2, 59, 58
8, 355584, Note_on_c, 2, 59, 0
8, 356160, Note_on_c, 2, 71, 58
8, 356544, Note_on_c, 2, 71, 0
8, 357120, Note_on_c, 2, 76, 58
8, 357504, Note_on_c, 2, 76, 0
8, 358080, Note_on_c, 2, 78, 105
8, 358080, Note_on_c, 2, 69, 105
8, 358464, Note_on_c, 2, 69, 0
8, 358464, Note_on_c, 2, 78, 0
8, 359040, Note_on_c, 2, 59, 105
8, 359040, Note_on_c, 2, 62, 105
8, 359136, Note_on_c, 2, 62, 0
8, 359136, Note_on_c, 2, 59, 0
8, 359160, Note_on_c, 2, 62, 105
8, 359160, Note_on_c, 2, 59, 105
8, 359256, Note_on_c, 2, 59, 0
8, 359256, Note_on_c, 2, 62, 0
8, 359280, Note_on_c, 2, 59, 105
8, 359280, Note_on_c, 2, 62, 105
8, 359376, Note_on_c, 2, 62, 0
8, 359376, Note_on_c, 2, 59, 0
8, 359400, Note_on_c, 2, 62, 105
8, 359400, Note_on_c, 2, 59, 105
8, 359496, Note_on_c, 2, 59, 0
8, 359496, Note_on_c, 2, 62, 0
8, 359520, Note_on_c, 2, 59, 105
8, 359520, Note_on_c, 2, 62, 105
8, 359616, Note_on_c, 2, 62, 0
8, 359616, Note_on_c, 2, 59, 0
8, 359640, Note_on_c, 2, 62, 105
8, 359640, Note_on_c, 2, 59, 105
8, 359736, Note_on_c, 2, 59, 0
8, 359736, Note_on_c, 2, 62, 0
8, 359760, Note_on_c, 2, 59, 105
8, 359760, Note_on_c, 2, 62, 105
8, 359856, Note_on_c, 2, 62, 0
8, 359856, Note_on_c, 2, 59, 0
8, 359880, Note_on_c, 2, 59, 105
8, 359880, Note_on_c, 2, 62, 105
8, 359976, Note_on_c, 2, 62, 0
8, 359976, Note_on_c, 2, 59, 0
8, 360000, Note_on_c, 2, 62, 105
8, 360000, Note_on_c, 2, 59, 105
8, 360096, Note_on_c, 2, 59, 0
8, 360096, Note_on_c, 2, 62, 0
8, 360120, Note_on_c, 2, 62, 105
8, 360120, Note_on_c, 2, 59, 105
8, 360216, Note_on_c, 2, 59, 0
8, 360216, Note_on_c, 2, 62, 0
8, 360240, Note_on_c, 2, 59, 105
8, 360240, Note_on_c, 2, 62, 105
8, 360336, Note_on_c, 2, 62, 0
8, 360336, Note_on_c, 2, 59, 0
8, 360360, Note_on_c, 2, 62, 105
8, 360360, Note_on_c, 2, 59, 105
8, 360456, Note_on_c, 2, 59, 0
8, 360456, Note_on_c, 2, 62, 0
8, 360480, Note_on_c, 2, 59, 105
8, 360480, Note_on_c, 2, 62, 105
8, 360576, Note_on_c, 2, 62, 0
8, 360576, Note_on_c, 2, 59, 0
8, 360600, Note_on_c, 2, 62, 105
8, 360600, Note_on_c, 2, 59, 105
8, 360696, Note_on_c, 2, 59, 0
8, 360696, Note_on_c, 2, 62, 0
8, 360720, Note_on_c, 2, 59, 105
8, 360720, Note_on_c, 2, 62, 105
8, 360816, Note_on_c, 2, 62, 0
8, 360816, Note_on_c, 2, 59, 0
8, 360840, Note_on_c, 2, 59, 105
8, 360840, Note_on_c, 2, 62, 105
8, 360936, Note_on_c, 2, 62, 0
8, 360936, Note_on_c, 2, 59, 0
8, 360960, Note_on_c, 2, 59, 105
8, 360960, Note_on_c, 2, 62, 105
8, 361056, Note_on_c, 2, 62, 0
8, 361056, Note_on_c, 2, 59, 0
8, 361080, Note_on_c, 2, 59, 105
8, 361080, Note_on_c, 2, 62, 105
8, 361176, Note_on_c, 2, 62, 0
8, 361176, Note_on_c, 2, 59, 0
8, 361200, Note_on_c, 2, 59, 105
8, 361200, Note_on_c, 2, 62, 105
8, 361296, Note_on_c, 2, 62, 0
8, 361296, Note_on_c, 2, 59, 0
8, 361320, Note_on_c, 2, 62, 105
8, 361320, Note_on_c, 2, 59, 105
8, 361416, Note_on_c, 2, 59, 0
8, 361416, Note_on_c, 2, 62, 0
8, 361440, Note_on_c, 2, 62, 105
8, 361440, Note_on_c, 2, 59, 105
8, 361536, Note_on_c, 2, 59, 0
8, 361536, Note_on_c, 2, 62, 0
8, 361560, Note_on_c, 2, 62, 105
8, 361560, Note_on_c, 2, 59, 105
8, 361656, Note_on_c, 2, 59, 0
8, 361656, Note_on_c, 2, 62, 0
8, 361680, Note_on_c, 2, 59, 105
8, 361680, Note_on_c, 2, 62, 105
8, 361776, Note_on_c, 2, 62, 0
8, 361776, Note_on_c, 2, 59, 0
8, 361800, Note_on_c, 2, 59, 105
8, 361800, Note_on_c, 2, 62, 105
8, 361896, Note_on_c, 2, 62, 0
8, 361896, Note_on_c, 2, 59, 0
8, 361920, Note_on_c, 2, 59, 105
8, 361920, Note_on_c, 2, 62, 105
8, 362016, Note_on_c, 2, 62, 0
8, 362016, Note_on_c, 2, 59, 0
8, 362040, Note_on_c, 2, 59, 105
8, 362040, Note_on_c, 2, 62, 105
8, 362136, Note_on_c, 2, 62, 0
8, 362136, Note_on_c, 2, 59, 0
8, 362160, Note_on_c, 2, 59, 105
8, 362160, Note_on_c, 2, 62, 105
8, 362256, Note_on_c, 2, 62, 0
8, 362256, Note_on_c, 2, 59, 0
8, 362280, Note_on_c, 2, 62, 105
8, 362280, Note_on_c, 2, 59, 105
8, 362376, Note_on_c, 2, 59, 0
8, 362376, Note_on_c, 2, 62, 0
8, 362400, Note_on_c, 2, 60, 105
8, 362400, Note_on_c, 2, 62, 105
8, 362496, Note_on_c, 2, 62, 0
8, 362496, Note_on_c, 2, 60, 0
8, 362520, Note_on_c, 2, 62, 105
8, 362520, Note_on_c, 2, 60, 105
8, 362616, Note_on_c, 2, 60, 0
8, 362616, Note_on_c, 2, 62, 0
8, 362640, Note_on_c, 2, 60, 105
8, 362640, Note_on_c, 2, 62, 105
8, 362736, Note_on_c, 2, 62, 0
8, 362736, Note_on_c, 2, 60, 0
8, 362760, Note_on_c, 2, 60, 105
8, 362760, Note_on_c, 2, 62, 105
8, 362856, Note_on_c, 2, 62, 0
8, 362856, Note_on_c, 2, 60, 0
8, 362880, Note_on_c, 2, 59, 105
8, 362880, Note_on_c, 2, 62, 105
8, 362976, Note_on_c, 2, 62, 0
8, 362976, Note_on_c, 2, 59, 0
8, 363000, Note_on_c, 2, 59, 105
8, 363000, Note_on_c, 2, 62, 105
8, 363096, Note_on_c, 2, 62, 0
8, 363096, Note_on_c, 2, 59, 0
8, 363120, Note_on_c, 2, 59, 105
8, 363120, Note_on_c, 2, 62, 105
8, 363216, Note_on_c, 2, 62, 0
8, 363216, Note_on_c, 2, 59, 0
8, 363240, Note_on_c, 2, 62, 105
8, 363240, Note_on_c, 2, 59, 105
8, 363336, Note_on_c, 2, 59, 0
8, 363336, Note_on_c, 2, 62, 0
8, 363360, Note_on_c, 2, 59, 105
8, 363360, Note_on_c, 2, 62, 105
8, 363456, Note_on_c, 2, 62, 0
8, 363456, Note_on_c, 2, 59, 0
8, 363480, Note_on_c, 2, 62, 105
8, 363480, Note_on_c, 2, 59, 105
8, 363576, Note_on_c, 2, 59, 0
8, 363576, Note_on_c, 2, 62, 0
8, 363600, Note_on_c, 2, 59, 105
8, 363600, Note_on_c, 2, 62, 105
8, 363696, Note_on_c, 2, 62, 0
8, 363696, Note_on_c, 2, 59, 0
8, 363720, Note_on_c, 2, 62, 105
8, 363720, Note_on_c, 2, 59, 105
8, 363816, Note_on_c, 2, 59, 0
8, 363816, Note_on_c, 2, 62, 0
8, 363840, Note_on_c, 2, 59, 105
8, 363840, Note_on_c, 2, 62, 105
8, 363936, Note_on_c, 2, 62, 0
8, 363936, Note_on_c, 2, 59, 0
8, 363960, Note_on_c, 2, 62, 105
8, 363960, Note_on_c, 2, 59, 105
8, 364056, Note_on_c, 2, 59, 0
8, 364056, Note_on_c, 2, 62, 0
8, 364080, Note_on_c, 2, 59, 105
8, 364080, Note_on_c, 2, 62, 105
8, 364176, Note_on_c, 2, 62, 0
8, 364176, Note_on_c, 2, 59, 0
8, 364200, Note_on_c, 2, 62, 105
8, 364200, Note_on_c, 2, 59, 105
8, 364296, Note_on_c, 2, 59, 0
8, 364296, Note_on_c, 2, 62, 0
8, 364320, Note_on_c, 2, 62, 105
8, 364320, Note_on_c, 2, 59, 105
8, 364416, Note_on_c, 2, 59, 0
8, 364416, Note_on_c, 2, 62, 0
8, 364440, Note_on_c, 2, 62, 105
8, 364440, Note_on_c, 2, 59, 105
8, 364536, Note_on_c, 2, 59, 0
8, 364536, Note_on_c, 2, 62, 0
8, 364560, Note_on_c, 2, 59, 105
8, 364560, Note_on_c, 2, 62, 105
8, 364656, Note_on_c, 2, 62, 0
8, 364656, Note_on_c, 2, 59, 0
8, 364680, Note_on_c, 2, 59, 105
8, 364680, Note_on_c, 2, 62, 105
8, 364776, Note_on_c, 2, 62, 0
8, 364776, Note_on_c, 2, 59, 0
8, 364800, Note_on_c, 2, 59, 105
8, 364800, Note_on_c, 2, 62, 105
8, 364896, Note_on_c, 2, 62, 0
8, 364896, Note_on_c, 2, 59, 0
8, 364920, Note_on_c, 2, 62, 105
8, 364920, Note_on_c, 2, 59, 105
8, 365016, Note_on_c, 2, 59, 0
8, 365016, Note_on_c, 2, 62, 0
8, 365040, Note_on_c, 2, 59, 105
8, 365040, Note_on_c, 2, 62, 105
8, 365136, Note_on_c, 2, 62, 0
8, 365136, Note_on_c, 2, 59, 0
8, 365160, Note_on_c, 2, 62, 105
8, 365160, Note_on_c, 2, 59, 105
8, 365256, Note_on_c, 2, 59, 0
8, 365256, Note_on_c, 2, 62, 0
8, 365280, Note_on_c, 2, 59, 105
8, 365280, Note_on_c, 2, 62, 105
8, 365376, Note_on_c, 2, 62, 0
8, 365376, Note_on_c, 2, 59, 0
8, 365400, Note_on_c, 2, 62, 105
8, 365400, Note_on_c, 2, 59, 105
8, 365496, Note_on_c, 2, 59, 0
8, 365496, Note_on_c, 2, 62, 0
8, 365520, Note_on_c, 2, 59, 105
8, 365520, Note_on_c, 2, 62, 105
8, 365616, Note_on_c, 2, 62, 0
8, 365616, Note_on_c, 2, 59, 0
8, 365640, Note_on_c, 2, 59, 105
8, 365640, Note_on_c, 2, 62, 105
8, 365736, Note_on_c, 2, 62, 0
8, 365736, Note_on_c, 2, 59, 0
8, 365760, Note_on_c, 2, 62, 105
8, 365760, Note_on_c, 2, 59, 105
8, 365856, Note_on_c, 2, 59, 0
8, 365856, Note_on_c, 2, 62, 0
8, 365880, Note_on_c, 2, 62, 105
8, 365880, Note_on_c, 2, 59, 105
8, 365976, Note_on_c, 2, 59, 0
8, 365976, Note_on_c, 2, 62, 0
8, 366000, Note_on_c, 2, 59, 105
8, 366000, Note_on_c, 2, 62, 105
8, 366096, Note_on_c, 2, 62, 0
8, 366096, Note_on_c, 2, 59, 0
8, 366120, Note_on_c, 2, 62, 105
8, 366120, Note_on_c, 2, 59, 105
8, 366216, Note_on_c, 2, 59, 0
8, 366216, Note_on_c, 2, 62, 0
8, 366240, Note_on_c, 2, 60, 105
8, 366240, Note_on_c, 2, 62, 105
8, 366336, Note_on_c, 2, 62, 0
8, 366336, Note_on_c, 2, 60, 0
8, 366360, Note_on_c, 2, 62, 105
8, 366360, Note_on_c, 2, 60, 105
8, 366456, Note_on_c, 2, 60, 0
8, 366456, Note_on_c, 2, 62, 0
8, 366480, Note_on_c, 2, 60, 105
8, 366480, Note_on_c, 2, 62, 105
8, 366576, Note_on_c, 2, 62, 0
8, 366576, Note_on_c, 2, 60, 0
8, 366600, Note_on_c, 2, 60, 105
8, 366600, Note_on_c, 2, 62, 105
8, 366696, Note_on_c, 2, 62, 0
8, 366696, Note_on_c, 2, 60, 0
8, 366720, Note_on_c, 2, 62, 105
8, 366720, Note_on_c, 2, 59, 105
8, 367104, Note_on_c, 2, 59, 0
8, 367104, Note_on_c, 2, 62, 0
8, 367680, Note_on_c, 2, 79, 105
8, 367680, Note_on_c, 2, 71, 105
8, 367680, Note_on_c, 2, 62, 105
8, 368064, Note_on_c, 2, 62, 0
8, 368064, Note_on_c, 2, 71, 0
8, 368064, Note_on_c, 2, 79, 0
8, 368640, Note_on_c, 2, 62, 105
8, 368640, Note_on_c, 2, 71, 105
8, 368640, Note_on_c, 2, 79, 105
8, 368952, Note_on_c, 2, 79, 0
8, 368952, Note_on_c, 2, 71, 0
8, 368952, Note_on_c, 2, 62, 0
8, 369120, Note_on_c, 2, 67, 105
8, 369120, Note_on_c, 2, 55, 105
8, 369354, Note_on_c, 2, 55, 0
8, 369354, Note_on_c, 2, 67, 0
8, 369480, Note_on_c, 2, 55, 105
8, 369480, Note_on_c, 2, 67, 105
8, 369558, Note_on_c, 2, 67, 0
8, 369558, Note_on_c, 2, 55, 0
8, 369600, Note_on_c, 2, 67, 105
8, 369600, Note_on_c, 2, 55, 105
8, 369984, Note_on_c, 2, 55, 0
8, 369984, Note_on_c, 2, 67, 0
8, 369984, End_track
9, 0, Start_track
9, 0, Program_c, 3, 41
9, 0, Control_c, 3, 7, 81
9, 0, Control_c, 3, 10, 29
9, 0, Control_c, 3, 91, 85
9, 1920, Note_on_c, 3, 67, 80
9, 2304, Note_on_c, 3, 67, 0
9, 2640, Note_on_c, 3, 62, 105
9, 2784, Note_on_c, 3, 62, 0
9, 2880, Note_on_c, 3, 67, 105
9, 3264, Note_on_c, 3, 67, 0
9, 3600, Note_on_c, 3, 62, 105
9, 3744, Note_on_c, 3, 62, 0
9, 3840, Note_on_c, 3, 67, 105
9, 3984, Note_on_c, 3, 67, 0
9, 4080, Note_on_c, 3, 62, 105
9, 4224, Note_on_c, 3, 62, 0
9, 4320, Note_on_c, 3, 67, 105
9, 4464, Note_on_c, 3, 67, 0
9, 4560, Note_on_c, 3, 71, 105
9, 4704, Note_on_c, 3, 71, 0
9, 4800, Note_on_c, 3, 74, 105
9, 5184, Note_on_c, 3, 74, 0
9, 5760, Note_on_c, 3, 72, 105
9, 6144, Note_on_c, 3, 72, 0
9, 6480, Note_on_c, 3, 69, 105
9, 6624, Note_on_c, 3, 69, 0
9, 6720, Note_on_c, 3, 72, 105
9, 7104, Note_on_c, 3, 72, 0
9, 7440, Note_on_c, 3, 69, 105
9, 7584, Note_on_c, 3, 69, 0
9, 7680, Note_on_c, 3, 72, 105
9, 7824, Note_on_c, 3, 72, 0
9, 7920, Note_on_c, 3, 69, 105
9, 8064, Note_on_c, 3, 69, 0
9, 8160, Note_on_c, 3, 66, 105
9, 8304, Note_on_c, 3, 66, 0
9, 8400, Note_on_c, 3, 69, 105
9, 8544, Note_on_c, 3, 69, 0
9, 8640, Note_on_c, 3, 62, 105
9, 9024, Note_on_c, 3, 62, 0
9, 9600, Note_on_c, 3, 67, 105
9, 9756, Note_on_c, 3, 67, 0
9, 9840, Note_on_c, 3, 67, 105
9, 9996, Note_on_c, 3, 67, 0
9, 10080, Note_on_c, 3, 67, 105
9, 10236, Note_on_c, 3, 67, 0
9, 10320, Note_on_c, 3, 67, 105
9, 10476, Note_on_c, 3, 67, 0
9, 10560, Note_on_c, 3, 67, 105
9, 10716, Note_on_c, 3, 67, 0
9, 10800, Note_on_c, 3, 67, 105
9, 10956, Note_on_c, 3, 67, 0
9, 11040, Note_on_c, 3, 67, 105
9, 11196, Note_on_c, 3, 67, 0
9, 11280, Note_on_c, 3, 67, 105
9, 11436, Note_on_c, 3, 67, 0
9, 11520, Note_on_c, 3, 69, 105
9, 11676, Note_on_c, 3, 69, 0
9, 11760, Note_on_c, 3, 69, 105
9, 11916, Note_on_c, 3, 69, 0
9, 12000, Note_on_c, 3, 69, 105
9, 12156, Note_on_c, 3, 69, 0
9, 12240, Note_on_c, 3, 69, 105
9, 12396, Note_on_c, 3, 69, 0
9, 12480, Note_on_c, 3, 69, 105
9, 12720, Note_on_c, 3, 69, 0
9, 12720, Note_on_c, 3, 72, 105
9, 12876, Note_on_c, 3, 72, 0
9, 12960, Note_on_c, 3, 66, 105
9, 13200, Note_on_c, 3, 66, 0
9, 13200, Note_on_c, 3, 69, 105
9, 13356, Note_on_c, 3, 69, 0
9, 13440, Note_on_c, 3, 67, 105
9, 13596, Note_on_c, 3, 67, 0
9, 13680, Note_on_c, 3, 67, 105
9, 13836, Note_on_c, 3, 67, 0
9, 13920, Note_on_c, 3, 67, 105
9, 14076, Note_on_c, 3, 67, 0
9, 14160, Note_on_c, 3, 67, 105
9, 14316, Note_on_c, 3, 67, 0
9, 14400, Note_on_c, 3, 67, 105
9, 14556, Note_on_c, 3, 67, 0
9, 14640, Note_on_c, 3, 67, 105
9, 14796, Note_on_c, 3, 67, 0
9, 14880, Note_on_c, 3, 67, 105
9, 15036, Note_on_c, 3, 67, 0
9, 15120, Note_on_c, 3, 67, 105
9, 15276, Note_on_c, 3, 67, 0
9, 15360, Note_on_c, 3, 69, 105
9, 15516, Note_on_c, 3, 69, 0
9, 15600, Note_on_c, 3, 69, 105
9, 15756, Note_on_c, 3, 69, 0
9, 15840, Note_on_c, 3, 69, 105
9, 15996, Note_on_c, 3, 69, 0
9, 16080, Note_on_c, 3, 69, 105
9, 16236, Note_on_c, 3, 69, 0
9, 16320, Note_on_c, 3, 69, 105
9, 16560, Note_on_c, 3, 69, 0
9, 16560, Note_on_c, 3, 72, 105
9, 16716, Note_on_c, 3, 72, 0
9, 16800, Note_on_c, 3, 66, 105
9, 17040, Note_on_c, 3, 66, 0
9, 17040, Note_on_c, 3, 69, 105
9, 17196, Note_on_c, 3, 69, 0
9, 17280, Note_on_c, 3, 62, 105
9, 17376, Note_on_c, 3, 62, 0
9, 17400, Note_on_c, 3, 62, 105
9, 17496, Note_on_c, 3, 62, 0
9, 17520, Note_on_c, 3, 62, 105
9, 17616, Note_on_c, 3, 62, 0
9, 17640, Note_on_c, 3, 62, 105
9, 17736, Note_on_c, 3, 62, 0
9, 17760, Note_on_c, 3, 62, 105
9, 17856, Note_on_c, 3, 62, 0
9, 17880, Note_on_c, 3, 62, 105
9, 17976, Note_on_c, 3, 62, 0
9, 18000, Note_on_c, 3, 62, 105
9, 18096, Note_on_c, 3, 62, 0
9, 18120, Note_on_c, 3, 62, 105
9, 18216, Note_on_c, 3, 62, 0
9, 18240, Note_on_c, 3, 62, 105
9, 18336, Note_on_c, 3, 62, 0
9, 18360, Note_on_c, 3, 62, 105
9, 18456, Note_on_c, 3, 62, 0
9, 18480, Note_on_c, 3, 62, 105
9, 18576, Note_on_c, 3, 62, 0
9, 18600, Note_on_c, 3, 62, 105
9, 18696, Note_on_c, 3, 62, 0
9, 18720, Note_on_c, 3, 62, 105
9, 18816, Note_on_c, 3, 62, 0
9, 18840, Note_on_c, 3, 62, 105
9, 18936, Note_on_c, 3, 62, 0
9, 18960, Note_on_c, 3, 62, 105
9, 19056, Note_on_c, 3, 62, 0
9, 19080, Note_on_c, 3, 62, 105
9, 19176, Note_on_c, 3, 62, 0
9, 19200, Note_on_c, 3, 62, 105
9, 19296, Note_on_c, 3, 62, 0
9, 19320, Note_on_c, 3, 62, 105
9, 19416, Note_on_c, 3, 62, 0
9, 19440, Note_on_c, 3, 62, 105
9, 19536, Note_on_c, 3, 62, 0
9, 19560, Note_on_c, 3, 62, 105
9, 19656, Note_on_c, 3, 62, 0
9, 19680, Note_on_c, 3, 62, 105
9, 19776, Note_on_c, 3, 62, 0
9, 19800, Note_on_c, 3, 62, 105
9, 19896, Note_on_c, 3, 62, 0
9, 19920, Note_on_c, 3, 62, 105
9, 20016, Note_on_c, 3, 62, 0
9, 20040, Note_on_c, 3, 62, 105
9, 20136, Note_on_c, 3, 62, 0
9, 20160, Note_on_c, 3, 62, 92
9, 20544, Note_on_c, 3, 62, 0
9, 23040, Note_on_c, 3, 54, 58
9, 24000, Note_on_c, 3, 54, 0
9, 24000, Note_on_c, 3, 55, 58
9, 24768, Note_on_c, 3, 55, 0
9, 24960, Note_on_c, 3, 60, 58
9, 25272, Note_on_c, 3, 60, 0
9, 25440, Note_on_c, 3, 60, 58
9, 25752, Note_on_c, 3, 60, 0
9, 25920, Note_on_c, 3, 57, 58
9, 26232, Note_on_c, 3, 57, 0
9, 26400, Note_on_c, 3, 50, 58
9, 26712, Note_on_c, 3, 50, 0
9, 26880, Note_on_c, 3, 50, 58
9, 27072, Note_on_c, 3, 50, 0
9, 27360, Note_on_c, 3, 62, 58
9, 27552, Note_on_c, 3, 62, 0
9, 27840, Note_on_c, 3, 62, 58
9, 28224, Note_on_c, 3, 62, 0
9, 30720, Note_on_c, 3, 66, 58
9, 31680, Note_on_c, 3, 66, 0
9, 31680, Note_on_c, 3, 67, 58
9, 32448, Note_on_c, 3, 67, 0
9, 32640, Note_on_c, 3, 60, 58
9, 32952, Note_on_c, 3, 60, 0
9, 33120, Note_on_c, 3, 60, 58
9, 33276, Note_on_c, 3, 60, 0
9, 33360, Note_on_c, 3, 60, 58
9, 33516, Note_on_c, 3, 60, 0
9, 33600, Note_on_c, 3, 57, 58
9, 33912, Note_on_c, 3, 57, 0
9, 34080, Note_on_c, 3, 57, 58
9, 34236, Note_on_c, 3, 57, 0
9, 34320, Note_on_c, 3, 57, 58
9, 34476, Note_on_c, 3, 57, 0
9, 34560, Note_on_c, 3, 55, 112
9, 34752, Note_on_c, 3, 55, 0
9, 34800, Note_on_c, 3, 55, 92
9, 34992, Note_on_c, 3, 55, 0
9, 35040, Note_on_c, 3, 55, 92
9, 35232, Note_on_c, 3, 55, 0
9, 35280, Note_on_c, 3, 55, 92
9, 35472, Note_on_c, 3, 55, 0
9, 35520, Note_on_c, 3, 55, 72
9, 35712, Note_on_c, 3, 55, 0
9, 35760, Note_on_c, 3, 55, 72
9, 35952, Note_on_c, 3, 55, 0
9, 36000, Note_on_c, 3, 55, 72
9, 36192, Note_on_c, 3, 55, 0
9, 36240, Note_on_c, 3, 55, 72
9, 36432, Note_on_c, 3, 55, 0
9, 36480, Note_on_c, 3, 55, 112
9, 36672, Note_on_c, 3, 55, 0
9, 36720, Note_on_c, 3, 55, 92
9, 36912, Note_on_c, 3, 55, 0
9, 36960, Note_on_c, 3, 55, 92
9, 37152, Note_on_c, 3, 55, 0
9, 37200, Note_on_c, 3, 55, 92
9, 37392, Note_on_c, 3, 55, 0
9, 37440, Note_on_c, 3, 55, 72
9, 37632, Note_on_c, 3, 55, 0
9, 37680, Note_on_c, 3, 55, 72
9, 37872, Note_on_c, 3, 55, 0
9, 37920, Note_on_c, 3, 55, 72
9, 38112, Note_on_c, 3, 55, 0
9, 38160, Note_on_c, 3, 55, 72
9, 38352, Note_on_c, 3, 55, 0
9, 38400, Note_on_c, 3, 55, 72
9, 38544, Note_on_c, 3, 55, 0
9, 38640, Note_on_c, 3, 67, 72
9, 38784, Note_on_c, 3, 67, 0
9, 38880, Note_on_c, 3, 67, 72
9, 39024, Note_on_c, 3, 67, 0
9, 39120, Note_on_c, 3, 67, 72
9, 39264, Note_on_c, 3, 67, 0
9, 39360, Note_on_c, 3, 67, 81
9, 39504, Note_on_c, 3, 67, 0
9, 39600, Note_on_c, 3, 67, 81
9, 39744, Note_on_c, 3, 67, 0
9, 39840, Note_on_c, 3, 69, 81
9, 39984, Note_on_c, 3, 69, 0
9, 40080, Note_on_c, 3, 69, 81
9, 40224, Note_on_c, 3, 69, 0
9, 40320, Note_on_c, 3, 67, 92
9, 40464, Note_on_c, 3, 67, 0
9, 40560, Note_on_c, 3, 67, 92
9, 40704, Note_on_c, 3, 67, 0
9, 40800, Note_on_c, 3, 66, 92
9, 40944, Note_on_c, 3, 66, 0
9, 41040, Note_on_c, 3, 66, 92
9, 41184, Note_on_c, 3, 66, 0
9, 41280, Note_on_c, 3, 67, 105
9, 41424, Note_on_c, 3, 67, 0
9, 41520, Note_on_c, 3, 67, 105
9, 41664, Note_on_c, 3, 67, 0
9, 41760, Note_on_c, 3, 64, 105
9, 41904, Note_on_c, 3, 64, 0
9, 42000, Note_on_c, 3, 64, 105
9, 42144, Note_on_c, 3, 64, 0
9, 42240, Note_on_c, 3, 69, 105
9, 42240, Note_on_c, 3, 62, 105
9, 42336, Note_on_c, 3, 62, 0
9, 42336, Note_on_c, 3, 69, 0
9, 42360, Note_on_c, 3, 69, 105
9, 42360, Note_on_c, 3, 62, 105
9, 42456, Note_on_c, 3, 62, 0
9, 42456, Note_on_c, 3, 69, 0
9, 42480, Note_on_c, 3, 62, 105
9, 42480, Note_on_c, 3, 69, 105
9, 42576, Note_on_c, 3, 69, 0
9, 42576, Note_on_c, 3, 62, 0
9, 42600, Note_on_c, 3, 69, 105
9, 42600, Note_on_c, 3, 62, 105
9, 42696, Note_on_c, 3, 62, 0
9, 42696, Note_on_c, 3, 69, 0
9, 42720, Note_on_c, 3, 62, 105
9, 42720, Note_on_c, 3, 69, 105
9, 42816, Note_on_c, 3, 69, 0
9, 42816, Note_on_c, 3, 62, 0
9, 42840, Note_on_c, 3, 62, 105
9, 42840, Note_on_c, 3, 69, 105
9, 42936, Note_on_c, 3, 69, 0
9, 42936, Note_on_c, 3, 62, 0
9, 42960, Note_on_c, 3, 62, 105
9, 42960, Note_on_c, 3, 69, 105
9, 43056, Note_on_c, 3, 69, 0
9, 43056, Note_on_c, 3, 62, 0
9, 43080, Note_on_c, 3, 69, 105
9, 43080, Note_on_c, 3, 62, 105
9, 43176, Note_on_c, 3, 62, 0
9, 43176, Note_on_c, 3, 69, 0
9, 43200, Note_on_c, 3, 69, 105
9, 43200, Note_on_c, 3, 64, 105
9, 43296, Note_on_c, 3, 64, 0
9, 43296, Note_on_c, 3, 69, 0
9, 43320, Note_on_c, 3, 69, 105
9, 43320, Note_on_c, 3, 64, 105
9, 43416, Note_on_c, 3, 64, 0
9, 43416, Note_on_c, 3, 69, 0
9, 43440, Note_on_c, 3, 64, 105
9, 43440, Note_on_c, 3, 69, 105
9, 43536, Note_on_c, 3, 69, 0
9, 43536, Note_on_c, 3, 64, 0
9, 43560, Note_on_c, 3, 64, 105
9, 43560, Note_on_c, 3, 69, 105
9, 43656, Note_on_c, 3, 69, 0
9, 43656, Note_on_c, 3, 64, 0
9, 43680, Note_on_c, 3, 69, 105
9, 43680, Note_on_c, 3, 64, 105
9, 43776, Note_on_c, 3, 64, 0
9, 43776, Note_on_c, 3, 69, 0
9, 43800, Note_on_c, 3, 69, 105
9, 43800, Note_on_c, 3, 64, 105
9, 43896, Note_on_c, 3, 64, 0
9, 43896, Note_on_c, 3, 69, 0
9, 43920, Note_on_c, 3, 69, 105
9, 43920, Note_on_c, 3, 64, 105
9, 44016, Note_on_c, 3, 64, 0
9, 44016, Note_on_c, 3, 69, 0
9, 44040, Note_on_c, 3, 69, 105
9, 44040, Note_on_c, 3, 64, 105
9, 44136, Note_on_c, 3, 64, 0
9, 44136, Note_on_c, 3, 69, 0
9, 44160, Note_on_c, 3, 69, 105
9, 44160, Note_on_c, 3, 62, 105
9, 44256, Note_on_c, 3, 62, 0
9, 44256, Note_on_c, 3, 69, 0
9, 44280, Note_on_c, 3, 62, 105
9, 44280, Note_on_c, 3, 69, 105
9, 44376, Note_on_c, 3, 69, 0
9, 44376, Note_on_c, 3, 62, 0
9, 44400, Note_on_c, 3, 62, 105
9, 44400, Note_on_c, 3, 69, 105
9, 44496, Note_on_c, 3, 69, 0
9, 44496, Note_on_c, 3, 62, 0
9, 44520, Note_on_c, 3, 69, 105
9, 44520, Note_on_c, 3, 62, 105
9, 44616, Note_on_c, 3, 62, 0
9, 44616, Note_on_c, 3, 69, 0
9, 44640, Note_on_c, 3, 62, 105
9, 44640, Note_on_c, 3, 69, 105
9, 44736, Note_on_c, 3, 69, 0
9, 44736, Note_on_c, 3, 62, 0
9, 44760, Note_on_c, 3, 62, 105
9, 44760, Note_on_c, 3, 69, 105
9, 44856, Note_on_c, 3, 69, 0
9, 44856, Note_on_c, 3, 62, 0
9, 44880, Note_on_c, 3, 69, 105
9, 44880, Note_on_c, 3, 62, 105
9, 44976, Note_on_c, 3, 62, 0
9, 44976, Note_on_c, 3, 69, 0
9, 45000, Note_on_c, 3, 62, 105
9, 45000, Note_on_c, 3, 69, 105
9, 45096, Note_on_c, 3, 69, 0
9, 45096, Note_on_c, 3, 62, 0
9, 45120, Note_on_c, 3, 69, 105
9, 45120, Note_on_c, 3, 64, 105
9, 45216, Note_on_c, 3, 64, 0
9, 45216, Note_on_c, 3, 69, 0
9, 45240, Note_on_c, 3, 64, 105
9, 45240, Note_on_c, 3, 69, 105
9, 45336, Note_on_c, 3, 69, 0
9, 45336, Note_on_c, 3, 64, 0
9, 45360, Note_on_c, 3, 64, 105
9, 45360, Note_on_c, 3, 69, 105
9, 45456, Note_on_c, 3, 69, 0
9, 45456, Note_on_c, 3, 64, 0
9, 45480, Note_on_c, 3, 69, 105
9, 45480, Note_on_c, 3, 64, 105
9, 45576, Note_on_c, 3, 64, 0
9, 45576, Note_on_c, 3, 69, 0
9, 45600, Note_on_c, 3, 64, 105
9, 45600, Note_on_c, 3, 69, 105
9, 45696, Note_on_c, 3, 69, 0
9, 45696, Note_on_c, 3, 64, 0
9, 45720, Note_on_c, 3, 64, 105
9, 45720, Note_on_c, 3, 69, 105
9, 45816, Note_on_c, 3, 69, 0
9, 45816, Note_on_c, 3, 64, 0
9, 45840, Note_on_c, 3, 69, 105
9, 45840, Note_on_c, 3, 64, 105
9, 45936, Note_on_c, 3, 64, 0
9, 45936, Note_on_c, 3, 69, 0
9, 45960, Note_on_c, 3, 69, 105
9, 45960, Note_on_c, 3, 64, 105
9, 46056, Note_on_c, 3, 64, 0
9, 46056, Note_on_c, 3, 69, 0
9, 46080, Note_on_c, 3, 66, 105
9, 46236, Note_on_c, 3, 66, 0
9, 46320, Note_on_c, 3, 67, 105
9, 46476, Note_on_c, 3, 67, 0
9, 46560, Note_on_c, 3, 69, 105
9, 46716, Note_on_c, 3, 69, 0
9, 46800, Note_on_c, 3, 67, 105
9, 46956, Note_on_c, 3, 67, 0
9, 47040, Note_on_c, 3, 66, 105
9, 47196, Note_on_c, 3, 66, 0
9, 47280, Note_on_c, 3, 67, 105
9, 47436, Note_on_c, 3, 67, 0
9, 47520, Note_on_c, 3, 69, 105
9, 47676, Note_on_c, 3, 69, 0
9, 47760, Note_on_c, 3, 66, 105
9, 47916, Note_on_c, 3, 66, 0
9, 48000, Note_on_c, 3, 71, 105
9, 48156, Note_on_c, 3, 71, 0
9, 48240, Note_on_c, 3, 69, 105
9, 48396, Note_on_c, 3, 69, 0
9, 48480, Note_on_c, 3, 67, 105
9, 48636, Note_on_c, 3, 67, 0
9, 48720, Note_on_c, 3, 69, 105
9, 48876, Note_on_c, 3, 69, 0
9, 48960, Note_on_c, 3, 71, 105
9, 49116, Note_on_c, 3, 71, 0
9, 49200, Note_on_c, 3, 69, 105
9, 49356, Note_on_c, 3, 69, 0
9, 49440, Note_on_c, 3, 68, 105
9, 49596, Note_on_c, 3, 68, 0
9, 49680, Note_on_c, 3, 71, 105
9, 49836, Note_on_c, 3, 71, 0
9, 49920, Note_on_c, 3, 69, 105
9, 50076, Note_on_c, 3, 69, 0
9, 50160, Note_on_c, 3, 69, 105
9, 50316, Note_on_c, 3, 69, 0
9, 50400, Note_on_c, 3, 69, 105
9, 50556, Note_on_c, 3, 69, 0
9, 50640, Note_on_c, 3, 69, 105
9, 50796, Note_on_c, 3, 69, 0
9, 50880, Note_on_c, 3, 69, 105
9, 51036, Note_on_c, 3, 69, 0
9, 51120, Note_on_c, 3, 69, 105
9, 51276, Note_on_c, 3, 69, 0
9, 51360, Note_on_c, 3, 69, 105
9, 51516, Note_on_c, 3, 69, 0
9, 51600, Note_on_c, 3, 69, 105
9, 51756, Note_on_c, 3, 69, 0
9, 51840, Note_on_c, 3, 69, 105
9, 51996, Note_on_c, 3, 69, 0
9, 52080, Note_on_c, 3, 57, 105
9, 52236, Note_on_c, 3, 57, 0
9, 52320, Note_on_c, 3, 57, 105
9, 52476, Note_on_c, 3, 57, 0
9, 52560, Note_on_c, 3, 57, 105
9, 52716, Note_on_c, 3, 57, 0
9, 52800, Note_on_c, 3, 57, 92
9, 53184, Note_on_c, 3, 57, 0
9, 55200, Note_on_c, 3, 66, 58
9, 55392, Note_on_c, 3, 66, 0
9, 55680, Note_on_c, 3, 59, 58
9, 55872, Note_on_c, 3, 59, 0
9, 56160, Note_on_c, 3, 67, 58
9, 56352, Note_on_c, 3, 67, 0
9, 56640, Note_on_c, 3, 64, 58
9, 56832, Note_on_c, 3, 64, 0
9, 57120, Note_on_c, 3, 61, 58
9, 57312, Note_on_c, 3, 61, 0
9, 58080, Note_on_c, 3, 64, 58
9, 58560, Note_on_c, 3, 64, 0
9, 58560, Note_on_c, 3, 62, 58
9, 58752, Note_on_c, 3, 62, 0
9, 59040, Note_on_c, 3, 64, 58
9, 59232, Note_on_c, 3, 64, 0
9, 59520, Note_on_c, 3, 62, 58
9, 60480, Note_on_c, 3, 62, 0
9, 60480, Note_on_c, 3, 61, 58
9, 60864, Note_on_c, 3, 61, 0
9, 61920, Note_on_c, 3, 61, 58
9, 62400, Note_on_c, 3, 61, 0
9, 62400, Note_on_c, 3, 62, 58
9, 62592, Note_on_c, 3, 62, 0
9, 62880, Note_on_c, 3, 66, 58
9, 63072, Note_on_c, 3, 66, 0
9, 63360, Note_on_c, 3, 59, 58
9, 63552, Note_on_c, 3, 59, 0
9, 63840, Note_on_c, 3, 55, 58
9, 64032, Note_on_c, 3, 55, 0
9, 64320, Note_on_c, 3, 52, 58
9, 64704, Note_on_c, 3, 52, 0
9, 65040, Note_on_c, 3, 64, 58
9, 65232, Note_on_c, 3, 64, 0
9, 65280, Note_on_c, 3, 64, 72
9, 65520, Note_on_c, 3, 64, 0
9, 65520, Note_on_c, 3, 62, 72
9, 65712, Note_on_c, 3, 62, 0
9, 67200, Note_on_c, 3, 62, 58
9, 67356, Note_on_c, 3, 62, 0
9, 67440, Note_on_c, 3, 62, 58
9, 67596, Note_on_c, 3, 62, 0
9, 67680, Note_on_c, 3, 64, 58
9, 67836, Note_on_c, 3, 64, 0
9, 67920, Note_on_c, 3, 64, 58
9, 68076, Note_on_c, 3, 64, 0
9, 68160, Note_on_c, 3, 66, 58
9, 68316, Note_on_c, 3, 66, 0
9, 68400, Note_on_c, 3, 66, 58
9, 68556, Note_on_c, 3, 66, 0
9, 68640, Note_on_c, 3, 62, 58
9, 68796, Note_on_c, 3, 62, 0
9, 68880, Note_on_c, 3, 62, 58
9, 69036, Note_on_c, 3, 62, 0
9, 69120, Note_on_c, 3, 61, 58
9, 69276, Note_on_c, 3, 61, 0
9, 69360, Note_on_c, 3, 61, 58
9, 69516, Note_on_c, 3, 61, 0
9, 69600, Note_on_c, 3, 62, 58
9, 69756, Note_on_c, 3, 62, 0
9, 69840, Note_on_c, 3, 62, 58
9, 69996, Note_on_c, 3, 62, 0
9, 70080, Note_on_c, 3, 64, 58
9, 70236, Note_on_c, 3, 64, 0
9, 70320, Note_on_c, 3, 64, 58
9, 70476, Note_on_c, 3, 64, 0
9, 70560, Note_on_c, 3, 61, 58
9, 70716, Note_on_c, 3, 61, 0
9, 70800, Note_on_c, 3, 61, 58
9, 70956, Note_on_c, 3, 61, 0
9, 71040, Note_on_c, 3, 62, 58
9, 71196, Note_on_c, 3, 62, 0
9, 71280, Note_on_c, 3, 62, 58
9, 71436, Note_on_c, 3, 62, 0
9, 71520, Note_on_c, 3, 64, 58
9, 71676, Note_on_c, 3, 64, 0
9, 71760, Note_on_c, 3, 64, 58
9, 71916, Note_on_c, 3, 64, 0
9, 72000, Note_on_c, 3, 66, 58
9, 72156, Note_on_c, 3, 66, 0
9, 72240, Note_on_c, 3, 66, 58
9, 72396, Note_on_c, 3, 66, 0
9, 72480, Note_on_c, 3, 62, 58
9, 72636, Note_on_c, 3, 62, 0
9, 72720, Note_on_c, 3, 62, 58
9, 72876, Note_on_c, 3, 62, 0
9, 72960, Note_on_c, 3, 61, 58
9, 73116, Note_on_c, 3, 61, 0
9, 73200, Note_on_c, 3, 61, 58
9, 73356, Note_on_c, 3, 61, 0
9, 73440, Note_on_c, 3, 62, 58
9, 73596, Note_on_c, 3, 62, 0
9, 73680, Note_on_c, 3, 62, 58
9, 73836, Note_on_c, 3, 62, 0
9, 73920, Note_on_c, 3, 64, 58
9, 74076, Note_on_c, 3, 64, 0
9, 74160, Note_on_c, 3, 64, 58
9, 74316, Note_on_c, 3, 64, 0
9, 74400, Note_on_c, 3, 61, 58
9, 74556, Note_on_c, 3, 61, 0
9, 74640, Note_on_c, 3, 61, 58
9, 74796, Note_on_c, 3, 61, 0
9, 74880, Note_on_c, 3, 62, 58
9, 75036, Note_on_c, 3, 62, 0
9, 75120, Note_on_c, 3, 62, 105
9, 75276, Note_on_c, 3, 62, 0
9, 75360, Note_on_c, 3, 66, 105
9, 75516, Note_on_c, 3, 66, 0
9, 75600, Note_on_c, 3, 64, 105
9, 75756, Note_on_c, 3, 64, 0
9, 75840, Note_on_c, 3, 63, 105
9, 75996, Note_on_c, 3, 63, 0
9, 76080, Note_on_c, 3, 59, 105
9, 76236, Note_on_c, 3, 59, 0
9, 76320, Note_on_c, 3, 61, 105
9, 76476, Note_on_c, 3, 61, 0
9, 76560, Note_on_c, 3, 63, 105
9, 76716, Note_on_c, 3, 63, 0
9, 76800, Note_on_c, 3, 64, 105
9, 76956, Note_on_c, 3, 64, 0
9, 77040, Note_on_c, 3, 67, 105
9, 77196, Note_on_c, 3, 67, 0
9, 77280, Note_on_c, 3, 64, 105
9, 77436, Note_on_c, 3, 64, 0
9, 77520, Note_on_c, 3, 62, 105
9, 77676, Note_on_c, 3, 62, 0
9, 77760, Note_on_c, 3, 61, 105
9, 77916, Note_on_c, 3, 61, 0
9, 78000, Note_on_c, 3, 57, 105
9, 78156, Note_on_c, 3, 57, 0
9, 78240, Note_on_c, 3, 59, 105
9, 78396, Note_on_c, 3, 59, 0
9, 78480, Note_on_c, 3, 61, 105
9, 78636, Note_on_c, 3, 61, 0
9, 78720, Note_on_c, 3, 62, 105
9, 78876, Note_on_c, 3, 62, 0
9, 78960, Note_on_c, 3, 74, 105
9, 79116, Note_on_c, 3, 74, 0
9, 79200, Note_on_c, 3, 74, 105
9, 79356, Note_on_c, 3, 74, 0
9, 79440, Note_on_c, 3, 74, 105
9, 79596, Note_on_c, 3, 74, 0
9, 79680, Note_on_c, 3, 74, 105
9, 79836, Note_on_c, 3, 74, 0
9, 79920, Note_on_c, 3, 74, 105
9, 80076, Note_on_c, 3, 74, 0
9, 80160, Note_on_c, 3, 74, 105
9, 80316, Note_on_c, 3, 74, 0
9, 80400, Note_on_c, 3, 74, 105
9, 80556, Note_on_c, 3, 74, 0
9, 80640, Note_on_c, 3, 74, 105
9, 80880, Note_on_c, 3, 74, 0
9, 80880, Note_on_c, 3, 69, 105
9, 81036, Note_on_c, 3, 69, 0
9, 81120, Note_on_c, 3, 69, 105
9, 81276, Note_on_c, 3, 69, 0
9, 81360, Note_on_c, 3, 69, 105
9, 81516, Note_on_c, 3, 69, 0
9, 81600, Note_on_c, 3, 69, 105
9, 81756, Note_on_c, 3, 69, 0
9, 81840, Note_on_c, 3, 69, 105
9, 81996, Note_on_c, 3, 69, 0
9, 82080, Note_on_c, 3, 69, 105
9, 82236, Note_on_c, 3, 69, 0
9, 82320, Note_on_c, 3, 67, 105
9, 82476, Note_on_c, 3, 67, 0
9, 82560, Note_on_c, 3, 66, 92
9, 82716, Note_on_c, 3, 66, 0
9, 82800, Note_on_c, 3, 62, 58
9, 82956, Note_on_c, 3, 62, 0
9, 83040, Note_on_c, 3, 64, 58
9, 83196, Note_on_c, 3, 64, 0
9, 83280, Note_on_c, 3, 64, 58
9, 83436, Note_on_c, 3, 64, 0
9, 83520, Note_on_c, 3, 66, 58
9, 83676, Note_on_c, 3, 66, 0
9, 83760, Note_on_c, 3, 66, 58
9, 83916, Note_on_c, 3, 66, 0
9, 84000, Note_on_c, 3, 62, 58
9, 84156, Note_on_c, 3, 62, 0
9, 84240, Note_on_c, 3, 62, 58
9, 84396, Note_on_c, 3, 62, 0
9, 84480, Note_on_c, 3, 61, 58
9, 84636, Note_on_c, 3, 61, 0
9, 84720, Note_on_c, 3, 61, 58
9, 84876, Note_on_c, 3, 61, 0
9, 84960, Note_on_c, 3, 62, 58
9, 85116, Note_on_c, 3, 62, 0
9, 85200, Note_on_c, 3, 62, 58
9, 85356, Note_on_c, 3, 62, 0
9, 85440, Note_on_c, 3, 64, 58
9, 85596, Note_on_c, 3, 64, 0
9, 85680, Note_on_c, 3, 64, 58
9, 85836, Note_on_c, 3, 64, 0
9, 85920, Note_on_c, 3, 61, 58
9, 86076, Note_on_c, 3, 61, 0
9, 86160, Note_on_c, 3, 61, 58
9, 86316, Note_on_c, 3, 61, 0
9, 86400, Note_on_c, 3, 62, 58
9, 86556, Note_on_c, 3, 62, 0
9, 86640, Note_on_c, 3, 62, 58
9, 86796, Note_on_c, 3, 62, 0
9, 86880, Note_on_c, 3, 64, 58
9, 87036, Note_on_c, 3, 64, 0
9, 87120, Note_on_c, 3, 64, 58
9, 87276, Note_on_c, 3, 64, 0
9, 87360, Note_on_c, 3, 66, 58
9, 87516, Note_on_c, 3, 66, 0
9, 87600, Note_on_c, 3, 66, 58
9, 87756, Note_on_c, 3, 66, 0
9, 87840, Note_on_c, 3, 62, 58
9, 87996, Note_on_c, 3, 62, 0
9, 88080, Note_on_c, 3, 62, 58
9, 88236, Note_on_c, 3, 62, 0
9, 88320, Note_on_c, 3, 61, 58
9, 88476, Note_on_c, 3, 61, 0
9, 88560, Note_on_c, 3, 61, 58
9, 88716, Note_on_c, 3, 61, 0
9, 88800, Note_on_c, 3, 62, 58
9, 88956, Note_on_c, 3, 62, 0
9, 89040, Note_on_c, 3, 62, 58
9, 89196, Note_on_c, 3, 62, 0
9, 89280, Note_on_c, 3, 64, 58
9, 89436, Note_on_c, 3, 64, 0
9, 89520, Note_on_c, 3, 64, 58
9, 89676, Note_on_c, 3, 64, 0
9, 89760, Note_on_c, 3, 61, 58
9, 89916, Note_on_c, 3, 61, 0
9, 90000, Note_on_c, 3, 61, 58
9, 90156, Note_on_c, 3, 61, 0
9, 90240, Note_on_c, 3, 62, 58
9, 90396, Note_on_c, 3, 62, 0
9, 90480, Note_on_c, 3, 62, 105
9, 90636, Note_on_c, 3, 62, 0
9, 90720, Note_on_c, 3, 66, 105
9, 90876, Note_on_c, 3, 66, 0
9, 90960, Note_on_c, 3, 64, 105
9, 91116, Note_on_c, 3, 64, 0
9, 91200, Note_on_c, 3, 63, 105
9, 91356, Note_on_c, 3, 63, 0
9, 91440, Note_on_c, 3, 59, 105
9, 91596, Note_on_c, 3, 59, 0
9, 91680, Note_on_c, 3, 61, 105
9, 91836, Note_on_c, 3, 61, 0
9, 91920, Note_on_c, 3, 63, 105
9, 92076, Note_on_c, 3, 63, 0
9, 92160, Note_on_c, 3, 64, 105
9, 92316, Note_on_c, 3, 64, 0
9, 92400, Note_on_c, 3, 67, 105
9, 92556, Note_on_c, 3, 67, 0
9, 92640, Note_on_c, 3, 64, 105
9, 92796, Note_on_c, 3, 64, 0
9, 92880, Note_on_c, 3, 62, 105
9, 93036, Note_on_c, 3, 62, 0
9, 93120, Note_on_c, 3, 61, 105
9, 93276, Note_on_c, 3, 61, 0
9, 93360, Note_on_c, 3, 57, 105
9, 93516, Note_on_c, 3, 57, 0
9, 93600, Note_on_c, 3, 59, 105
9, 93756, Note_on_c, 3, 59, 0
9, 93840, Note_on_c, 3, 61, 105
9, 93996, Note_on_c, 3, 61, 0
9, 94080, Note_on_c, 3, 62, 105
9, 94236, Note_on_c, 3, 62, 0
9, 94320, Note_on_c, 3, 74, 105
9, 94476, Note_on_c, 3, 74, 0
9, 94560, Note_on_c, 3, 74, 105
9, 94716, Note_on_c, 3, 74, 0
9, 94800, Note_on_c, 3, 74, 105
9, 94956, Note_on_c, 3, 74, 0
9, 95040, Note_on_c, 3, 74, 105
9, 95196, Note_on_c, 3, 74, 0
9, 95280, Note_on_c, 3, 74, 105
9, 95436, Note_on_c, 3, 74, 0
9, 95520, Note_on_c, 3, 74, 105
9, 95676, Note_on_c, 3, 74, 0
9, 95760, Note_on_c, 3, 74, 105
9, 95916, Note_on_c, 3, 74, 0
9, 96000, Note_on_c, 3, 74, 105
9, 96240, Note_on_c, 3, 74, 0
9, 96240, Note_on_c, 3, 69, 105
9, 96396, Note_on_c, 3, 69, 0
9, 96480, Note_on_c, 3, 69, 105
9, 96636, Note_on_c, 3, 69, 0
9, 96720, Note_on_c, 3, 69, 105
9, 96876, Note_on_c, 3, 69, 0
9, 96960, Note_on_c, 3, 69, 105
9, 97116, Note_on_c, 3, 69, 0
9, 97200, Note_on_c, 3, 69, 105
9, 97356, Note_on_c, 3, 69, 0
9, 97440, Note_on_c, 3, 69, 105
9, 97596, Note_on_c, 3, 69, 0
9, 97680, Note_on_c, 3, 67, 105
9, 97836, Note_on_c, 3, 67, 0
9, 97920, Note_on_c, 3, 66, 105
9, 98076, Note_on_c, 3, 66, 0
9, 98160, Note_on_c, 3, 57, 105
9, 98316, Note_on_c, 3, 57, 0
9, 98400, Note_on_c, 3, 59, 105
9, 98556, Note_on_c, 3, 59, 0
9, 98640, Note_on_c, 3, 61, 105
9, 98796, Note_on_c, 3, 61, 0
9, 98880, Note_on_c, 3, 62, 105
9, 99036, Note_on_c, 3, 62, 0
9, 99120, Note_on_c, 3, 62, 105
9, 99276, Note_on_c, 3, 62, 0
9, 99360, Note_on_c, 3, 64, 105
9, 99516, Note_on_c, 3, 64, 0
9, 99600, Note_on_c, 3, 64, 105
9, 99756, Note_on_c, 3, 64, 0
9, 99840, Note_on_c, 3, 66, 105
9, 99996, Note_on_c, 3, 66, 0
9, 100080, Note_on_c, 3, 61, 105
9, 100236, Note_on_c, 3, 61, 0
9, 100320, Note_on_c, 3, 62, 105
9, 100476, Note_on_c, 3, 62, 0
9, 100560, Note_on_c, 3, 64, 105
9, 100716, Note_on_c, 3, 64, 0
9, 100800, Note_on_c, 3, 66, 105
9, 100956, Note_on_c, 3, 66, 0
9, 101040, Note_on_c, 3, 66, 105
9, 101196, Note_on_c, 3, 66, 0
9, 101280, Note_on_c, 3, 67, 105
9, 101436, Note_on_c, 3, 67, 0
9, 101520, Note_on_c, 3, 67, 105
9, 101676, Note_on_c, 3, 67, 0
9, 101760, Note_on_c, 3, 69, 105
9, 101916, Note_on_c, 3, 69, 0
9, 102000, Note_on_c, 3, 69, 105
9, 102156, Note_on_c, 3, 69, 0
9, 102240, Note_on_c, 3, 70, 105
9, 102396, Note_on_c, 3, 70, 0
9, 102480, Note_on_c, 3, 70, 105
9, 102636, Note_on_c, 3, 70, 0
9, 102720, Note_on_c, 3, 71, 92
9, 103104, Note_on_c, 3, 71, 0
9, 103680, Note_on_c, 3, 64, 58
9, 105120, Note_on_c, 3, 64, 0
9, 105120, Note_on_c, 3, 62, 58
9, 105360, Note_on_c, 3, 62, 0
9, 105360, Note_on_c, 3, 61, 58
9, 105552, Note_on_c, 3, 61, 0
9, 105600, Note_on_c, 3, 62, 58
9, 105792, Note_on_c, 3, 62, 0
9, 106080, Note_on_c, 3, 62, 58
9, 106272, Note_on_c, 3, 62, 0
9, 106560, Note_on_c, 3, 62, 58
9, 106752, Note_on_c, 3, 62, 0
9, 107520, Note_on_c, 3, 67, 58
9, 107904, Note_on_c, 3, 67, 0
9, 108240, Note_on_c, 3, 62, 105
9, 108384, Note_on_c, 3, 62, 0
9, 108480, Note_on_c, 3, 67, 105
9, 108864, Note_on_c, 3, 67, 0
9, 109200, Note_on_c, 3, 62, 105
9, 109344, Note_on_c, 3, 62, 0
9, 109440, Note_on_c, 3, 67, 105
9, 109584, Note_on_c, 3, 67, 0
9, 109680, Note_on_c, 3, 62, 105
9, 109824, Note_on_c, 3, 62, 0
9, 109920, Note_on_c, 3, 67, 105
9, 110064, Note_on_c, 3, 67, 0
9, 110160, Note_on_c, 3, 71, 105
9, 110304, Note_on_c, 3, 71, 0
9, 110400, Note_on_c, 3, 74, 105
9, 110784, Note_on_c, 3, 74, 0
9, 111360, Note_on_c, 3, 72, 105
9, 111744, Note_on_c, 3, 72, 0
9, 112080, Note_on_c, 3, 69, 105
9, 112224, Note_on_c, 3, 69, 0
9, 112320, Note_on_c, 3, 72, 105
9, 112704, Note_on_c, 3, 72, 0
9, 113040, Note_on_c, 3, 69, 105
9, 113184, Note_on_c, 3, 69, 0
9, 113280, Note_on_c, 3, 72, 105
9, 113424, Note_on_c, 3, 72, 0
9, 113520, Note_on_c, 3, 69, 105
9, 113664, Note_on_c, 3, 69, 0
9, 113760, Note_on_c, 3, 66, 105
9, 113904, Note_on_c, 3, 66, 0
9, 114000, Note_on_c, 3, 69, 105
9, 114144, Note_on_c, 3, 69, 0
9, 114240, Note_on_c, 3, 62, 105
9, 114624, Note_on_c, 3, 62, 0
9, 115200, Note_on_c, 3, 67, 105
9, 115356, Note_on_c, 3, 67, 0
9, 115440, Note_on_c, 3, 67, 105
9, 115596, Note_on_c, 3, 67, 0
9, 115680, Note_on_c, 3, 67, 105
9, 115836, Note_on_c, 3, 67, 0
9, 115920, Note_on_c, 3, 67, 105
9, 116076, Note_on_c, 3, 67, 0
9, 116160, Note_on_c, 3, 67, 105
9, 116316, Note_on_c, 3, 67, 0
9, 116400, Note_on_c, 3, 67, 105
9, 116556, Note_on_c, 3, 67, 0
9, 116640, Note_on_c, 3, 67, 105
9, 116796, Note_on_c, 3, 67, 0
9, 116880, Note_on_c, 3, 67, 105
9, 117036, Note_on_c, 3, 67, 0
9, 117120, Note_on_c, 3, 69, 105
9, 117276, Note_on_c, 3, 69, 0
9, 117360, Note_on_c, 3, 69, 105
9, 117516, Note_on_c, 3, 69, 0
9, 117600, Note_on_c, 3, 69, 105
9, 117756, Note_on_c, 3, 69, 0
9, 117840, Note_on_c, 3, 69, 105
9, 117996, Note_on_c, 3, 69, 0
9, 118080, Note_on_c, 3, 69, 105
9, 118320, Note_on_c, 3, 69, 0
9, 118320, Note_on_c, 3, 72, 105
9, 118476, Note_on_c, 3, 72, 0
9, 118560, Note_on_c, 3, 66, 105
9, 118800, Note_on_c, 3, 66, 0
9, 118800, Note_on_c, 3, 69, 105
9, 118956, Note_on_c, 3, 69, 0
9, 119040, Note_on_c, 3, 67, 105
9, 119196, Note_on_c, 3, 67, 0
9, 119280, Note_on_c, 3, 67, 105
9, 119436, Note_on_c, 3, 67, 0
9, 119520, Note_on_c, 3, 67, 105
9, 119676, Note_on_c, 3, 67, 0
9, 119760, Note_on_c, 3, 67, 105
9, 119916, Note_on_c, 3, 67, 0
9, 120000, Note_on_c, 3, 67, 105
9, 120156, Note_on_c, 3, 67, 0
9, 120240, Note_on_c, 3, 67, 105
9, 120396, Note_on_c, 3, 67, 0
9, 120480, Note_on_c, 3, 67, 105
9, 120636, Note_on_c, 3, 67, 0
9, 120720, Note_on_c, 3, 67, 105
9, 120876, Note_on_c, 3, 67, 0
9, 120960, Note_on_c, 3, 69, 105
9, 121116, Note_on_c, 3, 69, 0
9, 121200, Note_on_c, 3, 69, 105
9, 121356, Note_on_c, 3, 69, 0
9, 121440, Note_on_c, 3, 69, 105
9, 121596, Note_on_c, 3, 69, 0
9, 121680, Note_on_c, 3, 69, 105
9, 121836, Note_on_c, 3, 69, 0
9, 121920, Note_on_c, 3, 69, 105
9, 122160, Note_on_c, 3, 69, 0
9, 122160, Note_on_c, 3, 72, 105
9, 122316, Note_on_c, 3, 72, 0
9, 122400, Note_on_c, 3, 66, 105
9, 122640, Note_on_c, 3, 66, 0
9, 122640, Note_on_c, 3, 69, 105
9, 122796, Note_on_c, 3, 69, 0
9, 122880, Note_on_c, 3, 62, 105
9, 122976, Note_on_c, 3, 62, 0
9, 123000, Note_on_c, 3, 62, 105
9, 123096, Note_on_c, 3, 62, 0
9, 123120, Note_on_c, 3, 62, 105
9, 123216, Note_on_c, 3, 62, 0
9, 123240, Note_on_c, 3, 62, 105
9, 123336, Note_on_c, 3, 62, 0
9, 123360, Note_on_c, 3, 62, 105
9, 123456, Note_on_c, 3, 62, 0
9, 123480, Note_on_c, 3, 62, 105
9, 123576, Note_on_c, 3, 62, 0
9, 123600, Note_on_c, 3, 62, 105
9, 123696, Note_on_c, 3, 62, 0
9, 123720, Note_on_c, 3, 62, 105
9, 123816, Note_on_c, 3, 62, 0
9, 123840, Note_on_c, 3, 62, 105
9, 123936, Note_on_c, 3, 62, 0
9, 123960, Note_on_c, 3, 62, 105
9, 124056, Note_on_c, 3, 62, 0
9, 124080, Note_on_c, 3, 62, 105
9, 124176, Note_on_c, 3, 62, 0
9, 124200, Note_on_c, 3, 62, 105
9, 124296, Note_on_c, 3, 62, 0
9, 124320, Note_on_c, 3, 62, 105
9, 124416, Note_on_c, 3, 62, 0
9, 124440, Note_on_c, 3, 62, 105
9, 124536, Note_on_c, 3, 62, 0
9, 124560, Note_on_c, 3, 62, 105
9, 124656, Note_on_c, 3, 62, 0
9, 124680, Note_on_c, 3, 62, 105
9, 124776, Note_on_c, 3, 62, 0
9, 124800, Note_on_c, 3, 62, 105
9, 124896, Note_on_c, 3, 62, 0
9, 124920, Note_on_c, 3, 62, 105
9, 125016, Note_on_c, 3, 62, 0
9, 125040, Note_on_c, 3, 62, 105
9, 125136, Note_on_c, 3, 62, 0
9, 125160, Note_on_c, 3, 62, 105
9, 125256, Note_on_c, 3, 62, 0
9, 125280, Note_on_c, 3, 62, 105
9, 125376, Note_on_c, 3, 62, 0
9, 125400, Note_on_c, 3, 62, 105
9, 125496, Note_on_c, 3, 62, 0
9, 125520, Note_on_c, 3, 62, 105
9, 125616, Note_on_c, 3, 62, 0
9, 125640, Note_on_c, 3, 62, 105
9, 125736, Note_on_c, 3, 62, 0
9, 125760, Note_on_c, 3, 62, 92
9, 126144, Note_on_c, 3, 62, 0
9, 128640, Note_on_c, 3, 54, 58
9, 129600, Note_on_c, 3, 54, 0
9, 129600, Note_on_c, 3, 55, 58
9, 130368, Note_on_c, 3, 55, 0
9, 130560, Note_on_c, 3, 60, 58
9, 130872, Note_on_c, 3, 60, 0
9, 131040, Note_on_c, 3, 60, 58
9, 131352, Note_on_c, 3, 60, 0
9, 131520, Note_on_c, 3, 57, 58
9, 131832, Note_on_c, 3, 57, 0
9, 132000, Note_on_c, 3, 50, 58
9, 132312, Note_on_c, 3, 50, 0
9, 132480, Note_on_c, 3, 50, 58
9, 132672, Note_on_c, 3, 50, 0
9, 132960, Note_on_c, 3, 62, 58
9, 133152, Note_on_c, 3, 62, 0
9, 133440, Note_on_c, 3, 62, 58
9, 133824, Note_on_c, 3, 62, 0
9, 136320, Note_on_c, 3, 66, 58
9, 137280, Note_on_c, 3, 66, 0
9, 137280, Note_on_c, 3, 67, 58
9, 138048, Note_on_c, 3, 67, 0
9, 138240, Note_on_c, 3, 60, 58
9, 138552, Note_on_c, 3, 60, 0
9, 138720, Note_on_c, 3, 60, 58
9, 138876, Note_on_c, 3, 60, 0
9, 138960, Note_on_c, 3, 60, 58
9, 139116, Note_on_c, 3, 60, 0
9, 139200, Note_on_c, 3, 57, 58
9, 139512, Note_on_c, 3, 57, 0
9, 139680, Note_on_c, 3, 57, 58
9, 139836, Note_on_c, 3, 57, 0
9, 139920, Note_on_c, 3, 57, 58
9, 140076, Note_on_c, 3, 57, 0
9, 140160, Note_on_c, 3, 55, 112
9, 140352, Note_on_c, 3, 55, 0
9, 140400, Note_on_c, 3, 55, 92
9, 140592, Note_on_c, 3, 55, 0
9, 140640, Note_on_c, 3, 55, 92
9, 140832, Note_on_c, 3, 55, 0
9, 140880, Note_on_c, 3, 55, 92
9, 141072, Note_on_c, 3, 55, 0
9, 141120, Note_on_c, 3, 55, 72
9, 141312, Note_on_c, 3, 55, 0
9, 141360, Note_on_c, 3, 55, 72
9, 141552, Note_on_c, 3, 55, 0
9, 141600, Note_on_c, 3, 55, 72
9, 141792, Note_on_c, 3, 55, 0
9, 141840, Note_on_c, 3, 55, 72
9, 142032, Note_on_c, 3, 55, 0
9, 142080, Note_on_c, 3, 55, 112
9, 142272, Note_on_c, 3, 55, 0
9, 142320, Note_on_c, 3, 55, 92
9, 142512, Note_on_c, 3, 55, 0
9, 142560, Note_on_c, 3, 55, 92
9, 142752, Note_on_c, 3, 55, 0
9, 142800, Note_on_c, 3, 55, 92
9, 142992, Note_on_c, 3, 55, 0
9, 143040, Note_on_c, 3, 55, 72
9, 143232, Note_on_c, 3, 55, 0
9, 143280, Note_on_c, 3, 55, 72
9, 143472, Note_on_c, 3, 55, 0
9, 143520, Note_on_c, 3, 55, 72
9, 143712, Note_on_c, 3, 55, 0
9, 143760, Note_on_c, 3, 55, 72
9, 143952, Note_on_c, 3, 55, 0
9, 144000, Note_on_c, 3, 55, 72
9, 144144, Note_on_c, 3, 55, 0
9, 144240, Note_on_c, 3, 67, 72
9, 144384, Note_on_c, 3, 67, 0
9, 144480, Note_on_c, 3, 67, 72
9, 144624, Note_on_c, 3, 67, 0
9, 144720, Note_on_c, 3, 67, 72
9, 144864, Note_on_c, 3, 67, 0
9, 144960, Note_on_c, 3, 67, 81
9, 145104, Note_on_c, 3, 67, 0
9, 145200, Note_on_c, 3, 67, 81
9, 145344, Note_on_c, 3, 67, 0
9, 145440, Note_on_c, 3, 69, 81
9, 145584, Note_on_c, 3, 69, 0
9, 145680, Note_on_c, 3, 69, 81
9, 145824, Note_on_c, 3, 69, 0
9, 145920, Note_on_c, 3, 67, 92
9, 146064, Note_on_c, 3, 67, 0
9, 146160, Note_on_c, 3, 67, 92
9, 146304, Note_on_c, 3, 67, 0
9, 146400, Note_on_c, 3, 66, 92
9, 146544, Note_on_c, 3, 66, 0
9, 146640, Note_on_c, 3, 66, 92
9, 146784, Note_on_c, 3, 66, 0
9, 146880, Note_on_c, 3, 67, 105
9, 147024, Note_on_c, 3, 67, 0
9, 147120, Note_on_c, 3, 67, 105
9, 147264, Note_on_c, 3, 67, 0
9, 147360, Note_on_c, 3, 64, 105
9, 147504, Note_on_c, 3, 64, 0
9, 147600, Note_on_c, 3, 64, 105
9, 147744, Note_on_c, 3, 64, 0
9, 147840, Note_on_c, 3, 69, 105
9, 147840, Note_on_c, 3, 62, 105
9, 147936, Note_on_c, 3, 62, 0
9, 147936, Note_on_c, 3, 69, 0
9, 147960, Note_on_c, 3, 69, 105
9, 147960, Note_on_c, 3, 62, 105
9, 148056, Note_on_c, 3, 62, 0
9, 148056, Note_on_c, 3, 69, 0
9, 148080, Note_on_c, 3, 62, 105
9, 148080, Note_on_c, 3, 69, 105
9, 148176, Note_on_c, 3, 69, 0
9, 148176, Note_on_c, 3, 62, 0
9, 148200, Note_on_c, 3, 69, 105
9, 148200, Note_on_c, 3, 62, 105
9, 148296, Note_on_c, 3, 62, 0
9, 148296, Note_on_c, 3, 69, 0
9, 148320, Note_on_c, 3, 62, 105
9, 148320, Note_on_c, 3, 69, 105
9, 148416, Note_on_c, 3, 69, 0
9, 148416, Note_on_c, 3, 62, 0
9, 148440, Note_on_c, 3, 62, 105
9, 148440, Note_on_c, 3, 69, 105
9, 148536, Note_on_c, 3, 69, 0
9, 148536, Note_on_c, 3, 62, 0
9, 148560, Note_on_c, 3, 62, 105
9, 148560, Note_on_c, 3, 69, 105
9, 148656, Note_on_c, 3, 69, 0
9, 148656, Note_on_c, 3, 62, 0
9, 148680, Note_on_c, 3, 69, 105
9, 148680, Note_on_c, 3, 62, 105
9, 148776, Note_on_c, 3, 62, 0
9, 148776, Note_on_c, 3, 69, 0
9, 148800, Note_on_c, 3, 69, 105
9, 148800, Note_on_c, 3, 64, 105
9, 148896, Note_on_c, 3, 64, 0
9, 148896, Note_on_c, 3, 69, 0
9, 148920, Note_on_c, 3, 69, 105
9, 148920, Note_on_c, 3, 64, 105
9, 149016, Note_on_c, 3, 64, 0
9, 149016, Note_on_c, 3, 69, 0
9, 149040, Note_on_c, 3, 64, 105
9, 149040, Note_on_c, 3, 69, 105
9, 149136, Note_on_c, 3, 69, 0
9, 149136, Note_on_c, 3, 64, 0
9, 149160, Note_on_c, 3, 64, 105
9, 149160, Note_on_c, 3, 69, 105
9, 149256, Note_on_c, 3, 69, 0
9, 149256, Note_on_c, 3, 64, 0
9, 149280, Note_on_c, 3, 69, 105
9, 149280, Note_on_c, 3, 64, 105
9, 149376, Note_on_c, 3, 64, 0
9, 149376, Note_on_c, 3, 69, 0
9, 149400, Note_on_c, 3, 69, 105
9, 149400, Note_on_c, 3, 64, 105
9, 149496, Note_on_c, 3, 64, 0
9, 149496, Note_on_c, 3, 69, 0
9, 149520, Note_on_c, 3, 69, 105
9, 149520, Note_on_c, 3, 64, 105
9, 149616, Note_on_c, 3, 64, 0
9, 149616, Note_on_c, 3, 69, 0
9, 149640, Note_on_c, 3, 69, 105
9, 149640, Note_on_c, 3, 64, 105
9, 149736, Note_on_c, 3, 64, 0
9, 149736, Note_on_c, 3, 69, 0
9, 149760, Note_on_c, 3, 69, 105
9, 149760, Note_on_c, 3, 62, 105
9, 149856, Note_on_c, 3, 62, 0
9, 149856, Note_on_c, 3, 69, 0
9, 149880, Note_on_c, 3, 62, 105
9, 149880, Note_on_c, 3, 69, 105
9, 149976, Note_on_c, 3, 69, 0
9, 149976, Note_on_c, 3, 62, 0
9, 150000, Note_on_c, 3, 62, 105
9, 150000, Note_on_c, 3, 69, 105
9, 150096, Note_on_c, 3, 69, 0
9, 150096, Note_on_c, 3, 62, 0
9, 150120, Note_on_c, 3, 69, 105
9, 150120, Note_on_c, 3, 62, 105
9, 150216, Note_on_c, 3, 62, 0
9, 150216, Note_on_c, 3, 69, 0
9, 150240, Note_on_c, 3, 62, 105
9, 150240, Note_on_c, 3, 69, 105
9, 150336, Note_on_c, 3, 69, 0
9, 150336, Note_on_c, 3, 62, 0
9, 150360, Note_on_c, 3, 62, 105
9, 150360, Note_on_c, 3, 69, 105
9, 150456, Note_on_c, 3, 69, 0
9, 150456, Note_on_c, 3, 62, 0
9, 150480, Note_on_c, 3, 69, 105
9, 150480, Note_on_c, 3, 62, 105
9, 150576, Note_on_c, 3, 62, 0
9, 150576, Note_on_c, 3, 69, 0
9, 150600, Note_on_c, 3, 62, 105
9, 150600, Note_on_c, 3, 69, 105
9, 150696, Note_on_c, 3, 69, 0
9, 150696, Note_on_c, 3, 62, 0
9, 150720, Note_on_c, 3, 69, 105
9, 150720, Note_on_c, 3, 64, 105
9, 150816, Note_on_c, 3, 64, 0
9, 150816, Note_on_c, 3, 69, 0
9, 150840, Note_on_c, 3, 64, 105
9, 150840, Note_on_c, 3, 69, 105
9, 150936, Note_on_c, 3, 69, 0
9, 150936, Note_on_c, 3, 64, 0
9, 150960, Note_on_c, 3, 64, 105
9, 150960, Note_on_c, 3, 69, 105
9, 151056, Note_on_c, 3, 69, 0
9, 151056, Note_on_c, 3, 64, 0
9, 151080, Note_on_c, 3, 69, 105
9, 151080, Note_on_c, 3, 64, 105
9, 151176, Note_on_c, 3, 64, 0
9, 151176, Note_on_c, 3, 69, 0
9, 151200, Note_on_c, 3, 64, 105
9, 151200, Note_on_c, 3, 69, 105
9, 151296, Note_on_c, 3, 69, 0
9, 151296, Note_on_c, 3, 64, 0
9, 151320, Note_on_c, 3, 64, 105
9, 151320, Note_on_c, 3, 69, 105
9, 151416, Note_on_c, 3, 69, 0
9, 151416, Note_on_c, 3, 64, 0
9, 151440, Note_on_c, 3, 69, 105
9, 151440, Note_on_c, 3, 64, 105
9, 151536, Note_on_c, 3, 64, 0
9, 151536, Note_on_c, 3, 69, 0
9, 151560, Note_on_c, 3, 69, 105
9, 151560, Note_on_c, 3, 64, 105
9, 151656, Note_on_c, 3, 64, 0
9, 151656, Note_on_c, 3, 69, 0
9, 151680, Note_on_c, 3, 66, 105
9, 151836, Note_on_c, 3, 66, 0
9, 151920, Note_on_c, 3, 67, 105
9, 152076, Note_on_c, 3, 67, 0
9, 152160, Note_on_c, 3, 69, 105
9, 152316, Note_on_c, 3, 69, 0
9, 152400, Note_on_c, 3, 67, 105
9, 152556, Note_on_c, 3, 67, 0
9, 152640, Note_on_c, 3, 66, 105
9, 152796, Note_on_c, 3, 66, 0
9, 152880, Note_on_c, 3, 67, 105
9, 153036, Note_on_c, 3, 67, 0
9, 153120, Note_on_c, 3, 69, 105
9, 153276, Note_on_c, 3, 69, 0
9, 153360, Note_on_c, 3, 66, 105
9, 153516, Note_on_c, 3, 66, 0
9, 153600, Note_on_c, 3, 71, 105
9, 153756, Note_on_c, 3, 71, 0
9, 153840, Note_on_c, 3, 69, 105
9, 153996, Note_on_c, 3, 69, 0
9, 154080, Note_on_c, 3, 67, 105
9, 154236, Note_on_c, 3, 67, 0
9, 154320, Note_on_c, 3, 69, 105
9, 154476, Note_on_c, 3, 69, 0
9, 154560, Note_on_c, 3, 71, 105
9, 154716, Note_on_c, 3, 71, 0
9, 154800, Note_on_c, 3, 69, 105
9, 154956, Note_on_c, 3, 69, 0
9, 155040, Note_on_c, 3, 68, 105
9, 155196, Note_on_c, 3, 68, 0
9, 155280, Note_on_c, 3, 71, 105
9, 155436, Note_on_c, 3, 71, 0
9, 155520, Note_on_c, 3, 69, 105
9, 155676, Note_on_c, 3, 69, 0
9, 155760, Note_on_c, 3, 69, 105
9, 155916, Note_on_c, 3, 69, 0
9, 156000, Note_on_c, 3, 69, 105
9, 156156, Note_on_c, 3, 69, 0
9, 156240, Note_on_c, 3, 69, 105
9, 156396, Note_on_c, 3, 69, 0
9, 156480, Note_on_c, 3, 69, 105
9, 156636, Note_on_c, 3, 69, 0
9, 156720, Note_on_c, 3, 69, 105
9, 156876, Note_on_c, 3, 69, 0
9, 156960, Note_on_c, 3, 69, 105
9, 157116, Note_on_c, 3, 69, 0
9, 157200, Note_on_c, 3, 69, 105
9, 157356, Note_on_c, 3, 69, 0
9, 157440, Note_on_c, 3, 69, 105
9, 157596, Note_on_c, 3, 69, 0
9, 157680, Note_on_c, 3, 57, 105
9, 157836, Note_on_c, 3, 57, 0
9, 157920, Note_on_c, 3, 57, 105
9, 158076, Note_on_c, 3, 57, 0
9, 158160, Note_on_c, 3, 57, 105
9, 158316, Note_on_c, 3, 57, 0
9, 158400, Note_on_c, 3, 57, 92
9, 158784, Note_on_c, 3, 57, 0
9, 160800, Note_on_c, 3, 66, 58
9, 160992, Note_on_c, 3, 66, 0
9, 161280, Note_on_c, 3, 59, 58
9, 161472, Note_on_c, 3, 59, 0
9, 161760, Note_on_c, 3, 67, 58
9, 161952, Note_on_c, 3, 67, 0
9, 162240, Note_on_c, 3, 64, 58
9, 162432, Note_on_c, 3, 64, 0
9, 162720, Note_on_c, 3, 61, 58
9, 162912, Note_on_c, 3, 61, 0
9, 163680, Note_on_c, 3, 64, 58
9, 164160, Note_on_c, 3, 64, 0
9, 164160, Note_on_c, 3, 62, 58
9, 164352, Note_on_c, 3, 62, 0
9, 164640, Note_on_c, 3, 64, 58
9, 164832, Note_on_c, 3, 64, 0
9, 165120, Note_on_c, 3, 62, 58
9, 166080, Note_on_c, 3, 62, 0
9, 166080, Note_on_c, 3, 61, 58
9, 166464, Note_on_c, 3, 61, 0
9, 167520, Note_on_c, 3, 61, 58
9, 168000, Note_on_c, 3, 61, 0
9, 168000, Note_on_c, 3, 62, 58
9, 168192, Note_on_c, 3, 62, 0
9, 168480, Note_on_c, 3, 66, 58
9, 168672, Note_on_c, 3, 66, 0
9, 168960, Note_on_c, 3, 59, 58
9, 169152, Note_on_c, 3, 59, 0
9, 169440, Note_on_c, 3, 55, 58
9, 169632, Note_on_c, 3, 55, 0
9, 169920, Note_on_c, 3, 52, 58
9, 170304, Note_on_c, 3, 52, 0
9, 170640, Note_on_c, 3, 64, 58
9, 170832, Note_on_c, 3, 64, 0
9, 170880, Note_on_c, 3, 64, 72
9, 171120, Note_on_c, 3, 64, 0
9, 171120, Note_on_c, 3, 62, 72
9, 171312, Note_on_c, 3, 62, 0
9, 172800, Note_on_c, 3, 62, 58
9, 172956, Note_on_c, 3, 62, 0
9, 173040, Note_on_c, 3, 62, 58
9, 173196, Note_on_c, 3, 62, 0
9, 173280, Note_on_c, 3, 64, 58
9, 173436, Note_on_c, 3, 64, 0
9, 173520, Note_on_c, 3, 64, 58
9, 173676, Note_on_c, 3, 64, 0
9, 173760, Note_on_c, 3, 66, 58
9, 173916, Note_on_c, 3, 66, 0
9, 174000, Note_on_c, 3, 66, 58
9, 174156, Note_on_c, 3, 66, 0
9, 174240, Note_on_c, 3, 62, 58
9, 174396, Note_on_c, 3, 62, 0
9, 174480, Note_on_c, 3, 62, 58
9, 174636, Note_on_c, 3, 62, 0
9, 174720, Note_on_c, 3, 61, 58
9, 174876, Note_on_c, 3, 61, 0
9, 174960, Note_on_c, 3, 61, 58
9, 175116, Note_on_c, 3, 61, 0
9, 175200, Note_on_c, 3, 62, 58
9, 175356, Note_on_c, 3, 62, 0
9, 175440, Note_on_c, 3, 62, 58
9, 175596, Note_on_c, 3, 62, 0
9, 175680, Note_on_c, 3, 64, 58
9, 175836, Note_on_c, 3, 64, 0
9, 175920, Note_on_c, 3, 64, 58
9, 176076, Note_on_c, 3, 64, 0
9, 176160, Note_on_c, 3, 61, 58
9, 176316, Note_on_c, 3, 61, 0
9, 176400, Note_on_c, 3, 61, 58
9, 176556, Note_on_c, 3, 61, 0
9, 176640, Note_on_c, 3, 62, 58
9, 176796, Note_on_c, 3, 62, 0
9, 176880, Note_on_c, 3, 62, 58
9, 177036, Note_on_c, 3, 62, 0
9, 177120, Note_on_c, 3, 64, 58
9, 177276, Note_on_c, 3, 64, 0
9, 177360, Note_on_c, 3, 64, 58
9, 177516, Note_on_c, 3, 64, 0
9, 177600, Note_on_c, 3, 66, 58
9, 177756, Note_on_c, 3, 66, 0
9, 177840, Note_on_c, 3, 66, 58
9, 177996, Note_on_c, 3, 66, 0
9, 178080, Note_on_c, 3, 62, 58
9, 178236, Note_on_c, 3, 62, 0
9, 178320, Note_on_c, 3, 62, 58
9, 178476, Note_on_c, 3, 62, 0
9, 178560, Note_on_c, 3, 61, 58
9, 178716, Note_on_c, 3, 61, 0
9, 178800, Note_on_c, 3, 61, 58
9, 178956, Note_on_c, 3, 61, 0
9, 179040, Note_on_c, 3, 62, 58
9, 179196, Note_on_c, 3, 62, 0
9, 179280, Note_on_c, 3, 62, 58
9, 179436, Note_on_c, 3, 62, 0
9, 179520, Note_on_c, 3, 64, 58
9, 179676, Note_on_c, 3, 64, 0
9, 179760, Note_on_c, 3, 64, 58
9, 179916, Note_on_c, 3, 64, 0
9, 180000, Note_on_c, 3, 61, 58
9, 180156, Note_on_c, 3, 61, 0
9, 180240, Note_on_c, 3, 61, 58
9, 180396, Note_on_c, 3, 61, 0
9, 180480, Note_on_c, 3, 62, 58
9, 180636, Note_on_c, 3, 62, 0
9, 180720, Note_on_c, 3, 62, 105
9, 180876, Note_on_c, 3, 62, 0
9, 180960, Note_on_c, 3, 66, 105
9, 181116, Note_on_c, 3, 66, 0
9, 181200, Note_on_c, 3, 64, 105
9, 181356, Note_on_c, 3, 64, 0
9, 181440, Note_on_c, 3, 63, 105
9, 181596, Note_on_c, 3, 63, 0
9, 181680, Note_on_c, 3, 59, 105
9, 181836, Note_on_c, 3, 59, 0
9, 181920, Note_on_c, 3, 61, 105
9, 182076, Note_on_c, 3, 61, 0
9, 182160, Note_on_c, 3, 63, 105
9, 182316, Note_on_c, 3, 63, 0
9, 182400, Note_on_c, 3, 64, 105
9, 182556, Note_on_c, 3, 64, 0
9, 182640, Note_on_c, 3, 67, 105
9, 182796, Note_on_c, 3, 67, 0
9, 182880, Note_on_c, 3, 64, 105
9, 183036, Note_on_c, 3, 64, 0
9, 183120, Note_on_c, 3, 62, 105
9, 183276, Note_on_c, 3, 62, 0
9, 183360, Note_on_c, 3, 61, 105
9, 183516, Note_on_c, 3, 61, 0
9, 183600, Note_on_c, 3, 57, 105
9, 183756, Note_on_c, 3, 57, 0
9, 183840, Note_on_c, 3, 59, 105
9, 183996, Note_on_c, 3, 59, 0
9, 184080, Note_on_c, 3, 61, 105
9, 184236, Note_on_c, 3, 61, 0
9, 184320, Note_on_c, 3, 62, 105
9, 184476, Note_on_c, 3, 62, 0
9, 184560, Note_on_c, 3, 74, 105
9, 184716, Note_on_c, 3, 74, 0
9, 184800, Note_on_c, 3, 74, 105
9, 184956, Note_on_c, 3, 74, 0
9, 185040, Note_on_c, 3, 74, 105
9, 185196, Note_on_c, 3, 74, 0
9, 185280, Note_on_c, 3, 74, 105
9, 185436, Note_on_c, 3, 74, 0
9, 185520, Note_on_c, 3, 74, 105
9, 185676, Note_on_c, 3, 74, 0
9, 185760, Note_on_c, 3, 74, 105
9, 185916, Note_on_c, 3, 74, 0
9, 186000, Note_on_c, 3, 74, 105
9, 186156, Note_on_c, 3, 74, 0
9, 186240, Note_on_c, 3, 74, 105
9, 186480, Note_on_c, 3, 74, 0
9, 186480, Note_on_c, 3, 69, 105
9, 186636, Note_on_c, 3, 69, 0
9, 186720, Note_on_c, 3, 69, 105
9, 186876, Note_on_c, 3, 69, 0
9, 186960, Note_on_c, 3, 69, 105
9, 187116, Note_on_c, 3, 69, 0
9, 187200, Note_on_c, 3, 69, 105
9, 187356, Note_on_c, 3, 69, 0
9, 187440, Note_on_c, 3, 69, 105
9, 187596, Note_on_c, 3, 69, 0
9, 187680, Note_on_c, 3, 69, 105
9, 187836, Note_on_c, 3, 69, 0
9, 187920, Note_on_c, 3, 67, 105
9, 188076, Note_on_c, 3, 67, 0
9, 188160, Note_on_c, 3, 66, 92
9, 188316, Note_on_c, 3, 66, 0
9, 188400, Note_on_c, 3, 62, 58
9, 188556, Note_on_c, 3, 62, 0
9, 188640, Note_on_c, 3, 64, 58
9, 188796, Note_on_c, 3, 64, 0
9, 188880, Note_on_c, 3, 64, 58
9, 189036, Note_on_c, 3, 64, 0
9, 189120, Note_on_c, 3, 66, 58
9, 189276, Note_on_c, 3, 66, 0
9, 189360, Note_on_c, 3, 66, 58
9, 189516, Note_on_c, 3, 66, 0
9, 189600, Note_on_c, 3, 62, 58
9, 189756, Note_on_c, 3, 62, 0
9, 189840, Note_on_c, 3, 62, 58
9, 189996, Note_on_c, 3, 62, 0
9, 190080, Note_on_c, 3, 61, 58
9, 190236, Note_on_c, 3, 61, 0
9, 190320, Note_on_c, 3, 61, 58
9, 190476, Note_on_c, 3, 61, 0
9, 190560, Note_on_c, 3, 62, 58
9, 190716, Note_on_c, 3, 62, 0
9, 190800, Note_on_c, 3, 62, 58
9, 190956, Note_on_c, 3, 62, 0
9, 191040, Note_on_c, 3, 64, 58
9, 191196, Note_on_c, 3, 64, 0
9, 191280, Note_on_c, 3, 64, 58
9, 191436, Note_on_c, 3, 64, 0
9, 191520, Note_on_c, 3, 61, 58
9, 191676, Note_on_c, 3, 61, 0
9, 191760, Note_on_c, 3, 61, 58
9, 191916, Note_on_c, 3, 61, 0
9, 192000, Note_on_c, 3, 62, 58
9, 192156, Note_on_c, 3, 62, 0
9, 192240, Note_on_c, 3, 62, 58
9, 192396, Note_on_c, 3, 62, 0
9, 192480, Note_on_c, 3, 64, 58
9, 192636, Note_on_c, 3, 64, 0
9, 192720, Note_on_c, 3, 64, 58
9, 192876, Note_on_c, 3, 64, 0
9, 192960, Note_on_c, 3, 66, 58
9, 193116, Note_on_c, 3, 66, 0
9, 193200, Note_on_c, 3, 66, 58
9, 193356, Note_on_c, 3, 66, 0
9, 193440, Note_on_c, 3, 62, 58
9, 193596, Note_on_c, 3, 62, 0
9, 193680, Note_on_c, 3, 62, 58
9, 193836, Note_on_c, 3, 62, 0
9, 193920, Note_on_c, 3, 61, 58
9, 194076, Note_on_c, 3, 61, 0
9, 194160, Note_on_c, 3, 61, 58
9, 194316, Note_on_c, 3, 61, 0
9, 194400, Note_on_c, 3, 62, 58
9, 194556, Note_on_c, 3, 62, 0
9, 194640, Note_on_c, 3, 62, 58
9, 194796, Note_on_c, 3, 62, 0
9, 194880, Note_on_c, 3, 64, 58
9, 195036, Note_on_c, 3, 64, 0
9, 195120, Note_on_c, 3, 64, 58
9, 195276, Note_on_c, 3, 64, 0
9, 195360, Note_on_c, 3, 61, 58
9, 195516, Note_on_c, 3, 61, 0
9, 195600, Note_on_c, 3, 61, 58
9, 195756, Note_on_c, 3, 61, 0
9, 195840, Note_on_c, 3, 62, 58
9, 195996, Note_on_c, 3, 62, 0
9, 196080, Note_on_c, 3, 62, 105
9, 196236, Note_on_c, 3, 62, 0
9, 196320, Note_on_c, 3, 66, 105
9, 196476, Note_on_c, 3, 66, 0
9, 196560, Note_on_c, 3, 64, 105
9, 196716, Note_on_c, 3, 64, 0
9, 196800, Note_on_c, 3, 63, 105
9, 196956, Note_on_c, 3, 63, 0
9, 197040, Note_on_c, 3, 59, 105
9, 197196, Note_on_c, 3, 59, 0
9, 197280, Note_on_c, 3, 61, 105
9, 197436, Note_on_c, 3, 61, 0
9, 197520, Note_on_c, 3, 63, 105
9, 197676, Note_on_c, 3, 63, 0
9, 197760, Note_on_c, 3, 64, 105
9, 197916, Note_on_c, 3, 64, 0
9, 198000, Note_on_c, 3, 67, 105
9, 198156, Note_on_c, 3, 67, 0
9, 198240, Note_on_c, 3, 64, 105
9, 198396, Note_on_c, 3, 64, 0
9, 198480, Note_on_c, 3, 62, 105
9, 198636, Note_on_c, 3, 62, 0
9, 198720, Note_on_c, 3, 61, 105
9, 198876, Note_on_c, 3, 61, 0
9, 198960, Note_on_c, 3, 57, 105
9, 199116, Note_on_c, 3, 57, 0
9, 199200, Note_on_c, 3, 59, 105
9, 199356, Note_on_c, 3, 59, 0
9, 199440, Note_on_c, 3, 61, 105
9, 199596, Note_on_c, 3, 61, 0
9, 199680, Note_on_c, 3, 62, 105
9, 199836, Note_on_c, 3, 62, 0
9, 199920, Note_on_c, 3, 74, 105
9, 200076, Note_on_c, 3, 74, 0
9, 200160, Note_on_c, 3, 74, 105
9, 200316, Note_on_c, 3, 74, 0
9, 200400, Note_on_c, 3, 74, 105
9, 200556, Note_on_c, 3, 74, 0
9, 200640, Note_on_c, 3, 74, 105
9, 200796, Note_on_c, 3, 74, 0
9, 200880, Note_on_c, 3, 74, 105
9, 201036, Note_on_c, 3, 74, 0
9, 201120, Note_on_c, 3, 74, 105
9, 201276, Note_on_c, 3, 74, 0
9, 201360, Note_on_c, 3, 74, 105
9, 201516, Note_on_c, 3, 74, 0
9, 201600, Note_on_c, 3, 74, 105
9, 201840, Note_on_c, 3, 74, 0
9, 201840, Note_on_c, 3, 69, 105
9, 201996, Note_on_c, 3, 69, 0
9, 202080, Note_on_c, 3, 69, 105
9, 202236, Note_on_c, 3, 69, 0
9, 202320, Note_on_c, 3, 69, 105
9, 202476, Note_on_c, 3, 69, 0
9, 202560, Note_on_c, 3, 69, 105
9, 202716, Note_on_c, 3, 69, 0
9, 202800, Note_on_c, 3, 69, 105
9, 202956, Note_on_c, 3, 69, 0
9, 203040, Note_on_c, 3, 69, 105
9, 203196, Note_on_c, 3, 69, 0
9, 203280, Note_on_c, 3, 67, 105
9, 203436, Note_on_c, 3, 67, 0
9, 203520, Note_on_c, 3, 66, 105
9, 203676, Note_on_c, 3, 66, 0
9, 203760, Note_on_c, 3, 57, 105
9, 203916, Note_on_c, 3, 57, 0
9, 204000, Note_on_c, 3, 59, 105
9, 204156, Note_on_c, 3, 59, 0
9, 204240, Note_on_c, 3, 61, 105
9, 204396, Note_on_c, 3, 61, 0
9, 204480, Note_on_c, 3, 62, 105
9, 204636, Note_on_c, 3, 62, 0
9, 204720, Note_on_c, 3, 62, 105
9, 204876, Note_on_c, 3, 62, 0
9, 204960, Note_on_c, 3, 64, 105
9, 205116, Note_on_c, 3, 64, 0
9, 205200, Note_on_c, 3, 64, 105
9, 205356, Note_on_c, 3, 64, 0
9, 205440, Note_on_c, 3, 66, 105
9, 205596, Note_on_c, 3, 66, 0
9, 205680, Note_on_c, 3, 61, 105
9, 205836, Note_on_c, 3, 61, 0
9, 205920, Note_on_c, 3, 62, 105
9, 206076, Note_on_c, 3, 62, 0
9, 206160, Note_on_c, 3, 64, 105
9, 206316, Note_on_c, 3, 64, 0
9, 206400, Note_on_c, 3, 66, 105
9, 206556, Note_on_c, 3, 66, 0
9, 206640, Note_on_c, 3, 66, 105
9, 206796, Note_on_c, 3, 66, 0
9, 206880, Note_on_c, 3, 67, 105
9, 207036, Note_on_c, 3, 67, 0
9, 207120, Note_on_c, 3, 67, 105
9, 207276, Note_on_c, 3, 67, 0
9, 207360, Note_on_c, 3, 69, 105
9, 207516, Note_on_c, 3, 69, 0
9, 207600, Note_on_c, 3, 69, 105
9, 207756, Note_on_c, 3, 69, 0
9, 207840, Note_on_c, 3, 70, 105
9, 207996, Note_on_c, 3, 70, 0
9, 208080, Note_on_c, 3, 70, 105
9, 208236, Note_on_c, 3, 70, 0
9, 208320, Note_on_c, 3, 71, 92
9, 208704, Note_on_c, 3, 71, 0
9, 209280, Note_on_c, 3, 64, 58
9, 210720, Note_on_c, 3, 64, 0
9, 210720, Note_on_c, 3, 62, 58
9, 210960, Note_on_c, 3, 62, 0
9, 210960, Note_on_c, 3, 61, 58
9, 211152, Note_on_c, 3, 61, 0
9, 211200, Note_on_c, 3, 62, 58
9, 211392, Note_on_c, 3, 62, 0
9, 211680, Note_on_c, 3, 62, 58
9, 211872, Note_on_c, 3, 62, 0
9, 212160, Note_on_c, 3, 62, 58
9, 212352, Note_on_c, 3, 62, 0
9, 213120, Note_on_c, 3, 62, 105
9, 213504, Note_on_c, 3, 62, 0
9, 213840, Note_on_c, 3, 57, 105
9, 213984, Note_on_c, 3, 57, 0
9, 214080, Note_on_c, 3, 62, 105
9, 214464, Note_on_c, 3, 62, 0
9, 214800, Note_on_c, 3, 57, 105
9, 214944, Note_on_c, 3, 57, 0
9, 215040, Note_on_c, 3, 62, 105
9, 215196, Note_on_c, 3, 62, 0
9, 215280, Note_on_c, 3, 57, 105
9, 215436, Note_on_c, 3, 57, 0
9, 215520, Note_on_c, 3, 62, 105
9, 215676, Note_on_c, 3, 62, 0
9, 215760, Note_on_c, 3, 66, 105
9, 215916, Note_on_c, 3, 66, 0
9, 216000, Note_on_c, 3, 69, 105
9, 216384, Note_on_c, 3, 69, 0
9, 216960, Note_on_c, 3, 69, 105
9, 217344, Note_on_c, 3, 69, 0
9, 217680, Note_on_c, 3, 66, 105
9, 217824, Note_on_c, 3, 66, 0
9, 217920, Note_on_c, 3, 69, 105
9, 218304, Note_on_c, 3, 69, 0
9, 218640, Note_on_c, 3, 66, 105
9, 218784, Note_on_c, 3, 66, 0
9, 218880, Note_on_c, 3, 69, 105
9, 219036, Note_on_c, 3, 69, 0
9, 219120, Note_on_c, 3, 66, 105
9, 219276, Note_on_c, 3, 66, 0
9, 219360, Note_on_c, 3, 63, 105
9, 219516, Note_on_c, 3, 63, 0
9, 219600, Note_on_c, 3, 66, 105
9, 219756, Note_on_c, 3, 66, 0
9, 219840, Note_on_c, 3, 59, 105
9, 220224, Note_on_c, 3, 59, 0
9, 220800, Note_on_c, 3, 60, 58
9, 220944, Note_on_c, 3, 60, 0
9, 221040, Note_on_c, 3, 60, 58
9, 221184, Note_on_c, 3, 60, 0
9, 221280, Note_on_c, 3, 62, 58
9, 221424, Note_on_c, 3, 62, 0
9, 221520, Note_on_c, 3, 62, 58
9, 221664, Note_on_c, 3, 62, 0
9, 221760, Note_on_c, 3, 64, 58
9, 221904, Note_on_c, 3, 64, 0
9, 222000, Note_on_c, 3, 64, 58
9, 222144, Note_on_c, 3, 64, 0
9, 222240, Note_on_c, 3, 60, 58
9, 222384, Note_on_c, 3, 60, 0
9, 222480, Note_on_c, 3, 60, 58
9, 222624, Note_on_c, 3, 60, 0
9, 222720, Note_on_c, 3, 59, 58
9, 222864, Note_on_c, 3, 59, 0
9, 222960, Note_on_c, 3, 59, 58
9, 223104, Note_on_c, 3, 59, 0
9, 223200, Note_on_c, 3, 60, 58
9, 223344, Note_on_c, 3, 60, 0
9, 223440, Note_on_c, 3, 60, 58
9, 223584, Note_on_c, 3, 60, 0
9, 223680, Note_on_c, 3, 62, 58
9, 223824, Note_on_c, 3, 62, 0
9, 223920, Note_on_c, 3, 62, 58
9, 224064, Note_on_c, 3, 62, 0
9, 224160, Note_on_c, 3, 59, 58
9, 224304, Note_on_c, 3, 59, 0
9, 224400, Note_on_c, 3, 59, 58
9, 224544, Note_on_c, 3, 59, 0
9, 224640, Note_on_c, 3, 60, 58
9, 224784, Note_on_c, 3, 60, 0
9, 224880, Note_on_c, 3, 60, 58
9, 225024, Note_on_c, 3, 60, 0
9, 225120, Note_on_c, 3, 62, 58
9, 225264, Note_on_c, 3, 62, 0
9, 225360, Note_on_c, 3, 62, 58
9, 225504, Note_on_c, 3, 62, 0
9, 225600, Note_on_c, 3, 64, 58
9, 225744, Note_on_c, 3, 64, 0
9, 225840, Note_on_c, 3, 64, 58
9, 225984, Note_on_c, 3, 64, 0
9, 226080, Note_on_c, 3, 60, 58
9, 226224, Note_on_c, 3, 60, 0
9, 226320, Note_on_c, 3, 60, 58
9, 226464, Note_on_c, 3, 60, 0
9, 226560, Note_on_c, 3, 59, 58
9, 226704, Note_on_c, 3, 59, 0
9, 226800, Note_on_c, 3, 59, 58
9, 226944, Note_on_c, 3, 59, 0
9, 227040, Note_on_c, 3, 60, 58
9, 227184, Note_on_c, 3, 60, 0
9, 227280, Note_on_c, 3, 60, 58
9, 227424, Note_on_c, 3, 60, 0
9, 227520, Note_on_c, 3, 62, 58
9, 227664, Note_on_c, 3, 62, 0
9, 227760, Note_on_c, 3, 62, 58
9, 227904, Note_on_c, 3, 62, 0
9, 228000, Note_on_c, 3, 59, 58
9, 228144, Note_on_c, 3, 59, 0
9, 228240, Note_on_c, 3, 59, 58
9, 228384, Note_on_c, 3, 59, 0
9, 228480, Note_on_c, 3, 60, 58
9, 228624, Note_on_c, 3, 60, 0
9, 228720, Note_on_c, 3, 60, 58
9, 228864, Note_on_c, 3, 60, 0
9, 228960, Note_on_c, 3, 62, 58
9, 229104, Note_on_c, 3, 62, 0
9, 229200, Note_on_c, 3, 62, 58
9, 229344, Note_on_c, 3, 62, 0
9, 229440, Note_on_c, 3, 64, 58
9, 229584, Note_on_c, 3, 64, 0
9, 229680, Note_on_c, 3, 64, 58
9, 229824, Note_on_c, 3, 64, 0
9, 229920, Note_on_c, 3, 60, 58
9, 230064, Note_on_c, 3, 60, 0
9, 230160, Note_on_c, 3, 60, 58
9, 230304, Note_on_c, 3, 60, 0
9, 230400, Note_on_c, 3, 59, 58
9, 230544, Note_on_c, 3, 59, 0
9, 230640, Note_on_c, 3, 59, 58
9, 230784, Note_on_c, 3, 59, 0
9, 230880, Note_on_c, 3, 60, 58
9, 231024, Note_on_c, 3, 60, 0
9, 231120, Note_on_c, 3, 60, 58
9, 231264, Note_on_c, 3, 60, 0
9, 231360, Note_on_c, 3, 62, 58
9, 231504, Note_on_c, 3, 62, 0
9, 231600, Note_on_c, 3, 62, 58
9, 231744, Note_on_c, 3, 62, 0
9, 231840, Note_on_c, 3, 59, 58
9, 231984, Note_on_c, 3, 59, 0
9, 232080, Note_on_c, 3, 59, 58
9, 232224, Note_on_c, 3, 59, 0
9, 232320, Note_on_c, 3, 57, 58
9, 232464, Note_on_c, 3, 57, 0
9, 232560, Note_on_c, 3, 57, 58
9, 232704, Note_on_c, 3, 57, 0
9, 232800, Note_on_c, 3, 59, 58
9, 232944, Note_on_c, 3, 59, 0
9, 233040, Note_on_c, 3, 59, 58
9, 233184, Note_on_c, 3, 59, 0
9, 233280, Note_on_c, 3, 60, 58
9, 233424, Note_on_c, 3, 60, 0
9, 233520, Note_on_c, 3, 60, 58
9, 233664, Note_on_c, 3, 60, 0
9, 233760, Note_on_c, 3, 57, 58
9, 233904, Note_on_c, 3, 57, 0
9, 234000, Note_on_c, 3, 57, 58
9, 234144, Note_on_c, 3, 57, 0
9, 234240, Note_on_c, 3, 57, 58
9, 234384, Note_on_c, 3, 57, 0
9, 234480, Note_on_c, 3, 57, 58
9, 234624, Note_on_c, 3, 57, 0
9, 234720, Note_on_c, 3, 58, 58
9, 234864, Note_on_c, 3, 58, 0
9, 234960, Note_on_c, 3, 58, 58
9, 235104, Note_on_c, 3, 58, 0
9, 235200, Note_on_c, 3, 60, 58
9, 235344, Note_on_c, 3, 60, 0
9, 235440, Note_on_c, 3, 60, 58
9, 235584, Note_on_c, 3, 60, 0
9, 235680, Note_on_c, 3, 57, 58
9, 235824, Note_on_c, 3, 57, 0
9, 235920, Note_on_c, 3, 57, 58
9, 236064, Note_on_c, 3, 57, 0
9, 236160, Note_on_c, 3, 55, 58
9, 236304, Note_on_c, 3, 55, 0
9, 236400, Note_on_c, 3, 55, 58
9, 236544, Note_on_c, 3, 55, 0
9, 236640, Note_on_c, 3, 54, 58
9, 236784, Note_on_c, 3, 54, 0
9, 236880, Note_on_c, 3, 54, 58
9, 237024, Note_on_c, 3, 54, 0
9, 237120, Note_on_c, 3, 55, 58
9, 237264, Note_on_c, 3, 55, 0
9, 237360, Note_on_c, 3, 55, 58
9, 237504, Note_on_c, 3, 55, 0
9, 237600, Note_on_c, 3, 66, 58
9, 237744, Note_on_c, 3, 66, 0
9, 237840, Note_on_c, 3, 66, 58
9, 237984, Note_on_c, 3, 66, 0
9, 238080, Note_on_c, 3, 67, 58
9, 238224, Note_on_c, 3, 67, 0
9, 238320, Note_on_c, 3, 67, 58
9, 238464, Note_on_c, 3, 67, 0
9, 238560, Note_on_c, 3, 66, 58
9, 238704, Note_on_c, 3, 66, 0
9, 238800, Note_on_c, 3, 66, 58
9, 238944, Note_on_c, 3, 66, 0
9, 239040, Note_on_c, 3, 67, 58
9, 239184, Note_on_c, 3, 67, 0
9, 239280, Note_on_c, 3, 55, 58
9, 239424, Note_on_c, 3, 55, 0
9, 239520, Note_on_c, 3, 54, 58
9, 239664, Note_on_c, 3, 54, 0
9, 239760, Note_on_c, 3, 55, 58
9, 239904, Note_on_c, 3, 55, 0
9, 240000, Note_on_c, 3, 57, 58
9, 240384, Note_on_c, 3, 57, 0
9, 240720, Note_on_c, 3, 50, 92
9, 240960, Note_on_c, 3, 50, 0
9, 240960, Note_on_c, 3, 52, 92
9, 241200, Note_on_c, 3, 52, 0
9, 241200, Note_on_c, 3, 54, 92
9, 241440, Note_on_c, 3, 54, 0
9, 241440, Note_on_c, 3, 55, 92
9, 241680, Note_on_c, 3, 55, 0
9, 241680, Note_on_c, 3, 57, 92
9, 241920, Note_on_c, 3, 57, 0
9, 241920, Note_on_c, 3, 60, 92
9, 242160, Note_on_c, 3, 60, 0
9, 242160, Note_on_c, 3, 58, 92
9, 242400, Note_on_c, 3, 58, 0
9, 242640, Note_on_c, 3, 54, 92
9, 242880, Note_on_c, 3, 54, 0
9, 242880, Note_on_c, 3, 55, 92
9, 243120, Note_on_c, 3, 55, 0
9, 243120, Note_on_c, 3, 57, 92
9, 243360, Note_on_c, 3, 57, 0
9, 243360, Note_on_c, 3, 58, 92
9, 243600, Note_on_c, 3, 58, 0
9, 243600, Note_on_c, 3, 61, 92
9, 243840, Note_on_c, 3, 61, 0
9, 243840, Note_on_c, 3, 64, 92
9, 244080, Note_on_c, 3, 64, 0
9, 244080, Note_on_c, 3, 62, 92
9, 244272, Note_on_c, 3, 62, 0
9, 247680, Note_on_c, 3, 71, 58
9, 247824, Note_on_c, 3, 71, 0
9, 247920, Note_on_c, 3, 71, 58
9, 248064, Note_on_c, 3, 71, 0
9, 248160, Note_on_c, 3, 71, 58
9, 248400, Note_on_c, 3, 71, 0
9, 248400, Note_on_c, 3, 72, 58
9, 248544, Note_on_c, 3, 72, 0
9, 248640, Note_on_c, 3, 69, 58
9, 248784, Note_on_c, 3, 69, 0
9, 248880, Note_on_c, 3, 69, 58
9, 249024, Note_on_c, 3, 69, 0
9, 249120, Note_on_c, 3, 69, 58
9, 249360, Note_on_c, 3, 69, 0
9, 249360, Note_on_c, 3, 71, 58
9, 249504, Note_on_c, 3, 71, 0
9, 249600, Note_on_c, 3, 67, 58
9, 249744, Note_on_c, 3, 67, 0
9, 249840, Note_on_c, 3, 67, 58
9, 249984, Note_on_c, 3, 67, 0
9, 250080, Note_on_c, 3, 67, 58
9, 250320, Note_on_c, 3, 67, 0
9, 250320, Note_on_c, 3, 71, 58
9, 250464, Note_on_c, 3, 71, 0
9, 250560, Note_on_c, 3, 71, 58
9, 250800, Note_on_c, 3, 71, 0
9, 250800, Note_on_c, 3, 69, 58
9, 250992, Note_on_c, 3, 69, 0
9, 251040, Note_on_c, 3, 67, 58
9, 251232, Note_on_c, 3, 67, 0
9, 251280, Note_on_c, 3, 62, 58
9, 251472, Note_on_c, 3, 62, 0
9, 251520, Note_on_c, 3, 59, 125
9, 251904, Note_on_c, 3, 59, 0
9, 252240, Note_on_c, 3, 62, 105
9, 252384, Note_on_c, 3, 62, 0
9, 252480, Note_on_c, 3, 67, 105
9, 252864, Note_on_c, 3, 67, 0
9, 253200, Note_on_c, 3, 62, 105
9, 253344, Note_on_c, 3, 62, 0
9, 253440, Note_on_c, 3, 67, 105
9, 253584, Note_on_c, 3, 67, 0
9, 253680, Note_on_c, 3, 62, 105
9, 253824, Note_on_c, 3, 62, 0
9, 253920, Note_on_c, 3, 67, 105
9, 254064, Note_on_c, 3, 67, 0
9, 254160, Note_on_c, 3, 71, 105
9, 254304, Note_on_c, 3, 71, 0
9, 254400, Note_on_c, 3, 74, 105
9, 254784, Note_on_c, 3, 74, 0
9, 255360, Note_on_c, 3, 72, 105
9, 255744, Note_on_c, 3, 72, 0
9, 256080, Note_on_c, 3, 69, 105
9, 256224, Note_on_c, 3, 69, 0
9, 256320, Note_on_c, 3, 72, 105
9, 256704, Note_on_c, 3, 72, 0
9, 257040, Note_on_c, 3, 69, 105
9, 257184, Note_on_c, 3, 69, 0
9, 257280, Note_on_c, 3, 72, 105
9, 257424, Note_on_c, 3, 72, 0
9, 257520, Note_on_c, 3, 69, 105
9, 257664, Note_on_c, 3, 69, 0
9, 257760, Note_on_c, 3, 66, 105
9, 257904, Note_on_c, 3, 66, 0
9, 258000, Note_on_c, 3, 69, 105
9, 258144, Note_on_c, 3, 69, 0
9, 258240, Note_on_c, 3, 62, 105
9, 258624, Note_on_c, 3, 62, 0
9, 259200, Note_on_c, 3, 67, 105
9, 259344, Note_on_c, 3, 67, 0
9, 259440, Note_on_c, 3, 67, 105
9, 259584, Note_on_c, 3, 67, 0
9, 259680, Note_on_c, 3, 67, 105
9, 259824, Note_on_c, 3, 67, 0
9, 259920, Note_on_c, 3, 67, 105
9, 260064, Note_on_c, 3, 67, 0
9, 260160, Note_on_c, 3, 67, 105
9, 260304, Note_on_c, 3, 67, 0
9, 260400, Note_on_c, 3, 67, 105
9, 260544, Note_on_c, 3, 67, 0
9, 260640, Note_on_c, 3, 67, 105
9, 260784, Note_on_c, 3, 67, 0
9, 260880, Note_on_c, 3, 67, 105
9, 261024, Note_on_c, 3, 67, 0
9, 261120, Note_on_c, 3, 69, 105
9, 261264, Note_on_c, 3, 69, 0
9, 261360, Note_on_c, 3, 69, 105
9, 261504, Note_on_c, 3, 69, 0
9, 261600, Note_on_c, 3, 69, 105
9, 261744, Note_on_c, 3, 69, 0
9, 261840, Note_on_c, 3, 69, 105
9, 261984, Note_on_c, 3, 69, 0
9, 262080, Note_on_c, 3, 69, 105
9, 262320, Note_on_c, 3, 69, 0
9, 262320, Note_on_c, 3, 72, 105
9, 262464, Note_on_c, 3, 72, 0
9, 262560, Note_on_c, 3, 66, 105
9, 262800, Note_on_c, 3, 66, 0
9, 262800, Note_on_c, 3, 69, 105
9, 262944, Note_on_c, 3, 69, 0
9, 263040, Note_on_c, 3, 67, 105
9, 263184, Note_on_c, 3, 67, 0
9, 263280, Note_on_c, 3, 67, 105
9, 263424, Note_on_c, 3, 67, 0
9, 263520, Note_on_c, 3, 67, 105
9, 263664, Note_on_c, 3, 67, 0
9, 263760, Note_on_c, 3, 67, 105
9, 263904, Note_on_c, 3, 67, 0
9, 264000, Note_on_c, 3, 67, 105
9, 264144, Note_on_c, 3, 67, 0
9, 264240, Note_on_c, 3, 67, 105
9, 264384, Note_on_c, 3, 67, 0
9, 264480, Note_on_c, 3, 67, 105
9, 264624, Note_on_c, 3, 67, 0
9, 264720, Note_on_c, 3, 67, 105
9, 264864, Note_on_c, 3, 67, 0
9, 264960, Note_on_c, 3, 69, 105
9, 265104, Note_on_c, 3, 69, 0
9, 265200, Note_on_c, 3, 69, 105
9, 265344, Note_on_c, 3, 69, 0
9, 265440, Note_on_c, 3, 69, 105
9, 265584, Note_on_c, 3, 69, 0
9, 265680, Note_on_c, 3, 69, 105
9, 265824, Note_on_c, 3, 69, 0
9, 265920, Note_on_c, 3, 69, 105
9, 266160, Note_on_c, 3, 69, 0
9, 266160, Note_on_c, 3, 72, 105
9, 266304, Note_on_c, 3, 72, 0
9, 266400, Note_on_c, 3, 66, 105
9, 266640, Note_on_c, 3, 66, 0
9, 266640, Note_on_c, 3, 69, 105
9, 266784, Note_on_c, 3, 69, 0
9, 266880, Note_on_c, 3, 62, 105
9, 266976, Note_on_c, 3, 62, 0
9, 267000, Note_on_c, 3, 62, 105
9, 267096, Note_on_c, 3, 62, 0
9, 267120, Note_on_c, 3, 62, 105
9, 267216, Note_on_c, 3, 62, 0
9, 267240, Note_on_c, 3, 62, 105
9, 267336, Note_on_c, 3, 62, 0
9, 267360, Note_on_c, 3, 62, 105
9, 267456, Note_on_c, 3, 62, 0
9, 267480, Note_on_c, 3, 62, 105
9, 267576, Note_on_c, 3, 62, 0
9, 267600, Note_on_c, 3, 62, 105
9, 267696, Note_on_c, 3, 62, 0
9, 267720, Note_on_c, 3, 62, 105
9, 267816, Note_on_c, 3, 62, 0
9, 267840, Note_on_c, 3, 62, 105
9, 267936, Note_on_c, 3, 62, 0
9, 267960, Note_on_c, 3, 62, 105
9, 268056, Note_on_c, 3, 62, 0
9, 268080, Note_on_c, 3, 62, 105
9, 268176, Note_on_c, 3, 62, 0
9, 268200, Note_on_c, 3, 62, 105
9, 268296, Note_on_c, 3, 62, 0
9, 268320, Note_on_c, 3, 62, 105
9, 268416, Note_on_c, 3, 62, 0
9, 268440, Note_on_c, 3, 62, 105
9, 268536, Note_on_c, 3, 62, 0
9, 268560, Note_on_c, 3, 62, 105
9, 268656, Note_on_c, 3, 62, 0
9, 268680, Note_on_c, 3, 62, 105
9, 268776, Note_on_c, 3, 62, 0
9, 268800, Note_on_c, 3, 62, 105
9, 268896, Note_on_c, 3, 62, 0
9, 268920, Note_on_c, 3, 62, 105
9, 269016, Note_on_c, 3, 62, 0
9, 269040, Note_on_c, 3, 62, 105
9, 269136, Note_on_c, 3, 62, 0
9, 269160, Note_on_c, 3, 62, 105
9, 269256, Note_on_c, 3, 62, 0
9, 269280, Note_on_c, 3, 62, 105
9, 269376, Note_on_c, 3, 62, 0
9, 269400, Note_on_c, 3, 62, 105
9, 269496, Note_on_c, 3, 62, 0
9, 269520, Note_on_c, 3, 62, 105
9, 269616, Note_on_c, 3, 62, 0
9, 269640, Note_on_c, 3, 62, 105
9, 269736, Note_on_c, 3, 62, 0
9, 269760, Note_on_c, 3, 62, 92
9, 270144, Note_on_c, 3, 62, 0
9, 272640, Note_on_c, 3, 54, 58
9, 273600, Note_on_c, 3, 54, 0
9, 273600, Note_on_c, 3, 55, 58
9, 274368, Note_on_c, 3, 55, 0
9, 274560, Note_on_c, 3, 60, 58
9, 274872, Note_on_c, 3, 60, 0
9, 275040, Note_on_c, 3, 60, 58
9, 275352, Note_on_c, 3, 60, 0
9, 275520, Note_on_c, 3, 57, 58
9, 275832, Note_on_c, 3, 57, 0
9, 276000, Note_on_c, 3, 50, 58
9, 276312, Note_on_c, 3, 50, 0
9, 276480, Note_on_c, 3, 50, 58
9, 276636, Note_on_c, 3, 50, 0
9, 276960, Note_on_c, 3, 62, 58
9, 277116, Note_on_c, 3, 62, 0
9, 277440, Note_on_c, 3, 62, 58
9, 277596, Note_on_c, 3, 62, 0
9, 280320, Note_on_c, 3, 66, 58
9, 281280, Note_on_c, 3, 66, 0
9, 281280, Note_on_c, 3, 67, 58
9, 282048, Note_on_c, 3, 67, 0
9, 282240, Note_on_c, 3, 60, 58
9, 282552, Note_on_c, 3, 60, 0
9, 282720, Note_on_c, 3, 60, 58
9, 282876, Note_on_c, 3, 60, 0
9, 282960, Note_on_c, 3, 60, 58
9, 283116, Note_on_c, 3, 60, 0
9, 283200, Note_on_c, 3, 57, 58
9, 283512, Note_on_c, 3, 57, 0
9, 283680, Note_on_c, 3, 57, 58
9, 283836, Note_on_c, 3, 57, 0
9, 283920, Note_on_c, 3, 57, 58
9, 284076, Note_on_c, 3, 57, 0
9, 284160, Note_on_c, 3, 55, 112
9, 284316, Note_on_c, 3, 55, 0
9, 284400, Note_on_c, 3, 55, 92
9, 284556, Note_on_c, 3, 55, 0
9, 284640, Note_on_c, 3, 55, 92
9, 284796, Note_on_c, 3, 55, 0
9, 284880, Note_on_c, 3, 55, 92
9, 285036, Note_on_c, 3, 55, 0
9, 285120, Note_on_c, 3, 55, 58
9, 285276, Note_on_c, 3, 55, 0
9, 285360, Note_on_c, 3, 55, 58
9, 285516, Note_on_c, 3, 55, 0
9, 285600, Note_on_c, 3, 55, 58
9, 285756, Note_on_c, 3, 55, 0
9, 285840, Note_on_c, 3, 55, 58
9, 285996, Note_on_c, 3, 55, 0
9, 286080, Note_on_c, 3, 55, 112
9, 286236, Note_on_c, 3, 55, 0
9, 286320, Note_on_c, 3, 55, 92
9, 286476, Note_on_c, 3, 55, 0
9, 286560, Note_on_c, 3, 55, 92
9, 286716, Note_on_c, 3, 55, 0
9, 286800, Note_on_c, 3, 55, 92
9, 286956, Note_on_c, 3, 55, 0
9, 287040, Note_on_c, 3, 55, 58
9, 287196, Note_on_c, 3, 55, 0
9, 287280, Note_on_c, 3, 55, 58
9, 287436, Note_on_c, 3, 55, 0
9, 287520, Note_on_c, 3, 55, 58
9, 287676, Note_on_c, 3, 55, 0
9, 287760, Note_on_c, 3, 55, 58
9, 287916, Note_on_c, 3, 55, 0
9, 288000, Note_on_c, 3, 55, 72
9, 288156, Note_on_c, 3, 55, 0
9, 288240, Note_on_c, 3, 67, 72
9, 288396, Note_on_c, 3, 67, 0
9, 288480, Note_on_c, 3, 67, 72
9, 288636, Note_on_c, 3, 67, 0
9, 288720, Note_on_c, 3, 67, 81
9, 288876, Note_on_c, 3, 67, 0
9, 288960, Note_on_c, 3, 67, 81
9, 289116, Note_on_c, 3, 67, 0
9, 289200, Note_on_c, 3, 67, 81
9, 289356, Note_on_c, 3, 67, 0
9, 289440, Note_on_c, 3, 69, 81
9, 289596, Note_on_c, 3, 69, 0
9, 289680, Note_on_c, 3, 69, 81
9, 289836, Note_on_c, 3, 69, 0
9, 289920, Note_on_c, 3, 67, 81
9, 290076, Note_on_c, 3, 67, 0
9, 290160, Note_on_c, 3, 67, 92
9, 290316, Note_on_c, 3, 67, 0
9, 290400, Note_on_c, 3, 66, 92
9, 290556, Note_on_c, 3, 66, 0
9, 290640, Note_on_c, 3, 66, 92
9, 290796, Note_on_c, 3, 66, 0
9, 290880, Note_on_c, 3, 67, 105
9, 291036, Note_on_c, 3, 67, 0
9, 291120, Note_on_c, 3, 67, 105
9, 291276, Note_on_c, 3, 67, 0
9, 291360, Note_on_c, 3, 64, 105
9, 291516, Note_on_c, 3, 64, 0
9, 291600, Note_on_c, 3, 64, 105
9, 291756, Note_on_c, 3, 64, 0
9, 291840, Note_on_c, 3, 62, 105
9, 291840, Note_on_c, 3, 69, 105
9, 291936, Note_on_c, 3, 69, 0
9, 291936, Note_on_c, 3, 62, 0
9, 291960, Note_on_c, 3, 62, 105
9, 291960, Note_on_c, 3, 69, 105
9, 292056, Note_on_c, 3, 69, 0
9, 292056, Note_on_c, 3, 62, 0
9, 292080, Note_on_c, 3, 69, 105
9, 292080, Note_on_c, 3, 62, 105
9, 292176, Note_on_c, 3, 62, 0
9, 292176, Note_on_c, 3, 69, 0
9, 292200, Note_on_c, 3, 69, 105
9, 292200, Note_on_c, 3, 62, 105
9, 292296, Note_on_c, 3, 62, 0
9, 292296, Note_on_c, 3, 69, 0
9, 292320, Note_on_c, 3, 62, 105
9, 292320, Note_on_c, 3, 69, 105
9, 292416, Note_on_c, 3, 69, 0
9, 292416, Note_on_c, 3, 62, 0
9, 292440, Note_on_c, 3, 69, 105
9, 292440, Note_on_c, 3, 62, 105
9, 292536, Note_on_c, 3, 62, 0
9, 292536, Note_on_c, 3, 69, 0
9, 292560, Note_on_c, 3, 62, 105
9, 292560, Note_on_c, 3, 69, 105
9, 292656, Note_on_c, 3, 69, 0
9, 292656, Note_on_c, 3, 62, 0
9, 292680, Note_on_c, 3, 62, 105
9, 292680, Note_on_c, 3, 69, 105
9, 292776, Note_on_c, 3, 69, 0
9, 292776, Note_on_c, 3, 62, 0
9, 292800, Note_on_c, 3, 69, 105
9, 292800, Note_on_c, 3, 64, 105
9, 292896, Note_on_c, 3, 64, 0
9, 292896, Note_on_c, 3, 69, 0
9, 292920, Note_on_c, 3, 69, 105
9, 292920, Note_on_c, 3, 64, 105
9, 293016, Note_on_c, 3, 64, 0
9, 293016, Note_on_c, 3, 69, 0
9, 293040, Note_on_c, 3, 64, 105
9, 293040, Note_on_c, 3, 69, 105
9, 293136, Note_on_c, 3, 69, 0
9, 293136, Note_on_c, 3, 64, 0
9, 293160, Note_on_c, 3, 69, 105
9, 293160, Note_on_c, 3, 64, 105
9, 293256, Note_on_c, 3, 64, 0
9, 293256, Note_on_c, 3, 69, 0
9, 293280, Note_on_c, 3, 64, 105
9, 293280, Note_on_c, 3, 69, 105
9, 293376, Note_on_c, 3, 69, 0
9, 293376, Note_on_c, 3, 64, 0
9, 293400, Note_on_c, 3, 64, 105
9, 293400, Note_on_c, 3, 69, 105
9, 293496, Note_on_c, 3, 69, 0
9, 293496, Note_on_c, 3, 64, 0
9, 293520, Note_on_c, 3, 64, 105
9, 293520, Note_on_c, 3, 69, 105
9, 293616, Note_on_c, 3, 69, 0
9, 293616, Note_on_c, 3, 64, 0
9, 293640, Note_on_c, 3, 64, 105
9, 293640, Note_on_c, 3, 69, 105
9, 293736, Note_on_c, 3, 69, 0
9, 293736, Note_on_c, 3, 64, 0
9, 293760, Note_on_c, 3, 62, 105
9, 293760, Note_on_c, 3, 69, 105
9, 293856, Note_on_c, 3, 69, 0
9, 293856, Note_on_c, 3, 62, 0
9, 293880, Note_on_c, 3, 69, 105
9, 293880, Note_on_c, 3, 62, 105
9, 293976, Note_on_c, 3, 62, 0
9, 293976, Note_on_c, 3, 69, 0
9, 294000, Note_on_c, 3, 69, 105
9, 294000, Note_on_c, 3, 62, 105
9, 294096, Note_on_c, 3, 62, 0
9, 294096, Note_on_c, 3, 69, 0
9, 294120, Note_on_c, 3, 69, 105
9, 294120, Note_on_c, 3, 62, 105
9, 294216, Note_on_c, 3, 62, 0
9, 294216, Note_on_c, 3, 69, 0
9, 294240, Note_on_c, 3, 62, 105
9, 294240, Note_on_c, 3, 69, 105
9, 294336, Note_on_c, 3, 69, 0
9, 294336, Note_on_c, 3, 62, 0
9, 294360, Note_on_c, 3, 69, 105
9, 294360, Note_on_c, 3, 62, 105
9, 294456, Note_on_c, 3, 62, 0
9, 294456, Note_on_c, 3, 69, 0
9, 294480, Note_on_c, 3, 69, 105
9, 294480, Note_on_c, 3, 62, 105
9, 294576, Note_on_c, 3, 62, 0
9, 294576, Note_on_c, 3, 69, 0
9, 294600, Note_on_c, 3, 69, 105
9, 294600, Note_on_c, 3, 62, 105
9, 294696, Note_on_c, 3, 62, 0
9, 294696, Note_on_c, 3, 69, 0
9, 294720, Note_on_c, 3, 69, 105
9, 294720, Note_on_c, 3, 64, 105
9, 294816, Note_on_c, 3, 64, 0
9, 294816, Note_on_c, 3, 69, 0
9, 294840, Note_on_c, 3, 64, 105
9, 294840, Note_on_c, 3, 69, 105
9, 294936, Note_on_c, 3, 69, 0
9, 294936, Note_on_c, 3, 64, 0
9, 294960, Note_on_c, 3, 64, 105
9, 294960, Note_on_c, 3, 69, 105
9, 295056, Note_on_c, 3, 69, 0
9, 295056, Note_on_c, 3, 64, 0
9, 295080, Note_on_c, 3, 64, 105
9, 295080, Note_on_c, 3, 69, 105
9, 295176, Note_on_c, 3, 69, 0
9, 295176, Note_on_c, 3, 64, 0
9, 295200, Note_on_c, 3, 69, 105
9, 295200, Note_on_c, 3, 64, 105
9, 295296, Note_on_c, 3, 64, 0
9, 295296, Note_on_c, 3, 69, 0
9, 295320, Note_on_c, 3, 69, 105
9, 295320, Note_on_c, 3, 64, 105
9, 295416, Note_on_c, 3, 64, 0
9, 295416, Note_on_c, 3, 69, 0
9, 295440, Note_on_c, 3, 64, 105
9, 295440, Note_on_c, 3, 69, 105
9, 295536, Note_on_c, 3, 69, 0
9, 295536, Note_on_c, 3, 64, 0
9, 295560, Note_on_c, 3, 64, 105
9, 295560, Note_on_c, 3, 69, 105
9, 295656, Note_on_c, 3, 69, 0
9, 295656, Note_on_c, 3, 64, 0
9, 295680, Note_on_c, 3, 62, 105
9, 295680, Note_on_c, 3, 69, 105
9, 295776, Note_on_c, 3, 69, 0
9, 295776, Note_on_c, 3, 62, 0
9, 295800, Note_on_c, 3, 62, 105
9, 295800, Note_on_c, 3, 69, 105
9, 295896, Note_on_c, 3, 69, 0
9, 295896, Note_on_c, 3, 62, 0
9, 295920, Note_on_c, 3, 62, 105
9, 295920, Note_on_c, 3, 69, 105
9, 296016, Note_on_c, 3, 69, 0
9, 296016, Note_on_c, 3, 62, 0
9, 296040, Note_on_c, 3, 69, 105
9, 296040, Note_on_c, 3, 62, 105
9, 296136, Note_on_c, 3, 62, 0
9, 296136, Note_on_c, 3, 69, 0
9, 296160, Note_on_c, 3, 64, 105
9, 296160, Note_on_c, 3, 69, 105
9, 296256, Note_on_c, 3, 69, 0
9, 296256, Note_on_c, 3, 64, 0
9, 296280, Note_on_c, 3, 69, 105
9, 296280, Note_on_c, 3, 64, 105
9, 296376, Note_on_c, 3, 64, 0
9, 296376, Note_on_c, 3, 69, 0
9, 296400, Note_on_c, 3, 64, 105
9, 296400, Note_on_c, 3, 69, 105
9, 296496, Note_on_c, 3, 69, 0
9, 296496, Note_on_c, 3, 64, 0
9, 296520, Note_on_c, 3, 69, 105
9, 296520, Note_on_c, 3, 64, 105
9, 296616, Note_on_c, 3, 64, 0
9, 296616, Note_on_c, 3, 69, 0
9, 296640, Note_on_c, 3, 62, 105
9, 296640, Note_on_c, 3, 69, 105
9, 296736, Note_on_c, 3, 69, 0
9, 296736, Note_on_c, 3, 62, 0
9, 296760, Note_on_c, 3, 62, 105
9, 296760, Note_on_c, 3, 69, 105
9, 296856, Note_on_c, 3, 69, 0
9, 296856, Note_on_c, 3, 62, 0
9, 296880, Note_on_c, 3, 62, 105
9, 296880, Note_on_c, 3, 69, 105
9, 296976, Note_on_c, 3, 69, 0
9, 296976, Note_on_c, 3, 62, 0
9, 297000, Note_on_c, 3, 62, 105
9, 297000, Note_on_c, 3, 69, 105
9, 297096, Note_on_c, 3, 69, 0
9, 297096, Note_on_c, 3, 62, 0
9, 297120, Note_on_c, 3, 64, 105
9, 297120, Note_on_c, 3, 69, 105
9, 297216, Note_on_c, 3, 69, 0
9, 297216, Note_on_c, 3, 64, 0
9, 297240, Note_on_c, 3, 64, 105
9, 297240, Note_on_c, 3, 69, 105
9, 297336, Note_on_c, 3, 69, 0
9, 297336, Note_on_c, 3, 64, 0
9, 297360, Note_on_c, 3, 64, 105
9, 297360, Note_on_c, 3, 69, 105
9, 297456, Note_on_c, 3, 69, 0
9, 297456, Note_on_c, 3, 64, 0
9, 297480, Note_on_c, 3, 64, 105
9, 297480, Note_on_c, 3, 69, 105
9, 297576, Note_on_c, 3, 69, 0
9, 297576, Note_on_c, 3, 64, 0
9, 297600, Note_on_c, 3, 62, 105
9, 297600, Note_on_c, 3, 69, 105
9, 297756, Note_on_c, 3, 69, 0
9, 297756, Note_on_c, 3, 62, 0
9, 297840, Note_on_c, 3, 50, 81
9, 297996, Note_on_c, 3, 50, 0
9, 298080, Note_on_c, 3, 50, 81
9, 298236, Note_on_c, 3, 50, 0
9, 298320, Note_on_c, 3, 50, 81
9, 298476, Note_on_c, 3, 50, 0
9, 298560, Note_on_c, 3, 50, 81
9, 298944, Note_on_c, 3, 50, 0
9, 300960, Note_on_c, 3, 59, 58
9, 301152, Note_on_c, 3, 59, 0
9, 301440, Note_on_c, 3, 52, 58
9, 301632, Note_on_c, 3, 52, 0
9, 301920, Note_on_c, 3, 60, 58
9, 302112, Note_on_c, 3, 60, 0
9, 302400, Note_on_c, 3, 57, 58
9, 302592, Note_on_c, 3, 57, 0
9, 302880, Note_on_c, 3, 54, 58
9, 303072, Note_on_c, 3, 54, 0
9, 303840, Note_on_c, 3, 69, 58
9, 304320, Note_on_c, 3, 69, 0
9, 304320, Note_on_c, 3, 67, 58
9, 304512, Note_on_c, 3, 67, 0
9, 304800, Note_on_c, 3, 69, 58
9, 304992, Note_on_c, 3, 69, 0
9, 305280, Note_on_c, 3, 67, 58
9, 306240, Note_on_c, 3, 67, 0
9, 306240, Note_on_c, 3, 66, 58
9, 306624, Note_on_c, 3, 66, 0
9, 307680, Note_on_c, 3, 66, 58
9, 308160, Note_on_c, 3, 66, 0
9, 308160, Note_on_c, 3, 67, 58
9, 308352, Note_on_c, 3, 67, 0
9, 308640, Note_on_c, 3, 71, 58
9, 308832, Note_on_c, 3, 71, 0
9, 309120, Note_on_c, 3, 64, 58
9, 309312, Note_on_c, 3, 64, 0
9, 309600, Note_on_c, 3, 60, 58
9, 309792, Note_on_c, 3, 60, 0
9, 310080, Note_on_c, 3, 57, 58
9, 310464, Note_on_c, 3, 57, 0
9, 310800, Note_on_c, 3, 69, 58
9, 310992, Note_on_c, 3, 69, 0
9, 311040, Note_on_c, 3, 69, 78
9, 311280, Note_on_c, 3, 69, 0
9, 311280, Note_on_c, 3, 67, 58
9, 311472, Note_on_c, 3, 67, 0
9, 312960, Note_on_c, 3, 55, 58
9, 313116, Note_on_c, 3, 55, 0
9, 313200, Note_on_c, 3, 55, 58
9, 313356, Note_on_c, 3, 55, 0
9, 313440, Note_on_c, 3, 57, 58
9, 313596, Note_on_c, 3, 57, 0
9, 313680, Note_on_c, 3, 57, 58
9, 313836, Note_on_c, 3, 57, 0
9, 313920, Note_on_c, 3, 59, 58
9, 314076, Note_on_c, 3, 59, 0
9, 314160, Note_on_c, 3, 59, 58
9, 314316, Note_on_c, 3, 59, 0
9, 314400, Note_on_c, 3, 55, 58
9, 314556, Note_on_c, 3, 55, 0
9, 314640, Note_on_c, 3, 55, 58
9, 314796, Note_on_c, 3, 55, 0
9, 314880, Note_on_c, 3, 54, 58
9, 315036, Note_on_c, 3, 54, 0
9, 315120, Note_on_c, 3, 54, 58
9, 315276, Note_on_c, 3, 54, 0
9, 315360, Note_on_c, 3, 55, 58
9, 315516, Note_on_c, 3, 55, 0
9, 315600, Note_on_c, 3, 55, 58
9, 315756, Note_on_c, 3, 55, 0
9, 315840, Note_on_c, 3, 57, 58
9, 315996, Note_on_c, 3, 57, 0
9, 316080, Note_on_c, 3, 57, 58
9, 316236, Note_on_c, 3, 57, 0
9, 316320, Note_on_c, 3, 54, 58
9, 316476, Note_on_c, 3, 54, 0
9, 316560, Note_on_c, 3, 54, 58
9, 316716, Note_on_c, 3, 54, 0
9, 316800, Note_on_c, 3, 55, 58
9, 316956, Note_on_c, 3, 55, 0
9, 317040, Note_on_c, 3, 55, 58
9, 317196, Note_on_c, 3, 55, 0
9, 317280, Note_on_c, 3, 57, 58
9, 317436, Note_on_c, 3, 57, 0
9, 317520, Note_on_c, 3, 57, 58
9, 317676, Note_on_c, 3, 57, 0
9, 317760, Note_on_c, 3, 59, 58
9, 317916, Note_on_c, 3, 59, 0
9, 318000, Note_on_c, 3, 59, 58
9, 318156, Note_on_c, 3, 59, 0
9, 318240, Note_on_c, 3, 55, 58
9, 318396, Note_on_c, 3, 55, 0
9, 318480, Note_on_c, 3, 55, 58
9, 318636, Note_on_c, 3, 55, 0
9, 318720, Note_on_c, 3, 54, 58
9, 318876, Note_on_c, 3, 54, 0
9, 318960, Note_on_c, 3, 54, 58
9, 319116, Note_on_c, 3, 54, 0
9, 319200, Note_on_c, 3, 55, 58
9, 319356, Note_on_c, 3, 55, 0
9, 319440, Note_on_c, 3, 55, 58
9, 319596, Note_on_c, 3, 55, 0
9, 319680, Note_on_c, 3, 57, 58
9, 319836, Note_on_c, 3, 57, 0
9, 319920, Note_on_c, 3, 57, 58
9, 320076, Note_on_c, 3, 57, 0
9, 320160, Note_on_c, 3, 54, 58
9, 320316, Note_on_c, 3, 54, 0
9, 320400, Note_on_c, 3, 54, 58
9, 320556, Note_on_c, 3, 54, 0
9, 320640, Note_on_c, 3, 55, 58
9, 320796, Note_on_c, 3, 55, 0
9, 320880, Note_on_c, 3, 67, 105
9, 321036, Note_on_c, 3, 67, 0
9, 321120, Note_on_c, 3, 71, 105
9, 321276, Note_on_c, 3, 71, 0
9, 321360, Note_on_c, 3, 69, 105
9, 321516, Note_on_c, 3, 69, 0
9, 321600, Note_on_c, 3, 68, 105
9, 321756, Note_on_c, 3, 68, 0
9, 321840, Note_on_c, 3, 64, 105
9, 321996, Note_on_c, 3, 64, 0
9, 322080, Note_on_c, 3, 66, 105
9, 322236, Note_on_c, 3, 66, 0
9, 322320, Note_on_c, 3, 68, 105
9, 322476, Note_on_c, 3, 68, 0
9, 322560, Note_on_c, 3, 69, 105
9, 322716, Note_on_c, 3, 69, 0
9, 322800, Note_on_c, 3, 72, 105
9, 322956, Note_on_c, 3, 72, 0
9, 323040, Note_on_c, 3, 69, 105
9, 323196, Note_on_c, 3, 69, 0
9, 323280, Note_on_c, 3, 67, 105
9, 323436, Note_on_c, 3, 67, 0
9, 323520, Note_on_c, 3, 66, 105
9, 323676, Note_on_c, 3, 66, 0
9, 323760, Note_on_c, 3, 62, 105
9, 323916, Note_on_c, 3, 62, 0
9, 324000, Note_on_c, 3, 64, 105
9, 324156, Note_on_c, 3, 64, 0
9, 324240, Note_on_c, 3, 66, 105
9, 324396, Note_on_c, 3, 66, 0
9, 324480, Note_on_c, 3, 67, 105
9, 324636, Note_on_c, 3, 67, 0
9, 324720, Note_on_c, 3, 67, 105
9, 324876, Note_on_c, 3, 67, 0
9, 324960, Note_on_c, 3, 67, 105
9, 325116, Note_on_c, 3, 67, 0
9, 325200, Note_on_c, 3, 67, 105
9, 325356, Note_on_c, 3, 67, 0
9, 325440, Note_on_c, 3, 67, 105
9, 325596, Note_on_c, 3, 67, 0
9, 325680, Note_on_c, 3, 67, 105
9, 325836, Note_on_c, 3, 67, 0
9, 325920, Note_on_c, 3, 67, 105
9, 326076, Note_on_c, 3, 67, 0
9, 326160, Note_on_c, 3, 67, 105
9, 326316, Note_on_c, 3, 67, 0
9, 326400, Note_on_c, 3, 67, 105
9, 326640, Note_on_c, 3, 67, 0
9, 326640, Note_on_c, 3, 62, 105
9, 326796, Note_on_c, 3, 62, 0
9, 326880, Note_on_c, 3, 62, 105
9, 327036, Note_on_c, 3, 62, 0
9, 327120, Note_on_c, 3, 62, 105
9, 327276, Note_on_c, 3, 62, 0
9, 327360, Note_on_c, 3, 62, 105
9, 327516, Note_on_c, 3, 62, 0
9, 327600, Note_on_c, 3, 62, 105
9, 327756, Note_on_c, 3, 62, 0
9, 327840, Note_on_c, 3, 62, 105
9, 327996, Note_on_c, 3, 62, 0
9, 328080, Note_on_c, 3, 60, 105
9, 328236, Note_on_c, 3, 60, 0
9, 328320, Note_on_c, 3, 59, 92
9, 328476, Note_on_c, 3, 59, 0
9, 328560, Note_on_c, 3, 55, 58
9, 328716, Note_on_c, 3, 55, 0
9, 328800, Note_on_c, 3, 57, 58
9, 328956, Note_on_c, 3, 57, 0
9, 329040, Note_on_c, 3, 57, 58
9, 329196, Note_on_c, 3, 57, 0
9, 329280, Note_on_c, 3, 59, 58
9, 329436, Note_on_c, 3, 59, 0
9, 329520, Note_on_c, 3, 59, 58
9, 329676, Note_on_c, 3, 59, 0
9, 329760, Note_on_c, 3, 55, 58
9, 329916, Note_on_c, 3, 55, 0
9, 330000, Note_on_c, 3, 55, 58
9, 330156, Note_on_c, 3, 55, 0
9, 330240, Note_on_c, 3, 54, 58
9, 330396, Note_on_c, 3, 54, 0
9, 330480, Note_on_c, 3, 54, 58
9, 330636, Note_on_c, 3, 54, 0
9, 330720, Note_on_c, 3, 55, 58
9, 330876, Note_on_c, 3, 55, 0
9, 330960, Note_on_c, 3, 55, 58
9, 331116, Note_on_c, 3, 55, 0
9, 331200, Note_on_c, 3, 57, 58
9, 331356, Note_on_c, 3, 57, 0
9, 331440, Note_on_c, 3, 57, 58
9, 331596, Note_on_c, 3, 57, 0
9, 331680, Note_on_c, 3, 54, 58
9, 331836, Note_on_c, 3, 54, 0
9, 331920, Note_on_c, 3, 54, 58
9, 332076, Note_on_c, 3, 54, 0
9, 332160, Note_on_c, 3, 55, 58
9, 332316, Note_on_c, 3, 55, 0
9, 332400, Note_on_c, 3, 67, 58
9, 332556, Note_on_c, 3, 67, 0
9, 332640, Note_on_c, 3, 69, 58
9, 332796, Note_on_c, 3, 69, 0
9, 332880, Note_on_c, 3, 69, 58
9, 333036, Note_on_c, 3, 69, 0
9, 333120, Note_on_c, 3, 71, 58
9, 333276, Note_on_c, 3, 71, 0
9, 333360, Note_on_c, 3, 71, 58
9, 333516, Note_on_c, 3, 71, 0
9, 333600, Note_on_c, 3, 67, 58
9, 333756, Note_on_c, 3, 67, 0
9, 333840, Note_on_c, 3, 67, 58
9, 333996, Note_on_c, 3, 67, 0
9, 334080, Note_on_c, 3, 66, 58
9, 334236, Note_on_c, 3, 66, 0
9, 334320, Note_on_c, 3, 66, 58
9, 334476, Note_on_c, 3, 66, 0
9, 334560, Note_on_c, 3, 67, 58
9, 334716, Note_on_c, 3, 67, 0
9, 334800, Note_on_c, 3, 67, 58
9, 334956, Note_on_c, 3, 67, 0
9, 335040, Note_on_c, 3, 69, 58
9, 335196, Note_on_c, 3, 69, 0
9, 335280, Note_on_c, 3, 69, 58
9, 335436, Note_on_c, 3, 69, 0
9, 335520, Note_on_c, 3, 66, 58
9, 335676, Note_on_c, 3, 66, 0
9, 335760, Note_on_c, 3, 66, 58
9, 335916, Note_on_c, 3, 66, 0
9, 336000, Note_on_c, 3, 67, 58
9, 336156, Note_on_c, 3, 67, 0
9, 336240, Note_on_c, 3, 67, 105
9, 336396, Note_on_c, 3, 67, 0
9, 336480, Note_on_c, 3, 71, 105
9, 336636, Note_on_c, 3, 71, 0
9, 336720, Note_on_c, 3, 69, 105
9, 336876, Note_on_c, 3, 69, 0
9, 336960, Note_on_c, 3, 68, 105
9, 337116, Note_on_c, 3, 68, 0
9, 337200, Note_on_c, 3, 64, 105
9, 337356, Note_on_c, 3, 64, 0
9, 337440, Note_on_c, 3, 66, 105
9, 337596, Note_on_c, 3, 66, 0
9, 337680, Note_on_c, 3, 68, 105
9, 337836, Note_on_c, 3, 68, 0
9, 337920, Note_on_c, 3, 69, 105
9, 338076, Note_on_c, 3, 69, 0
9, 338160, Note_on_c, 3, 72, 105
9, 338316, Note_on_c, 3, 72, 0
9, 338400, Note_on_c, 3, 69, 105
9, 338556, Note_on_c, 3, 69, 0
9, 338640, Note_on_c, 3, 67, 105
9, 338796, Note_on_c, 3, 67, 0
9, 338880, Note_on_c, 3, 66, 105
9, 339036, Note_on_c, 3, 66, 0
9, 339120, Note_on_c, 3, 62, 105
9, 339276, Note_on_c, 3, 62, 0
9, 339360, Note_on_c, 3, 64, 105
9, 339516, Note_on_c, 3, 64, 0
9, 339600, Note_on_c, 3, 66, 105
9, 339756, Note_on_c, 3, 66, 0
9, 339840, Note_on_c, 3, 67, 105
9, 339996, Note_on_c, 3, 67, 0
9, 340080, Note_on_c, 3, 67, 105
9, 340236, Note_on_c, 3, 67, 0
9, 340320, Note_on_c, 3, 67, 105
9, 340476, Note_on_c, 3, 67, 0
9, 340560, Note_on_c, 3, 67, 105
9, 340716, Note_on_c, 3, 67, 0
9, 340800, Note_on_c, 3, 67, 105
9, 340956, Note_on_c, 3, 67, 0
9, 341040, Note_on_c, 3, 67, 105
9, 341196, Note_on_c, 3, 67, 0
9, 341280, Note_on_c, 3, 67, 105
9, 341436, Note_on_c, 3, 67, 0
9, 341520, Note_on_c, 3, 67, 105
9, 341676, Note_on_c, 3, 67, 0
9, 341760, Note_on_c, 3, 67, 105
9, 342000, Note_on_c, 3, 67, 0
9, 342000, Note_on_c, 3, 71, 105
9, 342156, Note_on_c, 3, 71, 0
9, 342240, Note_on_c, 3, 74, 105
9, 342396, Note_on_c, 3, 74, 0
9, 342480, Note_on_c, 3, 74, 105
9, 342636, Note_on_c, 3, 74, 0
9, 342720, Note_on_c, 3, 74, 105
9, 342876, Note_on_c, 3, 74, 0
9, 342960, Note_on_c, 3, 74, 105
9, 343116, Note_on_c, 3, 74, 0
9, 343200, Note_on_c, 3, 74, 105
9, 343356, Note_on_c, 3, 74, 0
9, 343440, Note_on_c, 3, 72, 105
9, 343596, Note_on_c, 3, 72, 0
9, 343680, Note_on_c, 3, 67, 105
9, 343836, Note_on_c, 3, 67, 0
9, 343920, Note_on_c, 3, 62, 105
9, 344076, Note_on_c, 3, 62, 0
9, 344160, Note_on_c, 3, 64, 105
9, 344316, Note_on_c, 3, 64, 0
9, 344400, Note_on_c, 3, 66, 105
9, 344556, Note_on_c, 3, 66, 0
9, 344640, Note_on_c, 3, 67, 105
9, 344796, Note_on_c, 3, 67, 0
9, 344880, Note_on_c, 3, 67, 105
9, 345036, Note_on_c, 3, 67, 0
9, 345120, Note_on_c, 3, 69, 105
9, 345276, Note_on_c, 3, 69, 0
9, 345360, Note_on_c, 3, 69, 105
9, 345516, Note_on_c, 3, 69, 0
9, 345600, Note_on_c, 3, 71, 92
9, 345756, Note_on_c, 3, 71, 0
9, 345840, Note_on_c, 3, 54, 92
9, 345996, Note_on_c, 3, 54, 0
9, 346080, Note_on_c, 3, 55, 92
9, 346236, Note_on_c, 3, 55, 0
9, 346320, Note_on_c, 3, 57, 92
9, 346476, Note_on_c, 3, 57, 0
9, 346560, Note_on_c, 3, 59, 92
9, 346716, Note_on_c, 3, 59, 0
9, 346800, Note_on_c, 3, 59, 92
9, 346956, Note_on_c, 3, 59, 0
9, 347040, Note_on_c, 3, 60, 92
9, 347196, Note_on_c, 3, 60, 0
9, 347280, Note_on_c, 3, 60, 92
9, 347436, Note_on_c, 3, 60, 0
9, 347520, Note_on_c, 3, 62, 92
9, 347676, Note_on_c, 3, 62, 0
9, 347760, Note_on_c, 3, 62, 92
9, 347916, Note_on_c, 3, 62, 0
9, 348000, Note_on_c, 3, 63, 92
9, 348156, Note_on_c, 3, 63, 0
9, 348240, Note_on_c, 3, 63, 92
9, 348396, Note_on_c, 3, 63, 0
9, 348480, Note_on_c, 3, 64, 92
9, 348864, Note_on_c, 3, 64, 0
9, 349440, Note_on_c, 3, 57, 58
9, 350880, Note_on_c, 3, 57, 0
9, 350880, Note_on_c, 3, 55, 58
9, 351120, Note_on_c, 3, 55, 0
9, 351120, Note_on_c, 3, 54, 58
9, 351360, Note_on_c, 3, 54, 0
9, 351360, Note_on_c, 3, 55, 58
9, 351744, Note_on_c, 3, 55, 0
9, 353280, Note_on_c, 3, 57, 58
9, 354720, Note_on_c, 3, 57, 0
9, 354720, Note_on_c, 3, 55, 58
9, 354960, Note_on_c, 3, 55, 0
9, 354960, Note_on_c, 3, 54, 58
9, 355200, Note_on_c, 3, 54, 0
9, 355200, Note_on_c, 3, 55, 58
9, 355584, Note_on_c, 3, 55, 0
9, 356160, Note_on_c, 3, 67, 58
9, 356544, Note_on_c, 3, 67, 0
9, 357120, Note_on_c, 3, 64, 58
9, 357504, Note_on_c, 3, 64, 0
9, 358080, Note_on_c, 3, 69, 105
9, 358080, Note_on_c, 3, 62, 105
9, 358464, Note_on_c, 3, 62, 0
9, 358464, Note_on_c, 3, 69, 0
9, 359040, Note_on_c, 3, 55, 105
9, 359136, Note_on_c, 3, 55, 0
9, 359160, Note_on_c, 3, 55, 105
9, 359256, Note_on_c, 3, 55, 0
9, 359280, Note_on_c, 3, 55, 105
9, 359376, Note_on_c, 3, 55, 0
9, 359400, Note_on_c, 3, 55, 105
9, 359496, Note_on_c, 3, 55, 0
9, 359520, Note_on_c, 3, 55, 105
9, 359616, Note_on_c, 3, 55, 0
9, 359640, Note_on_c, 3, 55, 105
9, 359736, Note_on_c, 3, 55, 0
9, 359760, Note_on_c, 3, 55, 105
9, 359856, Note_on_c, 3, 55, 0
9, 359880, Note_on_c, 3, 55, 105
9, 359976, Note_on_c, 3, 55, 0
9, 360000, Note_on_c, 3, 55, 105
9, 360096, Note_on_c, 3, 55, 0
9, 360120, Note_on_c, 3, 55, 105
9, 360216, Note_on_c, 3, 55, 0
9, 360240, Note_on_c, 3, 55, 105
9, 360336, Note_on_c, 3, 55, 0
9, 360360, Note_on_c, 3, 55, 105
9, 360456, Note_on_c, 3, 55, 0
9, 360480, Note_on_c, 3, 55, 105
9, 360576, Note_on_c, 3, 55, 0
9, 360600, Note_on_c, 3, 55, 105
9, 360696, Note_on_c, 3, 55, 0
9, 360720, Note_on_c, 3, 55, 105
9, 360816, Note_on_c, 3, 55, 0
9, 360840, Note_on_c, 3, 55, 105
9, 360936, Note_on_c, 3, 55, 0
9, 360960, Note_on_c, 3, 55, 105
9, 361056, Note_on_c, 3, 55, 0
9, 361080, Note_on_c, 3, 55, 105
9, 361176, Note_on_c, 3, 55, 0
9, 361200, Note_on_c, 3, 55, 105
9, 361296, Note_on_c, 3, 55, 0
9, 361320, Note_on_c, 3, 55, 105
9, 361416, Note_on_c, 3, 55, 0
9, 361440, Note_on_c, 3, 55, 105
9, 361536, Note_on_c, 3, 55, 0
9, 361560, Note_on_c, 3, 55, 105
9, 361656, Note_on_c, 3, 55, 0
9, 361680, Note_on_c, 3, 55, 105
9, 361776, Note_on_c, 3, 55, 0
9, 361800, Note_on_c, 3, 55, 105
9, 361896, Note_on_c, 3, 55, 0
9, 361920, Note_on_c, 3, 55, 105
9, 362016, Note_on_c, 3, 55, 0
9, 362040, Note_on_c, 3, 55, 105
9, 362136, Note_on_c, 3, 55, 0
9, 362160, Note_on_c, 3, 55, 105
9, 362256, Note_on_c, 3, 55, 0
9, 362280, Note_on_c, 3, 55, 105
9, 362376, Note_on_c, 3, 55, 0
9, 362400, Note_on_c, 3, 57, 105
9, 362496, Note_on_c, 3, 57, 0
9, 362520, Note_on_c, 3, 57, 105
9, 362616, Note_on_c, 3, 57, 0
9, 362640, Note_on_c, 3, 57, 105
9, 362736, Note_on_c, 3, 57, 0
9, 362760, Note_on_c, 3, 57, 105
9, 362856, Note_on_c, 3, 57, 0
9, 362880, Note_on_c, 3, 55, 105
9, 362976, Note_on_c, 3, 55, 0
9, 363000, Note_on_c, 3, 55, 105
9, 363096, Note_on_c, 3, 55, 0
9, 363120, Note_on_c, 3, 55, 105
9, 363216, Note_on_c, 3, 55, 0
9, 363240, Note_on_c, 3, 55, 105
9, 363336, Note_on_c, 3, 55, 0
9, 363360, Note_on_c, 3, 55, 105
9, 363456, Note_on_c, 3, 55, 0
9, 363480, Note_on_c, 3, 55, 105
9, 363576, Note_on_c, 3, 55, 0
9, 363600, Note_on_c, 3, 55, 105
9, 363696, Note_on_c, 3, 55, 0
9, 363720, Note_on_c, 3, 55, 105
9, 363816, Note_on_c, 3, 55, 0
9, 363840, Note_on_c, 3, 55, 105
9, 363936, Note_on_c, 3, 55, 0
9, 363960, Note_on_c, 3, 55, 105
9, 364056, Note_on_c, 3, 55, 0
9, 364080, Note_on_c, 3, 55, 105
9, 364176, Note_on_c, 3, 55, 0
9, 364200, Note_on_c, 3, 55, 105
9, 364296, Note_on_c, 3, 55, 0
9, 364320, Note_on_c, 3, 55, 105
9, 364416, Note_on_c, 3, 55, 0
9, 364440, Note_on_c, 3, 55, 105
9, 364536, Note_on_c, 3, 55, 0
9, 364560, Note_on_c, 3, 55, 105
9, 364656, Note_on_c, 3, 55, 0
9, 364680, Note_on_c, 3, 55, 105
9, 364776, Note_on_c, 3, 55, 0
9, 364800, Note_on_c, 3, 55, 105
9, 364896, Note_on_c, 3, 55, 0
9, 364920, Note_on_c, 3, 55, 105
9, 365016, Note_on_c, 3, 55, 0
9, 365040, Note_on_c, 3, 55, 105
9, 365136, Note_on_c, 3, 55, 0
9, 365160, Note_on_c, 3, 55, 105
9, 365256, Note_on_c, 3, 55, 0
9, 365280, Note_on_c, 3, 55, 105
9, 365376, Note_on_c, 3, 55, 0
9, 365400, Note_on_c, 3, 55, 105
9, 365496, Note_on_c, 3, 55, 0
9, 365520, Note_on_c, 3, 55, 105
9, 365616, Note_on_c, 3, 55, 0
9, 365640, Note_on_c, 3, 55, 105
9, 365736, Note_on_c, 3, 55, 0
9, 365760, Note_on_c, 3, 55, 105
9, 365856, Note_on_c, 3, 55, 0
9, 365880, Note_on_c, 3, 55, 105
9, 365976, Note_on_c, 3, 55, 0
9, 366000, Note_on_c, 3, 55, 105
9, 366096, Note_on_c, 3, 55, 0
9, 366120, Note_on_c, 3, 55, 105
9, 366216, Note_on_c, 3, 55, 0
9, 366240, Note_on_c, 3, 57, 105
9, 366336, Note_on_c, 3, 57, 0
9, 366360, Note_on_c, 3, 57, 105
9, 366456, Note_on_c, 3, 57, 0
9, 366480, Note_on_c, 3, 57, 105
9, 366576, Note_on_c, 3, 57, 0
9, 366600, Note_on_c, 3, 57, 105
9, 366696, Note_on_c, 3, 57, 0
9, 366720, Note_on_c, 3, 55, 105
9, 366888, Note_on_c, 3, 55, 0
9, 366960, Note_on_c, 3, 59, 105
9, 367128, Note_on_c, 3, 59, 0
9, 367200, Note_on_c, 3, 62, 105
9, 367368, Note_on_c, 3, 62, 0
9, 367440, Note_on_c, 3, 67, 105
9, 367608, Note_on_c, 3, 67, 0
9, 367680, Note_on_c, 3, 71, 105
9, 367848, Note_on_c, 3, 71, 0
9, 367920, Note_on_c, 3, 67, 105
9, 368088, Note_on_c, 3, 67, 0
9, 368160, Note_on_c, 3, 74, 105
9, 368328, Note_on_c, 3, 74, 0
9, 368400, Note_on_c, 3, 71, 105
9, 368568, Note_on_c, 3, 71, 0
9, 368640, Note_on_c, 3, 67, 105
9, 368976, Note_on_c, 3, 67, 0
9, 369120, Note_on_c, 3, 55, 105
9, 369372, Note_on_c, 3, 55, 0
9, 369480, Note_on_c, 3, 55, 105
9, 369564, Note_on_c, 3, 55, 0
9, 369600, Note_on_c, 3, 55, 105
9, 369984, Note_on_c, 3, 55, 0
9, 369984, End_track
10, 0, Start_track
10, 0, Program_c, 4, 42
10, 0, Control_c, 4, 7, 81
10, 0, Control_c, 4, 10, 93
10, 0, Control_c, 4, 91, 85
10, 1920, Note_on_c, 4, 55, 105
10, 2304, Note_on_c, 4, 55, 0
10, 2640, Note_on_c, 4, 50, 105
10, 2784, Note_on_c, 4, 50, 0
10, 2880, Note_on_c, 4, 55, 105
10, 3264, Note_on_c, 4, 55, 0
10, 3600, Note_on_c, 4, 50, 105
10, 3744, Note_on_c, 4, 50, 0
10, 3840, Note_on_c, 4, 55, 105
10, 3984, Note_on_c, 4, 55, 0
10, 4080, Note_on_c, 4, 50, 105
10, 4224, Note_on_c, 4, 50, 0
10, 4320, Note_on_c, 4, 55, 105
10, 4464, Note_on_c, 4, 55, 0
10, 4560, Note_on_c, 4, 59, 105
10, 4704, Note_on_c, 4, 59, 0
10, 4800, Note_on_c, 4, 62, 105
10, 5184, Note_on_c, 4, 62, 0
10, 5760, Note_on_c, 4, 60, 105
10, 6144, Note_on_c, 4, 60, 0
10, 6480, Note_on_c, 4, 57, 105
10, 6624, Note_on_c, 4, 57, 0
10, 6720, Note_on_c, 4, 60, 105
10, 7104, Note_on_c, 4, 60, 0
10, 7440, Note_on_c, 4, 57, 105
10, 7584, Note_on_c, 4, 57, 0
10, 7680, Note_on_c, 4, 60, 105
10, 7824, Note_on_c, 4, 60, 0
10, 7920, Note_on_c, 4, 57, 105
10, 8064, Note_on_c, 4, 57, 0
10, 8160, Note_on_c, 4, 54, 105
10, 8304, Note_on_c, 4, 54, 0
10, 8400, Note_on_c, 4, 57, 105
10, 8544, Note_on_c, 4, 57, 0
10, 8640, Note_on_c, 4, 50, 105
10, 9024, Note_on_c, 4, 50, 0
10, 9600, Note_on_c, 4, 55, 105
10, 9756, Note_on_c, 4, 55, 0
10, 9840, Note_on_c, 4, 55, 105
10, 9996, Note_on_c, 4, 55, 0
10, 10080, Note_on_c, 4, 55, 105
10, 10236, Note_on_c, 4, 55, 0
10, 10320, Note_on_c, 4, 55, 105
10, 10476, Note_on_c, 4, 55, 0
10, 10560, Note_on_c, 4, 55, 105
10, 10716, Note_on_c, 4, 55, 0
10, 10800, Note_on_c, 4, 55, 105
10, 10956, Note_on_c, 4, 55, 0
10, 11040, Note_on_c, 4, 55, 105
10, 11196, Note_on_c, 4, 55, 0
10, 11280, Note_on_c, 4, 55, 105
10, 11436, Note_on_c, 4, 55, 0
10, 11520, Note_on_c, 4, 55, 105
10, 11676, Note_on_c, 4, 55, 0
10, 11760, Note_on_c, 4, 55, 105
10, 11916, Note_on_c, 4, 55, 0
10, 12000, Note_on_c, 4, 55, 105
10, 12156, Note_on_c, 4, 55, 0
10, 12240, Note_on_c, 4, 55, 105
10, 12396, Note_on_c, 4, 55, 0
10, 12480, Note_on_c, 4, 55, 105
10, 12636, Note_on_c, 4, 55, 0
10, 12720, Note_on_c, 4, 55, 105
10, 12876, Note_on_c, 4, 55, 0
10, 12960, Note_on_c, 4, 55, 105
10, 13116, Note_on_c, 4, 55, 0
10, 13200, Note_on_c, 4, 55, 105
10, 13356, Note_on_c, 4, 55, 0
10, 13440, Note_on_c, 4, 55, 105
10, 13596, Note_on_c, 4, 55, 0
10, 13680, Note_on_c, 4, 55, 105
10, 13836, Note_on_c, 4, 55, 0
10, 13920, Note_on_c, 4, 55, 105
10, 14076, Note_on_c, 4, 55, 0
10, 14160, Note_on_c, 4, 55, 105
10, 14316, Note_on_c, 4, 55, 0
10, 14400, Note_on_c, 4, 55, 105
10, 14556, Note_on_c, 4, 55, 0
10, 14640, Note_on_c, 4, 55, 105
10, 14796, Note_on_c, 4, 55, 0
10, 14880, Note_on_c, 4, 55, 105
10, 15036, Note_on_c, 4, 55, 0
10, 15120, Note_on_c, 4, 55, 105
10, 15276, Note_on_c, 4, 55, 0
10, 15360, Note_on_c, 4, 55, 105
10, 15516, Note_on_c, 4, 55, 0
10, 15600, Note_on_c, 4, 55, 105
10, 15756, Note_on_c, 4, 55, 0
10, 15840, Note_on_c, 4, 55, 105
10, 15996, Note_on_c, 4, 55, 0
10, 16080, Note_on_c, 4, 55, 105
10, 16236, Note_on_c, 4, 55, 0
10, 16320, Note_on_c, 4, 55, 105
10, 16476, Note_on_c, 4, 55, 0
10, 16560, Note_on_c, 4, 55, 105
10, 16716, Note_on_c, 4, 55, 0
10, 16800, Note_on_c, 4, 55, 105
10, 16956, Note_on_c, 4, 55, 0
10, 17040, Note_on_c, 4, 55, 105
10, 17196, Note_on_c, 4, 55, 0
10, 17280, Note_on_c, 4, 55, 105
10, 17436, Note_on_c, 4, 55, 0
10, 17520, Note_on_c, 4, 55, 105
10, 17676, Note_on_c, 4, 55, 0
10, 17760, Note_on_c, 4, 57, 105
10, 17916, Note_on_c, 4, 57, 0
10, 18000, Note_on_c, 4, 57, 105
10, 18156, Note_on_c, 4, 57, 0
10, 18240, Note_on_c, 4, 59, 105
10, 18396, Note_on_c, 4, 59, 0
10, 18480, Note_on_c, 4, 59, 105
10, 18636, Note_on_c, 4, 59, 0
10, 18720, Note_on_c, 4, 54, 105
10, 18876, Note_on_c, 4, 54, 0
10, 18960, Note_on_c, 4, 54, 105
10, 19116, Note_on_c, 4, 54, 0
10, 19200, Note_on_c, 4, 55, 105
10, 19356, Note_on_c, 4, 55, 0
10, 19440, Note_on_c, 4, 55, 105
10, 19596, Note_on_c, 4, 55, 0
10, 19680, Note_on_c, 4, 57, 105
10, 19836, Note_on_c, 4, 57, 0
10, 19920, Note_on_c, 4, 57, 105
10, 20076, Note_on_c, 4, 57, 0
10, 20160, Note_on_c, 4, 59, 92
10, 20544, Note_on_c, 4, 59, 0
10, 23040, Note_on_c, 4, 50, 58
10, 24000, Note_on_c, 4, 50, 0
10, 24000, Note_on_c, 4, 52, 58
10, 24768, Note_on_c, 4, 52, 0
10, 24960, Note_on_c, 4, 48, 58
10, 25272, Note_on_c, 4, 48, 0
10, 25440, Note_on_c, 4, 48, 58
10, 25752, Note_on_c, 4, 48, 0
10, 25920, Note_on_c, 4, 50, 58
10, 26232, Note_on_c, 4, 50, 0
10, 26400, Note_on_c, 4, 50, 58
10, 26712, Note_on_c, 4, 50, 0
10, 26880, Note_on_c, 4, 47, 58
10, 27072, Note_on_c, 4, 47, 0
10, 27360, Note_on_c, 4, 50, 58
10, 27552, Note_on_c, 4, 50, 0
10, 27840, Note_on_c, 4, 55, 58
10, 28224, Note_on_c, 4, 55, 0
10, 30720, Note_on_c, 4, 50, 58
10, 31680, Note_on_c, 4, 50, 0
10, 31680, Note_on_c, 4, 52, 58
10, 32448, Note_on_c, 4, 52, 0
10, 32640, Note_on_c, 4, 48, 58
10, 32952, Note_on_c, 4, 48, 0
10, 33120, Note_on_c, 4, 48, 58
10, 33432, Note_on_c, 4, 48, 0
10, 33600, Note_on_c, 4, 50, 58
10, 33912, Note_on_c, 4, 50, 0
10, 34080, Note_on_c, 4, 50, 58
10, 34392, Note_on_c, 4, 50, 0
10, 34560, Note_on_c, 4, 55, 112
10, 34752, Note_on_c, 4, 55, 0
10, 34800, Note_on_c, 4, 55, 92
10, 34992, Note_on_c, 4, 55, 0
10, 35040, Note_on_c, 4, 55, 92
10, 35232, Note_on_c, 4, 55, 0
10, 35280, Note_on_c, 4, 55, 92
10, 35472, Note_on_c, 4, 55, 0
10, 35520, Note_on_c, 4, 55, 58
10, 35712, Note_on_c, 4, 55, 0
10, 35760, Note_on_c, 4, 55, 58
10, 35952, Note_on_c, 4, 55, 0
10, 36000, Note_on_c, 4, 55, 58
10, 36192, Note_on_c, 4, 55, 0
10, 36240, Note_on_c, 4, 55, 58
10, 36432, Note_on_c, 4, 55, 0
10, 36480, Note_on_c, 4, 55, 112
10, 36672, Note_on_c, 4, 55, 0
10, 36720, Note_on_c, 4, 55, 92
10, 36912, Note_on_c, 4, 55, 0
10, 36960, Note_on_c, 4, 55, 92
10, 37152, Note_on_c, 4, 55, 0
10, 37200, Note_on_c, 4, 55, 92
10, 37392, Note_on_c, 4, 55, 0
10, 37440, Note_on_c, 4, 55, 58
10, 37632, Note_on_c, 4, 55, 0
10, 37680, Note_on_c, 4, 55, 58
10, 37872, Note_on_c, 4, 55, 0
10, 37920, Note_on_c, 4, 55, 58
10, 38112, Note_on_c, 4, 55, 0
10, 38160, Note_on_c, 4, 55, 58
10, 38352, Note_on_c, 4, 55, 0
10, 38400, Note_on_c, 4, 55, 58
10, 38592, Note_on_c, 4, 55, 0
10, 38640, Note_on_c, 4, 55, 58
10, 38832, Note_on_c, 4, 55, 0
10, 38880, Note_on_c, 4, 55, 58
10, 39072, Note_on_c, 4, 55, 0
10, 39120, Note_on_c, 4, 55, 58
10, 39312, Note_on_c, 4, 55, 0
10, 39360, Note_on_c, 4, 55, 58
10, 39552, Note_on_c, 4, 55, 0
10, 39600, Note_on_c, 4, 55, 72
10, 39792, Note_on_c, 4, 55, 0
10, 39840, Note_on_c, 4, 55, 72
10, 40032, Note_on_c, 4, 55, 0
10, 40080, Note_on_c, 4, 55, 72
10, 40272, Note_on_c, 4, 55, 0
10, 40320, Note_on_c, 4, 55, 72
10, 40512, Note_on_c, 4, 55, 0
10, 40560, Note_on_c, 4, 55, 81
10, 40752, Note_on_c, 4, 55, 0
10, 40800, Note_on_c, 4, 54, 81
10, 40992, Note_on_c, 4, 54, 0
10, 41040, Note_on_c, 4, 54, 81
10, 41232, Note_on_c, 4, 54, 0
10, 41280, Note_on_c, 4, 55, 92
10, 41472, Note_on_c, 4, 55, 0
10, 41520, Note_on_c, 4, 55, 92
10, 41712, Note_on_c, 4, 55, 0
10, 41760, Note_on_c, 4, 52, 105
10, 41952, Note_on_c, 4, 52, 0
10, 42000, Note_on_c, 4, 52, 105
10, 42192, Note_on_c, 4, 52, 0
10, 42240, Note_on_c, 4, 50, 105
10, 42432, Note_on_c, 4, 50, 0
10, 42480, Note_on_c, 4, 50, 105
10, 42672, Note_on_c, 4, 50, 0
10, 42720, Note_on_c, 4, 50, 105
10, 42912, Note_on_c, 4, 50, 0
10, 42960, Note_on_c, 4, 50, 105
10, 43152, Note_on_c, 4, 50, 0
10, 43200, Note_on_c, 4, 50, 105
10, 43392, Note_on_c, 4, 50, 0
10, 43440, Note_on_c, 4, 50, 105
10, 43632, Note_on_c, 4, 50, 0
10, 43680, Note_on_c, 4, 50, 105
10, 43872, Note_on_c, 4, 50, 0
10, 43920, Note_on_c, 4, 50, 105
10, 44112, Note_on_c, 4, 50, 0
10, 44160, Note_on_c, 4, 50, 105
10, 44352, Note_on_c, 4, 50, 0
10, 44400, Note_on_c, 4, 50, 105
10, 44592, Note_on_c, 4, 50, 0
10, 44640, Note_on_c, 4, 50, 105
10, 44832, Note_on_c, 4, 50, 0
10, 44880, Note_on_c, 4, 50, 105
10, 45072, Note_on_c, 4, 50, 0
10, 45120, Note_on_c, 4, 50, 105
10, 45312, Note_on_c, 4, 50, 0
10, 45360, Note_on_c, 4, 50, 105
10, 45552, Note_on_c, 4, 50, 0
10, 45600, Note_on_c, 4, 50, 105
10, 45792, Note_on_c, 4, 50, 0
10, 45840, Note_on_c, 4, 50, 105
10, 46032, Note_on_c, 4, 50, 0
10, 46080, Note_on_c, 4, 50, 105
10, 46236, Note_on_c, 4, 50, 0
10, 46320, Note_on_c, 4, 52, 105
10, 46476, Note_on_c, 4, 52, 0
10, 46560, Note_on_c, 4, 54, 105
10, 46716, Note_on_c, 4, 54, 0
10, 46800, Note_on_c, 4, 52, 105
10, 46956, Note_on_c, 4, 52, 0
10, 47040, Note_on_c, 4, 50, 105
10, 47196, Note_on_c, 4, 50, 0
10, 47280, Note_on_c, 4, 52, 105
10, 47436, Note_on_c, 4, 52, 0
10, 47520, Note_on_c, 4, 54, 105
10, 47676, Note_on_c, 4, 54, 0
10, 47760, Note_on_c, 4, 50, 105
10, 47916, Note_on_c, 4, 50, 0
10, 48000, Note_on_c, 4, 55, 105
10, 48156, Note_on_c, 4, 55, 0
10, 48240, Note_on_c, 4, 57, 105
10, 48396, Note_on_c, 4, 57, 0
10, 48480, Note_on_c, 4, 59, 105
10, 48636, Note_on_c, 4, 59, 0
10, 48720, Note_on_c, 4, 57, 105
10, 48876, Note_on_c, 4, 57, 0
10, 48960, Note_on_c, 4, 55, 105
10, 49116, Note_on_c, 4, 55, 0
10, 49200, Note_on_c, 4, 57, 105
10, 49356, Note_on_c, 4, 57, 0
10, 49440, Note_on_c, 4, 59, 105
10, 49596, Note_on_c, 4, 59, 0
10, 49680, Note_on_c, 4, 56, 105
10, 49836, Note_on_c, 4, 56, 0
10, 49920, Note_on_c, 4, 57, 105
10, 50076, Note_on_c, 4, 57, 0
10, 50160, Note_on_c, 4, 57, 105
10, 50316, Note_on_c, 4, 57, 0
10, 50400, Note_on_c, 4, 57, 105
10, 50556, Note_on_c, 4, 57, 0
10, 50640, Note_on_c, 4, 57, 105
10, 50796, Note_on_c, 4, 57, 0
10, 50880, Note_on_c, 4, 57, 105
10, 51036, Note_on_c, 4, 57, 0
10, 51120, Note_on_c, 4, 57, 105
10, 51276, Note_on_c, 4, 57, 0
10, 51360, Note_on_c, 4, 57, 105
10, 51516, Note_on_c, 4, 57, 0
10, 51600, Note_on_c, 4, 57, 105
10, 51756, Note_on_c, 4, 57, 0
10, 51840, Note_on_c, 4, 57, 105
10, 51996, Note_on_c, 4, 57, 0
10, 52080, Note_on_c, 4, 45, 105
10, 52236, Note_on_c, 4, 45, 0
10, 52320, Note_on_c, 4, 45, 105
10, 52476, Note_on_c, 4, 45, 0
10, 52560, Note_on_c, 4, 45, 105
10, 52716, Note_on_c, 4, 45, 0
10, 52800, Note_on_c, 4, 45, 92
10, 53184, Note_on_c, 4, 45, 0
10, 55200, Note_on_c, 4, 51, 58
10, 55392, Note_on_c, 4, 51, 0
10, 55680, Note_on_c, 4, 52, 58
10, 55872, Note_on_c, 4, 52, 0
10, 56160, Note_on_c, 4, 50, 58
10, 56352, Note_on_c, 4, 50, 0
10, 56640, Note_on_c, 4, 49, 58
10, 56832, Note_on_c, 4, 49, 0
10, 57120, Note_on_c, 4, 45, 58
10, 57312, Note_on_c, 4, 45, 0
10, 58080, Note_on_c, 4, 46, 58
10, 58464, Note_on_c, 4, 46, 0
10, 58560, Note_on_c, 4, 47, 58
10, 58752, Note_on_c, 4, 47, 0
10, 59040, Note_on_c, 4, 43, 58
10, 59232, Note_on_c, 4, 43, 0
10, 59520, Note_on_c, 4, 45, 58
10, 59904, Note_on_c, 4, 45, 0
10, 60000, Note_on_c, 4, 57, 78
10, 60720, Note_on_c, 4, 57, 0
10, 60720, Note_on_c, 4, 56, 58
10, 60960, Note_on_c, 4, 56, 0
10, 60960, Note_on_c, 4, 55, 58
10, 61200, Note_on_c, 4, 55, 0
10, 61200, Note_on_c, 4, 52, 58
10, 61440, Note_on_c, 4, 52, 0
10, 61440, Note_on_c, 4, 50, 58
10, 61632, Note_on_c, 4, 50, 0
10, 61920, Note_on_c, 4, 52, 58
10, 62112, Note_on_c, 4, 52, 0
10, 62400, Note_on_c, 4, 54, 58
10, 62592, Note_on_c, 4, 54, 0
10, 62880, Note_on_c, 4, 51, 58
10, 63072, Note_on_c, 4, 51, 0
10, 63360, Note_on_c, 4, 52, 58
10, 63552, Note_on_c, 4, 52, 0
10, 63840, Note_on_c, 4, 50, 58
10, 64032, Note_on_c, 4, 50, 0
10, 64320, Note_on_c, 4, 49, 58
10, 64512, Note_on_c, 4, 49, 0
10, 64800, Note_on_c, 4, 45, 58
10, 64992, Note_on_c, 4, 45, 0
10, 65280, Note_on_c, 4, 47, 58
10, 65472, Note_on_c, 4, 47, 0
10, 65760, Note_on_c, 4, 55, 58
10, 65952, Note_on_c, 4, 55, 0
10, 66240, Note_on_c, 4, 57, 58
10, 66432, Note_on_c, 4, 57, 0
10, 66720, Note_on_c, 4, 45, 58
10, 66912, Note_on_c, 4, 45, 0
10, 67200, Note_on_c, 4, 50, 58
10, 67584, Note_on_c, 4, 50, 0
10, 69120, Note_on_c, 4, 45, 58
10, 69504, Note_on_c, 4, 45, 0
10, 71040, Note_on_c, 4, 50, 58
10, 71424, Note_on_c, 4, 50, 0
10, 72960, Note_on_c, 4, 45, 58
10, 73344, Note_on_c, 4, 45, 0
10, 75120, Note_on_c, 4, 50, 105
10, 75276, Note_on_c, 4, 50, 0
10, 75360, Note_on_c, 4, 54, 105
10, 75516, Note_on_c, 4, 54, 0
10, 75600, Note_on_c, 4, 52, 105
10, 75756, Note_on_c, 4, 52, 0
10, 75840, Note_on_c, 4, 51, 105
10, 75996, Note_on_c, 4, 51, 0
10, 76080, Note_on_c, 4, 47, 105
10, 76236, Note_on_c, 4, 47, 0
10, 76320, Note_on_c, 4, 49, 105
10, 76476, Note_on_c, 4, 49, 0
10, 76560, Note_on_c, 4, 51, 105
10, 76716, Note_on_c, 4, 51, 0
10, 76800, Note_on_c, 4, 52, 105
10, 76956, Note_on_c, 4, 52, 0
10, 77040, Note_on_c, 4, 55, 105
10, 77196, Note_on_c, 4, 55, 0
10, 77280, Note_on_c, 4, 52, 105
10, 77436, Note_on_c, 4, 52, 0
10, 77520, Note_on_c, 4, 50, 105
10, 77676, Note_on_c, 4, 50, 0
10, 77760, Note_on_c, 4, 49, 105
10, 77916, Note_on_c, 4, 49, 0
10, 78000, Note_on_c, 4, 45, 105
10, 78156, Note_on_c, 4, 45, 0
10, 78240, Note_on_c, 4, 47, 105
10, 78396, Note_on_c, 4, 47, 0
10, 78480, Note_on_c, 4, 49, 105
10, 78636, Note_on_c, 4, 49, 0
10, 78720, Note_on_c, 4, 50, 105
10, 78876, Note_on_c, 4, 50, 0
10, 78960, Note_on_c, 4, 50, 105
10, 79116, Note_on_c, 4, 50, 0
10, 79200, Note_on_c, 4, 52, 105
10, 79356, Note_on_c, 4, 52, 0
10, 79440, Note_on_c, 4, 54, 105
10, 79596, Note_on_c, 4, 54, 0
10, 79680, Note_on_c, 4, 55, 105
10, 79836, Note_on_c, 4, 55, 0
10, 79920, Note_on_c, 4, 55, 105
10, 80076, Note_on_c, 4, 55, 0
10, 80160, Note_on_c, 4, 55, 105
10, 80316, Note_on_c, 4, 55, 0
10, 80400, Note_on_c, 4, 55, 105
10, 80556, Note_on_c, 4, 55, 0
10, 80640, Note_on_c, 4, 57, 105
10, 80796, Note_on_c, 4, 57, 0
10, 80880, Note_on_c, 4, 57, 105
10, 81036, Note_on_c, 4, 57, 0
10, 81120, Note_on_c, 4, 57, 105
10, 81276, Note_on_c, 4, 57, 0
10, 81360, Note_on_c, 4, 57, 105
10, 81516, Note_on_c, 4, 57, 0
10, 81600, Note_on_c, 4, 45, 105
10, 81756, Note_on_c, 4, 45, 0
10, 81840, Note_on_c, 4, 45, 105
10, 81996, Note_on_c, 4, 45, 0
10, 82080, Note_on_c, 4, 45, 105
10, 82236, Note_on_c, 4, 45, 0
10, 82320, Note_on_c, 4, 45, 105
10, 82476, Note_on_c, 4, 45, 0
10, 82560, Note_on_c, 4, 50, 92
10, 82944, Note_on_c, 4, 50, 0
10, 84480, Note_on_c, 4, 45, 58
10, 84864, Note_on_c, 4, 45, 0
10, 86400, Note_on_c, 4, 50, 58
10, 86784, Note_on_c, 4, 50, 0
10, 88320, Note_on_c, 4, 45, 58
10, 88704, Note_on_c, 4, 45, 0
10, 90480, Note_on_c, 4, 50, 105
10, 90636, Note_on_c, 4, 50, 0
10, 90720, Note_on_c, 4, 54, 105
10, 90876, Note_on_c, 4, 54, 0
10, 90960, Note_on_c, 4, 52, 105
10, 91116, Note_on_c, 4, 52, 0
10, 91200, Note_on_c, 4, 51, 105
10, 91356, Note_on_c, 4, 51, 0
10, 91440, Note_on_c, 4, 47, 105
10, 91596, Note_on_c, 4, 47, 0
10, 91680, Note_on_c, 4, 49, 105
10, 91836, Note_on_c, 4, 49, 0
10, 91920, Note_on_c, 4, 51, 105
10, 92076, Note_on_c, 4, 51, 0
10, 92160, Note_on_c, 4, 52, 105
10, 92316, Note_on_c, 4, 52, 0
10, 92400, Note_on_c, 4, 55, 105
10, 92556, Note_on_c, 4, 55, 0
10, 92640, Note_on_c, 4, 52, 105
10, 92796, Note_on_c, 4, 52, 0
10, 92880, Note_on_c, 4, 50, 105
10, 93036, Note_on_c, 4, 50, 0
10, 93120, Note_on_c, 4, 49, 105
10, 93276, Note_on_c, 4, 49, 0
10, 93360, Note_on_c, 4, 45, 105
10, 93516, Note_on_c, 4, 45, 0
10, 93600, Note_on_c, 4, 47, 105
10, 93756, Note_on_c, 4, 47, 0
10, 93840, Note_on_c, 4, 49, 105
10, 93996, Note_on_c, 4, 49, 0
10, 94080, Note_on_c, 4, 50, 105
10, 94236, Note_on_c, 4, 50, 0
10, 94320, Note_on_c, 4, 50, 105
10, 94476, Note_on_c, 4, 50, 0
10, 94560, Note_on_c, 4, 52, 105
10, 94716, Note_on_c, 4, 52, 0
10, 94800, Note_on_c, 4, 54, 105
10, 94956, Note_on_c, 4, 54, 0
10, 95040, Note_on_c, 4, 55, 105
10, 95196, Note_on_c, 4, 55, 0
10, 95280, Note_on_c, 4, 55, 105
10, 95436, Note_on_c, 4, 55, 0
10, 95520, Note_on_c, 4, 55, 105
10, 95676, Note_on_c, 4, 55, 0
10, 95760, Note_on_c, 4, 55, 105
10, 95916, Note_on_c, 4, 55, 0
10, 96000, Note_on_c, 4, 57, 105
10, 96156, Note_on_c, 4, 57, 0
10, 96240, Note_on_c, 4, 57, 105
10, 96396, Note_on_c, 4, 57, 0
10, 96480, Note_on_c, 4, 57, 105
10, 96636, Note_on_c, 4, 57, 0
10, 96720, Note_on_c, 4, 57, 105
10, 96876, Note_on_c, 4, 57, 0
10, 96960, Note_on_c, 4, 45, 105
10, 97116, Note_on_c, 4, 45, 0
10, 97200, Note_on_c, 4, 45, 105
10, 97356, Note_on_c, 4, 45, 0
10, 97440, Note_on_c, 4, 45, 105
10, 97596, Note_on_c, 4, 45, 0
10, 97680, Note_on_c, 4, 45, 105
10, 97836, Note_on_c, 4, 45, 0
10, 97920, Note_on_c, 4, 50, 105
10, 98076, Note_on_c, 4, 50, 0
10, 98160, Note_on_c, 4, 45, 105
10, 98316, Note_on_c, 4, 45, 0
10, 98400, Note_on_c, 4, 47, 105
10, 98556, Note_on_c, 4, 47, 0
10, 98640, Note_on_c, 4, 49, 105
10, 98796, Note_on_c, 4, 49, 0
10, 98880, Note_on_c, 4, 50, 105
10, 99036, Note_on_c, 4, 50, 0
10, 99120, Note_on_c, 4, 50, 105
10, 99276, Note_on_c, 4, 50, 0
10, 99360, Note_on_c, 4, 52, 105
10, 99516, Note_on_c, 4, 52, 0
10, 99600, Note_on_c, 4, 52, 105
10, 99756, Note_on_c, 4, 52, 0
10, 99840, Note_on_c, 4, 54, 105
10, 99996, Note_on_c, 4, 54, 0
10, 100080, Note_on_c, 4, 49, 105
10, 100236, Note_on_c, 4, 49, 0
10, 100320, Note_on_c, 4, 50, 105
10, 100476, Note_on_c, 4, 50, 0
10, 100560, Note_on_c, 4, 52, 105
10, 100716, Note_on_c, 4, 52, 0
10, 100800, Note_on_c, 4, 54, 105
10, 100956, Note_on_c, 4, 54, 0
10, 101040, Note_on_c, 4, 54, 105
10, 101196, Note_on_c, 4, 54, 0
10, 101280, Note_on_c, 4, 55, 105
10, 101436, Note_on_c, 4, 55, 0
10, 101520, Note_on_c, 4, 55, 105
10, 101676, Note_on_c, 4, 55, 0
10, 101760, Note_on_c, 4, 57, 105
10, 101916, Note_on_c, 4, 57, 0
10, 102000, Note_on_c, 4, 57, 105
10, 102156, Note_on_c, 4, 57, 0
10, 102240, Note_on_c, 4, 58, 105
10, 102396, Note_on_c, 4, 58, 0
10, 102480, Note_on_c, 4, 58, 105
10, 102636, Note_on_c, 4, 58, 0
10, 102720, Note_on_c, 4, 59, 92
10, 103104, Note_on_c, 4, 59, 0
10, 103680, Note_on_c, 4, 55, 58
10, 104640, Note_on_c, 4, 55, 0
10, 104640, Note_on_c, 4, 57, 58
10, 105552, Note_on_c, 4, 57, 0
10, 105600, Note_on_c, 4, 50, 58
10, 105792, Note_on_c, 4, 50, 0
10, 106080, Note_on_c, 4, 50, 58
10, 106272, Note_on_c, 4, 50, 0
10, 106560, Note_on_c, 4, 50, 58
10, 106752, Note_on_c, 4, 50, 0
10, 107520, Note_on_c, 4, 55, 105
10, 107904, Note_on_c, 4, 55, 0
10, 108240, Note_on_c, 4, 50, 105
10, 108384, Note_on_c, 4, 50, 0
10, 108480, Note_on_c, 4, 55, 105
10, 108864, Note_on_c, 4, 55, 0
10, 109200, Note_on_c, 4, 50, 105
10, 109344, Note_on_c, 4, 50, 0
10, 109440, Note_on_c, 4, 55, 105
10, 109584, Note_on_c, 4, 55, 0
10, 109680, Note_on_c, 4, 50, 105
10, 109824, Note_on_c, 4, 50, 0
10, 109920, Note_on_c, 4, 55, 105
10, 110064, Note_on_c, 4, 55, 0
10, 110160, Note_on_c, 4, 59, 105
10, 110304, Note_on_c, 4, 59, 0
10, 110400, Note_on_c, 4, 62, 105
10, 110784, Note_on_c, 4, 62, 0
10, 111360, Note_on_c, 4, 60, 105
10, 111744, Note_on_c, 4, 60, 0
10, 112080, Note_on_c, 4, 57, 105
10, 112224, Note_on_c, 4, 57, 0
10, 112320, Note_on_c, 4, 60, 105
10, 112704, Note_on_c, 4, 60, 0
10, 113040, Note_on_c, 4, 57, 105
10, 113184, Note_on_c, 4, 57, 0
10, 113280, Note_on_c, 4, 60, 105
10, 113424, Note_on_c, 4, 60, 0
10, 113520, Note_on_c, 4, 57, 105
10, 113664, Note_on_c, 4, 57, 0
10, 113760, Note_on_c, 4, 54, 105
10, 113904, Note_on_c, 4, 54, 0
10, 114000, Note_on_c, 4, 57, 105
10, 114144, Note_on_c, 4, 57, 0
10, 114240, Note_on_c, 4, 50, 105
10, 114624, Note_on_c, 4, 50, 0
10, 115200, Note_on_c, 4, 55, 105
10, 115356, Note_on_c, 4, 55, 0
10, 115440, Note_on_c, 4, 55, 105
10, 115596, Note_on_c, 4, 55, 0
10, 115680, Note_on_c, 4, 55, 105
10, 115836, Note_on_c, 4, 55, 0
10, 115920, Note_on_c, 4, 55, 105
10, 116076, Note_on_c, 4, 55, 0
10, 116160, Note_on_c, 4, 55, 105
10, 116316, Note_on_c, 4, 55, 0
10, 116400, Note_on_c, 4, 55, 105
10, 116556, Note_on_c, 4, 55, 0
10, 116640, Note_on_c, 4, 55, 105
10, 116796, Note_on_c, 4, 55, 0
10, 116880, Note_on_c, 4, 55, 105
10, 117036, Note_on_c, 4, 55, 0
10, 117120, Note_on_c, 4, 55, 105
10, 117276, Note_on_c, 4, 55, 0
10, 117360, Note_on_c, 4, 55, 105
10, 117516, Note_on_c, 4, 55, 0
10, 117600, Note_on_c, 4, 55, 105
10, 117756, Note_on_c, 4, 55, 0
10, 117840, Note_on_c, 4, 55, 105
10, 117996, Note_on_c, 4, 55, 0
10, 118080, Note_on_c, 4, 55, 105
10, 118236, Note_on_c, 4, 55, 0
10, 118320, Note_on_c, 4, 55, 105
10, 118476, Note_on_c, 4, 55, 0
10, 118560, Note_on_c, 4, 55, 105
10, 118716, Note_on_c, 4, 55, 0
10, 118800, Note_on_c, 4, 55, 105
10, 118956, Note_on_c, 4, 55, 0
10, 119040, Note_on_c, 4, 55, 105
10, 119196, Note_on_c, 4, 55, 0
10, 119280, Note_on_c, 4, 55, 105
10, 119436, Note_on_c, 4, 55, 0
10, 119520, Note_on_c, 4, 55, 105
10, 119676, Note_on_c, 4, 55, 0
10, 119760, Note_on_c, 4, 55, 105
10, 119916, Note_on_c, 4, 55, 0
10, 120000, Note_on_c, 4, 55, 105
10, 120156, Note_on_c, 4, 55, 0
10, 120240, Note_on_c, 4, 55, 105
10, 120396, Note_on_c, 4, 55, 0
10, 120480, Note_on_c, 4, 55, 105
10, 120636, Note_on_c, 4, 55, 0
10, 120720, Note_on_c, 4, 55, 105
10, 120876, Note_on_c, 4, 55, 0
10, 120960, Note_on_c, 4, 55, 105
10, 121116, Note_on_c, 4, 55, 0
10, 121200, Note_on_c, 4, 55, 105
10, 121356, Note_on_c, 4, 55, 0
10, 121440, Note_on_c, 4, 55, 105
10, 121596, Note_on_c, 4, 55, 0
10, 121680, Note_on_c, 4, 55, 105
10, 121836, Note_on_c, 4, 55, 0
10, 121920, Note_on_c, 4, 55, 105
10, 122076, Note_on_c, 4, 55, 0
10, 122160, Note_on_c, 4, 55, 105
10, 122316, Note_on_c, 4, 55, 0
10, 122400, Note_on_c, 4, 55, 105
10, 122556, Note_on_c, 4, 55, 0
10, 122640, Note_on_c, 4, 55, 105
10, 122796, Note_on_c, 4, 55, 0
10, 122880, Note_on_c, 4, 55, 105
10, 123036, Note_on_c, 4, 55, 0
10, 123120, Note_on_c, 4, 55, 105
10, 123276, Note_on_c, 4, 55, 0
10, 123360, Note_on_c, 4, 57, 105
10, 123516, Note_on_c, 4, 57, 0
10, 123600, Note_on_c, 4, 57, 105
10, 123756, Note_on_c, 4, 57, 0
10, 123840, Note_on_c, 4, 59, 105
10, 123996, Note_on_c, 4, 59, 0
10, 124080, Note_on_c, 4, 59, 105
10, 124236, Note_on_c, 4, 59, 0
10, 124320, Note_on_c, 4, 54, 105
10, 124476, Note_on_c, 4, 54, 0
10, 124560, Note_on_c, 4, 54, 105
10, 124716, Note_on_c, 4, 54, 0
10, 124800, Note_on_c, 4, 55, 105
10, 124956, Note_on_c, 4, 55, 0
10, 125040, Note_on_c, 4, 55, 105
10, 125196, Note_on_c, 4, 55, 0
10, 125280, Note_on_c, 4, 57, 105
10, 125436, Note_on_c, 4, 57, 0
10, 125520, Note_on_c, 4, 57, 105
10, 125676, Note_on_c, 4, 57, 0
10, 125760, Note_on_c, 4, 59, 92
10, 126144, Note_on_c, 4, 59, 0
10, 128640, Note_on_c, 4, 50, 58
10, 129600, Note_on_c, 4, 50, 0
10, 129600, Note_on_c, 4, 52, 58
10, 130368, Note_on_c, 4, 52, 0
10, 130560, Note_on_c, 4, 48, 58
10, 130872, Note_on_c, 4, 48, 0
10, 131040, Note_on_c, 4, 48, 58
10, 131352, Note_on_c, 4, 48, 0
10, 131520, Note_on_c, 4, 50, 58
10, 131832, Note_on_c, 4, 50, 0
10, 132000, Note_on_c, 4, 50, 58
10, 132312, Note_on_c, 4, 50, 0
10, 132480, Note_on_c, 4, 47, 58
10, 132672, Note_on_c, 4, 47, 0
10, 132960, Note_on_c, 4, 50, 58
10, 133152, Note_on_c, 4, 50, 0
10, 133440, Note_on_c, 4, 55, 58
10, 133824, Note_on_c, 4, 55, 0
10, 136320, Note_on_c, 4, 50, 58
10, 137280, Note_on_c, 4, 50, 0
10, 137280, Note_on_c, 4, 52, 58
10, 138048, Note_on_c, 4, 52, 0
10, 138240, Note_on_c, 4, 48, 58
10, 138552, Note_on_c, 4, 48, 0
10, 138720, Note_on_c, 4, 48, 58
10, 139032, Note_on_c, 4, 48, 0
10, 139200, Note_on_c, 4, 50, 58
10, 139512, Note_on_c, 4, 50, 0
10, 139680, Note_on_c, 4, 50, 58
10, 139992, Note_on_c, 4, 50, 0
10, 140160, Note_on_c, 4, 55, 112
10, 140352, Note_on_c, 4, 55, 0
10, 140400, Note_on_c, 4, 55, 92
10, 140592, Note_on_c, 4, 55, 0
10, 140640, Note_on_c, 4, 55, 92
10, 140832, Note_on_c, 4, 55, 0
10, 140880, Note_on_c, 4, 55, 92
10, 141072, Note_on_c, 4, 55, 0
10, 141120, Note_on_c, 4, 55, 58
10, 141312, Note_on_c, 4, 55, 0
10, 141360, Note_on_c, 4, 55, 58
10, 141552, Note_on_c, 4, 55, 0
10, 141600, Note_on_c, 4, 55, 58
10, 141792, Note_on_c, 4, 55, 0
10, 141840, Note_on_c, 4, 55, 58
10, 142032, Note_on_c, 4, 55, 0
10, 142080, Note_on_c, 4, 55, 112
10, 142272, Note_on_c, 4, 55, 0
10, 142320, Note_on_c, 4, 55, 92
10, 142512, Note_on_c, 4, 55, 0
10, 142560, Note_on_c, 4, 55, 92
10, 142752, Note_on_c, 4, 55, 0
10, 142800, Note_on_c, 4, 55, 92
10, 142992, Note_on_c, 4, 55, 0
10, 143040, Note_on_c, 4, 55, 58
10, 143232, Note_on_c, 4, 55, 0
10, 143280, Note_on_c, 4, 55, 58
10, 143472, Note_on_c, 4, 55, 0
10, 143520, Note_on_c, 4, 55, 58
10, 143712, Note_on_c, 4, 55, 0
10, 143760, Note_on_c, 4, 55, 58
10, 143952, Note_on_c, 4, 55, 0
10, 144000, Note_on_c, 4, 55, 58
10, 144192, Note_on_c, 4, 55, 0
10, 144240, Note_on_c, 4, 55, 58
10, 144432, Note_on_c, 4, 55, 0
10, 144480, Note_on_c, 4, 55, 58
10, 144672, Note_on_c, 4, 55, 0
10, 144720, Note_on_c, 4, 55, 58
10, 144912, Note_on_c, 4, 55, 0
10, 144960, Note_on_c, 4, 55, 58
10, 145152, Note_on_c, 4, 55, 0
10, 145200, Note_on_c, 4, 55, 72
10, 145392, Note_on_c, 4, 55, 0
10, 145440, Note_on_c, 4, 55, 72
10, 145632, Note_on_c, 4, 55, 0
10, 145680, Note_on_c, 4, 55, 72
10, 145872, Note_on_c, 4, 55, 0
10, 145920, Note_on_c, 4, 55, 72
10, 146112, Note_on_c, 4, 55, 0
10, 146160, Note_on_c, 4, 55, 81
10, 146352, Note_on_c, 4, 55, 0
10, 146400, Note_on_c, 4, 54, 81
10, 146592, Note_on_c, 4, 54, 0
10, 146640, Note_on_c, 4, 54, 81
10, 146832, Note_on_c, 4, 54, 0
10, 146880, Note_on_c, 4, 55, 92
10, 147072, Note_on_c, 4, 55, 0
10, 147120, Note_on_c, 4, 55, 92
10, 147312, Note_on_c, 4, 55, 0
10, 147360, Note_on_c, 4, 52, 105
10, 147552, Note_on_c, 4, 52, 0
10, 147600, Note_on_c, 4, 52, 105
10, 147792, Note_on_c, 4, 52, 0
10, 147840, Note_on_c, 4, 50, 105
10, 148032, Note_on_c, 4, 50, 0
10, 148080, Note_on_c, 4, 50, 105
10, 148272, Note_on_c, 4, 50, 0
10, 148320, Note_on_c, 4, 50, 105
10, 148512, Note_on_c, 4, 50, 0
10, 148560, Note_on_c, 4, 50, 105
10, 148752, Note_on_c, 4, 50, 0
10, 148800, Note_on_c, 4, 50, 105
10, 148992, Note_on_c, 4, 50, 0
10, 149040, Note_on_c, 4, 50, 105
10, 149232, Note_on_c, 4, 50, 0
10, 149280, Note_on_c, 4, 50, 105
10, 149472, Note_on_c, 4, 50, 0
10, 149520, Note_on_c, 4, 50, 105
10, 149712, Note_on_c, 4, 50, 0
10, 149760, Note_on_c, 4, 50, 105
10, 149952, Note_on_c, 4, 50, 0
10, 150000, Note_on_c, 4, 50, 105
10, 150192, Note_on_c, 4, 50, 0
10, 150240, Note_on_c, 4, 50, 105
10, 150432, Note_on_c, 4, 50, 0
10, 150480, Note_on_c, 4, 50, 105
10, 150672, Note_on_c, 4, 50, 0
10, 150720, Note_on_c, 4, 50, 105
10, 150912, Note_on_c, 4, 50, 0
10, 150960, Note_on_c, 4, 50, 105
10, 151152, Note_on_c, 4, 50, 0
10, 151200, Note_on_c, 4, 50, 105
10, 151392, Note_on_c, 4, 50, 0
10, 151440, Note_on_c, 4, 50, 105
10, 151632, Note_on_c, 4, 50, 0
10, 151680, Note_on_c, 4, 50, 105
10, 151836, Note_on_c, 4, 50, 0
10, 151920, Note_on_c, 4, 52, 105
10, 152076, Note_on_c, 4, 52, 0
10, 152160, Note_on_c, 4, 54, 105
10, 152316, Note_on_c, 4, 54, 0
10, 152400, Note_on_c, 4, 52, 105
10, 152556, Note_on_c, 4, 52, 0
10, 152640, Note_on_c, 4, 50, 105
10, 152796, Note_on_c, 4, 50, 0
10, 152880, Note_on_c, 4, 52, 105
10, 153036, Note_on_c, 4, 52, 0
10, 153120, Note_on_c, 4, 54, 105
10, 153276, Note_on_c, 4, 54, 0
10, 153360, Note_on_c, 4, 50, 105
10, 153516, Note_on_c, 4, 50, 0
10, 153600, Note_on_c, 4, 55, 105
10, 153756, Note_on_c, 4, 55, 0
10, 153840, Note_on_c, 4, 57, 105
10, 153996, Note_on_c, 4, 57, 0
10, 154080, Note_on_c, 4, 59, 105
10, 154236, Note_on_c, 4, 59, 0
10, 154320, Note_on_c, 4, 57, 105
10, 154476, Note_on_c, 4, 57, 0
10, 154560, Note_on_c, 4, 55, 105
10, 154716, Note_on_c, 4, 55, 0
10, 154800, Note_on_c, 4, 57, 105
10, 154956, Note_on_c, 4, 57, 0
10, 155040, Note_on_c, 4, 59, 105
10, 155196, Note_on_c, 4, 59, 0
10, 155280, Note_on_c, 4, 56, 105
10, 155436, Note_on_c, 4, 56, 0
10, 155520, Note_on_c, 4, 57, 105
10, 155676, Note_on_c, 4, 57, 0
10, 155760, Note_on_c, 4, 57, 105
10, 155916, Note_on_c, 4, 57, 0
10, 156000, Note_on_c, 4, 57, 105
10, 156156, Note_on_c, 4, 57, 0
10, 156240, Note_on_c, 4, 57, 105
10, 156396, Note_on_c, 4, 57, 0
10, 156480, Note_on_c, 4, 57, 105
10, 156636, Note_on_c, 4, 57, 0
10, 156720, Note_on_c, 4, 57, 105
10, 156876, Note_on_c, 4, 57, 0
10, 156960, Note_on_c, 4, 57, 105
10, 157116, Note_on_c, 4, 57, 0
10, 157200, Note_on_c, 4, 57, 105
10, 157356, Note_on_c, 4, 57, 0
10, 157440, Note_on_c, 4, 57, 105
10, 157596, Note_on_c, 4, 57, 0
10, 157680, Note_on_c, 4, 45, 105
10, 157836, Note_on_c, 4, 45, 0
10, 157920, Note_on_c, 4, 45, 105
10, 158076, Note_on_c, 4, 45, 0
10, 158160, Note_on_c, 4, 45, 105
10, 158316, Note_on_c, 4, 45, 0
10, 158400, Note_on_c, 4, 45, 92
10, 158784, Note_on_c, 4, 45, 0
10, 160800, Note_on_c, 4, 51, 58
10, 160992, Note_on_c, 4, 51, 0
10, 161280, Note_on_c, 4, 52, 58
10, 161472, Note_on_c, 4, 52, 0
10, 161760, Note_on_c, 4, 50, 58
10, 161952, Note_on_c, 4, 50, 0
10, 162240, Note_on_c, 4, 49, 58
10, 162432, Note_on_c, 4, 49, 0
10, 162720, Note_on_c, 4, 45, 58
10, 162912, Note_on_c, 4, 45, 0
10, 163680, Note_on_c, 4, 46, 58
10, 164064, Note_on_c, 4, 46, 0
10, 164160, Note_on_c, 4, 47, 58
10, 164352, Note_on_c, 4, 47, 0
10, 164640, Note_on_c, 4, 43, 58
10, 164832, Note_on_c, 4, 43, 0
10, 165120, Note_on_c, 4, 45, 58
10, 165504, Note_on_c, 4, 45, 0
10, 165600, Note_on_c, 4, 57, 78
10, 166320, Note_on_c, 4, 57, 0
10, 166320, Note_on_c, 4, 56, 58
10, 166560, Note_on_c, 4, 56, 0
10, 166560, Note_on_c, 4, 55, 58
10, 166800, Note_on_c, 4, 55, 0
10, 166800, Note_on_c, 4, 52, 58
10, 167040, Note_on_c, 4, 52, 0
10, 167040, Note_on_c, 4, 50, 58
10, 167232, Note_on_c, 4, 50, 0
10, 167520, Note_on_c, 4, 52, 58
10, 167712, Note_on_c, 4, 52, 0
10, 168000, Note_on_c, 4, 54, 58
10, 168192, Note_on_c, 4, 54, 0
10, 168480, Note_on_c, 4, 51, 58
10, 168672, Note_on_c, 4, 51, 0
10, 168960, Note_on_c, 4, 52, 58
10, 169152, Note_on_c, 4, 52, 0
10, 169440, Note_on_c, 4, 50, 58
10, 169632, Note_on_c, 4, 50, 0
10, 169920, Note_on_c, 4, 49, 58
10, 170112, Note_on_c, 4, 49, 0
10, 170400, Note_on_c, 4, 45, 58
10, 170592, Note_on_c, 4, 45, 0
10, 170880, Note_on_c, 4, 47, 58
10, 171072, Note_on_c, 4, 47, 0
10, 171360, Note_on_c, 4, 55, 58
10, 171552, Note_on_c, 4, 55, 0
10, 171840, Note_on_c, 4, 57, 58
10, 172032, Note_on_c, 4, 57, 0
10, 172320, Note_on_c, 4, 45, 58
10, 172512, Note_on_c, 4, 45, 0
10, 172800, Note_on_c, 4, 50, 58
10, 173184, Note_on_c, 4, 50, 0
10, 174720, Note_on_c, 4, 45, 58
10, 175104, Note_on_c, 4, 45, 0
10, 176640, Note_on_c, 4, 50, 58
10, 177024, Note_on_c, 4, 50, 0
10, 178560, Note_on_c, 4, 45, 58
10, 178944, Note_on_c, 4, 45, 0
10, 180720, Note_on_c, 4, 50, 105
10, 180876, Note_on_c, 4, 50, 0
10, 180960, Note_on_c, 4, 54, 105
10, 181116, Note_on_c, 4, 54, 0
10, 181200, Note_on_c, 4, 52, 105
10, 181356, Note_on_c, 4, 52, 0
10, 181440, Note_on_c, 4, 51, 105
10, 181596, Note_on_c, 4, 51, 0
10, 181680, Note_on_c, 4, 47, 105
10, 181836, Note_on_c, 4, 47, 0
10, 181920, Note_on_c, 4, 49, 105
10, 182076, Note_on_c, 4, 49, 0
10, 182160, Note_on_c, 4, 51, 105
10, 182316, Note_on_c, 4, 51, 0
10, 182400, Note_on_c, 4, 52, 105
10, 182556, Note_on_c, 4, 52, 0
10, 182640, Note_on_c, 4, 55, 105
10, 182796, Note_on_c, 4, 55, 0
10, 182880, Note_on_c, 4, 52, 105
10, 183036, Note_on_c, 4, 52, 0
10, 183120, Note_on_c, 4, 50, 105
10, 183276, Note_on_c, 4, 50, 0
10, 183360, Note_on_c, 4, 49, 105
10, 183516, Note_on_c, 4, 49, 0
10, 183600, Note_on_c, 4, 45, 105
10, 183756, Note_on_c, 4, 45, 0
10, 183840, Note_on_c, 4, 47, 105
10, 183996, Note_on_c, 4, 47, 0
10, 184080, Note_on_c, 4, 49, 105
10, 184236, Note_on_c, 4, 49, 0
10, 184320, Note_on_c, 4, 50, 105
10, 184476, Note_on_c, 4, 50, 0
10, 184560, Note_on_c, 4, 50, 105
10, 184716, Note_on_c, 4, 50, 0
10, 184800, Note_on_c, 4, 52, 105
10, 184956, Note_on_c, 4, 52, 0
10, 185040, Note_on_c, 4, 54, 105
10, 185196, Note_on_c, 4, 54, 0
10, 185280, Note_on_c, 4, 55, 105
10, 185436, Note_on_c, 4, 55, 0
10, 185520, Note_on_c, 4, 55, 105
10, 185676, Note_on_c, 4, 55, 0
10, 185760, Note_on_c, 4, 55, 105
10, 185916, Note_on_c, 4, 55, 0
10, 186000, Note_on_c, 4, 55, 105
10, 186156, Note_on_c, 4, 55, 0
10, 186240, Note_on_c, 4, 57, 105
10, 186396, Note_on_c, 4, 57, 0
10, 186480, Note_on_c, 4, 57, 105
10, 186636, Note_on_c, 4, 57, 0
10, 186720, Note_on_c, 4, 57, 105
10, 186876, Note_on_c, 4, 57, 0
10, 186960, Note_on_c, 4, 57, 105
10, 187116, Note_on_c, 4, 57, 0
10, 187200, Note_on_c, 4, 45, 105
10, 187356, Note_on_c, 4, 45, 0
10, 187440, Note_on_c, 4, 45, 105
10, 187596, Note_on_c, 4, 45, 0
10, 187680, Note_on_c, 4, 45, 105
10, 187836, Note_on_c, 4, 45, 0
10, 187920, Note_on_c, 4, 45, 105
10, 188076, Note_on_c, 4, 45, 0
10, 188160, Note_on_c, 4, 50, 92
10, 188544, Note_on_c, 4, 50, 0
10, 190080, Note_on_c, 4, 45, 58
10, 190464, Note_on_c, 4, 45, 0
10, 192000, Note_on_c, 4, 50, 58
10, 192384, Note_on_c, 4, 50, 0
10, 193920, Note_on_c, 4, 45, 58
10, 194304, Note_on_c, 4, 45, 0
10, 196080, Note_on_c, 4, 50, 105
10, 196236, Note_on_c, 4, 50, 0
10, 196320, Note_on_c, 4, 54, 105
10, 196476, Note_on_c, 4, 54, 0
10, 196560, Note_on_c, 4, 52, 105
10, 196716, Note_on_c, 4, 52, 0
10, 196800, Note_on_c, 4, 51, 105
10, 196956, Note_on_c, 4, 51, 0
10, 197040, Note_on_c, 4, 47, 105
10, 197196, Note_on_c, 4, 47, 0
10, 197280, Note_on_c, 4, 49, 105
10, 197436, Note_on_c, 4, 49, 0
10, 197520, Note_on_c, 4, 51, 105
10, 197676, Note_on_c, 4, 51, 0
10, 197760, Note_on_c, 4, 52, 105
10, 197916, Note_on_c, 4, 52, 0
10, 198000, Note_on_c, 4, 55, 105
10, 198156, Note_on_c, 4, 55, 0
10, 198240, Note_on_c, 4, 52, 105
10, 198396, Note_on_c, 4, 52, 0
10, 198480, Note_on_c, 4, 50, 105
10, 198636, Note_on_c, 4, 50, 0
10, 198720, Note_on_c, 4, 49, 105
10, 198876, Note_on_c, 4, 49, 0
10, 198960, Note_on_c, 4, 45, 105
10, 199116, Note_on_c, 4, 45, 0
10, 199200, Note_on_c, 4, 47, 105
10, 199356, Note_on_c, 4, 47, 0
10, 199440, Note_on_c, 4, 49, 105
10, 199596, Note_on_c, 4, 49, 0
10, 199680, Note_on_c, 4, 50, 105
10, 199836, Note_on_c, 4, 50, 0
10, 199920, Note_on_c, 4, 50, 105
10, 200076, Note_on_c, 4, 50, 0
10, 200160, Note_on_c, 4, 52, 105
10, 200316, Note_on_c, 4, 52, 0
10, 200400, Note_on_c, 4, 54, 105
10, 200556, Note_on_c, 4, 54, 0
10, 200640, Note_on_c, 4, 55, 105
10, 200796, Note_on_c, 4, 55, 0
10, 200880, Note_on_c, 4, 55, 105
10, 201036, Note_on_c, 4, 55, 0
10, 201120, Note_on_c, 4, 55, 105
10, 201276, Note_on_c, 4, 55, 0
10, 201360, Note_on_c, 4, 55, 105
10, 201516, Note_on_c, 4, 55, 0
10, 201600, Note_on_c, 4, 57, 105
10, 201756, Note_on_c, 4, 57, 0
10, 201840, Note_on_c, 4, 57, 105
10, 201996, Note_on_c, 4, 57, 0
10, 202080, Note_on_c, 4, 57, 105
10, 202236, Note_on_c, 4, 57, 0
10, 202320, Note_on_c, 4, 57, 105
10, 202476, Note_on_c, 4, 57, 0
10, 202560, Note_on_c, 4, 45, 105
10, 202716, Note_on_c, 4, 45, 0
10, 202800, Note_on_c, 4, 45, 105
10, 202956, Note_on_c, 4, 45, 0
10, 203040, Note_on_c, 4, 45, 105
10, 203196, Note_on_c, 4, 45, 0
10, 203280, Note_on_c, 4, 45, 105
10, 203436, Note_on_c, 4, 45, 0
10, 203520, Note_on_c, 4, 50, 105
10, 203676, Note_on_c, 4, 50, 0
10, 203760, Note_on_c, 4, 45, 105
10, 203916, Note_on_c, 4, 45, 0
10, 204000, Note_on_c, 4, 47, 105
10, 204156, Note_on_c, 4, 47, 0
10, 204240, Note_on_c, 4, 49, 105
10, 204396, Note_on_c, 4, 49, 0
10, 204480, Note_on_c, 4, 50, 105
10, 204636, Note_on_c, 4, 50, 0
10, 204720, Note_on_c, 4, 50, 105
10, 204876, Note_on_c, 4, 50, 0
10, 204960, Note_on_c, 4, 52, 105
10, 205116, Note_on_c, 4, 52, 0
10, 205200, Note_on_c, 4, 52, 105
10, 205356, Note_on_c, 4, 52, 0
10, 205440, Note_on_c, 4, 54, 105
10, 205596, Note_on_c, 4, 54, 0
10, 205680, Note_on_c, 4, 49, 105
10, 205836, Note_on_c, 4, 49, 0
10, 205920, Note_on_c, 4, 50, 105
10, 206076, Note_on_c, 4, 50, 0
10, 206160, Note_on_c, 4, 52, 105
10, 206316, Note_on_c, 4, 52, 0
10, 206400, Note_on_c, 4, 54, 105
10, 206556, Note_on_c, 4, 54, 0
10, 206640, Note_on_c, 4, 54, 105
10, 206796, Note_on_c, 4, 54, 0
10, 206880, Note_on_c, 4, 55, 105
10, 207036, Note_on_c, 4, 55, 0
10, 207120, Note_on_c, 4, 55, 105
10, 207276, Note_on_c, 4, 55, 0
10, 207360, Note_on_c, 4, 57, 105
10, 207516, Note_on_c, 4, 57, 0
10, 207600, Note_on_c, 4, 57, 105
10, 207756, Note_on_c, 4, 57, 0
10, 207840, Note_on_c, 4, 58, 105
10, 207996, Note_on_c, 4, 58, 0
10, 208080, Note_on_c, 4, 58, 105
10, 208236, Note_on_c, 4, 58, 0
10, 208320, Note_on_c, 4, 59, 92
10, 208704, Note_on_c, 4, 59, 0
10, 209280, Note_on_c, 4, 55, 58
10, 210240, Note_on_c, 4, 55, 0
10, 210240, Note_on_c, 4, 57, 58
10, 211152, Note_on_c, 4, 57, 0
10, 211200, Note_on_c, 4, 50, 58
10, 211392, Note_on_c, 4, 50, 0
10, 211680, Note_on_c, 4, 50, 58
10, 211872, Note_on_c, 4, 50, 0
10, 212160, Note_on_c, 4, 50, 58
10, 212352, Note_on_c, 4, 50, 0
10, 213120, Note_on_c, 4, 50, 58
10, 213504, Note_on_c, 4, 50, 0
10, 213840, Note_on_c, 4, 45, 105
10, 213984, Note_on_c, 4, 45, 0
10, 214080, Note_on_c, 4, 50, 105
10, 214464, Note_on_c, 4, 50, 0
10, 214800, Note_on_c, 4, 45, 105
10, 214944, Note_on_c, 4, 45, 0
10, 215040, Note_on_c, 4, 50, 105
10, 215196, Note_on_c, 4, 50, 0
10, 215280, Note_on_c, 4, 45, 105
10, 215436, Note_on_c, 4, 45, 0
10, 215520, Note_on_c, 4, 50, 105
10, 215676, Note_on_c, 4, 50, 0
10, 215760, Note_on_c, 4, 54, 105
10, 215916, Note_on_c, 4, 54, 0
10, 216000, Note_on_c, 4, 57, 105
10, 216384, Note_on_c, 4, 57, 0
10, 216960, Note_on_c, 4, 57, 105
10, 217344, Note_on_c, 4, 57, 0
10, 217680, Note_on_c, 4, 54, 105
10, 217824, Note_on_c, 4, 54, 0
10, 217920, Note_on_c, 4, 57, 105
10, 218304, Note_on_c, 4, 57, 0
10, 218640, Note_on_c, 4, 54, 105
10, 218784, Note_on_c, 4, 54, 0
10, 218880, Note_on_c, 4, 57, 105
10, 219036, Note_on_c, 4, 57, 0
10, 219120, Note_on_c, 4, 54, 105
10, 219276, Note_on_c, 4, 54, 0
10, 219360, Note_on_c, 4, 51, 105
10, 219516, Note_on_c, 4, 51, 0
10, 219600, Note_on_c, 4, 54, 105
10, 219756, Note_on_c, 4, 54, 0
10, 219840, Note_on_c, 4, 47, 105
10, 220224, Note_on_c, 4, 47, 0
10, 220800, Note_on_c, 4, 48, 58
10, 221184, Note_on_c, 4, 48, 0
10, 222720, Note_on_c, 4, 43, 58
10, 223104, Note_on_c, 4, 43, 0
10, 224640, Note_on_c, 4, 48, 58
10, 225024, Note_on_c, 4, 48, 0
10, 226560, Note_on_c, 4, 43, 58
10, 226944, Note_on_c, 4, 43, 0
10, 228480, Note_on_c, 4, 48, 58
10, 228864, Note_on_c, 4, 48, 0
10, 230400, Note_on_c, 4, 52, 58
10, 230784, Note_on_c, 4, 52, 0
10, 232320, Note_on_c, 4, 45, 58
10, 232704, Note_on_c, 4, 45, 0
10, 234240, Note_on_c, 4, 50, 58
10, 234624, Note_on_c, 4, 50, 0
10, 236160, Note_on_c, 4, 51, 58
10, 239924, Note_on_c, 4, 51, 0
10, 240000, Note_on_c, 4, 50, 58
10, 240384, Note_on_c, 4, 50, 0
10, 240720, Note_on_c, 4, 50, 105
10, 240960, Note_on_c, 4, 50, 0
10, 240960, Note_on_c, 4, 52, 105
10, 241200, Note_on_c, 4, 52, 0
10, 241200, Note_on_c, 4, 54, 105
10, 241440, Note_on_c, 4, 54, 0
10, 241440, Note_on_c, 4, 55, 105
10, 241680, Note_on_c, 4, 55, 0
10, 241680, Note_on_c, 4, 57, 105
10, 241920, Note_on_c, 4, 57, 0
10, 241920, Note_on_c, 4, 60, 105
10, 242160, Note_on_c, 4, 60, 0
10, 242160, Note_on_c, 4, 58, 105
10, 242400, Note_on_c, 4, 58, 0
10, 242640, Note_on_c, 4, 54, 105
10, 242880, Note_on_c, 4, 54, 0
10, 242880, Note_on_c, 4, 55, 105
10, 243120, Note_on_c, 4, 55, 0
10, 243120, Note_on_c, 4, 57, 105
10, 243360, Note_on_c, 4, 57, 0
10, 243360, Note_on_c, 4, 58, 105
10, 243600, Note_on_c, 4, 58, 0
10, 243600, Note_on_c, 4, 61, 105
10, 243840, Note_on_c, 4, 61, 0
10, 243840, Note_on_c, 4, 64, 105
10, 244080, Note_on_c, 4, 64, 0
10, 244080, Note_on_c, 4, 62, 105
10, 244272, Note_on_c, 4, 62, 0
10, 249600, Note_on_c, 4, 50, 58
10, 251424, Note_on_c, 4, 50, 0
10, 251520, Note_on_c, 4, 55, 125
10, 251904, Note_on_c, 4, 55, 0
10, 252240, Note_on_c, 4, 50, 105
10, 252384, Note_on_c, 4, 50, 0
10, 252480, Note_on_c, 4, 55, 105
10, 252864, Note_on_c, 4, 55, 0
10, 253200, Note_on_c, 4, 50, 105
10, 253344, Note_on_c, 4, 50, 0
10, 253440, Note_on_c, 4, 55, 105
10, 253584, Note_on_c, 4, 55, 0
10, 253680, Note_on_c, 4, 50, 105
10, 253824, Note_on_c, 4, 50, 0
10, 253920, Note_on_c, 4, 55, 105
10, 254064, Note_on_c, 4, 55, 0
10, 254160, Note_on_c, 4, 59, 105
10, 254304, Note_on_c, 4, 59, 0
10, 254400, Note_on_c, 4, 62, 105
10, 254784, Note_on_c, 4, 62, 0
10, 255360, Note_on_c, 4, 60, 105
10, 255744, Note_on_c, 4, 60, 0
10, 256080, Note_on_c, 4, 57, 105
10, 256224, Note_on_c, 4, 57, 0
10, 256320, Note_on_c, 4, 60, 105
10, 256704, Note_on_c, 4, 60, 0
10, 257040, Note_on_c, 4, 57, 105
10, 257184, Note_on_c, 4, 57, 0
10, 257280, Note_on_c, 4, 60, 105
10, 257424, Note_on_c, 4, 60, 0
10, 257520, Note_on_c, 4, 57, 105
10, 257664, Note_on_c, 4, 57, 0
10, 257760, Note_on_c, 4, 54, 105
10, 257904, Note_on_c, 4, 54, 0
10, 258000, Note_on_c, 4, 57, 105
10, 258144, Note_on_c, 4, 57, 0
10, 258240, Note_on_c, 4, 50, 105
10, 258624, Note_on_c, 4, 50, 0
10, 259200, Note_on_c, 4, 55, 105
10, 259356, Note_on_c, 4, 55, 0
10, 259440, Note_on_c, 4, 55, 105
10, 259596, Note_on_c, 4, 55, 0
10, 259680, Note_on_c, 4, 55, 105
10, 259836, Note_on_c, 4, 55, 0
10, 259920, Note_on_c, 4, 55, 105
10, 260076, Note_on_c, 4, 55, 0
10, 260160, Note_on_c, 4, 55, 105
10, 260316, Note_on_c, 4, 55, 0
10, 260400, Note_on_c, 4, 55, 105
10, 260556, Note_on_c, 4, 55, 0
10, 260640, Note_on_c, 4, 55, 105
10, 260796, Note_on_c, 4, 55, 0
10, 260880, Note_on_c, 4, 55, 105
10, 261036, Note_on_c, 4, 55, 0
10, 261120, Note_on_c, 4, 55, 105
10, 261276, Note_on_c, 4, 55, 0
10, 261360, Note_on_c, 4, 55, 105
10, 261516, Note_on_c, 4, 55, 0
10, 261600, Note_on_c, 4, 55, 105
10, 261756, Note_on_c, 4, 55, 0
10, 261840, Note_on_c, 4, 55, 105
10, 261996, Note_on_c, 4, 55, 0
10, 262080, Note_on_c, 4, 55, 105
10, 262236, Note_on_c, 4, 55, 0
10, 262320, Note_on_c, 4, 55, 105
10, 262476, Note_on_c, 4, 55, 0
10, 262560, Note_on_c, 4, 55, 105
10, 262716, Note_on_c, 4, 55, 0
10, 262800, Note_on_c, 4, 55, 105
10, 262956, Note_on_c, 4, 55, 0
10, 263040, Note_on_c, 4, 55, 105
10, 263196, Note_on_c, 4, 55, 0
10, 263280, Note_on_c, 4, 55, 105
10, 263436, Note_on_c, 4, 55, 0
10, 263520, Note_on_c, 4, 55, 105
10, 263676, Note_on_c, 4, 55, 0
10, 263760, Note_on_c, 4, 55, 105
10, 263916, Note_on_c, 4, 55, 0
10, 264000, Note_on_c, 4, 55, 105
10, 264156, Note_on_c, 4, 55, 0
10, 264240, Note_on_c, 4, 55, 105
10, 264396, Note_on_c, 4, 55, 0
10, 264480, Note_on_c, 4, 55, 105
10, 264636, Note_on_c, 4, 55, 0
10, 264720, Note_on_c, 4, 55, 105
10, 264876, Note_on_c, 4, 55, 0
10, 264960, Note_on_c, 4, 55, 105
10, 265116, Note_on_c, 4, 55, 0
10, 265200, Note_on_c, 4, 55, 105
10, 265356, Note_on_c, 4, 55, 0
10, 265440, Note_on_c, 4, 55, 105
10, 265596, Note_on_c, 4, 55, 0
10, 265680, Note_on_c, 4, 55, 105
10, 265836, Note_on_c, 4, 55, 0
10, 265920, Note_on_c, 4, 55, 105
10, 266076, Note_on_c, 4, 55, 0
10, 266160, Note_on_c, 4, 55, 105
10, 266316, Note_on_c, 4, 55, 0
10, 266400, Note_on_c, 4, 55, 105
10, 266556, Note_on_c, 4, 55, 0
10, 266640, Note_on_c, 4, 55, 105
10, 266796, Note_on_c, 4, 55, 0
10, 266880, Note_on_c, 4, 55, 105
10, 267036, Note_on_c, 4, 55, 0
10, 267120, Note_on_c, 4, 55, 105
10, 267276, Note_on_c, 4, 55, 0
10, 267360, Note_on_c, 4, 57, 105
10, 267516, Note_on_c, 4, 57, 0
10, 267600, Note_on_c, 4, 57, 105
10, 267756, Note_on_c, 4, 57, 0
10, 267840, Note_on_c, 4, 59, 105
10, 267996, Note_on_c, 4, 59, 0
10, 268080, Note_on_c, 4, 59, 105
10, 268236, Note_on_c, 4, 59, 0
10, 268320, Note_on_c, 4, 54, 105
10, 268476, Note_on_c, 4, 54, 0
10, 268560, Note_on_c, 4, 54, 105
10, 268716, Note_on_c, 4, 54, 0
10, 268800, Note_on_c, 4, 55, 105
10, 268956, Note_on_c, 4, 55, 0
10, 269040, Note_on_c, 4, 55, 105
10, 269196, Note_on_c, 4, 55, 0
10, 269280, Note_on_c, 4, 57, 105
10, 269436, Note_on_c, 4, 57, 0
10, 269520, Note_on_c, 4, 57, 105
10, 269676, Note_on_c, 4, 57, 0
10, 269760, Note_on_c, 4, 59, 92
10, 270144, Note_on_c, 4, 59, 0
10, 272640, Note_on_c, 4, 50, 58
10, 273600, Note_on_c, 4, 50, 0
10, 273600, Note_on_c, 4, 52, 58
10, 274368, Note_on_c, 4, 52, 0
10, 274560, Note_on_c, 4, 48, 58
10, 274872, Note_on_c, 4, 48, 0
10, 275040, Note_on_c, 4, 48, 58
10, 275352, Note_on_c, 4, 48, 0
10, 275520, Note_on_c, 4, 50, 58
10, 275832, Note_on_c, 4, 50, 0
10, 276000, Note_on_c, 4, 50, 58
10, 276312, Note_on_c, 4, 50, 0
10, 276480, Note_on_c, 4, 47, 58
10, 276636, Note_on_c, 4, 47, 0
10, 276960, Note_on_c, 4, 50, 58
10, 277116, Note_on_c, 4, 50, 0
10, 277440, Note_on_c, 4, 55, 58
10, 277752, Note_on_c, 4, 55, 0
10, 280320, Note_on_c, 4, 50, 58
10, 281280, Note_on_c, 4, 50, 0
10, 281280, Note_on_c, 4, 52, 58
10, 282048, Note_on_c, 4, 52, 0
10, 282240, Note_on_c, 4, 48, 58
10, 282624, Note_on_c, 4, 48, 0
10, 282720, Note_on_c, 4, 48, 58
10, 283104, Note_on_c, 4, 48, 0
10, 283200, Note_on_c, 4, 50, 58
10, 283584, Note_on_c, 4, 50, 0
10, 283680, Note_on_c, 4, 50, 58
10, 284064, Note_on_c, 4, 50, 0
10, 284160, Note_on_c, 4, 55, 78
10, 284316, Note_on_c, 4, 55, 0
10, 284400, Note_on_c, 4, 55, 92
10, 284556, Note_on_c, 4, 55, 0
10, 284640, Note_on_c, 4, 55, 92
10, 284796, Note_on_c, 4, 55, 0
10, 284880, Note_on_c, 4, 55, 92
10, 285036, Note_on_c, 4, 55, 0
10, 285120, Note_on_c, 4, 55, 58
10, 285276, Note_on_c, 4, 55, 0
10, 285360, Note_on_c, 4, 55, 58
10, 285516, Note_on_c, 4, 55, 0
10, 285600, Note_on_c, 4, 55, 58
10, 285756, Note_on_c, 4, 55, 0
10, 285840, Note_on_c, 4, 55, 58
10, 285996, Note_on_c, 4, 55, 0
10, 286080, Note_on_c, 4, 55, 112
10, 286236, Note_on_c, 4, 55, 0
10, 286320, Note_on_c, 4, 55, 92
10, 286476, Note_on_c, 4, 55, 0
10, 286560, Note_on_c, 4, 55, 92
10, 286716, Note_on_c, 4, 55, 0
10, 286800, Note_on_c, 4, 55, 92
10, 286956, Note_on_c, 4, 55, 0
10, 287040, Note_on_c, 4, 55, 58
10, 287196, Note_on_c, 4, 55, 0
10, 287280, Note_on_c, 4, 55, 58
10, 287436, Note_on_c, 4, 55, 0
10, 287520, Note_on_c, 4, 55, 58
10, 287676, Note_on_c, 4, 55, 0
10, 287760, Note_on_c, 4, 55, 58
10, 287916, Note_on_c, 4, 55, 0
10, 288000, Note_on_c, 4, 55, 58
10, 288156, Note_on_c, 4, 55, 0
10, 288240, Note_on_c, 4, 55, 58
10, 288396, Note_on_c, 4, 55, 0
10, 288480, Note_on_c, 4, 55, 72
10, 288636, Note_on_c, 4, 55, 0
10, 288720, Note_on_c, 4, 55, 72
10, 288876, Note_on_c, 4, 55, 0
10, 288960, Note_on_c, 4, 55, 72
10, 289116, Note_on_c, 4, 55, 0
10, 289200, Note_on_c, 4, 55, 72
10, 289356, Note_on_c, 4, 55, 0
10, 289440, Note_on_c, 4, 55, 81
10, 289596, Note_on_c, 4, 55, 0
10, 289680, Note_on_c, 4, 55, 81
10, 289836, Note_on_c, 4, 55, 0
10, 289920, Note_on_c, 4, 55, 81
10, 290076, Note_on_c, 4, 55, 0
10, 290160, Note_on_c, 4, 55, 81
10, 290316, Note_on_c, 4, 55, 0
10, 290400, Note_on_c, 4, 54, 92
10, 290556, Note_on_c, 4, 54, 0
10, 290640, Note_on_c, 4, 54, 92
10, 290796, Note_on_c, 4, 54, 0
10, 290880, Note_on_c, 4, 55, 92
10, 291036, Note_on_c, 4, 55, 0
10, 291120, Note_on_c, 4, 55, 92
10, 291276, Note_on_c, 4, 55, 0
10, 291360, Note_on_c, 4, 52, 105
10, 291516, Note_on_c, 4, 52, 0
10, 291600, Note_on_c, 4, 52, 105
10, 291756, Note_on_c, 4, 52, 0
10, 291840, Note_on_c, 4, 50, 105
10, 291996, Note_on_c, 4, 50, 0
10, 292080, Note_on_c, 4, 50, 105
10, 292236, Note_on_c, 4, 50, 0
10, 292320, Note_on_c, 4, 50, 105
10, 292476, Note_on_c, 4, 50, 0
10, 292560, Note_on_c, 4, 50, 105
10, 292716, Note_on_c, 4, 50, 0
10, 292800, Note_on_c, 4, 50, 105
10, 292956, Note_on_c, 4, 50, 0
10, 293040, Note_on_c, 4, 50, 105
10, 293196, Note_on_c, 4, 50, 0
10, 293280, Note_on_c, 4, 50, 105
10, 293436, Note_on_c, 4, 50, 0
10, 293520, Note_on_c, 4, 50, 105
10, 293676, Note_on_c, 4, 50, 0
10, 293760, Note_on_c, 4, 50, 105
10, 293916, Note_on_c, 4, 50, 0
10, 294000, Note_on_c, 4, 50, 105
10, 294156, Note_on_c, 4, 50, 0
10, 294240, Note_on_c, 4, 50, 105
10, 294396, Note_on_c, 4, 50, 0
10, 294480, Note_on_c, 4, 50, 105
10, 294636, Note_on_c, 4, 50, 0
10, 294720, Note_on_c, 4, 50, 105
10, 294876, Note_on_c, 4, 50, 0
10, 294960, Note_on_c, 4, 50, 105
10, 295116, Note_on_c, 4, 50, 0
10, 295200, Note_on_c, 4, 50, 105
10, 295356, Note_on_c, 4, 50, 0
10, 295440, Note_on_c, 4, 50, 105
10, 295596, Note_on_c, 4, 50, 0
10, 295680, Note_on_c, 4, 50, 105
10, 295836, Note_on_c, 4, 50, 0
10, 295920, Note_on_c, 4, 50, 105
10, 296076, Note_on_c, 4, 50, 0
10, 296160, Note_on_c, 4, 50, 105
10, 296316, Note_on_c, 4, 50, 0
10, 296400, Note_on_c, 4, 50, 105
10, 296556, Note_on_c, 4, 50, 0
10, 296640, Note_on_c, 4, 50, 105
10, 296796, Note_on_c, 4, 50, 0
10, 296880, Note_on_c, 4, 50, 105
10, 297036, Note_on_c, 4, 50, 0
10, 297120, Note_on_c, 4, 50, 105
10, 297276, Note_on_c, 4, 50, 0
10, 297360, Note_on_c, 4, 50, 105
10, 297516, Note_on_c, 4, 50, 0
10, 297600, Note_on_c, 4, 50, 105
10, 297756, Note_on_c, 4, 50, 0
10, 297840, Note_on_c, 4, 50, 105
10, 297996, Note_on_c, 4, 50, 0
10, 298080, Note_on_c, 4, 50, 105
10, 298236, Note_on_c, 4, 50, 0
10, 298320, Note_on_c, 4, 50, 105
10, 298476, Note_on_c, 4, 50, 0
10, 298560, Note_on_c, 4, 50, 92
10, 298944, Note_on_c, 4, 50, 0
10, 300960, Note_on_c, 4, 56, 58
10, 301152, Note_on_c, 4, 56, 0
10, 301440, Note_on_c, 4, 57, 58
10, 301632, Note_on_c, 4, 57, 0
10, 301920, Note_on_c, 4, 55, 58
10, 302112, Note_on_c, 4, 55, 0
10, 302400, Note_on_c, 4, 54, 58
10, 302592, Note_on_c, 4, 54, 0
10, 302880, Note_on_c, 4, 50, 58
10, 303072, Note_on_c, 4, 50, 0
10, 303840, Note_on_c, 4, 51, 58
10, 304320, Note_on_c, 4, 51, 0
10, 304320, Note_on_c, 4, 52, 58
10, 304512, Note_on_c, 4, 52, 0
10, 304800, Note_on_c, 4, 48, 58
10, 304992, Note_on_c, 4, 48, 0
10, 305280, Note_on_c, 4, 50, 58
10, 305640, Note_on_c, 4, 50, 0
10, 305760, Note_on_c, 4, 62, 78
10, 306480, Note_on_c, 4, 62, 0
10, 306480, Note_on_c, 4, 61, 58
10, 306720, Note_on_c, 4, 61, 0
10, 306720, Note_on_c, 4, 60, 58
10, 306960, Note_on_c, 4, 60, 0
10, 306960, Note_on_c, 4, 57, 58
10, 307200, Note_on_c, 4, 57, 0
10, 307200, Note_on_c, 4, 55, 58
10, 307392, Note_on_c, 4, 55, 0
10, 307680, Note_on_c, 4, 57, 58
10, 307872, Note_on_c, 4, 57, 0
10, 308160, Note_on_c, 4, 59, 58
10, 308352, Note_on_c, 4, 59, 0
10, 308640, Note_on_c, 4, 56, 58
10, 308832, Note_on_c, 4, 56, 0
10, 309120, Note_on_c, 4, 57, 58
10, 309312, Note_on_c, 4, 57, 0
10, 309600, Note_on_c, 4, 55, 58
10, 309792, Note_on_c, 4, 55, 0
10, 310080, Note_on_c, 4, 54, 58
10, 310272, Note_on_c, 4, 54, 0
10, 310560, Note_on_c, 4, 50, 58
10, 310752, Note_on_c, 4, 50, 0
10, 311040, Note_on_c, 4, 52, 58
10, 311232, Note_on_c, 4, 52, 0
10, 311520, Note_on_c, 4, 48, 58
10, 311712, Note_on_c, 4, 48, 0
10, 312000, Note_on_c, 4, 50, 58
10, 312192, Note_on_c, 4, 50, 0
10, 312480, Note_on_c, 4, 50, 58
10, 312672, Note_on_c, 4, 50, 0
10, 312960, Note_on_c, 4, 43, 58
10, 313344, Note_on_c, 4, 43, 0
10, 314880, Note_on_c, 4, 50, 58
10, 315264, Note_on_c, 4, 50, 0
10, 316800, Note_on_c, 4, 43, 58
10, 317184, Note_on_c, 4, 43, 0
10, 318720, Note_on_c, 4, 50, 58
10, 319104, Note_on_c, 4, 50, 0
10, 320880, Note_on_c, 4, 55, 105
10, 321036, Note_on_c, 4, 55, 0
10, 321120, Note_on_c, 4, 59, 105
10, 321276, Note_on_c, 4, 59, 0
10, 321360, Note_on_c, 4, 57, 105
10, 321516, Note_on_c, 4, 57, 0
10, 321600, Note_on_c, 4, 56, 105
10, 321756, Note_on_c, 4, 56, 0
10, 321840, Note_on_c, 4, 52, 105
10, 321996, Note_on_c, 4, 52, 0
10, 322080, Note_on_c, 4, 54, 105
10, 322236, Note_on_c, 4, 54, 0
10, 322320, Note_on_c, 4, 56, 105
10, 322476, Note_on_c, 4, 56, 0
10, 322560, Note_on_c, 4, 57, 105
10, 322716, Note_on_c, 4, 57, 0
10, 322800, Note_on_c, 4, 60, 105
10, 322956, Note_on_c, 4, 60, 0
10, 323040, Note_on_c, 4, 57, 105
10, 323196, Note_on_c, 4, 57, 0
10, 323280, Note_on_c, 4, 55, 105
10, 323436, Note_on_c, 4, 55, 0
10, 323520, Note_on_c, 4, 54, 105
10, 323676, Note_on_c, 4, 54, 0
10, 323760, Note_on_c, 4, 50, 105
10, 323916, Note_on_c, 4, 50, 0
10, 324000, Note_on_c, 4, 52, 105
10, 324156, Note_on_c, 4, 52, 0
10, 324240, Note_on_c, 4, 54, 105
10, 324396, Note_on_c, 4, 54, 0
10, 324480, Note_on_c, 4, 55, 105
10, 324636, Note_on_c, 4, 55, 0
10, 324720, Note_on_c, 4, 55, 105
10, 324876, Note_on_c, 4, 55, 0
10, 324960, Note_on_c, 4, 57, 105
10, 325116, Note_on_c, 4, 57, 0
10, 325200, Note_on_c, 4, 59, 105
10, 325356, Note_on_c, 4, 59, 0
10, 325440, Note_on_c, 4, 60, 105
10, 325596, Note_on_c, 4, 60, 0
10, 325680, Note_on_c, 4, 60, 105
10, 325836, Note_on_c, 4, 60, 0
10, 325920, Note_on_c, 4, 60, 105
10, 326076, Note_on_c, 4, 60, 0
10, 326160, Note_on_c, 4, 60, 105
10, 326316, Note_on_c, 4, 60, 0
10, 326400, Note_on_c, 4, 62, 105
10, 326556, Note_on_c, 4, 62, 0
10, 326640, Note_on_c, 4, 62, 105
10, 326796, Note_on_c, 4, 62, 0
10, 326880, Note_on_c, 4, 62, 105
10, 327036, Note_on_c, 4, 62, 0
10, 327120, Note_on_c, 4, 62, 105
10, 327276, Note_on_c, 4, 62, 0
10, 327360, Note_on_c, 4, 50, 105
10, 327516, Note_on_c, 4, 50, 0
10, 327600, Note_on_c, 4, 50, 105
10, 327756, Note_on_c, 4, 50, 0
10, 327840, Note_on_c, 4, 50, 105
10, 327996, Note_on_c, 4, 50, 0
10, 328080, Note_on_c, 4, 50, 105
10, 328236, Note_on_c, 4, 50, 0
10, 328320, Note_on_c, 4, 55, 92
10, 328704, Note_on_c, 4, 55, 0
10, 330240, Note_on_c, 4, 50, 58
10, 330624, Note_on_c, 4, 50, 0
10, 332160, Note_on_c, 4, 55, 58
10, 332544, Note_on_c, 4, 55, 0
10, 334080, Note_on_c, 4, 50, 58
10, 334464, Note_on_c, 4, 50, 0
10, 336240, Note_on_c, 4, 55, 105
10, 336396, Note_on_c, 4, 55, 0
10, 336480, Note_on_c, 4, 59, 105
10, 336636, Note_on_c, 4, 59, 0
10, 336720, Note_on_c, 4, 57, 105
10, 336876, Note_on_c, 4, 57, 0
10, 336960, Note_on_c, 4, 56, 105
10, 337116, Note_on_c, 4, 56, 0
10, 337200, Note_on_c, 4, 52, 105
10, 337356, Note_on_c, 4, 52, 0
10, 337440, Note_on_c, 4, 54, 105
10, 337596, Note_on_c, 4, 54, 0
10, 337680, Note_on_c, 4, 56, 105
10, 337836, Note_on_c, 4, 56, 0
10, 337920, Note_on_c, 4, 57, 105
10, 338076, Note_on_c, 4, 57, 0
10, 338160, Note_on_c, 4, 60, 105
10, 338316, Note_on_c, 4, 60, 0
10, 338400, Note_on_c, 4, 57, 105
10, 338556, Note_on_c, 4, 57, 0
10, 338640, Note_on_c, 4, 55, 105
10, 338796, Note_on_c, 4, 55, 0
10, 338880, Note_on_c, 4, 54, 105
10, 339036, Note_on_c, 4, 54, 0
10, 339120, Note_on_c, 4, 50, 105
10, 339276, Note_on_c, 4, 50, 0
10, 339360, Note_on_c, 4, 52, 105
10, 339516, Note_on_c, 4, 52, 0
10, 339600, Note_on_c, 4, 54, 105
10, 339756, Note_on_c, 4, 54, 0
10, 339840, Note_on_c, 4, 55, 105
10, 339996, Note_on_c, 4, 55, 0
10, 340080, Note_on_c, 4, 55, 105
10, 340236, Note_on_c, 4, 55, 0
10, 340320, Note_on_c, 4, 57, 105
10, 340476, Note_on_c, 4, 57, 0
10, 340560, Note_on_c, 4, 59, 105
10, 340716, Note_on_c, 4, 59, 0
10, 340800, Note_on_c, 4, 60, 105
10, 340956, Note_on_c, 4, 60, 0
10, 341040, Note_on_c, 4, 60, 105
10, 341196, Note_on_c, 4, 60, 0
10, 341280, Note_on_c, 4, 60, 105
10, 341436, Note_on_c, 4, 60, 0
10, 341520, Note_on_c, 4, 60, 105
10, 341676, Note_on_c, 4, 60, 0
10, 341760, Note_on_c, 4, 62, 105
10, 341916, Note_on_c, 4, 62, 0
10, 342000, Note_on_c, 4, 62, 105
10, 342156, Note_on_c, 4, 62, 0
10, 342240, Note_on_c, 4, 62, 105
10, 342396, Note_on_c, 4, 62, 0
10, 342480, Note_on_c, 4, 62, 105
10, 342636, Note_on_c, 4, 62, 0
10, 342720, Note_on_c, 4, 50, 105
10, 342876, Note_on_c, 4, 50, 0
10, 342960, Note_on_c, 4, 50, 105
10, 343116, Note_on_c, 4, 50, 0
10, 343200, Note_on_c, 4, 50, 105
10, 343356, Note_on_c, 4, 50, 0
10, 343440, Note_on_c, 4, 50, 105
10, 343596, Note_on_c, 4, 50, 0
10, 343680, Note_on_c, 4, 55, 105
10, 343836, Note_on_c, 4, 55, 0
10, 343920, Note_on_c, 4, 50, 105
10, 344076, Note_on_c, 4, 50, 0
10, 344160, Note_on_c, 4, 52, 105
10, 344316, Note_on_c, 4, 52, 0
10, 344400, Note_on_c, 4, 54, 105
10, 344556, Note_on_c, 4, 54, 0
10, 344640, Note_on_c, 4, 55, 105
10, 344796, Note_on_c, 4, 55, 0
10, 344880, Note_on_c, 4, 55, 105
10, 345036, Note_on_c, 4, 55, 0
10, 345120, Note_on_c, 4, 57, 105
10, 345276, Note_on_c, 4, 57, 0
10, 345360, Note_on_c, 4, 57, 105
10, 345516, Note_on_c, 4, 57, 0
10, 345600, Note_on_c, 4, 59, 105
10, 345756, Note_on_c, 4, 59, 0
10, 345840, Note_on_c, 4, 54, 105
10, 345996, Note_on_c, 4, 54, 0
10, 346080, Note_on_c, 4, 55, 105
10, 346236, Note_on_c, 4, 55, 0
10, 346320, Note_on_c, 4, 57, 105
10, 346476, Note_on_c, 4, 57, 0
10, 346560, Note_on_c, 4, 59, 105
10, 346716, Note_on_c, 4, 59, 0
10, 346800, Note_on_c, 4, 59, 105
10, 346956, Note_on_c, 4, 59, 0
10, 347040, Note_on_c, 4, 60, 105
10, 347196, Note_on_c, 4, 60, 0
10, 347280, Note_on_c, 4, 60, 105
10, 347436, Note_on_c, 4, 60, 0
10, 347520, Note_on_c, 4, 62, 105
10, 347676, Note_on_c, 4, 62, 0
10, 347760, Note_on_c, 4, 62, 105
10, 347916, Note_on_c, 4, 62, 0
10, 348000, Note_on_c, 4, 63, 105
10, 348156, Note_on_c, 4, 63, 0
10, 348240, Note_on_c, 4, 63, 105
10, 348396, Note_on_c, 4, 63, 0
10, 348480, Note_on_c, 4, 64, 105
10, 348864, Note_on_c, 4, 64, 0
10, 349440, Note_on_c, 4, 48, 58
10, 350400, Note_on_c, 4, 48, 0
10, 350400, Note_on_c, 4, 50, 58
10, 351312, Note_on_c, 4, 50, 0
10, 351360, Note_on_c, 4, 43, 58
10, 351744, Note_on_c, 4, 43, 0
10, 353280, Note_on_c, 4, 48, 58
10, 354240, Note_on_c, 4, 48, 0
10, 354240, Note_on_c, 4, 50, 58
10, 355152, Note_on_c, 4, 50, 0
10, 355200, Note_on_c, 4, 43, 58
10, 355584, Note_on_c, 4, 43, 0
10, 357120, Note_on_c, 4, 48, 58
10, 357504, Note_on_c, 4, 48, 0
10, 358080, Note_on_c, 4, 50, 105
10, 358464, Note_on_c, 4, 50, 0
10, 359040, Note_on_c, 4, 43, 105
10, 359220, Note_on_c, 4, 43, 0
10, 359280, Note_on_c, 4, 43, 105
10, 359460, Note_on_c, 4, 43, 0
10, 359520, Note_on_c, 4, 43, 105
10, 359700, Note_on_c, 4, 43, 0
10, 359760, Note_on_c, 4, 43, 105
10, 359940, Note_on_c, 4, 43, 0
10, 360000, Note_on_c, 4, 43, 105
10, 360180, Note_on_c, 4, 43, 0
10, 360240, Note_on_c, 4, 43, 105
10, 360420, Note_on_c, 4, 43, 0
10, 360480, Note_on_c, 4, 43, 105
10, 360660, Note_on_c, 4, 43, 0
10, 360720, Note_on_c, 4, 43, 105
10, 360900, Note_on_c, 4, 43, 0
10, 360960, Note_on_c, 4, 43, 105
10, 361140, Note_on_c, 4, 43, 0
10, 361200, Note_on_c, 4, 43, 105
10, 361380, Note_on_c, 4, 43, 0
10, 361440, Note_on_c, 4, 43, 105
10, 361620, Note_on_c, 4, 43, 0
10, 361680, Note_on_c, 4, 43, 105
10, 361860, Note_on_c, 4, 43, 0
10, 361920, Note_on_c, 4, 43, 105
10, 362100, Note_on_c, 4, 43, 0
10, 362160, Note_on_c, 4, 43, 105
10, 362340, Note_on_c, 4, 43, 0
10, 362400, Note_on_c, 4, 43, 105
10, 362580, Note_on_c, 4, 43, 0
10, 362640, Note_on_c, 4, 43, 105
10, 362820, Note_on_c, 4, 43, 0
10, 362880, Note_on_c, 4, 43, 105
10, 363060, Note_on_c, 4, 43, 0
10, 363120, Note_on_c, 4, 43, 105
10, 363300, Note_on_c, 4, 43, 0
10, 363360, Note_on_c, 4, 43, 105
10, 363540, Note_on_c, 4, 43, 0
10, 363600, Note_on_c, 4, 43, 105
10, 363780, Note_on_c, 4, 43, 0
10, 363840, Note_on_c, 4, 43, 105
10, 364020, Note_on_c, 4, 43, 0
10, 364080, Note_on_c, 4, 43, 105
10, 364260, Note_on_c, 4, 43, 0
10, 364320, Note_on_c, 4, 43, 105
10, 364500, Note_on_c, 4, 43, 0
10, 364560, Note_on_c, 4, 43, 105
10, 364740, Note_on_c, 4, 43, 0
10, 364800, Note_on_c, 4, 43, 105
10, 364980, Note_on_c, 4, 43, 0
10, 365040, Note_on_c, 4, 43, 105
10, 365220, Note_on_c, 4, 43, 0
10, 365280, Note_on_c, 4, 43, 105
10, 365460, Note_on_c, 4, 43, 0
10, 365520, Note_on_c, 4, 43, 105
10, 365700, Note_on_c, 4, 43, 0
10, 365760, Note_on_c, 4, 43, 105
10, 365940, Note_on_c, 4, 43, 0
10, 366000, Note_on_c, 4, 43, 105
10, 366180, Note_on_c, 4, 43, 0
10, 366240, Note_on_c, 4, 43, 105
10, 366420, Note_on_c, 4, 43, 0
10, 366480, Note_on_c, 4, 43, 105
10, 366660, Note_on_c, 4, 43, 0
10, 366720, Note_on_c, 4, 43, 116
10, 366900, Note_on_c, 4, 43, 0
10, 366960, Note_on_c, 4, 47, 116
10, 367140, Note_on_c, 4, 47, 0
10, 367200, Note_on_c, 4, 50, 116
10, 367380, Note_on_c, 4, 50, 0
10, 367440, Note_on_c, 4, 55, 116
10, 367620, Note_on_c, 4, 55, 0
10, 367680, Note_on_c, 4, 59, 116
10, 367860, Note_on_c, 4, 59, 0
10, 367920, Note_on_c, 4, 55, 116
10, 368100, Note_on_c, 4, 55, 0
10, 368160, Note_on_c, 4, 62, 116
10, 368340, Note_on_c, 4, 62, 0
10, 368400, Note_on_c, 4, 59, 116
10, 368580, Note_on_c, 4, 59, 0
10, 368640, Note_on_c, 4, 55, 116
10, 369000, Note_on_c, 4, 55, 0
10, 369120, Note_on_c, 4, 43, 116
10, 369390, Note_on_c, 4, 43, 0
10, 369480, Note_on_c, 4, 43, 116
10, 369570, Note_on_c, 4, 43, 0
10, 369600, Note_on_c, 4, 43, 116
10, 369984, Note_on_c, 4, 43, 0
10, 369984, End_track
11, 0, Start_track
11, 0, Program_c, 5, 43
11, 0, Control_c, 5, 7, 81
11, 0, Control_c, 5, 91, 95
11, 1920, Note_on_c, 5, 43, 105
11, 2304, Note_on_c, 5, 43, 0
11, 2640, Note_on_c, 5, 38, 105
11, 2784, Note_on_c, 5, 38, 0
11, 2880, Note_on_c, 5, 43, 105
11, 3264, Note_on_c, 5, 43, 0
11, 3600, Note_on_c, 5, 38, 105
11, 3744, Note_on_c, 5, 38, 0
11, 3840, Note_on_c, 5, 43, 105
11, 3984, Note_on_c, 5, 43, 0
11, 4080, Note_on_c, 5, 38, 105
11, 4224, Note_on_c, 5, 38, 0
11, 4320, Note_on_c, 5, 43, 105
11, 4464, Note_on_c, 5, 43, 0
11, 4560, Note_on_c, 5, 47, 105
11, 4704, Note_on_c, 5, 47, 0
11, 4800, Note_on_c, 5, 50, 105
11, 5184, Note_on_c, 5, 50, 0
11, 5760, Note_on_c, 5, 48, 105
11, 6144, Note_on_c, 5, 48, 0
11, 6480, Note_on_c, 5, 45, 105
11, 6624, Note_on_c, 5, 45, 0
11, 6720, Note_on_c, 5, 48, 105
11, 7104, Note_on_c, 5, 48, 0
11, 7440, Note_on_c, 5, 45, 105
11, 7584, Note_on_c, 5, 45, 0
11, 7680, Note_on_c, 5, 48, 105
11, 7824, Note_on_c, 5, 48, 0
11, 7920, Note_on_c, 5, 45, 105
11, 8064, Note_on_c, 5, 45, 0
11, 8160, Note_on_c, 5, 42, 105
11, 8304, Note_on_c, 5, 42, 0
11, 8400, Note_on_c, 5, 45, 105
11, 8544, Note_on_c, 5, 45, 0
11, 8640, Note_on_c, 5, 38, 105
11, 9024, Note_on_c, 5, 38, 0
11, 9600, Note_on_c, 5, 43, 105
11, 9756, Note_on_c, 5, 43, 0
11, 9840, Note_on_c, 5, 43, 105
11, 9996, Note_on_c, 5, 43, 0
11, 10080, Note_on_c, 5, 43, 105
11, 10236, Note_on_c, 5, 43, 0
11, 10320, Note_on_c, 5, 43, 105
11, 10476, Note_on_c, 5, 43, 0
11, 10560, Note_on_c, 5, 43, 105
11, 10716, Note_on_c, 5, 43, 0
11, 10800, Note_on_c, 5, 43, 105
11, 10956, Note_on_c, 5, 43, 0
11, 11040, Note_on_c, 5, 43, 105
11, 11196, Note_on_c, 5, 43, 0
11, 11280, Note_on_c, 5, 43, 105
11, 11436, Note_on_c, 5, 43, 0
11, 11520, Note_on_c, 5, 43, 105
11, 11676, Note_on_c, 5, 43, 0
11, 11760, Note_on_c, 5, 43, 105
11, 11916, Note_on_c, 5, 43, 0
11, 12000, Note_on_c, 5, 43, 105
11, 12156, Note_on_c, 5, 43, 0
11, 12240, Note_on_c, 5, 43, 105
11, 12396, Note_on_c, 5, 43, 0
11, 12480, Note_on_c, 5, 43, 105
11, 12636, Note_on_c, 5, 43, 0
11, 12720, Note_on_c, 5, 43, 105
11, 12876, Note_on_c, 5, 43, 0
11, 12960, Note_on_c, 5, 43, 105
11, 13116, Note_on_c, 5, 43, 0
11, 13200, Note_on_c, 5, 43, 105
11, 13356, Note_on_c, 5, 43, 0
11, 13440, Note_on_c, 5, 43, 105
11, 13596, Note_on_c, 5, 43, 0
11, 13680, Note_on_c, 5, 43, 105
11, 13836, Note_on_c, 5, 43, 0
11, 13920, Note_on_c, 5, 43, 105
11, 14076, Note_on_c, 5, 43, 0
11, 14160, Note_on_c, 5, 43, 105
11, 14316, Note_on_c, 5, 43, 0
11, 14400, Note_on_c, 5, 43, 105
11, 14556, Note_on_c, 5, 43, 0
11, 14640, Note_on_c, 5, 43, 105
11, 14796, Note_on_c, 5, 43, 0
11, 14880, Note_on_c, 5, 43, 105
11, 15036, Note_on_c, 5, 43, 0
11, 15120, Note_on_c, 5, 43, 105
11, 15276, Note_on_c, 5, 43, 0
11, 15360, Note_on_c, 5, 43, 105
11, 15516, Note_on_c, 5, 43, 0
11, 15600, Note_on_c, 5, 43, 105
11, 15756, Note_on_c, 5, 43, 0
11, 15840, Note_on_c, 5, 43, 105
11, 15996, Note_on_c, 5, 43, 0
11, 16080, Note_on_c, 5, 43, 105
11, 16236, Note_on_c, 5, 43, 0
11, 16320, Note_on_c, 5, 43, 105
11, 16476, Note_on_c, 5, 43, 0
11, 16560, Note_on_c, 5, 43, 105
11, 16716, Note_on_c, 5, 43, 0
11, 16800, Note_on_c, 5, 43, 105
11, 16956, Note_on_c, 5, 43, 0
11, 17040, Note_on_c, 5, 43, 105
11, 17196, Note_on_c, 5, 43, 0
11, 17280, Note_on_c, 5, 43, 105
11, 17436, Note_on_c, 5, 43, 0
11, 17520, Note_on_c, 5, 43, 105
11, 17676, Note_on_c, 5, 43, 0
11, 17760, Note_on_c, 5, 45, 105
11, 17916, Note_on_c, 5, 45, 0
11, 18000, Note_on_c, 5, 45, 105
11, 18156, Note_on_c, 5, 45, 0
11, 18240, Note_on_c, 5, 47, 105
11, 18396, Note_on_c, 5, 47, 0
11, 18480, Note_on_c, 5, 47, 105
11, 18636, Note_on_c, 5, 47, 0
11, 18720, Note_on_c, 5, 42, 105
11, 18876, Note_on_c, 5, 42, 0
11, 18960, Note_on_c, 5, 42, 105
11, 19116, Note_on_c, 5, 42, 0
11, 19200, Note_on_c, 5, 43, 105
11, 19356, Note_on_c, 5, 43, 0
11, 19440, Note_on_c, 5, 43, 105
11, 19596, Note_on_c, 5, 43, 0
11, 19680, Note_on_c, 5, 45, 105
11, 19836, Note_on_c, 5, 45, 0
11, 19920, Note_on_c, 5, 45, 105
11, 20076, Note_on_c, 5, 45, 0
11, 20160, Note_on_c, 5, 47, 92
11, 20544, Note_on_c, 5, 47, 0
11, 23040, Note_on_c, 5, 38, 58
11, 24000, Note_on_c, 5, 38, 0
11, 24000, Note_on_c, 5, 40, 58
11, 24768, Note_on_c, 5, 40, 0
11, 24960, Note_on_c, 5, 36, 58
11, 25272, Note_on_c, 5, 36, 0
11, 25440, Note_on_c, 5, 36, 58
11, 25752, Note_on_c, 5, 36, 0
11, 25920, Note_on_c, 5, 38, 58
11, 26232, Note_on_c, 5, 38, 0
11, 26400, Note_on_c, 5, 38, 58
11, 26712, Note_on_c, 5, 38, 0
11, 26880, Note_on_c, 5, 35, 58
11, 27072, Note_on_c, 5, 35, 0
11, 27360, Note_on_c, 5, 38, 58
11, 27552, Note_on_c, 5, 38, 0
11, 27840, Note_on_c, 5, 43, 58
11, 28224, Note_on_c, 5, 43, 0
11, 30720, Note_on_c, 5, 38, 58
11, 31680, Note_on_c, 5, 38, 0
11, 31680, Note_on_c, 5, 40, 58
11, 32448, Note_on_c, 5, 40, 0
11, 32640, Note_on_c, 5, 36, 58
11, 32952, Note_on_c, 5, 36, 0
11, 33120, Note_on_c, 5, 36, 58
11, 33432, Note_on_c, 5, 36, 0
11, 33600, Note_on_c, 5, 38, 58
11, 33912, Note_on_c, 5, 38, 0
11, 34080, Note_on_c, 5, 38, 58
11, 34392, Note_on_c, 5, 38, 0
11, 34560, Note_on_c, 5, 43, 112
11, 34752, Note_on_c, 5, 43, 0
11, 34800, Note_on_c, 5, 43, 92
11, 34992, Note_on_c, 5, 43, 0
11, 35040, Note_on_c, 5, 43, 92
11, 35232, Note_on_c, 5, 43, 0
11, 35280, Note_on_c, 5, 43, 92
11, 35472, Note_on_c, 5, 43, 0
11, 35520, Note_on_c, 5, 43, 58
11, 35712, Note_on_c, 5, 43, 0
11, 35760, Note_on_c, 5, 43, 58
11, 35952, Note_on_c, 5, 43, 0
11, 36000, Note_on_c, 5, 43, 58
11, 36192, Note_on_c, 5, 43, 0
11, 36240, Note_on_c, 5, 43, 58
11, 36432, Note_on_c, 5, 43, 0
11, 36480, Note_on_c, 5, 43, 112
11, 36672, Note_on_c, 5, 43, 0
11, 36720, Note_on_c, 5, 43, 92
11, 36912, Note_on_c, 5, 43, 0
11, 36960, Note_on_c, 5, 43, 92
11, 37152, Note_on_c, 5, 43, 0
11, 37200, Note_on_c, 5, 43, 92
11, 37392, Note_on_c, 5, 43, 0
11, 37440, Note_on_c, 5, 43, 58
11, 37632, Note_on_c, 5, 43, 0
11, 37680, Note_on_c, 5, 43, 58
11, 37872, Note_on_c, 5, 43, 0
11, 37920, Note_on_c, 5, 43, 58
11, 38112, Note_on_c, 5, 43, 0
11, 38160, Note_on_c, 5, 43, 58
11, 38352, Note_on_c, 5, 43, 0
11, 38400, Note_on_c, 5, 43, 58
11, 38592, Note_on_c, 5, 43, 0
11, 38640, Note_on_c, 5, 43, 58
11, 38832, Note_on_c, 5, 43, 0
11, 38880, Note_on_c, 5, 43, 58
11, 39072, Note_on_c, 5, 43, 0
11, 39120, Note_on_c, 5, 43, 58
11, 39312, Note_on_c, 5, 43, 0
11, 39360, Note_on_c, 5, 43, 58
11, 39552, Note_on_c, 5, 43, 0
11, 39600, Note_on_c, 5, 43, 72
11, 39792, Note_on_c, 5, 43, 0
11, 39840, Note_on_c, 5, 43, 72
11, 40032, Note_on_c, 5, 43, 0
11, 40080, Note_on_c, 5, 43, 72
11, 40272, Note_on_c, 5, 43, 0
11, 40320, Note_on_c, 5, 43, 72
11, 40512, Note_on_c, 5, 43, 0
11, 40560, Note_on_c, 5, 43, 81
11, 40752, Note_on_c, 5, 43, 0
11, 40800, Note_on_c, 5, 42, 81
11, 40992, Note_on_c, 5, 42, 0
11, 41040, Note_on_c, 5, 42, 81
11, 41232, Note_on_c, 5, 42, 0
11, 41280, Note_on_c, 5, 43, 81
11, 41472, Note_on_c, 5, 43, 0
11, 41520, Note_on_c, 5, 43, 92
11, 41712, Note_on_c, 5, 43, 0
11, 41760, Note_on_c, 5, 40, 105
11, 41952, Note_on_c, 5, 40, 0
11, 42000, Note_on_c, 5, 40, 105
11, 42192, Note_on_c, 5, 40, 0
11, 42240, Note_on_c, 5, 38, 105
11, 42432, Note_on_c, 5, 38, 0
11, 42480, Note_on_c, 5, 38, 105
11, 42672, Note_on_c, 5, 38, 0
11, 42720, Note_on_c, 5, 38, 105
11, 42912, Note_on_c, 5, 38, 0
11, 42960, Note_on_c, 5, 38, 105
11, 43152, Note_on_c, 5, 38, 0
11, 43200, Note_on_c, 5, 38, 105
11, 43392, Note_on_c, 5, 38, 0
11, 43440, Note_on_c, 5, 38, 105
11, 43632, Note_on_c, 5, 38, 0
11, 43680, Note_on_c, 5, 38, 105
11, 43872, Note_on_c, 5, 38, 0
11, 43920, Note_on_c, 5, 38, 105
11, 44112, Note_on_c, 5, 38, 0
11, 44160, Note_on_c, 5, 38, 105
11, 44352, Note_on_c, 5, 38, 0
11, 44400, Note_on_c, 5, 38, 105
11, 44592, Note_on_c, 5, 38, 0
11, 44640, Note_on_c, 5, 38, 105
11, 44832, Note_on_c, 5, 38, 0
11, 44880, Note_on_c, 5, 38, 105
11, 45072, Note_on_c, 5, 38, 0
11, 45120, Note_on_c, 5, 38, 105
11, 45312, Note_on_c, 5, 38, 0
11, 45360, Note_on_c, 5, 38, 105
11, 45552, Note_on_c, 5, 38, 0
11, 45600, Note_on_c, 5, 38, 105
11, 45792, Note_on_c, 5, 38, 0
11, 45840, Note_on_c, 5, 38, 105
11, 46032, Note_on_c, 5, 38, 0
11, 46080, Note_on_c, 5, 38, 105
11, 46236, Note_on_c, 5, 38, 0
11, 46320, Note_on_c, 5, 40, 105
11, 46476, Note_on_c, 5, 40, 0
11, 46560, Note_on_c, 5, 42, 105
11, 46716, Note_on_c, 5, 42, 0
11, 46800, Note_on_c, 5, 40, 105
11, 46956, Note_on_c, 5, 40, 0
11, 47040, Note_on_c, 5, 38, 105
11, 47196, Note_on_c, 5, 38, 0
11, 47280, Note_on_c, 5, 40, 105
11, 47436, Note_on_c, 5, 40, 0
11, 47520, Note_on_c, 5, 42, 105
11, 47676, Note_on_c, 5, 42, 0
11, 47760, Note_on_c, 5, 38, 105
11, 47916, Note_on_c, 5, 38, 0
11, 48000, Note_on_c, 5, 43, 105
11, 48156, Note_on_c, 5, 43, 0
11, 48240, Note_on_c, 5, 45, 105
11, 48396, Note_on_c, 5, 45, 0
11, 48480, Note_on_c, 5, 47, 105
11, 48636, Note_on_c, 5, 47, 0
11, 48720, Note_on_c, 5, 45, 105
11, 48876, Note_on_c, 5, 45, 0
11, 48960, Note_on_c, 5, 43, 105
11, 49116, Note_on_c, 5, 43, 0
11, 49200, Note_on_c, 5, 45, 105
11, 49356, Note_on_c, 5, 45, 0
11, 49440, Note_on_c, 5, 47, 105
11, 49596, Note_on_c, 5, 47, 0
11, 49680, Note_on_c, 5, 44, 105
11, 49836, Note_on_c, 5, 44, 0
11, 49920, Note_on_c, 5, 45, 105
11, 50076, Note_on_c, 5, 45, 0
11, 50160, Note_on_c, 5, 45, 105
11, 50316, Note_on_c, 5, 45, 0
11, 50400, Note_on_c, 5, 45, 105
11, 50556, Note_on_c, 5, 45, 0
11, 50640, Note_on_c, 5, 45, 105
11, 50796, Note_on_c, 5, 45, 0
11, 50880, Note_on_c, 5, 45, 105
11, 51036, Note_on_c, 5, 45, 0
11, 51120, Note_on_c, 5, 45, 105
11, 51276, Note_on_c, 5, 45, 0
11, 51360, Note_on_c, 5, 45, 105
11, 51516, Note_on_c, 5, 45, 0
11, 51600, Note_on_c, 5, 45, 105
11, 51756, Note_on_c, 5, 45, 0
11, 51840, Note_on_c, 5, 45, 105
11, 51996, Note_on_c, 5, 45, 0
11, 52080, Note_on_c, 5, 33, 105
11, 52236, Note_on_c, 5, 33, 0
11, 52320, Note_on_c, 5, 33, 105
11, 52476, Note_on_c, 5, 33, 0
11, 52560, Note_on_c, 5, 33, 105
11, 52716, Note_on_c, 5, 33, 0
11, 52800, Note_on_c, 5, 33, 92
11, 53184, Note_on_c, 5, 33, 0
11, 55200, Note_on_c, 5, 39, 58
11, 55392, Note_on_c, 5, 39, 0
11, 55680, Note_on_c, 5, 40, 58
11, 55872, Note_on_c, 5, 40, 0
11, 56160, Note_on_c, 5, 38, 58
11, 56352, Note_on_c, 5, 38, 0
11, 56640, Note_on_c, 5, 37, 58
11, 56832, Note_on_c, 5, 37, 0
11, 57120, Note_on_c, 5, 33, 58
11, 57312, Note_on_c, 5, 33, 0
11, 58080, Note_on_c, 5, 34, 58
11, 58464, Note_on_c, 5, 34, 0
11, 58560, Note_on_c, 5, 35, 58
11, 58752, Note_on_c, 5, 35, 0
11, 59040, Note_on_c, 5, 31, 58
11, 59232, Note_on_c, 5, 31, 0
11, 59520, Note_on_c, 5, 33, 58
11, 59904, Note_on_c, 5, 33, 0
11, 60000, Note_on_c, 5, 45, 58
11, 60720, Note_on_c, 5, 45, 0
11, 60720, Note_on_c, 5, 44, 58
11, 60960, Note_on_c, 5, 44, 0
11, 60960, Note_on_c, 5, 43, 58
11, 61200, Note_on_c, 5, 43, 0
11, 61200, Note_on_c, 5, 40, 58
11, 61440, Note_on_c, 5, 40, 0
11, 61440, Note_on_c, 5, 38, 58
11, 61632, Note_on_c, 5, 38, 0
11, 61920, Note_on_c, 5, 40, 58
11, 62112, Note_on_c, 5, 40, 0
11, 62400, Note_on_c, 5, 42, 58
11, 62592, Note_on_c, 5, 42, 0
11, 62880, Note_on_c, 5, 39, 58
11, 63072, Note_on_c, 5, 39, 0
11, 63360, Note_on_c, 5, 40, 58
11, 63552, Note_on_c, 5, 40, 0
11, 63840, Note_on_c, 5, 38, 58
11, 64032, Note_on_c, 5, 38, 0
11, 64320, Note_on_c, 5, 37, 58
11, 64512, Note_on_c, 5, 37, 0
11, 64800, Note_on_c, 5, 33, 58
11, 64992, Note_on_c, 5, 33, 0
11, 65280, Note_on_c, 5, 35, 58
11, 65472, Note_on_c, 5, 35, 0
11, 65760, Note_on_c, 5, 43, 58
11, 65952, Note_on_c, 5, 43, 0
11, 66240, Note_on_c, 5, 45, 58
11, 66432, Note_on_c, 5, 45, 0
11, 66720, Note_on_c, 5, 33, 58
11, 66912, Note_on_c, 5, 33, 0
11, 67200, Note_on_c, 5, 38, 58
11, 67584, Note_on_c, 5, 38, 0
11, 69120, Note_on_c, 5, 33, 58
11, 69504, Note_on_c, 5, 33, 0
11, 71040, Note_on_c, 5, 38, 58
11, 71424, Note_on_c, 5, 38, 0
11, 72960, Note_on_c, 5, 33, 58
11, 73344, Note_on_c, 5, 33, 0
11, 75120, Note_on_c, 5, 38, 105
11, 75276, Note_on_c, 5, 38, 0
11, 75360, Note_on_c, 5, 42, 105
11, 75516, Note_on_c, 5, 42, 0
11, 75600, Note_on_c, 5, 40, 105
11, 75756, Note_on_c, 5, 40, 0
11, 75840, Note_on_c, 5, 39, 105
11, 75996, Note_on_c, 5, 39, 0
11, 76080, Note_on_c, 5, 35, 105
11, 76236, Note_on_c, 5, 35, 0
11, 76320, Note_on_c, 5, 37, 105
11, 76476, Note_on_c, 5, 37, 0
11, 76560, Note_on_c, 5, 39, 105
11, 76716, Note_on_c, 5, 39, 0
11, 76800, Note_on_c, 5, 40, 105
11, 76956, Note_on_c, 5, 40, 0
11, 77040, Note_on_c, 5, 43, 105
11, 77196, Note_on_c, 5, 43, 0
11, 77280, Note_on_c, 5, 40, 105
11, 77436, Note_on_c, 5, 40, 0
11, 77520, Note_on_c, 5, 38, 105
11, 77676, Note_on_c, 5, 38, 0
11, 77760, Note_on_c, 5, 37, 105
11, 77916, Note_on_c, 5, 37, 0
11, 78000, Note_on_c, 5, 33, 105
11, 78156, Note_on_c, 5, 33, 0
11, 78240, Note_on_c, 5, 35, 105
11, 78396, Note_on_c, 5, 35, 0
11, 78480, Note_on_c, 5, 37, 105
11, 78636, Note_on_c, 5, 37, 0
11, 78720, Note_on_c, 5, 38, 105
11, 78876, Note_on_c, 5, 38, 0
11, 78960, Note_on_c, 5, 38, 105
11, 79116, Note_on_c, 5, 38, 0
11, 79200, Note_on_c, 5, 40, 105
11, 79356, Note_on_c, 5, 40, 0
11, 79440, Note_on_c, 5, 42, 105
11, 79596, Note_on_c, 5, 42, 0
11, 79680, Note_on_c, 5, 43, 105
11, 79836, Note_on_c, 5, 43, 0
11, 79920, Note_on_c, 5, 43, 105
11, 80076, Note_on_c, 5, 43, 0
11, 80160, Note_on_c, 5, 43, 105
11, 80316, Note_on_c, 5, 43, 0
11, 80400, Note_on_c, 5, 43, 105
11, 80556, Note_on_c, 5, 43, 0
11, 80640, Note_on_c, 5, 45, 105
11, 80796, Note_on_c, 5, 45, 0
11, 80880, Note_on_c, 5, 45, 105
11, 81036, Note_on_c, 5, 45, 0
11, 81120, Note_on_c, 5, 45, 105
11, 81276, Note_on_c, 5, 45, 0
11, 81360, Note_on_c, 5, 45, 105
11, 81516, Note_on_c, 5, 45, 0
11, 81600, Note_on_c, 5, 33, 105
11, 81756, Note_on_c, 5, 33, 0
11, 81840, Note_on_c, 5, 33, 105
11, 81996, Note_on_c, 5, 33, 0
11, 82080, Note_on_c, 5, 33, 105
11, 82236, Note_on_c, 5, 33, 0
11, 82320, Note_on_c, 5, 33, 105
11, 82476, Note_on_c, 5, 33, 0
11, 82560, Note_on_c, 5, 38, 92
11, 82944, Note_on_c, 5, 38, 0
11, 84480, Note_on_c, 5, 33, 58
11, 84864, Note_on_c, 5, 33, 0
11, 86400, Note_on_c, 5, 38, 58
11, 86784, Note_on_c, 5, 38, 0
11, 88320, Note_on_c, 5, 33, 58
11, 88704, Note_on_c, 5, 33, 0
11, 90480, Note_on_c, 5, 38, 105
11, 90636, Note_on_c, 5, 38, 0
11, 90720, Note_on_c, 5, 42, 105
11, 90876, Note_on_c, 5, 42, 0
11, 90960, Note_on_c, 5, 40, 105
11, 91116, Note_on_c, 5, 40, 0
11, 91200, Note_on_c, 5, 39, 105
11, 91356, Note_on_c, 5, 39, 0
11, 91440, Note_on_c, 5, 35, 105
11, 91596, Note_on_c, 5, 35, 0
11, 91680, Note_on_c, 5, 37, 105
11, 91836, Note_on_c, 5, 37, 0
11, 91920, Note_on_c, 5, 39, 105
11, 92076, Note_on_c, 5, 39, 0
11, 92160, Note_on_c, 5, 40, 105
11, 92316, Note_on_c, 5, 40, 0
11, 92400, Note_on_c, 5, 43, 105
11, 92556, Note_on_c, 5, 43, 0
11, 92640, Note_on_c, 5, 40, 105
11, 92796, Note_on_c, 5, 40, 0
11, 92880, Note_on_c, 5, 38, 105
11, 93036, Note_on_c, 5, 38, 0
11, 93120, Note_on_c, 5, 37, 105
11, 93276, Note_on_c, 5, 37, 0
11, 93360, Note_on_c, 5, 33, 105
11, 93516, Note_on_c, 5, 33, 0
11, 93600, Note_on_c, 5, 35, 105
11, 93756, Note_on_c, 5, 35, 0
11, 93840, Note_on_c, 5, 37, 105
11, 93996, Note_on_c, 5, 37, 0
11, 94080, Note_on_c, 5, 38, 105
11, 94236, Note_on_c, 5, 38, 0
11, 94320, Note_on_c, 5, 38, 105
11, 94476, Note_on_c, 5, 38, 0
11, 94560, Note_on_c, 5, 40, 105
11, 94716, Note_on_c, 5, 40, 0
11, 94800, Note_on_c, 5, 42, 105
11, 94956, Note_on_c, 5, 42, 0
11, 95040, Note_on_c, 5, 43, 105
11, 95196, Note_on_c, 5, 43, 0
11, 95280, Note_on_c, 5, 43, 105
11, 95436, Note_on_c, 5, 43, 0
11, 95520, Note_on_c, 5, 43, 105
11, 95676, Note_on_c, 5, 43, 0
11, 95760, Note_on_c, 5, 43, 105
11, 95916, Note_on_c, 5, 43, 0
11, 96000, Note_on_c, 5, 45, 105
11, 96156, Note_on_c, 5, 45, 0
11, 96240, Note_on_c, 5, 45, 105
11, 96396, Note_on_c, 5, 45, 0
11, 96480, Note_on_c, 5, 45, 105
11, 96636, Note_on_c, 5, 45, 0
11, 96720, Note_on_c, 5, 45, 105
11, 96876, Note_on_c, 5, 45, 0
11, 96960, Note_on_c, 5, 33, 105
11, 97116, Note_on_c, 5, 33, 0
11, 97200, Note_on_c, 5, 33, 105
11, 97356, Note_on_c, 5, 33, 0
11, 97440, Note_on_c, 5, 33, 105
11, 97596, Note_on_c, 5, 33, 0
11, 97680, Note_on_c, 5, 33, 105
11, 97836, Note_on_c, 5, 33, 0
11, 97920, Note_on_c, 5, 38, 105
11, 98076, Note_on_c, 5, 38, 0
11, 98160, Note_on_c, 5, 33, 105
11, 98316, Note_on_c, 5, 33, 0
11, 98400, Note_on_c, 5, 35, 105
11, 98556, Note_on_c, 5, 35, 0
11, 98640, Note_on_c, 5, 37, 105
11, 98796, Note_on_c, 5, 37, 0
11, 98880, Note_on_c, 5, 38, 105
11, 99036, Note_on_c, 5, 38, 0
11, 99120, Note_on_c, 5, 38, 105
11, 99276, Note_on_c, 5, 38, 0
11, 99360, Note_on_c, 5, 40, 105
11, 99516, Note_on_c, 5, 40, 0
11, 99600, Note_on_c, 5, 40, 105
11, 99756, Note_on_c, 5, 40, 0
11, 99840, Note_on_c, 5, 42, 105
11, 99996, Note_on_c, 5, 42, 0
11, 100080, Note_on_c, 5, 37, 105
11, 100236, Note_on_c, 5, 37, 0
11, 100320, Note_on_c, 5, 38, 105
11, 100476, Note_on_c, 5, 38, 0
11, 100560, Note_on_c, 5, 40, 105
11, 100716, Note_on_c, 5, 40, 0
11, 100800, Note_on_c, 5, 42, 105
11, 100956, Note_on_c, 5, 42, 0
11, 101040, Note_on_c, 5, 42, 105
11, 101196, Note_on_c, 5, 42, 0
11, 101280, Note_on_c, 5, 43, 105
11, 101436, Note_on_c, 5, 43, 0
11, 101520, Note_on_c, 5, 43, 105
11, 101676, Note_on_c, 5, 43, 0
11, 101760, Note_on_c, 5, 45, 105
11, 101916, Note_on_c, 5, 45, 0
11, 102000, Note_on_c, 5, 45, 105
11, 102156, Note_on_c, 5, 45, 0
11, 102240, Note_on_c, 5, 46, 105
11, 102396, Note_on_c, 5, 46, 0
11, 102480, Note_on_c, 5, 46, 105
11, 102636, Note_on_c, 5, 46, 0
11, 102720, Note_on_c, 5, 47, 92
11, 103104, Note_on_c, 5, 47, 0
11, 103680, Note_on_c, 5, 43, 58
11, 104640, Note_on_c, 5, 43, 0
11, 104640, Note_on_c, 5, 45, 58
11, 105552, Note_on_c, 5, 45, 0
11, 105600, Note_on_c, 5, 38, 58
11, 105792, Note_on_c, 5, 38, 0
11, 106080, Note_on_c, 5, 38, 58
11, 106272, Note_on_c, 5, 38, 0
11, 106560, Note_on_c, 5, 38, 58
11, 106752, Note_on_c, 5, 38, 0
11, 107520, Note_on_c, 5, 43, 105
11, 107904, Note_on_c, 5, 43, 0
11, 108240, Note_on_c, 5, 38, 105
11, 108384, Note_on_c, 5, 38, 0
11, 108480, Note_on_c, 5, 43, 105
11, 108864, Note_on_c, 5, 43, 0
11, 109200, Note_on_c, 5, 38, 105
11, 109344, Note_on_c, 5, 38, 0
11, 109440, Note_on_c, 5, 43, 105
11, 109584, Note_on_c, 5, 43, 0
11, 109680, Note_on_c, 5, 38, 105
11, 109824, Note_on_c, 5, 38, 0
11, 109920, Note_on_c, 5, 43, 105
11, 110064, Note_on_c, 5, 43, 0
11, 110160, Note_on_c, 5, 47, 105
11, 110304, Note_on_c, 5, 47, 0
11, 110400, Note_on_c, 5, 50, 105
11, 110784, Note_on_c, 5, 50, 0
11, 111360, Note_on_c, 5, 48, 105
11, 111744, Note_on_c, 5, 48, 0
11, 112080, Note_on_c, 5, 45, 105
11, 112224, Note_on_c, 5, 45, 0
11, 112320, Note_on_c, 5, 48, 105
11, 112704, Note_on_c, 5, 48, 0
11, 113040, Note_on_c, 5, 45, 105
11, 113184, Note_on_c, 5, 45, 0
11, 113280, Note_on_c, 5, 48, 105
11, 113424, Note_on_c, 5, 48, 0
11, 113520, Note_on_c, 5, 45, 105
11, 113664, Note_on_c, 5, 45, 0
11, 113760, Note_on_c, 5, 42, 105
11, 113904, Note_on_c, 5, 42, 0
11, 114000, Note_on_c, 5, 45, 105
11, 114144, Note_on_c, 5, 45, 0
11, 114240, Note_on_c, 5, 38, 105
11, 114624, Note_on_c, 5, 38, 0
11, 115200, Note_on_c, 5, 43, 105
11, 115356, Note_on_c, 5, 43, 0
11, 115440, Note_on_c, 5, 43, 105
11, 115596, Note_on_c, 5, 43, 0
11, 115680, Note_on_c, 5, 43, 105
11, 115836, Note_on_c, 5, 43, 0
11, 115920, Note_on_c, 5, 43, 105
11, 116076, Note_on_c, 5, 43, 0
11, 116160, Note_on_c, 5, 43, 105
11, 116316, Note_on_c, 5, 43, 0
11, 116400, Note_on_c, 5, 43, 105
11, 116556, Note_on_c, 5, 43, 0
11, 116640, Note_on_c, 5, 43, 105
11, 116796, Note_on_c, 5, 43, 0
11, 116880, Note_on_c, 5, 43, 105
11, 117036, Note_on_c, 5, 43, 0
11, 117120, Note_on_c, 5, 43, 105
11, 117276, Note_on_c, 5, 43, 0
11, 117360, Note_on_c, 5, 43, 105
11, 117516, Note_on_c, 5, 43, 0
11, 117600, Note_on_c, 5, 43, 105
11, 117756, Note_on_c, 5, 43, 0
11, 117840, Note_on_c, 5, 43, 105
11, 117996, Note_on_c, 5, 43, 0
11, 118080, Note_on_c, 5, 43, 105
11, 118236, Note_on_c, 5, 43, 0
11, 118320, Note_on_c, 5, 43, 105
11, 118476, Note_on_c, 5, 43, 0
11, 118560, Note_on_c, 5, 43, 105
11, 118716, Note_on_c, 5, 43, 0
11, 118800, Note_on_c, 5, 43, 105
11, 118956, Note_on_c, 5, 43, 0
11, 119040, Note_on_c, 5, 43, 105
11, 119196, Note_on_c, 5, 43, 0
11, 119280, Note_on_c, 5, 43, 105
11, 119436, Note_on_c, 5, 43, 0
11, 119520, Note_on_c, 5, 43, 105
11, 119676, Note_on_c, 5, 43, 0
11, 119760, Note_on_c, 5, 43, 105
11, 119916, Note_on_c, 5, 43, 0
11, 120000, Note_on_c, 5, 43, 105
11, 120156, Note_on_c, 5, 43, 0
11, 120240, Note_on_c, 5, 43, 105
11, 120396, Note_on_c, 5, 43, 0
11, 120480, Note_on_c, 5, 43, 105
11, 120636, Note_on_c, 5, 43, 0
11, 120720, Note_on_c, 5, 43, 105
11, 120876, Note_on_c, 5, 43, 0
11, 120960, Note_on_c, 5, 43, 105
11, 121116, Note_on_c, 5, 43, 0
11, 121200, Note_on_c, 5, 43, 105
11, 121356, Note_on_c, 5, 43, 0
11, 121440, Note_on_c, 5, 43, 105
11, 121596, Note_on_c, 5, 43, 0
11, 121680, Note_on_c, 5, 43, 105
11, 121836, Note_on_c, 5, 43, 0
11, 121920, Note_on_c, 5, 43, 105
11, 122076, Note_on_c, 5, 43, 0
11, 122160, Note_on_c, 5, 43, 105
11, 122316, Note_on_c, 5, 43, 0
11, 122400, Note_on_c, 5, 43, 105
11, 122556, Note_on_c, 5, 43, 0
11, 122640, Note_on_c, 5, 43, 105
11, 122796, Note_on_c, 5, 43, 0
11, 122880, Note_on_c, 5, 43, 105
11, 123036, Note_on_c, 5, 43, 0
11, 123120, Note_on_c, 5, 43, 105
11, 123276, Note_on_c, 5, 43, 0
11, 123360, Note_on_c, 5, 45, 105
11, 123516, Note_on_c, 5, 45, 0
11, 123600, Note_on_c, 5, 45, 105
11, 123756, Note_on_c, 5, 45, 0
11, 123840, Note_on_c, 5, 47, 105
11, 123996, Note_on_c, 5, 47, 0
11, 124080, Note_on_c, 5, 47, 105
11, 124236, Note_on_c, 5, 47, 0
11, 124320, Note_on_c, 5, 42, 105
11, 124476, Note_on_c, 5, 42, 0
11, 124560, Note_on_c, 5, 42, 105
11, 124716, Note_on_c, 5, 42, 0
11, 124800, Note_on_c, 5, 43, 105
11, 124956, Note_on_c, 5, 43, 0
11, 125040, Note_on_c, 5, 43, 105
11, 125196, Note_on_c, 5, 43, 0
11, 125280, Note_on_c, 5, 45, 105
11, 125436, Note_on_c, 5, 45, 0
11, 125520, Note_on_c, 5, 45, 105
11, 125676, Note_on_c, 5, 45, 0
11, 125760, Note_on_c, 5, 47, 92
11, 126144, Note_on_c, 5, 47, 0
11, 128640, Note_on_c, 5, 38, 58
11, 129600, Note_on_c, 5, 38, 0
11, 129600, Note_on_c, 5, 40, 58
11, 130368, Note_on_c, 5, 40, 0
11, 130560, Note_on_c, 5, 36, 58
11, 130872, Note_on_c, 5, 36, 0
11, 131040, Note_on_c, 5, 36, 58
11, 131352, Note_on_c, 5, 36, 0
11, 131520, Note_on_c, 5, 38, 58
11, 131832, Note_on_c, 5, 38, 0
11, 132000, Note_on_c, 5, 38, 58
11, 132312, Note_on_c, 5, 38, 0
11, 132480, Note_on_c, 5, 35, 58
11, 132672, Note_on_c, 5, 35, 0
11, 132960, Note_on_c, 5, 38, 58
11, 133152, Note_on_c, 5, 38, 0
11, 133440, Note_on_c, 5, 43, 58
11, 133824, Note_on_c, 5, 43, 0
11, 136320, Note_on_c, 5, 38, 58
11, 137280, Note_on_c, 5, 38, 0
11, 137280, Note_on_c, 5, 40, 58
11, 138048, Note_on_c, 5, 40, 0
11, 138240, Note_on_c, 5, 36, 58
11, 138552, Note_on_c, 5, 36, 0
11, 138720, Note_on_c, 5, 36, 58
11, 139032, Note_on_c, 5, 36, 0
11, 139200, Note_on_c, 5, 38, 58
11, 139512, Note_on_c, 5, 38, 0
11, 139680, Note_on_c, 5, 38, 58
11, 139992, Note_on_c, 5, 38, 0
11, 140160, Note_on_c, 5, 43, 112
11, 140352, Note_on_c, 5, 43, 0
11, 140400, Note_on_c, 5, 43, 92
11, 140592, Note_on_c, 5, 43, 0
11, 140640, Note_on_c, 5, 43, 92
11, 140832, Note_on_c, 5, 43, 0
11, 140880, Note_on_c, 5, 43, 92
11, 141072, Note_on_c, 5, 43, 0
11, 141120, Note_on_c, 5, 43, 58
11, 141312, Note_on_c, 5, 43, 0
11, 141360, Note_on_c, 5, 43, 58
11, 141552, Note_on_c, 5, 43, 0
11, 141600, Note_on_c, 5, 43, 58
11, 141792, Note_on_c, 5, 43, 0
11, 141840, Note_on_c, 5, 43, 58
11, 142032, Note_on_c, 5, 43, 0
11, 142080, Note_on_c, 5, 43, 112
11, 142272, Note_on_c, 5, 43, 0
11, 142320, Note_on_c, 5, 43, 92
11, 142512, Note_on_c, 5, 43, 0
11, 142560, Note_on_c, 5, 43, 92
11, 142752, Note_on_c, 5, 43, 0
11, 142800, Note_on_c, 5, 43, 92
11, 142992, Note_on_c, 5, 43, 0
11, 143040, Note_on_c, 5, 43, 58
11, 143232, Note_on_c, 5, 43, 0
11, 143280, Note_on_c, 5, 43, 58
11, 143472, Note_on_c, 5, 43, 0
11, 143520, Note_on_c, 5, 43, 58
11, 143712, Note_on_c, 5, 43, 0
11, 143760, Note_on_c, 5, 43, 58
11, 143952, Note_on_c, 5, 43, 0
11, 144000, Note_on_c, 5, 43, 58
11, 144192, Note_on_c, 5, 43, 0
11, 144240, Note_on_c, 5, 43, 58
11, 144432, Note_on_c, 5, 43, 0
11, 144480, Note_on_c, 5, 43, 58
11, 144672, Note_on_c, 5, 43, 0
11, 144720, Note_on_c, 5, 43, 58
11, 144912, Note_on_c, 5, 43, 0
11, 144960, Note_on_c, 5, 43, 58
11, 145152, Note_on_c, 5, 43, 0
11, 145200, Note_on_c, 5, 43, 72
11, 145392, Note_on_c, 5, 43, 0
11, 145440, Note_on_c, 5, 43, 72
11, 145632, Note_on_c, 5, 43, 0
11, 145680, Note_on_c, 5, 43, 72
11, 145872, Note_on_c, 5, 43, 0
11, 145920, Note_on_c, 5, 43, 72
11, 146112, Note_on_c, 5, 43, 0
11, 146160, Note_on_c, 5, 43, 81
11, 146352, Note_on_c, 5, 43, 0
11, 146400, Note_on_c, 5, 42, 81
11, 146592, Note_on_c, 5, 42, 0
11, 146640, Note_on_c, 5, 42, 81
11, 146832, Note_on_c, 5, 42, 0
11, 146880, Note_on_c, 5, 43, 81
11, 147072, Note_on_c, 5, 43, 0
11, 147120, Note_on_c, 5, 43, 92
11, 147312, Note_on_c, 5, 43, 0
11, 147360, Note_on_c, 5, 40, 105
11, 147552, Note_on_c, 5, 40, 0
11, 147600, Note_on_c, 5, 40, 105
11, 147792, Note_on_c, 5, 40, 0
11, 147840, Note_on_c, 5, 38, 105
11, 148032, Note_on_c, 5, 38, 0
11, 148080, Note_on_c, 5, 38, 105
11, 148272, Note_on_c, 5, 38, 0
11, 148320, Note_on_c, 5, 38, 105
11, 148512, Note_on_c, 5, 38, 0
11, 148560, Note_on_c, 5, 38, 105
11, 148752, Note_on_c, 5, 38, 0
11, 148800, Note_on_c, 5, 38, 105
11, 148992, Note_on_c, 5, 38, 0
11, 149040, Note_on_c, 5, 38, 105
11, 149232, Note_on_c, 5, 38, 0
11, 149280, Note_on_c, 5, 38, 105
11, 149472, Note_on_c, 5, 38, 0
11, 149520, Note_on_c, 5, 38, 105
11, 149712, Note_on_c, 5, 38, 0
11, 149760, Note_on_c, 5, 38, 105
11, 149952, Note_on_c, 5, 38, 0
11, 150000, Note_on_c, 5, 38, 105
11, 150192, Note_on_c, 5, 38, 0
11, 150240, Note_on_c, 5, 38, 105
11, 150432, Note_on_c, 5, 38, 0
11, 150480, Note_on_c, 5, 38, 105
11, 150672, Note_on_c, 5, 38, 0
11, 150720, Note_on_c, 5, 38, 105
11, 150912, Note_on_c, 5, 38, 0
11, 150960, Note_on_c, 5, 38, 105
11, 151152, Note_on_c, 5, 38, 0
11, 151200, Note_on_c, 5, 38, 105
11, 151392, Note_on_c, 5, 38, 0
11, 151440, Note_on_c, 5, 38, 105
11, 151632, Note_on_c, 5, 38, 0
11, 151680, Note_on_c, 5, 38, 105
11, 151836, Note_on_c, 5, 38, 0
11, 151920, Note_on_c, 5, 40, 105
11, 152076, Note_on_c, 5, 40, 0
11, 152160, Note_on_c, 5, 42, 105
11, 152316, Note_on_c, 5, 42, 0
11, 152400, Note_on_c, 5, 40, 105
11, 152556, Note_on_c, 5, 40, 0
11, 152640, Note_on_c, 5, 38, 105
11, 152796, Note_on_c, 5, 38, 0
11, 152880, Note_on_c, 5, 40, 105
11, 153036, Note_on_c, 5, 40, 0
11, 153120, Note_on_c, 5, 42, 105
11, 153276, Note_on_c, 5, 42, 0
11, 153360, Note_on_c, 5, 38, 105
11, 153516, Note_on_c, 5, 38, 0
11, 153600, Note_on_c, 5, 43, 105
11, 153756, Note_on_c, 5, 43, 0
11, 153840, Note_on_c, 5, 45, 105
11, 153996, Note_on_c, 5, 45, 0
11, 154080, Note_on_c, 5, 47, 105
11, 154236, Note_on_c, 5, 47, 0
11, 154320, Note_on_c, 5, 45, 105
11, 154476, Note_on_c, 5, 45, 0
11, 154560, Note_on_c, 5, 43, 105
11, 154716, Note_on_c, 5, 43, 0
11, 154800, Note_on_c, 5, 45, 105
11, 154956, Note_on_c, 5, 45, 0
11, 155040, Note_on_c, 5, 47, 105
11, 155196, Note_on_c, 5, 47, 0
11, 155280, Note_on_c, 5, 44, 105
11, 155436, Note_on_c, 5, 44, 0
11, 155520, Note_on_c, 5, 45, 105
11, 155676, Note_on_c, 5, 45, 0
11, 155760, Note_on_c, 5, 45, 105
11, 155916, Note_on_c, 5, 45, 0
11, 156000, Note_on_c, 5, 45, 105
11, 156156, Note_on_c, 5, 45, 0
11, 156240, Note_on_c, 5, 45, 105
11, 156396, Note_on_c, 5, 45, 0
11, 156480, Note_on_c, 5, 45, 105
11, 156636, Note_on_c, 5, 45, 0
11, 156720, Note_on_c, 5, 45, 105
11, 156876, Note_on_c, 5, 45, 0
11, 156960, Note_on_c, 5, 45, 105
11, 157116, Note_on_c, 5, 45, 0
11, 157200, Note_on_c, 5, 45, 105
11, 157356, Note_on_c, 5, 45, 0
11, 157440, Note_on_c, 5, 45, 105
11, 157596, Note_on_c, 5, 45, 0
11, 157680, Note_on_c, 5, 33, 105
11, 157836, Note_on_c, 5, 33, 0
11, 157920, Note_on_c, 5, 33, 105
11, 158076, Note_on_c, 5, 33, 0
11, 158160, Note_on_c, 5, 33, 105
11, 158316, Note_on_c, 5, 33, 0
11, 158400, Note_on_c, 5, 33, 92
11, 158784, Note_on_c, 5, 33, 0
11, 160800, Note_on_c, 5, 39, 58
11, 160992, Note_on_c, 5, 39, 0
11, 161280, Note_on_c, 5, 40, 58
11, 161472, Note_on_c, 5, 40, 0
11, 161760, Note_on_c, 5, 38, 58
11, 161952, Note_on_c, 5, 38, 0
11, 162240, Note_on_c, 5, 37, 58
11, 162432, Note_on_c, 5, 37, 0
11, 162720, Note_on_c, 5, 33, 58
11, 162912, Note_on_c, 5, 33, 0
11, 163680, Note_on_c, 5, 34, 58
11, 164064, Note_on_c, 5, 34, 0
11, 164160, Note_on_c, 5, 35, 58
11, 164352, Note_on_c, 5, 35, 0
11, 164640, Note_on_c, 5, 31, 58
11, 164832, Note_on_c, 5, 31, 0
11, 165120, Note_on_c, 5, 33, 58
11, 165504, Note_on_c, 5, 33, 0
11, 165600, Note_on_c, 5, 45, 58
11, 166320, Note_on_c, 5, 45, 0
11, 166320, Note_on_c, 5, 44, 58
11, 166560, Note_on_c, 5, 44, 0
11, 166560, Note_on_c, 5, 43, 58
11, 166800, Note_on_c, 5, 43, 0
11, 166800, Note_on_c, 5, 40, 58
11, 167040, Note_on_c, 5, 40, 0
11, 167040, Note_on_c, 5, 38, 58
11, 167232, Note_on_c, 5, 38, 0
11, 167520, Note_on_c, 5, 40, 58
11, 167712, Note_on_c, 5, 40, 0
11, 168000, Note_on_c, 5, 42, 58
11, 168192, Note_on_c, 5, 42, 0
11, 168480, Note_on_c, 5, 39, 58
11, 168672, Note_on_c, 5, 39, 0
11, 168960, Note_on_c, 5, 40, 58
11, 169152, Note_on_c, 5, 40, 0
11, 169440, Note_on_c, 5, 38, 58
11, 169632, Note_on_c, 5, 38, 0
11, 169920, Note_on_c, 5, 37, 58
11, 170112, Note_on_c, 5, 37, 0
11, 170400, Note_on_c, 5, 33, 58
11, 170592, Note_on_c, 5, 33, 0
11, 170880, Note_on_c, 5, 35, 58
11, 171072, Note_on_c, 5, 35, 0
11, 171360, Note_on_c, 5, 43, 58
11, 171552, Note_on_c, 5, 43, 0
11, 171840, Note_on_c, 5, 45, 58
11, 172032, Note_on_c, 5, 45, 0
11, 172320, Note_on_c, 5, 33, 58
11, 172512, Note_on_c, 5, 33, 0
11, 172800, Note_on_c, 5, 38, 58
11, 173184, Note_on_c, 5, 38, 0
11, 174720, Note_on_c, 5, 33, 58
11, 175104, Note_on_c, 5, 33, 0
11, 176640, Note_on_c, 5, 38, 58
11, 177024, Note_on_c, 5, 38, 0
11, 178560, Note_on_c, 5, 33, 58
11, 178944, Note_on_c, 5, 33, 0
11, 180720, Note_on_c, 5, 38, 105
11, 180876, Note_on_c, 5, 38, 0
11, 180960, Note_on_c, 5, 42, 105
11, 181116, Note_on_c, 5, 42, 0
11, 181200, Note_on_c, 5, 40, 105
11, 181356, Note_on_c, 5, 40, 0
11, 181440, Note_on_c, 5, 39, 105
11, 181596, Note_on_c, 5, 39, 0
11, 181680, Note_on_c, 5, 35, 105
11, 181836, Note_on_c, 5, 35, 0
11, 181920, Note_on_c, 5, 37, 105
11, 182076, Note_on_c, 5, 37, 0
11, 182160, Note_on_c, 5, 39, 105
11, 182316, Note_on_c, 5, 39, 0
11, 182400, Note_on_c, 5, 40, 105
11, 182556, Note_on_c, 5, 40, 0
11, 182640, Note_on_c, 5, 43, 105
11, 182796, Note_on_c, 5, 43, 0
11, 182880, Note_on_c, 5, 40, 105
11, 183036, Note_on_c, 5, 40, 0
11, 183120, Note_on_c, 5, 38, 105
11, 183276, Note_on_c, 5, 38, 0
11, 183360, Note_on_c, 5, 37, 105
11, 183516, Note_on_c, 5, 37, 0
11, 183600, Note_on_c, 5, 33, 105
11, 183756, Note_on_c, 5, 33, 0
11, 183840, Note_on_c, 5, 35, 105
11, 183996, Note_on_c, 5, 35, 0
11, 184080, Note_on_c, 5, 37, 105
11, 184236, Note_on_c, 5, 37, 0
11, 184320, Note_on_c, 5, 38, 105
11, 184476, Note_on_c, 5, 38, 0
11, 184560, Note_on_c, 5, 38, 105
11, 184716, Note_on_c, 5, 38, 0
11, 184800, Note_on_c, 5, 40, 105
11, 184956, Note_on_c, 5, 40, 0
11, 185040, Note_on_c, 5, 42, 105
11, 185196, Note_on_c, 5, 42, 0
11, 185280, Note_on_c, 5, 43, 105
11, 185436, Note_on_c, 5, 43, 0
11, 185520, Note_on_c, 5, 43, 105
11, 185676, Note_on_c, 5, 43, 0
11, 185760, Note_on_c, 5, 43, 105
11, 185916, Note_on_c, 5, 43, 0
11, 186000, Note_on_c, 5, 43, 105
11, 186156, Note_on_c, 5, 43, 0
11, 186240, Note_on_c, 5, 45, 105
11, 186396, Note_on_c, 5, 45, 0
11, 186480, Note_on_c, 5, 45, 105
11, 186636, Note_on_c, 5, 45, 0
11, 186720, Note_on_c, 5, 45, 105
11, 186876, Note_on_c, 5, 45, 0
11, 186960, Note_on_c, 5, 45, 105
11, 187116, Note_on_c, 5, 45, 0
11, 187200, Note_on_c, 5, 33, 105
11, 187356, Note_on_c, 5, 33, 0
11, 187440, Note_on_c, 5, 33, 105
11, 187596, Note_on_c, 5, 33, 0
11, 187680, Note_on_c, 5, 33, 105
11, 187836, Note_on_c, 5, 33, 0
11, 187920, Note_on_c, 5, 33, 105
11, 188076, Note_on_c, 5, 33, 0
11, 188160, Note_on_c, 5, 38, 92
11, 188544, Note_on_c, 5, 38, 0
11, 190080, Note_on_c, 5, 33, 58
11, 190464, Note_on_c, 5, 33, 0
11, 192000, Note_on_c, 5, 38, 58
11, 192384, Note_on_c, 5, 38, 0
11, 193920, Note_on_c, 5, 33, 58
11, 194304, Note_on_c, 5, 33, 0
11, 196080, Note_on_c, 5, 38, 105
11, 196236, Note_on_c, 5, 38, 0
11, 196320, Note_on_c, 5, 42, 105
11, 196476, Note_on_c, 5, 42, 0
11, 196560, Note_on_c, 5, 40, 105
11, 196716, Note_on_c, 5, 40, 0
11, 196800, Note_on_c, 5, 39, 105
11, 196956, Note_on_c, 5, 39, 0
11, 197040, Note_on_c, 5, 35, 105
11, 197196, Note_on_c, 5, 35, 0
11, 197280, Note_on_c, 5, 37, 105
11, 197436, Note_on_c, 5, 37, 0
11, 197520, Note_on_c, 5, 39, 105
11, 197676, Note_on_c, 5, 39, 0
11, 197760, Note_on_c, 5, 40, 105
11, 197916, Note_on_c, 5, 40, 0
11, 198000, Note_on_c, 5, 43, 105
11, 198156, Note_on_c, 5, 43, 0
11, 198240, Note_on_c, 5, 40, 105
11, 198396, Note_on_c, 5, 40, 0
11, 198480, Note_on_c, 5, 38, 105
11, 198636, Note_on_c, 5, 38, 0
11, 198720, Note_on_c, 5, 37, 105
11, 198876, Note_on_c, 5, 37, 0
11, 198960, Note_on_c, 5, 33, 105
11, 199116, Note_on_c, 5, 33, 0
11, 199200, Note_on_c, 5, 35, 105
11, 199356, Note_on_c, 5, 35, 0
11, 199440, Note_on_c, 5, 37, 105
11, 199596, Note_on_c, 5, 37, 0
11, 199680, Note_on_c, 5, 38, 105
11, 199836, Note_on_c, 5, 38, 0
11, 199920, Note_on_c, 5, 38, 105
11, 200076, Note_on_c, 5, 38, 0
11, 200160, Note_on_c, 5, 40, 105
11, 200316, Note_on_c, 5, 40, 0
11, 200400, Note_on_c, 5, 42, 105
11, 200556, Note_on_c, 5, 42, 0
11, 200640, Note_on_c, 5, 43, 105
11, 200796, Note_on_c, 5, 43, 0
11, 200880, Note_on_c, 5, 43, 105
11, 201036, Note_on_c, 5, 43, 0
11, 201120, Note_on_c, 5, 43, 105
11, 201276, Note_on_c, 5, 43, 0
11, 201360, Note_on_c, 5, 43, 105
11, 201516, Note_on_c, 5, 43, 0
11, 201600, Note_on_c, 5, 45, 105
11, 201756, Note_on_c, 5, 45, 0
11, 201840, Note_on_c, 5, 45, 105
11, 201996, Note_on_c, 5, 45, 0
11, 202080, Note_on_c, 5, 45, 105
11, 202236, Note_on_c, 5, 45, 0
11, 202320, Note_on_c, 5, 45, 105
11, 202476, Note_on_c, 5, 45, 0
11, 202560, Note_on_c, 5, 33, 105
11, 202716, Note_on_c, 5, 33, 0
11, 202800, Note_on_c, 5, 33, 105
11, 202956, Note_on_c, 5, 33, 0
11, 203040, Note_on_c, 5, 33, 105
11, 203196, Note_on_c, 5, 33, 0
11, 203280, Note_on_c, 5, 33, 105
11, 203436, Note_on_c, 5, 33, 0
11, 203520, Note_on_c, 5, 38, 105
11, 203676, Note_on_c, 5, 38, 0
11, 203760, Note_on_c, 5, 33, 105
11, 203916, Note_on_c, 5, 33, 0
11, 204000, Note_on_c, 5, 35, 105
11, 204156, Note_on_c, 5, 35, 0
11, 204240, Note_on_c, 5, 37, 105
11, 204396, Note_on_c, 5, 37, 0
11, 204480, Note_on_c, 5, 38, 105
11, 204636, Note_on_c, 5, 38, 0
11, 204720, Note_on_c, 5, 38, 105
11, 204876, Note_on_c, 5, 38, 0
11, 204960, Note_on_c, 5, 40, 105
11, 205116, Note_on_c, 5, 40, 0
11, 205200, Note_on_c, 5, 40, 105
11, 205356, Note_on_c, 5, 40, 0
11, 205440, Note_on_c, 5, 42, 105
11, 205596, Note_on_c, 5, 42, 0
11, 205680, Note_on_c, 5, 37, 105
11, 205836, Note_on_c, 5, 37, 0
11, 205920, Note_on_c, 5, 38, 105
11, 206076, Note_on_c, 5, 38, 0
11, 206160, Note_on_c, 5, 40, 105
11, 206316, Note_on_c, 5, 40, 0
11, 206400, Note_on_c, 5, 42, 105
11, 206556, Note_on_c, 5, 42, 0
11, 206640, Note_on_c, 5, 42, 105
11, 206796, Note_on_c, 5, 42, 0
11, 206880, Note_on_c, 5, 43, 105
11, 207036, Note_on_c, 5, 43, 0
11, 207120, Note_on_c, 5, 43, 105
11, 207276, Note_on_c, 5, 43, 0
11, 207360, Note_on_c, 5, 45, 105
11, 207516, Note_on_c, 5, 45, 0
11, 207600, Note_on_c, 5, 45, 105
11, 207756, Note_on_c, 5, 45, 0
11, 207840, Note_on_c, 5, 46, 105
11, 207996, Note_on_c, 5, 46, 0
11, 208080, Note_on_c, 5, 46, 105
11, 208236, Note_on_c, 5, 46, 0
11, 208320, Note_on_c, 5, 47, 92
11, 208704, Note_on_c, 5, 47, 0
11, 209280, Note_on_c, 5, 43, 58
11, 210240, Note_on_c, 5, 43, 0
11, 210240, Note_on_c, 5, 45, 58
11, 211152, Note_on_c, 5, 45, 0
11, 211200, Note_on_c, 5, 38, 58
11, 211392, Note_on_c, 5, 38, 0
11, 211680, Note_on_c, 5, 38, 58
11, 211872, Note_on_c, 5, 38, 0
11, 212160, Note_on_c, 5, 38, 58
11, 212352, Note_on_c, 5, 38, 0
11, 213120, Note_on_c, 5, 38, 105
11, 213504, Note_on_c, 5, 38, 0
11, 213840, Note_on_c, 5, 33, 105
11, 213984, Note_on_c, 5, 33, 0
11, 214080, Note_on_c, 5, 38, 105
11, 214464, Note_on_c, 5, 38, 0
11, 214800, Note_on_c, 5, 33, 105
11, 214944, Note_on_c, 5, 33, 0
11, 215040, Note_on_c, 5, 38, 105
11, 215196, Note_on_c, 5, 38, 0
11, 215280, Note_on_c, 5, 33, 105
11, 215436, Note_on_c, 5, 33, 0
11, 215520, Note_on_c, 5, 38, 105
11, 215676, Note_on_c, 5, 38, 0
11, 215760, Note_on_c, 5, 42, 105
11, 215916, Note_on_c, 5, 42, 0
11, 216000, Note_on_c, 5, 45, 105
11, 216384, Note_on_c, 5, 45, 0
11, 216960, Note_on_c, 5, 45, 105
11, 217344, Note_on_c, 5, 45, 0
11, 217680, Note_on_c, 5, 42, 105
11, 217824, Note_on_c, 5, 42, 0
11, 217920, Note_on_c, 5, 45, 105
11, 218304, Note_on_c, 5, 45, 0
11, 218640, Note_on_c, 5, 42, 105
11, 218784, Note_on_c, 5, 42, 0
11, 218880, Note_on_c, 5, 45, 105
11, 219036, Note_on_c, 5, 45, 0
11, 219120, Note_on_c, 5, 42, 105
11, 219276, Note_on_c, 5, 42, 0
11, 219360, Note_on_c, 5, 39, 105
11, 219516, Note_on_c, 5, 39, 0
11, 219600, Note_on_c, 5, 42, 105
11, 219756, Note_on_c, 5, 42, 0
11, 219840, Note_on_c, 5, 35, 105
11, 220224, Note_on_c, 5, 35, 0
11, 220800, Note_on_c, 5, 36, 58
11, 221184, Note_on_c, 5, 36, 0
11, 222720, Note_on_c, 5, 31, 58
11, 223104, Note_on_c, 5, 31, 0
11, 224640, Note_on_c, 5, 36, 58
11, 225024, Note_on_c, 5, 36, 0
11, 226560, Note_on_c, 5, 31, 58
11, 226944, Note_on_c, 5, 31, 0
11, 228480, Note_on_c, 5, 36, 58
11, 228864, Note_on_c, 5, 36, 0
11, 230400, Note_on_c, 5, 40, 58
11, 230784, Note_on_c, 5, 40, 0
11, 232320, Note_on_c, 5, 33, 58
11, 232704, Note_on_c, 5, 33, 0
11, 234240, Note_on_c, 5, 38, 58
11, 234624, Note_on_c, 5, 38, 0
11, 236160, Note_on_c, 5, 39, 58
11, 239924, Note_on_c, 5, 39, 0
11, 240000, Note_on_c, 5, 38, 58
11, 240384, Note_on_c, 5, 38, 0
11, 240720, Note_on_c, 5, 38, 105
11, 240960, Note_on_c, 5, 38, 0
11, 240960, Note_on_c, 5, 40, 105
11, 241200, Note_on_c, 5, 40, 0
11, 241200, Note_on_c, 5, 42, 105
11, 241440, Note_on_c, 5, 42, 0
11, 241440, Note_on_c, 5, 43, 105
11, 241680, Note_on_c, 5, 43, 0
11, 241680, Note_on_c, 5, 45, 105
11, 241920, Note_on_c, 5, 45, 0
11, 241920, Note_on_c, 5, 48, 105
11, 242160, Note_on_c, 5, 48, 0
11, 242160, Note_on_c, 5, 46, 105
11, 242400, Note_on_c, 5, 46, 0
11, 242640, Note_on_c, 5, 42, 105
11, 242880, Note_on_c, 5, 42, 0
11, 242880, Note_on_c, 5, 43, 105
11, 243120, Note_on_c, 5, 43, 0
11, 243120, Note_on_c, 5, 45, 105
11, 243360, Note_on_c, 5, 45, 0
11, 243360, Note_on_c, 5, 46, 105
11, 243600, Note_on_c, 5, 46, 0
11, 243600, Note_on_c, 5, 49, 105
11, 243840, Note_on_c, 5, 49, 0
11, 243840, Note_on_c, 5, 52, 105
11, 244080, Note_on_c, 5, 52, 0
11, 244080, Note_on_c, 5, 50, 105
11, 244272, Note_on_c, 5, 50, 0
11, 249600, Note_on_c, 5, 38, 58
11, 251424, Note_on_c, 5, 38, 0
11, 251520, Note_on_c, 5, 43, 125
11, 251904, Note_on_c, 5, 43, 0
11, 252240, Note_on_c, 5, 38, 105
11, 252384, Note_on_c, 5, 38, 0
11, 252480, Note_on_c, 5, 43, 105
11, 252864, Note_on_c, 5, 43, 0
11, 253200, Note_on_c, 5, 38, 105
11, 253344, Note_on_c, 5, 38, 0
11, 253440, Note_on_c, 5, 43, 105
11, 253584, Note_on_c, 5, 43, 0
11, 253680, Note_on_c, 5, 38, 105
11, 253824, Note_on_c, 5, 38, 0
11, 253920, Note_on_c, 5, 43, 105
11, 254064, Note_on_c, 5, 43, 0
11, 254160, Note_on_c, 5, 47, 105
11, 254304, Note_on_c, 5, 47, 0
11, 254400, Note_on_c, 5, 50, 105
11, 254784, Note_on_c, 5, 50, 0
11, 255360, Note_on_c, 5, 48, 105
11, 255744, Note_on_c, 5, 48, 0
11, 256080, Note_on_c, 5, 45, 105
11, 256224, Note_on_c, 5, 45, 0
11, 256320, Note_on_c, 5, 48, 105
11, 256704, Note_on_c, 5, 48, 0
11, 257040, Note_on_c, 5, 45, 105
11, 257184, Note_on_c, 5, 45, 0
11, 257280, Note_on_c, 5, 48, 105
11, 257424, Note_on_c, 5, 48, 0
11, 257520, Note_on_c, 5, 45, 105
11, 257664, Note_on_c, 5, 45, 0
11, 257760, Note_on_c, 5, 42, 105
11, 257904, Note_on_c, 5, 42, 0
11, 258000, Note_on_c, 5, 45, 105
11, 258144, Note_on_c, 5, 45, 0
11, 258240, Note_on_c, 5, 38, 105
11, 258624, Note_on_c, 5, 38, 0
11, 259200, Note_on_c, 5, 43, 105
11, 259392, Note_on_c, 5, 43, 0
11, 259440, Note_on_c, 5, 43, 105
11, 259632, Note_on_c, 5, 43, 0
11, 259680, Note_on_c, 5, 43, 105
11, 259872, Note_on_c, 5, 43, 0
11, 259920, Note_on_c, 5, 43, 105
11, 260112, Note_on_c, 5, 43, 0
11, 260160, Note_on_c, 5, 43, 105
11, 260352, Note_on_c, 5, 43, 0
11, 260400, Note_on_c, 5, 43, 105
11, 260592, Note_on_c, 5, 43, 0
11, 260640, Note_on_c, 5, 43, 105
11, 260832, Note_on_c, 5, 43, 0
11, 260880, Note_on_c, 5, 43, 105
11, 261072, Note_on_c, 5, 43, 0
11, 261120, Note_on_c, 5, 43, 105
11, 261312, Note_on_c, 5, 43, 0
11, 261360, Note_on_c, 5, 43, 105
11, 261552, Note_on_c, 5, 43, 0
11, 261600, Note_on_c, 5, 43, 105
11, 261792, Note_on_c, 5, 43, 0
11, 261840, Note_on_c, 5, 43, 105
11, 262032, Note_on_c, 5, 43, 0
11, 262080, Note_on_c, 5, 43, 105
11, 262272, Note_on_c, 5, 43, 0
11, 262320, Note_on_c, 5, 43, 105
11, 262512, Note_on_c, 5, 43, 0
11, 262560, Note_on_c, 5, 43, 105
11, 262752, Note_on_c, 5, 43, 0
11, 262800, Note_on_c, 5, 43, 105
11, 262992, Note_on_c, 5, 43, 0
11, 263040, Note_on_c, 5, 43, 105
11, 263232, Note_on_c, 5, 43, 0
11, 263280, Note_on_c, 5, 43, 105
11, 263472, Note_on_c, 5, 43, 0
11, 263520, Note_on_c, 5, 43, 105
11, 263712, Note_on_c, 5, 43, 0
11, 263760, Note_on_c, 5, 43, 105
11, 263952, Note_on_c, 5, 43, 0
11, 264000, Note_on_c, 5, 43, 105
11, 264192, Note_on_c, 5, 43, 0
11, 264240, Note_on_c, 5, 43, 105
11, 264432, Note_on_c, 5, 43, 0
11, 264480, Note_on_c, 5, 43, 105
11, 264672, Note_on_c, 5, 43, 0
11, 264720, Note_on_c, 5, 43, 105
11, 264912, Note_on_c, 5, 43, 0
11, 264960, Note_on_c, 5, 43, 105
11, 265152, Note_on_c, 5, 43, 0
11, 265200, Note_on_c, 5, 43, 105
11, 265392, Note_on_c, 5, 43, 0
11, 265440, Note_on_c, 5, 43, 105
11, 265632, Note_on_c, 5, 43, 0
11, 265680, Note_on_c, 5, 43, 105
11, 265872, Note_on_c, 5, 43, 0
11, 265920, Note_on_c, 5, 43, 105
11, 266112, Note_on_c, 5, 43, 0
11, 266160, Note_on_c, 5, 43, 105
11, 266352, Note_on_c, 5, 43, 0
11, 266400, Note_on_c, 5, 43, 105
11, 266592, Note_on_c, 5, 43, 0
11, 266640, Note_on_c, 5, 43, 105
11, 266832, Note_on_c, 5, 43, 0
11, 266880, Note_on_c, 5, 43, 105
11, 267072, Note_on_c, 5, 43, 0
11, 267120, Note_on_c, 5, 43, 105
11, 267312, Note_on_c, 5, 43, 0
11, 267360, Note_on_c, 5, 45, 105
11, 267552, Note_on_c, 5, 45, 0
11, 267600, Note_on_c, 5, 45, 105
11, 267792, Note_on_c, 5, 45, 0
11, 267840, Note_on_c, 5, 47, 105
11, 268032, Note_on_c, 5, 47, 0
11, 268080, Note_on_c, 5, 47, 105
11, 268272, Note_on_c, 5, 47, 0
11, 268320, Note_on_c, 5, 42, 105
11, 268512, Note_on_c, 5, 42, 0
11, 268560, Note_on_c, 5, 42, 105
11, 268752, Note_on_c, 5, 42, 0
11, 268800, Note_on_c, 5, 43, 105
11, 268992, Note_on_c, 5, 43, 0
11, 269040, Note_on_c, 5, 43, 105
11, 269232, Note_on_c, 5, 43, 0
11, 269280, Note_on_c, 5, 45, 105
11, 269472, Note_on_c, 5, 45, 0
11, 269520, Note_on_c, 5, 45, 105
11, 269712, Note_on_c, 5, 45, 0
11, 269760, Note_on_c, 5, 47, 92
11, 270144, Note_on_c, 5, 47, 0
11, 272640, Note_on_c, 5, 38, 58
11, 273600, Note_on_c, 5, 38, 0
11, 273600, Note_on_c, 5, 40, 58
11, 274368, Note_on_c, 5, 40, 0
11, 274560, Note_on_c, 5, 36, 58
11, 274872, Note_on_c, 5, 36, 0
11, 275040, Note_on_c, 5, 36, 58
11, 275352, Note_on_c, 5, 36, 0
11, 275520, Note_on_c, 5, 38, 58
11, 275832, Note_on_c, 5, 38, 0
11, 276000, Note_on_c, 5, 38, 58
11, 276312, Note_on_c, 5, 38, 0
11, 276480, Note_on_c, 5, 35, 58
11, 276636, Note_on_c, 5, 35, 0
11, 276960, Note_on_c, 5, 38, 58
11, 277116, Note_on_c, 5, 38, 0
11, 277440, Note_on_c, 5, 43, 58
11, 277752, Note_on_c, 5, 43, 0
11, 280320, Note_on_c, 5, 38, 58
11, 281280, Note_on_c, 5, 38, 0
11, 281280, Note_on_c, 5, 40, 58
11, 282048, Note_on_c, 5, 40, 0
11, 282240, Note_on_c, 5, 36, 58
11, 282624, Note_on_c, 5, 36, 0
11, 282720, Note_on_c, 5, 36, 58
11, 283104, Note_on_c, 5, 36, 0
11, 283200, Note_on_c, 5, 38, 58
11, 283584, Note_on_c, 5, 38, 0
11, 283680, Note_on_c, 5, 38, 58
11, 284064, Note_on_c, 5, 38, 0
11, 284160, Note_on_c, 5, 43, 78
11, 284316, Note_on_c, 5, 43, 0
11, 284400, Note_on_c, 5, 43, 92
11, 284556, Note_on_c, 5, 43, 0
11, 284640, Note_on_c, 5, 43, 92
11, 284796, Note_on_c, 5, 43, 0
11, 284880, Note_on_c, 5, 43, 92
11, 285036, Note_on_c, 5, 43, 0
11, 285120, Note_on_c, 5, 43, 58
11, 285276, Note_on_c, 5, 43, 0
11, 285360, Note_on_c, 5, 43, 58
11, 285516, Note_on_c, 5, 43, 0
11, 285600, Note_on_c, 5, 43, 58
11, 285756, Note_on_c, 5, 43, 0
11, 285840, Note_on_c, 5, 43, 58
11, 285996, Note_on_c, 5, 43, 0
11, 286080, Note_on_c, 5, 43, 112
11, 286236, Note_on_c, 5, 43, 0
11, 286320, Note_on_c, 5, 43, 92
11, 286476, Note_on_c, 5, 43, 0
11, 286560, Note_on_c, 5, 43, 92
11, 286716, Note_on_c, 5, 43, 0
11, 286800, Note_on_c, 5, 43, 92
11, 286956, Note_on_c, 5, 43, 0
11, 287040, Note_on_c, 5, 43, 58
11, 287196, Note_on_c, 5, 43, 0
11, 287280, Note_on_c, 5, 43, 58
11, 287436, Note_on_c, 5, 43, 0
11, 287520, Note_on_c, 5, 43, 58
11, 287676, Note_on_c, 5, 43, 0
11, 287760, Note_on_c, 5, 43, 58
11, 287916, Note_on_c, 5, 43, 0
11, 288000, Note_on_c, 5, 43, 58
11, 288156, Note_on_c, 5, 43, 0
11, 288240, Note_on_c, 5, 43, 58
11, 288396, Note_on_c, 5, 43, 0
11, 288480, Note_on_c, 5, 43, 58
11, 288636, Note_on_c, 5, 43, 0
11, 288720, Note_on_c, 5, 43, 72
11, 288876, Note_on_c, 5, 43, 0
11, 288960, Note_on_c, 5, 43, 72
11, 289116, Note_on_c, 5, 43, 0
11, 289200, Note_on_c, 5, 43, 72
11, 289356, Note_on_c, 5, 43, 0
11, 289440, Note_on_c, 5, 43, 81
11, 289596, Note_on_c, 5, 43, 0
11, 289680, Note_on_c, 5, 43, 81
11, 289836, Note_on_c, 5, 43, 0
11, 289920, Note_on_c, 5, 43, 81
11, 290076, Note_on_c, 5, 43, 0
11, 290160, Note_on_c, 5, 43, 81
11, 290316, Note_on_c, 5, 43, 0
11, 290400, Note_on_c, 5, 42, 81
11, 290556, Note_on_c, 5, 42, 0
11, 290640, Note_on_c, 5, 42, 92
11, 290796, Note_on_c, 5, 42, 0
11, 290880, Note_on_c, 5, 43, 92
11, 291036, Note_on_c, 5, 43, 0
11, 291120, Note_on_c, 5, 43, 92
11, 291276, Note_on_c, 5, 43, 0
11, 291360, Note_on_c, 5, 40, 105
11, 291516, Note_on_c, 5, 40, 0
11, 291600, Note_on_c, 5, 40, 105
11, 291756, Note_on_c, 5, 40, 0
11, 291840, Note_on_c, 5, 38, 105
11, 292032, Note_on_c, 5, 38, 0
11, 292080, Note_on_c, 5, 38, 105
11, 292272, Note_on_c, 5, 38, 0
11, 292320, Note_on_c, 5, 38, 105
11, 292512, Note_on_c, 5, 38, 0
11, 292560, Note_on_c, 5, 38, 105
11, 292752, Note_on_c, 5, 38, 0
11, 292800, Note_on_c, 5, 38, 105
11, 292992, Note_on_c, 5, 38, 0
11, 293040, Note_on_c, 5, 38, 105
11, 293232, Note_on_c, 5, 38, 0
11, 293280, Note_on_c, 5, 38, 105
11, 293472, Note_on_c, 5, 38, 0
11, 293520, Note_on_c, 5, 38, 105
11, 293712, Note_on_c, 5, 38, 0
11, 293760, Note_on_c, 5, 38, 105
11, 293952, Note_on_c, 5, 38, 0
11, 294000, Note_on_c, 5, 38, 105
11, 294192, Note_on_c, 5, 38, 0
11, 294240, Note_on_c, 5, 38, 105
11, 294432, Note_on_c, 5, 38, 0
11, 294480, Note_on_c, 5, 38, 105
11, 294672, Note_on_c, 5, 38, 0
11, 294720, Note_on_c, 5, 38, 105
11, 294912, Note_on_c, 5, 38, 0
11, 294960, Note_on_c, 5, 38, 105
11, 295152, Note_on_c, 5, 38, 0
11, 295200, Note_on_c, 5, 38, 105
11, 295392, Note_on_c, 5, 38, 0
11, 295440, Note_on_c, 5, 38, 105
11, 295632, Note_on_c, 5, 38, 0
11, 295680, Note_on_c, 5, 38, 105
11, 295872, Note_on_c, 5, 38, 0
11, 295920, Note_on_c, 5, 38, 105
11, 296112, Note_on_c, 5, 38, 0
11, 296160, Note_on_c, 5, 38, 105
11, 296352, Note_on_c, 5, 38, 0
11, 296400, Note_on_c, 5, 38, 105
11, 296592, Note_on_c, 5, 38, 0
11, 296640, Note_on_c, 5, 38, 105
11, 296832, Note_on_c, 5, 38, 0
11, 296880, Note_on_c, 5, 38, 105
11, 297072, Note_on_c, 5, 38, 0
11, 297120, Note_on_c, 5, 38, 105
11, 297312, Note_on_c, 5, 38, 0
11, 297360, Note_on_c, 5, 38, 105
11, 297552, Note_on_c, 5, 38, 0
11, 297600, Note_on_c, 5, 38, 105
11, 297792, Note_on_c, 5, 38, 0
11, 297840, Note_on_c, 5, 38, 105
11, 298032, Note_on_c, 5, 38, 0
11, 298080, Note_on_c, 5, 38, 105
11, 298272, Note_on_c, 5, 38, 0
11, 298320, Note_on_c, 5, 38, 105
11, 298512, Note_on_c, 5, 38, 0
11, 298560, Note_on_c, 5, 38, 105
11, 298944, Note_on_c, 5, 38, 0
11, 300960, Note_on_c, 5, 44, 58
11, 301152, Note_on_c, 5, 44, 0
11, 301440, Note_on_c, 5, 45, 58
11, 301632, Note_on_c, 5, 45, 0
11, 301920, Note_on_c, 5, 43, 58
11, 302112, Note_on_c, 5, 43, 0
11, 302400, Note_on_c, 5, 42, 58
11, 302592, Note_on_c, 5, 42, 0
11, 302880, Note_on_c, 5, 38, 58
11, 303072, Note_on_c, 5, 38, 0
11, 303840, Note_on_c, 5, 39, 58
11, 304320, Note_on_c, 5, 39, 0
11, 304320, Note_on_c, 5, 40, 58
11, 304512, Note_on_c, 5, 40, 0
11, 304800, Note_on_c, 5, 36, 58
11, 304992, Note_on_c, 5, 36, 0
11, 305280, Note_on_c, 5, 38, 58
11, 305640, Note_on_c, 5, 38, 0
11, 305760, Note_on_c, 5, 50, 78
11, 306480, Note_on_c, 5, 50, 0
11, 306480, Note_on_c, 5, 49, 58
11, 306720, Note_on_c, 5, 49, 0
11, 306720, Note_on_c, 5, 48, 58
11, 306960, Note_on_c, 5, 48, 0
11, 306960, Note_on_c, 5, 45, 58
11, 307200, Note_on_c, 5, 45, 0
11, 307200, Note_on_c, 5, 43, 58
11, 307392, Note_on_c, 5, 43, 0
11, 307680, Note_on_c, 5, 45, 58
11, 307872, Note_on_c, 5, 45, 0
11, 308160, Note_on_c, 5, 47, 58
11, 308352, Note_on_c, 5, 47, 0
11, 308640, Note_on_c, 5, 44, 58
11, 308832, Note_on_c, 5, 44, 0
11, 309120, Note_on_c, 5, 45, 58
11, 309312, Note_on_c, 5, 45, 0
11, 309600, Note_on_c, 5, 43, 58
11, 309792, Note_on_c, 5, 43, 0
11, 310080, Note_on_c, 5, 42, 58
11, 310272, Note_on_c, 5, 42, 0
11, 310560, Note_on_c, 5, 38, 58
11, 310752, Note_on_c, 5, 38, 0
11, 311040, Note_on_c, 5, 40, 58
11, 311232, Note_on_c, 5, 40, 0
11, 311520, Note_on_c, 5, 36, 58
11, 311712, Note_on_c, 5, 36, 0
11, 312000, Note_on_c, 5, 38, 58
11, 312192, Note_on_c, 5, 38, 0
11, 312480, Note_on_c, 5, 38, 58
11, 312672, Note_on_c, 5, 38, 0
11, 312960, Note_on_c, 5, 31, 58
11, 313344, Note_on_c, 5, 31, 0
11, 314880, Note_on_c, 5, 38, 58
11, 315264, Note_on_c, 5, 38, 0
11, 316800, Note_on_c, 5, 31, 58
11, 317184, Note_on_c, 5, 31, 0
11, 318720, Note_on_c, 5, 38, 58
11, 319104, Note_on_c, 5, 38, 0
11, 320880, Note_on_c, 5, 43, 105
11, 321036, Note_on_c, 5, 43, 0
11, 321120, Note_on_c, 5, 47, 105
11, 321276, Note_on_c, 5, 47, 0
11, 321360, Note_on_c, 5, 45, 105
11, 321516, Note_on_c, 5, 45, 0
11, 321600, Note_on_c, 5, 44, 105
11, 321756, Note_on_c, 5, 44, 0
11, 321840, Note_on_c, 5, 40, 105
11, 321996, Note_on_c, 5, 40, 0
11, 322080, Note_on_c, 5, 42, 105
11, 322236, Note_on_c, 5, 42, 0
11, 322320, Note_on_c, 5, 44, 105
11, 322476, Note_on_c, 5, 44, 0
11, 322560, Note_on_c, 5, 45, 105
11, 322716, Note_on_c, 5, 45, 0
11, 322800, Note_on_c, 5, 48, 105
11, 322956, Note_on_c, 5, 48, 0
11, 323040, Note_on_c, 5, 45, 105
11, 323196, Note_on_c, 5, 45, 0
11, 323280, Note_on_c, 5, 43, 105
11, 323436, Note_on_c, 5, 43, 0
11, 323520, Note_on_c, 5, 42, 105
11, 323676, Note_on_c, 5, 42, 0
11, 323760, Note_on_c, 5, 38, 105
11, 323916, Note_on_c, 5, 38, 0
11, 324000, Note_on_c, 5, 40, 105
11, 324156, Note_on_c, 5, 40, 0
11, 324240, Note_on_c, 5, 42, 105
11, 324396, Note_on_c, 5, 42, 0
11, 324480, Note_on_c, 5, 43, 105
11, 324636, Note_on_c, 5, 43, 0
11, 324720, Note_on_c, 5, 43, 105
11, 324876, Note_on_c, 5, 43, 0
11, 324960, Note_on_c, 5, 45, 105
11, 325116, Note_on_c, 5, 45, 0
11, 325200, Note_on_c, 5, 47, 105
11, 325356, Note_on_c, 5, 47, 0
11, 325440, Note_on_c, 5, 48, 105
11, 325596, Note_on_c, 5, 48, 0
11, 325680, Note_on_c, 5, 48, 105
11, 325836, Note_on_c, 5, 48, 0
11, 325920, Note_on_c, 5, 48, 105
11, 326076, Note_on_c, 5, 48, 0
11, 326160, Note_on_c, 5, 48, 105
11, 326316, Note_on_c, 5, 48, 0
11, 326400, Note_on_c, 5, 50, 105
11, 326556, Note_on_c, 5, 50, 0
11, 326640, Note_on_c, 5, 50, 105
11, 326796, Note_on_c, 5, 50, 0
11, 326880, Note_on_c, 5, 50, 105
11, 327036, Note_on_c, 5, 50, 0
11, 327120, Note_on_c, 5, 50, 105
11, 327276, Note_on_c, 5, 50, 0
11, 327360, Note_on_c, 5, 38, 105
11, 327516, Note_on_c, 5, 38, 0
11, 327600, Note_on_c, 5, 38, 105
11, 327756, Note_on_c, 5, 38, 0
11, 327840, Note_on_c, 5, 38, 105
11, 327996, Note_on_c, 5, 38, 0
11, 328080, Note_on_c, 5, 38, 105
11, 328236, Note_on_c, 5, 38, 0
11, 328320, Note_on_c, 5, 43, 92
11, 328704, Note_on_c, 5, 43, 0
11, 330240, Note_on_c, 5, 38, 58
11, 330624, Note_on_c, 5, 38, 0
11, 332160, Note_on_c, 5, 43, 58
11, 332544, Note_on_c, 5, 43, 0
11, 334080, Note_on_c, 5, 38, 58
11, 334464, Note_on_c, 5, 38, 0
11, 336240, Note_on_c, 5, 43, 105
11, 336396, Note_on_c, 5, 43, 0
11, 336480, Note_on_c, 5, 47, 105
11, 336636, Note_on_c, 5, 47, 0
11, 336720, Note_on_c, 5, 45, 105
11, 336876, Note_on_c, 5, 45, 0
11, 336960, Note_on_c, 5, 44, 105
11, 337116, Note_on_c, 5, 44, 0
11, 337200, Note_on_c, 5, 40, 105
11, 337356, Note_on_c, 5, 40, 0
11, 337440, Note_on_c, 5, 42, 105
11, 337596, Note_on_c, 5, 42, 0
11, 337680, Note_on_c, 5, 44, 105
11, 337836, Note_on_c, 5, 44, 0
11, 337920, Note_on_c, 5, 45, 105
11, 338076, Note_on_c, 5, 45, 0
11, 338160, Note_on_c, 5, 48, 105
11, 338316, Note_on_c, 5, 48, 0
11, 338400, Note_on_c, 5, 45, 105
11, 338556, Note_on_c, 5, 45, 0
11, 338640, Note_on_c, 5, 43, 105
11, 338796, Note_on_c, 5, 43, 0
11, 338880, Note_on_c, 5, 42, 105
11, 339036, Note_on_c, 5, 42, 0
11, 339120, Note_on_c, 5, 38, 105
11, 339276, Note_on_c, 5, 38, 0
11, 339360, Note_on_c, 5, 40, 105
11, 339516, Note_on_c, 5, 40, 0
11, 339600, Note_on_c, 5, 42, 105
11, 339756, Note_on_c, 5, 42, 0
11, 339840, Note_on_c, 5, 43, 105
11, 339996, Note_on_c, 5, 43, 0
11, 340080, Note_on_c, 5, 43, 105
11, 340236, Note_on_c, 5, 43, 0
11, 340320, Note_on_c, 5, 45, 105
11, 340476, Note_on_c, 5, 45, 0
11, 340560, Note_on_c, 5, 47, 105
11, 340716, Note_on_c, 5, 47, 0
11, 340800, Note_on_c, 5, 48, 105
11, 340956, Note_on_c, 5, 48, 0
11, 341040, Note_on_c, 5, 48, 105
11, 341196, Note_on_c, 5, 48, 0
11, 341280, Note_on_c, 5, 48, 105
11, 341436, Note_on_c, 5, 48, 0
11, 341520, Note_on_c, 5, 48, 105
11, 341676, Note_on_c, 5, 48, 0
11, 341760, Note_on_c, 5, 50, 105
11, 341916, Note_on_c, 5, 50, 0
11, 342000, Note_on_c, 5, 50, 105
11, 342156, Note_on_c, 5, 50, 0
11, 342240, Note_on_c, 5, 50, 105
11, 342396, Note_on_c, 5, 50, 0
11, 342480, Note_on_c, 5, 50, 105
11, 342636, Note_on_c, 5, 50, 0
11, 342720, Note_on_c, 5, 38, 105
11, 342876, Note_on_c, 5, 38, 0
11, 342960, Note_on_c, 5, 38, 105
11, 343116, Note_on_c, 5, 38, 0
11, 343200, Note_on_c, 5, 38, 105
11, 343356, Note_on_c, 5, 38, 0
11, 343440, Note_on_c, 5, 38, 105
11, 343596, Note_on_c, 5, 38, 0
11, 343680, Note_on_c, 5, 43, 105
11, 343836, Note_on_c, 5, 43, 0
11, 343920, Note_on_c, 5, 38, 105
11, 344076, Note_on_c, 5, 38, 0
11, 344160, Note_on_c, 5, 40, 105
11, 344316, Note_on_c, 5, 40, 0
11, 344400, Note_on_c, 5, 42, 105
11, 344556, Note_on_c, 5, 42, 0
11, 344640, Note_on_c, 5, 43, 105
11, 344796, Note_on_c, 5, 43, 0
11, 344880, Note_on_c, 5, 43, 105
11, 345036, Note_on_c, 5, 43, 0
11, 345120, Note_on_c, 5, 45, 105
11, 345276, Note_on_c, 5, 45, 0
11, 345360, Note_on_c, 5, 45, 105
11, 345516, Note_on_c, 5, 45, 0
11, 345600, Note_on_c, 5, 47, 105
11, 345756, Note_on_c, 5, 47, 0
11, 345840, Note_on_c, 5, 42, 105
11, 345996, Note_on_c, 5, 42, 0
11, 346080, Note_on_c, 5, 43, 105
11, 346236, Note_on_c, 5, 43, 0
11, 346320, Note_on_c, 5, 45, 105
11, 346476, Note_on_c, 5, 45, 0
11, 346560, Note_on_c, 5, 47, 105
11, 346716, Note_on_c, 5, 47, 0
11, 346800, Note_on_c, 5, 47, 105
11, 346956, Note_on_c, 5, 47, 0
11, 347040, Note_on_c, 5, 48, 105
11, 347196, Note_on_c, 5, 48, 0
11, 347280, Note_on_c, 5, 48, 105
11, 347436, Note_on_c, 5, 48, 0
11, 347520, Note_on_c, 5, 50, 105
11, 347676, Note_on_c, 5, 50, 0
11, 347760, Note_on_c, 5, 50, 105
11, 347916, Note_on_c, 5, 50, 0
11, 348000, Note_on_c, 5, 51, 105
11, 348156, Note_on_c, 5, 51, 0
11, 348240, Note_on_c, 5, 51, 105
11, 348396, Note_on_c, 5, 51, 0
11, 348480, Note_on_c, 5, 52, 105
11, 348864, Note_on_c, 5, 52, 0
11, 349440, Note_on_c, 5, 36, 58
11, 350400, Note_on_c, 5, 36, 0
11, 350400, Note_on_c, 5, 38, 58
11, 351312, Note_on_c, 5, 38, 0
11, 351360, Note_on_c, 5, 31, 58
11, 351744, Note_on_c, 5, 31, 0
11, 353280, Note_on_c, 5, 36, 58
11, 354240, Note_on_c, 5, 36, 0
11, 354240, Note_on_c, 5, 38, 58
11, 355152, Note_on_c, 5, 38, 0
11, 355200, Note_on_c, 5, 31, 58
11, 355584, Note_on_c, 5, 31, 0
11, 357120, Note_on_c, 5, 36, 58
11, 357504, Note_on_c, 5, 36, 0
11, 358080, Note_on_c, 5, 38, 105
11, 358464, Note_on_c, 5, 38, 0
11, 359040, Note_on_c, 5, 31, 105
11, 359220, Note_on_c, 5, 31, 0
11, 359280, Note_on_c, 5, 31, 105
11, 359460, Note_on_c, 5, 31, 0
11, 359520, Note_on_c, 5, 31, 105
11, 359700, Note_on_c, 5, 31, 0
11, 359760, Note_on_c, 5, 31, 105
11, 359940, Note_on_c, 5, 31, 0
11, 360000, Note_on_c, 5, 31, 105
11, 360180, Note_on_c, 5, 31, 0
11, 360240, Note_on_c, 5, 31, 105
11, 360420, Note_on_c, 5, 31, 0
11, 360480, Note_on_c, 5, 31, 105
11, 360660, Note_on_c, 5, 31, 0
11, 360720, Note_on_c, 5, 31, 105
11, 360900, Note_on_c, 5, 31, 0
11, 360960, Note_on_c, 5, 31, 105
11, 361140, Note_on_c, 5, 31, 0
11, 361200, Note_on_c, 5, 31, 105
11, 361380, Note_on_c, 5, 31, 0
11, 361440, Note_on_c, 5, 31, 105
11, 361620, Note_on_c, 5, 31, 0
11, 361680, Note_on_c, 5, 31, 105
11, 361860, Note_on_c, 5, 31, 0
11, 361920, Note_on_c, 5, 31, 105
11, 362100, Note_on_c, 5, 31, 0
11, 362160, Note_on_c, 5, 31, 105
11, 362340, Note_on_c, 5, 31, 0
11, 362400, Note_on_c, 5, 31, 105
11, 362580, Note_on_c, 5, 31, 0
11, 362640, Note_on_c, 5, 31, 105
11, 362820, Note_on_c, 5, 31, 0
11, 362880, Note_on_c, 5, 31, 105
11, 363060, Note_on_c, 5, 31, 0
11, 363120, Note_on_c, 5, 31, 105
11, 363300, Note_on_c, 5, 31, 0
11, 363360, Note_on_c, 5, 31, 105
11, 363540, Note_on_c, 5, 31, 0
11, 363600, Note_on_c, 5, 31, 105
11, 363780, Note_on_c, 5, 31, 0
11, 363840, Note_on_c, 5, 31, 105
11, 364020, Note_on_c, 5, 31, 0
11, 364080, Note_on_c, 5, 31, 105
11, 364260, Note_on_c, 5, 31, 0
11, 364320, Note_on_c, 5, 31, 105
11, 364500, Note_on_c, 5, 31, 0
11, 364560, Note_on_c, 5, 31, 105
11, 364740, Note_on_c, 5, 31, 0
11, 364800, Note_on_c, 5, 31, 105
11, 364980, Note_on_c, 5, 31, 0
11, 365040, Note_on_c, 5, 31, 105
11, 365220, Note_on_c, 5, 31, 0
11, 365280, Note_on_c, 5, 31, 105
11, 365460, Note_on_c, 5, 31, 0
11, 365520, Note_on_c, 5, 31, 105
11, 365700, Note_on_c, 5, 31, 0
11, 365760, Note_on_c, 5, 31, 105
11, 365940, Note_on_c, 5, 31, 0
11, 366000, Note_on_c, 5, 31, 105
11, 366180, Note_on_c, 5, 31, 0
11, 366240, Note_on_c, 5, 31, 105
11, 366420, Note_on_c, 5, 31, 0
11, 366480, Note_on_c, 5, 31, 105
11, 366660, Note_on_c, 5, 31, 0
11, 366720, Note_on_c, 5, 31, 116
11, 366900, Note_on_c, 5, 31, 0
11, 366960, Note_on_c, 5, 35, 116
11, 367140, Note_on_c, 5, 35, 0
11, 367200, Note_on_c, 5, 38, 116
11, 367380, Note_on_c, 5, 38, 0
11, 367440, Note_on_c, 5, 43, 116
11, 367620, Note_on_c, 5, 43, 0
11, 367680, Note_on_c, 5, 47, 116
11, 367860, Note_on_c, 5, 47, 0
11, 367920, Note_on_c, 5, 43, 116
11, 368100, Note_on_c, 5, 43, 0
11, 368160, Note_on_c, 5, 50, 116
11, 368340, Note_on_c, 5, 50, 0
11, 368400, Note_on_c, 5, 47, 116
11, 368580, Note_on_c, 5, 47, 0
11, 368640, Note_on_c, 5, 43, 116
11, 369000, Note_on_c, 5, 43, 0
11, 369120, Note_on_c, 5, 31, 116
11, 369390, Note_on_c, 5, 31, 0
11, 369480, Note_on_c, 5, 31, 116
11, 369570, Note_on_c, 5, 31, 0
11, 369600, Note_on_c, 5, 31, 116
11, 369984, Note_on_c, 5, 31, 0
11, 372480, Note_on_c, 5, 31, 1
11, 373248, Note_on_c, 5, 31, 0
11, 373248, End_track
12, 0, Start_track
12, 0, End_track
0, 0, End_of_file