0, 0, Header, 1, 17, 120
1, 0, Start_track
1, 0, Sequencer_specific, 0A, 00, 00, 5B, 23, 01, 00, 05, 04, 23, 00
1, 0, Title_t, "W. A. Mozart - Requiem K. 626"
1, 0, Instrument_name_t, "Conductor Track"
1, 0, SMPTE_offset, 96, 0, 3, 0, 0
1, 0, MIDI_port, 0
1, 0, Key_signature, -2, "major"
1, 0, Tempo, 923076
1, 0, Time_signature, 4, 2, 24, 8
1, 3000, Tempo, 2400000
1, 3060, Tempo, 923076
1, 3240, Tempo, 2400000
1, 3360, Tempo, 923076
1, 8160, Tempo, 923076
1, 30240, Tempo, 857142
1, 30240, End_track
2, 0, Start_track
2, 0, Title_t, "No. 3 - Tuba Mirum"
2, 0, MIDI_port, 0
2, 0, End_track
3, 0, Start_track
3, 0, Title_t, "Sequenced by D. Viens 9-27-97"
3, 0, MIDI_port, 0
3, 0, End_track
4, 0, Start_track
4, 0, Title_t, "dlviens@ix.netcom.com"
4, 0, MIDI_port, 0
4, 0, End_track
5, 0, Start_track
5, 0, MIDI_port, 0
5, 0, End_track
6, 0, Start_track
6, 0, Title_t, "Corni di Bassetto in F"
6, 0, MIDI_port, 0
6, 0, Control_c, 0, 7, 96
6, 0, Control_c, 0, 10, 75
6, 0, Control_c, 0, 11, 127
6, 0, Program_c, 0, 71
6, 24000, Note_on_c, 0, 70, 48
6, 24000, Note_on_c, 0, 77, 48
6, 24119, Note_on_c, 0, 70, 0
6, 24119, Note_on_c, 0, 77, 0
6, 24240, Note_on_c, 0, 68, 48
6, 24240, Note_on_c, 0, 77, 48
6, 24359, Note_on_c, 0, 68, 0
6, 24359, Note_on_c, 0, 77, 0
6, 24480, Note_on_c, 0, 77, 48
6, 24480, Note_on_c, 0, 67, 48
6, 24599, Note_on_c, 0, 77, 0
6, 24599, Note_on_c, 0, 67, 0
6, 24600, Note_on_c, 0, 76, 48
6, 24600, Note_on_c, 0, 67, 48
6, 24719, Note_on_c, 0, 76, 0
6, 24719, Note_on_c, 0, 67, 0
6, 24960, Note_on_c, 0, 75, 48
6, 24960, Note_on_c, 0, 69, 48
6, 25079, Note_on_c, 0, 75, 0
6, 25079, Note_on_c, 0, 69, 0
6, 25080, Note_on_c, 0, 74, 48
6, 25080, Note_on_c, 0, 70, 48
6, 25199, Note_on_c, 0, 74, 0
6, 25199, Note_on_c, 0, 70, 0
6, 26040, Note_on_c, 0, 70, 48
6, 26040, Note_on_c, 0, 65, 48
6, 26279, Note_on_c, 0, 70, 0
6, 26279, Note_on_c, 0, 65, 0
6, 26280, Note_on_c, 0, 69, 48
6, 26280, Note_on_c, 0, 63, 48
6, 26399, Note_on_c, 0, 69, 0
6, 26399, Note_on_c, 0, 63, 0
6, 26400, Note_on_c, 0, 69, 48
6, 26400, Note_on_c, 0, 63, 48
6, 26579, Note_on_c, 0, 69, 0
6, 26579, Note_on_c, 0, 63, 0
6, 26580, Note_on_c, 0, 70, 48
6, 26580, Note_on_c, 0, 62, 48
6, 26639, Note_on_c, 0, 70, 0
6, 26639, Note_on_c, 0, 62, 0
6, 26640, Note_on_c, 0, 70, 48
6, 26640, Note_on_c, 0, 62, 48
6, 26759, Note_on_c, 0, 70, 0
6, 26759, Note_on_c, 0, 62, 0
6, 26880, Note_on_c, 0, 70, 72
6, 26880, Note_on_c, 0, 67, 72
6, 26999, Note_on_c, 0, 70, 0
6, 26999, Note_on_c, 0, 67, 0
6, 27120, Note_on_c, 0, 67, 48
6, 27120, Note_on_c, 0, 64, 48
6, 27239, Note_on_c, 0, 67, 0
6, 27239, Note_on_c, 0, 64, 0
6, 27480, Note_on_c, 0, 69, 48
6, 27480, Note_on_c, 0, 72, 48
6, 27599, Note_on_c, 0, 69, 0
6, 27599, Note_on_c, 0, 72, 0
6, 27600, Note_on_c, 0, 75, 48
6, 27600, Note_on_c, 0, 72, 48
6, 27719, Note_on_c, 0, 75, 0
6, 27719, Note_on_c, 0, 72, 0
6, 27720, Note_on_c, 0, 74, 48
6, 27720, Note_on_c, 0, 70, 48
6, 27839, Note_on_c, 0, 74, 0
6, 27839, Note_on_c, 0, 70, 0
6, 27840, Note_on_c, 0, 70, 54
6, 27840, Note_on_c, 0, 63, 54
6, 28079, Note_on_c, 0, 70, 0
6, 28079, Note_on_c, 0, 63, 0
6, 28080, Note_on_c, 0, 67, 66
6, 28080, Note_on_c, 0, 72, 66
6, 28199, Note_on_c, 0, 72, 0
6, 28200, Note_on_c, 0, 73, 69
6, 28319, Note_on_c, 0, 67, 0
6, 28319, Note_on_c, 0, 73, 0
6, 28320, Note_on_c, 0, 74, 72
6, 28320, Note_on_c, 0, 65, 72
6, 28439, Note_on_c, 0, 74, 0
6, 28439, Note_on_c, 0, 65, 0
6, 28440, Note_on_c, 0, 70, 72
6, 28440, Note_on_c, 0, 65, 72
6, 28679, Note_on_c, 0, 70, 0
6, 28679, Note_on_c, 0, 65, 0
6, 28680, Note_on_c, 0, 74, 72
6, 28680, Note_on_c, 0, 63, 72
6, 28739, Note_on_c, 0, 74, 0
6, 28740, Note_on_c, 0, 72, 72
6, 28799, Note_on_c, 0, 63, 0
6, 28799, Note_on_c, 0, 72, 0
6, 28800, Note_on_c, 0, 70, 72
6, 28800, Note_on_c, 0, 62, 72
6, 28919, Note_on_c, 0, 70, 0
6, 28919, Note_on_c, 0, 62, 0
6, 29040, Note_on_c, 0, 69, 48
6, 29040, Note_on_c, 0, 63, 48
6, 29159, Note_on_c, 0, 69, 0
6, 29159, Note_on_c, 0, 63, 0
6, 29280, Note_on_c, 0, 72, 48
6, 29280, Note_on_c, 0, 69, 48
6, 29519, Note_on_c, 0, 72, 0
6, 29519, Note_on_c, 0, 69, 0
6, 29520, Note_on_c, 0, 70, 48
6, 29639, Note_on_c, 0, 70, 0
6, 29639, End_track
7, 0, Start_track
7, 0, Title_t, "Bassoon"
7, 0, MIDI_port, 0
7, 0, Program_c, 1, 70
7, 0, Control_c, 1, 7, 96
7, 0, Control_c, 1, 10, 65
7, 0, Control_c, 1, 11, 127
7, 24000, Note_on_c, 1, 62, 48
7, 24000, Note_on_c, 1, 65, 48
7, 24119, Note_on_c, 1, 62, 0
7, 24119, Note_on_c, 1, 65, 0
7, 24240, Note_on_c, 1, 63, 48
7, 24240, Note_on_c, 1, 60, 48
7, 24359, Note_on_c, 1, 63, 0
7, 24359, Note_on_c, 1, 60, 0
7, 24480, Note_on_c, 1, 62, 48
7, 24480, Note_on_c, 1, 59, 48
7, 24599, Note_on_c, 1, 62, 0
7, 24599, Note_on_c, 1, 59, 0
7, 24600, Note_on_c, 1, 60, 48
7, 24719, Note_on_c, 1, 60, 0
7, 24960, Note_on_c, 1, 60, 48
7, 24960, Note_on_c, 1, 54, 48
7, 25079, Note_on_c, 1, 60, 0
7, 25079, Note_on_c, 1, 54, 0
7, 25080, Note_on_c, 1, 58, 48
7, 25080, Note_on_c, 1, 55, 48
7, 25199, Note_on_c, 1, 58, 0
7, 25199, Note_on_c, 1, 55, 0
7, 25500, Note_on_c, 1, 55, 72
7, 25500, Note_on_c, 1, 59, 72
7, 25559, Note_on_c, 1, 55, 0
7, 25559, Note_on_c, 1, 59, 0
7, 25560, Note_on_c, 1, 60, 72
7, 25560, Note_on_c, 1, 57, 72
7, 25619, Note_on_c, 1, 60, 0
7, 25619, Note_on_c, 1, 57, 0
7, 25620, Note_on_c, 1, 62, 72
7, 25620, Note_on_c, 1, 59, 72
7, 25679, Note_on_c, 1, 62, 0
7, 25679, Note_on_c, 1, 59, 0
7, 25680, Note_on_c, 1, 63, 72
7, 25680, Note_on_c, 1, 60, 72
7, 25859, Note_on_c, 1, 63, 0
7, 25859, Note_on_c, 1, 60, 0
7, 25860, Note_on_c, 1, 67, 72
7, 25860, Note_on_c, 1, 63, 72
7, 25919, Note_on_c, 1, 67, 0
7, 25919, Note_on_c, 1, 63, 0
7, 25920, Note_on_c, 1, 65, 72
7, 25920, Note_on_c, 1, 62, 72
7, 25979, Note_on_c, 1, 65, 0
7, 25979, Note_on_c, 1, 62, 0
7, 26040, Note_on_c, 1, 62, 48
7, 26040, Note_on_c, 1, 58, 48
7, 26159, Note_on_c, 1, 62, 0
7, 26159, Note_on_c, 1, 58, 0
7, 26160, Note_on_c, 1, 65, 48
7, 26160, Note_on_c, 1, 62, 48
7, 26279, Note_on_c, 1, 65, 0
7, 26279, Note_on_c, 1, 62, 0
7, 26280, Note_on_c, 1, 63, 48
7, 26280, Note_on_c, 1, 60, 48
7, 26399, Note_on_c, 1, 63, 0
7, 26399, Note_on_c, 1, 60, 0
7, 26400, Note_on_c, 1, 63, 48
7, 26400, Note_on_c, 1, 60, 48
7, 26579, Note_on_c, 1, 63, 0
7, 26579, Note_on_c, 1, 60, 0
7, 26580, Note_on_c, 1, 62, 48
7, 26580, Note_on_c, 1, 58, 48
7, 26639, Note_on_c, 1, 62, 0
7, 26639, Note_on_c, 1, 58, 0
7, 26640, Note_on_c, 1, 62, 48
7, 26640, Note_on_c, 1, 58, 48
7, 26759, Note_on_c, 1, 62, 0
7, 26759, Note_on_c, 1, 58, 0
7, 26880, Note_on_c, 1, 64, 72
7, 26880, Note_on_c, 1, 60, 72
7, 26999, Note_on_c, 1, 64, 0
7, 26999, Note_on_c, 1, 60, 0
7, 27120, Note_on_c, 1, 60, 48
7, 27120, Note_on_c, 1, 58, 48
7, 27239, Note_on_c, 1, 60, 0
7, 27239, Note_on_c, 1, 58, 0
7, 27480, Note_on_c, 1, 60, 48
7, 27480, Note_on_c, 1, 57, 48
7, 27599, Note_on_c, 1, 60, 0
7, 27599, Note_on_c, 1, 57, 0
7, 27600, Note_on_c, 1, 63, 48
7, 27600, Note_on_c, 1, 60, 48
7, 27719, Note_on_c, 1, 63, 0
7, 27719, Note_on_c, 1, 60, 0
7, 27720, Note_on_c, 1, 62, 48
7, 27720, Note_on_c, 1, 58, 48
7, 27839, Note_on_c, 1, 62, 0
7, 27839, Note_on_c, 1, 58, 0
7, 27840, Note_on_c, 1, 58, 54
7, 27840, Note_on_c, 1, 51, 54
7, 28079, Note_on_c, 1, 58, 0
7, 28079, Note_on_c, 1, 51, 0
7, 28080, Note_on_c, 1, 52, 66
7, 28080, Note_on_c, 1, 60, 66
7, 28199, Note_on_c, 1, 60, 0
7, 28200, Note_on_c, 1, 61, 69
7, 28319, Note_on_c, 1, 52, 0
7, 28319, Note_on_c, 1, 61, 0
7, 28320, Note_on_c, 1, 62, 72
7, 28320, Note_on_c, 1, 53, 72
7, 28439, Note_on_c, 1, 53, 0
7, 28440, Note_on_c, 1, 53, 72
7, 28559, Note_on_c, 1, 53, 0
7, 28560, Note_on_c, 1, 53, 72
7, 28679, Note_on_c, 1, 62, 0
7, 28679, Note_on_c, 1, 53, 0
7, 28680, Note_on_c, 1, 57, 72
7, 28680, Note_on_c, 1, 65, 72
7, 28739, Note_on_c, 1, 65, 0
7, 28740, Note_on_c, 1, 63, 72
7, 28799, Note_on_c, 1, 57, 0
7, 28799, Note_on_c, 1, 63, 0
7, 28800, Note_on_c, 1, 62, 72
7, 28800, Note_on_c, 1, 58, 72
7, 28919, Note_on_c, 1, 62, 0
7, 28919, Note_on_c, 1, 58, 0
7, 29040, Note_on_c, 1, 63, 48
7, 29040, Note_on_c, 1, 60, 48
7, 29159, Note_on_c, 1, 63, 0
7, 29159, Note_on_c, 1, 60, 0
7, 29280, Note_on_c, 1, 63, 48
7, 29280, Note_on_c, 1, 60, 48
7, 29519, Note_on_c, 1, 63, 0
7, 29519, Note_on_c, 1, 60, 0
7, 29520, Note_on_c, 1, 62, 48
7, 29520, Note_on_c, 1, 58, 48
7, 29639, Note_on_c, 1, 62, 0
7, 29639, Note_on_c, 1, 58, 0
7, 29639, End_track
8, 0, Start_track
8, 0, Title_t, "Trombone Solo"
8, 0, MIDI_port, 0
8, 0, Program_c, 2, 57
8, 0, Control_c, 2, 7, 96
8, 0, Control_c, 2, 10, 90
8, 0, Control_c, 2, 11, 127
8, 0, Note_on_c, 2, 58, 72
8, 239, Note_on_c, 2, 58, 0
8, 240, Note_on_c, 2, 53, 72
8, 479, Note_on_c, 2, 53, 0
8, 480, Note_on_c, 2, 62, 72
8, 599, Note_on_c, 2, 62, 0
8, 600, Note_on_c, 2, 58, 72
8, 719, Note_on_c, 2, 58, 0
8, 720, Note_on_c, 2, 53, 72
8, 839, Note_on_c, 2, 53, 0
8, 840, Note_on_c, 2, 50, 72
8, 959, Note_on_c, 2, 50, 0
8, 960, Note_on_c, 2, 46, 72
8, 1439, Note_on_c, 2, 46, 0
8, 1980, Note_on_c, 2, 58, 72
8, 2039, Note_on_c, 2, 58, 0
8, 2040, Note_on_c, 2, 62, 72
8, 2099, Note_on_c, 2, 62, 0
8, 2100, Note_on_c, 2, 65, 72
8, 2159, Note_on_c, 2, 65, 0
8, 2160, Note_on_c, 2, 68, 72
8, 2219, Note_on_c, 2, 68, 0
8, 2220, Note_on_c, 2, 65, 72
8, 2279, Note_on_c, 2, 65, 0
8, 2280, Note_on_c, 2, 62, 72
8, 2339, Note_on_c, 2, 62, 0
8, 2340, Note_on_c, 2, 56, 72
8, 2399, Note_on_c, 2, 56, 0
8, 2400, Note_on_c, 2, 55, 72
8, 2459, Note_on_c, 2, 55, 0
8, 2460, Note_on_c, 2, 58, 72
8, 2519, Note_on_c, 2, 58, 0
8, 2520, Note_on_c, 2, 63, 72
8, 2579, Note_on_c, 2, 63, 0
8, 2580, Note_on_c, 2, 66, 72
8, 2639, Note_on_c, 2, 66, 0
8, 2640, Note_on_c, 2, 65, 72
8, 2699, Note_on_c, 2, 65, 0
8, 2700, Note_on_c, 2, 60, 72
8, 2759, Note_on_c, 2, 60, 0
8, 2760, Note_on_c, 2, 65, 72
8, 2819, Note_on_c, 2, 65, 0
8, 2820, Note_on_c, 2, 63, 72
8, 2879, Note_on_c, 2, 63, 0
8, 2880, Note_on_c, 2, 62, 72
8, 2999, Note_on_c, 2, 62, 0
8, 3360, Note_on_c, 2, 65, 72
8, 3539, Note_on_c, 2, 65, 0
8, 3540, Note_on_c, 2, 67, 72
8, 3569, Note_on_c, 2, 67, 0
8, 3570, Note_on_c, 2, 65, 72
8, 3599, Note_on_c, 2, 65, 0
8, 3600, Note_on_c, 2, 63, 72
8, 3659, Note_on_c, 2, 63, 0
8, 3660, Note_on_c, 2, 62, 72
8, 3719, Note_on_c, 2, 62, 0
8, 3720, Note_on_c, 2, 60, 72
8, 3779, Note_on_c, 2, 60, 0
8, 3780, Note_on_c, 2, 58, 72
8, 3839, Note_on_c, 2, 58, 0
8, 3840, Note_on_c, 2, 58, 72
8, 3899, Note_on_c, 2, 58, 0
8, 3900, Note_on_c, 2, 57, 72
8, 3959, Note_on_c, 2, 57, 0
8, 3960, Note_on_c, 2, 60, 72
8, 4019, Note_on_c, 2, 60, 0
8, 4020, Note_on_c, 2, 58, 72
8, 4079, Note_on_c, 2, 58, 0
8, 4080, Note_on_c, 2, 57, 72
8, 4319, Note_on_c, 2, 57, 0
8, 4320, Note_on_c, 2, 63, 72
8, 4499, Note_on_c, 2, 63, 0
8, 4500, Note_on_c, 2, 65, 72
8, 4529, Note_on_c, 2, 65, 0
8, 4530, Note_on_c, 2, 63, 72
8, 4559, Note_on_c, 2, 63, 0
8, 4560, Note_on_c, 2, 62, 72
8, 4619, Note_on_c, 2, 62, 0
8, 4620, Note_on_c, 2, 60, 72
8, 4679, Note_on_c, 2, 60, 0
8, 4680, Note_on_c, 2, 58, 72
8, 4739, Note_on_c, 2, 58, 0
8, 4740, Note_on_c, 2, 57, 72
8, 4799, Note_on_c, 2, 57, 0
8, 4800, Note_on_c, 2, 58, 72
8, 4859, Note_on_c, 2, 58, 0
8, 4860, Note_on_c, 2, 46, 72
8, 4919, Note_on_c, 2, 46, 0
8, 4920, Note_on_c, 2, 50, 72
8, 4979, Note_on_c, 2, 50, 0
8, 4980, Note_on_c, 2, 53, 72
8, 5039, Note_on_c, 2, 53, 0
8, 5040, Note_on_c, 2, 50, 72
8, 5099, Note_on_c, 2, 50, 0
8, 5100, Note_on_c, 2, 53, 72
8, 5159, Note_on_c, 2, 53, 0
8, 5160, Note_on_c, 2, 58, 72
8, 5279, Note_on_c, 2, 58, 0
8, 5340, Note_on_c, 2, 51, 72
8, 5399, Note_on_c, 2, 51, 0
8, 5400, Note_on_c, 2, 55, 72
8, 5459, Note_on_c, 2, 55, 0
8, 5460, Note_on_c, 2, 60, 72
8, 5519, Note_on_c, 2, 60, 0
8, 5520, Note_on_c, 2, 53, 72
8, 5579, Note_on_c, 2, 53, 0
8, 5580, Note_on_c, 2, 57, 72
8, 5639, Note_on_c, 2, 57, 0
8, 5640, Note_on_c, 2, 62, 72
8, 5759, Note_on_c, 2, 62, 0
8, 5820, Note_on_c, 2, 55, 72
8, 5879, Note_on_c, 2, 55, 0
8, 5880, Note_on_c, 2, 58, 72
8, 5939, Note_on_c, 2, 58, 0
8, 5940, Note_on_c, 2, 63, 72
8, 5999, Note_on_c, 2, 63, 0
8, 6000, Note_on_c, 2, 57, 72
8, 6059, Note_on_c, 2, 57, 0
8, 6060, Note_on_c, 2, 60, 72
8, 6119, Note_on_c, 2, 60, 0
8, 6120, Note_on_c, 2, 65, 72
8, 6239, Note_on_c, 2, 65, 0
8, 6900, Note_on_c, 2, 60, 72
8, 6959, Note_on_c, 2, 60, 0
8, 6960, Note_on_c, 2, 62, 72
8, 7019, Note_on_c, 2, 62, 0
8, 7020, Note_on_c, 2, 64, 72
8, 7079, Note_on_c, 2, 64, 0
8, 7080, Note_on_c, 2, 65, 72
8, 7139, Note_on_c, 2, 65, 0
8, 7140, Note_on_c, 2, 67, 72
8, 7199, Note_on_c, 2, 67, 0
8, 7200, Note_on_c, 2, 68, 72
8, 7259, Note_on_c, 2, 68, 0
8, 7260, Note_on_c, 2, 64, 72
8, 7319, Note_on_c, 2, 64, 0
8, 7320, Note_on_c, 2, 65, 72
8, 7379, Note_on_c, 2, 65, 0
8, 7380, Note_on_c, 2, 67, 72
8, 7439, Note_on_c, 2, 67, 0
8, 7440, Note_on_c, 2, 68, 72
8, 7499, Note_on_c, 2, 68, 0
8, 7500, Note_on_c, 2, 64, 72
8, 7559, Note_on_c, 2, 64, 0
8, 7560, Note_on_c, 2, 65, 72
8, 7619, Note_on_c, 2, 65, 0
8, 7620, Note_on_c, 2, 56, 72
8, 7679, Note_on_c, 2, 56, 0
8, 7680, Note_on_c, 2, 57, 72
8, 7739, Note_on_c, 2, 57, 0
8, 7740, Note_on_c, 2, 60, 72
8, 7799, Note_on_c, 2, 60, 0
8, 7800, Note_on_c, 2, 65, 72
8, 7859, Note_on_c, 2, 65, 0
8, 7860, Note_on_c, 2, 57, 72
8, 7919, Note_on_c, 2, 57, 0
8, 7920, Note_on_c, 2, 55, 72
8, 7979, Note_on_c, 2, 55, 0
8, 7980, Note_on_c, 2, 58, 72
8, 8039, Note_on_c, 2, 58, 0
8, 8040, Note_on_c, 2, 65, 72
8, 8099, Note_on_c, 2, 65, 0
8, 8100, Note_on_c, 2, 64, 72
8, 8159, Note_on_c, 2, 64, 0
8, 8160, Note_on_c, 2, 65, 72
8, 8279, Note_on_c, 2, 65, 0
8, 11040, Note_on_c, 2, 58, 48
8, 11519, Note_on_c, 2, 58, 0
8, 11520, Note_on_c, 2, 60, 48
8, 11999, Note_on_c, 2, 60, 0
8, 12000, Note_on_c, 2, 58, 48
8, 12239, Note_on_c, 2, 58, 0
8, 12240, Note_on_c, 2, 62, 48
8, 12419, Note_on_c, 2, 62, 0
8, 12420, Note_on_c, 2, 60, 48
8, 12479, Note_on_c, 2, 60, 0
8, 12480, Note_on_c, 2, 58, 48
8, 12719, Note_on_c, 2, 58, 0
8, 12720, Note_on_c, 2, 58, 48
8, 12899, Note_on_c, 2, 58, 0
8, 12900, Note_on_c, 2, 59, 48
8, 12959, Note_on_c, 2, 59, 0
8, 12960, Note_on_c, 2, 57, 48
8, 13079, Note_on_c, 2, 57, 0
8, 13080, Note_on_c, 2, 64, 72
8, 13199, Note_on_c, 2, 64, 0
8, 13200, Note_on_c, 2, 61, 72
8, 13259, Note_on_c, 2, 61, 0
8, 13260, Note_on_c, 2, 57, 72
8, 13319, Note_on_c, 2, 57, 0
8, 13320, Note_on_c, 2, 59, 72
8, 13379, Note_on_c, 2, 59, 0
8, 13380, Note_on_c, 2, 61, 72
8, 13439, Note_on_c, 2, 61, 0
8, 13440, Note_on_c, 2, 62, 72
8, 13500, Note_on_c, 2, 62, 0
8, 13500, Note_on_c, 2, 62, 48
8, 15359, Note_on_c, 2, 62, 0
8, 15480, Note_on_c, 2, 53, 48
8, 15599, Note_on_c, 2, 53, 0
8, 15600, Note_on_c, 2, 57, 48
8, 15719, Note_on_c, 2, 57, 0
8, 15720, Note_on_c, 2, 61, 48
8, 15839, Note_on_c, 2, 61, 0
8, 15840, Note_on_c, 2, 62, 48
8, 15959, Note_on_c, 2, 62, 0
8, 15959, End_track
9, 0, Start_track
9, 0, Title_t, "Violin I"
9, 0, MIDI_port, 0
9, 0, Program_c, 3, 48
9, 0, Control_c, 3, 7, 96
9, 0, Control_c, 3, 10, 48
9, 0, Control_c, 3, 11, 127
9, 2040, Note_on_c, 3, 68, 48
9, 2159, Note_on_c, 3, 68, 0
9, 2280, Note_on_c, 3, 68, 48
9, 2399, Note_on_c, 3, 68, 0
9, 2520, Note_on_c, 3, 66, 48
9, 2639, Note_on_c, 3, 66, 0
9, 2760, Note_on_c, 3, 65, 48
9, 2879, Note_on_c, 3, 65, 0
9, 2880, Note_on_c, 3, 65, 48
9, 2999, Note_on_c, 3, 65, 0
9, 3480, Note_on_c, 3, 65, 48
9, 3599, Note_on_c, 3, 65, 0
9, 3720, Note_on_c, 3, 65, 48
9, 3839, Note_on_c, 3, 65, 0
9, 3960, Note_on_c, 3, 65, 48
9, 4079, Note_on_c, 3, 65, 0
9, 4200, Note_on_c, 3, 65, 48
9, 4319, Note_on_c, 3, 65, 0
9, 4440, Note_on_c, 3, 65, 48
9, 4559, Note_on_c, 3, 65, 0
9, 4680, Note_on_c, 3, 65, 48
9, 4799, Note_on_c, 3, 65, 0
9, 4800, Note_on_c, 3, 65, 48
9, 4919, Note_on_c, 3, 65, 0
9, 5160, Note_on_c, 3, 65, 48
9, 5279, Note_on_c, 3, 65, 0
9, 5280, Note_on_c, 3, 67, 48
9, 5399, Note_on_c, 3, 67, 0
9, 5640, Note_on_c, 3, 69, 48
9, 5759, Note_on_c, 3, 69, 0
9, 5760, Note_on_c, 3, 70, 48
9, 5879, Note_on_c, 3, 70, 0
9, 6120, Note_on_c, 3, 72, 48
9, 6239, Note_on_c, 3, 72, 0
9, 6240, Note_on_c, 3, 74, 48
9, 6359, Note_on_c, 3, 74, 0
9, 6480, Note_on_c, 3, 72, 48
9, 6599, Note_on_c, 3, 72, 0
9, 6720, Note_on_c, 3, 76, 48
9, 6839, Note_on_c, 3, 76, 0
9, 6840, Note_on_c, 3, 77, 48
9, 6959, Note_on_c, 3, 77, 0
9, 7800, Note_on_c, 3, 77, 48
9, 7919, Note_on_c, 3, 77, 0
9, 8040, Note_on_c, 3, 76, 48
9, 8159, Note_on_c, 3, 76, 0
9, 8160, Note_on_c, 3, 77, 72
9, 8219, Note_on_c, 3, 77, 0
9, 8220, Note_on_c, 3, 77, 48
9, 8279, Note_on_c, 3, 77, 0
9, 8280, Note_on_c, 3, 77, 48
9, 8339, Note_on_c, 3, 77, 0
9, 8340, Note_on_c, 3, 77, 48
9, 8399, Note_on_c, 3, 77, 0
9, 8400, Note_on_c, 3, 77, 48
9, 8459, Note_on_c, 3, 77, 0
9, 8460, Note_on_c, 3, 77, 48
9, 8519, Note_on_c, 3, 77, 0
9, 8520, Note_on_c, 3, 77, 48
9, 8579, Note_on_c, 3, 77, 0
9, 8580, Note_on_c, 3, 77, 48
9, 8639, Note_on_c, 3, 77, 0
9, 8640, Note_on_c, 3, 79, 48
9, 8699, Note_on_c, 3, 79, 0
9, 8700, Note_on_c, 3, 79, 48
9, 8759, Note_on_c, 3, 79, 0
9, 8760, Note_on_c, 3, 79, 48
9, 8819, Note_on_c, 3, 79, 0
9, 8820, Note_on_c, 3, 79, 48
9, 8879, Note_on_c, 3, 79, 0
9, 8880, Note_on_c, 3, 79, 48
9, 8939, Note_on_c, 3, 79, 0
9, 8940, Note_on_c, 3, 79, 48
9, 8999, Note_on_c, 3, 79, 0
9, 9000, Note_on_c, 3, 79, 48
9, 9059, Note_on_c, 3, 79, 0
9, 9060, Note_on_c, 3, 77, 48
9, 9119, Note_on_c, 3, 77, 0
9, 9180, Note_on_c, 3, 76, 48
9, 9239, Note_on_c, 3, 76, 0
9, 9240, Note_on_c, 3, 76, 48
9, 9299, Note_on_c, 3, 76, 0
9, 9300, Note_on_c, 3, 73, 48
9, 9359, Note_on_c, 3, 73, 0
9, 9420, Note_on_c, 3, 72, 48
9, 9479, Note_on_c, 3, 72, 0
9, 9480, Note_on_c, 3, 72, 48
9, 9539, Note_on_c, 3, 72, 0
9, 9540, Note_on_c, 3, 70, 48
9, 9599, Note_on_c, 3, 70, 0
9, 9600, Note_on_c, 3, 68, 48
9, 9659, Note_on_c, 3, 68, 0
9, 9660, Note_on_c, 3, 72, 48
9, 9719, Note_on_c, 3, 72, 0
9, 9720, Note_on_c, 3, 72, 48
9, 9779, Note_on_c, 3, 72, 0
9, 9780, Note_on_c, 3, 77, 48
9, 9839, Note_on_c, 3, 77, 0
9, 9840, Note_on_c, 3, 77, 48
9, 9899, Note_on_c, 3, 77, 0
9, 9900, Note_on_c, 3, 77, 48
9, 9959, Note_on_c, 3, 77, 0
9, 9960, Note_on_c, 3, 77, 48
9, 10019, Note_on_c, 3, 77, 0
9, 10020, Note_on_c, 3, 77, 48
9, 10079, Note_on_c, 3, 77, 0
9, 10080, Note_on_c, 3, 77, 48
9, 10139, Note_on_c, 3, 77, 0
9, 10140, Note_on_c, 3, 77, 48
9, 10199, Note_on_c, 3, 77, 0
9, 10200, Note_on_c, 3, 75, 48
9, 10259, Note_on_c, 3, 75, 0
9, 10260, Note_on_c, 3, 75, 48
9, 10319, Note_on_c, 3, 75, 0
9, 10320, Note_on_c, 3, 74, 48
9, 10379, Note_on_c, 3, 74, 0
9, 10380, Note_on_c, 3, 74, 48
9, 10439, Note_on_c, 3, 74, 0
9, 10440, Note_on_c, 3, 74, 48
9, 10499, Note_on_c, 3, 74, 0
9, 10500, Note_on_c, 3, 72, 48
9, 10559, Note_on_c, 3, 72, 0
9, 10560, Note_on_c, 3, 71, 48
9, 10679, Note_on_c, 3, 71, 0
9, 10740, Note_on_c, 3, 67, 72
9, 10799, Note_on_c, 3, 67, 0
9, 10800, Note_on_c, 3, 71, 72
9, 10859, Note_on_c, 3, 71, 0
9, 10860, Note_on_c, 3, 67, 72
9, 10919, Note_on_c, 3, 67, 0
9, 10920, Note_on_c, 3, 62, 72
9, 10979, Note_on_c, 3, 62, 0
9, 10980, Note_on_c, 3, 59, 72
9, 11039, Note_on_c, 3, 59, 0
9, 11040, Note_on_c, 3, 55, 72
9, 11099, Note_on_c, 3, 55, 0
9, 11100, Note_on_c, 3, 74, 48
9, 11159, Note_on_c, 3, 74, 0
9, 11160, Note_on_c, 3, 74, 48
9, 11219, Note_on_c, 3, 74, 0
9, 11220, Note_on_c, 3, 74, 48
9, 11279, Note_on_c, 3, 74, 0
9, 11280, Note_on_c, 3, 74, 48
9, 11339, Note_on_c, 3, 74, 0
9, 11340, Note_on_c, 3, 74, 48
9, 11399, Note_on_c, 3, 74, 0
9, 11400, Note_on_c, 3, 74, 48
9, 11459, Note_on_c, 3, 74, 0
9, 11460, Note_on_c, 3, 74, 48
9, 11519, Note_on_c, 3, 74, 0
9, 11580, Note_on_c, 3, 74, 48
9, 11639, Note_on_c, 3, 74, 0
9, 11640, Note_on_c, 3, 74, 48
9, 11699, Note_on_c, 3, 74, 0
9, 11700, Note_on_c, 3, 74, 48
9, 11759, Note_on_c, 3, 74, 0
9, 11760, Note_on_c, 3, 74, 48
9, 11819, Note_on_c, 3, 74, 0
9, 11820, Note_on_c, 3, 74, 48
9, 11879, Note_on_c, 3, 74, 0
9, 11880, Note_on_c, 3, 74, 48
9, 11939, Note_on_c, 3, 74, 0
9, 11940, Note_on_c, 3, 74, 48
9, 11999, Note_on_c, 3, 74, 0
9, 12060, Note_on_c, 3, 74, 48
9, 12119, Note_on_c, 3, 74, 0
9, 12120, Note_on_c, 3, 74, 48
9, 12179, Note_on_c, 3, 74, 0
9, 12180, Note_on_c, 3, 74, 48
9, 12239, Note_on_c, 3, 74, 0
9, 12240, Note_on_c, 3, 79, 48
9, 12299, Note_on_c, 3, 79, 0
9, 12300, Note_on_c, 3, 79, 48
9, 12359, Note_on_c, 3, 79, 0
9, 12360, Note_on_c, 3, 79, 48
9, 12419, Note_on_c, 3, 79, 0
9, 12420, Note_on_c, 3, 77, 48
9, 12479, Note_on_c, 3, 77, 0
9, 12540, Note_on_c, 3, 76, 48
9, 12599, Note_on_c, 3, 76, 0
9, 12600, Note_on_c, 3, 76, 48
9, 12659, Note_on_c, 3, 76, 0
9, 12660, Note_on_c, 3, 76, 48
9, 12719, Note_on_c, 3, 76, 0
9, 12720, Note_on_c, 3, 76, 48
9, 12749, Note_on_c, 3, 76, 0
9, 12780, Note_on_c, 3, 76, 48
9, 12809, Note_on_c, 3, 76, 0
9, 12840, Note_on_c, 3, 76, 48
9, 12899, Note_on_c, 3, 76, 0
9, 12900, Note_on_c, 3, 74, 48
9, 12959, Note_on_c, 3, 74, 0
9, 12960, Note_on_c, 3, 74, 48
9, 13019, Note_on_c, 3, 74, 0
9, 13020, Note_on_c, 3, 74, 48
9, 13079, Note_on_c, 3, 74, 0
9, 13080, Note_on_c, 3, 73, 48
9, 13139, Note_on_c, 3, 73, 0
9, 13140, Note_on_c, 3, 73, 48
9, 13199, Note_on_c, 3, 73, 0
9, 13200, Note_on_c, 3, 73, 48
9, 13259, Note_on_c, 3, 73, 0
9, 13260, Note_on_c, 3, 73, 48
9, 13319, Note_on_c, 3, 73, 0
9, 13320, Note_on_c, 3, 73, 48
9, 13379, Note_on_c, 3, 73, 0
9, 13380, Note_on_c, 3, 73, 48
9, 13439, Note_on_c, 3, 73, 0
9, 13500, Note_on_c, 3, 74, 48
9, 13559, Note_on_c, 3, 74, 0
9, 13620, Note_on_c, 3, 74, 48
9, 13679, Note_on_c, 3, 74, 0
9, 13740, Note_on_c, 3, 74, 48
9, 13799, Note_on_c, 3, 74, 0
9, 13860, Note_on_c, 3, 74, 48
9, 13919, Note_on_c, 3, 74, 0
9, 13980, Note_on_c, 3, 74, 48
9, 14039, Note_on_c, 3, 74, 0
9, 14100, Note_on_c, 3, 74, 48
9, 14159, Note_on_c, 3, 74, 0
9, 14220, Note_on_c, 3, 74, 48
9, 14279, Note_on_c, 3, 74, 0
9, 14340, Note_on_c, 3, 74, 48
9, 14399, Note_on_c, 3, 74, 0
9, 14460, Note_on_c, 3, 74, 48
9, 14519, Note_on_c, 3, 74, 0
9, 14580, Note_on_c, 3, 74, 48
9, 14639, Note_on_c, 3, 74, 0
9, 14700, Note_on_c, 3, 74, 48
9, 14759, Note_on_c, 3, 74, 0
9, 14820, Note_on_c, 3, 74, 48
9, 14879, Note_on_c, 3, 74, 0
9, 14940, Note_on_c, 3, 74, 54
9, 14999, Note_on_c, 3, 74, 0
9, 15060, Note_on_c, 3, 74, 60
9, 15119, Note_on_c, 3, 74, 0
9, 15180, Note_on_c, 3, 74, 66
9, 15239, Note_on_c, 3, 74, 0
9, 15300, Note_on_c, 3, 56, 72
9, 15359, Note_on_c, 3, 56, 0
9, 15360, Note_on_c, 3, 57, 72
9, 15419, Note_on_c, 3, 57, 0
9, 15420, Note_on_c, 3, 58, 72
9, 15479, Note_on_c, 3, 58, 0
9, 15480, Note_on_c, 3, 57, 72
9, 15539, Note_on_c, 3, 57, 0
9, 15540, Note_on_c, 3, 56, 72
9, 15599, Note_on_c, 3, 56, 0
9, 15600, Note_on_c, 3, 57, 72
9, 15659, Note_on_c, 3, 57, 0
9, 15660, Note_on_c, 3, 77, 72
9, 15689, Note_on_c, 3, 77, 0
9, 15780, Note_on_c, 3, 76, 72
9, 15809, Note_on_c, 3, 76, 0
9, 15900, Note_on_c, 3, 74, 48
9, 15959, Note_on_c, 3, 74, 0
9, 16020, Note_on_c, 3, 74, 48
9, 16079, Note_on_c, 3, 74, 0
9, 16140, Note_on_c, 3, 74, 48
9, 16199, Note_on_c, 3, 74, 0
9, 16260, Note_on_c, 3, 74, 48
9, 16319, Note_on_c, 3, 74, 0
9, 16380, Note_on_c, 3, 73, 48
9, 16439, Note_on_c, 3, 73, 0
9, 16500, Note_on_c, 3, 73, 48
9, 16559, Note_on_c, 3, 73, 0
9, 16620, Note_on_c, 3, 76, 48
9, 16679, Note_on_c, 3, 76, 0
9, 16740, Note_on_c, 3, 76, 48
9, 16799, Note_on_c, 3, 76, 0
9, 16860, Note_on_c, 3, 74, 48
9, 16979, Note_on_c, 3, 74, 0
9, 16980, Note_on_c, 3, 77, 48
9, 17099, Note_on_c, 3, 77, 0
9, 17100, Note_on_c, 3, 80, 72
9, 17159, Note_on_c, 3, 80, 0
9, 17160, Note_on_c, 3, 79, 72
9, 17219, Note_on_c, 3, 79, 0
9, 17220, Note_on_c, 3, 77, 72
9, 17279, Note_on_c, 3, 77, 0
9, 17340, Note_on_c, 3, 75, 48
9, 17399, Note_on_c, 3, 75, 0
9, 17460, Note_on_c, 3, 75, 48
9, 17519, Note_on_c, 3, 75, 0
9, 17580, Note_on_c, 3, 75, 48
9, 17639, Note_on_c, 3, 75, 0
9, 17700, Note_on_c, 3, 75, 48
9, 17759, Note_on_c, 3, 75, 0
9, 17820, Note_on_c, 3, 77, 48
9, 17879, Note_on_c, 3, 77, 0
9, 17940, Note_on_c, 3, 77, 48
9, 17999, Note_on_c, 3, 77, 0
9, 18060, Note_on_c, 3, 77, 48
9, 18119, Note_on_c, 3, 77, 0
9, 18180, Note_on_c, 3, 77, 48
9, 18239, Note_on_c, 3, 77, 0
9, 18300, Note_on_c, 3, 75, 48
9, 18359, Note_on_c, 3, 75, 0
9, 18420, Note_on_c, 3, 84, 48
9, 18479, Note_on_c, 3, 84, 0
9, 18540, Note_on_c, 3, 81, 48
9, 18599, Note_on_c, 3, 81, 0
9, 18660, Note_on_c, 3, 75, 48
9, 18719, Note_on_c, 3, 75, 0
9, 18780, Note_on_c, 3, 74, 48
9, 18839, Note_on_c, 3, 74, 0
9, 18900, Note_on_c, 3, 77, 48
9, 18959, Note_on_c, 3, 77, 0
9, 19020, Note_on_c, 3, 77, 48
9, 19079, Note_on_c, 3, 77, 0
9, 19140, Note_on_c, 3, 82, 48
9, 19199, Note_on_c, 3, 82, 0
9, 19260, Note_on_c, 3, 81, 48
9, 19319, Note_on_c, 3, 81, 0
9, 19380, Note_on_c, 3, 82, 48
9, 19439, Note_on_c, 3, 82, 0
9, 19500, Note_on_c, 3, 84, 48
9, 19559, Note_on_c, 3, 84, 0
9, 19620, Note_on_c, 3, 75, 48
9, 19679, Note_on_c, 3, 75, 0
9, 19740, Note_on_c, 3, 74, 48
9, 19799, Note_on_c, 3, 74, 0
9, 19860, Note_on_c, 3, 74, 48
9, 19919, Note_on_c, 3, 74, 0
9, 19980, Note_on_c, 3, 74, 48
9, 20039, Note_on_c, 3, 74, 0
9, 20100, Note_on_c, 3, 74, 48
9, 20159, Note_on_c, 3, 74, 0
9, 20220, Note_on_c, 3, 76, 48
9, 20279, Note_on_c, 3, 76, 0
9, 20340, Note_on_c, 3, 76, 48
9, 20399, Note_on_c, 3, 76, 0
9, 20460, Note_on_c, 3, 76, 48
9, 20519, Note_on_c, 3, 76, 0
9, 20580, Note_on_c, 3, 76, 48
9, 20639, Note_on_c, 3, 76, 0
9, 20640, Note_on_c, 3, 77, 48
9, 20759, Note_on_c, 3, 77, 0
9, 20820, Note_on_c, 3, 65, 48
9, 20879, Note_on_c, 3, 65, 0
9, 20880, Note_on_c, 3, 67, 48
9, 20939, Note_on_c, 3, 67, 0
9, 20940, Note_on_c, 3, 69, 48
9, 20999, Note_on_c, 3, 69, 0
9, 21000, Note_on_c, 3, 70, 48
9, 21059, Note_on_c, 3, 70, 0
9, 21060, Note_on_c, 3, 72, 48
9, 21119, Note_on_c, 3, 72, 0
9, 21120, Note_on_c, 3, 74, 48
9, 21239, Note_on_c, 3, 74, 0
9, 21360, Note_on_c, 3, 74, 48
9, 21479, Note_on_c, 3, 74, 0
9, 21600, Note_on_c, 3, 74, 48
9, 21719, Note_on_c, 3, 74, 0
9, 21720, Note_on_c, 3, 79, 48
9, 21839, Note_on_c, 3, 79, 0
9, 21960, Note_on_c, 3, 72, 48
9, 22199, Note_on_c, 3, 72, 0
9, 22200, Note_on_c, 3, 77, 48
9, 22319, Note_on_c, 3, 77, 0
9, 22440, Note_on_c, 3, 70, 48
9, 22679, Note_on_c, 3, 70, 0
9, 22680, Note_on_c, 3, 75, 66
9, 22919, Note_on_c, 3, 75, 0
9, 22920, Note_on_c, 3, 74, 48
9, 23039, Note_on_c, 3, 74, 0
9, 23040, Note_on_c, 3, 72, 48
9, 23219, Note_on_c, 3, 72, 0
9, 23220, Note_on_c, 3, 74, 48
9, 23249, Note_on_c, 3, 74, 0
9, 23250, Note_on_c, 3, 75, 48
9, 23279, Note_on_c, 3, 75, 0
9, 23280, Note_on_c, 3, 70, 48
9, 23399, Note_on_c, 3, 70, 0
9, 23400, Note_on_c, 3, 72, 48
9, 23519, Note_on_c, 3, 72, 0
9, 23520, Note_on_c, 3, 72, 48
9, 23699, Note_on_c, 3, 72, 0
9, 23700, Note_on_c, 3, 73, 48
9, 23759, Note_on_c, 3, 73, 0
9, 23760, Note_on_c, 3, 74, 48
9, 23879, Note_on_c, 3, 74, 0
9, 24120, Note_on_c, 3, 77, 48
9, 24239, Note_on_c, 3, 77, 0
9, 24360, Note_on_c, 3, 77, 48
9, 24479, Note_on_c, 3, 77, 0
9, 24480, Note_on_c, 3, 77, 48
9, 24599, Note_on_c, 3, 77, 0
9, 24600, Note_on_c, 3, 76, 48
9, 24659, Note_on_c, 3, 76, 0
9, 24690, Note_on_c, 3, 79, 48
9, 24719, Note_on_c, 3, 79, 0
9, 24720, Note_on_c, 3, 83, 48
9, 24839, Note_on_c, 3, 83, 0
9, 24840, Note_on_c, 3, 84, 48
9, 24899, Note_on_c, 3, 84, 0
9, 24930, Note_on_c, 3, 72, 48
9, 24959, Note_on_c, 3, 72, 0
9, 24960, Note_on_c, 3, 75, 48
9, 25079, Note_on_c, 3, 75, 0
9, 25080, Note_on_c, 3, 74, 48
9, 25139, Note_on_c, 3, 74, 0
9, 25170, Note_on_c, 3, 74, 48
9, 25199, Note_on_c, 3, 74, 0
9, 25200, Note_on_c, 3, 81, 48
9, 25319, Note_on_c, 3, 81, 0
9, 25320, Note_on_c, 3, 82, 48
9, 25379, Note_on_c, 3, 82, 0
9, 25410, Note_on_c, 3, 70, 48
9, 25439, Note_on_c, 3, 70, 0
9, 25440, Note_on_c, 3, 79, 72
9, 25709, Note_on_c, 3, 79, 0
9, 25710, Note_on_c, 3, 81, 72
9, 25739, Note_on_c, 3, 81, 0
9, 25740, Note_on_c, 3, 82, 72
9, 25769, Note_on_c, 3, 82, 0
9, 25770, Note_on_c, 3, 78, 72
9, 25799, Note_on_c, 3, 78, 0
9, 25800, Note_on_c, 3, 79, 72
9, 25829, Note_on_c, 3, 79, 0
9, 25830, Note_on_c, 3, 74, 72
9, 25859, Note_on_c, 3, 74, 0
9, 25860, Note_on_c, 3, 75, 72
9, 25889, Note_on_c, 3, 75, 0
9, 25890, Note_on_c, 3, 72, 72
9, 25919, Note_on_c, 3, 72, 0
9, 25920, Note_on_c, 3, 70, 72
9, 25979, Note_on_c, 3, 70, 0
9, 26040, Note_on_c, 3, 70, 48
9, 26279, Note_on_c, 3, 70, 0
9, 26280, Note_on_c, 3, 69, 48
9, 26399, Note_on_c, 3, 69, 0
9, 26400, Note_on_c, 3, 75, 48
9, 26579, Note_on_c, 3, 75, 0
9, 26580, Note_on_c, 3, 74, 48
9, 26639, Note_on_c, 3, 74, 0
9, 26640, Note_on_c, 3, 74, 48
9, 26699, Note_on_c, 3, 74, 0
9, 26880, Note_on_c, 3, 82, 72
9, 26880, Note_on_c, 3, 72, 72
9, 26880, Note_on_c, 3, 64, 72
9, 26999, Note_on_c, 3, 82, 0
9, 26999, Note_on_c, 3, 72, 0
9, 26999, Note_on_c, 3, 64, 0
9, 27120, Note_on_c, 3, 84, 48
9, 27179, Note_on_c, 3, 84, 0
9, 27180, Note_on_c, 3, 76, 48
9, 27239, Note_on_c, 3, 76, 0
9, 27420, Note_on_c, 3, 77, 48
9, 27479, Note_on_c, 3, 77, 0
9, 27480, Note_on_c, 3, 84, 48
9, 27539, Note_on_c, 3, 84, 0
9, 27540, Note_on_c, 3, 81, 48
9, 27599, Note_on_c, 3, 81, 0
9, 27600, Note_on_c, 3, 77, 48
9, 27659, Note_on_c, 3, 77, 0
9, 27660, Note_on_c, 3, 75, 48
9, 27719, Note_on_c, 3, 75, 0
9, 27720, Note_on_c, 3, 74, 48
9, 27779, Note_on_c, 3, 74, 0
9, 27780, Note_on_c, 3, 82, 48
9, 27839, Note_on_c, 3, 82, 0
9, 27900, Note_on_c, 3, 79, 54
9, 28019, Note_on_c, 3, 79, 0
9, 28020, Note_on_c, 3, 79, 60
9, 28139, Note_on_c, 3, 79, 0
9, 28140, Note_on_c, 3, 82, 66
9, 28259, Note_on_c, 3, 82, 0
9, 28260, Note_on_c, 3, 82, 69
9, 28379, Note_on_c, 3, 82, 0
9, 28380, Note_on_c, 3, 70, 72
9, 28499, Note_on_c, 3, 70, 0
9, 28500, Note_on_c, 3, 70, 72
9, 28619, Note_on_c, 3, 70, 0
9, 28620, Note_on_c, 3, 70, 72
9, 28679, Note_on_c, 3, 70, 0
9, 28680, Note_on_c, 3, 74, 72
9, 28739, Note_on_c, 3, 74, 0
9, 28740, Note_on_c, 3, 72, 72
9, 28799, Note_on_c, 3, 72, 0
9, 28800, Note_on_c, 3, 70, 72
9, 28859, Note_on_c, 3, 70, 0
9, 28860, Note_on_c, 3, 65, 48
9, 28919, Note_on_c, 3, 65, 0
9, 28920, Note_on_c, 3, 74, 48
9, 28979, Note_on_c, 3, 74, 0
9, 28980, Note_on_c, 3, 65, 48
9, 29039, Note_on_c, 3, 65, 0
9, 29100, Note_on_c, 3, 63, 48
9, 29159, Note_on_c, 3, 63, 0
9, 29160, Note_on_c, 3, 72, 48
9, 29219, Note_on_c, 3, 72, 0
9, 29220, Note_on_c, 3, 63, 48
9, 29279, Note_on_c, 3, 63, 0
9, 29280, Note_on_c, 3, 63, 48
9, 29519, Note_on_c, 3, 63, 0
9, 29520, Note_on_c, 3, 62, 48
9, 29639, Note_on_c, 3, 62, 0
9, 29639, End_track
10, 0, Start_track
10, 0, Title_t, "Violin II"
10, 0, MIDI_port, 0
10, 0, Program_c, 4, 48
10, 0, Control_c, 4, 7, 96
10, 0, Control_c, 4, 10, 24
10, 0, Control_c, 4, 11, 127
10, 2040, Note_on_c, 4, 65, 48
10, 2159, Note_on_c, 4, 65, 0
10, 2280, Note_on_c, 4, 65, 48
10, 2399, Note_on_c, 4, 65, 0
10, 2520, Note_on_c, 4, 63, 48
10, 2639, Note_on_c, 4, 63, 0
10, 2760, Note_on_c, 4, 63, 48
10, 2879, Note_on_c, 4, 63, 0
10, 2880, Note_on_c, 4, 62, 48
10, 2999, Note_on_c, 4, 62, 0
10, 3480, Note_on_c, 4, 62, 48
10, 3599, Note_on_c, 4, 62, 0
10, 3720, Note_on_c, 4, 62, 48
10, 3839, Note_on_c, 4, 62, 0
10, 3960, Note_on_c, 4, 63, 48
10, 4079, Note_on_c, 4, 63, 0
10, 4200, Note_on_c, 4, 63, 48
10, 4319, Note_on_c, 4, 63, 0
10, 4440, Note_on_c, 4, 60, 48
10, 4559, Note_on_c, 4, 60, 0
10, 4680, Note_on_c, 4, 60, 48
10, 4799, Note_on_c, 4, 60, 0
10, 4800, Note_on_c, 4, 62, 48
10, 4919, Note_on_c, 4, 62, 0
10, 5160, Note_on_c, 4, 58, 48
10, 5279, Note_on_c, 4, 58, 0
10, 5280, Note_on_c, 4, 58, 48
10, 5399, Note_on_c, 4, 58, 0
10, 5640, Note_on_c, 4, 62, 48
10, 5759, Note_on_c, 4, 62, 0
10, 5760, Note_on_c, 4, 62, 48
10, 5879, Note_on_c, 4, 62, 0
10, 6120, Note_on_c, 4, 65, 48
10, 6239, Note_on_c, 4, 65, 0
10, 6240, Note_on_c, 4, 65, 48
10, 6359, Note_on_c, 4, 65, 0
10, 6480, Note_on_c, 4, 65, 48
10, 6599, Note_on_c, 4, 65, 0
10, 6720, Note_on_c, 4, 70, 48
10, 6839, Note_on_c, 4, 70, 0
10, 6840, Note_on_c, 4, 69, 48
10, 6959, Note_on_c, 4, 69, 0
10, 7800, Note_on_c, 4, 69, 48
10, 7919, Note_on_c, 4, 69, 0
10, 8040, Note_on_c, 4, 70, 48
10, 8040, Note_on_c, 4, 67, 48
10, 8159, Note_on_c, 4, 70, 0
10, 8159, Note_on_c, 4, 67, 0
10, 8160, Note_on_c, 4, 68, 72
10, 8219, Note_on_c, 4, 68, 0
10, 8220, Note_on_c, 4, 68, 48
10, 8279, Note_on_c, 4, 68, 0
10, 8280, Note_on_c, 4, 68, 48
10, 8339, Note_on_c, 4, 68, 0
10, 8340, Note_on_c, 4, 68, 48
10, 8399, Note_on_c, 4, 68, 0
10, 8400, Note_on_c, 4, 68, 48
10, 8459, Note_on_c, 4, 68, 0
10, 8460, Note_on_c, 4, 68, 48
10, 8519, Note_on_c, 4, 68, 0
10, 8520, Note_on_c, 4, 68, 48
10, 8579, Note_on_c, 4, 68, 0
10, 8580, Note_on_c, 4, 68, 48
10, 8639, Note_on_c, 4, 68, 0
10, 8640, Note_on_c, 4, 70, 48
10, 8699, Note_on_c, 4, 70, 0
10, 8700, Note_on_c, 4, 70, 48
10, 8759, Note_on_c, 4, 70, 0
10, 8760, Note_on_c, 4, 70, 48
10, 8819, Note_on_c, 4, 70, 0
10, 8820, Note_on_c, 4, 70, 48
10, 8879, Note_on_c, 4, 70, 0
10, 8880, Note_on_c, 4, 70, 48
10, 8939, Note_on_c, 4, 70, 0
10, 8940, Note_on_c, 4, 70, 48
10, 8999, Note_on_c, 4, 70, 0
10, 9000, Note_on_c, 4, 70, 48
10, 9059, Note_on_c, 4, 70, 0
10, 9060, Note_on_c, 4, 70, 48
10, 9119, Note_on_c, 4, 70, 0
10, 9180, Note_on_c, 4, 70, 48
10, 9239, Note_on_c, 4, 70, 0
10, 9240, Note_on_c, 4, 70, 48
10, 9299, Note_on_c, 4, 70, 0
10, 9300, Note_on_c, 4, 70, 48
10, 9359, Note_on_c, 4, 70, 0
10, 9420, Note_on_c, 4, 64, 48
10, 9479, Note_on_c, 4, 64, 0
10, 9480, Note_on_c, 4, 65, 48
10, 9539, Note_on_c, 4, 65, 0
10, 9540, Note_on_c, 4, 67, 48
10, 9599, Note_on_c, 4, 67, 0
10, 9600, Note_on_c, 4, 68, 48
10, 9659, Note_on_c, 4, 68, 0
10, 9660, Note_on_c, 4, 68, 48
10, 9719, Note_on_c, 4, 68, 0
10, 9720, Note_on_c, 4, 68, 48
10, 9779, Note_on_c, 4, 68, 0
10, 9780, Note_on_c, 4, 68, 48
10, 9839, Note_on_c, 4, 68, 0
10, 9840, Note_on_c, 4, 68, 48
10, 9899, Note_on_c, 4, 68, 0
10, 9900, Note_on_c, 4, 68, 48
10, 9959, Note_on_c, 4, 68, 0
10, 9960, Note_on_c, 4, 68, 48
10, 10019, Note_on_c, 4, 68, 0
10, 10020, Note_on_c, 4, 68, 48
10, 10079, Note_on_c, 4, 68, 0
10, 10080, Note_on_c, 4, 67, 48
10, 10139, Note_on_c, 4, 67, 0
10, 10140, Note_on_c, 4, 67, 48
10, 10199, Note_on_c, 4, 67, 0
10, 10200, Note_on_c, 4, 67, 48
10, 10259, Note_on_c, 4, 67, 0
10, 10260, Note_on_c, 4, 67, 48
10, 10319, Note_on_c, 4, 67, 0
10, 10320, Note_on_c, 4, 65, 48
10, 10379, Note_on_c, 4, 65, 0
10, 10380, Note_on_c, 4, 65, 48
10, 10439, Note_on_c, 4, 65, 0
10, 10440, Note_on_c, 4, 65, 48
10, 10499, Note_on_c, 4, 65, 0
10, 10500, Note_on_c, 4, 63, 48
10, 10559, Note_on_c, 4, 63, 0
10, 10560, Note_on_c, 4, 62, 48
10, 10679, Note_on_c, 4, 62, 0
10, 10740, Note_on_c, 4, 67, 72
10, 10799, Note_on_c, 4, 67, 0
10, 10800, Note_on_c, 4, 71, 72
10, 10859, Note_on_c, 4, 71, 0
10, 10860, Note_on_c, 4, 67, 72
10, 10919, Note_on_c, 4, 67, 0
10, 10920, Note_on_c, 4, 62, 72
10, 10979, Note_on_c, 4, 62, 0
10, 10980, Note_on_c, 4, 59, 72
10, 11039, Note_on_c, 4, 59, 0
10, 11040, Note_on_c, 4, 55, 72
10, 11099, Note_on_c, 4, 55, 0
10, 11100, Note_on_c, 4, 70, 48
10, 11159, Note_on_c, 4, 70, 0
10, 11160, Note_on_c, 4, 70, 48
10, 11219, Note_on_c, 4, 70, 0
10, 11220, Note_on_c, 4, 70, 48
10, 11279, Note_on_c, 4, 70, 0
10, 11280, Note_on_c, 4, 70, 48
10, 11339, Note_on_c, 4, 70, 0
10, 11340, Note_on_c, 4, 70, 48
10, 11399, Note_on_c, 4, 70, 0
10, 11400, Note_on_c, 4, 70, 48
10, 11459, Note_on_c, 4, 70, 0
10, 11460, Note_on_c, 4, 70, 48
10, 11519, Note_on_c, 4, 70, 0
10, 11580, Note_on_c, 4, 72, 48
10, 11639, Note_on_c, 4, 72, 0
10, 11640, Note_on_c, 4, 72, 48
10, 11699, Note_on_c, 4, 72, 0
10, 11700, Note_on_c, 4, 72, 48
10, 11759, Note_on_c, 4, 72, 0
10, 11760, Note_on_c, 4, 72, 48
10, 11819, Note_on_c, 4, 72, 0
10, 11820, Note_on_c, 4, 72, 48
10, 11879, Note_on_c, 4, 72, 0
10, 11880, Note_on_c, 4, 72, 48
10, 11939, Note_on_c, 4, 72, 0
10, 11940, Note_on_c, 4, 72, 48
10, 11999, Note_on_c, 4, 72, 0
10, 12060, Note_on_c, 4, 70, 48
10, 12119, Note_on_c, 4, 70, 0
10, 12120, Note_on_c, 4, 70, 48
10, 12179, Note_on_c, 4, 70, 0
10, 12180, Note_on_c, 4, 70, 48
10, 12239, Note_on_c, 4, 70, 0
10, 12240, Note_on_c, 4, 74, 48
10, 12299, Note_on_c, 4, 74, 0
10, 12300, Note_on_c, 4, 74, 48
10, 12359, Note_on_c, 4, 74, 0
10, 12360, Note_on_c, 4, 74, 48
10, 12419, Note_on_c, 4, 74, 0
10, 12420, Note_on_c, 4, 72, 48
10, 12479, Note_on_c, 4, 72, 0
10, 12540, Note_on_c, 4, 70, 48
10, 12599, Note_on_c, 4, 70, 0
10, 12600, Note_on_c, 4, 70, 48
10, 12659, Note_on_c, 4, 70, 0
10, 12660, Note_on_c, 4, 70, 48
10, 12719, Note_on_c, 4, 70, 0
10, 12720, Note_on_c, 4, 70, 48
10, 12749, Note_on_c, 4, 70, 0
10, 12780, Note_on_c, 4, 70, 48
10, 12809, Note_on_c, 4, 70, 0
10, 12840, Note_on_c, 4, 70, 48
10, 12899, Note_on_c, 4, 70, 0
10, 12900, Note_on_c, 4, 71, 48
10, 12959, Note_on_c, 4, 71, 0
10, 12960, Note_on_c, 4, 69, 48
10, 13019, Note_on_c, 4, 69, 0
10, 13080, Note_on_c, 4, 69, 48
10, 13319, Note_on_c, 4, 69, 0
10, 13320, Note_on_c, 4, 69, 48
10, 13439, Note_on_c, 4, 69, 0
10, 13500, Note_on_c, 4, 69, 48
10, 13559, Note_on_c, 4, 69, 0
10, 13620, Note_on_c, 4, 69, 48
10, 13679, Note_on_c, 4, 69, 0
10, 13740, Note_on_c, 4, 69, 48
10, 13799, Note_on_c, 4, 69, 0
10, 13860, Note_on_c, 4, 69, 48
10, 13919, Note_on_c, 4, 69, 0
10, 13980, Note_on_c, 4, 70, 48
10, 14039, Note_on_c, 4, 70, 0
10, 14100, Note_on_c, 4, 70, 48
10, 14159, Note_on_c, 4, 70, 0
10, 14220, Note_on_c, 4, 70, 48
10, 14279, Note_on_c, 4, 70, 0
10, 14340, Note_on_c, 4, 70, 48
10, 14399, Note_on_c, 4, 70, 0
10, 14460, Note_on_c, 4, 70, 48
10, 14519, Note_on_c, 4, 70, 0
10, 14580, Note_on_c, 4, 70, 48
10, 14639, Note_on_c, 4, 70, 0
10, 14700, Note_on_c, 4, 70, 48
10, 14759, Note_on_c, 4, 70, 0
10, 14820, Note_on_c, 4, 70, 48
10, 14879, Note_on_c, 4, 70, 0
10, 14940, Note_on_c, 4, 71, 54
10, 14999, Note_on_c, 4, 71, 0
10, 15060, Note_on_c, 4, 71, 60
10, 15119, Note_on_c, 4, 71, 0
10, 15180, Note_on_c, 4, 71, 66
10, 15239, Note_on_c, 4, 71, 0
10, 15300, Note_on_c, 4, 56, 72
10, 15359, Note_on_c, 4, 56, 0
10, 15360, Note_on_c, 4, 57, 72
10, 15419, Note_on_c, 4, 57, 0
10, 15420, Note_on_c, 4, 58, 72
10, 15479, Note_on_c, 4, 58, 0
10, 15480, Note_on_c, 4, 57, 72
10, 15539, Note_on_c, 4, 57, 0
10, 15540, Note_on_c, 4, 56, 72
10, 15599, Note_on_c, 4, 56, 0
10, 15600, Note_on_c, 4, 57, 72
10, 15659, Note_on_c, 4, 57, 0
10, 15660, Note_on_c, 4, 74, 72
10, 15689, Note_on_c, 4, 74, 0
10, 15780, Note_on_c, 4, 73, 72
10, 15809, Note_on_c, 4, 73, 0
10, 15900, Note_on_c, 4, 74, 48
10, 15959, Note_on_c, 4, 74, 0
10, 16020, Note_on_c, 4, 69, 48
10, 16079, Note_on_c, 4, 69, 0
10, 16140, Note_on_c, 4, 69, 48
10, 16199, Note_on_c, 4, 69, 0
10, 16260, Note_on_c, 4, 69, 48
10, 16319, Note_on_c, 4, 69, 0
10, 16380, Note_on_c, 4, 67, 48
10, 16439, Note_on_c, 4, 67, 0
10, 16500, Note_on_c, 4, 70, 48
10, 16559, Note_on_c, 4, 70, 0
10, 16620, Note_on_c, 4, 69, 48
10, 16679, Note_on_c, 4, 69, 0
10, 16740, Note_on_c, 4, 67, 48
10, 16799, Note_on_c, 4, 67, 0
10, 16860, Note_on_c, 4, 65, 48
10, 16979, Note_on_c, 4, 65, 0
10, 16980, Note_on_c, 4, 68, 48
10, 17039, Note_on_c, 4, 68, 0
10, 17040, Note_on_c, 4, 67, 48
10, 17099, Note_on_c, 4, 67, 0
10, 17100, Note_on_c, 4, 77, 72
10, 17159, Note_on_c, 4, 77, 0
10, 17160, Note_on_c, 4, 75, 72
10, 17219, Note_on_c, 4, 75, 0
10, 17220, Note_on_c, 4, 74, 72
10, 17279, Note_on_c, 4, 74, 0
10, 17340, Note_on_c, 4, 67, 48
10, 17399, Note_on_c, 4, 67, 0
10, 17460, Note_on_c, 4, 67, 48
10, 17519, Note_on_c, 4, 67, 0
10, 17580, Note_on_c, 4, 67, 48
10, 17639, Note_on_c, 4, 67, 0
10, 17700, Note_on_c, 4, 67, 48
10, 17759, Note_on_c, 4, 67, 0
10, 17820, Note_on_c, 4, 71, 48
10, 17879, Note_on_c, 4, 71, 0
10, 17940, Note_on_c, 4, 71, 48
10, 17999, Note_on_c, 4, 71, 0
10, 18060, Note_on_c, 4, 74, 48
10, 18119, Note_on_c, 4, 74, 0
10, 18180, Note_on_c, 4, 74, 48
10, 18239, Note_on_c, 4, 74, 0
10, 18300, Note_on_c, 4, 67, 48
10, 18359, Note_on_c, 4, 67, 0
10, 18420, Note_on_c, 4, 67, 48
10, 18479, Note_on_c, 4, 67, 0
10, 18540, Note_on_c, 4, 63, 48
10, 18599, Note_on_c, 4, 63, 0
10, 18660, Note_on_c, 4, 60, 48
10, 18719, Note_on_c, 4, 60, 0
10, 18780, Note_on_c, 4, 58, 48
10, 18839, Note_on_c, 4, 58, 0
10, 18900, Note_on_c, 4, 62, 48
10, 18959, Note_on_c, 4, 62, 0
10, 19020, Note_on_c, 4, 62, 48
10, 19079, Note_on_c, 4, 62, 0
10, 19140, Note_on_c, 4, 62, 48
10, 19199, Note_on_c, 4, 62, 0
10, 19260, Note_on_c, 4, 63, 48
10, 19319, Note_on_c, 4, 63, 0
10, 19380, Note_on_c, 4, 63, 48
10, 19439, Note_on_c, 4, 63, 0
10, 19500, Note_on_c, 4, 63, 48
10, 19559, Note_on_c, 4, 63, 0
10, 19620, Note_on_c, 4, 60, 48
10, 19679, Note_on_c, 4, 60, 0
10, 19740, Note_on_c, 4, 58, 48
10, 19799, Note_on_c, 4, 58, 0
10, 19860, Note_on_c, 4, 65, 48
10, 19919, Note_on_c, 4, 65, 0
10, 19980, Note_on_c, 4, 65, 48
10, 20039, Note_on_c, 4, 65, 0
10, 20100, Note_on_c, 4, 65, 48
10, 20159, Note_on_c, 4, 65, 0
10, 20220, Note_on_c, 4, 70, 48
10, 20279, Note_on_c, 4, 70, 0
10, 20340, Note_on_c, 4, 70, 48
10, 20399, Note_on_c, 4, 70, 0
10, 20460, Note_on_c, 4, 70, 48
10, 20519, Note_on_c, 4, 70, 0
10, 20580, Note_on_c, 4, 70, 48
10, 20639, Note_on_c, 4, 70, 0
10, 20640, Note_on_c, 4, 69, 48
10, 20759, Note_on_c, 4, 69, 0
10, 20820, Note_on_c, 4, 65, 48
10, 20879, Note_on_c, 4, 65, 0
10, 20880, Note_on_c, 4, 64, 48
10, 20939, Note_on_c, 4, 64, 0
10, 20940, Note_on_c, 4, 63, 48
10, 20999, Note_on_c, 4, 63, 0
10, 21000, Note_on_c, 4, 62, 48
10, 21059, Note_on_c, 4, 62, 0
10, 21060, Note_on_c, 4, 60, 48
10, 21119, Note_on_c, 4, 60, 0
10, 21120, Note_on_c, 4, 58, 48
10, 21239, Note_on_c, 4, 58, 0
10, 21360, Note_on_c, 4, 72, 48
10, 21479, Note_on_c, 4, 72, 0
10, 21600, Note_on_c, 4, 70, 48
10, 21719, Note_on_c, 4, 70, 0
10, 21720, Note_on_c, 4, 72, 48
10, 21839, Note_on_c, 4, 72, 0
10, 21960, Note_on_c, 4, 70, 48
10, 22079, Note_on_c, 4, 70, 0
10, 22080, Note_on_c, 4, 69, 48
10, 22199, Note_on_c, 4, 69, 0
10, 22200, Note_on_c, 4, 70, 48
10, 22319, Note_on_c, 4, 70, 0
10, 22440, Note_on_c, 4, 68, 48
10, 22559, Note_on_c, 4, 68, 0
10, 22560, Note_on_c, 4, 67, 48
10, 22679, Note_on_c, 4, 67, 0
10, 22680, Note_on_c, 4, 67, 66
10, 22799, Note_on_c, 4, 67, 0
10, 22800, Note_on_c, 4, 69, 48
10, 22919, Note_on_c, 4, 69, 0
10, 22920, Note_on_c, 4, 70, 48
10, 23039, Note_on_c, 4, 70, 0
10, 23040, Note_on_c, 4, 70, 48
10, 23399, Note_on_c, 4, 70, 0
10, 23400, Note_on_c, 4, 69, 48
10, 23519, Note_on_c, 4, 69, 0
10, 23520, Note_on_c, 4, 69, 48
10, 23759, Note_on_c, 4, 69, 0
10, 23760, Note_on_c, 4, 70, 48
10, 23879, Note_on_c, 4, 70, 0
10, 24135, Note_on_c, 4, 74, 48
10, 24254, Note_on_c, 4, 74, 0
10, 24360, Note_on_c, 4, 74, 48
10, 24479, Note_on_c, 4, 74, 0
10, 24480, Note_on_c, 4, 74, 48
10, 24599, Note_on_c, 4, 74, 0
10, 24600, Note_on_c, 4, 72, 48
10, 24719, Note_on_c, 4, 72, 0
10, 24960, Note_on_c, 4, 69, 48
10, 25079, Note_on_c, 4, 69, 0
10, 25080, Note_on_c, 4, 70, 48
10, 25199, Note_on_c, 4, 70, 0
10, 25500, Note_on_c, 4, 59, 72
10, 25559, Note_on_c, 4, 59, 0
10, 25560, Note_on_c, 4, 60, 72
10, 25619, Note_on_c, 4, 60, 0
10, 25620, Note_on_c, 4, 62, 72
10, 25679, Note_on_c, 4, 62, 0
10, 25680, Note_on_c, 4, 63, 72
10, 25859, Note_on_c, 4, 63, 0
10, 25860, Note_on_c, 4, 67, 72
10, 25919, Note_on_c, 4, 67, 0
10, 25920, Note_on_c, 4, 65, 72
10, 25979, Note_on_c, 4, 65, 0
10, 26040, Note_on_c, 4, 62, 48
10, 26159, Note_on_c, 4, 62, 0
10, 26160, Note_on_c, 4, 65, 48
10, 26279, Note_on_c, 4, 65, 0
10, 26280, Note_on_c, 4, 63, 48
10, 26399, Note_on_c, 4, 63, 0
10, 26400, Note_on_c, 4, 69, 48
10, 26579, Note_on_c, 4, 69, 0
10, 26580, Note_on_c, 4, 70, 48
10, 26639, Note_on_c, 4, 70, 0
10, 26640, Note_on_c, 4, 70, 48
10, 26699, Note_on_c, 4, 70, 0
10, 26880, Note_on_c, 4, 76, 72
10, 26880, Note_on_c, 4, 70, 72
10, 26880, Note_on_c, 4, 67, 72
10, 26999, Note_on_c, 4, 76, 0
10, 26999, Note_on_c, 4, 70, 0
10, 26999, Note_on_c, 4, 67, 0
10, 27120, Note_on_c, 4, 67, 48
10, 27239, Note_on_c, 4, 67, 0
10, 27480, Note_on_c, 4, 72, 48
10, 27719, Note_on_c, 4, 72, 0
10, 27720, Note_on_c, 4, 70, 48
10, 27839, Note_on_c, 4, 70, 0
10, 27900, Note_on_c, 4, 70, 54
10, 28019, Note_on_c, 4, 70, 0
10, 28020, Note_on_c, 4, 70, 60
10, 28139, Note_on_c, 4, 70, 0
10, 28140, Note_on_c, 4, 72, 66
10, 28259, Note_on_c, 4, 72, 0
10, 28260, Note_on_c, 4, 73, 69
10, 28319, Note_on_c, 4, 73, 0
10, 28320, Note_on_c, 4, 74, 69
10, 28379, Note_on_c, 4, 74, 0
10, 28380, Note_on_c, 4, 70, 72
10, 28499, Note_on_c, 4, 70, 0
10, 28500, Note_on_c, 4, 70, 72
10, 28619, Note_on_c, 4, 70, 0
10, 28620, Note_on_c, 4, 70, 72
10, 28739, Note_on_c, 4, 70, 0
10, 28740, Note_on_c, 4, 69, 72
10, 28799, Note_on_c, 4, 69, 0
10, 28800, Note_on_c, 4, 70, 72
10, 28859, Note_on_c, 4, 70, 0
10, 28860, Note_on_c, 4, 62, 48
10, 28919, Note_on_c, 4, 62, 0
10, 28920, Note_on_c, 4, 65, 48
10, 28979, Note_on_c, 4, 65, 0
10, 28980, Note_on_c, 4, 62, 48
10, 29039, Note_on_c, 4, 62, 0
10, 29100, Note_on_c, 4, 60, 48
10, 29159, Note_on_c, 4, 60, 0
10, 29160, Note_on_c, 4, 63, 48
10, 29219, Note_on_c, 4, 63, 0
10, 29220, Note_on_c, 4, 60, 48
10, 29279, Note_on_c, 4, 60, 0
10, 29280, Note_on_c, 4, 60, 48
10, 29519, Note_on_c, 4, 60, 0
10, 29520, Note_on_c, 4, 58, 48
10, 29639, Note_on_c, 4, 58, 0
10, 29639, End_track
11, 0, Start_track
11, 0, Title_t, "Viola"
11, 0, MIDI_port, 0
11, 0, Program_c, 5, 48
11, 0, Control_c, 5, 7, 96
11, 0, Control_c, 5, 10, 80
11, 0, Control_c, 5, 11, 127
11, 2040, Note_on_c, 5, 62, 48
11, 2159, Note_on_c, 5, 62, 0
11, 2280, Note_on_c, 5, 62, 48
11, 2399, Note_on_c, 5, 62, 0
11, 2520, Note_on_c, 5, 58, 48
11, 2639, Note_on_c, 5, 58, 0
11, 2760, Note_on_c, 5, 60, 48
11, 2879, Note_on_c, 5, 60, 0
11, 2880, Note_on_c, 5, 58, 48
11, 2999, Note_on_c, 5, 58, 0
11, 3480, Note_on_c, 5, 58, 48
11, 3599, Note_on_c, 5, 58, 0
11, 3720, Note_on_c, 5, 58, 48
11, 3839, Note_on_c, 5, 58, 0
11, 3960, Note_on_c, 5, 57, 48
11, 4079, Note_on_c, 5, 57, 0
11, 4200, Note_on_c, 5, 57, 48
11, 4319, Note_on_c, 5, 57, 0
11, 4440, Note_on_c, 5, 57, 48
11, 4559, Note_on_c, 5, 57, 0
11, 4680, Note_on_c, 5, 57, 48
11, 4799, Note_on_c, 5, 57, 0
11, 4800, Note_on_c, 5, 58, 48
11, 4919, Note_on_c, 5, 58, 0
11, 5160, Note_on_c, 5, 50, 48
11, 5279, Note_on_c, 5, 50, 0
11, 5280, Note_on_c, 5, 51, 48
11, 5399, Note_on_c, 5, 51, 0
11, 5640, Note_on_c, 5, 53, 48
11, 5759, Note_on_c, 5, 53, 0
11, 5760, Note_on_c, 5, 55, 48
11, 5879, Note_on_c, 5, 55, 0
11, 6120, Note_on_c, 5, 57, 48
11, 6239, Note_on_c, 5, 57, 0
11, 6240, Note_on_c, 5, 58, 48
11, 6359, Note_on_c, 5, 58, 0
11, 6480, Note_on_c, 5, 57, 48
11, 6599, Note_on_c, 5, 57, 0
11, 6720, Note_on_c, 5, 67, 48
11, 6839, Note_on_c, 5, 67, 0
11, 6840, Note_on_c, 5, 60, 48
11, 6959, Note_on_c, 5, 60, 0
11, 7800, Note_on_c, 5, 60, 48
11, 7919, Note_on_c, 5, 60, 0
11, 8040, Note_on_c, 5, 60, 48
11, 8159, Note_on_c, 5, 60, 0
11, 8160, Note_on_c, 5, 60, 72
11, 8219, Note_on_c, 5, 60, 0
11, 8220, Note_on_c, 5, 60, 48
11, 8279, Note_on_c, 5, 60, 0
11, 8280, Note_on_c, 5, 60, 48
11, 8339, Note_on_c, 5, 60, 0
11, 8340, Note_on_c, 5, 60, 48
11, 8399, Note_on_c, 5, 60, 0
11, 8400, Note_on_c, 5, 60, 48
11, 8459, Note_on_c, 5, 60, 0
11, 8460, Note_on_c, 5, 60, 48
11, 8519, Note_on_c, 5, 60, 0
11, 8520, Note_on_c, 5, 60, 48
11, 8579, Note_on_c, 5, 60, 0
11, 8580, Note_on_c, 5, 60, 48
11, 8639, Note_on_c, 5, 60, 0
11, 8640, Note_on_c, 5, 61, 48
11, 8699, Note_on_c, 5, 61, 0
11, 8700, Note_on_c, 5, 61, 48
11, 8759, Note_on_c, 5, 61, 0
11, 8760, Note_on_c, 5, 61, 48
11, 8819, Note_on_c, 5, 61, 0
11, 8820, Note_on_c, 5, 61, 48
11, 8879, Note_on_c, 5, 61, 0
11, 8880, Note_on_c, 5, 61, 48
11, 8939, Note_on_c, 5, 61, 0
11, 8940, Note_on_c, 5, 61, 48
11, 8999, Note_on_c, 5, 61, 0
11, 9000, Note_on_c, 5, 61, 48
11, 9059, Note_on_c, 5, 61, 0
11, 9060, Note_on_c, 5, 61, 48
11, 9119, Note_on_c, 5, 61, 0
11, 9180, Note_on_c, 5, 61, 48
11, 9239, Note_on_c, 5, 61, 0
11, 9240, Note_on_c, 5, 61, 48
11, 9299, Note_on_c, 5, 61, 0
11, 9300, Note_on_c, 5, 61, 48
11, 9359, Note_on_c, 5, 61, 0
11, 9420, Note_on_c, 5, 60, 48
11, 9479, Note_on_c, 5, 60, 0
11, 9480, Note_on_c, 5, 62, 48
11, 9539, Note_on_c, 5, 62, 0
11, 9540, Note_on_c, 5, 64, 48
11, 9599, Note_on_c, 5, 64, 0
11, 9600, Note_on_c, 5, 60, 48
11, 9659, Note_on_c, 5, 60, 0
11, 9660, Note_on_c, 5, 60, 48
11, 9719, Note_on_c, 5, 60, 0
11, 9720, Note_on_c, 5, 60, 48
11, 9779, Note_on_c, 5, 60, 0
11, 9780, Note_on_c, 5, 60, 48
11, 9839, Note_on_c, 5, 60, 0
11, 9840, Note_on_c, 5, 62, 48
11, 9899, Note_on_c, 5, 62, 0
11, 9900, Note_on_c, 5, 62, 48
11, 9959, Note_on_c, 5, 62, 0
11, 9960, Note_on_c, 5, 62, 48
11, 10019, Note_on_c, 5, 62, 0
11, 10020, Note_on_c, 5, 62, 48
11, 10079, Note_on_c, 5, 62, 0
11, 10080, Note_on_c, 5, 62, 48
11, 10139, Note_on_c, 5, 62, 0
11, 10140, Note_on_c, 5, 62, 48
11, 10199, Note_on_c, 5, 62, 0
11, 10200, Note_on_c, 5, 60, 48
11, 10259, Note_on_c, 5, 60, 0
11, 10260, Note_on_c, 5, 60, 48
11, 10319, Note_on_c, 5, 60, 0
11, 10320, Note_on_c, 5, 56, 48
11, 10379, Note_on_c, 5, 56, 0
11, 10380, Note_on_c, 5, 56, 48
11, 10439, Note_on_c, 5, 56, 0
11, 10440, Note_on_c, 5, 56, 48
11, 10499, Note_on_c, 5, 56, 0
11, 10500, Note_on_c, 5, 57, 48
11, 10559, Note_on_c, 5, 57, 0
11, 10560, Note_on_c, 5, 50, 48
11, 10679, Note_on_c, 5, 50, 0
11, 10740, Note_on_c, 5, 55, 72
11, 10799, Note_on_c, 5, 55, 0
11, 10800, Note_on_c, 5, 59, 72
11, 10859, Note_on_c, 5, 59, 0
11, 10860, Note_on_c, 5, 55, 72
11, 10919, Note_on_c, 5, 55, 0
11, 10920, Note_on_c, 5, 62, 72
11, 10979, Note_on_c, 5, 62, 0
11, 10980, Note_on_c, 5, 59, 72
11, 11039, Note_on_c, 5, 59, 0
11, 11040, Note_on_c, 5, 55, 72
11, 11099, Note_on_c, 5, 55, 0
11, 11100, Note_on_c, 5, 67, 48
11, 11159, Note_on_c, 5, 67, 0
11, 11160, Note_on_c, 5, 67, 48
11, 11219, Note_on_c, 5, 67, 0
11, 11220, Note_on_c, 5, 67, 48
11, 11279, Note_on_c, 5, 67, 0
11, 11280, Note_on_c, 5, 67, 48
11, 11339, Note_on_c, 5, 67, 0
11, 11340, Note_on_c, 5, 67, 48
11, 11399, Note_on_c, 5, 67, 0
11, 11400, Note_on_c, 5, 67, 48
11, 11459, Note_on_c, 5, 67, 0
11, 11460, Note_on_c, 5, 67, 48
11, 11519, Note_on_c, 5, 67, 0
11, 11580, Note_on_c, 5, 66, 48
11, 11639, Note_on_c, 5, 66, 0
11, 11640, Note_on_c, 5, 66, 48
11, 11699, Note_on_c, 5, 66, 0
11, 11700, Note_on_c, 5, 66, 48
11, 11759, Note_on_c, 5, 66, 0
11, 11760, Note_on_c, 5, 66, 48
11, 11819, Note_on_c, 5, 66, 0
11, 11820, Note_on_c, 5, 66, 48
11, 11879, Note_on_c, 5, 66, 0
11, 11880, Note_on_c, 5, 66, 48
11, 11939, Note_on_c, 5, 66, 0
11, 11940, Note_on_c, 5, 66, 48
11, 11999, Note_on_c, 5, 66, 0
11, 12060, Note_on_c, 5, 67, 48
11, 12119, Note_on_c, 5, 67, 0
11, 12120, Note_on_c, 5, 67, 48
11, 12179, Note_on_c, 5, 67, 0
11, 12180, Note_on_c, 5, 67, 48
11, 12239, Note_on_c, 5, 67, 0
11, 12240, Note_on_c, 5, 67, 48
11, 12299, Note_on_c, 5, 67, 0
11, 12300, Note_on_c, 5, 67, 48
11, 12359, Note_on_c, 5, 67, 0
11, 12360, Note_on_c, 5, 67, 48
11, 12419, Note_on_c, 5, 67, 0
11, 12420, Note_on_c, 5, 69, 48
11, 12479, Note_on_c, 5, 69, 0
11, 12540, Note_on_c, 5, 70, 48
11, 12599, Note_on_c, 5, 70, 0
11, 12600, Note_on_c, 5, 67, 48
11, 12659, Note_on_c, 5, 67, 0
11, 12660, Note_on_c, 5, 67, 48
11, 12719, Note_on_c, 5, 67, 0
11, 12720, Note_on_c, 5, 67, 48
11, 12749, Note_on_c, 5, 67, 0
11, 12780, Note_on_c, 5, 67, 48
11, 12809, Note_on_c, 5, 67, 0
11, 12840, Note_on_c, 5, 67, 48
11, 12899, Note_on_c, 5, 67, 0
11, 12900, Note_on_c, 5, 65, 48
11, 12959, Note_on_c, 5, 65, 0
11, 12960, Note_on_c, 5, 64, 48
11, 13019, Note_on_c, 5, 64, 0
11, 13080, Note_on_c, 5, 64, 48
11, 13319, Note_on_c, 5, 64, 0
11, 13320, Note_on_c, 5, 64, 48
11, 13439, Note_on_c, 5, 64, 0
11, 13500, Note_on_c, 5, 65, 48
11, 13559, Note_on_c, 5, 65, 0
11, 13620, Note_on_c, 5, 65, 48
11, 13679, Note_on_c, 5, 65, 0
11, 13740, Note_on_c, 5, 65, 48
11, 13799, Note_on_c, 5, 65, 0
11, 13860, Note_on_c, 5, 65, 48
11, 13919, Note_on_c, 5, 65, 0
11, 13980, Note_on_c, 5, 64, 48
11, 14039, Note_on_c, 5, 64, 0
11, 14100, Note_on_c, 5, 64, 48
11, 14159, Note_on_c, 5, 64, 0
11, 14220, Note_on_c, 5, 64, 48
11, 14279, Note_on_c, 5, 64, 0
11, 14340, Note_on_c, 5, 64, 48
11, 14399, Note_on_c, 5, 64, 0
11, 14460, Note_on_c, 5, 64, 48
11, 14519, Note_on_c, 5, 64, 0
11, 14580, Note_on_c, 5, 64, 48
11, 14639, Note_on_c, 5, 64, 0
11, 14700, Note_on_c, 5, 64, 48
11, 14759, Note_on_c, 5, 64, 0
11, 14820, Note_on_c, 5, 64, 48
11, 14879, Note_on_c, 5, 64, 0
11, 14940, Note_on_c, 5, 65, 54
11, 14999, Note_on_c, 5, 65, 0
11, 15060, Note_on_c, 5, 65, 60
11, 15119, Note_on_c, 5, 65, 0
11, 15180, Note_on_c, 5, 65, 66
11, 15239, Note_on_c, 5, 65, 0
11, 15300, Note_on_c, 5, 56, 72
11, 15359, Note_on_c, 5, 56, 0
11, 15360, Note_on_c, 5, 57, 72
11, 15419, Note_on_c, 5, 57, 0
11, 15420, Note_on_c, 5, 58, 72
11, 15479, Note_on_c, 5, 58, 0
11, 15480, Note_on_c, 5, 57, 72
11, 15539, Note_on_c, 5, 57, 0
11, 15540, Note_on_c, 5, 56, 72
11, 15599, Note_on_c, 5, 56, 0
11, 15600, Note_on_c, 5, 57, 72
11, 15659, Note_on_c, 5, 57, 0
11, 15660, Note_on_c, 5, 69, 72
11, 15689, Note_on_c, 5, 69, 0
11, 15780, Note_on_c, 5, 67, 72
11, 15809, Note_on_c, 5, 67, 0
11, 15900, Note_on_c, 5, 65, 48
11, 15959, Note_on_c, 5, 65, 0
11, 16020, Note_on_c, 5, 65, 48
11, 16079, Note_on_c, 5, 65, 0
11, 16140, Note_on_c, 5, 65, 48
11, 16199, Note_on_c, 5, 65, 0
11, 16260, Note_on_c, 5, 65, 48
11, 16319, Note_on_c, 5, 65, 0
11, 16380, Note_on_c, 5, 70, 48
11, 16439, Note_on_c, 5, 70, 0
11, 16500, Note_on_c, 5, 67, 48
11, 16559, Note_on_c, 5, 67, 0
11, 16620, Note_on_c, 5, 64, 48
11, 16679, Note_on_c, 5, 64, 0
11, 16740, Note_on_c, 5, 61, 48
11, 16799, Note_on_c, 5, 61, 0
11, 16800, Note_on_c, 5, 62, 48
11, 17099, Note_on_c, 5, 62, 0
11, 17100, Note_on_c, 5, 59, 72
11, 17159, Note_on_c, 5, 59, 0
11, 17160, Note_on_c, 5, 60, 72
11, 17219, Note_on_c, 5, 60, 0
11, 17220, Note_on_c, 5, 62, 72
11, 17279, Note_on_c, 5, 62, 0
11, 17340, Note_on_c, 5, 60, 48
11, 17399, Note_on_c, 5, 60, 0
11, 17460, Note_on_c, 5, 60, 48
11, 17519, Note_on_c, 5, 60, 0
11, 17580, Note_on_c, 5, 60, 48
11, 17639, Note_on_c, 5, 60, 0
11, 17700, Note_on_c, 5, 60, 48
11, 17759, Note_on_c, 5, 60, 0
11, 17820, Note_on_c, 5, 62, 48
11, 17879, Note_on_c, 5, 62, 0
11, 17940, Note_on_c, 5, 62, 48
11, 17999, Note_on_c, 5, 62, 0
11, 18060, Note_on_c, 5, 59, 48
11, 18119, Note_on_c, 5, 59, 0
11, 18180, Note_on_c, 5, 55, 48
11, 18239, Note_on_c, 5, 55, 0
11, 18300, Note_on_c, 5, 60, 48
11, 18359, Note_on_c, 5, 60, 0
11, 18420, Note_on_c, 5, 51, 48
11, 18479, Note_on_c, 5, 51, 0
11, 18540, Note_on_c, 5, 53, 48
11, 18599, Note_on_c, 5, 53, 0
11, 18660, Note_on_c, 5, 57, 48
11, 18719, Note_on_c, 5, 57, 0
11, 18780, Note_on_c, 5, 58, 48
11, 18839, Note_on_c, 5, 58, 0
11, 18900, Note_on_c, 5, 58, 48
11, 18959, Note_on_c, 5, 58, 0
11, 19020, Note_on_c, 5, 58, 48
11, 19079, Note_on_c, 5, 58, 0
11, 19140, Note_on_c, 5, 58, 48
11, 19199, Note_on_c, 5, 58, 0
11, 19260, Note_on_c, 5, 60, 48
11, 19319, Note_on_c, 5, 60, 0
11, 19380, Note_on_c, 5, 60, 48
11, 19439, Note_on_c, 5, 60, 0
11, 19500, Note_on_c, 5, 57, 48
11, 19559, Note_on_c, 5, 57, 0
11, 19620, Note_on_c, 5, 53, 48
11, 19679, Note_on_c, 5, 53, 0
11, 19740, Note_on_c, 5, 65, 48
11, 19799, Note_on_c, 5, 65, 0
11, 19860, Note_on_c, 5, 70, 48
11, 19919, Note_on_c, 5, 70, 0
11, 19980, Note_on_c, 5, 70, 48
11, 20039, Note_on_c, 5, 70, 0
11, 20100, Note_on_c, 5, 70, 48
11, 20159, Note_on_c, 5, 70, 0
11, 20220, Note_on_c, 5, 58, 48
11, 20279, Note_on_c, 5, 58, 0
11, 20340, Note_on_c, 5, 61, 48
11, 20399, Note_on_c, 5, 61, 0
11, 20460, Note_on_c, 5, 61, 48
11, 20519, Note_on_c, 5, 61, 0
11, 20580, Note_on_c, 5, 58, 48
11, 20639, Note_on_c, 5, 58, 0
11, 20640, Note_on_c, 5, 60, 48
11, 20759, Note_on_c, 5, 60, 0
11, 21120, Note_on_c, 5, 65, 48
11, 21239, Note_on_c, 5, 65, 0
11, 21360, Note_on_c, 5, 66, 48
11, 21479, Note_on_c, 5, 66, 0
11, 21600, Note_on_c, 5, 67, 48
11, 21719, Note_on_c, 5, 67, 0
11, 21720, Note_on_c, 5, 70, 48
11, 21839, Note_on_c, 5, 70, 0
11, 21960, Note_on_c, 5, 67, 48
11, 22079, Note_on_c, 5, 67, 0
11, 22080, Note_on_c, 5, 65, 48
11, 22319, Note_on_c, 5, 65, 0
11, 22440, Note_on_c, 5, 65, 48
11, 22559, Note_on_c, 5, 65, 0
11, 22560, Note_on_c, 5, 63, 48
11, 22679, Note_on_c, 5, 63, 0
11, 22680, Note_on_c, 5, 63, 66
11, 22799, Note_on_c, 5, 63, 0
11, 22800, Note_on_c, 5, 65, 48
11, 23039, Note_on_c, 5, 65, 0
11, 23040, Note_on_c, 5, 67, 48
11, 23219, Note_on_c, 5, 67, 0
11, 23220, Note_on_c, 5, 65, 48
11, 23249, Note_on_c, 5, 65, 0
11, 23250, Note_on_c, 5, 63, 48
11, 23279, Note_on_c, 5, 63, 0
11, 23280, Note_on_c, 5, 62, 48
11, 23399, Note_on_c, 5, 62, 0
11, 23400, Note_on_c, 5, 63, 48
11, 23519, Note_on_c, 5, 63, 0
11, 23520, Note_on_c, 5, 63, 48
11, 23759, Note_on_c, 5, 63, 0
11, 23760, Note_on_c, 5, 62, 48
11, 23879, Note_on_c, 5, 62, 0
11, 24120, Note_on_c, 5, 70, 48
11, 24239, Note_on_c, 5, 70, 0
11, 24360, Note_on_c, 5, 68, 48
11, 24479, Note_on_c, 5, 68, 0
11, 24480, Note_on_c, 5, 67, 48
11, 24719, Note_on_c, 5, 67, 0
11, 24960, Note_on_c, 5, 60, 48
11, 25079, Note_on_c, 5, 60, 0
11, 25080, Note_on_c, 5, 58, 48
11, 25199, Note_on_c, 5, 58, 0
11, 25500, Note_on_c, 5, 55, 72
11, 25559, Note_on_c, 5, 55, 0
11, 25560, Note_on_c, 5, 57, 72
11, 25619, Note_on_c, 5, 57, 0
11, 25620, Note_on_c, 5, 59, 72
11, 25679, Note_on_c, 5, 59, 0
11, 25680, Note_on_c, 5, 60, 72
11, 25859, Note_on_c, 5, 60, 0
11, 25860, Note_on_c, 5, 63, 72
11, 25919, Note_on_c, 5, 63, 0
11, 25920, Note_on_c, 5, 62, 72
11, 25979, Note_on_c, 5, 62, 0
11, 26040, Note_on_c, 5, 58, 48
11, 26159, Note_on_c, 5, 58, 0
11, 26160, Note_on_c, 5, 62, 48
11, 26279, Note_on_c, 5, 62, 0
11, 26280, Note_on_c, 5, 60, 48
11, 26399, Note_on_c, 5, 60, 0
11, 26400, Note_on_c, 5, 60, 48
11, 26579, Note_on_c, 5, 60, 0
11, 26580, Note_on_c, 5, 58, 48
11, 26639, Note_on_c, 5, 58, 0
11, 26640, Note_on_c, 5, 58, 48
11, 26699, Note_on_c, 5, 58, 0
11, 26880, Note_on_c, 5, 60, 72
11, 26880, Note_on_c, 5, 48, 72
11, 26999, Note_on_c, 5, 60, 0
11, 26999, Note_on_c, 5, 48, 0
11, 27120, Note_on_c, 5, 60, 48
11, 27239, Note_on_c, 5, 60, 0
11, 27480, Note_on_c, 5, 65, 48
11, 27839, Note_on_c, 5, 65, 0
11, 27900, Note_on_c, 5, 63, 48
11, 28019, Note_on_c, 5, 63, 0
11, 28020, Note_on_c, 5, 67, 54
11, 28139, Note_on_c, 5, 67, 0
11, 28140, Note_on_c, 5, 67, 60
11, 28259, Note_on_c, 5, 67, 0
11, 28260, Note_on_c, 5, 67, 66
11, 28319, Note_on_c, 5, 67, 0
11, 28320, Note_on_c, 5, 65, 69
11, 28379, Note_on_c, 5, 65, 0
11, 28380, Note_on_c, 5, 62, 72
11, 28499, Note_on_c, 5, 62, 0
11, 28500, Note_on_c, 5, 62, 72
11, 28619, Note_on_c, 5, 62, 0
11, 28620, Note_on_c, 5, 62, 72
11, 28679, Note_on_c, 5, 62, 0
11, 28680, Note_on_c, 5, 65, 72
11, 28739, Note_on_c, 5, 65, 0
11, 28740, Note_on_c, 5, 63, 72
11, 28799, Note_on_c, 5, 63, 0
11, 28800, Note_on_c, 5, 62, 72
11, 28919, Note_on_c, 5, 62, 0
11, 29040, Note_on_c, 5, 57, 48
11, 29159, Note_on_c, 5, 57, 0
11, 29280, Note_on_c, 5, 57, 48
11, 29519, Note_on_c, 5, 57, 0
11, 29520, Note_on_c, 5, 58, 48
11, 29639, Note_on_c, 5, 58, 0
11, 29639, End_track
12, 0, Start_track
12, 0, Title_t, "Cello"
12, 0, MIDI_port, 0
12, 0, Program_c, 6, 48
12, 0, Control_c, 6, 7, 96
12, 0, Control_c, 6, 10, 96
12, 0, Control_c, 6, 11, 127
12, 15960, Note_on_c, 6, 62, 48
12, 16019, Note_on_c, 6, 62, 0
12, 16080, Note_on_c, 6, 62, 48
12, 16139, Note_on_c, 6, 62, 0
12, 16200, Note_on_c, 6, 62, 48
12, 16259, Note_on_c, 6, 62, 0
12, 16320, Note_on_c, 6, 64, 48
12, 16379, Note_on_c, 6, 64, 0
12, 16440, Note_on_c, 6, 64, 48
12, 16499, Note_on_c, 6, 64, 0
12, 16560, Note_on_c, 6, 61, 48
12, 16619, Note_on_c, 6, 61, 0
12, 16680, Note_on_c, 6, 57, 48
12, 16739, Note_on_c, 6, 57, 0
12, 16800, Note_on_c, 6, 62, 48
12, 16979, Note_on_c, 6, 62, 0
12, 16980, Note_on_c, 6, 60, 48
12, 17039, Note_on_c, 6, 60, 0
12, 17040, Note_on_c, 6, 59, 48
12, 17099, Note_on_c, 6, 59, 0
12, 17100, Note_on_c, 6, 55, 72
12, 17159, Note_on_c, 6, 55, 0
12, 17160, Note_on_c, 6, 57, 72
12, 17219, Note_on_c, 6, 57, 0
12, 17220, Note_on_c, 6, 59, 72
12, 17279, Note_on_c, 6, 59, 0
12, 17280, Note_on_c, 6, 60, 72
12, 17339, Note_on_c, 6, 60, 0
12, 17400, Note_on_c, 6, 60, 72
12, 17459, Note_on_c, 6, 60, 0
12, 17520, Note_on_c, 6, 60, 72
12, 17579, Note_on_c, 6, 60, 0
12, 17640, Note_on_c, 6, 60, 72
12, 17699, Note_on_c, 6, 60, 0
12, 17760, Note_on_c, 6, 62, 72
12, 17819, Note_on_c, 6, 62, 0
12, 17880, Note_on_c, 6, 62, 72
12, 17939, Note_on_c, 6, 62, 0
12, 18000, Note_on_c, 6, 59, 72
12, 18059, Note_on_c, 6, 59, 0
12, 18120, Note_on_c, 6, 55, 72
12, 18179, Note_on_c, 6, 55, 0
12, 18240, Note_on_c, 6, 60, 72
12, 18299, Note_on_c, 6, 60, 0
12, 18360, Note_on_c, 6, 51, 72
12, 18419, Note_on_c, 6, 51, 0
12, 18480, Note_on_c, 6, 53, 72
12, 18539, Note_on_c, 6, 53, 0
12, 18600, Note_on_c, 6, 57, 72
12, 18659, Note_on_c, 6, 57, 0
12, 21960, Note_on_c, 6, 64, 72
12, 22079, Note_on_c, 6, 64, 0
12, 22080, Note_on_c, 6, 63, 72
12, 22199, Note_on_c, 6, 63, 0
12, 22200, Note_on_c, 6, 62, 72
12, 22319, Note_on_c, 6, 62, 0
12, 22440, Note_on_c, 6, 62, 72
12, 22559, Note_on_c, 6, 62, 0
12, 22560, Note_on_c, 6, 63, 72
12, 22679, Note_on_c, 6, 63, 0
12, 22680, Note_on_c, 6, 60, 66
12, 22919, Note_on_c, 6, 60, 0
12, 22920, Note_on_c, 6, 58, 48
12, 23039, Note_on_c, 6, 58, 0
12, 23039, End_track
13, 0, Start_track
13, 0, Title_t, "Contrabass"
13, 0, MIDI_port, 0
13, 0, Program_c, 7, 48
13, 0, Control_c, 7, 7, 96
13, 0, Control_c, 7, 10, 112
13, 0, Control_c, 7, 11, 127
13, 1920, Note_on_c, 7, 34, 48
13, 2039, Note_on_c, 7, 34, 0
13, 2160, Note_on_c, 7, 34, 48
13, 2279, Note_on_c, 7, 34, 0
13, 2400, Note_on_c, 7, 34, 48
13, 2519, Note_on_c, 7, 34, 0
13, 2640, Note_on_c, 7, 34, 48
13, 2759, Note_on_c, 7, 34, 0
13, 2880, Note_on_c, 7, 34, 48
13, 2999, Note_on_c, 7, 34, 0
13, 3360, Note_on_c, 7, 34, 48
13, 3479, Note_on_c, 7, 34, 0
13, 3600, Note_on_c, 7, 34, 48
13, 3719, Note_on_c, 7, 34, 0
13, 3840, Note_on_c, 7, 36, 48
13, 3959, Note_on_c, 7, 36, 0
13, 4080, Note_on_c, 7, 36, 48
13, 4199, Note_on_c, 7, 36, 0
13, 4320, Note_on_c, 7, 29, 48
13, 4439, Note_on_c, 7, 29, 0
13, 4560, Note_on_c, 7, 29, 48
13, 4679, Note_on_c, 7, 29, 0
13, 4800, Note_on_c, 7, 34, 48
13, 4919, Note_on_c, 7, 34, 0
13, 5160, Note_on_c, 7, 38, 48
13, 5279, Note_on_c, 7, 38, 0
13, 5280, Note_on_c, 7, 39, 48
13, 5399, Note_on_c, 7, 39, 0
13, 5640, Note_on_c, 7, 41, 48
13, 5759, Note_on_c, 7, 41, 0
13, 5760, Note_on_c, 7, 43, 48
13, 5879, Note_on_c, 7, 43, 0
13, 6120, Note_on_c, 7, 45, 48
13, 6239, Note_on_c, 7, 45, 0
13, 6240, Note_on_c, 7, 46, 48
13, 6359, Note_on_c, 7, 46, 0
13, 6480, Note_on_c, 7, 45, 48
13, 6599, Note_on_c, 7, 45, 0
13, 6720, Note_on_c, 7, 43, 48
13, 6839, Note_on_c, 7, 43, 0
13, 6840, Note_on_c, 7, 41, 48
13, 6959, Note_on_c, 7, 41, 0
13, 7680, Note_on_c, 7, 36, 48
13, 7799, Note_on_c, 7, 36, 0
13, 7920, Note_on_c, 7, 36, 48
13, 8039, Note_on_c, 7, 36, 0
13, 8160, Note_on_c, 7, 41, 72
13, 8219, Note_on_c, 7, 41, 0
13, 8220, Note_on_c, 7, 41, 48
13, 8279, Note_on_c, 7, 41, 0
13, 8280, Note_on_c, 7, 41, 48
13, 8339, Note_on_c, 7, 41, 0
13, 8340, Note_on_c, 7, 41, 48
13, 8399, Note_on_c, 7, 41, 0
13, 8400, Note_on_c, 7, 41, 48
13, 8459, Note_on_c, 7, 41, 0
13, 8460, Note_on_c, 7, 41, 48
13, 8519, Note_on_c, 7, 41, 0
13, 8520, Note_on_c, 7, 41, 48
13, 8579, Note_on_c, 7, 41, 0
13, 8580, Note_on_c, 7, 41, 48
13, 8639, Note_on_c, 7, 41, 0
13, 8640, Note_on_c, 7, 41, 48
13, 8699, Note_on_c, 7, 41, 0
13, 8700, Note_on_c, 7, 41, 48
13, 8759, Note_on_c, 7, 41, 0
13, 8760, Note_on_c, 7, 41, 48
13, 8819, Note_on_c, 7, 41, 0
13, 8820, Note_on_c, 7, 41, 48
13, 8879, Note_on_c, 7, 41, 0
13, 8880, Note_on_c, 7, 41, 48
13, 8939, Note_on_c, 7, 41, 0
13, 8940, Note_on_c, 7, 41, 48
13, 8999, Note_on_c, 7, 41, 0
13, 9000, Note_on_c, 7, 41, 48
13, 9059, Note_on_c, 7, 41, 0
13, 9060, Note_on_c, 7, 41, 48
13, 9119, Note_on_c, 7, 41, 0
13, 9120, Note_on_c, 7, 43, 48
13, 9239, Note_on_c, 7, 43, 0
13, 9360, Note_on_c, 7, 36, 48
13, 9479, Note_on_c, 7, 36, 0
13, 9600, Note_on_c, 7, 41, 48
13, 9659, Note_on_c, 7, 41, 0
13, 9660, Note_on_c, 7, 41, 48
13, 9719, Note_on_c, 7, 41, 0
13, 9720, Note_on_c, 7, 39, 48
13, 9779, Note_on_c, 7, 39, 0
13, 9780, Note_on_c, 7, 39, 48
13, 9839, Note_on_c, 7, 39, 0
13, 9840, Note_on_c, 7, 38, 48
13, 9899, Note_on_c, 7, 38, 0
13, 9900, Note_on_c, 7, 38, 48
13, 9959, Note_on_c, 7, 38, 0
13, 9960, Note_on_c, 7, 36, 48
13, 10019, Note_on_c, 7, 36, 0
13, 10020, Note_on_c, 7, 36, 48
13, 10079, Note_on_c, 7, 36, 0
13, 10080, Note_on_c, 7, 35, 48
13, 10139, Note_on_c, 7, 35, 0
13, 10140, Note_on_c, 7, 35, 48
13, 10199, Note_on_c, 7, 35, 0
13, 10200, Note_on_c, 7, 36, 48
13, 10259, Note_on_c, 7, 36, 0
13, 10260, Note_on_c, 7, 36, 48
13, 10319, Note_on_c, 7, 36, 0
13, 10320, Note_on_c, 7, 41, 48
13, 10379, Note_on_c, 7, 41, 0
13, 10380, Note_on_c, 7, 41, 48
13, 10439, Note_on_c, 7, 41, 0
13, 10440, Note_on_c, 7, 41, 48
13, 10499, Note_on_c, 7, 41, 0
13, 10500, Note_on_c, 7, 42, 48
13, 10559, Note_on_c, 7, 42, 0
13, 10560, Note_on_c, 7, 43, 48
13, 10679, Note_on_c, 7, 43, 0
13, 10740, Note_on_c, 7, 43, 72
13, 10799, Note_on_c, 7, 43, 0
13, 10800, Note_on_c, 7, 47, 72
13, 10859, Note_on_c, 7, 47, 0
13, 10860, Note_on_c, 7, 43, 72
13, 10919, Note_on_c, 7, 43, 0
13, 10920, Note_on_c, 7, 38, 72
13, 10979, Note_on_c, 7, 38, 0
13, 10980, Note_on_c, 7, 35, 72
13, 11039, Note_on_c, 7, 35, 0
13, 11040, Note_on_c, 7, 31, 72
13, 11159, Note_on_c, 7, 31, 0
13, 11520, Note_on_c, 7, 33, 48
13, 11639, Note_on_c, 7, 33, 0
13, 12000, Note_on_c, 7, 34, 48
13, 12119, Note_on_c, 7, 34, 0
13, 12240, Note_on_c, 7, 46, 48
13, 12419, Note_on_c, 7, 46, 0
13, 12420, Note_on_c, 7, 45, 48
13, 12479, Note_on_c, 7, 45, 0
13, 12480, Note_on_c, 7, 43, 48
13, 12599, Note_on_c, 7, 43, 0
13, 12600, Note_on_c, 7, 43, 48
13, 12719, Note_on_c, 7, 43, 0
13, 12720, Note_on_c, 7, 43, 48
13, 12899, Note_on_c, 7, 43, 0
13, 12900, Note_on_c, 7, 44, 48
13, 12959, Note_on_c, 7, 44, 0
13, 12960, Note_on_c, 7, 45, 48
13, 13019, Note_on_c, 7, 45, 0
13, 13080, Note_on_c, 7, 45, 48
13, 13319, Note_on_c, 7, 45, 0
13, 13320, Note_on_c, 7, 43, 48
13, 13439, Note_on_c, 7, 43, 0
13, 13440, Note_on_c, 7, 41, 48
13, 13499, Note_on_c, 7, 41, 0
13, 13560, Note_on_c, 7, 45, 48
13, 13619, Note_on_c, 7, 45, 0
13, 13680, Note_on_c, 7, 50, 48
13, 13739, Note_on_c, 7, 50, 0
13, 13800, Note_on_c, 7, 41, 48
13, 13859, Note_on_c, 7, 41, 0
13, 13920, Note_on_c, 7, 43, 48
13, 13979, Note_on_c, 7, 43, 0
13, 14040, Note_on_c, 7, 46, 48
13, 14099, Note_on_c, 7, 46, 0
13, 14160, Note_on_c, 7, 50, 48
13, 14219, Note_on_c, 7, 50, 0
13, 14280, Note_on_c, 7, 43, 48
13, 14339, Note_on_c, 7, 43, 0
13, 14400, Note_on_c, 7, 31, 48
13, 14459, Note_on_c, 7, 31, 0
13, 14520, Note_on_c, 7, 46, 48
13, 14579, Note_on_c, 7, 46, 0
13, 14640, Note_on_c, 7, 50, 48
13, 14699, Note_on_c, 7, 50, 0
13, 14760, Note_on_c, 7, 43, 48
13, 14819, Note_on_c, 7, 43, 0
13, 14880, Note_on_c, 7, 44, 54
13, 14939, Note_on_c, 7, 44, 0
13, 15000, Note_on_c, 7, 47, 60
13, 15059, Note_on_c, 7, 47, 0
13, 15120, Note_on_c, 7, 50, 66
13, 15179, Note_on_c, 7, 50, 0
13, 15240, Note_on_c, 7, 44, 72
13, 15299, Note_on_c, 7, 44, 0
13, 15360, Note_on_c, 7, 45, 72
13, 15419, Note_on_c, 7, 45, 0
13, 15420, Note_on_c, 7, 46, 72
13, 15479, Note_on_c, 7, 46, 0
13, 15480, Note_on_c, 7, 45, 72
13, 15539, Note_on_c, 7, 45, 0
13, 15540, Note_on_c, 7, 44, 72
13, 15599, Note_on_c, 7, 44, 0
13, 15600, Note_on_c, 7, 45, 72
13, 15719, Note_on_c, 7, 45, 0
13, 15720, Note_on_c, 7, 33, 72
13, 15839, Note_on_c, 7, 33, 0
13, 15840, Note_on_c, 7, 38, 72
13, 15899, Note_on_c, 7, 38, 0
13, 18720, Note_on_c, 7, 46, 72
13, 18779, Note_on_c, 7, 46, 0
13, 18840, Note_on_c, 7, 46, 72
13, 18899, Note_on_c, 7, 46, 0
13, 18960, Note_on_c, 7, 46, 72
13, 19019, Note_on_c, 7, 46, 0
13, 19080, Note_on_c, 7, 46, 72
13, 19139, Note_on_c, 7, 46, 0
13, 19200, Note_on_c, 7, 48, 72
13, 19259, Note_on_c, 7, 48, 0
13, 19320, Note_on_c, 7, 48, 72
13, 19379, Note_on_c, 7, 48, 0
13, 19440, Note_on_c, 7, 45, 72
13, 19499, Note_on_c, 7, 45, 0
13, 19560, Note_on_c, 7, 41, 72
13, 19619, Note_on_c, 7, 41, 0
13, 19680, Note_on_c, 7, 46, 72
13, 19739, Note_on_c, 7, 46, 0
13, 19800, Note_on_c, 7, 46, 72
13, 19859, Note_on_c, 7, 46, 0
13, 19920, Note_on_c, 7, 46, 72
13, 19979, Note_on_c, 7, 46, 0
13, 20040, Note_on_c, 7, 46, 72
13, 20099, Note_on_c, 7, 46, 0
13, 20160, Note_on_c, 7, 42, 72
13, 20219, Note_on_c, 7, 42, 0
13, 20280, Note_on_c, 7, 42, 72
13, 20339, Note_on_c, 7, 42, 0
13, 20400, Note_on_c, 7, 42, 72
13, 20459, Note_on_c, 7, 42, 0
13, 20520, Note_on_c, 7, 42, 72
13, 20579, Note_on_c, 7, 42, 0
13, 20640, Note_on_c, 7, 41, 72
13, 20759, Note_on_c, 7, 41, 0
13, 21120, Note_on_c, 7, 46, 72
13, 21239, Note_on_c, 7, 46, 0
13, 21360, Note_on_c, 7, 45, 72
13, 21479, Note_on_c, 7, 45, 0
13, 21600, Note_on_c, 7, 43, 72
13, 21719, Note_on_c, 7, 43, 0
13, 21720, Note_on_c, 7, 40, 72
13, 21839, Note_on_c, 7, 40, 0
13, 23040, Note_on_c, 7, 39, 48
13, 23159, Note_on_c, 7, 39, 0
13, 23160, Note_on_c, 7, 39, 48
13, 23279, Note_on_c, 7, 39, 0
13, 23280, Note_on_c, 7, 41, 48
13, 23399, Note_on_c, 7, 41, 0
13, 23400, Note_on_c, 7, 41, 48
13, 23519, Note_on_c, 7, 41, 0
13, 23520, Note_on_c, 7, 41, 48
13, 23759, Note_on_c, 7, 41, 0
13, 23760, Note_on_c, 7, 34, 48
13, 23879, Note_on_c, 7, 34, 0
13, 24120, Note_on_c, 7, 50, 48
13, 24239, Note_on_c, 7, 50, 0
13, 24360, Note_on_c, 7, 48, 48
13, 24479, Note_on_c, 7, 48, 0
13, 24480, Note_on_c, 7, 47, 48
13, 24599, Note_on_c, 7, 47, 0
13, 24600, Note_on_c, 7, 48, 48
13, 24659, Note_on_c, 7, 48, 0
13, 24960, Note_on_c, 7, 42, 48
13, 25079, Note_on_c, 7, 42, 0
13, 25080, Note_on_c, 7, 43, 48
13, 25139, Note_on_c, 7, 43, 0
13, 25440, Note_on_c, 7, 39, 72
13, 25919, Note_on_c, 7, 39, 0
13, 25920, Note_on_c, 7, 41, 72
13, 25979, Note_on_c, 7, 41, 0
13, 26040, Note_on_c, 7, 41, 48
13, 26159, Note_on_c, 7, 41, 0
13, 26160, Note_on_c, 7, 41, 48
13, 26279, Note_on_c, 7, 41, 0
13, 26280, Note_on_c, 7, 41, 48
13, 26399, Note_on_c, 7, 41, 0
13, 26400, Note_on_c, 7, 42, 48
13, 26579, Note_on_c, 7, 42, 0
13, 26580, Note_on_c, 7, 43, 48
13, 26639, Note_on_c, 7, 43, 0
13, 26640, Note_on_c, 7, 43, 48
13, 26699, Note_on_c, 7, 43, 0
13, 26880, Note_on_c, 7, 48, 72
13, 26999, Note_on_c, 7, 48, 0
13, 27120, Note_on_c, 7, 46, 48
13, 27239, Note_on_c, 7, 46, 0
13, 27360, Note_on_c, 7, 45, 48
13, 27719, Note_on_c, 7, 45, 0
13, 27720, Note_on_c, 7, 46, 48
13, 27839, Note_on_c, 7, 46, 0
13, 27840, Note_on_c, 7, 39, 48
13, 27959, Note_on_c, 7, 39, 0
13, 27960, Note_on_c, 7, 39, 54
13, 28079, Note_on_c, 7, 39, 0
13, 28080, Note_on_c, 7, 40, 60
13, 28199, Note_on_c, 7, 40, 0
13, 28200, Note_on_c, 7, 40, 66
13, 28319, Note_on_c, 7, 40, 0
13, 28320, Note_on_c, 7, 41, 72
13, 28439, Note_on_c, 7, 41, 0
13, 28440, Note_on_c, 7, 41, 72
13, 28559, Note_on_c, 7, 41, 0
13, 28560, Note_on_c, 7, 41, 72
13, 28679, Note_on_c, 7, 41, 0
13, 28680, Note_on_c, 7, 41, 72
13, 28799, Note_on_c, 7, 41, 0
13, 28800, Note_on_c, 7, 46, 72
13, 28919, Note_on_c, 7, 46, 0
13, 29040, Note_on_c, 7, 41, 48
13, 29159, Note_on_c, 7, 41, 0
13, 29280, Note_on_c, 7, 34, 48
13, 29639, Note_on_c, 7, 34, 0
13, 29639, End_track
14, 0, Start_track
14, 0, Title_t, "Soprano Solo"
14, 0, MIDI_port, 0
14, 0, Program_c, 10, 73
14, 0, Control_c, 10, 7, 96
14, 0, Control_c, 10, 10, 50
14, 0, Control_c, 10, 11, 127
14, 18720, Note_on_c, 10, 77, 72
14, 19079, Note_on_c, 10, 77, 0
14, 19080, Note_on_c, 10, 74, 72
14, 19139, Note_on_c, 10, 74, 0
14, 19140, Note_on_c, 10, 70, 72
14, 19184, Note_on_c, 10, 70, 0
14, 19185, Note_on_c, 10, 70, 72
14, 19199, Note_on_c, 10, 70, 0
14, 19200, Note_on_c, 10, 69, 72
14, 19379, Note_on_c, 10, 69, 0
14, 19380, Note_on_c, 10, 70, 72
14, 19439, Note_on_c, 10, 70, 0
14, 19440, Note_on_c, 10, 72, 72
14, 19619, Note_on_c, 10, 72, 0
14, 19620, Note_on_c, 10, 75, 72
14, 19679, Note_on_c, 10, 75, 0
14, 19680, Note_on_c, 10, 73, 72
14, 19739, Note_on_c, 10, 73, 0
14, 19740, Note_on_c, 10, 74, 72
14, 19799, Note_on_c, 10, 74, 0
14, 19800, Note_on_c, 10, 74, 72
14, 19919, Note_on_c, 10, 74, 0
14, 20040, Note_on_c, 10, 70, 72
14, 20099, Note_on_c, 10, 70, 0
14, 20100, Note_on_c, 10, 77, 72
14, 20144, Note_on_c, 10, 77, 0
14, 20145, Note_on_c, 10, 77, 72
14, 20159, Note_on_c, 10, 77, 0
14, 20160, Note_on_c, 10, 76, 72
14, 20339, Note_on_c, 10, 76, 0
14, 20340, Note_on_c, 10, 73, 72
14, 20399, Note_on_c, 10, 73, 0
14, 20400, Note_on_c, 10, 73, 72
14, 20459, Note_on_c, 10, 73, 0
14, 20460, Note_on_c, 10, 75, 72
14, 20489, Note_on_c, 10, 75, 0
14, 20490, Note_on_c, 10, 73, 72
14, 20519, Note_on_c, 10, 73, 0
14, 20520, Note_on_c, 10, 72, 72
14, 20579, Note_on_c, 10, 72, 0
14, 20580, Note_on_c, 10, 70, 72
14, 20639, Note_on_c, 10, 70, 0
14, 20640, Note_on_c, 10, 69, 72
14, 20759, Note_on_c, 10, 69, 0
14, 20760, Note_on_c, 10, 72, 72
14, 20879, Note_on_c, 10, 72, 0
14, 21240, Note_on_c, 10, 74, 72
14, 21359, Note_on_c, 10, 74, 0
14, 21480, Note_on_c, 10, 74, 72
14, 21599, Note_on_c, 10, 74, 0
14, 21600, Note_on_c, 10, 74, 72
14, 21719, Note_on_c, 10, 74, 0
14, 21720, Note_on_c, 10, 79, 72
14, 21839, Note_on_c, 10, 79, 0
14, 22080, Note_on_c, 10, 72, 72
14, 22199, Note_on_c, 10, 72, 0
14, 22200, Note_on_c, 10, 77, 72
14, 22319, Note_on_c, 10, 77, 0
14, 23280, Note_on_c, 10, 70, 72
14, 23399, Note_on_c, 10, 70, 0
14, 23400, Note_on_c, 10, 72, 72
14, 23519, Note_on_c, 10, 72, 0
14, 23520, Note_on_c, 10, 72, 72
14, 23699, Note_on_c, 10, 72, 0
14, 23700, Note_on_c, 10, 73, 72
14, 23759, Note_on_c, 10, 73, 0
14, 23760, Note_on_c, 10, 74, 72
14, 23879, Note_on_c, 10, 74, 0
14, 24000, Note_on_c, 10, 77, 48
14, 24119, Note_on_c, 10, 77, 0
14, 24240, Note_on_c, 10, 77, 48
14, 24359, Note_on_c, 10, 77, 0
14, 24480, Note_on_c, 10, 77, 48
14, 24599, Note_on_c, 10, 77, 0
14, 24600, Note_on_c, 10, 76, 48
14, 24719, Note_on_c, 10, 76, 0
14, 24960, Note_on_c, 10, 75, 48
14, 25079, Note_on_c, 10, 75, 0
14, 25080, Note_on_c, 10, 74, 48
14, 25199, Note_on_c, 10, 74, 0
14, 26040, Note_on_c, 10, 70, 48
14, 26279, Note_on_c, 10, 70, 0
14, 26280, Note_on_c, 10, 69, 48
14, 26399, Note_on_c, 10, 69, 0
14, 26400, Note_on_c, 10, 75, 48
14, 26579, Note_on_c, 10, 75, 0
14, 26580, Note_on_c, 10, 74, 48
14, 26639, Note_on_c, 10, 74, 0
14, 26640, Note_on_c, 10, 74, 48
14, 26759, Note_on_c, 10, 74, 0
14, 27000, Note_on_c, 10, 76, 72
14, 27119, Note_on_c, 10, 76, 0
14, 27240, Note_on_c, 10, 76, 48
14, 27359, Note_on_c, 10, 76, 0
14, 27360, Note_on_c, 10, 77, 48
14, 27479, Note_on_c, 10, 77, 0
14, 27480, Note_on_c, 10, 75, 48
14, 27599, Note_on_c, 10, 75, 0
14, 27720, Note_on_c, 10, 74, 48
14, 27839, Note_on_c, 10, 74, 0
14, 27840, Note_on_c, 10, 79, 48
14, 27959, Note_on_c, 10, 79, 0
14, 27960, Note_on_c, 10, 79, 54
14, 28079, Note_on_c, 10, 79, 0
14, 28080, Note_on_c, 10, 79, 60
14, 28199, Note_on_c, 10, 79, 0
14, 28200, Note_on_c, 10, 79, 66
14, 28319, Note_on_c, 10, 79, 0
14, 28320, Note_on_c, 10, 70, 72
14, 28679, Note_on_c, 10, 70, 0
14, 28680, Note_on_c, 10, 74, 72
14, 28739, Note_on_c, 10, 74, 0
14, 28740, Note_on_c, 10, 72, 72
14, 28799, Note_on_c, 10, 72, 0
14, 28800, Note_on_c, 10, 70, 72
14, 28919, Note_on_c, 10, 70, 0
14, 28919, End_track
15, 0, Start_track
15, 0, Title_t, "Alto Solo"
15, 0, MIDI_port, 0
15, 0, Program_c, 11, 73
15, 0, Control_c, 11, 7, 96
15, 0, Control_c, 11, 10, 60
15, 0, Control_c, 11, 11, 127
15, 15840, Note_on_c, 11, 69, 72
15, 16199, Note_on_c, 11, 69, 0
15, 16200, Note_on_c, 11, 74, 72
15, 16289, Note_on_c, 11, 74, 0
15, 16290, Note_on_c, 11, 74, 72
15, 16319, Note_on_c, 11, 74, 0
15, 16320, Note_on_c, 11, 73, 72
15, 16499, Note_on_c, 11, 73, 0
15, 16500, Note_on_c, 11, 70, 72
15, 16544, Note_on_c, 11, 70, 0
15, 16545, Note_on_c, 11, 70, 72
15, 16559, Note_on_c, 11, 70, 0
15, 16560, Note_on_c, 11, 69, 72
15, 16739, Note_on_c, 11, 69, 0
15, 16740, Note_on_c, 11, 67, 72
15, 16784, Note_on_c, 11, 67, 0
15, 16785, Note_on_c, 11, 67, 72
15, 16799, Note_on_c, 11, 67, 0
15, 16800, Note_on_c, 11, 65, 72
15, 16859, Note_on_c, 11, 65, 0
15, 16860, Note_on_c, 11, 64, 72
15, 16889, Note_on_c, 11, 64, 0
15, 16890, Note_on_c, 11, 62, 72
15, 16919, Note_on_c, 11, 62, 0
15, 16920, Note_on_c, 11, 62, 72
15, 17039, Note_on_c, 11, 62, 0
15, 17280, Note_on_c, 11, 67, 72
15, 17639, Note_on_c, 11, 67, 0
15, 17640, Note_on_c, 11, 72, 72
15, 17729, Note_on_c, 11, 72, 0
15, 17730, Note_on_c, 11, 72, 72
15, 17759, Note_on_c, 11, 72, 0
15, 17760, Note_on_c, 11, 71, 72
15, 17939, Note_on_c, 11, 71, 0
15, 17940, Note_on_c, 11, 68, 72
15, 17984, Note_on_c, 11, 68, 0
15, 17985, Note_on_c, 11, 68, 72
15, 17999, Note_on_c, 11, 68, 0
15, 18000, Note_on_c, 11, 67, 72
15, 18179, Note_on_c, 11, 67, 0
15, 18180, Note_on_c, 11, 65, 72
15, 18239, Note_on_c, 11, 65, 0
15, 18240, Note_on_c, 11, 63, 72
15, 18299, Note_on_c, 11, 63, 0
15, 18300, Note_on_c, 11, 67, 72
15, 18359, Note_on_c, 11, 67, 0
15, 18360, Note_on_c, 11, 72, 72
15, 18449, Note_on_c, 11, 72, 0
15, 18450, Note_on_c, 11, 70, 72
15, 18479, Note_on_c, 11, 70, 0
15, 18480, Note_on_c, 11, 69, 72
15, 18569, Note_on_c, 11, 69, 0
15, 18570, Note_on_c, 11, 67, 72
15, 18599, Note_on_c, 11, 67, 0
15, 18600, Note_on_c, 11, 65, 72
15, 18659, Note_on_c, 11, 65, 0
15, 18660, Note_on_c, 11, 63, 72
15, 18719, Note_on_c, 11, 63, 0
15, 18720, Note_on_c, 11, 62, 72
15, 18839, Note_on_c, 11, 62, 0
15, 18840, Note_on_c, 11, 65, 72
15, 18959, Note_on_c, 11, 65, 0
15, 24000, Note_on_c, 11, 70, 48
15, 24119, Note_on_c, 11, 70, 0
15, 24240, Note_on_c, 11, 68, 48
15, 24359, Note_on_c, 11, 68, 0
15, 24480, Note_on_c, 11, 67, 48
15, 24599, Note_on_c, 11, 67, 0
15, 24600, Note_on_c, 11, 67, 48
15, 24719, Note_on_c, 11, 67, 0
15, 24960, Note_on_c, 11, 69, 48
15, 25079, Note_on_c, 11, 69, 0
15, 25080, Note_on_c, 11, 70, 48
15, 25199, Note_on_c, 11, 70, 0
15, 26040, Note_on_c, 11, 65, 48
15, 26279, Note_on_c, 11, 65, 0
15, 26280, Note_on_c, 11, 63, 48
15, 26399, Note_on_c, 11, 63, 0
15, 26400, Note_on_c, 11, 69, 48
15, 26579, Note_on_c, 11, 69, 0
15, 26580, Note_on_c, 11, 70, 48
15, 26639, Note_on_c, 11, 70, 0
15, 26640, Note_on_c, 11, 70, 48
15, 26759, Note_on_c, 11, 70, 0
15, 27000, Note_on_c, 11, 70, 72
15, 27119, Note_on_c, 11, 70, 0
15, 27240, Note_on_c, 11, 67, 48
15, 27359, Note_on_c, 11, 67, 0
15, 27360, Note_on_c, 11, 65, 48
15, 27479, Note_on_c, 11, 65, 0
15, 27480, Note_on_c, 11, 65, 48
15, 27599, Note_on_c, 11, 65, 0
15, 27720, Note_on_c, 11, 65, 48
15, 27839, Note_on_c, 11, 65, 0
15, 27840, Note_on_c, 11, 63, 48
15, 27959, Note_on_c, 11, 63, 0
15, 27960, Note_on_c, 11, 67, 54
15, 28079, Note_on_c, 11, 67, 0
15, 28080, Note_on_c, 11, 70, 60
15, 28199, Note_on_c, 11, 70, 0
15, 28200, Note_on_c, 11, 70, 66
15, 28319, Note_on_c, 11, 70, 0
15, 28320, Note_on_c, 11, 65, 72
15, 28679, Note_on_c, 11, 65, 0
15, 28680, Note_on_c, 11, 69, 72
15, 28799, Note_on_c, 11, 69, 0
15, 28800, Note_on_c, 11, 70, 72
15, 28919, Note_on_c, 11, 70, 0
15, 28919, End_track
16, 0, Start_track
16, 0, Title_t, "Tenor Solo"
16, 0, MIDI_port, 0
16, 0, Program_c, 12, 70
16, 0, Control_c, 12, 7, 96
16, 0, Control_c, 12, 10, 70
16, 0, Control_c, 12, 11, 127
16, 8160, Note_on_c, 12, 65, 72
16, 8339, Note_on_c, 12, 65, 0
16, 8340, Note_on_c, 12, 60, 72
16, 8399, Note_on_c, 12, 60, 0
16, 8400, Note_on_c, 12, 68, 72
16, 8489, Note_on_c, 12, 68, 0
16, 8490, Note_on_c, 12, 65, 72
16, 8519, Note_on_c, 12, 65, 0
16, 8520, Note_on_c, 12, 60, 72
16, 8579, Note_on_c, 12, 60, 0
16, 8580, Note_on_c, 12, 56, 72
16, 8639, Note_on_c, 12, 56, 0
16, 8640, Note_on_c, 12, 55, 72
16, 8759, Note_on_c, 12, 55, 0
16, 8760, Note_on_c, 12, 58, 72
16, 8879, Note_on_c, 12, 58, 0
16, 9000, Note_on_c, 12, 67, 72
16, 9059, Note_on_c, 12, 67, 0
16, 9060, Note_on_c, 12, 65, 72
16, 9104, Note_on_c, 12, 65, 0
16, 9105, Note_on_c, 12, 65, 72
16, 9119, Note_on_c, 12, 65, 0
16, 9120, Note_on_c, 12, 64, 72
16, 9299, Note_on_c, 12, 64, 0
16, 9300, Note_on_c, 12, 61, 72
16, 9344, Note_on_c, 12, 61, 0
16, 9345, Note_on_c, 12, 61, 72
16, 9359, Note_on_c, 12, 61, 0
16, 9360, Note_on_c, 12, 60, 72
16, 9539, Note_on_c, 12, 60, 0
16, 9540, Note_on_c, 12, 58, 72
16, 9599, Note_on_c, 12, 58, 0
16, 9600, Note_on_c, 12, 56, 72
16, 9659, Note_on_c, 12, 56, 0
16, 9660, Note_on_c, 12, 60, 72
16, 9719, Note_on_c, 12, 60, 0
16, 9720, Note_on_c, 12, 60, 72
16, 9779, Note_on_c, 12, 60, 0
16, 9780, Note_on_c, 12, 65, 72
16, 9839, Note_on_c, 12, 65, 0
16, 9840, Note_on_c, 12, 65, 72
16, 10019, Note_on_c, 12, 65, 0
16, 10020, Note_on_c, 12, 65, 72
16, 10079, Note_on_c, 12, 65, 0
16, 10080, Note_on_c, 12, 65, 72
16, 10199, Note_on_c, 12, 65, 0
16, 10200, Note_on_c, 12, 63, 72
16, 10319, Note_on_c, 12, 63, 0
16, 10320, Note_on_c, 12, 62, 72
16, 10499, Note_on_c, 12, 62, 0
16, 10500, Note_on_c, 12, 60, 72
16, 10559, Note_on_c, 12, 60, 0
16, 10560, Note_on_c, 12, 59, 72
16, 10679, Note_on_c, 12, 59, 0
16, 10680, Note_on_c, 12, 62, 72
16, 10799, Note_on_c, 12, 62, 0
16, 11040, Note_on_c, 12, 62, 72
16, 11399, Note_on_c, 12, 62, 0
16, 11400, Note_on_c, 12, 62, 72
16, 11519, Note_on_c, 12, 62, 0
16, 11520, Note_on_c, 12, 63, 72
16, 11579, Note_on_c, 12, 63, 0
16, 11580, Note_on_c, 12, 62, 72
16, 11639, Note_on_c, 12, 62, 0
16, 11640, Note_on_c, 12, 62, 72
16, 11759, Note_on_c, 12, 62, 0
16, 11760, Note_on_c, 12, 62, 72
16, 11939, Note_on_c, 12, 62, 0
16, 11940, Note_on_c, 12, 62, 72
16, 11999, Note_on_c, 12, 62, 0
16, 12000, Note_on_c, 12, 62, 72
16, 12059, Note_on_c, 12, 62, 0
16, 12060, Note_on_c, 12, 67, 72
16, 12119, Note_on_c, 12, 67, 0
16, 12120, Note_on_c, 12, 62, 72
16, 12239, Note_on_c, 12, 62, 0
16, 12360, Note_on_c, 12, 67, 72
16, 12419, Note_on_c, 12, 67, 0
16, 12420, Note_on_c, 12, 65, 72
16, 12464, Note_on_c, 12, 65, 0
16, 12465, Note_on_c, 12, 65, 72
16, 12479, Note_on_c, 12, 65, 0
16, 12480, Note_on_c, 12, 64, 72
16, 12659, Note_on_c, 12, 64, 0
16, 12660, Note_on_c, 12, 64, 72
16, 12719, Note_on_c, 12, 64, 0
16, 12720, Note_on_c, 12, 64, 72
16, 12899, Note_on_c, 12, 64, 0
16, 12900, Note_on_c, 12, 62, 72
16, 12959, Note_on_c, 12, 62, 0
16, 12960, Note_on_c, 12, 62, 72
16, 13079, Note_on_c, 12, 62, 0
16, 13080, Note_on_c, 12, 61, 72
16, 13199, Note_on_c, 12, 61, 0
16, 13440, Note_on_c, 12, 62, 72
16, 13799, Note_on_c, 12, 62, 0
16, 13800, Note_on_c, 12, 62, 72
16, 13919, Note_on_c, 12, 62, 0
16, 13920, Note_on_c, 12, 62, 72
16, 14099, Note_on_c, 12, 62, 0
16, 14100, Note_on_c, 12, 64, 72
16, 14159, Note_on_c, 12, 64, 0
16, 14160, Note_on_c, 12, 64, 72
16, 14399, Note_on_c, 12, 64, 0
16, 14400, Note_on_c, 12, 64, 72
16, 14759, Note_on_c, 12, 64, 0
16, 14760, Note_on_c, 12, 64, 72
16, 14879, Note_on_c, 12, 64, 0
16, 14880, Note_on_c, 12, 64, 72
16, 14969, Note_on_c, 12, 64, 0
16, 14970, Note_on_c, 12, 67, 72
16, 14999, Note_on_c, 12, 67, 0
16, 15000, Note_on_c, 12, 65, 72
16, 15239, Note_on_c, 12, 65, 0
16, 15240, Note_on_c, 12, 64, 72
16, 15299, Note_on_c, 12, 64, 0
16, 15300, Note_on_c, 12, 62, 72
16, 15359, Note_on_c, 12, 62, 0
16, 15360, Note_on_c, 12, 62, 72
16, 15719, Note_on_c, 12, 62, 0
16, 15720, Note_on_c, 12, 65, 72
16, 15779, Note_on_c, 12, 65, 0
16, 15780, Note_on_c, 12, 64, 72
16, 15839, Note_on_c, 12, 64, 0
16, 15840, Note_on_c, 12, 62, 72
16, 15959, Note_on_c, 12, 62, 0
16, 24120, Note_on_c, 12, 65, 48
16, 24239, Note_on_c, 12, 65, 0
16, 24360, Note_on_c, 12, 63, 48
16, 24479, Note_on_c, 12, 63, 0
16, 24480, Note_on_c, 12, 62, 48
16, 24599, Note_on_c, 12, 62, 0
16, 24600, Note_on_c, 12, 60, 48
16, 24719, Note_on_c, 12, 60, 0
16, 24960, Note_on_c, 12, 60, 48
16, 25079, Note_on_c, 12, 60, 0
16, 25080, Note_on_c, 12, 58, 48
16, 25199, Note_on_c, 12, 58, 0
16, 26040, Note_on_c, 12, 62, 48
16, 26279, Note_on_c, 12, 62, 0
16, 26280, Note_on_c, 12, 60, 48
16, 26399, Note_on_c, 12, 60, 0
16, 26400, Note_on_c, 12, 60, 48
16, 26579, Note_on_c, 12, 60, 0
16, 26580, Note_on_c, 12, 58, 48
16, 26639, Note_on_c, 12, 58, 0
16, 26640, Note_on_c, 12, 58, 48
16, 26759, Note_on_c, 12, 58, 0
16, 27000, Note_on_c, 12, 67, 72
16, 27119, Note_on_c, 12, 67, 0
16, 27240, Note_on_c, 12, 60, 48
16, 27359, Note_on_c, 12, 60, 0
16, 27360, Note_on_c, 12, 60, 48
16, 27479, Note_on_c, 12, 60, 0
16, 27480, Note_on_c, 12, 60, 48
16, 27599, Note_on_c, 12, 60, 0
16, 27720, Note_on_c, 12, 58, 48
16, 27839, Note_on_c, 12, 58, 0
16, 27840, Note_on_c, 12, 58, 48
16, 27959, Note_on_c, 12, 58, 0
16, 27960, Note_on_c, 12, 58, 54
16, 28079, Note_on_c, 12, 58, 0
16, 28080, Note_on_c, 12, 60, 60
16, 28199, Note_on_c, 12, 60, 0
16, 28200, Note_on_c, 12, 61, 66
16, 28319, Note_on_c, 12, 61, 0
16, 28320, Note_on_c, 12, 62, 72
16, 28679, Note_on_c, 12, 62, 0
16, 28680, Note_on_c, 12, 65, 72
16, 28739, Note_on_c, 12, 65, 0
16, 28740, Note_on_c, 12, 63, 72
16, 28799, Note_on_c, 12, 63, 0
16, 28800, Note_on_c, 12, 62, 72
16, 28919, Note_on_c, 12, 62, 0
16, 28919, End_track
17, 0, Start_track
17, 0, Title_t, "Bass Solo"
17, 0, MIDI_port, 0
17, 0, Program_c, 13, 60
17, 0, Control_c, 13, 7, 96
17, 0, Control_c, 13, 10, 80
17, 0, Control_c, 13, 11, 127
17, 960, Note_on_c, 13, 58, 72
17, 1199, Note_on_c, 13, 58, 0
17, 1200, Note_on_c, 13, 53, 72
17, 1439, Note_on_c, 13, 53, 0
17, 1440, Note_on_c, 13, 62, 72
17, 1559, Note_on_c, 13, 62, 0
17, 1560, Note_on_c, 13, 58, 72
17, 1679, Note_on_c, 13, 58, 0
17, 1680, Note_on_c, 13, 53, 72
17, 1799, Note_on_c, 13, 53, 0
17, 1800, Note_on_c, 13, 50, 72
17, 1919, Note_on_c, 13, 50, 0
17, 1920, Note_on_c, 13, 46, 72
17, 3059, Note_on_c, 13, 46, 0
17, 3060, Note_on_c, 13, 50, 72
17, 3089, Note_on_c, 13, 50, 0
17, 3090, Note_on_c, 13, 48, 72
17, 3119, Note_on_c, 13, 48, 0
17, 3120, Note_on_c, 13, 46, 72
17, 3239, Note_on_c, 13, 46, 0
17, 3840, Note_on_c, 13, 51, 72
17, 4199, Note_on_c, 13, 51, 0
17, 4200, Note_on_c, 13, 48, 72
17, 4319, Note_on_c, 13, 48, 0
17, 4320, Note_on_c, 13, 45, 72
17, 4439, Note_on_c, 13, 45, 0
17, 4440, Note_on_c, 13, 60, 72
17, 4559, Note_on_c, 13, 60, 0
17, 4560, Note_on_c, 13, 57, 72
17, 4679, Note_on_c, 13, 57, 0
17, 4680, Note_on_c, 13, 51, 72
17, 4799, Note_on_c, 13, 51, 0
17, 4800, Note_on_c, 13, 50, 72
17, 4919, Note_on_c, 13, 50, 0
17, 4920, Note_on_c, 13, 53, 72
17, 5039, Note_on_c, 13, 53, 0
17, 5160, Note_on_c, 13, 53, 72
17, 5249, Note_on_c, 13, 53, 0
17, 5250, Note_on_c, 13, 46, 72
17, 5279, Note_on_c, 13, 46, 0
17, 5280, Note_on_c, 13, 55, 72
17, 5399, Note_on_c, 13, 55, 0
17, 5400, Note_on_c, 13, 43, 72
17, 5519, Note_on_c, 13, 43, 0
17, 5640, Note_on_c, 13, 57, 72
17, 5729, Note_on_c, 13, 57, 0
17, 5730, Note_on_c, 13, 50, 72
17, 5759, Note_on_c, 13, 50, 0
17, 5760, Note_on_c, 13, 58, 72
17, 5879, Note_on_c, 13, 58, 0
17, 5880, Note_on_c, 13, 46, 72
17, 5999, Note_on_c, 13, 46, 0
17, 6120, Note_on_c, 13, 60, 72
17, 6209, Note_on_c, 13, 60, 0
17, 6210, Note_on_c, 13, 53, 72
17, 6239, Note_on_c, 13, 53, 0
17, 6240, Note_on_c, 13, 62, 72
17, 6359, Note_on_c, 13, 62, 0
17, 6360, Note_on_c, 13, 46, 72
17, 6479, Note_on_c, 13, 46, 0
17, 6480, Note_on_c, 13, 45, 72
17, 6659, Note_on_c, 13, 45, 0
17, 6660, Note_on_c, 13, 60, 72
17, 6719, Note_on_c, 13, 60, 0
17, 6720, Note_on_c, 13, 58, 72
17, 6839, Note_on_c, 13, 58, 0
17, 6840, Note_on_c, 13, 57, 72
17, 6959, Note_on_c, 13, 57, 0
17, 7080, Note_on_c, 13, 57, 72
17, 7169, Note_on_c, 13, 57, 0
17, 7170, Note_on_c, 13, 52, 72
17, 7199, Note_on_c, 13, 52, 0
17, 7200, Note_on_c, 13, 53, 72
17, 7319, Note_on_c, 13, 53, 0
17, 7320, Note_on_c, 13, 44, 72
17, 7439, Note_on_c, 13, 44, 0
17, 7440, Note_on_c, 13, 46, 72
17, 7559, Note_on_c, 13, 46, 0
17, 7560, Note_on_c, 13, 47, 72
17, 7679, Note_on_c, 13, 47, 0
17, 7680, Note_on_c, 13, 48, 72
17, 8159, Note_on_c, 13, 48, 0
17, 8160, Note_on_c, 13, 41, 72
17, 8279, Note_on_c, 13, 41, 0
17, 24000, Note_on_c, 13, 62, 48
17, 24119, Note_on_c, 13, 62, 0
17, 24240, Note_on_c, 13, 60, 48
17, 24359, Note_on_c, 13, 60, 0
17, 24480, Note_on_c, 13, 59, 48
17, 24599, Note_on_c, 13, 59, 0
17, 24600, Note_on_c, 13, 60, 48
17, 24719, Note_on_c, 13, 60, 0
17, 24960, Note_on_c, 13, 54, 48
17, 25079, Note_on_c, 13, 54, 0
17, 25080, Note_on_c, 13, 55, 48
17, 25199, Note_on_c, 13, 55, 0
17, 26040, Note_on_c, 13, 53, 48
17, 26279, Note_on_c, 13, 53, 0
17, 26280, Note_on_c, 13, 53, 48
17, 26399, Note_on_c, 13, 53, 0
17, 26400, Note_on_c, 13, 54, 48
17, 26579, Note_on_c, 13, 54, 0
17, 26580, Note_on_c, 13, 55, 48
17, 26639, Note_on_c, 13, 55, 0
17, 26640, Note_on_c, 13, 55, 48
17, 26759, Note_on_c, 13, 55, 0
17, 27000, Note_on_c, 13, 60, 72
17, 27119, Note_on_c, 13, 60, 0
17, 27240, Note_on_c, 13, 58, 48
17, 27359, Note_on_c, 13, 58, 0
17, 27360, Note_on_c, 13, 57, 48
17, 27479, Note_on_c, 13, 57, 0
17, 27480, Note_on_c, 13, 57, 48
17, 27599, Note_on_c, 13, 57, 0
17, 27720, Note_on_c, 13, 58, 48
17, 27839, Note_on_c, 13, 58, 0
17, 27840, Note_on_c, 13, 51, 48
17, 27959, Note_on_c, 13, 51, 0
17, 27960, Note_on_c, 13, 51, 54
17, 28079, Note_on_c, 13, 51, 0
17, 28080, Note_on_c, 13, 52, 60
17, 28199, Note_on_c, 13, 52, 0
17, 28200, Note_on_c, 13, 52, 66
17, 28319, Note_on_c, 13, 52, 0
17, 28320, Note_on_c, 13, 53, 72
17, 28799, Note_on_c, 13, 53, 0
17, 28800, Note_on_c, 13, 46, 72
17, 28919, Note_on_c, 13, 46, 0
17, 28919, End_track
0, 0, End_of_file