0, 0, Header, 1, 20, 120
1, 0, Start_track
1, 0, Sequencer_specific, 0A, 00, 00, 5B, 23, 01, 00, 05, 04, 23, 00
1, 0, Title_t, "W. A. Mozart - Requiem K. 626"
1, 0, Instrument_name_t, "Conductor Track"
1, 0, SMPTE_offset, 96, 0, 3, 0, 0
1, 0, MIDI_port, 0
1, 0, Key_signature, -2, "major"
1, 0, Tempo, 800000
1, 0, Time_signature, 4, 2, 24, 8
1, 37920, Tempo, 750000
1, 37920, End_track
2, 0, Start_track
2, 0, Title_t, "No. 8 - Domine Jesu"
2, 0, MIDI_port, 0
2, 0, End_track
3, 0, Start_track
3, 0, Title_t, "Sequenced by D. Viens 8 Nov 1997"
3, 0, MIDI_port, 0
3, 0, End_track
4, 0, Start_track
4, 0, Title_t, "dlviens@ix.netcom.com"
4, 0, MIDI_port, 0
4, 0, End_track
5, 0, Start_track
5, 0, MIDI_port, 0
5, 0, End_track
6, 0, Start_track
6, 0, Title_t, "Corni di Bassetto in F"
6, 0, MIDI_port, 0
6, 0, Control_c, 0, 7, 96
6, 0, Control_c, 0, 10, 75
6, 0, Control_c, 0, 11, 80
6, 0, Program_c, 0, 71
6, 720, Note_on_c, 0, 70, 72
6, 720, Note_on_c, 0, 67, 72
6, 780, Control_c, 0, 11, 90
6, 840, Control_c, 0, 11, 100
6, 900, Control_c, 0, 11, 112
6, 959, Note_on_c, 0, 70, 0
6, 959, Note_on_c, 0, 67, 0
6, 960, Control_c, 0, 11, 127
6, 960, Note_on_c, 0, 75, 72
6, 960, Note_on_c, 0, 67, 72
6, 1079, Note_on_c, 0, 75, 0
6, 1079, Note_on_c, 0, 67, 0
6, 1080, Note_on_c, 0, 74, 72
6, 1080, Note_on_c, 0, 65, 72
6, 1199, Note_on_c, 0, 74, 0
6, 1199, Note_on_c, 0, 65, 0
6, 1200, Note_on_c, 0, 72, 72
6, 1200, Note_on_c, 0, 63, 72
6, 1319, Note_on_c, 0, 72, 0
6, 1319, Note_on_c, 0, 63, 0
6, 1320, Note_on_c, 0, 70, 72
6, 1320, Note_on_c, 0, 62, 72
6, 1439, Note_on_c, 0, 70, 0
6, 1439, Note_on_c, 0, 62, 0
6, 7620, Note_on_c, 0, 68, 72
6, 7679, Note_on_c, 0, 68, 0
6, 7680, Note_on_c, 0, 66, 72
6, 7799, Note_on_c, 0, 66, 0
6, 7800, Note_on_c, 0, 65, 72
6, 7859, Note_on_c, 0, 65, 0
6, 7860, Note_on_c, 0, 65, 72
6, 7919, Note_on_c, 0, 65, 0
6, 7920, Note_on_c, 0, 64, 72
6, 8039, Note_on_c, 0, 64, 0
6, 8040, Note_on_c, 0, 65, 72
6, 8099, Note_on_c, 0, 65, 0
6, 9060, Note_on_c, 0, 70, 72
6, 9119, Note_on_c, 0, 70, 0
6, 9120, Note_on_c, 0, 68, 72
6, 9239, Note_on_c, 0, 68, 0
6, 9240, Note_on_c, 0, 67, 72
6, 9299, Note_on_c, 0, 67, 0
6, 9300, Note_on_c, 0, 67, 72
6, 9359, Note_on_c, 0, 67, 0
6, 9360, Note_on_c, 0, 66, 72
6, 9479, Note_on_c, 0, 66, 0
6, 9480, Note_on_c, 0, 67, 72
6, 9539, Note_on_c, 0, 67, 0
6, 9600, Note_on_c, 0, 71, 72
6, 9600, Note_on_c, 0, 67, 72
6, 9719, Note_on_c, 0, 71, 0
6, 9720, Note_on_c, 0, 72, 72
6, 9839, Note_on_c, 0, 67, 0
6, 9839, Note_on_c, 0, 72, 0
6, 9840, Note_on_c, 0, 68, 72
6, 9840, Note_on_c, 0, 65, 72
6, 9959, Note_on_c, 0, 68, 0
6, 9960, Note_on_c, 0, 70, 72
6, 10079, Note_on_c, 0, 65, 0
6, 10079, Note_on_c, 0, 70, 0
6, 10080, Note_on_c, 0, 70, 72
6, 10080, Note_on_c, 0, 67, 72
6, 10199, Note_on_c, 0, 70, 0
6, 10200, Note_on_c, 0, 69, 72
6, 10319, Note_on_c, 0, 67, 0
6, 10319, Note_on_c, 0, 69, 0
6, 10320, Note_on_c, 0, 68, 72
6, 10320, Note_on_c, 0, 65, 72
6, 10439, Note_on_c, 0, 68, 0
6, 10440, Note_on_c, 0, 67, 72
6, 10559, Note_on_c, 0, 65, 0
6, 10559, Note_on_c, 0, 67, 0
6, 10560, Note_on_c, 0, 67, 72
6, 10560, Note_on_c, 0, 63, 72
6, 10679, Note_on_c, 0, 63, 0
6, 10680, Note_on_c, 0, 64, 72
6, 10799, Note_on_c, 0, 67, 0
6, 10799, Note_on_c, 0, 64, 0
6, 10800, Note_on_c, 0, 69, 72
6, 10800, Note_on_c, 0, 60, 72
6, 10919, Note_on_c, 0, 69, 0
6, 10919, Note_on_c, 0, 60, 0
6, 10920, Note_on_c, 0, 70, 72
6, 10920, Note_on_c, 0, 67, 72
6, 11039, Note_on_c, 0, 70, 0
6, 11039, Note_on_c, 0, 67, 0
6, 11040, Note_on_c, 0, 70, 72
6, 11040, Note_on_c, 0, 67, 72
6, 11159, Note_on_c, 0, 70, 0
6, 11159, Note_on_c, 0, 67, 0
6, 11160, Note_on_c, 0, 69, 72
6, 11160, Note_on_c, 0, 65, 72
6, 11279, Note_on_c, 0, 69, 0
6, 11279, Note_on_c, 0, 65, 0
6, 11280, Note_on_c, 0, 69, 72
6, 11280, Note_on_c, 0, 65, 72
6, 11399, Note_on_c, 0, 69, 0
6, 11399, Note_on_c, 0, 65, 0
6, 11400, Note_on_c, 0, 67, 72
6, 11400, Note_on_c, 0, 64, 72
6, 11519, Note_on_c, 0, 67, 0
6, 11519, Note_on_c, 0, 64, 0
6, 11520, Note_on_c, 0, 65, 72
6, 11639, Note_on_c, 0, 65, 0
6, 11640, Note_on_c, 0, 69, 72
6, 11640, Note_on_c, 0, 62, 72
6, 11879, Note_on_c, 0, 69, 0
6, 11879, Note_on_c, 0, 62, 0
6, 11880, Note_on_c, 0, 67, 72
6, 11880, Note_on_c, 0, 64, 72
6, 12119, Note_on_c, 0, 67, 0
6, 12119, Note_on_c, 0, 64, 0
6, 12120, Note_on_c, 0, 65, 72
6, 12120, Note_on_c, 0, 62, 72
6, 12359, Note_on_c, 0, 65, 0
6, 12359, Note_on_c, 0, 62, 0
6, 12360, Note_on_c, 0, 64, 72
6, 12360, Note_on_c, 0, 57, 72
6, 12479, Note_on_c, 0, 64, 0
6, 12479, Note_on_c, 0, 57, 0
6, 12480, Note_on_c, 0, 62, 72
6, 12480, Note_on_c, 0, 57, 72
6, 12599, Note_on_c, 0, 62, 0
6, 12599, Note_on_c, 0, 57, 0
6, 12600, Note_on_c, 0, 69, 72
6, 12600, Note_on_c, 0, 74, 72
6, 12719, Note_on_c, 0, 69, 0
6, 12720, Note_on_c, 0, 67, 72
6, 12779, Note_on_c, 0, 74, 0
6, 12780, Note_on_c, 0, 67, 72
6, 12839, Note_on_c, 0, 67, 0
6, 12840, Note_on_c, 0, 72, 72
6, 12959, Note_on_c, 0, 67, 0
6, 12960, Note_on_c, 0, 65, 72
6, 13019, Note_on_c, 0, 72, 0
6, 13020, Note_on_c, 0, 65, 72
6, 13079, Note_on_c, 0, 65, 0
6, 13080, Note_on_c, 0, 70, 72
6, 13199, Note_on_c, 0, 65, 0
6, 13200, Note_on_c, 0, 63, 72
6, 13259, Note_on_c, 0, 70, 0
6, 13260, Note_on_c, 0, 63, 72
6, 13319, Note_on_c, 0, 63, 0
6, 13320, Note_on_c, 0, 69, 72
6, 13439, Note_on_c, 0, 63, 0
6, 13439, Note_on_c, 0, 69, 0
6, 13440, Note_on_c, 0, 67, 72
6, 13440, Note_on_c, 0, 62, 72
6, 13559, Note_on_c, 0, 67, 0
6, 13559, Note_on_c, 0, 62, 0
6, 13560, Note_on_c, 0, 69, 72
6, 13560, Note_on_c, 0, 66, 72
6, 13679, Note_on_c, 0, 69, 0
6, 13679, Note_on_c, 0, 66, 0
6, 13680, Note_on_c, 0, 70, 72
6, 13680, Note_on_c, 0, 67, 72
6, 13799, Note_on_c, 0, 70, 0
6, 13799, Note_on_c, 0, 67, 0
6, 13800, Note_on_c, 0, 69, 72
6, 13800, Note_on_c, 0, 66, 72
6, 13919, Note_on_c, 0, 69, 0
6, 13919, Note_on_c, 0, 66, 0
6, 13920, Note_on_c, 0, 70, 72
6, 13920, Note_on_c, 0, 67, 72
6, 14039, Note_on_c, 0, 70, 0
6, 14039, Note_on_c, 0, 67, 0
6, 14040, Note_on_c, 0, 69, 72
6, 14040, Note_on_c, 0, 66, 72
6, 14159, Note_on_c, 0, 69, 0
6, 14159, Note_on_c, 0, 66, 0
6, 22620, Note_on_c, 0, 67, 72
6, 22679, Note_on_c, 0, 67, 0
6, 22680, Note_on_c, 0, 67, 72
6, 22739, Note_on_c, 0, 67, 0
6, 22740, Note_on_c, 0, 67, 72
6, 22799, Note_on_c, 0, 67, 0
6, 22800, Note_on_c, 0, 67, 72
6, 22889, Note_on_c, 0, 67, 0
6, 22890, Note_on_c, 0, 66, 72
6, 22919, Note_on_c, 0, 66, 0
6, 22920, Note_on_c, 0, 66, 72
6, 23039, Note_on_c, 0, 66, 0
6, 23100, Note_on_c, 0, 72, 72
6, 23219, Note_on_c, 0, 72, 0
6, 23220, Note_on_c, 0, 72, 72
6, 23279, Note_on_c, 0, 72, 0
6, 23280, Note_on_c, 0, 72, 72
6, 23340, Note_on_c, 0, 74, 72
6, 23399, Note_on_c, 0, 72, 0
6, 23399, Note_on_c, 0, 74, 0
6, 23400, Note_on_c, 0, 70, 72
6, 23400, Note_on_c, 0, 74, 72
6, 23459, Note_on_c, 0, 74, 0
6, 23460, Note_on_c, 0, 74, 72
6, 23519, Note_on_c, 0, 70, 0
6, 23519, Note_on_c, 0, 74, 0
6, 23520, Note_on_c, 0, 74, 72
6, 23580, Note_on_c, 0, 70, 72
6, 23609, Note_on_c, 0, 74, 0
6, 23610, Note_on_c, 0, 73, 72
6, 23639, Note_on_c, 0, 70, 0
6, 23639, Note_on_c, 0, 73, 0
6, 23640, Note_on_c, 0, 73, 72
6, 23640, Note_on_c, 0, 67, 72
6, 23699, Note_on_c, 0, 67, 0
6, 23700, Note_on_c, 0, 69, 72
6, 23729, Note_on_c, 0, 69, 0
6, 23730, Note_on_c, 0, 70, 72
6, 23759, Note_on_c, 0, 73, 0
6, 23759, Note_on_c, 0, 70, 0
6, 23760, Note_on_c, 0, 64, 72
6, 23820, Note_on_c, 0, 79, 72
6, 23879, Note_on_c, 0, 64, 0
6, 23880, Note_on_c, 0, 69, 72
6, 23939, Note_on_c, 0, 79, 0
6, 23940, Note_on_c, 0, 79, 72
6, 23999, Note_on_c, 0, 69, 0
6, 23999, Note_on_c, 0, 79, 0
6, 24000, Note_on_c, 0, 79, 72
6, 24060, Note_on_c, 0, 72, 72
6, 24119, Note_on_c, 0, 79, 0
6, 24119, Note_on_c, 0, 72, 0
6, 24120, Note_on_c, 0, 78, 72
6, 24120, Note_on_c, 0, 72, 72
6, 24179, Note_on_c, 0, 72, 0
6, 24180, Note_on_c, 0, 72, 72
6, 24239, Note_on_c, 0, 78, 0
6, 24239, Note_on_c, 0, 72, 0
6, 24240, Note_on_c, 0, 72, 72
6, 24300, Note_on_c, 0, 77, 72
6, 24329, Note_on_c, 0, 72, 0
6, 24330, Note_on_c, 0, 71, 72
6, 24359, Note_on_c, 0, 77, 0
6, 24359, Note_on_c, 0, 71, 0
6, 24360, Note_on_c, 0, 77, 72
6, 24360, Note_on_c, 0, 71, 72
6, 24419, Note_on_c, 0, 77, 0
6, 24420, Note_on_c, 0, 77, 72
6, 24479, Note_on_c, 0, 71, 0
6, 24479, Note_on_c, 0, 77, 0
6, 24480, Note_on_c, 0, 77, 72
6, 24540, Note_on_c, 0, 70, 72
6, 24569, Note_on_c, 0, 77, 0
6, 24570, Note_on_c, 0, 76, 72
6, 24599, Note_on_c, 0, 76, 0
6, 24600, Note_on_c, 0, 76, 72
6, 24659, Note_on_c, 0, 70, 0
6, 24660, Note_on_c, 0, 70, 72
6, 24719, Note_on_c, 0, 76, 0
6, 24719, Note_on_c, 0, 70, 0
6, 24720, Note_on_c, 0, 70, 72
6, 24780, Note_on_c, 0, 75, 72
6, 24839, Note_on_c, 0, 70, 0
6, 24840, Note_on_c, 0, 69, 72
6, 24899, Note_on_c, 0, 75, 0
6, 24900, Note_on_c, 0, 75, 72
6, 24959, Note_on_c, 0, 69, 0
6, 24959, Note_on_c, 0, 75, 0
6, 24960, Note_on_c, 0, 75, 72
6, 25079, Note_on_c, 0, 75, 0
6, 25080, Note_on_c, 0, 74, 72
6, 25199, Note_on_c, 0, 74, 0
6, 25260, Note_on_c, 0, 67, 72
6, 25319, Note_on_c, 0, 67, 0
6, 25320, Note_on_c, 0, 63, 72
6, 25379, Note_on_c, 0, 63, 0
6, 25380, Note_on_c, 0, 65, 72
6, 25409, Note_on_c, 0, 65, 0
6, 25410, Note_on_c, 0, 67, 72
6, 25439, Note_on_c, 0, 67, 0
6, 25440, Note_on_c, 0, 60, 72
6, 25559, Note_on_c, 0, 60, 0
6, 25560, Note_on_c, 0, 65, 72
6, 25679, Note_on_c, 0, 65, 0
6, 25740, Note_on_c, 0, 72, 72
6, 25799, Note_on_c, 0, 72, 0
6, 25800, Note_on_c, 0, 72, 72
6, 25859, Note_on_c, 0, 72, 0
6, 25860, Note_on_c, 0, 72, 72
6, 25919, Note_on_c, 0, 72, 0
6, 25920, Note_on_c, 0, 72, 72
6, 25980, Note_on_c, 0, 77, 72
6, 26009, Note_on_c, 0, 72, 0
6, 26010, Note_on_c, 0, 71, 72
6, 26039, Note_on_c, 0, 71, 0
6, 26040, Note_on_c, 0, 71, 72
6, 26099, Note_on_c, 0, 77, 0
6, 26100, Note_on_c, 0, 77, 72
6, 26159, Note_on_c, 0, 71, 0
6, 26159, Note_on_c, 0, 77, 0
6, 26160, Note_on_c, 0, 77, 72
6, 26279, Note_on_c, 0, 77, 0
6, 26280, Note_on_c, 0, 75, 72
6, 26399, Note_on_c, 0, 75, 0
6, 26460, Note_on_c, 0, 68, 72
6, 26519, Note_on_c, 0, 68, 0
6, 26520, Note_on_c, 0, 65, 72
6, 26579, Note_on_c, 0, 65, 0
6, 26580, Note_on_c, 0, 67, 72
6, 26609, Note_on_c, 0, 67, 0
6, 26610, Note_on_c, 0, 68, 72
6, 26639, Note_on_c, 0, 68, 0
6, 26640, Note_on_c, 0, 62, 72
6, 26759, Note_on_c, 0, 62, 0
6, 26760, Note_on_c, 0, 67, 72
6, 26879, Note_on_c, 0, 67, 0
6, 26940, Note_on_c, 0, 74, 72
6, 27059, Note_on_c, 0, 74, 0
6, 27060, Note_on_c, 0, 74, 72
6, 27119, Note_on_c, 0, 74, 0
6, 27120, Note_on_c, 0, 74, 72
6, 27180, Note_on_c, 0, 76, 72
6, 27239, Note_on_c, 0, 74, 0
6, 27239, Note_on_c, 0, 76, 0
6, 27240, Note_on_c, 0, 73, 72
6, 27240, Note_on_c, 0, 73, 72
6, 27299, Note_on_c, 0, 73, 0
6, 27300, Note_on_c, 0, 74, 72
6, 27329, Note_on_c, 0, 74, 0
6, 27330, Note_on_c, 0, 76, 72
6, 27359, Note_on_c, 0, 73, 0
6, 27359, Note_on_c, 0, 76, 0
6, 27360, Note_on_c, 0, 69, 72
6, 27479, Note_on_c, 0, 69, 0
6, 27480, Note_on_c, 0, 74, 72
6, 27660, Note_on_c, 0, 67, 72
6, 27719, Note_on_c, 0, 74, 0
6, 27720, Note_on_c, 0, 72, 72
6, 27779, Note_on_c, 0, 67, 0
6, 27780, Note_on_c, 0, 69, 72
6, 27839, Note_on_c, 0, 69, 0
6, 27840, Note_on_c, 0, 65, 72
6, 27959, Note_on_c, 0, 72, 0
6, 27960, Note_on_c, 0, 70, 72
6, 28079, Note_on_c, 0, 65, 0
6, 28080, Note_on_c, 0, 63, 72
6, 28199, Note_on_c, 0, 70, 0
6, 28200, Note_on_c, 0, 69, 72
6, 28259, Note_on_c, 0, 69, 0
6, 28260, Note_on_c, 0, 75, 72
6, 28319, Note_on_c, 0, 63, 0
6, 28319, Note_on_c, 0, 75, 0
6, 28320, Note_on_c, 0, 74, 72
6, 28320, Note_on_c, 0, 57, 72
6, 28379, Note_on_c, 0, 74, 0
6, 28379, Note_on_c, 0, 57, 0
6, 28380, Note_on_c, 0, 66, 72
6, 28380, Note_on_c, 0, 62, 72
6, 28439, Note_on_c, 0, 66, 0
6, 28439, Note_on_c, 0, 62, 0
6, 28440, Note_on_c, 0, 67, 72
6, 28440, Note_on_c, 0, 62, 72
6, 28499, Note_on_c, 0, 67, 0
6, 28499, Note_on_c, 0, 62, 0
6, 28500, Note_on_c, 0, 74, 72
6, 28500, Note_on_c, 0, 70, 72
6, 28559, Note_on_c, 0, 74, 0
6, 28559, Note_on_c, 0, 70, 0
6, 28560, Note_on_c, 0, 74, 72
6, 28560, Note_on_c, 0, 70, 72
6, 28679, Note_on_c, 0, 74, 0
6, 28679, Note_on_c, 0, 70, 0
6, 28680, Note_on_c, 0, 73, 72
6, 28680, Note_on_c, 0, 69, 72
6, 28739, Note_on_c, 0, 69, 0
6, 28740, Note_on_c, 0, 67, 72
6, 28799, Note_on_c, 0, 73, 0
6, 28799, Note_on_c, 0, 67, 0
6, 28800, Note_on_c, 0, 74, 72
6, 28800, Note_on_c, 0, 66, 72
6, 28859, Note_on_c, 0, 74, 0
6, 28860, Note_on_c, 0, 74, 72
6, 28919, Note_on_c, 0, 66, 0
6, 28919, Note_on_c, 0, 74, 0
6, 28920, Note_on_c, 0, 74, 72
6, 28979, Note_on_c, 0, 74, 0
6, 28980, Note_on_c, 0, 74, 72
6, 29039, Note_on_c, 0, 74, 0
6, 29040, Note_on_c, 0, 74, 72
6, 29100, Note_on_c, 0, 67, 72
6, 29129, Note_on_c, 0, 74, 0
6, 29130, Note_on_c, 0, 75, 72
6, 29159, Note_on_c, 0, 67, 0
6, 29159, Note_on_c, 0, 75, 0
6, 29160, Note_on_c, 0, 75, 72
6, 29160, Note_on_c, 0, 67, 72
6, 29219, Note_on_c, 0, 67, 0
6, 29220, Note_on_c, 0, 67, 72
6, 29279, Note_on_c, 0, 75, 0
6, 29279, Note_on_c, 0, 67, 0
6, 29280, Note_on_c, 0, 67, 72
6, 29340, Note_on_c, 0, 72, 72
6, 29369, Note_on_c, 0, 67, 0
6, 29370, Note_on_c, 0, 69, 72
6, 29399, Note_on_c, 0, 69, 0
6, 29400, Note_on_c, 0, 69, 72
6, 29459, Note_on_c, 0, 72, 0
6, 29460, Note_on_c, 0, 72, 72
6, 29519, Note_on_c, 0, 69, 0
6, 29519, Note_on_c, 0, 72, 0
6, 29520, Note_on_c, 0, 72, 72
6, 29580, Note_on_c, 0, 66, 72
6, 29639, Note_on_c, 0, 72, 0
6, 29640, Note_on_c, 0, 74, 72
6, 29699, Note_on_c, 0, 66, 0
6, 29700, Note_on_c, 0, 66, 72
6, 29759, Note_on_c, 0, 74, 0
6, 29759, Note_on_c, 0, 66, 0
6, 29760, Note_on_c, 0, 66, 72
6, 29819, Note_on_c, 0, 66, 0
6, 29820, Note_on_c, 0, 67, 72
6, 29820, Note_on_c, 0, 70, 72
6, 29879, Note_on_c, 0, 67, 0
6, 29879, Note_on_c, 0, 70, 0
6, 29880, Note_on_c, 0, 67, 72
6, 29880, Note_on_c, 0, 70, 72
6, 29939, Note_on_c, 0, 70, 0
6, 29940, Note_on_c, 0, 70, 72
6, 29999, Note_on_c, 0, 67, 0
6, 29999, Note_on_c, 0, 70, 0
6, 30000, Note_on_c, 0, 70, 72
6, 30060, Note_on_c, 0, 64, 72
6, 30089, Note_on_c, 0, 70, 0
6, 30090, Note_on_c, 0, 72, 72
6, 30119, Note_on_c, 0, 64, 0
6, 30119, Note_on_c, 0, 72, 0
6, 30120, Note_on_c, 0, 64, 72
6, 30120, Note_on_c, 0, 72, 72
6, 30179, Note_on_c, 0, 64, 0
6, 30180, Note_on_c, 0, 64, 72
6, 30239, Note_on_c, 0, 72, 0
6, 30239, Note_on_c, 0, 64, 0
6, 30240, Note_on_c, 0, 64, 72
6, 30300, Note_on_c, 0, 69, 72
6, 30329, Note_on_c, 0, 64, 0
6, 30330, Note_on_c, 0, 66, 72
6, 30359, Note_on_c, 0, 66, 0
6, 30360, Note_on_c, 0, 66, 72
6, 30419, Note_on_c, 0, 69, 0
6, 30420, Note_on_c, 0, 69, 72
6, 30479, Note_on_c, 0, 66, 0
6, 30479, Note_on_c, 0, 69, 0
6, 30480, Note_on_c, 0, 69, 72
6, 30539, Note_on_c, 0, 69, 0
6, 30540, Note_on_c, 0, 70, 72
6, 30540, Note_on_c, 0, 67, 72
6, 30599, Note_on_c, 0, 70, 0
6, 30600, Note_on_c, 0, 70, 72
6, 30659, Note_on_c, 0, 67, 0
6, 30660, Note_on_c, 0, 67, 72
6, 30719, Note_on_c, 0, 70, 0
6, 30719, Note_on_c, 0, 67, 0
6, 30720, Note_on_c, 0, 70, 72
6, 30779, Note_on_c, 0, 70, 0
6, 30780, Note_on_c, 0, 67, 72
6, 30839, Note_on_c, 0, 67, 0
6, 30840, Note_on_c, 0, 67, 72
6, 30840, Note_on_c, 0, 76, 48
6, 30959, Note_on_c, 0, 67, 0
6, 30959, Note_on_c, 0, 76, 0
6, 30960, Note_on_c, 0, 67, 48
6, 31080, Note_on_c, 0, 64, 48
6, 31199, Note_on_c, 0, 67, 0
6, 31199, Note_on_c, 0, 64, 0
6, 31200, Note_on_c, 0, 66, 48
6, 31200, Note_on_c, 0, 62, 48
6, 31319, Note_on_c, 0, 66, 0
6, 31319, Note_on_c, 0, 62, 0
6, 31320, Note_on_c, 0, 61, 48
6, 31320, Note_on_c, 0, 67, 48
6, 31439, Note_on_c, 0, 61, 0
6, 31440, Note_on_c, 0, 62, 48
6, 31559, Note_on_c, 0, 67, 0
6, 31560, Note_on_c, 0, 66, 48
6, 31679, Note_on_c, 0, 62, 0
6, 31679, Note_on_c, 0, 66, 0
6, 31680, Note_on_c, 0, 67, 48
6, 31680, Note_on_c, 0, 62, 48
6, 31799, Note_on_c, 0, 67, 0
6, 31799, Note_on_c, 0, 62, 0
6, 33900, Note_on_c, 0, 75, 72
6, 33900, Note_on_c, 0, 67, 72
6, 33959, Note_on_c, 0, 75, 0
6, 33959, Note_on_c, 0, 67, 0
6, 33960, Note_on_c, 0, 79, 72
6, 33960, Note_on_c, 0, 70, 72
6, 34019, Note_on_c, 0, 79, 0
6, 34019, Note_on_c, 0, 70, 0
6, 34020, Note_on_c, 0, 75, 72
6, 34020, Note_on_c, 0, 67, 72
6, 34079, Note_on_c, 0, 75, 0
6, 34079, Note_on_c, 0, 67, 0
6, 34080, Note_on_c, 0, 75, 72
6, 34080, Note_on_c, 0, 69, 72
6, 34169, Note_on_c, 0, 75, 0
6, 34169, Note_on_c, 0, 69, 0
6, 34170, Note_on_c, 0, 74, 72
6, 34170, Note_on_c, 0, 69, 72
6, 34199, Note_on_c, 0, 74, 0
6, 34199, Note_on_c, 0, 69, 0
6, 34200, Note_on_c, 0, 74, 72
6, 34200, Note_on_c, 0, 69, 72
6, 34319, Note_on_c, 0, 74, 0
6, 34319, Note_on_c, 0, 69, 0
6, 34380, Note_on_c, 0, 74, 72
6, 34380, Note_on_c, 0, 65, 72
6, 34439, Note_on_c, 0, 74, 0
6, 34439, Note_on_c, 0, 65, 0
6, 34440, Note_on_c, 0, 77, 72
6, 34440, Note_on_c, 0, 69, 72
6, 34499, Note_on_c, 0, 77, 0
6, 34499, Note_on_c, 0, 69, 0
6, 34500, Note_on_c, 0, 74, 72
6, 34500, Note_on_c, 0, 65, 72
6, 34559, Note_on_c, 0, 74, 0
6, 34559, Note_on_c, 0, 65, 0
6, 34560, Note_on_c, 0, 74, 72
6, 34560, Note_on_c, 0, 67, 72
6, 34649, Note_on_c, 0, 74, 0
6, 34650, Note_on_c, 0, 72, 72
6, 34679, Note_on_c, 0, 67, 0
6, 34679, Note_on_c, 0, 72, 0
6, 34680, Note_on_c, 0, 67, 72
6, 34680, Note_on_c, 0, 72, 72
6, 34799, Note_on_c, 0, 67, 0
6, 34799, Note_on_c, 0, 72, 0
6, 34860, Note_on_c, 0, 72, 72
6, 34860, Note_on_c, 0, 67, 72
6, 34919, Note_on_c, 0, 72, 0
6, 34919, Note_on_c, 0, 67, 0
6, 34920, Note_on_c, 0, 72, 72
6, 34920, Note_on_c, 0, 67, 72
6, 34979, Note_on_c, 0, 72, 0
6, 34979, Note_on_c, 0, 67, 0
6, 34980, Note_on_c, 0, 72, 72
6, 34980, Note_on_c, 0, 67, 72
6, 35039, Note_on_c, 0, 72, 0
6, 35039, Note_on_c, 0, 67, 0
6, 35040, Note_on_c, 0, 72, 72
6, 35040, Note_on_c, 0, 66, 72
6, 35099, Note_on_c, 0, 72, 0
6, 35099, Note_on_c, 0, 66, 0
6, 35100, Note_on_c, 0, 74, 72
6, 35100, Note_on_c, 0, 69, 72
6, 35159, Note_on_c, 0, 74, 0
6, 35159, Note_on_c, 0, 69, 0
6, 35160, Note_on_c, 0, 70, 72
6, 35160, Note_on_c, 0, 67, 72
6, 35219, Note_on_c, 0, 70, 0
6, 35219, Note_on_c, 0, 67, 0
6, 35220, Note_on_c, 0, 72, 72
6, 35220, Note_on_c, 0, 70, 72
6, 35279, Note_on_c, 0, 72, 0
6, 35279, Note_on_c, 0, 70, 0
6, 35280, Note_on_c, 0, 70, 72
6, 35280, Note_on_c, 0, 67, 72
6, 35399, Note_on_c, 0, 70, 0
6, 35399, Note_on_c, 0, 67, 0
6, 35400, Note_on_c, 0, 69, 72
6, 35400, Note_on_c, 0, 66, 72
6, 35519, Note_on_c, 0, 69, 0
6, 35519, Note_on_c, 0, 66, 0
6, 35520, Note_on_c, 0, 67, 72
6, 37439, Note_on_c, 0, 67, 0
6, 37439, End_track
7, 0, Start_track
7, 0, Title_t, "Bassoon"
7, 0, MIDI_port, 0
7, 0, Program_c, 1, 70
7, 0, Control_c, 1, 7, 96
7, 0, Control_c, 1, 10, 65
7, 0, Control_c, 1, 11, 80
7, 780, Control_c, 1, 11, 90
7, 780, Note_on_c, 1, 55, 72
7, 839, Note_on_c, 1, 55, 0
7, 840, Note_on_c, 1, 58, 72
7, 840, Control_c, 1, 11, 100
7, 899, Note_on_c, 1, 58, 0
7, 900, Note_on_c, 1, 55, 72
7, 900, Control_c, 1, 11, 112
7, 959, Note_on_c, 1, 55, 0
7, 960, Control_c, 1, 11, 127
7, 960, Note_on_c, 1, 51, 72
7, 989, Note_on_c, 1, 51, 0
7, 990, Note_on_c, 1, 53, 72
7, 1019, Note_on_c, 1, 53, 0
7, 1020, Note_on_c, 1, 55, 72
7, 1049, Note_on_c, 1, 55, 0
7, 1050, Note_on_c, 1, 57, 72
7, 1079, Note_on_c, 1, 57, 0
7, 1080, Note_on_c, 1, 58, 72
7, 1109, Note_on_c, 1, 58, 0
7, 1110, Note_on_c, 1, 53, 72
7, 1139, Note_on_c, 1, 53, 0
7, 1140, Note_on_c, 1, 50, 72
7, 1169, Note_on_c, 1, 50, 0
7, 1170, Note_on_c, 1, 46, 72
7, 1199, Note_on_c, 1, 46, 0
7, 1200, Note_on_c, 1, 48, 72
7, 1229, Note_on_c, 1, 48, 0
7, 1230, Note_on_c, 1, 50, 72
7, 1259, Note_on_c, 1, 50, 0
7, 1260, Note_on_c, 1, 51, 72
7, 1289, Note_on_c, 1, 51, 0
7, 1290, Note_on_c, 1, 53, 72
7, 1319, Note_on_c, 1, 53, 0
7, 1320, Note_on_c, 1, 55, 72
7, 1349, Note_on_c, 1, 55, 0
7, 1350, Note_on_c, 1, 50, 72
7, 1379, Note_on_c, 1, 50, 0
7, 1380, Note_on_c, 1, 46, 72
7, 1409, Note_on_c, 1, 46, 0
7, 1410, Note_on_c, 1, 43, 72
7, 1439, Note_on_c, 1, 43, 0
7, 7620, Note_on_c, 1, 56, 72
7, 7679, Note_on_c, 1, 56, 0
7, 7680, Note_on_c, 1, 54, 72
7, 7799, Note_on_c, 1, 54, 0
7, 7800, Note_on_c, 1, 53, 72
7, 7859, Note_on_c, 1, 53, 0
7, 7860, Note_on_c, 1, 53, 72
7, 7919, Note_on_c, 1, 53, 0
7, 7920, Note_on_c, 1, 52, 72
7, 8039, Note_on_c, 1, 52, 0
7, 8040, Note_on_c, 1, 53, 72
7, 8099, Note_on_c, 1, 53, 0
7, 9060, Note_on_c, 1, 58, 72
7, 9119, Note_on_c, 1, 58, 0
7, 9120, Note_on_c, 1, 56, 72
7, 9239, Note_on_c, 1, 56, 0
7, 9240, Note_on_c, 1, 55, 72
7, 9299, Note_on_c, 1, 55, 0
7, 9300, Note_on_c, 1, 55, 72
7, 9359, Note_on_c, 1, 55, 0
7, 9360, Note_on_c, 1, 54, 72
7, 9479, Note_on_c, 1, 54, 0
7, 9480, Note_on_c, 1, 55, 72
7, 9539, Note_on_c, 1, 55, 0
7, 9600, Note_on_c, 1, 62, 72
7, 9600, Note_on_c, 1, 43, 72
7, 9629, Note_on_c, 1, 43, 0
7, 9630, Note_on_c, 1, 47, 72
7, 9659, Note_on_c, 1, 47, 0
7, 9660, Note_on_c, 1, 50, 72
7, 9689, Note_on_c, 1, 50, 0
7, 9690, Note_on_c, 1, 55, 72
7, 9719, Note_on_c, 1, 62, 0
7, 9719, Note_on_c, 1, 55, 0
7, 9720, Note_on_c, 1, 63, 72
7, 9720, Note_on_c, 1, 51, 72
7, 9749, Note_on_c, 1, 51, 0
7, 9750, Note_on_c, 1, 55, 72
7, 9779, Note_on_c, 1, 55, 0
7, 9780, Note_on_c, 1, 48, 72
7, 9809, Note_on_c, 1, 48, 0
7, 9810, Note_on_c, 1, 51, 72
7, 9839, Note_on_c, 1, 63, 0
7, 9839, Note_on_c, 1, 51, 0
7, 9840, Note_on_c, 1, 60, 72
7, 9840, Note_on_c, 1, 53, 72
7, 9869, Note_on_c, 1, 53, 0
7, 9870, Note_on_c, 1, 56, 72
7, 9899, Note_on_c, 1, 56, 0
7, 9900, Note_on_c, 1, 51, 72
7, 9929, Note_on_c, 1, 51, 0
7, 9930, Note_on_c, 1, 60, 72
7, 9959, Note_on_c, 1, 60, 0
7, 9959, Note_on_c, 1, 60, 0
7, 9960, Note_on_c, 1, 62, 72
7, 9960, Note_on_c, 1, 50, 72
7, 9989, Note_on_c, 1, 50, 0
7, 9990, Note_on_c, 1, 53, 72
7, 10019, Note_on_c, 1, 53, 0
7, 10020, Note_on_c, 1, 46, 72
7, 10049, Note_on_c, 1, 46, 0
7, 10050, Note_on_c, 1, 50, 72
7, 10079, Note_on_c, 1, 62, 0
7, 10079, Note_on_c, 1, 50, 0
7, 10080, Note_on_c, 1, 58, 72
7, 10080, Note_on_c, 1, 51, 72
7, 10109, Note_on_c, 1, 51, 0
7, 10110, Note_on_c, 1, 55, 72
7, 10139, Note_on_c, 1, 55, 0
7, 10140, Note_on_c, 1, 50, 72
7, 10169, Note_on_c, 1, 50, 0
7, 10170, Note_on_c, 1, 58, 72
7, 10199, Note_on_c, 1, 58, 0
7, 10199, Note_on_c, 1, 58, 0
7, 10200, Note_on_c, 1, 63, 72
7, 10200, Note_on_c, 1, 48, 72
7, 10229, Note_on_c, 1, 48, 0
7, 10230, Note_on_c, 1, 51, 72
7, 10259, Note_on_c, 1, 51, 0
7, 10260, Note_on_c, 1, 45, 72
7, 10289, Note_on_c, 1, 45, 0
7, 10290, Note_on_c, 1, 48, 72
7, 10319, Note_on_c, 1, 63, 0
7, 10319, Note_on_c, 1, 48, 0
7, 10320, Note_on_c, 1, 62, 72
7, 10320, Note_on_c, 1, 50, 72
7, 10349, Note_on_c, 1, 50, 0
7, 10350, Note_on_c, 1, 53, 72
7, 10379, Note_on_c, 1, 53, 0
7, 10380, Note_on_c, 1, 48, 72
7, 10409, Note_on_c, 1, 48, 0
7, 10410, Note_on_c, 1, 56, 72
7, 10439, Note_on_c, 1, 62, 0
7, 10439, Note_on_c, 1, 56, 0
7, 10440, Note_on_c, 1, 62, 72
7, 10440, Note_on_c, 1, 47, 72
7, 10469, Note_on_c, 1, 47, 0
7, 10470, Note_on_c, 1, 50, 72
7, 10499, Note_on_c, 1, 50, 0
7, 10500, Note_on_c, 1, 43, 72
7, 10529, Note_on_c, 1, 43, 0
7, 10530, Note_on_c, 1, 47, 72
7, 10559, Note_on_c, 1, 62, 0
7, 10559, Note_on_c, 1, 47, 0
7, 10560, Note_on_c, 1, 60, 72
7, 10560, Note_on_c, 1, 48, 72
7, 10589, Note_on_c, 1, 48, 0
7, 10590, Note_on_c, 1, 51, 72
7, 10619, Note_on_c, 1, 51, 0
7, 10620, Note_on_c, 1, 55, 72
7, 10649, Note_on_c, 1, 55, 0
7, 10650, Note_on_c, 1, 53, 72
7, 10679, Note_on_c, 1, 53, 0
7, 10680, Note_on_c, 1, 52, 72
7, 10709, Note_on_c, 1, 52, 0
7, 10710, Note_on_c, 1, 55, 72
7, 10739, Note_on_c, 1, 55, 0
7, 10740, Note_on_c, 1, 48, 72
7, 10769, Note_on_c, 1, 48, 0
7, 10770, Note_on_c, 1, 52, 72
7, 10799, Note_on_c, 1, 60, 0
7, 10799, Note_on_c, 1, 52, 0
7, 10800, Note_on_c, 1, 65, 72
7, 10800, Note_on_c, 1, 53, 72
7, 10829, Note_on_c, 1, 53, 0
7, 10830, Note_on_c, 1, 57, 72
7, 10859, Note_on_c, 1, 57, 0
7, 10860, Note_on_c, 1, 50, 72
7, 10889, Note_on_c, 1, 50, 0
7, 10890, Note_on_c, 1, 53, 72
7, 10919, Note_on_c, 1, 65, 0
7, 10919, Note_on_c, 1, 53, 0
7, 10920, Note_on_c, 1, 62, 72
7, 10920, Note_on_c, 1, 55, 72
7, 10949, Note_on_c, 1, 55, 0
7, 10950, Note_on_c, 1, 58, 72
7, 10979, Note_on_c, 1, 58, 0
7, 10980, Note_on_c, 1, 53, 72
7, 11009, Note_on_c, 1, 53, 0
7, 11010, Note_on_c, 1, 62, 72
7, 11039, Note_on_c, 1, 62, 0
7, 11039, Note_on_c, 1, 62, 0
7, 11040, Note_on_c, 1, 60, 72
7, 11040, Note_on_c, 1, 52, 72
7, 11069, Note_on_c, 1, 52, 0
7, 11070, Note_on_c, 1, 55, 72
7, 11099, Note_on_c, 1, 55, 0
7, 11100, Note_on_c, 1, 48, 72
7, 11129, Note_on_c, 1, 48, 0
7, 11130, Note_on_c, 1, 52, 72
7, 11159, Note_on_c, 1, 52, 0
7, 11160, Note_on_c, 1, 53, 72
7, 11189, Note_on_c, 1, 53, 0
7, 11190, Note_on_c, 1, 57, 72
7, 11219, Note_on_c, 1, 57, 0
7, 11220, Note_on_c, 1, 51, 72
7, 11249, Note_on_c, 1, 51, 0
7, 11250, Note_on_c, 1, 60, 72
7, 11279, Note_on_c, 1, 60, 0
7, 11279, Note_on_c, 1, 60, 0
7, 11280, Note_on_c, 1, 58, 72
7, 11280, Note_on_c, 1, 50, 72
7, 11309, Note_on_c, 1, 50, 0
7, 11310, Note_on_c, 1, 53, 72
7, 11339, Note_on_c, 1, 53, 0
7, 11340, Note_on_c, 1, 46, 72
7, 11369, Note_on_c, 1, 46, 0
7, 11370, Note_on_c, 1, 50, 72
7, 11399, Note_on_c, 1, 50, 0
7, 11400, Note_on_c, 1, 51, 72
7, 11429, Note_on_c, 1, 51, 0
7, 11430, Note_on_c, 1, 55, 72
7, 11459, Note_on_c, 1, 55, 0
7, 11460, Note_on_c, 1, 48, 72
7, 11489, Note_on_c, 1, 48, 0
7, 11490, Note_on_c, 1, 51, 72
7, 11519, Note_on_c, 1, 58, 0
7, 11519, Note_on_c, 1, 51, 0
7, 11520, Note_on_c, 1, 57, 72
7, 11520, Note_on_c, 1, 53, 72
7, 11549, Note_on_c, 1, 53, 0
7, 11550, Note_on_c, 1, 57, 72
7, 11579, Note_on_c, 1, 57, 0
7, 11580, Note_on_c, 1, 62, 72
7, 11609, Note_on_c, 1, 62, 0
7, 11610, Note_on_c, 1, 60, 72
7, 11639, Note_on_c, 1, 57, 0
7, 11639, Note_on_c, 1, 60, 0
7, 11640, Note_on_c, 1, 65, 72
7, 11640, Note_on_c, 1, 58, 72
7, 11669, Note_on_c, 1, 58, 0
7, 11670, Note_on_c, 1, 62, 72
7, 11699, Note_on_c, 1, 62, 0
7, 11700, Note_on_c, 1, 57, 72
7, 11729, Note_on_c, 1, 57, 0
7, 11730, Note_on_c, 1, 65, 72
7, 11759, Note_on_c, 1, 65, 0
7, 11759, Note_on_c, 1, 65, 0
7, 11760, Note_on_c, 1, 58, 72
7, 11760, Note_on_c, 1, 55, 72
7, 11789, Note_on_c, 1, 55, 0
7, 11790, Note_on_c, 1, 58, 72
7, 11819, Note_on_c, 1, 58, 0
7, 11820, Note_on_c, 1, 53, 72
7, 11849, Note_on_c, 1, 53, 0
7, 11850, Note_on_c, 1, 62, 72
7, 11879, Note_on_c, 1, 58, 0
7, 11879, Note_on_c, 1, 62, 0
7, 11880, Note_on_c, 1, 61, 72
7, 11880, Note_on_c, 1, 52, 72
7, 11909, Note_on_c, 1, 52, 0
7, 11910, Note_on_c, 1, 55, 72
7, 11939, Note_on_c, 1, 61, 0
7, 11939, Note_on_c, 1, 55, 0
7, 11940, Note_on_c, 1, 62, 72
7, 11940, Note_on_c, 1, 50, 72
7, 11969, Note_on_c, 1, 50, 0
7, 11970, Note_on_c, 1, 58, 72
7, 11999, Note_on_c, 1, 62, 0
7, 11999, Note_on_c, 1, 58, 0
7, 12000, Note_on_c, 1, 57, 72
7, 12000, Note_on_c, 1, 49, 72
7, 12029, Note_on_c, 1, 49, 0
7, 12030, Note_on_c, 1, 52, 72
7, 12059, Note_on_c, 1, 52, 0
7, 12060, Note_on_c, 1, 45, 72
7, 12089, Note_on_c, 1, 45, 0
7, 12090, Note_on_c, 1, 49, 72
7, 12119, Note_on_c, 1, 49, 0
7, 12120, Note_on_c, 1, 50, 72
7, 12149, Note_on_c, 1, 50, 0
7, 12150, Note_on_c, 1, 53, 72
7, 12179, Note_on_c, 1, 53, 0
7, 12180, Note_on_c, 1, 48, 72
7, 12209, Note_on_c, 1, 48, 0
7, 12210, Note_on_c, 1, 57, 72
7, 12239, Note_on_c, 1, 57, 0
7, 12239, Note_on_c, 1, 57, 0
7, 12240, Note_on_c, 1, 55, 72
7, 12240, Note_on_c, 1, 47, 72
7, 12269, Note_on_c, 1, 47, 0
7, 12270, Note_on_c, 1, 50, 72
7, 12299, Note_on_c, 1, 50, 0
7, 12300, Note_on_c, 1, 43, 72
7, 12329, Note_on_c, 1, 43, 0
7, 12330, Note_on_c, 1, 47, 72
7, 12359, Note_on_c, 1, 47, 0
7, 12360, Note_on_c, 1, 49, 72
7, 12389, Note_on_c, 1, 49, 0
7, 12390, Note_on_c, 1, 52, 72
7, 12419, Note_on_c, 1, 52, 0
7, 12420, Note_on_c, 1, 45, 72
7, 12449, Note_on_c, 1, 45, 0
7, 12450, Note_on_c, 1, 49, 72
7, 12479, Note_on_c, 1, 55, 0
7, 12479, Note_on_c, 1, 49, 0
7, 12480, Note_on_c, 1, 53, 72
7, 12480, Note_on_c, 1, 50, 72
7, 12509, Note_on_c, 1, 50, 0
7, 12510, Note_on_c, 1, 53, 72
7, 12539, Note_on_c, 1, 53, 0
7, 12540, Note_on_c, 1, 57, 72
7, 12569, Note_on_c, 1, 57, 0
7, 12570, Note_on_c, 1, 61, 72
7, 12599, Note_on_c, 1, 53, 0
7, 12599, Note_on_c, 1, 61, 0
7, 12600, Note_on_c, 1, 65, 72
7, 12600, Note_on_c, 1, 62, 72
7, 12629, Note_on_c, 1, 62, 0
7, 12630, Note_on_c, 1, 57, 72
7, 12659, Note_on_c, 1, 57, 0
7, 12660, Note_on_c, 1, 53, 72
7, 12689, Note_on_c, 1, 53, 0
7, 12690, Note_on_c, 1, 50, 72
7, 12719, Note_on_c, 1, 65, 0
7, 12719, Note_on_c, 1, 50, 0
7, 12720, Note_on_c, 1, 63, 72
7, 12720, Note_on_c, 1, 51, 72
7, 12749, Note_on_c, 1, 51, 0
7, 12750, Note_on_c, 1, 55, 72
7, 12779, Note_on_c, 1, 55, 0
7, 12780, Note_on_c, 1, 58, 72
7, 12809, Note_on_c, 1, 58, 0
7, 12810, Note_on_c, 1, 62, 72
7, 12839, Note_on_c, 1, 62, 0
7, 12840, Note_on_c, 1, 60, 72
7, 12869, Note_on_c, 1, 60, 0
7, 12870, Note_on_c, 1, 55, 72
7, 12899, Note_on_c, 1, 55, 0
7, 12900, Note_on_c, 1, 51, 72
7, 12929, Note_on_c, 1, 51, 0
7, 12930, Note_on_c, 1, 48, 72
7, 12959, Note_on_c, 1, 63, 0
7, 12959, Note_on_c, 1, 48, 0
7, 12960, Note_on_c, 1, 62, 72
7, 12960, Note_on_c, 1, 50, 72
7, 12989, Note_on_c, 1, 50, 0
7, 12990, Note_on_c, 1, 53, 72
7, 13019, Note_on_c, 1, 53, 0
7, 13020, Note_on_c, 1, 57, 72
7, 13049, Note_on_c, 1, 57, 0
7, 13050, Note_on_c, 1, 60, 72
7, 13079, Note_on_c, 1, 60, 0
7, 13080, Note_on_c, 1, 58, 72
7, 13109, Note_on_c, 1, 58, 0
7, 13110, Note_on_c, 1, 53, 72
7, 13139, Note_on_c, 1, 53, 0
7, 13140, Note_on_c, 1, 50, 72
7, 13169, Note_on_c, 1, 50, 0
7, 13170, Note_on_c, 1, 46, 72
7, 13199, Note_on_c, 1, 62, 0
7, 13199, Note_on_c, 1, 46, 0
7, 13200, Note_on_c, 1, 60, 72
7, 13200, Note_on_c, 1, 48, 72
7, 13229, Note_on_c, 1, 48, 0
7, 13230, Note_on_c, 1, 51, 72
7, 13259, Note_on_c, 1, 51, 0
7, 13260, Note_on_c, 1, 55, 72
7, 13289, Note_on_c, 1, 55, 0
7, 13290, Note_on_c, 1, 58, 72
7, 13319, Note_on_c, 1, 58, 0
7, 13320, Note_on_c, 1, 57, 72
7, 13349, Note_on_c, 1, 57, 0
7, 13350, Note_on_c, 1, 54, 72
7, 13379, Note_on_c, 1, 54, 0
7, 13380, Note_on_c, 1, 51, 72
7, 13409, Note_on_c, 1, 51, 0
7, 13410, Note_on_c, 1, 48, 72
7, 13439, Note_on_c, 1, 60, 0
7, 13439, Note_on_c, 1, 48, 0
7, 13440, Note_on_c, 1, 58, 72
7, 13440, Note_on_c, 1, 46, 72
7, 13469, Note_on_c, 1, 46, 0
7, 13470, Note_on_c, 1, 43, 72
7, 13499, Note_on_c, 1, 43, 0
7, 13500, Note_on_c, 1, 46, 72
7, 13529, Note_on_c, 1, 46, 0
7, 13530, Note_on_c, 1, 48, 72
7, 13559, Note_on_c, 1, 58, 0
7, 13559, Note_on_c, 1, 48, 0
7, 13560, Note_on_c, 1, 57, 72
7, 13560, Note_on_c, 1, 50, 72
7, 13589, Note_on_c, 1, 50, 0
7, 13590, Note_on_c, 1, 52, 72
7, 13619, Note_on_c, 1, 52, 0
7, 13620, Note_on_c, 1, 54, 72
7, 13649, Note_on_c, 1, 54, 0
7, 13650, Note_on_c, 1, 50, 72
7, 13679, Note_on_c, 1, 57, 0
7, 13679, Note_on_c, 1, 50, 0
7, 13680, Note_on_c, 1, 55, 72
7, 13680, Note_on_c, 1, 55, 72
7, 13709, Note_on_c, 1, 55, 0
7, 13710, Note_on_c, 1, 57, 72
7, 13739, Note_on_c, 1, 57, 0
7, 13740, Note_on_c, 1, 58, 72
7, 13769, Note_on_c, 1, 58, 0
7, 13770, Note_on_c, 1, 60, 72
7, 13799, Note_on_c, 1, 55, 0
7, 13799, Note_on_c, 1, 60, 0
7, 13800, Note_on_c, 1, 62, 72
7, 13800, Note_on_c, 1, 62, 72
7, 13829, Note_on_c, 1, 62, 0
7, 13830, Note_on_c, 1, 64, 72
7, 13859, Note_on_c, 1, 64, 0
7, 13860, Note_on_c, 1, 66, 72
7, 13889, Note_on_c, 1, 66, 0
7, 13890, Note_on_c, 1, 62, 72
7, 13919, Note_on_c, 1, 62, 0
7, 13919, Note_on_c, 1, 62, 0
7, 13920, Note_on_c, 1, 62, 72
7, 13920, Note_on_c, 1, 67, 72
7, 13949, Note_on_c, 1, 67, 0
7, 13950, Note_on_c, 1, 62, 72
7, 13979, Note_on_c, 1, 62, 0
7, 13980, Note_on_c, 1, 58, 72
7, 14009, Note_on_c, 1, 58, 0
7, 14010, Note_on_c, 1, 55, 72
7, 14039, Note_on_c, 1, 62, 0
7, 14039, Note_on_c, 1, 55, 0
7, 14040, Note_on_c, 1, 62, 72
7, 14040, Note_on_c, 1, 62, 72
7, 14099, Note_on_c, 1, 62, 0
7, 14100, Note_on_c, 1, 50, 72
7, 14159, Note_on_c, 1, 62, 0
7, 14159, Note_on_c, 1, 50, 0
7, 20700, Note_on_c, 1, 55, 72
7, 20759, Note_on_c, 1, 55, 0
7, 20760, Note_on_c, 1, 55, 72
7, 20819, Note_on_c, 1, 55, 0
7, 20820, Note_on_c, 1, 55, 72
7, 20879, Note_on_c, 1, 55, 0
7, 20880, Note_on_c, 1, 55, 72
7, 20969, Note_on_c, 1, 55, 0
7, 20970, Note_on_c, 1, 54, 72
7, 20999, Note_on_c, 1, 54, 0
7, 21000, Note_on_c, 1, 54, 72
7, 21119, Note_on_c, 1, 54, 0
7, 21180, Note_on_c, 1, 60, 72
7, 21299, Note_on_c, 1, 60, 0
7, 21300, Note_on_c, 1, 60, 72
7, 21359, Note_on_c, 1, 60, 0
7, 21360, Note_on_c, 1, 60, 72
7, 21420, Note_on_c, 1, 62, 72
7, 21479, Note_on_c, 1, 60, 0
7, 21479, Note_on_c, 1, 62, 0
7, 21480, Note_on_c, 1, 58, 72
7, 21480, Note_on_c, 1, 62, 72
7, 21539, Note_on_c, 1, 62, 0
7, 21540, Note_on_c, 1, 62, 72
7, 21599, Note_on_c, 1, 58, 0
7, 21599, Note_on_c, 1, 62, 0
7, 21600, Note_on_c, 1, 62, 72
7, 21660, Note_on_c, 1, 58, 72
7, 21689, Note_on_c, 1, 62, 0
7, 21690, Note_on_c, 1, 61, 72
7, 21719, Note_on_c, 1, 58, 0
7, 21719, Note_on_c, 1, 61, 0
7, 21720, Note_on_c, 1, 61, 72
7, 21720, Note_on_c, 1, 55, 72
7, 21779, Note_on_c, 1, 55, 0
7, 21780, Note_on_c, 1, 57, 72
7, 21809, Note_on_c, 1, 57, 0
7, 21810, Note_on_c, 1, 58, 72
7, 21839, Note_on_c, 1, 61, 0
7, 21839, Note_on_c, 1, 58, 0
7, 21840, Note_on_c, 1, 52, 72
7, 21900, Note_on_c, 1, 67, 72
7, 21959, Note_on_c, 1, 52, 0
7, 21960, Note_on_c, 1, 57, 72
7, 22019, Note_on_c, 1, 67, 0
7, 22020, Note_on_c, 1, 67, 72
7, 22079, Note_on_c, 1, 57, 0
7, 22079, Note_on_c, 1, 67, 0
7, 22080, Note_on_c, 1, 67, 72
7, 22140, Note_on_c, 1, 60, 72
7, 22199, Note_on_c, 1, 67, 0
7, 22199, Note_on_c, 1, 60, 0
7, 22200, Note_on_c, 1, 66, 72
7, 22200, Note_on_c, 1, 60, 72
7, 22259, Note_on_c, 1, 60, 0
7, 22260, Note_on_c, 1, 60, 72
7, 22319, Note_on_c, 1, 66, 0
7, 22319, Note_on_c, 1, 60, 0
7, 22320, Note_on_c, 1, 60, 72
7, 22380, Note_on_c, 1, 65, 72
7, 22409, Note_on_c, 1, 60, 0
7, 22410, Note_on_c, 1, 59, 72
7, 22439, Note_on_c, 1, 65, 0
7, 22439, Note_on_c, 1, 59, 0
7, 22440, Note_on_c, 1, 65, 72
7, 22440, Note_on_c, 1, 59, 72
7, 22499, Note_on_c, 1, 65, 0
7, 22500, Note_on_c, 1, 65, 72
7, 22559, Note_on_c, 1, 59, 0
7, 22559, Note_on_c, 1, 65, 0
7, 22560, Note_on_c, 1, 65, 72
7, 22620, Note_on_c, 1, 60, 72
7, 22649, Note_on_c, 1, 65, 0
7, 22650, Note_on_c, 1, 63, 72
7, 22679, Note_on_c, 1, 63, 0
7, 22680, Note_on_c, 1, 63, 72
7, 22739, Note_on_c, 1, 60, 0
7, 22740, Note_on_c, 1, 63, 72
7, 22799, Note_on_c, 1, 63, 0
7, 22799, Note_on_c, 1, 63, 0
7, 22800, Note_on_c, 1, 60, 72
7, 22860, Note_on_c, 1, 63, 72
7, 22919, Note_on_c, 1, 60, 0
7, 22919, Note_on_c, 1, 63, 0
7, 22920, Note_on_c, 1, 57, 72
7, 22920, Note_on_c, 1, 60, 72
7, 22979, Note_on_c, 1, 60, 0
7, 22980, Note_on_c, 1, 62, 72
7, 23009, Note_on_c, 1, 62, 0
7, 23010, Note_on_c, 1, 63, 72
7, 23039, Note_on_c, 1, 57, 0
7, 23039, Note_on_c, 1, 63, 0
7, 23040, Note_on_c, 1, 57, 72
7, 23040, Note_on_c, 1, 54, 72
7, 23159, Note_on_c, 1, 57, 0
7, 23159, Note_on_c, 1, 54, 0
7, 23160, Note_on_c, 1, 62, 72
7, 23160, Note_on_c, 1, 50, 72
7, 23279, Note_on_c, 1, 62, 0
7, 23279, Note_on_c, 1, 50, 0
7, 23280, Note_on_c, 1, 55, 72
7, 23340, Note_on_c, 1, 55, 72
7, 23399, Note_on_c, 1, 55, 0
7, 23459, Note_on_c, 1, 55, 0
7, 23460, Note_on_c, 1, 67, 72
7, 23519, Note_on_c, 1, 67, 0
7, 23520, Note_on_c, 1, 67, 72
7, 23639, Note_on_c, 1, 67, 0
7, 23640, Note_on_c, 1, 64, 72
7, 23759, Note_on_c, 1, 64, 0
7, 23760, Note_on_c, 1, 61, 72
7, 23879, Note_on_c, 1, 61, 0
7, 23880, Note_on_c, 1, 57, 72
7, 23999, Note_on_c, 1, 57, 0
7, 24000, Note_on_c, 1, 50, 72
7, 24059, Note_on_c, 1, 50, 0
7, 24060, Note_on_c, 1, 62, 72
7, 24089, Note_on_c, 1, 62, 0
7, 24090, Note_on_c, 1, 61, 72
7, 24119, Note_on_c, 1, 61, 0
7, 24120, Note_on_c, 1, 62, 72
7, 24179, Note_on_c, 1, 62, 0
7, 24180, Note_on_c, 1, 66, 72
7, 24239, Note_on_c, 1, 66, 0
7, 24240, Note_on_c, 1, 43, 72
7, 24299, Note_on_c, 1, 43, 0
7, 24300, Note_on_c, 1, 55, 72
7, 24329, Note_on_c, 1, 55, 0
7, 24330, Note_on_c, 1, 54, 72
7, 24359, Note_on_c, 1, 54, 0
7, 24360, Note_on_c, 1, 55, 72
7, 24419, Note_on_c, 1, 55, 0
7, 24420, Note_on_c, 1, 59, 72
7, 24479, Note_on_c, 1, 59, 0
7, 24480, Note_on_c, 1, 48, 72
7, 24539, Note_on_c, 1, 48, 0
7, 24540, Note_on_c, 1, 60, 72
7, 24569, Note_on_c, 1, 60, 0
7, 24570, Note_on_c, 1, 59, 72
7, 24599, Note_on_c, 1, 59, 0
7, 24600, Note_on_c, 1, 60, 72
7, 24659, Note_on_c, 1, 60, 0
7, 24660, Note_on_c, 1, 64, 72
7, 24719, Note_on_c, 1, 64, 0
7, 24720, Note_on_c, 1, 41, 72
7, 24779, Note_on_c, 1, 41, 0
7, 24780, Note_on_c, 1, 53, 72
7, 24809, Note_on_c, 1, 53, 0
7, 24810, Note_on_c, 1, 52, 72
7, 24839, Note_on_c, 1, 52, 0
7, 24840, Note_on_c, 1, 53, 72
7, 24899, Note_on_c, 1, 53, 0
7, 24900, Note_on_c, 1, 57, 72
7, 24959, Note_on_c, 1, 57, 0
7, 24960, Note_on_c, 1, 46, 72
7, 25019, Note_on_c, 1, 46, 0
7, 25020, Note_on_c, 1, 58, 72
7, 25049, Note_on_c, 1, 58, 0
7, 25050, Note_on_c, 1, 57, 72
7, 25079, Note_on_c, 1, 57, 0
7, 25080, Note_on_c, 1, 58, 72
7, 25139, Note_on_c, 1, 58, 0
7, 25140, Note_on_c, 1, 62, 72
7, 25199, Note_on_c, 1, 62, 0
7, 25200, Note_on_c, 1, 48, 72
7, 25259, Note_on_c, 1, 48, 0
7, 25260, Note_on_c, 1, 60, 72
7, 25289, Note_on_c, 1, 60, 0
7, 25290, Note_on_c, 1, 58, 72
7, 25319, Note_on_c, 1, 58, 0
7, 25320, Note_on_c, 1, 60, 72
7, 25379, Note_on_c, 1, 60, 0
7, 25380, Note_on_c, 1, 63, 72
7, 25439, Note_on_c, 1, 63, 0
7, 25440, Note_on_c, 1, 41, 72
7, 25499, Note_on_c, 1, 41, 0
7, 25500, Note_on_c, 1, 53, 72
7, 25529, Note_on_c, 1, 53, 0
7, 25530, Note_on_c, 1, 52, 72
7, 25559, Note_on_c, 1, 52, 0
7, 25560, Note_on_c, 1, 53, 72
7, 25619, Note_on_c, 1, 53, 0
7, 25620, Note_on_c, 1, 57, 72
7, 25679, Note_on_c, 1, 57, 0
7, 25680, Note_on_c, 1, 36, 72
7, 25739, Note_on_c, 1, 36, 0
7, 25740, Note_on_c, 1, 50, 72
7, 25769, Note_on_c, 1, 50, 0
7, 25770, Note_on_c, 1, 48, 72
7, 25799, Note_on_c, 1, 48, 0
7, 25800, Note_on_c, 1, 50, 72
7, 25859, Note_on_c, 1, 50, 0
7, 25860, Note_on_c, 1, 53, 72
7, 25919, Note_on_c, 1, 53, 0
7, 25920, Note_on_c, 1, 43, 72
7, 25979, Note_on_c, 1, 43, 0
7, 25980, Note_on_c, 1, 55, 72
7, 26009, Note_on_c, 1, 55, 0
7, 26010, Note_on_c, 1, 54, 72
7, 26039, Note_on_c, 1, 54, 0
7, 26040, Note_on_c, 1, 55, 72
7, 26099, Note_on_c, 1, 55, 0
7, 26100, Note_on_c, 1, 59, 72
7, 26159, Note_on_c, 1, 59, 0
7, 26160, Note_on_c, 1, 48, 72
7, 26219, Note_on_c, 1, 48, 0
7, 26220, Note_on_c, 1, 60, 72
7, 26249, Note_on_c, 1, 60, 0
7, 26250, Note_on_c, 1, 59, 72
7, 26279, Note_on_c, 1, 59, 0
7, 26280, Note_on_c, 1, 60, 72
7, 26339, Note_on_c, 1, 60, 0
7, 26340, Note_on_c, 1, 63, 72
7, 26399, Note_on_c, 1, 63, 0
7, 26400, Note_on_c, 1, 46, 72
7, 26459, Note_on_c, 1, 46, 0
7, 26460, Note_on_c, 1, 62, 72
7, 26489, Note_on_c, 1, 62, 0
7, 26490, Note_on_c, 1, 60, 72
7, 26519, Note_on_c, 1, 60, 0
7, 26520, Note_on_c, 1, 62, 72
7, 26579, Note_on_c, 1, 62, 0
7, 26580, Note_on_c, 1, 65, 72
7, 26639, Note_on_c, 1, 65, 0
7, 26640, Note_on_c, 1, 43, 72
7, 26699, Note_on_c, 1, 43, 0
7, 26700, Note_on_c, 1, 55, 72
7, 26729, Note_on_c, 1, 55, 0
7, 26730, Note_on_c, 1, 54, 72
7, 26759, Note_on_c, 1, 54, 0
7, 26760, Note_on_c, 1, 55, 72
7, 26819, Note_on_c, 1, 55, 0
7, 26820, Note_on_c, 1, 59, 72
7, 26879, Note_on_c, 1, 59, 0
7, 26880, Note_on_c, 1, 40, 72
7, 26939, Note_on_c, 1, 40, 0
7, 26940, Note_on_c, 1, 52, 72
7, 26969, Note_on_c, 1, 52, 0
7, 26970, Note_on_c, 1, 50, 72
7, 26999, Note_on_c, 1, 50, 0
7, 27000, Note_on_c, 1, 52, 72
7, 27059, Note_on_c, 1, 52, 0
7, 27060, Note_on_c, 1, 55, 72
7, 27119, Note_on_c, 1, 55, 0
7, 27120, Note_on_c, 1, 45, 72
7, 27179, Note_on_c, 1, 45, 0
7, 27180, Note_on_c, 1, 57, 72
7, 27209, Note_on_c, 1, 57, 0
7, 27210, Note_on_c, 1, 56, 72
7, 27239, Note_on_c, 1, 56, 0
7, 27240, Note_on_c, 1, 57, 72
7, 27299, Note_on_c, 1, 57, 0
7, 27300, Note_on_c, 1, 61, 72
7, 27359, Note_on_c, 1, 61, 0
7, 27360, Note_on_c, 1, 50, 72
7, 27419, Note_on_c, 1, 50, 0
7, 27420, Note_on_c, 1, 62, 72
7, 27449, Note_on_c, 1, 62, 0
7, 27450, Note_on_c, 1, 61, 72
7, 27479, Note_on_c, 1, 61, 0
7, 27480, Note_on_c, 1, 62, 72
7, 27539, Note_on_c, 1, 62, 0
7, 27540, Note_on_c, 1, 66, 72
7, 27599, Note_on_c, 1, 66, 0
7, 27600, Note_on_c, 1, 51, 72
7, 27659, Note_on_c, 1, 51, 0
7, 27660, Note_on_c, 1, 63, 72
7, 27689, Note_on_c, 1, 63, 0
7, 27690, Note_on_c, 1, 62, 72
7, 27719, Note_on_c, 1, 62, 0
7, 27720, Note_on_c, 1, 63, 72
7, 27779, Note_on_c, 1, 63, 0
7, 27780, Note_on_c, 1, 51, 72
7, 27839, Note_on_c, 1, 51, 0
7, 27840, Note_on_c, 1, 50, 72
7, 27899, Note_on_c, 1, 50, 0
7, 27900, Note_on_c, 1, 62, 72
7, 27929, Note_on_c, 1, 62, 0
7, 27930, Note_on_c, 1, 60, 72
7, 27959, Note_on_c, 1, 60, 0
7, 27960, Note_on_c, 1, 62, 72
7, 28019, Note_on_c, 1, 62, 0
7, 28020, Note_on_c, 1, 65, 72
7, 28079, Note_on_c, 1, 65, 0
7, 28080, Note_on_c, 1, 48, 72
7, 28139, Note_on_c, 1, 48, 0
7, 28140, Note_on_c, 1, 60, 72
7, 28169, Note_on_c, 1, 60, 0
7, 28170, Note_on_c, 1, 58, 72
7, 28199, Note_on_c, 1, 58, 0
7, 28200, Note_on_c, 1, 60, 72
7, 28259, Note_on_c, 1, 60, 0
7, 28260, Note_on_c, 1, 48, 72
7, 28319, Note_on_c, 1, 48, 0
7, 28320, Note_on_c, 1, 46, 72
7, 28379, Note_on_c, 1, 46, 0
7, 28380, Note_on_c, 1, 58, 72
7, 28409, Note_on_c, 1, 58, 0
7, 28410, Note_on_c, 1, 57, 72
7, 28439, Note_on_c, 1, 57, 0
7, 28440, Note_on_c, 1, 58, 72
7, 28499, Note_on_c, 1, 58, 0
7, 28500, Note_on_c, 1, 55, 72
7, 28559, Note_on_c, 1, 55, 0
7, 28560, Note_on_c, 1, 51, 72
7, 28619, Note_on_c, 1, 51, 0
7, 28620, Note_on_c, 1, 63, 72
7, 28649, Note_on_c, 1, 63, 0
7, 28650, Note_on_c, 1, 62, 72
7, 28679, Note_on_c, 1, 62, 0
7, 28680, Note_on_c, 1, 63, 72
7, 28739, Note_on_c, 1, 63, 0
7, 28740, Note_on_c, 1, 51, 72
7, 28799, Note_on_c, 1, 51, 0
7, 28800, Note_on_c, 1, 50, 72
7, 28859, Note_on_c, 1, 50, 0
7, 28860, Note_on_c, 1, 62, 72
7, 28889, Note_on_c, 1, 62, 0
7, 28890, Note_on_c, 1, 61, 72
7, 28919, Note_on_c, 1, 61, 0
7, 28920, Note_on_c, 1, 62, 72
7, 28979, Note_on_c, 1, 62, 0
7, 28980, Note_on_c, 1, 66, 72
7, 29039, Note_on_c, 1, 66, 0
7, 29040, Note_on_c, 1, 50, 72
7, 29099, Note_on_c, 1, 50, 0
7, 29100, Note_on_c, 1, 58, 72
7, 29129, Note_on_c, 1, 58, 0
7, 29130, Note_on_c, 1, 57, 72
7, 29159, Note_on_c, 1, 57, 0
7, 29160, Note_on_c, 1, 58, 72
7, 29219, Note_on_c, 1, 58, 0
7, 29220, Note_on_c, 1, 67, 72
7, 29279, Note_on_c, 1, 67, 0
7, 29280, Note_on_c, 1, 50, 72
7, 29339, Note_on_c, 1, 50, 0
7, 29340, Note_on_c, 1, 60, 72
7, 29369, Note_on_c, 1, 60, 0
7, 29370, Note_on_c, 1, 58, 72
7, 29399, Note_on_c, 1, 58, 0
7, 29400, Note_on_c, 1, 60, 72
7, 29459, Note_on_c, 1, 60, 0
7, 29460, Note_on_c, 1, 63, 72
7, 29519, Note_on_c, 1, 63, 0
7, 29520, Note_on_c, 1, 50, 72
7, 29579, Note_on_c, 1, 50, 0
7, 29580, Note_on_c, 1, 57, 72
7, 29609, Note_on_c, 1, 57, 0
7, 29610, Note_on_c, 1, 55, 72
7, 29639, Note_on_c, 1, 55, 0
7, 29640, Note_on_c, 1, 57, 72
7, 29699, Note_on_c, 1, 57, 0
7, 29700, Note_on_c, 1, 66, 72
7, 29759, Note_on_c, 1, 66, 0
7, 29760, Note_on_c, 1, 50, 72
7, 29819, Note_on_c, 1, 50, 0
7, 29820, Note_on_c, 1, 58, 72
7, 29849, Note_on_c, 1, 58, 0
7, 29850, Note_on_c, 1, 57, 72
7, 29879, Note_on_c, 1, 57, 0
7, 29880, Note_on_c, 1, 58, 72
7, 29939, Note_on_c, 1, 58, 0
7, 29940, Note_on_c, 1, 62, 72
7, 29999, Note_on_c, 1, 62, 0
7, 30000, Note_on_c, 1, 50, 72
7, 30059, Note_on_c, 1, 50, 0
7, 30060, Note_on_c, 1, 55, 72
7, 30089, Note_on_c, 1, 55, 0
7, 30090, Note_on_c, 1, 54, 72
7, 30119, Note_on_c, 1, 54, 0
7, 30120, Note_on_c, 1, 55, 72
7, 30179, Note_on_c, 1, 55, 0
7, 30180, Note_on_c, 1, 64, 72
7, 30239, Note_on_c, 1, 64, 0
7, 30240, Note_on_c, 1, 50, 72
7, 30299, Note_on_c, 1, 50, 0
7, 30300, Note_on_c, 1, 57, 72
7, 30329, Note_on_c, 1, 57, 0
7, 30330, Note_on_c, 1, 55, 72
7, 30359, Note_on_c, 1, 55, 0
7, 30360, Note_on_c, 1, 57, 72
7, 30419, Note_on_c, 1, 57, 0
7, 30420, Note_on_c, 1, 60, 72
7, 30479, Note_on_c, 1, 60, 0
7, 30480, Note_on_c, 1, 50, 72
7, 30539, Note_on_c, 1, 50, 0
7, 30540, Note_on_c, 1, 55, 72
7, 30569, Note_on_c, 1, 55, 0
7, 30570, Note_on_c, 1, 54, 72
7, 30599, Note_on_c, 1, 54, 0
7, 30600, Note_on_c, 1, 55, 72
7, 30659, Note_on_c, 1, 55, 0
7, 30660, Note_on_c, 1, 58, 72
7, 30719, Note_on_c, 1, 58, 0
7, 30720, Note_on_c, 1, 49, 72
7, 30839, Note_on_c, 1, 49, 0
7, 31080, Note_on_c, 1, 58, 48
7, 31080, Note_on_c, 1, 49, 48
7, 31199, Note_on_c, 1, 58, 0
7, 31199, Note_on_c, 1, 49, 0
7, 31200, Note_on_c, 1, 57, 48
7, 31200, Note_on_c, 1, 50, 48
7, 31319, Note_on_c, 1, 57, 0
7, 31319, Note_on_c, 1, 50, 0
7, 31320, Note_on_c, 1, 55, 48
7, 31320, Note_on_c, 1, 51, 48
7, 31439, Note_on_c, 1, 55, 0
7, 31439, Note_on_c, 1, 51, 0
7, 31440, Note_on_c, 1, 57, 48
7, 31440, Note_on_c, 1, 50, 48
7, 31679, Note_on_c, 1, 57, 0
7, 31679, Note_on_c, 1, 50, 0
7, 31680, Note_on_c, 1, 55, 48
7, 31680, Note_on_c, 1, 43, 48
7, 31799, Note_on_c, 1, 55, 0
7, 31799, Note_on_c, 1, 43, 0
7, 33600, Note_on_c, 1, 43, 72
7, 33659, Note_on_c, 1, 43, 0
7, 33660, Note_on_c, 1, 55, 72
7, 33689, Note_on_c, 1, 55, 0
7, 33690, Note_on_c, 1, 54, 72
7, 33719, Note_on_c, 1, 54, 0
7, 33720, Note_on_c, 1, 55, 72
7, 33779, Note_on_c, 1, 55, 0
7, 33780, Note_on_c, 1, 58, 72
7, 33839, Note_on_c, 1, 58, 0
7, 33840, Note_on_c, 1, 43, 72
7, 33899, Note_on_c, 1, 43, 0
7, 33900, Note_on_c, 1, 55, 72
7, 33929, Note_on_c, 1, 55, 0
7, 33930, Note_on_c, 1, 53, 72
7, 33959, Note_on_c, 1, 53, 0
7, 33960, Note_on_c, 1, 55, 72
7, 34019, Note_on_c, 1, 55, 0
7, 34020, Note_on_c, 1, 63, 72
7, 34079, Note_on_c, 1, 63, 0
7, 34080, Note_on_c, 1, 42, 72
7, 34139, Note_on_c, 1, 42, 0
7, 34140, Note_on_c, 1, 54, 72
7, 34169, Note_on_c, 1, 54, 0
7, 34170, Note_on_c, 1, 52, 72
7, 34199, Note_on_c, 1, 52, 0
7, 34200, Note_on_c, 1, 54, 72
7, 34259, Note_on_c, 1, 54, 0
7, 34260, Note_on_c, 1, 57, 72
7, 34319, Note_on_c, 1, 57, 0
7, 34320, Note_on_c, 1, 41, 72
7, 34379, Note_on_c, 1, 41, 0
7, 34380, Note_on_c, 1, 53, 72
7, 34409, Note_on_c, 1, 53, 0
7, 34410, Note_on_c, 1, 52, 72
7, 34439, Note_on_c, 1, 52, 0
7, 34440, Note_on_c, 1, 53, 72
7, 34499, Note_on_c, 1, 53, 0
7, 34500, Note_on_c, 1, 62, 72
7, 34559, Note_on_c, 1, 62, 0
7, 34560, Note_on_c, 1, 40, 72
7, 34619, Note_on_c, 1, 40, 0
7, 34620, Note_on_c, 1, 52, 72
7, 34649, Note_on_c, 1, 52, 0
7, 34650, Note_on_c, 1, 50, 72
7, 34679, Note_on_c, 1, 50, 0
7, 34680, Note_on_c, 1, 52, 72
7, 34739, Note_on_c, 1, 52, 0
7, 34740, Note_on_c, 1, 55, 72
7, 34799, Note_on_c, 1, 55, 0
7, 34800, Note_on_c, 1, 39, 72
7, 34859, Note_on_c, 1, 39, 0
7, 34860, Note_on_c, 1, 51, 72
7, 34889, Note_on_c, 1, 51, 0
7, 34890, Note_on_c, 1, 50, 72
7, 34919, Note_on_c, 1, 50, 0
7, 34920, Note_on_c, 1, 51, 72
7, 34979, Note_on_c, 1, 51, 0
7, 34980, Note_on_c, 1, 60, 72
7, 35039, Note_on_c, 1, 60, 0
7, 35040, Note_on_c, 1, 50, 72
7, 35099, Note_on_c, 1, 50, 0
7, 35100, Note_on_c, 1, 54, 72
7, 35129, Note_on_c, 1, 54, 0
7, 35130, Note_on_c, 1, 50, 72
7, 35159, Note_on_c, 1, 50, 0
7, 35160, Note_on_c, 1, 55, 72
7, 35219, Note_on_c, 1, 55, 0
7, 35220, Note_on_c, 1, 48, 72
7, 35279, Note_on_c, 1, 48, 0
7, 35280, Note_on_c, 1, 50, 72
7, 35339, Note_on_c, 1, 50, 0
7, 35340, Note_on_c, 1, 58, 72
7, 35369, Note_on_c, 1, 58, 0
7, 35370, Note_on_c, 1, 55, 72
7, 35399, Note_on_c, 1, 55, 0
7, 35400, Note_on_c, 1, 62, 72
7, 35459, Note_on_c, 1, 62, 0
7, 35460, Note_on_c, 1, 50, 72
7, 35519, Note_on_c, 1, 50, 0
7, 35520, Note_on_c, 1, 55, 72
7, 35639, Note_on_c, 1, 55, 0
7, 35880, Note_on_c, 1, 59, 72
7, 35880, Note_on_c, 1, 62, 72
7, 35999, Note_on_c, 1, 59, 0
7, 35999, Note_on_c, 1, 62, 0
7, 36000, Note_on_c, 1, 63, 72
7, 36000, Note_on_c, 1, 60, 72
7, 36119, Note_on_c, 1, 63, 0
7, 36119, Note_on_c, 1, 60, 0
7, 36120, Note_on_c, 1, 62, 72
7, 36120, Note_on_c, 1, 59, 72
7, 36239, Note_on_c, 1, 62, 0
7, 36239, Note_on_c, 1, 59, 0
7, 36240, Note_on_c, 1, 63, 72
7, 36240, Note_on_c, 1, 60, 72
7, 36359, Note_on_c, 1, 63, 0
7, 36359, Note_on_c, 1, 60, 0
7, 36360, Note_on_c, 1, 65, 72
7, 36360, Note_on_c, 1, 62, 72
7, 36479, Note_on_c, 1, 65, 0
7, 36480, Note_on_c, 1, 63, 72
7, 36599, Note_on_c, 1, 62, 0
7, 36600, Note_on_c, 1, 60, 72
7, 36659, Note_on_c, 1, 60, 0
7, 36660, Note_on_c, 1, 59, 72
7, 36719, Note_on_c, 1, 59, 0
7, 36720, Note_on_c, 1, 60, 72
7, 36959, Note_on_c, 1, 63, 0
7, 36959, Note_on_c, 1, 60, 0
7, 36960, Note_on_c, 1, 62, 72
7, 36960, Note_on_c, 1, 59, 72
7, 37439, Note_on_c, 1, 62, 0
7, 37439, Note_on_c, 1, 59, 0
7, 37439, End_track
8, 0, Start_track
8, 0, Title_t, "Alto Trombone"
8, 0, MIDI_port, 0
8, 0, Control_c, 3, 7, 96
8, 0, Control_c, 3, 10, 96
8, 0, Control_c, 3, 11, 127
8, 0, Program_c, 3, 57
8, 900, Note_on_c, 3, 67, 72
8, 959, Note_on_c, 3, 67, 0
8, 960, Note_on_c, 3, 70, 72
8, 1079, Note_on_c, 3, 70, 0
8, 1080, Note_on_c, 3, 70, 72
8, 1199, Note_on_c, 3, 70, 0
8, 1200, Note_on_c, 3, 67, 72
8, 1319, Note_on_c, 3, 67, 0
8, 1320, Note_on_c, 3, 67, 72
8, 1439, Note_on_c, 3, 67, 0
8, 7620, Note_on_c, 3, 68, 72
8, 7679, Note_on_c, 3, 68, 0
8, 7680, Note_on_c, 3, 66, 72
8, 7799, Note_on_c, 3, 66, 0
8, 7800, Note_on_c, 3, 65, 72
8, 7859, Note_on_c, 3, 65, 0
8, 7860, Note_on_c, 3, 65, 72
8, 7919, Note_on_c, 3, 65, 0
8, 7920, Note_on_c, 3, 64, 72
8, 8039, Note_on_c, 3, 64, 0
8, 8040, Note_on_c, 3, 65, 72
8, 8099, Note_on_c, 3, 65, 0
8, 9060, Note_on_c, 3, 70, 72
8, 9119, Note_on_c, 3, 70, 0
8, 9120, Note_on_c, 3, 68, 72
8, 9239, Note_on_c, 3, 68, 0
8, 9240, Note_on_c, 3, 67, 72
8, 9299, Note_on_c, 3, 67, 0
8, 9300, Note_on_c, 3, 67, 72
8, 9359, Note_on_c, 3, 67, 0
8, 9360, Note_on_c, 3, 66, 72
8, 9479, Note_on_c, 3, 66, 0
8, 9480, Note_on_c, 3, 67, 72
8, 9539, Note_on_c, 3, 67, 0
8, 9720, Note_on_c, 3, 67, 72
8, 9779, Note_on_c, 3, 67, 0
8, 9780, Note_on_c, 3, 67, 72
8, 9839, Note_on_c, 3, 67, 0
8, 9960, Note_on_c, 3, 65, 72
8, 10019, Note_on_c, 3, 65, 0
8, 10020, Note_on_c, 3, 65, 72
8, 10079, Note_on_c, 3, 65, 0
8, 10080, Note_on_c, 3, 55, 72
8, 10199, Note_on_c, 3, 55, 0
8, 10200, Note_on_c, 3, 63, 72
8, 10259, Note_on_c, 3, 63, 0
8, 10260, Note_on_c, 3, 63, 72
8, 10319, Note_on_c, 3, 63, 0
8, 10680, Note_on_c, 3, 72, 72
8, 10739, Note_on_c, 3, 72, 0
8, 10740, Note_on_c, 3, 72, 72
8, 10799, Note_on_c, 3, 72, 0
8, 10800, Note_on_c, 3, 62, 72
8, 10919, Note_on_c, 3, 62, 0
8, 10920, Note_on_c, 3, 70, 72
8, 10979, Note_on_c, 3, 70, 0
8, 10980, Note_on_c, 3, 70, 72
8, 11039, Note_on_c, 3, 70, 0
8, 11040, Note_on_c, 3, 60, 72
8, 11159, Note_on_c, 3, 60, 0
8, 11160, Note_on_c, 3, 69, 72
8, 11219, Note_on_c, 3, 69, 0
8, 11220, Note_on_c, 3, 69, 72
8, 11279, Note_on_c, 3, 69, 0
8, 11280, Note_on_c, 3, 58, 72
8, 11339, Note_on_c, 3, 58, 0
8, 11340, Note_on_c, 3, 69, 72
8, 11399, Note_on_c, 3, 69, 0
8, 11400, Note_on_c, 3, 67, 72
8, 11459, Note_on_c, 3, 67, 0
8, 11460, Note_on_c, 3, 58, 72
8, 11519, Note_on_c, 3, 58, 0
8, 11520, Note_on_c, 3, 57, 72
8, 11579, Note_on_c, 3, 57, 0
8, 11580, Note_on_c, 3, 65, 72
8, 11639, Note_on_c, 3, 65, 0
8, 11820, Note_on_c, 3, 69, 72
8, 11879, Note_on_c, 3, 69, 0
8, 11880, Note_on_c, 3, 67, 72
8, 11939, Note_on_c, 3, 67, 0
8, 11940, Note_on_c, 3, 70, 72
8, 11999, Note_on_c, 3, 70, 0
8, 12060, Note_on_c, 3, 67, 72
8, 12119, Note_on_c, 3, 67, 0
8, 12120, Note_on_c, 3, 65, 72
8, 12179, Note_on_c, 3, 65, 0
8, 12180, Note_on_c, 3, 69, 72
8, 12239, Note_on_c, 3, 69, 0
8, 12240, Note_on_c, 3, 67, 72
8, 12359, Note_on_c, 3, 67, 0
8, 12360, Note_on_c, 3, 67, 72
8, 12419, Note_on_c, 3, 67, 0
8, 12420, Note_on_c, 3, 64, 72
8, 12479, Note_on_c, 3, 64, 0
8, 12480, Note_on_c, 3, 62, 72
8, 12539, Note_on_c, 3, 62, 0
8, 12540, Note_on_c, 3, 65, 72
8, 12599, Note_on_c, 3, 65, 0
8, 12600, Note_on_c, 3, 69, 72
8, 12659, Note_on_c, 3, 69, 0
8, 12660, Note_on_c, 3, 74, 72
8, 12719, Note_on_c, 3, 74, 0
8, 12900, Note_on_c, 3, 67, 72
8, 12959, Note_on_c, 3, 67, 0
8, 12960, Note_on_c, 3, 65, 72
8, 13079, Note_on_c, 3, 65, 0
8, 13140, Note_on_c, 3, 70, 72
8, 13199, Note_on_c, 3, 70, 0
8, 13200, Note_on_c, 3, 70, 72
8, 13259, Note_on_c, 3, 70, 0
8, 13260, Note_on_c, 3, 69, 72
8, 13289, Note_on_c, 3, 69, 0
8, 13290, Note_on_c, 3, 67, 72
8, 13319, Note_on_c, 3, 67, 0
8, 13320, Note_on_c, 3, 66, 72
8, 13379, Note_on_c, 3, 66, 0
8, 13380, Note_on_c, 3, 66, 72
8, 13439, Note_on_c, 3, 66, 0
8, 13440, Note_on_c, 3, 67, 72
8, 13499, Note_on_c, 3, 67, 0
8, 13500, Note_on_c, 3, 70, 72
8, 13559, Note_on_c, 3, 70, 0
8, 13620, Note_on_c, 3, 74, 72
8, 13679, Note_on_c, 3, 74, 0
8, 13680, Note_on_c, 3, 70, 72
8, 13739, Note_on_c, 3, 70, 0
8, 13740, Note_on_c, 3, 67, 72
8, 13799, Note_on_c, 3, 67, 0
8, 13980, Note_on_c, 3, 67, 72
8, 14039, Note_on_c, 3, 67, 0
8, 14040, Note_on_c, 3, 66, 72
8, 14159, Note_on_c, 3, 66, 0
8, 22620, Note_on_c, 3, 67, 72
8, 22679, Note_on_c, 3, 67, 0
8, 22680, Note_on_c, 3, 67, 72
8, 22739, Note_on_c, 3, 67, 0
8, 22740, Note_on_c, 3, 67, 72
8, 22799, Note_on_c, 3, 67, 0
8, 22800, Note_on_c, 3, 67, 72
8, 22889, Note_on_c, 3, 67, 0
8, 22890, Note_on_c, 3, 66, 72
8, 22919, Note_on_c, 3, 66, 0
8, 22920, Note_on_c, 3, 66, 72
8, 23039, Note_on_c, 3, 66, 0
8, 23100, Note_on_c, 3, 72, 72
8, 23219, Note_on_c, 3, 72, 0
8, 23220, Note_on_c, 3, 72, 72
8, 23279, Note_on_c, 3, 72, 0
8, 23280, Note_on_c, 3, 72, 72
8, 23399, Note_on_c, 3, 72, 0
8, 23400, Note_on_c, 3, 70, 72
8, 23519, Note_on_c, 3, 70, 0
8, 23580, Note_on_c, 3, 70, 72
8, 23639, Note_on_c, 3, 70, 0
8, 23640, Note_on_c, 3, 67, 72
8, 23699, Note_on_c, 3, 67, 0
8, 23700, Note_on_c, 3, 69, 72
8, 23729, Note_on_c, 3, 69, 0
8, 23730, Note_on_c, 3, 70, 72
8, 23759, Note_on_c, 3, 70, 0
8, 23760, Note_on_c, 3, 64, 72
8, 23879, Note_on_c, 3, 64, 0
8, 23880, Note_on_c, 3, 69, 72
8, 23999, Note_on_c, 3, 69, 0
8, 24060, Note_on_c, 3, 72, 72
8, 24119, Note_on_c, 3, 72, 0
8, 24120, Note_on_c, 3, 72, 72
8, 24179, Note_on_c, 3, 72, 0
8, 24180, Note_on_c, 3, 72, 72
8, 24239, Note_on_c, 3, 72, 0
8, 24240, Note_on_c, 3, 72, 72
8, 24329, Note_on_c, 3, 72, 0
8, 24330, Note_on_c, 3, 71, 72
8, 24359, Note_on_c, 3, 71, 0
8, 24360, Note_on_c, 3, 71, 72
8, 24479, Note_on_c, 3, 71, 0
8, 24540, Note_on_c, 3, 70, 72
8, 24659, Note_on_c, 3, 70, 0
8, 24660, Note_on_c, 3, 70, 72
8, 24719, Note_on_c, 3, 70, 0
8, 24720, Note_on_c, 3, 70, 72
8, 24839, Note_on_c, 3, 70, 0
8, 24840, Note_on_c, 3, 69, 72
8, 24959, Note_on_c, 3, 69, 0
8, 25260, Note_on_c, 3, 67, 72
8, 25319, Note_on_c, 3, 67, 0
8, 25320, Note_on_c, 3, 63, 72
8, 25379, Note_on_c, 3, 63, 0
8, 25380, Note_on_c, 3, 65, 72
8, 25409, Note_on_c, 3, 65, 0
8, 25410, Note_on_c, 3, 67, 72
8, 25439, Note_on_c, 3, 67, 0
8, 25440, Note_on_c, 3, 60, 72
8, 25559, Note_on_c, 3, 60, 0
8, 25560, Note_on_c, 3, 65, 72
8, 25679, Note_on_c, 3, 65, 0
8, 25740, Note_on_c, 3, 72, 72
8, 25799, Note_on_c, 3, 72, 0
8, 25800, Note_on_c, 3, 72, 72
8, 25859, Note_on_c, 3, 72, 0
8, 25860, Note_on_c, 3, 72, 72
8, 25919, Note_on_c, 3, 72, 0
8, 25920, Note_on_c, 3, 72, 72
8, 26009, Note_on_c, 3, 72, 0
8, 26010, Note_on_c, 3, 71, 72
8, 26039, Note_on_c, 3, 71, 0
8, 26040, Note_on_c, 3, 71, 72
8, 26159, Note_on_c, 3, 71, 0
8, 26460, Note_on_c, 3, 68, 72
8, 26519, Note_on_c, 3, 68, 0
8, 26520, Note_on_c, 3, 65, 72
8, 26579, Note_on_c, 3, 65, 0
8, 26580, Note_on_c, 3, 67, 72
8, 26609, Note_on_c, 3, 67, 0
8, 26610, Note_on_c, 3, 68, 72
8, 26639, Note_on_c, 3, 68, 0
8, 26640, Note_on_c, 3, 62, 72
8, 26759, Note_on_c, 3, 62, 0
8, 26760, Note_on_c, 3, 67, 72
8, 26879, Note_on_c, 3, 67, 0
8, 26940, Note_on_c, 3, 74, 72
8, 27059, Note_on_c, 3, 74, 0
8, 27060, Note_on_c, 3, 74, 72
8, 27119, Note_on_c, 3, 74, 0
8, 27120, Note_on_c, 3, 74, 72
8, 27239, Note_on_c, 3, 74, 0
8, 27240, Note_on_c, 3, 73, 72
8, 27359, Note_on_c, 3, 73, 0
8, 27660, Note_on_c, 3, 67, 72
8, 27719, Note_on_c, 3, 67, 0
8, 27720, Note_on_c, 3, 67, 72
8, 27779, Note_on_c, 3, 67, 0
8, 27780, Note_on_c, 3, 69, 72
8, 27839, Note_on_c, 3, 69, 0
8, 27840, Note_on_c, 3, 69, 72
8, 27929, Note_on_c, 3, 69, 0
8, 27930, Note_on_c, 3, 72, 72
8, 27959, Note_on_c, 3, 72, 0
8, 27960, Note_on_c, 3, 70, 72
8, 28079, Note_on_c, 3, 70, 0
8, 28140, Note_on_c, 3, 67, 72
8, 28199, Note_on_c, 3, 67, 0
8, 28200, Note_on_c, 3, 66, 72
8, 28259, Note_on_c, 3, 66, 0
8, 28260, Note_on_c, 3, 66, 72
8, 28319, Note_on_c, 3, 66, 0
8, 28320, Note_on_c, 3, 66, 72
8, 28379, Note_on_c, 3, 66, 0
8, 28380, Note_on_c, 3, 72, 72
8, 28439, Note_on_c, 3, 72, 0
8, 28440, Note_on_c, 3, 70, 72
8, 28499, Note_on_c, 3, 70, 0
8, 28500, Note_on_c, 3, 70, 72
8, 28559, Note_on_c, 3, 70, 0
8, 28560, Note_on_c, 3, 70, 72
8, 28679, Note_on_c, 3, 70, 0
8, 28680, Note_on_c, 3, 69, 72
8, 28739, Note_on_c, 3, 69, 0
8, 28740, Note_on_c, 3, 67, 72
8, 28799, Note_on_c, 3, 67, 0
8, 28800, Note_on_c, 3, 66, 72
8, 28919, Note_on_c, 3, 66, 0
8, 29100, Note_on_c, 3, 67, 72
8, 29159, Note_on_c, 3, 67, 0
8, 29160, Note_on_c, 3, 67, 72
8, 29219, Note_on_c, 3, 67, 0
8, 29220, Note_on_c, 3, 67, 72
8, 29279, Note_on_c, 3, 67, 0
8, 29280, Note_on_c, 3, 67, 72
8, 29369, Note_on_c, 3, 67, 0
8, 29370, Note_on_c, 3, 69, 72
8, 29399, Note_on_c, 3, 69, 0
8, 29400, Note_on_c, 3, 69, 72
8, 29519, Note_on_c, 3, 69, 0
8, 29580, Note_on_c, 3, 66, 72
8, 29699, Note_on_c, 3, 66, 0
8, 29700, Note_on_c, 3, 66, 72
8, 29759, Note_on_c, 3, 66, 0
8, 29760, Note_on_c, 3, 66, 72
8, 29819, Note_on_c, 3, 66, 0
8, 29820, Note_on_c, 3, 67, 72
8, 29879, Note_on_c, 3, 67, 0
8, 29880, Note_on_c, 3, 67, 72
8, 29999, Note_on_c, 3, 67, 0
8, 30060, Note_on_c, 3, 64, 72
8, 30119, Note_on_c, 3, 64, 0
8, 30120, Note_on_c, 3, 64, 72
8, 30179, Note_on_c, 3, 64, 0
8, 30180, Note_on_c, 3, 64, 72
8, 30239, Note_on_c, 3, 64, 0
8, 30240, Note_on_c, 3, 64, 72
8, 30329, Note_on_c, 3, 64, 0
8, 30330, Note_on_c, 3, 66, 72
8, 30359, Note_on_c, 3, 66, 0
8, 30360, Note_on_c, 3, 66, 72
8, 30479, Note_on_c, 3, 66, 0
8, 30540, Note_on_c, 3, 67, 72
8, 30659, Note_on_c, 3, 67, 0
8, 30660, Note_on_c, 3, 67, 72
8, 30719, Note_on_c, 3, 67, 0
8, 30720, Note_on_c, 3, 70, 72
8, 30779, Note_on_c, 3, 70, 0
8, 30780, Note_on_c, 3, 67, 72
8, 30839, Note_on_c, 3, 67, 0
8, 30840, Note_on_c, 3, 67, 72
8, 30959, Note_on_c, 3, 67, 0
8, 31080, Note_on_c, 3, 64, 48
8, 31199, Note_on_c, 3, 64, 0
8, 31200, Note_on_c, 3, 62, 48
8, 31319, Note_on_c, 3, 62, 0
8, 31320, Note_on_c, 3, 61, 48
8, 31439, Note_on_c, 3, 61, 0
8, 31440, Note_on_c, 3, 62, 48
8, 31679, Note_on_c, 3, 62, 0
8, 31680, Note_on_c, 3, 62, 48
8, 31799, Note_on_c, 3, 62, 0
8, 33900, Note_on_c, 3, 67, 72
8, 33959, Note_on_c, 3, 67, 0
8, 33960, Note_on_c, 3, 70, 72
8, 34019, Note_on_c, 3, 70, 0
8, 34020, Note_on_c, 3, 67, 72
8, 34079, Note_on_c, 3, 67, 0
8, 34080, Note_on_c, 3, 69, 72
8, 34169, Note_on_c, 3, 69, 0
8, 34170, Note_on_c, 3, 69, 72
8, 34199, Note_on_c, 3, 69, 0
8, 34200, Note_on_c, 3, 69, 72
8, 34319, Note_on_c, 3, 69, 0
8, 34380, Note_on_c, 3, 65, 72
8, 34439, Note_on_c, 3, 65, 0
8, 34440, Note_on_c, 3, 69, 72
8, 34499, Note_on_c, 3, 69, 0
8, 34500, Note_on_c, 3, 65, 72
8, 34559, Note_on_c, 3, 65, 0
8, 34560, Note_on_c, 3, 67, 72
8, 34679, Note_on_c, 3, 67, 0
8, 34680, Note_on_c, 3, 67, 72
8, 34799, Note_on_c, 3, 67, 0
8, 34860, Note_on_c, 3, 67, 72
8, 34919, Note_on_c, 3, 67, 0
8, 34920, Note_on_c, 3, 67, 72
8, 34979, Note_on_c, 3, 67, 0
8, 34980, Note_on_c, 3, 67, 72
8, 35039, Note_on_c, 3, 67, 0
8, 35040, Note_on_c, 3, 66, 72
8, 35099, Note_on_c, 3, 66, 0
8, 35100, Note_on_c, 3, 69, 72
8, 35159, Note_on_c, 3, 69, 0
8, 35160, Note_on_c, 3, 67, 72
8, 35219, Note_on_c, 3, 67, 0
8, 35220, Note_on_c, 3, 67, 72
8, 35279, Note_on_c, 3, 67, 0
8, 35280, Note_on_c, 3, 67, 72
8, 35399, Note_on_c, 3, 67, 0
8, 35400, Note_on_c, 3, 66, 72
8, 35519, Note_on_c, 3, 66, 0
8, 35520, Note_on_c, 3, 67, 72
8, 35639, Note_on_c, 3, 67, 0
8, 35880, Note_on_c, 3, 62, 72
8, 35999, Note_on_c, 3, 62, 0
8, 36000, Note_on_c, 3, 63, 72
8, 36119, Note_on_c, 3, 63, 0
8, 36120, Note_on_c, 3, 62, 72
8, 36239, Note_on_c, 3, 62, 0
8, 36240, Note_on_c, 3, 63, 72
8, 36359, Note_on_c, 3, 63, 0
8, 36360, Note_on_c, 3, 65, 72
8, 36479, Note_on_c, 3, 65, 0
8, 36480, Note_on_c, 3, 63, 72
8, 36959, Note_on_c, 3, 63, 0
8, 36960, Note_on_c, 3, 62, 72
8, 37439, Note_on_c, 3, 62, 0
8, 37439, End_track
9, 0, Start_track
9, 0, Title_t, "Tenor Trombone"
9, 0, MIDI_port, 0
9, 0, Control_c, 3, 7, 96
9, 0, Control_c, 3, 10, 96
9, 0, Control_c, 3, 11, 127
9, 0, Program_c, 3, 57
9, 900, Note_on_c, 3, 58, 72
9, 959, Note_on_c, 3, 58, 0
9, 960, Note_on_c, 3, 63, 72
9, 1079, Note_on_c, 3, 63, 0
9, 1080, Note_on_c, 3, 62, 72
9, 1199, Note_on_c, 3, 62, 0
9, 1200, Note_on_c, 3, 60, 72
9, 1319, Note_on_c, 3, 60, 0
9, 1320, Note_on_c, 3, 58, 72
9, 1439, Note_on_c, 3, 58, 0
9, 7620, Note_on_c, 3, 56, 72
9, 7679, Note_on_c, 3, 56, 0
9, 7680, Note_on_c, 3, 66, 72
9, 7799, Note_on_c, 3, 66, 0
9, 7800, Note_on_c, 3, 65, 72
9, 7859, Note_on_c, 3, 65, 0
9, 7860, Note_on_c, 3, 65, 72
9, 7919, Note_on_c, 3, 65, 0
9, 7920, Note_on_c, 3, 64, 72
9, 8039, Note_on_c, 3, 64, 0
9, 8040, Note_on_c, 3, 65, 72
9, 8099, Note_on_c, 3, 65, 0
9, 9060, Note_on_c, 3, 58, 72
9, 9119, Note_on_c, 3, 58, 0
9, 9120, Note_on_c, 3, 56, 72
9, 9239, Note_on_c, 3, 56, 0
9, 9240, Note_on_c, 3, 55, 72
9, 9299, Note_on_c, 3, 55, 0
9, 9300, Note_on_c, 3, 55, 72
9, 9359, Note_on_c, 3, 55, 0
9, 9360, Note_on_c, 3, 54, 72
9, 9479, Note_on_c, 3, 54, 0
9, 9480, Note_on_c, 3, 55, 72
9, 9539, Note_on_c, 3, 55, 0
9, 9840, Note_on_c, 3, 56, 72
9, 9959, Note_on_c, 3, 56, 0
9, 10320, Note_on_c, 3, 53, 72
9, 10379, Note_on_c, 3, 53, 0
9, 10380, Note_on_c, 3, 63, 72
9, 10439, Note_on_c, 3, 63, 0
9, 10440, Note_on_c, 3, 62, 72
9, 10499, Note_on_c, 3, 62, 0
9, 10500, Note_on_c, 3, 53, 72
9, 10559, Note_on_c, 3, 53, 0
9, 10560, Note_on_c, 3, 51, 72
9, 10619, Note_on_c, 3, 51, 0
9, 10620, Note_on_c, 3, 60, 72
9, 10679, Note_on_c, 3, 60, 0
9, 10860, Note_on_c, 3, 60, 72
9, 10919, Note_on_c, 3, 60, 0
9, 10920, Note_on_c, 3, 58, 72
9, 10979, Note_on_c, 3, 58, 0
9, 10980, Note_on_c, 3, 62, 72
9, 11039, Note_on_c, 3, 62, 0
9, 11100, Note_on_c, 3, 58, 72
9, 11159, Note_on_c, 3, 58, 0
9, 11160, Note_on_c, 3, 57, 72
9, 11219, Note_on_c, 3, 57, 0
9, 11220, Note_on_c, 3, 60, 72
9, 11279, Note_on_c, 3, 60, 0
9, 11280, Note_on_c, 3, 53, 72
9, 11339, Note_on_c, 3, 53, 0
9, 11340, Note_on_c, 3, 58, 72
9, 11399, Note_on_c, 3, 58, 0
9, 11400, Note_on_c, 3, 58, 72
9, 11459, Note_on_c, 3, 58, 0
9, 11460, Note_on_c, 3, 55, 72
9, 11519, Note_on_c, 3, 55, 0
9, 11520, Note_on_c, 3, 53, 72
9, 11579, Note_on_c, 3, 53, 0
9, 11580, Note_on_c, 3, 57, 72
9, 11639, Note_on_c, 3, 57, 0
9, 11640, Note_on_c, 3, 62, 72
9, 11699, Note_on_c, 3, 62, 0
9, 11700, Note_on_c, 3, 65, 72
9, 11759, Note_on_c, 3, 65, 0
9, 11940, Note_on_c, 3, 65, 72
9, 11999, Note_on_c, 3, 65, 0
9, 12000, Note_on_c, 3, 64, 72
9, 12059, Note_on_c, 3, 64, 0
9, 12060, Note_on_c, 3, 61, 72
9, 12119, Note_on_c, 3, 61, 0
9, 12180, Note_on_c, 3, 62, 72
9, 12239, Note_on_c, 3, 62, 0
9, 12240, Note_on_c, 3, 62, 72
9, 12299, Note_on_c, 3, 62, 0
9, 12300, Note_on_c, 3, 59, 72
9, 12359, Note_on_c, 3, 59, 0
9, 12360, Note_on_c, 3, 64, 72
9, 12419, Note_on_c, 3, 64, 0
9, 12420, Note_on_c, 3, 61, 72
9, 12479, Note_on_c, 3, 61, 0
9, 12480, Note_on_c, 3, 62, 72
9, 12539, Note_on_c, 3, 62, 0
9, 12540, Note_on_c, 3, 57, 72
9, 12599, Note_on_c, 3, 57, 0
9, 12660, Note_on_c, 3, 62, 72
9, 12719, Note_on_c, 3, 62, 0
9, 12720, Note_on_c, 3, 62, 72
9, 12779, Note_on_c, 3, 62, 0
9, 12780, Note_on_c, 3, 55, 72
9, 12839, Note_on_c, 3, 55, 0
9, 12900, Note_on_c, 3, 63, 72
9, 12959, Note_on_c, 3, 63, 0
9, 12960, Note_on_c, 3, 63, 72
9, 13079, Note_on_c, 3, 63, 0
9, 13140, Note_on_c, 3, 62, 72
9, 13199, Note_on_c, 3, 62, 0
9, 13200, Note_on_c, 3, 62, 72
9, 13259, Note_on_c, 3, 62, 0
9, 13260, Note_on_c, 3, 60, 72
9, 13319, Note_on_c, 3, 60, 0
9, 13320, Note_on_c, 3, 60, 72
9, 13379, Note_on_c, 3, 60, 0
9, 13380, Note_on_c, 3, 57, 72
9, 13439, Note_on_c, 3, 57, 0
9, 13440, Note_on_c, 3, 58, 72
9, 13499, Note_on_c, 3, 58, 0
9, 13500, Note_on_c, 3, 62, 72
9, 13559, Note_on_c, 3, 62, 0
9, 13740, Note_on_c, 3, 67, 72
9, 13799, Note_on_c, 3, 67, 0
9, 13800, Note_on_c, 3, 66, 72
9, 13859, Note_on_c, 3, 66, 0
9, 13860, Note_on_c, 3, 62, 72
9, 13919, Note_on_c, 3, 62, 0
9, 13980, Note_on_c, 3, 58, 72
9, 14039, Note_on_c, 3, 58, 0
9, 14040, Note_on_c, 3, 62, 72
9, 14159, Note_on_c, 3, 62, 0
9, 21420, Note_on_c, 3, 62, 72
9, 21479, Note_on_c, 3, 62, 0
9, 21480, Note_on_c, 3, 62, 72
9, 21539, Note_on_c, 3, 62, 0
9, 21540, Note_on_c, 3, 62, 72
9, 21599, Note_on_c, 3, 62, 0
9, 21600, Note_on_c, 3, 62, 72
9, 21689, Note_on_c, 3, 62, 0
9, 21690, Note_on_c, 3, 61, 72
9, 21719, Note_on_c, 3, 61, 0
9, 21720, Note_on_c, 3, 61, 72
9, 21839, Note_on_c, 3, 61, 0
9, 21900, Note_on_c, 3, 67, 72
9, 22019, Note_on_c, 3, 67, 0
9, 22020, Note_on_c, 3, 67, 72
9, 22079, Note_on_c, 3, 67, 0
9, 22080, Note_on_c, 3, 67, 72
9, 22199, Note_on_c, 3, 67, 0
9, 22200, Note_on_c, 3, 66, 72
9, 22319, Note_on_c, 3, 66, 0
9, 22380, Note_on_c, 3, 65, 72
9, 22439, Note_on_c, 3, 65, 0
9, 22440, Note_on_c, 3, 65, 72
9, 22499, Note_on_c, 3, 65, 0
9, 22500, Note_on_c, 3, 65, 72
9, 22559, Note_on_c, 3, 65, 0
9, 22560, Note_on_c, 3, 65, 72
9, 22649, Note_on_c, 3, 65, 0
9, 22650, Note_on_c, 3, 63, 72
9, 22679, Note_on_c, 3, 63, 0
9, 22680, Note_on_c, 3, 63, 72
9, 22799, Note_on_c, 3, 63, 0
9, 22860, Note_on_c, 3, 63, 72
9, 22919, Note_on_c, 3, 63, 0
9, 22920, Note_on_c, 3, 60, 72
9, 22979, Note_on_c, 3, 60, 0
9, 22980, Note_on_c, 3, 62, 72
9, 23009, Note_on_c, 3, 62, 0
9, 23010, Note_on_c, 3, 63, 72
9, 23039, Note_on_c, 3, 63, 0
9, 23040, Note_on_c, 3, 57, 72
9, 23159, Note_on_c, 3, 57, 0
9, 23160, Note_on_c, 3, 62, 72
9, 23279, Note_on_c, 3, 62, 0
9, 23340, Note_on_c, 3, 55, 72
9, 23459, Note_on_c, 3, 55, 0
9, 23460, Note_on_c, 3, 67, 72
9, 23519, Note_on_c, 3, 67, 0
9, 23520, Note_on_c, 3, 67, 72
9, 23639, Note_on_c, 3, 67, 0
9, 23640, Note_on_c, 3, 64, 72
9, 23759, Note_on_c, 3, 64, 0
9, 23760, Note_on_c, 3, 61, 72
9, 23879, Note_on_c, 3, 61, 0
9, 23880, Note_on_c, 3, 57, 72
9, 23999, Note_on_c, 3, 57, 0
9, 24000, Note_on_c, 3, 62, 72
9, 24119, Note_on_c, 3, 62, 0
9, 25020, Note_on_c, 3, 58, 72
9, 25079, Note_on_c, 3, 58, 0
9, 25080, Note_on_c, 3, 58, 72
9, 25139, Note_on_c, 3, 58, 0
9, 25140, Note_on_c, 3, 58, 72
9, 25199, Note_on_c, 3, 58, 0
9, 25200, Note_on_c, 3, 58, 72
9, 25289, Note_on_c, 3, 58, 0
9, 25290, Note_on_c, 3, 57, 72
9, 25319, Note_on_c, 3, 57, 0
9, 25320, Note_on_c, 3, 57, 72
9, 25439, Note_on_c, 3, 57, 0
9, 25500, Note_on_c, 3, 63, 72
9, 25619, Note_on_c, 3, 63, 0
9, 25620, Note_on_c, 3, 63, 72
9, 25679, Note_on_c, 3, 63, 0
9, 25680, Note_on_c, 3, 63, 72
9, 25799, Note_on_c, 3, 63, 0
9, 25800, Note_on_c, 3, 62, 72
9, 25919, Note_on_c, 3, 62, 0
9, 26220, Note_on_c, 3, 60, 72
9, 26279, Note_on_c, 3, 60, 0
9, 26280, Note_on_c, 3, 60, 72
9, 26339, Note_on_c, 3, 60, 0
9, 26340, Note_on_c, 3, 60, 72
9, 26399, Note_on_c, 3, 60, 0
9, 26400, Note_on_c, 3, 60, 72
9, 26489, Note_on_c, 3, 60, 0
9, 26490, Note_on_c, 3, 59, 72
9, 26519, Note_on_c, 3, 59, 0
9, 26520, Note_on_c, 3, 59, 72
9, 26639, Note_on_c, 3, 59, 0
9, 26700, Note_on_c, 3, 65, 72
9, 26819, Note_on_c, 3, 65, 0
9, 26820, Note_on_c, 3, 65, 72
9, 26879, Note_on_c, 3, 65, 0
9, 26880, Note_on_c, 3, 65, 72
9, 26999, Note_on_c, 3, 65, 0
9, 27000, Note_on_c, 3, 64, 72
9, 27119, Note_on_c, 3, 64, 0
9, 27180, Note_on_c, 3, 67, 72
9, 27239, Note_on_c, 3, 67, 0
9, 27240, Note_on_c, 3, 67, 72
9, 27299, Note_on_c, 3, 67, 0
9, 27300, Note_on_c, 3, 67, 72
9, 27359, Note_on_c, 3, 67, 0
9, 27360, Note_on_c, 3, 67, 72
9, 27449, Note_on_c, 3, 67, 0
9, 27450, Note_on_c, 3, 66, 72
9, 27479, Note_on_c, 3, 66, 0
9, 27480, Note_on_c, 3, 66, 72
9, 27599, Note_on_c, 3, 66, 0
9, 27660, Note_on_c, 3, 67, 72
9, 27719, Note_on_c, 3, 67, 0
9, 27720, Note_on_c, 3, 63, 72
9, 27779, Note_on_c, 3, 63, 0
9, 27780, Note_on_c, 3, 60, 72
9, 27839, Note_on_c, 3, 60, 0
9, 27840, Note_on_c, 3, 60, 72
9, 27929, Note_on_c, 3, 60, 0
9, 27930, Note_on_c, 3, 65, 72
9, 27959, Note_on_c, 3, 65, 0
9, 27960, Note_on_c, 3, 65, 72
9, 28079, Note_on_c, 3, 65, 0
9, 28140, Note_on_c, 3, 63, 72
9, 28259, Note_on_c, 3, 63, 0
9, 28260, Note_on_c, 3, 57, 72
9, 28319, Note_on_c, 3, 57, 0
9, 28320, Note_on_c, 3, 57, 72
9, 28379, Note_on_c, 3, 57, 0
9, 28380, Note_on_c, 3, 62, 72
9, 28439, Note_on_c, 3, 62, 0
9, 28440, Note_on_c, 3, 62, 72
9, 28499, Note_on_c, 3, 62, 0
9, 28500, Note_on_c, 3, 58, 72
9, 28559, Note_on_c, 3, 58, 0
9, 28560, Note_on_c, 3, 55, 72
9, 28799, Note_on_c, 3, 55, 0
9, 28800, Note_on_c, 3, 57, 72
9, 28919, Note_on_c, 3, 57, 0
9, 29100, Note_on_c, 3, 58, 72
9, 29159, Note_on_c, 3, 58, 0
9, 29160, Note_on_c, 3, 58, 72
9, 29219, Note_on_c, 3, 58, 0
9, 29220, Note_on_c, 3, 58, 72
9, 29279, Note_on_c, 3, 58, 0
9, 29280, Note_on_c, 3, 58, 72
9, 29369, Note_on_c, 3, 58, 0
9, 29370, Note_on_c, 3, 60, 72
9, 29399, Note_on_c, 3, 60, 0
9, 29400, Note_on_c, 3, 60, 72
9, 29519, Note_on_c, 3, 60, 0
9, 29580, Note_on_c, 3, 57, 72
9, 29699, Note_on_c, 3, 57, 0
9, 29700, Note_on_c, 3, 57, 72
9, 29759, Note_on_c, 3, 57, 0
9, 29760, Note_on_c, 3, 57, 72
9, 29819, Note_on_c, 3, 57, 0
9, 29820, Note_on_c, 3, 58, 72
9, 29879, Note_on_c, 3, 58, 0
9, 29880, Note_on_c, 3, 58, 72
9, 29999, Note_on_c, 3, 58, 0
9, 30060, Note_on_c, 3, 55, 72
9, 30119, Note_on_c, 3, 55, 0
9, 30120, Note_on_c, 3, 55, 72
9, 30179, Note_on_c, 3, 55, 0
9, 30180, Note_on_c, 3, 55, 72
9, 30239, Note_on_c, 3, 55, 0
9, 30240, Note_on_c, 3, 55, 72
9, 30329, Note_on_c, 3, 55, 0
9, 30330, Note_on_c, 3, 57, 72
9, 30359, Note_on_c, 3, 57, 0
9, 30360, Note_on_c, 3, 57, 72
9, 30479, Note_on_c, 3, 57, 0
9, 30540, Note_on_c, 3, 58, 72
9, 30659, Note_on_c, 3, 58, 0
9, 30660, Note_on_c, 3, 58, 72
9, 30719, Note_on_c, 3, 58, 0
9, 30720, Note_on_c, 3, 55, 72
9, 30779, Note_on_c, 3, 55, 0
9, 30780, Note_on_c, 3, 58, 72
9, 30839, Note_on_c, 3, 58, 0
9, 30840, Note_on_c, 3, 58, 72
9, 30959, Note_on_c, 3, 58, 0
9, 31080, Note_on_c, 3, 58, 48
9, 31199, Note_on_c, 3, 58, 0
9, 31200, Note_on_c, 3, 57, 48
9, 31319, Note_on_c, 3, 57, 0
9, 31320, Note_on_c, 3, 55, 48
9, 31439, Note_on_c, 3, 55, 0
9, 31440, Note_on_c, 3, 55, 48
9, 31679, Note_on_c, 3, 55, 0
9, 31680, Note_on_c, 3, 58, 48
9, 31799, Note_on_c, 3, 58, 0
9, 33900, Note_on_c, 3, 58, 72
9, 33959, Note_on_c, 3, 58, 0
9, 33960, Note_on_c, 3, 55, 72
9, 34019, Note_on_c, 3, 55, 0
9, 34020, Note_on_c, 3, 58, 72
9, 34079, Note_on_c, 3, 58, 0
9, 34080, Note_on_c, 3, 57, 72
9, 34169, Note_on_c, 3, 57, 0
9, 34170, Note_on_c, 3, 62, 72
9, 34199, Note_on_c, 3, 62, 0
9, 34200, Note_on_c, 3, 62, 72
9, 34319, Note_on_c, 3, 62, 0
9, 34380, Note_on_c, 3, 57, 72
9, 34439, Note_on_c, 3, 57, 0
9, 34440, Note_on_c, 3, 53, 72
9, 34499, Note_on_c, 3, 53, 0
9, 34500, Note_on_c, 3, 57, 72
9, 34559, Note_on_c, 3, 57, 0
9, 34560, Note_on_c, 3, 55, 72
9, 34679, Note_on_c, 3, 55, 0
9, 34680, Note_on_c, 3, 60, 72
9, 34799, Note_on_c, 3, 60, 0
9, 34860, Note_on_c, 3, 55, 72
9, 34919, Note_on_c, 3, 55, 0
9, 34920, Note_on_c, 3, 55, 72
9, 34979, Note_on_c, 3, 55, 0
9, 34980, Note_on_c, 3, 55, 72
9, 35039, Note_on_c, 3, 55, 0
9, 35040, Note_on_c, 3, 57, 72
9, 35099, Note_on_c, 3, 57, 0
9, 35100, Note_on_c, 3, 57, 72
9, 35159, Note_on_c, 3, 57, 0
9, 35160, Note_on_c, 3, 62, 72
9, 35219, Note_on_c, 3, 62, 0
9, 35220, Note_on_c, 3, 63, 72
9, 35279, Note_on_c, 3, 63, 0
9, 35280, Note_on_c, 3, 62, 72
9, 35519, Note_on_c, 3, 62, 0
9, 35520, Note_on_c, 3, 62, 72
9, 35639, Note_on_c, 3, 62, 0
9, 35880, Note_on_c, 3, 59, 72
9, 35999, Note_on_c, 3, 59, 0
9, 36000, Note_on_c, 3, 60, 72
9, 36119, Note_on_c, 3, 60, 0
9, 36120, Note_on_c, 3, 59, 72
9, 36239, Note_on_c, 3, 59, 0
9, 36240, Note_on_c, 3, 60, 72
9, 36359, Note_on_c, 3, 60, 0
9, 36360, Note_on_c, 3, 62, 72
9, 36599, Note_on_c, 3, 62, 0
9, 36600, Note_on_c, 3, 60, 72
9, 36659, Note_on_c, 3, 60, 0
9, 36660, Note_on_c, 3, 59, 72
9, 36719, Note_on_c, 3, 59, 0
9, 36720, Note_on_c, 3, 60, 72
9, 36959, Note_on_c, 3, 60, 0
9, 36960, Note_on_c, 3, 59, 72
9, 37439, Note_on_c, 3, 59, 0
9, 37439, End_track
10, 0, Start_track
10, 0, Title_t, "Baritone Trombone"
10, 0, MIDI_port, 0
10, 0, Control_c, 3, 7, 96
10, 0, Control_c, 3, 10, 96
10, 0, Control_c, 3, 11, 127
10, 0, Program_c, 3, 57
10, 900, Note_on_c, 3, 55, 72
10, 959, Note_on_c, 3, 55, 0
10, 960, Note_on_c, 3, 51, 72
10, 1079, Note_on_c, 3, 51, 0
10, 1080, Note_on_c, 3, 58, 72
10, 1199, Note_on_c, 3, 58, 0
10, 1200, Note_on_c, 3, 60, 72
10, 1319, Note_on_c, 3, 60, 0
10, 1320, Note_on_c, 3, 55, 72
10, 1439, Note_on_c, 3, 55, 0
10, 7620, Note_on_c, 3, 56, 72
10, 7679, Note_on_c, 3, 56, 0
10, 7680, Note_on_c, 3, 54, 72
10, 7799, Note_on_c, 3, 54, 0
10, 7800, Note_on_c, 3, 53, 72
10, 7859, Note_on_c, 3, 53, 0
10, 7860, Note_on_c, 3, 53, 72
10, 7919, Note_on_c, 3, 53, 0
10, 7920, Note_on_c, 3, 52, 72
10, 8039, Note_on_c, 3, 52, 0
10, 8040, Note_on_c, 3, 53, 72
10, 8099, Note_on_c, 3, 53, 0
10, 9060, Note_on_c, 3, 58, 72
10, 9119, Note_on_c, 3, 58, 0
10, 9120, Note_on_c, 3, 56, 72
10, 9239, Note_on_c, 3, 56, 0
10, 9240, Note_on_c, 3, 55, 72
10, 9299, Note_on_c, 3, 55, 0
10, 9300, Note_on_c, 3, 55, 72
10, 9359, Note_on_c, 3, 55, 0
10, 9360, Note_on_c, 3, 54, 72
10, 9479, Note_on_c, 3, 54, 0
10, 9480, Note_on_c, 3, 55, 72
10, 9539, Note_on_c, 3, 55, 0
10, 12600, Note_on_c, 3, 62, 72
10, 12659, Note_on_c, 3, 62, 0
10, 12660, Note_on_c, 3, 62, 72
10, 12719, Note_on_c, 3, 62, 0
10, 12720, Note_on_c, 3, 51, 72
10, 12839, Note_on_c, 3, 51, 0
10, 12840, Note_on_c, 3, 60, 72
10, 12899, Note_on_c, 3, 60, 0
10, 12900, Note_on_c, 3, 60, 72
10, 12959, Note_on_c, 3, 60, 0
10, 12960, Note_on_c, 3, 50, 72
10, 13079, Note_on_c, 3, 50, 0
10, 13080, Note_on_c, 3, 58, 72
10, 13139, Note_on_c, 3, 58, 0
10, 13140, Note_on_c, 3, 58, 72
10, 13199, Note_on_c, 3, 58, 0
10, 13200, Note_on_c, 3, 48, 72
10, 13259, Note_on_c, 3, 48, 0
10, 13260, Note_on_c, 3, 58, 72
10, 13319, Note_on_c, 3, 58, 0
10, 13320, Note_on_c, 3, 57, 72
10, 13379, Note_on_c, 3, 57, 0
10, 13380, Note_on_c, 3, 48, 72
10, 13439, Note_on_c, 3, 48, 0
10, 13440, Note_on_c, 3, 46, 72
10, 13499, Note_on_c, 3, 46, 0
10, 13500, Note_on_c, 3, 43, 72
10, 13559, Note_on_c, 3, 43, 0
10, 13860, Note_on_c, 3, 62, 72
10, 13919, Note_on_c, 3, 62, 0
10, 13920, Note_on_c, 3, 58, 72
10, 13979, Note_on_c, 3, 58, 0
10, 13980, Note_on_c, 3, 55, 72
10, 14039, Note_on_c, 3, 55, 0
10, 14040, Note_on_c, 3, 53, 72
10, 14159, Note_on_c, 3, 53, 0
10, 20700, Note_on_c, 3, 55, 72
10, 20759, Note_on_c, 3, 55, 0
10, 20760, Note_on_c, 3, 55, 72
10, 20819, Note_on_c, 3, 55, 0
10, 20820, Note_on_c, 3, 55, 72
10, 20879, Note_on_c, 3, 55, 0
10, 20880, Note_on_c, 3, 55, 72
10, 20969, Note_on_c, 3, 55, 0
10, 20970, Note_on_c, 3, 54, 72
10, 20999, Note_on_c, 3, 54, 0
10, 21000, Note_on_c, 3, 54, 72
10, 21119, Note_on_c, 3, 54, 0
10, 21180, Note_on_c, 3, 60, 72
10, 21299, Note_on_c, 3, 60, 0
10, 21300, Note_on_c, 3, 60, 72
10, 21359, Note_on_c, 3, 60, 0
10, 21360, Note_on_c, 3, 60, 72
10, 21479, Note_on_c, 3, 60, 0
10, 21480, Note_on_c, 3, 58, 72
10, 21599, Note_on_c, 3, 58, 0
10, 21660, Note_on_c, 3, 58, 72
10, 21719, Note_on_c, 3, 58, 0
10, 21720, Note_on_c, 3, 55, 72
10, 21779, Note_on_c, 3, 55, 0
10, 21780, Note_on_c, 3, 57, 72
10, 21809, Note_on_c, 3, 57, 0
10, 21810, Note_on_c, 3, 58, 72
10, 21839, Note_on_c, 3, 58, 0
10, 21840, Note_on_c, 3, 52, 72
10, 21959, Note_on_c, 3, 52, 0
10, 21960, Note_on_c, 3, 57, 72
10, 22079, Note_on_c, 3, 57, 0
10, 22140, Note_on_c, 3, 60, 72
10, 22199, Note_on_c, 3, 60, 0
10, 22200, Note_on_c, 3, 60, 72
10, 22259, Note_on_c, 3, 60, 0
10, 22260, Note_on_c, 3, 60, 72
10, 22319, Note_on_c, 3, 60, 0
10, 22320, Note_on_c, 3, 60, 72
10, 22409, Note_on_c, 3, 60, 0
10, 22410, Note_on_c, 3, 59, 72
10, 22439, Note_on_c, 3, 59, 0
10, 22440, Note_on_c, 3, 59, 72
10, 22559, Note_on_c, 3, 59, 0
10, 22620, Note_on_c, 3, 60, 72
10, 22739, Note_on_c, 3, 60, 0
10, 22740, Note_on_c, 3, 63, 72
10, 22799, Note_on_c, 3, 63, 0
10, 22800, Note_on_c, 3, 60, 72
10, 22919, Note_on_c, 3, 60, 0
10, 22920, Note_on_c, 3, 57, 72
10, 23039, Note_on_c, 3, 57, 0
10, 23040, Note_on_c, 3, 54, 72
10, 23159, Note_on_c, 3, 54, 0
10, 23160, Note_on_c, 3, 50, 72
10, 23279, Note_on_c, 3, 50, 0
10, 23280, Note_on_c, 3, 55, 72
10, 23399, Note_on_c, 3, 55, 0
10, 25740, Note_on_c, 3, 56, 72
10, 25799, Note_on_c, 3, 56, 0
10, 25800, Note_on_c, 3, 53, 72
10, 25859, Note_on_c, 3, 53, 0
10, 25860, Note_on_c, 3, 55, 72
10, 25889, Note_on_c, 3, 55, 0
10, 25890, Note_on_c, 3, 56, 72
10, 25919, Note_on_c, 3, 56, 0
10, 25920, Note_on_c, 3, 50, 72
10, 26039, Note_on_c, 3, 50, 0
10, 26040, Note_on_c, 3, 55, 72
10, 26159, Note_on_c, 3, 55, 0
10, 26940, Note_on_c, 3, 58, 72
10, 26999, Note_on_c, 3, 58, 0
10, 27000, Note_on_c, 3, 55, 72
10, 27059, Note_on_c, 3, 55, 0
10, 27060, Note_on_c, 3, 57, 72
10, 27089, Note_on_c, 3, 57, 0
10, 27090, Note_on_c, 3, 58, 72
10, 27119, Note_on_c, 3, 58, 0
10, 27120, Note_on_c, 3, 52, 72
10, 27239, Note_on_c, 3, 52, 0
10, 27240, Note_on_c, 3, 57, 72
10, 27359, Note_on_c, 3, 57, 0
10, 27420, Note_on_c, 3, 62, 72
10, 27479, Note_on_c, 3, 62, 0
10, 27480, Note_on_c, 3, 62, 72
10, 27539, Note_on_c, 3, 62, 0
10, 27540, Note_on_c, 3, 62, 72
10, 27599, Note_on_c, 3, 62, 0
10, 27600, Note_on_c, 3, 63, 72
10, 27689, Note_on_c, 3, 63, 0
10, 27690, Note_on_c, 3, 51, 72
10, 27719, Note_on_c, 3, 51, 0
10, 27720, Note_on_c, 3, 51, 72
10, 27839, Note_on_c, 3, 51, 0
10, 27900, Note_on_c, 3, 62, 72
10, 28019, Note_on_c, 3, 62, 0
10, 28020, Note_on_c, 3, 62, 72
10, 28079, Note_on_c, 3, 62, 0
10, 28080, Note_on_c, 3, 60, 72
10, 28199, Note_on_c, 3, 60, 0
10, 28200, Note_on_c, 3, 48, 72
10, 28319, Note_on_c, 3, 48, 0
10, 28380, Note_on_c, 3, 58, 72
10, 28499, Note_on_c, 3, 58, 0
10, 28500, Note_on_c, 3, 55, 72
10, 28559, Note_on_c, 3, 55, 0
10, 28560, Note_on_c, 3, 51, 72
10, 28799, Note_on_c, 3, 51, 0
10, 28800, Note_on_c, 3, 50, 72
10, 28919, Note_on_c, 3, 50, 0
10, 29100, Note_on_c, 3, 50, 72
10, 29159, Note_on_c, 3, 50, 0
10, 29160, Note_on_c, 3, 50, 72
10, 29219, Note_on_c, 3, 50, 0
10, 29220, Note_on_c, 3, 50, 72
10, 29279, Note_on_c, 3, 50, 0
10, 29280, Note_on_c, 3, 50, 72
10, 29369, Note_on_c, 3, 50, 0
10, 29370, Note_on_c, 3, 50, 72
10, 29399, Note_on_c, 3, 50, 0
10, 29400, Note_on_c, 3, 50, 72
10, 29519, Note_on_c, 3, 50, 0
10, 29580, Note_on_c, 3, 50, 72
10, 29699, Note_on_c, 3, 50, 0
10, 29700, Note_on_c, 3, 50, 72
10, 29759, Note_on_c, 3, 50, 0
10, 29760, Note_on_c, 3, 50, 72
10, 29879, Note_on_c, 3, 50, 0
10, 29880, Note_on_c, 3, 50, 72
10, 29999, Note_on_c, 3, 50, 0
10, 30060, Note_on_c, 3, 50, 72
10, 30119, Note_on_c, 3, 50, 0
10, 30120, Note_on_c, 3, 50, 72
10, 30179, Note_on_c, 3, 50, 0
10, 30180, Note_on_c, 3, 50, 72
10, 30239, Note_on_c, 3, 50, 0
10, 30240, Note_on_c, 3, 50, 72
10, 30329, Note_on_c, 3, 50, 0
10, 30330, Note_on_c, 3, 50, 72
10, 30359, Note_on_c, 3, 50, 0
10, 30360, Note_on_c, 3, 50, 72
10, 30479, Note_on_c, 3, 50, 0
10, 30540, Note_on_c, 3, 50, 72
10, 30659, Note_on_c, 3, 50, 0
10, 30660, Note_on_c, 3, 50, 72
10, 30719, Note_on_c, 3, 50, 0
10, 30720, Note_on_c, 3, 49, 72
10, 30839, Note_on_c, 3, 49, 0
10, 30840, Note_on_c, 3, 49, 72
10, 30959, Note_on_c, 3, 49, 0
10, 31080, Note_on_c, 3, 49, 48
10, 31199, Note_on_c, 3, 49, 0
10, 31200, Note_on_c, 3, 50, 48
10, 31319, Note_on_c, 3, 50, 0
10, 31320, Note_on_c, 3, 51, 48
10, 31439, Note_on_c, 3, 51, 0
10, 31440, Note_on_c, 3, 50, 48
10, 31679, Note_on_c, 3, 50, 0
10, 31680, Note_on_c, 3, 43, 48
10, 31799, Note_on_c, 3, 43, 0
10, 33660, Note_on_c, 3, 55, 72
10, 33719, Note_on_c, 3, 55, 0
10, 33720, Note_on_c, 3, 58, 72
10, 33779, Note_on_c, 3, 58, 0
10, 33780, Note_on_c, 3, 55, 72
10, 33839, Note_on_c, 3, 55, 0
10, 33840, Note_on_c, 3, 63, 72
10, 33929, Note_on_c, 3, 63, 0
10, 33930, Note_on_c, 3, 55, 72
10, 33959, Note_on_c, 3, 55, 0
10, 33960, Note_on_c, 3, 55, 72
10, 34079, Note_on_c, 3, 55, 0
10, 34140, Note_on_c, 3, 54, 72
10, 34199, Note_on_c, 3, 54, 0
10, 34200, Note_on_c, 3, 57, 72
10, 34259, Note_on_c, 3, 57, 0
10, 34260, Note_on_c, 3, 54, 72
10, 34319, Note_on_c, 3, 54, 0
10, 34320, Note_on_c, 3, 62, 72
10, 34439, Note_on_c, 3, 62, 0
10, 34440, Note_on_c, 3, 53, 72
10, 34559, Note_on_c, 3, 53, 0
10, 34620, Note_on_c, 3, 52, 72
10, 34679, Note_on_c, 3, 52, 0
10, 34680, Note_on_c, 3, 55, 72
10, 34739, Note_on_c, 3, 55, 0
10, 34740, Note_on_c, 3, 52, 72
10, 34799, Note_on_c, 3, 52, 0
10, 34800, Note_on_c, 3, 60, 72
10, 34859, Note_on_c, 3, 60, 0
10, 34860, Note_on_c, 3, 51, 72
10, 34919, Note_on_c, 3, 51, 0
10, 34920, Note_on_c, 3, 51, 72
10, 34979, Note_on_c, 3, 51, 0
10, 34980, Note_on_c, 3, 51, 72
10, 35039, Note_on_c, 3, 51, 0
10, 35040, Note_on_c, 3, 50, 72
10, 35099, Note_on_c, 3, 50, 0
10, 35100, Note_on_c, 3, 54, 72
10, 35159, Note_on_c, 3, 54, 0
10, 35160, Note_on_c, 3, 55, 72
10, 35219, Note_on_c, 3, 55, 0
10, 35220, Note_on_c, 3, 48, 72
10, 35279, Note_on_c, 3, 48, 0
10, 35280, Note_on_c, 3, 50, 72
10, 35519, Note_on_c, 3, 50, 0
10, 35520, Note_on_c, 3, 55, 72
10, 35639, Note_on_c, 3, 55, 0
10, 35880, Note_on_c, 3, 55, 72
10, 35999, Note_on_c, 3, 55, 0
10, 36000, Note_on_c, 3, 51, 72
10, 36119, Note_on_c, 3, 51, 0
10, 36120, Note_on_c, 3, 55, 72
10, 36239, Note_on_c, 3, 55, 0
10, 36240, Note_on_c, 3, 51, 72
10, 36359, Note_on_c, 3, 51, 0
10, 36360, Note_on_c, 3, 47, 72
10, 36479, Note_on_c, 3, 47, 0
10, 36480, Note_on_c, 3, 48, 72
10, 36959, Note_on_c, 3, 48, 0
10, 36960, Note_on_c, 3, 43, 72
10, 37439, Note_on_c, 3, 43, 0
10, 37439, End_track
11, 0, Start_track
11, 0, Title_t, "Violin I"
11, 0, MIDI_port, 0
11, 0, Program_c, 4, 48
11, 0, Control_c, 4, 7, 96
11, 0, Control_c, 4, 10, 48
11, 0, Control_c, 4, 11, 127
11, 0, Note_on_c, 4, 67, 48
11, 149, Note_on_c, 4, 67, 0
11, 150, Note_on_c, 4, 58, 48
11, 179, Note_on_c, 4, 58, 0
11, 180, Note_on_c, 4, 62, 48
11, 209, Note_on_c, 4, 62, 0
11, 210, Note_on_c, 4, 67, 48
11, 239, Note_on_c, 4, 67, 0
11, 240, Note_on_c, 4, 70, 48
11, 389, Note_on_c, 4, 70, 0
11, 390, Note_on_c, 4, 62, 48
11, 419, Note_on_c, 4, 62, 0
11, 420, Note_on_c, 4, 67, 48
11, 449, Note_on_c, 4, 67, 0
11, 450, Note_on_c, 4, 70, 48
11, 479, Note_on_c, 4, 70, 0
11, 480, Note_on_c, 4, 74, 48
11, 629, Note_on_c, 4, 74, 0
11, 630, Note_on_c, 4, 66, 48
11, 659, Note_on_c, 4, 66, 0
11, 660, Note_on_c, 4, 69, 48
11, 689, Note_on_c, 4, 69, 0
11, 690, Note_on_c, 4, 74, 48
11, 719, Note_on_c, 4, 74, 0
11, 720, Note_on_c, 4, 70, 48
11, 869, Note_on_c, 4, 70, 0
11, 870, Note_on_c, 4, 67, 72
11, 899, Note_on_c, 4, 67, 0
11, 900, Note_on_c, 4, 70, 72
11, 929, Note_on_c, 4, 70, 0
11, 930, Note_on_c, 4, 74, 72
11, 959, Note_on_c, 4, 74, 0
11, 960, Note_on_c, 4, 79, 72
11, 1049, Note_on_c, 4, 79, 0
11, 1050, Note_on_c, 4, 79, 72
11, 1079, Note_on_c, 4, 79, 0
11, 1080, Note_on_c, 4, 77, 72
11, 1139, Note_on_c, 4, 77, 0
11, 1140, Note_on_c, 4, 58, 72
11, 1199, Note_on_c, 4, 58, 0
11, 1200, Note_on_c, 4, 75, 72
11, 1289, Note_on_c, 4, 75, 0
11, 1290, Note_on_c, 4, 75, 72
11, 1319, Note_on_c, 4, 75, 0
11, 1320, Note_on_c, 4, 74, 72
11, 1379, Note_on_c, 4, 74, 0
11, 1380, Note_on_c, 4, 55, 72
11, 1439, Note_on_c, 4, 55, 0
11, 1440, Note_on_c, 4, 63, 48
11, 1499, Note_on_c, 4, 63, 0
11, 1500, Note_on_c, 4, 63, 48
11, 1559, Note_on_c, 4, 63, 0
11, 1560, Note_on_c, 4, 72, 48
11, 1739, Note_on_c, 4, 72, 0
11, 1740, Note_on_c, 4, 75, 48
11, 1799, Note_on_c, 4, 75, 0
11, 1800, Note_on_c, 4, 74, 48
11, 1859, Note_on_c, 4, 74, 0
11, 1860, Note_on_c, 4, 72, 48
11, 1919, Note_on_c, 4, 72, 0
11, 1920, Note_on_c, 4, 70, 48
11, 1979, Note_on_c, 4, 70, 0
11, 1980, Note_on_c, 4, 69, 48
11, 2009, Note_on_c, 4, 69, 0
11, 2010, Note_on_c, 4, 67, 48
11, 2039, Note_on_c, 4, 67, 0
11, 2040, Note_on_c, 4, 72, 48
11, 2219, Note_on_c, 4, 72, 0
11, 2220, Note_on_c, 4, 75, 48
11, 2279, Note_on_c, 4, 75, 0
11, 2280, Note_on_c, 4, 74, 48
11, 2339, Note_on_c, 4, 74, 0
11, 2340, Note_on_c, 4, 72, 48
11, 2399, Note_on_c, 4, 72, 0
11, 2400, Note_on_c, 4, 70, 48
11, 2459, Note_on_c, 4, 70, 0
11, 2460, Note_on_c, 4, 69, 48
11, 2489, Note_on_c, 4, 69, 0
11, 2490, Note_on_c, 4, 67, 48
11, 2519, Note_on_c, 4, 67, 0
11, 2520, Note_on_c, 4, 74, 48
11, 2699, Note_on_c, 4, 74, 0
11, 2700, Note_on_c, 4, 75, 48
11, 2759, Note_on_c, 4, 75, 0
11, 2760, Note_on_c, 4, 72, 48
11, 2879, Note_on_c, 4, 72, 0
11, 2880, Note_on_c, 4, 74, 48
11, 2999, Note_on_c, 4, 74, 0
11, 3060, Note_on_c, 4, 65, 72
11, 3119, Note_on_c, 4, 65, 0
11, 3120, Note_on_c, 4, 77, 72
11, 3239, Note_on_c, 4, 77, 0
11, 3240, Note_on_c, 4, 74, 72
11, 3299, Note_on_c, 4, 74, 0
11, 3300, Note_on_c, 4, 70, 48
11, 3359, Note_on_c, 4, 70, 0
11, 3360, Note_on_c, 4, 65, 48
11, 3419, Note_on_c, 4, 65, 0
11, 3420, Note_on_c, 4, 65, 48
11, 3539, Note_on_c, 4, 65, 0
11, 3540, Note_on_c, 4, 65, 48
11, 3659, Note_on_c, 4, 65, 0
11, 3660, Note_on_c, 4, 65, 48
11, 3779, Note_on_c, 4, 65, 0
11, 3780, Note_on_c, 4, 65, 48
11, 3869, Note_on_c, 4, 65, 0
11, 3870, Note_on_c, 4, 62, 72
11, 3929, Note_on_c, 4, 62, 0
11, 3930, Note_on_c, 4, 59, 72
11, 3989, Note_on_c, 4, 59, 0
11, 3990, Note_on_c, 4, 60, 72
11, 4049, Note_on_c, 4, 60, 0
11, 4050, Note_on_c, 4, 62, 72
11, 4079, Note_on_c, 4, 62, 0
11, 4080, Note_on_c, 4, 63, 72
11, 4139, Note_on_c, 4, 63, 0
11, 4140, Note_on_c, 4, 79, 72
11, 4199, Note_on_c, 4, 79, 0
11, 4200, Note_on_c, 4, 75, 72
11, 4259, Note_on_c, 4, 75, 0
11, 4260, Note_on_c, 4, 72, 48
11, 4319, Note_on_c, 4, 72, 0
11, 4320, Note_on_c, 4, 67, 48
11, 4379, Note_on_c, 4, 67, 0
11, 4380, Note_on_c, 4, 67, 48
11, 4499, Note_on_c, 4, 67, 0
11, 4500, Note_on_c, 4, 67, 48
11, 4619, Note_on_c, 4, 67, 0
11, 4620, Note_on_c, 4, 67, 48
11, 4739, Note_on_c, 4, 67, 0
11, 4740, Note_on_c, 4, 67, 48
11, 4799, Note_on_c, 4, 67, 0
11, 4800, Note_on_c, 4, 67, 48
11, 4919, Note_on_c, 4, 67, 0
11, 4920, Note_on_c, 4, 75, 48
11, 5159, Note_on_c, 4, 75, 0
11, 5160, Note_on_c, 4, 63, 48
11, 5219, Note_on_c, 4, 63, 0
11, 5220, Note_on_c, 4, 63, 48
11, 5279, Note_on_c, 4, 63, 0
11, 5280, Note_on_c, 4, 61, 48
11, 5339, Note_on_c, 4, 61, 0
11, 5340, Note_on_c, 4, 61, 48
11, 5399, Note_on_c, 4, 61, 0
11, 5400, Note_on_c, 4, 61, 48
11, 5459, Note_on_c, 4, 61, 0
11, 5460, Note_on_c, 4, 61, 48
11, 5519, Note_on_c, 4, 61, 0
11, 5520, Note_on_c, 4, 61, 48
11, 5579, Note_on_c, 4, 61, 0
11, 5580, Note_on_c, 4, 61, 48
11, 5639, Note_on_c, 4, 61, 0
11, 5640, Note_on_c, 4, 61, 48
11, 5699, Note_on_c, 4, 61, 0
11, 5700, Note_on_c, 4, 61, 48
11, 5759, Note_on_c, 4, 61, 0
11, 5760, Note_on_c, 4, 62, 48
11, 5819, Note_on_c, 4, 62, 0
11, 5820, Note_on_c, 4, 62, 48
11, 5879, Note_on_c, 4, 62, 0
11, 5880, Note_on_c, 4, 63, 48
11, 5939, Note_on_c, 4, 63, 0
11, 5940, Note_on_c, 4, 63, 48
11, 5999, Note_on_c, 4, 63, 0
11, 6000, Note_on_c, 4, 62, 48
11, 6059, Note_on_c, 4, 62, 0
11, 6060, Note_on_c, 4, 62, 48
11, 6119, Note_on_c, 4, 62, 0
11, 6120, Note_on_c, 4, 62, 48
11, 6179, Note_on_c, 4, 62, 0
11, 6180, Note_on_c, 4, 62, 48
11, 6239, Note_on_c, 4, 62, 0
11, 6240, Note_on_c, 4, 60, 72
11, 6389, Note_on_c, 4, 60, 0
11, 6390, Note_on_c, 4, 63, 72
11, 6419, Note_on_c, 4, 63, 0
11, 6420, Note_on_c, 4, 67, 72
11, 6449, Note_on_c, 4, 67, 0
11, 6450, Note_on_c, 4, 72, 72
11, 6479, Note_on_c, 4, 72, 0
11, 6480, Note_on_c, 4, 73, 72
11, 6629, Note_on_c, 4, 73, 0
11, 6630, Note_on_c, 4, 58, 72
11, 6659, Note_on_c, 4, 58, 0
11, 6660, Note_on_c, 4, 61, 72
11, 6689, Note_on_c, 4, 61, 0
11, 6690, Note_on_c, 4, 67, 72
11, 6719, Note_on_c, 4, 67, 0
11, 6720, Note_on_c, 4, 68, 48
11, 6869, Note_on_c, 4, 68, 0
11, 6870, Note_on_c, 4, 60, 48
11, 6899, Note_on_c, 4, 60, 0
11, 6900, Note_on_c, 4, 63, 48
11, 6929, Note_on_c, 4, 63, 0
11, 6930, Note_on_c, 4, 68, 48
11, 6959, Note_on_c, 4, 68, 0
11, 6960, Note_on_c, 4, 72, 48
11, 7109, Note_on_c, 4, 72, 0
11, 7110, Note_on_c, 4, 65, 48
11, 7139, Note_on_c, 4, 65, 0
11, 7140, Note_on_c, 4, 68, 48
11, 7169, Note_on_c, 4, 68, 0
11, 7170, Note_on_c, 4, 72, 48
11, 7199, Note_on_c, 4, 72, 0
11, 7200, Note_on_c, 4, 75, 48
11, 7349, Note_on_c, 4, 75, 0
11, 7350, Note_on_c, 4, 67, 48
11, 7379, Note_on_c, 4, 67, 0
11, 7380, Note_on_c, 4, 70, 48
11, 7409, Note_on_c, 4, 70, 0
11, 7410, Note_on_c, 4, 75, 48
11, 7439, Note_on_c, 4, 75, 0
11, 7440, Note_on_c, 4, 72, 48
11, 7589, Note_on_c, 4, 72, 0
11, 7590, Note_on_c, 4, 68, 48
11, 7619, Note_on_c, 4, 68, 0
11, 7620, Note_on_c, 4, 72, 72
11, 7649, Note_on_c, 4, 72, 0
11, 7650, Note_on_c, 4, 75, 72
11, 7679, Note_on_c, 4, 75, 0
11, 7680, Note_on_c, 4, 78, 72
11, 7709, Note_on_c, 4, 78, 0
11, 7710, Note_on_c, 4, 66, 72
11, 7739, Note_on_c, 4, 66, 0
11, 7740, Note_on_c, 4, 66, 72
11, 7769, Note_on_c, 4, 66, 0
11, 7770, Note_on_c, 4, 66, 72
11, 7799, Note_on_c, 4, 66, 0
11, 7800, Note_on_c, 4, 77, 72
11, 7829, Note_on_c, 4, 77, 0
11, 7830, Note_on_c, 4, 65, 72
11, 7859, Note_on_c, 4, 65, 0
11, 7860, Note_on_c, 4, 65, 72
11, 7889, Note_on_c, 4, 65, 0
11, 7890, Note_on_c, 4, 65, 72
11, 7919, Note_on_c, 4, 65, 0
11, 7920, Note_on_c, 4, 76, 72
11, 7949, Note_on_c, 4, 76, 0
11, 7950, Note_on_c, 4, 64, 72
11, 7979, Note_on_c, 4, 64, 0
11, 7980, Note_on_c, 4, 64, 72
11, 8009, Note_on_c, 4, 64, 0
11, 8010, Note_on_c, 4, 64, 72
11, 8039, Note_on_c, 4, 64, 0
11, 8040, Note_on_c, 4, 77, 72
11, 8099, Note_on_c, 4, 77, 0
11, 8160, Note_on_c, 4, 70, 48
11, 8309, Note_on_c, 4, 70, 0
11, 8310, Note_on_c, 4, 61, 48
11, 8339, Note_on_c, 4, 61, 0
11, 8340, Note_on_c, 4, 65, 48
11, 8369, Note_on_c, 4, 65, 0
11, 8370, Note_on_c, 4, 70, 48
11, 8399, Note_on_c, 4, 70, 0
11, 8400, Note_on_c, 4, 73, 48
11, 8549, Note_on_c, 4, 73, 0
11, 8550, Note_on_c, 4, 64, 48
11, 8579, Note_on_c, 4, 64, 0
11, 8580, Note_on_c, 4, 70, 48
11, 8609, Note_on_c, 4, 70, 0
11, 8610, Note_on_c, 4, 73, 48
11, 8639, Note_on_c, 4, 73, 0
11, 8640, Note_on_c, 4, 77, 48
11, 8789, Note_on_c, 4, 77, 0
11, 8790, Note_on_c, 4, 69, 48
11, 8819, Note_on_c, 4, 69, 0
11, 8820, Note_on_c, 4, 72, 48
11, 8849, Note_on_c, 4, 72, 0
11, 8850, Note_on_c, 4, 77, 48
11, 8879, Note_on_c, 4, 77, 0
11, 8880, Note_on_c, 4, 74, 48
11, 9029, Note_on_c, 4, 74, 0
11, 9030, Note_on_c, 4, 62, 48
11, 9059, Note_on_c, 4, 62, 0
11, 9060, Note_on_c, 4, 65, 72
11, 9089, Note_on_c, 4, 65, 0
11, 9090, Note_on_c, 4, 70, 72
11, 9119, Note_on_c, 4, 70, 0
11, 9120, Note_on_c, 4, 80, 72
11, 9149, Note_on_c, 4, 80, 0
11, 9150, Note_on_c, 4, 68, 72
11, 9179, Note_on_c, 4, 68, 0
11, 9180, Note_on_c, 4, 68, 72
11, 9209, Note_on_c, 4, 68, 0
11, 9210, Note_on_c, 4, 68, 72
11, 9239, Note_on_c, 4, 68, 0
11, 9240, Note_on_c, 4, 79, 72
11, 9269, Note_on_c, 4, 79, 0
11, 9270, Note_on_c, 4, 67, 72
11, 9299, Note_on_c, 4, 67, 0
11, 9300, Note_on_c, 4, 67, 72
11, 9329, Note_on_c, 4, 67, 0
11, 9330, Note_on_c, 4, 67, 72
11, 9359, Note_on_c, 4, 67, 0
11, 9360, Note_on_c, 4, 78, 72
11, 9389, Note_on_c, 4, 78, 0
11, 9390, Note_on_c, 4, 66, 72
11, 9419, Note_on_c, 4, 66, 0
11, 9420, Note_on_c, 4, 66, 72
11, 9449, Note_on_c, 4, 66, 0
11, 9450, Note_on_c, 4, 66, 72
11, 9479, Note_on_c, 4, 66, 0
11, 9480, Note_on_c, 4, 79, 72
11, 9539, Note_on_c, 4, 79, 0
11, 9600, Note_on_c, 4, 55, 72
11, 9629, Note_on_c, 4, 55, 0
11, 9630, Note_on_c, 4, 59, 72
11, 9659, Note_on_c, 4, 59, 0
11, 9660, Note_on_c, 4, 62, 72
11, 9689, Note_on_c, 4, 62, 0
11, 9690, Note_on_c, 4, 67, 72
11, 9719, Note_on_c, 4, 67, 0
11, 9720, Note_on_c, 4, 63, 72
11, 9749, Note_on_c, 4, 63, 0
11, 9750, Note_on_c, 4, 67, 72
11, 9779, Note_on_c, 4, 67, 0
11, 9780, Note_on_c, 4, 60, 72
11, 9809, Note_on_c, 4, 60, 0
11, 9810, Note_on_c, 4, 63, 72
11, 9839, Note_on_c, 4, 63, 0
11, 9840, Note_on_c, 4, 65, 72
11, 9869, Note_on_c, 4, 65, 0
11, 9870, Note_on_c, 4, 68, 72
11, 9899, Note_on_c, 4, 68, 0
11, 9900, Note_on_c, 4, 63, 72
11, 9929, Note_on_c, 4, 63, 0
11, 9930, Note_on_c, 4, 72, 72
11, 9959, Note_on_c, 4, 72, 0
11, 9960, Note_on_c, 4, 62, 72
11, 9989, Note_on_c, 4, 62, 0
11, 9990, Note_on_c, 4, 65, 72
11, 10019, Note_on_c, 4, 65, 0
11, 10020, Note_on_c, 4, 58, 72
11, 10049, Note_on_c, 4, 58, 0
11, 10050, Note_on_c, 4, 62, 72
11, 10079, Note_on_c, 4, 62, 0
11, 10080, Note_on_c, 4, 63, 72
11, 10109, Note_on_c, 4, 63, 0
11, 10110, Note_on_c, 4, 67, 72
11, 10139, Note_on_c, 4, 67, 0
11, 10140, Note_on_c, 4, 62, 72
11, 10169, Note_on_c, 4, 62, 0
11, 10170, Note_on_c, 4, 70, 72
11, 10199, Note_on_c, 4, 70, 0
11, 10200, Note_on_c, 4, 60, 72
11, 10229, Note_on_c, 4, 60, 0
11, 10230, Note_on_c, 4, 63, 72
11, 10259, Note_on_c, 4, 63, 0
11, 10260, Note_on_c, 4, 57, 72
11, 10289, Note_on_c, 4, 57, 0
11, 10290, Note_on_c, 4, 60, 72
11, 10319, Note_on_c, 4, 60, 0
11, 10320, Note_on_c, 4, 62, 72
11, 10349, Note_on_c, 4, 62, 0
11, 10350, Note_on_c, 4, 65, 72
11, 10379, Note_on_c, 4, 65, 0
11, 10380, Note_on_c, 4, 60, 72
11, 10409, Note_on_c, 4, 60, 0
11, 10410, Note_on_c, 4, 68, 72
11, 10439, Note_on_c, 4, 68, 0
11, 10440, Note_on_c, 4, 59, 72
11, 10469, Note_on_c, 4, 59, 0
11, 10470, Note_on_c, 4, 62, 72
11, 10499, Note_on_c, 4, 62, 0
11, 10500, Note_on_c, 4, 55, 72
11, 10529, Note_on_c, 4, 55, 0
11, 10530, Note_on_c, 4, 59, 72
11, 10559, Note_on_c, 4, 59, 0
11, 10560, Note_on_c, 4, 60, 72
11, 10589, Note_on_c, 4, 60, 0
11, 10590, Note_on_c, 4, 63, 72
11, 10619, Note_on_c, 4, 63, 0
11, 10620, Note_on_c, 4, 67, 72
11, 10649, Note_on_c, 4, 67, 0
11, 10650, Note_on_c, 4, 65, 72
11, 10679, Note_on_c, 4, 65, 0
11, 10680, Note_on_c, 4, 64, 72
11, 10709, Note_on_c, 4, 64, 0
11, 10710, Note_on_c, 4, 67, 72
11, 10739, Note_on_c, 4, 67, 0
11, 10740, Note_on_c, 4, 60, 72
11, 10769, Note_on_c, 4, 60, 0
11, 10770, Note_on_c, 4, 64, 72
11, 10799, Note_on_c, 4, 64, 0
11, 10800, Note_on_c, 4, 65, 72
11, 10829, Note_on_c, 4, 65, 0
11, 10830, Note_on_c, 4, 69, 72
11, 10859, Note_on_c, 4, 69, 0
11, 10860, Note_on_c, 4, 62, 72
11, 10889, Note_on_c, 4, 62, 0
11, 10890, Note_on_c, 4, 65, 72
11, 10919, Note_on_c, 4, 65, 0
11, 10920, Note_on_c, 4, 67, 72
11, 10949, Note_on_c, 4, 67, 0
11, 10950, Note_on_c, 4, 70, 72
11, 10979, Note_on_c, 4, 70, 0
11, 10980, Note_on_c, 4, 65, 72
11, 11009, Note_on_c, 4, 65, 0
11, 11010, Note_on_c, 4, 74, 72
11, 11039, Note_on_c, 4, 74, 0
11, 11040, Note_on_c, 4, 64, 72
11, 11069, Note_on_c, 4, 64, 0
11, 11070, Note_on_c, 4, 67, 72
11, 11099, Note_on_c, 4, 67, 0
11, 11100, Note_on_c, 4, 60, 72
11, 11129, Note_on_c, 4, 60, 0
11, 11130, Note_on_c, 4, 64, 72
11, 11159, Note_on_c, 4, 64, 0
11, 11160, Note_on_c, 4, 65, 72
11, 11189, Note_on_c, 4, 65, 0
11, 11190, Note_on_c, 4, 69, 72
11, 11219, Note_on_c, 4, 69, 0
11, 11220, Note_on_c, 4, 64, 72
11, 11249, Note_on_c, 4, 64, 0
11, 11250, Note_on_c, 4, 72, 72
11, 11279, Note_on_c, 4, 72, 0
11, 11280, Note_on_c, 4, 62, 72
11, 11309, Note_on_c, 4, 62, 0
11, 11310, Note_on_c, 4, 65, 72
11, 11339, Note_on_c, 4, 65, 0
11, 11340, Note_on_c, 4, 58, 72
11, 11369, Note_on_c, 4, 58, 0
11, 11370, Note_on_c, 4, 62, 72
11, 11399, Note_on_c, 4, 62, 0
11, 11400, Note_on_c, 4, 63, 72
11, 11429, Note_on_c, 4, 63, 0
11, 11430, Note_on_c, 4, 67, 72
11, 11459, Note_on_c, 4, 67, 0
11, 11460, Note_on_c, 4, 60, 72
11, 11489, Note_on_c, 4, 60, 0
11, 11490, Note_on_c, 4, 63, 72
11, 11519, Note_on_c, 4, 63, 0
11, 11520, Note_on_c, 4, 65, 72
11, 11549, Note_on_c, 4, 65, 0
11, 11550, Note_on_c, 4, 69, 72
11, 11579, Note_on_c, 4, 69, 0
11, 11580, Note_on_c, 4, 74, 72
11, 11609, Note_on_c, 4, 74, 0
11, 11610, Note_on_c, 4, 72, 72
11, 11639, Note_on_c, 4, 72, 0
11, 11640, Note_on_c, 4, 70, 72
11, 11669, Note_on_c, 4, 70, 0
11, 11670, Note_on_c, 4, 74, 72
11, 11699, Note_on_c, 4, 74, 0
11, 11700, Note_on_c, 4, 69, 72
11, 11729, Note_on_c, 4, 69, 0
11, 11730, Note_on_c, 4, 77, 72
11, 11759, Note_on_c, 4, 77, 0
11, 11760, Note_on_c, 4, 67, 72
11, 11789, Note_on_c, 4, 67, 0
11, 11790, Note_on_c, 4, 70, 72
11, 11819, Note_on_c, 4, 70, 0
11, 11820, Note_on_c, 4, 65, 72
11, 11849, Note_on_c, 4, 65, 0
11, 11850, Note_on_c, 4, 74, 72
11, 11879, Note_on_c, 4, 74, 0
11, 11880, Note_on_c, 4, 64, 72
11, 11909, Note_on_c, 4, 64, 0
11, 11910, Note_on_c, 4, 67, 72
11, 11939, Note_on_c, 4, 67, 0
11, 11940, Note_on_c, 4, 62, 72
11, 11969, Note_on_c, 4, 62, 0
11, 11970, Note_on_c, 4, 70, 72
11, 11999, Note_on_c, 4, 70, 0
11, 12000, Note_on_c, 4, 61, 72
11, 12029, Note_on_c, 4, 61, 0
11, 12030, Note_on_c, 4, 64, 72
11, 12059, Note_on_c, 4, 64, 0
11, 12060, Note_on_c, 4, 57, 72
11, 12089, Note_on_c, 4, 57, 0
11, 12090, Note_on_c, 4, 61, 72
11, 12119, Note_on_c, 4, 61, 0
11, 12120, Note_on_c, 4, 62, 72
11, 12149, Note_on_c, 4, 62, 0
11, 12150, Note_on_c, 4, 65, 72
11, 12179, Note_on_c, 4, 65, 0
11, 12180, Note_on_c, 4, 60, 72
11, 12209, Note_on_c, 4, 60, 0
11, 12210, Note_on_c, 4, 69, 72
11, 12239, Note_on_c, 4, 69, 0
11, 12240, Note_on_c, 4, 59, 72
11, 12269, Note_on_c, 4, 59, 0
11, 12270, Note_on_c, 4, 62, 72
11, 12299, Note_on_c, 4, 62, 0
11, 12300, Note_on_c, 4, 55, 72
11, 12329, Note_on_c, 4, 55, 0
11, 12330, Note_on_c, 4, 59, 72
11, 12359, Note_on_c, 4, 59, 0
11, 12360, Note_on_c, 4, 61, 72
11, 12389, Note_on_c, 4, 61, 0
11, 12390, Note_on_c, 4, 64, 72
11, 12419, Note_on_c, 4, 64, 0
11, 12420, Note_on_c, 4, 57, 72
11, 12449, Note_on_c, 4, 57, 0
11, 12450, Note_on_c, 4, 61, 72
11, 12479, Note_on_c, 4, 61, 0
11, 12480, Note_on_c, 4, 62, 72
11, 12509, Note_on_c, 4, 62, 0
11, 12510, Note_on_c, 4, 65, 72
11, 12539, Note_on_c, 4, 65, 0
11, 12540, Note_on_c, 4, 69, 72
11, 12569, Note_on_c, 4, 69, 0
11, 12570, Note_on_c, 4, 73, 72
11, 12599, Note_on_c, 4, 73, 0
11, 12600, Note_on_c, 4, 74, 72
11, 12629, Note_on_c, 4, 74, 0
11, 12630, Note_on_c, 4, 69, 72
11, 12659, Note_on_c, 4, 69, 0
11, 12660, Note_on_c, 4, 65, 72
11, 12689, Note_on_c, 4, 65, 0
11, 12690, Note_on_c, 4, 62, 72
11, 12719, Note_on_c, 4, 62, 0
11, 12720, Note_on_c, 4, 63, 72
11, 12749, Note_on_c, 4, 63, 0
11, 12750, Note_on_c, 4, 67, 72
11, 12779, Note_on_c, 4, 67, 0
11, 12780, Note_on_c, 4, 70, 72
11, 12809, Note_on_c, 4, 70, 0
11, 12810, Note_on_c, 4, 74, 72
11, 12839, Note_on_c, 4, 74, 0
11, 12840, Note_on_c, 4, 72, 72
11, 12869, Note_on_c, 4, 72, 0
11, 12870, Note_on_c, 4, 67, 72
11, 12899, Note_on_c, 4, 67, 0
11, 12900, Note_on_c, 4, 63, 72
11, 12929, Note_on_c, 4, 63, 0
11, 12930, Note_on_c, 4, 60, 72
11, 12959, Note_on_c, 4, 60, 0
11, 12960, Note_on_c, 4, 62, 72
11, 12989, Note_on_c, 4, 62, 0
11, 12990, Note_on_c, 4, 65, 72
11, 13019, Note_on_c, 4, 65, 0
11, 13020, Note_on_c, 4, 69, 72
11, 13049, Note_on_c, 4, 69, 0
11, 13050, Note_on_c, 4, 72, 72
11, 13079, Note_on_c, 4, 72, 0
11, 13080, Note_on_c, 4, 70, 72
11, 13109, Note_on_c, 4, 70, 0
11, 13110, Note_on_c, 4, 65, 72
11, 13139, Note_on_c, 4, 65, 0
11, 13140, Note_on_c, 4, 62, 72
11, 13169, Note_on_c, 4, 62, 0
11, 13170, Note_on_c, 4, 58, 72
11, 13199, Note_on_c, 4, 58, 0
11, 13200, Note_on_c, 4, 60, 72
11, 13229, Note_on_c, 4, 60, 0
11, 13230, Note_on_c, 4, 63, 72
11, 13259, Note_on_c, 4, 63, 0
11, 13260, Note_on_c, 4, 67, 72
11, 13289, Note_on_c, 4, 67, 0
11, 13290, Note_on_c, 4, 70, 72
11, 13319, Note_on_c, 4, 70, 0
11, 13320, Note_on_c, 4, 69, 72
11, 13349, Note_on_c, 4, 69, 0
11, 13350, Note_on_c, 4, 66, 72
11, 13379, Note_on_c, 4, 66, 0
11, 13380, Note_on_c, 4, 63, 72
11, 13409, Note_on_c, 4, 63, 0
11, 13410, Note_on_c, 4, 60, 72
11, 13439, Note_on_c, 4, 60, 0
11, 13440, Note_on_c, 4, 58, 72
11, 13469, Note_on_c, 4, 58, 0
11, 13470, Note_on_c, 4, 55, 72
11, 13499, Note_on_c, 4, 55, 0
11, 13500, Note_on_c, 4, 58, 72
11, 13529, Note_on_c, 4, 58, 0
11, 13530, Note_on_c, 4, 60, 72
11, 13559, Note_on_c, 4, 60, 0
11, 13560, Note_on_c, 4, 62, 72
11, 13589, Note_on_c, 4, 62, 0
11, 13590, Note_on_c, 4, 64, 72
11, 13619, Note_on_c, 4, 64, 0
11, 13620, Note_on_c, 4, 66, 72
11, 13649, Note_on_c, 4, 66, 0
11, 13650, Note_on_c, 4, 62, 72
11, 13679, Note_on_c, 4, 62, 0
11, 13680, Note_on_c, 4, 67, 72
11, 13709, Note_on_c, 4, 67, 0
11, 13710, Note_on_c, 4, 69, 72
11, 13739, Note_on_c, 4, 69, 0
11, 13740, Note_on_c, 4, 70, 72
11, 13769, Note_on_c, 4, 70, 0
11, 13770, Note_on_c, 4, 72, 72
11, 13799, Note_on_c, 4, 72, 0
11, 13800, Note_on_c, 4, 74, 72
11, 13829, Note_on_c, 4, 74, 0
11, 13830, Note_on_c, 4, 76, 72
11, 13859, Note_on_c, 4, 76, 0
11, 13860, Note_on_c, 4, 78, 72
11, 13889, Note_on_c, 4, 78, 0
11, 13890, Note_on_c, 4, 74, 72
11, 13919, Note_on_c, 4, 74, 0
11, 13920, Note_on_c, 4, 79, 72
11, 13949, Note_on_c, 4, 79, 0
11, 13950, Note_on_c, 4, 74, 72
11, 13979, Note_on_c, 4, 74, 0
11, 13980, Note_on_c, 4, 70, 72
11, 14009, Note_on_c, 4, 70, 0
11, 14010, Note_on_c, 4, 67, 72
11, 14039, Note_on_c, 4, 67, 0
11, 14040, Note_on_c, 4, 74, 72
11, 14099, Note_on_c, 4, 74, 0
11, 14100, Note_on_c, 4, 62, 72
11, 14159, Note_on_c, 4, 62, 0
11, 14400, Note_on_c, 4, 63, 48
11, 14459, Note_on_c, 4, 63, 0
11, 14460, Note_on_c, 4, 63, 48
11, 14519, Note_on_c, 4, 63, 0
11, 14520, Note_on_c, 4, 63, 48
11, 14579, Note_on_c, 4, 63, 0
11, 14580, Note_on_c, 4, 63, 48
11, 14639, Note_on_c, 4, 63, 0
11, 14640, Note_on_c, 4, 63, 48
11, 14699, Note_on_c, 4, 63, 0
11, 14700, Note_on_c, 4, 63, 48
11, 14759, Note_on_c, 4, 63, 0
11, 14760, Note_on_c, 4, 63, 48
11, 14819, Note_on_c, 4, 63, 0
11, 14820, Note_on_c, 4, 63, 48
11, 14879, Note_on_c, 4, 63, 0
11, 14880, Note_on_c, 4, 62, 48
11, 14939, Note_on_c, 4, 62, 0
11, 14940, Note_on_c, 4, 60, 48
11, 14969, Note_on_c, 4, 60, 0
11, 14970, Note_on_c, 4, 69, 48
11, 14999, Note_on_c, 4, 69, 0
11, 15000, Note_on_c, 4, 58, 48
11, 15015, Note_on_c, 4, 67, 48
11, 15029, Note_on_c, 4, 58, 0
11, 15044, Note_on_c, 4, 67, 0
11, 15060, Note_on_c, 4, 57, 48
11, 15089, Note_on_c, 4, 57, 0
11, 15090, Note_on_c, 4, 66, 48
11, 15119, Note_on_c, 4, 66, 0
11, 15120, Note_on_c, 4, 55, 48
11, 15239, Note_on_c, 4, 55, 0
11, 15300, Note_on_c, 4, 67, 48
11, 15359, Note_on_c, 4, 67, 0
11, 15360, Note_on_c, 4, 70, 48
11, 15419, Note_on_c, 4, 70, 0
11, 15420, Note_on_c, 4, 67, 48
11, 15479, Note_on_c, 4, 67, 0
11, 15540, Note_on_c, 4, 70, 48
11, 15599, Note_on_c, 4, 70, 0
11, 15600, Note_on_c, 4, 74, 48
11, 15659, Note_on_c, 4, 74, 0
11, 15660, Note_on_c, 4, 69, 48
11, 15719, Note_on_c, 4, 69, 0
11, 15780, Note_on_c, 4, 74, 48
11, 15839, Note_on_c, 4, 74, 0
11, 15840, Note_on_c, 4, 71, 48
11, 15899, Note_on_c, 4, 71, 0
11, 15900, Note_on_c, 4, 67, 48
11, 15959, Note_on_c, 4, 67, 0
11, 16020, Note_on_c, 4, 71, 48
11, 16079, Note_on_c, 4, 71, 0
11, 16080, Note_on_c, 4, 72, 48
11, 16139, Note_on_c, 4, 72, 0
11, 16140, Note_on_c, 4, 67, 48
11, 16199, Note_on_c, 4, 67, 0
11, 16260, Note_on_c, 4, 67, 48
11, 16319, Note_on_c, 4, 67, 0
11, 16320, Note_on_c, 4, 67, 48
11, 16379, Note_on_c, 4, 67, 0
11, 16380, Note_on_c, 4, 75, 48
11, 16439, Note_on_c, 4, 75, 0
11, 16440, Note_on_c, 4, 74, 48
11, 16499, Note_on_c, 4, 74, 0
11, 16500, Note_on_c, 4, 72, 48
11, 16559, Note_on_c, 4, 72, 0
11, 16560, Note_on_c, 4, 71, 48
11, 16619, Note_on_c, 4, 71, 0
11, 16620, Note_on_c, 4, 69, 48
11, 16679, Note_on_c, 4, 69, 0
11, 16680, Note_on_c, 4, 67, 48
11, 16739, Note_on_c, 4, 67, 0
11, 16740, Note_on_c, 4, 69, 48
11, 16799, Note_on_c, 4, 69, 0
11, 16800, Note_on_c, 4, 70, 48
11, 16859, Note_on_c, 4, 70, 0
11, 16860, Note_on_c, 4, 73, 48
11, 16919, Note_on_c, 4, 73, 0
11, 16920, Note_on_c, 4, 72, 48
11, 16979, Note_on_c, 4, 72, 0
11, 16980, Note_on_c, 4, 70, 48
11, 17039, Note_on_c, 4, 70, 0
11, 17040, Note_on_c, 4, 68, 48
11, 17159, Note_on_c, 4, 68, 0
11, 17220, Note_on_c, 4, 72, 48
11, 17279, Note_on_c, 4, 72, 0
11, 17280, Note_on_c, 4, 77, 48
11, 17339, Note_on_c, 4, 77, 0
11, 17340, Note_on_c, 4, 72, 48
11, 17399, Note_on_c, 4, 72, 0
11, 17460, Note_on_c, 4, 80, 48
11, 17519, Note_on_c, 4, 80, 0
11, 17520, Note_on_c, 4, 79, 48
11, 17579, Note_on_c, 4, 79, 0
11, 17580, Note_on_c, 4, 72, 48
11, 17639, Note_on_c, 4, 72, 0
11, 17700, Note_on_c, 4, 79, 48
11, 17759, Note_on_c, 4, 79, 0
11, 17760, Note_on_c, 4, 81, 48
11, 17819, Note_on_c, 4, 81, 0
11, 17820, Note_on_c, 4, 77, 48
11, 17879, Note_on_c, 4, 77, 0
11, 17940, Note_on_c, 4, 81, 48
11, 17999, Note_on_c, 4, 81, 0
11, 18000, Note_on_c, 4, 82, 48
11, 18059, Note_on_c, 4, 82, 0
11, 18060, Note_on_c, 4, 70, 48
11, 18119, Note_on_c, 4, 70, 0
11, 18180, Note_on_c, 4, 74, 48
11, 18239, Note_on_c, 4, 74, 0
11, 18240, Note_on_c, 4, 77, 48
11, 18299, Note_on_c, 4, 77, 0
11, 18300, Note_on_c, 4, 74, 48
11, 18359, Note_on_c, 4, 74, 0
11, 18420, Note_on_c, 4, 74, 48
11, 18479, Note_on_c, 4, 74, 0
11, 18480, Note_on_c, 4, 77, 48
11, 18539, Note_on_c, 4, 77, 0
11, 18540, Note_on_c, 4, 72, 48
11, 18599, Note_on_c, 4, 72, 0
11, 18660, Note_on_c, 4, 77, 48
11, 18719, Note_on_c, 4, 77, 0
11, 18720, Note_on_c, 4, 82, 48
11, 18779, Note_on_c, 4, 82, 0
11, 18780, Note_on_c, 4, 70, 48
11, 18839, Note_on_c, 4, 70, 0
11, 18900, Note_on_c, 4, 70, 48
11, 18959, Note_on_c, 4, 70, 0
11, 18960, Note_on_c, 4, 79, 48
11, 19019, Note_on_c, 4, 79, 0
11, 19020, Note_on_c, 4, 75, 48
11, 19079, Note_on_c, 4, 75, 0
11, 19140, Note_on_c, 4, 75, 48
11, 19199, Note_on_c, 4, 75, 0
11, 19200, Note_on_c, 4, 60, 48
11, 19259, Note_on_c, 4, 60, 0
11, 19260, Note_on_c, 4, 75, 48
11, 19319, Note_on_c, 4, 75, 0
11, 19320, Note_on_c, 4, 74, 48
11, 19379, Note_on_c, 4, 74, 0
11, 19380, Note_on_c, 4, 72, 48
11, 19439, Note_on_c, 4, 72, 0
11, 19440, Note_on_c, 4, 72, 48
11, 19454, Note_on_c, 4, 72, 0
11, 19455, Note_on_c, 4, 70, 48
11, 19499, Note_on_c, 4, 70, 0
11, 19500, Note_on_c, 4, 69, 48
11, 19529, Note_on_c, 4, 69, 0
11, 19530, Note_on_c, 4, 67, 48
11, 19559, Note_on_c, 4, 67, 0
11, 19560, Note_on_c, 4, 72, 48
11, 19739, Note_on_c, 4, 72, 0
11, 19740, Note_on_c, 4, 75, 48
11, 19799, Note_on_c, 4, 75, 0
11, 19800, Note_on_c, 4, 74, 48
11, 19859, Note_on_c, 4, 74, 0
11, 19860, Note_on_c, 4, 72, 48
11, 19919, Note_on_c, 4, 72, 0
11, 19920, Note_on_c, 4, 72, 48
11, 19934, Note_on_c, 4, 72, 0
11, 19935, Note_on_c, 4, 70, 48
11, 19979, Note_on_c, 4, 70, 0
11, 19980, Note_on_c, 4, 69, 48
11, 20009, Note_on_c, 4, 69, 0
11, 20010, Note_on_c, 4, 67, 48
11, 20039, Note_on_c, 4, 67, 0
11, 20040, Note_on_c, 4, 74, 48
11, 20099, Note_on_c, 4, 74, 0
11, 20100, Note_on_c, 4, 74, 48
11, 20159, Note_on_c, 4, 74, 0
11, 20160, Note_on_c, 4, 79, 48
11, 20219, Note_on_c, 4, 79, 0
11, 20220, Note_on_c, 4, 79, 48
11, 20279, Note_on_c, 4, 79, 0
11, 20280, Note_on_c, 4, 73, 48
11, 20339, Note_on_c, 4, 73, 0
11, 20340, Note_on_c, 4, 73, 48
11, 20399, Note_on_c, 4, 73, 0
11, 20400, Note_on_c, 4, 74, 48
11, 20429, Note_on_c, 4, 74, 0
11, 20430, Note_on_c, 4, 62, 48
11, 20459, Note_on_c, 4, 62, 0
11, 20460, Note_on_c, 4, 60, 72
11, 20489, Note_on_c, 4, 60, 0
11, 20490, Note_on_c, 4, 69, 72
11, 20519, Note_on_c, 4, 69, 0
11, 20520, Note_on_c, 4, 58, 72
11, 20549, Note_on_c, 4, 58, 0
11, 20550, Note_on_c, 4, 67, 72
11, 20579, Note_on_c, 4, 67, 0
11, 20580, Note_on_c, 4, 57, 72
11, 20609, Note_on_c, 4, 57, 0
11, 20610, Note_on_c, 4, 66, 72
11, 20639, Note_on_c, 4, 66, 0
11, 20640, Note_on_c, 4, 55, 72
11, 20699, Note_on_c, 4, 55, 0
11, 20700, Note_on_c, 4, 67, 72
11, 20759, Note_on_c, 4, 67, 0
11, 20820, Note_on_c, 4, 79, 72
11, 20849, Note_on_c, 4, 79, 0
11, 20850, Note_on_c, 4, 70, 72
11, 20879, Note_on_c, 4, 70, 0
11, 20880, Note_on_c, 4, 72, 72
11, 20939, Note_on_c, 4, 72, 0
11, 20940, Note_on_c, 4, 75, 72
11, 20999, Note_on_c, 4, 75, 0
11, 21060, Note_on_c, 4, 75, 72
11, 21089, Note_on_c, 4, 75, 0
11, 21090, Note_on_c, 4, 66, 72
11, 21119, Note_on_c, 4, 66, 0
11, 21120, Note_on_c, 4, 81, 72
11, 21179, Note_on_c, 4, 81, 0
11, 21180, Note_on_c, 4, 62, 72
11, 21239, Note_on_c, 4, 62, 0
11, 21300, Note_on_c, 4, 69, 72
11, 21329, Note_on_c, 4, 69, 0
11, 21330, Note_on_c, 4, 62, 72
11, 21359, Note_on_c, 4, 62, 0
11, 21360, Note_on_c, 4, 74, 72
11, 21419, Note_on_c, 4, 74, 0
11, 21420, Note_on_c, 4, 55, 72
11, 21479, Note_on_c, 4, 55, 0
11, 21540, Note_on_c, 4, 74, 72
11, 21569, Note_on_c, 4, 74, 0
11, 21570, Note_on_c, 4, 67, 72
11, 21599, Note_on_c, 4, 67, 0
11, 21600, Note_on_c, 4, 79, 72
11, 21659, Note_on_c, 4, 79, 0
11, 21660, Note_on_c, 4, 55, 72
11, 21719, Note_on_c, 4, 55, 0
11, 21780, Note_on_c, 4, 76, 72
11, 21809, Note_on_c, 4, 76, 0
11, 21810, Note_on_c, 4, 73, 72
11, 21839, Note_on_c, 4, 73, 0
11, 21840, Note_on_c, 4, 79, 72
11, 21899, Note_on_c, 4, 79, 0
11, 21900, Note_on_c, 4, 57, 72
11, 21959, Note_on_c, 4, 57, 0
11, 22020, Note_on_c, 4, 76, 72
11, 22049, Note_on_c, 4, 76, 0
11, 22050, Note_on_c, 4, 69, 72
11, 22079, Note_on_c, 4, 69, 0
11, 22080, Note_on_c, 4, 81, 72
11, 22139, Note_on_c, 4, 81, 0
11, 22140, Note_on_c, 4, 62, 72
11, 22199, Note_on_c, 4, 62, 0
11, 22260, Note_on_c, 4, 78, 72
11, 22289, Note_on_c, 4, 78, 0
11, 22290, Note_on_c, 4, 74, 72
11, 22319, Note_on_c, 4, 74, 0
11, 22320, Note_on_c, 4, 77, 72
11, 22379, Note_on_c, 4, 77, 0
11, 22380, Note_on_c, 4, 55, 72
11, 22439, Note_on_c, 4, 55, 0
11, 22500, Note_on_c, 4, 74, 72
11, 22529, Note_on_c, 4, 74, 0
11, 22530, Note_on_c, 4, 67, 72
11, 22559, Note_on_c, 4, 67, 0
11, 22560, Note_on_c, 4, 79, 72
11, 22619, Note_on_c, 4, 79, 0
11, 22620, Note_on_c, 4, 60, 72
11, 22679, Note_on_c, 4, 60, 0
11, 22740, Note_on_c, 4, 75, 72
11, 22769, Note_on_c, 4, 75, 0
11, 22770, Note_on_c, 4, 72, 72
11, 22799, Note_on_c, 4, 72, 0
11, 22800, Note_on_c, 4, 84, 72
11, 22859, Note_on_c, 4, 84, 0
11, 22860, Note_on_c, 4, 72, 72
11, 22919, Note_on_c, 4, 72, 0
11, 22980, Note_on_c, 4, 75, 72
11, 23009, Note_on_c, 4, 75, 0
11, 23010, Note_on_c, 4, 66, 72
11, 23039, Note_on_c, 4, 66, 0
11, 23040, Note_on_c, 4, 81, 72
11, 23099, Note_on_c, 4, 81, 0
11, 23100, Note_on_c, 4, 62, 72
11, 23159, Note_on_c, 4, 62, 0
11, 23220, Note_on_c, 4, 81, 72
11, 23249, Note_on_c, 4, 81, 0
11, 23250, Note_on_c, 4, 74, 72
11, 23279, Note_on_c, 4, 74, 0
11, 23280, Note_on_c, 4, 86, 72
11, 23339, Note_on_c, 4, 86, 0
11, 23340, Note_on_c, 4, 67, 72
11, 23399, Note_on_c, 4, 67, 0
11, 23460, Note_on_c, 4, 74, 72
11, 23489, Note_on_c, 4, 74, 0
11, 23490, Note_on_c, 4, 67, 72
11, 23519, Note_on_c, 4, 67, 0
11, 23520, Note_on_c, 4, 79, 72
11, 23579, Note_on_c, 4, 79, 0
11, 23580, Note_on_c, 4, 67, 72
11, 23639, Note_on_c, 4, 67, 0
11, 23700, Note_on_c, 4, 70, 72
11, 23729, Note_on_c, 4, 70, 0
11, 23730, Note_on_c, 4, 67, 72
11, 23759, Note_on_c, 4, 67, 0
11, 23760, Note_on_c, 4, 79, 72
11, 23819, Note_on_c, 4, 79, 0
11, 23820, Note_on_c, 4, 69, 72
11, 23879, Note_on_c, 4, 69, 0
11, 23940, Note_on_c, 4, 76, 72
11, 23969, Note_on_c, 4, 76, 0
11, 23970, Note_on_c, 4, 69, 72
11, 23999, Note_on_c, 4, 69, 0
11, 24000, Note_on_c, 4, 79, 72
11, 24059, Note_on_c, 4, 79, 0
11, 24060, Note_on_c, 4, 62, 72
11, 24119, Note_on_c, 4, 62, 0
11, 24180, Note_on_c, 4, 78, 72
11, 24209, Note_on_c, 4, 78, 0
11, 24210, Note_on_c, 4, 74, 72
11, 24239, Note_on_c, 4, 74, 0
11, 24240, Note_on_c, 4, 86, 72
11, 24299, Note_on_c, 4, 86, 0
11, 24300, Note_on_c, 4, 55, 72
11, 24359, Note_on_c, 4, 55, 0
11, 24420, Note_on_c, 4, 74, 72
11, 24449, Note_on_c, 4, 74, 0
11, 24450, Note_on_c, 4, 67, 72
11, 24479, Note_on_c, 4, 67, 0
11, 24480, Note_on_c, 4, 77, 72
11, 24539, Note_on_c, 4, 77, 0
11, 24540, Note_on_c, 4, 60, 72
11, 24599, Note_on_c, 4, 60, 0
11, 24660, Note_on_c, 4, 76, 72
11, 24689, Note_on_c, 4, 76, 0
11, 24690, Note_on_c, 4, 72, 72
11, 24719, Note_on_c, 4, 72, 0
11, 24720, Note_on_c, 4, 84, 72
11, 24779, Note_on_c, 4, 84, 0
11, 24780, Note_on_c, 4, 65, 72
11, 24839, Note_on_c, 4, 65, 0
11, 24900, Note_on_c, 4, 72, 72
11, 24929, Note_on_c, 4, 72, 0
11, 24930, Note_on_c, 4, 65, 72
11, 24959, Note_on_c, 4, 65, 0
11, 24960, Note_on_c, 4, 75, 72
11, 25019, Note_on_c, 4, 75, 0
11, 25020, Note_on_c, 4, 58, 72
11, 25079, Note_on_c, 4, 58, 0
11, 25140, Note_on_c, 4, 82, 72
11, 25169, Note_on_c, 4, 82, 0
11, 25170, Note_on_c, 4, 74, 72
11, 25199, Note_on_c, 4, 74, 0
11, 25200, Note_on_c, 4, 75, 72
11, 25259, Note_on_c, 4, 75, 0
11, 25260, Note_on_c, 4, 79, 72
11, 25319, Note_on_c, 4, 79, 0
11, 25380, Note_on_c, 4, 79, 72
11, 25409, Note_on_c, 4, 79, 0
11, 25410, Note_on_c, 4, 72, 72
11, 25439, Note_on_c, 4, 72, 0
11, 25440, Note_on_c, 4, 81, 72
11, 25499, Note_on_c, 4, 81, 0
11, 25500, Note_on_c, 4, 65, 72
11, 25559, Note_on_c, 4, 65, 0
11, 25620, Note_on_c, 4, 72, 72
11, 25649, Note_on_c, 4, 72, 0
11, 25650, Note_on_c, 4, 65, 72
11, 25679, Note_on_c, 4, 65, 0
11, 25680, Note_on_c, 4, 77, 72
11, 25739, Note_on_c, 4, 77, 0
11, 25740, Note_on_c, 4, 56, 72
11, 25799, Note_on_c, 4, 56, 0
11, 25860, Note_on_c, 4, 72, 72
11, 25889, Note_on_c, 4, 72, 0
11, 25890, Note_on_c, 4, 68, 72
11, 25919, Note_on_c, 4, 68, 0
11, 25920, Note_on_c, 4, 77, 72
11, 25979, Note_on_c, 4, 77, 0
11, 25980, Note_on_c, 4, 59, 72
11, 26039, Note_on_c, 4, 59, 0
11, 26100, Note_on_c, 4, 74, 72
11, 26129, Note_on_c, 4, 74, 0
11, 26130, Note_on_c, 4, 67, 72
11, 26159, Note_on_c, 4, 67, 0
11, 26160, Note_on_c, 4, 79, 72
11, 26219, Note_on_c, 4, 79, 0
11, 26220, Note_on_c, 4, 60, 72
11, 26279, Note_on_c, 4, 60, 0
11, 26340, Note_on_c, 4, 84, 72
11, 26369, Note_on_c, 4, 84, 0
11, 26370, Note_on_c, 4, 75, 72
11, 26399, Note_on_c, 4, 75, 0
11, 26400, Note_on_c, 4, 77, 72
11, 26459, Note_on_c, 4, 77, 0
11, 26460, Note_on_c, 4, 80, 72
11, 26519, Note_on_c, 4, 80, 0
11, 26580, Note_on_c, 4, 77, 72
11, 26609, Note_on_c, 4, 77, 0
11, 26610, Note_on_c, 4, 74, 72
11, 26639, Note_on_c, 4, 74, 0
11, 26640, Note_on_c, 4, 71, 72
11, 26699, Note_on_c, 4, 71, 0
11, 26700, Note_on_c, 4, 59, 72
11, 26759, Note_on_c, 4, 59, 0
11, 26820, Note_on_c, 4, 74, 72
11, 26849, Note_on_c, 4, 74, 0
11, 26850, Note_on_c, 4, 67, 72
11, 26879, Note_on_c, 4, 67, 0
11, 26880, Note_on_c, 4, 79, 72
11, 26939, Note_on_c, 4, 79, 0
11, 26940, Note_on_c, 4, 64, 72
11, 26999, Note_on_c, 4, 64, 0
11, 27060, Note_on_c, 4, 82, 72
11, 27089, Note_on_c, 4, 82, 0
11, 27090, Note_on_c, 4, 70, 72
11, 27119, Note_on_c, 4, 70, 0
11, 27120, Note_on_c, 4, 74, 72
11, 27179, Note_on_c, 4, 74, 0
11, 27180, Note_on_c, 4, 64, 72
11, 27239, Note_on_c, 4, 64, 0
11, 27300, Note_on_c, 4, 76, 72
11, 27329, Note_on_c, 4, 76, 0
11, 27330, Note_on_c, 4, 69, 72
11, 27359, Note_on_c, 4, 69, 0
11, 27360, Note_on_c, 4, 79, 72
11, 27419, Note_on_c, 4, 79, 0
11, 27420, Note_on_c, 4, 62, 72
11, 27479, Note_on_c, 4, 62, 0
11, 27540, Note_on_c, 4, 78, 72
11, 27569, Note_on_c, 4, 78, 0
11, 27570, Note_on_c, 4, 74, 72
11, 27599, Note_on_c, 4, 74, 0
11, 27600, Note_on_c, 4, 79, 72
11, 27659, Note_on_c, 4, 79, 0
11, 27660, Note_on_c, 4, 55, 72
11, 27719, Note_on_c, 4, 55, 0
11, 27780, Note_on_c, 4, 79, 72
11, 27809, Note_on_c, 4, 79, 0
11, 27810, Note_on_c, 4, 72, 72
11, 27839, Note_on_c, 4, 72, 0
11, 27840, Note_on_c, 4, 77, 72
11, 27899, Note_on_c, 4, 77, 0
11, 27900, Note_on_c, 4, 58, 72
11, 27959, Note_on_c, 4, 58, 0
11, 28020, Note_on_c, 4, 74, 72
11, 28049, Note_on_c, 4, 74, 0
11, 28050, Note_on_c, 4, 70, 72
11, 28079, Note_on_c, 4, 70, 0
11, 28080, Note_on_c, 4, 75, 72
11, 28139, Note_on_c, 4, 75, 0
11, 28140, Note_on_c, 4, 60, 72
11, 28199, Note_on_c, 4, 60, 0
11, 28260, Note_on_c, 4, 75, 72
11, 28289, Note_on_c, 4, 75, 0
11, 28290, Note_on_c, 4, 69, 72
11, 28319, Note_on_c, 4, 69, 0
11, 28320, Note_on_c, 4, 74, 72
11, 28379, Note_on_c, 4, 74, 0
11, 28380, Note_on_c, 4, 62, 72
11, 28439, Note_on_c, 4, 62, 0
11, 28500, Note_on_c, 4, 70, 72
11, 28529, Note_on_c, 4, 70, 0
11, 28530, Note_on_c, 4, 67, 72
11, 28559, Note_on_c, 4, 67, 0
11, 28560, Note_on_c, 4, 79, 72
11, 28619, Note_on_c, 4, 79, 0
11, 28620, Note_on_c, 4, 67, 72
11, 28679, Note_on_c, 4, 67, 0
11, 28740, Note_on_c, 4, 79, 72
11, 28769, Note_on_c, 4, 79, 0
11, 28770, Note_on_c, 4, 73, 72
11, 28799, Note_on_c, 4, 73, 0
11, 28800, Note_on_c, 4, 74, 72
11, 28859, Note_on_c, 4, 74, 0
11, 28860, Note_on_c, 4, 62, 72
11, 28919, Note_on_c, 4, 62, 0
11, 28980, Note_on_c, 4, 69, 72
11, 29009, Note_on_c, 4, 69, 0
11, 29010, Note_on_c, 4, 62, 72
11, 29039, Note_on_c, 4, 62, 0
11, 29040, Note_on_c, 4, 74, 72
11, 29099, Note_on_c, 4, 74, 0
11, 29100, Note_on_c, 4, 58, 72
11, 29159, Note_on_c, 4, 58, 0
11, 29220, Note_on_c, 4, 70, 72
11, 29249, Note_on_c, 4, 70, 0
11, 29250, Note_on_c, 4, 67, 72
11, 29279, Note_on_c, 4, 67, 0
11, 29280, Note_on_c, 4, 75, 72
11, 29339, Note_on_c, 4, 75, 0
11, 29340, Note_on_c, 4, 63, 72
11, 29399, Note_on_c, 4, 63, 0
11, 29460, Note_on_c, 4, 72, 72
11, 29489, Note_on_c, 4, 72, 0
11, 29490, Note_on_c, 4, 69, 72
11, 29519, Note_on_c, 4, 69, 0
11, 29520, Note_on_c, 4, 81, 72
11, 29579, Note_on_c, 4, 81, 0
11, 29580, Note_on_c, 4, 66, 72
11, 29639, Note_on_c, 4, 66, 0
11, 29700, Note_on_c, 4, 79, 72
11, 29729, Note_on_c, 4, 79, 0
11, 29730, Note_on_c, 4, 74, 72
11, 29759, Note_on_c, 4, 74, 0
11, 29760, Note_on_c, 4, 82, 72
11, 29819, Note_on_c, 4, 82, 0
11, 29820, Note_on_c, 4, 67, 72
11, 29879, Note_on_c, 4, 67, 0
11, 29940, Note_on_c, 4, 70, 72
11, 29969, Note_on_c, 4, 70, 0
11, 29970, Note_on_c, 4, 67, 72
11, 29999, Note_on_c, 4, 67, 0
11, 30000, Note_on_c, 4, 74, 72
11, 30059, Note_on_c, 4, 74, 0
11, 30060, Note_on_c, 4, 64, 72
11, 30119, Note_on_c, 4, 64, 0
11, 30180, Note_on_c, 4, 72, 72
11, 30209, Note_on_c, 4, 72, 0
11, 30210, Note_on_c, 4, 64, 72
11, 30239, Note_on_c, 4, 64, 0
11, 30240, Note_on_c, 4, 72, 72
11, 30299, Note_on_c, 4, 72, 0
11, 30300, Note_on_c, 4, 62, 72
11, 30359, Note_on_c, 4, 62, 0
11, 30420, Note_on_c, 4, 74, 72
11, 30449, Note_on_c, 4, 74, 0
11, 30450, Note_on_c, 4, 69, 72
11, 30479, Note_on_c, 4, 69, 0
11, 30480, Note_on_c, 4, 69, 72
11, 30539, Note_on_c, 4, 69, 0
11, 30540, Note_on_c, 4, 70, 72
11, 30599, Note_on_c, 4, 70, 0
11, 30660, Note_on_c, 4, 74, 72
11, 30689, Note_on_c, 4, 74, 0
11, 30690, Note_on_c, 4, 67, 72
11, 30719, Note_on_c, 4, 67, 0
11, 30720, Note_on_c, 4, 79, 72
11, 30779, Note_on_c, 4, 79, 0
11, 30780, Note_on_c, 4, 67, 72
11, 30839, Note_on_c, 4, 67, 0
11, 30840, Note_on_c, 4, 76, 48
11, 30959, Note_on_c, 4, 76, 0
11, 30960, Note_on_c, 4, 67, 48
11, 31199, Note_on_c, 4, 67, 0
11, 31200, Note_on_c, 4, 66, 48
11, 31319, Note_on_c, 4, 66, 0
11, 31320, Note_on_c, 4, 67, 48
11, 31559, Note_on_c, 4, 67, 0
11, 31560, Note_on_c, 4, 66, 48
11, 31679, Note_on_c, 4, 66, 0
11, 31680, Note_on_c, 4, 67, 48
11, 31739, Note_on_c, 4, 67, 0
11, 31740, Note_on_c, 4, 70, 48
11, 31769, Note_on_c, 4, 70, 0
11, 31770, Note_on_c, 4, 69, 48
11, 31799, Note_on_c, 4, 69, 0
11, 31800, Note_on_c, 4, 70, 48
11, 31859, Note_on_c, 4, 70, 0
11, 31860, Note_on_c, 4, 74, 48
11, 31919, Note_on_c, 4, 74, 0
11, 31920, Note_on_c, 4, 63, 48
11, 31979, Note_on_c, 4, 63, 0
11, 31980, Note_on_c, 4, 75, 48
11, 32009, Note_on_c, 4, 75, 0
11, 32010, Note_on_c, 4, 74, 48
11, 32039, Note_on_c, 4, 74, 0
11, 32040, Note_on_c, 4, 75, 48
11, 32099, Note_on_c, 4, 75, 0
11, 32100, Note_on_c, 4, 79, 48
11, 32159, Note_on_c, 4, 79, 0
11, 32160, Note_on_c, 4, 60, 48
11, 32219, Note_on_c, 4, 60, 0
11, 32220, Note_on_c, 4, 69, 48
11, 32249, Note_on_c, 4, 69, 0
11, 32250, Note_on_c, 4, 67, 48
11, 32279, Note_on_c, 4, 67, 0
11, 32280, Note_on_c, 4, 69, 48
11, 32339, Note_on_c, 4, 69, 0
11, 32340, Note_on_c, 4, 72, 48
11, 32399, Note_on_c, 4, 72, 0
11, 32400, Note_on_c, 4, 62, 48
11, 32459, Note_on_c, 4, 62, 0
11, 32460, Note_on_c, 4, 74, 48
11, 32489, Note_on_c, 4, 74, 0
11, 32490, Note_on_c, 4, 72, 48
11, 32519, Note_on_c, 4, 72, 0
11, 32520, Note_on_c, 4, 74, 48
11, 32579, Note_on_c, 4, 74, 0
11, 32580, Note_on_c, 4, 77, 48
11, 32639, Note_on_c, 4, 77, 0
11, 32640, Note_on_c, 4, 58, 48
11, 32699, Note_on_c, 4, 58, 0
11, 32700, Note_on_c, 4, 67, 48
11, 32729, Note_on_c, 4, 67, 0
11, 32730, Note_on_c, 4, 66, 48
11, 32759, Note_on_c, 4, 66, 0
11, 32760, Note_on_c, 4, 67, 48
11, 32819, Note_on_c, 4, 67, 0
11, 32820, Note_on_c, 4, 70, 48
11, 32879, Note_on_c, 4, 70, 0
11, 32880, Note_on_c, 4, 60, 48
11, 32939, Note_on_c, 4, 60, 0
11, 32940, Note_on_c, 4, 75, 48
11, 32969, Note_on_c, 4, 75, 0
11, 32970, Note_on_c, 4, 74, 48
11, 32999, Note_on_c, 4, 74, 0
11, 33000, Note_on_c, 4, 72, 48
11, 33059, Note_on_c, 4, 72, 0
11, 33060, Note_on_c, 4, 79, 48
11, 33119, Note_on_c, 4, 79, 0
11, 33120, Note_on_c, 4, 66, 48
11, 33179, Note_on_c, 4, 66, 0
11, 33180, Note_on_c, 4, 81, 48
11, 33239, Note_on_c, 4, 81, 0
11, 33240, Note_on_c, 4, 82, 48
11, 33299, Note_on_c, 4, 82, 0
11, 33300, Note_on_c, 4, 75, 48
11, 33329, Note_on_c, 4, 75, 0
11, 33330, Note_on_c, 4, 72, 48
11, 33359, Note_on_c, 4, 72, 0
11, 33360, Note_on_c, 4, 70, 48
11, 33419, Note_on_c, 4, 70, 0
11, 33420, Note_on_c, 4, 79, 48
11, 33479, Note_on_c, 4, 79, 0
11, 33480, Note_on_c, 4, 69, 48
11, 33539, Note_on_c, 4, 69, 0
11, 33540, Note_on_c, 4, 78, 48
11, 33599, Note_on_c, 4, 78, 0
11, 33600, Note_on_c, 4, 67, 48
11, 33719, Note_on_c, 4, 67, 0
11, 33780, Note_on_c, 4, 82, 72
11, 33809, Note_on_c, 4, 82, 0
11, 33810, Note_on_c, 4, 79, 72
11, 33839, Note_on_c, 4, 79, 0
11, 33840, Note_on_c, 4, 87, 72
11, 33899, Note_on_c, 4, 87, 0
11, 33900, Note_on_c, 4, 75, 72
11, 33959, Note_on_c, 4, 75, 0
11, 34020, Note_on_c, 4, 79, 72
11, 34049, Note_on_c, 4, 79, 0
11, 34050, Note_on_c, 4, 75, 72
11, 34079, Note_on_c, 4, 75, 0
11, 34080, Note_on_c, 4, 81, 72
11, 34139, Note_on_c, 4, 81, 0
11, 34140, Note_on_c, 4, 69, 72
11, 34199, Note_on_c, 4, 69, 0
11, 34260, Note_on_c, 4, 81, 72
11, 34289, Note_on_c, 4, 81, 0
11, 34290, Note_on_c, 4, 78, 72
11, 34319, Note_on_c, 4, 78, 0
11, 34320, Note_on_c, 4, 86, 72
11, 34379, Note_on_c, 4, 86, 0
11, 34380, Note_on_c, 4, 74, 72
11, 34439, Note_on_c, 4, 74, 0
11, 34500, Note_on_c, 4, 77, 72
11, 34529, Note_on_c, 4, 77, 0
11, 34530, Note_on_c, 4, 74, 72
11, 34559, Note_on_c, 4, 74, 0
11, 34560, Note_on_c, 4, 79, 72
11, 34619, Note_on_c, 4, 79, 0
11, 34620, Note_on_c, 4, 67, 72
11, 34679, Note_on_c, 4, 67, 0
11, 34740, Note_on_c, 4, 79, 72
11, 34769, Note_on_c, 4, 79, 0
11, 34770, Note_on_c, 4, 76, 72
11, 34799, Note_on_c, 4, 76, 0
11, 34800, Note_on_c, 4, 84, 72
11, 34859, Note_on_c, 4, 84, 0
11, 34860, Note_on_c, 4, 72, 72
11, 34919, Note_on_c, 4, 72, 0
11, 34980, Note_on_c, 4, 76, 72
11, 35009, Note_on_c, 4, 76, 0
11, 35010, Note_on_c, 4, 67, 72
11, 35039, Note_on_c, 4, 67, 0
11, 35040, Note_on_c, 4, 66, 72
11, 35099, Note_on_c, 4, 66, 0
11, 35100, Note_on_c, 4, 81, 72
11, 35129, Note_on_c, 4, 81, 0
11, 35130, Note_on_c, 4, 78, 72
11, 35159, Note_on_c, 4, 78, 0
11, 35160, Note_on_c, 4, 82, 72
11, 35219, Note_on_c, 4, 82, 0
11, 35220, Note_on_c, 4, 75, 72
11, 35249, Note_on_c, 4, 75, 0
11, 35250, Note_on_c, 4, 72, 72
11, 35279, Note_on_c, 4, 72, 0
11, 35280, Note_on_c, 4, 70, 72
11, 35339, Note_on_c, 4, 70, 0
11, 35340, Note_on_c, 4, 79, 72
11, 35399, Note_on_c, 4, 79, 0
11, 35400, Note_on_c, 4, 69, 72
11, 35459, Note_on_c, 4, 69, 0
11, 35460, Note_on_c, 4, 77, 72
11, 35519, Note_on_c, 4, 77, 0
11, 35520, Note_on_c, 4, 79, 72
11, 35579, Note_on_c, 4, 79, 0
11, 35580, Note_on_c, 4, 67, 72
11, 35699, Note_on_c, 4, 67, 0
11, 35700, Note_on_c, 4, 67, 72
11, 35819, Note_on_c, 4, 67, 0
11, 35820, Note_on_c, 4, 67, 72
11, 35939, Note_on_c, 4, 67, 0
11, 35940, Note_on_c, 4, 67, 72
11, 36059, Note_on_c, 4, 67, 0
11, 36060, Note_on_c, 4, 67, 72
11, 36179, Note_on_c, 4, 67, 0
11, 36180, Note_on_c, 4, 67, 72
11, 36299, Note_on_c, 4, 67, 0
11, 36300, Note_on_c, 4, 67, 72
11, 36419, Note_on_c, 4, 67, 0
11, 36420, Note_on_c, 4, 67, 72
11, 36479, Note_on_c, 4, 67, 0
11, 36480, Note_on_c, 4, 67, 72
11, 36839, Note_on_c, 4, 67, 0
11, 36840, Note_on_c, 4, 67, 72
11, 36959, Note_on_c, 4, 67, 0
11, 36960, Note_on_c, 4, 67, 72
11, 37439, Note_on_c, 4, 67, 0
11, 37439, End_track
12, 0, Start_track
12, 0, Title_t, "Violin II"
12, 0, MIDI_port, 0
12, 0, Program_c, 5, 48
12, 0, Control_c, 5, 7, 96
12, 0, Control_c, 5, 10, 24
12, 0, Control_c, 5, 11, 127
12, 30, Note_on_c, 5, 55, 48
12, 59, Note_on_c, 5, 55, 0
12, 60, Note_on_c, 5, 58, 48
12, 89, Note_on_c, 5, 58, 0
12, 90, Note_on_c, 5, 62, 48
12, 119, Note_on_c, 5, 62, 0
12, 120, Note_on_c, 5, 67, 48
12, 269, Note_on_c, 5, 67, 0
12, 270, Note_on_c, 5, 58, 48
12, 299, Note_on_c, 5, 58, 0
12, 300, Note_on_c, 5, 62, 48
12, 329, Note_on_c, 5, 62, 0
12, 330, Note_on_c, 5, 67, 48
12, 359, Note_on_c, 5, 67, 0
12, 360, Note_on_c, 5, 70, 48
12, 479, Note_on_c, 5, 70, 0
12, 480, Note_on_c, 5, 69, 48
12, 509, Note_on_c, 5, 69, 0
12, 510, Note_on_c, 5, 57, 48
12, 539, Note_on_c, 5, 57, 0
12, 540, Note_on_c, 5, 62, 48
12, 569, Note_on_c, 5, 62, 0
12, 570, Note_on_c, 5, 66, 48
12, 599, Note_on_c, 5, 66, 0
12, 600, Note_on_c, 5, 69, 48
12, 719, Note_on_c, 5, 69, 0
12, 720, Note_on_c, 5, 67, 48
12, 749, Note_on_c, 5, 67, 0
12, 750, Note_on_c, 5, 55, 48
12, 779, Note_on_c, 5, 55, 0
12, 780, Note_on_c, 5, 58, 48
12, 809, Note_on_c, 5, 58, 0
12, 810, Note_on_c, 5, 62, 48
12, 839, Note_on_c, 5, 62, 0
12, 840, Note_on_c, 5, 67, 48
12, 959, Note_on_c, 5, 67, 0
12, 960, Note_on_c, 5, 75, 72
12, 1049, Note_on_c, 5, 75, 0
12, 1050, Note_on_c, 5, 75, 72
12, 1079, Note_on_c, 5, 75, 0
12, 1080, Note_on_c, 5, 74, 72
12, 1139, Note_on_c, 5, 74, 0
12, 1140, Note_on_c, 5, 62, 72
12, 1199, Note_on_c, 5, 62, 0
12, 1200, Note_on_c, 5, 72, 72
12, 1289, Note_on_c, 5, 72, 0
12, 1290, Note_on_c, 5, 72, 72
12, 1319, Note_on_c, 5, 72, 0
12, 1320, Note_on_c, 5, 70, 72
12, 1379, Note_on_c, 5, 70, 0
12, 1380, Note_on_c, 5, 58, 72
12, 1439, Note_on_c, 5, 58, 0
12, 1440, Note_on_c, 5, 57, 48
12, 1499, Note_on_c, 5, 57, 0
12, 1500, Note_on_c, 5, 63, 48
12, 1559, Note_on_c, 5, 63, 0
12, 1560, Note_on_c, 5, 66, 48
12, 1619, Note_on_c, 5, 66, 0
12, 1620, Note_on_c, 5, 67, 48
12, 1679, Note_on_c, 5, 67, 0
12, 1680, Note_on_c, 5, 69, 48
12, 1859, Note_on_c, 5, 69, 0
12, 1860, Note_on_c, 5, 69, 48
12, 1919, Note_on_c, 5, 69, 0
12, 1920, Note_on_c, 5, 67, 48
12, 1949, Note_on_c, 5, 67, 0
12, 1980, Note_on_c, 5, 67, 48
12, 2039, Note_on_c, 5, 67, 0
12, 2040, Note_on_c, 5, 66, 48
12, 2099, Note_on_c, 5, 66, 0
12, 2100, Note_on_c, 5, 67, 48
12, 2159, Note_on_c, 5, 67, 0
12, 2160, Note_on_c, 5, 69, 48
12, 2339, Note_on_c, 5, 69, 0
12, 2340, Note_on_c, 5, 69, 48
12, 2399, Note_on_c, 5, 69, 0
12, 2400, Note_on_c, 5, 67, 48
12, 2519, Note_on_c, 5, 67, 0
12, 2520, Note_on_c, 5, 69, 48
12, 2579, Note_on_c, 5, 69, 0
12, 2580, Note_on_c, 5, 69, 48
12, 2639, Note_on_c, 5, 69, 0
12, 2640, Note_on_c, 5, 70, 48
12, 2759, Note_on_c, 5, 70, 0
12, 2760, Note_on_c, 5, 69, 48
12, 2819, Note_on_c, 5, 69, 0
12, 2820, Note_on_c, 5, 67, 48
12, 2879, Note_on_c, 5, 67, 0
12, 2910, Note_on_c, 5, 66, 72
12, 2969, Note_on_c, 5, 66, 0
12, 2970, Note_on_c, 5, 65, 72
12, 3029, Note_on_c, 5, 65, 0
12, 3030, Note_on_c, 5, 64, 72
12, 3089, Note_on_c, 5, 64, 0
12, 3090, Note_on_c, 5, 63, 72
12, 3119, Note_on_c, 5, 63, 0
12, 3120, Note_on_c, 5, 62, 72
12, 3239, Note_on_c, 5, 62, 0
12, 3300, Note_on_c, 5, 62, 48
12, 3359, Note_on_c, 5, 62, 0
12, 3360, Note_on_c, 5, 62, 48
12, 3389, Note_on_c, 5, 62, 0
12, 3390, Note_on_c, 5, 62, 48
12, 3449, Note_on_c, 5, 62, 0
12, 3450, Note_on_c, 5, 62, 48
12, 3479, Note_on_c, 5, 62, 0
12, 3480, Note_on_c, 5, 63, 48
12, 3509, Note_on_c, 5, 63, 0
12, 3510, Note_on_c, 5, 63, 48
12, 3569, Note_on_c, 5, 63, 0
12, 3570, Note_on_c, 5, 63, 48
12, 3599, Note_on_c, 5, 63, 0
12, 3600, Note_on_c, 5, 62, 48
12, 3629, Note_on_c, 5, 62, 0
12, 3630, Note_on_c, 5, 62, 48
12, 3689, Note_on_c, 5, 62, 0
12, 3690, Note_on_c, 5, 62, 48
12, 3719, Note_on_c, 5, 62, 0
12, 3720, Note_on_c, 5, 63, 48
12, 3749, Note_on_c, 5, 63, 0
12, 3750, Note_on_c, 5, 63, 48
12, 3809, Note_on_c, 5, 63, 0
12, 3810, Note_on_c, 5, 63, 48
12, 3839, Note_on_c, 5, 63, 0
12, 3840, Note_on_c, 5, 62, 48
12, 3869, Note_on_c, 5, 62, 0
12, 3870, Note_on_c, 5, 62, 72
12, 3929, Note_on_c, 5, 62, 0
12, 3930, Note_on_c, 5, 59, 72
12, 3989, Note_on_c, 5, 59, 0
12, 3990, Note_on_c, 5, 60, 72
12, 4049, Note_on_c, 5, 60, 0
12, 4050, Note_on_c, 5, 62, 72
12, 4079, Note_on_c, 5, 62, 0
12, 4080, Note_on_c, 5, 63, 72
12, 4199, Note_on_c, 5, 63, 0
12, 4260, Note_on_c, 5, 63, 48
12, 4319, Note_on_c, 5, 63, 0
12, 4320, Note_on_c, 5, 63, 48
12, 4349, Note_on_c, 5, 63, 0
12, 4350, Note_on_c, 5, 63, 48
12, 4409, Note_on_c, 5, 63, 0
12, 4410, Note_on_c, 5, 63, 48
12, 4439, Note_on_c, 5, 63, 0
12, 4440, Note_on_c, 5, 65, 48
12, 4469, Note_on_c, 5, 65, 0
12, 4470, Note_on_c, 5, 65, 48
12, 4529, Note_on_c, 5, 65, 0
12, 4530, Note_on_c, 5, 65, 48
12, 4559, Note_on_c, 5, 65, 0
12, 4560, Note_on_c, 5, 63, 48
12, 4589, Note_on_c, 5, 63, 0
12, 4590, Note_on_c, 5, 63, 48
12, 4649, Note_on_c, 5, 63, 0
12, 4650, Note_on_c, 5, 63, 48
12, 4679, Note_on_c, 5, 63, 0
12, 4680, Note_on_c, 5, 65, 48
12, 4709, Note_on_c, 5, 65, 0
12, 4710, Note_on_c, 5, 65, 48
12, 4769, Note_on_c, 5, 65, 0
12, 4770, Note_on_c, 5, 65, 48
12, 4799, Note_on_c, 5, 65, 0
12, 4800, Note_on_c, 5, 63, 48
12, 4919, Note_on_c, 5, 63, 0
12, 5040, Note_on_c, 5, 60, 48
12, 5099, Note_on_c, 5, 60, 0
12, 5100, Note_on_c, 5, 60, 48
12, 5159, Note_on_c, 5, 60, 0
12, 5160, Note_on_c, 5, 60, 48
12, 5219, Note_on_c, 5, 60, 0
12, 5220, Note_on_c, 5, 60, 48
12, 5279, Note_on_c, 5, 60, 0
12, 5280, Note_on_c, 5, 60, 48
12, 5339, Note_on_c, 5, 60, 0
12, 5340, Note_on_c, 5, 60, 48
12, 5399, Note_on_c, 5, 60, 0
12, 5400, Note_on_c, 5, 58, 48
12, 5459, Note_on_c, 5, 58, 0
12, 5460, Note_on_c, 5, 58, 48
12, 5519, Note_on_c, 5, 58, 0
12, 5520, Note_on_c, 5, 58, 48
12, 5579, Note_on_c, 5, 58, 0
12, 5580, Note_on_c, 5, 58, 48
12, 5639, Note_on_c, 5, 58, 0
12, 5640, Note_on_c, 5, 58, 48
12, 5699, Note_on_c, 5, 58, 0
12, 5700, Note_on_c, 5, 58, 48
12, 5759, Note_on_c, 5, 58, 0
12, 5760, Note_on_c, 5, 59, 48
12, 5819, Note_on_c, 5, 59, 0
12, 5820, Note_on_c, 5, 59, 48
12, 5879, Note_on_c, 5, 59, 0
12, 5880, Note_on_c, 5, 60, 48
12, 5939, Note_on_c, 5, 60, 0
12, 5940, Note_on_c, 5, 60, 48
12, 5999, Note_on_c, 5, 60, 0
12, 6000, Note_on_c, 5, 60, 48
12, 6059, Note_on_c, 5, 60, 0
12, 6060, Note_on_c, 5, 60, 48
12, 6119, Note_on_c, 5, 60, 0
12, 6120, Note_on_c, 5, 59, 48
12, 6179, Note_on_c, 5, 59, 0
12, 6180, Note_on_c, 5, 59, 48
12, 6239, Note_on_c, 5, 59, 0
12, 6240, Note_on_c, 5, 60, 72
12, 6299, Note_on_c, 5, 60, 0
12, 6300, Note_on_c, 5, 63, 72
12, 6359, Note_on_c, 5, 63, 0
12, 6360, Note_on_c, 5, 67, 72
12, 6419, Note_on_c, 5, 67, 0
12, 6420, Note_on_c, 5, 63, 72
12, 6479, Note_on_c, 5, 63, 0
12, 6540, Note_on_c, 5, 61, 72
12, 6599, Note_on_c, 5, 61, 0
12, 6600, Note_on_c, 5, 67, 72
12, 6659, Note_on_c, 5, 67, 0
12, 6660, Note_on_c, 5, 61, 72
12, 6719, Note_on_c, 5, 61, 0
12, 6780, Note_on_c, 5, 60, 48
12, 6839, Note_on_c, 5, 60, 0
12, 6840, Note_on_c, 5, 63, 48
12, 6899, Note_on_c, 5, 63, 0
12, 6900, Note_on_c, 5, 60, 48
12, 6959, Note_on_c, 5, 60, 0
12, 7020, Note_on_c, 5, 56, 48
12, 7079, Note_on_c, 5, 56, 0
12, 7080, Note_on_c, 5, 60, 48
12, 7139, Note_on_c, 5, 60, 0
12, 7140, Note_on_c, 5, 56, 48
12, 7199, Note_on_c, 5, 56, 0
12, 7260, Note_on_c, 5, 68, 48
12, 7319, Note_on_c, 5, 68, 0
12, 7320, Note_on_c, 5, 67, 48
12, 7379, Note_on_c, 5, 67, 0
12, 7380, Note_on_c, 5, 70, 48
12, 7439, Note_on_c, 5, 70, 0
12, 7500, Note_on_c, 5, 60, 48
12, 7559, Note_on_c, 5, 60, 0
12, 7560, Note_on_c, 5, 63, 48
12, 7619, Note_on_c, 5, 63, 0
12, 7620, Note_on_c, 5, 60, 72
12, 7679, Note_on_c, 5, 60, 0
12, 7680, Note_on_c, 5, 78, 72
12, 7709, Note_on_c, 5, 78, 0
12, 7710, Note_on_c, 5, 66, 72
12, 7739, Note_on_c, 5, 66, 0
12, 7740, Note_on_c, 5, 66, 72
12, 7769, Note_on_c, 5, 66, 0
12, 7770, Note_on_c, 5, 66, 72
12, 7799, Note_on_c, 5, 66, 0
12, 7800, Note_on_c, 5, 77, 72
12, 7829, Note_on_c, 5, 77, 0
12, 7830, Note_on_c, 5, 65, 72
12, 7859, Note_on_c, 5, 65, 0
12, 7860, Note_on_c, 5, 65, 72
12, 7889, Note_on_c, 5, 65, 0
12, 7890, Note_on_c, 5, 65, 72
12, 7919, Note_on_c, 5, 65, 0
12, 7920, Note_on_c, 5, 76, 72
12, 7949, Note_on_c, 5, 76, 0
12, 7950, Note_on_c, 5, 64, 72
12, 7979, Note_on_c, 5, 64, 0
12, 7980, Note_on_c, 5, 64, 72
12, 8009, Note_on_c, 5, 64, 0
12, 8010, Note_on_c, 5, 64, 72
12, 8039, Note_on_c, 5, 64, 0
12, 8040, Note_on_c, 5, 77, 72
12, 8099, Note_on_c, 5, 77, 0
12, 8220, Note_on_c, 5, 61, 48
12, 8279, Note_on_c, 5, 61, 0
12, 8280, Note_on_c, 5, 65, 48
12, 8339, Note_on_c, 5, 65, 0
12, 8340, Note_on_c, 5, 61, 48
12, 8399, Note_on_c, 5, 61, 0
12, 8460, Note_on_c, 5, 58, 48
12, 8519, Note_on_c, 5, 58, 0
12, 8520, Note_on_c, 5, 61, 48
12, 8579, Note_on_c, 5, 61, 0
12, 8580, Note_on_c, 5, 58, 48
12, 8639, Note_on_c, 5, 58, 0
12, 8700, Note_on_c, 5, 61, 48
12, 8759, Note_on_c, 5, 61, 0
12, 8760, Note_on_c, 5, 60, 48
12, 8819, Note_on_c, 5, 60, 0
12, 8820, Note_on_c, 5, 57, 48
12, 8879, Note_on_c, 5, 57, 0
12, 8940, Note_on_c, 5, 62, 48
12, 8999, Note_on_c, 5, 62, 0
12, 9000, Note_on_c, 5, 65, 48
12, 9059, Note_on_c, 5, 65, 0
12, 9060, Note_on_c, 5, 62, 72
12, 9119, Note_on_c, 5, 62, 0
12, 9120, Note_on_c, 5, 80, 72
12, 9149, Note_on_c, 5, 80, 0
12, 9150, Note_on_c, 5, 68, 72
12, 9179, Note_on_c, 5, 68, 0
12, 9180, Note_on_c, 5, 68, 72
12, 9209, Note_on_c, 5, 68, 0
12, 9210, Note_on_c, 5, 68, 72
12, 9239, Note_on_c, 5, 68, 0
12, 9240, Note_on_c, 5, 79, 72
12, 9269, Note_on_c, 5, 79, 0
12, 9270, Note_on_c, 5, 67, 72
12, 9299, Note_on_c, 5, 67, 0
12, 9300, Note_on_c, 5, 67, 72
12, 9329, Note_on_c, 5, 67, 0
12, 9330, Note_on_c, 5, 67, 72
12, 9359, Note_on_c, 5, 67, 0
12, 9360, Note_on_c, 5, 78, 72
12, 9389, Note_on_c, 5, 78, 0
12, 9390, Note_on_c, 5, 66, 72
12, 9419, Note_on_c, 5, 66, 0
12, 9420, Note_on_c, 5, 66, 72
12, 9449, Note_on_c, 5, 66, 0
12, 9450, Note_on_c, 5, 66, 72
12, 9479, Note_on_c, 5, 66, 0
12, 9480, Note_on_c, 5, 79, 72
12, 9539, Note_on_c, 5, 79, 0
12, 9600, Note_on_c, 5, 55, 72
12, 9629, Note_on_c, 5, 55, 0
12, 9630, Note_on_c, 5, 59, 72
12, 9659, Note_on_c, 5, 59, 0
12, 9660, Note_on_c, 5, 62, 72
12, 9689, Note_on_c, 5, 62, 0
12, 9690, Note_on_c, 5, 67, 72
12, 9719, Note_on_c, 5, 67, 0
12, 9720, Note_on_c, 5, 63, 72
12, 9749, Note_on_c, 5, 63, 0
12, 9750, Note_on_c, 5, 67, 72
12, 9779, Note_on_c, 5, 67, 0
12, 9780, Note_on_c, 5, 60, 72
12, 9809, Note_on_c, 5, 60, 0
12, 9810, Note_on_c, 5, 63, 72
12, 9839, Note_on_c, 5, 63, 0
12, 9840, Note_on_c, 5, 65, 72
12, 9869, Note_on_c, 5, 65, 0
12, 9870, Note_on_c, 5, 68, 72
12, 9899, Note_on_c, 5, 68, 0
12, 9900, Note_on_c, 5, 63, 72
12, 9929, Note_on_c, 5, 63, 0
12, 9930, Note_on_c, 5, 72, 72
12, 9959, Note_on_c, 5, 72, 0
12, 9960, Note_on_c, 5, 62, 72
12, 9989, Note_on_c, 5, 62, 0
12, 9990, Note_on_c, 5, 65, 72
12, 10019, Note_on_c, 5, 65, 0
12, 10020, Note_on_c, 5, 58, 72
12, 10049, Note_on_c, 5, 58, 0
12, 10050, Note_on_c, 5, 62, 72
12, 10079, Note_on_c, 5, 62, 0
12, 10080, Note_on_c, 5, 63, 72
12, 10109, Note_on_c, 5, 63, 0
12, 10110, Note_on_c, 5, 67, 72
12, 10139, Note_on_c, 5, 67, 0
12, 10140, Note_on_c, 5, 62, 72
12, 10169, Note_on_c, 5, 62, 0
12, 10170, Note_on_c, 5, 70, 72
12, 10199, Note_on_c, 5, 70, 0
12, 10200, Note_on_c, 5, 60, 72
12, 10229, Note_on_c, 5, 60, 0
12, 10230, Note_on_c, 5, 63, 72
12, 10259, Note_on_c, 5, 63, 0
12, 10260, Note_on_c, 5, 57, 72
12, 10289, Note_on_c, 5, 57, 0
12, 10290, Note_on_c, 5, 60, 72
12, 10319, Note_on_c, 5, 60, 0
12, 10320, Note_on_c, 5, 62, 72
12, 10349, Note_on_c, 5, 62, 0
12, 10350, Note_on_c, 5, 65, 72
12, 10379, Note_on_c, 5, 65, 0
12, 10380, Note_on_c, 5, 60, 72
12, 10409, Note_on_c, 5, 60, 0
12, 10410, Note_on_c, 5, 68, 72
12, 10439, Note_on_c, 5, 68, 0
12, 10440, Note_on_c, 5, 59, 72
12, 10469, Note_on_c, 5, 59, 0
12, 10470, Note_on_c, 5, 62, 72
12, 10499, Note_on_c, 5, 62, 0
12, 10500, Note_on_c, 5, 55, 72
12, 10529, Note_on_c, 5, 55, 0
12, 10530, Note_on_c, 5, 59, 72
12, 10559, Note_on_c, 5, 59, 0
12, 10560, Note_on_c, 5, 60, 72
12, 10589, Note_on_c, 5, 60, 0
12, 10590, Note_on_c, 5, 63, 72
12, 10619, Note_on_c, 5, 63, 0
12, 10620, Note_on_c, 5, 67, 72
12, 10649, Note_on_c, 5, 67, 0
12, 10650, Note_on_c, 5, 65, 72
12, 10679, Note_on_c, 5, 65, 0
12, 10680, Note_on_c, 5, 64, 72
12, 10709, Note_on_c, 5, 64, 0
12, 10710, Note_on_c, 5, 67, 72
12, 10739, Note_on_c, 5, 67, 0
12, 10740, Note_on_c, 5, 60, 72
12, 10769, Note_on_c, 5, 60, 0
12, 10770, Note_on_c, 5, 64, 72
12, 10799, Note_on_c, 5, 64, 0
12, 10800, Note_on_c, 5, 65, 72
12, 10829, Note_on_c, 5, 65, 0
12, 10830, Note_on_c, 5, 69, 72
12, 10859, Note_on_c, 5, 69, 0
12, 10860, Note_on_c, 5, 62, 72
12, 10889, Note_on_c, 5, 62, 0
12, 10890, Note_on_c, 5, 65, 72
12, 10919, Note_on_c, 5, 65, 0
12, 10920, Note_on_c, 5, 67, 72
12, 10949, Note_on_c, 5, 67, 0
12, 10950, Note_on_c, 5, 70, 72
12, 10979, Note_on_c, 5, 70, 0
12, 10980, Note_on_c, 5, 65, 72
12, 11009, Note_on_c, 5, 65, 0
12, 11010, Note_on_c, 5, 74, 72
12, 11039, Note_on_c, 5, 74, 0
12, 11040, Note_on_c, 5, 64, 72
12, 11069, Note_on_c, 5, 64, 0
12, 11070, Note_on_c, 5, 67, 72
12, 11099, Note_on_c, 5, 67, 0
12, 11100, Note_on_c, 5, 60, 72
12, 11129, Note_on_c, 5, 60, 0
12, 11130, Note_on_c, 5, 64, 72
12, 11159, Note_on_c, 5, 64, 0
12, 11160, Note_on_c, 5, 65, 72
12, 11189, Note_on_c, 5, 65, 0
12, 11190, Note_on_c, 5, 69, 72
12, 11219, Note_on_c, 5, 69, 0
12, 11220, Note_on_c, 5, 64, 72
12, 11249, Note_on_c, 5, 64, 0
12, 11250, Note_on_c, 5, 72, 72
12, 11279, Note_on_c, 5, 72, 0
12, 11280, Note_on_c, 5, 62, 72
12, 11309, Note_on_c, 5, 62, 0
12, 11310, Note_on_c, 5, 65, 72
12, 11339, Note_on_c, 5, 65, 0
12, 11340, Note_on_c, 5, 58, 72
12, 11369, Note_on_c, 5, 58, 0
12, 11370, Note_on_c, 5, 62, 72
12, 11399, Note_on_c, 5, 62, 0
12, 11400, Note_on_c, 5, 63, 72
12, 11429, Note_on_c, 5, 63, 0
12, 11430, Note_on_c, 5, 67, 72
12, 11459, Note_on_c, 5, 67, 0
12, 11460, Note_on_c, 5, 60, 72
12, 11489, Note_on_c, 5, 60, 0
12, 11490, Note_on_c, 5, 63, 72
12, 11519, Note_on_c, 5, 63, 0
12, 11520, Note_on_c, 5, 65, 72
12, 11549, Note_on_c, 5, 65, 0
12, 11550, Note_on_c, 5, 69, 72
12, 11579, Note_on_c, 5, 69, 0
12, 11580, Note_on_c, 5, 74, 72
12, 11609, Note_on_c, 5, 74, 0
12, 11610, Note_on_c, 5, 72, 72
12, 11639, Note_on_c, 5, 72, 0
12, 11640, Note_on_c, 5, 70, 72
12, 11669, Note_on_c, 5, 70, 0
12, 11670, Note_on_c, 5, 74, 72
12, 11699, Note_on_c, 5, 74, 0
12, 11700, Note_on_c, 5, 69, 72
12, 11729, Note_on_c, 5, 69, 0
12, 11730, Note_on_c, 5, 77, 72
12, 11759, Note_on_c, 5, 77, 0
12, 11760, Note_on_c, 5, 67, 72
12, 11789, Note_on_c, 5, 67, 0
12, 11790, Note_on_c, 5, 70, 72
12, 11819, Note_on_c, 5, 70, 0
12, 11820, Note_on_c, 5, 65, 72
12, 11849, Note_on_c, 5, 65, 0
12, 11850, Note_on_c, 5, 74, 72
12, 11879, Note_on_c, 5, 74, 0
12, 11880, Note_on_c, 5, 64, 72
12, 11909, Note_on_c, 5, 64, 0
12, 11910, Note_on_c, 5, 67, 72
12, 11939, Note_on_c, 5, 67, 0
12, 11940, Note_on_c, 5, 62, 72
12, 11969, Note_on_c, 5, 62, 0
12, 11970, Note_on_c, 5, 70, 72
12, 11999, Note_on_c, 5, 70, 0
12, 12000, Note_on_c, 5, 61, 72
12, 12029, Note_on_c, 5, 61, 0
12, 12030, Note_on_c, 5, 64, 72
12, 12059, Note_on_c, 5, 64, 0
12, 12060, Note_on_c, 5, 57, 72
12, 12089, Note_on_c, 5, 57, 0
12, 12090, Note_on_c, 5, 61, 72
12, 12119, Note_on_c, 5, 61, 0
12, 12120, Note_on_c, 5, 62, 72
12, 12149, Note_on_c, 5, 62, 0
12, 12150, Note_on_c, 5, 65, 72
12, 12179, Note_on_c, 5, 65, 0
12, 12180, Note_on_c, 5, 60, 72
12, 12209, Note_on_c, 5, 60, 0
12, 12210, Note_on_c, 5, 69, 72
12, 12239, Note_on_c, 5, 69, 0
12, 12240, Note_on_c, 5, 59, 72
12, 12269, Note_on_c, 5, 59, 0
12, 12270, Note_on_c, 5, 62, 72
12, 12299, Note_on_c, 5, 62, 0
12, 12300, Note_on_c, 5, 55, 72
12, 12329, Note_on_c, 5, 55, 0
12, 12330, Note_on_c, 5, 59, 72
12, 12359, Note_on_c, 5, 59, 0
12, 12360, Note_on_c, 5, 61, 72
12, 12389, Note_on_c, 5, 61, 0
12, 12390, Note_on_c, 5, 64, 72
12, 12419, Note_on_c, 5, 64, 0
12, 12420, Note_on_c, 5, 57, 72
12, 12449, Note_on_c, 5, 57, 0
12, 12450, Note_on_c, 5, 61, 72
12, 12479, Note_on_c, 5, 61, 0
12, 12480, Note_on_c, 5, 62, 72
12, 12509, Note_on_c, 5, 62, 0
12, 12510, Note_on_c, 5, 65, 72
12, 12539, Note_on_c, 5, 65, 0
12, 12540, Note_on_c, 5, 69, 72
12, 12569, Note_on_c, 5, 69, 0
12, 12570, Note_on_c, 5, 73, 72
12, 12599, Note_on_c, 5, 73, 0
12, 12600, Note_on_c, 5, 74, 72
12, 12629, Note_on_c, 5, 74, 0
12, 12630, Note_on_c, 5, 69, 72
12, 12659, Note_on_c, 5, 69, 0
12, 12660, Note_on_c, 5, 65, 72
12, 12689, Note_on_c, 5, 65, 0
12, 12690, Note_on_c, 5, 62, 72
12, 12719, Note_on_c, 5, 62, 0
12, 12720, Note_on_c, 5, 63, 72
12, 12749, Note_on_c, 5, 63, 0
12, 12750, Note_on_c, 5, 67, 72
12, 12779, Note_on_c, 5, 67, 0
12, 12780, Note_on_c, 5, 70, 72
12, 12809, Note_on_c, 5, 70, 0
12, 12810, Note_on_c, 5, 74, 72
12, 12839, Note_on_c, 5, 74, 0
12, 12840, Note_on_c, 5, 72, 72
12, 12869, Note_on_c, 5, 72, 0
12, 12870, Note_on_c, 5, 67, 72
12, 12899, Note_on_c, 5, 67, 0
12, 12900, Note_on_c, 5, 63, 72
12, 12929, Note_on_c, 5, 63, 0
12, 12930, Note_on_c, 5, 60, 72
12, 12959, Note_on_c, 5, 60, 0
12, 12960, Note_on_c, 5, 62, 72
12, 12989, Note_on_c, 5, 62, 0
12, 12990, Note_on_c, 5, 65, 72
12, 13019, Note_on_c, 5, 65, 0
12, 13020, Note_on_c, 5, 69, 72
12, 13049, Note_on_c, 5, 69, 0
12, 13050, Note_on_c, 5, 72, 72
12, 13079, Note_on_c, 5, 72, 0
12, 13080, Note_on_c, 5, 70, 72
12, 13109, Note_on_c, 5, 70, 0
12, 13110, Note_on_c, 5, 65, 72
12, 13139, Note_on_c, 5, 65, 0
12, 13140, Note_on_c, 5, 62, 72
12, 13169, Note_on_c, 5, 62, 0
12, 13170, Note_on_c, 5, 58, 72
12, 13199, Note_on_c, 5, 58, 0
12, 13200, Note_on_c, 5, 60, 72
12, 13229, Note_on_c, 5, 60, 0
12, 13230, Note_on_c, 5, 63, 72
12, 13259, Note_on_c, 5, 63, 0
12, 13260, Note_on_c, 5, 67, 72
12, 13289, Note_on_c, 5, 67, 0
12, 13290, Note_on_c, 5, 70, 72
12, 13319, Note_on_c, 5, 70, 0
12, 13320, Note_on_c, 5, 69, 72
12, 13349, Note_on_c, 5, 69, 0
12, 13350, Note_on_c, 5, 66, 72
12, 13379, Note_on_c, 5, 66, 0
12, 13380, Note_on_c, 5, 63, 72
12, 13409, Note_on_c, 5, 63, 0
12, 13410, Note_on_c, 5, 60, 72
12, 13439, Note_on_c, 5, 60, 0
12, 13440, Note_on_c, 5, 58, 72
12, 13469, Note_on_c, 5, 58, 0
12, 13470, Note_on_c, 5, 55, 72
12, 13499, Note_on_c, 5, 55, 0
12, 13500, Note_on_c, 5, 58, 72
12, 13529, Note_on_c, 5, 58, 0
12, 13530, Note_on_c, 5, 60, 72
12, 13559, Note_on_c, 5, 60, 0
12, 13560, Note_on_c, 5, 62, 72
12, 13589, Note_on_c, 5, 62, 0
12, 13590, Note_on_c, 5, 64, 72
12, 13619, Note_on_c, 5, 64, 0
12, 13620, Note_on_c, 5, 66, 72
12, 13649, Note_on_c, 5, 66, 0
12, 13650, Note_on_c, 5, 62, 72
12, 13679, Note_on_c, 5, 62, 0
12, 13680, Note_on_c, 5, 67, 72
12, 13709, Note_on_c, 5, 67, 0
12, 13710, Note_on_c, 5, 69, 72
12, 13739, Note_on_c, 5, 69, 0
12, 13740, Note_on_c, 5, 70, 72
12, 13769, Note_on_c, 5, 70, 0
12, 13770, Note_on_c, 5, 72, 72
12, 13799, Note_on_c, 5, 72, 0
12, 13800, Note_on_c, 5, 74, 72
12, 13829, Note_on_c, 5, 74, 0
12, 13830, Note_on_c, 5, 76, 72
12, 13859, Note_on_c, 5, 76, 0
12, 13860, Note_on_c, 5, 78, 72
12, 13889, Note_on_c, 5, 78, 0
12, 13890, Note_on_c, 5, 74, 72
12, 13919, Note_on_c, 5, 74, 0
12, 13920, Note_on_c, 5, 79, 72
12, 13949, Note_on_c, 5, 79, 0
12, 13950, Note_on_c, 5, 74, 72
12, 13979, Note_on_c, 5, 74, 0
12, 13980, Note_on_c, 5, 70, 72
12, 14009, Note_on_c, 5, 70, 0
12, 14010, Note_on_c, 5, 67, 72
12, 14039, Note_on_c, 5, 67, 0
12, 14040, Note_on_c, 5, 74, 72
12, 14099, Note_on_c, 5, 74, 0
12, 14100, Note_on_c, 5, 62, 72
12, 14159, Note_on_c, 5, 62, 0
12, 14400, Note_on_c, 5, 58, 48
12, 14459, Note_on_c, 5, 58, 0
12, 14460, Note_on_c, 5, 58, 48
12, 14519, Note_on_c, 5, 58, 0
12, 14520, Note_on_c, 5, 58, 48
12, 14579, Note_on_c, 5, 58, 0
12, 14580, Note_on_c, 5, 58, 48
12, 14639, Note_on_c, 5, 58, 0
12, 14640, Note_on_c, 5, 60, 48
12, 14699, Note_on_c, 5, 60, 0
12, 14700, Note_on_c, 5, 60, 48
12, 14759, Note_on_c, 5, 60, 0
12, 14760, Note_on_c, 5, 60, 48
12, 14819, Note_on_c, 5, 60, 0
12, 14820, Note_on_c, 5, 58, 48
12, 14879, Note_on_c, 5, 58, 0
12, 14880, Note_on_c, 5, 57, 48
12, 14939, Note_on_c, 5, 57, 0
12, 14940, Note_on_c, 5, 60, 48
12, 14969, Note_on_c, 5, 60, 0
12, 14970, Note_on_c, 5, 69, 48
12, 14999, Note_on_c, 5, 69, 0
12, 15000, Note_on_c, 5, 58, 48
12, 15029, Note_on_c, 5, 58, 0
12, 15030, Note_on_c, 5, 67, 48
12, 15059, Note_on_c, 5, 67, 0
12, 15060, Note_on_c, 5, 57, 48
12, 15089, Note_on_c, 5, 57, 0
12, 15090, Note_on_c, 5, 66, 48
12, 15119, Note_on_c, 5, 66, 0
12, 15120, Note_on_c, 5, 55, 48
12, 15239, Note_on_c, 5, 55, 0
12, 15300, Note_on_c, 5, 58, 48
12, 15359, Note_on_c, 5, 58, 0
12, 15360, Note_on_c, 5, 62, 48
12, 15419, Note_on_c, 5, 62, 0
12, 15420, Note_on_c, 5, 58, 48
12, 15479, Note_on_c, 5, 58, 0
12, 15540, Note_on_c, 5, 67, 48
12, 15599, Note_on_c, 5, 67, 0
12, 15600, Note_on_c, 5, 69, 48
12, 15659, Note_on_c, 5, 69, 0
12, 15660, Note_on_c, 5, 62, 48
12, 15719, Note_on_c, 5, 62, 0
12, 15780, Note_on_c, 5, 69, 48
12, 15839, Note_on_c, 5, 69, 0
12, 15840, Note_on_c, 5, 67, 48
12, 15899, Note_on_c, 5, 67, 0
12, 15900, Note_on_c, 5, 62, 48
12, 15959, Note_on_c, 5, 62, 0
12, 16020, Note_on_c, 5, 67, 48
12, 16079, Note_on_c, 5, 67, 0
12, 16080, Note_on_c, 5, 63, 48
12, 16139, Note_on_c, 5, 63, 0
12, 16140, Note_on_c, 5, 60, 48
12, 16199, Note_on_c, 5, 60, 0
12, 16260, Note_on_c, 5, 60, 48
12, 16319, Note_on_c, 5, 60, 0
12, 16320, Note_on_c, 5, 63, 48
12, 16379, Note_on_c, 5, 63, 0
12, 16380, Note_on_c, 5, 60, 48
12, 16439, Note_on_c, 5, 60, 0
12, 16500, Note_on_c, 5, 63, 48
12, 16559, Note_on_c, 5, 63, 0
12, 16560, Note_on_c, 5, 67, 48
12, 16619, Note_on_c, 5, 67, 0
12, 16620, Note_on_c, 5, 62, 48
12, 16679, Note_on_c, 5, 62, 0
12, 16740, Note_on_c, 5, 67, 48
12, 16799, Note_on_c, 5, 67, 0
12, 16800, Note_on_c, 5, 64, 48
12, 16859, Note_on_c, 5, 64, 0
12, 16860, Note_on_c, 5, 70, 48
12, 16919, Note_on_c, 5, 70, 0
12, 16980, Note_on_c, 5, 64, 48
12, 17039, Note_on_c, 5, 64, 0
12, 17040, Note_on_c, 5, 65, 48
12, 17099, Note_on_c, 5, 65, 0
12, 17100, Note_on_c, 5, 60, 48
12, 17159, Note_on_c, 5, 60, 0
12, 17220, Note_on_c, 5, 65, 48
12, 17279, Note_on_c, 5, 65, 0
12, 17280, Note_on_c, 5, 60, 48
12, 17339, Note_on_c, 5, 60, 0
12, 17340, Note_on_c, 5, 68, 48
12, 17399, Note_on_c, 5, 68, 0
12, 17400, Note_on_c, 5, 67, 48
12, 17459, Note_on_c, 5, 67, 0
12, 17460, Note_on_c, 5, 65, 48
12, 17519, Note_on_c, 5, 65, 0
12, 17520, Note_on_c, 5, 64, 48
12, 17579, Note_on_c, 5, 64, 0
12, 17580, Note_on_c, 5, 62, 48
12, 17639, Note_on_c, 5, 62, 0
12, 17640, Note_on_c, 5, 60, 48
12, 17699, Note_on_c, 5, 60, 0
12, 17700, Note_on_c, 5, 62, 48
12, 17759, Note_on_c, 5, 62, 0
12, 17760, Note_on_c, 5, 63, 48
12, 17819, Note_on_c, 5, 63, 0
12, 17820, Note_on_c, 5, 67, 48
12, 17879, Note_on_c, 5, 67, 0
12, 17880, Note_on_c, 5, 65, 48
12, 17939, Note_on_c, 5, 65, 0
12, 17940, Note_on_c, 5, 63, 48
12, 17999, Note_on_c, 5, 63, 0
12, 18000, Note_on_c, 5, 62, 48
12, 18119, Note_on_c, 5, 62, 0
12, 18180, Note_on_c, 5, 70, 48
12, 18239, Note_on_c, 5, 70, 0
12, 18240, Note_on_c, 5, 74, 48
12, 18299, Note_on_c, 5, 74, 0
12, 18300, Note_on_c, 5, 70, 48
12, 18359, Note_on_c, 5, 70, 0
12, 18420, Note_on_c, 5, 65, 48
12, 18479, Note_on_c, 5, 65, 0
12, 18480, Note_on_c, 5, 72, 48
12, 18539, Note_on_c, 5, 72, 0
12, 18540, Note_on_c, 5, 69, 48
12, 18599, Note_on_c, 5, 69, 0
12, 18660, Note_on_c, 5, 72, 48
12, 18719, Note_on_c, 5, 72, 0
12, 18720, Note_on_c, 5, 74, 48
12, 18779, Note_on_c, 5, 74, 0
12, 18780, Note_on_c, 5, 65, 48
12, 18839, Note_on_c, 5, 65, 0
12, 18900, Note_on_c, 5, 65, 48
12, 18959, Note_on_c, 5, 65, 0
12, 18960, Note_on_c, 5, 67, 48
12, 19019, Note_on_c, 5, 67, 0
12, 19020, Note_on_c, 5, 75, 48
12, 19079, Note_on_c, 5, 75, 0
12, 19140, Note_on_c, 5, 67, 48
12, 19199, Note_on_c, 5, 67, 0
12, 19200, Note_on_c, 5, 69, 48
12, 19259, Note_on_c, 5, 69, 0
12, 19260, Note_on_c, 5, 72, 48
12, 19319, Note_on_c, 5, 72, 0
12, 19380, Note_on_c, 5, 63, 48
12, 19439, Note_on_c, 5, 63, 0
12, 19440, Note_on_c, 5, 62, 48
12, 19499, Note_on_c, 5, 62, 0
12, 19500, Note_on_c, 5, 67, 48
12, 19559, Note_on_c, 5, 67, 0
12, 19560, Note_on_c, 5, 66, 48
12, 19619, Note_on_c, 5, 66, 0
12, 19620, Note_on_c, 5, 67, 48
12, 19679, Note_on_c, 5, 67, 0
12, 19680, Note_on_c, 5, 69, 48
12, 19739, Note_on_c, 5, 69, 0
12, 19740, Note_on_c, 5, 69, 48
12, 19799, Note_on_c, 5, 69, 0
12, 19800, Note_on_c, 5, 69, 48
12, 19859, Note_on_c, 5, 69, 0
12, 19860, Note_on_c, 5, 69, 48
12, 19919, Note_on_c, 5, 69, 0
12, 19920, Note_on_c, 5, 67, 48
12, 19979, Note_on_c, 5, 67, 0
12, 19980, Note_on_c, 5, 67, 48
12, 20039, Note_on_c, 5, 67, 0
12, 20040, Note_on_c, 5, 69, 48
12, 20099, Note_on_c, 5, 69, 0
12, 20100, Note_on_c, 5, 69, 48
12, 20159, Note_on_c, 5, 69, 0
12, 20160, Note_on_c, 5, 70, 48
12, 20219, Note_on_c, 5, 70, 0
12, 20220, Note_on_c, 5, 70, 48
12, 20279, Note_on_c, 5, 70, 0
12, 20280, Note_on_c, 5, 67, 48
12, 20339, Note_on_c, 5, 67, 0
12, 20340, Note_on_c, 5, 67, 48
12, 20399, Note_on_c, 5, 67, 0
12, 20400, Note_on_c, 5, 66, 48
12, 20429, Note_on_c, 5, 66, 0
12, 20430, Note_on_c, 5, 62, 48
12, 20459, Note_on_c, 5, 62, 0
12, 20460, Note_on_c, 5, 60, 72
12, 20489, Note_on_c, 5, 60, 0
12, 20490, Note_on_c, 5, 69, 72
12, 20519, Note_on_c, 5, 69, 0
12, 20520, Note_on_c, 5, 58, 72
12, 20549, Note_on_c, 5, 58, 0
12, 20550, Note_on_c, 5, 67, 72
12, 20579, Note_on_c, 5, 67, 0
12, 20580, Note_on_c, 5, 57, 72
12, 20609, Note_on_c, 5, 57, 0
12, 20610, Note_on_c, 5, 66, 72
12, 20639, Note_on_c, 5, 66, 0
12, 20640, Note_on_c, 5, 55, 72
12, 20699, Note_on_c, 5, 55, 0
12, 20700, Note_on_c, 5, 67, 72
12, 20759, Note_on_c, 5, 67, 0
12, 20820, Note_on_c, 5, 70, 72
12, 20849, Note_on_c, 5, 70, 0
12, 20850, Note_on_c, 5, 62, 72
12, 20879, Note_on_c, 5, 62, 0
12, 20880, Note_on_c, 5, 63, 72
12, 20939, Note_on_c, 5, 63, 0
12, 20940, Note_on_c, 5, 72, 72
12, 20999, Note_on_c, 5, 72, 0
12, 21060, Note_on_c, 5, 72, 72
12, 21089, Note_on_c, 5, 72, 0
12, 21090, Note_on_c, 5, 69, 72
12, 21119, Note_on_c, 5, 69, 0
12, 21120, Note_on_c, 5, 78, 72
12, 21179, Note_on_c, 5, 78, 0
12, 21180, Note_on_c, 5, 57, 72
12, 21239, Note_on_c, 5, 57, 0
12, 21300, Note_on_c, 5, 66, 72
12, 21329, Note_on_c, 5, 66, 0
12, 21330, Note_on_c, 5, 62, 72
12, 21359, Note_on_c, 5, 62, 0
12, 21360, Note_on_c, 5, 74, 72
12, 21419, Note_on_c, 5, 74, 0
12, 21420, Note_on_c, 5, 55, 72
12, 21479, Note_on_c, 5, 55, 0
12, 21540, Note_on_c, 5, 70, 72
12, 21569, Note_on_c, 5, 70, 0
12, 21570, Note_on_c, 5, 67, 72
12, 21599, Note_on_c, 5, 67, 0
12, 21600, Note_on_c, 5, 79, 72
12, 21659, Note_on_c, 5, 79, 0
12, 21660, Note_on_c, 5, 55, 72
12, 21719, Note_on_c, 5, 55, 0
12, 21780, Note_on_c, 5, 76, 72
12, 21809, Note_on_c, 5, 76, 0
12, 21810, Note_on_c, 5, 73, 72
12, 21839, Note_on_c, 5, 73, 0
12, 21840, Note_on_c, 5, 79, 72
12, 21899, Note_on_c, 5, 79, 0
12, 21900, Note_on_c, 5, 57, 72
12, 21959, Note_on_c, 5, 57, 0
12, 22020, Note_on_c, 5, 76, 72
12, 22049, Note_on_c, 5, 76, 0
12, 22050, Note_on_c, 5, 69, 72
12, 22079, Note_on_c, 5, 69, 0
12, 22080, Note_on_c, 5, 81, 72
12, 22139, Note_on_c, 5, 81, 0
12, 22140, Note_on_c, 5, 62, 72
12, 22199, Note_on_c, 5, 62, 0
12, 22260, Note_on_c, 5, 78, 72
12, 22289, Note_on_c, 5, 78, 0
12, 22290, Note_on_c, 5, 74, 72
12, 22319, Note_on_c, 5, 74, 0
12, 22320, Note_on_c, 5, 77, 72
12, 22379, Note_on_c, 5, 77, 0
12, 22380, Note_on_c, 5, 55, 72
12, 22439, Note_on_c, 5, 55, 0
12, 22500, Note_on_c, 5, 74, 72
12, 22529, Note_on_c, 5, 74, 0
12, 22530, Note_on_c, 5, 67, 72
12, 22559, Note_on_c, 5, 67, 0
12, 22560, Note_on_c, 5, 79, 72
12, 22619, Note_on_c, 5, 79, 0
12, 22620, Note_on_c, 5, 60, 72
12, 22679, Note_on_c, 5, 60, 0
12, 22740, Note_on_c, 5, 75, 72
12, 22769, Note_on_c, 5, 75, 0
12, 22770, Note_on_c, 5, 72, 72
12, 22799, Note_on_c, 5, 72, 0
12, 22800, Note_on_c, 5, 84, 72
12, 22859, Note_on_c, 5, 84, 0
12, 22860, Note_on_c, 5, 72, 72
12, 22919, Note_on_c, 5, 72, 0
12, 22980, Note_on_c, 5, 75, 72
12, 23009, Note_on_c, 5, 75, 0
12, 23010, Note_on_c, 5, 66, 72
12, 23039, Note_on_c, 5, 66, 0
12, 23040, Note_on_c, 5, 81, 72
12, 23099, Note_on_c, 5, 81, 0
12, 23100, Note_on_c, 5, 62, 72
12, 23159, Note_on_c, 5, 62, 0
12, 23220, Note_on_c, 5, 81, 72
12, 23249, Note_on_c, 5, 81, 0
12, 23250, Note_on_c, 5, 74, 72
12, 23279, Note_on_c, 5, 74, 0
12, 23280, Note_on_c, 5, 86, 72
12, 23339, Note_on_c, 5, 86, 0
12, 23340, Note_on_c, 5, 67, 72
12, 23399, Note_on_c, 5, 67, 0
12, 23460, Note_on_c, 5, 74, 72
12, 23489, Note_on_c, 5, 74, 0
12, 23490, Note_on_c, 5, 67, 72
12, 23519, Note_on_c, 5, 67, 0
12, 23520, Note_on_c, 5, 79, 72
12, 23579, Note_on_c, 5, 79, 0
12, 23580, Note_on_c, 5, 67, 72
12, 23639, Note_on_c, 5, 67, 0
12, 23700, Note_on_c, 5, 70, 72
12, 23729, Note_on_c, 5, 70, 0
12, 23730, Note_on_c, 5, 67, 72
12, 23759, Note_on_c, 5, 67, 0
12, 23760, Note_on_c, 5, 79, 72
12, 23819, Note_on_c, 5, 79, 0
12, 23820, Note_on_c, 5, 69, 72
12, 23879, Note_on_c, 5, 69, 0
12, 23940, Note_on_c, 5, 76, 72
12, 23969, Note_on_c, 5, 76, 0
12, 23970, Note_on_c, 5, 69, 72
12, 23999, Note_on_c, 5, 69, 0
12, 24000, Note_on_c, 5, 79, 72
12, 24059, Note_on_c, 5, 79, 0
12, 24060, Note_on_c, 5, 62, 72
12, 24119, Note_on_c, 5, 62, 0
12, 24180, Note_on_c, 5, 78, 72
12, 24209, Note_on_c, 5, 78, 0
12, 24210, Note_on_c, 5, 74, 72
12, 24239, Note_on_c, 5, 74, 0
12, 24240, Note_on_c, 5, 86, 72
12, 24299, Note_on_c, 5, 86, 0
12, 24300, Note_on_c, 5, 55, 72
12, 24359, Note_on_c, 5, 55, 0
12, 24420, Note_on_c, 5, 74, 72
12, 24449, Note_on_c, 5, 74, 0
12, 24450, Note_on_c, 5, 67, 72
12, 24479, Note_on_c, 5, 67, 0
12, 24480, Note_on_c, 5, 77, 72
12, 24539, Note_on_c, 5, 77, 0
12, 24540, Note_on_c, 5, 60, 72
12, 24599, Note_on_c, 5, 60, 0
12, 24660, Note_on_c, 5, 76, 72
12, 24689, Note_on_c, 5, 76, 0
12, 24690, Note_on_c, 5, 72, 72
12, 24719, Note_on_c, 5, 72, 0
12, 24720, Note_on_c, 5, 84, 72
12, 24779, Note_on_c, 5, 84, 0
12, 24780, Note_on_c, 5, 65, 72
12, 24839, Note_on_c, 5, 65, 0
12, 24900, Note_on_c, 5, 72, 72
12, 24929, Note_on_c, 5, 72, 0
12, 24930, Note_on_c, 5, 65, 72
12, 24959, Note_on_c, 5, 65, 0
12, 24960, Note_on_c, 5, 75, 72
12, 25019, Note_on_c, 5, 75, 0
12, 25020, Note_on_c, 5, 58, 72
12, 25079, Note_on_c, 5, 58, 0
12, 25140, Note_on_c, 5, 82, 72
12, 25169, Note_on_c, 5, 82, 0
12, 25170, Note_on_c, 5, 74, 72
12, 25199, Note_on_c, 5, 74, 0
12, 25200, Note_on_c, 5, 75, 72
12, 25259, Note_on_c, 5, 75, 0
12, 25260, Note_on_c, 5, 79, 72
12, 25319, Note_on_c, 5, 79, 0
12, 25380, Note_on_c, 5, 79, 72
12, 25409, Note_on_c, 5, 79, 0
12, 25410, Note_on_c, 5, 72, 72
12, 25439, Note_on_c, 5, 72, 0
12, 25440, Note_on_c, 5, 81, 72
12, 25499, Note_on_c, 5, 81, 0
12, 25500, Note_on_c, 5, 65, 72
12, 25559, Note_on_c, 5, 65, 0
12, 25620, Note_on_c, 5, 72, 72
12, 25649, Note_on_c, 5, 72, 0
12, 25650, Note_on_c, 5, 65, 72
12, 25679, Note_on_c, 5, 65, 0
12, 25680, Note_on_c, 5, 77, 72
12, 25739, Note_on_c, 5, 77, 0
12, 25740, Note_on_c, 5, 56, 72
12, 25799, Note_on_c, 5, 56, 0
12, 25860, Note_on_c, 5, 72, 72
12, 25889, Note_on_c, 5, 72, 0
12, 25890, Note_on_c, 5, 68, 72
12, 25919, Note_on_c, 5, 68, 0
12, 25920, Note_on_c, 5, 77, 72
12, 25979, Note_on_c, 5, 77, 0
12, 25980, Note_on_c, 5, 59, 72
12, 26039, Note_on_c, 5, 59, 0
12, 26100, Note_on_c, 5, 74, 72
12, 26129, Note_on_c, 5, 74, 0
12, 26130, Note_on_c, 5, 67, 72
12, 26159, Note_on_c, 5, 67, 0
12, 26160, Note_on_c, 5, 79, 72
12, 26219, Note_on_c, 5, 79, 0
12, 26220, Note_on_c, 5, 60, 72
12, 26279, Note_on_c, 5, 60, 0
12, 26340, Note_on_c, 5, 84, 72
12, 26369, Note_on_c, 5, 84, 0
12, 26370, Note_on_c, 5, 75, 72
12, 26399, Note_on_c, 5, 75, 0
12, 26400, Note_on_c, 5, 77, 72
12, 26459, Note_on_c, 5, 77, 0
12, 26460, Note_on_c, 5, 80, 72
12, 26519, Note_on_c, 5, 80, 0
12, 26580, Note_on_c, 5, 77, 72
12, 26609, Note_on_c, 5, 77, 0
12, 26610, Note_on_c, 5, 74, 72
12, 26639, Note_on_c, 5, 74, 0
12, 26640, Note_on_c, 5, 71, 72
12, 26699, Note_on_c, 5, 71, 0
12, 26700, Note_on_c, 5, 59, 72
12, 26759, Note_on_c, 5, 59, 0
12, 26820, Note_on_c, 5, 74, 72
12, 26849, Note_on_c, 5, 74, 0
12, 26850, Note_on_c, 5, 67, 72
12, 26879, Note_on_c, 5, 67, 0
12, 26880, Note_on_c, 5, 79, 72
12, 26939, Note_on_c, 5, 79, 0
12, 26940, Note_on_c, 5, 64, 72
12, 26999, Note_on_c, 5, 64, 0
12, 27060, Note_on_c, 5, 82, 72
12, 27089, Note_on_c, 5, 82, 0
12, 27090, Note_on_c, 5, 70, 72
12, 27119, Note_on_c, 5, 70, 0
12, 27120, Note_on_c, 5, 74, 72
12, 27179, Note_on_c, 5, 74, 0
12, 27180, Note_on_c, 5, 64, 72
12, 27239, Note_on_c, 5, 64, 0
12, 27300, Note_on_c, 5, 76, 72
12, 27329, Note_on_c, 5, 76, 0
12, 27330, Note_on_c, 5, 69, 72
12, 27359, Note_on_c, 5, 69, 0
12, 27360, Note_on_c, 5, 79, 72
12, 27419, Note_on_c, 5, 79, 0
12, 27420, Note_on_c, 5, 62, 72
12, 27479, Note_on_c, 5, 62, 0
12, 27540, Note_on_c, 5, 78, 72
12, 27569, Note_on_c, 5, 78, 0
12, 27570, Note_on_c, 5, 74, 72
12, 27599, Note_on_c, 5, 74, 0
12, 27600, Note_on_c, 5, 79, 72
12, 27659, Note_on_c, 5, 79, 0
12, 27660, Note_on_c, 5, 55, 72
12, 27719, Note_on_c, 5, 55, 0
12, 27780, Note_on_c, 5, 79, 72
12, 27809, Note_on_c, 5, 79, 0
12, 27810, Note_on_c, 5, 72, 72
12, 27839, Note_on_c, 5, 72, 0
12, 27840, Note_on_c, 5, 77, 72
12, 27899, Note_on_c, 5, 77, 0
12, 27900, Note_on_c, 5, 58, 72
12, 27959, Note_on_c, 5, 58, 0
12, 28020, Note_on_c, 5, 74, 72
12, 28049, Note_on_c, 5, 74, 0
12, 28050, Note_on_c, 5, 70, 72
12, 28079, Note_on_c, 5, 70, 0
12, 28080, Note_on_c, 5, 75, 72
12, 28139, Note_on_c, 5, 75, 0
12, 28140, Note_on_c, 5, 60, 72
12, 28199, Note_on_c, 5, 60, 0
12, 28260, Note_on_c, 5, 75, 72
12, 28289, Note_on_c, 5, 75, 0
12, 28290, Note_on_c, 5, 69, 72
12, 28319, Note_on_c, 5, 69, 0
12, 28320, Note_on_c, 5, 74, 72
12, 28379, Note_on_c, 5, 74, 0
12, 28380, Note_on_c, 5, 62, 72
12, 28439, Note_on_c, 5, 62, 0
12, 28500, Note_on_c, 5, 70, 72
12, 28529, Note_on_c, 5, 70, 0
12, 28530, Note_on_c, 5, 67, 72
12, 28559, Note_on_c, 5, 67, 0
12, 28560, Note_on_c, 5, 79, 72
12, 28619, Note_on_c, 5, 79, 0
12, 28620, Note_on_c, 5, 67, 72
12, 28679, Note_on_c, 5, 67, 0
12, 28740, Note_on_c, 5, 79, 72
12, 28769, Note_on_c, 5, 79, 0
12, 28770, Note_on_c, 5, 73, 72
12, 28799, Note_on_c, 5, 73, 0
12, 28800, Note_on_c, 5, 74, 72
12, 28859, Note_on_c, 5, 74, 0
12, 28860, Note_on_c, 5, 62, 72
12, 28919, Note_on_c, 5, 62, 0
12, 28980, Note_on_c, 5, 69, 72
12, 29009, Note_on_c, 5, 69, 0
12, 29010, Note_on_c, 5, 62, 72
12, 29039, Note_on_c, 5, 62, 0
12, 29040, Note_on_c, 5, 74, 72
12, 29099, Note_on_c, 5, 74, 0
12, 29100, Note_on_c, 5, 58, 72
12, 29159, Note_on_c, 5, 58, 0
12, 29220, Note_on_c, 5, 70, 72
12, 29249, Note_on_c, 5, 70, 0
12, 29250, Note_on_c, 5, 67, 72
12, 29279, Note_on_c, 5, 67, 0
12, 29280, Note_on_c, 5, 75, 72
12, 29339, Note_on_c, 5, 75, 0
12, 29340, Note_on_c, 5, 63, 72
12, 29399, Note_on_c, 5, 63, 0
12, 29460, Note_on_c, 5, 72, 72
12, 29489, Note_on_c, 5, 72, 0
12, 29490, Note_on_c, 5, 69, 72
12, 29519, Note_on_c, 5, 69, 0
12, 29520, Note_on_c, 5, 81, 72
12, 29579, Note_on_c, 5, 81, 0
12, 29580, Note_on_c, 5, 66, 72
12, 29639, Note_on_c, 5, 66, 0
12, 29700, Note_on_c, 5, 79, 72
12, 29729, Note_on_c, 5, 79, 0
12, 29730, Note_on_c, 5, 74, 72
12, 29759, Note_on_c, 5, 74, 0
12, 29760, Note_on_c, 5, 82, 72
12, 29819, Note_on_c, 5, 82, 0
12, 29820, Note_on_c, 5, 67, 72
12, 29879, Note_on_c, 5, 67, 0
12, 29940, Note_on_c, 5, 70, 72
12, 29969, Note_on_c, 5, 70, 0
12, 29970, Note_on_c, 5, 67, 72
12, 29999, Note_on_c, 5, 67, 0
12, 30000, Note_on_c, 5, 74, 72
12, 30059, Note_on_c, 5, 74, 0
12, 30060, Note_on_c, 5, 64, 72
12, 30119, Note_on_c, 5, 64, 0
12, 30180, Note_on_c, 5, 72, 72
12, 30209, Note_on_c, 5, 72, 0
12, 30210, Note_on_c, 5, 64, 72
12, 30239, Note_on_c, 5, 64, 0
12, 30240, Note_on_c, 5, 72, 72
12, 30299, Note_on_c, 5, 72, 0
12, 30300, Note_on_c, 5, 62, 72
12, 30359, Note_on_c, 5, 62, 0
12, 30420, Note_on_c, 5, 74, 72
12, 30449, Note_on_c, 5, 74, 0
12, 30450, Note_on_c, 5, 69, 72
12, 30479, Note_on_c, 5, 69, 0
12, 30480, Note_on_c, 5, 69, 72
12, 30539, Note_on_c, 5, 69, 0
12, 30540, Note_on_c, 5, 70, 72
12, 30599, Note_on_c, 5, 70, 0
12, 30660, Note_on_c, 5, 74, 72
12, 30689, Note_on_c, 5, 74, 0
12, 30690, Note_on_c, 5, 67, 72
12, 30719, Note_on_c, 5, 67, 0
12, 30720, Note_on_c, 5, 79, 72
12, 30779, Note_on_c, 5, 79, 0
12, 30780, Note_on_c, 5, 67, 72
12, 30839, Note_on_c, 5, 67, 0
12, 31080, Note_on_c, 5, 64, 48
12, 31199, Note_on_c, 5, 64, 0
12, 31200, Note_on_c, 5, 62, 48
12, 31319, Note_on_c, 5, 62, 0
12, 31320, Note_on_c, 5, 61, 48
12, 31439, Note_on_c, 5, 61, 0
12, 31440, Note_on_c, 5, 62, 48
12, 31679, Note_on_c, 5, 62, 0
12, 31680, Note_on_c, 5, 58, 48
12, 31739, Note_on_c, 5, 58, 0
12, 31740, Note_on_c, 5, 67, 48
12, 31769, Note_on_c, 5, 67, 0
12, 31770, Note_on_c, 5, 66, 48
12, 31799, Note_on_c, 5, 66, 0
12, 31800, Note_on_c, 5, 67, 48
12, 31859, Note_on_c, 5, 67, 0
12, 31860, Note_on_c, 5, 70, 48
12, 31919, Note_on_c, 5, 70, 0
12, 31920, Note_on_c, 5, 60, 48
12, 31979, Note_on_c, 5, 60, 0
12, 31980, Note_on_c, 5, 72, 48
12, 32009, Note_on_c, 5, 72, 0
12, 32010, Note_on_c, 5, 71, 48
12, 32039, Note_on_c, 5, 71, 0
12, 32040, Note_on_c, 5, 72, 48
12, 32099, Note_on_c, 5, 72, 0
12, 32100, Note_on_c, 5, 75, 48
12, 32159, Note_on_c, 5, 75, 0
12, 32160, Note_on_c, 5, 57, 48
12, 32219, Note_on_c, 5, 57, 0
12, 32220, Note_on_c, 5, 65, 48
12, 32249, Note_on_c, 5, 65, 0
12, 32250, Note_on_c, 5, 64, 48
12, 32279, Note_on_c, 5, 64, 0
12, 32280, Note_on_c, 5, 65, 48
12, 32339, Note_on_c, 5, 65, 0
12, 32340, Note_on_c, 5, 69, 48
12, 32399, Note_on_c, 5, 69, 0
12, 32400, Note_on_c, 5, 58, 48
12, 32459, Note_on_c, 5, 58, 0
12, 32460, Note_on_c, 5, 65, 48
12, 32489, Note_on_c, 5, 65, 0
12, 32490, Note_on_c, 5, 63, 48
12, 32519, Note_on_c, 5, 63, 0
12, 32520, Note_on_c, 5, 65, 48
12, 32579, Note_on_c, 5, 65, 0
12, 32580, Note_on_c, 5, 69, 48
12, 32639, Note_on_c, 5, 69, 0
12, 32640, Note_on_c, 5, 55, 48
12, 32699, Note_on_c, 5, 55, 0
12, 32700, Note_on_c, 5, 63, 48
12, 32729, Note_on_c, 5, 63, 0
12, 32730, Note_on_c, 5, 62, 48
12, 32759, Note_on_c, 5, 62, 0
12, 32760, Note_on_c, 5, 63, 48
12, 32819, Note_on_c, 5, 63, 0
12, 32820, Note_on_c, 5, 67, 48
12, 32879, Note_on_c, 5, 67, 0
12, 32880, Note_on_c, 5, 57, 48
12, 32939, Note_on_c, 5, 57, 0
12, 32940, Note_on_c, 5, 67, 48
12, 32969, Note_on_c, 5, 67, 0
12, 32970, Note_on_c, 5, 65, 48
12, 32999, Note_on_c, 5, 65, 0
12, 33000, Note_on_c, 5, 63, 48
12, 33059, Note_on_c, 5, 63, 0
12, 33060, Note_on_c, 5, 75, 48
12, 33119, Note_on_c, 5, 75, 0
12, 33120, Note_on_c, 5, 57, 48
12, 33179, Note_on_c, 5, 57, 0
12, 33180, Note_on_c, 5, 78, 48
12, 33239, Note_on_c, 5, 78, 0
12, 33240, Note_on_c, 5, 79, 48
12, 33299, Note_on_c, 5, 79, 0
12, 33300, Note_on_c, 5, 72, 48
12, 33329, Note_on_c, 5, 72, 0
12, 33330, Note_on_c, 5, 69, 48
12, 33359, Note_on_c, 5, 69, 0
12, 33360, Note_on_c, 5, 67, 48
12, 33419, Note_on_c, 5, 67, 0
12, 33420, Note_on_c, 5, 79, 48
12, 33479, Note_on_c, 5, 79, 0
12, 33480, Note_on_c, 5, 65, 48
12, 33539, Note_on_c, 5, 65, 0
12, 33540, Note_on_c, 5, 78, 48
12, 33599, Note_on_c, 5, 78, 0
12, 33600, Note_on_c, 5, 67, 48
12, 33719, Note_on_c, 5, 67, 0
12, 33780, Note_on_c, 5, 82, 72
12, 33809, Note_on_c, 5, 82, 0
12, 33810, Note_on_c, 5, 79, 72
12, 33839, Note_on_c, 5, 79, 0
12, 33840, Note_on_c, 5, 87, 72
12, 33899, Note_on_c, 5, 87, 0
12, 33900, Note_on_c, 5, 75, 72
12, 33959, Note_on_c, 5, 75, 0
12, 34020, Note_on_c, 5, 79, 72
12, 34049, Note_on_c, 5, 79, 0
12, 34050, Note_on_c, 5, 75, 72
12, 34079, Note_on_c, 5, 75, 0
12, 34080, Note_on_c, 5, 81, 72
12, 34139, Note_on_c, 5, 81, 0
12, 34140, Note_on_c, 5, 69, 72
12, 34199, Note_on_c, 5, 69, 0
12, 34260, Note_on_c, 5, 81, 72
12, 34289, Note_on_c, 5, 81, 0
12, 34290, Note_on_c, 5, 78, 72
12, 34319, Note_on_c, 5, 78, 0
12, 34320, Note_on_c, 5, 86, 72
12, 34379, Note_on_c, 5, 86, 0
12, 34380, Note_on_c, 5, 74, 72
12, 34439, Note_on_c, 5, 74, 0
12, 34500, Note_on_c, 5, 77, 72
12, 34529, Note_on_c, 5, 77, 0
12, 34530, Note_on_c, 5, 74, 72
12, 34559, Note_on_c, 5, 74, 0
12, 34560, Note_on_c, 5, 74, 72
12, 34619, Note_on_c, 5, 74, 0
12, 34620, Note_on_c, 5, 64, 72
12, 34679, Note_on_c, 5, 64, 0
12, 34740, Note_on_c, 5, 76, 72
12, 34769, Note_on_c, 5, 76, 0
12, 34770, Note_on_c, 5, 72, 72
12, 34799, Note_on_c, 5, 72, 0
12, 34800, Note_on_c, 5, 79, 72
12, 34859, Note_on_c, 5, 79, 0
12, 34860, Note_on_c, 5, 67, 72
12, 34919, Note_on_c, 5, 67, 0
12, 34980, Note_on_c, 5, 67, 72
12, 35009, Note_on_c, 5, 67, 0
12, 35010, Note_on_c, 5, 63, 72
12, 35039, Note_on_c, 5, 63, 0
12, 35040, Note_on_c, 5, 57, 72
12, 35099, Note_on_c, 5, 57, 0
12, 35100, Note_on_c, 5, 74, 72
12, 35129, Note_on_c, 5, 74, 0
12, 35130, Note_on_c, 5, 69, 72
12, 35159, Note_on_c, 5, 69, 0
12, 35160, Note_on_c, 5, 67, 72
12, 35219, Note_on_c, 5, 67, 0
12, 35220, Note_on_c, 5, 72, 72
12, 35249, Note_on_c, 5, 72, 0
12, 35250, Note_on_c, 5, 69, 72
12, 35279, Note_on_c, 5, 69, 0
12, 35280, Note_on_c, 5, 67, 72
12, 35339, Note_on_c, 5, 67, 0
12, 35340, Note_on_c, 5, 70, 72
12, 35399, Note_on_c, 5, 70, 0
12, 35400, Note_on_c, 5, 66, 72
12, 35459, Note_on_c, 5, 66, 0
12, 35460, Note_on_c, 5, 69, 72
12, 35519, Note_on_c, 5, 69, 0
12, 35520, Note_on_c, 5, 67, 72
12, 35639, Note_on_c, 5, 67, 0
12, 35880, Note_on_c, 5, 62, 72
12, 35999, Note_on_c, 5, 62, 0
12, 36000, Note_on_c, 5, 63, 72
12, 36119, Note_on_c, 5, 63, 0
12, 36120, Note_on_c, 5, 62, 72
12, 36239, Note_on_c, 5, 62, 0
12, 36240, Note_on_c, 5, 63, 72
12, 36359, Note_on_c, 5, 63, 0
12, 36360, Note_on_c, 5, 65, 72
12, 36479, Note_on_c, 5, 65, 0
12, 36480, Note_on_c, 5, 63, 72
12, 36959, Note_on_c, 5, 63, 0
12, 36960, Note_on_c, 5, 62, 72
12, 37439, Note_on_c, 5, 62, 0
12, 37439, End_track
13, 0, Start_track
13, 0, Title_t, "Viola"
13, 0, MIDI_port, 0
13, 0, Program_c, 6, 48
13, 0, Control_c, 6, 7, 96
13, 0, Control_c, 6, 10, 80
13, 0, Control_c, 6, 11, 127
13, 60, Note_on_c, 6, 58, 48
13, 119, Note_on_c, 6, 58, 0
13, 120, Note_on_c, 6, 62, 48
13, 179, Note_on_c, 6, 62, 0
13, 180, Note_on_c, 6, 58, 48
13, 239, Note_on_c, 6, 58, 0
13, 300, Note_on_c, 6, 58, 48
13, 359, Note_on_c, 6, 58, 0
13, 360, Note_on_c, 6, 62, 48
13, 419, Note_on_c, 6, 62, 0
13, 420, Note_on_c, 6, 58, 48
13, 479, Note_on_c, 6, 58, 0
13, 540, Note_on_c, 6, 57, 48
13, 599, Note_on_c, 6, 57, 0
13, 600, Note_on_c, 6, 54, 48
13, 659, Note_on_c, 6, 54, 0
13, 660, Note_on_c, 6, 57, 48
13, 719, Note_on_c, 6, 57, 0
13, 780, Note_on_c, 6, 58, 48
13, 839, Note_on_c, 6, 58, 0
13, 840, Note_on_c, 6, 62, 48
13, 899, Note_on_c, 6, 62, 0
13, 900, Note_on_c, 6, 58, 72
13, 959, Note_on_c, 6, 58, 0
13, 960, Note_on_c, 6, 63, 72
13, 989, Note_on_c, 6, 63, 0
13, 990, Note_on_c, 6, 65, 72
13, 1019, Note_on_c, 6, 65, 0
13, 1020, Note_on_c, 6, 67, 72
13, 1049, Note_on_c, 6, 67, 0
13, 1050, Note_on_c, 6, 69, 72
13, 1079, Note_on_c, 6, 69, 0
13, 1080, Note_on_c, 6, 70, 72
13, 1109, Note_on_c, 6, 70, 0
13, 1110, Note_on_c, 6, 65, 72
13, 1139, Note_on_c, 6, 65, 0
13, 1140, Note_on_c, 6, 62, 72
13, 1169, Note_on_c, 6, 62, 0
13, 1170, Note_on_c, 6, 58, 72
13, 1199, Note_on_c, 6, 58, 0
13, 1200, Note_on_c, 6, 60, 72
13, 1229, Note_on_c, 6, 60, 0
13, 1230, Note_on_c, 6, 62, 72
13, 1259, Note_on_c, 6, 62, 0
13, 1260, Note_on_c, 6, 63, 72
13, 1289, Note_on_c, 6, 63, 0
13, 1290, Note_on_c, 6, 65, 72
13, 1319, Note_on_c, 6, 65, 0
13, 1320, Note_on_c, 6, 67, 72
13, 1349, Note_on_c, 6, 67, 0
13, 1350, Note_on_c, 6, 62, 72
13, 1379, Note_on_c, 6, 62, 0
13, 1380, Note_on_c, 6, 58, 72
13, 1409, Note_on_c, 6, 58, 0
13, 1410, Note_on_c, 6, 55, 72
13, 1439, Note_on_c, 6, 55, 0
13, 1440, Note_on_c, 6, 60, 48
13, 1499, Note_on_c, 6, 60, 0
13, 1500, Note_on_c, 6, 60, 48
13, 1529, Note_on_c, 6, 60, 0
13, 1530, Note_on_c, 6, 58, 48
13, 1559, Note_on_c, 6, 58, 0
13, 1560, Note_on_c, 6, 57, 48
13, 1619, Note_on_c, 6, 57, 0
13, 1620, Note_on_c, 6, 55, 48
13, 1679, Note_on_c, 6, 55, 0
13, 1680, Note_on_c, 6, 54, 48
13, 1739, Note_on_c, 6, 54, 0
13, 1740, Note_on_c, 6, 60, 48
13, 1799, Note_on_c, 6, 60, 0
13, 1800, Note_on_c, 6, 62, 48
13, 1859, Note_on_c, 6, 62, 0
13, 1860, Note_on_c, 6, 63, 48
13, 1919, Note_on_c, 6, 63, 0
13, 1920, Note_on_c, 6, 62, 48
13, 1979, Note_on_c, 6, 62, 0
13, 1980, Note_on_c, 6, 60, 48
13, 2009, Note_on_c, 6, 60, 0
13, 2010, Note_on_c, 6, 58, 48
13, 2039, Note_on_c, 6, 58, 0
13, 2040, Note_on_c, 6, 63, 48
13, 2219, Note_on_c, 6, 63, 0
13, 2220, Note_on_c, 6, 60, 48
13, 2279, Note_on_c, 6, 60, 0
13, 2280, Note_on_c, 6, 62, 48
13, 2339, Note_on_c, 6, 62, 0
13, 2340, Note_on_c, 6, 63, 48
13, 2399, Note_on_c, 6, 63, 0
13, 2400, Note_on_c, 6, 62, 48
13, 2459, Note_on_c, 6, 62, 0
13, 2460, Note_on_c, 6, 60, 48
13, 2489, Note_on_c, 6, 60, 0
13, 2490, Note_on_c, 6, 58, 48
13, 2519, Note_on_c, 6, 58, 0
13, 2520, Note_on_c, 6, 57, 48
13, 2549, Note_on_c, 6, 57, 0
13, 2580, Note_on_c, 6, 57, 48
13, 2609, Note_on_c, 6, 57, 0
13, 2640, Note_on_c, 6, 55, 48
13, 2759, Note_on_c, 6, 55, 0
13, 2760, Note_on_c, 6, 54, 48
13, 2819, Note_on_c, 6, 54, 0
13, 2820, Note_on_c, 6, 55, 48
13, 2879, Note_on_c, 6, 55, 0
13, 2880, Note_on_c, 6, 57, 48
13, 2939, Note_on_c, 6, 57, 0
13, 2940, Note_on_c, 6, 62, 72
13, 2999, Note_on_c, 6, 62, 0
13, 3000, Note_on_c, 6, 55, 72
13, 3059, Note_on_c, 6, 55, 0
13, 3060, Note_on_c, 6, 57, 72
13, 3119, Note_on_c, 6, 57, 0
13, 3120, Note_on_c, 6, 58, 72
13, 3239, Note_on_c, 6, 58, 0
13, 3300, Note_on_c, 6, 58, 48
13, 3359, Note_on_c, 6, 58, 0
13, 3360, Note_on_c, 6, 58, 48
13, 3389, Note_on_c, 6, 58, 0
13, 3390, Note_on_c, 6, 58, 48
13, 3449, Note_on_c, 6, 58, 0
13, 3450, Note_on_c, 6, 58, 48
13, 3479, Note_on_c, 6, 58, 0
13, 3480, Note_on_c, 6, 60, 48
13, 3509, Note_on_c, 6, 60, 0
13, 3510, Note_on_c, 6, 60, 48
13, 3569, Note_on_c, 6, 60, 0
13, 3570, Note_on_c, 6, 60, 48
13, 3599, Note_on_c, 6, 60, 0
13, 3600, Note_on_c, 6, 58, 48
13, 3629, Note_on_c, 6, 58, 0
13, 3630, Note_on_c, 6, 58, 48
13, 3689, Note_on_c, 6, 58, 0
13, 3690, Note_on_c, 6, 58, 48
13, 3719, Note_on_c, 6, 58, 0
13, 3720, Note_on_c, 6, 57, 48
13, 3749, Note_on_c, 6, 57, 0
13, 3750, Note_on_c, 6, 57, 48
13, 3809, Note_on_c, 6, 57, 0
13, 3810, Note_on_c, 6, 57, 48
13, 3839, Note_on_c, 6, 57, 0
13, 3840, Note_on_c, 6, 58, 48
13, 3899, Note_on_c, 6, 58, 0
13, 3900, Note_on_c, 6, 59, 72
13, 3959, Note_on_c, 6, 59, 0
13, 3960, Note_on_c, 6, 60, 72
13, 4019, Note_on_c, 6, 60, 0
13, 4020, Note_on_c, 6, 62, 72
13, 4079, Note_on_c, 6, 62, 0
13, 4080, Note_on_c, 6, 63, 72
13, 4199, Note_on_c, 6, 63, 0
13, 4260, Note_on_c, 6, 60, 48
13, 4319, Note_on_c, 6, 60, 0
13, 4320, Note_on_c, 6, 60, 48
13, 4350, Note_on_c, 6, 60, 0
13, 4350, Note_on_c, 6, 60, 48
13, 4410, Note_on_c, 6, 60, 0
13, 4410, Note_on_c, 6, 60, 48
13, 4440, Note_on_c, 6, 60, 0
13, 4440, Note_on_c, 6, 62, 48
13, 4470, Note_on_c, 6, 62, 0
13, 4470, Note_on_c, 6, 62, 48
13, 4530, Note_on_c, 6, 62, 0
13, 4530, Note_on_c, 6, 62, 48
13, 4560, Note_on_c, 6, 62, 0
13, 4560, Note_on_c, 6, 60, 48
13, 4590, Note_on_c, 6, 60, 0
13, 4590, Note_on_c, 6, 60, 48
13, 4650, Note_on_c, 6, 60, 0
13, 4650, Note_on_c, 6, 60, 48
13, 4680, Note_on_c, 6, 60, 0
13, 4680, Note_on_c, 6, 59, 48
13, 4710, Note_on_c, 6, 59, 0
13, 4710, Note_on_c, 6, 59, 48
13, 4770, Note_on_c, 6, 59, 0
13, 4770, Note_on_c, 6, 59, 48
13, 4800, Note_on_c, 6, 59, 0
13, 4800, Note_on_c, 6, 60, 48
13, 4920, Note_on_c, 6, 60, 0
13, 5040, Note_on_c, 6, 56, 48
13, 5100, Note_on_c, 6, 56, 0
13, 5100, Note_on_c, 6, 56, 48
13, 5160, Note_on_c, 6, 56, 0
13, 5160, Note_on_c, 6, 56, 48
13, 5220, Note_on_c, 6, 56, 0
13, 5220, Note_on_c, 6, 55, 48
13, 5280, Note_on_c, 6, 55, 0
13, 5280, Note_on_c, 6, 53, 48
13, 5340, Note_on_c, 6, 53, 0
13, 5340, Note_on_c, 6, 53, 48
13, 5400, Note_on_c, 6, 53, 0
13, 5400, Note_on_c, 6, 53, 48
13, 5460, Note_on_c, 6, 53, 0
13, 5460, Note_on_c, 6, 53, 48
13, 5520, Note_on_c, 6, 53, 0
13, 5520, Note_on_c, 6, 52, 48
13, 5580, Note_on_c, 6, 52, 0
13, 5580, Note_on_c, 6, 52, 48
13, 5640, Note_on_c, 6, 52, 0
13, 5640, Note_on_c, 6, 52, 48
13, 5700, Note_on_c, 6, 52, 0
13, 5700, Note_on_c, 6, 52, 48
13, 5760, Note_on_c, 6, 52, 0
13, 5760, Note_on_c, 6, 53, 48
13, 5820, Note_on_c, 6, 53, 0
13, 5820, Note_on_c, 6, 53, 48
13, 5880, Note_on_c, 6, 53, 0
13, 5880, Note_on_c, 6, 51, 48
13, 5940, Note_on_c, 6, 51, 0
13, 5940, Note_on_c, 6, 53, 48
13, 6000, Note_on_c, 6, 53, 0
13, 6000, Note_on_c, 6, 55, 48
13, 6060, Note_on_c, 6, 55, 0
13, 6060, Note_on_c, 6, 55, 48
13, 6120, Note_on_c, 6, 55, 0
13, 6120, Note_on_c, 6, 55, 48
13, 6180, Note_on_c, 6, 55, 0
13, 6180, Note_on_c, 6, 53, 48
13, 6240, Note_on_c, 6, 53, 0
13, 6240, Note_on_c, 6, 51, 72
13, 6270, Note_on_c, 6, 51, 0
13, 6270, Note_on_c, 6, 48, 72
13, 6300, Note_on_c, 6, 48, 0
13, 6300, Note_on_c, 6, 51, 72
13, 6330, Note_on_c, 6, 51, 0
13, 6330, Note_on_c, 6, 55, 72
13, 6360, Note_on_c, 6, 55, 0
13, 6360, Note_on_c, 6, 60, 72
13, 6480, Note_on_c, 6, 60, 0
13, 6480, Note_on_c, 6, 58, 72
13, 6510, Note_on_c, 6, 58, 0
13, 6510, Note_on_c, 6, 51, 72
13, 6540, Note_on_c, 6, 51, 0
13, 6540, Note_on_c, 6, 55, 72
13, 6570, Note_on_c, 6, 55, 0
13, 6570, Note_on_c, 6, 58, 72
13, 6600, Note_on_c, 6, 58, 0
13, 6600, Note_on_c, 6, 63, 72
13, 6750, Note_on_c, 6, 63, 0
13, 6750, Note_on_c, 6, 48, 48
13, 6780, Note_on_c, 6, 48, 0
13, 6780, Note_on_c, 6, 51, 48
13, 6810, Note_on_c, 6, 51, 0
13, 6810, Note_on_c, 6, 56, 48
13, 6840, Note_on_c, 6, 56, 0
13, 6840, Note_on_c, 6, 60, 48
13, 6990, Note_on_c, 6, 60, 0
13, 6990, Note_on_c, 6, 53, 48
13, 7020, Note_on_c, 6, 53, 0
13, 7020, Note_on_c, 6, 56, 48
13, 7050, Note_on_c, 6, 56, 0
13, 7050, Note_on_c, 6, 60, 48
13, 7080, Note_on_c, 6, 60, 0
13, 7080, Note_on_c, 6, 65, 48
13, 7200, Note_on_c, 6, 65, 0
13, 7200, Note_on_c, 6, 58, 48
13, 7230, Note_on_c, 6, 58, 0
13, 7230, Note_on_c, 6, 51, 48
13, 7260, Note_on_c, 6, 51, 0
13, 7260, Note_on_c, 6, 56, 48
13, 7290, Note_on_c, 6, 56, 0
13, 7290, Note_on_c, 6, 58, 48
13, 7320, Note_on_c, 6, 58, 0
13, 7320, Note_on_c, 6, 63, 48
13, 7470, Note_on_c, 6, 63, 0
13, 7470, Note_on_c, 6, 56, 48
13, 7500, Note_on_c, 6, 56, 0
13, 7500, Note_on_c, 6, 60, 48
13, 7530, Note_on_c, 6, 60, 0
13, 7530, Note_on_c, 6, 63, 48
13, 7560, Note_on_c, 6, 63, 0
13, 7560, Note_on_c, 6, 68, 48
13, 7680, Note_on_c, 6, 68, 0
13, 7680, Note_on_c, 6, 66, 72
13, 7710, Note_on_c, 6, 66, 0
13, 7710, Note_on_c, 6, 54, 72
13, 7740, Note_on_c, 6, 54, 0
13, 7740, Note_on_c, 6, 54, 72
13, 7770, Note_on_c, 6, 54, 0
13, 7770, Note_on_c, 6, 54, 72
13, 7800, Note_on_c, 6, 54, 0
13, 7800, Note_on_c, 6, 65, 72
13, 7830, Note_on_c, 6, 65, 0
13, 7830, Note_on_c, 6, 53, 72
13, 7860, Note_on_c, 6, 53, 0
13, 7860, Note_on_c, 6, 53, 72
13, 7890, Note_on_c, 6, 53, 0
13, 7890, Note_on_c, 6, 53, 72
13, 7920, Note_on_c, 6, 53, 0
13, 7920, Note_on_c, 6, 64, 72
13, 7950, Note_on_c, 6, 64, 0
13, 7950, Note_on_c, 6, 52, 72
13, 7980, Note_on_c, 6, 52, 0
13, 7980, Note_on_c, 6, 52, 72
13, 8010, Note_on_c, 6, 52, 0
13, 8010, Note_on_c, 6, 52, 72
13, 8040, Note_on_c, 6, 52, 0
13, 8040, Note_on_c, 6, 65, 72
13, 8100, Note_on_c, 6, 65, 0
13, 8190, Note_on_c, 6, 58, 48
13, 8220, Note_on_c, 6, 58, 0
13, 8220, Note_on_c, 6, 61, 48
13, 8250, Note_on_c, 6, 61, 0
13, 8250, Note_on_c, 6, 65, 48
13, 8280, Note_on_c, 6, 65, 0
13, 8280, Note_on_c, 6, 58, 48
13, 8430, Note_on_c, 6, 58, 0
13, 8430, Note_on_c, 6, 55, 48
13, 8460, Note_on_c, 6, 55, 0
13, 8460, Note_on_c, 6, 58, 48
13, 8490, Note_on_c, 6, 58, 0
13, 8490, Note_on_c, 6, 64, 48
13, 8520, Note_on_c, 6, 64, 0
13, 8520, Note_on_c, 6, 55, 48
13, 8580, Note_on_c, 6, 55, 0
13, 8640, Note_on_c, 6, 53, 48
13, 8669, Note_on_c, 6, 53, 0
13, 8670, Note_on_c, 6, 58, 48
13, 8699, Note_on_c, 6, 58, 0
13, 8700, Note_on_c, 6, 61, 48
13, 8729, Note_on_c, 6, 61, 0
13, 8730, Note_on_c, 6, 65, 48
13, 8759, Note_on_c, 6, 65, 0
13, 8760, Note_on_c, 6, 53, 48
13, 8909, Note_on_c, 6, 53, 0
13, 8910, Note_on_c, 6, 58, 48
13, 8939, Note_on_c, 6, 58, 0
13, 8940, Note_on_c, 6, 62, 48
13, 8969, Note_on_c, 6, 62, 0
13, 8970, Note_on_c, 6, 65, 48
13, 8999, Note_on_c, 6, 65, 0
13, 9000, Note_on_c, 6, 53, 48
13, 9119, Note_on_c, 6, 53, 0
13, 9120, Note_on_c, 6, 68, 72
13, 9149, Note_on_c, 6, 68, 0
13, 9150, Note_on_c, 6, 56, 72
13, 9179, Note_on_c, 6, 56, 0
13, 9180, Note_on_c, 6, 56, 72
13, 9209, Note_on_c, 6, 56, 0
13, 9210, Note_on_c, 6, 56, 72
13, 9239, Note_on_c, 6, 56, 0
13, 9240, Note_on_c, 6, 67, 72
13, 9269, Note_on_c, 6, 67, 0
13, 9270, Note_on_c, 6, 55, 72
13, 9299, Note_on_c, 6, 55, 0
13, 9300, Note_on_c, 6, 55, 72
13, 9329, Note_on_c, 6, 55, 0
13, 9330, Note_on_c, 6, 55, 72
13, 9359, Note_on_c, 6, 55, 0
13, 9360, Note_on_c, 6, 66, 72
13, 9389, Note_on_c, 6, 66, 0
13, 9390, Note_on_c, 6, 54, 72
13, 9419, Note_on_c, 6, 54, 0
13, 9420, Note_on_c, 6, 54, 72
13, 9449, Note_on_c, 6, 54, 0
13, 9450, Note_on_c, 6, 54, 72
13, 9479, Note_on_c, 6, 54, 0
13, 9480, Note_on_c, 6, 67, 72
13, 9539, Note_on_c, 6, 67, 0
13, 9600, Note_on_c, 6, 55, 72
13, 9629, Note_on_c, 6, 55, 0
13, 9630, Note_on_c, 6, 59, 72
13, 9659, Note_on_c, 6, 59, 0
13, 9660, Note_on_c, 6, 62, 72
13, 9689, Note_on_c, 6, 62, 0
13, 9690, Note_on_c, 6, 67, 72
13, 9719, Note_on_c, 6, 67, 0
13, 9720, Note_on_c, 6, 63, 72
13, 9749, Note_on_c, 6, 63, 0
13, 9750, Note_on_c, 6, 67, 72
13, 9779, Note_on_c, 6, 67, 0
13, 9780, Note_on_c, 6, 60, 72
13, 9809, Note_on_c, 6, 60, 0
13, 9810, Note_on_c, 6, 63, 72
13, 9839, Note_on_c, 6, 63, 0
13, 9840, Note_on_c, 6, 65, 72
13, 9869, Note_on_c, 6, 65, 0
13, 9870, Note_on_c, 6, 68, 72
13, 9899, Note_on_c, 6, 68, 0
13, 9900, Note_on_c, 6, 63, 72
13, 9929, Note_on_c, 6, 63, 0
13, 9930, Note_on_c, 6, 72, 72
13, 9959, Note_on_c, 6, 72, 0
13, 9960, Note_on_c, 6, 62, 72
13, 9989, Note_on_c, 6, 62, 0
13, 9990, Note_on_c, 6, 65, 72
13, 10019, Note_on_c, 6, 65, 0
13, 10020, Note_on_c, 6, 58, 72
13, 10049, Note_on_c, 6, 58, 0
13, 10050, Note_on_c, 6, 62, 72
13, 10079, Note_on_c, 6, 62, 0
13, 10080, Note_on_c, 6, 63, 72
13, 10109, Note_on_c, 6, 63, 0
13, 10110, Note_on_c, 6, 67, 72
13, 10139, Note_on_c, 6, 67, 0
13, 10140, Note_on_c, 6, 62, 72
13, 10169, Note_on_c, 6, 62, 0
13, 10170, Note_on_c, 6, 70, 72
13, 10199, Note_on_c, 6, 70, 0
13, 10200, Note_on_c, 6, 60, 72
13, 10229, Note_on_c, 6, 60, 0
13, 10230, Note_on_c, 6, 63, 72
13, 10259, Note_on_c, 6, 63, 0
13, 10260, Note_on_c, 6, 57, 72
13, 10289, Note_on_c, 6, 57, 0
13, 10290, Note_on_c, 6, 60, 72
13, 10319, Note_on_c, 6, 60, 0
13, 10320, Note_on_c, 6, 62, 72
13, 10349, Note_on_c, 6, 62, 0
13, 10350, Note_on_c, 6, 65, 72
13, 10379, Note_on_c, 6, 65, 0
13, 10380, Note_on_c, 6, 60, 72
13, 10409, Note_on_c, 6, 60, 0
13, 10410, Note_on_c, 6, 68, 72
13, 10439, Note_on_c, 6, 68, 0
13, 10440, Note_on_c, 6, 59, 72
13, 10469, Note_on_c, 6, 59, 0
13, 10470, Note_on_c, 6, 62, 72
13, 10499, Note_on_c, 6, 62, 0
13, 10500, Note_on_c, 6, 55, 72
13, 10529, Note_on_c, 6, 55, 0
13, 10530, Note_on_c, 6, 59, 72
13, 10559, Note_on_c, 6, 59, 0
13, 10560, Note_on_c, 6, 60, 72
13, 10589, Note_on_c, 6, 60, 0
13, 10590, Note_on_c, 6, 63, 72
13, 10619, Note_on_c, 6, 63, 0
13, 10620, Note_on_c, 6, 67, 72
13, 10649, Note_on_c, 6, 67, 0
13, 10650, Note_on_c, 6, 65, 72
13, 10679, Note_on_c, 6, 65, 0
13, 10680, Note_on_c, 6, 64, 72
13, 10709, Note_on_c, 6, 64, 0
13, 10710, Note_on_c, 6, 67, 72
13, 10739, Note_on_c, 6, 67, 0
13, 10740, Note_on_c, 6, 60, 72
13, 10769, Note_on_c, 6, 60, 0
13, 10770, Note_on_c, 6, 64, 72
13, 10799, Note_on_c, 6, 64, 0
13, 10800, Note_on_c, 6, 65, 72
13, 10829, Note_on_c, 6, 65, 0
13, 10830, Note_on_c, 6, 69, 72
13, 10859, Note_on_c, 6, 69, 0
13, 10860, Note_on_c, 6, 62, 72
13, 10889, Note_on_c, 6, 62, 0
13, 10890, Note_on_c, 6, 65, 72
13, 10919, Note_on_c, 6, 65, 0
13, 10920, Note_on_c, 6, 67, 72
13, 10949, Note_on_c, 6, 67, 0
13, 10950, Note_on_c, 6, 70, 72
13, 10979, Note_on_c, 6, 70, 0
13, 10980, Note_on_c, 6, 65, 72
13, 11009, Note_on_c, 6, 65, 0
13, 11010, Note_on_c, 6, 74, 72
13, 11039, Note_on_c, 6, 74, 0
13, 11040, Note_on_c, 6, 64, 72
13, 11069, Note_on_c, 6, 64, 0
13, 11070, Note_on_c, 6, 67, 72
13, 11099, Note_on_c, 6, 67, 0
13, 11100, Note_on_c, 6, 60, 72
13, 11129, Note_on_c, 6, 60, 0
13, 11130, Note_on_c, 6, 64, 72
13, 11159, Note_on_c, 6, 64, 0
13, 11160, Note_on_c, 6, 65, 72
13, 11189, Note_on_c, 6, 65, 0
13, 11190, Note_on_c, 6, 69, 72
13, 11219, Note_on_c, 6, 69, 0
13, 11220, Note_on_c, 6, 64, 72
13, 11249, Note_on_c, 6, 64, 0
13, 11250, Note_on_c, 6, 72, 72
13, 11279, Note_on_c, 6, 72, 0
13, 11280, Note_on_c, 6, 62, 72
13, 11309, Note_on_c, 6, 62, 0
13, 11310, Note_on_c, 6, 65, 72
13, 11339, Note_on_c, 6, 65, 0
13, 11340, Note_on_c, 6, 58, 72
13, 11369, Note_on_c, 6, 58, 0
13, 11370, Note_on_c, 6, 62, 72
13, 11399, Note_on_c, 6, 62, 0
13, 11400, Note_on_c, 6, 63, 72
13, 11429, Note_on_c, 6, 63, 0
13, 11430, Note_on_c, 6, 67, 72
13, 11459, Note_on_c, 6, 67, 0
13, 11460, Note_on_c, 6, 60, 72
13, 11489, Note_on_c, 6, 60, 0
13, 11490, Note_on_c, 6, 63, 72
13, 11519, Note_on_c, 6, 63, 0
13, 11520, Note_on_c, 6, 65, 72
13, 11549, Note_on_c, 6, 65, 0
13, 11550, Note_on_c, 6, 57, 72
13, 11579, Note_on_c, 6, 57, 0
13, 11580, Note_on_c, 6, 62, 72
13, 11609, Note_on_c, 6, 62, 0
13, 11610, Note_on_c, 6, 60, 72
13, 11639, Note_on_c, 6, 60, 0
13, 11640, Note_on_c, 6, 58, 72
13, 11669, Note_on_c, 6, 58, 0
13, 11670, Note_on_c, 6, 62, 72
13, 11699, Note_on_c, 6, 62, 0
13, 11700, Note_on_c, 6, 57, 72
13, 11729, Note_on_c, 6, 57, 0
13, 11730, Note_on_c, 6, 65, 72
13, 11759, Note_on_c, 6, 65, 0
13, 11760, Note_on_c, 6, 55, 72
13, 11789, Note_on_c, 6, 55, 0
13, 11790, Note_on_c, 6, 58, 72
13, 11819, Note_on_c, 6, 58, 0
13, 11820, Note_on_c, 6, 53, 72
13, 11849, Note_on_c, 6, 53, 0
13, 11850, Note_on_c, 6, 62, 72
13, 11879, Note_on_c, 6, 62, 0
13, 11880, Note_on_c, 6, 52, 72
13, 11909, Note_on_c, 6, 52, 0
13, 11910, Note_on_c, 6, 55, 72
13, 11939, Note_on_c, 6, 55, 0
13, 11940, Note_on_c, 6, 50, 72
13, 11969, Note_on_c, 6, 50, 0
13, 11970, Note_on_c, 6, 58, 72
13, 11999, Note_on_c, 6, 58, 0
13, 12000, Note_on_c, 6, 61, 72
13, 12029, Note_on_c, 6, 61, 0
13, 12030, Note_on_c, 6, 64, 72
13, 12059, Note_on_c, 6, 64, 0
13, 12060, Note_on_c, 6, 57, 72
13, 12089, Note_on_c, 6, 57, 0
13, 12090, Note_on_c, 6, 61, 72
13, 12119, Note_on_c, 6, 61, 0
13, 12120, Note_on_c, 6, 62, 72
13, 12149, Note_on_c, 6, 62, 0
13, 12150, Note_on_c, 6, 65, 72
13, 12179, Note_on_c, 6, 65, 0
13, 12180, Note_on_c, 6, 60, 72
13, 12209, Note_on_c, 6, 60, 0
13, 12210, Note_on_c, 6, 69, 72
13, 12239, Note_on_c, 6, 69, 0
13, 12240, Note_on_c, 6, 59, 72
13, 12269, Note_on_c, 6, 59, 0
13, 12270, Note_on_c, 6, 62, 72
13, 12299, Note_on_c, 6, 62, 0
13, 12300, Note_on_c, 6, 55, 72
13, 12329, Note_on_c, 6, 55, 0
13, 12330, Note_on_c, 6, 59, 72
13, 12359, Note_on_c, 6, 59, 0
13, 12360, Note_on_c, 6, 61, 72
13, 12389, Note_on_c, 6, 61, 0
13, 12390, Note_on_c, 6, 64, 72
13, 12419, Note_on_c, 6, 64, 0
13, 12420, Note_on_c, 6, 57, 72
13, 12449, Note_on_c, 6, 57, 0
13, 12450, Note_on_c, 6, 61, 72
13, 12479, Note_on_c, 6, 61, 0
13, 12480, Note_on_c, 6, 50, 72
13, 12509, Note_on_c, 6, 50, 0
13, 12510, Note_on_c, 6, 53, 72
13, 12539, Note_on_c, 6, 53, 0
13, 12540, Note_on_c, 6, 57, 72
13, 12569, Note_on_c, 6, 57, 0
13, 12570, Note_on_c, 6, 61, 72
13, 12599, Note_on_c, 6, 61, 0
13, 12600, Note_on_c, 6, 62, 72
13, 12629, Note_on_c, 6, 62, 0
13, 12630, Note_on_c, 6, 57, 72
13, 12659, Note_on_c, 6, 57, 0
13, 12660, Note_on_c, 6, 53, 72
13, 12689, Note_on_c, 6, 53, 0
13, 12690, Note_on_c, 6, 50, 72
13, 12719, Note_on_c, 6, 50, 0
13, 12720, Note_on_c, 6, 51, 72
13, 12749, Note_on_c, 6, 51, 0
13, 12750, Note_on_c, 6, 55, 72
13, 12779, Note_on_c, 6, 55, 0
13, 12780, Note_on_c, 6, 58, 72
13, 12809, Note_on_c, 6, 58, 0
13, 12810, Note_on_c, 6, 62, 72
13, 12839, Note_on_c, 6, 62, 0
13, 12840, Note_on_c, 6, 60, 72
13, 12869, Note_on_c, 6, 60, 0
13, 12870, Note_on_c, 6, 55, 72
13, 12899, Note_on_c, 6, 55, 0
13, 12900, Note_on_c, 6, 51, 72
13, 12929, Note_on_c, 6, 51, 0
13, 12930, Note_on_c, 6, 48, 72
13, 12959, Note_on_c, 6, 48, 0
13, 12960, Note_on_c, 6, 50, 72
13, 12989, Note_on_c, 6, 50, 0
13, 12990, Note_on_c, 6, 53, 72
13, 13019, Note_on_c, 6, 53, 0
13, 13020, Note_on_c, 6, 57, 72
13, 13049, Note_on_c, 6, 57, 0
13, 13050, Note_on_c, 6, 60, 72
13, 13079, Note_on_c, 6, 60, 0
13, 13080, Note_on_c, 6, 58, 72
13, 13109, Note_on_c, 6, 58, 0
13, 13110, Note_on_c, 6, 65, 72
13, 13139, Note_on_c, 6, 65, 0
13, 13140, Note_on_c, 6, 62, 72
13, 13169, Note_on_c, 6, 62, 0
13, 13170, Note_on_c, 6, 58, 72
13, 13199, Note_on_c, 6, 58, 0
13, 13200, Note_on_c, 6, 60, 72
13, 13229, Note_on_c, 6, 60, 0
13, 13230, Note_on_c, 6, 63, 72
13, 13259, Note_on_c, 6, 63, 0
13, 13260, Note_on_c, 6, 67, 72
13, 13289, Note_on_c, 6, 67, 0
13, 13290, Note_on_c, 6, 70, 72
13, 13319, Note_on_c, 6, 70, 0
13, 13320, Note_on_c, 6, 69, 72
13, 13349, Note_on_c, 6, 69, 0
13, 13350, Note_on_c, 6, 66, 72
13, 13379, Note_on_c, 6, 66, 0
13, 13380, Note_on_c, 6, 63, 72
13, 13409, Note_on_c, 6, 63, 0
13, 13410, Note_on_c, 6, 60, 72
13, 13439, Note_on_c, 6, 60, 0
13, 13440, Note_on_c, 6, 58, 72
13, 13469, Note_on_c, 6, 58, 0
13, 13470, Note_on_c, 6, 55, 72
13, 13499, Note_on_c, 6, 55, 0
13, 13500, Note_on_c, 6, 58, 72
13, 13529, Note_on_c, 6, 58, 0
13, 13530, Note_on_c, 6, 60, 72
13, 13559, Note_on_c, 6, 60, 0
13, 13560, Note_on_c, 6, 62, 72
13, 13589, Note_on_c, 6, 62, 0
13, 13590, Note_on_c, 6, 64, 72
13, 13619, Note_on_c, 6, 64, 0
13, 13620, Note_on_c, 6, 66, 72
13, 13649, Note_on_c, 6, 66, 0
13, 13650, Note_on_c, 6, 62, 72
13, 13679, Note_on_c, 6, 62, 0
13, 13680, Note_on_c, 6, 55, 72
13, 13709, Note_on_c, 6, 55, 0
13, 13710, Note_on_c, 6, 57, 72
13, 13739, Note_on_c, 6, 57, 0
13, 13740, Note_on_c, 6, 58, 72
13, 13769, Note_on_c, 6, 58, 0
13, 13770, Note_on_c, 6, 60, 72
13, 13799, Note_on_c, 6, 60, 0
13, 13800, Note_on_c, 6, 62, 72
13, 13829, Note_on_c, 6, 62, 0
13, 13830, Note_on_c, 6, 64, 72
13, 13859, Note_on_c, 6, 64, 0
13, 13860, Note_on_c, 6, 66, 72
13, 13889, Note_on_c, 6, 66, 0
13, 13890, Note_on_c, 6, 62, 72
13, 13919, Note_on_c, 6, 62, 0
13, 13920, Note_on_c, 6, 67, 72
13, 13949, Note_on_c, 6, 67, 0
13, 13950, Note_on_c, 6, 62, 72
13, 13979, Note_on_c, 6, 62, 0
13, 13980, Note_on_c, 6, 58, 72
13, 14009, Note_on_c, 6, 58, 0
13, 14010, Note_on_c, 6, 55, 72
13, 14039, Note_on_c, 6, 55, 0
13, 14040, Note_on_c, 6, 62, 72
13, 14099, Note_on_c, 6, 62, 0
13, 14100, Note_on_c, 6, 50, 72
13, 14159, Note_on_c, 6, 50, 0
13, 14400, Note_on_c, 6, 55, 48
13, 14459, Note_on_c, 6, 55, 0
13, 14460, Note_on_c, 6, 55, 48
13, 14519, Note_on_c, 6, 55, 0
13, 14520, Note_on_c, 6, 55, 48
13, 14579, Note_on_c, 6, 55, 0
13, 14580, Note_on_c, 6, 55, 48
13, 14639, Note_on_c, 6, 55, 0
13, 14640, Note_on_c, 6, 57, 48
13, 14699, Note_on_c, 6, 57, 0
13, 14700, Note_on_c, 6, 57, 48
13, 14759, Note_on_c, 6, 57, 0
13, 14760, Note_on_c, 6, 57, 48
13, 14819, Note_on_c, 6, 57, 0
13, 14820, Note_on_c, 6, 55, 48
13, 14879, Note_on_c, 6, 55, 0
13, 14880, Note_on_c, 6, 54, 48
13, 14939, Note_on_c, 6, 54, 0
13, 14940, Note_on_c, 6, 60, 48
13, 14999, Note_on_c, 6, 60, 0
13, 15000, Note_on_c, 6, 58, 48
13, 15059, Note_on_c, 6, 58, 0
13, 15060, Note_on_c, 6, 57, 48
13, 15119, Note_on_c, 6, 57, 0
13, 15120, Note_on_c, 6, 55, 48
13, 15179, Note_on_c, 6, 55, 0
13, 15180, Note_on_c, 6, 58, 48
13, 15239, Note_on_c, 6, 58, 0
13, 15240, Note_on_c, 6, 62, 48
13, 15299, Note_on_c, 6, 62, 0
13, 15300, Note_on_c, 6, 58, 48
13, 15359, Note_on_c, 6, 58, 0
13, 15420, Note_on_c, 6, 62, 48
13, 15479, Note_on_c, 6, 62, 0
13, 15480, Note_on_c, 6, 67, 48
13, 15539, Note_on_c, 6, 67, 0
13, 15540, Note_on_c, 6, 62, 48
13, 15599, Note_on_c, 6, 62, 0
13, 15660, Note_on_c, 6, 62, 48
13, 15719, Note_on_c, 6, 62, 0
13, 15720, Note_on_c, 6, 57, 48
13, 15779, Note_on_c, 6, 57, 0
13, 15780, Note_on_c, 6, 66, 48
13, 15839, Note_on_c, 6, 66, 0
13, 15900, Note_on_c, 6, 59, 48
13, 15959, Note_on_c, 6, 59, 0
13, 15960, Note_on_c, 6, 62, 48
13, 16019, Note_on_c, 6, 62, 0
13, 16020, Note_on_c, 6, 59, 48
13, 16079, Note_on_c, 6, 59, 0
13, 16140, Note_on_c, 6, 51, 48
13, 16199, Note_on_c, 6, 51, 0
13, 16200, Note_on_c, 6, 55, 48
13, 16259, Note_on_c, 6, 55, 0
13, 16260, Note_on_c, 6, 51, 48
13, 16319, Note_on_c, 6, 51, 0
13, 16380, Note_on_c, 6, 55, 48
13, 16439, Note_on_c, 6, 55, 0
13, 16440, Note_on_c, 6, 63, 48
13, 16499, Note_on_c, 6, 63, 0
13, 16500, Note_on_c, 6, 55, 48
13, 16559, Note_on_c, 6, 55, 0
13, 16620, Note_on_c, 6, 59, 48
13, 16679, Note_on_c, 6, 59, 0
13, 16680, Note_on_c, 6, 62, 48
13, 16739, Note_on_c, 6, 62, 0
13, 16740, Note_on_c, 6, 59, 48
13, 16799, Note_on_c, 6, 59, 0
13, 16860, Note_on_c, 6, 64, 48
13, 16919, Note_on_c, 6, 64, 0
13, 16920, Note_on_c, 6, 70, 48
13, 16979, Note_on_c, 6, 70, 0
13, 16980, Note_on_c, 6, 67, 48
13, 17039, Note_on_c, 6, 67, 0
13, 17100, Note_on_c, 6, 56, 48
13, 17159, Note_on_c, 6, 56, 0
13, 17160, Note_on_c, 6, 60, 48
13, 17219, Note_on_c, 6, 60, 0
13, 17220, Note_on_c, 6, 56, 48
13, 17279, Note_on_c, 6, 56, 0
13, 17340, Note_on_c, 6, 65, 48
13, 17399, Note_on_c, 6, 65, 0
13, 17400, Note_on_c, 6, 62, 48
13, 17459, Note_on_c, 6, 62, 0
13, 17460, Note_on_c, 6, 59, 48
13, 17519, Note_on_c, 6, 59, 0
13, 17580, Note_on_c, 6, 52, 48
13, 17639, Note_on_c, 6, 52, 0
13, 17640, Note_on_c, 6, 55, 48
13, 17699, Note_on_c, 6, 55, 0
13, 17700, Note_on_c, 6, 52, 48
13, 17759, Note_on_c, 6, 52, 0
13, 17820, Note_on_c, 6, 53, 48
13, 17879, Note_on_c, 6, 53, 0
13, 17880, Note_on_c, 6, 57, 48
13, 17939, Note_on_c, 6, 57, 0
13, 17940, Note_on_c, 6, 60, 48
13, 17999, Note_on_c, 6, 60, 0
13, 18060, Note_on_c, 6, 58, 48
13, 18119, Note_on_c, 6, 58, 0
13, 18120, Note_on_c, 6, 62, 48
13, 18179, Note_on_c, 6, 62, 0
13, 18180, Note_on_c, 6, 53, 48
13, 18239, Note_on_c, 6, 53, 0
13, 18240, Note_on_c, 6, 53, 48
13, 18299, Note_on_c, 6, 53, 0
13, 18300, Note_on_c, 6, 62, 48
13, 18359, Note_on_c, 6, 62, 0
13, 18360, Note_on_c, 6, 60, 48
13, 18419, Note_on_c, 6, 60, 0
13, 18420, Note_on_c, 6, 58, 48
13, 18479, Note_on_c, 6, 58, 0
13, 18480, Note_on_c, 6, 57, 48
13, 18539, Note_on_c, 6, 57, 0
13, 18540, Note_on_c, 6, 55, 48
13, 18599, Note_on_c, 6, 55, 0
13, 18600, Note_on_c, 6, 53, 48
13, 18659, Note_on_c, 6, 53, 0
13, 18660, Note_on_c, 6, 55, 48
13, 18719, Note_on_c, 6, 55, 0
13, 18720, Note_on_c, 6, 56, 48
13, 18779, Note_on_c, 6, 56, 0
13, 18780, Note_on_c, 6, 60, 48
13, 18839, Note_on_c, 6, 60, 0
13, 18840, Note_on_c, 6, 58, 48
13, 18899, Note_on_c, 6, 58, 0
13, 18900, Note_on_c, 6, 56, 48
13, 18959, Note_on_c, 6, 56, 0
13, 18960, Note_on_c, 6, 55, 48
13, 19019, Note_on_c, 6, 55, 0
13, 19020, Note_on_c, 6, 60, 48
13, 19139, Note_on_c, 6, 60, 0
13, 19140, Note_on_c, 6, 60, 48
13, 19199, Note_on_c, 6, 60, 0
13, 19200, Note_on_c, 6, 57, 48
13, 19319, Note_on_c, 6, 57, 0
13, 19380, Note_on_c, 6, 69, 48
13, 19439, Note_on_c, 6, 69, 0
13, 19440, Note_on_c, 6, 67, 48
13, 19499, Note_on_c, 6, 67, 0
13, 19500, Note_on_c, 6, 58, 48
13, 19559, Note_on_c, 6, 58, 0
13, 19560, Note_on_c, 6, 63, 48
13, 19619, Note_on_c, 6, 63, 0
13, 19620, Note_on_c, 6, 63, 48
13, 19679, Note_on_c, 6, 63, 0
13, 19680, Note_on_c, 6, 63, 48
13, 19739, Note_on_c, 6, 63, 0
13, 19740, Note_on_c, 6, 60, 48
13, 19799, Note_on_c, 6, 60, 0
13, 19800, Note_on_c, 6, 62, 48
13, 19859, Note_on_c, 6, 62, 0
13, 19860, Note_on_c, 6, 63, 48
13, 19919, Note_on_c, 6, 63, 0
13, 19920, Note_on_c, 6, 62, 48
13, 19979, Note_on_c, 6, 62, 0
13, 19980, Note_on_c, 6, 60, 48
13, 20009, Note_on_c, 6, 60, 0
13, 20010, Note_on_c, 6, 58, 48
13, 20039, Note_on_c, 6, 58, 0
13, 20040, Note_on_c, 6, 57, 48
13, 20099, Note_on_c, 6, 57, 0
13, 20100, Note_on_c, 6, 57, 48
13, 20159, Note_on_c, 6, 57, 0
13, 20160, Note_on_c, 6, 67, 48
13, 20219, Note_on_c, 6, 67, 0
13, 20220, Note_on_c, 6, 67, 48
13, 20279, Note_on_c, 6, 67, 0
13, 20280, Note_on_c, 6, 58, 48
13, 20339, Note_on_c, 6, 58, 0
13, 20340, Note_on_c, 6, 58, 48
13, 20399, Note_on_c, 6, 58, 0
13, 20400, Note_on_c, 6, 62, 48
13, 20459, Note_on_c, 6, 62, 0
13, 20460, Note_on_c, 6, 57, 72
13, 20519, Note_on_c, 6, 57, 0
13, 20520, Note_on_c, 6, 58, 72
13, 20579, Note_on_c, 6, 58, 0
13, 20580, Note_on_c, 6, 60, 72
13, 20639, Note_on_c, 6, 60, 0
13, 20640, Note_on_c, 6, 58, 72
13, 20699, Note_on_c, 6, 58, 0
13, 20700, Note_on_c, 6, 58, 72
13, 20729, Note_on_c, 6, 58, 0
13, 20730, Note_on_c, 6, 57, 72
13, 20759, Note_on_c, 6, 57, 0
13, 20760, Note_on_c, 6, 58, 72
13, 20819, Note_on_c, 6, 58, 0
13, 20820, Note_on_c, 6, 62, 72
13, 20879, Note_on_c, 6, 62, 0
13, 20880, Note_on_c, 6, 60, 72
13, 20939, Note_on_c, 6, 60, 0
13, 20940, Note_on_c, 6, 60, 72
13, 20969, Note_on_c, 6, 60, 0
13, 20970, Note_on_c, 6, 58, 72
13, 20999, Note_on_c, 6, 58, 0
13, 21000, Note_on_c, 6, 60, 72
13, 21059, Note_on_c, 6, 60, 0
13, 21060, Note_on_c, 6, 63, 72
13, 21119, Note_on_c, 6, 63, 0
13, 21120, Note_on_c, 6, 62, 72
13, 21179, Note_on_c, 6, 62, 0
13, 21180, Note_on_c, 6, 54, 72
13, 21209, Note_on_c, 6, 54, 0
13, 21210, Note_on_c, 6, 52, 72
13, 21239, Note_on_c, 6, 52, 0
13, 21240, Note_on_c, 6, 54, 72
13, 21299, Note_on_c, 6, 54, 0
13, 21300, Note_on_c, 6, 57, 72
13, 21359, Note_on_c, 6, 57, 0
13, 21360, Note_on_c, 6, 55, 72
13, 21419, Note_on_c, 6, 55, 0
13, 21420, Note_on_c, 6, 58, 72
13, 21449, Note_on_c, 6, 58, 0
13, 21450, Note_on_c, 6, 57, 72
13, 21479, Note_on_c, 6, 57, 0
13, 21480, Note_on_c, 6, 58, 72
13, 21539, Note_on_c, 6, 58, 0
13, 21540, Note_on_c, 6, 62, 72
13, 21599, Note_on_c, 6, 62, 0
13, 21600, Note_on_c, 6, 55, 72
13, 21659, Note_on_c, 6, 55, 0
13, 21660, Note_on_c, 6, 67, 72
13, 21689, Note_on_c, 6, 67, 0
13, 21690, Note_on_c, 6, 65, 72
13, 21719, Note_on_c, 6, 65, 0
13, 21720, Note_on_c, 6, 67, 72
13, 21779, Note_on_c, 6, 67, 0
13, 21780, Note_on_c, 6, 70, 72
13, 21839, Note_on_c, 6, 70, 0
13, 21840, Note_on_c, 6, 61, 72
13, 21899, Note_on_c, 6, 61, 0
13, 21900, Note_on_c, 6, 61, 72
13, 21929, Note_on_c, 6, 61, 0
13, 21930, Note_on_c, 6, 59, 72
13, 21959, Note_on_c, 6, 59, 0
13, 21960, Note_on_c, 6, 61, 72
13, 22019, Note_on_c, 6, 61, 0
13, 22020, Note_on_c, 6, 64, 72
13, 22079, Note_on_c, 6, 64, 0
13, 22080, Note_on_c, 6, 62, 72
13, 22139, Note_on_c, 6, 62, 0
13, 22140, Note_on_c, 6, 66, 72
13, 22169, Note_on_c, 6, 66, 0
13, 22170, Note_on_c, 6, 64, 72
13, 22199, Note_on_c, 6, 64, 0
13, 22200, Note_on_c, 6, 66, 72
13, 22259, Note_on_c, 6, 66, 0
13, 22260, Note_on_c, 6, 69, 72
13, 22319, Note_on_c, 6, 69, 0
13, 22320, Note_on_c, 6, 62, 72
13, 22379, Note_on_c, 6, 62, 0
13, 22380, Note_on_c, 6, 59, 72
13, 22409, Note_on_c, 6, 59, 0
13, 22410, Note_on_c, 6, 57, 72
13, 22439, Note_on_c, 6, 57, 0
13, 22440, Note_on_c, 6, 59, 72
13, 22499, Note_on_c, 6, 59, 0
13, 22500, Note_on_c, 6, 62, 72
13, 22559, Note_on_c, 6, 62, 0
13, 22560, Note_on_c, 6, 55, 72
13, 22619, Note_on_c, 6, 55, 0
13, 22620, Note_on_c, 6, 63, 72
13, 22649, Note_on_c, 6, 63, 0
13, 22650, Note_on_c, 6, 62, 72
13, 22679, Note_on_c, 6, 62, 0
13, 22680, Note_on_c, 6, 63, 72
13, 22739, Note_on_c, 6, 63, 0
13, 22740, Note_on_c, 6, 67, 72
13, 22799, Note_on_c, 6, 67, 0
13, 22800, Note_on_c, 6, 67, 72
13, 22859, Note_on_c, 6, 67, 0
13, 22860, Note_on_c, 6, 60, 72
13, 22889, Note_on_c, 6, 60, 0
13, 22890, Note_on_c, 6, 58, 72
13, 22919, Note_on_c, 6, 58, 0
13, 22920, Note_on_c, 6, 60, 72
13, 22979, Note_on_c, 6, 60, 0
13, 22980, Note_on_c, 6, 63, 72
13, 23039, Note_on_c, 6, 63, 0
13, 23040, Note_on_c, 6, 54, 72
13, 23099, Note_on_c, 6, 54, 0
13, 23100, Note_on_c, 6, 66, 72
13, 23129, Note_on_c, 6, 66, 0
13, 23130, Note_on_c, 6, 64, 72
13, 23159, Note_on_c, 6, 64, 0
13, 23160, Note_on_c, 6, 66, 72
13, 23219, Note_on_c, 6, 66, 0
13, 23220, Note_on_c, 6, 69, 72
13, 23279, Note_on_c, 6, 69, 0
13, 23280, Note_on_c, 6, 62, 72
13, 23339, Note_on_c, 6, 62, 0
13, 23340, Note_on_c, 6, 55, 72
13, 23369, Note_on_c, 6, 55, 0
13, 23370, Note_on_c, 6, 53, 72
13, 23399, Note_on_c, 6, 53, 0
13, 23400, Note_on_c, 6, 55, 72
13, 23459, Note_on_c, 6, 55, 0
13, 23460, Note_on_c, 6, 58, 72
13, 23519, Note_on_c, 6, 58, 0
13, 23520, Note_on_c, 6, 52, 72
13, 23579, Note_on_c, 6, 52, 0
13, 23580, Note_on_c, 6, 64, 72
13, 23609, Note_on_c, 6, 64, 0
13, 23610, Note_on_c, 6, 62, 72
13, 23639, Note_on_c, 6, 62, 0
13, 23640, Note_on_c, 6, 64, 72
13, 23699, Note_on_c, 6, 64, 0
13, 23700, Note_on_c, 6, 67, 72
13, 23759, Note_on_c, 6, 67, 0
13, 23760, Note_on_c, 6, 57, 72
13, 23819, Note_on_c, 6, 57, 0
13, 23820, Note_on_c, 6, 57, 72
13, 23849, Note_on_c, 6, 57, 0
13, 23850, Note_on_c, 6, 56, 72
13, 23879, Note_on_c, 6, 56, 0
13, 23880, Note_on_c, 6, 57, 72
13, 23939, Note_on_c, 6, 57, 0
13, 23940, Note_on_c, 6, 61, 72
13, 23999, Note_on_c, 6, 61, 0
13, 24000, Note_on_c, 6, 50, 72
13, 24059, Note_on_c, 6, 50, 0
13, 24060, Note_on_c, 6, 62, 72
13, 24089, Note_on_c, 6, 62, 0
13, 24090, Note_on_c, 6, 61, 72
13, 24119, Note_on_c, 6, 61, 0
13, 24120, Note_on_c, 6, 62, 72
13, 24179, Note_on_c, 6, 62, 0
13, 24180, Note_on_c, 6, 66, 72
13, 24239, Note_on_c, 6, 66, 0
13, 24240, Note_on_c, 6, 67, 72
13, 24299, Note_on_c, 6, 67, 0
13, 24300, Note_on_c, 6, 59, 72
13, 24329, Note_on_c, 6, 59, 0
13, 24330, Note_on_c, 6, 57, 72
13, 24359, Note_on_c, 6, 57, 0
13, 24360, Note_on_c, 6, 59, 72
13, 24419, Note_on_c, 6, 59, 0
13, 24420, Note_on_c, 6, 62, 72
13, 24479, Note_on_c, 6, 62, 0
13, 24480, Note_on_c, 6, 55, 72
13, 24539, Note_on_c, 6, 55, 0
13, 24540, Note_on_c, 6, 64, 72
13, 24569, Note_on_c, 6, 64, 0
13, 24570, Note_on_c, 6, 62, 72
13, 24599, Note_on_c, 6, 62, 0
13, 24600, Note_on_c, 6, 64, 72
13, 24659, Note_on_c, 6, 64, 0
13, 24660, Note_on_c, 6, 67, 72
13, 24719, Note_on_c, 6, 67, 0
13, 24720, Note_on_c, 6, 60, 72
13, 24779, Note_on_c, 6, 60, 0
13, 24780, Note_on_c, 6, 57, 72
13, 24809, Note_on_c, 6, 57, 0
13, 24810, Note_on_c, 6, 55, 72
13, 24839, Note_on_c, 6, 55, 0
13, 24840, Note_on_c, 6, 57, 72
13, 24899, Note_on_c, 6, 57, 0
13, 24900, Note_on_c, 6, 60, 72
13, 24959, Note_on_c, 6, 60, 0
13, 24960, Note_on_c, 6, 53, 72
13, 25019, Note_on_c, 6, 53, 0
13, 25020, Note_on_c, 6, 62, 72
13, 25049, Note_on_c, 6, 62, 0
13, 25050, Note_on_c, 6, 60, 72
13, 25079, Note_on_c, 6, 60, 0
13, 25080, Note_on_c, 6, 62, 72
13, 25139, Note_on_c, 6, 62, 0
13, 25140, Note_on_c, 6, 65, 72
13, 25199, Note_on_c, 6, 65, 0
13, 25200, Note_on_c, 6, 55, 72
13, 25259, Note_on_c, 6, 55, 0
13, 25260, Note_on_c, 6, 63, 72
13, 25289, Note_on_c, 6, 63, 0
13, 25290, Note_on_c, 6, 62, 72
13, 25319, Note_on_c, 6, 62, 0
13, 25320, Note_on_c, 6, 63, 72
13, 25379, Note_on_c, 6, 63, 0
13, 25380, Note_on_c, 6, 67, 72
13, 25439, Note_on_c, 6, 67, 0
13, 25440, Note_on_c, 6, 60, 72
13, 25499, Note_on_c, 6, 60, 0
13, 25500, Note_on_c, 6, 57, 72
13, 25529, Note_on_c, 6, 57, 0
13, 25530, Note_on_c, 6, 55, 72
13, 25559, Note_on_c, 6, 55, 0
13, 25560, Note_on_c, 6, 57, 72
13, 25619, Note_on_c, 6, 57, 0
13, 25620, Note_on_c, 6, 60, 72
13, 25679, Note_on_c, 6, 60, 0
13, 25680, Note_on_c, 6, 53, 72
13, 25739, Note_on_c, 6, 53, 0
13, 25740, Note_on_c, 6, 65, 72
13, 25769, Note_on_c, 6, 65, 0
13, 25770, Note_on_c, 6, 63, 72
13, 25799, Note_on_c, 6, 63, 0
13, 25800, Note_on_c, 6, 65, 72
13, 25859, Note_on_c, 6, 65, 0
13, 25860, Note_on_c, 6, 56, 72
13, 25919, Note_on_c, 6, 56, 0
13, 25920, Note_on_c, 6, 55, 72
13, 25979, Note_on_c, 6, 55, 0
13, 25980, Note_on_c, 6, 59, 72
13, 26009, Note_on_c, 6, 59, 0
13, 26010, Note_on_c, 6, 57, 72
13, 26039, Note_on_c, 6, 57, 0
13, 26040, Note_on_c, 6, 59, 72
13, 26099, Note_on_c, 6, 59, 0
13, 26100, Note_on_c, 6, 62, 72
13, 26159, Note_on_c, 6, 62, 0
13, 26160, Note_on_c, 6, 60, 72
13, 26219, Note_on_c, 6, 60, 0
13, 26220, Note_on_c, 6, 67, 72
13, 26279, Note_on_c, 6, 67, 0
13, 26280, Note_on_c, 6, 63, 72
13, 26339, Note_on_c, 6, 63, 0
13, 26340, Note_on_c, 6, 60, 72
13, 26459, Note_on_c, 6, 60, 0
13, 26460, Note_on_c, 6, 59, 72
13, 26489, Note_on_c, 6, 59, 0
13, 26490, Note_on_c, 6, 57, 72
13, 26519, Note_on_c, 6, 57, 0
13, 26520, Note_on_c, 6, 59, 72
13, 26579, Note_on_c, 6, 59, 0
13, 26580, Note_on_c, 6, 62, 72
13, 26699, Note_on_c, 6, 62, 0
13, 26700, Note_on_c, 6, 59, 72
13, 26729, Note_on_c, 6, 59, 0
13, 26730, Note_on_c, 6, 57, 72
13, 26759, Note_on_c, 6, 57, 0
13, 26760, Note_on_c, 6, 59, 72
13, 26819, Note_on_c, 6, 59, 0
13, 26820, Note_on_c, 6, 62, 72
13, 26879, Note_on_c, 6, 62, 0
13, 26880, Note_on_c, 6, 58, 72
13, 26939, Note_on_c, 6, 58, 0
13, 26940, Note_on_c, 6, 67, 72
13, 26969, Note_on_c, 6, 67, 0
13, 26970, Note_on_c, 6, 65, 72
13, 26999, Note_on_c, 6, 65, 0
13, 27000, Note_on_c, 6, 64, 72
13, 27059, Note_on_c, 6, 64, 0
13, 27060, Note_on_c, 6, 67, 72
13, 27119, Note_on_c, 6, 67, 0
13, 27120, Note_on_c, 6, 57, 72
13, 27179, Note_on_c, 6, 57, 0
13, 27180, Note_on_c, 6, 61, 72
13, 27209, Note_on_c, 6, 61, 0
13, 27210, Note_on_c, 6, 59, 72
13, 27239, Note_on_c, 6, 59, 0
13, 27240, Note_on_c, 6, 61, 72
13, 27299, Note_on_c, 6, 61, 0
13, 27300, Note_on_c, 6, 64, 72
13, 27419, Note_on_c, 6, 64, 0
13, 27420, Note_on_c, 6, 62, 72
13, 27449, Note_on_c, 6, 62, 0
13, 27450, Note_on_c, 6, 64, 72
13, 27479, Note_on_c, 6, 64, 0
13, 27480, Note_on_c, 6, 66, 72
13, 27539, Note_on_c, 6, 66, 0
13, 27540, Note_on_c, 6, 69, 72
13, 27599, Note_on_c, 6, 69, 0
13, 27600, Note_on_c, 6, 58, 72
13, 27659, Note_on_c, 6, 58, 0
13, 27660, Note_on_c, 6, 67, 72
13, 27689, Note_on_c, 6, 67, 0
13, 27690, Note_on_c, 6, 65, 72
13, 27719, Note_on_c, 6, 65, 0
13, 27720, Note_on_c, 6, 63, 72
13, 27779, Note_on_c, 6, 63, 0
13, 27780, Note_on_c, 6, 60, 72
13, 27899, Note_on_c, 6, 60, 0
13, 27900, Note_on_c, 6, 65, 72
13, 27929, Note_on_c, 6, 65, 0
13, 27930, Note_on_c, 6, 63, 72
13, 27959, Note_on_c, 6, 63, 0
13, 27960, Note_on_c, 6, 62, 72
13, 28019, Note_on_c, 6, 62, 0
13, 28020, Note_on_c, 6, 65, 72
13, 28079, Note_on_c, 6, 65, 0
13, 28080, Note_on_c, 6, 67, 72
13, 28139, Note_on_c, 6, 67, 0
13, 28140, Note_on_c, 6, 63, 72
13, 28169, Note_on_c, 6, 63, 0
13, 28170, Note_on_c, 6, 62, 72
13, 28199, Note_on_c, 6, 62, 0
13, 28200, Note_on_c, 6, 63, 72
13, 28259, Note_on_c, 6, 63, 0
13, 28260, Note_on_c, 6, 66, 72
13, 28379, Note_on_c, 6, 66, 0
13, 28380, Note_on_c, 6, 62, 72
13, 28409, Note_on_c, 6, 62, 0
13, 28410, Note_on_c, 6, 60, 72
13, 28439, Note_on_c, 6, 60, 0
13, 28440, Note_on_c, 6, 62, 72
13, 28499, Note_on_c, 6, 62, 0
13, 28500, Note_on_c, 6, 58, 72
13, 28559, Note_on_c, 6, 58, 0
13, 28560, Note_on_c, 6, 55, 72
13, 28619, Note_on_c, 6, 55, 0
13, 28620, Note_on_c, 6, 67, 72
13, 28649, Note_on_c, 6, 67, 0
13, 28650, Note_on_c, 6, 66, 72
13, 28679, Note_on_c, 6, 66, 0
13, 28680, Note_on_c, 6, 67, 72
13, 28739, Note_on_c, 6, 67, 0
13, 28740, Note_on_c, 6, 58, 72
13, 28799, Note_on_c, 6, 58, 0
13, 28800, Note_on_c, 6, 50, 72
13, 28859, Note_on_c, 6, 50, 0
13, 28860, Note_on_c, 6, 62, 72
13, 28889, Note_on_c, 6, 62, 0
13, 28890, Note_on_c, 6, 61, 72
13, 28919, Note_on_c, 6, 61, 0
13, 28920, Note_on_c, 6, 62, 72
13, 28979, Note_on_c, 6, 62, 0
13, 28980, Note_on_c, 6, 66, 72
13, 29039, Note_on_c, 6, 66, 0
13, 29040, Note_on_c, 6, 50, 72
13, 29099, Note_on_c, 6, 50, 0
13, 29100, Note_on_c, 6, 58, 72
13, 29129, Note_on_c, 6, 58, 0
13, 29130, Note_on_c, 6, 57, 72
13, 29159, Note_on_c, 6, 57, 0
13, 29160, Note_on_c, 6, 58, 72
13, 29219, Note_on_c, 6, 58, 0
13, 29220, Note_on_c, 6, 67, 72
13, 29279, Note_on_c, 6, 67, 0
13, 29280, Note_on_c, 6, 50, 72
13, 29339, Note_on_c, 6, 50, 0
13, 29340, Note_on_c, 6, 60, 72
13, 29369, Note_on_c, 6, 60, 0
13, 29370, Note_on_c, 6, 58, 72
13, 29399, Note_on_c, 6, 58, 0
13, 29400, Note_on_c, 6, 60, 72
13, 29459, Note_on_c, 6, 60, 0
13, 29460, Note_on_c, 6, 63, 72
13, 29519, Note_on_c, 6, 63, 0
13, 29520, Note_on_c, 6, 50, 72
13, 29579, Note_on_c, 6, 50, 0
13, 29580, Note_on_c, 6, 57, 72
13, 29609, Note_on_c, 6, 57, 0
13, 29610, Note_on_c, 6, 55, 72
13, 29639, Note_on_c, 6, 55, 0
13, 29640, Note_on_c, 6, 57, 72
13, 29699, Note_on_c, 6, 57, 0
13, 29700, Note_on_c, 6, 66, 72
13, 29759, Note_on_c, 6, 66, 0
13, 29760, Note_on_c, 6, 50, 72
13, 29819, Note_on_c, 6, 50, 0
13, 29820, Note_on_c, 6, 58, 72
13, 29849, Note_on_c, 6, 58, 0
13, 29850, Note_on_c, 6, 57, 72
13, 29879, Note_on_c, 6, 57, 0
13, 29880, Note_on_c, 6, 58, 72
13, 29939, Note_on_c, 6, 58, 0
13, 29940, Note_on_c, 6, 62, 72
13, 29999, Note_on_c, 6, 62, 0
13, 30000, Note_on_c, 6, 50, 72
13, 30059, Note_on_c, 6, 50, 0
13, 30060, Note_on_c, 6, 55, 72
13, 30089, Note_on_c, 6, 55, 0
13, 30090, Note_on_c, 6, 54, 72
13, 30119, Note_on_c, 6, 54, 0
13, 30120, Note_on_c, 6, 55, 72
13, 30179, Note_on_c, 6, 55, 0
13, 30180, Note_on_c, 6, 64, 72
13, 30239, Note_on_c, 6, 64, 0
13, 30240, Note_on_c, 6, 50, 72
13, 30299, Note_on_c, 6, 50, 0
13, 30300, Note_on_c, 6, 57, 72
13, 30329, Note_on_c, 6, 57, 0
13, 30330, Note_on_c, 6, 55, 72
13, 30359, Note_on_c, 6, 55, 0
13, 30360, Note_on_c, 6, 57, 72
13, 30419, Note_on_c, 6, 57, 0
13, 30420, Note_on_c, 6, 60, 72
13, 30479, Note_on_c, 6, 60, 0
13, 30480, Note_on_c, 6, 50, 72
13, 30539, Note_on_c, 6, 50, 0
13, 30540, Note_on_c, 6, 55, 72
13, 30569, Note_on_c, 6, 55, 0
13, 30570, Note_on_c, 6, 54, 72
13, 30599, Note_on_c, 6, 54, 0
13, 30600, Note_on_c, 6, 55, 72
13, 30659, Note_on_c, 6, 55, 0
13, 30660, Note_on_c, 6, 58, 72
13, 30719, Note_on_c, 6, 58, 0
13, 30720, Note_on_c, 6, 52, 72
13, 30839, Note_on_c, 6, 52, 0
13, 31080, Note_on_c, 6, 58, 48
13, 31199, Note_on_c, 6, 58, 0
13, 31200, Note_on_c, 6, 57, 48
13, 31319, Note_on_c, 6, 57, 0
13, 31320, Note_on_c, 6, 55, 48
13, 31439, Note_on_c, 6, 55, 0
13, 31440, Note_on_c, 6, 57, 48
13, 31679, Note_on_c, 6, 57, 0
13, 31680, Note_on_c, 6, 55, 48
13, 31799, Note_on_c, 6, 55, 0
13, 31860, Note_on_c, 6, 62, 48
13, 31889, Note_on_c, 6, 62, 0
13, 31890, Note_on_c, 6, 58, 48
13, 31919, Note_on_c, 6, 58, 0
13, 31920, Note_on_c, 6, 55, 48
13, 31979, Note_on_c, 6, 55, 0
13, 31980, Note_on_c, 6, 67, 48
13, 32039, Note_on_c, 6, 67, 0
13, 32100, Note_on_c, 6, 67, 48
13, 32129, Note_on_c, 6, 67, 0
13, 32130, Note_on_c, 6, 63, 48
13, 32159, Note_on_c, 6, 63, 0
13, 32160, Note_on_c, 6, 57, 48
13, 32219, Note_on_c, 6, 57, 0
13, 32220, Note_on_c, 6, 69, 48
13, 32279, Note_on_c, 6, 69, 0
13, 32340, Note_on_c, 6, 60, 48
13, 32369, Note_on_c, 6, 60, 0
13, 32370, Note_on_c, 6, 57, 48
13, 32399, Note_on_c, 6, 57, 0
13, 32400, Note_on_c, 6, 53, 48
13, 32459, Note_on_c, 6, 53, 0
13, 32460, Note_on_c, 6, 70, 48
13, 32519, Note_on_c, 6, 70, 0
13, 32580, Note_on_c, 6, 62, 48
13, 32609, Note_on_c, 6, 62, 0
13, 32610, Note_on_c, 6, 58, 48
13, 32639, Note_on_c, 6, 58, 0
13, 32640, Note_on_c, 6, 55, 48
13, 32699, Note_on_c, 6, 55, 0
13, 32700, Note_on_c, 6, 58, 48
13, 32759, Note_on_c, 6, 58, 0
13, 32820, Note_on_c, 6, 67, 48
13, 32849, Note_on_c, 6, 67, 0
13, 32850, Note_on_c, 6, 63, 48
13, 32879, Note_on_c, 6, 63, 0
13, 32880, Note_on_c, 6, 60, 48
13, 32939, Note_on_c, 6, 60, 0
13, 32940, Note_on_c, 6, 72, 48
13, 32999, Note_on_c, 6, 72, 0
13, 33060, Note_on_c, 6, 63, 48
13, 33089, Note_on_c, 6, 63, 0
13, 33090, Note_on_c, 6, 60, 48
13, 33119, Note_on_c, 6, 60, 0
13, 33120, Note_on_c, 6, 57, 48
13, 33179, Note_on_c, 6, 57, 0
13, 33180, Note_on_c, 6, 62, 48
13, 33239, Note_on_c, 6, 62, 0
13, 33240, Note_on_c, 6, 62, 48
13, 33299, Note_on_c, 6, 62, 0
13, 33300, Note_on_c, 6, 63, 48
13, 33359, Note_on_c, 6, 63, 0
13, 33360, Note_on_c, 6, 62, 48
13, 33419, Note_on_c, 6, 62, 0
13, 33420, Note_on_c, 6, 62, 48
13, 33479, Note_on_c, 6, 62, 0
13, 33480, Note_on_c, 6, 60, 48
13, 33539, Note_on_c, 6, 60, 0
13, 33540, Note_on_c, 6, 60, 48
13, 33599, Note_on_c, 6, 60, 0
13, 33600, Note_on_c, 6, 58, 48
13, 33659, Note_on_c, 6, 58, 0
13, 33660, Note_on_c, 6, 58, 72
13, 33689, Note_on_c, 6, 58, 0
13, 33690, Note_on_c, 6, 57, 72
13, 33719, Note_on_c, 6, 57, 0
13, 33720, Note_on_c, 6, 58, 72
13, 33779, Note_on_c, 6, 58, 0
13, 33780, Note_on_c, 6, 62, 72
13, 33839, Note_on_c, 6, 62, 0
13, 33840, Note_on_c, 6, 55, 72
13, 33899, Note_on_c, 6, 55, 0
13, 33900, Note_on_c, 6, 58, 72
13, 33929, Note_on_c, 6, 58, 0
13, 33930, Note_on_c, 6, 57, 72
13, 33959, Note_on_c, 6, 57, 0
13, 33960, Note_on_c, 6, 58, 72
13, 34019, Note_on_c, 6, 58, 0
13, 34020, Note_on_c, 6, 67, 72
13, 34079, Note_on_c, 6, 67, 0
13, 34080, Note_on_c, 6, 57, 72
13, 34139, Note_on_c, 6, 57, 0
13, 34140, Note_on_c, 6, 62, 72
13, 34169, Note_on_c, 6, 62, 0
13, 34170, Note_on_c, 6, 61, 72
13, 34199, Note_on_c, 6, 61, 0
13, 34200, Note_on_c, 6, 62, 72
13, 34259, Note_on_c, 6, 62, 0
13, 34260, Note_on_c, 6, 66, 72
13, 34319, Note_on_c, 6, 66, 0
13, 34320, Note_on_c, 6, 69, 72
13, 34379, Note_on_c, 6, 69, 0
13, 34380, Note_on_c, 6, 62, 72
13, 34409, Note_on_c, 6, 62, 0
13, 34410, Note_on_c, 6, 61, 72
13, 34439, Note_on_c, 6, 61, 0
13, 34440, Note_on_c, 6, 62, 72
13, 34499, Note_on_c, 6, 62, 0
13, 34500, Note_on_c, 6, 65, 72
13, 34559, Note_on_c, 6, 65, 0
13, 34560, Note_on_c, 6, 67, 72
13, 34619, Note_on_c, 6, 67, 0
13, 34620, Note_on_c, 6, 60, 72
13, 34649, Note_on_c, 6, 60, 0
13, 34650, Note_on_c, 6, 59, 72
13, 34679, Note_on_c, 6, 59, 0
13, 34680, Note_on_c, 6, 60, 72
13, 34739, Note_on_c, 6, 60, 0
13, 34740, Note_on_c, 6, 60, 72
13, 34799, Note_on_c, 6, 60, 0
13, 34800, Note_on_c, 6, 51, 72
13, 34859, Note_on_c, 6, 51, 0
13, 34860, Note_on_c, 6, 63, 72
13, 34889, Note_on_c, 6, 63, 0
13, 34890, Note_on_c, 6, 62, 72
13, 34919, Note_on_c, 6, 62, 0
13, 34920, Note_on_c, 6, 63, 72
13, 34979, Note_on_c, 6, 63, 0
13, 34980, Note_on_c, 6, 60, 72
13, 35039, Note_on_c, 6, 60, 0
13, 35040, Note_on_c, 6, 62, 72
13, 35099, Note_on_c, 6, 62, 0
13, 35100, Note_on_c, 6, 62, 72
13, 35129, Note_on_c, 6, 62, 0
13, 35130, Note_on_c, 6, 66, 72
13, 35159, Note_on_c, 6, 66, 0
13, 35160, Note_on_c, 6, 67, 72
13, 35219, Note_on_c, 6, 67, 0
13, 35220, Note_on_c, 6, 63, 72
13, 35279, Note_on_c, 6, 63, 0
13, 35280, Note_on_c, 6, 62, 72
13, 35339, Note_on_c, 6, 62, 0
13, 35340, Note_on_c, 6, 62, 72
13, 35399, Note_on_c, 6, 62, 0
13, 35400, Note_on_c, 6, 62, 72
13, 35459, Note_on_c, 6, 62, 0
13, 35460, Note_on_c, 6, 62, 72
13, 35519, Note_on_c, 6, 62, 0
13, 35520, Note_on_c, 6, 62, 72
13, 35639, Note_on_c, 6, 62, 0
13, 35880, Note_on_c, 6, 59, 72
13, 35999, Note_on_c, 6, 59, 0
13, 36000, Note_on_c, 6, 60, 72
13, 36119, Note_on_c, 6, 60, 0
13, 36120, Note_on_c, 6, 59, 72
13, 36239, Note_on_c, 6, 59, 0
13, 36240, Note_on_c, 6, 60, 72
13, 36359, Note_on_c, 6, 60, 0
13, 36360, Note_on_c, 6, 62, 72
13, 36599, Note_on_c, 6, 62, 0
13, 36600, Note_on_c, 6, 60, 72
13, 36659, Note_on_c, 6, 60, 0
13, 36660, Note_on_c, 6, 59, 72
13, 36719, Note_on_c, 6, 59, 0
13, 36720, Note_on_c, 6, 60, 72
13, 36959, Note_on_c, 6, 60, 0
13, 36960, Note_on_c, 6, 59, 72
13, 37439, Note_on_c, 6, 59, 0
13, 37439, End_track
14, 0, Start_track
14, 0, Title_t, "Cello"
14, 0, MIDI_port, 0
14, 0, Program_c, 7, 48
14, 0, Control_c, 7, 7, 96
14, 0, Control_c, 7, 10, 96
14, 0, Control_c, 7, 11, 127
14, 60, Note_on_c, 7, 55, 48
14, 119, Note_on_c, 7, 55, 0
14, 120, Note_on_c, 7, 58, 48
14, 179, Note_on_c, 7, 58, 0
14, 180, Note_on_c, 7, 55, 48
14, 239, Note_on_c, 7, 55, 0
14, 300, Note_on_c, 7, 55, 48
14, 359, Note_on_c, 7, 55, 0
14, 360, Note_on_c, 7, 58, 48
14, 419, Note_on_c, 7, 58, 0
14, 420, Note_on_c, 7, 55, 48
14, 479, Note_on_c, 7, 55, 0
14, 540, Note_on_c, 7, 54, 48
14, 599, Note_on_c, 7, 54, 0
14, 600, Note_on_c, 7, 50, 48
14, 659, Note_on_c, 7, 50, 0
14, 660, Note_on_c, 7, 54, 48
14, 719, Note_on_c, 7, 54, 0
14, 780, Note_on_c, 7, 55, 48
14, 839, Note_on_c, 7, 55, 0
14, 840, Note_on_c, 7, 58, 48
14, 899, Note_on_c, 7, 58, 0
14, 900, Note_on_c, 7, 55, 72
14, 959, Note_on_c, 7, 55, 0
14, 960, Note_on_c, 7, 51, 72
14, 989, Note_on_c, 7, 51, 0
14, 990, Note_on_c, 7, 53, 72
14, 1019, Note_on_c, 7, 53, 0
14, 1020, Note_on_c, 7, 55, 72
14, 1049, Note_on_c, 7, 55, 0
14, 1050, Note_on_c, 7, 57, 72
14, 1079, Note_on_c, 7, 57, 0
14, 1080, Note_on_c, 7, 58, 72
14, 1109, Note_on_c, 7, 58, 0
14, 1110, Note_on_c, 7, 53, 72
14, 1139, Note_on_c, 7, 53, 0
14, 1140, Note_on_c, 7, 50, 72
14, 1169, Note_on_c, 7, 50, 0
14, 1170, Note_on_c, 7, 46, 72
14, 1199, Note_on_c, 7, 46, 0
14, 1200, Note_on_c, 7, 48, 72
14, 1229, Note_on_c, 7, 48, 0
14, 1230, Note_on_c, 7, 50, 72
14, 1259, Note_on_c, 7, 50, 0
14, 1260, Note_on_c, 7, 51, 72
14, 1289, Note_on_c, 7, 51, 0
14, 1290, Note_on_c, 7, 53, 72
14, 1319, Note_on_c, 7, 53, 0
14, 1320, Note_on_c, 7, 55, 72
14, 1349, Note_on_c, 7, 55, 0
14, 1350, Note_on_c, 7, 50, 72
14, 1379, Note_on_c, 7, 50, 0
14, 1380, Note_on_c, 7, 46, 72
14, 1409, Note_on_c, 7, 46, 0
14, 1410, Note_on_c, 7, 43, 72
14, 1439, Note_on_c, 7, 43, 0
14, 1440, Note_on_c, 7, 45, 48
14, 1499, Note_on_c, 7, 45, 0
14, 1500, Note_on_c, 7, 60, 48
14, 1529, Note_on_c, 7, 60, 0
14, 1530, Note_on_c, 7, 58, 48
14, 1559, Note_on_c, 7, 58, 0
14, 1560, Note_on_c, 7, 57, 48
14, 1619, Note_on_c, 7, 57, 0
14, 1620, Note_on_c, 7, 55, 48
14, 1679, Note_on_c, 7, 55, 0
14, 1680, Note_on_c, 7, 54, 48
14, 1859, Note_on_c, 7, 54, 0
14, 1860, Note_on_c, 7, 54, 48
14, 1919, Note_on_c, 7, 54, 0
14, 1920, Note_on_c, 7, 55, 48
14, 1979, Note_on_c, 7, 55, 0
14, 1980, Note_on_c, 7, 58, 48
14, 2039, Note_on_c, 7, 58, 0
14, 2040, Note_on_c, 7, 57, 48
14, 2099, Note_on_c, 7, 57, 0
14, 2100, Note_on_c, 7, 55, 48
14, 2159, Note_on_c, 7, 55, 0
14, 2160, Note_on_c, 7, 54, 48
14, 2339, Note_on_c, 7, 54, 0
14, 2340, Note_on_c, 7, 54, 48
14, 2399, Note_on_c, 7, 54, 0
14, 2400, Note_on_c, 7, 55, 48
14, 2459, Note_on_c, 7, 55, 0
14, 2460, Note_on_c, 7, 55, 48
14, 2519, Note_on_c, 7, 55, 0
14, 2520, Note_on_c, 7, 53, 48
14, 2579, Note_on_c, 7, 53, 0
14, 2580, Note_on_c, 7, 53, 48
14, 2639, Note_on_c, 7, 53, 0
14, 2640, Note_on_c, 7, 51, 48
14, 2699, Note_on_c, 7, 51, 0
14, 2700, Note_on_c, 7, 51, 48
14, 2759, Note_on_c, 7, 51, 0
14, 2760, Note_on_c, 7, 51, 48
14, 2819, Note_on_c, 7, 51, 0
14, 2820, Note_on_c, 7, 51, 48
14, 2879, Note_on_c, 7, 51, 0
14, 2880, Note_on_c, 7, 50, 48
14, 2939, Note_on_c, 7, 50, 0
14, 2940, Note_on_c, 7, 62, 72
14, 2999, Note_on_c, 7, 62, 0
14, 3000, Note_on_c, 7, 60, 72
14, 3059, Note_on_c, 7, 60, 0
14, 3060, Note_on_c, 7, 48, 72
14, 3119, Note_on_c, 7, 48, 0
14, 3120, Note_on_c, 7, 46, 72
14, 3239, Note_on_c, 7, 46, 0
14, 3360, Note_on_c, 7, 46, 48
14, 3419, Note_on_c, 7, 46, 0
14, 3420, Note_on_c, 7, 41, 48
14, 3479, Note_on_c, 7, 41, 0
14, 3480, Note_on_c, 7, 45, 48
14, 3539, Note_on_c, 7, 45, 0
14, 3540, Note_on_c, 7, 41, 48
14, 3599, Note_on_c, 7, 41, 0
14, 3600, Note_on_c, 7, 46, 48
14, 3659, Note_on_c, 7, 46, 0
14, 3660, Note_on_c, 7, 41, 48
14, 3719, Note_on_c, 7, 41, 0
14, 3720, Note_on_c, 7, 48, 48
14, 3779, Note_on_c, 7, 48, 0
14, 3780, Note_on_c, 7, 41, 48
14, 3839, Note_on_c, 7, 41, 0
14, 3840, Note_on_c, 7, 50, 48
14, 3899, Note_on_c, 7, 50, 0
14, 3900, Note_on_c, 7, 47, 72
14, 3929, Note_on_c, 7, 47, 0
14, 3960, Note_on_c, 7, 48, 72
14, 3989, Note_on_c, 7, 48, 0
14, 4020, Note_on_c, 7, 50, 72
14, 4049, Note_on_c, 7, 50, 0
14, 4080, Note_on_c, 7, 51, 72
14, 4199, Note_on_c, 7, 51, 0
14, 4320, Note_on_c, 7, 48, 48
14, 4380, Note_on_c, 7, 48, 0
14, 4380, Note_on_c, 7, 43, 48
14, 4440, Note_on_c, 7, 43, 0
14, 4440, Note_on_c, 7, 47, 48
14, 4500, Note_on_c, 7, 47, 0
14, 4500, Note_on_c, 7, 43, 48
14, 4560, Note_on_c, 7, 43, 0
14, 4560, Note_on_c, 7, 48, 48
14, 4620, Note_on_c, 7, 48, 0
14, 4620, Note_on_c, 7, 43, 48
14, 4680, Note_on_c, 7, 43, 0
14, 4680, Note_on_c, 7, 50, 48
14, 4740, Note_on_c, 7, 50, 0
14, 4740, Note_on_c, 7, 43, 48
14, 4800, Note_on_c, 7, 43, 0
14, 4800, Note_on_c, 7, 51, 48
14, 4920, Note_on_c, 7, 51, 0
14, 5040, Note_on_c, 7, 44, 48
14, 5100, Note_on_c, 7, 44, 0
14, 5100, Note_on_c, 7, 44, 48
14, 5160, Note_on_c, 7, 44, 0
14, 5160, Note_on_c, 7, 44, 48
14, 5220, Note_on_c, 7, 44, 0
14, 5220, Note_on_c, 7, 44, 48
14, 5280, Note_on_c, 7, 44, 0
14, 5280, Note_on_c, 7, 44, 48
14, 5340, Note_on_c, 7, 44, 0
14, 5340, Note_on_c, 7, 44, 48
14, 5400, Note_on_c, 7, 44, 0
14, 5400, Note_on_c, 7, 44, 48
14, 5460, Note_on_c, 7, 44, 0
14, 5460, Note_on_c, 7, 44, 48
14, 5520, Note_on_c, 7, 44, 0
14, 5520, Note_on_c, 7, 43, 48
14, 5580, Note_on_c, 7, 43, 0
14, 5580, Note_on_c, 7, 43, 48
14, 5640, Note_on_c, 7, 43, 0
14, 5640, Note_on_c, 7, 43, 48
14, 5700, Note_on_c, 7, 43, 0
14, 5700, Note_on_c, 7, 43, 48
14, 5760, Note_on_c, 7, 43, 0
14, 5760, Note_on_c, 7, 43, 48
14, 5820, Note_on_c, 7, 43, 0
14, 5820, Note_on_c, 7, 43, 48
14, 5880, Note_on_c, 7, 43, 0
14, 5880, Note_on_c, 7, 43, 48
14, 5940, Note_on_c, 7, 43, 0
14, 5940, Note_on_c, 7, 43, 48
14, 6000, Note_on_c, 7, 43, 0
14, 6000, Note_on_c, 7, 43, 48
14, 6060, Note_on_c, 7, 43, 0
14, 6060, Note_on_c, 7, 43, 48
14, 6120, Note_on_c, 7, 43, 0
14, 6120, Note_on_c, 7, 43, 48
14, 6180, Note_on_c, 7, 43, 0
14, 6180, Note_on_c, 7, 43, 48
14, 6240, Note_on_c, 7, 43, 0
14, 6240, Note_on_c, 7, 48, 72
14, 6300, Note_on_c, 7, 48, 0
14, 6300, Note_on_c, 7, 60, 72
14, 6360, Note_on_c, 7, 60, 0
14, 6360, Note_on_c, 7, 63, 72
14, 6420, Note_on_c, 7, 63, 0
14, 6420, Note_on_c, 7, 60, 72
14, 6480, Note_on_c, 7, 60, 0
14, 6540, Note_on_c, 7, 58, 72
14, 6600, Note_on_c, 7, 58, 0
14, 6600, Note_on_c, 7, 61, 72
14, 6660, Note_on_c, 7, 61, 0
14, 6660, Note_on_c, 7, 58, 72
14, 6720, Note_on_c, 7, 58, 0
14, 6780, Note_on_c, 7, 56, 48
14, 6840, Note_on_c, 7, 56, 0
14, 6840, Note_on_c, 7, 60, 48
14, 6900, Note_on_c, 7, 60, 0
14, 6900, Note_on_c, 7, 56, 48
14, 6960, Note_on_c, 7, 56, 0
14, 7020, Note_on_c, 7, 53, 48
14, 7080, Note_on_c, 7, 53, 0
14, 7080, Note_on_c, 7, 56, 48
14, 7140, Note_on_c, 7, 56, 0
14, 7140, Note_on_c, 7, 53, 48
14, 7200, Note_on_c, 7, 53, 0
14, 7260, Note_on_c, 7, 51, 48
14, 7320, Note_on_c, 7, 51, 0
14, 7320, Note_on_c, 7, 55, 48
14, 7380, Note_on_c, 7, 55, 0
14, 7380, Note_on_c, 7, 51, 48
14, 7440, Note_on_c, 7, 51, 0
14, 7500, Note_on_c, 7, 56, 48
14, 7560, Note_on_c, 7, 56, 0
14, 7560, Note_on_c, 7, 60, 48
14, 7620, Note_on_c, 7, 60, 0
14, 7620, Note_on_c, 7, 56, 72
14, 7680, Note_on_c, 7, 56, 0
14, 7680, Note_on_c, 7, 42, 72
14, 7710, Note_on_c, 7, 42, 0
14, 7710, Note_on_c, 7, 54, 72
14, 7740, Note_on_c, 7, 54, 0
14, 7740, Note_on_c, 7, 54, 72
14, 7770, Note_on_c, 7, 54, 0
14, 7770, Note_on_c, 7, 54, 72
14, 7800, Note_on_c, 7, 54, 0
14, 7800, Note_on_c, 7, 41, 72
14, 7830, Note_on_c, 7, 41, 0
14, 7830, Note_on_c, 7, 53, 72
14, 7860, Note_on_c, 7, 53, 0
14, 7860, Note_on_c, 7, 53, 72
14, 7890, Note_on_c, 7, 53, 0
14, 7890, Note_on_c, 7, 53, 72
14, 7920, Note_on_c, 7, 53, 0
14, 7920, Note_on_c, 7, 40, 72
14, 7950, Note_on_c, 7, 40, 0
14, 7950, Note_on_c, 7, 52, 72
14, 7980, Note_on_c, 7, 52, 0
14, 7980, Note_on_c, 7, 52, 72
14, 8010, Note_on_c, 7, 52, 0
14, 8010, Note_on_c, 7, 52, 72
14, 8040, Note_on_c, 7, 52, 0
14, 8040, Note_on_c, 7, 53, 72
14, 8100, Note_on_c, 7, 53, 0
14, 8220, Note_on_c, 7, 58, 48
14, 8280, Note_on_c, 7, 58, 0
14, 8280, Note_on_c, 7, 61, 48
14, 8340, Note_on_c, 7, 61, 0
14, 8340, Note_on_c, 7, 58, 48
14, 8400, Note_on_c, 7, 58, 0
14, 8460, Note_on_c, 7, 54, 48
14, 8520, Note_on_c, 7, 54, 0
14, 8520, Note_on_c, 7, 58, 48
14, 8580, Note_on_c, 7, 58, 0
14, 8580, Note_on_c, 7, 54, 48
14, 8640, Note_on_c, 7, 54, 0
14, 8700, Note_on_c, 7, 53, 48
14, 8760, Note_on_c, 7, 53, 0
14, 8760, Note_on_c, 7, 57, 48
14, 8820, Note_on_c, 7, 57, 0
14, 8820, Note_on_c, 7, 53, 48
14, 8880, Note_on_c, 7, 53, 0
14, 8940, Note_on_c, 7, 58, 48
14, 9000, Note_on_c, 7, 58, 0
14, 9000, Note_on_c, 7, 62, 48
14, 9060, Note_on_c, 7, 62, 0
14, 9060, Note_on_c, 7, 58, 72
14, 9120, Note_on_c, 7, 58, 0
14, 9120, Note_on_c, 7, 44, 72
14, 9150, Note_on_c, 7, 44, 0
14, 9150, Note_on_c, 7, 56, 72
14, 9180, Note_on_c, 7, 56, 0
14, 9180, Note_on_c, 7, 56, 72
14, 9210, Note_on_c, 7, 56, 0
14, 9210, Note_on_c, 7, 56, 72
14, 9240, Note_on_c, 7, 56, 0
14, 9240, Note_on_c, 7, 43, 72
14, 9270, Note_on_c, 7, 43, 0
14, 9270, Note_on_c, 7, 55, 72
14, 9300, Note_on_c, 7, 55, 0
14, 9300, Note_on_c, 7, 55, 72
14, 9330, Note_on_c, 7, 55, 0
14, 9330, Note_on_c, 7, 55, 72
14, 9360, Note_on_c, 7, 55, 0
14, 9360, Note_on_c, 7, 42, 72
14, 9390, Note_on_c, 7, 42, 0
14, 9390, Note_on_c, 7, 54, 72
14, 9420, Note_on_c, 7, 54, 0
14, 9420, Note_on_c, 7, 54, 72
14, 9450, Note_on_c, 7, 54, 0
14, 9450, Note_on_c, 7, 54, 72
14, 9480, Note_on_c, 7, 54, 0
14, 9480, Note_on_c, 7, 55, 72
14, 9540, Note_on_c, 7, 55, 0
14, 9600, Note_on_c, 7, 43, 72
14, 9629, Note_on_c, 7, 43, 0
14, 9630, Note_on_c, 7, 47, 72
14, 9659, Note_on_c, 7, 47, 0
14, 9660, Note_on_c, 7, 50, 72
14, 9689, Note_on_c, 7, 50, 0
14, 9690, Note_on_c, 7, 55, 72
14, 9719, Note_on_c, 7, 55, 0
14, 9720, Note_on_c, 7, 51, 72
14, 9749, Note_on_c, 7, 51, 0
14, 9750, Note_on_c, 7, 55, 72
14, 9779, Note_on_c, 7, 55, 0
14, 9780, Note_on_c, 7, 48, 72
14, 9809, Note_on_c, 7, 48, 0
14, 9810, Note_on_c, 7, 51, 72
14, 9839, Note_on_c, 7, 51, 0
14, 9840, Note_on_c, 7, 53, 72
14, 9869, Note_on_c, 7, 53, 0
14, 9870, Note_on_c, 7, 56, 72
14, 9899, Note_on_c, 7, 56, 0
14, 9900, Note_on_c, 7, 51, 72
14, 9929, Note_on_c, 7, 51, 0
14, 9930, Note_on_c, 7, 60, 72
14, 9959, Note_on_c, 7, 60, 0
14, 9960, Note_on_c, 7, 50, 72
14, 9989, Note_on_c, 7, 50, 0
14, 9990, Note_on_c, 7, 53, 72
14, 10019, Note_on_c, 7, 53, 0
14, 10020, Note_on_c, 7, 46, 72
14, 10049, Note_on_c, 7, 46, 0
14, 10050, Note_on_c, 7, 50, 72
14, 10079, Note_on_c, 7, 50, 0
14, 10080, Note_on_c, 7, 51, 72
14, 10109, Note_on_c, 7, 51, 0
14, 10110, Note_on_c, 7, 55, 72
14, 10139, Note_on_c, 7, 55, 0
14, 10140, Note_on_c, 7, 50, 72
14, 10169, Note_on_c, 7, 50, 0
14, 10170, Note_on_c, 7, 58, 72
14, 10199, Note_on_c, 7, 58, 0
14, 10200, Note_on_c, 7, 48, 72
14, 10229, Note_on_c, 7, 48, 0
14, 10230, Note_on_c, 7, 51, 72
14, 10259, Note_on_c, 7, 51, 0
14, 10260, Note_on_c, 7, 45, 72
14, 10289, Note_on_c, 7, 45, 0
14, 10290, Note_on_c, 7, 48, 72
14, 10319, Note_on_c, 7, 48, 0
14, 10320, Note_on_c, 7, 50, 72
14, 10349, Note_on_c, 7, 50, 0
14, 10350, Note_on_c, 7, 53, 72
14, 10379, Note_on_c, 7, 53, 0
14, 10380, Note_on_c, 7, 48, 72
14, 10409, Note_on_c, 7, 48, 0
14, 10410, Note_on_c, 7, 56, 72
14, 10439, Note_on_c, 7, 56, 0
14, 10440, Note_on_c, 7, 47, 72
14, 10469, Note_on_c, 7, 47, 0
14, 10470, Note_on_c, 7, 50, 72
14, 10499, Note_on_c, 7, 50, 0
14, 10500, Note_on_c, 7, 43, 72
14, 10529, Note_on_c, 7, 43, 0
14, 10530, Note_on_c, 7, 47, 72
14, 10559, Note_on_c, 7, 47, 0
14, 10560, Note_on_c, 7, 48, 72
14, 10589, Note_on_c, 7, 48, 0
14, 10590, Note_on_c, 7, 51, 72
14, 10619, Note_on_c, 7, 51, 0
14, 10620, Note_on_c, 7, 55, 72
14, 10649, Note_on_c, 7, 55, 0
14, 10650, Note_on_c, 7, 53, 72
14, 10679, Note_on_c, 7, 53, 0
14, 10680, Note_on_c, 7, 52, 72
14, 10709, Note_on_c, 7, 52, 0
14, 10710, Note_on_c, 7, 55, 72
14, 10739, Note_on_c, 7, 55, 0
14, 10740, Note_on_c, 7, 48, 72
14, 10769, Note_on_c, 7, 48, 0
14, 10770, Note_on_c, 7, 52, 72
14, 10799, Note_on_c, 7, 52, 0
14, 10800, Note_on_c, 7, 53, 72
14, 10829, Note_on_c, 7, 53, 0
14, 10830, Note_on_c, 7, 57, 72
14, 10859, Note_on_c, 7, 57, 0
14, 10860, Note_on_c, 7, 50, 72
14, 10889, Note_on_c, 7, 50, 0
14, 10890, Note_on_c, 7, 53, 72
14, 10919, Note_on_c, 7, 53, 0
14, 10920, Note_on_c, 7, 55, 72
14, 10949, Note_on_c, 7, 55, 0
14, 10950, Note_on_c, 7, 58, 72
14, 10979, Note_on_c, 7, 58, 0
14, 10980, Note_on_c, 7, 53, 72
14, 11009, Note_on_c, 7, 53, 0
14, 11010, Note_on_c, 7, 62, 72
14, 11039, Note_on_c, 7, 62, 0
14, 11040, Note_on_c, 7, 52, 72
14, 11069, Note_on_c, 7, 52, 0
14, 11070, Note_on_c, 7, 55, 72
14, 11099, Note_on_c, 7, 55, 0
14, 11100, Note_on_c, 7, 48, 72
14, 11129, Note_on_c, 7, 48, 0
14, 11130, Note_on_c, 7, 52, 72
14, 11159, Note_on_c, 7, 52, 0
14, 11160, Note_on_c, 7, 53, 72
14, 11189, Note_on_c, 7, 53, 0
14, 11190, Note_on_c, 7, 57, 72
14, 11219, Note_on_c, 7, 57, 0
14, 11220, Note_on_c, 7, 52, 72
14, 11249, Note_on_c, 7, 52, 0
14, 11250, Note_on_c, 7, 60, 72
14, 11279, Note_on_c, 7, 60, 0
14, 11280, Note_on_c, 7, 50, 72
14, 11309, Note_on_c, 7, 50, 0
14, 11310, Note_on_c, 7, 53, 72
14, 11339, Note_on_c, 7, 53, 0
14, 11340, Note_on_c, 7, 46, 72
14, 11369, Note_on_c, 7, 46, 0
14, 11370, Note_on_c, 7, 50, 72
14, 11399, Note_on_c, 7, 50, 0
14, 11400, Note_on_c, 7, 51, 72
14, 11429, Note_on_c, 7, 51, 0
14, 11430, Note_on_c, 7, 55, 72
14, 11459, Note_on_c, 7, 55, 0
14, 11460, Note_on_c, 7, 48, 72
14, 11489, Note_on_c, 7, 48, 0
14, 11490, Note_on_c, 7, 51, 72
14, 11519, Note_on_c, 7, 51, 0
14, 11520, Note_on_c, 7, 53, 72
14, 11549, Note_on_c, 7, 53, 0
14, 11550, Note_on_c, 7, 57, 72
14, 11579, Note_on_c, 7, 57, 0
14, 11580, Note_on_c, 7, 62, 72
14, 11609, Note_on_c, 7, 62, 0
14, 11610, Note_on_c, 7, 60, 72
14, 11639, Note_on_c, 7, 60, 0
14, 11640, Note_on_c, 7, 58, 72
14, 11669, Note_on_c, 7, 58, 0
14, 11670, Note_on_c, 7, 62, 72
14, 11699, Note_on_c, 7, 62, 0
14, 11700, Note_on_c, 7, 57, 72
14, 11729, Note_on_c, 7, 57, 0
14, 11730, Note_on_c, 7, 65, 72
14, 11759, Note_on_c, 7, 65, 0
14, 11760, Note_on_c, 7, 55, 72
14, 11789, Note_on_c, 7, 55, 0
14, 11790, Note_on_c, 7, 58, 72
14, 11819, Note_on_c, 7, 58, 0
14, 11820, Note_on_c, 7, 53, 72
14, 11849, Note_on_c, 7, 53, 0
14, 11850, Note_on_c, 7, 62, 72
14, 11879, Note_on_c, 7, 62, 0
14, 11880, Note_on_c, 7, 52, 72
14, 11909, Note_on_c, 7, 52, 0
14, 11910, Note_on_c, 7, 55, 72
14, 11939, Note_on_c, 7, 55, 0
14, 11940, Note_on_c, 7, 50, 72
14, 11969, Note_on_c, 7, 50, 0
14, 11970, Note_on_c, 7, 58, 72
14, 11999, Note_on_c, 7, 58, 0
14, 12000, Note_on_c, 7, 49, 72
14, 12029, Note_on_c, 7, 49, 0
14, 12030, Note_on_c, 7, 52, 72
14, 12059, Note_on_c, 7, 52, 0
14, 12060, Note_on_c, 7, 45, 72
14, 12089, Note_on_c, 7, 45, 0
14, 12090, Note_on_c, 7, 49, 72
14, 12119, Note_on_c, 7, 49, 0
14, 12120, Note_on_c, 7, 50, 72
14, 12149, Note_on_c, 7, 50, 0
14, 12150, Note_on_c, 7, 53, 72
14, 12179, Note_on_c, 7, 53, 0
14, 12180, Note_on_c, 7, 48, 72
14, 12209, Note_on_c, 7, 48, 0
14, 12210, Note_on_c, 7, 57, 72
14, 12239, Note_on_c, 7, 57, 0
14, 12240, Note_on_c, 7, 47, 72
14, 12269, Note_on_c, 7, 47, 0
14, 12270, Note_on_c, 7, 50, 72
14, 12299, Note_on_c, 7, 50, 0
14, 12300, Note_on_c, 7, 43, 72
14, 12329, Note_on_c, 7, 43, 0
14, 12330, Note_on_c, 7, 47, 72
14, 12359, Note_on_c, 7, 47, 0
14, 12360, Note_on_c, 7, 49, 72
14, 12389, Note_on_c, 7, 49, 0
14, 12390, Note_on_c, 7, 52, 72
14, 12419, Note_on_c, 7, 52, 0
14, 12420, Note_on_c, 7, 45, 72
14, 12449, Note_on_c, 7, 45, 0
14, 12450, Note_on_c, 7, 49, 72
14, 12479, Note_on_c, 7, 49, 0
14, 12480, Note_on_c, 7, 50, 72
14, 12509, Note_on_c, 7, 50, 0
14, 12510, Note_on_c, 7, 53, 72
14, 12539, Note_on_c, 7, 53, 0
14, 12540, Note_on_c, 7, 57, 72
14, 12569, Note_on_c, 7, 57, 0
14, 12570, Note_on_c, 7, 61, 72
14, 12599, Note_on_c, 7, 61, 0
14, 12600, Note_on_c, 7, 62, 72
14, 12629, Note_on_c, 7, 62, 0
14, 12630, Note_on_c, 7, 57, 72
14, 12659, Note_on_c, 7, 57, 0
14, 12660, Note_on_c, 7, 53, 72
14, 12689, Note_on_c, 7, 53, 0
14, 12690, Note_on_c, 7, 50, 72
14, 12719, Note_on_c, 7, 50, 0
14, 12720, Note_on_c, 7, 51, 72
14, 12749, Note_on_c, 7, 51, 0
14, 12750, Note_on_c, 7, 55, 72
14, 12779, Note_on_c, 7, 55, 0
14, 12780, Note_on_c, 7, 58, 72
14, 12809, Note_on_c, 7, 58, 0
14, 12810, Note_on_c, 7, 62, 72
14, 12839, Note_on_c, 7, 62, 0
14, 12840, Note_on_c, 7, 60, 72
14, 12869, Note_on_c, 7, 60, 0
14, 12870, Note_on_c, 7, 55, 72
14, 12899, Note_on_c, 7, 55, 0
14, 12900, Note_on_c, 7, 51, 72
14, 12929, Note_on_c, 7, 51, 0
14, 12930, Note_on_c, 7, 48, 72
14, 12959, Note_on_c, 7, 48, 0
14, 12960, Note_on_c, 7, 50, 72
14, 12989, Note_on_c, 7, 50, 0
14, 12990, Note_on_c, 7, 53, 72
14, 13019, Note_on_c, 7, 53, 0
14, 13020, Note_on_c, 7, 57, 72
14, 13049, Note_on_c, 7, 57, 0
14, 13050, Note_on_c, 7, 60, 72
14, 13079, Note_on_c, 7, 60, 0
14, 13080, Note_on_c, 7, 58, 72
14, 13109, Note_on_c, 7, 58, 0
14, 13110, Note_on_c, 7, 53, 72
14, 13139, Note_on_c, 7, 53, 0
14, 13140, Note_on_c, 7, 50, 72
14, 13169, Note_on_c, 7, 50, 0
14, 13170, Note_on_c, 7, 46, 72
14, 13199, Note_on_c, 7, 46, 0
14, 13200, Note_on_c, 7, 48, 72
14, 13229, Note_on_c, 7, 48, 0
14, 13230, Note_on_c, 7, 51, 72
14, 13259, Note_on_c, 7, 51, 0
14, 13260, Note_on_c, 7, 55, 72
14, 13289, Note_on_c, 7, 55, 0
14, 13290, Note_on_c, 7, 58, 72
14, 13319, Note_on_c, 7, 58, 0
14, 13320, Note_on_c, 7, 57, 72
14, 13349, Note_on_c, 7, 57, 0
14, 13350, Note_on_c, 7, 54, 72
14, 13379, Note_on_c, 7, 54, 0
14, 13380, Note_on_c, 7, 51, 72
14, 13409, Note_on_c, 7, 51, 0
14, 13410, Note_on_c, 7, 48, 72
14, 13439, Note_on_c, 7, 48, 0
14, 13440, Note_on_c, 7, 46, 72
14, 13469, Note_on_c, 7, 46, 0
14, 13470, Note_on_c, 7, 43, 72
14, 13499, Note_on_c, 7, 43, 0
14, 13500, Note_on_c, 7, 46, 72
14, 13529, Note_on_c, 7, 46, 0
14, 13530, Note_on_c, 7, 48, 72
14, 13559, Note_on_c, 7, 48, 0
14, 13560, Note_on_c, 7, 50, 72
14, 13589, Note_on_c, 7, 50, 0
14, 13590, Note_on_c, 7, 52, 72
14, 13619, Note_on_c, 7, 52, 0
14, 13620, Note_on_c, 7, 54, 72
14, 13649, Note_on_c, 7, 54, 0
14, 13650, Note_on_c, 7, 50, 72
14, 13679, Note_on_c, 7, 50, 0
14, 13680, Note_on_c, 7, 55, 72
14, 13709, Note_on_c, 7, 55, 0
14, 13710, Note_on_c, 7, 57, 72
14, 13739, Note_on_c, 7, 57, 0
14, 13740, Note_on_c, 7, 58, 72
14, 13769, Note_on_c, 7, 58, 0
14, 13770, Note_on_c, 7, 60, 72
14, 13799, Note_on_c, 7, 60, 0
14, 13800, Note_on_c, 7, 62, 72
14, 13829, Note_on_c, 7, 62, 0
14, 13830, Note_on_c, 7, 64, 72
14, 13859, Note_on_c, 7, 64, 0
14, 13860, Note_on_c, 7, 66, 72
14, 13889, Note_on_c, 7, 66, 0
14, 13890, Note_on_c, 7, 62, 72
14, 13919, Note_on_c, 7, 62, 0
14, 13920, Note_on_c, 7, 67, 72
14, 13949, Note_on_c, 7, 67, 0
14, 13950, Note_on_c, 7, 62, 72
14, 13979, Note_on_c, 7, 62, 0
14, 13980, Note_on_c, 7, 58, 72
14, 14009, Note_on_c, 7, 58, 0
14, 14010, Note_on_c, 7, 55, 72
14, 14039, Note_on_c, 7, 55, 0
14, 14040, Note_on_c, 7, 62, 72
14, 14099, Note_on_c, 7, 62, 0
14, 14100, Note_on_c, 7, 50, 72
14, 14159, Note_on_c, 7, 50, 0
14, 14160, Note_on_c, 7, 50, 48
14, 14219, Note_on_c, 7, 50, 0
14, 14220, Note_on_c, 7, 50, 48
14, 14279, Note_on_c, 7, 50, 0
14, 14280, Note_on_c, 7, 50, 48
14, 14339, Note_on_c, 7, 50, 0
14, 14340, Note_on_c, 7, 50, 48
14, 14399, Note_on_c, 7, 50, 0
14, 14400, Note_on_c, 7, 50, 48
14, 14459, Note_on_c, 7, 50, 0
14, 14460, Note_on_c, 7, 50, 48
14, 14519, Note_on_c, 7, 50, 0
14, 14520, Note_on_c, 7, 50, 48
14, 14579, Note_on_c, 7, 50, 0
14, 14580, Note_on_c, 7, 50, 48
14, 14639, Note_on_c, 7, 50, 0
14, 14640, Note_on_c, 7, 48, 48
14, 14699, Note_on_c, 7, 48, 0
14, 14700, Note_on_c, 7, 48, 48
14, 14759, Note_on_c, 7, 48, 0
14, 14760, Note_on_c, 7, 48, 48
14, 14819, Note_on_c, 7, 48, 0
14, 14820, Note_on_c, 7, 48, 48
14, 14879, Note_on_c, 7, 48, 0
14, 14880, Note_on_c, 7, 50, 48
14, 14939, Note_on_c, 7, 50, 0
14, 14940, Note_on_c, 7, 48, 48
14, 14999, Note_on_c, 7, 48, 0
14, 15000, Note_on_c, 7, 46, 48
14, 15059, Note_on_c, 7, 46, 0
14, 15060, Note_on_c, 7, 45, 48
14, 15119, Note_on_c, 7, 45, 0
14, 15120, Note_on_c, 7, 43, 48
14, 15179, Note_on_c, 7, 43, 0
14, 15180, Note_on_c, 7, 55, 48
14, 15239, Note_on_c, 7, 55, 0
14, 15240, Note_on_c, 7, 58, 48
14, 15299, Note_on_c, 7, 58, 0
14, 15300, Note_on_c, 7, 55, 48
14, 15359, Note_on_c, 7, 55, 0
14, 15420, Note_on_c, 7, 55, 48
14, 15479, Note_on_c, 7, 55, 0
14, 15480, Note_on_c, 7, 58, 48
14, 15539, Note_on_c, 7, 58, 0
14, 15540, Note_on_c, 7, 55, 48
14, 15599, Note_on_c, 7, 55, 0
14, 15660, Note_on_c, 7, 54, 48
14, 15719, Note_on_c, 7, 54, 0
14, 15720, Note_on_c, 7, 50, 48
14, 15779, Note_on_c, 7, 50, 0
14, 15780, Note_on_c, 7, 54, 48
14, 15839, Note_on_c, 7, 54, 0
14, 15900, Note_on_c, 7, 55, 48
14, 15959, Note_on_c, 7, 55, 0
14, 15960, Note_on_c, 7, 43, 48
14, 16019, Note_on_c, 7, 43, 0
14, 16020, Note_on_c, 7, 55, 48
14, 16079, Note_on_c, 7, 55, 0
14, 16140, Note_on_c, 7, 48, 48
14, 16199, Note_on_c, 7, 48, 0
14, 16200, Note_on_c, 7, 51, 48
14, 16259, Note_on_c, 7, 51, 0
14, 16260, Note_on_c, 7, 48, 48
14, 16319, Note_on_c, 7, 48, 0
14, 16380, Note_on_c, 7, 60, 48
14, 16439, Note_on_c, 7, 60, 0
14, 16440, Note_on_c, 7, 56, 48
14, 16499, Note_on_c, 7, 56, 0
14, 16500, Note_on_c, 7, 60, 48
14, 16559, Note_on_c, 7, 60, 0
14, 16620, Note_on_c, 7, 55, 48
14, 16679, Note_on_c, 7, 55, 0
14, 16680, Note_on_c, 7, 59, 48
14, 16739, Note_on_c, 7, 59, 0
14, 16740, Note_on_c, 7, 55, 48
14, 16799, Note_on_c, 7, 55, 0
14, 16860, Note_on_c, 7, 60, 48
14, 16919, Note_on_c, 7, 60, 0
14, 16920, Note_on_c, 7, 48, 48
14, 16979, Note_on_c, 7, 48, 0
14, 16980, Note_on_c, 7, 60, 48
14, 17039, Note_on_c, 7, 60, 0
14, 17100, Note_on_c, 7, 53, 48
14, 17159, Note_on_c, 7, 53, 0
14, 17160, Note_on_c, 7, 56, 48
14, 17219, Note_on_c, 7, 56, 0
14, 17220, Note_on_c, 7, 53, 48
14, 17279, Note_on_c, 7, 53, 0
14, 17340, Note_on_c, 7, 53, 48
14, 17399, Note_on_c, 7, 53, 0
14, 17400, Note_on_c, 7, 47, 48
14, 17459, Note_on_c, 7, 47, 0
14, 17460, Note_on_c, 7, 53, 48
14, 17519, Note_on_c, 7, 53, 0
14, 17580, Note_on_c, 7, 48, 48
14, 17639, Note_on_c, 7, 48, 0
14, 17640, Note_on_c, 7, 52, 48
14, 17699, Note_on_c, 7, 52, 0
14, 17700, Note_on_c, 7, 48, 48
14, 17759, Note_on_c, 7, 48, 0
14, 17820, Note_on_c, 7, 53, 48
14, 17879, Note_on_c, 7, 53, 0
14, 17880, Note_on_c, 7, 41, 48
14, 17939, Note_on_c, 7, 41, 0
14, 17940, Note_on_c, 7, 53, 48
14, 17999, Note_on_c, 7, 53, 0
14, 18060, Note_on_c, 7, 46, 48
14, 18119, Note_on_c, 7, 46, 0
14, 18120, Note_on_c, 7, 50, 48
14, 18179, Note_on_c, 7, 50, 0
14, 18180, Note_on_c, 7, 46, 48
14, 18239, Note_on_c, 7, 46, 0
14, 18300, Note_on_c, 7, 46, 48
14, 18359, Note_on_c, 7, 46, 0
14, 18360, Note_on_c, 7, 43, 48
14, 18419, Note_on_c, 7, 43, 0
14, 18420, Note_on_c, 7, 46, 48
14, 18479, Note_on_c, 7, 46, 0
14, 18540, Note_on_c, 7, 53, 48
14, 18599, Note_on_c, 7, 53, 0
14, 18600, Note_on_c, 7, 41, 48
14, 18659, Note_on_c, 7, 41, 0
14, 18660, Note_on_c, 7, 53, 48
14, 18719, Note_on_c, 7, 53, 0
14, 18780, Note_on_c, 7, 50, 48
14, 18839, Note_on_c, 7, 50, 0
14, 18840, Note_on_c, 7, 46, 48
14, 18899, Note_on_c, 7, 46, 0
14, 18900, Note_on_c, 7, 50, 48
14, 18959, Note_on_c, 7, 50, 0
14, 18960, Note_on_c, 7, 51, 48
14, 19019, Note_on_c, 7, 51, 0
14, 19020, Note_on_c, 7, 60, 48
14, 19079, Note_on_c, 7, 60, 0
14, 19080, Note_on_c, 7, 57, 48
14, 19139, Note_on_c, 7, 57, 0
14, 19140, Note_on_c, 7, 55, 48
14, 19199, Note_on_c, 7, 55, 0
14, 19200, Note_on_c, 7, 54, 48
14, 19379, Note_on_c, 7, 54, 0
14, 19380, Note_on_c, 7, 54, 48
14, 19439, Note_on_c, 7, 54, 0
14, 19440, Note_on_c, 7, 55, 48
14, 19499, Note_on_c, 7, 55, 0
14, 19500, Note_on_c, 7, 58, 48
14, 19559, Note_on_c, 7, 58, 0
14, 19560, Note_on_c, 7, 57, 48
14, 19619, Note_on_c, 7, 57, 0
14, 19620, Note_on_c, 7, 55, 48
14, 19679, Note_on_c, 7, 55, 0
14, 19680, Note_on_c, 7, 54, 48
14, 19859, Note_on_c, 7, 54, 0
14, 19860, Note_on_c, 7, 54, 48
14, 19919, Note_on_c, 7, 54, 0
14, 19920, Note_on_c, 7, 55, 48
14, 19979, Note_on_c, 7, 55, 0
14, 19980, Note_on_c, 7, 55, 48
14, 20039, Note_on_c, 7, 55, 0
14, 20040, Note_on_c, 7, 53, 48
14, 20099, Note_on_c, 7, 53, 0
14, 20100, Note_on_c, 7, 53, 48
14, 20159, Note_on_c, 7, 53, 0
14, 20160, Note_on_c, 7, 51, 48
14, 20219, Note_on_c, 7, 51, 0
14, 20220, Note_on_c, 7, 51, 48
14, 20279, Note_on_c, 7, 51, 0
14, 20280, Note_on_c, 7, 51, 48
14, 20339, Note_on_c, 7, 51, 0
14, 20340, Note_on_c, 7, 51, 48
14, 20399, Note_on_c, 7, 51, 0
14, 20400, Note_on_c, 7, 50, 48
14, 20459, Note_on_c, 7, 50, 0
14, 20460, Note_on_c, 7, 48, 72
14, 20489, Note_on_c, 7, 48, 0
14, 20520, Note_on_c, 7, 46, 72
14, 20549, Note_on_c, 7, 46, 0
14, 20580, Note_on_c, 7, 45, 72
14, 20609, Note_on_c, 7, 45, 0
14, 23340, Note_on_c, 7, 55, 72
14, 23369, Note_on_c, 7, 55, 0
14, 23370, Note_on_c, 7, 54, 72
14, 23399, Note_on_c, 7, 54, 0
14, 23400, Note_on_c, 7, 55, 72
14, 23459, Note_on_c, 7, 55, 0
14, 23460, Note_on_c, 7, 58, 72
14, 23519, Note_on_c, 7, 58, 0
14, 23520, Note_on_c, 7, 52, 72
14, 23579, Note_on_c, 7, 52, 0
14, 23580, Note_on_c, 7, 64, 72
14, 23609, Note_on_c, 7, 64, 0
14, 23610, Note_on_c, 7, 62, 72
14, 23639, Note_on_c, 7, 62, 0
14, 23640, Note_on_c, 7, 64, 72
14, 23699, Note_on_c, 7, 64, 0
14, 23700, Note_on_c, 7, 67, 72
14, 23759, Note_on_c, 7, 67, 0
14, 23760, Note_on_c, 7, 45, 72
14, 23819, Note_on_c, 7, 45, 0
14, 23820, Note_on_c, 7, 57, 72
14, 23849, Note_on_c, 7, 57, 0
14, 23850, Note_on_c, 7, 56, 72
14, 23879, Note_on_c, 7, 56, 0
14, 23880, Note_on_c, 7, 57, 72
14, 23939, Note_on_c, 7, 57, 0
14, 23940, Note_on_c, 7, 61, 72
14, 23999, Note_on_c, 7, 61, 0
14, 24000, Note_on_c, 7, 50, 72
14, 24059, Note_on_c, 7, 50, 0
14, 24060, Note_on_c, 7, 62, 72
14, 24089, Note_on_c, 7, 62, 0
14, 24090, Note_on_c, 7, 61, 72
14, 24119, Note_on_c, 7, 61, 0
14, 24120, Note_on_c, 7, 62, 72
14, 24179, Note_on_c, 7, 62, 0
14, 24180, Note_on_c, 7, 66, 72
14, 24239, Note_on_c, 7, 66, 0
14, 24240, Note_on_c, 7, 43, 72
14, 24299, Note_on_c, 7, 43, 0
14, 24300, Note_on_c, 7, 55, 72
14, 24329, Note_on_c, 7, 55, 0
14, 24330, Note_on_c, 7, 54, 72
14, 24359, Note_on_c, 7, 54, 0
14, 24360, Note_on_c, 7, 55, 72
14, 24419, Note_on_c, 7, 55, 0
14, 24420, Note_on_c, 7, 59, 72
14, 24479, Note_on_c, 7, 59, 0
14, 24480, Note_on_c, 7, 48, 72
14, 24539, Note_on_c, 7, 48, 0
14, 24540, Note_on_c, 7, 60, 72
14, 24569, Note_on_c, 7, 60, 0
14, 24570, Note_on_c, 7, 59, 72
14, 24599, Note_on_c, 7, 59, 0
14, 24600, Note_on_c, 7, 60, 72
14, 24659, Note_on_c, 7, 60, 0
14, 24660, Note_on_c, 7, 64, 72
14, 24719, Note_on_c, 7, 64, 0
14, 24720, Note_on_c, 7, 41, 72
14, 24779, Note_on_c, 7, 41, 0
14, 24780, Note_on_c, 7, 53, 72
14, 24809, Note_on_c, 7, 53, 0
14, 24810, Note_on_c, 7, 52, 72
14, 24839, Note_on_c, 7, 52, 0
14, 24840, Note_on_c, 7, 53, 72
14, 24899, Note_on_c, 7, 53, 0
14, 24900, Note_on_c, 7, 57, 72
14, 24959, Note_on_c, 7, 57, 0
14, 28800, Note_on_c, 7, 50, 72
14, 28859, Note_on_c, 7, 50, 0
14, 28860, Note_on_c, 7, 62, 72
14, 28889, Note_on_c, 7, 62, 0
14, 28890, Note_on_c, 7, 61, 72
14, 28919, Note_on_c, 7, 61, 0
14, 28920, Note_on_c, 7, 62, 72
14, 28979, Note_on_c, 7, 62, 0
14, 28980, Note_on_c, 7, 66, 72
14, 29039, Note_on_c, 7, 66, 0
14, 29040, Note_on_c, 7, 50, 72
14, 29099, Note_on_c, 7, 50, 0
14, 29100, Note_on_c, 7, 58, 72
14, 29129, Note_on_c, 7, 58, 0
14, 29130, Note_on_c, 7, 57, 72
14, 29159, Note_on_c, 7, 57, 0
14, 29160, Note_on_c, 7, 58, 72
14, 29219, Note_on_c, 7, 58, 0
14, 29220, Note_on_c, 7, 67, 72
14, 29279, Note_on_c, 7, 67, 0
14, 29280, Note_on_c, 7, 50, 72
14, 29339, Note_on_c, 7, 50, 0
14, 29340, Note_on_c, 7, 60, 72
14, 29369, Note_on_c, 7, 60, 0
14, 29370, Note_on_c, 7, 58, 72
14, 29399, Note_on_c, 7, 58, 0
14, 29400, Note_on_c, 7, 60, 72
14, 29459, Note_on_c, 7, 60, 0
14, 29460, Note_on_c, 7, 63, 72
14, 29519, Note_on_c, 7, 63, 0
14, 29520, Note_on_c, 7, 50, 72
14, 29579, Note_on_c, 7, 50, 0
14, 29580, Note_on_c, 7, 57, 72
14, 29609, Note_on_c, 7, 57, 0
14, 29610, Note_on_c, 7, 55, 72
14, 29639, Note_on_c, 7, 55, 0
14, 29640, Note_on_c, 7, 57, 72
14, 29699, Note_on_c, 7, 57, 0
14, 29700, Note_on_c, 7, 66, 72
14, 29759, Note_on_c, 7, 66, 0
14, 29760, Note_on_c, 7, 50, 72
14, 29819, Note_on_c, 7, 50, 0
14, 29820, Note_on_c, 7, 58, 72
14, 29849, Note_on_c, 7, 58, 0
14, 29850, Note_on_c, 7, 57, 72
14, 29879, Note_on_c, 7, 57, 0
14, 29880, Note_on_c, 7, 58, 72
14, 29939, Note_on_c, 7, 58, 0
14, 29940, Note_on_c, 7, 62, 72
14, 29999, Note_on_c, 7, 62, 0
14, 30000, Note_on_c, 7, 50, 72
14, 30059, Note_on_c, 7, 50, 0
14, 30060, Note_on_c, 7, 55, 72
14, 30089, Note_on_c, 7, 55, 0
14, 30090, Note_on_c, 7, 54, 72
14, 30119, Note_on_c, 7, 54, 0
14, 30120, Note_on_c, 7, 55, 72
14, 30179, Note_on_c, 7, 55, 0
14, 30180, Note_on_c, 7, 64, 72
14, 30239, Note_on_c, 7, 64, 0
14, 30240, Note_on_c, 7, 50, 72
14, 30299, Note_on_c, 7, 50, 0
14, 30300, Note_on_c, 7, 57, 72
14, 30329, Note_on_c, 7, 57, 0
14, 30330, Note_on_c, 7, 55, 72
14, 30359, Note_on_c, 7, 55, 0
14, 30360, Note_on_c, 7, 57, 72
14, 30419, Note_on_c, 7, 57, 0
14, 30420, Note_on_c, 7, 60, 72
14, 30479, Note_on_c, 7, 60, 0
14, 30480, Note_on_c, 7, 50, 72
14, 30539, Note_on_c, 7, 50, 0
14, 30540, Note_on_c, 7, 55, 72
14, 30569, Note_on_c, 7, 55, 0
14, 30570, Note_on_c, 7, 54, 72
14, 30599, Note_on_c, 7, 54, 0
14, 30600, Note_on_c, 7, 55, 72
14, 30659, Note_on_c, 7, 55, 0
14, 30660, Note_on_c, 7, 58, 72
14, 30719, Note_on_c, 7, 58, 0
14, 30720, Note_on_c, 7, 49, 72
14, 30839, Note_on_c, 7, 49, 0
14, 31080, Note_on_c, 7, 48, 48
14, 31139, Note_on_c, 7, 48, 0
14, 31140, Note_on_c, 7, 48, 48
14, 31199, Note_on_c, 7, 48, 0
14, 31200, Note_on_c, 7, 50, 48
14, 31259, Note_on_c, 7, 50, 0
14, 31260, Note_on_c, 7, 50, 48
14, 31319, Note_on_c, 7, 50, 0
14, 31320, Note_on_c, 7, 51, 48
14, 31379, Note_on_c, 7, 51, 0
14, 31380, Note_on_c, 7, 51, 48
14, 31439, Note_on_c, 7, 51, 0
14, 31440, Note_on_c, 7, 50, 48
14, 31499, Note_on_c, 7, 50, 0
14, 31500, Note_on_c, 7, 50, 48
14, 31559, Note_on_c, 7, 50, 0
14, 31560, Note_on_c, 7, 50, 48
14, 31619, Note_on_c, 7, 50, 0
14, 31620, Note_on_c, 7, 50, 48
14, 31679, Note_on_c, 7, 50, 0
14, 31680, Note_on_c, 7, 43, 48
14, 31799, Note_on_c, 7, 43, 0
14, 31860, Note_on_c, 7, 58, 48
14, 31889, Note_on_c, 7, 58, 0
14, 31890, Note_on_c, 7, 55, 48
14, 31919, Note_on_c, 7, 55, 0
14, 31920, Note_on_c, 7, 51, 48
14, 31979, Note_on_c, 7, 51, 0
14, 31980, Note_on_c, 7, 63, 48
14, 32039, Note_on_c, 7, 63, 0
14, 32100, Note_on_c, 7, 51, 48
14, 32129, Note_on_c, 7, 51, 0
14, 32130, Note_on_c, 7, 48, 48
14, 32159, Note_on_c, 7, 48, 0
14, 32160, Note_on_c, 7, 41, 48
14, 32219, Note_on_c, 7, 41, 0
14, 32220, Note_on_c, 7, 53, 48
14, 32279, Note_on_c, 7, 53, 0
14, 32340, Note_on_c, 7, 57, 48
14, 32369, Note_on_c, 7, 57, 0
14, 32370, Note_on_c, 7, 53, 48
14, 32399, Note_on_c, 7, 53, 0
14, 32400, Note_on_c, 7, 50, 48
14, 32459, Note_on_c, 7, 50, 0
14, 32460, Note_on_c, 7, 62, 48
14, 32519, Note_on_c, 7, 62, 0
14, 32580, Note_on_c, 7, 46, 48
14, 32609, Note_on_c, 7, 46, 0
14, 32610, Note_on_c, 7, 43, 48
14, 32639, Note_on_c, 7, 43, 0
14, 32640, Note_on_c, 7, 39, 48
14, 32699, Note_on_c, 7, 39, 0
14, 32700, Note_on_c, 7, 51, 48
14, 32759, Note_on_c, 7, 51, 0
14, 32820, Note_on_c, 7, 51, 48
14, 32849, Note_on_c, 7, 51, 0
14, 32850, Note_on_c, 7, 48, 48
14, 32879, Note_on_c, 7, 48, 0
14, 32880, Note_on_c, 7, 45, 48
14, 32939, Note_on_c, 7, 45, 0
14, 32940, Note_on_c, 7, 57, 48
14, 32999, Note_on_c, 7, 57, 0
14, 33060, Note_on_c, 7, 48, 48
14, 33089, Note_on_c, 7, 48, 0
14, 33090, Note_on_c, 7, 45, 48
14, 33119, Note_on_c, 7, 45, 0
14, 33120, Note_on_c, 7, 50, 48
14, 33179, Note_on_c, 7, 50, 0
14, 33180, Note_on_c, 7, 48, 48
14, 33239, Note_on_c, 7, 48, 0
14, 33240, Note_on_c, 7, 46, 48
14, 33299, Note_on_c, 7, 46, 0
14, 33300, Note_on_c, 7, 48, 48
14, 33359, Note_on_c, 7, 48, 0
14, 33360, Note_on_c, 7, 50, 48
14, 33479, Note_on_c, 7, 50, 0
14, 33480, Note_on_c, 7, 50, 48
14, 33599, Note_on_c, 7, 50, 0
14, 33600, Note_on_c, 7, 43, 48
14, 33659, Note_on_c, 7, 43, 0
14, 33660, Note_on_c, 7, 55, 72
14, 33689, Note_on_c, 7, 55, 0
14, 33690, Note_on_c, 7, 54, 72
14, 33719, Note_on_c, 7, 54, 0
14, 33720, Note_on_c, 7, 55, 72
14, 33779, Note_on_c, 7, 55, 0
14, 33780, Note_on_c, 7, 58, 72
14, 33839, Note_on_c, 7, 58, 0
14, 33840, Note_on_c, 7, 43, 72
14, 33899, Note_on_c, 7, 43, 0
14, 33900, Note_on_c, 7, 55, 72
14, 33929, Note_on_c, 7, 55, 0
14, 33930, Note_on_c, 7, 53, 72
14, 33959, Note_on_c, 7, 53, 0
14, 33960, Note_on_c, 7, 55, 72
14, 34019, Note_on_c, 7, 55, 0
14, 34020, Note_on_c, 7, 63, 72
14, 34079, Note_on_c, 7, 63, 0
14, 34080, Note_on_c, 7, 42, 72
14, 34139, Note_on_c, 7, 42, 0
14, 34140, Note_on_c, 7, 54, 72
14, 34169, Note_on_c, 7, 54, 0
14, 34170, Note_on_c, 7, 52, 72
14, 34199, Note_on_c, 7, 52, 0
14, 34200, Note_on_c, 7, 54, 72
14, 34259, Note_on_c, 7, 54, 0
14, 34260, Note_on_c, 7, 57, 72
14, 34319, Note_on_c, 7, 57, 0
14, 34320, Note_on_c, 7, 41, 72
14, 34379, Note_on_c, 7, 41, 0
14, 34380, Note_on_c, 7, 53, 72
14, 34409, Note_on_c, 7, 53, 0
14, 34410, Note_on_c, 7, 52, 72
14, 34439, Note_on_c, 7, 52, 0
14, 34440, Note_on_c, 7, 53, 72
14, 34499, Note_on_c, 7, 53, 0
14, 34500, Note_on_c, 7, 62, 72
14, 34559, Note_on_c, 7, 62, 0
14, 34560, Note_on_c, 7, 40, 72
14, 34619, Note_on_c, 7, 40, 0
14, 34620, Note_on_c, 7, 52, 72
14, 34649, Note_on_c, 7, 52, 0
14, 34650, Note_on_c, 7, 50, 72
14, 34679, Note_on_c, 7, 50, 0
14, 34680, Note_on_c, 7, 52, 72
14, 34739, Note_on_c, 7, 52, 0
14, 34740, Note_on_c, 7, 55, 72
14, 34799, Note_on_c, 7, 55, 0
14, 34800, Note_on_c, 7, 39, 72
14, 34859, Note_on_c, 7, 39, 0
14, 34860, Note_on_c, 7, 51, 72
14, 34889, Note_on_c, 7, 51, 0
14, 34890, Note_on_c, 7, 50, 72
14, 34919, Note_on_c, 7, 50, 0
14, 34920, Note_on_c, 7, 51, 72
14, 34979, Note_on_c, 7, 51, 0
14, 34980, Note_on_c, 7, 60, 72
14, 35039, Note_on_c, 7, 60, 0
14, 35040, Note_on_c, 7, 50, 72
14, 35099, Note_on_c, 7, 50, 0
14, 35100, Note_on_c, 7, 54, 72
14, 35129, Note_on_c, 7, 54, 0
14, 35130, Note_on_c, 7, 50, 72
14, 35159, Note_on_c, 7, 50, 0
14, 35160, Note_on_c, 7, 55, 72
14, 35219, Note_on_c, 7, 55, 0
14, 35220, Note_on_c, 7, 48, 72
14, 35279, Note_on_c, 7, 48, 0
14, 35280, Note_on_c, 7, 50, 72
14, 35339, Note_on_c, 7, 50, 0
14, 35340, Note_on_c, 7, 58, 72
14, 35369, Note_on_c, 7, 58, 0
14, 35370, Note_on_c, 7, 55, 72
14, 35399, Note_on_c, 7, 55, 0
14, 35400, Note_on_c, 7, 62, 72
14, 35459, Note_on_c, 7, 62, 0
14, 35460, Note_on_c, 7, 50, 72
14, 35519, Note_on_c, 7, 50, 0
14, 35520, Note_on_c, 7, 55, 72
14, 35639, Note_on_c, 7, 55, 0
14, 35880, Note_on_c, 7, 55, 72
14, 35999, Note_on_c, 7, 55, 0
14, 36000, Note_on_c, 7, 51, 72
14, 36119, Note_on_c, 7, 51, 0
14, 36120, Note_on_c, 7, 55, 72
14, 36239, Note_on_c, 7, 55, 0
14, 36240, Note_on_c, 7, 51, 72
14, 36359, Note_on_c, 7, 51, 0
14, 36360, Note_on_c, 7, 47, 72
14, 36479, Note_on_c, 7, 47, 0
14, 36480, Note_on_c, 7, 48, 72
14, 36959, Note_on_c, 7, 48, 0
14, 36960, Note_on_c, 7, 43, 72
14, 37439, Note_on_c, 7, 43, 0
14, 37439, End_track
15, 0, Start_track
15, 0, Title_t, "Contrabass"
15, 0, MIDI_port, 0
15, 0, Program_c, 8, 48
15, 0, Control_c, 8, 7, 104
15, 0, Control_c, 8, 10, 112
15, 0, Control_c, 8, 11, 127
15, 60, Note_on_c, 8, 43, 48
15, 119, Note_on_c, 8, 43, 0
15, 120, Note_on_c, 8, 46, 48
15, 179, Note_on_c, 8, 46, 0
15, 180, Note_on_c, 8, 43, 48
15, 239, Note_on_c, 8, 43, 0
15, 300, Note_on_c, 8, 43, 48
15, 359, Note_on_c, 8, 43, 0
15, 360, Note_on_c, 8, 46, 48
15, 419, Note_on_c, 8, 46, 0
15, 420, Note_on_c, 8, 43, 48
15, 479, Note_on_c, 8, 43, 0
15, 540, Note_on_c, 8, 42, 48
15, 599, Note_on_c, 8, 42, 0
15, 600, Note_on_c, 8, 38, 48
15, 659, Note_on_c, 8, 38, 0
15, 660, Note_on_c, 8, 42, 48
15, 719, Note_on_c, 8, 42, 0
15, 780, Note_on_c, 8, 43, 48
15, 839, Note_on_c, 8, 43, 0
15, 840, Note_on_c, 8, 46, 48
15, 899, Note_on_c, 8, 46, 0
15, 900, Note_on_c, 8, 43, 72
15, 959, Note_on_c, 8, 43, 0
15, 960, Note_on_c, 8, 39, 72
15, 989, Note_on_c, 8, 39, 0
15, 990, Note_on_c, 8, 41, 72
15, 1019, Note_on_c, 8, 41, 0
15, 1020, Note_on_c, 8, 43, 72
15, 1049, Note_on_c, 8, 43, 0
15, 1050, Note_on_c, 8, 45, 72
15, 1079, Note_on_c, 8, 45, 0
15, 1080, Note_on_c, 8, 46, 72
15, 1109, Note_on_c, 8, 46, 0
15, 1110, Note_on_c, 8, 41, 72
15, 1139, Note_on_c, 8, 41, 0
15, 1140, Note_on_c, 8, 38, 72
15, 1169, Note_on_c, 8, 38, 0
15, 1170, Note_on_c, 8, 34, 72
15, 1199, Note_on_c, 8, 34, 0
15, 1200, Note_on_c, 8, 36, 72
15, 1229, Note_on_c, 8, 36, 0
15, 1230, Note_on_c, 8, 38, 72
15, 1259, Note_on_c, 8, 38, 0
15, 1260, Note_on_c, 8, 39, 72
15, 1289, Note_on_c, 8, 39, 0
15, 1290, Note_on_c, 8, 41, 72
15, 1319, Note_on_c, 8, 41, 0
15, 1320, Note_on_c, 8, 43, 72
15, 1349, Note_on_c, 8, 43, 0
15, 1350, Note_on_c, 8, 38, 72
15, 1379, Note_on_c, 8, 38, 0
15, 1380, Note_on_c, 8, 34, 72
15, 1409, Note_on_c, 8, 34, 0
15, 1410, Note_on_c, 8, 31, 72
15, 1439, Note_on_c, 8, 31, 0
15, 1440, Note_on_c, 8, 33, 48
15, 1499, Note_on_c, 8, 33, 0
15, 1500, Note_on_c, 8, 48, 48
15, 1529, Note_on_c, 8, 48, 0
15, 1530, Note_on_c, 8, 46, 48
15, 1559, Note_on_c, 8, 46, 0
15, 1560, Note_on_c, 8, 45, 48
15, 1619, Note_on_c, 8, 45, 0
15, 1620, Note_on_c, 8, 43, 48
15, 1679, Note_on_c, 8, 43, 0
15, 1680, Note_on_c, 8, 42, 48
15, 1859, Note_on_c, 8, 42, 0
15, 1860, Note_on_c, 8, 42, 48
15, 1919, Note_on_c, 8, 42, 0
15, 1920, Note_on_c, 8, 43, 48
15, 1979, Note_on_c, 8, 43, 0
15, 1980, Note_on_c, 8, 46, 48
15, 2039, Note_on_c, 8, 46, 0
15, 2040, Note_on_c, 8, 45, 48
15, 2099, Note_on_c, 8, 45, 0
15, 2100, Note_on_c, 8, 43, 48
15, 2159, Note_on_c, 8, 43, 0
15, 2160, Note_on_c, 8, 42, 48
15, 2339, Note_on_c, 8, 42, 0
15, 2340, Note_on_c, 8, 42, 48
15, 2399, Note_on_c, 8, 42, 0
15, 2400, Note_on_c, 8, 43, 48
15, 2459, Note_on_c, 8, 43, 0
15, 2460, Note_on_c, 8, 43, 48
15, 2519, Note_on_c, 8, 43, 0
15, 2520, Note_on_c, 8, 41, 48
15, 2579, Note_on_c, 8, 41, 0
15, 2580, Note_on_c, 8, 41, 48
15, 2639, Note_on_c, 8, 41, 0
15, 2640, Note_on_c, 8, 39, 48
15, 2699, Note_on_c, 8, 39, 0
15, 2700, Note_on_c, 8, 39, 48
15, 2759, Note_on_c, 8, 39, 0
15, 2760, Note_on_c, 8, 39, 48
15, 2819, Note_on_c, 8, 39, 0
15, 2820, Note_on_c, 8, 39, 48
15, 2879, Note_on_c, 8, 39, 0
15, 2880, Note_on_c, 8, 38, 48
15, 2939, Note_on_c, 8, 38, 0
15, 2940, Note_on_c, 8, 50, 72
15, 2999, Note_on_c, 8, 50, 0
15, 3000, Note_on_c, 8, 48, 72
15, 3059, Note_on_c, 8, 48, 0
15, 3060, Note_on_c, 8, 36, 72
15, 3119, Note_on_c, 8, 36, 0
15, 3120, Note_on_c, 8, 34, 72
15, 3239, Note_on_c, 8, 34, 0
15, 3360, Note_on_c, 8, 34, 48
15, 3419, Note_on_c, 8, 34, 0
15, 3420, Note_on_c, 8, 29, 48
15, 3479, Note_on_c, 8, 29, 0
15, 3480, Note_on_c, 8, 33, 48
15, 3539, Note_on_c, 8, 33, 0
15, 3540, Note_on_c, 8, 29, 48
15, 3599, Note_on_c, 8, 29, 0
15, 3600, Note_on_c, 8, 34, 48
15, 3659, Note_on_c, 8, 34, 0
15, 3660, Note_on_c, 8, 29, 48
15, 3719, Note_on_c, 8, 29, 0
15, 3720, Note_on_c, 8, 36, 48
15, 3779, Note_on_c, 8, 36, 0
15, 3780, Note_on_c, 8, 29, 48
15, 3839, Note_on_c, 8, 29, 0
15, 3840, Note_on_c, 8, 38, 48
15, 3899, Note_on_c, 8, 38, 0
15, 3900, Note_on_c, 8, 35, 72
15, 3929, Note_on_c, 8, 35, 0
15, 3960, Note_on_c, 8, 36, 72
15, 3989, Note_on_c, 8, 36, 0
15, 4020, Note_on_c, 8, 38, 72
15, 4049, Note_on_c, 8, 38, 0
15, 4080, Note_on_c, 8, 39, 72
15, 4199, Note_on_c, 8, 39, 0
15, 4320, Note_on_c, 8, 36, 48
15, 4380, Note_on_c, 8, 36, 0
15, 4380, Note_on_c, 8, 31, 48
15, 4440, Note_on_c, 8, 31, 0
15, 4440, Note_on_c, 8, 35, 48
15, 4500, Note_on_c, 8, 35, 0
15, 4500, Note_on_c, 8, 31, 48
15, 4560, Note_on_c, 8, 31, 0
15, 4560, Note_on_c, 8, 36, 48
15, 4620, Note_on_c, 8, 36, 0
15, 4620, Note_on_c, 8, 31, 48
15, 4680, Note_on_c, 8, 31, 0
15, 4680, Note_on_c, 8, 38, 48
15, 4740, Note_on_c, 8, 38, 0
15, 4740, Note_on_c, 8, 31, 48
15, 4800, Note_on_c, 8, 31, 0
15, 4800, Note_on_c, 8, 39, 48
15, 4920, Note_on_c, 8, 39, 0
15, 5040, Note_on_c, 8, 32, 48
15, 5100, Note_on_c, 8, 32, 0
15, 5100, Note_on_c, 8, 32, 48
15, 5160, Note_on_c, 8, 32, 0
15, 5160, Note_on_c, 8, 32, 48
15, 5220, Note_on_c, 8, 32, 0
15, 5220, Note_on_c, 8, 32, 48
15, 5280, Note_on_c, 8, 32, 0
15, 5280, Note_on_c, 8, 32, 48
15, 5340, Note_on_c, 8, 32, 0
15, 5340, Note_on_c, 8, 32, 48
15, 5400, Note_on_c, 8, 32, 0
15, 5400, Note_on_c, 8, 32, 48
15, 5460, Note_on_c, 8, 32, 0
15, 5460, Note_on_c, 8, 32, 48
15, 5520, Note_on_c, 8, 32, 0
15, 5520, Note_on_c, 8, 31, 48
15, 5580, Note_on_c, 8, 31, 0
15, 5580, Note_on_c, 8, 31, 48
15, 5640, Note_on_c, 8, 31, 0
15, 5640, Note_on_c, 8, 31, 48
15, 5700, Note_on_c, 8, 31, 0
15, 5700, Note_on_c, 8, 31, 48
15, 5760, Note_on_c, 8, 31, 0
15, 5760, Note_on_c, 8, 31, 48
15, 5820, Note_on_c, 8, 31, 0
15, 5820, Note_on_c, 8, 31, 48
15, 5880, Note_on_c, 8, 31, 0
15, 5880, Note_on_c, 8, 31, 48
15, 5940, Note_on_c, 8, 31, 0
15, 5940, Note_on_c, 8, 31, 48
15, 6000, Note_on_c, 8, 31, 0
15, 6000, Note_on_c, 8, 31, 48
15, 6060, Note_on_c, 8, 31, 0
15, 6060, Note_on_c, 8, 31, 48
15, 6120, Note_on_c, 8, 31, 0
15, 6120, Note_on_c, 8, 31, 48
15, 6180, Note_on_c, 8, 31, 0
15, 6180, Note_on_c, 8, 31, 48
15, 6240, Note_on_c, 8, 31, 0
15, 6240, Note_on_c, 8, 36, 72
15, 6300, Note_on_c, 8, 36, 0
15, 6300, Note_on_c, 8, 48, 72
15, 6360, Note_on_c, 8, 48, 0
15, 6360, Note_on_c, 8, 51, 72
15, 6420, Note_on_c, 8, 51, 0
15, 6420, Note_on_c, 8, 48, 72
15, 6480, Note_on_c, 8, 48, 0
15, 6540, Note_on_c, 8, 46, 72
15, 6600, Note_on_c, 8, 46, 0
15, 6600, Note_on_c, 8, 49, 72
15, 6660, Note_on_c, 8, 49, 0
15, 6660, Note_on_c, 8, 46, 72
15, 6720, Note_on_c, 8, 46, 0
15, 6780, Note_on_c, 8, 44, 48
15, 6840, Note_on_c, 8, 44, 0
15, 6840, Note_on_c, 8, 48, 48
15, 6900, Note_on_c, 8, 48, 0
15, 6900, Note_on_c, 8, 44, 48
15, 6960, Note_on_c, 8, 44, 0
15, 7020, Note_on_c, 8, 41, 48
15, 7080, Note_on_c, 8, 41, 0
15, 7080, Note_on_c, 8, 44, 48
15, 7140, Note_on_c, 8, 44, 0
15, 7140, Note_on_c, 8, 41, 48
15, 7200, Note_on_c, 8, 41, 0
15, 7260, Note_on_c, 8, 39, 48
15, 7320, Note_on_c, 8, 39, 0
15, 7320, Note_on_c, 8, 43, 48
15, 7380, Note_on_c, 8, 43, 0
15, 7380, Note_on_c, 8, 39, 48
15, 7440, Note_on_c, 8, 39, 0
15, 7500, Note_on_c, 8, 44, 48
15, 7560, Note_on_c, 8, 44, 0
15, 7560, Note_on_c, 8, 48, 48
15, 7620, Note_on_c, 8, 48, 0
15, 7620, Note_on_c, 8, 44, 72
15, 7680, Note_on_c, 8, 44, 0
15, 7680, Note_on_c, 8, 30, 72
15, 7710, Note_on_c, 8, 30, 0
15, 7710, Note_on_c, 8, 42, 72
15, 7740, Note_on_c, 8, 42, 0
15, 7740, Note_on_c, 8, 42, 72
15, 7770, Note_on_c, 8, 42, 0
15, 7770, Note_on_c, 8, 42, 72
15, 7800, Note_on_c, 8, 42, 0
15, 7800, Note_on_c, 8, 29, 72
15, 7830, Note_on_c, 8, 29, 0
15, 7830, Note_on_c, 8, 41, 72
15, 7860, Note_on_c, 8, 41, 0
15, 7860, Note_on_c, 8, 41, 72
15, 7890, Note_on_c, 8, 41, 0
15, 7890, Note_on_c, 8, 41, 72
15, 7920, Note_on_c, 8, 41, 0
15, 7920, Note_on_c, 8, 28, 72
15, 7950, Note_on_c, 8, 28, 0
15, 7950, Note_on_c, 8, 40, 72
15, 7980, Note_on_c, 8, 40, 0
15, 7980, Note_on_c, 8, 40, 72
15, 8010, Note_on_c, 8, 40, 0
15, 8010, Note_on_c, 8, 40, 72
15, 8040, Note_on_c, 8, 40, 0
15, 8040, Note_on_c, 8, 41, 72
15, 8100, Note_on_c, 8, 41, 0
15, 8220, Note_on_c, 8, 46, 48
15, 8280, Note_on_c, 8, 46, 0
15, 8280, Note_on_c, 8, 49, 48
15, 8340, Note_on_c, 8, 49, 0
15, 8340, Note_on_c, 8, 46, 48
15, 8400, Note_on_c, 8, 46, 0
15, 8460, Note_on_c, 8, 42, 48
15, 8520, Note_on_c, 8, 42, 0
15, 8520, Note_on_c, 8, 46, 48
15, 8580, Note_on_c, 8, 46, 0
15, 8580, Note_on_c, 8, 42, 48
15, 8640, Note_on_c, 8, 42, 0
15, 8700, Note_on_c, 8, 41, 48
15, 8760, Note_on_c, 8, 41, 0
15, 8760, Note_on_c, 8, 45, 48
15, 8820, Note_on_c, 8, 45, 0
15, 8820, Note_on_c, 8, 41, 48
15, 8880, Note_on_c, 8, 41, 0
15, 8940, Note_on_c, 8, 46, 48
15, 9000, Note_on_c, 8, 46, 0
15, 9000, Note_on_c, 8, 50, 48
15, 9060, Note_on_c, 8, 50, 0
15, 9060, Note_on_c, 8, 46, 72
15, 9120, Note_on_c, 8, 46, 0
15, 9120, Note_on_c, 8, 32, 72
15, 9150, Note_on_c, 8, 32, 0
15, 9150, Note_on_c, 8, 44, 72
15, 9180, Note_on_c, 8, 44, 0
15, 9180, Note_on_c, 8, 44, 72
15, 9210, Note_on_c, 8, 44, 0
15, 9210, Note_on_c, 8, 44, 72
15, 9240, Note_on_c, 8, 44, 0
15, 9240, Note_on_c, 8, 31, 72
15, 9270, Note_on_c, 8, 31, 0
15, 9270, Note_on_c, 8, 43, 72
15, 9300, Note_on_c, 8, 43, 0
15, 9300, Note_on_c, 8, 43, 72
15, 9330, Note_on_c, 8, 43, 0
15, 9330, Note_on_c, 8, 43, 72
15, 9360, Note_on_c, 8, 43, 0
15, 9360, Note_on_c, 8, 30, 72
15, 9390, Note_on_c, 8, 30, 0
15, 9390, Note_on_c, 8, 42, 72
15, 9420, Note_on_c, 8, 42, 0
15, 9420, Note_on_c, 8, 42, 72
15, 9450, Note_on_c, 8, 42, 0
15, 9450, Note_on_c, 8, 42, 72
15, 9480, Note_on_c, 8, 42, 0
15, 9480, Note_on_c, 8, 43, 72
15, 9540, Note_on_c, 8, 43, 0
15, 9600, Note_on_c, 8, 31, 72
15, 9629, Note_on_c, 8, 31, 0
15, 9630, Note_on_c, 8, 35, 72
15, 9659, Note_on_c, 8, 35, 0
15, 9660, Note_on_c, 8, 38, 72
15, 9689, Note_on_c, 8, 38, 0
15, 9690, Note_on_c, 8, 43, 72
15, 9719, Note_on_c, 8, 43, 0
15, 9720, Note_on_c, 8, 39, 72
15, 9749, Note_on_c, 8, 39, 0
15, 9750, Note_on_c, 8, 43, 72
15, 9779, Note_on_c, 8, 43, 0
15, 9780, Note_on_c, 8, 36, 72
15, 9809, Note_on_c, 8, 36, 0
15, 9810, Note_on_c, 8, 39, 72
15, 9839, Note_on_c, 8, 39, 0
15, 9840, Note_on_c, 8, 41, 72
15, 9869, Note_on_c, 8, 41, 0
15, 9870, Note_on_c, 8, 44, 72
15, 9899, Note_on_c, 8, 44, 0
15, 9900, Note_on_c, 8, 39, 72
15, 9929, Note_on_c, 8, 39, 0
15, 9930, Note_on_c, 8, 48, 72
15, 9959, Note_on_c, 8, 48, 0
15, 9960, Note_on_c, 8, 38, 72
15, 9989, Note_on_c, 8, 38, 0
15, 9990, Note_on_c, 8, 41, 72
15, 10019, Note_on_c, 8, 41, 0
15, 10020, Note_on_c, 8, 34, 72
15, 10049, Note_on_c, 8, 34, 0
15, 10050, Note_on_c, 8, 38, 72
15, 10079, Note_on_c, 8, 38, 0
15, 10080, Note_on_c, 8, 39, 72
15, 10109, Note_on_c, 8, 39, 0
15, 10110, Note_on_c, 8, 43, 72
15, 10139, Note_on_c, 8, 43, 0
15, 10140, Note_on_c, 8, 38, 72
15, 10169, Note_on_c, 8, 38, 0
15, 10170, Note_on_c, 8, 46, 72
15, 10199, Note_on_c, 8, 46, 0
15, 10200, Note_on_c, 8, 36, 72
15, 10229, Note_on_c, 8, 36, 0
15, 10230, Note_on_c, 8, 39, 72
15, 10259, Note_on_c, 8, 39, 0
15, 10260, Note_on_c, 8, 33, 72
15, 10289, Note_on_c, 8, 33, 0
15, 10290, Note_on_c, 8, 36, 72
15, 10319, Note_on_c, 8, 36, 0
15, 10320, Note_on_c, 8, 38, 72
15, 10349, Note_on_c, 8, 38, 0
15, 10350, Note_on_c, 8, 41, 72
15, 10379, Note_on_c, 8, 41, 0
15, 10380, Note_on_c, 8, 36, 72
15, 10409, Note_on_c, 8, 36, 0
15, 10410, Note_on_c, 8, 44, 72
15, 10439, Note_on_c, 8, 44, 0
15, 10440, Note_on_c, 8, 35, 72
15, 10469, Note_on_c, 8, 35, 0
15, 10470, Note_on_c, 8, 38, 72
15, 10499, Note_on_c, 8, 38, 0
15, 10500, Note_on_c, 8, 31, 72
15, 10529, Note_on_c, 8, 31, 0
15, 10530, Note_on_c, 8, 35, 72
15, 10559, Note_on_c, 8, 35, 0
15, 10560, Note_on_c, 8, 36, 72
15, 10589, Note_on_c, 8, 36, 0
15, 10590, Note_on_c, 8, 39, 72
15, 10619, Note_on_c, 8, 39, 0
15, 10620, Note_on_c, 8, 43, 72
15, 10649, Note_on_c, 8, 43, 0
15, 10650, Note_on_c, 8, 41, 72
15, 10679, Note_on_c, 8, 41, 0
15, 10680, Note_on_c, 8, 40, 72
15, 10709, Note_on_c, 8, 40, 0
15, 10710, Note_on_c, 8, 43, 72
15, 10739, Note_on_c, 8, 43, 0
15, 10740, Note_on_c, 8, 36, 72
15, 10769, Note_on_c, 8, 36, 0
15, 10770, Note_on_c, 8, 40, 72
15, 10799, Note_on_c, 8, 40, 0
15, 10800, Note_on_c, 8, 41, 72
15, 10829, Note_on_c, 8, 41, 0
15, 10830, Note_on_c, 8, 45, 72
15, 10859, Note_on_c, 8, 45, 0
15, 10860, Note_on_c, 8, 38, 72
15, 10889, Note_on_c, 8, 38, 0
15, 10890, Note_on_c, 8, 41, 72
15, 10919, Note_on_c, 8, 41, 0
15, 10920, Note_on_c, 8, 43, 72
15, 10949, Note_on_c, 8, 43, 0
15, 10950, Note_on_c, 8, 46, 72
15, 10979, Note_on_c, 8, 46, 0
15, 10980, Note_on_c, 8, 41, 72
15, 11009, Note_on_c, 8, 41, 0
15, 11010, Note_on_c, 8, 50, 72
15, 11039, Note_on_c, 8, 50, 0
15, 11040, Note_on_c, 8, 40, 72
15, 11069, Note_on_c, 8, 40, 0
15, 11070, Note_on_c, 8, 43, 72
15, 11099, Note_on_c, 8, 43, 0
15, 11100, Note_on_c, 8, 36, 72
15, 11129, Note_on_c, 8, 36, 0
15, 11130, Note_on_c, 8, 40, 72
15, 11159, Note_on_c, 8, 40, 0
15, 11160, Note_on_c, 8, 41, 72
15, 11189, Note_on_c, 8, 41, 0
15, 11190, Note_on_c, 8, 45, 72
15, 11219, Note_on_c, 8, 45, 0
15, 11220, Note_on_c, 8, 40, 72
15, 11249, Note_on_c, 8, 40, 0
15, 11250, Note_on_c, 8, 48, 72
15, 11279, Note_on_c, 8, 48, 0
15, 11280, Note_on_c, 8, 38, 72
15, 11309, Note_on_c, 8, 38, 0
15, 11310, Note_on_c, 8, 41, 72
15, 11339, Note_on_c, 8, 41, 0
15, 11340, Note_on_c, 8, 34, 72
15, 11369, Note_on_c, 8, 34, 0
15, 11370, Note_on_c, 8, 38, 72
15, 11399, Note_on_c, 8, 38, 0
15, 11400, Note_on_c, 8, 39, 72
15, 11429, Note_on_c, 8, 39, 0
15, 11430, Note_on_c, 8, 43, 72
15, 11459, Note_on_c, 8, 43, 0
15, 11460, Note_on_c, 8, 36, 72
15, 11489, Note_on_c, 8, 36, 0
15, 11490, Note_on_c, 8, 39, 72
15, 11519, Note_on_c, 8, 39, 0
15, 11520, Note_on_c, 8, 41, 72
15, 11549, Note_on_c, 8, 41, 0
15, 11550, Note_on_c, 8, 45, 72
15, 11579, Note_on_c, 8, 45, 0
15, 11580, Note_on_c, 8, 50, 72
15, 11609, Note_on_c, 8, 50, 0
15, 11610, Note_on_c, 8, 48, 72
15, 11639, Note_on_c, 8, 48, 0
15, 11640, Note_on_c, 8, 46, 72
15, 11669, Note_on_c, 8, 46, 0
15, 11670, Note_on_c, 8, 50, 72
15, 11699, Note_on_c, 8, 50, 0
15, 11700, Note_on_c, 8, 45, 72
15, 11729, Note_on_c, 8, 45, 0
15, 11730, Note_on_c, 8, 53, 72
15, 11759, Note_on_c, 8, 53, 0
15, 11760, Note_on_c, 8, 43, 72
15, 11789, Note_on_c, 8, 43, 0
15, 11790, Note_on_c, 8, 46, 72
15, 11819, Note_on_c, 8, 46, 0
15, 11820, Note_on_c, 8, 41, 72
15, 11849, Note_on_c, 8, 41, 0
15, 11850, Note_on_c, 8, 50, 72
15, 11879, Note_on_c, 8, 50, 0
15, 11880, Note_on_c, 8, 40, 72
15, 11909, Note_on_c, 8, 40, 0
15, 11910, Note_on_c, 8, 43, 72
15, 11939, Note_on_c, 8, 43, 0
15, 11940, Note_on_c, 8, 38, 72
15, 11969, Note_on_c, 8, 38, 0
15, 11970, Note_on_c, 8, 46, 72
15, 11999, Note_on_c, 8, 46, 0
15, 12000, Note_on_c, 8, 37, 72
15, 12029, Note_on_c, 8, 37, 0
15, 12030, Note_on_c, 8, 40, 72
15, 12059, Note_on_c, 8, 40, 0
15, 12060, Note_on_c, 8, 33, 72
15, 12089, Note_on_c, 8, 33, 0
15, 12090, Note_on_c, 8, 37, 72
15, 12119, Note_on_c, 8, 37, 0
15, 12120, Note_on_c, 8, 38, 72
15, 12149, Note_on_c, 8, 38, 0
15, 12150, Note_on_c, 8, 41, 72
15, 12179, Note_on_c, 8, 41, 0
15, 12180, Note_on_c, 8, 36, 72
15, 12209, Note_on_c, 8, 36, 0
15, 12210, Note_on_c, 8, 45, 72
15, 12239, Note_on_c, 8, 45, 0
15, 12240, Note_on_c, 8, 35, 72
15, 12269, Note_on_c, 8, 35, 0
15, 12270, Note_on_c, 8, 38, 72
15, 12299, Note_on_c, 8, 38, 0
15, 12300, Note_on_c, 8, 31, 72
15, 12329, Note_on_c, 8, 31, 0
15, 12330, Note_on_c, 8, 35, 72
15, 12359, Note_on_c, 8, 35, 0
15, 12360, Note_on_c, 8, 37, 72
15, 12389, Note_on_c, 8, 37, 0
15, 12390, Note_on_c, 8, 40, 72
15, 12419, Note_on_c, 8, 40, 0
15, 12420, Note_on_c, 8, 33, 72
15, 12449, Note_on_c, 8, 33, 0
15, 12450, Note_on_c, 8, 37, 72
15, 12479, Note_on_c, 8, 37, 0
15, 12480, Note_on_c, 8, 38, 72
15, 12509, Note_on_c, 8, 38, 0
15, 12510, Note_on_c, 8, 41, 72
15, 12539, Note_on_c, 8, 41, 0
15, 12540, Note_on_c, 8, 45, 72
15, 12569, Note_on_c, 8, 45, 0
15, 12570, Note_on_c, 8, 49, 72
15, 12599, Note_on_c, 8, 49, 0
15, 12600, Note_on_c, 8, 50, 72
15, 12629, Note_on_c, 8, 50, 0
15, 12630, Note_on_c, 8, 45, 72
15, 12659, Note_on_c, 8, 45, 0
15, 12660, Note_on_c, 8, 41, 72
15, 12689, Note_on_c, 8, 41, 0
15, 12690, Note_on_c, 8, 38, 72
15, 12719, Note_on_c, 8, 38, 0
15, 12720, Note_on_c, 8, 39, 72
15, 12749, Note_on_c, 8, 39, 0
15, 12750, Note_on_c, 8, 43, 72
15, 12779, Note_on_c, 8, 43, 0
15, 12780, Note_on_c, 8, 46, 72
15, 12809, Note_on_c, 8, 46, 0
15, 12810, Note_on_c, 8, 50, 72
15, 12839, Note_on_c, 8, 50, 0
15, 12840, Note_on_c, 8, 48, 72
15, 12869, Note_on_c, 8, 48, 0
15, 12870, Note_on_c, 8, 43, 72
15, 12899, Note_on_c, 8, 43, 0
15, 12900, Note_on_c, 8, 39, 72
15, 12929, Note_on_c, 8, 39, 0
15, 12930, Note_on_c, 8, 36, 72
15, 12959, Note_on_c, 8, 36, 0
15, 12960, Note_on_c, 8, 38, 72
15, 12989, Note_on_c, 8, 38, 0
15, 12990, Note_on_c, 8, 41, 72
15, 13019, Note_on_c, 8, 41, 0
15, 13020, Note_on_c, 8, 45, 72
15, 13049, Note_on_c, 8, 45, 0
15, 13050, Note_on_c, 8, 48, 72
15, 13079, Note_on_c, 8, 48, 0
15, 13080, Note_on_c, 8, 46, 72
15, 13109, Note_on_c, 8, 46, 0
15, 13110, Note_on_c, 8, 41, 72
15, 13139, Note_on_c, 8, 41, 0
15, 13140, Note_on_c, 8, 38, 72
15, 13169, Note_on_c, 8, 38, 0
15, 13170, Note_on_c, 8, 34, 72
15, 13199, Note_on_c, 8, 34, 0
15, 13200, Note_on_c, 8, 36, 72
15, 13229, Note_on_c, 8, 36, 0
15, 13230, Note_on_c, 8, 39, 72
15, 13259, Note_on_c, 8, 39, 0
15, 13260, Note_on_c, 8, 43, 72
15, 13289, Note_on_c, 8, 43, 0
15, 13290, Note_on_c, 8, 46, 72
15, 13319, Note_on_c, 8, 46, 0
15, 13320, Note_on_c, 8, 45, 72
15, 13349, Note_on_c, 8, 45, 0
15, 13350, Note_on_c, 8, 42, 72
15, 13379, Note_on_c, 8, 42, 0
15, 13380, Note_on_c, 8, 39, 72
15, 13409, Note_on_c, 8, 39, 0
15, 13410, Note_on_c, 8, 36, 72
15, 13439, Note_on_c, 8, 36, 0
15, 13440, Note_on_c, 8, 34, 72
15, 13469, Note_on_c, 8, 34, 0
15, 13470, Note_on_c, 8, 31, 72
15, 13499, Note_on_c, 8, 31, 0
15, 13500, Note_on_c, 8, 34, 72
15, 13529, Note_on_c, 8, 34, 0
15, 13530, Note_on_c, 8, 36, 72
15, 13559, Note_on_c, 8, 36, 0
15, 13560, Note_on_c, 8, 38, 72
15, 13589, Note_on_c, 8, 38, 0
15, 13590, Note_on_c, 8, 40, 72
15, 13619, Note_on_c, 8, 40, 0
15, 13620, Note_on_c, 8, 42, 72
15, 13649, Note_on_c, 8, 42, 0
15, 13650, Note_on_c, 8, 38, 72
15, 13679, Note_on_c, 8, 38, 0
15, 13680, Note_on_c, 8, 43, 72
15, 13709, Note_on_c, 8, 43, 0
15, 13710, Note_on_c, 8, 45, 72
15, 13739, Note_on_c, 8, 45, 0
15, 13740, Note_on_c, 8, 46, 72
15, 13769, Note_on_c, 8, 46, 0
15, 13770, Note_on_c, 8, 48, 72
15, 13799, Note_on_c, 8, 48, 0
15, 13800, Note_on_c, 8, 50, 72
15, 13829, Note_on_c, 8, 50, 0
15, 13830, Note_on_c, 8, 52, 72
15, 13859, Note_on_c, 8, 52, 0
15, 13860, Note_on_c, 8, 54, 72
15, 13889, Note_on_c, 8, 54, 0
15, 13890, Note_on_c, 8, 50, 72
15, 13919, Note_on_c, 8, 50, 0
15, 13920, Note_on_c, 8, 55, 72
15, 13949, Note_on_c, 8, 55, 0
15, 13950, Note_on_c, 8, 50, 72
15, 13979, Note_on_c, 8, 50, 0
15, 13980, Note_on_c, 8, 46, 72
15, 14009, Note_on_c, 8, 46, 0
15, 14010, Note_on_c, 8, 43, 72
15, 14039, Note_on_c, 8, 43, 0
15, 14040, Note_on_c, 8, 50, 72
15, 14099, Note_on_c, 8, 50, 0
15, 14100, Note_on_c, 8, 38, 72
15, 14159, Note_on_c, 8, 38, 0
15, 14160, Note_on_c, 8, 38, 48
15, 14219, Note_on_c, 8, 38, 0
15, 14220, Note_on_c, 8, 38, 48
15, 14279, Note_on_c, 8, 38, 0
15, 14280, Note_on_c, 8, 38, 48
15, 14339, Note_on_c, 8, 38, 0
15, 14340, Note_on_c, 8, 38, 48
15, 14399, Note_on_c, 8, 38, 0
15, 14400, Note_on_c, 8, 38, 48
15, 14459, Note_on_c, 8, 38, 0
15, 14460, Note_on_c, 8, 38, 48
15, 14519, Note_on_c, 8, 38, 0
15, 14520, Note_on_c, 8, 38, 48
15, 14579, Note_on_c, 8, 38, 0
15, 14580, Note_on_c, 8, 38, 48
15, 14639, Note_on_c, 8, 38, 0
15, 14640, Note_on_c, 8, 36, 48
15, 14699, Note_on_c, 8, 36, 0
15, 14700, Note_on_c, 8, 36, 48
15, 14759, Note_on_c, 8, 36, 0
15, 14760, Note_on_c, 8, 36, 48
15, 14819, Note_on_c, 8, 36, 0
15, 14820, Note_on_c, 8, 36, 48
15, 14879, Note_on_c, 8, 36, 0
15, 14880, Note_on_c, 8, 38, 48
15, 14939, Note_on_c, 8, 38, 0
15, 14940, Note_on_c, 8, 36, 48
15, 14999, Note_on_c, 8, 36, 0
15, 15000, Note_on_c, 8, 34, 48
15, 15059, Note_on_c, 8, 34, 0
15, 15060, Note_on_c, 8, 33, 48
15, 15119, Note_on_c, 8, 33, 0
15, 15120, Note_on_c, 8, 31, 48
15, 15179, Note_on_c, 8, 31, 0
15, 15180, Note_on_c, 8, 43, 48
15, 15239, Note_on_c, 8, 43, 0
15, 15240, Note_on_c, 8, 46, 48
15, 15299, Note_on_c, 8, 46, 0
15, 15300, Note_on_c, 8, 43, 48
15, 15359, Note_on_c, 8, 43, 0
15, 15420, Note_on_c, 8, 43, 48
15, 15479, Note_on_c, 8, 43, 0
15, 15480, Note_on_c, 8, 46, 48
15, 15539, Note_on_c, 8, 46, 0
15, 15540, Note_on_c, 8, 43, 48
15, 15599, Note_on_c, 8, 43, 0
15, 15660, Note_on_c, 8, 42, 48
15, 15719, Note_on_c, 8, 42, 0
15, 15720, Note_on_c, 8, 38, 48
15, 15779, Note_on_c, 8, 38, 0
15, 15780, Note_on_c, 8, 42, 48
15, 15839, Note_on_c, 8, 42, 0
15, 15900, Note_on_c, 8, 43, 48
15, 15959, Note_on_c, 8, 43, 0
15, 15960, Note_on_c, 8, 31, 48
15, 16019, Note_on_c, 8, 31, 0
15, 16020, Note_on_c, 8, 43, 48
15, 16079, Note_on_c, 8, 43, 0
15, 16140, Note_on_c, 8, 36, 48
15, 16199, Note_on_c, 8, 36, 0
15, 16200, Note_on_c, 8, 39, 48
15, 16259, Note_on_c, 8, 39, 0
15, 16260, Note_on_c, 8, 36, 48
15, 16319, Note_on_c, 8, 36, 0
15, 16380, Note_on_c, 8, 48, 48
15, 16439, Note_on_c, 8, 48, 0
15, 16440, Note_on_c, 8, 44, 48
15, 16499, Note_on_c, 8, 44, 0
15, 16500, Note_on_c, 8, 48, 48
15, 16559, Note_on_c, 8, 48, 0
15, 16620, Note_on_c, 8, 43, 48
15, 16679, Note_on_c, 8, 43, 0
15, 16680, Note_on_c, 8, 47, 48
15, 16739, Note_on_c, 8, 47, 0
15, 16740, Note_on_c, 8, 43, 48
15, 16799, Note_on_c, 8, 43, 0
15, 16860, Note_on_c, 8, 48, 48
15, 16919, Note_on_c, 8, 48, 0
15, 16920, Note_on_c, 8, 36, 48
15, 16979, Note_on_c, 8, 36, 0
15, 16980, Note_on_c, 8, 48, 48
15, 17039, Note_on_c, 8, 48, 0
15, 17100, Note_on_c, 8, 41, 48
15, 17159, Note_on_c, 8, 41, 0
15, 17160, Note_on_c, 8, 44, 48
15, 17219, Note_on_c, 8, 44, 0
15, 17220, Note_on_c, 8, 41, 48
15, 17279, Note_on_c, 8, 41, 0
15, 17340, Note_on_c, 8, 41, 48
15, 17399, Note_on_c, 8, 41, 0
15, 17400, Note_on_c, 8, 35, 48
15, 17459, Note_on_c, 8, 35, 0
15, 17460, Note_on_c, 8, 41, 48
15, 17519, Note_on_c, 8, 41, 0
15, 17580, Note_on_c, 8, 36, 48
15, 17639, Note_on_c, 8, 36, 0
15, 17640, Note_on_c, 8, 40, 48
15, 17699, Note_on_c, 8, 40, 0
15, 17700, Note_on_c, 8, 36, 48
15, 17759, Note_on_c, 8, 36, 0
15, 17820, Note_on_c, 8, 41, 48
15, 17879, Note_on_c, 8, 41, 0
15, 17880, Note_on_c, 8, 29, 48
15, 17939, Note_on_c, 8, 29, 0
15, 17940, Note_on_c, 8, 41, 48
15, 17999, Note_on_c, 8, 41, 0
15, 18060, Note_on_c, 8, 34, 48
15, 18119, Note_on_c, 8, 34, 0
15, 18120, Note_on_c, 8, 38, 48
15, 18179, Note_on_c, 8, 38, 0
15, 18180, Note_on_c, 8, 34, 48
15, 18239, Note_on_c, 8, 34, 0
15, 18300, Note_on_c, 8, 34, 48
15, 18359, Note_on_c, 8, 34, 0
15, 18360, Note_on_c, 8, 31, 48
15, 18419, Note_on_c, 8, 31, 0
15, 18420, Note_on_c, 8, 34, 48
15, 18479, Note_on_c, 8, 34, 0
15, 18540, Note_on_c, 8, 41, 48
15, 18599, Note_on_c, 8, 41, 0
15, 18600, Note_on_c, 8, 29, 48
15, 18659, Note_on_c, 8, 29, 0
15, 18660, Note_on_c, 8, 41, 48
15, 18719, Note_on_c, 8, 41, 0
15, 18780, Note_on_c, 8, 38, 48
15, 18839, Note_on_c, 8, 38, 0
15, 18840, Note_on_c, 8, 34, 48
15, 18899, Note_on_c, 8, 34, 0
15, 18900, Note_on_c, 8, 38, 48
15, 18959, Note_on_c, 8, 38, 0
15, 18960, Note_on_c, 8, 39, 48
15, 19019, Note_on_c, 8, 39, 0
15, 19020, Note_on_c, 8, 48, 48
15, 19079, Note_on_c, 8, 48, 0
15, 19080, Note_on_c, 8, 45, 48
15, 19139, Note_on_c, 8, 45, 0
15, 19140, Note_on_c, 8, 43, 48
15, 19199, Note_on_c, 8, 43, 0
15, 19200, Note_on_c, 8, 42, 48
15, 19379, Note_on_c, 8, 42, 0
15, 19380, Note_on_c, 8, 42, 48
15, 19439, Note_on_c, 8, 42, 0
15, 19440, Note_on_c, 8, 43, 48
15, 19499, Note_on_c, 8, 43, 0
15, 19500, Note_on_c, 8, 46, 48
15, 19559, Note_on_c, 8, 46, 0
15, 19560, Note_on_c, 8, 45, 48
15, 19619, Note_on_c, 8, 45, 0
15, 19620, Note_on_c, 8, 43, 48
15, 19679, Note_on_c, 8, 43, 0
15, 19680, Note_on_c, 8, 42, 48
15, 19859, Note_on_c, 8, 42, 0
15, 19860, Note_on_c, 8, 42, 48
15, 19919, Note_on_c, 8, 42, 0
15, 19920, Note_on_c, 8, 43, 48
15, 19979, Note_on_c, 8, 43, 0
15, 19980, Note_on_c, 8, 43, 48
15, 20039, Note_on_c, 8, 43, 0
15, 20040, Note_on_c, 8, 41, 48
15, 20099, Note_on_c, 8, 41, 0
15, 20100, Note_on_c, 8, 41, 48
15, 20159, Note_on_c, 8, 41, 0
15, 20160, Note_on_c, 8, 39, 48
15, 20219, Note_on_c, 8, 39, 0
15, 20220, Note_on_c, 8, 39, 48
15, 20279, Note_on_c, 8, 39, 0
15, 20280, Note_on_c, 8, 39, 48
15, 20339, Note_on_c, 8, 39, 0
15, 20340, Note_on_c, 8, 39, 48
15, 20399, Note_on_c, 8, 39, 0
15, 20400, Note_on_c, 8, 38, 48
15, 20459, Note_on_c, 8, 38, 0
15, 20460, Note_on_c, 8, 36, 72
15, 20489, Note_on_c, 8, 36, 0
15, 20520, Note_on_c, 8, 34, 72
15, 20549, Note_on_c, 8, 34, 0
15, 20580, Note_on_c, 8, 33, 72
15, 20609, Note_on_c, 8, 33, 0
15, 20640, Note_on_c, 8, 31, 72
15, 20699, Note_on_c, 8, 31, 0
15, 20700, Note_on_c, 8, 43, 72
15, 20729, Note_on_c, 8, 43, 0
15, 20730, Note_on_c, 8, 42, 72
15, 20759, Note_on_c, 8, 42, 0
15, 20760, Note_on_c, 8, 43, 72
15, 20819, Note_on_c, 8, 43, 0
15, 20820, Note_on_c, 8, 46, 72
15, 20879, Note_on_c, 8, 46, 0
15, 20880, Note_on_c, 8, 33, 72
15, 20939, Note_on_c, 8, 33, 0
15, 20940, Note_on_c, 8, 45, 72
15, 20969, Note_on_c, 8, 45, 0
15, 20970, Note_on_c, 8, 43, 72
15, 20999, Note_on_c, 8, 43, 0
15, 21000, Note_on_c, 8, 45, 72
15, 21059, Note_on_c, 8, 45, 0
15, 21060, Note_on_c, 8, 48, 72
15, 21119, Note_on_c, 8, 48, 0
15, 21120, Note_on_c, 8, 26, 72
15, 21179, Note_on_c, 8, 26, 0
15, 21180, Note_on_c, 8, 38, 72
15, 21209, Note_on_c, 8, 38, 0
15, 21210, Note_on_c, 8, 37, 72
15, 21239, Note_on_c, 8, 37, 0
15, 21240, Note_on_c, 8, 38, 72
15, 21299, Note_on_c, 8, 38, 0
15, 21300, Note_on_c, 8, 42, 72
15, 21359, Note_on_c, 8, 42, 0
15, 21360, Note_on_c, 8, 31, 72
15, 21419, Note_on_c, 8, 31, 0
15, 21420, Note_on_c, 8, 43, 72
15, 21449, Note_on_c, 8, 43, 0
15, 21450, Note_on_c, 8, 42, 72
15, 21479, Note_on_c, 8, 42, 0
15, 21480, Note_on_c, 8, 43, 72
15, 21539, Note_on_c, 8, 43, 0
15, 21540, Note_on_c, 8, 46, 72
15, 21599, Note_on_c, 8, 46, 0
15, 21600, Note_on_c, 8, 28, 72
15, 21659, Note_on_c, 8, 28, 0
15, 21660, Note_on_c, 8, 40, 72
15, 21689, Note_on_c, 8, 40, 0
15, 21690, Note_on_c, 8, 38, 72
15, 21719, Note_on_c, 8, 38, 0
15, 21720, Note_on_c, 8, 40, 72
15, 21779, Note_on_c, 8, 40, 0
15, 21780, Note_on_c, 8, 43, 72
15, 21839, Note_on_c, 8, 43, 0
15, 21840, Note_on_c, 8, 33, 72
15, 21899, Note_on_c, 8, 33, 0
15, 21900, Note_on_c, 8, 45, 72
15, 21929, Note_on_c, 8, 45, 0
15, 21930, Note_on_c, 8, 44, 72
15, 21959, Note_on_c, 8, 44, 0
15, 21960, Note_on_c, 8, 45, 72
15, 22019, Note_on_c, 8, 45, 0
15, 22020, Note_on_c, 8, 49, 72
15, 22079, Note_on_c, 8, 49, 0
15, 22080, Note_on_c, 8, 38, 72
15, 22139, Note_on_c, 8, 38, 0
15, 22140, Note_on_c, 8, 50, 72
15, 22169, Note_on_c, 8, 50, 0
15, 22170, Note_on_c, 8, 49, 72
15, 22199, Note_on_c, 8, 49, 0
15, 22200, Note_on_c, 8, 50, 72
15, 22259, Note_on_c, 8, 50, 0
15, 22260, Note_on_c, 8, 54, 72
15, 22319, Note_on_c, 8, 54, 0
15, 22320, Note_on_c, 8, 31, 72
15, 22379, Note_on_c, 8, 31, 0
15, 22380, Note_on_c, 8, 43, 72
15, 22409, Note_on_c, 8, 43, 0
15, 22410, Note_on_c, 8, 42, 72
15, 22439, Note_on_c, 8, 42, 0
15, 22440, Note_on_c, 8, 43, 72
15, 22499, Note_on_c, 8, 43, 0
15, 22500, Note_on_c, 8, 47, 72
15, 22559, Note_on_c, 8, 47, 0
15, 22560, Note_on_c, 8, 36, 72
15, 22619, Note_on_c, 8, 36, 0
15, 22620, Note_on_c, 8, 48, 72
15, 22649, Note_on_c, 8, 48, 0
15, 22650, Note_on_c, 8, 47, 72
15, 22679, Note_on_c, 8, 47, 0
15, 22680, Note_on_c, 8, 48, 72
15, 22739, Note_on_c, 8, 48, 0
15, 22740, Note_on_c, 8, 51, 72
15, 22799, Note_on_c, 8, 51, 0
15, 22800, Note_on_c, 8, 33, 72
15, 22859, Note_on_c, 8, 33, 0
15, 22860, Note_on_c, 8, 45, 72
15, 22889, Note_on_c, 8, 45, 0
15, 22890, Note_on_c, 8, 43, 72
15, 22919, Note_on_c, 8, 43, 0
15, 22920, Note_on_c, 8, 45, 72
15, 22979, Note_on_c, 8, 45, 0
15, 22980, Note_on_c, 8, 48, 72
15, 23039, Note_on_c, 8, 48, 0
15, 23040, Note_on_c, 8, 26, 72
15, 23099, Note_on_c, 8, 26, 0
15, 23100, Note_on_c, 8, 38, 72
15, 23129, Note_on_c, 8, 38, 0
15, 23130, Note_on_c, 8, 37, 72
15, 23159, Note_on_c, 8, 37, 0
15, 23160, Note_on_c, 8, 38, 72
15, 23219, Note_on_c, 8, 38, 0
15, 23220, Note_on_c, 8, 42, 72
15, 23279, Note_on_c, 8, 42, 0
15, 23280, Note_on_c, 8, 31, 72
15, 23339, Note_on_c, 8, 31, 0
15, 24960, Note_on_c, 8, 34, 72
15, 25019, Note_on_c, 8, 34, 0
15, 25020, Note_on_c, 8, 46, 72
15, 25049, Note_on_c, 8, 46, 0
15, 25050, Note_on_c, 8, 45, 72
15, 25079, Note_on_c, 8, 45, 0
15, 25080, Note_on_c, 8, 46, 72
15, 25139, Note_on_c, 8, 46, 0
15, 25140, Note_on_c, 8, 50, 72
15, 25199, Note_on_c, 8, 50, 0
15, 25200, Note_on_c, 8, 36, 72
15, 25259, Note_on_c, 8, 36, 0
15, 25260, Note_on_c, 8, 48, 72
15, 25289, Note_on_c, 8, 48, 0
15, 25290, Note_on_c, 8, 46, 72
15, 25319, Note_on_c, 8, 46, 0
15, 25320, Note_on_c, 8, 48, 72
15, 25379, Note_on_c, 8, 48, 0
15, 25380, Note_on_c, 8, 51, 72
15, 25439, Note_on_c, 8, 51, 0
15, 25440, Note_on_c, 8, 29, 72
15, 25499, Note_on_c, 8, 29, 0
15, 25500, Note_on_c, 8, 41, 72
15, 25529, Note_on_c, 8, 41, 0
15, 25530, Note_on_c, 8, 40, 72
15, 25559, Note_on_c, 8, 40, 0
15, 25560, Note_on_c, 8, 41, 72
15, 25619, Note_on_c, 8, 41, 0
15, 25620, Note_on_c, 8, 45, 72
15, 25679, Note_on_c, 8, 45, 0
15, 25680, Note_on_c, 8, 26, 72
15, 25739, Note_on_c, 8, 26, 0
15, 25740, Note_on_c, 8, 38, 72
15, 25769, Note_on_c, 8, 38, 0
15, 25770, Note_on_c, 8, 36, 72
15, 25799, Note_on_c, 8, 36, 0
15, 25800, Note_on_c, 8, 38, 72
15, 25859, Note_on_c, 8, 38, 0
15, 25860, Note_on_c, 8, 41, 72
15, 25919, Note_on_c, 8, 41, 0
15, 25920, Note_on_c, 8, 31, 72
15, 25979, Note_on_c, 8, 31, 0
15, 25980, Note_on_c, 8, 43, 72
15, 26009, Note_on_c, 8, 43, 0
15, 26010, Note_on_c, 8, 42, 72
15, 26039, Note_on_c, 8, 42, 0
15, 26040, Note_on_c, 8, 43, 72
15, 26099, Note_on_c, 8, 43, 0
15, 26100, Note_on_c, 8, 47, 72
15, 26159, Note_on_c, 8, 47, 0
15, 26160, Note_on_c, 8, 36, 72
15, 26219, Note_on_c, 8, 36, 0
15, 26220, Note_on_c, 8, 48, 72
15, 26249, Note_on_c, 8, 48, 0
15, 26250, Note_on_c, 8, 47, 72
15, 26279, Note_on_c, 8, 47, 0
15, 26280, Note_on_c, 8, 48, 72
15, 26339, Note_on_c, 8, 48, 0
15, 26340, Note_on_c, 8, 51, 72
15, 26399, Note_on_c, 8, 51, 0
15, 26400, Note_on_c, 8, 38, 72
15, 26459, Note_on_c, 8, 38, 0
15, 26460, Note_on_c, 8, 50, 72
15, 26489, Note_on_c, 8, 50, 0
15, 26490, Note_on_c, 8, 48, 72
15, 26519, Note_on_c, 8, 48, 0
15, 26520, Note_on_c, 8, 50, 72
15, 26579, Note_on_c, 8, 50, 0
15, 26580, Note_on_c, 8, 53, 72
15, 26639, Note_on_c, 8, 53, 0
15, 26640, Note_on_c, 8, 31, 72
15, 26699, Note_on_c, 8, 31, 0
15, 26700, Note_on_c, 8, 43, 72
15, 26729, Note_on_c, 8, 43, 0
15, 26730, Note_on_c, 8, 42, 72
15, 26759, Note_on_c, 8, 42, 0
15, 26760, Note_on_c, 8, 43, 72
15, 26819, Note_on_c, 8, 43, 0
15, 26820, Note_on_c, 8, 47, 72
15, 26879, Note_on_c, 8, 47, 0
15, 26880, Note_on_c, 8, 28, 72
15, 26939, Note_on_c, 8, 28, 0
15, 26940, Note_on_c, 8, 40, 72
15, 26969, Note_on_c, 8, 40, 0
15, 26970, Note_on_c, 8, 38, 72
15, 26999, Note_on_c, 8, 38, 0
15, 27000, Note_on_c, 8, 40, 72
15, 27059, Note_on_c, 8, 40, 0
15, 27060, Note_on_c, 8, 43, 72
15, 27119, Note_on_c, 8, 43, 0
15, 27120, Note_on_c, 8, 33, 72
15, 27179, Note_on_c, 8, 33, 0
15, 27180, Note_on_c, 8, 45, 72
15, 27209, Note_on_c, 8, 45, 0
15, 27210, Note_on_c, 8, 44, 72
15, 27239, Note_on_c, 8, 44, 0
15, 27240, Note_on_c, 8, 45, 72
15, 27299, Note_on_c, 8, 45, 0
15, 27300, Note_on_c, 8, 49, 72
15, 27359, Note_on_c, 8, 49, 0
15, 27360, Note_on_c, 8, 38, 72
15, 27419, Note_on_c, 8, 38, 0
15, 27420, Note_on_c, 8, 50, 72
15, 27449, Note_on_c, 8, 50, 0
15, 27450, Note_on_c, 8, 49, 72
15, 27479, Note_on_c, 8, 49, 0
15, 27480, Note_on_c, 8, 50, 72
15, 27539, Note_on_c, 8, 50, 0
15, 27540, Note_on_c, 8, 54, 72
15, 27599, Note_on_c, 8, 54, 0
15, 27600, Note_on_c, 8, 39, 72
15, 27659, Note_on_c, 8, 39, 0
15, 27660, Note_on_c, 8, 51, 72
15, 27689, Note_on_c, 8, 51, 0
15, 27690, Note_on_c, 8, 50, 72
15, 27719, Note_on_c, 8, 50, 0
15, 27720, Note_on_c, 8, 51, 72
15, 27779, Note_on_c, 8, 51, 0
15, 27780, Note_on_c, 8, 39, 72
15, 27839, Note_on_c, 8, 39, 0
15, 27840, Note_on_c, 8, 38, 72
15, 27899, Note_on_c, 8, 38, 0
15, 27900, Note_on_c, 8, 50, 72
15, 27929, Note_on_c, 8, 50, 0
15, 27930, Note_on_c, 8, 48, 72
15, 27959, Note_on_c, 8, 48, 0
15, 27960, Note_on_c, 8, 50, 72
15, 28019, Note_on_c, 8, 50, 0
15, 28020, Note_on_c, 8, 53, 72
15, 28079, Note_on_c, 8, 53, 0
15, 28080, Note_on_c, 8, 36, 72
15, 28139, Note_on_c, 8, 36, 0
15, 28140, Note_on_c, 8, 48, 72
15, 28169, Note_on_c, 8, 48, 0
15, 28170, Note_on_c, 8, 46, 72
15, 28199, Note_on_c, 8, 46, 0
15, 28200, Note_on_c, 8, 48, 72
15, 28259, Note_on_c, 8, 48, 0
15, 28260, Note_on_c, 8, 36, 72
15, 28319, Note_on_c, 8, 36, 0
15, 28320, Note_on_c, 8, 34, 72
15, 28379, Note_on_c, 8, 34, 0
15, 28380, Note_on_c, 8, 46, 72
15, 28409, Note_on_c, 8, 46, 0
15, 28410, Note_on_c, 8, 45, 72
15, 28439, Note_on_c, 8, 45, 0
15, 28440, Note_on_c, 8, 46, 72
15, 28499, Note_on_c, 8, 46, 0
15, 28500, Note_on_c, 8, 43, 72
15, 28559, Note_on_c, 8, 43, 0
15, 28560, Note_on_c, 8, 39, 72
15, 28619, Note_on_c, 8, 39, 0
15, 28620, Note_on_c, 8, 51, 72
15, 28649, Note_on_c, 8, 51, 0
15, 28650, Note_on_c, 8, 50, 72
15, 28679, Note_on_c, 8, 50, 0
15, 28680, Note_on_c, 8, 51, 72
15, 28739, Note_on_c, 8, 51, 0
15, 28740, Note_on_c, 8, 39, 72
15, 28799, Note_on_c, 8, 39, 0
15, 28800, Note_on_c, 8, 38, 72
15, 29039, Note_on_c, 8, 38, 0
15, 29040, Note_on_c, 8, 38, 72
15, 29279, Note_on_c, 8, 38, 0
15, 29280, Note_on_c, 8, 38, 72
15, 29519, Note_on_c, 8, 38, 0
15, 29520, Note_on_c, 8, 38, 72
15, 29759, Note_on_c, 8, 38, 0
15, 29760, Note_on_c, 8, 38, 72
15, 29999, Note_on_c, 8, 38, 0
15, 30000, Note_on_c, 8, 38, 72
15, 30239, Note_on_c, 8, 38, 0
15, 30240, Note_on_c, 8, 38, 72
15, 30479, Note_on_c, 8, 38, 0
15, 30480, Note_on_c, 8, 38, 72
15, 30719, Note_on_c, 8, 38, 0
15, 30720, Note_on_c, 8, 37, 72
15, 30839, Note_on_c, 8, 37, 0
15, 31080, Note_on_c, 8, 36, 48
15, 31139, Note_on_c, 8, 36, 0
15, 31140, Note_on_c, 8, 36, 48
15, 31199, Note_on_c, 8, 36, 0
15, 31200, Note_on_c, 8, 38, 48
15, 31259, Note_on_c, 8, 38, 0
15, 31260, Note_on_c, 8, 38, 48
15, 31319, Note_on_c, 8, 38, 0
15, 31320, Note_on_c, 8, 39, 48
15, 31379, Note_on_c, 8, 39, 0
15, 31380, Note_on_c, 8, 39, 48
15, 31439, Note_on_c, 8, 39, 0
15, 31440, Note_on_c, 8, 38, 48
15, 31499, Note_on_c, 8, 38, 0
15, 31500, Note_on_c, 8, 38, 48
15, 31559, Note_on_c, 8, 38, 0
15, 31560, Note_on_c, 8, 38, 48
15, 31619, Note_on_c, 8, 38, 0
15, 31620, Note_on_c, 8, 38, 48
15, 31679, Note_on_c, 8, 38, 0
15, 31680, Note_on_c, 8, 31, 48
15, 31799, Note_on_c, 8, 31, 0
15, 31860, Note_on_c, 8, 46, 48
15, 31889, Note_on_c, 8, 46, 0
15, 31890, Note_on_c, 8, 43, 48
15, 31919, Note_on_c, 8, 43, 0
15, 31920, Note_on_c, 8, 39, 48
15, 31979, Note_on_c, 8, 39, 0
15, 31980, Note_on_c, 8, 51, 48
15, 32039, Note_on_c, 8, 51, 0
15, 32100, Note_on_c, 8, 39, 48
15, 32129, Note_on_c, 8, 39, 0
15, 32130, Note_on_c, 8, 36, 48
15, 32159, Note_on_c, 8, 36, 0
15, 32160, Note_on_c, 8, 29, 48
15, 32219, Note_on_c, 8, 29, 0
15, 32220, Note_on_c, 8, 41, 48
15, 32279, Note_on_c, 8, 41, 0
15, 32340, Note_on_c, 8, 45, 48
15, 32369, Note_on_c, 8, 45, 0
15, 32370, Note_on_c, 8, 41, 48
15, 32399, Note_on_c, 8, 41, 0
15, 32400, Note_on_c, 8, 38, 48
15, 32459, Note_on_c, 8, 38, 0
15, 32460, Note_on_c, 8, 50, 48
15, 32519, Note_on_c, 8, 50, 0
15, 32580, Note_on_c, 8, 34, 48
15, 32609, Note_on_c, 8, 34, 0
15, 32610, Note_on_c, 8, 31, 48
15, 32639, Note_on_c, 8, 31, 0
15, 32640, Note_on_c, 8, 27, 48
15, 32699, Note_on_c, 8, 27, 0
15, 32700, Note_on_c, 8, 39, 48
15, 32759, Note_on_c, 8, 39, 0
15, 32820, Note_on_c, 8, 39, 48
15, 32849, Note_on_c, 8, 39, 0
15, 32850, Note_on_c, 8, 36, 48
15, 32879, Note_on_c, 8, 36, 0
15, 32880, Note_on_c, 8, 33, 48
15, 32939, Note_on_c, 8, 33, 0
15, 32940, Note_on_c, 8, 45, 48
15, 32999, Note_on_c, 8, 45, 0
15, 33060, Note_on_c, 8, 36, 48
15, 33089, Note_on_c, 8, 36, 0
15, 33090, Note_on_c, 8, 33, 48
15, 33119, Note_on_c, 8, 33, 0
15, 33120, Note_on_c, 8, 38, 48
15, 33179, Note_on_c, 8, 38, 0
15, 33180, Note_on_c, 8, 36, 48
15, 33239, Note_on_c, 8, 36, 0
15, 33240, Note_on_c, 8, 34, 48
15, 33299, Note_on_c, 8, 34, 0
15, 33300, Note_on_c, 8, 36, 48
15, 33359, Note_on_c, 8, 36, 0
15, 33360, Note_on_c, 8, 38, 48
15, 33479, Note_on_c, 8, 38, 0
15, 33480, Note_on_c, 8, 38, 48
15, 33599, Note_on_c, 8, 38, 0
15, 33600, Note_on_c, 8, 31, 48
15, 33659, Note_on_c, 8, 31, 0
15, 33660, Note_on_c, 8, 43, 72
15, 33689, Note_on_c, 8, 43, 0
15, 33690, Note_on_c, 8, 42, 72
15, 33719, Note_on_c, 8, 42, 0
15, 33720, Note_on_c, 8, 43, 72
15, 33779, Note_on_c, 8, 43, 0
15, 33780, Note_on_c, 8, 46, 72
15, 33839, Note_on_c, 8, 46, 0
15, 33840, Note_on_c, 8, 31, 72
15, 33899, Note_on_c, 8, 31, 0
15, 33900, Note_on_c, 8, 43, 72
15, 33929, Note_on_c, 8, 43, 0
15, 33930, Note_on_c, 8, 41, 72
15, 33959, Note_on_c, 8, 41, 0
15, 33960, Note_on_c, 8, 43, 72
15, 34019, Note_on_c, 8, 43, 0
15, 34020, Note_on_c, 8, 51, 72
15, 34079, Note_on_c, 8, 51, 0
15, 34080, Note_on_c, 8, 30, 72
15, 34139, Note_on_c, 8, 30, 0
15, 34140, Note_on_c, 8, 42, 72
15, 34169, Note_on_c, 8, 42, 0
15, 34170, Note_on_c, 8, 40, 72
15, 34199, Note_on_c, 8, 40, 0
15, 34200, Note_on_c, 8, 42, 72
15, 34259, Note_on_c, 8, 42, 0
15, 34260, Note_on_c, 8, 45, 72
15, 34319, Note_on_c, 8, 45, 0
15, 34320, Note_on_c, 8, 29, 72
15, 34379, Note_on_c, 8, 29, 0
15, 34380, Note_on_c, 8, 41, 72
15, 34409, Note_on_c, 8, 41, 0
15, 34410, Note_on_c, 8, 40, 72
15, 34439, Note_on_c, 8, 40, 0
15, 34440, Note_on_c, 8, 41, 72
15, 34499, Note_on_c, 8, 41, 0
15, 34500, Note_on_c, 8, 50, 72
15, 34559, Note_on_c, 8, 50, 0
15, 34560, Note_on_c, 8, 28, 72
15, 34619, Note_on_c, 8, 28, 0
15, 34620, Note_on_c, 8, 40, 72
15, 34649, Note_on_c, 8, 40, 0
15, 34650, Note_on_c, 8, 38, 72
15, 34679, Note_on_c, 8, 38, 0
15, 34680, Note_on_c, 8, 40, 72
15, 34739, Note_on_c, 8, 40, 0
15, 34740, Note_on_c, 8, 43, 72
15, 34799, Note_on_c, 8, 43, 0
15, 34800, Note_on_c, 8, 27, 72
15, 34859, Note_on_c, 8, 27, 0
15, 34860, Note_on_c, 8, 39, 72
15, 34889, Note_on_c, 8, 39, 0
15, 34890, Note_on_c, 8, 38, 72
15, 34919, Note_on_c, 8, 38, 0
15, 34920, Note_on_c, 8, 39, 72
15, 34979, Note_on_c, 8, 39, 0
15, 34980, Note_on_c, 8, 48, 72
15, 35039, Note_on_c, 8, 48, 0
15, 35040, Note_on_c, 8, 38, 72
15, 35099, Note_on_c, 8, 38, 0
15, 35100, Note_on_c, 8, 42, 72
15, 35129, Note_on_c, 8, 42, 0
15, 35130, Note_on_c, 8, 38, 72
15, 35159, Note_on_c, 8, 38, 0
15, 35160, Note_on_c, 8, 43, 72
15, 35219, Note_on_c, 8, 43, 0
15, 35220, Note_on_c, 8, 36, 72
15, 35279, Note_on_c, 8, 36, 0
15, 35280, Note_on_c, 8, 38, 72
15, 35339, Note_on_c, 8, 38, 0
15, 35340, Note_on_c, 8, 46, 72
15, 35369, Note_on_c, 8, 46, 0
15, 35370, Note_on_c, 8, 43, 72
15, 35399, Note_on_c, 8, 43, 0
15, 35400, Note_on_c, 8, 50, 72
15, 35459, Note_on_c, 8, 50, 0
15, 35460, Note_on_c, 8, 38, 72
15, 35519, Note_on_c, 8, 38, 0
15, 35520, Note_on_c, 8, 43, 72
15, 35639, Note_on_c, 8, 43, 0
15, 35880, Note_on_c, 8, 43, 72
15, 35999, Note_on_c, 8, 43, 0
15, 36000, Note_on_c, 8, 39, 72
15, 36119, Note_on_c, 8, 39, 0
15, 36120, Note_on_c, 8, 43, 72
15, 36239, Note_on_c, 8, 43, 0
15, 36240, Note_on_c, 8, 39, 72
15, 36359, Note_on_c, 8, 39, 0
15, 36360, Note_on_c, 8, 35, 72
15, 36479, Note_on_c, 8, 35, 0
15, 36480, Note_on_c, 8, 36, 72
15, 36959, Note_on_c, 8, 36, 0
15, 36960, Note_on_c, 8, 31, 72
15, 37439, Note_on_c, 8, 31, 0
15, 37439, End_track
16, 0, Start_track
16, 0, Title_t, "Soprano "
16, 0, MIDI_port, 0
16, 0, Program_c, 10, 73
16, 0, Control_c, 10, 7, 96
16, 0, Control_c, 10, 10, 24
16, 0, Control_c, 10, 11, 127
16, 0, Note_on_c, 10, 67, 58
16, 119, Note_on_c, 10, 67, 0
16, 120, Note_on_c, 10, 67, 58
16, 179, Note_on_c, 10, 67, 0
16, 180, Note_on_c, 10, 67, 58
16, 239, Note_on_c, 10, 67, 0
16, 240, Note_on_c, 10, 70, 58
16, 359, Note_on_c, 10, 70, 0
16, 360, Note_on_c, 10, 70, 58
16, 479, Note_on_c, 10, 70, 0
16, 480, Note_on_c, 10, 74, 58
16, 719, Note_on_c, 10, 74, 0
16, 720, Note_on_c, 10, 70, 58
16, 839, Note_on_c, 10, 70, 0
16, 900, Note_on_c, 10, 74, 88
16, 959, Note_on_c, 10, 74, 0
16, 960, Note_on_c, 10, 79, 88
16, 1049, Note_on_c, 10, 79, 0
16, 1050, Note_on_c, 10, 79, 88
16, 1079, Note_on_c, 10, 79, 0
16, 1080, Note_on_c, 10, 77, 88
16, 1139, Note_on_c, 10, 77, 0
16, 1140, Note_on_c, 10, 77, 88
16, 1199, Note_on_c, 10, 77, 0
16, 1200, Note_on_c, 10, 75, 88
16, 1289, Note_on_c, 10, 75, 0
16, 1290, Note_on_c, 10, 75, 88
16, 1319, Note_on_c, 10, 75, 0
16, 1320, Note_on_c, 10, 74, 88
16, 1439, Note_on_c, 10, 74, 0
16, 1560, Note_on_c, 10, 72, 58
16, 1739, Note_on_c, 10, 72, 0
16, 1740, Note_on_c, 10, 75, 58
16, 1799, Note_on_c, 10, 75, 0
16, 1800, Note_on_c, 10, 74, 58
16, 1859, Note_on_c, 10, 74, 0
16, 1860, Note_on_c, 10, 72, 58
16, 1919, Note_on_c, 10, 72, 0
16, 1920, Note_on_c, 10, 70, 58
16, 1979, Note_on_c, 10, 70, 0
16, 1980, Note_on_c, 10, 69, 58
16, 2009, Note_on_c, 10, 69, 0
16, 2010, Note_on_c, 10, 67, 58
16, 2039, Note_on_c, 10, 67, 0
16, 2040, Note_on_c, 10, 72, 58
16, 2219, Note_on_c, 10, 72, 0
16, 2220, Note_on_c, 10, 75, 58
16, 2279, Note_on_c, 10, 75, 0
16, 2280, Note_on_c, 10, 74, 58
16, 2339, Note_on_c, 10, 74, 0
16, 2340, Note_on_c, 10, 72, 58
16, 2399, Note_on_c, 10, 72, 0
16, 2400, Note_on_c, 10, 70, 58
16, 2459, Note_on_c, 10, 70, 0
16, 2460, Note_on_c, 10, 69, 58
16, 2489, Note_on_c, 10, 69, 0
16, 2490, Note_on_c, 10, 67, 58
16, 2519, Note_on_c, 10, 67, 0
16, 2520, Note_on_c, 10, 74, 58
16, 2699, Note_on_c, 10, 74, 0
16, 2700, Note_on_c, 10, 75, 58
16, 2759, Note_on_c, 10, 75, 0
16, 2760, Note_on_c, 10, 72, 58
16, 2879, Note_on_c, 10, 72, 0
16, 2880, Note_on_c, 10, 74, 58
16, 2999, Note_on_c, 10, 74, 0
16, 3060, Note_on_c, 10, 65, 88
16, 3119, Note_on_c, 10, 65, 0
16, 3120, Note_on_c, 10, 77, 88
16, 3239, Note_on_c, 10, 77, 0
16, 3240, Note_on_c, 10, 74, 88
16, 3299, Note_on_c, 10, 74, 0
16, 3300, Note_on_c, 10, 70, 58
16, 3359, Note_on_c, 10, 70, 0
16, 3360, Note_on_c, 10, 65, 58
16, 3839, Note_on_c, 10, 65, 0
16, 3840, Note_on_c, 10, 65, 58
16, 3959, Note_on_c, 10, 65, 0
16, 4020, Note_on_c, 10, 67, 88
16, 4079, Note_on_c, 10, 67, 0
16, 4080, Note_on_c, 10, 79, 88
16, 4199, Note_on_c, 10, 79, 0
16, 4200, Note_on_c, 10, 75, 88
16, 4259, Note_on_c, 10, 75, 0
16, 4260, Note_on_c, 10, 72, 58
16, 4319, Note_on_c, 10, 72, 0
16, 4320, Note_on_c, 10, 67, 58
16, 4799, Note_on_c, 10, 67, 0
16, 4800, Note_on_c, 10, 67, 58
16, 4919, Note_on_c, 10, 67, 0
16, 4920, Note_on_c, 10, 75, 58
16, 5159, Note_on_c, 10, 75, 0
16, 5160, Note_on_c, 10, 63, 58
16, 5219, Note_on_c, 10, 63, 0
16, 5220, Note_on_c, 10, 63, 58
16, 5279, Note_on_c, 10, 63, 0
16, 5280, Note_on_c, 10, 61, 58
16, 5639, Note_on_c, 10, 61, 0
16, 5640, Note_on_c, 10, 61, 58
16, 5759, Note_on_c, 10, 61, 0
16, 5760, Note_on_c, 10, 62, 58
16, 5879, Note_on_c, 10, 62, 0
16, 5880, Note_on_c, 10, 63, 58
16, 5999, Note_on_c, 10, 63, 0
16, 6000, Note_on_c, 10, 62, 58
16, 6239, Note_on_c, 10, 62, 0
16, 6240, Note_on_c, 10, 60, 58
16, 6359, Note_on_c, 10, 60, 0
16, 6720, Note_on_c, 10, 68, 58
16, 6839, Note_on_c, 10, 68, 0
16, 6840, Note_on_c, 10, 68, 58
16, 6899, Note_on_c, 10, 68, 0
16, 6900, Note_on_c, 10, 68, 58
16, 6959, Note_on_c, 10, 68, 0
16, 6960, Note_on_c, 10, 72, 58
16, 7079, Note_on_c, 10, 72, 0
16, 7080, Note_on_c, 10, 72, 58
16, 7139, Note_on_c, 10, 72, 0
16, 7140, Note_on_c, 10, 72, 58
16, 7199, Note_on_c, 10, 72, 0
16, 7200, Note_on_c, 10, 75, 58
16, 7439, Note_on_c, 10, 75, 0
16, 7440, Note_on_c, 10, 72, 58
16, 7559, Note_on_c, 10, 72, 0
16, 7620, Note_on_c, 10, 68, 88
16, 7679, Note_on_c, 10, 68, 0
16, 7680, Note_on_c, 10, 78, 88
16, 7799, Note_on_c, 10, 78, 0
16, 7800, Note_on_c, 10, 77, 88
16, 7859, Note_on_c, 10, 77, 0
16, 7860, Note_on_c, 10, 77, 88
16, 7919, Note_on_c, 10, 77, 0
16, 7920, Note_on_c, 10, 76, 88
16, 8039, Note_on_c, 10, 76, 0
16, 8040, Note_on_c, 10, 77, 88
16, 8099, Note_on_c, 10, 77, 0
16, 8160, Note_on_c, 10, 70, 58
16, 8279, Note_on_c, 10, 70, 0
16, 8280, Note_on_c, 10, 70, 58
16, 8339, Note_on_c, 10, 70, 0
16, 8340, Note_on_c, 10, 70, 58
16, 8399, Note_on_c, 10, 70, 0
16, 8400, Note_on_c, 10, 73, 58
16, 8519, Note_on_c, 10, 73, 0
16, 8520, Note_on_c, 10, 73, 58
16, 8579, Note_on_c, 10, 73, 0
16, 8580, Note_on_c, 10, 73, 58
16, 8639, Note_on_c, 10, 73, 0
16, 8640, Note_on_c, 10, 77, 58
16, 8879, Note_on_c, 10, 77, 0
16, 8880, Note_on_c, 10, 74, 58
16, 8999, Note_on_c, 10, 74, 0
16, 9060, Note_on_c, 10, 70, 88
16, 9119, Note_on_c, 10, 70, 0
16, 9120, Note_on_c, 10, 80, 88
16, 9239, Note_on_c, 10, 80, 0
16, 9240, Note_on_c, 10, 79, 88
16, 9299, Note_on_c, 10, 79, 0
16, 9300, Note_on_c, 10, 79, 88
16, 9359, Note_on_c, 10, 79, 0
16, 9360, Note_on_c, 10, 78, 88
16, 9479, Note_on_c, 10, 78, 0
16, 9480, Note_on_c, 10, 79, 88
16, 9539, Note_on_c, 10, 79, 0
16, 11640, Note_on_c, 10, 81, 88
16, 11699, Note_on_c, 10, 81, 0
16, 11700, Note_on_c, 10, 81, 88
16, 11759, Note_on_c, 10, 81, 0
16, 11760, Note_on_c, 10, 70, 88
16, 11819, Note_on_c, 10, 70, 0
16, 11820, Note_on_c, 10, 70, 88
16, 11849, Note_on_c, 10, 70, 0
16, 11850, Note_on_c, 10, 70, 88
16, 11879, Note_on_c, 10, 70, 0
16, 11880, Note_on_c, 10, 79, 88
16, 11939, Note_on_c, 10, 79, 0
16, 11940, Note_on_c, 10, 79, 88
16, 11999, Note_on_c, 10, 79, 0
16, 12000, Note_on_c, 10, 69, 88
16, 12089, Note_on_c, 10, 69, 0
16, 12090, Note_on_c, 10, 69, 88
16, 12119, Note_on_c, 10, 69, 0
16, 12120, Note_on_c, 10, 77, 88
16, 12179, Note_on_c, 10, 77, 0
16, 12180, Note_on_c, 10, 77, 88
16, 12239, Note_on_c, 10, 77, 0
16, 12240, Note_on_c, 10, 67, 88
16, 12299, Note_on_c, 10, 67, 0
16, 12300, Note_on_c, 10, 77, 88
16, 12359, Note_on_c, 10, 77, 0
16, 12360, Note_on_c, 10, 76, 88
16, 12419, Note_on_c, 10, 76, 0
16, 12420, Note_on_c, 10, 67, 88
16, 12479, Note_on_c, 10, 67, 0
16, 12480, Note_on_c, 10, 65, 88
16, 12539, Note_on_c, 10, 65, 0
16, 12540, Note_on_c, 10, 74, 88
16, 12599, Note_on_c, 10, 74, 0
16, 12780, Note_on_c, 10, 79, 88
16, 12839, Note_on_c, 10, 79, 0
16, 12840, Note_on_c, 10, 75, 88
16, 12899, Note_on_c, 10, 75, 0
16, 12900, Note_on_c, 10, 72, 88
16, 12959, Note_on_c, 10, 72, 0
16, 13020, Note_on_c, 10, 77, 88
16, 13079, Note_on_c, 10, 77, 0
16, 13080, Note_on_c, 10, 74, 88
16, 13139, Note_on_c, 10, 74, 0
16, 13140, Note_on_c, 10, 70, 88
16, 13199, Note_on_c, 10, 70, 0
16, 13200, Note_on_c, 10, 75, 88
16, 13259, Note_on_c, 10, 75, 0
16, 13260, Note_on_c, 10, 75, 88
16, 13319, Note_on_c, 10, 75, 0
16, 13320, Note_on_c, 10, 75, 88
16, 13439, Note_on_c, 10, 75, 0
16, 13440, Note_on_c, 10, 74, 88
16, 13499, Note_on_c, 10, 74, 0
16, 13500, Note_on_c, 10, 79, 88
16, 13559, Note_on_c, 10, 79, 0
16, 13560, Note_on_c, 10, 78, 88
16, 13619, Note_on_c, 10, 78, 0
16, 13620, Note_on_c, 10, 74, 88
16, 13679, Note_on_c, 10, 74, 0
16, 13980, Note_on_c, 10, 70, 88
16, 14039, Note_on_c, 10, 70, 0
16, 14040, Note_on_c, 10, 69, 88
16, 14099, Note_on_c, 10, 69, 0
16, 14100, Note_on_c, 10, 74, 88
16, 14159, Note_on_c, 10, 74, 0
16, 14400, Note_on_c, 10, 63, 58
16, 14519, Note_on_c, 10, 63, 0
16, 14520, Note_on_c, 10, 63, 58
16, 14639, Note_on_c, 10, 63, 0
16, 14640, Note_on_c, 10, 63, 58
16, 14879, Note_on_c, 10, 63, 0
16, 14880, Note_on_c, 10, 62, 58
16, 14999, Note_on_c, 10, 62, 0
16, 15120, Control_c, 10, 10, 50
16, 15120, Note_on_c, 10, 67, 73
16, 15359, Note_on_c, 10, 67, 0
16, 15360, Note_on_c, 10, 70, 73
16, 15479, Note_on_c, 10, 70, 0
16, 15480, Note_on_c, 10, 70, 73
16, 15539, Note_on_c, 10, 70, 0
16, 15540, Note_on_c, 10, 70, 73
16, 15599, Note_on_c, 10, 70, 0
16, 15600, Note_on_c, 10, 74, 73
16, 15719, Note_on_c, 10, 74, 0
16, 15720, Note_on_c, 10, 74, 73
16, 15839, Note_on_c, 10, 74, 0
16, 15840, Note_on_c, 10, 71, 73
16, 16019, Note_on_c, 10, 71, 0
16, 16020, Note_on_c, 10, 71, 73
16, 16079, Note_on_c, 10, 71, 0
16, 16080, Note_on_c, 10, 72, 73
16, 16199, Note_on_c, 10, 72, 0
16, 16200, Note_on_c, 10, 67, 73
16, 16379, Note_on_c, 10, 67, 0
16, 16380, Note_on_c, 10, 75, 73
16, 16439, Note_on_c, 10, 75, 0
16, 16440, Note_on_c, 10, 74, 73
16, 16499, Note_on_c, 10, 74, 0
16, 16500, Note_on_c, 10, 72, 73
16, 16559, Note_on_c, 10, 72, 0
16, 16560, Note_on_c, 10, 71, 73
16, 16619, Note_on_c, 10, 71, 0
16, 16620, Note_on_c, 10, 69, 73
16, 16679, Note_on_c, 10, 69, 0
16, 16680, Note_on_c, 10, 67, 73
16, 16739, Note_on_c, 10, 67, 0
16, 16740, Note_on_c, 10, 69, 73
16, 16799, Note_on_c, 10, 69, 0
16, 16800, Note_on_c, 10, 70, 73
16, 16859, Note_on_c, 10, 70, 0
16, 16860, Note_on_c, 10, 73, 73
16, 16919, Note_on_c, 10, 73, 0
16, 16920, Note_on_c, 10, 72, 73
16, 16979, Note_on_c, 10, 72, 0
16, 16980, Note_on_c, 10, 70, 73
16, 17039, Note_on_c, 10, 70, 0
16, 17040, Note_on_c, 10, 68, 73
16, 17159, Note_on_c, 10, 68, 0
16, 17400, Note_on_c, 10, 68, 73
16, 17519, Note_on_c, 10, 68, 0
16, 17520, Note_on_c, 10, 67, 73
16, 17639, Note_on_c, 10, 67, 0
16, 17640, Note_on_c, 10, 67, 73
16, 17759, Note_on_c, 10, 67, 0
16, 17760, Note_on_c, 10, 72, 73
16, 17999, Note_on_c, 10, 72, 0
16, 18000, Note_on_c, 10, 65, 73
16, 18119, Note_on_c, 10, 65, 0
16, 18720, Note_on_c, 10, 70, 73
16, 18839, Note_on_c, 10, 70, 0
16, 18840, Note_on_c, 10, 70, 73
16, 18959, Note_on_c, 10, 70, 0
16, 18960, Note_on_c, 10, 70, 73
16, 19019, Note_on_c, 10, 70, 0
16, 19020, Note_on_c, 10, 63, 73
16, 19079, Note_on_c, 10, 63, 0
16, 19080, Note_on_c, 10, 75, 73
16, 19259, Note_on_c, 10, 75, 0
16, 19260, Note_on_c, 10, 75, 73
16, 19319, Note_on_c, 10, 75, 0
16, 19320, Note_on_c, 10, 74, 73
16, 19379, Note_on_c, 10, 74, 0
16, 19380, Note_on_c, 10, 72, 73
16, 19439, Note_on_c, 10, 72, 0
16, 19440, Note_on_c, 10, 72, 73
16, 19454, Note_on_c, 10, 72, 0
16, 19455, Note_on_c, 10, 70, 73
16, 19499, Note_on_c, 10, 70, 0
16, 19500, Note_on_c, 10, 69, 73
16, 19529, Note_on_c, 10, 69, 0
16, 19530, Note_on_c, 10, 67, 73
16, 19559, Note_on_c, 10, 67, 0
16, 19560, Note_on_c, 10, 72, 73
16, 19739, Note_on_c, 10, 72, 0
16, 19740, Note_on_c, 10, 75, 73
16, 19799, Note_on_c, 10, 75, 0
16, 19800, Note_on_c, 10, 74, 73
16, 19859, Note_on_c, 10, 74, 0
16, 19860, Note_on_c, 10, 72, 73
16, 19919, Note_on_c, 10, 72, 0
16, 19920, Note_on_c, 10, 72, 73
16, 19934, Note_on_c, 10, 72, 0
16, 19935, Note_on_c, 10, 70, 73
16, 19979, Note_on_c, 10, 70, 0
16, 19980, Note_on_c, 10, 69, 73
16, 20009, Note_on_c, 10, 69, 0
16, 20010, Note_on_c, 10, 67, 73
16, 20039, Note_on_c, 10, 67, 0
16, 20040, Note_on_c, 10, 74, 73
16, 20279, Note_on_c, 10, 74, 0
16, 20280, Note_on_c, 10, 73, 73
16, 20399, Note_on_c, 10, 73, 0
16, 20400, Note_on_c, 10, 74, 73
16, 20519, Note_on_c, 10, 74, 0
16, 20640, Control_c, 10, 10, 24
16, 23340, Note_on_c, 10, 74, 88
16, 23399, Note_on_c, 10, 74, 0
16, 23400, Note_on_c, 10, 74, 88
16, 23459, Note_on_c, 10, 74, 0
16, 23460, Note_on_c, 10, 74, 88
16, 23519, Note_on_c, 10, 74, 0
16, 23520, Note_on_c, 10, 74, 88
16, 23609, Note_on_c, 10, 74, 0
16, 23610, Note_on_c, 10, 73, 88
16, 23639, Note_on_c, 10, 73, 0
16, 23640, Note_on_c, 10, 73, 88
16, 23759, Note_on_c, 10, 73, 0
16, 23820, Note_on_c, 10, 79, 88
16, 23939, Note_on_c, 10, 79, 0
16, 23940, Note_on_c, 10, 79, 88
16, 23999, Note_on_c, 10, 79, 0
16, 24000, Note_on_c, 10, 79, 88
16, 24119, Note_on_c, 10, 79, 0
16, 24120, Note_on_c, 10, 78, 88
16, 24239, Note_on_c, 10, 78, 0
16, 24300, Note_on_c, 10, 77, 88
16, 24359, Note_on_c, 10, 77, 0
16, 24360, Note_on_c, 10, 77, 88
16, 24419, Note_on_c, 10, 77, 0
16, 24420, Note_on_c, 10, 77, 88
16, 24479, Note_on_c, 10, 77, 0
16, 24480, Note_on_c, 10, 77, 88
16, 24569, Note_on_c, 10, 77, 0
16, 24570, Note_on_c, 10, 76, 88
16, 24599, Note_on_c, 10, 76, 0
16, 24600, Note_on_c, 10, 76, 88
16, 24719, Note_on_c, 10, 76, 0
16, 24780, Note_on_c, 10, 75, 88
16, 24899, Note_on_c, 10, 75, 0
16, 24900, Note_on_c, 10, 75, 88
16, 24959, Note_on_c, 10, 75, 0
16, 24960, Note_on_c, 10, 75, 88
16, 25079, Note_on_c, 10, 75, 0
16, 25080, Note_on_c, 10, 74, 88
16, 25199, Note_on_c, 10, 74, 0
16, 25980, Note_on_c, 10, 77, 88
16, 26099, Note_on_c, 10, 77, 0
16, 26100, Note_on_c, 10, 77, 88
16, 26159, Note_on_c, 10, 77, 0
16, 26160, Note_on_c, 10, 77, 88
16, 26279, Note_on_c, 10, 77, 0
16, 26280, Note_on_c, 10, 75, 88
16, 26399, Note_on_c, 10, 75, 0
16, 27180, Note_on_c, 10, 76, 88
16, 27239, Note_on_c, 10, 76, 0
16, 27240, Note_on_c, 10, 73, 88
16, 27299, Note_on_c, 10, 73, 0
16, 27300, Note_on_c, 10, 74, 88
16, 27329, Note_on_c, 10, 74, 0
16, 27330, Note_on_c, 10, 76, 88
16, 27359, Note_on_c, 10, 76, 0
16, 27360, Note_on_c, 10, 69, 88
16, 27479, Note_on_c, 10, 69, 0
16, 27480, Note_on_c, 10, 74, 88
16, 27599, Note_on_c, 10, 74, 0
16, 27660, Note_on_c, 10, 74, 88
16, 27719, Note_on_c, 10, 74, 0
16, 27720, Note_on_c, 10, 72, 88
16, 27779, Note_on_c, 10, 72, 0
16, 27780, Note_on_c, 10, 79, 88
16, 27839, Note_on_c, 10, 79, 0
16, 27840, Note_on_c, 10, 77, 88
16, 27929, Note_on_c, 10, 77, 0
16, 27930, Note_on_c, 10, 69, 88
16, 27959, Note_on_c, 10, 69, 0
16, 27960, Note_on_c, 10, 70, 88
16, 28079, Note_on_c, 10, 70, 0
16, 28140, Note_on_c, 10, 70, 88
16, 28199, Note_on_c, 10, 70, 0
16, 28200, Note_on_c, 10, 69, 88
16, 28259, Note_on_c, 10, 69, 0
16, 28260, Note_on_c, 10, 75, 88
16, 28319, Note_on_c, 10, 75, 0
16, 28320, Note_on_c, 10, 74, 88
16, 28379, Note_on_c, 10, 74, 0
16, 28380, Note_on_c, 10, 66, 88
16, 28439, Note_on_c, 10, 66, 0
16, 28440, Note_on_c, 10, 67, 88
16, 28499, Note_on_c, 10, 67, 0
16, 28500, Note_on_c, 10, 74, 88
16, 28559, Note_on_c, 10, 74, 0
16, 28560, Note_on_c, 10, 74, 88
16, 28679, Note_on_c, 10, 74, 0
16, 28680, Note_on_c, 10, 73, 88
16, 28799, Note_on_c, 10, 73, 0
16, 28800, Note_on_c, 10, 74, 88
16, 28859, Note_on_c, 10, 74, 0
16, 28860, Note_on_c, 10, 74, 88
16, 28919, Note_on_c, 10, 74, 0
16, 28920, Note_on_c, 10, 74, 88
16, 28979, Note_on_c, 10, 74, 0
16, 28980, Note_on_c, 10, 74, 88
16, 29039, Note_on_c, 10, 74, 0
16, 29040, Note_on_c, 10, 74, 88
16, 29129, Note_on_c, 10, 74, 0
16, 29130, Note_on_c, 10, 75, 88
16, 29159, Note_on_c, 10, 75, 0
16, 29160, Note_on_c, 10, 75, 88
16, 29279, Note_on_c, 10, 75, 0
16, 29340, Note_on_c, 10, 72, 88
16, 29459, Note_on_c, 10, 72, 0
16, 29460, Note_on_c, 10, 72, 88
16, 29519, Note_on_c, 10, 72, 0
16, 29520, Note_on_c, 10, 72, 88
16, 29639, Note_on_c, 10, 72, 0
16, 29640, Note_on_c, 10, 74, 88
16, 29759, Note_on_c, 10, 74, 0
16, 29820, Note_on_c, 10, 70, 88
16, 29879, Note_on_c, 10, 70, 0
16, 29880, Note_on_c, 10, 70, 88
16, 29939, Note_on_c, 10, 70, 0
16, 29940, Note_on_c, 10, 70, 88
16, 29999, Note_on_c, 10, 70, 0
16, 30000, Note_on_c, 10, 70, 88
16, 30089, Note_on_c, 10, 70, 0
16, 30090, Note_on_c, 10, 72, 88
16, 30119, Note_on_c, 10, 72, 0
16, 30120, Note_on_c, 10, 72, 88
16, 30239, Note_on_c, 10, 72, 0
16, 30300, Note_on_c, 10, 69, 88
16, 30419, Note_on_c, 10, 69, 0
16, 30420, Note_on_c, 10, 69, 88
16, 30479, Note_on_c, 10, 69, 0
16, 30480, Note_on_c, 10, 69, 88
16, 30539, Note_on_c, 10, 69, 0
16, 30540, Note_on_c, 10, 70, 88
16, 30599, Note_on_c, 10, 70, 0
16, 30600, Note_on_c, 10, 70, 88
16, 30719, Note_on_c, 10, 70, 0
16, 30840, Note_on_c, 10, 76, 58
16, 30959, Note_on_c, 10, 76, 0
16, 30960, Note_on_c, 10, 67, 58
16, 31199, Note_on_c, 10, 67, 0
16, 31200, Note_on_c, 10, 66, 58
16, 31319, Note_on_c, 10, 66, 0
16, 31320, Note_on_c, 10, 67, 58
16, 31379, Note_on_c, 10, 67, 0
16, 31380, Note_on_c, 10, 67, 58
16, 31439, Note_on_c, 10, 67, 0
16, 31440, Note_on_c, 10, 67, 58
16, 31559, Note_on_c, 10, 67, 0
16, 31560, Note_on_c, 10, 66, 58
16, 31679, Note_on_c, 10, 66, 0
16, 31680, Note_on_c, 10, 67, 58
16, 31799, Note_on_c, 10, 67, 0
16, 31800, Note_on_c, 10, 74, 58
16, 31919, Note_on_c, 10, 74, 0
16, 31920, Note_on_c, 10, 79, 58
16, 32279, Note_on_c, 10, 79, 0
16, 32280, Note_on_c, 10, 72, 58
16, 32339, Note_on_c, 10, 72, 0
16, 32340, Note_on_c, 10, 72, 58
16, 32399, Note_on_c, 10, 72, 0
16, 32400, Note_on_c, 10, 77, 58
16, 32699, Note_on_c, 10, 77, 0
16, 32700, Note_on_c, 10, 70, 58
16, 32759, Note_on_c, 10, 70, 0
16, 32760, Note_on_c, 10, 75, 58
16, 32819, Note_on_c, 10, 75, 0
16, 32820, Note_on_c, 10, 74, 58
16, 32879, Note_on_c, 10, 74, 0
16, 32880, Note_on_c, 10, 72, 58
16, 32939, Note_on_c, 10, 72, 0
16, 32940, Note_on_c, 10, 70, 58
16, 32999, Note_on_c, 10, 70, 0
16, 33000, Note_on_c, 10, 69, 58
16, 33059, Note_on_c, 10, 69, 0
16, 33060, Note_on_c, 10, 67, 58
16, 33119, Note_on_c, 10, 67, 0
16, 33120, Note_on_c, 10, 66, 58
16, 33239, Note_on_c, 10, 66, 0
16, 33240, Note_on_c, 10, 67, 58
16, 33299, Note_on_c, 10, 67, 0
16, 33300, Note_on_c, 10, 69, 58
16, 33359, Note_on_c, 10, 69, 0
16, 33360, Note_on_c, 10, 70, 58
16, 33479, Note_on_c, 10, 70, 0
16, 33480, Note_on_c, 10, 69, 58
16, 33599, Note_on_c, 10, 69, 0
16, 33600, Note_on_c, 10, 67, 58
16, 33719, Note_on_c, 10, 67, 0
16, 33900, Note_on_c, 10, 75, 88
16, 33959, Note_on_c, 10, 75, 0
16, 33960, Note_on_c, 10, 79, 88
16, 34019, Note_on_c, 10, 79, 0
16, 34020, Note_on_c, 10, 75, 88
16, 34079, Note_on_c, 10, 75, 0
16, 34080, Note_on_c, 10, 81, 88
16, 34169, Note_on_c, 10, 81, 0
16, 34170, Note_on_c, 10, 74, 88
16, 34199, Note_on_c, 10, 74, 0
16, 34200, Note_on_c, 10, 74, 88
16, 34319, Note_on_c, 10, 74, 0
16, 34380, Note_on_c, 10, 74, 88
16, 34439, Note_on_c, 10, 74, 0
16, 34440, Note_on_c, 10, 77, 88
16, 34499, Note_on_c, 10, 77, 0
16, 34500, Note_on_c, 10, 74, 88
16, 34559, Note_on_c, 10, 74, 0
16, 34560, Note_on_c, 10, 79, 88
16, 34679, Note_on_c, 10, 79, 0
16, 34680, Note_on_c, 10, 72, 88
16, 34799, Note_on_c, 10, 72, 0
16, 34860, Note_on_c, 10, 72, 88
16, 34919, Note_on_c, 10, 72, 0
16, 34920, Note_on_c, 10, 72, 88
16, 34979, Note_on_c, 10, 72, 0
16, 34980, Note_on_c, 10, 72, 88
16, 35039, Note_on_c, 10, 72, 0
16, 35040, Note_on_c, 10, 72, 88
16, 35099, Note_on_c, 10, 72, 0
16, 35100, Note_on_c, 10, 74, 88
16, 35129, Note_on_c, 10, 74, 0
16, 35130, Note_on_c, 10, 74, 88
16, 35159, Note_on_c, 10, 74, 0
16, 35160, Note_on_c, 10, 70, 88
16, 35219, Note_on_c, 10, 70, 0
16, 35220, Note_on_c, 10, 69, 88
16, 35279, Note_on_c, 10, 69, 0
16, 35280, Note_on_c, 10, 70, 88
16, 35399, Note_on_c, 10, 70, 0
16, 35400, Note_on_c, 10, 69, 88
16, 35519, Note_on_c, 10, 69, 0
16, 35520, Note_on_c, 10, 67, 88
16, 35639, Note_on_c, 10, 67, 0
16, 35640, Note_on_c, 10, 67, 88
16, 35759, Note_on_c, 10, 67, 0
16, 35760, Note_on_c, 10, 67, 88
16, 36239, Note_on_c, 10, 67, 0
16, 36240, Note_on_c, 10, 67, 88
16, 36359, Note_on_c, 10, 67, 0
16, 36360, Note_on_c, 10, 67, 88
16, 36479, Note_on_c, 10, 67, 0
16, 36480, Note_on_c, 10, 67, 88
16, 36959, Note_on_c, 10, 67, 0
16, 36960, Note_on_c, 10, 67, 88
16, 37439, Note_on_c, 10, 67, 0
16, 37439, End_track
17, 0, Start_track
17, 0, Title_t, "Alto "
17, 0, MIDI_port, 0
17, 0, Program_c, 11, 73
17, 0, Control_c, 11, 7, 96
17, 0, Control_c, 11, 10, 96
17, 0, Control_c, 11, 11, 127
17, 0, Note_on_c, 11, 62, 58
17, 119, Note_on_c, 11, 62, 0
17, 120, Note_on_c, 11, 62, 58
17, 179, Note_on_c, 11, 62, 0
17, 180, Note_on_c, 11, 62, 58
17, 239, Note_on_c, 11, 62, 0
17, 240, Note_on_c, 11, 67, 58
17, 359, Note_on_c, 11, 67, 0
17, 360, Note_on_c, 11, 67, 58
17, 479, Note_on_c, 11, 67, 0
17, 480, Note_on_c, 11, 69, 58
17, 719, Note_on_c, 11, 69, 0
17, 720, Note_on_c, 11, 67, 58
17, 839, Note_on_c, 11, 67, 0
17, 900, Note_on_c, 11, 67, 88
17, 959, Note_on_c, 11, 67, 0
17, 960, Note_on_c, 11, 70, 88
17, 1049, Note_on_c, 11, 70, 0
17, 1050, Note_on_c, 11, 70, 88
17, 1079, Note_on_c, 11, 70, 0
17, 1080, Note_on_c, 11, 70, 88
17, 1139, Note_on_c, 11, 70, 0
17, 1140, Note_on_c, 11, 70, 88
17, 1199, Note_on_c, 11, 70, 0
17, 1200, Note_on_c, 11, 67, 88
17, 1289, Note_on_c, 11, 67, 0
17, 1290, Note_on_c, 11, 67, 88
17, 1319, Note_on_c, 11, 67, 0
17, 1320, Note_on_c, 11, 67, 88
17, 1439, Note_on_c, 11, 67, 0
17, 1440, Note_on_c, 11, 66, 58
17, 1559, Note_on_c, 11, 66, 0
17, 1560, Note_on_c, 11, 66, 58
17, 1619, Note_on_c, 11, 66, 0
17, 1620, Note_on_c, 11, 67, 58
17, 1679, Note_on_c, 11, 67, 0
17, 1680, Note_on_c, 11, 69, 58
17, 1769, Note_on_c, 11, 69, 0
17, 1770, Note_on_c, 11, 69, 58
17, 1799, Note_on_c, 11, 69, 0
17, 1800, Note_on_c, 11, 69, 58
17, 1919, Note_on_c, 11, 69, 0
17, 1920, Note_on_c, 11, 67, 58
17, 1979, Note_on_c, 11, 67, 0
17, 1980, Note_on_c, 11, 67, 58
17, 2039, Note_on_c, 11, 67, 0
17, 2040, Note_on_c, 11, 66, 58
17, 2099, Note_on_c, 11, 66, 0
17, 2100, Note_on_c, 11, 67, 58
17, 2159, Note_on_c, 11, 67, 0
17, 2160, Note_on_c, 11, 69, 58
17, 2339, Note_on_c, 11, 69, 0
17, 2340, Note_on_c, 11, 69, 58
17, 2399, Note_on_c, 11, 69, 0
17, 2400, Note_on_c, 11, 67, 58
17, 2519, Note_on_c, 11, 67, 0
17, 2520, Note_on_c, 11, 69, 58
17, 2579, Note_on_c, 11, 69, 0
17, 2580, Note_on_c, 11, 69, 58
17, 2639, Note_on_c, 11, 69, 0
17, 2640, Note_on_c, 11, 70, 58
17, 2759, Note_on_c, 11, 70, 0
17, 2760, Note_on_c, 11, 69, 58
17, 2819, Note_on_c, 11, 69, 0
17, 2820, Note_on_c, 11, 67, 58
17, 2879, Note_on_c, 11, 67, 0
17, 2880, Note_on_c, 11, 66, 58
17, 2999, Note_on_c, 11, 66, 0
17, 3300, Note_on_c, 11, 62, 58
17, 3359, Note_on_c, 11, 62, 0
17, 3360, Note_on_c, 11, 62, 58
17, 3479, Note_on_c, 11, 62, 0
17, 3480, Note_on_c, 11, 63, 58
17, 3539, Note_on_c, 11, 63, 0
17, 3540, Note_on_c, 11, 63, 58
17, 3599, Note_on_c, 11, 63, 0
17, 3600, Note_on_c, 11, 62, 58
17, 3719, Note_on_c, 11, 62, 0
17, 3720, Note_on_c, 11, 63, 58
17, 3839, Note_on_c, 11, 63, 0
17, 3840, Note_on_c, 11, 62, 58
17, 3959, Note_on_c, 11, 62, 0
17, 4260, Note_on_c, 11, 63, 58
17, 4319, Note_on_c, 11, 63, 0
17, 4320, Note_on_c, 11, 63, 58
17, 4439, Note_on_c, 11, 63, 0
17, 4440, Note_on_c, 11, 65, 58
17, 4499, Note_on_c, 11, 65, 0
17, 4500, Note_on_c, 11, 65, 58
17, 4559, Note_on_c, 11, 65, 0
17, 4560, Note_on_c, 11, 63, 58
17, 4679, Note_on_c, 11, 63, 0
17, 4680, Note_on_c, 11, 65, 58
17, 4799, Note_on_c, 11, 65, 0
17, 4800, Note_on_c, 11, 63, 58
17, 4919, Note_on_c, 11, 63, 0
17, 5040, Note_on_c, 11, 60, 58
17, 5159, Note_on_c, 11, 60, 0
17, 5160, Note_on_c, 11, 60, 58
17, 5219, Note_on_c, 11, 60, 0
17, 5220, Note_on_c, 11, 60, 58
17, 5279, Note_on_c, 11, 60, 0
17, 5280, Note_on_c, 11, 60, 58
17, 5399, Note_on_c, 11, 60, 0
17, 5400, Note_on_c, 11, 58, 58
17, 5639, Note_on_c, 11, 58, 0
17, 5640, Note_on_c, 11, 58, 58
17, 5759, Note_on_c, 11, 58, 0
17, 5760, Note_on_c, 11, 59, 58
17, 5879, Note_on_c, 11, 59, 0
17, 5880, Note_on_c, 11, 60, 58
17, 6119, Note_on_c, 11, 60, 0
17, 6120, Note_on_c, 11, 59, 58
17, 6239, Note_on_c, 11, 59, 0
17, 6240, Note_on_c, 11, 60, 58
17, 6359, Note_on_c, 11, 60, 0
17, 6960, Note_on_c, 11, 68, 58
17, 7079, Note_on_c, 11, 68, 0
17, 7080, Note_on_c, 11, 68, 58
17, 7139, Note_on_c, 11, 68, 0
17, 7140, Note_on_c, 11, 68, 58
17, 7199, Note_on_c, 11, 68, 0
17, 7200, Note_on_c, 11, 68, 58
17, 7319, Note_on_c, 11, 68, 0
17, 7320, Note_on_c, 11, 67, 58
17, 7439, Note_on_c, 11, 67, 0
17, 7440, Note_on_c, 11, 68, 58
17, 7559, Note_on_c, 11, 68, 0
17, 7620, Note_on_c, 11, 68, 88
17, 7679, Note_on_c, 11, 68, 0
17, 7680, Note_on_c, 11, 66, 88
17, 7799, Note_on_c, 11, 66, 0
17, 7800, Note_on_c, 11, 65, 88
17, 7859, Note_on_c, 11, 65, 0
17, 7860, Note_on_c, 11, 65, 88
17, 7919, Note_on_c, 11, 65, 0
17, 7920, Note_on_c, 11, 64, 88
17, 8039, Note_on_c, 11, 64, 0
17, 8040, Note_on_c, 11, 65, 88
17, 8099, Note_on_c, 11, 65, 0
17, 8400, Note_on_c, 11, 70, 58
17, 8519, Note_on_c, 11, 70, 0
17, 8520, Note_on_c, 11, 70, 58
17, 8579, Note_on_c, 11, 70, 0
17, 8580, Note_on_c, 11, 70, 58
17, 8639, Note_on_c, 11, 70, 0
17, 8640, Note_on_c, 11, 70, 58
17, 8759, Note_on_c, 11, 70, 0
17, 8760, Note_on_c, 11, 69, 58
17, 8879, Note_on_c, 11, 69, 0
17, 8880, Note_on_c, 11, 70, 58
17, 8999, Note_on_c, 11, 70, 0
17, 9060, Note_on_c, 11, 70, 88
17, 9119, Note_on_c, 11, 70, 0
17, 9120, Note_on_c, 11, 68, 88
17, 9239, Note_on_c, 11, 68, 0
17, 9240, Note_on_c, 11, 67, 88
17, 9299, Note_on_c, 11, 67, 0
17, 9300, Note_on_c, 11, 67, 88
17, 9359, Note_on_c, 11, 67, 0
17, 9360, Note_on_c, 11, 66, 88
17, 9479, Note_on_c, 11, 66, 0
17, 9480, Note_on_c, 11, 67, 88
17, 9539, Note_on_c, 11, 67, 0
17, 10680, Note_on_c, 11, 72, 88
17, 10739, Note_on_c, 11, 72, 0
17, 10740, Note_on_c, 11, 72, 88
17, 10799, Note_on_c, 11, 72, 0
17, 10800, Note_on_c, 11, 62, 88
17, 10859, Note_on_c, 11, 62, 0
17, 10860, Note_on_c, 11, 62, 88
17, 10889, Note_on_c, 11, 62, 0
17, 10890, Note_on_c, 11, 62, 88
17, 10919, Note_on_c, 11, 62, 0
17, 10920, Note_on_c, 11, 70, 88
17, 10979, Note_on_c, 11, 70, 0
17, 10980, Note_on_c, 11, 70, 88
17, 11039, Note_on_c, 11, 70, 0
17, 11040, Note_on_c, 11, 60, 88
17, 11129, Note_on_c, 11, 60, 0
17, 11130, Note_on_c, 11, 60, 88
17, 11159, Note_on_c, 11, 60, 0
17, 11160, Note_on_c, 11, 69, 88
17, 11219, Note_on_c, 11, 69, 0
17, 11220, Note_on_c, 11, 69, 88
17, 11279, Note_on_c, 11, 69, 0
17, 11280, Note_on_c, 11, 58, 88
17, 11339, Note_on_c, 11, 58, 0
17, 11340, Note_on_c, 11, 69, 88
17, 11399, Note_on_c, 11, 69, 0
17, 11400, Note_on_c, 11, 67, 88
17, 11459, Note_on_c, 11, 67, 0
17, 11460, Note_on_c, 11, 58, 88
17, 11519, Note_on_c, 11, 58, 0
17, 11520, Note_on_c, 11, 57, 88
17, 11579, Note_on_c, 11, 57, 0
17, 11580, Note_on_c, 11, 65, 88
17, 11639, Note_on_c, 11, 65, 0
17, 11820, Note_on_c, 11, 69, 88
17, 11879, Note_on_c, 11, 69, 0
17, 11880, Note_on_c, 11, 67, 88
17, 11939, Note_on_c, 11, 67, 0
17, 11940, Note_on_c, 11, 70, 88
17, 11999, Note_on_c, 11, 70, 0
17, 12060, Note_on_c, 11, 67, 88
17, 12119, Note_on_c, 11, 67, 0
17, 12120, Note_on_c, 11, 65, 88
17, 12179, Note_on_c, 11, 65, 0
17, 12180, Note_on_c, 11, 69, 88
17, 12239, Note_on_c, 11, 69, 0
17, 12240, Note_on_c, 11, 67, 88
17, 12299, Note_on_c, 11, 67, 0
17, 12300, Note_on_c, 11, 67, 88
17, 12359, Note_on_c, 11, 67, 0
17, 12360, Note_on_c, 11, 67, 88
17, 12419, Note_on_c, 11, 67, 0
17, 12420, Note_on_c, 11, 64, 88
17, 12479, Note_on_c, 11, 64, 0
17, 12480, Note_on_c, 11, 62, 88
17, 12539, Note_on_c, 11, 62, 0
17, 12540, Note_on_c, 11, 65, 88
17, 12599, Note_on_c, 11, 65, 0
17, 12600, Note_on_c, 11, 69, 88
17, 12659, Note_on_c, 11, 69, 0
17, 12660, Note_on_c, 11, 74, 88
17, 12719, Note_on_c, 11, 74, 0
17, 12900, Note_on_c, 11, 67, 88
17, 12959, Note_on_c, 11, 67, 0
17, 12960, Note_on_c, 11, 65, 88
17, 13019, Note_on_c, 11, 65, 0
17, 13020, Note_on_c, 11, 65, 88
17, 13079, Note_on_c, 11, 65, 0
17, 13140, Note_on_c, 11, 70, 88
17, 13199, Note_on_c, 11, 70, 0
17, 13200, Note_on_c, 11, 70, 88
17, 13259, Note_on_c, 11, 70, 0
17, 13260, Note_on_c, 11, 69, 88
17, 13289, Note_on_c, 11, 69, 0
17, 13290, Note_on_c, 11, 67, 88
17, 13319, Note_on_c, 11, 67, 0
17, 13320, Note_on_c, 11, 66, 88
17, 13379, Note_on_c, 11, 66, 0
17, 13380, Note_on_c, 11, 66, 88
17, 13439, Note_on_c, 11, 66, 0
17, 13440, Note_on_c, 11, 67, 88
17, 13499, Note_on_c, 11, 67, 0
17, 13500, Note_on_c, 11, 70, 88
17, 13559, Note_on_c, 11, 70, 0
17, 13620, Note_on_c, 11, 74, 88
17, 13679, Note_on_c, 11, 74, 0
17, 13680, Note_on_c, 11, 70, 88
17, 13739, Note_on_c, 11, 70, 0
17, 13740, Note_on_c, 11, 67, 88
17, 13799, Note_on_c, 11, 67, 0
17, 13980, Note_on_c, 11, 67, 88
17, 14039, Note_on_c, 11, 67, 0
17, 14040, Note_on_c, 11, 66, 88
17, 14099, Note_on_c, 11, 66, 0
17, 14100, Note_on_c, 11, 66, 88
17, 14159, Note_on_c, 11, 66, 0
17, 14400, Note_on_c, 11, 58, 58
17, 14519, Note_on_c, 11, 58, 0
17, 14520, Note_on_c, 11, 58, 58
17, 14639, Note_on_c, 11, 58, 0
17, 14640, Note_on_c, 11, 60, 58
17, 14819, Note_on_c, 11, 60, 0
17, 14820, Note_on_c, 11, 58, 58
17, 14879, Note_on_c, 11, 58, 0
17, 14880, Note_on_c, 11, 57, 58
17, 14999, Note_on_c, 11, 57, 0
17, 15120, Control_c, 11, 10, 60
17, 16080, Note_on_c, 11, 60, 73
17, 16319, Note_on_c, 11, 60, 0
17, 16320, Note_on_c, 11, 63, 73
17, 16439, Note_on_c, 11, 63, 0
17, 16440, Note_on_c, 11, 63, 73
17, 16499, Note_on_c, 11, 63, 0
17, 16500, Note_on_c, 11, 63, 73
17, 16559, Note_on_c, 11, 63, 0
17, 16560, Note_on_c, 11, 67, 73
17, 16679, Note_on_c, 11, 67, 0
17, 16680, Note_on_c, 11, 67, 73
17, 16799, Note_on_c, 11, 67, 0
17, 16800, Note_on_c, 11, 64, 73
17, 16979, Note_on_c, 11, 64, 0
17, 16980, Note_on_c, 11, 64, 73
17, 17039, Note_on_c, 11, 64, 0
17, 17040, Note_on_c, 11, 65, 73
17, 17159, Note_on_c, 11, 65, 0
17, 17160, Note_on_c, 11, 60, 73
17, 17339, Note_on_c, 11, 60, 0
17, 17340, Note_on_c, 11, 68, 73
17, 17399, Note_on_c, 11, 68, 0
17, 17400, Note_on_c, 11, 67, 73
17, 17459, Note_on_c, 11, 67, 0
17, 17460, Note_on_c, 11, 65, 73
17, 17519, Note_on_c, 11, 65, 0
17, 17520, Note_on_c, 11, 64, 73
17, 17579, Note_on_c, 11, 64, 0
17, 17580, Note_on_c, 11, 62, 73
17, 17639, Note_on_c, 11, 62, 0
17, 17640, Note_on_c, 11, 60, 73
17, 17699, Note_on_c, 11, 60, 0
17, 17700, Note_on_c, 11, 62, 73
17, 17759, Note_on_c, 11, 62, 0
17, 17760, Note_on_c, 11, 63, 73
17, 17819, Note_on_c, 11, 63, 0
17, 17820, Note_on_c, 11, 67, 73
17, 17879, Note_on_c, 11, 67, 0
17, 17880, Note_on_c, 11, 65, 73
17, 17939, Note_on_c, 11, 65, 0
17, 17940, Note_on_c, 11, 63, 73
17, 17999, Note_on_c, 11, 63, 0
17, 18000, Note_on_c, 11, 62, 73
17, 18119, Note_on_c, 11, 62, 0
17, 18360, Note_on_c, 11, 62, 73
17, 18479, Note_on_c, 11, 62, 0
17, 18480, Note_on_c, 11, 60, 73
17, 18599, Note_on_c, 11, 60, 0
17, 18600, Note_on_c, 11, 60, 73
17, 18719, Note_on_c, 11, 60, 0
17, 18720, Note_on_c, 11, 65, 73
17, 18959, Note_on_c, 11, 65, 0
17, 18960, Note_on_c, 11, 58, 73
17, 19019, Note_on_c, 11, 58, 0
17, 19020, Note_on_c, 11, 67, 73
17, 19079, Note_on_c, 11, 67, 0
17, 19080, Note_on_c, 11, 66, 73
17, 19139, Note_on_c, 11, 66, 0
17, 19140, Note_on_c, 11, 67, 73
17, 19199, Note_on_c, 11, 67, 0
17, 19200, Note_on_c, 11, 69, 73
17, 19379, Note_on_c, 11, 69, 0
17, 19380, Note_on_c, 11, 69, 73
17, 19439, Note_on_c, 11, 69, 0
17, 19440, Note_on_c, 11, 67, 73
17, 19499, Note_on_c, 11, 67, 0
17, 19500, Note_on_c, 11, 67, 73
17, 19559, Note_on_c, 11, 67, 0
17, 19560, Note_on_c, 11, 66, 73
17, 19619, Note_on_c, 11, 66, 0
17, 19620, Note_on_c, 11, 67, 73
17, 19679, Note_on_c, 11, 67, 0
17, 19680, Note_on_c, 11, 69, 73
17, 19919, Note_on_c, 11, 69, 0
17, 19920, Note_on_c, 11, 67, 73
17, 19979, Note_on_c, 11, 67, 0
17, 19980, Note_on_c, 11, 67, 73
17, 20039, Note_on_c, 11, 67, 0
17, 20040, Note_on_c, 11, 69, 73
17, 20099, Note_on_c, 11, 69, 0
17, 20100, Note_on_c, 11, 69, 73
17, 20159, Note_on_c, 11, 69, 0
17, 20160, Note_on_c, 11, 70, 73
17, 20279, Note_on_c, 11, 70, 0
17, 20280, Note_on_c, 11, 69, 73
17, 20339, Note_on_c, 11, 69, 0
17, 20340, Note_on_c, 11, 67, 73
17, 20399, Note_on_c, 11, 67, 0
17, 20400, Note_on_c, 11, 66, 73
17, 20519, Note_on_c, 11, 66, 0
17, 20640, Control_c, 11, 10, 96
17, 22620, Note_on_c, 11, 67, 88
17, 22679, Note_on_c, 11, 67, 0
17, 22680, Note_on_c, 11, 67, 88
17, 22739, Note_on_c, 11, 67, 0
17, 22740, Note_on_c, 11, 67, 88
17, 22799, Note_on_c, 11, 67, 0
17, 22800, Note_on_c, 11, 67, 88
17, 22889, Note_on_c, 11, 67, 0
17, 22890, Note_on_c, 11, 66, 88
17, 22919, Note_on_c, 11, 66, 0
17, 22920, Note_on_c, 11, 66, 88
17, 23039, Note_on_c, 11, 66, 0
17, 23100, Note_on_c, 11, 72, 88
17, 23219, Note_on_c, 11, 72, 0
17, 23220, Note_on_c, 11, 72, 88
17, 23279, Note_on_c, 11, 72, 0
17, 23280, Note_on_c, 11, 72, 88
17, 23399, Note_on_c, 11, 72, 0
17, 23400, Note_on_c, 11, 70, 88
17, 23519, Note_on_c, 11, 70, 0
17, 23580, Note_on_c, 11, 70, 88
17, 23639, Note_on_c, 11, 70, 0
17, 23640, Note_on_c, 11, 67, 88
17, 23699, Note_on_c, 11, 67, 0
17, 23700, Note_on_c, 11, 69, 88
17, 23729, Note_on_c, 11, 69, 0
17, 23730, Note_on_c, 11, 70, 88
17, 23759, Note_on_c, 11, 70, 0
17, 23760, Note_on_c, 11, 64, 88
17, 23879, Note_on_c, 11, 64, 0
17, 23880, Note_on_c, 11, 69, 88
17, 23999, Note_on_c, 11, 69, 0
17, 24060, Note_on_c, 11, 72, 88
17, 24119, Note_on_c, 11, 72, 0
17, 24120, Note_on_c, 11, 72, 88
17, 24179, Note_on_c, 11, 72, 0
17, 24180, Note_on_c, 11, 72, 88
17, 24239, Note_on_c, 11, 72, 0
17, 24240, Note_on_c, 11, 72, 88
17, 24329, Note_on_c, 11, 72, 0
17, 24330, Note_on_c, 11, 71, 88
17, 24359, Note_on_c, 11, 71, 0
17, 24360, Note_on_c, 11, 71, 88
17, 24479, Note_on_c, 11, 71, 0
17, 24540, Note_on_c, 11, 70, 88
17, 24659, Note_on_c, 11, 70, 0
17, 24660, Note_on_c, 11, 70, 88
17, 24719, Note_on_c, 11, 70, 0
17, 24720, Note_on_c, 11, 70, 88
17, 24839, Note_on_c, 11, 70, 0
17, 24840, Note_on_c, 11, 69, 88
17, 24959, Note_on_c, 11, 69, 0
17, 25260, Note_on_c, 11, 67, 88
17, 25319, Note_on_c, 11, 67, 0
17, 25320, Note_on_c, 11, 63, 88
17, 25379, Note_on_c, 11, 63, 0
17, 25380, Note_on_c, 11, 65, 88
17, 25409, Note_on_c, 11, 65, 0
17, 25410, Note_on_c, 11, 67, 88
17, 25439, Note_on_c, 11, 67, 0
17, 25440, Note_on_c, 11, 60, 88
17, 25559, Note_on_c, 11, 60, 0
17, 25560, Note_on_c, 11, 65, 88
17, 25679, Note_on_c, 11, 65, 0
17, 25740, Note_on_c, 11, 72, 88
17, 25799, Note_on_c, 11, 72, 0
17, 25800, Note_on_c, 11, 72, 88
17, 25859, Note_on_c, 11, 72, 0
17, 25860, Note_on_c, 11, 72, 88
17, 25919, Note_on_c, 11, 72, 0
17, 25920, Note_on_c, 11, 72, 88
17, 26009, Note_on_c, 11, 72, 0
17, 26010, Note_on_c, 11, 71, 88
17, 26039, Note_on_c, 11, 71, 0
17, 26040, Note_on_c, 11, 71, 88
17, 26159, Note_on_c, 11, 71, 0
17, 26460, Note_on_c, 11, 68, 88
17, 26519, Note_on_c, 11, 68, 0
17, 26520, Note_on_c, 11, 65, 88
17, 26579, Note_on_c, 11, 65, 0
17, 26580, Note_on_c, 11, 67, 88
17, 26609, Note_on_c, 11, 67, 0
17, 26610, Note_on_c, 11, 68, 88
17, 26639, Note_on_c, 11, 68, 0
17, 26640, Note_on_c, 11, 62, 88
17, 26759, Note_on_c, 11, 62, 0
17, 26760, Note_on_c, 11, 67, 88
17, 26879, Note_on_c, 11, 67, 0
17, 26940, Note_on_c, 11, 74, 88
17, 27059, Note_on_c, 11, 74, 0
17, 27060, Note_on_c, 11, 74, 88
17, 27119, Note_on_c, 11, 74, 0
17, 27120, Note_on_c, 11, 74, 88
17, 27239, Note_on_c, 11, 74, 0
17, 27240, Note_on_c, 11, 73, 88
17, 27359, Note_on_c, 11, 73, 0
17, 27660, Note_on_c, 11, 67, 88
17, 27719, Note_on_c, 11, 67, 0
17, 27720, Note_on_c, 11, 67, 88
17, 27779, Note_on_c, 11, 67, 0
17, 27780, Note_on_c, 11, 69, 88
17, 27839, Note_on_c, 11, 69, 0
17, 27840, Note_on_c, 11, 69, 88
17, 27929, Note_on_c, 11, 69, 0
17, 27930, Note_on_c, 11, 72, 88
17, 27959, Note_on_c, 11, 72, 0
17, 27960, Note_on_c, 11, 70, 88
17, 28079, Note_on_c, 11, 70, 0
17, 28140, Note_on_c, 11, 67, 88
17, 28199, Note_on_c, 11, 67, 0
17, 28200, Note_on_c, 11, 66, 88
17, 28259, Note_on_c, 11, 66, 0
17, 28260, Note_on_c, 11, 66, 88
17, 28319, Note_on_c, 11, 66, 0
17, 28320, Note_on_c, 11, 66, 88
17, 28379, Note_on_c, 11, 66, 0
17, 28380, Note_on_c, 11, 72, 88
17, 28439, Note_on_c, 11, 72, 0
17, 28440, Note_on_c, 11, 70, 88
17, 28499, Note_on_c, 11, 70, 0
17, 28500, Note_on_c, 11, 70, 88
17, 28559, Note_on_c, 11, 70, 0
17, 28560, Note_on_c, 11, 70, 88
17, 28679, Note_on_c, 11, 70, 0
17, 28680, Note_on_c, 11, 69, 88
17, 28739, Note_on_c, 11, 69, 0
17, 28740, Note_on_c, 11, 67, 88
17, 28799, Note_on_c, 11, 67, 0
17, 28800, Note_on_c, 11, 66, 88
17, 28919, Note_on_c, 11, 66, 0
17, 29100, Note_on_c, 11, 67, 88
17, 29159, Note_on_c, 11, 67, 0
17, 29160, Note_on_c, 11, 67, 88
17, 29219, Note_on_c, 11, 67, 0
17, 29220, Note_on_c, 11, 67, 88
17, 29279, Note_on_c, 11, 67, 0
17, 29280, Note_on_c, 11, 67, 88
17, 29369, Note_on_c, 11, 67, 0
17, 29370, Note_on_c, 11, 69, 88
17, 29399, Note_on_c, 11, 69, 0
17, 29400, Note_on_c, 11, 69, 88
17, 29519, Note_on_c, 11, 69, 0
17, 29580, Note_on_c, 11, 66, 88
17, 29699, Note_on_c, 11, 66, 0
17, 29700, Note_on_c, 11, 66, 88
17, 29759, Note_on_c, 11, 66, 0
17, 29760, Note_on_c, 11, 66, 88
17, 29819, Note_on_c, 11, 66, 0
17, 29820, Note_on_c, 11, 67, 88
17, 29879, Note_on_c, 11, 67, 0
17, 29880, Note_on_c, 11, 67, 88
17, 29999, Note_on_c, 11, 67, 0
17, 30060, Note_on_c, 11, 64, 88
17, 30119, Note_on_c, 11, 64, 0
17, 30120, Note_on_c, 11, 64, 88
17, 30179, Note_on_c, 11, 64, 0
17, 30180, Note_on_c, 11, 64, 88
17, 30239, Note_on_c, 11, 64, 0
17, 30240, Note_on_c, 11, 64, 88
17, 30329, Note_on_c, 11, 64, 0
17, 30330, Note_on_c, 11, 66, 88
17, 30359, Note_on_c, 11, 66, 0
17, 30360, Note_on_c, 11, 66, 88
17, 30479, Note_on_c, 11, 66, 0
17, 30540, Note_on_c, 11, 67, 88
17, 30659, Note_on_c, 11, 67, 0
17, 30660, Note_on_c, 11, 67, 88
17, 30719, Note_on_c, 11, 67, 0
17, 30720, Note_on_c, 11, 70, 88
17, 30779, Note_on_c, 11, 70, 0
17, 30780, Note_on_c, 11, 67, 88
17, 30839, Note_on_c, 11, 67, 0
17, 30840, Note_on_c, 11, 67, 88
17, 30959, Note_on_c, 11, 67, 0
17, 31080, Note_on_c, 11, 64, 58
17, 31199, Note_on_c, 11, 64, 0
17, 31200, Note_on_c, 11, 62, 58
17, 31319, Note_on_c, 11, 62, 0
17, 31320, Note_on_c, 11, 61, 58
17, 31379, Note_on_c, 11, 61, 0
17, 31380, Note_on_c, 11, 61, 58
17, 31439, Note_on_c, 11, 61, 0
17, 31440, Note_on_c, 11, 62, 58
17, 31679, Note_on_c, 11, 62, 0
17, 31680, Note_on_c, 11, 62, 58
17, 31799, Note_on_c, 11, 62, 0
17, 32040, Note_on_c, 11, 70, 58
17, 32159, Note_on_c, 11, 70, 0
17, 32160, Note_on_c, 11, 69, 58
17, 32519, Note_on_c, 11, 69, 0
17, 32520, Note_on_c, 11, 70, 58
17, 32579, Note_on_c, 11, 70, 0
17, 32580, Note_on_c, 11, 69, 58
17, 32639, Note_on_c, 11, 69, 0
17, 32640, Note_on_c, 11, 67, 58
17, 32939, Note_on_c, 11, 67, 0
17, 32940, Note_on_c, 11, 65, 58
17, 32999, Note_on_c, 11, 65, 0
17, 33000, Note_on_c, 11, 63, 58
17, 33059, Note_on_c, 11, 63, 0
17, 33060, Note_on_c, 11, 63, 58
17, 33119, Note_on_c, 11, 63, 0
17, 33120, Note_on_c, 11, 62, 58
17, 33239, Note_on_c, 11, 62, 0
17, 33240, Note_on_c, 11, 62, 58
17, 33299, Note_on_c, 11, 62, 0
17, 33300, Note_on_c, 11, 67, 58
17, 33359, Note_on_c, 11, 67, 0
17, 33360, Note_on_c, 11, 67, 58
17, 33479, Note_on_c, 11, 67, 0
17, 33480, Note_on_c, 11, 66, 58
17, 33599, Note_on_c, 11, 66, 0
17, 33600, Note_on_c, 11, 67, 58
17, 33719, Note_on_c, 11, 67, 0
17, 33900, Note_on_c, 11, 67, 88
17, 33959, Note_on_c, 11, 67, 0
17, 33960, Note_on_c, 11, 70, 88
17, 34019, Note_on_c, 11, 70, 0
17, 34020, Note_on_c, 11, 67, 88
17, 34079, Note_on_c, 11, 67, 0
17, 34080, Note_on_c, 11, 69, 88
17, 34169, Note_on_c, 11, 69, 0
17, 34170, Note_on_c, 11, 69, 88
17, 34199, Note_on_c, 11, 69, 0
17, 34200, Note_on_c, 11, 69, 88
17, 34319, Note_on_c, 11, 69, 0
17, 34380, Note_on_c, 11, 65, 88
17, 34439, Note_on_c, 11, 65, 0
17, 34440, Note_on_c, 11, 69, 88
17, 34499, Note_on_c, 11, 69, 0
17, 34500, Note_on_c, 11, 65, 88
17, 34559, Note_on_c, 11, 65, 0
17, 34560, Note_on_c, 11, 67, 88
17, 34679, Note_on_c, 11, 67, 0
17, 34680, Note_on_c, 11, 67, 88
17, 34799, Note_on_c, 11, 67, 0
17, 34860, Note_on_c, 11, 67, 88
17, 34919, Note_on_c, 11, 67, 0
17, 34920, Note_on_c, 11, 67, 88
17, 34979, Note_on_c, 11, 67, 0
17, 34980, Note_on_c, 11, 67, 88
17, 35039, Note_on_c, 11, 67, 0
17, 35040, Note_on_c, 11, 66, 88
17, 35099, Note_on_c, 11, 66, 0
17, 35100, Note_on_c, 11, 69, 88
17, 35129, Note_on_c, 11, 69, 0
17, 35130, Note_on_c, 11, 69, 88
17, 35159, Note_on_c, 11, 69, 0
17, 35160, Note_on_c, 11, 67, 88
17, 35219, Note_on_c, 11, 67, 0
17, 35220, Note_on_c, 11, 67, 88
17, 35279, Note_on_c, 11, 67, 0
17, 35280, Note_on_c, 11, 67, 88
17, 35399, Note_on_c, 11, 67, 0
17, 35400, Note_on_c, 11, 66, 88
17, 35519, Note_on_c, 11, 66, 0
17, 35520, Note_on_c, 11, 67, 88
17, 35639, Note_on_c, 11, 67, 0
17, 35880, Note_on_c, 11, 62, 88
17, 35999, Note_on_c, 11, 62, 0
17, 36000, Note_on_c, 11, 63, 88
17, 36119, Note_on_c, 11, 63, 0
17, 36120, Note_on_c, 11, 62, 88
17, 36179, Note_on_c, 11, 62, 0
17, 36180, Note_on_c, 11, 62, 88
17, 36239, Note_on_c, 11, 62, 0
17, 36240, Note_on_c, 11, 63, 88
17, 36359, Note_on_c, 11, 63, 0
17, 36360, Note_on_c, 11, 65, 88
17, 36419, Note_on_c, 11, 65, 0
17, 36420, Note_on_c, 11, 65, 88
17, 36479, Note_on_c, 11, 65, 0
17, 36480, Note_on_c, 11, 63, 88
17, 36959, Note_on_c, 11, 63, 0
17, 36960, Note_on_c, 11, 62, 88
17, 37439, Note_on_c, 11, 62, 0
17, 37439, End_track
18, 0, Start_track
18, 0, Title_t, "Tenor "
18, 0, MIDI_port, 0
18, 0, Program_c, 12, 70
18, 0, Control_c, 12, 7, 96
18, 0, Control_c, 12, 10, 48
18, 0, Control_c, 12, 11, 127
18, 0, Note_on_c, 12, 58, 58
18, 119, Note_on_c, 12, 58, 0
18, 120, Note_on_c, 12, 58, 58
18, 179, Note_on_c, 12, 58, 0
18, 180, Note_on_c, 12, 58, 58
18, 239, Note_on_c, 12, 58, 0
18, 240, Note_on_c, 12, 62, 58
18, 359, Note_on_c, 12, 62, 0
18, 360, Note_on_c, 12, 62, 58
18, 479, Note_on_c, 12, 62, 0
18, 480, Note_on_c, 12, 62, 58
18, 719, Note_on_c, 12, 62, 0
18, 720, Note_on_c, 12, 62, 58
18, 839, Note_on_c, 12, 62, 0
18, 900, Note_on_c, 12, 58, 88
18, 959, Note_on_c, 12, 58, 0
18, 960, Note_on_c, 12, 63, 88
18, 1049, Note_on_c, 12, 63, 0
18, 1050, Note_on_c, 12, 63, 88
18, 1079, Note_on_c, 12, 63, 0
18, 1080, Note_on_c, 12, 62, 88
18, 1139, Note_on_c, 12, 62, 0
18, 1140, Note_on_c, 12, 62, 88
18, 1199, Note_on_c, 12, 62, 0
18, 1200, Note_on_c, 12, 60, 88
18, 1289, Note_on_c, 12, 60, 0
18, 1290, Note_on_c, 12, 60, 88
18, 1319, Note_on_c, 12, 60, 0
18, 1320, Note_on_c, 12, 58, 88
18, 1439, Note_on_c, 12, 58, 0
18, 1560, Note_on_c, 12, 63, 58
18, 1739, Note_on_c, 12, 63, 0
18, 1740, Note_on_c, 12, 60, 58
18, 1799, Note_on_c, 12, 60, 0
18, 1800, Note_on_c, 12, 62, 58
18, 1859, Note_on_c, 12, 62, 0
18, 1860, Note_on_c, 12, 63, 58
18, 1919, Note_on_c, 12, 63, 0
18, 1920, Note_on_c, 12, 62, 58
18, 1979, Note_on_c, 12, 62, 0
18, 1980, Note_on_c, 12, 60, 58
18, 2009, Note_on_c, 12, 60, 0
18, 2010, Note_on_c, 12, 58, 58
18, 2039, Note_on_c, 12, 58, 0
18, 2040, Note_on_c, 12, 63, 58
18, 2219, Note_on_c, 12, 63, 0
18, 2220, Note_on_c, 12, 60, 58
18, 2279, Note_on_c, 12, 60, 0
18, 2280, Note_on_c, 12, 62, 58
18, 2339, Note_on_c, 12, 62, 0
18, 2340, Note_on_c, 12, 63, 58
18, 2399, Note_on_c, 12, 63, 0
18, 2400, Note_on_c, 12, 62, 58
18, 2459, Note_on_c, 12, 62, 0
18, 2460, Note_on_c, 12, 60, 58
18, 2489, Note_on_c, 12, 60, 0
18, 2490, Note_on_c, 12, 58, 58
18, 2519, Note_on_c, 12, 58, 0
18, 2520, Note_on_c, 12, 57, 58
18, 2579, Note_on_c, 12, 57, 0
18, 2580, Note_on_c, 12, 57, 58
18, 2639, Note_on_c, 12, 57, 0
18, 2640, Note_on_c, 12, 55, 58
18, 2759, Note_on_c, 12, 55, 0
18, 2760, Note_on_c, 12, 54, 58
18, 2819, Note_on_c, 12, 54, 0
18, 2820, Note_on_c, 12, 55, 58
18, 2879, Note_on_c, 12, 55, 0
18, 2880, Note_on_c, 12, 57, 58
18, 2999, Note_on_c, 12, 57, 0
18, 3300, Note_on_c, 12, 58, 58
18, 3359, Note_on_c, 12, 58, 0
18, 3360, Note_on_c, 12, 58, 58
18, 3479, Note_on_c, 12, 58, 0
18, 3480, Note_on_c, 12, 60, 58
18, 3539, Note_on_c, 12, 60, 0
18, 3540, Note_on_c, 12, 60, 58
18, 3599, Note_on_c, 12, 60, 0
18, 3600, Note_on_c, 12, 58, 58
18, 3719, Note_on_c, 12, 58, 0
18, 3720, Note_on_c, 12, 57, 58
18, 3839, Note_on_c, 12, 57, 0
18, 3840, Note_on_c, 12, 58, 58
18, 3959, Note_on_c, 12, 58, 0
18, 4260, Note_on_c, 12, 60, 58
18, 4319, Note_on_c, 12, 60, 0
18, 4320, Note_on_c, 12, 60, 58
18, 4439, Note_on_c, 12, 60, 0
18, 4440, Note_on_c, 12, 62, 58
18, 4499, Note_on_c, 12, 62, 0
18, 4500, Note_on_c, 12, 62, 58
18, 4559, Note_on_c, 12, 62, 0
18, 4560, Note_on_c, 12, 60, 58
18, 4679, Note_on_c, 12, 60, 0
18, 4680, Note_on_c, 12, 59, 58
18, 4799, Note_on_c, 12, 59, 0
18, 4800, Note_on_c, 12, 60, 58
18, 4919, Note_on_c, 12, 60, 0
18, 5040, Note_on_c, 12, 56, 58
18, 5159, Note_on_c, 12, 56, 0
18, 5160, Note_on_c, 12, 56, 58
18, 5219, Note_on_c, 12, 56, 0
18, 5220, Note_on_c, 12, 55, 58
18, 5279, Note_on_c, 12, 55, 0
18, 5280, Note_on_c, 12, 53, 58
18, 5519, Note_on_c, 12, 53, 0
18, 5520, Note_on_c, 12, 52, 58
18, 5759, Note_on_c, 12, 52, 0
18, 5760, Note_on_c, 12, 53, 58
18, 5879, Note_on_c, 12, 53, 0
18, 5880, Note_on_c, 12, 51, 58
18, 5969, Note_on_c, 12, 51, 0
18, 5970, Note_on_c, 12, 53, 58
18, 5999, Note_on_c, 12, 53, 0
18, 6000, Note_on_c, 12, 55, 58
18, 6179, Note_on_c, 12, 55, 0
18, 6180, Note_on_c, 12, 53, 58
18, 6239, Note_on_c, 12, 53, 0
18, 6240, Note_on_c, 12, 51, 58
18, 6359, Note_on_c, 12, 51, 0
18, 6960, Note_on_c, 12, 56, 58
18, 7079, Note_on_c, 12, 56, 0
18, 7080, Note_on_c, 12, 56, 58
18, 7139, Note_on_c, 12, 56, 0
18, 7140, Note_on_c, 12, 56, 58
18, 7199, Note_on_c, 12, 56, 0
18, 7200, Note_on_c, 12, 58, 58
18, 7439, Note_on_c, 12, 58, 0
18, 7440, Note_on_c, 12, 60, 58
18, 7559, Note_on_c, 12, 60, 0
18, 7620, Note_on_c, 12, 56, 88
18, 7679, Note_on_c, 12, 56, 0
18, 7680, Note_on_c, 12, 66, 88
18, 7799, Note_on_c, 12, 66, 0
18, 7800, Note_on_c, 12, 65, 88
18, 7859, Note_on_c, 12, 65, 0
18, 7860, Note_on_c, 12, 65, 88
18, 7919, Note_on_c, 12, 65, 0
18, 7920, Note_on_c, 12, 64, 88
18, 8039, Note_on_c, 12, 64, 0
18, 8040, Note_on_c, 12, 65, 88
18, 8099, Note_on_c, 12, 65, 0
18, 8400, Note_on_c, 12, 64, 58
18, 8519, Note_on_c, 12, 64, 0
18, 8520, Note_on_c, 12, 64, 58
18, 8579, Note_on_c, 12, 64, 0
18, 8580, Note_on_c, 12, 64, 58
18, 8639, Note_on_c, 12, 64, 0
18, 8640, Note_on_c, 12, 61, 58
18, 8759, Note_on_c, 12, 61, 0
18, 8760, Note_on_c, 12, 60, 58
18, 8879, Note_on_c, 12, 60, 0
18, 8880, Note_on_c, 12, 58, 58
18, 8999, Note_on_c, 12, 58, 0
18, 9060, Note_on_c, 12, 58, 88
18, 9119, Note_on_c, 12, 58, 0
18, 9120, Note_on_c, 12, 56, 88
18, 9239, Note_on_c, 12, 56, 0
18, 9240, Note_on_c, 12, 55, 88
18, 9299, Note_on_c, 12, 55, 0
18, 9300, Note_on_c, 12, 55, 88
18, 9359, Note_on_c, 12, 55, 0
18, 9360, Note_on_c, 12, 54, 88
18, 9479, Note_on_c, 12, 54, 0
18, 9480, Note_on_c, 12, 55, 88
18, 9539, Note_on_c, 12, 55, 0
18, 9720, Note_on_c, 12, 67, 88
18, 9779, Note_on_c, 12, 67, 0
18, 9780, Note_on_c, 12, 67, 88
18, 9839, Note_on_c, 12, 67, 0
18, 9840, Note_on_c, 12, 56, 88
18, 9899, Note_on_c, 12, 56, 0
18, 9900, Note_on_c, 12, 56, 88
18, 9929, Note_on_c, 12, 56, 0
18, 9930, Note_on_c, 12, 56, 88
18, 9959, Note_on_c, 12, 56, 0
18, 9960, Note_on_c, 12, 65, 88
18, 10019, Note_on_c, 12, 65, 0
18, 10020, Note_on_c, 12, 65, 88
18, 10079, Note_on_c, 12, 65, 0
18, 10080, Note_on_c, 12, 55, 88
18, 10169, Note_on_c, 12, 55, 0
18, 10170, Note_on_c, 12, 55, 88
18, 10199, Note_on_c, 12, 55, 0
18, 10200, Note_on_c, 12, 63, 88
18, 10259, Note_on_c, 12, 63, 0
18, 10260, Note_on_c, 12, 63, 88
18, 10319, Note_on_c, 12, 63, 0
18, 10320, Note_on_c, 12, 53, 88
18, 10379, Note_on_c, 12, 53, 0
18, 10380, Note_on_c, 12, 63, 88
18, 10439, Note_on_c, 12, 63, 0
18, 10440, Note_on_c, 12, 62, 88
18, 10499, Note_on_c, 12, 62, 0
18, 10500, Note_on_c, 12, 53, 88
18, 10559, Note_on_c, 12, 53, 0
18, 10560, Note_on_c, 12, 51, 88
18, 10619, Note_on_c, 12, 51, 0
18, 10620, Note_on_c, 12, 60, 88
18, 10679, Note_on_c, 12, 60, 0
18, 10860, Note_on_c, 12, 60, 88
18, 10919, Note_on_c, 12, 60, 0
18, 10920, Note_on_c, 12, 58, 88
18, 10979, Note_on_c, 12, 58, 0
18, 10980, Note_on_c, 12, 62, 88
18, 11039, Note_on_c, 12, 62, 0
18, 11100, Note_on_c, 12, 58, 88
18, 11159, Note_on_c, 12, 58, 0
18, 11160, Note_on_c, 12, 57, 88
18, 11219, Note_on_c, 12, 57, 0
18, 11220, Note_on_c, 12, 60, 88
18, 11279, Note_on_c, 12, 60, 0
18, 11280, Note_on_c, 12, 53, 88
18, 11339, Note_on_c, 12, 53, 0
18, 11340, Note_on_c, 12, 58, 88
18, 11399, Note_on_c, 12, 58, 0
18, 11400, Note_on_c, 12, 58, 88
18, 11459, Note_on_c, 12, 58, 0
18, 11460, Note_on_c, 12, 55, 88
18, 11519, Note_on_c, 12, 55, 0
18, 11520, Note_on_c, 12, 53, 88
18, 11579, Note_on_c, 12, 53, 0
18, 11580, Note_on_c, 12, 57, 88
18, 11639, Note_on_c, 12, 57, 0
18, 11640, Note_on_c, 12, 62, 88
18, 11699, Note_on_c, 12, 62, 0
18, 11700, Note_on_c, 12, 65, 88
18, 11759, Note_on_c, 12, 65, 0
18, 11940, Note_on_c, 12, 65, 88
18, 11999, Note_on_c, 12, 65, 0
18, 12000, Note_on_c, 12, 64, 88
18, 12059, Note_on_c, 12, 64, 0
18, 12060, Note_on_c, 12, 61, 88
18, 12119, Note_on_c, 12, 61, 0
18, 12180, Note_on_c, 12, 62, 88
18, 12239, Note_on_c, 12, 62, 0
18, 12240, Note_on_c, 12, 62, 88
18, 12299, Note_on_c, 12, 62, 0
18, 12300, Note_on_c, 12, 59, 88
18, 12359, Note_on_c, 12, 59, 0
18, 12360, Note_on_c, 12, 64, 88
18, 12419, Note_on_c, 12, 64, 0
18, 12420, Note_on_c, 12, 61, 88
18, 12479, Note_on_c, 12, 61, 0
18, 12480, Note_on_c, 12, 62, 88
18, 12539, Note_on_c, 12, 62, 0
18, 12540, Note_on_c, 12, 57, 88
18, 12599, Note_on_c, 12, 57, 0
18, 12660, Note_on_c, 12, 62, 88
18, 12719, Note_on_c, 12, 62, 0
18, 12720, Note_on_c, 12, 62, 88
18, 12779, Note_on_c, 12, 62, 0
18, 12780, Note_on_c, 12, 55, 88
18, 12839, Note_on_c, 12, 55, 0
18, 12900, Note_on_c, 12, 63, 88
18, 12959, Note_on_c, 12, 63, 0
18, 12960, Note_on_c, 12, 63, 88
18, 13019, Note_on_c, 12, 63, 0
18, 13020, Note_on_c, 12, 63, 88
18, 13079, Note_on_c, 12, 63, 0
18, 13140, Note_on_c, 12, 62, 88
18, 13199, Note_on_c, 12, 62, 0
18, 13200, Note_on_c, 12, 62, 88
18, 13259, Note_on_c, 12, 62, 0
18, 13260, Note_on_c, 12, 60, 88
18, 13319, Note_on_c, 12, 60, 0
18, 13320, Note_on_c, 12, 60, 88
18, 13379, Note_on_c, 12, 60, 0
18, 13380, Note_on_c, 12, 57, 88
18, 13439, Note_on_c, 12, 57, 0
18, 13440, Note_on_c, 12, 58, 88
18, 13499, Note_on_c, 12, 58, 0
18, 13500, Note_on_c, 12, 62, 88
18, 13559, Note_on_c, 12, 62, 0
18, 13740, Note_on_c, 12, 67, 88
18, 13799, Note_on_c, 12, 67, 0
18, 13800, Note_on_c, 12, 66, 88
18, 13859, Note_on_c, 12, 66, 0
18, 13860, Note_on_c, 12, 62, 88
18, 13919, Note_on_c, 12, 62, 0
18, 13980, Note_on_c, 12, 55, 88
18, 14039, Note_on_c, 12, 55, 0
18, 14040, Note_on_c, 12, 62, 88
18, 14099, Note_on_c, 12, 62, 0
18, 14100, Note_on_c, 12, 50, 88
18, 14159, Note_on_c, 12, 50, 0
18, 14400, Note_on_c, 12, 55, 58
18, 14519, Note_on_c, 12, 55, 0
18, 14520, Note_on_c, 12, 55, 58
18, 14639, Note_on_c, 12, 55, 0
18, 14640, Note_on_c, 12, 57, 58
18, 14819, Note_on_c, 12, 57, 0
18, 14820, Note_on_c, 12, 55, 58
18, 14879, Note_on_c, 12, 55, 0
18, 14880, Note_on_c, 12, 54, 58
18, 14999, Note_on_c, 12, 54, 0
18, 15360, Control_c, 12, 10, 70
18, 17040, Note_on_c, 12, 53, 73
18, 17279, Note_on_c, 12, 53, 0
18, 17280, Note_on_c, 12, 56, 73
18, 17399, Note_on_c, 12, 56, 0
18, 17400, Note_on_c, 12, 56, 73
18, 17459, Note_on_c, 12, 56, 0
18, 17460, Note_on_c, 12, 56, 73
18, 17519, Note_on_c, 12, 56, 0
18, 17520, Note_on_c, 12, 60, 73
18, 17639, Note_on_c, 12, 60, 0
18, 17640, Note_on_c, 12, 60, 73
18, 17759, Note_on_c, 12, 60, 0
18, 17760, Note_on_c, 12, 57, 73
18, 17939, Note_on_c, 12, 57, 0
18, 17940, Note_on_c, 12, 57, 73
18, 17999, Note_on_c, 12, 57, 0
18, 18000, Note_on_c, 12, 58, 73
18, 18119, Note_on_c, 12, 58, 0
18, 18120, Note_on_c, 12, 53, 73
18, 18299, Note_on_c, 12, 53, 0
18, 18300, Note_on_c, 12, 62, 73
18, 18359, Note_on_c, 12, 62, 0
18, 18360, Note_on_c, 12, 60, 73
18, 18419, Note_on_c, 12, 60, 0
18, 18420, Note_on_c, 12, 58, 73
18, 18479, Note_on_c, 12, 58, 0
18, 18480, Note_on_c, 12, 57, 73
18, 18539, Note_on_c, 12, 57, 0
18, 18540, Note_on_c, 12, 55, 73
18, 18599, Note_on_c, 12, 55, 0
18, 18600, Note_on_c, 12, 53, 73
18, 18659, Note_on_c, 12, 53, 0
18, 18660, Note_on_c, 12, 55, 73
18, 18719, Note_on_c, 12, 55, 0
18, 18720, Note_on_c, 12, 56, 73
18, 18779, Note_on_c, 12, 56, 0
18, 18780, Note_on_c, 12, 60, 73
18, 18839, Note_on_c, 12, 60, 0
18, 18840, Note_on_c, 12, 58, 73
18, 18899, Note_on_c, 12, 58, 0
18, 18900, Note_on_c, 12, 56, 73
18, 18959, Note_on_c, 12, 56, 0
18, 18960, Note_on_c, 12, 55, 73
18, 19019, Note_on_c, 12, 55, 0
18, 19020, Note_on_c, 12, 60, 73
18, 19139, Note_on_c, 12, 60, 0
18, 19140, Note_on_c, 12, 60, 73
18, 19199, Note_on_c, 12, 60, 0
18, 19200, Note_on_c, 12, 60, 73
18, 19319, Note_on_c, 12, 60, 0
18, 19320, Note_on_c, 12, 62, 73
18, 19379, Note_on_c, 12, 62, 0
18, 19380, Note_on_c, 12, 63, 73
18, 19439, Note_on_c, 12, 63, 0
18, 19440, Note_on_c, 12, 62, 73
18, 19499, Note_on_c, 12, 62, 0
18, 19500, Note_on_c, 12, 60, 73
18, 19529, Note_on_c, 12, 60, 0
18, 19530, Note_on_c, 12, 58, 73
18, 19559, Note_on_c, 12, 58, 0
18, 19560, Note_on_c, 12, 63, 73
18, 19739, Note_on_c, 12, 63, 0
18, 19740, Note_on_c, 12, 60, 73
18, 19799, Note_on_c, 12, 60, 0
18, 19800, Note_on_c, 12, 62, 73
18, 19859, Note_on_c, 12, 62, 0
18, 19860, Note_on_c, 12, 63, 73
18, 19919, Note_on_c, 12, 63, 0
18, 19920, Note_on_c, 12, 62, 73
18, 19979, Note_on_c, 12, 62, 0
18, 19980, Note_on_c, 12, 60, 73
18, 20009, Note_on_c, 12, 60, 0
18, 20010, Note_on_c, 12, 58, 73
18, 20039, Note_on_c, 12, 58, 0
18, 20040, Note_on_c, 12, 57, 73
18, 20099, Note_on_c, 12, 57, 0
18, 20100, Note_on_c, 12, 57, 73
18, 20159, Note_on_c, 12, 57, 0
18, 20160, Note_on_c, 12, 55, 73
18, 20399, Note_on_c, 12, 55, 0
18, 20400, Note_on_c, 12, 57, 73
18, 20519, Note_on_c, 12, 57, 0
18, 20640, Control_c, 12, 10, 48
18, 21420, Note_on_c, 12, 62, 88
18, 21479, Note_on_c, 12, 62, 0
18, 21480, Note_on_c, 12, 62, 88
18, 21539, Note_on_c, 12, 62, 0
18, 21540, Note_on_c, 12, 62, 88
18, 21599, Note_on_c, 12, 62, 0
18, 21600, Note_on_c, 12, 62, 88
18, 21689, Note_on_c, 12, 62, 0
18, 21690, Note_on_c, 12, 61, 88
18, 21719, Note_on_c, 12, 61, 0
18, 21720, Note_on_c, 12, 61, 88
18, 21839, Note_on_c, 12, 61, 0
18, 21900, Note_on_c, 12, 67, 88
18, 22019, Note_on_c, 12, 67, 0
18, 22020, Note_on_c, 12, 67, 88
18, 22079, Note_on_c, 12, 67, 0
18, 22080, Note_on_c, 12, 67, 88
18, 22199, Note_on_c, 12, 67, 0
18, 22200, Note_on_c, 12, 66, 88
18, 22319, Note_on_c, 12, 66, 0
18, 22380, Note_on_c, 12, 65, 88
18, 22439, Note_on_c, 12, 65, 0
18, 22440, Note_on_c, 12, 65, 88
18, 22499, Note_on_c, 12, 65, 0
18, 22500, Note_on_c, 12, 65, 88
18, 22559, Note_on_c, 12, 65, 0
18, 22560, Note_on_c, 12, 65, 88
18, 22649, Note_on_c, 12, 65, 0
18, 22650, Note_on_c, 12, 63, 88
18, 22679, Note_on_c, 12, 63, 0
18, 22680, Note_on_c, 12, 63, 88
18, 22799, Note_on_c, 12, 63, 0
18, 22860, Note_on_c, 12, 63, 88
18, 22919, Note_on_c, 12, 63, 0
18, 22920, Note_on_c, 12, 60, 88
18, 22979, Note_on_c, 12, 60, 0
18, 22980, Note_on_c, 12, 62, 88
18, 23009, Note_on_c, 12, 62, 0
18, 23010, Note_on_c, 12, 63, 88
18, 23039, Note_on_c, 12, 63, 0
18, 23040, Note_on_c, 12, 57, 88
18, 23159, Note_on_c, 12, 57, 0
18, 23160, Note_on_c, 12, 62, 88
18, 23279, Note_on_c, 12, 62, 0
18, 23340, Note_on_c, 12, 55, 88
18, 23459, Note_on_c, 12, 55, 0
18, 23460, Note_on_c, 12, 67, 88
18, 23519, Note_on_c, 12, 67, 0
18, 23520, Note_on_c, 12, 67, 88
18, 23639, Note_on_c, 12, 67, 0
18, 23640, Note_on_c, 12, 64, 88
18, 23759, Note_on_c, 12, 64, 0
18, 23760, Note_on_c, 12, 61, 88
18, 23879, Note_on_c, 12, 61, 0
18, 23880, Note_on_c, 12, 57, 88
18, 23999, Note_on_c, 12, 57, 0
18, 24000, Note_on_c, 12, 62, 88
18, 24059, Note_on_c, 12, 62, 0
18, 24060, Note_on_c, 12, 62, 88
18, 24119, Note_on_c, 12, 62, 0
18, 25020, Note_on_c, 12, 58, 88
18, 25079, Note_on_c, 12, 58, 0
18, 25080, Note_on_c, 12, 58, 88
18, 25139, Note_on_c, 12, 58, 0
18, 25140, Note_on_c, 12, 58, 88
18, 25199, Note_on_c, 12, 58, 0
18, 25200, Note_on_c, 12, 58, 88
18, 25289, Note_on_c, 12, 58, 0
18, 25290, Note_on_c, 12, 57, 88
18, 25319, Note_on_c, 12, 57, 0
18, 25320, Note_on_c, 12, 57, 88
18, 25439, Note_on_c, 12, 57, 0
18, 25500, Note_on_c, 12, 63, 88
18, 25619, Note_on_c, 12, 63, 0
18, 25620, Note_on_c, 12, 63, 88
18, 25679, Note_on_c, 12, 63, 0
18, 25680, Note_on_c, 12, 63, 88
18, 25799, Note_on_c, 12, 63, 0
18, 25800, Note_on_c, 12, 62, 88
18, 25919, Note_on_c, 12, 62, 0
18, 26220, Note_on_c, 12, 60, 88
18, 26279, Note_on_c, 12, 60, 0
18, 26280, Note_on_c, 12, 60, 88
18, 26339, Note_on_c, 12, 60, 0
18, 26340, Note_on_c, 12, 60, 88
18, 26399, Note_on_c, 12, 60, 0
18, 26400, Note_on_c, 12, 60, 88
18, 26489, Note_on_c, 12, 60, 0
18, 26490, Note_on_c, 12, 59, 88
18, 26519, Note_on_c, 12, 59, 0
18, 26520, Note_on_c, 12, 59, 88
18, 26639, Note_on_c, 12, 59, 0
18, 26700, Note_on_c, 12, 65, 88
18, 26819, Note_on_c, 12, 65, 0
18, 26820, Note_on_c, 12, 65, 88
18, 26879, Note_on_c, 12, 65, 0
18, 26880, Note_on_c, 12, 65, 88
18, 26999, Note_on_c, 12, 65, 0
18, 27000, Note_on_c, 12, 64, 88
18, 27119, Note_on_c, 12, 64, 0
18, 27180, Note_on_c, 12, 67, 88
18, 27239, Note_on_c, 12, 67, 0
18, 27240, Note_on_c, 12, 67, 88
18, 27299, Note_on_c, 12, 67, 0
18, 27300, Note_on_c, 12, 67, 88
18, 27359, Note_on_c, 12, 67, 0
18, 27360, Note_on_c, 12, 67, 88
18, 27449, Note_on_c, 12, 67, 0
18, 27450, Note_on_c, 12, 66, 88
18, 27479, Note_on_c, 12, 66, 0
18, 27480, Note_on_c, 12, 66, 88
18, 27599, Note_on_c, 12, 66, 0
18, 27660, Note_on_c, 12, 67, 88
18, 27719, Note_on_c, 12, 67, 0
18, 27720, Note_on_c, 12, 63, 88
18, 27779, Note_on_c, 12, 63, 0
18, 27780, Note_on_c, 12, 60, 88
18, 27839, Note_on_c, 12, 60, 0
18, 27840, Note_on_c, 12, 60, 88
18, 27929, Note_on_c, 12, 60, 0
18, 27930, Note_on_c, 12, 65, 88
18, 27959, Note_on_c, 12, 65, 0
18, 27960, Note_on_c, 12, 65, 88
18, 28079, Note_on_c, 12, 65, 0
18, 28140, Note_on_c, 12, 63, 88
18, 28259, Note_on_c, 12, 63, 0
18, 28260, Note_on_c, 12, 57, 88
18, 28319, Note_on_c, 12, 57, 0
18, 28320, Note_on_c, 12, 57, 88
18, 28379, Note_on_c, 12, 57, 0
18, 28380, Note_on_c, 12, 62, 88
18, 28439, Note_on_c, 12, 62, 0
18, 28440, Note_on_c, 12, 62, 88
18, 28499, Note_on_c, 12, 62, 0
18, 28500, Note_on_c, 12, 58, 88
18, 28559, Note_on_c, 12, 58, 0
18, 28560, Note_on_c, 12, 55, 88
18, 28799, Note_on_c, 12, 55, 0
18, 28800, Note_on_c, 12, 57, 88
18, 28919, Note_on_c, 12, 57, 0
18, 29100, Note_on_c, 12, 58, 88
18, 29159, Note_on_c, 12, 58, 0
18, 29160, Note_on_c, 12, 58, 88
18, 29219, Note_on_c, 12, 58, 0
18, 29220, Note_on_c, 12, 58, 88
18, 29279, Note_on_c, 12, 58, 0
18, 29280, Note_on_c, 12, 58, 88
18, 29369, Note_on_c, 12, 58, 0
18, 29370, Note_on_c, 12, 60, 88
18, 29399, Note_on_c, 12, 60, 0
18, 29400, Note_on_c, 12, 60, 88
18, 29519, Note_on_c, 12, 60, 0
18, 29580, Note_on_c, 12, 57, 88
18, 29699, Note_on_c, 12, 57, 0
18, 29700, Note_on_c, 12, 57, 88
18, 29759, Note_on_c, 12, 57, 0
18, 29760, Note_on_c, 12, 57, 88
18, 29819, Note_on_c, 12, 57, 0
18, 29820, Note_on_c, 12, 58, 88
18, 29879, Note_on_c, 12, 58, 0
18, 29880, Note_on_c, 12, 58, 88
18, 29999, Note_on_c, 12, 58, 0
18, 30060, Note_on_c, 12, 55, 88
18, 30119, Note_on_c, 12, 55, 0
18, 30120, Note_on_c, 12, 55, 88
18, 30179, Note_on_c, 12, 55, 0
18, 30180, Note_on_c, 12, 55, 88
18, 30239, Note_on_c, 12, 55, 0
18, 30240, Note_on_c, 12, 55, 88
18, 30329, Note_on_c, 12, 55, 0
18, 30330, Note_on_c, 12, 57, 88
18, 30359, Note_on_c, 12, 57, 0
18, 30360, Note_on_c, 12, 57, 88
18, 30479, Note_on_c, 12, 57, 0
18, 30540, Note_on_c, 12, 58, 88
18, 30659, Note_on_c, 12, 58, 0
18, 30660, Note_on_c, 12, 58, 88
18, 30719, Note_on_c, 12, 58, 0
18, 30720, Note_on_c, 12, 55, 88
18, 30779, Note_on_c, 12, 55, 0
18, 30780, Note_on_c, 12, 58, 88
18, 30839, Note_on_c, 12, 58, 0
18, 30840, Note_on_c, 12, 58, 88
18, 30959, Note_on_c, 12, 58, 0
18, 31080, Note_on_c, 12, 58, 58
18, 31199, Note_on_c, 12, 58, 0
18, 31200, Note_on_c, 12, 57, 58
18, 31319, Note_on_c, 12, 57, 0
18, 31320, Note_on_c, 12, 55, 58
18, 31379, Note_on_c, 12, 55, 0
18, 31380, Note_on_c, 12, 55, 58
18, 31439, Note_on_c, 12, 55, 0
18, 31440, Note_on_c, 12, 57, 58
18, 31679, Note_on_c, 12, 57, 0
18, 31680, Note_on_c, 12, 58, 58
18, 31799, Note_on_c, 12, 58, 0
18, 32280, Note_on_c, 12, 60, 58
18, 32399, Note_on_c, 12, 60, 0
18, 32400, Note_on_c, 12, 58, 58
18, 32759, Note_on_c, 12, 58, 0
18, 32760, Note_on_c, 12, 60, 58
18, 32819, Note_on_c, 12, 60, 0
18, 32820, Note_on_c, 12, 62, 58
18, 32879, Note_on_c, 12, 62, 0
18, 32880, Note_on_c, 12, 63, 58
18, 32939, Note_on_c, 12, 63, 0
18, 32940, Note_on_c, 12, 62, 58
18, 32999, Note_on_c, 12, 62, 0
18, 33000, Note_on_c, 12, 60, 58
18, 33059, Note_on_c, 12, 60, 0
18, 33060, Note_on_c, 12, 58, 58
18, 33119, Note_on_c, 12, 58, 0
18, 33120, Note_on_c, 12, 57, 58
18, 33239, Note_on_c, 12, 57, 0
18, 33240, Note_on_c, 12, 55, 58
18, 33299, Note_on_c, 12, 55, 0
18, 33300, Note_on_c, 12, 63, 58
18, 33359, Note_on_c, 12, 63, 0
18, 33360, Note_on_c, 12, 62, 58
18, 33479, Note_on_c, 12, 62, 0
18, 33480, Note_on_c, 12, 60, 58
18, 33599, Note_on_c, 12, 60, 0
18, 33600, Note_on_c, 12, 58, 58
18, 33719, Note_on_c, 12, 58, 0
18, 33900, Note_on_c, 12, 58, 88
18, 33959, Note_on_c, 12, 58, 0
18, 33960, Note_on_c, 12, 55, 88
18, 34019, Note_on_c, 12, 55, 0
18, 34020, Note_on_c, 12, 58, 88
18, 34079, Note_on_c, 12, 58, 0
18, 34080, Note_on_c, 12, 57, 88
18, 34169, Note_on_c, 12, 57, 0
18, 34170, Note_on_c, 12, 62, 88
18, 34199, Note_on_c, 12, 62, 0
18, 34200, Note_on_c, 12, 62, 88
18, 34319, Note_on_c, 12, 62, 0
18, 34380, Note_on_c, 12, 57, 88
18, 34439, Note_on_c, 12, 57, 0
18, 34440, Note_on_c, 12, 53, 88
18, 34499, Note_on_c, 12, 53, 0
18, 34500, Note_on_c, 12, 57, 88
18, 34559, Note_on_c, 12, 57, 0
18, 34560, Note_on_c, 12, 55, 88
18, 34679, Note_on_c, 12, 55, 0
18, 34680, Note_on_c, 12, 60, 88
18, 34799, Note_on_c, 12, 60, 0
18, 34860, Note_on_c, 12, 55, 88
18, 34919, Note_on_c, 12, 55, 0
18, 34920, Note_on_c, 12, 55, 88
18, 34979, Note_on_c, 12, 55, 0
18, 34980, Note_on_c, 12, 55, 88
18, 35039, Note_on_c, 12, 55, 0
18, 35040, Note_on_c, 12, 57, 88
18, 35099, Note_on_c, 12, 57, 0
18, 35100, Note_on_c, 12, 57, 88
18, 35129, Note_on_c, 12, 57, 0
18, 35130, Note_on_c, 12, 57, 88
18, 35159, Note_on_c, 12, 57, 0
18, 35160, Note_on_c, 12, 62, 88
18, 35219, Note_on_c, 12, 62, 0
18, 35220, Note_on_c, 12, 63, 88
18, 35279, Note_on_c, 12, 63, 0
18, 35280, Note_on_c, 12, 62, 88
18, 35519, Note_on_c, 12, 62, 0
18, 35520, Note_on_c, 12, 62, 88
18, 35639, Note_on_c, 12, 62, 0
18, 35880, Note_on_c, 12, 59, 88
18, 35999, Note_on_c, 12, 59, 0
18, 36000, Note_on_c, 12, 60, 88
18, 36119, Note_on_c, 12, 60, 0
18, 36120, Note_on_c, 12, 59, 88
18, 36179, Note_on_c, 12, 59, 0
18, 36180, Note_on_c, 12, 59, 88
18, 36239, Note_on_c, 12, 59, 0
18, 36240, Note_on_c, 12, 60, 88
18, 36359, Note_on_c, 12, 60, 0
18, 36360, Note_on_c, 12, 62, 88
18, 36419, Note_on_c, 12, 62, 0
18, 36420, Note_on_c, 12, 62, 88
18, 36479, Note_on_c, 12, 62, 0
18, 36480, Note_on_c, 12, 62, 88
18, 36599, Note_on_c, 12, 62, 0
18, 36600, Note_on_c, 12, 60, 88
18, 36659, Note_on_c, 12, 60, 0
18, 36660, Note_on_c, 12, 59, 88
18, 36719, Note_on_c, 12, 59, 0
18, 36720, Note_on_c, 12, 60, 88
18, 36959, Note_on_c, 12, 60, 0
18, 36960, Note_on_c, 12, 59, 88
18, 37439, Note_on_c, 12, 59, 0
18, 37439, End_track
19, 0, Start_track
19, 0, Title_t, "Bass "
19, 0, MIDI_port, 0
19, 0, Program_c, 13, 60
19, 0, Control_c, 13, 7, 96
19, 0, Control_c, 13, 10, 80
19, 0, Control_c, 13, 11, 127
19, 0, Note_on_c, 13, 55, 58
19, 119, Note_on_c, 13, 55, 0
19, 120, Note_on_c, 13, 55, 58
19, 179, Note_on_c, 13, 55, 0
19, 180, Note_on_c, 13, 55, 58
19, 239, Note_on_c, 13, 55, 0
19, 240, Note_on_c, 13, 55, 58
19, 359, Note_on_c, 13, 55, 0
19, 360, Note_on_c, 13, 55, 58
19, 479, Note_on_c, 13, 55, 0
19, 480, Note_on_c, 13, 54, 58
19, 719, Note_on_c, 13, 54, 0
19, 720, Note_on_c, 13, 55, 58
19, 839, Note_on_c, 13, 55, 0
19, 900, Note_on_c, 13, 55, 88
19, 959, Note_on_c, 13, 55, 0
19, 960, Note_on_c, 13, 51, 88
19, 1049, Note_on_c, 13, 51, 0
19, 1050, Note_on_c, 13, 51, 88
19, 1079, Note_on_c, 13, 51, 0
19, 1080, Note_on_c, 13, 58, 88
19, 1139, Note_on_c, 13, 58, 0
19, 1140, Note_on_c, 13, 58, 88
19, 1199, Note_on_c, 13, 58, 0
19, 1200, Note_on_c, 13, 60, 88
19, 1289, Note_on_c, 13, 60, 0
19, 1290, Note_on_c, 13, 60, 88
19, 1319, Note_on_c, 13, 60, 0
19, 1320, Note_on_c, 13, 55, 88
19, 1439, Note_on_c, 13, 55, 0
19, 1440, Note_on_c, 13, 57, 58
19, 1559, Note_on_c, 13, 57, 0
19, 1560, Note_on_c, 13, 57, 58
19, 1619, Note_on_c, 13, 57, 0
19, 1620, Note_on_c, 13, 55, 58
19, 1679, Note_on_c, 13, 55, 0
19, 1680, Note_on_c, 13, 54, 58
19, 1769, Note_on_c, 13, 54, 0
19, 1770, Note_on_c, 13, 54, 58
19, 1799, Note_on_c, 13, 54, 0
19, 1800, Note_on_c, 13, 54, 58
19, 1919, Note_on_c, 13, 54, 0
19, 1920, Note_on_c, 13, 55, 58
19, 1979, Note_on_c, 13, 55, 0
19, 1980, Note_on_c, 13, 58, 58
19, 2039, Note_on_c, 13, 58, 0
19, 2040, Note_on_c, 13, 57, 58
19, 2099, Note_on_c, 13, 57, 0
19, 2100, Note_on_c, 13, 55, 58
19, 2159, Note_on_c, 13, 55, 0
19, 2160, Note_on_c, 13, 54, 58
19, 2339, Note_on_c, 13, 54, 0
19, 2340, Note_on_c, 13, 54, 58
19, 2399, Note_on_c, 13, 54, 0
19, 2400, Note_on_c, 13, 55, 58
19, 2519, Note_on_c, 13, 55, 0
19, 2520, Note_on_c, 13, 53, 58
19, 2579, Note_on_c, 13, 53, 0
19, 2580, Note_on_c, 13, 53, 58
19, 2639, Note_on_c, 13, 53, 0
19, 2640, Note_on_c, 13, 51, 58
19, 2879, Note_on_c, 13, 51, 0
19, 2880, Note_on_c, 13, 50, 58
19, 2999, Note_on_c, 13, 50, 0
19, 3420, Note_on_c, 13, 46, 58
19, 3479, Note_on_c, 13, 46, 0
19, 3480, Note_on_c, 13, 45, 58
19, 3599, Note_on_c, 13, 45, 0
19, 3600, Note_on_c, 13, 46, 58
19, 3659, Note_on_c, 13, 46, 0
19, 3660, Note_on_c, 13, 46, 58
19, 3719, Note_on_c, 13, 46, 0
19, 3720, Note_on_c, 13, 48, 58
19, 3839, Note_on_c, 13, 48, 0
19, 3840, Note_on_c, 13, 50, 58
19, 3959, Note_on_c, 13, 50, 0
19, 4380, Note_on_c, 13, 48, 58
19, 4439, Note_on_c, 13, 48, 0
19, 4440, Note_on_c, 13, 47, 58
19, 4559, Note_on_c, 13, 47, 0
19, 4560, Note_on_c, 13, 48, 58
19, 4619, Note_on_c, 13, 48, 0
19, 4620, Note_on_c, 13, 48, 58
19, 4679, Note_on_c, 13, 48, 0
19, 4680, Note_on_c, 13, 50, 58
19, 4799, Note_on_c, 13, 50, 0
19, 4800, Note_on_c, 13, 51, 58
19, 4919, Note_on_c, 13, 51, 0
19, 5040, Note_on_c, 13, 44, 58
19, 5159, Note_on_c, 13, 44, 0
19, 5160, Note_on_c, 13, 44, 58
19, 5219, Note_on_c, 13, 44, 0
19, 5220, Note_on_c, 13, 44, 58
19, 5279, Note_on_c, 13, 44, 0
19, 5280, Note_on_c, 13, 44, 58
19, 5519, Note_on_c, 13, 44, 0
19, 5520, Note_on_c, 13, 43, 58
19, 5759, Note_on_c, 13, 43, 0
19, 5760, Note_on_c, 13, 43, 58
19, 6239, Note_on_c, 13, 43, 0
19, 6240, Note_on_c, 13, 48, 58
19, 6359, Note_on_c, 13, 48, 0
19, 6960, Note_on_c, 13, 53, 58
19, 7079, Note_on_c, 13, 53, 0
19, 7080, Note_on_c, 13, 53, 58
19, 7139, Note_on_c, 13, 53, 0
19, 7140, Note_on_c, 13, 53, 58
19, 7199, Note_on_c, 13, 53, 0
19, 7200, Note_on_c, 13, 51, 58
19, 7439, Note_on_c, 13, 51, 0
19, 7440, Note_on_c, 13, 56, 58
19, 7559, Note_on_c, 13, 56, 0
19, 7620, Note_on_c, 13, 56, 88
19, 7679, Note_on_c, 13, 56, 0
19, 7680, Note_on_c, 13, 54, 88
19, 7799, Note_on_c, 13, 54, 0
19, 7800, Note_on_c, 13, 53, 88
19, 7859, Note_on_c, 13, 53, 0
19, 7860, Note_on_c, 13, 53, 88
19, 7919, Note_on_c, 13, 53, 0
19, 7920, Note_on_c, 13, 52, 88
19, 8039, Note_on_c, 13, 52, 0
19, 8040, Note_on_c, 13, 53, 88
19, 8099, Note_on_c, 13, 53, 0
19, 8400, Note_on_c, 13, 54, 58
19, 8519, Note_on_c, 13, 54, 0
19, 8520, Note_on_c, 13, 54, 58
19, 8579, Note_on_c, 13, 54, 0
19, 8580, Note_on_c, 13, 54, 58
19, 8639, Note_on_c, 13, 54, 0
19, 8640, Note_on_c, 13, 53, 58
19, 8879, Note_on_c, 13, 53, 0
19, 8880, Note_on_c, 13, 46, 58
19, 8999, Note_on_c, 13, 46, 0
19, 9060, Note_on_c, 13, 58, 88
19, 9119, Note_on_c, 13, 58, 0
19, 9120, Note_on_c, 13, 56, 88
19, 9239, Note_on_c, 13, 56, 0
19, 9240, Note_on_c, 13, 55, 88
19, 9299, Note_on_c, 13, 55, 0
19, 9300, Note_on_c, 13, 55, 88
19, 9359, Note_on_c, 13, 55, 0
19, 9360, Note_on_c, 13, 54, 88
19, 9479, Note_on_c, 13, 54, 0
19, 9480, Note_on_c, 13, 55, 88
19, 9539, Note_on_c, 13, 55, 0
19, 12600, Note_on_c, 13, 62, 88
19, 12659, Note_on_c, 13, 62, 0
19, 12660, Note_on_c, 13, 62, 88
19, 12719, Note_on_c, 13, 62, 0
19, 12720, Note_on_c, 13, 51, 88
19, 12779, Note_on_c, 13, 51, 0
19, 12780, Note_on_c, 13, 51, 88
19, 12809, Note_on_c, 13, 51, 0
19, 12810, Note_on_c, 13, 51, 88
19, 12839, Note_on_c, 13, 51, 0
19, 12840, Note_on_c, 13, 60, 88
19, 12899, Note_on_c, 13, 60, 0
19, 12900, Note_on_c, 13, 60, 88
19, 12959, Note_on_c, 13, 60, 0
19, 12960, Note_on_c, 13, 50, 88
19, 13049, Note_on_c, 13, 50, 0
19, 13050, Note_on_c, 13, 50, 88
19, 13079, Note_on_c, 13, 50, 0
19, 13080, Note_on_c, 13, 58, 88
19, 13139, Note_on_c, 13, 58, 0
19, 13140, Note_on_c, 13, 58, 88
19, 13199, Note_on_c, 13, 58, 0
19, 13200, Note_on_c, 13, 48, 88
19, 13259, Note_on_c, 13, 48, 0
19, 13260, Note_on_c, 13, 58, 88
19, 13319, Note_on_c, 13, 58, 0
19, 13320, Note_on_c, 13, 57, 88
19, 13379, Note_on_c, 13, 57, 0
19, 13380, Note_on_c, 13, 48, 88
19, 13439, Note_on_c, 13, 48, 0
19, 13440, Note_on_c, 13, 46, 88
19, 13499, Note_on_c, 13, 46, 0
19, 13500, Note_on_c, 13, 43, 88
19, 13559, Note_on_c, 13, 43, 0
19, 13860, Note_on_c, 13, 62, 88
19, 13919, Note_on_c, 13, 62, 0
19, 13920, Note_on_c, 13, 58, 88
19, 13979, Note_on_c, 13, 58, 0
19, 13980, Note_on_c, 13, 55, 88
19, 14039, Note_on_c, 13, 55, 0
19, 14160, Note_on_c, 13, 50, 58
19, 14279, Note_on_c, 13, 50, 0
19, 14280, Note_on_c, 13, 50, 58
19, 14399, Note_on_c, 13, 50, 0
19, 14400, Note_on_c, 13, 50, 58
19, 14639, Note_on_c, 13, 50, 0
19, 14640, Note_on_c, 13, 48, 58
19, 14879, Note_on_c, 13, 48, 0
19, 14880, Note_on_c, 13, 50, 58
19, 14999, Note_on_c, 13, 50, 0
19, 15360, Control_c, 13, 10, 80
19, 18000, Note_on_c, 13, 46, 73
19, 18239, Note_on_c, 13, 46, 0
19, 18240, Note_on_c, 13, 50, 73
19, 18359, Note_on_c, 13, 50, 0
19, 18360, Note_on_c, 13, 50, 73
19, 18419, Note_on_c, 13, 50, 0
19, 18420, Note_on_c, 13, 50, 73
19, 18479, Note_on_c, 13, 50, 0
19, 18480, Note_on_c, 13, 53, 73
19, 18599, Note_on_c, 13, 53, 0
19, 18600, Note_on_c, 13, 53, 73
19, 18719, Note_on_c, 13, 53, 0
19, 18720, Note_on_c, 13, 50, 73
19, 18899, Note_on_c, 13, 50, 0
19, 18900, Note_on_c, 13, 50, 73
19, 18959, Note_on_c, 13, 50, 0
19, 18960, Note_on_c, 13, 51, 73
19, 19019, Note_on_c, 13, 51, 0
19, 19020, Note_on_c, 13, 48, 73
19, 19079, Note_on_c, 13, 48, 0
19, 19080, Note_on_c, 13, 57, 73
19, 19139, Note_on_c, 13, 57, 0
19, 19140, Note_on_c, 13, 55, 73
19, 19199, Note_on_c, 13, 55, 0
19, 19200, Note_on_c, 13, 54, 73
19, 19259, Note_on_c, 13, 54, 0
19, 19260, Note_on_c, 13, 54, 73
19, 19319, Note_on_c, 13, 54, 0
19, 19320, Note_on_c, 13, 54, 73
19, 19439, Note_on_c, 13, 54, 0
19, 19440, Note_on_c, 13, 55, 73
19, 19499, Note_on_c, 13, 55, 0
19, 19500, Note_on_c, 13, 58, 73
19, 19559, Note_on_c, 13, 58, 0
19, 19560, Note_on_c, 13, 57, 73
19, 19619, Note_on_c, 13, 57, 0
19, 19620, Note_on_c, 13, 55, 73
19, 19679, Note_on_c, 13, 55, 0
19, 19680, Note_on_c, 13, 54, 73
19, 19739, Note_on_c, 13, 54, 0
19, 19740, Note_on_c, 13, 54, 73
19, 19799, Note_on_c, 13, 54, 0
19, 19800, Note_on_c, 13, 54, 73
19, 19919, Note_on_c, 13, 54, 0
19, 19920, Note_on_c, 13, 55, 73
19, 19979, Note_on_c, 13, 55, 0
19, 19980, Note_on_c, 13, 55, 73
19, 20039, Note_on_c, 13, 55, 0
19, 20040, Note_on_c, 13, 53, 73
19, 20099, Note_on_c, 13, 53, 0
19, 20100, Note_on_c, 13, 53, 73
19, 20159, Note_on_c, 13, 53, 0
19, 20160, Note_on_c, 13, 51, 73
19, 20399, Note_on_c, 13, 51, 0
19, 20400, Note_on_c, 13, 50, 73
19, 20519, Note_on_c, 13, 50, 0
19, 20640, Control_c, 13, 10, 80
19, 20700, Note_on_c, 13, 55, 88
19, 20759, Note_on_c, 13, 55, 0
19, 20760, Note_on_c, 13, 55, 88
19, 20819, Note_on_c, 13, 55, 0
19, 20820, Note_on_c, 13, 55, 88
19, 20879, Note_on_c, 13, 55, 0
19, 20880, Note_on_c, 13, 55, 88
19, 20969, Note_on_c, 13, 55, 0
19, 20970, Note_on_c, 13, 54, 88
19, 20999, Note_on_c, 13, 54, 0
19, 21000, Note_on_c, 13, 54, 88
19, 21119, Note_on_c, 13, 54, 0
19, 21180, Note_on_c, 13, 60, 88
19, 21299, Note_on_c, 13, 60, 0
19, 21300, Note_on_c, 13, 60, 88
19, 21359, Note_on_c, 13, 60, 0
19, 21360, Note_on_c, 13, 60, 88
19, 21479, Note_on_c, 13, 60, 0
19, 21480, Note_on_c, 13, 58, 88
19, 21599, Note_on_c, 13, 58, 0
19, 21660, Note_on_c, 13, 58, 88
19, 21719, Note_on_c, 13, 58, 0
19, 21720, Note_on_c, 13, 55, 88
19, 21779, Note_on_c, 13, 55, 0
19, 21780, Note_on_c, 13, 57, 88
19, 21809, Note_on_c, 13, 57, 0
19, 21810, Note_on_c, 13, 58, 88
19, 21839, Note_on_c, 13, 58, 0
19, 21840, Note_on_c, 13, 52, 88
19, 21959, Note_on_c, 13, 52, 0
19, 21960, Note_on_c, 13, 57, 88
19, 22079, Note_on_c, 13, 57, 0
19, 22140, Note_on_c, 13, 60, 88
19, 22199, Note_on_c, 13, 60, 0
19, 22200, Note_on_c, 13, 60, 88
19, 22259, Note_on_c, 13, 60, 0
19, 22260, Note_on_c, 13, 60, 88
19, 22319, Note_on_c, 13, 60, 0
19, 22320, Note_on_c, 13, 60, 88
19, 22409, Note_on_c, 13, 60, 0
19, 22410, Note_on_c, 13, 59, 88
19, 22439, Note_on_c, 13, 59, 0
19, 22440, Note_on_c, 13, 59, 88
19, 22559, Note_on_c, 13, 59, 0
19, 22620, Note_on_c, 13, 60, 88
19, 22739, Note_on_c, 13, 60, 0
19, 22740, Note_on_c, 13, 63, 88
19, 22799, Note_on_c, 13, 63, 0
19, 22800, Note_on_c, 13, 60, 88
19, 22919, Note_on_c, 13, 60, 0
19, 22920, Note_on_c, 13, 57, 88
19, 23039, Note_on_c, 13, 57, 0
19, 23040, Note_on_c, 13, 54, 88
19, 23159, Note_on_c, 13, 54, 0
19, 23160, Note_on_c, 13, 50, 88
19, 23279, Note_on_c, 13, 50, 0
19, 23280, Note_on_c, 13, 55, 88
19, 23339, Note_on_c, 13, 55, 0
19, 23340, Note_on_c, 13, 55, 88
19, 23399, Note_on_c, 13, 55, 0
19, 25740, Note_on_c, 13, 56, 88
19, 25799, Note_on_c, 13, 56, 0
19, 25800, Note_on_c, 13, 53, 88
19, 25859, Note_on_c, 13, 53, 0
19, 25860, Note_on_c, 13, 55, 88
19, 25889, Note_on_c, 13, 55, 0
19, 25890, Note_on_c, 13, 56, 88
19, 25919, Note_on_c, 13, 56, 0
19, 25920, Note_on_c, 13, 50, 88
19, 26039, Note_on_c, 13, 50, 0
19, 26040, Note_on_c, 13, 55, 88
19, 26159, Note_on_c, 13, 55, 0
19, 26940, Note_on_c, 13, 58, 88
19, 26999, Note_on_c, 13, 58, 0
19, 27000, Note_on_c, 13, 55, 88
19, 27059, Note_on_c, 13, 55, 0
19, 27060, Note_on_c, 13, 57, 88
19, 27089, Note_on_c, 13, 57, 0
19, 27090, Note_on_c, 13, 58, 88
19, 27119, Note_on_c, 13, 58, 0
19, 27120, Note_on_c, 13, 52, 88
19, 27239, Note_on_c, 13, 52, 0
19, 27240, Note_on_c, 13, 57, 88
19, 27359, Note_on_c, 13, 57, 0
19, 27420, Note_on_c, 13, 62, 88
19, 27479, Note_on_c, 13, 62, 0
19, 27480, Note_on_c, 13, 62, 88
19, 27539, Note_on_c, 13, 62, 0
19, 27540, Note_on_c, 13, 62, 88
19, 27599, Note_on_c, 13, 62, 0
19, 27600, Note_on_c, 13, 63, 88
19, 27689, Note_on_c, 13, 63, 0
19, 27690, Note_on_c, 13, 51, 88
19, 27719, Note_on_c, 13, 51, 0
19, 27720, Note_on_c, 13, 51, 88
19, 27839, Note_on_c, 13, 51, 0
19, 27900, Note_on_c, 13, 62, 88
19, 28019, Note_on_c, 13, 62, 0
19, 28020, Note_on_c, 13, 62, 88
19, 28079, Note_on_c, 13, 62, 0
19, 28080, Note_on_c, 13, 60, 88
19, 28199, Note_on_c, 13, 60, 0
19, 28200, Note_on_c, 13, 48, 88
19, 28319, Note_on_c, 13, 48, 0
19, 28380, Note_on_c, 13, 58, 88
19, 28499, Note_on_c, 13, 58, 0
19, 28500, Note_on_c, 13, 55, 88
19, 28559, Note_on_c, 13, 55, 0
19, 28560, Note_on_c, 13, 51, 88
19, 28799, Note_on_c, 13, 51, 0
19, 28800, Note_on_c, 13, 50, 88
19, 28919, Note_on_c, 13, 50, 0
19, 29100, Note_on_c, 13, 50, 88
19, 29159, Note_on_c, 13, 50, 0
19, 29160, Note_on_c, 13, 50, 88
19, 29219, Note_on_c, 13, 50, 0
19, 29220, Note_on_c, 13, 50, 88
19, 29279, Note_on_c, 13, 50, 0
19, 29280, Note_on_c, 13, 50, 88
19, 29369, Note_on_c, 13, 50, 0
19, 29370, Note_on_c, 13, 50, 88
19, 29399, Note_on_c, 13, 50, 0
19, 29400, Note_on_c, 13, 50, 88
19, 29519, Note_on_c, 13, 50, 0
19, 29580, Note_on_c, 13, 50, 88
19, 29699, Note_on_c, 13, 50, 0
19, 29700, Note_on_c, 13, 50, 88
19, 29759, Note_on_c, 13, 50, 0
19, 29760, Note_on_c, 13, 50, 88
19, 29879, Note_on_c, 13, 50, 0
19, 29880, Note_on_c, 13, 50, 88
19, 29999, Note_on_c, 13, 50, 0
19, 30060, Note_on_c, 13, 50, 88
19, 30119, Note_on_c, 13, 50, 0
19, 30120, Note_on_c, 13, 50, 88
19, 30179, Note_on_c, 13, 50, 0
19, 30180, Note_on_c, 13, 50, 88
19, 30239, Note_on_c, 13, 50, 0
19, 30240, Note_on_c, 13, 50, 88
19, 30329, Note_on_c, 13, 50, 0
19, 30330, Note_on_c, 13, 50, 88
19, 30359, Note_on_c, 13, 50, 0
19, 30360, Note_on_c, 13, 50, 88
19, 30479, Note_on_c, 13, 50, 0
19, 30540, Note_on_c, 13, 50, 88
19, 30659, Note_on_c, 13, 50, 0
19, 30660, Note_on_c, 13, 50, 88
19, 30719, Note_on_c, 13, 50, 0
19, 30720, Note_on_c, 13, 49, 88
19, 30839, Note_on_c, 13, 49, 0
19, 30840, Note_on_c, 13, 49, 88
19, 30959, Note_on_c, 13, 49, 0
19, 31080, Note_on_c, 13, 49, 58
19, 31199, Note_on_c, 13, 49, 0
19, 31200, Note_on_c, 13, 50, 58
19, 31319, Note_on_c, 13, 50, 0
19, 31320, Note_on_c, 13, 51, 58
19, 31379, Note_on_c, 13, 51, 0
19, 31380, Note_on_c, 13, 51, 58
19, 31439, Note_on_c, 13, 51, 0
19, 31440, Note_on_c, 13, 50, 58
19, 31679, Note_on_c, 13, 50, 0
19, 31680, Note_on_c, 13, 43, 58
19, 31799, Note_on_c, 13, 43, 0
19, 31920, Note_on_c, 13, 51, 58
19, 32159, Note_on_c, 13, 51, 0
19, 32160, Note_on_c, 13, 53, 58
19, 32399, Note_on_c, 13, 53, 0
19, 32400, Note_on_c, 13, 50, 58
19, 32639, Note_on_c, 13, 50, 0
19, 32640, Note_on_c, 13, 51, 58
19, 32879, Note_on_c, 13, 51, 0
19, 32880, Note_on_c, 13, 45, 58
19, 32999, Note_on_c, 13, 45, 0
19, 33000, Note_on_c, 13, 46, 58
19, 33059, Note_on_c, 13, 46, 0
19, 33060, Note_on_c, 13, 48, 58
19, 33119, Note_on_c, 13, 48, 0
19, 33120, Note_on_c, 13, 50, 58
19, 33179, Note_on_c, 13, 50, 0
19, 33180, Note_on_c, 13, 48, 58
19, 33239, Note_on_c, 13, 48, 0
19, 33240, Note_on_c, 13, 46, 58
19, 33299, Note_on_c, 13, 46, 0
19, 33300, Note_on_c, 13, 48, 58
19, 33359, Note_on_c, 13, 48, 0
19, 33360, Note_on_c, 13, 50, 58
19, 33599, Note_on_c, 13, 50, 0
19, 33600, Note_on_c, 13, 43, 58
19, 33659, Note_on_c, 13, 43, 0
19, 33660, Note_on_c, 13, 55, 88
19, 33719, Note_on_c, 13, 55, 0
19, 33720, Note_on_c, 13, 58, 88
19, 33779, Note_on_c, 13, 58, 0
19, 33780, Note_on_c, 13, 55, 88
19, 33839, Note_on_c, 13, 55, 0
19, 33840, Note_on_c, 13, 63, 88
19, 33929, Note_on_c, 13, 63, 0
19, 33930, Note_on_c, 13, 55, 88
19, 33959, Note_on_c, 13, 55, 0
19, 33960, Note_on_c, 13, 55, 88
19, 34079, Note_on_c, 13, 55, 0
19, 34140, Note_on_c, 13, 54, 88
19, 34199, Note_on_c, 13, 54, 0
19, 34200, Note_on_c, 13, 57, 88
19, 34259, Note_on_c, 13, 57, 0
19, 34260, Note_on_c, 13, 54, 88
19, 34319, Note_on_c, 13, 54, 0
19, 34320, Note_on_c, 13, 62, 88
19, 34439, Note_on_c, 13, 62, 0
19, 34440, Note_on_c, 13, 53, 88
19, 34559, Note_on_c, 13, 53, 0
19, 34620, Note_on_c, 13, 52, 88
19, 34679, Note_on_c, 13, 52, 0
19, 34680, Note_on_c, 13, 55, 88
19, 34739, Note_on_c, 13, 55, 0
19, 34740, Note_on_c, 13, 52, 88
19, 34799, Note_on_c, 13, 52, 0
19, 34800, Note_on_c, 13, 60, 88
19, 34859, Note_on_c, 13, 60, 0
19, 34860, Note_on_c, 13, 51, 88
19, 34889, Note_on_c, 13, 51, 0
19, 34890, Note_on_c, 13, 51, 88
19, 34919, Note_on_c, 13, 51, 0
19, 34920, Note_on_c, 13, 51, 88
19, 34979, Note_on_c, 13, 51, 0
19, 34980, Note_on_c, 13, 51, 88
19, 35039, Note_on_c, 13, 51, 0
19, 35040, Note_on_c, 13, 50, 88
19, 35099, Note_on_c, 13, 50, 0
19, 35100, Note_on_c, 13, 54, 88
19, 35159, Note_on_c, 13, 54, 0
19, 35160, Note_on_c, 13, 55, 88
19, 35219, Note_on_c, 13, 55, 0
19, 35220, Note_on_c, 13, 48, 88
19, 35279, Note_on_c, 13, 48, 0
19, 35280, Note_on_c, 13, 50, 88
19, 35519, Note_on_c, 13, 50, 0
19, 35520, Note_on_c, 13, 55, 88
19, 35639, Note_on_c, 13, 55, 0
19, 35880, Note_on_c, 13, 55, 88
19, 35999, Note_on_c, 13, 55, 0
19, 36000, Note_on_c, 13, 51, 88
19, 36119, Note_on_c, 13, 51, 0
19, 36120, Note_on_c, 13, 55, 88
19, 36179, Note_on_c, 13, 55, 0
19, 36180, Note_on_c, 13, 55, 88
19, 36239, Note_on_c, 13, 55, 0
19, 36240, Note_on_c, 13, 51, 88
19, 36359, Note_on_c, 13, 51, 0
19, 36360, Note_on_c, 13, 47, 88
19, 36419, Note_on_c, 13, 47, 0
19, 36420, Note_on_c, 13, 47, 88
19, 36479, Note_on_c, 13, 47, 0
19, 36480, Note_on_c, 13, 48, 88
19, 36959, Note_on_c, 13, 48, 0
19, 36960, Note_on_c, 13, 43, 88
19, 37439, Note_on_c, 13, 43, 0
19, 37439, End_track
20, 0, Start_track
20, 0, Title_t, "Organ"
20, 0, MIDI_port, 0
20, 0, Program_c, 15, 19
20, 0, Control_c, 15, 7, 104
20, 0, Control_c, 15, 10, 64
20, 0, Control_c, 15, 11, 127
20, 60, Note_on_c, 15, 55, 48
20, 60, Note_on_c, 15, 70, 48
20, 60, Note_on_c, 15, 62, 48
20, 60, Note_on_c, 15, 67, 48
20, 119, Note_on_c, 15, 55, 0
20, 120, Note_on_c, 15, 58, 48
20, 179, Note_on_c, 15, 58, 0
20, 180, Note_on_c, 15, 55, 48
20, 239, Note_on_c, 15, 70, 0
20, 239, Note_on_c, 15, 62, 0
20, 239, Note_on_c, 15, 67, 0
20, 239, Note_on_c, 15, 55, 0
20, 300, Note_on_c, 15, 55, 48
20, 300, Note_on_c, 15, 70, 48
20, 300, Note_on_c, 15, 67, 48
20, 300, Note_on_c, 15, 62, 48
20, 359, Note_on_c, 15, 55, 0
20, 360, Note_on_c, 15, 58, 48
20, 419, Note_on_c, 15, 58, 0
20, 420, Note_on_c, 15, 55, 48
20, 479, Note_on_c, 15, 70, 0
20, 479, Note_on_c, 15, 67, 0
20, 479, Note_on_c, 15, 62, 0
20, 479, Note_on_c, 15, 55, 0
20, 540, Note_on_c, 15, 54, 48
20, 540, Note_on_c, 15, 69, 48
20, 540, Note_on_c, 15, 74, 48
20, 540, Note_on_c, 15, 62, 48
20, 599, Note_on_c, 15, 54, 0
20, 600, Note_on_c, 15, 50, 48
20, 659, Note_on_c, 15, 50, 0
20, 660, Note_on_c, 15, 54, 48
20, 719, Note_on_c, 15, 69, 0
20, 719, Note_on_c, 15, 74, 0
20, 719, Note_on_c, 15, 62, 0
20, 719, Note_on_c, 15, 54, 0
20, 780, Note_on_c, 15, 55, 48
20, 780, Note_on_c, 15, 62, 48
20, 780, Note_on_c, 15, 70, 48
20, 780, Note_on_c, 15, 67, 48
20, 839, Note_on_c, 15, 55, 0
20, 840, Note_on_c, 15, 58, 48
20, 899, Note_on_c, 15, 58, 0
20, 900, Note_on_c, 15, 55, 72
20, 959, Note_on_c, 15, 62, 0
20, 959, Note_on_c, 15, 70, 0
20, 959, Note_on_c, 15, 67, 0
20, 959, Note_on_c, 15, 55, 0
20, 960, Note_on_c, 15, 51, 72
20, 989, Note_on_c, 15, 51, 0
20, 990, Note_on_c, 15, 53, 72
20, 1019, Note_on_c, 15, 53, 0
20, 1020, Note_on_c, 15, 55, 72
20, 1049, Note_on_c, 15, 55, 0
20, 1050, Note_on_c, 15, 57, 72
20, 1079, Note_on_c, 15, 57, 0
20, 1080, Note_on_c, 15, 58, 72
20, 1109, Note_on_c, 15, 58, 0
20, 1110, Note_on_c, 15, 53, 72
20, 1139, Note_on_c, 15, 53, 0
20, 1140, Note_on_c, 15, 50, 72
20, 1169, Note_on_c, 15, 50, 0
20, 1170, Note_on_c, 15, 46, 72
20, 1199, Note_on_c, 15, 46, 0
20, 1200, Note_on_c, 15, 48, 72
20, 1229, Note_on_c, 15, 48, 0
20, 1230, Note_on_c, 15, 50, 72
20, 1259, Note_on_c, 15, 50, 0
20, 1260, Note_on_c, 15, 51, 72
20, 1289, Note_on_c, 15, 51, 0
20, 1290, Note_on_c, 15, 53, 72
20, 1319, Note_on_c, 15, 53, 0
20, 1320, Note_on_c, 15, 55, 72
20, 1349, Note_on_c, 15, 55, 0
20, 1350, Note_on_c, 15, 50, 72
20, 1379, Note_on_c, 15, 50, 0
20, 1380, Note_on_c, 15, 46, 72
20, 1409, Note_on_c, 15, 46, 0
20, 1410, Note_on_c, 15, 43, 72
20, 1439, Note_on_c, 15, 43, 0
20, 1440, Note_on_c, 15, 45, 48
20, 1499, Note_on_c, 15, 45, 0
20, 1500, Note_on_c, 15, 60, 48
20, 1529, Note_on_c, 15, 60, 0
20, 1530, Note_on_c, 15, 58, 48
20, 1559, Note_on_c, 15, 58, 0
20, 1560, Note_on_c, 15, 57, 48
20, 1619, Note_on_c, 15, 57, 0
20, 1620, Note_on_c, 15, 55, 48
20, 1679, Note_on_c, 15, 55, 0
20, 1680, Note_on_c, 15, 54, 48
20, 1680, Note_on_c, 15, 69, 48
20, 1680, Note_on_c, 15, 72, 48
20, 1680, Note_on_c, 15, 75, 48
20, 1799, Note_on_c, 15, 75, 0
20, 1800, Note_on_c, 15, 74, 48
20, 1859, Note_on_c, 15, 54, 0
20, 1859, Note_on_c, 15, 69, 0
20, 1859, Note_on_c, 15, 72, 0
20, 1859, Note_on_c, 15, 74, 0
20, 1860, Note_on_c, 15, 54, 48
20, 1860, Note_on_c, 15, 63, 48
20, 1860, Note_on_c, 15, 72, 48
20, 1860, Note_on_c, 15, 69, 48
20, 1919, Note_on_c, 15, 54, 0
20, 1919, Note_on_c, 15, 63, 0
20, 1919, Note_on_c, 15, 72, 0
20, 1919, Note_on_c, 15, 69, 0
20, 1920, Note_on_c, 15, 55, 48
20, 1920, Note_on_c, 15, 70, 48
20, 1920, Note_on_c, 15, 62, 48
20, 1920, Note_on_c, 15, 67, 48
20, 1979, Note_on_c, 15, 55, 0
20, 1979, Note_on_c, 15, 70, 0
20, 1979, Note_on_c, 15, 62, 0
20, 1979, Note_on_c, 15, 67, 0
20, 1980, Note_on_c, 15, 58, 48
20, 1980, Note_on_c, 15, 62, 48
20, 1980, Note_on_c, 15, 67, 48
20, 2039, Note_on_c, 15, 58, 0
20, 2039, Note_on_c, 15, 62, 0
20, 2039, Note_on_c, 15, 67, 0
20, 2040, Note_on_c, 15, 57, 48
20, 2040, Note_on_c, 15, 72, 48
20, 2040, Note_on_c, 15, 63, 48
20, 2040, Note_on_c, 15, 66, 48
20, 2099, Note_on_c, 15, 57, 0
20, 2099, Note_on_c, 15, 72, 0
20, 2099, Note_on_c, 15, 63, 0
20, 2099, Note_on_c, 15, 66, 0
20, 2100, Note_on_c, 15, 55, 48
20, 2100, Note_on_c, 15, 72, 48
20, 2100, Note_on_c, 15, 63, 48
20, 2100, Note_on_c, 15, 67, 48
20, 2159, Note_on_c, 15, 55, 0
20, 2159, Note_on_c, 15, 72, 0
20, 2159, Note_on_c, 15, 63, 0
20, 2159, Note_on_c, 15, 67, 0
20, 2160, Note_on_c, 15, 54, 48
20, 2160, Note_on_c, 15, 69, 48
20, 2160, Note_on_c, 15, 72, 48
20, 2160, Note_on_c, 15, 75, 48
20, 2279, Note_on_c, 15, 75, 0
20, 2280, Note_on_c, 15, 74, 48
20, 2339, Note_on_c, 15, 54, 0
20, 2339, Note_on_c, 15, 69, 0
20, 2339, Note_on_c, 15, 72, 0
20, 2339, Note_on_c, 15, 74, 0
20, 2340, Note_on_c, 15, 72, 48
20, 2340, Note_on_c, 15, 54, 48
20, 2340, Note_on_c, 15, 75, 48
20, 2340, Note_on_c, 15, 69, 48
20, 2399, Note_on_c, 15, 72, 0
20, 2399, Note_on_c, 15, 54, 0
20, 2399, Note_on_c, 15, 75, 0
20, 2399, Note_on_c, 15, 69, 0
20, 2400, Note_on_c, 15, 55, 48
20, 2400, Note_on_c, 15, 70, 48
20, 2400, Note_on_c, 15, 62, 48
20, 2400, Note_on_c, 15, 67, 48
20, 2459, Note_on_c, 15, 55, 0
20, 2460, Note_on_c, 15, 55, 48
20, 2519, Note_on_c, 15, 70, 0
20, 2519, Note_on_c, 15, 62, 0
20, 2519, Note_on_c, 15, 67, 0
20, 2519, Note_on_c, 15, 55, 0
20, 2520, Note_on_c, 15, 53, 48
20, 2520, Note_on_c, 15, 69, 48
20, 2520, Note_on_c, 15, 57, 48
20, 2520, Note_on_c, 15, 74, 48
20, 2579, Note_on_c, 15, 53, 0
20, 2580, Note_on_c, 15, 53, 48
20, 2639, Note_on_c, 15, 69, 0
20, 2639, Note_on_c, 15, 57, 0
20, 2639, Note_on_c, 15, 74, 0
20, 2639, Note_on_c, 15, 53, 0
20, 2640, Note_on_c, 15, 51, 48
20, 2640, Note_on_c, 15, 55, 48
20, 2640, Note_on_c, 15, 70, 48
20, 2640, Note_on_c, 15, 74, 48
20, 2699, Note_on_c, 15, 51, 0
20, 2700, Note_on_c, 15, 51, 48
20, 2759, Note_on_c, 15, 55, 0
20, 2759, Note_on_c, 15, 70, 0
20, 2759, Note_on_c, 15, 74, 0
20, 2759, Note_on_c, 15, 51, 0
20, 2760, Note_on_c, 15, 51, 48
20, 2760, Note_on_c, 15, 55, 48
20, 2760, Note_on_c, 15, 72, 48
20, 2819, Note_on_c, 15, 51, 0
20, 2820, Note_on_c, 15, 51, 48
20, 2879, Note_on_c, 15, 55, 0
20, 2879, Note_on_c, 15, 72, 0
20, 2879, Note_on_c, 15, 51, 0
20, 2880, Note_on_c, 15, 50, 48
20, 2880, Note_on_c, 15, 66, 48
20, 2880, Note_on_c, 15, 57, 48
20, 2880, Note_on_c, 15, 74, 48
20, 2939, Note_on_c, 15, 50, 0
20, 2939, Note_on_c, 15, 66, 0
20, 2940, Note_on_c, 15, 62, 72
20, 2999, Note_on_c, 15, 57, 0
20, 2999, Note_on_c, 15, 74, 0
20, 2999, Note_on_c, 15, 62, 0
20, 3000, Note_on_c, 15, 60, 72
20, 3000, Note_on_c, 15, 63, 72
20, 3000, Note_on_c, 15, 67, 72
20, 3059, Note_on_c, 15, 60, 0
20, 3059, Note_on_c, 15, 63, 0
20, 3059, Note_on_c, 15, 67, 0
20, 3060, Note_on_c, 15, 48, 72
20, 3060, Note_on_c, 15, 69, 72
20, 3060, Note_on_c, 15, 62, 72
20, 3119, Note_on_c, 15, 48, 0
20, 3119, Note_on_c, 15, 69, 0
20, 3119, Note_on_c, 15, 62, 0
20, 3120, Note_on_c, 15, 46, 72
20, 3120, Note_on_c, 15, 62, 72
20, 3120, Note_on_c, 15, 65, 72
20, 3120, Note_on_c, 15, 77, 72
20, 3120, Note_on_c, 15, 70, 72
20, 3239, Note_on_c, 15, 46, 0
20, 3239, Note_on_c, 15, 62, 0
20, 3239, Note_on_c, 15, 65, 0
20, 3239, Note_on_c, 15, 77, 0
20, 3239, Note_on_c, 15, 70, 0
20, 3360, Note_on_c, 15, 46, 48
20, 3360, Note_on_c, 15, 62, 48
20, 3360, Note_on_c, 15, 65, 48
20, 3360, Note_on_c, 15, 58, 48
20, 3419, Note_on_c, 15, 46, 0
20, 3420, Note_on_c, 15, 41, 48
20, 3479, Note_on_c, 15, 62, 0
20, 3479, Note_on_c, 15, 65, 0
20, 3479, Note_on_c, 15, 58, 0
20, 3479, Note_on_c, 15, 41, 0
20, 3480, Note_on_c, 15, 45, 48
20, 3480, Note_on_c, 15, 60, 48
20, 3480, Note_on_c, 15, 63, 48
20, 3480, Note_on_c, 15, 65, 48
20, 3539, Note_on_c, 15, 45, 0
20, 3540, Note_on_c, 15, 41, 48
20, 3599, Note_on_c, 15, 60, 0
20, 3599, Note_on_c, 15, 63, 0
20, 3599, Note_on_c, 15, 65, 0
20, 3599, Note_on_c, 15, 41, 0
20, 3600, Note_on_c, 15, 46, 48
20, 3600, Note_on_c, 15, 58, 48
20, 3600, Note_on_c, 15, 62, 48
20, 3600, Note_on_c, 15, 65, 48
20, 3659, Note_on_c, 15, 46, 0
20, 3660, Note_on_c, 15, 41, 48
20, 3719, Note_on_c, 15, 58, 0
20, 3719, Note_on_c, 15, 62, 0
20, 3719, Note_on_c, 15, 65, 0
20, 3719, Note_on_c, 15, 41, 0
20, 3720, Note_on_c, 15, 48, 48
20, 3720, Note_on_c, 15, 63, 48
20, 3720, Note_on_c, 15, 65, 48
20, 3720, Note_on_c, 15, 60, 48
20, 3779, Note_on_c, 15, 48, 0
20, 3780, Note_on_c, 15, 41, 48
20, 3839, Note_on_c, 15, 63, 0
20, 3839, Note_on_c, 15, 65, 0
20, 3839, Note_on_c, 15, 60, 0
20, 3839, Note_on_c, 15, 41, 0
20, 3840, Note_on_c, 15, 50, 48
20, 3899, Note_on_c, 15, 50, 0
20, 3900, Note_on_c, 15, 47, 72
20, 3929, Note_on_c, 15, 47, 0
20, 3960, Note_on_c, 15, 48, 72
20, 3989, Note_on_c, 15, 48, 0
20, 4020, Note_on_c, 15, 50, 72
20, 4049, Note_on_c, 15, 50, 0
20, 4080, Note_on_c, 15, 51, 72
20, 4199, Note_on_c, 15, 51, 0
20, 4320, Note_on_c, 15, 63, 48
20, 4320, Note_on_c, 15, 48, 48
20, 4320, Note_on_c, 15, 67, 48
20, 4320, Note_on_c, 15, 60, 48
20, 4380, Note_on_c, 15, 48, 0
20, 4380, Note_on_c, 15, 43, 48
20, 4439, Note_on_c, 15, 63, 0
20, 4439, Note_on_c, 15, 67, 0
20, 4439, Note_on_c, 15, 60, 0
20, 4440, Note_on_c, 15, 43, 0
20, 4440, Note_on_c, 15, 47, 48
20, 4440, Note_on_c, 15, 62, 48
20, 4440, Note_on_c, 15, 65, 48
20, 4440, Note_on_c, 15, 67, 48
20, 4500, Note_on_c, 15, 47, 0
20, 4500, Note_on_c, 15, 43, 48
20, 4559, Note_on_c, 15, 62, 0
20, 4559, Note_on_c, 15, 65, 0
20, 4559, Note_on_c, 15, 67, 0
20, 4560, Note_on_c, 15, 43, 0
20, 4560, Note_on_c, 15, 48, 48
20, 4560, Note_on_c, 15, 63, 48
20, 4560, Note_on_c, 15, 67, 48
20, 4560, Note_on_c, 15, 60, 48
20, 4620, Note_on_c, 15, 48, 0
20, 4620, Note_on_c, 15, 43, 48
20, 4679, Note_on_c, 15, 63, 0
20, 4679, Note_on_c, 15, 67, 0
20, 4679, Note_on_c, 15, 60, 0
20, 4680, Note_on_c, 15, 43, 0
20, 4680, Note_on_c, 15, 50, 48
20, 4680, Note_on_c, 15, 65, 48
20, 4680, Note_on_c, 15, 67, 48
20, 4680, Note_on_c, 15, 71, 48
20, 4740, Note_on_c, 15, 50, 0
20, 4740, Note_on_c, 15, 43, 48
20, 4799, Note_on_c, 15, 65, 0
20, 4799, Note_on_c, 15, 67, 0
20, 4799, Note_on_c, 15, 71, 0
20, 4800, Note_on_c, 15, 43, 0
20, 4800, Note_on_c, 15, 51, 48
20, 4800, Note_on_c, 15, 67, 48
20, 4800, Note_on_c, 15, 60, 48
20, 4800, Note_on_c, 15, 63, 48
20, 4919, Note_on_c, 15, 67, 0
20, 4919, Note_on_c, 15, 60, 0
20, 4919, Note_on_c, 15, 63, 0
20, 4920, Note_on_c, 15, 51, 0
20, 5040, Note_on_c, 15, 44, 48
20, 5040, Note_on_c, 15, 60, 48
20, 5040, Note_on_c, 15, 63, 48
20, 5040, Note_on_c, 15, 56, 48
20, 5100, Note_on_c, 15, 44, 0
20, 5100, Note_on_c, 15, 44, 48
20, 5160, Note_on_c, 15, 44, 0
20, 5160, Note_on_c, 15, 44, 48
20, 5220, Note_on_c, 15, 44, 0
20, 5220, Note_on_c, 15, 44, 48
20, 5279, Note_on_c, 15, 60, 0
20, 5279, Note_on_c, 15, 63, 0
20, 5279, Note_on_c, 15, 56, 0
20, 5280, Note_on_c, 15, 44, 0
20, 5280, Note_on_c, 15, 44, 48
20, 5280, Note_on_c, 15, 60, 48
20, 5280, Note_on_c, 15, 61, 48
20, 5280, Note_on_c, 15, 53, 48
20, 5340, Note_on_c, 15, 44, 0
20, 5340, Note_on_c, 15, 44, 48
20, 5399, Note_on_c, 15, 60, 0
20, 5400, Note_on_c, 15, 44, 0
20, 5400, Note_on_c, 15, 44, 48
20, 5400, Note_on_c, 15, 58, 48
20, 5460, Note_on_c, 15, 44, 0
20, 5460, Note_on_c, 15, 44, 48
20, 5519, Note_on_c, 15, 61, 0
20, 5519, Note_on_c, 15, 53, 0
20, 5519, Note_on_c, 15, 58, 0
20, 5520, Note_on_c, 15, 44, 0
20, 5520, Note_on_c, 15, 43, 48
20, 5520, Note_on_c, 15, 58, 48
20, 5520, Note_on_c, 15, 61, 48
20, 5520, Note_on_c, 15, 52, 48
20, 5580, Note_on_c, 15, 43, 0
20, 5580, Note_on_c, 15, 43, 48
20, 5640, Note_on_c, 15, 43, 0
20, 5640, Note_on_c, 15, 43, 48
20, 5700, Note_on_c, 15, 43, 0
20, 5700, Note_on_c, 15, 43, 48
20, 5759, Note_on_c, 15, 58, 0
20, 5759, Note_on_c, 15, 61, 0
20, 5759, Note_on_c, 15, 52, 0
20, 5760, Note_on_c, 15, 43, 0
20, 5760, Note_on_c, 15, 43, 48
20, 5760, Note_on_c, 15, 59, 48
20, 5760, Note_on_c, 15, 62, 48
20, 5760, Note_on_c, 15, 53, 48
20, 5820, Note_on_c, 15, 43, 0
20, 5820, Note_on_c, 15, 43, 48
20, 5879, Note_on_c, 15, 59, 0
20, 5879, Note_on_c, 15, 62, 0
20, 5879, Note_on_c, 15, 53, 0
20, 5880, Note_on_c, 15, 43, 0
20, 5880, Note_on_c, 15, 43, 48
20, 5880, Note_on_c, 15, 51, 48
20, 5880, Note_on_c, 15, 60, 48
20, 5880, Note_on_c, 15, 63, 48
20, 5940, Note_on_c, 15, 43, 0
20, 5940, Note_on_c, 15, 43, 48
20, 5999, Note_on_c, 15, 51, 0
20, 5999, Note_on_c, 15, 60, 0
20, 5999, Note_on_c, 15, 63, 0
20, 6000, Note_on_c, 15, 43, 0
20, 6000, Note_on_c, 15, 43, 48
20, 6000, Note_on_c, 15, 62, 48
20, 6000, Note_on_c, 15, 60, 48
20, 6060, Note_on_c, 15, 43, 0
20, 6060, Note_on_c, 15, 43, 48
20, 6119, Note_on_c, 15, 60, 0
20, 6120, Note_on_c, 15, 43, 0
20, 6120, Note_on_c, 15, 43, 48
20, 6120, Note_on_c, 15, 58, 48
20, 6180, Note_on_c, 15, 43, 0
20, 6180, Note_on_c, 15, 43, 48
20, 6239, Note_on_c, 15, 62, 0
20, 6239, Note_on_c, 15, 58, 0
20, 6240, Note_on_c, 15, 43, 0
20, 6240, Note_on_c, 15, 48, 72
20, 6300, Note_on_c, 15, 48, 0
20, 6300, Note_on_c, 15, 60, 72
20, 6360, Note_on_c, 15, 60, 0
20, 6360, Note_on_c, 15, 63, 72
20, 6420, Note_on_c, 15, 63, 0
20, 6420, Note_on_c, 15, 60, 72
20, 6480, Note_on_c, 15, 60, 0
20, 6540, Note_on_c, 15, 58, 72
20, 6540, Note_on_c, 15, 73, 72
20, 6540, Note_on_c, 15, 63, 72
20, 6540, Note_on_c, 15, 67, 72
20, 6540, Note_on_c, 15, 70, 72
20, 6600, Note_on_c, 15, 58, 0
20, 6600, Note_on_c, 15, 61, 72
20, 6660, Note_on_c, 15, 61, 0
20, 6660, Note_on_c, 15, 58, 72
20, 6719, Note_on_c, 15, 73, 0
20, 6719, Note_on_c, 15, 63, 0
20, 6719, Note_on_c, 15, 67, 0
20, 6719, Note_on_c, 15, 70, 0
20, 6720, Note_on_c, 15, 58, 0
20, 6780, Note_on_c, 15, 56, 48
20, 6780, Note_on_c, 15, 72, 48
20, 6780, Note_on_c, 15, 63, 48
20, 6780, Note_on_c, 15, 68, 48
20, 6840, Note_on_c, 15, 56, 0
20, 6840, Note_on_c, 15, 60, 48
20, 6900, Note_on_c, 15, 60, 0
20, 6900, Note_on_c, 15, 56, 48
20, 6959, Note_on_c, 15, 72, 0
20, 6959, Note_on_c, 15, 63, 0
20, 6959, Note_on_c, 15, 68, 0
20, 6960, Note_on_c, 15, 56, 0
20, 7020, Note_on_c, 15, 53, 48
20, 7020, Note_on_c, 15, 68, 48
20, 7020, Note_on_c, 15, 72, 48
20, 7020, Note_on_c, 15, 65, 48
20, 7080, Note_on_c, 15, 53, 0
20, 7080, Note_on_c, 15, 56, 48
20, 7140, Note_on_c, 15, 56, 0
20, 7140, Note_on_c, 15, 53, 48
20, 7199, Note_on_c, 15, 68, 0
20, 7199, Note_on_c, 15, 72, 0
20, 7199, Note_on_c, 15, 65, 0
20, 7200, Note_on_c, 15, 53, 0
20, 7200, Note_on_c, 15, 68, 48
20, 7200, Note_on_c, 15, 58, 48
20, 7200, Note_on_c, 15, 75, 48
20, 7259, Note_on_c, 15, 68, 0
20, 7259, Note_on_c, 15, 58, 0
20, 7260, Note_on_c, 15, 51, 48
20, 7260, Note_on_c, 15, 67, 48
20, 7260, Note_on_c, 15, 58, 48
20, 7320, Note_on_c, 15, 51, 0
20, 7320, Note_on_c, 15, 55, 48
20, 7380, Note_on_c, 15, 55, 0
20, 7380, Note_on_c, 15, 51, 48
20, 7439, Note_on_c, 15, 75, 0
20, 7439, Note_on_c, 15, 67, 0
20, 7439, Note_on_c, 15, 58, 0
20, 7440, Note_on_c, 15, 51, 0
20, 7500, Note_on_c, 15, 56, 48
20, 7560, Note_on_c, 15, 56, 0
20, 7560, Note_on_c, 15, 60, 48
20, 7620, Note_on_c, 15, 60, 0
20, 7620, Note_on_c, 15, 56, 72
20, 7680, Note_on_c, 15, 56, 0
20, 7680, Note_on_c, 15, 42, 72
20, 7680, Note_on_c, 15, 66, 72
20, 7710, Note_on_c, 15, 42, 0
20, 7710, Note_on_c, 15, 54, 72
20, 7740, Note_on_c, 15, 54, 0
20, 7740, Note_on_c, 15, 54, 72
20, 7770, Note_on_c, 15, 54, 0
20, 7770, Note_on_c, 15, 54, 72
20, 7799, Note_on_c, 15, 66, 0
20, 7800, Note_on_c, 15, 54, 0
20, 7800, Note_on_c, 15, 41, 72
20, 7800, Note_on_c, 15, 65, 72
20, 7830, Note_on_c, 15, 41, 0
20, 7830, Note_on_c, 15, 53, 72
20, 7860, Note_on_c, 15, 53, 0
20, 7860, Note_on_c, 15, 53, 72
20, 7890, Note_on_c, 15, 53, 0
20, 7890, Note_on_c, 15, 53, 72
20, 7919, Note_on_c, 15, 65, 0
20, 7920, Note_on_c, 15, 53, 0
20, 7920, Note_on_c, 15, 40, 72
20, 7920, Note_on_c, 15, 64, 72
20, 7950, Note_on_c, 15, 40, 0
20, 7950, Note_on_c, 15, 52, 72
20, 7980, Note_on_c, 15, 52, 0
20, 7980, Note_on_c, 15, 52, 72
20, 8010, Note_on_c, 15, 52, 0
20, 8010, Note_on_c, 15, 52, 72
20, 8039, Note_on_c, 15, 64, 0
20, 8040, Note_on_c, 15, 52, 0
20, 8040, Note_on_c, 15, 53, 72
20, 8100, Note_on_c, 15, 53, 0
20, 8220, Note_on_c, 15, 58, 48
20, 8220, Note_on_c, 15, 73, 48
20, 8220, Note_on_c, 15, 65, 48
20, 8220, Note_on_c, 15, 70, 48
20, 8280, Note_on_c, 15, 58, 0
20, 8280, Note_on_c, 15, 61, 48
20, 8340, Note_on_c, 15, 61, 0
20, 8340, Note_on_c, 15, 58, 48
20, 8399, Note_on_c, 15, 73, 0
20, 8399, Note_on_c, 15, 65, 0
20, 8399, Note_on_c, 15, 70, 0
20, 8400, Note_on_c, 15, 58, 0
20, 8460, Note_on_c, 15, 54, 48
20, 8460, Note_on_c, 15, 70, 48
20, 8460, Note_on_c, 15, 73, 48
20, 8460, Note_on_c, 15, 64, 48
20, 8520, Note_on_c, 15, 54, 0
20, 8520, Note_on_c, 15, 58, 48
20, 8580, Note_on_c, 15, 58, 0
20, 8580, Note_on_c, 15, 54, 48
20, 8639, Note_on_c, 15, 70, 0
20, 8639, Note_on_c, 15, 73, 0
20, 8639, Note_on_c, 15, 64, 0
20, 8640, Note_on_c, 15, 54, 0
20, 8640, Note_on_c, 15, 70, 48
20, 8640, Note_on_c, 15, 61, 48
20, 8640, Note_on_c, 15, 77, 48
20, 8700, Note_on_c, 15, 53, 48
20, 8759, Note_on_c, 15, 70, 0
20, 8759, Note_on_c, 15, 61, 0
20, 8760, Note_on_c, 15, 53, 0
20, 8760, Note_on_c, 15, 57, 48
20, 8760, Note_on_c, 15, 60, 48
20, 8760, Note_on_c, 15, 69, 48
20, 8820, Note_on_c, 15, 57, 0
20, 8820, Note_on_c, 15, 53, 48
20, 8879, Note_on_c, 15, 77, 0
20, 8879, Note_on_c, 15, 60, 0
20, 8879, Note_on_c, 15, 69, 0
20, 8880, Note_on_c, 15, 53, 0
20, 8880, Note_on_c, 15, 74, 48
20, 8880, Note_on_c, 15, 65, 48
20, 8880, Note_on_c, 15, 70, 48
20, 8940, Note_on_c, 15, 58, 48
20, 9000, Note_on_c, 15, 58, 0
20, 9000, Note_on_c, 15, 62, 48
20, 9060, Note_on_c, 15, 62, 0
20, 9060, Note_on_c, 15, 58, 72
20, 9119, Note_on_c, 15, 74, 0
20, 9119, Note_on_c, 15, 65, 0
20, 9119, Note_on_c, 15, 70, 0
20, 9120, Note_on_c, 15, 58, 0
20, 9120, Note_on_c, 15, 44, 72
20, 9120, Note_on_c, 15, 68, 72
20, 9150, Note_on_c, 15, 44, 0
20, 9150, Note_on_c, 15, 56, 72
20, 9180, Note_on_c, 15, 56, 0
20, 9180, Note_on_c, 15, 56, 72
20, 9210, Note_on_c, 15, 56, 0
20, 9210, Note_on_c, 15, 56, 72
20, 9239, Note_on_c, 15, 68, 0
20, 9240, Note_on_c, 15, 56, 0
20, 9240, Note_on_c, 15, 43, 72
20, 9240, Note_on_c, 15, 67, 72
20, 9270, Note_on_c, 15, 43, 0
20, 9270, Note_on_c, 15, 55, 72
20, 9300, Note_on_c, 15, 55, 0
20, 9300, Note_on_c, 15, 55, 72
20, 9330, Note_on_c, 15, 55, 0
20, 9330, Note_on_c, 15, 55, 72
20, 9359, Note_on_c, 15, 67, 0
20, 9360, Note_on_c, 15, 55, 0
20, 9360, Note_on_c, 15, 42, 72
20, 9360, Note_on_c, 15, 66, 72
20, 9390, Note_on_c, 15, 42, 0
20, 9390, Note_on_c, 15, 54, 72
20, 9420, Note_on_c, 15, 54, 0
20, 9420, Note_on_c, 15, 54, 72
20, 9450, Note_on_c, 15, 54, 0
20, 9450, Note_on_c, 15, 54, 72
20, 9479, Note_on_c, 15, 66, 0
20, 9480, Note_on_c, 15, 54, 0
20, 9480, Note_on_c, 15, 55, 72
20, 9540, Note_on_c, 15, 55, 0
20, 9600, Note_on_c, 15, 43, 72
20, 9600, Note_on_c, 15, 59, 72
20, 9600, Note_on_c, 15, 62, 72
20, 9600, Note_on_c, 15, 67, 72
20, 9629, Note_on_c, 15, 43, 0
20, 9630, Note_on_c, 15, 47, 72
20, 9659, Note_on_c, 15, 47, 0
20, 9660, Note_on_c, 15, 50, 72
20, 9689, Note_on_c, 15, 50, 0
20, 9690, Note_on_c, 15, 55, 72
20, 9719, Note_on_c, 15, 59, 0
20, 9719, Note_on_c, 15, 62, 0
20, 9719, Note_on_c, 15, 67, 0
20, 9719, Note_on_c, 15, 55, 0
20, 9720, Note_on_c, 15, 51, 72
20, 9720, Note_on_c, 15, 67, 72
20, 9720, Note_on_c, 15, 60, 72
20, 9720, Note_on_c, 15, 63, 72
20, 9749, Note_on_c, 15, 51, 0
20, 9750, Note_on_c, 15, 55, 72
20, 9779, Note_on_c, 15, 55, 0
20, 9780, Note_on_c, 15, 48, 72
20, 9809, Note_on_c, 15, 48, 0
20, 9810, Note_on_c, 15, 51, 72
20, 9839, Note_on_c, 15, 67, 0
20, 9839, Note_on_c, 15, 60, 0
20, 9839, Note_on_c, 15, 63, 0
20, 9839, Note_on_c, 15, 51, 0
20, 9840, Note_on_c, 15, 53, 72
20, 9840, Note_on_c, 15, 68, 72
20, 9840, Note_on_c, 15, 72, 72
20, 9869, Note_on_c, 15, 53, 0
20, 9870, Note_on_c, 15, 56, 72
20, 9899, Note_on_c, 15, 56, 0
20, 9900, Note_on_c, 15, 51, 72
20, 9929, Note_on_c, 15, 51, 0
20, 9930, Note_on_c, 15, 60, 72
20, 9959, Note_on_c, 15, 68, 0
20, 9959, Note_on_c, 15, 72, 0
20, 9959, Note_on_c, 15, 60, 0
20, 9960, Note_on_c, 15, 50, 72
20, 9960, Note_on_c, 15, 65, 72
20, 9960, Note_on_c, 15, 68, 72
20, 9960, Note_on_c, 15, 70, 72
20, 9989, Note_on_c, 15, 50, 0
20, 9990, Note_on_c, 15, 53, 72
20, 10019, Note_on_c, 15, 53, 0
20, 10020, Note_on_c, 15, 46, 72
20, 10049, Note_on_c, 15, 46, 0
20, 10050, Note_on_c, 15, 50, 72
20, 10079, Note_on_c, 15, 65, 0
20, 10079, Note_on_c, 15, 68, 0
20, 10079, Note_on_c, 15, 70, 0
20, 10079, Note_on_c, 15, 50, 0
20, 10080, Note_on_c, 15, 51, 72
20, 10080, Note_on_c, 15, 67, 72
20, 10080, Note_on_c, 15, 70, 72
20, 10109, Note_on_c, 15, 51, 0
20, 10110, Note_on_c, 15, 55, 72
20, 10139, Note_on_c, 15, 55, 0
20, 10140, Note_on_c, 15, 50, 72
20, 10169, Note_on_c, 15, 50, 0
20, 10170, Note_on_c, 15, 58, 72
20, 10199, Note_on_c, 15, 67, 0
20, 10199, Note_on_c, 15, 70, 0
20, 10199, Note_on_c, 15, 58, 0
20, 10200, Note_on_c, 15, 48, 72
20, 10200, Note_on_c, 15, 63, 72
20, 10200, Note_on_c, 15, 67, 72
20, 10200, Note_on_c, 15, 69, 72
20, 10229, Note_on_c, 15, 48, 0
20, 10230, Note_on_c, 15, 51, 72
20, 10259, Note_on_c, 15, 51, 0
20, 10260, Note_on_c, 15, 45, 72
20, 10289, Note_on_c, 15, 45, 0
20, 10290, Note_on_c, 15, 48, 72
20, 10319, Note_on_c, 15, 63, 0
20, 10319, Note_on_c, 15, 67, 0
20, 10319, Note_on_c, 15, 69, 0
20, 10319, Note_on_c, 15, 48, 0
20, 10320, Note_on_c, 15, 65, 72
20, 10320, Note_on_c, 15, 50, 72
20, 10320, Note_on_c, 15, 68, 72
20, 10349, Note_on_c, 15, 50, 0
20, 10350, Note_on_c, 15, 53, 72
20, 10379, Note_on_c, 15, 53, 0
20, 10380, Note_on_c, 15, 48, 72
20, 10409, Note_on_c, 15, 48, 0
20, 10410, Note_on_c, 15, 56, 72
20, 10439, Note_on_c, 15, 65, 0
20, 10439, Note_on_c, 15, 68, 0
20, 10439, Note_on_c, 15, 56, 0
20, 10440, Note_on_c, 15, 47, 72
20, 10440, Note_on_c, 15, 62, 72
20, 10440, Note_on_c, 15, 65, 72
20, 10440, Note_on_c, 15, 67, 72
20, 10469, Note_on_c, 15, 47, 0
20, 10470, Note_on_c, 15, 50, 72
20, 10499, Note_on_c, 15, 50, 0
20, 10500, Note_on_c, 15, 43, 72
20, 10529, Note_on_c, 15, 43, 0
20, 10530, Note_on_c, 15, 47, 72
20, 10559, Note_on_c, 15, 62, 0
20, 10559, Note_on_c, 15, 65, 0
20, 10559, Note_on_c, 15, 67, 0
20, 10559, Note_on_c, 15, 47, 0
20, 10560, Note_on_c, 15, 48, 72
20, 10560, Note_on_c, 15, 63, 72
20, 10560, Note_on_c, 15, 67, 72
20, 10589, Note_on_c, 15, 48, 0
20, 10590, Note_on_c, 15, 51, 72
20, 10619, Note_on_c, 15, 51, 0
20, 10620, Note_on_c, 15, 55, 72
20, 10649, Note_on_c, 15, 55, 0
20, 10650, Note_on_c, 15, 53, 72
20, 10679, Note_on_c, 15, 63, 0
20, 10679, Note_on_c, 15, 67, 0
20, 10679, Note_on_c, 15, 53, 0
20, 10680, Note_on_c, 15, 52, 72
20, 10680, Note_on_c, 15, 67, 72
20, 10680, Note_on_c, 15, 72, 72
20, 10709, Note_on_c, 15, 52, 0
20, 10710, Note_on_c, 15, 55, 72
20, 10739, Note_on_c, 15, 55, 0
20, 10740, Note_on_c, 15, 48, 72
20, 10769, Note_on_c, 15, 48, 0
20, 10770, Note_on_c, 15, 52, 72
20, 10799, Note_on_c, 15, 67, 0
20, 10799, Note_on_c, 15, 72, 0
20, 10799, Note_on_c, 15, 52, 0
20, 10800, Note_on_c, 15, 53, 72
20, 10800, Note_on_c, 15, 69, 72
20, 10800, Note_on_c, 15, 72, 72
20, 10800, Note_on_c, 15, 62, 72
20, 10829, Note_on_c, 15, 53, 0
20, 10830, Note_on_c, 15, 57, 72
20, 10859, Note_on_c, 15, 57, 0
20, 10860, Note_on_c, 15, 50, 72
20, 10889, Note_on_c, 15, 50, 0
20, 10890, Note_on_c, 15, 53, 72
20, 10919, Note_on_c, 15, 69, 0
20, 10919, Note_on_c, 15, 72, 0
20, 10919, Note_on_c, 15, 62, 0
20, 10919, Note_on_c, 15, 53, 0
20, 10920, Note_on_c, 15, 70, 72
20, 10920, Note_on_c, 15, 55, 72
20, 10920, Note_on_c, 15, 74, 72
20, 10949, Note_on_c, 15, 55, 0
20, 10950, Note_on_c, 15, 58, 72
20, 10979, Note_on_c, 15, 58, 0
20, 10980, Note_on_c, 15, 53, 72
20, 11009, Note_on_c, 15, 53, 0
20, 11010, Note_on_c, 15, 62, 72
20, 11039, Note_on_c, 15, 70, 0
20, 11039, Note_on_c, 15, 74, 0
20, 11039, Note_on_c, 15, 62, 0
20, 11040, Note_on_c, 15, 52, 72
20, 11040, Note_on_c, 15, 67, 72
20, 11040, Note_on_c, 15, 70, 72
20, 11040, Note_on_c, 15, 72, 72
20, 11069, Note_on_c, 15, 52, 0
20, 11070, Note_on_c, 15, 55, 72
20, 11099, Note_on_c, 15, 55, 0
20, 11100, Note_on_c, 15, 48, 72
20, 11129, Note_on_c, 15, 48, 0
20, 11130, Note_on_c, 15, 52, 72
20, 11159, Note_on_c, 15, 67, 0
20, 11159, Note_on_c, 15, 70, 0
20, 11159, Note_on_c, 15, 72, 0
20, 11159, Note_on_c, 15, 52, 0
20, 11160, Note_on_c, 15, 53, 72
20, 11160, Note_on_c, 15, 69, 72
20, 11160, Note_on_c, 15, 72, 72
20, 11189, Note_on_c, 15, 53, 0
20, 11190, Note_on_c, 15, 57, 72
20, 11219, Note_on_c, 15, 57, 0
20, 11220, Note_on_c, 15, 52, 72
20, 11249, Note_on_c, 15, 52, 0
20, 11250, Note_on_c, 15, 60, 72
20, 11279, Note_on_c, 15, 69, 0
20, 11279, Note_on_c, 15, 72, 0
20, 11279, Note_on_c, 15, 60, 0
20, 11280, Note_on_c, 15, 50, 72
20, 11280, Note_on_c, 15, 65, 72
20, 11280, Note_on_c, 15, 69, 72
20, 11280, Note_on_c, 15, 58, 72
20, 11309, Note_on_c, 15, 50, 0
20, 11310, Note_on_c, 15, 53, 72
20, 11339, Note_on_c, 15, 53, 0
20, 11340, Note_on_c, 15, 46, 72
20, 11369, Note_on_c, 15, 46, 0
20, 11370, Note_on_c, 15, 50, 72
20, 11399, Note_on_c, 15, 65, 0
20, 11399, Note_on_c, 15, 69, 0
20, 11399, Note_on_c, 15, 58, 0
20, 11399, Note_on_c, 15, 50, 0
20, 11400, Note_on_c, 15, 51, 72
20, 11400, Note_on_c, 15, 67, 72
20, 11400, Note_on_c, 15, 58, 72
20, 11400, Note_on_c, 15, 60, 72
20, 11429, Note_on_c, 15, 51, 0
20, 11430, Note_on_c, 15, 55, 72
20, 11459, Note_on_c, 15, 55, 0
20, 11460, Note_on_c, 15, 48, 72
20, 11489, Note_on_c, 15, 48, 0
20, 11490, Note_on_c, 15, 51, 72
20, 11519, Note_on_c, 15, 67, 0
20, 11519, Note_on_c, 15, 58, 0
20, 11519, Note_on_c, 15, 60, 0
20, 11519, Note_on_c, 15, 51, 0
20, 11520, Note_on_c, 15, 53, 72
20, 11520, Note_on_c, 15, 69, 72
20, 11520, Note_on_c, 15, 72, 72
20, 11520, Note_on_c, 15, 65, 72
20, 11549, Note_on_c, 15, 53, 0
20, 11550, Note_on_c, 15, 57, 72
20, 11579, Note_on_c, 15, 57, 0
20, 11580, Note_on_c, 15, 62, 72
20, 11609, Note_on_c, 15, 62, 0
20, 11610, Note_on_c, 15, 60, 72
20, 11639, Note_on_c, 15, 69, 0
20, 11639, Note_on_c, 15, 72, 0
20, 11639, Note_on_c, 15, 65, 0
20, 11639, Note_on_c, 15, 60, 0
20, 11640, Note_on_c, 15, 58, 72
20, 11640, Note_on_c, 15, 74, 72
20, 11640, Note_on_c, 15, 77, 72
20, 11640, Note_on_c, 15, 81, 72
20, 11669, Note_on_c, 15, 58, 0
20, 11670, Note_on_c, 15, 62, 72
20, 11699, Note_on_c, 15, 62, 0
20, 11700, Note_on_c, 15, 57, 72
20, 11729, Note_on_c, 15, 57, 0
20, 11730, Note_on_c, 15, 65, 72
20, 11759, Note_on_c, 15, 74, 0
20, 11759, Note_on_c, 15, 77, 0
20, 11759, Note_on_c, 15, 81, 0
20, 11759, Note_on_c, 15, 65, 0
20, 11760, Note_on_c, 15, 55, 72
20, 11760, Note_on_c, 15, 67, 72
20, 11760, Note_on_c, 15, 70, 72
20, 11760, Note_on_c, 15, 69, 72
20, 11789, Note_on_c, 15, 55, 0
20, 11790, Note_on_c, 15, 58, 72
20, 11819, Note_on_c, 15, 58, 0
20, 11820, Note_on_c, 15, 53, 72
20, 11849, Note_on_c, 15, 53, 0
20, 11850, Note_on_c, 15, 62, 72
20, 11879, Note_on_c, 15, 67, 0
20, 11879, Note_on_c, 15, 70, 0
20, 11879, Note_on_c, 15, 69, 0
20, 11879, Note_on_c, 15, 62, 0
20, 11880, Note_on_c, 15, 52, 72
20, 11880, Note_on_c, 15, 67, 72
20, 11880, Note_on_c, 15, 70, 72
20, 11880, Note_on_c, 15, 73, 72
20, 11880, Note_on_c, 15, 79, 72
20, 11909, Note_on_c, 15, 52, 0
20, 11910, Note_on_c, 15, 55, 72
20, 11939, Note_on_c, 15, 67, 0
20, 11939, Note_on_c, 15, 70, 0
20, 11939, Note_on_c, 15, 73, 0
20, 11939, Note_on_c, 15, 79, 0
20, 11939, Note_on_c, 15, 55, 0
20, 11940, Note_on_c, 15, 50, 72
20, 11940, Note_on_c, 15, 65, 72
20, 11940, Note_on_c, 15, 67, 72
20, 11940, Note_on_c, 15, 70, 72
20, 11940, Note_on_c, 15, 79, 72
20, 11969, Note_on_c, 15, 50, 0
20, 11970, Note_on_c, 15, 58, 72
20, 11999, Note_on_c, 15, 65, 0
20, 11999, Note_on_c, 15, 67, 0
20, 11999, Note_on_c, 15, 70, 0
20, 11999, Note_on_c, 15, 79, 0
20, 11999, Note_on_c, 15, 58, 0
20, 12000, Note_on_c, 15, 49, 72
20, 12000, Note_on_c, 15, 64, 72
20, 12000, Note_on_c, 15, 67, 72
20, 12000, Note_on_c, 15, 69, 72
20, 12029, Note_on_c, 15, 49, 0
20, 12030, Note_on_c, 15, 52, 72
20, 12059, Note_on_c, 15, 52, 0
20, 12060, Note_on_c, 15, 45, 72
20, 12089, Note_on_c, 15, 45, 0
20, 12090, Note_on_c, 15, 49, 72
20, 12119, Note_on_c, 15, 64, 0
20, 12119, Note_on_c, 15, 67, 0
20, 12119, Note_on_c, 15, 69, 0
20, 12119, Note_on_c, 15, 49, 0
20, 12120, Note_on_c, 15, 50, 72
20, 12120, Note_on_c, 15, 65, 72
20, 12120, Note_on_c, 15, 69, 72
20, 12120, Note_on_c, 15, 74, 72
20, 12120, Note_on_c, 15, 77, 72
20, 12149, Note_on_c, 15, 50, 0
20, 12150, Note_on_c, 15, 53, 72
20, 12179, Note_on_c, 15, 53, 0
20, 12180, Note_on_c, 15, 48, 72
20, 12209, Note_on_c, 15, 48, 0
20, 12210, Note_on_c, 15, 57, 72
20, 12239, Note_on_c, 15, 65, 0
20, 12239, Note_on_c, 15, 69, 0
20, 12239, Note_on_c, 15, 74, 0
20, 12239, Note_on_c, 15, 77, 0
20, 12239, Note_on_c, 15, 57, 0
20, 12240, Note_on_c, 15, 47, 72
20, 12240, Note_on_c, 15, 62, 72
20, 12240, Note_on_c, 15, 65, 72
20, 12240, Note_on_c, 15, 67, 72
20, 12269, Note_on_c, 15, 47, 0
20, 12270, Note_on_c, 15, 50, 72
20, 12299, Note_on_c, 15, 50, 0
20, 12300, Note_on_c, 15, 43, 72
20, 12329, Note_on_c, 15, 43, 0
20, 12330, Note_on_c, 15, 47, 72
20, 12359, Note_on_c, 15, 62, 0
20, 12359, Note_on_c, 15, 65, 0
20, 12359, Note_on_c, 15, 67, 0
20, 12359, Note_on_c, 15, 47, 0
20, 12360, Note_on_c, 15, 49, 72
20, 12360, Note_on_c, 15, 64, 72
20, 12360, Note_on_c, 15, 67, 72
20, 12360, Note_on_c, 15, 69, 72
20, 12360, Note_on_c, 15, 76, 72
20, 12389, Note_on_c, 15, 49, 0
20, 12390, Note_on_c, 15, 52, 72
20, 12419, Note_on_c, 15, 52, 0
20, 12420, Note_on_c, 15, 45, 72
20, 12449, Note_on_c, 15, 45, 0
20, 12450, Note_on_c, 15, 49, 72
20, 12479, Note_on_c, 15, 64, 0
20, 12479, Note_on_c, 15, 67, 0
20, 12479, Note_on_c, 15, 69, 0
20, 12479, Note_on_c, 15, 76, 0
20, 12479, Note_on_c, 15, 49, 0
20, 12480, Note_on_c, 15, 50, 72
20, 12480, Note_on_c, 15, 65, 72
20, 12480, Note_on_c, 15, 69, 72
20, 12509, Note_on_c, 15, 50, 0
20, 12510, Note_on_c, 15, 53, 72
20, 12539, Note_on_c, 15, 53, 0
20, 12540, Note_on_c, 15, 57, 72
20, 12569, Note_on_c, 15, 57, 0
20, 12570, Note_on_c, 15, 61, 72
20, 12599, Note_on_c, 15, 61, 0
20, 12600, Note_on_c, 15, 62, 72
20, 12629, Note_on_c, 15, 62, 0
20, 12630, Note_on_c, 15, 57, 72
20, 12659, Note_on_c, 15, 57, 0
20, 12660, Note_on_c, 15, 53, 72
20, 12689, Note_on_c, 15, 53, 0
20, 12690, Note_on_c, 15, 50, 72
20, 12719, Note_on_c, 15, 65, 0
20, 12719, Note_on_c, 15, 69, 0
20, 12719, Note_on_c, 15, 50, 0
20, 12720, Note_on_c, 15, 51, 72
20, 12720, Note_on_c, 15, 79, 72
20, 12720, Note_on_c, 15, 70, 72
20, 12720, Note_on_c, 15, 74, 72
20, 12720, Note_on_c, 15, 65, 72
20, 12749, Note_on_c, 15, 51, 0
20, 12750, Note_on_c, 15, 55, 72
20, 12779, Note_on_c, 15, 55, 0
20, 12780, Note_on_c, 15, 58, 72
20, 12809, Note_on_c, 15, 58, 0
20, 12810, Note_on_c, 15, 62, 72
20, 12839, Note_on_c, 15, 79, 0
20, 12839, Note_on_c, 15, 70, 0
20, 12839, Note_on_c, 15, 74, 0
20, 12839, Note_on_c, 15, 65, 0
20, 12839, Note_on_c, 15, 62, 0
20, 12840, Note_on_c, 15, 60, 72
20, 12840, Note_on_c, 15, 63, 72
20, 12840, Note_on_c, 15, 67, 72
20, 12840, Note_on_c, 15, 72, 72
20, 12869, Note_on_c, 15, 60, 0
20, 12870, Note_on_c, 15, 55, 72
20, 12899, Note_on_c, 15, 55, 0
20, 12900, Note_on_c, 15, 51, 72
20, 12929, Note_on_c, 15, 51, 0
20, 12930, Note_on_c, 15, 48, 72
20, 12959, Note_on_c, 15, 63, 0
20, 12959, Note_on_c, 15, 67, 0
20, 12959, Note_on_c, 15, 72, 0
20, 12959, Note_on_c, 15, 48, 0
20, 12960, Note_on_c, 15, 50, 72
20, 12960, Note_on_c, 15, 65, 72
20, 12960, Note_on_c, 15, 69, 72
20, 12960, Note_on_c, 15, 72, 72
20, 12960, Note_on_c, 15, 75, 72
20, 12989, Note_on_c, 15, 50, 0
20, 12990, Note_on_c, 15, 53, 72
20, 13019, Note_on_c, 15, 53, 0
20, 13020, Note_on_c, 15, 57, 72
20, 13049, Note_on_c, 15, 57, 0
20, 13050, Note_on_c, 15, 60, 72
20, 13079, Note_on_c, 15, 65, 0
20, 13079, Note_on_c, 15, 69, 0
20, 13079, Note_on_c, 15, 72, 0
20, 13079, Note_on_c, 15, 75, 0
20, 13079, Note_on_c, 15, 60, 0
20, 13080, Note_on_c, 15, 58, 72
20, 13080, Note_on_c, 15, 70, 72
20, 13080, Note_on_c, 15, 74, 72
20, 13080, Note_on_c, 15, 65, 72
20, 13109, Note_on_c, 15, 58, 0
20, 13110, Note_on_c, 15, 53, 72
20, 13139, Note_on_c, 15, 53, 0
20, 13140, Note_on_c, 15, 50, 72
20, 13169, Note_on_c, 15, 50, 0
20, 13170, Note_on_c, 15, 46, 72
20, 13199, Note_on_c, 15, 70, 0
20, 13199, Note_on_c, 15, 74, 0
20, 13199, Note_on_c, 15, 65, 0
20, 13199, Note_on_c, 15, 46, 0
20, 13200, Note_on_c, 15, 48, 72
20, 13200, Note_on_c, 15, 63, 72
20, 13200, Note_on_c, 15, 67, 72
20, 13200, Note_on_c, 15, 70, 72
20, 13200, Note_on_c, 15, 74, 72
20, 13229, Note_on_c, 15, 48, 0
20, 13230, Note_on_c, 15, 51, 72
20, 13259, Note_on_c, 15, 63, 0
20, 13259, Note_on_c, 15, 67, 0
20, 13259, Note_on_c, 15, 70, 0
20, 13259, Note_on_c, 15, 74, 0
20, 13259, Note_on_c, 15, 51, 0
20, 13260, Note_on_c, 15, 55, 72
20, 13260, Note_on_c, 15, 72, 72
20, 13260, Note_on_c, 15, 75, 72
20, 13260, Note_on_c, 15, 67, 72
20, 13260, Note_on_c, 15, 70, 72
20, 13289, Note_on_c, 15, 55, 0
20, 13290, Note_on_c, 15, 58, 72
20, 13319, Note_on_c, 15, 72, 0
20, 13319, Note_on_c, 15, 75, 0
20, 13319, Note_on_c, 15, 67, 0
20, 13319, Note_on_c, 15, 70, 0
20, 13319, Note_on_c, 15, 58, 0
20, 13320, Note_on_c, 15, 57, 72
20, 13320, Note_on_c, 15, 60, 72
20, 13320, Note_on_c, 15, 75, 72
20, 13320, Note_on_c, 15, 66, 72
20, 13320, Note_on_c, 15, 69, 72
20, 13349, Note_on_c, 15, 57, 0
20, 13350, Note_on_c, 15, 54, 72
20, 13379, Note_on_c, 15, 54, 0
20, 13380, Note_on_c, 15, 51, 72
20, 13409, Note_on_c, 15, 51, 0
20, 13410, Note_on_c, 15, 48, 72
20, 13439, Note_on_c, 15, 60, 0
20, 13439, Note_on_c, 15, 75, 0
20, 13439, Note_on_c, 15, 66, 0
20, 13439, Note_on_c, 15, 69, 0
20, 13439, Note_on_c, 15, 48, 0
20, 13440, Note_on_c, 15, 46, 72
20, 13440, Note_on_c, 15, 62, 72
20, 13440, Note_on_c, 15, 67, 72
20, 13440, Note_on_c, 15, 75, 72
20, 13469, Note_on_c, 15, 46, 0
20, 13470, Note_on_c, 15, 43, 72
20, 13499, Note_on_c, 15, 43, 0
20, 13500, Note_on_c, 15, 46, 72
20, 13529, Note_on_c, 15, 46, 0
20, 13530, Note_on_c, 15, 48, 72
20, 13559, Note_on_c, 15, 62, 0
20, 13559, Note_on_c, 15, 67, 0
20, 13559, Note_on_c, 15, 75, 0
20, 13559, Note_on_c, 15, 48, 0
20, 13560, Note_on_c, 15, 50, 72
20, 13560, Note_on_c, 15, 66, 72
20, 13560, Note_on_c, 15, 69, 72
20, 13560, Note_on_c, 15, 74, 72
20, 13589, Note_on_c, 15, 50, 0
20, 13590, Note_on_c, 15, 52, 72
20, 13619, Note_on_c, 15, 52, 0
20, 13620, Note_on_c, 15, 54, 72
20, 13649, Note_on_c, 15, 54, 0
20, 13650, Note_on_c, 15, 50, 72
20, 13679, Note_on_c, 15, 66, 0
20, 13679, Note_on_c, 15, 69, 0
20, 13679, Note_on_c, 15, 74, 0
20, 13679, Note_on_c, 15, 50, 0
20, 13680, Note_on_c, 15, 55, 72
20, 13680, Note_on_c, 15, 70, 72
20, 13680, Note_on_c, 15, 62, 72
20, 13680, Note_on_c, 15, 67, 72
20, 13709, Note_on_c, 15, 55, 0
20, 13710, Note_on_c, 15, 57, 72
20, 13739, Note_on_c, 15, 57, 0
20, 13740, Note_on_c, 15, 58, 72
20, 13769, Note_on_c, 15, 58, 0
20, 13770, Note_on_c, 15, 60, 72
20, 13799, Note_on_c, 15, 70, 0
20, 13799, Note_on_c, 15, 62, 0
20, 13799, Note_on_c, 15, 67, 0
20, 13799, Note_on_c, 15, 60, 0
20, 13800, Note_on_c, 15, 62, 72
20, 13800, Note_on_c, 15, 74, 72
20, 13800, Note_on_c, 15, 66, 72
20, 13829, Note_on_c, 15, 62, 0
20, 13830, Note_on_c, 15, 64, 72
20, 13859, Note_on_c, 15, 64, 0
20, 13860, Note_on_c, 15, 66, 72
20, 13889, Note_on_c, 15, 66, 0
20, 13890, Note_on_c, 15, 62, 72
20, 13919, Note_on_c, 15, 74, 0
20, 13919, Note_on_c, 15, 66, 0
20, 13919, Note_on_c, 15, 62, 0
20, 13920, Note_on_c, 15, 67, 72
20, 13920, Note_on_c, 15, 70, 72
20, 13920, Note_on_c, 15, 74, 72
20, 13949, Note_on_c, 15, 67, 0
20, 13950, Note_on_c, 15, 62, 72
20, 13979, Note_on_c, 15, 62, 0
20, 13980, Note_on_c, 15, 58, 72
20, 14009, Note_on_c, 15, 58, 0
20, 14010, Note_on_c, 15, 55, 72
20, 14039, Note_on_c, 15, 70, 0
20, 14039, Note_on_c, 15, 74, 0
20, 14039, Note_on_c, 15, 55, 0
20, 14040, Note_on_c, 15, 62, 72
20, 14040, Note_on_c, 15, 66, 72
20, 14040, Note_on_c, 15, 69, 72
20, 14099, Note_on_c, 15, 62, 0
20, 14100, Note_on_c, 15, 50, 72
20, 14159, Note_on_c, 15, 66, 0
20, 14159, Note_on_c, 15, 69, 0
20, 14159, Note_on_c, 15, 50, 0
20, 14160, Note_on_c, 15, 50, 48
20, 14160, Note_on_c, 15, 66, 48
20, 14160, Note_on_c, 15, 69, 48
20, 14160, Note_on_c, 15, 62, 48
20, 14219, Note_on_c, 15, 50, 0
20, 14220, Note_on_c, 15, 50, 48
20, 14279, Note_on_c, 15, 50, 0
20, 14280, Note_on_c, 15, 50, 48
20, 14339, Note_on_c, 15, 50, 0
20, 14340, Note_on_c, 15, 50, 48
20, 14399, Note_on_c, 15, 66, 0
20, 14399, Note_on_c, 15, 69, 0
20, 14399, Note_on_c, 15, 62, 0
20, 14399, Note_on_c, 15, 50, 0
20, 14400, Note_on_c, 15, 50, 48
20, 14400, Note_on_c, 15, 63, 48
20, 14400, Note_on_c, 15, 55, 48
20, 14400, Note_on_c, 15, 58, 48
20, 14400, Note_on_c, 15, 62, 48
20, 14459, Note_on_c, 15, 50, 0
20, 14460, Note_on_c, 15, 50, 48
20, 14519, Note_on_c, 15, 50, 0
20, 14520, Note_on_c, 15, 50, 48
20, 14579, Note_on_c, 15, 50, 0
20, 14580, Note_on_c, 15, 50, 48
20, 14639, Note_on_c, 15, 63, 0
20, 14639, Note_on_c, 15, 55, 0
20, 14639, Note_on_c, 15, 58, 0
20, 14639, Note_on_c, 15, 62, 0
20, 14639, Note_on_c, 15, 50, 0
20, 14640, Note_on_c, 15, 48, 48
20, 14640, Note_on_c, 15, 63, 48
20, 14640, Note_on_c, 15, 57, 48
20, 14640, Note_on_c, 15, 60, 48
20, 14699, Note_on_c, 15, 48, 0
20, 14700, Note_on_c, 15, 48, 48
20, 14759, Note_on_c, 15, 57, 0
20, 14759, Note_on_c, 15, 60, 0
20, 14759, Note_on_c, 15, 48, 0
20, 14760, Note_on_c, 15, 48, 48
20, 14760, Note_on_c, 15, 55, 48
20, 14760, Note_on_c, 15, 58, 48
20, 14819, Note_on_c, 15, 48, 0
20, 14820, Note_on_c, 15, 48, 48
20, 14879, Note_on_c, 15, 63, 0
20, 14879, Note_on_c, 15, 55, 0
20, 14879, Note_on_c, 15, 58, 0
20, 14879, Note_on_c, 15, 48, 0
20, 14880, Note_on_c, 15, 50, 48
20, 14880, Note_on_c, 15, 54, 48
20, 14880, Note_on_c, 15, 57, 48
20, 14939, Note_on_c, 15, 50, 0
20, 14939, Note_on_c, 15, 54, 0
20, 14939, Note_on_c, 15, 57, 0
20, 14940, Note_on_c, 15, 48, 48
20, 14940, Note_on_c, 15, 60, 48
20, 14999, Note_on_c, 15, 48, 0
20, 14999, Note_on_c, 15, 60, 0
20, 15000, Note_on_c, 15, 46, 48
20, 15000, Note_on_c, 15, 58, 48
20, 15059, Note_on_c, 15, 46, 0
20, 15059, Note_on_c, 15, 58, 0
20, 15060, Note_on_c, 15, 45, 48
20, 15060, Note_on_c, 15, 57, 48
20, 15119, Note_on_c, 15, 45, 0
20, 15119, Note_on_c, 15, 57, 0
20, 15120, Note_on_c, 15, 43, 48
20, 15120, Note_on_c, 15, 67, 48
20, 15120, Note_on_c, 15, 70, 48
20, 15120, Note_on_c, 15, 62, 48
20, 15179, Note_on_c, 15, 43, 0
20, 15180, Note_on_c, 15, 55, 48
20, 15239, Note_on_c, 15, 67, 0
20, 15239, Note_on_c, 15, 70, 0
20, 15239, Note_on_c, 15, 62, 0
20, 15239, Note_on_c, 15, 55, 0
20, 15240, Note_on_c, 15, 58, 48
20, 15240, Note_on_c, 15, 62, 48
20, 15240, Note_on_c, 15, 70, 48
20, 15240, Note_on_c, 15, 67, 48
20, 15299, Note_on_c, 15, 58, 0
20, 15300, Note_on_c, 15, 55, 48
20, 15359, Note_on_c, 15, 62, 0
20, 15359, Note_on_c, 15, 70, 0
20, 15359, Note_on_c, 15, 67, 0
20, 15359, Note_on_c, 15, 55, 0
20, 15420, Note_on_c, 15, 55, 48
20, 15420, Note_on_c, 15, 70, 48
20, 15420, Note_on_c, 15, 62, 48
20, 15420, Note_on_c, 15, 67, 48
20, 15479, Note_on_c, 15, 55, 0
20, 15480, Note_on_c, 15, 58, 48
20, 15539, Note_on_c, 15, 58, 0
20, 15540, Note_on_c, 15, 55, 48
20, 15599, Note_on_c, 15, 70, 0
20, 15599, Note_on_c, 15, 62, 0
20, 15599, Note_on_c, 15, 67, 0
20, 15599, Note_on_c, 15, 55, 0
20, 15660, Note_on_c, 15, 54, 48
20, 15660, Note_on_c, 15, 74, 48
20, 15660, Note_on_c, 15, 63, 48
20, 15660, Note_on_c, 15, 67, 48
20, 15719, Note_on_c, 15, 54, 0
20, 15720, Note_on_c, 15, 50, 48
20, 15779, Note_on_c, 15, 50, 0
20, 15780, Note_on_c, 15, 54, 48
20, 15839, Note_on_c, 15, 74, 0
20, 15839, Note_on_c, 15, 63, 0
20, 15839, Note_on_c, 15, 67, 0
20, 15839, Note_on_c, 15, 54, 0
20, 15840, Note_on_c, 15, 71, 48
20, 15840, Note_on_c, 15, 74, 48
20, 15840, Note_on_c, 15, 67, 48
20, 15900, Note_on_c, 15, 55, 48
20, 15959, Note_on_c, 15, 55, 0
20, 15960, Note_on_c, 15, 43, 48
20, 16019, Note_on_c, 15, 43, 0
20, 16020, Note_on_c, 15, 55, 48
20, 16079, Note_on_c, 15, 71, 0
20, 16079, Note_on_c, 15, 74, 0
20, 16079, Note_on_c, 15, 67, 0
20, 16079, Note_on_c, 15, 55, 0
20, 16140, Note_on_c, 15, 48, 48
20, 16140, Note_on_c, 15, 60, 48
20, 16140, Note_on_c, 15, 63, 48
20, 16140, Note_on_c, 15, 67, 48
20, 16140, Note_on_c, 15, 72, 48
20, 16199, Note_on_c, 15, 48, 0
20, 16200, Note_on_c, 15, 51, 48
20, 16259, Note_on_c, 15, 51, 0
20, 16260, Note_on_c, 15, 48, 48
20, 16319, Note_on_c, 15, 60, 0
20, 16319, Note_on_c, 15, 63, 0
20, 16319, Note_on_c, 15, 67, 0
20, 16319, Note_on_c, 15, 72, 0
20, 16319, Note_on_c, 15, 48, 0
20, 16380, Note_on_c, 15, 60, 48
20, 16380, Note_on_c, 15, 75, 48
20, 16380, Note_on_c, 15, 67, 48
20, 16380, Note_on_c, 15, 63, 48
20, 16439, Note_on_c, 15, 60, 0
20, 16439, Note_on_c, 15, 75, 0
20, 16439, Note_on_c, 15, 67, 0
20, 16439, Note_on_c, 15, 63, 0
20, 16440, Note_on_c, 15, 56, 48
20, 16440, Note_on_c, 15, 74, 48
20, 16440, Note_on_c, 15, 63, 48
20, 16440, Note_on_c, 15, 68, 48
20, 16499, Note_on_c, 15, 56, 0
20, 16499, Note_on_c, 15, 74, 0
20, 16499, Note_on_c, 15, 63, 0
20, 16499, Note_on_c, 15, 68, 0
20, 16500, Note_on_c, 15, 60, 48
20, 16500, Note_on_c, 15, 63, 48
20, 16500, Note_on_c, 15, 72, 48
20, 16559, Note_on_c, 15, 60, 0
20, 16559, Note_on_c, 15, 63, 0
20, 16559, Note_on_c, 15, 72, 0
20, 16560, Note_on_c, 15, 71, 48
20, 16619, Note_on_c, 15, 71, 0
20, 16620, Note_on_c, 15, 55, 48
20, 16620, Note_on_c, 15, 70, 48
20, 16620, Note_on_c, 15, 67, 48
20, 16620, Note_on_c, 15, 62, 48
20, 16679, Note_on_c, 15, 55, 0
20, 16680, Note_on_c, 15, 59, 48
20, 16739, Note_on_c, 15, 59, 0
20, 16740, Note_on_c, 15, 55, 48
20, 16799, Note_on_c, 15, 70, 0
20, 16799, Note_on_c, 15, 67, 0
20, 16799, Note_on_c, 15, 62, 0
20, 16799, Note_on_c, 15, 55, 0
20, 16800, Note_on_c, 15, 64, 48
20, 16800, Note_on_c, 15, 67, 48
20, 16800, Note_on_c, 15, 70, 48
20, 16859, Note_on_c, 15, 70, 0
20, 16860, Note_on_c, 15, 60, 48
20, 16860, Note_on_c, 15, 73, 48
20, 16919, Note_on_c, 15, 60, 0
20, 16919, Note_on_c, 15, 73, 0
20, 16920, Note_on_c, 15, 48, 48
20, 16920, Note_on_c, 15, 72, 48
20, 16979, Note_on_c, 15, 48, 0
20, 16979, Note_on_c, 15, 72, 0
20, 16980, Note_on_c, 15, 60, 48
20, 16980, Note_on_c, 15, 70, 48
20, 17039, Note_on_c, 15, 64, 0
20, 17039, Note_on_c, 15, 67, 0
20, 17039, Note_on_c, 15, 60, 0
20, 17039, Note_on_c, 15, 70, 0
20, 17100, Note_on_c, 15, 65, 48
20, 17100, Note_on_c, 15, 53, 48
20, 17100, Note_on_c, 15, 68, 48
20, 17100, Note_on_c, 15, 60, 48
20, 17159, Note_on_c, 15, 53, 0
20, 17160, Note_on_c, 15, 56, 48
20, 17219, Note_on_c, 15, 56, 0
20, 17220, Note_on_c, 15, 53, 48
20, 17279, Note_on_c, 15, 65, 0
20, 17279, Note_on_c, 15, 68, 0
20, 17279, Note_on_c, 15, 60, 0
20, 17279, Note_on_c, 15, 53, 0
20, 17340, Note_on_c, 15, 53, 48
20, 17340, Note_on_c, 15, 68, 48
20, 17340, Note_on_c, 15, 60, 48
20, 17340, Note_on_c, 15, 65, 48
20, 17399, Note_on_c, 15, 53, 0
20, 17399, Note_on_c, 15, 68, 0
20, 17399, Note_on_c, 15, 60, 0
20, 17399, Note_on_c, 15, 65, 0
20, 17400, Note_on_c, 15, 47, 48
20, 17400, Note_on_c, 15, 62, 48
20, 17400, Note_on_c, 15, 65, 48
20, 17400, Note_on_c, 15, 68, 48
20, 17459, Note_on_c, 15, 47, 0
20, 17460, Note_on_c, 15, 53, 48
20, 17519, Note_on_c, 15, 62, 0
20, 17519, Note_on_c, 15, 65, 0
20, 17519, Note_on_c, 15, 68, 0
20, 17519, Note_on_c, 15, 53, 0
20, 17580, Note_on_c, 15, 48, 48
20, 17580, Note_on_c, 15, 64, 48
20, 17580, Note_on_c, 15, 67, 48
20, 17580, Note_on_c, 15, 60, 48
20, 17639, Note_on_c, 15, 48, 0
20, 17640, Note_on_c, 15, 52, 48
20, 17699, Note_on_c, 15, 52, 0
20, 17700, Note_on_c, 15, 48, 48
20, 17759, Note_on_c, 15, 64, 0
20, 17759, Note_on_c, 15, 67, 0
20, 17759, Note_on_c, 15, 60, 0
20, 17759, Note_on_c, 15, 48, 0
20, 17760, Note_on_c, 15, 69, 48
20, 17760, Note_on_c, 15, 72, 48
20, 17760, Note_on_c, 15, 64, 48
20, 17819, Note_on_c, 15, 64, 0
20, 17820, Note_on_c, 15, 53, 48
20, 17820, Note_on_c, 15, 67, 48
20, 17879, Note_on_c, 15, 53, 0
20, 17879, Note_on_c, 15, 67, 0
20, 17880, Note_on_c, 15, 41, 48
20, 17880, Note_on_c, 15, 65, 48
20, 17939, Note_on_c, 15, 41, 0
20, 17939, Note_on_c, 15, 65, 0
20, 17940, Note_on_c, 15, 53, 48
20, 17940, Note_on_c, 15, 63, 48
20, 17999, Note_on_c, 15, 69, 0
20, 17999, Note_on_c, 15, 72, 0
20, 17999, Note_on_c, 15, 53, 0
20, 17999, Note_on_c, 15, 63, 0
20, 18060, Note_on_c, 15, 46, 48
20, 18060, Note_on_c, 15, 62, 48
20, 18060, Note_on_c, 15, 65, 48
20, 18060, Note_on_c, 15, 58, 48
20, 18119, Note_on_c, 15, 46, 0
20, 18120, Note_on_c, 15, 50, 48
20, 18179, Note_on_c, 15, 50, 0
20, 18180, Note_on_c, 15, 46, 48
20, 18239, Note_on_c, 15, 62, 0
20, 18239, Note_on_c, 15, 65, 0
20, 18239, Note_on_c, 15, 58, 0
20, 18239, Note_on_c, 15, 46, 0
20, 18300, Note_on_c, 15, 46, 48
20, 18300, Note_on_c, 15, 58, 48
20, 18300, Note_on_c, 15, 62, 48
20, 18300, Note_on_c, 15, 65, 48
20, 18359, Note_on_c, 15, 46, 0
20, 18360, Note_on_c, 15, 43, 48
20, 18419, Note_on_c, 15, 43, 0
20, 18420, Note_on_c, 15, 46, 48
20, 18479, Note_on_c, 15, 58, 0
20, 18479, Note_on_c, 15, 62, 0
20, 18479, Note_on_c, 15, 65, 0
20, 18479, Note_on_c, 15, 46, 0
20, 18540, Note_on_c, 15, 53, 48
20, 18540, Note_on_c, 15, 69, 48
20, 18540, Note_on_c, 15, 60, 48
20, 18540, Note_on_c, 15, 65, 48
20, 18599, Note_on_c, 15, 53, 0
20, 18600, Note_on_c, 15, 41, 48
20, 18659, Note_on_c, 15, 41, 0
20, 18660, Note_on_c, 15, 53, 48
20, 18719, Note_on_c, 15, 69, 0
20, 18719, Note_on_c, 15, 60, 0
20, 18719, Note_on_c, 15, 65, 0
20, 18719, Note_on_c, 15, 53, 0
20, 18720, Note_on_c, 15, 56, 48
20, 18720, Note_on_c, 15, 65, 48
20, 18780, Note_on_c, 15, 50, 48
20, 18780, Note_on_c, 15, 60, 48
20, 18839, Note_on_c, 15, 56, 0
20, 18839, Note_on_c, 15, 50, 0
20, 18839, Note_on_c, 15, 60, 0
20, 18840, Note_on_c, 15, 46, 48
20, 18840, Note_on_c, 15, 58, 48
20, 18899, Note_on_c, 15, 46, 0
20, 18899, Note_on_c, 15, 58, 0
20, 18900, Note_on_c, 15, 50, 48
20, 18900, Note_on_c, 15, 56, 48
20, 18959, Note_on_c, 15, 65, 0
20, 18959, Note_on_c, 15, 50, 0
20, 18959, Note_on_c, 15, 56, 0
20, 18960, Note_on_c, 15, 51, 48
20, 18960, Note_on_c, 15, 67, 48
20, 18960, Note_on_c, 15, 70, 48
20, 19019, Note_on_c, 15, 51, 0
20, 19020, Note_on_c, 15, 60, 48
20, 19079, Note_on_c, 15, 67, 0
20, 19079, Note_on_c, 15, 70, 0
20, 19079, Note_on_c, 15, 60, 0
20, 19080, Note_on_c, 15, 57, 48
20, 19080, Note_on_c, 15, 72, 48
20, 19080, Note_on_c, 15, 75, 48
20, 19080, Note_on_c, 15, 66, 48
20, 19139, Note_on_c, 15, 57, 0
20, 19140, Note_on_c, 15, 55, 48
20, 19199, Note_on_c, 15, 72, 0
20, 19199, Note_on_c, 15, 75, 0
20, 19199, Note_on_c, 15, 66, 0
20, 19199, Note_on_c, 15, 55, 0
20, 19200, Note_on_c, 15, 54, 48
20, 19200, Note_on_c, 15, 69, 48
20, 19200, Note_on_c, 15, 60, 48
20, 19200, Note_on_c, 15, 75, 48
20, 19319, Note_on_c, 15, 60, 0
20, 19319, Note_on_c, 15, 75, 0
20, 19320, Note_on_c, 15, 74, 48
20, 19379, Note_on_c, 15, 54, 0
20, 19379, Note_on_c, 15, 69, 0
20, 19379, Note_on_c, 15, 74, 0
20, 19380, Note_on_c, 15, 54, 48
20, 19380, Note_on_c, 15, 72, 48
20, 19380, Note_on_c, 15, 69, 48
20, 19439, Note_on_c, 15, 54, 0
20, 19439, Note_on_c, 15, 72, 0
20, 19439, Note_on_c, 15, 69, 0
20, 19440, Note_on_c, 15, 55, 48
20, 19440, Note_on_c, 15, 70, 48
20, 19440, Note_on_c, 15, 62, 48
20, 19440, Note_on_c, 15, 67, 48
20, 19499, Note_on_c, 15, 55, 0
20, 19500, Note_on_c, 15, 58, 48
20, 19559, Note_on_c, 15, 70, 0
20, 19559, Note_on_c, 15, 62, 0
20, 19559, Note_on_c, 15, 67, 0
20, 19559, Note_on_c, 15, 58, 0
20, 19560, Note_on_c, 15, 57, 48
20, 19560, Note_on_c, 15, 72, 48
20, 19560, Note_on_c, 15, 63, 48
20, 19560, Note_on_c, 15, 66, 48
20, 19619, Note_on_c, 15, 57, 0
20, 19620, Note_on_c, 15, 55, 48
20, 19679, Note_on_c, 15, 72, 0
20, 19679, Note_on_c, 15, 63, 0
20, 19679, Note_on_c, 15, 66, 0
20, 19679, Note_on_c, 15, 55, 0
20, 19680, Note_on_c, 15, 54, 48
20, 19680, Note_on_c, 15, 69, 48
20, 19680, Note_on_c, 15, 72, 48
20, 19680, Note_on_c, 15, 63, 48
20, 19799, Note_on_c, 15, 72, 0
20, 19799, Note_on_c, 15, 63, 0
20, 19800, Note_on_c, 15, 62, 48
20, 19800, Note_on_c, 15, 74, 48
20, 19859, Note_on_c, 15, 54, 0
20, 19859, Note_on_c, 15, 69, 0
20, 19859, Note_on_c, 15, 62, 0
20, 19859, Note_on_c, 15, 74, 0
20, 19860, Note_on_c, 15, 54, 48
20, 19860, Note_on_c, 15, 69, 48
20, 19860, Note_on_c, 15, 72, 48
20, 19919, Note_on_c, 15, 54, 0
20, 19919, Note_on_c, 15, 69, 0
20, 19919, Note_on_c, 15, 72, 0
20, 19920, Note_on_c, 15, 55, 48
20, 19920, Note_on_c, 15, 70, 48
20, 19920, Note_on_c, 15, 62, 48
20, 19920, Note_on_c, 15, 67, 48
20, 19979, Note_on_c, 15, 55, 0
20, 19980, Note_on_c, 15, 55, 48
20, 20039, Note_on_c, 15, 70, 0
20, 20039, Note_on_c, 15, 62, 0
20, 20039, Note_on_c, 15, 67, 0
20, 20039, Note_on_c, 15, 55, 0
20, 20040, Note_on_c, 15, 53, 48
20, 20040, Note_on_c, 15, 69, 48
20, 20040, Note_on_c, 15, 74, 48
20, 20040, Note_on_c, 15, 57, 48
20, 20099, Note_on_c, 15, 53, 0
20, 20100, Note_on_c, 15, 53, 48
20, 20159, Note_on_c, 15, 69, 0
20, 20159, Note_on_c, 15, 74, 0
20, 20159, Note_on_c, 15, 57, 0
20, 20159, Note_on_c, 15, 53, 0
20, 20160, Note_on_c, 15, 51, 48
20, 20160, Note_on_c, 15, 55, 48
20, 20160, Note_on_c, 15, 70, 48
20, 20160, Note_on_c, 15, 74, 48
20, 20219, Note_on_c, 15, 51, 0
20, 20220, Note_on_c, 15, 51, 48
20, 20279, Note_on_c, 15, 55, 0
20, 20279, Note_on_c, 15, 70, 0
20, 20279, Note_on_c, 15, 74, 0
20, 20279, Note_on_c, 15, 51, 0
20, 20280, Note_on_c, 15, 51, 48
20, 20280, Note_on_c, 15, 55, 48
20, 20280, Note_on_c, 15, 73, 48
20, 20280, Note_on_c, 15, 61, 48
20, 20339, Note_on_c, 15, 51, 0
20, 20340, Note_on_c, 15, 51, 48
20, 20399, Note_on_c, 15, 55, 0
20, 20399, Note_on_c, 15, 73, 0
20, 20399, Note_on_c, 15, 61, 0
20, 20399, Note_on_c, 15, 51, 0
20, 20400, Note_on_c, 15, 50, 48
20, 20400, Note_on_c, 15, 66, 48
20, 20400, Note_on_c, 15, 57, 48
20, 20400, Note_on_c, 15, 74, 48
20, 20459, Note_on_c, 15, 50, 0
20, 20459, Note_on_c, 15, 66, 0
20, 20459, Note_on_c, 15, 57, 0
20, 20459, Note_on_c, 15, 74, 0
20, 20460, Note_on_c, 15, 48, 72
20, 20489, Note_on_c, 15, 48, 0
20, 20520, Note_on_c, 15, 46, 72
20, 20549, Note_on_c, 15, 46, 0
20, 20580, Note_on_c, 15, 45, 72
20, 20609, Note_on_c, 15, 45, 0
20, 20640, Note_on_c, 15, 43, 72
20, 20640, Note_on_c, 15, 58, 72
20, 20640, Note_on_c, 15, 62, 72
20, 20640, Note_on_c, 15, 67, 72
20, 20699, Note_on_c, 15, 43, 0
20, 20700, Note_on_c, 15, 55, 72
20, 20729, Note_on_c, 15, 55, 0
20, 20730, Note_on_c, 15, 54, 72
20, 20759, Note_on_c, 15, 58, 0
20, 20759, Note_on_c, 15, 62, 0
20, 20759, Note_on_c, 15, 67, 0
20, 20759, Note_on_c, 15, 54, 0
20, 20760, Note_on_c, 15, 55, 72
20, 20760, Note_on_c, 15, 70, 72
20, 20760, Note_on_c, 15, 62, 72
20, 20760, Note_on_c, 15, 67, 72
20, 20819, Note_on_c, 15, 55, 0
20, 20820, Note_on_c, 15, 58, 72
20, 20879, Note_on_c, 15, 70, 0
20, 20879, Note_on_c, 15, 62, 0
20, 20879, Note_on_c, 15, 67, 0
20, 20879, Note_on_c, 15, 58, 0
20, 20880, Note_on_c, 15, 45, 72
20, 20880, Note_on_c, 15, 60, 72
20, 20880, Note_on_c, 15, 63, 72
20, 20880, Note_on_c, 15, 67, 72
20, 20939, Note_on_c, 15, 45, 0
20, 20939, Note_on_c, 15, 63, 0
20, 20939, Note_on_c, 15, 67, 0
20, 20940, Note_on_c, 15, 57, 72
20, 20940, Note_on_c, 15, 66, 72
20, 20969, Note_on_c, 15, 57, 0
20, 20970, Note_on_c, 15, 55, 72
20, 20999, Note_on_c, 15, 55, 0
20, 21000, Note_on_c, 15, 57, 72
20, 21059, Note_on_c, 15, 60, 0
20, 21059, Note_on_c, 15, 57, 0
20, 21060, Note_on_c, 15, 60, 72
20, 21119, Note_on_c, 15, 66, 0
20, 21119, Note_on_c, 15, 60, 0
20, 21120, Note_on_c, 15, 38, 72
20, 21120, Note_on_c, 15, 54, 72
20, 21120, Note_on_c, 15, 57, 72
20, 21120, Note_on_c, 15, 60, 72
20, 21120, Note_on_c, 15, 65, 72
20, 21179, Note_on_c, 15, 38, 0
20, 21180, Note_on_c, 15, 50, 72
20, 21209, Note_on_c, 15, 50, 0
20, 21210, Note_on_c, 15, 49, 72
20, 21239, Note_on_c, 15, 54, 0
20, 21239, Note_on_c, 15, 57, 0
20, 21239, Note_on_c, 15, 60, 0
20, 21239, Note_on_c, 15, 65, 0
20, 21239, Note_on_c, 15, 49, 0
20, 21240, Note_on_c, 15, 50, 72
20, 21240, Note_on_c, 15, 65, 72
20, 21240, Note_on_c, 15, 69, 72
20, 21299, Note_on_c, 15, 50, 0
20, 21299, Note_on_c, 15, 65, 0
20, 21299, Note_on_c, 15, 69, 0
20, 21300, Note_on_c, 15, 54, 72
20, 21300, Note_on_c, 15, 69, 72
20, 21300, Note_on_c, 15, 60, 72
20, 21300, Note_on_c, 15, 62, 72
20, 21359, Note_on_c, 15, 54, 0
20, 21359, Note_on_c, 15, 69, 0
20, 21359, Note_on_c, 15, 60, 0
20, 21359, Note_on_c, 15, 62, 0
20, 21360, Note_on_c, 15, 43, 72
20, 21360, Note_on_c, 15, 62, 72
20, 21360, Note_on_c, 15, 60, 72
20, 21419, Note_on_c, 15, 43, 0
20, 21420, Note_on_c, 15, 55, 72
20, 21449, Note_on_c, 15, 55, 0
20, 21450, Note_on_c, 15, 54, 72
20, 21479, Note_on_c, 15, 60, 0
20, 21479, Note_on_c, 15, 54, 0
20, 21480, Note_on_c, 15, 55, 72
20, 21480, Note_on_c, 15, 58, 72
20, 21480, Note_on_c, 15, 67, 72
20, 21539, Note_on_c, 15, 55, 0
20, 21599, Note_on_c, 15, 62, 0
20, 21599, Note_on_c, 15, 58, 0
20, 21599, Note_on_c, 15, 67, 0
20, 21600, Note_on_c, 15, 40, 72
20, 21600, Note_on_c, 15, 55, 72
20, 21600, Note_on_c, 15, 58, 72
20, 21600, Note_on_c, 15, 62, 72
20, 21659, Note_on_c, 15, 40, 0
20, 21660, Note_on_c, 15, 52, 72
20, 21689, Note_on_c, 15, 52, 0
20, 21690, Note_on_c, 15, 50, 72
20, 21719, Note_on_c, 15, 55, 0
20, 21719, Note_on_c, 15, 58, 0
20, 21719, Note_on_c, 15, 62, 0
20, 21719, Note_on_c, 15, 50, 0
20, 21720, Note_on_c, 15, 51, 72
20, 21720, Note_on_c, 15, 67, 72
20, 21720, Note_on_c, 15, 61, 72
20, 21779, Note_on_c, 15, 51, 0
20, 21780, Note_on_c, 15, 55, 72
20, 21839, Note_on_c, 15, 67, 0
20, 21839, Note_on_c, 15, 61, 0
20, 21839, Note_on_c, 15, 55, 0
20, 21840, Note_on_c, 15, 45, 72
20, 21840, Note_on_c, 15, 61, 72
20, 21840, Note_on_c, 15, 63, 72
20, 21840, Note_on_c, 15, 67, 72
20, 21899, Note_on_c, 15, 45, 0
20, 21900, Note_on_c, 15, 57, 72
20, 21929, Note_on_c, 15, 57, 0
20, 21930, Note_on_c, 15, 56, 72
20, 21959, Note_on_c, 15, 61, 0
20, 21959, Note_on_c, 15, 63, 0
20, 21959, Note_on_c, 15, 67, 0
20, 21959, Note_on_c, 15, 56, 0
20, 21960, Note_on_c, 15, 57, 72
20, 21960, Note_on_c, 15, 60, 72
20, 21960, Note_on_c, 15, 63, 72
20, 21960, Note_on_c, 15, 69, 72
20, 22019, Note_on_c, 15, 57, 0
20, 22019, Note_on_c, 15, 60, 0
20, 22019, Note_on_c, 15, 63, 0
20, 22019, Note_on_c, 15, 69, 0
20, 22020, Note_on_c, 15, 61, 72
20, 22020, Note_on_c, 15, 63, 72
20, 22020, Note_on_c, 15, 67, 72
20, 22020, Note_on_c, 15, 69, 72
20, 22079, Note_on_c, 15, 61, 0
20, 22079, Note_on_c, 15, 63, 0
20, 22079, Note_on_c, 15, 67, 0
20, 22079, Note_on_c, 15, 69, 0
20, 22080, Note_on_c, 15, 50, 72
20, 22080, Note_on_c, 15, 67, 72
20, 22080, Note_on_c, 15, 62, 72
20, 22080, Note_on_c, 15, 57, 72
20, 22139, Note_on_c, 15, 50, 0
20, 22139, Note_on_c, 15, 67, 0
20, 22139, Note_on_c, 15, 62, 0
20, 22139, Note_on_c, 15, 57, 0
20, 22140, Note_on_c, 15, 62, 72
20, 22140, Note_on_c, 15, 65, 72
20, 22140, Note_on_c, 15, 69, 72
20, 22140, Note_on_c, 15, 72, 72
20, 22169, Note_on_c, 15, 62, 0
20, 22170, Note_on_c, 15, 60, 72
20, 22199, Note_on_c, 15, 65, 0
20, 22199, Note_on_c, 15, 60, 0
20, 22200, Note_on_c, 15, 62, 72
20, 22200, Note_on_c, 15, 66, 72
20, 22259, Note_on_c, 15, 62, 0
20, 22319, Note_on_c, 15, 69, 0
20, 22319, Note_on_c, 15, 72, 0
20, 22319, Note_on_c, 15, 66, 0
20, 22320, Note_on_c, 15, 43, 72
20, 22320, Note_on_c, 15, 60, 72
20, 22320, Note_on_c, 15, 62, 72
20, 22320, Note_on_c, 15, 67, 72
20, 22379, Note_on_c, 15, 43, 0
20, 22379, Note_on_c, 15, 60, 0
20, 22379, Note_on_c, 15, 62, 0
20, 22379, Note_on_c, 15, 67, 0
20, 22380, Note_on_c, 15, 55, 72
20, 22380, Note_on_c, 15, 59, 72
20, 22380, Note_on_c, 15, 62, 72
20, 22380, Note_on_c, 15, 65, 72
20, 22409, Note_on_c, 15, 55, 0
20, 22410, Note_on_c, 15, 54, 72
20, 22439, Note_on_c, 15, 54, 0
20, 22440, Note_on_c, 15, 55, 72
20, 22499, Note_on_c, 15, 55, 0
20, 22559, Note_on_c, 15, 59, 0
20, 22559, Note_on_c, 15, 62, 0
20, 22559, Note_on_c, 15, 65, 0
20, 22560, Note_on_c, 15, 48, 72
20, 22560, Note_on_c, 15, 65, 72
20, 22560, Note_on_c, 15, 67, 72
20, 22560, Note_on_c, 15, 60, 72
20, 22619, Note_on_c, 15, 48, 0
20, 22619, Note_on_c, 15, 65, 0
20, 22619, Note_on_c, 15, 67, 0
20, 22619, Note_on_c, 15, 60, 0
20, 22620, Note_on_c, 15, 63, 72
20, 22620, Note_on_c, 15, 60, 72
20, 22620, Note_on_c, 15, 67, 72
20, 22649, Note_on_c, 15, 60, 0
20, 22650, Note_on_c, 15, 59, 72
20, 22679, Note_on_c, 15, 59, 0
20, 22680, Note_on_c, 15, 60, 72
20, 22739, Note_on_c, 15, 60, 0
20, 22799, Note_on_c, 15, 63, 0
20, 22799, Note_on_c, 15, 67, 0
20, 22800, Note_on_c, 15, 45, 72
20, 22800, Note_on_c, 15, 60, 72
20, 22800, Note_on_c, 15, 63, 72
20, 22800, Note_on_c, 15, 67, 72
20, 22859, Note_on_c, 15, 45, 0
20, 22859, Note_on_c, 15, 67, 0
20, 22860, Note_on_c, 15, 57, 72
20, 22860, Note_on_c, 15, 66, 72
20, 22889, Note_on_c, 15, 57, 0
20, 22890, Note_on_c, 15, 55, 72
20, 22919, Note_on_c, 15, 60, 0
20, 22919, Note_on_c, 15, 63, 0
20, 22919, Note_on_c, 15, 66, 0
20, 22919, Note_on_c, 15, 55, 0
20, 22920, Note_on_c, 15, 57, 72
20, 22920, Note_on_c, 15, 60, 72
20, 22920, Note_on_c, 15, 63, 72
20, 22920, Note_on_c, 15, 69, 72
20, 22979, Note_on_c, 15, 57, 0
20, 22979, Note_on_c, 15, 60, 0
20, 22980, Note_on_c, 15, 60, 72
20, 23039, Note_on_c, 15, 63, 0
20, 23039, Note_on_c, 15, 69, 0
20, 23039, Note_on_c, 15, 60, 0
20, 23040, Note_on_c, 15, 38, 72
20, 23040, Note_on_c, 15, 54, 72
20, 23040, Note_on_c, 15, 57, 72
20, 23040, Note_on_c, 15, 72, 72
20, 23099, Note_on_c, 15, 38, 0
20, 23100, Note_on_c, 15, 50, 72
20, 23129, Note_on_c, 15, 50, 0
20, 23130, Note_on_c, 15, 49, 72
20, 23159, Note_on_c, 15, 49, 0
20, 23160, Note_on_c, 15, 50, 72
20, 23219, Note_on_c, 15, 54, 0
20, 23219, Note_on_c, 15, 57, 0
20, 23219, Note_on_c, 15, 72, 0
20, 23219, Note_on_c, 15, 50, 0
20, 23220, Note_on_c, 15, 54, 72
20, 23220, Note_on_c, 15, 57, 72
20, 23220, Note_on_c, 15, 72, 72
20, 23220, Note_on_c, 15, 62, 72
20, 23279, Note_on_c, 15, 54, 0
20, 23279, Note_on_c, 15, 57, 0
20, 23279, Note_on_c, 15, 72, 0
20, 23279, Note_on_c, 15, 62, 0
20, 23280, Note_on_c, 15, 43, 72
20, 23280, Note_on_c, 15, 58, 72
20, 23280, Note_on_c, 15, 62, 72
20, 23280, Note_on_c, 15, 74, 72
20, 23339, Note_on_c, 15, 43, 0
20, 23339, Note_on_c, 15, 58, 0
20, 23339, Note_on_c, 15, 62, 0
20, 23339, Note_on_c, 15, 74, 0
20, 23340, Note_on_c, 15, 55, 72
20, 23340, Note_on_c, 15, 74, 72
20, 23340, Note_on_c, 15, 70, 72
20, 23369, Note_on_c, 15, 55, 0
20, 23370, Note_on_c, 15, 54, 72
20, 23399, Note_on_c, 15, 74, 0
20, 23399, Note_on_c, 15, 70, 0
20, 23399, Note_on_c, 15, 54, 0
20, 23400, Note_on_c, 15, 55, 72
20, 23400, Note_on_c, 15, 74, 72
20, 23400, Note_on_c, 15, 70, 72
20, 23400, Note_on_c, 15, 67, 72
20, 23459, Note_on_c, 15, 55, 0
20, 23460, Note_on_c, 15, 58, 72
20, 23519, Note_on_c, 15, 74, 0
20, 23519, Note_on_c, 15, 70, 0
20, 23519, Note_on_c, 15, 67, 0
20, 23519, Note_on_c, 15, 58, 0
20, 23520, Note_on_c, 15, 52, 72
20, 23520, Note_on_c, 15, 67, 72
20, 23520, Note_on_c, 15, 70, 72
20, 23520, Note_on_c, 15, 74, 72
20, 23579, Note_on_c, 15, 52, 0
20, 23579, Note_on_c, 15, 74, 0
20, 23580, Note_on_c, 15, 64, 72
20, 23580, Note_on_c, 15, 73, 72
20, 23609, Note_on_c, 15, 64, 0
20, 23610, Note_on_c, 15, 62, 72
20, 23639, Note_on_c, 15, 62, 0
20, 23640, Note_on_c, 15, 64, 72
20, 23699, Note_on_c, 15, 64, 0
20, 23700, Note_on_c, 15, 67, 72
20, 23759, Note_on_c, 15, 67, 0
20, 23759, Note_on_c, 15, 70, 0
20, 23759, Note_on_c, 15, 73, 0
20, 23759, Note_on_c, 15, 67, 0
20, 23760, Note_on_c, 15, 45, 72
20, 23760, Note_on_c, 15, 61, 72
20, 23760, Note_on_c, 15, 64, 72
20, 23760, Note_on_c, 15, 79, 72
20, 23760, Note_on_c, 15, 73, 72
20, 23819, Note_on_c, 15, 45, 0
20, 23820, Note_on_c, 15, 57, 72
20, 23849, Note_on_c, 15, 57, 0
20, 23850, Note_on_c, 15, 56, 72
20, 23879, Note_on_c, 15, 61, 0
20, 23879, Note_on_c, 15, 64, 0
20, 23879, Note_on_c, 15, 79, 0
20, 23879, Note_on_c, 15, 73, 0
20, 23879, Note_on_c, 15, 56, 0
20, 23880, Note_on_c, 15, 57, 72
20, 23880, Note_on_c, 15, 73, 72
20, 23880, Note_on_c, 15, 63, 72
20, 23939, Note_on_c, 15, 57, 0
20, 23939, Note_on_c, 15, 73, 0
20, 23939, Note_on_c, 15, 63, 0
20, 23940, Note_on_c, 15, 61, 72
20, 23940, Note_on_c, 15, 63, 72
20, 23940, Note_on_c, 15, 79, 72
20, 23940, Note_on_c, 15, 69, 72
20, 23999, Note_on_c, 15, 61, 0
20, 23999, Note_on_c, 15, 63, 0
20, 23999, Note_on_c, 15, 79, 0
20, 23999, Note_on_c, 15, 69, 0
20, 24000, Note_on_c, 15, 50, 72
20, 24000, Note_on_c, 15, 79, 72
20, 24000, Note_on_c, 15, 69, 72
20, 24059, Note_on_c, 15, 50, 0
20, 24060, Note_on_c, 15, 62, 72
20, 24089, Note_on_c, 15, 62, 0
20, 24090, Note_on_c, 15, 61, 72
20, 24119, Note_on_c, 15, 79, 0
20, 24119, Note_on_c, 15, 69, 0
20, 24119, Note_on_c, 15, 61, 0
20, 24120, Note_on_c, 15, 62, 72
20, 24120, Note_on_c, 15, 78, 72
20, 24120, Note_on_c, 15, 69, 72
20, 24120, Note_on_c, 15, 72, 72
20, 24179, Note_on_c, 15, 62, 0
20, 24180, Note_on_c, 15, 66, 72
20, 24239, Note_on_c, 15, 78, 0
20, 24239, Note_on_c, 15, 69, 0
20, 24239, Note_on_c, 15, 72, 0
20, 24239, Note_on_c, 15, 66, 0
20, 24240, Note_on_c, 15, 43, 72
20, 24240, Note_on_c, 15, 72, 72
20, 24240, Note_on_c, 15, 74, 72
20, 24240, Note_on_c, 15, 67, 72
20, 24299, Note_on_c, 15, 43, 0
20, 24299, Note_on_c, 15, 72, 0
20, 24299, Note_on_c, 15, 74, 0
20, 24299, Note_on_c, 15, 67, 0
20, 24300, Note_on_c, 15, 55, 72
20, 24300, Note_on_c, 15, 71, 72
20, 24300, Note_on_c, 15, 74, 72
20, 24300, Note_on_c, 15, 77, 72
20, 24329, Note_on_c, 15, 55, 0
20, 24330, Note_on_c, 15, 54, 72
20, 24359, Note_on_c, 15, 71, 0
20, 24359, Note_on_c, 15, 74, 0
20, 24359, Note_on_c, 15, 77, 0
20, 24359, Note_on_c, 15, 54, 0
20, 24360, Note_on_c, 15, 55, 72
20, 24360, Note_on_c, 15, 71, 72
20, 24360, Note_on_c, 15, 62, 72
20, 24360, Note_on_c, 15, 67, 72
20, 24419, Note_on_c, 15, 55, 0
20, 24419, Note_on_c, 15, 62, 0
20, 24419, Note_on_c, 15, 67, 0
20, 24420, Note_on_c, 15, 59, 72
20, 24420, Note_on_c, 15, 62, 72
20, 24420, Note_on_c, 15, 77, 72
20, 24420, Note_on_c, 15, 67, 72
20, 24479, Note_on_c, 15, 71, 0
20, 24479, Note_on_c, 15, 59, 0
20, 24479, Note_on_c, 15, 62, 0
20, 24479, Note_on_c, 15, 77, 0
20, 24479, Note_on_c, 15, 67, 0
20, 24480, Note_on_c, 15, 48, 72
20, 24480, Note_on_c, 15, 77, 72
20, 24480, Note_on_c, 15, 67, 72
20, 24480, Note_on_c, 15, 60, 72
20, 24539, Note_on_c, 15, 48, 0
20, 24539, Note_on_c, 15, 77, 0
20, 24539, Note_on_c, 15, 67, 0
20, 24539, Note_on_c, 15, 60, 0
20, 24540, Note_on_c, 15, 60, 72
20, 24540, Note_on_c, 15, 76, 72
20, 24540, Note_on_c, 15, 67, 72
20, 24540, Note_on_c, 15, 70, 72
20, 24569, Note_on_c, 15, 60, 0
20, 24570, Note_on_c, 15, 59, 72
20, 24599, Note_on_c, 15, 76, 0
20, 24599, Note_on_c, 15, 67, 0
20, 24599, Note_on_c, 15, 70, 0
20, 24599, Note_on_c, 15, 59, 0
20, 24600, Note_on_c, 15, 60, 72
20, 24600, Note_on_c, 15, 76, 72
20, 24600, Note_on_c, 15, 67, 72
20, 24659, Note_on_c, 15, 60, 0
20, 24659, Note_on_c, 15, 67, 0
20, 24660, Note_on_c, 15, 64, 72
20, 24660, Note_on_c, 15, 70, 72
20, 24719, Note_on_c, 15, 76, 0
20, 24719, Note_on_c, 15, 64, 0
20, 24719, Note_on_c, 15, 70, 0
20, 24720, Note_on_c, 15, 41, 72
20, 24720, Note_on_c, 15, 70, 72
20, 24720, Note_on_c, 15, 60, 72
20, 24720, Note_on_c, 15, 65, 72
20, 24779, Note_on_c, 15, 41, 0
20, 24779, Note_on_c, 15, 70, 0
20, 24779, Note_on_c, 15, 60, 0
20, 24779, Note_on_c, 15, 65, 0
20, 24780, Note_on_c, 15, 53, 72
20, 24780, Note_on_c, 15, 57, 72
20, 24780, Note_on_c, 15, 60, 72
20, 24780, Note_on_c, 15, 75, 72
20, 24809, Note_on_c, 15, 53, 0
20, 24810, Note_on_c, 15, 52, 72
20, 24839, Note_on_c, 15, 57, 0
20, 24839, Note_on_c, 15, 60, 0
20, 24839, Note_on_c, 15, 75, 0
20, 24839, Note_on_c, 15, 52, 0
20, 24840, Note_on_c, 15, 53, 72
20, 24840, Note_on_c, 15, 69, 72
20, 24840, Note_on_c, 15, 72, 72
20, 24840, Note_on_c, 15, 65, 72
20, 24899, Note_on_c, 15, 53, 0
20, 24899, Note_on_c, 15, 69, 0
20, 24899, Note_on_c, 15, 72, 0
20, 24899, Note_on_c, 15, 65, 0
20, 24900, Note_on_c, 15, 57, 72
20, 24900, Note_on_c, 15, 72, 72
20, 24900, Note_on_c, 15, 75, 72
20, 24900, Note_on_c, 15, 65, 72
20, 24959, Note_on_c, 15, 57, 0
20, 24959, Note_on_c, 15, 72, 0
20, 24959, Note_on_c, 15, 75, 0
20, 24959, Note_on_c, 15, 65, 0
20, 24960, Note_on_c, 15, 46, 72
20, 24960, Note_on_c, 15, 75, 72
20, 24960, Note_on_c, 15, 65, 72
20, 24960, Note_on_c, 15, 58, 72
20, 25019, Note_on_c, 15, 46, 0
20, 25019, Note_on_c, 15, 75, 0
20, 25019, Note_on_c, 15, 65, 0
20, 25019, Note_on_c, 15, 58, 0
20, 25020, Note_on_c, 15, 74, 72
20, 25020, Note_on_c, 15, 58, 72
20, 25020, Note_on_c, 15, 65, 72
20, 25049, Note_on_c, 15, 58, 0
20, 25050, Note_on_c, 15, 57, 72
20, 25079, Note_on_c, 15, 57, 0
20, 25080, Note_on_c, 15, 58, 72
20, 25139, Note_on_c, 15, 58, 0
20, 25140, Note_on_c, 15, 62, 72
20, 25199, Note_on_c, 15, 74, 0
20, 25199, Note_on_c, 15, 65, 0
20, 25199, Note_on_c, 15, 62, 0
20, 25200, Note_on_c, 15, 48, 72
20, 25200, Note_on_c, 15, 63, 72
20, 25200, Note_on_c, 15, 67, 72
20, 25200, Note_on_c, 15, 58, 72
20, 25259, Note_on_c, 15, 48, 0
20, 25259, Note_on_c, 15, 63, 0
20, 25259, Note_on_c, 15, 67, 0
20, 25259, Note_on_c, 15, 58, 0
20, 25260, Note_on_c, 15, 72, 72
20, 25260, Note_on_c, 15, 60, 72
20, 25260, Note_on_c, 15, 63, 72
20, 25260, Note_on_c, 15, 69, 72
20, 25289, Note_on_c, 15, 60, 0
20, 25290, Note_on_c, 15, 58, 72
20, 25319, Note_on_c, 15, 58, 0
20, 25320, Note_on_c, 15, 60, 72
20, 25379, Note_on_c, 15, 60, 0
20, 25439, Note_on_c, 15, 72, 0
20, 25439, Note_on_c, 15, 63, 0
20, 25439, Note_on_c, 15, 69, 0
20, 25440, Note_on_c, 15, 41, 72
20, 25440, Note_on_c, 15, 57, 72
20, 25440, Note_on_c, 15, 60, 72
20, 25440, Note_on_c, 15, 63, 72
20, 25499, Note_on_c, 15, 41, 0
20, 25500, Note_on_c, 15, 53, 72
20, 25529, Note_on_c, 15, 53, 0
20, 25530, Note_on_c, 15, 52, 72
20, 25559, Note_on_c, 15, 52, 0
20, 25560, Note_on_c, 15, 53, 72
20, 25619, Note_on_c, 15, 53, 0
20, 25679, Note_on_c, 15, 57, 0
20, 25679, Note_on_c, 15, 60, 0
20, 25679, Note_on_c, 15, 63, 0
20, 25680, Note_on_c, 15, 38, 72
20, 25680, Note_on_c, 15, 53, 72
20, 25680, Note_on_c, 15, 57, 72
20, 25680, Note_on_c, 15, 72, 72
20, 25680, Note_on_c, 15, 63, 72
20, 25739, Note_on_c, 15, 38, 0
20, 25739, Note_on_c, 15, 53, 0
20, 25739, Note_on_c, 15, 57, 0
20, 25739, Note_on_c, 15, 63, 0
20, 25740, Note_on_c, 15, 50, 72
20, 25740, Note_on_c, 15, 56, 72
20, 25740, Note_on_c, 15, 62, 72
20, 25769, Note_on_c, 15, 50, 0
20, 25770, Note_on_c, 15, 48, 72
20, 25799, Note_on_c, 15, 48, 0
20, 25800, Note_on_c, 15, 50, 72
20, 25859, Note_on_c, 15, 50, 0
20, 25919, Note_on_c, 15, 72, 0
20, 25919, Note_on_c, 15, 56, 0
20, 25919, Note_on_c, 15, 62, 0
20, 25920, Note_on_c, 15, 43, 72
20, 25920, Note_on_c, 15, 62, 72
20, 25920, Note_on_c, 15, 72, 72
20, 25920, Note_on_c, 15, 67, 72
20, 25979, Note_on_c, 15, 43, 0
20, 25979, Note_on_c, 15, 72, 0
20, 25979, Note_on_c, 15, 67, 0
20, 25980, Note_on_c, 15, 55, 72
20, 25980, Note_on_c, 15, 71, 72
20, 26009, Note_on_c, 15, 55, 0
20, 26010, Note_on_c, 15, 54, 72
20, 26039, Note_on_c, 15, 62, 0
20, 26039, Note_on_c, 15, 71, 0
20, 26039, Note_on_c, 15, 54, 0
20, 26040, Note_on_c, 15, 55, 72
20, 26040, Note_on_c, 15, 71, 72
20, 26040, Note_on_c, 15, 62, 72
20, 26099, Note_on_c, 15, 55, 0
20, 26100, Note_on_c, 15, 59, 72
20, 26100, Note_on_c, 15, 77, 72
20, 26100, Note_on_c, 15, 67, 72
20, 26159, Note_on_c, 15, 71, 0
20, 26159, Note_on_c, 15, 62, 0
20, 26159, Note_on_c, 15, 59, 0
20, 26159, Note_on_c, 15, 77, 0
20, 26159, Note_on_c, 15, 67, 0
20, 26160, Note_on_c, 15, 48, 72
20, 26160, Note_on_c, 15, 77, 72
20, 26160, Note_on_c, 15, 67, 72
20, 26219, Note_on_c, 15, 48, 0
20, 26220, Note_on_c, 15, 60, 72
20, 26249, Note_on_c, 15, 60, 0
20, 26250, Note_on_c, 15, 59, 72
20, 26279, Note_on_c, 15, 77, 0
20, 26279, Note_on_c, 15, 59, 0
20, 26280, Note_on_c, 15, 60, 72
20, 26280, Note_on_c, 15, 75, 72
20, 26340, Note_on_c, 15, 63, 72
20, 26399, Note_on_c, 15, 67, 0
20, 26399, Note_on_c, 15, 60, 0
20, 26399, Note_on_c, 15, 75, 0
20, 26399, Note_on_c, 15, 63, 0
20, 26400, Note_on_c, 15, 50, 72
20, 26400, Note_on_c, 15, 65, 72
20, 26400, Note_on_c, 15, 69, 72
20, 26400, Note_on_c, 15, 60, 72
20, 26459, Note_on_c, 15, 50, 0
20, 26459, Note_on_c, 15, 65, 0
20, 26459, Note_on_c, 15, 69, 0
20, 26459, Note_on_c, 15, 60, 0
20, 26460, Note_on_c, 15, 62, 72
20, 26460, Note_on_c, 15, 65, 72
20, 26460, Note_on_c, 15, 68, 72
20, 26460, Note_on_c, 15, 71, 72
20, 26489, Note_on_c, 15, 62, 0
20, 26490, Note_on_c, 15, 60, 72
20, 26519, Note_on_c, 15, 60, 0
20, 26520, Note_on_c, 15, 62, 72
20, 26579, Note_on_c, 15, 62, 0
20, 26639, Note_on_c, 15, 65, 0
20, 26639, Note_on_c, 15, 68, 0
20, 26639, Note_on_c, 15, 71, 0
20, 26640, Note_on_c, 15, 43, 72
20, 26640, Note_on_c, 15, 59, 72
20, 26640, Note_on_c, 15, 62, 72
20, 26699, Note_on_c, 15, 43, 0
20, 26699, Note_on_c, 15, 62, 0
20, 26700, Note_on_c, 15, 55, 72
20, 26700, Note_on_c, 15, 62, 72
20, 26700, Note_on_c, 15, 65, 72
20, 26729, Note_on_c, 15, 55, 0
20, 26730, Note_on_c, 15, 54, 72
20, 26759, Note_on_c, 15, 54, 0
20, 26760, Note_on_c, 15, 55, 72
20, 26760, Note_on_c, 15, 67, 72
20, 26819, Note_on_c, 15, 59, 0
20, 26819, Note_on_c, 15, 62, 0
20, 26819, Note_on_c, 15, 65, 0
20, 26819, Note_on_c, 15, 55, 0
20, 26820, Note_on_c, 15, 59, 72
20, 26820, Note_on_c, 15, 65, 72
20, 26820, Note_on_c, 15, 62, 72
20, 26879, Note_on_c, 15, 67, 0
20, 26879, Note_on_c, 15, 59, 0
20, 26879, Note_on_c, 15, 65, 0
20, 26879, Note_on_c, 15, 62, 0
20, 26880, Note_on_c, 15, 40, 72
20, 26880, Note_on_c, 15, 55, 72
20, 26880, Note_on_c, 15, 58, 72
20, 26880, Note_on_c, 15, 74, 72
20, 26880, Note_on_c, 15, 65, 72
20, 26939, Note_on_c, 15, 40, 0
20, 26940, Note_on_c, 15, 52, 72
20, 26969, Note_on_c, 15, 52, 0
20, 26970, Note_on_c, 15, 50, 72
20, 26999, Note_on_c, 15, 55, 0
20, 26999, Note_on_c, 15, 74, 0
20, 26999, Note_on_c, 15, 65, 0
20, 26999, Note_on_c, 15, 50, 0
20, 27000, Note_on_c, 15, 52, 72
20, 27000, Note_on_c, 15, 64, 72
20, 27000, Note_on_c, 15, 74, 72
20, 27059, Note_on_c, 15, 52, 0
20, 27060, Note_on_c, 15, 55, 72
20, 27119, Note_on_c, 15, 58, 0
20, 27119, Note_on_c, 15, 64, 0
20, 27119, Note_on_c, 15, 74, 0
20, 27119, Note_on_c, 15, 55, 0
20, 27120, Note_on_c, 15, 45, 72
20, 27120, Note_on_c, 15, 74, 72
20, 27120, Note_on_c, 15, 76, 72
20, 27120, Note_on_c, 15, 67, 72
20, 27179, Note_on_c, 15, 45, 0
20, 27180, Note_on_c, 15, 57, 72
20, 27209, Note_on_c, 15, 57, 0
20, 27210, Note_on_c, 15, 56, 72
20, 27239, Note_on_c, 15, 74, 0
20, 27239, Note_on_c, 15, 67, 0
20, 27239, Note_on_c, 15, 56, 0
20, 27240, Note_on_c, 15, 57, 72
20, 27240, Note_on_c, 15, 72, 72
20, 27299, Note_on_c, 15, 57, 0
20, 27300, Note_on_c, 15, 67, 72
20, 27300, Note_on_c, 15, 61, 72
20, 27300, Note_on_c, 15, 69, 72
20, 27359, Note_on_c, 15, 76, 0
20, 27359, Note_on_c, 15, 72, 0
20, 27359, Note_on_c, 15, 67, 0
20, 27359, Note_on_c, 15, 61, 0
20, 27359, Note_on_c, 15, 69, 0
20, 27360, Note_on_c, 15, 50, 72
20, 27360, Note_on_c, 15, 67, 72
20, 27360, Note_on_c, 15, 69, 72
20, 27360, Note_on_c, 15, 74, 72
20, 27419, Note_on_c, 15, 50, 0
20, 27420, Note_on_c, 15, 62, 72
20, 27449, Note_on_c, 15, 62, 0
20, 27450, Note_on_c, 15, 61, 72
20, 27479, Note_on_c, 15, 67, 0
20, 27479, Note_on_c, 15, 61, 0
20, 27480, Note_on_c, 15, 62, 72
20, 27480, Note_on_c, 15, 66, 72
20, 27539, Note_on_c, 15, 69, 0
20, 27539, Note_on_c, 15, 74, 0
20, 27539, Note_on_c, 15, 62, 0
20, 27539, Note_on_c, 15, 66, 0
20, 27540, Note_on_c, 15, 66, 72
20, 27540, Note_on_c, 15, 69, 72
20, 27540, Note_on_c, 15, 74, 72
20, 27599, Note_on_c, 15, 66, 0
20, 27599, Note_on_c, 15, 69, 0
20, 27599, Note_on_c, 15, 74, 0
20, 27600, Note_on_c, 15, 51, 72
20, 27600, Note_on_c, 15, 67, 72
20, 27600, Note_on_c, 15, 70, 72
20, 27600, Note_on_c, 15, 74, 72
20, 27659, Note_on_c, 15, 51, 0
20, 27660, Note_on_c, 15, 63, 72
20, 27689, Note_on_c, 15, 63, 0
20, 27690, Note_on_c, 15, 62, 72
20, 27719, Note_on_c, 15, 67, 0
20, 27719, Note_on_c, 15, 70, 0
20, 27719, Note_on_c, 15, 74, 0
20, 27719, Note_on_c, 15, 62, 0
20, 27720, Note_on_c, 15, 63, 72
20, 27720, Note_on_c, 15, 67, 72
20, 27720, Note_on_c, 15, 72, 72
20, 27779, Note_on_c, 15, 63, 0
20, 27780, Note_on_c, 15, 51, 72
20, 27839, Note_on_c, 15, 67, 0
20, 27839, Note_on_c, 15, 72, 0
20, 27839, Note_on_c, 15, 51, 0
20, 27840, Note_on_c, 15, 50, 72
20, 27840, Note_on_c, 15, 77, 72
20, 27840, Note_on_c, 15, 69, 72
20, 27840, Note_on_c, 15, 60, 72
20, 27899, Note_on_c, 15, 50, 0
20, 27900, Note_on_c, 15, 62, 72
20, 27929, Note_on_c, 15, 62, 0
20, 27930, Note_on_c, 15, 60, 72
20, 27959, Note_on_c, 15, 77, 0
20, 27959, Note_on_c, 15, 69, 0
20, 27959, Note_on_c, 15, 60, 0
20, 27959, Note_on_c, 15, 60, 0
20, 27960, Note_on_c, 15, 62, 72
20, 27960, Note_on_c, 15, 65, 72
20, 27960, Note_on_c, 15, 70, 72
20, 28019, Note_on_c, 15, 62, 0
20, 28079, Note_on_c, 15, 65, 0
20, 28079, Note_on_c, 15, 70, 0
20, 28080, Note_on_c, 15, 48, 72
20, 28080, Note_on_c, 15, 63, 72
20, 28080, Note_on_c, 15, 67, 72
20, 28080, Note_on_c, 15, 70, 72
20, 28139, Note_on_c, 15, 48, 0
20, 28140, Note_on_c, 15, 60, 72
20, 28169, Note_on_c, 15, 60, 0
20, 28170, Note_on_c, 15, 58, 72
20, 28199, Note_on_c, 15, 63, 0
20, 28199, Note_on_c, 15, 67, 0
20, 28199, Note_on_c, 15, 70, 0
20, 28199, Note_on_c, 15, 58, 0
20, 28200, Note_on_c, 15, 60, 72
20, 28200, Note_on_c, 15, 63, 72
20, 28200, Note_on_c, 15, 69, 72
20, 28200, Note_on_c, 15, 75, 72
20, 28259, Note_on_c, 15, 60, 0
20, 28260, Note_on_c, 15, 48, 72
20, 28319, Note_on_c, 15, 63, 0
20, 28319, Note_on_c, 15, 69, 0
20, 28319, Note_on_c, 15, 75, 0
20, 28319, Note_on_c, 15, 48, 0
20, 28320, Note_on_c, 15, 46, 72
20, 28320, Note_on_c, 15, 74, 72
20, 28320, Note_on_c, 15, 66, 72
20, 28379, Note_on_c, 15, 46, 0
20, 28380, Note_on_c, 15, 58, 72
20, 28409, Note_on_c, 15, 58, 0
20, 28410, Note_on_c, 15, 57, 72
20, 28439, Note_on_c, 15, 74, 0
20, 28439, Note_on_c, 15, 66, 0
20, 28439, Note_on_c, 15, 57, 0
20, 28440, Note_on_c, 15, 58, 72
20, 28440, Note_on_c, 15, 62, 72
20, 28440, Note_on_c, 15, 67, 72
20, 28499, Note_on_c, 15, 58, 0
20, 28499, Note_on_c, 15, 62, 0
20, 28499, Note_on_c, 15, 67, 0
20, 28500, Note_on_c, 15, 55, 72
20, 28500, Note_on_c, 15, 58, 72
20, 28500, Note_on_c, 15, 62, 72
20, 28500, Note_on_c, 15, 74, 72
20, 28559, Note_on_c, 15, 55, 0
20, 28559, Note_on_c, 15, 58, 0
20, 28559, Note_on_c, 15, 62, 0
20, 28559, Note_on_c, 15, 74, 0
20, 28560, Note_on_c, 15, 51, 72
20, 28560, Note_on_c, 15, 55, 72
20, 28560, Note_on_c, 15, 70, 72
20, 28560, Note_on_c, 15, 74, 72
20, 28619, Note_on_c, 15, 51, 0
20, 28620, Note_on_c, 15, 63, 72
20, 28649, Note_on_c, 15, 63, 0
20, 28650, Note_on_c, 15, 62, 72
20, 28679, Note_on_c, 15, 55, 0
20, 28679, Note_on_c, 15, 70, 0
20, 28679, Note_on_c, 15, 74, 0
20, 28679, Note_on_c, 15, 62, 0
20, 28680, Note_on_c, 15, 63, 72
20, 28680, Note_on_c, 15, 67, 72
20, 28680, Note_on_c, 15, 73, 72
20, 28739, Note_on_c, 15, 63, 0
20, 28740, Note_on_c, 15, 51, 72
20, 28799, Note_on_c, 15, 67, 0
20, 28799, Note_on_c, 15, 73, 0
20, 28799, Note_on_c, 15, 51, 0
20, 28800, Note_on_c, 15, 50, 72
20, 28800, Note_on_c, 15, 66, 72
20, 28800, Note_on_c, 15, 57, 72
20, 28800, Note_on_c, 15, 74, 72
20, 29039, Note_on_c, 15, 50, 0
20, 29039, Note_on_c, 15, 66, 0
20, 29039, Note_on_c, 15, 57, 0
20, 29039, Note_on_c, 15, 74, 0
20, 29040, Note_on_c, 15, 50, 72
20, 29100, Note_on_c, 15, 67, 72
20, 29100, Note_on_c, 15, 58, 72
20, 29100, Note_on_c, 15, 75, 72
20, 29279, Note_on_c, 15, 50, 0
20, 29280, Note_on_c, 15, 50, 72
20, 29339, Note_on_c, 15, 67, 0
20, 29339, Note_on_c, 15, 58, 0
20, 29339, Note_on_c, 15, 75, 0
20, 29340, Note_on_c, 15, 63, 72
20, 29340, Note_on_c, 15, 69, 72
20, 29340, Note_on_c, 15, 60, 72
20, 29519, Note_on_c, 15, 50, 0
20, 29520, Note_on_c, 15, 50, 72
20, 29579, Note_on_c, 15, 63, 0
20, 29579, Note_on_c, 15, 69, 0
20, 29579, Note_on_c, 15, 60, 0
20, 29580, Note_on_c, 15, 66, 72
20, 29580, Note_on_c, 15, 57, 72
20, 29580, Note_on_c, 15, 74, 72
20, 29759, Note_on_c, 15, 50, 0
20, 29760, Note_on_c, 15, 50, 72
20, 29819, Note_on_c, 15, 66, 0
20, 29819, Note_on_c, 15, 57, 0
20, 29819, Note_on_c, 15, 74, 0
20, 29820, Note_on_c, 15, 65, 72
20, 29820, Note_on_c, 15, 70, 72
20, 29820, Note_on_c, 15, 62, 72
20, 29939, Note_on_c, 15, 65, 0
20, 29939, Note_on_c, 15, 62, 0
20, 29940, Note_on_c, 15, 67, 72
20, 29940, Note_on_c, 15, 62, 72
20, 29999, Note_on_c, 15, 50, 0
20, 30000, Note_on_c, 15, 50, 72
20, 30059, Note_on_c, 15, 70, 0
20, 30059, Note_on_c, 15, 67, 0
20, 30059, Note_on_c, 15, 62, 0
20, 30060, Note_on_c, 15, 64, 72
20, 30060, Note_on_c, 15, 67, 72
20, 30060, Note_on_c, 15, 71, 72
20, 30239, Note_on_c, 15, 50, 0
20, 30240, Note_on_c, 15, 50, 72
20, 30299, Note_on_c, 15, 64, 0
20, 30299, Note_on_c, 15, 67, 0
20, 30299, Note_on_c, 15, 71, 0
20, 30300, Note_on_c, 15, 66, 72
20, 30300, Note_on_c, 15, 70, 72
20, 30300, Note_on_c, 15, 62, 72
20, 30479, Note_on_c, 15, 50, 0
20, 30480, Note_on_c, 15, 50, 72
20, 30539, Note_on_c, 15, 66, 0
20, 30539, Note_on_c, 15, 70, 0
20, 30539, Note_on_c, 15, 62, 0
20, 30540, Note_on_c, 15, 58, 72
20, 30540, Note_on_c, 15, 67, 72
20, 30719, Note_on_c, 15, 50, 0
20, 30719, Note_on_c, 15, 58, 0
20, 30719, Note_on_c, 15, 67, 0
20, 30720, Note_on_c, 15, 49, 72
20, 30720, Note_on_c, 15, 64, 72
20, 30720, Note_on_c, 15, 67, 72
20, 30720, Note_on_c, 15, 70, 72
20, 30839, Note_on_c, 15, 49, 0
20, 30839, Note_on_c, 15, 64, 0
20, 30839, Note_on_c, 15, 67, 0
20, 30839, Note_on_c, 15, 70, 0
20, 31080, Note_on_c, 15, 48, 48
20, 31080, Note_on_c, 15, 64, 48
20, 31080, Note_on_c, 15, 67, 48
20, 31080, Note_on_c, 15, 70, 48
20, 31139, Note_on_c, 15, 48, 0
20, 31140, Note_on_c, 15, 48, 48
20, 31199, Note_on_c, 15, 64, 0
20, 31199, Note_on_c, 15, 67, 0
20, 31199, Note_on_c, 15, 70, 0
20, 31199, Note_on_c, 15, 48, 0
20, 31200, Note_on_c, 15, 50, 48
20, 31200, Note_on_c, 15, 66, 48
20, 31200, Note_on_c, 15, 57, 48
20, 31200, Note_on_c, 15, 62, 48
20, 31259, Note_on_c, 15, 50, 0
20, 31260, Note_on_c, 15, 50, 48
20, 31319, Note_on_c, 15, 66, 0
20, 31319, Note_on_c, 15, 57, 0
20, 31319, Note_on_c, 15, 62, 0
20, 31319, Note_on_c, 15, 50, 0
20, 31320, Note_on_c, 15, 51, 48
20, 31320, Note_on_c, 15, 67, 48
20, 31320, Note_on_c, 15, 70, 48
20, 31320, Note_on_c, 15, 61, 48
20, 31379, Note_on_c, 15, 51, 0
20, 31380, Note_on_c, 15, 51, 48
20, 31439, Note_on_c, 15, 67, 0
20, 31439, Note_on_c, 15, 70, 0
20, 31439, Note_on_c, 15, 61, 0
20, 31439, Note_on_c, 15, 51, 0
20, 31440, Note_on_c, 15, 50, 48
20, 31440, Note_on_c, 15, 67, 48
20, 31440, Note_on_c, 15, 57, 48
20, 31440, Note_on_c, 15, 62, 48
20, 31499, Note_on_c, 15, 50, 0
20, 31500, Note_on_c, 15, 50, 48
20, 31559, Note_on_c, 15, 67, 0
20, 31559, Note_on_c, 15, 62, 0
20, 31559, Note_on_c, 15, 50, 0
20, 31560, Note_on_c, 15, 50, 48
20, 31560, Note_on_c, 15, 66, 48
20, 31619, Note_on_c, 15, 50, 0
20, 31620, Note_on_c, 15, 50, 48
20, 31679, Note_on_c, 15, 57, 0
20, 31679, Note_on_c, 15, 66, 0
20, 31679, Note_on_c, 15, 50, 0
20, 31680, Note_on_c, 15, 58, 48
20, 31680, Note_on_c, 15, 43, 48
20, 31680, Note_on_c, 15, 62, 48
20, 31680, Note_on_c, 15, 67, 48
20, 31799, Note_on_c, 15, 58, 0
20, 31799, Note_on_c, 15, 43, 0
20, 31799, Note_on_c, 15, 62, 0
20, 31799, Note_on_c, 15, 67, 0
20, 31860, Note_on_c, 15, 58, 48
20, 31860, Note_on_c, 15, 74, 48
20, 31860, Note_on_c, 15, 67, 48
20, 31889, Note_on_c, 15, 58, 0
20, 31890, Note_on_c, 15, 55, 48
20, 31919, Note_on_c, 15, 74, 0
20, 31919, Note_on_c, 15, 67, 0
20, 31919, Note_on_c, 15, 55, 0
20, 31920, Note_on_c, 15, 51, 48
20, 31920, Note_on_c, 15, 79, 48
20, 31920, Note_on_c, 15, 60, 48
20, 31920, Note_on_c, 15, 63, 48
20, 31979, Note_on_c, 15, 51, 0
20, 32100, Note_on_c, 15, 51, 48
20, 32129, Note_on_c, 15, 51, 0
20, 32130, Note_on_c, 15, 48, 48
20, 32159, Note_on_c, 15, 79, 0
20, 32159, Note_on_c, 15, 60, 0
20, 32159, Note_on_c, 15, 63, 0
20, 32159, Note_on_c, 15, 48, 0
20, 32160, Note_on_c, 15, 41, 48
20, 32160, Note_on_c, 15, 69, 48
20, 32160, Note_on_c, 15, 60, 48
20, 32219, Note_on_c, 15, 41, 0
20, 32220, Note_on_c, 15, 53, 48
20, 32279, Note_on_c, 15, 53, 0
20, 32340, Note_on_c, 15, 57, 48
20, 32369, Note_on_c, 15, 57, 0
20, 32370, Note_on_c, 15, 53, 48
20, 32399, Note_on_c, 15, 69, 0
20, 32399, Note_on_c, 15, 60, 0
20, 32399, Note_on_c, 15, 53, 0
20, 32400, Note_on_c, 15, 50, 48
20, 32400, Note_on_c, 15, 77, 48
20, 32400, Note_on_c, 15, 70, 48
20, 32400, Note_on_c, 15, 62, 48
20, 32459, Note_on_c, 15, 50, 0
20, 32580, Note_on_c, 15, 46, 48
20, 32609, Note_on_c, 15, 46, 0
20, 32610, Note_on_c, 15, 43, 48
20, 32639, Note_on_c, 15, 77, 0
20, 32639, Note_on_c, 15, 70, 0
20, 32639, Note_on_c, 15, 62, 0
20, 32639, Note_on_c, 15, 43, 0
20, 32640, Note_on_c, 15, 39, 48
20, 32640, Note_on_c, 15, 67, 48
20, 32640, Note_on_c, 15, 58, 48
20, 32640, Note_on_c, 15, 75, 48
20, 32699, Note_on_c, 15, 39, 0
20, 32700, Note_on_c, 15, 51, 48
20, 32759, Note_on_c, 15, 51, 0
20, 32820, Note_on_c, 15, 51, 48
20, 32849, Note_on_c, 15, 51, 0
20, 32850, Note_on_c, 15, 48, 48
20, 32879, Note_on_c, 15, 67, 0
20, 32879, Note_on_c, 15, 58, 0
20, 32879, Note_on_c, 15, 75, 0
20, 32879, Note_on_c, 15, 48, 0
20, 32880, Note_on_c, 15, 45, 48
20, 32880, Note_on_c, 15, 72, 48
20, 32880, Note_on_c, 15, 63, 48
20, 32880, Note_on_c, 15, 67, 48
20, 32939, Note_on_c, 15, 45, 0
20, 32940, Note_on_c, 15, 57, 48
20, 32999, Note_on_c, 15, 72, 0
20, 32999, Note_on_c, 15, 63, 0
20, 32999, Note_on_c, 15, 67, 0
20, 32999, Note_on_c, 15, 57, 0
20, 33000, Note_on_c, 15, 63, 48
20, 33000, Note_on_c, 15, 69, 48
20, 33059, Note_on_c, 15, 69, 0
20, 33060, Note_on_c, 15, 48, 48
20, 33060, Note_on_c, 15, 67, 48
20, 33089, Note_on_c, 15, 48, 0
20, 33090, Note_on_c, 15, 45, 48
20, 33119, Note_on_c, 15, 63, 0
20, 33119, Note_on_c, 15, 67, 0
20, 33119, Note_on_c, 15, 45, 0
20, 33120, Note_on_c, 15, 50, 48
20, 33120, Note_on_c, 15, 66, 48
20, 33120, Note_on_c, 15, 57, 48
20, 33120, Note_on_c, 15, 62, 48
20, 33179, Note_on_c, 15, 50, 0
20, 33180, Note_on_c, 15, 48, 48
20, 33239, Note_on_c, 15, 66, 0
20, 33239, Note_on_c, 15, 57, 0
20, 33239, Note_on_c, 15, 62, 0
20, 33239, Note_on_c, 15, 48, 0
20, 33240, Note_on_c, 15, 46, 48
20, 33240, Note_on_c, 15, 62, 48
20, 33240, Note_on_c, 15, 67, 48
20, 33299, Note_on_c, 15, 46, 0
20, 33299, Note_on_c, 15, 62, 0
20, 33299, Note_on_c, 15, 67, 0
20, 33300, Note_on_c, 15, 48, 48
20, 33300, Note_on_c, 15, 63, 48
20, 33300, Note_on_c, 15, 67, 48
20, 33300, Note_on_c, 15, 69, 48
20, 33359, Note_on_c, 15, 48, 0
20, 33359, Note_on_c, 15, 63, 0
20, 33359, Note_on_c, 15, 67, 0
20, 33359, Note_on_c, 15, 69, 0
20, 33360, Note_on_c, 15, 50, 48
20, 33360, Note_on_c, 15, 67, 48
20, 33360, Note_on_c, 15, 70, 48
20, 33360, Note_on_c, 15, 62, 48
20, 33479, Note_on_c, 15, 50, 0
20, 33479, Note_on_c, 15, 67, 0
20, 33479, Note_on_c, 15, 70, 0
20, 33479, Note_on_c, 15, 62, 0
20, 33480, Note_on_c, 15, 50, 48
20, 33480, Note_on_c, 15, 60, 48
20, 33480, Note_on_c, 15, 69, 48
20, 33480, Note_on_c, 15, 66, 48
20, 33599, Note_on_c, 15, 50, 0
20, 33599, Note_on_c, 15, 60, 0
20, 33599, Note_on_c, 15, 69, 0
20, 33599, Note_on_c, 15, 66, 0
20, 33600, Note_on_c, 15, 43, 48
20, 33600, Note_on_c, 15, 58, 48
20, 33600, Note_on_c, 15, 67, 48
20, 33600, Note_on_c, 15, 62, 48
20, 33659, Note_on_c, 15, 43, 0
20, 33659, Note_on_c, 15, 58, 0
20, 33659, Note_on_c, 15, 67, 0
20, 33659, Note_on_c, 15, 62, 0
20, 33660, Note_on_c, 15, 55, 72
20, 33660, Note_on_c, 15, 58, 72
20, 33660, Note_on_c, 15, 62, 72
20, 33660, Note_on_c, 15, 67, 72
20, 33689, Note_on_c, 15, 55, 0
20, 33690, Note_on_c, 15, 54, 72
20, 33719, Note_on_c, 15, 58, 0
20, 33719, Note_on_c, 15, 62, 0
20, 33719, Note_on_c, 15, 67, 0
20, 33719, Note_on_c, 15, 54, 0
20, 33720, Note_on_c, 15, 55, 72
20, 33720, Note_on_c, 15, 70, 72
20, 33720, Note_on_c, 15, 62, 72
20, 33779, Note_on_c, 15, 55, 0
20, 33780, Note_on_c, 15, 58, 72
20, 33839, Note_on_c, 15, 70, 0
20, 33839, Note_on_c, 15, 62, 0
20, 33839, Note_on_c, 15, 58, 0
20, 33840, Note_on_c, 15, 43, 72
20, 33840, Note_on_c, 15, 58, 72
20, 33840, Note_on_c, 15, 75, 72
20, 33840, Note_on_c, 15, 67, 72
20, 33899, Note_on_c, 15, 43, 0
20, 33900, Note_on_c, 15, 55, 72
20, 33929, Note_on_c, 15, 55, 0
20, 33930, Note_on_c, 15, 53, 72
20, 33959, Note_on_c, 15, 58, 0
20, 33959, Note_on_c, 15, 75, 0
20, 33959, Note_on_c, 15, 67, 0
20, 33959, Note_on_c, 15, 53, 0
20, 33960, Note_on_c, 15, 55, 72
20, 33960, Note_on_c, 15, 70, 72
20, 33960, Note_on_c, 15, 67, 72
20, 33960, Note_on_c, 15, 79, 72
20, 34019, Note_on_c, 15, 55, 0
20, 34019, Note_on_c, 15, 70, 0
20, 34019, Note_on_c, 15, 67, 0
20, 34019, Note_on_c, 15, 79, 0
20, 34020, Note_on_c, 15, 63, 72
20, 34020, Note_on_c, 15, 67, 72
20, 34020, Note_on_c, 15, 70, 72
20, 34020, Note_on_c, 15, 75, 72
20, 34079, Note_on_c, 15, 63, 0
20, 34079, Note_on_c, 15, 67, 0
20, 34079, Note_on_c, 15, 70, 0
20, 34079, Note_on_c, 15, 75, 0
20, 34080, Note_on_c, 15, 42, 72
20, 34139, Note_on_c, 15, 42, 0
20, 34140, Note_on_c, 15, 54, 72
20, 34169, Note_on_c, 15, 54, 0
20, 34170, Note_on_c, 15, 52, 72
20, 34199, Note_on_c, 15, 52, 0
20, 34200, Note_on_c, 15, 54, 72
20, 34259, Note_on_c, 15, 54, 0
20, 34260, Note_on_c, 15, 57, 72
20, 34319, Note_on_c, 15, 57, 0
20, 34320, Note_on_c, 15, 41, 72
20, 34379, Note_on_c, 15, 41, 0
20, 34380, Note_on_c, 15, 53, 72
20, 34409, Note_on_c, 15, 53, 0
20, 34410, Note_on_c, 15, 52, 72
20, 34439, Note_on_c, 15, 52, 0
20, 34440, Note_on_c, 15, 53, 72
20, 34499, Note_on_c, 15, 53, 0
20, 34500, Note_on_c, 15, 62, 72
20, 34559, Note_on_c, 15, 62, 0
20, 34560, Note_on_c, 15, 40, 72
20, 34619, Note_on_c, 15, 40, 0
20, 34620, Note_on_c, 15, 52, 72
20, 34649, Note_on_c, 15, 52, 0
20, 34650, Note_on_c, 15, 50, 72
20, 34679, Note_on_c, 15, 50, 0
20, 34680, Note_on_c, 15, 52, 72
20, 34739, Note_on_c, 15, 52, 0
20, 34740, Note_on_c, 15, 55, 72
20, 34799, Note_on_c, 15, 55, 0
20, 34800, Note_on_c, 15, 39, 72
20, 34859, Note_on_c, 15, 39, 0
20, 34860, Note_on_c, 15, 51, 72
20, 34889, Note_on_c, 15, 51, 0
20, 34890, Note_on_c, 15, 50, 72
20, 34919, Note_on_c, 15, 50, 0
20, 34920, Note_on_c, 15, 51, 72
20, 34979, Note_on_c, 15, 51, 0
20, 34980, Note_on_c, 15, 60, 72
20, 35039, Note_on_c, 15, 60, 0
20, 35040, Note_on_c, 15, 50, 72
20, 35099, Note_on_c, 15, 50, 0
20, 35100, Note_on_c, 15, 54, 72
20, 35129, Note_on_c, 15, 54, 0
20, 35130, Note_on_c, 15, 50, 72
20, 35159, Note_on_c, 15, 50, 0
20, 35160, Note_on_c, 15, 55, 72
20, 35219, Note_on_c, 15, 55, 0
20, 35220, Note_on_c, 15, 48, 72
20, 35279, Note_on_c, 15, 48, 0
20, 35280, Note_on_c, 15, 50, 72
20, 35339, Note_on_c, 15, 50, 0
20, 35340, Note_on_c, 15, 58, 72
20, 35369, Note_on_c, 15, 58, 0
20, 35370, Note_on_c, 15, 55, 72
20, 35399, Note_on_c, 15, 55, 0
20, 35400, Note_on_c, 15, 62, 72
20, 35459, Note_on_c, 15, 62, 0
20, 35460, Note_on_c, 15, 50, 72
20, 35519, Note_on_c, 15, 50, 0
20, 35520, Note_on_c, 15, 55, 72
20, 35520, Note_on_c, 15, 62, 72
20, 35520, Note_on_c, 15, 58, 72
20, 35520, Note_on_c, 15, 67, 72
20, 35639, Note_on_c, 15, 55, 0
20, 35639, Note_on_c, 15, 62, 0
20, 35639, Note_on_c, 15, 58, 0
20, 35639, Note_on_c, 15, 67, 0
20, 35880, Note_on_c, 15, 55, 72
20, 35880, Note_on_c, 15, 58, 72
20, 35880, Note_on_c, 15, 62, 72
20, 35880, Note_on_c, 15, 67, 72
20, 35999, Note_on_c, 15, 55, 0
20, 35999, Note_on_c, 15, 58, 0
20, 35999, Note_on_c, 15, 62, 0
20, 35999, Note_on_c, 15, 67, 0
20, 36000, Note_on_c, 15, 51, 72
20, 36000, Note_on_c, 15, 63, 72
20, 36000, Note_on_c, 15, 67, 72
20, 36000, Note_on_c, 15, 70, 72
20, 36119, Note_on_c, 15, 51, 0
20, 36119, Note_on_c, 15, 63, 0
20, 36119, Note_on_c, 15, 67, 0
20, 36119, Note_on_c, 15, 70, 0
20, 36120, Note_on_c, 15, 55, 72
20, 36120, Note_on_c, 15, 59, 72
20, 36120, Note_on_c, 15, 62, 72
20, 36120, Note_on_c, 15, 67, 72
20, 36239, Note_on_c, 15, 55, 0
20, 36239, Note_on_c, 15, 59, 0
20, 36239, Note_on_c, 15, 62, 0
20, 36239, Note_on_c, 15, 67, 0
20, 36240, Note_on_c, 15, 51, 72
20, 36240, Note_on_c, 15, 63, 72
20, 36240, Note_on_c, 15, 67, 72
20, 36240, Note_on_c, 15, 70, 72
20, 36359, Note_on_c, 15, 51, 0
20, 36359, Note_on_c, 15, 63, 0
20, 36359, Note_on_c, 15, 67, 0
20, 36359, Note_on_c, 15, 70, 0
20, 36360, Note_on_c, 15, 47, 72
20, 36360, Note_on_c, 15, 62, 72
20, 36360, Note_on_c, 15, 65, 72
20, 36479, Note_on_c, 15, 47, 0
20, 36479, Note_on_c, 15, 62, 0
20, 36479, Note_on_c, 15, 65, 0
20, 36480, Note_on_c, 15, 48, 72
20, 36480, Note_on_c, 15, 63, 72
20, 36480, Note_on_c, 15, 67, 72
20, 36480, Note_on_c, 15, 60, 72
20, 36959, Note_on_c, 15, 48, 0
20, 36959, Note_on_c, 15, 63, 0
20, 36959, Note_on_c, 15, 67, 0
20, 36959, Note_on_c, 15, 60, 0
20, 36960, Note_on_c, 15, 43, 72
20, 36960, Note_on_c, 15, 59, 72
20, 36960, Note_on_c, 15, 62, 72
20, 36960, Note_on_c, 15, 67, 72
20, 37439, Note_on_c, 15, 43, 0
20, 37439, Note_on_c, 15, 59, 0
20, 37439, Note_on_c, 15, 62, 0
20, 37439, Note_on_c, 15, 67, 0
20, 37439, End_track
0, 0, End_of_file